Track,Message Type,Note,Velocity,Time
1,note_on,69,65,1440
1,note_on,57,55,0
1,note_on,62,55,0
1,note_on,62,0,390
1,note_on,57,0,0
1,note_on,69,0,0
1,note_on,69,72,90
1,note_on,57,61,0
1,note_on,61,61,0
1,note_on,57,0,720
1,note_on,69,0,0
1,note_on,69,63,0
1,note_on,57,54,0
1,note_on,57,0,240
1,note_on,69,0,0
1,note_on,61,0,0
1,note_on,57,70,0
1,note_on,69,70,0
1,note_on,62,59,0
1,note_on,62,0,480
1,note_on,69,0,0
1,note_on,57,0,0
1,note_on,57,68,0
1,note_on,69,68,0
1,note_on,60,57,0
1,note_on,64,57,0
1,note_on,64,0,480
1,note_on,57,0,0
1,note_on,69,0,0
1,note_on,60,0,0
1,note_on,69,75,0
1,note_on,60,47,0
1,note_on,66,59,0
1,note_on,57,48,0
1,note_on,66,0,480
1,note_on,60,0,0
1,note_on,66,62,0
1,note_on,60,52,0
1,note_on,60,0,480
1,note_on,57,0,0
1,note_on,69,0,0
1,note_on,66,0,0
1,note_on,69,73,0
1,note_on,60,48,0
1,note_on,66,55,0
1,note_on,57,51,0
1,note_on,57,0,480
1,note_on,69,0,0
1,note_on,60,0,0
1,note_on,66,0,0
1,note_on,66,48,0
1,note_on,69,71,0
1,note_on,60,45,0
1,note_on,57,54,0
1,note_on,57,0,360
1,note_on,69,0,0
1,note_on,69,66,0
1,note_on,57,55,0
1,note_on,57,0,120
1,note_on,66,0,0
1,note_on,60,0,0
1,note_on,69,0,0
1,note_on,64,72,0
1,note_on,60,61,0
1,note_on,57,61,0
1,note_on,52,61,0
1,note_on,57,0,960
1,note_on,60,0,0
1,note_on,59,72,0
1,note_on,56,61,0
1,note_on,56,0,960
1,note_on,52,0,0
1,note_on,64,0,0
1,note_on,59,0,0
1,note_on,52,61,90
1,note_on,57,61,0
1,note_on,61,61,0
1,note_on,64,72,0
1,note_on,64,0,870
1,note_on,52,0,0
1,note_on,57,0,0
1,note_on,61,0,0
1,note_on,67,76,840
1,note_on,55,63,0
1,note_on,62,63,0
1,note_on,65,63,0
1,note_on,65,0,120
1,note_on,67,0,0
1,note_on,55,0,0
1,note_on,62,0,0
1,note_on,67,82,0
1,note_on,60,70,0
1,note_on,64,70,0
1,note_on,55,59,0
1,note_on,55,0,240
1,note_on,67,0,0
1,note_on,60,0,0
1,note_on,64,0,0
1,note_on,67,79,240
1,note_on,60,64,0
1,note_on,63,64,0
1,note_on,55,54,0
1,note_on,55,0,240
1,note_on,67,0,0
1,note_on,60,0,0
1,note_on,63,0,0
1,note_on,67,78,480
1,note_on,59,65,0
1,note_on,62,65,0
1,note_on,55,55,0
1,note_on,55,0,240
1,note_on,67,0,0
1,note_on,59,0,0
1,note_on,62,0,0
1,note_on,67,82,0
1,note_on,58,70,0
1,note_on,61,70,0
1,note_on,55,59,0
1,note_on,55,0,240
1,note_on,67,0,0
1,note_on,58,0,0
1,note_on,61,0,0
1,note_on,67,78,240
1,note_on,58,65,0
1,note_on,61,65,0
1,note_on,55,55,0
1,note_on,55,0,240
1,note_on,67,0,0
1,note_on,58,0,0
1,note_on,61,0,0
1,note_on,67,42,720
1,note_on,55,32,0
1,note_on,60,36,0
1,note_on,55,0,360
1,note_on,67,0,0
1,note_on,55,37,0
1,note_on,67,45,0
1,note_on,67,0,120
1,note_on,55,0,0
1,note_on,60,0,0
1,note_on,67,54,0
1,note_on,62,44,0
1,note_on,59,43,8
1,note_on,55,37,1
1,note_on,62,0,471
1,note_on,67,0,0
1,note_on,58,42,0
1,note_on,64,47,0
1,note_on,55,47,0
1,note_on,67,62,0
1,note_on,59,0,8
1,note_on,55,0,1
1,note_on,55,0,231
1,note_on,67,0,0
1,note_on,55,54,0
1,note_on,67,63,0
1,note_on,67,0,240
1,note_on,58,0,0
1,note_on,64,0,0
1,note_on,55,0,0
1,note_on,55,61,0
1,note_on,57,61,0
1,note_on,50,61,0
1,note_on,62,72,0
1,note_on,57,0,480
1,note_on,55,0,0
1,note_on,57,72,0
1,note_on,54,61,0
1,note_on,54,0,960
1,note_on,62,0,0
1,note_on,50,0,0
1,note_on,57,0,0
1,note_on,50,65,120
1,note_on,55,69,30
1,note_on,59,72,30
1,note_on,62,76,30
1,note_on,62,0,750
1,note_on,50,0,0
1,note_on,55,0,0
1,note_on,59,0,0
1,note_on,62,66,480
1,note_on,50,62,0
1,note_on,50,0,60
1,note_on,56,48,0
1,note_on,53,40,0
1,note_on,62,0,59
1,note_on,53,0,1
1,note_on,56,0,0
1,note_on,62,50,0
1,note_on,62,0,60
1,note_on,62,51,0
1,note_on,62,0,60
1,note_on,68,53,0
1,note_on,65,45,0
1,note_on,65,0,60
1,note_on,68,0,0
1,note_on,74,54,0
1,note_on,74,0,60
1,note_on,74,55,0
1,note_on,74,0,60
1,note_on,80,57,0
1,note_on,77,48,0
1,note_on,77,0,60
1,note_on,80,0,0
1,note_on,86,58,0
1,note_on,86,0,60
1,note_on,86,60,0
1,note_on,86,0,60
1,note_on,92,63,0
1,note_on,89,54,0
1,note_on,89,0,60
1,note_on,92,0,0
1,note_on,98,68,0
1,note_on,98,0,60
1,note_on,92,68,0
1,note_on,89,57,0
1,note_on,89,0,60
1,note_on,92,0,0
1,note_on,86,66,0
1,note_on,86,0,60
1,note_on,86,64,0
1,note_on,86,0,60
1,note_on,80,63,0
1,note_on,77,53,0
1,note_on,77,0,60
1,note_on,80,0,0
1,note_on,74,61,0
1,note_on,74,0,60
1,note_on,74,60,0
1,note_on,74,0,60
1,note_on,68,58,0
1,note_on,65,49,0
1,note_on,65,0,60
1,note_on,68,0,0
1,note_on,62,56,0
1,note_on,62,0,60
1,note_on,62,54,0
1,note_on,62,0,60
1,note_on,56,57,0
1,note_on,53,48,0
1,note_on,53,0,60
1,note_on,56,0,0
1,note_on,50,62,0
1,note_on,50,0,60
1,note_on,56,55,0
1,note_on,53,46,0
1,note_on,53,0,60
1,note_on,56,0,0
1,note_on,62,56,0
1,note_on,62,0,60
1,note_on,62,57,0
1,note_on,62,0,60
1,note_on,68,59,0
1,note_on,65,50,0
1,note_on,65,0,60
1,note_on,68,0,0
1,note_on,74,60,0
1,note_on,74,0,60
1,note_on,74,61,0
1,note_on,74,0,60
1,note_on,80,62,0
1,note_on,77,52,0
1,note_on,77,0,60
1,note_on,80,0,0
1,note_on,86,63,0
1,note_on,86,0,60
1,note_on,86,64,0
1,note_on,86,0,60
1,note_on,92,66,0
1,note_on,89,55,0
1,note_on,89,0,60
1,note_on,92,0,0
1,note_on,98,68,0
1,note_on,98,0,60
1,note_on,92,67,0
1,note_on,89,56,0
1,note_on,89,0,60
1,note_on,92,0,0
1,note_on,86,65,0
1,note_on,86,0,60
1,note_on,86,64,0
1,note_on,86,0,60
1,note_on,80,63,0
1,note_on,77,54,0
1,note_on,77,0,60
1,note_on,80,0,0
1,note_on,74,63,0
1,note_on,74,0,60
1,note_on,74,61,0
1,note_on,74,0,60
1,note_on,68,60,0
1,note_on,65,50,0
1,note_on,65,0,60
1,note_on,68,0,0
1,note_on,62,59,0
1,note_on,62,0,60
1,note_on,62,57,0
1,note_on,62,0,60
1,note_on,56,56,0
1,note_on,53,47,0
1,note_on,53,0,60
1,note_on,56,0,0
1,note_on,50,87,0
1,note_on,50,0,240
1,note_on,57,74,2400
1,note_on,45,74,0
1,note_on,45,0,60
1,note_on,52,50,0
1,note_on,49,45,0
1,note_on,57,0,58
1,note_on,49,0,2
1,note_on,52,0,0
1,note_on,57,52,0
1,note_on,57,0,60
1,note_on,57,54,0
1,note_on,57,0,60
1,note_on,64,55,0
1,note_on,61,51,0
1,note_on,61,0,60
1,note_on,64,0,0
1,note_on,69,56,0
1,note_on,69,0,60
1,note_on,69,58,0
1,note_on,69,0,60
1,note_on,76,60,0
1,note_on,73,55,0
1,note_on,73,0,60
1,note_on,76,0,0
1,note_on,81,61,0
1,note_on,81,0,60
1,note_on,81,63,0
1,note_on,81,0,60
1,note_on,88,64,0
1,note_on,85,60,0
1,note_on,85,0,60
1,note_on,88,0,0
1,note_on,93,71,0
1,note_on,93,0,60
1,note_on,88,67,0
1,note_on,85,63,0
1,note_on,85,0,60
1,note_on,88,0,0
1,note_on,81,66,0
1,note_on,81,0,60
1,note_on,81,64,0
1,note_on,81,0,60
1,note_on,76,63,0
1,note_on,73,58,0
1,note_on,73,0,60
1,note_on,76,0,0
1,note_on,69,61,0
1,note_on,69,0,60
1,note_on,69,59,0
1,note_on,69,0,60
1,note_on,64,57,0
1,note_on,61,53,0
1,note_on,61,0,60
1,note_on,64,0,0
1,note_on,57,55,0
1,note_on,57,0,60
1,note_on,57,54,0
1,note_on,57,0,60
1,note_on,52,53,0
1,note_on,49,48,0
1,note_on,49,0,60
1,note_on,52,0,0
1,note_on,45,53,0
1,note_on,45,0,60
1,note_on,52,55,0
1,note_on,49,39,0
1,note_on,49,0,60
1,note_on,52,0,0
1,note_on,57,51,0
1,note_on,57,0,60
1,note_on,57,53,0
1,note_on,57,0,60
1,note_on,64,54,0
1,note_on,61,50,0
1,note_on,61,0,60
1,note_on,64,0,0
1,note_on,69,56,0
1,note_on,69,0,60
1,note_on,69,58,0
1,note_on,69,0,60
1,note_on,76,60,0
1,note_on,73,55,0
1,note_on,73,0,60
1,note_on,76,0,0
1,note_on,81,62,0
1,note_on,81,0,60
1,note_on,81,63,0
1,note_on,81,0,60
1,note_on,88,66,0
1,note_on,85,62,0
1,note_on,85,0,60
1,note_on,88,0,0
1,note_on,93,71,0
1,note_on,93,0,60
1,note_on,88,70,0
1,note_on,85,65,0
1,note_on,85,0,60
1,note_on,88,0,0
1,note_on,81,68,0
1,note_on,81,0,60
1,note_on,81,66,0
1,note_on,81,0,60
1,note_on,76,64,0
1,note_on,73,60,0
1,note_on,73,0,60
1,note_on,76,0,0
1,note_on,69,63,0
1,note_on,69,0,60
1,note_on,69,61,0
1,note_on,69,0,60
1,note_on,64,60,0
1,note_on,61,55,0
1,note_on,61,0,60
1,note_on,64,0,0
1,note_on,57,58,0
1,note_on,57,0,60
1,note_on,57,56,0
1,note_on,57,0,60
1,note_on,52,54,0
1,note_on,49,50,0
1,note_on,49,0,60
1,note_on,52,0,0
1,note_on,45,87,0
1,note_on,45,0,240
1,note_on,57,49,1200
1,note_on,69,49,0
1,note_on,62,41,0
1,note_on,57,0,120
1,note_on,58,45,0
1,note_on,58,0,120
1,note_on,57,48,0
1,note_on,57,0,120
1,note_on,58,45,0
1,note_on,58,0,120
1,note_on,62,0,0
1,note_on,69,0,0
1,note_on,57,52,0
1,note_on,69,52,0
1,note_on,61,44,0
1,note_on,57,0,120
1,note_on,58,45,0
1,note_on,58,0,120
1,note_on,57,48,0
1,note_on,57,0,120
1,note_on,58,45,0
1,note_on,58,0,120
1,note_on,57,48,0
1,note_on,57,0,100
1,note_on,62,46,20
1,note_on,62,0,120
1,note_on,61,0,0
1,note_on,69,0,0
1,note_on,61,48,0
1,note_on,69,51,0
1,note_on,61,0,120
1,note_on,58,48,0
1,note_on,57,39,100
1,note_on,62,43,10
1,note_on,58,0,10
1,note_on,69,0,0
1,note_on,69,48,0
1,note_on,57,0,120
1,note_on,58,45,0
1,note_on,58,0,120
1,note_on,57,49,0
1,note_on,57,0,120
1,note_on,58,45,0
1,note_on,57,40,100
1,note_on,64,43,10
1,note_on,58,0,10
1,note_on,62,0,0
1,note_on,69,0,0
1,note_on,69,51,0
1,note_on,57,0,110
1,note_on,64,0,7
1,note_on,64,51,3
1,note_on,64,0,120
1,note_on,60,52,0
1,note_on,60,0,120
1,note_on,59,48,0
1,note_on,59,0,120
1,note_on,69,0,0
1,note_on,57,59,0
1,note_on,69,59,0
1,note_on,66,50,0
1,note_on,57,0,120
1,note_on,59,49,0
1,note_on,59,0,120
1,note_on,57,54,0
1,note_on,57,0,120
1,note_on,59,49,0
1,note_on,59,0,120
1,note_on,57,56,0
1,note_on,57,0,110
1,note_on,66,0,0
1,note_on,66,54,10
1,note_on,66,0,120
1,note_on,60,57,0
1,note_on,60,0,120
1,note_on,59,54,0
1,note_on,59,0,120
1,note_on,69,0,0
1,note_on,57,62,0
1,note_on,69,62,0
1,note_on,66,52,0
1,note_on,57,0,120
1,note_on,59,54,0
1,note_on,59,0,120
1,note_on,57,60,0
1,note_on,57,0,120
1,note_on,59,55,0
1,note_on,59,0,120
1,note_on,66,0,0
1,note_on,69,0,0
1,note_on,57,65,0
1,note_on,69,65,0
1,note_on,66,54,0
1,note_on,57,0,120
1,note_on,60,59,0
1,note_on,60,0,120
1,note_on,59,63,0
1,note_on,59,0,120
1,note_on,57,59,0
1,note_on,57,0,120
1,note_on,66,0,0
1,note_on,69,0,0
1,note_on,52,59,0
1,note_on,60,67,0
1,note_on,64,67,0
1,note_on,53,52,120
1,note_on,52,0,10
1,note_on,52,59,110
1,note_on,53,0,10
1,note_on,53,52,110
1,note_on,52,0,10
1,note_on,52,59,110
1,note_on,53,0,10
1,note_on,52,0,110
1,note_on,57,54,0
1,note_on,55,59,120
1,note_on,57,0,10
1,note_on,53,54,110
1,note_on,55,0,10
1,note_on,60,0,110
1,note_on,64,0,0
1,note_on,53,0,0
1,note_on,52,59,0
1,note_on,59,67,0
1,note_on,64,67,0
1,note_on,53,56,120
1,note_on,52,0,10
1,note_on,52,56,110
1,note_on,53,0,10
1,note_on,53,50,110
1,note_on,52,0,10
1,note_on,52,54,110
1,note_on,53,0,10
1,note_on,52,0,110
1,note_on,59,49,0
1,note_on,56,59,120
1,note_on,59,0,10
1,note_on,53,54,110
1,note_on,56,0,10
1,note_on,59,0,110
1,note_on,64,0,0
1,note_on,53,0,0
1,note_on,64,59,40
1,note_on,61,59,0
1,note_on,52,59,0
1,note_on,52,0,80
1,note_on,53,44,0
1,note_on,53,0,120
1,note_on,52,51,0
1,note_on,52,0,120
1,note_on,53,45,0
1,note_on,53,0,120
1,note_on,52,49,0
1,note_on,52,0,90
1,note_on,61,0,30
1,note_on,61,54,0
1,note_on,57,51,120
1,note_on,57,0,120
1,note_on,53,49,0
1,note_on,53,0,120
1,note_on,61,0,0
1,note_on,64,0,0
1,note_on,52,54,0
1,note_on,52,0,90
1,note_on,57,51,30
1,note_on,57,0,120
1,note_on,53,53,0
1,note_on,53,0,120
1,note_on,52,50,0
1,note_on,52,0,120
1,note_on,49,52,0
1,note_on,49,0,90
1,note_on,53,54,30
1,note_on,53,0,120
1,note_on,52,51,0
1,note_on,52,0,120
1,note_on,49,47,0
1,note_on,49,0,120
1,note_on,45,56,0
1,note_on,45,0,120
1,note_on,46,53,0
1,note_on,46,0,120
1,note_on,47,56,0
1,note_on,47,0,120
1,note_on,48,56,0
1,note_on,48,0,120
1,note_on,49,54,0
1,note_on,49,0,120
1,note_on,50,54,0
1,note_on,50,0,120
1,note_on,51,56,0
1,note_on,51,0,120
1,note_on,52,57,0
1,note_on,52,0,120
1,note_on,53,58,0
1,note_on,53,0,120
1,note_on,54,60,0
1,note_on,54,0,120
1,note_on,55,61,0
1,note_on,55,0,120
1,note_on,56,63,0
1,note_on,56,0,120
1,note_on,55,69,0
1,note_on,55,0,120
1,note_on,56,66,0
1,note_on,56,0,120
1,note_on,67,68,0
1,note_on,55,63,0
1,note_on,65,57,0
1,note_on,55,0,120
1,note_on,56,59,0
1,note_on,56,0,120
1,note_on,65,0,0
1,note_on,67,0,0
1,note_on,67,73,0
1,note_on,55,62,0
1,note_on,64,62,0
1,note_on,55,0,120
1,note_on,56,56,0
1,note_on,56,0,120
1,note_on,64,0,0
1,note_on,67,0,0
1,note_on,55,59,0
1,note_on,55,0,120
1,note_on,56,56,0
1,note_on,56,0,120
1,note_on,67,71,0
1,note_on,55,56,0
1,note_on,63,60,0
1,note_on,55,0,110
1,note_on,60,62,10
1,note_on,60,0,120
1,note_on,63,0,0
1,note_on,67,0,0
1,note_on,58,58,0
1,note_on,58,0,120
1,note_on,56,58,0
1,note_on,56,0,120
1,note_on,55,62,0
1,note_on,55,0,120
1,note_on,56,56,0
1,note_on,56,0,120
1,note_on,67,70,0
1,note_on,55,62,0
1,note_on,62,59,0
1,note_on,55,0,120
1,note_on,56,56,0
1,note_on,56,0,120
1,note_on,62,0,0
1,note_on,67,0,0
1,note_on,67,73,0
1,note_on,55,62,0
1,note_on,61,62,0
1,note_on,55,0,120
1,note_on,57,56,0
1,note_on,57,0,120
1,note_on,61,0,0
1,note_on,67,0,0
1,note_on,55,62,0
1,note_on,55,0,120
1,note_on,57,56,0
1,note_on,57,0,120
1,note_on,67,70,0
1,note_on,55,58,0
1,note_on,61,59,0
1,note_on,55,0,110
1,note_on,60,60,10
1,note_on,60,0,120
1,note_on,61,0,0
1,note_on,67,0,0
1,note_on,58,59,0
1,note_on,58,0,120
1,note_on,57,59,0
1,note_on,57,0,120
1,note_on,55,62,0
1,note_on,55,0,120
1,note_on,57,56,0
1,note_on,57,0,120
1,note_on,55,62,0
1,note_on,55,0,120
1,note_on,57,56,0
1,note_on,57,0,120
1,note_on,67,50,0
1,note_on,55,62,0
1,note_on,60,42,0
1,note_on,55,0,110
1,note_on,60,0,10
1,note_on,60,53,0
1,note_on,58,53,120
1,note_on,58,0,120
1,note_on,67,0,0
1,note_on,57,53,0
1,note_on,57,0,120
1,note_on,60,0,0
1,note_on,67,51,0
1,note_on,55,51,0
1,note_on,59,51,0
1,note_on,55,0,110
1,note_on,62,54,10
1,note_on,62,0,120
1,note_on,58,54,0
1,note_on,58,0,120
1,note_on,55,54,0
1,note_on,55,0,120
1,note_on,59,0,0
1,note_on,67,0,0
1,note_on,67,54,0
1,note_on,55,54,0
1,note_on,58,54,0
1,note_on,55,0,110
1,note_on,64,60,10
1,note_on,58,0,118
1,note_on,64,0,2
1,note_on,67,0,0
1,note_on,58,58,0
1,note_on,58,0,120
1,note_on,55,58,0
1,note_on,55,0,120
1,note_on,62,72,0
1,note_on,50,58,0
1,note_on,57,61,0
1,note_on,51,53,120
1,note_on,50,0,10
1,note_on,50,58,110
1,note_on,51,0,10
1,note_on,51,53,110
1,note_on,50,0,10
1,note_on,50,54,110
1,note_on,51,0,10
1,note_on,50,0,100
1,note_on,57,58,10
1,note_on,54,54,120
1,note_on,57,0,10
1,note_on,51,54,110
1,note_on,54,0,10
1,note_on,62,0,110
1,note_on,57,0,0
1,note_on,50,56,0
1,note_on,51,0,10
1,note_on,51,54,110
1,note_on,50,0,10
1,note_on,50,58,110
1,note_on,51,0,10
1,note_on,51,54,110
1,note_on,50,0,10
1,note_on,51,0,120
1,note_on,50,61,20
1,note_on,62,61,0
1,note_on,59,61,0
1,note_on,59,0,90
1,note_on,50,0,0
1,note_on,59,49,0
1,note_on,59,0,120
1,note_on,55,44,0
1,note_on,55,0,120
1,note_on,51,44,0
1,note_on,62,0,20
1,note_on,51,0,100
1,note_on,50,49,0
1,note_on,50,0,90
1,note_on,55,45,30
1,note_on,55,0,120
1,note_on,50,45,0
1,note_on,50,0,120
1,note_on,48,44,0
1,note_on,48,0,120
1,note_on,47,49,0
1,note_on,47,0,90
1,note_on,51,47,30
1,note_on,51,0,120
1,note_on,50,47,0
1,note_on,50,0,120
1,note_on,47,46,0
1,note_on,47,0,120
1,note_on,43,54,0
1,note_on,43,0,120
1,note_on,42,49,0
1,note_on,42,0,120
1,note_on,43,56,0
1,note_on,43,0,120
1,note_on,42,54,0
1,note_on,42,0,120
1,note_on,43,59,0
1,note_on,43,0,120
1,note_on,42,54,0
1,note_on,42,0,120
1,note_on,43,59,0
1,note_on,43,0,120
1,note_on,42,54,0
1,note_on,42,0,120
1,note_on,43,58,0
1,note_on,43,0,120
1,note_on,44,62,0
1,note_on,44,0,120
1,note_on,45,67,0
1,note_on,45,0,120
1,note_on,46,72,0
1,note_on,46,0,80
1,note_on,86,89,40
1,note_on,80,77,0
1,note_on,77,69,0
1,note_on,74,69,0
1,note_on,74,0,480
1,note_on,86,0,0
1,note_on,80,0,0
1,note_on,77,0,0
1,note_on,86,89,0
1,note_on,80,77,0
1,note_on,77,69,0
1,note_on,74,69,0
1,note_on,74,0,960
1,note_on,86,0,0
1,note_on,80,0,0
1,note_on,77,0,0
1,note_on,86,89,0
1,note_on,80,76,0
1,note_on,77,70,0
1,note_on,74,70,0
1,note_on,74,0,480
1,note_on,86,0,0
1,note_on,80,0,0
1,note_on,77,0,0
1,note_on,86,89,0
1,note_on,80,74,0
1,note_on,77,69,0
1,note_on,74,69,0
1,note_on,74,0,480
1,note_on,86,0,0
1,note_on,80,0,0
1,note_on,77,0,0
1,note_on,81,89,1440
1,note_on,79,77,0
1,note_on,76,69,0
1,note_on,69,69,0
1,note_on,69,0,480
1,note_on,81,0,0
1,note_on,79,0,0
1,note_on,76,0,0
1,note_on,81,89,0
1,note_on,79,77,0
1,note_on,76,69,0
1,note_on,69,69,0
1,note_on,69,0,960
1,note_on,81,0,0
1,note_on,79,0,0
1,note_on,76,0,0
1,note_on,81,89,0
1,note_on,79,76,0
1,note_on,76,70,0
1,note_on,69,70,0
1,note_on,69,0,480
1,note_on,81,0,0
1,note_on,79,0,0
1,note_on,76,0,0
1,note_on,79,43,0
1,note_on,81,43,0
1,note_on,76,43,0
1,note_on,69,43,0
1,note_on,69,0,720
1,note_on,79,0,0
1,note_on,81,0,0
1,note_on,76,0,0
1,note_on,57,39,0
1,note_on,64,39,0
1,note_on,67,39,0
1,note_on,69,39,0
1,note_on,69,0,240
1,note_on,57,0,0
1,note_on,64,0,0
1,note_on,67,0,0
1,note_on,57,40,0
1,note_on,64,40,0
1,note_on,67,40,0
1,note_on,69,40,0
1,note_on,69,49,420
1,note_on,81,54,0
1,note_on,81,0,60
1,note_on,69,0,0
1,note_on,69,54,0
1,note_on,81,54,0
1,note_on,69,0,240
1,note_on,67,0,0
1,note_on,69,0,0
1,note_on,57,0,0
1,note_on,64,0,0
1,note_on,57,45,0
1,note_on,64,45,0
1,note_on,67,45,0
1,note_on,69,45,0
1,note_on,69,0,240
1,note_on,64,0,0
1,note_on,81,0,0
1,note_on,57,0,0
1,note_on,67,0,0
1,note_on,70,60,0
1,note_on,69,47,0
1,note_on,65,47,0
1,note_on,58,47,0
1,note_on,81,60,420
1,note_on,93,66,0
1,note_on,93,0,60
1,note_on,81,0,0
1,note_on,81,66,0
1,note_on,93,66,0
1,note_on,65,0,240
1,note_on,58,0,0
1,note_on,70,0,0
1,note_on,69,0,0
1,note_on,69,51,0
1,note_on,58,51,0
1,note_on,65,51,0
1,note_on,70,51,0
1,note_on,70,0,240
1,note_on,93,0,0
1,note_on,69,0,0
1,note_on,81,0,0
1,note_on,65,0,0
1,note_on,58,0,0
1,note_on,69,51,0
1,note_on,59,51,0
1,note_on,66,51,0
1,note_on,71,51,0
1,note_on,69,57,420
1,note_on,81,63,0
1,note_on,81,0,60
1,note_on,69,0,0
1,note_on,69,63,0
1,note_on,81,63,0
1,note_on,69,0,240
1,note_on,66,0,0
1,note_on,71,0,0
1,note_on,69,0,0
1,note_on,59,0,0
1,note_on,59,51,0
1,note_on,66,51,0
1,note_on,69,51,0
1,note_on,71,51,0
1,note_on,71,0,240
1,note_on,66,0,0
1,note_on,81,0,0
1,note_on,59,0,0
1,note_on,69,0,0
1,note_on,72,65,0
1,note_on,69,52,0
1,note_on,60,52,0
1,note_on,81,66,420
1,note_on,93,73,0
1,note_on,93,0,60
1,note_on,81,0,0
1,note_on,81,73,0
1,note_on,93,73,0
1,note_on,72,0,240
1,note_on,60,0,0
1,note_on,69,0,0
1,note_on,69,56,0
1,note_on,60,56,0
1,note_on,72,56,0
1,note_on,72,0,240
1,note_on,69,0,0
1,note_on,93,0,0
1,note_on,81,0,0
1,note_on,60,0,0
1,note_on,67,56,0
1,note_on,69,56,0
1,note_on,61,56,0
1,note_on,73,56,0
1,note_on,69,63,420
1,note_on,81,71,0
1,note_on,81,0,60
1,note_on,69,0,0
1,note_on,69,71,0
1,note_on,81,71,0
1,note_on,69,0,240
1,note_on,61,0,0
1,note_on,73,0,0
1,note_on,67,0,0
1,note_on,69,0,0
1,note_on,61,56,0
1,note_on,67,56,0
1,note_on,69,56,0
1,note_on,73,56,0
1,note_on,73,0,240
1,note_on,67,0,0
1,note_on,81,0,0
1,note_on,61,0,0
1,note_on,69,0,0
1,note_on,74,36,0
1,note_on,62,31,0
1,note_on,70,31,0
1,note_on,70,0,120
1,note_on,62,0,0
1,note_on,74,0,0
1,note_on,75,38,0
1,note_on,63,32,0
1,note_on,72,32,0
1,note_on,72,0,120
1,note_on,63,0,0
1,note_on,75,0,0
1,note_on,77,40,0
1,note_on,65,34,0
1,note_on,74,34,0
1,note_on,74,0,120
1,note_on,65,0,0
1,note_on,77,0,0
1,note_on,75,44,0
1,note_on,79,44,0
1,note_on,67,36,0
1,note_on,67,0,120
1,note_on,79,0,0
1,note_on,75,0,0
1,note_on,81,45,0
1,note_on,69,38,0
1,note_on,77,38,0
1,note_on,77,0,120
1,note_on,69,0,0
1,note_on,81,0,0
1,note_on,82,48,0
1,note_on,70,41,0
1,note_on,79,41,0
1,note_on,79,0,120
1,note_on,70,0,0
1,note_on,82,0,0
1,note_on,84,51,0
1,note_on,72,43,0
1,note_on,81,43,0
1,note_on,81,0,120
1,note_on,72,0,0
1,note_on,84,0,0
1,note_on,86,54,0
1,note_on,74,45,0
1,note_on,82,45,0
1,note_on,82,0,120
1,note_on,74,0,0
1,note_on,86,0,0
1,note_on,86,56,0
1,note_on,74,40,0
1,note_on,82,40,0
1,note_on,82,0,120
1,note_on,74,0,0
1,note_on,86,0,0
1,note_on,84,58,0
1,note_on,72,49,0
1,note_on,81,49,0
1,note_on,81,0,120
1,note_on,72,0,0
1,note_on,84,0,0
1,note_on,82,58,0
1,note_on,70,49,0
1,note_on,79,49,0
1,note_on,79,0,120
1,note_on,70,0,0
1,note_on,82,0,0
1,note_on,81,58,0
1,note_on,69,49,0
1,note_on,77,49,0
1,note_on,77,0,120
1,note_on,69,0,0
1,note_on,81,0,0
1,note_on,79,59,0
1,note_on,67,50,0
1,note_on,75,50,0
1,note_on,75,0,120
1,note_on,67,0,0
1,note_on,79,0,0
1,note_on,77,59,0
1,note_on,65,50,0
1,note_on,74,50,0
1,note_on,74,0,120
1,note_on,65,0,0
1,note_on,77,0,0
1,note_on,75,60,0
1,note_on,63,50,0
1,note_on,72,50,0
1,note_on,72,0,120
1,note_on,63,0,0
1,note_on,75,0,0
1,note_on,74,60,0
1,note_on,62,50,0
1,note_on,70,50,0
1,note_on,70,0,120
1,note_on,62,0,0
1,note_on,74,0,0
1,note_on,75,56,0
1,note_on,63,47,0
1,note_on,72,47,0
1,note_on,72,0,120
1,note_on,63,0,0
1,note_on,75,0,0
1,note_on,77,57,0
1,note_on,65,48,0
1,note_on,74,48,0
1,note_on,74,0,120
1,note_on,65,0,0
1,note_on,77,0,0
1,note_on,79,58,0
1,note_on,67,49,0
1,note_on,75,49,0
1,note_on,75,0,120
1,note_on,67,0,0
1,note_on,79,0,0
1,note_on,81,60,0
1,note_on,77,50,0
1,note_on,69,50,0
1,note_on,69,0,120
1,note_on,77,0,0
1,note_on,81,0,0
1,note_on,82,61,0
1,note_on,70,51,0
1,note_on,79,51,0
1,note_on,79,0,120
1,note_on,70,0,0
1,note_on,82,0,0
1,note_on,84,62,0
1,note_on,72,52,0
1,note_on,81,52,0
1,note_on,81,0,120
1,note_on,72,0,0
1,note_on,84,0,0
1,note_on,86,63,0
1,note_on,74,54,0
1,note_on,82,54,0
1,note_on,82,0,120
1,note_on,74,0,0
1,note_on,86,0,0
1,note_on,87,64,0
1,note_on,75,54,0
1,note_on,84,54,0
1,note_on,84,0,120
1,note_on,75,0,0
1,note_on,87,0,0
1,note_on,87,68,0
1,note_on,75,57,0
1,note_on,84,57,0
1,note_on,84,0,120
1,note_on,75,0,0
1,note_on,87,0,0
1,note_on,86,66,0
1,note_on,74,55,0
1,note_on,82,55,0
1,note_on,82,0,120
1,note_on,74,0,0
1,note_on,86,0,0
1,note_on,84,67,0
1,note_on,72,56,0
1,note_on,81,56,0
1,note_on,81,0,120
1,note_on,72,0,0
1,note_on,84,0,0
1,note_on,82,69,0
1,note_on,70,58,0
1,note_on,79,58,0
1,note_on,79,0,120
1,note_on,70,0,0
1,note_on,82,0,0
1,note_on,81,70,0
1,note_on,69,59,0
1,note_on,77,59,0
1,note_on,77,0,120
1,note_on,69,0,0
1,note_on,81,0,0
1,note_on,79,72,0
1,note_on,67,61,0
1,note_on,75,61,0
1,note_on,75,0,120
1,note_on,67,0,0
1,note_on,79,0,0
1,note_on,77,72,0
1,note_on,65,61,0
1,note_on,74,61,0
1,note_on,74,0,120
1,note_on,65,0,0
1,note_on,77,0,0
1,note_on,75,73,0
1,note_on,63,62,0
1,note_on,72,62,0
1,note_on,72,0,120
1,note_on,63,0,0
1,note_on,75,0,0
1,note_on,75,36,0
1,note_on,63,31,0
1,note_on,71,31,0
1,note_on,71,0,120
1,note_on,63,0,0
1,note_on,75,0,0
1,note_on,76,38,0
1,note_on,64,32,0
1,note_on,73,32,0
1,note_on,73,0,120
1,note_on,64,0,0
1,note_on,76,0,0
1,note_on,78,40,0
1,note_on,66,34,0
1,note_on,75,34,0
1,note_on,75,0,120
1,note_on,66,0,0
1,note_on,78,0,0
1,note_on,76,44,0
1,note_on,80,44,0
1,note_on,68,36,0
1,note_on,68,0,120
1,note_on,80,0,0
1,note_on,76,0,0
1,note_on,82,45,0
1,note_on,70,38,0
1,note_on,78,38,0
1,note_on,78,0,120
1,note_on,70,0,0
1,note_on,82,0,0
1,note_on,83,48,0
1,note_on,71,41,0
1,note_on,80,41,0
1,note_on,80,0,120
1,note_on,71,0,0
1,note_on,83,0,0
1,note_on,85,51,0
1,note_on,73,43,0
1,note_on,82,43,0
1,note_on,82,0,120
1,note_on,73,0,0
1,note_on,85,0,0
1,note_on,87,54,0
1,note_on,75,45,0
1,note_on,83,45,0
1,note_on,83,0,120
1,note_on,75,0,0
1,note_on,87,0,0
1,note_on,87,56,0
1,note_on,75,40,0
1,note_on,83,40,0
1,note_on,83,0,120
1,note_on,75,0,0
1,note_on,87,0,0
1,note_on,85,58,0
1,note_on,73,49,0
1,note_on,82,49,0
1,note_on,82,0,120
1,note_on,73,0,0
1,note_on,85,0,0
1,note_on,83,58,0
1,note_on,71,49,0
1,note_on,80,49,0
1,note_on,80,0,120
1,note_on,71,0,0
1,note_on,83,0,0
1,note_on,82,58,0
1,note_on,70,49,0
1,note_on,78,49,0
1,note_on,78,0,120
1,note_on,70,0,0
1,note_on,82,0,0
1,note_on,80,59,0
1,note_on,68,50,0
1,note_on,76,50,0
1,note_on,76,0,120
1,note_on,68,0,0
1,note_on,80,0,0
1,note_on,78,59,0
1,note_on,66,50,0
1,note_on,75,50,0
1,note_on,75,0,120
1,note_on,66,0,0
1,note_on,78,0,0
1,note_on,76,60,0
1,note_on,64,50,0
1,note_on,73,50,0
1,note_on,73,0,120
1,note_on,64,0,0
1,note_on,76,0,0
1,note_on,75,60,0
1,note_on,63,50,0
1,note_on,71,50,0
1,note_on,71,0,120
1,note_on,63,0,0
1,note_on,75,0,0
1,note_on,76,56,0
1,note_on,64,47,0
1,note_on,73,47,0
1,note_on,73,0,120
1,note_on,64,0,0
1,note_on,76,0,0
1,note_on,78,57,0
1,note_on,66,48,0
1,note_on,75,48,0
1,note_on,75,0,120
1,note_on,66,0,0
1,note_on,78,0,0
1,note_on,80,58,0
1,note_on,68,49,0
1,note_on,76,49,0
1,note_on,76,0,120
1,note_on,68,0,0
1,note_on,80,0,0
1,note_on,82,60,0
1,note_on,78,50,0
1,note_on,70,50,0
1,note_on,70,0,120
1,note_on,78,0,0
1,note_on,82,0,0
1,note_on,83,61,0
1,note_on,71,51,0
1,note_on,80,51,0
1,note_on,80,0,120
1,note_on,71,0,0
1,note_on,83,0,0
1,note_on,85,62,0
1,note_on,73,52,0
1,note_on,82,52,0
1,note_on,82,0,120
1,note_on,73,0,0
1,note_on,85,0,0
1,note_on,87,63,0
1,note_on,75,54,0
1,note_on,83,54,0
1,note_on,83,0,120
1,note_on,75,0,0
1,note_on,87,0,0
1,note_on,88,64,0
1,note_on,76,54,0
1,note_on,85,54,0
1,note_on,85,0,120
1,note_on,76,0,0
1,note_on,88,0,0
1,note_on,88,68,0
1,note_on,76,57,0
1,note_on,85,57,0
1,note_on,85,0,120
1,note_on,76,0,0
1,note_on,88,0,0
1,note_on,87,66,0
1,note_on,75,55,0
1,note_on,83,55,0
1,note_on,83,0,120
1,note_on,75,0,0
1,note_on,87,0,0
1,note_on,85,67,0
1,note_on,73,56,0
1,note_on,82,56,0
1,note_on,82,0,120
1,note_on,73,0,0
1,note_on,85,0,0
1,note_on,83,69,0
1,note_on,71,58,0
1,note_on,80,58,0
1,note_on,80,0,120
1,note_on,71,0,0
1,note_on,83,0,0
1,note_on,82,70,0
1,note_on,70,59,0
1,note_on,78,59,0
1,note_on,78,0,120
1,note_on,70,0,0
1,note_on,82,0,0
1,note_on,80,72,0
1,note_on,68,61,0
1,note_on,76,61,0
1,note_on,76,0,120
1,note_on,68,0,0
1,note_on,80,0,0
1,note_on,78,72,0
1,note_on,66,61,0
1,note_on,75,61,0
1,note_on,75,0,120
1,note_on,66,0,0
1,note_on,78,0,0
1,note_on,76,73,0
1,note_on,64,62,0
1,note_on,73,62,0
1,note_on,73,0,120
1,note_on,64,0,0
1,note_on,76,0,0
1,note_on,76,69,0
1,note_on,73,58,0
1,note_on,64,58,0
1,note_on,70,58,0
1,note_on,70,0,120
1,note_on,76,0,0
1,note_on,73,0,0
1,note_on,64,0,0
1,note_on,77,70,0
1,note_on,65,59,0
1,note_on,65,0,120
1,note_on,77,0,0
1,note_on,79,71,0
1,note_on,67,60,0
1,note_on,67,0,120
1,note_on,79,0,0
1,note_on,80,72,0
1,note_on,68,61,0
1,note_on,68,0,120
1,note_on,80,0,0
1,note_on,82,72,0
1,note_on,70,61,0
1,note_on,70,0,120
1,note_on,82,0,0
1,note_on,84,73,0
1,note_on,72,62,0
1,note_on,72,0,120
1,note_on,84,0,0
1,note_on,85,74,0
1,note_on,73,63,0
1,note_on,73,0,120
1,note_on,85,0,0
1,note_on,88,75,0
1,note_on,76,63,0
1,note_on,76,0,120
1,note_on,88,0,0
1,note_on,89,76,0
1,note_on,80,64,0
1,note_on,77,64,0
1,note_on,84,64,0
1,note_on,84,0,120
1,note_on,89,0,0
1,note_on,80,0,0
1,note_on,77,0,0
1,note_on,87,76,0
1,note_on,75,64,0
1,note_on,75,0,120
1,note_on,87,0,0
1,note_on,85,75,0
1,note_on,73,63,0
1,note_on,73,0,120
1,note_on,85,0,0
1,note_on,84,75,0
1,note_on,72,63,0
1,note_on,72,0,120
1,note_on,84,0,0
1,note_on,82,74,0
1,note_on,70,63,0
1,note_on,70,0,120
1,note_on,82,0,0
1,note_on,80,73,0
1,note_on,68,62,0
1,note_on,68,0,120
1,note_on,80,0,0
1,note_on,79,72,0
1,note_on,67,61,0
1,note_on,67,0,120
1,note_on,79,0,0
1,note_on,77,72,0
1,note_on,65,61,0
1,note_on,65,0,120
1,note_on,77,0,0
1,note_on,78,72,0
1,note_on,75,61,0
1,note_on,66,61,0
1,note_on,72,61,0
1,note_on,72,0,120
1,note_on,78,0,0
1,note_on,75,0,0
1,note_on,66,0,0
1,note_on,79,71,0
1,note_on,67,60,0
1,note_on,67,0,120
1,note_on,79,0,0
1,note_on,81,72,0
1,note_on,69,61,0
1,note_on,69,0,120
1,note_on,81,0,0
1,note_on,82,72,0
1,note_on,70,61,0
1,note_on,70,0,120
1,note_on,82,0,0
1,note_on,84,74,0
1,note_on,72,63,0
1,note_on,72,0,120
1,note_on,84,0,0
1,note_on,86,75,0
1,note_on,74,63,0
1,note_on,74,0,120
1,note_on,86,0,0
1,note_on,87,76,0
1,note_on,75,64,0
1,note_on,75,0,120
1,note_on,87,0,0
1,note_on,90,77,0
1,note_on,78,65,0
1,note_on,78,0,120
1,note_on,90,0,0
1,note_on,91,79,0
1,note_on,82,66,0
1,note_on,79,66,0
1,note_on,86,66,0
1,note_on,86,0,120
1,note_on,91,0,0
1,note_on,82,0,0
1,note_on,79,0,0
1,note_on,89,78,0
1,note_on,77,65,0
1,note_on,77,0,120
1,note_on,89,0,0
1,note_on,87,79,0
1,note_on,75,66,0
1,note_on,75,0,120
1,note_on,87,0,0
1,note_on,86,79,0
1,note_on,74,66,0
1,note_on,74,0,120
1,note_on,86,0,0
1,note_on,84,80,0
1,note_on,72,67,0
1,note_on,72,0,120
1,note_on,84,0,0
1,note_on,82,81,0
1,note_on,70,68,0
1,note_on,70,0,120
1,note_on,82,0,0
1,note_on,81,81,0
1,note_on,69,69,0
1,note_on,69,0,120
1,note_on,81,0,0
1,note_on,79,82,0
1,note_on,67,70,0
1,note_on,67,0,120
1,note_on,79,0,0
1,note_on,77,86,0
1,note_on,80,86,0
1,note_on,68,72,0
1,note_on,74,72,0
1,note_on,74,0,120
1,note_on,77,0,0
1,note_on,80,0,0
1,note_on,68,0,0
1,note_on,81,82,0
1,note_on,69,70,0
1,note_on,69,0,120
1,note_on,81,0,0
1,note_on,82,82,0
1,note_on,70,70,0
1,note_on,70,0,120
1,note_on,82,0,0
1,note_on,83,82,0
1,note_on,71,70,0
1,note_on,71,0,120
1,note_on,83,0,0
1,note_on,84,83,0
1,note_on,72,72,0
1,note_on,72,0,120
1,note_on,84,0,0
1,note_on,85,84,0
1,note_on,73,71,0
1,note_on,73,0,120
1,note_on,85,0,0
1,note_on,86,86,0
1,note_on,74,72,0
1,note_on,74,0,120
1,note_on,86,0,0
1,note_on,87,86,0
1,note_on,75,72,0
1,note_on,75,0,120
1,note_on,87,0,0
1,note_on,88,86,0
1,note_on,76,72,0
1,note_on,76,0,120
1,note_on,88,0,0
1,note_on,89,84,0
1,note_on,77,71,0
1,note_on,77,0,120
1,note_on,89,0,0
1,note_on,90,84,0
1,note_on,78,71,0
1,note_on,78,0,120
1,note_on,90,0,0
1,note_on,91,84,0
1,note_on,79,71,0
1,note_on,79,0,120
1,note_on,91,0,0
1,note_on,92,86,0
1,note_on,80,72,0
1,note_on,80,0,120
1,note_on,92,0,0
1,note_on,93,84,0
1,note_on,81,71,0
1,note_on,81,0,120
1,note_on,93,0,0
1,note_on,94,84,0
1,note_on,82,71,0
1,note_on,82,0,120
1,note_on,94,0,0
1,note_on,95,84,0
1,note_on,83,71,0
1,note_on,83,0,120
1,note_on,95,0,0
1,note_on,96,85,0
1,note_on,84,72,0
1,note_on,84,0,120
1,note_on,96,0,0
1,note_on,97,86,0
1,note_on,85,72,0
1,note_on,85,0,120
1,note_on,97,0,0
1,note_on,98,87,0
1,note_on,86,73,0
1,note_on,86,0,120
1,note_on,98,0,0
1,note_on,99,87,0
1,note_on,87,73,0
1,note_on,87,0,120
1,note_on,99,0,0
1,note_on,100,88,0
1,note_on,88,74,0
1,note_on,88,0,120
1,note_on,100,0,0
1,note_on,98,89,0
1,note_on,101,89,0
1,note_on,89,75,0
1,note_on,89,0,120
1,note_on,101,0,0
1,note_on,98,0,0
1,note_on,98,75,0
1,note_on,101,90,0
1,note_on,90,75,0
1,note_on,90,0,120
1,note_on,101,0,0
1,note_on,98,0,0
1,note_on,98,76,0
1,note_on,101,90,0
1,note_on,91,76,0
1,note_on,91,0,120
1,note_on,101,0,0
1,note_on,98,0,0
1,note_on,98,91,0
1,note_on,101,91,0
1,note_on,92,77,0
1,note_on,92,0,240
1,note_on,101,0,0
1,note_on,98,0,0
1,note_on,81,86,720
1,note_on,69,72,0
1,note_on,76,72,0
1,note_on,76,0,120
1,note_on,69,0,0
1,note_on,81,0,0
1,note_on,82,82,0
1,note_on,70,70,0
1,note_on,70,0,120
1,note_on,82,0,0
1,note_on,83,81,0
1,note_on,71,70,0
1,note_on,71,0,120
1,note_on,83,0,0
1,note_on,84,81,0
1,note_on,72,69,0
1,note_on,72,0,120
1,note_on,84,0,0
1,note_on,85,84,0
1,note_on,73,60,0
1,note_on,73,0,120
1,note_on,85,0,0
1,note_on,86,84,0
1,note_on,74,72,0
1,note_on,74,0,120
1,note_on,86,0,0
1,note_on,87,86,0
1,note_on,75,72,0
1,note_on,75,0,120
1,note_on,87,0,0
1,note_on,88,86,0
1,note_on,76,72,0
1,note_on,76,0,120
1,note_on,88,0,0
1,note_on,89,86,0
1,note_on,77,61,0
1,note_on,77,0,120
1,note_on,89,0,0
1,note_on,90,85,0
1,note_on,78,72,0
1,note_on,78,0,120
1,note_on,90,0,0
1,note_on,91,85,0
1,note_on,79,72,0
1,note_on,79,0,120
1,note_on,91,0,0
1,note_on,92,85,0
1,note_on,80,72,0
1,note_on,80,0,120
1,note_on,92,0,0
1,note_on,93,86,0
1,note_on,81,72,0
1,note_on,81,0,120
1,note_on,93,0,0
1,note_on,93,84,0
1,note_on,82,71,0
1,note_on,82,0,120
1,note_on,93,0,0
1,note_on,93,84,0
1,note_on,83,71,0
1,note_on,81,71,0
1,note_on,81,0,120
1,note_on,83,0,0
1,note_on,93,0,0
1,note_on,93,84,0
1,note_on,84,71,0
1,note_on,81,71,0
1,note_on,81,0,120
1,note_on,84,0,0
1,note_on,93,0,0
1,note_on,81,72,0
1,note_on,93,85,0
1,note_on,85,72,0
1,note_on,85,0,120
1,note_on,93,0,0
1,note_on,81,0,0
1,note_on,81,72,0
1,note_on,93,86,0
1,note_on,86,72,0
1,note_on,86,0,120
1,note_on,93,0,0
1,note_on,81,0,0
1,note_on,81,73,0
1,note_on,93,87,0
1,note_on,87,73,0
1,note_on,87,0,120
1,note_on,93,0,0
1,note_on,81,0,0
1,note_on,81,73,0
1,note_on,93,87,0
1,note_on,88,73,0
1,note_on,88,0,120
1,note_on,93,0,0
1,note_on,81,0,0
1,note_on,81,74,0
1,note_on,93,88,0
1,note_on,89,74,0
1,note_on,89,0,120
1,note_on,93,0,0
1,note_on,81,0,0
1,note_on,90,75,0
1,note_on,93,89,0
1,note_on,81,75,0
1,note_on,81,0,120
1,note_on,93,0,0
1,note_on,90,0,0
1,note_on,81,76,0
1,note_on,93,90,0
1,note_on,91,76,0
1,note_on,91,0,120
1,note_on,93,0,0
1,note_on,81,0,0
1,note_on,81,77,0
1,note_on,93,90,0
1,note_on,92,77,0
1,note_on,92,0,120
1,note_on,93,0,0
1,note_on,81,0,0
1,note_on,93,91,0
1,note_on,81,77,0
1,note_on,81,0,240
1,note_on,93,0,0
1,note_on,69,63,720
1,note_on,69,0,960
1,note_on,66,63,0
1,note_on,66,0,960
1,note_on,62,65,0
1,note_on,62,0,960
1,note_on,70,63,0
1,note_on,70,0,720
1,note_on,70,58,0
1,note_on,70,0,240
1,note_on,63,63,0
1,note_on,63,0,960
1,note_on,63,63,0
1,note_on,63,0,480
1,note_on,63,60,0
1,note_on,63,0,480
1,note_on,62,64,0
1,note_on,62,0,960
1,note_on,50,57,480
1,note_on,55,57,0
1,note_on,58,57,0
1,note_on,58,0,120
1,note_on,55,0,0
1,note_on,50,0,0
1,note_on,63,63,360
1,note_on,63,0,960
1,note_on,70,63,0
1,note_on,70,0,720
1,note_on,70,58,0
1,note_on,70,0,240
1,note_on,61,65,0
1,note_on,61,0,960
1,note_on,65,63,0
1,note_on,65,0,960
1,note_on,59,63,0
1,note_on,59,0,960
1,note_on,64,63,0
1,note_on,64,0,900
1,note_on,50,58,0
1,note_on,62,60,0
1,note_on,62,0,60
1,note_on,50,0,0
1,note_on,60,64,0
1,note_on,60,0,960
1,note_on,57,57,0
1,note_on,57,0,480
1,note_on,57,35,480
1,note_on,57,0,80
1,note_on,58,36,0
1,note_on,58,0,80
1,note_on,59,36,0
1,note_on,59,0,80
1,note_on,60,38,0
1,note_on,60,0,80
1,note_on,61,39,0
1,note_on,61,0,80
1,note_on,62,40,0
1,note_on,62,0,80
1,note_on,63,42,0
1,note_on,63,0,80
1,note_on,64,43,0
1,note_on,64,0,80
1,note_on,65,44,0
1,note_on,65,0,80
1,note_on,66,45,0
1,note_on,66,0,60
1,note_on,67,46,0
1,note_on,67,0,60
1,note_on,68,47,0
1,note_on,68,0,60
1,note_on,69,51,0
1,note_on,81,51,0
1,note_on,81,0,60
1,note_on,69,0,0
1,note_on,69,51,0
1,note_on,81,62,0
1,note_on,69,0,80
1,note_on,68,51,0
1,note_on,68,0,80
1,note_on,67,50,0
1,note_on,67,0,80
1,note_on,66,49,0
1,note_on,66,0,80
1,note_on,65,48,0
1,note_on,65,0,80
1,note_on,64,47,0
1,note_on,64,0,80
1,note_on,81,0,0
1,note_on,63,46,0
1,note_on,63,0,80
1,note_on,62,45,0
1,note_on,62,0,80
1,note_on,61,44,0
1,note_on,61,0,80
1,note_on,60,43,0
1,note_on,60,0,60
1,note_on,59,43,0
1,note_on,59,0,60
1,note_on,58,42,0
1,note_on,58,0,60
1,note_on,52,58,0
1,note_on,57,58,0
1,note_on,57,0,60
1,note_on,52,0,0
1,note_on,53,45,0
1,note_on,58,48,0
1,note_on,57,60,1
1,note_on,58,0,79
1,note_on,59,45,0
1,note_on,59,0,80
1,note_on,60,45,0
1,note_on,60,0,80
1,note_on,61,45,0
1,note_on,61,0,80
1,note_on,62,47,0
1,note_on,62,0,80
1,note_on,63,48,0
1,note_on,63,0,80
1,note_on,53,0,0
1,note_on,64,49,0
1,note_on,57,0,1
1,note_on,64,0,79
1,note_on,65,51,0
1,note_on,65,0,80
1,note_on,66,52,0
1,note_on,66,0,80
1,note_on,67,53,0
1,note_on,67,0,60
1,note_on,68,54,0
1,note_on,68,0,60
1,note_on,69,54,0
1,note_on,69,0,60
1,note_on,70,55,0
1,note_on,81,69,0
1,note_on,81,0,60
1,note_on,70,0,0
1,note_on,71,55,0
1,note_on,81,71,0
1,note_on,71,0,80
1,note_on,70,57,0
1,note_on,70,0,80
1,note_on,69,56,0
1,note_on,69,0,80
1,note_on,68,54,0
1,note_on,68,0,80
1,note_on,67,54,0
1,note_on,67,0,80
1,note_on,66,53,0
1,note_on,66,0,80
1,note_on,81,0,0
1,note_on,65,51,0
1,note_on,65,0,80
1,note_on,64,50,3
1,note_on,63,49,77
1,note_on,64,0,3
1,note_on,63,0,77
1,note_on,62,47,0
1,note_on,62,0,60
1,note_on,61,46,0
1,note_on,61,0,60
1,note_on,60,46,0
1,note_on,60,0,60
1,note_on,58,48,0
1,note_on,53,33,0
1,note_on,59,66,0
1,note_on,59,0,60
1,note_on,53,0,0
1,note_on,58,0,0
1,note_on,57,54,0
1,note_on,60,66,0
1,note_on,60,0,80
1,note_on,61,50,0
1,note_on,61,0,80
1,note_on,62,51,0
1,note_on,62,0,80
1,note_on,63,52,0
1,note_on,63,0,80
1,note_on,64,53,0
1,note_on,64,0,80
1,note_on,65,53,0
1,note_on,65,0,80
1,note_on,57,0,0
1,note_on,66,54,0
1,note_on,66,0,80
1,note_on,67,54,0
1,note_on,67,0,80
1,note_on,68,55,0
1,note_on,68,0,80
1,note_on,69,56,0
1,note_on,69,0,60
1,note_on,70,56,0
1,note_on,70,0,60
1,note_on,71,57,0
1,note_on,71,0,60
1,note_on,69,53,0
1,note_on,72,57,0
1,note_on,81,77,0
1,note_on,81,0,60
1,note_on,72,0,0
1,note_on,69,0,0
1,note_on,69,70,0
1,note_on,73,57,0
1,note_on,81,77,0
1,note_on,73,0,80
1,note_on,72,61,0
1,note_on,72,0,80
1,note_on,71,59,0
1,note_on,71,0,80
1,note_on,69,0,0
1,note_on,70,58,0
1,note_on,70,0,80
1,note_on,69,56,0
1,note_on,69,0,80
1,note_on,68,55,0
1,note_on,68,0,80
1,note_on,81,0,0
1,note_on,67,54,0
1,note_on,67,0,80
1,note_on,66,52,3
1,note_on,65,51,77
1,note_on,66,0,3
1,note_on,65,0,77
1,note_on,64,49,0
1,note_on,64,0,60
1,note_on,63,48,0
1,note_on,63,0,60
1,note_on,62,47,0
1,note_on,62,0,60
1,note_on,57,46,0
1,note_on,61,46,0
1,note_on,61,0,60
1,note_on,57,0,0
1,note_on,57,46,0
1,note_on,62,46,0
1,note_on,62,0,60
1,note_on,63,47,0
1,note_on,63,0,60
1,note_on,64,48,0
1,note_on,64,0,60
1,note_on,65,49,0
1,note_on,65,0,60
1,note_on,66,50,0
1,note_on,66,0,60
1,note_on,67,51,0
1,note_on,67,0,60
1,note_on,68,52,0
1,note_on,68,0,60
1,note_on,69,53,0
1,note_on,69,0,60
1,note_on,57,0,0
1,note_on,70,54,0
1,note_on,70,0,60
1,note_on,71,54,0
1,note_on,71,0,60
1,note_on,72,54,0
1,note_on,72,0,60
1,note_on,73,55,0
1,note_on,73,0,60
1,note_on,74,57,0
1,note_on,74,0,60
1,note_on,75,57,0
1,note_on,75,0,60
1,note_on,76,58,0
1,note_on,76,0,60
1,note_on,77,59,0
1,note_on,77,0,60
1,note_on,78,60,0
1,note_on,78,0,60
1,note_on,79,61,0
1,note_on,79,0,60
1,note_on,80,62,0
1,note_on,80,0,60
1,note_on,81,63,0
1,note_on,81,0,60
1,note_on,82,63,0
1,note_on,82,0,60
1,note_on,83,64,0
1,note_on,83,0,60
1,note_on,84,65,0
1,note_on,84,0,60
1,note_on,85,66,0
1,note_on,85,0,60
1,note_on,86,77,0
1,note_on,86,0,60
1,note_on,85,66,0
1,note_on,85,0,60
1,note_on,84,65,0
1,note_on,84,0,60
1,note_on,83,63,0
1,note_on,83,0,60
1,note_on,82,63,0
1,note_on,82,0,60
1,note_on,81,62,0
1,note_on,81,0,60
1,note_on,80,60,0
1,note_on,80,0,60
1,note_on,79,59,0
1,note_on,79,0,60
1,note_on,78,58,0
1,note_on,78,0,60
1,note_on,77,57,0
1,note_on,77,0,60
1,note_on,76,55,0
1,note_on,76,0,60
1,note_on,75,54,0
1,note_on,75,0,60
1,note_on,74,53,0
1,note_on,74,0,60
1,note_on,73,52,0
1,note_on,73,0,60
1,note_on,72,51,0
1,note_on,72,0,60
1,note_on,71,49,0
1,note_on,71,0,60
1,note_on,70,48,0
1,note_on,70,0,60
1,note_on,69,47,0
1,note_on,69,0,60
1,note_on,68,46,0
1,note_on,68,0,60
1,note_on,67,45,0
1,note_on,67,0,60
1,note_on,66,44,0
1,note_on,66,0,60
1,note_on,65,43,0
1,note_on,65,0,60
1,note_on,64,41,0
1,note_on,64,0,60
1,note_on,63,40,0
1,note_on,63,0,60
1,note_on,62,39,0
1,note_on,62,0,60
1,note_on,60,39,0
1,note_on,63,39,0
1,note_on,63,0,60
1,note_on,60,0,0
1,note_on,61,40,0
1,note_on,64,40,0
1,note_on,64,0,60
1,note_on,61,0,0
1,note_on,62,41,0
1,note_on,65,41,0
1,note_on,65,0,60
1,note_on,62,0,0
1,note_on,63,42,0
1,note_on,66,42,0
1,note_on,66,0,60
1,note_on,63,0,0
1,note_on,64,43,0
1,note_on,67,43,0
1,note_on,67,0,60
1,note_on,64,0,0
1,note_on,65,44,0
1,note_on,68,44,0
1,note_on,68,0,60
1,note_on,65,0,0
1,note_on,66,45,0
1,note_on,69,45,0
1,note_on,69,0,60
1,note_on,66,0,0
1,note_on,67,45,0
1,note_on,70,45,0
1,note_on,70,0,60
1,note_on,67,0,0
1,note_on,68,45,0
1,note_on,71,45,0
1,note_on,71,0,60
1,note_on,68,0,0
1,note_on,69,46,0
1,note_on,72,46,0
1,note_on,72,0,60
1,note_on,69,0,0
1,note_on,70,47,0
1,note_on,73,47,0
1,note_on,73,0,60
1,note_on,70,0,0
1,note_on,71,48,0
1,note_on,74,48,0
1,note_on,74,0,60
1,note_on,71,0,0
1,note_on,72,49,0
1,note_on,75,49,0
1,note_on,75,0,60
1,note_on,72,0,0
1,note_on,73,50,0
1,note_on,76,50,0
1,note_on,76,0,60
1,note_on,73,0,0
1,note_on,74,51,0
1,note_on,77,51,0
1,note_on,77,0,60
1,note_on,74,0,0
1,note_on,75,52,0
1,note_on,78,52,0
1,note_on,78,0,60
1,note_on,75,0,0
1,note_on,76,53,0
1,note_on,79,53,0
1,note_on,79,0,60
1,note_on,76,0,0
1,note_on,77,53,0
1,note_on,80,53,0
1,note_on,80,0,60
1,note_on,77,0,0
1,note_on,78,54,0
1,note_on,81,54,0
1,note_on,81,0,60
1,note_on,78,0,0
1,note_on,79,54,0
1,note_on,82,54,0
1,note_on,82,0,60
1,note_on,79,0,0
1,note_on,80,55,0
1,note_on,83,55,0
1,note_on,83,0,60
1,note_on,80,0,0
1,note_on,81,56,0
1,note_on,84,56,0
1,note_on,84,0,60
1,note_on,81,0,0
1,note_on,82,57,0
1,note_on,85,57,0
1,note_on,85,0,60
1,note_on,82,0,0
1,note_on,83,58,0
1,note_on,86,58,0
1,note_on,86,0,60
1,note_on,83,0,0
1,note_on,84,59,0
1,note_on,87,59,0
1,note_on,87,0,60
1,note_on,84,0,0
1,note_on,85,60,0
1,note_on,88,60,0
1,note_on,88,0,60
1,note_on,85,0,0
1,note_on,86,60,0
1,note_on,89,60,0
1,note_on,89,0,60
1,note_on,86,0,0
1,note_on,87,61,0
1,note_on,90,61,0
1,note_on,90,0,60
1,note_on,87,0,0
1,note_on,88,62,0
1,note_on,91,62,0
1,note_on,91,0,60
1,note_on,88,0,0
1,note_on,89,63,0
1,note_on,92,63,0
1,note_on,92,0,60
1,note_on,89,0,0
1,note_on,90,63,0
1,note_on,93,63,0
1,note_on,93,0,60
1,note_on,90,0,0
1,note_on,91,64,0
1,note_on,94,64,0
1,note_on,94,0,60
1,note_on,91,0,0
1,note_on,92,65,0
1,note_on,95,65,0
1,note_on,95,0,60
1,note_on,92,0,0
1,note_on,93,66,0
1,note_on,96,66,0
1,note_on,96,0,60
1,note_on,93,0,0
1,note_on,94,67,0
1,note_on,97,67,0
1,note_on,97,0,60
1,note_on,94,0,0
1,note_on,95,72,0
1,note_on,98,72,0
1,note_on,98,0,60
1,note_on,95,0,0
1,note_on,96,66,0
1,note_on,99,66,0
1,note_on,99,0,60
1,note_on,96,0,0
1,note_on,95,66,0
1,note_on,98,66,0
1,note_on,98,0,60
1,note_on,95,0,0
1,note_on,94,65,0
1,note_on,97,65,0
1,note_on,97,0,60
1,note_on,94,0,0
1,note_on,93,64,0
1,note_on,96,64,0
1,note_on,96,0,60
1,note_on,93,0,0
1,note_on,92,64,0
1,note_on,95,64,0
1,note_on,95,0,60
1,note_on,92,0,0
1,note_on,91,63,0
1,note_on,94,63,0
1,note_on,94,0,60
1,note_on,91,0,0
1,note_on,90,63,0
1,note_on,93,63,0
1,note_on,93,0,60
1,note_on,90,0,0
1,note_on,89,62,0
1,note_on,92,62,0
1,note_on,92,0,60
1,note_on,89,0,0
1,note_on,88,62,0
1,note_on,91,62,0
1,note_on,91,0,60
1,note_on,88,0,0
1,note_on,87,61,0
1,note_on,90,61,0
1,note_on,90,0,60
1,note_on,87,0,0
1,note_on,86,60,0
1,note_on,89,60,0
1,note_on,89,0,60
1,note_on,86,0,0
1,note_on,85,59,0
1,note_on,88,59,0
1,note_on,88,0,60
1,note_on,85,0,0
1,note_on,84,59,0
1,note_on,87,59,0
1,note_on,87,0,60
1,note_on,84,0,0
1,note_on,83,58,0
1,note_on,86,58,0
1,note_on,86,0,60
1,note_on,83,0,0
1,note_on,82,57,0
1,note_on,85,57,0
1,note_on,85,0,60
1,note_on,82,0,0
1,note_on,81,57,0
1,note_on,84,57,0
1,note_on,84,0,60
1,note_on,81,0,0
1,note_on,80,56,0
1,note_on,83,56,0
1,note_on,83,0,60
1,note_on,80,0,0
1,note_on,79,55,0
1,note_on,82,55,0
1,note_on,82,0,60
1,note_on,79,0,0
1,note_on,78,54,0
1,note_on,81,54,0
1,note_on,81,0,60
1,note_on,78,0,0
1,note_on,77,54,0
1,note_on,80,54,0
1,note_on,80,0,60
1,note_on,77,0,0
1,note_on,76,54,0
1,note_on,79,54,0
1,note_on,79,0,60
1,note_on,76,0,0
1,note_on,75,53,0
1,note_on,78,53,0
1,note_on,78,0,60
1,note_on,75,0,0
1,note_on,74,53,0
1,note_on,77,53,0
1,note_on,77,0,60
1,note_on,74,0,0
1,note_on,73,52,0
1,note_on,76,52,0
1,note_on,76,0,60
1,note_on,73,0,0
1,note_on,72,51,0
1,note_on,75,51,0
1,note_on,75,0,60
1,note_on,72,0,0
1,note_on,71,50,0
1,note_on,74,50,0
1,note_on,74,0,60
1,note_on,71,0,0
1,note_on,70,50,0
1,note_on,73,50,0
1,note_on,73,0,60
1,note_on,70,0,0
1,note_on,69,49,0
1,note_on,72,49,0
1,note_on,72,0,60
1,note_on,69,0,0
1,note_on,68,48,0
1,note_on,71,48,0
1,note_on,71,0,60
1,note_on,68,0,0
1,note_on,67,48,0
1,note_on,70,48,0
1,note_on,70,0,60
1,note_on,67,0,0
1,note_on,66,47,0
1,note_on,69,47,0
1,note_on,69,0,60
1,note_on,66,0,0
1,note_on,65,46,0
1,note_on,68,46,0
1,note_on,68,0,60
1,note_on,65,0,0
1,note_on,64,45,0
1,note_on,67,45,0
1,note_on,67,0,60
1,note_on,64,0,0
1,note_on,63,45,0
1,note_on,66,45,0
1,note_on,66,0,60
1,note_on,63,0,0
1,note_on,62,45,0
1,note_on,65,45,0
1,note_on,65,0,60
1,note_on,62,0,0
1,note_on,61,44,0
1,note_on,64,44,0
1,note_on,64,0,60
1,note_on,61,0,0
1,note_on,60,43,0
1,note_on,63,43,0
1,note_on,63,0,60
1,note_on,60,0,0
1,note_on,64,57,0
1,note_on,57,45,0
1,note_on,60,45,0
1,note_on,60,0,60
1,note_on,57,0,0
1,note_on,64,0,0
1,note_on,65,44,0
1,note_on,65,0,60
1,note_on,66,45,0
1,note_on,66,0,60
1,note_on,67,45,0
1,note_on,67,0,60
1,note_on,68,46,0
1,note_on,68,0,60
1,note_on,69,47,0
1,note_on,69,0,60
1,note_on,70,49,0
1,note_on,70,0,60
1,note_on,71,49,0
1,note_on,71,0,60
1,note_on,72,51,0
1,note_on,72,0,60
1,note_on,73,52,0
1,note_on,73,0,60
1,note_on,74,53,0
1,note_on,74,0,60
1,note_on,75,54,0
1,note_on,75,0,60
1,note_on,76,54,0
1,note_on,76,0,60
1,note_on,77,55,0
1,note_on,77,0,60
1,note_on,78,56,0
1,note_on,78,0,60
1,note_on,79,57,0
1,note_on,79,0,60
1,note_on,80,58,0
1,note_on,80,0,60
1,note_on,81,59,0
1,note_on,81,0,60
1,note_on,82,61,0
1,note_on,82,0,60
1,note_on,83,61,0
1,note_on,83,0,60
1,note_on,84,63,0
1,note_on,84,0,60
1,note_on,85,63,0
1,note_on,85,0,60
1,note_on,86,64,0
1,note_on,86,0,60
1,note_on,87,65,0
1,note_on,87,0,60
1,note_on,88,66,0
1,note_on,88,0,60
1,note_on,89,67,0
1,note_on,89,0,60
1,note_on,90,68,0
1,note_on,90,0,60
1,note_on,91,69,0
1,note_on,91,0,60
1,note_on,92,70,0
1,note_on,92,0,60
1,note_on,93,71,0
1,note_on,93,0,60
1,note_on,94,72,0
1,note_on,94,0,60
1,note_on,95,72,0
1,note_on,95,0,60
1,note_on,96,74,0
1,note_on,96,0,60
1,note_on,97,75,0
1,note_on,97,0,60
1,note_on,98,76,0
1,note_on,98,0,60
1,note_on,99,77,0
1,note_on,99,0,60
1,note_on,100,89,0
1,note_on,96,75,0
1,note_on,93,75,0
1,note_on,88,75,0
1,note_on,88,0,120
1,note_on,100,0,0
1,note_on,96,0,0
1,note_on,93,0,0
1,note_on,101,84,360
1,note_on,89,71,0
1,note_on,93,71,0
1,note_on,96,71,0
1,note_on,96,0,120
1,note_on,101,0,0
1,note_on,89,0,0
1,note_on,93,0,0
1,note_on,48,56,1440
1,note_on,48,0,120
1,note_on,47,59,0
1,note_on,47,0,120
1,note_on,48,56,0
1,note_on,48,0,120
1,note_on,47,56,0
1,note_on,47,0,110
1,note_on,52,62,10
1,note_on,52,0,120
1,note_on,50,58,0
1,note_on,50,0,120
1,note_on,48,58,0
1,note_on,48,0,120
1,note_on,48,56,120
1,note_on,48,0,120
1,note_on,47,62,0
1,note_on,47,0,120
1,note_on,48,56,0
1,note_on,48,0,120
1,note_on,47,56,0
1,note_on,47,0,120
1,note_on,52,62,0
1,note_on,52,0,120
1,note_on,50,58,0
1,note_on,50,0,120
1,note_on,48,58,0
1,note_on,48,0,120
1,note_on,48,52,120
1,note_on,48,0,120
1,note_on,47,54,0
1,note_on,47,0,120
1,note_on,48,51,0
1,note_on,48,0,120
1,note_on,47,51,0
1,note_on,47,0,110
1,note_on,52,57,10
1,note_on,52,0,120
1,note_on,50,54,0
1,note_on,50,0,120
1,note_on,48,54,0
1,note_on,48,0,120
1,note_on,47,45,0
1,note_on,47,0,120
1,note_on,52,54,0
1,note_on,52,0,120
1,note_on,50,51,0
1,note_on,50,0,120
1,note_on,48,45,0
1,note_on,48,0,120
1,note_on,48,49,120
1,note_on,48,0,120
1,note_on,47,45,0
1,note_on,47,0,120
1,note_on,48,45,0
1,note_on,48,0,120
1,note_on,71,39,480
1,note_on,68,33,0
1,note_on,68,0,240
1,note_on,71,0,0
1,note_on,68,38,0
1,note_on,64,32,0
1,note_on,64,0,120
1,note_on,68,0,0
1,note_on,74,38,120
1,note_on,71,32,0
1,note_on,71,0,360
1,note_on,74,0,0
1,note_on,76,38,0
1,note_on,73,32,0
1,note_on,73,0,40
1,note_on,76,0,0
1,note_on,74,35,0
1,note_on,71,29,0
1,note_on,71,0,40
1,note_on,74,0,0
1,note_on,73,35,0
1,note_on,69,29,0
1,note_on,69,0,40
1,note_on,73,0,0
1,note_on,68,27,0
1,note_on,71,33,0
1,note_on,71,0,240
1,note_on,68,0,0
1,note_on,74,43,720
1,note_on,71,36,0
1,note_on,71,0,240
1,note_on,74,0,0
1,note_on,71,38,0
1,note_on,68,32,0
1,note_on,68,0,120
1,note_on,71,0,0
1,note_on,78,38,120
1,note_on,74,32,0
1,note_on,74,0,360
1,note_on,78,0,0
1,note_on,80,36,0
1,note_on,76,30,0
1,note_on,76,0,40
1,note_on,80,0,0
1,note_on,78,33,0
1,note_on,74,27,0
1,note_on,74,0,40
1,note_on,78,0,0
1,note_on,76,35,0
1,note_on,73,29,0
1,note_on,73,0,40
1,note_on,76,0,0
1,note_on,83,42,0
1,note_on,78,35,0
1,note_on,78,0,360
1,note_on,83,0,0
1,note_on,85,42,0
1,note_on,80,35,0
1,note_on,80,0,40
1,note_on,85,0,0
1,note_on,83,36,0
1,note_on,78,30,0
1,note_on,78,0,40
1,note_on,83,0,0
1,note_on,81,36,0
1,note_on,76,30,0
1,note_on,76,0,40
1,note_on,81,0,0
1,note_on,86,45,0
1,note_on,80,38,0
1,note_on,80,0,360
1,note_on,86,0,0
1,note_on,88,47,0
1,note_on,88,0,40
1,note_on,86,40,0
1,note_on,86,0,40
1,note_on,85,40,0
1,note_on,85,0,40
1,note_on,90,49,0
1,note_on,83,41,0
1,note_on,83,0,600
1,note_on,90,0,0
1,note_on,89,38,0
1,note_on,83,38,0
1,note_on,83,0,90
1,note_on,89,0,0
1,note_on,89,43,30
1,note_on,83,43,0
1,note_on,83,0,90
1,note_on,89,0,0
1,note_on,88,38,30
1,note_on,83,38,0
1,note_on,83,0,90
1,note_on,88,0,0
1,note_on,83,43,30
1,note_on,88,43,0
1,note_on,88,0,90
1,note_on,83,0,0
1,note_on,82,38,30
1,note_on,88,38,0
1,note_on,88,0,90
1,note_on,82,0,0
1,note_on,82,42,30
1,note_on,88,42,0
1,note_on,88,0,90
1,note_on,82,0,0
1,note_on,81,38,30
1,note_on,88,38,0
1,note_on,88,0,90
1,note_on,81,0,0
1,note_on,81,42,10
1,note_on,88,47,20
1,note_on,88,0,560
1,note_on,81,0,0
1,note_on,81,46,0
1,note_on,87,46,0
1,note_on,87,0,80
1,note_on,81,0,0
1,note_on,80,39,0
1,note_on,86,43,0
1,note_on,80,0,80
1,note_on,79,45,0
1,note_on,79,0,80
1,note_on,86,0,0
1,note_on,79,36,0
1,note_on,85,41,0
1,note_on,79,0,80
1,note_on,78,44,0
1,note_on,78,0,80
1,note_on,85,0,0
1,note_on,77,36,0
1,note_on,83,42,0
1,note_on,77,0,80
1,note_on,76,46,0
1,note_on,76,0,80
1,note_on,83,0,0
1,note_on,76,35,0
1,note_on,81,41,0
1,note_on,76,0,80
1,note_on,74,44,0
1,note_on,74,0,80
1,note_on,81,0,0
1,note_on,74,33,0
1,note_on,79,37,0
1,note_on,74,0,80
1,note_on,72,38,0
1,note_on,72,0,50
1,note_on,71,38,0
1,note_on,79,0,30
1,note_on,79,38,0
1,note_on,79,0,60
1,note_on,71,0,0
1,note_on,77,42,60
1,note_on,71,35,0
1,note_on,71,0,108
1,note_on,77,0,0
1,note_on,76,41,12
1,note_on,71,35,0
1,note_on,71,0,108
1,note_on,76,0,0
1,note_on,74,39,12
1,note_on,71,33,0
1,note_on,71,0,108
1,note_on,74,0,0
1,note_on,80,42,492
1,note_on,71,35,0
1,note_on,71,0,108
1,note_on,80,0,0
1,note_on,78,41,12
1,note_on,71,35,0
1,note_on,71,0,108
1,note_on,78,0,0
1,note_on,76,40,12
1,note_on,71,34,0
1,note_on,71,0,108
1,note_on,76,0,0
1,note_on,74,39,12
1,note_on,71,33,0
1,note_on,71,0,54
1,note_on,74,0,0
1,note_on,68,34,6
1,note_on,71,35,30
1,note_on,66,38,30
1,note_on,74,38,0
1,note_on,66,0,320
1,note_on,65,34,0
1,note_on,65,0,160
1,note_on,74,0,0
1,note_on,71,0,0
1,note_on,68,0,0
1,note_on,64,33,0
1,note_on,68,36,0
1,note_on,73,38,0
1,note_on,73,0,160
1,note_on,68,0,0
1,note_on,64,0,0
1,note_on,63,30,0
1,note_on,68,33,0
1,note_on,72,38,0
1,note_on,72,0,160
1,note_on,68,0,0
1,note_on,63,0,0
1,note_on,62,32,80
1,note_on,68,35,0
1,note_on,71,38,0
1,note_on,71,0,50
1,note_on,68,0,0
1,note_on,62,0,0
1,note_on,69,28,270
1,note_on,64,24,0
1,note_on,61,24,0
1,note_on,61,0,120
1,note_on,64,0,0
1,note_on,69,0,0
1,note_on,69,28,360
1,note_on,61,24,0
1,note_on,64,24,0
1,note_on,64,0,120
1,note_on,61,0,0
1,note_on,69,0,0
1,note_on,71,34,360
1,note_on,62,28,0
1,note_on,66,28,0
1,note_on,66,0,120
1,note_on,62,0,0
1,note_on,71,0,0
1,note_on,66,31,360
1,note_on,59,26,0
1,note_on,59,0,120
1,note_on,66,0,0
1,note_on,56,24,315
1,note_on,59,24,15
1,note_on,64,24,15
1,note_on,68,28,15
1,note_on,68,0,120
1,note_on,56,0,0
1,note_on,59,0,0
1,note_on,64,0,0
1,note_on,66,29,360
1,note_on,63,25,0
1,note_on,63,0,120
1,note_on,66,0,0
1,note_on,64,29,120
1,note_on,56,25,0
1,note_on,56,0,240
1,note_on,64,0,0
1,note_on,76,30,0
1,note_on,64,25,0
1,note_on,74,33,0
1,note_on,71,27,0
1,note_on,71,0,240
1,note_on,74,0,0
1,note_on,73,32,0
1,note_on,69,27,0
1,note_on,64,0,238
1,note_on,76,0,2
1,note_on,73,0,0
1,note_on,69,0,0
1,note_on,76,29,0
1,note_on,68,30,0
1,note_on,62,25,0
1,note_on,62,0,240
1,note_on,68,0,0
1,note_on,76,0,0
1,note_on,69,28,240
1,note_on,64,24,0
1,note_on,61,24,0
1,note_on,61,0,120
1,note_on,64,0,0
1,note_on,69,0,0
1,note_on,69,28,360
1,note_on,61,24,0
1,note_on,64,24,0
1,note_on,64,0,120
1,note_on,61,0,0
1,note_on,69,0,0
1,note_on,71,34,360
1,note_on,62,28,0
1,note_on,66,28,0
1,note_on,66,0,120
1,note_on,62,0,0
1,note_on,71,0,0
1,note_on,71,34,360
1,note_on,66,31,0
1,note_on,62,26,0
1,note_on,62,0,120
1,note_on,66,0,0
1,note_on,71,0,0
1,note_on,59,24,360
1,note_on,62,24,0
1,note_on,68,28,0
1,note_on,68,0,120
1,note_on,62,0,0
1,note_on,59,0,0
1,note_on,59,25,360
1,note_on,64,29,0
1,note_on,62,25,0
1,note_on,62,0,120
1,note_on,64,0,0
1,note_on,59,0,0
1,note_on,64,29,120
1,note_on,61,25,0
1,note_on,61,0,240
1,note_on,64,0,0
1,note_on,88,39,0
1,note_on,76,32,0
1,note_on,76,0,240
1,note_on,88,0,0
1,note_on,78,32,0
1,note_on,86,38,0
1,note_on,74,32,0
1,note_on,74,0,240
1,note_on,86,0,0
1,note_on,78,0,0
1,note_on,71,29,0
1,note_on,83,36,0
1,note_on,74,29,0
1,note_on,64,40,180
1,note_on,64,0,60
1,note_on,71,0,0
1,note_on,83,0,0
1,note_on,74,0,0
1,note_on,69,50,0
1,note_on,61,30,240
1,note_on,64,34,0
1,note_on,64,0,120
1,note_on,61,0,0
1,note_on,69,0,0
1,note_on,71,43,0
1,note_on,71,0,90
1,note_on,73,51,30
1,note_on,61,30,240
1,note_on,64,34,0
1,note_on,64,0,120
1,note_on,61,0,0
1,note_on,73,0,0
1,note_on,69,47,0
1,note_on,69,0,120
1,note_on,66,47,0
1,note_on,62,37,210
1,note_on,66,0,30
1,note_on,71,50,0
1,note_on,62,0,120
1,note_on,71,0,360
1,note_on,66,37,0
1,note_on,69,49,0
1,note_on,66,0,120
1,note_on,69,0,120
1,note_on,68,50,0
1,note_on,59,32,240
1,note_on,64,34,0
1,note_on,64,0,120
1,note_on,59,0,0
1,note_on,68,0,0
1,note_on,68,45,0
1,note_on,68,0,120
1,note_on,69,49,0
1,note_on,57,36,240
1,note_on,63,36,0
1,note_on,71,50,0
1,note_on,63,0,120
1,note_on,69,0,0
1,note_on,57,0,0
1,note_on,56,25,90
1,note_on,64,29,15
1,note_on,71,0,15
1,note_on,71,45,0
1,note_on,71,0,120
1,note_on,64,0,0
1,note_on,64,42,0
1,note_on,64,0,120
1,note_on,56,0,0
1,note_on,76,30,0
1,note_on,64,25,0
1,note_on,74,33,0
1,note_on,71,27,0
1,note_on,71,0,240
1,note_on,74,0,0
1,note_on,73,32,0
1,note_on,69,27,0
1,note_on,69,0,150
1,note_on,73,0,0
1,note_on,62,25,45
1,note_on,68,25,15
1,note_on,71,30,15
1,note_on,64,0,15
1,note_on,76,0,0
1,note_on,74,25,0
1,note_on,64,40,180
1,note_on,64,0,60
1,note_on,68,0,0
1,note_on,71,0,0
1,note_on,62,0,0
1,note_on,74,0,0
1,note_on,69,50,0
1,note_on,61,30,240
1,note_on,64,34,0
1,note_on,64,0,120
1,note_on,61,0,0
1,note_on,69,0,0
1,note_on,71,43,0
1,note_on,71,0,90
1,note_on,73,51,30
1,note_on,61,30,240
1,note_on,64,34,0
1,note_on,64,0,120
1,note_on,61,0,0
1,note_on,73,0,0
1,note_on,69,47,0
1,note_on,69,0,120
1,note_on,66,47,0
1,note_on,66,0,240
1,note_on,62,37,0
1,note_on,71,50,0
1,note_on,62,0,120
1,note_on,71,0,360
1,note_on,66,37,0
1,note_on,69,49,0
1,note_on,66,0,120
1,note_on,69,0,120
1,note_on,69,47,0
1,note_on,69,0,120
1,note_on,68,47,0
1,note_on,68,0,120
1,note_on,59,32,0
1,note_on,62,34,0
1,note_on,66,47,0
1,note_on,66,0,90
1,note_on,62,0,30
1,note_on,59,0,0
1,note_on,64,44,0
1,note_on,64,0,90
1,note_on,64,46,30
1,note_on,64,0,48
1,note_on,66,46,0
1,note_on,66,0,48
1,note_on,64,46,0
1,note_on,64,0,48
1,note_on,63,46,0
1,note_on,63,0,48
1,note_on,64,46,0
1,note_on,64,0,48
1,note_on,62,36,0
1,note_on,66,47,0
1,note_on,66,0,90
1,note_on,62,0,30
1,note_on,68,47,0
1,note_on,68,0,90
1,note_on,69,47,30
1,note_on,69,0,90
1,note_on,73,49,30
1,note_on,73,0,90
1,note_on,64,37,30
1,note_on,76,54,0
1,note_on,64,0,120
1,note_on,76,0,360
1,note_on,62,37,0
1,note_on,64,37,0
1,note_on,71,49,0
1,note_on,64,0,120
1,note_on,62,0,0
1,note_on,71,0,120
1,note_on,74,47,0
1,note_on,74,0,120
1,note_on,73,47,0
1,note_on,73,0,120
1,note_on,61,32,0
1,note_on,64,34,0
1,note_on,71,47,0
1,note_on,71,0,90
1,note_on,64,0,30
1,note_on,61,0,0
1,note_on,69,44,0
1,note_on,69,0,90
1,note_on,69,46,30
1,note_on,69,0,35
1,note_on,69,43,5
1,note_on,69,0,40
1,note_on,71,43,0
1,note_on,69,43,40
1,note_on,71,0,8
1,note_on,69,0,32
1,note_on,68,43,0
1,note_on,68,0,40
1,note_on,69,43,0
1,note_on,69,0,40
1,note_on,62,36,0
1,note_on,73,47,0
1,note_on,73,0,90
1,note_on,62,0,30
1,note_on,71,45,60
1,note_on,71,0,60
1,note_on,69,47,0
1,note_on,61,40,0
1,note_on,61,0,120
1,note_on,69,0,0
1,note_on,97,44,120
1,note_on,85,36,0
1,note_on,88,36,0
1,note_on,88,0,120
1,note_on,85,0,0
1,note_on,97,0,0
1,note_on,93,44,120
1,note_on,81,36,0
1,note_on,85,36,0
1,note_on,85,0,120
1,note_on,81,0,0
1,note_on,93,0,0
1,note_on,59,53,360
1,note_on,56,45,0
1,note_on,56,0,240
1,note_on,59,0,0
1,note_on,56,50,0
1,note_on,56,0,120
1,note_on,52,47,0
1,note_on,52,0,90
1,note_on,61,53,30
1,note_on,57,45,0
1,note_on,57,0,240
1,note_on,61,0,0
1,note_on,64,51,0
1,note_on,61,43,0
1,note_on,61,0,120
1,note_on,64,0,0
1,note_on,61,47,0
1,note_on,57,40,0
1,note_on,57,0,90
1,note_on,61,0,0
1,note_on,59,54,30
1,note_on,56,45,0
1,note_on,56,0,360
1,note_on,59,0,0
1,note_on,56,47,0
1,note_on,52,40,0
1,note_on,52,0,120
1,note_on,56,0,0
1,note_on,59,50,0
1,note_on,56,42,0
1,note_on,56,0,120
1,note_on,59,0,0
1,note_on,71,44,240
1,note_on,71,0,120
1,note_on,66,33,0
1,note_on,70,51,0
1,note_on,70,0,120
1,note_on,71,45,0
1,note_on,71,0,120
1,note_on,73,49,0
1,note_on,73,0,120
1,note_on,71,45,0
1,note_on,71,0,120
1,note_on,70,48,0
1,note_on,70,0,120
1,note_on,71,45,0
1,note_on,71,0,120
1,note_on,69,48,0
1,note_on,66,0,110
1,note_on,69,0,10
1,note_on,66,45,0
1,note_on,66,0,120
1,note_on,64,48,0
1,note_on,68,48,0
1,note_on,68,0,240
1,note_on,64,0,0
1,note_on,92,38,0
1,note_on,88,30,0
1,note_on,88,0,60
1,note_on,92,0,0
1,note_on,93,39,0
1,note_on,90,31,0
1,note_on,90,0,60
1,note_on,93,0,0
1,note_on,95,43,0
1,note_on,92,34,0
1,note_on,92,0,60
1,note_on,95,0,0
1,note_on,93,41,0
1,note_on,90,32,0
1,note_on,90,0,60
1,note_on,93,0,0
1,note_on,92,39,0
1,note_on,88,31,0
1,note_on,88,0,120
1,note_on,92,0,0
1,note_on,59,53,360
1,note_on,56,45,0
1,note_on,56,0,240
1,note_on,59,0,0
1,note_on,56,50,0
1,note_on,56,0,120
1,note_on,52,47,0
1,note_on,52,0,90
1,note_on,57,38,30
1,note_on,61,38,0
1,note_on,61,0,35
1,note_on,57,0,0
1,note_on,57,33,5
1,note_on,61,33,0
1,note_on,61,0,40
1,note_on,57,0,0
1,note_on,59,36,0
1,note_on,63,36,0
1,note_on,63,0,40
1,note_on,59,0,0
1,note_on,57,33,0
1,note_on,61,33,0
1,note_on,61,0,40
1,note_on,57,0,0
1,note_on,56,38,0
1,note_on,60,38,0
1,note_on,60,0,40
1,note_on,56,0,0
1,note_on,57,33,0
1,note_on,61,33,0
1,note_on,61,0,30
1,note_on,57,0,0
1,note_on,61,43,0
1,note_on,64,51,10
1,note_on,64,0,120
1,note_on,61,0,0
1,note_on,61,47,0
1,note_on,57,40,0
1,note_on,57,0,90
1,note_on,61,0,0
1,note_on,59,54,30
1,note_on,56,45,0
1,note_on,56,0,360
1,note_on,59,0,0
1,note_on,56,47,0
1,note_on,52,40,0
1,note_on,52,0,120
1,note_on,56,0,0
1,note_on,59,50,0
1,note_on,56,42,0
1,note_on,56,0,120
1,note_on,59,0,0
1,note_on,71,44,240
1,note_on,66,33,120
1,note_on,71,0,240
1,note_on,71,49,0
1,note_on,71,0,120
1,note_on,71,45,0
1,note_on,71,0,120
1,note_on,70,48,0
1,note_on,70,0,120
1,note_on,71,45,0
1,note_on,71,0,120
1,note_on,69,48,0
1,note_on,69,0,120
1,note_on,71,45,0
1,note_on,71,0,120
1,note_on,66,0,0
1,note_on,64,33,0
1,note_on,68,51,0
1,note_on,68,0,120
1,note_on,71,45,0
1,note_on,71,0,120
1,note_on,71,45,0
1,note_on,71,0,60
1,note_on,71,45,60
1,note_on,71,0,60
1,note_on,64,0,60
1,note_on,66,33,0
1,note_on,70,48,0
1,note_on,70,0,120
1,note_on,71,45,0
1,note_on,71,0,120
1,note_on,69,48,0
1,note_on,69,0,120
1,note_on,71,45,0
1,note_on,71,0,120
1,note_on,66,0,0
1,note_on,64,33,0
1,note_on,68,51,0
1,note_on,68,0,120
1,note_on,71,45,0
1,note_on,71,0,120
1,note_on,71,45,0
1,note_on,71,0,60
1,note_on,71,45,60
1,note_on,71,0,60
1,note_on,64,0,60
1,note_on,70,48,0
1,note_on,66,33,0
1,note_on,70,0,80
1,note_on,73,45,0
1,note_on,73,0,80
1,note_on,71,45,0
1,note_on,71,0,80
1,note_on,69,48,0
1,note_on,69,0,80
1,note_on,73,44,0
1,note_on,73,0,80
1,note_on,71,44,0
1,note_on,71,0,80
1,note_on,66,0,0
1,note_on,64,54,0
1,note_on,68,54,0
1,note_on,68,0,240
1,note_on,64,0,0
1,note_on,64,46,0
1,note_on,64,0,120
1,note_on,56,53,120
1,note_on,59,53,0
1,note_on,59,0,240
1,note_on,56,0,0
1,note_on,52,48,0
1,note_on,56,48,0
1,note_on,56,0,120
1,note_on,52,0,0
1,note_on,59,55,120
1,note_on,62,55,0
1,note_on,62,0,480
1,note_on,59,0,0
1,note_on,52,48,0
1,note_on,59,48,0
1,note_on,59,0,120
1,note_on,52,0,0
1,note_on,57,47,360
1,note_on,57,0,240
1,note_on,57,46,0
1,note_on,57,0,90
1,note_on,59,42,30
1,note_on,59,0,90
1,note_on,61,47,30
1,note_on,61,0,240
1,note_on,57,43,0
1,note_on,57,0,210
1,note_on,54,43,30
1,note_on,54,0,240
1,note_on,59,48,0
1,note_on,59,0,480
1,note_on,59,42,0
1,note_on,66,42,0
1,note_on,69,42,0
1,note_on,66,0,120
1,note_on,59,0,0
1,note_on,69,0,120
1,note_on,68,48,0
1,note_on,59,33,240
1,note_on,64,33,0
1,note_on,64,0,120
1,note_on,59,0,0
1,note_on,68,0,0
1,note_on,68,42,0
1,note_on,68,0,120
1,note_on,69,44,0
1,note_on,57,46,210
1,note_on,63,46,15
1,note_on,69,0,15
1,note_on,71,46,0
1,note_on,63,0,120
1,note_on,57,0,0
1,note_on,56,25,90
1,note_on,64,29,15
1,note_on,71,0,15
1,note_on,71,45,0
1,note_on,71,0,120
1,note_on,64,0,0
1,note_on,64,42,0
1,note_on,64,0,120
1,note_on,56,0,0
1,note_on,86,37,0
1,note_on,74,31,0
1,note_on,83,31,0
1,note_on,83,0,240
1,note_on,74,0,0
1,note_on,86,0,0
1,note_on,73,31,0
1,note_on,85,36,0
1,note_on,81,31,0
1,note_on,81,0,240
1,note_on,85,0,0
1,note_on,73,0,0
1,note_on,71,34,0
1,note_on,83,27,0
1,note_on,80,27,0
1,note_on,80,0,240
1,note_on,83,0,0
1,note_on,71,0,0
1,note_on,69,28,240
1,note_on,64,24,0
1,note_on,61,24,0
1,note_on,61,0,120
1,note_on,64,0,0
1,note_on,69,0,0
1,note_on,69,28,360
1,note_on,61,24,0
1,note_on,64,24,0
1,note_on,64,0,120
1,note_on,61,0,0
1,note_on,69,0,0
1,note_on,62,41,120
1,note_on,69,47,120
1,note_on,74,49,120
1,note_on,74,0,480
1,note_on,69,0,0
1,note_on,62,0,0
1,note_on,74,47,120
1,note_on,74,0,120
1,note_on,62,32,0
1,note_on,64,34,0
1,note_on,74,47,0
1,note_on,74,0,120
1,note_on,68,47,0
1,note_on,68,0,120
1,note_on,68,47,0
1,note_on,68,0,90
1,note_on,68,44,30
1,note_on,68,0,90
1,note_on,68,46,30
1,note_on,68,0,35
1,note_on,68,43,5
1,note_on,68,0,35
1,note_on,69,43,5
1,note_on,69,0,35
1,note_on,68,43,5
1,note_on,68,0,35
1,note_on,66,43,5
1,note_on,66,0,35
1,note_on,68,43,5
1,note_on,68,0,35
1,note_on,69,47,5
1,note_on,69,0,90
1,note_on,71,45,30
1,note_on,71,0,90
1,note_on,64,0,30
1,note_on,62,0,0
1,note_on,69,47,0
1,note_on,61,40,0
1,note_on,61,0,240
1,note_on,69,0,0
1,note_on,69,28,0
1,note_on,64,24,0
1,note_on,61,24,0
1,note_on,61,0,237
1,note_on,64,0,3
1,note_on,69,0,0
1,note_on,69,28,240
1,note_on,61,24,0
1,note_on,64,24,0
1,note_on,64,0,240
1,note_on,61,0,0
1,note_on,69,0,0
1,note_on,62,38,0
1,note_on,69,41,60
1,note_on,69,0,60
1,note_on,74,44,0
1,note_on,74,0,60
1,note_on,78,45,0
1,note_on,90,48,60
1,note_on,62,0,238
1,note_on,90,0,82
1,note_on,78,0,0
1,note_on,78,40,0
1,note_on,90,40,0
1,note_on,90,0,80
1,note_on,78,0,0
1,note_on,78,42,0
1,note_on,90,42,0
1,note_on,90,0,80
1,note_on,78,0,0
1,note_on,78,45,0
1,note_on,90,45,0
1,note_on,90,0,80
1,note_on,78,0,0
1,note_on,78,46,0
1,note_on,90,46,0
1,note_on,90,0,80
1,note_on,78,0,0
1,note_on,78,49,0
1,note_on,90,49,0
1,note_on,90,0,80
1,note_on,78,0,0
1,note_on,78,54,0
1,note_on,90,54,0
1,note_on,90,0,60
1,note_on,80,48,0
1,note_on,80,0,60
1,note_on,90,44,0
1,note_on,90,0,60
1,note_on,92,44,0
1,note_on,92,0,60
1,note_on,78,0,0
1,note_on,102,54,0
1,note_on,102,0,60
1,note_on,92,45,0
1,note_on,92,0,60
1,note_on,90,41,0
1,note_on,90,0,60
1,note_on,80,41,0
1,note_on,80,0,60
1,note_on,90,50,0
1,note_on,90,0,60
1,note_on,80,41,0
1,note_on,80,0,60
1,note_on,78,41,0
1,note_on,78,0,60
1,note_on,68,36,0
1,note_on,68,0,50
1,note_on,68,36,10
1,note_on,68,0,70
1,note_on,68,35,10
1,note_on,68,0,70
1,note_on,68,36,10
1,note_on,68,0,70
1,note_on,62,43,10
1,note_on,64,43,0
1,note_on,68,50,0
1,note_on,68,0,50
1,note_on,68,37,10
1,note_on,68,0,60
1,note_on,69,41,0
1,note_on,69,0,60
1,note_on,68,37,0
1,note_on,68,0,60
1,note_on,64,0,0
1,note_on,62,0,0
1,note_on,67,36,0
1,note_on,67,0,60
1,note_on,68,36,0
1,note_on,68,0,60
1,note_on,69,36,0
1,note_on,69,0,60
1,note_on,70,36,0
1,note_on,70,0,60
1,note_on,71,36,0
1,note_on,71,0,60
1,note_on,72,37,0
1,note_on,72,0,60
1,note_on,73,38,0
1,note_on,73,0,60
1,note_on,74,39,0
1,note_on,74,0,60
1,note_on,75,40,0
1,note_on,75,0,60
1,note_on,76,41,0
1,note_on,76,0,60
1,note_on,77,42,0
1,note_on,77,0,60
1,note_on,78,43,0
1,note_on,78,0,60
1,note_on,79,44,0
1,note_on,79,0,60
1,note_on,80,44,0
1,note_on,80,0,60
1,note_on,81,45,0
1,note_on,81,0,60
1,note_on,82,45,0
1,note_on,82,0,60
1,note_on,83,46,0
1,note_on,83,0,60
1,note_on,84,47,0
1,note_on,84,0,60
1,note_on,85,48,0
1,note_on,85,0,60
1,note_on,86,49,0
1,note_on,86,0,60
1,note_on,87,50,0
1,note_on,87,0,60
1,note_on,88,50,0
1,note_on,88,0,60
1,note_on,89,51,0
1,note_on,89,0,60
1,note_on,90,52,0
1,note_on,90,0,60
1,note_on,91,53,0
1,note_on,91,0,60
1,note_on,92,54,0
1,note_on,92,0,60
1,note_on,93,54,0
1,note_on,93,0,60
1,note_on,94,55,0
1,note_on,94,0,60
1,note_on,95,56,0
1,note_on,95,0,60
1,note_on,96,57,0
1,note_on,96,0,60
1,note_on,97,58,0
1,note_on,97,0,60
1,note_on,98,58,0
1,note_on,98,0,60
1,note_on,99,59,0
1,note_on,99,0,80
1,note_on,100,60,0
1,note_on,100,0,80
1,note_on,101,62,0
1,note_on,101,0,80
1,note_on,102,72,0
1,note_on,102,0,60
1,note_on,68,43,300
1,note_on,62,49,0
1,note_on,62,0,120
1,note_on,68,0,0
1,note_on,69,43,0
1,note_on,69,0,240
1,note_on,62,45,600
1,note_on,64,45,0
1,note_on,71,45,0
1,note_on,76,50,0
1,note_on,76,0,120
1,note_on,62,0,0
1,note_on,64,0,0
1,note_on,71,0,0
1,note_on,61,33,0
1,note_on,69,33,0
1,note_on,75,55,0
1,note_on,75,0,120
1,note_on,76,50,0
1,note_on,76,0,120
1,note_on,69,0,0
1,note_on,61,0,0
1,note_on,69,33,0
1,note_on,78,54,0
1,note_on,78,0,120
1,note_on,76,50,0
1,note_on,76,0,120
1,note_on,69,0,0
1,note_on,75,53,0
1,note_on,75,0,120
1,note_on,76,50,0
1,note_on,76,0,120
1,note_on,64,33,0
1,note_on,74,53,0
1,note_on,74,0,120
1,note_on,71,50,0
1,note_on,71,0,120
1,note_on,64,0,0
1,note_on,64,34,0
1,note_on,69,34,0
1,note_on,73,43,0
1,note_on,73,0,240
1,note_on,69,0,0
1,note_on,64,0,0
1,note_on,62,45,600
1,note_on,64,45,0
1,note_on,71,45,0
1,note_on,76,50,0
1,note_on,71,0,120
1,note_on,62,0,0
1,note_on,64,0,0
1,note_on,61,33,0
1,note_on,69,33,0
1,note_on,69,0,120
1,note_on,61,0,0
1,note_on,76,0,0
1,note_on,76,38,0
1,note_on,88,50,0
1,note_on,88,0,90
1,note_on,76,0,0
1,note_on,76,41,30
1,note_on,88,54,0
1,note_on,88,0,90
1,note_on,76,0,0
1,note_on,76,38,30
1,note_on,88,50,0
1,note_on,88,0,90
1,note_on,76,0,0
1,note_on,75,40,30
1,note_on,87,53,0
1,note_on,87,0,120
1,note_on,75,0,0
1,note_on,76,38,0
1,note_on,88,50,0
1,note_on,88,0,120
1,note_on,76,0,0
1,note_on,74,40,0
1,note_on,86,53,0
1,note_on,86,0,120
1,note_on,74,0,0
1,note_on,76,38,0
1,note_on,88,50,0
1,note_on,88,0,90
1,note_on,76,0,0
1,note_on,76,42,30
1,note_on,88,54,0
1,note_on,88,0,120
1,note_on,76,0,0
1,note_on,73,38,0
1,note_on,85,50,0
1,note_on,85,0,90
1,note_on,73,0,0
1,note_on,73,38,30
1,note_on,85,50,0
1,note_on,85,0,90
1,note_on,73,0,0
1,note_on,73,38,30
1,note_on,85,50,0
1,note_on,85,0,90
1,note_on,73,0,0
1,note_on,72,41,30
1,note_on,84,54,0
1,note_on,84,0,120
1,note_on,72,0,0
1,note_on,73,38,0
1,note_on,85,50,0
1,note_on,85,0,120
1,note_on,73,0,0
1,note_on,71,41,0
1,note_on,83,54,0
1,note_on,83,0,120
1,note_on,71,0,0
1,note_on,73,38,0
1,note_on,85,50,0
1,note_on,85,0,90
1,note_on,73,0,0
1,note_on,73,42,30
1,note_on,85,54,0
1,note_on,85,0,120
1,note_on,73,0,0
1,note_on,69,38,0
1,note_on,81,50,0
1,note_on,81,0,90
1,note_on,69,0,0
1,note_on,69,38,30
1,note_on,81,50,0
1,note_on,81,0,90
1,note_on,69,0,0
1,note_on,69,38,30
1,note_on,81,50,0
1,note_on,81,0,90
1,note_on,69,0,0
1,note_on,68,43,30
1,note_on,80,55,0
1,note_on,80,0,80
1,note_on,68,0,0
1,note_on,71,39,0
1,note_on,83,51,0
1,note_on,83,0,80
1,note_on,71,0,0
1,note_on,69,39,0
1,note_on,81,51,0
1,note_on,81,0,80
1,note_on,69,0,0
1,note_on,67,42,0
1,note_on,79,54,0
1,note_on,79,0,80
1,note_on,67,0,0
1,note_on,71,38,0
1,note_on,83,50,0
1,note_on,83,0,120
1,note_on,71,0,0
1,note_on,69,38,0
1,note_on,81,50,0
1,note_on,81,0,30
1,note_on,69,0,0
1,note_on,69,41,10
1,note_on,81,54,0
1,note_on,81,0,120
1,note_on,69,0,0
1,note_on,66,39,0
1,note_on,78,51,0
1,note_on,78,0,90
1,note_on,66,0,0
1,note_on,66,39,30
1,note_on,74,43,0
1,note_on,78,51,0
1,note_on,78,0,240
1,note_on,74,0,0
1,note_on,66,0,0
1,note_on,62,55,240
1,note_on,62,0,240
1,note_on,62,60,0
1,note_on,62,0,120
1,note_on,56,56,0
1,note_on,56,0,360
1,note_on,64,55,240
1,note_on,64,0,240
1,note_on,64,60,0
1,note_on,64,0,120
1,note_on,57,56,0
1,note_on,57,0,360
1,note_on,90,55,240
1,note_on,78,55,0
1,note_on,78,0,240
1,note_on,90,0,0
1,note_on,88,55,0
1,note_on,76,55,0
1,note_on,76,0,90
1,note_on,88,0,0
1,note_on,87,51,30
1,note_on,75,51,0
1,note_on,75,0,90
1,note_on,87,0,0
1,note_on,74,46,30
1,note_on,86,50,0
1,note_on,86,0,60
1,note_on,86,42,0
1,note_on,86,0,60
1,note_on,88,45,0
1,note_on,88,0,60
1,note_on,86,42,0
1,note_on,86,0,60
1,note_on,74,0,0
1,note_on,85,46,0
1,note_on,85,0,60
1,note_on,86,42,0
1,note_on,86,0,60
1,note_on,97,49,0
1,note_on,97,0,60
1,note_on,95,44,0
1,note_on,95,0,60
1,note_on,92,44,0
1,note_on,92,0,60
1,note_on,86,44,0
1,note_on,86,0,60
1,note_on,87,45,0
1,note_on,87,0,60
1,note_on,88,46,0
1,note_on,88,0,60
1,note_on,89,48,0
1,note_on,89,0,60
1,note_on,92,52,0
1,note_on,92,0,60
1,note_on,90,45,0
1,note_on,90,0,60
1,note_on,86,45,0
1,note_on,86,0,60
1,note_on,80,45,0
1,note_on,80,0,60
1,note_on,81,44,0
1,note_on,81,0,60
1,note_on,82,46,0
1,note_on,82,0,60
1,note_on,85,49,0
1,note_on,85,0,60
1,note_on,83,45,0
1,note_on,83,0,60
1,note_on,80,45,0
1,note_on,80,0,60
1,note_on,74,44,0
1,note_on,74,0,60
1,note_on,75,42,0
1,note_on,75,0,60
1,note_on,76,45,0
1,note_on,76,0,60
1,note_on,77,48,0
1,note_on,77,0,60
1,note_on,80,50,0
1,note_on,80,0,60
1,note_on,78,42,0
1,note_on,78,0,60
1,note_on,74,42,0
1,note_on,74,0,60
1,note_on,68,42,0
1,note_on,68,0,60
1,note_on,69,45,0
1,note_on,69,0,60
1,note_on,70,39,0
1,note_on,70,0,60
1,note_on,73,44,0
1,note_on,73,0,60
1,note_on,71,39,0
1,note_on,71,0,60
1,note_on,74,46,0
1,note_on,74,0,60
1,note_on,78,42,0
1,note_on,78,0,60
1,note_on,75,47,0
1,note_on,75,0,60
1,note_on,76,45,0
1,note_on,76,0,60
1,note_on,80,48,0
1,note_on,80,0,60
1,note_on,85,44,0
1,note_on,85,0,60
1,note_on,82,48,0
1,note_on,82,0,60
1,note_on,83,44,0
1,note_on,83,0,60
1,note_on,86,48,0
1,note_on,86,0,60
1,note_on,90,45,0
1,note_on,90,0,60
1,note_on,87,48,0
1,note_on,87,0,60
1,note_on,88,45,0
1,note_on,88,0,60
1,note_on,92,48,0
1,note_on,92,0,60
1,note_on,97,45,0
1,note_on,97,0,60
1,note_on,94,45,0
1,note_on,94,0,60
1,note_on,95,43,0
1,note_on,95,0,60
1,note_on,98,43,0
1,note_on,98,0,60
1,note_on,101,43,0
1,note_on,101,0,60
1,note_on,94,45,0
1,note_on,94,0,60
1,note_on,95,43,0
1,note_on,95,0,60
1,note_on,98,45,0
1,note_on,98,0,60
1,note_on,100,45,0
1,note_on,100,0,60
1,note_on,94,49,0
1,note_on,94,0,60
1,note_on,95,46,0
1,note_on,95,0,60
1,note_on,98,46,0
1,note_on,98,0,60
1,note_on,101,47,0
1,note_on,101,0,60
1,note_on,94,53,0
1,note_on,94,0,60
1,note_on,95,50,0
1,note_on,95,0,60
1,note_on,98,51,0
1,note_on,98,0,60
1,note_on,100,52,0
1,note_on,100,0,60
1,note_on,94,55,0
1,note_on,94,0,60
1,note_on,95,54,0
1,note_on,95,0,60
1,note_on,98,54,0
1,note_on,98,0,60
1,note_on,101,54,0
1,note_on,101,0,60
1,note_on,94,59,0
1,note_on,94,0,60
1,note_on,95,55,0
1,note_on,95,0,60
1,note_on,98,55,0
1,note_on,98,0,60
1,note_on,100,55,0
1,note_on,100,0,60
1,note_on,94,62,0
1,note_on,94,0,60
1,note_on,95,57,0
1,note_on,95,0,60
1,note_on,98,49,0
1,note_on,98,0,60
1,note_on,101,49,0
1,note_on,101,0,60
1,note_on,99,54,0
1,note_on,99,0,60
1,note_on,100,49,0
1,note_on,100,0,60
1,note_on,98,54,0
1,note_on,98,0,60
1,note_on,99,49,0
1,note_on,99,0,60
1,note_on,97,54,0
1,note_on,97,0,60
1,note_on,98,49,0
1,note_on,98,0,60
1,note_on,96,54,0
1,note_on,96,0,60
1,note_on,97,49,0
1,note_on,97,0,60
1,note_on,95,54,0
1,note_on,95,0,60
1,note_on,96,49,0
1,note_on,96,0,60
1,note_on,94,54,0
1,note_on,94,0,60
1,note_on,95,49,0
1,note_on,95,0,60
1,note_on,93,54,0
1,note_on,93,0,60
1,note_on,94,45,0
1,note_on,94,0,60
1,note_on,92,50,0
1,note_on,92,0,60
1,note_on,93,46,0
1,note_on,93,0,60
1,note_on,91,50,0
1,note_on,91,0,60
1,note_on,92,46,0
1,note_on,92,0,60
1,note_on,90,50,0
1,note_on,90,0,60
1,note_on,91,46,0
1,note_on,91,0,60
1,note_on,89,50,0
1,note_on,89,0,60
1,note_on,90,46,0
1,note_on,90,0,60
1,note_on,88,50,0
1,note_on,88,0,60
1,note_on,89,45,0
1,note_on,89,0,60
1,note_on,87,51,0
1,note_on,87,0,60
1,note_on,88,44,0
1,note_on,88,0,60
1,note_on,86,45,0
1,note_on,86,0,60
1,note_on,87,43,0
1,note_on,87,0,60
1,note_on,85,47,0
1,note_on,85,0,60
1,note_on,86,43,0
1,note_on,86,0,60
1,note_on,84,48,0
1,note_on,84,0,60
1,note_on,85,43,0
1,note_on,85,0,60
1,note_on,83,48,0
1,note_on,83,0,60
1,note_on,84,43,0
1,note_on,84,0,60
1,note_on,82,49,0
1,note_on,82,0,60
1,note_on,83,42,0
1,note_on,83,0,60
1,note_on,81,49,0
1,note_on,81,0,60
1,note_on,82,45,0
1,note_on,82,0,60
1,note_on,80,49,0
1,note_on,80,0,60
1,note_on,81,44,0
1,note_on,81,0,60
1,note_on,79,50,0
1,note_on,79,0,60
1,note_on,80,43,0
1,note_on,80,0,60
1,note_on,78,49,0
1,note_on,78,0,60
1,note_on,79,44,0
1,note_on,79,0,60
1,note_on,77,48,0
1,note_on,77,0,60
1,note_on,78,42,0
1,note_on,78,0,60
1,note_on,76,49,0
1,note_on,76,0,60
1,note_on,77,44,0
1,note_on,77,0,60
1,note_on,75,49,0
1,note_on,75,0,60
1,note_on,76,44,0
1,note_on,76,0,60
1,note_on,74,49,0
1,note_on,74,0,60
1,note_on,76,43,0
1,note_on,76,0,60
1,note_on,73,48,0
1,note_on,73,0,60
1,note_on,76,45,0
1,note_on,76,0,60
1,note_on,74,45,0
1,note_on,74,0,60
1,note_on,76,42,0
1,note_on,76,0,60
1,note_on,70,39,0
1,note_on,70,0,60
1,note_on,76,36,0
1,note_on,76,0,60
1,note_on,71,43,0
1,note_on,71,0,60
1,note_on,76,41,0
1,note_on,76,0,60
1,note_on,73,46,0
1,note_on,73,0,60
1,note_on,76,42,0
1,note_on,76,0,60
1,note_on,74,49,0
1,note_on,74,0,60
1,note_on,76,42,0
1,note_on,76,0,60
1,note_on,70,39,0
1,note_on,70,0,60
1,note_on,76,37,0
1,note_on,76,0,60
1,note_on,71,44,0
1,note_on,71,0,60
1,note_on,76,41,0
1,note_on,76,0,60
1,note_on,73,48,0
1,note_on,73,0,60
1,note_on,76,45,0
1,note_on,76,0,60
1,note_on,74,48,0
1,note_on,74,0,120
1,note_on,76,43,0
1,note_on,76,0,120
1,note_on,70,40,0
1,note_on,70,0,120
1,note_on,76,38,0
1,note_on,76,0,120
1,note_on,71,43,0
1,note_on,71,0,120
1,note_on,76,39,0
1,note_on,76,0,120
1,note_on,72,45,0
1,note_on,72,0,120
1,note_on,76,43,0
1,note_on,76,0,120
1,note_on,73,47,0
1,note_on,73,0,120
1,note_on,76,45,0
1,note_on,76,0,120
1,note_on,74,50,0
1,note_on,74,0,120
1,note_on,76,45,0
1,note_on,76,0,120
1,note_on,70,46,0
1,note_on,70,0,120
1,note_on,76,39,0
1,note_on,76,0,120
1,note_on,71,45,0
1,note_on,71,0,240
1,note_on,76,43,0
1,note_on,76,0,240
1,note_on,64,37,0
1,note_on,72,45,0
1,note_on,72,0,360
1,note_on,64,0,0
1,note_on,73,50,0
1,note_on,64,42,0
1,note_on,64,0,240
1,note_on,61,39,0
1,note_on,61,0,240
1,note_on,73,0,0
1,note_on,71,45,0
1,note_on,64,37,0
1,note_on,64,0,240
1,note_on,71,0,0
1,note_on,73,48,0
1,note_on,64,40,0
1,note_on,64,0,240
1,note_on,61,37,0
1,note_on,61,0,240
1,note_on,73,0,0
1,note_on,74,45,0
1,note_on,64,37,0
1,note_on,64,0,240
1,note_on,74,0,0
1,note_on,71,48,0
1,note_on,64,40,0
1,note_on,64,0,240
1,note_on,71,0,0
1,note_on,76,51,0
1,note_on,64,43,0
1,note_on,64,0,960
1,note_on,76,0,0
1,note_on,71,45,0
1,note_on,64,37,0
1,note_on,64,0,240
1,note_on,71,0,0
1,note_on,73,50,0
1,note_on,64,42,0
1,note_on,64,0,240
1,note_on,61,39,0
1,note_on,61,0,240
1,note_on,73,0,0
1,note_on,71,45,0
1,note_on,64,37,0
1,note_on,64,0,240
1,note_on,71,0,0
1,note_on,73,48,0
1,note_on,64,40,0
1,note_on,64,0,240
1,note_on,61,37,0
1,note_on,61,0,240
1,note_on,73,0,0
1,note_on,74,45,0
1,note_on,64,37,0
1,note_on,64,0,240
1,note_on,74,0,0
1,note_on,71,48,0
1,note_on,64,40,0
1,note_on,64,0,240
1,note_on,71,0,0
1,note_on,76,51,0
1,note_on,64,43,0
1,note_on,64,0,960
1,note_on,76,0,0
1,note_on,71,44,0
1,note_on,64,44,0
1,note_on,64,0,240
1,note_on,71,0,0
1,note_on,73,54,0
1,note_on,64,45,0
1,note_on,69,45,0
1,note_on,69,0,240
1,note_on,64,0,0
1,note_on,73,0,0
1,note_on,76,48,0
1,note_on,73,40,0
1,note_on,73,0,240
1,note_on,76,0,0
1,note_on,73,48,0
1,note_on,69,40,0
1,note_on,69,0,240
1,note_on,73,0,0
1,note_on,74,52,0
1,note_on,71,44,0
1,note_on,71,0,240
1,note_on,74,0,0
1,note_on,78,47,0
1,note_on,74,40,0
1,note_on,74,0,240
1,note_on,78,0,0
1,note_on,74,47,0
1,note_on,71,40,0
1,note_on,71,0,240
1,note_on,74,0,0
1,note_on,73,53,0
1,note_on,69,45,0
1,note_on,69,0,720
1,note_on,73,0,0
1,note_on,71,46,0
1,note_on,62,39,0
1,note_on,64,39,0
1,note_on,68,39,0
1,note_on,68,0,240
1,note_on,71,0,0
1,note_on,62,0,0
1,note_on,64,0,0
1,note_on,74,46,0
1,note_on,71,38,0
1,note_on,71,0,240
1,note_on,74,0,0
1,note_on,71,43,0
1,note_on,68,36,0
1,note_on,68,0,240
1,note_on,71,0,0
1,note_on,69,42,0
1,note_on,61,35,0
1,note_on,61,0,120
1,note_on,69,0,0
1,note_on,81,50,120
1,note_on,73,42,0
1,note_on,73,0,240
1,note_on,75,47,0
1,note_on,75,0,240
1,note_on,81,0,0
1,note_on,80,48,0
1,note_on,76,39,0
1,note_on,76,0,240
1,note_on,80,0,0
1,note_on,76,48,0
1,note_on,71,40,0
1,note_on,71,0,240
1,note_on,76,0,0
1,note_on,79,50,0
1,note_on,73,42,0
1,note_on,73,0,240
1,note_on,79,0,0
1,note_on,78,52,0
1,note_on,74,44,0
1,note_on,74,0,240
1,note_on,78,0,0
1,note_on,74,52,0
1,note_on,70,44,0
1,note_on,70,0,240
1,note_on,74,0,0
1,note_on,77,53,0
1,note_on,69,44,0
1,note_on,69,0,240
1,note_on,77,0,0
1,note_on,76,55,0
1,note_on,68,46,0
1,note_on,68,0,240
1,note_on,76,0,0
1,note_on,71,48,0
1,note_on,64,40,0
1,note_on,68,37,210
1,note_on,64,0,30
1,note_on,71,0,0
1,note_on,83,45,0
1,note_on,68,0,150
1,note_on,83,0,30
1,note_on,69,42,45
1,note_on,85,50,15
1,note_on,68,37,450
1,note_on,85,0,30
1,note_on,69,0,0
1,note_on,83,45,0
1,note_on,69,40,210
1,note_on,83,0,30
1,note_on,68,0,0
1,note_on,85,48,0
1,note_on,68,37,450
1,note_on,85,0,30
1,note_on,69,0,0
1,note_on,86,45,0
1,note_on,68,0,150
1,note_on,86,0,30
1,note_on,68,40,45
1,note_on,83,48,15
1,note_on,83,0,240
1,note_on,68,0,0
1,note_on,88,51,0
1,note_on,76,43,0
1,note_on,68,37,930
1,note_on,76,37,15
1,note_on,76,0,15
1,note_on,88,0,0
1,note_on,83,45,0
1,note_on,83,0,180
1,note_on,68,0,0
1,note_on,76,0,0
1,note_on,69,42,40
1,note_on,76,42,10
1,note_on,85,50,10
1,note_on,68,37,450
1,note_on,76,37,15
1,note_on,85,0,15
1,note_on,69,0,0
1,note_on,83,45,0
1,note_on,76,0,20
1,note_on,69,40,190
1,note_on,76,40,15
1,note_on,68,0,15
1,note_on,83,0,0
1,note_on,76,0,0
1,note_on,85,48,0
1,note_on,68,37,450
1,note_on,76,37,15
1,note_on,85,0,15
1,note_on,76,0,0
1,note_on,69,0,0
1,note_on,86,45,0
1,note_on,86,0,180
1,note_on,68,0,0
1,note_on,76,0,0
1,note_on,68,40,40
1,note_on,76,40,10
1,note_on,83,48,10
1,note_on,83,0,240
1,note_on,76,0,0
1,note_on,68,0,0
1,note_on,88,51,0
1,note_on,76,43,0
1,note_on,68,37,930
1,note_on,76,37,15
1,note_on,76,0,15
1,note_on,88,0,0
1,note_on,83,45,0
1,note_on,68,0,180
1,note_on,76,0,0
1,note_on,83,0,30
1,note_on,69,42,0
1,note_on,76,42,15
1,note_on,85,50,15
1,note_on,71,40,705
1,note_on,76,0,10
1,note_on,69,0,5
1,note_on,85,0,0
1,note_on,86,48,0
1,note_on,74,45,225
1,note_on,86,0,15
1,note_on,71,0,0
1,note_on,90,48,0
1,note_on,71,37,210
1,note_on,90,0,30
1,note_on,74,0,0
1,note_on,86,45,0
1,note_on,86,0,210
1,note_on,71,0,0
1,note_on,69,42,0
1,note_on,85,50,30
1,note_on,68,40,690
1,note_on,76,40,15
1,note_on,85,0,15
1,note_on,69,0,0
1,note_on,83,48,0
1,note_on,71,45,225
1,note_on,83,0,15
1,note_on,76,0,0
1,note_on,68,0,0
1,note_on,86,48,0
1,note_on,68,37,210
1,note_on,86,0,30
1,note_on,71,0,0
1,note_on,83,45,0
1,note_on,68,0,140
1,note_on,83,0,30
1,note_on,64,39,40
1,note_on,69,42,10
1,note_on,73,45,10
1,note_on,81,47,10
1,note_on,81,0,120
1,note_on,64,0,0
1,note_on,69,0,0
1,note_on,73,0,0
1,note_on,76,43,520
1,note_on,85,51,0
1,note_on,85,0,40
1,note_on,76,0,0
1,note_on,78,40,0
1,note_on,86,47,0
1,note_on,86,0,20
1,note_on,78,0,0
1,note_on,85,49,20
1,note_on,76,41,0
1,note_on,76,0,60
1,note_on,85,0,0
1,note_on,83,49,300
1,note_on,71,41,0
1,note_on,71,0,30
1,note_on,83,0,0
1,note_on,85,46,90
1,note_on,76,39,0
1,note_on,76,0,60
1,note_on,85,0,0
1,note_on,86,51,180
1,note_on,78,43,0
1,note_on,78,0,60
1,note_on,86,0,0
1,note_on,88,45,300
1,note_on,79,38,0
1,note_on,79,0,30
1,note_on,88,0,0
1,note_on,86,48,90
1,note_on,78,40,0
1,note_on,78,0,45
1,note_on,86,0,0
1,note_on,76,43,115
1,note_on,85,51,0
1,note_on,85,0,40
1,note_on,76,0,0
1,note_on,78,40,0
1,note_on,86,47,0
1,note_on,86,0,20
1,note_on,78,0,0
1,note_on,85,49,20
1,note_on,76,41,0
1,note_on,76,0,60
1,note_on,85,0,0
1,note_on,83,49,300
1,note_on,74,41,0
1,note_on,74,0,30
1,note_on,83,0,0
1,note_on,85,46,90
1,note_on,76,39,0
1,note_on,76,0,60
1,note_on,85,0,0
1,note_on,86,51,180
1,note_on,78,43,0
1,note_on,78,0,120
1,note_on,86,0,0
1,note_on,98,50,360
1,note_on,98,0,60
1,note_on,97,50,0
1,note_on,97,0,60
1,note_on,95,49,0
1,note_on,95,0,60
1,note_on,93,48,0
1,note_on,93,0,60
1,note_on,92,48,0
1,note_on,92,0,40
1,note_on,90,47,0
1,note_on,90,0,40
1,note_on,88,47,0
1,note_on,88,0,40
1,note_on,86,46,0
1,note_on,86,0,40
1,note_on,85,46,0
1,note_on,85,0,40
1,note_on,83,45,0
1,note_on,83,0,40
1,note_on,81,45,0
1,note_on,81,0,720
1,note_on,73,43,0
1,note_on,81,51,0
1,note_on,81,0,60
1,note_on,73,0,0
1,note_on,74,38,300
1,note_on,83,45,0
1,note_on,83,0,30
1,note_on,74,0,0
1,note_on,73,40,90
1,note_on,81,48,0
1,note_on,81,0,45
1,note_on,73,0,0
1,note_on,80,51,115
1,note_on,71,43,0
1,note_on,71,0,40
1,note_on,80,0,0
1,note_on,81,47,0
1,note_on,73,40,0
1,note_on,73,0,40
1,note_on,81,0,0
1,note_on,71,41,0
1,note_on,80,49,0
1,note_on,80,0,60
1,note_on,71,0,0
1,note_on,69,41,300
1,note_on,78,49,0
1,note_on,78,0,30
1,note_on,69,0,0
1,note_on,80,46,90
1,note_on,71,39,0
1,note_on,71,0,60
1,note_on,80,0,0
1,note_on,81,51,180
1,note_on,73,43,0
1,note_on,73,0,60
1,note_on,81,0,0
1,note_on,86,48,420
1,note_on,90,48,0
1,note_on,90,0,60
1,note_on,86,0,0
1,note_on,85,48,0
1,note_on,85,0,60
1,note_on,83,47,0
1,note_on,83,0,60
1,note_on,81,46,0
1,note_on,81,0,60
1,note_on,80,45,0
1,note_on,80,0,40
1,note_on,78,45,0
1,note_on,78,0,40
1,note_on,76,44,0
1,note_on,76,0,40
1,note_on,74,44,0
1,note_on,74,0,40
1,note_on,73,51,0
1,note_on,64,43,0
1,note_on,64,0,40
1,note_on,73,0,0
1,note_on,74,47,0
1,note_on,66,40,0
1,note_on,66,0,40
1,note_on,74,0,0
1,note_on,64,41,0
1,note_on,73,49,0
1,note_on,73,0,60
1,note_on,64,0,0
1,note_on,62,41,300
1,note_on,71,49,0
1,note_on,71,0,30
1,note_on,62,0,0
1,note_on,64,39,90
1,note_on,73,46,0
1,note_on,73,0,60
1,note_on,64,0,0
1,note_on,66,43,180
1,note_on,74,51,0
1,note_on,74,0,60
1,note_on,66,0,0
1,note_on,67,38,300
1,note_on,76,45,0
1,note_on,76,0,30
1,note_on,67,0,0
1,note_on,66,40,90
1,note_on,74,48,0
1,note_on,74,0,45
1,note_on,66,0,0
1,note_on,73,51,115
1,note_on,64,43,0
1,note_on,64,0,40
1,note_on,73,0,0
1,note_on,74,47,0
1,note_on,66,40,0
1,note_on,66,0,40
1,note_on,74,0,0
1,note_on,64,41,0
1,note_on,73,49,0
1,note_on,73,0,60
1,note_on,64,0,0
1,note_on,71,49,300
1,note_on,62,41,0
1,note_on,62,0,30
1,note_on,71,0,0
1,note_on,73,46,90
1,note_on,64,39,0
1,note_on,64,0,60
1,note_on,73,0,0
1,note_on,74,51,180
1,note_on,66,43,0
1,note_on,66,0,60
1,note_on,74,0,0
1,note_on,93,50,420
1,note_on,90,50,0
1,note_on,90,0,48
1,note_on,93,0,0
1,note_on,86,50,0
1,note_on,86,0,48
1,note_on,85,49,0
1,note_on,85,0,48
1,note_on,83,48,0
1,note_on,83,0,48
1,note_on,81,48,0
1,note_on,81,0,48
1,note_on,80,47,0
1,note_on,80,0,40
1,note_on,78,46,0
1,note_on,78,0,40
1,note_on,76,46,0
1,note_on,76,0,40
1,note_on,74,45,0
1,note_on,74,0,40
1,note_on,73,45,0
1,note_on,73,0,40
1,note_on,71,45,0
1,note_on,71,0,40
1,note_on,69,47,0
1,note_on,69,0,720
1,note_on,61,43,0
1,note_on,69,51,0
1,note_on,69,0,60
1,note_on,61,0,0
1,note_on,62,38,300
1,note_on,71,45,0
1,note_on,71,0,30
1,note_on,62,0,0
1,note_on,61,40,90
1,note_on,69,48,0
1,note_on,69,0,45
1,note_on,61,0,0
1,note_on,68,51,115
1,note_on,59,43,0
1,note_on,59,0,40
1,note_on,68,0,0
1,note_on,69,47,0
1,note_on,61,40,0
1,note_on,61,0,40
1,note_on,69,0,0
1,note_on,59,41,0
1,note_on,68,49,0
1,note_on,68,0,60
1,note_on,59,0,0
1,note_on,57,41,300
1,note_on,66,49,0
1,note_on,66,0,30
1,note_on,57,0,0
1,note_on,68,46,90
1,note_on,59,39,0
1,note_on,59,0,60
1,note_on,68,0,0
1,note_on,69,51,180
1,note_on,61,43,0
1,note_on,61,0,60
1,note_on,69,0,0
1,note_on,93,51,420
1,note_on,97,51,0
1,note_on,97,0,60
1,note_on,93,0,0
1,note_on,92,51,0
1,note_on,92,0,60
1,note_on,90,50,0
1,note_on,90,0,60
1,note_on,88,50,0
1,note_on,88,0,60
1,note_on,86,50,0
1,note_on,86,0,60
1,note_on,85,49,0
1,note_on,85,0,60
1,note_on,83,49,0
1,note_on,83,0,60
1,note_on,81,48,0
1,note_on,81,0,60
1,note_on,80,48,0
1,note_on,80,0,48
1,note_on,78,47,0
1,note_on,78,0,48
1,note_on,76,47,0
1,note_on,76,0,48
1,note_on,74,47,0
1,note_on,74,0,48
1,note_on,73,46,0
1,note_on,73,0,48
1,note_on,71,46,0
1,note_on,71,0,60
1,note_on,69,46,0
1,note_on,69,0,60
1,note_on,68,45,0
1,note_on,68,0,60
1,note_on,66,45,0
1,note_on,66,0,60
1,note_on,64,43,0
1,note_on,76,55,0
1,note_on,73,47,0
1,note_on,73,0,60
1,note_on,76,0,0
1,note_on,64,0,0
1,note_on,69,46,180
1,note_on,73,55,0
1,note_on,61,46,0
1,note_on,61,0,60
1,note_on,73,0,0
1,note_on,69,0,0
1,note_on,71,42,300
1,note_on,74,50,0
1,note_on,62,42,0
1,note_on,62,0,30
1,note_on,74,0,0
1,note_on,71,0,0
1,note_on,69,44,90
1,note_on,61,44,0
1,note_on,73,53,0
1,note_on,73,0,60
1,note_on,61,0,0
1,note_on,69,0,0
1,note_on,68,45,180
1,note_on,59,45,0
1,note_on,71,54,0
1,note_on,71,0,60
1,note_on,59,0,0
1,note_on,68,0,0
1,note_on,66,45,300
1,note_on,69,54,0
1,note_on,57,45,0
1,note_on,57,0,30
1,note_on,69,0,0
1,note_on,66,0,0
1,note_on,68,43,90
1,note_on,71,51,0
1,note_on,59,43,0
1,note_on,59,0,60
1,note_on,71,0,0
1,note_on,68,0,0
1,note_on,69,46,180
1,note_on,61,46,0
1,note_on,73,55,0
1,note_on,73,0,60
1,note_on,61,0,0
1,note_on,69,0,0
1,note_on,97,53,420
1,note_on,100,53,0
1,note_on,100,0,48
1,note_on,97,0,0
1,note_on,93,53,0
1,note_on,93,0,48
1,note_on,92,53,0
1,note_on,92,0,48
1,note_on,90,52,0
1,note_on,90,0,48
1,note_on,88,52,0
1,note_on,88,0,48
1,note_on,86,51,0
1,note_on,86,0,60
1,note_on,85,50,0
1,note_on,85,0,60
1,note_on,83,50,0
1,note_on,83,0,60
1,note_on,81,49,0
1,note_on,81,0,60
1,note_on,80,49,0
1,note_on,80,0,48
1,note_on,78,48,0
1,note_on,78,0,48
1,note_on,76,48,0
1,note_on,76,0,48
1,note_on,74,47,0
1,note_on,74,0,48
1,note_on,73,47,0
1,note_on,73,0,48
1,note_on,71,46,0
1,note_on,71,0,60
1,note_on,69,46,0
1,note_on,69,0,60
1,note_on,68,45,0
1,note_on,68,0,60
1,note_on,66,45,0
1,note_on,66,0,60
1,note_on,64,51,0
1,note_on,76,66,0
1,note_on,73,56,0
1,note_on,73,0,60
1,note_on,76,0,0
1,note_on,64,0,0
1,note_on,69,58,180
1,note_on,73,69,0
1,note_on,61,58,0
1,note_on,61,0,60
1,note_on,73,0,0
1,note_on,69,0,0
1,note_on,71,51,300
1,note_on,74,62,0
1,note_on,62,51,0
1,note_on,62,0,30
1,note_on,74,0,0
1,note_on,71,0,0
1,note_on,69,54,90
1,note_on,61,54,0
1,note_on,73,65,0
1,note_on,73,0,60
1,note_on,61,0,0
1,note_on,69,0,0
1,note_on,68,54,180
1,note_on,59,54,0
1,note_on,71,66,0
1,note_on,71,0,60
1,note_on,59,0,0
1,note_on,68,0,0
1,note_on,66,54,300
1,note_on,69,66,0
1,note_on,57,54,0
1,note_on,57,0,30
1,note_on,69,0,0
1,note_on,66,0,0
1,note_on,68,53,90
1,note_on,71,63,0
1,note_on,59,53,0
1,note_on,59,0,60
1,note_on,71,0,0
1,note_on,68,0,0
1,note_on,69,58,180
1,note_on,61,58,0
1,note_on,73,69,0
1,note_on,73,0,60
1,note_on,61,0,0
1,note_on,69,0,0
1,note_on,75,54,480
1,note_on,75,0,60
1,note_on,76,56,0
1,note_on,76,0,60
1,note_on,78,58,0
1,note_on,78,0,60
1,note_on,80,60,0
1,note_on,80,0,60
1,note_on,81,62,0
1,note_on,81,0,60
1,note_on,83,63,0
1,note_on,83,0,60
1,note_on,85,65,0
1,note_on,85,0,60
1,note_on,86,67,0
1,note_on,86,0,60
1,note_on,88,69,0
1,note_on,88,0,60
1,note_on,90,71,0
1,note_on,90,0,60
1,note_on,92,72,0
1,note_on,92,0,60
1,note_on,93,73,0
1,note_on,93,0,60
1,note_on,95,75,0
1,note_on,95,0,60
1,note_on,97,77,0
1,note_on,97,0,60
1,note_on,98,79,0
1,note_on,98,0,60
1,note_on,97,84,0
1,note_on,100,84,0
1,note_on,88,71,0
1,note_on,88,0,120
1,note_on,100,0,0
1,note_on,97,0,0
1,note_on,100,87,120
1,note_on,93,73,0
1,note_on,88,73,0
1,note_on,97,73,0
1,note_on,97,0,120
1,note_on,100,0,0
1,note_on,93,0,0
1,note_on,88,0,0
1,note_on,98,81,240
1,note_on,100,81,0
1,note_on,95,68,0
1,note_on,88,68,0
1,note_on,88,0,60
1,note_on,98,0,0
1,note_on,100,0,0
1,note_on,95,0,0
1,note_on,100,82,60
1,note_on,88,69,0
1,note_on,97,69,0
1,note_on,93,69,0
1,note_on,93,0,120
1,note_on,100,0,0
1,note_on,88,0,0
1,note_on,97,0,0
1,note_on,100,86,120
1,note_on,88,72,0
1,note_on,92,72,0
1,note_on,95,72,0
1,note_on,95,0,120
1,note_on,100,0,0
1,note_on,88,0,0
1,note_on,92,0,0
1,note_on,100,81,240
1,note_on,88,68,0
1,note_on,90,68,0
1,note_on,93,68,0
1,note_on,93,0,60
1,note_on,100,0,0
1,note_on,88,0,0
1,note_on,90,0,0
1,note_on,100,81,60
1,note_on,88,68,0
1,note_on,92,68,0
1,note_on,95,68,0
1,note_on,95,0,120
1,note_on,100,0,0
1,note_on,88,0,0
1,note_on,92,0,0
1,note_on,105,85,120
1,note_on,93,72,0
1,note_on,97,72,0
1,note_on,97,0,480
1,note_on,93,0,0
1,note_on,105,0,0
1,note_on,71,45,240
1,note_on,68,37,0
1,note_on,68,0,60
1,note_on,71,0,0
1,note_on,69,41,300
1,note_on,66,35,0
1,note_on,66,0,30
1,note_on,69,0,0
1,note_on,71,41,90
1,note_on,68,35,0
1,note_on,68,0,60
1,note_on,71,0,0
1,note_on,73,45,180
1,note_on,69,37,0
1,note_on,69,0,60
1,note_on,73,0,0
1,note_on,74,43,300
1,note_on,71,36,0
1,note_on,71,0,30
1,note_on,74,0,0
1,note_on,73,43,90
1,note_on,69,36,0
1,note_on,69,0,60
1,note_on,73,0,0
1,note_on,71,45,180
1,note_on,68,37,0
1,note_on,68,0,60
1,note_on,71,0,0
1,note_on,69,40,300
1,note_on,66,34,0
1,note_on,66,0,30
1,note_on,69,0,0
1,note_on,71,40,90
1,note_on,68,34,0
1,note_on,68,0,60
1,note_on,71,0,0
1,note_on,69,45,180
1,note_on,64,37,0
1,note_on,64,0,240
1,note_on,69,0,0
1,note_on,88,86,480
1,note_on,76,72,0
1,note_on,80,72,0
1,note_on,83,72,0
1,note_on,83,0,360
1,note_on,88,0,0
1,note_on,76,0,0
1,note_on,80,0,0
1,note_on,88,81,0
1,note_on,76,68,0
1,note_on,78,68,0
1,note_on,81,68,0
1,note_on,81,0,120
1,note_on,88,0,0
1,note_on,76,0,0
1,note_on,78,0,0
1,note_on,88,81,0
1,note_on,76,68,0
1,note_on,80,68,0
1,note_on,83,68,0
1,note_on,83,0,240
1,note_on,88,0,0
1,note_on,76,0,0
1,note_on,80,0,0
1,note_on,88,87,0
1,note_on,81,73,0
1,note_on,76,73,0
1,note_on,85,73,0
1,note_on,85,0,360
1,note_on,88,0,0
1,note_on,81,0,0
1,note_on,76,0,0
1,note_on,86,81,0
1,note_on,88,81,0
1,note_on,83,68,0
1,note_on,76,68,0
1,note_on,76,0,120
1,note_on,86,0,0
1,note_on,88,0,0
1,note_on,83,0,0
1,note_on,88,82,0
1,note_on,76,69,0
1,note_on,85,69,0
1,note_on,81,69,0
1,note_on,81,0,240
1,note_on,88,0,0
1,note_on,76,0,0
1,note_on,85,0,0
1,note_on,88,86,0
1,note_on,76,72,0
1,note_on,80,72,0
1,note_on,83,72,0
1,note_on,83,0,360
1,note_on,88,0,0
1,note_on,76,0,0
1,note_on,80,0,0
1,note_on,88,81,0
1,note_on,76,68,0
1,note_on,78,68,0
1,note_on,81,68,0
1,note_on,81,0,120
1,note_on,88,0,0
1,note_on,76,0,0
1,note_on,78,0,0
1,note_on,88,81,0
1,note_on,76,68,0
1,note_on,80,68,0
1,note_on,83,68,0
1,note_on,83,0,240
1,note_on,88,0,0
1,note_on,76,0,0
1,note_on,80,0,0
1,note_on,93,95,0
1,note_on,81,72,0
1,note_on,85,81,0
1,note_on,85,0,480
1,note_on,81,0,0
1,note_on,93,0,0
1,note_on,61,36,720
1,note_on,64,36,0
1,note_on,69,36,0
1,note_on,69,0,120
1,note_on,64,0,0
1,note_on,61,0,0
1,note_on,64,36,360
1,note_on,69,36,0
1,note_on,69,0,120
1,note_on,64,0,0
1,note_on,62,36,360
1,note_on,66,36,0
1,note_on,71,36,0
1,note_on,71,0,120
1,note_on,66,0,0
1,note_on,62,0,0
1,note_on,66,36,360
1,note_on,69,36,0
1,note_on,71,36,0
1,note_on,71,0,120
1,note_on,69,0,0
1,note_on,66,0,0
1,note_on,71,36,360
1,note_on,68,36,0
1,note_on,68,0,120
1,note_on,71,0,0
1,note_on,63,36,360
1,note_on,71,36,0
1,note_on,69,36,0
1,note_on,66,36,0
1,note_on,66,0,120
1,note_on,63,0,0
1,note_on,71,0,0
1,note_on,69,0,0
1,note_on,68,44,440
1,note_on,78,44,0
1,note_on,78,0,80
1,note_on,76,45,0
1,note_on,76,0,80
1,note_on,68,0,0
1,note_on,75,48,0
1,note_on,69,40,0
1,note_on,75,0,80
1,note_on,74,50,0
1,note_on,69,0,80
1,note_on,65,47,0
1,note_on,65,0,80
1,note_on,64,45,0
1,note_on,64,0,80
1,note_on,74,0,0
1,note_on,71,45,0
1,note_on,68,37,0
1,note_on,71,0,80
1,note_on,73,45,0
1,note_on,73,0,80
1,note_on,68,0,0
1,note_on,61,36,240
1,note_on,64,36,0
1,note_on,69,36,0
1,note_on,69,0,120
1,note_on,64,0,0
1,note_on,61,0,0
1,note_on,64,36,360
1,note_on,69,36,0
1,note_on,69,0,120
1,note_on,64,0,0
1,note_on,62,36,360
1,note_on,66,36,0
1,note_on,71,36,0
1,note_on,71,0,120
1,note_on,66,0,0
1,note_on,62,0,0
1,note_on,62,36,360
1,note_on,66,36,0
1,note_on,71,36,0
1,note_on,71,0,120
1,note_on,66,0,0
1,note_on,62,0,0
1,note_on,62,36,360
1,note_on,64,36,0
1,note_on,71,36,0
1,note_on,68,36,0
1,note_on,68,0,120
1,note_on,62,0,0
1,note_on,64,0,0
1,note_on,71,0,0
1,note_on,62,36,360
1,note_on,76,36,0
1,note_on,71,36,0
1,note_on,64,36,0
1,note_on,64,0,240
1,note_on,71,0,0
1,note_on,62,0,0
1,note_on,61,40,0
1,note_on,69,40,0
1,note_on,69,0,80
1,note_on,61,0,0
1,note_on,76,0,0
1,note_on,69,46,0
1,note_on,76,46,0
1,note_on,76,0,60
1,note_on,69,0,0
1,note_on,69,46,20
1,note_on,76,46,0
1,note_on,76,0,60
1,note_on,69,0,0
1,note_on,69,45,20
1,note_on,76,45,0
1,note_on,76,0,60
1,note_on,69,0,0
1,note_on,69,45,20
1,note_on,75,45,0
1,note_on,75,0,60
1,note_on,69,0,0
1,note_on,69,45,20
1,note_on,75,45,0
1,note_on,75,0,60
1,note_on,69,0,0
1,note_on,69,45,20
1,note_on,75,45,0
1,note_on,75,0,60
1,note_on,69,0,0
1,note_on,69,44,20
1,note_on,74,44,0
1,note_on,74,0,60
1,note_on,69,0,0
1,note_on,69,44,20
1,note_on,74,44,0
1,note_on,74,0,60
1,note_on,69,0,0
1,note_on,69,43,20
1,note_on,74,43,0
1,note_on,74,0,60
1,note_on,69,0,0
1,note_on,68,42,20
1,note_on,71,42,0
1,note_on,71,0,30
1,note_on,68,0,0
1,note_on,68,42,50
1,note_on,73,42,0
1,note_on,73,0,30
1,note_on,68,0,0
1,note_on,61,36,50
1,note_on,69,51,0
1,note_on,69,0,80
1,note_on,71,45,0
1,note_on,71,0,80
1,note_on,69,45,0
1,note_on,61,0,77
1,note_on,69,0,3
1,note_on,68,47,0
1,note_on,68,0,80
1,note_on,69,43,0
1,note_on,69,0,80
1,note_on,71,43,0
1,note_on,71,0,50
1,note_on,73,36,0
1,note_on,73,0,15
1,note_on,74,36,0
1,note_on,74,0,15
1,note_on,64,36,0
1,note_on,69,36,0
1,note_on,73,49,0
1,note_on,73,0,80
1,note_on,72,45,0
1,note_on,72,0,80
1,note_on,74,45,0
1,note_on,74,0,80
1,note_on,69,0,0
1,note_on,64,0,0
1,note_on,73,49,0
1,note_on,73,0,80
1,note_on,71,45,0
1,note_on,71,0,80
1,note_on,69,45,0
1,note_on,69,0,80
1,note_on,68,51,0
1,note_on,68,0,80
1,note_on,66,45,0
1,note_on,66,0,80
1,note_on,80,52,0
1,note_on,80,0,80
1,note_on,78,54,0
1,note_on,78,0,80
1,note_on,92,51,0
1,note_on,92,0,80
1,note_on,90,54,0
1,note_on,90,0,80
1,note_on,97,58,0
1,note_on,97,0,80
1,note_on,95,55,0
1,note_on,95,0,80
1,note_on,90,55,0
1,note_on,90,0,80
1,note_on,85,58,0
1,note_on,85,0,80
1,note_on,83,50,0
1,note_on,83,0,80
1,note_on,78,50,0
1,note_on,81,50,0
1,note_on,81,0,80
1,note_on,78,0,0
1,note_on,80,56,0
1,note_on,78,56,0
1,note_on,78,0,80
1,note_on,80,0,0
1,note_on,76,48,0
1,note_on,76,0,80
1,note_on,73,48,0
1,note_on,73,0,80
1,note_on,71,49,0
1,note_on,71,0,80
1,note_on,68,47,0
1,note_on,68,0,80
1,note_on,68,54,0
1,note_on,64,47,0
1,note_on,64,0,80
1,note_on,68,0,0
1,note_on,64,40,0
1,note_on,69,55,0
1,note_on,66,49,0
1,note_on,66,0,80
1,note_on,69,0,0
1,note_on,64,0,0
1,note_on,60,46,0
1,note_on,60,0,80
1,note_on,59,46,0
1,note_on,59,0,80
1,note_on,57,50,0
1,note_on,57,0,80
1,note_on,54,50,0
1,note_on,54,0,80
1,note_on,51,50,0
1,note_on,51,0,80
1,note_on,68,44,320
1,note_on,78,44,0
1,note_on,78,0,80
1,note_on,76,45,0
1,note_on,76,0,80
1,note_on,68,0,0
1,note_on,75,48,0
1,note_on,69,40,0
1,note_on,75,0,80
1,note_on,74,50,0
1,note_on,69,0,80
1,note_on,65,47,0
1,note_on,65,0,80
1,note_on,64,45,0
1,note_on,64,0,80
1,note_on,74,0,0
1,note_on,71,45,0
1,note_on,68,37,0
1,note_on,68,0,80
1,note_on,71,0,0
1,note_on,68,33,0
1,note_on,73,45,0
1,note_on,73,0,80
1,note_on,68,0,0
1,note_on,61,36,0
1,note_on,69,51,0
1,note_on,69,0,80
1,note_on,71,45,0
1,note_on,71,0,80
1,note_on,69,45,0
1,note_on,61,0,76
1,note_on,69,0,4
1,note_on,68,47,0
1,note_on,68,0,80
1,note_on,69,43,0
1,note_on,69,0,80
1,note_on,71,43,0
1,note_on,71,0,50
1,note_on,73,36,0
1,note_on,73,0,15
1,note_on,74,36,0
1,note_on,74,0,15
1,note_on,64,36,0
1,note_on,69,36,0
1,note_on,73,49,0
1,note_on,73,0,80
1,note_on,72,45,0
1,note_on,72,0,80
1,note_on,74,45,0
1,note_on,74,0,80
1,note_on,69,0,0
1,note_on,64,0,0
1,note_on,73,49,0
1,note_on,73,0,80
1,note_on,71,45,0
1,note_on,71,0,80
1,note_on,69,45,0
1,note_on,69,0,80
1,note_on,68,51,0
1,note_on,68,0,80
1,note_on,66,45,0
1,note_on,66,0,80
1,note_on,80,52,0
1,note_on,80,0,80
1,note_on,78,54,0
1,note_on,78,0,80
1,note_on,92,51,0
1,note_on,92,0,80
1,note_on,90,54,0
1,note_on,90,0,80
1,note_on,97,58,0
1,note_on,97,0,80
1,note_on,95,55,0
1,note_on,95,0,80
1,note_on,90,55,0
1,note_on,90,0,80
1,note_on,85,58,0
1,note_on,85,0,80
1,note_on,83,50,0
1,note_on,83,0,80
1,note_on,78,50,0
1,note_on,81,50,0
1,note_on,81,0,80
1,note_on,78,0,0
1,note_on,71,45,0
1,note_on,74,45,0
1,note_on,81,51,0
1,note_on,81,0,80
1,note_on,80,45,0
1,note_on,80,0,80
1,note_on,74,0,0
1,note_on,71,0,0
1,note_on,90,52,0
1,note_on,80,38,0
1,note_on,83,38,0
1,note_on,90,0,80
1,note_on,88,54,0
1,note_on,88,0,80
1,note_on,83,0,0
1,note_on,80,0,0
1,note_on,85,51,0
1,note_on,74,38,0
1,note_on,80,38,0
1,note_on,85,0,80
1,note_on,83,54,0
1,note_on,83,0,80
1,note_on,80,0,0
1,note_on,74,0,0
1,note_on,71,45,0
1,note_on,74,45,0
1,note_on,81,58,0
1,note_on,81,0,80
1,note_on,80,55,0
1,note_on,80,0,80
1,note_on,74,0,0
1,note_on,71,0,0
1,note_on,78,55,0
1,note_on,68,38,0
1,note_on,71,38,0
1,note_on,78,0,80
1,note_on,76,58,0
1,note_on,76,0,80
1,note_on,71,0,0
1,note_on,68,0,0
1,note_on,78,50,0
1,note_on,71,38,0
1,note_on,74,38,0
1,note_on,78,0,80
1,note_on,80,50,0
1,note_on,80,0,80
1,note_on,74,0,0
1,note_on,71,0,0
1,note_on,73,52,0
1,note_on,81,52,0
1,note_on,81,0,80
1,note_on,76,54,0
1,note_on,85,54,0
1,note_on,73,0,40
1,note_on,85,0,40
1,note_on,76,0,0
1,note_on,81,56,0
1,note_on,88,56,0
1,note_on,88,0,80
1,note_on,81,0,0
1,note_on,85,59,0
1,note_on,93,59,0
1,note_on,93,0,80
1,note_on,85,0,0
1,note_on,88,62,0
1,note_on,97,62,0
1,note_on,97,0,80
1,note_on,88,0,0
1,note_on,93,63,0
1,note_on,100,63,0
1,note_on,100,0,80
1,note_on,93,0,0
1,note_on,100,66,0
1,note_on,95,66,0
1,note_on,95,0,80
1,note_on,88,65,0
1,note_on,88,0,80
1,note_on,100,0,0
1,note_on,95,64,0
1,note_on,88,64,0
1,note_on,88,0,80
1,note_on,83,63,0
1,note_on,83,0,80
1,note_on,95,0,0
1,note_on,88,63,0
1,note_on,83,63,0
1,note_on,83,0,80
1,note_on,76,62,0
1,note_on,76,0,80
1,note_on,88,0,0
1,note_on,76,54,0
1,note_on,88,61,0
1,note_on,86,61,0
1,note_on,86,0,80
1,note_on,85,61,0
1,note_on,85,0,80
1,note_on,88,0,0
1,note_on,76,0,0
1,note_on,76,53,0
1,note_on,88,60,0
1,note_on,84,60,0
1,note_on,84,0,80
1,note_on,83,60,0
1,note_on,83,0,80
1,note_on,88,0,0
1,note_on,76,0,0
1,note_on,76,53,0
1,note_on,88,59,0
1,note_on,82,59,0
1,note_on,82,0,80
1,note_on,81,58,0
1,note_on,81,0,80
1,note_on,88,0,0
1,note_on,76,0,0
1,note_on,76,49,0
1,note_on,88,54,0
1,note_on,81,54,0
1,note_on,81,0,80
1,note_on,80,54,0
1,note_on,80,0,80
1,note_on,88,0,0
1,note_on,76,0,0
1,note_on,76,48,0
1,note_on,88,53,0
1,note_on,81,53,0
1,note_on,81,0,80
1,note_on,85,53,0
1,note_on,85,0,80
1,note_on,88,0,0
1,note_on,76,0,0
1,note_on,76,38,0
1,note_on,88,49,0
1,note_on,84,45,0
1,note_on,84,0,80
1,note_on,83,50,0
1,note_on,83,0,55
1,note_on,73,49,15
1,note_on,81,54,5
1,note_on,88,0,5
1,note_on,76,0,0
1,note_on,88,56,0
1,note_on,88,0,80
1,note_on,73,0,0
1,note_on,81,0,0
1,note_on,69,55,0
1,note_on,69,0,60
1,note_on,85,55,20
1,note_on,85,0,60
1,note_on,73,61,20
1,note_on,73,0,60
1,note_on,88,53,0
1,note_on,88,0,60
1,note_on,76,61,0
1,note_on,76,0,60
1,note_on,97,53,0
1,note_on,97,0,60
1,note_on,93,61,0
1,note_on,81,61,0
1,note_on,81,0,120
1,note_on,93,0,0
1,note_on,51,57,120
1,note_on,51,0,80
1,note_on,52,53,0
1,note_on,52,0,80
1,note_on,61,53,0
1,note_on,57,45,0
1,note_on,57,0,80
1,note_on,61,0,0
1,note_on,59,58,0
1,note_on,56,49,0
1,note_on,56,0,80
1,note_on,59,0,0
1,note_on,56,50,0
1,note_on,52,42,0
1,note_on,52,0,80
1,note_on,56,0,0
1,note_on,57,50,0
1,note_on,54,42,0
1,note_on,54,0,80
1,note_on,57,0,0
1,note_on,59,52,0
1,note_on,56,44,0
1,note_on,56,0,80
1,note_on,59,0,0
1,note_on,61,52,0
1,note_on,57,44,0
1,note_on,57,0,80
1,note_on,61,0,0
1,note_on,63,54,0
1,note_on,59,45,0
1,note_on,59,0,80
1,note_on,63,0,0
1,note_on,64,58,0
1,note_on,61,49,0
1,note_on,61,0,80
1,note_on,64,0,0
1,note_on,63,54,0
1,note_on,60,45,0
1,note_on,60,0,80
1,note_on,63,0,0
1,note_on,66,54,0
1,note_on,63,45,0
1,note_on,63,0,80
1,note_on,66,0,0
1,note_on,64,54,0
1,note_on,61,45,0
1,note_on,61,0,80
1,note_on,64,0,0
1,note_on,63,54,0
1,note_on,59,45,0
1,note_on,59,0,80
1,note_on,63,0,0
1,note_on,61,54,0
1,note_on,57,45,0
1,note_on,57,0,80
1,note_on,61,0,0
1,note_on,58,59,0
1,note_on,55,50,0
1,note_on,55,0,80
1,note_on,58,0,0
1,note_on,59,51,0
1,note_on,56,43,0
1,note_on,56,0,80
1,note_on,59,0,0
1,note_on,56,51,0
1,note_on,52,43,0
1,note_on,52,0,80
1,note_on,56,0,0
1,note_on,59,53,0
1,note_on,56,45,0
1,note_on,56,0,80
1,note_on,59,0,0
1,note_on,64,50,0
1,note_on,59,42,0
1,note_on,59,0,80
1,note_on,64,0,0
1,note_on,68,50,0
1,note_on,68,0,80
1,note_on,71,53,0
1,note_on,71,0,80
1,note_on,76,54,0
1,note_on,71,45,0
1,note_on,71,0,80
1,note_on,76,0,0
1,note_on,80,55,0
1,note_on,76,46,0
1,note_on,76,0,80
1,note_on,80,0,0
1,note_on,83,58,0
1,note_on,80,49,0
1,note_on,80,0,40
1,note_on,83,0,0
1,note_on,83,54,40
1,note_on,80,45,0
1,note_on,80,0,40
1,note_on,83,0,0
1,note_on,83,54,40
1,note_on,80,45,0
1,note_on,80,0,40
1,note_on,83,0,0
1,note_on,83,58,40
1,note_on,80,49,0
1,note_on,80,0,40
1,note_on,83,0,0
1,note_on,83,54,40
1,note_on,80,45,0
1,note_on,80,0,40
1,note_on,83,0,0
1,note_on,83,54,40
1,note_on,80,45,0
1,note_on,80,0,40
1,note_on,83,0,0
1,note_on,83,56,40
1,note_on,80,47,0
1,note_on,80,0,80
1,note_on,83,0,0
1,note_on,85,54,0
1,note_on,81,45,0
1,note_on,81,0,80
1,note_on,85,0,0
1,note_on,83,54,0
1,note_on,80,45,0
1,note_on,80,0,40
1,note_on,83,0,0
1,note_on,82,58,40
1,note_on,79,49,0
1,note_on,79,0,80
1,note_on,82,0,0
1,note_on,83,54,0
1,note_on,80,45,0
1,note_on,80,0,80
1,note_on,83,0,0
1,note_on,82,54,0
1,note_on,79,45,0
1,note_on,79,0,40
1,note_on,82,0,0
1,note_on,81,57,40
1,note_on,78,48,0
1,note_on,78,0,80
1,note_on,81,0,0
1,note_on,83,54,0
1,note_on,80,45,0
1,note_on,80,0,80
1,note_on,83,0,0
1,note_on,81,54,0
1,note_on,78,45,0
1,note_on,78,0,80
1,note_on,81,0,0
1,note_on,80,57,0
1,note_on,76,48,0
1,note_on,76,0,80
1,note_on,80,0,0
1,note_on,95,58,0
1,note_on,92,49,0
1,note_on,92,0,80
1,note_on,95,0,0
1,note_on,93,55,0
1,note_on,90,46,0
1,note_on,90,0,80
1,note_on,93,0,0
1,note_on,92,54,0
1,note_on,88,45,0
1,note_on,88,0,80
1,note_on,92,0,0
1,note_on,83,54,0
1,note_on,80,45,0
1,note_on,80,0,80
1,note_on,83,0,0
1,note_on,81,52,0
1,note_on,78,44,0
1,note_on,78,0,80
1,note_on,81,0,0
1,note_on,71,53,80
1,note_on,68,45,0
1,note_on,68,0,80
1,note_on,71,0,0
1,note_on,69,53,0
1,note_on,66,45,0
1,note_on,66,0,80
1,note_on,69,0,0
1,note_on,68,53,0
1,note_on,64,45,0
1,note_on,64,0,80
1,note_on,68,0,0
1,note_on,56,54,0
1,note_on,52,45,0
1,note_on,52,0,60
1,note_on,56,0,0
1,note_on,57,54,20
1,note_on,54,45,0
1,note_on,54,0,60
1,note_on,57,0,0
1,note_on,59,58,20
1,note_on,56,49,0
1,note_on,56,0,80
1,note_on,59,0,0
1,note_on,56,50,0
1,note_on,52,42,0
1,note_on,52,0,80
1,note_on,56,0,0
1,note_on,57,50,0
1,note_on,54,42,0
1,note_on,54,0,80
1,note_on,57,0,0
1,note_on,59,52,0
1,note_on,56,44,0
1,note_on,56,0,80
1,note_on,59,0,0
1,note_on,61,52,0
1,note_on,57,44,0
1,note_on,57,0,80
1,note_on,61,0,0
1,note_on,63,54,0
1,note_on,59,45,0
1,note_on,59,0,80
1,note_on,63,0,0
1,note_on,64,58,0
1,note_on,61,49,0
1,note_on,61,0,80
1,note_on,64,0,0
1,note_on,63,54,0
1,note_on,60,45,0
1,note_on,60,0,80
1,note_on,63,0,0
1,note_on,66,54,0
1,note_on,63,45,0
1,note_on,63,0,80
1,note_on,66,0,0
1,note_on,64,54,0
1,note_on,61,45,0
1,note_on,61,0,80
1,note_on,64,0,0
1,note_on,63,54,0
1,note_on,59,45,0
1,note_on,59,0,80
1,note_on,63,0,0
1,note_on,61,54,0
1,note_on,57,45,0
1,note_on,57,0,80
1,note_on,61,0,0
1,note_on,58,59,0
1,note_on,55,50,0
1,note_on,55,0,80
1,note_on,58,0,0
1,note_on,59,51,0
1,note_on,56,43,0
1,note_on,56,0,80
1,note_on,59,0,0
1,note_on,56,51,0
1,note_on,52,43,0
1,note_on,52,0,80
1,note_on,56,0,0
1,note_on,59,53,0
1,note_on,56,45,0
1,note_on,56,0,80
1,note_on,59,0,0
1,note_on,64,50,0
1,note_on,59,42,0
1,note_on,59,0,80
1,note_on,64,0,0
1,note_on,68,50,0
1,note_on,68,0,80
1,note_on,71,53,0
1,note_on,71,0,80
1,note_on,76,54,0
1,note_on,71,45,0
1,note_on,71,0,80
1,note_on,76,0,0
1,note_on,80,55,0
1,note_on,76,46,0
1,note_on,76,0,80
1,note_on,80,0,0
1,note_on,83,58,0
1,note_on,80,49,0
1,note_on,80,0,40
1,note_on,83,0,0
1,note_on,83,54,40
1,note_on,80,45,0
1,note_on,80,0,40
1,note_on,83,0,0
1,note_on,83,54,40
1,note_on,80,45,0
1,note_on,80,0,40
1,note_on,83,0,0
1,note_on,83,58,40
1,note_on,80,49,0
1,note_on,80,0,40
1,note_on,83,0,0
1,note_on,83,54,40
1,note_on,80,45,0
1,note_on,80,0,40
1,note_on,83,0,0
1,note_on,83,54,40
1,note_on,80,45,0
1,note_on,80,0,40
1,note_on,83,0,0
1,note_on,83,56,40
1,note_on,80,47,0
1,note_on,80,0,80
1,note_on,83,0,0
1,note_on,85,54,0
1,note_on,81,45,0
1,note_on,81,0,80
1,note_on,85,0,0
1,note_on,83,54,0
1,note_on,80,45,0
1,note_on,80,0,40
1,note_on,83,0,0
1,note_on,82,58,40
1,note_on,79,49,0
1,note_on,79,0,80
1,note_on,82,0,0
1,note_on,83,54,0
1,note_on,80,45,0
1,note_on,80,0,80
1,note_on,83,0,0
1,note_on,82,54,0
1,note_on,79,45,0
1,note_on,79,0,40
1,note_on,82,0,0
1,note_on,81,57,40
1,note_on,78,48,0
1,note_on,78,0,80
1,note_on,81,0,0
1,note_on,83,54,0
1,note_on,80,45,0
1,note_on,80,0,80
1,note_on,83,0,0
1,note_on,81,54,0
1,note_on,78,45,0
1,note_on,78,0,40
1,note_on,81,0,0
1,note_on,80,52,40
1,note_on,76,44,0
1,note_on,76,0,40
1,note_on,80,0,0
1,note_on,83,41,40
1,note_on,95,49,0
1,note_on,92,41,0
1,note_on,92,0,40
1,note_on,95,0,0
1,note_on,83,0,40
1,note_on,83,42,0
1,note_on,95,50,0
1,note_on,92,42,0
1,note_on,92,0,40
1,note_on,95,0,0
1,note_on,83,0,40
1,note_on,83,45,0
1,note_on,95,54,0
1,note_on,92,45,0
1,note_on,92,0,80
1,note_on,95,0,0
1,note_on,83,0,0
1,note_on,85,44,0
1,note_on,97,52,0
1,note_on,93,44,0
1,note_on,93,0,80
1,note_on,97,0,0
1,note_on,85,0,0
1,note_on,83,45,0
1,note_on,95,54,0
1,note_on,92,45,0
1,note_on,92,0,40
1,note_on,95,0,0
1,note_on,83,0,0
1,note_on,82,49,40
1,note_on,94,58,0
1,note_on,91,49,0
1,note_on,91,0,80
1,note_on,94,0,0
1,note_on,82,0,0
1,note_on,83,44,0
1,note_on,95,52,0
1,note_on,92,44,0
1,note_on,92,0,80
1,note_on,95,0,0
1,note_on,83,0,0
1,note_on,82,46,0
1,note_on,94,51,0
1,note_on,91,43,0
1,note_on,91,0,40
1,note_on,94,0,0
1,note_on,82,0,0
1,note_on,81,45,40
1,note_on,93,54,0
1,note_on,90,45,0
1,note_on,90,0,80
1,note_on,93,0,0
1,note_on,81,0,0
1,note_on,83,41,0
1,note_on,95,49,0
1,note_on,92,41,0
1,note_on,92,0,80
1,note_on,95,0,0
1,note_on,83,0,0
1,note_on,93,49,0
1,note_on,81,41,0
1,note_on,90,41,0
1,note_on,90,0,40
1,note_on,81,0,0
1,note_on,93,0,0
1,note_on,80,44,40
1,note_on,92,52,0
1,note_on,88,44,0
1,note_on,88,0,40
1,note_on,92,0,0
1,note_on,80,0,0
1,note_on,83,41,40
1,note_on,95,49,0
1,note_on,92,41,0
1,note_on,92,0,40
1,note_on,95,0,0
1,note_on,83,0,40
1,note_on,83,42,0
1,note_on,95,50,0
1,note_on,92,42,0
1,note_on,92,0,40
1,note_on,95,0,0
1,note_on,83,0,40
1,note_on,83,45,0
1,note_on,95,54,0
1,note_on,92,45,0
1,note_on,92,0,80
1,note_on,95,0,0
1,note_on,83,0,0
1,note_on,85,44,0
1,note_on,97,52,0
1,note_on,93,44,0
1,note_on,93,0,80
1,note_on,97,0,0
1,note_on,85,0,0
1,note_on,83,45,0
1,note_on,95,54,0
1,note_on,92,45,0
1,note_on,92,0,40
1,note_on,95,0,0
1,note_on,83,0,0
1,note_on,82,49,40
1,note_on,94,58,0
1,note_on,91,49,0
1,note_on,91,0,80
1,note_on,94,0,0
1,note_on,82,0,0
1,note_on,83,44,0
1,note_on,95,52,0
1,note_on,92,44,0
1,note_on,92,0,80
1,note_on,95,0,0
1,note_on,83,0,0
1,note_on,82,46,0
1,note_on,94,51,0
1,note_on,91,43,0
1,note_on,91,0,40
1,note_on,94,0,0
1,note_on,82,0,0
1,note_on,81,45,40
1,note_on,93,54,0
1,note_on,90,45,0
1,note_on,90,0,80
1,note_on,93,0,0
1,note_on,81,0,0
1,note_on,83,41,0
1,note_on,95,49,0
1,note_on,92,41,0
1,note_on,92,0,80
1,note_on,95,0,0
1,note_on,83,0,0
1,note_on,93,49,0
1,note_on,81,41,0
1,note_on,90,41,0
1,note_on,90,0,40
1,note_on,81,0,0
1,note_on,93,0,0
1,note_on,92,52,40
1,note_on,80,44,0
1,note_on,88,44,0
1,note_on,88,0,80
1,note_on,80,0,0
1,note_on,92,0,0
1,note_on,56,48,80
1,note_on,56,0,80
1,note_on,56,54,0
1,note_on,56,0,80
1,note_on,55,48,0
1,note_on,55,0,80
1,note_on,54,46,0
1,note_on,54,0,80
1,note_on,53,52,0
1,note_on,53,0,80
1,note_on,52,49,0
1,note_on,52,0,80
1,note_on,56,43,0
1,note_on,59,49,0
1,note_on,59,0,80
1,note_on,56,0,0
1,note_on,55,45,0
1,note_on,58,52,0
1,note_on,58,0,80
1,note_on,55,0,0
1,note_on,54,44,0
1,note_on,57,50,0
1,note_on,57,0,80
1,note_on,54,0,0
1,note_on,52,44,0
1,note_on,56,50,0
1,note_on,56,0,80
1,note_on,52,0,0
1,note_on,62,58,0
1,note_on,59,58,0
1,note_on,59,0,80
1,note_on,62,0,0
1,note_on,61,57,0
1,note_on,58,50,0
1,note_on,58,0,80
1,note_on,61,0,0
1,note_on,60,55,0
1,note_on,57,48,0
1,note_on,57,0,80
1,note_on,60,0,0
1,note_on,56,46,0
1,note_on,59,54,0
1,note_on,59,0,80
1,note_on,56,0,0
1,note_on,68,50,320
1,note_on,71,57,0
1,note_on,71,0,80
1,note_on,68,0,0
1,note_on,67,47,0
1,note_on,70,54,0
1,note_on,70,0,80
1,note_on,67,0,0
1,note_on,66,45,0
1,note_on,69,53,0
1,note_on,69,0,80
1,note_on,66,0,0
1,note_on,64,43,0
1,note_on,68,50,0
1,note_on,68,0,80
1,note_on,64,0,0
1,note_on,78,57,320
1,note_on,74,50,0
1,note_on,74,0,80
1,note_on,78,0,0
1,note_on,76,55,0
1,note_on,73,55,0
1,note_on,73,0,80
1,note_on,76,0,0
1,note_on,75,54,0
1,note_on,72,46,0
1,note_on,72,0,80
1,note_on,75,0,0
1,note_on,74,52,0
1,note_on,71,45,0
1,note_on,71,0,80
1,note_on,74,0,0
1,note_on,86,61,320
1,note_on,83,54,0
1,note_on,83,0,80
1,note_on,86,0,0
1,note_on,85,59,0
1,note_on,82,52,0
1,note_on,82,0,80
1,note_on,85,0,0
1,note_on,84,57,0
1,note_on,81,50,0
1,note_on,81,0,80
1,note_on,84,0,0
1,note_on,83,55,0
1,note_on,80,48,0
1,note_on,80,0,80
1,note_on,83,0,0
1,note_on,95,64,320
1,note_on,92,57,0
1,note_on,92,0,80
1,note_on,95,0,0
1,note_on,94,62,0
1,note_on,91,54,0
1,note_on,91,0,80
1,note_on,94,0,0
1,note_on,93,59,0
1,note_on,90,52,0
1,note_on,90,0,80
1,note_on,93,0,0
1,note_on,92,57,0
1,note_on,88,50,0
1,note_on,88,0,80
1,note_on,92,0,0
1,note_on,98,65,0
1,note_on,93,65,0
1,note_on,90,51,0
1,note_on,90,0,80
1,note_on,93,0,0
1,note_on,98,0,0
1,note_on,97,65,0
1,note_on,92,51,0
1,note_on,89,51,0
1,note_on,89,0,80
1,note_on,92,0,0
1,note_on,97,0,0
1,note_on,96,64,0
1,note_on,91,51,0
1,note_on,88,51,0
1,note_on,88,0,80
1,note_on,91,0,0
1,note_on,96,0,0
1,note_on,95,64,0
1,note_on,90,51,0
1,note_on,87,51,0
1,note_on,87,0,80
1,note_on,90,0,0
1,note_on,95,0,0
1,note_on,94,63,0
1,note_on,89,51,0
1,note_on,86,51,0
1,note_on,86,0,80
1,note_on,89,0,0
1,note_on,94,0,0
1,note_on,93,63,0
1,note_on,88,50,0
1,note_on,85,50,0
1,note_on,85,0,80
1,note_on,88,0,0
1,note_on,93,0,0
1,note_on,87,63,0
1,note_on,92,63,0
1,note_on,84,50,0
1,note_on,84,0,80
1,note_on,92,0,0
1,note_on,87,0,0
1,note_on,91,62,0
1,note_on,83,49,0
1,note_on,86,49,0
1,note_on,86,0,80
1,note_on,83,0,0
1,note_on,91,0,0
1,note_on,90,62,0
1,note_on,82,49,0
1,note_on,85,49,0
1,note_on,85,0,80
1,note_on,82,0,0
1,note_on,90,0,0
1,note_on,89,61,0
1,note_on,81,48,0
1,note_on,84,48,0
1,note_on,84,0,80
1,note_on,81,0,0
1,note_on,89,0,0
1,note_on,88,60,0
1,note_on,80,47,0
1,note_on,83,47,0
1,note_on,83,0,80
1,note_on,80,0,0
1,note_on,88,0,0
1,note_on,87,60,0
1,note_on,79,47,0
1,note_on,82,47,0
1,note_on,82,0,80
1,note_on,79,0,0
1,note_on,87,0,0
1,note_on,86,59,0
1,note_on,81,59,0
1,note_on,78,47,0
1,note_on,78,0,80
1,note_on,81,0,0
1,note_on,86,0,0
1,note_on,85,59,0
1,note_on,80,47,0
1,note_on,77,47,0
1,note_on,77,0,80
1,note_on,80,0,0
1,note_on,85,0,0
1,note_on,84,58,0
1,note_on,79,46,0
1,note_on,76,46,0
1,note_on,76,0,80
1,note_on,79,0,0
1,note_on,84,0,0
1,note_on,83,57,0
1,note_on,78,45,0
1,note_on,75,45,0
1,note_on,75,0,80
1,note_on,78,0,0
1,note_on,83,0,0
1,note_on,82,57,0
1,note_on,77,45,0
1,note_on,74,45,0
1,note_on,74,0,80
1,note_on,77,0,0
1,note_on,82,0,0
1,note_on,81,56,0
1,note_on,76,45,0
1,note_on,73,45,0
1,note_on,73,0,80
1,note_on,76,0,0
1,note_on,81,0,0
1,note_on,80,56,0
1,note_on,72,45,0
1,note_on,75,45,0
1,note_on,75,0,80
1,note_on,72,0,0
1,note_on,80,0,0
1,note_on,79,55,0
1,note_on,71,44,0
1,note_on,74,44,0
1,note_on,74,0,80
1,note_on,71,0,0
1,note_on,79,0,0
1,note_on,78,55,0
1,note_on,70,44,0
1,note_on,73,44,0
1,note_on,73,0,80
1,note_on,70,0,0
1,note_on,78,0,0
1,note_on,77,54,0
1,note_on,69,44,0
1,note_on,72,44,0
1,note_on,72,0,80
1,note_on,69,0,0
1,note_on,77,0,0
1,note_on,76,54,0
1,note_on,68,43,0
1,note_on,71,43,0
1,note_on,71,0,80
1,note_on,68,0,0
1,note_on,76,0,0
1,note_on,75,54,0
1,note_on,67,43,0
1,note_on,70,43,0
1,note_on,70,0,80
1,note_on,67,0,0
1,note_on,75,0,0
1,note_on,74,63,0
1,note_on,66,53,0
1,note_on,69,53,0
1,note_on,69,0,60
1,note_on,66,0,0
1,note_on,74,0,0
1,note_on,74,58,20
1,note_on,65,48,0
1,note_on,69,48,0
1,note_on,69,0,60
1,note_on,65,0,0
1,note_on,74,0,0
1,note_on,74,58,20
1,note_on,65,49,0
1,note_on,69,49,0
1,note_on,69,0,60
1,note_on,65,0,0
1,note_on,74,0,0
1,note_on,74,63,20
1,note_on,65,54,0
1,note_on,69,54,0
1,note_on,69,0,60
1,note_on,65,0,0
1,note_on,74,0,0
1,note_on,73,60,20
1,note_on,64,50,0
1,note_on,69,50,0
1,note_on,69,0,60
1,note_on,64,0,0
1,note_on,73,0,0
1,note_on,73,61,20
1,note_on,64,51,0
1,note_on,69,51,0
1,note_on,69,0,60
1,note_on,64,0,0
1,note_on,73,0,0
1,note_on,73,66,20
1,note_on,64,55,0
1,note_on,69,55,0
1,note_on,69,0,60
1,note_on,64,0,0
1,note_on,73,0,0
1,note_on,78,61,20
1,note_on,63,51,0
1,note_on,69,51,0
1,note_on,72,51,0
1,note_on,72,0,60
1,note_on,78,0,0
1,note_on,63,0,0
1,note_on,69,0,0
1,note_on,78,61,20
1,note_on,63,51,0
1,note_on,69,51,0
1,note_on,72,51,0
1,note_on,72,0,60
1,note_on,78,0,0
1,note_on,63,0,0
1,note_on,69,0,0
1,note_on,78,66,20
1,note_on,63,55,0
1,note_on,69,55,0
1,note_on,72,55,0
1,note_on,72,0,60
1,note_on,78,0,0
1,note_on,63,0,0
1,note_on,69,0,0
1,note_on,78,61,20
1,note_on,62,51,0
1,note_on,68,51,0
1,note_on,71,51,0
1,note_on,71,0,60
1,note_on,78,0,0
1,note_on,62,0,0
1,note_on,68,0,0
1,note_on,78,61,20
1,note_on,62,51,0
1,note_on,68,51,0
1,note_on,71,51,0
1,note_on,71,0,60
1,note_on,78,0,0
1,note_on,62,0,0
1,note_on,68,0,0
1,note_on,78,65,20
1,note_on,62,55,0
1,note_on,68,55,0
1,note_on,71,55,0
1,note_on,71,0,120
1,note_on,78,0,0
1,note_on,62,0,0
1,note_on,68,0,0
1,note_on,77,63,0
1,note_on,61,54,0
1,note_on,68,54,0
1,note_on,71,54,0
1,note_on,71,0,240
1,note_on,77,0,0
1,note_on,61,0,0
1,note_on,68,0,0
1,note_on,76,62,0
1,note_on,58,52,0
1,note_on,67,52,0
1,note_on,73,52,0
1,note_on,73,0,240
1,note_on,76,0,0
1,note_on,58,0,0
1,note_on,67,0,0
1,note_on,75,59,0
1,note_on,59,50,0
1,note_on,66,50,0
1,note_on,71,50,0
1,note_on,71,0,240
1,note_on,75,0,0
1,note_on,59,0,0
1,note_on,66,0,0
1,note_on,74,55,0
1,note_on,57,46,0
1,note_on,62,46,0
1,note_on,66,46,0
1,note_on,72,46,0
1,note_on,72,0,240
1,note_on,62,0,0
1,note_on,74,0,0
1,note_on,57,0,0
1,note_on,66,0,0
1,note_on,74,52,0
1,note_on,67,44,0
1,note_on,72,44,0
1,note_on,72,0,240
1,note_on,67,0,0
1,note_on,74,0,0
1,note_on,74,41,0
1,note_on,67,35,0
1,note_on,71,35,0
1,note_on,71,0,120
1,note_on,67,0,0
1,note_on,74,0,0
1,note_on,74,36,120
1,note_on,67,30,0
1,note_on,67,0,120
1,note_on,74,0,0
1,note_on,79,36,0
1,note_on,67,30,0
1,note_on,67,0,120
1,note_on,79,0,0
1,note_on,74,36,0
1,note_on,67,30,0
1,note_on,67,0,120
1,note_on,74,0,0
1,note_on,79,40,0
1,note_on,67,34,0
1,note_on,67,0,120
1,note_on,79,0,0
1,note_on,64,35,360
1,note_on,62,33,0
1,note_on,68,37,0
1,note_on,68,0,40
1,note_on,68,37,0
1,note_on,68,0,40
1,note_on,69,40,0
1,note_on,69,0,40
1,note_on,68,36,0
1,note_on,68,0,40
1,note_on,66,36,0
1,note_on,66,0,40
1,note_on,68,36,0
1,note_on,68,0,40
1,note_on,71,40,0
1,note_on,71,0,80
1,note_on,71,38,0
1,note_on,71,0,120
1,note_on,72,37,0
1,note_on,72,0,40
1,note_on,62,0,0
1,note_on,64,0,0
1,note_on,73,45,240
1,note_on,61,38,0
1,note_on,64,38,0
1,note_on,64,0,120
1,note_on,68,43,0
1,note_on,62,36,0
1,note_on,64,36,0
1,note_on,61,0,10
1,note_on,73,0,0
1,note_on,62,0,110
1,note_on,68,0,0
1,note_on,64,0,0
1,note_on,69,46,240
1,note_on,64,39,0
1,note_on,69,0,120
1,note_on,73,44,0
1,note_on,69,36,0
1,note_on,69,0,120
1,note_on,73,0,0
1,note_on,64,0,0
1,note_on,78,57,120
1,note_on,70,55,0
1,note_on,64,58,0
1,note_on,71,45,240
1,note_on,62,37,0
1,note_on,64,0,10
1,note_on,78,0,0
1,note_on,70,0,0
1,note_on,71,0,110
1,note_on,62,0,0
1,note_on,71,38,240
1,note_on,63,32,0
1,note_on,66,32,0
1,note_on,66,0,120
1,note_on,63,0,0
1,note_on,71,0,0
1,note_on,71,38,0
1,note_on,63,32,0
1,note_on,66,32,0
1,note_on,66,0,120
1,note_on,63,0,0
1,note_on,71,0,0
1,note_on,76,58,0
1,note_on,64,47,0
1,note_on,71,47,0
1,note_on,64,0,360
1,note_on,68,46,0
1,note_on,64,39,0
1,note_on,71,0,10
1,note_on,76,0,0
1,note_on,68,0,110
1,note_on,64,0,0
1,note_on,72,52,120
1,note_on,64,44,0
1,note_on,57,44,0
1,note_on,57,0,240
1,note_on,71,43,0
1,note_on,57,36,0
1,note_on,63,36,0
1,note_on,64,0,10
1,note_on,72,0,0
1,note_on,57,0,110
1,note_on,71,0,0
1,note_on,63,0,0
1,note_on,88,63,560
1,note_on,80,53,0
1,note_on,76,53,0
1,note_on,76,0,30
1,note_on,80,0,0
1,note_on,88,0,0
1,note_on,87,54,50
1,note_on,81,45,0
1,note_on,75,45,0
1,note_on,75,0,30
1,note_on,81,0,0
1,note_on,87,0,0
1,note_on,86,62,50
1,note_on,81,51,0
1,note_on,74,51,0
1,note_on,74,0,30
1,note_on,81,0,0
1,note_on,86,0,0
1,note_on,86,54,50
1,note_on,77,45,0
1,note_on,74,45,0
1,note_on,74,0,30
1,note_on,77,0,0
1,note_on,86,0,0
1,note_on,83,54,50
1,note_on,76,45,0
1,note_on,71,45,0
1,note_on,71,0,30
1,note_on,76,0,0
1,note_on,83,0,0
1,note_on,73,45,290
1,note_on,61,38,0
1,note_on,64,38,0
1,note_on,64,0,120
1,note_on,68,43,0
1,note_on,62,36,0
1,note_on,64,36,0
1,note_on,61,0,10
1,note_on,73,0,0
1,note_on,62,0,110
1,note_on,68,0,0
1,note_on,64,0,0
1,note_on,69,46,240
1,note_on,64,39,0
1,note_on,64,0,120
1,note_on,69,0,0
1,note_on,73,44,0
1,note_on,64,36,0
1,note_on,69,36,0
1,note_on,69,0,120
1,note_on,64,0,0
1,note_on,73,0,0
1,note_on,62,48,240
1,note_on,69,48,0
1,note_on,74,54,0
1,note_on,74,0,120
1,note_on,69,0,0
1,note_on,62,0,0
1,note_on,86,54,200
1,note_on,74,45,0
1,note_on,74,0,40
1,note_on,86,0,0
1,note_on,86,54,40
1,note_on,74,45,0
1,note_on,74,0,40
1,note_on,86,0,0
1,note_on,86,56,40
1,note_on,74,47,0
1,note_on,74,0,40
1,note_on,86,0,0
1,note_on,86,53,40
1,note_on,74,45,0
1,note_on,74,0,40
1,note_on,86,0,0
1,note_on,86,54,40
1,note_on,74,45,0
1,note_on,74,0,40
1,note_on,86,0,0
1,note_on,86,56,40
1,note_on,74,47,0
1,note_on,74,0,80
1,note_on,86,0,0
1,note_on,80,53,0
1,note_on,68,45,0
1,note_on,68,0,40
1,note_on,80,0,0
1,note_on,80,53,40
1,note_on,68,45,0
1,note_on,68,0,40
1,note_on,80,0,0
1,note_on,80,53,40
1,note_on,68,45,0
1,note_on,68,0,40
1,note_on,80,0,0
1,note_on,80,53,40
1,note_on,68,45,0
1,note_on,68,0,40
1,note_on,80,0,0
1,note_on,80,52,40
1,note_on,68,44,0
1,note_on,68,0,40
1,note_on,80,0,0
1,note_on,80,51,40
1,note_on,68,43,0
1,note_on,68,0,40
1,note_on,80,0,0
1,note_on,80,51,40
1,note_on,68,43,0
1,note_on,68,0,40
1,note_on,80,0,0
1,note_on,80,50,40
1,note_on,68,42,0
1,note_on,68,0,40
1,note_on,80,0,0
1,note_on,80,49,40
1,note_on,68,41,0
1,note_on,68,0,80
1,note_on,80,0,0
1,note_on,81,48,0
1,note_on,69,40,0
1,note_on,69,0,80
1,note_on,81,0,0
1,note_on,83,47,0
1,note_on,71,40,0
1,note_on,71,0,80
1,note_on,83,0,0
1,note_on,73,45,240
1,note_on,61,38,0
1,note_on,64,38,0
1,note_on,64,0,120
1,note_on,68,43,0
1,note_on,62,36,0
1,note_on,64,36,0
1,note_on,61,0,10
1,note_on,73,0,0
1,note_on,62,0,110
1,note_on,68,0,0
1,note_on,64,0,0
1,note_on,69,46,240
1,note_on,64,39,0
1,note_on,69,0,120
1,note_on,73,44,0
1,note_on,69,36,0
1,note_on,69,0,120
1,note_on,73,0,0
1,note_on,64,0,0
1,note_on,62,48,210
1,note_on,69,48,15
1,note_on,78,54,15
1,note_on,78,0,120
1,note_on,69,0,0
1,note_on,62,0,0
1,note_on,90,45,180
1,note_on,78,37,0
1,note_on,78,0,40
1,note_on,90,0,0
1,note_on,90,46,20
1,note_on,78,39,0
1,note_on,78,0,40
1,note_on,90,0,0
1,note_on,90,47,20
1,note_on,78,40,0
1,note_on,78,0,40
1,note_on,90,0,0
1,note_on,90,49,20
1,note_on,78,41,0
1,note_on,78,0,40
1,note_on,90,0,0
1,note_on,90,51,20
1,note_on,78,43,0
1,note_on,78,0,40
1,note_on,90,0,0
1,note_on,90,52,20
1,note_on,78,44,0
1,note_on,78,0,40
1,note_on,90,0,0
1,note_on,90,54,20
1,note_on,78,45,0
1,note_on,78,0,40
1,note_on,90,0,0
1,note_on,90,55,20
1,note_on,78,55,0
1,note_on,78,0,60
1,note_on,90,0,0
1,note_on,80,47,0
1,note_on,68,40,0
1,note_on,68,0,40
1,note_on,80,0,0
1,note_on,80,47,20
1,note_on,68,40,0
1,note_on,68,0,40
1,note_on,80,0,0
1,note_on,80,47,20
1,note_on,68,40,0
1,note_on,68,0,40
1,note_on,80,0,0
1,note_on,80,47,20
1,note_on,68,40,0
1,note_on,68,0,36
1,note_on,80,0,0
1,note_on,80,47,12
1,note_on,68,40,0
1,note_on,68,0,36
1,note_on,80,0,0
1,note_on,80,47,12
1,note_on,68,40,0
1,note_on,68,0,36
1,note_on,80,0,0
1,note_on,80,48,12
1,note_on,68,40,0
1,note_on,68,0,36
1,note_on,80,0,0
1,note_on,80,48,12
1,note_on,68,40,0
1,note_on,68,0,36
1,note_on,80,0,0
1,note_on,80,47,12
1,note_on,68,40,0
1,note_on,68,0,48
1,note_on,80,0,0
1,note_on,81,48,0
1,note_on,69,40,0
1,note_on,69,0,48
1,note_on,81,0,0
1,note_on,82,49,0
1,note_on,70,41,0
1,note_on,70,0,48
1,note_on,82,0,0
1,note_on,83,50,0
1,note_on,71,42,0
1,note_on,71,0,48
1,note_on,83,0,0
1,note_on,84,51,0
1,note_on,72,43,0
1,note_on,72,0,48
1,note_on,84,0,0
1,note_on,85,53,0
1,note_on,73,45,0
1,note_on,73,0,48
1,note_on,85,0,0
1,note_on,86,54,0
1,note_on,74,45,0
1,note_on,74,0,48
1,note_on,86,0,0
1,note_on,75,45,0
1,note_on,87,54,0
1,note_on,87,0,48
1,note_on,75,0,0
1,note_on,88,55,0
1,note_on,76,46,0
1,note_on,76,0,48
1,note_on,88,0,0
1,note_on,89,57,0
1,note_on,77,48,0
1,note_on,77,0,48
1,note_on,89,0,0
1,note_on,90,61,0
1,note_on,78,51,0
1,note_on,78,0,60
1,note_on,90,0,0
1,note_on,78,52,100
1,note_on,66,44,0
1,note_on,66,0,160
1,note_on,78,0,0
1,note_on,80,52,80
1,note_on,68,44,0
1,note_on,68,0,50
1,note_on,80,0,0
1,note_on,81,59,30
1,note_on,69,49,0
1,note_on,69,0,80
1,note_on,81,0,0
1,note_on,75,56,0
1,note_on,63,47,0
1,note_on,63,0,80
1,note_on,75,0,0
1,note_on,76,57,0
1,note_on,64,48,0
1,note_on,64,0,80
1,note_on,76,0,0
1,note_on,78,62,0
1,note_on,69,43,0
1,note_on,73,49,0
1,note_on,66,47,0
1,note_on,66,0,80
1,note_on,78,0,0
1,note_on,75,59,0
1,note_on,63,49,0
1,note_on,63,0,80
1,note_on,75,0,0
1,note_on,76,57,0
1,note_on,64,48,0
1,note_on,64,0,80
1,note_on,69,0,0
1,note_on,73,0,0
1,note_on,76,0,0
1,note_on,87,62,80
1,note_on,75,52,0
1,note_on,75,0,80
1,note_on,87,0,0
1,note_on,88,63,0
1,note_on,76,53,0
1,note_on,76,0,80
1,note_on,88,0,0
1,note_on,90,65,0
1,note_on,83,55,0
1,note_on,78,47,0
1,note_on,78,0,80
1,note_on,90,0,0
1,note_on,87,63,0
1,note_on,75,54,0
1,note_on,75,0,80
1,note_on,87,0,0
1,note_on,88,61,0
1,note_on,76,51,0
1,note_on,76,0,80
1,note_on,88,0,0
1,note_on,83,0,0
1,note_on,100,54,80
1,note_on,97,54,0
1,note_on,88,45,0
1,note_on,88,0,60
1,note_on,97,0,0
1,note_on,100,0,0
1,note_on,100,56,20
1,note_on,97,56,0
1,note_on,88,47,0
1,note_on,88,0,60
1,note_on,97,0,0
1,note_on,100,0,0
1,note_on,100,58,20
1,note_on,97,58,0
1,note_on,88,49,0
1,note_on,88,0,60
1,note_on,97,0,0
1,note_on,100,0,0
1,note_on,100,61,20
1,note_on,97,61,0
1,note_on,88,51,0
1,note_on,88,0,60
1,note_on,97,0,0
1,note_on,100,0,0
1,note_on,100,60,20
1,note_on,97,60,0
1,note_on,88,50,0
1,note_on,88,0,60
1,note_on,97,0,0
1,note_on,100,0,0
1,note_on,99,63,20
1,note_on,96,63,0
1,note_on,87,54,0
1,note_on,87,0,80
1,note_on,96,0,0
1,note_on,99,0,0
1,note_on,100,63,0
1,note_on,97,63,0
1,note_on,88,53,0
1,note_on,88,0,80
1,note_on,97,0,0
1,note_on,100,0,0
1,note_on,99,62,0
1,note_on,96,62,0
1,note_on,87,52,0
1,note_on,87,0,80
1,note_on,96,0,0
1,note_on,99,0,0
1,note_on,100,60,0
1,note_on,97,60,0
1,note_on,88,50,0
1,note_on,88,0,80
1,note_on,97,0,0
1,note_on,100,0,0
1,note_on,98,59,0
1,note_on,95,59,0
1,note_on,86,49,0
1,note_on,86,0,80
1,note_on,95,0,0
1,note_on,98,0,0
1,note_on,100,58,0
1,note_on,97,58,0
1,note_on,88,49,0
1,note_on,88,0,80
1,note_on,97,0,0
1,note_on,100,0,0
1,note_on,75,56,80
1,note_on,63,47,0
1,note_on,63,0,80
1,note_on,75,0,0
1,note_on,76,57,0
1,note_on,64,48,0
1,note_on,64,0,80
1,note_on,76,0,0
1,note_on,78,62,0
1,note_on,69,42,0
1,note_on,73,49,0
1,note_on,66,47,0
1,note_on,66,0,80
1,note_on,78,0,0
1,note_on,75,59,0
1,note_on,63,49,0
1,note_on,63,0,80
1,note_on,75,0,0
1,note_on,76,57,0
1,note_on,64,48,0
1,note_on,64,0,80
1,note_on,69,0,0
1,note_on,73,0,0
1,note_on,76,0,0
1,note_on,87,55,80
1,note_on,75,46,0
1,note_on,75,0,80
1,note_on,87,0,0
1,note_on,88,56,0
1,note_on,76,47,0
1,note_on,76,0,80
1,note_on,88,0,0
1,note_on,90,58,0
1,note_on,83,49,0
1,note_on,78,49,0
1,note_on,78,0,80
1,note_on,90,0,0
1,note_on,87,56,0
1,note_on,75,48,0
1,note_on,75,0,80
1,note_on,87,0,0
1,note_on,88,54,0
1,note_on,76,45,0
1,note_on,76,0,80
1,note_on,88,0,0
1,note_on,83,0,0
1,note_on,100,54,80
1,note_on,97,54,0
1,note_on,88,45,0
1,note_on,88,0,60
1,note_on,97,0,0
1,note_on,100,0,0
1,note_on,100,56,20
1,note_on,97,56,0
1,note_on,88,47,0
1,note_on,88,0,60
1,note_on,97,0,0
1,note_on,100,0,0
1,note_on,100,58,20
1,note_on,97,58,0
1,note_on,88,49,0
1,note_on,88,0,60
1,note_on,97,0,0
1,note_on,100,0,0
1,note_on,100,61,20
1,note_on,97,61,0
1,note_on,88,51,0
1,note_on,88,0,60
1,note_on,97,0,0
1,note_on,100,0,0
1,note_on,100,60,20
1,note_on,97,60,0
1,note_on,88,50,0
1,note_on,88,0,60
1,note_on,97,0,0
1,note_on,100,0,0
1,note_on,99,63,20
1,note_on,96,63,0
1,note_on,87,54,0
1,note_on,87,0,80
1,note_on,96,0,0
1,note_on,99,0,0
1,note_on,100,63,0
1,note_on,97,63,0
1,note_on,88,53,0
1,note_on,88,0,80
1,note_on,97,0,0
1,note_on,100,0,0
1,note_on,99,62,0
1,note_on,96,62,0
1,note_on,87,52,0
1,note_on,87,0,80
1,note_on,96,0,0
1,note_on,99,0,0
1,note_on,100,60,0
1,note_on,97,60,0
1,note_on,88,50,0
1,note_on,88,0,80
1,note_on,97,0,0
1,note_on,100,0,0
1,note_on,98,59,0
1,note_on,95,59,0
1,note_on,86,49,0
1,note_on,86,0,80
1,note_on,95,0,0
1,note_on,98,0,0
1,note_on,100,58,0
1,note_on,97,58,0
1,note_on,88,49,0
1,note_on,88,0,60
1,note_on,97,0,0
1,note_on,100,0,0
1,note_on,100,61,20
1,note_on,97,53,0
1,note_on,88,45,0
1,note_on,88,0,80
1,note_on,97,0,0
1,note_on,100,0,0
1,note_on,97,54,0
1,note_on,85,45,0
1,note_on,93,54,0
1,note_on,93,0,60
1,note_on,85,0,0
1,note_on,97,0,0
1,note_on,85,47,20
1,note_on,93,47,0
1,note_on,97,56,0
1,note_on,97,0,60
1,note_on,93,0,0
1,note_on,85,0,0
1,note_on,85,49,20
1,note_on,97,58,0
1,note_on,93,49,0
1,note_on,93,0,60
1,note_on,97,0,0
1,note_on,85,0,0
1,note_on,97,61,20
1,note_on,93,51,0
1,note_on,85,51,0
1,note_on,85,0,60
1,note_on,93,0,0
1,note_on,97,0,0
1,note_on,85,50,20
1,note_on,97,60,0
1,note_on,93,50,0
1,note_on,93,0,60
1,note_on,97,0,0
1,note_on,85,0,0
1,note_on,92,54,20
1,note_on,96,63,0
1,note_on,84,54,0
1,note_on,84,0,80
1,note_on,96,0,0
1,note_on,92,0,0
1,note_on,93,53,0
1,note_on,85,53,0
1,note_on,97,63,0
1,note_on,97,0,80
1,note_on,85,0,0
1,note_on,93,0,0
1,note_on,84,52,0
1,note_on,96,62,0
1,note_on,92,52,0
1,note_on,92,0,80
1,note_on,96,0,0
1,note_on,84,0,0
1,note_on,85,50,0
1,note_on,97,60,0
1,note_on,93,60,0
1,note_on,93,0,80
1,note_on,97,0,0
1,note_on,85,0,0
1,note_on,83,49,0
1,note_on,95,59,0
1,note_on,92,49,0
1,note_on,92,0,80
1,note_on,95,0,0
1,note_on,83,0,0
1,note_on,97,58,0
1,note_on,93,49,0
1,note_on,85,49,0
1,note_on,85,0,60
1,note_on,93,0,0
1,note_on,97,0,0
1,note_on,85,45,20
1,note_on,93,53,0
1,note_on,97,61,0
1,note_on,97,0,80
1,note_on,93,0,0
1,note_on,85,0,0
1,note_on,93,54,0
1,note_on,81,45,0
1,note_on,90,45,0
1,note_on,90,0,60
1,note_on,81,0,0
1,note_on,93,0,0
1,note_on,93,56,20
1,note_on,90,47,0
1,note_on,81,47,0
1,note_on,81,0,60
1,note_on,90,0,0
1,note_on,93,0,0
1,note_on,93,58,20
1,note_on,81,49,0
1,note_on,90,49,0
1,note_on,90,0,60
1,note_on,81,0,0
1,note_on,93,0,0
1,note_on,93,61,20
1,note_on,90,51,0
1,note_on,81,51,0
1,note_on,81,0,60
1,note_on,90,0,0
1,note_on,93,0,0
1,note_on,81,50,20
1,note_on,93,60,0
1,note_on,90,50,0
1,note_on,90,0,60
1,note_on,93,0,0
1,note_on,81,0,0
1,note_on,92,63,20
1,note_on,80,54,0
1,note_on,89,54,0
1,note_on,89,0,80
1,note_on,80,0,0
1,note_on,92,0,0
1,note_on,93,63,0
1,note_on,81,53,0
1,note_on,90,53,0
1,note_on,90,0,80
1,note_on,81,0,0
1,note_on,93,0,0
1,note_on,92,62,0
1,note_on,80,52,0
1,note_on,89,52,0
1,note_on,89,0,80
1,note_on,80,0,0
1,note_on,92,0,0
1,note_on,93,60,0
1,note_on,81,50,0
1,note_on,90,50,0
1,note_on,90,0,80
1,note_on,81,0,0
1,note_on,93,0,0
1,note_on,91,59,0
1,note_on,79,49,0
1,note_on,88,49,0
1,note_on,88,0,80
1,note_on,79,0,0
1,note_on,91,0,0
1,note_on,93,58,0
1,note_on,90,49,0
1,note_on,81,49,0
1,note_on,81,0,60
1,note_on,90,0,0
1,note_on,93,0,0
1,note_on,93,68,20
1,note_on,81,57,0
1,note_on,90,57,0
1,note_on,90,0,80
1,note_on,81,0,0
1,note_on,93,0,0
1,note_on,90,51,0
1,note_on,86,51,0
1,note_on,86,0,30
1,note_on,90,0,0
1,note_on,90,54,50
1,note_on,86,54,0
1,note_on,86,0,30
1,note_on,90,0,0
1,note_on,78,47,50
1,note_on,81,47,0
1,note_on,81,0,30
1,note_on,78,0,0
1,note_on,86,54,50
1,note_on,90,54,0
1,note_on,90,0,30
1,note_on,86,0,0
1,note_on,74,49,50
1,note_on,78,49,0
1,note_on,78,0,30
1,note_on,74,0,0
1,note_on,98,73,50
1,note_on,95,68,0
1,note_on,95,0,30
1,note_on,98,0,0
1,note_on,90,51,50
1,note_on,86,51,0
1,note_on,86,0,30
1,note_on,90,0,0
1,note_on,98,54,50
1,note_on,95,54,0
1,note_on,95,0,30
1,note_on,98,0,0
1,note_on,83,47,50
1,note_on,86,47,0
1,note_on,86,0,30
1,note_on,83,0,0
1,note_on,95,54,50
1,note_on,98,54,0
1,note_on,98,0,30
1,note_on,95,0,0
1,note_on,78,49,50
1,note_on,83,49,0
1,note_on,83,0,30
1,note_on,78,0,0
1,note_on,83,52,50
1,note_on,86,65,0
1,note_on,74,57,0
1,note_on,74,0,80
1,note_on,86,0,0
1,note_on,83,0,0
1,note_on,80,51,0
1,note_on,76,51,0
1,note_on,76,0,30
1,note_on,80,0,0
1,note_on,92,54,50
1,note_on,88,54,0
1,note_on,88,0,30
1,note_on,92,0,0
1,note_on,80,47,50
1,note_on,83,47,0
1,note_on,83,0,30
1,note_on,80,0,0
1,note_on,88,54,50
1,note_on,92,54,0
1,note_on,92,0,30
1,note_on,88,0,0
1,note_on,76,49,50
1,note_on,80,49,0
1,note_on,80,0,30
1,note_on,76,0,0
1,note_on,100,73,50
1,note_on,97,68,0
1,note_on,97,0,30
1,note_on,100,0,0
1,note_on,92,51,50
1,note_on,88,51,0
1,note_on,88,0,30
1,note_on,92,0,0
1,note_on,100,54,50
1,note_on,97,54,0
1,note_on,97,0,30
1,note_on,100,0,0
1,note_on,85,47,50
1,note_on,88,47,0
1,note_on,88,0,30
1,note_on,85,0,0
1,note_on,97,54,50
1,note_on,100,54,0
1,note_on,100,0,30
1,note_on,97,0,0
1,note_on,80,49,50
1,note_on,85,49,0
1,note_on,85,0,30
1,note_on,80,0,0
1,note_on,88,65,50
1,note_on,76,57,0
1,note_on,85,52,0
1,note_on,85,0,80
1,note_on,76,0,0
1,note_on,88,0,0
1,note_on,81,51,0
1,note_on,78,51,0
1,note_on,78,0,30
1,note_on,81,0,0
1,note_on,93,54,50
1,note_on,90,54,0
1,note_on,90,0,30
1,note_on,93,0,0
1,note_on,81,47,50
1,note_on,85,47,0
1,note_on,85,0,30
1,note_on,81,0,0
1,note_on,90,54,50
1,note_on,93,54,0
1,note_on,93,0,30
1,note_on,90,0,0
1,note_on,78,49,50
1,note_on,81,49,0
1,note_on,81,0,30
1,note_on,78,0,0
1,note_on,101,73,50
1,note_on,98,68,0
1,note_on,98,0,30
1,note_on,101,0,0
1,note_on,93,51,50
1,note_on,89,51,0
1,note_on,89,0,30
1,note_on,93,0,0
1,note_on,101,54,50
1,note_on,98,54,0
1,note_on,98,0,30
1,note_on,101,0,0
1,note_on,86,47,50
1,note_on,89,47,0
1,note_on,89,0,30
1,note_on,86,0,0
1,note_on,98,54,50
1,note_on,101,54,0
1,note_on,101,0,30
1,note_on,98,0,0
1,note_on,81,49,50
1,note_on,86,49,0
1,note_on,86,0,30
1,note_on,81,0,0
1,note_on,100,74,50
1,note_on,88,63,0
1,note_on,95,63,0
1,note_on,95,0,80
1,note_on,88,0,0
1,note_on,100,0,0
1,note_on,99,62,0
1,note_on,99,0,80
1,note_on,100,75,0
1,note_on,100,0,80
1,note_on,98,61,0
1,note_on,98,0,60
1,note_on,100,77,20
1,note_on,100,0,60
1,note_on,95,56,20
1,note_on,95,0,60
1,note_on,100,77,20
1,note_on,100,0,60
1,note_on,92,52,20
1,note_on,92,0,60
1,note_on,100,77,20
1,note_on,100,0,60
1,note_on,88,52,20
1,note_on,88,0,60
1,note_on,100,79,20
1,note_on,100,0,60
1,note_on,86,50,20
1,note_on,86,0,60
1,note_on,100,79,20
1,note_on,100,0,60
1,note_on,83,50,20
1,note_on,83,0,60
1,note_on,100,79,20
1,note_on,100,0,60
1,note_on,80,50,20
1,note_on,80,0,60
1,note_on,100,79,20
1,note_on,100,0,60
1,note_on,76,51,20
1,note_on,76,0,60
1,note_on,100,79,20
1,note_on,100,0,60
1,note_on,74,51,20
1,note_on,74,0,60
1,note_on,100,79,20
1,note_on,100,0,60
1,note_on,71,51,20
1,note_on,71,0,60
1,note_on,100,79,20
1,note_on,100,0,60
1,note_on,68,51,20
1,note_on,68,0,60
1,note_on,100,79,20
1,note_on,100,0,120
1,note_on,65,59,360
1,note_on,64,43,80
1,note_on,65,0,75
1,note_on,64,0,5
1,note_on,65,40,0
1,note_on,65,0,80
1,note_on,64,40,0
1,note_on,64,0,80
1,note_on,65,40,0
1,note_on,65,0,80
1,note_on,64,40,0
1,note_on,64,0,80
1,note_on,66,43,0
1,note_on,64,40,60
1,note_on,66,0,50
1,note_on,64,0,10
1,note_on,66,40,0
1,note_on,66,0,60
1,note_on,64,40,0
1,note_on,64,0,60
1,note_on,67,52,0
1,note_on,64,40,60
1,note_on,67,0,50
1,note_on,64,0,10
1,note_on,67,40,0
1,note_on,67,0,60
1,note_on,64,40,0
1,note_on,64,0,60
1,note_on,68,58,0
1,note_on,64,37,60
1,note_on,68,0,50
1,note_on,64,0,10
1,note_on,68,40,0
1,note_on,68,0,60
1,note_on,64,38,0
1,note_on,64,0,60
1,note_on,68,40,0
1,note_on,68,0,60
1,note_on,64,36,0
1,note_on,64,0,60
1,note_on,68,40,0
1,note_on,68,0,60
1,note_on,64,37,0
1,note_on,64,0,60
1,note_on,68,54,0
1,note_on,64,37,60
1,note_on,68,0,50
1,note_on,64,0,10
1,note_on,68,39,0
1,note_on,68,0,60
1,note_on,64,37,0
1,note_on,64,0,60
1,note_on,66,54,0
1,note_on,69,54,0
1,note_on,69,0,60
1,note_on,64,36,0
1,note_on,66,0,50
1,note_on,64,0,10
1,note_on,66,39,0
1,note_on,69,39,0
1,note_on,69,0,60
1,note_on,66,0,0
1,note_on,64,36,0
1,note_on,64,0,60
1,note_on,66,39,0
1,note_on,69,39,0
1,note_on,69,0,60
1,note_on,66,0,0
1,note_on,64,36,0
1,note_on,64,0,60
1,note_on,66,39,0
1,note_on,69,39,0
1,note_on,69,0,60
1,note_on,66,0,0
1,note_on,64,37,0
1,note_on,64,0,60
1,note_on,67,54,0
1,note_on,70,54,0
1,note_on,67,0,60
1,note_on,64,39,0
1,note_on,70,0,50
1,note_on,64,0,10
1,note_on,67,41,0
1,note_on,70,41,0
1,note_on,70,0,60
1,note_on,67,0,0
1,note_on,64,39,0
1,note_on,64,0,60
1,note_on,70,61,0
1,note_on,65,42,60
1,note_on,70,0,50
1,note_on,65,0,10
1,note_on,70,45,0
1,note_on,70,0,60
1,note_on,65,41,0
1,note_on,65,0,60
1,note_on,70,45,0
1,note_on,70,0,60
1,note_on,65,41,0
1,note_on,65,0,60
1,note_on,70,45,0
1,note_on,70,0,60
1,note_on,65,42,0
1,note_on,65,0,60
1,note_on,70,45,0
1,note_on,70,0,60
1,note_on,65,42,0
1,note_on,65,0,60
1,note_on,70,45,0
1,note_on,70,0,60
1,note_on,65,42,0
1,note_on,65,0,60
1,note_on,68,45,0
1,note_on,70,45,0
1,note_on,68,0,60
1,note_on,65,42,0
1,note_on,70,0,50
1,note_on,65,0,10
1,note_on,68,52,0
1,note_on,70,52,0
1,note_on,70,0,60
1,note_on,68,0,0
1,note_on,65,41,0
1,note_on,65,0,60
1,note_on,68,44,0
1,note_on,70,44,0
1,note_on,70,0,60
1,note_on,68,0,0
1,note_on,65,41,0
1,note_on,65,0,60
1,note_on,68,44,0
1,note_on,70,44,0
1,note_on,70,0,60
1,note_on,68,0,0
1,note_on,65,41,0
1,note_on,65,0,60
1,note_on,68,44,0
1,note_on,70,44,0
1,note_on,70,0,60
1,note_on,68,0,0
1,note_on,65,40,0
1,note_on,65,0,60
1,note_on,68,44,0
1,note_on,70,44,0
1,note_on,70,0,60
1,note_on,68,0,0
1,note_on,65,41,0
1,note_on,65,0,60
1,note_on,70,52,0
1,note_on,66,42,60
1,note_on,70,0,50
1,note_on,66,0,10
1,note_on,70,45,0
1,note_on,70,0,60
1,note_on,66,41,0
1,note_on,66,0,60
1,note_on,70,45,0
1,note_on,70,0,60
1,note_on,66,41,0
1,note_on,66,0,60
1,note_on,70,45,0
1,note_on,70,0,60
1,note_on,66,41,0
1,note_on,66,0,60
1,note_on,70,45,0
1,note_on,70,0,60
1,note_on,66,40,0
1,note_on,66,0,60
1,note_on,70,45,0
1,note_on,70,0,60
1,note_on,66,41,0
1,note_on,66,0,60
1,note_on,70,62,0
1,note_on,71,62,0
1,note_on,70,0,60
1,note_on,66,44,0
1,note_on,71,0,50
1,note_on,66,0,10
1,note_on,70,47,0
1,note_on,71,47,0
1,note_on,71,0,60
1,note_on,70,0,0
1,note_on,66,44,0
1,note_on,66,0,60
1,note_on,70,47,0
1,note_on,71,47,0
1,note_on,71,0,60
1,note_on,70,0,0
1,note_on,66,43,0
1,note_on,66,0,60
1,note_on,70,47,0
1,note_on,71,47,0
1,note_on,71,0,60
1,note_on,70,0,0
1,note_on,66,44,0
1,note_on,66,0,60
1,note_on,70,47,0
1,note_on,71,47,0
1,note_on,71,0,60
1,note_on,70,0,0
1,note_on,66,44,0
1,note_on,66,0,60
1,note_on,70,47,0
1,note_on,71,47,0
1,note_on,71,0,60
1,note_on,70,0,0
1,note_on,66,44,0
1,note_on,66,0,60
1,note_on,71,62,0
1,note_on,69,52,0
1,note_on,69,0,60
1,note_on,71,0,0
1,note_on,65,48,0
1,note_on,65,0,60
1,note_on,71,48,0
1,note_on,69,40,0
1,note_on,69,0,60
1,note_on,71,0,0
1,note_on,65,48,0
1,note_on,65,0,60
1,note_on,71,48,0
1,note_on,69,40,0
1,note_on,69,0,60
1,note_on,71,0,0
1,note_on,65,48,0
1,note_on,65,0,60
1,note_on,71,48,0
1,note_on,69,40,0
1,note_on,69,0,60
1,note_on,71,0,0
1,note_on,65,48,0
1,note_on,65,0,60
1,note_on,71,48,0
1,note_on,69,40,0
1,note_on,69,0,60
1,note_on,71,0,0
1,note_on,65,48,0
1,note_on,65,0,60
1,note_on,71,48,0
1,note_on,69,40,0
1,note_on,69,0,60
1,note_on,71,0,0
1,note_on,65,48,0
1,note_on,65,0,60
1,note_on,71,54,0
1,note_on,69,45,0
1,note_on,69,0,60
1,note_on,71,0,0
1,note_on,65,48,0
1,note_on,65,0,60
1,note_on,71,48,0
1,note_on,69,40,0
1,note_on,69,0,60
1,note_on,71,0,0
1,note_on,65,48,0
1,note_on,65,0,60
1,note_on,71,48,0
1,note_on,69,40,0
1,note_on,69,0,60
1,note_on,71,0,0
1,note_on,65,48,0
1,note_on,65,0,60
1,note_on,71,48,0
1,note_on,69,40,0
1,note_on,69,0,60
1,note_on,71,0,0
1,note_on,65,48,0
1,note_on,65,0,60
1,note_on,71,48,0
1,note_on,69,40,0
1,note_on,69,0,60
1,note_on,71,0,0
1,note_on,65,48,0
1,note_on,65,0,60
1,note_on,71,48,0
1,note_on,69,40,0
1,note_on,69,0,60
1,note_on,71,0,0
1,note_on,65,48,0
1,note_on,65,0,60
1,note_on,71,54,0
1,note_on,69,45,0
1,note_on,69,0,60
1,note_on,71,0,0
1,note_on,65,50,0
1,note_on,65,0,60
1,note_on,71,50,0
1,note_on,69,42,0
1,note_on,69,0,60
1,note_on,71,0,0
1,note_on,65,50,0
1,note_on,65,0,60
1,note_on,71,50,0
1,note_on,69,42,0
1,note_on,69,0,60
1,note_on,71,0,0
1,note_on,65,50,0
1,note_on,65,0,60
1,note_on,71,50,0
1,note_on,69,42,0
1,note_on,69,0,60
1,note_on,71,0,0
1,note_on,65,50,0
1,note_on,65,0,60
1,note_on,71,50,0
1,note_on,69,42,0
1,note_on,69,0,60
1,note_on,71,0,0
1,note_on,65,50,0
1,note_on,65,0,60
1,note_on,71,50,0
1,note_on,69,42,0
1,note_on,69,0,60
1,note_on,71,0,0
1,note_on,65,50,0
1,note_on,65,0,60
1,note_on,71,57,0
1,note_on,69,45,0
1,note_on,69,0,60
1,note_on,71,0,0
1,note_on,65,50,0
1,note_on,65,0,60
1,note_on,71,50,0
1,note_on,69,42,0
1,note_on,69,0,60
1,note_on,71,0,0
1,note_on,65,50,0
1,note_on,65,0,60
1,note_on,71,50,0
1,note_on,69,42,0
1,note_on,69,0,60
1,note_on,71,0,0
1,note_on,65,50,0
1,note_on,65,0,60
1,note_on,71,50,0
1,note_on,69,42,0
1,note_on,69,0,60
1,note_on,71,0,0
1,note_on,65,50,0
1,note_on,65,0,60
1,note_on,71,50,0
1,note_on,69,42,0
1,note_on,69,0,60
1,note_on,71,0,0
1,note_on,65,50,0
1,note_on,65,0,60
1,note_on,71,50,0
1,note_on,69,42,0
1,note_on,69,0,60
1,note_on,71,0,0
1,note_on,65,50,0
1,note_on,65,0,60
1,note_on,76,48,0
1,note_on,74,45,0
1,note_on,68,47,0
1,note_on,68,0,120
1,note_on,69,48,0
1,note_on,69,0,120
1,note_on,74,0,0
1,note_on,76,0,0
1,note_on,70,49,0
1,note_on,70,0,120
1,note_on,71,51,0
1,note_on,71,0,120
1,note_on,72,52,0
1,note_on,72,0,120
1,note_on,73,54,0
1,note_on,73,0,120
1,note_on,74,54,0
1,note_on,74,0,120
1,note_on,75,55,0
1,note_on,75,0,120
1,note_on,76,57,0
1,note_on,76,0,120
1,note_on,77,58,0
1,note_on,77,0,120
1,note_on,78,60,0
1,note_on,78,0,120
1,note_on,79,61,0
1,note_on,79,0,120
1,note_on,80,62,0
1,note_on,88,62,0
1,note_on,86,62,0
1,note_on,80,0,120
1,note_on,81,54,0
1,note_on,81,0,120
1,note_on,86,0,0
1,note_on,88,0,0
1,note_on,82,55,0
1,note_on,82,0,120
1,note_on,83,56,0
1,note_on,83,0,120
1,note_on,84,57,0
1,note_on,84,0,120
1,note_on,85,59,0
1,note_on,85,0,120
1,note_on,86,60,0
1,note_on,86,0,120
1,note_on,87,61,0
1,note_on,87,0,120
1,note_on,88,62,0
1,note_on,88,0,120
1,note_on,89,63,0
1,note_on,89,0,120
1,note_on,90,64,0
1,note_on,90,0,120
1,note_on,91,65,0
1,note_on,91,0,120
1,note_on,100,69,0
1,note_on,98,69,0
1,note_on,92,69,0
1,note_on,92,0,120
1,note_on,93,59,0
1,note_on,93,0,120
1,note_on,98,0,0
1,note_on,100,0,0
1,note_on,94,61,0
1,note_on,94,0,120
1,note_on,95,63,0
1,note_on,95,0,120
1,note_on,96,65,0
1,note_on,96,0,120
1,note_on,97,67,0
1,note_on,97,0,120
1,note_on,100,71,0
1,note_on,98,71,0
1,note_on,97,69,120
1,note_on,97,0,120
1,note_on,98,0,0
1,note_on,100,0,0
1,note_on,96,66,0
1,note_on,96,0,120
1,note_on,95,63,0
1,note_on,95,0,120
1,note_on,94,62,0
1,note_on,94,0,120
1,note_on,93,59,0
1,note_on,93,0,120
1,note_on,100,69,0
1,note_on,98,69,0
1,note_on,92,69,0
1,note_on,92,0,120
1,note_on,93,59,0
1,note_on,93,0,120
1,note_on,98,0,0
1,note_on,100,0,0
1,note_on,94,61,0
1,note_on,94,0,120
1,note_on,95,63,0
1,note_on,95,0,120
1,note_on,96,65,0
1,note_on,96,0,120
1,note_on,97,67,0
1,note_on,97,0,120
1,note_on,100,71,0
1,note_on,98,71,0
1,note_on,97,69,120
1,note_on,97,0,120
1,note_on,98,0,0
1,note_on,100,0,0
1,note_on,96,66,0
1,note_on,96,0,120
1,note_on,95,63,0
1,note_on,95,0,120
1,note_on,94,62,0
1,note_on,94,0,120
1,note_on,93,59,0
1,note_on,93,0,120
1,note_on,100,69,0
1,note_on,98,69,0
1,note_on,92,69,0
1,note_on,92,0,120
1,note_on,93,57,0
1,note_on,93,0,120
1,note_on,98,0,0
1,note_on,100,0,0
1,note_on,94,59,0
1,note_on,94,0,120
1,note_on,95,61,0
1,note_on,95,0,120
1,note_on,96,63,0
1,note_on,96,0,120
1,note_on,97,65,0
1,note_on,97,0,120
1,note_on,98,67,0
1,note_on,98,0,120
1,note_on,99,69,0
1,note_on,99,0,120
1,note_on,100,72,0
1,note_on,100,0,120
1,note_on,101,75,0
1,note_on,101,0,120
1,note_on,100,73,0
1,note_on,100,0,120
1,note_on,99,73,0
1,note_on,99,0,120
1,note_on,98,70,0
1,note_on,98,0,120
1,note_on,95,68,0
1,note_on,95,0,120
1,note_on,92,65,0
1,note_on,92,0,120
1,note_on,89,63,0
1,note_on,89,0,120
1,note_on,88,60,0
1,note_on,88,0,120
1,note_on,87,57,0
1,note_on,87,0,120
1,note_on,86,55,0
1,note_on,86,0,120
1,note_on,87,53,0
1,note_on,87,0,120
1,note_on,88,54,0
1,note_on,88,0,120
1,note_on,89,53,0
1,note_on,89,0,120
1,note_on,88,51,0
1,note_on,88,0,120
1,note_on,87,49,0
1,note_on,87,0,120
1,note_on,86,51,0
1,note_on,86,0,120
1,note_on,83,49,0
1,note_on,83,0,120
1,note_on,80,48,0
1,note_on,80,0,120
1,note_on,77,47,0
1,note_on,77,0,120
1,note_on,76,46,0
1,note_on,76,0,120
1,note_on,75,46,0
1,note_on,75,0,120
1,note_on,74,47,0
1,note_on,74,0,120
1,note_on,75,48,0
1,note_on,75,0,120
1,note_on,76,49,0
1,note_on,76,0,120
1,note_on,77,49,0
1,note_on,77,0,120
1,note_on,76,48,0
1,note_on,76,0,120
1,note_on,74,46,0
1,note_on,74,0,120
1,note_on,71,48,0
1,note_on,71,0,120
1,note_on,74,45,0
1,note_on,74,0,120
1,note_on,76,47,0
1,note_on,76,0,120
1,note_on,77,48,0
1,note_on,77,0,120
1,note_on,76,47,0
1,note_on,76,0,120
1,note_on,74,46,0
1,note_on,74,0,120
1,note_on,68,50,0
1,note_on,68,0,120
1,note_on,74,44,0
1,note_on,74,0,120
1,note_on,76,45,0
1,note_on,76,0,120
1,note_on,77,46,0
1,note_on,77,0,120
1,note_on,76,45,0
1,note_on,76,0,120
1,note_on,74,45,0
1,note_on,74,0,120
1,note_on,69,50,0
1,note_on,69,0,120
1,note_on,74,44,0
1,note_on,74,0,120
1,note_on,76,45,0
1,note_on,76,0,120
1,note_on,78,45,0
1,note_on,78,0,120
1,note_on,76,45,0
1,note_on,76,0,120
1,note_on,74,43,0
1,note_on,74,0,120
1,note_on,70,49,0
1,note_on,70,0,120
1,note_on,74,40,0
1,note_on,74,0,120
1,note_on,76,41,0
1,note_on,76,0,120
1,note_on,78,43,0
1,note_on,78,0,120
1,note_on,76,43,0
1,note_on,76,0,120
1,note_on,74,40,0
1,note_on,74,0,120
1,note_on,71,49,0
1,note_on,71,0,120
1,note_on,74,40,0
1,note_on,74,0,120
1,note_on,78,44,0
1,note_on,78,0,120
1,note_on,76,40,0
1,note_on,76,0,120
1,note_on,77,44,0
1,note_on,77,0,120
1,note_on,76,40,0
1,note_on,76,0,120
1,note_on,78,44,0
1,note_on,78,0,120
1,note_on,76,40,0
1,note_on,76,0,120
1,note_on,77,45,0
1,note_on,77,0,120
1,note_on,76,40,0
1,note_on,76,0,120
1,note_on,78,45,0
1,note_on,78,0,120
1,note_on,76,41,0
1,note_on,76,0,120
1,note_on,77,45,0
1,note_on,77,0,120
1,note_on,76,42,0
1,note_on,76,0,120
1,note_on,78,45,0
1,note_on,78,0,120
1,note_on,76,40,0
1,note_on,76,0,120
1,note_on,77,45,0
1,note_on,77,0,120
1,note_on,76,40,0
1,note_on,76,0,120
1,note_on,78,44,0
1,note_on,78,0,120
1,note_on,76,40,0
1,note_on,76,0,120
1,note_on,77,43,0
1,note_on,77,0,120
1,note_on,76,38,0
1,note_on,76,0,120
1,note_on,78,42,0
1,note_on,78,0,120
1,note_on,76,38,0
1,note_on,76,0,120
1,note_on,77,41,0
1,note_on,77,0,120
1,note_on,76,37,0
1,note_on,76,0,120
1,note_on,78,40,0
1,note_on,78,0,120
1,note_on,76,37,0
1,note_on,76,0,120
1,note_on,78,39,0
1,note_on,78,0,120
1,note_on,76,36,0
1,note_on,76,0,120
1,note_on,78,38,0
1,note_on,78,0,120
1,note_on,76,36,0
1,note_on,76,0,120
1,note_on,78,37,0
1,note_on,78,0,120
1,note_on,76,33,0
1,note_on,76,0,120
1,note_on,78,36,0
1,note_on,78,0,120
1,note_on,76,33,0
1,note_on,76,0,120
1,note_on,78,36,0
1,note_on,78,0,120
1,note_on,76,32,0
1,note_on,76,0,120
1,note_on,78,35,0
1,note_on,78,0,120
1,note_on,76,32,0
1,note_on,76,0,120
1,note_on,78,34,0
1,note_on,78,0,120
1,note_on,76,31,0
1,note_on,76,0,120
1,note_on,78,33,0
1,note_on,78,0,120
1,note_on,76,30,0
1,note_on,76,0,120
1,note_on,78,32,0
1,note_on,78,0,120
1,note_on,76,29,0
1,note_on,76,0,120
1,note_on,83,45,0
1,note_on,71,36,0
1,note_on,71,0,120
1,note_on,76,36,0
1,note_on,76,0,120
1,note_on,83,0,0
1,note_on,85,47,0
1,note_on,73,36,0
1,note_on,73,0,120
1,note_on,76,36,0
1,note_on,76,0,120
1,note_on,78,39,0
1,note_on,78,0,120
1,note_on,76,36,0
1,note_on,76,0,120
1,note_on,85,0,0
1,note_on,83,43,0
1,note_on,71,36,0
1,note_on,71,0,120
1,note_on,76,36,0
1,note_on,76,0,120
1,note_on,83,0,0
1,note_on,85,47,0
1,note_on,73,36,0
1,note_on,73,0,120
1,note_on,76,36,0
1,note_on,76,0,120
1,note_on,78,39,0
1,note_on,78,0,120
1,note_on,76,36,0
1,note_on,76,0,120
1,note_on,85,0,0
1,note_on,86,44,0
1,note_on,74,36,0
1,note_on,74,0,120
1,note_on,76,36,0
1,note_on,76,0,120
1,note_on,86,0,0
1,note_on,83,48,0
1,note_on,74,36,0
1,note_on,74,0,120
1,note_on,76,36,0
1,note_on,76,0,120
1,note_on,83,0,0
1,note_on,88,49,0
1,note_on,80,36,0
1,note_on,80,0,120
1,note_on,76,36,0
1,note_on,76,0,120
1,note_on,81,40,0
1,note_on,81,0,120
1,note_on,76,36,0
1,note_on,76,0,120
1,note_on,88,0,0
1,note_on,82,42,0
1,note_on,82,0,120
1,note_on,76,36,0
1,note_on,76,0,120
1,note_on,83,42,0
1,note_on,83,0,120
1,note_on,76,36,0
1,note_on,76,0,120
1,note_on,84,45,0
1,note_on,84,0,120
1,note_on,76,36,0
1,note_on,76,0,120
1,note_on,85,47,0
1,note_on,73,36,0
1,note_on,73,0,120
1,note_on,76,36,0
1,note_on,76,0,120
1,note_on,78,39,0
1,note_on,78,0,120
1,note_on,76,36,0
1,note_on,76,0,120
1,note_on,85,0,0
1,note_on,83,43,0
1,note_on,71,36,0
1,note_on,71,0,120
1,note_on,76,36,0
1,note_on,76,0,120
1,note_on,83,0,0
1,note_on,85,47,0
1,note_on,73,36,0
1,note_on,73,0,120
1,note_on,76,36,0
1,note_on,76,0,120
1,note_on,78,39,0
1,note_on,78,0,120
1,note_on,76,36,0
1,note_on,76,0,120
1,note_on,85,0,0
1,note_on,86,44,0
1,note_on,74,36,0
1,note_on,74,0,120
1,note_on,76,36,0
1,note_on,76,0,120
1,note_on,86,0,0
1,note_on,83,48,0
1,note_on,71,36,0
1,note_on,71,0,120
1,note_on,76,36,0
1,note_on,76,0,120
1,note_on,83,0,0
1,note_on,88,49,0
1,note_on,80,36,0
1,note_on,80,0,120
1,note_on,76,36,0
1,note_on,76,0,120
1,note_on,81,40,0
1,note_on,81,0,120
1,note_on,76,36,0
1,note_on,76,0,120
1,note_on,88,0,0
1,note_on,82,42,0
1,note_on,82,0,120
1,note_on,76,36,0
1,note_on,76,0,120
1,note_on,83,42,0
1,note_on,83,0,120
1,note_on,76,36,0
1,note_on,76,0,120
1,note_on,84,42,0
1,note_on,84,0,120
1,note_on,76,36,0
1,note_on,76,0,120
1,note_on,85,48,0
1,note_on,81,40,0
1,note_on,73,36,0
1,note_on,73,0,120
1,note_on,76,36,0
1,note_on,76,0,120
1,note_on,78,39,0
1,note_on,78,0,120
1,note_on,76,36,0
1,note_on,76,0,120
1,note_on,81,0,0
1,note_on,85,0,0
1,note_on,73,36,0
1,note_on,73,0,120
1,note_on,76,36,0
1,note_on,76,0,120
1,note_on,74,36,0
1,note_on,83,41,0
1,note_on,86,49,0
1,note_on,74,0,120
1,note_on,78,36,0
1,note_on,78,0,120
1,note_on,86,0,0
1,note_on,83,0,0
1,note_on,90,45,0
1,note_on,86,38,0
1,note_on,80,39,0
1,note_on,80,0,120
1,note_on,78,36,0
1,note_on,78,0,120
1,note_on,86,0,0
1,note_on,90,0,0
1,note_on,74,36,0
1,note_on,83,38,0
1,note_on,86,45,0
1,note_on,74,0,120
1,note_on,78,36,0
1,note_on,78,0,120
1,note_on,86,0,0
1,note_on,83,0,0
1,note_on,81,44,0
1,note_on,85,52,0
1,note_on,73,36,0
1,note_on,73,0,120
1,note_on,76,36,0
1,note_on,76,0,120
1,note_on,85,0,0
1,note_on,81,0,0
1,note_on,88,47,0
1,note_on,78,39,0
1,note_on,85,40,0
1,note_on,78,0,120
1,note_on,76,36,0
1,note_on,76,0,120
1,note_on,85,0,0
1,note_on,88,0,0
1,note_on,81,40,0
1,note_on,73,36,0
1,note_on,85,47,0
1,note_on,73,0,120
1,note_on,76,36,0
1,note_on,76,0,120
1,note_on,85,0,0
1,note_on,81,0,0
1,note_on,83,53,0
1,note_on,80,45,0
1,note_on,71,36,0
1,note_on,71,0,120
1,note_on,76,36,0
1,note_on,76,0,120
1,note_on,80,0,0
1,note_on,83,0,0
1,note_on,83,40,0
1,note_on,86,48,0
1,note_on,77,39,0
1,note_on,77,0,120
1,note_on,76,36,0
1,note_on,76,0,120
1,note_on,86,0,0
1,note_on,83,0,0
1,note_on,80,40,0
1,note_on,71,36,0
1,note_on,83,48,0
1,note_on,71,0,120
1,note_on,76,36,0
1,note_on,76,0,120
1,note_on,83,0,0
1,note_on,80,0,0
1,note_on,69,41,0
1,note_on,81,51,0
1,note_on,69,0,120
1,note_on,73,41,0
1,note_on,73,0,120
1,note_on,76,41,0
1,note_on,76,0,120
1,note_on,81,41,0
1,note_on,81,0,120
1,note_on,81,0,0
1,note_on,85,42,0
1,note_on,93,51,0
1,note_on,85,0,120
1,note_on,87,44,0
1,note_on,87,0,120
1,note_on,93,0,0
1,note_on,88,45,0
1,note_on,92,51,0
1,note_on,88,0,120
1,note_on,83,44,0
1,note_on,83,0,120
1,note_on,92,0,0
1,note_on,80,45,0
1,note_on,88,54,0
1,note_on,80,0,120
1,note_on,81,45,0
1,note_on,81,0,120
1,note_on,88,0,0
1,note_on,83,46,0
1,note_on,91,54,0
1,note_on,83,0,120
1,note_on,85,45,0
1,note_on,85,0,120
1,note_on,91,0,0
1,note_on,86,47,0
1,note_on,90,58,0
1,note_on,86,0,120
1,note_on,81,47,0
1,note_on,81,0,120
1,note_on,90,0,0
1,note_on,77,46,0
1,note_on,86,56,0
1,note_on,77,0,120
1,note_on,74,49,0
1,note_on,74,0,120
1,note_on,86,0,0
1,note_on,82,48,0
1,note_on,89,57,0
1,note_on,82,0,120
1,note_on,81,50,0
1,note_on,81,0,120
1,note_on,89,0,0
1,note_on,80,49,0
1,note_on,88,59,0
1,note_on,80,0,120
1,note_on,76,49,0
1,note_on,76,0,120
1,note_on,88,0,0
1,note_on,71,44,0
1,note_on,83,51,0
1,note_on,71,0,120
1,note_on,76,45,0
1,note_on,76,0,120
1,note_on,83,0,0
1,note_on,72,37,0
1,note_on,84,47,0
1,note_on,72,0,120
1,note_on,76,42,0
1,note_on,76,0,120
1,note_on,84,0,0
1,note_on,85,47,0
1,note_on,73,36,0
1,note_on,73,0,120
1,note_on,76,36,0
1,note_on,76,0,120
1,note_on,78,39,0
1,note_on,78,0,120
1,note_on,76,36,0
1,note_on,76,0,120
1,note_on,85,0,0
1,note_on,83,43,0
1,note_on,71,36,0
1,note_on,71,0,120
1,note_on,76,36,0
1,note_on,76,0,120
1,note_on,83,0,0
1,note_on,85,47,0
1,note_on,73,36,0
1,note_on,73,0,120
1,note_on,76,36,0
1,note_on,76,0,120
1,note_on,78,39,0
1,note_on,78,0,120
1,note_on,76,36,0
1,note_on,76,0,120
1,note_on,85,0,0
1,note_on,86,44,0
1,note_on,74,36,0
1,note_on,74,0,120
1,note_on,76,36,0
1,note_on,76,0,120
1,note_on,86,0,0
1,note_on,83,48,0
1,note_on,71,36,0
1,note_on,71,0,120
1,note_on,76,36,0
1,note_on,76,0,120
1,note_on,83,0,0
1,note_on,88,49,0
1,note_on,80,36,0
1,note_on,80,0,120
1,note_on,76,36,0
1,note_on,76,0,120
1,note_on,81,40,0
1,note_on,81,0,120
1,note_on,76,36,0
1,note_on,76,0,120
1,note_on,88,0,0
1,note_on,82,42,0
1,note_on,82,0,120
1,note_on,76,36,0
1,note_on,76,0,120
1,note_on,83,42,0
1,note_on,83,0,120
1,note_on,76,36,0
1,note_on,76,0,120
1,note_on,84,45,0
1,note_on,84,0,120
1,note_on,76,36,0
1,note_on,76,0,120
1,note_on,85,47,0
1,note_on,73,36,0
1,note_on,73,0,120
1,note_on,76,36,0
1,note_on,76,0,120
1,note_on,78,39,0
1,note_on,78,0,120
1,note_on,76,36,0
1,note_on,76,0,120
1,note_on,85,0,0
1,note_on,83,43,0
1,note_on,71,36,0
1,note_on,71,0,120
1,note_on,76,36,0
1,note_on,76,0,120
1,note_on,83,0,0
1,note_on,85,47,0
1,note_on,73,36,0
1,note_on,73,0,120
1,note_on,76,36,0
1,note_on,76,0,120
1,note_on,78,39,0
1,note_on,78,0,120
1,note_on,76,36,0
1,note_on,76,0,120
1,note_on,85,0,0
1,note_on,86,44,0
1,note_on,74,36,0
1,note_on,74,0,120
1,note_on,76,36,0
1,note_on,76,0,120
1,note_on,86,0,0
1,note_on,83,48,0
1,note_on,71,36,0
1,note_on,71,0,120
1,note_on,76,36,0
1,note_on,76,0,120
1,note_on,83,0,0
1,note_on,88,49,0
1,note_on,80,36,0
1,note_on,80,0,120
1,note_on,76,36,0
1,note_on,76,0,120
1,note_on,81,40,0
1,note_on,81,0,120
1,note_on,76,36,0
1,note_on,76,0,120
1,note_on,88,0,0
1,note_on,82,42,0
1,note_on,82,0,120
1,note_on,76,36,0
1,note_on,76,0,120
1,note_on,83,42,0
1,note_on,83,0,120
1,note_on,76,36,0
1,note_on,76,0,120
1,note_on,84,42,0
1,note_on,84,0,120
1,note_on,76,36,0
1,note_on,76,0,120
1,note_on,81,40,0
1,note_on,73,36,0
1,note_on,85,48,0
1,note_on,73,0,120
1,note_on,76,36,0
1,note_on,76,0,120
1,note_on,78,39,0
1,note_on,78,0,120
1,note_on,76,36,0
1,note_on,76,0,120
1,note_on,85,0,0
1,note_on,81,0,0
1,note_on,73,36,0
1,note_on,73,0,120
1,note_on,76,36,0
1,note_on,76,0,120
1,note_on,83,41,0
1,note_on,86,49,0
1,note_on,74,36,0
1,note_on,74,0,120
1,note_on,78,36,0
1,note_on,78,0,120
1,note_on,86,0,0
1,note_on,83,0,0
1,note_on,90,45,0
1,note_on,86,38,0
1,note_on,80,39,0
1,note_on,80,0,120
1,note_on,78,36,0
1,note_on,78,0,120
1,note_on,86,0,0
1,note_on,90,0,0
1,note_on,74,36,0
1,note_on,83,38,0
1,note_on,86,45,0
1,note_on,74,0,120
1,note_on,78,36,0
1,note_on,78,0,120
1,note_on,86,0,0
1,note_on,83,0,0
1,note_on,85,52,0
1,note_on,73,36,0
1,note_on,81,44,0
1,note_on,73,0,120
1,note_on,76,36,0
1,note_on,76,0,120
1,note_on,81,0,0
1,note_on,85,0,0
1,note_on,88,47,0
1,note_on,78,39,0
1,note_on,85,40,0
1,note_on,78,0,120
1,note_on,76,36,0
1,note_on,76,0,120
1,note_on,85,0,0
1,note_on,88,0,0
1,note_on,81,40,0
1,note_on,73,36,0
1,note_on,85,47,0
1,note_on,73,0,120
1,note_on,76,36,0
1,note_on,76,0,120
1,note_on,85,0,0
1,note_on,81,0,0
1,note_on,83,53,0
1,note_on,80,45,0
1,note_on,71,36,0
1,note_on,71,0,120
1,note_on,76,36,0
1,note_on,76,0,120
1,note_on,80,0,0
1,note_on,83,0,0
1,note_on,77,39,0
1,note_on,83,40,0
1,note_on,86,48,0
1,note_on,77,0,120
1,note_on,76,36,0
1,note_on,76,0,120
1,note_on,86,0,0
1,note_on,83,0,0
1,note_on,71,36,0
1,note_on,83,48,0
1,note_on,80,40,0
1,note_on,71,0,120
1,note_on,76,36,0
1,note_on,76,0,120
1,note_on,80,0,0
1,note_on,83,0,0
1,note_on,73,49,0
1,note_on,69,41,0
1,note_on,81,56,0
1,note_on,81,0,120
1,note_on,69,0,0
1,note_on,73,0,0
1,note_on,81,43,690
1,note_on,81,0,60
1,note_on,85,44,30
1,note_on,85,0,60
1,note_on,93,45,30
1,note_on,93,0,60
1,note_on,93,46,30
1,note_on,93,0,60
1,note_on,85,45,30
1,note_on,85,0,60
1,note_on,81,44,30
1,note_on,81,0,60
1,note_on,73,44,30
1,note_on,73,0,60
1,note_on,81,43,120
1,note_on,81,0,60
1,note_on,86,44,30
1,note_on,86,0,60
1,note_on,93,45,30
1,note_on,93,0,60
1,note_on,93,46,30
1,note_on,93,0,60
1,note_on,86,45,30
1,note_on,86,0,60
1,note_on,81,44,30
1,note_on,81,0,60
1,note_on,74,44,30
1,note_on,74,0,60
1,note_on,81,43,120
1,note_on,81,0,60
1,note_on,85,44,30
1,note_on,85,0,60
1,note_on,93,45,30
1,note_on,93,0,60
1,note_on,93,46,30
1,note_on,93,0,60
1,note_on,85,45,30
1,note_on,85,0,60
1,note_on,81,44,30
1,note_on,81,0,60
1,note_on,73,44,30
1,note_on,73,0,60
1,note_on,69,34,510
1,note_on,66,28,0
1,note_on,66,0,60
1,note_on,69,0,0
1,note_on,71,35,0
1,note_on,67,29,0
1,note_on,67,0,60
1,note_on,71,0,0
1,note_on,73,36,0
1,note_on,69,31,0
1,note_on,69,0,60
1,note_on,73,0,0
1,note_on,74,37,0
1,note_on,71,31,0
1,note_on,71,0,60
1,note_on,74,0,0
1,note_on,76,39,0
1,note_on,73,32,0
1,note_on,73,0,60
1,note_on,76,0,0
1,note_on,78,40,0
1,note_on,74,34,0
1,note_on,74,0,60
1,note_on,78,0,0
1,note_on,79,41,0
1,note_on,76,35,0
1,note_on,76,0,60
1,note_on,79,0,0
1,note_on,81,43,0
1,note_on,78,36,0
1,note_on,78,0,60
1,note_on,81,0,0
1,note_on,83,44,0
1,note_on,79,36,0
1,note_on,79,0,60
1,note_on,83,0,0
1,note_on,85,45,0
1,note_on,81,38,0
1,note_on,81,0,60
1,note_on,85,0,0
1,note_on,86,47,0
1,note_on,83,40,0
1,note_on,83,0,60
1,note_on,86,0,0
1,note_on,88,48,0
1,note_on,85,40,0
1,note_on,85,0,60
1,note_on,88,0,0
1,note_on,90,49,0
1,note_on,86,41,0
1,note_on,86,0,60
1,note_on,90,0,0
1,note_on,76,43,750
1,note_on,76,0,60
1,note_on,81,44,30
1,note_on,81,0,60
1,note_on,88,45,30
1,note_on,88,0,60
1,note_on,88,46,30
1,note_on,88,0,60
1,note_on,81,45,30
1,note_on,81,0,60
1,note_on,76,44,30
1,note_on,76,0,60
1,note_on,69,44,30
1,note_on,69,0,60
1,note_on,76,43,120
1,note_on,76,0,60
1,note_on,80,44,30
1,note_on,80,0,60
1,note_on,88,45,30
1,note_on,88,0,60
1,note_on,88,46,30
1,note_on,88,0,60
1,note_on,80,45,30
1,note_on,80,0,60
1,note_on,76,44,30
1,note_on,76,0,60
1,note_on,68,44,30
1,note_on,68,0,60
1,note_on,98,34,510
1,note_on,90,28,0
1,note_on,90,0,60
1,note_on,98,0,0
1,note_on,97,35,0
1,note_on,88,29,0
1,note_on,88,0,60
1,note_on,97,0,0
1,note_on,95,36,0
1,note_on,86,31,0
1,note_on,86,0,60
1,note_on,95,0,0
1,note_on,93,37,0
1,note_on,85,31,0
1,note_on,85,0,60
1,note_on,93,0,0
1,note_on,92,39,0
1,note_on,83,32,0
1,note_on,83,0,60
1,note_on,92,0,0
1,note_on,90,40,0
1,note_on,81,34,0
1,note_on,81,0,60
1,note_on,90,0,0
1,note_on,88,41,0
1,note_on,80,35,0
1,note_on,80,0,60
1,note_on,88,0,0
1,note_on,86,43,0
1,note_on,78,36,0
1,note_on,78,0,60
1,note_on,86,0,0
1,note_on,85,44,0
1,note_on,76,36,0
1,note_on,76,0,60
1,note_on,85,0,0
1,note_on,83,45,0
1,note_on,74,38,0
1,note_on,74,0,60
1,note_on,83,0,0
1,note_on,81,47,0
1,note_on,73,40,0
1,note_on,73,0,60
1,note_on,81,0,0
1,note_on,80,48,0
1,note_on,71,40,0
1,note_on,71,0,60
1,note_on,80,0,0
1,note_on,78,49,0
1,note_on,69,41,0
1,note_on,69,0,60
1,note_on,68,41,0
1,note_on,76,49,0
1,note_on,78,0,20
1,note_on,76,0,40
1,note_on,68,0,0
1,note_on,66,41,0
1,note_on,74,41,0
1,note_on,74,0,60
1,note_on,66,0,0
1,note_on,69,43,150
1,note_on,69,0,60
1,note_on,73,44,30
1,note_on,73,0,60
1,note_on,81,45,30
1,note_on,81,0,60
1,note_on,81,46,30
1,note_on,81,0,60
1,note_on,73,45,30
1,note_on,73,0,60
1,note_on,69,44,30
1,note_on,69,0,60
1,note_on,61,44,30
1,note_on,61,0,60
1,note_on,69,43,120
1,note_on,69,0,60
1,note_on,74,44,30
1,note_on,74,0,60
1,note_on,81,45,30
1,note_on,81,0,60
1,note_on,81,46,30
1,note_on,81,0,60
1,note_on,74,45,30
1,note_on,74,0,60
1,note_on,69,44,30
1,note_on,69,0,60
1,note_on,62,44,30
1,note_on,62,0,60
1,note_on,69,43,120
1,note_on,69,0,60
1,note_on,73,44,30
1,note_on,73,0,60
1,note_on,81,45,30
1,note_on,81,0,60
1,note_on,81,46,30
1,note_on,81,0,60
1,note_on,73,45,30
1,note_on,73,0,60
1,note_on,69,44,30
1,note_on,69,0,60
1,note_on,61,44,30
1,note_on,61,0,60
1,note_on,69,33,510
1,note_on,66,27,0
1,note_on,66,0,60
1,note_on,69,0,0
1,note_on,70,34,0
1,note_on,67,28,0
1,note_on,67,0,60
1,note_on,70,0,0
1,note_on,71,36,0
1,note_on,68,30,0
1,note_on,68,0,60
1,note_on,71,0,0
1,note_on,72,36,0
1,note_on,69,30,0
1,note_on,69,0,60
1,note_on,72,0,0
1,note_on,73,38,0
1,note_on,70,32,0
1,note_on,70,0,60
1,note_on,73,0,0
1,note_on,74,39,0
1,note_on,71,33,0
1,note_on,71,0,60
1,note_on,74,0,0
1,note_on,75,41,0
1,note_on,72,35,0
1,note_on,72,0,60
1,note_on,75,0,0
1,note_on,76,42,0
1,note_on,73,35,0
1,note_on,73,0,60
1,note_on,76,0,0
1,note_on,77,44,0
1,note_on,74,36,0
1,note_on,74,0,60
1,note_on,77,0,0
1,note_on,78,45,0
1,note_on,75,37,0
1,note_on,75,0,60
1,note_on,78,0,0
1,note_on,79,46,0
1,note_on,76,39,0
1,note_on,76,0,60
1,note_on,79,0,0
1,note_on,80,47,0
1,note_on,77,40,0
1,note_on,77,0,60
1,note_on,80,0,0
1,note_on,81,49,0
1,note_on,78,41,0
1,note_on,78,0,60
1,note_on,81,0,0
1,note_on,82,50,0
1,note_on,79,42,0
1,note_on,79,0,60
1,note_on,82,0,0
1,note_on,83,52,0
1,note_on,80,44,0
1,note_on,80,0,60
1,note_on,83,0,0
1,note_on,84,53,0
1,note_on,81,45,0
1,note_on,81,0,60
1,note_on,84,0,0
1,note_on,85,54,0
1,note_on,82,45,0
1,note_on,82,0,60
1,note_on,85,0,0
1,note_on,86,55,0
1,note_on,83,46,0
1,note_on,83,0,60
1,note_on,86,0,0
1,note_on,87,57,0
1,note_on,84,48,0
1,note_on,84,0,60
1,note_on,87,0,0
1,note_on,88,58,0
1,note_on,85,49,0
1,note_on,85,0,60
1,note_on,88,0,0
1,note_on,90,60,0
1,note_on,86,50,0
1,note_on,86,0,60
1,note_on,90,0,0
1,note_on,64,43,270
1,note_on,64,0,60
1,note_on,69,44,30
1,note_on,69,0,60
1,note_on,76,45,30
1,note_on,76,0,60
1,note_on,76,46,30
1,note_on,76,0,60
1,note_on,69,45,30
1,note_on,69,0,60
1,note_on,64,44,30
1,note_on,64,0,60
1,note_on,57,44,30
1,note_on,57,0,60
1,note_on,64,43,120
1,note_on,64,0,60
1,note_on,68,44,30
1,note_on,68,0,60
1,note_on,76,45,30
1,note_on,76,0,60
1,note_on,76,46,30
1,note_on,76,0,60
1,note_on,68,45,30
1,note_on,68,0,60
1,note_on,64,44,30
1,note_on,64,0,60
1,note_on,56,44,30
1,note_on,56,0,60
1,note_on,98,33,510
1,note_on,90,27,0
1,note_on,90,0,60
1,note_on,98,0,0
1,note_on,97,34,0
1,note_on,89,28,0
1,note_on,89,0,60
1,note_on,97,0,0
1,note_on,96,36,0
1,note_on,88,30,0
1,note_on,88,0,60
1,note_on,96,0,0
1,note_on,95,36,0
1,note_on,87,30,0
1,note_on,87,0,60
1,note_on,95,0,0
1,note_on,94,38,0
1,note_on,86,32,0
1,note_on,86,0,60
1,note_on,94,0,0
1,note_on,93,39,0
1,note_on,85,33,0
1,note_on,85,0,60
1,note_on,93,0,0
1,note_on,92,41,0
1,note_on,84,35,0
1,note_on,84,0,60
1,note_on,92,0,0
1,note_on,91,42,0
1,note_on,83,35,0
1,note_on,83,0,60
1,note_on,91,0,0
1,note_on,90,44,0
1,note_on,82,36,0
1,note_on,82,0,60
1,note_on,90,0,0
1,note_on,89,45,0
1,note_on,81,37,0
1,note_on,81,0,60
1,note_on,89,0,0
1,note_on,88,46,0
1,note_on,80,39,0
1,note_on,80,0,60
1,note_on,88,0,0
1,note_on,87,47,0
1,note_on,79,40,0
1,note_on,79,0,60
1,note_on,87,0,0
1,note_on,86,49,0
1,note_on,78,41,0
1,note_on,78,0,60
1,note_on,86,0,0
1,note_on,85,50,0
1,note_on,77,42,0
1,note_on,77,0,60
1,note_on,85,0,0
1,note_on,84,52,0
1,note_on,76,44,0
1,note_on,76,0,60
1,note_on,84,0,0
1,note_on,83,53,0
1,note_on,75,45,0
1,note_on,75,0,60
1,note_on,83,0,0
1,note_on,74,45,0
1,note_on,82,54,0
1,note_on,82,0,60
1,note_on,74,0,0
1,note_on,73,45,0
1,note_on,81,54,0
1,note_on,81,0,60
1,note_on,73,0,0
1,note_on,72,46,0
1,note_on,80,55,0
1,note_on,80,0,60
1,note_on,72,0,0
1,note_on,71,48,0
1,note_on,79,57,0
1,note_on,79,0,60
1,note_on,71,0,0
1,note_on,70,49,0
1,note_on,78,58,0
1,note_on,78,0,48
1,note_on,70,0,0
1,note_on,69,49,0
1,note_on,77,58,0
1,note_on,77,0,48
1,note_on,69,0,0
1,note_on,68,48,0
1,note_on,76,57,0
1,note_on,76,0,48
1,note_on,68,0,0
1,note_on,66,50,0
1,note_on,75,59,0
1,note_on,75,0,48
1,note_on,66,0,0
1,note_on,65,51,0
1,note_on,74,61,0
1,note_on,74,0,48
1,note_on,65,0,0
1,note_on,76,72,0
1,note_on,64,58,0
1,note_on,73,59,0
1,note_on,73,0,60
1,note_on,64,0,0
1,note_on,76,0,0
1,note_on,73,65,180
1,note_on,69,55,0
1,note_on,61,55,0
1,note_on,61,0,120
1,note_on,64,47,0
1,note_on,64,0,120
1,note_on,69,0,0
1,note_on,73,0,0
1,note_on,73,52,0
1,note_on,69,44,0
1,note_on,69,0,120
1,note_on,73,0,0
1,note_on,76,55,0
1,note_on,76,0,120
1,note_on,85,59,0
1,note_on,81,50,0
1,note_on,81,0,120
1,note_on,85,0,0
1,note_on,83,64,120
1,note_on,80,54,0
1,note_on,71,54,0
1,note_on,71,0,120
1,note_on,76,52,0
1,note_on,76,0,120
1,note_on,80,0,0
1,note_on,83,0,0
1,note_on,83,54,0
1,note_on,80,45,0
1,note_on,80,0,120
1,note_on,83,0,0
1,note_on,76,57,0
1,note_on,76,0,120
1,note_on,95,61,0
1,note_on,92,51,0
1,note_on,92,0,120
1,note_on,95,0,0
1,note_on,97,73,120
1,note_on,93,63,0
1,note_on,85,60,0
1,note_on,85,0,120
1,note_on,93,0,0
1,note_on,97,0,0
1,note_on,100,33,360
1,note_on,97,27,0
1,note_on,97,0,60
1,note_on,100,0,0
1,note_on,95,34,0
1,note_on,95,0,60
1,note_on,93,36,0
1,note_on,93,0,60
1,note_on,92,36,0
1,note_on,92,0,60
1,note_on,90,38,0
1,note_on,90,0,60
1,note_on,88,39,0
1,note_on,88,0,60
1,note_on,86,41,0
1,note_on,86,0,60
1,note_on,85,42,0
1,note_on,85,0,60
1,note_on,83,44,0
1,note_on,83,0,60
1,note_on,81,45,0
1,note_on,81,0,60
1,note_on,80,46,0
1,note_on,80,0,60
1,note_on,78,47,0
1,note_on,78,0,60
1,note_on,76,49,0
1,note_on,76,0,60
1,note_on,74,50,0
1,note_on,74,0,60
1,note_on,73,52,0
1,note_on,73,0,60
1,note_on,71,53,0
1,note_on,71,0,60
1,note_on,69,54,0
1,note_on,69,0,80
1,note_on,68,55,0
1,note_on,68,0,80
1,note_on,66,57,0
1,note_on,66,0,80
1,note_on,64,55,0
1,note_on,73,57,0
1,note_on,76,70,0
1,note_on,76,0,60
1,note_on,73,0,0
1,note_on,64,0,0
1,note_on,73,65,180
1,note_on,69,55,0
1,note_on,61,55,0
1,note_on,61,0,120
1,note_on,64,47,0
1,note_on,64,0,120
1,note_on,69,0,0
1,note_on,73,0,0
1,note_on,73,52,0
1,note_on,69,44,0
1,note_on,69,0,120
1,note_on,73,0,0
1,note_on,76,55,0
1,note_on,76,0,120
1,note_on,85,59,0
1,note_on,81,50,0
1,note_on,81,0,120
1,note_on,85,0,0
1,note_on,83,64,120
1,note_on,80,54,0
1,note_on,71,54,0
1,note_on,71,0,120
1,note_on,76,52,0
1,note_on,76,0,120
1,note_on,80,0,0
1,note_on,83,0,0
1,note_on,83,54,0
1,note_on,80,45,0
1,note_on,80,0,120
1,note_on,83,0,0
1,note_on,76,57,0
1,note_on,76,0,120
1,note_on,95,61,0
1,note_on,92,51,0
1,note_on,92,0,120
1,note_on,95,0,0
1,note_on,97,73,120
1,note_on,93,63,0
1,note_on,85,60,0
1,note_on,85,0,120
1,note_on,93,0,0
1,note_on,97,0,0
1,note_on,75,43,360
1,note_on,75,0,60
1,note_on,76,45,0
1,note_on,76,0,60
1,note_on,78,46,0
1,note_on,78,0,60
1,note_on,80,48,0
1,note_on,80,0,60
1,note_on,81,50,0
1,note_on,81,0,60
1,note_on,83,51,0
1,note_on,83,0,60
1,note_on,85,53,0
1,note_on,85,0,60
1,note_on,86,54,0
1,note_on,86,0,60
1,note_on,88,56,0
1,note_on,88,0,60
1,note_on,90,58,0
1,note_on,90,0,60
1,note_on,92,60,0
1,note_on,92,0,60
1,note_on,93,62,0
1,note_on,93,0,60
1,note_on,95,63,0
1,note_on,95,0,80
1,note_on,97,65,0
1,note_on,97,0,8
1,note_on,98,68,72
1,note_on,98,0,80
1,note_on,97,84,0
1,note_on,100,84,0
1,note_on,88,71,0
1,note_on,88,0,60
1,note_on,100,0,0
1,note_on,97,0,0
1,note_on,88,73,180
1,note_on,100,87,0
1,note_on,93,73,0
1,note_on,97,73,0
1,note_on,97,0,120
1,note_on,88,0,0
1,note_on,100,0,0
1,note_on,93,0,0
1,note_on,100,81,240
1,note_on,95,68,0
1,note_on,98,81,0
1,note_on,88,68,0
1,note_on,88,0,60
1,note_on,100,0,0
1,note_on,95,0,0
1,note_on,98,0,0
1,note_on,88,69,60
1,note_on,97,69,0
1,note_on,100,82,0
1,note_on,93,69,0
1,note_on,93,0,120
1,note_on,88,0,0
1,note_on,97,0,0
1,note_on,100,0,0
1,note_on,88,72,120
1,note_on,92,72,0
1,note_on,100,86,0
1,note_on,95,72,0
1,note_on,95,0,120
1,note_on,88,0,0
1,note_on,92,0,0
1,note_on,100,0,0
1,note_on,90,68,240
1,note_on,88,68,0
1,note_on,93,68,0
1,note_on,100,81,0
1,note_on,100,0,60
1,note_on,90,0,0
1,note_on,88,0,0
1,note_on,93,0,0
1,note_on,100,81,60
1,note_on,88,68,0
1,note_on,92,68,0
1,note_on,95,68,0
1,note_on,95,0,120
1,note_on,100,0,0
1,note_on,88,0,0
1,note_on,92,0,0
1,note_on,97,72,120
1,note_on,93,72,0
1,note_on,100,85,0
1,note_on,88,72,0
1,note_on,88,0,480
1,note_on,97,0,0
1,note_on,93,0,0
1,note_on,100,0,0
1,note_on,71,45,240
1,note_on,68,37,0
1,note_on,68,0,60
1,note_on,71,0,0
1,note_on,69,41,300
1,note_on,66,35,0
1,note_on,66,0,30
1,note_on,69,0,0
1,note_on,71,41,90
1,note_on,68,35,0
1,note_on,68,0,60
1,note_on,71,0,0
1,note_on,73,45,180
1,note_on,69,37,0
1,note_on,69,0,60
1,note_on,73,0,0
1,note_on,74,43,300
1,note_on,71,36,0
1,note_on,71,0,30
1,note_on,74,0,0
1,note_on,73,43,90
1,note_on,69,36,0
1,note_on,69,0,60
1,note_on,73,0,0
1,note_on,71,45,180
1,note_on,68,37,0
1,note_on,68,0,60
1,note_on,71,0,0
1,note_on,69,40,300
1,note_on,66,34,0
1,note_on,66,0,30
1,note_on,69,0,0
1,note_on,71,40,90
1,note_on,68,34,0
1,note_on,68,0,60
1,note_on,71,0,0
1,note_on,69,45,180
1,note_on,64,37,0
1,note_on,64,0,240
1,note_on,69,0,0
1,note_on,80,72,480
1,note_on,83,72,0
1,note_on,88,86,0
1,note_on,76,72,0
1,note_on,76,0,360
1,note_on,80,0,0
1,note_on,83,0,0
1,note_on,88,0,0
1,note_on,88,81,0
1,note_on,76,68,0
1,note_on,78,68,0
1,note_on,81,68,0
1,note_on,81,0,120
1,note_on,88,0,0
1,note_on,76,0,0
1,note_on,78,0,0
1,note_on,88,81,0
1,note_on,76,68,0
1,note_on,80,68,0
1,note_on,83,68,0
1,note_on,83,0,240
1,note_on,88,0,0
1,note_on,76,0,0
1,note_on,80,0,0
1,note_on,88,87,0
1,note_on,81,73,0
1,note_on,76,73,0
1,note_on,85,73,0
1,note_on,85,0,360
1,note_on,88,0,0
1,note_on,81,0,0
1,note_on,76,0,0
1,note_on,86,81,0
1,note_on,88,81,0
1,note_on,83,68,0
1,note_on,76,68,0
1,note_on,76,0,120
1,note_on,86,0,0
1,note_on,88,0,0
1,note_on,83,0,0
1,note_on,88,82,0
1,note_on,76,69,0
1,note_on,85,69,0
1,note_on,81,69,0
1,note_on,81,0,240
1,note_on,88,0,0
1,note_on,76,0,0
1,note_on,85,0,0
1,note_on,80,72,0
1,note_on,88,86,0
1,note_on,76,72,0
1,note_on,83,72,0
1,note_on,83,0,360
1,note_on,80,0,0
1,note_on,88,0,0
1,note_on,76,0,0
1,note_on,76,68,0
1,note_on,78,68,0
1,note_on,88,81,0
1,note_on,81,68,0
1,note_on,81,0,120
1,note_on,76,0,0
1,note_on,78,0,0
1,note_on,88,0,0
1,note_on,76,68,0
1,note_on,80,68,0
1,note_on,88,81,0
1,note_on,83,68,0
1,note_on,83,0,240
1,note_on,76,0,0
1,note_on,80,0,0
1,note_on,88,0,0
1,note_on,81,72,0
1,note_on,85,81,0
1,note_on,93,95,0
1,note_on,93,0,180
1,note_on,85,0,0
1,note_on,81,0,0
1,note_on,69,49,180
1,note_on,69,0,60
1,note_on,71,49,60
1,note_on,71,0,60
1,note_on,73,56,180
1,note_on,73,0,180
1,note_on,69,50,180
1,note_on,69,0,60
1,note_on,68,50,88
1,note_on,68,0,60
1,note_on,66,55,152
1,note_on,66,0,180
1,note_on,71,58,300
1,note_on,71,0,720
1,note_on,69,52,0
1,note_on,69,0,60
1,note_on,68,58,180
1,note_on,66,49,0
1,note_on,66,0,180
1,note_on,68,0,0
1,note_on,68,51,300
1,note_on,64,43,0
1,note_on,64,0,60
1,note_on,68,0,0
1,note_on,64,55,180
1,note_on,69,55,0
1,note_on,69,0,180
1,note_on,64,0,0
1,note_on,71,53,300
1,note_on,57,45,0
1,note_on,63,45,0
1,note_on,63,0,60
1,note_on,57,0,0
1,note_on,71,0,0
1,note_on,64,56,180
1,note_on,56,47,0
1,note_on,56,0,180
1,note_on,64,0,0
1,note_on,76,49,180
1,note_on,68,41,0
1,note_on,68,0,60
1,note_on,76,0,0
1,note_on,75,49,60
1,note_on,69,41,0
1,note_on,69,0,60
1,note_on,75,0,0
1,note_on,74,54,180
1,note_on,69,45,0
1,note_on,69,0,180
1,note_on,74,0,0
1,note_on,74,50,180
1,note_on,65,42,0
1,note_on,65,0,60
1,note_on,74,0,0
1,note_on,71,52,60
1,note_on,64,44,0
1,note_on,64,0,60
1,note_on,71,0,0
1,note_on,69,58,180
1,note_on,64,49,0
1,note_on,64,0,180
1,note_on,69,0,0
1,note_on,81,54,180
1,note_on,69,45,0
1,note_on,69,0,60
1,note_on,81,0,0
1,note_on,83,57,60
1,note_on,71,48,0
1,note_on,71,0,60
1,note_on,83,0,0
1,note_on,85,63,180
1,note_on,73,53,0
1,note_on,73,0,180
1,note_on,85,0,0
1,note_on,81,54,180
1,note_on,69,45,0
1,note_on,69,0,60
1,note_on,81,0,0
1,note_on,80,54,60
1,note_on,68,45,0
1,note_on,68,0,60
1,note_on,80,0,0
1,note_on,78,60,180
1,note_on,66,50,0
1,note_on,66,0,180
1,note_on,78,0,0
1,note_on,83,62,300
1,note_on,71,52,0
1,note_on,71,0,720
1,note_on,83,0,0
1,note_on,81,52,0
1,note_on,71,44,0
1,note_on,78,44,0
1,note_on,69,44,0
1,note_on,69,0,60
1,note_on,81,0,0
1,note_on,71,0,0
1,note_on,78,0,0
1,note_on,81,55,180
1,note_on,69,46,0
1,note_on,74,46,0
1,note_on,74,0,180
1,note_on,69,0,0
1,note_on,81,0,0
1,note_on,80,51,180
1,note_on,74,43,0
1,note_on,68,43,0
1,note_on,68,0,60
1,note_on,74,0,0
1,note_on,80,0,0
1,note_on,78,51,60
1,note_on,74,43,0
1,note_on,66,43,0
1,note_on,66,0,60
1,note_on,74,0,0
1,note_on,78,0,0
1,note_on,76,56,180
1,note_on,74,47,0
1,note_on,64,47,0
1,note_on,64,0,180
1,note_on,74,0,0
1,note_on,76,0,0
1,note_on,78,52,180
1,note_on,66,44,0
1,note_on,66,0,60
1,note_on,78,0,0
1,note_on,80,52,60
1,note_on,74,44,0
1,note_on,68,44,0
1,note_on,68,0,60
1,note_on,74,0,0
1,note_on,80,0,0
1,note_on,81,55,180
1,note_on,69,46,0
1,note_on,73,46,0
1,note_on,73,0,180
1,note_on,69,0,0
1,note_on,81,0,0
1,note_on,85,60,60
1,note_on,76,51,0
1,note_on,73,51,0
1,note_on,73,0,120
1,note_on,76,0,0
1,note_on,85,0,0
1,note_on,88,67,120
1,note_on,81,57,0
1,note_on,76,57,0
1,note_on,76,0,480
1,note_on,81,0,0
1,note_on,88,0,0
1,note_on,83,54,0
1,note_on,88,65,0
1,note_on,76,54,0
1,note_on,76,0,60
1,note_on,88,0,0
1,note_on,83,0,0
1,note_on,88,65,180
1,note_on,84,54,0
1,note_on,76,54,0
1,note_on,76,0,60
1,note_on,84,0,0
1,note_on,88,0,0
1,note_on,88,71,180
1,note_on,76,60,0
1,note_on,86,60,0
1,note_on,86,0,180
1,note_on,76,0,0
1,note_on,88,0,0
1,note_on,88,66,180
1,note_on,85,56,0
1,note_on,76,56,0
1,note_on,76,0,60
1,note_on,85,0,0
1,note_on,88,0,0
1,note_on,88,66,60
1,note_on,83,56,0
1,note_on,76,56,0
1,note_on,76,0,60
1,note_on,83,0,0
1,note_on,88,0,0
1,note_on,88,72,180
1,note_on,81,62,0
1,note_on,76,62,0
1,note_on,76,0,240
1,note_on,81,0,0
1,note_on,88,0,0
1,note_on,88,68,120
1,note_on,85,58,0
1,note_on,76,58,0
1,note_on,76,0,60
1,note_on,85,0,0
1,note_on,88,0,0
1,note_on,88,68,60
1,note_on,83,58,0
1,note_on,76,58,0
1,note_on,76,0,60
1,note_on,83,0,0
1,note_on,88,0,0
1,note_on,88,73,180
1,note_on,76,63,0
1,note_on,81,63,0
1,note_on,81,0,120
1,note_on,76,0,0
1,note_on,88,0,0
1,note_on,83,61,1320
1,note_on,71,51,0
1,note_on,80,51,0
1,note_on,80,0,180
1,note_on,71,0,0
1,note_on,83,0,0
1,note_on,68,46,180
1,note_on,64,39,0
1,note_on,64,0,40
1,note_on,68,0,0
1,note_on,69,46,0
1,note_on,66,39,0
1,note_on,66,0,40
1,note_on,69,0,0
1,note_on,71,46,0
1,note_on,71,0,40
1,note_on,68,59,0
1,note_on,64,50,0
1,note_on,64,0,120
1,note_on,68,0,0
1,note_on,88,63,120
1,note_on,85,54,0
1,note_on,76,54,0
1,note_on,76,0,180
1,note_on,85,0,0
1,note_on,88,0,0
1,note_on,73,45,180
1,note_on,69,37,0
1,note_on,69,0,40
1,note_on,73,0,0
1,note_on,75,45,0
1,note_on,71,37,0
1,note_on,71,0,40
1,note_on,75,0,0
1,note_on,76,45,0
1,note_on,76,0,40
1,note_on,73,56,0
1,note_on,69,47,0
1,note_on,69,0,120
1,note_on,73,0,0
1,note_on,83,61,120
1,note_on,71,51,0
1,note_on,80,51,0
1,note_on,80,0,240
1,note_on,71,0,0
1,note_on,83,0,0
1,note_on,68,46,120
1,note_on,64,39,0
1,note_on,64,0,40
1,note_on,68,0,0
1,note_on,69,46,0
1,note_on,66,39,0
1,note_on,66,0,40
1,note_on,69,0,0
1,note_on,71,46,0
1,note_on,71,0,40
1,note_on,68,59,0
1,note_on,64,50,0
1,note_on,64,0,120
1,note_on,68,0,0
1,note_on,80,46,120
1,note_on,76,39,0
1,note_on,76,0,80
1,note_on,80,0,0
1,note_on,81,46,0
1,note_on,78,39,0
1,note_on,78,0,80
1,note_on,81,0,0
1,note_on,83,46,0
1,note_on,83,0,80
1,note_on,80,59,0
1,note_on,76,50,0
1,note_on,76,0,120
1,note_on,80,0,0
1,note_on,92,47,120
1,note_on,88,40,0
1,note_on,88,0,80
1,note_on,92,0,0
1,note_on,93,51,0
1,note_on,90,43,0
1,note_on,90,0,80
1,note_on,93,0,0
1,note_on,94,54,0
1,note_on,91,45,0
1,note_on,91,0,80
1,note_on,94,0,0
1,note_on,95,63,0
1,note_on,90,54,0
1,note_on,90,0,120
1,note_on,95,0,0
1,note_on,95,54,240
1,note_on,83,45,0
1,note_on,87,45,0
1,note_on,87,0,60
1,note_on,83,0,0
1,note_on,95,0,0
1,note_on,95,54,60
1,note_on,83,45,0
1,note_on,88,45,0
1,note_on,88,0,120
1,note_on,83,0,0
1,note_on,95,0,0
1,note_on,94,63,120
1,note_on,83,53,0
1,note_on,88,53,0
1,note_on,88,0,120
1,note_on,83,0,0
1,note_on,94,0,0
1,note_on,95,60,120
1,note_on,83,50,0
1,note_on,89,50,0
1,note_on,89,0,120
1,note_on,83,0,0
1,note_on,95,0,0
1,note_on,93,60,120
1,note_on,83,50,0
1,note_on,90,50,0
1,note_on,90,0,120
1,note_on,83,0,0
1,note_on,93,0,0
1,note_on,92,66,120
1,note_on,83,55,0
1,note_on,88,55,0
1,note_on,88,0,120
1,note_on,83,0,0
1,note_on,92,0,0
1,note_on,68,54,120
1,note_on,68,0,60
1,note_on,69,54,0
1,note_on,69,0,60
1,note_on,71,54,0
1,note_on,71,0,60
1,note_on,69,55,0
1,note_on,69,0,60
1,note_on,68,54,0
1,note_on,68,0,60
1,note_on,69,51,0
1,note_on,69,0,60
1,note_on,71,49,0
1,note_on,71,0,60
1,note_on,73,50,0
1,note_on,73,0,60
1,note_on,75,51,0
1,note_on,75,0,60
1,note_on,76,52,0
1,note_on,76,0,60
1,note_on,78,53,0
1,note_on,78,0,60
1,note_on,80,54,0
1,note_on,80,0,60
1,note_on,81,55,0
1,note_on,81,0,60
1,note_on,83,56,0
1,note_on,83,0,60
1,note_on,85,57,0
1,note_on,85,0,60
1,note_on,87,58,0
1,note_on,87,0,60
1,note_on,88,59,0
1,note_on,88,0,60
1,note_on,90,60,0
1,note_on,90,0,60
1,note_on,92,61,0
1,note_on,92,0,60
1,note_on,93,62,0
1,note_on,93,0,60
1,note_on,92,70,0
1,note_on,80,70,0
1,note_on,83,70,0
1,note_on,83,0,180
1,note_on,80,0,0
1,note_on,92,0,0
1,note_on,68,41,180
1,note_on,64,35,0
1,note_on,64,0,40
1,note_on,68,0,0
1,note_on,69,41,0
1,note_on,66,35,0
1,note_on,66,0,40
1,note_on,69,0,0
1,note_on,71,41,0
1,note_on,71,0,40
1,note_on,68,53,0
1,note_on,64,45,0
1,note_on,64,0,120
1,note_on,68,0,0
1,note_on,88,56,120
1,note_on,85,48,0
1,note_on,76,48,0
1,note_on,76,0,240
1,note_on,85,0,0
1,note_on,88,0,0
1,note_on,73,40,120
1,note_on,69,33,0
1,note_on,69,0,40
1,note_on,73,0,0
1,note_on,75,40,0
1,note_on,71,33,0
1,note_on,71,0,40
1,note_on,75,0,0
1,note_on,76,40,0
1,note_on,76,0,40
1,note_on,73,50,0
1,note_on,69,42,0
1,note_on,69,0,120
1,note_on,73,0,0
1,note_on,83,54,120
1,note_on,71,45,0
1,note_on,80,45,0
1,note_on,80,0,240
1,note_on,71,0,0
1,note_on,83,0,0
1,note_on,68,41,120
1,note_on,64,35,0
1,note_on,64,0,40
1,note_on,68,0,0
1,note_on,69,41,0
1,note_on,66,35,0
1,note_on,66,0,40
1,note_on,69,0,0
1,note_on,71,41,0
1,note_on,71,0,40
1,note_on,68,53,0
1,note_on,64,45,0
1,note_on,64,0,120
1,note_on,68,0,0
1,note_on,80,41,120
1,note_on,76,35,0
1,note_on,76,0,80
1,note_on,80,0,0
1,note_on,81,41,0
1,note_on,78,35,0
1,note_on,78,0,80
1,note_on,81,0,0
1,note_on,83,41,0
1,note_on,83,0,80
1,note_on,80,53,0
1,note_on,76,45,0
1,note_on,76,0,120
1,note_on,80,0,0
1,note_on,92,42,120
1,note_on,88,36,0
1,note_on,88,0,80
1,note_on,92,0,0
1,note_on,93,45,0
1,note_on,90,38,0
1,note_on,90,0,80
1,note_on,93,0,0
1,note_on,94,48,0
1,note_on,91,40,0
1,note_on,91,0,80
1,note_on,94,0,0
1,note_on,95,56,0
1,note_on,90,48,0
1,note_on,90,0,120
1,note_on,95,0,0
1,note_on,95,48,240
1,note_on,83,40,0
1,note_on,87,40,0
1,note_on,87,0,60
1,note_on,83,0,0
1,note_on,95,0,0
1,note_on,95,48,60
1,note_on,83,40,0
1,note_on,88,40,0
1,note_on,88,0,120
1,note_on,83,0,0
1,note_on,95,0,0
1,note_on,94,56,120
1,note_on,83,47,0
1,note_on,88,47,0
1,note_on,88,0,120
1,note_on,83,0,0
1,note_on,94,0,0
1,note_on,95,54,120
1,note_on,83,45,0
1,note_on,89,45,0
1,note_on,89,0,120
1,note_on,83,0,0
1,note_on,95,0,0
1,note_on,93,54,120
1,note_on,83,45,0
1,note_on,90,45,0
1,note_on,90,0,120
1,note_on,83,0,0
1,note_on,93,0,0
1,note_on,83,48,120
1,note_on,92,56,0
1,note_on,88,48,0
1,note_on,88,0,120
1,note_on,92,0,0
1,note_on,83,0,0
1,note_on,83,54,240
1,note_on,71,45,0
1,note_on,75,45,0
1,note_on,75,0,60
1,note_on,71,0,0
1,note_on,83,0,0
1,note_on,83,54,60
1,note_on,71,45,0
1,note_on,76,45,0
1,note_on,76,0,120
1,note_on,71,0,0
1,note_on,83,0,0
1,note_on,82,63,120
1,note_on,71,53,0
1,note_on,76,53,0
1,note_on,76,0,120
1,note_on,71,0,0
1,note_on,82,0,0
1,note_on,83,60,120
1,note_on,71,50,0
1,note_on,77,50,0
1,note_on,77,0,120
1,note_on,71,0,0
1,note_on,83,0,0
1,note_on,81,60,120
1,note_on,71,50,0
1,note_on,78,50,0
1,note_on,78,0,120
1,note_on,71,0,0
1,note_on,81,0,0
1,note_on,71,54,120
1,note_on,76,54,0
1,note_on,80,63,0
1,note_on,80,0,120
1,note_on,76,0,0
1,note_on,71,0,0
1,note_on,71,61,240
1,note_on,59,51,0
1,note_on,63,51,0
1,note_on,63,0,120
1,note_on,59,0,0
1,note_on,71,0,0
1,note_on,71,62,120
1,note_on,59,52,0
1,note_on,61,52,0
1,note_on,64,52,0
1,note_on,64,0,120
1,note_on,71,0,0
1,note_on,59,0,0
1,note_on,61,0,0
1,note_on,70,63,120
1,note_on,59,52,0
1,note_on,61,52,0
1,note_on,64,52,0
1,note_on,64,0,120
1,note_on,70,0,0
1,note_on,59,0,0
1,note_on,61,0,0
1,note_on,71,63,120
1,note_on,59,53,0
1,note_on,61,53,0
1,note_on,64,53,0
1,note_on,64,0,120
1,note_on,71,0,0
1,note_on,59,0,0
1,note_on,61,0,0
1,note_on,71,66,120
1,note_on,59,56,0
1,note_on,63,56,0
1,note_on,69,56,0
1,note_on,69,0,120
1,note_on,71,0,0
1,note_on,59,0,0
1,note_on,63,0,0
1,note_on,80,82,0
1,note_on,68,66,0
1,note_on,76,73,0
1,note_on,76,0,120
1,note_on,68,0,0
1,note_on,80,0,0
1,note_on,56,66,120
1,note_on,56,0,120
1,note_on,52,62,0
1,note_on,52,0,120
1,note_on,80,71,240
1,note_on,80,0,120
1,note_on,76,65,0
1,note_on,76,0,120
1,note_on,68,76,240
1,note_on,68,0,120
1,note_on,64,72,0
1,note_on,64,0,120
1,note_on,83,82,0
1,note_on,71,66,0
1,note_on,80,73,0
1,note_on,80,0,120
1,note_on,71,0,0
1,note_on,83,0,0
1,note_on,59,66,120
1,note_on,56,60,0
1,note_on,56,0,120
1,note_on,59,0,0
1,note_on,52,62,0
1,note_on,52,0,120
1,note_on,83,71,240
1,note_on,80,63,0
1,note_on,80,0,120
1,note_on,83,0,0
1,note_on,76,65,0
1,note_on,76,0,120
1,note_on,71,76,240
1,note_on,68,70,0
1,note_on,68,0,120
1,note_on,71,0,0
1,note_on,64,72,0
1,note_on,64,0,120
1,note_on,86,83,45
1,note_on,83,80,0
1,note_on,74,78,0
1,note_on,74,0,135
1,note_on,83,0,0
1,note_on,86,0,0
1,note_on,100,47,180
1,note_on,97,47,0
1,note_on,97,0,120
1,note_on,100,0,0
1,note_on,98,49,120
1,note_on,95,49,0
1,note_on,95,0,120
1,note_on,98,0,0
1,note_on,97,50,120
1,note_on,93,50,0
1,note_on,93,0,120
1,note_on,97,0,0
1,note_on,95,52,120
1,note_on,92,52,0
1,note_on,92,0,120
1,note_on,95,0,0
1,note_on,98,53,120
1,note_on,90,53,0
1,note_on,86,53,0
1,note_on,86,0,120
1,note_on,90,0,0
1,note_on,98,0,0
1,note_on,97,53,120
1,note_on,88,53,0
1,note_on,85,45,0
1,note_on,85,0,120
1,note_on,88,0,0
1,note_on,97,0,0
1,note_on,95,53,120
1,note_on,83,45,0
1,note_on,86,45,0
1,note_on,86,0,120
1,note_on,83,0,0
1,note_on,95,0,0
1,note_on,93,54,120
1,note_on,85,45,0
1,note_on,81,45,0
1,note_on,81,0,120
1,note_on,85,0,0
1,note_on,93,0,0
1,note_on,92,54,120
1,note_on,83,45,0
1,note_on,80,45,0
1,note_on,80,0,120
1,note_on,83,0,0
1,note_on,92,0,0
1,note_on,90,56,120
1,note_on,81,47,0
1,note_on,78,47,0
1,note_on,78,0,120
1,note_on,81,0,0
1,note_on,90,0,0
1,note_on,88,56,120
1,note_on,80,47,0
1,note_on,76,47,0
1,note_on,76,0,120
1,note_on,80,0,0
1,note_on,88,0,0
1,note_on,86,58,120
1,note_on,78,48,0
1,note_on,74,48,0
1,note_on,74,0,120
1,note_on,78,0,0
1,note_on,86,0,0
1,note_on,85,60,120
1,note_on,73,50,0
1,note_on,76,50,0
1,note_on,76,0,120
1,note_on,73,0,0
1,note_on,85,0,0
1,note_on,83,62,120
1,note_on,74,51,0
1,note_on,71,51,0
1,note_on,71,0,120
1,note_on,74,0,0
1,note_on,83,0,0
1,note_on,81,63,120
1,note_on,73,52,0
1,note_on,69,52,0
1,note_on,69,0,120
1,note_on,73,0,0
1,note_on,81,0,0
1,note_on,80,63,120
1,note_on,71,54,0
1,note_on,68,54,0
1,note_on,68,0,120
1,note_on,71,0,0
1,note_on,80,0,0
1,note_on,78,65,120
1,note_on,69,54,0
1,note_on,66,54,0
1,note_on,66,0,120
1,note_on,69,0,0
1,note_on,78,0,0
1,note_on,76,66,120
1,note_on,68,54,0
1,note_on,64,54,0
1,note_on,64,0,120
1,note_on,68,0,0
1,note_on,76,0,0
1,note_on,75,67,120
1,note_on,63,56,0
1,note_on,66,56,0
1,note_on,66,0,120
1,note_on,63,0,0
1,note_on,75,0,0
1,note_on,74,68,120
1,note_on,65,57,0
1,note_on,62,57,0
1,note_on,62,0,120
1,note_on,65,0,0
1,note_on,74,0,0
1,note_on,73,70,120
1,note_on,64,59,0
1,note_on,61,59,0
1,note_on,61,0,120
1,note_on,64,0,0
1,note_on,73,0,0
1,note_on,72,72,120
1,note_on,66,60,0
1,note_on,60,60,0
1,note_on,60,0,120
1,note_on,66,0,0
1,note_on,72,0,0
1,note_on,71,72,120
1,note_on,64,60,0
1,note_on,59,60,0
1,note_on,59,0,120
1,note_on,64,0,0
1,note_on,71,0,0
1,note_on,69,77,0
1,note_on,57,54,0
1,note_on,61,54,0
1,note_on,61,0,120
1,note_on,57,0,0
1,note_on,69,0,0
1,note_on,81,72,240
1,note_on,69,60,0
1,note_on,69,0,60
1,note_on,81,0,0
1,note_on,83,72,60
1,note_on,71,62,0
1,note_on,71,0,60
1,note_on,83,0,0
1,note_on,85,74,180
1,note_on,73,63,0
1,note_on,73,0,180
1,note_on,85,0,0
1,note_on,81,67,180
1,note_on,69,57,0
1,note_on,69,0,60
1,note_on,81,0,0
1,note_on,68,57,60
1,note_on,80,67,0
1,note_on,80,0,60
1,note_on,68,0,0
1,note_on,78,76,180
1,note_on,66,63,0
1,note_on,66,0,180
1,note_on,78,0,0
1,note_on,71,65,300
1,note_on,83,78,0
1,note_on,83,0,720
1,note_on,71,0,0
1,note_on,81,72,0
1,note_on,78,62,0
1,note_on,69,62,0
1,note_on,69,0,60
1,note_on,78,0,0
1,note_on,81,0,0
1,note_on,80,80,180
1,note_on,78,67,0
1,note_on,68,67,0
1,note_on,68,0,180
1,note_on,78,0,0
1,note_on,80,0,0
1,note_on,80,72,300
1,note_on,68,62,0
1,note_on,76,62,0
1,note_on,76,0,60
1,note_on,68,0,0
1,note_on,80,0,0
1,note_on,81,80,180
1,note_on,69,67,0
1,note_on,76,67,0
1,note_on,76,0,240
1,note_on,69,0,0
1,note_on,81,0,0
1,note_on,83,72,240
1,note_on,69,52,0
1,note_on,75,52,0
1,note_on,75,0,60
1,note_on,69,0,0
1,note_on,83,0,0
1,note_on,76,77,180
1,note_on,64,54,0
1,note_on,68,54,0
1,note_on,68,0,180
1,note_on,64,0,0
1,note_on,76,0,0
1,note_on,88,73,180
1,note_on,76,63,0
1,note_on,80,63,0
1,note_on,83,63,0
1,note_on,83,0,60
1,note_on,88,0,0
1,note_on,76,0,0
1,note_on,80,0,0
1,note_on,89,73,60
1,note_on,85,73,0
1,note_on,77,63,0
1,note_on,81,63,0
1,note_on,81,0,60
1,note_on,89,0,0
1,note_on,85,0,0
1,note_on,77,0,0
1,note_on,89,81,180
1,note_on,77,69,0
1,note_on,82,69,0
1,note_on,86,69,0
1,note_on,86,0,240
1,note_on,89,0,0
1,note_on,77,0,0
1,note_on,82,0,0
1,note_on,91,74,120
1,note_on,79,63,0
1,note_on,83,63,0
1,note_on,86,63,0
1,note_on,86,0,60
1,note_on,91,0,0
1,note_on,79,0,0
1,note_on,83,0,0
1,note_on,92,74,60
1,note_on,80,63,0
1,note_on,83,63,0
1,note_on,86,63,0
1,note_on,86,0,60
1,note_on,92,0,0
1,note_on,80,0,0
1,note_on,83,0,0
1,note_on,93,82,180
1,note_on,81,70,0
1,note_on,85,70,0
1,note_on,85,0,180
1,note_on,81,0,0
1,note_on,93,0,0
1,note_on,81,80,540
1,note_on,69,67,0
1,note_on,73,67,0
1,note_on,76,67,0
1,note_on,76,0,180
1,note_on,81,0,0
1,note_on,69,0,0
1,note_on,73,0,0
1,note_on,95,79,900
1,note_on,83,66,0
1,note_on,83,0,60
1,note_on,95,0,0
1,note_on,97,81,60
1,note_on,85,69,0
1,note_on,85,0,60
1,note_on,97,0,0
1,note_on,98,84,180
1,note_on,86,71,0
1,note_on,86,0,240
1,note_on,98,0,0
1,note_on,95,76,120
1,note_on,83,63,0
1,note_on,83,0,60
1,note_on,95,0,0
1,note_on,93,76,60
1,note_on,81,63,0
1,note_on,90,63,0
1,note_on,90,0,60
1,note_on,81,0,0
1,note_on,93,0,0
1,note_on,93,81,180
1,note_on,81,69,0
1,note_on,86,69,0
1,note_on,86,0,180
1,note_on,81,0,0
1,note_on,93,0,0
1,note_on,92,74,180
1,note_on,86,63,0
1,note_on,80,63,0
1,note_on,80,0,60
1,note_on,86,0,0
1,note_on,92,0,0
1,note_on,90,78,60
1,note_on,86,65,0
1,note_on,78,65,0
1,note_on,78,0,60
1,note_on,86,0,0
1,note_on,90,0,0
1,note_on,88,80,180
1,note_on,86,67,0
1,note_on,76,67,0
1,note_on,76,0,180
1,note_on,86,0,0
1,note_on,88,0,0
1,note_on,86,64,180
1,note_on,90,77,0
1,note_on,78,64,0
1,note_on,78,0,60
1,note_on,90,0,0
1,note_on,86,0,0
1,note_on,92,77,60
1,note_on,86,64,0
1,note_on,80,64,0
1,note_on,80,0,60
1,note_on,86,0,0
1,note_on,92,0,0
1,note_on,93,80,180
1,note_on,81,67,0
1,note_on,85,67,0
1,note_on,85,0,180
1,note_on,81,0,0
1,note_on,93,0,0
1,note_on,97,84,60
1,note_on,88,71,0
1,note_on,85,71,0
1,note_on,85,0,120
1,note_on,88,0,0
1,note_on,97,0,0
1,note_on,100,88,120
1,note_on,93,74,0
1,note_on,88,74,0
1,note_on,88,0,480
1,note_on,93,0,0
1,note_on,100,0,0
1,note_on,100,85,0
1,note_on,88,72,0
1,note_on,95,72,0
1,note_on,95,0,60
1,note_on,88,0,0
1,note_on,100,0,0
1,note_on,100,85,180
1,note_on,96,72,0
1,note_on,88,72,0
1,note_on,88,0,60
1,note_on,96,0,0
1,note_on,100,0,0
1,note_on,100,92,180
1,note_on,98,92,0
1,note_on,88,78,0
1,note_on,88,0,180
1,note_on,98,0,0
1,note_on,100,0,0
1,note_on,100,87,180
1,note_on,97,73,0
1,note_on,88,73,0
1,note_on,88,0,60
1,note_on,97,0,0
1,note_on,100,0,0
1,note_on,100,87,60
1,note_on,96,73,0
1,note_on,88,73,0
1,note_on,88,0,60
1,note_on,96,0,0
1,note_on,100,0,0
1,note_on,100,95,180
1,note_on,95,81,0
1,note_on,88,81,0
1,note_on,88,0,180
1,note_on,95,0,0
1,note_on,100,0,0
1,note_on,100,90,60
1,note_on,88,74,0
1,note_on,94,74,0
1,note_on,94,0,120
1,note_on,88,0,0
1,note_on,100,0,0
1,note_on,100,90,120
1,note_on,93,74,0
1,note_on,88,74,0
1,note_on,88,0,60
1,note_on,93,0,0
1,note_on,100,0,0
1,note_on,100,93,180
1,note_on,88,79,0
1,note_on,93,79,0
1,note_on,93,0,180
1,note_on,88,0,0
1,note_on,100,0,0
1,note_on,100,87,60
1,note_on,88,73,0
1,note_on,92,73,0
1,note_on,92,0,120
1,note_on,88,0,0
1,note_on,100,0,0
1,note_on,100,87,120
1,note_on,93,73,0
1,note_on,88,73,0
1,note_on,88,0,60
1,note_on,93,0,0
1,note_on,100,0,0
1,note_on,100,94,180
1,note_on,97,80,0
1,note_on,88,80,0
1,note_on,88,0,480
1,note_on,97,0,0
1,note_on,100,0,0
1,note_on,100,90,0
1,note_on,95,76,0
1,note_on,88,76,0
1,note_on,88,0,60
1,note_on,95,0,0
1,note_on,100,0,0
1,note_on,93,80,540
1,note_on,81,67,0
1,note_on,81,0,120
1,note_on,93,0,0
1,note_on,93,80,0
1,note_on,81,67,0
1,note_on,81,0,120
1,note_on,93,0,0
1,note_on,93,83,120
1,note_on,81,71,0
1,note_on,81,0,120
1,note_on,93,0,0
1,note_on,57,77,960
1,note_on,45,65,0
1,note_on,45,0,120
1,note_on,57,0,0
1,note_on,57,77,0
1,note_on,45,65,0
1,note_on,45,0,120
1,note_on,57,0,0
1,note_on,57,85,120
1,note_on,45,72,0
1,note_on,45,0,120
1,note_on,57,0,0
1,note_on,69,83,600
1,note_on,57,71,0
1,note_on,60,66,360
1,note_on,63,66,0
1,note_on,66,66,0
1,note_on,66,0,120
1,note_on,60,0,0
1,note_on,63,0,0
1,note_on,60,66,0
1,note_on,63,66,0
1,note_on,66,66,0
1,note_on,66,0,240
1,note_on,60,0,0
1,note_on,69,0,0
1,note_on,57,0,0
1,note_on,63,0,0
1,note_on,69,81,0
1,note_on,57,69,0
1,note_on,60,64,360
1,note_on,63,64,0
1,note_on,66,64,0
1,note_on,66,0,120
1,note_on,60,0,0
1,note_on,69,0,0
1,note_on,57,0,0
1,note_on,63,0,0
1,note_on,60,64,0
1,note_on,63,64,0
1,note_on,66,64,0
1,note_on,57,63,180
1,note_on,69,72,0
1,note_on,69,0,60
1,note_on,66,0,0
1,note_on,60,0,0
1,note_on,63,0,0
1,note_on,57,0,0
1,note_on,69,83,0
1,note_on,57,71,0
1,note_on,60,66,360
1,note_on,63,66,0
1,note_on,66,66,0
1,note_on,66,0,120
1,note_on,60,0,0
1,note_on,63,0,0
1,note_on,60,66,0
1,note_on,63,66,0
1,note_on,66,66,0
1,note_on,66,0,240
1,note_on,60,0,0
1,note_on,69,0,0
1,note_on,57,0,0
1,note_on,63,0,0
1,note_on,69,81,0
1,note_on,57,69,0
1,note_on,60,64,360
1,note_on,63,64,0
1,note_on,66,64,0
1,note_on,66,0,120
1,note_on,60,0,0
1,note_on,69,0,0
1,note_on,57,0,0
1,note_on,63,0,0
1,note_on,60,64,0
1,note_on,63,64,0
1,note_on,66,64,0
1,note_on,66,0,240
1,note_on,63,0,0
1,note_on,60,0,0
1,note_on,70,83,0
1,note_on,58,71,0
1,note_on,63,66,360
1,note_on,66,66,0
1,note_on,66,0,60
1,note_on,63,0,0
1,note_on,63,66,60
1,note_on,66,66,0
1,note_on,66,0,120
1,note_on,63,0,0
1,note_on,63,66,120
1,note_on,66,66,0
1,note_on,66,0,360
1,note_on,63,0,0
1,note_on,61,64,0
1,note_on,64,64,0
1,note_on,64,0,60
1,note_on,61,0,0
1,note_on,61,64,60
1,note_on,64,64,0
1,note_on,64,0,120
1,note_on,61,0,0
1,note_on,58,0,120
1,note_on,70,0,0
1,note_on,58,66,0
1,note_on,61,66,0
1,note_on,64,66,0
1,note_on,64,0,360
1,note_on,61,0,0
1,note_on,62,64,0
1,note_on,65,64,0
1,note_on,65,0,60
1,note_on,62,0,0
1,note_on,58,0,60
1,note_on,62,64,0
1,note_on,65,64,0
1,note_on,65,0,120
1,note_on,62,0,0
1,note_on,62,66,120
1,note_on,65,66,0
1,note_on,65,0,360
1,note_on,62,0,0
1,note_on,58,64,0
1,note_on,63,64,0
1,note_on,66,64,0
1,note_on,66,0,60
1,note_on,63,0,0
1,note_on,58,0,0
1,note_on,58,64,60
1,note_on,64,64,0
1,note_on,67,64,0
1,note_on,67,0,120
1,note_on,64,0,0
1,note_on,58,0,0
1,note_on,59,66,120
1,note_on,65,66,0
1,note_on,68,66,0
1,note_on,68,0,120
1,note_on,65,0,0
1,note_on,59,0,0
1,note_on,95,80,240
1,note_on,83,67,0
1,note_on,83,0,120
1,note_on,95,0,0
1,note_on,95,80,0
1,note_on,83,67,0
1,note_on,83,0,120
1,note_on,95,0,0
1,note_on,95,83,120
1,note_on,83,71,0
1,note_on,83,0,120
1,note_on,95,0,0
1,note_on,71,77,960
1,note_on,59,65,0
1,note_on,59,0,120
1,note_on,71,0,0
1,note_on,71,77,0
1,note_on,59,65,0
1,note_on,59,0,120
1,note_on,71,0,0
1,note_on,71,85,120
1,note_on,59,72,0
1,note_on,59,0,120
1,note_on,71,0,0
1,note_on,62,64,240
1,note_on,65,64,0
1,note_on,68,64,0
1,note_on,68,0,120
1,note_on,65,0,0
1,note_on,62,0,0
1,note_on,61,64,0
1,note_on,65,64,0
1,note_on,68,64,0
1,note_on,59,63,180
1,note_on,71,72,0
1,note_on,71,0,60
1,note_on,68,0,0
1,note_on,61,0,0
1,note_on,65,0,0
1,note_on,59,0,0
1,note_on,72,83,0
1,note_on,60,71,0
1,note_on,65,66,360
1,note_on,68,66,0
1,note_on,68,0,60
1,note_on,65,0,0
1,note_on,65,66,60
1,note_on,68,66,0
1,note_on,68,0,120
1,note_on,65,0,0
1,note_on,65,66,120
1,note_on,68,66,0
1,note_on,68,0,360
1,note_on,65,0,0
1,note_on,63,64,0
1,note_on,66,64,0
1,note_on,66,0,60
1,note_on,63,0,0
1,note_on,63,64,60
1,note_on,66,64,0
1,note_on,66,0,120
1,note_on,63,0,0
1,note_on,60,0,120
1,note_on,72,0,0
1,note_on,60,66,0
1,note_on,63,66,0
1,note_on,66,66,0
1,note_on,66,0,360
1,note_on,63,0,0
1,note_on,64,64,0
1,note_on,67,64,0
1,note_on,67,0,60
1,note_on,64,0,0
1,note_on,64,64,60
1,note_on,67,64,0
1,note_on,67,0,120
1,note_on,64,0,0
1,note_on,64,66,120
1,note_on,67,66,0
1,note_on,60,0,240
1,note_on,67,0,120
1,note_on,64,0,0
1,note_on,65,64,0
1,note_on,68,64,0
1,note_on,68,0,60
1,note_on,65,0,0
1,note_on,66,64,60
1,note_on,69,64,0
1,note_on,69,0,120
1,note_on,66,0,0
1,note_on,61,66,120
1,note_on,67,66,0
1,note_on,70,66,0
1,note_on,70,0,120
1,note_on,67,0,0
1,note_on,61,0,0
1,note_on,97,80,240
1,note_on,85,67,0
1,note_on,85,0,120
1,note_on,97,0,0
1,note_on,97,80,0
1,note_on,85,67,0
1,note_on,85,0,120
1,note_on,97,0,0
1,note_on,97,83,120
1,note_on,85,71,0
1,note_on,85,0,120
1,note_on,97,0,0
1,note_on,64,63,960
1,note_on,70,63,0
1,note_on,73,63,0
1,note_on,61,63,0
1,note_on,61,0,120
1,note_on,64,0,0
1,note_on,70,0,0
1,note_on,73,0,0
1,note_on,64,63,0
1,note_on,70,63,0
1,note_on,73,63,0
1,note_on,61,63,0
1,note_on,61,0,120
1,note_on,64,0,0
1,note_on,70,0,0
1,note_on,73,0,0
1,note_on,64,69,120
1,note_on,70,69,0
1,note_on,73,69,0
1,note_on,61,69,0
1,note_on,61,0,120
1,note_on,64,0,0
1,note_on,70,0,0
1,note_on,73,0,0
1,note_on,70,64,240
1,note_on,62,64,0
1,note_on,67,64,0
1,note_on,74,64,0
1,note_on,74,0,120
1,note_on,70,0,0
1,note_on,62,0,0
1,note_on,67,0,0
1,note_on,70,64,0
1,note_on,62,64,0
1,note_on,67,64,0
1,note_on,74,64,0
1,note_on,74,0,120
1,note_on,70,0,0
1,note_on,62,0,0
1,note_on,67,0,0
1,note_on,67,66,120
1,note_on,73,66,0
1,note_on,75,66,0
1,note_on,63,66,0
1,note_on,70,66,0
1,note_on,70,0,120
1,note_on,75,0,0
1,note_on,67,0,0
1,note_on,73,0,0
1,note_on,63,0,0
1,note_on,99,80,240
1,note_on,87,67,0
1,note_on,87,0,120
1,note_on,99,0,0
1,note_on,99,80,0
1,note_on,87,67,0
1,note_on,87,0,120
1,note_on,99,0,0
1,note_on,99,83,120
1,note_on,87,71,0
1,note_on,87,0,120
1,note_on,99,0,0
1,note_on,67,63,960
1,note_on,73,63,0
1,note_on,75,63,0
1,note_on,63,63,0
1,note_on,63,0,120
1,note_on,67,0,0
1,note_on,73,0,0
1,note_on,75,0,0
1,note_on,67,63,0
1,note_on,73,63,0
1,note_on,75,63,0
1,note_on,63,63,0
1,note_on,63,0,120
1,note_on,67,0,0
1,note_on,73,0,0
1,note_on,75,0,0
1,note_on,67,69,120
1,note_on,73,69,0
1,note_on,75,69,0
1,note_on,63,69,0
1,note_on,63,0,120
1,note_on,67,0,0
1,note_on,73,0,0
1,note_on,75,0,0
1,note_on,76,54,240
1,note_on,73,32,0
1,note_on,64,32,0
1,note_on,67,32,0
1,note_on,67,0,120
1,note_on,76,0,0
1,note_on,73,0,0
1,note_on,64,0,0
1,note_on,76,54,0
1,note_on,73,32,0
1,note_on,64,32,0
1,note_on,67,32,0
1,note_on,67,0,120
1,note_on,76,0,0
1,note_on,73,0,0
1,note_on,64,0,0
1,note_on,77,61,120
1,note_on,70,36,0
1,note_on,65,36,0
1,note_on,73,36,0
1,note_on,73,0,120
1,note_on,77,0,0
1,note_on,70,0,0
1,note_on,65,0,0
1,note_on,101,53,240
1,note_on,89,31,0
1,note_on,89,0,120
1,note_on,101,0,0
1,note_on,101,53,0
1,note_on,89,31,0
1,note_on,89,0,120
1,note_on,101,0,0
1,note_on,101,62,120
1,note_on,89,36,0
1,note_on,89,0,120
1,note_on,101,0,0
1,note_on,89,50,240
1,note_on,77,29,0
1,note_on,77,0,120
1,note_on,89,0,0
1,note_on,89,50,0
1,note_on,77,29,0
1,note_on,77,0,120
1,note_on,89,0,0
1,note_on,89,59,120
1,note_on,77,35,0
1,note_on,77,0,120
1,note_on,89,0,0
1,note_on,65,56,120
1,note_on,53,53,0
1,note_on,53,0,120
1,note_on,52,54,0
1,note_on,52,0,120
1,note_on,51,55,0
1,note_on,51,0,120
1,note_on,50,57,0
1,note_on,50,0,120
1,note_on,65,0,0
1,note_on,49,58,0
1,note_on,49,0,120
1,note_on,48,60,0
1,note_on,48,0,120
1,note_on,47,62,0
1,note_on,47,0,120
1,note_on,46,63,0
1,note_on,46,0,120
1,note_on,45,64,0
1,note_on,45,0,120
1,note_on,93,53,480
1,note_on,81,31,0
1,note_on,81,0,120
1,note_on,93,0,0
1,note_on,93,53,0
1,note_on,81,31,0
1,note_on,81,0,120
1,note_on,93,0,0
1,note_on,93,62,120
1,note_on,81,36,0
1,note_on,81,0,120
1,note_on,93,0,0
1,note_on,81,50,240
1,note_on,69,29,0
1,note_on,69,0,120
1,note_on,81,0,0
1,note_on,81,50,0
1,note_on,69,29,0
1,note_on,69,0,120
1,note_on,81,0,0
1,note_on,81,59,120
1,note_on,69,35,0
1,note_on,69,0,120
1,note_on,81,0,0
1,note_on,69,56,120
1,note_on,57,53,0
1,note_on,57,0,120
1,note_on,56,54,0
1,note_on,56,0,120
1,note_on,55,55,0
1,note_on,55,0,120
1,note_on,54,57,0
1,note_on,54,0,120
1,note_on,69,0,0
1,note_on,53,58,0
1,note_on,53,0,120
1,note_on,52,60,0
1,note_on,52,0,120
1,note_on,51,62,0
1,note_on,51,0,120
1,note_on,50,63,0
1,note_on,50,0,120
1,note_on,49,64,0
1,note_on,49,0,120
1,note_on,97,53,480
1,note_on,85,31,0
1,note_on,85,0,120
1,note_on,97,0,0
1,note_on,97,53,0
1,note_on,85,31,0
1,note_on,85,0,120
1,note_on,97,0,0
1,note_on,97,62,120
1,note_on,85,36,0
1,note_on,85,0,120
1,note_on,97,0,0
1,note_on,85,50,240
1,note_on,73,29,0
1,note_on,73,0,120
1,note_on,85,0,0
1,note_on,85,50,0
1,note_on,73,29,0
1,note_on,73,0,120
1,note_on,85,0,0
1,note_on,73,56,360
1,note_on,61,53,0
1,note_on,61,0,120
1,note_on,60,54,0
1,note_on,60,0,120
1,note_on,59,55,0
1,note_on,59,0,120
1,note_on,58,57,0
1,note_on,58,0,120
1,note_on,73,0,0
1,note_on,57,58,0
1,note_on,57,0,120
1,note_on,56,60,0
1,note_on,56,0,120
1,note_on,53,62,0
1,note_on,53,0,120
1,note_on,50,63,0
1,note_on,50,0,120
1,note_on,49,64,0
1,note_on,49,0,120
1,note_on,85,53,480
1,note_on,73,31,0
1,note_on,73,0,120
1,note_on,85,0,0
1,note_on,85,53,0
1,note_on,73,31,0
1,note_on,73,0,120
1,note_on,85,0,0
1,note_on,85,62,120
1,note_on,73,36,0
1,note_on,73,0,120
1,note_on,85,0,0
1,note_on,73,50,240
1,note_on,61,29,0
1,note_on,61,0,120
1,note_on,73,0,0
1,note_on,73,50,0
1,note_on,61,29,0
1,note_on,61,0,120
1,note_on,73,0,0
1,note_on,49,36,360
1,note_on,49,0,120
1,note_on,48,33,0
1,note_on,48,0,120
1,note_on,47,32,0
1,note_on,47,0,120
1,note_on,46,31,0
1,note_on,46,0,120
1,note_on,45,30,0
1,note_on,45,0,102
1,note_on,44,30,0
1,note_on,44,0,102
1,note_on,43,29,0
1,note_on,43,0,102
1,note_on,42,29,0
1,note_on,42,0,102
1,note_on,41,28,0
1,note_on,41,0,102
1,note_on,40,27,0
1,note_on,40,0,102
1,note_on,39,27,0
1,note_on,39,0,108
1,note_on,84,36,0
1,note_on,78,36,0
1,note_on,90,36,0
1,note_on,90,0,120
1,note_on,78,0,0
1,note_on,84,0,0
1,note_on,89,38,0
1,note_on,89,0,120
1,note_on,88,39,0
1,note_on,88,0,120
1,note_on,87,39,0
1,note_on,87,0,120
1,note_on,86,40,0
1,note_on,86,0,120
1,note_on,85,40,0
1,note_on,85,0,120
1,note_on,84,41,0
1,note_on,84,0,120
1,note_on,83,41,0
1,note_on,83,0,120
1,note_on,82,42,0
1,note_on,82,0,120
1,note_on,81,42,0
1,note_on,81,0,120
1,note_on,80,43,0
1,note_on,80,0,120
1,note_on,79,43,0
1,note_on,79,0,120
1,note_on,78,44,0
1,note_on,78,0,120
1,note_on,77,46,0
1,note_on,77,0,120
1,note_on,76,47,0
1,note_on,76,0,120
1,note_on,75,49,0
1,note_on,75,0,120
1,note_on,74,50,0
1,note_on,74,0,120
1,note_on,73,51,0
1,note_on,73,0,120
1,note_on,72,53,0
1,note_on,72,0,120
1,note_on,71,54,0
1,note_on,71,0,120
1,note_on,70,55,0
1,note_on,70,0,120
1,note_on,69,56,0
1,note_on,69,0,120
1,note_on,68,57,0
1,note_on,68,0,120
1,note_on,66,59,0
1,note_on,66,0,120
1,note_on,61,58,0
1,note_on,65,58,0
1,note_on,73,69,0
1,note_on,73,0,120
1,note_on,65,0,0
1,note_on,61,0,0
1,note_on,97,64,240
1,note_on,89,54,0
1,note_on,85,54,0
1,note_on,85,0,120
1,note_on,89,0,0
1,note_on,97,0,0
1,note_on,97,64,0
1,note_on,89,54,0
1,note_on,85,54,0
1,note_on,85,0,120
1,note_on,89,0,0
1,note_on,97,0,0
1,note_on,97,70,120
1,note_on,89,59,0
1,note_on,85,59,0
1,note_on,85,0,120
1,note_on,89,0,0
1,note_on,97,0,0
1,note_on,85,65,240
1,note_on,77,55,0
1,note_on,73,55,0
1,note_on,73,0,120
1,note_on,77,0,0
1,note_on,85,0,0
1,note_on,85,65,0
1,note_on,77,55,0
1,note_on,73,55,0
1,note_on,73,0,120
1,note_on,77,0,0
1,note_on,85,0,0
1,note_on,73,58,120
1,note_on,77,58,0
1,note_on,85,69,0
1,note_on,85,0,120
1,note_on,77,0,0
1,note_on,73,0,0
1,note_on,73,64,240
1,note_on,65,54,0
1,note_on,61,54,0
1,note_on,61,0,120
1,note_on,65,0,0
1,note_on,73,0,0
1,note_on,73,64,0
1,note_on,65,54,0
1,note_on,61,54,0
1,note_on,61,0,120
1,note_on,65,0,0
1,note_on,73,0,0
1,note_on,73,70,120
1,note_on,65,59,0
1,note_on,61,59,0
1,note_on,61,0,120
1,note_on,65,0,0
1,note_on,73,0,0
1,note_on,61,65,240
1,note_on,53,55,0
1,note_on,49,55,0
1,note_on,49,0,120
1,note_on,53,0,0
1,note_on,61,0,0
1,note_on,61,65,0
1,note_on,53,55,0
1,note_on,49,55,0
1,note_on,49,0,120
1,note_on,53,0,0
1,note_on,61,0,0
1,note_on,84,36,120
1,note_on,78,36,0
1,note_on,90,36,0
1,note_on,90,0,120
1,note_on,78,0,0
1,note_on,84,0,0
1,note_on,89,38,0
1,note_on,89,0,120
1,note_on,88,39,0
1,note_on,88,0,120
1,note_on,87,39,0
1,note_on,87,0,120
1,note_on,86,40,0
1,note_on,86,0,120
1,note_on,85,40,0
1,note_on,85,0,120
1,note_on,84,41,0
1,note_on,84,0,120
1,note_on,83,41,0
1,note_on,83,0,120
1,note_on,82,42,0
1,note_on,82,0,120
1,note_on,81,42,0
1,note_on,81,0,120
1,note_on,80,43,0
1,note_on,80,0,120
1,note_on,79,43,0
1,note_on,79,0,120
1,note_on,78,44,0
1,note_on,78,0,102
1,note_on,77,46,0
1,note_on,77,0,102
1,note_on,76,47,0
1,note_on,76,0,102
1,note_on,75,49,0
1,note_on,75,0,102
1,note_on,74,50,0
1,note_on,74,0,102
1,note_on,73,51,0
1,note_on,73,0,102
1,note_on,72,51,0
1,note_on,72,0,108
1,note_on,69,62,0
1,note_on,71,72,0
1,note_on,66,49,0
1,note_on,66,0,120
1,note_on,71,0,0
1,note_on,69,0,0
1,note_on,65,45,0
1,note_on,65,0,120
1,note_on,64,45,0
1,note_on,64,0,120
1,note_on,63,45,0
1,note_on,63,0,120
1,note_on,60,45,0
1,note_on,60,0,120
1,note_on,59,45,0
1,note_on,59,0,120
1,note_on,86,36,0
1,note_on,80,36,0
1,note_on,92,36,0
1,note_on,92,0,120
1,note_on,80,0,0
1,note_on,86,0,0
1,note_on,91,38,0
1,note_on,91,0,120
1,note_on,90,39,0
1,note_on,90,0,120
1,note_on,89,39,0
1,note_on,89,0,120
1,note_on,88,40,0
1,note_on,88,0,120
1,note_on,87,40,0
1,note_on,87,0,120
1,note_on,86,41,0
1,note_on,86,0,120
1,note_on,85,41,0
1,note_on,85,0,120
1,note_on,84,42,0
1,note_on,84,0,120
1,note_on,83,42,0
1,note_on,83,0,120
1,note_on,82,43,0
1,note_on,82,0,120
1,note_on,81,43,0
1,note_on,81,0,120
1,note_on,80,44,0
1,note_on,80,0,102
1,note_on,79,46,0
1,note_on,79,0,102
1,note_on,78,47,0
1,note_on,78,0,102
1,note_on,77,49,0
1,note_on,77,0,102
1,note_on,76,50,0
1,note_on,76,0,102
1,note_on,75,51,0
1,note_on,75,0,102
1,note_on,74,51,0
1,note_on,74,0,108
1,note_on,71,61,0
1,note_on,73,74,0
1,note_on,68,49,0
1,note_on,68,0,120
1,note_on,73,0,0
1,note_on,71,0,0
1,note_on,67,50,0
1,note_on,67,0,120
1,note_on,66,52,0
1,note_on,66,0,120
1,note_on,65,54,0
1,note_on,65,0,120
1,note_on,62,56,0
1,note_on,62,0,120
1,note_on,61,58,0
1,note_on,61,0,120
1,note_on,69,67,0
1,note_on,72,69,0
1,note_on,75,70,0
1,note_on,81,78,0
1,note_on,81,0,120
1,note_on,69,0,0
1,note_on,72,0,0
1,note_on,75,0,0
1,note_on,93,84,120
1,note_on,81,71,0
1,note_on,81,0,120
1,note_on,93,0,0
1,note_on,91,86,120
1,note_on,79,73,0
1,note_on,79,0,120
1,note_on,91,0,0
1,note_on,89,88,120
1,note_on,77,74,0
1,note_on,77,0,120
1,note_on,89,0,0
1,note_on,87,90,120
1,note_on,75,75,0
1,note_on,75,0,120
1,note_on,87,0,0
1,note_on,85,91,120
1,note_on,73,77,0
1,note_on,73,0,120
1,note_on,85,0,0
1,note_on,83,93,120
1,note_on,71,79,0
1,note_on,71,0,120
1,note_on,83,0,0
1,note_on,81,95,120
1,note_on,69,80,0
1,note_on,69,0,120
1,note_on,81,0,0
1,note_on,79,96,120
1,note_on,67,81,0
1,note_on,67,0,120
1,note_on,79,0,0
1,note_on,77,99,120
1,note_on,65,83,0
1,note_on,65,0,120
1,note_on,77,0,0
1,note_on,75,101,120
1,note_on,63,85,0
1,note_on,63,0,80
1,note_on,75,0,0
1,note_on,73,102,80
1,note_on,61,85,0
1,note_on,61,0,80
1,note_on,73,0,0
1,note_on,72,102,0
1,note_on,60,86,0
1,note_on,63,86,0
1,note_on,63,0,120
1,note_on,60,0,0
1,note_on,72,0,0
1,note_on,73,104,120
1,note_on,61,88,0
1,note_on,65,88,0
1,note_on,65,0,120
1,note_on,61,0,0
1,note_on,73,0,0
1,note_on,97,79,240
1,note_on,89,67,0
1,note_on,85,67,0
1,note_on,85,0,120
1,note_on,89,0,0
1,note_on,97,0,0
1,note_on,97,79,0
1,note_on,89,67,0
1,note_on,85,67,0
1,note_on,85,0,120
1,note_on,89,0,0
1,note_on,97,0,0
1,note_on,97,85,120
1,note_on,89,72,0
1,note_on,85,72,0
1,note_on,85,0,120
1,note_on,89,0,0
1,note_on,97,0,0
1,note_on,85,80,240
1,note_on,77,68,0
1,note_on,73,68,0
1,note_on,73,0,120
1,note_on,77,0,0
1,note_on,85,0,0
1,note_on,85,80,0
1,note_on,77,68,0
1,note_on,73,68,0
1,note_on,73,0,120
1,note_on,77,0,0
1,note_on,85,0,0
1,note_on,73,71,120
1,note_on,77,71,0
1,note_on,85,84,0
1,note_on,85,0,120
1,note_on,77,0,0
1,note_on,73,0,0
1,note_on,73,79,240
1,note_on,65,67,0
1,note_on,61,67,0
1,note_on,61,0,120
1,note_on,65,0,0
1,note_on,73,0,0
1,note_on,73,79,0
1,note_on,65,67,0
1,note_on,61,67,0
1,note_on,61,0,120
1,note_on,65,0,0
1,note_on,73,0,0
1,note_on,73,85,120
1,note_on,65,72,0
1,note_on,61,72,0
1,note_on,61,0,120
1,note_on,65,0,0
1,note_on,73,0,0
1,note_on,61,80,240
1,note_on,53,68,0
1,note_on,49,68,0
1,note_on,49,0,120
1,note_on,53,0,0
1,note_on,61,0,0
1,note_on,61,80,0
1,note_on,53,68,0
1,note_on,49,68,0
1,note_on,49,0,120
1,note_on,53,0,0
1,note_on,61,0,0
1,note_on,69,75,120
1,note_on,72,77,0
1,note_on,75,78,0
1,note_on,81,87,0
1,note_on,81,0,120
1,note_on,69,0,0
1,note_on,72,0,0
1,note_on,75,0,0
1,note_on,93,84,120
1,note_on,81,71,0
1,note_on,81,0,120
1,note_on,93,0,0
1,note_on,91,86,120
1,note_on,79,73,0
1,note_on,79,0,120
1,note_on,91,0,0
1,note_on,89,88,120
1,note_on,77,74,0
1,note_on,77,0,120
1,note_on,89,0,0
1,note_on,87,90,120
1,note_on,75,75,0
1,note_on,75,0,120
1,note_on,87,0,0
1,note_on,85,91,120
1,note_on,73,77,0
1,note_on,73,0,120
1,note_on,85,0,0
1,note_on,83,93,120
1,note_on,71,79,0
1,note_on,71,0,120
1,note_on,83,0,0
1,note_on,81,95,120
1,note_on,69,80,0
1,note_on,69,0,120
1,note_on,81,0,0
1,note_on,79,96,120
1,note_on,67,81,0
1,note_on,67,0,120
1,note_on,79,0,0
1,note_on,77,99,120
1,note_on,65,83,0
1,note_on,65,0,120
1,note_on,77,0,0
1,note_on,75,101,120
1,note_on,63,85,0
1,note_on,63,0,80
1,note_on,75,0,0
1,note_on,73,102,80
1,note_on,61,85,0
1,note_on,61,0,80
1,note_on,73,0,0
1,note_on,72,102,0
1,note_on,60,86,0
1,note_on,63,86,0
1,note_on,63,0,120
1,note_on,60,0,0
1,note_on,72,0,0
1,note_on,73,104,120
1,note_on,61,88,0
1,note_on,65,88,0
1,note_on,65,0,120
1,note_on,61,0,0
1,note_on,73,0,0
1,note_on,97,79,240
1,note_on,89,67,0
1,note_on,85,67,0
1,note_on,85,0,120
1,note_on,89,0,0
1,note_on,97,0,0
1,note_on,97,79,0
1,note_on,89,67,0
1,note_on,85,67,0
1,note_on,85,0,120
1,note_on,89,0,0
1,note_on,97,0,0
1,note_on,97,85,120
1,note_on,89,72,0
1,note_on,85,72,0
1,note_on,85,0,120
1,note_on,89,0,0
1,note_on,97,0,0
1,note_on,85,80,240
1,note_on,77,68,0
1,note_on,73,68,0
1,note_on,73,0,120
1,note_on,77,0,0
1,note_on,85,0,0
1,note_on,85,80,0
1,note_on,77,68,0
1,note_on,73,68,0
1,note_on,73,0,120
1,note_on,77,0,0
1,note_on,85,0,0
1,note_on,73,71,120
1,note_on,77,71,0
1,note_on,85,84,0
1,note_on,85,0,120
1,note_on,77,0,0
1,note_on,73,0,0
1,note_on,73,79,240
1,note_on,65,67,0
1,note_on,61,67,0
1,note_on,61,0,120
1,note_on,65,0,0
1,note_on,73,0,0
1,note_on,73,79,0
1,note_on,65,67,0
1,note_on,61,67,0
1,note_on,61,0,120
1,note_on,65,0,0
1,note_on,73,0,0
1,note_on,73,85,120
1,note_on,65,72,0
1,note_on,61,72,0
1,note_on,61,0,120
1,note_on,65,0,0
1,note_on,73,0,0
1,note_on,61,80,240
1,note_on,53,68,0
1,note_on,49,68,0
1,note_on,49,0,120
1,note_on,53,0,0
1,note_on,61,0,0
1,note_on,61,80,0
1,note_on,53,68,0
1,note_on,49,68,0
1,note_on,49,0,120
1,note_on,53,0,0
1,note_on,61,0,0
1,note_on,66,64,120
1,note_on,54,54,0
1,note_on,54,0,101
1,note_on,66,0,0
1,note_on,68,66,139
1,note_on,56,56,0
1,note_on,56,0,101
1,note_on,68,0,0
1,note_on,70,68,139
1,note_on,58,57,0
1,note_on,58,0,101
1,note_on,70,0,0
1,note_on,72,70,139
1,note_on,60,59,0
1,note_on,60,0,100
1,note_on,72,0,1
1,note_on,74,73,139
1,note_on,62,62,0
1,note_on,62,0,101
1,note_on,74,0,0
1,note_on,76,75,139
1,note_on,64,63,0
1,note_on,64,0,101
1,note_on,76,0,0
1,note_on,78,84,139
1,note_on,66,71,0
1,note_on,70,71,0
1,note_on,73,71,0
1,note_on,73,0,101
1,note_on,78,0,0
1,note_on,66,0,0
1,note_on,70,0,0
1,note_on,76,76,139
1,note_on,64,64,0
1,note_on,64,0,101
1,note_on,76,0,0
1,note_on,74,73,139
1,note_on,62,62,0
1,note_on,62,0,101
1,note_on,74,0,0
1,note_on,72,71,139
1,note_on,60,60,0
1,note_on,60,0,101
1,note_on,72,0,0
1,note_on,70,69,139
1,note_on,58,58,0
1,note_on,58,0,101
1,note_on,70,0,0
1,note_on,68,67,139
1,note_on,56,56,0
1,note_on,56,0,101
1,note_on,68,0,0
1,note_on,66,65,139
1,note_on,54,55,0
1,note_on,54,0,120
1,note_on,66,0,0
1,note_on,62,54,0
1,note_on,59,54,0
1,note_on,67,64,0
1,note_on,55,54,0
1,note_on,55,0,120
1,note_on,62,0,0
1,note_on,59,0,0
1,note_on,67,0,0
1,note_on,69,66,120
1,note_on,57,56,0
1,note_on,57,0,120
1,note_on,69,0,0
1,note_on,71,68,120
1,note_on,59,57,0
1,note_on,59,0,120
1,note_on,71,0,0
1,note_on,73,70,120
1,note_on,61,59,0
1,note_on,61,0,120
1,note_on,73,0,0
1,note_on,75,73,120
1,note_on,63,62,0
1,note_on,63,0,120
1,note_on,75,0,0
1,note_on,77,75,120
1,note_on,65,63,0
1,note_on,65,0,120
1,note_on,77,0,0
1,note_on,67,63,120
1,note_on,79,76,0
1,note_on,79,0,120
1,note_on,67,0,0
1,note_on,80,84,0
1,note_on,68,71,0
1,note_on,72,71,0
1,note_on,75,71,0
1,note_on,75,0,120
1,note_on,80,0,0
1,note_on,68,0,0
1,note_on,72,0,0
1,note_on,78,76,120
1,note_on,66,64,0
1,note_on,66,0,120
1,note_on,78,0,0
1,note_on,76,73,120
1,note_on,64,62,0
1,note_on,64,0,120
1,note_on,76,0,0
1,note_on,74,71,120
1,note_on,62,60,0
1,note_on,62,0,120
1,note_on,74,0,0
1,note_on,72,69,120
1,note_on,60,58,0
1,note_on,60,0,120
1,note_on,72,0,0
1,note_on,70,67,120
1,note_on,58,56,0
1,note_on,58,0,120
1,note_on,70,0,0
1,note_on,68,65,120
1,note_on,56,55,0
1,note_on,56,0,120
1,note_on,68,0,0
1,note_on,66,54,0
1,note_on,61,54,0
1,note_on,69,64,0
1,note_on,57,54,0
1,note_on,57,0,120
1,note_on,66,0,0
1,note_on,61,0,0
1,note_on,69,0,0
1,note_on,71,66,120
1,note_on,59,56,0
1,note_on,59,0,120
1,note_on,71,0,0
1,note_on,73,68,120
1,note_on,61,57,0
1,note_on,61,0,120
1,note_on,73,0,0
1,note_on,75,70,120
1,note_on,63,59,0
1,note_on,63,0,120
1,note_on,75,0,0
1,note_on,77,73,120
1,note_on,65,62,0
1,note_on,65,0,120
1,note_on,77,0,0
1,note_on,79,75,120
1,note_on,67,63,0
1,note_on,67,0,120
1,note_on,79,0,0
1,note_on,69,63,120
1,note_on,81,76,0
1,note_on,81,0,120
1,note_on,69,0,0
1,note_on,82,84,0
1,note_on,70,71,0
1,note_on,79,71,0
1,note_on,76,71,0
1,note_on,76,0,119
1,note_on,79,0,0
1,note_on,70,0,1
1,note_on,82,0,0
1,note_on,80,76,120
1,note_on,68,64,0
1,note_on,68,0,120
1,note_on,80,0,0
1,note_on,78,73,120
1,note_on,66,62,0
1,note_on,66,0,120
1,note_on,78,0,0
1,note_on,76,71,120
1,note_on,64,60,0
1,note_on,64,0,120
1,note_on,76,0,0
1,note_on,74,69,120
1,note_on,62,58,0
1,note_on,62,0,120
1,note_on,74,0,0
1,note_on,72,67,120
1,note_on,60,56,0
1,note_on,60,0,120
1,note_on,72,0,0
1,note_on,70,65,120
1,note_on,58,55,0
1,note_on,58,0,120
1,note_on,70,0,0
1,note_on,59,43,0
1,note_on,67,43,0
1,note_on,71,57,0
1,note_on,71,0,80
1,note_on,67,0,0
1,note_on,59,0,0
1,note_on,60,46,0
1,note_on,60,0,80
1,note_on,61,46,0
1,note_on,61,0,80
1,note_on,62,46,0
1,note_on,62,0,80
1,note_on,63,46,0
1,note_on,63,0,80
1,note_on,64,47,0
1,note_on,64,0,80
1,note_on,65,47,0
1,note_on,65,0,80
1,note_on,66,47,0
1,note_on,66,0,80
1,note_on,67,47,0
1,note_on,67,0,80
1,note_on,68,47,0
1,note_on,68,0,80
1,note_on,69,48,0
1,note_on,69,0,80
1,note_on,70,48,0
1,note_on,70,0,80
1,note_on,71,48,0
1,note_on,71,0,80
1,note_on,72,48,0
1,note_on,72,0,80
1,note_on,73,48,0
1,note_on,73,0,80
1,note_on,74,49,0
1,note_on,74,0,80
1,note_on,75,49,0
1,note_on,75,0,80
1,note_on,76,49,0
1,note_on,76,0,80
1,note_on,77,49,0
1,note_on,77,0,80
1,note_on,78,49,0
1,note_on,78,0,80
1,note_on,79,50,0
1,note_on,79,0,80
1,note_on,80,51,0
1,note_on,80,0,80
1,note_on,81,52,0
1,note_on,81,0,80
1,note_on,82,53,0
1,note_on,82,0,80
1,note_on,83,54,0
1,note_on,83,0,80
1,note_on,84,55,0
1,note_on,84,0,80
1,note_on,85,56,0
1,note_on,85,0,80
1,note_on,86,57,0
1,note_on,86,0,80
1,note_on,87,57,0
1,note_on,87,0,80
1,note_on,88,58,0
1,note_on,88,0,80
1,note_on,89,59,0
1,note_on,89,0,80
1,note_on,90,60,0
1,note_on,90,0,80
1,note_on,91,61,0
1,note_on,91,0,80
1,note_on,92,62,0
1,note_on,92,0,60
1,note_on,93,62,0
1,note_on,93,0,60
1,note_on,94,63,0
1,note_on,94,0,60
1,note_on,95,64,0
1,note_on,95,0,60
1,note_on,96,97,0
1,note_on,93,64,0
1,note_on,93,0,96
1,note_on,96,0,0
1,note_on,95,64,0
1,note_on,92,54,0
1,note_on,92,0,96
1,note_on,95,0,0
1,note_on,94,63,0
1,note_on,91,53,0
1,note_on,91,0,96
1,note_on,94,0,0
1,note_on,93,62,0
1,note_on,90,52,0
1,note_on,90,0,96
1,note_on,93,0,0
1,note_on,92,61,0
1,note_on,89,51,0
1,note_on,89,0,96
1,note_on,92,0,0
1,note_on,91,60,0
1,note_on,88,51,0
1,note_on,88,0,96
1,note_on,91,0,0
1,note_on,90,59,0
1,note_on,87,50,0
1,note_on,87,0,96
1,note_on,90,0,0
1,note_on,89,58,0
1,note_on,86,49,0
1,note_on,86,0,96
1,note_on,89,0,0
1,note_on,88,57,0
1,note_on,85,48,0
1,note_on,85,0,96
1,note_on,88,0,0
1,note_on,87,56,0
1,note_on,84,47,0
1,note_on,84,0,96
1,note_on,87,0,0
1,note_on,86,55,0
1,note_on,83,46,0
1,note_on,83,0,96
1,note_on,86,0,0
1,note_on,85,55,0
1,note_on,82,46,0
1,note_on,82,0,96
1,note_on,85,0,0
1,note_on,84,54,0
1,note_on,81,45,0
1,note_on,81,0,96
1,note_on,84,0,0
1,note_on,83,53,0
1,note_on,80,45,0
1,note_on,80,0,96
1,note_on,83,0,0
1,note_on,82,52,0
1,note_on,79,44,0
1,note_on,79,0,96
1,note_on,82,0,0
1,note_on,81,52,0
1,note_on,78,44,0
1,note_on,78,0,80
1,note_on,81,0,0
1,note_on,80,52,0
1,note_on,77,44,0
1,note_on,77,0,80
1,note_on,80,0,0
1,note_on,79,51,0
1,note_on,76,43,0
1,note_on,76,0,80
1,note_on,79,0,0
1,note_on,78,51,0
1,note_on,75,43,0
1,note_on,75,0,80
1,note_on,78,0,0
1,note_on,77,50,0
1,note_on,74,42,0
1,note_on,74,0,80
1,note_on,77,0,0
1,note_on,76,50,0
1,note_on,73,42,0
1,note_on,73,0,80
1,note_on,76,0,0
1,note_on,75,49,0
1,note_on,72,41,0
1,note_on,72,0,80
1,note_on,75,0,0
1,note_on,74,49,0
1,note_on,71,41,0
1,note_on,71,0,80
1,note_on,74,0,0
1,note_on,73,48,0
1,note_on,70,40,0
1,note_on,70,0,80
1,note_on,73,0,0
1,note_on,72,48,0
1,note_on,69,40,0
1,note_on,69,0,80
1,note_on,72,0,0
1,note_on,71,47,0
1,note_on,68,39,0
1,note_on,68,0,80
1,note_on,71,0,0
1,note_on,70,47,0
1,note_on,67,39,0
1,note_on,67,0,80
1,note_on,70,0,0
1,note_on,69,46,0
1,note_on,66,39,0
1,note_on,66,0,80
1,note_on,69,0,0
1,note_on,68,46,0
1,note_on,65,39,0
1,note_on,65,0,80
1,note_on,68,0,0
1,note_on,67,45,0
1,note_on,64,38,0
1,note_on,64,0,80
1,note_on,67,0,0
1,note_on,66,45,0
1,note_on,63,38,0
1,note_on,63,0,80
1,note_on,66,0,0
1,note_on,65,44,0
1,note_on,62,37,0
1,note_on,62,0,80
1,note_on,65,0,0
1,note_on,64,44,0
1,note_on,61,37,0
1,note_on,61,0,80
1,note_on,64,0,0
1,note_on,63,57,0
1,note_on,60,48,0
1,note_on,60,0,103
1,note_on,63,0,0
1,note_on,64,46,0
1,note_on,61,39,0
1,note_on,61,0,102
1,note_on,64,0,0
1,note_on,65,46,0
1,note_on,62,39,0
1,note_on,62,0,102
1,note_on,63,39,0
1,note_on,66,46,0
1,note_on,65,0,1
1,note_on,66,0,102
1,note_on,63,0,0
1,note_on,64,39,0
1,note_on,67,46,0
1,note_on,67,0,102
1,note_on,64,0,0
1,note_on,68,47,0
1,note_on,65,39,0
1,note_on,65,0,103
1,note_on,68,0,0
1,note_on,69,47,0
1,note_on,66,39,0
1,note_on,66,0,102
1,note_on,69,0,0
1,note_on,70,47,0
1,note_on,67,39,0
1,note_on,68,39,102
1,note_on,71,47,0
1,note_on,67,0,1
1,note_on,70,0,0
1,note_on,68,0,101
1,note_on,71,0,1
1,note_on,69,40,0
1,note_on,72,48,0
1,note_on,72,0,102
1,note_on,69,0,0
1,note_on,73,48,0
1,note_on,70,40,0
1,note_on,70,0,103
1,note_on,73,0,0
1,note_on,74,48,0
1,note_on,71,40,0
1,note_on,71,0,102
1,note_on,74,0,0
1,note_on,75,48,0
1,note_on,72,40,0
1,note_on,76,48,102
1,note_on,73,40,0
1,note_on,72,0,1
1,note_on,75,0,0
1,note_on,73,0,102
1,note_on,76,0,6
1,note_on,77,49,0
1,note_on,74,41,0
1,note_on,74,0,72
1,note_on,77,0,0
1,note_on,78,49,0
1,note_on,75,41,0
1,note_on,75,0,72
1,note_on,78,0,0
1,note_on,79,50,0
1,note_on,76,42,0
1,note_on,76,0,72
1,note_on,79,0,0
1,note_on,80,51,0
1,note_on,77,43,0
1,note_on,77,0,72
1,note_on,80,0,0
1,note_on,81,52,0
1,note_on,78,44,0
1,note_on,78,0,72
1,note_on,81,0,0
1,note_on,82,53,0
1,note_on,79,45,0
1,note_on,79,0,72
1,note_on,82,0,0
1,note_on,83,54,0
1,note_on,80,45,0
1,note_on,80,0,72
1,note_on,83,0,0
1,note_on,84,55,0
1,note_on,81,46,0
1,note_on,81,0,72
1,note_on,84,0,0
1,note_on,85,56,0
1,note_on,82,47,0
1,note_on,82,0,72
1,note_on,85,0,0
1,note_on,86,57,0
1,note_on,83,48,0
1,note_on,83,0,72
1,note_on,86,0,0
1,note_on,87,57,0
1,note_on,84,48,0
1,note_on,84,0,72
1,note_on,87,0,0
1,note_on,88,58,0
1,note_on,85,49,0
1,note_on,85,0,72
1,note_on,88,0,0
1,note_on,89,59,0
1,note_on,86,50,0
1,note_on,86,0,72
1,note_on,89,0,0
1,note_on,90,60,0
1,note_on,87,51,0
1,note_on,87,0,72
1,note_on,90,0,0
1,note_on,91,61,0
1,note_on,88,51,0
1,note_on,88,0,72
1,note_on,91,0,0
1,note_on,92,62,0
1,note_on,89,52,0
1,note_on,89,0,72
1,note_on,92,0,0
1,note_on,93,63,0
1,note_on,90,53,0
1,note_on,90,0,72
1,note_on,93,0,0
1,note_on,94,65,0
1,note_on,91,55,0
1,note_on,91,0,72
1,note_on,94,0,0
1,note_on,95,66,0
1,note_on,92,56,0
1,note_on,92,0,72
1,note_on,95,0,0
1,note_on,96,71,0
1,note_on,93,60,0
1,note_on,93,0,72
1,note_on,96,0,0
1,note_on,97,97,0
1,note_on,94,64,0
1,note_on,94,0,103
1,note_on,97,0,0
1,note_on,96,64,0
1,note_on,93,54,0
1,note_on,93,0,102
1,note_on,96,0,0
1,note_on,95,63,1
1,note_on,92,53,0
1,note_on,92,0,102
1,note_on,95,0,0
1,note_on,94,62,0
1,note_on,91,52,0
1,note_on,91,0,103
1,note_on,94,0,0
1,note_on,93,61,0
1,note_on,90,51,0
1,note_on,90,0,103
1,note_on,93,0,0
1,note_on,92,60,0
1,note_on,89,51,0
1,note_on,89,0,102
1,note_on,92,0,0
1,note_on,91,59,1
1,note_on,88,50,0
1,note_on,88,0,102
1,note_on,91,0,0
1,note_on,90,58,0
1,note_on,87,49,0
1,note_on,87,0,103
1,note_on,90,0,0
1,note_on,89,57,0
1,note_on,86,48,0
1,note_on,86,0,103
1,note_on,89,0,0
1,note_on,88,56,0
1,note_on,85,47,0
1,note_on,85,0,102
1,note_on,88,0,0
1,note_on,87,55,0
1,note_on,84,46,0
1,note_on,84,0,103
1,note_on,87,0,0
1,note_on,86,55,0
1,note_on,83,46,0
1,note_on,83,0,103
1,note_on,86,0,0
1,note_on,85,54,0
1,note_on,82,45,0
1,note_on,82,0,102
1,note_on,85,0,0
1,note_on,81,45,0
1,note_on,84,53,0
1,note_on,84,0,105
1,note_on,81,0,0
1,note_on,85,70,0
1,note_on,82,59,0
1,note_on,82,0,103
1,note_on,85,0,0
1,note_on,81,51,0
1,note_on,84,60,0
1,note_on,84,0,102
1,note_on,81,0,0
1,note_on,80,50,0
1,note_on,83,59,0
1,note_on,83,0,102
1,note_on,80,0,0
1,note_on,79,50,1
1,note_on,82,59,0
1,note_on,82,0,103
1,note_on,79,0,0
1,note_on,81,58,0
1,note_on,78,49,0
1,note_on,80,57,102
1,note_on,78,0,1
1,note_on,81,0,0
1,note_on,77,48,0
1,note_on,80,0,101
1,note_on,77,0,1
1,note_on,79,56,1
1,note_on,76,47,0
1,note_on,76,0,102
1,note_on,79,0,0
1,note_on,78,56,0
1,note_on,75,47,0
1,note_on,78,0,102
1,note_on,75,0,1
1,note_on,77,55,0
1,note_on,74,46,0
1,note_on,74,0,103
1,note_on,77,0,0
1,note_on,76,54,0
1,note_on,73,45,0
1,note_on,73,0,102
1,note_on,76,0,0
1,note_on,72,45,0
1,note_on,75,53,0
1,note_on,75,0,103
1,note_on,72,0,0
1,note_on,74,52,0
1,note_on,71,44,0
1,note_on,71,0,103
1,note_on,74,0,0
1,note_on,70,44,0
1,note_on,73,52,0
1,note_on,73,0,102
1,note_on,70,0,0
1,note_on,72,51,0
1,note_on,69,43,0
1,note_on,69,0,105
1,note_on,72,0,0
1,note_on,73,61,0
1,note_on,70,51,0
1,note_on,70,0,103
1,note_on,73,0,0
1,note_on,69,46,0
1,note_on,72,55,0
1,note_on,72,0,102
1,note_on,69,0,0
1,note_on,68,45,0
1,note_on,71,54,1
1,note_on,68,0,101
1,note_on,71,0,1
1,note_on,67,45,0
1,note_on,70,53,0
1,note_on,70,0,103
1,note_on,67,0,0
1,note_on,69,53,0
1,note_on,66,45,0
1,note_on,66,0,102
1,note_on,68,52,0
1,note_on,69,0,1
1,note_on,65,44,0
1,note_on,68,0,101
1,note_on,65,0,1
1,note_on,67,51,1
1,note_on,64,43,0
1,note_on,64,0,102
1,note_on,67,0,0
1,note_on,66,50,0
1,note_on,63,42,0
1,note_on,66,0,102
1,note_on,63,0,1
1,note_on,65,49,0
1,note_on,62,41,0
1,note_on,62,0,103
1,note_on,65,0,0
1,note_on,64,48,0
1,note_on,61,40,0
1,note_on,61,0,102
1,note_on,64,0,0
1,note_on,60,39,0
1,note_on,63,47,0
1,note_on,63,0,103
1,note_on,60,0,0
1,note_on,62,46,0
1,note_on,59,39,0
1,note_on,59,0,103
1,note_on,62,0,0
1,note_on,58,38,0
1,note_on,61,45,0
1,note_on,61,0,102
1,note_on,58,0,0
1,note_on,60,45,0
1,note_on,57,38,0
1,note_on,57,0,105
1,note_on,60,0,0
1,note_on,61,71,0
1,note_on,58,71,0
1,note_on,58,0,120
1,note_on,57,53,0
1,note_on,57,0,120
1,note_on,61,0,0
1,note_on,61,53,0
1,note_on,58,53,0
1,note_on,58,0,120
1,note_on,57,53,0
1,note_on,57,0,120
1,note_on,61,0,0
1,note_on,61,53,0
1,note_on,58,53,0
1,note_on,58,0,120
1,note_on,57,53,0
1,note_on,57,0,120
1,note_on,61,0,0
1,note_on,61,53,0
1,note_on,58,53,0
1,note_on,58,0,120
1,note_on,57,53,0
1,note_on,57,0,120
1,note_on,61,0,0
1,note_on,61,53,0
1,note_on,58,53,0
1,note_on,58,0,120
1,note_on,57,53,0
1,note_on,57,0,120
1,note_on,61,0,0
1,note_on,61,53,0
1,note_on,58,53,0
1,note_on,58,0,120
1,note_on,57,53,0
1,note_on,57,0,120
1,note_on,61,0,0
1,note_on,61,71,0
1,note_on,58,71,0
1,note_on,58,0,120
1,note_on,57,53,0
1,note_on,57,0,120
1,note_on,61,0,0
1,note_on,61,53,0
1,note_on,58,53,0
1,note_on,58,0,120
1,note_on,57,53,0
1,note_on,57,0,120
1,note_on,61,0,0
1,note_on,61,53,0
1,note_on,58,53,0
1,note_on,58,0,120
1,note_on,57,53,0
1,note_on,57,0,120
1,note_on,61,0,0
1,note_on,63,70,0
1,note_on,58,53,0
1,note_on,58,0,120
1,note_on,57,53,0
1,note_on,57,0,120
1,note_on,63,0,0
1,note_on,63,53,0
1,note_on,58,53,0
1,note_on,58,0,120
1,note_on,57,53,0
1,note_on,57,0,120
1,note_on,63,0,0
1,note_on,63,53,0
1,note_on,58,53,0
1,note_on,58,0,120
1,note_on,60,53,0
1,note_on,60,0,120
1,note_on,63,0,0
1,note_on,65,77,0
1,note_on,53,77,0
1,note_on,57,77,0
1,note_on,57,0,240
1,note_on,53,0,0
1,note_on,65,0,0
1,note_on,52,75,0
1,note_on,64,75,0
1,note_on,64,0,240
1,note_on,52,0,0
1,note_on,53,70,0
1,note_on,65,70,0
1,note_on,65,0,240
1,note_on,53,0,0
1,note_on,64,84,0
1,note_on,76,84,0
1,note_on,76,0,240
1,note_on,64,0,0
1,note_on,65,80,0
1,note_on,77,80,0
1,note_on,77,0,240
1,note_on,65,0,0
1,note_on,88,99,0
1,note_on,76,99,0
1,note_on,76,0,240
1,note_on,88,0,0
1,note_on,77,97,0
1,note_on,89,97,0
1,note_on,89,0,240
1,note_on,77,0,0
1,note_on,76,82,0
1,note_on,64,82,0
1,note_on,64,0,240
1,note_on,76,0,0
1,note_on,65,79,0
1,note_on,77,79,0
1,note_on,77,0,240
1,note_on,65,0,0
1,note_on,52,76,0
1,note_on,64,76,0
1,note_on,64,0,240
1,note_on,52,0,0
1,note_on,53,74,0
1,note_on,65,74,0
1,note_on,65,0,240
1,note_on,53,0,0
1,note_on,53,76,0
1,note_on,53,0,240
1,note_on,97,82,0
1,note_on,94,69,0
1,note_on,94,0,120
1,note_on,97,0,0
1,note_on,96,64,0
1,note_on,93,54,0
1,note_on,93,0,120
1,note_on,96,0,0
1,note_on,95,64,0
1,note_on,92,54,0
1,note_on,92,0,120
1,note_on,95,0,0
1,note_on,94,63,0
1,note_on,91,53,0
1,note_on,91,0,120
1,note_on,94,0,0
1,note_on,93,62,0
1,note_on,90,52,0
1,note_on,90,0,120
1,note_on,93,0,0
1,note_on,92,62,0
1,note_on,89,52,0
1,note_on,89,0,120
1,note_on,92,0,0
1,note_on,91,61,0
1,note_on,88,52,0
1,note_on,88,0,120
1,note_on,91,0,0
1,note_on,90,60,0
1,note_on,87,51,0
1,note_on,87,0,120
1,note_on,90,0,0
1,note_on,89,60,0
1,note_on,86,51,0
1,note_on,86,0,120
1,note_on,89,0,0
1,note_on,88,59,0
1,note_on,85,51,0
1,note_on,85,0,120
1,note_on,88,0,0
1,note_on,87,59,0
1,note_on,84,50,0
1,note_on,84,0,120
1,note_on,87,0,0
1,note_on,86,59,0
1,note_on,83,50,0
1,note_on,83,0,120
1,note_on,86,0,0
1,note_on,85,58,0
1,note_on,82,49,0
1,note_on,82,0,120
1,note_on,85,0,0
1,note_on,84,57,0
1,note_on,81,48,0
1,note_on,81,0,120
1,note_on,84,0,0
1,note_on,83,57,0
1,note_on,80,48,0
1,note_on,80,0,120
1,note_on,83,0,0
1,note_on,82,57,0
1,note_on,79,47,0
1,note_on,79,0,120
1,note_on,82,0,0
1,note_on,81,56,0
1,note_on,78,47,0
1,note_on,78,0,120
1,note_on,81,0,0
1,note_on,80,56,0
1,note_on,77,47,0
1,note_on,77,0,120
1,note_on,80,0,0
1,note_on,73,46,0
1,note_on,79,55,0
1,note_on,76,46,0
1,note_on,76,0,120
1,note_on,79,0,0
1,note_on,73,0,0
1,note_on,75,54,0
1,note_on,72,45,0
1,note_on,72,0,120
1,note_on,75,0,0
1,note_on,74,54,0
1,note_on,70,45,0
1,note_on,70,0,120
1,note_on,74,0,0
1,note_on,72,53,0
1,note_on,69,44,0
1,note_on,69,0,120
1,note_on,72,0,0
1,note_on,71,52,0
1,note_on,68,43,0
1,note_on,68,0,120
1,note_on,71,0,0
1,note_on,70,52,0
1,note_on,67,43,0
1,note_on,67,0,70
1,note_on,70,0,0
1,note_on,65,77,30
1,note_on,72,81,10
1,note_on,81,94,10
1,note_on,81,0,240
1,note_on,72,0,0
1,note_on,65,0,0
1,note_on,64,75,0
1,note_on,76,75,0
1,note_on,76,0,240
1,note_on,64,0,0
1,note_on,65,71,0
1,note_on,77,71,0
1,note_on,77,0,240
1,note_on,65,0,0
1,note_on,76,88,0
1,note_on,88,88,0
1,note_on,88,0,240
1,note_on,76,0,0
1,note_on,77,83,0
1,note_on,89,83,0
1,note_on,89,0,240
1,note_on,77,0,0
1,note_on,100,101,0
1,note_on,88,101,0
1,note_on,88,0,240
1,note_on,100,0,0
1,note_on,89,98,0
1,note_on,101,98,0
1,note_on,101,0,240
1,note_on,89,0,0
1,note_on,88,82,0
1,note_on,76,82,0
1,note_on,76,0,240
1,note_on,88,0,0
1,note_on,77,79,0
1,note_on,89,79,0
1,note_on,89,0,240
1,note_on,77,0,0
1,note_on,64,76,0
1,note_on,76,76,0
1,note_on,76,0,240
1,note_on,64,0,0
1,note_on,65,74,0
1,note_on,77,74,0
1,note_on,77,0,240
1,note_on,65,0,0
1,note_on,53,76,0
1,note_on,53,0,240
1,note_on,97,82,0
1,note_on,94,69,0
1,note_on,94,0,120
1,note_on,97,0,0
1,note_on,96,64,0
1,note_on,93,54,0
1,note_on,93,0,120
1,note_on,96,0,0
1,note_on,95,64,0
1,note_on,92,54,0
1,note_on,92,0,120
1,note_on,95,0,0
1,note_on,94,63,0
1,note_on,91,53,0
1,note_on,91,0,120
1,note_on,94,0,0
1,note_on,93,62,0
1,note_on,90,52,0
1,note_on,90,0,120
1,note_on,93,0,0
1,note_on,92,62,0
1,note_on,89,52,0
1,note_on,89,0,120
1,note_on,92,0,0
1,note_on,91,61,0
1,note_on,88,52,0
1,note_on,88,0,120
1,note_on,91,0,0
1,note_on,90,60,0
1,note_on,87,51,0
1,note_on,87,0,120
1,note_on,90,0,0
1,note_on,89,60,0
1,note_on,86,51,0
1,note_on,86,0,120
1,note_on,89,0,0
1,note_on,88,59,0
1,note_on,85,51,0
1,note_on,85,0,120
1,note_on,88,0,0
1,note_on,87,59,0
1,note_on,84,50,0
1,note_on,84,0,120
1,note_on,87,0,0
1,note_on,86,59,0
1,note_on,83,50,0
1,note_on,83,0,120
1,note_on,86,0,0
1,note_on,85,58,0
1,note_on,82,49,0
1,note_on,82,0,120
1,note_on,85,0,0
1,note_on,84,57,0
1,note_on,81,48,0
1,note_on,81,0,120
1,note_on,84,0,0
1,note_on,83,57,0
1,note_on,80,48,0
1,note_on,80,0,120
1,note_on,83,0,0
1,note_on,82,57,0
1,note_on,79,47,0
1,note_on,79,0,120
1,note_on,82,0,0
1,note_on,81,56,0
1,note_on,78,47,0
1,note_on,78,0,120
1,note_on,81,0,0
1,note_on,80,56,0
1,note_on,77,47,0
1,note_on,77,0,120
1,note_on,80,0,0
1,note_on,73,46,0
1,note_on,79,55,0
1,note_on,76,46,0
1,note_on,76,0,120
1,note_on,79,0,0
1,note_on,73,0,0
1,note_on,75,54,0
1,note_on,72,45,0
1,note_on,72,0,120
1,note_on,75,0,0
1,note_on,74,54,0
1,note_on,70,45,0
1,note_on,70,0,120
1,note_on,74,0,0
1,note_on,72,53,0
1,note_on,69,44,0
1,note_on,69,0,120
1,note_on,72,0,0
1,note_on,71,52,0
1,note_on,68,43,0
1,note_on,68,0,120
1,note_on,71,0,0
1,note_on,70,52,0
1,note_on,67,43,0
1,note_on,67,0,70
1,note_on,70,0,0
1,note_on,65,77,30
1,note_on,72,81,10
1,note_on,81,94,10
1,note_on,81,0,240
1,note_on,72,0,0
1,note_on,65,0,0
1,note_on,64,75,0
1,note_on,76,75,0
1,note_on,76,0,240
1,note_on,64,0,0
1,note_on,65,71,0
1,note_on,77,71,0
1,note_on,77,0,240
1,note_on,65,0,0
1,note_on,76,88,0
1,note_on,88,88,0
1,note_on,88,0,240
1,note_on,76,0,0
1,note_on,77,83,0
1,note_on,89,83,0
1,note_on,89,0,240
1,note_on,77,0,0
1,note_on,100,102,0
1,note_on,88,102,0
1,note_on,88,0,240
1,note_on,100,0,0
1,note_on,89,98,0
1,note_on,101,98,0
1,note_on,101,0,480
1,note_on,89,0,0
1,note_on,53,58,0
1,note_on,53,0,73
1,note_on,54,59,0
1,note_on,54,0,73
1,note_on,55,59,1
1,note_on,55,0,73
1,note_on,56,60,0
1,note_on,56,0,73
1,note_on,57,61,0
1,note_on,57,0,73
1,note_on,58,61,0
1,note_on,58,0,73
1,note_on,59,62,0
1,note_on,59,0,73
1,note_on,60,63,1
1,note_on,60,0,73
1,note_on,61,64,0
1,note_on,61,0,73
1,note_on,62,64,0
1,note_on,62,0,73
1,note_on,63,65,0
1,note_on,63,0,73
1,note_on,64,66,0
1,note_on,64,0,73
1,note_on,65,66,0
1,note_on,65,0,82
1,note_on,66,99,0
1,note_on,66,0,1920
1,note_on,57,99,0
1,note_on,57,0,1920
1,note_on,61,99,0
1,note_on,61,0,1920
1,note_on,52,96,0
1,note_on,52,0,1920
1,note_on,53,40,0
1,note_on,53,0,240
1,note_on,54,33,0
1,note_on,54,0,240
1,note_on,53,40,0
1,note_on,53,0,240
1,note_on,54,33,0
1,note_on,54,0,240
1,note_on,53,40,0
1,note_on,53,0,240
1,note_on,58,34,0
1,note_on,58,0,240
1,note_on,57,34,0
1,note_on,57,0,240
1,note_on,54,34,0
1,note_on,54,0,240
1,note_on,53,40,0
1,note_on,53,0,240
1,note_on,54,36,0
1,note_on,54,0,240
1,note_on,53,40,0
1,note_on,53,0,240
1,note_on,54,36,0
1,note_on,54,0,240
1,note_on,53,40,0
1,note_on,53,0,240
1,note_on,58,35,0
1,note_on,58,0,240
1,note_on,57,35,0
1,note_on,57,0,240
1,note_on,54,35,0
1,note_on,54,0,240
1,note_on,53,40,0
1,note_on,53,0,240
1,note_on,54,35,0
1,note_on,54,0,240
1,note_on,53,40,0
1,note_on,53,0,240
1,note_on,54,35,0
1,note_on,54,0,240
1,note_on,53,40,0
1,note_on,53,0,240
1,note_on,58,34,0
1,note_on,58,0,240
1,note_on,57,34,0
1,note_on,57,0,240
1,note_on,54,34,0
1,note_on,54,0,240
1,note_on,53,40,0
1,note_on,53,0,240
1,note_on,54,36,0
1,note_on,54,0,240
1,note_on,53,40,0
1,note_on,53,0,240
1,note_on,54,36,0
1,note_on,54,0,240
1,note_on,53,40,0
1,note_on,53,0,240
1,note_on,58,35,0
1,note_on,58,0,240
1,note_on,57,35,0
1,note_on,57,0,240
1,note_on,54,35,0
1,note_on,54,0,240
1,note_on,53,40,0
1,note_on,53,0,240
1,note_on,54,36,0
1,note_on,54,0,240
1,note_on,53,40,0
1,note_on,53,0,240
1,note_on,54,36,0
1,note_on,54,0,240
1,note_on,53,43,0
1,note_on,53,0,240
1,note_on,61,45,0
1,note_on,61,0,240
1,note_on,58,42,0
1,note_on,58,0,240
1,note_on,54,42,0
1,note_on,54,0,240
1,note_on,53,45,0
1,note_on,53,0,240
1,note_on,54,37,0
1,note_on,54,0,240
1,note_on,53,44,0
1,note_on,53,0,240
1,note_on,54,38,0
1,note_on,54,0,240
1,note_on,53,42,0
1,note_on,53,0,240
1,note_on,61,47,0
1,note_on,61,0,240
1,note_on,58,43,0
1,note_on,58,0,240
1,note_on,54,43,0
1,note_on,54,0,240
1,note_on,53,43,0
1,note_on,53,0,240
1,note_on,54,45,0
1,note_on,54,0,240
1,note_on,57,47,0
1,note_on,57,0,240
1,note_on,58,49,0
1,note_on,58,0,240
1,note_on,60,53,0
1,note_on,60,0,240
1,note_on,61,55,0
1,note_on,61,0,240
1,note_on,64,57,0
1,note_on,64,0,240
1,note_on,65,59,0
1,note_on,65,0,230
1,note_on,65,61,10
1,note_on,65,0,240
1,note_on,64,61,0
1,note_on,64,0,240
1,note_on,61,59,0
1,note_on,61,0,240
1,note_on,60,58,0
1,note_on,60,0,240
1,note_on,58,56,0
1,note_on,58,0,240
1,note_on,57,54,0
1,note_on,57,0,240
1,note_on,65,67,0
1,note_on,63,53,0
1,note_on,54,53,0
1,note_on,54,0,240
1,note_on,53,52,0
1,note_on,53,0,240
1,note_on,63,0,0
1,note_on,65,0,0
1,note_on,61,53,0
1,note_on,65,64,0
1,note_on,53,43,0
1,note_on,53,0,240
1,note_on,54,45,0
1,note_on,54,0,240
1,note_on,57,47,0
1,note_on,57,0,240
1,note_on,58,49,0
1,note_on,58,0,240
1,note_on,61,0,0
1,note_on,60,53,0
1,note_on,60,0,240
1,note_on,61,55,0
1,note_on,61,0,240
1,note_on,65,0,0
1,note_on,64,57,0
1,note_on,64,0,240
1,note_on,65,67,0
1,note_on,65,0,230
1,note_on,65,68,10
1,note_on,64,61,240
1,note_on,64,0,240
1,note_on,61,59,0
1,note_on,61,0,240
1,note_on,60,58,0
1,note_on,60,0,240
1,note_on,65,0,0
1,note_on,63,62,0
1,note_on,65,68,0
1,note_on,58,56,0
1,note_on,58,0,240
1,note_on,57,54,0
1,note_on,57,0,240
1,note_on,54,53,0
1,note_on,54,0,240
1,note_on,53,52,0
1,note_on,53,0,240
1,note_on,65,0,0
1,note_on,63,0,0
1,note_on,61,53,0
1,note_on,65,64,0
1,note_on,53,43,0
1,note_on,53,0,240
1,note_on,54,45,0
1,note_on,54,0,240
1,note_on,57,47,0
1,note_on,57,0,240
1,note_on,58,49,0
1,note_on,58,0,240
1,note_on,61,0,0
1,note_on,60,53,0
1,note_on,60,0,240
1,note_on,61,55,0
1,note_on,61,0,240
1,note_on,65,0,0
1,note_on,64,57,0
1,note_on,64,0,240
1,note_on,65,67,0
1,note_on,65,0,240
1,note_on,65,68,0
1,note_on,64,61,240
1,note_on,64,0,240
1,note_on,61,59,0
1,note_on,61,0,240
1,note_on,60,58,0
1,note_on,60,0,240
1,note_on,65,0,0
1,note_on,53,62,0
1,note_on,65,68,0
1,note_on,59,56,0
1,note_on,56,54,240
1,note_on,56,0,240
1,note_on,55,54,0
1,note_on,55,0,240
1,note_on,54,54,0
1,note_on,54,0,240
1,note_on,53,0,0
1,note_on,65,0,0
1,note_on,59,0,0
1,note_on,53,65,0
1,note_on,65,72,0
1,note_on,59,59,0
1,note_on,56,58,240
1,note_on,56,0,240
1,note_on,55,57,0
1,note_on,55,0,240
1,note_on,54,57,0
1,note_on,54,0,240
1,note_on,53,0,0
1,note_on,65,0,0
1,note_on,59,0,0
1,note_on,53,70,0
1,note_on,65,76,0
1,note_on,60,63,0
1,note_on,56,61,240
1,note_on,56,0,240
1,note_on,55,61,0
1,note_on,55,0,240
1,note_on,54,60,0
1,note_on,54,0,240
1,note_on,53,0,0
1,note_on,65,0,0
1,note_on,60,0,0
1,note_on,53,73,0
1,note_on,65,80,0
1,note_on,62,66,0
1,note_on,56,65,240
1,note_on,56,0,240
1,note_on,55,64,0
1,note_on,55,0,240
1,note_on,54,64,0
1,note_on,54,0,240
1,note_on,53,0,0
1,note_on,53,78,0
1,note_on,53,0,240
1,note_on,56,78,0
1,note_on,56,0,240
1,note_on,62,0,0
1,note_on,65,0,0
1,note_on,62,77,0
1,note_on,64,87,0
1,note_on,52,79,0
1,note_on,52,0,240
1,note_on,56,80,0
1,note_on,56,0,240
1,note_on,64,0,0
1,note_on,62,0,0
1,note_on,57,40,0
1,note_on,57,0,240
1,note_on,58,33,0
1,note_on,58,0,240
1,note_on,57,40,0
1,note_on,57,0,240
1,note_on,58,33,0
1,note_on,58,0,240
1,note_on,57,40,0
1,note_on,57,0,240
1,note_on,62,34,0
1,note_on,62,0,240
1,note_on,61,34,0
1,note_on,61,0,240
1,note_on,58,34,0
1,note_on,58,0,240
1,note_on,57,40,0
1,note_on,57,0,240
1,note_on,58,36,0
1,note_on,58,0,240
1,note_on,57,40,0
1,note_on,57,0,240
1,note_on,58,36,0
1,note_on,58,0,240
1,note_on,57,40,0
1,note_on,57,0,240
1,note_on,62,35,0
1,note_on,62,0,240
1,note_on,61,35,0
1,note_on,61,0,240
1,note_on,58,35,0
1,note_on,58,0,240
1,note_on,57,40,0
1,note_on,57,0,240
1,note_on,58,35,0
1,note_on,58,0,240
1,note_on,57,40,0
1,note_on,57,0,240
1,note_on,58,35,0
1,note_on,58,0,240
1,note_on,57,40,0
1,note_on,57,0,240
1,note_on,62,34,0
1,note_on,62,0,240
1,note_on,61,34,0
1,note_on,61,0,240
1,note_on,58,34,0
1,note_on,58,0,240
1,note_on,57,40,0
1,note_on,57,0,240
1,note_on,58,36,0
1,note_on,58,0,240
1,note_on,57,40,0
1,note_on,57,0,240
1,note_on,58,36,0
1,note_on,58,0,240
1,note_on,57,40,0
1,note_on,57,0,240
1,note_on,62,35,0
1,note_on,62,0,240
1,note_on,61,35,0
1,note_on,61,0,240
1,note_on,58,35,0
1,note_on,58,0,240
1,note_on,57,40,0
1,note_on,57,0,240
1,note_on,58,36,0
1,note_on,58,0,240
1,note_on,57,40,0
1,note_on,57,0,240
1,note_on,58,36,0
1,note_on,58,0,240
1,note_on,57,43,0
1,note_on,57,0,240
1,note_on,65,45,0
1,note_on,65,0,240
1,note_on,62,42,0
1,note_on,62,0,240
1,note_on,58,42,0
1,note_on,58,0,240
1,note_on,57,45,0
1,note_on,57,0,240
1,note_on,58,37,0
1,note_on,58,0,240
1,note_on,57,44,0
1,note_on,57,0,240
1,note_on,58,38,0
1,note_on,58,0,240
1,note_on,57,42,0
1,note_on,57,0,240
1,note_on,65,47,0
1,note_on,65,0,240
1,note_on,62,43,0
1,note_on,62,0,240
1,note_on,58,43,0
1,note_on,58,0,240
1,note_on,57,43,0
1,note_on,57,0,240
1,note_on,58,45,0
1,note_on,58,0,240
1,note_on,61,47,0
1,note_on,61,0,240
1,note_on,62,49,0
1,note_on,62,0,240
1,note_on,64,53,0
1,note_on,64,0,240
1,note_on,65,55,0
1,note_on,65,0,240
1,note_on,68,57,0
1,note_on,68,0,240
1,note_on,69,59,0
1,note_on,69,0,240
1,note_on,69,61,0
1,note_on,69,0,240
1,note_on,68,61,0
1,note_on,68,0,240
1,note_on,65,59,0
1,note_on,65,0,240
1,note_on,64,58,0
1,note_on,64,0,240
1,note_on,62,56,0
1,note_on,62,0,240
1,note_on,61,54,0
1,note_on,61,0,240
1,note_on,69,67,0
1,note_on,67,53,0
1,note_on,58,53,0
1,note_on,58,0,240
1,note_on,57,52,0
1,note_on,57,0,240
1,note_on,67,0,0
1,note_on,69,0,0
1,note_on,65,53,0
1,note_on,69,64,0
1,note_on,57,43,0
1,note_on,57,0,240
1,note_on,58,45,0
1,note_on,58,0,240
1,note_on,61,47,0
1,note_on,61,0,240
1,note_on,62,49,0
1,note_on,62,0,240
1,note_on,65,0,0
1,note_on,64,53,0
1,note_on,64,0,240
1,note_on,65,55,0
1,note_on,65,0,240
1,note_on,69,0,0
1,note_on,68,57,0
1,note_on,68,0,240
1,note_on,69,67,0
1,note_on,69,0,220
1,note_on,69,68,20
1,note_on,68,61,240
1,note_on,68,0,240
1,note_on,65,59,0
1,note_on,65,0,240
1,note_on,64,58,0
1,note_on,64,0,240
1,note_on,69,0,0
1,note_on,67,62,0
1,note_on,69,68,0
1,note_on,62,56,0
1,note_on,62,0,240
1,note_on,61,54,0
1,note_on,61,0,240
1,note_on,58,53,0
1,note_on,58,0,240
1,note_on,57,52,0
1,note_on,57,0,220
1,note_on,69,0,20
1,note_on,67,0,0
1,note_on,65,53,0
1,note_on,69,64,0
1,note_on,57,43,0
1,note_on,57,0,240
1,note_on,58,45,0
1,note_on,58,0,240
1,note_on,61,47,0
1,note_on,61,0,240
1,note_on,62,49,0
1,note_on,62,0,240
1,note_on,69,0,0
1,note_on,65,0,0
1,note_on,64,53,0
1,note_on,64,0,240
1,note_on,65,55,0
1,note_on,65,0,240
1,note_on,68,57,0
1,note_on,68,0,240
1,note_on,69,67,0
1,note_on,69,0,220
1,note_on,69,68,20
1,note_on,68,61,240
1,note_on,68,0,240
1,note_on,65,59,0
1,note_on,65,0,240
1,note_on,64,58,0
1,note_on,64,0,240
1,note_on,69,0,0
1,note_on,57,62,0
1,note_on,69,68,0
1,note_on,63,56,0
1,note_on,60,54,240
1,note_on,60,0,240
1,note_on,59,54,0
1,note_on,59,0,240
1,note_on,58,54,0
1,note_on,58,0,240
1,note_on,57,0,0
1,note_on,69,0,0
1,note_on,63,0,0
1,note_on,57,65,0
1,note_on,69,72,0
1,note_on,63,59,0
1,note_on,60,58,240
1,note_on,60,0,240
1,note_on,59,57,0
1,note_on,59,0,240
1,note_on,58,57,0
1,note_on,58,0,240
1,note_on,57,0,0
1,note_on,69,0,0
1,note_on,63,0,0
1,note_on,57,70,0
1,note_on,69,76,0
1,note_on,64,63,0
1,note_on,60,61,240
1,note_on,60,0,240
1,note_on,59,61,0
1,note_on,59,0,240
1,note_on,58,60,0
1,note_on,58,0,240
1,note_on,57,0,0
1,note_on,69,0,0
1,note_on,64,0,0
1,note_on,57,73,0
1,note_on,69,80,0
1,note_on,66,66,0
1,note_on,60,65,240
1,note_on,60,0,240
1,note_on,59,64,0
1,note_on,59,0,240
1,note_on,58,64,0
1,note_on,58,0,240
1,note_on,57,0,0
1,note_on,58,78,0
1,note_on,58,0,240
1,note_on,60,78,0
1,note_on,60,0,240
1,note_on,66,0,0
1,note_on,69,0,0
1,note_on,66,65,0
1,note_on,68,77,0
1,note_on,56,70,0
1,note_on,56,0,240
1,note_on,60,77,0
1,note_on,60,0,240
1,note_on,68,0,0
1,note_on,66,0,0
1,note_on,53,77,0
1,note_on,61,77,0
1,note_on,61,0,480
1,note_on,53,0,0
1,note_on,73,64,480
1,note_on,61,54,0
1,note_on,65,54,0
1,note_on,65,0,480
1,note_on,61,0,0
1,note_on,73,0,0
1,note_on,73,58,0
1,note_on,61,49,0
1,note_on,65,49,0
1,note_on,65,0,120
1,note_on,61,0,0
1,note_on,73,0,0
1,note_on,73,58,120
1,note_on,61,49,0
1,note_on,65,49,0
1,note_on,65,0,120
1,note_on,61,0,0
1,note_on,73,0,0
1,note_on,78,64,120
1,note_on,66,54,0
1,note_on,69,54,0
1,note_on,69,0,120
1,note_on,66,0,0
1,note_on,78,0,0
1,note_on,78,58,360
1,note_on,66,49,0
1,note_on,69,49,0
1,note_on,69,0,120
1,note_on,66,0,0
1,note_on,78,0,0
1,note_on,78,63,360
1,note_on,66,54,0
1,note_on,69,54,0
1,note_on,69,0,480
1,note_on,66,0,0
1,note_on,78,0,0
1,note_on,81,58,0
1,note_on,69,49,0
1,note_on,73,49,0
1,note_on,73,0,120
1,note_on,69,0,0
1,note_on,81,0,0
1,note_on,78,58,120
1,note_on,66,49,0
1,note_on,69,49,0
1,note_on,69,0,120
1,note_on,66,0,0
1,note_on,78,0,0
1,note_on,77,63,120
1,note_on,65,54,0
1,note_on,68,54,0
1,note_on,68,0,120
1,note_on,65,0,0
1,note_on,77,0,0
1,note_on,73,58,360
1,note_on,61,49,0
1,note_on,65,49,0
1,note_on,65,0,120
1,note_on,61,0,0
1,note_on,73,0,0
1,note_on,85,70,360
1,note_on,73,59,0
1,note_on,77,59,0
1,note_on,77,0,480
1,note_on,73,0,0
1,note_on,85,0,0
1,note_on,85,63,0
1,note_on,73,53,0
1,note_on,77,53,0
1,note_on,77,0,120
1,note_on,73,0,0
1,note_on,85,0,0
1,note_on,85,63,120
1,note_on,73,53,0
1,note_on,77,53,0
1,note_on,77,0,120
1,note_on,73,0,0
1,note_on,85,0,0
1,note_on,90,70,120
1,note_on,78,59,0
1,note_on,81,59,0
1,note_on,81,0,120
1,note_on,78,0,0
1,note_on,90,0,0
1,note_on,90,63,360
1,note_on,78,53,0
1,note_on,81,53,0
1,note_on,81,0,120
1,note_on,78,0,0
1,note_on,90,0,0
1,note_on,90,69,360
1,note_on,78,59,0
1,note_on,81,59,0
1,note_on,81,0,480
1,note_on,78,0,0
1,note_on,90,0,0
1,note_on,93,63,0
1,note_on,81,53,0
1,note_on,85,53,0
1,note_on,85,0,120
1,note_on,81,0,0
1,note_on,93,0,0
1,note_on,90,63,120
1,note_on,78,53,0
1,note_on,81,53,0
1,note_on,81,0,120
1,note_on,78,0,0
1,note_on,90,0,0
1,note_on,89,69,120
1,note_on,77,59,0
1,note_on,81,59,0
1,note_on,81,0,120
1,note_on,77,0,0
1,note_on,89,0,0
1,note_on,77,64,840
1,note_on,65,54,0
1,note_on,69,54,0
1,note_on,69,0,480
1,note_on,65,0,0
1,note_on,77,0,0
1,note_on,77,58,0
1,note_on,65,49,0
1,note_on,69,49,0
1,note_on,69,0,120
1,note_on,65,0,0
1,note_on,77,0,0
1,note_on,77,58,120
1,note_on,65,49,0
1,note_on,69,49,0
1,note_on,69,0,120
1,note_on,65,0,0
1,note_on,77,0,0
1,note_on,82,64,120
1,note_on,70,54,0
1,note_on,73,54,0
1,note_on,73,0,120
1,note_on,70,0,0
1,note_on,82,0,0
1,note_on,82,68,360
1,note_on,70,53,0
1,note_on,73,55,0
1,note_on,73,0,60
1,note_on,70,0,0
1,note_on,82,0,0
1,note_on,70,51,180
1,note_on,73,51,0
1,note_on,82,68,0
1,note_on,82,0,60
1,note_on,73,0,0
1,note_on,70,0,0
1,note_on,82,63,180
1,note_on,70,54,0
1,note_on,73,54,0
1,note_on,73,0,480
1,note_on,70,0,0
1,note_on,82,0,0
1,note_on,85,58,0
1,note_on,73,49,0
1,note_on,77,49,0
1,note_on,77,0,120
1,note_on,73,0,0
1,note_on,85,0,0
1,note_on,82,58,120
1,note_on,70,49,0
1,note_on,73,49,0
1,note_on,73,0,120
1,note_on,70,0,0
1,note_on,82,0,0
1,note_on,81,63,120
1,note_on,69,54,0
1,note_on,72,54,0
1,note_on,72,0,120
1,note_on,69,0,0
1,note_on,81,0,0
1,note_on,77,58,360
1,note_on,65,49,0
1,note_on,69,49,0
1,note_on,69,0,120
1,note_on,65,0,0
1,note_on,77,0,0
1,note_on,89,70,360
1,note_on,77,59,0
1,note_on,81,59,0
1,note_on,81,0,480
1,note_on,77,0,0
1,note_on,89,0,0
1,note_on,89,63,0
1,note_on,77,53,0
1,note_on,81,53,0
1,note_on,81,0,120
1,note_on,77,0,0
1,note_on,89,0,0
1,note_on,89,63,120
1,note_on,77,53,0
1,note_on,81,53,0
1,note_on,81,0,120
1,note_on,77,0,0
1,note_on,89,0,0
1,note_on,94,70,120
1,note_on,82,59,0
1,note_on,85,59,0
1,note_on,85,0,120
1,note_on,82,0,0
1,note_on,94,0,0
1,note_on,94,70,360
1,note_on,82,58,0
1,note_on,85,59,0
1,note_on,85,0,60
1,note_on,82,0,0
1,note_on,94,0,0
1,note_on,82,56,180
1,note_on,85,57,0
1,note_on,94,70,0
1,note_on,94,0,60
1,note_on,85,0,0
1,note_on,82,0,0
1,note_on,94,69,180
1,note_on,82,59,0
1,note_on,85,59,0
1,note_on,85,0,480
1,note_on,82,0,0
1,note_on,94,0,0
1,note_on,97,63,0
1,note_on,85,53,0
1,note_on,89,53,0
1,note_on,89,0,120
1,note_on,85,0,0
1,note_on,97,0,0
1,note_on,94,63,120
1,note_on,82,53,0
1,note_on,85,53,0
1,note_on,85,0,120
1,note_on,82,0,0
1,note_on,94,0,0
1,note_on,93,74,120
1,note_on,81,62,0
1,note_on,84,62,0
1,note_on,84,0,480
1,note_on,81,0,0
1,note_on,93,0,0
1,note_on,96,79,0
1,note_on,93,67,0
1,note_on,89,67,0
1,note_on,84,67,0
1,note_on,84,0,480
1,note_on,96,0,0
1,note_on,93,0,0
1,note_on,89,0,0
1,note_on,97,81,0
1,note_on,94,68,0
1,note_on,89,68,0
1,note_on,85,68,0
1,note_on,85,0,480
1,note_on,97,0,0
1,note_on,94,0,0
1,note_on,89,0,0
1,note_on,94,79,0
1,note_on,82,67,0
1,note_on,85,67,0
1,note_on,89,67,0
1,note_on,89,0,480
1,note_on,94,0,0
1,note_on,82,0,0
1,note_on,85,0,0
1,note_on,93,80,0
1,note_on,81,68,0
1,note_on,84,68,0
1,note_on,89,68,0
1,note_on,89,0,480
1,note_on,93,0,0
1,note_on,81,0,0
1,note_on,84,0,0
1,note_on,96,79,0
1,note_on,93,67,0
1,note_on,89,67,0
1,note_on,84,67,0
1,note_on,84,0,480
1,note_on,96,0,0
1,note_on,93,0,0
1,note_on,89,0,0
1,note_on,97,84,0
1,note_on,94,71,0
1,note_on,89,71,0
1,note_on,85,71,0
1,note_on,85,0,480
1,note_on,97,0,0
1,note_on,94,0,0
1,note_on,89,0,0
1,note_on,94,79,0
1,note_on,89,67,0
1,note_on,85,67,0
1,note_on,82,67,0
1,note_on,82,0,480
1,note_on,94,0,0
1,note_on,89,0,0
1,note_on,85,0,0
1,note_on,89,62,0
1,note_on,93,74,0
1,note_on,81,62,0
1,note_on,84,62,0
1,note_on,84,0,480
1,note_on,89,0,0
1,note_on,93,0,0
1,note_on,81,0,0
1,note_on,101,79,0
1,note_on,96,67,0
1,note_on,93,67,0
1,note_on,89,67,0
1,note_on,89,0,480
1,note_on,101,0,0
1,note_on,96,0,0
1,note_on,93,0,0
1,note_on,101,81,0
1,note_on,97,68,0
1,note_on,94,68,0
1,note_on,89,68,0
1,note_on,89,0,420
1,note_on,101,0,0
1,note_on,97,0,0
1,note_on,94,0,0
1,note_on,85,75,0
1,note_on,94,78,30
1,note_on,101,82,30
1,note_on,101,0,420
1,note_on,94,0,0
1,note_on,85,0,0
1,note_on,84,77,0
1,note_on,93,81,30
1,note_on,101,84,30
1,note_on,101,0,480
1,note_on,93,0,0
1,note_on,84,0,0
1,note_on,101,79,0
1,note_on,96,67,0
1,note_on,93,67,0
1,note_on,89,67,0
1,note_on,89,0,480
1,note_on,101,0,0
1,note_on,96,0,0
1,note_on,93,0,0
1,note_on,101,84,0
1,note_on,97,71,0
1,note_on,94,71,0
1,note_on,89,71,0
1,note_on,89,0,420
1,note_on,101,0,0
1,note_on,97,0,0
1,note_on,94,0,0
1,note_on,85,81,0
1,note_on,94,84,30
1,note_on,101,87,30
1,note_on,101,0,420
1,note_on,94,0,0
1,note_on,85,0,0
1,note_on,84,80,0
1,note_on,93,83,30
1,note_on,101,85,30
1,note_on,101,0,480
1,note_on,93,0,0
1,note_on,84,0,0
1,note_on,65,68,1680
1,note_on,57,57,0
1,note_on,57,0,240
1,note_on,65,0,0
1,note_on,63,67,0
1,note_on,54,56,0
1,note_on,54,0,240
1,note_on,63,0,0
1,note_on,61,65,0
1,note_on,53,55,0
1,note_on,53,0,240
1,note_on,61,0,0
1,note_on,67,68,3120
1,note_on,59,57,0
1,note_on,59,0,240
1,note_on,67,0,0
1,note_on,65,67,0
1,note_on,56,56,0
1,note_on,56,0,240
1,note_on,65,0,0
1,note_on,63,65,0
1,note_on,55,55,0
1,note_on,55,0,240
1,note_on,63,0,0
1,note_on,63,70,1920
1,note_on,58,56,0
1,note_on,58,0,240
1,note_on,63,0,0
1,note_on,65,72,0
1,note_on,60,57,0
1,note_on,60,0,240
1,note_on,65,0,0
1,note_on,67,74,0
1,note_on,62,59,0
1,note_on,62,0,240
1,note_on,67,0,0
1,note_on,69,76,0
1,note_on,63,60,0
1,note_on,63,0,240
1,note_on,69,0,0
1,note_on,72,81,0
1,note_on,67,64,0
1,note_on,67,0,240
1,note_on,72,0,0
1,note_on,70,76,0
1,note_on,65,60,0
1,note_on,65,0,240
1,note_on,70,0,0
1,note_on,69,74,0
1,note_on,63,59,0
1,note_on,63,0,240
1,note_on,69,0,0
1,note_on,67,72,0
1,note_on,62,57,0
1,note_on,62,0,240
1,note_on,67,0,0
1,note_on,65,70,0
1,note_on,60,56,0
1,note_on,60,0,240
1,note_on,65,0,0
1,note_on,63,68,0
1,note_on,58,54,0
1,note_on,58,0,240
1,note_on,63,0,0
1,note_on,62,66,0
1,note_on,57,52,0
1,note_on,57,0,240
1,note_on,62,0,0
1,note_on,60,64,0
1,note_on,55,51,0
1,note_on,55,0,240
1,note_on,60,0,0
1,note_on,58,50,0
1,note_on,63,72,0
1,note_on,63,0,240
1,note_on,58,0,0
1,note_on,60,52,0
1,note_on,65,65,0
1,note_on,65,0,240
1,note_on,60,0,0
1,note_on,62,53,0
1,note_on,67,67,0
1,note_on,67,0,240
1,note_on,62,0,0
1,note_on,63,55,0
1,note_on,69,69,0
1,note_on,69,0,240
1,note_on,63,0,0
1,note_on,70,70,0
1,note_on,65,56,0
1,note_on,65,0,240
1,note_on,70,0,0
1,note_on,72,72,0
1,note_on,67,57,0
1,note_on,67,0,240
1,note_on,72,0,0
1,note_on,74,74,0
1,note_on,69,59,0
1,note_on,69,0,240
1,note_on,74,0,0
1,note_on,75,76,0
1,note_on,70,60,0
1,note_on,70,0,240
1,note_on,75,0,0
1,note_on,79,81,0
1,note_on,74,64,0
1,note_on,74,0,240
1,note_on,79,0,0
1,note_on,77,76,0
1,note_on,72,60,0
1,note_on,72,0,240
1,note_on,77,0,0
1,note_on,75,74,0
1,note_on,70,59,0
1,note_on,70,0,240
1,note_on,75,0,0
1,note_on,74,72,0
1,note_on,69,57,0
1,note_on,69,0,240
1,note_on,74,0,0
1,note_on,72,64,0
1,note_on,84,81,0
1,note_on,75,64,0
1,note_on,75,0,240
1,note_on,84,0,0
1,note_on,72,0,0
1,note_on,74,60,0
1,note_on,82,76,0
1,note_on,70,60,0
1,note_on,70,0,240
1,note_on,82,0,0
1,note_on,74,0,0
1,note_on,69,59,0
1,note_on,81,74,0
1,note_on,72,59,0
1,note_on,72,0,240
1,note_on,81,0,0
1,note_on,69,0,0
1,note_on,67,57,0
1,note_on,79,72,0
1,note_on,70,57,0
1,note_on,70,0,240
1,note_on,79,0,0
1,note_on,67,0,0
1,note_on,75,64,0
1,note_on,87,81,0
1,note_on,79,64,0
1,note_on,79,0,240
1,note_on,87,0,0
1,note_on,75,0,0
1,note_on,77,60,0
1,note_on,86,76,0
1,note_on,74,60,0
1,note_on,74,0,240
1,note_on,86,0,0
1,note_on,77,0,0
1,note_on,72,59,0
1,note_on,84,74,0
1,note_on,75,59,0
1,note_on,75,0,240
1,note_on,84,0,0
1,note_on,72,0,0
1,note_on,70,57,0
1,note_on,82,72,0
1,note_on,74,57,0
1,note_on,74,0,240
1,note_on,82,0,0
1,note_on,70,0,0
1,note_on,79,64,0
1,note_on,91,81,0
1,note_on,82,64,0
1,note_on,82,0,240
1,note_on,91,0,0
1,note_on,79,0,0
1,note_on,81,60,0
1,note_on,89,76,0
1,note_on,77,60,0
1,note_on,77,0,240
1,note_on,89,0,0
1,note_on,81,0,0
1,note_on,75,59,0
1,note_on,87,74,0
1,note_on,79,59,0
1,note_on,79,0,240
1,note_on,87,0,0
1,note_on,75,0,0
1,note_on,74,57,0
1,note_on,86,72,0
1,note_on,77,57,0
1,note_on,77,0,240
1,note_on,86,0,0
1,note_on,74,0,0
1,note_on,84,64,0
1,note_on,96,81,0
1,note_on,87,64,0
1,note_on,87,0,240
1,note_on,96,0,0
1,note_on,84,0,0
1,note_on,86,60,0
1,note_on,94,76,0
1,note_on,82,60,0
1,note_on,82,0,240
1,note_on,94,0,0
1,note_on,86,0,0
1,note_on,81,59,0
1,note_on,93,74,0
1,note_on,84,59,0
1,note_on,84,0,240
1,note_on,93,0,0
1,note_on,81,0,0
1,note_on,79,57,0
1,note_on,91,72,0
1,note_on,82,57,0
1,note_on,82,0,240
1,note_on,91,0,0
1,note_on,79,0,0
1,note_on,99,75,0
1,note_on,91,63,0
1,note_on,87,63,0
1,note_on,87,0,60
1,note_on,91,0,0
1,note_on,99,0,0
1,note_on,98,75,0
1,note_on,86,63,0
1,note_on,89,63,0
1,note_on,89,0,60
1,note_on,86,0,0
1,note_on,98,0,0
1,note_on,96,75,0
1,note_on,87,63,0
1,note_on,84,63,0
1,note_on,84,0,60
1,note_on,87,0,0
1,note_on,96,0,0
1,note_on,94,75,0
1,note_on,86,63,0
1,note_on,82,63,0
1,note_on,82,0,60
1,note_on,86,0,0
1,note_on,94,0,0
1,note_on,93,74,0
1,note_on,81,62,0
1,note_on,84,62,0
1,note_on,84,0,60
1,note_on,81,0,0
1,note_on,93,0,0
1,note_on,91,74,0
1,note_on,79,62,0
1,note_on,82,62,0
1,note_on,82,0,60
1,note_on,79,0,0
1,note_on,91,0,0
1,note_on,89,74,0
1,note_on,77,62,0
1,note_on,81,62,0
1,note_on,81,0,60
1,note_on,77,0,0
1,note_on,89,0,0
1,note_on,87,74,0
1,note_on,75,62,0
1,note_on,79,62,0
1,note_on,79,0,60
1,note_on,75,0,0
1,note_on,87,0,0
1,note_on,86,74,0
1,note_on,77,62,0
1,note_on,74,62,0
1,note_on,74,0,60
1,note_on,77,0,0
1,note_on,86,0,0
1,note_on,84,73,0
1,note_on,72,62,0
1,note_on,75,62,0
1,note_on,75,0,60
1,note_on,72,0,0
1,note_on,84,0,0
1,note_on,82,73,0
1,note_on,70,62,0
1,note_on,74,62,0
1,note_on,74,0,60
1,note_on,70,0,0
1,note_on,82,0,0
1,note_on,81,73,0
1,note_on,69,62,0
1,note_on,72,62,0
1,note_on,72,0,60
1,note_on,69,0,0
1,note_on,81,0,0
1,note_on,79,76,0
1,note_on,67,64,0
1,note_on,70,64,0
1,note_on,70,0,60
1,note_on,67,0,0
1,note_on,79,0,0
1,note_on,77,67,0
1,note_on,65,56,0
1,note_on,69,56,0
1,note_on,69,0,60
1,note_on,65,0,0
1,note_on,77,0,0
1,note_on,76,77,0
1,note_on,64,65,0
1,note_on,68,65,0
1,note_on,68,0,60
1,note_on,64,0,0
1,note_on,76,0,0
1,note_on,77,70,0
1,note_on,65,59,0
1,note_on,69,59,0
1,note_on,69,0,60
1,note_on,65,0,0
1,note_on,77,0,0
1,note_on,76,77,0
1,note_on,64,56,0
1,note_on,68,56,0
1,note_on,68,0,60
1,note_on,64,0,0
1,note_on,76,0,0
1,note_on,77,67,0
1,note_on,65,56,0
1,note_on,69,56,0
1,note_on,69,0,60
1,note_on,65,0,0
1,note_on,77,0,0
1,note_on,78,68,0
1,note_on,66,57,0
1,note_on,70,57,0
1,note_on,70,0,60
1,note_on,66,0,0
1,note_on,78,0,0
1,note_on,79,69,0
1,note_on,67,58,0
1,note_on,71,58,0
1,note_on,71,0,60
1,note_on,67,0,0
1,note_on,79,0,0
1,note_on,80,69,0
1,note_on,68,58,0
1,note_on,72,58,0
1,note_on,72,0,60
1,note_on,68,0,0
1,note_on,80,0,0
1,note_on,81,70,0
1,note_on,69,59,0
1,note_on,73,59,0
1,note_on,73,0,60
1,note_on,69,0,0
1,note_on,81,0,0
1,note_on,82,71,0
1,note_on,70,60,0
1,note_on,74,60,0
1,note_on,74,0,60
1,note_on,70,0,0
1,note_on,82,0,0
1,note_on,83,71,0
1,note_on,71,60,0
1,note_on,75,60,0
1,note_on,75,0,60
1,note_on,71,0,0
1,note_on,83,0,0
1,note_on,72,60,0
1,note_on,76,60,0
1,note_on,84,72,0
1,note_on,84,0,60
1,note_on,76,0,0
1,note_on,72,0,0
1,note_on,85,72,0
1,note_on,73,61,0
1,note_on,77,61,0
1,note_on,77,0,60
1,note_on,73,0,0
1,note_on,85,0,0
1,note_on,86,72,0
1,note_on,74,61,0
1,note_on,78,61,0
1,note_on,78,0,60
1,note_on,74,0,0
1,note_on,86,0,0
1,note_on,87,73,0
1,note_on,75,62,0
1,note_on,79,62,0
1,note_on,79,0,60
1,note_on,75,0,0
1,note_on,87,0,0
1,note_on,88,74,0
1,note_on,76,62,0
1,note_on,80,62,0
1,note_on,80,0,60
1,note_on,76,0,0
1,note_on,88,0,0
1,note_on,89,74,0
1,note_on,77,62,0
1,note_on,81,62,0
1,note_on,81,0,60
1,note_on,77,0,0
1,note_on,89,0,0
1,note_on,90,75,0
1,note_on,78,63,0
1,note_on,82,63,0
1,note_on,82,0,60
1,note_on,78,0,0
1,note_on,90,0,0
1,note_on,91,76,0
1,note_on,79,64,0
1,note_on,83,64,0
1,note_on,83,0,60
1,note_on,79,0,0
1,note_on,91,0,0
1,note_on,92,76,0
1,note_on,80,64,0
1,note_on,84,64,0
1,note_on,84,0,60
1,note_on,80,0,0
1,note_on,92,0,0
1,note_on,93,77,0
1,note_on,81,65,0
1,note_on,85,65,0
1,note_on,85,0,60
1,note_on,81,0,0
1,note_on,93,0,0
1,note_on,94,78,0
1,note_on,82,66,0
1,note_on,86,66,0
1,note_on,86,0,60
1,note_on,82,0,0
1,note_on,94,0,0
1,note_on,95,78,0
1,note_on,83,66,0
1,note_on,87,66,0
1,note_on,87,0,60
1,note_on,83,0,0
1,note_on,95,0,0
1,note_on,96,79,0
1,note_on,84,67,0
1,note_on,88,67,0
1,note_on,88,0,60
1,note_on,84,0,0
1,note_on,96,0,0
1,note_on,97,80,0
1,note_on,85,68,0
1,note_on,89,68,0
1,note_on,89,0,60
1,note_on,85,0,0
1,note_on,97,0,0
1,note_on,98,80,0
1,note_on,86,68,0
1,note_on,90,68,0
1,note_on,90,0,60
1,note_on,86,0,0
1,note_on,98,0,0
1,note_on,99,92,0
1,note_on,87,68,0
1,note_on,91,75,0
1,note_on,91,0,120
1,note_on,87,0,0
1,note_on,99,0,0
1,note_on,75,85,900
1,note_on,87,85,0
1,note_on,87,0,960
1,note_on,75,0,0
1,note_on,67,76,0
1,note_on,79,76,0
1,note_on,79,0,780
1,note_on,67,0,0
1,note_on,65,37,0
1,note_on,72,49,60
1,note_on,75,56,60
1,note_on,81,72,60
1,note_on,81,0,60
1,note_on,75,0,0
1,note_on,72,0,0
1,note_on,82,35,0
1,note_on,74,28,0
1,note_on,77,28,0
1,note_on,77,0,60
1,note_on,74,0,0
1,note_on,82,0,0
1,note_on,81,36,0
1,note_on,72,28,0
1,note_on,75,28,0
1,note_on,75,0,60
1,note_on,72,0,0
1,note_on,81,0,0
1,note_on,82,36,0
1,note_on,74,28,0
1,note_on,77,28,0
1,note_on,77,0,60
1,note_on,74,0,0
1,note_on,82,0,0
1,note_on,81,37,0
1,note_on,72,29,0
1,note_on,75,29,0
1,note_on,75,0,60
1,note_on,65,0,0
1,note_on,81,0,0
1,note_on,72,0,0
1,note_on,82,38,0
1,note_on,74,30,0
1,note_on,77,30,0
1,note_on,77,0,60
1,note_on,74,0,0
1,note_on,82,0,0
1,note_on,81,38,0
1,note_on,72,30,0
1,note_on,75,30,0
1,note_on,75,0,60
1,note_on,72,0,0
1,note_on,81,0,0
1,note_on,82,39,0
1,note_on,74,31,0
1,note_on,77,31,0
1,note_on,77,0,60
1,note_on,74,0,0
1,note_on,82,0,0
1,note_on,81,39,0
1,note_on,72,31,0
1,note_on,75,31,0
1,note_on,75,0,60
1,note_on,72,0,0
1,note_on,81,0,0
1,note_on,82,40,0
1,note_on,74,32,0
1,note_on,77,32,0
1,note_on,77,0,60
1,note_on,74,0,0
1,note_on,82,0,0
1,note_on,81,40,0
1,note_on,72,32,0
1,note_on,75,32,0
1,note_on,75,0,60
1,note_on,72,0,0
1,note_on,81,0,0
1,note_on,82,41,0
1,note_on,74,32,0
1,note_on,77,32,0
1,note_on,77,0,60
1,note_on,74,0,0
1,note_on,82,0,0
1,note_on,81,41,0
1,note_on,72,32,0
1,note_on,75,32,0
1,note_on,75,0,60
1,note_on,72,0,0
1,note_on,81,0,0
1,note_on,82,42,0
1,note_on,74,33,0
1,note_on,77,33,0
1,note_on,77,0,60
1,note_on,74,0,0
1,note_on,82,0,0
1,note_on,81,42,0
1,note_on,72,33,0
1,note_on,75,33,0
1,note_on,75,0,60
1,note_on,72,0,0
1,note_on,81,0,0
1,note_on,82,43,0
1,note_on,74,34,0
1,note_on,77,34,0
1,note_on,77,0,60
1,note_on,74,0,0
1,note_on,82,0,0
1,note_on,81,45,0
1,note_on,72,36,0
1,note_on,75,36,0
1,note_on,75,0,60
1,note_on,72,0,0
1,note_on,81,0,0
1,note_on,82,45,0
1,note_on,74,36,0
1,note_on,77,36,0
1,note_on,77,0,60
1,note_on,74,0,0
1,note_on,82,0,0
1,note_on,81,46,0
1,note_on,72,36,0
1,note_on,75,36,0
1,note_on,75,0,60
1,note_on,72,0,0
1,note_on,81,0,0
1,note_on,82,47,0
1,note_on,74,37,0
1,note_on,77,37,0
1,note_on,77,0,60
1,note_on,74,0,0
1,note_on,82,0,0
1,note_on,81,47,0
1,note_on,72,37,0
1,note_on,75,37,0
1,note_on,75,0,60
1,note_on,72,0,0
1,note_on,81,0,0
1,note_on,82,48,0
1,note_on,74,38,0
1,note_on,77,38,0
1,note_on,77,0,60
1,note_on,74,0,0
1,note_on,82,0,0
1,note_on,81,49,0
1,note_on,72,39,0
1,note_on,75,39,0
1,note_on,75,0,60
1,note_on,72,0,0
1,note_on,81,0,0
1,note_on,82,49,0
1,note_on,74,39,0
1,note_on,77,39,0
1,note_on,77,0,60
1,note_on,74,0,0
1,note_on,82,0,0
1,note_on,81,50,0
1,note_on,72,40,0
1,note_on,75,40,0
1,note_on,75,0,60
1,note_on,72,0,0
1,note_on,81,0,0
1,note_on,82,51,0
1,note_on,74,40,0
1,note_on,77,40,0
1,note_on,77,0,60
1,note_on,74,0,0
1,note_on,82,0,0
1,note_on,81,51,0
1,note_on,72,40,0
1,note_on,75,40,0
1,note_on,75,0,60
1,note_on,72,0,0
1,note_on,81,0,0
1,note_on,82,52,0
1,note_on,74,41,0
1,note_on,77,41,0
1,note_on,77,0,60
1,note_on,74,0,0
1,note_on,82,0,0
1,note_on,81,52,0
1,note_on,72,41,0
1,note_on,75,41,0
1,note_on,75,0,60
1,note_on,72,0,0
1,note_on,81,0,0
1,note_on,82,53,0
1,note_on,74,42,0
1,note_on,77,42,0
1,note_on,77,0,60
1,note_on,74,0,0
1,note_on,82,0,0
1,note_on,81,54,0
1,note_on,72,43,0
1,note_on,75,43,0
1,note_on,75,0,60
1,note_on,72,0,0
1,note_on,81,0,0
1,note_on,82,54,0
1,note_on,74,43,0
1,note_on,77,43,0
1,note_on,77,0,60
1,note_on,74,0,0
1,note_on,82,0,0
1,note_on,81,55,0
1,note_on,75,44,0
1,note_on,72,44,0
1,note_on,72,0,60
1,note_on,75,0,0
1,note_on,81,0,0
1,note_on,82,56,0
1,note_on,77,44,0
1,note_on,74,44,0
1,note_on,74,0,60
1,note_on,77,0,0
1,note_on,82,0,0
1,note_on,81,56,0
1,note_on,72,44,0
1,note_on,75,44,0
1,note_on,75,0,60
1,note_on,72,0,0
1,note_on,81,0,0
1,note_on,82,57,0
1,note_on,77,45,0
1,note_on,74,45,0
1,note_on,74,0,60
1,note_on,77,0,0
1,note_on,82,0,0
1,note_on,81,58,0
1,note_on,72,46,0
1,note_on,75,46,0
1,note_on,75,0,60
1,note_on,72,0,0
1,note_on,81,0,0
1,note_on,82,58,0
1,note_on,74,46,0
1,note_on,77,46,0
1,note_on,77,0,60
1,note_on,74,0,0
1,note_on,82,0,0
1,note_on,81,59,0
1,note_on,72,47,0
1,note_on,75,47,0
1,note_on,75,0,60
1,note_on,72,0,0
1,note_on,81,0,0
1,note_on,82,60,0
1,note_on,77,48,0
1,note_on,74,48,0
1,note_on,74,0,60
1,note_on,77,0,0
1,note_on,82,0,0
1,note_on,81,61,0
1,note_on,75,48,0
1,note_on,72,48,0
1,note_on,72,0,60
1,note_on,75,0,0
1,note_on,81,0,0
1,note_on,82,60,0
1,note_on,74,48,0
1,note_on,77,48,0
1,note_on,77,0,60
1,note_on,74,0,0
1,note_on,82,0,0
1,note_on,81,59,0
1,note_on,72,47,0
1,note_on,75,47,0
1,note_on,75,0,60
1,note_on,72,0,0
1,note_on,81,0,0
1,note_on,82,58,0
1,note_on,77,46,0
1,note_on,74,46,0
1,note_on,74,0,60
1,note_on,77,0,0
1,note_on,82,0,0
1,note_on,81,57,0
1,note_on,72,45,0
1,note_on,75,45,0
1,note_on,75,0,60
1,note_on,72,0,0
1,note_on,81,0,0
1,note_on,82,56,0
1,note_on,77,44,0
1,note_on,74,44,0
1,note_on,74,0,60
1,note_on,77,0,0
1,note_on,82,0,0
1,note_on,81,55,0
1,note_on,72,44,0
1,note_on,75,44,0
1,note_on,75,0,60
1,note_on,72,0,0
1,note_on,81,0,0
1,note_on,82,54,0
1,note_on,77,43,0
1,note_on,74,43,0
1,note_on,74,0,60
1,note_on,77,0,0
1,note_on,82,0,0
1,note_on,81,53,0
1,note_on,75,42,0
1,note_on,72,42,0
1,note_on,72,0,60
1,note_on,75,0,0
1,note_on,81,0,0
1,note_on,82,51,0
1,note_on,77,40,0
1,note_on,74,40,0
1,note_on,74,0,60
1,note_on,77,0,0
1,note_on,82,0,0
1,note_on,81,50,0
1,note_on,72,40,0
1,note_on,75,40,0
1,note_on,75,0,60
1,note_on,72,0,0
1,note_on,81,0,0
1,note_on,82,49,0
1,note_on,74,39,0
1,note_on,77,39,0
1,note_on,77,0,60
1,note_on,74,0,0
1,note_on,82,0,0
1,note_on,81,48,0
1,note_on,72,38,0
1,note_on,75,38,0
1,note_on,75,0,60
1,note_on,72,0,0
1,note_on,81,0,0
1,note_on,82,47,0
1,note_on,74,37,0
1,note_on,77,37,0
1,note_on,77,0,60
1,note_on,74,0,0
1,note_on,82,0,0
1,note_on,81,45,0
1,note_on,72,36,0
1,note_on,75,36,0
1,note_on,75,0,60
1,note_on,72,0,0
1,note_on,81,0,0
1,note_on,82,44,0
1,note_on,74,35,0
1,note_on,77,35,0
1,note_on,77,0,60
1,note_on,74,0,0
1,note_on,82,0,0
1,note_on,81,43,0
1,note_on,75,34,0
1,note_on,72,34,0
1,note_on,72,0,60
1,note_on,75,0,0
1,note_on,81,0,0
1,note_on,82,42,0
1,note_on,74,33,0
1,note_on,77,33,0
1,note_on,77,0,60
1,note_on,74,0,0
1,note_on,82,0,0
1,note_on,81,41,0
1,note_on,72,32,0
1,note_on,75,32,0
1,note_on,75,0,60
1,note_on,72,0,0
1,note_on,81,0,0
1,note_on,82,40,0
1,note_on,74,32,0
1,note_on,77,32,0
1,note_on,77,0,60
1,note_on,74,0,0
1,note_on,82,0,0
1,note_on,81,39,0
1,note_on,75,31,0
1,note_on,72,31,0
1,note_on,72,0,60
1,note_on,75,0,0
1,note_on,81,0,0
1,note_on,82,38,0
1,note_on,74,30,0
1,note_on,77,30,0
1,note_on,77,0,60
1,note_on,74,0,0
1,note_on,82,0,0
1,note_on,81,37,0
1,note_on,72,29,0
1,note_on,75,29,0
1,note_on,75,0,60
1,note_on,72,0,0
1,note_on,81,0,0
1,note_on,82,36,0
1,note_on,74,28,0
1,note_on,77,28,0
1,note_on,77,0,60
1,note_on,74,0,0
1,note_on,82,0,0
1,note_on,81,40,0
1,note_on,75,32,0
1,note_on,72,32,0
1,note_on,72,0,240
1,note_on,75,0,0
1,note_on,81,0,0
1,note_on,82,42,0
1,note_on,74,33,0
1,note_on,77,33,0
1,note_on,77,0,240
1,note_on,74,0,0
1,note_on,82,0,0
1,note_on,81,35,0
1,note_on,75,28,0
1,note_on,72,28,0
1,note_on,72,0,240
1,note_on,75,0,0
1,note_on,81,0,0
1,note_on,80,40,0
1,note_on,74,32,0
1,note_on,71,32,0
1,note_on,71,0,240
1,note_on,74,0,0
1,note_on,80,0,0
1,note_on,81,35,0
1,note_on,72,28,0
1,note_on,75,28,0
1,note_on,75,0,240
1,note_on,72,0,0
1,note_on,81,0,0
1,note_on,82,76,0
1,note_on,70,56,0
1,note_on,70,0,120
1,note_on,77,44,120
1,note_on,74,38,0
1,note_on,74,0,120
1,note_on,77,0,0
1,note_on,82,0,120
1,note_on,82,66,0
1,note_on,70,53,0
1,note_on,70,0,120
1,note_on,82,0,0
1,note_on,82,68,120
1,note_on,77,48,0
1,note_on,74,41,0
1,note_on,74,0,120
1,note_on,77,0,0
1,note_on,82,0,0
1,note_on,86,76,120
1,note_on,74,53,0
1,note_on,74,0,120
1,note_on,86,0,0
1,note_on,82,60,120
1,note_on,77,48,0
1,note_on,77,0,120
1,note_on,82,0,0
1,note_on,82,60,120
1,note_on,70,53,0
1,note_on,70,0,120
1,note_on,74,36,120
1,note_on,77,48,0
1,note_on,77,0,120
1,note_on,74,0,0
1,note_on,82,0,120
1,note_on,77,73,0
1,note_on,65,53,0
1,note_on,65,0,120
1,note_on,70,38,120
1,note_on,74,44,0
1,note_on,74,0,120
1,note_on,70,0,0
1,note_on,77,0,120
1,note_on,77,63,0
1,note_on,65,53,0
1,note_on,65,0,120
1,note_on,77,0,0
1,note_on,77,64,120
1,note_on,74,48,0
1,note_on,70,41,0
1,note_on,70,0,120
1,note_on,74,0,0
1,note_on,77,0,0
1,note_on,82,72,120
1,note_on,70,53,0
1,note_on,70,0,120
1,note_on,82,0,0
1,note_on,77,60,120
1,note_on,74,48,0
1,note_on,74,0,120
1,note_on,77,0,0
1,note_on,77,60,120
1,note_on,65,53,0
1,note_on,65,0,120
1,note_on,70,36,120
1,note_on,74,48,0
1,note_on,74,0,120
1,note_on,70,0,0
1,note_on,77,0,120
1,note_on,74,77,0
1,note_on,62,56,0
1,note_on,62,0,120
1,note_on,65,39,120
1,note_on,70,46,0
1,note_on,70,0,120
1,note_on,65,0,0
1,note_on,74,0,120
1,note_on,74,62,0
1,note_on,62,61,0
1,note_on,62,0,120
1,note_on,74,0,0
1,note_on,75,62,120
1,note_on,63,55,0
1,note_on,63,0,120
1,note_on,75,0,0
1,note_on,79,69,120
1,note_on,67,51,0
1,note_on,67,0,120
1,note_on,70,34,120
1,note_on,74,46,0
1,note_on,74,0,120
1,note_on,70,0,0
1,note_on,79,0,120
1,note_on,77,57,0
1,note_on,65,51,0
1,note_on,65,0,120
1,note_on,70,34,120
1,note_on,74,46,0
1,note_on,74,0,120
1,note_on,70,0,0
1,note_on,77,0,120
1,note_on,77,75,0
1,note_on,65,53,0
1,note_on,65,0,120
1,note_on,69,39,120
1,note_on,72,46,0
1,note_on,72,0,120
1,note_on,69,0,0
1,note_on,77,0,120
1,note_on,79,57,0
1,note_on,67,56,0
1,note_on,67,0,120
1,note_on,79,0,0
1,note_on,81,57,120
1,note_on,69,50,0
1,note_on,69,0,120
1,note_on,81,0,0
1,note_on,82,69,120
1,note_on,70,51,0
1,note_on,70,0,120
1,note_on,74,34,120
1,note_on,77,46,0
1,note_on,77,0,120
1,note_on,74,0,0
1,note_on,82,0,120
1,note_on,70,51,0
1,note_on,70,0,120
1,note_on,74,34,120
1,note_on,77,46,0
1,note_on,77,0,120
1,note_on,74,0,0
1,note_on,82,78,120
1,note_on,70,53,0
1,note_on,70,0,120
1,note_on,77,44,120
1,note_on,74,38,0
1,note_on,74,0,120
1,note_on,77,0,0
1,note_on,82,0,120
1,note_on,82,64,0
1,note_on,70,53,0
1,note_on,70,0,120
1,note_on,82,0,0
1,note_on,82,64,120
1,note_on,77,48,0
1,note_on,74,41,0
1,note_on,74,0,120
1,note_on,77,0,0
1,note_on,82,0,0
1,note_on,86,78,120
1,note_on,74,53,0
1,note_on,74,0,120
1,note_on,86,0,0
1,note_on,82,62,120
1,note_on,77,48,0
1,note_on,77,0,120
1,note_on,82,0,0
1,note_on,82,62,120
1,note_on,70,53,0
1,note_on,70,0,120
1,note_on,74,36,120
1,note_on,77,48,0
1,note_on,77,0,120
1,note_on,74,0,0
1,note_on,82,0,120
1,note_on,77,77,0
1,note_on,65,53,0
1,note_on,65,0,120
1,note_on,70,38,120
1,note_on,74,44,0
1,note_on,74,0,120
1,note_on,70,0,0
1,note_on,77,0,120
1,note_on,77,63,0
1,note_on,65,53,0
1,note_on,65,0,120
1,note_on,77,0,0
1,note_on,77,63,120
1,note_on,74,48,0
1,note_on,70,41,0
1,note_on,70,0,120
1,note_on,74,0,0
1,note_on,77,0,0
1,note_on,82,75,120
1,note_on,70,53,0
1,note_on,70,0,120
1,note_on,82,0,0
1,note_on,77,62,120
1,note_on,74,48,0
1,note_on,74,0,120
1,note_on,77,0,0
1,note_on,77,62,120
1,note_on,65,53,0
1,note_on,65,0,120
1,note_on,70,36,120
1,note_on,74,48,0
1,note_on,74,0,120
1,note_on,70,0,0
1,note_on,77,0,120
1,note_on,74,77,0
1,note_on,62,56,0
1,note_on,62,0,120
1,note_on,70,44,120
1,note_on,65,39,0
1,note_on,65,0,120
1,note_on,70,0,0
1,note_on,74,0,120
1,note_on,74,62,0
1,note_on,62,61,0
1,note_on,62,0,120
1,note_on,74,0,0
1,note_on,75,62,120
1,note_on,63,55,0
1,note_on,63,0,120
1,note_on,75,0,0
1,note_on,79,69,120
1,note_on,67,51,0
1,note_on,67,0,120
1,note_on,70,34,120
1,note_on,74,46,0
1,note_on,74,0,120
1,note_on,70,0,0
1,note_on,79,0,120
1,note_on,77,57,0
1,note_on,65,51,0
1,note_on,65,0,120
1,note_on,70,34,120
1,note_on,74,46,0
1,note_on,74,0,120
1,note_on,70,0,0
1,note_on,77,0,120
1,note_on,77,77,0
1,note_on,65,56,0
1,note_on,65,0,120
1,note_on,69,39,120
1,note_on,72,46,0
1,note_on,72,0,120
1,note_on,69,0,0
1,note_on,77,0,120
1,note_on,79,57,0
1,note_on,67,56,0
1,note_on,67,0,120
1,note_on,79,0,0
1,note_on,81,57,120
1,note_on,69,50,0
1,note_on,69,0,120
1,note_on,81,0,0
1,note_on,82,69,120
1,note_on,70,51,0
1,note_on,70,0,120
1,note_on,74,34,120
1,note_on,77,46,0
1,note_on,77,0,120
1,note_on,74,0,0
1,note_on,82,0,120
1,note_on,70,51,0
1,note_on,70,0,120
1,note_on,74,34,120
1,note_on,77,46,0
1,note_on,77,0,120
1,note_on,74,0,0
1,note_on,82,78,120
1,note_on,70,53,0
1,note_on,70,0,120
1,note_on,77,44,120
1,note_on,74,38,0
1,note_on,74,0,120
1,note_on,77,0,0
1,note_on,82,0,120
1,note_on,84,61,0
1,note_on,72,53,0
1,note_on,72,0,120
1,note_on,84,0,0
1,note_on,86,61,120
1,note_on,74,48,0
1,note_on,74,0,120
1,note_on,86,0,0
1,note_on,84,71,120
1,note_on,72,49,0
1,note_on,72,0,120
1,note_on,77,38,120
1,note_on,81,44,0
1,note_on,81,0,120
1,note_on,77,0,0
1,note_on,84,0,120
1,note_on,81,57,0
1,note_on,69,49,0
1,note_on,69,0,120
1,note_on,77,44,120
1,note_on,72,33,0
1,note_on,72,0,120
1,note_on,77,0,0
1,note_on,81,0,120
1,note_on,79,76,0
1,note_on,67,53,0
1,note_on,67,0,120
1,note_on,76,44,120
1,note_on,72,38,0
1,note_on,72,0,120
1,note_on,76,0,0
1,note_on,79,0,120
1,note_on,81,60,0
1,note_on,69,53,0
1,note_on,69,0,120
1,note_on,81,0,0
1,note_on,82,60,120
1,note_on,70,48,0
1,note_on,70,0,120
1,note_on,82,0,0
1,note_on,81,67,120
1,note_on,69,49,0
1,note_on,69,0,120
1,note_on,72,38,120
1,note_on,77,44,0
1,note_on,77,0,120
1,note_on,72,0,0
1,note_on,81,0,120
1,note_on,77,57,0
1,note_on,65,49,0
1,note_on,65,0,120
1,note_on,72,44,120
1,note_on,69,33,0
1,note_on,69,0,120
1,note_on,72,0,0
1,note_on,77,0,120
1,note_on,84,74,0
1,note_on,72,52,0
1,note_on,72,0,120
1,note_on,81,44,120
1,note_on,77,38,0
1,note_on,77,0,120
1,note_on,81,0,0
1,note_on,84,0,120
1,note_on,84,61,0
1,note_on,72,53,0
1,note_on,72,0,120
1,note_on,84,0,0
1,note_on,77,44,120
1,note_on,84,61,0
1,note_on,81,48,0
1,note_on,81,0,120
1,note_on,84,0,0
1,note_on,77,0,0
1,note_on,83,69,120
1,note_on,71,53,0
1,note_on,71,0,120
1,note_on,74,41,120
1,note_on,77,48,0
1,note_on,77,0,120
1,note_on,74,0,0
1,note_on,83,0,120
1,note_on,82,62,0
1,note_on,70,53,0
1,note_on,70,0,120
1,note_on,76,48,120
1,note_on,72,36,0
1,note_on,72,0,120
1,note_on,76,0,0
1,note_on,82,0,120
1,note_on,81,58,0
1,note_on,69,45,0
1,note_on,69,0,120
1,note_on,72,34,120
1,note_on,77,40,0
1,note_on,77,0,120
1,note_on,72,0,0
1,note_on,81,0,120
1,note_on,80,52,0
1,note_on,68,45,0
1,note_on,68,0,120
1,note_on,77,40,120
1,note_on,72,29,0
1,note_on,72,0,120
1,note_on,77,0,0
1,note_on,80,0,120
1,note_on,79,58,0
1,note_on,67,45,0
1,note_on,67,0,120
1,note_on,72,34,120
1,note_on,76,40,0
1,note_on,76,0,120
1,note_on,72,0,0
1,note_on,67,45,120
1,note_on,67,0,120
1,note_on,76,40,120
1,note_on,72,29,0
1,note_on,72,0,120
1,note_on,76,0,0
1,note_on,79,0,120
1,note_on,79,78,0
1,note_on,67,53,0
1,note_on,67,0,120
1,note_on,76,44,120
1,note_on,72,38,0
1,note_on,72,0,120
1,note_on,76,0,0
1,note_on,79,0,120
1,note_on,79,70,0
1,note_on,67,53,0
1,note_on,67,0,120
1,note_on,79,0,0
1,note_on,76,44,120
1,note_on,79,70,0
1,note_on,72,41,0
1,note_on,72,0,120
1,note_on,79,0,0
1,note_on,76,0,0
1,note_on,79,71,120
1,note_on,67,49,0
1,note_on,67,0,120
1,note_on,74,38,120
1,note_on,77,44,0
1,note_on,77,0,120
1,note_on,74,0,0
1,note_on,79,0,120
1,note_on,79,63,0
1,note_on,67,49,0
1,note_on,67,0,120
1,note_on,77,44,120
1,note_on,74,33,0
1,note_on,74,0,120
1,note_on,77,0,0
1,note_on,79,0,120
1,note_on,79,71,0
1,note_on,67,49,0
1,note_on,79,0,96
1,note_on,81,58,0
1,note_on,67,0,24
1,note_on,81,0,72
1,note_on,79,58,0
1,note_on,74,44,48
1,note_on,79,0,48
1,note_on,78,59,0
1,note_on,74,0,72
1,note_on,78,0,24
1,note_on,79,59,0
1,note_on,79,0,96
1,note_on,81,64,0
1,note_on,69,49,0
1,note_on,69,0,120
1,note_on,81,0,0
1,note_on,83,64,120
1,note_on,71,44,0
1,note_on,71,0,120
1,note_on,83,0,0
1,note_on,84,71,120
1,note_on,72,49,0
1,note_on,72,0,120
1,note_on,76,38,120
1,note_on,79,44,0
1,note_on,79,0,120
1,note_on,76,0,0
1,note_on,84,0,120
1,note_on,79,63,0
1,note_on,67,49,0
1,note_on,67,0,120
1,note_on,76,44,120
1,note_on,72,33,0
1,note_on,72,0,120
1,note_on,76,0,0
1,note_on,79,0,120
1,note_on,79,71,0
1,note_on,67,49,0
1,note_on,79,0,96
1,note_on,81,58,0
1,note_on,67,0,24
1,note_on,81,0,72
1,note_on,79,58,0
1,note_on,74,44,48
1,note_on,79,0,48
1,note_on,78,59,0
1,note_on,74,0,72
1,note_on,78,0,24
1,note_on,79,59,0
1,note_on,79,0,96
1,note_on,81,64,0
1,note_on,69,49,0
1,note_on,69,0,120
1,note_on,81,0,0
1,note_on,83,64,120
1,note_on,71,44,0
1,note_on,71,0,120
1,note_on,83,0,0
1,note_on,84,71,120
1,note_on,72,49,0
1,note_on,72,0,120
1,note_on,76,38,120
1,note_on,79,44,0
1,note_on,79,0,120
1,note_on,76,0,0
1,note_on,84,0,120
1,note_on,79,63,0
1,note_on,67,49,0
1,note_on,67,0,120
1,note_on,76,44,120
1,note_on,72,33,0
1,note_on,72,0,120
1,note_on,76,0,0
1,note_on,79,0,120
1,note_on,79,71,0
1,note_on,67,49,0
1,note_on,79,0,96
1,note_on,81,58,0
1,note_on,67,0,24
1,note_on,81,0,72
1,note_on,79,58,0
1,note_on,74,44,48
1,note_on,79,0,48
1,note_on,78,59,0
1,note_on,74,0,72
1,note_on,78,0,24
1,note_on,79,59,0
1,note_on,79,0,96
1,note_on,81,64,0
1,note_on,69,49,0
1,note_on,69,0,120
1,note_on,81,0,0
1,note_on,83,64,120
1,note_on,71,44,0
1,note_on,71,0,120
1,note_on,83,0,0
1,note_on,84,71,120
1,note_on,72,38,0
1,note_on,76,65,240
1,note_on,79,65,0
1,note_on,79,0,120
1,note_on,76,0,0
1,note_on,76,72,120
1,note_on,79,72,0
1,note_on,79,0,120
1,note_on,76,0,0
1,note_on,76,78,120
1,note_on,79,78,0
1,note_on,79,0,120
1,note_on,76,0,0
1,note_on,72,0,120
1,note_on,84,0,0
1,note_on,84,83,0
1,note_on,72,70,0
1,note_on,72,0,120
1,note_on,79,74,120
1,note_on,76,62,0
1,note_on,76,0,120
1,note_on,79,0,0
1,note_on,84,0,120
1,note_on,84,76,0
1,note_on,72,64,0
1,note_on,72,0,120
1,note_on,84,0,0
1,note_on,84,76,120
1,note_on,72,64,0
1,note_on,72,0,120
1,note_on,84,0,0
1,note_on,81,84,120
1,note_on,69,70,0
1,note_on,72,70,0
1,note_on,72,0,360
1,note_on,69,0,0
1,note_on,81,0,0
1,note_on,79,81,0
1,note_on,67,69,0
1,note_on,70,69,0
1,note_on,70,0,120
1,note_on,67,0,0
1,note_on,79,0,0
1,note_on,77,84,0
1,note_on,65,70,0
1,note_on,69,70,0
1,note_on,69,0,480
1,note_on,65,0,0
1,note_on,77,0,0
1,note_on,84,83,0
1,note_on,72,70,0
1,note_on,72,0,120
1,note_on,79,74,120
1,note_on,76,62,0
1,note_on,76,0,120
1,note_on,79,0,0
1,note_on,84,0,120
1,note_on,84,76,0
1,note_on,72,64,0
1,note_on,72,0,120
1,note_on,84,0,0
1,note_on,84,76,120
1,note_on,72,64,0
1,note_on,72,0,120
1,note_on,84,0,0
1,note_on,81,84,120
1,note_on,69,70,0
1,note_on,72,70,0
1,note_on,72,0,120
1,note_on,69,0,0
1,note_on,81,0,0
1,note_on,65,69,120
1,note_on,69,69,0
1,note_on,77,81,0
1,note_on,77,0,120
1,note_on,69,0,0
1,note_on,65,0,0
1,note_on,88,84,60
1,note_on,88,0,60
1,note_on,89,84,0
1,note_on,77,70,0
1,note_on,77,0,120
1,note_on,89,0,0
1,note_on,81,70,360
1,note_on,84,83,0
1,note_on,72,70,0
1,note_on,72,0,480
1,note_on,84,0,0
1,note_on,81,0,0
1,note_on,77,64,0
1,note_on,81,76,0
1,note_on,69,64,0
1,note_on,69,0,120
1,note_on,81,0,0
1,note_on,77,0,0
1,note_on,82,64,120
1,note_on,86,76,0
1,note_on,74,64,0
1,note_on,74,0,120
1,note_on,86,0,0
1,note_on,82,0,0
1,note_on,84,84,120
1,note_on,72,70,0
1,note_on,81,70,0
1,note_on,81,0,120
1,note_on,72,0,0
1,note_on,84,0,0
1,note_on,69,69,120
1,note_on,77,69,0
1,note_on,81,81,0
1,note_on,81,0,120
1,note_on,77,0,0
1,note_on,69,0,0
1,note_on,88,84,60
1,note_on,88,0,60
1,note_on,89,84,0
1,note_on,77,70,0
1,note_on,77,0,120
1,note_on,89,0,0
1,note_on,81,70,360
1,note_on,84,83,0
1,note_on,72,70,0
1,note_on,72,0,480
1,note_on,84,0,0
1,note_on,81,0,0
1,note_on,77,64,0
1,note_on,81,76,0
1,note_on,69,64,0
1,note_on,69,0,120
1,note_on,81,0,0
1,note_on,77,0,0
1,note_on,82,64,120
1,note_on,86,76,0
1,note_on,74,64,0
1,note_on,74,0,120
1,note_on,86,0,0
1,note_on,82,0,0
1,note_on,84,84,120
1,note_on,72,70,0
1,note_on,81,70,0
1,note_on,81,0,120
1,note_on,72,0,0
1,note_on,84,0,0
1,note_on,69,69,120
1,note_on,77,69,0
1,note_on,81,81,0
1,note_on,81,0,120
1,note_on,77,0,0
1,note_on,69,0,0
1,note_on,100,88,60
1,note_on,100,0,60
1,note_on,101,88,0
1,note_on,89,74,0
1,note_on,89,0,120
1,note_on,101,0,0
1,note_on,81,70,360
1,note_on,84,83,0
1,note_on,72,70,0
1,note_on,72,0,480
1,note_on,84,0,0
1,note_on,81,0,0
1,note_on,77,64,0
1,note_on,81,76,0
1,note_on,69,64,0
1,note_on,69,0,120
1,note_on,81,0,0
1,note_on,77,0,0
1,note_on,82,64,120
1,note_on,86,76,0
1,note_on,74,64,0
1,note_on,74,0,120
1,note_on,86,0,0
1,note_on,82,0,0
1,note_on,84,84,120
1,note_on,72,70,0
1,note_on,81,70,0
1,note_on,81,0,120
1,note_on,72,0,0
1,note_on,84,0,0
1,note_on,69,69,120
1,note_on,77,69,0
1,note_on,81,81,0
1,note_on,81,0,120
1,note_on,77,0,0
1,note_on,69,0,0
1,note_on,100,88,60
1,note_on,100,0,60
1,note_on,101,88,0
1,note_on,89,74,0
1,note_on,89,0,120
1,note_on,101,0,0
1,note_on,81,70,360
1,note_on,84,83,0
1,note_on,72,70,0
1,note_on,72,0,480
1,note_on,84,0,0
1,note_on,81,0,0
1,note_on,77,64,0
1,note_on,81,76,0
1,note_on,69,64,0
1,note_on,69,0,120
1,note_on,81,0,0
1,note_on,77,0,0
1,note_on,82,64,120
1,note_on,86,76,0
1,note_on,74,64,0
1,note_on,74,0,120
1,note_on,86,0,0
1,note_on,82,0,0
1,note_on,84,84,120
1,note_on,72,70,0
1,note_on,81,70,0
1,note_on,81,0,120
1,note_on,72,0,0
1,note_on,84,0,0
1,note_on,84,61,360
1,note_on,72,49,0
1,note_on,72,0,120
1,note_on,77,40,120
1,note_on,81,44,0
1,note_on,81,0,120
1,note_on,77,0,0
1,note_on,72,53,120
1,note_on,72,0,120
1,note_on,77,41,120
1,note_on,81,48,0
1,note_on,81,0,120
1,note_on,77,0,0
1,note_on,84,0,120
1,note_on,71,53,0
1,note_on,83,68,0
1,note_on,71,0,120
1,note_on,77,48,120
1,note_on,74,36,0
1,note_on,74,0,120
1,note_on,77,0,0
1,note_on,83,0,120
1,note_on,70,45,0
1,note_on,82,63,0
1,note_on,70,0,120
1,note_on,72,34,120
1,note_on,79,40,0
1,note_on,79,0,120
1,note_on,72,0,0
1,note_on,82,0,120
1,note_on,69,45,0
1,note_on,81,57,0
1,note_on,69,0,120
1,note_on,77,40,120
1,note_on,72,29,0
1,note_on,72,0,120
1,note_on,77,0,0
1,note_on,81,0,120
1,note_on,79,61,0
1,note_on,67,51,0
1,note_on,67,0,120
1,note_on,79,0,0
1,note_on,81,58,120
1,note_on,69,49,0
1,note_on,69,0,120
1,note_on,81,0,0
1,note_on,82,58,120
1,note_on,70,49,0
1,note_on,70,0,120
1,note_on,82,0,0
1,note_on,84,58,120
1,note_on,72,49,0
1,note_on,72,0,120
1,note_on,84,0,0
1,note_on,81,64,120
1,note_on,69,56,0
1,note_on,69,0,120
1,note_on,72,41,120
1,note_on,77,48,0
1,note_on,77,0,120
1,note_on,72,0,0
1,note_on,81,0,120
1,note_on,84,61,0
1,note_on,72,49,0
1,note_on,72,0,120
1,note_on,77,40,120
1,note_on,81,44,0
1,note_on,81,0,120
1,note_on,77,0,0
1,note_on,72,53,120
1,note_on,72,0,120
1,note_on,77,41,120
1,note_on,80,48,0
1,note_on,80,0,120
1,note_on,77,0,0
1,note_on,84,0,120
1,note_on,71,53,0
1,note_on,83,68,0
1,note_on,71,0,120
1,note_on,77,48,120
1,note_on,74,36,0
1,note_on,74,0,120
1,note_on,77,0,0
1,note_on,83,0,120
1,note_on,70,45,0
1,note_on,82,63,0
1,note_on,70,0,120
1,note_on,73,34,120
1,note_on,76,40,0
1,note_on,76,0,120
1,note_on,73,0,0
1,note_on,82,0,120
1,note_on,69,45,0
1,note_on,81,57,0
1,note_on,69,0,120
1,note_on,77,40,120
1,note_on,72,29,0
1,note_on,72,0,120
1,note_on,77,0,0
1,note_on,81,0,120
1,note_on,79,61,0
1,note_on,67,51,0
1,note_on,67,0,120
1,note_on,79,0,0
1,note_on,81,58,120
1,note_on,69,49,0
1,note_on,69,0,120
1,note_on,81,0,0
1,note_on,82,58,120
1,note_on,70,49,0
1,note_on,70,0,120
1,note_on,82,0,0
1,note_on,84,58,120
1,note_on,72,49,0
1,note_on,72,0,120
1,note_on,84,0,0
1,note_on,81,64,120
1,note_on,69,56,0
1,note_on,69,0,120
1,note_on,72,41,120
1,note_on,77,48,0
1,note_on,77,0,120
1,note_on,72,0,0
1,note_on,81,0,120
1,note_on,84,61,0
1,note_on,72,49,0
1,note_on,72,0,120
1,note_on,77,40,120
1,note_on,81,44,0
1,note_on,81,0,120
1,note_on,77,0,0
1,note_on,72,53,120
1,note_on,72,0,120
1,note_on,74,41,120
1,note_on,78,48,0
1,note_on,78,0,120
1,note_on,74,0,0
1,note_on,84,0,120
1,note_on,71,53,0
1,note_on,83,68,0
1,note_on,71,0,120
1,note_on,79,48,120
1,note_on,74,36,0
1,note_on,74,0,120
1,note_on,79,0,0
1,note_on,83,0,120
1,note_on,70,45,0
1,note_on,82,63,0
1,note_on,70,0,120
1,note_on,72,34,120
1,note_on,76,40,0
1,note_on,76,0,120
1,note_on,72,0,0
1,note_on,82,0,120
1,note_on,69,45,0
1,note_on,81,57,0
1,note_on,69,0,120
1,note_on,77,40,120
1,note_on,72,29,0
1,note_on,72,0,120
1,note_on,77,0,0
1,note_on,81,0,120
1,note_on,79,61,0
1,note_on,67,51,0
1,note_on,67,0,120
1,note_on,79,0,0
1,note_on,81,58,120
1,note_on,69,49,0
1,note_on,69,0,120
1,note_on,81,0,0
1,note_on,82,58,120
1,note_on,70,49,0
1,note_on,70,0,120
1,note_on,82,0,0
1,note_on,84,58,120
1,note_on,72,49,0
1,note_on,72,0,120
1,note_on,84,0,0
1,note_on,65,51,120
1,note_on,77,61,0
1,note_on,77,0,480
1,note_on,65,0,0
1,note_on,65,68,480
1,note_on,53,49,0
1,note_on,53,0,120
1,note_on,60,44,120
1,note_on,57,38,0
1,note_on,57,0,120
1,note_on,60,0,0
1,note_on,65,0,120
1,note_on,65,55,0
1,note_on,65,0,120
1,note_on,65,55,120
1,note_on,60,44,0
1,note_on,57,38,0
1,note_on,57,0,120
1,note_on,60,0,0
1,note_on,65,0,0
1,note_on,70,68,120
1,note_on,58,49,0
1,note_on,58,0,120
1,note_on,61,38,120
1,note_on,65,44,0
1,note_on,65,0,120
1,note_on,61,0,0
1,note_on,70,0,120
1,note_on,70,55,0
1,note_on,58,49,0
1,note_on,58,0,120
1,note_on,61,33,120
1,note_on,65,44,0
1,note_on,65,0,120
1,note_on,61,0,0
1,note_on,70,0,120
1,note_on,70,67,0
1,note_on,58,49,0
1,note_on,58,0,120
1,note_on,65,38,120
1,note_on,61,44,0
1,note_on,61,0,120
1,note_on,65,0,0
1,note_on,70,0,120
1,note_on,73,55,0
1,note_on,61,49,0
1,note_on,61,0,120
1,note_on,73,0,0
1,note_on,70,55,120
1,note_on,58,44,0
1,note_on,58,0,120
1,note_on,70,0,0
1,note_on,69,63,120
1,note_on,57,49,0
1,note_on,57,0,120
1,note_on,65,44,120
1,note_on,60,38,0
1,note_on,60,0,120
1,note_on,65,0,0
1,note_on,69,0,120
1,note_on,53,49,0
1,note_on,65,55,0
1,note_on,53,0,120
1,note_on,57,33,120
1,note_on,60,44,0
1,note_on,60,0,120
1,note_on,57,0,0
1,note_on,65,0,120
1,note_on,65,68,0
1,note_on,53,49,0
1,note_on,53,0,120
1,note_on,60,44,120
1,note_on,57,38,0
1,note_on,57,0,120
1,note_on,60,0,0
1,note_on,65,0,120
1,note_on,65,55,0
1,note_on,65,0,120
1,note_on,65,55,120
1,note_on,60,44,0
1,note_on,57,38,0
1,note_on,57,0,120
1,note_on,60,0,0
1,note_on,65,0,0
1,note_on,70,68,120
1,note_on,58,49,0
1,note_on,58,0,120
1,note_on,61,38,120
1,note_on,65,44,0
1,note_on,65,0,120
1,note_on,61,0,0
1,note_on,70,0,120
1,note_on,70,55,0
1,note_on,58,49,0
1,note_on,58,0,120
1,note_on,61,33,120
1,note_on,65,44,0
1,note_on,65,0,120
1,note_on,61,0,0
1,note_on,70,0,120
1,note_on,70,67,0
1,note_on,58,49,0
1,note_on,58,0,120
1,note_on,65,38,120
1,note_on,61,44,0
1,note_on,61,0,120
1,note_on,65,0,0
1,note_on,70,0,120
1,note_on,73,55,0
1,note_on,61,49,0
1,note_on,61,0,120
1,note_on,73,0,0
1,note_on,70,55,120
1,note_on,58,44,0
1,note_on,58,0,120
1,note_on,70,0,0
1,note_on,69,63,120
1,note_on,57,49,0
1,note_on,57,0,120
1,note_on,64,44,120
1,note_on,61,38,0
1,note_on,61,0,120
1,note_on,64,0,0
1,note_on,57,49,120
1,note_on,57,0,120
1,note_on,61,33,120
1,note_on,64,44,0
1,note_on,64,0,120
1,note_on,61,0,0
1,note_on,69,0,120
1,note_on,69,68,0
1,note_on,57,49,0
1,note_on,57,0,120
1,note_on,64,44,120
1,note_on,61,38,0
1,note_on,61,0,120
1,note_on,64,0,0
1,note_on,69,0,120
1,note_on,69,55,0
1,note_on,69,0,120
1,note_on,69,55,120
1,note_on,64,44,0
1,note_on,61,38,0
1,note_on,61,0,120
1,note_on,64,0,0
1,note_on,69,0,0
1,note_on,74,68,120
1,note_on,62,49,0
1,note_on,62,0,120
1,note_on,65,38,120
1,note_on,69,44,0
1,note_on,69,0,120
1,note_on,65,0,0
1,note_on,74,0,120
1,note_on,74,55,0
1,note_on,62,49,0
1,note_on,62,0,120
1,note_on,65,33,120
1,note_on,69,44,0
1,note_on,69,0,120
1,note_on,65,0,0
1,note_on,74,0,120
1,note_on,74,67,0
1,note_on,62,49,0
1,note_on,62,0,120
1,note_on,69,38,120
1,note_on,65,44,0
1,note_on,65,0,120
1,note_on,69,0,0
1,note_on,74,0,120
1,note_on,77,55,0
1,note_on,65,49,0
1,note_on,65,0,120
1,note_on,77,0,0
1,note_on,74,55,120
1,note_on,62,44,0
1,note_on,62,0,120
1,note_on,74,0,0
1,note_on,73,63,120
1,note_on,61,49,0
1,note_on,61,0,120
1,note_on,68,44,120
1,note_on,65,38,0
1,note_on,65,0,120
1,note_on,68,0,0
1,note_on,61,49,120
1,note_on,61,0,120
1,note_on,65,33,120
1,note_on,68,44,0
1,note_on,68,0,120
1,note_on,65,0,0
1,note_on,73,0,120
1,note_on,73,70,0
1,note_on,61,49,0
1,note_on,61,0,120
1,note_on,68,44,120
1,note_on,65,38,0
1,note_on,65,0,120
1,note_on,68,0,0
1,note_on,73,0,120
1,note_on,73,57,0
1,note_on,73,0,120
1,note_on,73,57,120
1,note_on,68,44,0
1,note_on,65,38,0
1,note_on,65,0,120
1,note_on,68,0,0
1,note_on,73,0,0
1,note_on,78,70,120
1,note_on,66,49,0
1,note_on,66,0,120
1,note_on,69,38,120
1,note_on,73,44,0
1,note_on,73,0,120
1,note_on,69,0,0
1,note_on,78,0,120
1,note_on,78,57,0
1,note_on,66,49,0
1,note_on,66,0,120
1,note_on,69,33,120
1,note_on,73,44,0
1,note_on,73,0,120
1,note_on,69,0,0
1,note_on,78,0,120
1,note_on,78,69,0
1,note_on,66,49,0
1,note_on,66,0,120
1,note_on,73,38,120
1,note_on,69,44,0
1,note_on,69,0,120
1,note_on,73,0,0
1,note_on,78,0,120
1,note_on,81,57,0
1,note_on,69,49,0
1,note_on,69,0,120
1,note_on,81,0,0
1,note_on,78,57,120
1,note_on,66,44,0
1,note_on,66,0,120
1,note_on,78,0,0
1,note_on,77,65,120
1,note_on,65,49,0
1,note_on,65,0,120
1,note_on,72,44,120
1,note_on,69,38,0
1,note_on,69,0,120
1,note_on,72,0,0
1,note_on,77,0,120
1,note_on,77,57,0
1,note_on,65,49,0
1,note_on,65,0,120
1,note_on,69,33,120
1,note_on,72,44,0
1,note_on,72,0,120
1,note_on,69,0,0
1,note_on,77,0,120
1,note_on,82,75,0
1,note_on,70,53,0
1,note_on,70,0,120
1,note_on,77,40,120
1,note_on,73,48,0
1,note_on,73,0,120
1,note_on,77,0,0
1,note_on,82,0,120
1,note_on,85,61,0
1,note_on,73,53,0
1,note_on,73,0,120
1,note_on,85,0,0
1,note_on,82,61,120
1,note_on,70,48,0
1,note_on,70,0,120
1,note_on,82,0,0
1,note_on,81,71,120
1,note_on,69,53,0
1,note_on,69,0,120
1,note_on,76,48,120
1,note_on,73,40,0
1,note_on,73,0,120
1,note_on,76,0,0
1,note_on,81,0,120
1,note_on,81,69,0
1,note_on,69,53,0
1,note_on,69,0,120
1,note_on,73,35,120
1,note_on,76,48,0
1,note_on,76,0,120
1,note_on,73,0,0
1,note_on,81,0,120
1,note_on,86,86,0
1,note_on,74,62,0
1,note_on,74,0,120
1,note_on,81,44,120
1,note_on,77,52,0
1,note_on,77,0,120
1,note_on,81,0,0
1,note_on,86,0,120
1,note_on,89,69,0
1,note_on,77,59,0
1,note_on,77,0,120
1,note_on,89,0,0
1,note_on,86,69,120
1,note_on,74,52,0
1,note_on,74,0,120
1,note_on,86,0,0
1,note_on,85,79,120
1,note_on,73,59,0
1,note_on,73,0,120
1,note_on,80,52,120
1,note_on,77,44,0
1,note_on,77,0,120
1,note_on,80,0,0
1,note_on,85,0,120
1,note_on,85,77,0
1,note_on,73,59,0
1,note_on,73,0,120
1,note_on,77,39,120
1,note_on,80,52,0
1,note_on,80,0,120
1,note_on,77,0,0
1,note_on,85,0,120
1,note_on,90,86,0
1,note_on,78,62,0
1,note_on,78,0,120
1,note_on,85,44,120
1,note_on,81,52,0
1,note_on,81,0,120
1,note_on,85,0,0
1,note_on,90,0,120
1,note_on,93,69,0
1,note_on,81,59,0
1,note_on,81,0,120
1,note_on,93,0,0
1,note_on,90,69,120
1,note_on,78,52,0
1,note_on,78,0,120
1,note_on,90,0,0
1,note_on,89,79,120
1,note_on,77,59,0
1,note_on,77,0,120
1,note_on,85,52,120
1,note_on,80,44,0
1,note_on,80,0,120
1,note_on,85,0,0
1,note_on,89,0,120
1,note_on,85,77,0
1,note_on,73,59,0
1,note_on,73,0,120
1,note_on,77,39,120
1,note_on,80,52,0
1,note_on,80,0,120
1,note_on,77,0,0
1,note_on,85,0,120
1,note_on,90,86,0
1,note_on,78,62,0
1,note_on,78,0,120
1,note_on,85,44,120
1,note_on,81,52,0
1,note_on,81,0,120
1,note_on,85,0,0
1,note_on,90,0,120
1,note_on,93,69,0
1,note_on,81,59,0
1,note_on,81,0,120
1,note_on,93,0,0
1,note_on,90,69,120
1,note_on,78,52,0
1,note_on,78,0,120
1,note_on,90,0,0
1,note_on,89,79,120
1,note_on,77,59,0
1,note_on,77,0,240
1,note_on,85,52,0
1,note_on,80,44,0
1,note_on,80,0,240
1,note_on,85,0,0
1,note_on,89,0,0
1,note_on,92,77,0
1,note_on,80,59,0
1,note_on,80,0,240
1,note_on,85,39,0
1,note_on,89,52,0
1,note_on,89,0,240
1,note_on,85,0,0
1,note_on,92,0,0
1,note_on,93,79,0
1,note_on,81,59,0
1,note_on,81,0,240
1,note_on,87,52,0
1,note_on,84,44,0
1,note_on,84,0,240
1,note_on,87,0,0
1,note_on,93,0,0
1,note_on,90,77,0
1,note_on,78,59,0
1,note_on,78,0,240
1,note_on,81,39,0
1,note_on,84,52,0
1,note_on,84,0,240
1,note_on,81,0,0
1,note_on,90,0,0
1,note_on,89,80,0
1,note_on,77,60,0
1,note_on,77,0,240
1,note_on,85,52,0
1,note_on,80,44,0
1,note_on,80,0,240
1,note_on,85,0,0
1,note_on,89,0,0
1,note_on,92,79,0
1,note_on,80,60,0
1,note_on,80,0,240
1,note_on,85,40,0
1,note_on,89,54,0
1,note_on,89,0,240
1,note_on,85,0,0
1,note_on,92,0,0
1,note_on,95,81,0
1,note_on,83,62,0
1,note_on,83,0,240
1,note_on,89,54,0
1,note_on,86,46,0
1,note_on,86,0,240
1,note_on,89,0,0
1,note_on,95,0,0
1,note_on,92,80,0
1,note_on,80,62,0
1,note_on,80,0,240
1,note_on,83,40,0
1,note_on,89,55,0
1,note_on,89,0,240
1,note_on,83,0,0
1,note_on,92,0,0
1,note_on,91,82,0
1,note_on,79,62,0
1,note_on,79,0,240
1,note_on,87,55,0
1,note_on,82,47,0
1,note_on,82,0,240
1,note_on,87,0,0
1,note_on,91,0,0
1,note_on,94,81,0
1,note_on,82,63,0
1,note_on,82,0,240
1,note_on,87,41,0
1,note_on,91,56,0
1,note_on,91,0,240
1,note_on,87,0,0
1,note_on,94,0,0
1,note_on,95,83,0
1,note_on,83,63,0
1,note_on,83,0,240
1,note_on,89,56,0
1,note_on,86,47,0
1,note_on,86,0,240
1,note_on,89,0,0
1,note_on,95,0,0
1,note_on,92,82,0
1,note_on,80,64,0
1,note_on,80,0,240
1,note_on,83,41,0
1,note_on,89,56,0
1,note_on,89,0,240
1,note_on,83,0,0
1,note_on,92,0,0
1,note_on,91,86,0
1,note_on,79,64,0
1,note_on,79,0,240
1,note_on,87,57,0
1,note_on,82,48,0
1,note_on,82,0,240
1,note_on,87,0,0
1,note_on,91,0,0
1,note_on,94,83,0
1,note_on,82,65,0
1,note_on,82,0,240
1,note_on,87,42,0
1,note_on,91,57,0
1,note_on,91,0,240
1,note_on,87,0,0
1,note_on,94,0,0
1,note_on,97,86,0
1,note_on,85,65,0
1,note_on,85,0,240
1,note_on,91,58,0
1,note_on,88,49,0
1,note_on,88,0,240
1,note_on,91,0,0
1,note_on,97,0,0
1,note_on,94,85,0
1,note_on,82,65,0
1,note_on,82,0,240
1,note_on,85,43,0
1,note_on,91,58,0
1,note_on,91,0,240
1,note_on,85,0,0
1,note_on,94,0,0
1,note_on,93,88,0
1,note_on,81,66,0
1,note_on,81,0,240
1,note_on,89,58,0
1,note_on,84,49,0
1,note_on,84,0,240
1,note_on,89,0,0
1,note_on,93,0,0
1,note_on,96,86,0
1,note_on,84,66,0
1,note_on,84,0,240
1,note_on,89,43,0
1,note_on,93,58,0
1,note_on,93,0,240
1,note_on,89,0,0
1,note_on,96,0,0
1,note_on,97,89,0
1,note_on,85,67,0
1,note_on,85,0,240
1,note_on,91,59,0
1,note_on,88,50,0
1,note_on,88,0,240
1,note_on,91,0,0
1,note_on,97,0,0
1,note_on,94,88,0
1,note_on,82,67,0
1,note_on,82,0,240
1,note_on,85,44,0
1,note_on,91,59,0
1,note_on,91,0,240
1,note_on,85,0,0
1,note_on,94,0,0
1,note_on,93,90,0
1,note_on,81,67,0
1,note_on,81,0,240
1,note_on,89,60,0
1,note_on,84,51,0
1,note_on,84,0,240
1,note_on,89,0,0
1,note_on,93,0,0
1,note_on,96,88,0
1,note_on,84,69,0
1,note_on,84,0,240
1,note_on,89,44,0
1,note_on,93,60,0
1,note_on,93,0,240
1,note_on,89,0,0
1,note_on,96,0,0
1,note_on,97,92,0
1,note_on,85,69,0
1,note_on,85,0,240
1,note_on,91,60,0
1,note_on,88,51,0
1,note_on,88,0,240
1,note_on,91,0,0
1,note_on,97,0,0
1,note_on,94,90,0
1,note_on,82,70,0
1,note_on,82,0,240
1,note_on,85,46,0
1,note_on,91,62,0
1,note_on,91,0,240
1,note_on,85,0,0
1,note_on,94,0,0
1,note_on,93,94,0
1,note_on,81,70,0
1,note_on,81,0,240
1,note_on,89,62,0
1,note_on,84,52,0
1,note_on,84,0,240
1,note_on,89,0,0
1,note_on,93,0,0
1,note_on,96,92,0
1,note_on,84,71,0
1,note_on,84,0,240
1,note_on,89,46,0
1,note_on,93,63,0
1,note_on,93,0,240
1,note_on,89,0,0
1,note_on,96,0,0
1,note_on,99,101,0
1,note_on,87,101,0
1,note_on,87,0,960
1,note_on,99,0,0
1,note_on,67,76,0
1,note_on,79,83,0
1,note_on,79,0,960
1,note_on,67,0,0
1,note_on,69,83,0
1,note_on,69,0,60
1,note_on,82,55,0
1,note_on,82,0,60
1,note_on,69,63,0
1,note_on,69,0,60
1,note_on,82,46,0
1,note_on,82,0,60
1,note_on,69,64,0
1,note_on,69,0,60
1,note_on,82,46,0
1,note_on,82,0,60
1,note_on,69,61,0
1,note_on,69,0,60
1,note_on,82,46,0
1,note_on,82,0,60
1,note_on,69,59,0
1,note_on,69,0,60
1,note_on,82,45,0
1,note_on,82,0,60
1,note_on,69,58,0
1,note_on,69,0,60
1,note_on,82,48,0
1,note_on,82,0,60
1,note_on,69,59,0
1,note_on,69,0,60
1,note_on,82,46,0
1,note_on,82,0,60
1,note_on,69,64,0
1,note_on,69,0,60
1,note_on,82,50,0
1,note_on,82,0,60
1,note_on,69,65,0
1,note_on,69,0,60
1,note_on,82,52,0
1,note_on,82,0,60
1,note_on,69,65,0
1,note_on,69,0,60
1,note_on,82,52,0
1,note_on,82,0,60
1,note_on,69,65,0
1,note_on,69,0,60
1,note_on,82,51,0
1,note_on,82,0,60
1,note_on,69,73,0
1,note_on,69,0,120
1,note_on,79,74,0
1,note_on,67,74,0
1,note_on,67,0,60
1,note_on,79,0,0
1,note_on,81,74,60
1,note_on,69,74,0
1,note_on,69,0,60
1,note_on,81,0,0
1,note_on,82,88,60
1,note_on,70,63,0
1,note_on,70,0,120
1,note_on,77,57,120
1,note_on,74,49,0
1,note_on,74,0,120
1,note_on,77,0,0
1,note_on,82,0,120
1,note_on,82,71,0
1,note_on,70,63,0
1,note_on,70,0,120
1,note_on,82,0,0
1,note_on,82,71,120
1,note_on,77,57,0
1,note_on,74,49,0
1,note_on,74,0,120
1,note_on,77,0,0
1,note_on,82,0,0
1,note_on,86,88,120
1,note_on,74,63,0
1,note_on,74,0,120
1,note_on,86,0,0
1,note_on,82,71,120
1,note_on,77,57,0
1,note_on,77,0,120
1,note_on,82,0,0
1,note_on,82,71,120
1,note_on,70,63,0
1,note_on,70,0,120
1,note_on,74,42,120
1,note_on,77,57,0
1,note_on,77,0,120
1,note_on,74,0,0
1,note_on,82,0,120
1,note_on,77,87,0
1,note_on,65,63,0
1,note_on,65,0,120
1,note_on,70,49,120
1,note_on,74,57,0
1,note_on,74,0,120
1,note_on,70,0,0
1,note_on,77,0,120
1,note_on,77,71,0
1,note_on,65,63,0
1,note_on,65,0,120
1,note_on,77,0,0
1,note_on,77,71,120
1,note_on,74,57,0
1,note_on,70,49,0
1,note_on,70,0,120
1,note_on,74,0,0
1,note_on,77,0,0
1,note_on,82,85,120
1,note_on,70,63,0
1,note_on,70,0,120
1,note_on,82,0,0
1,note_on,77,71,120
1,note_on,74,57,0
1,note_on,74,0,120
1,note_on,77,0,0
1,note_on,77,71,120
1,note_on,65,63,0
1,note_on,65,0,120
1,note_on,70,42,120
1,note_on,74,57,0
1,note_on,74,0,120
1,note_on,70,0,0
1,note_on,77,0,120
1,note_on,74,91,0
1,note_on,62,66,0
1,note_on,62,0,120
1,note_on,65,50,120
1,note_on,70,59,0
1,note_on,70,0,120
1,note_on,65,0,0
1,note_on,74,0,120
1,note_on,74,73,0
1,note_on,62,72,0
1,note_on,62,0,120
1,note_on,74,0,0
1,note_on,75,73,120
1,note_on,63,64,0
1,note_on,63,0,120
1,note_on,75,0,0
1,note_on,79,89,120
1,note_on,67,66,0
1,note_on,67,0,120
1,note_on,70,44,120
1,note_on,74,59,0
1,note_on,74,0,120
1,note_on,70,0,0
1,note_on,79,0,120
1,note_on,77,74,0
1,note_on,65,66,0
1,note_on,65,0,120
1,note_on,70,44,120
1,note_on,74,59,0
1,note_on,74,0,120
1,note_on,70,0,0
1,note_on,77,0,120
1,note_on,77,91,0
1,note_on,65,66,0
1,note_on,65,0,120
1,note_on,69,50,120
1,note_on,72,59,0
1,note_on,72,0,120
1,note_on,69,0,0
1,note_on,77,0,120
1,note_on,79,73,0
1,note_on,67,72,0
1,note_on,67,0,120
1,note_on,79,0,0
1,note_on,81,73,120
1,note_on,69,64,0
1,note_on,69,0,120
1,note_on,81,0,0
1,note_on,82,89,120
1,note_on,70,66,0
1,note_on,70,0,120
1,note_on,74,44,120
1,note_on,77,59,0
1,note_on,77,0,120
1,note_on,74,0,0
1,note_on,82,0,120
1,note_on,70,63,0
1,note_on,70,0,120
1,note_on,74,39,120
1,note_on,77,53,0
1,note_on,77,0,120
1,note_on,74,0,0
1,note_on,94,63,120
1,note_on,82,44,0
1,note_on,82,0,120
1,note_on,89,39,120
1,note_on,86,34,0
1,note_on,86,0,120
1,note_on,89,0,0
1,note_on,94,0,120
1,note_on,94,49,0
1,note_on,82,44,0
1,note_on,82,0,120
1,note_on,94,0,0
1,note_on,94,49,120
1,note_on,89,39,0
1,note_on,86,34,0
1,note_on,86,0,120
1,note_on,89,0,0
1,note_on,94,0,0
1,note_on,98,63,120
1,note_on,86,44,0
1,note_on,86,0,120
1,note_on,98,0,0
1,note_on,94,51,120
1,note_on,89,39,0
1,note_on,89,0,120
1,note_on,94,0,0
1,note_on,94,51,120
1,note_on,82,44,0
1,note_on,82,0,120
1,note_on,86,29,120
1,note_on,89,39,0
1,note_on,89,0,120
1,note_on,86,0,0
1,note_on,94,0,120
1,note_on,89,63,0
1,note_on,77,44,0
1,note_on,77,0,120
1,note_on,82,34,120
1,note_on,86,39,0
1,note_on,86,0,120
1,note_on,82,0,0
1,note_on,89,0,120
1,note_on,89,49,0
1,note_on,77,44,0
1,note_on,77,0,120
1,note_on,89,0,0
1,note_on,89,49,120
1,note_on,86,39,0
1,note_on,82,34,0
1,note_on,82,0,120
1,note_on,86,0,0
1,note_on,89,0,0
1,note_on,94,62,120
1,note_on,82,44,0
1,note_on,82,0,120
1,note_on,94,0,0
1,note_on,89,51,120
1,note_on,86,39,0
1,note_on,86,0,120
1,note_on,89,0,0
1,note_on,89,51,120
1,note_on,77,44,0
1,note_on,77,0,120
1,note_on,82,29,120
1,note_on,86,39,0
1,note_on,86,0,120
1,note_on,82,0,0
1,note_on,89,0,120
1,note_on,86,63,0
1,note_on,74,45,0
1,note_on,74,0,120
1,note_on,82,39,120
1,note_on,77,35,0
1,note_on,77,0,120
1,note_on,82,0,0
1,note_on,86,0,120
1,note_on,86,46,0
1,note_on,74,45,0
1,note_on,74,0,120
1,note_on,86,0,0
1,note_on,87,46,120
1,note_on,75,41,0
1,note_on,75,0,120
1,note_on,87,0,0
1,note_on,91,62,120
1,note_on,79,45,0
1,note_on,79,0,120
1,note_on,82,30,120
1,note_on,86,41,0
1,note_on,86,0,120
1,note_on,82,0,0
1,note_on,91,0,120
1,note_on,89,51,0
1,note_on,77,45,0
1,note_on,77,0,120
1,note_on,82,30,120
1,note_on,86,41,0
1,note_on,86,0,120
1,note_on,82,0,0
1,note_on,89,0,120
1,note_on,89,63,0
1,note_on,77,45,0
1,note_on,77,0,120
1,note_on,81,35,120
1,note_on,84,41,0
1,note_on,84,0,120
1,note_on,81,0,0
1,note_on,89,0,120
1,note_on,91,46,0
1,note_on,79,45,0
1,note_on,79,0,120
1,note_on,91,0,0
1,note_on,93,46,120
1,note_on,81,41,0
1,note_on,81,0,120
1,note_on,93,0,0
1,note_on,94,62,120
1,note_on,82,45,0
1,note_on,82,0,120
1,note_on,94,0,0
1,note_on,70,30,120
1,note_on,74,41,0
1,note_on,74,0,120
1,note_on,70,0,0
1,note_on,74,30,120
1,note_on,77,45,0
1,note_on,77,0,120
1,note_on,74,0,0
1,note_on,77,30,120
1,note_on,82,41,0
1,note_on,82,0,120
1,note_on,77,0,0
1,note_on,86,88,120
1,note_on,74,69,0
1,note_on,77,69,0
1,note_on,77,0,480
1,note_on,74,0,0
1,note_on,86,0,0
1,note_on,82,78,0
1,note_on,70,69,0
1,note_on,70,0,120
1,note_on,82,0,0
1,note_on,77,78,120
1,note_on,65,53,0
1,note_on,65,0,120
1,note_on,77,0,0
1,note_on,87,88,120
1,note_on,75,69,0
1,note_on,81,69,0
1,note_on,81,0,480
1,note_on,75,0,0
1,note_on,87,0,0
1,note_on,81,71,0
1,note_on,69,63,0
1,note_on,69,0,480
1,note_on,81,0,0
1,note_on,86,88,0
1,note_on,74,69,0
1,note_on,77,69,0
1,note_on,77,0,480
1,note_on,74,0,0
1,note_on,86,0,0
1,note_on,82,78,0
1,note_on,70,69,0
1,note_on,70,0,120
1,note_on,82,0,0
1,note_on,77,78,120
1,note_on,65,53,0
1,note_on,65,0,120
1,note_on,77,0,0
1,note_on,87,88,120
1,note_on,75,69,0
1,note_on,81,69,0
1,note_on,81,0,480
1,note_on,75,0,0
1,note_on,87,0,0
1,note_on,81,71,0
1,note_on,69,63,0
1,note_on,69,0,480
1,note_on,81,0,0
1,note_on,86,88,0
1,note_on,74,69,0
1,note_on,77,69,0
1,note_on,77,0,480
1,note_on,74,0,0
1,note_on,86,0,0
1,note_on,82,78,0
1,note_on,70,69,0
1,note_on,70,0,120
1,note_on,82,0,0
1,note_on,77,78,120
1,note_on,65,53,0
1,note_on,65,0,120
1,note_on,77,0,0
1,note_on,87,88,120
1,note_on,75,69,0
1,note_on,81,69,0
1,note_on,81,0,480
1,note_on,75,0,0
1,note_on,87,0,0
1,note_on,81,71,0
1,note_on,69,63,0
1,note_on,69,0,480
1,note_on,81,0,0
1,note_on,86,88,0
1,note_on,74,69,0
1,note_on,77,69,0
1,note_on,77,0,480
1,note_on,74,0,0
1,note_on,86,0,0
1,note_on,82,78,0
1,note_on,70,69,0
1,note_on,70,0,120
1,note_on,82,0,0
1,note_on,77,78,120
1,note_on,65,53,0
1,note_on,65,0,120
1,note_on,77,0,0
1,note_on,87,88,120
1,note_on,75,69,0
1,note_on,81,69,0
1,note_on,81,0,480
1,note_on,75,0,0
1,note_on,87,0,0
1,note_on,63,40,0
1,note_on,51,28,0
1,note_on,57,28,0
1,note_on,57,0,240
1,note_on,51,0,0
1,note_on,63,0,0
1,note_on,63,51,0
1,note_on,51,43,0
1,note_on,57,43,0
1,note_on,57,0,480
1,note_on,51,0,0
1,note_on,63,0,0
1,note_on,63,41,0
1,note_on,51,34,0
1,note_on,58,34,0
1,note_on,58,0,480
1,note_on,51,0,0
1,note_on,63,0,0
1,note_on,63,42,0
1,note_on,51,35,0
1,note_on,59,35,0
1,note_on,59,0,480
1,note_on,51,0,0
1,note_on,63,0,0
1,note_on,63,44,0
1,note_on,51,37,0
1,note_on,60,37,0
1,note_on,60,0,480
1,note_on,51,0,0
1,note_on,63,0,0
1,note_on,66,52,0
1,note_on,54,44,0
1,note_on,60,44,0
1,note_on,60,0,480
1,note_on,54,0,0
1,note_on,66,0,0
1,note_on,66,41,0
1,note_on,54,34,0
1,note_on,61,34,0
1,note_on,61,0,480
1,note_on,54,0,0
1,note_on,66,0,0
1,note_on,66,42,0
1,note_on,54,35,0
1,note_on,62,35,0
1,note_on,62,0,480
1,note_on,54,0,0
1,note_on,66,0,0
1,note_on,66,43,0
1,note_on,63,36,0
1,note_on,54,36,0
1,note_on,54,0,480
1,note_on,63,0,0
1,note_on,66,0,0
1,note_on,69,52,0
1,note_on,57,44,0
1,note_on,63,44,0
1,note_on,63,0,480
1,note_on,57,0,0
1,note_on,69,0,0
1,note_on,69,40,0
1,note_on,57,34,0
1,note_on,64,34,0
1,note_on,64,0,480
1,note_on,57,0,0
1,note_on,69,0,0
1,note_on,69,41,0
1,note_on,57,34,0
1,note_on,65,34,0
1,note_on,65,0,480
1,note_on,57,0,0
1,note_on,69,0,0
1,note_on,69,43,0
1,note_on,57,36,0
1,note_on,66,36,0
1,note_on,66,0,480
1,note_on,57,0,0
1,note_on,69,0,0
1,note_on,72,52,0
1,note_on,66,52,0
1,note_on,60,44,0
1,note_on,60,0,480
1,note_on,66,0,0
1,note_on,72,0,0
1,note_on,72,41,0
1,note_on,67,41,0
1,note_on,60,34,0
1,note_on,60,0,480
1,note_on,67,0,0
1,note_on,72,0,0
1,note_on,72,43,0
1,note_on,60,36,0
1,note_on,68,36,0
1,note_on,68,0,240
1,note_on,60,0,0
1,note_on,72,0,0
1,note_on,72,51,0
1,note_on,60,44,0
1,note_on,69,43,0
1,note_on,69,0,320
1,note_on,60,0,0
1,note_on,72,0,0
1,note_on,75,48,0
1,note_on,63,40,0
1,note_on,69,40,0
1,note_on,69,0,160
1,note_on,63,0,0
1,note_on,75,0,0
1,note_on,75,47,160
1,note_on,63,39,0
1,note_on,70,39,0
1,note_on,70,0,160
1,note_on,63,0,0
1,note_on,75,0,0
1,note_on,75,56,160
1,note_on,63,47,0
1,note_on,71,47,0
1,note_on,71,0,160
1,note_on,63,0,0
1,note_on,75,0,0
1,note_on,78,51,160
1,note_on,66,42,0
1,note_on,72,42,0
1,note_on,72,0,160
1,note_on,66,0,0
1,note_on,78,0,0
1,note_on,78,51,160
1,note_on,66,42,0
1,note_on,73,42,0
1,note_on,73,0,160
1,note_on,66,0,0
1,note_on,78,0,0
1,note_on,78,60,160
1,note_on,66,50,0
1,note_on,74,50,0
1,note_on,74,0,160
1,note_on,66,0,0
1,note_on,78,0,0
1,note_on,81,56,160
1,note_on,69,47,0
1,note_on,75,47,0
1,note_on,75,0,160
1,note_on,69,0,0
1,note_on,81,0,0
1,note_on,81,56,160
1,note_on,69,47,0
1,note_on,76,47,0
1,note_on,76,0,160
1,note_on,69,0,0
1,note_on,81,0,0
1,note_on,81,66,160
1,note_on,69,56,0
1,note_on,77,56,0
1,note_on,77,0,160
1,note_on,69,0,0
1,note_on,81,0,0
1,note_on,84,60,160
1,note_on,72,50,0
1,note_on,78,50,0
1,note_on,78,0,160
1,note_on,72,0,0
1,note_on,84,0,0
1,note_on,84,60,160
1,note_on,72,50,0
1,note_on,79,50,0
1,note_on,79,0,160
1,note_on,72,0,0
1,note_on,84,0,0
1,note_on,84,70,160
1,note_on,72,59,0
1,note_on,80,59,0
1,note_on,80,0,180
1,note_on,72,0,0
1,note_on,84,0,0
1,note_on,87,63,60
1,note_on,81,53,0
1,note_on,75,53,0
1,note_on,75,0,180
1,note_on,81,0,0
1,note_on,87,0,0
1,note_on,87,63,60
1,note_on,82,53,0
1,note_on,75,53,0
1,note_on,75,0,180
1,note_on,82,0,0
1,note_on,87,0,0
1,note_on,87,63,60
1,note_on,83,53,0
1,note_on,75,53,0
1,note_on,75,0,180
1,note_on,83,0,0
1,note_on,87,0,0
1,note_on,87,73,60
1,note_on,75,61,0
1,note_on,84,61,0
1,note_on,84,0,180
1,note_on,75,0,0
1,note_on,87,0,0
1,note_on,90,64,60
1,note_on,78,55,0
1,note_on,84,55,0
1,note_on,84,0,180
1,note_on,78,0,0
1,note_on,90,0,0
1,note_on,90,64,60
1,note_on,78,55,0
1,note_on,85,55,0
1,note_on,85,0,180
1,note_on,78,0,0
1,note_on,90,0,0
1,note_on,90,64,60
1,note_on,78,55,0
1,note_on,86,55,0
1,note_on,86,0,180
1,note_on,78,0,0
1,note_on,90,0,0
1,note_on,90,77,60
1,note_on,78,64,0
1,note_on,87,64,0
1,note_on,87,0,180
1,note_on,78,0,0
1,note_on,90,0,0
1,note_on,93,69,60
1,note_on,81,58,0
1,note_on,87,58,0
1,note_on,87,0,180
1,note_on,81,0,0
1,note_on,93,0,0
1,note_on,93,69,60
1,note_on,81,58,0
1,note_on,88,58,0
1,note_on,88,0,180
1,note_on,81,0,0
1,note_on,93,0,0
1,note_on,93,69,60
1,note_on,81,58,0
1,note_on,89,58,0
1,note_on,89,0,180
1,note_on,81,0,0
1,note_on,93,0,0
1,note_on,81,68,60
1,note_on,90,68,0
1,note_on,93,68,0
1,note_on,93,0,180
1,note_on,90,0,0
1,note_on,81,0,0
1,note_on,96,71,60
1,note_on,84,60,0
1,note_on,90,60,0
1,note_on,90,0,180
1,note_on,84,0,0
1,note_on,96,0,0
1,note_on,96,71,60
1,note_on,84,60,0
1,note_on,91,60,0
1,note_on,91,0,180
1,note_on,84,0,0
1,note_on,96,0,0
1,note_on,96,71,60
1,note_on,84,60,0
1,note_on,92,60,0
1,note_on,92,0,180
1,note_on,84,0,0
1,note_on,96,0,0
1,note_on,96,81,60
1,note_on,84,68,0
1,note_on,93,68,0
1,note_on,93,0,180
1,note_on,84,0,0
1,note_on,96,0,0
1,note_on,99,80,60
1,note_on,93,68,0
1,note_on,87,68,0
1,note_on,87,0,180
1,note_on,93,0,0
1,note_on,99,0,0
1,note_on,99,84,60
1,note_on,94,71,0
1,note_on,87,71,0
1,note_on,87,0,180
1,note_on,94,0,0
1,note_on,99,0,0
1,note_on,95,89,60
1,note_on,99,89,0
1,note_on,87,74,0
1,note_on,87,0,180
1,note_on,99,0,0
1,note_on,95,0,0
1,note_on,99,92,60
1,note_on,96,78,0
1,note_on,87,78,0
1,note_on,87,0,180
1,note_on,96,0,0
1,note_on,99,0,0
1,note_on,99,81,60
1,note_on,96,68,0
1,note_on,87,68,0
1,note_on,87,0,180
1,note_on,96,0,0
1,note_on,99,0,0
1,note_on,99,81,60
1,note_on,95,68,0
1,note_on,87,68,0
1,note_on,87,0,180
1,note_on,95,0,0
1,note_on,99,0,0
1,note_on,99,81,60
1,note_on,94,68,0
1,note_on,87,68,0
1,note_on,87,0,180
1,note_on,94,0,0
1,note_on,99,0,0
1,note_on,99,92,60
1,note_on,93,78,0
1,note_on,87,78,0
1,note_on,87,0,180
1,note_on,93,0,0
1,note_on,99,0,0
1,note_on,99,81,60
1,note_on,93,68,0
1,note_on,87,68,0
1,note_on,87,0,180
1,note_on,93,0,0
1,note_on,99,0,0
1,note_on,99,84,60
1,note_on,94,71,0
1,note_on,87,71,0
1,note_on,87,0,180
1,note_on,94,0,0
1,note_on,99,0,0
1,note_on,95,89,60
1,note_on,99,89,0
1,note_on,87,74,0
1,note_on,87,0,180
1,note_on,99,0,0
1,note_on,95,0,0
1,note_on,99,93,60
1,note_on,96,79,0
1,note_on,87,79,0
1,note_on,87,0,180
1,note_on,96,0,0
1,note_on,99,0,0
1,note_on,99,81,60
1,note_on,96,68,0
1,note_on,87,68,0
1,note_on,87,0,180
1,note_on,96,0,0
1,note_on,99,0,0
1,note_on,99,81,60
1,note_on,95,68,0
1,note_on,87,68,0
1,note_on,87,0,180
1,note_on,95,0,0
1,note_on,99,0,0
1,note_on,99,81,60
1,note_on,94,68,0
1,note_on,87,68,0
1,note_on,87,0,180
1,note_on,94,0,0
1,note_on,99,0,0
1,note_on,93,93,60
1,note_on,87,79,0
1,note_on,87,0,480
1,note_on,93,0,0
1,note_on,93,82,0
1,note_on,87,69,0
1,note_on,87,0,480
1,note_on,93,0,0
1,note_on,94,83,0
1,note_on,87,70,0
1,note_on,87,0,480
1,note_on,94,0,0
1,note_on,95,85,0
1,note_on,87,72,0
1,note_on,87,0,480
1,note_on,95,0,0
1,note_on,96,93,0
1,note_on,87,79,0
1,note_on,87,0,480
1,note_on,96,0,0
1,note_on,96,93,480
1,note_on,87,79,0
1,note_on,87,0,480
1,note_on,96,0,0
1,note_on,103,59,480
1,note_on,103,0,120
1,note_on,101,60,0
1,note_on,101,0,120
1,note_on,99,61,0
1,note_on,99,0,120
1,note_on,96,62,0
1,note_on,96,0,120
1,note_on,93,62,0
1,note_on,93,0,120
1,note_on,89,63,0
1,note_on,89,0,120
1,note_on,87,64,0
1,note_on,87,0,120
1,note_on,84,65,0
1,note_on,84,0,120
1,note_on,81,66,0
1,note_on,81,0,120
1,note_on,77,67,0
1,note_on,77,0,120
1,note_on,75,68,0
1,note_on,75,0,120
1,note_on,72,69,0
1,note_on,72,0,120
1,note_on,69,70,0
1,note_on,69,0,120
1,note_on,65,71,0
1,note_on,65,0,120
1,note_on,63,72,0
1,note_on,63,0,120
1,note_on,60,72,0
1,note_on,60,0,120
1,note_on,60,68,1320
1,note_on,60,0,120
1,note_on,63,67,0
1,note_on,63,0,120
1,note_on,65,66,0
1,note_on,65,0,120
1,note_on,69,65,0
1,note_on,69,0,120
1,note_on,72,64,0
1,note_on,72,0,120
1,note_on,75,63,0
1,note_on,75,0,120
1,note_on,77,62,0
1,note_on,77,0,120
1,note_on,81,61,0
1,note_on,81,0,120
1,note_on,84,60,0
1,note_on,84,0,120
1,note_on,87,59,0
1,note_on,87,0,120
1,note_on,89,58,0
1,note_on,89,0,120
1,note_on,93,62,0
1,note_on,93,0,120
1,note_on,96,65,0
1,note_on,96,0,120
1,note_on,99,73,0
1,note_on,99,0,120
1,note_on,103,86,0
1,note_on,103,0,120
1,note_on,99,89,240
1,note_on,87,75,0
1,note_on,87,0,120
1,note_on,99,0,0
1,note_on,84,88,0
1,note_on,84,0,120
1,note_on,93,87,0
1,note_on,81,73,0
1,note_on,81,0,120
1,note_on,93,0,0
1,note_on,78,86,0
1,note_on,78,0,120
1,note_on,89,85,0
1,note_on,77,72,0
1,note_on,77,0,120
1,note_on,89,0,0
1,note_on,76,85,0
1,note_on,76,0,120
1,note_on,87,84,0
1,note_on,75,71,0
1,note_on,75,0,120
1,note_on,87,0,0
1,note_on,72,83,0
1,note_on,72,0,120
1,note_on,81,82,0
1,note_on,69,69,0
1,note_on,69,0,120
1,note_on,81,0,0
1,note_on,66,81,0
1,note_on,66,0,120
1,note_on,77,80,0
1,note_on,65,68,0
1,note_on,65,0,120
1,note_on,77,0,0
1,note_on,64,79,0
1,note_on,64,0,120
1,note_on,75,78,0
1,note_on,63,66,0
1,note_on,63,0,120
1,note_on,75,0,0
1,note_on,60,77,0
1,note_on,60,0,120
1,note_on,69,76,1395
1,note_on,75,79,15
1,note_on,81,83,15
1,note_on,87,87,15
1,note_on,87,0,240
1,note_on,69,0,0
1,note_on,75,0,0
1,note_on,81,0,0
1,note_on,70,77,195
1,note_on,75,81,15
1,note_on,82,86,15
1,note_on,87,91,15
1,note_on,87,0,240
1,note_on,70,0,0
1,note_on,75,0,0
1,note_on,82,0,0
1,note_on,71,74,195
1,note_on,75,78,15
1,note_on,83,82,15
1,note_on,87,87,15
1,note_on,87,0,240
1,note_on,71,0,0
1,note_on,75,0,0
1,note_on,83,0,0
1,note_on,72,79,195
1,note_on,75,83,15
1,note_on,84,88,15
1,note_on,87,93,15
1,note_on,87,0,240
1,note_on,72,0,0
1,note_on,75,0,0
1,note_on,84,0,0
1,note_on,86,72,880
1,note_on,74,61,0
1,note_on,74,0,160
1,note_on,86,0,0
1,note_on,87,76,0
1,note_on,75,64,0
1,note_on,75,0,160
1,note_on,87,0,0
1,note_on,88,80,0
1,note_on,76,68,0
1,note_on,76,0,160
1,note_on,88,0,0
1,note_on,89,85,0
1,note_on,77,72,0
1,note_on,77,0,160
1,note_on,89,0,0
1,note_on,90,89,0
1,note_on,78,75,0
1,note_on,78,0,160
1,note_on,90,0,0
1,note_on,93,93,0
1,note_on,81,79,0
1,note_on,81,0,160
1,note_on,93,0,0
1,note_on,91,87,0
1,note_on,79,73,0
1,note_on,79,0,160
1,note_on,91,0,0
1,note_on,86,83,0
1,note_on,74,70,0
1,note_on,74,0,160
1,note_on,86,0,0
1,note_on,89,94,0
1,note_on,77,79,0
1,note_on,77,0,160
1,note_on,89,0,0
1,note_on,87,85,0
1,note_on,75,72,0
1,note_on,75,0,160
1,note_on,87,0,0
1,note_on,84,85,0
1,note_on,72,72,0
1,note_on,72,0,160
1,note_on,84,0,0
1,note_on,82,96,0
1,note_on,70,69,0
1,note_on,70,0,120
1,note_on,77,62,120
1,note_on,74,53,0
1,note_on,74,0,120
1,note_on,77,0,0
1,note_on,82,0,120
1,note_on,82,78,0
1,note_on,70,69,0
1,note_on,70,0,120
1,note_on,82,0,0
1,note_on,82,78,120
1,note_on,77,62,0
1,note_on,74,53,0
1,note_on,74,0,120
1,note_on,77,0,0
1,note_on,82,0,0
1,note_on,86,96,120
1,note_on,74,69,0
1,note_on,74,0,120
1,note_on,86,0,0
1,note_on,82,78,120
1,note_on,77,62,0
1,note_on,77,0,120
1,note_on,82,0,0
1,note_on,82,78,120
1,note_on,70,69,0
1,note_on,70,0,120
1,note_on,74,46,120
1,note_on,77,62,0
1,note_on,77,0,120
1,note_on,74,0,0
1,note_on,82,0,120
1,note_on,77,95,0
1,note_on,65,69,0
1,note_on,65,0,120
1,note_on,70,53,120
1,note_on,74,62,0
1,note_on,74,0,120
1,note_on,70,0,0
1,note_on,77,0,120
1,note_on,77,78,0
1,note_on,65,69,0
1,note_on,65,0,120
1,note_on,77,0,0
1,note_on,77,78,120
1,note_on,74,62,0
1,note_on,70,53,0
1,note_on,70,0,120
1,note_on,74,0,0
1,note_on,77,0,0
1,note_on,82,93,120
1,note_on,70,69,0
1,note_on,70,0,120
1,note_on,82,0,0
1,note_on,77,78,120
1,note_on,74,62,0
1,note_on,74,0,120
1,note_on,77,0,0
1,note_on,77,78,120
1,note_on,65,69,0
1,note_on,65,0,120
1,note_on,70,46,120
1,note_on,74,62,0
1,note_on,74,0,120
1,note_on,70,0,0
1,note_on,77,0,120
1,note_on,74,100,0
1,note_on,62,72,0
1,note_on,62,0,120
1,note_on,65,55,120
1,note_on,70,64,0
1,note_on,70,0,120
1,note_on,65,0,0
1,note_on,74,0,120
1,note_on,74,73,0
1,note_on,62,72,0
1,note_on,62,0,120
1,note_on,74,0,0
1,note_on,75,73,120
1,note_on,63,64,0
1,note_on,63,0,120
1,note_on,75,0,0
1,note_on,79,97,120
1,note_on,67,72,0
1,note_on,67,0,120
1,note_on,79,0,60
1,note_on,65,48,60
1,note_on,77,74,0
1,note_on,77,0,120
1,note_on,65,0,0
1,note_on,77,81,120
1,note_on,65,72,0
1,note_on,65,0,120
1,note_on,77,0,0
1,note_on,74,48,120
1,note_on,70,48,0
1,note_on,77,77,0
1,note_on,77,0,120
1,note_on,70,0,0
1,note_on,74,0,0
1,note_on,77,100,120
1,note_on,65,72,0
1,note_on,65,0,120
1,note_on,69,55,120
1,note_on,72,64,0
1,note_on,72,0,120
1,note_on,69,0,0
1,note_on,77,0,120
1,note_on,79,73,0
1,note_on,67,72,0
1,note_on,67,0,120
1,note_on,79,0,0
1,note_on,81,73,120
1,note_on,69,64,0
1,note_on,69,0,120
1,note_on,81,0,0
1,note_on,82,97,120
1,note_on,70,72,0
1,note_on,70,0,120
1,note_on,74,48,120
1,note_on,77,64,0
1,note_on,77,0,120
1,note_on,74,0,0
1,note_on,82,0,120
1,note_on,70,69,0
1,note_on,70,0,120
1,note_on,74,42,120
1,note_on,77,58,0
1,note_on,77,0,120
1,note_on,74,0,0
1,note_on,94,96,120
1,note_on,82,69,0
1,note_on,82,0,120
1,note_on,89,62,120
1,note_on,86,53,0
1,note_on,86,0,120
1,note_on,89,0,0
1,note_on,94,0,120
1,note_on,94,78,0
1,note_on,82,69,0
1,note_on,82,0,120
1,note_on,94,0,0
1,note_on,94,78,120
1,note_on,89,62,0
1,note_on,86,53,0
1,note_on,86,0,120
1,note_on,89,0,0
1,note_on,94,0,0
1,note_on,98,96,120
1,note_on,86,69,0
1,note_on,86,0,120
1,note_on,98,0,0
1,note_on,94,78,120
1,note_on,89,62,0
1,note_on,89,0,120
1,note_on,94,0,0
1,note_on,94,78,120
1,note_on,82,69,0
1,note_on,82,0,120
1,note_on,86,46,120
1,note_on,89,62,0
1,note_on,89,0,120
1,note_on,86,0,0
1,note_on,94,0,120
1,note_on,89,95,0
1,note_on,77,69,0
1,note_on,77,0,120
1,note_on,82,53,120
1,note_on,86,62,0
1,note_on,86,0,120
1,note_on,82,0,0
1,note_on,89,0,120
1,note_on,89,78,0
1,note_on,77,69,0
1,note_on,77,0,120
1,note_on,89,0,0
1,note_on,89,78,120
1,note_on,86,62,0
1,note_on,82,53,0
1,note_on,82,0,120
1,note_on,86,0,0
1,note_on,89,0,0
1,note_on,94,93,120
1,note_on,82,69,0
1,note_on,82,0,120
1,note_on,94,0,0
1,note_on,89,78,120
1,note_on,86,62,0
1,note_on,86,0,120
1,note_on,89,0,0
1,note_on,89,78,120
1,note_on,77,69,0
1,note_on,77,0,120
1,note_on,82,46,120
1,note_on,86,62,0
1,note_on,86,0,120
1,note_on,82,0,0
1,note_on,89,0,120
1,note_on,86,100,0
1,note_on,74,72,0
1,note_on,74,0,120
1,note_on,77,55,120
1,note_on,82,64,0
1,note_on,82,0,120
1,note_on,77,0,0
1,note_on,86,0,120
1,note_on,86,73,0
1,note_on,74,72,0
1,note_on,74,0,120
1,note_on,86,0,0
1,note_on,87,73,120
1,note_on,75,64,0
1,note_on,75,0,120
1,note_on,87,0,0
1,note_on,91,97,120
1,note_on,79,72,0
1,note_on,79,0,120
1,note_on,91,0,60
1,note_on,77,48,60
1,note_on,89,73,0
1,note_on,89,0,120
1,note_on,77,0,0
1,note_on,89,81,120
1,note_on,77,72,0
1,note_on,77,0,120
1,note_on,89,0,0
1,note_on,86,48,120
1,note_on,82,48,0
1,note_on,89,77,0
1,note_on,89,0,120
1,note_on,82,0,0
1,note_on,86,0,0
1,note_on,89,100,120
1,note_on,77,72,0
1,note_on,77,0,120
1,note_on,81,55,120
1,note_on,84,64,0
1,note_on,84,0,120
1,note_on,81,0,0
1,note_on,89,0,120
1,note_on,91,73,0
1,note_on,79,72,0
1,note_on,79,0,120
1,note_on,91,0,0
1,note_on,93,73,120
1,note_on,81,64,0
1,note_on,81,0,120
1,note_on,93,0,0
1,note_on,94,97,120
1,note_on,82,72,0
1,note_on,82,0,480
1,note_on,94,0,0
1,note_on,86,97,0
1,note_on,74,76,0
1,note_on,77,82,0
1,note_on,77,0,960
1,note_on,74,0,0
1,note_on,86,0,0
1,note_on,82,89,0
1,note_on,70,75,0
1,note_on,70,0,120
1,note_on,82,0,0
1,note_on,77,81,120
1,note_on,65,69,0
1,note_on,65,0,120
1,note_on,77,0,0
1,note_on,87,89,120
1,note_on,84,75,0
1,note_on,75,75,0
1,note_on,75,0,120
1,note_on,84,0,0
1,note_on,87,0,0
1,note_on,87,81,120
1,note_on,84,69,0
1,note_on,75,69,0
1,note_on,75,0,120
1,note_on,84,0,0
1,note_on,87,0,0
1,note_on,86,81,360
1,note_on,77,69,0
1,note_on,74,69,0
1,note_on,74,0,120
1,note_on,77,0,0
1,note_on,86,0,0
1,note_on,86,89,120
1,note_on,74,75,0
1,note_on,77,75,0
1,note_on,77,0,120
1,note_on,74,0,0
1,note_on,86,0,0
1,note_on,84,82,120
1,note_on,72,70,0
1,note_on,75,70,0
1,note_on,75,0,120
1,note_on,72,0,0
1,note_on,84,0,0
1,note_on,82,82,120
1,note_on,70,70,0
1,note_on,74,70,0
1,note_on,74,0,120
1,note_on,70,0,0
1,note_on,82,0,0
1,note_on,81,82,120
1,note_on,69,70,0
1,note_on,72,70,0
1,note_on,72,0,120
1,note_on,69,0,0
1,note_on,81,0,0
1,note_on,82,91,120
1,note_on,70,67,0
1,note_on,70,0,480
1,note_on,82,0,0
1,note_on,86,97,0
1,note_on,74,76,0
1,note_on,77,81,0
1,note_on,77,0,960
1,note_on,74,0,0
1,note_on,86,0,0
1,note_on,82,89,0
1,note_on,70,75,0
1,note_on,70,0,120
1,note_on,82,0,0
1,note_on,77,81,120
1,note_on,65,69,0
1,note_on,65,0,120
1,note_on,77,0,0
1,note_on,87,89,120
1,note_on,84,75,0
1,note_on,75,75,0
1,note_on,75,0,120
1,note_on,84,0,0
1,note_on,87,0,0
1,note_on,87,81,120
1,note_on,84,69,0
1,note_on,75,69,0
1,note_on,75,0,120
1,note_on,84,0,0
1,note_on,87,0,0
1,note_on,86,81,360
1,note_on,77,69,0
1,note_on,74,69,0
1,note_on,74,0,120
1,note_on,77,0,0
1,note_on,86,0,0
1,note_on,86,89,120
1,note_on,74,75,0
1,note_on,77,75,0
1,note_on,77,0,120
1,note_on,74,0,0
1,note_on,86,0,0
1,note_on,84,82,120
1,note_on,72,70,0
1,note_on,75,70,0
1,note_on,75,0,120
1,note_on,72,0,0
1,note_on,84,0,0
1,note_on,82,82,120
1,note_on,70,70,0
1,note_on,74,70,0
1,note_on,74,0,120
1,note_on,70,0,0
1,note_on,82,0,0
1,note_on,81,82,120
1,note_on,69,70,0
1,note_on,72,70,0
1,note_on,72,0,120
1,note_on,69,0,0
1,note_on,81,0,0
1,note_on,82,89,120
1,note_on,70,75,0
1,note_on,74,75,0
1,note_on,74,0,120
1,note_on,70,0,0
1,note_on,82,0,0
1,note_on,77,82,120
1,note_on,74,70,0
1,note_on,74,0,120
1,note_on,77,0,0
1,note_on,82,82,120
1,note_on,70,70,0
1,note_on,74,70,0
1,note_on,74,0,120
1,note_on,70,0,0
1,note_on,82,0,0
1,note_on,86,82,120
1,note_on,74,70,0
1,note_on,77,70,0
1,note_on,77,0,120
1,note_on,74,0,0
1,note_on,86,0,0
1,note_on,86,89,120
1,note_on,74,75,0
1,note_on,77,75,0
1,note_on,77,0,120
1,note_on,74,0,0
1,note_on,86,0,0
1,note_on,84,82,120
1,note_on,72,70,0
1,note_on,75,70,0
1,note_on,75,0,120
1,note_on,72,0,0
1,note_on,84,0,0
1,note_on,82,82,120
1,note_on,70,70,0
1,note_on,74,70,0
1,note_on,74,0,120
1,note_on,70,0,0
1,note_on,82,0,0
1,note_on,81,82,120
1,note_on,69,70,0
1,note_on,72,70,0
1,note_on,72,0,120
1,note_on,69,0,0
1,note_on,81,0,0
1,note_on,82,89,120
1,note_on,70,75,0
1,note_on,74,75,0
1,note_on,74,0,120
1,note_on,70,0,0
1,note_on,82,0,0
1,note_on,77,82,120
1,note_on,74,70,0
1,note_on,74,0,120
1,note_on,77,0,0
1,note_on,82,82,120
1,note_on,70,70,0
1,note_on,74,70,0
1,note_on,74,0,120
1,note_on,70,0,0
1,note_on,82,0,0
1,note_on,86,82,120
1,note_on,74,70,0
1,note_on,77,70,0
1,note_on,77,0,120
1,note_on,74,0,0
1,note_on,86,0,0
1,note_on,86,89,120
1,note_on,74,75,0
1,note_on,77,75,0
1,note_on,77,0,120
1,note_on,74,0,0
1,note_on,86,0,0
1,note_on,84,82,120
1,note_on,72,70,0
1,note_on,75,70,0
1,note_on,75,0,120
1,note_on,72,0,0
1,note_on,84,0,0
1,note_on,82,82,120
1,note_on,70,70,0
1,note_on,74,70,0
1,note_on,74,0,120
1,note_on,70,0,0
1,note_on,82,0,0
1,note_on,81,82,120
1,note_on,69,70,0
1,note_on,72,70,0
1,note_on,72,0,120
1,note_on,69,0,0
1,note_on,81,0,0
1,note_on,86,92,120
1,note_on,74,79,0
1,note_on,77,75,0
1,note_on,77,0,720
1,note_on,74,0,0
1,note_on,86,0,0
1,note_on,82,86,0
1,note_on,70,74,0
1,note_on,70,0,240
1,note_on,82,0,0
1,note_on,87,93,0
1,note_on,75,75,0
1,note_on,81,79,0
1,note_on,81,0,720
1,note_on,75,0,0
1,note_on,87,0,0
1,note_on,75,70,0
1,note_on,84,82,0
1,note_on,72,70,0
1,note_on,72,0,240
1,note_on,84,0,0
1,note_on,75,0,0
1,note_on,82,89,0
1,note_on,70,75,0
1,note_on,74,75,0
1,note_on,74,0,180
1,note_on,70,0,0
1,note_on,82,0,0
1,note_on,77,70,60
1,note_on,89,82,0
1,note_on,86,70,0
1,note_on,86,0,60
1,note_on,89,0,0
1,note_on,77,0,0
1,note_on,94,82,180
1,note_on,82,70,0
1,note_on,86,70,0
1,note_on,86,0,60
1,note_on,82,0,0
1,note_on,94,0,0
1,note_on,98,82,180
1,note_on,86,70,0
1,note_on,89,70,0
1,note_on,89,0,60
1,note_on,86,0,0
1,note_on,98,0,0
1,note_on,98,89,180
1,note_on,86,75,0
1,note_on,89,75,0
1,note_on,89,0,60
1,note_on,86,0,0
1,note_on,98,0,0
1,note_on,96,82,180
1,note_on,84,70,0
1,note_on,87,70,0
1,note_on,87,0,60
1,note_on,84,0,0
1,note_on,96,0,0
1,note_on,94,82,180
1,note_on,82,70,0
1,note_on,86,70,0
1,note_on,86,0,60
1,note_on,82,0,0
1,note_on,94,0,0
1,note_on,93,82,180
1,note_on,81,70,0
1,note_on,84,70,0
1,note_on,84,0,60
1,note_on,81,0,0
1,note_on,93,0,0
1,note_on,94,89,180
1,note_on,82,75,0
1,note_on,86,75,0
1,note_on,86,0,120
1,note_on,82,0,0
1,note_on,94,0,0
1,note_on,70,48,840
1,note_on,58,40,0
1,note_on,62,40,0
1,note_on,65,40,0
1,note_on,65,0,480
1,note_on,70,0,0
1,note_on,58,0,0
1,note_on,62,0,0
1,note_on,70,45,0
1,note_on,58,37,0
1,note_on,62,37,0
1,note_on,65,37,0
1,note_on,65,0,120
1,note_on,70,0,0
1,note_on,58,0,0
1,note_on,62,0,0
1,note_on,70,44,120
1,note_on,58,37,0
1,note_on,62,37,0
1,note_on,65,37,0
1,note_on,65,0,120
1,note_on,70,0,0
1,note_on,58,0,0
1,note_on,62,0,0
1,note_on,75,48,120
1,note_on,63,40,0
1,note_on,66,40,0
1,note_on,70,40,0
1,note_on,70,0,480
1,note_on,75,0,0
1,note_on,63,0,0
1,note_on,66,0,0
1,note_on,75,45,0
1,note_on,63,38,0
1,note_on,66,38,0
1,note_on,70,38,0
1,note_on,70,0,480
1,note_on,75,0,0
1,note_on,63,0,0
1,note_on,66,0,0
1,note_on,75,51,0
1,note_on,63,42,0
1,note_on,66,42,0
1,note_on,70,42,0
1,note_on,70,0,480
1,note_on,75,0,0
1,note_on,63,0,0
1,note_on,66,0,0
1,note_on,78,49,0
1,note_on,66,41,0
1,note_on,70,41,0
1,note_on,70,0,120
1,note_on,66,0,0
1,note_on,78,0,0
1,note_on,75,44,120
1,note_on,63,37,0
1,note_on,66,37,0
1,note_on,66,0,120
1,note_on,63,0,0
1,note_on,75,0,0
1,note_on,74,49,120
1,note_on,62,40,0
1,note_on,65,40,0
1,note_on,65,0,480
1,note_on,62,0,0
1,note_on,74,0,0
1,note_on,70,46,0
1,note_on,58,38,0
1,note_on,62,38,0
1,note_on,62,0,480
1,note_on,58,0,0
1,note_on,70,0,0
1,note_on,82,55,0
1,note_on,70,45,0
1,note_on,74,45,0
1,note_on,77,45,0
1,note_on,77,0,480
1,note_on,82,0,0
1,note_on,70,0,0
1,note_on,74,0,0
1,note_on,82,52,0
1,note_on,70,42,0
1,note_on,74,42,0
1,note_on,77,42,0
1,note_on,77,0,120
1,note_on,82,0,0
1,note_on,70,0,0
1,note_on,74,0,0
1,note_on,82,51,120
1,note_on,70,42,0
1,note_on,74,42,0
1,note_on,77,42,0
1,note_on,77,0,120
1,note_on,82,0,0
1,note_on,70,0,0
1,note_on,74,0,0
1,note_on,87,56,120
1,note_on,75,46,0
1,note_on,78,46,0
1,note_on,82,46,0
1,note_on,82,0,480
1,note_on,87,0,0
1,note_on,75,0,0
1,note_on,78,0,0
1,note_on,87,51,0
1,note_on,75,42,0
1,note_on,78,42,0
1,note_on,82,42,0
1,note_on,82,0,480
1,note_on,87,0,0
1,note_on,75,0,0
1,note_on,78,0,0
1,note_on,87,59,0
1,note_on,75,49,0
1,note_on,78,49,0
1,note_on,82,49,0
1,note_on,82,0,480
1,note_on,87,0,0
1,note_on,75,0,0
1,note_on,78,0,0
1,note_on,90,57,0
1,note_on,78,47,0
1,note_on,82,47,0
1,note_on,82,0,120
1,note_on,78,0,0
1,note_on,90,0,0
1,note_on,87,50,120
1,note_on,75,41,0
1,note_on,78,41,0
1,note_on,78,0,120
1,note_on,75,0,0
1,note_on,87,0,0
1,note_on,86,56,120
1,note_on,74,46,0
1,note_on,77,46,0
1,note_on,77,0,480
1,note_on,74,0,0
1,note_on,86,0,0
1,note_on,77,58,0
1,note_on,89,58,0
1,note_on,82,58,0
1,note_on,86,58,0
1,note_on,86,0,480
1,note_on,77,0,0
1,note_on,89,0,0
1,note_on,82,0,0
1,note_on,90,66,0
1,note_on,78,56,0
1,note_on,82,56,0
1,note_on,87,56,0
1,note_on,87,0,480
1,note_on,90,0,0
1,note_on,78,0,0
1,note_on,82,0,0
1,note_on,87,57,0
1,note_on,75,48,0
1,note_on,78,48,0
1,note_on,82,48,0
1,note_on,82,0,480
1,note_on,87,0,0
1,note_on,75,0,0
1,note_on,78,0,0
1,note_on,86,62,0
1,note_on,82,52,0
1,note_on,77,52,0
1,note_on,74,52,0
1,note_on,74,0,480
1,note_on,86,0,0
1,note_on,82,0,0
1,note_on,77,0,0
1,note_on,89,60,0
1,note_on,86,50,0
1,note_on,82,50,0
1,note_on,77,50,0
1,note_on,77,0,480
1,note_on,89,0,0
1,note_on,86,0,0
1,note_on,82,0,0
1,note_on,90,64,0
1,note_on,87,55,0
1,note_on,82,55,0
1,note_on,78,55,0
1,note_on,78,0,480
1,note_on,90,0,0
1,note_on,87,0,0
1,note_on,82,0,0
1,note_on,87,58,0
1,note_on,82,49,0
1,note_on,78,49,0
1,note_on,75,49,0
1,note_on,75,0,480
1,note_on,87,0,0
1,note_on,82,0,0
1,note_on,78,0,0
1,note_on,86,64,0
1,note_on,82,55,0
1,note_on,77,55,0
1,note_on,74,55,0
1,note_on,74,0,480
1,note_on,86,0,0
1,note_on,82,0,0
1,note_on,77,0,0
1,note_on,94,78,0
1,note_on,89,66,0
1,note_on,86,66,0
1,note_on,82,66,0
1,note_on,82,0,480
1,note_on,94,0,0
1,note_on,89,0,0
1,note_on,86,0,0
1,note_on,94,82,0
1,note_on,82,69,0
1,note_on,87,69,0
1,note_on,90,69,0
1,note_on,90,0,420
1,note_on,94,0,0
1,note_on,82,0,0
1,note_on,87,0,0
1,note_on,78,66,0
1,note_on,87,66,30
1,note_on,94,78,30
1,note_on,94,0,420
1,note_on,87,0,0
1,note_on,78,0,0
1,note_on,77,73,0
1,note_on,86,73,30
1,note_on,94,86,30
1,note_on,94,0,480
1,note_on,86,0,0
1,note_on,77,0,0
1,note_on,94,78,0
1,note_on,82,66,0
1,note_on,86,66,0
1,note_on,89,66,0
1,note_on,89,0,480
1,note_on,94,0,0
1,note_on,82,0,0
1,note_on,86,0,0
1,note_on,94,86,0
1,note_on,90,73,0
1,note_on,87,73,0
1,note_on,82,73,0
1,note_on,82,0,420
1,note_on,94,0,0
1,note_on,90,0,0
1,note_on,87,0,0
1,note_on,78,67,0
1,note_on,87,67,30
1,note_on,94,79,30
1,note_on,94,0,420
1,note_on,87,0,0
1,note_on,78,0,0
1,note_on,77,73,0
1,note_on,86,73,30
1,note_on,94,86,30
1,note_on,94,0,240
1,note_on,86,0,0
1,note_on,77,0,0
1,note_on,53,71,0
1,note_on,55,73,60
1,note_on,53,0,44
1,note_on,57,75,16
1,note_on,55,0,44
1,note_on,58,79,16
1,note_on,57,0,44
1,note_on,58,0,16
1,note_on,71,81,0
1,note_on,59,81,0
1,note_on,57,75,60
1,note_on,59,0,44
1,note_on,56,74,16
1,note_on,57,0,44
1,note_on,54,72,16
1,note_on,56,0,44
1,note_on,71,0,16
1,note_on,52,71,0
1,note_on,54,0,44
1,note_on,51,69,16
1,note_on,52,0,44
1,note_on,49,68,16
1,note_on,51,0,44
1,note_on,47,67,16
1,note_on,49,0,44
1,note_on,47,0,16
1,note_on,48,62,0
1,note_on,49,64,60
1,note_on,48,0,27
1,note_on,51,67,33
1,note_on,49,0,27
1,note_on,52,69,33
1,note_on,51,0,27
1,note_on,54,71,33
1,note_on,52,0,27
1,note_on,56,73,33
1,note_on,54,0,27
1,note_on,58,75,33
1,note_on,56,0,27
1,note_on,60,78,33
1,note_on,58,0,27
1,note_on,60,0,33
1,note_on,73,84,0
1,note_on,61,84,0
1,note_on,59,78,60
1,note_on,61,0,27
1,note_on,57,75,33
1,note_on,59,0,27
1,note_on,55,73,33
1,note_on,57,0,27
1,note_on,73,0,33
1,note_on,54,71,0
1,note_on,55,0,27
1,note_on,52,69,33
1,note_on,54,0,27
1,note_on,50,66,33
1,note_on,52,0,27
1,note_on,49,63,33
1,note_on,50,0,27
1,note_on,49,0,33
1,note_on,50,62,0
1,note_on,52,66,60
1,note_on,50,0,12
1,note_on,54,68,48
1,note_on,52,0,12
1,note_on,55,71,48
1,note_on,54,0,12
1,note_on,57,74,48
1,note_on,55,0,12
1,note_on,59,77,48
1,note_on,57,0,12
1,note_on,61,79,48
1,note_on,59,0,12
1,note_on,62,82,48
1,note_on,61,0,12
1,note_on,62,0,48
1,note_on,75,84,0
1,note_on,63,84,0
1,note_on,62,78,60
1,note_on,63,0,12
1,note_on,60,75,48
1,note_on,62,0,12
1,note_on,58,73,48
1,note_on,60,0,12
1,note_on,75,0,48
1,note_on,57,71,0
1,note_on,58,0,12
1,note_on,55,69,51
1,note_on,57,0,9
1,note_on,53,66,48
1,note_on,55,0,15
1,note_on,51,63,45
1,note_on,53,0,12
1,note_on,51,0,48
1,note_on,50,60,0
1,note_on,51,60,60
1,note_on,50,0,12
1,note_on,53,61,48
1,note_on,51,0,12
1,note_on,55,62,48
1,note_on,53,0,12
1,note_on,57,63,48
1,note_on,55,0,12
1,note_on,58,64,36
1,note_on,57,0,10
1,note_on,60,64,38
1,note_on,58,0,10
1,note_on,62,66,38
1,note_on,60,0,10
1,note_on,63,67,38
1,note_on,62,0,10
1,note_on,65,68,38
1,note_on,63,0,10
1,note_on,67,68,38
1,note_on,65,0,10
1,note_on,69,69,38
1,note_on,67,0,10
1,note_on,70,70,38
1,note_on,69,0,10
1,note_on,72,71,38
1,note_on,70,0,10
1,note_on,74,71,38
1,note_on,72,0,10
1,note_on,75,72,38
1,note_on,74,0,10
1,note_on,77,73,38
1,note_on,75,0,10
1,note_on,79,73,38
1,note_on,77,0,10
1,note_on,81,74,38
1,note_on,79,0,10
1,note_on,81,0,38
1,note_on,82,84,0
1,note_on,70,62,0
1,note_on,70,0,60
1,note_on,72,64,0
1,note_on,72,0,60
1,note_on,74,67,0
1,note_on,74,0,60
1,note_on,75,69,0
1,note_on,75,0,60
1,note_on,82,0,0
1,note_on,77,71,0
1,note_on,77,0,60
1,note_on,79,73,0
1,note_on,79,0,60
1,note_on,81,75,0
1,note_on,81,0,60
1,note_on,82,78,0
1,note_on,82,0,60
1,note_on,95,84,0
1,note_on,83,84,0
1,note_on,83,0,60
1,note_on,81,78,0
1,note_on,81,0,60
1,note_on,80,75,0
1,note_on,80,0,60
1,note_on,78,73,0
1,note_on,78,0,60
1,note_on,95,0,0
1,note_on,76,71,0
1,note_on,76,0,60
1,note_on,75,69,0
1,note_on,75,0,60
1,note_on,73,66,0
1,note_on,73,0,60
1,note_on,71,63,0
1,note_on,71,0,60
1,note_on,72,62,0
1,note_on,72,0,60
1,note_on,73,64,0
1,note_on,73,0,60
1,note_on,75,67,0
1,note_on,75,0,60
1,note_on,76,69,0
1,note_on,76,0,60
1,note_on,78,71,0
1,note_on,78,0,60
1,note_on,80,73,0
1,note_on,80,0,60
1,note_on,82,75,0
1,note_on,82,0,60
1,note_on,84,78,0
1,note_on,84,0,60
1,note_on,97,84,0
1,note_on,85,84,0
1,note_on,85,0,60
1,note_on,83,78,0
1,note_on,83,0,60
1,note_on,81,75,0
1,note_on,81,0,60
1,note_on,79,73,0
1,note_on,79,0,60
1,note_on,97,0,0
1,note_on,78,71,0
1,note_on,78,0,60
1,note_on,76,69,0
1,note_on,76,0,60
1,note_on,74,66,0
1,note_on,74,0,60
1,note_on,73,63,0
1,note_on,73,0,60
1,note_on,74,62,0
1,note_on,74,0,60
1,note_on,76,64,0
1,note_on,76,0,60
1,note_on,78,67,0
1,note_on,78,0,60
1,note_on,79,69,0
1,note_on,79,0,60
1,note_on,81,71,0
1,note_on,81,0,60
1,note_on,83,73,0
1,note_on,83,0,60
1,note_on,85,75,0
1,note_on,85,0,60
1,note_on,86,78,0
1,note_on,86,0,60
1,note_on,99,84,0
1,note_on,87,84,0
1,note_on,87,0,60
1,note_on,86,78,0
1,note_on,86,0,60
1,note_on,84,75,0
1,note_on,84,0,60
1,note_on,82,73,0
1,note_on,82,0,60
1,note_on,99,0,0
1,note_on,81,71,0
1,note_on,81,0,60
1,note_on,79,69,0
1,note_on,79,0,60
1,note_on,77,66,0
1,note_on,77,0,60
1,note_on,75,63,0
1,note_on,75,0,60
1,note_on,74,60,0
1,note_on,74,0,60
1,note_on,75,60,0
1,note_on,75,0,60
1,note_on,77,61,0
1,note_on,77,0,60
1,note_on,79,62,0
1,note_on,79,0,60
1,note_on,81,63,0
1,note_on,81,0,48
1,note_on,82,64,0
1,note_on,82,0,48
1,note_on,84,64,0
1,note_on,84,0,48
1,note_on,86,66,0
1,note_on,86,0,48
1,note_on,87,67,0
1,note_on,87,0,48
1,note_on,89,70,0
1,note_on,89,0,60
1,note_on,91,72,0
1,note_on,91,0,60
1,note_on,93,73,0
1,note_on,93,0,60
1,note_on,94,75,0
1,note_on,94,0,60
1,note_on,96,77,0
1,note_on,96,0,60
1,note_on,98,79,0
1,note_on,98,0,60
1,note_on,99,80,0
1,note_on,99,0,60
1,note_on,100,82,0
1,note_on,100,0,60
1,note_on,101,85,0
1,note_on,89,72,0
1,note_on,98,72,0
1,note_on,98,0,80
1,note_on,89,0,0
1,note_on,101,0,0
1,note_on,94,75,0
1,note_on,94,0,80
1,note_on,89,75,0
1,note_on,89,0,70
1,note_on,89,80,10
1,note_on,86,68,0
1,note_on,86,0,80
1,note_on,89,0,0
1,note_on,82,73,0
1,note_on,82,0,80
1,note_on,77,73,0
1,note_on,77,0,80
1,note_on,89,72,0
1,note_on,86,61,0
1,note_on,86,0,80
1,note_on,89,0,0
1,note_on,82,63,0
1,note_on,82,0,80
1,note_on,77,63,0
1,note_on,77,0,70
1,note_on,77,68,10
1,note_on,74,57,0
1,note_on,74,0,80
1,note_on,77,0,0
1,note_on,70,61,0
1,note_on,70,0,80
1,note_on,65,61,0
1,note_on,65,0,80
1,note_on,75,82,0
1,note_on,77,82,0
1,note_on,65,69,0
1,note_on,69,69,0
1,note_on,69,0,80
1,note_on,75,0,0
1,note_on,77,0,0
1,note_on,65,0,0
1,note_on,63,64,80
1,note_on,65,64,0
1,note_on,53,55,0
1,note_on,57,55,0
1,note_on,57,0,80
1,note_on,63,0,0
1,note_on,65,0,0
1,note_on,53,0,0
1,note_on,63,64,80
1,note_on,65,64,0
1,note_on,53,55,0
1,note_on,57,55,0
1,note_on,57,0,80
1,note_on,63,0,0
1,note_on,65,0,0
1,note_on,53,0,0
1,note_on,63,67,80
1,note_on,65,67,0
1,note_on,53,56,0
1,note_on,58,56,0
1,note_on,58,0,80
1,note_on,63,0,0
1,note_on,65,0,0
1,note_on,53,0,0
1,note_on,63,73,80
1,note_on,65,73,0
1,note_on,53,61,0
1,note_on,59,61,0
1,note_on,59,0,80
1,note_on,63,0,0
1,note_on,65,0,0
1,note_on,53,0,0
1,note_on,63,79,80
1,note_on,65,79,0
1,note_on,53,67,0
1,note_on,60,67,0
1,note_on,60,0,80
1,note_on,63,0,0
1,note_on,65,0,0
1,note_on,53,0,0
1,note_on,101,85,80
1,note_on,89,72,0
1,note_on,98,72,0
1,note_on,98,0,80
1,note_on,89,0,0
1,note_on,101,0,0
1,note_on,94,75,0
1,note_on,94,0,80
1,note_on,89,75,0
1,note_on,89,0,70
1,note_on,89,80,10
1,note_on,86,68,0
1,note_on,86,0,80
1,note_on,89,0,0
1,note_on,82,73,0
1,note_on,82,0,80
1,note_on,77,73,0
1,note_on,77,0,80
1,note_on,89,72,0
1,note_on,86,61,0
1,note_on,86,0,80
1,note_on,89,0,0
1,note_on,82,63,0
1,note_on,82,0,80
1,note_on,77,63,0
1,note_on,77,0,70
1,note_on,77,68,10
1,note_on,74,57,0
1,note_on,74,0,80
1,note_on,77,0,0
1,note_on,70,61,0
1,note_on,70,0,80
1,note_on,65,61,0
1,note_on,65,0,80
1,note_on,75,82,0
1,note_on,77,82,0
1,note_on,65,69,0
1,note_on,69,69,0
1,note_on,69,0,80
1,note_on,75,0,0
1,note_on,77,0,0
1,note_on,65,0,0
1,note_on,63,64,80
1,note_on,65,64,0
1,note_on,53,55,0
1,note_on,57,55,0
1,note_on,57,0,80
1,note_on,63,0,0
1,note_on,65,0,0
1,note_on,53,0,0
1,note_on,63,64,80
1,note_on,65,64,0
1,note_on,53,55,0
1,note_on,57,55,0
1,note_on,57,0,80
1,note_on,63,0,0
1,note_on,65,0,0
1,note_on,53,0,0
1,note_on,63,67,80
1,note_on,65,67,0
1,note_on,53,56,0
1,note_on,58,56,0
1,note_on,58,0,80
1,note_on,63,0,0
1,note_on,65,0,0
1,note_on,53,0,0
1,note_on,63,73,80
1,note_on,65,73,0
1,note_on,53,61,0
1,note_on,59,61,0
1,note_on,59,0,80
1,note_on,63,0,0
1,note_on,65,0,0
1,note_on,53,0,0
1,note_on,63,79,80
1,note_on,65,79,0
1,note_on,53,67,0
1,note_on,60,67,0
1,note_on,60,0,80
1,note_on,63,0,0
1,note_on,65,0,0
1,note_on,53,0,0
1,note_on,63,82,80
1,note_on,65,82,0
1,note_on,57,69,0
1,note_on,57,0,80
1,note_on,65,0,0
1,note_on,63,0,0
1,note_on,75,70,80
1,note_on,77,70,0
1,note_on,65,59,0
1,note_on,69,59,0
1,note_on,69,0,80
1,note_on,75,0,0
1,note_on,77,0,0
1,note_on,65,0,0
1,note_on,75,70,80
1,note_on,77,70,0
1,note_on,65,59,0
1,note_on,69,59,0
1,note_on,69,0,80
1,note_on,75,0,0
1,note_on,77,0,0
1,note_on,65,0,0
1,note_on,75,73,80
1,note_on,77,73,0
1,note_on,65,61,0
1,note_on,70,61,0
1,note_on,70,0,80
1,note_on,75,0,0
1,note_on,77,0,0
1,note_on,65,0,0
1,note_on,75,80,80
1,note_on,77,80,0
1,note_on,65,68,0
1,note_on,71,68,0
1,note_on,71,0,80
1,note_on,75,0,0
1,note_on,77,0,0
1,note_on,65,0,0
1,note_on,75,86,80
1,note_on,77,86,0
1,note_on,65,73,0
1,note_on,72,73,0
1,note_on,72,0,80
1,note_on,75,0,0
1,note_on,77,0,0
1,note_on,65,0,0
1,note_on,75,82,80
1,note_on,77,82,0
1,note_on,65,69,0
1,note_on,69,69,0
1,note_on,69,0,80
1,note_on,75,0,0
1,note_on,77,0,0
1,note_on,65,0,0
1,note_on,87,77,80
1,note_on,89,77,0
1,note_on,77,64,0
1,note_on,81,64,0
1,note_on,81,0,80
1,note_on,87,0,0
1,note_on,89,0,0
1,note_on,77,0,0
1,note_on,87,77,80
1,note_on,89,77,0
1,note_on,77,64,0
1,note_on,81,64,0
1,note_on,81,0,80
1,note_on,87,0,0
1,note_on,89,0,0
1,note_on,77,0,0
1,note_on,87,80,80
1,note_on,89,80,0
1,note_on,77,67,0
1,note_on,82,67,0
1,note_on,82,0,80
1,note_on,87,0,0
1,note_on,89,0,0
1,note_on,77,0,0
1,note_on,87,88,80
1,note_on,89,88,0
1,note_on,77,74,0
1,note_on,83,74,0
1,note_on,83,0,80
1,note_on,87,0,0
1,note_on,89,0,0
1,note_on,77,0,0
1,note_on,87,94,80
1,note_on,89,94,0
1,note_on,77,80,0
1,note_on,84,80,0
1,note_on,84,0,80
1,note_on,87,0,0
1,note_on,89,0,0
1,note_on,77,0,0
1,note_on,87,90,80
1,note_on,89,90,0
1,note_on,77,75,0
1,note_on,81,75,0
1,note_on,81,0,80
1,note_on,87,0,0
1,note_on,89,0,0
1,note_on,77,0,0
1,note_on,99,84,80
1,note_on,101,84,0
1,note_on,89,70,0
1,note_on,93,70,0
1,note_on,93,0,80
1,note_on,99,0,0
1,note_on,101,0,0
1,note_on,89,0,0
1,note_on,99,84,80
1,note_on,101,84,0
1,note_on,89,70,0
1,note_on,93,70,0
1,note_on,93,0,80
1,note_on,99,0,0
1,note_on,101,0,0
1,note_on,89,0,0
1,note_on,99,88,80
1,note_on,101,88,0
1,note_on,89,73,0
1,note_on,94,73,0
1,note_on,94,0,80
1,note_on,99,0,0
1,note_on,101,0,0
1,note_on,89,0,0
1,note_on,99,96,80
1,note_on,101,96,0
1,note_on,89,81,0
1,note_on,95,81,0
1,note_on,95,0,80
1,note_on,99,0,0
1,note_on,101,0,0
1,note_on,89,0,0
1,note_on,99,103,80
1,note_on,101,103,0
1,note_on,89,88,0
1,note_on,96,88,0
1,note_on,96,0,80
1,note_on,99,0,0
1,note_on,101,0,0
1,note_on,89,0,0
1,note_on,99,90,80
1,note_on,101,90,0
1,note_on,89,75,0
1,note_on,93,75,0
1,note_on,93,0,80
1,note_on,99,0,0
1,note_on,101,0,0
1,note_on,89,0,0
1,note_on,77,70,80
1,note_on,89,84,0
1,note_on,89,0,80
1,note_on,77,0,0
1,note_on,78,70,80
1,note_on,90,84,0
1,note_on,90,0,80
1,note_on,78,0,0
1,note_on,91,88,80
1,note_on,79,73,0
1,note_on,79,0,80
1,note_on,91,0,0
1,note_on,80,81,80
1,note_on,92,96,0
1,note_on,92,0,80
1,note_on,80,0,0
1,note_on,81,88,80
1,note_on,93,103,0
1,note_on,93,0,80
1,note_on,81,0,0
1,note_on,86,96,80
1,note_on,82,96,0
1,note_on,94,113,0
1,note_on,94,0,240
1,note_on,82,0,0
1,note_on,86,0,0
1,note_on,82,92,0
1,note_on,70,78,0
1,note_on,70,0,60
1,note_on,82,0,0
1,note_on,82,91,60
1,note_on,70,77,0
1,note_on,70,0,60
1,note_on,82,0,0
1,note_on,86,97,60
1,note_on,74,82,0
1,note_on,74,0,60
1,note_on,86,0,0
1,note_on,82,92,60
1,note_on,70,78,0
1,note_on,70,0,60
1,note_on,82,0,0
1,note_on,82,92,60
1,note_on,70,78,0
1,note_on,70,0,120
1,note_on,82,0,0
1,note_on,77,97,120
1,note_on,65,82,0
1,note_on,65,0,60
1,note_on,77,0,0
1,note_on,74,92,60
1,note_on,62,78,0
1,note_on,62,0,60
1,note_on,74,0,0
1,note_on,74,92,60
1,note_on,62,78,0
1,note_on,62,0,120
1,note_on,74,0,0
1,note_on,70,97,120
1,note_on,58,82,0
1,note_on,58,0,60
1,note_on,70,0,0
1,note_on,65,92,60
1,note_on,53,78,0
1,note_on,53,0,60
1,note_on,65,0,0
1,note_on,65,92,60
1,note_on,53,78,0
1,note_on,53,0,120
1,note_on,65,0,0
1,note_on,94,96,120
1,note_on,86,96,0
1,note_on,98,113,0
1,note_on,98,0,240
1,note_on,86,0,0
1,note_on,94,0,0
1,note_on,86,92,0
1,note_on,74,78,0
1,note_on,74,0,60
1,note_on,86,0,0
1,note_on,86,91,60
1,note_on,74,77,0
1,note_on,74,0,60
1,note_on,86,0,0
1,note_on,89,97,60
1,note_on,77,82,0
1,note_on,77,0,60
1,note_on,89,0,0
1,note_on,86,92,60
1,note_on,74,78,0
1,note_on,74,0,60
1,note_on,86,0,0
1,note_on,86,92,60
1,note_on,74,78,0
1,note_on,74,0,120
1,note_on,86,0,0
1,note_on,82,97,120
1,note_on,70,82,0
1,note_on,70,0,60
1,note_on,82,0,0
1,note_on,77,92,60
1,note_on,65,78,0
1,note_on,65,0,60
1,note_on,77,0,0
1,note_on,77,92,60
1,note_on,65,78,0
1,note_on,65,0,120
1,note_on,77,0,0
1,note_on,74,97,120
1,note_on,62,82,0
1,note_on,62,0,60
1,note_on,74,0,0
1,note_on,70,92,60
1,note_on,58,78,0
1,note_on,58,0,60
1,note_on,70,0,0
1,note_on,70,92,60
1,note_on,58,78,0
1,note_on,58,0,120
1,note_on,70,0,0
1,note_on,98,96,120
1,note_on,94,96,0
1,note_on,89,96,0
1,note_on,101,113,0
1,note_on,101,0,240
1,note_on,98,0,0
1,note_on,94,0,0
1,note_on,89,0,0
1,note_on,89,92,0
1,note_on,77,78,0
1,note_on,77,0,60
1,note_on,89,0,0
1,note_on,89,91,60
1,note_on,77,77,0
1,note_on,77,0,60
1,note_on,89,0,0
1,note_on,94,97,60
1,note_on,82,82,0
1,note_on,82,0,60
1,note_on,94,0,0
1,note_on,89,92,60
1,note_on,77,78,0
1,note_on,77,0,60
1,note_on,89,0,0
1,note_on,89,92,60
1,note_on,77,78,0
1,note_on,77,0,120
1,note_on,89,0,0
1,note_on,86,97,120
1,note_on,74,82,0
1,note_on,74,0,60
1,note_on,86,0,0
1,note_on,82,92,60
1,note_on,70,78,0
1,note_on,70,0,60
1,note_on,82,0,0
1,note_on,82,92,60
1,note_on,70,78,0
1,note_on,70,0,120
1,note_on,82,0,0
1,note_on,77,102,120
1,note_on,65,85,0
1,note_on,65,0,60
1,note_on,77,0,0
1,note_on,74,96,60
1,note_on,62,81,0
1,note_on,62,0,60
1,note_on,74,0,0
1,note_on,74,96,60
1,note_on,62,81,0
1,note_on,62,0,120
1,note_on,74,0,0
1,note_on,70,97,120
1,note_on,58,82,0
1,note_on,58,0,160
1,note_on,70,0,0
1,note_on,65,89,0
1,note_on,53,74,0
1,note_on,53,0,120
1,note_on,65,0,0
1,note_on,82,97,40
1,note_on,70,82,0
1,note_on,70,0,160
1,note_on,82,0,0
1,note_on,77,84,0
1,note_on,65,71,0
1,note_on,65,0,120
1,note_on,77,0,0
1,note_on,94,97,40
1,note_on,82,82,0
1,note_on,82,0,160
1,note_on,94,0,0
1,note_on,89,85,0
1,note_on,77,72,0
1,note_on,77,0,120
1,note_on,89,0,0
1,note_on,82,97,40
1,note_on,70,82,0
1,note_on,70,0,160
1,note_on,82,0,0
1,note_on,77,88,0
1,note_on,65,74,0
1,note_on,65,0,120
1,note_on,77,0,0
1,note_on,70,97,40
1,note_on,58,82,0
1,note_on,58,0,160
1,note_on,70,0,0
1,note_on,65,89,0
1,note_on,53,74,0
1,note_on,53,0,120
1,note_on,65,0,0
1,note_on,82,97,40
1,note_on,70,82,0
1,note_on,70,0,160
1,note_on,82,0,0
1,note_on,77,89,0
1,note_on,65,74,0
1,note_on,65,0,120
1,note_on,77,0,0
1,note_on,94,97,40
1,note_on,82,82,0
1,note_on,82,0,160
1,note_on,94,0,0
1,note_on,89,90,0
1,note_on,77,75,0
1,note_on,77,0,80
1,note_on,89,0,0
1,note_on,82,97,80
1,note_on,70,82,0
1,note_on,70,0,160
1,note_on,82,0,0
1,note_on,77,89,0
1,note_on,65,74,0
1,note_on,65,0,80
1,note_on,77,0,0
1,note_on,70,97,80
1,note_on,58,82,0
1,note_on,58,0,160
1,note_on,70,0,0
1,note_on,65,89,0
1,note_on,53,74,0
1,note_on,53,0,80
1,note_on,65,0,0
1,note_on,70,97,1520
1,note_on,65,82,0
1,note_on,68,82,0
1,note_on,68,0,480
1,note_on,65,0,0
1,note_on,70,0,0
1,note_on,70,103,0
1,note_on,66,86,0
1,note_on,70,0,720
1,note_on,70,100,0
1,note_on,70,0,240
1,note_on,66,0,0
1,note_on,70,105,0
1,note_on,70,0,480
1,note_on,70,102,0
1,note_on,65,91,0
1,note_on,65,0,480
1,note_on,70,0,0
1,note_on,70,106,0
1,note_on,63,96,0
1,note_on,70,0,720
1,note_on,70,92,0
1,note_on,70,0,240
1,note_on,70,99,0
1,note_on,70,0,480
1,note_on,63,0,0
1,note_on,70,96,0
1,note_on,62,81,0
1,note_on,62,0,480
1,note_on,70,0,0
1,note_on,70,103,0
1,note_on,63,86,0
1,note_on,63,0,480
1,note_on,70,0,0
1,note_on,63,86,0
1,note_on,70,92,0
1,note_on,70,0,480
1,note_on,63,0,0
1,note_on,62,86,0
1,note_on,65,86,0
1,note_on,70,99,0
1,note_on,70,0,480
1,note_on,65,0,0
1,note_on,62,0,0
1,note_on,63,81,0
1,note_on,70,96,0
1,note_on,66,81,0
1,note_on,66,0,480
1,note_on,70,0,0
1,note_on,63,0,0
1,note_on,70,57,0
1,note_on,65,47,0
1,note_on,58,47,0
1,note_on,62,47,0
1,note_on,62,0,72
1,note_on,70,0,0
1,note_on,65,0,0
1,note_on,58,0,0
1,note_on,70,49,8
1,note_on,58,40,0
1,note_on,62,40,0
1,note_on,65,40,0
1,note_on,65,0,72
1,note_on,70,0,0
1,note_on,58,0,0
1,note_on,62,0,0
1,note_on,70,49,8
1,note_on,58,40,0
1,note_on,62,40,0
1,note_on,65,40,0
1,note_on,65,0,72
1,note_on,70,0,0
1,note_on,58,0,0
1,note_on,62,0,0
1,note_on,70,51,8
1,note_on,65,41,0
1,note_on,58,41,0
1,note_on,62,41,0
1,note_on,62,0,36
1,note_on,70,0,0
1,note_on,65,0,0
1,note_on,58,0,0
1,note_on,70,52,44
1,note_on,58,43,0
1,note_on,62,43,0
1,note_on,65,43,0
1,note_on,65,0,36
1,note_on,70,0,0
1,note_on,58,0,0
1,note_on,62,0,0
1,note_on,70,53,44
1,note_on,58,43,0
1,note_on,62,43,0
1,note_on,65,43,0
1,note_on,65,0,36
1,note_on,70,0,0
1,note_on,58,0,0
1,note_on,62,0,0
1,note_on,70,53,44
1,note_on,65,45,0
1,note_on,58,45,0
1,note_on,62,45,0
1,note_on,62,0,36
1,note_on,70,0,0
1,note_on,65,0,0
1,note_on,58,0,0
1,note_on,70,55,44
1,note_on,58,46,0
1,note_on,62,46,0
1,note_on,65,46,0
1,note_on,65,0,36
1,note_on,70,0,0
1,note_on,58,0,0
1,note_on,62,0,0
1,note_on,70,55,44
1,note_on,58,48,0
1,note_on,62,48,0
1,note_on,65,48,0
1,note_on,65,0,36
1,note_on,70,0,0
1,note_on,58,0,0
1,note_on,62,0,0
1,note_on,70,58,44
1,note_on,65,48,0
1,note_on,58,48,0
1,note_on,62,48,0
1,note_on,62,0,36
1,note_on,70,0,0
1,note_on,65,0,0
1,note_on,58,0,0
1,note_on,70,59,44
1,note_on,58,50,0
1,note_on,62,50,0
1,note_on,65,50,0
1,note_on,65,0,36
1,note_on,70,0,0
1,note_on,58,0,0
1,note_on,62,0,0
1,note_on,70,60,44
1,note_on,58,50,0
1,note_on,62,50,0
1,note_on,65,50,0
1,note_on,65,0,36
1,note_on,70,0,0
1,note_on,58,0,0
1,note_on,62,0,0
1,note_on,70,81,44
1,note_on,58,68,0
1,note_on,62,68,0
1,note_on,65,68,0
1,note_on,65,0,80
1,note_on,70,0,0
1,note_on,58,0,0
1,note_on,62,0,0
1,note_on,74,78,0
1,note_on,62,66,0
1,note_on,62,0,80
1,note_on,74,0,0
1,note_on,77,81,0
1,note_on,65,68,0
1,note_on,65,0,80
1,note_on,77,0,0
1,note_on,82,85,0
1,note_on,70,72,0
1,note_on,70,0,80
1,note_on,82,0,0
1,note_on,86,89,0
1,note_on,74,74,0
1,note_on,74,0,80
1,note_on,86,0,0
1,note_on,89,92,0
1,note_on,77,78,0
1,note_on,77,0,80
1,note_on,89,0,0
1,note_on,94,97,0
1,note_on,82,81,0
1,note_on,82,0,80
1,note_on,94,0,0
1,note_on,89,94,0
1,note_on,77,80,0
1,note_on,77,0,80
1,note_on,89,0,0
1,note_on,86,91,0
1,note_on,74,77,0
1,note_on,74,0,80
1,note_on,86,0,0
1,note_on,82,89,0
1,note_on,70,74,0
1,note_on,70,0,80
1,note_on,82,0,0
1,note_on,77,86,0
1,note_on,65,73,0
1,note_on,65,0,80
1,note_on,77,0,0
1,note_on,74,82,0
1,note_on,62,69,0
1,note_on,62,0,80
1,note_on,74,0,0
1,note_on,70,88,0
1,note_on,58,69,0
1,note_on,62,69,0
1,note_on,65,73,0
1,note_on,65,0,120
1,note_on,70,0,0
1,note_on,58,0,0
1,note_on,62,0,0
1,note_on,72,86,120
1,note_on,60,72,0
1,note_on,65,72,0
1,note_on,69,72,0
1,note_on,69,0,120
1,note_on,72,0,0
1,note_on,60,0,0
1,note_on,65,0,0
1,note_on,74,89,120
1,note_on,62,75,0
1,note_on,65,75,0
1,note_on,70,75,0
1,note_on,70,0,120
1,note_on,74,0,0
1,note_on,62,0,0
1,note_on,65,0,0
1,note_on,77,92,120
1,note_on,65,78,0
1,note_on,69,78,0
1,note_on,72,78,0
1,note_on,72,0,120
1,note_on,77,0,0
1,note_on,65,0,0
1,note_on,69,0,0
1,note_on,82,94,120
1,note_on,70,80,0
1,note_on,74,80,0
1,note_on,77,80,0
1,note_on,77,0,120
1,note_on,82,0,0
1,note_on,70,0,0
1,note_on,74,0,0
1,note_on,84,99,120
1,note_on,81,84,0
1,note_on,77,84,0
1,note_on,72,84,0
1,note_on,72,0,120
1,note_on,84,0,0
1,note_on,81,0,0
1,note_on,77,0,0
1,note_on,86,102,120
1,note_on,82,85,0
1,note_on,77,85,0
1,note_on,74,85,0
1,note_on,74,0,120
1,note_on,86,0,0
1,note_on,82,0,0
1,note_on,77,0,0
1,note_on,89,104,120
1,note_on,84,88,0
1,note_on,81,88,0
1,note_on,77,88,0
1,note_on,77,0,120
1,note_on,89,0,0
1,note_on,84,0,0
1,note_on,81,0,0
1,note_on,86,108,120
1,note_on,82,91,0
1,note_on,77,91,0
1,note_on,74,91,0
1,note_on,74,0,240
1,note_on,86,0,0
1,note_on,82,0,0
1,note_on,77,0,0
1,note_on,94,115,240
1,note_on,89,97,0
1,note_on,86,97,0
1,note_on,82,97,0
1,note_on,82,0,240
1,note_on,94,0,0
1,note_on,89,0,0
1,note_on,86,0,0
1,note_on,58,114,240
1,note_on,50,96,0
1,note_on,53,96,0
1,note_on,53,0,240
1,note_on,50,0,0
1,note_on,58,0,0
2,note_on,38,46,1350
2,note_on,45,51,30
2,note_on,50,55,30
2,note_on,53,63,30
2,note_on,53,0,390
2,note_on,38,0,0
2,note_on,45,0,0
2,note_on,50,0,0
2,note_on,40,44,0
2,note_on,45,48,30
2,note_on,49,53,30
2,note_on,55,48,30
2,note_on,55,0,960
2,note_on,40,0,0
2,note_on,45,0,0
2,note_on,49,0,0
2,note_on,50,59,0
2,note_on,53,59,0
2,note_on,41,50,0
2,note_on,45,50,0
2,note_on,45,0,480
2,note_on,50,0,0
2,note_on,53,0,0
2,note_on,41,0,0
2,note_on,52,60,0
2,note_on,40,51,0
2,note_on,45,51,0
2,note_on,48,51,0
2,note_on,48,0,480
2,note_on,52,0,0
2,note_on,40,0,0
2,note_on,45,0,0
2,note_on,51,59,0
2,note_on,39,40,0
2,note_on,45,45,0
2,note_on,48,54,0
2,note_on,48,0,480
2,note_on,51,0,0
2,note_on,39,0,0
2,note_on,45,0,0
2,note_on,51,56,0
2,note_on,39,47,0
2,note_on,48,47,0
2,note_on,48,0,480
2,note_on,39,0,0
2,note_on,51,0,0
2,note_on,51,53,0
2,note_on,39,39,0
2,note_on,48,44,0
2,note_on,48,0,480
2,note_on,39,0,0
2,note_on,51,0,0
2,note_on,51,62,0
2,note_on,39,45,0
2,note_on,48,44,0
2,note_on,48,0,480
2,note_on,39,0,0
2,note_on,51,0,0
2,note_on,48,69,0
2,note_on,45,58,0
2,note_on,45,0,960
2,note_on,48,0,0
2,note_on,47,61,0
2,note_on,44,51,0
2,note_on,44,0,960
2,note_on,47,0,0
2,note_on,33,64,0
2,note_on,40,56,30
2,note_on,45,59,30
2,note_on,49,64,30
2,note_on,49,0,870
2,note_on,33,0,0
2,note_on,40,0,0
2,note_on,45,0,0
2,note_on,50,72,840
2,note_on,43,60,0
2,note_on,35,50,0
2,note_on,35,0,120
2,note_on,43,0,0
2,note_on,50,0,0
2,note_on,52,79,0
2,note_on,43,66,0
2,note_on,36,55,0
2,note_on,36,0,240
2,note_on,43,0,0
2,note_on,52,0,0
2,note_on,51,71,240
2,note_on,43,59,0
2,note_on,36,50,0
2,note_on,36,0,240
2,note_on,43,0,0
2,note_on,51,0,0
2,note_on,47,73,480
2,note_on,50,73,0
2,note_on,38,53,0
2,note_on,38,0,240
2,note_on,50,0,0
2,note_on,47,0,0
2,note_on,49,79,0
2,note_on,46,66,0
2,note_on,40,55,0
2,note_on,40,0,240
2,note_on,46,0,0
2,note_on,49,0,0
2,note_on,49,74,240
2,note_on,46,63,0
2,note_on,40,54,0
2,note_on,40,0,240
2,note_on,46,0,0
2,note_on,49,0,0
2,note_on,48,33,720
2,note_on,39,27,0
2,note_on,39,0,480
2,note_on,48,0,0
2,note_on,50,41,0
2,note_on,47,32,0
2,note_on,38,30,0
2,note_on,38,0,480
2,note_on,47,0,0
2,note_on,50,0,0
2,note_on,52,54,0
2,note_on,46,44,0
2,note_on,37,39,0
2,note_on,37,0,480
2,note_on,46,0,0
2,note_on,52,0,0
2,note_on,43,56,0
2,note_on,45,56,0
2,note_on,45,0,480
2,note_on,43,0,0
2,note_on,45,61,0
2,note_on,42,51,0
2,note_on,42,0,960
2,note_on,45,0,0
2,note_on,31,77,0
2,note_on,38,56,30
2,note_on,43,59,30
2,note_on,47,64,30
2,note_on,47,0,870
2,note_on,31,0,0
2,note_on,38,0,0
2,note_on,43,0,0
2,note_on,44,77,480
2,note_on,35,69,0
2,note_on,41,69,0
2,note_on,41,0,240
2,note_on,35,0,0
2,note_on,44,0,0
2,note_on,62,74,420
2,note_on,50,66,0
2,note_on,53,66,0
2,note_on,56,66,0
2,note_on,44,74,660
2,note_on,35,66,0
2,note_on,41,66,0
2,note_on,41,0,240
2,note_on,44,0,0
2,note_on,35,0,0
2,note_on,53,0,60
2,note_on,62,0,0
2,note_on,50,0,0
2,note_on,56,0,0
2,note_on,50,74,360
2,note_on,53,74,0
2,note_on,56,74,0
2,note_on,62,74,0
2,note_on,62,0,480
2,note_on,50,0,0
2,note_on,53,0,0
2,note_on,56,0,0
2,note_on,35,70,180
2,note_on,41,75,0
2,note_on,44,81,0
2,note_on,44,0,240
2,note_on,41,0,0
2,note_on,35,0,0
2,note_on,43,81,2400
2,note_on,37,72,0
2,note_on,40,72,0
2,note_on,40,0,240
2,note_on,37,0,0
2,note_on,43,0,0
2,note_on,57,78,420
2,note_on,49,69,0
2,note_on,52,69,0
2,note_on,55,69,0
2,note_on,40,69,660
2,note_on,37,69,0
2,note_on,43,78,0
2,note_on,43,0,240
2,note_on,40,0,0
2,note_on,37,0,0
2,note_on,52,0,60
2,note_on,57,0,0
2,note_on,49,0,0
2,note_on,55,0,0
2,note_on,49,78,360
2,note_on,52,78,0
2,note_on,55,78,0
2,note_on,57,78,0
2,note_on,57,0,480
2,note_on,49,0,0
2,note_on,52,0,0
2,note_on,55,0,0
2,note_on,37,70,180
2,note_on,40,75,0
2,note_on,43,82,0
2,note_on,43,0,240
2,note_on,40,0,0
2,note_on,37,0,0
2,note_on,38,33,1110
2,note_on,45,39,30
2,note_on,50,45,30
2,note_on,53,44,30
2,note_on,53,0,390
2,note_on,38,0,0
2,note_on,45,0,0
2,note_on,50,0,0
2,note_on,40,32,0
2,note_on,45,32,30
2,note_on,49,32,30
2,note_on,55,39,30
2,note_on,55,0,900
2,note_on,40,0,0
2,note_on,45,0,0
2,note_on,49,0,0
2,note_on,41,26,0
2,note_on,45,29,10
2,note_on,50,32,10
2,note_on,53,35,10
2,note_on,53,0,450
2,note_on,41,0,0
2,note_on,45,0,0
2,note_on,50,0,0
2,note_on,40,32,0
2,note_on,45,35,10
2,note_on,48,37,10
2,note_on,52,40,10
2,note_on,52,0,510
2,note_on,40,0,0
2,note_on,45,0,0
2,note_on,48,0,0
2,note_on,51,49,0
2,note_on,39,41,0
2,note_on,48,38,0
2,note_on,48,0,480
2,note_on,39,0,0
2,note_on,51,0,0
2,note_on,51,42,0
2,note_on,39,36,0
2,note_on,48,36,0
2,note_on,48,0,480
2,note_on,39,0,0
2,note_on,51,0,0
2,note_on,51,44,0
2,note_on,39,37,0
2,note_on,48,37,0
2,note_on,48,0,480
2,note_on,39,0,0
2,note_on,51,0,0
2,note_on,51,46,0
2,note_on,39,39,0
2,note_on,48,39,0
2,note_on,48,0,480
2,note_on,39,0,0
2,note_on,51,0,0
2,note_on,45,61,0
2,note_on,48,61,0
2,note_on,48,0,960
2,note_on,45,0,0
2,note_on,44,57,0
2,note_on,47,57,0
2,note_on,47,0,960
2,note_on,44,0,0
2,note_on,33,46,0
2,note_on,40,46,10
2,note_on,45,46,10
2,note_on,49,46,10
2,note_on,49,0,930
2,note_on,33,0,0
2,note_on,40,0,0
2,note_on,45,0,0
2,note_on,35,36,2640
2,note_on,43,43,0
2,note_on,50,51,0
2,note_on,50,0,240
2,note_on,43,0,0
2,note_on,35,0,0
2,note_on,52,56,0
2,note_on,43,46,0
2,note_on,36,39,0
2,note_on,36,0,240
2,note_on,43,0,0
2,note_on,52,0,0
2,note_on,51,50,240
2,note_on,43,42,0
2,note_on,36,36,0
2,note_on,36,0,240
2,note_on,43,0,0
2,note_on,51,0,0
2,note_on,47,52,480
2,note_on,50,52,0
2,note_on,38,37,0
2,note_on,38,0,240
2,note_on,50,0,0
2,note_on,47,0,0
2,note_on,49,56,0
2,note_on,46,46,0
2,note_on,40,39,0
2,note_on,40,0,240
2,note_on,46,0,0
2,note_on,49,0,0
2,note_on,49,53,240
2,note_on,46,45,0
2,note_on,40,38,0
2,note_on,40,0,240
2,note_on,46,0,0
2,note_on,49,0,0
2,note_on,48,40,720
2,note_on,39,33,0
2,note_on,39,0,480
2,note_on,48,0,0
2,note_on,50,44,0
2,note_on,47,35,0
2,note_on,38,32,0
2,note_on,38,0,480
2,note_on,47,0,0
2,note_on,50,0,0
2,note_on,52,53,0
2,note_on,46,42,0
2,note_on,37,38,0
2,note_on,37,0,480
2,note_on,46,0,0
2,note_on,52,0,0
2,note_on,43,54,0
2,note_on,45,57,0
2,note_on,45,0,480
2,note_on,43,0,0
2,note_on,45,61,0
2,note_on,42,51,0
2,note_on,42,0,960
2,note_on,45,0,0
2,note_on,31,45,0
2,note_on,38,45,10
2,note_on,43,46,10
2,note_on,47,46,10
2,note_on,47,0,210
2,note_on,31,0,0
2,note_on,38,0,0
2,note_on,43,0,0
2,note_on,31,53,1680
2,note_on,31,0,120
2,note_on,30,46,0
2,note_on,30,0,120
2,note_on,31,53,0
2,note_on,31,0,120
2,note_on,30,47,0
2,note_on,30,0,120
2,note_on,31,46,0
2,note_on,31,0,120
2,note_on,32,51,0
2,note_on,32,0,120
2,note_on,33,54,0
2,note_on,33,0,120
2,note_on,34,58,0
2,note_on,34,0,80
2,note_on,35,52,0
2,note_on,38,54,10
2,note_on,41,58,10
2,note_on,44,62,10
2,note_on,47,65,10
2,note_on,47,0,120
2,note_on,41,0,0
2,note_on,35,0,0
2,note_on,38,0,0
2,note_on,44,0,0
2,note_on,48,58,0
2,note_on,36,49,0
2,note_on,36,0,120
2,note_on,48,0,0
2,note_on,47,58,0
2,note_on,35,49,0
2,note_on,35,0,120
2,note_on,47,0,0
2,note_on,48,54,0
2,note_on,36,45,0
2,note_on,36,0,120
2,note_on,48,0,0
2,note_on,38,58,0
2,note_on,41,58,0
2,note_on,44,58,0
2,note_on,35,58,0
2,note_on,47,58,0
2,note_on,41,0,60
2,note_on,35,0,30
2,note_on,38,0,0
2,note_on,44,0,0
2,note_on,47,0,0
2,note_on,51,59,30
2,note_on,39,50,0
2,note_on,50,58,120
2,note_on,38,49,0
2,note_on,39,0,10
2,note_on,51,0,0
2,note_on,48,56,110
2,note_on,36,47,0
2,note_on,50,0,10
2,note_on,38,0,0
2,note_on,48,0,110
2,note_on,36,0,0
2,note_on,47,61,0
2,note_on,35,51,0
2,note_on,35,0,120
2,note_on,47,0,0
2,note_on,48,55,0
2,note_on,36,46,0
2,note_on,36,0,120
2,note_on,48,0,0
2,note_on,47,59,0
2,note_on,35,50,0
2,note_on,35,0,120
2,note_on,47,0,0
2,note_on,36,55,0
2,note_on,48,55,0
2,note_on,48,0,80
2,note_on,36,0,0
2,note_on,35,53,0
2,note_on,38,54,10
2,note_on,41,55,10
2,note_on,44,57,10
2,note_on,47,59,10
2,note_on,47,0,120
2,note_on,41,0,0
2,note_on,35,0,0
2,note_on,38,0,0
2,note_on,44,0,0
2,note_on,52,56,0
2,note_on,40,47,0
2,note_on,50,58,120
2,note_on,38,49,0
2,note_on,40,0,10
2,note_on,52,0,0
2,note_on,48,57,110
2,note_on,36,48,0
2,note_on,50,0,10
2,note_on,38,0,0
2,note_on,48,0,70
2,note_on,36,0,0
2,note_on,35,52,0
2,note_on,38,54,10
2,note_on,41,58,10
2,note_on,44,62,10
2,note_on,47,65,10
2,note_on,47,0,120
2,note_on,41,0,0
2,note_on,35,0,0
2,note_on,38,0,0
2,note_on,44,0,0
2,note_on,48,58,0
2,note_on,36,49,0
2,note_on,36,0,120
2,note_on,48,0,0
2,note_on,50,61,0
2,note_on,38,51,0
2,note_on,38,0,120
2,note_on,50,0,0
2,note_on,52,58,0
2,note_on,40,49,0
2,note_on,40,0,120
2,note_on,52,0,0
2,note_on,53,58,0
2,note_on,41,49,0
2,note_on,41,0,120
2,note_on,53,0,0
2,note_on,56,61,0
2,note_on,44,51,0
2,note_on,44,0,120
2,note_on,56,0,0
2,note_on,57,63,0
2,note_on,45,54,0
2,note_on,45,0,120
2,note_on,57,0,0
2,note_on,47,66,0
2,note_on,59,66,0
2,note_on,59,0,120
2,note_on,47,0,0
2,note_on,59,68,0
2,note_on,47,57,0
2,note_on,47,0,120
2,note_on,59,0,0
2,note_on,57,67,0
2,note_on,45,56,0
2,note_on,45,0,120
2,note_on,57,0,0
2,note_on,56,66,0
2,note_on,44,55,0
2,note_on,44,0,120
2,note_on,56,0,0
2,note_on,53,64,0
2,note_on,41,54,0
2,note_on,41,0,120
2,note_on,53,0,0
2,note_on,52,63,0
2,note_on,40,54,0
2,note_on,40,0,120
2,note_on,52,0,0
2,note_on,50,63,0
2,note_on,38,53,0
2,note_on,38,0,120
2,note_on,50,0,0
2,note_on,48,61,0
2,note_on,36,51,0
2,note_on,36,0,120
2,note_on,48,0,0
2,note_on,47,60,0
2,note_on,35,50,0
2,note_on,35,0,80
2,note_on,47,0,0
2,note_on,37,52,0
2,note_on,40,54,10
2,note_on,43,58,10
2,note_on,45,62,10
2,note_on,49,65,10
2,note_on,49,0,120
2,note_on,43,0,0
2,note_on,37,0,0
2,note_on,40,0,0
2,note_on,45,0,0
2,note_on,50,58,0
2,note_on,38,49,0
2,note_on,38,0,120
2,note_on,50,0,0
2,note_on,49,58,0
2,note_on,37,49,0
2,note_on,37,0,120
2,note_on,49,0,0
2,note_on,50,54,0
2,note_on,38,45,0
2,note_on,38,0,120
2,note_on,50,0,0
2,note_on,40,58,0
2,note_on,43,58,0
2,note_on,45,58,0
2,note_on,37,58,0
2,note_on,49,58,0
2,note_on,43,0,60
2,note_on,37,0,30
2,note_on,40,0,0
2,note_on,45,0,0
2,note_on,49,0,0
2,note_on,53,59,30
2,note_on,41,50,0
2,note_on,52,58,120
2,note_on,40,49,0
2,note_on,41,0,10
2,note_on,53,0,0
2,note_on,50,56,110
2,note_on,38,47,0
2,note_on,52,0,10
2,note_on,40,0,0
2,note_on,50,0,110
2,note_on,38,0,0
2,note_on,49,61,0
2,note_on,37,51,0
2,note_on,37,0,120
2,note_on,49,0,0
2,note_on,50,55,0
2,note_on,38,46,0
2,note_on,38,0,120
2,note_on,50,0,0
2,note_on,49,59,0
2,note_on,37,50,0
2,note_on,37,0,120
2,note_on,49,0,0
2,note_on,38,55,0
2,note_on,50,55,0
2,note_on,50,0,80
2,note_on,38,0,0
2,note_on,37,53,0
2,note_on,40,54,10
2,note_on,43,55,10
2,note_on,45,57,10
2,note_on,49,59,10
2,note_on,49,0,120
2,note_on,43,0,0
2,note_on,37,0,0
2,note_on,40,0,0
2,note_on,45,0,0
2,note_on,53,56,0
2,note_on,41,47,0
2,note_on,52,58,120
2,note_on,40,49,0
2,note_on,41,0,10
2,note_on,53,0,0
2,note_on,50,57,110
2,note_on,38,48,0
2,note_on,52,0,10
2,note_on,40,0,0
2,note_on,50,0,110
2,note_on,38,0,0
2,note_on,37,36,0
2,note_on,49,36,0
2,note_on,49,0,120
2,note_on,37,0,0
2,note_on,50,35,0
2,note_on,38,35,0
2,note_on,38,0,120
2,note_on,50,0,0
2,note_on,52,37,0
2,note_on,40,37,0
2,note_on,40,0,120
2,note_on,52,0,0
2,note_on,53,35,0
2,note_on,41,35,0
2,note_on,41,0,120
2,note_on,53,0,0
2,note_on,55,37,0
2,note_on,43,37,0
2,note_on,43,0,120
2,note_on,55,0,0
2,note_on,57,39,0
2,note_on,45,39,0
2,note_on,57,0,118
2,note_on,45,0,2
2,note_on,58,42,0
2,note_on,46,42,0
2,note_on,46,0,120
2,note_on,58,0,0
2,note_on,49,45,0
2,note_on,61,45,0
2,note_on,61,0,120
2,note_on,49,0,0
2,note_on,61,46,0
2,note_on,49,46,0
2,note_on,49,0,120
2,note_on,61,0,0
2,note_on,58,47,0
2,note_on,46,47,0
2,note_on,46,0,120
2,note_on,58,0,0
2,note_on,57,47,0
2,note_on,45,47,0
2,note_on,45,0,120
2,note_on,57,0,0
2,note_on,55,47,0
2,note_on,43,47,0
2,note_on,43,0,120
2,note_on,55,0,0
2,note_on,53,46,0
2,note_on,41,46,0
2,note_on,41,0,120
2,note_on,53,0,0
2,note_on,52,46,0
2,note_on,40,46,0
2,note_on,40,0,120
2,note_on,52,0,0
2,note_on,50,46,0
2,note_on,38,46,0
2,note_on,38,0,120
2,note_on,50,0,0
2,note_on,49,45,0
2,note_on,37,45,0
2,note_on,37,0,120
2,note_on,49,0,0
2,note_on,38,53,0
2,note_on,50,53,0
2,note_on,50,0,120
2,note_on,38,0,0
2,note_on,52,51,0
2,note_on,40,51,0
2,note_on,40,0,120
2,note_on,52,0,0
2,note_on,53,53,0
2,note_on,41,53,0
2,note_on,41,0,120
2,note_on,53,0,0
2,note_on,55,47,0
2,note_on,43,47,0
2,note_on,43,0,120
2,note_on,55,0,0
2,note_on,57,51,0
2,note_on,45,51,0
2,note_on,45,0,120
2,note_on,57,0,0
2,note_on,58,53,0
2,note_on,46,53,0
2,note_on,58,0,118
2,note_on,46,0,2
2,note_on,61,54,0
2,note_on,49,54,0
2,note_on,49,0,120
2,note_on,61,0,0
2,note_on,50,56,0
2,note_on,62,56,0
2,note_on,62,0,120
2,note_on,50,0,0
2,note_on,63,59,0
2,note_on,51,59,0
2,note_on,51,0,120
2,note_on,63,0,0
2,note_on,60,57,0
2,note_on,48,57,0
2,note_on,48,0,120
2,note_on,60,0,0
2,note_on,59,56,0
2,note_on,47,56,0
2,note_on,47,0,120
2,note_on,59,0,0
2,note_on,57,55,0
2,note_on,45,55,0
2,note_on,45,0,120
2,note_on,57,0,0
2,note_on,55,54,0
2,note_on,43,54,0
2,note_on,43,0,120
2,note_on,55,0,0
2,note_on,54,53,0
2,note_on,42,53,0
2,note_on,42,0,120
2,note_on,54,0,0
2,note_on,52,52,0
2,note_on,40,52,0
2,note_on,40,0,120
2,note_on,52,0,0
2,note_on,51,50,0
2,note_on,39,50,0
2,note_on,39,0,120
2,note_on,51,0,0
2,note_on,40,58,0
2,note_on,52,58,0
2,note_on,52,0,120
2,note_on,40,0,0
2,note_on,54,56,0
2,note_on,42,56,0
2,note_on,42,0,120
2,note_on,54,0,0
2,note_on,56,58,0
2,note_on,44,58,0
2,note_on,44,0,120
2,note_on,56,0,0
2,note_on,57,53,0
2,note_on,45,53,0
2,note_on,45,0,120
2,note_on,57,0,0
2,note_on,59,56,0
2,note_on,47,56,0
2,note_on,47,0,120
2,note_on,59,0,0
2,note_on,60,58,0
2,note_on,48,58,0
2,note_on,60,0,118
2,note_on,48,0,2
2,note_on,62,61,0
2,note_on,50,61,0
2,note_on,50,0,120
2,note_on,62,0,0
2,note_on,52,63,0
2,note_on,64,63,0
2,note_on,64,0,120
2,note_on,52,0,0
2,note_on,64,65,0
2,note_on,52,65,0
2,note_on,52,0,120
2,note_on,64,0,0
2,note_on,62,63,0
2,note_on,50,63,0
2,note_on,50,0,120
2,note_on,62,0,0
2,note_on,61,63,0
2,note_on,49,63,0
2,note_on,49,0,120
2,note_on,61,0,0
2,note_on,58,62,0
2,note_on,46,62,0
2,note_on,46,0,120
2,note_on,58,0,0
2,note_on,57,60,0
2,note_on,45,60,0
2,note_on,45,0,120
2,note_on,57,0,0
2,note_on,55,58,0
2,note_on,43,58,0
2,note_on,43,0,120
2,note_on,55,0,0
2,note_on,53,57,0
2,note_on,41,57,0
2,note_on,41,0,120
2,note_on,53,0,0
2,note_on,52,55,0
2,note_on,40,55,0
2,note_on,40,0,120
2,note_on,52,0,0
2,note_on,53,38,0
2,note_on,41,32,0
2,note_on,46,32,0
2,note_on,50,32,0
2,note_on,41,0,238
2,note_on,53,0,692
2,note_on,46,0,0
2,note_on,50,0,0
2,note_on,41,51,0
2,note_on,46,53,10
2,note_on,50,54,10
2,note_on,58,54,10
2,note_on,41,0,236
2,note_on,41,54,694
2,note_on,48,54,10
2,note_on,51,54,10
2,note_on,46,0,10
2,note_on,58,0,0
2,note_on,50,0,0
2,note_on,56,64,0
2,note_on,41,0,238
2,note_on,51,0,692
2,note_on,48,0,0
2,note_on,56,0,0
2,note_on,54,38,990
2,note_on,42,32,0
2,note_on,47,32,0
2,note_on,51,32,0
2,note_on,42,0,238
2,note_on,54,0,692
2,note_on,47,0,0
2,note_on,51,0,0
2,note_on,42,51,0
2,note_on,47,53,10
2,note_on,51,54,10
2,note_on,59,54,10
2,note_on,42,0,236
2,note_on,42,54,694
2,note_on,49,54,10
2,note_on,52,54,10
2,note_on,47,0,10
2,note_on,59,0,0
2,note_on,51,0,0
2,note_on,57,64,0
2,note_on,42,0,238
2,note_on,52,0,692
2,note_on,49,0,0
2,note_on,57,0,0
2,note_on,43,58,960
2,note_on,49,60,10
2,note_on,52,61,10
2,note_on,58,63,10
2,note_on,43,0,238
2,note_on,49,0,692
2,note_on,52,0,0
2,note_on,58,0,0
2,note_on,44,59,0
2,note_on,48,61,10
2,note_on,53,62,10
2,note_on,56,63,10
2,note_on,44,0,236
2,note_on,48,0,694
2,note_on,53,0,0
2,note_on,56,0,0
2,note_on,45,62,0
2,note_on,51,63,10
2,note_on,54,66,10
2,note_on,60,70,10
2,note_on,45,0,238
2,note_on,51,0,692
2,note_on,54,0,0
2,note_on,60,0,0
2,note_on,46,65,0
2,note_on,50,67,10
2,note_on,55,69,10
2,note_on,58,71,10
2,note_on,46,0,236
2,note_on,50,0,694
2,note_on,55,0,0
2,note_on,58,0,0
2,note_on,47,63,0
2,note_on,53,64,10
2,note_on,56,66,10
2,note_on,62,69,10
2,note_on,44,62,240
2,note_on,35,52,0
2,note_on,41,52,0
2,note_on,41,0,120
2,note_on,44,0,0
2,note_on,35,0,0
2,note_on,56,0,90
2,note_on,47,0,0
2,note_on,53,0,0
2,note_on,62,0,0
2,note_on,47,61,0
2,note_on,53,63,10
2,note_on,56,64,10
2,note_on,62,67,10
2,note_on,44,61,240
2,note_on,35,51,0
2,note_on,41,51,0
2,note_on,41,0,120
2,note_on,44,0,0
2,note_on,35,0,0
2,note_on,50,61,120
2,note_on,41,51,0
2,note_on,44,51,0
2,note_on,44,0,120
2,note_on,50,0,0
2,note_on,41,0,0
2,note_on,44,61,120
2,note_on,35,51,0
2,note_on,41,51,0
2,note_on,41,0,120
2,note_on,44,0,0
2,note_on,35,0,0
2,note_on,56,0,90
2,note_on,47,0,0
2,note_on,53,0,0
2,note_on,62,0,0
2,note_on,47,63,0
2,note_on,53,65,10
2,note_on,56,66,10
2,note_on,62,68,10
2,note_on,44,63,240
2,note_on,35,54,0
2,note_on,41,54,0
2,note_on,41,0,120
2,note_on,44,0,0
2,note_on,35,0,0
2,note_on,56,0,90
2,note_on,47,0,0
2,note_on,53,0,0
2,note_on,62,0,0
2,note_on,47,63,0
2,note_on,53,65,10
2,note_on,56,67,10
2,note_on,62,69,10
2,note_on,44,58,240
2,note_on,35,49,0
2,note_on,41,49,0
2,note_on,41,0,120
2,note_on,44,0,0
2,note_on,35,0,0
2,note_on,50,64,120
2,note_on,41,54,0
2,note_on,44,54,0
2,note_on,44,0,120
2,note_on,50,0,0
2,note_on,41,0,0
2,note_on,47,0,80
2,note_on,53,0,10
2,note_on,56,0,10
2,note_on,62,0,10
2,note_on,56,70,10
2,note_on,47,59,0
2,note_on,53,59,0
2,note_on,53,0,120
2,note_on,47,0,0
2,note_on,56,0,0
2,note_on,62,76,120
2,note_on,53,64,0
2,note_on,56,64,0
2,note_on,56,0,120
2,note_on,53,0,0
2,note_on,62,0,0
2,note_on,49,64,840
2,note_on,55,66,0
2,note_on,57,69,0
2,note_on,45,62,240
2,note_on,37,52,0
2,note_on,43,52,0
2,note_on,43,0,120
2,note_on,45,0,0
2,note_on,37,0,0
2,note_on,49,0,120
2,note_on,57,0,0
2,note_on,55,0,0
2,note_on,49,63,0
2,note_on,55,64,0
2,note_on,57,67,0
2,note_on,45,61,240
2,note_on,37,51,0
2,note_on,43,51,0
2,note_on,43,0,120
2,note_on,45,0,0
2,note_on,37,0,0
2,note_on,52,61,120
2,note_on,43,51,0
2,note_on,45,51,0
2,note_on,45,0,120
2,note_on,52,0,0
2,note_on,43,0,0
2,note_on,45,61,120
2,note_on,37,51,0
2,note_on,43,51,0
2,note_on,43,0,120
2,note_on,45,0,0
2,note_on,37,0,0
2,note_on,57,0,120
2,note_on,55,0,0
2,note_on,49,0,0
2,note_on,49,65,0
2,note_on,55,66,0
2,note_on,57,68,0
2,note_on,45,63,240
2,note_on,37,54,0
2,note_on,43,54,0
2,note_on,43,0,120
2,note_on,45,0,0
2,note_on,37,0,0
2,note_on,49,0,120
2,note_on,57,0,0
2,note_on,55,0,0
2,note_on,49,65,0
2,note_on,55,67,0
2,note_on,57,69,0
2,note_on,45,58,240
2,note_on,37,49,0
2,note_on,43,49,0
2,note_on,43,0,120
2,note_on,45,0,0
2,note_on,37,0,0
2,note_on,57,0,90
2,note_on,55,0,30
2,note_on,49,0,0
2,note_on,52,64,0
2,note_on,43,54,0
2,note_on,45,54,0
2,note_on,45,0,120
2,note_on,43,0,0
2,note_on,52,0,0
2,note_on,57,70,120
2,note_on,49,59,0
2,note_on,55,59,0
2,note_on,55,0,120
2,note_on,49,0,0
2,note_on,57,0,0
2,note_on,61,64,120
2,note_on,69,76,0
2,note_on,64,64,0
2,note_on,67,64,0
2,note_on,67,0,120
2,note_on,61,0,0
2,note_on,69,0,0
2,note_on,64,0,0
2,note_on,57,60,840
2,note_on,57,0,960
2,note_on,54,56,0
2,note_on,54,0,960
2,note_on,50,60,0
2,note_on,50,0,960
2,note_on,58,57,0
2,note_on,58,0,720
2,note_on,58,55,0
2,note_on,58,0,240
2,note_on,30,40,0
2,note_on,30,0,120
2,note_on,31,41,0
2,note_on,31,0,120
2,note_on,32,43,0
2,note_on,32,0,120
2,note_on,33,44,0
2,note_on,33,0,120
2,note_on,34,45,0
2,note_on,34,0,120
2,note_on,35,46,0
2,note_on,35,0,120
2,note_on,36,49,0
2,note_on,36,0,120
2,note_on,37,53,0
2,note_on,37,0,120
2,note_on,38,55,0
2,note_on,38,0,120
2,note_on,39,59,0
2,note_on,39,0,120
2,note_on,40,62,0
2,note_on,40,0,120
2,note_on,41,65,0
2,note_on,41,0,120
2,note_on,42,68,0
2,note_on,48,68,0
2,note_on,48,0,480
2,note_on,42,0,0
2,note_on,48,68,0
2,note_on,43,68,0
2,note_on,43,0,120
2,note_on,42,65,0
2,note_on,42,0,120
2,note_on,41,63,0
2,note_on,41,0,120
2,note_on,40,61,0
2,note_on,40,0,120
2,note_on,39,59,0
2,note_on,39,0,120
2,note_on,38,56,0
2,note_on,38,0,120
2,note_on,37,54,0
2,note_on,37,0,120
2,note_on,36,48,0
2,note_on,36,0,120
2,note_on,48,0,0
2,note_on,47,47,0
2,note_on,35,47,0
2,note_on,35,0,120
2,note_on,34,46,0
2,note_on,34,0,120
2,note_on,33,45,0
2,note_on,33,0,120
2,note_on,32,45,0
2,note_on,32,0,90
2,note_on,31,38,0
2,note_on,38,44,15
2,note_on,47,0,15
2,note_on,46,48,0
2,note_on,46,0,120
2,note_on,38,0,0
2,note_on,31,0,0
2,note_on,51,60,360
2,note_on,51,0,960
2,note_on,58,56,0
2,note_on,58,0,720
2,note_on,58,55,0
2,note_on,58,0,240
2,note_on,49,60,0
2,note_on,49,0,960
2,note_on,53,57,0
2,note_on,53,0,960
2,note_on,35,37,0
2,note_on,32,27,0
2,note_on,32,0,120
2,note_on,35,0,0
2,note_on,36,37,0
2,note_on,33,32,0
2,note_on,33,0,120
2,note_on,36,0,0
2,note_on,37,39,0
2,note_on,34,34,0
2,note_on,34,0,120
2,note_on,37,0,0
2,note_on,38,41,0
2,note_on,35,35,0
2,note_on,35,0,120
2,note_on,38,0,0
2,note_on,39,42,0
2,note_on,36,36,0
2,note_on,36,0,120
2,note_on,39,0,0
2,note_on,40,44,0
2,note_on,37,38,0
2,note_on,37,0,120
2,note_on,40,0,0
2,note_on,41,45,0
2,note_on,38,40,0
2,note_on,38,0,120
2,note_on,41,0,0
2,note_on,42,47,0
2,note_on,39,42,0
2,note_on,39,0,120
2,note_on,42,0,0
2,note_on,43,48,0
2,note_on,40,43,0
2,note_on,40,0,120
2,note_on,43,0,0
2,note_on,44,50,0
2,note_on,41,45,0
2,note_on,41,0,120
2,note_on,44,0,0
2,note_on,45,52,0
2,note_on,42,46,0
2,note_on,42,0,120
2,note_on,45,0,0
2,note_on,46,53,0
2,note_on,43,47,0
2,note_on,43,0,120
2,note_on,46,0,0
2,note_on,44,49,0
2,note_on,47,54,0
2,note_on,47,0,480
2,note_on,44,0,0
2,note_on,45,54,0
2,note_on,45,0,80
2,note_on,44,48,0
2,note_on,47,54,0
2,note_on,47,0,80
2,note_on,44,0,0
2,note_on,43,46,0
2,note_on,46,52,0
2,note_on,46,0,80
2,note_on,43,0,0
2,note_on,42,45,0
2,note_on,45,51,0
2,note_on,45,0,80
2,note_on,42,0,0
2,note_on,41,45,0
2,note_on,44,50,0
2,note_on,44,0,80
2,note_on,41,0,0
2,note_on,40,43,0
2,note_on,43,48,0
2,note_on,43,0,80
2,note_on,40,0,0
2,note_on,39,42,0
2,note_on,42,47,0
2,note_on,42,0,80
2,note_on,39,0,0
2,note_on,38,41,0
2,note_on,41,46,0
2,note_on,41,0,80
2,note_on,38,0,0
2,note_on,37,39,0
2,note_on,40,45,0
2,note_on,40,0,80
2,note_on,37,0,0
2,note_on,36,38,0
2,note_on,39,44,0
2,note_on,39,0,80
2,note_on,36,0,0
2,note_on,35,37,0
2,note_on,38,43,0
2,note_on,38,0,80
2,note_on,35,0,0
2,note_on,34,36,0
2,note_on,37,41,0
2,note_on,37,0,80
2,note_on,34,0,0
2,note_on,33,31,0
2,note_on,36,48,0
2,note_on,36,0,240
2,note_on,33,0,0
2,note_on,69,48,180
2,note_on,57,43,0
2,note_on,57,0,60
2,note_on,69,0,0
2,note_on,69,54,0
2,note_on,57,49,0
2,note_on,57,0,240
2,note_on,69,0,0
2,note_on,45,46,180
2,note_on,57,54,0
2,note_on,57,0,40
2,note_on,45,0,0
2,note_on,48,47,0
2,note_on,52,47,10
2,note_on,45,45,10
2,note_on,36,47,0
2,note_on,40,47,0
2,note_on,45,0,80
2,note_on,46,25,0
2,note_on,46,0,80
2,note_on,47,26,0
2,note_on,47,0,80
2,note_on,48,27,0
2,note_on,48,0,80
2,note_on,49,28,0
2,note_on,49,0,80
2,note_on,50,30,0
2,note_on,50,0,80
2,note_on,40,0,0
2,note_on,48,0,0
2,note_on,52,0,0
2,note_on,36,0,0
2,note_on,51,31,0
2,note_on,51,0,80
2,note_on,52,32,0
2,note_on,52,0,80
2,note_on,53,34,0
2,note_on,53,0,80
2,note_on,54,35,0
2,note_on,54,0,60
2,note_on,55,36,0
2,note_on,55,0,60
2,note_on,56,36,0
2,note_on,56,0,60
2,note_on,48,53,0
2,note_on,52,53,0
2,note_on,57,53,0
2,note_on,57,0,60
2,note_on,52,0,0
2,note_on,48,0,0
2,note_on,48,52,0
2,note_on,52,52,0
2,note_on,57,52,0
2,note_on,57,0,80
2,note_on,56,38,0
2,note_on,56,0,80
2,note_on,55,38,0
2,note_on,55,0,80
2,note_on,54,37,0
2,note_on,54,0,80
2,note_on,53,36,0
2,note_on,53,0,80
2,note_on,52,36,0
2,note_on,52,0,80
2,note_on,52,0,0
2,note_on,48,0,0
2,note_on,51,36,0
2,note_on,51,0,80
2,note_on,50,35,0
2,note_on,50,0,80
2,note_on,49,34,0
2,note_on,49,0,80
2,note_on,48,34,0
2,note_on,48,0,60
2,note_on,47,33,0
2,note_on,47,0,60
2,note_on,46,33,0
2,note_on,46,0,60
2,note_on,36,50,0
2,note_on,45,50,0
2,note_on,45,0,60
2,note_on,36,0,0
2,note_on,38,47,0
2,note_on,46,45,0
2,note_on,46,0,80
2,note_on,47,34,0
2,note_on,47,0,80
2,note_on,48,35,0
2,note_on,48,0,80
2,note_on,49,36,0
2,note_on,49,0,80
2,note_on,50,36,0
2,note_on,50,0,80
2,note_on,51,37,0
2,note_on,51,0,80
2,note_on,38,0,0
2,note_on,52,38,0
2,note_on,52,0,80
2,note_on,53,39,0
2,note_on,53,0,80
2,note_on,54,40,0
2,note_on,54,0,80
2,note_on,55,41,0
2,note_on,55,0,60
2,note_on,56,42,0
2,note_on,56,0,60
2,note_on,57,43,0
2,note_on,57,0,60
2,note_on,50,54,0
2,note_on,53,54,0
2,note_on,58,54,0
2,note_on,58,0,60
2,note_on,53,0,0
2,note_on,50,0,0
2,note_on,51,52,0
2,note_on,54,52,0
2,note_on,59,52,0
2,note_on,59,0,80
2,note_on,58,45,0
2,note_on,58,0,80
2,note_on,57,45,0
2,note_on,57,0,80
2,note_on,56,44,0
2,note_on,56,0,80
2,note_on,55,44,0
2,note_on,55,0,80
2,note_on,54,43,0
2,note_on,54,0,80
2,note_on,54,0,0
2,note_on,51,0,0
2,note_on,53,42,0
2,note_on,53,0,80
2,note_on,52,41,3
2,note_on,51,40,77
2,note_on,52,0,3
2,note_on,51,0,77
2,note_on,50,39,0
2,note_on,50,0,60
2,note_on,49,39,0
2,note_on,49,0,60
2,note_on,48,39,0
2,note_on,48,0,60
2,note_on,39,35,0
2,note_on,47,50,0
2,note_on,47,0,60
2,note_on,39,0,0
2,note_on,40,54,0
2,note_on,48,45,0
2,note_on,48,0,80
2,note_on,49,40,0
2,note_on,49,0,80
2,note_on,50,41,0
2,note_on,50,0,80
2,note_on,51,42,0
2,note_on,51,0,80
2,note_on,52,43,0
2,note_on,52,0,80
2,note_on,53,44,0
2,note_on,53,0,80
2,note_on,40,0,0
2,note_on,54,44,0
2,note_on,54,0,80
2,note_on,55,45,0
2,note_on,55,0,80
2,note_on,56,45,0
2,note_on,56,0,80
2,note_on,57,46,0
2,note_on,57,0,60
2,note_on,58,47,0
2,note_on,58,0,60
2,note_on,59,45,0
2,note_on,59,0,60
2,note_on,52,45,0
2,note_on,57,45,0
2,note_on,60,45,0
2,note_on,60,0,60
2,note_on,57,0,0
2,note_on,52,0,0
2,note_on,52,55,0
2,note_on,55,55,0
2,note_on,61,55,0
2,note_on,61,0,80
2,note_on,60,51,0
2,note_on,60,0,80
2,note_on,59,49,0
2,note_on,59,0,80
2,note_on,58,47,0
2,note_on,58,0,80
2,note_on,57,46,0
2,note_on,57,0,80
2,note_on,56,45,0
2,note_on,56,0,80
2,note_on,55,0,0
2,note_on,52,0,0
2,note_on,55,45,0
2,note_on,55,0,80
2,note_on,54,44,3
2,note_on,53,43,77
2,note_on,54,0,3
2,note_on,53,0,77
2,note_on,52,41,0
2,note_on,52,0,60
2,note_on,51,41,0
2,note_on,51,0,60
2,note_on,50,40,0
2,note_on,50,0,60
2,note_on,40,50,0
2,note_on,43,50,0
2,note_on,49,50,0
2,note_on,49,0,60
2,note_on,43,0,0
2,note_on,40,0,0
2,note_on,41,49,0
2,note_on,50,42,0
2,note_on,50,0,60
2,note_on,51,41,0
2,note_on,51,0,60
2,note_on,52,42,0
2,note_on,52,0,60
2,note_on,53,42,0
2,note_on,53,0,60
2,note_on,54,43,0
2,note_on,54,0,60
2,note_on,55,44,0
2,note_on,55,0,60
2,note_on,56,45,0
2,note_on,56,0,60
2,note_on,57,45,0
2,note_on,57,0,60
2,note_on,41,0,0
2,note_on,58,45,0
2,note_on,58,0,60
2,note_on,59,46,0
2,note_on,59,0,60
2,note_on,60,47,0
2,note_on,60,0,60
2,note_on,61,48,0
2,note_on,61,0,60
2,note_on,62,49,0
2,note_on,62,0,60
2,note_on,63,49,0
2,note_on,63,0,60
2,note_on,64,50,0
2,note_on,64,0,60
2,note_on,65,51,0
2,note_on,65,0,60
2,note_on,66,52,0
2,note_on,66,0,60
2,note_on,67,52,0
2,note_on,67,0,60
2,note_on,68,53,0
2,note_on,68,0,60
2,note_on,69,54,0
2,note_on,69,0,60
2,note_on,70,54,0
2,note_on,70,0,60
2,note_on,71,55,0
2,note_on,71,0,60
2,note_on,72,55,0
2,note_on,72,0,60
2,note_on,73,56,0
2,note_on,73,0,60
2,note_on,74,65,0
2,note_on,74,0,60
2,note_on,73,57,0
2,note_on,73,0,60
2,note_on,72,58,0
2,note_on,72,0,60
2,note_on,71,56,0
2,note_on,71,0,60
2,note_on,70,55,0
2,note_on,70,0,60
2,note_on,69,54,0
2,note_on,69,0,60
2,note_on,68,54,0
2,note_on,68,0,60
2,note_on,67,53,0
2,note_on,67,0,60
2,note_on,66,52,0
2,note_on,66,0,60
2,note_on,65,51,0
2,note_on,65,0,60
2,note_on,64,50,0
2,note_on,64,0,60
2,note_on,63,49,0
2,note_on,63,0,60
2,note_on,62,48,0
2,note_on,62,0,60
2,note_on,61,47,0
2,note_on,61,0,60
2,note_on,60,46,0
2,note_on,60,0,60
2,note_on,59,45,0
2,note_on,59,0,60
2,note_on,58,44,0
2,note_on,58,0,60
2,note_on,57,44,0
2,note_on,57,0,60
2,note_on,56,42,0
2,note_on,56,0,60
2,note_on,55,41,0
2,note_on,55,0,60
2,note_on,54,40,0
2,note_on,54,0,60
2,note_on,53,39,0
2,note_on,53,0,60
2,note_on,52,38,0
2,note_on,52,0,60
2,note_on,51,50,0
2,note_on,51,0,40
2,note_on,41,63,0
2,note_on,50,63,10
2,note_on,58,82,10
2,note_on,50,0,240
2,note_on,41,0,0
2,note_on,58,0,1200
2,note_on,58,74,120
2,note_on,58,0,600
2,note_on,41,69,30
2,note_on,51,72,10
2,note_on,57,74,10
2,note_on,60,82,10
2,note_on,57,0,240
2,note_on,41,0,0
2,note_on,51,0,0
2,note_on,60,0,720
2,note_on,51,79,300
2,note_on,51,0,960
2,note_on,52,56,0
2,note_on,40,45,0
2,note_on,45,45,0
2,note_on,48,45,0
2,note_on,48,0,60
2,note_on,52,0,0
2,note_on,40,0,0
2,note_on,45,0,0
2,note_on,53,41,0
2,note_on,53,0,60
2,note_on,54,42,0
2,note_on,54,0,60
2,note_on,55,42,0
2,note_on,55,0,60
2,note_on,56,43,0
2,note_on,56,0,60
2,note_on,57,44,0
2,note_on,57,0,60
2,note_on,58,45,0
2,note_on,58,0,60
2,note_on,59,45,0
2,note_on,59,0,60
2,note_on,60,45,0
2,note_on,60,0,60
2,note_on,61,46,0
2,note_on,61,0,60
2,note_on,62,47,0
2,note_on,62,0,60
2,note_on,63,48,0
2,note_on,63,0,60
2,note_on,64,49,0
2,note_on,64,0,60
2,note_on,63,50,0
2,note_on,63,0,60
2,note_on,62,51,0
2,note_on,62,0,60
2,note_on,61,51,0
2,note_on,61,0,60
2,note_on,60,52,0
2,note_on,60,0,60
2,note_on,59,53,0
2,note_on,59,0,60
2,note_on,58,54,0
2,note_on,58,0,60
2,note_on,57,54,0
2,note_on,57,0,60
2,note_on,56,54,0
2,note_on,56,0,60
2,note_on,55,55,0
2,note_on,55,0,60
2,note_on,54,56,0
2,note_on,54,0,60
2,note_on,53,57,0
2,note_on,53,0,60
2,note_on,52,58,0
2,note_on,52,0,60
2,note_on,51,59,0
2,note_on,51,0,60
2,note_on,50,59,0
2,note_on,50,0,60
2,note_on,49,60,0
2,note_on,49,0,60
2,note_on,48,61,0
2,note_on,48,0,60
2,note_on,47,62,0
2,note_on,47,0,60
2,note_on,46,63,0
2,note_on,46,0,60
2,note_on,45,63,0
2,note_on,45,0,60
2,note_on,44,63,0
2,note_on,44,0,60
2,note_on,43,64,0
2,note_on,43,0,60
2,note_on,42,65,0
2,note_on,42,0,60
2,note_on,41,66,0
2,note_on,41,0,60
2,note_on,52,80,0
2,note_on,48,67,0
2,note_on,45,67,0
2,note_on,40,67,0
2,note_on,40,0,120
2,note_on,52,0,0
2,note_on,48,0,0
2,note_on,45,0,0
2,note_on,53,79,360
2,note_on,38,66,0
2,note_on,45,66,0
2,note_on,48,66,0
2,note_on,48,0,120
2,note_on,53,0,0
2,note_on,38,0,0
2,note_on,45,0,0
2,note_on,39,42,1230
2,note_on,47,45,30
2,note_on,54,47,30
2,note_on,57,49,15
2,note_on,59,49,15
2,note_on,54,0,240
2,note_on,39,0,0
2,note_on,47,0,0
2,note_on,40,42,630
2,note_on,57,0,30
2,note_on,59,0,0
2,note_on,47,45,0
2,note_on,52,47,30
2,note_on,57,49,15
2,note_on,59,49,15
2,note_on,52,0,240
2,note_on,40,0,0
2,note_on,47,0,0
2,note_on,57,0,660
2,note_on,59,0,0
2,note_on,57,56,0
2,note_on,59,56,0
2,note_on,59,0,40
2,note_on,57,0,0
2,note_on,41,42,0
2,note_on,47,45,10
2,note_on,50,47,10
2,note_on,57,49,0
2,note_on,59,49,0
2,note_on,50,0,240
2,note_on,41,0,0
2,note_on,47,0,0
2,note_on,57,0,660
2,note_on,59,0,0
2,note_on,41,34,450
2,note_on,47,36,30
2,note_on,51,40,30
2,note_on,57,42,30
2,note_on,59,42,0
2,note_on,41,0,210
2,note_on,47,0,30
2,note_on,51,0,0
2,note_on,57,0,240
2,note_on,59,0,0
2,note_on,40,33,0
2,note_on,47,35,15
2,note_on,52,36,15
2,note_on,56,37,15
2,note_on,59,40,15
2,note_on,56,0,165
2,note_on,52,0,15
2,note_on,40,0,0
2,note_on,47,0,0
2,note_on,59,0,0
2,note_on,74,34,3120
2,note_on,74,0,360
2,note_on,76,32,0
2,note_on,76,0,40
2,note_on,74,28,0
2,note_on,74,0,40
2,note_on,73,28,0
2,note_on,73,0,40
2,note_on,71,36,0
2,note_on,71,0,360
2,note_on,73,36,0
2,note_on,73,0,40
2,note_on,71,32,0
2,note_on,71,0,40
2,note_on,69,32,0
2,note_on,69,0,40
2,note_on,62,35,0
2,note_on,68,42,0
2,note_on,68,0,600
2,note_on,62,0,0
2,note_on,61,34,0
2,note_on,68,34,0
2,note_on,68,0,90
2,note_on,61,0,0
2,note_on,61,38,30
2,note_on,68,38,0
2,note_on,68,0,90
2,note_on,61,0,0
2,note_on,67,35,30
2,note_on,73,35,0
2,note_on,73,0,90
2,note_on,67,0,0
2,note_on,67,38,30
2,note_on,73,38,0
2,note_on,73,0,90
2,note_on,67,0,0
2,note_on,66,34,30
2,note_on,73,34,0
2,note_on,73,0,90
2,note_on,66,0,0
2,note_on,66,38,30
2,note_on,73,38,0
2,note_on,73,0,90
2,note_on,66,0,0
2,note_on,72,36,30
2,note_on,78,36,0
2,note_on,78,0,60
2,note_on,72,0,0
2,note_on,72,38,0
2,note_on,78,38,20
2,note_on,78,0,600
2,note_on,72,0,0
2,note_on,71,33,0
2,note_on,78,38,0
2,note_on,78,0,80
2,note_on,71,0,0
2,note_on,71,29,0
2,note_on,77,35,0
2,note_on,77,0,80
2,note_on,71,0,0
2,note_on,72,33,0
2,note_on,76,38,0
2,note_on,76,0,80
2,note_on,72,0,0
2,note_on,70,28,0
2,note_on,76,34,0
2,note_on,76,0,80
2,note_on,70,0,0
2,note_on,71,33,0
2,note_on,75,38,0
2,note_on,75,0,80
2,note_on,71,0,0
2,note_on,68,30,0
2,note_on,74,36,0
2,note_on,74,0,80
2,note_on,68,0,0
2,note_on,69,33,0
2,note_on,73,38,0
2,note_on,73,0,80
2,note_on,69,0,0
2,note_on,66,29,0
2,note_on,72,35,0
2,note_on,72,0,80
2,note_on,66,0,0
2,note_on,67,33,0
2,note_on,71,38,0
2,note_on,71,0,80
2,note_on,67,0,0
2,note_on,64,29,0
2,note_on,70,35,0
2,note_on,70,0,80
2,note_on,64,0,0
2,note_on,65,33,0
2,note_on,69,38,0
2,note_on,69,0,50
2,note_on,65,0,0
2,note_on,62,30,30
2,note_on,69,36,0
2,note_on,69,0,60
2,note_on,62,0,0
2,note_on,69,38,60
2,note_on,62,32,0
2,note_on,62,0,108
2,note_on,69,0,0
2,note_on,69,38,12
2,note_on,64,32,0
2,note_on,64,0,108
2,note_on,69,0,0
2,note_on,69,37,12
2,note_on,65,31,0
2,note_on,65,0,108
2,note_on,69,0,0
2,note_on,69,37,492
2,note_on,62,31,0
2,note_on,62,0,108
2,note_on,69,0,0
2,note_on,69,36,12
2,note_on,62,30,0
2,note_on,62,0,108
2,note_on,69,0,0
2,note_on,69,36,12
2,note_on,64,30,0
2,note_on,64,0,108
2,note_on,69,0,0
2,note_on,69,34,12
2,note_on,66,28,0
2,note_on,66,0,54
2,note_on,69,0,0
2,note_on,52,35,946
2,note_on,52,0,50
2,note_on,45,35,0
2,note_on,49,35,15
2,note_on,57,44,15
2,note_on,57,0,240
2,note_on,49,0,0
2,note_on,45,0,0
2,note_on,57,42,0
2,note_on,57,0,120
2,note_on,59,37,0
2,note_on,59,0,90
2,note_on,45,35,0
2,note_on,52,35,15
2,note_on,61,45,15
2,note_on,61,0,240
2,note_on,52,0,0
2,note_on,45,0,0
2,note_on,57,42,0
2,note_on,57,0,210
2,note_on,38,31,0
2,note_on,54,42,30
2,note_on,54,0,240
2,note_on,38,0,0
2,note_on,59,44,0
2,note_on,39,31,240
2,note_on,59,0,237
2,note_on,39,0,3
2,note_on,57,43,0
2,note_on,57,0,210
2,note_on,40,31,0
2,note_on,56,44,30
2,note_on,56,0,180
2,note_on,40,0,60
2,note_on,56,40,120
2,note_on,56,0,120
2,note_on,47,31,0
2,note_on,57,43,0
2,note_on,47,0,240
2,note_on,59,44,0
2,note_on,57,0,120
2,note_on,59,0,120
2,note_on,40,31,0
2,note_on,52,45,0
2,note_on,40,0,240
2,note_on,59,27,0
2,note_on,56,22,0
2,note_on,56,0,240
2,note_on,59,0,0
2,note_on,61,25,0
2,note_on,57,20,0
2,note_on,57,0,240
2,note_on,61,0,0
2,note_on,64,23,0
2,note_on,59,19,0
2,note_on,45,35,210
2,note_on,49,35,15
2,note_on,59,0,15
2,note_on,52,0,0
2,note_on,64,0,0
2,note_on,57,44,0
2,note_on,57,0,240
2,note_on,45,0,0
2,note_on,49,0,0
2,note_on,57,42,0
2,note_on,57,0,120
2,note_on,59,35,0
2,note_on,59,0,90
2,note_on,45,35,0
2,note_on,52,35,15
2,note_on,61,45,15
2,note_on,61,0,238
2,note_on,52,0,2
2,note_on,45,0,0
2,note_on,57,42,0
2,note_on,57,0,210
2,note_on,38,31,0
2,note_on,54,42,30
2,note_on,54,0,240
2,note_on,38,0,0
2,note_on,59,40,0
2,note_on,38,31,240
2,note_on,38,0,240
2,note_on,59,0,0
2,note_on,57,43,0
2,note_on,57,0,210
2,note_on,40,31,30
2,note_on,57,44,0
2,note_on,57,0,120
2,note_on,56,44,0
2,note_on,56,0,120
2,note_on,40,0,0
2,note_on,54,44,0
2,note_on,54,0,90
2,note_on,52,40,30
2,note_on,52,0,90
2,note_on,40,31,30
2,note_on,52,43,0
2,note_on,52,0,48
2,note_on,54,43,0
2,note_on,54,0,48
2,note_on,52,43,0
2,note_on,52,0,48
2,note_on,51,43,0
2,note_on,51,0,48
2,note_on,52,43,0
2,note_on,52,0,48
2,note_on,40,0,0
2,note_on,54,44,0
2,note_on,54,0,90
2,note_on,56,44,30
2,note_on,56,0,90
2,note_on,45,31,30
2,note_on,57,45,0
2,note_on,57,0,240
2,note_on,45,0,0
2,note_on,64,29,0
2,note_on,61,24,0
2,note_on,61,0,240
2,note_on,64,0,0
2,note_on,66,27,0
2,note_on,59,22,0
2,note_on,59,0,240
2,note_on,66,0,0
2,note_on,68,25,0
2,note_on,52,21,0
2,note_on,52,0,240
2,note_on,68,0,0
2,note_on,45,33,0
2,note_on,45,0,120
2,note_on,57,28,120
2,note_on,52,24,0
2,note_on,52,0,120
2,note_on,57,0,0
2,note_on,33,34,120
2,note_on,33,0,120
2,note_on,57,28,120
2,note_on,52,24,0
2,note_on,52,0,120
2,note_on,57,0,0
2,note_on,38,33,120
2,note_on,38,0,120
2,note_on,59,28,120
2,note_on,54,24,0
2,note_on,54,0,120
2,note_on,59,0,0
2,note_on,39,34,120
2,note_on,39,0,120
2,note_on,59,28,120
2,note_on,51,24,0
2,note_on,51,0,120
2,note_on,59,0,0
2,note_on,40,33,120
2,note_on,40,0,120
2,note_on,56,28,120
2,note_on,52,24,0
2,note_on,52,0,120
2,note_on,56,0,0
2,note_on,35,34,120
2,note_on,35,0,120
2,note_on,54,28,120
2,note_on,47,24,0
2,note_on,47,0,120
2,note_on,54,0,0
2,note_on,40,31,45
2,note_on,47,31,15
2,note_on,52,41,15
2,note_on,52,0,285
2,note_on,47,0,0
2,note_on,40,0,0
2,note_on,52,22,0
2,note_on,59,27,0
2,note_on,56,22,0
2,note_on,56,0,240
2,note_on,59,0,0
2,note_on,61,25,0
2,note_on,57,20,0
2,note_on,57,0,150
2,note_on,61,0,0
2,note_on,52,19,0
2,note_on,59,19,15
2,note_on,64,23,15
2,note_on,52,0,60
2,note_on,52,0,240
2,note_on,59,0,0
2,note_on,64,0,0
2,note_on,45,33,0
2,note_on,45,0,120
2,note_on,57,28,120
2,note_on,52,24,0
2,note_on,52,0,120
2,note_on,57,0,0
2,note_on,33,34,120
2,note_on,33,0,120
2,note_on,57,28,120
2,note_on,52,24,0
2,note_on,52,0,120
2,note_on,57,0,0
2,note_on,38,33,120
2,note_on,38,0,120
2,note_on,59,28,120
2,note_on,54,24,0
2,note_on,54,0,120
2,note_on,59,0,0
2,note_on,38,34,120
2,note_on,38,0,120
2,note_on,50,24,120
2,note_on,59,28,0
2,note_on,59,0,120
2,note_on,50,0,0
2,note_on,40,33,120
2,note_on,40,0,120
2,note_on,56,28,120
2,note_on,52,24,0
2,note_on,52,0,120
2,note_on,56,0,0
2,note_on,40,34,120
2,note_on,40,0,120
2,note_on,59,28,120
2,note_on,52,24,0
2,note_on,52,0,120
2,note_on,59,0,0
2,note_on,37,33,120
2,note_on,37,0,120
2,note_on,52,24,120
2,note_on,61,28,0
2,note_on,57,24,0
2,note_on,57,0,120
2,note_on,61,0,0
2,note_on,52,0,0
2,note_on,32,44,120
2,note_on,32,0,120
2,note_on,52,24,120
2,note_on,59,28,0
2,note_on,59,0,120
2,note_on,52,0,0
2,note_on,33,33,120
2,note_on,33,0,120
2,note_on,57,28,120
2,note_on,52,24,0
2,note_on,52,0,120
2,note_on,57,0,0
2,note_on,40,34,120
2,note_on,40,0,120
2,note_on,57,24,120
2,note_on,64,28,0
2,note_on,52,24,0
2,note_on,52,0,120
2,note_on,64,0,0
2,note_on,57,0,0
2,note_on,57,36,120
2,note_on,45,30,0
2,note_on,52,30,0
2,note_on,52,0,120
2,note_on,45,0,0
2,note_on,57,0,0
2,note_on,73,28,120
2,note_on,57,24,0
2,note_on,64,24,0
2,note_on,64,0,120
2,note_on,57,0,0
2,note_on,73,0,0
2,note_on,69,28,120
2,note_on,57,24,0
2,note_on,61,24,0
2,note_on,61,0,120
2,note_on,57,0,0
2,note_on,69,0,0
2,note_on,40,33,360
2,note_on,40,0,120
2,note_on,71,33,120
2,note_on,64,27,0
2,note_on,68,27,0
2,note_on,68,0,120
2,note_on,64,0,0
2,note_on,71,0,0
2,note_on,40,33,120
2,note_on,40,0,120
2,note_on,73,33,120
2,note_on,69,27,0
2,note_on,69,0,120
2,note_on,73,0,0
2,note_on,40,33,120
2,note_on,40,0,120
2,note_on,59,27,90
2,note_on,68,27,15
2,note_on,76,33,15
2,note_on,76,0,120
2,note_on,68,0,0
2,note_on,59,0,0
2,note_on,64,27,90
2,note_on,71,27,15
2,note_on,80,33,15
2,note_on,80,0,120
2,note_on,71,0,0
2,note_on,64,0,0
2,note_on,68,27,90
2,note_on,76,27,15
2,note_on,83,33,15
2,note_on,83,0,120
2,note_on,76,0,0
2,note_on,68,0,0
2,note_on,51,27,120
2,note_on,59,33,0
2,note_on,59,0,960
2,note_on,51,0,0
2,note_on,52,28,0
2,note_on,59,33,0
2,note_on,59,0,120
2,note_on,52,0,0
2,note_on,64,30,120
2,note_on,71,30,0
2,note_on,80,30,0
2,note_on,80,0,120
2,note_on,71,0,0
2,note_on,64,0,0
2,note_on,64,31,120
2,note_on,68,31,0
2,note_on,76,31,0
2,note_on,76,0,120
2,note_on,68,0,0
2,note_on,64,0,0
2,note_on,40,33,360
2,note_on,40,0,120
2,note_on,71,33,120
2,note_on,64,27,0
2,note_on,68,27,0
2,note_on,68,0,120
2,note_on,64,0,0
2,note_on,71,0,0
2,note_on,40,33,120
2,note_on,40,0,120
2,note_on,73,33,120
2,note_on,69,27,0
2,note_on,69,0,120
2,note_on,73,0,0
2,note_on,40,33,120
2,note_on,40,0,120
2,note_on,59,27,90
2,note_on,68,27,15
2,note_on,76,33,15
2,note_on,76,0,120
2,note_on,68,0,0
2,note_on,59,0,0
2,note_on,64,27,90
2,note_on,71,27,15
2,note_on,80,33,15
2,note_on,80,0,120
2,note_on,71,0,0
2,note_on,64,0,0
2,note_on,68,27,90
2,note_on,76,27,15
2,note_on,83,33,15
2,note_on,83,0,120
2,note_on,76,0,0
2,note_on,68,0,0
2,note_on,51,27,120
2,note_on,59,33,0
2,note_on,59,0,960
2,note_on,51,0,0
2,note_on,52,27,0
2,note_on,59,33,0
2,note_on,59,0,240
2,note_on,52,0,0
2,note_on,51,27,240
2,note_on,59,33,0
2,note_on,51,0,480
2,note_on,52,27,0
2,note_on,52,0,240
2,note_on,59,0,0
2,note_on,51,27,240
2,note_on,59,33,0
2,note_on,59,0,480
2,note_on,51,0,0
2,note_on,52,33,0
2,note_on,59,33,0
2,note_on,59,0,240
2,note_on,52,0,0
2,note_on,56,30,0
2,note_on,56,0,120
2,note_on,40,35,120
2,note_on,40,0,120
2,note_on,68,33,120
2,note_on,71,33,0
2,note_on,71,0,240
2,note_on,68,0,0
2,note_on,40,37,0
2,note_on,40,0,120
2,note_on,74,51,0
2,note_on,71,43,0
2,note_on,71,0,240
2,note_on,74,0,0
2,note_on,73,44,0
2,note_on,76,44,0
2,note_on,76,0,40
2,note_on,73,0,0
2,note_on,71,41,0
2,note_on,74,41,0
2,note_on,74,0,40
2,note_on,71,0,0
2,note_on,73,41,0
2,note_on,69,41,0
2,note_on,69,0,40
2,note_on,73,0,0
2,note_on,68,44,0
2,note_on,71,44,0
2,note_on,71,0,60
2,note_on,68,0,0
2,note_on,66,40,60
2,note_on,74,40,0
2,note_on,74,0,60
2,note_on,66,0,0
2,note_on,64,44,60
2,note_on,73,44,0
2,note_on,73,0,60
2,note_on,64,0,0
2,note_on,62,40,60
2,note_on,71,40,0
2,note_on,71,0,60
2,note_on,62,0,0
2,note_on,61,33,60
2,note_on,69,33,0
2,note_on,69,0,120
2,note_on,61,0,0
2,note_on,64,28,120
2,note_on,61,28,0
2,note_on,69,28,0
2,note_on,69,0,120
2,note_on,61,0,0
2,note_on,64,0,0
2,note_on,45,34,120
2,note_on,45,0,120
2,note_on,61,28,120
2,note_on,64,28,0
2,note_on,69,28,0
2,note_on,69,0,120
2,note_on,64,0,0
2,note_on,61,0,0
2,note_on,38,36,120
2,note_on,38,0,120
2,note_on,62,31,120
2,note_on,66,31,0
2,note_on,71,31,0
2,note_on,71,0,240
2,note_on,66,0,0
2,note_on,62,0,0
2,note_on,39,42,0
2,note_on,39,0,120
2,note_on,51,31,120
2,note_on,54,31,0
2,note_on,54,0,120
2,note_on,51,0,0
2,note_on,40,36,120
2,note_on,40,0,120
2,note_on,52,31,120
2,note_on,56,31,0
2,note_on,56,0,120
2,note_on,52,0,0
2,note_on,35,36,120
2,note_on,35,0,120
2,note_on,47,31,120
2,note_on,54,31,0
2,note_on,54,0,120
2,note_on,47,0,0
2,note_on,40,31,120
2,note_on,40,0,240
2,note_on,59,30,0
2,note_on,56,25,0
2,note_on,59,0,240
2,note_on,61,28,0
2,note_on,57,23,0
2,note_on,57,0,240
2,note_on,61,0,0
2,note_on,56,0,0
2,note_on,52,22,0
2,note_on,59,22,0
2,note_on,62,26,0
2,note_on,45,35,210
2,note_on,49,35,15
2,note_on,62,0,15
2,note_on,52,0,0
2,note_on,59,0,0
2,note_on,57,44,0
2,note_on,57,0,240
2,note_on,45,0,0
2,note_on,49,0,0
2,note_on,57,42,0
2,note_on,57,0,120
2,note_on,59,37,0
2,note_on,59,0,90
2,note_on,45,35,30
2,note_on,52,35,0
2,note_on,61,45,0
2,note_on,61,0,237
2,note_on,52,0,3
2,note_on,45,0,0
2,note_on,57,42,0
2,note_on,57,0,210
2,note_on,42,38,0
2,note_on,57,45,30
2,note_on,57,0,720
2,note_on,42,0,0
2,note_on,52,29,240
2,note_on,59,33,0
2,note_on,59,0,960
2,note_on,52,0,0
2,note_on,45,33,0
2,note_on,57,44,120
2,note_on,57,0,120
2,note_on,45,0,0
2,note_on,57,45,0
2,note_on,57,0,120
2,note_on,59,48,0
2,note_on,59,0,90
2,note_on,45,41,30
2,note_on,52,44,0
2,note_on,61,54,0
2,note_on,61,0,237
2,note_on,52,0,3
2,note_on,45,0,0
2,note_on,57,42,0
2,note_on,57,0,210
2,note_on,42,38,0
2,note_on,57,45,30
2,note_on,57,0,480
2,note_on,42,0,0
2,note_on,62,41,0
2,note_on,71,41,0
2,note_on,71,0,240
2,note_on,62,0,0
2,note_on,61,41,0
2,note_on,69,41,0
2,note_on,69,0,240
2,note_on,61,0,0
2,note_on,52,37,0
2,note_on,62,37,0
2,note_on,59,37,0
2,note_on,68,37,0
2,note_on,68,0,240
2,note_on,52,0,0
2,note_on,62,0,0
2,note_on,59,0,0
2,note_on,40,26,690
2,note_on,52,30,15
2,note_on,59,35,15
2,note_on,59,0,240
2,note_on,52,0,0
2,note_on,40,0,0
2,note_on,52,43,2520
2,note_on,52,0,90
2,note_on,45,37,0
2,note_on,52,37,15
2,note_on,61,58,15
2,note_on,52,0,120
2,note_on,45,0,0
2,note_on,40,37,0
2,note_on,40,0,120
2,note_on,61,0,0
2,note_on,49,37,0
2,note_on,52,37,0
2,note_on,57,52,0
2,note_on,57,0,120
2,note_on,52,0,0
2,note_on,49,0,0
2,note_on,40,37,0
2,note_on,52,53,0
2,note_on,52,0,75
2,note_on,40,0,0
2,note_on,47,37,0
2,note_on,52,37,15
2,note_on,56,37,15
2,note_on,62,57,15
2,note_on,56,0,120
2,note_on,47,0,0
2,note_on,52,0,0
2,note_on,40,37,0
2,note_on,40,0,120
2,note_on,50,37,0
2,note_on,50,0,120
2,note_on,62,0,0
2,note_on,40,37,0
2,note_on,56,41,0
2,note_on,56,0,120
2,note_on,40,0,0
2,note_on,49,41,0
2,note_on,57,41,0
2,note_on,57,0,240
2,note_on,49,0,0
2,note_on,61,33,0
2,note_on,64,33,0
2,note_on,64,0,240
2,note_on,61,0,0
2,note_on,56,33,240
2,note_on,59,33,0
2,note_on,59,0,210
2,note_on,56,0,0
2,note_on,45,37,0
2,note_on,52,37,15
2,note_on,61,58,15
2,note_on,52,0,120
2,note_on,45,0,0
2,note_on,40,37,0
2,note_on,40,0,120
2,note_on,61,0,0
2,note_on,49,37,0
2,note_on,52,37,0
2,note_on,57,52,0
2,note_on,57,0,120
2,note_on,52,0,0
2,note_on,49,0,0
2,note_on,40,37,0
2,note_on,52,53,0
2,note_on,52,0,75
2,note_on,40,0,0
2,note_on,47,37,0
2,note_on,52,37,15
2,note_on,56,37,15
2,note_on,62,57,15
2,note_on,56,0,120
2,note_on,47,0,0
2,note_on,52,0,0
2,note_on,40,37,0
2,note_on,40,0,120
2,note_on,50,37,0
2,note_on,50,0,120
2,note_on,62,0,0
2,note_on,40,37,0
2,note_on,56,41,0
2,note_on,56,0,120
2,note_on,40,0,0
2,note_on,49,41,0
2,note_on,57,41,0
2,note_on,57,0,240
2,note_on,49,0,0
2,note_on,56,33,240
2,note_on,64,33,0
2,note_on,71,33,0
2,note_on,57,30,450
2,note_on,64,33,15
2,note_on,71,0,15
2,note_on,56,0,0
2,note_on,64,0,0
2,note_on,73,43,0
2,note_on,73,0,120
2,note_on,57,0,0
2,note_on,64,0,0
2,note_on,53,28,360
2,note_on,61,29,0
2,note_on,68,33,0
2,note_on,68,0,450
2,note_on,61,0,0
2,note_on,53,0,0
2,note_on,54,30,0
2,note_on,61,33,15
2,note_on,69,43,15
2,note_on,69,0,120
2,note_on,61,0,0
2,note_on,54,0,0
2,note_on,49,28,360
2,note_on,57,29,0
2,note_on,64,33,0
2,note_on,50,40,450
2,note_on,57,43,15
2,note_on,64,0,15
2,note_on,49,0,0
2,note_on,57,0,0
2,note_on,66,46,0
2,note_on,66,0,120
2,note_on,50,0,0
2,note_on,57,0,0
2,note_on,57,43,120
2,note_on,50,36,0
2,note_on,47,36,120
2,note_on,47,0,40
2,note_on,54,37,0
2,note_on,50,0,20
2,note_on,57,0,0
2,note_on,54,0,20
2,note_on,62,41,0
2,note_on,62,0,40
2,note_on,74,43,0
2,note_on,66,36,0
2,note_on,66,0,120
2,note_on,74,0,0
2,note_on,59,36,600
2,note_on,68,43,0
2,note_on,52,36,0
2,note_on,49,36,120
2,note_on,49,0,40
2,note_on,56,37,0
2,note_on,59,0,20
2,note_on,52,0,0
2,note_on,68,0,0
2,note_on,56,0,20
2,note_on,64,41,0
2,note_on,64,0,40
2,note_on,76,43,0
2,note_on,68,36,0
2,note_on,68,0,120
2,note_on,76,0,0
2,note_on,61,36,600
2,note_on,69,43,0
2,note_on,54,36,0
2,note_on,50,36,120
2,note_on,50,0,40
2,note_on,57,37,0
2,note_on,61,0,20
2,note_on,54,0,0
2,note_on,69,0,0
2,note_on,57,0,20
2,note_on,66,41,0
2,note_on,66,0,40
2,note_on,78,43,0
2,note_on,69,36,0
2,note_on,69,0,120
2,note_on,78,0,0
2,note_on,44,37,360
2,note_on,52,37,0
2,note_on,59,43,0
2,note_on,59,0,480
2,note_on,52,0,0
2,note_on,44,0,0
2,note_on,56,35,10680
2,note_on,56,0,360
2,note_on,57,42,0
2,note_on,45,35,0
2,note_on,52,35,0
2,note_on,57,0,480
2,note_on,56,37,0
2,note_on,56,0,240
2,note_on,57,44,0
2,note_on,57,0,480
2,note_on,59,40,0
2,note_on,59,0,240
2,note_on,56,44,0
2,note_on,56,0,240
2,note_on,52,0,0
2,note_on,56,36,0
2,note_on,52,30,0
2,note_on,56,0,240
2,note_on,57,39,0
2,note_on,54,33,0
2,note_on,54,0,240
2,note_on,57,0,0
2,note_on,59,43,0
2,note_on,56,36,0
2,note_on,56,0,240
2,note_on,59,0,0
2,note_on,61,45,0
2,note_on,57,38,0
2,note_on,57,0,240
2,note_on,61,0,0
2,note_on,62,48,0
2,note_on,56,40,0
2,note_on,56,0,240
2,note_on,45,0,0
2,note_on,52,0,0
2,note_on,62,0,0
2,note_on,57,42,0
2,note_on,45,35,0
2,note_on,52,35,0
2,note_on,57,0,480
2,note_on,56,37,0
2,note_on,56,0,240
2,note_on,57,44,0
2,note_on,57,0,480
2,note_on,59,40,0
2,note_on,59,0,240
2,note_on,56,44,0
2,note_on,56,0,240
2,note_on,52,0,0
2,note_on,56,36,0
2,note_on,52,30,0
2,note_on,56,0,240
2,note_on,57,39,0
2,note_on,54,33,0
2,note_on,54,0,240
2,note_on,57,0,0
2,note_on,59,43,0
2,note_on,56,36,0
2,note_on,56,0,240
2,note_on,59,0,0
2,note_on,61,45,0
2,note_on,57,38,0
2,note_on,57,0,240
2,note_on,61,0,0
2,note_on,62,48,0
2,note_on,56,40,0
2,note_on,56,0,240
2,note_on,45,0,0
2,note_on,52,0,0
2,note_on,62,0,0
2,note_on,61,43,0
2,note_on,57,36,0
2,note_on,57,0,690
2,note_on,61,0,0
2,note_on,50,34,0
2,note_on,62,34,15
2,note_on,66,40,15
2,note_on,66,0,240
2,note_on,62,0,0
2,note_on,62,37,0
2,note_on,59,31,0
2,note_on,59,0,240
2,note_on,62,0,0
2,note_on,66,37,0
2,note_on,62,31,0
2,note_on,62,0,240
2,note_on,66,0,0
2,note_on,50,0,0
2,note_on,64,42,0
2,note_on,52,42,0
2,note_on,61,35,0
2,note_on,61,0,240
2,note_on,64,0,0
2,note_on,61,39,0
2,note_on,57,33,0
2,note_on,57,0,240
2,note_on,61,0,0
2,note_on,64,39,0
2,note_on,61,33,0
2,note_on,61,0,240
2,note_on,64,0,0
2,note_on,52,0,0
2,note_on,40,37,0
2,note_on,40,0,240
2,note_on,59,40,0
2,note_on,52,34,0
2,note_on,52,0,240
2,note_on,59,0,0
2,note_on,62,37,0
2,note_on,59,31,0
2,note_on,59,0,240
2,note_on,62,0,0
2,note_on,57,43,0
2,note_on,45,36,0
2,note_on,52,36,0
2,note_on,52,0,120
2,note_on,45,0,0
2,note_on,57,0,0
2,note_on,64,43,120
2,note_on,64,0,240
2,note_on,66,45,0
2,note_on,66,0,240
2,note_on,68,47,0
2,note_on,68,0,240
2,note_on,67,49,0
2,note_on,67,0,240
2,note_on,64,51,0
2,note_on,64,0,240
2,note_on,62,53,0
2,note_on,62,0,240
2,note_on,65,53,0
2,note_on,65,0,240
2,note_on,60,54,0
2,note_on,60,0,240
2,note_on,59,50,0
2,note_on,59,0,240
2,note_on,56,46,0
2,note_on,56,0,240
2,note_on,56,37,0
2,note_on,62,41,0
2,note_on,62,0,180
2,note_on,56,0,0
2,note_on,45,35,0
2,note_on,52,35,15
2,note_on,61,42,15
2,note_on,52,0,270
2,note_on,52,37,0
2,note_on,61,0,30
2,note_on,56,32,210
2,note_on,59,37,0
2,note_on,59,0,240
2,note_on,56,0,0
2,note_on,57,36,0
2,note_on,61,44,0
2,note_on,52,0,240
2,note_on,52,40,0
2,note_on,61,0,240
2,note_on,57,0,0
2,note_on,59,36,0
2,note_on,62,40,0
2,note_on,62,0,180
2,note_on,59,0,0
2,note_on,45,0,0
2,note_on,45,35,0
2,note_on,52,35,15
2,note_on,59,44,15
2,note_on,52,0,30
2,note_on,59,0,240
2,note_on,52,0,0
2,note_on,64,45,0
2,note_on,56,36,0
2,note_on,52,30,0
2,note_on,56,0,240
2,note_on,57,39,0
2,note_on,54,33,0
2,note_on,54,0,240
2,note_on,57,0,0
2,note_on,59,43,0
2,note_on,56,36,0
2,note_on,56,0,240
2,note_on,59,0,0
2,note_on,61,45,0
2,note_on,57,38,0
2,note_on,57,0,240
2,note_on,52,0,0
2,note_on,61,0,0
2,note_on,64,0,0
2,note_on,52,37,0
2,note_on,62,41,0
2,note_on,59,37,0
2,note_on,59,0,180
2,note_on,45,0,0
2,note_on,52,0,0
2,note_on,62,0,0
2,note_on,45,35,0
2,note_on,52,35,15
2,note_on,61,42,15
2,note_on,52,0,270
2,note_on,52,37,0
2,note_on,61,0,30
2,note_on,56,32,210
2,note_on,59,37,0
2,note_on,59,0,240
2,note_on,56,0,0
2,note_on,57,36,0
2,note_on,61,44,0
2,note_on,52,0,240
2,note_on,52,40,0
2,note_on,61,0,240
2,note_on,57,0,0
2,note_on,59,36,0
2,note_on,62,40,0
2,note_on,62,0,180
2,note_on,59,0,0
2,note_on,45,0,0
2,note_on,45,35,0
2,note_on,52,35,15
2,note_on,59,44,15
2,note_on,52,0,30
2,note_on,59,0,240
2,note_on,52,0,0
2,note_on,56,36,0
2,note_on,64,45,0
2,note_on,52,30,0
2,note_on,56,0,240
2,note_on,54,33,0
2,note_on,57,39,0
2,note_on,57,0,240
2,note_on,54,0,0
2,note_on,56,36,0
2,note_on,59,43,0
2,note_on,59,0,240
2,note_on,56,0,0
2,note_on,57,38,0
2,note_on,61,45,0
2,note_on,61,0,240
2,note_on,52,0,0
2,note_on,57,0,0
2,note_on,64,0,0
2,note_on,52,37,0
2,note_on,59,37,0
2,note_on,62,41,0
2,note_on,62,0,210
2,note_on,45,0,0
2,note_on,52,0,0
2,note_on,59,0,0
2,note_on,61,42,30
2,note_on,45,42,0
2,note_on,61,0,240
2,note_on,61,32,0
2,note_on,64,37,0
2,note_on,64,0,240
2,note_on,61,0,0
2,note_on,57,32,0
2,note_on,61,37,0
2,note_on,61,0,180
2,note_on,57,0,0
2,note_on,50,42,0
2,note_on,62,36,15
2,note_on,66,44,15
2,note_on,45,0,30
2,note_on,66,0,240
2,note_on,62,0,0
2,note_on,59,32,0
2,note_on,62,37,0
2,note_on,62,0,240
2,note_on,59,0,0
2,note_on,62,36,0
2,note_on,66,40,0
2,note_on,66,0,210
2,note_on,62,0,0
2,note_on,50,0,30
2,note_on,61,35,0
2,note_on,64,42,0
2,note_on,52,42,0
2,note_on,64,0,240
2,note_on,61,0,0
2,note_on,57,32,0
2,note_on,61,37,0
2,note_on,61,0,240
2,note_on,57,0,0
2,note_on,61,32,0
2,note_on,64,37,0
2,note_on,64,0,180
2,note_on,61,0,0
2,note_on,40,42,0
2,note_on,40,0,60
2,note_on,52,0,0
2,note_on,59,36,0
2,note_on,62,44,0
2,note_on,62,0,240
2,note_on,59,0,0
2,note_on,52,32,0
2,note_on,59,37,0
2,note_on,59,0,240
2,note_on,52,0,0
2,note_on,59,36,0
2,note_on,62,40,0
2,note_on,62,0,170
2,note_on,59,0,0
2,note_on,45,32,0
2,note_on,52,35,10
2,note_on,57,37,10
2,note_on,61,40,10
2,note_on,57,0,140
2,note_on,45,0,20
2,note_on,52,0,0
2,note_on,61,0,0
2,note_on,69,44,600
2,note_on,57,36,0
2,note_on,67,36,0
2,note_on,67,0,60
2,note_on,57,0,0
2,note_on,69,0,0
2,note_on,69,37,420
2,note_on,57,31,0
2,note_on,67,31,0
2,note_on,67,0,60
2,note_on,57,0,0
2,note_on,69,0,0
2,note_on,62,40,180
2,note_on,66,40,0
2,note_on,69,40,0
2,note_on,69,0,60
2,note_on,66,0,0
2,note_on,62,0,0
2,note_on,69,41,420
2,note_on,62,35,0
2,note_on,66,35,0
2,note_on,66,0,45
2,note_on,62,0,0
2,note_on,69,0,0
2,note_on,69,44,195
2,note_on,57,36,0
2,note_on,67,36,0
2,note_on,67,0,60
2,note_on,57,0,0
2,note_on,69,0,0
2,note_on,69,37,420
2,note_on,57,31,0
2,note_on,67,31,0
2,note_on,67,0,60
2,note_on,57,0,0
2,note_on,69,0,0
2,note_on,62,40,180
2,note_on,66,40,0
2,note_on,69,40,0
2,note_on,69,0,120
2,note_on,66,0,0
2,note_on,62,0,0
2,note_on,52,40,1560
2,note_on,61,40,0
2,note_on,64,40,0
2,note_on,64,0,60
2,note_on,61,0,0
2,note_on,52,0,0
2,note_on,64,41,420
2,note_on,52,35,0
2,note_on,61,35,0
2,note_on,61,0,45
2,note_on,52,0,0
2,note_on,64,0,0
2,note_on,64,44,195
2,note_on,52,36,0
2,note_on,62,36,0
2,note_on,62,0,60
2,note_on,52,0,0
2,note_on,64,0,0
2,note_on,64,37,420
2,note_on,52,31,0
2,note_on,62,31,0
2,note_on,62,0,60
2,note_on,52,0,0
2,note_on,64,0,0
2,note_on,57,40,180
2,note_on,61,40,0
2,note_on,64,40,0
2,note_on,64,0,60
2,note_on,61,0,0
2,note_on,57,0,0
2,note_on,57,44,900
2,note_on,45,36,0
2,note_on,55,36,0
2,note_on,55,0,60
2,note_on,45,0,0
2,note_on,57,0,0
2,note_on,57,37,420
2,note_on,45,31,0
2,note_on,55,31,0
2,note_on,55,0,60
2,note_on,45,0,0
2,note_on,57,0,0
2,note_on,50,40,180
2,note_on,54,40,0
2,note_on,57,40,0
2,note_on,57,0,60
2,note_on,54,0,0
2,note_on,50,0,0
2,note_on,57,41,420
2,note_on,50,35,0
2,note_on,54,35,0
2,note_on,54,0,45
2,note_on,50,0,0
2,note_on,57,0,0
2,note_on,57,44,195
2,note_on,45,36,0
2,note_on,55,36,0
2,note_on,55,0,60
2,note_on,45,0,0
2,note_on,57,0,0
2,note_on,57,37,420
2,note_on,45,31,0
2,note_on,55,31,0
2,note_on,55,0,60
2,note_on,45,0,0
2,note_on,57,0,0
2,note_on,50,40,180
2,note_on,54,40,0
2,note_on,57,40,0
2,note_on,57,0,60
2,note_on,54,0,0
2,note_on,50,0,0
2,note_on,40,40,1620
2,note_on,49,40,0
2,note_on,52,40,0
2,note_on,52,0,60
2,note_on,49,0,0
2,note_on,40,0,0
2,note_on,52,41,420
2,note_on,40,35,0
2,note_on,49,35,0
2,note_on,49,0,45
2,note_on,40,0,0
2,note_on,52,0,0
2,note_on,52,44,195
2,note_on,40,36,0
2,note_on,50,36,0
2,note_on,50,0,60
2,note_on,40,0,0
2,note_on,52,0,0
2,note_on,52,37,420
2,note_on,40,31,0
2,note_on,50,31,0
2,note_on,50,0,60
2,note_on,40,0,0
2,note_on,52,0,0
2,note_on,45,40,180
2,note_on,49,40,0
2,note_on,52,40,0
2,note_on,52,0,60
2,note_on,49,0,0
2,note_on,45,0,0
2,note_on,40,44,1620
2,note_on,49,44,0
2,note_on,52,44,0
2,note_on,52,0,60
2,note_on,49,0,0
2,note_on,40,0,0
2,note_on,52,45,420
2,note_on,40,37,0
2,note_on,49,37,0
2,note_on,49,0,45
2,note_on,40,0,0
2,note_on,52,0,0
2,note_on,50,40,195
2,note_on,52,47,0
2,note_on,40,40,0
2,note_on,47,40,0
2,note_on,47,0,60
2,note_on,50,0,0
2,note_on,52,0,0
2,note_on,40,0,0
2,note_on,50,34,420
2,note_on,52,41,0
2,note_on,40,34,0
2,note_on,47,34,0
2,note_on,47,0,60
2,note_on,50,0,0
2,note_on,52,0,0
2,note_on,40,0,0
2,note_on,52,44,180
2,note_on,45,44,0
2,note_on,49,44,0
2,note_on,57,44,0
2,note_on,57,0,60
2,note_on,52,0,0
2,note_on,45,0,0
2,note_on,49,0,0
2,note_on,40,54,1620
2,note_on,49,54,0
2,note_on,52,54,0
2,note_on,52,0,60
2,note_on,49,0,0
2,note_on,40,0,0
2,note_on,52,54,420
2,note_on,40,46,0
2,note_on,49,46,0
2,note_on,49,0,45
2,note_on,40,0,0
2,note_on,52,0,0
2,note_on,50,49,195
2,note_on,52,59,0
2,note_on,40,49,0
2,note_on,47,49,0
2,note_on,47,0,60
2,note_on,50,0,0
2,note_on,52,0,0
2,note_on,40,0,0
2,note_on,50,42,420
2,note_on,52,50,0
2,note_on,40,42,0
2,note_on,47,42,0
2,note_on,47,0,60
2,note_on,50,0,0
2,note_on,52,0,0
2,note_on,40,0,0
2,note_on,52,54,180
2,note_on,45,54,0
2,note_on,49,54,0
2,note_on,57,54,0
2,note_on,57,0,60
2,note_on,52,0,0
2,note_on,45,0,0
2,note_on,49,0,0
2,note_on,66,42,480
2,note_on,66,0,60
2,note_on,64,44,0
2,note_on,64,0,60
2,note_on,62,45,0
2,note_on,62,0,60
2,note_on,61,45,0
2,note_on,61,0,60
2,note_on,59,47,0
2,note_on,59,0,60
2,note_on,57,48,0
2,note_on,57,0,60
2,note_on,56,49,0
2,note_on,56,0,60
2,note_on,54,51,0
2,note_on,54,0,60
2,note_on,52,52,0
2,note_on,52,0,60
2,note_on,50,53,0
2,note_on,50,0,60
2,note_on,49,54,0
2,note_on,49,0,60
2,note_on,47,55,0
2,note_on,47,0,60
2,note_on,45,56,0
2,note_on,45,0,60
2,note_on,44,58,0
2,note_on,44,0,60
2,note_on,42,59,0
2,note_on,42,0,60
2,note_on,52,63,0
2,note_on,40,53,0
2,note_on,49,53,0
2,note_on,49,0,120
2,note_on,40,0,0
2,note_on,52,0,0
2,note_on,40,58,116
2,note_on,49,58,4
2,note_on,52,69,0
2,note_on,45,58,0
2,note_on,40,0,116
2,note_on,49,0,4
2,note_on,52,0,0
2,note_on,45,0,0
2,note_on,52,66,240
2,note_on,40,56,0
2,note_on,47,56,0
2,note_on,50,56,0
2,note_on,50,0,60
2,note_on,52,0,0
2,note_on,40,0,0
2,note_on,47,0,0
2,note_on,52,66,60
2,note_on,40,56,0
2,note_on,45,56,0
2,note_on,49,56,0
2,note_on,45,0,60
2,note_on,52,0,30
2,note_on,40,0,0
2,note_on,49,0,0
2,note_on,40,60,146
2,note_on,52,71,4
2,note_on,47,60,0
2,note_on,44,60,0
2,note_on,40,0,116
2,note_on,52,0,4
2,note_on,47,0,0
2,note_on,44,0,0
2,note_on,52,63,240
2,note_on,40,52,0
2,note_on,42,52,0
2,note_on,45,52,0
2,note_on,45,0,60
2,note_on,52,0,0
2,note_on,40,0,0
2,note_on,42,0,0
2,note_on,40,52,56
2,note_on,52,63,4
2,note_on,47,52,0
2,note_on,44,52,0
2,note_on,40,0,116
2,note_on,52,0,4
2,note_on,47,0,0
2,note_on,44,0,0
2,note_on,45,66,120
2,note_on,40,56,0
2,note_on,37,56,0
2,note_on,33,56,0
2,note_on,45,0,470
2,note_on,40,0,10
2,note_on,37,0,0
2,note_on,33,0,0
2,note_on,64,36,240
2,note_on,52,30,0
2,note_on,52,0,60
2,note_on,64,0,0
2,note_on,64,32,300
2,note_on,52,27,0
2,note_on,52,0,30
2,note_on,64,0,0
2,note_on,64,32,90
2,note_on,52,27,0
2,note_on,52,0,60
2,note_on,64,0,0
2,note_on,64,36,180
2,note_on,57,30,0
2,note_on,57,0,60
2,note_on,64,0,0
2,note_on,64,35,300
2,note_on,57,29,0
2,note_on,57,0,30
2,note_on,64,0,0
2,note_on,64,35,90
2,note_on,57,29,0
2,note_on,57,0,60
2,note_on,64,0,0
2,note_on,64,36,180
2,note_on,52,30,0
2,note_on,62,30,0
2,note_on,62,0,60
2,note_on,52,0,0
2,note_on,64,0,0
2,note_on,64,34,300
2,note_on,52,28,0
2,note_on,62,28,0
2,note_on,62,0,30
2,note_on,52,0,0
2,note_on,64,0,0
2,note_on,64,34,90
2,note_on,52,28,0
2,note_on,62,28,0
2,note_on,62,0,60
2,note_on,52,0,0
2,note_on,64,0,0
2,note_on,61,36,180
2,note_on,57,30,0
2,note_on,57,0,240
2,note_on,61,0,0
2,note_on,40,60,480
2,note_on,52,71,0
2,note_on,47,60,0
2,note_on,44,60,0
2,note_on,44,0,360
2,note_on,40,0,0
2,note_on,52,0,0
2,note_on,47,0,0
2,note_on,52,63,0
2,note_on,40,52,0
2,note_on,42,52,0
2,note_on,45,52,0
2,note_on,40,52,116
2,note_on,45,0,4
2,note_on,42,0,0
2,note_on,52,0,0
2,note_on,40,0,0
2,note_on,52,63,0
2,note_on,47,52,0
2,note_on,44,52,0
2,note_on,40,0,236
2,note_on,52,0,4
2,note_on,47,0,0
2,note_on,44,0,0
2,note_on,45,52,0
2,note_on,49,52,0
2,note_on,52,58,0
2,note_on,52,0,360
2,note_on,49,0,0
2,note_on,45,0,0
2,note_on,52,66,0
2,note_on,47,56,0
2,note_on,50,56,0
2,note_on,50,0,120
2,note_on,47,0,0
2,note_on,52,0,0
2,note_on,52,66,0
2,note_on,45,56,0
2,note_on,49,56,0
2,note_on,40,60,236
2,note_on,49,0,4
2,note_on,52,0,0
2,note_on,45,0,0
2,note_on,52,71,0
2,note_on,47,60,0
2,note_on,44,60,0
2,note_on,40,0,356
2,note_on,52,0,4
2,note_on,47,0,0
2,note_on,44,0,0
2,note_on,52,63,0
2,note_on,40,52,0
2,note_on,42,52,0
2,note_on,45,52,0
2,note_on,40,52,116
2,note_on,45,0,4
2,note_on,42,0,0
2,note_on,52,0,0
2,note_on,40,0,0
2,note_on,52,63,0
2,note_on,47,52,0
2,note_on,44,52,0
2,note_on,40,0,236
2,note_on,52,0,4
2,note_on,47,0,0
2,note_on,44,0,0
2,note_on,45,66,0
2,note_on,40,56,0
2,note_on,37,56,0
2,note_on,33,56,0
2,note_on,45,0,470
2,note_on,40,0,10
2,note_on,37,0,0
2,note_on,33,0,0
2,note_on,52,45,240
2,note_on,52,0,210
2,note_on,45,36,0
2,note_on,49,36,15
2,note_on,57,49,15
2,note_on,57,0,80
2,note_on,59,42,0
2,note_on,59,0,80
2,note_on,57,42,0
2,note_on,57,0,80
2,note_on,49,0,0
2,note_on,45,0,0
2,note_on,56,47,0
2,note_on,56,0,80
2,note_on,57,43,0
2,note_on,57,0,80
2,note_on,59,43,0
2,note_on,59,0,50
2,note_on,45,36,0
2,note_on,52,36,15
2,note_on,61,49,15
2,note_on,61,0,80
2,note_on,60,45,0
2,note_on,52,0,40
2,note_on,45,0,0
2,note_on,60,0,40
2,note_on,62,45,0
2,note_on,62,0,80
2,note_on,61,49,0
2,note_on,61,0,80
2,note_on,59,45,0
2,note_on,59,0,80
2,note_on,57,45,0
2,note_on,57,0,80
2,note_on,50,36,0
2,note_on,54,49,0
2,note_on,54,0,80
2,note_on,56,43,0
2,note_on,50,0,40
2,note_on,56,0,40
2,note_on,54,43,0
2,note_on,54,0,80
2,note_on,53,45,0
2,note_on,53,0,80
2,note_on,54,43,0
2,note_on,54,0,80
2,note_on,58,43,0
2,note_on,58,0,80
2,note_on,51,36,0
2,note_on,59,48,0
2,note_on,59,0,80
2,note_on,61,42,0
2,note_on,51,0,40
2,note_on,61,0,40
2,note_on,59,42,0
2,note_on,59,0,80
2,note_on,58,45,0
2,note_on,58,0,80
2,note_on,59,43,0
2,note_on,59,0,80
2,note_on,57,43,0
2,note_on,57,0,80
2,note_on,52,36,0
2,note_on,56,54,0
2,note_on,56,0,80
2,note_on,66,45,0
2,note_on,52,0,40
2,note_on,66,0,40
2,note_on,64,45,0
2,note_on,64,0,80
2,note_on,63,50,0
2,note_on,63,0,80
2,note_on,64,45,0
2,note_on,64,0,80
2,note_on,56,45,0
2,note_on,56,0,80
2,note_on,47,36,0
2,note_on,51,36,0
2,note_on,57,48,0
2,note_on,57,0,80
2,note_on,60,44,0
2,note_on,51,0,40
2,note_on,47,0,0
2,note_on,60,0,40
2,note_on,59,44,0
2,note_on,59,0,80
2,note_on,58,48,0
2,note_on,58,0,80
2,note_on,59,44,0
2,note_on,59,0,80
2,note_on,51,44,0
2,note_on,51,0,80
2,note_on,40,36,0
2,note_on,52,49,0
2,note_on,52,0,80
2,note_on,56,45,0
2,note_on,40,0,40
2,note_on,56,0,40
2,note_on,59,45,0
2,note_on,59,0,80
2,note_on,52,41,0
2,note_on,56,41,0
2,note_on,64,49,0
2,note_on,64,0,240
2,note_on,56,0,0
2,note_on,52,0,0
2,note_on,60,45,0
2,note_on,53,38,0
2,note_on,53,0,80
2,note_on,54,42,0
2,note_on,54,0,80
2,note_on,60,0,0
2,note_on,59,37,0
2,note_on,55,30,0
2,note_on,55,0,80
2,note_on,56,39,0
2,note_on,56,0,80
2,note_on,59,0,0
2,note_on,62,38,0
2,note_on,52,32,0
2,note_on,62,0,80
2,note_on,64,39,0
2,note_on,64,0,80
2,note_on,52,0,0
2,note_on,45,36,0
2,note_on,49,36,0
2,note_on,57,49,0
2,note_on,57,0,80
2,note_on,59,42,0
2,note_on,59,0,80
2,note_on,57,42,0
2,note_on,57,0,80
2,note_on,49,0,0
2,note_on,45,0,0
2,note_on,56,47,0
2,note_on,56,0,80
2,note_on,57,43,0
2,note_on,57,0,80
2,note_on,59,43,0
2,note_on,59,0,50
2,note_on,45,36,0
2,note_on,52,36,15
2,note_on,61,49,15
2,note_on,61,0,80
2,note_on,60,45,0
2,note_on,52,0,40
2,note_on,45,0,0
2,note_on,60,0,40
2,note_on,62,45,0
2,note_on,62,0,80
2,note_on,61,49,0
2,note_on,61,0,80
2,note_on,59,45,0
2,note_on,59,0,80
2,note_on,57,45,0
2,note_on,57,0,80
2,note_on,50,36,0
2,note_on,54,49,0
2,note_on,54,0,80
2,note_on,56,43,0
2,note_on,50,0,40
2,note_on,56,0,40
2,note_on,54,43,0
2,note_on,54,0,80
2,note_on,53,45,0
2,note_on,53,0,80
2,note_on,54,43,0
2,note_on,54,0,80
2,note_on,58,43,0
2,note_on,58,0,80
2,note_on,50,36,0
2,note_on,59,48,0
2,note_on,59,0,80
2,note_on,61,42,0
2,note_on,50,0,40
2,note_on,61,0,40
2,note_on,59,42,0
2,note_on,59,0,80
2,note_on,58,45,0
2,note_on,58,0,80
2,note_on,59,43,0
2,note_on,59,0,80
2,note_on,57,43,0
2,note_on,57,0,50
2,note_on,40,36,0
2,note_on,57,54,30
2,note_on,57,0,70
2,note_on,56,45,10
2,note_on,40,0,40
2,note_on,56,0,40
2,note_on,54,45,0
2,note_on,54,0,80
2,note_on,54,50,0
2,note_on,54,0,80
2,note_on,52,45,0
2,note_on,52,0,80
2,note_on,51,45,0
2,note_on,51,0,70
2,note_on,40,36,10
2,note_on,51,48,0
2,note_on,51,0,80
2,note_on,52,44,0
2,note_on,40,0,40
2,note_on,52,0,40
2,note_on,53,44,0
2,note_on,53,0,80
2,note_on,54,48,0
2,note_on,54,0,80
2,note_on,55,44,0
2,note_on,55,0,80
2,note_on,56,44,0
2,note_on,56,0,80
2,note_on,45,40,0
2,note_on,52,40,0
2,note_on,57,40,0
2,note_on,57,0,80
2,note_on,52,0,0
2,note_on,45,0,0
2,note_on,64,50,0
2,note_on,61,50,0
2,note_on,61,0,60
2,note_on,64,0,0
2,note_on,64,49,20
2,note_on,61,49,0
2,note_on,61,0,60
2,note_on,64,0,0
2,note_on,61,49,20
2,note_on,64,49,0
2,note_on,64,0,60
2,note_on,61,0,0
2,note_on,60,48,20
2,note_on,66,48,0
2,note_on,66,0,60
2,note_on,60,0,0
2,note_on,60,47,20
2,note_on,66,47,0
2,note_on,66,0,60
2,note_on,60,0,0
2,note_on,60,46,20
2,note_on,66,46,0
2,note_on,66,0,60
2,note_on,60,0,0
2,note_on,59,45,20
2,note_on,65,45,0
2,note_on,65,0,60
2,note_on,59,0,0
2,note_on,59,45,20
2,note_on,65,45,0
2,note_on,65,0,60
2,note_on,59,0,0
2,note_on,59,45,20
2,note_on,65,45,0
2,note_on,65,0,60
2,note_on,59,0,0
2,note_on,52,44,20
2,note_on,62,44,0
2,note_on,62,0,30
2,note_on,52,0,0
2,note_on,52,43,50
2,note_on,64,43,0
2,note_on,64,0,30
2,note_on,52,0,0
2,note_on,57,36,50
2,note_on,45,30,0
2,note_on,52,30,0
2,note_on,52,0,120
2,note_on,45,0,0
2,note_on,57,0,0
2,note_on,64,35,120
2,note_on,61,29,0
2,note_on,61,0,120
2,note_on,64,0,0
2,note_on,45,36,120
2,note_on,45,0,120
2,note_on,61,33,120
2,note_on,57,27,0
2,note_on,52,27,0
2,note_on,52,0,120
2,note_on,57,0,0
2,note_on,61,0,0
2,note_on,38,41,120
2,note_on,38,0,120
2,note_on,50,34,75
2,note_on,57,36,15
2,note_on,59,37,15
2,note_on,66,39,15
2,note_on,66,0,480
2,note_on,50,0,0
2,note_on,57,0,0
2,note_on,59,0,0
2,note_on,66,45,0
2,note_on,59,39,0
2,note_on,51,39,0
2,note_on,51,0,240
2,note_on,59,0,0
2,note_on,66,0,0
2,note_on,52,43,0
2,note_on,59,43,0
2,note_on,68,48,0
2,note_on,68,0,240
2,note_on,59,0,0
2,note_on,52,0,0
2,note_on,56,36,0
2,note_on,59,36,0
2,note_on,59,0,120
2,note_on,56,0,0
2,note_on,47,36,120
2,note_on,47,0,120
2,note_on,63,39,120
2,note_on,66,39,0
2,note_on,71,52,0
2,note_on,40,36,210
2,note_on,44,36,15
2,note_on,71,0,15
2,note_on,63,0,0
2,note_on,66,0,0
2,note_on,52,57,0
2,note_on,52,0,80
2,note_on,56,45,0
2,note_on,56,0,80
2,note_on,59,45,0
2,note_on,59,0,80
2,note_on,40,0,0
2,note_on,44,0,0
2,note_on,52,36,0
2,note_on,56,36,0
2,note_on,64,49,0
2,note_on,64,0,240
2,note_on,56,0,0
2,note_on,52,0,0
2,note_on,60,45,0
2,note_on,53,38,0
2,note_on,53,0,80
2,note_on,54,42,0
2,note_on,54,0,80
2,note_on,60,0,0
2,note_on,59,37,0
2,note_on,55,30,0
2,note_on,55,0,80
2,note_on,56,39,0
2,note_on,56,0,80
2,note_on,59,0,0
2,note_on,62,38,0
2,note_on,52,32,0
2,note_on,52,0,80
2,note_on,62,0,0
2,note_on,52,32,0
2,note_on,64,39,0
2,note_on,64,0,80
2,note_on,52,0,0
2,note_on,57,36,0
2,note_on,45,30,0
2,note_on,52,30,0
2,note_on,52,0,120
2,note_on,45,0,0
2,note_on,57,0,0
2,note_on,64,35,120
2,note_on,61,29,0
2,note_on,61,0,120
2,note_on,64,0,0
2,note_on,45,36,120
2,note_on,45,0,120
2,note_on,61,33,120
2,note_on,57,27,0
2,note_on,52,27,0
2,note_on,52,0,120
2,note_on,57,0,0
2,note_on,61,0,0
2,note_on,38,41,120
2,note_on,38,0,120
2,note_on,50,34,90
2,note_on,59,37,15
2,note_on,66,39,15
2,note_on,66,0,450
2,note_on,59,0,0
2,note_on,50,0,0
2,note_on,50,39,0
2,note_on,59,39,15
2,note_on,66,45,15
2,note_on,66,0,240
2,note_on,59,0,0
2,note_on,50,0,0
2,note_on,40,47,0
2,note_on,40,0,120
2,note_on,52,34,75
2,note_on,59,36,15
2,note_on,62,37,15
2,note_on,68,39,15
2,note_on,68,0,120
2,note_on,52,0,0
2,note_on,59,0,0
2,note_on,62,0,0
2,note_on,40,45,120
2,note_on,40,0,120
2,note_on,52,34,75
2,note_on,59,36,15
2,note_on,62,37,15
2,note_on,64,39,15
2,note_on,64,0,120
2,note_on,52,0,0
2,note_on,59,0,0
2,note_on,62,0,0
2,note_on,49,40,90
2,note_on,57,40,15
2,note_on,64,47,15
2,note_on,64,0,120
2,note_on,73,46,0
2,note_on,64,39,0
2,note_on,69,39,0
2,note_on,69,0,120
2,note_on,73,0,0
2,note_on,49,0,0
2,note_on,57,0,0
2,note_on,64,0,0
2,note_on,76,54,0
2,note_on,61,45,0
2,note_on,69,45,0
2,note_on,69,0,240
2,note_on,61,0,0
2,note_on,76,0,0
2,note_on,56,47,0
2,note_on,44,40,0
2,note_on,52,40,0
2,note_on,76,58,120
2,note_on,64,49,0
2,note_on,71,49,0
2,note_on,52,0,120
2,note_on,56,0,0
2,note_on,44,0,0
2,note_on,76,0,120
2,note_on,64,0,0
2,note_on,71,0,0
2,note_on,71,47,0
2,note_on,59,40,0
2,note_on,68,40,0
2,note_on,68,0,120
2,note_on,59,0,0
2,note_on,71,0,0
2,note_on,57,54,0
2,note_on,45,45,0
2,note_on,52,45,0
2,note_on,72,45,160
2,note_on,64,41,0
2,note_on,64,0,80
2,note_on,52,0,0
2,note_on,57,0,0
2,note_on,45,0,0
2,note_on,72,0,0
2,note_on,71,45,0
2,note_on,63,41,0
2,note_on,63,0,80
2,note_on,71,0,0
2,note_on,70,45,0
2,note_on,62,40,0
2,note_on,62,0,80
2,note_on,70,0,0
2,note_on,69,45,0
2,note_on,61,40,0
2,note_on,52,45,50
2,note_on,61,36,15
2,note_on,61,0,15
2,note_on,69,0,0
2,note_on,69,41,0
2,note_on,69,0,80
2,note_on,61,0,0
2,note_on,60,36,0
2,note_on,68,41,0
2,note_on,68,0,80
2,note_on,60,0,0
2,note_on,61,36,0
2,note_on,69,40,0
2,note_on,69,0,80
2,note_on,61,0,0
2,note_on,64,31,0
2,note_on,73,38,0
2,note_on,73,0,80
2,note_on,64,0,0
2,note_on,68,32,0
2,note_on,63,30,0
2,note_on,72,36,0
2,note_on,72,0,80
2,note_on,63,0,0
2,note_on,62,32,0
2,note_on,71,36,0
2,note_on,71,0,55
2,note_on,62,0,0
2,note_on,57,36,0
2,note_on,64,36,5
2,note_on,69,36,5
2,note_on,68,0,15
2,note_on,52,0,0
2,note_on,64,0,120
2,note_on,57,0,0
2,note_on,69,0,0
2,note_on,45,38,90
2,note_on,52,38,15
2,note_on,61,38,15
2,note_on,61,0,120
2,note_on,52,0,0
2,note_on,45,0,0
2,note_on,45,38,120
2,note_on,49,38,0
2,note_on,57,38,0
2,note_on,57,0,120
2,note_on,49,0,0
2,note_on,45,0,0
2,note_on,40,54,360
2,note_on,40,0,120
2,note_on,71,54,120
2,note_on,68,45,0
2,note_on,68,0,120
2,note_on,71,0,0
2,note_on,68,45,0
2,note_on,64,38,0
2,note_on,64,0,120
2,note_on,68,0,0
2,note_on,52,51,0
2,note_on,52,0,120
2,note_on,76,54,120
2,note_on,73,45,0
2,note_on,73,0,120
2,note_on,76,0,0
2,note_on,73,47,0
2,note_on,69,40,0
2,note_on,69,0,120
2,note_on,73,0,0
2,note_on,40,53,0
2,note_on,40,0,120
2,note_on,71,54,120
2,note_on,68,45,0
2,note_on,68,0,160
2,note_on,71,0,0
2,note_on,64,47,0
2,note_on,64,0,80
2,note_on,68,53,0
2,note_on,68,0,80
2,note_on,51,54,400
2,note_on,71,49,120
2,note_on,59,41,0
2,note_on,66,41,0
2,note_on,66,0,90
2,note_on,59,0,0
2,note_on,71,0,0
2,note_on,71,49,30
2,note_on,59,41,0
2,note_on,66,41,0
2,note_on,66,0,90
2,note_on,59,0,0
2,note_on,71,0,0
2,note_on,71,49,30
2,note_on,59,41,0
2,note_on,66,41,0
2,note_on,66,0,90
2,note_on,59,0,0
2,note_on,71,0,0
2,note_on,70,52,30
2,note_on,59,44,0
2,note_on,66,44,0
2,note_on,66,0,120
2,note_on,59,0,0
2,note_on,70,0,0
2,note_on,71,51,0
2,note_on,59,43,0
2,note_on,66,43,0
2,note_on,66,0,90
2,note_on,59,0,0
2,note_on,71,0,0
2,note_on,69,54,30
2,note_on,59,45,0
2,note_on,66,45,0
2,note_on,66,0,120
2,note_on,59,0,0
2,note_on,69,0,0
2,note_on,71,51,0
2,note_on,59,43,0
2,note_on,66,43,0
2,note_on,66,0,90
2,note_on,59,0,0
2,note_on,71,0,0
2,note_on,52,43,0
2,note_on,59,45,15
2,note_on,51,0,15
2,note_on,68,54,0
2,note_on,68,0,240
2,note_on,59,0,0
2,note_on,52,0,0
2,note_on,71,54,0
2,note_on,64,45,0
2,note_on,68,45,0
2,note_on,68,0,120
2,note_on,64,0,0
2,note_on,71,0,0
2,note_on,80,54,120
2,note_on,76,45,0
2,note_on,76,0,120
2,note_on,80,0,0
2,note_on,40,54,360
2,note_on,40,0,120
2,note_on,71,54,120
2,note_on,68,45,0
2,note_on,68,0,120
2,note_on,71,0,0
2,note_on,68,45,0
2,note_on,64,38,0
2,note_on,64,0,120
2,note_on,68,0,0
2,note_on,52,51,0
2,note_on,52,0,120
2,note_on,76,54,120
2,note_on,73,45,0
2,note_on,73,0,120
2,note_on,76,0,0
2,note_on,73,47,0
2,note_on,69,40,0
2,note_on,69,0,120
2,note_on,73,0,0
2,note_on,40,53,0
2,note_on,40,0,120
2,note_on,71,54,120
2,note_on,68,45,0
2,note_on,68,0,160
2,note_on,71,0,0
2,note_on,64,47,0
2,note_on,64,0,80
2,note_on,68,53,0
2,note_on,68,0,80
2,note_on,51,54,400
2,note_on,71,49,120
2,note_on,59,41,0
2,note_on,66,41,0
2,note_on,66,0,90
2,note_on,59,0,0
2,note_on,71,0,0
2,note_on,71,49,30
2,note_on,59,41,0
2,note_on,66,41,0
2,note_on,66,0,90
2,note_on,59,0,0
2,note_on,71,0,0
2,note_on,71,49,30
2,note_on,59,41,0
2,note_on,66,41,0
2,note_on,66,0,90
2,note_on,59,0,0
2,note_on,71,0,0
2,note_on,70,52,30
2,note_on,59,44,0
2,note_on,66,44,0
2,note_on,66,0,120
2,note_on,59,0,0
2,note_on,70,0,0
2,note_on,71,51,0
2,note_on,59,43,0
2,note_on,66,43,0
2,note_on,66,0,90
2,note_on,59,0,0
2,note_on,71,0,30
2,note_on,69,54,0
2,note_on,59,45,0
2,note_on,66,45,0
2,note_on,66,0,120
2,note_on,59,0,0
2,note_on,69,0,0
2,note_on,71,51,0
2,note_on,59,43,0
2,note_on,66,43,0
2,note_on,66,0,90
2,note_on,59,0,0
2,note_on,71,0,30
2,note_on,51,0,0
2,note_on,52,48,0
2,note_on,71,45,120
2,note_on,59,37,0
2,note_on,68,37,0
2,note_on,68,0,90
2,note_on,59,0,0
2,note_on,71,0,0
2,note_on,71,46,30
2,note_on,59,39,0
2,note_on,68,39,0
2,note_on,68,0,90
2,note_on,59,0,0
2,note_on,71,0,0
2,note_on,71,48,30
2,note_on,59,40,0
2,note_on,68,40,0
2,note_on,68,0,90
2,note_on,59,0,0
2,note_on,71,0,0
2,note_on,52,0,30
2,note_on,51,54,0
2,note_on,70,49,120
2,note_on,59,41,0
2,note_on,66,41,0
2,note_on,66,0,90
2,note_on,59,0,0
2,note_on,70,0,0
2,note_on,71,51,30
2,note_on,59,42,0
2,note_on,66,42,0
2,note_on,66,0,120
2,note_on,59,0,0
2,note_on,71,0,0
2,note_on,69,45,0
2,note_on,59,38,0
2,note_on,66,38,0
2,note_on,66,0,90
2,note_on,59,0,0
2,note_on,69,0,30
2,note_on,51,0,0
2,note_on,52,48,0
2,note_on,71,45,120
2,note_on,59,37,0
2,note_on,68,37,0
2,note_on,68,0,90
2,note_on,59,0,0
2,note_on,71,0,0
2,note_on,71,46,30
2,note_on,59,39,0
2,note_on,68,39,0
2,note_on,68,0,90
2,note_on,59,0,0
2,note_on,71,0,0
2,note_on,71,48,30
2,note_on,59,40,0
2,note_on,68,40,0
2,note_on,68,0,90
2,note_on,59,0,0
2,note_on,71,0,0
2,note_on,52,0,30
2,note_on,51,54,0
2,note_on,70,49,120
2,note_on,59,41,0
2,note_on,66,41,0
2,note_on,66,0,90
2,note_on,59,0,0
2,note_on,70,0,0
2,note_on,71,51,30
2,note_on,59,42,0
2,note_on,66,42,0
2,note_on,66,0,120
2,note_on,59,0,0
2,note_on,71,0,0
2,note_on,69,45,0
2,note_on,59,38,0
2,note_on,66,38,0
2,note_on,66,0,75
2,note_on,59,0,0
2,note_on,69,0,0
2,note_on,52,48,0
2,note_on,59,48,15
2,note_on,64,48,15
2,note_on,51,0,15
2,note_on,68,52,0
2,note_on,68,0,120
2,note_on,64,0,0
2,note_on,59,0,0
2,note_on,52,0,0
2,note_on,47,48,120
2,note_on,40,48,5
2,note_on,47,0,115
2,note_on,40,0,5
2,note_on,59,47,115
2,note_on,68,49,0
2,note_on,71,54,0
2,note_on,40,43,238
2,note_on,47,49,1
2,note_on,71,0,1
2,note_on,59,0,0
2,note_on,68,0,0
2,note_on,40,0,238
2,note_on,47,0,1
2,note_on,64,49,1
2,note_on,71,49,0
2,note_on,74,54,0
2,note_on,74,0,240
2,note_on,71,0,0
2,note_on,64,0,0
2,note_on,62,49,80
2,note_on,66,56,0
2,note_on,66,0,80
2,note_on,62,0,0
2,note_on,61,47,0
2,note_on,64,54,0
2,note_on,64,0,80
2,note_on,61,0,0
2,note_on,63,53,0
2,note_on,60,45,0
2,note_on,60,0,80
2,note_on,63,0,0
2,note_on,62,51,0
2,note_on,59,44,0
2,note_on,59,0,80
2,note_on,62,0,0
2,note_on,71,48,320
2,note_on,74,55,0
2,note_on,74,0,80
2,note_on,71,0,0
2,note_on,70,46,0
2,note_on,73,54,0
2,note_on,73,0,80
2,note_on,70,0,0
2,note_on,69,45,0
2,note_on,72,52,0
2,note_on,72,0,80
2,note_on,69,0,0
2,note_on,68,42,0
2,note_on,71,49,0
2,note_on,71,0,80
2,note_on,68,0,0
2,note_on,83,59,320
2,note_on,80,52,0
2,note_on,80,0,80
2,note_on,83,0,0
2,note_on,82,57,0
2,note_on,79,50,0
2,note_on,79,0,80
2,note_on,82,0,0
2,note_on,81,55,0
2,note_on,78,48,0
2,note_on,78,0,80
2,note_on,81,0,0
2,note_on,80,54,0
2,note_on,76,46,0
2,note_on,76,0,80
2,note_on,80,0,0
2,note_on,86,58,320
2,note_on,90,65,0
2,note_on,90,0,80
2,note_on,86,0,0
2,note_on,85,56,0
2,note_on,88,63,0
2,note_on,88,0,80
2,note_on,85,0,0
2,note_on,84,54,0
2,note_on,87,62,0
2,note_on,87,0,80
2,note_on,84,0,0
2,note_on,83,53,0
2,note_on,86,60,0
2,note_on,86,0,80
2,note_on,83,0,0
2,note_on,62,42,4280
2,note_on,55,35,0
2,note_on,55,0,240
2,note_on,62,0,0
2,note_on,62,33,0
2,note_on,55,27,0
2,note_on,55,0,120
2,note_on,62,0,0
2,note_on,59,34,120
2,note_on,53,28,0
2,note_on,53,0,120
2,note_on,59,0,0
2,note_on,60,34,0
2,note_on,52,28,0
2,note_on,52,0,120
2,note_on,60,0,0
2,note_on,59,34,0
2,note_on,53,28,0
2,note_on,53,0,120
2,note_on,59,0,0
2,note_on,60,40,0
2,note_on,52,34,0
2,note_on,52,0,120
2,note_on,60,0,0
2,note_on,40,40,360
2,note_on,56,40,240
2,note_on,56,0,240
2,note_on,40,0,0
2,note_on,57,61,0
2,note_on,45,46,0
2,note_on,45,0,40
2,note_on,57,0,0
2,note_on,47,39,40
2,note_on,59,48,0
2,note_on,59,0,40
2,note_on,47,0,0
2,note_on,45,39,40
2,note_on,57,48,0
2,note_on,57,0,40
2,note_on,45,0,0
2,note_on,56,54,40
2,note_on,44,45,0
2,note_on,44,0,40
2,note_on,56,0,0
2,note_on,45,41,40
2,note_on,57,49,0
2,note_on,57,0,40
2,note_on,45,0,0
2,note_on,47,41,40
2,note_on,59,49,0
2,note_on,59,0,25
2,note_on,47,0,0
2,note_on,61,61,55
2,note_on,49,46,0
2,note_on,49,0,40
2,note_on,61,0,0
2,note_on,48,43,40
2,note_on,60,51,0
2,note_on,60,0,40
2,note_on,48,0,0
2,note_on,50,43,40
2,note_on,62,51,0
2,note_on,62,0,40
2,note_on,50,0,0
2,note_on,61,56,40
2,note_on,49,46,0
2,note_on,49,0,40
2,note_on,61,0,0
2,note_on,47,43,40
2,note_on,59,51,0
2,note_on,59,0,40
2,note_on,47,0,0
2,note_on,45,43,40
2,note_on,57,51,0
2,note_on,57,0,40
2,note_on,45,0,0
2,note_on,54,56,40
2,note_on,42,58,0
2,note_on,42,0,40
2,note_on,54,0,0
2,note_on,44,41,40
2,note_on,56,49,0
2,note_on,56,0,40
2,note_on,44,0,0
2,note_on,42,41,40
2,note_on,54,49,0
2,note_on,54,0,40
2,note_on,42,0,0
2,note_on,53,52,40
2,note_on,41,44,0
2,note_on,41,0,40
2,note_on,53,0,0
2,note_on,42,41,40
2,note_on,54,49,0
2,note_on,54,0,40
2,note_on,42,0,0
2,note_on,46,41,40
2,note_on,58,49,0
2,note_on,58,0,40
2,note_on,46,0,0
2,note_on,59,61,40
2,note_on,47,45,0
2,note_on,47,0,40
2,note_on,59,0,0
2,note_on,49,39,40
2,note_on,61,48,0
2,note_on,61,0,40
2,note_on,49,0,0
2,note_on,47,39,40
2,note_on,59,48,0
2,note_on,59,0,40
2,note_on,47,0,0
2,note_on,58,52,40
2,note_on,46,44,0
2,note_on,46,0,40
2,note_on,58,0,0
2,note_on,47,41,40
2,note_on,59,49,0
2,note_on,59,0,40
2,note_on,47,0,0
2,note_on,45,41,40
2,note_on,57,49,0
2,note_on,57,0,40
2,note_on,45,0,0
2,note_on,56,62,40
2,note_on,44,52,0
2,note_on,44,0,40
2,note_on,56,0,0
2,note_on,66,51,40
2,note_on,54,43,0
2,note_on,54,0,40
2,note_on,66,0,0
2,note_on,52,43,40
2,note_on,64,51,0
2,note_on,64,0,40
2,note_on,52,0,0
2,note_on,51,48,40
2,note_on,63,57,0
2,note_on,63,0,40
2,note_on,51,0,0
2,note_on,64,52,40
2,note_on,52,44,0
2,note_on,52,0,40
2,note_on,64,0,0
2,note_on,44,44,40
2,note_on,56,52,0
2,note_on,56,0,40
2,note_on,44,0,0
2,note_on,42,45,40
2,note_on,54,55,0
2,note_on,54,0,40
2,note_on,42,0,0
2,note_on,56,50,40
2,note_on,44,42,0
2,note_on,44,0,40
2,note_on,56,0,0
2,note_on,42,42,40
2,note_on,54,50,0
2,note_on,54,0,40
2,note_on,42,0,0
2,note_on,41,45,40
2,note_on,53,55,0
2,note_on,53,0,40
2,note_on,41,0,0
2,note_on,54,50,40
2,note_on,42,42,0
2,note_on,42,0,40
2,note_on,54,0,0
2,note_on,35,42,40
2,note_on,47,50,0
2,note_on,47,0,40
2,note_on,35,0,0
2,note_on,52,54,40
2,note_on,40,45,0
2,note_on,40,0,80
2,note_on,52,0,0
2,note_on,56,48,0
2,note_on,44,40,0
2,note_on,44,0,80
2,note_on,56,0,0
2,note_on,59,49,0
2,note_on,47,41,0
2,note_on,47,0,80
2,note_on,59,0,0
2,note_on,64,54,0
2,note_on,52,45,0
2,note_on,56,45,0
2,note_on,56,0,60
2,note_on,52,0,0
2,note_on,64,0,0
2,note_on,68,49,20
2,note_on,56,42,0
2,note_on,56,0,80
2,note_on,68,0,0
2,note_on,71,54,0
2,note_on,59,45,0
2,note_on,59,0,80
2,note_on,71,0,0
2,note_on,76,63,0
2,note_on,64,54,0
2,note_on,64,0,40
2,note_on,76,0,0
2,note_on,64,59,40
2,note_on,59,50,0
2,note_on,52,50,0
2,note_on,52,0,30
2,note_on,59,0,0
2,note_on,64,0,0
2,note_on,63,54,50
2,note_on,59,45,0
2,note_on,53,45,0
2,note_on,53,0,30
2,note_on,59,0,0
2,note_on,63,0,0
2,note_on,62,62,50
2,note_on,60,51,0
2,note_on,54,51,0
2,note_on,54,0,30
2,note_on,60,0,0
2,note_on,62,0,0
2,note_on,59,54,50
2,note_on,55,45,0
2,note_on,55,0,30
2,note_on,59,0,0
2,note_on,62,54,50
2,note_on,56,45,0
2,note_on,56,0,30
2,note_on,62,0,0
2,note_on,57,61,50
2,note_on,45,46,0
2,note_on,45,0,40
2,note_on,57,0,0
2,note_on,47,39,40
2,note_on,59,48,0
2,note_on,59,0,40
2,note_on,47,0,0
2,note_on,45,39,40
2,note_on,57,48,0
2,note_on,57,0,40
2,note_on,45,0,0
2,note_on,56,54,40
2,note_on,44,45,0
2,note_on,44,0,40
2,note_on,56,0,0
2,note_on,45,41,40
2,note_on,57,49,0
2,note_on,57,0,40
2,note_on,45,0,0
2,note_on,47,41,40
2,note_on,59,49,0
2,note_on,59,0,25
2,note_on,47,0,0
2,note_on,61,61,55
2,note_on,49,46,0
2,note_on,49,0,40
2,note_on,61,0,0
2,note_on,48,43,40
2,note_on,60,51,0
2,note_on,60,0,40
2,note_on,48,0,0
2,note_on,50,43,40
2,note_on,62,51,0
2,note_on,62,0,40
2,note_on,50,0,0
2,note_on,61,56,40
2,note_on,49,46,0
2,note_on,49,0,40
2,note_on,61,0,0
2,note_on,47,43,40
2,note_on,59,51,0
2,note_on,59,0,40
2,note_on,47,0,0
2,note_on,45,43,40
2,note_on,57,51,0
2,note_on,57,0,40
2,note_on,45,0,0
2,note_on,54,54,40
2,note_on,42,45,0
2,note_on,45,40,80
2,note_on,57,48,0
2,note_on,42,0,0
2,note_on,54,0,0
2,note_on,45,0,80
2,note_on,57,0,0
2,note_on,50,40,0
2,note_on,62,48,0
2,note_on,62,0,80
2,note_on,50,0,0
2,note_on,66,52,0
2,note_on,54,44,0
2,note_on,54,0,60
2,note_on,66,0,0
2,note_on,69,54,20
2,note_on,57,45,0
2,note_on,57,0,80
2,note_on,69,0,0
2,note_on,73,58,1
2,note_on,61,49,0
2,note_on,74,61,79
2,note_on,62,51,0
2,note_on,61,0,1
2,note_on,73,0,0
2,note_on,74,0,79
2,note_on,62,0,0
2,note_on,62,42,520
2,note_on,52,35,0
2,note_on,59,35,0
2,note_on,59,0,90
2,note_on,52,0,0
2,note_on,62,0,0
2,note_on,62,42,30
2,note_on,52,35,0
2,note_on,59,35,0
2,note_on,59,0,90
2,note_on,52,0,0
2,note_on,62,0,0
2,note_on,62,42,30
2,note_on,52,35,0
2,note_on,59,35,0
2,note_on,59,0,90
2,note_on,52,0,0
2,note_on,62,0,0
2,note_on,62,46,30
2,note_on,52,39,0
2,note_on,59,39,0
2,note_on,40,36,195
2,note_on,47,36,15
2,note_on,50,36,15
2,note_on,59,0,15
2,note_on,62,0,0
2,note_on,52,0,0
2,note_on,56,43,0
2,note_on,56,0,120
2,note_on,50,0,0
2,note_on,47,0,0
2,note_on,40,0,0
2,note_on,57,61,120
2,note_on,45,46,0
2,note_on,45,0,40
2,note_on,57,0,0
2,note_on,47,39,40
2,note_on,59,48,0
2,note_on,59,0,40
2,note_on,47,0,0
2,note_on,45,39,40
2,note_on,57,48,0
2,note_on,57,0,40
2,note_on,45,0,0
2,note_on,56,54,40
2,note_on,44,45,0
2,note_on,44,0,40
2,note_on,56,0,0
2,note_on,45,41,40
2,note_on,57,49,0
2,note_on,57,0,40
2,note_on,45,0,0
2,note_on,47,41,40
2,note_on,59,49,0
2,note_on,59,0,25
2,note_on,47,0,0
2,note_on,61,61,55
2,note_on,49,46,0
2,note_on,49,0,40
2,note_on,61,0,0
2,note_on,48,43,40
2,note_on,60,51,0
2,note_on,60,0,40
2,note_on,48,0,0
2,note_on,50,43,40
2,note_on,62,51,0
2,note_on,62,0,40
2,note_on,50,0,0
2,note_on,61,56,40
2,note_on,49,46,0
2,note_on,49,0,40
2,note_on,61,0,0
2,note_on,47,43,40
2,note_on,59,51,0
2,note_on,59,0,40
2,note_on,47,0,0
2,note_on,45,43,40
2,note_on,57,51,0
2,note_on,57,0,40
2,note_on,45,0,0
2,note_on,54,54,40
2,note_on,42,45,0
2,note_on,45,40,80
2,note_on,57,48,0
2,note_on,42,0,0
2,note_on,54,0,0
2,note_on,45,0,80
2,note_on,57,0,0
2,note_on,50,40,0
2,note_on,62,48,0
2,note_on,62,0,80
2,note_on,50,0,0
2,note_on,66,52,0
2,note_on,54,44,0
2,note_on,54,0,60
2,note_on,66,0,0
2,note_on,69,54,20
2,note_on,57,45,0
2,note_on,57,0,80
2,note_on,69,0,0
2,note_on,62,49,1
2,note_on,74,58,0
2,note_on,78,61,79
2,note_on,66,51,0
2,note_on,74,0,1
2,note_on,62,0,0
2,note_on,78,0,79
2,note_on,66,0,0
2,note_on,71,56,160
2,note_on,62,47,0
2,note_on,62,0,120
2,note_on,71,0,0
2,note_on,69,52,0
2,note_on,61,44,0
2,note_on,61,0,120
2,note_on,69,0,0
2,note_on,59,44,0
2,note_on,62,45,0
2,note_on,68,54,0
2,note_on,68,0,120
2,note_on,62,0,0
2,note_on,59,0,0
2,note_on,40,45,75
2,note_on,47,47,15
2,note_on,50,50,15
2,note_on,56,52,15
2,note_on,56,0,120
2,note_on,40,0,0
2,note_on,47,0,0
2,note_on,50,0,0
2,note_on,45,42,1050
2,note_on,52,46,15
2,note_on,61,62,15
2,note_on,45,0,120
2,note_on,40,54,0
2,note_on,40,0,120
2,note_on,61,0,0
2,note_on,52,0,0
2,note_on,57,60,0
2,note_on,52,50,0
2,note_on,49,42,0
2,note_on,49,0,120
2,note_on,52,0,0
2,note_on,57,0,0
2,note_on,52,55,0
2,note_on,40,55,0
2,note_on,40,0,75
2,note_on,52,0,0
2,note_on,47,50,0
2,note_on,52,50,15
2,note_on,56,50,15
2,note_on,62,62,15
2,note_on,47,0,120
2,note_on,40,53,0
2,note_on,40,0,120
2,note_on,62,0,0
2,note_on,56,0,0
2,note_on,52,0,0
2,note_on,56,59,0
2,note_on,50,50,0
2,note_on,50,0,120
2,note_on,40,54,0
2,note_on,40,0,120
2,note_on,56,0,0
2,note_on,57,59,0
2,note_on,49,50,0
2,note_on,52,50,0
2,note_on,52,0,120
2,note_on,49,0,0
2,note_on,57,0,0
2,note_on,76,54,0
2,note_on,64,45,0
2,note_on,73,45,0
2,note_on,73,0,90
2,note_on,64,0,0
2,note_on,76,0,0
2,note_on,76,56,30
2,note_on,64,47,0
2,note_on,73,47,0
2,note_on,73,0,90
2,note_on,64,0,0
2,note_on,76,0,0
2,note_on,76,59,30
2,note_on,64,50,0
2,note_on,73,50,0
2,note_on,73,0,90
2,note_on,64,0,0
2,note_on,76,0,0
2,note_on,56,62,30
2,note_on,75,59,120
2,note_on,64,38,0
2,note_on,72,48,0
2,note_on,72,0,120
2,note_on,56,0,0
2,note_on,75,0,0
2,note_on,76,59,0
2,note_on,73,50,0
2,note_on,73,0,120
2,note_on,76,0,0
2,note_on,64,0,0
2,note_on,74,59,0
2,note_on,64,50,0
2,note_on,71,50,0
2,note_on,71,0,90
2,note_on,64,0,0
2,note_on,74,0,0
2,note_on,45,47,0
2,note_on,52,54,15
2,note_on,61,72,15
2,note_on,45,0,120
2,note_on,40,54,0
2,note_on,40,0,120
2,note_on,61,0,0
2,note_on,52,0,0
2,note_on,57,61,0
2,note_on,52,50,0
2,note_on,49,40,0
2,note_on,49,0,120
2,note_on,52,0,0
2,note_on,57,0,0
2,note_on,52,55,0
2,note_on,40,55,0
2,note_on,40,0,75
2,note_on,52,0,0
2,note_on,47,50,0
2,note_on,52,50,15
2,note_on,56,50,15
2,note_on,62,70,15
2,note_on,47,0,120
2,note_on,40,53,0
2,note_on,40,0,120
2,note_on,62,0,0
2,note_on,56,0,0
2,note_on,52,0,0
2,note_on,56,64,0
2,note_on,50,50,0
2,note_on,50,0,120
2,note_on,40,54,0
2,note_on,40,0,120
2,note_on,56,0,0
2,note_on,57,59,0
2,note_on,49,50,0
2,note_on,52,50,0
2,note_on,52,0,120
2,note_on,49,0,0
2,note_on,57,0,0
2,note_on,76,51,0
2,note_on,64,43,0
2,note_on,73,43,0
2,note_on,73,0,90
2,note_on,64,0,0
2,note_on,76,0,0
2,note_on,76,53,30
2,note_on,64,45,0
2,note_on,73,45,0
2,note_on,73,0,90
2,note_on,64,0,0
2,note_on,76,0,0
2,note_on,76,55,30
2,note_on,64,47,0
2,note_on,73,47,0
2,note_on,73,0,90
2,note_on,64,0,0
2,note_on,76,0,0
2,note_on,56,62,30
2,note_on,75,55,120
2,note_on,64,40,0
2,note_on,72,47,0
2,note_on,72,0,120
2,note_on,56,0,0
2,note_on,75,0,0
2,note_on,76,55,0
2,note_on,73,47,0
2,note_on,73,0,120
2,note_on,76,0,0
2,note_on,64,0,0
2,note_on,74,55,0
2,note_on,64,47,0
2,note_on,71,47,0
2,note_on,71,0,120
2,note_on,64,0,0
2,note_on,74,0,0
2,note_on,57,59,0
2,note_on,57,0,120
2,note_on,73,51,0
2,note_on,64,43,0
2,note_on,69,43,0
2,note_on,69,0,90
2,note_on,64,0,0
2,note_on,73,0,0
2,note_on,73,53,30
2,note_on,64,45,0
2,note_on,69,45,0
2,note_on,69,0,90
2,note_on,64,0,0
2,note_on,73,0,0
2,note_on,73,55,30
2,note_on,64,47,0
2,note_on,69,47,0
2,note_on,69,0,90
2,note_on,64,0,0
2,note_on,73,0,0
2,note_on,53,62,30
2,note_on,72,55,120
2,note_on,61,41,0
2,note_on,68,47,0
2,note_on,68,0,120
2,note_on,53,0,0
2,note_on,72,0,0
2,note_on,73,55,0
2,note_on,69,47,0
2,note_on,69,0,120
2,note_on,73,0,0
2,note_on,61,0,0
2,note_on,71,55,0
2,note_on,61,47,0
2,note_on,68,47,0
2,note_on,68,0,120
2,note_on,61,0,0
2,note_on,71,0,0
2,note_on,54,59,0
2,note_on,54,0,120
2,note_on,69,51,0
2,note_on,61,43,0
2,note_on,66,43,0
2,note_on,66,0,90
2,note_on,61,0,0
2,note_on,69,0,0
2,note_on,69,53,30
2,note_on,61,45,0
2,note_on,66,45,0
2,note_on,66,0,90
2,note_on,61,0,0
2,note_on,69,0,0
2,note_on,69,55,30
2,note_on,61,47,0
2,note_on,66,47,0
2,note_on,66,0,90
2,note_on,61,0,0
2,note_on,69,0,0
2,note_on,49,62,30
2,note_on,68,55,120
2,note_on,57,47,0
2,note_on,65,47,0
2,note_on,65,0,120
2,note_on,49,0,0
2,note_on,68,0,0
2,note_on,69,55,0
2,note_on,66,47,0
2,note_on,66,0,120
2,note_on,69,0,0
2,note_on,57,0,0
2,note_on,67,55,0
2,note_on,57,47,0
2,note_on,64,47,0
2,note_on,64,0,90
2,note_on,57,0,0
2,note_on,67,0,0
2,note_on,50,52,0
2,note_on,57,52,15
2,note_on,66,62,15
2,note_on,66,0,120
2,note_on,57,0,0
2,note_on,50,0,0
2,note_on,38,54,0
2,note_on,38,0,45
2,note_on,45,55,75
2,note_on,45,0,45
2,note_on,54,55,75
2,note_on,54,0,34
2,note_on,47,52,56
2,note_on,54,52,15
2,note_on,62,62,15
2,note_on,47,0,83
2,note_on,54,0,4
2,note_on,62,0,3
2,note_on,35,54,30
2,note_on,35,0,45
2,note_on,42,55,75
2,note_on,42,0,45
2,note_on,50,55,75
2,note_on,50,0,34
2,note_on,52,62,56
2,note_on,59,52,15
2,note_on,68,62,15
2,note_on,68,0,120
2,note_on,59,0,0
2,note_on,52,0,0
2,note_on,40,54,0
2,note_on,40,0,45
2,note_on,47,55,75
2,note_on,47,0,45
2,note_on,56,55,75
2,note_on,56,0,34
2,note_on,49,52,56
2,note_on,56,52,15
2,note_on,64,62,15
2,note_on,49,0,83
2,note_on,56,0,4
2,note_on,64,0,3
2,note_on,37,54,30
2,note_on,37,0,45
2,note_on,44,55,75
2,note_on,44,0,45
2,note_on,52,55,75
2,note_on,52,0,34
2,note_on,54,62,56
2,note_on,61,52,15
2,note_on,69,62,15
2,note_on,69,0,120
2,note_on,61,0,0
2,note_on,54,0,0
2,note_on,42,54,0
2,note_on,42,0,45
2,note_on,49,55,75
2,note_on,49,0,45
2,note_on,57,55,75
2,note_on,57,0,34
2,note_on,50,52,56
2,note_on,57,52,15
2,note_on,65,62,15
2,note_on,50,0,83
2,note_on,57,0,4
2,note_on,65,0,3
2,note_on,38,54,30
2,note_on,38,0,45
2,note_on,45,55,75
2,note_on,45,0,45
2,note_on,53,55,75
2,note_on,53,0,34
2,note_on,44,51,56
2,note_on,52,51,15
2,note_on,59,61,15
2,note_on,59,0,120
2,note_on,52,0,0
2,note_on,44,0,0
2,note_on,32,57,40
2,note_on,32,0,80
2,note_on,35,49,0
2,note_on,35,0,60
2,note_on,32,57,20
2,note_on,32,0,60
2,note_on,38,50,20
2,note_on,38,0,60
2,note_on,32,57,20
2,note_on,32,0,60
2,note_on,40,50,20
2,note_on,40,0,60
2,note_on,32,57,20
2,note_on,32,0,60
2,note_on,44,48,20
2,note_on,44,0,60
2,note_on,32,56,20
2,note_on,32,0,60
2,note_on,47,49,20
2,note_on,47,0,60
2,note_on,32,56,20
2,note_on,32,0,60
2,note_on,50,48,20
2,note_on,50,0,60
2,note_on,32,56,20
2,note_on,32,0,60
2,note_on,52,49,20
2,note_on,52,0,60
2,note_on,32,56,20
2,note_on,32,0,60
2,note_on,56,49,20
2,note_on,56,0,60
2,note_on,32,56,20
2,note_on,32,0,60
2,note_on,59,48,20
2,note_on,59,0,60
2,note_on,32,56,20
2,note_on,32,0,60
2,note_on,62,48,20
2,note_on,62,0,60
2,note_on,32,56,20
2,note_on,32,0,60
2,note_on,64,51,20
2,note_on,64,0,60
2,note_on,32,61,20
2,note_on,32,0,120
2,note_on,56,62,330
2,note_on,71,70,30
2,note_on,71,0,210
2,note_on,56,0,0
2,note_on,57,62,0
2,note_on,72,70,30
2,note_on,72,0,210
2,note_on,57,0,0
2,note_on,58,62,240
2,note_on,73,69,30
2,note_on,73,0,210
2,note_on,58,0,0
2,note_on,59,62,0
2,note_on,74,70,30
2,note_on,74,0,210
2,note_on,59,0,0
2,note_on,59,60,240
2,note_on,74,66,30
2,note_on,74,0,210
2,note_on,59,0,0
2,note_on,60,58,0
2,note_on,75,66,30
2,note_on,75,0,210
2,note_on,60,0,0
2,note_on,61,58,240
2,note_on,76,62,30
2,note_on,76,0,240
2,note_on,61,0,0
2,note_on,77,69,0
2,note_on,62,58,0
2,note_on,62,0,240
2,note_on,77,0,0
2,note_on,77,68,480
2,note_on,62,57,0
2,note_on,62,0,240
2,note_on,77,0,0
2,note_on,78,68,480
2,note_on,63,57,0
2,note_on,63,0,240
2,note_on,78,0,0
2,note_on,78,69,480
2,note_on,63,58,0
2,note_on,63,0,240
2,note_on,78,0,0
2,note_on,64,36,3360
2,note_on,64,0,120
2,note_on,65,37,0
2,note_on,65,0,120
2,note_on,66,39,0
2,note_on,66,0,120
2,note_on,67,40,0
2,note_on,67,0,120
2,note_on,68,42,0
2,note_on,68,0,120
2,note_on,69,43,0
2,note_on,69,0,120
2,note_on,70,45,0
2,note_on,70,0,120
2,note_on,71,46,0
2,note_on,71,0,120
2,note_on,72,47,0
2,note_on,72,0,120
2,note_on,73,49,0
2,note_on,73,0,120
2,note_on,74,50,0
2,note_on,74,0,120
2,note_on,75,52,0
2,note_on,75,0,120
2,note_on,76,55,0
2,note_on,76,0,120
2,note_on,77,42,0
2,note_on,77,0,120
2,note_on,78,44,0
2,note_on,78,0,120
2,note_on,79,45,0
2,note_on,79,0,120
2,note_on,80,46,0
2,note_on,80,0,120
2,note_on,81,48,0
2,note_on,81,0,120
2,note_on,82,50,0
2,note_on,82,0,120
2,note_on,83,52,0
2,note_on,83,0,120
2,note_on,84,53,0
2,note_on,84,0,120
2,note_on,85,54,0
2,note_on,85,0,120
2,note_on,86,56,0
2,note_on,86,0,120
2,note_on,87,58,0
2,note_on,87,0,120
2,note_on,88,55,0
2,note_on,88,0,120
2,note_on,90,52,0
2,note_on,90,0,120
2,note_on,91,54,0
2,note_on,91,0,120
2,note_on,92,56,0
2,note_on,92,0,120
2,note_on,93,58,0
2,note_on,93,0,120
2,note_on,94,60,0
2,note_on,94,0,120
2,note_on,95,63,0
2,note_on,95,0,120
2,note_on,94,59,0
2,note_on,94,0,120
2,note_on,93,58,0
2,note_on,93,0,120
2,note_on,92,57,0
2,note_on,92,0,120
2,note_on,91,56,0
2,note_on,91,0,120
2,note_on,90,55,0
2,note_on,90,0,120
2,note_on,88,55,0
2,note_on,88,0,120
2,note_on,90,52,0
2,note_on,90,0,120
2,note_on,91,54,0
2,note_on,91,0,120
2,note_on,92,56,0
2,note_on,92,0,120
2,note_on,93,58,0
2,note_on,93,0,120
2,note_on,94,60,0
2,note_on,94,0,120
2,note_on,95,63,0
2,note_on,95,0,120
2,note_on,94,59,0
2,note_on,94,0,120
2,note_on,93,58,0
2,note_on,93,0,120
2,note_on,92,57,0
2,note_on,92,0,120
2,note_on,91,56,0
2,note_on,91,0,120
2,note_on,90,55,0
2,note_on,90,0,120
2,note_on,88,55,0
2,note_on,88,0,120
2,note_on,90,52,0
2,note_on,90,0,120
2,note_on,91,54,0
2,note_on,91,0,120
2,note_on,92,55,0
2,note_on,92,0,120
2,note_on,93,57,0
2,note_on,93,0,120
2,note_on,94,59,0
2,note_on,94,0,120
2,note_on,95,61,0
2,note_on,95,0,120
2,note_on,96,63,0
2,note_on,96,0,120
2,note_on,97,64,0
2,note_on,97,0,120
2,note_on,98,66,0
2,note_on,98,0,120
2,note_on,97,63,0
2,note_on,97,0,120
2,note_on,96,63,0
2,note_on,96,0,120
2,note_on,95,62,0
2,note_on,95,0,120
2,note_on,92,62,0
2,note_on,92,0,120
2,note_on,89,60,0
2,note_on,89,0,120
2,note_on,86,57,0
2,note_on,86,0,120
2,note_on,85,55,0
2,note_on,85,0,120
2,note_on,84,53,0
2,note_on,84,0,120
2,note_on,83,51,0
2,note_on,83,0,120
2,note_on,84,48,0
2,note_on,84,0,120
2,note_on,85,53,0
2,note_on,85,0,120
2,note_on,86,51,0
2,note_on,86,0,120
2,note_on,85,50,0
2,note_on,85,0,120
2,note_on,84,48,0
2,note_on,84,0,120
2,note_on,83,47,0
2,note_on,83,0,120
2,note_on,80,45,0
2,note_on,80,0,120
2,note_on,77,45,0
2,note_on,77,0,120
2,note_on,74,45,0
2,note_on,74,0,120
2,note_on,73,45,0
2,note_on,73,0,120
2,note_on,72,45,0
2,note_on,72,0,120
2,note_on,71,46,0
2,note_on,71,0,120
2,note_on,72,48,0
2,note_on,72,0,120
2,note_on,73,48,0
2,note_on,73,0,120
2,note_on,74,46,0
2,note_on,74,0,120
2,note_on,73,45,0
2,note_on,73,0,120
2,note_on,71,44,0
2,note_on,71,0,120
2,note_on,68,36,0
2,note_on,68,0,120
2,note_on,71,37,0
2,note_on,71,0,120
2,note_on,73,40,0
2,note_on,73,0,120
2,note_on,74,40,0
2,note_on,74,0,120
2,note_on,73,40,0
2,note_on,73,0,120
2,note_on,71,39,0
2,note_on,71,0,120
2,note_on,64,37,0
2,note_on,64,0,120
2,note_on,71,36,0
2,note_on,71,0,120
2,note_on,73,37,0
2,note_on,73,0,120
2,note_on,74,39,0
2,note_on,74,0,120
2,note_on,73,37,0
2,note_on,73,0,120
2,note_on,71,37,0
2,note_on,71,0,120
2,note_on,66,36,0
2,note_on,66,0,120
2,note_on,71,36,0
2,note_on,71,0,120
2,note_on,73,37,0
2,note_on,73,0,120
2,note_on,74,38,0
2,note_on,74,0,120
2,note_on,73,37,0
2,note_on,73,0,120
2,note_on,71,36,0
2,note_on,71,0,120
2,note_on,67,35,0
2,note_on,67,0,120
2,note_on,71,34,0
2,note_on,71,0,120
2,note_on,73,35,0
2,note_on,73,0,120
2,note_on,74,36,0
2,note_on,74,0,120
2,note_on,73,36,0
2,note_on,73,0,120
2,note_on,71,34,0
2,note_on,71,0,120
2,note_on,68,34,0
2,note_on,68,0,120
2,note_on,71,34,0
2,note_on,71,0,120
2,note_on,74,34,0
2,note_on,74,0,240
2,note_on,56,35,5040
2,note_on,56,0,120
2,note_on,64,31,0
2,note_on,64,0,120
2,note_on,45,38,0
2,note_on,45,0,120
2,note_on,52,31,0
2,note_on,52,0,120
2,note_on,57,34,0
2,note_on,57,0,120
2,note_on,64,31,0
2,note_on,64,0,120
2,note_on,56,36,0
2,note_on,56,0,120
2,note_on,64,31,0
2,note_on,64,0,120
2,note_on,45,35,0
2,note_on,45,0,120
2,note_on,52,31,0
2,note_on,52,0,120
2,note_on,57,34,0
2,note_on,57,0,120
2,note_on,64,31,0
2,note_on,64,0,120
2,note_on,59,31,0
2,note_on,59,0,120
2,note_on,64,31,0
2,note_on,64,0,120
2,note_on,56,36,0
2,note_on,56,0,120
2,note_on,64,31,0
2,note_on,64,0,120
2,note_on,52,35,0
2,note_on,52,0,120
2,note_on,68,31,0
2,note_on,68,0,120
2,note_on,53,35,0
2,note_on,53,0,120
2,note_on,69,31,0
2,note_on,69,0,120
2,note_on,54,35,0
2,note_on,54,0,120
2,note_on,70,31,0
2,note_on,70,0,120
2,note_on,55,36,0
2,note_on,55,0,120
2,note_on,71,31,0
2,note_on,71,0,120
2,note_on,56,36,0
2,note_on,56,0,120
2,note_on,72,31,0
2,note_on,72,0,120
2,note_on,45,38,0
2,note_on,45,0,120
2,note_on,52,31,0
2,note_on,52,0,120
2,note_on,57,34,0
2,note_on,57,0,120
2,note_on,64,31,0
2,note_on,64,0,120
2,note_on,56,36,0
2,note_on,56,0,120
2,note_on,64,31,0
2,note_on,64,0,120
2,note_on,45,35,0
2,note_on,45,0,120
2,note_on,52,31,0
2,note_on,52,0,120
2,note_on,57,34,0
2,note_on,57,0,120
2,note_on,64,31,0
2,note_on,64,0,120
2,note_on,59,31,0
2,note_on,59,0,120
2,note_on,64,31,0
2,note_on,64,0,120
2,note_on,56,36,0
2,note_on,56,0,120
2,note_on,64,31,0
2,note_on,64,0,120
2,note_on,52,35,0
2,note_on,52,0,120
2,note_on,68,31,0
2,note_on,68,0,120
2,note_on,53,35,0
2,note_on,53,0,120
2,note_on,69,31,0
2,note_on,69,0,120
2,note_on,54,35,0
2,note_on,54,0,120
2,note_on,70,31,0
2,note_on,70,0,120
2,note_on,55,36,0
2,note_on,55,0,120
2,note_on,71,31,0
2,note_on,71,0,120
2,note_on,56,36,0
2,note_on,56,0,120
2,note_on,72,31,0
2,note_on,72,0,120
2,note_on,45,38,0
2,note_on,45,0,120
2,note_on,52,31,0
2,note_on,52,0,120
2,note_on,61,34,0
2,note_on,61,0,120
2,note_on,64,31,0
2,note_on,64,0,120
2,note_on,57,36,0
2,note_on,57,0,120
2,note_on,61,31,0
2,note_on,61,0,120
2,note_on,50,35,0
2,note_on,50,0,120
2,note_on,59,31,0
2,note_on,59,0,120
2,note_on,62,34,0
2,note_on,62,0,120
2,note_on,66,31,0
2,note_on,66,0,120
2,note_on,59,31,0
2,note_on,59,0,120
2,note_on,62,31,0
2,note_on,62,0,120
2,note_on,52,38,0
2,note_on,52,0,120
2,note_on,61,31,0
2,note_on,61,0,120
2,note_on,69,34,0
2,note_on,69,0,120
2,note_on,73,31,0
2,note_on,73,0,120
2,note_on,64,36,0
2,note_on,64,0,120
2,note_on,69,31,0
2,note_on,69,0,120
2,note_on,52,35,0
2,note_on,52,0,120
2,note_on,62,31,0
2,note_on,62,0,120
2,note_on,68,34,0
2,note_on,68,0,120
2,note_on,71,31,0
2,note_on,71,0,120
2,note_on,62,31,0
2,note_on,62,0,120
2,note_on,68,31,0
2,note_on,68,0,120
2,note_on,61,32,0
2,note_on,64,32,0
2,note_on,64,0,120
2,note_on,61,0,0
2,note_on,64,33,0
2,note_on,64,0,120
2,note_on,69,34,0
2,note_on,69,0,120
2,note_on,73,34,0
2,note_on,73,0,120
2,note_on,76,35,0
2,note_on,76,0,120
2,note_on,78,36,0
2,note_on,78,0,120
2,note_on,80,36,0
2,note_on,80,0,120
2,note_on,76,36,0
2,note_on,76,0,120
2,note_on,71,31,0
2,note_on,71,0,120
2,note_on,73,31,0
2,note_on,73,0,120
2,note_on,74,33,0
2,note_on,74,0,120
2,note_on,76,31,0
2,note_on,76,0,120
2,note_on,78,36,0
2,note_on,78,0,120
2,note_on,74,36,0
2,note_on,74,0,120
2,note_on,70,36,0
2,note_on,70,0,120
2,note_on,65,37,0
2,note_on,65,0,120
2,note_on,62,38,0
2,note_on,62,0,120
2,note_on,60,38,0
2,note_on,60,0,120
2,note_on,59,41,0
2,note_on,59,0,120
2,note_on,64,38,0
2,note_on,64,0,120
2,note_on,56,38,0
2,note_on,56,0,120
2,note_on,64,36,0
2,note_on,64,0,120
2,note_on,52,36,0
2,note_on,56,36,0
2,note_on,56,0,120
2,note_on,52,0,0
2,note_on,64,34,0
2,note_on,64,0,120
2,note_on,45,38,0
2,note_on,45,0,120
2,note_on,52,31,0
2,note_on,52,0,120
2,note_on,57,34,0
2,note_on,57,0,120
2,note_on,64,31,0
2,note_on,64,0,120
2,note_on,56,36,0
2,note_on,56,0,120
2,note_on,64,31,0
2,note_on,64,0,120
2,note_on,45,35,0
2,note_on,45,0,120
2,note_on,52,31,0
2,note_on,52,0,120
2,note_on,57,34,0
2,note_on,57,0,120
2,note_on,64,31,0
2,note_on,64,0,120
2,note_on,59,31,0
2,note_on,59,0,120
2,note_on,64,31,0
2,note_on,64,0,120
2,note_on,56,36,0
2,note_on,56,0,120
2,note_on,64,31,0
2,note_on,64,0,120
2,note_on,52,35,0
2,note_on,52,0,120
2,note_on,68,31,0
2,note_on,68,0,120
2,note_on,53,35,0
2,note_on,53,0,120
2,note_on,69,31,0
2,note_on,69,0,120
2,note_on,54,35,0
2,note_on,54,0,120
2,note_on,70,31,0
2,note_on,70,0,120
2,note_on,55,36,0
2,note_on,55,0,120
2,note_on,71,31,0
2,note_on,71,0,120
2,note_on,56,36,0
2,note_on,56,0,120
2,note_on,72,31,0
2,note_on,72,0,120
2,note_on,45,38,0
2,note_on,45,0,120
2,note_on,52,31,0
2,note_on,52,0,120
2,note_on,57,34,0
2,note_on,57,0,120
2,note_on,64,31,0
2,note_on,64,0,120
2,note_on,56,36,0
2,note_on,56,0,120
2,note_on,64,31,0
2,note_on,64,0,120
2,note_on,45,35,0
2,note_on,45,0,120
2,note_on,52,31,0
2,note_on,52,0,120
2,note_on,57,34,0
2,note_on,57,0,120
2,note_on,64,31,0
2,note_on,64,0,120
2,note_on,59,31,0
2,note_on,59,0,120
2,note_on,64,31,0
2,note_on,64,0,120
2,note_on,56,36,0
2,note_on,56,0,120
2,note_on,64,31,0
2,note_on,64,0,120
2,note_on,52,35,0
2,note_on,52,0,120
2,note_on,68,31,0
2,note_on,68,0,120
2,note_on,53,35,0
2,note_on,53,0,120
2,note_on,69,31,0
2,note_on,69,0,120
2,note_on,54,35,0
2,note_on,54,0,120
2,note_on,70,31,0
2,note_on,70,0,120
2,note_on,55,36,0
2,note_on,55,0,120
2,note_on,71,31,0
2,note_on,71,0,120
2,note_on,56,36,0
2,note_on,56,0,120
2,note_on,72,31,0
2,note_on,72,0,120
2,note_on,45,38,0
2,note_on,45,0,120
2,note_on,52,31,0
2,note_on,52,0,120
2,note_on,61,34,0
2,note_on,61,0,120
2,note_on,64,31,0
2,note_on,64,0,120
2,note_on,57,36,0
2,note_on,57,0,120
2,note_on,61,31,0
2,note_on,61,0,120
2,note_on,50,35,0
2,note_on,50,0,120
2,note_on,59,31,0
2,note_on,59,0,120
2,note_on,62,34,0
2,note_on,62,0,120
2,note_on,66,31,0
2,note_on,66,0,120
2,note_on,59,31,0
2,note_on,59,0,120
2,note_on,62,31,0
2,note_on,62,0,120
2,note_on,52,38,0
2,note_on,52,0,120
2,note_on,61,31,0
2,note_on,61,0,120
2,note_on,69,34,0
2,note_on,69,0,120
2,note_on,73,31,0
2,note_on,73,0,120
2,note_on,64,36,0
2,note_on,64,0,120
2,note_on,69,31,0
2,note_on,69,0,120
2,note_on,52,35,0
2,note_on,52,0,120
2,note_on,62,31,0
2,note_on,62,0,120
2,note_on,68,34,0
2,note_on,68,0,120
2,note_on,71,31,0
2,note_on,71,0,120
2,note_on,62,31,0
2,note_on,62,0,120
2,note_on,68,31,0
2,note_on,68,0,120
2,note_on,45,32,0
2,note_on,52,39,0
2,note_on,57,45,0
2,note_on,57,0,120
2,note_on,52,0,0
2,note_on,45,0,0
2,note_on,73,49,360
2,note_on,73,0,120
2,note_on,57,41,75
2,note_on,64,41,15
2,note_on,67,41,15
2,note_on,73,52,15
2,note_on,73,0,120
2,note_on,57,0,0
2,note_on,64,0,0
2,note_on,67,0,0
2,note_on,71,49,240
2,note_on,71,0,60
2,note_on,73,46,60
2,note_on,73,0,120
2,note_on,62,43,90
2,note_on,66,43,15
2,note_on,74,54,15
2,note_on,74,0,120
2,note_on,66,0,0
2,note_on,62,0,0
2,note_on,76,45,240
2,note_on,76,0,60
2,note_on,74,48,60
2,note_on,74,0,90
2,note_on,57,41,105
2,note_on,64,41,15
2,note_on,67,41,15
2,note_on,73,52,15
2,note_on,73,0,120
2,note_on,57,0,0
2,note_on,64,0,0
2,note_on,67,0,0
2,note_on,71,49,240
2,note_on,71,0,60
2,note_on,73,46,60
2,note_on,73,0,120
2,note_on,62,43,120
2,note_on,74,54,0
2,note_on,66,43,0
2,note_on,66,0,120
2,note_on,74,0,0
2,note_on,62,0,0
2,note_on,52,43,1770
2,note_on,61,43,15
2,note_on,69,54,15
2,note_on,69,0,120
2,note_on,61,0,0
2,note_on,52,0,0
2,note_on,71,45,240
2,note_on,71,0,60
2,note_on,69,48,60
2,note_on,69,0,90
2,note_on,52,41,105
2,note_on,59,41,15
2,note_on,62,41,15
2,note_on,68,52,15
2,note_on,68,0,120
2,note_on,52,0,0
2,note_on,59,0,0
2,note_on,62,0,0
2,note_on,66,49,240
2,note_on,66,0,60
2,note_on,68,46,60
2,note_on,68,0,120
2,note_on,57,43,120
2,note_on,69,54,0
2,note_on,61,43,0
2,note_on,61,0,120
2,note_on,69,0,0
2,note_on,57,0,0
2,note_on,45,41,1275
2,note_on,52,41,15
2,note_on,55,41,15
2,note_on,61,57,15
2,note_on,61,0,120
2,note_on,45,0,0
2,note_on,52,0,0
2,note_on,55,0,0
2,note_on,59,54,240
2,note_on,59,0,60
2,note_on,61,51,60
2,note_on,61,0,120
2,note_on,50,43,120
2,note_on,54,43,0
2,note_on,62,59,0
2,note_on,62,0,120
2,note_on,54,0,0
2,note_on,50,0,0
2,note_on,64,50,240
2,note_on,64,0,60
2,note_on,62,53,60
2,note_on,62,0,90
2,note_on,45,41,150
2,note_on,52,41,0
2,note_on,55,41,0
2,note_on,61,56,0
2,note_on,61,0,120
2,note_on,45,0,0
2,note_on,52,0,0
2,note_on,55,0,0
2,note_on,59,54,240
2,note_on,59,0,60
2,note_on,61,51,60
2,note_on,61,0,120
2,note_on,50,43,120
2,note_on,54,43,0
2,note_on,62,59,0
2,note_on,62,0,120
2,note_on,54,0,0
2,note_on,50,0,0
2,note_on,40,43,1770
2,note_on,49,43,15
2,note_on,57,55,15
2,note_on,57,0,120
2,note_on,49,0,0
2,note_on,40,0,0
2,note_on,59,50,240
2,note_on,59,0,60
2,note_on,57,53,60
2,note_on,57,0,90
2,note_on,40,41,105
2,note_on,47,41,15
2,note_on,50,41,15
2,note_on,56,54,15
2,note_on,56,0,120
2,note_on,40,0,0
2,note_on,47,0,0
2,note_on,50,0,0
2,note_on,54,54,240
2,note_on,54,0,60
2,note_on,56,51,60
2,note_on,56,0,120
2,note_on,45,43,120
2,note_on,49,43,0
2,note_on,57,55,0
2,note_on,57,0,120
2,note_on,49,0,0
2,note_on,45,0,0
2,note_on,57,58,2040
2,note_on,40,49,0
2,note_on,49,49,0
2,note_on,49,0,120
2,note_on,40,0,0
2,note_on,57,0,0
2,note_on,62,47,240
2,note_on,59,40,0
2,note_on,59,0,60
2,note_on,62,0,0
2,note_on,61,51,60
2,note_on,57,43,0
2,note_on,57,0,90
2,note_on,61,0,0
2,note_on,59,54,150
2,note_on,52,45,0
2,note_on,56,45,0
2,note_on,56,0,120
2,note_on,52,0,0
2,note_on,59,0,0
2,note_on,57,50,240
2,note_on,54,42,0
2,note_on,54,0,60
2,note_on,57,0,0
2,note_on,59,52,60
2,note_on,56,44,0
2,note_on,56,0,120
2,note_on,59,0,0
2,note_on,45,55,75
2,note_on,52,55,15
2,note_on,57,55,15
2,note_on,61,55,15
2,note_on,61,0,120
2,note_on,45,0,0
2,note_on,52,0,0
2,note_on,57,0,0
2,note_on,33,31,360
2,note_on,33,0,60
2,note_on,35,32,0
2,note_on,35,0,60
2,note_on,37,33,0
2,note_on,37,0,60
2,note_on,38,34,0
2,note_on,38,0,60
2,note_on,40,35,0
2,note_on,40,0,60
2,note_on,42,36,0
2,note_on,42,0,60
2,note_on,44,37,0
2,note_on,44,0,60
2,note_on,45,38,0
2,note_on,45,0,60
2,note_on,47,39,0
2,note_on,47,0,60
2,note_on,49,40,0
2,note_on,49,0,60
2,note_on,50,41,0
2,note_on,50,0,60
2,note_on,52,43,0
2,note_on,52,0,60
2,note_on,54,44,0
2,note_on,54,0,60
2,note_on,56,45,0
2,note_on,56,0,60
2,note_on,57,45,0
2,note_on,57,0,60
2,note_on,59,46,0
2,note_on,59,0,60
2,note_on,61,47,0
2,note_on,61,0,80
2,note_on,62,49,0
2,note_on,62,0,80
2,note_on,63,51,0
2,note_on,63,0,80
2,note_on,57,58,240
2,note_on,40,49,0
2,note_on,49,49,0
2,note_on,49,0,120
2,note_on,40,0,0
2,note_on,57,0,0
2,note_on,62,47,240
2,note_on,59,40,0
2,note_on,59,0,60
2,note_on,62,0,0
2,note_on,61,51,60
2,note_on,57,43,0
2,note_on,57,0,90
2,note_on,61,0,0
2,note_on,59,54,150
2,note_on,52,45,0
2,note_on,56,45,0
2,note_on,56,0,120
2,note_on,52,0,0
2,note_on,59,0,0
2,note_on,57,50,240
2,note_on,54,42,0
2,note_on,54,0,60
2,note_on,57,0,0
2,note_on,59,52,60
2,note_on,56,44,0
2,note_on,56,0,120
2,note_on,59,0,0
2,note_on,45,55,75
2,note_on,52,55,15
2,note_on,57,55,15
2,note_on,61,55,15
2,note_on,61,0,120
2,note_on,45,0,0
2,note_on,52,0,0
2,note_on,57,0,0
2,note_on,66,36,360
2,note_on,66,0,60
2,note_on,64,36,0
2,note_on,64,0,60
2,note_on,62,37,0
2,note_on,62,0,60
2,note_on,61,38,0
2,note_on,61,0,60
2,note_on,59,40,0
2,note_on,59,0,60
2,note_on,57,41,0
2,note_on,57,0,60
2,note_on,56,42,0
2,note_on,56,0,60
2,note_on,54,43,0
2,note_on,54,0,60
2,note_on,52,44,0
2,note_on,52,0,60
2,note_on,50,45,0
2,note_on,50,0,60
2,note_on,49,45,0
2,note_on,49,0,60
2,note_on,47,46,0
2,note_on,47,0,60
2,note_on,45,47,0
2,note_on,45,0,80
2,note_on,44,49,0
2,note_on,44,0,80
2,note_on,42,50,0
2,note_on,42,0,80
2,note_on,52,63,0
2,note_on,40,53,0
2,note_on,49,53,0
2,note_on,49,0,60
2,note_on,40,0,0
2,note_on,52,0,0
2,note_on,40,58,180
2,note_on,49,58,0
2,note_on,52,69,0
2,note_on,45,58,0
2,note_on,45,0,120
2,note_on,40,0,0
2,note_on,49,0,0
2,note_on,52,0,0
2,note_on,52,66,240
2,note_on,40,56,0
2,note_on,47,56,0
2,note_on,50,56,0
2,note_on,50,0,60
2,note_on,52,0,0
2,note_on,40,0,0
2,note_on,47,0,0
2,note_on,52,66,60
2,note_on,40,56,0
2,note_on,45,56,0
2,note_on,49,56,0
2,note_on,45,0,60
2,note_on,52,0,30
2,note_on,40,0,0
2,note_on,49,0,0
2,note_on,40,60,150
2,note_on,52,71,0
2,note_on,47,60,0
2,note_on,44,60,0
2,note_on,44,0,120
2,note_on,40,0,0
2,note_on,52,0,0
2,note_on,47,0,0
2,note_on,52,63,240
2,note_on,40,52,0
2,note_on,42,52,0
2,note_on,45,52,0
2,note_on,45,0,60
2,note_on,52,0,0
2,note_on,40,0,0
2,note_on,42,0,0
2,note_on,40,52,60
2,note_on,52,63,0
2,note_on,47,52,0
2,note_on,44,52,0
2,note_on,44,0,120
2,note_on,40,0,0
2,note_on,52,0,0
2,note_on,47,0,0
2,note_on,45,66,120
2,note_on,40,56,0
2,note_on,37,56,0
2,note_on,33,56,0
2,note_on,45,0,470
2,note_on,40,0,10
2,note_on,37,0,0
2,note_on,33,0,0
2,note_on,64,36,240
2,note_on,52,30,0
2,note_on,52,0,60
2,note_on,64,0,0
2,note_on,64,32,300
2,note_on,52,27,0
2,note_on,52,0,30
2,note_on,64,0,0
2,note_on,64,32,90
2,note_on,52,27,0
2,note_on,52,0,60
2,note_on,64,0,0
2,note_on,64,36,180
2,note_on,57,30,0
2,note_on,57,0,60
2,note_on,64,0,0
2,note_on,64,35,300
2,note_on,57,29,0
2,note_on,57,0,30
2,note_on,64,0,0
2,note_on,64,35,90
2,note_on,57,29,0
2,note_on,57,0,60
2,note_on,64,0,0
2,note_on,64,36,180
2,note_on,52,30,0
2,note_on,52,0,60
2,note_on,64,0,0
2,note_on,64,34,300
2,note_on,52,28,0
2,note_on,52,0,30
2,note_on,64,0,0
2,note_on,64,34,90
2,note_on,52,28,0
2,note_on,52,0,60
2,note_on,64,0,0
2,note_on,61,36,180
2,note_on,57,30,0
2,note_on,57,0,240
2,note_on,61,0,0
2,note_on,40,60,480
2,note_on,52,71,0
2,note_on,47,60,0
2,note_on,44,60,0
2,note_on,44,0,360
2,note_on,40,0,0
2,note_on,52,0,0
2,note_on,47,0,0
2,note_on,52,63,0
2,note_on,40,52,0
2,note_on,42,52,0
2,note_on,45,52,0
2,note_on,45,0,120
2,note_on,52,0,0
2,note_on,40,0,0
2,note_on,42,0,0
2,note_on,40,52,0
2,note_on,52,63,0
2,note_on,47,52,0
2,note_on,44,52,0
2,note_on,44,0,240
2,note_on,40,0,0
2,note_on,52,0,0
2,note_on,47,0,0
2,note_on,45,52,0
2,note_on,49,52,0
2,note_on,52,58,0
2,note_on,52,0,360
2,note_on,49,0,0
2,note_on,45,0,0
2,note_on,52,66,0
2,note_on,47,56,0
2,note_on,50,56,0
2,note_on,50,0,120
2,note_on,47,0,0
2,note_on,52,0,0
2,note_on,52,66,0
2,note_on,45,56,0
2,note_on,49,56,0
2,note_on,49,0,240
2,note_on,45,0,0
2,note_on,52,0,0
2,note_on,40,60,0
2,note_on,52,71,0
2,note_on,47,60,0
2,note_on,44,60,0
2,note_on,44,0,360
2,note_on,40,0,0
2,note_on,52,0,0
2,note_on,47,0,0
2,note_on,52,63,0
2,note_on,40,52,0
2,note_on,42,52,0
2,note_on,45,52,0
2,note_on,45,0,120
2,note_on,52,0,0
2,note_on,40,0,0
2,note_on,42,0,0
2,note_on,40,52,0
2,note_on,52,63,0
2,note_on,47,52,0
2,note_on,44,52,0
2,note_on,44,0,240
2,note_on,40,0,0
2,note_on,52,0,0
2,note_on,47,0,0
2,note_on,45,66,0
2,note_on,40,56,0
2,note_on,37,56,0
2,note_on,33,56,0
2,note_on,33,0,180
2,note_on,45,0,0
2,note_on,40,0,0
2,note_on,37,0,0
2,note_on,62,45,1620
2,note_on,62,0,60
2,note_on,64,45,60
2,note_on,64,0,60
2,note_on,66,54,180
2,note_on,66,0,180
2,note_on,61,46,180
2,note_on,61,0,60
2,note_on,63,46,60
2,note_on,63,0,60
2,note_on,59,51,180
2,note_on,59,0,180
2,note_on,56,47,180
2,note_on,56,0,60
2,note_on,61,47,60
2,note_on,61,0,60
2,note_on,60,52,180
2,note_on,60,0,180
2,note_on,54,46,180
2,note_on,54,0,60
2,note_on,47,46,60
2,note_on,47,0,60
2,note_on,40,53,180
2,note_on,40,0,180
2,note_on,59,48,180
2,note_on,52,40,0
2,note_on,52,0,60
2,note_on,59,0,0
2,note_on,59,48,60
2,note_on,53,40,0
2,note_on,53,0,60
2,note_on,59,0,0
2,note_on,60,51,180
2,note_on,54,43,0
2,note_on,54,0,180
2,note_on,60,0,0
2,note_on,59,48,180
2,note_on,55,40,0
2,note_on,55,0,60
2,note_on,59,0,0
2,note_on,62,48,60
2,note_on,56,40,0
2,note_on,56,0,60
2,note_on,62,0,0
2,note_on,61,54,180
2,note_on,57,45,0
2,note_on,57,0,180
2,note_on,61,0,0
2,note_on,45,37,540
2,note_on,61,46,0
2,note_on,52,39,0
2,note_on,52,0,180
2,note_on,61,0,0
2,note_on,45,0,0
2,note_on,62,48,900
2,note_on,50,40,0
2,note_on,50,0,60
2,note_on,62,0,0
2,note_on,64,52,60
2,note_on,52,44,0
2,note_on,52,0,60
2,note_on,64,0,0
2,note_on,66,58,180
2,note_on,54,49,0
2,note_on,54,0,180
2,note_on,66,0,0
2,note_on,61,51,180
2,note_on,49,43,0
2,note_on,49,0,60
2,note_on,61,0,0
2,note_on,62,52,60
2,note_on,50,44,0
2,note_on,50,0,60
2,note_on,62,0,0
2,note_on,59,55,180
2,note_on,52,46,0
2,note_on,52,0,180
2,note_on,59,0,0
2,note_on,52,51,180
2,note_on,47,43,0
2,note_on,40,43,0
2,note_on,40,0,60
2,note_on,47,0,0
2,note_on,52,0,0
2,note_on,54,51,60
2,note_on,47,43,0
2,note_on,42,43,0
2,note_on,42,0,60
2,note_on,47,0,0
2,note_on,54,0,0
2,note_on,56,56,180
2,note_on,47,47,0
2,note_on,44,47,0
2,note_on,44,0,180
2,note_on,47,0,0
2,note_on,56,0,0
2,note_on,51,49,180
2,note_on,39,41,0
2,note_on,39,0,60
2,note_on,51,0,0
2,note_on,52,49,60
2,note_on,47,41,0
2,note_on,40,41,0
2,note_on,40,0,60
2,note_on,47,0,0
2,note_on,52,0,0
2,note_on,49,55,180
2,note_on,37,46,0
2,note_on,40,46,0
2,note_on,45,46,0
2,note_on,45,0,180
2,note_on,49,0,0
2,note_on,37,0,0
2,note_on,40,0,0
2,note_on,61,56,60
2,note_on,57,47,0
2,note_on,52,47,0
2,note_on,52,0,120
2,note_on,57,0,0
2,note_on,61,0,0
2,note_on,64,61,120
2,note_on,61,51,0
2,note_on,57,51,0
2,note_on,57,0,480
2,note_on,61,0,0
2,note_on,64,0,0
2,note_on,59,58,0
2,note_on,44,48,0
2,note_on,52,48,0
2,note_on,52,0,60
2,note_on,44,0,0
2,note_on,59,0,0
2,note_on,60,58,180
2,note_on,52,48,0
2,note_on,44,48,0
2,note_on,44,0,60
2,note_on,52,0,0
2,note_on,60,0,0
2,note_on,62,63,180
2,note_on,52,52,0
2,note_on,45,52,0
2,note_on,45,0,180
2,note_on,52,0,0
2,note_on,62,0,0
2,note_on,61,56,180
2,note_on,52,47,0
2,note_on,45,47,0
2,note_on,45,0,60
2,note_on,52,0,0
2,note_on,61,0,0
2,note_on,59,56,60
2,note_on,50,47,0
2,note_on,45,47,0
2,note_on,45,0,60
2,note_on,50,0,0
2,note_on,59,0,0
2,note_on,57,64,180
2,note_on,49,54,0
2,note_on,40,54,0
2,note_on,40,0,240
2,note_on,49,0,0
2,note_on,57,0,0
2,note_on,61,56,120
2,note_on,52,47,0
2,note_on,56,47,0
2,note_on,56,0,60
2,note_on,52,0,0
2,note_on,61,0,0
2,note_on,59,56,60
2,note_on,56,47,0
2,note_on,50,47,0
2,note_on,50,0,60
2,note_on,56,0,0
2,note_on,59,0,0
2,note_on,57,62,180
2,note_on,45,52,0
2,note_on,49,52,0
2,note_on,49,0,120
2,note_on,45,0,0
2,note_on,57,0,0
2,note_on,45,59,240
2,note_on,33,49,0
2,note_on,33,0,60
2,note_on,45,0,0
2,note_on,47,60,60
2,note_on,35,50,0
2,note_on,35,0,60
2,note_on,47,0,0
2,note_on,49,65,180
2,note_on,37,54,0
2,note_on,37,0,180
2,note_on,49,0,0
2,note_on,45,59,180
2,note_on,33,49,0
2,note_on,33,0,60
2,note_on,45,0,0
2,note_on,41,59,60
2,note_on,29,49,0
2,note_on,29,0,60
2,note_on,41,0,0
2,note_on,40,63,180
2,note_on,28,63,0
2,note_on,28,0,180
2,note_on,40,0,0
2,note_on,59,50,180
2,note_on,56,42,0
2,note_on,56,0,60
2,note_on,59,0,0
2,note_on,56,50,60
2,note_on,52,42,0
2,note_on,52,0,60
2,note_on,56,0,0
2,note_on,52,59,180
2,note_on,40,50,0
2,note_on,45,50,0
2,note_on,45,0,180
2,note_on,40,0,0
2,note_on,52,0,0
2,note_on,64,51,180
2,note_on,61,43,0
2,note_on,61,0,60
2,note_on,64,0,0
2,note_on,61,51,60
2,note_on,57,43,0
2,note_on,57,0,60
2,note_on,61,0,0
2,note_on,52,62,180
2,note_on,40,52,0
2,note_on,47,52,0
2,note_on,47,0,240
2,note_on,40,0,0
2,note_on,52,0,0
2,note_on,59,50,120
2,note_on,56,42,0
2,note_on,56,0,60
2,note_on,59,0,0
2,note_on,56,50,60
2,note_on,52,42,0
2,note_on,52,0,60
2,note_on,56,0,0
2,note_on,71,53,180
2,note_on,68,44,0
2,note_on,68,0,120
2,note_on,71,0,0
2,note_on,68,53,120
2,note_on,64,44,0
2,note_on,64,0,120
2,note_on,68,0,0
2,note_on,83,53,120
2,note_on,76,44,0
2,note_on,76,0,120
2,note_on,83,0,0
2,note_on,83,59,120
2,note_on,75,50,0
2,note_on,75,0,120
2,note_on,83,0,0
2,note_on,71,47,120
2,note_on,71,0,80
2,note_on,72,47,0
2,note_on,72,0,80
2,note_on,73,47,0
2,note_on,73,0,80
2,note_on,72,53,0
2,note_on,72,0,120
2,note_on,61,50,120
2,note_on,61,0,80
2,note_on,62,50,0
2,note_on,62,0,80
2,note_on,63,50,0
2,note_on,63,0,80
2,note_on,62,55,0
2,note_on,62,0,120
2,note_on,49,47,120
2,note_on,49,0,80
2,note_on,50,47,0
2,note_on,50,0,80
2,note_on,51,47,0
2,note_on,51,0,80
2,note_on,52,54,0
2,note_on,52,0,120
2,note_on,64,38,120
2,note_on,66,39,64
2,note_on,64,0,4
2,note_on,68,39,59
2,note_on,66,0,4
2,note_on,68,0,64
2,note_on,66,41,7
2,note_on,64,41,53
2,note_on,66,0,15
2,note_on,63,39,48
2,note_on,64,0,4
2,note_on,61,37,60
2,note_on,63,0,4
2,note_on,59,35,59
2,note_on,61,0,4
2,note_on,57,36,60
2,note_on,59,0,4
2,note_on,57,0,60
2,note_on,56,36,0
2,note_on,54,38,63
2,note_on,56,0,4
2,note_on,52,39,60
2,note_on,54,0,4
2,note_on,51,40,59
2,note_on,52,0,4
2,note_on,49,41,60
2,note_on,51,0,4
2,note_on,47,42,60
2,note_on,49,0,4
2,note_on,45,43,59
2,note_on,47,0,4
2,note_on,44,45,60
2,note_on,45,0,4
2,note_on,42,45,58
2,note_on,44,0,5
2,note_on,42,0,55
2,note_on,40,55,60
2,note_on,47,55,0
2,note_on,52,63,0
2,note_on,52,0,180
2,note_on,47,0,0
2,note_on,40,0,0
2,note_on,59,45,180
2,note_on,56,37,0
2,note_on,56,0,60
2,note_on,59,0,0
2,note_on,56,45,60
2,note_on,52,37,0
2,note_on,52,0,60
2,note_on,56,0,0
2,note_on,45,45,180
2,note_on,40,45,0
2,note_on,52,53,0
2,note_on,52,0,240
2,note_on,40,0,0
2,note_on,45,0,0
2,note_on,64,45,120
2,note_on,61,38,0
2,note_on,61,0,60
2,note_on,64,0,0
2,note_on,57,38,60
2,note_on,61,45,0
2,note_on,61,0,60
2,note_on,57,0,0
2,note_on,52,55,180
2,note_on,40,46,0
2,note_on,47,46,0
2,note_on,47,0,240
2,note_on,40,0,0
2,note_on,52,0,0
2,note_on,56,37,120
2,note_on,59,45,0
2,note_on,59,0,60
2,note_on,56,0,0
2,note_on,56,45,60
2,note_on,52,37,0
2,note_on,52,0,60
2,note_on,56,0,0
2,note_on,71,47,180
2,note_on,68,39,0
2,note_on,68,0,120
2,note_on,71,0,0
2,note_on,68,47,120
2,note_on,64,39,0
2,note_on,64,0,120
2,note_on,68,0,0
2,note_on,76,39,120
2,note_on,83,47,0
2,note_on,83,0,120
2,note_on,76,0,0
2,note_on,83,53,120
2,note_on,75,45,0
2,note_on,75,0,120
2,note_on,83,0,0
2,note_on,71,42,120
2,note_on,71,0,80
2,note_on,72,42,0
2,note_on,72,0,80
2,note_on,73,42,0
2,note_on,73,0,80
2,note_on,72,47,0
2,note_on,72,0,120
2,note_on,61,45,120
2,note_on,61,0,80
2,note_on,62,45,0
2,note_on,62,0,80
2,note_on,63,45,0
2,note_on,63,0,80
2,note_on,62,49,0
2,note_on,62,0,120
2,note_on,49,42,120
2,note_on,49,0,80
2,note_on,50,42,0
2,note_on,50,0,80
2,note_on,51,42,0
2,note_on,51,0,80
2,note_on,52,53,0
2,note_on,52,0,120
2,note_on,59,47,120
2,note_on,59,0,80
2,note_on,60,47,0
2,note_on,60,0,80
2,note_on,61,47,0
2,note_on,61,0,80
2,note_on,60,53,0
2,note_on,60,0,120
2,note_on,49,50,120
2,note_on,49,0,80
2,note_on,50,50,0
2,note_on,50,0,80
2,note_on,51,50,0
2,note_on,51,0,80
2,note_on,50,55,0
2,note_on,50,0,120
2,note_on,37,47,120
2,note_on,37,0,80
2,note_on,38,47,0
2,note_on,38,0,80
2,note_on,39,47,0
2,note_on,39,0,80
2,note_on,40,59,0
2,note_on,40,0,120
2,note_on,58,67,120
2,note_on,46,53,0
2,note_on,46,0,180
2,note_on,58,0,0
2,note_on,57,68,60
2,note_on,45,54,0
2,note_on,45,0,180
2,note_on,57,0,0
2,note_on,56,70,60
2,note_on,44,56,0
2,note_on,44,0,180
2,note_on,56,0,0
2,note_on,55,72,60
2,note_on,43,58,0
2,note_on,43,0,180
2,note_on,55,0,0
2,note_on,54,72,60
2,note_on,42,58,0
2,note_on,42,0,180
2,note_on,54,0,0
2,note_on,52,71,60
2,note_on,40,58,0
2,note_on,47,58,0
2,note_on,47,0,120
2,note_on,40,0,0
2,note_on,52,0,0
2,note_on,68,67,360
2,note_on,68,0,120
2,note_on,64,62,0
2,note_on,64,0,120
2,note_on,92,72,240
2,note_on,92,0,120
2,note_on,88,66,0
2,note_on,88,0,120
2,note_on,52,71,240
2,note_on,40,58,0
2,note_on,47,58,0
2,note_on,47,0,120
2,note_on,40,0,0
2,note_on,52,0,0
2,note_on,71,67,360
2,note_on,68,61,0
2,note_on,68,0,120
2,note_on,71,0,0
2,note_on,64,62,0
2,note_on,64,0,120
2,note_on,92,72,240
2,note_on,92,0,120
2,note_on,88,66,0
2,note_on,88,0,120
2,note_on,40,50,240
2,note_on,47,58,15
2,note_on,50,64,15
2,note_on,56,72,15
2,note_on,56,0,135
2,note_on,40,0,0
2,note_on,47,0,0
2,note_on,50,0,0
2,note_on,88,56,60
2,note_on,85,56,0
2,note_on,85,0,120
2,note_on,88,0,0
2,note_on,83,58,120
2,note_on,86,58,0
2,note_on,86,0,120
2,note_on,83,0,0
2,note_on,85,59,120
2,note_on,81,59,0
2,note_on,81,0,120
2,note_on,85,0,0
2,note_on,83,61,120
2,note_on,80,61,0
2,note_on,80,0,120
2,note_on,83,0,0
2,note_on,81,62,120
2,note_on,78,62,0
2,note_on,78,0,120
2,note_on,81,0,0
2,note_on,80,63,120
2,note_on,76,52,0
2,note_on,76,0,120
2,note_on,80,0,0
2,note_on,78,63,120
2,note_on,74,52,0
2,note_on,74,0,120
2,note_on,78,0,0
2,note_on,76,63,120
2,note_on,73,53,0
2,note_on,73,0,120
2,note_on,76,0,0
2,note_on,74,64,120
2,note_on,71,54,0
2,note_on,71,0,120
2,note_on,74,0,0
2,note_on,73,66,120
2,note_on,69,56,0
2,note_on,69,0,120
2,note_on,73,0,0
2,note_on,71,68,120
2,note_on,68,57,0
2,note_on,68,0,120
2,note_on,71,0,0
2,note_on,69,68,120
2,note_on,66,57,0
2,note_on,66,0,120
2,note_on,69,0,0
2,note_on,68,69,120
2,note_on,64,59,0
2,note_on,64,0,120
2,note_on,68,0,0
2,note_on,66,70,120
2,note_on,62,60,0
2,note_on,62,0,120
2,note_on,66,0,0
2,note_on,64,72,120
2,note_on,61,61,0
2,note_on,61,0,120
2,note_on,64,0,0
2,note_on,62,75,120
2,note_on,59,63,0
2,note_on,59,0,120
2,note_on,62,0,0
2,note_on,61,76,120
2,note_on,57,63,0
2,note_on,57,0,120
2,note_on,61,0,0
2,note_on,59,76,120
2,note_on,56,63,0
2,note_on,56,0,180
2,note_on,59,0,0
2,note_on,57,77,60
2,note_on,54,64,0
2,note_on,54,0,180
2,note_on,57,0,0
2,note_on,57,79,60
2,note_on,53,66,0
2,note_on,53,0,180
2,note_on,57,0,0
2,note_on,57,81,60
2,note_on,52,69,0
2,note_on,52,0,180
2,note_on,57,0,0
2,note_on,57,82,60
2,note_on,51,69,0
2,note_on,51,0,180
2,note_on,57,0,0
2,note_on,52,84,60
2,note_on,50,70,0
2,note_on,40,70,0
2,note_on,44,70,0
2,note_on,44,0,180
2,note_on,52,0,0
2,note_on,50,0,0
2,note_on,40,0,0
2,note_on,45,89,60
2,note_on,33,75,0
2,note_on,40,75,0
2,note_on,40,0,120
2,note_on,33,0,0
2,note_on,45,0,0
2,note_on,45,51,600
2,note_on,52,51,0
2,note_on,61,59,0
2,note_on,61,0,180
2,note_on,52,0,0
2,note_on,45,0,0
2,note_on,62,69,900
2,note_on,50,57,0
2,note_on,50,0,60
2,note_on,62,0,0
2,note_on,64,69,60
2,note_on,52,57,0
2,note_on,52,0,60
2,note_on,64,0,0
2,note_on,66,78,180
2,note_on,54,65,0
2,note_on,54,0,180
2,note_on,66,0,0
2,note_on,61,67,180
2,note_on,49,57,0
2,note_on,49,0,60
2,note_on,61,0,0
2,note_on,63,67,60
2,note_on,51,57,0
2,note_on,51,0,60
2,note_on,63,0,0
2,note_on,59,77,180
2,note_on,47,64,0
2,note_on,47,0,180
2,note_on,59,0,0
2,note_on,56,69,180
2,note_on,44,57,0
2,note_on,44,0,60
2,note_on,56,0,0
2,note_on,61,69,60
2,note_on,49,57,0
2,note_on,49,0,60
2,note_on,61,0,0
2,note_on,60,77,180
2,note_on,48,64,0
2,note_on,48,0,240
2,note_on,60,0,0
2,note_on,54,66,120
2,note_on,42,56,0
2,note_on,42,0,60
2,note_on,54,0,0
2,note_on,47,66,60
2,note_on,35,56,0
2,note_on,35,0,60
2,note_on,47,0,0
2,note_on,52,72,180
2,note_on,40,60,0
2,note_on,47,60,0
2,note_on,47,0,180
2,note_on,40,0,0
2,note_on,52,0,0
2,note_on,52,66,180
2,note_on,40,56,0
2,note_on,40,0,60
2,note_on,52,0,0
2,note_on,51,66,60
2,note_on,39,56,0
2,note_on,39,0,60
2,note_on,51,0,0
2,note_on,50,72,180
2,note_on,38,60,0
2,note_on,38,0,240
2,note_on,50,0,0
2,note_on,53,69,120
2,note_on,41,57,0
2,note_on,41,0,60
2,note_on,53,0,0
2,note_on,52,69,60
2,note_on,40,57,0
2,note_on,40,0,60
2,note_on,52,0,0
2,note_on,45,76,180
2,note_on,40,76,0
2,note_on,33,63,0
2,note_on,33,0,180
2,note_on,40,0,0
2,note_on,45,0,0
2,note_on,57,80,180
2,note_on,45,67,0
2,note_on,45,0,60
2,note_on,57,0,0
2,note_on,59,82,60
2,note_on,47,70,0
2,note_on,47,0,60
2,note_on,59,0,0
2,note_on,61,86,180
2,note_on,49,72,0
2,note_on,49,0,180
2,note_on,61,0,0
2,note_on,57,80,180
2,note_on,45,67,0
2,note_on,45,0,60
2,note_on,57,0,0
2,note_on,56,80,60
2,note_on,44,67,0
2,note_on,44,0,60
2,note_on,56,0,0
2,note_on,54,86,180
2,note_on,42,72,0
2,note_on,42,0,180
2,note_on,54,0,0
2,note_on,47,70,270
2,note_on,54,70,15
2,note_on,62,83,15
2,note_on,62,0,720
2,note_on,54,0,0
2,note_on,47,0,0
2,note_on,50,72,0
2,note_on,38,60,0
2,note_on,47,60,0
2,note_on,47,0,60
2,note_on,38,0,0
2,note_on,50,0,0
2,note_on,52,77,180
2,note_on,40,64,0
2,note_on,47,64,0
2,note_on,47,0,180
2,note_on,40,0,0
2,note_on,52,0,0
2,note_on,52,72,180
2,note_on,47,62,0
2,note_on,40,62,0
2,note_on,40,0,60
2,note_on,47,0,0
2,note_on,52,0,0
2,note_on,54,72,60
2,note_on,47,62,0
2,note_on,42,62,0
2,note_on,42,0,60
2,note_on,47,0,0
2,note_on,54,0,0
2,note_on,56,79,180
2,note_on,47,66,0
2,note_on,44,66,0
2,note_on,44,0,180
2,note_on,47,0,0
2,note_on,56,0,0
2,note_on,47,58,180
2,note_on,51,70,0
2,note_on,39,58,0
2,note_on,39,0,60
2,note_on,51,0,0
2,note_on,47,0,0
2,note_on,47,70,60
2,note_on,52,58,0
2,note_on,40,58,0
2,note_on,40,0,60
2,note_on,52,0,0
2,note_on,47,0,0
2,note_on,49,76,180
2,note_on,37,63,0
2,note_on,40,63,0
2,note_on,45,63,0
2,note_on,45,0,180
2,note_on,49,0,0
2,note_on,37,0,0
2,note_on,40,0,0
2,note_on,61,77,60
2,note_on,57,64,0
2,note_on,52,64,0
2,note_on,52,0,120
2,note_on,57,0,0
2,note_on,61,0,0
2,note_on,64,80,120
2,note_on,61,67,0
2,note_on,57,67,0
2,note_on,57,0,480
2,note_on,61,0,0
2,note_on,64,0,0
2,note_on,59,77,0
2,note_on,44,64,0
2,note_on,52,64,0
2,note_on,52,0,60
2,note_on,44,0,0
2,note_on,59,0,0
2,note_on,60,77,180
2,note_on,52,64,0
2,note_on,44,64,0
2,note_on,44,0,60
2,note_on,52,0,0
2,note_on,60,0,0
2,note_on,62,80,180
2,note_on,52,67,0
2,note_on,45,67,0
2,note_on,45,0,180
2,note_on,52,0,0
2,note_on,62,0,0
2,note_on,61,72,180
2,note_on,52,62,0
2,note_on,45,62,0
2,note_on,45,0,60
2,note_on,52,0,0
2,note_on,61,0,0
2,note_on,60,72,60
2,note_on,52,62,0
2,note_on,45,62,0
2,note_on,45,0,60
2,note_on,52,0,0
2,note_on,60,0,0
2,note_on,59,80,180
2,note_on,51,67,0
2,note_on,45,67,0
2,note_on,45,0,180
2,note_on,51,0,0
2,note_on,59,0,0
2,note_on,58,72,60
2,note_on,45,62,0
2,note_on,50,62,0
2,note_on,50,0,120
2,note_on,45,0,0
2,note_on,58,0,0
2,note_on,57,72,120
2,note_on,49,62,0
2,note_on,45,62,0
2,note_on,45,0,60
2,note_on,49,0,0
2,note_on,57,0,0
2,note_on,57,81,180
2,note_on,49,69,0
2,note_on,40,69,0
2,note_on,40,0,180
2,note_on,49,0,0
2,note_on,57,0,0
2,note_on,56,72,60
2,note_on,48,62,0
2,note_on,40,62,0
2,note_on,40,0,120
2,note_on,48,0,0
2,note_on,56,0,0
2,note_on,57,72,120
2,note_on,49,62,0
2,note_on,40,62,0
2,note_on,40,0,60
2,note_on,49,0,0
2,note_on,57,0,0
2,note_on,61,81,180
2,note_on,56,69,0
2,note_on,52,69,0
2,note_on,52,0,480
2,note_on,56,0,0
2,note_on,61,0,0
2,note_on,59,73,0
2,note_on,56,63,0
2,note_on,50,63,0
2,note_on,50,0,60
2,note_on,56,0,0
2,note_on,59,0,0
2,note_on,57,84,180
2,note_on,45,71,0
2,note_on,49,71,0
2,note_on,49,0,240
2,note_on,45,0,0
2,note_on,57,0,0
2,note_on,69,75,840
2,note_on,57,63,0
2,note_on,57,0,120
2,note_on,69,0,0
2,note_on,69,75,0
2,note_on,57,63,0
2,note_on,57,0,120
2,note_on,69,0,0
2,note_on,69,81,120
2,note_on,57,68,0
2,note_on,57,0,120
2,note_on,69,0,0
2,note_on,45,72,960
2,note_on,33,61,0
2,note_on,33,0,120
2,note_on,45,0,0
2,note_on,45,72,0
2,note_on,33,61,0
2,note_on,33,0,120
2,note_on,45,0,0
2,note_on,45,80,120
2,note_on,33,67,0
2,note_on,48,49,360
2,note_on,51,49,0
2,note_on,54,49,0
2,note_on,54,0,120
2,note_on,48,0,0
2,note_on,51,0,0
2,note_on,48,49,0
2,note_on,51,49,0
2,note_on,54,49,0
2,note_on,54,0,240
2,note_on,48,0,0
2,note_on,45,0,0
2,note_on,33,0,0
2,note_on,51,0,0
2,note_on,45,64,0
2,note_on,33,54,0
2,note_on,48,50,360
2,note_on,51,50,0
2,note_on,54,50,0
2,note_on,54,0,120
2,note_on,48,0,0
2,note_on,45,0,0
2,note_on,33,0,0
2,note_on,51,0,0
2,note_on,48,50,0
2,note_on,51,50,0
2,note_on,54,50,0
2,note_on,33,49,180
2,note_on,45,57,0
2,note_on,45,0,60
2,note_on,54,0,0
2,note_on,48,0,0
2,note_on,51,0,0
2,note_on,33,0,0
2,note_on,45,80,0
2,note_on,33,67,0
2,note_on,48,49,360
2,note_on,51,49,0
2,note_on,54,49,0
2,note_on,54,0,120
2,note_on,48,0,0
2,note_on,51,0,0
2,note_on,48,49,0
2,note_on,51,49,0
2,note_on,54,49,0
2,note_on,54,0,240
2,note_on,48,0,0
2,note_on,45,0,0
2,note_on,33,0,0
2,note_on,51,0,0
2,note_on,45,64,0
2,note_on,33,54,0
2,note_on,48,50,360
2,note_on,51,50,0
2,note_on,54,50,0
2,note_on,54,0,120
2,note_on,48,0,0
2,note_on,45,0,0
2,note_on,33,0,0
2,note_on,51,0,0
2,note_on,48,50,0
2,note_on,51,50,0
2,note_on,54,50,0
2,note_on,54,0,240
2,note_on,51,0,0
2,note_on,48,0,0
2,note_on,46,80,0
2,note_on,34,67,0
2,note_on,51,49,360
2,note_on,54,49,0
2,note_on,54,0,60
2,note_on,51,0,0
2,note_on,51,49,60
2,note_on,54,49,0
2,note_on,54,0,120
2,note_on,51,0,0
2,note_on,51,49,120
2,note_on,54,49,0
2,note_on,54,0,360
2,note_on,51,0,0
2,note_on,49,50,0
2,note_on,52,50,0
2,note_on,52,0,60
2,note_on,49,0,0
2,note_on,49,50,60
2,note_on,52,50,0
2,note_on,52,0,120
2,note_on,49,0,0
2,note_on,34,0,120
2,note_on,46,0,0
2,note_on,46,49,0
2,note_on,49,49,0
2,note_on,52,49,0
2,note_on,52,0,360
2,note_on,49,0,0
2,note_on,50,50,0
2,note_on,53,50,0
2,note_on,53,0,60
2,note_on,50,0,0
2,note_on,46,0,60
2,note_on,50,50,0
2,note_on,53,50,0
2,note_on,53,0,120
2,note_on,50,0,0
2,note_on,50,49,120
2,note_on,53,49,0
2,note_on,53,0,360
2,note_on,50,0,0
2,note_on,46,50,0
2,note_on,51,50,0
2,note_on,54,50,0
2,note_on,54,0,60
2,note_on,51,0,0
2,note_on,46,0,0
2,note_on,46,50,60
2,note_on,52,50,0
2,note_on,55,50,0
2,note_on,55,0,120
2,note_on,52,0,0
2,note_on,46,0,0
2,note_on,47,49,120
2,note_on,53,49,0
2,note_on,56,49,0
2,note_on,56,0,120
2,note_on,53,0,0
2,note_on,47,0,0
2,note_on,71,75,960
2,note_on,59,63,0
2,note_on,59,0,120
2,note_on,71,0,0
2,note_on,71,75,0
2,note_on,59,63,0
2,note_on,59,0,120
2,note_on,71,0,0
2,note_on,71,81,120
2,note_on,59,68,0
2,note_on,59,0,120
2,note_on,71,0,0
2,note_on,35,61,240
2,note_on,47,72,0
2,note_on,47,0,120
2,note_on,35,0,0
2,note_on,35,61,0
2,note_on,47,72,0
2,note_on,47,0,120
2,note_on,35,0,0
2,note_on,35,61,120
2,note_on,47,72,0
2,note_on,47,0,120
2,note_on,35,0,0
2,note_on,50,50,240
2,note_on,53,50,0
2,note_on,56,50,0
2,note_on,56,0,120
2,note_on,53,0,0
2,note_on,50,0,0
2,note_on,49,50,0
2,note_on,53,50,0
2,note_on,56,50,0
2,note_on,35,49,180
2,note_on,47,57,0
2,note_on,47,0,60
2,note_on,56,0,0
2,note_on,49,0,0
2,note_on,53,0,0
2,note_on,35,0,0
2,note_on,48,80,0
2,note_on,36,67,0
2,note_on,53,49,360
2,note_on,56,49,0
2,note_on,56,0,60
2,note_on,53,0,0
2,note_on,53,49,60
2,note_on,56,49,0
2,note_on,56,0,120
2,note_on,53,0,0
2,note_on,53,49,120
2,note_on,56,49,0
2,note_on,56,0,360
2,note_on,53,0,0
2,note_on,51,50,0
2,note_on,54,50,0
2,note_on,54,0,60
2,note_on,51,0,0
2,note_on,51,50,60
2,note_on,54,50,0
2,note_on,54,0,120
2,note_on,51,0,0
2,note_on,36,0,120
2,note_on,48,0,0
2,note_on,48,49,0
2,note_on,51,49,0
2,note_on,54,49,0
2,note_on,54,0,360
2,note_on,51,0,0
2,note_on,52,50,0
2,note_on,55,50,0
2,note_on,55,0,60
2,note_on,52,0,0
2,note_on,52,50,60
2,note_on,55,50,0
2,note_on,55,0,120
2,note_on,52,0,0
2,note_on,52,49,120
2,note_on,55,49,0
2,note_on,48,0,240
2,note_on,55,0,120
2,note_on,52,0,0
2,note_on,48,50,0
2,note_on,53,50,0
2,note_on,56,50,0
2,note_on,56,0,60
2,note_on,53,0,0
2,note_on,48,0,0
2,note_on,48,50,60
2,note_on,54,50,0
2,note_on,57,50,0
2,note_on,57,0,120
2,note_on,54,0,0
2,note_on,48,0,0
2,note_on,49,49,120
2,note_on,55,49,0
2,note_on,58,49,0
2,note_on,58,0,120
2,note_on,55,0,0
2,note_on,49,0,0
2,note_on,73,75,960
2,note_on,61,63,0
2,note_on,61,0,120
2,note_on,73,0,0
2,note_on,73,75,0
2,note_on,61,63,0
2,note_on,61,0,120
2,note_on,73,0,0
2,note_on,73,81,120
2,note_on,61,68,0
2,note_on,61,0,120
2,note_on,73,0,0
2,note_on,43,51,240
2,note_on,46,51,0
2,note_on,37,51,0
2,note_on,49,51,0
2,note_on,49,0,120
2,note_on,43,0,0
2,note_on,46,0,0
2,note_on,37,0,0
2,note_on,42,51,0
2,note_on,46,51,0
2,note_on,37,51,0
2,note_on,49,51,0
2,note_on,49,0,120
2,note_on,42,0,0
2,note_on,46,0,0
2,note_on,37,0,0
2,note_on,43,57,120
2,note_on,37,57,0
2,note_on,49,57,0
2,note_on,46,57,11
2,note_on,49,0,109
2,note_on,43,0,0
2,note_on,37,0,0
2,note_on,46,0,11
2,note_on,38,50,229
2,note_on,43,50,0
2,note_on,46,50,0
2,note_on,50,50,0
2,note_on,50,0,120
2,note_on,38,0,0
2,note_on,43,0,0
2,note_on,46,0,0
2,note_on,46,50,0
2,note_on,38,50,0
2,note_on,43,50,0
2,note_on,50,50,0
2,note_on,50,0,120
2,note_on,46,0,0
2,note_on,38,0,0
2,note_on,43,0,0
2,note_on,43,49,120
2,note_on,49,49,0
2,note_on,39,49,0
2,note_on,46,49,0
2,note_on,51,49,0
2,note_on,51,0,120
2,note_on,39,0,0
2,note_on,43,0,0
2,note_on,49,0,0
2,note_on,46,0,0
2,note_on,75,75,960
2,note_on,63,63,0
2,note_on,63,0,120
2,note_on,75,0,0
2,note_on,75,75,0
2,note_on,63,63,0
2,note_on,63,0,120
2,note_on,75,0,0
2,note_on,75,81,120
2,note_on,63,68,0
2,note_on,63,0,120
2,note_on,75,0,0
2,note_on,49,51,240
2,note_on,46,51,0
2,note_on,39,51,0
2,note_on,51,51,0
2,note_on,51,0,120
2,note_on,49,0,0
2,note_on,46,0,0
2,note_on,39,0,0
2,note_on,46,51,0
2,note_on,49,51,0
2,note_on,39,51,0
2,note_on,51,51,0
2,note_on,51,0,120
2,note_on,46,0,0
2,note_on,49,0,0
2,note_on,39,0,0
2,note_on,46,57,120
2,note_on,39,57,0
2,note_on,51,57,0
2,note_on,49,57,11
2,note_on,51,0,109
2,note_on,46,0,0
2,note_on,39,0,0
2,note_on,49,0,11
2,note_on,52,41,229
2,note_on,40,24,0
2,note_on,46,24,0
2,note_on,49,24,0
2,note_on,49,0,120
2,note_on,52,0,0
2,note_on,40,0,0
2,note_on,46,0,0
2,note_on,52,41,0
2,note_on,49,24,0
2,note_on,40,24,0
2,note_on,46,24,0
2,note_on,46,0,120
2,note_on,52,0,0
2,note_on,49,0,0
2,note_on,40,0,0
2,note_on,41,49,0
2,note_on,41,0,60
2,note_on,53,49,0
2,note_on,53,0,60
2,note_on,61,51,0
2,note_on,58,42,0
2,note_on,60,45,480
2,note_on,57,35,0
2,note_on,58,0,10
2,note_on,61,0,0
2,note_on,60,0,230
2,note_on,57,0,0
2,note_on,61,45,0
2,note_on,58,35,0
2,note_on,63,52,480
2,note_on,60,42,0
2,note_on,58,0,10
2,note_on,61,0,0
2,note_on,63,0,230
2,note_on,60,0,0
2,note_on,57,42,0
2,note_on,60,52,0
2,note_on,60,0,240
2,note_on,57,0,0
2,note_on,41,45,0
2,note_on,41,0,120
2,note_on,40,48,0
2,note_on,40,0,120
2,note_on,39,50,0
2,note_on,39,0,120
2,note_on,38,51,0
2,note_on,38,0,120
2,note_on,37,52,0
2,note_on,37,0,120
2,note_on,36,54,0
2,note_on,36,0,120
2,note_on,35,54,0
2,note_on,35,0,120
2,note_on,34,56,0
2,note_on,34,0,120
2,note_on,33,57,0
2,note_on,33,0,120
2,note_on,53,42,120
2,note_on,65,51,0
2,note_on,62,42,0
2,note_on,52,35,480
2,note_on,64,45,0
2,note_on,61,35,0
2,note_on,62,0,10
2,note_on,53,0,0
2,note_on,65,0,0
2,note_on,52,0,230
2,note_on,64,0,0
2,note_on,61,0,0
2,note_on,53,35,0
2,note_on,65,45,0
2,note_on,62,35,0
2,note_on,55,42,480
2,note_on,67,52,0
2,note_on,64,42,0
2,note_on,62,0,10
2,note_on,53,0,0
2,note_on,65,0,0
2,note_on,55,0,230
2,note_on,67,0,0
2,note_on,64,0,0
2,note_on,52,42,0
2,note_on,61,42,0
2,note_on,64,52,0
2,note_on,64,0,240
2,note_on,61,0,0
2,note_on,52,0,0
2,note_on,45,45,0
2,note_on,45,0,120
2,note_on,44,48,0
2,note_on,44,0,120
2,note_on,43,50,0
2,note_on,43,0,120
2,note_on,42,51,0
2,note_on,42,0,120
2,note_on,41,52,0
2,note_on,41,0,120
2,note_on,40,54,0
2,note_on,40,0,120
2,note_on,39,54,0
2,note_on,39,0,120
2,note_on,38,56,0
2,note_on,38,0,120
2,note_on,37,57,0
2,note_on,37,0,120
2,note_on,57,42,120
2,note_on,69,51,0
2,note_on,66,42,0
2,note_on,56,35,480
2,note_on,68,45,0
2,note_on,65,35,0
2,note_on,66,0,10
2,note_on,57,0,0
2,note_on,69,0,0
2,note_on,56,0,230
2,note_on,68,0,0
2,note_on,65,0,0
2,note_on,57,35,0
2,note_on,69,45,0
2,note_on,66,35,0
2,note_on,59,42,480
2,note_on,71,52,0
2,note_on,68,42,0
2,note_on,66,0,10
2,note_on,57,0,0
2,note_on,69,0,0
2,note_on,59,0,230
2,note_on,71,0,0
2,note_on,68,0,0
2,note_on,56,42,0
2,note_on,65,42,0
2,note_on,68,52,0
2,note_on,68,0,240
2,note_on,65,0,0
2,note_on,56,0,0
2,note_on,49,45,0
2,note_on,49,0,120
2,note_on,48,48,0
2,note_on,48,0,120
2,note_on,47,50,0
2,note_on,47,0,120
2,note_on,46,51,0
2,note_on,46,0,120
2,note_on,45,52,0
2,note_on,45,0,120
2,note_on,44,54,0
2,note_on,44,0,120
2,note_on,41,54,0
2,note_on,41,0,120
2,note_on,38,56,0
2,note_on,38,0,120
2,note_on,37,57,0
2,note_on,37,0,120
2,note_on,57,51,120
2,note_on,54,42,0
2,note_on,56,45,480
2,note_on,53,35,0
2,note_on,54,0,10
2,note_on,57,0,0
2,note_on,56,0,230
2,note_on,53,0,0
2,note_on,57,45,0
2,note_on,54,35,0
2,note_on,59,52,480
2,note_on,56,42,0
2,note_on,54,0,10
2,note_on,57,0,0
2,note_on,59,0,230
2,note_on,56,0,0
2,note_on,53,42,0
2,note_on,56,52,0
2,note_on,56,0,240
2,note_on,53,0,0
2,note_on,61,42,120
2,note_on,49,24,0
2,note_on,49,0,120
2,note_on,61,0,0
2,note_on,61,42,0
2,note_on,49,24,0
2,note_on,49,0,120
2,note_on,61,0,0
2,note_on,61,49,120
2,note_on,49,28,0
2,note_on,49,0,120
2,note_on,61,0,0
2,note_on,61,40,240
2,note_on,49,23,0
2,note_on,49,0,120
2,note_on,61,0,0
2,note_on,61,40,0
2,note_on,49,23,0
2,note_on,49,0,120
2,note_on,61,0,0
2,note_on,38,36,120
2,note_on,38,0,120
2,note_on,39,37,120
2,note_on,39,0,120
2,note_on,40,38,120
2,note_on,40,0,120
2,note_on,41,38,120
2,note_on,41,0,120
2,note_on,42,39,120
2,note_on,42,0,120
2,note_on,43,40,120
2,note_on,43,0,120
2,note_on,44,40,120
2,note_on,44,0,120
2,note_on,45,42,120
2,note_on,45,0,120
2,note_on,46,45,120
2,note_on,46,0,120
2,note_on,47,48,120
2,note_on,47,0,120
2,note_on,38,65,120
2,note_on,48,71,0
2,note_on,48,0,480
2,note_on,38,0,0
2,note_on,37,58,0
2,note_on,49,72,0
2,note_on,49,0,240
2,note_on,37,0,0
2,note_on,61,60,0
2,note_on,61,0,120
2,note_on,60,59,0
2,note_on,60,0,120
2,note_on,59,59,0
2,note_on,59,0,120
2,note_on,58,59,0
2,note_on,58,0,120
2,note_on,57,59,0
2,note_on,57,0,120
2,note_on,56,58,0
2,note_on,56,0,120
2,note_on,55,58,0
2,note_on,55,0,120
2,note_on,54,58,0
2,note_on,54,0,120
2,note_on,53,58,0
2,note_on,53,0,120
2,note_on,51,57,0
2,note_on,51,0,120
2,note_on,50,57,0
2,note_on,50,0,120
2,note_on,49,57,0
2,note_on,49,0,120
2,note_on,48,57,0
2,note_on,48,0,120
2,note_on,47,57,0
2,note_on,47,0,120
2,note_on,46,56,0
2,note_on,46,0,120
2,note_on,45,56,0
2,note_on,45,0,120
2,note_on,44,56,0
2,note_on,44,0,120
2,note_on,43,56,0
2,note_on,43,0,120
2,note_on,42,55,0
2,note_on,42,0,120
2,note_on,41,55,0
2,note_on,41,0,120
2,note_on,40,55,0
2,note_on,40,0,120
2,note_on,38,55,0
2,note_on,38,0,120
2,note_on,38,36,0
2,note_on,38,0,120
2,note_on,39,44,120
2,note_on,39,0,120
2,note_on,40,45,120
2,note_on,40,0,120
2,note_on,41,45,120
2,note_on,41,0,120
2,note_on,42,45,120
2,note_on,42,0,120
2,note_on,43,46,120
2,note_on,43,0,120
2,note_on,44,46,120
2,note_on,44,0,120
2,note_on,45,50,120
2,note_on,45,0,120
2,note_on,46,53,120
2,note_on,46,0,120
2,note_on,39,60,120
2,note_on,47,74,0
2,note_on,47,0,720
2,note_on,39,0,0
2,note_on,40,36,0
2,note_on,40,0,120
2,note_on,41,44,120
2,note_on,41,0,120
2,note_on,42,45,120
2,note_on,42,0,120
2,note_on,43,45,120
2,note_on,43,0,120
2,note_on,44,45,120
2,note_on,44,0,120
2,note_on,45,46,120
2,note_on,45,0,120
2,note_on,46,46,120
2,note_on,46,0,120
2,note_on,47,50,120
2,note_on,47,0,120
2,note_on,48,53,120
2,note_on,48,0,120
2,note_on,41,64,120
2,note_on,49,73,0
2,note_on,49,0,720
2,note_on,41,0,0
2,note_on,42,63,0
2,note_on,48,63,0
2,note_on,51,63,0
2,note_on,57,72,0
2,note_on,57,0,120
2,note_on,42,0,0
2,note_on,48,0,0
2,note_on,51,0,0
2,note_on,80,73,240
2,note_on,80,0,120
2,note_on,78,74,120
2,note_on,78,0,120
2,note_on,76,77,120
2,note_on,76,0,120
2,note_on,74,78,120
2,note_on,74,0,120
2,note_on,72,80,120
2,note_on,72,0,120
2,note_on,70,81,120
2,note_on,70,0,120
2,note_on,68,83,120
2,note_on,68,0,120
2,note_on,66,84,120
2,note_on,66,0,120
2,note_on,64,86,120
2,note_on,64,0,120
2,note_on,62,88,80
2,note_on,62,0,80
2,note_on,54,89,80
2,note_on,57,89,0
2,note_on,57,0,120
2,note_on,54,0,0
2,note_on,49,90,120
2,note_on,41,75,0
2,note_on,44,75,0
2,note_on,44,0,120
2,note_on,41,0,0
2,note_on,49,0,0
2,note_on,29,70,120
2,note_on,37,81,0
2,note_on,37,0,120
2,note_on,29,0,0
2,note_on,30,70,120
2,note_on,38,81,0
2,note_on,38,0,120
2,note_on,30,0,0
2,note_on,31,70,120
2,note_on,39,81,0
2,note_on,39,0,120
2,note_on,31,0,0
2,note_on,32,70,120
2,note_on,40,81,0
2,note_on,40,0,120
2,note_on,32,0,0
2,note_on,33,70,120
2,note_on,41,81,0
2,note_on,41,0,120
2,note_on,33,0,0
2,note_on,34,79,120
2,note_on,42,90,0
2,note_on,42,0,120
2,note_on,34,0,0
2,note_on,35,72,60
2,note_on,43,83,0
2,note_on,43,0,120
2,note_on,35,0,0
2,note_on,36,72,60
2,note_on,44,83,0
2,note_on,44,0,120
2,note_on,36,0,0
2,note_on,37,72,60
2,note_on,45,83,0
2,note_on,45,0,120
2,note_on,37,0,0
2,note_on,38,72,60
2,note_on,46,83,0
2,note_on,46,0,120
2,note_on,38,0,0
2,note_on,39,72,60
2,note_on,47,83,0
2,note_on,47,0,120
2,note_on,39,0,0
2,note_on,40,72,60
2,note_on,48,83,0
2,note_on,48,0,120
2,note_on,40,0,0
2,note_on,41,72,60
2,note_on,49,83,0
2,note_on,49,0,120
2,note_on,41,0,0
2,note_on,42,74,60
2,note_on,48,74,0
2,note_on,51,74,0
2,note_on,57,85,0
2,note_on,57,0,120
2,note_on,42,0,0
2,note_on,48,0,0
2,note_on,51,0,0
2,note_on,80,73,240
2,note_on,80,0,120
2,note_on,78,74,120
2,note_on,78,0,120
2,note_on,76,77,120
2,note_on,76,0,120
2,note_on,74,78,120
2,note_on,74,0,120
2,note_on,72,80,120
2,note_on,72,0,120
2,note_on,70,81,120
2,note_on,70,0,120
2,note_on,68,83,120
2,note_on,68,0,120
2,note_on,66,84,120
2,note_on,66,0,120
2,note_on,64,86,120
2,note_on,64,0,120
2,note_on,62,88,80
2,note_on,62,0,80
2,note_on,54,89,80
2,note_on,57,89,0
2,note_on,57,0,120
2,note_on,54,0,0
2,note_on,49,90,120
2,note_on,41,75,0
2,note_on,44,75,0
2,note_on,44,0,120
2,note_on,41,0,0
2,note_on,49,0,0
2,note_on,29,70,120
2,note_on,37,81,0
2,note_on,37,0,120
2,note_on,29,0,0
2,note_on,30,70,120
2,note_on,38,81,0
2,note_on,38,0,120
2,note_on,30,0,0
2,note_on,31,70,120
2,note_on,39,81,0
2,note_on,39,0,120
2,note_on,31,0,0
2,note_on,32,70,60
2,note_on,40,81,0
2,note_on,40,0,120
2,note_on,32,0,0
2,note_on,33,70,60
2,note_on,41,81,0
2,note_on,41,0,120
2,note_on,33,0,0
2,note_on,34,70,60
2,note_on,42,81,0
2,note_on,42,0,120
2,note_on,34,0,0
2,note_on,35,79,60
2,note_on,43,90,0
2,note_on,43,0,120
2,note_on,35,0,0
2,note_on,36,72,60
2,note_on,44,83,0
2,note_on,44,0,120
2,note_on,36,0,0
2,note_on,37,72,60
2,note_on,45,83,0
2,note_on,45,0,120
2,note_on,37,0,0
2,note_on,38,72,60
2,note_on,46,83,0
2,note_on,46,0,120
2,note_on,38,0,0
2,note_on,39,72,60
2,note_on,47,83,0
2,note_on,47,0,120
2,note_on,39,0,0
2,note_on,40,72,60
2,note_on,48,83,0
2,note_on,48,0,120
2,note_on,40,0,0
2,note_on,37,72,60
2,note_on,41,72,0
2,note_on,49,83,0
2,note_on,49,0,120
2,note_on,41,0,0
2,note_on,37,0,0
2,note_on,35,72,60
2,note_on,47,83,0
2,note_on,47,0,120
2,note_on,35,0,0
2,note_on,45,83,60
2,note_on,33,70,0
2,note_on,37,70,0
2,note_on,42,70,0
2,note_on,55,61,120
2,note_on,42,0,24
2,note_on,37,0,0
2,note_on,45,0,0
2,note_on,33,0,0
2,note_on,55,0,120
2,note_on,57,63,96
2,note_on,57,0,144
2,note_on,59,66,96
2,note_on,59,0,144
2,note_on,61,68,96
2,note_on,61,0,144
2,note_on,63,71,96
2,note_on,63,0,144
2,note_on,65,74,96
2,note_on,54,83,120
2,note_on,46,70,0
2,note_on,49,70,0
2,note_on,65,0,24
2,note_on,65,72,96
2,note_on,54,0,24
2,note_on,49,0,0
2,note_on,46,0,0
2,note_on,65,0,120
2,note_on,63,70,96
2,note_on,63,0,144
2,note_on,61,67,96
2,note_on,61,0,144
2,note_on,59,65,96
2,note_on,59,0,144
2,note_on,57,62,96
2,note_on,57,0,144
2,note_on,55,58,96
2,note_on,55,0,144
2,note_on,47,76,96
2,note_on,35,64,0
2,note_on,38,64,0
2,note_on,43,64,0
2,note_on,56,62,120
2,note_on,43,0,24
2,note_on,38,0,0
2,note_on,47,0,0
2,note_on,35,0,0
2,note_on,56,0,120
2,note_on,58,65,96
2,note_on,58,0,144
2,note_on,60,67,96
2,note_on,60,0,144
2,note_on,62,70,96
2,note_on,62,0,144
2,note_on,64,72,96
2,note_on,64,0,144
2,note_on,66,75,96
2,note_on,66,0,144
2,note_on,56,83,96
2,note_on,48,70,0
2,note_on,51,70,0
2,note_on,67,76,120
2,note_on,51,0,24
2,note_on,56,0,0
2,note_on,48,0,0
2,note_on,67,0,120
2,note_on,65,72,96
2,note_on,65,0,144
2,note_on,63,68,96
2,note_on,63,0,144
2,note_on,61,65,96
2,note_on,61,0,144
2,note_on,59,61,96
2,note_on,59,0,144
2,note_on,57,57,96
2,note_on,57,0,144
2,note_on,49,76,96
2,note_on,37,64,0
2,note_on,42,64,0
2,note_on,45,64,0
2,note_on,58,79,120
2,note_on,45,0,24
2,note_on,42,0,0
2,note_on,49,0,0
2,note_on,37,0,0
2,note_on,58,0,120
2,note_on,60,65,96
2,note_on,60,0,144
2,note_on,62,67,96
2,note_on,62,0,144
2,note_on,64,71,96
2,note_on,64,0,144
2,note_on,66,75,96
2,note_on,66,0,144
2,note_on,68,78,96
2,note_on,68,0,144
2,note_on,58,83,96
2,note_on,49,70,0
2,note_on,52,70,0
2,note_on,55,70,6
2,note_on,69,81,114
2,note_on,55,0,6
2,note_on,52,0,18
2,note_on,58,0,0
2,note_on,49,0,0
2,note_on,69,0,120
2,note_on,67,78,96
2,note_on,67,0,144
2,note_on,65,74,96
2,note_on,65,0,144
2,note_on,63,70,96
2,note_on,63,0,144
2,note_on,61,66,96
2,note_on,61,0,144
2,note_on,59,62,96
2,note_on,59,0,144
2,note_on,38,76,96
2,note_on,50,90,0
2,note_on,43,76,0
2,note_on,47,76,0
2,note_on,47,0,120
2,note_on,38,0,0
2,note_on,50,0,0
2,note_on,43,0,0
2,note_on,59,75,240
2,note_on,55,63,0
2,note_on,50,63,0
2,note_on,50,0,120
2,note_on,55,0,0
2,note_on,59,0,0
2,note_on,59,75,0
2,note_on,55,63,0
2,note_on,50,63,0
2,note_on,50,0,120
2,note_on,55,0,0
2,note_on,59,0,0
2,note_on,59,80,120
2,note_on,55,68,0
2,note_on,50,68,0
2,note_on,50,0,120
2,note_on,55,0,0
2,note_on,59,0,0
2,note_on,47,76,240
2,note_on,43,64,0
2,note_on,38,64,0
2,note_on,38,0,120
2,note_on,43,0,0
2,note_on,47,0,0
2,note_on,47,76,0
2,note_on,43,64,0
2,note_on,38,64,0
2,note_on,38,0,120
2,note_on,43,0,0
2,note_on,47,0,0
2,note_on,38,67,120
2,note_on,43,67,0
2,note_on,47,79,0
2,note_on,47,0,120
2,note_on,43,0,0
2,note_on,38,0,0
2,note_on,71,75,240
2,note_on,67,63,0
2,note_on,62,63,0
2,note_on,62,0,120
2,note_on,67,0,0
2,note_on,71,0,0
2,note_on,71,75,0
2,note_on,67,63,0
2,note_on,62,63,0
2,note_on,62,0,120
2,note_on,67,0,0
2,note_on,71,0,0
2,note_on,71,80,120
2,note_on,67,68,0
2,note_on,62,68,0
2,note_on,62,0,120
2,note_on,67,0,0
2,note_on,71,0,0
2,note_on,54,63,960
2,note_on,60,75,0
2,note_on,57,63,0
2,note_on,50,63,0
2,note_on,50,0,120
2,note_on,54,0,0
2,note_on,60,0,0
2,note_on,57,0,0
2,note_on,54,63,0
2,note_on,60,75,0
2,note_on,57,63,0
2,note_on,50,63,0
2,note_on,50,0,120
2,note_on,54,0,0
2,note_on,60,0,0
2,note_on,57,0,0
2,note_on,54,68,120
2,note_on,60,80,0
2,note_on,57,68,0
2,note_on,50,68,0
2,note_on,50,0,120
2,note_on,54,0,0
2,note_on,60,0,0
2,note_on,57,0,0
2,note_on,42,64,240
2,note_on,48,76,0
2,note_on,45,64,0
2,note_on,38,64,0
2,note_on,38,0,120
2,note_on,42,0,0
2,note_on,48,0,0
2,note_on,45,0,0
2,note_on,42,64,0
2,note_on,48,76,0
2,note_on,45,64,0
2,note_on,38,64,0
2,note_on,38,0,120
2,note_on,42,0,0
2,note_on,48,0,0
2,note_on,45,0,0
2,note_on,42,67,120
2,note_on,38,67,0
2,note_on,45,67,0
2,note_on,48,79,0
2,note_on,48,0,120
2,note_on,42,0,0
2,note_on,38,0,0
2,note_on,45,0,0
2,note_on,66,56,240
2,note_on,72,67,0
2,note_on,69,56,0
2,note_on,62,56,0
2,note_on,62,0,120
2,note_on,66,0,0
2,note_on,72,0,0
2,note_on,69,0,0
2,note_on,66,56,0
2,note_on,72,67,0
2,note_on,69,56,0
2,note_on,62,56,0
2,note_on,62,0,120
2,note_on,66,0,0
2,note_on,72,0,0
2,note_on,69,0,0
2,note_on,60,75,1200
2,note_on,56,63,0
2,note_on,51,63,0
2,note_on,51,0,120
2,note_on,56,0,0
2,note_on,60,0,0
2,note_on,60,75,0
2,note_on,56,63,0
2,note_on,51,63,0
2,note_on,51,0,120
2,note_on,56,0,0
2,note_on,60,0,0
2,note_on,60,80,120
2,note_on,56,68,0
2,note_on,51,68,0
2,note_on,51,0,120
2,note_on,56,0,0
2,note_on,60,0,0
2,note_on,48,76,240
2,note_on,44,64,0
2,note_on,39,64,0
2,note_on,39,0,120
2,note_on,44,0,0
2,note_on,48,0,0
2,note_on,48,76,0
2,note_on,44,64,0
2,note_on,39,64,0
2,note_on,39,0,120
2,note_on,44,0,0
2,note_on,48,0,0
2,note_on,39,67,120
2,note_on,44,67,0
2,note_on,48,79,0
2,note_on,48,0,120
2,note_on,44,0,0
2,note_on,39,0,0
2,note_on,72,75,240
2,note_on,68,63,0
2,note_on,63,63,0
2,note_on,63,0,120
2,note_on,68,0,0
2,note_on,72,0,0
2,note_on,72,75,0
2,note_on,68,63,0
2,note_on,63,63,0
2,note_on,63,0,120
2,note_on,68,0,0
2,note_on,72,0,0
2,note_on,72,80,120
2,note_on,68,68,0
2,note_on,63,68,0
2,note_on,63,0,120
2,note_on,68,0,0
2,note_on,72,0,0
2,note_on,55,63,960
2,note_on,61,75,0
2,note_on,58,63,0
2,note_on,51,63,0
2,note_on,51,0,120
2,note_on,55,0,0
2,note_on,61,0,0
2,note_on,58,0,0
2,note_on,55,63,0
2,note_on,61,75,0
2,note_on,58,63,0
2,note_on,51,63,0
2,note_on,51,0,120
2,note_on,55,0,0
2,note_on,61,0,0
2,note_on,58,0,0
2,note_on,55,68,120
2,note_on,61,80,0
2,note_on,58,68,0
2,note_on,51,68,0
2,note_on,51,0,120
2,note_on,55,0,0
2,note_on,61,0,0
2,note_on,58,0,0
2,note_on,43,64,240
2,note_on,49,76,0
2,note_on,46,64,0
2,note_on,39,64,0
2,note_on,39,0,120
2,note_on,43,0,0
2,note_on,49,0,0
2,note_on,46,0,0
2,note_on,43,64,0
2,note_on,49,76,0
2,note_on,46,64,0
2,note_on,39,64,0
2,note_on,39,0,120
2,note_on,43,0,0
2,note_on,49,0,0
2,note_on,46,0,0
2,note_on,55,63,480
2,note_on,61,75,0
2,note_on,58,63,0
2,note_on,52,63,0
2,note_on,52,0,120
2,note_on,55,0,0
2,note_on,61,0,0
2,note_on,58,0,0
2,note_on,55,63,0
2,note_on,61,75,0
2,note_on,58,63,0
2,note_on,52,63,0
2,note_on,52,0,120
2,note_on,55,0,0
2,note_on,61,0,0
2,note_on,58,0,0
2,note_on,55,68,120
2,note_on,61,80,0
2,note_on,58,68,0
2,note_on,52,68,0
2,note_on,52,0,120
2,note_on,55,0,0
2,note_on,61,0,0
2,note_on,58,0,0
2,note_on,43,64,240
2,note_on,49,76,0
2,note_on,46,64,0
2,note_on,40,64,0
2,note_on,40,0,120
2,note_on,43,0,0
2,note_on,49,0,0
2,note_on,46,0,0
2,note_on,43,64,0
2,note_on,49,76,0
2,note_on,46,64,0
2,note_on,40,64,0
2,note_on,40,0,120
2,note_on,43,0,0
2,note_on,49,0,0
2,note_on,46,0,0
2,note_on,53,63,480
2,note_on,61,75,0
2,note_on,58,63,0
2,note_on,58,0,120
2,note_on,61,0,0
2,note_on,53,0,0
2,note_on,53,63,0
2,note_on,61,75,0
2,note_on,58,63,0
2,note_on,58,0,120
2,note_on,61,0,0
2,note_on,53,0,0
2,note_on,53,68,120
2,note_on,61,80,0
2,note_on,58,68,0
2,note_on,58,0,120
2,note_on,61,0,0
2,note_on,53,0,0
2,note_on,41,64,240
2,note_on,49,76,0
2,note_on,46,64,0
2,note_on,46,0,120
2,note_on,49,0,0
2,note_on,41,0,0
2,note_on,41,64,0
2,note_on,49,76,0
2,note_on,46,64,0
2,note_on,46,0,120
2,note_on,49,0,0
2,note_on,41,0,0
2,note_on,42,61,120
2,note_on,54,61,0
2,note_on,54,0,120
2,note_on,42,0,0
2,note_on,53,60,0
2,note_on,53,0,120
2,note_on,52,59,0
2,note_on,52,0,120
2,note_on,51,59,0
2,note_on,51,0,120
2,note_on,50,58,0
2,note_on,50,0,120
2,note_on,49,57,0
2,note_on,49,0,120
2,note_on,48,56,0
2,note_on,48,0,120
2,note_on,47,55,0
2,note_on,47,0,120
2,note_on,46,54,0
2,note_on,46,0,120
2,note_on,45,53,0
2,note_on,45,0,120
2,note_on,44,53,0
2,note_on,44,0,120
2,note_on,43,52,0
2,note_on,43,0,120
2,note_on,42,61,0
2,note_on,42,0,111
2,note_on,41,60,0
2,note_on,41,0,110
2,note_on,40,59,0
2,note_on,39,59,110
2,note_on,40,0,1
2,note_on,39,0,110
2,note_on,38,58,0
2,note_on,38,0,110
2,note_on,37,57,0
2,note_on,37,0,111
2,note_on,36,56,0
2,note_on,36,0,110
2,note_on,35,55,0
2,note_on,34,54,110
2,note_on,35,0,1
2,note_on,34,0,110
2,note_on,33,53,0
2,note_on,33,0,110
2,note_on,32,53,0
2,note_on,32,0,111
2,note_on,31,52,0
2,note_on,31,0,110
2,note_on,30,52,0
2,note_on,30,0,115
2,note_on,29,67,0
2,note_on,36,67,0
2,note_on,41,67,0
2,note_on,41,0,240
2,note_on,36,0,0
2,note_on,29,0,0
2,note_on,40,70,0
2,note_on,40,0,240
2,note_on,41,66,0
2,note_on,41,0,240
2,note_on,40,73,0
2,note_on,52,73,0
2,note_on,52,0,240
2,note_on,40,0,0
2,note_on,41,73,0
2,note_on,53,73,0
2,note_on,53,0,240
2,note_on,41,0,0
2,note_on,64,82,0
2,note_on,52,82,0
2,note_on,52,0,240
2,note_on,64,0,0
2,note_on,53,82,0
2,note_on,65,82,0
2,note_on,65,0,240
2,note_on,53,0,0
2,note_on,40,70,0
2,note_on,52,70,0
2,note_on,52,0,240
2,note_on,40,0,0
2,note_on,41,68,0
2,note_on,53,68,0
2,note_on,53,0,240
2,note_on,41,0,0
2,note_on,28,69,0
2,note_on,40,69,0
2,note_on,40,0,240
2,note_on,28,0,0
2,note_on,29,65,0
2,note_on,41,65,0
2,note_on,41,0,240
2,note_on,29,0,0
2,note_on,29,71,0
2,note_on,41,71,0
2,note_on,41,0,240
2,note_on,29,0,0
2,note_on,49,89,0
2,note_on,34,75,0
2,note_on,40,75,0
2,note_on,43,75,0
2,note_on,43,0,120
2,note_on,49,0,0
2,note_on,34,0,0
2,note_on,40,0,0
2,note_on,50,84,120
2,note_on,35,71,0
2,note_on,35,0,120
2,note_on,50,0,0
2,note_on,51,89,120
2,note_on,36,75,0
2,note_on,36,0,120
2,note_on,51,0,0
2,note_on,52,84,120
2,note_on,37,71,0
2,note_on,37,0,120
2,note_on,52,0,0
2,note_on,53,89,120
2,note_on,38,75,0
2,note_on,38,0,120
2,note_on,53,0,0
2,note_on,54,85,120
2,note_on,39,72,0
2,note_on,39,0,120
2,note_on,54,0,0
2,note_on,55,89,120
2,note_on,40,75,0
2,note_on,40,0,120
2,note_on,55,0,0
2,note_on,56,84,120
2,note_on,41,71,0
2,note_on,41,0,120
2,note_on,56,0,0
2,note_on,57,89,120
2,note_on,42,75,0
2,note_on,42,0,120
2,note_on,57,0,0
2,note_on,58,86,120
2,note_on,42,73,0
2,note_on,42,0,120
2,note_on,58,0,0
2,note_on,61,102,120
2,note_on,46,86,0
2,note_on,52,86,0
2,note_on,55,86,0
2,note_on,41,67,430
2,note_on,48,67,10
2,note_on,57,72,10
2,note_on,55,0,30
2,note_on,52,0,0
2,note_on,61,0,0
2,note_on,46,0,0
2,note_on,57,0,240
2,note_on,41,0,0
2,note_on,48,0,0
2,note_on,52,73,0
2,note_on,40,70,0
2,note_on,40,0,240
2,note_on,52,0,0
2,note_on,53,72,0
2,note_on,41,67,0
2,note_on,41,0,240
2,note_on,53,0,0
2,note_on,52,76,0
2,note_on,64,76,0
2,note_on,64,0,240
2,note_on,52,0,0
2,note_on,53,76,0
2,note_on,65,76,0
2,note_on,65,0,240
2,note_on,53,0,0
2,note_on,76,83,0
2,note_on,64,83,0
2,note_on,64,0,240
2,note_on,76,0,0
2,note_on,65,83,0
2,note_on,77,83,0
2,note_on,77,0,240
2,note_on,65,0,0
2,note_on,52,70,0
2,note_on,64,70,0
2,note_on,64,0,240
2,note_on,52,0,0
2,note_on,53,68,0
2,note_on,65,68,0
2,note_on,65,0,240
2,note_on,53,0,0
2,note_on,40,69,0
2,note_on,52,69,0
2,note_on,52,0,240
2,note_on,40,0,0
2,note_on,41,65,0
2,note_on,53,65,0
2,note_on,53,0,240
2,note_on,41,0,0
2,note_on,29,71,0
2,note_on,41,71,0
2,note_on,41,0,240
2,note_on,29,0,0
2,note_on,49,89,0
2,note_on,34,75,0
2,note_on,40,75,0
2,note_on,43,75,0
2,note_on,43,0,120
2,note_on,49,0,0
2,note_on,34,0,0
2,note_on,40,0,0
2,note_on,50,84,120
2,note_on,35,71,0
2,note_on,35,0,120
2,note_on,50,0,0
2,note_on,51,89,120
2,note_on,36,75,0
2,note_on,36,0,120
2,note_on,51,0,0
2,note_on,52,84,120
2,note_on,37,71,0
2,note_on,37,0,120
2,note_on,52,0,0
2,note_on,53,89,120
2,note_on,38,75,0
2,note_on,38,0,120
2,note_on,53,0,0
2,note_on,54,85,120
2,note_on,39,72,0
2,note_on,39,0,120
2,note_on,54,0,0
2,note_on,55,89,120
2,note_on,40,75,0
2,note_on,40,0,120
2,note_on,55,0,0
2,note_on,56,84,120
2,note_on,41,71,0
2,note_on,41,0,120
2,note_on,56,0,0
2,note_on,57,89,120
2,note_on,42,75,0
2,note_on,42,0,120
2,note_on,57,0,0
2,note_on,58,86,120
2,note_on,42,73,0
2,note_on,42,0,120
2,note_on,58,0,0
2,note_on,61,102,120
2,note_on,46,86,0
2,note_on,52,86,0
2,note_on,55,86,0
2,note_on,41,67,430
2,note_on,48,67,10
2,note_on,57,72,10
2,note_on,55,0,30
2,note_on,52,0,0
2,note_on,61,0,0
2,note_on,46,0,0
2,note_on,57,0,240
2,note_on,41,0,0
2,note_on,48,0,0
2,note_on,52,70,0
2,note_on,52,0,240
2,note_on,53,67,0
2,note_on,53,0,240
2,note_on,64,76,0
2,note_on,64,0,240
2,note_on,65,76,0
2,note_on,65,0,240
2,note_on,76,84,0
2,note_on,76,0,240
2,note_on,77,83,0
2,note_on,77,0,480
2,note_on,41,51,0
2,note_on,41,0,73
2,note_on,42,52,0
2,note_on,42,0,73
2,note_on,43,53,1
2,note_on,43,0,73
2,note_on,44,54,0
2,note_on,44,0,73
2,note_on,45,55,0
2,note_on,45,0,73
2,note_on,46,56,0
2,note_on,46,0,73
2,note_on,47,57,0
2,note_on,47,0,73
2,note_on,48,57,1
2,note_on,48,0,73
2,note_on,49,58,0
2,note_on,49,0,73
2,note_on,50,59,0
2,note_on,50,0,73
2,note_on,51,60,0
2,note_on,51,0,73
2,note_on,52,61,0
2,note_on,52,0,73
2,note_on,53,62,0
2,note_on,53,0,82
2,note_on,54,89,0
2,note_on,42,74,0
2,note_on,42,0,1920
2,note_on,54,0,0
2,note_on,45,81,0
2,note_on,33,69,0
2,note_on,33,0,1920
2,note_on,45,0,0
2,note_on,49,81,0
2,note_on,37,69,0
2,note_on,37,0,1920
2,note_on,49,0,0
2,note_on,40,80,0
2,note_on,28,68,0
2,note_on,28,0,1920
2,note_on,40,0,0
2,note_on,41,74,0
2,note_on,29,62,0
2,note_on,29,0,480
2,note_on,41,0,0
2,note_on,65,54,480
2,note_on,57,45,0
2,note_on,60,45,0
2,note_on,60,0,480
2,note_on,57,0,0
2,note_on,65,0,0
2,note_on,65,49,0
2,note_on,57,41,0
2,note_on,60,41,0
2,note_on,60,0,90
2,note_on,57,0,0
2,note_on,65,0,0
2,note_on,65,49,150
2,note_on,57,41,0
2,note_on,60,41,0
2,note_on,60,0,90
2,note_on,57,0,0
2,note_on,65,0,0
2,note_on,70,54,150
2,note_on,61,45,0
2,note_on,65,45,0
2,note_on,65,0,90
2,note_on,61,0,0
2,note_on,70,0,0
2,note_on,70,49,390
2,note_on,61,41,0
2,note_on,65,41,0
2,note_on,65,0,90
2,note_on,61,0,0
2,note_on,70,0,0
2,note_on,70,53,390
2,note_on,61,45,0
2,note_on,65,45,0
2,note_on,65,0,480
2,note_on,61,0,0
2,note_on,70,0,0
2,note_on,73,49,0
2,note_on,61,41,0
2,note_on,65,41,0
2,note_on,65,0,90
2,note_on,61,0,0
2,note_on,73,0,0
2,note_on,70,49,150
2,note_on,61,41,0
2,note_on,65,41,0
2,note_on,65,0,90
2,note_on,61,0,0
2,note_on,70,0,0
2,note_on,69,53,150
2,note_on,60,45,0
2,note_on,65,45,0
2,note_on,65,0,90
2,note_on,60,0,0
2,note_on,69,0,0
2,note_on,65,49,390
2,note_on,57,41,0
2,note_on,60,41,0
2,note_on,60,0,90
2,note_on,57,0,0
2,note_on,65,0,0
2,note_on,77,54,390
2,note_on,69,45,0
2,note_on,72,45,0
2,note_on,72,0,480
2,note_on,69,0,0
2,note_on,77,0,0
2,note_on,77,49,0
2,note_on,69,41,0
2,note_on,72,41,0
2,note_on,72,0,90
2,note_on,69,0,0
2,note_on,77,0,0
2,note_on,77,49,150
2,note_on,69,41,0
2,note_on,72,41,0
2,note_on,72,0,90
2,note_on,69,0,0
2,note_on,77,0,0
2,note_on,82,54,150
2,note_on,73,45,0
2,note_on,77,45,0
2,note_on,77,0,90
2,note_on,73,0,0
2,note_on,82,0,0
2,note_on,82,49,390
2,note_on,73,41,0
2,note_on,77,41,0
2,note_on,77,0,90
2,note_on,73,0,0
2,note_on,82,0,0
2,note_on,82,53,390
2,note_on,73,45,0
2,note_on,77,45,0
2,note_on,77,0,480
2,note_on,73,0,0
2,note_on,82,0,0
2,note_on,85,49,0
2,note_on,73,41,0
2,note_on,77,41,0
2,note_on,77,0,90
2,note_on,73,0,0
2,note_on,85,0,0
2,note_on,82,49,150
2,note_on,73,41,0
2,note_on,77,41,0
2,note_on,77,0,90
2,note_on,73,0,0
2,note_on,82,0,0
2,note_on,81,54,150
2,note_on,72,45,0
2,note_on,77,45,0
2,note_on,77,0,480
2,note_on,72,0,0
2,note_on,81,0,0
2,note_on,84,57,0
2,note_on,69,48,0
2,note_on,77,48,0
2,note_on,77,0,480
2,note_on,69,0,0
2,note_on,84,0,0
2,note_on,85,60,0
2,note_on,70,51,0
2,note_on,77,51,0
2,note_on,77,0,480
2,note_on,70,0,0
2,note_on,85,0,0
2,note_on,82,55,0
2,note_on,73,46,0
2,note_on,77,46,0
2,note_on,77,0,480
2,note_on,73,0,0
2,note_on,82,0,0
2,note_on,81,59,0
2,note_on,72,50,0
2,note_on,77,50,0
2,note_on,77,0,480
2,note_on,72,0,0
2,note_on,81,0,0
2,note_on,84,63,0
2,note_on,69,53,0
2,note_on,77,53,0
2,note_on,77,0,480
2,note_on,69,0,0
2,note_on,84,0,0
2,note_on,85,67,0
2,note_on,70,56,0
2,note_on,77,56,0
2,note_on,77,0,480
2,note_on,70,0,0
2,note_on,85,0,0
2,note_on,82,63,0
2,note_on,73,53,0
2,note_on,77,53,0
2,note_on,77,0,480
2,note_on,73,0,0
2,note_on,82,0,0
2,note_on,72,53,0
2,note_on,77,53,0
2,note_on,81,63,0
2,note_on,81,0,960
2,note_on,77,0,0
2,note_on,72,0,0
2,note_on,33,48,2400
2,note_on,36,53,0
2,note_on,42,45,0
2,note_on,42,0,240
2,note_on,41,44,0
2,note_on,41,0,240
2,note_on,36,0,0
2,note_on,33,0,0
2,note_on,34,46,0
2,note_on,37,53,0
2,note_on,41,36,0
2,note_on,41,0,240
2,note_on,42,38,0
2,note_on,42,0,240
2,note_on,45,39,0
2,note_on,45,0,240
2,note_on,46,41,0
2,note_on,46,0,240
2,note_on,37,0,0
2,note_on,34,0,0
2,note_on,48,45,0
2,note_on,48,0,240
2,note_on,49,46,0
2,note_on,49,0,240
2,note_on,52,48,0
2,note_on,52,0,240
2,note_on,53,56,0
2,note_on,53,0,230
2,note_on,53,57,10
2,note_on,52,51,240
2,note_on,52,0,240
2,note_on,49,50,0
2,note_on,49,0,240
2,note_on,48,49,0
2,note_on,48,0,240
2,note_on,53,0,0
2,note_on,36,45,0
2,note_on,39,53,0
2,note_on,46,47,0
2,note_on,46,0,240
2,note_on,45,45,0
2,note_on,45,0,240
2,note_on,42,45,0
2,note_on,42,0,240
2,note_on,41,44,0
2,note_on,41,0,240
2,note_on,39,0,0
2,note_on,36,0,0
2,note_on,37,53,0
2,note_on,41,36,0
2,note_on,41,0,240
2,note_on,42,38,0
2,note_on,42,0,240
2,note_on,45,39,0
2,note_on,45,0,240
2,note_on,46,41,0
2,note_on,46,0,240
2,note_on,37,0,0
2,note_on,48,45,0
2,note_on,48,0,240
2,note_on,49,46,0
2,note_on,49,0,240
2,note_on,52,48,0
2,note_on,52,0,240
2,note_on,53,56,0
2,note_on,53,0,240
2,note_on,53,57,0
2,note_on,52,51,240
2,note_on,52,0,240
2,note_on,49,50,0
2,note_on,49,0,240
2,note_on,48,49,0
2,note_on,48,0,240
2,note_on,53,0,0
2,note_on,38,45,0
2,note_on,44,53,0
2,note_on,47,58,0
2,note_on,41,45,240
2,note_on,41,0,240
2,note_on,42,46,0
2,note_on,42,0,240
2,note_on,43,45,0
2,note_on,43,0,240
2,note_on,38,0,0
2,note_on,44,0,0
2,note_on,47,0,0
2,note_on,37,47,0
2,note_on,44,56,0
2,note_on,47,58,0
2,note_on,41,48,240
2,note_on,41,0,240
2,note_on,42,49,0
2,note_on,42,0,240
2,note_on,43,48,0
2,note_on,43,0,240
2,note_on,37,0,0
2,note_on,44,0,0
2,note_on,47,0,0
2,note_on,36,50,0
2,note_on,44,59,0
2,note_on,48,63,0
2,note_on,41,51,240
2,note_on,41,0,240
2,note_on,42,52,0
2,note_on,42,0,240
2,note_on,43,51,0
2,note_on,43,0,240
2,note_on,36,0,0
2,note_on,44,0,0
2,note_on,48,0,0
2,note_on,38,53,0
2,note_on,44,52,0
2,note_on,50,67,0
2,note_on,41,54,240
2,note_on,41,0,240
2,note_on,42,54,0
2,note_on,42,0,240
2,note_on,43,54,0
2,note_on,43,0,240
2,note_on,38,0,0
2,note_on,44,0,0
2,note_on,50,0,0
2,note_on,34,59,0
2,note_on,44,59,0
2,note_on,50,70,0
2,note_on,41,57,240
2,note_on,44,0,238
2,note_on,41,0,2
2,note_on,50,58,0
2,note_on,44,58,0
2,note_on,50,0,240
2,note_on,40,58,0
2,note_on,40,0,195
2,note_on,33,60,0
2,note_on,40,64,15
2,note_on,45,69,15
2,note_on,44,0,15
2,note_on,34,0,0
2,note_on,50,0,0
2,note_on,49,74,0
2,note_on,49,0,480
2,note_on,45,0,0
2,note_on,40,0,0
2,note_on,33,0,0
2,note_on,69,54,480
2,note_on,61,45,0
2,note_on,64,45,0
2,note_on,64,0,480
2,note_on,61,0,0
2,note_on,69,0,0
2,note_on,69,49,0
2,note_on,61,41,0
2,note_on,64,41,0
2,note_on,64,0,90
2,note_on,61,0,0
2,note_on,69,0,0
2,note_on,69,49,150
2,note_on,61,41,0
2,note_on,64,41,0
2,note_on,64,0,90
2,note_on,61,0,0
2,note_on,69,0,0
2,note_on,74,54,150
2,note_on,65,45,0
2,note_on,69,45,0
2,note_on,69,0,90
2,note_on,65,0,0
2,note_on,74,0,0
2,note_on,74,49,390
2,note_on,65,41,0
2,note_on,69,41,0
2,note_on,69,0,90
2,note_on,65,0,0
2,note_on,74,0,0
2,note_on,74,53,390
2,note_on,65,45,0
2,note_on,69,45,0
2,note_on,69,0,480
2,note_on,65,0,0
2,note_on,74,0,0
2,note_on,77,49,0
2,note_on,69,41,0
2,note_on,74,41,0
2,note_on,74,0,90
2,note_on,69,0,0
2,note_on,77,0,0
2,note_on,74,49,150
2,note_on,65,41,0
2,note_on,69,41,0
2,note_on,69,0,90
2,note_on,65,0,0
2,note_on,74,0,0
2,note_on,73,53,150
2,note_on,64,45,0
2,note_on,69,45,0
2,note_on,69,0,90
2,note_on,64,0,0
2,note_on,73,0,0
2,note_on,69,49,390
2,note_on,61,41,0
2,note_on,64,41,0
2,note_on,64,0,90
2,note_on,61,0,0
2,note_on,69,0,0
2,note_on,81,54,390
2,note_on,73,45,0
2,note_on,76,45,0
2,note_on,76,0,480
2,note_on,73,0,0
2,note_on,81,0,0
2,note_on,81,49,0
2,note_on,73,41,0
2,note_on,76,41,0
2,note_on,76,0,90
2,note_on,73,0,0
2,note_on,81,0,0
2,note_on,81,49,150
2,note_on,73,41,0
2,note_on,76,41,0
2,note_on,76,0,90
2,note_on,73,0,0
2,note_on,81,0,0
2,note_on,86,54,150
2,note_on,77,45,0
2,note_on,81,45,0
2,note_on,81,0,90
2,note_on,77,0,0
2,note_on,86,0,0
2,note_on,86,49,390
2,note_on,77,41,0
2,note_on,81,41,0
2,note_on,81,0,90
2,note_on,77,0,0
2,note_on,86,0,0
2,note_on,86,53,390
2,note_on,77,45,0
2,note_on,81,45,0
2,note_on,81,0,480
2,note_on,77,0,0
2,note_on,86,0,0
2,note_on,89,49,0
2,note_on,81,41,0
2,note_on,86,41,0
2,note_on,86,0,120
2,note_on,81,0,0
2,note_on,89,0,0
2,note_on,86,49,120
2,note_on,77,41,0
2,note_on,81,41,0
2,note_on,81,0,120
2,note_on,77,0,0
2,note_on,86,0,0
2,note_on,85,54,120
2,note_on,76,45,0
2,note_on,81,45,0
2,note_on,81,0,420
2,note_on,76,0,0
2,note_on,85,0,0
2,note_on,73,48,0
2,note_on,81,48,30
2,note_on,88,57,30
2,note_on,88,0,420
2,note_on,81,0,0
2,note_on,73,0,0
2,note_on,74,51,0
2,note_on,81,51,30
2,note_on,89,60,30
2,note_on,81,0,450
2,note_on,89,0,30
2,note_on,74,0,0
2,note_on,86,55,0
2,note_on,77,46,0
2,note_on,81,46,0
2,note_on,81,0,480
2,note_on,77,0,0
2,note_on,86,0,0
2,note_on,85,59,0
2,note_on,76,50,0
2,note_on,81,50,0
2,note_on,81,0,420
2,note_on,76,0,0
2,note_on,85,0,0
2,note_on,73,53,0
2,note_on,81,53,30
2,note_on,88,63,30
2,note_on,88,0,420
2,note_on,81,0,0
2,note_on,73,0,0
2,note_on,74,56,0
2,note_on,81,56,30
2,note_on,89,67,30
2,note_on,81,0,450
2,note_on,89,0,30
2,note_on,74,0,0
2,note_on,86,63,0
2,note_on,77,53,0
2,note_on,81,53,0
2,note_on,81,0,480
2,note_on,77,0,0
2,note_on,86,0,0
2,note_on,76,53,0
2,note_on,81,53,0
2,note_on,85,63,0
2,note_on,85,0,960
2,note_on,81,0,0
2,note_on,76,0,0
2,note_on,37,48,2400
2,note_on,40,53,0
2,note_on,46,45,0
2,note_on,46,0,240
2,note_on,45,44,0
2,note_on,45,0,240
2,note_on,40,0,0
2,note_on,37,0,0
2,note_on,38,46,0
2,note_on,41,53,0
2,note_on,45,36,0
2,note_on,45,0,240
2,note_on,46,38,0
2,note_on,46,0,240
2,note_on,49,39,0
2,note_on,49,0,240
2,note_on,50,41,0
2,note_on,50,0,240
2,note_on,41,0,0
2,note_on,38,0,0
2,note_on,52,45,0
2,note_on,52,0,240
2,note_on,53,46,0
2,note_on,53,0,240
2,note_on,56,48,0
2,note_on,56,0,240
2,note_on,57,56,0
2,note_on,57,0,220
2,note_on,57,57,20
2,note_on,56,51,240
2,note_on,56,0,240
2,note_on,53,50,0
2,note_on,53,0,240
2,note_on,52,49,0
2,note_on,52,0,240
2,note_on,57,0,0
2,note_on,40,45,0
2,note_on,43,53,0
2,note_on,50,47,0
2,note_on,50,0,240
2,note_on,49,45,0
2,note_on,49,0,240
2,note_on,46,45,0
2,note_on,46,0,240
2,note_on,45,44,0
2,note_on,45,0,220
2,note_on,43,0,20
2,note_on,40,0,0
2,note_on,41,53,0
2,note_on,45,36,0
2,note_on,46,38,240
2,note_on,46,0,240
2,note_on,49,39,0
2,note_on,49,0,240
2,note_on,50,41,0
2,note_on,50,0,240
2,note_on,45,0,0
2,note_on,41,0,0
2,note_on,52,45,0
2,note_on,52,0,240
2,note_on,53,46,0
2,note_on,53,0,240
2,note_on,56,48,0
2,note_on,56,0,240
2,note_on,57,56,0
2,note_on,57,0,220
2,note_on,57,57,20
2,note_on,56,51,240
2,note_on,56,0,240
2,note_on,53,50,0
2,note_on,53,0,240
2,note_on,52,49,0
2,note_on,52,0,240
2,note_on,57,0,0
2,note_on,42,45,0
2,note_on,48,53,0
2,note_on,51,58,0
2,note_on,45,45,240
2,note_on,45,0,240
2,note_on,46,46,0
2,note_on,46,0,240
2,note_on,47,45,0
2,note_on,47,0,240
2,note_on,42,0,0
2,note_on,48,0,0
2,note_on,51,0,0
2,note_on,41,47,0
2,note_on,48,56,0
2,note_on,51,58,0
2,note_on,45,48,240
2,note_on,45,0,240
2,note_on,46,49,0
2,note_on,46,0,240
2,note_on,47,48,0
2,note_on,47,0,240
2,note_on,41,0,0
2,note_on,48,0,0
2,note_on,51,0,0
2,note_on,40,50,0
2,note_on,48,59,0
2,note_on,52,63,0
2,note_on,45,51,240
2,note_on,45,0,240
2,note_on,46,52,0
2,note_on,46,0,240
2,note_on,47,51,0
2,note_on,47,0,240
2,note_on,40,0,0
2,note_on,48,0,0
2,note_on,52,0,0
2,note_on,42,53,0
2,note_on,48,52,0
2,note_on,54,67,0
2,note_on,45,54,240
2,note_on,45,0,240
2,note_on,46,54,0
2,note_on,46,0,240
2,note_on,47,54,0
2,note_on,47,0,240
2,note_on,42,0,0
2,note_on,48,0,0
2,note_on,54,0,0
2,note_on,38,59,0
2,note_on,48,59,0
2,note_on,54,70,0
2,note_on,54,0,240
2,note_on,45,57,0
2,note_on,45,0,240
2,note_on,54,58,0
2,note_on,47,58,0
2,note_on,47,0,240
2,note_on,54,0,0
2,note_on,44,58,0
2,note_on,44,0,240
2,note_on,48,0,0
2,note_on,38,0,0
2,note_on,49,64,0
2,note_on,37,54,0
2,note_on,44,54,0
2,note_on,44,0,120
2,note_on,37,0,0
2,note_on,49,0,0
2,note_on,50,54,120
2,note_on,38,45,0
2,note_on,38,0,120
2,note_on,50,0,0
2,note_on,49,59,120
2,note_on,37,50,0
2,note_on,44,50,0
2,note_on,44,0,120
2,note_on,37,0,0
2,note_on,49,0,0
2,note_on,50,52,120
2,note_on,38,44,0
2,note_on,38,0,120
2,note_on,50,0,0
2,note_on,49,61,120
2,note_on,37,51,0
2,note_on,37,0,120
2,note_on,49,0,0
2,note_on,54,54,120
2,note_on,42,45,0
2,note_on,42,0,120
2,note_on,54,0,0
2,note_on,53,62,120
2,note_on,41,52,0
2,note_on,41,0,120
2,note_on,53,0,0
2,note_on,50,54,120
2,note_on,38,45,0
2,note_on,38,0,120
2,note_on,50,0,0
2,note_on,49,60,120
2,note_on,37,51,0
2,note_on,37,0,120
2,note_on,49,0,0
2,note_on,50,55,120
2,note_on,38,46,0
2,note_on,38,0,120
2,note_on,50,0,0
2,note_on,49,60,120
2,note_on,37,51,0
2,note_on,37,0,120
2,note_on,49,0,0
2,note_on,50,54,120
2,note_on,38,45,0
2,note_on,38,0,120
2,note_on,50,0,0
2,note_on,49,61,120
2,note_on,37,51,0
2,note_on,37,0,120
2,note_on,49,0,0
2,note_on,54,54,120
2,note_on,42,45,0
2,note_on,42,0,120
2,note_on,54,0,0
2,note_on,53,62,120
2,note_on,41,52,0
2,note_on,41,0,120
2,note_on,53,0,0
2,note_on,50,54,120
2,note_on,38,45,0
2,note_on,38,0,120
2,note_on,50,0,0
2,note_on,49,60,120
2,note_on,37,51,0
2,note_on,37,0,120
2,note_on,49,0,0
2,note_on,50,55,120
2,note_on,38,46,0
2,note_on,38,0,120
2,note_on,50,0,0
2,note_on,49,60,120
2,note_on,37,51,0
2,note_on,37,0,120
2,note_on,49,0,0
2,note_on,50,54,120
2,note_on,38,45,0
2,note_on,38,0,120
2,note_on,50,0,0
2,note_on,49,64,120
2,note_on,37,53,0
2,note_on,37,0,120
2,note_on,49,0,0
2,note_on,56,56,120
2,note_on,44,47,0
2,note_on,44,0,120
2,note_on,56,0,0
2,note_on,53,65,120
2,note_on,41,54,0
2,note_on,41,0,120
2,note_on,53,0,0
2,note_on,50,56,120
2,note_on,38,47,0
2,note_on,38,0,120
2,note_on,50,0,0
2,note_on,49,63,120
2,note_on,37,53,0
2,note_on,37,0,120
2,note_on,49,0,0
2,note_on,50,57,120
2,note_on,38,48,0
2,note_on,38,0,120
2,note_on,50,0,0
2,note_on,49,63,120
2,note_on,37,53,0
2,note_on,37,0,120
2,note_on,49,0,0
2,note_on,50,56,120
2,note_on,38,47,0
2,note_on,38,0,120
2,note_on,50,0,0
2,note_on,49,64,120
2,note_on,37,53,0
2,note_on,37,0,120
2,note_on,49,0,0
2,note_on,50,56,120
2,note_on,38,47,0
2,note_on,38,0,120
2,note_on,50,0,0
2,note_on,51,65,120
2,note_on,39,54,0
2,note_on,39,0,120
2,note_on,51,0,0
2,note_on,52,56,120
2,note_on,40,47,0
2,note_on,40,0,120
2,note_on,52,0,0
2,note_on,53,69,120
2,note_on,41,58,0
2,note_on,41,0,120
2,note_on,53,0,0
2,note_on,54,62,120
2,note_on,42,52,0
2,note_on,42,0,120
2,note_on,54,0,0
2,note_on,53,69,120
2,note_on,41,58,0
2,note_on,41,0,120
2,note_on,53,0,0
2,note_on,54,61,120
2,note_on,42,51,0
2,note_on,42,0,120
2,note_on,54,0,0
2,note_on,53,61,120
2,note_on,41,51,0
2,note_on,41,0,120
2,note_on,53,0,0
2,note_on,58,54,120
2,note_on,46,45,0
2,note_on,46,0,120
2,note_on,58,0,0
2,note_on,57,62,120
2,note_on,45,52,0
2,note_on,45,0,120
2,note_on,57,0,0
2,note_on,54,54,120
2,note_on,42,45,0
2,note_on,42,0,120
2,note_on,54,0,0
2,note_on,53,60,120
2,note_on,41,51,0
2,note_on,41,0,120
2,note_on,53,0,0
2,note_on,54,55,120
2,note_on,42,46,0
2,note_on,42,0,120
2,note_on,54,0,0
2,note_on,53,60,120
2,note_on,41,51,0
2,note_on,41,0,60
2,note_on,53,0,0
2,note_on,54,54,180
2,note_on,42,45,0
2,note_on,42,0,60
2,note_on,54,0,0
2,note_on,53,61,180
2,note_on,41,51,0
2,note_on,41,0,120
2,note_on,53,0,0
2,note_on,58,54,120
2,note_on,46,45,0
2,note_on,46,0,120
2,note_on,58,0,0
2,note_on,57,62,120
2,note_on,45,52,0
2,note_on,45,0,120
2,note_on,57,0,0
2,note_on,54,54,120
2,note_on,42,45,0
2,note_on,42,0,120
2,note_on,54,0,0
2,note_on,53,60,120
2,note_on,41,51,0
2,note_on,41,0,120
2,note_on,53,0,0
2,note_on,54,55,120
2,note_on,42,46,0
2,note_on,42,0,120
2,note_on,54,0,0
2,note_on,53,60,120
2,note_on,41,51,0
2,note_on,41,0,120
2,note_on,53,0,0
2,note_on,54,54,120
2,note_on,42,45,0
2,note_on,42,0,120
2,note_on,54,0,0
2,note_on,53,64,120
2,note_on,41,53,0
2,note_on,41,0,120
2,note_on,53,0,0
2,note_on,60,56,120
2,note_on,48,47,0
2,note_on,48,0,120
2,note_on,60,0,0
2,note_on,57,65,120
2,note_on,45,54,0
2,note_on,45,0,120
2,note_on,57,0,0
2,note_on,54,56,120
2,note_on,42,47,0
2,note_on,42,0,120
2,note_on,54,0,0
2,note_on,53,63,120
2,note_on,41,53,0
2,note_on,41,0,120
2,note_on,53,0,0
2,note_on,54,57,120
2,note_on,42,48,0
2,note_on,42,0,120
2,note_on,54,0,0
2,note_on,53,63,120
2,note_on,41,53,0
2,note_on,41,0,60
2,note_on,53,0,0
2,note_on,54,56,180
2,note_on,42,47,0
2,note_on,42,0,60
2,note_on,54,0,0
2,note_on,53,64,180
2,note_on,41,53,0
2,note_on,41,0,120
2,note_on,53,0,0
2,note_on,61,56,120
2,note_on,49,47,0
2,note_on,49,0,120
2,note_on,61,0,0
2,note_on,58,65,120
2,note_on,46,54,0
2,note_on,46,0,120
2,note_on,58,0,0
2,note_on,54,56,120
2,note_on,42,47,0
2,note_on,42,0,120
2,note_on,54,0,0
2,note_on,53,61,120
2,note_on,41,51,0
2,note_on,41,0,120
2,note_on,53,0,0
2,note_on,54,63,120
2,note_on,42,53,0
2,note_on,42,0,120
2,note_on,54,0,0
2,note_on,57,64,120
2,note_on,45,54,0
2,note_on,45,0,120
2,note_on,57,0,0
2,note_on,58,66,120
2,note_on,46,56,0
2,note_on,46,0,120
2,note_on,58,0,0
2,note_on,60,69,120
2,note_on,48,58,0
2,note_on,48,0,120
2,note_on,60,0,0
2,note_on,61,70,120
2,note_on,49,59,0
2,note_on,49,0,120
2,note_on,61,0,0
2,note_on,64,71,120
2,note_on,52,60,0
2,note_on,52,0,120
2,note_on,64,0,0
2,note_on,65,73,120
2,note_on,53,62,0
2,note_on,53,0,120
2,note_on,65,0,0
2,note_on,65,74,120
2,note_on,53,62,0
2,note_on,53,0,120
2,note_on,65,0,0
2,note_on,64,76,120
2,note_on,52,64,0
2,note_on,52,0,120
2,note_on,64,0,0
2,note_on,61,75,120
2,note_on,49,63,0
2,note_on,49,0,120
2,note_on,61,0,0
2,note_on,60,74,120
2,note_on,48,62,0
2,note_on,48,0,120
2,note_on,60,0,0
2,note_on,58,72,120
2,note_on,46,61,0
2,note_on,46,0,120
2,note_on,58,0,0
2,note_on,57,71,120
2,note_on,45,60,0
2,note_on,45,0,120
2,note_on,57,0,0
2,note_on,54,70,120
2,note_on,42,59,0
2,note_on,42,0,120
2,note_on,54,0,0
2,note_on,53,69,120
2,note_on,41,58,0
2,note_on,41,0,120
2,note_on,53,0,0
2,note_on,53,61,120
2,note_on,41,51,0
2,note_on,41,0,120
2,note_on,53,0,0
2,note_on,54,63,120
2,note_on,42,53,0
2,note_on,42,0,120
2,note_on,54,0,0
2,note_on,57,64,120
2,note_on,45,54,0
2,note_on,45,0,120
2,note_on,57,0,0
2,note_on,58,66,120
2,note_on,46,56,0
2,note_on,46,0,120
2,note_on,58,0,0
2,note_on,60,69,120
2,note_on,48,58,0
2,note_on,48,0,120
2,note_on,60,0,0
2,note_on,61,70,120
2,note_on,49,59,0
2,note_on,49,0,120
2,note_on,61,0,0
2,note_on,64,71,120
2,note_on,52,60,0
2,note_on,52,0,120
2,note_on,64,0,0
2,note_on,65,73,120
2,note_on,53,62,0
2,note_on,53,0,120
2,note_on,65,0,0
2,note_on,65,74,120
2,note_on,53,62,0
2,note_on,53,0,120
2,note_on,65,0,0
2,note_on,64,76,120
2,note_on,52,64,0
2,note_on,52,0,120
2,note_on,64,0,0
2,note_on,61,75,120
2,note_on,49,63,0
2,note_on,49,0,120
2,note_on,61,0,0
2,note_on,60,74,120
2,note_on,48,62,0
2,note_on,48,0,120
2,note_on,60,0,0
2,note_on,58,72,120
2,note_on,46,61,0
2,note_on,46,0,120
2,note_on,58,0,0
2,note_on,57,71,120
2,note_on,45,60,0
2,note_on,45,0,120
2,note_on,57,0,0
2,note_on,54,70,120
2,note_on,42,59,0
2,note_on,42,0,120
2,note_on,54,0,0
2,note_on,53,69,120
2,note_on,41,58,0
2,note_on,41,0,120
2,note_on,53,0,0
2,note_on,53,69,120
2,note_on,41,51,0
2,note_on,45,51,0
2,note_on,45,0,240
2,note_on,53,0,0
2,note_on,54,53,0
2,note_on,46,45,0
2,note_on,46,0,240
2,note_on,54,0,0
2,note_on,41,0,0
2,note_on,57,55,0
2,note_on,48,46,0
2,note_on,48,0,240
2,note_on,57,0,0
2,note_on,58,58,0
2,note_on,49,49,0
2,note_on,49,0,240
2,note_on,58,0,0
2,note_on,60,60,0
2,note_on,51,51,0
2,note_on,51,0,240
2,note_on,60,0,0
2,note_on,61,62,0
2,note_on,53,52,0
2,note_on,53,0,240
2,note_on,61,0,0
2,note_on,63,64,0
2,note_on,54,54,0
2,note_on,54,0,240
2,note_on,63,0,0
2,note_on,65,66,0
2,note_on,57,56,0
2,note_on,57,0,240
2,note_on,65,0,0
2,note_on,66,68,0
2,note_on,58,57,0
2,note_on,58,0,240
2,note_on,66,0,0
2,note_on,60,64,720
2,note_on,51,54,0
2,note_on,51,0,240
2,note_on,60,0,0
2,note_on,58,63,0
2,note_on,49,53,0
2,note_on,49,0,240
2,note_on,58,0,0
2,note_on,57,61,0
2,note_on,48,51,0
2,note_on,48,0,240
2,note_on,57,0,0
2,note_on,54,60,0
2,note_on,46,51,0
2,note_on,46,0,240
2,note_on,54,0,0
2,note_on,55,69,0
2,note_on,41,51,0
2,note_on,47,51,0
2,note_on,47,0,240
2,note_on,55,0,0
2,note_on,56,53,0
2,note_on,48,45,0
2,note_on,48,0,240
2,note_on,56,0,0
2,note_on,41,0,0
2,note_on,59,55,0
2,note_on,50,46,0
2,note_on,50,0,240
2,note_on,59,0,0
2,note_on,60,58,0
2,note_on,51,49,0
2,note_on,51,0,240
2,note_on,60,0,0
2,note_on,62,60,0
2,note_on,53,51,0
2,note_on,53,0,240
2,note_on,62,0,0
2,note_on,63,62,0
2,note_on,55,52,0
2,note_on,55,0,240
2,note_on,63,0,0
2,note_on,65,64,0
2,note_on,56,54,0
2,note_on,56,0,240
2,note_on,65,0,0
2,note_on,67,66,0
2,note_on,59,56,0
2,note_on,59,0,240
2,note_on,67,0,0
2,note_on,68,68,0
2,note_on,60,57,0
2,note_on,60,0,240
2,note_on,68,0,0
2,note_on,62,64,720
2,note_on,53,54,0
2,note_on,53,0,240
2,note_on,62,0,0
2,note_on,60,63,0
2,note_on,51,53,0
2,note_on,51,0,240
2,note_on,60,0,0
2,note_on,59,61,0
2,note_on,50,51,0
2,note_on,50,0,240
2,note_on,59,0,0
2,note_on,56,60,0
2,note_on,48,51,0
2,note_on,48,0,240
2,note_on,56,0,0
2,note_on,57,72,0
2,note_on,41,50,0
2,note_on,48,50,0
2,note_on,51,50,0
2,note_on,51,0,240
2,note_on,57,0,0
2,note_on,41,0,0
2,note_on,48,0,0
2,note_on,58,65,0
2,note_on,50,52,0
2,note_on,53,52,0
2,note_on,53,0,240
2,note_on,50,0,0
2,note_on,58,0,0
2,note_on,60,67,0
2,note_on,51,53,0
2,note_on,55,53,0
2,note_on,55,0,240
2,note_on,51,0,0
2,note_on,60,0,0
2,note_on,62,69,0
2,note_on,53,55,0
2,note_on,57,55,0
2,note_on,57,0,240
2,note_on,53,0,0
2,note_on,62,0,0
2,note_on,55,56,0
2,note_on,55,0,240
2,note_on,57,57,0
2,note_on,57,0,240
2,note_on,58,59,0
2,note_on,58,0,240
2,note_on,60,60,0
2,note_on,60,0,240
2,note_on,53,64,0
2,note_on,63,64,0
2,note_on,63,0,240
2,note_on,53,0,0
2,note_on,62,60,0
2,note_on,62,0,240
2,note_on,60,59,0
2,note_on,60,0,240
2,note_on,58,57,0
2,note_on,58,0,240
2,note_on,57,56,0
2,note_on,57,0,240
2,note_on,55,54,0
2,note_on,55,0,240
2,note_on,53,52,0
2,note_on,53,0,240
2,note_on,51,51,0
2,note_on,51,0,240
2,note_on,41,50,0
2,note_on,55,50,0
2,note_on,55,0,240
2,note_on,41,0,0
2,note_on,57,52,0
2,note_on,57,0,240
2,note_on,58,53,0
2,note_on,58,0,240
2,note_on,60,55,0
2,note_on,60,0,240
2,note_on,62,56,0
2,note_on,62,0,240
2,note_on,63,57,0
2,note_on,63,0,240
2,note_on,65,59,0
2,note_on,65,0,240
2,note_on,67,60,0
2,note_on,67,0,240
2,note_on,70,64,0
2,note_on,70,0,240
2,note_on,69,60,0
2,note_on,69,0,240
2,note_on,67,59,0
2,note_on,67,0,240
2,note_on,65,57,0
2,note_on,65,0,240
2,note_on,63,64,0
2,note_on,67,64,0
2,note_on,67,0,240
2,note_on,63,0,0
2,note_on,65,64,0
2,note_on,62,60,0
2,note_on,62,0,240
2,note_on,65,0,0
2,note_on,60,59,0
2,note_on,63,59,0
2,note_on,63,0,240
2,note_on,60,0,0
2,note_on,58,57,0
2,note_on,62,57,0
2,note_on,62,0,240
2,note_on,58,0,0
2,note_on,67,64,0
2,note_on,70,64,0
2,note_on,70,0,240
2,note_on,67,0,0
2,note_on,65,60,0
2,note_on,69,60,0
2,note_on,69,0,240
2,note_on,65,0,0
2,note_on,63,59,0
2,note_on,67,59,0
2,note_on,67,0,240
2,note_on,63,0,0
2,note_on,62,57,0
2,note_on,65,57,0
2,note_on,65,0,240
2,note_on,62,0,0
2,note_on,70,64,0
2,note_on,74,64,0
2,note_on,74,0,240
2,note_on,70,0,0
2,note_on,69,60,0
2,note_on,72,60,0
2,note_on,72,0,240
2,note_on,69,0,0
2,note_on,67,59,0
2,note_on,70,59,0
2,note_on,70,0,240
2,note_on,67,0,0
2,note_on,65,57,0
2,note_on,69,57,0
2,note_on,69,0,240
2,note_on,65,0,0
2,note_on,75,64,0
2,note_on,79,64,0
2,note_on,79,0,240
2,note_on,75,0,0
2,note_on,74,60,0
2,note_on,77,60,0
2,note_on,77,0,240
2,note_on,74,0,0
2,note_on,72,59,0
2,note_on,75,59,0
2,note_on,75,0,240
2,note_on,72,0,0
2,note_on,70,57,0
2,note_on,74,57,0
2,note_on,74,0,240
2,note_on,70,0,0
2,note_on,82,70,0
2,note_on,79,59,0
2,note_on,79,0,60
2,note_on,82,0,0
2,note_on,81,70,0
2,note_on,77,59,0
2,note_on,77,0,60
2,note_on,81,0,0
2,note_on,79,69,0
2,note_on,75,58,0
2,note_on,75,0,60
2,note_on,79,0,0
2,note_on,77,69,0
2,note_on,74,58,0
2,note_on,74,0,60
2,note_on,77,0,0
2,note_on,75,68,0
2,note_on,72,57,0
2,note_on,72,0,60
2,note_on,75,0,0
2,note_on,74,68,0
2,note_on,70,57,0
2,note_on,70,0,60
2,note_on,74,0,0
2,note_on,72,67,0
2,note_on,69,56,0
2,note_on,69,0,60
2,note_on,72,0,0
2,note_on,70,67,0
2,note_on,67,56,0
2,note_on,67,0,60
2,note_on,70,0,0
2,note_on,69,66,0
2,note_on,65,56,0
2,note_on,65,0,60
2,note_on,69,0,0
2,note_on,67,66,0
2,note_on,63,56,0
2,note_on,63,0,60
2,note_on,67,0,0
2,note_on,65,65,0
2,note_on,62,55,0
2,note_on,62,0,60
2,note_on,65,0,0
2,note_on,63,65,0
2,note_on,60,55,0
2,note_on,60,0,60
2,note_on,63,0,0
2,note_on,62,64,0
2,note_on,58,54,0
2,note_on,58,0,60
2,note_on,62,0,0
2,note_on,60,64,0
2,note_on,57,54,0
2,note_on,57,0,60
2,note_on,60,0,0
2,note_on,59,63,0
2,note_on,56,53,0
2,note_on,56,0,60
2,note_on,59,0,0
2,note_on,60,63,0
2,note_on,57,53,0
2,note_on,57,0,60
2,note_on,60,0,0
2,note_on,56,53,0
2,note_on,59,64,0
2,note_on,59,0,60
2,note_on,56,0,0
2,note_on,57,53,0
2,note_on,60,63,0
2,note_on,60,0,60
2,note_on,57,0,0
2,note_on,58,57,0
2,note_on,61,57,0
2,note_on,61,0,60
2,note_on,58,0,0
2,note_on,59,58,0
2,note_on,62,58,0
2,note_on,62,0,60
2,note_on,59,0,0
2,note_on,60,58,0
2,note_on,63,58,0
2,note_on,63,0,60
2,note_on,60,0,0
2,note_on,61,59,0
2,note_on,64,59,0
2,note_on,64,0,60
2,note_on,61,0,0
2,note_on,62,60,0
2,note_on,65,60,0
2,note_on,65,0,60
2,note_on,62,0,0
2,note_on,63,60,0
2,note_on,66,60,0
2,note_on,66,0,60
2,note_on,63,0,0
2,note_on,64,60,0
2,note_on,67,60,0
2,note_on,67,0,60
2,note_on,64,0,0
2,note_on,65,61,0
2,note_on,68,61,0
2,note_on,68,0,60
2,note_on,65,0,0
2,note_on,66,61,0
2,note_on,69,61,0
2,note_on,69,0,60
2,note_on,66,0,0
2,note_on,67,62,0
2,note_on,70,62,0
2,note_on,70,0,60
2,note_on,67,0,0
2,note_on,68,62,0
2,note_on,71,62,0
2,note_on,71,0,60
2,note_on,68,0,0
2,note_on,69,62,0
2,note_on,72,62,0
2,note_on,72,0,60
2,note_on,69,0,0
2,note_on,70,63,0
2,note_on,73,63,0
2,note_on,73,0,60
2,note_on,70,0,0
2,note_on,71,64,0
2,note_on,74,64,0
2,note_on,74,0,60
2,note_on,71,0,0
2,note_on,72,64,0
2,note_on,75,64,0
2,note_on,75,0,60
2,note_on,72,0,0
2,note_on,73,65,0
2,note_on,76,65,0
2,note_on,76,0,60
2,note_on,73,0,0
2,note_on,74,66,0
2,note_on,77,66,0
2,note_on,77,0,60
2,note_on,74,0,0
2,note_on,75,66,0
2,note_on,78,66,0
2,note_on,78,0,60
2,note_on,75,0,0
2,note_on,76,67,0
2,note_on,79,67,0
2,note_on,79,0,60
2,note_on,76,0,0
2,note_on,77,68,0
2,note_on,80,68,0
2,note_on,80,0,60
2,note_on,77,0,0
2,note_on,78,68,0
2,note_on,81,68,0
2,note_on,81,0,60
2,note_on,78,0,0
2,note_on,79,71,0
2,note_on,82,73,0
2,note_on,82,0,120
2,note_on,79,0,0
2,note_on,46,75,7860
2,note_on,46,0,120
2,note_on,65,34,120
2,note_on,62,28,0
2,note_on,62,0,120
2,note_on,65,0,0
2,note_on,62,44,120
2,note_on,58,37,0
2,note_on,58,0,120
2,note_on,62,0,0
2,note_on,58,34,120
2,note_on,53,28,0
2,note_on,53,0,120
2,note_on,58,0,0
2,note_on,46,56,120
2,note_on,46,0,120
2,note_on,65,34,120
2,note_on,62,28,0
2,note_on,62,0,120
2,note_on,65,0,0
2,note_on,62,44,120
2,note_on,58,37,0
2,note_on,58,0,120
2,note_on,62,0,0
2,note_on,58,34,120
2,note_on,53,28,0
2,note_on,53,0,120
2,note_on,58,0,0
2,note_on,46,74,120
2,note_on,46,0,120
2,note_on,65,34,120
2,note_on,62,28,0
2,note_on,62,0,120
2,note_on,65,0,0
2,note_on,62,44,120
2,note_on,58,37,0
2,note_on,58,0,120
2,note_on,62,0,0
2,note_on,58,34,120
2,note_on,53,28,0
2,note_on,53,0,120
2,note_on,58,0,0
2,note_on,46,53,120
2,note_on,46,0,120
2,note_on,65,34,120
2,note_on,62,28,0
2,note_on,62,0,120
2,note_on,65,0,0
2,note_on,62,44,120
2,note_on,58,37,0
2,note_on,58,0,120
2,note_on,62,0,0
2,note_on,58,34,120
2,note_on,53,28,0
2,note_on,53,0,120
2,note_on,58,0,0
2,note_on,46,73,120
2,note_on,46,0,120
2,note_on,62,35,120
2,note_on,58,29,0
2,note_on,58,0,120
2,note_on,62,0,0
2,note_on,58,46,120
2,note_on,53,38,0
2,note_on,53,0,120
2,note_on,58,0,0
2,note_on,62,35,120
2,note_on,58,29,0
2,note_on,58,0,120
2,note_on,62,0,0
2,note_on,46,51,120
2,note_on,46,0,120
2,note_on,62,35,120
2,note_on,58,29,0
2,note_on,58,0,120
2,note_on,62,0,0
2,note_on,58,46,120
2,note_on,53,38,0
2,note_on,53,0,120
2,note_on,58,0,0
2,note_on,62,35,120
2,note_on,58,29,0
2,note_on,58,0,120
2,note_on,62,0,0
2,note_on,41,84,120
2,note_on,41,0,120
2,note_on,63,35,120
2,note_on,60,29,0
2,note_on,60,0,120
2,note_on,63,0,0
2,note_on,60,46,120
2,note_on,53,38,0
2,note_on,53,0,120
2,note_on,60,0,0
2,note_on,63,35,120
2,note_on,60,29,0
2,note_on,60,0,120
2,note_on,63,0,0
2,note_on,46,61,120
2,note_on,46,0,120
2,note_on,62,35,120
2,note_on,58,29,0
2,note_on,58,0,120
2,note_on,62,0,0
2,note_on,58,46,120
2,note_on,53,38,0
2,note_on,53,0,120
2,note_on,58,0,0
2,note_on,53,35,120
2,note_on,50,29,0
2,note_on,50,0,120
2,note_on,53,0,0
2,note_on,46,72,120
2,note_on,46,0,120
2,note_on,65,34,120
2,note_on,62,28,0
2,note_on,62,0,120
2,note_on,65,0,0
2,note_on,62,44,120
2,note_on,58,37,0
2,note_on,58,0,120
2,note_on,62,0,0
2,note_on,58,34,120
2,note_on,53,28,0
2,note_on,53,0,120
2,note_on,58,0,0
2,note_on,46,56,120
2,note_on,46,0,120
2,note_on,65,34,120
2,note_on,62,28,0
2,note_on,62,0,120
2,note_on,65,0,0
2,note_on,62,44,120
2,note_on,58,37,0
2,note_on,58,0,120
2,note_on,62,0,0
2,note_on,58,34,120
2,note_on,53,28,0
2,note_on,53,0,120
2,note_on,58,0,0
2,note_on,46,74,120
2,note_on,46,0,120
2,note_on,65,34,120
2,note_on,62,28,0
2,note_on,62,0,120
2,note_on,65,0,0
2,note_on,62,44,120
2,note_on,58,37,0
2,note_on,58,0,120
2,note_on,62,0,0
2,note_on,58,34,120
2,note_on,53,28,0
2,note_on,53,0,120
2,note_on,58,0,0
2,note_on,46,53,120
2,note_on,46,0,120
2,note_on,65,34,120
2,note_on,62,28,0
2,note_on,62,0,120
2,note_on,65,0,0
2,note_on,62,44,120
2,note_on,58,37,0
2,note_on,58,0,120
2,note_on,62,0,0
2,note_on,58,34,120
2,note_on,53,28,0
2,note_on,53,0,120
2,note_on,58,0,0
2,note_on,46,73,120
2,note_on,46,0,120
2,note_on,62,35,120
2,note_on,58,29,0
2,note_on,58,0,120
2,note_on,62,0,0
2,note_on,58,46,120
2,note_on,53,38,0
2,note_on,53,0,120
2,note_on,58,0,0
2,note_on,62,35,120
2,note_on,58,29,0
2,note_on,58,0,120
2,note_on,62,0,0
2,note_on,46,51,120
2,note_on,46,0,120
2,note_on,62,35,120
2,note_on,58,29,0
2,note_on,58,0,120
2,note_on,62,0,0
2,note_on,58,46,120
2,note_on,53,38,0
2,note_on,53,0,120
2,note_on,58,0,0
2,note_on,62,35,120
2,note_on,58,29,0
2,note_on,58,0,120
2,note_on,62,0,0
2,note_on,41,85,120
2,note_on,41,0,120
2,note_on,63,35,120
2,note_on,60,29,0
2,note_on,60,0,120
2,note_on,63,0,0
2,note_on,60,46,120
2,note_on,53,38,0
2,note_on,53,0,120
2,note_on,60,0,0
2,note_on,63,35,120
2,note_on,60,29,0
2,note_on,60,0,120
2,note_on,63,0,0
2,note_on,46,61,120
2,note_on,46,0,120
2,note_on,62,35,120
2,note_on,58,29,0
2,note_on,58,0,120
2,note_on,62,0,0
2,note_on,58,46,120
2,note_on,53,38,0
2,note_on,53,0,120
2,note_on,58,0,0
2,note_on,62,72,360
2,note_on,62,0,120
2,note_on,65,34,120
2,note_on,65,0,120
2,note_on,58,44,120
2,note_on,58,0,120
2,note_on,62,28,120
2,note_on,65,34,0
2,note_on,65,0,120
2,note_on,62,0,0
2,note_on,57,51,120
2,note_on,57,0,120
2,note_on,60,28,120
2,note_on,65,34,0
2,note_on,65,0,120
2,note_on,60,0,0
2,note_on,53,44,120
2,note_on,53,0,120
2,note_on,57,28,120
2,note_on,60,34,0
2,note_on,60,0,120
2,note_on,57,0,0
2,note_on,52,72,120
2,note_on,52,0,120
2,note_on,55,28,120
2,note_on,60,34,0
2,note_on,60,0,120
2,note_on,55,0,0
2,note_on,48,44,120
2,note_on,48,0,120
2,note_on,60,28,120
2,note_on,64,34,0
2,note_on,64,0,120
2,note_on,60,0,0
2,note_on,53,51,120
2,note_on,53,0,120
2,note_on,60,28,120
2,note_on,65,34,0
2,note_on,65,0,120
2,note_on,60,0,0
2,note_on,57,44,120
2,note_on,57,0,120
2,note_on,60,28,120
2,note_on,65,34,0
2,note_on,65,0,120
2,note_on,60,0,0
2,note_on,57,72,120
2,note_on,57,0,120
2,note_on,69,34,120
2,note_on,60,30,0
2,note_on,65,30,0
2,note_on,65,0,120
2,note_on,60,0,0
2,note_on,69,0,0
2,note_on,57,44,120
2,note_on,57,0,120
2,note_on,60,28,120
2,note_on,69,34,0
2,note_on,65,28,0
2,note_on,65,0,120
2,note_on,69,0,0
2,note_on,60,0,0
2,note_on,56,56,120
2,note_on,56,0,120
2,note_on,59,30,120
2,note_on,65,30,0
2,note_on,68,37,0
2,note_on,68,0,120
2,note_on,65,0,0
2,note_on,59,0,0
2,note_on,55,48,120
2,note_on,55,0,120
2,note_on,58,30,120
2,note_on,64,30,0
2,note_on,67,37,0
2,note_on,67,0,120
2,note_on,64,0,0
2,note_on,58,0,0
2,note_on,53,46,120
2,note_on,53,0,120
2,note_on,65,30,120
2,note_on,57,26,0
2,note_on,60,26,0
2,note_on,60,0,120
2,note_on,57,0,0
2,note_on,65,0,0
2,note_on,53,40,120
2,note_on,53,0,120
2,note_on,56,26,120
2,note_on,60,26,0
2,note_on,65,30,0
2,note_on,65,0,120
2,note_on,60,0,0
2,note_on,56,0,0
2,note_on,48,46,120
2,note_on,48,0,120
2,note_on,64,30,120
2,note_on,60,26,0
2,note_on,60,0,120
2,note_on,64,0,0
2,note_on,55,40,120
2,note_on,55,0,120
2,note_on,60,26,120
2,note_on,64,30,0
2,note_on,64,0,120
2,note_on,60,0,0
2,note_on,48,72,120
2,note_on,48,0,120
2,note_on,60,26,120
2,note_on,64,34,0
2,note_on,64,0,120
2,note_on,60,0,0
2,note_on,55,44,120
2,note_on,55,0,120
2,note_on,60,28,120
2,note_on,64,34,0
2,note_on,64,0,120
2,note_on,60,0,0
2,note_on,47,80,120
2,note_on,47,0,120
2,note_on,62,28,120
2,note_on,65,34,0
2,note_on,65,0,120
2,note_on,62,0,0
2,note_on,55,44,120
2,note_on,55,0,120
2,note_on,62,28,120
2,note_on,65,34,0
2,note_on,65,0,120
2,note_on,62,0,0
2,note_on,43,89,120
2,note_on,43,0,120
2,note_on,59,26,120
2,note_on,65,34,0
2,note_on,65,0,120
2,note_on,59,0,0
2,note_on,55,44,120
2,note_on,55,0,120
2,note_on,62,28,120
2,note_on,65,34,0
2,note_on,65,0,120
2,note_on,62,0,0
2,note_on,48,77,120
2,note_on,48,0,120
2,note_on,60,28,120
2,note_on,64,34,0
2,note_on,64,0,120
2,note_on,60,0,0
2,note_on,55,44,120
2,note_on,55,0,120
2,note_on,60,28,120
2,note_on,64,34,0
2,note_on,64,0,120
2,note_on,60,0,0
2,note_on,43,77,120
2,note_on,43,0,120
2,note_on,59,26,120
2,note_on,65,34,0
2,note_on,65,0,120
2,note_on,59,0,0
2,note_on,55,44,120
2,note_on,55,0,120
2,note_on,62,28,120
2,note_on,65,34,0
2,note_on,65,0,120
2,note_on,62,0,0
2,note_on,48,51,120
2,note_on,48,0,120
2,note_on,60,28,120
2,note_on,64,34,0
2,note_on,64,0,120
2,note_on,60,0,0
2,note_on,55,44,120
2,note_on,55,0,120
2,note_on,60,28,120
2,note_on,64,34,0
2,note_on,64,0,120
2,note_on,60,0,0
2,note_on,43,86,120
2,note_on,43,0,120
2,note_on,59,26,120
2,note_on,65,34,0
2,note_on,65,0,120
2,note_on,59,0,0
2,note_on,55,44,120
2,note_on,55,0,120
2,note_on,62,28,120
2,note_on,65,34,0
2,note_on,65,0,120
2,note_on,62,0,0
2,note_on,64,56,120
2,note_on,60,47,0
2,note_on,60,0,120
2,note_on,64,0,0
2,note_on,60,49,120
2,note_on,48,40,0
2,note_on,48,0,120
2,note_on,60,0,0
2,note_on,55,55,120
2,note_on,43,46,0
2,note_on,43,0,120
2,note_on,55,0,0
2,note_on,53,60,120
2,note_on,41,50,0
2,note_on,41,0,120
2,note_on,53,0,0
2,note_on,52,91,120
2,note_on,40,73,0
2,note_on,40,0,120
2,note_on,52,0,0
2,note_on,60,56,120
2,note_on,55,46,0
2,note_on,55,0,120
2,note_on,60,0,0
2,note_on,48,63,120
2,note_on,36,53,0
2,note_on,36,0,120
2,note_on,48,0,0
2,note_on,60,55,120
2,note_on,55,46,0
2,note_on,52,46,0
2,note_on,52,0,120
2,note_on,55,0,0
2,note_on,60,0,0
2,note_on,53,78,120
2,note_on,41,66,0
2,note_on,41,0,120
2,note_on,53,0,0
2,note_on,57,55,120
2,note_on,53,46,0
2,note_on,53,0,120
2,note_on,57,0,0
2,note_on,60,64,120
2,note_on,57,54,0
2,note_on,57,0,120
2,note_on,60,0,0
2,note_on,57,55,120
2,note_on,53,46,0
2,note_on,53,0,120
2,note_on,57,0,0
2,note_on,52,77,120
2,note_on,40,65,0
2,note_on,40,0,120
2,note_on,52,0,0
2,note_on,60,56,120
2,note_on,55,46,0
2,note_on,55,0,120
2,note_on,60,0,0
2,note_on,48,63,120
2,note_on,36,53,0
2,note_on,36,0,120
2,note_on,48,0,0
2,note_on,60,55,120
2,note_on,55,46,0
2,note_on,52,46,0
2,note_on,52,0,120
2,note_on,55,0,0
2,note_on,60,0,0
2,note_on,53,78,120
2,note_on,41,66,0
2,note_on,41,0,120
2,note_on,53,0,0
2,note_on,60,55,120
2,note_on,57,46,0
2,note_on,57,0,120
2,note_on,60,0,0
2,note_on,64,59,60
2,note_on,64,0,60
2,note_on,65,64,0
2,note_on,65,0,120
2,note_on,60,65,360
2,note_on,57,55,0
2,note_on,57,0,480
2,note_on,60,0,0
2,note_on,57,63,0
2,note_on,53,53,0
2,note_on,53,0,120
2,note_on,57,0,0
2,note_on,62,55,120
2,note_on,58,46,0
2,note_on,58,0,120
2,note_on,62,0,0
2,note_on,60,66,120
2,note_on,57,56,0
2,note_on,57,0,120
2,note_on,60,0,0
2,note_on,57,55,120
2,note_on,53,46,0
2,note_on,53,0,120
2,note_on,57,0,0
2,note_on,41,57,120
2,note_on,53,64,0
2,note_on,53,0,120
2,note_on,41,0,0
2,note_on,60,65,360
2,note_on,57,55,0
2,note_on,57,0,480
2,note_on,60,0,0
2,note_on,57,63,0
2,note_on,53,53,0
2,note_on,53,0,120
2,note_on,57,0,0
2,note_on,62,55,120
2,note_on,58,46,0
2,note_on,58,0,120
2,note_on,62,0,0
2,note_on,60,66,120
2,note_on,57,56,0
2,note_on,57,0,120
2,note_on,60,0,0
2,note_on,57,55,120
2,note_on,53,46,0
2,note_on,53,0,120
2,note_on,57,0,0
2,note_on,41,57,120
2,note_on,53,64,0
2,note_on,53,0,120
2,note_on,41,0,0
2,note_on,60,65,360
2,note_on,57,55,0
2,note_on,57,0,480
2,note_on,60,0,0
2,note_on,57,63,0
2,note_on,53,53,0
2,note_on,53,0,120
2,note_on,57,0,0
2,note_on,62,55,120
2,note_on,58,46,0
2,note_on,58,0,120
2,note_on,62,0,0
2,note_on,60,66,120
2,note_on,57,56,0
2,note_on,57,0,120
2,note_on,60,0,0
2,note_on,57,55,120
2,note_on,53,46,0
2,note_on,53,0,120
2,note_on,57,0,0
2,note_on,41,57,120
2,note_on,53,64,0
2,note_on,53,0,120
2,note_on,41,0,0
2,note_on,60,65,360
2,note_on,57,55,0
2,note_on,57,0,480
2,note_on,60,0,0
2,note_on,57,63,0
2,note_on,53,53,0
2,note_on,53,0,120
2,note_on,57,0,0
2,note_on,62,55,120
2,note_on,58,46,0
2,note_on,58,0,120
2,note_on,62,0,0
2,note_on,60,66,120
2,note_on,57,56,0
2,note_on,57,0,120
2,note_on,60,0,0
2,note_on,57,44,360
2,note_on,57,0,120
2,note_on,60,28,120
2,note_on,69,34,0
2,note_on,65,28,0
2,note_on,65,0,120
2,note_on,69,0,0
2,note_on,60,0,0
2,note_on,57,56,120
2,note_on,57,0,120
2,note_on,60,30,120
2,note_on,65,37,0
2,note_on,65,0,120
2,note_on,60,0,0
2,note_on,55,48,120
2,note_on,55,0,120
2,note_on,59,30,120
2,note_on,62,37,0
2,note_on,62,0,120
2,note_on,59,0,0
2,note_on,52,46,120
2,note_on,52,0,120
2,note_on,67,30,120
2,note_on,58,26,0
2,note_on,60,26,0
2,note_on,60,0,120
2,note_on,58,0,0
2,note_on,67,0,0
2,note_on,53,40,120
2,note_on,53,0,120
2,note_on,57,26,120
2,note_on,60,26,0
2,note_on,65,30,0
2,note_on,65,0,120
2,note_on,60,0,0
2,note_on,57,0,0
2,note_on,48,46,120
2,note_on,48,0,120
2,note_on,65,30,120
2,note_on,60,26,0
2,note_on,60,0,120
2,note_on,65,0,0
2,note_on,55,40,120
2,note_on,55,0,120
2,note_on,60,26,120
2,note_on,64,30,0
2,note_on,64,0,120
2,note_on,60,0,0
2,note_on,53,61,120
2,note_on,53,0,120
2,note_on,65,34,120
2,note_on,60,28,0
2,note_on,57,28,0
2,note_on,57,0,120
2,note_on,60,0,0
2,note_on,65,0,0
2,note_on,57,44,120
2,note_on,57,0,120
2,note_on,60,28,120
2,note_on,69,34,0
2,note_on,65,28,0
2,note_on,65,0,120
2,note_on,69,0,0
2,note_on,60,0,0
2,note_on,56,56,120
2,note_on,56,0,120
2,note_on,65,30,120
2,note_on,60,30,0
2,note_on,68,37,0
2,note_on,68,0,120
2,note_on,60,0,0
2,note_on,65,0,0
2,note_on,55,48,120
2,note_on,55,0,120
2,note_on,62,30,120
2,note_on,59,30,0
2,note_on,65,37,0
2,note_on,65,0,120
2,note_on,59,0,0
2,note_on,62,0,0
2,note_on,52,46,120
2,note_on,52,0,120
2,note_on,64,30,120
2,note_on,58,26,0
2,note_on,61,26,0
2,note_on,61,0,120
2,note_on,58,0,0
2,note_on,64,0,0
2,note_on,53,40,120
2,note_on,53,0,120
2,note_on,57,26,120
2,note_on,60,26,0
2,note_on,65,30,0
2,note_on,65,0,120
2,note_on,60,0,0
2,note_on,57,0,0
2,note_on,48,46,120
2,note_on,48,0,120
2,note_on,65,30,120
2,note_on,60,26,0
2,note_on,60,0,120
2,note_on,65,0,0
2,note_on,55,40,120
2,note_on,55,0,120
2,note_on,60,26,120
2,note_on,64,30,0
2,note_on,64,0,120
2,note_on,60,0,0
2,note_on,53,61,120
2,note_on,53,0,120
2,note_on,65,34,120
2,note_on,60,28,0
2,note_on,57,28,0
2,note_on,57,0,120
2,note_on,60,0,0
2,note_on,65,0,0
2,note_on,57,44,120
2,note_on,57,0,120
2,note_on,60,28,120
2,note_on,69,34,0
2,note_on,65,28,0
2,note_on,65,0,120
2,note_on,69,0,0
2,note_on,60,0,0
2,note_on,56,56,120
2,note_on,56,0,120
2,note_on,62,30,120
2,note_on,60,30,0
2,note_on,66,37,0
2,note_on,66,0,120
2,note_on,60,0,0
2,note_on,62,0,0
2,note_on,55,48,120
2,note_on,55,0,120
2,note_on,62,30,120
2,note_on,59,30,0
2,note_on,67,37,0
2,note_on,67,0,120
2,note_on,59,0,0
2,note_on,62,0,0
2,note_on,54,46,120
2,note_on,54,0,120
2,note_on,64,30,120
2,note_on,58,26,0
2,note_on,60,26,0
2,note_on,60,0,120
2,note_on,58,0,0
2,note_on,64,0,0
2,note_on,53,40,120
2,note_on,53,0,120
2,note_on,57,26,120
2,note_on,60,26,0
2,note_on,65,30,0
2,note_on,65,0,120
2,note_on,60,0,0
2,note_on,57,0,0
2,note_on,49,46,120
2,note_on,49,0,120
2,note_on,55,26,120
2,note_on,65,30,0
2,note_on,58,26,0
2,note_on,58,0,120
2,note_on,65,0,0
2,note_on,55,0,0
2,note_on,48,40,120
2,note_on,48,0,120
2,note_on,55,26,120
2,note_on,58,26,0
2,note_on,64,30,0
2,note_on,64,0,120
2,note_on,58,0,0
2,note_on,55,0,0
2,note_on,53,46,120
2,note_on,53,0,120
2,note_on,60,30,120
2,note_on,57,26,0
2,note_on,57,0,120
2,note_on,60,0,0
2,note_on,60,26,120
2,note_on,65,40,0
2,note_on,65,0,120
2,note_on,60,0,0
2,note_on,57,26,120
2,note_on,60,30,0
2,note_on,60,0,120
2,note_on,57,0,0
2,note_on,41,38,510
2,note_on,45,41,30
2,note_on,48,45,30
2,note_on,53,48,30
2,note_on,53,0,120
2,note_on,41,0,0
2,note_on,45,0,0
2,note_on,48,0,0
2,note_on,37,41,750
2,note_on,41,44,30
2,note_on,46,47,30
2,note_on,49,50,30
2,note_on,49,0,120
2,note_on,37,0,0
2,note_on,41,0,0
2,note_on,46,0,0
2,note_on,34,39,750
2,note_on,37,42,30
2,note_on,41,45,30
2,note_on,46,48,30
2,note_on,46,0,120
2,note_on,34,0,0
2,note_on,37,0,0
2,note_on,41,0,0
2,note_on,29,38,750
2,note_on,33,41,30
2,note_on,36,45,30
2,note_on,41,48,30
2,note_on,41,0,120
2,note_on,29,0,0
2,note_on,33,0,0
2,note_on,36,0,0
2,note_on,41,38,750
2,note_on,45,41,30
2,note_on,48,45,30
2,note_on,53,48,30
2,note_on,53,0,120
2,note_on,41,0,0
2,note_on,45,0,0
2,note_on,48,0,0
2,note_on,37,41,750
2,note_on,41,44,30
2,note_on,46,47,30
2,note_on,49,50,30
2,note_on,49,0,120
2,note_on,37,0,0
2,note_on,41,0,0
2,note_on,46,0,0
2,note_on,34,39,750
2,note_on,37,42,30
2,note_on,41,45,30
2,note_on,46,48,30
2,note_on,46,0,120
2,note_on,34,0,0
2,note_on,37,0,0
2,note_on,41,0,0
2,note_on,33,38,750
2,note_on,37,41,30
2,note_on,40,45,30
2,note_on,45,48,30
2,note_on,45,0,120
2,note_on,33,0,0
2,note_on,37,0,0
2,note_on,40,0,0
2,note_on,45,38,750
2,note_on,49,41,30
2,note_on,52,45,30
2,note_on,57,48,30
2,note_on,57,0,120
2,note_on,45,0,0
2,note_on,49,0,0
2,note_on,52,0,0
2,note_on,41,41,750
2,note_on,45,44,30
2,note_on,50,47,30
2,note_on,53,50,30
2,note_on,53,0,120
2,note_on,41,0,0
2,note_on,45,0,0
2,note_on,50,0,0
2,note_on,38,39,750
2,note_on,41,42,30
2,note_on,45,45,30
2,note_on,50,48,30
2,note_on,50,0,120
2,note_on,38,0,0
2,note_on,41,0,0
2,note_on,45,0,0
2,note_on,37,38,750
2,note_on,41,41,30
2,note_on,44,45,30
2,note_on,49,48,30
2,note_on,49,0,120
2,note_on,37,0,0
2,note_on,41,0,0
2,note_on,44,0,0
2,note_on,49,38,750
2,note_on,53,41,30
2,note_on,56,45,30
2,note_on,61,48,30
2,note_on,61,0,120
2,note_on,49,0,0
2,note_on,53,0,0
2,note_on,56,0,0
2,note_on,45,41,750
2,note_on,49,44,30
2,note_on,54,47,30
2,note_on,57,50,30
2,note_on,57,0,120
2,note_on,45,0,0
2,note_on,49,0,0
2,note_on,54,0,0
2,note_on,42,39,750
2,note_on,45,42,30
2,note_on,49,45,30
2,note_on,54,48,30
2,note_on,54,0,120
2,note_on,42,0,0
2,note_on,45,0,0
2,note_on,49,0,0
2,note_on,41,38,750
2,note_on,45,41,30
2,note_on,48,45,30
2,note_on,53,48,30
2,note_on,53,0,120
2,note_on,41,0,0
2,note_on,45,0,0
2,note_on,48,0,0
2,note_on,49,57,360
2,note_on,37,48,0
2,note_on,41,48,0
2,note_on,46,48,0
2,note_on,46,0,480
2,note_on,49,0,0
2,note_on,37,0,0
2,note_on,41,0,0
2,note_on,46,53,0
2,note_on,34,45,0
2,note_on,37,45,0
2,note_on,41,45,0
2,note_on,41,0,480
2,note_on,46,0,0
2,note_on,34,0,0
2,note_on,37,0,0
2,note_on,57,54,480
2,note_on,45,46,0
2,note_on,49,46,0
2,note_on,52,46,0
2,note_on,52,0,480
2,note_on,57,0,0
2,note_on,45,0,0
2,note_on,49,0,0
2,note_on,53,64,0
2,note_on,41,52,0
2,note_on,45,52,0
2,note_on,50,52,0
2,note_on,50,0,480
2,note_on,53,0,0
2,note_on,41,0,0
2,note_on,45,0,0
2,note_on,50,59,0
2,note_on,38,49,0
2,note_on,41,49,0
2,note_on,45,49,0
2,note_on,45,0,480
2,note_on,50,0,0
2,note_on,38,0,0
2,note_on,41,0,0
2,note_on,61,60,480
2,note_on,49,50,0
2,note_on,53,50,0
2,note_on,56,50,0
2,note_on,56,0,480
2,note_on,61,0,0
2,note_on,49,0,0
2,note_on,53,0,0
2,note_on,57,64,0
2,note_on,45,52,0
2,note_on,49,52,0
2,note_on,54,52,0
2,note_on,54,0,480
2,note_on,57,0,0
2,note_on,45,0,0
2,note_on,49,0,0
2,note_on,54,59,0
2,note_on,42,49,0
2,note_on,45,49,0
2,note_on,49,49,0
2,note_on,49,0,480
2,note_on,54,0,0
2,note_on,42,0,0
2,note_on,45,0,0
2,note_on,37,52,0
2,note_on,41,52,0
2,note_on,44,52,0
2,note_on,49,64,0
2,note_on,49,0,480
2,note_on,37,0,0
2,note_on,41,0,0
2,note_on,44,0,0
2,note_on,61,60,0
2,note_on,49,50,0
2,note_on,53,50,0
2,note_on,56,50,0
2,note_on,56,0,480
2,note_on,61,0,0
2,note_on,49,0,0
2,note_on,53,0,0
2,note_on,57,64,0
2,note_on,45,52,0
2,note_on,49,52,0
2,note_on,54,52,0
2,note_on,54,0,480
2,note_on,57,0,0
2,note_on,45,0,0
2,note_on,49,0,0
2,note_on,54,59,0
2,note_on,42,49,0
2,note_on,45,49,0
2,note_on,49,49,0
2,note_on,49,0,480
2,note_on,54,0,0
2,note_on,42,0,0
2,note_on,45,0,0
2,note_on,37,52,0
2,note_on,41,52,0
2,note_on,44,52,0
2,note_on,49,64,0
2,note_on,49,0,480
2,note_on,37,0,0
2,note_on,41,0,0
2,note_on,44,0,0
2,note_on,68,60,0
2,note_on,61,50,0
2,note_on,65,50,0
2,note_on,65,0,480
2,note_on,61,0,0
2,note_on,68,0,0
2,note_on,60,52,0
2,note_on,66,52,0
2,note_on,69,64,0
2,note_on,69,0,480
2,note_on,66,0,0
2,note_on,60,0,0
2,note_on,48,60,0
2,note_on,37,50,0
2,note_on,45,50,0
2,note_on,45,0,480
2,note_on,48,0,0
2,note_on,44,52,0
2,note_on,49,65,0
2,note_on,49,0,480
2,note_on,44,0,0
2,note_on,37,0,0
2,note_on,68,62,0
2,note_on,61,51,0
2,note_on,65,51,0
2,note_on,65,0,480
2,note_on,61,0,0
2,note_on,68,0,0
2,note_on,62,54,0
2,note_on,68,54,0
2,note_on,71,66,0
2,note_on,71,0,480
2,note_on,68,0,0
2,note_on,62,0,0
2,note_on,50,63,0
2,note_on,38,52,0
2,note_on,47,52,0
2,note_on,47,0,480
2,note_on,38,0,0
2,note_on,50,0,0
2,note_on,39,55,0
2,note_on,46,55,0
2,note_on,51,66,0
2,note_on,51,0,480
2,note_on,46,0,0
2,note_on,39,0,0
2,note_on,70,64,0
2,note_on,63,52,0
2,note_on,67,52,0
2,note_on,67,0,480
2,note_on,63,0,0
2,note_on,70,0,0
2,note_on,62,56,0
2,note_on,68,56,0
2,note_on,71,67,0
2,note_on,71,0,480
2,note_on,68,0,0
2,note_on,62,0,0
2,note_on,50,65,0
2,note_on,39,54,0
2,note_on,47,54,0
2,note_on,47,0,480
2,note_on,50,0,0
2,note_on,46,57,0
2,note_on,51,70,0
2,note_on,51,0,480
2,note_on,46,0,0
2,note_on,39,0,0
2,note_on,70,66,0
2,note_on,63,55,0
2,note_on,67,55,0
2,note_on,67,0,480
2,note_on,63,0,0
2,note_on,70,0,0
2,note_on,64,57,0
2,note_on,70,57,0
2,note_on,73,70,0
2,note_on,73,0,480
2,note_on,70,0,0
2,note_on,64,0,0
2,note_on,52,66,0
2,note_on,40,55,0
2,note_on,49,55,0
2,note_on,49,0,480
2,note_on,40,0,0
2,note_on,52,0,0
2,note_on,41,58,0
2,note_on,48,58,0
2,note_on,53,71,0
2,note_on,53,0,480
2,note_on,48,0,0
2,note_on,41,0,0
2,note_on,60,67,0
2,note_on,53,56,0
2,note_on,57,56,0
2,note_on,57,0,480
2,note_on,53,0,0
2,note_on,60,0,0
2,note_on,52,59,0
2,note_on,58,59,0
2,note_on,61,72,0
2,note_on,61,0,435
2,note_on,58,0,0
2,note_on,52,0,0
2,note_on,41,57,0
2,note_on,49,57,15
2,note_on,52,57,15
2,note_on,58,69,15
2,note_on,58,0,435
2,note_on,41,0,0
2,note_on,49,0,0
2,note_on,52,0,0
2,note_on,41,59,0
2,note_on,48,59,15
2,note_on,53,59,15
2,note_on,57,73,15
2,note_on,57,0,480
2,note_on,41,0,0
2,note_on,48,0,0
2,note_on,53,0,0
2,note_on,60,70,0
2,note_on,53,58,0
2,note_on,57,58,0
2,note_on,57,0,480
2,note_on,53,0,0
2,note_on,60,0,0
2,note_on,52,60,0
2,note_on,58,60,0
2,note_on,61,74,0
2,note_on,61,0,435
2,note_on,58,0,0
2,note_on,52,0,0
2,note_on,41,58,0
2,note_on,49,58,15
2,note_on,52,58,15
2,note_on,58,71,15
2,note_on,58,0,435
2,note_on,41,0,0
2,note_on,49,0,0
2,note_on,52,0,0
2,note_on,41,62,0
2,note_on,48,62,15
2,note_on,53,62,15
2,note_on,57,75,15
2,note_on,57,0,480
2,note_on,41,0,0
2,note_on,48,0,0
2,note_on,53,0,0
2,note_on,60,72,0
2,note_on,60,0,480
2,note_on,63,79,0
2,note_on,63,0,960
2,note_on,55,73,0
2,note_on,55,0,960
2,note_on,57,72,0
2,note_on,57,0,60
2,note_on,70,60,0
2,note_on,70,0,60
2,note_on,57,64,0
2,note_on,57,0,60
2,note_on,70,54,0
2,note_on,70,0,60
2,note_on,57,64,0
2,note_on,57,0,60
2,note_on,70,54,0
2,note_on,70,0,60
2,note_on,57,64,0
2,note_on,57,0,60
2,note_on,70,54,0
2,note_on,70,0,60
2,note_on,57,64,0
2,note_on,57,0,60
2,note_on,70,53,0
2,note_on,70,0,60
2,note_on,57,64,0
2,note_on,57,0,60
2,note_on,70,53,0
2,note_on,70,0,60
2,note_on,57,64,0
2,note_on,57,0,60
2,note_on,70,53,0
2,note_on,70,0,60
2,note_on,57,64,0
2,note_on,57,0,60
2,note_on,70,51,0
2,note_on,70,0,60
2,note_on,57,64,0
2,note_on,57,0,60
2,note_on,70,51,0
2,note_on,70,0,60
2,note_on,57,64,0
2,note_on,57,0,60
2,note_on,70,52,0
2,note_on,70,0,60
2,note_on,57,64,0
2,note_on,57,0,60
2,note_on,70,53,0
2,note_on,70,0,60
2,note_on,57,72,0
2,note_on,57,0,120
2,note_on,55,74,0
2,note_on,55,0,60
2,note_on,57,74,60
2,note_on,57,0,60
2,note_on,34,79,60
2,note_on,46,85,0
2,note_on,46,0,120
2,note_on,34,0,0
2,note_on,65,48,120
2,note_on,62,39,0
2,note_on,62,0,120
2,note_on,65,0,0
2,note_on,62,62,120
2,note_on,58,52,0
2,note_on,58,0,120
2,note_on,62,0,0
2,note_on,58,48,120
2,note_on,53,39,0
2,note_on,53,0,120
2,note_on,58,0,0
2,note_on,46,66,120
2,note_on,46,0,120
2,note_on,65,48,120
2,note_on,62,39,0
2,note_on,62,0,120
2,note_on,65,0,0
2,note_on,62,62,120
2,note_on,58,52,0
2,note_on,58,0,120
2,note_on,62,0,0
2,note_on,58,48,120
2,note_on,53,39,0
2,note_on,53,0,120
2,note_on,58,0,0
2,note_on,46,88,120
2,note_on,46,0,120
2,note_on,65,48,120
2,note_on,62,39,0
2,note_on,62,0,120
2,note_on,65,0,0
2,note_on,62,62,120
2,note_on,58,52,0
2,note_on,58,0,120
2,note_on,62,0,0
2,note_on,58,48,120
2,note_on,53,39,0
2,note_on,53,0,120
2,note_on,58,0,0
2,note_on,46,63,120
2,note_on,46,0,120
2,note_on,65,48,120
2,note_on,62,39,0
2,note_on,62,0,120
2,note_on,65,0,0
2,note_on,62,62,120
2,note_on,58,52,0
2,note_on,58,0,120
2,note_on,62,0,0
2,note_on,58,48,120
2,note_on,53,39,0
2,note_on,53,0,120
2,note_on,58,0,0
2,note_on,46,87,120
2,note_on,46,0,120
2,note_on,62,49,120
2,note_on,58,40,0
2,note_on,58,0,120
2,note_on,62,0,0
2,note_on,58,64,120
2,note_on,53,53,0
2,note_on,53,0,120
2,note_on,58,0,0
2,note_on,62,49,120
2,note_on,58,40,0
2,note_on,58,0,120
2,note_on,62,0,0
2,note_on,46,66,120
2,note_on,46,0,120
2,note_on,62,49,120
2,note_on,58,40,0
2,note_on,58,0,120
2,note_on,62,0,0
2,note_on,58,64,120
2,note_on,53,53,0
2,note_on,53,0,120
2,note_on,58,0,0
2,note_on,62,49,120
2,note_on,58,40,0
2,note_on,58,0,120
2,note_on,62,0,0
2,note_on,41,103,120
2,note_on,41,0,120
2,note_on,63,49,120
2,note_on,60,40,0
2,note_on,60,0,120
2,note_on,63,0,0
2,note_on,60,64,120
2,note_on,53,53,0
2,note_on,53,0,120
2,note_on,60,0,0
2,note_on,63,49,120
2,note_on,60,40,0
2,note_on,60,0,120
2,note_on,63,0,0
2,note_on,46,79,120
2,note_on,46,0,120
2,note_on,62,49,120
2,note_on,58,40,0
2,note_on,58,0,120
2,note_on,62,0,0
2,note_on,58,61,120
2,note_on,53,50,0
2,note_on,53,0,120
2,note_on,58,0,0
2,note_on,62,42,120
2,note_on,58,34,0
2,note_on,58,0,120
2,note_on,62,0,0
2,note_on,46,59,120
2,note_on,46,0,120
2,note_on,65,30,120
2,note_on,62,25,0
2,note_on,62,0,120
2,note_on,65,0,0
2,note_on,62,39,120
2,note_on,58,33,0
2,note_on,58,0,120
2,note_on,62,0,0
2,note_on,58,30,120
2,note_on,53,25,0
2,note_on,53,0,120
2,note_on,58,0,0
2,note_on,46,45,120
2,note_on,46,0,120
2,note_on,65,30,120
2,note_on,62,25,0
2,note_on,62,0,120
2,note_on,65,0,0
2,note_on,62,39,120
2,note_on,58,33,0
2,note_on,58,0,120
2,note_on,62,0,0
2,note_on,58,30,120
2,note_on,53,25,0
2,note_on,53,0,120
2,note_on,58,0,0
2,note_on,46,61,120
2,note_on,46,0,120
2,note_on,65,30,120
2,note_on,62,25,0
2,note_on,62,0,120
2,note_on,65,0,0
2,note_on,62,39,120
2,note_on,58,33,0
2,note_on,58,0,120
2,note_on,62,0,0
2,note_on,58,30,120
2,note_on,53,25,0
2,note_on,53,0,120
2,note_on,58,0,0
2,note_on,46,44,120
2,note_on,46,0,120
2,note_on,65,30,120
2,note_on,62,25,0
2,note_on,62,0,120
2,note_on,65,0,0
2,note_on,62,39,120
2,note_on,58,33,0
2,note_on,58,0,120
2,note_on,62,0,0
2,note_on,58,30,120
2,note_on,53,25,0
2,note_on,53,0,120
2,note_on,58,0,0
2,note_on,46,60,120
2,note_on,46,0,120
2,note_on,65,31,120
2,note_on,62,26,0
2,note_on,62,0,120
2,note_on,65,0,0
2,note_on,62,41,120
2,note_on,58,34,0
2,note_on,58,0,120
2,note_on,62,0,0
2,note_on,58,31,120
2,note_on,53,26,0
2,note_on,53,0,120
2,note_on,58,0,0
2,note_on,46,45,120
2,note_on,46,0,120
2,note_on,65,31,120
2,note_on,62,26,0
2,note_on,62,0,120
2,note_on,65,0,0
2,note_on,62,41,120
2,note_on,58,34,0
2,note_on,58,0,120
2,note_on,62,0,0
2,note_on,58,31,120
2,note_on,53,26,0
2,note_on,53,0,120
2,note_on,58,0,0
2,note_on,41,76,120
2,note_on,41,0,120
2,note_on,65,31,120
2,note_on,63,26,0
2,note_on,63,0,120
2,note_on,65,0,0
2,note_on,63,41,120
2,note_on,60,34,0
2,note_on,60,0,120
2,note_on,63,0,0
2,note_on,60,31,120
2,note_on,53,26,0
2,note_on,53,0,120
2,note_on,60,0,0
2,note_on,46,54,120
2,note_on,46,0,120
2,note_on,65,31,120
2,note_on,62,26,0
2,note_on,62,0,120
2,note_on,65,0,0
2,note_on,62,41,120
2,note_on,58,34,0
2,note_on,58,0,120
2,note_on,62,0,0
2,note_on,58,31,120
2,note_on,53,26,0
2,note_on,53,0,120
2,note_on,58,0,0
2,note_on,46,85,120
2,note_on,46,0,120
2,note_on,53,39,120
2,note_on,62,48,0
2,note_on,58,39,0
2,note_on,58,0,120
2,note_on,62,0,0
2,note_on,53,0,0
2,note_on,41,62,120
2,note_on,41,0,120
2,note_on,50,39,120
2,note_on,58,48,0
2,note_on,53,39,0
2,note_on,53,0,120
2,note_on,58,0,0
2,note_on,50,0,0
2,note_on,48,66,120
2,note_on,48,0,120
2,note_on,53,39,120
2,note_on,63,48,0
2,note_on,57,39,0
2,note_on,57,0,120
2,note_on,63,0,0
2,note_on,53,0,0
2,note_on,41,62,120
2,note_on,41,0,120
2,note_on,51,39,120
2,note_on,57,48,0
2,note_on,53,39,0
2,note_on,53,0,120
2,note_on,57,0,0
2,note_on,51,0,0
2,note_on,46,85,120
2,note_on,46,0,120
2,note_on,53,39,120
2,note_on,62,48,0
2,note_on,58,39,0
2,note_on,58,0,120
2,note_on,62,0,0
2,note_on,53,0,0
2,note_on,41,62,120
2,note_on,41,0,120
2,note_on,50,39,120
2,note_on,58,48,0
2,note_on,53,39,0
2,note_on,53,0,120
2,note_on,58,0,0
2,note_on,50,0,0
2,note_on,48,66,120
2,note_on,48,0,120
2,note_on,53,39,120
2,note_on,63,48,0
2,note_on,57,39,0
2,note_on,57,0,120
2,note_on,63,0,0
2,note_on,53,0,0
2,note_on,41,62,120
2,note_on,41,0,120
2,note_on,51,39,120
2,note_on,57,48,0
2,note_on,53,39,0
2,note_on,53,0,120
2,note_on,57,0,0
2,note_on,51,0,0
2,note_on,46,85,120
2,note_on,46,0,120
2,note_on,53,39,120
2,note_on,62,48,0
2,note_on,58,39,0
2,note_on,58,0,120
2,note_on,62,0,0
2,note_on,53,0,0
2,note_on,41,62,120
2,note_on,41,0,120
2,note_on,50,39,120
2,note_on,58,48,0
2,note_on,53,39,0
2,note_on,53,0,120
2,note_on,58,0,0
2,note_on,50,0,0
2,note_on,48,66,120
2,note_on,48,0,120
2,note_on,53,39,120
2,note_on,63,48,0
2,note_on,57,39,0
2,note_on,57,0,120
2,note_on,63,0,0
2,note_on,53,0,0
2,note_on,41,62,120
2,note_on,41,0,120
2,note_on,51,39,120
2,note_on,57,48,0
2,note_on,53,39,0
2,note_on,53,0,120
2,note_on,57,0,0
2,note_on,51,0,0
2,note_on,46,85,120
2,note_on,46,0,120
2,note_on,53,39,120
2,note_on,62,48,0
2,note_on,58,39,0
2,note_on,58,0,120
2,note_on,62,0,0
2,note_on,53,0,0
2,note_on,41,62,120
2,note_on,41,0,120
2,note_on,50,39,120
2,note_on,58,48,0
2,note_on,53,39,0
2,note_on,53,0,120
2,note_on,58,0,0
2,note_on,50,0,0
2,note_on,48,56,120
2,note_on,53,56,0
2,note_on,57,56,0
2,note_on,63,66,0
2,note_on,63,0,480
2,note_on,48,0,0
2,note_on,53,0,0
2,note_on,57,0,0
2,note_on,41,53,0
2,note_on,29,45,0
2,note_on,29,0,480
2,note_on,41,0,0
2,note_on,42,43,0
2,note_on,30,36,0
2,note_on,30,0,480
2,note_on,42,0,0
2,note_on,43,46,0
2,note_on,31,39,0
2,note_on,31,0,480
2,note_on,43,0,0
2,note_on,44,49,0
2,note_on,32,41,0
2,note_on,32,0,470
2,note_on,44,0,0
2,note_on,44,53,10
2,note_on,32,38,0
2,note_on,32,0,480
2,note_on,44,0,0
2,note_on,45,42,0
2,note_on,33,35,0
2,note_on,33,0,480
2,note_on,45,0,0
2,note_on,46,45,0
2,note_on,34,38,0
2,note_on,34,0,480
2,note_on,46,0,0
2,note_on,47,49,0
2,note_on,35,41,0
2,note_on,35,0,480
2,note_on,47,0,0
2,note_on,47,54,0
2,note_on,35,45,0
2,note_on,35,0,480
2,note_on,47,0,0
2,note_on,48,41,0
2,note_on,36,34,0
2,note_on,36,0,480
2,note_on,48,0,0
2,note_on,49,44,0
2,note_on,37,37,0
2,note_on,37,0,480
2,note_on,49,0,0
2,note_on,50,47,0
2,note_on,38,39,0
2,note_on,38,0,470
2,note_on,50,0,0
2,note_on,50,55,10
2,note_on,38,46,0
2,note_on,38,0,480
2,note_on,50,0,0
2,note_on,51,40,0
2,note_on,39,34,0
2,note_on,39,0,480
2,note_on,51,0,0
2,note_on,52,44,0
2,note_on,40,37,0
2,note_on,40,0,480
2,note_on,52,0,0
2,note_on,53,53,0
2,note_on,41,52,0
2,note_on,41,0,320
2,note_on,53,0,0
2,note_on,53,41,0
2,note_on,41,41,0
2,note_on,41,0,160
2,note_on,53,0,0
2,note_on,42,38,160
2,note_on,54,38,0
2,note_on,54,0,160
2,note_on,42,0,0
2,note_on,43,38,160
2,note_on,55,38,0
2,note_on,55,0,160
2,note_on,43,0,0
2,note_on,56,41,160
2,note_on,44,35,0
2,note_on,44,0,160
2,note_on,56,0,0
2,note_on,57,41,160
2,note_on,45,35,0
2,note_on,45,0,160
2,note_on,57,0,0
2,note_on,58,49,160
2,note_on,46,41,0
2,note_on,46,0,160
2,note_on,58,0,0
2,note_on,59,46,160
2,note_on,47,38,0
2,note_on,47,0,160
2,note_on,59,0,0
2,note_on,60,46,160
2,note_on,48,38,0
2,note_on,48,0,160
2,note_on,60,0,0
2,note_on,61,53,160
2,note_on,49,45,0
2,note_on,49,0,160
2,note_on,61,0,0
2,note_on,62,46,160
2,note_on,50,38,0
2,note_on,50,0,160
2,note_on,62,0,0
2,note_on,63,46,160
2,note_on,51,38,0
2,note_on,51,0,160
2,note_on,63,0,0
2,note_on,64,61,160
2,note_on,52,51,0
2,note_on,52,0,180
2,note_on,64,0,0
2,note_on,65,55,60
2,note_on,53,46,0
2,note_on,53,0,180
2,note_on,65,0,0
2,note_on,66,55,60
2,note_on,54,46,0
2,note_on,54,0,180
2,note_on,66,0,0
2,note_on,67,55,60
2,note_on,55,46,0
2,note_on,55,0,180
2,note_on,67,0,0
2,note_on,68,62,60
2,note_on,56,52,0
2,note_on,56,0,180
2,note_on,68,0,0
2,note_on,68,55,60
2,note_on,56,46,0
2,note_on,56,0,180
2,note_on,68,0,0
2,note_on,69,55,60
2,note_on,57,46,0
2,note_on,57,0,180
2,note_on,69,0,0
2,note_on,70,55,60
2,note_on,58,46,0
2,note_on,58,0,180
2,note_on,70,0,0
2,note_on,71,63,60
2,note_on,59,53,0
2,note_on,59,0,180
2,note_on,71,0,0
2,note_on,71,56,60
2,note_on,59,47,0
2,note_on,59,0,180
2,note_on,71,0,0
2,note_on,72,56,60
2,note_on,60,47,0
2,note_on,60,0,180
2,note_on,72,0,0
2,note_on,73,56,60
2,note_on,61,47,0
2,note_on,61,0,180
2,note_on,73,0,0
2,note_on,74,66,60
2,note_on,62,56,0
2,note_on,62,0,180
2,note_on,74,0,0
2,note_on,74,56,60
2,note_on,62,47,0
2,note_on,62,0,180
2,note_on,74,0,0
2,note_on,75,56,60
2,note_on,63,47,0
2,note_on,63,0,180
2,note_on,75,0,0
2,note_on,76,56,60
2,note_on,64,47,0
2,note_on,64,0,180
2,note_on,76,0,0
2,note_on,77,74,60
2,note_on,65,62,0
2,note_on,65,0,180
2,note_on,77,0,0
2,note_on,77,64,60
2,note_on,69,55,0
2,note_on,65,55,0
2,note_on,65,0,180
2,note_on,69,0,0
2,note_on,77,0,0
2,note_on,77,68,60
2,note_on,70,57,0
2,note_on,66,57,0
2,note_on,66,0,180
2,note_on,70,0,0
2,note_on,77,0,0
2,note_on,77,71,60
2,note_on,71,60,0
2,note_on,67,60,0
2,note_on,67,0,180
2,note_on,71,0,0
2,note_on,77,0,0
2,note_on,77,75,60
2,note_on,72,63,0
2,note_on,68,63,0
2,note_on,68,0,180
2,note_on,72,0,0
2,note_on,77,0,0
2,note_on,77,63,60
2,note_on,72,53,0
2,note_on,68,53,0
2,note_on,68,0,180
2,note_on,72,0,0
2,note_on,77,0,0
2,note_on,77,63,60
2,note_on,71,53,0
2,note_on,67,53,0
2,note_on,67,0,180
2,note_on,71,0,0
2,note_on,77,0,0
2,note_on,77,63,60
2,note_on,70,53,0
2,note_on,66,53,0
2,note_on,66,0,180
2,note_on,70,0,0
2,note_on,77,0,0
2,note_on,77,75,60
2,note_on,69,63,0
2,note_on,65,63,0
2,note_on,65,0,180
2,note_on,69,0,0
2,note_on,77,0,0
2,note_on,77,62,60
2,note_on,69,52,0
2,note_on,65,52,0
2,note_on,65,0,180
2,note_on,69,0,0
2,note_on,77,0,0
2,note_on,77,67,60
2,note_on,70,56,0
2,note_on,66,56,0
2,note_on,66,0,180
2,note_on,70,0,0
2,note_on,77,0,0
2,note_on,77,71,60
2,note_on,71,60,0
2,note_on,67,60,0
2,note_on,67,0,180
2,note_on,71,0,0
2,note_on,77,0,0
2,note_on,77,75,60
2,note_on,72,63,0
2,note_on,68,63,0
2,note_on,68,0,180
2,note_on,72,0,0
2,note_on,77,0,0
2,note_on,77,63,60
2,note_on,72,53,0
2,note_on,68,53,0
2,note_on,68,0,180
2,note_on,72,0,0
2,note_on,77,0,0
2,note_on,77,63,60
2,note_on,71,53,0
2,note_on,67,53,0
2,note_on,67,0,180
2,note_on,71,0,0
2,note_on,77,0,0
2,note_on,77,63,60
2,note_on,70,53,0
2,note_on,66,53,0
2,note_on,66,0,180
2,note_on,70,0,0
2,note_on,77,0,0
2,note_on,77,80,60
2,note_on,65,68,0
2,note_on,69,68,0
2,note_on,69,0,480
2,note_on,65,0,0
2,note_on,77,0,0
2,note_on,77,72,0
2,note_on,65,61,0
2,note_on,69,61,0
2,note_on,69,0,480
2,note_on,65,0,0
2,note_on,77,0,0
2,note_on,78,72,0
2,note_on,66,61,0
2,note_on,70,61,0
2,note_on,70,0,480
2,note_on,66,0,0
2,note_on,78,0,0
2,note_on,79,72,0
2,note_on,67,61,0
2,note_on,71,61,0
2,note_on,71,0,480
2,note_on,67,0,0
2,note_on,79,0,0
2,note_on,80,79,0
2,note_on,68,67,0
2,note_on,72,67,0
2,note_on,72,0,480
2,note_on,68,0,0
2,note_on,80,0,0
2,note_on,81,79,480
2,note_on,69,67,0
2,note_on,72,67,0
2,note_on,77,67,0
2,note_on,77,0,480
2,note_on,81,0,0
2,note_on,69,0,0
2,note_on,72,0,0
2,note_on,57,75,2400
2,note_on,57,0,120
2,note_on,53,76,0
2,note_on,53,0,120
2,note_on,51,79,0
2,note_on,51,0,120
2,note_on,48,81,0
2,note_on,48,0,120
2,note_on,45,84,0
2,note_on,45,0,120
2,note_on,44,104,0
2,note_on,44,0,120
2,note_on,45,80,0
2,note_on,45,0,120
2,note_on,48,79,0
2,note_on,48,0,120
2,note_on,51,77,0
2,note_on,51,0,120
2,note_on,53,76,0
2,note_on,53,0,120
2,note_on,57,75,0
2,note_on,57,0,120
2,note_on,69,76,3720
2,note_on,57,64,0
2,note_on,57,0,120
2,note_on,69,0,0
2,note_on,54,76,0
2,note_on,54,0,120
2,note_on,65,75,0
2,note_on,53,63,0
2,note_on,53,0,120
2,note_on,65,0,0
2,note_on,52,74,0
2,note_on,52,0,120
2,note_on,63,73,0
2,note_on,51,62,0
2,note_on,51,0,120
2,note_on,63,0,0
2,note_on,48,73,0
2,note_on,48,0,120
2,note_on,57,72,0
2,note_on,45,61,0
2,note_on,45,0,120
2,note_on,57,0,0
2,note_on,42,71,0
2,note_on,42,0,120
2,note_on,41,72,0
2,note_on,53,72,0
2,note_on,53,0,240
2,note_on,41,0,0
2,note_on,41,55,135
2,note_on,45,57,15
2,note_on,51,59,15
2,note_on,57,62,15
2,note_on,57,0,300
2,note_on,41,0,0
2,note_on,45,0,0
2,note_on,51,0,0
2,note_on,42,57,135
2,note_on,46,59,15
2,note_on,51,60,15
2,note_on,58,62,15
2,note_on,58,0,300
2,note_on,42,0,0
2,note_on,46,0,0
2,note_on,51,0,0
2,note_on,43,56,135
2,note_on,47,58,15
2,note_on,51,59,15
2,note_on,59,61,15
2,note_on,59,0,300
2,note_on,43,0,0
2,note_on,47,0,0
2,note_on,51,0,0
2,note_on,44,59,135
2,note_on,48,60,15
2,note_on,51,62,15
2,note_on,60,63,15
2,note_on,60,0,300
2,note_on,44,0,0
2,note_on,48,0,0
2,note_on,51,0,0
2,note_on,33,77,2040
2,note_on,45,59,30
2,note_on,51,63,30
2,note_on,60,68,30
2,note_on,65,78,30
2,note_on,65,0,480
2,note_on,51,0,0
2,note_on,33,0,0
2,note_on,45,0,0
2,note_on,60,0,0
2,note_on,34,94,0
2,note_on,46,102,0
2,note_on,46,0,120
2,note_on,34,0,0
2,note_on,58,46,120
2,note_on,65,57,0
2,note_on,62,46,0
2,note_on,62,0,120
2,note_on,65,0,0
2,note_on,58,0,0
2,note_on,53,74,120
2,note_on,53,0,120
2,note_on,58,46,120
2,note_on,65,57,0
2,note_on,62,46,0
2,note_on,62,0,120
2,note_on,65,0,0
2,note_on,58,0,0
2,note_on,46,72,120
2,note_on,46,0,120
2,note_on,58,46,120
2,note_on,65,57,0
2,note_on,62,46,0
2,note_on,62,0,120
2,note_on,65,0,0
2,note_on,58,0,0
2,note_on,53,74,120
2,note_on,53,0,120
2,note_on,62,46,120
2,note_on,65,57,0
2,note_on,58,46,0
2,note_on,58,0,120
2,note_on,65,0,0
2,note_on,62,0,0
2,note_on,46,98,120
2,note_on,46,0,120
2,note_on,58,46,120
2,note_on,65,57,0
2,note_on,62,46,0
2,note_on,62,0,120
2,note_on,65,0,0
2,note_on,58,0,0
2,note_on,53,74,120
2,note_on,53,0,120
2,note_on,58,46,120
2,note_on,65,57,0
2,note_on,62,46,0
2,note_on,62,0,120
2,note_on,65,0,0
2,note_on,58,0,0
2,note_on,46,69,120
2,note_on,46,0,120
2,note_on,58,46,120
2,note_on,65,57,0
2,note_on,62,46,0
2,note_on,62,0,120
2,note_on,65,0,0
2,note_on,58,0,0
2,note_on,53,74,120
2,note_on,53,0,120
2,note_on,58,46,120
2,note_on,65,57,0
2,note_on,62,46,0
2,note_on,62,0,120
2,note_on,65,0,0
2,note_on,58,0,0
2,note_on,46,98,120
2,note_on,46,0,120
2,note_on,62,58,120
2,note_on,58,48,0
2,note_on,58,0,120
2,note_on,62,0,0
2,note_on,53,77,120
2,note_on,53,0,120
2,note_on,62,58,120
2,note_on,58,48,0
2,note_on,58,0,120
2,note_on,62,0,0
2,note_on,46,72,120
2,note_on,46,0,120
2,note_on,62,58,120
2,note_on,58,48,0
2,note_on,58,0,120
2,note_on,62,0,0
2,note_on,53,77,120
2,note_on,53,0,120
2,note_on,62,58,120
2,note_on,58,48,0
2,note_on,58,0,120
2,note_on,62,0,0
2,note_on,41,100,120
2,note_on,41,0,120
2,note_on,63,48,120
2,note_on,65,58,0
2,note_on,60,48,0
2,note_on,60,0,120
2,note_on,65,0,0
2,note_on,63,0,0
2,note_on,53,77,120
2,note_on,53,0,120
2,note_on,63,48,120
2,note_on,65,58,0
2,note_on,60,48,0
2,note_on,60,0,120
2,note_on,65,0,0
2,note_on,63,0,0
2,note_on,46,86,120
2,note_on,46,0,120
2,note_on,62,48,120
2,note_on,65,58,0
2,note_on,58,48,0
2,note_on,58,0,120
2,note_on,65,0,0
2,note_on,62,0,0
2,note_on,53,73,120
2,note_on,53,0,120
2,note_on,58,40,120
2,note_on,65,50,0
2,note_on,62,40,0
2,note_on,62,0,120
2,note_on,65,0,0
2,note_on,58,0,0
2,note_on,46,100,120
2,note_on,46,0,120
2,note_on,58,46,120
2,note_on,65,57,0
2,note_on,62,46,0
2,note_on,62,0,120
2,note_on,65,0,0
2,note_on,58,0,0
2,note_on,53,74,120
2,note_on,53,0,120
2,note_on,58,46,120
2,note_on,65,57,0
2,note_on,62,46,0
2,note_on,62,0,120
2,note_on,65,0,0
2,note_on,58,0,0
2,note_on,46,72,120
2,note_on,46,0,120
2,note_on,58,46,120
2,note_on,65,57,0
2,note_on,62,46,0
2,note_on,62,0,120
2,note_on,65,0,0
2,note_on,58,0,0
2,note_on,53,74,120
2,note_on,53,0,120
2,note_on,62,46,120
2,note_on,65,57,0
2,note_on,58,46,0
2,note_on,58,0,120
2,note_on,65,0,0
2,note_on,62,0,0
2,note_on,46,99,120
2,note_on,46,0,120
2,note_on,58,46,120
2,note_on,65,57,0
2,note_on,62,46,0
2,note_on,62,0,120
2,note_on,65,0,0
2,note_on,58,0,0
2,note_on,53,74,120
2,note_on,53,0,120
2,note_on,58,46,120
2,note_on,65,57,0
2,note_on,62,46,0
2,note_on,62,0,120
2,note_on,65,0,0
2,note_on,58,0,0
2,note_on,46,69,120
2,note_on,46,0,120
2,note_on,58,46,120
2,note_on,65,57,0
2,note_on,62,46,0
2,note_on,62,0,120
2,note_on,65,0,0
2,note_on,58,0,0
2,note_on,53,74,120
2,note_on,53,0,120
2,note_on,58,46,120
2,note_on,65,57,0
2,note_on,62,46,0
2,note_on,62,0,120
2,note_on,65,0,0
2,note_on,58,0,0
2,note_on,46,95,120
2,note_on,46,0,120
2,note_on,58,48,120
2,note_on,65,58,0
2,note_on,62,48,0
2,note_on,62,0,120
2,note_on,65,0,0
2,note_on,58,0,0
2,note_on,53,77,120
2,note_on,53,0,120
2,note_on,58,48,120
2,note_on,65,58,0
2,note_on,62,48,0
2,note_on,62,0,120
2,note_on,65,0,0
2,note_on,58,0,0
2,note_on,46,78,120
2,note_on,46,0,120
2,note_on,62,48,120
2,note_on,65,58,0
2,note_on,58,48,0
2,note_on,58,0,120
2,note_on,65,0,0
2,note_on,62,0,0
2,note_on,53,77,120
2,note_on,53,0,120
2,note_on,62,48,120
2,note_on,65,58,0
2,note_on,58,48,0
2,note_on,58,0,120
2,note_on,65,0,0
2,note_on,62,0,0
2,note_on,41,100,120
2,note_on,41,0,120
2,note_on,63,48,120
2,note_on,65,58,0
2,note_on,60,48,0
2,note_on,60,0,120
2,note_on,65,0,0
2,note_on,63,0,0
2,note_on,53,77,120
2,note_on,53,0,120
2,note_on,63,48,120
2,note_on,65,58,0
2,note_on,60,48,0
2,note_on,60,0,120
2,note_on,65,0,0
2,note_on,63,0,0
2,note_on,46,70,120
2,note_on,50,70,0
2,note_on,58,86,0
2,note_on,58,0,480
2,note_on,50,0,0
2,note_on,46,0,0
2,note_on,46,73,0
2,note_on,34,61,0
2,note_on,34,0,120
2,note_on,46,0,0
2,note_on,41,65,120
2,note_on,29,54,0
2,note_on,29,0,120
2,note_on,41,0,0
2,note_on,46,73,120
2,note_on,34,61,0
2,note_on,34,0,120
2,note_on,46,0,0
2,note_on,53,64,120
2,note_on,41,53,0
2,note_on,41,0,120
2,note_on,53,0,0
2,note_on,62,67,120
2,note_on,50,56,0
2,note_on,50,0,120
2,note_on,62,0,0
2,note_on,58,70,120
2,note_on,46,58,0
2,note_on,46,0,120
2,note_on,58,0,0
2,note_on,57,73,120
2,note_on,45,61,0
2,note_on,48,61,0
2,note_on,53,61,0
2,note_on,53,0,480
2,note_on,57,0,0
2,note_on,45,0,0
2,note_on,48,0,0
2,note_on,58,69,0
2,note_on,46,58,0
2,note_on,50,58,0
2,note_on,53,58,0
2,note_on,53,0,480
2,note_on,58,0,0
2,note_on,46,0,0
2,note_on,50,0,0
2,note_on,51,72,0
2,note_on,39,60,0
2,note_on,43,60,0
2,note_on,48,60,0
2,note_on,48,0,480
2,note_on,51,0,0
2,note_on,39,0,0
2,note_on,43,0,0
2,note_on,53,67,0
2,note_on,41,56,0
2,note_on,48,56,0
2,note_on,51,56,0
2,note_on,51,0,480
2,note_on,53,0,0
2,note_on,41,0,0
2,note_on,48,0,0
2,note_on,46,73,0
2,note_on,50,73,0
2,note_on,58,90,0
2,note_on,58,0,480
2,note_on,50,0,0
2,note_on,46,0,0
2,note_on,46,73,0
2,note_on,34,61,0
2,note_on,34,0,120
2,note_on,46,0,0
2,note_on,41,65,120
2,note_on,29,54,0
2,note_on,29,0,120
2,note_on,41,0,0
2,note_on,46,73,120
2,note_on,34,61,0
2,note_on,34,0,120
2,note_on,46,0,0
2,note_on,53,64,120
2,note_on,41,53,0
2,note_on,41,0,120
2,note_on,53,0,0
2,note_on,62,67,120
2,note_on,50,56,0
2,note_on,50,0,120
2,note_on,62,0,0
2,note_on,58,70,120
2,note_on,46,58,0
2,note_on,46,0,120
2,note_on,58,0,0
2,note_on,57,73,120
2,note_on,45,61,0
2,note_on,48,61,0
2,note_on,53,61,0
2,note_on,53,0,480
2,note_on,57,0,0
2,note_on,45,0,0
2,note_on,48,0,0
2,note_on,58,69,0
2,note_on,46,58,0
2,note_on,50,58,0
2,note_on,53,58,0
2,note_on,53,0,480
2,note_on,58,0,0
2,note_on,46,0,0
2,note_on,50,0,0
2,note_on,51,72,0
2,note_on,39,60,0
2,note_on,43,60,0
2,note_on,48,60,0
2,note_on,48,0,480
2,note_on,51,0,0
2,note_on,39,0,0
2,note_on,43,0,0
2,note_on,53,67,0
2,note_on,41,56,0
2,note_on,48,56,0
2,note_on,51,56,0
2,note_on,51,0,480
2,note_on,53,0,0
2,note_on,41,0,0
2,note_on,48,0,0
2,note_on,46,73,0
2,note_on,50,73,0
2,note_on,58,84,0
2,note_on,58,0,120
2,note_on,50,0,0
2,note_on,46,0,0
2,note_on,62,50,120
2,note_on,65,61,0
2,note_on,58,50,0
2,note_on,58,0,120
2,note_on,65,0,0
2,note_on,62,0,0
2,note_on,53,80,120
2,note_on,53,0,120
2,note_on,62,50,120
2,note_on,65,61,0
2,note_on,58,50,0
2,note_on,58,0,120
2,note_on,65,0,0
2,note_on,62,0,0
2,note_on,41,73,120
2,note_on,53,84,0
2,note_on,53,0,120
2,note_on,41,0,0
2,note_on,63,50,120
2,note_on,65,61,0
2,note_on,60,50,0
2,note_on,60,0,120
2,note_on,65,0,0
2,note_on,63,0,0
2,note_on,53,80,120
2,note_on,53,0,120
2,note_on,63,50,120
2,note_on,65,61,0
2,note_on,60,50,0
2,note_on,60,0,120
2,note_on,65,0,0
2,note_on,63,0,0
2,note_on,46,73,120
2,note_on,50,73,0
2,note_on,58,84,0
2,note_on,58,0,120
2,note_on,50,0,0
2,note_on,46,0,0
2,note_on,62,50,120
2,note_on,65,61,0
2,note_on,58,50,0
2,note_on,58,0,120
2,note_on,65,0,0
2,note_on,62,0,0
2,note_on,53,80,120
2,note_on,53,0,120
2,note_on,62,50,120
2,note_on,65,61,0
2,note_on,58,50,0
2,note_on,58,0,120
2,note_on,65,0,0
2,note_on,62,0,0
2,note_on,41,73,120
2,note_on,53,84,0
2,note_on,53,0,120
2,note_on,41,0,0
2,note_on,63,50,120
2,note_on,65,61,0
2,note_on,60,50,0
2,note_on,60,0,120
2,note_on,65,0,0
2,note_on,63,0,0
2,note_on,53,80,120
2,note_on,53,0,120
2,note_on,63,50,120
2,note_on,65,61,0
2,note_on,60,50,0
2,note_on,60,0,120
2,note_on,65,0,0
2,note_on,63,0,0
2,note_on,41,73,120
2,note_on,53,84,0
2,note_on,53,0,120
2,note_on,41,0,0
2,note_on,53,46,120
2,note_on,62,46,0
2,note_on,65,56,0
2,note_on,58,46,0
2,note_on,58,0,120
2,note_on,53,0,0
2,note_on,62,0,0
2,note_on,65,0,0
2,note_on,53,46,120
2,note_on,58,46,0
2,note_on,62,46,0
2,note_on,65,56,0
2,note_on,65,0,120
2,note_on,53,0,0
2,note_on,58,0,0
2,note_on,62,0,0
2,note_on,41,73,360
2,note_on,53,84,0
2,note_on,53,0,120
2,note_on,41,0,0
2,note_on,53,46,120
2,note_on,63,46,0
2,note_on,65,56,0
2,note_on,57,46,0
2,note_on,57,0,120
2,note_on,53,0,0
2,note_on,63,0,0
2,note_on,65,0,0
2,note_on,53,46,120
2,note_on,57,46,0
2,note_on,63,46,0
2,note_on,65,56,0
2,note_on,65,0,120
2,note_on,53,0,0
2,note_on,57,0,0
2,note_on,63,0,0
2,note_on,41,73,360
2,note_on,53,84,0
2,note_on,53,0,180
2,note_on,41,0,0
2,note_on,53,46,60
2,note_on,62,46,0
2,note_on,65,56,0
2,note_on,58,46,0
2,note_on,58,0,60
2,note_on,53,0,0
2,note_on,62,0,0
2,note_on,65,0,0
2,note_on,53,46,180
2,note_on,58,46,0
2,note_on,65,56,0
2,note_on,62,46,0
2,note_on,62,0,60
2,note_on,53,0,0
2,note_on,58,0,0
2,note_on,65,0,0
2,note_on,53,46,180
2,note_on,62,46,0
2,note_on,65,56,0
2,note_on,58,46,0
2,note_on,58,0,60
2,note_on,53,0,0
2,note_on,62,0,0
2,note_on,65,0,0
2,note_on,53,69,180
2,note_on,57,69,0
2,note_on,63,70,0
2,note_on,65,82,0
2,note_on,65,0,60
2,note_on,53,0,0
2,note_on,57,0,0
2,note_on,63,0,0
2,note_on,51,44,180
2,note_on,48,44,0
2,note_on,53,53,0
2,note_on,41,44,0
2,note_on,41,0,60
2,note_on,51,0,0
2,note_on,48,0,0
2,note_on,53,0,0
2,note_on,41,44,180
2,note_on,48,44,0
2,note_on,51,44,0
2,note_on,53,53,0
2,note_on,53,0,60
2,note_on,41,0,0
2,note_on,48,0,0
2,note_on,51,0,0
2,note_on,51,44,180
2,note_on,48,44,0
2,note_on,53,53,0
2,note_on,41,44,0
2,note_on,41,0,60
2,note_on,51,0,0
2,note_on,48,0,0
2,note_on,53,0,0
2,note_on,46,73,180
2,note_on,50,73,0
2,note_on,58,84,0
2,note_on,58,0,120
2,note_on,50,0,0
2,note_on,46,0,0
2,note_on,47,40,120
2,note_on,35,34,0
2,note_on,35,0,120
2,note_on,47,0,0
2,note_on,46,40,120
2,note_on,34,34,0
2,note_on,34,0,120
2,note_on,46,0,0
2,note_on,47,40,120
2,note_on,35,34,0
2,note_on,35,0,120
2,note_on,47,0,0
2,note_on,46,48,120
2,note_on,34,40,0
2,note_on,34,0,120
2,note_on,46,0,0
2,note_on,51,39,120
2,note_on,39,33,0
2,note_on,39,0,120
2,note_on,51,0,0
2,note_on,50,39,120
2,note_on,38,33,0
2,note_on,38,0,120
2,note_on,50,0,0
2,note_on,47,39,120
2,note_on,35,33,0
2,note_on,35,0,120
2,note_on,47,0,0
2,note_on,46,45,120
2,note_on,34,37,0
2,note_on,34,0,120
2,note_on,46,0,0
2,note_on,47,39,120
2,note_on,35,31,0
2,note_on,35,0,120
2,note_on,47,0,0
2,note_on,46,39,120
2,note_on,34,33,0
2,note_on,34,0,120
2,note_on,46,0,0
2,note_on,47,39,120
2,note_on,35,33,0
2,note_on,35,0,120
2,note_on,47,0,0
2,note_on,46,51,120
2,note_on,34,42,0
2,note_on,34,0,120
2,note_on,46,0,0
2,note_on,51,42,120
2,note_on,39,35,0
2,note_on,39,0,120
2,note_on,51,0,0
2,note_on,50,42,120
2,note_on,38,35,0
2,note_on,38,0,120
2,note_on,50,0,0
2,note_on,47,42,120
2,note_on,35,36,0
2,note_on,35,0,120
2,note_on,47,0,0
2,note_on,46,48,120
2,note_on,34,39,0
2,note_on,34,0,120
2,note_on,46,0,0
2,note_on,47,42,120
2,note_on,35,36,0
2,note_on,35,0,120
2,note_on,47,0,0
2,note_on,46,44,120
2,note_on,34,36,0
2,note_on,34,0,120
2,note_on,46,0,0
2,note_on,47,44,120
2,note_on,35,37,0
2,note_on,35,0,120
2,note_on,47,0,0
2,note_on,46,52,120
2,note_on,34,44,0
2,note_on,34,0,120
2,note_on,46,0,0
2,note_on,51,42,120
2,note_on,39,36,0
2,note_on,39,0,120
2,note_on,51,0,0
2,note_on,50,44,120
2,note_on,38,36,0
2,note_on,38,0,120
2,note_on,50,0,0
2,note_on,47,44,120
2,note_on,35,36,0
2,note_on,35,0,120
2,note_on,47,0,0
2,note_on,46,50,120
2,note_on,34,41,0
2,note_on,34,0,120
2,note_on,46,0,0
2,note_on,47,42,120
2,note_on,35,36,0
2,note_on,35,0,120
2,note_on,47,0,0
2,note_on,46,42,120
2,note_on,34,36,0
2,note_on,34,0,120
2,note_on,46,0,0
2,note_on,47,44,120
2,note_on,35,36,0
2,note_on,35,0,120
2,note_on,47,0,0
2,note_on,46,57,120
2,note_on,34,48,0
2,note_on,34,0,120
2,note_on,46,0,0
2,note_on,51,46,120
2,note_on,39,38,0
2,note_on,39,0,120
2,note_on,51,0,0
2,note_on,50,47,120
2,note_on,38,39,0
2,note_on,38,0,120
2,note_on,50,0,0
2,note_on,47,47,120
2,note_on,35,39,0
2,note_on,35,0,120
2,note_on,47,0,0
2,note_on,46,52,120
2,note_on,34,44,0
2,note_on,34,0,120
2,note_on,46,0,0
2,note_on,47,48,120
2,note_on,35,39,0
2,note_on,35,0,120
2,note_on,47,0,0
2,note_on,46,48,120
2,note_on,34,40,0
2,note_on,34,0,120
2,note_on,46,0,0
2,note_on,47,48,120
2,note_on,35,40,0
2,note_on,35,0,120
2,note_on,47,0,0
2,note_on,46,59,120
2,note_on,34,49,0
2,note_on,34,0,120
2,note_on,46,0,0
2,note_on,54,51,120
2,note_on,42,42,0
2,note_on,42,0,120
2,note_on,54,0,0
2,note_on,51,59,120
2,note_on,39,49,0
2,note_on,39,0,120
2,note_on,51,0,0
2,note_on,47,52,120
2,note_on,35,44,0
2,note_on,35,0,120
2,note_on,47,0,0
2,note_on,46,62,120
2,note_on,34,52,0
2,note_on,34,0,120
2,note_on,46,0,0
2,note_on,47,55,120
2,note_on,35,46,0
2,note_on,35,0,120
2,note_on,47,0,0
2,note_on,46,61,120
2,note_on,34,51,0
2,note_on,34,0,120
2,note_on,46,0,0
2,note_on,47,56,120
2,note_on,35,47,0
2,note_on,35,0,120
2,note_on,47,0,0
2,note_on,46,61,120
2,note_on,34,51,0
2,note_on,34,0,120
2,note_on,46,0,0
2,note_on,54,53,120
2,note_on,42,44,0
2,note_on,42,0,120
2,note_on,54,0,0
2,note_on,51,61,120
2,note_on,39,51,0
2,note_on,39,0,120
2,note_on,51,0,0
2,note_on,47,55,120
2,note_on,35,46,0
2,note_on,35,0,120
2,note_on,47,0,0
2,note_on,46,64,120
2,note_on,34,55,0
2,note_on,34,0,120
2,note_on,46,0,0
2,note_on,47,57,120
2,note_on,35,48,0
2,note_on,35,0,120
2,note_on,47,0,0
2,note_on,46,63,120
2,note_on,34,53,0
2,note_on,34,0,120
2,note_on,46,0,0
2,note_on,47,58,120
2,note_on,35,49,0
2,note_on,35,0,120
2,note_on,47,0,0
2,note_on,46,67,120
2,note_on,34,56,0
2,note_on,34,0,120
2,note_on,46,0,0
2,note_on,58,59,120
2,note_on,46,48,0
2,note_on,46,0,120
2,note_on,58,0,0
2,note_on,54,69,120
2,note_on,42,58,0
2,note_on,42,0,120
2,note_on,54,0,0
2,note_on,51,62,120
2,note_on,39,52,0
2,note_on,39,0,120
2,note_on,51,0,0
2,note_on,46,77,120
2,note_on,34,64,0
2,note_on,34,0,120
2,note_on,46,0,0
2,note_on,47,68,120
2,note_on,35,58,0
2,note_on,35,0,120
2,note_on,47,0,0
2,note_on,46,78,120
2,note_on,34,66,0
2,note_on,34,0,120
2,note_on,46,0,0
2,note_on,47,72,120
2,note_on,35,61,0
2,note_on,35,0,120
2,note_on,47,0,0
2,note_on,46,73,120
2,note_on,34,61,0
2,note_on,34,0,120
2,note_on,46,0,0
2,note_on,58,64,120
2,note_on,46,52,0
2,note_on,46,0,120
2,note_on,58,0,0
2,note_on,54,75,120
2,note_on,42,63,0
2,note_on,42,0,120
2,note_on,54,0,0
2,note_on,51,68,120
2,note_on,39,57,0
2,note_on,39,0,120
2,note_on,51,0,0
2,note_on,46,80,120
2,note_on,34,80,0
2,note_on,48,63,60
2,note_on,46,0,44
2,note_on,50,66,16
2,note_on,48,0,44
2,note_on,51,69,16
2,note_on,50,0,44
2,note_on,34,0,16
2,note_on,51,0,44
2,note_on,33,74,196
2,note_on,39,74,0
2,note_on,42,74,0
2,note_on,45,85,0
2,note_on,45,0,480
2,note_on,33,0,0
2,note_on,39,0,0
2,note_on,42,0,0
2,note_on,32,72,0
2,note_on,36,72,0
2,note_on,39,74,0
2,note_on,44,83,0
2,note_on,44,0,480
2,note_on,32,0,0
2,note_on,36,0,0
2,note_on,39,0,0
2,note_on,31,70,0
2,note_on,33,70,0
2,note_on,37,70,0
2,note_on,40,70,0
2,note_on,43,81,0
2,note_on,43,0,480
2,note_on,37,0,0
2,note_on,31,0,0
2,note_on,33,0,0
2,note_on,40,0,0
2,note_on,30,71,0
2,note_on,33,71,0
2,note_on,38,69,0
2,note_on,42,82,0
2,note_on,42,0,240
2,note_on,30,0,0
2,note_on,33,0,0
2,note_on,38,0,0
2,note_on,27,70,240
2,note_on,31,70,0
2,note_on,36,70,0
2,note_on,39,81,0
2,note_on,39,0,480
2,note_on,27,0,0
2,note_on,31,0,0
2,note_on,36,0,0
2,note_on,36,62,240
2,note_on,39,62,0
2,note_on,43,62,0
2,note_on,48,62,0
2,note_on,48,0,120
2,note_on,36,0,0
2,note_on,39,0,0
2,note_on,43,0,0
2,note_on,53,84,120
2,note_on,41,71,0
2,note_on,45,71,0
2,note_on,48,71,0
2,note_on,48,0,120
2,note_on,53,0,0
2,note_on,41,0,0
2,note_on,45,0,0
2,note_on,41,75,120
2,note_on,29,63,0
2,note_on,33,63,0
2,note_on,36,63,0
2,note_on,36,0,120
2,note_on,41,0,0
2,note_on,29,0,0
2,note_on,33,0,0
2,note_on,46,81,120
2,note_on,34,68,0
2,note_on,38,68,0
2,note_on,41,68,0
2,note_on,41,0,240
2,note_on,46,0,0
2,note_on,34,0,0
2,note_on,38,0,0
2,note_on,45,70,240
2,note_on,51,70,0
2,note_on,54,70,0
2,note_on,57,81,0
2,note_on,57,0,480
2,note_on,45,0,0
2,note_on,51,0,0
2,note_on,54,0,0
2,note_on,44,70,0
2,note_on,48,70,0
2,note_on,51,70,0
2,note_on,56,81,0
2,note_on,56,0,480
2,note_on,44,0,0
2,note_on,48,0,0
2,note_on,51,0,0
2,note_on,45,70,0
2,note_on,43,70,0
2,note_on,49,70,0
2,note_on,52,70,0
2,note_on,55,81,0
2,note_on,55,0,480
2,note_on,49,0,0
2,note_on,45,0,0
2,note_on,43,0,0
2,note_on,52,0,0
2,note_on,42,70,0
2,note_on,45,70,0
2,note_on,50,70,0
2,note_on,54,81,0
2,note_on,54,0,240
2,note_on,42,0,0
2,note_on,45,0,0
2,note_on,50,0,0
2,note_on,43,70,240
2,note_on,39,70,0
2,note_on,48,70,0
2,note_on,51,81,0
2,note_on,51,0,480
2,note_on,43,0,0
2,note_on,39,0,0
2,note_on,48,0,0
2,note_on,48,74,240
2,note_on,36,62,0
2,note_on,39,62,0
2,note_on,43,62,0
2,note_on,43,0,240
2,note_on,48,0,0
2,note_on,36,0,0
2,note_on,39,0,0
2,note_on,53,84,0
2,note_on,41,71,0
2,note_on,45,71,0
2,note_on,48,71,0
2,note_on,48,0,240
2,note_on,53,0,0
2,note_on,41,0,0
2,note_on,45,0,0
2,note_on,65,75,0
2,note_on,53,63,0
2,note_on,57,63,0
2,note_on,60,63,0
2,note_on,60,0,240
2,note_on,65,0,0
2,note_on,53,0,0
2,note_on,57,0,0
2,note_on,58,89,0
2,note_on,46,74,0
2,note_on,50,74,0
2,note_on,50,0,240
2,note_on,46,0,0
2,note_on,58,0,0
2,note_on,58,79,0
2,note_on,50,67,0
2,note_on,50,0,90
2,note_on,58,0,0
2,note_on,58,79,30
2,note_on,50,67,0
2,note_on,50,0,90
2,note_on,58,0,0
2,note_on,62,89,30
2,note_on,58,74,0
2,note_on,58,0,90
2,note_on,62,0,0
2,note_on,58,83,30
2,note_on,50,70,0
2,note_on,50,0,90
2,note_on,58,0,0
2,note_on,58,83,30
2,note_on,50,70,0
2,note_on,50,0,240
2,note_on,58,0,0
2,note_on,63,66,0
2,note_on,53,56,0
2,note_on,60,56,0
2,note_on,60,0,80
2,note_on,53,0,0
2,note_on,63,0,0
2,note_on,41,52,80
2,note_on,29,44,0
2,note_on,29,0,80
2,note_on,41,0,0
2,note_on,42,52,80
2,note_on,30,44,0
2,note_on,30,0,80
2,note_on,42,0,0
2,note_on,43,71,80
2,note_on,31,60,0
2,note_on,31,0,80
2,note_on,43,0,0
2,note_on,44,60,80
2,note_on,32,50,0
2,note_on,32,0,80
2,note_on,44,0,0
2,note_on,45,60,80
2,note_on,33,50,0
2,note_on,33,0,80
2,note_on,45,0,0
2,note_on,46,89,80
2,note_on,34,74,0
2,note_on,38,74,0
2,note_on,38,0,240
2,note_on,34,0,0
2,note_on,46,0,0
2,note_on,58,79,0
2,note_on,50,67,0
2,note_on,50,0,90
2,note_on,58,0,0
2,note_on,58,79,30
2,note_on,50,67,0
2,note_on,50,0,90
2,note_on,58,0,0
2,note_on,62,89,30
2,note_on,58,74,0
2,note_on,58,0,90
2,note_on,62,0,0
2,note_on,58,83,30
2,note_on,50,70,0
2,note_on,50,0,90
2,note_on,58,0,0
2,note_on,58,83,30
2,note_on,50,70,0
2,note_on,50,0,240
2,note_on,58,0,0
2,note_on,63,66,0
2,note_on,53,56,0
2,note_on,60,56,0
2,note_on,60,0,80
2,note_on,53,0,0
2,note_on,63,0,0
2,note_on,41,52,80
2,note_on,29,44,0
2,note_on,29,0,80
2,note_on,41,0,0
2,note_on,42,52,80
2,note_on,30,44,0
2,note_on,30,0,80
2,note_on,42,0,0
2,note_on,43,71,80
2,note_on,31,60,0
2,note_on,31,0,80
2,note_on,43,0,0
2,note_on,44,60,80
2,note_on,32,50,0
2,note_on,32,0,80
2,note_on,44,0,0
2,note_on,45,60,80
2,note_on,33,50,0
2,note_on,33,0,80
2,note_on,45,0,0
2,note_on,53,66,80
2,note_on,41,56,0
2,note_on,41,0,80
2,note_on,53,0,0
2,note_on,41,52,80
2,note_on,29,44,0
2,note_on,29,0,80
2,note_on,41,0,0
2,note_on,42,52,80
2,note_on,30,44,0
2,note_on,30,0,80
2,note_on,42,0,0
2,note_on,43,71,80
2,note_on,31,60,0
2,note_on,31,0,80
2,note_on,43,0,0
2,note_on,44,60,80
2,note_on,32,50,0
2,note_on,32,0,80
2,note_on,44,0,0
2,note_on,45,60,80
2,note_on,33,50,0
2,note_on,33,0,80
2,note_on,45,0,0
2,note_on,53,66,80
2,note_on,41,56,0
2,note_on,41,0,80
2,note_on,53,0,0
2,note_on,41,52,80
2,note_on,29,44,0
2,note_on,29,0,80
2,note_on,41,0,0
2,note_on,42,52,80
2,note_on,30,44,0
2,note_on,30,0,80
2,note_on,42,0,0
2,note_on,43,71,80
2,note_on,31,60,0
2,note_on,31,0,80
2,note_on,43,0,0
2,note_on,44,60,80
2,note_on,32,50,0
2,note_on,32,0,80
2,note_on,44,0,0
2,note_on,45,60,80
2,note_on,33,50,0
2,note_on,33,0,80
2,note_on,45,0,0
2,note_on,53,69,80
2,note_on,41,58,0
2,note_on,41,0,80
2,note_on,53,0,0
2,note_on,41,55,80
2,note_on,29,46,0
2,note_on,29,0,80
2,note_on,41,0,0
2,note_on,42,55,80
2,note_on,30,46,0
2,note_on,30,0,80
2,note_on,42,0,0
2,note_on,43,74,80
2,note_on,31,62,0
2,note_on,31,0,80
2,note_on,43,0,0
2,note_on,44,62,80
2,note_on,32,52,0
2,note_on,32,0,80
2,note_on,44,0,0
2,note_on,45,62,80
2,note_on,33,52,0
2,note_on,33,0,80
2,note_on,45,0,0
2,note_on,53,69,80
2,note_on,41,49,0
2,note_on,41,0,80
2,note_on,53,0,0
2,note_on,52,67,80
2,note_on,40,56,0
2,note_on,40,0,80
2,note_on,52,0,0
2,note_on,51,71,80
2,note_on,39,60,0
2,note_on,39,0,80
2,note_on,51,0,0
2,note_on,50,75,80
2,note_on,38,63,0
2,note_on,38,0,80
2,note_on,50,0,0
2,note_on,49,80,80
2,note_on,37,68,0
2,note_on,37,0,80
2,note_on,49,0,0
2,note_on,48,83,80
2,note_on,36,70,0
2,note_on,36,0,80
2,note_on,48,0,0
2,note_on,46,88,80
2,note_on,34,74,0
2,note_on,41,74,0
2,note_on,41,0,240
2,note_on,34,0,0
2,note_on,46,0,0
2,note_on,58,70,0
2,note_on,58,0,60
2,note_on,58,71,60
2,note_on,58,0,60
2,note_on,62,80,60
2,note_on,62,0,60
2,note_on,58,73,60
2,note_on,58,0,60
2,note_on,58,73,60
2,note_on,58,0,120
2,note_on,53,80,120
2,note_on,53,0,60
2,note_on,50,73,60
2,note_on,50,0,60
2,note_on,50,73,60
2,note_on,50,0,120
2,note_on,46,80,120
2,note_on,46,0,60
2,note_on,41,73,60
2,note_on,41,0,60
2,note_on,41,73,60
2,note_on,41,0,120
2,note_on,46,88,120
2,note_on,34,74,0
2,note_on,41,74,0
2,note_on,41,0,240
2,note_on,34,0,0
2,note_on,46,0,0
2,note_on,70,70,0
2,note_on,58,59,0
2,note_on,58,0,60
2,note_on,70,0,0
2,note_on,70,71,60
2,note_on,58,60,0
2,note_on,58,0,60
2,note_on,70,0,0
2,note_on,74,80,60
2,note_on,62,68,0
2,note_on,62,0,60
2,note_on,74,0,0
2,note_on,70,73,60
2,note_on,58,61,0
2,note_on,58,0,60
2,note_on,70,0,0
2,note_on,70,73,60
2,note_on,58,61,0
2,note_on,58,0,120
2,note_on,70,0,0
2,note_on,65,80,120
2,note_on,53,68,0
2,note_on,53,0,60
2,note_on,65,0,0
2,note_on,62,73,60
2,note_on,50,61,0
2,note_on,50,0,60
2,note_on,62,0,0
2,note_on,62,73,60
2,note_on,50,61,0
2,note_on,50,0,120
2,note_on,62,0,0
2,note_on,58,80,120
2,note_on,46,68,0
2,note_on,46,0,60
2,note_on,58,0,0
2,note_on,53,73,60
2,note_on,41,61,0
2,note_on,41,0,60
2,note_on,53,0,0
2,note_on,53,73,60
2,note_on,41,61,0
2,note_on,41,0,120
2,note_on,53,0,0
2,note_on,38,74,120
2,note_on,46,88,0
2,note_on,34,74,0
2,note_on,41,74,0
2,note_on,41,0,240
2,note_on,38,0,0
2,note_on,46,0,0
2,note_on,34,0,0
2,note_on,65,70,0
2,note_on,53,59,0
2,note_on,53,0,60
2,note_on,65,0,0
2,note_on,65,71,60
2,note_on,53,60,0
2,note_on,53,0,60
2,note_on,65,0,0
2,note_on,70,80,60
2,note_on,58,68,0
2,note_on,58,0,60
2,note_on,70,0,0
2,note_on,65,73,60
2,note_on,53,61,0
2,note_on,53,0,60
2,note_on,65,0,0
2,note_on,65,73,60
2,note_on,53,61,0
2,note_on,53,0,120
2,note_on,65,0,0
2,note_on,62,80,120
2,note_on,50,68,0
2,note_on,50,0,60
2,note_on,62,0,0
2,note_on,58,73,60
2,note_on,46,61,0
2,note_on,46,0,60
2,note_on,58,0,0
2,note_on,58,73,60
2,note_on,46,61,0
2,note_on,46,0,120
2,note_on,58,0,0
2,note_on,53,83,120
2,note_on,41,71,0
2,note_on,41,0,60
2,note_on,53,0,0
2,note_on,50,77,60
2,note_on,38,63,0
2,note_on,38,0,60
2,note_on,50,0,0
2,note_on,50,77,60
2,note_on,38,63,0
2,note_on,38,0,120
2,note_on,50,0,0
2,note_on,46,68,120
2,note_on,34,57,0
2,note_on,34,0,160
2,note_on,46,0,0
2,note_on,41,61,0
2,note_on,29,51,0
2,note_on,29,0,120
2,note_on,41,0,0
2,note_on,58,68,40
2,note_on,46,57,0
2,note_on,46,0,160
2,note_on,58,0,0
2,note_on,53,58,0
2,note_on,41,49,0
2,note_on,41,0,120
2,note_on,53,0,0
2,note_on,70,68,40
2,note_on,58,57,0
2,note_on,58,0,160
2,note_on,70,0,0
2,note_on,65,59,0
2,note_on,53,50,0
2,note_on,53,0,120
2,note_on,65,0,0
2,note_on,58,68,40
2,note_on,46,57,0
2,note_on,46,0,160
2,note_on,58,0,0
2,note_on,53,61,0
2,note_on,41,51,0
2,note_on,41,0,120
2,note_on,53,0,0
2,note_on,46,68,40
2,note_on,34,57,0
2,note_on,34,0,160
2,note_on,46,0,0
2,note_on,41,61,0
2,note_on,29,51,0
2,note_on,29,0,120
2,note_on,41,0,0
2,note_on,58,68,40
2,note_on,46,57,0
2,note_on,46,0,160
2,note_on,58,0,0
2,note_on,53,61,0
2,note_on,41,51,0
2,note_on,41,0,120
2,note_on,53,0,0
2,note_on,70,68,40
2,note_on,58,57,0
2,note_on,58,0,160
2,note_on,70,0,0
2,note_on,65,62,0
2,note_on,53,52,0
2,note_on,53,0,80
2,note_on,65,0,0
2,note_on,58,68,80
2,note_on,46,57,0
2,note_on,46,0,160
2,note_on,58,0,0
2,note_on,53,61,0
2,note_on,41,51,0
2,note_on,41,0,80
2,note_on,53,0,0
2,note_on,46,68,80
2,note_on,34,57,0
2,note_on,34,0,160
2,note_on,46,0,0
2,note_on,41,61,0
2,note_on,29,51,0
2,note_on,29,0,80
2,note_on,41,0,0
2,note_on,34,102,80
2,note_on,34,0,480
2,note_on,53,79,960
2,note_on,38,67,0
2,note_on,38,0,480
2,note_on,53,0,0
2,note_on,54,85,0
2,note_on,39,72,0
2,note_on,39,0,960
2,note_on,54,0,0
2,note_on,53,79,480
2,note_on,41,67,0
2,note_on,41,0,480
2,note_on,53,0,0
2,note_on,51,85,0
2,note_on,42,72,0
2,note_on,42,0,1440
2,note_on,51,0,0
2,note_on,50,79,0
2,note_on,44,67,0
2,note_on,44,0,480
2,note_on,50,0,0
2,note_on,51,85,0
2,note_on,42,72,0
2,note_on,42,0,480
2,note_on,51,0,0
2,note_on,42,67,0
2,note_on,51,79,0
2,note_on,51,0,480
2,note_on,42,0,0
2,note_on,41,67,0
2,note_on,44,67,0
2,note_on,53,79,0
2,note_on,53,0,480
2,note_on,44,0,0
2,note_on,41,0,0
2,note_on,39,67,0
2,note_on,54,79,0
2,note_on,42,67,0
2,note_on,42,0,480
2,note_on,54,0,0
2,note_on,39,0,0
2,note_on,46,44,0
2,note_on,34,37,0
2,note_on,38,37,0
2,note_on,41,37,0
2,note_on,41,0,72
2,note_on,46,0,0
2,note_on,34,0,0
2,note_on,38,0,0
2,note_on,46,40,8
2,note_on,34,34,0
2,note_on,38,34,0
2,note_on,41,34,0
2,note_on,41,0,72
2,note_on,46,0,0
2,note_on,34,0,0
2,note_on,38,0,0
2,note_on,46,40,8
2,note_on,34,35,0
2,note_on,38,35,0
2,note_on,41,35,0
2,note_on,41,0,72
2,note_on,46,0,0
2,note_on,34,0,0
2,note_on,38,0,0
2,note_on,46,41,8
2,note_on,34,34,0
2,note_on,38,34,0
2,note_on,41,34,0
2,note_on,41,0,36
2,note_on,46,0,0
2,note_on,34,0,0
2,note_on,38,0,0
2,note_on,46,43,44
2,note_on,34,37,0
2,note_on,38,37,0
2,note_on,41,37,0
2,note_on,41,0,36
2,note_on,46,0,0
2,note_on,34,0,0
2,note_on,38,0,0
2,note_on,46,43,44
2,note_on,34,37,0
2,note_on,38,37,0
2,note_on,41,37,0
2,note_on,41,0,36
2,note_on,46,0,0
2,note_on,34,0,0
2,note_on,38,0,0
2,note_on,46,45,44
2,note_on,34,38,0
2,note_on,38,38,0
2,note_on,41,38,0
2,note_on,41,0,36
2,note_on,46,0,0
2,note_on,34,0,0
2,note_on,38,0,0
2,note_on,46,46,44
2,note_on,34,39,0
2,note_on,38,39,0
2,note_on,41,39,0
2,note_on,41,0,36
2,note_on,46,0,0
2,note_on,34,0,0
2,note_on,38,0,0
2,note_on,46,48,44
2,note_on,34,39,0
2,note_on,38,39,0
2,note_on,41,39,0
2,note_on,41,0,36
2,note_on,46,0,0
2,note_on,34,0,0
2,note_on,38,0,0
2,note_on,46,48,44
2,note_on,34,42,0
2,note_on,38,42,0
2,note_on,41,42,0
2,note_on,41,0,36
2,note_on,46,0,0
2,note_on,34,0,0
2,note_on,38,0,0
2,note_on,46,50,44
2,note_on,34,41,0
2,note_on,38,41,0
2,note_on,41,41,0
2,note_on,41,0,36
2,note_on,46,0,0
2,note_on,34,0,0
2,note_on,38,0,0
2,note_on,46,50,44
2,note_on,34,42,0
2,note_on,38,42,0
2,note_on,41,42,0
2,note_on,41,0,36
2,note_on,46,0,0
2,note_on,34,0,0
2,note_on,38,0,0
2,note_on,46,56,44
2,note_on,34,46,0
2,note_on,38,46,0
2,note_on,41,46,0
2,note_on,41,0,80
2,note_on,46,0,0
2,note_on,34,0,0
2,note_on,38,0,0
2,note_on,50,53,0
2,note_on,38,45,0
2,note_on,38,0,80
2,note_on,50,0,0
2,note_on,53,56,0
2,note_on,41,46,0
2,note_on,41,0,80
2,note_on,53,0,0
2,note_on,58,58,0
2,note_on,46,50,0
2,note_on,46,0,80
2,note_on,58,0,0
2,note_on,62,61,0
2,note_on,50,51,0
2,note_on,50,0,80
2,note_on,62,0,0
2,note_on,65,63,0
2,note_on,53,53,0
2,note_on,53,0,80
2,note_on,65,0,0
2,note_on,70,67,0
2,note_on,58,56,0
2,note_on,58,0,80
2,note_on,70,0,0
2,note_on,65,66,0
2,note_on,53,55,0
2,note_on,53,0,80
2,note_on,65,0,0
2,note_on,62,63,0
2,note_on,50,52,0
2,note_on,50,0,80
2,note_on,62,0,0
2,note_on,58,61,0
2,note_on,46,51,0
2,note_on,46,0,80
2,note_on,58,0,0
2,note_on,53,60,0
2,note_on,41,50,0
2,note_on,41,0,80
2,note_on,53,0,0
2,note_on,50,57,0
2,note_on,38,48,0
2,note_on,38,0,80
2,note_on,50,0,0
2,note_on,46,57,0
2,note_on,34,48,0
2,note_on,38,48,0
2,note_on,41,48,0
2,note_on,41,0,120
2,note_on,46,0,0
2,note_on,34,0,0
2,note_on,38,0,0
2,note_on,53,60,120
2,note_on,41,50,0
2,note_on,45,50,0
2,note_on,48,50,0
2,note_on,48,0,120
2,note_on,53,0,0
2,note_on,41,0,0
2,note_on,45,0,0
2,note_on,58,61,120
2,note_on,46,52,0
2,note_on,50,52,0
2,note_on,53,52,0
2,note_on,53,0,120
2,note_on,58,0,0
2,note_on,46,0,0
2,note_on,50,0,0
2,note_on,53,63,120
2,note_on,41,53,0
2,note_on,45,53,0
2,note_on,48,53,0
2,note_on,48,0,120
2,note_on,53,0,0
2,note_on,41,0,0
2,note_on,45,0,0
2,note_on,46,66,120
2,note_on,34,55,0
2,note_on,38,55,0
2,note_on,41,55,0
2,note_on,41,0,120
2,note_on,46,0,0
2,note_on,34,0,0
2,note_on,38,0,0
2,note_on,53,68,120
2,note_on,48,57,0
2,note_on,45,57,0
2,note_on,41,57,0
2,note_on,41,0,120
2,note_on,53,0,0
2,note_on,48,0,0
2,note_on,45,0,0
2,note_on,58,69,120
2,note_on,53,58,0
2,note_on,50,58,0
2,note_on,46,58,0
2,note_on,46,0,120
2,note_on,58,0,0
2,note_on,53,0,0
2,note_on,50,0,0
2,note_on,53,72,120
2,note_on,48,61,0
2,note_on,45,61,0
2,note_on,41,61,0
2,note_on,41,0,120
2,note_on,53,0,0
2,note_on,48,0,0
2,note_on,45,0,0
2,note_on,46,75,120
2,note_on,41,63,0
2,note_on,38,63,0
2,note_on,34,63,0
2,note_on,34,0,240
2,note_on,46,0,0
2,note_on,41,0,0
2,note_on,38,0,0
2,note_on,62,80,240
2,note_on,58,67,0
2,note_on,53,67,0
2,note_on,46,67,0
2,note_on,46,0,240
2,note_on,62,0,0
2,note_on,58,0,0
2,note_on,53,0,0
2,note_on,34,66,240
2,note_on,46,87,0
2,note_on,41,71,0
2,note_on,41,0,240
2,note_on,46,0,0
2,note_on,34,0,0
3,note_on,45,35,4320
3,note_on,45,0,60
3,note_on,44,36,0
3,note_on,44,0,60
3,note_on,45,39,0
3,note_on,45,0,60
3,note_on,44,42,0
3,note_on,44,0,60
3,note_on,45,44,0
3,note_on,45,0,60
3,note_on,44,46,0
3,note_on,44,0,60
3,note_on,45,47,0
3,note_on,45,0,60
3,note_on,44,47,0
3,note_on,44,0,60
3,note_on,45,49,0
3,note_on,45,0,40
3,note_on,44,44,0
3,note_on,44,0,40
3,note_on,45,49,0
3,note_on,45,0,40
3,note_on,44,43,0
3,note_on,44,0,40
3,note_on,45,49,0
3,note_on,45,0,40
3,note_on,44,44,0
3,note_on,44,0,40
3,note_on,45,49,0
3,note_on,45,0,40
3,note_on,44,44,0
3,note_on,44,0,40
3,note_on,45,49,0
3,note_on,45,0,40
3,note_on,44,43,0
3,note_on,44,0,40
3,note_on,45,49,0
3,note_on,45,0,40
3,note_on,44,44,0
3,note_on,45,49,34
3,note_on,44,0,6
3,note_on,45,0,34
3,note_on,44,44,0
3,note_on,44,0,40
3,note_on,45,49,0
3,note_on,45,0,40
3,note_on,44,44,0
3,note_on,44,0,40
3,note_on,45,49,0
3,note_on,45,0,40
3,note_on,44,44,0
3,note_on,44,0,40
3,note_on,45,49,6
3,note_on,45,0,60
3,note_on,43,45,0
3,note_on,43,0,60
3,note_on,42,50,0
3,note_on,42,0,60
3,note_on,41,45,0
3,note_on,41,0,60
3,note_on,40,53,0
3,note_on,39,48,40
3,note_on,40,0,10
3,note_on,40,53,30
3,note_on,39,0,10
3,note_on,39,47,30
3,note_on,40,0,10
3,note_on,40,53,30
3,note_on,39,0,10
3,note_on,39,48,30
3,note_on,40,0,10
3,note_on,40,53,30
3,note_on,39,0,10
3,note_on,39,46,30
3,note_on,40,0,10
3,note_on,40,52,30
3,note_on,39,0,10
3,note_on,39,48,30
3,note_on,40,0,10
3,note_on,40,52,30
3,note_on,39,0,10
3,note_on,39,46,30
3,note_on,40,0,10
3,note_on,40,51,30
3,note_on,39,0,10
3,note_on,39,46,30
3,note_on,40,0,10
3,note_on,40,51,30
3,note_on,39,0,10
3,note_on,39,45,30
3,note_on,40,0,10
3,note_on,40,52,30
3,note_on,39,0,10
3,note_on,39,45,30
3,note_on,40,0,10
3,note_on,40,51,30
3,note_on,39,0,10
3,note_on,39,45,30
3,note_on,40,0,10
3,note_on,40,51,30
3,note_on,39,0,10
3,note_on,39,46,30
3,note_on,40,0,10
3,note_on,40,51,30
3,note_on,39,0,10
3,note_on,39,46,30
3,note_on,40,0,10
3,note_on,40,53,30
3,note_on,39,0,10
3,note_on,39,45,30
3,note_on,40,0,10
3,note_on,40,51,30
3,note_on,39,0,10
3,note_on,39,45,30
3,note_on,40,0,10
3,note_on,40,51,30
3,note_on,39,0,10
3,note_on,39,45,30
3,note_on,40,0,10
3,note_on,40,51,30
3,note_on,39,0,10
3,note_on,39,45,30
3,note_on,40,0,10
3,note_on,40,51,30
3,note_on,39,0,10
3,note_on,39,45,30
3,note_on,40,0,10
3,note_on,40,51,30
3,note_on,39,0,10
3,note_on,39,46,30
3,note_on,40,0,10
3,note_on,40,48,30
3,note_on,39,0,10
3,note_on,39,48,50
3,note_on,40,0,10
3,note_on,40,60,50
3,note_on,39,0,10
3,note_on,40,0,50
3,note_on,38,63,0
3,note_on,38,0,40
3,note_on,37,67,20
3,note_on,37,0,40
3,note_on,36,70,20
3,note_on,36,0,40
3,note_on,35,73,20
3,note_on,35,0,60
3,note_on,34,77,0
3,note_on,34,0,40
3,note_on,43,26,4821
3,note_on,43,0,60
3,note_on,42,27,0
3,note_on,42,0,60
3,note_on,43,29,0
3,note_on,43,0,60
3,note_on,42,32,0
3,note_on,42,0,60
3,note_on,43,34,0
3,note_on,43,0,60
3,note_on,42,36,0
3,note_on,42,0,60
3,note_on,43,37,0
3,note_on,43,0,60
3,note_on,42,38,0
3,note_on,42,0,60
3,note_on,43,41,0
3,note_on,43,0,40
3,note_on,42,36,0
3,note_on,42,0,40
3,note_on,43,41,0
3,note_on,43,0,40
3,note_on,42,36,0
3,note_on,42,0,40
3,note_on,43,42,0
3,note_on,43,0,40
3,note_on,42,37,0
3,note_on,42,0,40
3,note_on,43,43,0
3,note_on,43,0,40
3,note_on,42,38,0
3,note_on,42,0,40
3,note_on,43,44,0
3,note_on,43,0,40
3,note_on,42,38,0
3,note_on,42,0,40
3,note_on,43,45,0
3,note_on,43,0,40
3,note_on,42,40,0
3,note_on,43,45,34
3,note_on,42,0,6
3,note_on,43,0,34
3,note_on,42,40,0
3,note_on,42,0,40
3,note_on,43,45,0
3,note_on,43,0,40
3,note_on,42,41,0
3,note_on,42,0,40
3,note_on,43,46,0
3,note_on,43,0,40
3,note_on,42,42,0
3,note_on,42,0,40
3,note_on,43,47,6
3,note_on,43,0,60
3,note_on,41,44,0
3,note_on,41,0,60
3,note_on,40,49,0
3,note_on,40,0,60
3,note_on,39,45,0
3,note_on,38,51,59
3,note_on,39,0,1
3,note_on,37,46,39
3,note_on,38,0,10
3,note_on,38,51,30
3,note_on,37,0,10
3,note_on,37,45,30
3,note_on,38,0,10
3,note_on,38,52,30
3,note_on,37,0,10
3,note_on,37,45,30
3,note_on,38,0,10
3,note_on,38,51,30
3,note_on,37,0,10
3,note_on,37,45,30
3,note_on,38,0,10
3,note_on,38,51,30
3,note_on,37,0,10
3,note_on,37,46,30
3,note_on,38,0,10
3,note_on,38,51,30
3,note_on,37,0,10
3,note_on,37,46,30
3,note_on,38,0,10
3,note_on,38,56,30
3,note_on,37,0,10
3,note_on,39,51,30
3,note_on,38,0,10
3,note_on,38,56,30
3,note_on,39,0,10
3,note_on,39,52,30
3,note_on,38,0,10
3,note_on,38,55,30
3,note_on,39,0,10
3,note_on,39,51,30
3,note_on,38,0,10
3,note_on,38,55,30
3,note_on,39,0,10
3,note_on,39,53,30
3,note_on,38,0,10
3,note_on,38,54,30
3,note_on,39,0,10
3,note_on,38,0,30
3,note_on,39,52,0
3,note_on,38,55,40
3,note_on,39,0,10
3,note_on,39,53,30
3,note_on,38,0,10
3,note_on,38,56,30
3,note_on,39,0,10
3,note_on,39,54,50
3,note_on,38,0,10
3,note_on,39,0,50
3,note_on,38,60,0
3,note_on,38,0,40
3,note_on,36,63,20
3,note_on,36,0,40
3,note_on,35,67,20
3,note_on,35,0,40
3,note_on,34,70,20
3,note_on,34,0,40
3,note_on,33,73,20
3,note_on,33,0,60
3,note_on,32,77,0
3,note_on,32,0,40
3,note_on,45,36,13700
3,note_on,45,0,60
3,note_on,44,38,0
3,note_on,44,0,60
3,note_on,45,42,0
3,note_on,45,0,60
3,note_on,44,45,0
3,note_on,44,0,60
3,note_on,45,46,0
3,note_on,45,0,60
3,note_on,44,50,0
3,note_on,44,0,60
3,note_on,45,52,0
3,note_on,45,0,60
3,note_on,44,52,0
3,note_on,44,0,60
3,note_on,45,54,0
3,note_on,45,0,40
3,note_on,44,48,0
3,note_on,44,0,40
3,note_on,45,54,0
3,note_on,45,0,40
3,note_on,44,47,0
3,note_on,44,0,40
3,note_on,45,55,0
3,note_on,45,0,40
3,note_on,44,49,0
3,note_on,44,0,40
3,note_on,45,55,0
3,note_on,45,0,40
3,note_on,44,49,0
3,note_on,44,0,40
3,note_on,45,55,0
3,note_on,45,0,40
3,note_on,44,49,0
3,note_on,44,0,40
3,note_on,45,56,0
3,note_on,45,0,40
3,note_on,44,50,0
3,note_on,45,56,34
3,note_on,44,0,6
3,note_on,45,0,34
3,note_on,44,50,0
3,note_on,44,0,40
3,note_on,45,57,0
3,note_on,45,0,40
3,note_on,44,51,0
3,note_on,44,0,40
3,note_on,45,57,0
3,note_on,45,0,40
3,note_on,44,51,0
3,note_on,44,0,40
3,note_on,45,56,6
3,note_on,45,0,60
3,note_on,43,53,0
3,note_on,43,0,60
3,note_on,42,56,0
3,note_on,42,0,60
3,note_on,41,54,0
3,note_on,41,0,60
3,note_on,40,53,0
3,note_on,39,48,40
3,note_on,40,0,10
3,note_on,40,53,30
3,note_on,39,0,10
3,note_on,39,47,30
3,note_on,40,0,10
3,note_on,40,53,30
3,note_on,39,0,10
3,note_on,39,48,30
3,note_on,40,0,10
3,note_on,40,53,30
3,note_on,39,0,10
3,note_on,39,46,30
3,note_on,40,0,10
3,note_on,40,52,30
3,note_on,39,0,10
3,note_on,39,48,30
3,note_on,40,0,10
3,note_on,40,52,30
3,note_on,39,0,10
3,note_on,39,46,30
3,note_on,40,0,10
3,note_on,40,51,30
3,note_on,39,0,10
3,note_on,39,46,30
3,note_on,40,0,10
3,note_on,40,51,30
3,note_on,39,0,10
3,note_on,39,45,30
3,note_on,40,0,10
3,note_on,40,52,30
3,note_on,39,0,10
3,note_on,39,45,30
3,note_on,40,0,10
3,note_on,40,51,30
3,note_on,39,0,10
3,note_on,39,45,30
3,note_on,40,0,10
3,note_on,40,51,30
3,note_on,39,0,10
3,note_on,39,46,30
3,note_on,40,0,10
3,note_on,40,51,30
3,note_on,39,0,10
3,note_on,39,46,30
3,note_on,40,0,10
3,note_on,40,53,30
3,note_on,39,0,10
3,note_on,39,45,30
3,note_on,40,0,10
3,note_on,40,51,30
3,note_on,39,0,10
3,note_on,39,45,30
3,note_on,40,0,10
3,note_on,40,51,30
3,note_on,39,0,10
3,note_on,39,45,30
3,note_on,40,0,10
3,note_on,40,51,30
3,note_on,39,0,10
3,note_on,39,45,30
3,note_on,40,0,10
3,note_on,40,51,30
3,note_on,39,0,10
3,note_on,39,45,30
3,note_on,40,0,10
3,note_on,40,51,30
3,note_on,39,0,10
3,note_on,39,46,30
3,note_on,40,0,10
3,note_on,40,48,30
3,note_on,39,0,10
3,note_on,39,48,50
3,note_on,40,0,10
3,note_on,40,49,50
3,note_on,39,0,10
3,note_on,40,0,50
3,note_on,38,53,0
3,note_on,38,0,40
3,note_on,37,55,20
3,note_on,37,0,40
3,note_on,36,58,20
3,note_on,36,0,40
3,note_on,35,62,20
3,note_on,35,0,60
3,note_on,34,64,0
3,note_on,34,0,40
3,note_on,43,35,6741
3,note_on,43,0,60
3,note_on,42,36,0
3,note_on,42,0,60
3,note_on,43,39,0
3,note_on,43,0,60
3,note_on,42,42,0
3,note_on,42,0,60
3,note_on,43,44,0
3,note_on,43,0,60
3,note_on,42,46,0
3,note_on,42,0,60
3,note_on,43,47,0
3,note_on,43,0,60
3,note_on,42,47,0
3,note_on,42,0,60
3,note_on,43,49,0
3,note_on,43,0,40
3,note_on,42,44,0
3,note_on,42,0,40
3,note_on,43,49,0
3,note_on,43,0,40
3,note_on,42,43,0
3,note_on,42,0,40
3,note_on,43,49,0
3,note_on,43,0,40
3,note_on,42,44,0
3,note_on,42,0,40
3,note_on,43,49,0
3,note_on,43,0,40
3,note_on,42,44,0
3,note_on,42,0,40
3,note_on,43,49,0
3,note_on,43,0,40
3,note_on,42,43,0
3,note_on,42,0,40
3,note_on,43,49,0
3,note_on,43,0,40
3,note_on,42,44,0
3,note_on,43,49,34
3,note_on,42,0,6
3,note_on,43,0,34
3,note_on,42,44,0
3,note_on,42,0,40
3,note_on,43,49,0
3,note_on,43,0,40
3,note_on,42,44,0
3,note_on,42,0,40
3,note_on,43,49,0
3,note_on,43,0,40
3,note_on,42,44,0
3,note_on,42,0,40
3,note_on,43,49,6
3,note_on,43,0,60
3,note_on,41,45,0
3,note_on,41,0,60
3,note_on,40,50,0
3,note_on,40,0,60
3,note_on,39,45,0
3,note_on,38,51,59
3,note_on,39,0,1
3,note_on,37,46,59
3,note_on,38,0,15
3,note_on,38,51,45
3,note_on,37,0,15
3,note_on,37,45,45
3,note_on,38,0,15
3,note_on,38,52,45
3,note_on,37,0,15
3,note_on,37,45,45
3,note_on,38,0,15
3,note_on,38,51,45
3,note_on,37,0,15
3,note_on,37,45,45
3,note_on,38,0,15
3,note_on,38,56,45
3,note_on,37,0,15
3,note_on,39,51,45
3,note_on,38,0,15
3,note_on,38,56,45
3,note_on,39,0,15
3,note_on,39,52,45
3,note_on,38,0,15
3,note_on,38,55,45
3,note_on,39,0,15
3,note_on,39,51,45
3,note_on,38,0,15
3,note_on,38,55,45
3,note_on,39,0,15
3,note_on,39,53,45
3,note_on,38,0,15
3,note_on,38,56,45
3,note_on,39,0,15
3,note_on,39,54,45
3,note_on,38,0,10
3,note_on,39,0,50
3,note_on,38,60,0
3,note_on,38,0,40
3,note_on,36,63,20
3,note_on,36,0,40
3,note_on,35,67,20
3,note_on,35,0,40
3,note_on,34,70,20
3,note_on,34,0,40
3,note_on,33,73,20
3,note_on,33,0,60
3,note_on,32,77,0
3,note_on,32,0,40
3,note_on,38,28,14660
3,note_on,29,24,0
3,note_on,34,24,0
3,note_on,34,0,30
3,note_on,29,0,0
3,note_on,38,0,0
3,note_on,41,28,0
3,note_on,41,0,30
3,note_on,38,29,0
3,note_on,29,24,0
3,note_on,34,24,0
3,note_on,34,0,30
3,note_on,29,0,0
3,note_on,38,0,0
3,note_on,41,29,0
3,note_on,41,0,30
3,note_on,38,29,0
3,note_on,29,25,0
3,note_on,34,25,0
3,note_on,34,0,30
3,note_on,29,0,0
3,note_on,38,0,0
3,note_on,41,29,0
3,note_on,41,0,30
3,note_on,38,30,0
3,note_on,29,25,0
3,note_on,34,25,0
3,note_on,34,0,30
3,note_on,29,0,0
3,note_on,38,0,0
3,note_on,41,30,0
3,note_on,41,0,30
3,note_on,38,30,0
3,note_on,29,26,0
3,note_on,34,26,0
3,note_on,34,0,30
3,note_on,29,0,0
3,note_on,38,0,0
3,note_on,41,30,0
3,note_on,41,0,30
3,note_on,38,31,0
3,note_on,29,26,0
3,note_on,34,26,0
3,note_on,34,0,30
3,note_on,29,0,0
3,note_on,38,0,0
3,note_on,41,32,0
3,note_on,41,0,30
3,note_on,38,32,0
3,note_on,29,27,0
3,note_on,34,27,0
3,note_on,34,0,30
3,note_on,29,0,0
3,note_on,38,0,0
3,note_on,41,33,0
3,note_on,41,0,30
3,note_on,38,33,0
3,note_on,29,27,0
3,note_on,34,27,0
3,note_on,34,0,30
3,note_on,29,0,0
3,note_on,38,0,0
3,note_on,41,33,0
3,note_on,41,0,30
3,note_on,38,33,0
3,note_on,29,28,0
3,note_on,34,28,0
3,note_on,34,0,30
3,note_on,29,0,0
3,note_on,38,0,0
3,note_on,41,34,0
3,note_on,41,0,30
3,note_on,38,34,0
3,note_on,29,28,0
3,note_on,34,28,0
3,note_on,34,0,30
3,note_on,29,0,0
3,note_on,38,0,0
3,note_on,41,34,0
3,note_on,41,0,30
3,note_on,38,35,0
3,note_on,29,29,0
3,note_on,34,29,0
3,note_on,34,0,30
3,note_on,29,0,0
3,note_on,38,0,0
3,note_on,41,36,0
3,note_on,41,0,30
3,note_on,38,36,0
3,note_on,29,29,0
3,note_on,34,29,0
3,note_on,34,0,30
3,note_on,29,0,0
3,note_on,38,0,0
3,note_on,41,36,0
3,note_on,41,0,28
3,note_on,38,36,242
3,note_on,29,30,0
3,note_on,34,30,0
3,note_on,34,0,30
3,note_on,29,0,0
3,note_on,38,0,0
3,note_on,41,36,0
3,note_on,41,0,30
3,note_on,38,36,0
3,note_on,29,31,0
3,note_on,34,31,0
3,note_on,34,0,30
3,note_on,29,0,0
3,note_on,38,0,0
3,note_on,41,36,0
3,note_on,41,0,30
3,note_on,38,36,0
3,note_on,29,31,0
3,note_on,34,31,0
3,note_on,34,0,30
3,note_on,29,0,0
3,note_on,38,0,0
3,note_on,41,36,0
3,note_on,41,0,30
3,note_on,38,37,0
3,note_on,29,31,0
3,note_on,34,31,0
3,note_on,34,0,30
3,note_on,29,0,0
3,note_on,38,0,0
3,note_on,41,37,0
3,note_on,41,0,30
3,note_on,38,37,0
3,note_on,29,31,0
3,note_on,34,31,0
3,note_on,34,0,30
3,note_on,29,0,0
3,note_on,38,0,0
3,note_on,41,37,0
3,note_on,41,0,30
3,note_on,38,37,0
3,note_on,29,31,0
3,note_on,34,31,0
3,note_on,34,0,30
3,note_on,29,0,0
3,note_on,38,0,0
3,note_on,41,37,0
3,note_on,41,0,30
3,note_on,38,37,0
3,note_on,29,32,0
3,note_on,34,32,0
3,note_on,34,0,30
3,note_on,29,0,0
3,note_on,38,0,0
3,note_on,41,37,0
3,note_on,41,0,30
3,note_on,38,37,0
3,note_on,29,32,0
3,note_on,34,32,0
3,note_on,34,0,30
3,note_on,29,0,0
3,note_on,38,0,0
3,note_on,41,37,0
3,note_on,41,0,30
3,note_on,38,38,0
3,note_on,29,32,0
3,note_on,34,32,0
3,note_on,34,0,30
3,note_on,29,0,0
3,note_on,38,0,0
3,note_on,41,38,0
3,note_on,41,0,30
3,note_on,38,38,0
3,note_on,29,32,0
3,note_on,34,32,0
3,note_on,34,0,30
3,note_on,29,0,0
3,note_on,38,0,0
3,note_on,41,38,0
3,note_on,41,0,30
3,note_on,38,38,0
3,note_on,29,32,0
3,note_on,34,32,0
3,note_on,34,0,30
3,note_on,29,0,0
3,note_on,38,0,0
3,note_on,41,38,0
3,note_on,41,0,30
3,note_on,38,38,0
3,note_on,29,32,0
3,note_on,34,32,0
3,note_on,34,0,30
3,note_on,29,0,0
3,note_on,38,0,0
3,note_on,41,34,0
3,note_on,41,0,28
3,note_on,39,34,242
3,note_on,29,28,0
3,note_on,33,28,0
3,note_on,33,0,30
3,note_on,29,0,0
3,note_on,39,0,0
3,note_on,41,34,0
3,note_on,41,0,30
3,note_on,39,34,0
3,note_on,29,28,0
3,note_on,33,28,0
3,note_on,33,0,30
3,note_on,29,0,0
3,note_on,39,0,0
3,note_on,41,34,0
3,note_on,41,0,30
3,note_on,39,34,0
3,note_on,29,28,0
3,note_on,33,28,0
3,note_on,33,0,30
3,note_on,29,0,0
3,note_on,39,0,0
3,note_on,41,34,0
3,note_on,41,0,30
3,note_on,39,34,0
3,note_on,29,28,0
3,note_on,33,28,0
3,note_on,33,0,30
3,note_on,29,0,0
3,note_on,39,0,0
3,note_on,41,34,0
3,note_on,41,0,30
3,note_on,39,38,0
3,note_on,29,32,0
3,note_on,33,32,0
3,note_on,33,0,30
3,note_on,29,0,0
3,note_on,39,0,0
3,note_on,41,38,0
3,note_on,41,0,30
3,note_on,39,38,0
3,note_on,29,32,0
3,note_on,33,32,0
3,note_on,33,0,30
3,note_on,29,0,0
3,note_on,39,0,0
3,note_on,41,38,0
3,note_on,41,0,30
3,note_on,39,38,0
3,note_on,29,32,0
3,note_on,33,32,0
3,note_on,33,0,30
3,note_on,29,0,0
3,note_on,39,0,0
3,note_on,41,39,0
3,note_on,41,0,30
3,note_on,39,39,0
3,note_on,29,33,0
3,note_on,33,33,0
3,note_on,33,0,30
3,note_on,29,0,0
3,note_on,39,0,0
3,note_on,41,39,0
3,note_on,41,0,30
3,note_on,39,39,0
3,note_on,29,33,0
3,note_on,33,33,0
3,note_on,33,0,30
3,note_on,29,0,0
3,note_on,39,0,0
3,note_on,41,39,0
3,note_on,41,0,30
3,note_on,39,39,0
3,note_on,29,33,0
3,note_on,33,33,0
3,note_on,33,0,30
3,note_on,29,0,0
3,note_on,39,0,0
3,note_on,41,39,0
3,note_on,41,0,30
3,note_on,39,39,0
3,note_on,29,33,0
3,note_on,33,33,0
3,note_on,33,0,30
3,note_on,29,0,0
3,note_on,39,0,0
3,note_on,41,39,0
3,note_on,41,0,30
3,note_on,39,39,0
3,note_on,29,33,0
3,note_on,33,33,0
3,note_on,33,0,30
3,note_on,29,0,0
3,note_on,39,0,0
3,note_on,41,39,0
3,note_on,41,0,30
3,note_on,29,36,0
3,note_on,33,36,0
3,note_on,39,39,0
3,note_on,39,0,60
3,note_on,33,0,0
3,note_on,29,0,0
3,note_on,41,40,0
3,note_on,41,0,60
3,note_on,30,40,0
3,note_on,30,0,60
3,note_on,41,40,0
3,note_on,41,0,60
3,note_on,31,40,0
3,note_on,31,0,60
3,note_on,41,40,0
3,note_on,41,0,60
3,note_on,32,40,0
3,note_on,32,0,60
3,note_on,41,41,0
3,note_on,41,0,60
3,note_on,33,41,0
3,note_on,33,0,60
3,note_on,41,41,0
3,note_on,41,0,60
3,note_on,34,41,0
3,note_on,34,0,60
3,note_on,41,42,0
3,note_on,41,0,60
3,note_on,35,42,0
3,note_on,35,0,60
3,note_on,41,42,0
3,note_on,41,0,60
3,note_on,36,42,0
3,note_on,36,0,60
3,note_on,41,42,0
3,note_on,41,0,58
3,note_on,39,28,242
3,note_on,30,24,0
3,note_on,35,24,0
3,note_on,35,0,30
3,note_on,30,0,0
3,note_on,39,0,0
3,note_on,42,28,0
3,note_on,42,0,30
3,note_on,39,29,0
3,note_on,30,24,0
3,note_on,35,24,0
3,note_on,35,0,30
3,note_on,30,0,0
3,note_on,39,0,0
3,note_on,42,29,0
3,note_on,42,0,30
3,note_on,39,29,0
3,note_on,30,25,0
3,note_on,35,25,0
3,note_on,35,0,30
3,note_on,30,0,0
3,note_on,39,0,0
3,note_on,42,29,0
3,note_on,42,0,30
3,note_on,39,30,0
3,note_on,30,25,0
3,note_on,35,25,0
3,note_on,35,0,30
3,note_on,30,0,0
3,note_on,39,0,0
3,note_on,42,30,0
3,note_on,42,0,30
3,note_on,39,30,0
3,note_on,30,26,0
3,note_on,35,26,0
3,note_on,35,0,30
3,note_on,30,0,0
3,note_on,39,0,0
3,note_on,42,30,0
3,note_on,42,0,30
3,note_on,39,31,0
3,note_on,30,26,0
3,note_on,35,26,0
3,note_on,35,0,30
3,note_on,30,0,0
3,note_on,39,0,0
3,note_on,42,32,0
3,note_on,42,0,30
3,note_on,39,32,0
3,note_on,30,27,0
3,note_on,35,27,0
3,note_on,35,0,30
3,note_on,30,0,0
3,note_on,39,0,0
3,note_on,42,33,0
3,note_on,42,0,30
3,note_on,39,33,0
3,note_on,30,27,0
3,note_on,35,27,0
3,note_on,35,0,30
3,note_on,30,0,0
3,note_on,39,0,0
3,note_on,42,33,0
3,note_on,42,0,30
3,note_on,39,33,0
3,note_on,30,28,0
3,note_on,35,28,0
3,note_on,35,0,30
3,note_on,30,0,0
3,note_on,39,0,0
3,note_on,42,34,0
3,note_on,42,0,30
3,note_on,39,34,0
3,note_on,30,28,0
3,note_on,35,28,0
3,note_on,35,0,30
3,note_on,30,0,0
3,note_on,39,0,0
3,note_on,42,34,0
3,note_on,42,0,30
3,note_on,39,35,0
3,note_on,30,29,0
3,note_on,35,29,0
3,note_on,35,0,30
3,note_on,30,0,0
3,note_on,39,0,0
3,note_on,42,36,0
3,note_on,42,0,30
3,note_on,39,36,0
3,note_on,30,29,0
3,note_on,35,29,0
3,note_on,35,0,30
3,note_on,30,0,0
3,note_on,39,0,0
3,note_on,42,36,0
3,note_on,42,0,28
3,note_on,39,36,242
3,note_on,30,30,0
3,note_on,35,30,0
3,note_on,35,0,30
3,note_on,30,0,0
3,note_on,39,0,0
3,note_on,42,36,0
3,note_on,42,0,30
3,note_on,39,36,0
3,note_on,30,31,0
3,note_on,35,31,0
3,note_on,35,0,30
3,note_on,30,0,0
3,note_on,39,0,0
3,note_on,42,36,0
3,note_on,42,0,30
3,note_on,39,36,0
3,note_on,30,31,0
3,note_on,35,31,0
3,note_on,35,0,30
3,note_on,30,0,0
3,note_on,39,0,0
3,note_on,42,36,0
3,note_on,42,0,30
3,note_on,39,37,0
3,note_on,30,31,0
3,note_on,35,31,0
3,note_on,35,0,30
3,note_on,30,0,0
3,note_on,39,0,0
3,note_on,42,37,0
3,note_on,42,0,30
3,note_on,39,37,0
3,note_on,30,31,0
3,note_on,35,31,0
3,note_on,35,0,30
3,note_on,30,0,0
3,note_on,39,0,0
3,note_on,42,37,0
3,note_on,42,0,30
3,note_on,39,37,0
3,note_on,30,31,0
3,note_on,35,31,0
3,note_on,35,0,30
3,note_on,30,0,0
3,note_on,39,0,0
3,note_on,42,37,0
3,note_on,42,0,30
3,note_on,39,37,0
3,note_on,30,32,0
3,note_on,35,32,0
3,note_on,35,0,30
3,note_on,30,0,0
3,note_on,39,0,0
3,note_on,42,37,0
3,note_on,42,0,30
3,note_on,39,37,0
3,note_on,30,32,0
3,note_on,35,32,0
3,note_on,35,0,30
3,note_on,30,0,0
3,note_on,39,0,0
3,note_on,42,37,0
3,note_on,42,0,30
3,note_on,39,38,0
3,note_on,30,32,0
3,note_on,35,32,0
3,note_on,35,0,30
3,note_on,30,0,0
3,note_on,39,0,0
3,note_on,42,38,0
3,note_on,42,0,30
3,note_on,39,38,0
3,note_on,30,32,0
3,note_on,35,32,0
3,note_on,35,0,30
3,note_on,30,0,0
3,note_on,39,0,0
3,note_on,42,38,0
3,note_on,42,0,30
3,note_on,39,38,0
3,note_on,30,32,0
3,note_on,35,32,0
3,note_on,35,0,30
3,note_on,30,0,0
3,note_on,39,0,0
3,note_on,42,38,0
3,note_on,42,0,30
3,note_on,39,38,0
3,note_on,30,32,0
3,note_on,35,32,0
3,note_on,35,0,30
3,note_on,30,0,0
3,note_on,39,0,0
3,note_on,42,34,0
3,note_on,42,0,28
3,note_on,40,34,242
3,note_on,30,28,0
3,note_on,34,28,0
3,note_on,34,0,30
3,note_on,30,0,0
3,note_on,40,0,0
3,note_on,42,34,0
3,note_on,42,0,30
3,note_on,40,34,0
3,note_on,30,28,0
3,note_on,34,28,0
3,note_on,34,0,30
3,note_on,30,0,0
3,note_on,40,0,0
3,note_on,42,34,0
3,note_on,42,0,30
3,note_on,40,34,0
3,note_on,30,28,0
3,note_on,34,28,0
3,note_on,34,0,30
3,note_on,30,0,0
3,note_on,40,0,0
3,note_on,42,34,0
3,note_on,42,0,30
3,note_on,40,34,0
3,note_on,30,28,0
3,note_on,34,28,0
3,note_on,34,0,30
3,note_on,30,0,0
3,note_on,40,0,0
3,note_on,42,34,0
3,note_on,42,0,30
3,note_on,40,38,0
3,note_on,30,32,0
3,note_on,34,32,0
3,note_on,34,0,30
3,note_on,30,0,0
3,note_on,40,0,0
3,note_on,42,38,0
3,note_on,42,0,30
3,note_on,40,38,0
3,note_on,30,32,0
3,note_on,34,32,0
3,note_on,34,0,30
3,note_on,30,0,0
3,note_on,40,0,0
3,note_on,42,38,0
3,note_on,42,0,30
3,note_on,40,38,0
3,note_on,30,32,0
3,note_on,34,32,0
3,note_on,34,0,30
3,note_on,30,0,0
3,note_on,40,0,0
3,note_on,42,39,0
3,note_on,42,0,30
3,note_on,40,39,0
3,note_on,30,33,0
3,note_on,34,33,0
3,note_on,34,0,30
3,note_on,30,0,0
3,note_on,40,0,0
3,note_on,42,39,0
3,note_on,42,0,30
3,note_on,40,39,0
3,note_on,30,33,0
3,note_on,34,33,0
3,note_on,34,0,30
3,note_on,30,0,0
3,note_on,40,0,0
3,note_on,42,39,0
3,note_on,42,0,30
3,note_on,40,39,0
3,note_on,30,33,0
3,note_on,34,33,0
3,note_on,34,0,30
3,note_on,30,0,0
3,note_on,40,0,0
3,note_on,42,39,0
3,note_on,42,0,30
3,note_on,40,39,0
3,note_on,30,33,0
3,note_on,34,33,0
3,note_on,34,0,30
3,note_on,30,0,0
3,note_on,40,0,0
3,note_on,42,39,0
3,note_on,42,0,30
3,note_on,40,39,0
3,note_on,30,33,0
3,note_on,34,33,0
3,note_on,34,0,30
3,note_on,30,0,0
3,note_on,40,0,0
3,note_on,42,39,0
3,note_on,42,0,30
3,note_on,30,36,0
3,note_on,34,36,0
3,note_on,40,39,0
3,note_on,40,0,60
3,note_on,34,0,0
3,note_on,30,0,0
3,note_on,42,40,0
3,note_on,42,0,60
3,note_on,31,40,0
3,note_on,31,0,60
3,note_on,42,40,0
3,note_on,42,0,60
3,note_on,32,40,0
3,note_on,32,0,60
3,note_on,42,40,0
3,note_on,42,0,60
3,note_on,33,40,0
3,note_on,33,0,60
3,note_on,42,41,0
3,note_on,42,0,60
3,note_on,34,41,0
3,note_on,34,0,60
3,note_on,42,41,0
3,note_on,42,0,60
3,note_on,35,41,0
3,note_on,35,0,60
3,note_on,42,42,0
3,note_on,42,0,60
3,note_on,36,42,0
3,note_on,36,0,60
3,note_on,42,42,0
3,note_on,42,0,60
3,note_on,37,42,0
3,note_on,37,0,60
3,note_on,42,42,0
3,note_on,42,0,60
3,note_on,40,41,240
3,note_on,37,36,0
3,note_on,31,35,0
3,note_on,34,35,0
3,note_on,34,0,30
3,note_on,31,0,0
3,note_on,37,0,0
3,note_on,43,41,0
3,note_on,43,0,30
3,note_on,40,0,0
3,note_on,40,42,0
3,note_on,37,36,0
3,note_on,31,35,0
3,note_on,34,35,0
3,note_on,34,0,30
3,note_on,31,0,0
3,note_on,37,0,0
3,note_on,43,42,0
3,note_on,43,0,30
3,note_on,40,0,0
3,note_on,40,43,0
3,note_on,37,36,0
3,note_on,31,36,0
3,note_on,34,36,0
3,note_on,34,0,30
3,note_on,31,0,0
3,note_on,37,0,0
3,note_on,43,43,0
3,note_on,43,0,30
3,note_on,40,0,0
3,note_on,40,44,0
3,note_on,37,36,0
3,note_on,31,36,0
3,note_on,34,36,0
3,note_on,34,0,30
3,note_on,31,0,0
3,note_on,37,0,0
3,note_on,43,44,0
3,note_on,43,0,30
3,note_on,40,0,0
3,note_on,40,45,0
3,note_on,37,36,0
3,note_on,31,37,0
3,note_on,34,37,0
3,note_on,34,0,30
3,note_on,31,0,0
3,note_on,37,0,0
3,note_on,43,45,0
3,note_on,43,0,30
3,note_on,40,0,0
3,note_on,40,45,0
3,note_on,37,36,0
3,note_on,31,38,0
3,note_on,34,38,0
3,note_on,34,0,30
3,note_on,31,0,0
3,note_on,37,0,0
3,note_on,43,46,0
3,note_on,43,0,30
3,note_on,40,0,0
3,note_on,40,46,0
3,note_on,37,36,0
3,note_on,31,39,0
3,note_on,34,39,0
3,note_on,34,0,30
3,note_on,31,0,0
3,note_on,37,0,0
3,note_on,43,47,0
3,note_on,43,0,30
3,note_on,40,0,0
3,note_on,40,47,0
3,note_on,37,36,0
3,note_on,31,40,0
3,note_on,34,40,0
3,note_on,34,0,30
3,note_on,31,0,0
3,note_on,37,0,0
3,note_on,43,48,0
3,note_on,43,0,30
3,note_on,40,0,0
3,note_on,40,49,0
3,note_on,37,36,0
3,note_on,31,41,0
3,note_on,34,41,0
3,note_on,34,0,30
3,note_on,31,0,0
3,note_on,37,0,0
3,note_on,43,49,0
3,note_on,43,0,30
3,note_on,40,0,0
3,note_on,40,50,0
3,note_on,37,36,0
3,note_on,31,42,0
3,note_on,34,42,0
3,note_on,34,0,30
3,note_on,31,0,0
3,note_on,37,0,0
3,note_on,43,50,0
3,note_on,43,0,30
3,note_on,40,0,0
3,note_on,40,51,0
3,note_on,37,36,0
3,note_on,31,43,0
3,note_on,34,43,0
3,note_on,34,0,30
3,note_on,31,0,0
3,note_on,37,0,0
3,note_on,43,51,0
3,note_on,43,0,30
3,note_on,40,0,0
3,note_on,40,52,0
3,note_on,37,36,0
3,note_on,31,44,0
3,note_on,34,44,0
3,note_on,34,0,30
3,note_on,31,0,0
3,note_on,37,0,0
3,note_on,43,52,0
3,note_on,43,0,30
3,note_on,40,0,0
3,note_on,41,45,240
3,note_on,32,38,0
3,note_on,36,38,0
3,note_on,36,0,30
3,note_on,32,0,0
3,note_on,41,0,0
3,note_on,44,45,0
3,note_on,44,0,30
3,note_on,41,45,0
3,note_on,32,38,0
3,note_on,36,38,0
3,note_on,36,0,30
3,note_on,32,0,0
3,note_on,41,0,0
3,note_on,44,46,0
3,note_on,44,0,30
3,note_on,41,46,0
3,note_on,32,39,0
3,note_on,36,39,0
3,note_on,36,0,30
3,note_on,32,0,0
3,note_on,41,0,0
3,note_on,44,47,0
3,note_on,44,0,30
3,note_on,41,47,0
3,note_on,32,40,0
3,note_on,36,40,0
3,note_on,36,0,30
3,note_on,32,0,0
3,note_on,41,0,0
3,note_on,44,48,0
3,note_on,44,0,30
3,note_on,41,48,0
3,note_on,32,40,0
3,note_on,36,40,0
3,note_on,36,0,30
3,note_on,32,0,0
3,note_on,41,0,0
3,note_on,44,49,0
3,note_on,44,0,30
3,note_on,41,49,0
3,note_on,32,41,0
3,note_on,36,41,0
3,note_on,36,0,30
3,note_on,32,0,0
3,note_on,41,0,0
3,note_on,44,50,0
3,note_on,44,0,30
3,note_on,41,50,0
3,note_on,32,42,0
3,note_on,36,42,0
3,note_on,36,0,30
3,note_on,32,0,0
3,note_on,41,0,0
3,note_on,44,50,0
3,note_on,44,0,30
3,note_on,41,51,0
3,note_on,32,43,0
3,note_on,36,43,0
3,note_on,36,0,30
3,note_on,32,0,0
3,note_on,41,0,0
3,note_on,44,51,0
3,note_on,44,0,30
3,note_on,41,52,0
3,note_on,32,44,0
3,note_on,36,44,0
3,note_on,36,0,30
3,note_on,32,0,0
3,note_on,41,0,0
3,note_on,44,52,0
3,note_on,44,0,30
3,note_on,41,53,0
3,note_on,32,45,0
3,note_on,36,45,0
3,note_on,36,0,30
3,note_on,32,0,0
3,note_on,41,0,0
3,note_on,44,53,0
3,note_on,44,0,30
3,note_on,41,54,0
3,note_on,32,45,0
3,note_on,36,45,0
3,note_on,36,0,30
3,note_on,32,0,0
3,note_on,41,0,0
3,note_on,44,54,0
3,note_on,44,0,30
3,note_on,41,54,0
3,note_on,32,45,0
3,note_on,36,45,0
3,note_on,36,0,30
3,note_on,32,0,0
3,note_on,41,0,0
3,note_on,44,54,0
3,note_on,44,0,28
3,note_on,42,40,242
3,note_on,39,40,0
3,note_on,33,34,0
3,note_on,36,34,0
3,note_on,36,0,30
3,note_on,33,0,0
3,note_on,39,0,0
3,note_on,45,41,0
3,note_on,45,0,30
3,note_on,42,0,0
3,note_on,42,42,0
3,note_on,39,42,0
3,note_on,33,35,0
3,note_on,36,35,0
3,note_on,36,0,30
3,note_on,33,0,0
3,note_on,39,0,0
3,note_on,45,43,0
3,note_on,45,0,30
3,note_on,42,0,0
3,note_on,42,44,0
3,note_on,39,44,0
3,note_on,33,36,0
3,note_on,36,36,0
3,note_on,36,0,30
3,note_on,33,0,0
3,note_on,39,0,0
3,note_on,45,45,0
3,note_on,45,0,30
3,note_on,42,0,0
3,note_on,42,45,0
3,note_on,39,45,0
3,note_on,33,38,0
3,note_on,36,38,0
3,note_on,36,0,30
3,note_on,33,0,0
3,note_on,39,0,0
3,note_on,45,46,0
3,note_on,45,0,30
3,note_on,42,0,0
3,note_on,42,47,0
3,note_on,39,47,0
3,note_on,33,40,0
3,note_on,36,40,0
3,note_on,36,0,30
3,note_on,33,0,0
3,note_on,39,0,0
3,note_on,45,48,0
3,note_on,45,0,30
3,note_on,42,0,0
3,note_on,42,48,0
3,note_on,39,48,0
3,note_on,33,40,0
3,note_on,36,40,0
3,note_on,36,0,30
3,note_on,33,0,0
3,note_on,39,0,0
3,note_on,45,49,0
3,note_on,45,0,30
3,note_on,42,0,0
3,note_on,42,50,0
3,note_on,39,50,0
3,note_on,33,42,0
3,note_on,36,42,0
3,note_on,36,0,30
3,note_on,33,0,0
3,note_on,39,0,0
3,note_on,45,51,0
3,note_on,45,0,30
3,note_on,42,0,0
3,note_on,42,52,0
3,note_on,39,52,0
3,note_on,33,44,0
3,note_on,36,44,0
3,note_on,36,0,30
3,note_on,33,0,0
3,note_on,39,0,0
3,note_on,45,53,0
3,note_on,45,0,30
3,note_on,42,0,0
3,note_on,42,54,0
3,note_on,39,54,0
3,note_on,33,45,0
3,note_on,36,45,0
3,note_on,36,0,30
3,note_on,33,0,0
3,note_on,39,0,0
3,note_on,45,54,0
3,note_on,45,0,30
3,note_on,42,0,0
3,note_on,42,55,0
3,note_on,39,55,0
3,note_on,33,46,0
3,note_on,36,46,0
3,note_on,36,0,30
3,note_on,33,0,0
3,note_on,39,0,0
3,note_on,45,56,0
3,note_on,45,0,30
3,note_on,42,0,0
3,note_on,42,57,0
3,note_on,39,57,0
3,note_on,33,48,0
3,note_on,36,48,0
3,note_on,36,0,30
3,note_on,33,0,0
3,note_on,39,0,0
3,note_on,45,58,0
3,note_on,45,0,30
3,note_on,42,0,0
3,note_on,42,59,0
3,note_on,39,59,0
3,note_on,33,50,0
3,note_on,36,50,0
3,note_on,36,0,30
3,note_on,33,0,0
3,note_on,39,0,0
3,note_on,45,59,0
3,note_on,45,0,30
3,note_on,42,0,0
3,note_on,43,41,240
3,note_on,34,35,0
3,note_on,38,35,0
3,note_on,38,0,30
3,note_on,34,0,0
3,note_on,43,0,0
3,note_on,46,42,0
3,note_on,46,0,30
3,note_on,43,42,0
3,note_on,34,35,0
3,note_on,38,35,0
3,note_on,38,0,30
3,note_on,34,0,0
3,note_on,43,0,0
3,note_on,46,43,0
3,note_on,46,0,30
3,note_on,43,44,0
3,note_on,34,36,0
3,note_on,38,36,0
3,note_on,38,0,30
3,note_on,34,0,0
3,note_on,43,0,0
3,note_on,46,45,0
3,note_on,46,0,30
3,note_on,43,45,0
3,note_on,34,37,0
3,note_on,38,37,0
3,note_on,38,0,30
3,note_on,34,0,0
3,note_on,43,0,0
3,note_on,46,45,0
3,note_on,46,0,30
3,note_on,43,46,0
3,note_on,34,39,0
3,note_on,38,39,0
3,note_on,38,0,30
3,note_on,34,0,0
3,note_on,43,0,0
3,note_on,46,47,0
3,note_on,46,0,30
3,note_on,43,47,0
3,note_on,34,40,0
3,note_on,38,40,0
3,note_on,38,0,30
3,note_on,34,0,0
3,note_on,43,0,0
3,note_on,46,48,0
3,note_on,46,0,30
3,note_on,43,49,0
3,note_on,34,41,0
3,note_on,38,41,0
3,note_on,38,0,30
3,note_on,34,0,0
3,note_on,43,0,0
3,note_on,46,50,0
3,note_on,46,0,30
3,note_on,43,50,0
3,note_on,34,42,0
3,note_on,38,42,0
3,note_on,38,0,30
3,note_on,34,0,0
3,note_on,43,0,0
3,note_on,46,51,0
3,note_on,46,0,30
3,note_on,43,52,0
3,note_on,34,44,0
3,note_on,38,44,0
3,note_on,38,0,30
3,note_on,34,0,0
3,note_on,43,0,0
3,note_on,46,53,0
3,note_on,46,0,30
3,note_on,43,53,0
3,note_on,34,45,0
3,note_on,38,45,0
3,note_on,38,0,30
3,note_on,34,0,0
3,note_on,43,0,0
3,note_on,46,54,0
3,note_on,46,0,30
3,note_on,43,54,0
3,note_on,34,45,0
3,note_on,38,45,0
3,note_on,38,0,30
3,note_on,34,0,0
3,note_on,43,0,0
3,note_on,46,55,0
3,note_on,46,0,30
3,note_on,43,55,0
3,note_on,34,46,0
3,note_on,38,46,0
3,note_on,38,0,30
3,note_on,34,0,0
3,note_on,43,0,0
3,note_on,46,56,0
3,note_on,46,0,30
3,note_on,51,18,11520
3,note_on,51,0,30
3,note_on,60,18,0
3,note_on,57,15,0
3,note_on,57,0,30
3,note_on,60,0,0
3,note_on,51,18,0
3,note_on,51,0,30
3,note_on,60,19,0
3,note_on,57,16,0
3,note_on,57,0,30
3,note_on,60,0,0
3,note_on,51,19,0
3,note_on,51,0,30
3,note_on,60,19,0
3,note_on,57,16,0
3,note_on,57,0,30
3,note_on,60,0,0
3,note_on,51,20,0
3,note_on,51,0,30
3,note_on,60,20,0
3,note_on,57,17,0
3,note_on,57,0,30
3,note_on,60,0,0
3,note_on,51,20,0
3,note_on,51,0,30
3,note_on,60,21,0
3,note_on,57,18,0
3,note_on,57,0,30
3,note_on,60,0,0
3,note_on,51,21,0
3,note_on,51,0,30
3,note_on,60,21,0
3,note_on,57,18,0
3,note_on,57,0,30
3,note_on,60,0,0
3,note_on,51,22,0
3,note_on,51,0,30
3,note_on,60,22,0
3,note_on,57,18,0
3,note_on,57,0,30
3,note_on,60,0,0
3,note_on,51,22,0
3,note_on,51,0,30
3,note_on,60,22,0
3,note_on,57,18,0
3,note_on,57,0,30
3,note_on,60,0,0
3,note_on,51,23,0
3,note_on,51,0,30
3,note_on,60,23,0
3,note_on,57,19,0
3,note_on,57,0,30
3,note_on,60,0,0
3,note_on,51,23,0
3,note_on,51,0,30
3,note_on,60,24,0
3,note_on,57,19,0
3,note_on,57,0,30
3,note_on,60,0,0
3,note_on,51,24,0
3,note_on,51,0,30
3,note_on,60,24,0
3,note_on,57,19,0
3,note_on,57,0,30
3,note_on,60,0,0
3,note_on,51,25,0
3,note_on,51,0,30
3,note_on,60,25,0
3,note_on,57,20,0
3,note_on,57,0,30
3,note_on,60,0,0
3,note_on,51,25,0
3,note_on,51,0,30
3,note_on,60,26,0
3,note_on,57,21,0
3,note_on,57,0,30
3,note_on,60,0,0
3,note_on,51,26,0
3,note_on,51,0,30
3,note_on,60,26,0
3,note_on,57,21,0
3,note_on,57,0,30
3,note_on,60,0,0
3,note_on,51,27,0
3,note_on,51,0,30
3,note_on,60,27,0
3,note_on,57,22,0
3,note_on,57,0,30
3,note_on,60,0,0
3,note_on,51,27,0
3,note_on,51,0,30
3,note_on,60,27,0
3,note_on,57,22,0
3,note_on,57,0,30
3,note_on,60,0,0
3,note_on,51,27,0
3,note_on,51,0,30
3,note_on,60,27,0
3,note_on,57,23,0
3,note_on,57,0,30
3,note_on,60,0,0
3,note_on,51,27,0
3,note_on,51,0,30
3,note_on,60,28,0
3,note_on,57,24,0
3,note_on,57,0,30
3,note_on,60,0,0
3,note_on,51,28,0
3,note_on,51,0,30
3,note_on,60,28,0
3,note_on,57,24,0
3,note_on,57,0,30
3,note_on,60,0,0
3,note_on,51,29,0
3,note_on,51,0,30
3,note_on,60,29,0
3,note_on,57,25,0
3,note_on,57,0,30
3,note_on,60,0,0
3,note_on,51,29,0
3,note_on,51,0,30
3,note_on,60,30,0
3,note_on,57,25,0
3,note_on,57,0,30
3,note_on,60,0,0
3,note_on,51,30,0
3,note_on,51,0,30
3,note_on,60,30,0
3,note_on,57,25,0
3,note_on,57,0,30
3,note_on,60,0,0
3,note_on,51,31,0
3,note_on,51,0,30
3,note_on,60,31,0
3,note_on,57,26,0
3,note_on,57,0,30
3,note_on,60,0,0
3,note_on,51,31,0
3,note_on,51,0,30
3,note_on,60,32,0
3,note_on,57,27,0
3,note_on,57,0,30
3,note_on,60,0,0
3,note_on,51,32,0
3,note_on,51,0,30
3,note_on,60,32,0
3,note_on,57,27,0
3,note_on,57,0,30
3,note_on,60,0,0
3,note_on,51,32,0
3,note_on,51,0,30
3,note_on,60,33,0
3,note_on,57,27,0
3,note_on,57,0,30
3,note_on,60,0,0
3,note_on,51,33,0
3,note_on,51,0,30
3,note_on,60,33,0
3,note_on,57,27,0
3,note_on,57,0,30
3,note_on,60,0,0
3,note_on,51,34,0
3,note_on,51,0,30
3,note_on,60,34,0
3,note_on,57,28,0
3,note_on,57,0,30
3,note_on,60,0,0
3,note_on,51,34,0
3,note_on,51,0,30
3,note_on,60,35,0
3,note_on,57,29,0
3,note_on,57,0,30
3,note_on,60,0,0
3,note_on,51,35,0
3,note_on,51,0,30
3,note_on,60,35,0
3,note_on,57,29,0
3,note_on,57,0,30
3,note_on,60,0,0
3,note_on,51,36,0
3,note_on,51,0,30
3,note_on,60,36,0
3,note_on,57,30,0
3,note_on,57,0,30
3,note_on,60,0,0
3,note_on,51,36,0
3,note_on,51,0,30
3,note_on,60,36,0
3,note_on,57,30,0
3,note_on,57,0,30
3,note_on,60,0,0
3,note_on,50,37,0
3,note_on,50,0,30
3,note_on,60,37,0
3,note_on,55,31,0
3,note_on,55,0,30
3,note_on,60,0,0
3,note_on,50,37,0
3,note_on,50,0,30
3,note_on,60,37,0
3,note_on,55,31,0
3,note_on,55,0,30
3,note_on,60,0,0
3,note_on,50,37,0
3,note_on,50,0,30
3,note_on,60,36,0
3,note_on,55,30,0
3,note_on,55,0,30
3,note_on,60,0,0
3,note_on,50,36,0
3,note_on,50,0,30
3,note_on,60,36,0
3,note_on,55,30,0
3,note_on,55,0,30
3,note_on,60,0,0
3,note_on,50,36,0
3,note_on,50,0,30
3,note_on,60,36,0
3,note_on,55,30,0
3,note_on,55,0,30
3,note_on,60,0,0
3,note_on,50,36,0
3,note_on,50,0,30
3,note_on,60,36,0
3,note_on,55,30,0
3,note_on,55,0,30
3,note_on,60,0,0
3,note_on,50,36,0
3,note_on,50,0,30
3,note_on,60,35,0
3,note_on,55,29,0
3,note_on,55,0,30
3,note_on,60,0,0
3,note_on,50,35,0
3,note_on,50,0,30
3,note_on,60,35,0
3,note_on,55,29,0
3,note_on,55,0,30
3,note_on,60,0,0
3,note_on,50,35,0
3,note_on,50,0,30
3,note_on,60,34,0
3,note_on,55,28,0
3,note_on,55,0,30
3,note_on,60,0,0
3,note_on,50,34,0
3,note_on,50,0,30
3,note_on,60,34,0
3,note_on,55,28,0
3,note_on,55,0,30
3,note_on,60,0,0
3,note_on,50,34,0
3,note_on,50,0,30
3,note_on,60,33,0
3,note_on,55,27,0
3,note_on,55,0,30
3,note_on,60,0,0
3,note_on,50,33,0
3,note_on,50,0,30
3,note_on,60,33,0
3,note_on,55,27,0
3,note_on,55,0,30
3,note_on,60,0,0
3,note_on,50,33,0
3,note_on,50,0,30
3,note_on,60,32,0
3,note_on,55,27,0
3,note_on,55,0,30
3,note_on,60,0,0
3,note_on,50,32,0
3,note_on,50,0,30
3,note_on,60,32,0
3,note_on,55,27,0
3,note_on,55,0,30
3,note_on,60,0,0
3,note_on,50,32,0
3,note_on,50,0,30
3,note_on,60,31,0
3,note_on,55,26,0
3,note_on,55,0,30
3,note_on,60,0,0
3,note_on,50,31,0
3,note_on,50,0,30
3,note_on,60,31,0
3,note_on,55,26,0
3,note_on,55,0,30
3,note_on,60,0,0
3,note_on,50,31,0
3,note_on,50,0,30
3,note_on,59,30,0
3,note_on,55,25,0
3,note_on,55,0,30
3,note_on,59,0,0
3,note_on,50,30,0
3,note_on,50,0,30
3,note_on,59,30,0
3,note_on,55,25,0
3,note_on,55,0,30
3,note_on,59,0,0
3,note_on,50,30,0
3,note_on,50,0,30
3,note_on,59,29,0
3,note_on,55,25,0
3,note_on,55,0,30
3,note_on,59,0,0
3,note_on,50,29,0
3,note_on,50,0,30
3,note_on,59,29,0
3,note_on,55,25,0
3,note_on,55,0,30
3,note_on,59,0,0
3,note_on,50,29,0
3,note_on,50,0,30
3,note_on,59,28,0
3,note_on,55,24,0
3,note_on,55,0,30
3,note_on,59,0,0
3,note_on,50,28,0
3,note_on,50,0,30
3,note_on,59,28,0
3,note_on,55,24,0
3,note_on,55,0,30
3,note_on,59,0,0
3,note_on,50,28,0
3,note_on,50,0,30
3,note_on,55,27,0
3,note_on,59,27,0
3,note_on,59,0,30
3,note_on,55,0,0
3,note_on,50,27,0
3,note_on,50,0,30
3,note_on,59,27,0
3,note_on,55,23,0
3,note_on,55,0,30
3,note_on,59,0,0
3,note_on,47,18,4320
3,note_on,47,0,30
3,note_on,53,18,0
3,note_on,50,15,0
3,note_on,50,0,30
3,note_on,53,0,0
3,note_on,47,18,0
3,note_on,47,0,30
3,note_on,53,19,0
3,note_on,50,16,0
3,note_on,50,0,30
3,note_on,53,0,0
3,note_on,47,19,0
3,note_on,47,0,30
3,note_on,53,19,0
3,note_on,50,16,0
3,note_on,50,0,30
3,note_on,53,0,0
3,note_on,47,20,0
3,note_on,47,0,30
3,note_on,53,20,0
3,note_on,50,17,0
3,note_on,50,0,30
3,note_on,53,0,0
3,note_on,47,20,0
3,note_on,47,0,30
3,note_on,53,21,0
3,note_on,50,18,0
3,note_on,50,0,30
3,note_on,53,0,0
3,note_on,47,21,0
3,note_on,47,0,30
3,note_on,53,21,0
3,note_on,50,18,0
3,note_on,50,0,30
3,note_on,53,0,0
3,note_on,47,22,0
3,note_on,47,0,30
3,note_on,53,22,0
3,note_on,50,18,0
3,note_on,50,0,30
3,note_on,53,0,0
3,note_on,47,22,0
3,note_on,47,0,30
3,note_on,53,22,0
3,note_on,50,18,0
3,note_on,50,0,30
3,note_on,53,0,0
3,note_on,47,23,0
3,note_on,47,0,30
3,note_on,53,23,0
3,note_on,50,19,0
3,note_on,50,0,30
3,note_on,53,0,0
3,note_on,47,23,0
3,note_on,47,0,30
3,note_on,53,24,0
3,note_on,50,19,0
3,note_on,50,0,30
3,note_on,53,0,0
3,note_on,47,24,0
3,note_on,47,0,30
3,note_on,53,24,0
3,note_on,50,19,0
3,note_on,50,0,30
3,note_on,53,0,0
3,note_on,47,25,0
3,note_on,47,0,30
3,note_on,53,25,0
3,note_on,50,20,0
3,note_on,50,0,30
3,note_on,53,0,0
3,note_on,47,25,0
3,note_on,47,0,30
3,note_on,53,26,0
3,note_on,50,21,0
3,note_on,50,0,30
3,note_on,53,0,0
3,note_on,47,26,0
3,note_on,47,0,30
3,note_on,53,26,0
3,note_on,50,21,0
3,note_on,50,0,30
3,note_on,53,0,0
3,note_on,47,27,0
3,note_on,47,0,30
3,note_on,53,27,0
3,note_on,50,22,0
3,note_on,50,0,30
3,note_on,53,0,0
3,note_on,47,27,0
3,note_on,47,0,30
3,note_on,53,27,0
3,note_on,50,22,0
3,note_on,50,0,30
3,note_on,53,0,0
3,note_on,52,27,0
3,note_on,52,0,30
3,note_on,59,27,0
3,note_on,56,23,0
3,note_on,56,0,30
3,note_on,59,0,0
3,note_on,52,27,0
3,note_on,52,0,30
3,note_on,59,28,0
3,note_on,56,24,0
3,note_on,56,0,30
3,note_on,59,0,0
3,note_on,52,28,0
3,note_on,52,0,30
3,note_on,59,28,0
3,note_on,56,24,0
3,note_on,56,0,30
3,note_on,59,0,0
3,note_on,52,29,0
3,note_on,52,0,30
3,note_on,59,29,0
3,note_on,56,25,0
3,note_on,56,0,30
3,note_on,59,0,0
3,note_on,52,29,0
3,note_on,52,0,30
3,note_on,59,30,0
3,note_on,56,25,0
3,note_on,56,0,30
3,note_on,59,0,0
3,note_on,52,30,0
3,note_on,52,0,30
3,note_on,59,30,0
3,note_on,56,25,0
3,note_on,56,0,30
3,note_on,59,0,0
3,note_on,52,31,0
3,note_on,52,0,30
3,note_on,59,31,0
3,note_on,56,26,0
3,note_on,56,0,30
3,note_on,59,0,0
3,note_on,52,31,0
3,note_on,52,0,30
3,note_on,59,32,0
3,note_on,56,27,0
3,note_on,56,0,30
3,note_on,59,0,0
3,note_on,52,32,0
3,note_on,52,0,30
3,note_on,59,32,0
3,note_on,56,27,0
3,note_on,56,0,30
3,note_on,59,0,0
3,note_on,52,32,0
3,note_on,52,0,30
3,note_on,59,33,0
3,note_on,56,27,0
3,note_on,56,0,30
3,note_on,59,0,0
3,note_on,52,33,0
3,note_on,52,0,30
3,note_on,59,33,0
3,note_on,56,27,0
3,note_on,56,0,30
3,note_on,59,0,0
3,note_on,52,34,0
3,note_on,52,0,30
3,note_on,59,34,0
3,note_on,56,28,0
3,note_on,56,0,30
3,note_on,59,0,0
3,note_on,52,34,0
3,note_on,52,0,30
3,note_on,59,35,0
3,note_on,56,29,0
3,note_on,56,0,30
3,note_on,59,0,0
3,note_on,52,35,0
3,note_on,52,0,30
3,note_on,59,35,0
3,note_on,56,29,0
3,note_on,56,0,30
3,note_on,59,0,0
3,note_on,52,36,0
3,note_on,52,0,30
3,note_on,59,36,0
3,note_on,56,30,0
3,note_on,56,0,30
3,note_on,59,0,0
3,note_on,52,36,0
3,note_on,52,0,30
3,note_on,59,36,0
3,note_on,56,30,0
3,note_on,56,0,30
3,note_on,59,0,0
3,note_on,48,37,0
3,note_on,48,0,30
3,note_on,52,37,0
3,note_on,52,0,30
3,note_on,48,37,0
3,note_on,48,0,30
3,note_on,52,37,0
3,note_on,52,0,30
3,note_on,48,37,0
3,note_on,48,0,30
3,note_on,52,36,0
3,note_on,52,0,30
3,note_on,48,36,0
3,note_on,48,0,30
3,note_on,52,36,0
3,note_on,52,0,30
3,note_on,48,36,0
3,note_on,48,0,30
3,note_on,52,36,0
3,note_on,52,0,30
3,note_on,48,36,0
3,note_on,48,0,30
3,note_on,52,36,0
3,note_on,52,0,30
3,note_on,48,36,0
3,note_on,48,0,30
3,note_on,52,35,0
3,note_on,52,0,30
3,note_on,48,35,0
3,note_on,48,0,30
3,note_on,52,35,0
3,note_on,52,0,30
3,note_on,48,35,0
3,note_on,48,0,30
3,note_on,52,34,0
3,note_on,52,0,30
3,note_on,48,34,0
3,note_on,48,0,30
3,note_on,52,34,0
3,note_on,52,0,30
3,note_on,48,34,0
3,note_on,48,0,30
3,note_on,52,33,0
3,note_on,52,0,30
3,note_on,48,33,0
3,note_on,48,0,30
3,note_on,52,33,0
3,note_on,52,0,30
3,note_on,48,33,0
3,note_on,48,0,30
3,note_on,52,32,0
3,note_on,52,0,30
3,note_on,48,32,0
3,note_on,48,0,30
3,note_on,52,32,0
3,note_on,52,0,30
3,note_on,48,32,0
3,note_on,48,0,30
3,note_on,52,31,0
3,note_on,52,0,30
3,note_on,48,31,0
3,note_on,48,0,30
3,note_on,52,31,0
3,note_on,52,0,30
3,note_on,48,31,0
3,note_on,48,0,30
3,note_on,52,30,0
3,note_on,52,0,30
3,note_on,48,30,0
3,note_on,48,0,30
3,note_on,52,30,0
3,note_on,52,0,30
3,note_on,48,30,0
3,note_on,48,0,30
3,note_on,52,29,0
3,note_on,52,0,30
3,note_on,48,29,0
3,note_on,48,0,30
3,note_on,52,29,0
3,note_on,52,0,30
3,note_on,48,29,0
3,note_on,48,0,30
3,note_on,52,28,0
3,note_on,52,0,30
3,note_on,48,28,0
3,note_on,48,0,30
3,note_on,52,28,0
3,note_on,52,0,30
3,note_on,48,28,0
3,note_on,48,0,30
3,note_on,52,27,0
3,note_on,52,0,30
3,note_on,48,27,0
3,note_on,48,0,30
3,note_on,52,27,0
3,note_on,52,0,30
3,note_on,48,31,0
3,note_on,48,0,30
3,note_on,52,30,0
3,note_on,52,0,30
3,note_on,48,30,0
3,note_on,48,0,30
3,note_on,52,30,0
3,note_on,52,0,30
3,note_on,48,30,0
3,note_on,48,0,30
3,note_on,52,29,0
3,note_on,52,0,30
3,note_on,48,29,0
3,note_on,48,0,30
3,note_on,52,29,0
3,note_on,52,0,30
3,note_on,48,29,0
3,note_on,48,0,30
3,note_on,52,28,0
3,note_on,52,0,30
3,note_on,48,28,0
3,note_on,48,0,30
3,note_on,52,28,0
3,note_on,52,0,30
3,note_on,48,28,0
3,note_on,48,0,30
3,note_on,52,27,0
3,note_on,52,0,30
3,note_on,48,27,0
3,note_on,48,0,30
3,note_on,52,27,0
3,note_on,52,0,30
3,note_on,99,66,663120
3,note_on,99,0,80
3,note_on,101,58,0
3,note_on,101,0,80
3,note_on,99,66,0
3,note_on,99,0,80
3,note_on,101,58,0
3,note_on,101,0,80
3,note_on,99,66,0
3,note_on,99,0,80
3,note_on,101,57,0
3,note_on,101,0,80
3,note_on,99,66,0
3,note_on,99,0,80
3,note_on,101,58,0
3,note_on,101,0,80
3,note_on,99,66,0
3,note_on,99,0,80
3,note_on,101,58,0
3,note_on,101,0,80
3,note_on,99,66,0
3,note_on,99,0,80
3,note_on,101,58,0
3,note_on,101,0,80
3,note_on,99,66,0
3,note_on,99,0,80
3,note_on,101,58,0
3,note_on,101,0,80
3,note_on,99,66,0
3,note_on,99,0,80
3,note_on,101,58,0
3,note_on,101,0,80
3,note_on,99,66,0
3,note_on,99,0,80
3,note_on,101,59,0
3,note_on,101,0,80
3,note_on,99,66,0
3,note_on,99,0,80
3,note_on,101,59,0
3,note_on,101,0,80
3,note_on,99,66,0
3,note_on,99,0,80
3,note_on,101,59,0
3,note_on,101,0,80
3,note_on,99,66,0
3,note_on,99,0,80
3,note_on,101,59,0
3,note_on,101,0,80
3,note_on,99,66,0
3,note_on,99,0,80
3,note_on,101,58,0
3,note_on,101,0,80
3,note_on,99,66,0
3,note_on,99,0,80
3,note_on,101,59,0
3,note_on,101,0,80
3,note_on,99,66,0
3,note_on,99,0,80
3,note_on,101,59,0
3,note_on,101,0,80
3,note_on,99,66,0
3,note_on,99,0,80
3,note_on,101,59,0
3,note_on,101,0,80
3,note_on,99,66,0
3,note_on,99,0,80
3,note_on,101,59,0
3,note_on,101,0,80
3,note_on,99,66,0
3,note_on,99,0,80
3,note_on,101,59,0
3,note_on,101,0,80
3,note_on,99,65,0
3,note_on,99,0,80
3,note_on,101,68,0
3,note_on,101,0,80
3,note_on,99,70,0
3,note_on,99,0,80
3,note_on,101,73,0
3,note_on,101,0,80
3,note_on,99,75,0
3,note_on,99,0,80
3,note_on,101,78,0
3,note_on,101,0,80
3,note_on,99,76,0
3,note_on,99,0,80
3,note_on,101,75,0
3,note_on,101,0,80
3,note_on,99,79,0
3,note_on,99,0,80
3,note_on,98,76,0
3,note_on,98,0,120
3,note_on,99,76,0
3,note_on,99,0,120
3,note_on,58,80,81840
3,note_on,58,0,144
3,note_on,58,67,16
3,note_on,58,0,144
3,note_on,58,67,16
3,note_on,58,0,144
3,note_on,58,74,16
3,note_on,58,0,144
3,note_on,58,70,16
3,note_on,58,0,144
3,note_on,58,70,16
3,note_on,58,0,144
3,note_on,58,75,16
3,note_on,58,0,144
3,note_on,58,70,16
3,note_on,58,0,144
3,note_on,58,70,16
3,note_on,58,0,144
3,note_on,58,74,16
3,note_on,58,0,144
3,note_on,58,70,16
3,note_on,58,0,144
3,note_on,58,70,16
3,note_on,58,0,144
3,note_on,58,74,16
3,note_on,58,0,144
3,note_on,58,67,16
3,note_on,58,0,144
3,note_on,58,67,16
3,note_on,58,0,144
3,note_on,58,74,16
3,note_on,58,0,144
3,note_on,58,70,16
3,note_on,58,0,144
3,note_on,58,70,16
3,note_on,58,0,144
3,note_on,58,75,16
3,note_on,58,0,144
3,note_on,58,70,16
3,note_on,58,0,144
3,note_on,58,70,16
3,note_on,58,0,144
3,note_on,58,74,16
3,note_on,58,0,144
3,note_on,58,70,16
3,note_on,58,0,144
3,note_on,58,70,16
3,note_on,58,0,144
3,note_on,58,74,16
3,note_on,58,0,144
3,note_on,58,67,16
3,note_on,58,0,144
3,note_on,58,67,16
3,note_on,58,0,144
3,note_on,58,74,16
3,note_on,58,0,144
3,note_on,58,70,16
3,note_on,58,0,144
3,note_on,58,70,16
3,note_on,58,0,144
3,note_on,58,75,16
3,note_on,58,0,144
3,note_on,58,70,16
3,note_on,58,0,144
3,note_on,58,70,16
3,note_on,58,0,144
3,note_on,58,74,16
3,note_on,58,0,144
3,note_on,58,70,16
3,note_on,58,0,144
3,note_on,58,70,16
3,note_on,58,0,144
3,note_on,58,74,16
3,note_on,58,0,144
3,note_on,58,67,16
3,note_on,58,0,144
3,note_on,58,67,16
3,note_on,58,0,144
3,note_on,58,74,16
3,note_on,58,0,144
3,note_on,58,70,16
3,note_on,58,0,144
3,note_on,58,70,16
3,note_on,58,0,144
3,note_on,58,75,16
3,note_on,58,0,144
3,note_on,58,70,16
3,note_on,58,0,144
3,note_on,58,70,16
3,note_on,58,0,144
3,note_on,58,74,16
3,note_on,58,0,144
3,note_on,58,70,16
3,note_on,58,0,144
3,note_on,58,70,16
3,note_on,58,0,144
4,note_on,46,79,106
4,note_on,46,0,66
4,note_on,46,66,16
4,note_on,46,0,144
4,note_on,46,64,16
4,note_on,46,0,144
4,note_on,46,70,16
4,note_on,46,0,144
4,note_on,46,66,16
4,note_on,46,0,144
4,note_on,46,66,16
4,note_on,46,0,144
4,note_on,46,71,16
4,note_on,46,0,144
4,note_on,46,66,16
4,note_on,46,0,144
4,note_on,46,66,16
4,note_on,46,0,144
4,note_on,46,71,16
4,note_on,46,0,10
4,note_on,46,67,16
4,note_on,46,0,144
4,note_on,46,67,16
4,note_on,46,0,144
4,note_on,46,71,0
4,note_on,46,0,24
4,note_on,46,66,16
4,note_on,46,0,144
4,note_on,46,64,16
4,note_on,46,0,144
4,note_on,46,70,16
4,note_on,46,0,144
4,note_on,46,66,16
4,note_on,46,0,144
4,note_on,46,66,16
4,note_on,46,0,144
4,note_on,46,71,16
4,note_on,46,0,144
4,note_on,46,66,16
4,note_on,46,0,144
4,note_on,46,66,16
4,note_on,46,0,144
4,note_on,46,71,16
4,note_on,46,0,52
4,note_on,46,67,16
4,note_on,46,0,144
4,note_on,46,67,16
4,note_on,46,0,144
4,note_on,46,71,16
4,note_on,46,0,38
4,note_on,46,66,16
4,note_on,46,0,144
4,note_on,46,64,16
4,note_on,46,0,144
4,note_on,46,70,16
4,note_on,46,0,144
4,note_on,46,66,16
4,note_on,46,0,144
4,note_on,46,66,16
4,note_on,46,0,144
4,note_on,46,71,16
4,note_on,46,0,144
4,note_on,46,66,16
4,note_on,46,0,144
4,note_on,46,66,16
4,note_on,46,0,144
4,note_on,46,71,16
4,note_on,46,0,3
4,note_on,46,67,16
4,note_on,46,0,144
4,note_on,46,67,16
4,note_on,46,0,144
4,note_on,46,71,0
4,note_on,46,0,73
4,note_on,46,66,16
4,note_on,46,0,144
4,note_on,46,64,16
4,note_on,46,0,144
4,note_on,46,70,16
4,note_on,46,0,144
4,note_on,46,66,16
4,note_on,46,0,144
4,note_on,46,66,16
4,note_on,46,0,144
4,note_on,46,71,16
4,note_on,46,0,59
4,note_on,46,66,16
4,note_on,46,0,144
4,note_on,46,66,16
4,note_on,46,0,144
4,note_on,46,71,16
4,note_on,46,0,129
4,note_on,46,67,4
4,note_on,46,0,144
4,note_on,46,67,16
4,note_on,46,0,144
