Track,Message Type,Note,Velocity,Time
1,note_on,65,64,16262
1,note_on,77,64,0
1,note_on,77,0,120
1,note_on,65,0,0
1,note_on,68,65,120
1,note_on,80,65,0
1,note_on,80,0,120
1,note_on,68,0,0
1,note_on,81,66,120
1,note_on,69,66,0
1,note_on,69,0,120
1,note_on,81,0,0
1,note_on,82,67,120
1,note_on,70,67,0
1,note_on,70,0,120
1,note_on,82,0,0
1,note_on,85,68,120
1,note_on,73,68,0
1,note_on,73,0,120
1,note_on,85,0,0
1,note_on,74,69,120
1,note_on,86,69,0
1,note_on,86,0,120
1,note_on,74,0,0
1,note_on,87,71,120
1,note_on,75,71,0
1,note_on,75,0,120
1,note_on,87,0,0
1,note_on,88,72,120
1,note_on,76,72,0
1,note_on,76,0,120
1,note_on,88,0,0
1,note_on,89,73,120
1,note_on,77,73,0
1,note_on,77,0,120
1,note_on,89,0,0
1,note_on,92,74,120
1,note_on,80,74,0
1,note_on,80,0,120
1,note_on,92,0,0
1,note_on,93,75,120
1,note_on,81,75,0
1,note_on,81,0,120
1,note_on,93,0,0
1,note_on,94,76,120
1,note_on,82,76,0
1,note_on,82,0,120
1,note_on,94,0,0
1,note_on,97,77,120
1,note_on,85,77,0
1,note_on,85,0,120
1,note_on,97,0,0
1,note_on,86,78,120
1,note_on,98,78,0
1,note_on,98,0,120
1,note_on,86,0,0
1,note_on,87,80,120
1,note_on,99,80,0
1,note_on,99,0,120
1,note_on,87,0,0
1,note_on,88,81,120
1,note_on,100,81,0
1,note_on,100,0,120
1,note_on,88,0,0
1,note_on,89,82,120
1,note_on,101,82,0
1,note_on,101,0,120
1,note_on,89,0,0
1,note_on,68,82,2160
1,note_on,56,69,0
1,note_on,59,69,0
1,note_on,62,69,0
1,note_on,62,0,240
1,note_on,68,0,0
1,note_on,56,0,0
1,note_on,59,0,0
1,note_on,69,90,240
1,note_on,57,76,0
1,note_on,60,76,0
1,note_on,60,0,240
1,note_on,57,0,0
1,note_on,69,0,0
1,note_on,68,83,240
1,note_on,56,70,0
1,note_on,56,0,120
1,note_on,68,0,0
1,note_on,71,76,120
1,note_on,59,64,0
1,note_on,59,0,120
1,note_on,71,0,0
1,note_on,69,84,120
1,note_on,57,71,0
1,note_on,61,71,0
1,note_on,61,0,240
1,note_on,57,0,0
1,note_on,69,0,0
1,note_on,68,81,240
1,note_on,56,68,0
1,note_on,56,0,240
1,note_on,68,0,0
1,note_on,71,75,0
1,note_on,59,63,0
1,note_on,59,0,120
1,note_on,71,0,0
1,note_on,63,71,120
1,note_on,69,84,0
1,note_on,57,71,0
1,note_on,57,0,120
1,note_on,69,0,0
1,note_on,63,0,0
1,note_on,68,75,360
1,note_on,56,63,0
1,note_on,56,0,120
1,note_on,68,0,0
1,note_on,63,70,360
1,note_on,69,83,0
1,note_on,57,70,0
1,note_on,57,0,960
1,note_on,69,0,0
1,note_on,63,0,0
1,note_on,66,70,0
1,note_on,69,70,0
1,note_on,57,59,0
1,note_on,61,59,0
1,note_on,61,0,240
1,note_on,66,0,0
1,note_on,69,0,0
1,note_on,57,0,0
1,note_on,68,65,0
1,note_on,56,55,0
1,note_on,56,0,240
1,note_on,68,0,0
1,note_on,69,71,0
1,note_on,57,60,0
1,note_on,57,0,240
1,note_on,69,0,0
1,note_on,71,77,0
1,note_on,59,65,0
1,note_on,59,0,240
1,note_on,71,0,0
1,note_on,72,81,0
1,note_on,60,68,0
1,note_on,63,68,0
1,note_on,66,68,0
1,note_on,66,0,960
1,note_on,72,0,0
1,note_on,60,0,0
1,note_on,63,0,0
1,note_on,72,75,0
1,note_on,60,63,0
1,note_on,63,63,0
1,note_on,63,0,240
1,note_on,60,0,0
1,note_on,72,0,0
1,note_on,71,72,0
1,note_on,59,61,0
1,note_on,59,0,240
1,note_on,71,0,0
1,note_on,69,73,0
1,note_on,57,62,0
1,note_on,57,0,240
1,note_on,69,0,0
1,note_on,68,75,0
1,note_on,56,63,0
1,note_on,56,0,240
1,note_on,68,0,0
1,note_on,69,83,0
1,note_on,63,70,0
1,note_on,57,70,0
1,note_on,57,0,720
1,note_on,63,0,0
1,note_on,69,0,0
1,note_on,72,71,0
1,note_on,60,59,0
1,note_on,60,0,120
1,note_on,72,0,0
1,note_on,71,85,120
1,note_on,59,71,0
1,note_on,59,0,240
1,note_on,71,0,0
1,note_on,69,71,0
1,note_on,57,59,0
1,note_on,57,0,192
1,note_on,69,0,0
1,note_on,67,71,48
1,note_on,55,59,0
1,note_on,55,0,120
1,note_on,67,0,0
1,note_on,71,71,120
1,note_on,59,59,0
1,note_on,59,0,120
1,note_on,71,0,0
1,note_on,69,85,120
1,note_on,57,71,0
1,note_on,57,0,240
1,note_on,69,0,0
1,note_on,67,72,0
1,note_on,55,60,0
1,note_on,55,0,192
1,note_on,67,0,0
1,note_on,65,72,48
1,note_on,53,60,0
1,note_on,53,0,120
1,note_on,65,0,0
1,note_on,69,73,120
1,note_on,57,61,0
1,note_on,57,0,120
1,note_on,69,0,0
1,note_on,67,89,120
1,note_on,55,75,0
1,note_on,55,0,240
1,note_on,67,0,0
1,note_on,65,73,0
1,note_on,53,61,0
1,note_on,53,0,192
1,note_on,65,0,0
1,note_on,64,73,48
1,note_on,52,61,0
1,note_on,52,0,120
1,note_on,64,0,0
1,note_on,67,73,120
1,note_on,55,61,0
1,note_on,55,0,120
1,note_on,67,0,0
1,note_on,65,90,120
1,note_on,53,76,0
1,note_on,53,0,240
1,note_on,65,0,0
1,note_on,64,73,0
1,note_on,52,61,0
1,note_on,52,0,192
1,note_on,64,0,0
1,note_on,63,73,48
1,note_on,51,61,0
1,note_on,51,0,120
1,note_on,63,0,0
1,note_on,65,73,120
1,note_on,53,61,0
1,note_on,53,0,120
1,note_on,65,0,0
1,note_on,65,89,120
1,note_on,53,75,0
1,note_on,53,0,240
1,note_on,65,0,0
1,note_on,64,73,0
1,note_on,52,61,0
1,note_on,52,0,192
1,note_on,64,0,0
1,note_on,64,73,48
1,note_on,52,61,0
1,note_on,52,0,120
1,note_on,64,0,0
1,note_on,63,73,120
1,note_on,51,61,0
1,note_on,51,0,120
1,note_on,63,0,0
1,note_on,65,92,120
1,note_on,53,77,0
1,note_on,53,0,240
1,note_on,65,0,0
1,note_on,64,73,0
1,note_on,52,61,0
1,note_on,52,0,192
1,note_on,64,0,0
1,note_on,64,73,48
1,note_on,52,61,0
1,note_on,52,0,120
1,note_on,64,0,0
1,note_on,63,73,120
1,note_on,51,61,0
1,note_on,51,0,120
1,note_on,63,0,0
1,note_on,64,89,120
1,note_on,52,75,0
1,note_on,52,0,960
1,note_on,64,0,0
1,note_on,76,86,0
1,note_on,71,72,0
1,note_on,68,72,0
1,note_on,64,72,0
1,note_on,64,0,240
1,note_on,76,0,0
1,note_on,71,0,0
1,note_on,68,0,0
1,note_on,76,78,240
1,note_on,76,0,160
1,note_on,78,81,0
1,note_on,78,0,160
1,note_on,80,84,0
1,note_on,80,0,160
1,note_on,81,94,0
1,note_on,69,79,0
1,note_on,69,0,240
1,note_on,81,0,0
1,note_on,71,66,240
1,note_on,80,77,0
1,note_on,68,66,0
1,note_on,68,0,120
1,note_on,80,0,0
1,note_on,71,0,0
1,note_on,74,59,120
1,note_on,83,71,0
1,note_on,71,59,0
1,note_on,71,0,120
1,note_on,83,0,0
1,note_on,74,0,0
1,note_on,81,88,120
1,note_on,69,74,0
1,note_on,72,74,0
1,note_on,72,0,240
1,note_on,69,0,0
1,note_on,81,0,0
1,note_on,71,64,240
1,note_on,80,75,0
1,note_on,68,64,0
1,note_on,68,0,120
1,note_on,80,0,0
1,note_on,71,0,0
1,note_on,74,58,120
1,note_on,83,70,0
1,note_on,71,58,0
1,note_on,71,0,120
1,note_on,83,0,0
1,note_on,74,0,0
1,note_on,72,74,120
1,note_on,81,88,0
1,note_on,69,74,0
1,note_on,69,0,120
1,note_on,81,0,0
1,note_on,72,0,0
1,note_on,71,60,360
1,note_on,80,73,0
1,note_on,68,60,0
1,note_on,68,0,120
1,note_on,80,0,0
1,note_on,71,0,0
1,note_on,72,73,360
1,note_on,81,87,0
1,note_on,69,73,0
1,note_on,69,0,960
1,note_on,81,0,0
1,note_on,72,0,0
1,note_on,89,70,0
1,note_on,93,70,0
1,note_on,81,59,0
1,note_on,84,59,0
1,note_on,84,0,240
1,note_on,89,0,0
1,note_on,93,0,0
1,note_on,81,0,0
1,note_on,92,65,0
1,note_on,80,55,0
1,note_on,80,0,240
1,note_on,92,0,0
1,note_on,93,72,0
1,note_on,81,60,0
1,note_on,81,0,240
1,note_on,93,0,0
1,note_on,95,77,0
1,note_on,83,65,0
1,note_on,83,0,240
1,note_on,95,0,0
1,note_on,96,82,0
1,note_on,84,69,0
1,note_on,88,69,0
1,note_on,88,0,960
1,note_on,84,0,0
1,note_on,96,0,0
1,note_on,96,75,0
1,note_on,84,63,0
1,note_on,89,63,0
1,note_on,89,0,240
1,note_on,84,0,0
1,note_on,96,0,0
1,note_on,95,72,0
1,note_on,83,61,0
1,note_on,83,0,240
1,note_on,95,0,0
1,note_on,93,74,0
1,note_on,81,63,0
1,note_on,81,0,240
1,note_on,93,0,0
1,note_on,92,75,0
1,note_on,80,64,0
1,note_on,80,0,240
1,note_on,92,0,0
1,note_on,84,71,0
1,note_on,93,84,0
1,note_on,88,71,0
1,note_on,81,71,0
1,note_on,81,0,720
1,note_on,84,0,0
1,note_on,93,0,0
1,note_on,88,0,0
1,note_on,96,71,0
1,note_on,84,59,0
1,note_on,84,0,240
1,note_on,96,0,0
1,note_on,95,77,0
1,note_on,83,65,0
1,note_on,83,0,240
1,note_on,95,0,0
1,note_on,93,71,0
1,note_on,81,59,0
1,note_on,81,0,192
1,note_on,93,0,0
1,note_on,92,71,48
1,note_on,80,59,0
1,note_on,80,0,120
1,note_on,92,0,0
1,note_on,95,71,120
1,note_on,83,59,0
1,note_on,83,0,120
1,note_on,95,0,0
1,note_on,93,77,120
1,note_on,81,65,0
1,note_on,81,0,240
1,note_on,93,0,0
1,note_on,85,72,0
1,note_on,73,60,0
1,note_on,73,0,192
1,note_on,85,0,0
1,note_on,90,72,48
1,note_on,78,60,0
1,note_on,78,0,120
1,note_on,90,0,0
1,note_on,93,73,120
1,note_on,81,61,0
1,note_on,81,0,120
1,note_on,93,0,0
1,note_on,92,81,120
1,note_on,80,69,0
1,note_on,80,0,240
1,note_on,92,0,0
1,note_on,90,73,0
1,note_on,78,61,0
1,note_on,78,0,192
1,note_on,90,0,0
1,note_on,88,73,48
1,note_on,76,61,0
1,note_on,76,0,120
1,note_on,88,0,0
1,note_on,92,73,120
1,note_on,80,61,0
1,note_on,80,0,120
1,note_on,92,0,0
1,note_on,90,82,120
1,note_on,78,70,0
1,note_on,78,0,240
1,note_on,90,0,0
1,note_on,88,73,0
1,note_on,76,61,0
1,note_on,76,0,192
1,note_on,88,0,0
1,note_on,87,73,48
1,note_on,75,61,0
1,note_on,75,0,120
1,note_on,87,0,0
1,note_on,90,73,120
1,note_on,78,61,0
1,note_on,78,0,120
1,note_on,90,0,0
1,note_on,90,81,120
1,note_on,78,69,0
1,note_on,78,0,240
1,note_on,90,0,0
1,note_on,88,73,0
1,note_on,76,61,0
1,note_on,76,0,192
1,note_on,88,0,0
1,note_on,88,73,48
1,note_on,76,61,0
1,note_on,76,0,120
1,note_on,88,0,0
1,note_on,87,73,120
1,note_on,75,61,0
1,note_on,75,0,120
1,note_on,87,0,0
1,note_on,90,84,120
1,note_on,78,71,0
1,note_on,78,0,240
1,note_on,90,0,0
1,note_on,88,73,0
1,note_on,76,61,0
1,note_on,76,0,192
1,note_on,88,0,0
1,note_on,88,73,48
1,note_on,76,61,0
1,note_on,76,0,120
1,note_on,88,0,0
1,note_on,87,73,120
1,note_on,75,61,0
1,note_on,75,0,120
1,note_on,87,0,0
1,note_on,83,75,120
1,note_on,80,75,0
1,note_on,88,89,0
1,note_on,76,75,0
1,note_on,76,0,960
1,note_on,83,0,0
1,note_on,80,0,0
1,note_on,88,0,0
1,note_on,100,86,0
1,note_on,95,72,0
1,note_on,92,72,0
1,note_on,88,72,0
1,note_on,88,0,240
1,note_on,100,0,0
1,note_on,95,0,0
1,note_on,92,0,0
1,note_on,64,81,600
1,note_on,64,0,120
1,note_on,64,88,0
1,note_on,64,0,240
1,note_on,68,81,720
1,note_on,64,68,0
1,note_on,64,0,240
1,note_on,68,0,0
1,note_on,71,88,720
1,note_on,63,74,0
1,note_on,68,74,0
1,note_on,68,0,1800
1,note_on,63,0,0
1,note_on,71,0,0
1,note_on,76,81,0
1,note_on,64,68,0
1,note_on,68,68,0
1,note_on,68,0,120
1,note_on,64,0,0
1,note_on,76,0,0
1,note_on,68,74,0
1,note_on,71,88,0
1,note_on,63,74,0
1,note_on,63,0,840
1,note_on,71,0,0
1,note_on,68,0,0
1,note_on,76,82,0
1,note_on,64,69,0
1,note_on,68,69,0
1,note_on,68,0,120
1,note_on,64,0,0
1,note_on,76,0,0
1,note_on,71,88,0
1,note_on,63,74,0
1,note_on,68,74,0
1,note_on,68,0,840
1,note_on,63,0,0
1,note_on,71,0,0
1,note_on,76,81,0
1,note_on,64,68,0
1,note_on,68,68,0
1,note_on,68,0,120
1,note_on,64,0,0
1,note_on,76,0,0
1,note_on,71,88,0
1,note_on,63,74,0
1,note_on,68,74,0
1,note_on,68,0,1920
1,note_on,63,0,0
1,note_on,71,0,0
1,note_on,76,90,0
1,note_on,62,74,0
1,note_on,64,74,0
1,note_on,68,74,0
1,note_on,71,74,0
1,note_on,71,0,180
1,note_on,64,0,0
1,note_on,76,0,0
1,note_on,62,0,0
1,note_on,68,0,0
1,note_on,76,50,1260
1,note_on,76,0,480
1,note_on,84,57,0
1,note_on,84,0,240
1,note_on,88,50,0
1,note_on,88,0,240
1,note_on,84,55,0
1,note_on,76,40,0
1,note_on,76,0,240
1,note_on,84,0,0
1,note_on,77,40,0
1,note_on,77,0,120
1,note_on,83,55,120
1,note_on,76,40,0
1,note_on,83,0,240
1,note_on,86,50,0
1,note_on,86,0,240
1,note_on,76,0,0
1,note_on,83,53,0
1,note_on,74,40,0
1,note_on,74,0,240
1,note_on,83,0,0
1,note_on,76,40,0
1,note_on,76,0,120
1,note_on,81,54,120
1,note_on,74,40,0
1,note_on,81,0,240
1,note_on,84,50,0
1,note_on,84,0,240
1,note_on,74,0,0
1,note_on,81,57,0
1,note_on,72,40,0
1,note_on,72,0,240
1,note_on,81,0,0
1,note_on,74,40,0
1,note_on,74,0,120
1,note_on,80,55,120
1,note_on,72,40,0
1,note_on,80,0,240
1,note_on,83,50,0
1,note_on,83,0,240
1,note_on,72,0,0
1,note_on,80,55,0
1,note_on,71,40,0
1,note_on,71,0,240
1,note_on,80,0,0
1,note_on,72,40,0
1,note_on,72,0,120
1,note_on,77,54,120
1,note_on,71,40,0
1,note_on,77,0,240
1,note_on,81,50,0
1,note_on,81,0,240
1,note_on,71,0,0
1,note_on,77,54,0
1,note_on,69,40,0
1,note_on,69,0,240
1,note_on,77,0,0
1,note_on,71,40,0
1,note_on,71,0,120
1,note_on,76,63,120
1,note_on,68,48,0
1,note_on,68,0,240
1,note_on,71,45,0
1,note_on,71,0,240
1,note_on,68,50,0
1,note_on,68,0,240
1,note_on,76,0,0
1,note_on,71,45,0
1,note_on,80,60,0
1,note_on,80,0,240
1,note_on,71,0,0
1,note_on,76,66,0
1,note_on,68,48,0
1,note_on,68,0,240
1,note_on,71,45,0
1,note_on,71,0,240
1,note_on,68,50,0
1,note_on,68,0,240
1,note_on,76,0,0
1,note_on,71,45,0
1,note_on,80,57,0
1,note_on,80,0,240
1,note_on,71,0,0
1,note_on,76,67,0
1,note_on,68,56,0
1,note_on,68,0,240
1,note_on,76,0,0
1,note_on,71,60,0
1,note_on,80,60,0
1,note_on,80,0,120
1,note_on,71,0,0
1,note_on,76,68,120
1,note_on,68,57,0
1,note_on,68,0,240
1,note_on,76,0,0
1,note_on,80,62,0
1,note_on,71,52,0
1,note_on,71,0,120
1,note_on,80,0,0
1,note_on,76,71,120
1,note_on,68,60,0
1,note_on,76,0,120
1,note_on,71,62,120
1,note_on,71,0,120
1,note_on,68,0,120
1,note_on,68,63,0
1,note_on,71,64,240
1,note_on,71,0,120
1,note_on,68,0,120
1,note_on,76,67,0
1,note_on,64,63,0
1,note_on,76,0,120
1,note_on,71,72,120
1,note_on,71,0,120
1,note_on,64,0,120
1,note_on,76,79,0
1,note_on,64,67,0
1,note_on,64,0,120
1,note_on,76,0,0
1,note_on,80,80,120
1,note_on,68,68,0
1,note_on,68,0,120
1,note_on,80,0,0
1,note_on,71,79,120
1,note_on,76,79,0
1,note_on,83,93,0
1,note_on,80,79,0
1,note_on,80,0,960
1,note_on,71,0,0
1,note_on,76,0,0
1,note_on,83,0,0
1,note_on,88,99,0
1,note_on,76,82,0
1,note_on,80,82,0
1,note_on,83,82,0
1,note_on,83,0,240
1,note_on,88,0,0
1,note_on,76,0,0
1,note_on,80,0,0
1,note_on,76,75,240
1,note_on,76,0,160
1,note_on,78,78,0
1,note_on,78,0,160
1,note_on,80,80,0
1,note_on,80,0,160
1,note_on,72,76,0
1,note_on,69,76,0
1,note_on,81,90,0
1,note_on,81,0,240
1,note_on,69,0,0
1,note_on,72,0,0
1,note_on,71,63,240
1,note_on,68,63,0
1,note_on,80,74,0
1,note_on,80,0,120
1,note_on,68,0,0
1,note_on,71,0,0
1,note_on,71,57,120
1,note_on,83,68,0
1,note_on,74,57,0
1,note_on,74,0,120
1,note_on,83,0,0
1,note_on,71,0,0
1,note_on,69,71,120
1,note_on,81,84,0
1,note_on,72,71,0
1,note_on,72,0,240
1,note_on,81,0,0
1,note_on,69,0,0
1,note_on,71,61,240
1,note_on,68,61,0
1,note_on,80,72,0
1,note_on,80,0,120
1,note_on,68,0,0
1,note_on,71,0,0
1,note_on,74,56,120
1,note_on,83,67,0
1,note_on,71,56,0
1,note_on,71,0,120
1,note_on,83,0,0
1,note_on,74,0,0
1,note_on,69,71,120
1,note_on,81,84,0
1,note_on,72,71,0
1,note_on,72,0,120
1,note_on,81,0,0
1,note_on,69,0,0
1,note_on,71,61,360
1,note_on,68,61,0
1,note_on,80,73,0
1,note_on,80,0,120
1,note_on,68,0,0
1,note_on,71,0,0
1,note_on,69,70,360
1,note_on,72,70,0
1,note_on,81,83,0
1,note_on,81,0,960
1,note_on,72,0,0
1,note_on,69,0,0
1,note_on,93,75,0
1,note_on,81,63,0
1,note_on,81,0,120
1,note_on,93,0,0
1,note_on,95,79,120
1,note_on,83,67,0
1,note_on,83,0,120
1,note_on,95,0,0
1,note_on,96,86,120
1,note_on,84,72,0
1,note_on,84,0,720
1,note_on,96,0,0
1,note_on,95,74,0
1,note_on,83,62,0
1,note_on,83,0,120
1,note_on,95,0,0
1,note_on,93,87,120
1,note_on,81,73,0
1,note_on,81,0,720
1,note_on,93,0,0
1,note_on,91,75,0
1,note_on,79,63,0
1,note_on,79,0,120
1,note_on,91,0,0
1,note_on,89,88,120
1,note_on,77,74,0
1,note_on,77,0,720
1,note_on,89,0,0
1,note_on,88,81,0
1,note_on,76,68,0
1,note_on,76,0,120
1,note_on,88,0,0
1,note_on,86,81,120
1,note_on,74,68,0
1,note_on,74,0,120
1,note_on,86,0,0
1,note_on,85,81,120
1,note_on,73,68,0
1,note_on,73,0,120
1,note_on,85,0,0
1,note_on,77,76,120
1,note_on,74,76,0
1,note_on,86,90,0
1,note_on,86,0,240
1,note_on,74,0,0
1,note_on,77,0,0
1,note_on,76,63,240
1,note_on,73,63,0
1,note_on,85,74,0
1,note_on,85,0,120
1,note_on,73,0,0
1,note_on,76,0,0
1,note_on,76,57,120
1,note_on,88,68,0
1,note_on,79,57,0
1,note_on,79,0,120
1,note_on,88,0,0
1,note_on,76,0,0
1,note_on,74,71,120
1,note_on,86,84,0
1,note_on,77,71,0
1,note_on,77,0,240
1,note_on,86,0,0
1,note_on,74,0,0
1,note_on,76,61,240
1,note_on,73,61,0
1,note_on,85,72,0
1,note_on,85,0,120
1,note_on,73,0,0
1,note_on,76,0,0
1,note_on,79,56,120
1,note_on,88,67,0
1,note_on,76,56,0
1,note_on,76,0,120
1,note_on,88,0,0
1,note_on,79,0,0
1,note_on,74,71,120
1,note_on,86,84,0
1,note_on,77,71,0
1,note_on,77,0,120
1,note_on,86,0,0
1,note_on,74,0,0
1,note_on,76,61,360
1,note_on,73,61,0
1,note_on,85,73,0
1,note_on,85,0,120
1,note_on,73,0,0
1,note_on,76,0,0
1,note_on,74,73,360
1,note_on,77,73,0
1,note_on,86,87,0
1,note_on,86,0,960
1,note_on,77,0,0
1,note_on,74,0,0
1,note_on,98,75,0
1,note_on,86,63,0
1,note_on,86,0,120
1,note_on,98,0,0
1,note_on,100,79,120
1,note_on,88,67,0
1,note_on,88,0,120
1,note_on,100,0,0
1,note_on,101,82,120
1,note_on,89,69,0
1,note_on,89,0,720
1,note_on,101,0,0
1,note_on,100,74,0
1,note_on,88,62,0
1,note_on,88,0,120
1,note_on,100,0,0
1,note_on,98,83,120
1,note_on,86,70,0
1,note_on,86,0,720
1,note_on,98,0,0
1,note_on,96,75,0
1,note_on,84,63,0
1,note_on,84,0,120
1,note_on,96,0,0
1,note_on,95,84,120
1,note_on,83,71,0
1,note_on,83,0,720
1,note_on,95,0,0
1,note_on,93,77,0
1,note_on,81,65,0
1,note_on,81,0,120
1,note_on,93,0,0
1,note_on,92,77,120
1,note_on,80,65,0
1,note_on,80,0,120
1,note_on,92,0,0
1,note_on,93,77,120
1,note_on,81,65,0
1,note_on,81,0,120
1,note_on,93,0,0
1,note_on,92,79,120
1,note_on,80,67,0
1,note_on,80,0,120
1,note_on,92,0,0
1,note_on,95,84,120
1,note_on,83,71,0
1,note_on,83,0,120
1,note_on,95,0,0
1,note_on,100,88,120
1,note_on,88,74,0
1,note_on,88,0,240
1,note_on,100,0,0
1,note_on,64,86,240
1,note_on,56,73,0
1,note_on,59,73,0
1,note_on,59,0,960
1,note_on,56,0,0
1,note_on,64,0,0
1,note_on,93,82,0
1,note_on,81,70,0
1,note_on,81,0,120
1,note_on,93,0,0
1,note_on,96,88,120
1,note_on,84,74,0
1,note_on,84,0,120
1,note_on,96,0,0
1,note_on,100,92,120
1,note_on,88,77,0
1,note_on,88,0,240
1,note_on,100,0,0
1,note_on,64,86,240
1,note_on,57,73,0
1,note_on,60,73,0
1,note_on,60,0,960
1,note_on,57,0,0
1,note_on,64,0,0
1,note_on,80,73,0
1,note_on,71,62,0
1,note_on,71,0,120
1,note_on,80,0,0
1,note_on,83,65,120
1,note_on,74,55,0
1,note_on,74,0,120
1,note_on,83,0,0
1,note_on,80,73,120
1,note_on,71,62,0
1,note_on,71,0,120
1,note_on,80,0,0
1,note_on,83,67,120
1,note_on,74,56,0
1,note_on,74,0,120
1,note_on,83,0,0
1,note_on,53,84,120
1,note_on,53,0,480
1,note_on,52,74,0
1,note_on,52,0,120
1,note_on,81,73,360
1,note_on,72,62,0
1,note_on,72,0,120
1,note_on,81,0,0
1,note_on,84,65,120
1,note_on,76,55,0
1,note_on,76,0,120
1,note_on,84,0,0
1,note_on,81,73,120
1,note_on,72,62,0
1,note_on,72,0,120
1,note_on,81,0,0
1,note_on,84,67,120
1,note_on,76,56,0
1,note_on,76,0,120
1,note_on,84,0,0
1,note_on,53,84,120
1,note_on,53,0,480
1,note_on,52,74,0
1,note_on,52,0,120
1,note_on,95,87,360
1,note_on,101,87,0
1,note_on,89,73,0
1,note_on,92,73,0
1,note_on,100,86,240
1,note_on,88,73,0
1,note_on,92,0,24
1,note_on,89,0,0
1,note_on,95,0,0
1,note_on,101,0,0
1,note_on,98,84,216
1,note_on,86,71,0
1,note_on,88,0,24
1,note_on,100,0,0
1,note_on,96,83,216
1,note_on,84,70,0
1,note_on,98,0,24
1,note_on,86,0,0
1,note_on,95,81,216
1,note_on,83,68,0
1,note_on,96,0,24
1,note_on,84,0,0
1,note_on,93,80,216
1,note_on,81,68,0
1,note_on,95,0,24
1,note_on,83,0,0
1,note_on,92,79,216
1,note_on,80,67,0
1,note_on,93,0,24
1,note_on,81,0,0
1,note_on,88,77,216
1,note_on,76,65,0
1,note_on,92,0,24
1,note_on,80,0,0
1,note_on,89,80,216
1,note_on,77,68,0
1,note_on,80,68,0
1,note_on,83,68,0
1,note_on,88,0,24
1,note_on,76,0,0
1,note_on,88,77,216
1,note_on,76,65,0
1,note_on,80,0,24
1,note_on,89,0,0
1,note_on,77,0,0
1,note_on,83,0,0
1,note_on,86,75,216
1,note_on,74,63,0
1,note_on,76,0,24
1,note_on,88,0,0
1,note_on,84,73,216
1,note_on,72,62,0
1,note_on,86,0,24
1,note_on,74,0,0
1,note_on,83,72,216
1,note_on,71,61,0
1,note_on,84,0,24
1,note_on,72,0,0
1,note_on,81,70,216
1,note_on,69,59,0
1,note_on,83,0,24
1,note_on,71,0,0
1,note_on,80,68,216
1,note_on,68,57,0
1,note_on,81,0,24
1,note_on,69,0,0
1,note_on,76,67,216
1,note_on,64,56,0
1,note_on,80,0,24
1,note_on,68,0,0
1,note_on,76,0,216
1,note_on,64,0,0
1,note_on,64,67,0
1,note_on,76,67,0
1,note_on,69,72,0
1,note_on,69,0,240
1,note_on,76,0,0
1,note_on,64,0,0
1,note_on,72,66,0
1,note_on,72,0,120
1,note_on,64,67,120
1,note_on,76,67,0
1,note_on,68,73,0
1,note_on,68,0,240
1,note_on,76,0,0
1,note_on,64,0,0
1,note_on,71,72,0
1,note_on,71,0,120
1,note_on,81,72,120
1,note_on,69,61,0
1,note_on,72,61,0
1,note_on,72,0,240
1,note_on,69,0,0
1,note_on,81,0,0
1,note_on,84,66,0
1,note_on,72,56,0
1,note_on,76,56,0
1,note_on,76,0,120
1,note_on,72,0,0
1,note_on,84,0,0
1,note_on,80,73,120
1,note_on,68,62,0
1,note_on,71,62,0
1,note_on,71,0,240
1,note_on,68,0,0
1,note_on,80,0,0
1,note_on,83,72,0
1,note_on,71,61,0
1,note_on,74,61,0
1,note_on,74,0,120
1,note_on,71,0,0
1,note_on,83,0,0
1,note_on,81,85,120
1,note_on,69,71,0
1,note_on,72,71,0
1,note_on,72,0,240
1,note_on,69,0,0
1,note_on,81,0,0
1,note_on,89,91,720
1,note_on,77,76,0
1,note_on,81,76,0
1,note_on,86,76,0
1,note_on,86,0,240
1,note_on,89,0,0
1,note_on,77,0,0
1,note_on,81,0,0
1,note_on,93,98,720
1,note_on,81,82,0
1,note_on,84,82,0
1,note_on,88,82,0
1,note_on,88,0,960
1,note_on,93,0,0
1,note_on,81,0,0
1,note_on,84,0,0
1,note_on,64,80,840
1,note_on,64,0,120
1,note_on,64,88,0
1,note_on,64,0,240
1,note_on,68,80,720
1,note_on,64,68,0
1,note_on,64,0,240
1,note_on,68,0,0
1,note_on,71,88,720
1,note_on,63,74,0
1,note_on,68,74,0
1,note_on,68,0,1800
1,note_on,63,0,0
1,note_on,71,0,0
1,note_on,76,80,0
1,note_on,64,68,0
1,note_on,68,68,0
1,note_on,68,0,120
1,note_on,64,0,0
1,note_on,76,0,0
1,note_on,68,74,0
1,note_on,71,88,0
1,note_on,63,74,0
1,note_on,63,0,840
1,note_on,71,0,0
1,note_on,68,0,0
1,note_on,76,82,0
1,note_on,64,69,0
1,note_on,68,69,0
1,note_on,68,0,120
1,note_on,64,0,0
1,note_on,76,0,0
1,note_on,71,88,0
1,note_on,63,74,0
1,note_on,68,74,0
1,note_on,68,0,840
1,note_on,63,0,0
1,note_on,71,0,0
1,note_on,76,81,0
1,note_on,64,68,0
1,note_on,68,68,0
1,note_on,68,0,120
1,note_on,64,0,0
1,note_on,76,0,0
1,note_on,71,88,0
1,note_on,63,74,0
1,note_on,68,74,0
1,note_on,68,0,1920
1,note_on,63,0,0
1,note_on,71,0,0
1,note_on,76,89,0
1,note_on,62,74,0
1,note_on,64,74,0
1,note_on,68,74,0
1,note_on,71,74,0
1,note_on,71,0,180
1,note_on,64,0,0
1,note_on,76,0,0
1,note_on,62,0,0
1,note_on,68,0,0
1,note_on,76,50,1260
1,note_on,76,0,480
1,note_on,84,57,0
1,note_on,84,0,240
1,note_on,88,50,0
1,note_on,88,0,240
1,note_on,84,55,0
1,note_on,76,40,0
1,note_on,76,0,240
1,note_on,84,0,0
1,note_on,77,40,0
1,note_on,77,0,120
1,note_on,83,55,120
1,note_on,76,40,0
1,note_on,83,0,240
1,note_on,86,50,0
1,note_on,86,0,240
1,note_on,76,0,0
1,note_on,83,53,0
1,note_on,74,40,0
1,note_on,74,0,240
1,note_on,83,0,0
1,note_on,76,40,0
1,note_on,76,0,120
1,note_on,81,54,120
1,note_on,74,40,0
1,note_on,81,0,240
1,note_on,84,50,0
1,note_on,84,0,240
1,note_on,74,0,0
1,note_on,81,57,0
1,note_on,72,40,0
1,note_on,72,0,240
1,note_on,81,0,0
1,note_on,74,40,0
1,note_on,74,0,120
1,note_on,80,55,120
1,note_on,72,40,0
1,note_on,80,0,240
1,note_on,83,50,0
1,note_on,83,0,240
1,note_on,72,0,0
1,note_on,80,55,0
1,note_on,71,40,0
1,note_on,71,0,240
1,note_on,80,0,0
1,note_on,72,40,0
1,note_on,72,0,120
1,note_on,77,54,120
1,note_on,71,40,0
1,note_on,77,0,240
1,note_on,81,50,0
1,note_on,81,0,240
1,note_on,71,0,0
1,note_on,77,54,0
1,note_on,69,40,0
1,note_on,69,0,240
1,note_on,77,0,0
1,note_on,71,40,0
1,note_on,71,0,120
1,note_on,76,63,120
1,note_on,68,48,0
1,note_on,68,0,240
1,note_on,71,45,0
1,note_on,71,0,240
1,note_on,68,50,0
1,note_on,68,0,240
1,note_on,76,0,0
1,note_on,71,45,0
1,note_on,80,60,0
1,note_on,80,0,240
1,note_on,71,0,0
1,note_on,76,66,0
1,note_on,68,48,0
1,note_on,68,0,240
1,note_on,71,45,0
1,note_on,71,0,240
1,note_on,68,50,0
1,note_on,68,0,240
1,note_on,76,0,0
1,note_on,71,45,0
1,note_on,80,57,0
1,note_on,80,0,240
1,note_on,71,0,0
1,note_on,76,67,0
1,note_on,68,56,0
1,note_on,68,0,240
1,note_on,76,0,0
1,note_on,71,60,0
1,note_on,80,60,0
1,note_on,80,0,120
1,note_on,71,0,0
1,note_on,76,68,120
1,note_on,68,57,0
1,note_on,68,0,240
1,note_on,76,0,0
1,note_on,80,62,0
1,note_on,71,52,0
1,note_on,71,0,120
1,note_on,80,0,0
1,note_on,76,71,120
1,note_on,68,60,0
1,note_on,76,0,120
1,note_on,71,62,120
1,note_on,71,0,120
1,note_on,68,0,120
1,note_on,68,63,0
1,note_on,71,64,240
1,note_on,71,0,120
1,note_on,68,0,120
1,note_on,76,67,0
1,note_on,64,63,0
1,note_on,76,0,120
1,note_on,71,72,120
1,note_on,71,0,120
1,note_on,64,0,120
1,note_on,76,79,0
1,note_on,64,67,0
1,note_on,64,0,120
1,note_on,76,0,0
1,note_on,80,80,120
1,note_on,68,68,0
1,note_on,68,0,120
1,note_on,80,0,0
1,note_on,71,79,120
1,note_on,76,79,0
1,note_on,83,93,0
1,note_on,80,79,0
1,note_on,80,0,960
1,note_on,71,0,0
1,note_on,76,0,0
1,note_on,83,0,0
1,note_on,88,99,0
1,note_on,76,82,0
1,note_on,80,82,0
1,note_on,83,82,0
1,note_on,83,0,240
1,note_on,88,0,0
1,note_on,76,0,0
1,note_on,80,0,0
1,note_on,76,75,240
1,note_on,76,0,160
1,note_on,78,78,0
1,note_on,78,0,160
1,note_on,80,80,0
1,note_on,80,0,160
1,note_on,69,76,0
1,note_on,81,90,0
1,note_on,72,76,6
1,note_on,81,0,234
1,note_on,69,0,0
1,note_on,72,0,6
1,note_on,71,63,234
1,note_on,68,63,0
1,note_on,80,74,0
1,note_on,80,0,120
1,note_on,68,0,0
1,note_on,71,0,0
1,note_on,71,57,120
1,note_on,83,68,0
1,note_on,74,57,0
1,note_on,74,0,120
1,note_on,83,0,0
1,note_on,71,0,0
1,note_on,69,71,120
1,note_on,81,84,0
1,note_on,72,71,0
1,note_on,72,0,240
1,note_on,81,0,0
1,note_on,69,0,0
1,note_on,71,61,240
1,note_on,68,61,0
1,note_on,80,72,0
1,note_on,80,0,120
1,note_on,68,0,0
1,note_on,71,0,0
1,note_on,74,56,120
1,note_on,83,67,0
1,note_on,71,56,0
1,note_on,71,0,120
1,note_on,83,0,0
1,note_on,74,0,0
1,note_on,69,71,120
1,note_on,81,84,0
1,note_on,72,71,0
1,note_on,72,0,120
1,note_on,81,0,0
1,note_on,69,0,0
1,note_on,71,61,360
1,note_on,68,61,0
1,note_on,80,73,0
1,note_on,80,0,120
1,note_on,68,0,0
1,note_on,71,0,0
1,note_on,69,70,360
1,note_on,72,70,0
1,note_on,81,83,0
1,note_on,81,0,960
1,note_on,72,0,0
1,note_on,69,0,0
1,note_on,93,75,0
1,note_on,81,63,0
1,note_on,81,0,120
1,note_on,93,0,0
1,note_on,95,79,120
1,note_on,83,67,0
1,note_on,83,0,120
1,note_on,95,0,0
1,note_on,96,86,120
1,note_on,84,72,0
1,note_on,84,0,720
1,note_on,96,0,0
1,note_on,95,74,0
1,note_on,83,62,0
1,note_on,83,0,120
1,note_on,95,0,0
1,note_on,93,87,120
1,note_on,81,73,0
1,note_on,81,0,720
1,note_on,93,0,0
1,note_on,91,75,0
1,note_on,79,63,0
1,note_on,79,0,120
1,note_on,91,0,0
1,note_on,89,88,120
1,note_on,77,74,0
1,note_on,77,0,720
1,note_on,89,0,0
1,note_on,88,81,0
1,note_on,76,68,0
1,note_on,76,0,120
1,note_on,88,0,0
1,note_on,86,81,120
1,note_on,74,68,0
1,note_on,74,0,120
1,note_on,86,0,0
1,note_on,85,81,120
1,note_on,73,68,0
1,note_on,73,0,120
1,note_on,85,0,0
1,note_on,77,76,120
1,note_on,74,76,0
1,note_on,86,90,0
1,note_on,86,0,240
1,note_on,74,0,0
1,note_on,77,0,0
1,note_on,76,63,240
1,note_on,73,63,0
1,note_on,85,74,0
1,note_on,85,0,120
1,note_on,73,0,0
1,note_on,76,0,0
1,note_on,76,57,120
1,note_on,88,68,0
1,note_on,79,57,0
1,note_on,79,0,120
1,note_on,88,0,0
1,note_on,76,0,0
1,note_on,74,71,120
1,note_on,86,84,0
1,note_on,77,71,0
1,note_on,77,0,240
1,note_on,86,0,0
1,note_on,74,0,0
1,note_on,76,61,240
1,note_on,73,61,0
1,note_on,85,72,0
1,note_on,85,0,120
1,note_on,73,0,0
1,note_on,76,0,0
1,note_on,79,56,120
1,note_on,88,67,0
1,note_on,76,56,0
1,note_on,76,0,120
1,note_on,88,0,0
1,note_on,79,0,0
1,note_on,74,71,120
1,note_on,86,84,0
1,note_on,77,71,0
1,note_on,77,0,120
1,note_on,86,0,0
1,note_on,74,0,0
1,note_on,76,56,360
1,note_on,73,56,0
1,note_on,85,67,0
1,note_on,85,0,120
1,note_on,73,0,0
1,note_on,76,0,0
1,note_on,74,73,360
1,note_on,77,73,0
1,note_on,86,87,0
1,note_on,86,0,960
1,note_on,77,0,0
1,note_on,74,0,0
1,note_on,98,75,0
1,note_on,86,63,0
1,note_on,86,0,120
1,note_on,98,0,0
1,note_on,100,79,120
1,note_on,88,67,0
1,note_on,88,0,120
1,note_on,100,0,0
1,note_on,101,82,120
1,note_on,89,69,0
1,note_on,89,0,720
1,note_on,101,0,0
1,note_on,100,74,0
1,note_on,88,62,0
1,note_on,88,0,120
1,note_on,100,0,0
1,note_on,98,83,120
1,note_on,86,70,0
1,note_on,86,0,720
1,note_on,98,0,0
1,note_on,96,75,0
1,note_on,84,63,0
1,note_on,84,0,120
1,note_on,96,0,0
1,note_on,95,84,120
1,note_on,83,71,0
1,note_on,83,0,720
1,note_on,95,0,0
1,note_on,93,77,0
1,note_on,81,65,0
1,note_on,81,0,120
1,note_on,93,0,0
1,note_on,92,77,120
1,note_on,80,65,0
1,note_on,80,0,120
1,note_on,92,0,0
1,note_on,93,77,120
1,note_on,81,65,0
1,note_on,81,0,120
1,note_on,93,0,0
1,note_on,92,79,120
1,note_on,80,67,0
1,note_on,80,0,120
1,note_on,92,0,0
1,note_on,95,84,120
1,note_on,83,71,0
1,note_on,83,0,120
1,note_on,95,0,0
1,note_on,100,88,120
1,note_on,88,74,0
1,note_on,88,0,240
1,note_on,100,0,0
1,note_on,64,86,240
1,note_on,56,73,0
1,note_on,59,73,0
1,note_on,59,0,960
1,note_on,56,0,0
1,note_on,64,0,0
1,note_on,93,79,0
1,note_on,81,67,0
1,note_on,81,0,120
1,note_on,93,0,0
1,note_on,96,84,120
1,note_on,84,71,0
1,note_on,84,0,120
1,note_on,96,0,0
1,note_on,100,88,120
1,note_on,88,74,0
1,note_on,88,0,240
1,note_on,100,0,0
1,note_on,64,86,240
1,note_on,57,73,0
1,note_on,60,73,0
1,note_on,60,0,960
1,note_on,57,0,0
1,note_on,64,0,0
1,note_on,80,73,0
1,note_on,71,62,0
1,note_on,71,0,120
1,note_on,80,0,0
1,note_on,83,65,120
1,note_on,74,55,0
1,note_on,74,0,120
1,note_on,83,0,0
1,note_on,80,73,120
1,note_on,71,62,0
1,note_on,71,0,120
1,note_on,80,0,0
1,note_on,83,67,120
1,note_on,74,56,0
1,note_on,74,0,120
1,note_on,83,0,0
1,note_on,53,84,120
1,note_on,53,0,480
1,note_on,52,74,0
1,note_on,52,0,120
1,note_on,81,73,360
1,note_on,72,62,0
1,note_on,72,0,120
1,note_on,81,0,0
1,note_on,84,65,120
1,note_on,76,55,0
1,note_on,76,0,120
1,note_on,84,0,0
1,note_on,81,73,120
1,note_on,72,62,0
1,note_on,72,0,120
1,note_on,81,0,0
1,note_on,84,67,120
1,note_on,76,56,0
1,note_on,76,0,120
1,note_on,84,0,0
1,note_on,53,84,120
1,note_on,53,0,480
1,note_on,52,74,0
1,note_on,52,0,120
1,note_on,95,87,360
1,note_on,101,87,0
1,note_on,89,73,0
1,note_on,92,73,0
1,note_on,100,86,240
1,note_on,88,73,0
1,note_on,92,0,24
1,note_on,89,0,0
1,note_on,95,0,0
1,note_on,101,0,0
1,note_on,98,84,216
1,note_on,86,71,0
1,note_on,88,0,24
1,note_on,100,0,0
1,note_on,96,83,216
1,note_on,84,70,0
1,note_on,98,0,24
1,note_on,86,0,0
1,note_on,95,81,216
1,note_on,83,68,0
1,note_on,96,0,24
1,note_on,84,0,0
1,note_on,93,80,216
1,note_on,81,68,0
1,note_on,95,0,24
1,note_on,83,0,0
1,note_on,92,79,216
1,note_on,80,67,0
1,note_on,93,0,24
1,note_on,81,0,0
1,note_on,88,77,216
1,note_on,76,65,0
1,note_on,92,0,24
1,note_on,80,0,0
1,note_on,89,80,216
1,note_on,77,68,0
1,note_on,80,68,0
1,note_on,83,68,0
1,note_on,88,0,24
1,note_on,76,0,0
1,note_on,88,77,216
1,note_on,76,65,0
1,note_on,80,0,24
1,note_on,89,0,0
1,note_on,77,0,0
1,note_on,83,0,0
1,note_on,86,75,216
1,note_on,74,63,0
1,note_on,76,0,24
1,note_on,88,0,0
1,note_on,84,73,216
1,note_on,72,62,0
1,note_on,86,0,24
1,note_on,74,0,0
1,note_on,83,72,216
1,note_on,71,61,0
1,note_on,84,0,24
1,note_on,72,0,0
1,note_on,81,70,216
1,note_on,69,59,0
1,note_on,83,0,24
1,note_on,71,0,0
1,note_on,80,68,216
1,note_on,68,57,0
1,note_on,81,0,24
1,note_on,69,0,0
1,note_on,76,67,216
1,note_on,64,56,0
1,note_on,80,0,24
1,note_on,68,0,0
1,note_on,76,0,216
1,note_on,64,0,0
1,note_on,64,67,0
1,note_on,76,67,0
1,note_on,69,72,0
1,note_on,69,0,240
1,note_on,76,0,0
1,note_on,64,0,0
1,note_on,72,66,0
1,note_on,72,0,120
1,note_on,64,67,120
1,note_on,76,67,0
1,note_on,68,73,0
1,note_on,68,0,240
1,note_on,76,0,0
1,note_on,64,0,0
1,note_on,71,72,0
1,note_on,71,0,120
1,note_on,81,72,120
1,note_on,69,61,0
1,note_on,72,61,0
1,note_on,72,0,240
1,note_on,69,0,0
1,note_on,81,0,0
1,note_on,84,66,0
1,note_on,72,56,0
1,note_on,76,56,0
1,note_on,76,0,120
1,note_on,72,0,0
1,note_on,84,0,0
1,note_on,80,73,120
1,note_on,68,62,0
1,note_on,71,62,0
1,note_on,71,0,240
1,note_on,68,0,0
1,note_on,80,0,0
1,note_on,83,72,0
1,note_on,71,61,0
1,note_on,74,61,0
1,note_on,74,0,120
1,note_on,71,0,0
1,note_on,83,0,0
1,note_on,81,85,120
1,note_on,69,71,0
1,note_on,72,71,0
1,note_on,72,0,240
1,note_on,69,0,0
1,note_on,81,0,0
1,note_on,89,91,720
1,note_on,77,76,0
1,note_on,81,76,0
1,note_on,86,76,0
1,note_on,86,0,240
1,note_on,89,0,0
1,note_on,77,0,0
1,note_on,81,0,0
1,note_on,93,98,720
1,note_on,81,82,0
1,note_on,84,82,0
1,note_on,88,82,0
1,note_on,88,0,960
1,note_on,93,0,0
1,note_on,81,0,0
1,note_on,84,0,0
1,note_on,73,42,480
1,note_on,73,0,240
1,note_on,76,41,0
1,note_on,76,0,240
1,note_on,69,47,0
1,note_on,69,0,960
1,note_on,73,50,480
1,note_on,73,0,240
1,note_on,76,49,0
1,note_on,76,0,240
1,note_on,69,56,0
1,note_on,69,0,960
1,note_on,81,50,480
1,note_on,73,42,0
1,note_on,81,0,240
1,note_on,80,45,0
1,note_on,80,0,120
1,note_on,73,0,120
1,note_on,80,50,0
1,note_on,73,42,0
1,note_on,80,0,240
1,note_on,78,45,0
1,note_on,78,0,120
1,note_on,73,0,120
1,note_on,78,50,0
1,note_on,73,42,0
1,note_on,78,0,240
1,note_on,77,47,0
1,note_on,77,0,120
1,note_on,73,0,120
1,note_on,80,50,0
1,note_on,73,42,0
1,note_on,80,0,240
1,note_on,78,46,0
1,note_on,78,0,120
1,note_on,73,0,120
1,note_on,78,50,0
1,note_on,73,42,0
1,note_on,78,0,240
1,note_on,77,46,0
1,note_on,77,0,120
1,note_on,73,0,120
1,note_on,78,50,0
1,note_on,73,42,0
1,note_on,73,0,240
1,note_on,78,0,0
1,note_on,90,50,1200
1,note_on,81,42,0
1,note_on,90,0,240
1,note_on,88,45,0
1,note_on,88,0,120
1,note_on,81,0,120
1,note_on,88,50,0
1,note_on,81,42,0
1,note_on,88,0,240
1,note_on,86,45,0
1,note_on,86,0,120
1,note_on,81,0,120
1,note_on,86,50,0
1,note_on,81,42,0
1,note_on,86,0,240
1,note_on,85,47,0
1,note_on,85,0,120
1,note_on,81,0,120
1,note_on,88,50,0
1,note_on,81,42,0
1,note_on,88,0,240
1,note_on,86,46,0
1,note_on,86,0,120
1,note_on,81,0,120
1,note_on,86,50,0
1,note_on,81,42,0
1,note_on,86,0,240
1,note_on,85,46,0
1,note_on,85,0,120
1,note_on,81,0,120
1,note_on,86,50,0
1,note_on,81,42,0
1,note_on,81,0,240
1,note_on,86,0,0
1,note_on,74,42,1200
1,note_on,74,0,240
1,note_on,78,41,0
1,note_on,78,0,240
1,note_on,71,47,0
1,note_on,71,0,960
1,note_on,74,50,480
1,note_on,74,0,240
1,note_on,78,49,0
1,note_on,78,0,240
1,note_on,71,56,0
1,note_on,71,0,960
1,note_on,95,54,480
1,note_on,86,45,0
1,note_on,86,0,120
1,note_on,95,0,0
1,note_on,98,50,120
1,note_on,90,42,0
1,note_on,90,0,120
1,note_on,98,0,0
1,note_on,97,55,120
1,note_on,88,46,0
1,note_on,88,0,120
1,note_on,97,0,0
1,note_on,95,52,120
1,note_on,86,44,0
1,note_on,86,0,120
1,note_on,95,0,0
1,note_on,93,56,120
1,note_on,85,47,0
1,note_on,85,0,120
1,note_on,93,0,0
1,note_on,97,50,120
1,note_on,88,42,0
1,note_on,88,0,120
1,note_on,97,0,0
1,note_on,95,58,120
1,note_on,86,49,0
1,note_on,86,0,120
1,note_on,95,0,0
1,note_on,93,50,120
1,note_on,85,42,0
1,note_on,85,0,120
1,note_on,93,0,0
1,note_on,92,54,120
1,note_on,83,45,0
1,note_on,83,0,120
1,note_on,92,0,0
1,note_on,95,50,120
1,note_on,86,42,0
1,note_on,86,0,120
1,note_on,95,0,0
1,note_on,93,60,120
1,note_on,85,51,0
1,note_on,85,0,120
1,note_on,93,0,0
1,note_on,97,50,120
1,note_on,88,42,0
1,note_on,88,0,120
1,note_on,97,0,0
1,note_on,92,55,120
1,note_on,83,46,0
1,note_on,83,0,120
1,note_on,92,0,0
1,note_on,95,50,120
1,note_on,86,42,0
1,note_on,86,0,120
1,note_on,95,0,0
1,note_on,93,56,120
1,note_on,85,47,0
1,note_on,85,0,120
1,note_on,93,0,0
1,note_on,73,49,1320
1,note_on,64,35,0
1,note_on,73,0,120
1,note_on,76,42,0
1,note_on,76,0,120
1,note_on,64,0,0
1,note_on,69,49,0
1,note_on,69,0,120
1,note_on,76,35,120
1,note_on,85,49,0
1,note_on,85,0,120
1,note_on,88,43,0
1,note_on,88,0,120
1,note_on,76,0,0
1,note_on,81,49,0
1,note_on,81,0,120
1,note_on,76,35,1080
1,note_on,85,49,0
1,note_on,85,0,120
1,note_on,88,42,0
1,note_on,88,0,120
1,note_on,76,0,0
1,note_on,81,49,0
1,note_on,81,0,120
1,note_on,88,35,120
1,note_on,97,49,0
1,note_on,97,0,120
1,note_on,100,43,0
1,note_on,100,0,120
1,note_on,88,0,0
1,note_on,93,49,0
1,note_on,93,0,120
1,note_on,93,54,120
1,note_on,85,34,0
1,note_on,93,0,160
1,note_on,92,47,0
1,note_on,92,0,160
1,note_on,80,47,0
1,note_on,80,0,80
1,note_on,85,0,80
1,note_on,92,52,0
1,note_on,85,32,0
1,note_on,92,0,160
1,note_on,90,46,0
1,note_on,90,0,160
1,note_on,78,46,0
1,note_on,78,0,80
1,note_on,85,0,80
1,note_on,90,50,0
1,note_on,85,26,0
1,note_on,90,0,160
1,note_on,89,46,0
1,note_on,89,0,160
1,note_on,77,46,0
1,note_on,77,0,80
1,note_on,85,0,80
1,note_on,92,50,0
1,note_on,85,26,0
1,note_on,92,0,160
1,note_on,90,46,0
1,note_on,90,0,160
1,note_on,78,46,0
1,note_on,78,0,80
1,note_on,85,0,80
1,note_on,90,50,0
1,note_on,85,26,0
1,note_on,90,0,160
1,note_on,89,48,0
1,note_on,89,0,160
1,note_on,77,48,0
1,note_on,77,0,80
1,note_on,85,0,80
1,note_on,92,56,0
1,note_on,85,44,0
1,note_on,92,0,120
1,note_on,90,55,0
1,note_on,90,0,120
1,note_on,85,0,0
1,note_on,85,53,0
1,note_on,85,0,120
1,note_on,81,52,0
1,note_on,81,0,120
1,note_on,80,51,0
1,note_on,80,0,120
1,note_on,78,49,0
1,note_on,78,0,120
1,note_on,73,48,0
1,note_on,73,0,120
1,note_on,69,46,0
1,note_on,69,0,120
1,note_on,66,45,0
1,note_on,66,0,120
1,note_on,90,54,360
1,note_on,93,43,0
1,note_on,90,0,160
1,note_on,88,47,0
1,note_on,88,0,160
1,note_on,81,47,0
1,note_on,81,0,80
1,note_on,93,0,80
1,note_on,88,52,0
1,note_on,93,41,0
1,note_on,88,0,160
1,note_on,86,46,0
1,note_on,86,0,160
1,note_on,81,46,0
1,note_on,81,0,80
1,note_on,93,0,80
1,note_on,86,50,0
1,note_on,93,33,0
1,note_on,86,0,160
1,note_on,85,46,0
1,note_on,85,0,160
1,note_on,81,46,0
1,note_on,81,0,80
1,note_on,93,0,80
1,note_on,88,50,0
1,note_on,93,33,0
1,note_on,88,0,160
1,note_on,86,46,0
1,note_on,86,0,160
1,note_on,81,46,0
1,note_on,81,0,80
1,note_on,93,0,80
1,note_on,86,50,0
1,note_on,93,33,0
1,note_on,86,0,160
1,note_on,85,48,0
1,note_on,85,0,160
1,note_on,81,48,0
1,note_on,81,0,80
1,note_on,93,0,80
1,note_on,88,56,0
1,note_on,93,50,0
1,note_on,88,0,160
1,note_on,86,55,0
1,note_on,93,0,80
1,note_on,86,0,80
1,note_on,81,53,0
1,note_on,81,0,160
1,note_on,78,51,0
1,note_on,78,0,120
1,note_on,74,49,0
1,note_on,74,0,120
1,note_on,69,48,0
1,note_on,69,0,120
1,note_on,66,46,0
1,note_on,66,0,120
1,note_on,62,45,0
1,note_on,62,0,120
1,note_on,66,36,1320
1,note_on,74,49,0
1,note_on,74,0,120
1,note_on,78,42,0
1,note_on,78,0,120
1,note_on,66,0,0
1,note_on,71,49,0
1,note_on,71,0,120
1,note_on,78,35,120
1,note_on,86,49,0
1,note_on,86,0,120
1,note_on,90,43,0
1,note_on,90,0,120
1,note_on,78,0,0
1,note_on,83,49,0
1,note_on,83,0,120
1,note_on,78,34,1080
1,note_on,86,49,0
1,note_on,86,0,120
1,note_on,90,42,0
1,note_on,90,0,120
1,note_on,78,0,0
1,note_on,83,49,0
1,note_on,83,0,120
1,note_on,90,36,120
1,note_on,98,49,0
1,note_on,98,0,120
1,note_on,102,43,0
1,note_on,102,0,120
1,note_on,90,0,0
1,note_on,95,49,0
1,note_on,95,0,120
1,note_on,83,45,120
1,note_on,95,54,0
1,note_on,86,45,0
1,note_on,86,0,120
1,note_on,95,0,0
1,note_on,83,0,0
1,note_on,86,42,120
1,note_on,98,50,0
1,note_on,90,42,0
1,note_on,90,0,120
1,note_on,98,0,0
1,note_on,86,0,0
1,note_on,85,46,120
1,note_on,97,55,0
1,note_on,88,46,0
1,note_on,88,0,120
1,note_on,97,0,0
1,note_on,85,0,0
1,note_on,83,44,120
1,note_on,95,52,0
1,note_on,86,44,0
1,note_on,86,0,120
1,note_on,95,0,0
1,note_on,83,0,0
1,note_on,81,47,120
1,note_on,93,56,0
1,note_on,85,47,0
1,note_on,85,0,120
1,note_on,93,0,0
1,note_on,81,0,0
1,note_on,85,42,120
1,note_on,97,50,0
1,note_on,88,42,0
1,note_on,88,0,120
1,note_on,97,0,0
1,note_on,85,0,0
1,note_on,83,49,120
1,note_on,95,58,0
1,note_on,86,49,0
1,note_on,86,0,120
1,note_on,95,0,0
1,note_on,83,0,0
1,note_on,81,42,120
1,note_on,93,50,0
1,note_on,85,42,0
1,note_on,85,0,120
1,note_on,93,0,0
1,note_on,81,0,0
1,note_on,80,45,120
1,note_on,92,54,0
1,note_on,83,45,0
1,note_on,83,0,120
1,note_on,92,0,0
1,note_on,80,0,0
1,note_on,83,42,120
1,note_on,95,50,0
1,note_on,86,42,0
1,note_on,86,0,120
1,note_on,95,0,0
1,note_on,83,0,0
1,note_on,81,51,120
1,note_on,93,60,0
1,note_on,85,51,0
1,note_on,85,0,120
1,note_on,93,0,0
1,note_on,81,0,0
1,note_on,85,42,120
1,note_on,97,50,0
1,note_on,88,42,0
1,note_on,88,0,120
1,note_on,97,0,0
1,note_on,85,0,0
1,note_on,80,46,120
1,note_on,92,55,0
1,note_on,83,46,0
1,note_on,83,0,120
1,note_on,92,0,0
1,note_on,80,0,0
1,note_on,83,42,120
1,note_on,95,50,0
1,note_on,86,42,0
1,note_on,86,0,120
1,note_on,95,0,0
1,note_on,83,0,0
1,note_on,81,47,120
1,note_on,93,56,0
1,note_on,85,47,0
1,note_on,85,0,120
1,note_on,93,0,0
1,note_on,81,0,0
1,note_on,69,102,360
1,note_on,57,85,0
1,note_on,57,0,180
1,note_on,69,0,0
1,note_on,68,108,300
1,note_on,56,90,0
1,note_on,56,0,180
1,note_on,68,0,0
1,note_on,65,102,300
1,note_on,53,85,0
1,note_on,53,0,180
1,note_on,65,0,0
1,note_on,64,108,300
1,note_on,52,90,0
1,note_on,52,0,180
1,note_on,64,0,0
1,note_on,62,102,300
1,note_on,50,85,0
1,note_on,50,0,180
1,note_on,62,0,0
1,note_on,61,113,300
1,note_on,49,96,0
1,note_on,49,0,720
1,note_on,61,0,0
1,note_on,62,101,0
1,note_on,50,85,0
1,note_on,50,0,240
1,note_on,62,0,0
1,note_on,64,115,0
1,note_on,52,97,0
1,note_on,52,0,240
1,note_on,64,0,0
1,note_on,69,105,480
1,note_on,57,88,0
1,note_on,57,0,120
1,note_on,69,0,0
1,note_on,64,115,120
1,note_on,52,97,0
1,note_on,52,0,720
1,note_on,64,0,0
1,note_on,69,100,0
1,note_on,57,83,0
1,note_on,57,0,120
1,note_on,69,0,0
1,note_on,64,111,120
1,note_on,52,94,0
1,note_on,52,0,720
1,note_on,64,0,0
1,note_on,69,81,0
1,note_on,57,69,0
1,note_on,57,0,120
1,note_on,69,0,0
1,note_on,64,87,120
1,note_on,52,73,0
1,note_on,52,0,120
1,note_on,64,0,0
1,note_on,61,76,120
1,note_on,49,65,0
1,note_on,49,0,120
1,note_on,61,0,0
1,note_on,45,65,120
1,note_on,57,65,0
1,note_on,57,0,120
1,note_on,45,0,0
1,note_on,61,76,120
1,note_on,49,65,0
1,note_on,49,0,120
1,note_on,61,0,0
1,note_on,64,72,120
1,note_on,52,60,0
1,note_on,52,0,120
1,note_on,64,0,0
1,note_on,61,76,120
1,note_on,49,65,0
1,note_on,49,0,120
1,note_on,61,0,0
1,note_on,64,81,120
1,note_on,52,69,0
1,note_on,52,0,120
1,note_on,64,0,0
1,note_on,69,86,120
1,note_on,57,72,0
1,note_on,57,0,120
1,note_on,69,0,0
1,note_on,64,90,120
1,note_on,52,76,0
1,note_on,52,0,960
1,note_on,64,0,0
1,note_on,69,84,0
1,note_on,57,71,0
1,note_on,57,0,120
1,note_on,69,0,0
1,note_on,81,75,360
1,note_on,69,59,0
1,note_on,72,64,0
1,note_on,72,0,240
1,note_on,69,0,0
1,note_on,81,0,0
1,note_on,79,70,240
1,note_on,67,59,0
1,note_on,72,59,0
1,note_on,79,0,240
1,note_on,76,65,0
1,note_on,76,0,240
1,note_on,72,0,0
1,note_on,67,0,0
1,note_on,77,70,0
1,note_on,65,59,0
1,note_on,69,59,0
1,note_on,77,0,240
1,note_on,74,64,0
1,note_on,74,0,240
1,note_on,69,0,0
1,note_on,65,0,0
1,note_on,76,70,0
1,note_on,64,59,0
1,note_on,67,59,0
1,note_on,76,0,240
1,note_on,72,62,0
1,note_on,72,0,240
1,note_on,67,0,0
1,note_on,64,0,0
1,note_on,74,66,0
1,note_on,62,56,0
1,note_on,65,56,0
1,note_on,74,0,240
1,note_on,71,60,0
1,note_on,71,0,240
1,note_on,65,0,0
1,note_on,62,0,0
1,note_on,64,40,0
1,note_on,72,57,0
1,note_on,72,0,120
1,note_on,74,53,0
1,note_on,74,0,120
1,note_on,64,0,0
1,note_on,72,57,0
1,note_on,72,0,120
1,note_on,71,53,0
1,note_on,71,0,120
1,note_on,72,54,0
1,note_on,72,0,120
1,note_on,76,55,0
1,note_on,76,0,120
1,note_on,79,56,0
1,note_on,79,0,120
1,note_on,83,58,0
1,note_on,83,0,80
1,note_on,86,53,0
1,note_on,86,0,40
1,note_on,84,61,0
1,note_on,84,0,120
1,note_on,83,57,0
1,note_on,83,0,120
1,note_on,84,57,0
1,note_on,84,0,120
1,note_on,86,61,0
1,note_on,86,0,120
1,note_on,77,40,0
1,note_on,88,63,0
1,note_on,88,0,120
1,note_on,77,0,120
1,note_on,86,60,120
1,note_on,86,0,120
1,note_on,76,40,0
1,note_on,84,57,0
1,note_on,84,0,120
1,note_on,86,53,0
1,note_on,86,0,120
1,note_on,76,0,0
1,note_on,84,57,0
1,note_on,84,0,120
1,note_on,83,53,0
1,note_on,83,0,120
1,note_on,84,54,0
1,note_on,84,0,120
1,note_on,88,55,0
1,note_on,88,0,120
1,note_on,91,56,0
1,note_on,91,0,120
1,note_on,95,58,0
1,note_on,95,0,80
1,note_on,98,53,0
1,note_on,98,0,40
1,note_on,96,61,0
1,note_on,96,0,120
1,note_on,95,57,0
1,note_on,95,0,120
1,note_on,96,57,0
1,note_on,96,0,120
1,note_on,98,61,0
1,note_on,98,0,120
1,note_on,89,40,0
1,note_on,100,63,0
1,note_on,100,0,120
1,note_on,89,0,120
1,note_on,98,60,120
1,note_on,98,0,120
1,note_on,96,61,0
1,note_on,96,0,120
1,note_on,88,58,0
1,note_on,88,0,120
1,note_on,96,58,0
1,note_on,96,0,120
1,note_on,100,58,0
1,note_on,100,0,120
1,note_on,103,64,0
1,note_on,103,0,120
1,note_on,91,58,0
1,note_on,91,0,120
1,note_on,95,58,0
1,note_on,95,0,120
1,note_on,91,58,0
1,note_on,91,0,120
1,note_on,96,65,0
1,note_on,96,0,120
1,note_on,88,59,0
1,note_on,88,0,120
1,note_on,96,59,0
1,note_on,96,0,120
1,note_on,100,59,0
1,note_on,100,0,120
1,note_on,103,65,0
1,note_on,103,0,120
1,note_on,91,60,0
1,note_on,91,0,120
1,note_on,95,60,0
1,note_on,95,0,120
1,note_on,91,60,0
1,note_on,91,0,120
1,note_on,96,61,0
1,note_on,96,0,120
1,note_on,88,58,0
1,note_on,88,0,120
1,note_on,96,58,0
1,note_on,96,0,120
1,note_on,100,58,0
1,note_on,100,0,120
1,note_on,103,64,0
1,note_on,103,0,120
1,note_on,91,58,0
1,note_on,91,0,120
1,note_on,95,58,0
1,note_on,95,0,120
1,note_on,91,58,0
1,note_on,91,0,120
1,note_on,96,65,0
1,note_on,96,0,120
1,note_on,88,59,0
1,note_on,88,0,120
1,note_on,96,59,0
1,note_on,96,0,120
1,note_on,100,59,0
1,note_on,100,0,120
1,note_on,103,65,0
1,note_on,103,0,120
1,note_on,91,60,0
1,note_on,91,0,120
1,note_on,95,60,0
1,note_on,95,0,120
1,note_on,91,60,0
1,note_on,91,0,120
1,note_on,96,64,0
1,note_on,96,0,120
1,note_on,72,46,360
1,note_on,72,0,120
1,note_on,73,46,0
1,note_on,73,0,120
1,note_on,74,47,0
1,note_on,74,0,120
1,note_on,75,48,0
1,note_on,75,0,120
1,note_on,76,49,0
1,note_on,76,0,120
1,note_on,77,49,0
1,note_on,77,0,120
1,note_on,78,50,0
1,note_on,78,0,120
1,note_on,79,51,0
1,note_on,79,0,120
1,note_on,80,52,0
1,note_on,80,0,120
1,note_on,81,52,0
1,note_on,81,0,120
1,note_on,82,53,0
1,note_on,82,0,120
1,note_on,83,54,0
1,note_on,83,0,120
1,note_on,84,55,0
1,note_on,84,0,120
1,note_on,85,55,0
1,note_on,85,0,120
1,note_on,86,56,0
1,note_on,86,0,120
1,note_on,87,57,0
1,note_on,87,0,120
1,note_on,88,57,0
1,note_on,88,0,120
1,note_on,89,58,0
1,note_on,89,0,120
1,note_on,90,59,0
1,note_on,90,0,120
1,note_on,91,60,0
1,note_on,91,0,120
1,note_on,92,60,0
1,note_on,92,0,96
1,note_on,93,61,0
1,note_on,93,0,96
1,note_on,94,62,0
1,note_on,94,0,96
1,note_on,95,62,0
1,note_on,95,0,96
1,note_on,96,66,0
1,note_on,96,0,96
1,note_on,97,57,0
1,note_on,97,0,120
1,note_on,100,40,0
1,note_on,100,0,120
1,note_on,97,45,0
1,note_on,97,0,120
1,note_on,88,39,0
1,note_on,88,0,120
1,note_on,81,41,0
1,note_on,81,0,120
1,note_on,85,38,0
1,note_on,85,0,120
1,note_on,81,41,0
1,note_on,81,0,120
1,note_on,85,39,0
1,note_on,85,0,120
1,note_on,81,41,0
1,note_on,81,0,120
1,note_on,85,39,0
1,note_on,85,0,120
1,note_on,81,41,0
1,note_on,81,0,120
1,note_on,85,38,0
1,note_on,85,0,120
1,note_on,81,36,0
1,note_on,81,0,120
1,note_on,85,38,0
1,note_on,85,0,120
1,note_on,88,39,0
1,note_on,88,0,120
1,note_on,93,43,0
1,note_on,93,0,120
1,note_on,97,45,0
1,note_on,97,0,120
1,note_on,100,51,0
1,note_on,100,0,120
1,note_on,97,49,0
1,note_on,97,0,120
1,note_on,88,41,0
1,note_on,88,0,120
1,note_on,81,41,0
1,note_on,81,0,120
1,note_on,85,38,0
1,note_on,85,0,120
1,note_on,81,41,0
1,note_on,81,0,120
1,note_on,85,39,0
1,note_on,85,0,120
1,note_on,81,41,0
1,note_on,81,0,120
1,note_on,85,39,0
1,note_on,85,0,120
1,note_on,81,41,0
1,note_on,81,0,120
1,note_on,85,38,0
1,note_on,85,0,120
1,note_on,81,36,0
1,note_on,81,0,120
1,note_on,85,38,0
1,note_on,85,0,120
1,note_on,88,40,0
1,note_on,88,0,120
1,note_on,93,44,0
1,note_on,93,0,120
1,note_on,97,48,0
1,note_on,97,0,120
1,note_on,93,52,0
1,note_on,93,0,120
1,note_on,92,49,0
1,note_on,92,0,120
1,note_on,85,41,0
1,note_on,85,0,120
1,note_on,97,46,0
1,note_on,97,0,120
1,note_on,92,40,0
1,note_on,92,0,120
1,note_on,90,40,0
1,note_on,90,0,120
1,note_on,85,40,0
1,note_on,85,0,120
1,note_on,97,45,0
1,note_on,97,0,120
1,note_on,90,39,0
1,note_on,90,0,120
1,note_on,89,39,0
1,note_on,89,0,120
1,note_on,85,39,0
1,note_on,85,0,120
1,note_on,97,45,0
1,note_on,97,0,120
1,note_on,92,39,0
1,note_on,92,0,120
1,note_on,90,39,0
1,note_on,90,0,120
1,note_on,85,39,0
1,note_on,85,0,120
1,note_on,97,42,0
1,note_on,97,0,120
1,note_on,90,38,0
1,note_on,90,0,120
1,note_on,89,38,0
1,note_on,89,0,120
1,note_on,85,38,0
1,note_on,85,0,120
1,note_on,97,52,0
1,note_on,97,0,120
1,note_on,92,49,0
1,note_on,92,0,120
1,note_on,90,48,0
1,note_on,90,0,120
1,note_on,85,46,0
1,note_on,85,0,120
1,note_on,81,44,0
1,note_on,81,0,120
1,note_on,78,44,0
1,note_on,78,0,120
1,note_on,73,42,0
1,note_on,73,0,120
1,note_on,69,40,0
1,note_on,69,0,120
1,note_on,66,37,0
1,note_on,66,0,120
1,note_on,102,43,360
1,note_on,102,0,120
1,note_on,93,45,0
1,note_on,93,0,120
1,note_on,88,44,0
1,note_on,88,0,120
1,note_on,97,41,0
1,note_on,97,0,120
1,note_on,100,46,0
1,note_on,100,0,120
1,note_on,93,40,0
1,note_on,93,0,120
1,note_on,86,40,0
1,note_on,86,0,120
1,note_on,98,40,0
1,note_on,98,0,120
1,note_on,93,45,0
1,note_on,93,0,120
1,note_on,85,39,0
1,note_on,85,0,120
1,note_on,93,39,0
1,note_on,93,0,120
1,note_on,97,39,0
1,note_on,97,0,120
1,note_on,100,45,0
1,note_on,100,0,120
1,note_on,93,39,0
1,note_on,93,0,120
1,note_on,86,39,0
1,note_on,86,0,120
1,note_on,98,39,0
1,note_on,98,0,120
1,note_on,93,42,0
1,note_on,93,0,120
1,note_on,85,38,0
1,note_on,85,0,120
1,note_on,93,38,0
1,note_on,93,0,120
1,note_on,97,38,0
1,note_on,97,0,120
1,note_on,100,52,0
1,note_on,100,0,120
1,note_on,98,50,0
1,note_on,98,0,120
1,note_on,93,48,0
1,note_on,93,0,120
1,note_on,86,45,0
1,note_on,86,0,120
1,note_on,81,44,0
1,note_on,81,0,120
1,note_on,78,44,0
1,note_on,78,0,120
1,note_on,74,42,0
1,note_on,74,0,120
1,note_on,69,40,0
1,note_on,69,0,120
1,note_on,62,37,0
1,note_on,62,0,120
1,note_on,98,51,360
1,note_on,98,0,120
1,note_on,102,45,0
1,note_on,102,0,120
1,note_on,98,51,0
1,note_on,98,0,120
1,note_on,90,41,0
1,note_on,90,0,120
1,note_on,83,49,0
1,note_on,83,0,120
1,note_on,86,43,0
1,note_on,86,0,120
1,note_on,83,41,0
1,note_on,83,0,120
1,note_on,86,39,0
1,note_on,86,0,120
1,note_on,83,41,0
1,note_on,83,0,120
1,note_on,86,39,0
1,note_on,86,0,120
1,note_on,83,41,0
1,note_on,83,0,120
1,note_on,86,38,0
1,note_on,86,0,120
1,note_on,83,36,0
1,note_on,83,0,120
1,note_on,86,38,0
1,note_on,86,0,120
1,note_on,90,41,0
1,note_on,90,0,120
1,note_on,95,44,0
1,note_on,95,0,120
1,note_on,98,47,0
1,note_on,98,0,120
1,note_on,102,50,0
1,note_on,102,0,120
1,note_on,98,49,0
1,note_on,98,0,120
1,note_on,90,45,0
1,note_on,90,0,120
1,note_on,83,41,0
1,note_on,83,0,120
1,note_on,86,38,0
1,note_on,86,0,120
1,note_on,83,41,0
1,note_on,83,0,120
1,note_on,86,39,0
1,note_on,86,0,120
1,note_on,83,41,0
1,note_on,83,0,120
1,note_on,86,39,0
1,note_on,86,0,120
1,note_on,83,41,0
1,note_on,83,0,120
1,note_on,86,38,0
1,note_on,86,0,120
1,note_on,83,36,0
1,note_on,83,0,120
1,note_on,86,38,0
1,note_on,86,0,120
1,note_on,90,41,0
1,note_on,90,0,120
1,note_on,95,44,0
1,note_on,95,0,120
1,note_on,98,47,0
1,note_on,98,0,120
1,note_on,90,50,0
1,note_on,90,0,120
1,note_on,95,48,0
1,note_on,95,0,120
1,note_on,98,45,0
1,note_on,98,0,120
1,note_on,97,46,0
1,note_on,97,0,120
1,note_on,88,40,0
1,note_on,88,0,120
1,note_on,95,40,0
1,note_on,95,0,120
1,note_on,100,40,0
1,note_on,100,0,120
1,note_on,93,45,0
1,note_on,93,0,120
1,note_on,88,39,0
1,note_on,88,0,120
1,note_on,97,39,0
1,note_on,97,0,120
1,note_on,100,39,0
1,note_on,100,0,120
1,note_on,95,45,0
1,note_on,95,0,120
1,note_on,88,39,0
1,note_on,88,0,120
1,note_on,93,39,0
1,note_on,93,0,120
1,note_on,100,39,0
1,note_on,100,0,120
1,note_on,92,42,0
1,note_on,92,0,120
1,note_on,88,38,0
1,note_on,88,0,120
1,note_on,95,38,0
1,note_on,95,0,120
1,note_on,100,38,0
1,note_on,100,0,120
1,note_on,93,44,0
1,note_on,93,0,120
1,note_on,88,42,0
1,note_on,88,0,120
1,note_on,97,42,0
1,note_on,97,0,120
1,note_on,100,42,0
1,note_on,100,0,120
1,note_on,92,44,0
1,note_on,92,0,120
1,note_on,88,44,0
1,note_on,88,0,120
1,note_on,95,42,0
1,note_on,95,0,120
1,note_on,100,40,0
1,note_on,100,0,120
1,note_on,93,37,0
1,note_on,93,0,120
1,note_on,69,102,360
1,note_on,57,85,0
1,note_on,57,0,180
1,note_on,69,0,0
1,note_on,68,108,300
1,note_on,56,90,0
1,note_on,56,0,180
1,note_on,68,0,0
1,note_on,65,102,300
1,note_on,53,85,0
1,note_on,53,0,180
1,note_on,65,0,0
1,note_on,64,108,300
1,note_on,52,90,0
1,note_on,52,0,180
1,note_on,64,0,0
1,note_on,62,102,300
1,note_on,50,85,0
1,note_on,50,0,180
1,note_on,62,0,0
1,note_on,61,113,300
1,note_on,49,96,0
1,note_on,49,0,720
1,note_on,61,0,0
1,note_on,62,101,0
1,note_on,50,85,0
1,note_on,50,0,240
1,note_on,62,0,0
1,note_on,64,115,0
1,note_on,52,97,0
1,note_on,52,0,240
1,note_on,64,0,0
1,note_on,69,105,480
1,note_on,57,88,0
1,note_on,57,0,120
1,note_on,69,0,0
1,note_on,64,115,120
1,note_on,52,97,0
1,note_on,52,0,720
1,note_on,64,0,0
1,note_on,69,100,0
1,note_on,57,83,0
1,note_on,57,0,120
1,note_on,69,0,0
1,note_on,64,111,120
1,note_on,52,94,0
1,note_on,52,0,720
1,note_on,64,0,0
1,note_on,69,81,0
1,note_on,57,69,0
1,note_on,57,0,120
1,note_on,69,0,0
1,note_on,64,87,120
1,note_on,52,73,0
1,note_on,52,0,120
1,note_on,64,0,0
1,note_on,61,76,120
1,note_on,49,65,0
1,note_on,49,0,120
1,note_on,61,0,0
1,note_on,45,65,120
1,note_on,57,65,0
1,note_on,57,0,120
1,note_on,45,0,0
1,note_on,61,76,120
1,note_on,49,65,0
1,note_on,49,0,120
1,note_on,61,0,0
1,note_on,64,72,120
1,note_on,52,60,0
1,note_on,52,0,120
1,note_on,64,0,0
1,note_on,61,76,120
1,note_on,49,65,0
1,note_on,49,0,120
1,note_on,61,0,0
1,note_on,64,81,120
1,note_on,52,69,0
1,note_on,52,0,120
1,note_on,64,0,0
1,note_on,69,86,120
1,note_on,57,72,0
1,note_on,57,0,120
1,note_on,69,0,0
1,note_on,64,90,120
1,note_on,52,76,0
1,note_on,52,0,960
1,note_on,64,0,0
1,note_on,69,84,0
1,note_on,57,71,0
1,note_on,57,0,120
1,note_on,69,0,0
1,note_on,81,75,360
1,note_on,69,59,0
1,note_on,72,64,0
1,note_on,72,0,240
1,note_on,69,0,0
1,note_on,81,0,0
1,note_on,79,70,240
1,note_on,67,59,0
1,note_on,72,59,0
1,note_on,79,0,240
1,note_on,76,65,0
1,note_on,76,0,240
1,note_on,72,0,0
1,note_on,67,0,0
1,note_on,77,70,0
1,note_on,65,59,0
1,note_on,69,59,0
1,note_on,77,0,240
1,note_on,74,64,0
1,note_on,74,0,240
1,note_on,69,0,0
1,note_on,65,0,0
1,note_on,76,70,0
1,note_on,64,59,0
1,note_on,67,59,0
1,note_on,76,0,240
1,note_on,72,62,0
1,note_on,72,0,240
1,note_on,67,0,0
1,note_on,64,0,0
1,note_on,74,66,0
1,note_on,62,56,0
1,note_on,65,56,0
1,note_on,74,0,240
1,note_on,71,60,0
1,note_on,71,0,240
1,note_on,65,0,0
1,note_on,62,0,0
1,note_on,64,40,0
1,note_on,72,57,0
1,note_on,72,0,120
1,note_on,74,53,0
1,note_on,74,0,120
1,note_on,64,0,0
1,note_on,72,57,0
1,note_on,72,0,120
1,note_on,71,53,0
1,note_on,71,0,120
1,note_on,72,54,0
1,note_on,72,0,120
1,note_on,76,55,0
1,note_on,76,0,120
1,note_on,79,56,0
1,note_on,79,0,120
1,note_on,83,58,0
1,note_on,83,0,80
1,note_on,86,53,0
1,note_on,86,0,40
1,note_on,84,61,0
1,note_on,84,0,120
1,note_on,83,57,0
1,note_on,83,0,120
1,note_on,84,57,0
1,note_on,84,0,120
1,note_on,86,61,0
1,note_on,86,0,120
1,note_on,77,40,0
1,note_on,88,63,0
1,note_on,88,0,120
1,note_on,77,0,120
1,note_on,86,60,120
1,note_on,86,0,120
1,note_on,76,40,0
1,note_on,84,57,0
1,note_on,84,0,120
1,note_on,86,53,0
1,note_on,86,0,120
1,note_on,76,0,0
1,note_on,84,57,0
1,note_on,84,0,120
1,note_on,83,53,0
1,note_on,83,0,120
1,note_on,84,54,0
1,note_on,84,0,120
1,note_on,88,55,0
1,note_on,88,0,120
1,note_on,91,56,0
1,note_on,91,0,120
1,note_on,95,58,0
1,note_on,95,0,80
1,note_on,98,53,0
1,note_on,98,0,40
1,note_on,96,61,0
1,note_on,96,0,120
1,note_on,95,57,0
1,note_on,95,0,120
1,note_on,96,57,0
1,note_on,96,0,120
1,note_on,98,61,0
1,note_on,98,0,120
1,note_on,89,40,0
1,note_on,100,63,0
1,note_on,100,0,120
1,note_on,89,0,120
1,note_on,98,60,120
1,note_on,98,0,120
1,note_on,96,61,0
1,note_on,96,0,120
1,note_on,88,58,0
1,note_on,88,0,120
1,note_on,96,58,0
1,note_on,96,0,120
1,note_on,100,58,0
1,note_on,100,0,120
1,note_on,103,64,0
1,note_on,103,0,120
1,note_on,91,58,0
1,note_on,91,0,120
1,note_on,95,58,0
1,note_on,95,0,120
1,note_on,91,58,0
1,note_on,91,0,120
1,note_on,96,65,0
1,note_on,96,0,120
1,note_on,88,59,0
1,note_on,88,0,120
1,note_on,96,59,0
1,note_on,96,0,120
1,note_on,100,59,0
1,note_on,100,0,120
1,note_on,103,65,0
1,note_on,103,0,120
1,note_on,91,60,0
1,note_on,91,0,120
1,note_on,95,60,0
1,note_on,95,0,120
1,note_on,91,60,0
1,note_on,91,0,120
1,note_on,96,61,0
1,note_on,96,0,120
1,note_on,88,58,0
1,note_on,88,0,120
1,note_on,96,58,0
1,note_on,96,0,120
1,note_on,100,58,0
1,note_on,100,0,120
1,note_on,103,64,0
1,note_on,103,0,120
1,note_on,91,58,0
1,note_on,91,0,120
1,note_on,95,58,0
1,note_on,95,0,120
1,note_on,91,58,0
1,note_on,91,0,120
1,note_on,96,65,0
1,note_on,96,0,120
1,note_on,88,59,0
1,note_on,88,0,120
1,note_on,96,59,0
1,note_on,96,0,120
1,note_on,100,59,0
1,note_on,100,0,120
1,note_on,103,65,0
1,note_on,103,0,120
1,note_on,91,60,0
1,note_on,91,0,120
1,note_on,95,60,0
1,note_on,95,0,120
1,note_on,91,60,0
1,note_on,91,0,120
1,note_on,96,64,0
1,note_on,96,0,120
1,note_on,72,46,360
1,note_on,72,0,120
1,note_on,73,46,0
1,note_on,73,0,120
1,note_on,74,47,0
1,note_on,74,0,120
1,note_on,75,48,0
1,note_on,75,0,120
1,note_on,76,49,0
1,note_on,76,0,120
1,note_on,77,49,0
1,note_on,77,0,120
1,note_on,78,50,0
1,note_on,78,0,120
1,note_on,79,51,0
1,note_on,79,0,120
1,note_on,80,52,0
1,note_on,80,0,120
1,note_on,81,52,0
1,note_on,81,0,120
1,note_on,82,53,0
1,note_on,82,0,120
1,note_on,83,54,0
1,note_on,83,0,120
1,note_on,84,55,0
1,note_on,84,0,120
1,note_on,85,55,0
1,note_on,85,0,120
1,note_on,86,56,0
1,note_on,86,0,120
1,note_on,87,57,0
1,note_on,87,0,120
1,note_on,88,57,0
1,note_on,88,0,120
1,note_on,89,58,0
1,note_on,89,0,120
1,note_on,90,59,0
1,note_on,90,0,120
1,note_on,91,60,0
1,note_on,91,0,120
1,note_on,92,60,0
1,note_on,92,0,96
1,note_on,93,61,0
1,note_on,93,0,96
1,note_on,94,62,0
1,note_on,94,0,96
1,note_on,95,62,0
1,note_on,95,0,96
1,note_on,96,66,0
1,note_on,96,0,96
1,note_on,97,57,0
1,note_on,97,0,120
1,note_on,100,40,0
1,note_on,100,0,120
1,note_on,97,45,0
1,note_on,97,0,120
1,note_on,88,39,0
1,note_on,88,0,120
1,note_on,81,41,0
1,note_on,81,0,120
1,note_on,85,38,0
1,note_on,85,0,120
1,note_on,81,41,0
1,note_on,81,0,120
1,note_on,85,39,0
1,note_on,85,0,120
1,note_on,81,41,0
1,note_on,81,0,120
1,note_on,85,39,0
1,note_on,85,0,120
1,note_on,81,41,0
1,note_on,81,0,120
1,note_on,85,38,0
1,note_on,85,0,120
1,note_on,81,36,0
1,note_on,81,0,120
1,note_on,85,38,0
1,note_on,85,0,120
1,note_on,88,39,0
1,note_on,88,0,120
1,note_on,93,43,0
1,note_on,93,0,120
1,note_on,97,45,0
1,note_on,97,0,120
1,note_on,100,51,0
1,note_on,100,0,120
1,note_on,97,49,0
1,note_on,97,0,120
1,note_on,88,41,0
1,note_on,88,0,120
1,note_on,81,41,0
1,note_on,81,0,120
1,note_on,85,38,0
1,note_on,85,0,120
1,note_on,81,41,0
1,note_on,81,0,120
1,note_on,85,39,0
1,note_on,85,0,120
1,note_on,81,41,0
1,note_on,81,0,120
1,note_on,85,39,0
1,note_on,85,0,120
1,note_on,81,41,0
1,note_on,81,0,120
1,note_on,85,38,0
1,note_on,85,0,120
1,note_on,81,36,0
1,note_on,81,0,120
1,note_on,85,38,0
1,note_on,85,0,120
1,note_on,88,40,0
1,note_on,88,0,120
1,note_on,93,44,0
1,note_on,93,0,120
1,note_on,93,45,0
1,note_on,97,48,0
1,note_on,97,0,120
1,note_on,93,0,0
1,note_on,98,52,0
1,note_on,98,0,120
1,note_on,92,39,0
1,note_on,97,49,0
1,note_on,97,0,120
1,note_on,92,0,0
1,note_on,98,41,0
1,note_on,98,0,120
1,note_on,92,45,0
1,note_on,97,46,0
1,note_on,97,0,120
1,note_on,92,0,0
1,note_on,98,40,0
1,note_on,98,0,120
1,note_on,90,39,0
1,note_on,97,40,0
1,note_on,97,0,120
1,note_on,90,0,0
1,note_on,98,40,0
1,note_on,98,0,120
1,note_on,90,44,0
1,note_on,97,45,0
1,note_on,97,0,120
1,note_on,90,0,0
1,note_on,98,39,0
1,note_on,98,0,120
1,note_on,89,39,0
1,note_on,97,39,0
1,note_on,97,0,120
1,note_on,89,0,0
1,note_on,98,39,0
1,note_on,98,0,120
1,note_on,92,44,0
1,note_on,97,45,0
1,note_on,97,0,120
1,note_on,92,0,0
1,note_on,98,39,0
1,note_on,98,0,120
1,note_on,90,39,0
1,note_on,97,39,0
1,note_on,97,0,120
1,note_on,90,0,0
1,note_on,98,39,0
1,note_on,98,0,120
1,note_on,90,44,0
1,note_on,97,42,0
1,note_on,97,0,120
1,note_on,90,0,0
1,note_on,98,38,0
1,note_on,98,0,120
1,note_on,89,40,0
1,note_on,97,38,0
1,note_on,97,0,120
1,note_on,89,0,0
1,note_on,98,38,0
1,note_on,98,0,120
1,note_on,97,52,0
1,note_on,97,0,120
1,note_on,92,49,0
1,note_on,92,0,120
1,note_on,90,48,0
1,note_on,90,0,120
1,note_on,85,46,0
1,note_on,85,0,120
1,note_on,81,44,0
1,note_on,81,0,120
1,note_on,78,44,0
1,note_on,78,0,120
1,note_on,73,42,0
1,note_on,73,0,120
1,note_on,69,40,0
1,note_on,69,0,120
1,note_on,66,37,0
1,note_on,66,0,120
1,note_on,102,43,360
1,note_on,102,0,120
1,note_on,93,45,0
1,note_on,93,0,120
1,note_on,100,44,0
1,note_on,100,0,120
1,note_on,93,41,0
1,note_on,93,0,120
1,note_on,100,46,0
1,note_on,100,0,120
1,note_on,93,40,0
1,note_on,93,0,120
1,note_on,98,40,0
1,note_on,98,0,120
1,note_on,93,40,0
1,note_on,93,0,120
1,note_on,98,45,0
1,note_on,98,0,120
1,note_on,93,39,0
1,note_on,93,0,120
1,note_on,97,39,0
1,note_on,97,0,120
1,note_on,93,39,0
1,note_on,93,0,120
1,note_on,100,45,0
1,note_on,100,0,120
1,note_on,93,39,0
1,note_on,93,0,120
1,note_on,98,39,0
1,note_on,98,0,120
1,note_on,93,39,0
1,note_on,93,0,120
1,note_on,98,42,0
1,note_on,98,0,120
1,note_on,93,38,0
1,note_on,93,0,120
1,note_on,97,38,0
1,note_on,97,0,120
1,note_on,93,38,0
1,note_on,93,0,120
1,note_on,100,52,0
1,note_on,100,0,120
1,note_on,98,50,0
1,note_on,98,0,120
1,note_on,93,48,0
1,note_on,93,0,120
1,note_on,86,45,0
1,note_on,86,0,120
1,note_on,81,44,0
1,note_on,81,0,120
1,note_on,78,44,0
1,note_on,78,0,120
1,note_on,74,42,0
1,note_on,74,0,120
1,note_on,69,40,0
1,note_on,69,0,120
1,note_on,62,37,0
1,note_on,62,0,120
1,note_on,98,51,360
1,note_on,98,0,120
1,note_on,102,45,0
1,note_on,102,0,120
1,note_on,98,51,0
1,note_on,98,0,120
1,note_on,90,41,0
1,note_on,90,0,120
1,note_on,83,49,0
1,note_on,83,0,120
1,note_on,86,43,0
1,note_on,86,0,120
1,note_on,83,41,0
1,note_on,83,0,120
1,note_on,86,39,0
1,note_on,86,0,120
1,note_on,83,41,0
1,note_on,83,0,120
1,note_on,86,39,0
1,note_on,86,0,120
1,note_on,83,41,0
1,note_on,83,0,120
1,note_on,86,38,0
1,note_on,86,0,120
1,note_on,83,36,0
1,note_on,83,0,120
1,note_on,86,38,0
1,note_on,86,0,120
1,note_on,90,41,0
1,note_on,90,0,120
1,note_on,95,44,0
1,note_on,95,0,120
1,note_on,98,47,0
1,note_on,98,0,120
1,note_on,102,50,0
1,note_on,102,0,120
1,note_on,98,49,0
1,note_on,98,0,120
1,note_on,90,45,0
1,note_on,90,0,120
1,note_on,83,41,0
1,note_on,83,0,120
1,note_on,86,38,0
1,note_on,86,0,120
1,note_on,83,41,0
1,note_on,83,0,120
1,note_on,86,39,0
1,note_on,86,0,120
1,note_on,83,41,0
1,note_on,83,0,120
1,note_on,86,39,0
1,note_on,86,0,120
1,note_on,83,41,0
1,note_on,83,0,120
1,note_on,86,38,0
1,note_on,86,0,120
1,note_on,83,36,0
1,note_on,83,0,120
1,note_on,98,47,360
1,note_on,98,0,120
1,note_on,101,50,0
1,note_on,101,0,120
1,note_on,98,49,0
1,note_on,98,0,120
1,note_on,89,45,0
1,note_on,89,0,120
1,note_on,82,41,0
1,note_on,82,0,120
1,note_on,86,38,0
1,note_on,86,0,120
1,note_on,82,41,0
1,note_on,82,0,120
1,note_on,86,39,0
1,note_on,86,0,120
1,note_on,82,41,0
1,note_on,82,0,120
1,note_on,86,39,0
1,note_on,86,0,120
1,note_on,82,41,0
1,note_on,82,0,120
1,note_on,86,38,0
1,note_on,86,0,120
1,note_on,82,39,0
1,note_on,82,0,120
1,note_on,86,42,0
1,note_on,86,0,120
1,note_on,89,45,0
1,note_on,89,0,120
1,note_on,94,46,0
1,note_on,94,0,120
1,note_on,98,47,0
1,note_on,98,0,120
1,note_on,101,50,0
1,note_on,101,0,120
1,note_on,98,49,0
1,note_on,98,0,120
1,note_on,89,45,0
1,note_on,89,0,120
1,note_on,82,41,0
1,note_on,82,0,120
1,note_on,86,38,0
1,note_on,86,0,120
1,note_on,82,41,0
1,note_on,82,0,120
1,note_on,86,39,0
1,note_on,86,0,120
1,note_on,82,41,0
1,note_on,82,0,120
1,note_on,86,39,0
1,note_on,86,0,120
1,note_on,82,41,0
1,note_on,82,0,120
1,note_on,86,38,0
1,note_on,86,0,120
1,note_on,82,36,0
1,note_on,82,0,120
1,note_on,82,36,360
1,note_on,82,0,90
1,note_on,82,35,30
1,note_on,82,0,90
1,note_on,94,41,30
1,note_on,94,0,90
1,note_on,82,35,30
1,note_on,82,0,90
1,note_on,81,36,30
1,note_on,81,0,90
1,note_on,81,34,30
1,note_on,81,0,90
1,note_on,93,41,30
1,note_on,93,0,90
1,note_on,81,33,30
1,note_on,81,0,90
1,note_on,78,36,30
1,note_on,78,0,90
1,note_on,78,34,30
1,note_on,78,0,90
1,note_on,90,42,30
1,note_on,90,0,90
1,note_on,78,34,30
1,note_on,78,0,90
1,note_on,77,36,30
1,note_on,77,0,90
1,note_on,77,32,30
1,note_on,77,0,90
1,note_on,89,41,30
1,note_on,89,0,90
1,note_on,77,36,30
1,note_on,77,0,90
1,note_on,75,36,30
1,note_on,75,0,90
1,note_on,75,34,30
1,note_on,75,0,90
1,note_on,87,39,30
1,note_on,87,0,90
1,note_on,75,36,30
1,note_on,75,0,90
1,note_on,74,36,30
1,note_on,74,0,90
1,note_on,74,32,30
1,note_on,74,0,90
1,note_on,86,42,30
1,note_on,86,0,90
1,note_on,74,35,30
1,note_on,74,0,90
1,note_on,86,43,30
1,note_on,86,0,160
1,note_on,75,37,0
1,note_on,75,0,160
1,note_on,87,41,0
1,note_on,87,0,160
1,note_on,77,41,0
1,note_on,77,0,120
1,note_on,77,36,0
1,note_on,77,0,120
1,note_on,89,45,0
1,note_on,89,0,120
1,note_on,77,36,0
1,note_on,77,0,120
1,note_on,89,44,0
1,note_on,89,0,160
1,note_on,82,36,0
1,note_on,82,0,160
1,note_on,94,44,0
1,note_on,94,0,160
1,note_on,89,36,0
1,note_on,89,0,160
1,note_on,77,32,0
1,note_on,77,0,160
1,note_on,82,32,0
1,note_on,82,0,160
1,note_on,89,36,0
1,note_on,89,0,160
1,note_on,82,36,0
1,note_on,82,0,160
1,note_on,94,39,0
1,note_on,94,0,160
1,note_on,89,36,0
1,note_on,89,0,160
1,note_on,77,33,0
1,note_on,77,0,160
1,note_on,82,36,0
1,note_on,82,0,160
1,note_on,89,38,0
1,note_on,89,0,160
1,note_on,82,36,0
1,note_on,82,0,160
1,note_on,94,40,0
1,note_on,94,0,160
1,note_on,89,40,0
1,note_on,89,0,160
1,note_on,82,36,0
1,note_on,82,0,160
1,note_on,94,36,0
1,note_on,94,0,160
1,note_on,89,39,0
1,note_on,89,0,160
1,note_on,82,36,0
1,note_on,82,0,160
1,note_on,94,36,0
1,note_on,94,0,160
1,note_on,89,39,0
1,note_on,89,0,160
1,note_on,82,36,0
1,note_on,82,0,160
1,note_on,94,36,0
1,note_on,94,0,160
1,note_on,89,39,0
1,note_on,89,0,160
1,note_on,82,37,0
1,note_on,82,0,160
1,note_on,94,37,0
1,note_on,94,0,160
1,note_on,89,42,0
1,note_on,89,0,120
1,note_on,86,38,360
1,note_on,82,32,0
1,note_on,82,0,120
1,note_on,86,0,0
1,note_on,87,38,0
1,note_on,83,32,0
1,note_on,83,0,120
1,note_on,87,0,0
1,note_on,88,39,0
1,note_on,84,33,0
1,note_on,84,0,120
1,note_on,88,0,0
1,note_on,89,40,0
1,note_on,85,34,0
1,note_on,85,0,120
1,note_on,89,0,0
1,note_on,90,41,0
1,note_on,86,35,0
1,note_on,86,0,120
1,note_on,90,0,0
1,note_on,91,42,0
1,note_on,87,36,0
1,note_on,87,0,120
1,note_on,91,0,0
1,note_on,92,43,0
1,note_on,88,37,0
1,note_on,88,0,120
1,note_on,92,0,0
1,note_on,89,44,0
1,note_on,93,44,0
1,note_on,93,0,120
1,note_on,89,0,0
1,note_on,94,45,0
1,note_on,90,38,0
1,note_on,90,0,120
1,note_on,94,0,0
1,note_on,95,46,0
1,note_on,91,38,0
1,note_on,91,0,120
1,note_on,95,0,0
1,note_on,96,47,0
1,note_on,92,39,0
1,note_on,92,0,120
1,note_on,96,0,0
1,note_on,97,48,0
1,note_on,93,40,0
1,note_on,93,0,120
1,note_on,97,0,0
1,note_on,98,49,0
1,note_on,94,41,0
1,note_on,94,0,120
1,note_on,98,0,0
1,note_on,97,49,0
1,note_on,93,41,0
1,note_on,93,0,120
1,note_on,97,0,0
1,note_on,96,48,0
1,note_on,92,40,0
1,note_on,92,0,120
1,note_on,96,0,0
1,note_on,95,47,0
1,note_on,91,39,0
1,note_on,91,0,120
1,note_on,95,0,0
1,note_on,94,46,0
1,note_on,90,38,0
1,note_on,90,0,120
1,note_on,94,0,0
1,note_on,93,46,0
1,note_on,89,38,0
1,note_on,89,0,120
1,note_on,93,0,0
1,note_on,92,45,0
1,note_on,88,38,0
1,note_on,88,0,120
1,note_on,92,0,0
1,note_on,91,44,0
1,note_on,87,37,0
1,note_on,87,0,120
1,note_on,91,0,0
1,note_on,90,43,0
1,note_on,86,37,0
1,note_on,86,0,120
1,note_on,90,0,0
1,note_on,89,43,0
1,note_on,85,37,0
1,note_on,85,0,120
1,note_on,89,0,0
1,note_on,88,42,0
1,note_on,84,36,0
1,note_on,84,0,120
1,note_on,88,0,0
1,note_on,87,41,0
1,note_on,83,35,0
1,note_on,83,0,120
1,note_on,87,0,0
1,note_on,86,40,0
1,note_on,82,34,0
1,note_on,82,0,120
1,note_on,86,0,0
1,note_on,85,40,0
1,note_on,81,34,0
1,note_on,81,0,120
1,note_on,85,0,0
1,note_on,84,41,0
1,note_on,80,35,0
1,note_on,80,0,120
1,note_on,84,0,0
1,note_on,83,41,0
1,note_on,79,35,0
1,note_on,79,0,120
1,note_on,83,0,0
1,note_on,82,42,0
1,note_on,78,36,0
1,note_on,78,0,120
1,note_on,82,0,0
1,note_on,81,42,0
1,note_on,77,36,0
1,note_on,77,0,120
1,note_on,81,0,0
1,note_on,80,43,0
1,note_on,76,37,0
1,note_on,76,0,120
1,note_on,80,0,0
1,note_on,79,43,0
1,note_on,75,37,0
1,note_on,75,0,120
1,note_on,79,0,0
1,note_on,78,44,0
1,note_on,74,37,0
1,note_on,74,0,120
1,note_on,78,0,0
1,note_on,77,44,0
1,note_on,73,37,0
1,note_on,73,0,120
1,note_on,77,0,0
1,note_on,76,45,0
1,note_on,72,38,0
1,note_on,72,0,120
1,note_on,76,0,0
1,note_on,75,45,0
1,note_on,71,38,0
1,note_on,71,0,120
1,note_on,75,0,0
1,note_on,74,46,0
1,note_on,70,38,0
1,note_on,70,0,120
1,note_on,74,0,0
1,note_on,73,46,0
1,note_on,69,38,0
1,note_on,69,0,120
1,note_on,73,0,0
1,note_on,72,47,0
1,note_on,68,39,0
1,note_on,68,0,120
1,note_on,72,0,0
1,note_on,71,47,0
1,note_on,67,39,0
1,note_on,67,0,120
1,note_on,71,0,0
1,note_on,70,48,0
1,note_on,66,48,0
1,note_on,66,0,120
1,note_on,70,0,0
1,note_on,69,48,0
1,note_on,65,48,0
1,note_on,65,0,120
1,note_on,69,0,0
1,note_on,68,49,0
1,note_on,64,41,0
1,note_on,64,0,120
1,note_on,68,0,0
1,note_on,67,49,0
1,note_on,63,41,0
1,note_on,63,0,120
1,note_on,67,0,0
1,note_on,66,50,0
1,note_on,62,42,0
1,note_on,62,0,120
1,note_on,66,0,0
1,note_on,65,50,0
1,note_on,61,42,0
1,note_on,61,0,120
1,note_on,65,0,0
1,note_on,64,51,0
1,note_on,60,42,0
1,note_on,60,0,120
1,note_on,64,0,0
1,note_on,63,51,0
1,note_on,59,42,0
1,note_on,59,0,120
1,note_on,63,0,0
1,note_on,53,44,3360
1,note_on,47,36,0
1,note_on,50,36,0
1,note_on,50,0,159
1,note_on,47,0,0
1,note_on,53,0,0
1,note_on,52,36,321
1,note_on,47,30,0
1,note_on,49,30,0
1,note_on,49,0,240
1,note_on,52,0,0
1,note_on,55,36,0
1,note_on,55,0,240
1,note_on,47,0,0
1,note_on,53,42,0
1,note_on,47,35,0
1,note_on,50,35,0
1,note_on,50,0,159
1,note_on,47,0,0
1,note_on,53,0,0
1,note_on,52,40,321
1,note_on,47,34,0
1,note_on,49,34,0
1,note_on,49,0,240
1,note_on,52,0,0
1,note_on,55,36,0
1,note_on,55,0,240
1,note_on,47,0,0
1,note_on,53,36,0
1,note_on,47,30,0
1,note_on,50,30,0
1,note_on,50,0,159
1,note_on,47,0,0
1,note_on,53,0,0
1,note_on,52,34,321
1,note_on,47,28,0
1,note_on,49,28,0
1,note_on,49,0,158
1,note_on,47,0,1
1,note_on,52,0,0
1,note_on,53,36,321
1,note_on,47,30,0
1,note_on,50,30,0
1,note_on,50,0,960
1,note_on,47,0,0
1,note_on,53,0,0
1,note_on,54,49,1920
1,note_on,48,41,0
1,note_on,51,41,0
1,note_on,51,0,158
1,note_on,48,0,0
1,note_on,54,0,0
1,note_on,53,40,322
1,note_on,50,34,0
1,note_on,48,34,0
1,note_on,48,0,240
1,note_on,53,0,0
1,note_on,56,40,0
1,note_on,56,0,240
1,note_on,50,0,0
1,note_on,54,47,0
1,note_on,48,39,0
1,note_on,51,39,0
1,note_on,51,0,158
1,note_on,48,0,0
1,note_on,54,0,0
1,note_on,53,45,322
1,note_on,50,38,0
1,note_on,48,38,0
1,note_on,48,0,240
1,note_on,53,0,0
1,note_on,56,40,0
1,note_on,56,0,240
1,note_on,50,0,0
1,note_on,54,40,0
1,note_on,48,34,0
1,note_on,51,34,0
1,note_on,51,0,158
1,note_on,48,0,0
1,note_on,54,0,0
1,note_on,53,38,322
1,note_on,50,32,0
1,note_on,48,32,0
1,note_on,48,0,158
1,note_on,50,0,0
1,note_on,53,0,0
1,note_on,54,40,322
1,note_on,48,34,0
1,note_on,51,34,0
1,note_on,51,0,960
1,note_on,48,0,0
1,note_on,54,0,0
1,note_on,55,58,1920
1,note_on,49,49,0
1,note_on,52,49,0
1,note_on,52,0,158
1,note_on,49,0,0
1,note_on,55,0,0
1,note_on,54,48,322
1,note_on,49,40,0
1,note_on,51,40,0
1,note_on,51,0,240
1,note_on,54,0,0
1,note_on,57,48,0
1,note_on,57,0,240
1,note_on,49,0,0
1,note_on,55,56,0
1,note_on,49,46,0
1,note_on,52,46,0
1,note_on,52,0,158
1,note_on,49,0,0
1,note_on,55,0,0
1,note_on,56,61,802
1,note_on,50,51,0
1,note_on,53,51,0
1,note_on,53,0,158
1,note_on,50,0,0
1,note_on,56,0,0
1,note_on,55,50,322
1,note_on,50,42,0
1,note_on,52,42,0
1,note_on,52,0,240
1,note_on,55,0,0
1,note_on,58,50,0
1,note_on,58,0,240
1,note_on,50,0,0
1,note_on,56,58,0
1,note_on,50,48,0
1,note_on,53,48,0
1,note_on,53,0,158
1,note_on,50,0,0
1,note_on,56,0,0
1,note_on,44,53,802
1,note_on,44,0,120
1,note_on,43,55,0
1,note_on,43,0,120
1,note_on,44,56,0
1,note_on,44,0,120
1,note_on,45,58,0
1,note_on,45,0,120
1,note_on,46,60,0
1,note_on,46,0,120
1,note_on,47,61,0
1,note_on,47,0,120
1,note_on,48,63,0
1,note_on,48,0,120
1,note_on,49,65,0
1,note_on,49,0,120
1,note_on,50,66,0
1,note_on,50,0,120
1,note_on,51,68,0
1,note_on,51,0,120
1,note_on,52,70,0
1,note_on,52,0,120
1,note_on,53,71,0
1,note_on,53,0,120
1,note_on,52,73,0
1,note_on,52,0,120
1,note_on,51,71,0
1,note_on,51,0,120
1,note_on,50,69,0
1,note_on,50,0,120
1,note_on,49,66,0
1,note_on,49,0,120
1,note_on,48,64,0
1,note_on,48,0,120
1,note_on,47,62,0
1,note_on,47,0,120
1,note_on,48,59,0
1,note_on,48,0,120
1,note_on,49,58,0
1,note_on,49,0,120
1,note_on,50,60,0
1,note_on,50,0,120
1,note_on,51,63,0
1,note_on,51,0,120
1,note_on,52,65,0
1,note_on,52,0,120
1,note_on,53,68,0
1,note_on,53,0,120
1,note_on,54,70,0
1,note_on,54,0,120
1,note_on,55,73,0
1,note_on,55,0,120
1,note_on,56,76,0
1,note_on,56,0,120
1,note_on,55,73,0
1,note_on,55,0,120
1,note_on,54,70,0
1,note_on,54,0,120
1,note_on,53,67,0
1,note_on,53,0,120
1,note_on,52,64,0
1,note_on,52,0,120
1,note_on,51,60,0
1,note_on,51,0,120
1,note_on,63,64,120
1,note_on,51,64,0
1,note_on,51,0,120
1,note_on,63,0,0
1,note_on,65,67,120
1,note_on,53,67,0
1,note_on,53,0,120
1,note_on,65,0,0
1,note_on,67,70,120
1,note_on,55,70,0
1,note_on,55,0,120
1,note_on,67,0,0
1,note_on,69,74,120
1,note_on,57,74,0
1,note_on,57,0,120
1,note_on,69,0,0
1,note_on,71,77,120
1,note_on,59,77,0
1,note_on,59,0,116
1,note_on,71,0,4
1,note_on,70,73,120
1,note_on,58,73,0
1,note_on,58,0,120
1,note_on,70,0,0
1,note_on,68,68,120
1,note_on,56,68,0
1,note_on,56,0,120
1,note_on,68,0,0
1,note_on,66,64,120
1,note_on,54,64,0
1,note_on,54,0,120
1,note_on,66,0,0
1,note_on,66,60,120
1,note_on,54,48,0
1,note_on,54,0,120
1,note_on,66,0,0
1,note_on,68,65,120
1,note_on,56,65,0
1,note_on,56,0,120
1,note_on,68,0,0
1,note_on,70,69,120
1,note_on,58,69,0
1,note_on,58,0,120
1,note_on,70,0,0
1,note_on,72,73,120
1,note_on,60,73,0
1,note_on,60,0,120
1,note_on,72,0,0
1,note_on,74,78,120
1,note_on,62,78,0
1,note_on,62,0,116
1,note_on,74,0,4
1,note_on,73,74,120
1,note_on,61,74,0
1,note_on,61,0,120
1,note_on,73,0,0
1,note_on,71,70,120
1,note_on,59,70,0
1,note_on,59,0,120
1,note_on,71,0,0
1,note_on,69,65,120
1,note_on,57,65,0
1,note_on,57,0,120
1,note_on,69,0,0
1,note_on,69,66,120
1,note_on,57,66,0
1,note_on,57,0,120
1,note_on,69,0,0
1,note_on,71,70,120
1,note_on,59,70,0
1,note_on,59,0,120
1,note_on,71,0,0
1,note_on,73,74,120
1,note_on,61,74,0
1,note_on,61,0,120
1,note_on,73,0,0
1,note_on,75,79,120
1,note_on,63,79,0
1,note_on,63,0,120
1,note_on,75,0,0
1,note_on,77,83,120
1,note_on,65,83,0
1,note_on,65,0,120
1,note_on,77,0,0
1,note_on,75,77,120
1,note_on,63,77,0
1,note_on,63,0,120
1,note_on,75,0,0
1,note_on,73,72,120
1,note_on,61,72,0
1,note_on,61,0,120
1,note_on,73,0,0
1,note_on,71,63,120
1,note_on,59,50,0
1,note_on,59,0,120
1,note_on,71,0,0
1,note_on,69,69,120
1,note_on,57,69,0
1,note_on,57,0,120
1,note_on,69,0,0
1,note_on,69,73,120
1,note_on,57,73,0
1,note_on,57,0,120
1,note_on,69,0,0
1,note_on,71,76,120
1,note_on,59,76,0
1,note_on,59,0,120
1,note_on,71,0,0
1,note_on,73,79,120
1,note_on,61,79,0
1,note_on,61,0,120
1,note_on,73,0,0
1,note_on,75,83,120
1,note_on,63,83,0
1,note_on,63,0,120
1,note_on,75,0,0
1,note_on,77,84,120
1,note_on,65,84,0
1,note_on,65,0,120
1,note_on,77,0,0
1,note_on,75,79,120
1,note_on,63,79,0
1,note_on,63,0,120
1,note_on,75,0,0
1,note_on,73,74,120
1,note_on,61,74,0
1,note_on,61,0,120
1,note_on,73,0,0
1,note_on,71,67,120
1,note_on,59,67,0
1,note_on,59,0,120
1,note_on,71,0,0
1,note_on,69,69,120
1,note_on,57,69,0
1,note_on,57,0,120
1,note_on,69,0,0
1,note_on,69,71,120
1,note_on,57,71,0
1,note_on,57,0,120
1,note_on,69,0,0
1,note_on,71,73,120
1,note_on,59,73,0
1,note_on,59,0,120
1,note_on,71,0,0
1,note_on,73,75,120
1,note_on,61,75,0
1,note_on,61,0,120
1,note_on,73,0,0
1,note_on,75,77,120
1,note_on,63,77,0
1,note_on,63,0,120
1,note_on,75,0,0
1,note_on,77,79,120
1,note_on,65,79,0
1,note_on,65,0,116
1,note_on,77,0,4
1,note_on,80,81,120
1,note_on,68,81,0
1,note_on,68,0,120
1,note_on,80,0,0
1,note_on,83,69,120
1,note_on,71,69,0
1,note_on,71,0,120
1,note_on,83,0,0
1,note_on,86,75,120
1,note_on,74,75,0
1,note_on,74,0,120
1,note_on,86,0,0
1,note_on,89,78,120
1,note_on,77,78,0
1,note_on,77,0,120
1,note_on,89,0,0
1,note_on,92,80,120
1,note_on,80,80,0
1,note_on,80,0,120
1,note_on,92,0,0
1,note_on,95,83,120
1,note_on,83,83,0
1,note_on,83,0,120
1,note_on,95,0,0
1,note_on,98,86,120
1,note_on,86,86,0
1,note_on,86,0,120
1,note_on,98,0,0
1,note_on,101,89,120
1,note_on,89,89,0
1,note_on,89,0,120
1,note_on,101,0,0
1,note_on,68,97,240
1,note_on,59,84,0
1,note_on,62,84,0
1,note_on,62,0,240
1,note_on,59,0,0
1,note_on,68,0,0
1,note_on,69,103,240
1,note_on,57,87,0
1,note_on,60,86,0
1,note_on,60,0,240
1,note_on,57,0,0
1,note_on,69,0,0
1,note_on,80,95,240
1,note_on,68,80,0
1,note_on,68,0,120
1,note_on,80,0,0
1,note_on,83,87,120
1,note_on,71,73,0
1,note_on,71,0,120
1,note_on,83,0,0
1,note_on,81,96,120
1,note_on,69,81,0
1,note_on,73,81,0
1,note_on,73,0,240
1,note_on,69,0,0
1,note_on,81,0,0
1,note_on,92,93,240
1,note_on,80,77,0
1,note_on,80,0,120
1,note_on,92,0,0
1,note_on,95,86,120
1,note_on,83,72,0
1,note_on,83,0,120
1,note_on,95,0,0
1,note_on,87,81,120
1,note_on,93,96,0
1,note_on,81,81,0
1,note_on,81,0,240
1,note_on,93,0,0
1,note_on,87,0,0
1,note_on,80,86,240
1,note_on,68,72,0
1,note_on,68,0,240
1,note_on,80,0,0
1,note_on,75,80,240
1,note_on,81,95,0
1,note_on,69,80,0
1,note_on,69,0,960
1,note_on,81,0,0
1,note_on,75,0,0
1,note_on,66,80,0
1,note_on,69,80,0
1,note_on,57,67,0
1,note_on,61,67,0
1,note_on,61,0,240
1,note_on,66,0,0
1,note_on,69,0,0
1,note_on,57,0,0
1,note_on,68,73,0
1,note_on,56,61,0
1,note_on,56,0,240
1,note_on,68,0,0
1,note_on,69,78,0
1,note_on,57,66,0
1,note_on,57,0,240
1,note_on,69,0,0
1,note_on,71,82,0
1,note_on,59,70,0
1,note_on,59,0,240
1,note_on,71,0,0
1,note_on,72,86,0
1,note_on,60,72,0
1,note_on,63,72,0
1,note_on,66,72,0
1,note_on,66,0,960
1,note_on,72,0,0
1,note_on,60,0,0
1,note_on,63,0,0
1,note_on,96,90,0
1,note_on,84,75,0
1,note_on,87,75,0
1,note_on,87,0,240
1,note_on,84,0,0
1,note_on,96,0,0
1,note_on,95,85,0
1,note_on,83,72,0
1,note_on,83,0,240
1,note_on,95,0,0
1,note_on,93,85,0
1,note_on,81,72,0
1,note_on,81,0,240
1,note_on,93,0,0
1,note_on,92,85,0
1,note_on,80,72,0
1,note_on,80,0,240
1,note_on,92,0,0
1,note_on,93,92,0
1,note_on,87,77,0
1,note_on,81,77,0
1,note_on,81,0,720
1,note_on,87,0,0
1,note_on,93,0,0
1,note_on,72,77,0
1,note_on,60,65,0
1,note_on,60,0,120
1,note_on,72,0,0
1,note_on,71,85,120
1,note_on,59,71,0
1,note_on,59,0,240
1,note_on,71,0,0
1,note_on,69,77,0
1,note_on,57,65,0
1,note_on,57,0,192
1,note_on,69,0,0
1,note_on,67,77,48
1,note_on,55,65,0
1,note_on,55,0,120
1,note_on,67,0,0
1,note_on,71,77,120
1,note_on,59,65,0
1,note_on,59,0,120
1,note_on,71,0,0
1,note_on,69,85,120
1,note_on,57,71,0
1,note_on,57,0,240
1,note_on,69,0,0
1,note_on,67,78,0
1,note_on,55,66,0
1,note_on,55,0,192
1,note_on,67,0,0
1,note_on,65,78,48
1,note_on,53,66,0
1,note_on,53,0,120
1,note_on,65,0,0
1,note_on,69,80,120
1,note_on,57,67,0
1,note_on,57,0,120
1,note_on,69,0,0
1,note_on,67,89,120
1,note_on,55,75,0
1,note_on,55,0,240
1,note_on,67,0,0
1,note_on,65,80,0
1,note_on,53,67,0
1,note_on,53,0,192
1,note_on,65,0,0
1,note_on,64,80,48
1,note_on,52,67,0
1,note_on,52,0,120
1,note_on,64,0,0
1,note_on,67,80,120
1,note_on,55,67,0
1,note_on,55,0,120
1,note_on,67,0,0
1,note_on,65,90,120
1,note_on,53,76,0
1,note_on,53,0,240
1,note_on,65,0,0
1,note_on,64,80,0
1,note_on,52,67,0
1,note_on,52,0,192
1,note_on,64,0,0
1,note_on,63,80,48
1,note_on,51,67,0
1,note_on,51,0,120
1,note_on,63,0,0
1,note_on,65,80,120
1,note_on,53,67,0
1,note_on,53,0,120
1,note_on,65,0,0
1,note_on,65,89,120
1,note_on,53,75,0
1,note_on,53,0,240
1,note_on,65,0,0
1,note_on,64,80,0
1,note_on,52,67,0
1,note_on,52,0,192
1,note_on,64,0,0
1,note_on,64,80,48
1,note_on,52,67,0
1,note_on,52,0,120
1,note_on,64,0,0
1,note_on,63,80,120
1,note_on,51,67,0
1,note_on,51,0,120
1,note_on,63,0,0
1,note_on,65,92,120
1,note_on,53,77,0
1,note_on,53,0,240
1,note_on,65,0,0
1,note_on,64,80,0
1,note_on,52,67,0
1,note_on,52,0,192
1,note_on,64,0,0
1,note_on,64,80,48
1,note_on,52,67,0
1,note_on,52,0,120
1,note_on,64,0,0
1,note_on,63,80,120
1,note_on,51,67,0
1,note_on,51,0,120
1,note_on,63,0,0
1,note_on,64,97,120
1,note_on,52,82,0
1,note_on,52,0,960
1,note_on,64,0,0
1,note_on,76,94,0
1,note_on,71,78,0
1,note_on,68,78,0
1,note_on,64,78,0
1,note_on,64,0,240
1,note_on,76,0,0
1,note_on,71,0,0
1,note_on,68,0,0
1,note_on,76,77,240
1,note_on,76,0,160
1,note_on,78,80,0
1,note_on,78,0,160
1,note_on,80,82,0
1,note_on,80,0,160
1,note_on,81,92,0
1,note_on,69,78,0
1,note_on,69,0,240
1,note_on,81,0,0
1,note_on,71,64,240
1,note_on,80,76,0
1,note_on,68,64,0
1,note_on,68,0,120
1,note_on,80,0,0
1,note_on,71,0,0
1,note_on,74,58,120
1,note_on,83,69,0
1,note_on,71,58,0
1,note_on,71,0,120
1,note_on,83,0,0
1,note_on,74,0,0
1,note_on,81,86,120
1,note_on,69,72,0
1,note_on,72,72,0
1,note_on,72,0,240
1,note_on,69,0,0
1,note_on,81,0,0
1,note_on,71,63,240
1,note_on,80,73,0
1,note_on,68,63,0
1,note_on,68,0,120
1,note_on,80,0,0
1,note_on,71,0,0
1,note_on,74,57,120
1,note_on,83,68,0
1,note_on,71,57,0
1,note_on,71,0,120
1,note_on,83,0,0
1,note_on,74,0,0
1,note_on,72,72,120
1,note_on,81,86,0
1,note_on,69,72,0
1,note_on,69,0,120
1,note_on,81,0,0
1,note_on,72,0,0
1,note_on,71,57,360
1,note_on,80,68,0
1,note_on,68,57,0
1,note_on,68,0,120
1,note_on,80,0,0
1,note_on,71,0,0
1,note_on,72,72,360
1,note_on,81,85,0
1,note_on,69,72,0
1,note_on,69,0,960
1,note_on,81,0,0
1,note_on,72,0,0
1,note_on,89,72,0
1,note_on,93,77,0
1,note_on,81,60,0
1,note_on,84,60,0
1,note_on,84,0,240
1,note_on,89,0,0
1,note_on,93,0,0
1,note_on,81,0,0
1,note_on,92,65,0
1,note_on,80,54,0
1,note_on,80,0,240
1,note_on,92,0,0
1,note_on,93,70,0
1,note_on,81,59,0
1,note_on,81,0,240
1,note_on,93,0,0
1,note_on,95,73,0
1,note_on,83,63,0
1,note_on,83,0,240
1,note_on,95,0,0
1,note_on,96,81,0
1,note_on,84,64,0
1,note_on,88,64,0
1,note_on,88,0,960
1,note_on,84,0,0
1,note_on,96,0,0
1,note_on,96,81,0
1,note_on,84,64,0
1,note_on,89,64,0
1,note_on,89,0,240
1,note_on,84,0,0
1,note_on,96,0,0
1,note_on,95,72,0
1,note_on,83,62,0
1,note_on,83,0,240
1,note_on,95,0,0
1,note_on,93,72,0
1,note_on,81,62,0
1,note_on,81,0,240
1,note_on,93,0,0
1,note_on,92,72,0
1,note_on,80,62,0
1,note_on,80,0,240
1,note_on,92,0,0
1,note_on,84,66,0
1,note_on,93,83,0
1,note_on,88,66,0
1,note_on,81,66,0
1,note_on,81,0,720
1,note_on,84,0,0
1,note_on,93,0,0
1,note_on,88,0,0
1,note_on,96,69,0
1,note_on,84,58,0
1,note_on,84,0,120
1,note_on,96,0,0
1,note_on,95,76,120
1,note_on,83,63,0
1,note_on,83,0,240
1,note_on,95,0,0
1,note_on,93,69,0
1,note_on,81,58,0
1,note_on,81,0,192
1,note_on,93,0,0
1,note_on,92,69,48
1,note_on,80,58,0
1,note_on,80,0,120
1,note_on,92,0,0
1,note_on,95,69,120
1,note_on,83,58,0
1,note_on,83,0,120
1,note_on,95,0,0
1,note_on,93,76,120
1,note_on,81,63,0
1,note_on,81,0,240
1,note_on,93,0,0
1,note_on,85,70,0
1,note_on,73,59,0
1,note_on,73,0,192
1,note_on,85,0,0
1,note_on,90,70,48
1,note_on,78,59,0
1,note_on,78,0,120
1,note_on,90,0,0
1,note_on,93,72,120
1,note_on,81,60,0
1,note_on,81,0,120
1,note_on,93,0,0
1,note_on,92,80,120
1,note_on,80,67,0
1,note_on,80,0,240
1,note_on,92,0,0
1,note_on,90,72,0
1,note_on,78,60,0
1,note_on,78,0,192
1,note_on,90,0,0
1,note_on,88,72,48
1,note_on,76,60,0
1,note_on,76,0,120
1,note_on,88,0,0
1,note_on,92,72,120
1,note_on,80,60,0
1,note_on,80,0,120
1,note_on,92,0,0
1,note_on,90,81,120
1,note_on,78,68,0
1,note_on,78,0,240
1,note_on,90,0,0
1,note_on,88,72,0
1,note_on,76,60,0
1,note_on,76,0,192
1,note_on,88,0,0
1,note_on,87,72,48
1,note_on,75,60,0
1,note_on,75,0,120
1,note_on,87,0,0
1,note_on,90,72,120
1,note_on,78,60,0
1,note_on,78,0,120
1,note_on,90,0,0
1,note_on,90,80,120
1,note_on,78,67,0
1,note_on,78,0,240
1,note_on,90,0,0
1,note_on,88,72,0
1,note_on,76,60,0
1,note_on,76,0,192
1,note_on,88,0,0
1,note_on,88,72,48
1,note_on,76,60,0
1,note_on,76,0,120
1,note_on,88,0,0
1,note_on,87,72,120
1,note_on,75,60,0
1,note_on,75,0,120
1,note_on,87,0,0
1,note_on,90,82,120
1,note_on,78,69,0
1,note_on,78,0,240
1,note_on,90,0,0
1,note_on,88,72,0
1,note_on,76,60,0
1,note_on,76,0,192
1,note_on,88,0,0
1,note_on,88,72,48
1,note_on,76,60,0
1,note_on,76,0,120
1,note_on,88,0,0
1,note_on,87,72,120
1,note_on,75,60,0
1,note_on,75,0,120
1,note_on,87,0,0
1,note_on,83,73,120
1,note_on,80,73,0
1,note_on,88,87,0
1,note_on,76,73,0
1,note_on,76,0,960
1,note_on,83,0,0
1,note_on,80,0,0
1,note_on,88,0,0
1,note_on,100,84,0
1,note_on,95,70,0
1,note_on,92,70,0
1,note_on,88,70,0
1,note_on,88,0,240
1,note_on,100,0,0
1,note_on,95,0,0
1,note_on,92,0,0
1,note_on,76,87,600
1,note_on,64,73,0
1,note_on,68,73,0
1,note_on,71,73,0
1,note_on,71,0,120
1,note_on,76,0,0
1,note_on,64,0,0
1,note_on,68,0,0
1,note_on,76,95,0
1,note_on,64,79,0
1,note_on,68,79,0
1,note_on,71,79,0
1,note_on,71,0,240
1,note_on,76,0,0
1,note_on,64,0,0
1,note_on,68,0,0
1,note_on,68,73,720
1,note_on,73,73,0
1,note_on,80,87,0
1,note_on,76,73,0
1,note_on,76,0,240
1,note_on,68,0,0
1,note_on,73,0,0
1,note_on,80,0,0
1,note_on,71,79,720
1,note_on,83,95,0
1,note_on,75,79,0
1,note_on,80,79,0
1,note_on,80,0,1440
1,note_on,71,0,0
1,note_on,83,0,0
1,note_on,75,0,0
1,note_on,71,79,0
1,note_on,76,79,0
1,note_on,80,79,0
1,note_on,83,95,0
1,note_on,83,0,360
1,note_on,71,0,0
1,note_on,76,0,0
1,note_on,80,0,0
1,note_on,88,87,0
1,note_on,76,73,0
1,note_on,76,0,120
1,note_on,88,0,0
1,note_on,71,79,0
1,note_on,80,95,0
1,note_on,83,95,0
1,note_on,75,79,0
1,note_on,75,0,240
1,note_on,71,0,0
1,note_on,80,0,0
1,note_on,83,0,0
1,note_on,80,79,240
1,note_on,71,79,0
1,note_on,76,79,0
1,note_on,83,95,0
1,note_on,83,0,360
1,note_on,80,0,0
1,note_on,71,0,0
1,note_on,76,0,0
1,note_on,76,73,0
1,note_on,88,87,0
1,note_on,88,0,120
1,note_on,76,0,0
1,note_on,71,79,0
1,note_on,75,79,0
1,note_on,80,95,0
1,note_on,83,95,0
1,note_on,83,0,240
1,note_on,71,0,0
1,note_on,75,0,0
1,note_on,80,0,0
1,note_on,76,79,240
1,note_on,80,79,0
1,note_on,71,79,0
1,note_on,83,95,0
1,note_on,83,0,360
1,note_on,76,0,0
1,note_on,80,0,0
1,note_on,71,0,0
1,note_on,88,87,0
1,note_on,76,73,0
1,note_on,76,0,120
1,note_on,88,0,0
1,note_on,71,79,0
1,note_on,83,95,0
1,note_on,75,79,0
1,note_on,80,79,0
1,note_on,80,0,1920
1,note_on,71,0,0
1,note_on,83,0,0
1,note_on,75,0,0
1,note_on,88,99,0
1,note_on,74,84,0
1,note_on,83,84,0
1,note_on,76,84,0
1,note_on,80,84,0
1,note_on,80,0,180
1,note_on,83,0,0
1,note_on,88,0,0
1,note_on,74,0,0
1,note_on,76,0,0
1,note_on,96,79,1740
1,note_on,93,79,0
1,note_on,93,0,180
1,note_on,96,0,0
1,note_on,91,60,0
1,note_on,95,60,0
1,note_on,95,0,60
1,note_on,91,0,0
1,note_on,93,59,0
1,note_on,89,59,0
1,note_on,89,0,120
1,note_on,93,0,0
1,note_on,91,58,0
1,note_on,88,58,0
1,note_on,88,0,120
1,note_on,91,0,0
1,note_on,89,57,0
1,note_on,86,57,0
1,note_on,86,0,120
1,note_on,89,0,0
1,note_on,88,56,0
1,note_on,84,56,0
1,note_on,84,0,120
1,note_on,88,0,0
1,note_on,86,54,0
1,note_on,83,54,0
1,note_on,83,0,120
1,note_on,86,0,0
1,note_on,84,53,0
1,note_on,81,53,0
1,note_on,81,0,120
1,note_on,84,0,0
1,note_on,83,51,0
1,note_on,79,51,0
1,note_on,79,0,69
1,note_on,83,0,0
1,note_on,81,51,0
1,note_on,77,51,0
1,note_on,77,0,68
1,note_on,81,0,0
1,note_on,79,50,0
1,note_on,76,50,0
1,note_on,77,50,68
1,note_on,74,50,0
1,note_on,76,0,1
1,note_on,79,0,0
1,note_on,77,0,68
1,note_on,74,0,0
1,note_on,72,49,0
1,note_on,76,49,0
1,note_on,76,0,68
1,note_on,72,0,0
1,note_on,71,48,0
1,note_on,74,48,0
1,note_on,74,0,69
1,note_on,71,0,0
1,note_on,69,47,0
1,note_on,72,47,0
1,note_on,72,0,68
1,note_on,69,0,0
1,note_on,71,47,1
1,note_on,67,47,0
1,note_on,67,0,240
1,note_on,71,0,0
1,note_on,93,79,240
1,note_on,89,79,0
1,note_on,89,0,180
1,note_on,93,0,0
1,note_on,88,60,0
1,note_on,91,60,0
1,note_on,91,0,60
1,note_on,88,0,0
1,note_on,89,59,0
1,note_on,86,59,0
1,note_on,86,0,120
1,note_on,89,0,0
1,note_on,88,58,0
1,note_on,84,58,0
1,note_on,84,0,120
1,note_on,88,0,0
1,note_on,86,57,0
1,note_on,83,57,0
1,note_on,83,0,120
1,note_on,86,0,0
1,note_on,84,55,0
1,note_on,81,55,0
1,note_on,81,0,120
1,note_on,84,0,0
1,note_on,83,54,0
1,note_on,79,54,0
1,note_on,79,0,120
1,note_on,83,0,0
1,note_on,81,52,0
1,note_on,77,52,0
1,note_on,77,0,120
1,note_on,81,0,0
1,note_on,79,50,0
1,note_on,76,50,0
1,note_on,76,0,69
1,note_on,79,0,0
1,note_on,77,49,0
1,note_on,74,49,0
1,note_on,74,0,68
1,note_on,77,0,0
1,note_on,76,48,0
1,note_on,72,48,0
1,note_on,74,47,68
1,note_on,71,47,0
1,note_on,72,0,1
1,note_on,76,0,0
1,note_on,74,0,68
1,note_on,71,0,0
1,note_on,69,46,0
1,note_on,72,46,0
1,note_on,72,0,68
1,note_on,69,0,0
1,note_on,67,45,0
1,note_on,71,45,0
1,note_on,71,0,69
1,note_on,67,0,0
1,note_on,65,43,0
1,note_on,69,43,0
1,note_on,69,0,68
1,note_on,65,0,0
1,note_on,67,42,1
1,note_on,64,42,0
1,note_on,64,0,240
1,note_on,67,0,0
1,note_on,89,79,240
1,note_on,86,79,0
1,note_on,86,0,180
1,note_on,89,0,0
1,note_on,84,61,0
1,note_on,88,61,0
1,note_on,88,0,60
1,note_on,84,0,0
1,note_on,86,60,0
1,note_on,83,60,0
1,note_on,83,0,120
1,note_on,86,0,0
1,note_on,84,59,0
1,note_on,81,59,0
1,note_on,81,0,120
1,note_on,84,0,0
1,note_on,83,58,0
1,note_on,79,58,0
1,note_on,79,0,120
1,note_on,83,0,0
1,note_on,81,57,0
1,note_on,77,57,0
1,note_on,77,0,120
1,note_on,81,0,0
1,note_on,79,55,0
1,note_on,76,55,0
1,note_on,76,0,120
1,note_on,79,0,0
1,note_on,77,54,0
1,note_on,74,54,0
1,note_on,74,0,120
1,note_on,77,0,0
1,note_on,76,53,0
1,note_on,72,53,0
1,note_on,72,0,69
1,note_on,76,0,0
1,note_on,74,52,0
1,note_on,71,52,0
1,note_on,71,0,68
1,note_on,74,0,0
1,note_on,72,51,0
1,note_on,69,51,0
1,note_on,71,50,68
1,note_on,67,50,0
1,note_on,69,0,1
1,note_on,72,0,0
1,note_on,71,0,68
1,note_on,67,0,0
1,note_on,65,49,0
1,note_on,69,49,0
1,note_on,69,0,68
1,note_on,65,0,0
1,note_on,64,47,0
1,note_on,67,47,0
1,note_on,67,0,69
1,note_on,64,0,0
1,note_on,62,46,0
1,note_on,65,46,0
1,note_on,65,0,68
1,note_on,62,0,0
1,note_on,64,45,1
1,note_on,60,45,0
1,note_on,60,0,240
1,note_on,64,0,0
1,note_on,86,79,240
1,note_on,83,79,0
1,note_on,83,0,180
1,note_on,86,0,0
1,note_on,81,59,0
1,note_on,84,59,0
1,note_on,84,0,60
1,note_on,81,0,0
1,note_on,83,58,0
1,note_on,79,58,0
1,note_on,79,0,120
1,note_on,83,0,0
1,note_on,81,57,0
1,note_on,77,57,0
1,note_on,77,0,120
1,note_on,81,0,0
1,note_on,79,56,0
1,note_on,76,56,0
1,note_on,76,0,120
1,note_on,79,0,0
1,note_on,77,54,0
1,note_on,74,54,0
1,note_on,74,0,120
1,note_on,77,0,0
1,note_on,76,53,0
1,note_on,72,53,0
1,note_on,72,0,120
1,note_on,76,0,0
1,note_on,74,52,0
1,note_on,71,52,0
1,note_on,71,0,120
1,note_on,74,0,0
1,note_on,72,51,0
1,note_on,69,51,0
1,note_on,69,0,69
1,note_on,72,0,0
1,note_on,71,50,0
1,note_on,67,50,0
1,note_on,67,0,68
1,note_on,71,0,0
1,note_on,69,49,0
1,note_on,65,49,0
1,note_on,67,49,68
1,note_on,64,49,0
1,note_on,65,0,1
1,note_on,69,0,0
1,note_on,67,0,68
1,note_on,64,0,0
1,note_on,62,48,0
1,note_on,65,48,0
1,note_on,65,0,68
1,note_on,62,0,0
1,note_on,60,47,0
1,note_on,64,47,0
1,note_on,64,0,69
1,note_on,60,0,0
1,note_on,59,45,0
1,note_on,62,45,0
1,note_on,62,0,68
1,note_on,59,0,0
1,note_on,60,44,1
1,note_on,57,44,0
1,note_on,57,0,240
1,note_on,60,0,0
1,note_on,83,79,240
1,note_on,79,79,0
1,note_on,79,0,180
1,note_on,83,0,0
1,note_on,77,62,0
1,note_on,81,62,0
1,note_on,81,0,60
1,note_on,77,0,0
1,note_on,79,61,0
1,note_on,76,61,0
1,note_on,76,0,120
1,note_on,79,0,0
1,note_on,77,59,0
1,note_on,74,59,0
1,note_on,74,0,120
1,note_on,77,0,0
1,note_on,76,57,0
1,note_on,72,57,0
1,note_on,72,0,120
1,note_on,76,0,0
1,note_on,74,56,0
1,note_on,71,56,0
1,note_on,71,0,120
1,note_on,74,0,0
1,note_on,72,54,0
1,note_on,69,54,0
1,note_on,69,0,120
1,note_on,72,0,0
1,note_on,71,53,0
1,note_on,67,53,0
1,note_on,67,0,120
1,note_on,71,0,0
1,note_on,69,50,0
1,note_on,65,50,0
1,note_on,65,0,69
1,note_on,69,0,0
1,note_on,67,49,0
1,note_on,64,49,0
1,note_on,64,0,68
1,note_on,67,0,0
1,note_on,65,48,0
1,note_on,62,48,0
1,note_on,64,47,68
1,note_on,60,47,0
1,note_on,62,0,1
1,note_on,65,0,0
1,note_on,64,0,68
1,note_on,60,0,0
1,note_on,59,46,0
1,note_on,62,46,0
1,note_on,62,0,68
1,note_on,59,0,0
1,note_on,57,45,0
1,note_on,60,45,0
1,note_on,60,0,69
1,note_on,57,0,0
1,note_on,55,44,0
1,note_on,59,44,0
1,note_on,59,0,68
1,note_on,55,0,0
1,note_on,57,43,1
1,note_on,53,43,0
1,note_on,53,0,240
1,note_on,57,0,0
1,note_on,52,73,400
1,note_on,52,0,160
1,note_on,56,75,0
1,note_on,56,0,160
1,note_on,64,77,0
1,note_on,64,0,144
1,note_on,64,72,16
1,note_on,64,0,160
1,note_on,68,72,0
1,note_on,68,0,160
1,note_on,64,77,0
1,note_on,64,0,144
1,note_on,64,74,16
1,note_on,64,0,160
1,note_on,68,74,0
1,note_on,68,0,160
1,note_on,76,77,0
1,note_on,76,0,144
1,note_on,76,74,16
1,note_on,76,0,160
1,note_on,80,74,0
1,note_on,80,0,160
1,note_on,76,77,0
1,note_on,76,0,144
1,note_on,76,73,16
1,note_on,76,0,160
1,note_on,80,75,0
1,note_on,80,0,160
1,note_on,88,77,0
1,note_on,88,0,144
1,note_on,88,72,16
1,note_on,88,0,160
1,note_on,92,72,0
1,note_on,92,0,160
1,note_on,88,77,0
1,note_on,88,0,144
1,note_on,88,74,16
1,note_on,88,0,160
1,note_on,92,74,0
1,note_on,92,0,160
1,note_on,100,77,0
1,note_on,100,0,160
1,note_on,92,74,0
1,note_on,92,0,160
1,note_on,104,74,0
1,note_on,104,0,160
1,note_on,88,77,0
1,note_on,88,0,160
1,note_on,100,73,0
1,note_on,100,0,160
1,note_on,92,75,0
1,note_on,92,0,160
1,note_on,104,78,0
1,note_on,104,0,160
1,note_on,88,74,0
1,note_on,88,0,160
1,note_on,100,74,0
1,note_on,100,0,160
1,note_on,92,84,0
1,note_on,92,0,160
1,note_on,104,79,0
1,note_on,104,0,160
1,note_on,88,79,0
1,note_on,88,0,160
1,note_on,100,87,0
1,note_on,100,0,160
1,note_on,92,83,0
1,note_on,92,0,160
1,note_on,104,83,0
1,note_on,104,0,160
1,note_on,88,91,0
1,note_on,88,0,480
1,note_on,100,98,0
1,note_on,92,83,0
1,note_on,95,83,0
1,note_on,95,0,120
1,note_on,92,0,0
1,note_on,100,0,0
1,note_on,76,81,600
1,note_on,64,68,0
1,note_on,64,0,240
1,note_on,76,0,0
1,note_on,78,86,0
1,note_on,66,73,0
1,note_on,66,0,240
1,note_on,78,0,0
1,note_on,80,90,0
1,note_on,68,76,0
1,note_on,68,0,240
1,note_on,80,0,0
1,note_on,72,79,0
1,note_on,81,93,0
1,note_on,69,79,0
1,note_on,69,0,240
1,note_on,81,0,0
1,note_on,72,0,0
1,note_on,71,63,240
1,note_on,80,74,0
1,note_on,68,63,0
1,note_on,68,0,120
1,note_on,80,0,0
1,note_on,71,0,0
1,note_on,74,57,120
1,note_on,83,68,0
1,note_on,71,57,0
1,note_on,71,0,120
1,note_on,83,0,0
1,note_on,74,0,0
1,note_on,81,84,120
1,note_on,69,71,0
1,note_on,72,71,0
1,note_on,72,0,240
1,note_on,69,0,0
1,note_on,81,0,0
1,note_on,71,61,240
1,note_on,80,72,0
1,note_on,68,61,0
1,note_on,68,0,120
1,note_on,80,0,0
1,note_on,71,0,0
1,note_on,74,56,120
1,note_on,83,67,0
1,note_on,71,56,0
1,note_on,71,0,120
1,note_on,83,0,0
1,note_on,74,0,0
1,note_on,72,71,120
1,note_on,81,84,0
1,note_on,69,71,0
1,note_on,69,0,120
1,note_on,81,0,0
1,note_on,72,0,0
1,note_on,71,56,360
1,note_on,80,67,0
1,note_on,68,56,0
1,note_on,68,0,120
1,note_on,80,0,0
1,note_on,71,0,0
1,note_on,72,70,360
1,note_on,81,83,0
1,note_on,69,70,0
1,note_on,69,0,960
1,note_on,81,0,0
1,note_on,72,0,0
1,note_on,93,75,0
1,note_on,81,63,0
1,note_on,81,0,120
1,note_on,93,0,0
1,note_on,95,79,120
1,note_on,83,67,0
1,note_on,83,0,120
1,note_on,95,0,0
1,note_on,96,82,120
1,note_on,84,69,0
1,note_on,84,0,720
1,note_on,96,0,0
1,note_on,95,74,0
1,note_on,83,62,0
1,note_on,83,0,120
1,note_on,95,0,0
1,note_on,93,83,120
1,note_on,81,70,0
1,note_on,81,0,720
1,note_on,93,0,0
1,note_on,91,75,0
1,note_on,79,63,0
1,note_on,79,0,120
1,note_on,91,0,0
1,note_on,89,84,120
1,note_on,77,71,0
1,note_on,77,0,720
1,note_on,89,0,0
1,note_on,88,81,0
1,note_on,76,68,0
1,note_on,76,0,120
1,note_on,88,0,0
1,note_on,86,81,120
1,note_on,74,68,0
1,note_on,74,0,120
1,note_on,86,0,0
1,note_on,85,81,120
1,note_on,73,68,0
1,note_on,73,0,120
1,note_on,85,0,0
1,note_on,77,76,120
1,note_on,74,76,0
1,note_on,86,90,0
1,note_on,86,0,240
1,note_on,74,0,0
1,note_on,77,0,0
1,note_on,76,63,240
1,note_on,73,63,0
1,note_on,85,74,0
1,note_on,85,0,120
1,note_on,73,0,0
1,note_on,76,0,0
1,note_on,76,57,120
1,note_on,88,68,0
1,note_on,79,57,0
1,note_on,79,0,120
1,note_on,88,0,0
1,note_on,76,0,0
1,note_on,74,71,120
1,note_on,86,84,0
1,note_on,77,71,0
1,note_on,77,0,240
1,note_on,86,0,0
1,note_on,74,0,0
1,note_on,76,61,240
1,note_on,73,61,0
1,note_on,85,72,0
1,note_on,85,0,120
1,note_on,73,0,0
1,note_on,76,0,0
1,note_on,79,56,120
1,note_on,88,67,0
1,note_on,76,56,0
1,note_on,76,0,120
1,note_on,88,0,0
1,note_on,79,0,0
1,note_on,74,71,120
1,note_on,86,84,0
1,note_on,77,71,0
1,note_on,77,0,120
1,note_on,86,0,0
1,note_on,74,0,0
1,note_on,76,56,360
1,note_on,73,56,0
1,note_on,85,67,0
1,note_on,85,0,120
1,note_on,73,0,0
1,note_on,76,0,0
1,note_on,74,70,360
1,note_on,77,70,0
1,note_on,86,83,0
1,note_on,86,0,960
1,note_on,77,0,0
1,note_on,74,0,0
1,note_on,98,75,0
1,note_on,86,63,0
1,note_on,86,0,120
1,note_on,98,0,0
1,note_on,100,79,120
1,note_on,88,67,0
1,note_on,88,0,120
1,note_on,100,0,0
1,note_on,101,82,120
1,note_on,89,69,0
1,note_on,89,0,720
1,note_on,101,0,0
1,note_on,100,74,0
1,note_on,88,62,0
1,note_on,88,0,120
1,note_on,100,0,0
1,note_on,98,83,120
1,note_on,86,70,0
1,note_on,86,0,720
1,note_on,98,0,0
1,note_on,96,75,0
1,note_on,84,63,0
1,note_on,84,0,120
1,note_on,96,0,0
1,note_on,95,84,120
1,note_on,83,71,0
1,note_on,83,0,720
1,note_on,95,0,0
1,note_on,93,77,0
1,note_on,81,65,0
1,note_on,81,0,120
1,note_on,93,0,0
1,note_on,92,77,120
1,note_on,80,65,0
1,note_on,80,0,120
1,note_on,92,0,0
1,note_on,93,77,120
1,note_on,81,65,0
1,note_on,81,0,120
1,note_on,93,0,0
1,note_on,92,79,120
1,note_on,80,67,0
1,note_on,80,0,120
1,note_on,92,0,0
1,note_on,95,84,120
1,note_on,83,71,0
1,note_on,83,0,120
1,note_on,95,0,0
1,note_on,100,88,120
1,note_on,88,74,0
1,note_on,88,0,240
1,note_on,100,0,0
1,note_on,64,86,240
1,note_on,56,73,0
1,note_on,59,73,0
1,note_on,59,0,960
1,note_on,56,0,0
1,note_on,64,0,0
1,note_on,93,79,0
1,note_on,81,67,0
1,note_on,81,0,120
1,note_on,93,0,0
1,note_on,96,84,120
1,note_on,84,71,0
1,note_on,84,0,120
1,note_on,96,0,0
1,note_on,100,88,120
1,note_on,88,74,0
1,note_on,88,0,240
1,note_on,100,0,0
1,note_on,64,86,240
1,note_on,57,73,0
1,note_on,60,73,0
1,note_on,60,0,960
1,note_on,57,0,0
1,note_on,64,0,0
1,note_on,80,73,0
1,note_on,71,62,0
1,note_on,71,0,120
1,note_on,80,0,0
1,note_on,83,65,120
1,note_on,74,55,0
1,note_on,74,0,120
1,note_on,83,0,0
1,note_on,80,73,120
1,note_on,71,62,0
1,note_on,71,0,120
1,note_on,80,0,0
1,note_on,83,67,120
1,note_on,74,56,0
1,note_on,74,0,120
1,note_on,83,0,0
1,note_on,53,84,120
1,note_on,53,0,480
1,note_on,52,74,0
1,note_on,52,0,120
1,note_on,81,73,360
1,note_on,72,62,0
1,note_on,72,0,120
1,note_on,81,0,0
1,note_on,84,65,120
1,note_on,76,55,0
1,note_on,76,0,120
1,note_on,84,0,0
1,note_on,81,73,120
1,note_on,72,62,0
1,note_on,72,0,120
1,note_on,81,0,0
1,note_on,84,67,120
1,note_on,76,56,0
1,note_on,76,0,120
1,note_on,84,0,0
1,note_on,53,84,120
1,note_on,53,0,480
1,note_on,52,74,0
1,note_on,52,0,120
1,note_on,95,87,360
1,note_on,101,87,0
1,note_on,89,73,0
1,note_on,92,73,0
1,note_on,100,86,240
1,note_on,88,73,0
1,note_on,92,0,24
1,note_on,89,0,0
1,note_on,95,0,0
1,note_on,101,0,0
1,note_on,98,84,216
1,note_on,86,71,0
1,note_on,88,0,24
1,note_on,100,0,0
1,note_on,96,83,216
1,note_on,84,70,0
1,note_on,98,0,24
1,note_on,86,0,0
1,note_on,95,81,216
1,note_on,83,68,0
1,note_on,96,0,24
1,note_on,84,0,0
1,note_on,93,80,216
1,note_on,81,68,0
1,note_on,95,0,24
1,note_on,83,0,0
1,note_on,92,79,216
1,note_on,80,67,0
1,note_on,93,0,24
1,note_on,81,0,0
1,note_on,88,77,216
1,note_on,76,65,0
1,note_on,92,0,24
1,note_on,80,0,0
1,note_on,89,80,216
1,note_on,77,68,0
1,note_on,80,68,0
1,note_on,83,68,0
1,note_on,88,0,24
1,note_on,76,0,0
1,note_on,88,77,216
1,note_on,76,65,0
1,note_on,80,0,24
1,note_on,89,0,0
1,note_on,77,0,0
1,note_on,83,0,0
1,note_on,86,75,216
1,note_on,74,63,0
1,note_on,76,0,24
1,note_on,88,0,0
1,note_on,84,73,216
1,note_on,72,62,0
1,note_on,86,0,24
1,note_on,74,0,0
1,note_on,83,72,216
1,note_on,71,61,0
1,note_on,84,0,24
1,note_on,72,0,0
1,note_on,81,70,216
1,note_on,69,59,0
1,note_on,83,0,24
1,note_on,71,0,0
1,note_on,80,68,216
1,note_on,68,57,0
1,note_on,81,0,24
1,note_on,69,0,0
1,note_on,76,67,216
1,note_on,64,56,0
1,note_on,80,0,24
1,note_on,68,0,0
1,note_on,77,71,216
1,note_on,65,60,0
1,note_on,76,0,24
1,note_on,64,0,0
1,note_on,75,64,216
1,note_on,63,54,0
1,note_on,77,0,24
1,note_on,65,0,0
1,note_on,76,69,216
1,note_on,64,58,0
1,note_on,75,0,24
1,note_on,63,0,0
1,note_on,74,65,216
1,note_on,62,55,0
1,note_on,76,0,24
1,note_on,64,0,0
1,note_on,75,69,216
1,note_on,63,58,0
1,note_on,74,0,24
1,note_on,62,0,0
1,note_on,73,66,216
1,note_on,61,56,0
1,note_on,75,0,24
1,note_on,63,0,0
1,note_on,74,73,216
1,note_on,62,62,0
1,note_on,73,0,24
1,note_on,61,0,0
1,note_on,72,69,216
1,note_on,60,58,0
1,note_on,74,0,24
1,note_on,62,0,0
1,note_on,72,0,216
1,note_on,60,0,0
1,note_on,73,77,0
1,note_on,61,64,0
1,note_on,61,0,240
1,note_on,73,0,0
1,note_on,71,72,0
1,note_on,59,60,0
1,note_on,59,0,240
1,note_on,71,0,0
1,note_on,72,83,0
1,note_on,60,71,0
1,note_on,60,0,240
1,note_on,72,0,0
1,note_on,70,78,0
1,note_on,58,67,0
1,note_on,58,0,240
1,note_on,70,0,0
1,note_on,71,89,0
1,note_on,59,74,0
1,note_on,59,0,240
1,note_on,71,0,0
1,note_on,69,86,0
1,note_on,57,73,0
1,note_on,57,0,240
1,note_on,69,0,0
1,note_on,70,96,0
1,note_on,58,81,0
1,note_on,58,0,240
1,note_on,70,0,0
1,note_on,68,94,0
1,note_on,56,79,0
1,note_on,56,0,240
1,note_on,68,0,0
1,note_on,93,108,0
1,note_on,81,91,0
1,note_on,85,91,0
1,note_on,69,88,480
1,note_on,61,74,0
1,note_on,64,74,0
1,note_on,64,0,240
1,note_on,69,0,0
1,note_on,61,0,0
1,note_on,69,88,0
1,note_on,61,74,0
1,note_on,64,74,0
1,note_on,64,0,240
1,note_on,85,0,0
1,note_on,93,0,0
1,note_on,81,0,0
1,note_on,61,0,0
1,note_on,69,0,0
1,note_on,69,97,0
1,note_on,61,82,0
1,note_on,64,82,0
1,note_on,64,0,240
1,note_on,61,0,0
1,note_on,69,0,0
1,note_on,92,101,240
1,note_on,80,84,0
1,note_on,83,84,0
1,note_on,83,0,240
1,note_on,80,0,0
1,note_on,92,0,0
1,note_on,95,101,0
1,note_on,83,84,0
1,note_on,86,84,0
1,note_on,86,0,240
1,note_on,83,0,0
1,note_on,95,0,0
1,note_on,93,108,0
1,note_on,81,92,0
1,note_on,85,92,0
1,note_on,85,0,240
1,note_on,81,0,0
1,note_on,93,0,0
1,note_on,92,101,240
1,note_on,80,84,0
1,note_on,83,84,0
1,note_on,83,0,240
1,note_on,80,0,0
1,note_on,92,0,0
1,note_on,95,101,0
1,note_on,83,84,0
1,note_on,86,84,0
1,note_on,86,0,240
1,note_on,83,0,0
1,note_on,95,0,0
1,note_on,93,108,0
1,note_on,81,92,0
1,note_on,85,92,0
1,note_on,85,0,240
1,note_on,81,0,0
1,note_on,93,0,0
1,note_on,93,103,240
1,note_on,81,86,0
1,note_on,85,86,0
1,note_on,85,0,240
1,note_on,81,0,0
1,note_on,93,0,0
1,note_on,97,105,240
1,note_on,85,89,0
1,note_on,89,89,0
1,note_on,73,88,480
1,note_on,65,74,0
1,note_on,68,74,0
1,note_on,68,0,240
1,note_on,73,0,0
1,note_on,65,0,0
1,note_on,73,88,0
1,note_on,65,74,0
1,note_on,68,74,0
1,note_on,68,0,240
1,note_on,89,0,0
1,note_on,97,0,0
1,note_on,85,0,0
1,note_on,65,0,0
1,note_on,73,0,0
1,note_on,73,97,0
1,note_on,65,82,0
1,note_on,68,82,0
1,note_on,68,0,240
1,note_on,65,0,0
1,note_on,73,0,0
1,note_on,96,101,240
1,note_on,84,84,0
1,note_on,87,84,0
1,note_on,87,0,240
1,note_on,84,0,0
1,note_on,96,0,0
1,note_on,99,101,0
1,note_on,87,84,0
1,note_on,90,84,0
1,note_on,90,0,240
1,note_on,87,0,0
1,note_on,99,0,0
1,note_on,97,108,0
1,note_on,85,92,0
1,note_on,89,92,0
1,note_on,89,0,240
1,note_on,85,0,0
1,note_on,97,0,0
1,note_on,96,101,240
1,note_on,84,84,0
1,note_on,87,84,0
1,note_on,87,0,240
1,note_on,84,0,0
1,note_on,96,0,0
1,note_on,99,101,0
1,note_on,87,84,0
1,note_on,90,84,0
1,note_on,90,0,240
1,note_on,87,0,0
1,note_on,99,0,0
1,note_on,97,108,0
1,note_on,85,92,0
1,note_on,89,92,0
1,note_on,89,0,240
1,note_on,85,0,0
1,note_on,97,0,0
1,note_on,97,103,240
1,note_on,85,86,0
1,note_on,89,86,0
1,note_on,89,0,240
1,note_on,85,0,0
1,note_on,97,0,0
1,note_on,101,105,240
1,note_on,89,89,0
1,note_on,93,89,0
1,note_on,77,88,480
1,note_on,69,74,0
1,note_on,72,74,0
1,note_on,72,0,240
1,note_on,77,0,0
1,note_on,69,0,0
1,note_on,77,88,0
1,note_on,69,74,0
1,note_on,72,74,0
1,note_on,72,0,240
1,note_on,93,0,0
1,note_on,101,0,0
1,note_on,89,0,0
1,note_on,69,0,0
1,note_on,77,0,0
1,note_on,77,97,0
1,note_on,69,82,0
1,note_on,72,82,0
1,note_on,72,0,240
1,note_on,69,0,0
1,note_on,77,0,0
1,note_on,100,92,240
1,note_on,88,77,0
1,note_on,91,77,0
1,note_on,91,0,240
1,note_on,88,0,0
1,note_on,100,0,0
1,note_on,103,92,0
1,note_on,91,77,0
1,note_on,94,77,0
1,note_on,94,0,240
1,note_on,91,0,0
1,note_on,103,0,0
1,note_on,101,99,0
1,note_on,89,84,0
1,note_on,93,84,0
1,note_on,93,0,240
1,note_on,89,0,0
1,note_on,101,0,0
1,note_on,100,92,240
1,note_on,88,77,0
1,note_on,91,77,0
1,note_on,91,0,240
1,note_on,88,0,0
1,note_on,100,0,0
1,note_on,103,92,0
1,note_on,91,77,0
1,note_on,94,77,0
1,note_on,94,0,240
1,note_on,91,0,0
1,note_on,103,0,0
1,note_on,101,99,0
1,note_on,89,84,0
1,note_on,93,84,0
1,note_on,93,0,240
1,note_on,89,0,0
1,note_on,101,0,0
1,note_on,89,94,240
1,note_on,77,79,0
1,note_on,81,79,0
1,note_on,81,0,240
1,note_on,77,0,0
1,note_on,89,0,0
1,note_on,93,82,240
1,note_on,81,70,0
1,note_on,85,70,0
1,note_on,85,0,240
1,note_on,81,0,0
1,note_on,93,0,0
1,note_on,92,76,0
1,note_on,80,65,0
1,note_on,80,0,240
1,note_on,92,0,0
1,note_on,93,82,0
1,note_on,81,70,0
1,note_on,81,0,240
1,note_on,93,0,0
1,note_on,95,76,0
1,note_on,83,65,0
1,note_on,83,0,240
1,note_on,95,0,0
1,note_on,97,82,0
1,note_on,85,70,0
1,note_on,85,0,720
1,note_on,97,0,0
1,note_on,97,80,0
1,note_on,85,68,0
1,note_on,85,0,240
1,note_on,97,0,0
1,note_on,97,82,0
1,note_on,85,70,0
1,note_on,85,0,240
1,note_on,97,0,0
1,note_on,95,76,0
1,note_on,83,65,0
1,note_on,83,0,240
1,note_on,95,0,0
1,note_on,93,82,0
1,note_on,81,70,0
1,note_on,81,0,240
1,note_on,93,0,0
1,note_on,92,76,0
1,note_on,80,65,0
1,note_on,80,0,240
1,note_on,92,0,0
1,note_on,93,82,0
1,note_on,81,70,0
1,note_on,81,0,720
1,note_on,93,0,0
1,note_on,102,80,0
1,note_on,90,68,0
1,note_on,90,0,240
1,note_on,102,0,0
1,note_on,100,82,0
1,note_on,88,70,0
1,note_on,88,0,240
1,note_on,100,0,0
1,note_on,98,76,0
1,note_on,86,65,0
1,note_on,86,0,240
1,note_on,98,0,0
1,note_on,97,82,0
1,note_on,85,70,0
1,note_on,85,0,240
1,note_on,97,0,0
1,note_on,100,76,0
1,note_on,88,65,0
1,note_on,88,0,240
1,note_on,100,0,0
1,note_on,98,82,0
1,note_on,86,70,0
1,note_on,86,0,240
1,note_on,98,0,0
1,note_on,97,76,0
1,note_on,85,65,0
1,note_on,85,0,240
1,note_on,97,0,0
1,note_on,95,82,0
1,note_on,83,70,0
1,note_on,83,0,240
1,note_on,95,0,0
1,note_on,98,76,0
1,note_on,86,65,0
1,note_on,86,0,240
1,note_on,98,0,0
1,note_on,97,82,0
1,note_on,85,70,0
1,note_on,85,0,240
1,note_on,97,0,0
1,note_on,95,76,0
1,note_on,83,65,0
1,note_on,83,0,240
1,note_on,95,0,0
1,note_on,93,82,0
1,note_on,81,70,0
1,note_on,81,0,240
1,note_on,93,0,0
1,note_on,97,76,0
1,note_on,85,65,0
1,note_on,85,0,240
1,note_on,97,0,0
1,note_on,95,82,0
1,note_on,83,70,0
1,note_on,83,0,240
1,note_on,95,0,0
1,note_on,93,76,0
1,note_on,81,65,0
1,note_on,81,0,240
1,note_on,93,0,0
1,note_on,92,82,0
1,note_on,80,70,0
1,note_on,80,0,480
1,note_on,92,0,0
1,note_on,93,82,0
1,note_on,81,70,0
1,note_on,81,0,240
1,note_on,93,0,0
1,note_on,92,76,0
1,note_on,80,65,0
1,note_on,80,0,240
1,note_on,92,0,0
1,note_on,93,82,0
1,note_on,81,70,0
1,note_on,81,0,240
1,note_on,93,0,0
1,note_on,95,76,0
1,note_on,83,65,0
1,note_on,83,0,240
1,note_on,95,0,0
1,note_on,97,82,0
1,note_on,85,70,0
1,note_on,85,0,720
1,note_on,97,0,0
1,note_on,97,80,0
1,note_on,85,68,0
1,note_on,85,0,240
1,note_on,97,0,0
1,note_on,97,82,0
1,note_on,85,70,0
1,note_on,85,0,240
1,note_on,97,0,0
1,note_on,95,76,0
1,note_on,83,65,0
1,note_on,83,0,240
1,note_on,95,0,0
1,note_on,93,82,0
1,note_on,81,70,0
1,note_on,81,0,240
1,note_on,93,0,0
1,note_on,92,76,0
1,note_on,80,65,0
1,note_on,80,0,240
1,note_on,92,0,0
1,note_on,93,82,0
1,note_on,81,70,0
1,note_on,81,0,720
1,note_on,93,0,0
1,note_on,102,80,0
1,note_on,90,68,0
1,note_on,90,0,240
1,note_on,102,0,0
1,note_on,100,82,0
1,note_on,88,70,0
1,note_on,88,0,240
1,note_on,100,0,0
1,note_on,98,76,0
1,note_on,86,65,0
1,note_on,86,0,240
1,note_on,98,0,0
1,note_on,97,82,0
1,note_on,85,70,0
1,note_on,85,0,240
1,note_on,97,0,0
1,note_on,100,76,0
1,note_on,88,65,0
1,note_on,88,0,240
1,note_on,100,0,0
1,note_on,98,82,0
1,note_on,86,70,0
1,note_on,86,0,240
1,note_on,98,0,0
1,note_on,97,76,0
1,note_on,85,65,0
1,note_on,85,0,240
1,note_on,97,0,0
1,note_on,95,82,0
1,note_on,83,70,0
1,note_on,83,0,240
1,note_on,95,0,0
1,note_on,98,76,0
1,note_on,86,65,0
1,note_on,86,0,240
1,note_on,98,0,0
1,note_on,97,82,0
1,note_on,85,70,0
1,note_on,85,0,240
1,note_on,97,0,0
1,note_on,95,76,0
1,note_on,83,65,0
1,note_on,83,0,240
1,note_on,95,0,0
1,note_on,93,82,0
1,note_on,81,70,0
1,note_on,81,0,240
1,note_on,93,0,0
1,note_on,97,76,0
1,note_on,85,65,0
1,note_on,85,0,240
1,note_on,97,0,0
1,note_on,95,82,0
1,note_on,83,70,0
1,note_on,83,0,240
1,note_on,95,0,0
1,note_on,93,76,0
1,note_on,81,65,0
1,note_on,81,0,240
1,note_on,93,0,0
1,note_on,92,82,0
1,note_on,80,70,0
1,note_on,80,0,480
1,note_on,92,0,0
1,note_on,81,69,0
1,note_on,69,58,0
1,note_on,69,0,240
1,note_on,81,0,0
1,note_on,80,60,0
1,note_on,68,51,0
1,note_on,68,0,240
1,note_on,80,0,0
1,note_on,77,71,0
1,note_on,65,60,0
1,note_on,65,0,240
1,note_on,77,0,0
1,note_on,81,64,0
1,note_on,69,54,0
1,note_on,69,0,240
1,note_on,81,0,0
1,note_on,80,75,0
1,note_on,68,63,0
1,note_on,68,0,240
1,note_on,80,0,0
1,note_on,77,71,0
1,note_on,65,60,0
1,note_on,65,0,240
1,note_on,77,0,0
1,note_on,76,77,0
1,note_on,64,65,0
1,note_on,64,0,240
1,note_on,76,0,0
1,note_on,80,73,0
1,note_on,68,62,0
1,note_on,68,0,240
1,note_on,80,0,0
1,note_on,77,81,0
1,note_on,65,69,0
1,note_on,65,0,240
1,note_on,77,0,0
1,note_on,76,72,0
1,note_on,64,61,0
1,note_on,64,0,240
1,note_on,76,0,0
1,note_on,74,84,0
1,note_on,62,71,0
1,note_on,62,0,240
1,note_on,74,0,0
1,note_on,77,75,0
1,note_on,65,63,0
1,note_on,65,0,240
1,note_on,77,0,0
1,note_on,74,88,0
1,note_on,62,74,0
1,note_on,62,0,240
1,note_on,74,0,0
1,note_on,73,83,0
1,note_on,61,70,0
1,note_on,61,0,240
1,note_on,73,0,0
1,note_on,58,76,0
1,note_on,70,90,0
1,note_on,70,0,240
1,note_on,58,0,0
1,note_on,81,69,240
1,note_on,69,58,0
1,note_on,69,0,240
1,note_on,81,0,0
1,note_on,80,60,0
1,note_on,68,51,0
1,note_on,68,0,240
1,note_on,80,0,0
1,note_on,77,71,0
1,note_on,65,60,0
1,note_on,65,0,240
1,note_on,77,0,0
1,note_on,81,64,0
1,note_on,69,54,0
1,note_on,69,0,240
1,note_on,81,0,0
1,note_on,80,75,0
1,note_on,68,63,0
1,note_on,68,0,240
1,note_on,80,0,0
1,note_on,77,71,0
1,note_on,65,60,0
1,note_on,65,0,240
1,note_on,77,0,0
1,note_on,76,77,0
1,note_on,64,65,0
1,note_on,64,0,240
1,note_on,76,0,0
1,note_on,80,73,0
1,note_on,68,62,0
1,note_on,68,0,240
1,note_on,80,0,0
1,note_on,77,81,0
1,note_on,65,69,0
1,note_on,65,0,240
1,note_on,77,0,0
1,note_on,76,72,0
1,note_on,64,61,0
1,note_on,64,0,240
1,note_on,76,0,0
1,note_on,74,84,0
1,note_on,62,71,0
1,note_on,62,0,240
1,note_on,74,0,0
1,note_on,77,75,0
1,note_on,65,63,0
1,note_on,65,0,240
1,note_on,77,0,0
1,note_on,74,88,0
1,note_on,62,74,0
1,note_on,62,0,240
1,note_on,74,0,0
1,note_on,73,83,0
1,note_on,61,70,0
1,note_on,61,0,240
1,note_on,73,0,0
1,note_on,58,76,0
1,note_on,70,90,0
1,note_on,70,0,240
1,note_on,58,0,0
1,note_on,69,64,240
1,note_on,57,54,0
1,note_on,57,0,240
1,note_on,69,0,0
1,note_on,70,64,0
1,note_on,58,54,0
1,note_on,58,0,240
1,note_on,70,0,0
1,note_on,73,65,0
1,note_on,61,55,0
1,note_on,61,0,240
1,note_on,73,0,0
1,note_on,74,66,0
1,note_on,62,56,0
1,note_on,62,0,240
1,note_on,74,0,0
1,note_on,76,67,0
1,note_on,64,56,0
1,note_on,64,0,240
1,note_on,76,0,0
1,note_on,77,68,0
1,note_on,65,57,0
1,note_on,65,0,240
1,note_on,77,0,0
1,note_on,80,69,0
1,note_on,68,58,0
1,note_on,68,0,240
1,note_on,80,0,0
1,note_on,81,70,0
1,note_on,69,59,0
1,note_on,69,0,240
1,note_on,81,0,0
1,note_on,82,71,0
1,note_on,70,60,0
1,note_on,70,0,240
1,note_on,82,0,0
1,note_on,85,72,0
1,note_on,73,61,0
1,note_on,73,0,240
1,note_on,85,0,0
1,note_on,86,73,0
1,note_on,74,62,0
1,note_on,74,0,240
1,note_on,86,0,0
1,note_on,88,74,0
1,note_on,76,62,0
1,note_on,76,0,240
1,note_on,88,0,0
1,note_on,89,74,0
1,note_on,77,62,0
1,note_on,77,0,240
1,note_on,89,0,0
1,note_on,92,75,0
1,note_on,80,63,0
1,note_on,80,0,240
1,note_on,92,0,0
1,note_on,93,76,0
1,note_on,81,64,0
1,note_on,81,0,240
1,note_on,93,0,0
1,note_on,94,77,0
1,note_on,82,65,0
1,note_on,82,0,240
1,note_on,94,0,0
1,note_on,97,78,0
1,note_on,85,66,0
1,note_on,85,0,240
1,note_on,97,0,0
1,note_on,94,77,0
1,note_on,82,65,0
1,note_on,82,0,240
1,note_on,94,0,0
1,note_on,93,75,0
1,note_on,81,63,0
1,note_on,81,0,240
1,note_on,93,0,0
1,note_on,92,74,0
1,note_on,80,62,0
1,note_on,80,0,240
1,note_on,92,0,0
1,note_on,89,72,0
1,note_on,77,61,0
1,note_on,77,0,240
1,note_on,89,0,0
1,note_on,88,70,0
1,note_on,76,59,0
1,note_on,76,0,240
1,note_on,88,0,0
1,note_on,86,69,0
1,note_on,74,58,0
1,note_on,74,0,240
1,note_on,86,0,0
1,note_on,85,67,0
1,note_on,73,56,0
1,note_on,73,0,240
1,note_on,85,0,0
1,note_on,82,67,0
1,note_on,70,56,0
1,note_on,70,0,240
1,note_on,82,0,0
1,note_on,81,69,0
1,note_on,69,58,0
1,note_on,69,0,240
1,note_on,81,0,0
1,note_on,80,71,0
1,note_on,68,60,0
1,note_on,68,0,240
1,note_on,80,0,0
1,note_on,77,73,0
1,note_on,65,62,0
1,note_on,65,0,240
1,note_on,77,0,0
1,note_on,76,75,0
1,note_on,64,63,0
1,note_on,64,0,240
1,note_on,76,0,0
1,note_on,74,77,0
1,note_on,62,65,0
1,note_on,62,0,240
1,note_on,74,0,0
1,note_on,73,79,0
1,note_on,61,67,0
1,note_on,61,0,240
1,note_on,73,0,0
1,note_on,70,81,0
1,note_on,58,68,0
1,note_on,58,0,240
1,note_on,70,0,0
1,note_on,69,64,0
1,note_on,57,54,0
1,note_on,57,0,240
1,note_on,69,0,0
1,note_on,70,64,0
1,note_on,58,54,0
1,note_on,58,0,240
1,note_on,70,0,0
1,note_on,73,65,0
1,note_on,61,55,0
1,note_on,61,0,240
1,note_on,73,0,0
1,note_on,74,66,0
1,note_on,62,56,0
1,note_on,62,0,240
1,note_on,74,0,0
1,note_on,76,67,0
1,note_on,64,56,0
1,note_on,64,0,240
1,note_on,76,0,0
1,note_on,77,68,0
1,note_on,65,57,0
1,note_on,65,0,240
1,note_on,77,0,0
1,note_on,80,69,0
1,note_on,68,58,0
1,note_on,68,0,240
1,note_on,80,0,0
1,note_on,81,70,0
1,note_on,69,59,0
1,note_on,69,0,240
1,note_on,81,0,0
1,note_on,82,73,0
1,note_on,70,61,0
1,note_on,70,0,240
1,note_on,82,0,0
1,note_on,85,74,0
1,note_on,73,63,0
1,note_on,73,0,240
1,note_on,85,0,0
1,note_on,86,76,0
1,note_on,74,65,0
1,note_on,74,0,240
1,note_on,86,0,0
1,note_on,88,79,0
1,note_on,76,66,0
1,note_on,76,0,240
1,note_on,88,0,0
1,note_on,89,79,0
1,note_on,77,66,0
1,note_on,77,0,240
1,note_on,89,0,0
1,note_on,92,81,0
1,note_on,80,68,0
1,note_on,80,0,240
1,note_on,92,0,0
1,note_on,93,84,0
1,note_on,81,71,0
1,note_on,81,0,240
1,note_on,93,0,0
1,note_on,94,86,0
1,note_on,82,72,0
1,note_on,82,0,240
1,note_on,94,0,0
1,note_on,97,97,0
1,note_on,85,97,0
1,note_on,85,0,240
1,note_on,97,0,0
1,note_on,98,98,720
1,note_on,86,83,0
1,note_on,89,83,0
1,note_on,94,83,0
1,note_on,94,0,240
1,note_on,98,0,0
1,note_on,86,0,0
1,note_on,89,0,0
1,note_on,100,102,720
1,note_on,97,86,0
1,note_on,93,86,0
1,note_on,88,86,0
1,note_on,88,0,240
1,note_on,100,0,0
1,note_on,97,0,0
1,note_on,93,0,0
1,note_on,101,116,720
1,note_on,94,97,0
1,note_on,89,97,0
1,note_on,89,0,240
1,note_on,94,0,0
1,note_on,101,0,0
1,note_on,57,37,720
1,note_on,61,44,7
1,note_on,52,37,0
1,note_on,57,0,113
1,note_on,64,45,0
1,note_on,52,0,7
1,note_on,61,0,0
1,note_on,64,0,113
1,note_on,61,47,0
1,note_on,52,39,0
1,note_on,57,39,0
1,note_on,57,0,120
1,note_on,52,0,0
1,note_on,61,0,0
1,note_on,64,48,0
1,note_on,64,0,120
1,note_on,61,49,0
1,note_on,52,41,0
1,note_on,57,41,0
1,note_on,57,0,120
1,note_on,52,0,0
1,note_on,61,0,0
1,note_on,64,50,0
1,note_on,64,0,120
1,note_on,61,52,0
1,note_on,52,44,0
1,note_on,57,44,0
1,note_on,57,0,120
1,note_on,52,0,0
1,note_on,61,0,0
1,note_on,64,53,0
1,note_on,64,0,120
1,note_on,57,45,0
1,note_on,61,54,7
1,note_on,52,45,0
1,note_on,57,0,113
1,note_on,64,56,0
1,note_on,52,0,7
1,note_on,61,0,0
1,note_on,64,0,113
1,note_on,61,55,0
1,note_on,52,46,0
1,note_on,57,46,0
1,note_on,57,0,120
1,note_on,52,0,0
1,note_on,61,0,0
1,note_on,64,53,0
1,note_on,64,0,120
1,note_on,61,52,0
1,note_on,52,44,0
1,note_on,57,44,0
1,note_on,57,0,120
1,note_on,52,0,0
1,note_on,61,0,0
1,note_on,64,50,0
1,note_on,64,0,120
1,note_on,61,49,0
1,note_on,52,41,0
1,note_on,57,41,0
1,note_on,57,0,120
1,note_on,52,0,0
1,note_on,61,0,0
1,note_on,64,47,0
1,note_on,64,0,120
1,note_on,52,85,45
1,note_on,57,85,0
1,note_on,61,85,0
1,note_on,61,0,195
1,note_on,57,0,0
1,note_on,52,0,0
1,note_on,81,93,600
1,note_on,69,79,0
1,note_on,73,79,0
1,note_on,76,79,0
1,note_on,76,0,108
1,note_on,81,0,0
1,note_on,69,0,0
1,note_on,73,0,0
1,note_on,81,111,12
1,note_on,76,93,0
1,note_on,73,93,0
1,note_on,69,93,0
1,note_on,69,0,240
1,note_on,81,0,0
1,note_on,76,0,0
1,note_on,73,0,0
1,note_on,93,93,600
1,note_on,81,79,0
1,note_on,85,79,0
1,note_on,88,79,0
1,note_on,88,0,108
1,note_on,93,0,0
1,note_on,81,0,0
1,note_on,85,0,0
1,note_on,93,111,12
1,note_on,88,93,0
1,note_on,85,93,0
1,note_on,81,93,0
1,note_on,81,0,240
1,note_on,93,0,0
1,note_on,88,0,0
1,note_on,85,0,0
2,note_on,28,27,360
2,note_on,28,0,120
2,note_on,39,27,0
2,note_on,39,0,120
2,note_on,40,27,0
2,note_on,40,0,120
2,note_on,52,35,0
2,note_on,52,0,60
2,note_on,28,28,60
2,note_on,28,0,120
2,note_on,39,28,0
2,note_on,39,0,120
2,note_on,40,28,0
2,note_on,40,0,120
2,note_on,52,35,0
2,note_on,52,0,60
2,note_on,28,27,60
2,note_on,28,0,120
2,note_on,39,27,0
2,note_on,39,0,120
2,note_on,40,27,0
2,note_on,40,0,120
2,note_on,52,35,0
2,note_on,52,0,60
2,note_on,28,27,60
2,note_on,28,0,120
2,note_on,39,27,0
2,note_on,39,0,120
2,note_on,40,27,0
2,note_on,40,0,120
2,note_on,52,35,0
2,note_on,52,0,60
2,note_on,28,28,60
2,note_on,28,0,120
2,note_on,39,28,0
2,note_on,39,0,120
2,note_on,40,28,0
2,note_on,40,0,120
2,note_on,52,35,0
2,note_on,52,0,60
2,note_on,28,27,60
2,note_on,28,0,120
2,note_on,39,27,0
2,note_on,39,0,120
2,note_on,40,27,0
2,note_on,40,0,120
2,note_on,52,35,0
2,note_on,52,0,60
2,note_on,28,28,60
2,note_on,28,0,120
2,note_on,39,28,0
2,note_on,39,0,120
2,note_on,40,28,0
2,note_on,40,0,120
2,note_on,52,35,0
2,note_on,52,0,60
2,note_on,28,27,60
2,note_on,28,0,120
2,note_on,39,27,0
2,note_on,39,0,120
2,note_on,40,27,0
2,note_on,40,0,120
2,note_on,52,35,0
2,note_on,52,0,60
2,note_on,29,28,60
2,note_on,29,0,120
2,note_on,40,28,0
2,note_on,40,0,120
2,note_on,41,28,0
2,note_on,41,0,120
2,note_on,53,35,0
2,note_on,53,0,60
2,note_on,29,27,60
2,note_on,29,0,120
2,note_on,40,27,0
2,note_on,40,0,120
2,note_on,41,27,0
2,note_on,41,0,120
2,note_on,53,35,0
2,note_on,53,0,60
2,note_on,29,28,60
2,note_on,29,0,120
2,note_on,40,28,0
2,note_on,40,0,120
2,note_on,41,28,0
2,note_on,41,0,120
2,note_on,53,35,0
2,note_on,53,0,60
2,note_on,29,27,60
2,note_on,29,0,120
2,note_on,40,28,0
2,note_on,40,0,120
2,note_on,41,28,0
2,note_on,41,0,120
2,note_on,53,35,0
2,note_on,53,0,60
2,note_on,29,27,60
2,note_on,29,0,120
2,note_on,40,27,0
2,note_on,40,0,120
2,note_on,41,27,0
2,note_on,41,0,120
2,note_on,53,36,0
2,note_on,53,0,60
2,note_on,29,29,60
2,note_on,29,0,120
2,note_on,40,29,0
2,note_on,40,0,120
2,note_on,41,29,0
2,note_on,41,0,120
2,note_on,53,38,0
2,note_on,53,0,60
2,note_on,29,29,60
2,note_on,29,0,120
2,note_on,40,30,0
2,note_on,40,0,120
2,note_on,41,31,0
2,note_on,41,0,120
2,note_on,53,39,0
2,note_on,53,0,60
2,note_on,29,30,60
2,note_on,29,0,120
2,note_on,40,32,0
2,note_on,40,0,120
2,note_on,41,32,0
2,note_on,41,0,120
2,note_on,53,41,0
2,note_on,53,0,60
2,note_on,32,32,60
2,note_on,32,0,120
2,note_on,43,32,0
2,note_on,43,0,120
2,note_on,44,32,0
2,note_on,44,0,120
2,note_on,56,43,0
2,note_on,56,0,60
2,note_on,32,34,60
2,note_on,32,0,120
2,note_on,43,34,0
2,note_on,43,0,120
2,note_on,44,34,0
2,note_on,44,0,120
2,note_on,56,44,0
2,note_on,56,0,60
2,note_on,32,34,60
2,note_on,32,0,120
2,note_on,43,35,0
2,note_on,43,0,120
2,note_on,44,36,0
2,note_on,44,0,120
2,note_on,56,46,0
2,note_on,56,0,60
2,note_on,32,35,60
2,note_on,32,0,120
2,note_on,43,37,0
2,note_on,43,0,120
2,note_on,44,37,0
2,note_on,44,0,120
2,note_on,56,48,0
2,note_on,56,0,60
2,note_on,33,37,60
2,note_on,33,0,120
2,note_on,44,37,0
2,note_on,44,0,120
2,note_on,45,37,0
2,note_on,45,0,120
2,note_on,57,49,0
2,note_on,57,0,60
2,note_on,33,39,60
2,note_on,33,0,120
2,note_on,44,39,0
2,note_on,44,0,120
2,note_on,45,40,0
2,note_on,45,0,120
2,note_on,57,51,0
2,note_on,57,0,60
2,note_on,33,39,60
2,note_on,33,0,120
2,note_on,44,41,0
2,note_on,44,0,120
2,note_on,45,41,0
2,note_on,45,0,120
2,note_on,57,53,0
2,note_on,57,0,60
2,note_on,33,40,60
2,note_on,33,0,120
2,note_on,44,42,0
2,note_on,44,0,120
2,note_on,45,42,0
2,note_on,45,0,120
2,note_on,57,55,0
2,note_on,57,0,60
2,note_on,34,42,60
2,note_on,34,0,120
2,note_on,45,42,0
2,note_on,45,0,120
2,note_on,46,43,0
2,note_on,46,0,120
2,note_on,58,57,0
2,note_on,58,0,60
2,note_on,34,45,60
2,note_on,34,0,120
2,note_on,45,45,0
2,note_on,45,0,120
2,note_on,46,45,0
2,note_on,46,0,120
2,note_on,58,58,0
2,note_on,58,0,60
2,note_on,37,45,60
2,note_on,37,0,120
2,note_on,48,46,0
2,note_on,48,0,120
2,note_on,49,47,0
2,note_on,49,0,120
2,note_on,61,60,0
2,note_on,61,0,60
2,note_on,37,46,60
2,note_on,37,0,120
2,note_on,48,48,0
2,note_on,48,0,120
2,note_on,49,48,0
2,note_on,49,0,120
2,note_on,61,62,0
2,note_on,61,0,60
2,note_on,38,47,60
2,note_on,38,0,120
2,note_on,49,48,0
2,note_on,49,0,120
2,note_on,50,48,0
2,note_on,50,0,120
2,note_on,62,63,0
2,note_on,62,0,60
2,note_on,38,50,60
2,note_on,38,0,120
2,note_on,49,50,0
2,note_on,49,0,120
2,note_on,50,51,0
2,note_on,50,0,120
2,note_on,62,65,0
2,note_on,62,0,60
2,note_on,39,50,60
2,note_on,39,0,120
2,note_on,50,52,0
2,note_on,50,0,120
2,note_on,51,52,0
2,note_on,51,0,120
2,note_on,63,67,0
2,note_on,63,0,60
2,note_on,39,51,60
2,note_on,39,0,120
2,note_on,50,53,0
2,note_on,50,0,120
2,note_on,51,53,0
2,note_on,51,0,120
2,note_on,63,68,0
2,note_on,63,0,60
2,note_on,40,52,60
2,note_on,40,0,120
2,note_on,51,53,0
2,note_on,51,0,120
2,note_on,52,53,0
2,note_on,52,0,120
2,note_on,64,70,0
2,note_on,64,0,60
2,note_on,41,55,60
2,note_on,41,0,120
2,note_on,52,56,0
2,note_on,52,0,120
2,note_on,53,56,0
2,note_on,53,0,120
2,note_on,65,72,0
2,note_on,65,0,60
2,note_on,44,55,60
2,note_on,44,0,120
2,note_on,55,57,0
2,note_on,55,0,120
2,note_on,56,57,0
2,note_on,56,0,120
2,note_on,68,73,0
2,note_on,68,0,60
2,note_on,45,56,60
2,note_on,45,0,120
2,note_on,56,58,0
2,note_on,56,0,120
2,note_on,57,59,0
2,note_on,57,0,120
2,note_on,69,75,0
2,note_on,69,0,60
2,note_on,46,58,60
2,note_on,46,0,120
2,note_on,57,58,0
2,note_on,57,0,120
2,note_on,58,58,0
2,note_on,58,0,120
2,note_on,70,77,0
2,note_on,70,0,60
2,note_on,49,61,60
2,note_on,49,0,120
2,note_on,60,61,0
2,note_on,60,0,120
2,note_on,61,62,0
2,note_on,61,0,120
2,note_on,73,79,0
2,note_on,73,0,60
2,note_on,50,60,60
2,note_on,50,0,120
2,note_on,61,63,0
2,note_on,61,0,120
2,note_on,62,63,0
2,note_on,62,0,120
2,note_on,74,81,0
2,note_on,74,0,60
2,note_on,51,62,60
2,note_on,51,0,120
2,note_on,62,64,0
2,note_on,62,0,120
2,note_on,63,64,0
2,note_on,63,0,120
2,note_on,75,82,0
2,note_on,75,0,60
2,note_on,52,63,60
2,note_on,52,0,120
2,note_on,63,65,0
2,note_on,63,0,120
2,note_on,64,66,0
2,note_on,64,0,120
2,note_on,76,84,0
2,note_on,76,0,60
2,note_on,41,56,180
2,note_on,53,56,0
2,note_on,53,0,120
2,note_on,41,0,0
2,note_on,44,58,120
2,note_on,56,58,0
2,note_on,56,0,120
2,note_on,44,0,0
2,note_on,45,59,120
2,note_on,57,59,0
2,note_on,57,0,120
2,note_on,45,0,0
2,note_on,46,61,120
2,note_on,58,61,0
2,note_on,58,0,120
2,note_on,46,0,0
2,note_on,49,63,120
2,note_on,61,63,0
2,note_on,61,0,120
2,note_on,49,0,0
2,note_on,50,64,120
2,note_on,62,64,0
2,note_on,62,0,120
2,note_on,50,0,0
2,note_on,51,66,120
2,note_on,63,66,0
2,note_on,63,0,120
2,note_on,51,0,0
2,note_on,52,68,120
2,note_on,64,68,0
2,note_on,64,0,120
2,note_on,52,0,0
2,note_on,53,69,120
2,note_on,65,69,0
2,note_on,65,0,120
2,note_on,53,0,0
2,note_on,68,71,120
2,note_on,56,71,0
2,note_on,56,0,120
2,note_on,68,0,0
2,note_on,57,73,120
2,note_on,69,73,0
2,note_on,69,0,120
2,note_on,57,0,0
2,note_on,70,74,120
2,note_on,58,74,0
2,note_on,58,0,120
2,note_on,70,0,0
2,note_on,61,76,120
2,note_on,73,76,0
2,note_on,73,0,120
2,note_on,61,0,0
2,note_on,62,78,120
2,note_on,74,78,0
2,note_on,74,0,120
2,note_on,62,0,0
2,note_on,63,79,120
2,note_on,75,79,0
2,note_on,75,0,120
2,note_on,63,0,0
2,note_on,64,81,120
2,note_on,76,81,0
2,note_on,76,0,120
2,note_on,64,0,0
2,note_on,65,83,120
2,note_on,77,83,0
2,note_on,77,0,120
2,note_on,65,0,0
2,note_on,53,65,2280
2,note_on,41,55,0
2,note_on,47,55,0
2,note_on,50,55,0
2,note_on,50,0,240
2,note_on,53,0,0
2,note_on,41,0,0
2,note_on,47,0,0
2,note_on,51,70,240
2,note_on,39,59,0
2,note_on,45,59,0
2,note_on,48,59,0
2,note_on,48,0,240
2,note_on,51,0,0
2,note_on,39,0,0
2,note_on,45,0,0
2,note_on,49,69,720
2,note_on,37,58,0
2,note_on,42,58,0
2,note_on,45,58,0
2,note_on,45,0,240
2,note_on,49,0,0
2,note_on,37,0,0
2,note_on,42,0,0
2,note_on,48,69,720
2,note_on,36,58,0
2,note_on,42,58,0
2,note_on,45,58,0
2,note_on,45,0,120
2,note_on,48,0,0
2,note_on,36,0,0
2,note_on,42,0,0
2,note_on,42,69,840
2,note_on,47,69,0
2,note_on,35,58,0
2,note_on,39,58,0
2,note_on,39,0,240
2,note_on,42,0,0
2,note_on,47,0,0
2,note_on,35,0,0
2,note_on,45,59,720
2,note_on,33,50,0
2,note_on,37,50,0
2,note_on,42,50,0
2,note_on,42,0,240
2,note_on,45,0,0
2,note_on,33,0,0
2,note_on,37,0,0
2,note_on,44,64,720
2,note_on,32,54,0
2,note_on,36,54,0
2,note_on,39,54,0
2,note_on,39,0,240
2,note_on,44,0,0
2,note_on,32,0,0
2,note_on,36,0,0
2,note_on,43,62,720
2,note_on,31,52,0
2,note_on,36,52,0
2,note_on,39,52,0
2,note_on,39,0,240
2,note_on,43,0,0
2,note_on,31,0,0
2,note_on,36,0,0
2,note_on,42,66,720
2,note_on,30,55,0
2,note_on,36,55,0
2,note_on,39,55,0
2,note_on,39,0,720
2,note_on,42,0,0
2,note_on,30,0,0
2,note_on,36,0,0
2,note_on,48,51,0
2,note_on,36,46,0
2,note_on,36,0,120
2,note_on,48,0,0
2,note_on,47,58,120
2,note_on,35,48,0
2,note_on,35,0,240
2,note_on,47,0,0
2,note_on,45,49,0
2,note_on,33,40,0
2,note_on,33,0,192
2,note_on,45,0,0
2,note_on,43,49,48
2,note_on,31,40,0
2,note_on,31,0,120
2,note_on,43,0,0
2,note_on,47,49,120
2,note_on,35,40,0
2,note_on,35,0,120
2,note_on,47,0,0
2,note_on,45,58,120
2,note_on,33,48,0
2,note_on,33,0,240
2,note_on,45,0,0
2,note_on,43,50,0
2,note_on,31,42,0
2,note_on,31,0,192
2,note_on,43,0,0
2,note_on,41,50,48
2,note_on,29,42,0
2,note_on,29,0,120
2,note_on,41,0,0
2,note_on,45,50,120
2,note_on,33,42,0
2,note_on,33,0,120
2,note_on,45,0,0
2,note_on,43,60,120
2,note_on,31,52,0
2,note_on,31,0,240
2,note_on,43,0,0
2,note_on,41,50,0
2,note_on,29,42,0
2,note_on,29,0,192
2,note_on,41,0,0
2,note_on,40,50,48
2,note_on,28,42,0
2,note_on,28,0,120
2,note_on,40,0,0
2,note_on,43,50,120
2,note_on,31,42,0
2,note_on,31,0,120
2,note_on,43,0,0
2,note_on,41,63,120
2,note_on,29,52,0
2,note_on,29,0,240
2,note_on,41,0,0
2,note_on,40,50,0
2,note_on,28,42,0
2,note_on,28,0,192
2,note_on,40,0,0
2,note_on,39,50,48
2,note_on,27,42,0
2,note_on,27,0,120
2,note_on,39,0,0
2,note_on,41,50,120
2,note_on,29,42,0
2,note_on,29,0,120
2,note_on,41,0,0
2,note_on,41,60,120
2,note_on,29,52,0
2,note_on,29,0,240
2,note_on,41,0,0
2,note_on,40,50,0
2,note_on,28,42,0
2,note_on,28,0,192
2,note_on,40,0,0
2,note_on,40,50,48
2,note_on,28,42,0
2,note_on,28,0,120
2,note_on,40,0,0
2,note_on,39,50,120
2,note_on,27,42,0
2,note_on,27,0,120
2,note_on,39,0,0
2,note_on,41,64,120
2,note_on,29,53,0
2,note_on,29,0,240
2,note_on,41,0,0
2,note_on,40,50,0
2,note_on,28,42,0
2,note_on,28,0,192
2,note_on,40,0,0
2,note_on,40,50,48
2,note_on,28,42,0
2,note_on,28,0,120
2,note_on,40,0,0
2,note_on,39,50,120
2,note_on,27,42,0
2,note_on,27,0,120
2,note_on,39,0,0
2,note_on,40,61,120
2,note_on,28,52,0
2,note_on,28,0,960
2,note_on,40,0,0
2,note_on,52,59,0
2,note_on,47,50,0
2,note_on,44,50,0
2,note_on,40,50,0
2,note_on,40,0,240
2,note_on,52,0,0
2,note_on,47,0,0
2,note_on,44,0,0
2,note_on,52,70,240
2,note_on,52,0,160
2,note_on,54,74,0
2,note_on,54,0,160
2,note_on,56,78,0
2,note_on,56,0,160
2,note_on,57,73,0
2,note_on,45,61,0
2,note_on,45,0,240
2,note_on,57,0,0
2,note_on,53,58,240
2,note_on,41,49,0
2,note_on,41,0,120
2,note_on,53,0,0
2,note_on,57,73,360
2,note_on,45,61,0
2,note_on,45,0,240
2,note_on,57,0,0
2,note_on,52,58,240
2,note_on,40,49,0
2,note_on,40,0,120
2,note_on,52,0,0
2,note_on,57,73,360
2,note_on,45,61,0
2,note_on,45,0,120
2,note_on,57,0,0
2,note_on,50,60,360
2,note_on,38,51,0
2,note_on,41,51,0
2,note_on,41,0,120
2,note_on,38,0,0
2,note_on,50,0,0
2,note_on,57,73,360
2,note_on,45,61,0
2,note_on,52,61,0
2,note_on,36,55,840
2,note_on,36,0,60
2,note_on,48,65,0
2,note_on,48,0,60
2,note_on,52,0,0
2,note_on,45,0,0
2,note_on,57,0,0
2,note_on,69,65,0
2,note_on,57,55,0
2,note_on,60,55,0
2,note_on,65,55,0
2,note_on,65,0,840
2,note_on,69,0,0
2,note_on,57,0,0
2,note_on,60,0,0
2,note_on,36,60,0
2,note_on,36,0,60
2,note_on,48,61,0
2,note_on,48,0,60
2,note_on,72,75,0
2,note_on,60,63,0
2,note_on,64,63,0
2,note_on,67,63,0
2,note_on,67,0,840
2,note_on,72,0,0
2,note_on,60,0,0
2,note_on,64,0,0
2,note_on,33,58,0
2,note_on,33,0,60
2,note_on,45,58,0
2,note_on,45,0,60
2,note_on,65,62,0
2,note_on,53,52,0
2,note_on,62,52,0
2,note_on,57,52,0
2,note_on,57,0,840
2,note_on,65,0,0
2,note_on,53,0,0
2,note_on,62,0,0
2,note_on,33,60,0
2,note_on,33,0,60
2,note_on,45,61,0
2,note_on,45,0,60
2,note_on,69,68,0
2,note_on,57,57,0
2,note_on,60,57,0
2,note_on,64,57,0
2,note_on,64,0,960
2,note_on,69,0,0
2,note_on,57,0,0
2,note_on,60,0,0
2,note_on,47,69,0
2,note_on,35,58,0
2,note_on,35,0,240
2,note_on,47,0,0
2,note_on,68,59,240
2,note_on,59,50,0
2,note_on,64,50,0
2,note_on,64,0,120
2,note_on,59,0,0
2,note_on,68,0,0
2,note_on,47,66,360
2,note_on,47,0,240
2,note_on,69,61,240
2,note_on,66,52,0
2,note_on,61,52,0
2,note_on,61,0,120
2,note_on,66,0,0
2,note_on,69,0,0
2,note_on,47,66,360
2,note_on,47,0,240
2,note_on,68,58,240
2,note_on,64,49,0
2,note_on,59,49,0
2,note_on,59,0,120
2,note_on,64,0,0
2,note_on,68,0,0
2,note_on,47,66,360
2,note_on,47,0,240
2,note_on,66,56,240
2,note_on,63,47,0
2,note_on,57,47,0
2,note_on,57,0,120
2,note_on,63,0,0
2,note_on,66,0,0
2,note_on,64,66,360
2,note_on,59,55,0
2,note_on,56,55,0
2,note_on,52,55,0
2,note_on,52,0,240
2,note_on,64,0,0
2,note_on,59,0,0
2,note_on,56,0,0
2,note_on,66,56,240
2,note_on,60,47,0
2,note_on,57,47,0
2,note_on,57,0,120
2,note_on,60,0,0
2,note_on,66,0,0
2,note_on,64,65,360
2,note_on,59,54,0
2,note_on,56,54,0
2,note_on,52,54,0
2,note_on,52,0,240
2,note_on,64,0,0
2,note_on,59,0,0
2,note_on,56,0,0
2,note_on,66,58,240
2,note_on,60,49,0
2,note_on,57,49,0
2,note_on,57,0,120
2,note_on,60,0,0
2,note_on,66,0,0
2,note_on,64,69,360
2,note_on,59,58,0
2,note_on,56,58,0
2,note_on,52,58,0
2,note_on,52,0,960
2,note_on,64,0,0
2,note_on,59,0,0
2,note_on,56,0,0
2,note_on,52,67,0
2,note_on,40,56,0
2,note_on,44,56,0
2,note_on,47,56,0
2,note_on,47,0,240
2,note_on,52,0,0
2,note_on,40,0,0
2,note_on,44,0,0
2,note_on,61,69,1680
2,note_on,61,0,240
2,note_on,56,69,720
2,note_on,56,0,1800
2,note_on,61,60,0
2,note_on,49,49,0
2,note_on,49,0,120
2,note_on,61,0,0
2,note_on,56,67,0
2,note_on,56,0,840
2,note_on,61,61,0
2,note_on,49,50,0
2,note_on,49,0,120
2,note_on,61,0,0
2,note_on,56,68,0
2,note_on,56,0,840
2,note_on,61,61,0
2,note_on,49,51,0
2,note_on,49,0,120
2,note_on,61,0,0
2,note_on,56,85,0
2,note_on,44,70,0
2,note_on,44,0,240
2,note_on,56,0,0
2,note_on,55,85,240
2,note_on,43,70,0
2,note_on,43,0,240
2,note_on,55,0,0
2,note_on,54,85,240
2,note_on,42,70,0
2,note_on,42,0,240
2,note_on,54,0,0
2,note_on,53,85,240
2,note_on,41,70,0
2,note_on,41,0,240
2,note_on,53,0,0
2,note_on,52,89,240
2,note_on,40,73,0
2,note_on,40,0,180
2,note_on,52,0,0
2,note_on,57,40,1740
2,note_on,69,29,160
2,note_on,57,0,80
2,note_on,69,0,80
2,note_on,71,31,0
2,note_on,71,0,160
2,note_on,72,32,0
2,note_on,72,0,160
2,note_on,71,33,0
2,note_on,71,0,160
2,note_on,69,32,0
2,note_on,69,0,160
2,note_on,55,40,0
2,note_on,67,32,160
2,note_on,55,0,80
2,note_on,67,0,80
2,note_on,69,33,0
2,note_on,69,0,160
2,note_on,71,34,0
2,note_on,71,0,160
2,note_on,69,34,0
2,note_on,69,0,160
2,note_on,67,31,0
2,note_on,67,0,160
2,note_on,53,40,0
2,note_on,65,31,160
2,note_on,53,0,80
2,note_on,65,0,80
2,note_on,67,33,0
2,note_on,67,0,160
2,note_on,69,34,0
2,note_on,69,0,160
2,note_on,67,34,0
2,note_on,67,0,160
2,note_on,65,32,0
2,note_on,65,0,160
2,note_on,52,40,0
2,note_on,64,31,160
2,note_on,52,0,80
2,note_on,64,0,80
2,note_on,65,32,0
2,note_on,65,0,160
2,note_on,68,33,0
2,note_on,68,0,160
2,note_on,65,32,0
2,note_on,65,0,160
2,note_on,64,30,0
2,note_on,64,0,160
2,note_on,50,40,0
2,note_on,62,30,160
2,note_on,50,0,80
2,note_on,62,0,80
2,note_on,64,31,0
2,note_on,64,0,160
2,note_on,65,32,0
2,note_on,65,0,160
2,note_on,62,32,0
2,note_on,62,0,160
2,note_on,60,30,0
2,note_on,60,0,160
2,note_on,52,43,0
2,note_on,59,43,0
2,note_on,59,0,240
2,note_on,64,40,0
2,note_on,64,0,240
2,note_on,52,0,0
2,note_on,59,45,0
2,note_on,59,0,240
2,note_on,64,40,0
2,note_on,64,0,240
2,note_on,52,43,0
2,note_on,59,43,0
2,note_on,59,0,240
2,note_on,64,40,0
2,note_on,64,0,240
2,note_on,52,0,0
2,note_on,59,45,0
2,note_on,59,0,240
2,note_on,64,40,0
2,note_on,64,0,240
2,note_on,52,43,0
2,note_on,59,43,0
2,note_on,59,0,240
2,note_on,64,40,0
2,note_on,64,0,120
2,note_on,52,0,120
2,note_on,52,43,0
2,note_on,59,45,0
2,note_on,59,0,240
2,note_on,64,40,0
2,note_on,64,0,120
2,note_on,52,0,120
2,note_on,59,56,0
2,note_on,52,47,0
2,note_on,52,0,120
2,note_on,59,0,0
2,note_on,64,60,360
2,note_on,52,51,0
2,note_on,56,51,0
2,note_on,59,51,0
2,note_on,59,0,120
2,note_on,64,0,0
2,note_on,52,0,0
2,note_on,56,0,0
2,note_on,56,68,360
2,note_on,59,68,0
2,note_on,47,57,0
2,note_on,52,57,0
2,note_on,52,0,120
2,note_on,56,0,0
2,note_on,59,0,0
2,note_on,47,0,0
2,note_on,56,75,360
2,note_on,44,63,0
2,note_on,47,63,0
2,note_on,52,63,0
2,note_on,52,0,120
2,note_on,56,0,0
2,note_on,44,0,0
2,note_on,47,0,0
2,note_on,47,60,360
2,note_on,44,60,0
2,note_on,52,70,0
2,note_on,40,60,0
2,note_on,40,0,960
2,note_on,47,0,0
2,note_on,44,0,0
2,note_on,52,0,0
2,note_on,64,74,0
2,note_on,59,62,0
2,note_on,56,62,0
2,note_on,52,62,0
2,note_on,52,0,240
2,note_on,64,0,0
2,note_on,59,0,0
2,note_on,56,0,0
2,note_on,52,67,240
2,note_on,52,0,160
2,note_on,54,71,0
2,note_on,54,0,160
2,note_on,56,75,0
2,note_on,56,0,160
2,note_on,57,70,0
2,note_on,45,59,0
2,note_on,45,0,240
2,note_on,57,0,0
2,note_on,53,56,240
2,note_on,41,47,0
2,note_on,41,0,120
2,note_on,53,0,0
2,note_on,57,70,360
2,note_on,45,59,0
2,note_on,45,0,240
2,note_on,57,0,0
2,note_on,52,56,240
2,note_on,40,47,0
2,note_on,40,0,120
2,note_on,52,0,0
2,note_on,57,70,360
2,note_on,45,59,0
2,note_on,45,0,120
2,note_on,57,0,0
2,note_on,50,61,360
2,note_on,38,51,0
2,note_on,41,51,0
2,note_on,41,0,120
2,note_on,38,0,0
2,note_on,50,0,0
2,note_on,57,70,360
2,note_on,45,59,0
2,note_on,52,59,0
2,note_on,52,0,960
2,note_on,45,0,0
2,note_on,57,0,0
2,note_on,69,75,480
2,note_on,57,63,0
2,note_on,57,0,120
2,note_on,69,0,0
2,note_on,71,79,120
2,note_on,59,67,0
2,note_on,59,0,120
2,note_on,71,0,0
2,note_on,72,86,120
2,note_on,60,72,0
2,note_on,60,0,720
2,note_on,72,0,0
2,note_on,71,74,0
2,note_on,59,62,0
2,note_on,59,0,120
2,note_on,71,0,0
2,note_on,69,87,120
2,note_on,57,73,0
2,note_on,57,0,720
2,note_on,69,0,0
2,note_on,67,75,0
2,note_on,55,63,0
2,note_on,55,0,120
2,note_on,67,0,0
2,note_on,65,88,120
2,note_on,53,74,0
2,note_on,53,0,720
2,note_on,65,0,0
2,note_on,52,75,0
2,note_on,64,75,0
2,note_on,64,0,120
2,note_on,52,0,0
2,note_on,62,70,120
2,note_on,50,59,0
2,note_on,50,0,240
2,note_on,62,0,0
2,note_on,58,56,240
2,note_on,46,47,0
2,note_on,46,0,120
2,note_on,58,0,0
2,note_on,62,70,360
2,note_on,50,59,0
2,note_on,50,0,240
2,note_on,62,0,0
2,note_on,57,56,240
2,note_on,45,47,0
2,note_on,45,0,120
2,note_on,57,0,0
2,note_on,62,70,360
2,note_on,50,59,0
2,note_on,50,0,120
2,note_on,62,0,0
2,note_on,55,61,360
2,note_on,43,51,0
2,note_on,46,51,0
2,note_on,46,0,120
2,note_on,43,0,0
2,note_on,55,0,0
2,note_on,62,73,360
2,note_on,50,61,0
2,note_on,57,61,0
2,note_on,57,0,960
2,note_on,50,0,0
2,note_on,62,0,0
2,note_on,74,75,480
2,note_on,62,63,0
2,note_on,62,0,120
2,note_on,74,0,0
2,note_on,76,79,120
2,note_on,64,67,0
2,note_on,64,0,120
2,note_on,76,0,0
2,note_on,77,82,120
2,note_on,65,69,0
2,note_on,65,0,720
2,note_on,77,0,0
2,note_on,76,74,0
2,note_on,64,62,0
2,note_on,64,0,120
2,note_on,76,0,0
2,note_on,74,83,120
2,note_on,62,70,0
2,note_on,62,0,720
2,note_on,74,0,0
2,note_on,72,75,0
2,note_on,60,63,0
2,note_on,60,0,120
2,note_on,72,0,0
2,note_on,71,84,120
2,note_on,59,71,0
2,note_on,59,0,720
2,note_on,71,0,0
2,note_on,69,70,0
2,note_on,57,59,0
2,note_on,57,0,120
2,note_on,69,0,0
2,note_on,68,72,120
2,note_on,56,61,0
2,note_on,56,0,120
2,note_on,68,0,0
2,note_on,71,77,120
2,note_on,59,65,0
2,note_on,59,0,120
2,note_on,71,0,0
2,note_on,76,81,120
2,note_on,64,68,0
2,note_on,64,0,240
2,note_on,76,0,0
2,note_on,52,70,240
2,note_on,40,59,0
2,note_on,44,59,0
2,note_on,47,59,0
2,note_on,47,0,960
2,note_on,52,0,0
2,note_on,40,0,0
2,note_on,44,0,0
2,note_on,69,75,0
2,note_on,57,64,0
2,note_on,57,0,120
2,note_on,69,0,0
2,note_on,72,80,120
2,note_on,60,68,0
2,note_on,60,0,120
2,note_on,72,0,0
2,note_on,76,85,120
2,note_on,64,71,0
2,note_on,64,0,240
2,note_on,76,0,0
2,note_on,52,70,240
2,note_on,40,59,0
2,note_on,45,59,0
2,note_on,48,59,0
2,note_on,48,0,960
2,note_on,52,0,0
2,note_on,40,0,0
2,note_on,45,0,0
2,note_on,65,85,0
2,note_on,65,0,480
2,note_on,64,73,0
2,note_on,64,0,120
2,note_on,47,73,360
2,note_on,44,62,0
2,note_on,44,0,120
2,note_on,47,0,0
2,note_on,50,66,120
2,note_on,50,0,120
2,note_on,47,73,120
2,note_on,44,62,0
2,note_on,44,0,120
2,note_on,47,0,0
2,note_on,50,64,120
2,note_on,50,0,120
2,note_on,65,85,120
2,note_on,65,0,480
2,note_on,64,73,0
2,note_on,64,0,120
2,note_on,45,73,360
2,note_on,45,0,120
2,note_on,48,66,120
2,note_on,48,0,120
2,note_on,45,73,120
2,note_on,45,0,120
2,note_on,48,64,120
2,note_on,48,0,120
2,note_on,77,60,120
2,note_on,65,51,0
2,note_on,68,51,0
2,note_on,71,51,0
2,note_on,76,60,240
2,note_on,64,51,0
2,note_on,71,0,24
2,note_on,68,0,0
2,note_on,77,0,0
2,note_on,65,0,0
2,note_on,74,58,216
2,note_on,62,49,0
2,note_on,64,0,24
2,note_on,76,0,0
2,note_on,72,58,216
2,note_on,60,49,0
2,note_on,74,0,24
2,note_on,62,0,0
2,note_on,71,56,216
2,note_on,59,47,0
2,note_on,72,0,24
2,note_on,60,0,0
2,note_on,69,56,216
2,note_on,57,47,0
2,note_on,71,0,24
2,note_on,59,0,0
2,note_on,68,55,216
2,note_on,56,46,0
2,note_on,69,0,24
2,note_on,57,0,0
2,note_on,64,53,216
2,note_on,52,45,0
2,note_on,68,0,24
2,note_on,56,0,0
2,note_on,65,59,216
2,note_on,53,50,0
2,note_on,56,50,0
2,note_on,59,50,0
2,note_on,64,0,24
2,note_on,52,0,0
2,note_on,64,58,216
2,note_on,52,49,0
2,note_on,56,0,24
2,note_on,65,0,0
2,note_on,53,0,0
2,note_on,59,0,0
2,note_on,62,56,216
2,note_on,50,47,0
2,note_on,52,0,24
2,note_on,64,0,0
2,note_on,60,55,216
2,note_on,48,46,0
2,note_on,62,0,24
2,note_on,50,0,0
2,note_on,59,53,216
2,note_on,47,45,0
2,note_on,60,0,24
2,note_on,48,0,0
2,note_on,57,51,216
2,note_on,45,43,0
2,note_on,59,0,24
2,note_on,47,0,0
2,note_on,56,50,216
2,note_on,44,42,0
2,note_on,57,0,24
2,note_on,45,0,0
2,note_on,52,48,216
2,note_on,40,40,0
2,note_on,56,0,24
2,note_on,44,0,0
2,note_on,52,0,216
2,note_on,40,0,0
2,note_on,57,65,0
2,note_on,45,55,0
2,note_on,45,0,240
2,note_on,57,0,0
2,note_on,60,59,0
2,note_on,48,50,0
2,note_on,48,0,120
2,note_on,60,0,0
2,note_on,56,66,120
2,note_on,44,56,0
2,note_on,44,0,240
2,note_on,56,0,0
2,note_on,59,60,0
2,note_on,47,51,0
2,note_on,47,0,120
2,note_on,59,0,0
2,note_on,57,65,120
2,note_on,45,55,0
2,note_on,48,55,0
2,note_on,52,55,0
2,note_on,52,0,240
2,note_on,57,0,0
2,note_on,45,0,0
2,note_on,48,0,0
2,note_on,52,65,240
2,note_on,40,55,0
2,note_on,44,55,0
2,note_on,47,55,0
2,note_on,47,0,240
2,note_on,52,0,0
2,note_on,40,0,0
2,note_on,44,0,0
2,note_on,57,73,240
2,note_on,45,61,0
2,note_on,48,61,0
2,note_on,52,61,0
2,note_on,52,0,240
2,note_on,57,0,0
2,note_on,45,0,0
2,note_on,48,0,0
2,note_on,50,74,720
2,note_on,38,61,0
2,note_on,41,61,0
2,note_on,45,61,0
2,note_on,45,0,240
2,note_on,50,0,0
2,note_on,38,0,0
2,note_on,41,0,0
2,note_on,45,76,720
2,note_on,33,64,0
2,note_on,36,64,0
2,note_on,40,64,0
2,note_on,40,0,960
2,note_on,45,0,0
2,note_on,33,0,0
2,note_on,36,0,0
2,note_on,61,69,1920
2,note_on,61,0,240
2,note_on,56,69,720
2,note_on,56,0,1800
2,note_on,61,59,0
2,note_on,49,49,0
2,note_on,49,0,120
2,note_on,61,0,0
2,note_on,56,66,0
2,note_on,56,0,840
2,note_on,61,60,0
2,note_on,49,50,0
2,note_on,49,0,120
2,note_on,61,0,0
2,note_on,56,68,0
2,note_on,56,0,840
2,note_on,61,61,0
2,note_on,49,51,0
2,note_on,49,0,120
2,note_on,61,0,0
2,note_on,56,83,0
2,note_on,44,70,0
2,note_on,44,0,240
2,note_on,56,0,0
2,note_on,55,83,240
2,note_on,43,70,0
2,note_on,43,0,240
2,note_on,55,0,0
2,note_on,54,83,240
2,note_on,42,70,0
2,note_on,42,0,240
2,note_on,54,0,0
2,note_on,53,83,240
2,note_on,41,70,0
2,note_on,41,0,240
2,note_on,53,0,0
2,note_on,52,77,240
2,note_on,40,64,0
2,note_on,40,0,180
2,note_on,52,0,0
2,note_on,57,40,1740
2,note_on,69,29,160
2,note_on,57,0,80
2,note_on,69,0,80
2,note_on,71,31,0
2,note_on,71,0,160
2,note_on,72,32,0
2,note_on,72,0,160
2,note_on,71,33,0
2,note_on,71,0,160
2,note_on,69,32,0
2,note_on,69,0,160
2,note_on,55,40,0
2,note_on,67,32,160
2,note_on,55,0,80
2,note_on,67,0,80
2,note_on,69,33,0
2,note_on,69,0,160
2,note_on,71,34,0
2,note_on,71,0,160
2,note_on,69,34,0
2,note_on,69,0,160
2,note_on,67,31,0
2,note_on,67,0,160
2,note_on,53,40,0
2,note_on,65,31,160
2,note_on,53,0,80
2,note_on,65,0,80
2,note_on,67,33,0
2,note_on,67,0,160
2,note_on,69,34,0
2,note_on,69,0,160
2,note_on,67,34,0
2,note_on,67,0,160
2,note_on,65,32,0
2,note_on,65,0,160
2,note_on,52,40,0
2,note_on,64,31,160
2,note_on,52,0,80
2,note_on,64,0,80
2,note_on,65,32,0
2,note_on,65,0,160
2,note_on,68,33,0
2,note_on,68,0,160
2,note_on,65,32,0
2,note_on,65,0,160
2,note_on,64,30,0
2,note_on,64,0,160
2,note_on,50,40,0
2,note_on,62,30,160
2,note_on,50,0,80
2,note_on,62,0,80
2,note_on,64,31,0
2,note_on,64,0,160
2,note_on,65,32,0
2,note_on,65,0,160
2,note_on,62,32,0
2,note_on,62,0,160
2,note_on,60,30,0
2,note_on,60,0,160
2,note_on,52,43,0
2,note_on,59,43,0
2,note_on,59,0,240
2,note_on,64,40,0
2,note_on,64,0,240
2,note_on,52,0,0
2,note_on,59,45,0
2,note_on,59,0,240
2,note_on,64,40,0
2,note_on,64,0,240
2,note_on,52,43,0
2,note_on,59,43,0
2,note_on,59,0,240
2,note_on,64,40,0
2,note_on,64,0,240
2,note_on,52,0,0
2,note_on,59,45,0
2,note_on,59,0,240
2,note_on,64,40,0
2,note_on,64,0,240
2,note_on,52,43,0
2,note_on,59,43,0
2,note_on,59,0,240
2,note_on,64,40,0
2,note_on,64,0,120
2,note_on,52,0,120
2,note_on,52,43,0
2,note_on,59,45,0
2,note_on,59,0,240
2,note_on,64,40,0
2,note_on,64,0,120
2,note_on,52,0,120
2,note_on,59,56,0
2,note_on,52,47,0
2,note_on,52,0,120
2,note_on,59,0,0
2,note_on,64,60,360
2,note_on,52,51,0
2,note_on,56,51,0
2,note_on,59,51,0
2,note_on,59,0,120
2,note_on,64,0,0
2,note_on,52,0,0
2,note_on,56,0,0
2,note_on,56,68,360
2,note_on,59,68,0
2,note_on,47,57,0
2,note_on,52,57,0
2,note_on,52,0,120
2,note_on,56,0,0
2,note_on,59,0,0
2,note_on,47,0,0
2,note_on,56,75,360
2,note_on,44,63,0
2,note_on,47,63,0
2,note_on,52,63,0
2,note_on,52,0,120
2,note_on,56,0,0
2,note_on,44,0,0
2,note_on,47,0,0
2,note_on,47,60,360
2,note_on,44,60,0
2,note_on,52,70,0
2,note_on,40,60,0
2,note_on,40,0,960
2,note_on,47,0,0
2,note_on,44,0,0
2,note_on,52,0,0
2,note_on,64,74,0
2,note_on,59,62,0
2,note_on,56,62,0
2,note_on,52,62,0
2,note_on,52,0,240
2,note_on,64,0,0
2,note_on,59,0,0
2,note_on,56,0,0
2,note_on,52,67,240
2,note_on,52,0,160
2,note_on,54,71,0
2,note_on,54,0,160
2,note_on,56,75,0
2,note_on,56,0,160
2,note_on,57,70,0
2,note_on,45,59,0
2,note_on,45,0,240
2,note_on,57,0,0
2,note_on,53,56,240
2,note_on,41,47,0
2,note_on,41,0,120
2,note_on,53,0,0
2,note_on,57,70,360
2,note_on,45,59,0
2,note_on,45,0,240
2,note_on,57,0,0
2,note_on,52,56,240
2,note_on,40,47,0
2,note_on,40,0,120
2,note_on,52,0,0
2,note_on,57,70,360
2,note_on,45,59,0
2,note_on,45,0,120
2,note_on,57,0,0
2,note_on,50,61,360
2,note_on,38,51,0
2,note_on,41,51,0
2,note_on,41,0,120
2,note_on,38,0,0
2,note_on,50,0,0
2,note_on,57,70,360
2,note_on,45,59,0
2,note_on,52,59,0
2,note_on,52,0,960
2,note_on,45,0,0
2,note_on,57,0,0
2,note_on,69,75,480
2,note_on,57,63,0
2,note_on,57,0,120
2,note_on,69,0,0
2,note_on,71,79,120
2,note_on,59,67,0
2,note_on,59,0,120
2,note_on,71,0,0
2,note_on,72,86,120
2,note_on,60,72,0
2,note_on,60,0,720
2,note_on,72,0,0
2,note_on,71,74,0
2,note_on,59,62,0
2,note_on,59,0,120
2,note_on,71,0,0
2,note_on,69,87,120
2,note_on,57,73,0
2,note_on,57,0,720
2,note_on,69,0,0
2,note_on,67,75,0
2,note_on,55,63,0
2,note_on,55,0,120
2,note_on,67,0,0
2,note_on,65,88,120
2,note_on,53,74,0
2,note_on,53,0,720
2,note_on,65,0,0
2,note_on,52,75,0
2,note_on,64,75,0
2,note_on,64,0,120
2,note_on,52,0,0
2,note_on,62,70,120
2,note_on,50,59,0
2,note_on,50,0,240
2,note_on,62,0,0
2,note_on,58,56,240
2,note_on,46,47,0
2,note_on,46,0,120
2,note_on,58,0,0
2,note_on,62,70,360
2,note_on,50,59,0
2,note_on,50,0,240
2,note_on,62,0,0
2,note_on,57,56,240
2,note_on,45,47,0
2,note_on,45,0,120
2,note_on,57,0,0
2,note_on,62,70,360
2,note_on,50,59,0
2,note_on,50,0,120
2,note_on,62,0,0
2,note_on,55,56,360
2,note_on,43,47,0
2,note_on,46,47,0
2,note_on,46,0,120
2,note_on,43,0,0
2,note_on,55,0,0
2,note_on,62,73,360
2,note_on,50,61,0
2,note_on,57,61,0
2,note_on,57,0,960
2,note_on,50,0,0
2,note_on,62,0,0
2,note_on,74,75,480
2,note_on,62,63,0
2,note_on,62,0,120
2,note_on,74,0,0
2,note_on,76,79,120
2,note_on,64,67,0
2,note_on,64,0,120
2,note_on,76,0,0
2,note_on,77,82,120
2,note_on,65,69,0
2,note_on,65,0,720
2,note_on,77,0,0
2,note_on,76,74,0
2,note_on,64,62,0
2,note_on,64,0,120
2,note_on,76,0,0
2,note_on,74,83,120
2,note_on,62,70,0
2,note_on,62,0,720
2,note_on,74,0,0
2,note_on,72,75,0
2,note_on,60,63,0
2,note_on,60,0,120
2,note_on,72,0,0
2,note_on,71,84,120
2,note_on,59,71,0
2,note_on,59,0,720
2,note_on,71,0,0
2,note_on,69,70,0
2,note_on,57,59,0
2,note_on,57,0,120
2,note_on,69,0,0
2,note_on,68,72,120
2,note_on,56,61,0
2,note_on,56,0,120
2,note_on,68,0,0
2,note_on,71,77,120
2,note_on,59,65,0
2,note_on,59,0,120
2,note_on,71,0,0
2,note_on,76,81,120
2,note_on,64,68,0
2,note_on,64,0,240
2,note_on,76,0,0
2,note_on,52,70,240
2,note_on,40,59,0
2,note_on,44,59,0
2,note_on,47,59,0
2,note_on,47,0,960
2,note_on,52,0,0
2,note_on,40,0,0
2,note_on,44,0,0
2,note_on,69,72,0
2,note_on,57,61,0
2,note_on,57,0,120
2,note_on,69,0,0
2,note_on,72,77,120
2,note_on,60,65,0
2,note_on,60,0,120
2,note_on,72,0,0
2,note_on,76,81,120
2,note_on,64,68,0
2,note_on,64,0,240
2,note_on,76,0,0
2,note_on,52,70,240
2,note_on,40,59,0
2,note_on,45,59,0
2,note_on,48,59,0
2,note_on,48,0,960
2,note_on,52,0,0
2,note_on,40,0,0
2,note_on,45,0,0
2,note_on,65,85,0
2,note_on,65,0,480
2,note_on,64,73,0
2,note_on,64,0,120
2,note_on,47,73,360
2,note_on,44,62,0
2,note_on,44,0,120
2,note_on,47,0,0
2,note_on,50,66,120
2,note_on,50,0,120
2,note_on,47,73,120
2,note_on,44,62,0
2,note_on,44,0,120
2,note_on,47,0,0
2,note_on,50,64,120
2,note_on,50,0,120
2,note_on,65,85,120
2,note_on,65,0,480
2,note_on,64,73,0
2,note_on,64,0,120
2,note_on,45,73,360
2,note_on,45,0,120
2,note_on,48,66,120
2,note_on,48,0,120
2,note_on,45,73,120
2,note_on,45,0,120
2,note_on,48,64,120
2,note_on,48,0,120
2,note_on,77,60,120
2,note_on,65,51,0
2,note_on,68,51,0
2,note_on,71,51,0
2,note_on,76,60,240
2,note_on,64,51,0
2,note_on,71,0,24
2,note_on,68,0,0
2,note_on,77,0,0
2,note_on,65,0,0
2,note_on,74,58,216
2,note_on,62,49,0
2,note_on,64,0,24
2,note_on,76,0,0
2,note_on,72,58,216
2,note_on,60,49,0
2,note_on,74,0,24
2,note_on,62,0,0
2,note_on,71,56,216
2,note_on,59,47,0
2,note_on,72,0,24
2,note_on,60,0,0
2,note_on,69,56,216
2,note_on,57,47,0
2,note_on,71,0,24
2,note_on,59,0,0
2,note_on,68,55,216
2,note_on,56,46,0
2,note_on,69,0,24
2,note_on,57,0,0
2,note_on,64,53,216
2,note_on,52,45,0
2,note_on,68,0,24
2,note_on,56,0,0
2,note_on,65,59,216
2,note_on,53,50,0
2,note_on,56,50,0
2,note_on,59,50,0
2,note_on,64,0,24
2,note_on,52,0,0
2,note_on,64,58,216
2,note_on,52,49,0
2,note_on,56,0,24
2,note_on,65,0,0
2,note_on,53,0,0
2,note_on,59,0,0
2,note_on,62,56,216
2,note_on,50,47,0
2,note_on,52,0,24
2,note_on,64,0,0
2,note_on,60,55,216
2,note_on,48,46,0
2,note_on,62,0,24
2,note_on,50,0,0
2,note_on,59,53,216
2,note_on,47,45,0
2,note_on,60,0,24
2,note_on,48,0,0
2,note_on,57,51,216
2,note_on,45,43,0
2,note_on,59,0,24
2,note_on,47,0,0
2,note_on,56,50,216
2,note_on,44,42,0
2,note_on,57,0,24
2,note_on,45,0,0
2,note_on,52,48,216
2,note_on,40,40,0
2,note_on,56,0,24
2,note_on,44,0,0
2,note_on,52,0,216
2,note_on,40,0,0
2,note_on,57,65,0
2,note_on,45,55,0
2,note_on,45,0,240
2,note_on,57,0,0
2,note_on,60,59,0
2,note_on,48,50,0
2,note_on,48,0,120
2,note_on,60,0,0
2,note_on,56,66,120
2,note_on,44,56,0
2,note_on,44,0,240
2,note_on,56,0,0
2,note_on,59,60,0
2,note_on,47,51,0
2,note_on,47,0,120
2,note_on,59,0,0
2,note_on,57,65,120
2,note_on,45,55,0
2,note_on,48,55,0
2,note_on,52,55,0
2,note_on,52,0,240
2,note_on,57,0,0
2,note_on,45,0,0
2,note_on,48,0,0
2,note_on,52,65,240
2,note_on,40,55,0
2,note_on,44,55,0
2,note_on,47,55,0
2,note_on,47,0,240
2,note_on,52,0,0
2,note_on,40,0,0
2,note_on,44,0,0
2,note_on,57,73,240
2,note_on,45,61,0
2,note_on,48,61,0
2,note_on,52,61,0
2,note_on,52,0,240
2,note_on,57,0,0
2,note_on,45,0,0
2,note_on,48,0,0
2,note_on,50,74,720
2,note_on,38,61,0
2,note_on,41,61,0
2,note_on,45,61,0
2,note_on,45,0,240
2,note_on,50,0,0
2,note_on,38,0,0
2,note_on,41,0,0
2,note_on,45,76,720
2,note_on,33,64,0
2,note_on,36,64,0
2,note_on,40,64,0
2,note_on,40,0,960
2,note_on,45,0,0
2,note_on,33,0,0
2,note_on,36,0,0
2,note_on,61,34,1440
2,note_on,52,34,0
2,note_on,61,0,240
2,note_on,64,34,0
2,note_on,64,0,240
2,note_on,52,0,0
2,note_on,45,41,0
2,note_on,45,0,120
2,note_on,61,41,1320
2,note_on,52,41,0
2,note_on,61,0,240
2,note_on,64,41,0
2,note_on,64,0,240
2,note_on,52,0,0
2,note_on,45,49,0
2,note_on,45,0,120
2,note_on,71,34,360
2,note_on,61,28,0
2,note_on,65,28,0
2,note_on,65,0,240
2,note_on,61,0,0
2,note_on,71,0,0
2,note_on,69,39,240
2,note_on,66,33,0
2,note_on,66,0,240
2,note_on,69,0,0
2,note_on,71,36,240
2,note_on,61,30,0
2,note_on,68,30,0
2,note_on,68,0,240
2,note_on,61,0,0
2,note_on,71,0,0
2,note_on,69,41,240
2,note_on,66,34,0
2,note_on,66,0,240
2,note_on,69,0,0
2,note_on,71,37,240
2,note_on,61,31,0
2,note_on,68,31,0
2,note_on,68,0,240
2,note_on,61,0,0
2,note_on,71,0,0
2,note_on,69,40,240
2,note_on,66,34,0
2,note_on,66,0,240
2,note_on,69,0,0
2,note_on,57,41,240
2,note_on,57,0,240
2,note_on,61,41,0
2,note_on,61,0,240
2,note_on,54,49,0
2,note_on,54,0,120
2,note_on,79,34,360
2,note_on,69,28,0
2,note_on,73,28,0
2,note_on,73,0,240
2,note_on,69,0,0
2,note_on,79,0,0
2,note_on,78,39,240
2,note_on,74,33,0
2,note_on,74,0,240
2,note_on,78,0,0
2,note_on,79,36,240
2,note_on,69,30,0
2,note_on,76,30,0
2,note_on,76,0,240
2,note_on,69,0,0
2,note_on,79,0,0
2,note_on,78,41,240
2,note_on,74,34,0
2,note_on,74,0,240
2,note_on,78,0,0
2,note_on,79,37,240
2,note_on,69,31,0
2,note_on,76,31,0
2,note_on,76,0,240
2,note_on,69,0,0
2,note_on,79,0,0
2,note_on,78,40,240
2,note_on,74,34,0
2,note_on,74,0,240
2,note_on,78,0,0
2,note_on,66,41,240
2,note_on,66,0,240
2,note_on,69,41,0
2,note_on,69,0,240
2,note_on,62,49,0
2,note_on,62,0,120
2,note_on,62,34,1320
2,note_on,54,34,0
2,note_on,62,0,240
2,note_on,66,34,0
2,note_on,66,0,240
2,note_on,54,0,0
2,note_on,47,41,0
2,note_on,47,0,120
2,note_on,62,41,1320
2,note_on,54,41,0
2,note_on,62,0,240
2,note_on,66,41,0
2,note_on,66,0,240
2,note_on,54,0,0
2,note_on,47,49,0
2,note_on,47,0,120
2,note_on,52,41,840
2,note_on,52,0,480
2,note_on,69,36,0
2,note_on,64,30,0
2,note_on,61,30,0
2,note_on,61,0,120
2,note_on,64,0,0
2,note_on,69,0,0
2,note_on,64,41,360
2,note_on,64,0,480
2,note_on,80,36,0
2,note_on,76,30,0
2,note_on,71,30,0
2,note_on,71,0,120
2,note_on,76,0,0
2,note_on,80,0,0
2,note_on,81,41,360
2,note_on,69,34,0
2,note_on,76,34,0
2,note_on,76,0,120
2,note_on,69,0,0
2,note_on,81,0,0
2,note_on,80,37,360
2,note_on,76,31,0
2,note_on,76,0,120
2,note_on,80,0,0
2,note_on,81,41,360
2,note_on,69,34,0
2,note_on,76,34,0
2,note_on,76,0,120
2,note_on,69,0,0
2,note_on,81,0,0
2,note_on,61,41,360
2,note_on,61,0,180
2,note_on,64,41,60
2,note_on,64,0,180
2,note_on,57,41,60
2,note_on,45,22,480
2,note_on,52,30,0
2,note_on,52,0,240
2,note_on,45,0,0
2,note_on,57,0,240
2,note_on,45,22,0
2,note_on,52,30,0
2,note_on,52,0,240
2,note_on,45,0,0
2,note_on,61,41,240
2,note_on,61,0,180
2,note_on,64,41,60
2,note_on,64,0,180
2,note_on,57,41,60
2,note_on,45,22,480
2,note_on,52,30,0
2,note_on,52,0,240
2,note_on,45,0,0
2,note_on,57,0,240
2,note_on,45,22,0
2,note_on,52,30,0
2,note_on,52,0,240
2,note_on,45,0,0
2,note_on,71,34,240
2,note_on,61,28,0
2,note_on,65,28,0
2,note_on,65,0,240
2,note_on,61,0,0
2,note_on,71,0,0
2,note_on,69,39,240
2,note_on,66,33,0
2,note_on,66,0,240
2,note_on,69,0,0
2,note_on,71,36,240
2,note_on,61,30,0
2,note_on,68,30,0
2,note_on,68,0,240
2,note_on,61,0,0
2,note_on,71,0,0
2,note_on,69,41,240
2,note_on,66,34,0
2,note_on,66,0,240
2,note_on,69,0,0
2,note_on,71,37,240
2,note_on,61,31,0
2,note_on,68,31,0
2,note_on,68,0,240
2,note_on,61,0,0
2,note_on,71,0,0
2,note_on,69,40,240
2,note_on,66,34,0
2,note_on,66,0,120
2,note_on,69,0,0
2,note_on,79,34,1320
2,note_on,69,28,0
2,note_on,73,28,0
2,note_on,73,0,240
2,note_on,69,0,0
2,note_on,79,0,0
2,note_on,78,39,240
2,note_on,74,33,0
2,note_on,74,0,240
2,note_on,78,0,0
2,note_on,79,36,240
2,note_on,69,30,0
2,note_on,76,30,0
2,note_on,76,0,240
2,note_on,69,0,0
2,note_on,79,0,0
2,note_on,78,41,240
2,note_on,74,34,0
2,note_on,74,0,240
2,note_on,78,0,0
2,note_on,79,37,240
2,note_on,69,31,0
2,note_on,76,31,0
2,note_on,76,0,240
2,note_on,69,0,0
2,note_on,79,0,0
2,note_on,78,40,240
2,note_on,74,34,0
2,note_on,74,0,120
2,note_on,78,0,0
2,note_on,62,41,1320
2,note_on,62,0,180
2,note_on,66,41,60
2,note_on,66,0,180
2,note_on,59,41,60
2,note_on,47,22,480
2,note_on,54,30,0
2,note_on,54,0,240
2,note_on,47,0,0
2,note_on,59,0,240
2,note_on,47,22,0
2,note_on,54,30,0
2,note_on,54,0,240
2,note_on,47,0,0
2,note_on,62,41,240
2,note_on,62,0,180
2,note_on,66,41,60
2,note_on,66,0,180
2,note_on,59,41,60
2,note_on,47,22,480
2,note_on,54,30,0
2,note_on,54,0,240
2,note_on,47,0,0
2,note_on,59,0,240
2,note_on,47,22,0
2,note_on,54,30,0
2,note_on,54,0,240
2,note_on,47,0,0
2,note_on,40,36,720
2,note_on,52,41,0
2,note_on,52,0,120
2,note_on,40,0,0
2,note_on,64,36,360
2,note_on,61,30,0
2,note_on,57,30,0
2,note_on,57,0,120
2,note_on,61,0,0
2,note_on,64,0,0
2,note_on,52,41,360
2,note_on,52,0,120
2,note_on,68,36,360
2,note_on,64,30,0
2,note_on,59,30,0
2,note_on,59,0,120
2,note_on,64,0,0
2,note_on,68,0,0
2,note_on,61,34,360
2,note_on,69,41,0
2,note_on,57,34,0
2,note_on,64,34,0
2,note_on,64,0,120
2,note_on,61,0,0
2,note_on,69,0,0
2,note_on,57,0,0
2,note_on,68,37,360
2,note_on,64,31,0
2,note_on,64,0,120
2,note_on,68,0,0
2,note_on,61,34,360
2,note_on,69,41,0
2,note_on,57,34,0
2,note_on,64,34,0
2,note_on,64,0,120
2,note_on,61,0,0
2,note_on,69,0,0
2,note_on,57,0,0
2,note_on,45,69,360
2,note_on,33,58,0
2,note_on,33,0,180
2,note_on,45,0,0
2,note_on,44,74,300
2,note_on,32,62,0
2,note_on,32,0,180
2,note_on,44,0,0
2,note_on,41,69,300
2,note_on,29,58,0
2,note_on,29,0,180
2,note_on,41,0,0
2,note_on,40,74,300
2,note_on,28,62,0
2,note_on,28,0,180
2,note_on,40,0,0
2,note_on,38,69,300
2,note_on,26,58,0
2,note_on,26,0,180
2,note_on,38,0,0
2,note_on,37,79,300
2,note_on,25,65,0
2,note_on,25,0,720
2,note_on,37,0,0
2,note_on,38,69,0
2,note_on,26,58,0
2,note_on,26,0,240
2,note_on,38,0,0
2,note_on,40,80,0
2,note_on,28,66,0
2,note_on,28,0,240
2,note_on,40,0,0
2,note_on,45,73,480
2,note_on,33,60,0
2,note_on,33,0,120
2,note_on,45,0,0
2,note_on,40,80,120
2,note_on,28,66,0
2,note_on,28,0,720
2,note_on,40,0,0
2,note_on,45,69,0
2,note_on,33,58,0
2,note_on,33,0,120
2,note_on,45,0,0
2,note_on,40,78,120
2,note_on,28,65,0
2,note_on,28,0,720
2,note_on,40,0,0
2,note_on,45,56,0
2,note_on,33,47,0
2,note_on,33,0,120
2,note_on,45,0,0
2,note_on,40,60,120
2,note_on,28,51,0
2,note_on,28,0,120
2,note_on,40,0,0
2,note_on,37,53,120
2,note_on,25,45,0
2,note_on,25,0,120
2,note_on,37,0,0
2,note_on,21,45,120
2,note_on,33,45,0
2,note_on,33,0,120
2,note_on,21,0,0
2,note_on,37,53,120
2,note_on,25,45,0
2,note_on,25,0,120
2,note_on,37,0,0
2,note_on,40,50,120
2,note_on,28,42,0
2,note_on,28,0,120
2,note_on,40,0,0
2,note_on,37,53,120
2,note_on,25,45,0
2,note_on,25,0,120
2,note_on,37,0,0
2,note_on,40,56,120
2,note_on,28,47,0
2,note_on,28,0,120
2,note_on,40,0,0
2,note_on,45,59,120
2,note_on,33,50,0
2,note_on,33,0,120
2,note_on,45,0,0
2,note_on,40,63,120
2,note_on,28,53,0
2,note_on,28,0,960
2,note_on,40,0,0
2,note_on,45,58,0
2,note_on,33,49,0
2,note_on,33,0,120
2,note_on,45,0,0
2,note_on,41,47,300
2,note_on,48,51,30
2,note_on,57,58,30
2,note_on,57,0,240
2,note_on,48,0,0
2,note_on,41,0,0
2,note_on,40,46,180
2,note_on,48,48,30
2,note_on,55,58,30
2,note_on,55,0,240
2,note_on,48,0,0
2,note_on,40,0,0
2,note_on,41,47,180
2,note_on,48,51,30
2,note_on,57,54,30
2,note_on,57,0,240
2,note_on,48,0,0
2,note_on,41,0,0
2,note_on,43,52,180
2,note_on,52,55,30
2,note_on,60,56,30
2,note_on,60,0,240
2,note_on,52,0,0
2,note_on,43,0,0
2,note_on,43,45,180
2,note_on,53,47,30
2,note_on,59,51,30
2,note_on,59,0,240
2,note_on,53,0,0
2,note_on,43,0,0
2,note_on,48,45,180
2,note_on,55,1,30
2,note_on,60,59,30
2,note_on,60,0,240
2,note_on,55,0,0
2,note_on,48,0,0
2,note_on,64,45,240
2,note_on,64,0,120
2,note_on,67,46,0
2,note_on,67,0,120
2,note_on,72,47,0
2,note_on,72,0,120
2,note_on,74,49,0
2,note_on,74,0,120
2,note_on,76,49,0
2,note_on,76,0,120
2,note_on,55,47,300
2,note_on,65,51,30
2,note_on,71,59,30
2,note_on,71,0,240
2,note_on,65,0,0
2,note_on,55,0,0
2,note_on,60,45,240
2,note_on,67,1,0
2,note_on,72,59,0
2,note_on,72,0,240
2,note_on,67,0,0
2,note_on,60,0,0
2,note_on,76,45,240
2,note_on,76,0,120
2,note_on,79,46,0
2,note_on,79,0,120
2,note_on,84,47,0
2,note_on,84,0,120
2,note_on,86,49,0
2,note_on,86,0,120
2,note_on,88,49,0
2,note_on,88,0,120
2,note_on,67,47,300
2,note_on,77,51,30
2,note_on,83,59,30
2,note_on,83,0,240
2,note_on,77,0,0
2,note_on,67,0,0
2,note_on,84,50,240
2,note_on,72,42,0
2,note_on,76,42,0
2,note_on,76,0,120
2,note_on,72,0,0
2,note_on,84,0,0
2,note_on,67,50,360
2,note_on,67,0,120
2,note_on,83,46,120
2,note_on,77,39,0
2,note_on,74,39,0
2,note_on,74,0,120
2,note_on,77,0,0
2,note_on,83,0,0
2,note_on,72,50,120
2,note_on,72,0,120
2,note_on,84,46,120
2,note_on,79,39,0
2,note_on,76,39,0
2,note_on,76,0,120
2,note_on,79,0,0
2,note_on,84,0,0
2,note_on,67,50,120
2,note_on,67,0,120
2,note_on,83,46,120
2,note_on,77,39,0
2,note_on,74,39,0
2,note_on,74,0,120
2,note_on,77,0,0
2,note_on,83,0,0
2,note_on,72,50,120
2,note_on,72,0,120
2,note_on,84,46,120
2,note_on,76,39,0
2,note_on,79,39,0
2,note_on,79,0,120
2,note_on,76,0,0
2,note_on,84,0,0
2,note_on,67,50,120
2,note_on,67,0,120
2,note_on,83,46,120
2,note_on,77,39,0
2,note_on,74,39,0
2,note_on,74,0,120
2,note_on,77,0,0
2,note_on,83,0,0
2,note_on,72,50,120
2,note_on,72,0,120
2,note_on,84,46,120
2,note_on,79,39,0
2,note_on,76,39,0
2,note_on,76,0,120
2,note_on,79,0,0
2,note_on,84,0,0
2,note_on,67,50,120
2,note_on,67,0,120
2,note_on,83,46,120
2,note_on,77,39,0
2,note_on,74,39,0
2,note_on,74,0,120
2,note_on,77,0,0
2,note_on,83,0,0
2,note_on,72,45,75
2,note_on,76,46,15
2,note_on,79,48,15
2,note_on,84,50,15
2,note_on,84,0,120
2,note_on,72,0,0
2,note_on,76,0,0
2,note_on,79,0,0
2,note_on,64,27,360
2,note_on,64,0,120
2,note_on,65,28,0
2,note_on,65,0,120
2,note_on,66,29,0
2,note_on,66,0,120
2,note_on,67,30,0
2,note_on,67,0,120
2,note_on,68,31,0
2,note_on,68,0,120
2,note_on,69,32,0
2,note_on,69,0,120
2,note_on,70,33,0
2,note_on,70,0,120
2,note_on,71,34,0
2,note_on,71,0,120
2,note_on,72,35,0
2,note_on,72,0,120
2,note_on,73,36,0
2,note_on,73,0,120
2,note_on,74,37,0
2,note_on,74,0,120
2,note_on,75,38,0
2,note_on,75,0,120
2,note_on,76,40,0
2,note_on,76,0,120
2,note_on,77,41,0
2,note_on,77,0,120
2,note_on,78,42,0
2,note_on,78,0,120
2,note_on,79,43,0
2,note_on,79,0,120
2,note_on,80,44,0
2,note_on,80,0,120
2,note_on,81,45,0
2,note_on,81,0,120
2,note_on,82,46,0
2,note_on,82,0,120
2,note_on,83,47,0
2,note_on,83,0,120
2,note_on,84,48,0
2,note_on,84,0,96
2,note_on,85,49,0
2,note_on,85,0,96
2,note_on,86,50,0
2,note_on,86,0,96
2,note_on,87,51,0
2,note_on,87,0,96
2,note_on,88,52,0
2,note_on,88,0,96
2,note_on,73,44,960
2,note_on,73,0,120
2,note_on,76,39,120
2,note_on,76,0,120
2,note_on,69,44,120
2,note_on,57,36,0
2,note_on,64,36,0
2,note_on,64,0,120
2,note_on,57,0,0
2,note_on,69,0,0
2,note_on,73,44,1320
2,note_on,73,0,120
2,note_on,76,39,120
2,note_on,76,0,120
2,note_on,69,44,120
2,note_on,57,36,0
2,note_on,64,36,0
2,note_on,64,0,120
2,note_on,57,0,0
2,note_on,69,0,0
2,note_on,73,45,360
2,note_on,73,0,120
2,note_on,83,40,120
2,note_on,77,34,0
2,note_on,77,0,120
2,note_on,83,0,0
2,note_on,78,45,120
2,note_on,78,0,120
2,note_on,81,39,120
2,note_on,81,0,120
2,note_on,73,44,120
2,note_on,73,0,120
2,note_on,83,39,120
2,note_on,80,39,0
2,note_on,80,0,120
2,note_on,83,0,0
2,note_on,78,44,120
2,note_on,78,0,120
2,note_on,81,39,120
2,note_on,81,0,120
2,note_on,73,44,120
2,note_on,73,0,120
2,note_on,83,40,120
2,note_on,80,40,0
2,note_on,80,0,120
2,note_on,83,0,0
2,note_on,81,44,120
2,note_on,78,44,0
2,note_on,78,0,120
2,note_on,81,0,0
2,note_on,69,45,1320
2,note_on,69,0,120
2,note_on,79,40,120
2,note_on,76,34,0
2,note_on,76,0,120
2,note_on,79,0,0
2,note_on,74,45,120
2,note_on,74,0,120
2,note_on,78,39,120
2,note_on,81,39,0
2,note_on,81,0,120
2,note_on,78,0,0
2,note_on,69,44,120
2,note_on,69,0,120
2,note_on,79,39,120
2,note_on,76,39,0
2,note_on,76,0,120
2,note_on,79,0,0
2,note_on,74,44,120
2,note_on,74,0,120
2,note_on,78,39,120
2,note_on,81,39,0
2,note_on,81,0,120
2,note_on,78,0,0
2,note_on,69,44,120
2,note_on,69,0,120
2,note_on,79,40,120
2,note_on,76,40,0
2,note_on,76,0,120
2,note_on,79,0,0
2,note_on,78,44,120
2,note_on,74,44,0
2,note_on,74,0,120
2,note_on,78,0,0
2,note_on,74,44,2280
2,note_on,74,0,120
2,note_on,78,39,120
2,note_on,78,0,120
2,note_on,71,44,120
2,note_on,59,36,0
2,note_on,66,36,0
2,note_on,66,0,120
2,note_on,59,0,0
2,note_on,71,0,0
2,note_on,74,44,1320
2,note_on,74,0,120
2,note_on,78,39,120
2,note_on,78,0,120
2,note_on,71,44,120
2,note_on,59,36,0
2,note_on,66,36,0
2,note_on,66,0,120
2,note_on,59,0,0
2,note_on,71,0,0
2,note_on,78,52,360
2,note_on,86,52,0
2,note_on,86,0,480
2,note_on,78,0,0
2,note_on,76,50,0
2,note_on,85,50,0
2,note_on,85,0,120
2,note_on,76,0,0
2,note_on,74,41,120
2,note_on,83,41,0
2,note_on,83,0,120
2,note_on,74,0,0
2,note_on,73,51,120
2,note_on,81,51,0
2,note_on,81,0,480
2,note_on,73,0,0
2,note_on,74,52,0
2,note_on,83,52,0
2,note_on,83,0,120
2,note_on,74,0,0
2,note_on,73,41,120
2,note_on,81,41,0
2,note_on,81,0,120
2,note_on,73,0,0
2,note_on,71,49,120
2,note_on,80,49,0
2,note_on,80,0,480
2,note_on,71,0,0
2,note_on,69,47,0
2,note_on,81,47,0
2,note_on,73,47,0
2,note_on,73,0,120
2,note_on,81,0,0
2,note_on,69,0,0
2,note_on,64,45,360
2,note_on,68,45,0
2,note_on,71,45,0
2,note_on,76,45,0
2,note_on,76,0,120
2,note_on,64,0,0
2,note_on,68,0,0
2,note_on,71,0,0
2,note_on,57,46,360
2,note_on,61,46,0
2,note_on,64,46,0
2,note_on,69,46,0
2,note_on,69,0,120
2,note_on,57,0,0
2,note_on,61,0,0
2,note_on,64,0,0
2,note_on,45,69,360
2,note_on,33,58,0
2,note_on,33,0,180
2,note_on,45,0,0
2,note_on,44,74,300
2,note_on,32,62,0
2,note_on,32,0,180
2,note_on,44,0,0
2,note_on,41,69,300
2,note_on,29,58,0
2,note_on,29,0,180
2,note_on,41,0,0
2,note_on,40,74,300
2,note_on,28,62,0
2,note_on,28,0,180
2,note_on,40,0,0
2,note_on,38,69,300
2,note_on,26,58,0
2,note_on,26,0,180
2,note_on,38,0,0
2,note_on,37,79,300
2,note_on,25,65,0
2,note_on,25,0,720
2,note_on,37,0,0
2,note_on,38,69,0
2,note_on,26,58,0
2,note_on,26,0,240
2,note_on,38,0,0
2,note_on,40,80,0
2,note_on,28,66,0
2,note_on,28,0,240
2,note_on,40,0,0
2,note_on,45,73,480
2,note_on,33,60,0
2,note_on,33,0,120
2,note_on,45,0,0
2,note_on,40,80,120
2,note_on,28,66,0
2,note_on,28,0,720
2,note_on,40,0,0
2,note_on,45,69,0
2,note_on,33,58,0
2,note_on,33,0,120
2,note_on,45,0,0
2,note_on,40,78,120
2,note_on,28,65,0
2,note_on,28,0,720
2,note_on,40,0,0
2,note_on,45,56,0
2,note_on,33,47,0
2,note_on,33,0,120
2,note_on,45,0,0
2,note_on,40,60,120
2,note_on,28,51,0
2,note_on,28,0,120
2,note_on,40,0,0
2,note_on,37,53,120
2,note_on,25,45,0
2,note_on,25,0,120
2,note_on,37,0,0
2,note_on,21,45,120
2,note_on,33,45,0
2,note_on,33,0,120
2,note_on,21,0,0
2,note_on,37,53,120
2,note_on,25,45,0
2,note_on,25,0,120
2,note_on,37,0,0
2,note_on,40,50,120
2,note_on,28,42,0
2,note_on,28,0,120
2,note_on,40,0,0
2,note_on,37,53,120
2,note_on,25,45,0
2,note_on,25,0,120
2,note_on,37,0,0
2,note_on,40,56,120
2,note_on,28,47,0
2,note_on,28,0,120
2,note_on,40,0,0
2,note_on,45,59,120
2,note_on,33,50,0
2,note_on,33,0,120
2,note_on,45,0,0
2,note_on,40,63,120
2,note_on,28,53,0
2,note_on,28,0,960
2,note_on,40,0,0
2,note_on,45,58,0
2,note_on,33,49,0
2,note_on,33,0,120
2,note_on,45,0,0
2,note_on,41,47,300
2,note_on,48,51,30
2,note_on,57,58,30
2,note_on,57,0,240
2,note_on,48,0,0
2,note_on,41,0,0
2,note_on,40,46,180
2,note_on,48,48,30
2,note_on,55,58,30
2,note_on,55,0,240
2,note_on,48,0,0
2,note_on,40,0,0
2,note_on,41,47,180
2,note_on,48,51,30
2,note_on,57,54,30
2,note_on,57,0,240
2,note_on,48,0,0
2,note_on,41,0,0
2,note_on,43,52,180
2,note_on,52,55,30
2,note_on,60,56,30
2,note_on,60,0,240
2,note_on,52,0,0
2,note_on,43,0,0
2,note_on,43,45,180
2,note_on,53,47,30
2,note_on,59,51,30
2,note_on,59,0,240
2,note_on,53,0,0
2,note_on,43,0,0
2,note_on,48,45,180
2,note_on,55,1,30
2,note_on,60,59,30
2,note_on,60,0,240
2,note_on,55,0,0
2,note_on,48,0,0
2,note_on,64,45,240
2,note_on,64,0,120
2,note_on,67,46,0
2,note_on,67,0,120
2,note_on,72,47,0
2,note_on,72,0,120
2,note_on,74,49,0
2,note_on,74,0,120
2,note_on,76,49,0
2,note_on,76,0,120
2,note_on,55,47,300
2,note_on,65,51,30
2,note_on,71,59,30
2,note_on,71,0,240
2,note_on,65,0,0
2,note_on,55,0,0
2,note_on,60,45,240
2,note_on,67,1,0
2,note_on,72,59,0
2,note_on,72,0,240
2,note_on,67,0,0
2,note_on,60,0,0
2,note_on,76,45,240
2,note_on,76,0,120
2,note_on,79,46,0
2,note_on,79,0,120
2,note_on,84,47,0
2,note_on,84,0,120
2,note_on,86,49,0
2,note_on,86,0,120
2,note_on,88,49,0
2,note_on,88,0,120
2,note_on,67,47,300
2,note_on,77,51,30
2,note_on,83,59,30
2,note_on,83,0,240
2,note_on,77,0,0
2,note_on,67,0,0
2,note_on,84,50,240
2,note_on,72,42,0
2,note_on,76,42,0
2,note_on,76,0,120
2,note_on,72,0,0
2,note_on,84,0,0
2,note_on,67,50,360
2,note_on,67,0,120
2,note_on,83,46,120
2,note_on,77,39,0
2,note_on,74,39,0
2,note_on,74,0,120
2,note_on,77,0,0
2,note_on,83,0,0
2,note_on,72,50,120
2,note_on,72,0,120
2,note_on,84,46,120
2,note_on,79,39,0
2,note_on,76,39,0
2,note_on,76,0,120
2,note_on,79,0,0
2,note_on,84,0,0
2,note_on,67,50,120
2,note_on,67,0,120
2,note_on,83,46,120
2,note_on,77,39,0
2,note_on,74,39,0
2,note_on,74,0,120
2,note_on,77,0,0
2,note_on,83,0,0
2,note_on,72,50,120
2,note_on,72,0,120
2,note_on,84,46,120
2,note_on,79,39,0
2,note_on,76,39,0
2,note_on,76,0,120
2,note_on,79,0,0
2,note_on,84,0,0
2,note_on,67,50,120
2,note_on,67,0,120
2,note_on,83,46,120
2,note_on,77,39,0
2,note_on,74,39,0
2,note_on,74,0,120
2,note_on,77,0,0
2,note_on,83,0,0
2,note_on,72,50,120
2,note_on,72,0,120
2,note_on,84,46,120
2,note_on,79,39,0
2,note_on,76,39,0
2,note_on,76,0,120
2,note_on,79,0,0
2,note_on,84,0,0
2,note_on,67,50,120
2,note_on,67,0,120
2,note_on,83,46,120
2,note_on,77,39,0
2,note_on,74,39,0
2,note_on,74,0,120
2,note_on,77,0,0
2,note_on,83,0,0
2,note_on,72,45,75
2,note_on,76,46,15
2,note_on,79,48,15
2,note_on,84,50,15
2,note_on,84,0,120
2,note_on,72,0,0
2,note_on,76,0,0
2,note_on,79,0,0
2,note_on,64,27,360
2,note_on,64,0,120
2,note_on,65,28,0
2,note_on,65,0,120
2,note_on,66,29,0
2,note_on,66,0,120
2,note_on,67,30,0
2,note_on,67,0,120
2,note_on,68,31,0
2,note_on,68,0,120
2,note_on,69,32,0
2,note_on,69,0,120
2,note_on,70,33,0
2,note_on,70,0,120
2,note_on,71,34,0
2,note_on,71,0,120
2,note_on,72,35,0
2,note_on,72,0,120
2,note_on,73,36,0
2,note_on,73,0,120
2,note_on,74,37,0
2,note_on,74,0,120
2,note_on,75,38,0
2,note_on,75,0,120
2,note_on,76,40,0
2,note_on,76,0,120
2,note_on,77,41,0
2,note_on,77,0,120
2,note_on,78,42,0
2,note_on,78,0,120
2,note_on,79,43,0
2,note_on,79,0,120
2,note_on,80,44,0
2,note_on,80,0,120
2,note_on,81,45,0
2,note_on,81,0,120
2,note_on,82,46,0
2,note_on,82,0,120
2,note_on,83,47,0
2,note_on,83,0,120
2,note_on,84,48,0
2,note_on,84,0,96
2,note_on,85,49,0
2,note_on,85,0,96
2,note_on,86,50,0
2,note_on,86,0,96
2,note_on,87,51,0
2,note_on,87,0,96
2,note_on,88,52,0
2,note_on,88,0,96
2,note_on,73,44,960
2,note_on,73,0,120
2,note_on,76,39,120
2,note_on,76,0,120
2,note_on,69,44,120
2,note_on,57,36,0
2,note_on,64,36,0
2,note_on,64,0,120
2,note_on,57,0,0
2,note_on,69,0,0
2,note_on,73,44,1320
2,note_on,73,0,120
2,note_on,76,39,120
2,note_on,76,0,120
2,note_on,69,44,120
2,note_on,57,36,0
2,note_on,64,36,0
2,note_on,64,0,120
2,note_on,57,0,0
2,note_on,69,0,0
2,note_on,73,45,360
2,note_on,73,0,120
2,note_on,83,40,120
2,note_on,77,34,0
2,note_on,77,0,120
2,note_on,83,0,0
2,note_on,78,45,120
2,note_on,78,0,120
2,note_on,81,39,120
2,note_on,81,0,120
2,note_on,73,44,120
2,note_on,73,0,120
2,note_on,83,39,120
2,note_on,80,39,0
2,note_on,80,0,120
2,note_on,83,0,0
2,note_on,78,44,120
2,note_on,78,0,120
2,note_on,81,39,120
2,note_on,81,0,120
2,note_on,73,44,120
2,note_on,73,0,120
2,note_on,83,40,120
2,note_on,80,40,0
2,note_on,80,0,120
2,note_on,83,0,0
2,note_on,81,44,120
2,note_on,78,44,0
2,note_on,78,0,120
2,note_on,81,0,0
2,note_on,69,45,1320
2,note_on,69,0,120
2,note_on,79,40,120
2,note_on,73,34,0
2,note_on,73,0,120
2,note_on,79,0,0
2,note_on,74,45,120
2,note_on,74,0,120
2,note_on,78,39,120
2,note_on,81,39,0
2,note_on,81,0,120
2,note_on,78,0,0
2,note_on,69,44,120
2,note_on,69,0,120
2,note_on,79,39,120
2,note_on,76,39,0
2,note_on,76,0,120
2,note_on,79,0,0
2,note_on,74,44,120
2,note_on,74,0,120
2,note_on,78,39,120
2,note_on,81,39,0
2,note_on,81,0,120
2,note_on,78,0,0
2,note_on,69,44,120
2,note_on,69,0,120
2,note_on,79,40,120
2,note_on,76,40,0
2,note_on,76,0,120
2,note_on,79,0,0
2,note_on,78,44,120
2,note_on,74,44,0
2,note_on,74,0,120
2,note_on,78,0,0
2,note_on,74,44,2280
2,note_on,74,0,120
2,note_on,78,39,120
2,note_on,78,0,120
2,note_on,71,44,120
2,note_on,62,36,0
2,note_on,66,36,0
2,note_on,66,0,120
2,note_on,62,0,0
2,note_on,71,0,0
2,note_on,74,44,1320
2,note_on,74,0,120
2,note_on,78,39,120
2,note_on,78,0,120
2,note_on,71,44,120
2,note_on,62,36,0
2,note_on,66,36,0
2,note_on,66,0,120
2,note_on,62,0,0
2,note_on,71,0,0
2,note_on,74,44,1320
2,note_on,74,0,120
2,note_on,77,39,120
2,note_on,77,0,120
2,note_on,70,44,120
2,note_on,62,36,0
2,note_on,65,36,0
2,note_on,65,0,120
2,note_on,62,0,0
2,note_on,70,0,0
2,note_on,74,44,1320
2,note_on,74,0,120
2,note_on,77,39,120
2,note_on,77,0,120
2,note_on,70,44,120
2,note_on,62,36,0
2,note_on,65,36,0
2,note_on,65,0,120
2,note_on,62,0,0
2,note_on,70,0,0
2,note_on,70,34,4440
2,note_on,70,0,240
2,note_on,65,36,0
2,note_on,77,36,0
2,note_on,77,0,720
2,note_on,65,0,0
2,note_on,70,34,0
2,note_on,70,0,240
2,note_on,65,36,0
2,note_on,77,36,0
2,note_on,77,0,720
2,note_on,65,0,0
2,note_on,70,35,0
2,note_on,70,0,240
2,note_on,65,36,0
2,note_on,77,36,0
2,note_on,77,0,240
2,note_on,65,0,0
2,note_on,70,33,0
2,note_on,70,0,240
2,note_on,65,36,0
2,note_on,77,36,0
2,note_on,77,0,240
2,note_on,65,0,0
2,note_on,70,32,0
2,note_on,70,0,240
2,note_on,65,36,0
2,note_on,77,36,0
2,note_on,77,0,240
2,note_on,65,0,0
2,note_on,70,33,0
2,note_on,70,0,240
2,note_on,65,36,0
2,note_on,77,36,0
2,note_on,77,0,240
2,note_on,65,0,0
2,note_on,70,33,0
2,note_on,70,0,240
2,note_on,65,36,0
2,note_on,77,36,0
2,note_on,77,0,120
2,note_on,65,0,0
2,note_on,62,49,6120
2,note_on,58,35,0
2,note_on,58,0,120
2,note_on,62,0,0
2,note_on,61,52,0
2,note_on,57,43,0
2,note_on,57,0,120
2,note_on,61,0,0
2,note_on,60,52,0
2,note_on,56,43,0
2,note_on,56,0,120
2,note_on,60,0,0
2,note_on,59,53,0
2,note_on,55,44,0
2,note_on,55,0,120
2,note_on,59,0,0
2,note_on,58,53,0
2,note_on,54,44,0
2,note_on,54,0,120
2,note_on,58,0,0
2,note_on,57,53,0
2,note_on,53,44,0
2,note_on,53,0,120
2,note_on,57,0,0
2,note_on,56,54,0
2,note_on,52,45,0
2,note_on,52,0,120
2,note_on,56,0,0
2,note_on,55,54,0
2,note_on,51,45,0
2,note_on,51,0,120
2,note_on,55,0,0
2,note_on,54,54,0
2,note_on,50,45,0
2,note_on,50,0,120
2,note_on,54,0,0
2,note_on,53,55,0
2,note_on,49,46,0
2,note_on,49,0,120
2,note_on,53,0,0
2,note_on,52,55,0
2,note_on,48,46,0
2,note_on,48,0,120
2,note_on,52,0,0
2,note_on,51,55,0
2,note_on,47,46,0
2,note_on,47,0,120
2,note_on,51,0,0
2,note_on,50,56,0
2,note_on,46,47,0
2,note_on,46,0,120
2,note_on,50,0,0
2,note_on,49,56,0
2,note_on,45,47,0
2,note_on,45,0,120
2,note_on,49,0,0
2,note_on,48,57,0
2,note_on,44,48,0
2,note_on,44,0,120
2,note_on,48,0,0
2,note_on,47,57,0
2,note_on,43,48,0
2,note_on,43,0,120
2,note_on,47,0,0
2,note_on,46,55,0
2,note_on,42,46,0
2,note_on,42,0,120
2,note_on,46,0,0
2,note_on,45,52,0
2,note_on,41,43,0
2,note_on,41,0,120
2,note_on,45,0,0
2,note_on,44,49,0
2,note_on,40,41,0
2,note_on,40,0,120
2,note_on,44,0,0
2,note_on,45,45,0
2,note_on,39,38,0
2,note_on,39,0,120
2,note_on,45,0,0
2,note_on,46,43,0
2,note_on,38,37,0
2,note_on,46,0,120
2,note_on,47,43,0
2,note_on,47,0,120
2,note_on,38,0,0
2,note_on,48,42,0
2,note_on,37,36,0
2,note_on,37,0,120
2,note_on,48,0,0
2,note_on,49,41,0
2,note_on,36,35,0
2,note_on,36,0,120
2,note_on,49,0,0
2,note_on,50,41,0
2,note_on,35,35,0
2,note_on,35,0,160
2,note_on,50,0,0
2,note_on,51,40,0
2,note_on,34,34,0
2,note_on,34,0,160
2,note_on,51,0,0
2,note_on,52,39,0
2,note_on,33,33,0
2,note_on,33,0,160
2,note_on,52,0,0
2,note_on,32,31,0
2,note_on,32,0,160
2,note_on,38,27,0
2,note_on,38,0,160
2,note_on,41,27,0
2,note_on,41,0,160
2,note_on,31,31,0
2,note_on,31,0,160
2,note_on,37,28,0
2,note_on,37,0,160
2,note_on,40,28,0
2,note_on,40,0,160
2,note_on,32,31,0
2,note_on,32,0,160
2,note_on,38,27,0
2,note_on,38,0,160
2,note_on,41,27,0
2,note_on,41,0,160
2,note_on,32,31,0
2,note_on,32,0,160
2,note_on,37,28,0
2,note_on,37,0,160
2,note_on,40,28,0
2,note_on,40,0,160
2,note_on,32,31,0
2,note_on,32,0,160
2,note_on,38,27,0
2,note_on,38,0,160
2,note_on,41,27,0
2,note_on,41,0,160
2,note_on,32,31,0
2,note_on,32,0,160
2,note_on,37,28,0
2,note_on,37,0,160
2,note_on,40,28,0
2,note_on,40,0,160
2,note_on,32,31,0
2,note_on,32,0,160
2,note_on,38,27,0
2,note_on,38,0,160
2,note_on,41,27,0
2,note_on,41,0,160
2,note_on,38,31,0
2,note_on,38,0,160
2,note_on,35,28,0
2,note_on,35,0,160
2,note_on,32,28,0
2,note_on,32,0,160
2,note_on,29,21,0
2,note_on,28,25,57
2,note_on,29,0,28
2,note_on,29,27,28
2,note_on,28,0,29
2,note_on,30,30,27
2,note_on,29,0,29
2,note_on,31,32,28
2,note_on,30,0,28
2,note_on,32,34,28
2,note_on,31,0,29
2,note_on,33,38,28
2,note_on,32,0,28
2,note_on,34,40,28
2,note_on,33,0,29
2,note_on,35,42,27
2,note_on,34,0,29
2,note_on,36,46,28
2,note_on,35,0,28
2,note_on,37,48,28
2,note_on,36,0,29
2,note_on,38,50,28
2,note_on,37,0,28
2,note_on,37,49,28
2,note_on,38,0,29
2,note_on,36,47,27
2,note_on,37,0,29
2,note_on,35,44,28
2,note_on,36,0,28
2,note_on,34,42,28
2,note_on,35,0,29
2,note_on,33,40,28
2,note_on,34,0,28
2,note_on,32,38,28
2,note_on,33,0,29
2,note_on,33,35,27
2,note_on,32,0,29
2,note_on,34,33,28
2,note_on,33,0,28
2,note_on,35,35,28
2,note_on,34,0,29
2,note_on,36,37,28
2,note_on,35,0,28
2,note_on,37,40,28
2,note_on,36,0,29
2,note_on,38,42,27
2,note_on,37,0,29
2,note_on,39,44,28
2,note_on,38,0,28
2,note_on,40,47,28
2,note_on,39,0,29
2,note_on,41,47,28
2,note_on,40,0,28
2,note_on,40,45,28
2,note_on,41,0,29
2,note_on,39,43,27
2,note_on,40,0,29
2,note_on,38,42,28
2,note_on,39,0,28
2,note_on,37,40,28
2,note_on,38,0,29
2,note_on,36,38,28
2,note_on,37,0,28
2,note_on,35,36,28
2,note_on,36,0,29
2,note_on,34,35,27
2,note_on,35,0,29
2,note_on,33,35,30
2,note_on,34,0,25
2,note_on,33,0,135
2,note_on,39,31,0
2,note_on,39,0,160
2,note_on,42,31,0
2,note_on,42,0,160
2,note_on,33,35,0
2,note_on,33,0,160
2,note_on,38,32,0
2,note_on,38,0,160
2,note_on,41,32,0
2,note_on,41,0,160
2,note_on,33,35,0
2,note_on,33,0,160
2,note_on,39,31,0
2,note_on,39,0,160
2,note_on,42,31,0
2,note_on,42,0,160
2,note_on,33,35,0
2,note_on,33,0,160
2,note_on,38,32,0
2,note_on,38,0,160
2,note_on,41,32,0
2,note_on,41,0,160
2,note_on,33,35,0
2,note_on,33,0,160
2,note_on,39,31,0
2,note_on,39,0,160
2,note_on,42,31,0
2,note_on,42,0,160
2,note_on,33,35,0
2,note_on,33,0,160
2,note_on,38,32,0
2,note_on,38,0,160
2,note_on,41,32,0
2,note_on,41,0,160
2,note_on,33,35,0
2,note_on,33,0,160
2,note_on,39,31,0
2,note_on,39,0,160
2,note_on,42,31,0
2,note_on,42,0,160
2,note_on,39,35,0
2,note_on,39,0,160
2,note_on,36,32,0
2,note_on,36,0,160
2,note_on,33,32,0
2,note_on,33,0,160
2,note_on,30,30,0
2,note_on,29,35,57
2,note_on,30,0,28
2,note_on,30,37,28
2,note_on,29,0,29
2,note_on,31,38,27
2,note_on,30,0,29
2,note_on,32,40,28
2,note_on,31,0,28
2,note_on,33,42,28
2,note_on,32,0,29
2,note_on,34,44,28
2,note_on,33,0,28
2,note_on,35,45,28
2,note_on,34,0,29
2,note_on,36,47,27
2,note_on,35,0,29
2,note_on,37,48,28
2,note_on,36,0,28
2,note_on,38,50,28
2,note_on,37,0,29
2,note_on,39,52,28
2,note_on,38,0,28
2,note_on,38,54,28
2,note_on,39,0,29
2,note_on,37,52,27
2,note_on,38,0,29
2,note_on,36,50,28
2,note_on,37,0,28
2,note_on,35,48,28
2,note_on,36,0,29
2,note_on,34,47,28
2,note_on,35,0,28
2,note_on,33,45,28
2,note_on,34,0,29
2,note_on,34,42,27
2,note_on,33,0,29
2,note_on,35,44,28
2,note_on,34,0,28
2,note_on,36,46,28
2,note_on,35,0,29
2,note_on,37,48,28
2,note_on,36,0,28
2,note_on,38,50,28
2,note_on,37,0,29
2,note_on,39,52,27
2,note_on,38,0,29
2,note_on,40,55,28
2,note_on,39,0,28
2,note_on,41,57,28
2,note_on,40,0,29
2,note_on,42,59,28
2,note_on,41,0,28
2,note_on,41,58,28
2,note_on,42,0,29
2,note_on,40,56,27
2,note_on,41,0,29
2,note_on,39,53,28
2,note_on,40,0,28
2,note_on,38,51,28
2,note_on,39,0,29
2,note_on,37,48,28
2,note_on,38,0,28
2,note_on,36,46,28
2,note_on,37,0,29
2,note_on,35,43,27
2,note_on,36,0,29
2,note_on,34,42,30
2,note_on,35,0,25
2,note_on,34,0,135
2,note_on,40,37,0
2,note_on,40,0,160
2,note_on,43,37,0
2,note_on,43,0,160
2,note_on,34,42,0
2,note_on,34,0,160
2,note_on,39,38,0
2,note_on,39,0,160
2,note_on,42,38,0
2,note_on,42,0,160
2,note_on,34,42,0
2,note_on,34,0,160
2,note_on,40,37,0
2,note_on,40,0,160
2,note_on,43,37,0
2,note_on,43,0,160
2,note_on,40,42,0
2,note_on,40,0,160
2,note_on,37,38,0
2,note_on,37,0,160
2,note_on,34,38,0
2,note_on,34,0,160
2,note_on,35,43,0
2,note_on,35,0,160
2,note_on,41,38,0
2,note_on,41,0,160
2,note_on,44,38,0
2,note_on,44,0,160
2,note_on,35,43,0
2,note_on,35,0,160
2,note_on,40,40,0
2,note_on,40,0,160
2,note_on,43,40,0
2,note_on,43,0,160
2,note_on,35,43,0
2,note_on,35,0,160
2,note_on,41,38,0
2,note_on,41,0,160
2,note_on,44,38,0
2,note_on,44,0,160
2,note_on,41,43,0
2,note_on,41,0,160
2,note_on,38,40,0
2,note_on,38,0,160
2,note_on,35,40,0
2,note_on,35,0,160
2,note_on,32,44,0
2,note_on,32,0,120
2,note_on,31,45,0
2,note_on,31,0,120
2,note_on,32,46,0
2,note_on,32,0,120
2,note_on,33,47,0
2,note_on,33,0,120
2,note_on,34,48,0
2,note_on,34,0,120
2,note_on,35,49,0
2,note_on,35,0,120
2,note_on,36,51,0
2,note_on,36,0,120
2,note_on,37,52,0
2,note_on,37,0,120
2,note_on,38,53,0
2,note_on,38,0,120
2,note_on,39,54,0
2,note_on,39,0,120
2,note_on,40,55,0
2,note_on,40,0,120
2,note_on,41,56,0
2,note_on,41,0,120
2,note_on,40,58,0
2,note_on,40,0,120
2,note_on,39,57,0
2,note_on,39,0,120
2,note_on,38,56,0
2,note_on,38,0,120
2,note_on,37,55,0
2,note_on,37,0,120
2,note_on,36,54,0
2,note_on,36,0,120
2,note_on,35,52,0
2,note_on,35,0,120
2,note_on,36,50,0
2,note_on,36,0,120
2,note_on,37,48,0
2,note_on,37,0,120
2,note_on,38,51,0
2,note_on,38,0,120
2,note_on,39,53,0
2,note_on,39,0,120
2,note_on,40,55,0
2,note_on,40,0,120
2,note_on,41,57,0
2,note_on,41,0,120
2,note_on,42,59,0
2,note_on,42,0,120
2,note_on,43,60,0
2,note_on,43,0,120
2,note_on,44,62,0
2,note_on,44,0,120
2,note_on,43,61,0
2,note_on,43,0,120
2,note_on,42,57,0
2,note_on,42,0,120
2,note_on,41,54,0
2,note_on,41,0,120
2,note_on,40,51,0
2,note_on,40,0,120
2,note_on,39,47,0
2,note_on,39,0,120
2,note_on,50,59,0
2,note_on,38,59,0
2,note_on,38,0,120
2,note_on,50,0,0
2,note_on,52,61,120
2,note_on,40,61,0
2,note_on,40,0,120
2,note_on,52,0,0
2,note_on,54,64,120
2,note_on,42,64,0
2,note_on,42,0,120
2,note_on,54,0,0
2,note_on,56,67,120
2,note_on,44,67,0
2,note_on,44,0,120
2,note_on,56,0,0
2,note_on,58,70,120
2,note_on,46,70,0
2,note_on,46,0,120
2,note_on,58,0,0
2,note_on,59,72,120
2,note_on,47,72,0
2,note_on,47,0,120
2,note_on,59,0,0
2,note_on,57,71,120
2,note_on,45,71,0
2,note_on,45,0,120
2,note_on,57,0,0
2,note_on,55,67,120
2,note_on,43,67,0
2,note_on,43,0,120
2,note_on,55,0,0
2,note_on,53,64,120
2,note_on,41,64,0
2,note_on,41,0,120
2,note_on,53,0,0
2,note_on,55,63,120
2,note_on,43,63,0
2,note_on,43,0,120
2,note_on,55,0,0
2,note_on,57,66,120
2,note_on,45,66,0
2,note_on,45,0,120
2,note_on,57,0,0
2,note_on,59,69,120
2,note_on,47,69,0
2,note_on,47,0,120
2,note_on,59,0,0
2,note_on,61,76,120
2,note_on,49,76,0
2,note_on,49,0,120
2,note_on,61,0,0
2,note_on,62,72,120
2,note_on,50,72,0
2,note_on,50,0,120
2,note_on,62,0,0
2,note_on,60,68,120
2,note_on,48,68,0
2,note_on,48,0,120
2,note_on,60,0,0
2,note_on,58,63,120
2,note_on,46,63,0
2,note_on,46,0,120
2,note_on,58,0,0
2,note_on,56,63,120
2,note_on,44,63,0
2,note_on,44,0,120
2,note_on,56,0,0
2,note_on,58,67,120
2,note_on,46,67,0
2,note_on,46,0,120
2,note_on,58,0,0
2,note_on,60,70,120
2,note_on,48,70,0
2,note_on,48,0,120
2,note_on,60,0,0
2,note_on,62,74,120
2,note_on,50,74,0
2,note_on,50,0,120
2,note_on,62,0,0
2,note_on,64,78,120
2,note_on,52,78,0
2,note_on,52,0,120
2,note_on,64,0,0
2,note_on,64,74,120
2,note_on,52,74,0
2,note_on,52,0,120
2,note_on,64,0,0
2,note_on,62,70,120
2,note_on,50,70,0
2,note_on,50,0,120
2,note_on,62,0,0
2,note_on,60,66,120
2,note_on,48,66,0
2,note_on,48,0,120
2,note_on,60,0,0
2,note_on,58,64,120
2,note_on,46,51,0
2,note_on,46,0,120
2,note_on,58,0,0
2,note_on,56,69,120
2,note_on,44,69,0
2,note_on,44,0,120
2,note_on,56,0,0
2,note_on,58,72,120
2,note_on,46,72,0
2,note_on,46,0,120
2,note_on,58,0,0
2,note_on,60,76,120
2,note_on,48,76,0
2,note_on,48,0,120
2,note_on,60,0,0
2,note_on,62,79,120
2,note_on,50,79,0
2,note_on,50,0,120
2,note_on,62,0,0
2,note_on,64,80,120
2,note_on,52,80,0
2,note_on,52,0,120
2,note_on,64,0,0
2,note_on,64,75,120
2,note_on,52,75,0
2,note_on,52,0,120
2,note_on,64,0,0
2,note_on,62,70,120
2,note_on,50,70,0
2,note_on,50,0,120
2,note_on,62,0,0
2,note_on,60,72,120
2,note_on,48,57,0
2,note_on,48,0,120
2,note_on,60,0,0
2,note_on,58,68,120
2,note_on,46,68,0
2,note_on,46,0,120
2,note_on,58,0,0
2,note_on,56,68,120
2,note_on,44,68,0
2,note_on,44,0,120
2,note_on,56,0,0
2,note_on,58,69,120
2,note_on,46,69,0
2,note_on,46,0,120
2,note_on,58,0,0
2,note_on,60,70,120
2,note_on,48,70,0
2,note_on,48,0,120
2,note_on,60,0,0
2,note_on,62,71,120
2,note_on,50,71,0
2,note_on,50,0,120
2,note_on,62,0,0
2,note_on,64,72,120
2,note_on,52,72,0
2,note_on,52,0,120
2,note_on,64,0,0
2,note_on,65,72,120
2,note_on,53,72,0
2,note_on,53,0,120
2,note_on,65,0,0
2,note_on,62,74,120
2,note_on,50,74,0
2,note_on,50,0,120
2,note_on,62,0,0
2,note_on,59,76,120
2,note_on,47,76,0
2,note_on,47,0,120
2,note_on,59,0,0
2,note_on,56,79,120
2,note_on,44,79,0
2,note_on,44,0,120
2,note_on,56,0,0
2,note_on,53,82,120
2,note_on,41,82,0
2,note_on,41,0,120
2,note_on,53,0,0
2,note_on,50,85,120
2,note_on,38,85,0
2,note_on,38,0,120
2,note_on,50,0,0
2,note_on,47,88,120
2,note_on,35,88,0
2,note_on,35,0,120
2,note_on,47,0,0
2,note_on,44,91,120
2,note_on,32,91,0
2,note_on,32,0,120
2,note_on,44,0,0
2,note_on,53,74,360
2,note_on,41,63,0
2,note_on,41,0,240
2,note_on,53,0,0
2,note_on,51,80,240
2,note_on,39,67,0
2,note_on,39,0,240
2,note_on,51,0,0
2,note_on,54,75,0
2,note_on,42,64,0
2,note_on,42,0,240
2,note_on,54,0,0
2,note_on,57,75,0
2,note_on,45,64,0
2,note_on,45,0,240
2,note_on,57,0,0
2,note_on,49,78,240
2,note_on,37,66,0
2,note_on,37,0,240
2,note_on,49,0,0
2,note_on,54,73,0
2,note_on,42,61,0
2,note_on,42,0,240
2,note_on,54,0,0
2,note_on,57,73,0
2,note_on,45,61,0
2,note_on,45,0,240
2,note_on,57,0,0
2,note_on,48,78,240
2,note_on,36,66,0
2,note_on,36,0,240
2,note_on,48,0,0
2,note_on,54,73,0
2,note_on,42,61,0
2,note_on,42,0,240
2,note_on,54,0,0
2,note_on,57,73,0
2,note_on,45,61,0
2,note_on,45,0,240
2,note_on,57,0,0
2,note_on,47,78,240
2,note_on,35,66,0
2,note_on,35,0,240
2,note_on,47,0,0
2,note_on,51,76,0
2,note_on,39,65,0
2,note_on,39,0,240
2,note_on,51,0,0
2,note_on,54,76,0
2,note_on,42,65,0
2,note_on,42,0,240
2,note_on,54,0,0
2,note_on,45,67,240
2,note_on,33,57,0
2,note_on,33,0,240
2,note_on,45,0,0
2,note_on,49,64,0
2,note_on,37,53,0
2,note_on,37,0,240
2,note_on,49,0,0
2,note_on,54,64,0
2,note_on,42,53,0
2,note_on,42,0,240
2,note_on,54,0,0
2,note_on,44,67,240
2,note_on,32,57,0
2,note_on,32,0,240
2,note_on,44,0,0
2,note_on,48,64,0
2,note_on,36,53,0
2,note_on,36,0,240
2,note_on,48,0,0
2,note_on,51,63,0
2,note_on,39,53,0
2,note_on,39,0,240
2,note_on,51,0,0
2,note_on,43,71,240
2,note_on,31,59,0
2,note_on,31,0,240
2,note_on,43,0,0
2,note_on,48,69,0
2,note_on,36,58,0
2,note_on,36,0,240
2,note_on,48,0,0
2,note_on,51,68,0
2,note_on,39,57,0
2,note_on,39,0,240
2,note_on,51,0,0
2,note_on,42,70,240
2,note_on,30,58,0
2,note_on,30,0,240
2,note_on,42,0,0
2,note_on,45,61,0
2,note_on,33,52,0
2,note_on,33,0,240
2,note_on,45,0,0
2,note_on,36,50,0
2,note_on,48,55,0
2,note_on,48,0,480
2,note_on,36,0,0
2,note_on,47,58,0
2,note_on,35,48,0
2,note_on,35,0,240
2,note_on,47,0,0
2,note_on,45,53,0
2,note_on,33,44,0
2,note_on,33,0,192
2,note_on,45,0,0
2,note_on,43,53,48
2,note_on,31,44,0
2,note_on,31,0,120
2,note_on,43,0,0
2,note_on,47,53,120
2,note_on,35,44,0
2,note_on,35,0,120
2,note_on,47,0,0
2,note_on,45,58,120
2,note_on,33,48,0
2,note_on,33,0,240
2,note_on,45,0,0
2,note_on,43,54,0
2,note_on,31,46,0
2,note_on,31,0,192
2,note_on,43,0,0
2,note_on,41,54,48
2,note_on,29,46,0
2,note_on,29,0,120
2,note_on,41,0,0
2,note_on,45,54,120
2,note_on,33,46,0
2,note_on,33,0,120
2,note_on,45,0,0
2,note_on,43,60,120
2,note_on,31,52,0
2,note_on,31,0,240
2,note_on,43,0,0
2,note_on,41,54,0
2,note_on,29,46,0
2,note_on,29,0,192
2,note_on,41,0,0
2,note_on,40,54,48
2,note_on,28,46,0
2,note_on,28,0,120
2,note_on,40,0,0
2,note_on,43,54,120
2,note_on,31,46,0
2,note_on,31,0,120
2,note_on,43,0,0
2,note_on,41,63,120
2,note_on,29,52,0
2,note_on,29,0,240
2,note_on,41,0,0
2,note_on,40,54,0
2,note_on,28,46,0
2,note_on,28,0,192
2,note_on,40,0,0
2,note_on,39,54,48
2,note_on,27,46,0
2,note_on,27,0,120
2,note_on,39,0,0
2,note_on,41,54,120
2,note_on,29,46,0
2,note_on,29,0,120
2,note_on,41,0,0
2,note_on,41,60,120
2,note_on,29,52,0
2,note_on,29,0,240
2,note_on,41,0,0
2,note_on,40,54,0
2,note_on,28,46,0
2,note_on,28,0,192
2,note_on,40,0,0
2,note_on,40,54,48
2,note_on,28,46,0
2,note_on,28,0,120
2,note_on,40,0,0
2,note_on,39,54,120
2,note_on,27,46,0
2,note_on,27,0,120
2,note_on,39,0,0
2,note_on,41,64,120
2,note_on,29,53,0
2,note_on,29,0,240
2,note_on,41,0,0
2,note_on,40,54,0
2,note_on,28,46,0
2,note_on,28,0,192
2,note_on,40,0,0
2,note_on,40,54,48
2,note_on,28,46,0
2,note_on,28,0,120
2,note_on,40,0,0
2,note_on,39,54,120
2,note_on,27,46,0
2,note_on,27,0,120
2,note_on,39,0,0
2,note_on,40,67,120
2,note_on,28,57,0
2,note_on,28,0,960
2,note_on,40,0,0
2,note_on,52,65,0
2,note_on,47,54,0
2,note_on,44,54,0
2,note_on,40,54,0
2,note_on,40,0,240
2,note_on,52,0,0
2,note_on,47,0,0
2,note_on,44,0,0
2,note_on,52,68,240
2,note_on,52,0,160
2,note_on,54,72,0
2,note_on,54,0,160
2,note_on,56,77,0
2,note_on,56,0,160
2,note_on,57,72,0
2,note_on,45,60,0
2,note_on,45,0,240
2,note_on,57,0,0
2,note_on,53,57,240
2,note_on,41,47,0
2,note_on,41,0,240
2,note_on,53,0,0
2,note_on,57,72,240
2,note_on,45,60,0
2,note_on,45,0,240
2,note_on,57,0,0
2,note_on,52,57,240
2,note_on,40,47,0
2,note_on,40,0,240
2,note_on,52,0,0
2,note_on,57,72,240
2,note_on,45,60,0
2,note_on,45,0,120
2,note_on,57,0,0
2,note_on,50,57,360
2,note_on,38,47,0
2,note_on,41,47,0
2,note_on,41,0,120
2,note_on,38,0,0
2,note_on,50,0,0
2,note_on,57,72,360
2,note_on,45,60,0
2,note_on,52,60,0
2,note_on,36,56,840
2,note_on,36,0,60
2,note_on,48,66,0
2,note_on,48,0,60
2,note_on,52,0,0
2,note_on,45,0,0
2,note_on,57,0,0
2,note_on,69,66,0
2,note_on,57,56,0
2,note_on,60,56,0
2,note_on,65,56,0
2,note_on,65,0,840
2,note_on,69,0,0
2,note_on,57,0,0
2,note_on,60,0,0
2,note_on,36,57,0
2,note_on,36,0,60
2,note_on,48,57,0
2,note_on,48,0,60
2,note_on,72,70,0
2,note_on,60,59,0
2,note_on,64,59,0
2,note_on,67,59,0
2,note_on,67,0,840
2,note_on,72,0,0
2,note_on,60,0,0
2,note_on,64,0,0
2,note_on,33,59,0
2,note_on,33,0,60
2,note_on,45,59,0
2,note_on,45,0,60
2,note_on,65,63,0
2,note_on,53,53,0
2,note_on,62,53,0
2,note_on,57,53,0
2,note_on,57,0,840
2,note_on,65,0,0
2,note_on,53,0,0
2,note_on,62,0,0
2,note_on,33,57,0
2,note_on,33,0,60
2,note_on,45,57,0
2,note_on,45,0,60
2,note_on,69,63,0
2,note_on,57,53,0
2,note_on,60,53,0
2,note_on,64,53,0
2,note_on,64,0,960
2,note_on,69,0,0
2,note_on,57,0,0
2,note_on,60,0,0
2,note_on,47,67,0
2,note_on,35,57,0
2,note_on,35,0,240
2,note_on,47,0,0
2,note_on,68,58,240
2,note_on,59,48,0
2,note_on,64,48,0
2,note_on,64,0,240
2,note_on,59,0,0
2,note_on,68,0,0
2,note_on,47,64,240
2,note_on,47,0,240
2,note_on,69,60,240
2,note_on,66,51,0
2,note_on,61,51,0
2,note_on,61,0,240
2,note_on,66,0,0
2,note_on,69,0,0
2,note_on,47,64,240
2,note_on,47,0,240
2,note_on,68,57,240
2,note_on,64,47,0
2,note_on,59,47,0
2,note_on,59,0,240
2,note_on,64,0,0
2,note_on,68,0,0
2,note_on,47,64,240
2,note_on,47,0,240
2,note_on,66,54,240
2,note_on,63,45,0
2,note_on,57,45,0
2,note_on,57,0,240
2,note_on,63,0,0
2,note_on,66,0,0
2,note_on,64,64,240
2,note_on,59,54,0
2,note_on,56,54,0
2,note_on,52,54,0
2,note_on,52,0,240
2,note_on,64,0,0
2,note_on,59,0,0
2,note_on,56,0,0
2,note_on,66,54,240
2,note_on,60,45,0
2,note_on,57,45,0
2,note_on,57,0,240
2,note_on,60,0,0
2,note_on,66,0,0
2,note_on,64,63,240
2,note_on,59,53,0
2,note_on,56,53,0
2,note_on,52,53,0
2,note_on,52,0,240
2,note_on,64,0,0
2,note_on,59,0,0
2,note_on,56,0,0
2,note_on,66,57,240
2,note_on,60,47,0
2,note_on,57,47,0
2,note_on,57,0,240
2,note_on,60,0,0
2,note_on,66,0,0
2,note_on,64,67,240
2,note_on,59,57,0
2,note_on,56,57,0
2,note_on,52,57,0
2,note_on,52,0,960
2,note_on,64,0,0
2,note_on,59,0,0
2,note_on,56,0,0
2,note_on,52,65,0
2,note_on,40,54,0
2,note_on,44,54,0
2,note_on,47,54,0
2,note_on,47,0,240
2,note_on,52,0,0
2,note_on,40,0,0
2,note_on,44,0,0
2,note_on,52,50,600
2,note_on,56,50,0
2,note_on,59,59,0
2,note_on,59,0,120
2,note_on,56,0,0
2,note_on,52,0,0
2,note_on,52,55,0
2,note_on,56,55,0
2,note_on,59,66,0
2,note_on,59,0,240
2,note_on,56,0,0
2,note_on,52,0,0
2,note_on,49,74,720
2,note_on,52,74,0
2,note_on,56,74,0
2,note_on,61,74,0
2,note_on,61,0,240
2,note_on,49,0,0
2,note_on,52,0,0
2,note_on,56,0,0
2,note_on,56,74,720
2,note_on,44,61,0
2,note_on,51,61,0
2,note_on,51,0,1440
2,note_on,44,0,0
2,note_on,56,0,0
2,note_on,49,63,0
2,note_on,37,52,0
2,note_on,37,0,120
2,note_on,49,0,0
2,note_on,44,71,360
2,note_on,56,71,0
2,note_on,56,0,240
2,note_on,44,0,0
2,note_on,61,63,240
2,note_on,49,52,0
2,note_on,49,0,120
2,note_on,61,0,0
2,note_on,56,71,360
2,note_on,68,71,0
2,note_on,68,0,240
2,note_on,56,0,0
2,note_on,61,63,240
2,note_on,49,52,0
2,note_on,49,0,120
2,note_on,61,0,0
2,note_on,56,89,360
2,note_on,44,73,0
2,note_on,44,0,240
2,note_on,56,0,0
2,note_on,55,89,240
2,note_on,43,73,0
2,note_on,43,0,240
2,note_on,55,0,0
2,note_on,54,89,240
2,note_on,42,73,0
2,note_on,42,0,240
2,note_on,54,0,0
2,note_on,53,89,240
2,note_on,41,73,0
2,note_on,41,0,240
2,note_on,53,0,0
2,note_on,47,76,240
2,note_on,44,76,0
2,note_on,52,93,0
2,note_on,40,76,0
2,note_on,40,0,180
2,note_on,47,0,0
2,note_on,44,0,0
2,note_on,52,0,0
2,note_on,76,58,1260
2,note_on,64,58,0
2,note_on,64,0,480
2,note_on,76,0,0
2,note_on,69,70,0
2,note_on,72,70,0
2,note_on,72,0,240
2,note_on,69,0,0
2,note_on,76,61,0
2,note_on,76,0,240
2,note_on,69,65,0
2,note_on,72,65,0
2,note_on,72,0,240
2,note_on,69,0,0
2,note_on,59,65,240
2,note_on,62,65,0
2,note_on,62,0,240
2,note_on,59,0,0
2,note_on,67,59,0
2,note_on,67,0,240
2,note_on,59,55,0
2,note_on,62,55,0
2,note_on,62,0,240
2,note_on,59,0,0
2,note_on,69,70,240
2,note_on,65,70,0
2,note_on,65,0,240
2,note_on,69,0,0
2,note_on,72,61,0
2,note_on,72,0,240
2,note_on,69,65,0
2,note_on,65,65,0
2,note_on,65,0,240
2,note_on,69,0,0
2,note_on,59,65,240
2,note_on,55,65,0
2,note_on,55,0,240
2,note_on,59,0,0
2,note_on,64,59,0
2,note_on,64,0,240
2,note_on,59,55,0
2,note_on,55,55,0
2,note_on,55,0,240
2,note_on,59,0,0
2,note_on,62,70,240
2,note_on,65,70,0
2,note_on,65,0,240
2,note_on,62,0,0
2,note_on,69,61,0
2,note_on,69,0,240
2,note_on,62,65,0
2,note_on,65,65,0
2,note_on,65,0,240
2,note_on,62,0,0
2,note_on,55,65,240
2,note_on,52,65,0
2,note_on,52,0,240
2,note_on,55,0,0
2,note_on,60,59,0
2,note_on,60,0,240
2,note_on,55,55,0
2,note_on,52,55,0
2,note_on,52,0,240
2,note_on,55,0,0
2,note_on,59,70,240
2,note_on,62,70,0
2,note_on,62,0,240
2,note_on,59,0,0
2,note_on,65,61,0
2,note_on,65,0,240
2,note_on,62,65,0
2,note_on,59,65,0
2,note_on,59,0,240
2,note_on,62,0,0
2,note_on,48,65,240
2,note_on,52,65,0
2,note_on,52,0,240
2,note_on,48,0,0
2,note_on,57,59,0
2,note_on,57,0,240
2,note_on,48,55,0
2,note_on,52,55,0
2,note_on,52,0,240
2,note_on,48,0,0
2,note_on,59,70,240
2,note_on,55,70,0
2,note_on,55,0,240
2,note_on,59,0,0
2,note_on,62,61,0
2,note_on,62,0,240
2,note_on,59,65,0
2,note_on,55,65,0
2,note_on,55,0,240
2,note_on,59,0,0
2,note_on,45,65,240
2,note_on,48,65,0
2,note_on,48,0,240
2,note_on,45,0,0
2,note_on,53,59,0
2,note_on,53,0,240
2,note_on,48,55,0
2,note_on,45,55,0
2,note_on,45,0,240
2,note_on,48,0,0
2,note_on,52,77,240
2,note_on,44,65,0
2,note_on,40,65,0
2,note_on,47,65,0
2,note_on,47,0,480
2,note_on,52,0,0
2,note_on,44,0,0
2,note_on,40,0,0
2,note_on,50,56,240
2,note_on,52,56,0
2,note_on,59,67,0
2,note_on,59,0,240
2,note_on,52,0,0
2,note_on,50,0,0
2,note_on,58,71,0
2,note_on,52,60,0
2,note_on,49,60,0
2,note_on,49,0,120
2,note_on,52,0,0
2,note_on,58,0,0
2,note_on,48,56,360
2,note_on,57,67,0
2,note_on,52,56,0
2,note_on,52,0,120
2,note_on,57,0,0
2,note_on,48,0,0
2,note_on,52,65,360
2,note_on,47,65,0
2,note_on,56,77,0
2,note_on,56,0,480
2,note_on,47,0,0
2,note_on,52,0,0
2,note_on,64,56,240
2,note_on,62,56,0
2,note_on,71,67,0
2,note_on,71,0,240
2,note_on,62,0,0
2,note_on,64,0,0
2,note_on,61,60,0
2,note_on,64,60,0
2,note_on,70,71,0
2,note_on,70,0,120
2,note_on,64,0,0
2,note_on,61,0,0
2,note_on,60,56,360
2,note_on,64,56,0
2,note_on,69,67,0
2,note_on,69,0,120
2,note_on,64,0,0
2,note_on,60,0,0
2,note_on,59,65,360
2,note_on,64,65,0
2,note_on,68,77,0
2,note_on,68,0,480
2,note_on,64,0,0
2,note_on,59,0,0
2,note_on,76,69,0
2,note_on,71,58,0
2,note_on,74,58,0
2,note_on,64,58,0
2,note_on,64,0,120
2,note_on,76,0,0
2,note_on,71,0,0
2,note_on,74,0,0
2,note_on,76,74,360
2,note_on,64,62,0
2,note_on,73,62,0
2,note_on,70,62,0
2,note_on,70,0,120
2,note_on,76,0,0
2,note_on,64,0,0
2,note_on,73,0,0
2,note_on,69,61,360
2,note_on,76,72,0
2,note_on,72,61,0
2,note_on,64,61,0
2,note_on,64,0,120
2,note_on,69,0,0
2,note_on,76,0,0
2,note_on,72,0,0
2,note_on,64,62,360
2,note_on,76,73,0
2,note_on,71,62,0
2,note_on,68,62,0
2,note_on,68,0,480
2,note_on,64,0,0
2,note_on,76,0,0
2,note_on,71,0,0
2,note_on,80,73,0
2,note_on,71,62,0
2,note_on,83,73,0
2,note_on,76,62,0
2,note_on,76,0,120
2,note_on,80,0,0
2,note_on,71,0,0
2,note_on,83,0,0
2,note_on,52,70,600
2,note_on,40,59,0
2,note_on,40,0,240
2,note_on,52,0,0
2,note_on,54,74,0
2,note_on,42,62,0
2,note_on,42,0,240
2,note_on,54,0,0
2,note_on,56,79,0
2,note_on,44,67,0
2,note_on,44,0,240
2,note_on,56,0,0
2,note_on,57,83,0
2,note_on,45,70,0
2,note_on,45,0,240
2,note_on,57,0,0
2,note_on,53,56,240
2,note_on,41,47,0
2,note_on,41,0,240
2,note_on,53,0,0
2,note_on,57,70,240
2,note_on,45,59,0
2,note_on,45,0,240
2,note_on,57,0,0
2,note_on,40,47,240
2,note_on,52,56,0
2,note_on,52,0,240
2,note_on,40,0,0
2,note_on,45,59,240
2,note_on,57,70,0
2,note_on,57,0,120
2,note_on,45,0,0
2,note_on,38,47,360
2,note_on,50,56,0
2,note_on,41,47,0
2,note_on,41,0,120
2,note_on,50,0,0
2,note_on,38,0,0
2,note_on,57,70,360
2,note_on,52,59,0
2,note_on,45,59,0
2,note_on,45,0,960
2,note_on,52,0,0
2,note_on,57,0,0
2,note_on,57,63,480
2,note_on,69,75,0
2,note_on,69,0,120
2,note_on,57,0,0
2,note_on,71,79,120
2,note_on,59,67,0
2,note_on,59,0,120
2,note_on,71,0,0
2,note_on,72,82,120
2,note_on,60,69,0
2,note_on,60,0,720
2,note_on,72,0,0
2,note_on,71,74,0
2,note_on,59,62,0
2,note_on,59,0,120
2,note_on,71,0,0
2,note_on,69,83,120
2,note_on,57,70,0
2,note_on,57,0,720
2,note_on,69,0,0
2,note_on,55,63,0
2,note_on,67,75,0
2,note_on,67,0,120
2,note_on,55,0,0
2,note_on,53,71,120
2,note_on,65,84,0
2,note_on,65,0,720
2,note_on,53,0,0
2,note_on,64,75,0
2,note_on,52,75,0
2,note_on,52,0,120
2,note_on,64,0,0
2,note_on,50,59,120
2,note_on,62,70,0
2,note_on,62,0,240
2,note_on,50,0,0
2,note_on,46,47,240
2,note_on,58,56,0
2,note_on,58,0,120
2,note_on,46,0,0
2,note_on,50,59,360
2,note_on,62,70,0
2,note_on,62,0,240
2,note_on,50,0,0
2,note_on,45,47,240
2,note_on,57,56,0
2,note_on,57,0,120
2,note_on,45,0,0
2,note_on,50,59,360
2,note_on,62,70,0
2,note_on,62,0,120
2,note_on,50,0,0
2,note_on,46,47,360
2,note_on,55,56,0
2,note_on,43,47,0
2,note_on,43,0,120
2,note_on,55,0,0
2,note_on,46,0,0
2,note_on,50,59,360
2,note_on,57,59,0
2,note_on,62,70,0
2,note_on,62,0,960
2,note_on,57,0,0
2,note_on,50,0,0
2,note_on,62,63,480
2,note_on,74,75,0
2,note_on,74,0,120
2,note_on,62,0,0
2,note_on,64,67,120
2,note_on,76,79,0
2,note_on,76,0,120
2,note_on,64,0,0
2,note_on,65,69,120
2,note_on,77,82,0
2,note_on,77,0,720
2,note_on,65,0,0
2,note_on,64,62,0
2,note_on,76,74,0
2,note_on,76,0,120
2,note_on,64,0,0
2,note_on,74,83,120
2,note_on,62,70,0
2,note_on,62,0,720
2,note_on,74,0,0
2,note_on,72,75,0
2,note_on,60,63,0
2,note_on,60,0,120
2,note_on,72,0,0
2,note_on,71,84,120
2,note_on,59,71,0
2,note_on,59,0,720
2,note_on,71,0,0
2,note_on,69,70,0
2,note_on,57,59,0
2,note_on,57,0,120
2,note_on,69,0,0
2,note_on,56,61,120
2,note_on,68,72,0
2,note_on,68,0,120
2,note_on,56,0,0
2,note_on,59,65,120
2,note_on,71,77,0
2,note_on,71,0,120
2,note_on,59,0,0
2,note_on,64,68,120
2,note_on,76,81,0
2,note_on,76,0,240
2,note_on,64,0,0
2,note_on,40,59,240
2,note_on,52,70,0
2,note_on,44,59,0
2,note_on,47,59,0
2,note_on,47,0,960
2,note_on,40,0,0
2,note_on,52,0,0
2,note_on,44,0,0
2,note_on,69,72,0
2,note_on,57,61,0
2,note_on,57,0,120
2,note_on,69,0,0
2,note_on,72,77,120
2,note_on,60,65,0
2,note_on,60,0,120
2,note_on,72,0,0
2,note_on,76,81,120
2,note_on,64,68,0
2,note_on,64,0,240
2,note_on,76,0,0
2,note_on,52,70,240
2,note_on,45,59,0
2,note_on,48,59,0
2,note_on,40,59,0
2,note_on,40,0,960
2,note_on,52,0,0
2,note_on,45,0,0
2,note_on,48,0,0
2,note_on,65,85,0
2,note_on,65,0,480
2,note_on,64,73,0
2,note_on,64,0,120
2,note_on,47,73,360
2,note_on,44,62,0
2,note_on,44,0,120
2,note_on,47,0,0
2,note_on,50,66,120
2,note_on,50,0,120
2,note_on,44,62,120
2,note_on,47,73,0
2,note_on,47,0,120
2,note_on,44,0,0
2,note_on,50,64,120
2,note_on,50,0,120
2,note_on,65,85,120
2,note_on,65,0,480
2,note_on,64,73,0
2,note_on,64,0,120
2,note_on,45,73,360
2,note_on,45,0,120
2,note_on,48,66,120
2,note_on,48,0,120
2,note_on,45,73,120
2,note_on,45,0,120
2,note_on,48,64,120
2,note_on,48,0,120
2,note_on,65,51,120
2,note_on,77,60,0
2,note_on,71,51,0
2,note_on,68,51,0
2,note_on,76,60,240
2,note_on,64,51,0
2,note_on,68,0,24
2,note_on,71,0,0
2,note_on,65,0,0
2,note_on,77,0,0
2,note_on,74,58,216
2,note_on,62,49,0
2,note_on,64,0,24
2,note_on,76,0,0
2,note_on,72,58,216
2,note_on,60,49,0
2,note_on,74,0,24
2,note_on,62,0,0
2,note_on,71,56,216
2,note_on,59,47,0
2,note_on,72,0,24
2,note_on,60,0,0
2,note_on,69,56,216
2,note_on,57,47,0
2,note_on,71,0,24
2,note_on,59,0,0
2,note_on,68,55,216
2,note_on,56,46,0
2,note_on,69,0,24
2,note_on,57,0,0
2,note_on,64,53,216
2,note_on,52,45,0
2,note_on,68,0,24
2,note_on,56,0,0
2,note_on,59,50,216
2,note_on,65,59,0
2,note_on,53,50,0
2,note_on,56,50,0
2,note_on,64,0,24
2,note_on,52,0,0
2,note_on,52,49,216
2,note_on,64,58,0
2,note_on,53,0,24
2,note_on,59,0,0
2,note_on,65,0,0
2,note_on,56,0,0
2,note_on,62,56,216
2,note_on,50,47,0
2,note_on,64,0,24
2,note_on,52,0,0
2,note_on,60,55,216
2,note_on,48,46,0
2,note_on,62,0,24
2,note_on,50,0,0
2,note_on,59,53,216
2,note_on,47,45,0
2,note_on,60,0,24
2,note_on,48,0,0
2,note_on,57,51,216
2,note_on,45,43,0
2,note_on,59,0,24
2,note_on,47,0,0
2,note_on,44,42,216
2,note_on,56,50,0
2,note_on,57,0,24
2,note_on,45,0,0
2,note_on,40,40,216
2,note_on,52,48,0
2,note_on,44,0,24
2,note_on,56,0,0
2,note_on,41,45,216
2,note_on,53,53,0
2,note_on,40,0,24
2,note_on,52,0,0
2,note_on,39,40,216
2,note_on,51,48,0
2,note_on,41,0,24
2,note_on,53,0,0
2,note_on,40,43,216
2,note_on,52,51,0
2,note_on,39,0,24
2,note_on,51,0,0
2,note_on,50,48,216
2,note_on,38,41,0
2,note_on,40,0,24
2,note_on,52,0,0
2,note_on,51,51,216
2,note_on,39,43,0
2,note_on,50,0,24
2,note_on,38,0,0
2,note_on,49,49,216
2,note_on,37,42,0
2,note_on,51,0,24
2,note_on,39,0,0
2,note_on,50,55,216
2,note_on,38,45,0
2,note_on,49,0,24
2,note_on,37,0,0
2,note_on,48,52,216
2,note_on,36,42,0
2,note_on,50,0,24
2,note_on,38,0,0
2,note_on,48,0,216
2,note_on,36,0,0
2,note_on,49,57,0
2,note_on,37,48,0
2,note_on,37,0,240
2,note_on,49,0,0
2,note_on,47,53,0
2,note_on,35,45,0
2,note_on,35,0,240
2,note_on,47,0,0
2,note_on,48,61,0
2,note_on,36,52,0
2,note_on,36,0,240
2,note_on,48,0,0
2,note_on,34,49,0
2,note_on,46,58,0
2,note_on,46,0,240
2,note_on,34,0,0
2,note_on,35,56,0
2,note_on,47,65,0
2,note_on,47,0,240
2,note_on,35,0,0
2,note_on,33,54,0
2,note_on,45,63,0
2,note_on,45,0,240
2,note_on,33,0,0
2,note_on,34,60,0
2,note_on,46,72,0
2,note_on,46,0,240
2,note_on,34,0,0
2,note_on,32,59,0
2,note_on,44,70,0
2,note_on,44,0,240
2,note_on,32,0,0
2,note_on,33,66,0
2,note_on,40,66,0
2,note_on,45,80,0
2,note_on,49,57,480
2,note_on,57,67,0
2,note_on,52,57,0
2,note_on,52,0,240
2,note_on,49,0,0
2,note_on,57,0,0
2,note_on,57,67,0
2,note_on,52,57,0
2,note_on,49,57,0
2,note_on,49,0,240
2,note_on,45,0,0
2,note_on,33,0,0
2,note_on,40,0,0
2,note_on,52,0,0
2,note_on,57,0,0
2,note_on,49,61,0
2,note_on,52,61,0
2,note_on,57,73,0
2,note_on,57,0,240
2,note_on,52,0,0
2,note_on,49,0,0
2,note_on,50,56,240
2,note_on,62,66,0
2,note_on,53,56,0
2,note_on,53,0,240
2,note_on,62,0,0
2,note_on,50,0,0
2,note_on,57,80,240
2,note_on,49,67,0
2,note_on,45,67,0
2,note_on,52,67,0
2,note_on,52,0,240
2,note_on,57,0,0
2,note_on,49,0,0
2,note_on,45,0,0
2,note_on,41,58,240
2,note_on,50,69,0
2,note_on,38,58,0
2,note_on,38,0,240
2,note_on,50,0,0
2,note_on,41,0,0
2,note_on,40,58,240
2,note_on,45,69,0
2,note_on,33,58,0
2,note_on,37,58,0
2,note_on,37,0,240
2,note_on,40,0,0
2,note_on,45,0,0
2,note_on,33,0,0
2,note_on,42,59,240
2,note_on,54,71,0
2,note_on,54,0,240
2,note_on,42,0,0
2,note_on,37,64,240
2,note_on,44,64,0
2,note_on,49,78,0
2,note_on,61,67,480
2,note_on,56,57,0
2,note_on,53,57,0
2,note_on,53,0,240
2,note_on,61,0,0
2,note_on,56,0,0
2,note_on,53,57,0
2,note_on,56,57,0
2,note_on,61,67,0
2,note_on,61,0,240
2,note_on,49,0,0
2,note_on,37,0,0
2,note_on,44,0,0
2,note_on,56,0,0
2,note_on,53,0,0
2,note_on,61,73,0
2,note_on,56,61,0
2,note_on,53,61,0
2,note_on,53,0,240
2,note_on,56,0,0
2,note_on,61,0,0
2,note_on,66,66,240
2,note_on,57,56,0
2,note_on,54,56,0
2,note_on,54,0,240
2,note_on,57,0,0
2,note_on,66,0,0
2,note_on,49,67,240
2,note_on,53,67,0
2,note_on,56,67,0
2,note_on,61,80,0
2,note_on,61,0,240
2,note_on,49,0,0
2,note_on,53,0,0
2,note_on,56,0,0
2,note_on,42,58,240
2,note_on,45,58,0
2,note_on,54,69,0
2,note_on,54,0,240
2,note_on,45,0,0
2,note_on,42,0,0
2,note_on,37,58,240
2,note_on,49,69,0
2,note_on,44,58,0
2,note_on,41,58,0
2,note_on,41,0,240
2,note_on,37,0,0
2,note_on,49,0,0
2,note_on,44,0,0
2,note_on,46,59,240
2,note_on,58,71,0
2,note_on,58,0,240
2,note_on,46,0,0
2,note_on,45,64,240
2,note_on,53,78,0
2,note_on,41,64,0
2,note_on,48,64,0
2,note_on,65,67,480
2,note_on,57,57,0
2,note_on,60,57,0
2,note_on,60,0,240
2,note_on,65,0,0
2,note_on,57,0,0
2,note_on,65,67,0
2,note_on,57,57,0
2,note_on,60,57,0
2,note_on,60,0,240
2,note_on,65,0,0
2,note_on,53,0,0
2,note_on,48,0,0
2,note_on,45,0,0
2,note_on,57,0,0
2,note_on,41,0,0
2,note_on,57,61,0
2,note_on,60,61,0
2,note_on,65,73,0
2,note_on,65,0,240
2,note_on,60,0,0
2,note_on,57,0,0
2,note_on,70,60,240
2,note_on,61,51,0
2,note_on,58,51,0
2,note_on,58,0,240
2,note_on,61,0,0
2,note_on,70,0,0
2,note_on,53,61,240
2,note_on,57,61,0
2,note_on,60,61,0
2,note_on,65,73,0
2,note_on,65,0,240
2,note_on,53,0,0
2,note_on,57,0,0
2,note_on,60,0,0
2,note_on,46,53,240
2,note_on,49,53,0
2,note_on,58,63,0
2,note_on,58,0,240
2,note_on,49,0,0
2,note_on,46,0,0
2,note_on,41,53,240
2,note_on,53,63,0
2,note_on,48,53,0
2,note_on,45,53,0
2,note_on,45,0,240
2,note_on,41,0,0
2,note_on,53,0,0
2,note_on,48,0,0
2,note_on,38,54,240
2,note_on,50,65,0
2,note_on,50,0,240
2,note_on,38,0,0
2,note_on,33,65,240
2,note_on,45,76,0
2,note_on,45,0,480
2,note_on,33,0,0
2,note_on,64,71,0
2,note_on,57,61,0
2,note_on,61,61,0
2,note_on,52,61,0
2,note_on,52,0,480
2,note_on,64,0,0
2,note_on,57,0,0
2,note_on,61,0,0
2,note_on,45,78,0
2,note_on,33,66,0
2,note_on,33,0,480
2,note_on,45,0,0
2,note_on,65,74,0
2,note_on,53,62,0
2,note_on,57,62,0
2,note_on,61,62,0
2,note_on,61,0,480
2,note_on,65,0,0
2,note_on,53,0,0
2,note_on,57,0,0
2,note_on,45,76,0
2,note_on,33,65,0
2,note_on,33,0,480
2,note_on,45,0,0
2,note_on,66,71,0
2,note_on,54,61,0
2,note_on,62,61,0
2,note_on,62,0,480
2,note_on,54,0,0
2,note_on,66,0,0
2,note_on,45,78,0
2,note_on,33,66,0
2,note_on,33,0,480
2,note_on,45,0,0
2,note_on,60,62,0
2,note_on,54,62,0
2,note_on,63,74,0
2,note_on,63,0,480
2,note_on,54,0,0
2,note_on,60,0,0
2,note_on,33,65,0
2,note_on,45,76,0
2,note_on,45,0,480
2,note_on,33,0,0
2,note_on,56,61,0
2,note_on,64,71,0
2,note_on,52,61,0
2,note_on,52,0,480
2,note_on,64,0,0
2,note_on,56,0,0
2,note_on,45,76,0
2,note_on,33,65,0
2,note_on,33,0,480
2,note_on,45,0,0
2,note_on,59,61,0
2,note_on,56,61,0
2,note_on,52,61,0
2,note_on,64,71,0
2,note_on,64,0,480
2,note_on,59,0,0
2,note_on,56,0,0
2,note_on,52,0,0
2,note_on,33,65,0
2,note_on,45,76,0
2,note_on,45,0,480
2,note_on,33,0,0
2,note_on,64,71,0
2,note_on,57,61,0
2,note_on,52,61,0
2,note_on,61,61,0
2,note_on,61,0,480
2,note_on,64,0,0
2,note_on,57,0,0
2,note_on,52,0,0
2,note_on,33,65,0
2,note_on,45,76,0
2,note_on,45,0,480
2,note_on,33,0,0
2,note_on,59,61,0
2,note_on,52,61,0
2,note_on,64,71,0
2,note_on,64,0,480
2,note_on,52,0,0
2,note_on,59,0,0
2,note_on,33,65,0
2,note_on,45,76,0
2,note_on,45,0,480
2,note_on,33,0,0
2,note_on,61,61,0
2,note_on,64,71,0
2,note_on,57,61,0
2,note_on,52,61,0
2,note_on,52,0,480
2,note_on,61,0,0
2,note_on,64,0,0
2,note_on,57,0,0
2,note_on,45,78,0
2,note_on,33,66,0
2,note_on,33,0,480
2,note_on,45,0,0
2,note_on,65,74,0
2,note_on,61,62,0
2,note_on,57,62,0
2,note_on,53,62,0
2,note_on,53,0,480
2,note_on,65,0,0
2,note_on,61,0,0
2,note_on,57,0,0
2,note_on,45,76,0
2,note_on,33,65,0
2,note_on,33,0,480
2,note_on,45,0,0
2,note_on,62,61,0
2,note_on,54,61,0
2,note_on,66,71,0
2,note_on,66,0,480
2,note_on,54,0,0
2,note_on,62,0,0
2,note_on,33,66,0
2,note_on,45,78,0
2,note_on,45,0,480
2,note_on,33,0,0
2,note_on,60,62,0
2,note_on,54,62,0
2,note_on,63,74,0
2,note_on,63,0,480
2,note_on,54,0,0
2,note_on,60,0,0
2,note_on,45,76,0
2,note_on,33,65,0
2,note_on,33,0,480
2,note_on,45,0,0
2,note_on,56,61,0
2,note_on,52,61,0
2,note_on,64,71,0
2,note_on,64,0,480
2,note_on,52,0,0
2,note_on,56,0,0
2,note_on,45,76,0
2,note_on,33,65,0
2,note_on,33,0,480
2,note_on,45,0,0
2,note_on,59,61,0
2,note_on,56,61,0
2,note_on,64,71,0
2,note_on,52,61,0
2,note_on,52,0,480
2,note_on,59,0,0
2,note_on,56,0,0
2,note_on,64,0,0
2,note_on,33,65,0
2,note_on,45,76,0
2,note_on,45,0,480
2,note_on,33,0,0
2,note_on,64,71,0
2,note_on,61,61,0
2,note_on,52,61,0
2,note_on,57,61,0
2,note_on,57,0,480
2,note_on,64,0,0
2,note_on,61,0,0
2,note_on,52,0,0
2,note_on,33,65,0
2,note_on,45,76,0
2,note_on,45,0,480
2,note_on,33,0,0
2,note_on,64,71,0
2,note_on,59,61,0
2,note_on,52,61,0
2,note_on,52,0,480
2,note_on,59,0,0
2,note_on,64,0,0
2,note_on,57,48,0
2,note_on,45,40,0
2,note_on,45,0,240
2,note_on,57,0,0
2,note_on,56,42,0
2,note_on,44,35,0
2,note_on,44,0,240
2,note_on,56,0,0
2,note_on,41,42,0
2,note_on,53,49,0
2,note_on,53,0,240
2,note_on,41,0,0
2,note_on,45,37,0
2,note_on,57,44,0
2,note_on,57,0,240
2,note_on,45,0,0
2,note_on,44,44,0
2,note_on,56,52,0
2,note_on,56,0,240
2,note_on,44,0,0
2,note_on,53,49,0
2,note_on,41,42,0
2,note_on,41,0,240
2,note_on,53,0,0
2,note_on,52,53,0
2,note_on,40,45,0
2,note_on,40,0,240
2,note_on,52,0,0
2,note_on,56,51,0
2,note_on,44,43,0
2,note_on,44,0,240
2,note_on,56,0,0
2,note_on,53,56,0
2,note_on,41,48,0
2,note_on,41,0,240
2,note_on,53,0,0
2,note_on,40,42,0
2,note_on,52,50,0
2,note_on,52,0,240
2,note_on,40,0,0
2,note_on,38,49,0
2,note_on,50,58,0
2,note_on,50,0,240
2,note_on,38,0,0
2,note_on,41,44,0
2,note_on,53,52,0
2,note_on,53,0,240
2,note_on,41,0,0
2,note_on,38,51,0
2,note_on,50,61,0
2,note_on,50,0,240
2,note_on,38,0,0
2,note_on,37,49,0
2,note_on,49,58,0
2,note_on,49,0,240
2,note_on,37,0,0
2,note_on,46,62,0
2,note_on,34,52,0
2,note_on,34,0,240
2,note_on,46,0,0
2,note_on,57,48,240
2,note_on,45,40,0
2,note_on,45,0,240
2,note_on,57,0,0
2,note_on,56,42,0
2,note_on,44,35,0
2,note_on,44,0,240
2,note_on,56,0,0
2,note_on,53,49,0
2,note_on,41,42,0
2,note_on,41,0,240
2,note_on,53,0,0
2,note_on,57,44,0
2,note_on,45,37,0
2,note_on,45,0,240
2,note_on,57,0,0
2,note_on,56,52,0
2,note_on,44,44,0
2,note_on,44,0,240
2,note_on,56,0,0
2,note_on,53,49,0
2,note_on,41,42,0
2,note_on,41,0,240
2,note_on,53,0,0
2,note_on,52,53,0
2,note_on,40,45,0
2,note_on,40,0,240
2,note_on,52,0,0
2,note_on,44,43,0
2,note_on,56,51,0
2,note_on,56,0,240
2,note_on,44,0,0
2,note_on,41,48,0
2,note_on,53,56,0
2,note_on,53,0,240
2,note_on,41,0,0
2,note_on,40,42,0
2,note_on,52,50,0
2,note_on,52,0,240
2,note_on,40,0,0
2,note_on,38,49,0
2,note_on,50,58,0
2,note_on,50,0,240
2,note_on,38,0,0
2,note_on,41,44,0
2,note_on,53,52,0
2,note_on,53,0,240
2,note_on,41,0,0
2,note_on,38,51,0
2,note_on,50,61,0
2,note_on,50,0,240
2,note_on,38,0,0
2,note_on,49,58,0
2,note_on,37,49,0
2,note_on,37,0,240
2,note_on,49,0,0
2,note_on,46,62,0
2,note_on,34,52,0
2,note_on,34,0,240
2,note_on,46,0,0
2,note_on,45,48,240
2,note_on,33,40,0
2,note_on,33,0,240
2,note_on,45,0,0
2,note_on,46,48,0
2,note_on,34,40,0
2,note_on,34,0,240
2,note_on,46,0,0
2,note_on,37,41,0
2,note_on,49,48,0
2,note_on,49,0,240
2,note_on,37,0,0
2,note_on,38,42,0
2,note_on,50,49,0
2,note_on,50,0,240
2,note_on,38,0,0
2,note_on,40,42,0
2,note_on,52,50,0
2,note_on,52,0,240
2,note_on,40,0,0
2,note_on,41,42,0
2,note_on,53,51,0
2,note_on,53,0,240
2,note_on,41,0,0
2,note_on,44,43,0
2,note_on,56,51,0
2,note_on,56,0,240
2,note_on,44,0,0
2,note_on,45,44,0
2,note_on,57,52,0
2,note_on,57,0,240
2,note_on,45,0,0
2,note_on,46,45,0
2,note_on,58,53,0
2,note_on,58,0,240
2,note_on,46,0,0
2,note_on,49,45,0
2,note_on,61,54,0
2,note_on,61,0,240
2,note_on,49,0,0
2,note_on,50,46,0
2,note_on,62,54,0
2,note_on,62,0,240
2,note_on,50,0,0
2,note_on,52,46,0
2,note_on,64,55,0
2,note_on,64,0,240
2,note_on,52,0,0
2,note_on,53,46,0
2,note_on,65,55,0
2,note_on,65,0,240
2,note_on,53,0,0
2,note_on,56,47,0
2,note_on,68,56,0
2,note_on,68,0,240
2,note_on,56,0,0
2,note_on,57,48,0
2,note_on,69,57,0
2,note_on,69,0,240
2,note_on,57,0,0
2,note_on,58,48,0
2,note_on,70,57,0
2,note_on,70,0,240
2,note_on,58,0,0
2,note_on,61,49,0
2,note_on,73,58,0
2,note_on,73,0,240
2,note_on,61,0,0
2,note_on,70,57,0
2,note_on,58,48,0
2,note_on,58,0,240
2,note_on,70,0,0
2,note_on,69,56,0
2,note_on,57,47,0
2,note_on,57,0,240
2,note_on,69,0,0
2,note_on,68,55,0
2,note_on,56,46,0
2,note_on,56,0,240
2,note_on,68,0,0
2,note_on,65,54,0
2,note_on,53,45,0
2,note_on,53,0,240
2,note_on,65,0,0
2,note_on,52,44,0
2,note_on,64,52,0
2,note_on,64,0,240
2,note_on,52,0,0
2,note_on,50,43,0
2,note_on,62,51,0
2,note_on,62,0,240
2,note_on,50,0,0
2,note_on,49,42,0
2,note_on,61,50,0
2,note_on,61,0,240
2,note_on,49,0,0
2,note_on,46,42,0
2,note_on,58,50,0
2,note_on,58,0,240
2,note_on,46,0,0
2,note_on,57,51,0
2,note_on,45,43,0
2,note_on,45,0,240
2,note_on,57,0,0
2,note_on,56,53,0
2,note_on,44,45,0
2,note_on,44,0,240
2,note_on,56,0,0
2,note_on,53,54,0
2,note_on,41,46,0
2,note_on,41,0,240
2,note_on,53,0,0
2,note_on,52,56,0
2,note_on,40,47,0
2,note_on,40,0,240
2,note_on,52,0,0
2,note_on,50,57,0
2,note_on,38,48,0
2,note_on,38,0,240
2,note_on,50,0,0
2,note_on,37,50,0
2,note_on,49,59,0
2,note_on,49,0,240
2,note_on,37,0,0
2,note_on,46,60,0
2,note_on,34,51,0
2,note_on,34,0,240
2,note_on,46,0,0
2,note_on,45,48,0
2,note_on,33,40,0
2,note_on,33,0,240
2,note_on,45,0,0
2,note_on,46,48,0
2,note_on,34,40,0
2,note_on,34,0,240
2,note_on,46,0,0
2,note_on,49,48,0
2,note_on,37,41,0
2,note_on,37,0,240
2,note_on,49,0,0
2,note_on,38,42,0
2,note_on,50,49,0
2,note_on,50,0,240
2,note_on,38,0,0
2,note_on,40,42,0
2,note_on,52,50,0
2,note_on,52,0,240
2,note_on,40,0,0
2,note_on,41,42,0
2,note_on,53,51,0
2,note_on,53,0,240
2,note_on,41,0,0
2,note_on,44,43,0
2,note_on,56,51,0
2,note_on,56,0,240
2,note_on,44,0,0
2,note_on,45,44,0
2,note_on,57,52,0
2,note_on,57,0,240
2,note_on,45,0,0
2,note_on,58,54,0
2,note_on,46,46,0
2,note_on,46,0,240
2,note_on,58,0,0
2,note_on,61,56,0
2,note_on,49,46,0
2,note_on,49,0,240
2,note_on,61,0,0
2,note_on,62,56,0
2,note_on,50,48,0
2,note_on,50,0,240
2,note_on,62,0,0
2,note_on,64,58,0
2,note_on,52,49,0
2,note_on,52,0,240
2,note_on,64,0,0
2,note_on,65,59,0
2,note_on,53,49,0
2,note_on,53,0,240
2,note_on,65,0,0
2,note_on,68,61,0
2,note_on,56,51,0
2,note_on,56,0,240
2,note_on,68,0,0
2,note_on,69,63,0
2,note_on,57,53,0
2,note_on,57,0,240
2,note_on,69,0,0
2,note_on,58,53,0
2,note_on,70,63,0
2,note_on,70,0,240
2,note_on,58,0,0
2,note_on,61,73,0
2,note_on,73,73,0
2,note_on,73,0,240
2,note_on,61,0,0
2,note_on,50,58,720
2,note_on,53,58,0
2,note_on,58,58,0
2,note_on,62,70,0
2,note_on,62,0,240
2,note_on,50,0,0
2,note_on,53,0,0
2,note_on,58,0,0
2,note_on,57,71,720
2,note_on,49,59,0
2,note_on,45,59,0
2,note_on,52,59,0
2,note_on,52,0,240
2,note_on,57,0,0
2,note_on,49,0,0
2,note_on,45,0,0
2,note_on,50,81,720
2,note_on,41,69,0
2,note_on,46,69,0
2,note_on,38,69,0
2,note_on,38,0,240
2,note_on,50,0,0
2,note_on,41,0,0
2,note_on,46,0,0
2,note_on,33,30,720
2,note_on,40,36,0
2,note_on,37,30,0
2,note_on,37,0,120
2,note_on,40,0,0
2,note_on,33,0,0
2,note_on,45,37,0
2,note_on,45,0,120
2,note_on,33,32,0
2,note_on,40,38,0
2,note_on,37,32,0
2,note_on,37,0,120
2,note_on,40,0,0
2,note_on,33,0,0
2,note_on,45,39,0
2,note_on,45,0,120
2,note_on,40,41,0
2,note_on,37,34,0
2,note_on,33,34,0
2,note_on,33,0,120
2,note_on,37,0,0
2,note_on,40,0,0
2,note_on,45,42,0
2,note_on,45,0,120
2,note_on,40,43,0
2,note_on,37,36,0
2,note_on,33,36,0
2,note_on,33,0,120
2,note_on,37,0,0
2,note_on,40,0,0
2,note_on,45,44,0
2,note_on,45,0,120
2,note_on,40,45,0
2,note_on,33,38,0
2,note_on,37,38,0
2,note_on,37,0,120
2,note_on,33,0,0
2,note_on,40,0,0
2,note_on,45,46,0
2,note_on,45,0,120
2,note_on,40,44,0
2,note_on,33,37,0
2,note_on,37,37,0
2,note_on,37,0,120
2,note_on,33,0,0
2,note_on,40,0,0
2,note_on,45,43,0
2,note_on,45,0,120
2,note_on,33,35,0
2,note_on,37,35,0
2,note_on,40,42,0
2,note_on,40,0,120
2,note_on,37,0,0
2,note_on,33,0,0
2,note_on,45,40,0
2,note_on,45,0,120
2,note_on,33,33,0
2,note_on,40,39,0
2,note_on,37,33,0
2,note_on,37,0,120
2,note_on,40,0,0
2,note_on,33,0,0
2,note_on,45,38,0
2,note_on,45,0,120
2,note_on,33,55,0
2,note_on,37,58,15
2,note_on,40,61,15
2,note_on,45,66,15
2,note_on,45,0,195
2,note_on,33,0,0
2,note_on,37,0,0
2,note_on,40,0,0
2,note_on,57,74,600
2,note_on,49,62,0
2,note_on,45,62,0
2,note_on,52,62,0
2,note_on,52,0,108
2,note_on,57,0,0
2,note_on,49,0,0
2,note_on,45,0,0
2,note_on,57,81,12
2,note_on,49,68,0
2,note_on,45,68,0
2,note_on,52,68,0
2,note_on,52,0,240
2,note_on,57,0,0
2,note_on,49,0,0
2,note_on,45,0,0
2,note_on,33,62,600
2,note_on,37,62,0
2,note_on,40,62,0
2,note_on,45,74,0
2,note_on,45,0,108
2,note_on,33,0,0
2,note_on,37,0,0
2,note_on,40,0,0
2,note_on,33,68,12
2,note_on,37,68,0
2,note_on,40,68,0
2,note_on,45,81,0
2,note_on,45,0,240
2,note_on,33,0,0
2,note_on,37,0,0
2,note_on,40,0,0
