Track,Message Type,Note,Velocity,Time
1,note_on,87,28,721
1,note_on,99,34,0
1,note_on,99,0,180
1,note_on,87,0,0
1,note_on,87,28,60
1,note_on,99,34,0
1,note_on,99,0,180
1,note_on,87,0,0
1,note_on,99,34,60
1,note_on,87,28,0
1,note_on,87,0,180
1,note_on,99,0,0
1,note_on,87,28,780
1,note_on,99,34,0
1,note_on,99,0,180
1,note_on,87,0,0
1,note_on,99,34,60
1,note_on,87,28,0
1,note_on,87,0,180
1,note_on,99,0,0
1,note_on,87,28,60
1,note_on,99,34,0
1,note_on,99,0,180
1,note_on,87,0,0
1,note_on,99,33,300
1,note_on,87,27,0
1,note_on,87,0,180
1,note_on,99,0,0
1,note_on,99,33,60
1,note_on,87,27,0
1,note_on,87,0,180
1,note_on,99,0,0
1,note_on,99,27,300
1,note_on,87,22,0
1,note_on,87,0,180
1,note_on,99,0,0
1,note_on,99,25,60
1,note_on,87,21,0
1,note_on,87,0,180
1,note_on,99,0,0
1,note_on,75,43,300
1,note_on,87,40,120
1,note_on,87,0,60
1,note_on,75,0,0
1,note_on,87,50,60
1,note_on,99,40,120
1,note_on,99,0,60
1,note_on,87,0,0
1,note_on,87,46,60
1,note_on,99,39,120
1,note_on,99,0,60
1,note_on,87,0,0
1,note_on,85,46,60
1,note_on,99,39,120
1,note_on,99,0,60
1,note_on,85,0,0
1,note_on,83,46,60
1,note_on,99,40,120
1,note_on,99,0,60
1,note_on,83,0,0
1,note_on,83,45,60
1,note_on,99,40,120
1,note_on,99,0,60
1,note_on,83,0,0
1,note_on,82,43,60
1,note_on,99,40,120
1,note_on,99,0,60
1,note_on,82,0,0
1,note_on,80,46,60
1,note_on,99,40,120
1,note_on,99,0,60
1,note_on,80,0,0
1,note_on,79,45,60
1,note_on,99,37,120
1,note_on,99,0,60
1,note_on,79,0,0
1,note_on,80,45,60
1,note_on,99,40,120
1,note_on,99,0,60
1,note_on,80,0,0
1,note_on,82,46,60
1,note_on,99,40,120
1,note_on,99,0,60
1,note_on,82,0,0
1,note_on,75,43,60
1,note_on,99,37,120
1,note_on,99,0,60
1,note_on,75,0,0
1,note_on,75,43,60
1,note_on,87,37,120
1,note_on,87,0,60
1,note_on,75,0,0
1,note_on,76,50,60
1,note_on,87,43,120
1,note_on,87,0,60
1,note_on,76,0,0
1,note_on,75,46,60
1,note_on,87,40,120
1,note_on,87,0,60
1,note_on,75,0,0
1,note_on,73,46,60
1,note_on,87,39,120
1,note_on,87,0,60
1,note_on,73,0,0
1,note_on,71,46,60
1,note_on,87,40,120
1,note_on,87,0,60
1,note_on,71,0,0
1,note_on,71,45,60
1,note_on,87,40,120
1,note_on,87,0,60
1,note_on,71,0,0
1,note_on,70,43,60
1,note_on,87,37,120
1,note_on,87,0,60
1,note_on,70,0,0
1,note_on,68,46,60
1,note_on,87,40,120
1,note_on,87,0,60
1,note_on,68,0,0
1,note_on,67,45,60
1,note_on,87,37,120
1,note_on,87,0,60
1,note_on,67,0,0
1,note_on,68,45,60
1,note_on,87,37,120
1,note_on,87,0,60
1,note_on,68,0,0
1,note_on,70,46,60
1,note_on,87,40,120
1,note_on,87,0,60
1,note_on,70,0,0
1,note_on,63,43,60
1,note_on,75,37,120
1,note_on,75,0,60
1,note_on,63,0,0
1,note_on,75,43,60
1,note_on,87,37,120
1,note_on,87,0,60
1,note_on,75,0,0
1,note_on,87,50,60
1,note_on,99,43,120
1,note_on,99,0,60
1,note_on,87,0,0
1,note_on,87,46,60
1,note_on,99,41,120
1,note_on,99,0,60
1,note_on,87,0,0
1,note_on,85,46,60
1,note_on,99,40,120
1,note_on,99,0,60
1,note_on,85,0,0
1,note_on,83,46,60
1,note_on,99,41,120
1,note_on,99,0,60
1,note_on,83,0,0
1,note_on,83,45,60
1,note_on,99,39,120
1,note_on,99,0,60
1,note_on,83,0,0
1,note_on,82,43,60
1,note_on,99,39,120
1,note_on,99,0,60
1,note_on,82,0,0
1,note_on,80,46,60
1,note_on,99,40,120
1,note_on,99,0,60
1,note_on,80,0,0
1,note_on,79,45,60
1,note_on,99,39,120
1,note_on,99,0,60
1,note_on,79,0,0
1,note_on,80,45,60
1,note_on,99,40,120
1,note_on,99,0,60
1,note_on,80,0,0
1,note_on,82,46,60
1,note_on,99,40,120
1,note_on,99,0,60
1,note_on,82,0,0
1,note_on,75,43,60
1,note_on,99,39,120
1,note_on,99,0,60
1,note_on,75,0,0
1,note_on,75,43,60
1,note_on,87,40,120
1,note_on,87,0,60
1,note_on,75,0,0
1,note_on,76,50,60
1,note_on,87,45,120
1,note_on,87,0,60
1,note_on,76,0,0
1,note_on,75,46,60
1,note_on,87,43,120
1,note_on,87,0,60
1,note_on,75,0,0
1,note_on,73,46,60
1,note_on,75,39,0
1,note_on,87,40,120
1,note_on,87,0,60
1,note_on,75,0,0
1,note_on,73,0,0
1,note_on,75,46,60
1,note_on,75,0,90
1,note_on,87,39,30
1,note_on,87,0,60
1,note_on,80,39,60
1,note_on,80,0,60
1,note_on,83,39,60
1,note_on,83,0,60
1,note_on,87,46,60
1,note_on,87,0,90
1,note_on,99,41,30
1,note_on,99,0,60
1,note_on,75,46,60
1,note_on,75,0,90
1,note_on,87,39,30
1,note_on,87,0,60
1,note_on,79,39,60
1,note_on,79,0,60
1,note_on,82,39,60
1,note_on,82,0,60
1,note_on,87,46,60
1,note_on,87,0,90
1,note_on,99,45,30
1,note_on,99,0,60
1,note_on,75,41,540
1,note_on,87,37,120
1,note_on,87,0,60
1,note_on,75,0,0
1,note_on,99,50,60
1,note_on,87,40,120
1,note_on,87,0,60
1,note_on,99,0,0
1,note_on,99,46,60
1,note_on,87,39,120
1,note_on,87,0,60
1,note_on,99,0,0
1,note_on,99,46,60
1,note_on,85,39,120
1,note_on,85,0,50
1,note_on,99,0,10
1,note_on,85,39,0
1,note_on,85,0,60
1,note_on,83,54,0
1,note_on,99,43,120
1,note_on,99,0,60
1,note_on,83,0,0
1,note_on,83,45,60
1,note_on,99,40,120
1,note_on,99,0,60
1,note_on,83,0,0
1,note_on,82,43,60
1,note_on,99,40,120
1,note_on,99,0,60
1,note_on,82,0,0
1,note_on,82,49,0
1,note_on,82,0,60
1,note_on,80,49,0
1,note_on,99,41,120
1,note_on,99,0,60
1,note_on,80,0,0
1,note_on,79,45,60
1,note_on,99,40,120
1,note_on,99,0,60
1,note_on,79,0,0
1,note_on,80,45,60
1,note_on,99,40,120
1,note_on,99,0,60
1,note_on,80,0,0
1,note_on,79,47,0
1,note_on,79,0,30
1,note_on,80,49,0
1,note_on,80,0,30
1,note_on,82,50,0
1,note_on,99,39,120
1,note_on,99,0,60
1,note_on,82,0,0
1,note_on,75,43,60
1,note_on,99,39,120
1,note_on,99,0,60
1,note_on,75,0,0
1,note_on,75,43,60
1,note_on,87,40,120
1,note_on,87,0,60
1,note_on,75,0,0
1,note_on,78,46,0
1,note_on,78,0,60
1,note_on,76,47,0
1,note_on,87,41,120
1,note_on,87,0,60
1,note_on,76,0,0
1,note_on,75,46,60
1,note_on,87,40,120
1,note_on,87,0,60
1,note_on,75,0,0
1,note_on,73,46,60
1,note_on,87,39,120
1,note_on,87,0,60
1,note_on,73,0,0
1,note_on,73,50,0
1,note_on,73,0,60
1,note_on,71,50,0
1,note_on,87,40,120
1,note_on,87,0,60
1,note_on,71,0,0
1,note_on,71,45,60
1,note_on,87,40,120
1,note_on,87,0,60
1,note_on,71,0,0
1,note_on,70,43,60
1,note_on,87,40,120
1,note_on,87,0,60
1,note_on,70,0,0
1,note_on,70,50,0
1,note_on,70,0,60
1,note_on,68,50,0
1,note_on,87,40,120
1,note_on,87,0,60
1,note_on,68,0,0
1,note_on,67,45,60
1,note_on,87,40,120
1,note_on,87,0,60
1,note_on,67,0,0
1,note_on,68,45,60
1,note_on,87,40,120
1,note_on,87,0,60
1,note_on,68,0,0
1,note_on,70,46,60
1,note_on,87,39,120
1,note_on,87,0,60
1,note_on,70,0,0
1,note_on,63,43,60
1,note_on,75,39,120
1,note_on,75,0,60
1,note_on,63,0,0
1,note_on,75,43,60
1,note_on,87,40,120
1,note_on,87,0,60
1,note_on,75,0,0
1,note_on,87,50,60
1,note_on,99,45,120
1,note_on,99,0,60
1,note_on,87,0,0
1,note_on,87,46,60
1,note_on,99,43,120
1,note_on,99,0,60
1,note_on,87,0,0
1,note_on,85,46,60
1,note_on,99,39,120
1,note_on,99,0,60
1,note_on,85,0,0
1,note_on,85,54,0
1,note_on,85,0,60
1,note_on,83,54,0
1,note_on,99,45,120
1,note_on,99,0,60
1,note_on,83,0,0
1,note_on,83,45,60
1,note_on,99,40,120
1,note_on,99,0,60
1,note_on,83,0,0
1,note_on,82,45,60
1,note_on,99,40,120
1,note_on,99,0,60
1,note_on,82,0,0
1,note_on,82,46,0
1,note_on,82,0,60
1,note_on,80,51,0
1,note_on,99,40,120
1,note_on,99,0,60
1,note_on,80,0,0
1,note_on,79,45,60
1,note_on,99,40,120
1,note_on,99,0,60
1,note_on,79,0,0
1,note_on,80,45,60
1,note_on,99,40,120
1,note_on,99,0,60
1,note_on,80,0,0
1,note_on,79,52,0
1,note_on,79,0,30
1,note_on,80,54,0
1,note_on,80,0,30
1,note_on,82,55,0
1,note_on,99,39,120
1,note_on,99,0,60
1,note_on,82,0,0
1,note_on,75,43,60
1,note_on,99,39,120
1,note_on,99,0,60
1,note_on,75,0,0
1,note_on,75,43,60
1,note_on,87,40,120
1,note_on,87,0,60
1,note_on,75,0,0
1,note_on,78,46,0
1,note_on,78,0,60
1,note_on,76,50,0
1,note_on,92,44,120
1,note_on,92,0,60
1,note_on,76,0,0
1,note_on,75,46,60
1,note_on,92,44,120
1,note_on,92,0,60
1,note_on,75,0,0
1,note_on,73,46,60
1,note_on,92,44,120
1,note_on,92,0,60
1,note_on,73,0,0
1,note_on,75,46,60
1,note_on,75,0,90
1,note_on,87,39,30
1,note_on,87,0,60
1,note_on,80,39,60
1,note_on,80,0,60
1,note_on,83,39,60
1,note_on,83,0,60
1,note_on,87,46,60
1,note_on,87,0,90
1,note_on,99,41,30
1,note_on,99,0,60
1,note_on,75,46,60
1,note_on,75,0,90
1,note_on,87,39,30
1,note_on,87,0,60
1,note_on,79,39,60
1,note_on,79,0,60
1,note_on,82,39,60
1,note_on,82,0,60
1,note_on,87,46,60
1,note_on,87,0,90
1,note_on,99,45,30
1,note_on,99,0,60
1,note_on,63,40,300
1,note_on,63,0,90
1,note_on,68,37,30
1,note_on,68,0,90
1,note_on,75,37,30
1,note_on,75,0,90
1,note_on,80,36,30
1,note_on,80,0,90
1,note_on,67,36,1350
1,note_on,70,41,0
1,note_on,70,0,90
1,note_on,67,0,0
1,note_on,66,39,150
1,note_on,69,44,0
1,note_on,69,0,90
1,note_on,66,0,0
1,note_on,65,41,150
1,note_on,68,45,0
1,note_on,68,0,90
1,note_on,65,0,0
1,note_on,64,43,150
1,note_on,67,47,0
1,note_on,67,0,90
1,note_on,64,0,0
1,note_on,73,54,30
1,note_on,73,0,60
1,note_on,71,54,0
1,note_on,71,0,60
1,note_on,70,54,0
1,note_on,70,0,60
1,note_on,71,54,0
1,note_on,71,0,60
1,note_on,66,61,0
1,note_on,66,0,90
1,note_on,90,54,30
1,note_on,90,0,90
1,note_on,71,62,30
1,note_on,71,0,90
1,note_on,90,54,30
1,note_on,90,0,90
1,note_on,75,56,30
1,note_on,75,0,60
1,note_on,73,56,0
1,note_on,73,0,60
1,note_on,72,56,0
1,note_on,72,0,60
1,note_on,73,56,0
1,note_on,73,0,60
1,note_on,66,63,0
1,note_on,66,0,90
1,note_on,90,61,30
1,note_on,90,0,90
1,note_on,73,63,30
1,note_on,73,0,90
1,note_on,90,61,30
1,note_on,90,0,90
1,note_on,76,54,30
1,note_on,76,0,60
1,note_on,75,54,0
1,note_on,75,0,60
1,note_on,74,54,0
1,note_on,74,0,60
1,note_on,75,54,0
1,note_on,75,0,60
1,note_on,71,61,0
1,note_on,71,0,90
1,note_on,90,59,30
1,note_on,90,0,90
1,note_on,71,36,150
1,note_on,74,41,0
1,note_on,74,0,90
1,note_on,71,0,0
1,note_on,70,39,150
1,note_on,73,44,0
1,note_on,73,0,90
1,note_on,70,0,0
1,note_on,69,41,150
1,note_on,72,45,0
1,note_on,72,0,90
1,note_on,69,0,0
1,note_on,68,43,150
1,note_on,71,47,0
1,note_on,71,0,90
1,note_on,68,0,0
1,note_on,77,54,30
1,note_on,77,0,60
1,note_on,75,54,0
1,note_on,75,0,60
1,note_on,74,54,0
1,note_on,74,0,60
1,note_on,75,54,0
1,note_on,75,0,60
1,note_on,70,61,0
1,note_on,70,0,90
1,note_on,94,59,30
1,note_on,94,0,90
1,note_on,75,62,30
1,note_on,75,0,90
1,note_on,94,59,30
1,note_on,94,0,90
1,note_on,78,56,30
1,note_on,78,0,60
1,note_on,77,56,0
1,note_on,77,0,60
1,note_on,76,56,0
1,note_on,76,0,60
1,note_on,77,56,0
1,note_on,77,0,60
1,note_on,70,63,0
1,note_on,70,0,90
1,note_on,94,60,30
1,note_on,94,0,90
1,note_on,77,62,30
1,note_on,77,0,90
1,note_on,94,60,30
1,note_on,94,0,90
1,note_on,80,54,30
1,note_on,80,0,60
1,note_on,78,54,0
1,note_on,78,0,60
1,note_on,77,54,0
1,note_on,77,0,60
1,note_on,78,54,0
1,note_on,78,0,60
1,note_on,75,61,0
1,note_on,75,0,90
1,note_on,94,59,30
1,note_on,94,0,90
1,note_on,74,36,150
1,note_on,77,41,0
1,note_on,77,0,90
1,note_on,74,0,0
1,note_on,73,39,150
1,note_on,76,44,0
1,note_on,76,0,90
1,note_on,73,0,0
1,note_on,75,45,150
1,note_on,72,41,0
1,note_on,72,0,90
1,note_on,75,0,0
1,note_on,74,47,150
1,note_on,71,43,0
1,note_on,71,0,90
1,note_on,74,0,0
1,note_on,80,54,30
1,note_on,80,0,60
1,note_on,78,54,0
1,note_on,78,0,60
1,note_on,77,54,0
1,note_on,77,0,60
1,note_on,78,54,0
1,note_on,78,0,60
1,note_on,73,61,0
1,note_on,73,0,90
1,note_on,97,64,30
1,note_on,97,0,90
1,note_on,78,62,30
1,note_on,78,0,90
1,note_on,97,64,30
1,note_on,97,0,90
1,note_on,82,56,30
1,note_on,82,0,60
1,note_on,80,56,0
1,note_on,80,0,60
1,note_on,79,56,0
1,note_on,79,0,60
1,note_on,80,56,0
1,note_on,80,0,60
1,note_on,73,63,0
1,note_on,73,0,90
1,note_on,97,64,30
1,note_on,97,0,90
1,note_on,80,62,30
1,note_on,80,0,90
1,note_on,97,64,30
1,note_on,97,0,90
1,note_on,82,47,30
1,note_on,82,0,90
1,note_on,83,47,30
1,note_on,83,0,90
1,note_on,85,50,30
1,note_on,97,55,120
1,note_on,94,55,0
1,note_on,94,0,120
1,note_on,97,0,0
1,note_on,85,0,0
1,note_on,83,47,0
1,note_on,83,0,90
1,note_on,82,47,30
1,note_on,82,0,90
1,note_on,80,47,30
1,note_on,80,0,90
1,note_on,82,47,30
1,note_on,82,0,90
1,note_on,83,50,30
1,note_on,95,55,120
1,note_on,87,50,0
1,note_on,87,0,120
1,note_on,95,0,0
1,note_on,83,0,0
1,note_on,82,47,0
1,note_on,82,0,90
1,note_on,80,47,30
1,note_on,80,0,90
1,note_on,78,47,30
1,note_on,78,0,90
1,note_on,80,47,30
1,note_on,80,0,90
1,note_on,82,50,30
1,note_on,85,47,120
1,note_on,94,54,0
1,note_on,94,0,120
1,note_on,85,0,0
1,note_on,82,0,0
1,note_on,80,47,0
1,note_on,80,0,90
1,note_on,78,47,30
1,note_on,78,0,90
1,note_on,77,47,30
1,note_on,77,0,90
1,note_on,78,47,30
1,note_on,78,0,90
1,note_on,80,50,30
1,note_on,92,51,120
1,note_on,83,45,0
1,note_on,83,0,120
1,note_on,92,0,0
1,note_on,80,0,0
1,note_on,75,47,0
1,note_on,75,0,90
1,note_on,77,47,30
1,note_on,77,0,90
1,note_on,78,50,30
1,note_on,90,45,120
1,note_on,82,40,0
1,note_on,78,0,60
1,note_on,82,0,60
1,note_on,90,0,0
1,note_on,68,61,480
1,note_on,68,0,90
1,note_on,80,61,30
1,note_on,80,0,90
1,note_on,92,65,30
1,note_on,80,56,120
1,note_on,92,0,60
1,note_on,80,0,60
1,note_on,92,65,0
1,note_on,78,55,120
1,note_on,92,0,60
1,note_on,78,0,60
1,note_on,92,67,0
1,note_on,76,54,120
1,note_on,92,0,60
1,note_on,76,0,60
1,note_on,102,70,0
1,note_on,80,55,120
1,note_on,102,0,60
1,note_on,80,0,60
1,note_on,100,70,0
1,note_on,80,55,120
1,note_on,100,0,60
1,note_on,80,0,60
1,note_on,99,70,0
1,note_on,80,55,120
1,note_on,99,0,60
1,note_on,80,0,60
1,note_on,97,70,0
1,note_on,80,55,120
1,note_on,97,0,60
1,note_on,80,0,60
1,note_on,99,70,0
1,note_on,80,54,120
1,note_on,99,0,60
1,note_on,80,0,60
1,note_on,100,73,0
1,note_on,80,54,120
1,note_on,100,0,60
1,note_on,80,0,60
1,note_on,97,69,0
1,note_on,80,55,120
1,note_on,97,0,60
1,note_on,80,0,60
1,note_on,66,61,240
1,note_on,66,0,90
1,note_on,78,61,30
1,note_on,78,0,90
1,note_on,90,65,30
1,note_on,78,56,120
1,note_on,90,0,60
1,note_on,78,0,60
1,note_on,90,65,0
1,note_on,76,55,120
1,note_on,90,0,60
1,note_on,76,0,60
1,note_on,90,67,0
1,note_on,75,54,120
1,note_on,90,0,60
1,note_on,75,0,60
1,note_on,100,70,0
1,note_on,78,55,120
1,note_on,100,0,60
1,note_on,78,0,60
1,note_on,99,70,0
1,note_on,78,55,120
1,note_on,99,0,60
1,note_on,78,0,60
1,note_on,97,70,0
1,note_on,78,55,120
1,note_on,97,0,60
1,note_on,78,0,60
1,note_on,95,70,0
1,note_on,78,55,120
1,note_on,95,0,60
1,note_on,78,0,60
1,note_on,97,70,0
1,note_on,78,54,120
1,note_on,97,0,60
1,note_on,78,0,60
1,note_on,99,73,0
1,note_on,78,54,120
1,note_on,99,0,60
1,note_on,78,0,60
1,note_on,95,69,0
1,note_on,78,55,120
1,note_on,95,0,60
1,note_on,78,0,60
1,note_on,63,66,240
1,note_on,63,0,90
1,note_on,75,61,30
1,note_on,75,0,90
1,note_on,87,61,30
1,note_on,87,0,90
1,note_on,75,52,30
1,note_on,75,0,90
1,note_on,87,60,30
1,note_on,87,0,90
1,note_on,74,54,30
1,note_on,74,0,90
1,note_on,87,61,30
1,note_on,87,0,90
1,note_on,73,55,30
1,note_on,73,0,90
1,note_on,87,60,30
1,note_on,87,0,90
1,note_on,73,57,30
1,note_on,73,0,120
1,note_on,87,61,0
1,note_on,87,0,90
1,note_on,71,64,30
1,note_on,71,0,90
1,note_on,76,54,30
1,note_on,88,73,0
1,note_on,88,0,90
1,note_on,76,0,0
1,note_on,82,54,30
1,note_on,87,72,0
1,note_on,87,0,90
1,note_on,82,0,0
1,note_on,73,52,30
1,note_on,85,71,0
1,note_on,85,0,90
1,note_on,73,0,0
1,note_on,76,51,30
1,note_on,83,70,0
1,note_on,83,0,90
1,note_on,76,0,0
1,note_on,71,51,30
1,note_on,82,70,0
1,note_on,82,0,90
1,note_on,71,0,0
1,note_on,77,51,30
1,note_on,80,69,0
1,note_on,80,0,90
1,note_on,77,0,0
1,note_on,70,51,30
1,note_on,79,69,0
1,note_on,79,0,90
1,note_on,70,0,0
1,note_on,75,47,30
1,note_on,82,65,0
1,note_on,82,0,90
1,note_on,75,0,0
1,note_on,79,45,30
1,note_on,83,62,0
1,note_on,83,0,90
1,note_on,79,0,0
1,note_on,75,43,30
1,note_on,82,57,0
1,note_on,82,0,90
1,note_on,75,0,0
1,note_on,75,66,270
1,note_on,75,0,90
1,note_on,87,61,30
1,note_on,87,0,90
1,note_on,99,60,30
1,note_on,99,0,90
1,note_on,87,50,30
1,note_on,87,0,90
1,note_on,99,56,30
1,note_on,99,0,90
1,note_on,86,52,30
1,note_on,86,0,90
1,note_on,99,57,30
1,note_on,99,0,90
1,note_on,85,54,30
1,note_on,85,0,90
1,note_on,99,61,30
1,note_on,99,0,90
1,note_on,85,55,30
1,note_on,85,0,120
1,note_on,99,61,0
1,note_on,99,0,90
1,note_on,83,63,30
1,note_on,83,0,90
1,note_on,88,47,30
1,note_on,100,66,0
1,note_on,100,0,90
1,note_on,88,0,0
1,note_on,93,47,30
1,note_on,99,64,0
1,note_on,99,0,90
1,note_on,93,0,0
1,note_on,85,46,30
1,note_on,97,63,0
1,note_on,97,0,90
1,note_on,85,0,0
1,note_on,88,45,30
1,note_on,95,62,0
1,note_on,95,0,90
1,note_on,88,0,0
1,note_on,83,45,30
1,note_on,93,62,0
1,note_on,93,0,90
1,note_on,83,0,0
1,note_on,89,45,30
1,note_on,92,61,0
1,note_on,92,0,90
1,note_on,89,0,0
1,note_on,91,63,30
1,note_on,82,45,0
1,note_on,82,0,90
1,note_on,91,0,0
1,note_on,87,45,30
1,note_on,94,57,0
1,note_on,94,0,90
1,note_on,87,0,0
1,note_on,99,60,510
1,note_on,99,0,90
1,note_on,87,55,30
1,note_on,87,0,90
1,note_on,99,61,510
1,note_on,99,0,90
1,note_on,87,56,30
1,note_on,87,0,90
1,note_on,99,64,510
1,note_on,99,0,90
1,note_on,87,57,30
1,note_on,87,0,90
1,note_on,99,67,270
1,note_on,99,0,90
1,note_on,87,62,30
1,note_on,87,0,90
1,note_on,99,70,270
1,note_on,99,0,90
1,note_on,87,62,30
1,note_on,87,0,90
1,note_on,99,71,270
1,note_on,99,0,90
1,note_on,81,71,30
1,note_on,81,0,90
1,note_on,99,72,30
1,note_on,99,0,90
1,note_on,82,72,30
1,note_on,82,0,90
1,note_on,99,72,30
1,note_on,99,0,90
1,note_on,83,73,30
1,note_on,83,0,90
1,note_on,99,75,30
1,note_on,99,0,90
1,note_on,84,75,30
1,note_on,84,0,90
1,note_on,99,76,30
1,note_on,99,0,90
1,note_on,85,77,30
1,note_on,85,0,90
1,note_on,99,79,30
1,note_on,99,0,90
1,note_on,86,79,30
1,note_on,86,0,90
1,note_on,99,80,30
1,note_on,99,0,90
1,note_on,87,81,30
1,note_on,87,0,90
1,note_on,99,81,30
1,note_on,99,0,90
1,note_on,87,81,30
1,note_on,87,0,90
1,note_on,99,82,30
1,note_on,99,0,90
1,note_on,87,81,30
1,note_on,87,0,90
1,note_on,99,81,30
1,note_on,99,0,90
1,note_on,87,79,30
1,note_on,87,0,90
1,note_on,99,81,30
1,note_on,99,0,90
1,note_on,87,76,30
1,note_on,87,0,90
1,note_on,99,72,30
1,note_on,99,0,90
1,note_on,87,61,30
1,note_on,87,0,90
1,note_on,99,62,30
1,note_on,99,0,90
1,note_on,87,61,30
1,note_on,87,0,90
1,note_on,75,59,30
1,note_on,87,61,120
1,note_on,87,0,90
1,note_on,75,0,30
1,note_on,99,61,0
1,note_on,99,0,90
1,note_on,87,61,30
1,note_on,87,0,90
1,note_on,75,59,30
1,note_on,87,55,120
1,note_on,87,0,90
1,note_on,75,0,30
1,note_on,99,55,0
1,note_on,99,0,90
1,note_on,87,55,30
1,note_on,87,0,90
1,note_on,75,61,30
1,note_on,75,0,90
1,note_on,87,55,30
1,note_on,87,0,90
1,note_on,99,47,30
1,note_on,99,0,90
1,note_on,87,47,30
1,note_on,87,0,90
1,note_on,75,55,30
1,note_on,87,47,120
1,note_on,87,0,90
1,note_on,75,0,30
1,note_on,99,47,0
1,note_on,99,0,90
1,note_on,87,47,30
1,note_on,87,0,90
1,note_on,75,47,30
1,note_on,75,0,90
1,note_on,87,47,30
1,note_on,87,0,90
1,note_on,99,47,30
1,note_on,99,0,90
1,note_on,87,49,30
1,note_on,87,0,90
1,note_on,75,51,30
1,note_on,75,0,90
1,note_on,87,51,30
1,note_on,87,0,90
1,note_on,99,54,30
1,note_on,99,0,90
1,note_on,87,54,30
1,note_on,87,0,90
1,note_on,75,54,30
1,note_on,75,0,90
1,note_on,87,55,30
1,note_on,87,0,90
1,note_on,99,57,30
1,note_on,99,0,90
1,note_on,87,57,30
1,note_on,87,0,90
1,note_on,75,60,30
1,note_on,75,0,90
1,note_on,87,60,30
1,note_on,87,0,90
1,note_on,99,60,30
1,note_on,99,0,90
1,note_on,87,59,30
1,note_on,87,0,90
1,note_on,75,59,30
1,note_on,75,0,90
1,note_on,87,57,30
1,note_on,87,0,90
1,note_on,99,57,30
1,note_on,99,0,90
1,note_on,87,57,30
1,note_on,87,0,90
1,note_on,75,56,30
1,note_on,75,0,90
1,note_on,87,56,30
1,note_on,87,0,90
1,note_on,99,54,30
1,note_on,99,0,90
1,note_on,87,54,30
1,note_on,87,0,90
1,note_on,75,54,30
1,note_on,75,0,90
1,note_on,87,54,30
1,note_on,87,0,90
1,note_on,99,54,30
1,note_on,99,0,90
1,note_on,87,52,30
1,note_on,87,0,90
1,note_on,75,52,30
1,note_on,75,0,90
1,note_on,87,51,30
1,note_on,87,0,90
1,note_on,99,47,30
1,note_on,99,0,90
1,note_on,87,47,30
1,note_on,87,0,90
1,note_on,75,46,30
1,note_on,75,0,90
1,note_on,87,45,30
1,note_on,87,0,90
1,note_on,99,45,30
1,note_on,99,0,90
1,note_on,87,44,30
1,note_on,87,0,90
1,note_on,75,47,30
1,note_on,75,0,90
1,note_on,87,47,30
1,note_on,87,0,90
1,note_on,99,47,30
1,note_on,99,0,90
1,note_on,87,47,30
1,note_on,87,0,90
1,note_on,75,47,30
1,note_on,75,0,90
1,note_on,87,47,30
1,note_on,87,0,90
1,note_on,99,47,41
1,note_on,99,0,90
1,note_on,87,47,30
1,note_on,87,0,90
1,note_on,75,55,30
1,note_on,87,47,120
1,note_on,87,0,90
1,note_on,75,0,30
1,note_on,99,47,0
1,note_on,99,0,90
1,note_on,87,47,30
1,note_on,87,0,90
1,note_on,75,47,19
1,note_on,75,0,90
1,note_on,87,47,30
1,note_on,87,0,90
1,note_on,99,47,30
1,note_on,99,0,90
1,note_on,87,49,30
1,note_on,87,0,90
1,note_on,75,51,30
1,note_on,75,0,90
1,note_on,87,51,41
1,note_on,87,0,90
1,note_on,99,54,19
1,note_on,99,0,90
1,note_on,87,54,30
1,note_on,87,0,90
1,note_on,75,54,30
1,note_on,75,0,90
1,note_on,87,55,30
1,note_on,87,0,90
1,note_on,99,57,30
1,note_on,99,0,90
1,note_on,87,57,30
1,note_on,87,0,90
1,note_on,75,60,30
1,note_on,75,0,90
1,note_on,87,60,30
1,note_on,87,0,90
1,note_on,99,60,30
1,note_on,99,0,90
1,note_on,87,59,30
1,note_on,87,0,90
1,note_on,75,59,30
1,note_on,87,57,120
1,note_on,87,0,90
1,note_on,75,0,30
1,note_on,76,54,0
1,note_on,87,54,120
1,note_on,87,0,120
1,note_on,76,0,0
1,note_on,75,50,0
1,note_on,87,50,120
1,note_on,87,0,120
1,note_on,75,0,0
1,note_on,73,50,0
1,note_on,87,50,120
1,note_on,87,0,120
1,note_on,73,0,0
1,note_on,75,59,0
1,note_on,87,54,120
1,note_on,87,0,120
1,note_on,75,0,0
1,note_on,80,54,0
1,note_on,80,0,90
1,note_on,83,54,30
1,note_on,83,0,90
1,note_on,87,60,30
1,note_on,99,54,120
1,note_on,99,0,120
1,note_on,87,0,0
1,note_on,75,59,0
1,note_on,87,54,120
1,note_on,87,0,120
1,note_on,75,0,0
1,note_on,79,54,0
1,note_on,79,0,90
1,note_on,82,54,30
1,note_on,82,0,90
1,note_on,87,60,30
1,note_on,99,54,120
1,note_on,99,0,120
1,note_on,87,0,0
1,note_on,75,49,480
1,note_on,75,0,40
1,note_on,87,49,40
1,note_on,87,0,40
1,note_on,87,49,40
1,note_on,87,0,40
1,note_on,87,52,40
1,note_on,87,0,40
1,note_on,87,52,40
1,note_on,87,0,40
1,note_on,99,52,40
1,note_on,99,0,40
1,note_on,87,52,40
1,note_on,87,0,40
1,note_on,87,52,40
1,note_on,87,0,40
1,note_on,99,52,40
1,note_on,99,0,40
1,note_on,85,52,40
1,note_on,85,0,40
1,note_on,85,52,40
1,note_on,85,0,40
1,note_on,97,52,40
1,note_on,97,0,40
1,note_on,83,54,40
1,note_on,83,0,40
1,note_on,83,54,40
1,note_on,83,0,40
1,note_on,95,54,40
1,note_on,95,0,40
1,note_on,83,54,40
1,note_on,83,0,40
1,note_on,83,54,40
1,note_on,83,0,40
1,note_on,95,54,40
1,note_on,95,0,40
1,note_on,82,52,40
1,note_on,82,0,40
1,note_on,82,52,40
1,note_on,82,0,40
1,note_on,94,52,40
1,note_on,94,0,40
1,note_on,80,54,40
1,note_on,80,0,40
1,note_on,80,54,40
1,note_on,80,0,40
1,note_on,92,54,40
1,note_on,92,0,40
1,note_on,79,52,40
1,note_on,79,0,40
1,note_on,79,52,40
1,note_on,79,0,40
1,note_on,91,52,40
1,note_on,91,0,40
1,note_on,80,52,40
1,note_on,80,0,40
1,note_on,80,52,40
1,note_on,80,0,40
1,note_on,92,52,40
1,note_on,92,0,40
1,note_on,82,54,40
1,note_on,82,0,40
1,note_on,82,54,40
1,note_on,82,0,40
1,note_on,94,54,40
1,note_on,94,0,40
1,note_on,75,50,40
1,note_on,75,0,40
1,note_on,75,50,40
1,note_on,75,0,40
1,note_on,87,47,40
1,note_on,87,0,40
1,note_on,75,47,40
1,note_on,75,0,40
1,note_on,75,47,40
1,note_on,75,0,40
1,note_on,87,47,40
1,note_on,87,0,40
1,note_on,76,50,40
1,note_on,76,0,40
1,note_on,76,50,40
1,note_on,76,0,40
1,note_on,88,50,40
1,note_on,88,0,40
1,note_on,75,47,40
1,note_on,75,0,40
1,note_on,75,47,40
1,note_on,75,0,40
1,note_on,87,47,40
1,note_on,87,0,40
1,note_on,73,47,40
1,note_on,73,0,40
1,note_on,73,47,40
1,note_on,73,0,40
1,note_on,85,47,40
1,note_on,85,0,40
1,note_on,71,50,40
1,note_on,71,0,40
1,note_on,71,50,40
1,note_on,71,0,40
1,note_on,83,50,40
1,note_on,83,0,40
1,note_on,71,47,40
1,note_on,71,0,40
1,note_on,71,47,40
1,note_on,71,0,40
1,note_on,83,47,40
1,note_on,83,0,40
1,note_on,70,47,40
1,note_on,70,0,40
1,note_on,70,47,40
1,note_on,70,0,40
1,note_on,82,47,40
1,note_on,82,0,40
1,note_on,68,49,40
1,note_on,68,0,40
1,note_on,68,49,40
1,note_on,68,0,40
1,note_on,80,49,40
1,note_on,80,0,40
1,note_on,67,47,40
1,note_on,67,0,40
1,note_on,67,47,40
1,note_on,67,0,40
1,note_on,79,47,40
1,note_on,79,0,40
1,note_on,68,47,40
1,note_on,68,0,40
1,note_on,68,47,40
1,note_on,68,0,40
1,note_on,80,47,40
1,note_on,80,0,40
1,note_on,70,50,40
1,note_on,70,0,40
1,note_on,70,50,40
1,note_on,70,0,40
1,note_on,82,50,40
1,note_on,82,0,40
1,note_on,63,47,40
1,note_on,63,0,40
1,note_on,63,47,40
1,note_on,63,0,40
1,note_on,75,43,40
1,note_on,75,0,40
1,note_on,75,45,40
1,note_on,75,0,40
1,note_on,75,45,40
1,note_on,75,0,40
1,note_on,75,45,40
1,note_on,75,0,40
1,note_on,87,52,40
1,note_on,87,0,40
1,note_on,87,52,40
1,note_on,87,0,40
1,note_on,99,52,40
1,note_on,99,0,40
1,note_on,87,52,40
1,note_on,87,0,40
1,note_on,87,52,40
1,note_on,87,0,40
1,note_on,99,52,40
1,note_on,99,0,40
1,note_on,85,52,40
1,note_on,85,0,40
1,note_on,85,52,40
1,note_on,85,0,40
1,note_on,97,52,40
1,note_on,97,0,40
1,note_on,83,54,40
1,note_on,83,0,40
1,note_on,83,54,40
1,note_on,83,0,40
1,note_on,95,54,40
1,note_on,95,0,40
1,note_on,83,54,40
1,note_on,83,0,40
1,note_on,83,54,40
1,note_on,83,0,40
1,note_on,95,54,40
1,note_on,95,0,40
1,note_on,82,52,40
1,note_on,82,0,40
1,note_on,82,52,40
1,note_on,82,0,40
1,note_on,94,52,40
1,note_on,94,0,40
1,note_on,80,54,40
1,note_on,80,0,40
1,note_on,80,54,40
1,note_on,80,0,40
1,note_on,92,54,40
1,note_on,92,0,40
1,note_on,79,52,40
1,note_on,79,0,40
1,note_on,79,52,40
1,note_on,79,0,40
1,note_on,91,52,40
1,note_on,91,0,40
1,note_on,80,52,40
1,note_on,80,0,40
1,note_on,80,52,40
1,note_on,80,0,40
1,note_on,92,52,40
1,note_on,92,0,40
1,note_on,82,54,40
1,note_on,82,0,40
1,note_on,82,54,40
1,note_on,82,0,40
1,note_on,94,54,40
1,note_on,94,0,40
1,note_on,75,50,40
1,note_on,75,0,40
1,note_on,75,50,40
1,note_on,75,0,40
1,note_on,87,47,40
1,note_on,87,0,40
1,note_on,75,49,40
1,note_on,75,0,40
1,note_on,75,49,40
1,note_on,75,0,40
1,note_on,87,49,40
1,note_on,87,0,40
1,note_on,76,52,40
1,note_on,76,0,40
1,note_on,76,52,40
1,note_on,76,0,40
1,note_on,88,52,40
1,note_on,88,0,40
1,note_on,75,50,40
1,note_on,75,0,40
1,note_on,75,50,40
1,note_on,75,0,40
1,note_on,87,50,40
1,note_on,87,0,40
1,note_on,73,47,40
1,note_on,73,0,40
1,note_on,73,47,40
1,note_on,73,0,40
1,note_on,85,47,40
1,note_on,85,0,40
1,note_on,75,46,40
1,note_on,75,0,40
1,note_on,75,46,40
1,note_on,75,0,40
1,note_on,87,47,40
1,note_on,87,0,40
1,note_on,76,47,40
1,note_on,76,0,40
1,note_on,76,49,40
1,note_on,76,0,40
1,note_on,87,49,40
1,note_on,87,0,40
1,note_on,77,50,40
1,note_on,77,0,40
1,note_on,77,50,40
1,note_on,77,0,40
1,note_on,87,51,40
1,note_on,87,0,40
1,note_on,78,51,40
1,note_on,78,0,40
1,note_on,78,52,40
1,note_on,78,0,40
1,note_on,87,52,40
1,note_on,87,0,40
1,note_on,79,54,40
1,note_on,79,0,40
1,note_on,79,54,40
1,note_on,79,0,40
1,note_on,87,54,40
1,note_on,87,0,40
1,note_on,80,55,40
1,note_on,80,0,40
1,note_on,80,55,40
1,note_on,80,0,40
1,note_on,87,56,40
1,note_on,87,0,40
1,note_on,81,56,40
1,note_on,81,0,40
1,note_on,81,55,40
1,note_on,81,0,40
1,note_on,87,55,40
1,note_on,87,0,40
1,note_on,82,55,40
1,note_on,82,0,40
1,note_on,82,55,40
1,note_on,82,0,40
1,note_on,87,55,40
1,note_on,87,0,40
1,note_on,83,55,40
1,note_on,83,0,40
1,note_on,83,55,40
1,note_on,83,0,40
1,note_on,87,55,40
1,note_on,87,0,40
1,note_on,84,54,40
1,note_on,84,0,40
1,note_on,84,54,40
1,note_on,84,0,40
1,note_on,87,54,40
1,note_on,87,0,40
1,note_on,85,52,40
1,note_on,85,0,40
1,note_on,85,52,40
1,note_on,85,0,40
1,note_on,87,51,40
1,note_on,87,0,40
1,note_on,86,50,40
1,note_on,86,0,40
1,note_on,86,50,40
1,note_on,86,0,40
1,note_on,87,49,40
1,note_on,87,0,40
1,note_on,87,47,40
1,note_on,87,0,40
1,note_on,87,47,40
1,note_on,87,0,40
1,note_on,99,46,40
1,note_on,99,0,40
1,note_on,88,45,40
1,note_on,88,0,40
1,note_on,88,45,40
1,note_on,88,0,40
1,note_on,99,45,40
1,note_on,99,0,40
1,note_on,89,44,40
1,note_on,89,0,40
1,note_on,89,44,40
1,note_on,89,0,40
1,note_on,99,43,40
1,note_on,99,0,40
1,note_on,90,41,40
1,note_on,90,0,40
1,note_on,90,41,40
1,note_on,90,0,40
1,note_on,99,40,40
1,note_on,99,0,40
1,note_on,91,39,40
1,note_on,91,0,40
1,note_on,91,39,40
1,note_on,91,0,40
1,note_on,99,37,40
1,note_on,99,0,40
1,note_on,92,36,40
1,note_on,92,0,40
1,note_on,92,36,40
1,note_on,92,0,40
1,note_on,99,36,40
1,note_on,99,0,40
1,note_on,71,41,520
1,note_on,70,43,120
1,note_on,70,0,120
1,note_on,71,0,0
1,note_on,71,37,0
1,note_on,69,44,0
1,note_on,69,0,90
1,note_on,71,0,0
1,note_on,71,39,30
1,note_on,68,45,0
1,note_on,68,0,90
1,note_on,71,0,0
1,note_on,71,40,30
1,note_on,67,45,0
1,note_on,67,0,90
1,note_on,71,0,0
1,note_on,71,41,30
1,note_on,66,46,0
1,note_on,66,0,90
1,note_on,71,0,0
1,note_on,71,43,30
1,note_on,65,47,0
1,note_on,65,0,90
1,note_on,71,0,0
1,note_on,71,44,30
1,note_on,64,49,0
1,note_on,64,0,90
1,note_on,71,0,0
1,note_on,73,57,30
1,note_on,73,0,60
1,note_on,71,50,0
1,note_on,71,0,60
1,note_on,70,50,0
1,note_on,70,0,60
1,note_on,71,50,0
1,note_on,71,0,60
1,note_on,66,54,0
1,note_on,78,50,60
1,note_on,78,0,54
1,note_on,78,50,6
1,note_on,78,0,54
1,note_on,78,50,6
1,note_on,78,0,54
1,note_on,66,0,6
1,note_on,71,54,0
1,note_on,83,50,60
1,note_on,83,0,54
1,note_on,83,50,6
1,note_on,83,0,54
1,note_on,83,50,6
1,note_on,83,0,54
1,note_on,71,0,6
1,note_on,73,54,0
1,note_on,85,51,60
1,note_on,85,0,54
1,note_on,85,51,6
1,note_on,85,0,54
1,note_on,85,51,6
1,note_on,85,0,54
1,note_on,73,0,6
1,note_on,78,54,0
1,note_on,90,51,60
1,note_on,90,0,54
1,note_on,90,51,6
1,note_on,90,0,54
1,note_on,90,51,6
1,note_on,90,0,54
1,note_on,78,0,6
1,note_on,85,54,0
1,note_on,97,52,80
1,note_on,90,52,0
1,note_on,90,0,72
1,note_on,97,0,0
1,note_on,97,54,8
1,note_on,90,54,0
1,note_on,90,0,72
1,note_on,97,0,0
1,note_on,85,0,8
1,note_on,87,56,0
1,note_on,99,54,80
1,note_on,90,54,0
1,note_on,90,0,72
1,note_on,99,0,0
1,note_on,99,54,8
1,note_on,90,54,0
1,note_on,90,0,72
1,note_on,99,0,0
1,note_on,87,0,8
1,note_on,83,54,0
1,note_on,83,0,120
1,note_on,75,41,120
1,note_on,74,43,120
1,note_on,74,0,120
1,note_on,75,0,0
1,note_on,75,37,0
1,note_on,73,44,0
1,note_on,73,0,90
1,note_on,75,0,0
1,note_on,75,39,30
1,note_on,72,45,0
1,note_on,72,0,90
1,note_on,75,0,0
1,note_on,75,40,30
1,note_on,71,45,0
1,note_on,71,0,90
1,note_on,75,0,0
1,note_on,75,41,30
1,note_on,70,46,0
1,note_on,70,0,90
1,note_on,75,0,0
1,note_on,75,43,30
1,note_on,69,47,0
1,note_on,69,0,90
1,note_on,75,0,0
1,note_on,75,44,30
1,note_on,68,49,0
1,note_on,68,0,90
1,note_on,75,0,0
1,note_on,77,56,30
1,note_on,77,0,60
1,note_on,75,50,0
1,note_on,75,0,60
1,note_on,74,50,0
1,note_on,74,0,60
1,note_on,75,50,0
1,note_on,75,0,60
1,note_on,70,54,0
1,note_on,82,50,60
1,note_on,82,0,54
1,note_on,82,50,6
1,note_on,82,0,54
1,note_on,82,50,6
1,note_on,82,0,54
1,note_on,70,0,6
1,note_on,75,54,0
1,note_on,87,50,60
1,note_on,87,0,54
1,note_on,87,50,6
1,note_on,87,0,54
1,note_on,87,50,6
1,note_on,87,0,54
1,note_on,75,0,6
1,note_on,77,54,0
1,note_on,89,51,60
1,note_on,89,0,54
1,note_on,89,51,6
1,note_on,89,0,54
1,note_on,89,51,6
1,note_on,89,0,54
1,note_on,77,0,6
1,note_on,82,54,0
1,note_on,94,51,60
1,note_on,94,0,54
1,note_on,94,51,6
1,note_on,94,0,54
1,note_on,94,51,6
1,note_on,94,0,54
1,note_on,82,0,6
1,note_on,89,54,0
1,note_on,101,52,80
1,note_on,94,52,0
1,note_on,94,0,72
1,note_on,101,0,0
1,note_on,101,54,8
1,note_on,94,54,0
1,note_on,94,0,72
1,note_on,101,0,0
1,note_on,89,0,8
1,note_on,90,56,0
1,note_on,102,54,80
1,note_on,94,54,0
1,note_on,94,0,72
1,note_on,102,0,0
1,note_on,102,54,8
1,note_on,94,54,0
1,note_on,94,0,72
1,note_on,102,0,0
1,note_on,90,0,8
1,note_on,87,54,0
1,note_on,87,0,120
1,note_on,78,41,120
1,note_on,77,43,120
1,note_on,77,0,120
1,note_on,78,0,0
1,note_on,78,37,0
1,note_on,76,44,0
1,note_on,76,0,90
1,note_on,78,0,0
1,note_on,78,39,30
1,note_on,75,45,0
1,note_on,75,0,90
1,note_on,78,0,0
1,note_on,78,40,30
1,note_on,74,45,0
1,note_on,74,0,90
1,note_on,78,0,0
1,note_on,78,41,30
1,note_on,73,46,0
1,note_on,73,0,90
1,note_on,78,0,0
1,note_on,78,43,30
1,note_on,72,47,0
1,note_on,72,0,90
1,note_on,78,0,0
1,note_on,78,44,30
1,note_on,71,49,0
1,note_on,71,0,90
1,note_on,78,0,0
1,note_on,80,56,30
1,note_on,80,0,60
1,note_on,78,50,0
1,note_on,78,0,60
1,note_on,77,50,0
1,note_on,77,0,60
1,note_on,78,50,0
1,note_on,78,0,60
1,note_on,73,54,0
1,note_on,85,50,60
1,note_on,85,0,54
1,note_on,85,50,6
1,note_on,85,0,54
1,note_on,85,50,6
1,note_on,85,0,54
1,note_on,73,0,6
1,note_on,78,54,0
1,note_on,90,50,60
1,note_on,90,0,54
1,note_on,90,50,6
1,note_on,90,0,54
1,note_on,90,50,6
1,note_on,90,0,54
1,note_on,78,0,6
1,note_on,80,54,0
1,note_on,92,51,60
1,note_on,92,0,54
1,note_on,92,51,6
1,note_on,92,0,54
1,note_on,92,51,6
1,note_on,92,0,54
1,note_on,80,0,6
1,note_on,85,54,0
1,note_on,97,54,80
1,note_on,92,54,0
1,note_on,92,0,72
1,note_on,97,0,0
1,note_on,97,54,8
1,note_on,92,54,0
1,note_on,92,0,72
1,note_on,97,0,0
1,note_on,85,0,8
1,note_on,97,54,0
1,note_on,92,54,0
1,note_on,92,0,72
1,note_on,97,0,0
1,note_on,92,52,8
1,note_on,97,52,0
1,note_on,97,0,72
1,note_on,92,0,0
1,note_on,92,54,8
1,note_on,97,54,0
1,note_on,97,0,72
1,note_on,92,0,0
1,note_on,97,40,8
1,note_on,94,40,0
1,note_on,97,0,60
1,note_on,99,40,0
1,note_on,99,0,60
1,note_on,94,0,0
1,note_on,97,39,0
1,note_on,93,39,0
1,note_on,97,0,60
1,note_on,99,37,0
1,note_on,99,0,60
1,note_on,93,0,0
1,note_on,97,37,0
1,note_on,92,37,0
1,note_on,97,0,60
1,note_on,99,36,0
1,note_on,99,0,60
1,note_on,92,0,0
1,note_on,97,36,0
1,note_on,91,36,0
1,note_on,97,0,60
1,note_on,99,36,0
1,note_on,99,0,60
1,note_on,91,0,0
1,note_on,97,35,0
1,note_on,90,35,0
1,note_on,97,0,60
1,note_on,99,35,0
1,note_on,99,0,60
1,note_on,97,34,0
1,note_on,97,0,60
1,note_on,99,34,0
1,note_on,99,0,60
1,note_on,90,0,0
1,note_on,95,37,0
1,note_on,92,37,0
1,note_on,95,0,60
1,note_on,97,37,0
1,note_on,97,0,60
1,note_on,92,0,0
1,note_on,95,36,0
1,note_on,91,36,0
1,note_on,95,0,60
1,note_on,97,36,0
1,note_on,97,0,60
1,note_on,91,0,0
1,note_on,95,36,0
1,note_on,90,36,0
1,note_on,95,0,60
1,note_on,97,36,0
1,note_on,97,0,60
1,note_on,90,0,0
1,note_on,95,35,0
1,note_on,89,35,0
1,note_on,95,0,60
1,note_on,97,35,0
1,note_on,97,0,60
1,note_on,89,0,0
1,note_on,95,34,0
1,note_on,87,34,0
1,note_on,95,0,60
1,note_on,97,34,0
1,note_on,97,0,60
1,note_on,95,33,0
1,note_on,95,0,60
1,note_on,97,33,0
1,note_on,97,0,60
1,note_on,87,0,0
1,note_on,94,37,0
1,note_on,90,37,0
1,note_on,94,0,60
1,note_on,95,37,0
1,note_on,95,0,60
1,note_on,90,0,0
1,note_on,94,36,0
1,note_on,89,36,0
1,note_on,94,0,60
1,note_on,95,36,0
1,note_on,95,0,60
1,note_on,89,0,0
1,note_on,94,36,0
1,note_on,87,36,0
1,note_on,94,0,60
1,note_on,95,36,0
1,note_on,95,0,60
1,note_on,87,0,0
1,note_on,94,36,0
1,note_on,86,36,0
1,note_on,94,0,60
1,note_on,95,35,0
1,note_on,95,0,60
1,note_on,86,0,0
1,note_on,94,35,0
1,note_on,85,35,0
1,note_on,94,0,60
1,note_on,95,34,0
1,note_on,95,0,60
1,note_on,94,34,0
1,note_on,94,0,60
1,note_on,95,32,0
1,note_on,95,0,60
1,note_on,85,0,0
1,note_on,92,37,0
1,note_on,89,37,0
1,note_on,92,0,60
1,note_on,94,37,0
1,note_on,94,0,60
1,note_on,89,0,0
1,note_on,92,36,0
1,note_on,87,36,0
1,note_on,92,0,60
1,note_on,94,36,0
1,note_on,94,0,60
1,note_on,87,0,0
1,note_on,92,35,0
1,note_on,86,35,0
1,note_on,92,0,60
1,note_on,94,34,0
1,note_on,94,0,60
1,note_on,86,0,0
1,note_on,92,33,0
1,note_on,85,33,0
1,note_on,92,0,60
1,note_on,94,32,0
1,note_on,94,0,60
1,note_on,85,0,0
1,note_on,92,32,0
1,note_on,83,32,0
1,note_on,92,0,60
1,note_on,87,36,0
1,note_on,87,0,60
1,note_on,88,39,0
1,note_on,88,0,60
1,note_on,89,41,0
1,note_on,89,0,60
1,note_on,83,0,0
1,note_on,90,43,0
1,note_on,90,0,60
1,note_on,92,43,0
1,note_on,92,0,60
1,note_on,90,43,0
1,note_on,90,0,60
1,note_on,92,43,0
1,note_on,92,0,60
1,note_on,78,59,0
1,note_on,90,45,60
1,note_on,90,0,60
1,note_on,92,45,0
1,note_on,92,0,60
1,note_on,90,45,0
1,note_on,90,0,60
1,note_on,78,0,0
1,note_on,79,60,0
1,note_on,91,47,60
1,note_on,91,0,60
1,note_on,92,47,0
1,note_on,92,0,60
1,note_on,91,47,0
1,note_on,91,0,60
1,note_on,79,0,0
1,note_on,80,63,0
1,note_on,92,51,60
1,note_on,92,0,60
1,note_on,93,51,0
1,note_on,93,0,60
1,note_on,92,50,0
1,note_on,92,0,60
1,note_on,80,0,0
1,note_on,93,50,0
1,note_on,93,0,60
1,note_on,92,49,0
1,note_on,92,0,60
1,note_on,93,49,0
1,note_on,93,0,60
1,note_on,92,47,0
1,note_on,92,0,60
1,note_on,93,47,0
1,note_on,93,0,48
1,note_on,92,46,0
1,note_on,92,0,48
1,note_on,93,46,0
1,note_on,93,0,48
1,note_on,92,45,0
1,note_on,92,0,48
1,note_on,93,45,0
1,note_on,93,0,48
1,note_on,92,45,0
1,note_on,92,0,60
1,note_on,93,45,0
1,note_on,93,0,60
1,note_on,92,45,0
1,note_on,92,0,60
1,note_on,93,45,0
1,note_on,93,0,60
1,note_on,92,51,0
1,note_on,102,61,0
1,note_on,92,0,60
1,note_on,93,51,0
1,note_on,93,0,60
1,note_on,92,51,0
1,note_on,92,0,60
1,note_on,102,0,0
1,note_on,93,51,0
1,note_on,93,0,60
1,note_on,92,47,0
1,note_on,100,60,0
1,note_on,92,0,60
1,note_on,93,47,0
1,note_on,93,0,60
1,note_on,92,47,0
1,note_on,92,0,60
1,note_on,100,0,0
1,note_on,93,47,0
1,note_on,93,0,60
1,note_on,92,51,0
1,note_on,99,61,0
1,note_on,92,0,60
1,note_on,93,51,0
1,note_on,93,0,60
1,note_on,92,51,0
1,note_on,92,0,60
1,note_on,99,0,0
1,note_on,93,51,0
1,note_on,93,0,60
1,note_on,92,47,0
1,note_on,97,57,0
1,note_on,92,0,60
1,note_on,93,47,0
1,note_on,93,0,60
1,note_on,92,47,0
1,note_on,92,0,60
1,note_on,97,0,0
1,note_on,93,46,0
1,note_on,93,0,60
1,note_on,92,46,0
1,note_on,99,55,0
1,note_on,92,0,60
1,note_on,93,46,0
1,note_on,93,0,60
1,note_on,92,45,0
1,note_on,92,0,60
1,note_on,99,0,0
1,note_on,93,45,0
1,note_on,93,0,60
1,note_on,92,46,0
1,note_on,100,56,0
1,note_on,92,0,60
1,note_on,93,46,0
1,note_on,93,0,60
1,note_on,92,45,0
1,note_on,92,0,60
1,note_on,100,0,0
1,note_on,93,45,0
1,note_on,93,0,60
1,note_on,92,51,0
1,note_on,97,51,0
1,note_on,97,0,120
1,note_on,92,0,0
1,note_on,79,60,120
1,note_on,91,47,60
1,note_on,91,0,60
1,note_on,93,47,0
1,note_on,93,0,60
1,note_on,91,47,0
1,note_on,91,0,60
1,note_on,79,0,0
1,note_on,78,63,0
1,note_on,90,51,60
1,note_on,90,0,60
1,note_on,92,51,0
1,note_on,92,0,60
1,note_on,90,50,0
1,note_on,90,0,60
1,note_on,78,0,0
1,note_on,92,50,0
1,note_on,92,0,60
1,note_on,90,49,0
1,note_on,90,0,60
1,note_on,92,49,0
1,note_on,92,0,60
1,note_on,90,47,0
1,note_on,90,0,60
1,note_on,92,47,0
1,note_on,92,0,48
1,note_on,90,46,0
1,note_on,90,0,48
1,note_on,92,46,0
1,note_on,92,0,48
1,note_on,90,45,0
1,note_on,90,0,48
1,note_on,92,45,0
1,note_on,92,0,48
1,note_on,90,45,0
1,note_on,90,0,60
1,note_on,92,45,0
1,note_on,92,0,60
1,note_on,90,45,0
1,note_on,90,0,60
1,note_on,92,45,0
1,note_on,92,0,60
1,note_on,90,51,0
1,note_on,100,61,0
1,note_on,90,0,60
1,note_on,92,51,0
1,note_on,92,0,60
1,note_on,90,51,0
1,note_on,90,0,60
1,note_on,100,0,0
1,note_on,92,51,0
1,note_on,92,0,60
1,note_on,90,47,0
1,note_on,99,60,0
1,note_on,90,0,60
1,note_on,92,47,0
1,note_on,92,0,60
1,note_on,90,47,0
1,note_on,90,0,60
1,note_on,99,0,0
1,note_on,92,47,0
1,note_on,92,0,60
1,note_on,90,51,0
1,note_on,97,61,0
1,note_on,90,0,60
1,note_on,92,51,0
1,note_on,92,0,60
1,note_on,90,51,0
1,note_on,90,0,60
1,note_on,97,0,0
1,note_on,92,51,0
1,note_on,92,0,60
1,note_on,90,47,0
1,note_on,95,57,0
1,note_on,90,0,60
1,note_on,92,47,0
1,note_on,92,0,60
1,note_on,90,47,0
1,note_on,90,0,60
1,note_on,95,0,0
1,note_on,92,46,0
1,note_on,92,0,60
1,note_on,90,46,0
1,note_on,97,55,0
1,note_on,90,0,60
1,note_on,92,46,0
1,note_on,92,0,60
1,note_on,90,45,0
1,note_on,90,0,60
1,note_on,97,0,0
1,note_on,92,45,0
1,note_on,92,0,60
1,note_on,90,46,0
1,note_on,99,56,0
1,note_on,90,0,60
1,note_on,92,46,0
1,note_on,92,0,60
1,note_on,90,46,0
1,note_on,90,0,60
1,note_on,99,0,0
1,note_on,92,46,0
1,note_on,92,0,60
1,note_on,90,51,0
1,note_on,95,51,0
1,note_on,95,0,120
1,note_on,90,0,0
1,note_on,74,57,120
1,note_on,86,47,60
1,note_on,86,0,60
1,note_on,87,47,0
1,note_on,87,0,60
1,note_on,86,47,0
1,note_on,86,0,60
1,note_on,74,0,0
1,note_on,75,57,0
1,note_on,87,51,60
1,note_on,87,0,60
1,note_on,88,50,0
1,note_on,88,0,60
1,note_on,87,50,0
1,note_on,87,0,60
1,note_on,75,0,0
1,note_on,88,49,0
1,note_on,88,0,60
1,note_on,87,49,0
1,note_on,87,0,60
1,note_on,88,47,0
1,note_on,88,0,60
1,note_on,87,47,0
1,note_on,87,0,60
1,note_on,88,46,0
1,note_on,88,0,60
1,note_on,87,46,0
1,note_on,87,0,60
1,note_on,88,45,0
1,note_on,88,0,60
1,note_on,87,45,0
1,note_on,87,0,60
1,note_on,88,43,0
1,note_on,88,0,45
1,note_on,87,44,0
1,note_on,87,0,45
1,note_on,86,45,0
1,note_on,86,0,45
1,note_on,87,45,0
1,note_on,87,0,45
1,note_on,88,46,0
1,note_on,88,0,45
1,note_on,89,47,0
1,note_on,89,0,45
1,note_on,90,49,0
1,note_on,90,0,45
1,note_on,91,49,0
1,note_on,91,0,45
1,note_on,92,51,0
1,note_on,92,0,45
1,note_on,93,52,0
1,note_on,93,0,45
1,note_on,94,54,0
1,note_on,94,0,45
1,note_on,95,55,0
1,note_on,95,0,45
1,note_on,96,56,0
1,note_on,96,0,45
1,note_on,97,57,0
1,note_on,97,0,45
1,note_on,98,59,0
1,note_on,98,0,45
1,note_on,99,60,0
1,note_on,99,0,45
1,note_on,100,61,0
1,note_on,100,0,48
1,note_on,102,60,0
1,note_on,102,0,48
1,note_on,100,60,0
1,note_on,100,0,48
1,note_on,99,59,0
1,note_on,99,0,48
1,note_on,98,57,0
1,note_on,98,0,48
1,note_on,97,56,0
1,note_on,97,0,48
1,note_on,96,55,0
1,note_on,96,0,48
1,note_on,95,54,0
1,note_on,95,0,48
1,note_on,94,54,0
1,note_on,94,0,48
1,note_on,93,52,0
1,note_on,93,0,48
1,note_on,92,51,0
1,note_on,92,0,48
1,note_on,91,50,0
1,note_on,91,0,48
1,note_on,90,49,0
1,note_on,90,0,48
1,note_on,89,47,0
1,note_on,89,0,48
1,note_on,88,46,0
1,note_on,88,0,48
1,note_on,87,46,0
1,note_on,87,0,240
1,note_on,70,57,0
1,note_on,82,47,60
1,note_on,82,0,60
1,note_on,83,47,0
1,note_on,83,0,60
1,note_on,82,47,0
1,note_on,82,0,60
1,note_on,70,0,0
1,note_on,74,57,0
1,note_on,86,47,60
1,note_on,86,0,60
1,note_on,87,47,0
1,note_on,87,0,60
1,note_on,86,47,0
1,note_on,86,0,60
1,note_on,74,0,0
1,note_on,75,57,0
1,note_on,87,51,60
1,note_on,87,0,60
1,note_on,88,50,0
1,note_on,88,0,60
1,note_on,87,50,0
1,note_on,87,0,60
1,note_on,75,0,0
1,note_on,88,49,0
1,note_on,88,0,60
1,note_on,87,49,0
1,note_on,87,0,60
1,note_on,88,47,0
1,note_on,88,0,60
1,note_on,87,47,0
1,note_on,87,0,60
1,note_on,88,46,0
1,note_on,88,0,60
1,note_on,87,46,0
1,note_on,87,0,60
1,note_on,88,45,0
1,note_on,88,0,60
1,note_on,87,45,0
1,note_on,87,0,60
1,note_on,88,43,0
1,note_on,88,0,45
1,note_on,87,44,0
1,note_on,87,0,45
1,note_on,86,45,0
1,note_on,86,0,45
1,note_on,87,45,0
1,note_on,87,0,45
1,note_on,88,46,0
1,note_on,88,0,45
1,note_on,89,47,0
1,note_on,89,0,45
1,note_on,90,49,0
1,note_on,90,0,45
1,note_on,91,49,0
1,note_on,91,0,45
1,note_on,92,51,0
1,note_on,92,0,45
1,note_on,93,52,0
1,note_on,93,0,45
1,note_on,94,54,0
1,note_on,94,0,45
1,note_on,95,55,0
1,note_on,95,0,45
1,note_on,96,56,0
1,note_on,96,0,45
1,note_on,97,57,0
1,note_on,97,0,45
1,note_on,98,59,0
1,note_on,98,0,45
1,note_on,99,60,0
1,note_on,99,0,45
1,note_on,100,61,0
1,note_on,100,0,48
1,note_on,102,60,0
1,note_on,102,0,48
1,note_on,100,60,0
1,note_on,100,0,48
1,note_on,99,59,0
1,note_on,99,0,48
1,note_on,98,57,0
1,note_on,98,0,48
1,note_on,97,56,0
1,note_on,97,0,48
1,note_on,96,55,0
1,note_on,96,0,48
1,note_on,95,54,0
1,note_on,95,0,48
1,note_on,94,54,0
1,note_on,94,0,48
1,note_on,93,52,0
1,note_on,93,0,48
1,note_on,92,51,0
1,note_on,92,0,48
1,note_on,91,50,0
1,note_on,91,0,48
1,note_on,90,49,0
1,note_on,90,0,48
1,note_on,89,47,0
1,note_on,89,0,48
1,note_on,88,46,0
1,note_on,88,0,48
1,note_on,87,43,0
1,note_on,87,0,45
1,note_on,88,43,0
1,note_on,88,0,45
1,note_on,87,44,0
1,note_on,87,0,42
1,note_on,86,45,0
1,note_on,86,0,42
1,note_on,87,45,0
1,note_on,87,0,42
1,note_on,88,46,0
1,note_on,88,0,42
1,note_on,89,47,0
1,note_on,89,0,42
1,note_on,90,49,0
1,note_on,90,0,42
1,note_on,91,50,0
1,note_on,91,0,42
1,note_on,92,51,0
1,note_on,92,0,42
1,note_on,93,52,0
1,note_on,93,0,42
1,note_on,94,54,0
1,note_on,94,0,42
1,note_on,95,55,0
1,note_on,95,0,42
1,note_on,96,56,0
1,note_on,96,0,42
1,note_on,97,57,0
1,note_on,97,0,42
1,note_on,98,59,0
1,note_on,98,0,42
1,note_on,99,60,0
1,note_on,100,61,41
1,note_on,99,0,1
1,note_on,100,0,47
1,note_on,102,60,0
1,note_on,102,0,48
1,note_on,100,60,0
1,note_on,100,0,48
1,note_on,99,59,0
1,note_on,99,0,48
1,note_on,98,57,0
1,note_on,98,0,48
1,note_on,97,56,0
1,note_on,97,0,48
1,note_on,96,55,0
1,note_on,96,0,48
1,note_on,95,54,0
1,note_on,95,0,48
1,note_on,94,54,0
1,note_on,94,0,48
1,note_on,93,52,0
1,note_on,93,0,48
1,note_on,92,51,0
1,note_on,92,0,48
1,note_on,91,50,0
1,note_on,91,0,48
1,note_on,90,49,0
1,note_on,90,0,48
1,note_on,89,47,0
1,note_on,89,0,48
1,note_on,88,46,0
1,note_on,88,0,48
1,note_on,87,43,1
1,note_on,87,0,45
1,note_on,88,43,0
1,note_on,88,0,45
1,note_on,87,44,0
1,note_on,87,0,42
1,note_on,86,45,0
1,note_on,86,0,42
1,note_on,87,45,0
1,note_on,87,0,42
1,note_on,88,46,0
1,note_on,88,0,42
1,note_on,89,47,0
1,note_on,89,0,42
1,note_on,90,49,0
1,note_on,90,0,42
1,note_on,91,50,0
1,note_on,91,0,42
1,note_on,92,51,0
1,note_on,92,0,42
1,note_on,93,52,0
1,note_on,93,0,42
1,note_on,94,54,0
1,note_on,94,0,42
1,note_on,95,55,0
1,note_on,95,0,42
1,note_on,96,56,0
1,note_on,96,0,42
1,note_on,97,57,0
1,note_on,97,0,42
1,note_on,98,59,0
1,note_on,98,0,42
1,note_on,99,60,0
1,note_on,99,0,42
1,note_on,100,67,0
1,note_on,100,0,60
1,note_on,102,63,0
1,note_on,102,0,60
1,note_on,100,63,0
1,note_on,100,0,60
1,note_on,99,63,0
1,note_on,99,0,60
1,note_on,98,67,0
1,note_on,98,0,60
1,note_on,99,63,0
1,note_on,99,0,60
1,note_on,98,63,0
1,note_on,98,0,60
1,note_on,97,63,0
1,note_on,97,0,60
1,note_on,96,67,0
1,note_on,96,0,60
1,note_on,97,63,0
1,note_on,97,0,60
1,note_on,96,63,0
1,note_on,96,0,60
1,note_on,95,63,0
1,note_on,95,0,60
1,note_on,94,67,0
1,note_on,94,0,60
1,note_on,95,63,4
1,note_on,94,63,51
1,note_on,95,0,9
1,note_on,94,0,51
1,note_on,93,63,10
1,note_on,92,67,56
1,note_on,93,0,4
1,note_on,93,63,50
1,note_on,92,0,6
1,note_on,93,0,54
1,note_on,92,63,5
1,note_on,91,63,57
1,note_on,92,0,3
1,note_on,91,0,57
1,note_on,90,62,7
1,note_on,91,61,57
1,note_on,90,0,3
1,note_on,91,0,57
1,note_on,90,61,1
1,note_on,89,61,55
1,note_on,90,0,5
1,note_on,89,0,55
1,note_on,88,61,7
1,note_on,90,59,52
1,note_on,88,0,8
1,note_on,90,0,52
1,note_on,88,59,0
1,note_on,88,0,60
1,note_on,87,59,7
1,note_on,86,60,55
1,note_on,87,0,5
1,note_on,86,0,55
1,note_on,87,56,7
1,note_on,86,56,53
1,note_on,87,0,7
1,note_on,86,0,53
1,note_on,85,56,0
1,note_on,84,59,58
1,note_on,85,0,2
1,note_on,84,0,58
1,note_on,85,56,7
1,note_on,85,0,60
1,note_on,84,56,1
1,note_on,83,56,58
1,note_on,84,0,2
1,note_on,82,57,57
1,note_on,83,0,1
1,note_on,82,0,59
1,note_on,83,54,2
1,note_on,82,54,54
1,note_on,83,0,6
1,note_on,81,54,53
1,note_on,82,0,1
1,note_on,80,56,58
1,note_on,81,0,1
1,note_on,80,0,59
1,note_on,81,54,0
1,note_on,81,0,60
1,note_on,80,54,8
1,note_on,80,0,60
1,note_on,79,54,1
1,note_on,78,55,53
1,note_on,79,0,7
1,note_on,79,52,52
1,note_on,78,0,1
1,note_on,79,0,59
1,note_on,78,52,5
1,note_on,77,52,54
1,note_on,78,0,6
1,note_on,77,0,54
1,note_on,76,55,1
1,note_on,76,0,60
1,note_on,78,52,3
1,note_on,78,0,60
1,note_on,76,52,4
1,note_on,75,52,59
1,note_on,76,0,1
1,note_on,74,54,57
1,note_on,75,0,2
1,note_on,75,51,53
1,note_on,74,0,5
1,note_on,75,0,55
1,note_on,74,51,4
1,note_on,73,51,58
1,note_on,74,0,2
1,note_on,73,0,58
1,note_on,72,54,5
1,note_on,73,50,56
1,note_on,72,0,4
1,note_on,73,0,56
1,note_on,72,50,1
1,note_on,71,50,58
1,note_on,72,0,2
1,note_on,71,0,58
1,note_on,70,52,4
1,note_on,71,49,59
1,note_on,70,0,1
1,note_on,71,0,59
1,note_on,70,49,1
1,note_on,69,49,55
1,note_on,70,0,5
1,note_on,69,0,55
1,note_on,68,51,4
1,note_on,68,0,60
1,note_on,69,47,5
1,note_on,68,47,57
1,note_on,69,0,3
1,note_on,68,0,57
1,note_on,67,47,3
1,note_on,66,50,52
1,note_on,67,0,8
1,note_on,66,0,52
1,note_on,67,46,1
1,note_on,66,46,58
1,note_on,67,0,2
1,note_on,66,0,58
1,note_on,65,46,9
1,note_on,64,46,55
1,note_on,65,0,5
1,note_on,64,0,55
1,note_on,62,46,5
1,note_on,64,46,51
1,note_on,62,0,9
1,note_on,64,0,51
1,note_on,63,46,5
1,note_on,65,46,55
1,note_on,63,0,5
1,note_on,65,0,55
1,note_on,64,46,3
1,note_on,64,0,60
1,note_on,66,46,6
1,note_on,65,46,50
1,note_on,66,0,10
1,note_on,65,0,50
1,note_on,67,46,9
1,note_on,66,46,54
1,note_on,67,0,6
1,note_on,68,46,53
1,note_on,66,0,1
1,note_on,68,0,59
1,note_on,67,46,6
1,note_on,69,46,56
1,note_on,67,0,4
1,note_on,68,46,54
1,note_on,69,0,2
1,note_on,68,0,58
1,note_on,70,46,4
1,note_on,70,0,60
1,note_on,69,46,0
1,note_on,71,46,58
1,note_on,69,0,2
1,note_on,71,0,58
1,note_on,70,46,1
1,note_on,70,0,60
1,note_on,72,46,1
1,note_on,72,0,60
1,note_on,71,46,0
1,note_on,71,0,60
1,note_on,73,46,3
1,note_on,73,0,60
1,note_on,72,46,0
1,note_on,74,46,57
1,note_on,72,0,3
1,note_on,74,0,57
1,note_on,73,46,1
1,note_on,75,46,59
1,note_on,73,0,1
1,note_on,74,46,57
1,note_on,75,0,2
1,note_on,76,46,56
1,note_on,74,0,2
1,note_on,76,0,58
1,note_on,75,46,6
1,note_on,77,45,58
1,note_on,75,0,2
1,note_on,77,0,58
1,note_on,76,45,3
1,note_on,78,45,53
1,note_on,76,0,7
1,note_on,78,0,53
1,note_on,77,46,0
1,note_on,77,0,60
1,note_on,79,47,4
1,note_on,79,0,60
1,note_on,78,49,1
1,note_on,80,49,59
1,note_on,78,0,1
1,note_on,79,50,56
1,note_on,80,0,3
1,note_on,79,0,57
1,note_on,81,51,2
1,note_on,80,52,55
1,note_on,81,0,5
1,note_on,80,0,55
1,note_on,82,54,8
1,note_on,81,54,58
1,note_on,82,0,2
1,note_on,81,0,58
1,note_on,83,54,0
1,note_on,83,0,60
1,note_on,82,55,1
1,note_on,82,0,60
1,note_on,84,56,1
1,note_on,83,57,53
1,note_on,84,0,7
1,note_on,83,0,53
1,note_on,85,57,5
1,note_on,85,0,60
1,note_on,84,59,3
1,note_on,84,0,60
1,note_on,86,60,1
1,note_on,85,61,56
1,note_on,86,0,4
1,note_on,85,0,56
1,note_on,87,62,2
1,note_on,86,63,52
1,note_on,87,0,8
1,note_on,86,0,52
1,note_on,88,63,7
1,note_on,88,0,60
1,note_on,87,64,3
1,note_on,89,65,53
1,note_on,87,0,7
1,note_on,89,0,53
1,note_on,88,66,3
1,note_on,90,67,57
1,note_on,88,0,3
1,note_on,89,67,55
1,note_on,90,0,2
1,note_on,89,0,58
1,note_on,91,69,0
1,note_on,91,0,60
1,note_on,90,70,8
1,note_on,90,0,60
1,note_on,92,71,0
1,note_on,91,72,59
1,note_on,92,0,1
1,note_on,93,72,52
1,note_on,91,0,7
1,note_on,93,0,53
1,note_on,92,72,2
1,note_on,94,73,57
1,note_on,92,0,3
1,note_on,94,0,57
1,note_on,93,75,0
1,note_on,93,0,60
1,note_on,95,76,7
1,note_on,95,0,60
1,note_on,94,77,2
1,note_on,96,77,56
1,note_on,94,0,4
1,note_on,95,79,55
1,note_on,96,0,1
1,note_on,95,0,59
1,note_on,97,80,0
1,note_on,96,81,59
1,note_on,97,0,1
1,note_on,96,0,59
1,note_on,98,81,2
1,note_on,98,0,60
1,note_on,97,81,0
1,note_on,99,83,56
1,note_on,97,0,4
1,note_on,99,0,56
1,note_on,98,77,2
1,note_on,98,0,60
1,note_on,100,83,5
1,note_on,98,77,55
1,note_on,100,0,5
1,note_on,98,0,55
1,note_on,99,83,6
1,note_on,99,0,60
1,note_on,98,79,1
1,note_on,100,83,59
1,note_on,98,0,1
1,note_on,98,79,57
1,note_on,100,0,2
1,note_on,99,83,54
1,note_on,98,0,4
1,note_on,99,0,56
1,note_on,98,79,7
1,note_on,100,83,51
1,note_on,98,0,9
1,note_on,98,79,50
1,note_on,100,0,1
1,note_on,98,0,59
1,note_on,99,81,8
1,note_on,98,75,57
1,note_on,99,0,3
1,note_on,98,0,57
1,note_on,100,76,1
1,note_on,100,0,60
1,note_on,98,72,4
1,note_on,99,72,50
1,note_on,98,0,10
1,note_on,99,0,50
1,note_on,98,73,9
1,note_on,100,73,58
1,note_on,98,0,2
1,note_on,98,73,54
1,note_on,100,0,4
1,note_on,99,71,54
1,note_on,98,0,2
1,note_on,99,0,58
1,note_on,98,70,4
1,note_on,100,67,57
1,note_on,98,0,3
1,note_on,100,0,57
1,note_on,98,65,1
1,note_on,98,0,60
1,note_on,99,61,7
1,note_on,100,61,56
1,note_on,99,0,4
1,note_on,100,0,56
1,note_on,99,61,1
1,note_on,100,61,54
1,note_on,99,0,6
1,note_on,100,0,54
1,note_on,99,61,4
1,note_on,100,62,59
1,note_on,99,0,1
1,note_on,100,0,59
1,note_on,99,65,1
1,note_on,99,0,60
1,note_on,100,67,3
1,note_on,99,71,57
1,note_on,100,0,3
1,note_on,100,72,56
1,note_on,99,0,1
1,note_on,100,0,59
1,note_on,99,75,3
1,note_on,100,79,58
1,note_on,99,0,2
1,note_on,100,0,58
1,note_on,99,81,1
1,note_on,100,82,58
1,note_on,99,0,2
1,note_on,99,84,54
1,note_on,100,0,4
1,note_on,99,0,56
1,note_on,100,89,7
1,note_on,99,90,54
1,note_on,100,0,6
1,note_on,99,0,54
1,note_on,100,90,5
1,note_on,100,0,60
1,note_on,99,93,3
1,note_on,100,92,56
1,note_on,99,0,4
1,note_on,100,0,56
1,note_on,99,96,3
1,note_on,100,93,57
1,note_on,99,0,3
1,note_on,99,99,56
1,note_on,100,0,1
1,note_on,99,0,59
1,note_on,100,94,4
1,note_on,99,99,58
1,note_on,100,0,2
1,note_on,100,92,55
1,note_on,99,0,3
1,note_on,100,0,57
1,note_on,99,99,7
1,note_on,100,92,56
1,note_on,99,0,4
1,note_on,99,99,51
1,note_on,100,0,5
1,note_on,99,0,55
1,note_on,100,99,3
1,note_on,99,99,57
1,note_on,100,0,3
1,note_on,99,0,57
1,note_on,100,94,7
1,note_on,100,0,60
1,note_on,99,99,2
1,note_on,100,93,56
1,note_on,99,0,4
1,note_on,99,99,50
1,note_on,100,0,6
1,note_on,99,0,54
1,note_on,100,93,3
1,note_on,99,99,57
1,note_on,100,0,3
1,note_on,99,0,57
1,note_on,100,92,7
1,note_on,99,95,54
1,note_on,100,0,6
1,note_on,99,0,54
1,note_on,100,92,8
1,note_on,100,0,60
1,note_on,99,90,0
1,note_on,100,86,57
1,note_on,99,0,3
1,note_on,100,0,57
1,note_on,99,82,1
1,note_on,99,0,60
1,note_on,100,79,2
1,note_on,99,75,51
1,note_on,100,0,9
1,note_on,99,0,51
1,note_on,100,72,1
1,note_on,100,0,60
1,note_on,99,69,6
1,note_on,100,65,59
1,note_on,99,0,1
1,note_on,99,59,55
1,note_on,100,0,4
1,note_on,100,54,54
1,note_on,99,0,2
1,note_on,100,0,58
1,note_on,99,57,1
1,note_on,99,0,60
1,note_on,100,56,5
1,note_on,99,56,57
1,note_on,100,0,3
1,note_on,99,0,57
1,note_on,100,53,0
1,note_on,100,0,60
1,note_on,99,55,1
1,note_on,99,0,60
1,note_on,100,52,3
1,note_on,100,0,60
1,note_on,99,47,1
1,note_on,99,0,60
1,note_on,100,44,0
1,note_on,99,46,57
1,note_on,100,0,3
1,note_on,99,0,57
1,note_on,100,44,1
1,note_on,100,0,60
1,note_on,99,46,2
1,note_on,99,0,60
1,note_on,100,45,1
1,note_on,99,46,52
1,note_on,100,0,8
1,note_on,99,0,52
1,note_on,100,43,5
1,note_on,99,46,56
1,note_on,87,57,3
1,note_on,100,0,1
1,note_on,100,44,55
1,note_on,99,0,1
1,note_on,100,0,59
1,note_on,99,46,8
1,note_on,100,45,51
1,note_on,99,0,9
1,note_on,100,0,51
1,note_on,87,46,4
1,note_on,87,0,1
1,note_on,99,46,1
1,note_on,100,46,57
1,note_on,99,0,3
1,note_on,100,0,57
1,note_on,87,0,1
1,note_on,99,46,2
1,note_on,100,44,56
1,note_on,99,0,4
1,note_on,99,46,55
1,note_on,100,0,1
1,note_on,87,29,1
1,note_on,99,0,58
1,note_on,100,44,7
1,note_on,99,46,53
1,note_on,87,0,2
1,note_on,100,0,5
1,note_on,99,0,53
1,note_on,100,44,2
1,note_on,100,0,60
1,note_on,87,29,5
1,note_on,99,46,1
1,note_on,100,44,59
1,note_on,99,0,1
1,note_on,100,0,59
1,note_on,87,0,0
1,note_on,99,46,0
1,note_on,100,46,58
1,note_on,99,0,2
1,note_on,87,29,55
1,note_on,100,0,3
1,note_on,99,46,3
1,note_on,100,44,53
1,note_on,99,0,7
1,note_on,100,0,53
1,note_on,87,0,1
1,note_on,99,46,6
1,note_on,100,45,53
1,note_on,99,0,7
1,note_on,100,0,53
1,note_on,87,29,0
1,note_on,99,46,3
1,note_on,99,0,60
1,note_on,100,44,5
1,note_on,99,46,50
1,note_on,87,0,2
1,note_on,100,0,8
1,note_on,99,0,50
1,note_on,100,45,0
1,note_on,100,0,60
1,note_on,99,46,4
1,note_on,87,29,1
1,note_on,100,44,56
1,note_on,99,0,3
1,note_on,100,0,57
1,note_on,99,46,1
1,note_on,87,0,3
1,note_on,99,0,57
1,note_on,100,44,7
1,note_on,99,46,52
1,note_on,87,29,1
1,note_on,100,0,7
1,note_on,99,0,52
1,note_on,100,44,0
1,note_on,100,0,60
1,note_on,87,0,1
1,note_on,99,47,8
1,note_on,100,44,50
1,note_on,99,0,10
1,note_on,100,0,50
1,note_on,99,47,0
1,note_on,87,30,0
1,note_on,99,0,60
1,note_on,100,43,3
1,note_on,87,0,57
1,note_on,100,0,3
1,note_on,99,47,7
1,note_on,100,44,54
1,note_on,99,0,6
1,note_on,100,0,54
1,note_on,87,30,0
1,note_on,99,47,6
1,note_on,100,45,59
1,note_on,99,0,1
1,note_on,87,0,54
1,note_on,99,47,1
1,note_on,100,0,4
1,note_on,99,0,56
1,note_on,100,43,4
1,note_on,99,47,55
1,note_on,87,29,3
1,note_on,100,0,2
1,note_on,100,45,53
1,note_on,99,0,2
1,note_on,99,47,56
1,note_on,100,0,2
1,note_on,87,0,5
1,note_on,99,0,53
1,note_on,100,45,5
1,note_on,99,47,59
1,note_on,100,0,1
1,note_on,87,29,5
1,note_on,100,47,52
1,note_on,99,0,2
1,note_on,100,0,58
1,note_on,99,47,4
1,note_on,87,0,4
1,note_on,100,45,52
1,note_on,99,0,4
1,note_on,100,0,56
1,note_on,87,29,5
1,note_on,99,46,3
1,note_on,100,44,54
1,note_on,99,0,6
1,note_on,100,0,54
1,note_on,87,0,3
1,note_on,99,46,2
1,note_on,100,44,51
1,note_on,99,0,9
1,note_on,100,0,51
1,note_on,99,46,6
1,note_on,87,29,4
1,note_on,99,0,56
1,note_on,100,43,2
1,note_on,99,46,58
1,note_on,100,0,2
1,note_on,87,0,2
1,note_on,100,45,51
1,note_on,99,0,5
1,note_on,100,0,55
1,note_on,87,29,1
1,note_on,99,46,2
1,note_on,100,44,56
1,note_on,99,0,4
1,note_on,100,0,56
1,note_on,87,0,2
1,note_on,99,46,2
1,note_on,100,43,56
1,note_on,99,0,4
1,note_on,100,0,56
1,note_on,87,29,7
1,note_on,99,45,2
1,note_on,100,43,51
1,note_on,99,0,9
1,note_on,100,0,51
1,note_on,87,0,7
1,note_on,99,45,1
1,note_on,100,43,59
1,note_on,99,0,1
1,note_on,100,0,59
1,note_on,87,27,0
1,note_on,99,45,1
1,note_on,100,42,57
1,note_on,99,0,3
1,note_on,100,0,57
1,note_on,87,0,2
1,note_on,99,45,0
1,note_on,100,41,54
1,note_on,99,0,6
1,note_on,100,0,54
1,note_on,87,27,6
1,note_on,99,44,1
1,note_on,99,0,60
1,note_on,100,40,0
1,note_on,99,44,52
1,note_on,87,0,7
1,note_on,100,0,1
1,note_on,99,0,52
1,note_on,100,41,9
1,note_on,87,27,58
1,note_on,99,44,0
1,note_on,100,0,2
1,note_on,100,40,51
1,note_on,99,0,7
1,note_on,100,0,53
1,note_on,99,43,6
1,note_on,87,0,1
1,note_on,99,0,59
1,note_on,100,39,4
1,note_on,87,27,50
1,note_on,99,43,3
1,note_on,100,0,7
1,note_on,100,39,51
1,note_on,99,0,2
1,note_on,87,0,57
1,note_on,100,0,1
1,note_on,99,41,9
1,note_on,100,36,56
1,note_on,99,0,4
1,note_on,87,25,53
1,note_on,100,0,3
1,note_on,99,44,4
1,note_on,100,40,54
1,note_on,99,0,6
1,note_on,87,0,53
1,note_on,100,0,1
1,note_on,99,45,3
1,note_on,100,40,55
1,note_on,99,0,5
1,note_on,87,25,54
1,note_on,100,0,1
1,note_on,99,45,0
1,note_on,99,0,60
1,note_on,100,42,3
1,note_on,87,0,56
1,note_on,100,0,4
1,note_on,99,45,4
1,note_on,100,41,52
1,note_on,99,0,8
1,note_on,100,0,52
1,note_on,99,46,3
1,note_on,87,25,5
1,note_on,100,43,51
1,note_on,99,0,4
1,note_on,100,0,56
1,note_on,99,46,8
1,note_on,87,0,1
1,note_on,100,44,52
1,note_on,99,0,7
1,note_on,100,0,53
1,note_on,99,46,7
1,note_on,87,29,2
1,note_on,99,0,58
1,note_on,100,43,1
1,note_on,99,46,53
1,note_on,100,0,7
1,note_on,87,0,1
1,note_on,99,0,52
1,note_on,100,43,3
1,note_on,87,29,55
1,note_on,100,0,5
1,note_on,99,46,3
1,note_on,100,43,53
1,note_on,99,0,7
1,note_on,87,0,52
1,note_on,100,0,1
1,note_on,99,46,3
1,note_on,100,43,59
1,note_on,99,0,1
1,note_on,99,46,56
1,note_on,100,0,3
1,note_on,87,29,7
1,note_on,99,0,50
1,note_on,100,43,2
1,note_on,100,0,60
1,note_on,99,46,0
1,note_on,87,0,8
1,note_on,99,0,52
1,note_on,100,43,0
1,note_on,100,0,60
1,note_on,99,44,3
1,note_on,99,0,60
1,note_on,100,49,0
1,note_on,100,0,60
1,note_on,99,49,0
1,note_on,99,0,60
1,note_on,87,49,0
1,note_on,87,0,54
1,note_on,87,40,6
1,note_on,87,0,60
1,note_on,88,40,0
1,note_on,88,0,60
1,note_on,87,40,0
1,note_on,87,0,60
1,note_on,75,40,0
1,note_on,75,0,60
1,note_on,87,40,0
1,note_on,87,0,80
1,note_on,88,40,0
1,note_on,88,0,80
1,note_on,87,40,0
1,note_on,87,0,80
1,note_on,99,47,0
1,note_on,99,0,60
1,note_on,100,47,0
1,note_on,100,0,60
1,note_on,99,47,0
1,note_on,99,0,60
1,note_on,87,47,0
1,note_on,87,0,54
1,note_on,87,41,6
1,note_on,87,0,60
1,note_on,88,40,0
1,note_on,88,0,60
1,note_on,87,40,0
1,note_on,87,0,60
1,note_on,75,40,0
1,note_on,75,0,60
1,note_on,87,40,0
1,note_on,87,0,80
1,note_on,88,40,0
1,note_on,88,0,80
1,note_on,87,40,0
1,note_on,87,0,80
1,note_on,99,49,0
1,note_on,99,0,60
1,note_on,100,49,0
1,note_on,100,0,60
1,note_on,99,49,0
1,note_on,99,0,60
1,note_on,87,49,0
1,note_on,87,0,54
1,note_on,87,40,6
1,note_on,87,0,60
1,note_on,88,40,0
1,note_on,88,0,60
1,note_on,87,40,0
1,note_on,87,0,60
1,note_on,75,40,0
1,note_on,75,0,60
1,note_on,87,40,0
1,note_on,87,0,80
1,note_on,88,40,0
1,note_on,88,0,80
1,note_on,87,40,0
1,note_on,87,0,80
1,note_on,99,47,0
1,note_on,99,0,60
1,note_on,100,47,0
1,note_on,100,0,60
1,note_on,99,47,0
1,note_on,99,0,60
1,note_on,87,47,0
1,note_on,87,0,54
1,note_on,87,41,6
1,note_on,87,0,60
1,note_on,88,41,0
1,note_on,88,0,60
1,note_on,87,41,0
1,note_on,87,0,60
1,note_on,75,41,0
1,note_on,75,0,60
1,note_on,87,41,0
1,note_on,87,0,80
1,note_on,88,41,0
1,note_on,88,0,80
1,note_on,87,41,0
1,note_on,87,0,80
1,note_on,99,45,0
1,note_on,99,0,60
1,note_on,100,45,0
1,note_on,100,0,60
1,note_on,99,45,0
1,note_on,99,0,60
1,note_on,87,45,0
1,note_on,87,0,60
1,note_on,80,45,0
1,note_on,71,45,0
1,note_on,71,0,120
1,note_on,80,0,0
1,note_on,75,41,0
1,note_on,83,41,0
1,note_on,83,0,120
1,note_on,75,0,0
1,note_on,87,46,0
1,note_on,80,46,0
1,note_on,80,0,180
1,note_on,87,0,0
1,note_on,99,45,60
1,note_on,99,0,60
1,note_on,100,44,0
1,note_on,100,0,60
1,note_on,99,44,0
1,note_on,99,0,60
1,note_on,87,44,0
1,note_on,87,0,60
1,note_on,79,40,0
1,note_on,70,40,0
1,note_on,70,0,120
1,note_on,79,0,0
1,note_on,73,36,0
1,note_on,82,36,0
1,note_on,82,0,120
1,note_on,73,0,0
1,note_on,87,40,0
1,note_on,79,40,0
1,note_on,79,0,180
1,note_on,87,0,0
1,note_on,75,54,540
1,note_on,87,43,60
1,note_on,87,0,60
1,note_on,88,43,0
1,note_on,88,0,60
1,note_on,87,43,0
1,note_on,87,0,60
1,note_on,75,0,0
1,note_on,87,60,0
1,note_on,99,46,60
1,note_on,99,0,60
1,note_on,87,0,0
1,note_on,100,46,0
1,note_on,100,0,60
1,note_on,99,46,0
1,note_on,99,0,60
1,note_on,87,60,0
1,note_on,99,44,60
1,note_on,99,0,60
1,note_on,87,0,0
1,note_on,100,44,0
1,note_on,100,0,60
1,note_on,99,44,0
1,note_on,99,0,60
1,note_on,85,55,0
1,note_on,97,44,60
1,note_on,97,0,60
1,note_on,85,0,0
1,note_on,99,44,0
1,note_on,99,0,60
1,note_on,97,45,0
1,note_on,97,0,60
1,note_on,83,59,0
1,note_on,95,45,60
1,note_on,95,0,60
1,note_on,83,0,0
1,note_on,97,45,0
1,note_on,97,0,60
1,note_on,95,46,0
1,note_on,95,0,60
1,note_on,83,54,0
1,note_on,95,40,60
1,note_on,95,0,60
1,note_on,83,0,0
1,note_on,97,41,0
1,note_on,97,0,60
1,note_on,95,41,0
1,note_on,95,0,60
1,note_on,82,55,0
1,note_on,94,40,60
1,note_on,94,0,60
1,note_on,82,0,0
1,note_on,95,40,0
1,note_on,95,0,60
1,note_on,94,41,0
1,note_on,94,0,60
1,note_on,80,59,0
1,note_on,92,41,60
1,note_on,92,0,60
1,note_on,80,0,0
1,note_on,94,41,0
1,note_on,94,0,60
1,note_on,92,41,0
1,note_on,92,0,60
1,note_on,79,59,0
1,note_on,91,41,60
1,note_on,91,0,60
1,note_on,79,0,0
1,note_on,92,41,0
1,note_on,92,0,60
1,note_on,91,41,0
1,note_on,91,0,60
1,note_on,80,63,0
1,note_on,92,43,60
1,note_on,92,0,60
1,note_on,80,0,0
1,note_on,94,43,0
1,note_on,94,0,60
1,note_on,92,44,0
1,note_on,92,0,60
1,note_on,82,67,0
1,note_on,94,51,60
1,note_on,94,0,60
1,note_on,95,51,0
1,note_on,95,0,60
1,note_on,94,51,0
1,note_on,94,0,60
1,note_on,82,0,0
1,note_on,75,59,0
1,note_on,87,44,60
1,note_on,87,0,60
1,note_on,88,44,0
1,note_on,88,0,60
1,note_on,75,0,0
1,note_on,87,44,0
1,note_on,87,0,60
1,note_on,75,59,0
1,note_on,87,44,60
1,note_on,87,0,60
1,note_on,88,44,0
1,note_on,88,0,60
1,note_on,87,45,0
1,note_on,87,0,60
1,note_on,75,0,0
1,note_on,76,62,0
1,note_on,88,45,60
1,note_on,88,0,60
1,note_on,90,45,0
1,note_on,90,0,60
1,note_on,76,0,0
1,note_on,88,45,0
1,note_on,88,0,60
1,note_on,75,56,0
1,note_on,87,43,60
1,note_on,87,0,60
1,note_on,88,43,0
1,note_on,88,0,60
1,note_on,75,0,0
1,note_on,87,43,0
1,note_on,87,0,60
1,note_on,73,56,0
1,note_on,85,43,60
1,note_on,85,0,60
1,note_on,87,43,0
1,note_on,87,0,60
1,note_on,73,0,0
1,note_on,85,43,0
1,note_on,85,0,60
1,note_on,71,60,0
1,note_on,83,43,60
1,note_on,83,0,60
1,note_on,85,43,0
1,note_on,85,0,60
1,note_on,83,43,0
1,note_on,71,0,30
1,note_on,83,0,30
1,note_on,71,54,0
1,note_on,83,39,60
1,note_on,83,0,60
1,note_on,85,39,0
1,note_on,85,0,60
1,note_on,71,0,0
1,note_on,83,39,0
1,note_on,83,0,60
1,note_on,70,54,0
1,note_on,82,41,60
1,note_on,82,0,60
1,note_on,83,41,0
1,note_on,83,0,60
1,note_on,70,0,0
1,note_on,82,43,0
1,note_on,82,0,60
1,note_on,68,60,0
1,note_on,80,45,60
1,note_on,80,0,60
1,note_on,82,46,0
1,note_on,82,0,60
1,note_on,68,0,0
1,note_on,80,46,0
1,note_on,80,0,60
1,note_on,67,54,0
1,note_on,79,43,60
1,note_on,79,0,60
1,note_on,80,43,0
1,note_on,80,0,60
1,note_on,67,0,0
1,note_on,79,43,0
1,note_on,79,0,60
1,note_on,68,52,0
1,note_on,80,41,60
1,note_on,80,0,60
1,note_on,82,41,0
1,note_on,82,0,60
1,note_on,68,0,0
1,note_on,80,41,0
1,note_on,80,0,60
1,note_on,70,54,0
1,note_on,82,43,60
1,note_on,82,0,60
1,note_on,83,43,0
1,note_on,83,0,60
1,note_on,82,43,0
1,note_on,82,0,60
1,note_on,70,0,0
1,note_on,63,49,0
1,note_on,75,37,60
1,note_on,75,0,60
1,note_on,63,0,0
1,note_on,76,37,0
1,note_on,76,0,60
1,note_on,75,37,0
1,note_on,75,0,60
1,note_on,75,59,0
1,note_on,87,43,60
1,note_on,87,0,60
1,note_on,88,43,0
1,note_on,88,0,60
1,note_on,87,43,0
1,note_on,87,0,60
1,note_on,75,0,0
1,note_on,87,64,0
1,note_on,99,52,60
1,note_on,99,0,60
1,note_on,100,52,0
1,note_on,100,0,60
1,note_on,87,0,0
1,note_on,99,52,0
1,note_on,99,0,60
1,note_on,87,63,0
1,note_on,99,49,60
1,note_on,99,0,60
1,note_on,100,49,0
1,note_on,100,0,60
1,note_on,87,0,0
1,note_on,99,49,0
1,note_on,99,0,60
1,note_on,85,63,0
1,note_on,97,49,60
1,note_on,97,0,60
1,note_on,99,49,0
1,note_on,99,0,60
1,note_on,85,0,0
1,note_on,97,49,0
1,note_on,97,0,60
1,note_on,84,62,0
1,note_on,96,50,60
1,note_on,96,0,60
1,note_on,97,50,0
1,note_on,97,0,60
1,note_on,84,0,0
1,note_on,96,50,0
1,note_on,96,0,60
1,note_on,84,60,0
1,note_on,96,47,60
1,note_on,96,0,60
1,note_on,97,47,0
1,note_on,97,0,60
1,note_on,84,0,0
1,note_on,96,47,0
1,note_on,96,0,60
1,note_on,81,59,0
1,note_on,93,46,60
1,note_on,93,0,60
1,note_on,95,46,0
1,note_on,95,0,60
1,note_on,81,0,0
1,note_on,93,46,0
1,note_on,93,0,60
1,note_on,80,62,0
1,note_on,92,46,60
1,note_on,92,0,60
1,note_on,93,46,0
1,note_on,93,0,60
1,note_on,80,0,0
1,note_on,92,46,0
1,note_on,92,0,60
1,note_on,80,59,0
1,note_on,92,45,60
1,note_on,92,0,60
1,note_on,93,45,0
1,note_on,93,0,60
1,note_on,80,0,0
1,note_on,92,45,0
1,note_on,92,0,60
1,note_on,78,57,0
1,note_on,90,41,60
1,note_on,90,0,60
1,note_on,92,41,0
1,note_on,92,0,60
1,note_on,78,0,0
1,note_on,90,41,0
1,note_on,90,0,60
1,note_on,76,55,0
1,note_on,88,44,60
1,note_on,88,0,60
1,note_on,90,44,0
1,note_on,90,0,60
1,note_on,88,44,0
1,note_on,88,0,60
1,note_on,76,0,0
1,note_on,73,51,0
1,note_on,85,40,60
1,note_on,85,0,60
1,note_on,87,40,0
1,note_on,87,0,60
1,note_on,85,40,0
1,note_on,85,0,60
1,note_on,73,0,0
1,note_on,75,54,0
1,note_on,87,41,60
1,note_on,87,0,60
1,note_on,88,41,0
1,note_on,88,0,60
1,note_on,87,41,0
1,note_on,87,0,60
1,note_on,75,0,0
1,note_on,76,55,0
1,note_on,88,45,60
1,note_on,88,0,60
1,note_on,90,45,0
1,note_on,90,0,60
1,note_on,88,45,0
1,note_on,88,0,60
1,note_on,76,0,0
1,note_on,75,52,0
1,note_on,87,40,60
1,note_on,87,0,60
1,note_on,88,40,0
1,note_on,88,0,60
1,note_on,87,40,0
1,note_on,87,0,60
1,note_on,75,0,0
1,note_on,73,49,0
1,note_on,85,37,60
1,note_on,85,0,60
1,note_on,87,37,0
1,note_on,87,0,60
1,note_on,85,37,0
1,note_on,75,43,56
1,note_on,85,0,4
1,note_on,73,0,0
1,note_on,75,0,56
1,note_on,87,43,5
1,note_on,87,0,60
1,note_on,76,44,3
1,note_on,76,0,60
1,note_on,77,44,1
1,note_on,78,45,52
1,note_on,77,0,8
1,note_on,78,0,52
1,note_on,79,45,6
1,note_on,80,45,59
1,note_on,79,0,1
1,note_on,80,0,59
1,note_on,81,45,0
1,note_on,81,0,60
1,note_on,82,46,3
1,note_on,83,47,55
1,note_on,82,0,5
1,note_on,83,0,55
1,note_on,84,47,5
1,note_on,85,49,57
1,note_on,84,0,3
1,note_on,86,49,51
1,note_on,85,0,6
1,note_on,86,0,54
1,note_on,87,50,5
1,note_on,87,0,60
1,note_on,88,50,0
1,note_on,89,51,58
1,note_on,88,0,2
1,note_on,89,0,58
1,note_on,90,52,6
1,note_on,91,52,55
1,note_on,90,0,5
1,note_on,91,0,55
1,note_on,92,54,1
1,note_on,93,54,59
1,note_on,92,0,1
1,note_on,94,54,56
1,note_on,93,0,3
1,note_on,94,0,57
1,note_on,95,54,2
1,note_on,96,55,59
1,note_on,95,0,1
1,note_on,97,56,56
1,note_on,96,0,3
1,note_on,97,0,57
1,note_on,98,57,8
1,note_on,99,59,64
1,note_on,98,0,6
1,note_on,102,63,62
1,note_on,99,0,2
1,note_on,102,0,63
1,note_on,100,62,4
1,note_on,100,0,65
1,note_on,97,61,2
1,note_on,94,60,59
1,note_on,97,0,6
1,note_on,94,0,59
1,note_on,91,57,2
1,note_on,86,56,64
1,note_on,91,0,1
1,note_on,86,0,64
1,note_on,87,55,6
1,note_on,90,61,62
1,note_on,87,0,3
1,note_on,90,0,62
1,note_on,88,60,2
1,note_on,88,0,65
1,note_on,85,59,1
1,note_on,82,57,62
1,note_on,85,0,3
1,note_on,82,0,62
1,note_on,79,60,3
1,note_on,76,55,62
1,note_on,79,0,3
1,note_on,76,0,62
1,note_on,73,54,5
1,note_on,70,51,62
1,note_on,73,0,3
1,note_on,67,49,58
1,note_on,70,0,4
1,note_on,67,0,61
1,note_on,64,47,8
1,note_on,61,45,64
1,note_on,64,0,1
1,note_on,58,44,59
1,note_on,61,0,5
1,note_on,58,0,60
1,note_on,55,41,6
1,note_on,55,0,65
1,note_on,59,41,235
1,note_on,59,0,80
1,note_on,63,41,0
1,note_on,63,0,80
1,note_on,68,41,0
1,note_on,68,0,80
1,note_on,71,41,240
1,note_on,71,0,80
1,note_on,75,41,0
1,note_on,75,0,80
1,note_on,83,45,0
1,note_on,83,0,80
1,note_on,80,40,0
1,note_on,80,0,240
1,note_on,83,37,120
1,note_on,71,37,0
1,note_on,71,0,90
1,note_on,83,0,0
1,note_on,83,41,30
1,note_on,71,41,0
1,note_on,71,0,90
1,note_on,83,0,0
1,note_on,83,45,30
1,note_on,71,45,0
1,note_on,71,0,90
1,note_on,83,0,0
1,note_on,71,47,30
1,note_on,83,47,0
1,note_on,83,0,90
1,note_on,71,0,0
1,note_on,83,51,30
1,note_on,71,51,0
1,note_on,71,0,90
1,note_on,83,0,0
1,note_on,83,66,30
1,note_on,83,0,90
1,note_on,66,49,30
1,note_on,66,0,90
1,note_on,71,50,30
1,note_on,78,60,0
1,note_on,78,0,90
1,note_on,71,0,0
1,note_on,66,49,30
1,note_on,66,0,90
1,note_on,83,64,30
1,note_on,83,0,90
1,note_on,66,49,30
1,note_on,66,0,90
1,note_on,85,71,30
1,note_on,85,0,90
1,note_on,66,49,30
1,note_on,66,0,90
1,note_on,73,54,30
1,note_on,78,64,0
1,note_on,78,0,90
1,note_on,73,0,0
1,note_on,66,49,30
1,note_on,66,0,90
1,note_on,85,70,30
1,note_on,85,0,90
1,note_on,66,50,30
1,note_on,66,0,90
1,note_on,87,73,30
1,note_on,87,0,120
1,note_on,66,60,0
1,note_on,66,0,90
1,note_on,75,60,30
1,note_on,75,0,90
1,note_on,83,59,30
1,note_on,83,0,90
1,note_on,87,57,30
1,note_on,87,0,90
1,note_on,95,62,30
1,note_on,95,0,90
1,note_on,87,37,150
1,note_on,75,37,0
1,note_on,75,0,90
1,note_on,87,0,0
1,note_on,87,41,30
1,note_on,75,41,0
1,note_on,75,0,90
1,note_on,87,0,0
1,note_on,87,45,30
1,note_on,75,45,0
1,note_on,75,0,90
1,note_on,87,0,0
1,note_on,87,47,30
1,note_on,75,47,0
1,note_on,75,0,90
1,note_on,87,0,0
1,note_on,87,51,30
1,note_on,75,51,0
1,note_on,75,0,90
1,note_on,87,0,0
1,note_on,87,70,30
1,note_on,87,0,90
1,note_on,70,49,30
1,note_on,70,0,90
1,note_on,75,50,30
1,note_on,82,60,0
1,note_on,82,0,90
1,note_on,75,0,0
1,note_on,70,49,30
1,note_on,70,0,90
1,note_on,87,70,30
1,note_on,87,0,90
1,note_on,70,49,30
1,note_on,70,0,90
1,note_on,89,76,30
1,note_on,89,0,90
1,note_on,70,49,30
1,note_on,70,0,90
1,note_on,77,54,30
1,note_on,82,64,0
1,note_on,82,0,90
1,note_on,77,0,0
1,note_on,70,49,30
1,note_on,70,0,90
1,note_on,89,72,30
1,note_on,89,0,90
1,note_on,70,50,30
1,note_on,70,0,90
1,note_on,90,79,30
1,note_on,90,0,120
1,note_on,70,60,0
1,note_on,70,0,90
1,note_on,78,60,30
1,note_on,78,0,90
1,note_on,87,59,30
1,note_on,87,0,90
1,note_on,90,59,30
1,note_on,90,0,90
1,note_on,99,62,30
1,note_on,99,0,90
1,note_on,90,37,150
1,note_on,78,37,0
1,note_on,78,0,90
1,note_on,90,0,0
1,note_on,90,41,30
1,note_on,78,41,0
1,note_on,78,0,90
1,note_on,90,0,0
1,note_on,90,45,30
1,note_on,78,45,0
1,note_on,78,0,90
1,note_on,90,0,0
1,note_on,90,47,30
1,note_on,78,47,0
1,note_on,78,0,90
1,note_on,90,0,0
1,note_on,90,51,30
1,note_on,78,51,0
1,note_on,78,0,90
1,note_on,90,0,0
1,note_on,90,70,30
1,note_on,90,0,90
1,note_on,73,49,30
1,note_on,73,0,90
1,note_on,78,50,30
1,note_on,85,60,0
1,note_on,85,0,90
1,note_on,78,0,0
1,note_on,73,49,30
1,note_on,73,0,90
1,note_on,90,70,30
1,note_on,90,0,90
1,note_on,73,49,30
1,note_on,73,0,90
1,note_on,92,76,30
1,note_on,92,0,90
1,note_on,73,49,30
1,note_on,73,0,90
1,note_on,80,54,30
1,note_on,85,64,0
1,note_on,85,0,90
1,note_on,80,0,0
1,note_on,73,49,30
1,note_on,73,0,90
1,note_on,92,72,30
1,note_on,92,0,90
1,note_on,73,50,30
1,note_on,73,0,90
1,note_on,94,44,30
1,note_on,90,44,0
1,note_on,85,44,0
1,note_on,85,0,90
1,note_on,90,0,0
1,note_on,94,0,0
1,note_on,95,47,30
1,note_on,92,47,0
1,note_on,85,47,0
1,note_on,85,0,90
1,note_on,92,0,0
1,note_on,95,0,0
1,note_on,97,52,30
1,note_on,94,52,0
1,note_on,85,52,0
1,note_on,85,0,90
1,note_on,94,0,0
1,note_on,97,0,0
1,note_on,97,52,30
1,note_on,94,52,0
1,note_on,85,52,0
1,note_on,85,0,90
1,note_on,94,0,0
1,note_on,97,0,0
1,note_on,95,50,30
1,note_on,92,50,0
1,note_on,85,50,0
1,note_on,85,0,90
1,note_on,92,0,0
1,note_on,95,0,0
1,note_on,94,47,30
1,note_on,90,47,0
1,note_on,85,47,0
1,note_on,85,0,90
1,note_on,90,0,0
1,note_on,94,0,0
1,note_on,92,46,30
1,note_on,87,46,0
1,note_on,83,46,0
1,note_on,83,0,90
1,note_on,87,0,0
1,note_on,92,0,0
1,note_on,94,50,30
1,note_on,87,50,0
1,note_on,85,50,0
1,note_on,85,0,90
1,note_on,87,0,0
1,note_on,94,0,0
1,note_on,87,54,30
1,note_on,95,54,0
1,note_on,95,0,90
1,note_on,87,0,0
1,note_on,95,54,30
1,note_on,87,54,0
1,note_on,87,0,90
1,note_on,95,0,0
1,note_on,94,47,30
1,note_on,87,47,0
1,note_on,85,47,0
1,note_on,85,0,90
1,note_on,87,0,0
1,note_on,94,0,0
1,note_on,92,45,30
1,note_on,87,45,0
1,note_on,83,45,0
1,note_on,83,0,90
1,note_on,87,0,0
1,note_on,92,0,0
1,note_on,90,45,30
1,note_on,85,45,0
1,note_on,82,45,0
1,note_on,82,0,90
1,note_on,85,0,0
1,note_on,90,0,0
1,note_on,83,47,30
1,note_on,85,47,0
1,note_on,92,47,0
1,note_on,92,0,90
1,note_on,85,0,0
1,note_on,83,0,0
1,note_on,94,52,30
1,note_on,85,52,0
1,note_on,85,0,90
1,note_on,94,0,0
1,note_on,85,52,30
1,note_on,94,52,0
1,note_on,94,0,90
1,note_on,85,0,0
1,note_on,85,49,30
1,note_on,83,49,0
1,note_on,92,49,0
1,note_on,92,0,90
1,note_on,83,0,0
1,note_on,85,0,0
1,note_on,90,46,30
1,note_on,85,46,0
1,note_on,82,46,0
1,note_on,82,0,90
1,note_on,85,0,0
1,note_on,90,0,0
1,note_on,80,45,30
1,note_on,85,45,0
1,note_on,89,45,0
1,note_on,89,0,90
1,note_on,85,0,0
1,note_on,80,0,0
1,note_on,90,46,30
1,note_on,85,46,0
1,note_on,82,46,0
1,note_on,82,0,90
1,note_on,85,0,0
1,note_on,90,0,0
1,note_on,83,50,30
1,note_on,85,50,0
1,note_on,92,50,0
1,note_on,92,0,90
1,note_on,85,0,0
1,note_on,83,0,0
1,note_on,83,50,30
1,note_on,85,50,0
1,note_on,92,50,0
1,note_on,92,0,90
1,note_on,85,0,0
1,note_on,83,0,0
1,note_on,78,47,30
1,note_on,87,47,0
1,note_on,85,47,0
1,note_on,85,0,90
1,note_on,87,0,0
1,note_on,78,0,0
1,note_on,89,45,30
1,note_on,85,45,0
1,note_on,80,45,0
1,note_on,80,0,90
1,note_on,85,0,0
1,note_on,89,0,0
1,note_on,90,50,30
1,note_on,85,50,0
1,note_on,78,50,0
1,note_on,78,0,240
1,note_on,85,0,0
1,note_on,90,0,0
1,note_on,56,64,720
1,note_on,68,64,0
1,note_on,68,0,90
1,note_on,56,0,0
1,note_on,56,64,30
1,note_on,68,64,0
1,note_on,68,0,90
1,note_on,56,0,0
1,note_on,80,71,270
1,note_on,92,71,0
1,note_on,92,0,240
1,note_on,80,0,0
1,note_on,90,45,0
1,note_on,102,45,0
1,note_on,102,0,90
1,note_on,90,0,0
1,note_on,102,45,30
1,note_on,90,45,0
1,note_on,90,0,90
1,note_on,102,0,0
1,note_on,88,45,30
1,note_on,100,45,0
1,note_on,100,0,90
1,note_on,88,0,0
1,note_on,100,45,30
1,note_on,88,45,0
1,note_on,88,0,90
1,note_on,100,0,0
1,note_on,99,45,30
1,note_on,87,45,0
1,note_on,87,0,90
1,note_on,99,0,0
1,note_on,87,45,30
1,note_on,99,45,0
1,note_on,99,0,90
1,note_on,87,0,0
1,note_on,85,45,30
1,note_on,97,45,0
1,note_on,97,0,90
1,note_on,85,0,0
1,note_on,97,45,30
1,note_on,85,45,0
1,note_on,85,0,90
1,note_on,97,0,0
1,note_on,99,45,30
1,note_on,87,45,0
1,note_on,87,0,90
1,note_on,99,0,0
1,note_on,99,45,30
1,note_on,87,45,0
1,note_on,87,0,90
1,note_on,99,0,0
1,note_on,100,47,30
1,note_on,88,47,0
1,note_on,88,0,240
1,note_on,100,0,0
1,note_on,54,64,720
1,note_on,66,64,0
1,note_on,66,0,90
1,note_on,54,0,0
1,note_on,54,64,30
1,note_on,66,64,0
1,note_on,66,0,90
1,note_on,54,0,0
1,note_on,78,71,270
1,note_on,90,71,0
1,note_on,90,0,240
1,note_on,78,0,0
1,note_on,88,45,0
1,note_on,100,45,0
1,note_on,100,0,90
1,note_on,88,0,0
1,note_on,100,45,30
1,note_on,88,45,0
1,note_on,88,0,90
1,note_on,100,0,0
1,note_on,87,45,30
1,note_on,99,45,0
1,note_on,99,0,90
1,note_on,87,0,0
1,note_on,99,45,30
1,note_on,87,45,0
1,note_on,87,0,90
1,note_on,99,0,0
1,note_on,97,45,30
1,note_on,85,45,0
1,note_on,85,0,90
1,note_on,97,0,0
1,note_on,85,45,30
1,note_on,97,45,0
1,note_on,97,0,90
1,note_on,85,0,0
1,note_on,83,45,30
1,note_on,95,45,0
1,note_on,95,0,90
1,note_on,83,0,0
1,note_on,95,45,30
1,note_on,83,45,0
1,note_on,83,0,90
1,note_on,95,0,0
1,note_on,97,45,30
1,note_on,85,45,0
1,note_on,85,0,90
1,note_on,97,0,0
1,note_on,97,45,30
1,note_on,85,45,0
1,note_on,85,0,90
1,note_on,97,0,0
1,note_on,99,47,30
1,note_on,87,47,0
1,note_on,87,0,240
1,note_on,99,0,0
1,note_on,51,64,720
1,note_on,63,64,0
1,note_on,63,0,90
1,note_on,51,0,0
1,note_on,51,64,30
1,note_on,63,64,0
1,note_on,63,0,90
1,note_on,51,0,0
1,note_on,75,71,270
1,note_on,87,71,0
1,note_on,87,0,240
1,note_on,75,0,0
1,note_on,87,59,0
1,note_on,75,59,0
1,note_on,75,0,90
1,note_on,87,0,0
1,note_on,87,60,30
1,note_on,75,60,0
1,note_on,75,0,90
1,note_on,87,0,0
1,note_on,87,62,30
1,note_on,75,62,0
1,note_on,75,0,90
1,note_on,87,0,0
1,note_on,87,64,30
1,note_on,75,64,0
1,note_on,75,0,90
1,note_on,87,0,0
1,note_on,76,64,30
1,note_on,88,64,0
1,note_on,88,0,120
1,note_on,76,0,0
1,note_on,75,64,0
1,note_on,87,64,0
1,note_on,87,0,120
1,note_on,75,0,0
1,note_on,73,63,0
1,note_on,85,63,0
1,note_on,85,0,120
1,note_on,73,0,0
1,note_on,71,62,0
1,note_on,83,62,0
1,note_on,83,0,120
1,note_on,71,0,0
1,note_on,70,61,0
1,note_on,82,61,0
1,note_on,82,0,120
1,note_on,70,0,0
1,note_on,68,61,0
1,note_on,80,61,0
1,note_on,80,0,120
1,note_on,68,0,0
1,note_on,67,60,0
1,note_on,79,60,0
1,note_on,79,0,240
1,note_on,67,0,0
1,note_on,51,69,720
1,note_on,63,69,0
1,note_on,63,0,90
1,note_on,51,0,0
1,note_on,51,69,30
1,note_on,63,69,0
1,note_on,63,0,90
1,note_on,51,0,0
1,note_on,75,76,270
1,note_on,87,76,0
1,note_on,87,0,240
1,note_on,75,0,0
1,note_on,99,69,0
1,note_on,87,69,0
1,note_on,87,0,90
1,note_on,99,0,0
1,note_on,99,71,30
1,note_on,87,71,0
1,note_on,87,0,90
1,note_on,99,0,0
1,note_on,99,72,30
1,note_on,87,72,0
1,note_on,87,0,90
1,note_on,99,0,0
1,note_on,87,73,30
1,note_on,99,73,0
1,note_on,99,0,90
1,note_on,87,0,0
1,note_on,88,73,30
1,note_on,100,73,0
1,note_on,100,0,90
1,note_on,88,0,0
1,note_on,87,73,30
1,note_on,99,73,0
1,note_on,99,0,90
1,note_on,87,0,0
1,note_on,85,73,30
1,note_on,97,73,0
1,note_on,97,0,90
1,note_on,85,0,0
1,note_on,95,72,30
1,note_on,83,72,0
1,note_on,83,0,90
1,note_on,95,0,0
1,note_on,82,72,30
1,note_on,94,72,0
1,note_on,94,0,90
1,note_on,82,0,0
1,note_on,92,72,30
1,note_on,80,72,0
1,note_on,80,0,90
1,note_on,92,0,0
1,note_on,91,72,30
1,note_on,79,72,0
1,note_on,79,0,90
1,note_on,91,0,0
1,note_on,78,72,30
1,note_on,90,72,0
1,note_on,90,0,90
1,note_on,78,0,0
1,note_on,89,72,30
1,note_on,77,72,0
1,note_on,77,0,90
1,note_on,89,0,0
1,note_on,76,71,30
1,note_on,88,71,0
1,note_on,88,0,90
1,note_on,76,0,0
1,note_on,86,71,30
1,note_on,74,71,0
1,note_on,74,0,90
1,note_on,86,0,0
1,note_on,75,72,30
1,note_on,87,72,0
1,note_on,87,0,90
1,note_on,75,0,0
1,note_on,88,75,30
1,note_on,76,75,0
1,note_on,76,0,90
1,note_on,88,0,0
1,note_on,75,75,30
1,note_on,87,75,0
1,note_on,87,0,90
1,note_on,75,0,0
1,note_on,85,73,30
1,note_on,73,73,0
1,note_on,73,0,90
1,note_on,85,0,0
1,note_on,71,72,30
1,note_on,83,72,0
1,note_on,83,0,90
1,note_on,71,0,0
1,note_on,82,72,30
1,note_on,70,72,0
1,note_on,70,0,90
1,note_on,82,0,0
1,note_on,68,72,30
1,note_on,80,72,0
1,note_on,80,0,90
1,note_on,68,0,0
1,note_on,67,72,30
1,note_on,79,72,0
1,note_on,79,0,90
1,note_on,67,0,0
1,note_on,78,71,30
1,note_on,66,71,0
1,note_on,66,0,90
1,note_on,78,0,0
1,note_on,65,70,30
1,note_on,77,70,0
1,note_on,77,0,90
1,note_on,65,0,0
1,note_on,76,70,30
1,note_on,64,70,0
1,note_on,64,0,90
1,note_on,76,0,0
1,note_on,62,72,30
1,note_on,74,72,0
1,note_on,74,0,90
1,note_on,62,0,0
1,note_on,63,73,30
1,note_on,75,73,0
1,note_on,75,0,90
1,note_on,63,0,0
1,note_on,64,73,30
1,note_on,76,73,0
1,note_on,76,0,90
1,note_on,64,0,0
1,note_on,63,73,30
1,note_on,75,73,0
1,note_on,75,0,90
1,note_on,63,0,0
1,note_on,73,73,30
1,note_on,61,73,0
1,note_on,61,0,90
1,note_on,73,0,0
1,note_on,59,72,30
1,note_on,71,72,0
1,note_on,71,0,90
1,note_on,59,0,0
1,note_on,70,72,30
1,note_on,58,72,0
1,note_on,58,0,90
1,note_on,70,0,0
1,note_on,56,72,30
1,note_on,68,72,0
1,note_on,68,0,90
1,note_on,56,0,0
1,note_on,67,72,30
1,note_on,55,72,0
1,note_on,55,0,90
1,note_on,67,0,0
1,note_on,54,72,30
1,note_on,66,72,0
1,note_on,66,0,90
1,note_on,54,0,0
1,note_on,65,72,30
1,note_on,53,72,0
1,note_on,53,0,90
1,note_on,65,0,0
1,note_on,52,72,30
1,note_on,64,72,0
1,note_on,64,0,90
1,note_on,52,0,0
1,note_on,50,72,30
1,note_on,62,72,0
1,note_on,62,0,90
1,note_on,50,0,0
1,note_on,51,72,30
1,note_on,63,72,0
1,note_on,63,0,90
1,note_on,51,0,0
1,note_on,52,73,30
1,note_on,64,73,0
1,note_on,64,0,90
1,note_on,52,0,0
1,note_on,63,75,30
1,note_on,52,75,0
1,note_on,52,0,90
1,note_on,63,0,0
1,note_on,61,76,30
1,note_on,52,76,0
1,note_on,52,0,90
1,note_on,61,0,0
1,note_on,59,77,30
1,note_on,52,77,0
1,note_on,52,0,90
1,note_on,59,0,0
1,note_on,53,80,30
1,note_on,58,80,0
1,note_on,58,0,90
1,note_on,53,0,0
1,note_on,53,81,30
1,note_on,56,81,0
1,note_on,56,0,90
1,note_on,53,0,0
1,note_on,55,81,30
1,note_on,55,0,240
1,note_on,62,81,0
1,note_on,50,81,0
1,note_on,50,0,108
1,note_on,62,0,12
1,note_on,63,81,120
1,note_on,51,81,0
1,note_on,51,0,108
1,note_on,63,0,12
1,note_on,57,81,120
1,note_on,69,81,0
1,note_on,57,0,108
1,note_on,69,0,12
1,note_on,58,81,120
1,note_on,70,81,0
1,note_on,58,0,108
1,note_on,70,0,12
1,note_on,62,81,120
1,note_on,74,81,0
1,note_on,62,0,108
1,note_on,74,0,12
1,note_on,63,81,120
1,note_on,75,81,0
1,note_on,63,0,108
1,note_on,75,0,12
1,note_on,69,81,120
1,note_on,81,81,0
1,note_on,69,0,108
1,note_on,81,0,12
1,note_on,82,81,120
1,note_on,70,81,0
1,note_on,70,0,108
1,note_on,82,0,12
1,note_on,86,82,120
1,note_on,74,82,0
1,note_on,74,0,108
1,note_on,86,0,12
1,note_on,87,83,120
1,note_on,75,83,0
1,note_on,75,0,108
1,note_on,87,0,12
1,note_on,93,84,120
1,note_on,81,84,0
1,note_on,81,0,108
1,note_on,93,0,12
1,note_on,94,84,120
1,note_on,82,84,0
1,note_on,82,0,108
1,note_on,94,0,12
1,note_on,86,92,120
1,note_on,98,92,0
1,note_on,86,0,108
1,note_on,98,0,12
1,note_on,99,89,120
1,note_on,87,89,0
1,note_on,87,0,108
1,note_on,99,0,12
1,note_on,98,93,120
1,note_on,86,93,0
1,note_on,86,0,108
1,note_on,98,0,12
1,note_on,99,86,120
1,note_on,87,86,0
1,note_on,87,0,108
1,note_on,99,0,12
1,note_on,98,87,120
1,note_on,86,87,0
1,note_on,86,0,108
1,note_on,98,0,12
1,note_on,99,84,120
1,note_on,87,84,0
1,note_on,87,0,120
1,note_on,99,0,0
1,note_on,99,84,120
1,note_on,87,84,0
1,note_on,87,0,120
1,note_on,99,0,0
1,note_on,99,86,120
1,note_on,87,86,0
1,note_on,87,0,120
1,note_on,99,0,0
1,note_on,99,87,120
1,note_on,87,87,0
1,note_on,87,0,120
1,note_on,99,0,0
1,note_on,99,89,120
1,note_on,87,89,0
1,note_on,87,0,120
1,note_on,99,0,0
1,note_on,99,89,120
1,note_on,87,89,0
1,note_on,87,0,120
1,note_on,99,0,0
1,note_on,99,90,120
1,note_on,87,90,0
1,note_on,87,0,120
1,note_on,99,0,0
1,note_on,99,90,120
1,note_on,87,90,0
1,note_on,87,0,120
1,note_on,99,0,0
1,note_on,99,91,120
1,note_on,87,91,0
1,note_on,87,0,120
1,note_on,99,0,0
1,note_on,99,92,120
1,note_on,87,92,0
1,note_on,87,0,120
1,note_on,99,0,0
1,note_on,99,92,120
1,note_on,87,92,0
1,note_on,87,0,120
1,note_on,99,0,0
1,note_on,99,93,120
1,note_on,87,93,0
1,note_on,87,0,120
1,note_on,99,0,0
1,note_on,87,81,120
1,note_on,99,81,0
1,note_on,99,0,90
1,note_on,87,0,0
1,note_on,87,77,30
1,note_on,99,77,0
1,note_on,99,0,90
1,note_on,87,0,0
1,note_on,87,81,30
1,note_on,99,81,0
1,note_on,99,0,90
1,note_on,87,0,0
1,note_on,87,76,30
1,note_on,99,76,0
1,note_on,99,0,90
1,note_on,87,0,0
1,note_on,87,79,30
1,note_on,99,79,0
1,note_on,99,0,90
1,note_on,87,0,0
1,note_on,87,76,30
1,note_on,99,76,0
1,note_on,99,0,90
1,note_on,87,0,0
1,note_on,87,77,30
1,note_on,99,77,0
1,note_on,99,0,90
1,note_on,87,0,0
1,note_on,87,76,30
1,note_on,99,76,0
1,note_on,99,0,90
1,note_on,87,0,0
1,note_on,87,75,30
1,note_on,99,75,0
1,note_on,99,0,90
1,note_on,87,0,0
1,note_on,87,73,30
1,note_on,99,73,0
1,note_on,99,0,90
1,note_on,87,0,0
1,note_on,87,73,30
1,note_on,99,73,0
1,note_on,99,0,90
1,note_on,87,0,0
1,note_on,87,72,30
1,note_on,99,72,0
1,note_on,99,0,90
1,note_on,87,0,0
1,note_on,87,72,30
1,note_on,99,72,0
1,note_on,99,0,90
1,note_on,87,0,0
1,note_on,87,70,30
1,note_on,99,70,0
1,note_on,99,0,90
1,note_on,87,0,0
1,note_on,87,71,30
1,note_on,99,71,0
1,note_on,99,0,90
1,note_on,87,0,0
1,note_on,87,69,30
1,note_on,99,69,0
1,note_on,99,0,90
1,note_on,87,0,0
1,note_on,87,76,30
1,note_on,99,76,0
1,note_on,99,0,90
1,note_on,87,0,0
1,note_on,87,70,30
1,note_on,99,70,0
1,note_on,99,0,90
1,note_on,87,0,0
1,note_on,87,70,30
1,note_on,99,70,0
1,note_on,99,0,90
1,note_on,87,0,0
1,note_on,87,70,30
1,note_on,99,70,0
1,note_on,99,0,90
1,note_on,87,0,0
1,note_on,87,66,30
1,note_on,99,66,0
1,note_on,99,0,90
1,note_on,87,0,0
1,note_on,87,66,30
1,note_on,99,66,0
1,note_on,99,0,90
1,note_on,87,0,0
1,note_on,85,63,30
1,note_on,97,63,0
1,note_on,97,0,90
1,note_on,85,0,0
1,note_on,85,62,30
1,note_on,97,62,0
1,note_on,97,0,90
1,note_on,85,0,0
1,note_on,95,66,30
1,note_on,83,66,0
1,note_on,83,0,90
1,note_on,95,0,0
1,note_on,95,66,30
1,note_on,83,66,0
1,note_on,83,0,90
1,note_on,95,0,0
1,note_on,95,66,30
1,note_on,83,66,0
1,note_on,83,0,90
1,note_on,95,0,0
1,note_on,95,66,30
1,note_on,83,66,0
1,note_on,83,0,90
1,note_on,95,0,0
1,note_on,94,62,30
1,note_on,82,62,0
1,note_on,82,0,90
1,note_on,94,0,0
1,note_on,94,62,30
1,note_on,82,62,0
1,note_on,82,0,90
1,note_on,94,0,0
1,note_on,92,63,30
1,note_on,80,63,0
1,note_on,80,0,90
1,note_on,92,0,0
1,note_on,92,63,30
1,note_on,80,63,0
1,note_on,80,0,90
1,note_on,92,0,0
1,note_on,91,62,30
1,note_on,79,62,0
1,note_on,79,0,90
1,note_on,91,0,0
1,note_on,91,62,30
1,note_on,79,62,0
1,note_on,79,0,90
1,note_on,91,0,0
1,note_on,92,62,30
1,note_on,80,62,0
1,note_on,80,0,90
1,note_on,92,0,0
1,note_on,92,62,30
1,note_on,80,62,0
1,note_on,80,0,90
1,note_on,92,0,0
1,note_on,94,66,30
1,note_on,82,66,0
1,note_on,82,0,90
1,note_on,94,0,0
1,note_on,94,66,30
1,note_on,82,66,0
1,note_on,82,0,90
1,note_on,94,0,0
1,note_on,87,62,30
1,note_on,75,62,0
1,note_on,75,0,90
1,note_on,87,0,0
1,note_on,87,62,30
1,note_on,75,62,0
1,note_on,75,0,90
1,note_on,87,0,0
1,note_on,87,62,30
1,note_on,75,62,0
1,note_on,75,0,90
1,note_on,87,0,0
1,note_on,87,62,30
1,note_on,75,62,0
1,note_on,75,0,90
1,note_on,87,0,0
1,note_on,88,64,30
1,note_on,76,64,0
1,note_on,76,0,90
1,note_on,88,0,0
1,note_on,88,64,30
1,note_on,76,64,0
1,note_on,76,0,90
1,note_on,88,0,0
1,note_on,87,64,30
1,note_on,75,64,0
1,note_on,75,0,90
1,note_on,87,0,0
1,note_on,87,62,30
1,note_on,75,62,0
1,note_on,75,0,90
1,note_on,87,0,0
1,note_on,85,62,30
1,note_on,73,62,0
1,note_on,73,0,90
1,note_on,85,0,0
1,note_on,85,62,30
1,note_on,73,62,0
1,note_on,73,0,90
1,note_on,85,0,0
1,note_on,83,63,30
1,note_on,71,63,0
1,note_on,71,0,90
1,note_on,83,0,0
1,note_on,83,63,30
1,note_on,71,63,0
1,note_on,71,0,90
1,note_on,83,0,0
1,note_on,83,63,30
1,note_on,71,63,0
1,note_on,71,0,90
1,note_on,83,0,0
1,note_on,83,62,30
1,note_on,71,62,0
1,note_on,71,0,90
1,note_on,83,0,0
1,note_on,82,63,30
1,note_on,70,63,0
1,note_on,70,0,90
1,note_on,82,0,0
1,note_on,82,63,30
1,note_on,70,63,0
1,note_on,70,0,90
1,note_on,82,0,0
1,note_on,80,65,30
1,note_on,68,65,0
1,note_on,68,0,90
1,note_on,80,0,0
1,note_on,80,65,30
1,note_on,68,65,0
1,note_on,68,0,90
1,note_on,80,0,0
1,note_on,79,62,30
1,note_on,67,62,0
1,note_on,67,0,90
1,note_on,79,0,0
1,note_on,79,62,30
1,note_on,67,62,0
1,note_on,67,0,90
1,note_on,79,0,0
1,note_on,80,63,30
1,note_on,68,63,0
1,note_on,68,0,90
1,note_on,80,0,0
1,note_on,80,63,30
1,note_on,68,63,0
1,note_on,68,0,90
1,note_on,80,0,0
1,note_on,82,65,30
1,note_on,70,65,0
1,note_on,70,0,90
1,note_on,82,0,0
1,note_on,82,64,30
1,note_on,70,64,0
1,note_on,70,0,90
1,note_on,82,0,0
1,note_on,63,59,30
1,note_on,75,59,0
1,note_on,75,0,90
1,note_on,63,0,0
1,note_on,75,59,30
1,note_on,63,59,0
1,note_on,63,0,90
1,note_on,75,0,0
1,note_on,87,63,30
1,note_on,75,63,0
1,note_on,75,0,90
1,note_on,87,0,0
1,note_on,87,63,30
1,note_on,75,63,0
1,note_on,75,0,90
1,note_on,87,0,0
1,note_on,99,77,30
1,note_on,87,77,0
1,note_on,87,0,90
1,note_on,99,0,0
1,note_on,87,77,30
1,note_on,99,77,0
1,note_on,99,0,90
1,note_on,87,0,0
1,note_on,99,77,30
1,note_on,87,77,0
1,note_on,87,0,90
1,note_on,99,0,0
1,note_on,99,77,30
1,note_on,87,77,0
1,note_on,87,0,90
1,note_on,99,0,0
1,note_on,97,75,30
1,note_on,85,75,0
1,note_on,85,0,90
1,note_on,97,0,0
1,note_on,85,75,30
1,note_on,97,75,0
1,note_on,97,0,90
1,note_on,85,0,0
1,note_on,96,75,30
1,note_on,84,75,0
1,note_on,84,0,90
1,note_on,96,0,0
1,note_on,84,75,30
1,note_on,96,75,0
1,note_on,96,0,90
1,note_on,84,0,0
1,note_on,84,72,30
1,note_on,96,72,0
1,note_on,96,0,90
1,note_on,84,0,0
1,note_on,84,72,30
1,note_on,96,72,0
1,note_on,96,0,90
1,note_on,84,0,0
1,note_on,93,71,30
1,note_on,81,71,0
1,note_on,81,0,90
1,note_on,93,0,0
1,note_on,81,71,30
1,note_on,93,71,0
1,note_on,93,0,90
1,note_on,81,0,0
1,note_on,92,73,30
1,note_on,80,73,0
1,note_on,80,0,90
1,note_on,92,0,0
1,note_on,80,73,30
1,note_on,92,73,0
1,note_on,92,0,90
1,note_on,80,0,0
1,note_on,92,73,30
1,note_on,80,73,0
1,note_on,80,0,90
1,note_on,92,0,0
1,note_on,80,73,30
1,note_on,92,73,0
1,note_on,92,0,90
1,note_on,80,0,0
1,note_on,90,76,30
1,note_on,78,76,0
1,note_on,78,0,90
1,note_on,90,0,0
1,note_on,78,76,30
1,note_on,90,76,0
1,note_on,90,0,90
1,note_on,78,0,0
1,note_on,88,81,30
1,note_on,76,81,0
1,note_on,76,0,240
1,note_on,88,0,0
1,note_on,64,49,0
1,note_on,69,49,0
1,note_on,73,54,0
1,note_on,73,0,90
1,note_on,69,0,0
1,note_on,64,0,0
1,note_on,64,49,30
1,note_on,69,49,0
1,note_on,73,54,0
1,note_on,73,0,90
1,note_on,69,0,0
1,note_on,64,0,0
1,note_on,64,51,30
1,note_on,69,51,0
1,note_on,75,56,0
1,note_on,75,0,90
1,note_on,69,0,0
1,note_on,64,0,0
1,note_on,64,51,30
1,note_on,69,51,0
1,note_on,75,56,0
1,note_on,75,0,90
1,note_on,69,0,0
1,note_on,64,0,0
1,note_on,64,54,30
1,note_on,69,54,0
1,note_on,76,62,0
1,note_on,76,0,90
1,note_on,69,0,0
1,note_on,64,0,0
1,note_on,64,54,30
1,note_on,69,54,0
1,note_on,76,62,0
1,note_on,76,0,90
1,note_on,69,0,0
1,note_on,64,0,0
1,note_on,64,53,30
1,note_on,69,53,0
1,note_on,75,60,0
1,note_on,75,0,90
1,note_on,69,0,0
1,note_on,64,0,0
1,note_on,64,53,30
1,note_on,69,53,0
1,note_on,75,60,0
1,note_on,75,0,90
1,note_on,69,0,0
1,note_on,64,0,0
1,note_on,64,50,30
1,note_on,69,50,0
1,note_on,73,55,0
1,note_on,73,0,90
1,note_on,69,0,0
1,note_on,64,0,0
1,note_on,64,50,30
1,note_on,69,50,0
1,note_on,73,55,0
1,note_on,73,0,90
1,note_on,69,0,0
1,note_on,64,0,0
1,note_on,63,45,30
1,note_on,68,45,0
1,note_on,71,45,0
1,note_on,75,52,0
1,note_on,75,0,120
1,note_on,63,0,0
1,note_on,68,0,0
1,note_on,71,0,0
1,note_on,64,54,0
1,note_on,76,54,0
1,note_on,76,0,120
1,note_on,64,0,0
1,note_on,65,54,0
1,note_on,77,54,0
1,note_on,77,0,120
1,note_on,65,0,0
1,note_on,66,55,0
1,note_on,78,55,0
1,note_on,78,0,120
1,note_on,66,0,0
1,note_on,67,57,0
1,note_on,79,57,0
1,note_on,79,0,120
1,note_on,67,0,0
1,note_on,68,59,0
1,note_on,80,59,0
1,note_on,80,0,120
1,note_on,68,0,0
1,note_on,69,60,0
1,note_on,81,60,0
1,note_on,81,0,120
1,note_on,69,0,0
1,note_on,70,62,0
1,note_on,82,62,0
1,note_on,82,0,120
1,note_on,70,0,0
1,note_on,71,63,0
1,note_on,83,63,0
1,note_on,83,0,120
1,note_on,71,0,0
1,note_on,72,64,0
1,note_on,84,64,0
1,note_on,84,0,120
1,note_on,72,0,0
1,note_on,73,66,0
1,note_on,85,66,0
1,note_on,85,0,120
1,note_on,73,0,0
1,note_on,74,67,0
1,note_on,86,67,0
1,note_on,86,0,120
1,note_on,74,0,0
1,note_on,75,62,0
1,note_on,79,62,0
1,note_on,82,62,0
1,note_on,87,62,0
1,note_on,87,0,120
1,note_on,75,0,0
1,note_on,79,0,0
1,note_on,82,0,0
1,note_on,76,71,0
1,note_on,88,71,0
1,note_on,88,0,120
1,note_on,76,0,0
1,note_on,77,72,0
1,note_on,89,72,0
1,note_on,89,0,120
1,note_on,77,0,0
1,note_on,78,72,0
1,note_on,90,72,0
1,note_on,90,0,120
1,note_on,78,0,0
1,note_on,79,75,0
1,note_on,91,75,0
1,note_on,91,0,120
1,note_on,79,0,0
1,note_on,80,76,0
1,note_on,92,76,0
1,note_on,92,0,120
1,note_on,80,0,0
1,note_on,81,77,0
1,note_on,93,77,0
1,note_on,93,0,120
1,note_on,81,0,0
1,note_on,82,79,0
1,note_on,94,79,0
1,note_on,94,0,120
1,note_on,82,0,0
1,note_on,83,81,0
1,note_on,95,81,0
1,note_on,95,0,120
1,note_on,83,0,0
1,note_on,85,83,0
1,note_on,97,83,0
1,note_on,97,0,120
1,note_on,85,0,0
1,note_on,86,86,0
1,note_on,98,86,0
1,note_on,98,0,120
1,note_on,86,0,0
1,note_on,87,90,0
1,note_on,99,90,0
1,note_on,99,0,110
1,note_on,87,0,0
1,note_on,59,89,10
1,note_on,63,89,0
1,note_on,68,99,0
1,note_on,68,0,240
1,note_on,63,0,0
1,note_on,59,0,0
1,note_on,83,89,240
1,note_on,75,74,0
1,note_on,71,74,0
1,note_on,71,0,180
1,note_on,75,0,0
1,note_on,83,0,0
1,note_on,82,80,60
1,note_on,75,68,0
1,note_on,70,68,0
1,note_on,70,0,120
1,note_on,75,0,0
1,note_on,82,0,0
1,note_on,71,68,0
1,note_on,83,80,0
1,note_on,83,0,120
1,note_on,71,0,0
1,note_on,85,90,0
1,note_on,73,75,0
1,note_on,73,0,180
1,note_on,85,0,0
1,note_on,75,68,60
1,note_on,83,80,0
1,note_on,71,68,0
1,note_on,71,0,120
1,note_on,83,0,0
1,note_on,75,0,0
1,note_on,82,80,0
1,note_on,70,68,0
1,note_on,70,0,120
1,note_on,82,0,0
1,note_on,83,81,0
1,note_on,75,68,0
1,note_on,71,68,0
1,note_on,71,0,120
1,note_on,75,0,0
1,note_on,83,0,0
1,note_on,85,84,0
1,note_on,73,71,0
1,note_on,73,0,120
1,note_on,85,0,0
1,note_on,75,77,0
1,note_on,87,91,0
1,note_on,87,0,180
1,note_on,75,0,0
1,note_on,85,83,60
1,note_on,73,70,0
1,note_on,73,0,120
1,note_on,85,0,0
1,note_on,71,69,0
1,note_on,83,82,0
1,note_on,83,0,120
1,note_on,71,0,0
1,note_on,82,81,0
1,note_on,75,68,0
1,note_on,70,68,0
1,note_on,70,0,120
1,note_on,75,0,0
1,note_on,82,0,0
1,note_on,83,81,0
1,note_on,71,68,0
1,note_on,71,0,120
1,note_on,83,0,0
1,note_on,73,74,0
1,note_on,85,89,0
1,note_on,85,0,180
1,note_on,73,0,0
1,note_on,75,68,60
1,note_on,83,81,0
1,note_on,71,68,0
1,note_on,71,0,120
1,note_on,83,0,0
1,note_on,75,0,0
1,note_on,70,68,0
1,note_on,82,81,0
1,note_on,82,0,120
1,note_on,70,0,0
1,note_on,71,62,0
1,note_on,75,62,0
1,note_on,83,89,0
1,note_on,83,0,120
1,note_on,75,0,0
1,note_on,71,0,0
1,note_on,82,83,0
1,note_on,70,59,0
1,note_on,70,0,120
1,note_on,82,0,0
1,note_on,80,83,0
1,note_on,68,59,0
1,note_on,68,0,240
1,note_on,80,0,0
1,note_on,95,89,0
1,note_on,87,62,0
1,note_on,83,62,0
1,note_on,83,0,180
1,note_on,87,0,0
1,note_on,95,0,0
1,note_on,94,81,60
1,note_on,87,57,0
1,note_on,82,57,0
1,note_on,82,0,120
1,note_on,87,0,0
1,note_on,94,0,0
1,note_on,83,57,0
1,note_on,95,81,0
1,note_on,95,0,120
1,note_on,83,0,0
1,note_on,97,91,0
1,note_on,85,64,0
1,note_on,85,0,180
1,note_on,97,0,0
1,note_on,87,56,60
1,note_on,95,79,0
1,note_on,83,56,0
1,note_on,83,0,120
1,note_on,95,0,0
1,note_on,87,0,0
1,note_on,94,79,0
1,note_on,82,56,0
1,note_on,82,0,120
1,note_on,94,0,0
1,note_on,95,81,0
1,note_on,87,68,0
1,note_on,83,68,0
1,note_on,83,0,120
1,note_on,87,0,0
1,note_on,95,0,0
1,note_on,97,84,0
1,note_on,85,71,0
1,note_on,85,0,120
1,note_on,97,0,0
1,note_on,87,77,0
1,note_on,99,91,0
1,note_on,99,0,180
1,note_on,87,0,0
1,note_on,97,80,60
1,note_on,85,68,0
1,note_on,85,0,120
1,note_on,97,0,0
1,note_on,83,68,0
1,note_on,95,80,0
1,note_on,95,0,120
1,note_on,83,0,0
1,note_on,94,80,0
1,note_on,87,68,0
1,note_on,82,68,0
1,note_on,82,0,120
1,note_on,87,0,0
1,note_on,94,0,0
1,note_on,95,80,0
1,note_on,83,68,0
1,note_on,83,0,120
1,note_on,95,0,0
1,note_on,85,77,0
1,note_on,97,91,0
1,note_on,97,0,180
1,note_on,85,0,0
1,note_on,87,69,60
1,note_on,95,82,0
1,note_on,83,69,0
1,note_on,83,0,120
1,note_on,95,0,0
1,note_on,87,0,0
1,note_on,82,70,0
1,note_on,94,83,0
1,note_on,94,0,120
1,note_on,82,0,0
1,note_on,83,77,0
1,note_on,87,91,0
1,note_on,95,91,0
1,note_on,95,0,120
1,note_on,87,0,0
1,note_on,83,0,0
1,note_on,94,83,0
1,note_on,82,70,0
1,note_on,82,0,120
1,note_on,94,0,0
1,note_on,92,83,0
1,note_on,80,70,0
1,note_on,80,0,240
1,note_on,92,0,0
1,note_on,63,68,0
1,note_on,71,68,0
1,note_on,75,81,0
1,note_on,75,0,240
1,note_on,71,0,0
1,note_on,63,0,0
1,note_on,63,60,0
1,note_on,70,60,0
1,note_on,75,71,0
1,note_on,75,0,120
1,note_on,70,0,0
1,note_on,63,0,0
1,note_on,63,60,0
1,note_on,71,60,0
1,note_on,75,71,0
1,note_on,75,0,120
1,note_on,71,0,0
1,note_on,63,0,0
1,note_on,63,66,0
1,note_on,73,78,0
1,note_on,75,78,0
1,note_on,75,0,240
1,note_on,73,0,0
1,note_on,63,0,0
1,note_on,63,61,0
1,note_on,71,61,0
1,note_on,75,73,0
1,note_on,75,0,120
1,note_on,71,0,0
1,note_on,63,0,0
1,note_on,63,61,0
1,note_on,70,61,0
1,note_on,75,73,0
1,note_on,75,0,120
1,note_on,70,0,0
1,note_on,63,0,0
1,note_on,63,67,0
1,note_on,71,79,0
1,note_on,75,79,0
1,note_on,75,0,120
1,note_on,71,0,0
1,note_on,63,0,0
1,note_on,63,61,0
1,note_on,70,61,0
1,note_on,75,73,0
1,note_on,75,0,120
1,note_on,70,0,0
1,note_on,63,0,0
1,note_on,63,61,0
1,note_on,68,61,0
1,note_on,75,73,0
1,note_on,75,0,216
1,note_on,68,0,0
1,note_on,63,0,0
1,note_on,87,108,24
1,note_on,80,92,0
1,note_on,75,92,0
1,note_on,75,0,180
1,note_on,80,0,0
1,note_on,87,0,0
1,note_on,63,60,60
1,note_on,70,60,0
1,note_on,75,71,0
1,note_on,75,0,120
1,note_on,70,0,0
1,note_on,63,0,0
1,note_on,63,60,0
1,note_on,71,71,0
1,note_on,75,71,0
1,note_on,75,0,120
1,note_on,71,0,0
1,note_on,63,0,0
1,note_on,63,66,0
1,note_on,73,66,0
1,note_on,75,78,0
1,note_on,75,0,240
1,note_on,73,0,0
1,note_on,63,0,0
1,note_on,63,61,0
1,note_on,71,61,0
1,note_on,75,73,0
1,note_on,75,0,120
1,note_on,71,0,0
1,note_on,63,0,0
1,note_on,63,61,0
1,note_on,70,61,0
1,note_on,75,73,0
1,note_on,75,0,120
1,note_on,70,0,0
1,note_on,63,0,0
1,note_on,63,67,0
1,note_on,71,67,0
1,note_on,75,79,0
1,note_on,75,0,120
1,note_on,71,0,0
1,note_on,63,0,0
1,note_on,63,61,0
1,note_on,70,61,0
1,note_on,75,73,0
1,note_on,75,0,120
1,note_on,70,0,0
1,note_on,63,0,0
1,note_on,63,61,0
1,note_on,68,61,0
1,note_on,75,73,0
1,note_on,75,0,216
1,note_on,68,0,0
1,note_on,63,0,0
1,note_on,87,108,24
1,note_on,80,92,0
1,note_on,75,92,0
1,note_on,75,0,180
1,note_on,80,0,0
1,note_on,87,0,0
1,note_on,63,67,60
1,note_on,71,67,0
1,note_on,75,79,0
1,note_on,75,0,120
1,note_on,71,0,0
1,note_on,63,0,0
1,note_on,63,61,0
1,note_on,70,61,0
1,note_on,75,73,0
1,note_on,75,0,120
1,note_on,70,0,0
1,note_on,63,0,0
1,note_on,63,61,0
1,note_on,68,61,0
1,note_on,75,73,0
1,note_on,75,0,216
1,note_on,68,0,0
1,note_on,63,0,0
1,note_on,87,95,24
1,note_on,80,95,0
1,note_on,92,113,0
1,note_on,92,0,180
1,note_on,80,0,0
1,note_on,87,0,0
1,note_on,63,67,60
1,note_on,71,79,0
1,note_on,75,79,0
1,note_on,75,0,120
1,note_on,71,0,0
1,note_on,63,0,0
1,note_on,63,61,0
1,note_on,70,61,0
1,note_on,75,73,0
1,note_on,75,0,120
1,note_on,70,0,0
1,note_on,63,0,0
1,note_on,63,61,0
1,note_on,68,61,0
1,note_on,75,73,0
1,note_on,75,0,216
1,note_on,68,0,0
1,note_on,63,0,0
1,note_on,87,97,24
1,note_on,83,97,0
1,note_on,95,115,0
1,note_on,95,0,180
1,note_on,83,0,0
1,note_on,87,0,0
1,note_on,63,67,60
1,note_on,71,67,0
1,note_on,75,79,0
1,note_on,75,0,120
1,note_on,71,0,0
1,note_on,63,0,0
1,note_on,63,61,0
1,note_on,70,61,0
1,note_on,75,73,0
1,note_on,75,0,120
1,note_on,70,0,0
1,note_on,63,0,0
1,note_on,63,61,0
1,note_on,68,61,0
1,note_on,75,73,0
1,note_on,75,0,216
1,note_on,68,0,0
1,note_on,63,0,0
1,note_on,99,117,24
1,note_on,92,99,0
1,note_on,87,99,0
1,note_on,87,0,480
1,note_on,92,0,0
1,note_on,99,0,0
1,note_on,87,84,0
1,note_on,92,84,0
1,note_on,99,100,0
1,note_on,99,0,216
1,note_on,92,0,0
1,note_on,87,0,0
1,note_on,87,86,24
1,note_on,92,86,0
1,note_on,99,102,0
1,note_on,99,0,216
1,note_on,92,0,0
1,note_on,87,0,0
1,note_on,87,84,24
1,note_on,92,84,0
1,note_on,99,100,0
1,note_on,99,0,216
1,note_on,92,0,0
1,note_on,87,0,0
1,note_on,87,86,24
1,note_on,92,86,0
1,note_on,99,102,0
1,note_on,99,0,216
1,note_on,92,0,0
1,note_on,87,0,0
1,note_on,87,93,24
1,note_on,92,93,0
1,note_on,99,110,0
1,note_on,99,0,216
1,note_on,92,0,0
1,note_on,87,0,0
1,note_on,87,97,24
1,note_on,92,97,0
1,note_on,99,115,0
1,note_on,99,0,240
1,note_on,92,0,0
1,note_on,87,0,0
1,note_on,59,86,480
1,note_on,63,86,0
1,note_on,68,102,0
1,note_on,68,0,240
1,note_on,63,0,0
1,note_on,59,0,0
1,note_on,92,104,480
1,note_on,87,99,0
1,note_on,83,83,0
1,note_on,80,83,0
1,note_on,80,0,1440
1,note_on,92,0,0
1,note_on,87,0,0
1,note_on,83,0,0
2,note_on,63,24,1
2,note_on,75,28,0
2,note_on,75,0,180
2,note_on,63,0,0
2,note_on,63,24,60
2,note_on,75,28,0
2,note_on,75,0,180
2,note_on,63,0,0
2,note_on,75,28,60
2,note_on,63,24,0
2,note_on,63,0,180
2,note_on,75,0,0
2,note_on,63,24,780
2,note_on,75,29,0
2,note_on,75,0,180
2,note_on,63,0,0
2,note_on,63,24,60
2,note_on,75,29,0
2,note_on,75,0,180
2,note_on,63,0,0
2,note_on,75,29,60
2,note_on,63,24,0
2,note_on,63,0,180
2,note_on,75,0,0
2,note_on,75,27,780
2,note_on,63,22,0
2,note_on,63,0,180
2,note_on,75,0,0
2,note_on,75,25,540
2,note_on,63,21,0
2,note_on,63,0,180
2,note_on,75,0,0
2,note_on,56,37,3
2,note_on,63,39,60
2,note_on,71,40,60
2,note_on,71,0,116
2,note_on,63,0,0
2,note_on,56,0,0
2,note_on,59,35,420
2,note_on,68,36,49
2,note_on,75,37,60
2,note_on,75,0,74
2,note_on,68,0,0
2,note_on,59,0,0
2,note_on,63,36,420
2,note_on,70,39,53
2,note_on,79,41,60
2,note_on,79,0,49
2,note_on,70,0,0
2,note_on,63,0,0
2,note_on,67,36,480
2,note_on,70,39,45
2,note_on,70,0,17
2,note_on,67,0,0
2,note_on,68,43,540
2,note_on,68,0,180
2,note_on,59,36,420
2,note_on,62,36,43
2,note_on,65,39,60
2,note_on,65,0,100
2,note_on,62,0,0
2,note_on,59,0,0
2,note_on,63,33,480
2,note_on,67,35,37
2,note_on,67,0,88
2,note_on,63,0,0
2,note_on,56,36,1140
2,note_on,63,37,24
2,note_on,71,40,60
2,note_on,71,0,7
2,note_on,63,0,0
2,note_on,56,0,0
2,note_on,59,36,420
2,note_on,68,37,46
2,note_on,75,41,60
2,note_on,75,0,180
2,note_on,68,0,0
2,note_on,59,0,0
2,note_on,63,36,416
2,note_on,70,39,42
2,note_on,79,41,60
2,note_on,79,0,6
2,note_on,70,0,0
2,note_on,63,0,0
2,note_on,67,37,9
2,note_on,70,39,60
2,note_on,70,0,9
2,note_on,67,0,0
2,note_on,68,35,540
2,note_on,71,39,0
2,note_on,71,0,31
2,note_on,68,0,0
2,note_on,63,30,120
2,note_on,73,34,0
2,note_on,67,30,0
2,note_on,67,0,180
2,note_on,73,0,0
2,note_on,63,0,0
2,note_on,56,40,60
2,note_on,56,0,44
2,note_on,63,35,30
2,note_on,63,0,90
2,note_on,71,35,30
2,note_on,71,0,90
2,note_on,80,35,30
2,note_on,80,0,90
2,note_on,44,39,952
2,note_on,44,0,141
2,note_on,59,37,60
2,note_on,51,34,0
2,note_on,51,0,180
2,note_on,59,0,0
2,note_on,47,39,289
2,note_on,47,0,130
2,note_on,56,34,60
2,note_on,63,37,0
2,note_on,63,0,14
2,note_on,56,0,0
2,note_on,51,39,300
2,note_on,51,0,141
2,note_on,58,34,60
2,note_on,67,37,0
2,note_on,67,0,4
2,note_on,58,0,0
2,note_on,67,33,300
2,note_on,70,36,0
2,note_on,70,0,137
2,note_on,67,0,0
2,note_on,70,36,60
2,note_on,67,33,0
2,note_on,67,0,180
2,note_on,70,0,0
2,note_on,68,40,261
2,note_on,68,0,141
2,note_on,68,40,60
2,note_on,68,0,180
2,note_on,59,32,300
2,note_on,65,36,0
2,note_on,62,32,0
2,note_on,62,0,127
2,note_on,65,0,0
2,note_on,59,0,0
2,note_on,59,32,60
2,note_on,65,36,0
2,note_on,62,32,0
2,note_on,62,0,18
2,note_on,65,0,0
2,note_on,59,0,0
2,note_on,67,35,300
2,note_on,51,31,0
2,note_on,51,0,180
2,note_on,67,0,0
2,note_on,44,39,1260
2,note_on,44,0,137
2,note_on,59,36,60
2,note_on,51,33,0
2,note_on,51,0,180
2,note_on,59,0,0
2,note_on,47,39,247
2,note_on,47,0,134
2,note_on,56,33,60
2,note_on,63,36,0
2,note_on,63,0,180
2,note_on,56,0,0
2,note_on,51,39,279
2,note_on,51,0,137
2,note_on,58,33,60
2,note_on,67,36,0
2,note_on,67,0,180
2,note_on,58,0,0
2,note_on,68,31,244
2,note_on,70,35,0
2,note_on,61,31,0
2,note_on,61,0,180
2,note_on,70,0,0
2,note_on,68,0,0
2,note_on,68,31,60
2,note_on,70,35,0
2,note_on,63,31,0
2,note_on,63,0,180
2,note_on,70,0,0
2,note_on,68,0,0
2,note_on,70,35,60
2,note_on,64,31,0
2,note_on,68,31,0
2,note_on,68,0,180
2,note_on,64,0,0
2,note_on,70,0,0
2,note_on,63,35,60
2,note_on,71,39,0
2,note_on,68,35,0
2,note_on,68,0,63
2,note_on,71,0,0
2,note_on,63,0,0
2,note_on,61,30,108
2,note_on,67,34,0
2,note_on,51,30,0
2,note_on,51,0,43
2,note_on,67,0,0
2,note_on,61,0,0
2,note_on,44,45,60
2,note_on,44,0,90
2,note_on,59,40,30
2,note_on,59,0,76
2,note_on,83,35,510
2,note_on,83,0,90
2,note_on,87,35,30
2,note_on,87,0,90
2,note_on,92,34,30
2,note_on,92,0,40
2,note_on,71,45,870
2,note_on,71,0,180
2,note_on,71,47,60
2,note_on,71,0,180
2,note_on,71,50,60
2,note_on,71,0,180
2,note_on,71,54,60
2,note_on,71,0,180
2,note_on,63,35,300
2,note_on,59,31,0
2,note_on,59,0,180
2,note_on,63,0,0
2,note_on,66,35,60
2,note_on,63,31,0
2,note_on,54,31,0
2,note_on,54,0,180
2,note_on,63,0,0
2,note_on,66,0,0
2,note_on,64,36,300
2,note_on,58,32,0
2,note_on,58,0,180
2,note_on,64,0,0
2,note_on,66,36,60
2,note_on,64,32,0
2,note_on,54,32,0
2,note_on,54,0,180
2,note_on,64,0,0
2,note_on,66,0,0
2,note_on,63,35,300
2,note_on,59,35,0
2,note_on,59,0,240
2,note_on,63,0,0
2,note_on,75,45,0
2,note_on,75,0,180
2,note_on,75,47,60
2,note_on,75,0,180
2,note_on,75,50,60
2,note_on,75,0,180
2,note_on,75,54,60
2,note_on,75,0,180
2,note_on,63,31,300
2,note_on,66,35,0
2,note_on,66,0,180
2,note_on,63,0,0
2,note_on,70,35,60
2,note_on,66,31,0
2,note_on,58,31,0
2,note_on,58,0,180
2,note_on,66,0,0
2,note_on,70,0,0
2,note_on,68,36,300
2,note_on,62,32,0
2,note_on,62,0,180
2,note_on,68,0,0
2,note_on,70,36,60
2,note_on,68,32,0
2,note_on,58,32,0
2,note_on,58,0,180
2,note_on,68,0,0
2,note_on,70,0,0
2,note_on,63,31,300
2,note_on,66,35,0
2,note_on,66,0,240
2,note_on,63,0,0
2,note_on,78,45,0
2,note_on,78,0,180
2,note_on,78,47,60
2,note_on,78,0,180
2,note_on,78,50,60
2,note_on,78,0,180
2,note_on,78,54,60
2,note_on,78,0,180
2,note_on,70,35,300
2,note_on,66,31,0
2,note_on,66,0,180
2,note_on,70,0,0
2,note_on,70,31,60
2,note_on,73,35,0
2,note_on,61,35,0
2,note_on,61,0,180
2,note_on,73,0,0
2,note_on,70,0,0
2,note_on,71,36,300
2,note_on,65,32,0
2,note_on,65,0,180
2,note_on,71,0,0
2,note_on,73,36,60
2,note_on,71,32,0
2,note_on,61,32,0
2,note_on,61,0,180
2,note_on,71,0,0
2,note_on,73,0,0
2,note_on,78,46,60
2,note_on,78,0,90
2,note_on,80,46,30
2,note_on,66,47,60
2,note_on,80,0,30
2,note_on,82,47,30
2,note_on,82,0,176
2,note_on,66,0,0
2,note_on,80,46,0
2,note_on,80,0,76
2,note_on,78,46,30
2,note_on,78,0,90
2,note_on,71,46,30
2,note_on,71,0,90
2,note_on,73,46,30
2,note_on,59,49,60
2,note_on,73,0,30
2,note_on,75,49,30
2,note_on,75,0,180
2,note_on,59,0,0
2,note_on,73,46,0
2,note_on,73,0,83
2,note_on,71,46,30
2,note_on,71,0,90
2,note_on,70,46,30
2,note_on,70,0,90
2,note_on,71,46,30
2,note_on,61,49,60
2,note_on,71,0,30
2,note_on,73,49,30
2,note_on,73,0,169
2,note_on,61,0,0
2,note_on,71,46,0
2,note_on,71,0,69
2,note_on,70,46,30
2,note_on,70,0,90
2,note_on,68,46,30
2,note_on,68,0,90
2,note_on,70,46,30
2,note_on,61,47,60
2,note_on,70,0,30
2,note_on,71,47,30
2,note_on,71,0,183
2,note_on,61,0,0
2,note_on,66,47,0
2,note_on,66,0,65
2,note_on,68,47,30
2,note_on,68,0,90
2,note_on,54,44,30
2,note_on,70,49,0
2,note_on,70,0,180
2,note_on,54,0,0
2,note_on,66,51,60
2,note_on,66,0,62
2,note_on,78,51,30
2,note_on,78,0,90
2,note_on,67,57,30
2,note_on,67,0,40
2,note_on,79,57,30
2,note_on,79,0,90
2,note_on,64,43,187
2,note_on,68,47,0
2,note_on,68,0,161
2,note_on,64,0,0
2,note_on,63,43,60
2,note_on,68,47,0
2,note_on,68,0,180
2,note_on,63,0,0
2,note_on,61,45,60
2,note_on,68,52,0
2,note_on,68,0,180
2,note_on,61,0,0
2,note_on,75,47,60
2,note_on,75,0,180
2,note_on,73,47,60
2,note_on,73,0,180
2,note_on,56,45,60
2,note_on,72,51,0
2,note_on,72,0,180
2,note_on,56,0,60
2,note_on,70,47,0
2,note_on,70,0,180
2,note_on,72,47,60
2,note_on,72,0,180
2,note_on,61,45,60
2,note_on,73,51,0
2,note_on,73,0,180
2,note_on,61,0,60
2,note_on,76,47,0
2,note_on,76,0,180
2,note_on,67,57,60
2,note_on,67,0,44
2,note_on,79,57,30
2,note_on,79,0,90
2,note_on,63,43,183
2,note_on,66,47,0
2,note_on,66,0,163
2,note_on,63,0,0
2,note_on,61,43,60
2,note_on,66,47,0
2,note_on,66,0,180
2,note_on,61,0,0
2,note_on,59,45,60
2,note_on,66,52,0
2,note_on,66,0,180
2,note_on,59,0,0
2,note_on,73,47,60
2,note_on,73,0,180
2,note_on,71,47,60
2,note_on,71,0,180
2,note_on,54,45,60
2,note_on,70,51,0
2,note_on,70,0,180
2,note_on,54,0,60
2,note_on,68,47,0
2,note_on,68,0,180
2,note_on,70,47,60
2,note_on,70,0,180
2,note_on,59,45,60
2,note_on,71,51,0
2,note_on,71,0,180
2,note_on,59,0,60
2,note_on,75,47,0
2,note_on,75,0,180
2,note_on,62,57,60
2,note_on,62,0,90
2,note_on,74,52,30
2,note_on,74,0,90
2,note_on,63,52,176
2,note_on,55,45,0
2,note_on,55,0,161
2,note_on,63,0,0
2,note_on,56,45,60
2,note_on,65,52,0
2,note_on,65,0,180
2,note_on,56,0,0
2,note_on,58,52,60
2,note_on,67,57,0
2,note_on,67,0,180
2,note_on,58,0,0
2,note_on,58,53,60
2,note_on,67,59,0
2,note_on,67,0,180
2,note_on,58,0,0
2,note_on,59,53,60
2,note_on,68,59,0
2,note_on,68,0,180
2,note_on,59,0,0
2,note_on,61,52,60
2,note_on,70,57,0
2,note_on,70,0,180
2,note_on,61,0,0
2,note_on,62,45,300
2,note_on,65,52,0
2,note_on,65,0,180
2,note_on,62,0,0
2,note_on,63,50,60
2,note_on,67,55,0
2,note_on,67,0,180
2,note_on,63,0,0
2,note_on,74,57,300
2,note_on,74,0,62
2,note_on,86,52,30
2,note_on,86,0,90
2,note_on,75,45,187
2,note_on,67,41,0
2,note_on,67,0,169
2,note_on,75,0,0
2,note_on,68,41,60
2,note_on,77,45,0
2,note_on,77,0,180
2,note_on,68,0,0
2,note_on,70,45,60
2,note_on,79,51,0
2,note_on,79,0,180
2,note_on,70,0,0
2,note_on,70,45,60
2,note_on,79,52,0
2,note_on,79,0,180
2,note_on,70,0,0
2,note_on,71,45,60
2,note_on,80,52,0
2,note_on,80,0,180
2,note_on,71,0,0
2,note_on,73,45,60
2,note_on,81,51,0
2,note_on,81,0,180
2,note_on,73,0,0
2,note_on,74,42,300
2,note_on,77,46,0
2,note_on,77,0,180
2,note_on,74,0,0
2,note_on,75,42,60
2,note_on,79,46,0
2,note_on,79,0,180
2,note_on,75,0,0
2,note_on,74,57,60
2,note_on,74,0,72
2,note_on,86,52,30
2,note_on,86,0,90
2,note_on,75,52,30
2,note_on,75,0,37
2,note_on,87,52,30
2,note_on,87,0,90
2,note_on,75,56,232
2,note_on,75,0,72
2,note_on,87,51,30
2,note_on,87,0,90
2,note_on,76,57,30
2,note_on,76,0,47
2,note_on,88,54,30
2,note_on,88,0,90
2,note_on,76,59,234
2,note_on,76,0,33
2,note_on,88,54,30
2,note_on,88,0,90
2,note_on,77,62,30
2,note_on,77,0,10
2,note_on,89,57,30
2,note_on,89,0,90
2,note_on,78,61,217
2,note_on,78,0,73
2,note_on,90,56,30
2,note_on,90,0,90
2,note_on,79,64,233
2,note_on,79,0,44
2,note_on,91,60,30
2,note_on,91,0,90
2,note_on,80,70,219
2,note_on,80,0,44
2,note_on,92,65,30
2,note_on,92,0,90
2,note_on,63,49,854
2,note_on,63,0,106
2,note_on,75,54,60
2,note_on,75,0,180
2,note_on,73,51,300
2,note_on,73,0,180
2,note_on,56,42,60
2,note_on,71,54,0
2,note_on,71,0,95
2,note_on,56,0,60
2,note_on,71,50,0
2,note_on,71,0,180
2,note_on,70,51,60
2,note_on,70,0,180
2,note_on,59,37,60
2,note_on,68,54,0
2,note_on,68,0,180
2,note_on,59,0,60
2,note_on,67,54,0
2,note_on,67,0,180
2,note_on,68,57,60
2,note_on,68,0,180
2,note_on,67,45,0
2,note_on,70,62,60
2,note_on,70,0,187
2,note_on,67,0,0
2,note_on,63,54,0
2,note_on,63,0,166
2,note_on,63,54,60
2,note_on,63,0,180
2,note_on,55,44,60
2,note_on,64,56,0
2,note_on,64,0,180
2,note_on,55,0,60
2,note_on,63,52,0
2,note_on,63,0,180
2,note_on,61,52,60
2,note_on,61,0,180
2,note_on,56,44,60
2,note_on,59,54,0
2,note_on,59,0,115
2,note_on,56,0,82
2,note_on,59,50,0
2,note_on,59,0,170
2,note_on,58,49,60
2,note_on,58,0,180
2,note_on,52,45,0
2,note_on,56,54,60
2,note_on,56,0,180
2,note_on,52,0,60
2,note_on,55,50,0
2,note_on,55,0,180
2,note_on,56,47,60
2,note_on,56,0,127
2,note_on,55,40,0
2,note_on,58,50,0
2,note_on,58,0,162
2,note_on,55,0,0
2,note_on,51,45,0
2,note_on,51,0,109
2,note_on,63,57,300
2,note_on,63,0,60
2,note_on,75,56,11
2,note_on,75,0,180
2,note_on,73,51,300
2,note_on,73,0,180
2,note_on,56,42,49
2,note_on,71,54,0
2,note_on,71,0,81
2,note_on,56,0,60
2,note_on,71,50,0
2,note_on,71,0,164
2,note_on,70,51,60
2,note_on,70,0,180
2,note_on,59,37,60
2,note_on,68,54,0
2,note_on,68,0,180
2,note_on,59,0,60
2,note_on,67,54,0
2,note_on,67,0,180
2,note_on,68,57,60
2,note_on,68,0,180
2,note_on,70,62,60
2,note_on,67,40,0
2,note_on,67,0,180
2,note_on,70,0,0
2,note_on,63,54,0
2,note_on,63,0,162
2,note_on,61,45,300
2,note_on,70,45,0
2,note_on,68,40,0
2,note_on,68,0,240
2,note_on,70,0,0
2,note_on,61,0,0
2,note_on,63,44,0
2,note_on,70,43,0
2,note_on,68,37,0
2,note_on,68,0,240
2,note_on,70,0,0
2,note_on,63,0,0
2,note_on,64,44,0
2,note_on,70,43,0
2,note_on,68,37,0
2,note_on,68,0,240
2,note_on,70,0,0
2,note_on,64,0,0
2,note_on,63,44,0
2,note_on,68,44,0
2,note_on,71,50,0
2,note_on,71,0,240
2,note_on,68,0,0
2,note_on,63,0,0
2,note_on,63,42,480
2,note_on,67,42,0
2,note_on,73,46,0
2,note_on,73,0,240
2,note_on,67,0,0
2,note_on,63,0,0
2,note_on,56,52,480
2,note_on,56,0,37
2,note_on,63,47,30
2,note_on,63,0,90
2,note_on,71,47,30
2,note_on,71,0,90
2,note_on,80,47,30
2,note_on,80,0,90
2,note_on,44,54,699
2,note_on,44,0,200
2,note_on,59,50,0
2,note_on,51,44,0
2,note_on,51,0,100
2,note_on,59,0,0
2,note_on,51,44,120
2,note_on,59,50,0
2,note_on,59,0,120
2,note_on,51,0,0
2,note_on,47,54,120
2,note_on,47,0,205
2,note_on,63,50,0
2,note_on,56,44,0
2,note_on,56,0,108
2,note_on,63,0,0
2,note_on,56,44,120
2,note_on,63,50,0
2,note_on,63,0,120
2,note_on,56,0,0
2,note_on,51,54,120
2,note_on,51,0,169
2,note_on,67,47,0
2,note_on,58,43,0
2,note_on,58,0,106
2,note_on,67,0,0
2,note_on,67,47,120
2,note_on,58,43,0
2,note_on,58,0,120
2,note_on,67,0,0
2,note_on,55,50,120
2,note_on,55,0,173
2,note_on,70,45,0
2,note_on,63,40,0
2,note_on,63,0,106
2,note_on,70,0,0
2,note_on,63,40,120
2,note_on,70,45,0
2,note_on,70,0,120
2,note_on,63,0,0
2,note_on,56,47,120
2,note_on,56,0,188
2,note_on,68,44,0
2,note_on,63,39,0
2,note_on,63,0,109
2,note_on,68,0,0
2,note_on,63,39,120
2,note_on,68,44,0
2,note_on,68,0,120
2,note_on,63,0,0
2,note_on,59,49,120
2,note_on,59,0,191
2,note_on,62,36,0
2,note_on,65,41,0
2,note_on,65,0,109
2,note_on,62,0,0
2,note_on,62,36,120
2,note_on,65,41,0
2,note_on,65,0,120
2,note_on,62,0,0
2,note_on,51,46,120
2,note_on,51,0,180
2,note_on,67,37,0
2,note_on,58,34,0
2,note_on,58,0,240
2,note_on,67,0,0
2,note_on,44,54,939
2,note_on,44,0,205
2,note_on,59,50,0
2,note_on,51,44,0
2,note_on,51,0,103
2,note_on,59,0,0
2,note_on,51,44,120
2,note_on,59,50,0
2,note_on,59,0,120
2,note_on,51,0,0
2,note_on,47,54,120
2,note_on,47,0,168
2,note_on,63,50,0
2,note_on,56,44,0
2,note_on,56,0,105
2,note_on,63,0,0
2,note_on,56,44,120
2,note_on,63,50,0
2,note_on,63,0,120
2,note_on,56,0,0
2,note_on,51,54,120
2,note_on,51,0,159
2,note_on,67,39,0
2,note_on,58,35,0
2,note_on,58,0,180
2,note_on,67,0,0
2,note_on,67,36,60
2,note_on,70,41,0
2,note_on,70,0,71
2,note_on,67,0,0
2,note_on,68,37,60
2,note_on,71,43,0
2,note_on,71,0,180
2,note_on,68,0,0
2,note_on,66,35,60
2,note_on,70,40,0
2,note_on,70,0,180
2,note_on,66,0,0
2,note_on,64,35,60
2,note_on,68,39,0
2,note_on,68,0,180
2,note_on,64,0,0
2,note_on,68,41,60
2,note_on,63,41,0
2,note_on,71,45,0
2,note_on,71,0,25
2,note_on,63,0,0
2,note_on,68,0,0
2,note_on,67,50,191
2,note_on,61,44,0
2,note_on,51,44,0
2,note_on,51,0,191
2,note_on,61,0,0
2,note_on,67,0,0
2,note_on,68,37,191
2,note_on,59,34,0
2,note_on,51,34,0
2,note_on,44,34,0
2,note_on,44,0,197
2,note_on,68,0,0
2,note_on,59,0,0
2,note_on,51,0,0
2,note_on,68,41,480
2,note_on,68,0,120
2,note_on,67,43,0
2,note_on,67,0,120
2,note_on,66,44,0
2,note_on,66,0,90
2,note_on,65,45,30
2,note_on,65,0,90
2,note_on,64,45,30
2,note_on,64,0,90
2,note_on,63,46,30
2,note_on,63,0,90
2,note_on,62,47,30
2,note_on,62,0,90
2,note_on,61,49,30
2,note_on,61,0,90
2,note_on,63,49,270
2,note_on,59,44,0
2,note_on,59,0,180
2,note_on,63,0,0
2,note_on,66,49,60
2,note_on,63,44,0
2,note_on,54,44,0
2,note_on,54,0,180
2,note_on,63,0,0
2,note_on,66,0,0
2,note_on,64,46,300
2,note_on,58,42,0
2,note_on,58,0,180
2,note_on,64,0,0
2,note_on,66,46,60
2,note_on,54,42,0
2,note_on,58,42,0
2,note_on,58,0,180
2,note_on,54,0,0
2,note_on,66,0,0
2,note_on,47,50,60
2,note_on,47,0,180
2,note_on,63,45,60
2,note_on,54,41,0
2,note_on,54,0,120
2,note_on,63,0,0
2,note_on,71,41,120
2,note_on,71,0,240
2,note_on,70,44,0
2,note_on,70,0,90
2,note_on,69,45,30
2,note_on,69,0,90
2,note_on,68,45,30
2,note_on,68,0,90
2,note_on,67,46,30
2,note_on,67,0,90
2,note_on,66,47,30
2,note_on,66,0,90
2,note_on,65,49,30
2,note_on,65,0,90
2,note_on,66,49,270
2,note_on,63,44,0
2,note_on,63,0,180
2,note_on,66,0,0
2,note_on,70,49,60
2,note_on,66,44,0
2,note_on,58,44,0
2,note_on,58,0,180
2,note_on,66,0,0
2,note_on,70,0,0
2,note_on,68,46,300
2,note_on,62,42,0
2,note_on,62,0,180
2,note_on,68,0,0
2,note_on,70,46,60
2,note_on,58,42,0
2,note_on,62,42,0
2,note_on,62,0,180
2,note_on,58,0,0
2,note_on,70,0,0
2,note_on,51,50,60
2,note_on,51,0,180
2,note_on,66,45,60
2,note_on,58,41,0
2,note_on,58,0,120
2,note_on,66,0,0
2,note_on,75,41,120
2,note_on,75,0,120
2,note_on,74,41,0
2,note_on,74,0,120
2,note_on,73,44,0
2,note_on,73,0,90
2,note_on,72,45,30
2,note_on,72,0,90
2,note_on,71,45,30
2,note_on,71,0,90
2,note_on,70,46,30
2,note_on,70,0,90
2,note_on,69,47,30
2,note_on,69,0,90
2,note_on,68,49,30
2,note_on,68,0,90
2,note_on,70,49,270
2,note_on,66,44,0
2,note_on,66,0,180
2,note_on,70,0,0
2,note_on,73,49,60
2,note_on,70,44,0
2,note_on,61,44,0
2,note_on,61,0,180
2,note_on,70,0,0
2,note_on,73,0,0
2,note_on,71,46,300
2,note_on,65,42,0
2,note_on,65,0,180
2,note_on,71,0,0
2,note_on,73,46,60
2,note_on,61,42,0
2,note_on,65,42,0
2,note_on,65,0,180
2,note_on,61,0,0
2,note_on,73,0,0
2,note_on,66,55,60
2,note_on,66,0,240
2,note_on,78,44,0
2,note_on,82,49,0
2,note_on,82,0,90
2,note_on,78,0,0
2,note_on,80,44,30
2,note_on,83,49,0
2,note_on,83,0,90
2,note_on,80,0,0
2,note_on,82,45,30
2,note_on,85,52,0
2,note_on,85,0,180
2,note_on,82,0,0
2,note_on,59,55,60
2,note_on,59,0,240
2,note_on,80,49,0
2,note_on,71,44,0
2,note_on,71,0,90
2,note_on,80,0,0
2,note_on,82,49,30
2,note_on,73,44,0
2,note_on,73,0,90
2,note_on,82,0,0
2,note_on,75,45,30
2,note_on,83,51,0
2,note_on,83,0,180
2,note_on,75,0,0
2,note_on,61,55,60
2,note_on,61,0,240
2,note_on,70,44,0
2,note_on,78,49,0
2,note_on,78,0,90
2,note_on,70,0,0
2,note_on,71,44,30
2,note_on,80,49,0
2,note_on,80,0,90
2,note_on,71,0,0
2,note_on,73,45,30
2,note_on,82,52,0
2,note_on,82,0,180
2,note_on,73,0,0
2,note_on,61,55,60
2,note_on,61,0,240
2,note_on,77,49,0
2,note_on,68,44,0
2,note_on,68,0,90
2,note_on,77,0,0
2,note_on,70,44,30
2,note_on,78,49,0
2,note_on,78,0,90
2,note_on,70,0,0
2,note_on,71,45,30
2,note_on,80,51,0
2,note_on,80,0,180
2,note_on,71,0,0
2,note_on,82,59,60
2,note_on,73,53,0
2,note_on,66,53,0
2,note_on,66,0,240
2,note_on,73,0,0
2,note_on,82,0,0
2,note_on,64,41,700
2,note_on,80,57,20
2,note_on,80,0,220
2,note_on,64,0,0
2,note_on,63,45,0
2,note_on,78,56,20
2,note_on,78,0,240
2,note_on,63,0,0
2,note_on,61,44,0
2,note_on,76,54,0
2,note_on,76,0,240
2,note_on,61,0,0
2,note_on,87,55,0
2,note_on,87,0,180
2,note_on,85,55,60
2,note_on,85,0,180
2,note_on,68,37,60
2,note_on,84,59,0
2,note_on,84,0,180
2,note_on,68,0,60
2,note_on,82,55,0
2,note_on,82,0,180
2,note_on,84,54,60
2,note_on,84,0,180
2,note_on,73,39,60
2,note_on,85,51,0
2,note_on,85,0,180
2,note_on,73,0,60
2,note_on,88,47,0
2,note_on,88,0,120
2,note_on,63,41,600
2,note_on,78,57,0
2,note_on,78,0,240
2,note_on,63,0,0
2,note_on,61,41,0
2,note_on,76,56,0
2,note_on,76,0,240
2,note_on,61,0,0
2,note_on,59,44,0
2,note_on,75,54,0
2,note_on,75,0,240
2,note_on,59,0,0
2,note_on,85,55,0
2,note_on,85,0,180
2,note_on,83,55,60
2,note_on,83,0,180
2,note_on,66,37,60
2,note_on,82,59,0
2,note_on,82,0,180
2,note_on,66,0,60
2,note_on,80,55,0
2,note_on,80,0,180
2,note_on,82,54,60
2,note_on,82,0,180
2,note_on,71,39,60
2,note_on,83,51,0
2,note_on,83,0,180
2,note_on,71,0,60
2,note_on,87,47,0
2,note_on,87,0,120
2,note_on,63,40,600
2,note_on,67,40,0
2,note_on,75,45,0
2,note_on,75,0,240
2,note_on,67,0,0
2,note_on,63,0,0
2,note_on,65,37,0
2,note_on,68,37,0
2,note_on,74,43,0
2,note_on,74,0,240
2,note_on,68,0,0
2,note_on,65,0,0
2,note_on,67,35,0
2,note_on,70,35,0
2,note_on,73,39,0
2,note_on,73,0,240
2,note_on,70,0,0
2,note_on,67,0,0
2,note_on,68,43,480
2,note_on,71,43,0
2,note_on,76,47,0
2,note_on,76,0,240
2,note_on,71,0,0
2,note_on,68,0,0
2,note_on,63,39,420
2,note_on,79,49,60
2,note_on,79,0,240
2,note_on,63,0,0
2,note_on,63,40,720
2,note_on,67,40,0
2,note_on,75,45,0
2,note_on,75,0,240
2,note_on,67,0,0
2,note_on,63,0,0
2,note_on,65,37,0
2,note_on,68,37,0
2,note_on,74,43,0
2,note_on,74,0,240
2,note_on,68,0,0
2,note_on,65,0,0
2,note_on,67,35,0
2,note_on,70,35,0
2,note_on,73,39,0
2,note_on,73,0,240
2,note_on,70,0,0
2,note_on,67,0,0
2,note_on,68,43,480
2,note_on,71,43,0
2,note_on,76,47,0
2,note_on,76,0,240
2,note_on,71,0,0
2,note_on,68,0,0
2,note_on,79,39,480
2,note_on,63,35,0
2,note_on,70,35,0
2,note_on,70,0,240
2,note_on,63,0,0
2,note_on,79,0,0
2,note_on,56,43,480
2,note_on,71,47,0
2,note_on,71,0,240
2,note_on,56,0,0
2,note_on,51,39,480
2,note_on,67,39,0
2,note_on,67,0,240
2,note_on,51,0,0
2,note_on,44,63,480
2,note_on,59,63,0
2,note_on,59,0,240
2,note_on,44,0,0
2,note_on,43,41,3960
2,note_on,58,41,60
2,note_on,61,51,60
2,note_on,61,0,240
2,note_on,58,0,0
2,note_on,43,0,0
2,note_on,75,48,3282
2,note_on,75,0,180
2,note_on,87,51,60
2,note_on,87,0,222
2,note_on,85,48,240
2,note_on,85,0,180
2,note_on,68,30,60
2,note_on,83,50,0
2,note_on,83,0,180
2,note_on,68,0,60
2,note_on,83,35,0
2,note_on,83,0,180
2,note_on,82,43,60
2,note_on,82,0,180
2,note_on,80,40,60
2,note_on,71,40,0
2,note_on,80,0,180
2,note_on,71,0,60
2,note_on,79,26,0
2,note_on,79,0,180
2,note_on,80,41,60
2,note_on,80,0,180
2,note_on,79,40,60
2,note_on,82,50,0
2,note_on,82,0,194
2,note_on,79,0,0
2,note_on,75,28,0
2,note_on,75,0,180
2,note_on,75,37,60
2,note_on,75,0,163
2,note_on,76,42,60
2,note_on,70,42,0
2,note_on,67,42,0
2,note_on,76,0,180
2,note_on,67,0,60
2,note_on,70,0,0
2,note_on,75,35,0
2,note_on,75,0,180
2,note_on,73,29,60
2,note_on,73,0,180
2,note_on,68,29,60
2,note_on,71,44,0
2,note_on,71,0,134
2,note_on,68,0,0
2,note_on,71,35,60
2,note_on,68,35,0
2,note_on,68,0,180
2,note_on,71,0,0
2,note_on,66,27,60
2,note_on,70,41,0
2,note_on,70,0,166
2,note_on,66,0,0
2,note_on,68,37,60
2,note_on,64,37,0
2,note_on,64,0,180
2,note_on,68,0,0
2,note_on,67,28,60
2,note_on,67,0,180
2,note_on,68,29,60
2,note_on,68,0,180
2,note_on,67,26,60
2,note_on,70,38,0
2,note_on,70,0,201
2,note_on,67,0,0
2,note_on,63,36,0
2,note_on,63,0,240
2,note_on,63,40,166
2,note_on,63,0,60
2,note_on,75,50,0
2,note_on,75,0,180
2,note_on,75,46,60
2,note_on,75,0,180
2,note_on,73,45,60
2,note_on,73,0,180
2,note_on,56,42,60
2,note_on,71,54,0
2,note_on,71,0,180
2,note_on,56,0,60
2,note_on,71,50,0
2,note_on,71,0,180
2,note_on,70,51,60
2,note_on,70,0,180
2,note_on,59,37,60
2,note_on,68,54,0
2,note_on,68,0,180
2,note_on,59,0,60
2,note_on,67,50,0
2,note_on,67,0,180
2,note_on,68,51,60
2,note_on,68,0,180
2,note_on,67,44,60
2,note_on,70,59,0
2,note_on,70,0,240
2,note_on,67,0,0
2,note_on,63,54,0
2,note_on,63,0,180
2,note_on,63,54,60
2,note_on,63,0,180
2,note_on,68,45,60
2,note_on,59,45,0
2,note_on,59,0,180
2,note_on,68,0,0
2,note_on,66,43,60
2,note_on,60,44,0
2,note_on,60,0,180
2,note_on,66,0,0
2,note_on,64,49,60
2,note_on,61,37,0
2,note_on,61,0,180
2,note_on,64,0,0
2,note_on,63,59,60
2,note_on,63,0,240
2,note_on,63,52,480
2,note_on,63,0,240
2,note_on,56,52,480
2,note_on,63,40,63
2,note_on,63,0,60
2,note_on,71,40,0
2,note_on,71,0,60
2,note_on,56,0,0
2,note_on,80,46,0
2,note_on,80,0,32
2,note_on,32,44,1080
2,note_on,44,50,0
2,note_on,44,0,205
2,note_on,32,0,0
2,note_on,51,39,0
2,note_on,63,44,0
2,note_on,59,39,0
2,note_on,59,0,120
2,note_on,63,0,0
2,note_on,51,0,0
2,note_on,63,44,120
2,note_on,59,39,0
2,note_on,56,39,0
2,note_on,56,0,71
2,note_on,59,0,0
2,note_on,63,0,0
2,note_on,35,43,120
2,note_on,47,47,0
2,note_on,47,0,194
2,note_on,35,0,0
2,note_on,63,44,0
2,note_on,59,39,0
2,note_on,51,39,0
2,note_on,51,0,120
2,note_on,59,0,0
2,note_on,63,0,0
2,note_on,63,44,120
2,note_on,59,39,0
2,note_on,56,39,0
2,note_on,56,0,74
2,note_on,59,0,0
2,note_on,63,0,0
2,note_on,39,44,0
2,note_on,51,49,0
2,note_on,51,0,180
2,note_on,39,0,0
2,note_on,67,44,0
2,note_on,63,39,0
2,note_on,55,39,0
2,note_on,55,0,180
2,note_on,63,0,0
2,note_on,67,0,0
2,note_on,67,44,60
2,note_on,63,39,0
2,note_on,58,39,0
2,note_on,58,0,175
2,note_on,63,0,0
2,note_on,67,0,0
2,note_on,43,51,60
2,note_on,43,0,176
2,note_on,61,37,0
2,note_on,63,37,0
2,note_on,70,43,0
2,note_on,70,0,180
2,note_on,63,0,0
2,note_on,61,0,0
2,note_on,58,37,60
2,note_on,63,37,0
2,note_on,70,43,0
2,note_on,70,0,180
2,note_on,63,0,0
2,note_on,58,0,0
2,note_on,44,47,60
2,note_on,44,0,194
2,note_on,68,40,0
2,note_on,63,35,0
2,note_on,63,0,180
2,note_on,68,0,0
2,note_on,63,40,60
2,note_on,59,35,0
2,note_on,59,0,128
2,note_on,63,0,0
2,note_on,40,46,60
2,note_on,40,0,185
2,note_on,62,37,0
2,note_on,59,34,0
2,note_on,59,0,180
2,note_on,62,0,0
2,note_on,62,37,60
2,note_on,58,34,0
2,note_on,58,0,131
2,note_on,62,0,0
2,note_on,39,43,0
2,note_on,39,0,166
2,note_on,55,34,0
2,note_on,58,37,0
2,note_on,58,0,240
2,note_on,55,0,0
2,note_on,70,36,0
2,note_on,67,33,0
2,note_on,67,0,240
2,note_on,70,0,0
2,note_on,82,43,0
2,note_on,79,37,0
2,note_on,79,0,240
2,note_on,82,0,0
2,note_on,44,43,474
2,note_on,44,0,205
2,note_on,66,40,0
2,note_on,63,35,0
2,note_on,57,35,0
2,note_on,57,0,180
2,note_on,63,0,0
2,note_on,66,0,0
2,note_on,60,35,60
2,note_on,63,35,0
2,note_on,66,40,0
2,note_on,66,0,174
2,note_on,63,0,0
2,note_on,60,0,0
2,note_on,48,43,60
2,note_on,48,0,177
2,note_on,66,40,0
2,note_on,63,35,0
2,note_on,57,35,0
2,note_on,57,0,180
2,note_on,63,0,0
2,note_on,66,0,0
2,note_on,60,35,60
2,note_on,63,35,0
2,note_on,66,40,0
2,note_on,66,0,180
2,note_on,63,0,0
2,note_on,60,0,0
2,note_on,52,43,60
2,note_on,52,0,173
2,note_on,64,32,0
2,note_on,69,36,0
2,note_on,69,0,240
2,note_on,64,0,0
2,note_on,60,35,0
2,note_on,69,40,0
2,note_on,69,0,229
2,note_on,60,0,0
2,note_on,61,39,0
2,note_on,69,44,0
2,note_on,69,0,162
2,note_on,61,0,0
2,note_on,66,34,0
2,note_on,69,37,0
2,note_on,69,0,240
2,note_on,66,0,0
2,note_on,64,32,0
2,note_on,69,36,0
2,note_on,69,0,240
2,note_on,64,0,0
2,note_on,71,44,0
2,note_on,68,39,0
2,note_on,63,39,0
2,note_on,63,0,231
2,note_on,68,0,0
2,note_on,71,0,0
2,note_on,67,46,1200
2,note_on,61,42,0
2,note_on,51,42,0
2,note_on,51,0,240
2,note_on,61,0,0
2,note_on,67,0,0
2,note_on,44,41,1200
2,note_on,44,0,47
2,note_on,51,41,0
2,note_on,51,0,80
2,note_on,56,41,0
2,note_on,56,0,80
2,note_on,71,41,240
2,note_on,71,0,80
2,note_on,75,41,0
2,note_on,75,0,80
2,note_on,80,41,0
2,note_on,80,0,80
2,note_on,68,33,240
2,note_on,68,0,90
2,note_on,67,36,30
2,note_on,70,36,0
2,note_on,70,0,90
2,note_on,67,0,0
2,note_on,66,37,30
2,note_on,69,37,0
2,note_on,69,0,90
2,note_on,66,0,0
2,note_on,65,41,30
2,note_on,68,41,0
2,note_on,68,0,90
2,note_on,65,0,0
2,note_on,64,45,30
2,note_on,67,45,0
2,note_on,67,0,90
2,note_on,64,0,0
2,note_on,47,47,30
2,note_on,47,0,90
2,note_on,63,34,30
2,note_on,63,0,90
2,note_on,54,32,30
2,note_on,59,44,0
2,note_on,59,0,90
2,note_on,54,0,0
2,note_on,63,34,30
2,note_on,63,0,90
2,note_on,47,44,30
2,note_on,47,0,90
2,note_on,63,34,30
2,note_on,63,0,90
2,note_on,42,45,30
2,note_on,42,0,90
2,note_on,64,33,30
2,note_on,64,0,90
2,note_on,54,34,30
2,note_on,58,45,0
2,note_on,58,0,90
2,note_on,54,0,0
2,note_on,64,36,30
2,note_on,64,0,90
2,note_on,42,46,30
2,note_on,42,0,90
2,note_on,64,36,30
2,note_on,64,0,90
2,note_on,47,47,30
2,note_on,47,0,120
2,note_on,63,39,0
2,note_on,63,0,90
2,note_on,54,39,30
2,note_on,54,0,90
2,note_on,47,37,30
2,note_on,47,0,90
2,note_on,42,36,30
2,note_on,42,0,90
2,note_on,35,36,30
2,note_on,35,0,90
2,note_on,71,33,150
2,note_on,71,0,90
2,note_on,71,36,30
2,note_on,74,36,0
2,note_on,74,0,90
2,note_on,71,0,0
2,note_on,70,37,30
2,note_on,73,37,0
2,note_on,73,0,90
2,note_on,70,0,0
2,note_on,69,41,30
2,note_on,72,41,0
2,note_on,72,0,90
2,note_on,69,0,0
2,note_on,68,45,30
2,note_on,71,45,0
2,note_on,71,0,90
2,note_on,68,0,0
2,note_on,51,47,30
2,note_on,51,0,90
2,note_on,66,34,30
2,note_on,66,0,90
2,note_on,58,32,30
2,note_on,63,44,0
2,note_on,63,0,90
2,note_on,58,0,0
2,note_on,66,34,30
2,note_on,66,0,90
2,note_on,51,44,30
2,note_on,51,0,90
2,note_on,66,34,30
2,note_on,66,0,90
2,note_on,46,45,30
2,note_on,46,0,90
2,note_on,68,33,30
2,note_on,68,0,90
2,note_on,58,34,30
2,note_on,62,45,0
2,note_on,62,0,90
2,note_on,58,0,0
2,note_on,68,36,30
2,note_on,68,0,90
2,note_on,46,46,30
2,note_on,46,0,90
2,note_on,68,36,30
2,note_on,68,0,90
2,note_on,51,47,30
2,note_on,51,0,120
2,note_on,66,39,0
2,note_on,66,0,90
2,note_on,58,39,30
2,note_on,58,0,90
2,note_on,51,37,30
2,note_on,51,0,90
2,note_on,46,37,30
2,note_on,46,0,90
2,note_on,39,36,30
2,note_on,39,0,90
2,note_on,75,33,150
2,note_on,75,0,90
2,note_on,74,36,30
2,note_on,77,36,0
2,note_on,77,0,90
2,note_on,74,0,0
2,note_on,73,37,30
2,note_on,76,37,0
2,note_on,76,0,90
2,note_on,73,0,0
2,note_on,72,41,30
2,note_on,75,41,0
2,note_on,75,0,90
2,note_on,72,0,0
2,note_on,71,45,30
2,note_on,74,45,0
2,note_on,74,0,90
2,note_on,71,0,0
2,note_on,54,47,30
2,note_on,54,0,90
2,note_on,70,34,30
2,note_on,70,0,90
2,note_on,61,32,30
2,note_on,66,44,0
2,note_on,66,0,90
2,note_on,61,0,0
2,note_on,70,34,30
2,note_on,70,0,90
2,note_on,54,44,30
2,note_on,54,0,90
2,note_on,70,34,30
2,note_on,70,0,90
2,note_on,49,45,30
2,note_on,49,0,90
2,note_on,71,33,30
2,note_on,71,0,90
2,note_on,61,34,30
2,note_on,65,45,0
2,note_on,65,0,90
2,note_on,61,0,0
2,note_on,71,36,30
2,note_on,71,0,90
2,note_on,49,46,30
2,note_on,49,0,90
2,note_on,71,36,30
2,note_on,71,0,90
2,note_on,54,46,30
2,note_on,54,0,183
2,note_on,61,45,0
2,note_on,61,0,90
2,note_on,70,45,30
2,note_on,70,0,90
2,note_on,78,43,30
2,note_on,78,0,90
2,note_on,82,41,30
2,note_on,82,0,90
2,note_on,47,40,12
2,note_on,47,0,177
2,note_on,59,43,0
2,note_on,59,0,90
2,note_on,68,41,30
2,note_on,68,0,90
2,note_on,75,41,30
2,note_on,75,0,90
2,note_on,80,40,30
2,note_on,80,0,90
2,note_on,49,45,30
2,note_on,49,0,165
2,note_on,58,43,0
2,note_on,58,0,90
2,note_on,66,41,30
2,note_on,66,0,90
2,note_on,73,40,30
2,note_on,73,0,90
2,note_on,78,37,30
2,note_on,78,0,90
2,note_on,61,47,30
2,note_on,61,0,154
2,note_on,77,43,0
2,note_on,77,0,90
2,note_on,68,41,30
2,note_on,68,0,90
2,note_on,61,40,30
2,note_on,61,0,4
2,note_on,71,39,30
2,note_on,71,0,90
2,note_on,66,46,0
2,note_on,70,46,0
2,note_on,70,0,23
2,note_on,66,0,0
2,note_on,42,61,0
2,note_on,54,61,0
2,note_on,54,0,90
2,note_on,42,0,0
2,note_on,42,64,30
2,note_on,54,64,0
2,note_on,54,0,90
2,note_on,42,0,0
2,note_on,43,66,30
2,note_on,55,66,0
2,note_on,55,0,90
2,note_on,43,0,0
2,note_on,43,70,30
2,note_on,55,70,0
2,note_on,55,0,90
2,note_on,43,0,0
2,note_on,44,71,30
2,note_on,56,71,0
2,note_on,56,0,90
2,note_on,44,0,0
2,note_on,44,71,23
2,note_on,56,71,0
2,note_on,56,0,90
2,note_on,44,0,0
2,note_on,68,64,270
2,note_on,80,64,0
2,note_on,80,0,90
2,note_on,68,0,0
2,note_on,68,64,30
2,note_on,80,64,0
2,note_on,80,0,90
2,note_on,68,0,0
2,note_on,75,54,0
2,note_on,80,54,0
2,note_on,80,0,90
2,note_on,80,43,30
2,note_on,80,0,90
2,note_on,75,0,30
2,note_on,73,43,0
2,note_on,80,43,0
2,note_on,80,0,90
2,note_on,80,43,30
2,note_on,80,0,90
2,note_on,73,0,30
2,note_on,72,43,0
2,note_on,80,43,0
2,note_on,80,0,90
2,note_on,80,43,30
2,note_on,80,0,90
2,note_on,72,0,30
2,note_on,70,43,0
2,note_on,80,43,0
2,note_on,80,0,90
2,note_on,80,43,30
2,note_on,80,0,90
2,note_on,70,0,30
2,note_on,72,43,0
2,note_on,80,43,0
2,note_on,80,0,90
2,note_on,80,43,30
2,note_on,80,0,90
2,note_on,72,0,30
2,note_on,73,46,0
2,note_on,80,46,0
2,note_on,80,0,240
2,note_on,73,0,0
2,note_on,44,61,0
2,note_on,56,61,0
2,note_on,56,0,90
2,note_on,44,0,0
2,note_on,44,64,30
2,note_on,56,64,0
2,note_on,56,0,90
2,note_on,44,0,0
2,note_on,43,66,30
2,note_on,55,66,0
2,note_on,55,0,90
2,note_on,43,0,0
2,note_on,43,70,30
2,note_on,55,70,0
2,note_on,55,0,90
2,note_on,43,0,0
2,note_on,42,71,30
2,note_on,54,71,0
2,note_on,54,0,27
2,note_on,42,0,0
2,note_on,42,71,30
2,note_on,54,71,0
2,note_on,54,0,90
2,note_on,42,0,0
2,note_on,66,64,270
2,note_on,78,64,0
2,note_on,78,0,90
2,note_on,66,0,0
2,note_on,66,64,30
2,note_on,78,64,0
2,note_on,78,0,90
2,note_on,66,0,0
2,note_on,73,54,270
2,note_on,78,54,0
2,note_on,78,0,73
2,note_on,78,43,30
2,note_on,78,0,90
2,note_on,73,0,30
2,note_on,71,43,0
2,note_on,78,43,0
2,note_on,78,0,90
2,note_on,78,43,30
2,note_on,78,0,90
2,note_on,71,0,30
2,note_on,70,43,0
2,note_on,78,43,0
2,note_on,78,0,90
2,note_on,78,43,30
2,note_on,78,0,90
2,note_on,70,0,30
2,note_on,68,43,0
2,note_on,78,43,0
2,note_on,78,0,90
2,note_on,78,43,30
2,note_on,78,0,90
2,note_on,68,0,30
2,note_on,70,43,0
2,note_on,78,43,0
2,note_on,78,0,90
2,note_on,78,43,30
2,note_on,78,0,90
2,note_on,70,0,30
2,note_on,71,46,0
2,note_on,78,46,0
2,note_on,78,0,240
2,note_on,71,0,0
2,note_on,41,63,0
2,note_on,53,63,0
2,note_on,53,0,90
2,note_on,41,0,0
2,note_on,41,65,30
2,note_on,53,65,0
2,note_on,53,0,90
2,note_on,41,0,0
2,note_on,40,67,30
2,note_on,52,67,0
2,note_on,52,0,90
2,note_on,40,0,0
2,note_on,40,70,30
2,note_on,52,70,0
2,note_on,52,0,90
2,note_on,40,0,0
2,note_on,39,71,30
2,note_on,51,71,0
2,note_on,51,0,38
2,note_on,39,0,0
2,note_on,39,71,30
2,note_on,51,71,0
2,note_on,51,0,90
2,note_on,39,0,0
2,note_on,63,64,270
2,note_on,75,64,0
2,note_on,75,0,90
2,note_on,63,0,0
2,note_on,63,64,30
2,note_on,75,64,0
2,note_on,75,0,90
2,note_on,63,0,0
2,note_on,63,49,0
2,note_on,67,49,0
2,note_on,67,0,120
2,note_on,63,0,0
2,note_on,63,50,0
2,note_on,67,50,0
2,note_on,67,0,120
2,note_on,63,0,0
2,note_on,65,52,0
2,note_on,68,52,0
2,note_on,68,0,120
2,note_on,65,0,0
2,note_on,65,54,0
2,note_on,68,54,0
2,note_on,68,0,120
2,note_on,65,0,0
2,note_on,66,55,0
2,note_on,69,55,0
2,note_on,69,0,120
2,note_on,66,0,0
2,note_on,66,55,0
2,note_on,69,55,0
2,note_on,69,0,120
2,note_on,66,0,0
2,note_on,64,54,0
2,note_on,67,54,0
2,note_on,67,0,120
2,note_on,64,0,0
2,note_on,64,54,0
2,note_on,67,54,0
2,note_on,67,0,120
2,note_on,64,0,0
2,note_on,62,52,0
2,note_on,65,52,0
2,note_on,65,0,120
2,note_on,62,0,0
2,note_on,62,52,0
2,note_on,65,52,0
2,note_on,65,0,120
2,note_on,62,0,0
2,note_on,63,51,0
2,note_on,63,0,240
2,note_on,34,70,0
2,note_on,46,70,0
2,note_on,46,0,90
2,note_on,34,0,0
2,note_on,34,70,30
2,note_on,46,70,0
2,note_on,46,0,90
2,note_on,34,0,0
2,note_on,38,71,30
2,note_on,50,71,0
2,note_on,50,0,90
2,note_on,38,0,0
2,note_on,38,73,30
2,note_on,50,73,0
2,note_on,50,0,90
2,note_on,38,0,0
2,note_on,39,77,30
2,note_on,51,77,0
2,note_on,51,0,33
2,note_on,39,0,0
2,note_on,39,77,30
2,note_on,51,77,0
2,note_on,51,0,90
2,note_on,39,0,0
2,note_on,63,71,270
2,note_on,75,71,0
2,note_on,75,0,90
2,note_on,63,0,0
2,note_on,63,71,30
2,note_on,75,71,0
2,note_on,75,0,90
2,note_on,63,0,0
2,note_on,67,57,270
2,note_on,75,57,0
2,note_on,75,0,78
2,note_on,67,0,0
2,note_on,67,59,30
2,note_on,75,59,0
2,note_on,75,0,90
2,note_on,67,0,0
2,note_on,68,61,30
2,note_on,77,61,0
2,note_on,77,0,90
2,note_on,68,0,0
2,note_on,68,62,30
2,note_on,77,62,0
2,note_on,77,0,90
2,note_on,68,0,0
2,note_on,69,63,30
2,note_on,78,63,0
2,note_on,78,0,90
2,note_on,69,0,0
2,note_on,69,64,30
2,note_on,78,64,0
2,note_on,78,0,90
2,note_on,69,0,0
2,note_on,70,64,30
2,note_on,79,64,0
2,note_on,79,0,90
2,note_on,70,0,0
2,note_on,70,63,30
2,note_on,79,63,0
2,note_on,79,0,90
2,note_on,70,0,0
2,note_on,74,63,30
2,note_on,77,63,0
2,note_on,77,0,90
2,note_on,74,0,0
2,note_on,74,62,30
2,note_on,77,62,0
2,note_on,77,0,90
2,note_on,74,0,0
2,note_on,70,62,30
2,note_on,75,62,0
2,note_on,75,0,90
2,note_on,70,0,0
2,note_on,70,62,30
2,note_on,75,62,0
2,note_on,75,0,90
2,note_on,70,0,0
2,note_on,68,61,30
2,note_on,71,61,0
2,note_on,71,0,90
2,note_on,68,0,0
2,note_on,68,61,30
2,note_on,71,61,0
2,note_on,71,0,90
2,note_on,68,0,0
2,note_on,66,61,30
2,note_on,69,61,0
2,note_on,69,0,90
2,note_on,66,0,0
2,note_on,66,62,30
2,note_on,69,62,0
2,note_on,69,0,90
2,note_on,66,0,0
2,note_on,67,62,30
2,note_on,70,62,0
2,note_on,70,0,90
2,note_on,67,0,0
2,note_on,67,62,30
2,note_on,70,62,0
2,note_on,70,0,90
2,note_on,67,0,0
2,note_on,64,62,30
2,note_on,67,62,0
2,note_on,67,0,90
2,note_on,64,0,0
2,note_on,64,61,30
2,note_on,67,61,0
2,note_on,67,0,90
2,note_on,64,0,0
2,note_on,62,61,30
2,note_on,65,61,0
2,note_on,65,0,90
2,note_on,62,0,0
2,note_on,62,60,30
2,note_on,65,60,0
2,note_on,65,0,90
2,note_on,62,0,0
2,note_on,58,60,30
2,note_on,63,60,0
2,note_on,63,0,90
2,note_on,58,0,0
2,note_on,58,59,30
2,note_on,63,59,0
2,note_on,63,0,90
2,note_on,58,0,0
2,note_on,56,59,30
2,note_on,59,59,0
2,note_on,59,0,90
2,note_on,56,0,0
2,note_on,56,59,30
2,note_on,59,59,0
2,note_on,59,0,90
2,note_on,56,0,0
2,note_on,54,57,30
2,note_on,57,57,0
2,note_on,57,0,90
2,note_on,54,0,0
2,note_on,54,63,30
2,note_on,57,63,0
2,note_on,57,0,90
2,note_on,54,0,0
2,note_on,55,66,30
2,note_on,58,66,0
2,note_on,58,0,90
2,note_on,55,0,0
2,note_on,55,66,30
2,note_on,58,66,0
2,note_on,58,0,90
2,note_on,55,0,0
2,note_on,52,65,30
2,note_on,55,65,0
2,note_on,55,0,90
2,note_on,52,0,0
2,note_on,52,64,30
2,note_on,55,64,0
2,note_on,55,0,90
2,note_on,52,0,0
2,note_on,50,64,30
2,note_on,53,64,0
2,note_on,53,0,90
2,note_on,50,0,0
2,note_on,50,63,30
2,note_on,53,63,0
2,note_on,53,0,90
2,note_on,50,0,0
2,note_on,46,63,30
2,note_on,51,63,0
2,note_on,51,0,90
2,note_on,46,0,0
2,note_on,46,62,30
2,note_on,51,62,0
2,note_on,51,0,90
2,note_on,46,0,0
2,note_on,44,61,30
2,note_on,47,61,0
2,note_on,47,0,90
2,note_on,44,0,0
2,note_on,44,61,30
2,note_on,47,61,0
2,note_on,47,0,90
2,note_on,44,0,0
2,note_on,42,57,30
2,note_on,45,57,0
2,note_on,45,0,90
2,note_on,42,0,0
2,note_on,42,59,30
2,note_on,45,59,0
2,note_on,45,0,90
2,note_on,42,0,0
2,note_on,43,61,30
2,note_on,46,61,0
2,note_on,46,0,90
2,note_on,43,0,0
2,note_on,43,62,30
2,note_on,46,62,0
2,note_on,46,0,90
2,note_on,43,0,0
2,note_on,43,64,30
2,note_on,46,64,0
2,note_on,46,0,90
2,note_on,43,0,0
2,note_on,43,65,30
2,note_on,46,65,0
2,note_on,46,0,90
2,note_on,43,0,0
2,note_on,38,67,30
2,note_on,47,67,0
2,note_on,47,0,90
2,note_on,38,0,0
2,note_on,38,69,30
2,note_on,47,69,0
2,note_on,47,0,90
2,note_on,38,0,0
2,note_on,39,71,30
2,note_on,46,71,0
2,note_on,46,0,240
2,note_on,39,0,0
2,note_on,50,81,63
2,note_on,50,0,120
2,note_on,51,81,51
2,note_on,51,0,120
2,note_on,57,81,51
2,note_on,57,0,120
2,note_on,58,81,51
2,note_on,58,0,120
2,note_on,50,57,45
2,note_on,62,69,0
2,note_on,62,0,120
2,note_on,50,0,0
2,note_on,51,56,63
2,note_on,63,67,0
2,note_on,63,0,120
2,note_on,51,0,0
2,note_on,57,69,51
2,note_on,69,69,0
2,note_on,69,0,120
2,note_on,57,0,0
2,note_on,58,70,45
2,note_on,70,70,0
2,note_on,70,0,120
2,note_on,58,0,0
2,note_on,62,71,63
2,note_on,74,71,0
2,note_on,74,0,120
2,note_on,62,0,0
2,note_on,63,72,34
2,note_on,75,72,0
2,note_on,75,0,120
2,note_on,63,0,0
2,note_on,69,72,34
2,note_on,81,72,0
2,note_on,81,0,120
2,note_on,69,0,0
2,note_on,70,72,51
2,note_on,82,72,0
2,note_on,82,0,120
2,note_on,70,0,0
2,note_on,74,76,57
2,note_on,86,76,0
2,note_on,86,0,120
2,note_on,74,0,0
2,note_on,75,72,51
2,note_on,87,72,0
2,note_on,87,0,120
2,note_on,75,0,0
2,note_on,74,76,34
2,note_on,86,76,0
2,note_on,86,0,120
2,note_on,74,0,0
2,note_on,75,72,57
2,note_on,87,72,0
2,note_on,87,0,120
2,note_on,75,0,0
2,note_on,74,72,45
2,note_on,86,72,0
2,note_on,86,0,120
2,note_on,74,0,0
2,note_on,73,72,68
2,note_on,85,72,0
2,note_on,85,0,120
2,note_on,73,0,0
2,note_on,70,72,120
2,note_on,82,72,0
2,note_on,82,0,120
2,note_on,70,0,0
2,note_on,67,73,120
2,note_on,79,73,0
2,note_on,79,0,120
2,note_on,67,0,0
2,note_on,63,73,120
2,note_on,75,73,0
2,note_on,75,0,120
2,note_on,63,0,0
2,note_on,61,75,120
2,note_on,73,75,0
2,note_on,73,0,120
2,note_on,61,0,0
2,note_on,58,76,120
2,note_on,70,76,0
2,note_on,70,0,120
2,note_on,58,0,0
2,note_on,67,77,120
2,note_on,55,77,0
2,note_on,55,0,120
2,note_on,67,0,0
2,note_on,63,79,120
2,note_on,51,79,0
2,note_on,51,0,120
2,note_on,63,0,0
2,note_on,61,79,120
2,note_on,49,79,0
2,note_on,49,0,120
2,note_on,61,0,0
2,note_on,58,80,120
2,note_on,46,80,0
2,note_on,46,0,120
2,note_on,58,0,0
2,note_on,55,81,120
2,note_on,43,81,0
2,note_on,43,0,120
2,note_on,55,0,0
2,note_on,39,81,120
2,note_on,51,81,0
2,note_on,51,0,120
2,note_on,39,0,0
2,note_on,63,72,1920
2,note_on,63,0,106
2,note_on,75,80,99
2,note_on,75,0,120
2,note_on,32,57,226
2,note_on,44,64,0
2,note_on,44,0,211
2,note_on,32,0,0
2,note_on,51,53,0
2,note_on,63,59,0
2,note_on,59,53,0
2,note_on,59,0,90
2,note_on,63,0,0
2,note_on,51,0,0
2,note_on,51,53,30
2,note_on,59,53,0
2,note_on,63,59,0
2,note_on,63,0,90
2,note_on,59,0,0
2,note_on,51,0,0
2,note_on,56,53,30
2,note_on,59,53,0
2,note_on,63,59,0
2,note_on,63,0,5
2,note_on,59,0,0
2,note_on,56,0,0
2,note_on,35,64,0
2,note_on,47,64,0
2,note_on,47,0,171
2,note_on,35,0,0
2,note_on,51,53,0
2,note_on,59,53,0
2,note_on,63,59,0
2,note_on,63,0,15
2,note_on,59,0,0
2,note_on,51,0,0
2,note_on,63,59,30
2,note_on,59,53,0
2,note_on,51,53,0
2,note_on,51,0,90
2,note_on,59,0,0
2,note_on,63,0,0
2,note_on,56,53,30
2,note_on,59,53,0
2,note_on,63,59,0
2,note_on,63,0,171
2,note_on,59,0,0
2,note_on,56,0,0
2,note_on,39,55,0
2,note_on,51,63,0
2,note_on,51,0,171
2,note_on,39,0,0
2,note_on,55,53,0
2,note_on,63,53,0
2,note_on,67,59,0
2,note_on,67,0,90
2,note_on,63,0,0
2,note_on,55,0,0
2,note_on,55,53,30
2,note_on,63,53,0
2,note_on,67,59,0
2,note_on,67,0,90
2,note_on,63,0,0
2,note_on,55,0,0
2,note_on,58,53,30
2,note_on,63,53,0
2,note_on,67,59,0
2,note_on,67,0,165
2,note_on,63,0,0
2,note_on,58,0,0
2,note_on,43,60,0
2,note_on,55,60,0
2,note_on,55,0,171
2,note_on,43,0,0
2,note_on,61,47,0
2,note_on,63,47,0
2,note_on,70,54,0
2,note_on,70,0,21
2,note_on,63,0,0
2,note_on,61,0,0
2,note_on,61,47,30
2,note_on,63,47,0
2,note_on,70,54,0
2,note_on,70,0,90
2,note_on,63,0,0
2,note_on,61,0,0
2,note_on,61,47,30
2,note_on,63,47,0
2,note_on,70,54,0
2,note_on,70,0,188
2,note_on,63,0,0
2,note_on,61,0,0
2,note_on,56,62,0
2,note_on,44,54,0
2,note_on,44,0,160
2,note_on,56,0,0
2,note_on,59,49,0
2,note_on,63,49,0
2,note_on,68,54,0
2,note_on,68,0,90
2,note_on,63,0,0
2,note_on,59,0,0
2,note_on,59,49,30
2,note_on,63,49,0
2,note_on,68,54,0
2,note_on,68,0,90
2,note_on,63,0,0
2,note_on,59,0,0
2,note_on,59,49,30
2,note_on,63,54,0
2,note_on,63,0,171
2,note_on,59,0,0
2,note_on,40,59,0
2,note_on,40,0,165
2,note_on,62,56,0
2,note_on,58,51,0
2,note_on,58,0,10
2,note_on,62,0,0
2,note_on,62,56,30
2,note_on,58,51,0
2,note_on,58,0,90
2,note_on,62,0,0
2,note_on,58,51,30
2,note_on,62,56,0
2,note_on,62,0,177
2,note_on,58,0,0
2,note_on,39,60,0
2,note_on,39,0,183
2,note_on,55,50,0
2,note_on,58,55,0
2,note_on,58,0,27
2,note_on,55,0,0
2,note_on,55,50,30
2,note_on,58,55,0
2,note_on,58,0,90
2,note_on,55,0,0
2,note_on,63,57,30
2,note_on,58,52,0
2,note_on,55,52,0
2,note_on,55,0,160
2,note_on,58,0,0
2,note_on,63,0,0
2,note_on,67,52,0
2,note_on,70,52,0
2,note_on,75,57,0
2,note_on,75,0,225
2,note_on,70,0,0
2,note_on,67,0,0
2,note_on,32,69,480
2,note_on,44,76,0
2,note_on,44,0,148
2,note_on,32,0,0
2,note_on,63,55,0
2,note_on,57,50,0
2,note_on,54,50,0
2,note_on,54,0,90
2,note_on,57,0,0
2,note_on,63,0,0
2,note_on,54,50,30
2,note_on,57,50,0
2,note_on,63,55,0
2,note_on,63,0,90
2,note_on,57,0,0
2,note_on,54,0,0
2,note_on,54,50,30
2,note_on,57,50,0
2,note_on,63,55,0
2,note_on,63,0,137
2,note_on,57,0,0
2,note_on,54,0,0
2,note_on,36,71,0
2,note_on,48,80,0
2,note_on,48,0,160
2,note_on,36,0,0
2,note_on,57,53,0
2,note_on,63,53,0
2,note_on,69,60,0
2,note_on,69,0,27
2,note_on,63,0,0
2,note_on,57,0,0
2,note_on,57,53,30
2,note_on,63,53,0
2,note_on,69,60,0
2,note_on,69,0,90
2,note_on,63,0,0
2,note_on,57,0,0
2,note_on,57,53,30
2,note_on,63,53,0
2,note_on,69,60,0
2,note_on,69,0,177
2,note_on,63,0,0
2,note_on,57,0,0
2,note_on,37,82,0
2,note_on,49,82,0
2,note_on,49,0,171
2,note_on,37,0,0
2,note_on,52,44,0
2,note_on,57,44,0
2,note_on,61,50,0
2,note_on,61,0,82
2,note_on,57,0,0
2,note_on,52,0,0
2,note_on,52,44,30
2,note_on,57,44,0
2,note_on,61,50,0
2,note_on,61,0,90
2,note_on,57,0,0
2,note_on,52,0,0
2,note_on,51,47,30
2,note_on,57,47,0
2,note_on,61,54,0
2,note_on,61,0,90
2,note_on,57,0,0
2,note_on,51,0,0
2,note_on,51,47,30
2,note_on,57,47,0
2,note_on,61,54,0
2,note_on,61,0,90
2,note_on,57,0,0
2,note_on,51,0,0
2,note_on,49,50,30
2,note_on,57,50,0
2,note_on,61,55,0
2,note_on,61,0,90
2,note_on,57,0,0
2,note_on,49,0,0
2,note_on,49,50,30
2,note_on,57,50,0
2,note_on,61,55,0
2,note_on,61,0,90
2,note_on,57,0,0
2,note_on,49,0,0
2,note_on,51,47,30
2,note_on,57,47,0
2,note_on,61,54,0
2,note_on,61,0,90
2,note_on,57,0,0
2,note_on,51,0,0
2,note_on,51,47,30
2,note_on,57,47,0
2,note_on,61,54,0
2,note_on,61,0,90
2,note_on,57,0,0
2,note_on,51,0,0
2,note_on,52,45,30
2,note_on,57,45,0
2,note_on,61,51,0
2,note_on,61,0,90
2,note_on,57,0,0
2,note_on,52,0,0
2,note_on,52,45,30
2,note_on,57,45,0
2,note_on,61,51,0
2,note_on,61,0,90
2,note_on,57,0,0
2,note_on,52,0,0
2,note_on,51,41,30
2,note_on,56,41,0
2,note_on,59,45,0
2,note_on,59,0,120
2,note_on,56,0,0
2,note_on,51,0,0
2,note_on,50,46,0
2,note_on,62,46,0
2,note_on,62,0,120
2,note_on,50,0,0
2,note_on,49,47,0
2,note_on,61,47,0
2,note_on,61,0,120
2,note_on,49,0,0
2,note_on,48,49,0
2,note_on,60,49,0
2,note_on,60,0,120
2,note_on,48,0,0
2,note_on,47,50,0
2,note_on,59,50,0
2,note_on,59,0,120
2,note_on,47,0,0
2,note_on,46,51,0
2,note_on,58,51,0
2,note_on,58,0,120
2,note_on,46,0,0
2,note_on,45,54,0
2,note_on,57,54,0
2,note_on,57,0,120
2,note_on,45,0,0
2,note_on,44,54,0
2,note_on,56,54,0
2,note_on,56,0,120
2,note_on,44,0,0
2,note_on,43,55,0
2,note_on,55,55,0
2,note_on,55,0,120
2,note_on,43,0,0
2,note_on,42,56,0
2,note_on,54,56,0
2,note_on,54,0,120
2,note_on,42,0,0
2,note_on,41,57,0
2,note_on,53,57,0
2,note_on,53,0,120
2,note_on,41,0,0
2,note_on,40,59,0
2,note_on,52,59,0
2,note_on,52,0,120
2,note_on,40,0,0
2,note_on,51,56,0
2,note_on,39,56,0
2,note_on,43,56,0
2,note_on,46,56,0
2,note_on,46,0,45
2,note_on,51,0,0
2,note_on,39,0,0
2,note_on,43,0,0
2,note_on,38,62,0
2,note_on,50,62,0
2,note_on,50,0,120
2,note_on,38,0,0
2,note_on,37,63,0
2,note_on,49,63,0
2,note_on,49,0,120
2,note_on,37,0,0
2,note_on,36,64,0
2,note_on,48,64,0
2,note_on,48,0,120
2,note_on,36,0,0
2,note_on,35,65,0
2,note_on,47,65,0
2,note_on,47,0,120
2,note_on,35,0,0
2,note_on,34,66,0
2,note_on,46,66,0
2,note_on,46,0,120
2,note_on,34,0,0
2,note_on,33,69,0
2,note_on,45,69,0
2,note_on,45,0,120
2,note_on,33,0,0
2,note_on,32,70,0
2,note_on,44,70,0
2,note_on,44,0,120
2,note_on,32,0,0
2,note_on,31,67,0
2,note_on,43,67,0
2,note_on,43,0,120
2,note_on,31,0,0
2,note_on,30,67,0
2,note_on,42,67,0
2,note_on,42,0,120
2,note_on,30,0,0
2,note_on,28,69,0
2,note_on,40,69,0
2,note_on,40,0,120
2,note_on,28,0,0
2,note_on,27,71,0
2,note_on,39,71,0
2,note_on,39,0,110
2,note_on,27,0,0
2,note_on,32,61,0
2,note_on,44,81,0
2,note_on,44,0,3
2,note_on,32,0,0
2,note_on,39,67,0
2,note_on,51,79,0
2,note_on,51,0,63
2,note_on,39,0,0
2,note_on,44,67,0
2,note_on,56,79,0
2,note_on,56,0,120
2,note_on,44,0,0
2,note_on,63,75,0
2,note_on,51,63,0
2,note_on,51,0,60
2,note_on,63,0,0
2,note_on,32,74,60
2,note_on,44,89,0
2,note_on,44,0,187
2,note_on,32,0,0
2,note_on,39,68,0
2,note_on,51,80,0
2,note_on,51,0,67
2,note_on,39,0,0
2,note_on,44,68,0
2,note_on,56,80,0
2,note_on,56,0,120
2,note_on,44,0,0
2,note_on,63,77,0
2,note_on,51,64,0
2,note_on,51,0,148
2,note_on,63,0,0
2,note_on,32,74,60
2,note_on,44,89,0
2,note_on,44,0,194
2,note_on,32,0,0
2,note_on,39,67,0
2,note_on,51,79,0
2,note_on,51,0,42
2,note_on,39,0,0
2,note_on,44,67,0
2,note_on,56,79,0
2,note_on,56,0,120
2,note_on,44,0,0
2,note_on,63,73,0
2,note_on,51,61,0
2,note_on,51,0,160
2,note_on,63,0,0
2,note_on,32,74,60
2,note_on,44,89,0
2,note_on,44,0,180
2,note_on,32,0,0
2,note_on,39,68,0
2,note_on,51,80,0
2,note_on,51,0,49
2,note_on,39,0,0
2,note_on,44,68,0
2,note_on,56,80,0
2,note_on,56,0,120
2,note_on,44,0,0
2,note_on,63,78,0
2,note_on,51,66,0
2,note_on,51,0,162
2,note_on,63,0,0
2,note_on,32,62,60
2,note_on,44,89,0
2,note_on,44,0,190
2,note_on,32,0,0
2,note_on,39,56,0
2,note_on,51,79,0
2,note_on,51,0,63
2,note_on,39,0,0
2,note_on,44,56,0
2,note_on,56,79,0
2,note_on,56,0,120
2,note_on,44,0,0
2,note_on,63,77,0
2,note_on,51,55,0
2,note_on,51,0,88
2,note_on,63,0,0
2,note_on,32,62,60
2,note_on,44,89,0
2,note_on,44,0,197
2,note_on,32,0,0
2,note_on,39,57,0
2,note_on,51,80,0
2,note_on,51,0,63
2,note_on,39,0,0
2,note_on,44,57,0
2,note_on,56,80,0
2,note_on,56,0,120
2,note_on,44,0,0
2,note_on,63,77,0
2,note_on,51,55,0
2,note_on,51,0,166
2,note_on,63,0,0
2,note_on,32,74,60
2,note_on,44,89,0
2,note_on,44,0,201
2,note_on,32,0,0
2,note_on,39,67,0
2,note_on,51,79,0
2,note_on,51,0,74
2,note_on,39,0,0
2,note_on,44,67,0
2,note_on,56,79,0
2,note_on,56,0,120
2,note_on,44,0,0
2,note_on,63,78,0
2,note_on,51,66,0
2,note_on,51,0,161
2,note_on,63,0,0
2,note_on,32,74,60
2,note_on,44,89,0
2,note_on,44,0,180
2,note_on,32,0,0
2,note_on,39,68,0
2,note_on,51,81,0
2,note_on,51,0,46
2,note_on,39,0,0
2,note_on,44,68,0
2,note_on,56,81,0
2,note_on,56,0,120
2,note_on,44,0,0
2,note_on,63,78,0
2,note_on,51,66,0
2,note_on,51,0,162
2,note_on,63,0,0
2,note_on,32,74,60
2,note_on,44,89,0
2,note_on,44,0,148
2,note_on,32,0,0
2,note_on,39,68,0
2,note_on,51,81,0
2,note_on,51,0,28
2,note_on,39,0,0
2,note_on,44,68,0
2,note_on,56,81,0
2,note_on,56,0,120
2,note_on,44,0,0
2,note_on,47,74,0
2,note_on,59,88,0
2,note_on,51,74,0
2,note_on,51,0,7
2,note_on,59,0,0
2,note_on,47,0,0
2,note_on,46,69,0
2,note_on,51,69,0
2,note_on,58,82,0
2,note_on,58,0,120
2,note_on,51,0,0
2,note_on,46,0,0
2,note_on,47,69,0
2,note_on,51,69,0
2,note_on,59,82,0
2,note_on,59,0,120
2,note_on,51,0,0
2,note_on,47,0,0
2,note_on,49,74,0
2,note_on,51,74,0
2,note_on,61,88,0
2,note_on,61,0,169
2,note_on,51,0,0
2,note_on,49,0,0
2,note_on,51,68,0
2,note_on,47,68,0
2,note_on,59,81,0
2,note_on,59,0,35
2,note_on,47,0,0
2,note_on,51,0,0
2,note_on,46,68,0
2,note_on,58,81,0
2,note_on,51,68,0
2,note_on,51,0,120
2,note_on,58,0,0
2,note_on,46,0,0
2,note_on,47,74,0
2,note_on,51,74,0
2,note_on,59,88,0
2,note_on,59,0,35
2,note_on,51,0,0
2,note_on,47,0,0
2,note_on,46,70,0
2,note_on,51,70,0
2,note_on,58,83,0
2,note_on,58,0,120
2,note_on,51,0,0
2,note_on,46,0,0
2,note_on,44,70,0
2,note_on,51,70,0
2,note_on,56,83,0
2,note_on,56,0,89
2,note_on,51,0,0
2,note_on,44,0,0
2,note_on,32,88,24
2,note_on,39,88,0
2,note_on,44,104,0
2,note_on,44,0,180
2,note_on,39,0,0
2,note_on,32,0,0
2,note_on,46,69,14
2,note_on,51,69,0
2,note_on,58,82,0
2,note_on,58,0,120
2,note_on,51,0,0
2,note_on,46,0,0
2,note_on,47,69,0
2,note_on,51,69,0
2,note_on,59,82,0
2,note_on,59,0,120
2,note_on,51,0,0
2,note_on,47,0,0
2,note_on,49,74,0
2,note_on,51,74,0
2,note_on,61,88,0
2,note_on,61,0,176
2,note_on,51,0,0
2,note_on,49,0,0
2,note_on,51,68,0
2,note_on,47,68,0
2,note_on,59,81,0
2,note_on,59,0,28
2,note_on,47,0,0
2,note_on,51,0,0
2,note_on,46,68,0
2,note_on,58,81,0
2,note_on,51,68,0
2,note_on,51,0,120
2,note_on,58,0,0
2,note_on,46,0,0
2,note_on,47,74,0
2,note_on,51,74,0
2,note_on,59,88,0
2,note_on,59,0,42
2,note_on,51,0,0
2,note_on,47,0,0
2,note_on,46,70,0
2,note_on,51,70,0
2,note_on,58,83,0
2,note_on,58,0,120
2,note_on,51,0,0
2,note_on,46,0,0
2,note_on,44,70,0
2,note_on,51,70,0
2,note_on,56,83,0
2,note_on,56,0,138
2,note_on,51,0,0
2,note_on,44,0,0
2,note_on,32,88,24
2,note_on,39,88,0
2,note_on,44,104,0
2,note_on,44,0,180
2,note_on,39,0,0
2,note_on,32,0,0
2,note_on,47,74,60
2,note_on,51,74,0
2,note_on,59,88,0
2,note_on,59,0,21
2,note_on,51,0,0
2,note_on,47,0,0
2,note_on,46,70,0
2,note_on,51,70,0
2,note_on,58,83,0
2,note_on,58,0,120
2,note_on,51,0,0
2,note_on,46,0,0
2,note_on,44,70,0
2,note_on,51,70,0
2,note_on,56,70,0
2,note_on,56,0,131
2,note_on,51,0,0
2,note_on,44,0,0
2,note_on,32,88,24
2,note_on,39,88,0
2,note_on,44,104,0
2,note_on,44,0,180
2,note_on,39,0,0
2,note_on,32,0,0
2,note_on,47,74,0
2,note_on,51,74,0
2,note_on,59,88,0
2,note_on,59,0,63
2,note_on,51,0,0
2,note_on,47,0,0
2,note_on,46,70,0
2,note_on,51,70,0
2,note_on,58,83,0
2,note_on,58,0,120
2,note_on,51,0,0
2,note_on,46,0,0
2,note_on,44,70,0
2,note_on,51,70,0
2,note_on,56,83,0
2,note_on,56,0,138
2,note_on,51,0,0
2,note_on,44,0,0
2,note_on,32,90,24
2,note_on,39,90,0
2,note_on,44,106,0
2,note_on,44,0,180
2,note_on,39,0,0
2,note_on,32,0,0
2,note_on,47,74,60
2,note_on,51,74,0
2,note_on,59,88,0
2,note_on,59,0,103
2,note_on,51,0,0
2,note_on,47,0,0
2,note_on,46,70,0
2,note_on,51,70,0
2,note_on,58,83,0
2,note_on,58,0,113
2,note_on,51,0,0
2,note_on,46,0,0
2,note_on,44,70,0
2,note_on,51,70,0
2,note_on,56,83,0
2,note_on,56,0,124
2,note_on,51,0,0
2,note_on,44,0,0
2,note_on,32,90,24
2,note_on,39,90,0
2,note_on,44,106,0
2,note_on,44,0,480
2,note_on,39,0,0
2,note_on,32,0,0
2,note_on,44,61,0
2,note_on,51,61,0
2,note_on,56,73,0
2,note_on,56,0,216
2,note_on,51,0,0
2,note_on,44,0,0
2,note_on,68,77,24
2,note_on,63,64,0
2,note_on,56,64,0
2,note_on,56,0,216
2,note_on,63,0,0
2,note_on,68,0,0
2,note_on,80,80,24
2,note_on,75,80,0
2,note_on,68,68,0
2,note_on,68,0,216
2,note_on,75,0,0
2,note_on,80,0,0
2,note_on,68,83,24
2,note_on,63,70,0
2,note_on,56,70,0
2,note_on,56,0,216
2,note_on,63,0,0
2,note_on,68,0,0
2,note_on,44,69,24
2,note_on,51,69,0
2,note_on,56,82,0
2,note_on,56,0,216
2,note_on,51,0,0
2,note_on,44,0,0
2,note_on,32,73,24
2,note_on,39,73,0
2,note_on,44,86,0
2,note_on,44,0,240
2,note_on,39,0,0
2,note_on,32,0,0
2,note_on,44,80,480
2,note_on,51,80,0
2,note_on,56,94,0
2,note_on,56,0,240
2,note_on,51,0,0
2,note_on,44,0,0
2,note_on,59,83,480
2,note_on,63,83,0
2,note_on,68,83,0
2,note_on,71,99,0
2,note_on,71,0,1440
2,note_on,59,0,0
2,note_on,63,0,0
2,note_on,68,0,0
