Track,Message Type,Note,Velocity,Time
1,note_on,63,51,1440
1,note_on,63,0,480
1,note_on,67,56,0
1,note_on,67,0,720
1,note_on,68,50,0
1,note_on,68,0,240
1,note_on,70,62,0
1,note_on,70,0,480
1,note_on,63,52,0
1,note_on,63,0,480
1,note_on,68,56,0
1,note_on,68,0,480
1,note_on,62,40,0
1,note_on,62,0,480
1,note_on,63,62,0
1,note_on,63,0,720
1,note_on,62,58,0
1,note_on,62,0,240
1,note_on,60,64,0
1,note_on,60,0,720
1,note_on,65,59,0
1,note_on,65,0,240
1,note_on,68,63,0
1,note_on,68,0,720
1,note_on,65,66,0
1,note_on,65,0,240
1,note_on,75,76,0
1,note_on,75,0,480
1,note_on,74,70,0
1,note_on,74,0,720
1,note_on,72,53,0
1,note_on,72,0,240
1,note_on,70,51,0
1,note_on,70,0,240
1,note_on,68,46,0
1,note_on,68,0,240
1,note_on,67,52,0
1,note_on,67,0,720
1,note_on,68,51,0
1,note_on,68,0,240
1,note_on,70,56,0
1,note_on,70,0,480
1,note_on,63,52,0
1,note_on,63,0,480
1,note_on,68,56,0
1,note_on,68,0,480
1,note_on,62,42,0
1,note_on,62,0,480
1,note_on,63,62,0
1,note_on,63,0,720
1,note_on,63,58,0
1,note_on,63,0,240
1,note_on,65,64,0
1,note_on,65,0,640
1,note_on,63,60,0
1,note_on,63,0,160
1,note_on,62,58,0
1,note_on,62,0,160
1,note_on,60,63,0
1,note_on,60,0,240
1,note_on,63,60,0
1,note_on,63,0,240
1,note_on,67,66,0
1,note_on,67,0,240
1,note_on,72,71,0
1,note_on,72,0,240
1,note_on,77,76,0
1,note_on,77,0,640
1,note_on,75,65,0
1,note_on,75,0,160
1,note_on,74,62,0
1,note_on,74,0,160
1,note_on,72,63,0
1,note_on,72,0,240
1,note_on,67,54,0
1,note_on,67,0,240
1,note_on,69,57,0
1,note_on,69,0,240
1,note_on,70,54,0
1,note_on,70,0,240
1,note_on,70,56,0
1,note_on,70,0,480
1,note_on,65,49,0
1,note_on,65,0,480
1,note_on,65,56,0
1,note_on,65,0,480
1,note_on,65,54,0
1,note_on,65,0,480
1,note_on,72,59,0
1,note_on,72,0,960
1,note_on,70,56,0
1,note_on,70,0,960
1,note_on,58,36,1440
1,note_on,58,0,480
1,note_on,67,56,0
1,note_on,67,0,720
1,note_on,68,50,0
1,note_on,68,0,240
1,note_on,70,62,0
1,note_on,70,0,480
1,note_on,63,52,0
1,note_on,63,0,480
1,note_on,68,56,0
1,note_on,68,0,480
1,note_on,62,40,0
1,note_on,62,0,480
1,note_on,63,62,0
1,note_on,63,0,720
1,note_on,62,58,0
1,note_on,62,0,240
1,note_on,60,64,0
1,note_on,60,0,720
1,note_on,65,59,0
1,note_on,65,0,240
1,note_on,68,63,0
1,note_on,68,0,720
1,note_on,65,66,0
1,note_on,65,0,240
1,note_on,75,77,0
1,note_on,75,0,480
1,note_on,74,70,0
1,note_on,74,0,720
1,note_on,72,53,0
1,note_on,72,0,240
1,note_on,70,51,0
1,note_on,70,0,240
1,note_on,68,49,0
1,note_on,68,0,240
1,note_on,67,52,0
1,note_on,67,0,720
1,note_on,68,51,0
1,note_on,68,0,240
1,note_on,70,62,0
1,note_on,70,0,480
1,note_on,63,52,0
1,note_on,63,0,480
1,note_on,68,56,0
1,note_on,68,0,480
1,note_on,62,42,0
1,note_on,62,0,480
1,note_on,63,62,0
1,note_on,63,0,720
1,note_on,63,58,0
1,note_on,63,0,240
1,note_on,65,64,0
1,note_on,65,0,640
1,note_on,63,60,0
1,note_on,63,0,160
1,note_on,62,58,0
1,note_on,62,0,160
1,note_on,60,63,0
1,note_on,60,0,240
1,note_on,63,60,0
1,note_on,63,0,240
1,note_on,67,66,0
1,note_on,67,0,240
1,note_on,72,72,0
1,note_on,72,0,240
1,note_on,77,77,0
1,note_on,77,0,640
1,note_on,75,65,0
1,note_on,75,0,160
1,note_on,74,62,0
1,note_on,74,0,160
1,note_on,72,63,0
1,note_on,72,0,240
1,note_on,67,53,0
1,note_on,67,0,240
1,note_on,69,58,0
1,note_on,69,0,240
1,note_on,70,52,0
1,note_on,70,0,240
1,note_on,70,56,0
1,note_on,70,0,480
1,note_on,65,49,0
1,note_on,65,0,480
1,note_on,65,56,0
1,note_on,65,0,480
1,note_on,65,54,0
1,note_on,65,0,480
1,note_on,72,59,0
1,note_on,72,0,960
1,note_on,70,56,0
1,note_on,70,0,960
1,note_on,66,46,1600
1,note_on,66,0,160
1,note_on,68,50,0
1,note_on,68,0,160
1,note_on,70,57,0
1,note_on,70,0,480
1,note_on,71,69,0
1,note_on,71,0,360
1,note_on,68,54,0
1,note_on,68,0,120
1,note_on,65,52,0
1,note_on,65,0,640
1,note_on,66,54,0
1,note_on,66,0,120
1,note_on,68,59,40
1,note_on,68,0,120
1,note_on,70,70,40
1,note_on,70,0,480
1,note_on,75,77,0
1,note_on,75,0,360
1,note_on,71,59,0
1,note_on,71,0,120
1,note_on,68,57,0
1,note_on,68,0,640
1,note_on,66,49,0
1,note_on,66,0,120
1,note_on,68,50,40
1,note_on,68,0,120
1,note_on,70,57,40
1,note_on,70,0,480
1,note_on,71,69,0
1,note_on,71,0,360
1,note_on,68,54,0
1,note_on,68,0,120
1,note_on,65,52,0
1,note_on,65,0,640
1,note_on,66,59,0
1,note_on,66,0,120
1,note_on,68,65,40
1,note_on,68,0,120
1,note_on,70,74,40
1,note_on,70,0,480
1,note_on,75,82,0
1,note_on,75,0,360
1,note_on,71,59,0
1,note_on,71,0,120
1,note_on,68,70,0
1,note_on,68,0,640
1,note_on,66,70,0
1,note_on,70,78,0
1,note_on,70,0,120
1,note_on,66,0,0
1,note_on,68,72,40
1,note_on,71,81,0
1,note_on,71,0,120
1,note_on,68,0,0
1,note_on,70,77,40
1,note_on,73,86,0
1,note_on,73,0,480
1,note_on,70,0,0
1,note_on,66,75,0
1,note_on,70,82,0
1,note_on,70,0,360
1,note_on,66,0,0
1,note_on,78,82,0
1,note_on,78,0,120
1,note_on,71,71,0
1,note_on,66,71,0
1,note_on,78,82,0
1,note_on,78,0,480
1,note_on,66,0,0
1,note_on,65,70,0
1,note_on,77,80,0
1,note_on,77,0,480
1,note_on,65,0,0
1,note_on,71,0,0
1,note_on,70,77,0
1,note_on,73,86,0
1,note_on,73,0,480
1,note_on,70,0,0
1,note_on,66,75,0
1,note_on,70,82,0
1,note_on,70,0,360
1,note_on,66,0,0
1,note_on,78,62,0
1,note_on,78,0,120
1,note_on,71,55,0
1,note_on,66,55,0
1,note_on,78,63,0
1,note_on,78,0,480
1,note_on,66,0,0
1,note_on,65,49,0
1,note_on,77,55,0
1,note_on,77,0,480
1,note_on,65,0,0
1,note_on,71,0,0
1,note_on,66,53,0
1,note_on,70,59,0
1,note_on,70,0,480
1,note_on,66,0,0
1,note_on,63,55,0
1,note_on,66,55,0
1,note_on,66,0,360
1,note_on,63,0,0
1,note_on,71,63,0
1,note_on,75,63,0
1,note_on,75,0,114
1,note_on,71,0,0
1,note_on,71,70,6
1,note_on,68,62,0
1,note_on,63,62,0
1,note_on,75,70,0
1,note_on,63,0,480
1,note_on,68,0,0
1,note_on,71,0,160
1,note_on,75,0,0
1,note_on,70,55,0
1,note_on,73,55,0
1,note_on,73,0,160
1,note_on,70,0,0
1,note_on,68,55,0
1,note_on,71,55,0
1,note_on,71,0,160
1,note_on,68,0,0
1,note_on,66,53,0
1,note_on,70,59,0
1,note_on,70,0,480
1,note_on,66,0,0
1,note_on,63,55,0
1,note_on,66,55,0
1,note_on,66,0,360
1,note_on,63,0,0
1,note_on,71,63,0
1,note_on,75,63,0
1,note_on,75,0,114
1,note_on,71,0,0
1,note_on,71,68,6
1,note_on,68,68,0
1,note_on,63,68,0
1,note_on,75,76,0
1,note_on,63,0,480
1,note_on,68,0,0
1,note_on,71,0,160
1,note_on,75,0,0
1,note_on,70,73,0
1,note_on,73,73,0
1,note_on,73,0,160
1,note_on,70,0,0
1,note_on,68,71,0
1,note_on,71,71,0
1,note_on,71,0,152
1,note_on,68,0,0
1,note_on,71,74,8
1,note_on,68,68,0
1,note_on,63,68,0
1,note_on,75,77,0
1,note_on,63,0,480
1,note_on,68,0,0
1,note_on,71,0,160
1,note_on,75,0,0
1,note_on,70,73,0
1,note_on,73,73,0
1,note_on,73,0,160
1,note_on,70,0,0
1,note_on,68,71,0
1,note_on,71,71,0
1,note_on,71,0,152
1,note_on,68,0,0
1,note_on,71,74,8
1,note_on,68,74,0
1,note_on,63,74,0
1,note_on,75,77,0
1,note_on,75,0,1680
1,note_on,71,0,0
1,note_on,68,0,0
1,note_on,63,0,0
1,note_on,74,52,0
1,note_on,74,0,240
1,note_on,77,57,0
1,note_on,77,0,240
1,note_on,75,52,0
1,note_on,75,0,240
1,note_on,71,44,0
1,note_on,71,0,240
1,note_on,68,42,0
1,note_on,68,0,240
1,note_on,67,46,0
1,note_on,67,0,720
1,note_on,68,50,0
1,note_on,68,0,240
1,note_on,70,62,0
1,note_on,70,0,480
1,note_on,63,52,0
1,note_on,63,0,480
1,note_on,68,56,0
1,note_on,68,0,480
1,note_on,62,40,0
1,note_on,62,0,480
1,note_on,63,62,0
1,note_on,63,0,720
1,note_on,62,58,0
1,note_on,62,0,240
1,note_on,60,67,0
1,note_on,60,0,720
1,note_on,65,64,0
1,note_on,65,0,240
1,note_on,68,75,0
1,note_on,72,73,229
1,note_on,68,0,11
1,note_on,72,0,229
1,note_on,79,78,11
1,note_on,79,0,360
1,note_on,77,73,0
1,note_on,77,0,120
1,note_on,75,77,0
1,note_on,75,0,480
1,note_on,74,70,0
1,note_on,74,0,960
1,note_on,74,55,0
1,note_on,74,0,160
1,note_on,72,51,0
1,note_on,72,0,160
1,note_on,70,48,0
1,note_on,70,0,160
1,note_on,67,44,0
1,note_on,70,51,0
1,note_on,70,0,480
1,note_on,67,0,0
1,note_on,63,48,0
1,note_on,67,67,0
1,note_on,67,0,360
1,note_on,63,0,0
1,note_on,75,72,0
1,note_on,75,0,114
1,note_on,68,64,6
1,note_on,63,64,0
1,note_on,75,72,0
1,note_on,75,0,480
1,note_on,63,0,0
1,note_on,62,55,0
1,note_on,74,60,0
1,note_on,74,0,480
1,note_on,62,0,0
1,note_on,68,0,0
1,note_on,67,58,0
1,note_on,70,66,0
1,note_on,70,0,480
1,note_on,67,0,0
1,note_on,63,57,0
1,note_on,67,64,0
1,note_on,67,0,360
1,note_on,63,0,0
1,note_on,75,64,0
1,note_on,75,0,114
1,note_on,68,56,6
1,note_on,63,56,0
1,note_on,75,63,0
1,note_on,75,0,480
1,note_on,63,0,0
1,note_on,62,44,0
1,note_on,74,49,0
1,note_on,74,0,480
1,note_on,62,0,0
1,note_on,68,0,0
1,note_on,63,52,0
1,note_on,67,52,0
1,note_on,67,0,480
1,note_on,63,0,0
1,note_on,60,51,0
1,note_on,63,51,0
1,note_on,63,0,360
1,note_on,60,0,0
1,note_on,67,52,0
1,note_on,70,52,0
1,note_on,70,0,114
1,note_on,67,0,0
1,note_on,60,46,6
1,note_on,67,52,0
1,note_on,70,52,0
1,note_on,70,0,240
1,note_on,67,0,0
1,note_on,65,46,0
1,note_on,68,46,0
1,note_on,68,0,240
1,note_on,65,0,0
1,note_on,60,0,0
1,note_on,63,49,0
1,note_on,67,49,0
1,note_on,67,0,240
1,note_on,63,0,0
1,note_on,62,43,0
1,note_on,65,43,0
1,note_on,65,0,240
1,note_on,62,0,0
1,note_on,56,38,0
1,note_on,58,38,0
1,note_on,65,43,0
1,note_on,65,0,960
1,note_on,58,0,0
1,note_on,56,0,0
1,note_on,55,33,0
1,note_on,58,33,0
1,note_on,63,38,0
1,note_on,63,0,480
1,note_on,58,0,0
1,note_on,55,0,0
1,note_on,66,46,160
1,note_on,63,46,0
1,note_on,63,0,160
1,note_on,66,0,0
1,note_on,68,50,0
1,note_on,65,50,0
1,note_on,65,0,160
1,note_on,68,0,0
1,note_on,70,57,0
1,note_on,70,0,480
1,note_on,71,69,0
1,note_on,71,0,360
1,note_on,68,54,0
1,note_on,68,0,120
1,note_on,65,52,0
1,note_on,65,0,640
1,note_on,66,54,0
1,note_on,66,0,120
1,note_on,68,59,40
1,note_on,68,0,120
1,note_on,70,68,40
1,note_on,70,0,480
1,note_on,75,82,0
1,note_on,75,0,360
1,note_on,71,59,0
1,note_on,71,0,120
1,note_on,68,57,0
1,note_on,68,0,640
1,note_on,66,49,0
1,note_on,66,0,120
1,note_on,68,50,40
1,note_on,68,0,120
1,note_on,70,57,40
1,note_on,70,0,480
1,note_on,71,69,0
1,note_on,71,0,360
1,note_on,68,54,0
1,note_on,68,0,120
1,note_on,65,52,0
1,note_on,65,0,640
1,note_on,66,59,0
1,note_on,66,0,120
1,note_on,68,65,40
1,note_on,68,0,120
1,note_on,70,74,40
1,note_on,70,0,480
1,note_on,75,82,0
1,note_on,75,0,360
1,note_on,71,59,0
1,note_on,71,0,120
1,note_on,68,70,0
1,note_on,68,0,640
1,note_on,66,70,0
1,note_on,70,78,0
1,note_on,70,0,120
1,note_on,66,0,0
1,note_on,68,72,40
1,note_on,71,81,0
1,note_on,71,0,120
1,note_on,68,0,0
1,note_on,70,77,40
1,note_on,73,86,0
1,note_on,73,0,480
1,note_on,70,0,0
1,note_on,66,75,0
1,note_on,70,82,0
1,note_on,70,0,360
1,note_on,66,0,0
1,note_on,78,82,0
1,note_on,78,0,114
1,note_on,71,71,6
1,note_on,66,70,0
1,note_on,78,82,0
1,note_on,78,0,480
1,note_on,66,0,0
1,note_on,65,70,0
1,note_on,77,80,0
1,note_on,77,0,480
1,note_on,65,0,0
1,note_on,71,0,0
1,note_on,70,77,0
1,note_on,73,86,0
1,note_on,73,0,480
1,note_on,70,0,0
1,note_on,66,75,0
1,note_on,70,82,0
1,note_on,70,0,360
1,note_on,66,0,0
1,note_on,78,62,0
1,note_on,78,0,114
1,note_on,71,55,6
1,note_on,66,55,0
1,note_on,78,63,0
1,note_on,78,0,480
1,note_on,66,0,0
1,note_on,65,49,0
1,note_on,77,55,0
1,note_on,77,0,480
1,note_on,65,0,0
1,note_on,71,0,0
1,note_on,66,53,0
1,note_on,70,59,0
1,note_on,70,0,480
1,note_on,66,0,0
1,note_on,63,55,0
1,note_on,66,55,0
1,note_on,66,0,360
1,note_on,63,0,0
1,note_on,71,63,0
1,note_on,75,63,0
1,note_on,75,0,114
1,note_on,71,0,0
1,note_on,71,70,6
1,note_on,68,62,0
1,note_on,63,62,0
1,note_on,75,70,0
1,note_on,63,0,480
1,note_on,68,0,0
1,note_on,71,0,160
1,note_on,75,0,0
1,note_on,70,55,0
1,note_on,73,55,0
1,note_on,73,0,160
1,note_on,70,0,0
1,note_on,68,55,0
1,note_on,71,55,0
1,note_on,71,0,160
1,note_on,68,0,0
1,note_on,66,53,0
1,note_on,70,59,0
1,note_on,70,0,480
1,note_on,66,0,0
1,note_on,63,55,0
1,note_on,66,55,0
1,note_on,66,0,360
1,note_on,63,0,0
1,note_on,71,63,0
1,note_on,75,63,0
1,note_on,75,0,114
1,note_on,71,0,0
1,note_on,71,68,6
1,note_on,68,68,0
1,note_on,63,68,0
1,note_on,75,76,0
1,note_on,63,0,480
1,note_on,68,0,0
1,note_on,71,0,160
1,note_on,75,0,0
1,note_on,70,73,0
1,note_on,73,73,0
1,note_on,73,0,160
1,note_on,70,0,0
1,note_on,68,71,0
1,note_on,71,71,0
1,note_on,71,0,160
1,note_on,68,0,0
1,note_on,71,74,0
1,note_on,68,68,0
1,note_on,63,68,0
1,note_on,75,76,0
1,note_on,63,0,480
1,note_on,68,0,0
1,note_on,71,0,160
1,note_on,75,0,0
1,note_on,70,73,0
1,note_on,73,73,0
1,note_on,73,0,160
1,note_on,70,0,0
1,note_on,68,71,0
1,note_on,71,71,0
1,note_on,71,0,152
1,note_on,68,0,0
1,note_on,71,74,8
1,note_on,68,74,0
1,note_on,63,74,0
1,note_on,75,76,0
1,note_on,75,0,1680
1,note_on,71,0,0
1,note_on,68,0,0
1,note_on,63,0,0
1,note_on,74,55,0
1,note_on,74,0,240
1,note_on,77,58,0
1,note_on,77,0,240
1,note_on,75,54,0
1,note_on,75,0,240
1,note_on,71,44,0
1,note_on,71,0,240
1,note_on,68,42,0
1,note_on,68,0,240
1,note_on,67,50,0
1,note_on,67,0,720
1,note_on,68,50,0
1,note_on,68,0,240
1,note_on,70,62,0
1,note_on,70,0,480
1,note_on,63,52,0
1,note_on,63,0,480
1,note_on,68,56,0
1,note_on,68,0,480
1,note_on,62,40,0
1,note_on,62,0,480
1,note_on,63,62,0
1,note_on,63,0,720
1,note_on,62,58,0
1,note_on,62,0,240
1,note_on,60,67,0
1,note_on,60,0,720
1,note_on,65,64,0
1,note_on,65,0,240
1,note_on,68,75,0
1,note_on,72,71,229
1,note_on,68,0,11
1,note_on,72,0,229
1,note_on,79,77,11
1,note_on,79,0,360
1,note_on,77,73,0
1,note_on,77,0,120
1,note_on,75,77,0
1,note_on,75,0,480
1,note_on,74,70,0
1,note_on,74,0,960
1,note_on,74,55,0
1,note_on,74,0,160
1,note_on,72,51,0
1,note_on,72,0,160
1,note_on,70,48,0
1,note_on,70,0,160
1,note_on,67,46,0
1,note_on,70,50,0
1,note_on,70,0,480
1,note_on,67,0,0
1,note_on,63,54,0
1,note_on,67,58,0
1,note_on,67,0,360
1,note_on,63,0,0
1,note_on,75,72,0
1,note_on,75,0,114
1,note_on,68,64,6
1,note_on,63,64,0
1,note_on,75,72,0
1,note_on,75,0,480
1,note_on,63,0,0
1,note_on,62,55,0
1,note_on,74,60,0
1,note_on,74,0,480
1,note_on,62,0,0
1,note_on,68,0,0
1,note_on,67,58,0
1,note_on,70,66,0
1,note_on,70,0,480
1,note_on,67,0,0
1,note_on,63,57,0
1,note_on,67,64,0
1,note_on,67,0,360
1,note_on,63,0,0
1,note_on,75,64,0
1,note_on,75,0,114
1,note_on,68,56,6
1,note_on,63,56,0
1,note_on,75,63,0
1,note_on,75,0,480
1,note_on,63,0,0
1,note_on,62,44,0
1,note_on,74,49,0
1,note_on,74,0,480
1,note_on,62,0,0
1,note_on,68,0,0
1,note_on,63,52,0
1,note_on,67,52,0
1,note_on,67,0,480
1,note_on,63,0,0
1,note_on,60,51,0
1,note_on,63,51,0
1,note_on,63,0,360
1,note_on,60,0,0
1,note_on,67,52,0
1,note_on,70,52,0
1,note_on,70,0,120
1,note_on,67,0,0
1,note_on,60,46,0
1,note_on,67,52,0
1,note_on,70,52,0
1,note_on,70,0,240
1,note_on,67,0,0
1,note_on,65,46,0
1,note_on,68,46,0
1,note_on,68,0,240
1,note_on,65,0,0
1,note_on,60,0,0
1,note_on,63,49,0
1,note_on,67,49,0
1,note_on,67,0,240
1,note_on,63,0,0
1,note_on,62,43,0
1,note_on,65,43,0
1,note_on,65,0,240
1,note_on,62,0,0
1,note_on,65,54,0
1,note_on,65,0,960
1,note_on,63,52,0
1,note_on,63,0,960
1,note_on,75,66,480
1,note_on,75,0,960
1,note_on,67,58,0
1,note_on,67,0,480
1,note_on,70,66,0
1,note_on,70,0,480
1,note_on,68,62,0
1,note_on,68,0,480
1,note_on,68,58,240
1,note_on,68,0,240
1,note_on,68,60,0
1,note_on,68,0,240
1,note_on,65,57,0
1,note_on,65,0,240
1,note_on,63,69,0
1,note_on,63,0,960
1,note_on,62,66,0
1,note_on,62,0,240
1,note_on,58,71,240
1,note_on,58,0,480
1,note_on,67,76,0
1,note_on,67,0,720
1,note_on,68,69,0
1,note_on,68,0,240
1,note_on,70,76,0
1,note_on,70,0,480
1,note_on,63,72,0
1,note_on,63,0,480
1,note_on,68,79,0
1,note_on,68,0,1920
1,note_on,68,48,480
1,note_on,68,0,240
1,note_on,67,43,0
1,note_on,67,0,240
1,note_on,67,46,0
1,note_on,67,0,240
1,note_on,65,44,0
1,note_on,65,0,240
1,note_on,63,41,0
1,note_on,63,0,220
1,note_on,62,39,20
1,note_on,62,0,220
1,note_on,65,48,20
1,note_on,65,0,1440
1,note_on,63,48,0
1,note_on,63,0,480
1,note_on,63,48,0
1,note_on,63,0,3840
2,note_on,55,32,160
2,note_on,55,0,160
2,note_on,58,31,0
2,note_on,58,0,160
2,note_on,63,33,0
2,note_on,63,0,160
2,note_on,58,31,0
2,note_on,58,0,160
2,note_on,55,31,0
2,note_on,55,0,160
2,note_on,55,31,160
2,note_on,55,0,160
2,note_on,58,31,0
2,note_on,58,0,160
2,note_on,58,30,160
2,note_on,58,0,160
2,note_on,55,30,0
2,note_on,55,0,160
2,note_on,55,32,160
2,note_on,55,0,160
2,note_on,58,31,0
2,note_on,58,0,160
2,note_on,63,37,0
2,note_on,63,0,160
2,note_on,58,31,0
2,note_on,58,0,160
2,note_on,55,31,0
2,note_on,55,0,160
2,note_on,55,31,160
2,note_on,55,0,160
2,note_on,58,31,0
2,note_on,58,0,160
2,note_on,58,30,160
2,note_on,58,0,160
2,note_on,55,30,0
2,note_on,55,0,160
2,note_on,56,32,160
2,note_on,56,0,160
2,note_on,58,31,0
2,note_on,58,0,160
2,note_on,58,31,160
2,note_on,58,0,160
2,note_on,56,31,0
2,note_on,56,0,160
2,note_on,68,36,3360
2,note_on,68,0,160
2,note_on,65,36,0
2,note_on,65,0,160
2,note_on,62,31,0
2,note_on,62,0,160
2,note_on,68,33,0
2,note_on,68,0,160
2,note_on,65,29,0
2,note_on,65,0,160
2,note_on,62,29,0
2,note_on,62,0,160
2,note_on,68,27,0
2,note_on,68,0,160
2,note_on,65,27,0
2,note_on,65,0,160
2,note_on,62,23,0
2,note_on,62,0,160
2,note_on,55,30,160
2,note_on,55,0,160
2,note_on,58,30,0
2,note_on,58,0,160
2,note_on,63,38,0
2,note_on,63,0,160
2,note_on,58,31,0
2,note_on,58,0,160
2,note_on,55,31,0
2,note_on,55,0,160
2,note_on,55,31,160
2,note_on,55,0,160
2,note_on,58,31,0
2,note_on,58,0,160
2,note_on,58,30,160
2,note_on,58,0,160
2,note_on,55,30,0
2,note_on,55,0,160
2,note_on,56,32,160
2,note_on,56,0,160
2,note_on,58,31,0
2,note_on,58,0,160
2,note_on,58,31,160
2,note_on,58,0,160
2,note_on,56,31,0
2,note_on,56,0,160
2,note_on,65,45,3040
2,note_on,65,0,160
2,note_on,67,45,0
2,note_on,67,0,160
2,note_on,71,36,0
2,note_on,71,0,160
2,note_on,67,45,0
2,note_on,67,0,160
2,note_on,65,44,0
2,note_on,65,0,160
2,note_on,58,32,1120
2,note_on,58,0,160
2,note_on,62,31,0
2,note_on,62,0,160
2,note_on,62,31,160
2,note_on,62,0,160
2,note_on,58,31,0
2,note_on,58,0,160
2,note_on,57,32,160
2,note_on,57,0,160
2,note_on,60,31,0
2,note_on,60,0,160
2,note_on,60,32,160
2,note_on,60,0,160
2,note_on,57,31,0
2,note_on,57,0,160
2,note_on,62,32,160
2,note_on,62,0,160
2,note_on,63,31,0
2,note_on,63,0,160
2,note_on,65,33,0
2,note_on,65,0,160
2,note_on,62,31,0
2,note_on,62,0,160
2,note_on,63,31,0
2,note_on,63,0,160
2,note_on,65,37,0
2,note_on,65,0,160
2,note_on,62,32,0
2,note_on,62,0,160
2,note_on,63,31,0
2,note_on,63,0,160
2,note_on,65,36,0
2,note_on,65,0,160
2,note_on,68,37,0
2,note_on,68,0,160
2,note_on,67,31,0
2,note_on,67,0,160
2,note_on,65,36,0
2,note_on,65,0,160
2,note_on,68,35,0
2,note_on,68,0,160
2,note_on,67,35,0
2,note_on,67,0,160
2,note_on,65,36,0
2,note_on,65,0,160
2,note_on,63,33,0
2,note_on,63,0,160
2,note_on,62,33,0
2,note_on,62,0,160
2,note_on,60,36,0
2,note_on,60,0,160
2,note_on,58,35,0
2,note_on,58,0,160
2,note_on,57,33,0
2,note_on,57,0,160
2,note_on,56,38,0
2,note_on,56,0,160
2,note_on,55,31,0
2,note_on,55,0,160
2,note_on,56,30,0
2,note_on,56,0,160
2,note_on,55,32,160
2,note_on,55,0,160
2,note_on,58,31,0
2,note_on,58,0,160
2,note_on,63,38,0
2,note_on,63,0,160
2,note_on,58,31,0
2,note_on,58,0,160
2,note_on,55,31,0
2,note_on,55,0,160
2,note_on,55,31,160
2,note_on,55,0,160
2,note_on,58,31,0
2,note_on,58,0,160
2,note_on,58,30,160
2,note_on,58,0,160
2,note_on,55,30,0
2,note_on,55,0,160
2,note_on,56,32,160
2,note_on,56,0,160
2,note_on,58,31,0
2,note_on,58,0,160
2,note_on,58,31,160
2,note_on,58,0,160
2,note_on,56,31,0
2,note_on,56,0,160
2,note_on,68,36,3360
2,note_on,68,0,160
2,note_on,65,36,0
2,note_on,65,0,160
2,note_on,62,31,0
2,note_on,62,0,160
2,note_on,68,33,0
2,note_on,68,0,160
2,note_on,65,29,0
2,note_on,65,0,160
2,note_on,62,29,0
2,note_on,62,0,160
2,note_on,68,27,0
2,note_on,68,0,160
2,note_on,65,27,0
2,note_on,65,0,160
2,note_on,62,23,0
2,note_on,62,0,160
2,note_on,55,32,160
2,note_on,55,0,160
2,note_on,58,31,0
2,note_on,58,0,160
2,note_on,63,38,0
2,note_on,63,0,160
2,note_on,58,31,0
2,note_on,58,0,160
2,note_on,55,31,0
2,note_on,55,0,160
2,note_on,55,31,160
2,note_on,55,0,160
2,note_on,58,31,0
2,note_on,58,0,160
2,note_on,58,30,160
2,note_on,58,0,160
2,note_on,55,30,0
2,note_on,55,0,160
2,note_on,56,32,160
2,note_on,56,0,160
2,note_on,58,31,0
2,note_on,58,0,160
2,note_on,58,31,160
2,note_on,58,0,160
2,note_on,56,31,0
2,note_on,56,0,160
2,note_on,65,45,3040
2,note_on,65,0,160
2,note_on,67,45,0
2,note_on,67,0,160
2,note_on,71,36,0
2,note_on,71,0,160
2,note_on,67,45,0
2,note_on,67,0,160
2,note_on,65,44,0
2,note_on,65,0,160
2,note_on,58,32,1120
2,note_on,58,0,160
2,note_on,62,31,0
2,note_on,62,0,160
2,note_on,62,31,160
2,note_on,62,0,160
2,note_on,58,31,0
2,note_on,58,0,160
2,note_on,57,32,160
2,note_on,57,0,160
2,note_on,60,31,0
2,note_on,60,0,160
2,note_on,60,32,160
2,note_on,60,0,160
2,note_on,57,31,0
2,note_on,57,0,160
2,note_on,62,32,160
2,note_on,62,0,160
2,note_on,63,31,0
2,note_on,63,0,160
2,note_on,65,33,0
2,note_on,65,0,160
2,note_on,62,31,0
2,note_on,62,0,160
2,note_on,63,31,0
2,note_on,63,0,160
2,note_on,65,37,0
2,note_on,65,0,160
2,note_on,62,32,0
2,note_on,62,0,160
2,note_on,63,31,0
2,note_on,63,0,160
2,note_on,65,36,0
2,note_on,65,0,160
2,note_on,68,37,0
2,note_on,68,0,160
2,note_on,67,31,0
2,note_on,67,0,160
2,note_on,65,36,0
2,note_on,65,0,160
2,note_on,68,35,0
2,note_on,68,0,160
2,note_on,67,35,0
2,note_on,67,0,160
2,note_on,65,36,0
2,note_on,65,0,160
2,note_on,63,33,0
2,note_on,63,0,160
2,note_on,62,33,0
2,note_on,62,0,160
2,note_on,60,36,0
2,note_on,60,0,160
2,note_on,58,35,0
2,note_on,58,0,160
2,note_on,57,33,0
2,note_on,57,0,160
2,note_on,58,38,0
2,note_on,58,0,160
2,note_on,63,41,0
2,note_on,63,0,160
2,note_on,65,45,0
2,note_on,65,0,160
2,note_on,66,51,0
2,note_on,66,0,160
2,note_on,58,37,0
2,note_on,58,0,160
2,note_on,63,37,0
2,note_on,63,0,160
2,note_on,63,36,160
2,note_on,63,0,160
2,note_on,59,35,0
2,note_on,59,0,160
2,note_on,62,46,0
2,note_on,62,0,160
2,note_on,53,37,0
2,note_on,53,0,160
2,note_on,58,36,0
2,note_on,58,0,160
2,note_on,62,41,0
2,note_on,62,0,160
2,note_on,63,48,0
2,note_on,63,0,120
2,note_on,65,53,40
2,note_on,65,0,120
2,note_on,66,62,40
2,note_on,66,0,160
2,note_on,63,49,0
2,note_on,63,0,160
2,note_on,66,54,0
2,note_on,66,0,160
2,note_on,71,66,0
2,note_on,71,0,160
2,note_on,68,45,0
2,note_on,68,0,160
2,note_on,63,38,0
2,note_on,63,0,160
2,note_on,65,51,0
2,note_on,65,0,160
2,note_on,59,41,0
2,note_on,59,0,160
2,note_on,61,39,0
2,note_on,61,0,160
2,note_on,65,45,0
2,note_on,65,0,160
2,note_on,63,44,0
2,note_on,63,0,120
2,note_on,65,45,40
2,note_on,65,0,120
2,note_on,66,51,40
2,note_on,66,0,160
2,note_on,58,37,0
2,note_on,58,0,160
2,note_on,61,37,0
2,note_on,61,0,160
2,note_on,65,36,160
2,note_on,65,0,160
2,note_on,59,35,0
2,note_on,59,0,160
2,note_on,62,46,0
2,note_on,62,0,160
2,note_on,53,37,0
2,note_on,53,0,160
2,note_on,58,36,0
2,note_on,58,0,160
2,note_on,62,41,0
2,note_on,62,0,160
2,note_on,63,53,0
2,note_on,63,0,120
2,note_on,65,58,40
2,note_on,65,0,120
2,note_on,66,60,40
2,note_on,66,0,160
2,note_on,63,52,0
2,note_on,63,0,160
2,note_on,66,62,0
2,note_on,66,0,160
2,note_on,71,66,0
2,note_on,71,0,160
2,note_on,68,45,0
2,note_on,68,0,160
2,note_on,63,38,0
2,note_on,63,0,160
2,note_on,65,56,0
2,note_on,65,0,160
2,note_on,59,52,0
2,note_on,59,0,160
2,note_on,61,52,0
2,note_on,61,0,160
2,note_on,65,59,0
2,note_on,65,0,160
2,note_on,61,63,0
2,note_on,61,0,120
2,note_on,59,64,40
2,note_on,59,0,120
2,note_on,55,32,11720
2,note_on,55,0,160
2,note_on,58,31,0
2,note_on,58,0,160
2,note_on,63,41,0
2,note_on,63,0,160
2,note_on,58,31,0
2,note_on,58,0,160
2,note_on,55,31,0
2,note_on,55,0,160
2,note_on,55,31,160
2,note_on,55,0,160
2,note_on,58,31,0
2,note_on,58,0,160
2,note_on,58,30,160
2,note_on,58,0,160
2,note_on,55,30,0
2,note_on,55,0,160
2,note_on,56,32,160
2,note_on,56,0,160
2,note_on,58,31,0
2,note_on,58,0,160
2,note_on,58,31,160
2,note_on,58,0,160
2,note_on,56,31,0
2,note_on,56,0,160
2,note_on,68,36,3360
2,note_on,68,0,160
2,note_on,65,36,0
2,note_on,65,0,160
2,note_on,62,31,0
2,note_on,62,0,160
2,note_on,68,33,0
2,note_on,68,0,160
2,note_on,65,29,0
2,note_on,65,0,160
2,note_on,62,29,0
2,note_on,62,0,160
2,note_on,68,45,0
2,note_on,68,0,480
2,note_on,66,51,7680
2,note_on,66,0,160
2,note_on,58,37,0
2,note_on,58,0,160
2,note_on,63,37,0
2,note_on,63,0,160
2,note_on,63,36,160
2,note_on,63,0,160
2,note_on,59,35,0
2,note_on,59,0,160
2,note_on,62,46,0
2,note_on,62,0,160
2,note_on,53,37,0
2,note_on,53,0,160
2,note_on,58,36,0
2,note_on,58,0,160
2,note_on,62,41,0
2,note_on,62,0,160
2,note_on,63,48,0
2,note_on,63,0,120
2,note_on,65,53,40
2,note_on,65,0,120
2,note_on,66,62,40
2,note_on,66,0,160
2,note_on,63,49,0
2,note_on,63,0,160
2,note_on,66,54,0
2,note_on,66,0,160
2,note_on,71,66,0
2,note_on,71,0,160
2,note_on,68,45,0
2,note_on,68,0,160
2,note_on,63,38,0
2,note_on,63,0,160
2,note_on,65,51,0
2,note_on,65,0,160
2,note_on,59,41,0
2,note_on,59,0,160
2,note_on,61,39,0
2,note_on,61,0,160
2,note_on,65,45,0
2,note_on,65,0,160
2,note_on,63,44,0
2,note_on,63,0,120
2,note_on,65,45,40
2,note_on,65,0,120
2,note_on,66,51,40
2,note_on,66,0,160
2,note_on,58,37,0
2,note_on,58,0,160
2,note_on,61,37,0
2,note_on,61,0,160
2,note_on,65,36,160
2,note_on,65,0,160
2,note_on,59,35,0
2,note_on,59,0,160
2,note_on,62,46,0
2,note_on,62,0,160
2,note_on,53,37,0
2,note_on,53,0,160
2,note_on,58,36,0
2,note_on,58,0,160
2,note_on,62,41,0
2,note_on,62,0,160
2,note_on,63,53,0
2,note_on,63,0,120
2,note_on,65,58,40
2,note_on,65,0,120
2,note_on,66,60,40
2,note_on,66,0,160
2,note_on,63,52,0
2,note_on,63,0,160
2,note_on,66,62,0
2,note_on,66,0,160
2,note_on,71,66,0
2,note_on,71,0,160
2,note_on,68,45,0
2,note_on,68,0,160
2,note_on,63,38,0
2,note_on,63,0,160
2,note_on,65,56,0
2,note_on,65,0,160
2,note_on,59,52,0
2,note_on,59,0,160
2,note_on,61,52,0
2,note_on,61,0,160
2,note_on,65,59,0
2,note_on,65,0,160
2,note_on,61,63,0
2,note_on,61,0,120
2,note_on,59,64,40
2,note_on,59,0,120
2,note_on,55,32,11720
2,note_on,55,0,160
2,note_on,58,31,0
2,note_on,58,0,160
2,note_on,63,41,0
2,note_on,63,0,160
2,note_on,58,31,0
2,note_on,58,0,160
2,note_on,55,31,0
2,note_on,55,0,160
2,note_on,55,31,160
2,note_on,55,0,160
2,note_on,58,31,0
2,note_on,58,0,160
2,note_on,58,30,160
2,note_on,58,0,160
2,note_on,55,30,0
2,note_on,55,0,160
2,note_on,56,32,160
2,note_on,56,0,160
2,note_on,58,31,0
2,note_on,58,0,160
2,note_on,58,31,160
2,note_on,58,0,160
2,note_on,56,31,0
2,note_on,56,0,160
2,note_on,68,36,3360
2,note_on,68,0,160
2,note_on,65,36,0
2,note_on,65,0,160
2,note_on,62,31,0
2,note_on,62,0,160
2,note_on,68,33,0
2,note_on,68,0,160
2,note_on,65,29,0
2,note_on,65,0,160
2,note_on,62,29,0
2,note_on,62,0,160
2,note_on,68,45,0
2,note_on,68,0,480
2,note_on,62,39,3360
2,note_on,74,44,0
2,note_on,74,0,480
2,note_on,62,0,0
2,note_on,67,36,2080
2,note_on,67,0,160
2,note_on,68,36,0
2,note_on,68,0,160
2,note_on,70,41,0
2,note_on,70,0,160
2,note_on,67,36,0
2,note_on,67,0,160
2,note_on,68,37,0
2,note_on,68,0,160
2,note_on,70,35,0
2,note_on,70,0,160
2,note_on,67,36,0
2,note_on,67,0,160
2,note_on,68,36,0
2,note_on,68,0,160
2,note_on,70,37,0
2,note_on,70,0,160
2,note_on,73,41,0
2,note_on,73,0,160
2,note_on,72,37,0
2,note_on,72,0,160
2,note_on,70,37,0
2,note_on,70,0,160
2,note_on,73,42,0
2,note_on,73,0,160
2,note_on,72,37,0
2,note_on,72,0,160
2,note_on,70,47,0
2,note_on,70,0,160
2,note_on,67,36,0
2,note_on,67,0,160
2,note_on,68,37,0
2,note_on,68,0,160
2,note_on,70,41,0
2,note_on,70,0,160
2,note_on,68,36,0
2,note_on,68,0,160
2,note_on,67,36,0
2,note_on,67,0,158
2,note_on,65,47,2
2,note_on,65,0,160
2,note_on,63,36,0
2,note_on,63,0,160
2,note_on,61,36,0
2,note_on,61,0,160
2,note_on,60,42,160
2,note_on,60,0,160
2,note_on,61,37,0
2,note_on,61,0,160
2,note_on,63,50,0
2,note_on,63,0,160
2,note_on,60,36,0
2,note_on,60,0,160
2,note_on,61,37,0
2,note_on,61,0,160
2,note_on,63,41,0
2,note_on,63,0,160
2,note_on,60,36,0
2,note_on,60,0,160
2,note_on,61,36,0
2,note_on,61,0,160
2,note_on,63,48,0
2,note_on,63,0,160
2,note_on,61,36,0
2,note_on,61,0,160
2,note_on,60,36,0
2,note_on,60,0,160
2,note_on,56,42,160
2,note_on,56,0,160
2,note_on,58,37,0
2,note_on,58,0,160
2,note_on,59,42,0
2,note_on,59,0,160
2,note_on,56,37,0
2,note_on,56,0,160
2,note_on,58,43,0
2,note_on,58,0,160
2,note_on,59,46,0
2,note_on,59,0,320
2,note_on,58,48,0
2,note_on,58,0,158
2,note_on,56,54,2
2,note_on,56,0,160
2,note_on,55,52,0
2,note_on,55,0,160
2,note_on,56,52,0
2,note_on,56,0,160
2,note_on,55,51,160
2,note_on,55,0,160
2,note_on,58,53,0
2,note_on,58,0,160
2,note_on,63,55,0
2,note_on,63,0,160
2,note_on,58,48,0
2,note_on,58,0,160
2,note_on,55,48,0
2,note_on,55,0,160
2,note_on,55,48,160
2,note_on,55,0,160
2,note_on,58,49,0
2,note_on,58,0,160
2,note_on,58,48,160
2,note_on,58,0,160
2,note_on,55,48,0
2,note_on,55,0,160
2,note_on,56,60,160
2,note_on,56,0,160
2,note_on,58,62,0
2,note_on,58,0,160
2,note_on,62,66,0
2,note_on,62,0,160
2,note_on,65,62,0
2,note_on,65,0,160
2,note_on,70,62,0
2,note_on,70,0,160
2,note_on,74,65,0
2,note_on,74,0,160
2,note_on,77,58,0
2,note_on,77,0,160
2,note_on,80,55,0
2,note_on,80,0,160
2,note_on,82,50,0
2,note_on,82,0,240
2,note_on,86,41,0
2,note_on,86,0,120
2,note_on,89,42,120
2,note_on,89,0,120
2,note_on,55,36,1960
2,note_on,55,0,160
2,note_on,58,33,0
2,note_on,58,0,160
2,note_on,67,41,0
2,note_on,67,0,160
2,note_on,58,30,0
2,note_on,58,0,160
2,note_on,55,30,0
2,note_on,55,0,160
2,note_on,55,32,160
2,note_on,55,0,160
2,note_on,58,31,0
2,note_on,58,0,160
2,note_on,67,32,0
2,note_on,67,0,160
2,note_on,58,31,0
2,note_on,58,0,160
2,note_on,55,31,0
2,note_on,55,0,160
2,note_on,55,35,160
2,note_on,55,0,160
2,note_on,58,31,0
2,note_on,58,0,160
2,note_on,67,39,0
2,note_on,67,0,160
2,note_on,58,27,0
2,note_on,58,0,160
2,note_on,55,27,0
2,note_on,55,0,160
2,note_on,55,27,160
2,note_on,55,0,160
2,note_on,58,26,0
2,note_on,58,0,160
2,note_on,67,28,0
2,note_on,67,0,160
2,note_on,58,24,0
2,note_on,55,24,160
2,note_on,55,0,2080
2,note_on,58,0,0
3,note_on,39,27,0
3,note_on,46,24,160
3,note_on,46,0,160
3,note_on,51,25,0
3,note_on,51,0,160
3,note_on,39,0,0
3,note_on,55,27,0
3,note_on,55,0,160
3,note_on,51,24,0
3,note_on,51,0,160
3,note_on,46,24,0
3,note_on,46,0,160
3,note_on,39,27,0
3,note_on,46,25,160
3,note_on,46,0,160
3,note_on,51,25,0
3,note_on,51,0,160
3,note_on,39,0,0
3,note_on,55,27,0
3,note_on,55,0,160
3,note_on,51,24,0
3,note_on,51,0,160
3,note_on,46,24,0
3,note_on,46,0,160
3,note_on,39,27,0
3,note_on,46,24,160
3,note_on,46,0,160
3,note_on,51,25,0
3,note_on,51,0,160
3,note_on,39,0,0
3,note_on,55,27,0
3,note_on,55,0,160
3,note_on,51,24,0
3,note_on,51,0,160
3,note_on,46,24,0
3,note_on,46,0,160
3,note_on,39,27,0
3,note_on,46,25,81
3,note_on,46,0,160
3,note_on,51,25,0
3,note_on,51,0,160
3,note_on,39,0,0
3,note_on,55,27,0
3,note_on,55,0,160
3,note_on,51,24,0
3,note_on,51,0,160
3,note_on,46,24,0
3,note_on,46,0,160
3,note_on,34,27,0
3,note_on,46,24,92
3,note_on,46,0,160
3,note_on,50,25,0
3,note_on,50,0,160
3,note_on,34,0,0
3,note_on,53,27,0
3,note_on,53,0,160
3,note_on,50,24,0
3,note_on,50,0,160
3,note_on,46,24,0
3,note_on,46,0,160
3,note_on,36,27,0
3,note_on,51,32,87
3,note_on,43,32,0
3,note_on,43,0,160
3,note_on,51,0,0
3,note_on,55,32,0
3,note_on,48,32,0
3,note_on,48,0,160
3,note_on,55,0,0
3,note_on,36,0,0
3,note_on,60,35,0
3,note_on,51,35,0
3,note_on,51,0,160
3,note_on,60,0,0
3,note_on,55,29,0
3,note_on,48,29,0
3,note_on,48,0,160
3,note_on,55,0,0
3,note_on,51,30,0
3,note_on,43,30,0
3,note_on,43,0,160
3,note_on,51,0,0
3,note_on,34,32,0
3,note_on,44,28,98
3,note_on,44,0,160
3,note_on,48,28,0
3,note_on,48,0,160
3,note_on,34,0,0
3,note_on,53,35,0
3,note_on,53,0,160
3,note_on,48,27,0
3,note_on,48,0,160
3,note_on,44,27,0
3,note_on,32,31,160
3,note_on,48,31,160
3,note_on,48,0,160
3,note_on,53,32,0
3,note_on,53,0,160
3,note_on,32,0,0
3,note_on,44,0,0
3,note_on,56,36,0
3,note_on,56,0,160
3,note_on,53,32,0
3,note_on,53,0,160
3,note_on,48,32,0
3,note_on,48,0,160
3,note_on,34,29,0
3,note_on,46,29,0
3,note_on,53,31,111
3,note_on,53,0,160
3,note_on,56,28,0
3,note_on,56,0,160
3,note_on,46,0,0
3,note_on,34,0,0
3,note_on,58,32,0
3,note_on,58,0,160
3,note_on,56,28,0
3,note_on,56,0,160
3,note_on,53,27,0
3,note_on,53,0,160
3,note_on,58,27,0
3,note_on,58,0,160
3,note_on,56,23,0
3,note_on,56,0,160
3,note_on,53,23,0
3,note_on,53,0,160
3,note_on,58,23,0
3,note_on,58,0,160
3,note_on,56,18,0
3,note_on,56,0,160
3,note_on,53,18,0
3,note_on,53,0,160
3,note_on,39,27,0
3,note_on,46,24,80
3,note_on,46,0,160
3,note_on,51,25,0
3,note_on,51,0,160
3,note_on,39,0,0
3,note_on,55,27,0
3,note_on,55,0,160
3,note_on,51,24,0
3,note_on,51,0,160
3,note_on,46,24,0
3,note_on,46,0,160
3,note_on,39,27,0
3,note_on,46,25,107
3,note_on,46,0,160
3,note_on,51,25,0
3,note_on,51,0,160
3,note_on,39,0,0
3,note_on,55,27,0
3,note_on,55,0,160
3,note_on,51,24,0
3,note_on,51,0,160
3,note_on,46,24,0
3,note_on,46,0,160
3,note_on,34,27,0
3,note_on,46,24,96
3,note_on,46,0,160
3,note_on,50,25,0
3,note_on,50,0,160
3,note_on,34,0,0
3,note_on,53,27,0
3,note_on,53,0,160
3,note_on,50,24,0
3,note_on,50,0,160
3,note_on,46,24,0
3,note_on,46,0,160
3,note_on,36,27,0
3,note_on,51,32,107
3,note_on,43,32,0
3,note_on,43,0,160
3,note_on,51,0,0
3,note_on,55,32,0
3,note_on,48,32,0
3,note_on,48,0,160
3,note_on,55,0,0
3,note_on,36,0,0
3,note_on,60,35,0
3,note_on,51,35,0
3,note_on,51,0,160
3,note_on,60,0,0
3,note_on,55,29,0
3,note_on,48,29,0
3,note_on,48,0,160
3,note_on,55,0,0
3,note_on,51,30,0
3,note_on,43,30,0
3,note_on,43,0,160
3,note_on,51,0,0
3,note_on,36,29,0
3,note_on,43,26,86
3,note_on,53,26,0
3,note_on,53,0,160
3,note_on,43,0,0
3,note_on,50,26,0
3,note_on,55,26,0
3,note_on,55,0,160
3,note_on,50,0,0
3,note_on,36,0,0
3,note_on,53,29,0
3,note_on,59,29,0
3,note_on,59,0,160
3,note_on,53,0,0
3,note_on,50,26,0
3,note_on,55,26,0
3,note_on,55,0,160
3,note_on,50,0,0
3,note_on,53,29,0
3,note_on,43,26,0
3,note_on,43,0,160
3,note_on,53,0,0
3,note_on,36,27,0
3,note_on,43,31,107
3,note_on,43,0,160
3,note_on,48,32,0
3,note_on,48,0,160
3,note_on,36,0,0
3,note_on,51,37,0
3,note_on,51,0,160
3,note_on,48,35,0
3,note_on,48,0,160
3,note_on,43,35,0
3,note_on,43,0,160
3,note_on,36,37,0
3,note_on,50,31,80
3,note_on,50,0,160
3,note_on,55,28,0
3,note_on,55,0,160
3,note_on,36,0,0
3,note_on,62,32,0
3,note_on,62,0,160
3,note_on,55,28,0
3,note_on,55,0,160
3,note_on,50,27,0
3,note_on,50,0,160
3,note_on,36,29,0
3,note_on,51,24,74
3,note_on,51,0,160
3,note_on,55,24,0
3,note_on,55,0,160
3,note_on,36,0,0
3,note_on,60,25,0
3,note_on,60,0,160
3,note_on,55,21,0
3,note_on,55,0,160
3,note_on,51,21,0
3,note_on,51,0,160
3,note_on,41,27,0
3,note_on,50,24,96
3,note_on,50,0,160
3,note_on,53,25,0
3,note_on,53,0,160
3,note_on,41,0,0
3,note_on,58,27,0
3,note_on,58,0,160
3,note_on,53,24,0
3,note_on,53,0,160
3,note_on,50,24,0
3,note_on,50,0,160
3,note_on,41,27,0
3,note_on,51,26,107
3,note_on,51,0,160
3,note_on,53,26,0
3,note_on,53,0,160
3,note_on,41,0,0
3,note_on,57,30,0
3,note_on,57,0,160
3,note_on,53,26,0
3,note_on,53,0,160
3,note_on,51,26,0
3,note_on,51,0,160
3,note_on,46,27,0
3,note_on,53,24,75
3,note_on,53,0,160
3,note_on,55,25,0
3,note_on,55,0,160
3,note_on,56,27,0
3,note_on,56,0,96
3,note_on,53,24,0
3,note_on,53,0,160
3,note_on,55,24,0
3,note_on,55,0,160
3,note_on,56,27,0
3,note_on,56,0,89
3,note_on,53,26,0
3,note_on,53,0,160
3,note_on,55,26,0
3,note_on,55,0,160
3,note_on,56,30,0
3,note_on,56,0,104
3,note_on,53,26,0
3,note_on,53,0,160
3,note_on,51,26,0
3,note_on,51,0,160
3,note_on,50,31,0
3,note_on,50,0,109
3,note_on,53,28,0
3,note_on,53,0,160
3,note_on,58,28,0
3,note_on,58,0,160
3,note_on,46,0,0
3,note_on,56,32,0
3,note_on,56,0,103
3,note_on,55,28,0
3,note_on,55,0,160
3,note_on,53,28,0
3,note_on,53,0,160
3,note_on,51,28,0
3,note_on,51,0,157
3,note_on,50,24,0
3,note_on,50,0,160
3,note_on,51,24,0
3,note_on,51,0,160
3,note_on,53,27,0
3,note_on,53,0,160
3,note_on,51,24,0
3,note_on,51,0,160
3,note_on,50,24,0
3,note_on,50,0,160
3,note_on,39,27,0
3,note_on,46,24,40
3,note_on,46,0,160
3,note_on,51,25,0
3,note_on,51,0,160
3,note_on,39,0,0
3,note_on,55,27,0
3,note_on,55,0,160
3,note_on,51,24,0
3,note_on,51,0,160
3,note_on,46,24,0
3,note_on,46,0,160
3,note_on,39,27,0
3,note_on,46,25,107
3,note_on,46,0,160
3,note_on,51,25,0
3,note_on,51,0,160
3,note_on,39,0,0
3,note_on,55,27,0
3,note_on,55,0,160
3,note_on,51,24,0
3,note_on,51,0,160
3,note_on,46,24,0
3,note_on,46,0,160
3,note_on,34,27,0
3,note_on,46,24,104
3,note_on,46,0,160
3,note_on,50,25,0
3,note_on,50,0,160
3,note_on,34,0,0
3,note_on,53,27,0
3,note_on,53,0,160
3,note_on,50,24,0
3,note_on,50,0,160
3,note_on,46,24,0
3,note_on,46,0,160
3,note_on,36,27,0
3,note_on,51,32,54
3,note_on,43,32,0
3,note_on,43,0,160
3,note_on,51,0,0
3,note_on,55,32,0
3,note_on,48,32,0
3,note_on,48,0,160
3,note_on,55,0,0
3,note_on,36,0,0
3,note_on,60,35,0
3,note_on,51,35,0
3,note_on,51,0,160
3,note_on,60,0,0
3,note_on,55,29,0
3,note_on,48,29,0
3,note_on,48,0,160
3,note_on,55,0,0
3,note_on,51,30,0
3,note_on,43,30,0
3,note_on,43,0,160
3,note_on,51,0,0
3,note_on,34,32,0
3,note_on,44,28,75
3,note_on,44,0,160
3,note_on,48,28,0
3,note_on,48,0,160
3,note_on,34,0,0
3,note_on,53,35,0
3,note_on,53,0,160
3,note_on,48,27,0
3,note_on,48,0,160
3,note_on,44,27,0
3,note_on,32,31,160
3,note_on,48,31,160
3,note_on,48,0,160
3,note_on,53,32,0
3,note_on,53,0,160
3,note_on,32,0,0
3,note_on,44,0,0
3,note_on,56,36,0
3,note_on,56,0,160
3,note_on,53,32,0
3,note_on,53,0,160
3,note_on,48,32,0
3,note_on,48,0,160
3,note_on,34,29,0
3,note_on,46,29,0
3,note_on,53,31,75
3,note_on,53,0,160
3,note_on,56,28,0
3,note_on,56,0,160
3,note_on,46,0,0
3,note_on,34,0,0
3,note_on,58,32,0
3,note_on,58,0,160
3,note_on,56,28,0
3,note_on,56,0,160
3,note_on,53,27,0
3,note_on,53,0,160
3,note_on,58,27,0
3,note_on,58,0,160
3,note_on,56,23,0
3,note_on,56,0,160
3,note_on,53,23,0
3,note_on,53,0,160
3,note_on,58,23,0
3,note_on,58,0,160
3,note_on,56,18,0
3,note_on,56,0,160
3,note_on,53,18,0
3,note_on,53,0,160
3,note_on,39,27,0
3,note_on,46,24,80
3,note_on,46,0,160
3,note_on,51,25,0
3,note_on,51,0,160
3,note_on,39,0,0
3,note_on,55,27,0
3,note_on,55,0,160
3,note_on,51,24,0
3,note_on,51,0,160
3,note_on,46,24,0
3,note_on,46,0,160
3,note_on,39,27,0
3,note_on,46,25,107
3,note_on,46,0,160
3,note_on,51,25,0
3,note_on,51,0,160
3,note_on,39,0,0
3,note_on,55,27,0
3,note_on,55,0,160
3,note_on,51,24,0
3,note_on,51,0,160
3,note_on,46,24,0
3,note_on,46,0,160
3,note_on,34,27,0
3,note_on,46,24,96
3,note_on,46,0,160
3,note_on,50,25,0
3,note_on,50,0,160
3,note_on,34,0,0
3,note_on,53,27,0
3,note_on,53,0,160
3,note_on,50,24,0
3,note_on,50,0,160
3,note_on,46,24,0
3,note_on,46,0,160
3,note_on,36,27,0
3,note_on,51,32,107
3,note_on,43,32,0
3,note_on,43,0,160
3,note_on,51,0,0
3,note_on,55,32,0
3,note_on,48,32,0
3,note_on,48,0,160
3,note_on,55,0,0
3,note_on,36,0,0
3,note_on,60,35,0
3,note_on,51,35,0
3,note_on,51,0,160
3,note_on,60,0,0
3,note_on,55,29,0
3,note_on,48,29,0
3,note_on,48,0,160
3,note_on,55,0,0
3,note_on,51,30,0
3,note_on,43,30,0
3,note_on,43,0,160
3,note_on,51,0,0
3,note_on,36,29,0
3,note_on,43,26,86
3,note_on,53,26,0
3,note_on,53,0,160
3,note_on,43,0,0
3,note_on,50,26,0
3,note_on,55,26,0
3,note_on,55,0,160
3,note_on,50,0,0
3,note_on,36,0,0
3,note_on,53,29,0
3,note_on,59,29,0
3,note_on,59,0,160
3,note_on,53,0,0
3,note_on,50,26,0
3,note_on,55,26,0
3,note_on,55,0,160
3,note_on,50,0,0
3,note_on,53,29,0
3,note_on,43,26,0
3,note_on,43,0,160
3,note_on,53,0,0
3,note_on,36,27,0
3,note_on,43,31,107
3,note_on,43,0,160
3,note_on,48,32,0
3,note_on,48,0,160
3,note_on,36,0,0
3,note_on,51,37,0
3,note_on,51,0,160
3,note_on,48,35,0
3,note_on,48,0,160
3,note_on,43,35,0
3,note_on,43,0,160
3,note_on,36,37,0
3,note_on,50,31,111
3,note_on,50,0,160
3,note_on,55,28,0
3,note_on,55,0,160
3,note_on,36,0,0
3,note_on,62,32,0
3,note_on,62,0,160
3,note_on,55,28,0
3,note_on,55,0,160
3,note_on,50,27,0
3,note_on,50,0,160
3,note_on,36,29,0
3,note_on,51,24,75
3,note_on,51,0,160
3,note_on,55,24,0
3,note_on,55,0,160
3,note_on,36,0,0
3,note_on,60,25,0
3,note_on,60,0,160
3,note_on,55,21,0
3,note_on,55,0,160
3,note_on,51,21,0
3,note_on,51,0,160
3,note_on,41,27,0
3,note_on,50,24,96
3,note_on,50,0,160
3,note_on,53,25,0
3,note_on,53,0,160
3,note_on,41,0,0
3,note_on,58,27,0
3,note_on,58,0,160
3,note_on,53,24,0
3,note_on,53,0,160
3,note_on,50,24,0
3,note_on,50,0,160
3,note_on,41,27,0
3,note_on,51,26,128
3,note_on,51,0,160
3,note_on,53,26,0
3,note_on,53,0,160
3,note_on,41,0,0
3,note_on,57,30,0
3,note_on,57,0,160
3,note_on,53,26,0
3,note_on,53,0,160
3,note_on,51,26,0
3,note_on,51,0,160
3,note_on,46,27,0
3,note_on,53,24,89
3,note_on,53,0,160
3,note_on,55,25,0
3,note_on,55,0,160
3,note_on,56,27,0
3,note_on,56,0,89
3,note_on,53,24,0
3,note_on,53,0,160
3,note_on,55,24,0
3,note_on,55,0,160
3,note_on,56,27,0
3,note_on,56,0,93
3,note_on,53,26,0
3,note_on,53,0,160
3,note_on,55,26,0
3,note_on,55,0,160
3,note_on,56,30,0
3,note_on,56,0,92
3,note_on,53,26,0
3,note_on,53,0,160
3,note_on,51,26,0
3,note_on,51,0,160
3,note_on,50,31,0
3,note_on,50,0,114
3,note_on,53,28,0
3,note_on,53,0,160
3,note_on,58,28,0
3,note_on,58,0,160
3,note_on,46,0,0
3,note_on,56,32,0
3,note_on,56,0,96
3,note_on,55,28,0
3,note_on,55,0,160
3,note_on,53,28,0
3,note_on,53,0,160
3,note_on,51,28,0
3,note_on,51,0,154
3,note_on,50,24,0
3,note_on,50,0,160
3,note_on,51,24,0
3,note_on,51,0,160
3,note_on,50,27,0
3,note_on,50,0,160
3,note_on,46,25,0
3,note_on,46,0,91
3,note_on,44,25,0
3,note_on,44,0,160
3,note_on,30,32,0
3,note_on,42,32,0
3,note_on,42,0,406
3,note_on,30,0,0
3,note_on,32,32,0
3,note_on,44,32,0
3,note_on,44,0,409
3,note_on,32,0,0
3,note_on,34,32,0
3,note_on,46,32,0
3,note_on,46,0,346
3,note_on,34,0,0
3,note_on,34,46,0
3,note_on,46,53,0
3,note_on,46,0,431
3,note_on,34,0,0
3,note_on,35,45,0
3,note_on,47,50,0
3,note_on,47,0,409
3,note_on,35,0,0
3,note_on,37,42,0
3,note_on,49,46,0
3,note_on,49,0,346
3,note_on,37,0,0
3,note_on,30,32,0
3,note_on,42,32,0
3,note_on,42,0,448
3,note_on,30,0,0
3,note_on,32,32,0
3,note_on,44,32,0
3,note_on,44,0,409
3,note_on,32,0,0
3,note_on,34,32,0
3,note_on,46,32,0
3,note_on,46,0,346
3,note_on,34,0,0
3,note_on,34,50,0
3,note_on,46,56,0
3,note_on,46,0,441
3,note_on,34,0,0
3,note_on,35,50,0
3,note_on,47,56,0
3,note_on,47,0,409
3,note_on,35,0,0
3,note_on,37,46,0
3,note_on,49,53,0
3,note_on,49,0,346
3,note_on,37,0,0
3,note_on,37,55,0
3,note_on,49,62,0
3,note_on,54,51,146
3,note_on,54,0,160
3,note_on,58,51,0
3,note_on,58,0,160
3,note_on,49,0,0
3,note_on,37,0,0
3,note_on,61,57,0
3,note_on,61,0,160
3,note_on,58,52,0
3,note_on,58,0,160
3,note_on,54,52,0
3,note_on,54,0,160
3,note_on,37,53,0
3,note_on,49,59,0
3,note_on,56,52,71
3,note_on,56,0,160
3,note_on,59,52,0
3,note_on,59,0,160
3,note_on,49,0,0
3,note_on,37,0,0
3,note_on,61,57,0
3,note_on,61,0,160
3,note_on,59,52,0
3,note_on,59,0,160
3,note_on,56,52,0
3,note_on,56,0,160
3,note_on,37,55,0
3,note_on,49,62,0
3,note_on,54,51,109
3,note_on,54,0,160
3,note_on,58,51,0
3,note_on,58,0,160
3,note_on,49,0,0
3,note_on,37,0,0
3,note_on,61,57,0
3,note_on,61,0,160
3,note_on,58,52,0
3,note_on,58,0,160
3,note_on,54,46,0
3,note_on,54,0,160
3,note_on,38,35,0
3,note_on,50,40,0
3,note_on,56,32,57
3,note_on,56,0,160
3,note_on,59,33,0
3,note_on,59,0,160
3,note_on,50,0,0
3,note_on,38,0,0
3,note_on,62,36,0
3,note_on,62,0,160
3,note_on,59,31,0
3,note_on,59,0,160
3,note_on,56,29,0
3,note_on,56,0,160
3,note_on,39,40,0
3,note_on,51,33,11
3,note_on,51,0,160
3,note_on,54,33,0
3,note_on,54,0,160
3,note_on,39,0,0
3,note_on,58,36,0
3,note_on,58,0,160
3,note_on,54,34,0
3,note_on,54,0,160
3,note_on,51,34,0
3,note_on,51,0,160
3,note_on,44,38,0
3,note_on,51,34,63
3,note_on,51,0,160
3,note_on,56,34,0
3,note_on,56,0,160
3,note_on,44,0,0
3,note_on,59,36,0
3,note_on,59,0,480
3,note_on,39,40,0
3,note_on,51,33,91
3,note_on,51,0,160
3,note_on,54,33,0
3,note_on,54,0,160
3,note_on,39,0,0
3,note_on,58,36,0
3,note_on,58,0,160
3,note_on,54,34,0
3,note_on,54,0,160
3,note_on,51,34,0
3,note_on,51,0,160
3,note_on,44,38,0
3,note_on,51,36,34
3,note_on,51,0,160
3,note_on,56,38,0
3,note_on,56,0,160
3,note_on,44,0,0
3,note_on,59,45,0
3,note_on,59,0,480
3,note_on,44,52,0
3,note_on,51,37,93
3,note_on,51,0,160
3,note_on,56,40,0
3,note_on,56,0,160
3,note_on,44,0,0
3,note_on,59,47,0
3,note_on,59,0,480
3,note_on,44,60,0
3,note_on,51,51,96
3,note_on,51,0,160
3,note_on,56,51,0
3,note_on,56,0,160
3,note_on,44,0,0
3,note_on,59,57,0
3,note_on,59,0,160
3,note_on,56,55,0
3,note_on,56,0,160
3,note_on,51,54,0
3,note_on,51,0,160
3,note_on,59,55,0
3,note_on,59,0,160
3,note_on,56,43,0
3,note_on,56,0,160
3,note_on,51,38,0
3,note_on,51,0,160
3,note_on,59,34,0
3,note_on,59,0,480
3,note_on,34,27,956
3,note_on,46,24,100
3,note_on,46,0,160
3,note_on,51,25,0
3,note_on,51,0,160
3,note_on,34,0,0
3,note_on,55,27,0
3,note_on,55,0,160
3,note_on,51,24,0
3,note_on,51,0,160
3,note_on,46,24,0
3,note_on,46,0,160
3,note_on,34,27,0
3,note_on,46,25,107
3,note_on,46,0,160
3,note_on,51,25,0
3,note_on,51,0,160
3,note_on,34,0,0
3,note_on,55,27,0
3,note_on,55,0,160
3,note_on,51,24,0
3,note_on,51,0,160
3,note_on,46,24,0
3,note_on,46,0,160
3,note_on,34,27,0
3,note_on,46,24,104
3,note_on,46,0,160
3,note_on,50,25,0
3,note_on,50,0,160
3,note_on,34,0,0
3,note_on,53,27,0
3,note_on,53,0,160
3,note_on,50,24,0
3,note_on,50,0,160
3,note_on,46,24,0
3,note_on,46,0,160
3,note_on,36,27,0
3,note_on,51,32,94
3,note_on,43,32,0
3,note_on,43,0,160
3,note_on,51,0,0
3,note_on,55,32,0
3,note_on,48,32,0
3,note_on,48,0,160
3,note_on,55,0,0
3,note_on,36,0,0
3,note_on,60,35,0
3,note_on,51,35,0
3,note_on,51,0,160
3,note_on,60,0,0
3,note_on,55,29,0
3,note_on,48,29,0
3,note_on,48,0,160
3,note_on,55,0,0
3,note_on,51,30,0
3,note_on,43,30,0
3,note_on,43,0,160
3,note_on,51,0,0
3,note_on,44,39,0
3,note_on,32,36,0
3,note_on,44,0,90
3,note_on,44,35,10
3,note_on,44,0,160
3,note_on,48,33,0
3,note_on,48,0,160
3,note_on,32,0,0
3,note_on,53,45,0
3,note_on,53,0,160
3,note_on,48,37,0
3,note_on,48,0,160
3,note_on,44,37,0
3,note_on,44,0,160
3,note_on,41,48,0
3,note_on,29,43,0
3,note_on,48,38,160
3,note_on,48,0,160
3,note_on,53,45,0
3,note_on,53,0,160
3,note_on,29,0,0
3,note_on,41,0,0
3,note_on,56,49,0
3,note_on,56,0,160
3,note_on,53,45,0
3,note_on,53,0,160
3,note_on,48,42,0
3,note_on,48,0,160
3,note_on,34,29,0
3,note_on,46,33,0
3,note_on,53,36,96
3,note_on,53,0,160
3,note_on,56,30,0
3,note_on,56,0,160
3,note_on,46,0,0
3,note_on,34,0,0
3,note_on,58,36,0
3,note_on,58,0,160
3,note_on,56,32,0
3,note_on,56,0,160
3,note_on,53,28,0
3,note_on,53,0,160
3,note_on,58,27,0
3,note_on,58,0,160
3,note_on,56,23,0
3,note_on,56,0,160
3,note_on,53,23,0
3,note_on,53,0,160
3,note_on,50,21,0
3,note_on,58,23,0
3,note_on,58,0,160
3,note_on,56,18,0
3,note_on,56,0,160
3,note_on,53,18,0
3,note_on,53,0,160
3,note_on,50,0,0
3,note_on,39,45,0
3,note_on,51,36,93
3,note_on,51,0,160
3,note_on,55,36,0
3,note_on,55,0,160
3,note_on,39,0,0
3,note_on,58,41,0
3,note_on,58,0,160
3,note_on,55,37,0
3,note_on,55,0,160
3,note_on,51,37,0
3,note_on,51,0,160
3,note_on,34,51,0
3,note_on,46,51,0
3,note_on,53,37,86
3,note_on,53,0,160
3,note_on,56,37,0
3,note_on,56,0,160
3,note_on,46,0,0
3,note_on,34,0,0
3,note_on,58,41,0
3,note_on,58,0,160
3,note_on,56,37,0
3,note_on,56,0,160
3,note_on,53,37,0
3,note_on,53,0,160
3,note_on,39,45,0
3,note_on,51,36,82
3,note_on,51,0,160
3,note_on,55,36,0
3,note_on,55,0,160
3,note_on,39,0,0
3,note_on,58,41,0
3,note_on,58,0,160
3,note_on,55,37,0
3,note_on,55,0,160
3,note_on,51,33,0
3,note_on,51,0,160
3,note_on,35,35,0
3,note_on,47,41,0
3,note_on,53,31,75
3,note_on,53,0,160
3,note_on,56,31,0
3,note_on,56,0,160
3,note_on,47,0,0
3,note_on,35,0,0
3,note_on,59,32,0
3,note_on,59,0,160
3,note_on,56,29,0
3,note_on,56,0,160
3,note_on,53,28,0
3,note_on,53,0,160
3,note_on,36,34,0
3,note_on,48,26,40
3,note_on,48,0,160
3,note_on,51,26,0
3,note_on,51,0,160
3,note_on,36,0,0
3,note_on,55,30,0
3,note_on,55,0,160
3,note_on,51,27,0
3,note_on,51,0,160
3,note_on,48,24,0
3,note_on,48,0,160
3,note_on,44,34,0
3,note_on,44,0,470
3,note_on,46,27,0
3,note_on,56,30,0
3,note_on,56,0,478
3,note_on,46,0,2
3,note_on,39,34,0
3,note_on,46,26,40
3,note_on,46,0,160
3,note_on,50,26,0
3,note_on,50,0,160
3,note_on,39,0,0
3,note_on,53,30,0
3,note_on,53,0,160
3,note_on,50,27,0
3,note_on,50,0,160
3,note_on,46,24,0
3,note_on,46,0,160
3,note_on,39,31,0
3,note_on,46,26,100
3,note_on,46,0,160
3,note_on,51,24,0
3,note_on,51,0,160
3,note_on,39,0,0
3,note_on,39,23,0
3,note_on,39,0,23
3,note_on,30,32,240
3,note_on,42,32,0
3,note_on,42,0,424
3,note_on,30,0,0
3,note_on,32,32,0
3,note_on,44,32,0
3,note_on,44,0,409
3,note_on,32,0,0
3,note_on,34,32,0
3,note_on,46,32,0
3,note_on,46,0,346
3,note_on,34,0,0
3,note_on,34,46,0
3,note_on,46,53,0
3,note_on,46,0,431
3,note_on,34,0,0
3,note_on,35,45,0
3,note_on,47,50,0
3,note_on,47,0,409
3,note_on,35,0,0
3,note_on,37,42,0
3,note_on,49,46,0
3,note_on,49,0,346
3,note_on,37,0,0
3,note_on,30,32,0
3,note_on,42,32,0
3,note_on,42,0,434
3,note_on,30,0,0
3,note_on,32,32,0
3,note_on,44,32,0
3,note_on,44,0,409
3,note_on,32,0,0
3,note_on,34,32,0
3,note_on,46,32,0
3,note_on,46,0,346
3,note_on,34,0,0
3,note_on,34,50,0
3,note_on,46,56,0
3,note_on,46,0,445
3,note_on,34,0,0
3,note_on,35,50,0
3,note_on,47,56,0
3,note_on,47,0,409
3,note_on,35,0,0
3,note_on,37,46,0
3,note_on,49,53,0
3,note_on,49,0,346
3,note_on,37,0,0
3,note_on,37,55,0
3,note_on,49,62,0
3,note_on,54,51,129
3,note_on,54,0,160
3,note_on,58,51,0
3,note_on,58,0,160
3,note_on,49,0,0
3,note_on,37,0,0
3,note_on,61,57,0
3,note_on,61,0,160
3,note_on,58,52,0
3,note_on,58,0,160
3,note_on,54,52,0
3,note_on,54,0,160
3,note_on,37,53,0
3,note_on,49,59,0
3,note_on,56,52,77
3,note_on,56,0,160
3,note_on,59,52,0
3,note_on,59,0,160
3,note_on,49,0,0
3,note_on,37,0,0
3,note_on,61,57,0
3,note_on,61,0,160
3,note_on,59,52,0
3,note_on,59,0,160
3,note_on,56,52,0
3,note_on,56,0,160
3,note_on,37,55,0
3,note_on,49,62,0
3,note_on,54,51,106
3,note_on,54,0,160
3,note_on,58,51,0
3,note_on,58,0,160
3,note_on,49,0,0
3,note_on,37,0,0
3,note_on,61,57,0
3,note_on,61,0,160
3,note_on,58,52,0
3,note_on,58,0,160
3,note_on,54,45,0
3,note_on,54,0,160
3,note_on,38,40,0
3,note_on,50,40,0
3,note_on,56,34,89
3,note_on,56,0,160
3,note_on,59,35,0
3,note_on,59,0,160
3,note_on,50,0,0
3,note_on,38,0,0
3,note_on,62,36,0
3,note_on,62,0,160
3,note_on,59,31,0
3,note_on,59,0,160
3,note_on,56,29,0
3,note_on,56,0,160
3,note_on,39,40,0
3,note_on,51,33,11
3,note_on,51,0,160
3,note_on,54,33,0
3,note_on,54,0,160
3,note_on,39,0,0
3,note_on,58,36,0
3,note_on,58,0,160
3,note_on,54,34,0
3,note_on,54,0,160
3,note_on,51,34,0
3,note_on,51,0,160
3,note_on,44,38,0
3,note_on,51,34,63
3,note_on,51,0,160
3,note_on,56,34,0
3,note_on,56,0,160
3,note_on,44,0,0
3,note_on,59,36,0
3,note_on,59,0,480
3,note_on,39,40,0
3,note_on,51,33,11
3,note_on,51,0,160
3,note_on,54,33,0
3,note_on,54,0,160
3,note_on,39,0,0
3,note_on,58,36,0
3,note_on,58,0,160
3,note_on,54,34,0
3,note_on,54,0,160
3,note_on,51,34,0
3,note_on,51,0,160
3,note_on,44,38,0
3,note_on,51,36,40
3,note_on,51,0,160
3,note_on,56,38,0
3,note_on,56,0,160
3,note_on,44,0,0
3,note_on,59,45,0
3,note_on,59,0,480
3,note_on,44,52,0
3,note_on,51,37,96
3,note_on,51,0,160
3,note_on,56,40,0
3,note_on,56,0,160
3,note_on,44,0,0
3,note_on,59,47,0
3,note_on,59,0,480
3,note_on,44,60,0
3,note_on,51,51,100
3,note_on,51,0,160
3,note_on,56,51,0
3,note_on,56,0,160
3,note_on,44,0,0
3,note_on,59,57,0
3,note_on,59,0,160
3,note_on,56,55,0
3,note_on,56,0,160
3,note_on,51,54,0
3,note_on,51,0,160
3,note_on,59,55,0
3,note_on,59,0,160
3,note_on,56,43,0
3,note_on,56,0,160
3,note_on,51,38,0
3,note_on,51,0,160
3,note_on,59,34,0
3,note_on,59,0,280
3,note_on,34,27,960
3,note_on,46,24,100
3,note_on,46,0,160
3,note_on,51,25,0
3,note_on,51,0,160
3,note_on,34,0,0
3,note_on,55,27,0
3,note_on,55,0,160
3,note_on,51,24,0
3,note_on,51,0,160
3,note_on,46,24,0
3,note_on,46,0,160
3,note_on,34,27,0
3,note_on,46,25,107
3,note_on,46,0,160
3,note_on,51,25,0
3,note_on,51,0,160
3,note_on,34,0,0
3,note_on,55,27,0
3,note_on,55,0,160
3,note_on,51,24,0
3,note_on,51,0,160
3,note_on,46,24,0
3,note_on,46,0,160
3,note_on,34,27,0
3,note_on,46,24,104
3,note_on,46,0,160
3,note_on,50,25,0
3,note_on,50,0,160
3,note_on,34,0,0
3,note_on,53,27,0
3,note_on,53,0,160
3,note_on,50,24,0
3,note_on,50,0,160
3,note_on,46,24,0
3,note_on,46,0,160
3,note_on,36,27,0
3,note_on,51,32,107
3,note_on,43,32,0
3,note_on,43,0,160
3,note_on,51,0,0
3,note_on,55,32,0
3,note_on,48,32,0
3,note_on,48,0,160
3,note_on,55,0,0
3,note_on,36,0,0
3,note_on,60,35,0
3,note_on,51,35,0
3,note_on,51,0,160
3,note_on,60,0,0
3,note_on,55,29,0
3,note_on,48,29,0
3,note_on,48,0,160
3,note_on,55,0,0
3,note_on,51,30,0
3,note_on,43,30,0
3,note_on,43,0,160
3,note_on,51,0,0
3,note_on,44,39,0
3,note_on,32,36,0
3,note_on,44,0,97
3,note_on,44,35,10
3,note_on,44,0,160
3,note_on,48,33,0
3,note_on,48,0,160
3,note_on,32,0,0
3,note_on,53,45,0
3,note_on,53,0,160
3,note_on,48,37,0
3,note_on,48,0,160
3,note_on,44,37,0
3,note_on,44,0,160
3,note_on,41,48,0
3,note_on,29,43,0
3,note_on,48,38,107
3,note_on,48,0,160
3,note_on,53,45,0
3,note_on,53,0,160
3,note_on,29,0,0
3,note_on,41,0,0
3,note_on,56,49,0
3,note_on,56,0,160
3,note_on,53,45,0
3,note_on,53,0,160
3,note_on,48,42,0
3,note_on,48,0,160
3,note_on,34,29,0
3,note_on,46,33,0
3,note_on,53,36,61
3,note_on,53,0,160
3,note_on,56,30,0
3,note_on,56,0,160
3,note_on,46,0,0
3,note_on,34,0,0
3,note_on,58,36,0
3,note_on,58,0,160
3,note_on,56,32,0
3,note_on,56,0,160
3,note_on,53,28,0
3,note_on,53,0,160
3,note_on,58,27,0
3,note_on,58,0,160
3,note_on,56,23,0
3,note_on,56,0,160
3,note_on,53,23,0
3,note_on,53,0,160
3,note_on,50,21,0
3,note_on,58,23,0
3,note_on,58,0,160
3,note_on,56,18,0
3,note_on,56,0,160
3,note_on,53,18,0
3,note_on,53,0,160
3,note_on,50,0,0
3,note_on,39,45,0
3,note_on,51,36,111
3,note_on,51,0,160
3,note_on,55,36,0
3,note_on,55,0,160
3,note_on,39,0,0
3,note_on,58,41,0
3,note_on,58,0,160
3,note_on,55,37,0
3,note_on,55,0,160
3,note_on,51,37,0
3,note_on,51,0,160
3,note_on,34,51,0
3,note_on,46,51,0
3,note_on,53,37,107
3,note_on,53,0,160
3,note_on,56,37,0
3,note_on,56,0,160
3,note_on,46,0,0
3,note_on,34,0,0
3,note_on,58,41,0
3,note_on,58,0,160
3,note_on,56,37,0
3,note_on,56,0,160
3,note_on,53,37,0
3,note_on,53,0,160
3,note_on,39,45,0
3,note_on,51,36,68
3,note_on,51,0,160
3,note_on,55,36,0
3,note_on,55,0,160
3,note_on,39,0,0
3,note_on,58,41,0
3,note_on,58,0,160
3,note_on,55,37,0
3,note_on,55,0,160
3,note_on,51,33,0
3,note_on,51,0,160
3,note_on,35,35,0
3,note_on,47,40,0
3,note_on,53,31,100
3,note_on,53,0,160
3,note_on,56,31,0
3,note_on,56,0,160
3,note_on,47,0,0
3,note_on,35,0,0
3,note_on,59,32,0
3,note_on,59,0,160
3,note_on,56,29,0
3,note_on,56,0,160
3,note_on,53,28,0
3,note_on,53,0,160
3,note_on,36,34,0
3,note_on,48,26,40
3,note_on,48,0,160
3,note_on,51,26,0
3,note_on,51,0,160
3,note_on,36,0,0
3,note_on,55,30,0
3,note_on,55,0,160
3,note_on,51,27,0
3,note_on,51,0,160
3,note_on,48,24,0
3,note_on,48,0,160
3,note_on,44,34,0
3,note_on,44,0,473
3,note_on,46,27,0
3,note_on,56,30,0
3,note_on,56,0,480
3,note_on,46,0,0
3,note_on,51,36,0
3,note_on,58,28,160
3,note_on,58,0,160
3,note_on,60,28,0
3,note_on,60,0,160
3,note_on,61,32,0
3,note_on,61,0,160
3,note_on,58,29,0
3,note_on,58,0,160
3,note_on,60,26,0
3,note_on,60,0,160
3,note_on,61,31,0
3,note_on,61,0,160
3,note_on,58,28,0
3,note_on,58,0,160
3,note_on,60,28,0
3,note_on,60,0,160
3,note_on,61,32,0
3,note_on,61,0,160
3,note_on,58,29,0
3,note_on,58,0,160
3,note_on,56,29,0
3,note_on,56,0,160
3,note_on,51,0,0
3,note_on,55,28,0
3,note_on,51,36,0
3,note_on,55,0,160
3,note_on,58,28,0
3,note_on,58,0,160
3,note_on,56,28,0
3,note_on,56,0,160
3,note_on,55,32,0
3,note_on,55,0,160
3,note_on,58,29,0
3,note_on,58,0,160
3,note_on,60,26,0
3,note_on,60,0,160
3,note_on,61,31,0
3,note_on,61,0,160
3,note_on,65,28,0
3,note_on,65,0,160
3,note_on,63,28,0
3,note_on,63,0,160
3,note_on,61,32,0
3,note_on,60,29,159
3,note_on,61,0,1
3,note_on,60,0,159
3,note_on,58,29,2
3,note_on,51,0,159
3,note_on,51,36,0
3,note_on,58,0,1
3,note_on,56,28,159
3,note_on,56,0,160
3,note_on,58,28,0
3,note_on,58,0,160
3,note_on,60,32,0
3,note_on,60,0,158
3,note_on,56,29,2
3,note_on,56,0,160
3,note_on,58,26,0
3,note_on,58,0,160
3,note_on,60,31,0
3,note_on,60,0,158
3,note_on,56,28,2
3,note_on,56,0,160
3,note_on,58,28,0
3,note_on,58,0,160
3,note_on,60,32,0
3,note_on,60,0,160
3,note_on,58,29,0
3,note_on,58,0,160
3,note_on,56,29,0
3,note_on,56,0,160
3,note_on,51,0,0
3,note_on,51,36,0
3,note_on,53,28,128
3,note_on,53,0,160
3,note_on,55,28,0
3,note_on,55,0,160
3,note_on,56,33,0
3,note_on,56,0,86
3,note_on,53,31,2
3,note_on,53,0,160
3,note_on,55,27,0
3,note_on,55,0,160
3,note_on,56,36,0
3,note_on,56,0,257
3,note_on,55,33,0
3,note_on,55,0,160
3,note_on,53,42,0
3,note_on,53,0,152
3,note_on,51,0,0
3,note_on,51,36,0
3,note_on,51,0,144
3,note_on,50,37,0
3,note_on,50,0,160
3,note_on,39,43,0
3,note_on,46,37,92
3,note_on,46,0,160
3,note_on,51,39,0
3,note_on,51,0,160
3,note_on,39,0,0
3,note_on,55,43,0
3,note_on,55,0,160
3,note_on,51,37,0
3,note_on,51,0,160
3,note_on,46,39,0
3,note_on,46,0,160
3,note_on,39,45,0
3,note_on,46,42,84
3,note_on,46,0,160
3,note_on,51,42,0
3,note_on,51,0,160
3,note_on,39,0,0
3,note_on,55,46,0
3,note_on,55,0,160
3,note_on,51,42,0
3,note_on,51,0,160
3,note_on,46,42,0
3,note_on,46,0,160
3,note_on,39,55,0
3,note_on,50,39,89
3,note_on,50,0,160
3,note_on,53,39,0
3,note_on,53,0,160
3,note_on,39,0,0
3,note_on,56,48,0
3,note_on,56,0,160
3,note_on,58,41,0
3,note_on,58,0,160
3,note_on,62,41,0
3,note_on,62,0,160
3,note_on,65,47,0
3,note_on,65,0,160
3,note_on,70,36,0
3,note_on,70,0,160
3,note_on,74,34,0
3,note_on,74,0,160
3,note_on,77,30,0
3,note_on,77,0,240
3,note_on,82,26,0
3,note_on,82,0,120
3,note_on,86,28,120
3,note_on,86,0,120
3,note_on,39,31,1680
3,note_on,46,25,121
3,note_on,46,0,160
3,note_on,51,26,0
3,note_on,51,0,160
3,note_on,39,0,0
3,note_on,55,31,0
3,note_on,55,0,160
3,note_on,51,28,0
3,note_on,51,0,160
3,note_on,46,28,0
3,note_on,46,0,160
3,note_on,39,32,0
3,note_on,46,28,160
3,note_on,46,0,160
3,note_on,51,28,0
3,note_on,51,0,160
3,note_on,39,0,0
3,note_on,55,28,0
3,note_on,55,0,107
3,note_on,51,26,0
3,note_on,51,0,160
3,note_on,46,26,0
3,note_on,46,0,160
3,note_on,39,31,0
3,note_on,39,0,480
3,note_on,39,28,480
3,note_on,39,0,480
3,note_on,39,18,480
3,note_on,39,0,1920
