Track,Message Type,Note,Velocity,Time
1,note_on,69,51,3360
1,note_on,69,0,480
1,note_on,68,57,0
1,note_on,68,0,480
1,note_on,66,48,0
1,note_on,66,0,480
1,note_on,64,48,0
1,note_on,64,0,450
1,note_on,76,69,30
1,note_on,76,0,480
1,note_on,75,68,0
1,note_on,75,0,480
1,note_on,73,56,0
1,note_on,73,0,480
1,note_on,71,52,0
1,note_on,71,0,450
1,note_on,73,61,30
1,note_on,73,0,480
1,note_on,69,62,0
1,note_on,69,0,480
1,note_on,71,52,0
1,note_on,71,0,240
1,note_on,66,47,0
1,note_on,66,0,240
1,note_on,68,52,0
1,note_on,68,0,240
1,note_on,69,50,0
1,note_on,69,0,60
1,note_on,68,39,0
1,note_on,68,0,60
1,note_on,66,42,0
1,note_on,66,0,60
1,note_on,68,34,0
1,note_on,68,0,60
1,note_on,71,52,0
1,note_on,71,0,240
1,note_on,69,52,0
1,note_on,69,0,240
1,note_on,68,52,0
1,note_on,68,0,960
1,note_on,66,48,0
1,note_on,66,0,240
1,note_on,69,51,240
1,note_on,69,0,480
1,note_on,68,57,0
1,note_on,68,0,480
1,note_on,66,48,0
1,note_on,66,0,480
1,note_on,64,48,0
1,note_on,64,0,450
1,note_on,76,70,30
1,note_on,76,0,480
1,note_on,75,71,0
1,note_on,75,0,480
1,note_on,73,54,0
1,note_on,73,0,480
1,note_on,71,64,0
1,note_on,71,0,450
1,note_on,80,78,30
1,note_on,80,0,480
1,note_on,73,67,0
1,note_on,73,0,1430
1,note_on,80,54,10
1,note_on,80,0,480
1,note_on,73,47,0
1,note_on,73,0,1430
1,note_on,73,61,10
1,note_on,73,0,470
1,note_on,73,62,10
1,note_on,73,0,480
1,note_on,76,57,0
1,note_on,76,0,480
1,note_on,75,50,0
1,note_on,75,0,480
1,note_on,73,50,0
1,note_on,73,0,240
1,note_on,68,43,0
1,note_on,68,0,240
1,note_on,71,49,0
1,note_on,71,0,960
1,note_on,70,44,0
1,note_on,70,0,960
1,note_on,69,43,0
1,note_on,69,0,960
1,note_on,68,36,0
1,note_on,68,0,240
1,note_on,68,63,240
1,note_on,68,0,480
1,note_on,70,70,0
1,note_on,70,0,480
1,note_on,71,81,0
1,note_on,71,0,480
1,note_on,75,89,0
1,note_on,75,0,480
1,note_on,73,75,0
1,note_on,73,0,360
1,note_on,71,67,0
1,note_on,71,0,110
1,note_on,71,80,10
1,note_on,71,0,960
1,note_on,69,51,480
1,note_on,69,0,480
1,note_on,68,57,0
1,note_on,68,0,480
1,note_on,66,48,0
1,note_on,66,0,480
1,note_on,64,48,0
1,note_on,64,0,450
1,note_on,76,66,30
1,note_on,76,0,480
1,note_on,75,62,0
1,note_on,75,0,480
1,note_on,73,52,0
1,note_on,73,0,480
1,note_on,71,52,0
1,note_on,71,0,450
1,note_on,73,61,30
1,note_on,73,0,480
1,note_on,69,62,0
1,note_on,69,0,480
1,note_on,71,52,0
1,note_on,71,0,240
1,note_on,66,47,0
1,note_on,66,0,240
1,note_on,68,52,0
1,note_on,68,0,240
1,note_on,69,50,0
1,note_on,69,0,60
1,note_on,68,39,0
1,note_on,68,0,60
1,note_on,66,42,0
1,note_on,66,0,60
1,note_on,68,34,0
1,note_on,68,0,60
1,note_on,71,52,0
1,note_on,71,0,240
1,note_on,69,52,0
1,note_on,69,0,240
1,note_on,68,52,0
1,note_on,68,0,960
1,note_on,66,48,0
1,note_on,66,0,240
1,note_on,69,51,240
1,note_on,69,0,480
1,note_on,68,57,0
1,note_on,68,0,480
1,note_on,66,48,0
1,note_on,66,0,480
1,note_on,64,48,0
1,note_on,64,0,450
1,note_on,76,70,30
1,note_on,76,0,480
1,note_on,75,71,0
1,note_on,75,0,480
1,note_on,73,54,0
1,note_on,73,0,480
1,note_on,71,64,0
1,note_on,71,0,450
1,note_on,80,78,30
1,note_on,80,0,480
1,note_on,73,67,0
1,note_on,73,0,1410
1,note_on,80,54,30
1,note_on,80,0,480
1,note_on,73,47,0
1,note_on,73,0,1410
1,note_on,73,56,30
1,note_on,73,0,470
1,note_on,73,62,10
1,note_on,73,0,480
1,note_on,76,57,0
1,note_on,76,0,480
1,note_on,75,51,0
1,note_on,75,0,480
1,note_on,73,50,0
1,note_on,73,0,240
1,note_on,68,44,0
1,note_on,68,0,240
1,note_on,71,50,0
1,note_on,71,0,960
1,note_on,70,44,0
1,note_on,70,0,960
1,note_on,69,43,0
1,note_on,69,0,960
1,note_on,68,36,0
1,note_on,68,0,240
1,note_on,68,63,240
1,note_on,68,0,480
1,note_on,70,70,0
1,note_on,70,0,480
1,note_on,71,81,0
1,note_on,71,0,480
1,note_on,75,89,0
1,note_on,75,0,480
1,note_on,73,75,0
1,note_on,73,0,360
1,note_on,71,67,0
1,note_on,71,0,110
1,note_on,71,80,10
1,note_on,71,0,960
1,note_on,66,51,480
1,note_on,66,0,180
1,note_on,66,51,60
1,note_on,66,0,180
1,note_on,67,57,60
1,note_on,67,0,480
1,note_on,66,50,0
1,note_on,66,0,240
1,note_on,64,51,0
1,note_on,64,0,240
1,note_on,69,53,0
1,note_on,69,0,450
1,note_on,69,65,30
1,note_on,69,0,180
1,note_on,69,64,60
1,note_on,69,0,180
1,note_on,71,75,60
1,note_on,71,0,480
1,note_on,69,61,0
1,note_on,69,0,240
1,note_on,67,63,0
1,note_on,67,0,240
1,note_on,72,69,0
1,note_on,72,0,450
1,note_on,72,78,30
1,note_on,72,0,180
1,note_on,72,72,60
1,note_on,72,0,180
1,note_on,74,86,60
1,note_on,74,0,480
1,note_on,72,72,0
1,note_on,72,0,240
1,note_on,71,74,0
1,note_on,71,0,240
1,note_on,79,86,0
1,note_on,79,0,450
1,note_on,78,85,30
1,note_on,78,0,240
1,note_on,76,70,0
1,note_on,76,0,240
1,note_on,74,81,0
1,note_on,74,0,450
1,note_on,74,74,30
1,note_on,74,0,480
1,note_on,74,68,0
1,note_on,74,0,120
1,note_on,78,64,0
1,note_on,78,0,120
1,note_on,81,69,0
1,note_on,81,0,120
1,note_on,84,69,0
1,note_on,84,0,120
1,note_on,83,74,0
1,note_on,83,0,120
1,note_on,81,66,0
1,note_on,81,0,120
1,note_on,79,70,0
1,note_on,79,0,120
1,note_on,78,65,0
1,note_on,78,0,120
1,note_on,76,70,0
1,note_on,76,0,120
1,note_on,75,64,0
1,note_on,75,0,120
1,note_on,78,70,0
1,note_on,78,0,360
1,note_on,76,66,0
1,note_on,76,0,120
1,note_on,74,64,0
1,note_on,74,0,120
1,note_on,72,58,0
1,note_on,72,0,120
1,note_on,71,64,0
1,note_on,71,0,120
1,note_on,69,57,0
1,note_on,69,0,120
1,note_on,68,61,0
1,note_on,68,0,120
1,note_on,69,50,0
1,note_on,69,0,120
1,note_on,68,46,0
1,note_on,68,0,120
1,note_on,69,46,0
1,note_on,69,0,60
1,note_on,71,46,60
1,note_on,71,0,60
1,note_on,72,41,60
1,note_on,72,0,60
1,note_on,74,50,60
1,note_on,74,0,480
1,note_on,71,46,0
1,note_on,71,0,480
1,note_on,69,46,0
1,note_on,69,0,450
1,note_on,76,56,30
1,note_on,76,0,480
1,note_on,74,57,0
1,note_on,74,0,480
1,note_on,71,48,0
1,note_on,71,0,480
1,note_on,69,48,0
1,note_on,69,0,450
1,note_on,71,56,30
1,note_on,71,0,240
1,note_on,72,49,0
1,note_on,72,0,240
1,note_on,71,57,0
1,note_on,71,0,120
1,note_on,71,47,120
1,note_on,71,0,240
1,note_on,74,54,0
1,note_on,74,0,240
1,note_on,71,48,0
1,note_on,71,0,210
1,note_on,71,53,30
1,note_on,71,0,240
1,note_on,69,48,0
1,note_on,69,0,240
1,note_on,67,40,0
1,note_on,67,0,240
1,note_on,69,40,0
1,note_on,69,0,240
1,note_on,71,47,0
1,note_on,71,0,2160
1,note_on,71,35,0
1,note_on,71,0,240
1,note_on,74,40,0
1,note_on,74,0,240
1,note_on,71,36,0
1,note_on,71,0,210
1,note_on,71,39,30
1,note_on,71,0,240
1,note_on,69,36,0
1,note_on,69,0,240
1,note_on,67,30,0
1,note_on,67,0,240
1,note_on,69,30,0
1,note_on,69,0,240
1,note_on,71,35,0
1,note_on,71,0,1440
1,note_on,70,49,0
1,note_on,70,0,480
1,note_on,71,57,0
1,note_on,71,0,960
1,note_on,72,54,480
1,note_on,72,0,480
1,note_on,71,57,0
1,note_on,71,0,960
1,note_on,69,71,480
1,note_on,69,0,480
1,note_on,68,79,0
1,note_on,68,0,480
1,note_on,66,67,0
1,note_on,66,0,480
1,note_on,64,67,0
1,note_on,64,0,450
1,note_on,76,78,30
1,note_on,76,0,480
1,note_on,75,79,0
1,note_on,75,0,480
1,note_on,73,67,0
1,note_on,73,0,480
1,note_on,71,67,0
1,note_on,71,0,450
1,note_on,73,78,30
1,note_on,73,0,480
1,note_on,69,79,0
1,note_on,69,0,240
1,note_on,73,75,0
1,note_on,73,0,240
1,note_on,71,67,0
1,note_on,71,0,240
1,note_on,66,60,0
1,note_on,66,0,240
1,note_on,68,67,0
1,note_on,68,0,210
1,note_on,68,57,30
1,note_on,68,0,240
1,note_on,71,67,0
1,note_on,71,0,240
1,note_on,69,57,0
1,note_on,69,0,240
1,note_on,68,67,0
1,note_on,68,0,960
1,note_on,66,61,0
1,note_on,66,0,240
1,note_on,68,51,240
1,note_on,68,0,240
1,note_on,69,45,0
1,note_on,69,0,240
1,note_on,71,57,0
1,note_on,71,0,480
1,note_on,68,48,0
1,note_on,68,0,480
1,note_on,66,48,0
1,note_on,66,0,450
1,note_on,73,56,30
1,note_on,73,0,480
1,note_on,71,57,0
1,note_on,71,0,480
1,note_on,68,48,0
1,note_on,68,0,480
1,note_on,66,49,0
1,note_on,66,0,450
1,note_on,76,64,30
1,note_on,76,0,480
1,note_on,76,60,0
1,note_on,76,0,480
1,note_on,71,52,0
1,note_on,71,0,710
1,note_on,71,56,10
1,note_on,71,0,240
1,note_on,73,62,0
1,note_on,73,0,240
1,note_on,71,61,0
1,note_on,71,0,240
1,note_on,69,55,0
1,note_on,69,0,960
1,note_on,68,53,0
1,note_on,68,0,240
1,note_on,66,60,0
1,note_on,66,0,240
1,note_on,68,61,0
1,note_on,68,0,240
1,note_on,69,61,0
1,note_on,69,0,240
1,note_on,71,68,0
1,note_on,71,0,480
1,note_on,68,59,0
1,note_on,68,0,480
1,note_on,66,60,0
1,note_on,66,0,450
1,note_on,73,71,30
1,note_on,73,0,480
1,note_on,71,73,0
1,note_on,71,0,480
1,note_on,68,62,0
1,note_on,68,0,480
1,note_on,66,63,0
1,note_on,66,0,450
1,note_on,76,75,30
1,note_on,76,0,480
1,note_on,75,77,0
1,note_on,75,0,480
1,note_on,73,66,0
1,note_on,73,0,480
1,note_on,71,69,0
1,note_on,71,0,240
1,note_on,75,70,0
1,note_on,75,0,240
1,note_on,78,75,0
1,note_on,78,0,240
1,note_on,81,77,0
1,note_on,81,0,240
1,note_on,80,75,0
1,note_on,80,0,240
1,note_on,75,63,0
1,note_on,75,0,240
1,note_on,78,71,0
1,note_on,78,0,240
1,note_on,76,64,0
1,note_on,76,0,240
1,note_on,75,63,0
1,note_on,75,0,240
1,note_on,73,54,0
1,note_on,73,0,240
1,note_on,69,59,0
1,note_on,69,0,240
1,note_on,66,51,0
1,note_on,66,0,240
1,note_on,64,63,0
1,note_on,64,0,960
1,note_on,63,44,0
1,note_on,63,0,960
1,note_on,62,43,0
1,note_on,62,0,960
1,note_on,61,36,0
1,note_on,61,0,240
1,note_on,61,56,240
1,note_on,61,0,480
1,note_on,63,58,0
1,note_on,63,0,480
1,note_on,64,65,0
1,note_on,64,0,480
1,note_on,68,70,0
1,note_on,68,0,480
1,note_on,66,63,0
1,note_on,66,0,360
1,note_on,64,53,0
1,note_on,64,0,110
1,note_on,64,66,10
1,note_on,64,0,960
1,note_on,62,49,480
1,note_on,62,0,480
1,note_on,61,55,0
1,note_on,61,0,960
1,note_on,60,42,480
1,note_on,60,0,480
1,note_on,59,47,0
1,note_on,59,0,960
1,note_on,68,36,480
1,note_on,68,0,240
1,note_on,66,35,0
1,note_on,66,0,240
1,note_on,64,39,0
1,note_on,64,0,960
1,note_on,68,34,480
1,note_on,68,0,480
1,note_on,64,38,0
1,note_on,64,0,950
1,note_on,64,38,10
1,note_on,64,0,950
1,note_on,56,19,10
1,note_on,64,26,0
1,note_on,64,0,1920
1,note_on,56,0,0
2,note_on,47,28,0
2,note_on,47,0,120
2,note_on,52,20,0
2,note_on,52,0,120
2,note_on,56,21,0
2,note_on,56,0,120
2,note_on,59,20,0
2,note_on,59,0,120
2,note_on,47,26,0
2,note_on,47,0,120
2,note_on,52,20,0
2,note_on,52,0,120
2,note_on,56,21,0
2,note_on,56,0,120
2,note_on,59,19,0
2,note_on,59,0,120
2,note_on,47,28,0
2,note_on,47,0,120
2,note_on,52,21,0
2,note_on,52,0,120
2,note_on,56,21,0
2,note_on,56,0,120
2,note_on,59,20,0
2,note_on,59,0,120
2,note_on,47,27,0
2,note_on,47,0,120
2,note_on,52,23,0
2,note_on,52,0,120
2,note_on,56,22,0
2,note_on,56,0,120
2,note_on,59,20,0
2,note_on,59,0,120
2,note_on,47,31,0
2,note_on,47,0,120
2,note_on,51,23,0
2,note_on,51,0,120
2,note_on,57,23,0
2,note_on,57,0,120
2,note_on,59,23,0
2,note_on,59,0,120
2,note_on,47,30,0
2,note_on,47,0,120
2,note_on,51,23,0
2,note_on,51,0,120
2,note_on,57,23,0
2,note_on,57,0,120
2,note_on,59,22,0
2,note_on,59,0,120
2,note_on,47,32,0
2,note_on,47,0,120
2,note_on,51,25,0
2,note_on,51,0,120
2,note_on,54,26,0
2,note_on,54,0,120
2,note_on,59,29,0
2,note_on,59,0,120
2,note_on,47,31,0
2,note_on,47,0,120
2,note_on,51,26,0
2,note_on,51,0,120
2,note_on,54,32,0
2,note_on,54,0,120
2,note_on,59,34,0
2,note_on,59,0,120
2,note_on,47,40,0
2,note_on,47,0,120
2,note_on,52,26,0
2,note_on,52,0,120
2,note_on,56,26,0
2,note_on,56,0,120
2,note_on,59,25,0
2,note_on,59,0,120
2,note_on,47,32,0
2,note_on,47,0,120
2,note_on,51,25,0
2,note_on,51,0,120
2,note_on,57,25,0
2,note_on,57,0,120
2,note_on,59,23,0
2,note_on,59,0,120
2,note_on,47,33,0
2,note_on,47,0,120
2,note_on,52,27,0
2,note_on,52,0,120
2,note_on,56,34,0
2,note_on,56,0,120
2,note_on,59,44,0
2,note_on,59,0,120
2,note_on,54,53,0
2,note_on,54,0,120
2,note_on,61,31,0
2,note_on,61,0,120
2,note_on,64,39,0
2,note_on,64,0,120
2,note_on,66,23,0
2,note_on,66,0,120
2,note_on,54,35,0
2,note_on,54,0,120
2,note_on,59,26,0
2,note_on,59,0,120
2,note_on,63,26,0
2,note_on,63,0,120
2,note_on,66,25,0
2,note_on,66,0,120
2,note_on,54,32,0
2,note_on,54,0,120
2,note_on,58,25,0
2,note_on,58,0,120
2,note_on,64,25,0
2,note_on,64,0,120
2,note_on,66,23,0
2,note_on,66,0,120
2,note_on,54,33,0
2,note_on,54,0,120
2,note_on,59,27,0
2,note_on,59,0,120
2,note_on,63,33,0
2,note_on,63,0,120
2,note_on,66,40,0
2,note_on,66,0,120
2,note_on,56,46,0
2,note_on,56,0,120
2,note_on,59,26,0
2,note_on,59,0,120
2,note_on,61,25,0
2,note_on,61,0,120
2,note_on,68,23,0
2,note_on,68,0,120
2,note_on,57,26,120
2,note_on,57,0,120
2,note_on,61,26,0
2,note_on,61,0,120
2,note_on,64,25,0
2,note_on,64,0,120
2,note_on,54,32,0
2,note_on,54,0,120
2,note_on,57,25,0
2,note_on,57,0,120
2,note_on,59,25,0
2,note_on,59,0,120
2,note_on,63,23,0
2,note_on,63,0,120
2,note_on,56,25,120
2,note_on,56,0,120
2,note_on,59,25,0
2,note_on,59,0,120
2,note_on,64,24,0
2,note_on,64,0,120
2,note_on,52,31,0
2,note_on,52,0,120
2,note_on,54,26,0
2,note_on,54,0,120
2,note_on,61,25,0
2,note_on,61,0,120
2,note_on,64,23,0
2,note_on,64,0,120
2,note_on,52,35,0
2,note_on,52,0,120
2,note_on,56,26,0
2,note_on,56,0,120
2,note_on,59,26,0
2,note_on,59,0,120
2,note_on,64,25,0
2,note_on,64,0,120
2,note_on,52,32,0
2,note_on,52,0,120
2,note_on,56,25,0
2,note_on,56,0,120
2,note_on,59,25,0
2,note_on,59,0,120
2,note_on,64,23,0
2,note_on,64,0,120
2,note_on,51,29,0
2,note_on,51,0,120
2,note_on,54,25,0
2,note_on,54,0,120
2,note_on,59,25,0
2,note_on,59,0,120
2,note_on,63,24,0
2,note_on,63,0,120
2,note_on,47,31,0
2,note_on,47,0,120
2,note_on,54,27,0
2,note_on,54,0,120
2,note_on,57,29,0
2,note_on,57,0,120
2,note_on,59,32,0
2,note_on,59,0,120
2,note_on,47,40,0
2,note_on,47,0,120
2,note_on,52,26,0
2,note_on,52,0,120
2,note_on,56,29,0
2,note_on,56,0,120
2,note_on,59,31,0
2,note_on,59,0,120
2,note_on,47,38,0
2,note_on,47,0,120
2,note_on,51,25,0
2,note_on,51,0,120
2,note_on,57,30,0
2,note_on,57,0,120
2,note_on,59,26,0
2,note_on,59,0,120
2,note_on,47,33,0
2,note_on,47,0,120
2,note_on,52,29,0
2,note_on,52,0,120
2,note_on,56,31,0
2,note_on,56,0,120
2,note_on,59,36,0
2,note_on,59,0,120
2,note_on,54,42,0
2,note_on,54,0,120
2,note_on,61,30,0
2,note_on,61,0,120
2,note_on,64,32,0
2,note_on,64,0,120
2,note_on,66,29,0
2,note_on,66,0,120
2,note_on,54,35,0
2,note_on,54,0,120
2,note_on,59,26,0
2,note_on,59,0,120
2,note_on,63,26,0
2,note_on,63,0,120
2,note_on,66,25,0
2,note_on,66,0,120
2,note_on,54,32,0
2,note_on,54,0,120
2,note_on,58,25,0
2,note_on,58,0,120
2,note_on,64,25,0
2,note_on,64,0,120
2,note_on,66,23,0
2,note_on,66,0,120
2,note_on,54,33,0
2,note_on,54,0,120
2,note_on,59,38,0
2,note_on,59,0,120
2,note_on,63,39,0
2,note_on,63,0,120
2,note_on,66,48,0
2,note_on,66,0,120
2,note_on,59,54,0
2,note_on,59,0,120
2,note_on,61,35,0
2,note_on,61,0,120
2,note_on,68,40,0
2,note_on,68,0,120
2,note_on,71,33,0
2,note_on,71,0,120
2,note_on,59,42,0
2,note_on,59,0,120
2,note_on,61,29,0
2,note_on,61,0,120
2,note_on,68,29,0
2,note_on,68,0,120
2,note_on,71,29,0
2,note_on,71,0,120
2,note_on,59,38,0
2,note_on,59,0,120
2,note_on,61,26,0
2,note_on,61,0,120
2,note_on,68,26,0
2,note_on,68,0,120
2,note_on,71,26,0
2,note_on,71,0,120
2,note_on,59,35,0
2,note_on,59,0,120
2,note_on,61,27,0
2,note_on,61,0,120
2,note_on,68,27,0
2,note_on,68,0,120
2,note_on,71,27,0
2,note_on,71,0,120
2,note_on,59,35,0
2,note_on,59,0,120
2,note_on,61,18,0
2,note_on,61,0,120
2,note_on,68,19,0
2,note_on,68,0,120
2,note_on,71,20,0
2,note_on,71,0,120
2,note_on,59,29,0
2,note_on,59,0,120
2,note_on,61,20,0
2,note_on,61,0,120
2,note_on,68,20,0
2,note_on,68,0,120
2,note_on,71,20,0
2,note_on,71,0,120
2,note_on,59,26,0
2,note_on,59,0,120
2,note_on,61,18,0
2,note_on,61,0,120
2,note_on,68,18,0
2,note_on,68,0,120
2,note_on,71,18,0
2,note_on,71,0,120
2,note_on,59,24,0
2,note_on,59,0,120
2,note_on,61,18,0
2,note_on,61,0,120
2,note_on,68,18,0
2,note_on,68,0,120
2,note_on,71,18,0
2,note_on,71,0,120
2,note_on,59,31,0
2,note_on,59,0,120
2,note_on,61,26,0
2,note_on,61,0,120
2,note_on,68,25,0
2,note_on,68,0,120
2,note_on,71,23,0
2,note_on,71,0,120
2,note_on,58,29,0
2,note_on,58,0,120
2,note_on,61,25,0
2,note_on,61,0,120
2,note_on,66,29,0
2,note_on,66,0,120
2,note_on,70,25,0
2,note_on,70,0,120
2,note_on,54,32,0
2,note_on,54,0,120
2,note_on,61,25,0
2,note_on,61,0,120
2,note_on,64,25,0
2,note_on,64,0,120
2,note_on,66,23,0
2,note_on,66,0,120
2,note_on,54,29,0
2,note_on,54,0,120
2,note_on,59,25,0
2,note_on,59,0,120
2,note_on,63,25,0
2,note_on,63,0,120
2,note_on,66,24,0
2,note_on,66,0,120
2,note_on,56,26,120
2,note_on,56,0,120
2,note_on,61,25,0
2,note_on,61,0,120
2,note_on,64,23,0
2,note_on,64,0,120
2,note_on,59,26,120
2,note_on,59,0,120
2,note_on,63,26,0
2,note_on,63,0,120
2,note_on,66,25,0
2,note_on,66,0,120
2,note_on,54,32,0
2,note_on,54,0,120
2,note_on,59,25,0
2,note_on,59,0,120
2,note_on,63,25,0
2,note_on,63,0,120
2,note_on,66,23,0
2,note_on,66,0,120
2,note_on,54,29,0
2,note_on,54,0,120
2,note_on,61,31,0
2,note_on,61,0,120
2,note_on,64,38,0
2,note_on,64,0,120
2,note_on,66,44,0
2,note_on,66,0,120
2,note_on,54,49,0
2,note_on,54,0,120
2,note_on,61,33,0
2,note_on,61,0,120
2,note_on,64,41,0
2,note_on,64,0,120
2,note_on,66,31,0
2,note_on,66,0,120
2,note_on,54,32,0
2,note_on,54,0,120
2,note_on,60,26,0
2,note_on,60,0,120
2,note_on,63,30,0
2,note_on,63,0,120
2,note_on,66,38,0
2,note_on,66,0,120
2,note_on,54,41,0
2,note_on,54,0,120
2,note_on,60,25,0
2,note_on,60,0,120
2,note_on,63,25,0
2,note_on,63,0,120
2,note_on,66,23,0
2,note_on,66,0,120
2,note_on,52,29,0
2,note_on,52,0,120
2,note_on,56,25,0
2,note_on,56,0,120
2,note_on,61,25,0
2,note_on,61,0,120
2,note_on,64,24,0
2,note_on,64,0,110
2,note_on,52,31,10
2,note_on,52,0,120
2,note_on,56,30,0
2,note_on,56,0,120
2,note_on,61,33,0
2,note_on,61,0,120
2,note_on,64,38,0
2,note_on,64,0,120
2,note_on,52,45,0
2,note_on,52,0,120
2,note_on,58,30,0
2,note_on,58,0,120
2,note_on,64,32,0
2,note_on,64,0,120
2,note_on,66,41,0
2,note_on,66,0,120
2,note_on,52,46,0
2,note_on,52,0,120
2,note_on,59,33,0
2,note_on,59,0,120
2,note_on,64,43,0
2,note_on,64,0,120
2,note_on,66,53,0
2,note_on,66,0,120
2,note_on,54,58,0
2,note_on,54,0,120
2,note_on,61,40,0
2,note_on,61,0,120
2,note_on,64,46,0
2,note_on,64,0,120
2,note_on,66,38,0
2,note_on,66,0,120
2,note_on,54,40,0
2,note_on,54,0,120
2,note_on,58,32,0
2,note_on,58,0,120
2,note_on,64,31,0
2,note_on,64,0,120
2,note_on,66,28,0
2,note_on,66,0,120
2,note_on,54,36,0
2,note_on,54,0,120
2,note_on,59,32,0
2,note_on,59,0,120
2,note_on,63,32,0
2,note_on,63,0,120
2,note_on,66,31,0
2,note_on,66,0,120
2,note_on,54,40,0
2,note_on,54,0,120
2,note_on,59,31,0
2,note_on,59,0,120
2,note_on,63,31,0
2,note_on,63,0,120
2,note_on,66,28,0
2,note_on,66,0,120
2,note_on,51,36,0
2,note_on,51,0,120
2,note_on,54,31,0
2,note_on,54,0,120
2,note_on,59,31,0
2,note_on,59,0,120
2,note_on,63,30,0
2,note_on,63,0,120
2,note_on,47,31,0
2,note_on,47,0,120
2,note_on,51,26,0
2,note_on,51,0,120
2,note_on,54,32,0
2,note_on,54,0,120
2,note_on,59,34,0
2,note_on,59,0,120
2,note_on,47,40,0
2,note_on,47,0,120
2,note_on,52,26,0
2,note_on,52,0,120
2,note_on,56,26,0
2,note_on,56,0,120
2,note_on,59,25,0
2,note_on,59,0,120
2,note_on,47,32,0
2,note_on,47,0,120
2,note_on,51,25,0
2,note_on,51,0,120
2,note_on,57,25,0
2,note_on,57,0,120
2,note_on,59,23,0
2,note_on,59,0,120
2,note_on,47,33,0
2,note_on,47,0,120
2,note_on,52,27,0
2,note_on,52,0,120
2,note_on,56,34,0
2,note_on,56,0,120
2,note_on,59,44,0
2,note_on,59,0,120
2,note_on,54,53,0
2,note_on,54,0,120
2,note_on,61,31,0
2,note_on,61,0,120
2,note_on,64,39,0
2,note_on,64,0,120
2,note_on,66,23,0
2,note_on,66,0,120
2,note_on,54,35,0
2,note_on,54,0,120
2,note_on,59,26,0
2,note_on,59,0,120
2,note_on,63,26,0
2,note_on,63,0,120
2,note_on,66,25,0
2,note_on,66,0,120
2,note_on,54,32,0
2,note_on,54,0,120
2,note_on,58,25,0
2,note_on,58,0,120
2,note_on,64,25,0
2,note_on,64,0,120
2,note_on,66,23,0
2,note_on,66,0,120
2,note_on,54,33,0
2,note_on,54,0,120
2,note_on,59,27,0
2,note_on,59,0,120
2,note_on,63,33,0
2,note_on,63,0,120
2,note_on,66,40,0
2,note_on,66,0,120
2,note_on,56,46,0
2,note_on,56,0,120
2,note_on,59,26,0
2,note_on,59,0,120
2,note_on,61,25,0
2,note_on,61,0,120
2,note_on,68,23,0
2,note_on,68,0,120
2,note_on,57,26,120
2,note_on,57,0,120
2,note_on,61,26,0
2,note_on,61,0,120
2,note_on,64,25,0
2,note_on,64,0,120
2,note_on,54,32,0
2,note_on,54,0,120
2,note_on,57,25,0
2,note_on,57,0,120
2,note_on,59,25,0
2,note_on,59,0,120
2,note_on,63,23,0
2,note_on,63,0,120
2,note_on,56,25,120
2,note_on,56,0,120
2,note_on,59,25,0
2,note_on,59,0,120
2,note_on,64,24,0
2,note_on,64,0,120
2,note_on,52,31,0
2,note_on,52,0,120
2,note_on,54,26,0
2,note_on,54,0,120
2,note_on,61,25,0
2,note_on,61,0,120
2,note_on,64,23,0
2,note_on,64,0,120
2,note_on,52,35,0
2,note_on,52,0,120
2,note_on,56,26,0
2,note_on,56,0,120
2,note_on,59,26,0
2,note_on,59,0,120
2,note_on,64,25,0
2,note_on,64,0,120
2,note_on,52,32,0
2,note_on,52,0,120
2,note_on,56,25,0
2,note_on,56,0,120
2,note_on,59,25,0
2,note_on,59,0,120
2,note_on,64,23,0
2,note_on,64,0,120
2,note_on,51,29,0
2,note_on,51,0,120
2,note_on,54,25,0
2,note_on,54,0,120
2,note_on,59,25,0
2,note_on,59,0,120
2,note_on,63,24,0
2,note_on,63,0,120
2,note_on,47,31,0
2,note_on,47,0,120
2,note_on,54,27,0
2,note_on,54,0,120
2,note_on,57,29,0
2,note_on,57,0,120
2,note_on,59,32,0
2,note_on,59,0,120
2,note_on,47,40,0
2,note_on,47,0,120
2,note_on,52,26,0
2,note_on,52,0,120
2,note_on,56,29,0
2,note_on,56,0,120
2,note_on,59,31,0
2,note_on,59,0,120
2,note_on,47,38,0
2,note_on,47,0,120
2,note_on,51,25,0
2,note_on,51,0,120
2,note_on,57,30,0
2,note_on,57,0,120
2,note_on,59,26,0
2,note_on,59,0,120
2,note_on,47,33,0
2,note_on,47,0,120
2,note_on,52,29,0
2,note_on,52,0,120
2,note_on,56,31,0
2,note_on,56,0,120
2,note_on,59,36,0
2,note_on,59,0,120
2,note_on,54,42,0
2,note_on,54,0,120
2,note_on,61,30,0
2,note_on,61,0,120
2,note_on,64,32,0
2,note_on,64,0,120
2,note_on,66,29,0
2,note_on,66,0,120
2,note_on,54,35,0
2,note_on,54,0,120
2,note_on,59,26,0
2,note_on,59,0,120
2,note_on,63,26,0
2,note_on,63,0,120
2,note_on,66,25,0
2,note_on,66,0,120
2,note_on,54,32,0
2,note_on,54,0,120
2,note_on,58,25,0
2,note_on,58,0,120
2,note_on,64,25,0
2,note_on,64,0,120
2,note_on,66,23,0
2,note_on,66,0,120
2,note_on,54,33,0
2,note_on,54,0,120
2,note_on,59,38,0
2,note_on,59,0,120
2,note_on,63,39,0
2,note_on,63,0,120
2,note_on,66,48,0
2,note_on,66,0,120
2,note_on,59,54,0
2,note_on,59,0,120
2,note_on,61,35,0
2,note_on,61,0,120
2,note_on,68,40,0
2,note_on,68,0,120
2,note_on,71,33,0
2,note_on,71,0,120
2,note_on,59,42,0
2,note_on,59,0,120
2,note_on,61,29,0
2,note_on,61,0,120
2,note_on,68,29,0
2,note_on,68,0,120
2,note_on,71,29,0
2,note_on,71,0,120
2,note_on,59,38,0
2,note_on,59,0,120
2,note_on,61,26,0
2,note_on,61,0,120
2,note_on,68,26,0
2,note_on,68,0,120
2,note_on,71,26,0
2,note_on,71,0,120
2,note_on,59,35,0
2,note_on,59,0,120
2,note_on,61,27,0
2,note_on,61,0,120
2,note_on,68,27,0
2,note_on,68,0,120
2,note_on,71,27,0
2,note_on,71,0,120
2,note_on,59,35,0
2,note_on,59,0,120
2,note_on,61,18,0
2,note_on,61,0,120
2,note_on,68,19,0
2,note_on,68,0,120
2,note_on,71,20,0
2,note_on,71,0,120
2,note_on,59,29,0
2,note_on,59,0,120
2,note_on,61,20,0
2,note_on,61,0,120
2,note_on,68,20,0
2,note_on,68,0,120
2,note_on,71,20,0
2,note_on,71,0,120
2,note_on,59,26,0
2,note_on,59,0,120
2,note_on,61,18,0
2,note_on,61,0,120
2,note_on,68,18,0
2,note_on,68,0,120
2,note_on,71,18,0
2,note_on,71,0,120
2,note_on,59,24,0
2,note_on,59,0,120
2,note_on,61,18,0
2,note_on,61,0,120
2,note_on,68,18,0
2,note_on,68,0,120
2,note_on,71,18,0
2,note_on,71,0,120
2,note_on,59,31,0
2,note_on,59,0,120
2,note_on,61,26,0
2,note_on,61,0,120
2,note_on,68,25,0
2,note_on,68,0,120
2,note_on,71,23,0
2,note_on,71,0,120
2,note_on,58,29,0
2,note_on,58,0,120
2,note_on,61,25,0
2,note_on,61,0,120
2,note_on,66,29,0
2,note_on,66,0,120
2,note_on,70,25,0
2,note_on,70,0,120
2,note_on,54,32,0
2,note_on,54,0,120
2,note_on,61,25,0
2,note_on,61,0,120
2,note_on,64,25,0
2,note_on,64,0,120
2,note_on,66,23,0
2,note_on,66,0,120
2,note_on,54,29,0
2,note_on,54,0,120
2,note_on,59,25,0
2,note_on,59,0,120
2,note_on,63,25,0
2,note_on,63,0,120
2,note_on,66,24,0
2,note_on,66,0,120
2,note_on,56,26,120
2,note_on,56,0,120
2,note_on,61,25,0
2,note_on,61,0,120
2,note_on,64,23,0
2,note_on,64,0,120
2,note_on,59,26,120
2,note_on,59,0,120
2,note_on,63,26,0
2,note_on,63,0,120
2,note_on,66,25,0
2,note_on,66,0,120
2,note_on,54,32,0
2,note_on,54,0,120
2,note_on,59,25,0
2,note_on,59,0,120
2,note_on,63,25,0
2,note_on,63,0,120
2,note_on,66,23,0
2,note_on,66,0,120
2,note_on,54,29,0
2,note_on,54,0,120
2,note_on,61,31,0
2,note_on,61,0,120
2,note_on,64,38,0
2,note_on,64,0,120
2,note_on,66,44,0
2,note_on,66,0,120
2,note_on,54,49,0
2,note_on,54,0,120
2,note_on,61,33,0
2,note_on,61,0,120
2,note_on,64,41,0
2,note_on,64,0,120
2,note_on,66,31,0
2,note_on,66,0,120
2,note_on,54,32,0
2,note_on,54,0,120
2,note_on,60,26,0
2,note_on,60,0,120
2,note_on,63,30,0
2,note_on,63,0,120
2,note_on,66,38,0
2,note_on,66,0,120
2,note_on,54,41,0
2,note_on,54,0,120
2,note_on,60,25,0
2,note_on,60,0,120
2,note_on,63,25,0
2,note_on,63,0,120
2,note_on,66,23,0
2,note_on,66,0,120
2,note_on,52,29,0
2,note_on,52,0,120
2,note_on,56,25,0
2,note_on,56,0,120
2,note_on,61,25,0
2,note_on,61,0,120
2,note_on,64,24,0
2,note_on,64,0,110
2,note_on,52,31,10
2,note_on,52,0,120
2,note_on,56,30,0
2,note_on,56,0,120
2,note_on,61,33,0
2,note_on,61,0,120
2,note_on,64,38,0
2,note_on,64,0,120
2,note_on,52,45,0
2,note_on,52,0,120
2,note_on,58,30,0
2,note_on,58,0,120
2,note_on,64,32,0
2,note_on,64,0,120
2,note_on,66,41,0
2,note_on,66,0,120
2,note_on,52,46,0
2,note_on,52,0,120
2,note_on,59,33,0
2,note_on,59,0,120
2,note_on,64,43,0
2,note_on,64,0,120
2,note_on,66,53,0
2,note_on,66,0,120
2,note_on,54,58,0
2,note_on,54,0,120
2,note_on,61,40,0
2,note_on,61,0,120
2,note_on,64,46,0
2,note_on,64,0,120
2,note_on,66,38,0
2,note_on,66,0,120
2,note_on,54,40,0
2,note_on,54,0,120
2,note_on,58,32,0
2,note_on,58,0,120
2,note_on,64,31,0
2,note_on,64,0,120
2,note_on,66,28,0
2,note_on,66,0,120
2,note_on,54,36,0
2,note_on,54,0,120
2,note_on,59,32,0
2,note_on,59,0,120
2,note_on,63,32,0
2,note_on,63,0,120
2,note_on,66,31,0
2,note_on,66,0,120
2,note_on,54,40,0
2,note_on,54,0,120
2,note_on,59,31,0
2,note_on,59,0,120
2,note_on,63,31,0
2,note_on,63,0,120
2,note_on,66,28,0
2,note_on,66,0,120
2,note_on,51,36,0
2,note_on,51,0,120
2,note_on,54,31,0
2,note_on,54,0,120
2,note_on,59,31,0
2,note_on,59,0,120
2,note_on,63,30,0
2,note_on,63,0,120
2,note_on,51,31,0
2,note_on,51,0,120
2,note_on,54,26,0
2,note_on,54,0,120
2,note_on,59,32,0
2,note_on,59,0,120
2,note_on,63,34,0
2,note_on,63,0,120
2,note_on,47,40,0
2,note_on,47,0,120
2,note_on,52,26,0
2,note_on,52,0,120
2,note_on,55,26,0
2,note_on,55,0,120
2,note_on,59,26,0
2,note_on,59,0,120
2,note_on,47,33,0
2,note_on,47,0,120
2,note_on,52,26,0
2,note_on,52,0,120
2,note_on,55,27,0
2,note_on,55,0,120
2,note_on,59,25,0
2,note_on,59,0,120
2,note_on,48,36,0
2,note_on,48,0,120
2,note_on,50,30,0
2,note_on,50,0,120
2,note_on,57,38,0
2,note_on,57,0,120
2,note_on,60,51,0
2,note_on,60,0,120
2,note_on,54,36,120
2,note_on,54,0,120
2,note_on,60,46,0
2,note_on,60,0,120
2,note_on,62,27,0
2,note_on,62,0,120
2,note_on,50,49,0
2,note_on,50,0,120
2,note_on,55,32,0
2,note_on,55,0,120
2,note_on,59,32,0
2,note_on,59,0,120
2,note_on,62,31,0
2,note_on,62,0,120
2,note_on,52,41,0
2,note_on,52,0,120
2,note_on,55,32,0
2,note_on,55,0,120
2,note_on,59,33,0
2,note_on,59,0,120
2,note_on,64,30,0
2,note_on,64,0,120
2,note_on,52,44,0
2,note_on,52,0,120
2,note_on,57,36,0
2,note_on,57,0,120
2,note_on,60,46,0
2,note_on,60,0,120
2,note_on,64,42,0
2,note_on,64,0,120
2,note_on,51,46,0
2,note_on,51,0,120
2,note_on,57,44,0
2,note_on,57,0,120
2,note_on,60,55,0
2,note_on,60,0,120
2,note_on,66,33,0
2,note_on,66,0,120
2,note_on,50,58,0
2,note_on,50,0,120
2,note_on,55,38,0
2,note_on,55,0,120
2,note_on,62,38,0
2,note_on,62,0,120
2,note_on,67,37,0
2,note_on,67,0,120
2,note_on,55,48,0
2,note_on,55,0,120
2,note_on,59,38,0
2,note_on,59,0,120
2,note_on,62,38,0
2,note_on,62,0,120
2,note_on,67,35,0
2,note_on,67,0,120
2,note_on,55,52,0
2,note_on,55,0,120
2,note_on,64,45,0
2,note_on,64,0,120
2,note_on,67,54,0
2,note_on,67,0,120
2,note_on,72,63,0
2,note_on,72,0,120
2,note_on,55,56,0
2,note_on,55,0,120
2,note_on,64,52,0
2,note_on,64,0,120
2,note_on,67,56,0
2,note_on,67,0,120
2,note_on,72,39,0
2,note_on,72,0,120
2,note_on,54,52,0
2,note_on,54,0,120
2,note_on,60,45,0
2,note_on,60,0,120
2,note_on,62,54,0
2,note_on,62,0,120
2,note_on,69,50,0
2,note_on,69,0,120
2,note_on,55,56,0
2,note_on,55,0,120
2,note_on,60,52,0
2,note_on,60,0,120
2,note_on,62,56,0
2,note_on,62,0,120
2,note_on,67,39,0
2,note_on,67,0,120
2,note_on,62,62,0
2,note_on,60,52,0
2,note_on,57,52,0
2,note_on,54,52,0
2,note_on,54,0,480
2,note_on,62,0,0
2,note_on,60,0,0
2,note_on,57,0,0
2,note_on,59,26,2520
2,note_on,59,0,120
2,note_on,62,26,0
2,note_on,62,0,120
2,note_on,67,25,0
2,note_on,67,0,120
2,note_on,55,32,0
2,note_on,55,0,120
2,note_on,59,25,0
2,note_on,59,0,120
2,note_on,62,25,0
2,note_on,62,0,120
2,note_on,67,23,0
2,note_on,67,0,120
2,note_on,55,33,0
2,note_on,55,0,120
2,note_on,57,27,0
2,note_on,57,0,120
2,note_on,64,34,0
2,note_on,64,0,120
2,note_on,67,44,0
2,note_on,67,0,120
2,note_on,55,53,0
2,note_on,55,0,120
2,note_on,57,31,0
2,note_on,57,0,120
2,note_on,64,39,0
2,note_on,64,0,120
2,note_on,67,23,0
2,note_on,67,0,120
2,note_on,55,35,0
2,note_on,55,0,120
2,note_on,59,26,0
2,note_on,59,0,120
2,note_on,62,26,0
2,note_on,62,0,120
2,note_on,67,25,0
2,note_on,67,0,120
2,note_on,55,32,0
2,note_on,55,0,120
2,note_on,59,25,0
2,note_on,59,0,120
2,note_on,62,25,0
2,note_on,62,0,120
2,note_on,67,23,0
2,note_on,67,0,120
2,note_on,55,33,0
2,note_on,55,0,120
2,note_on,57,27,0
2,note_on,57,0,120
2,note_on,61,33,0
2,note_on,61,0,120
2,note_on,67,40,0
2,note_on,67,0,120
2,note_on,57,46,0
2,note_on,57,0,120
2,note_on,60,26,0
2,note_on,60,0,120
2,note_on,62,25,0
2,note_on,62,0,120
2,note_on,69,23,0
2,note_on,69,0,120
2,note_on,59,26,120
2,note_on,59,0,120
2,note_on,62,26,0
2,note_on,62,0,120
2,note_on,67,25,0
2,note_on,67,0,120
2,note_on,55,32,0
2,note_on,55,0,120
2,note_on,59,25,0
2,note_on,59,0,120
2,note_on,62,25,0
2,note_on,62,0,120
2,note_on,67,23,0
2,note_on,67,0,120
2,note_on,52,33,0
2,note_on,52,0,120
2,note_on,57,27,0
2,note_on,57,0,120
2,note_on,60,33,0
2,note_on,60,0,120
2,note_on,64,31,0
2,note_on,64,0,120
2,note_on,52,37,0
2,note_on,52,0,120
2,note_on,57,26,0
2,note_on,57,0,120
2,note_on,60,25,0
2,note_on,60,0,120
2,note_on,64,23,0
2,note_on,64,0,120
2,note_on,51,32,0
2,note_on,51,0,120
2,note_on,54,26,0
2,note_on,54,0,120
2,note_on,59,26,0
2,note_on,59,0,120
2,note_on,63,25,0
2,note_on,63,0,120
2,note_on,51,32,0
2,note_on,51,0,120
2,note_on,54,25,0
2,note_on,54,0,120
2,note_on,59,25,0
2,note_on,59,0,120
2,note_on,63,23,0
2,note_on,63,0,120
2,note_on,51,33,0
2,note_on,51,0,120
2,note_on,54,27,0
2,note_on,54,0,120
2,note_on,59,26,0
2,note_on,59,0,120
2,note_on,63,26,0
2,note_on,63,0,120
2,note_on,51,30,0
2,note_on,51,0,120
2,note_on,54,26,0
2,note_on,54,0,120
2,note_on,59,25,0
2,note_on,59,0,120
2,note_on,63,22,0
2,note_on,63,0,120
2,note_on,50,32,0
2,note_on,50,0,120
2,note_on,55,19,0
2,note_on,55,0,120
2,note_on,59,19,0
2,note_on,59,0,120
2,note_on,67,18,0
2,note_on,67,0,120
2,note_on,50,24,0
2,note_on,50,0,120
2,note_on,55,18,0
2,note_on,55,0,120
2,note_on,59,18,0
2,note_on,59,0,120
2,note_on,67,17,0
2,note_on,67,0,120
2,note_on,52,24,0
2,note_on,52,0,120
2,note_on,57,20,0
2,note_on,57,0,120
2,note_on,60,24,0
2,note_on,60,0,120
2,note_on,64,23,0
2,note_on,64,0,120
2,note_on,52,27,0
2,note_on,52,0,120
2,note_on,57,19,0
2,note_on,57,0,120
2,note_on,60,18,0
2,note_on,60,0,120
2,note_on,64,17,0
2,note_on,64,0,120
2,note_on,51,24,0
2,note_on,51,0,120
2,note_on,54,19,0
2,note_on,54,0,120
2,note_on,59,19,0
2,note_on,59,0,120
2,note_on,63,18,0
2,note_on,63,0,120
2,note_on,54,25,0
2,note_on,54,0,120
2,note_on,57,19,0
2,note_on,57,0,120
2,note_on,59,19,0
2,note_on,59,0,120
2,note_on,63,27,0
2,note_on,63,0,120
2,note_on,52,31,0
2,note_on,52,0,120
2,note_on,55,27,0
2,note_on,55,0,120
2,note_on,59,30,0
2,note_on,59,0,120
2,note_on,64,32,0
2,note_on,64,0,120
2,note_on,52,34,0
2,note_on,52,0,120
2,note_on,55,30,0
2,note_on,55,0,120
2,note_on,59,32,0
2,note_on,59,0,120
2,note_on,64,34,0
2,note_on,64,0,120
2,note_on,51,35,0
2,note_on,51,0,120
2,note_on,54,26,0
2,note_on,54,0,120
2,note_on,59,26,0
2,note_on,59,0,120
2,note_on,63,25,0
2,note_on,63,0,120
2,note_on,54,32,0
2,note_on,54,0,120
2,note_on,57,25,0
2,note_on,57,0,120
2,note_on,59,25,0
2,note_on,59,0,120
2,note_on,63,23,0
2,note_on,63,0,120
2,note_on,52,33,0
2,note_on,52,0,120
2,note_on,55,27,0
2,note_on,55,0,120
2,note_on,59,33,0
2,note_on,59,0,120
2,note_on,64,40,0
2,note_on,64,0,120
2,note_on,52,34,0
2,note_on,52,0,120
2,note_on,55,30,0
2,note_on,55,0,120
2,note_on,59,32,0
2,note_on,59,0,120
2,note_on,64,34,0
2,note_on,64,0,120
2,note_on,51,35,0
2,note_on,51,0,120
2,note_on,54,26,0
2,note_on,54,0,120
2,note_on,59,26,0
2,note_on,59,0,120
2,note_on,63,25,0
2,note_on,63,0,120
2,note_on,51,32,0
2,note_on,51,0,120
2,note_on,54,25,0
2,note_on,54,0,120
2,note_on,59,25,0
2,note_on,59,0,120
2,note_on,63,23,0
2,note_on,63,0,120
2,note_on,54,33,0
2,note_on,54,0,120
2,note_on,57,27,0
2,note_on,57,0,120
2,note_on,59,33,0
2,note_on,59,0,120
2,note_on,63,40,0
2,note_on,63,0,120
2,note_on,51,43,0
2,note_on,51,0,120
2,note_on,54,36,0
2,note_on,54,0,120
2,note_on,59,44,0
2,note_on,59,0,120
2,note_on,63,47,0
2,note_on,63,0,120
2,note_on,47,56,0
2,note_on,47,0,120
2,note_on,52,37,0
2,note_on,52,0,120
2,note_on,56,38,0
2,note_on,56,0,120
2,note_on,59,38,0
2,note_on,59,0,120
2,note_on,47,50,0
2,note_on,47,0,120
2,note_on,51,43,0
2,note_on,51,0,120
2,note_on,57,46,0
2,note_on,57,0,120
2,note_on,59,48,0
2,note_on,59,0,120
2,note_on,47,59,0
2,note_on,47,0,120
2,note_on,52,48,0
2,note_on,52,0,120
2,note_on,56,63,0
2,note_on,56,0,120
2,note_on,59,61,0
2,note_on,59,0,120
2,note_on,54,74,0
2,note_on,54,0,120
2,note_on,61,43,0
2,note_on,61,0,120
2,note_on,64,54,0
2,note_on,64,0,120
2,note_on,66,32,0
2,note_on,66,0,120
2,note_on,54,49,0
2,note_on,54,0,120
2,note_on,59,36,0
2,note_on,59,0,120
2,note_on,63,36,0
2,note_on,63,0,120
2,note_on,66,35,0
2,note_on,66,0,120
2,note_on,54,44,0
2,note_on,54,0,120
2,note_on,58,35,0
2,note_on,58,0,120
2,note_on,64,35,0
2,note_on,64,0,120
2,note_on,66,32,0
2,note_on,66,0,120
2,note_on,54,46,0
2,note_on,54,0,120
2,note_on,59,37,0
2,note_on,59,0,120
2,note_on,63,46,0
2,note_on,63,0,120
2,note_on,66,56,0
2,note_on,66,0,120
2,note_on,56,64,0
2,note_on,56,0,120
2,note_on,59,48,0
2,note_on,59,0,120
2,note_on,61,51,0
2,note_on,61,0,120
2,note_on,68,38,0
2,note_on,68,0,120
2,note_on,57,49,0
2,note_on,57,0,120
2,note_on,61,46,0
2,note_on,61,0,120
2,note_on,64,49,0
2,note_on,64,0,120
2,note_on,66,45,0
2,note_on,66,0,120
2,note_on,54,57,0
2,note_on,54,0,120
2,note_on,57,45,0
2,note_on,57,0,120
2,note_on,59,45,0
2,note_on,59,0,120
2,note_on,63,41,0
2,note_on,63,0,120
2,note_on,56,45,120
2,note_on,56,0,120
2,note_on,59,45,0
2,note_on,59,0,120
2,note_on,64,42,0
2,note_on,64,0,120
2,note_on,52,46,120
2,note_on,52,0,120
2,note_on,57,45,0
2,note_on,57,0,120
2,note_on,64,41,0
2,note_on,64,0,120
2,note_on,52,63,0
2,note_on,52,0,120
2,note_on,56,46,0
2,note_on,56,0,120
2,note_on,59,46,0
2,note_on,59,0,120
2,note_on,64,45,0
2,note_on,64,0,120
2,note_on,52,57,0
2,note_on,52,0,120
2,note_on,56,45,0
2,note_on,56,0,120
2,note_on,59,45,0
2,note_on,59,0,120
2,note_on,64,41,0
2,note_on,64,0,120
2,note_on,51,52,0
2,note_on,51,0,120
2,note_on,54,46,0
2,note_on,54,0,120
2,note_on,59,40,0
2,note_on,59,0,120
2,note_on,63,35,0
2,note_on,63,0,120
2,note_on,51,30,0
2,note_on,51,0,120
2,note_on,54,26,0
2,note_on,54,0,120
2,note_on,59,32,0
2,note_on,59,0,120
2,note_on,63,34,0
2,note_on,63,0,120
2,note_on,52,40,0
2,note_on,52,0,120
2,note_on,56,26,0
2,note_on,56,0,120
2,note_on,59,26,0
2,note_on,59,0,120
2,note_on,64,25,0
2,note_on,64,0,120
2,note_on,52,32,0
2,note_on,52,0,120
2,note_on,56,25,0
2,note_on,56,0,120
2,note_on,59,25,0
2,note_on,59,0,120
2,note_on,64,23,0
2,note_on,64,0,120
2,note_on,52,33,0
2,note_on,52,0,120
2,note_on,54,27,0
2,note_on,54,0,120
2,note_on,61,34,0
2,note_on,61,0,120
2,note_on,64,44,0
2,note_on,64,0,120
2,note_on,52,53,0
2,note_on,52,0,120
2,note_on,54,31,0
2,note_on,54,0,120
2,note_on,61,39,0
2,note_on,61,0,120
2,note_on,64,23,0
2,note_on,64,0,120
2,note_on,52,35,0
2,note_on,52,0,120
2,note_on,56,26,0
2,note_on,56,0,120
2,note_on,59,26,0
2,note_on,59,0,120
2,note_on,64,25,0
2,note_on,64,0,120
2,note_on,52,32,0
2,note_on,52,0,120
2,note_on,56,25,0
2,note_on,56,0,120
2,note_on,59,25,0
2,note_on,59,0,120
2,note_on,64,23,0
2,note_on,64,0,120
2,note_on,52,33,0
2,note_on,52,0,120
2,note_on,54,28,0
2,note_on,54,0,120
2,note_on,58,34,0
2,note_on,58,0,120
2,note_on,64,42,0
2,note_on,64,0,120
2,note_on,54,55,0
2,note_on,54,0,120
2,note_on,58,32,0
2,note_on,58,0,120
2,note_on,64,41,0
2,note_on,64,0,120
2,note_on,66,24,0
2,note_on,66,0,120
2,note_on,56,37,0
2,note_on,56,0,120
2,note_on,59,27,0
2,note_on,59,0,120
2,note_on,64,28,0
2,note_on,64,0,120
2,note_on,68,27,0
2,note_on,68,0,120
2,note_on,56,34,0
2,note_on,56,0,120
2,note_on,59,27,0
2,note_on,59,0,120
2,note_on,64,27,0
2,note_on,64,0,120
2,note_on,68,25,0
2,note_on,68,0,120
2,note_on,57,36,0
2,note_on,57,0,120
2,note_on,59,29,0
2,note_on,59,0,120
2,note_on,64,36,0
2,note_on,64,0,120
2,note_on,66,44,0
2,note_on,66,0,120
2,note_on,57,36,0
2,note_on,57,0,120
2,note_on,59,37,0
2,note_on,59,0,120
2,note_on,63,42,0
2,note_on,63,0,120
2,note_on,66,37,0
2,note_on,66,0,120
2,note_on,54,49,0
2,note_on,54,0,120
2,note_on,57,37,0
2,note_on,57,0,120
2,note_on,59,43,0
2,note_on,59,0,120
2,note_on,63,36,0
2,note_on,63,0,120
2,note_on,54,35,0
2,note_on,54,0,120
2,note_on,57,44,0
2,note_on,57,0,120
2,note_on,59,44,0
2,note_on,59,0,120
2,note_on,63,39,0
2,note_on,63,0,120
2,note_on,56,46,120
2,note_on,56,0,120
2,note_on,59,40,0
2,note_on,59,0,120
2,note_on,64,34,0
2,note_on,64,0,120
2,note_on,52,36,0
2,note_on,52,0,120
2,note_on,56,31,0
2,note_on,56,0,120
2,note_on,59,38,0
2,note_on,59,0,120
2,note_on,64,41,0
2,note_on,64,0,120
2,note_on,52,48,0
2,note_on,52,0,120
2,note_on,56,31,0
2,note_on,56,0,120
2,note_on,59,31,0
2,note_on,59,0,120
2,note_on,64,30,0
2,note_on,64,0,120
2,note_on,52,39,0
2,note_on,52,0,120
2,note_on,56,31,0
2,note_on,56,0,120
2,note_on,59,31,0
2,note_on,59,0,120
2,note_on,64,28,0
2,note_on,64,0,120
2,note_on,52,41,0
2,note_on,52,0,120
2,note_on,54,34,0
2,note_on,54,0,120
2,note_on,61,42,0
2,note_on,61,0,120
2,note_on,64,55,0
2,note_on,64,0,120
2,note_on,51,67,0
2,note_on,51,0,120
2,note_on,54,39,0
2,note_on,54,0,120
2,note_on,63,49,0
2,note_on,63,0,120
2,note_on,66,29,0
2,note_on,66,0,120
2,note_on,52,45,0
2,note_on,52,0,120
2,note_on,56,33,0
2,note_on,56,0,120
2,note_on,59,33,0
2,note_on,59,0,120
2,note_on,64,32,0
2,note_on,64,0,120
2,note_on,52,41,0
2,note_on,52,0,120
2,note_on,56,32,0
2,note_on,56,0,120
2,note_on,59,32,0
2,note_on,59,0,120
2,note_on,64,30,0
2,note_on,64,0,120
2,note_on,52,43,0
2,note_on,52,0,120
2,note_on,54,35,0
2,note_on,54,0,120
2,note_on,61,43,0
2,note_on,61,0,120
2,note_on,64,53,0
2,note_on,64,0,120
2,note_on,54,71,0
2,note_on,54,0,120
2,note_on,58,41,0
2,note_on,58,0,120
2,note_on,64,52,0
2,note_on,64,0,120
2,note_on,66,31,0
2,note_on,66,0,120
2,note_on,54,47,0
2,note_on,54,0,120
2,note_on,59,35,0
2,note_on,59,0,120
2,note_on,63,35,0
2,note_on,63,0,120
2,note_on,66,34,0
2,note_on,66,0,120
2,note_on,58,44,0
2,note_on,58,0,120
2,note_on,61,34,0
2,note_on,61,0,120
2,note_on,64,34,0
2,note_on,64,0,120
2,note_on,67,31,0
2,note_on,67,0,120
2,note_on,59,46,0
2,note_on,59,0,120
2,note_on,63,37,0
2,note_on,63,0,120
2,note_on,66,46,0
2,note_on,66,0,120
2,note_on,69,56,0
2,note_on,69,0,120
2,note_on,63,46,0
2,note_on,63,0,120
2,note_on,66,46,0
2,note_on,66,0,120
2,note_on,69,53,0
2,note_on,69,0,120
2,note_on,71,46,0
2,note_on,71,0,120
2,note_on,59,60,0
2,note_on,59,0,120
2,note_on,64,46,0
2,note_on,64,0,120
2,note_on,68,53,0
2,note_on,68,0,120
2,note_on,71,44,0
2,note_on,71,0,120
2,note_on,60,43,0
2,note_on,60,0,120
2,note_on,64,46,0
2,note_on,64,0,120
2,note_on,68,53,0
2,note_on,68,0,120
2,note_on,72,47,0
2,note_on,72,0,120
2,note_on,61,54,120
2,note_on,61,0,120
2,note_on,64,47,0
2,note_on,64,0,120
2,note_on,66,40,0
2,note_on,66,0,120
2,note_on,52,43,0
2,note_on,52,0,120
2,note_on,54,53,0
2,note_on,54,0,120
2,note_on,57,53,0
2,note_on,57,0,120
2,note_on,60,47,0
2,note_on,60,0,120
2,note_on,52,43,120
2,note_on,52,0,120
2,note_on,56,40,0
2,note_on,56,0,120
2,note_on,59,34,0
2,note_on,59,0,120
2,note_on,47,42,0
2,note_on,47,0,120
2,note_on,52,34,0
2,note_on,52,0,120
2,note_on,56,40,0
2,note_on,56,0,120
2,note_on,59,36,0
2,note_on,59,0,120
2,note_on,47,29,0
2,note_on,47,0,120
2,note_on,54,31,0
2,note_on,54,0,120
2,note_on,57,38,0
2,note_on,57,0,120
2,note_on,59,44,0
2,note_on,59,0,120
2,note_on,47,49,0
2,note_on,47,0,120
2,note_on,54,33,0
2,note_on,54,0,120
2,note_on,57,41,0
2,note_on,57,0,120
2,note_on,59,31,0
2,note_on,59,0,120
2,note_on,47,32,0
2,note_on,47,0,120
2,note_on,53,26,0
2,note_on,53,0,120
2,note_on,56,30,0
2,note_on,56,0,120
2,note_on,59,38,0
2,note_on,59,0,120
2,note_on,47,41,0
2,note_on,47,0,120
2,note_on,53,25,0
2,note_on,53,0,120
2,note_on,56,25,0
2,note_on,56,0,120
2,note_on,59,23,0
2,note_on,59,0,120
2,note_on,45,29,0
2,note_on,45,0,120
2,note_on,49,25,0
2,note_on,49,0,120
2,note_on,54,25,0
2,note_on,54,0,120
2,note_on,57,24,0
2,note_on,57,0,110
2,note_on,45,31,10
2,note_on,45,0,120
2,note_on,49,30,0
2,note_on,49,0,120
2,note_on,54,33,0
2,note_on,54,0,120
2,note_on,57,38,0
2,note_on,57,0,120
2,note_on,45,45,0
2,note_on,45,0,120
2,note_on,51,30,0
2,note_on,51,0,120
2,note_on,57,32,0
2,note_on,57,0,120
2,note_on,59,37,0
2,note_on,59,0,120
2,note_on,45,41,0
2,note_on,45,0,120
2,note_on,52,33,0
2,note_on,52,0,120
2,note_on,57,37,0
2,note_on,57,0,120
2,note_on,59,41,0
2,note_on,59,0,120
2,note_on,47,45,0
2,note_on,47,0,120
2,note_on,54,35,0
2,note_on,54,0,120
2,note_on,57,46,0
2,note_on,57,0,120
2,note_on,59,38,0
2,note_on,59,0,120
2,note_on,47,40,0
2,note_on,47,0,120
2,note_on,51,32,0
2,note_on,51,0,120
2,note_on,57,31,0
2,note_on,57,0,120
2,note_on,59,28,0
2,note_on,59,0,120
2,note_on,47,36,0
2,note_on,47,0,120
2,note_on,52,32,0
2,note_on,52,0,120
2,note_on,56,32,0
2,note_on,56,0,120
2,note_on,59,31,0
2,note_on,59,0,120
2,note_on,47,40,0
2,note_on,47,0,120
2,note_on,52,31,0
2,note_on,52,0,120
2,note_on,56,31,0
2,note_on,56,0,120
2,note_on,59,28,0
2,note_on,59,0,120
2,note_on,47,36,0
2,note_on,47,0,120
2,note_on,52,31,0
2,note_on,52,0,120
2,note_on,56,31,0
2,note_on,56,0,120
2,note_on,59,30,0
2,note_on,59,0,120
2,note_on,47,34,0
2,note_on,47,0,120
2,note_on,52,30,0
2,note_on,52,0,120
2,note_on,56,31,0
2,note_on,56,0,120
2,note_on,59,33,0
2,note_on,59,0,120
2,note_on,45,33,0
2,note_on,45,0,120
2,note_on,49,24,0
2,note_on,49,0,120
2,note_on,52,24,0
2,note_on,52,0,120
2,note_on,57,23,0
2,note_on,57,0,120
2,note_on,45,30,0
2,note_on,45,0,120
2,note_on,49,23,0
2,note_on,49,0,120
2,note_on,52,23,0
2,note_on,52,0,120
2,note_on,57,20,0
2,note_on,57,0,120
2,note_on,45,29,0
2,note_on,45,0,120
2,note_on,49,24,0
2,note_on,49,0,120
2,note_on,52,29,0
2,note_on,52,0,120
2,note_on,57,35,0
2,note_on,57,0,120
2,note_on,45,29,0
2,note_on,45,0,120
2,note_on,48,25,0
2,note_on,48,0,120
2,note_on,52,27,0
2,note_on,52,0,120
2,note_on,57,28,0
2,note_on,57,0,120
2,note_on,42,29,0
2,note_on,42,0,120
2,note_on,47,21,0
2,note_on,47,0,120
2,note_on,51,21,0
2,note_on,51,0,120
2,note_on,57,20,0
2,note_on,57,0,120
2,note_on,42,25,0
2,note_on,42,0,120
2,note_on,47,20,0
2,note_on,47,0,120
2,note_on,51,19,0
2,note_on,51,0,120
2,note_on,57,17,0
2,note_on,57,0,120
2,note_on,42,25,0
2,note_on,42,0,120
2,note_on,47,20,0
2,note_on,47,0,120
2,note_on,51,24,0
2,note_on,51,0,120
2,note_on,57,30,0
2,note_on,57,0,120
2,note_on,47,25,0
2,note_on,47,0,120
2,note_on,51,21,0
2,note_on,51,0,120
2,note_on,57,23,0
2,note_on,57,0,120
2,note_on,59,24,0
2,note_on,59,0,120
2,note_on,47,24,0
2,note_on,47,0,120
2,note_on,52,18,0
2,note_on,52,0,120
2,note_on,56,18,0
2,note_on,56,0,120
2,note_on,59,17,0
2,note_on,59,0,120
2,note_on,47,22,0
2,note_on,47,0,120
2,note_on,52,17,0
2,note_on,52,0,120
2,note_on,56,17,0
2,note_on,56,0,120
2,note_on,59,16,0
2,note_on,59,0,120
2,note_on,47,23,0
2,note_on,47,0,120
2,note_on,52,15,0
2,note_on,52,0,120
2,note_on,56,19,0
2,note_on,56,0,120
2,note_on,59,22,0
2,note_on,59,0,120
2,note_on,47,24,0
2,note_on,47,0,120
2,note_on,52,18,0
2,note_on,52,0,120
2,note_on,56,20,0
2,note_on,56,0,120
2,note_on,59,20,0
2,note_on,59,0,120
2,note_on,47,24,0
2,note_on,47,0,120
2,note_on,52,17,0
2,note_on,52,0,120
2,note_on,56,17,0
2,note_on,56,0,120
2,note_on,59,17,0
2,note_on,59,0,120
2,note_on,47,21,0
2,note_on,47,0,120
2,note_on,52,17,0
2,note_on,52,0,120
2,note_on,56,16,0
2,note_on,56,0,120
2,note_on,59,14,0
2,note_on,59,0,120
2,note_on,47,24,0
2,note_on,47,0,120
2,note_on,52,17,0
2,note_on,52,0,120
2,note_on,56,17,0
2,note_on,56,0,120
2,note_on,59,17,0
2,note_on,59,0,120
2,note_on,47,21,0
2,note_on,47,0,120
2,note_on,52,17,0
2,note_on,52,0,120
2,note_on,56,16,0
2,note_on,56,0,120
2,note_on,59,14,0
2,note_on,59,0,120
3,note_on,40,40,0
3,note_on,40,0,960
3,note_on,44,42,0
3,note_on,44,0,960
3,note_on,42,45,0
3,note_on,42,0,960
3,note_on,35,41,0
3,note_on,35,0,480
3,note_on,40,46,480
3,note_on,40,0,480
3,note_on,42,42,0
3,note_on,42,0,480
3,note_on,44,42,0
3,note_on,44,0,480
3,note_on,46,42,0
3,note_on,46,0,480
3,note_on,47,46,0
3,note_on,47,0,480
3,note_on,49,42,0
3,note_on,49,0,480
3,note_on,51,37,0
3,note_on,51,0,480
3,note_on,53,42,0
3,note_on,53,0,480
3,note_on,54,46,0
3,note_on,54,0,480
3,note_on,47,42,0
3,note_on,47,0,480
3,note_on,52,42,0
3,note_on,52,0,480
3,note_on,45,42,0
3,note_on,45,0,480
3,note_on,47,46,0
3,note_on,47,0,960
3,note_on,47,38,0
3,note_on,47,0,240
3,note_on,39,42,240
3,note_on,39,0,480
3,note_on,40,46,0
3,note_on,40,0,480
3,note_on,42,42,0
3,note_on,42,0,480
3,note_on,44,42,0
3,note_on,44,0,480
3,note_on,46,42,0
3,note_on,46,0,480
3,note_on,47,46,0
3,note_on,47,0,480
3,note_on,49,42,0
3,note_on,49,0,480
3,note_on,51,37,0
3,note_on,51,0,480
3,note_on,52,42,0
3,note_on,52,0,480
3,note_on,49,48,0
3,note_on,49,0,480
3,note_on,56,54,0
3,note_on,56,0,480
3,note_on,52,49,0
3,note_on,52,0,1440
3,note_on,56,37,0
3,note_on,56,0,480
3,note_on,53,34,0
3,note_on,53,0,960
3,note_on,54,46,0
3,note_on,54,0,480
3,note_on,46,42,0
3,note_on,46,0,480
3,note_on,47,42,0
3,note_on,47,0,480
3,note_on,52,42,0
3,note_on,52,0,480
3,note_on,54,46,0
3,note_on,54,0,480
3,note_on,42,38,960
3,note_on,42,0,960
3,note_on,42,40,0
3,note_on,42,0,480
3,note_on,40,34,0
3,note_on,40,0,480
3,note_on,39,39,0
3,note_on,39,0,480
3,note_on,37,48,0
3,note_on,37,0,480
3,note_on,47,53,0
3,note_on,47,0,480
3,note_on,46,57,0
3,note_on,46,0,480
3,note_on,42,62,0
3,note_on,42,0,480
3,note_on,47,55,0
3,note_on,47,0,1440
3,note_on,40,46,480
3,note_on,40,0,480
3,note_on,42,42,0
3,note_on,42,0,480
3,note_on,44,42,0
3,note_on,44,0,480
3,note_on,46,42,0
3,note_on,46,0,480
3,note_on,47,46,0
3,note_on,47,0,480
3,note_on,49,42,0
3,note_on,49,0,480
3,note_on,51,37,0
3,note_on,51,0,480
3,note_on,53,42,0
3,note_on,53,0,480
3,note_on,54,46,0
3,note_on,54,0,480
3,note_on,47,42,0
3,note_on,47,0,480
3,note_on,52,42,0
3,note_on,52,0,480
3,note_on,45,42,0
3,note_on,45,0,480
3,note_on,47,46,0
3,note_on,47,0,960
3,note_on,47,38,0
3,note_on,47,0,240
3,note_on,39,42,240
3,note_on,39,0,480
3,note_on,40,46,0
3,note_on,40,0,480
3,note_on,42,42,0
3,note_on,42,0,480
3,note_on,44,42,0
3,note_on,44,0,480
3,note_on,46,42,0
3,note_on,46,0,480
3,note_on,47,46,0
3,note_on,47,0,480
3,note_on,49,42,0
3,note_on,49,0,480
3,note_on,51,37,0
3,note_on,51,0,480
3,note_on,52,42,0
3,note_on,52,0,480
3,note_on,49,48,0
3,note_on,49,0,480
3,note_on,56,54,0
3,note_on,56,0,480
3,note_on,52,49,0
3,note_on,52,0,1440
3,note_on,56,37,0
3,note_on,56,0,480
3,note_on,53,34,0
3,note_on,53,0,960
3,note_on,54,46,0
3,note_on,54,0,480
3,note_on,46,42,0
3,note_on,46,0,480
3,note_on,47,42,0
3,note_on,47,0,480
3,note_on,52,42,0
3,note_on,52,0,480
3,note_on,54,46,0
3,note_on,54,0,480
3,note_on,42,38,960
3,note_on,42,0,960
3,note_on,42,40,0
3,note_on,42,0,480
3,note_on,40,34,0
3,note_on,40,0,480
3,note_on,39,39,0
3,note_on,39,0,480
3,note_on,37,48,0
3,note_on,37,0,480
3,note_on,47,53,0
3,note_on,47,0,480
3,note_on,46,57,0
3,note_on,46,0,480
3,note_on,42,62,0
3,note_on,42,0,480
3,note_on,47,55,0
3,note_on,47,0,1440
3,note_on,40,46,480
3,note_on,40,0,960
3,note_on,42,46,0
3,note_on,42,0,480
3,note_on,50,49,0
3,note_on,50,0,480
3,note_on,43,56,0
3,note_on,43,0,960
3,note_on,45,56,0
3,note_on,45,0,960
3,note_on,47,67,0
3,note_on,47,0,960
3,note_on,48,66,0
3,note_on,48,0,960
3,note_on,50,66,0
3,note_on,50,0,480
3,note_on,52,62,0
3,note_on,52,0,480
3,note_on,47,42,3360
3,note_on,47,0,480
3,note_on,48,42,0
3,note_on,48,0,960
3,note_on,50,46,0
3,note_on,50,0,960
3,note_on,52,37,0
3,note_on,52,0,480
3,note_on,54,42,0
3,note_on,54,0,480
3,note_on,55,46,0
3,note_on,55,0,480
3,note_on,48,37,480
3,note_on,48,0,960
3,note_on,47,40,0
3,note_on,47,0,1920
3,note_on,43,34,0
3,note_on,43,0,960
3,note_on,48,27,0
3,note_on,48,0,960
3,note_on,47,30,0
3,note_on,47,0,1920
3,note_on,47,46,0
3,note_on,47,0,1920
3,note_on,47,46,0
3,note_on,47,0,1440
3,note_on,40,64,480
3,note_on,40,0,480
3,note_on,42,58,0
3,note_on,42,0,480
3,note_on,44,58,0
3,note_on,44,0,480
3,note_on,46,58,0
3,note_on,46,0,480
3,note_on,47,64,0
3,note_on,47,0,480
3,note_on,49,58,0
3,note_on,49,0,480
3,note_on,51,51,0
3,note_on,51,0,480
3,note_on,53,58,0
3,note_on,53,0,480
3,note_on,54,64,0
3,note_on,54,0,480
3,note_on,47,58,0
3,note_on,47,0,480
3,note_on,52,58,0
3,note_on,52,0,480
3,note_on,49,58,0
3,note_on,49,0,480
3,note_on,47,64,0
3,note_on,47,0,1440
3,note_on,45,37,0
3,note_on,45,0,480
3,note_on,44,46,0
3,note_on,44,0,960
3,note_on,45,42,0
3,note_on,45,0,960
3,note_on,47,46,0
3,note_on,47,0,960
3,note_on,49,38,0
3,note_on,49,0,960
3,note_on,47,49,0
3,note_on,47,0,960
3,note_on,47,40,0
3,note_on,47,0,960
3,note_on,52,55,0
3,note_on,52,0,480
3,note_on,47,46,0
3,note_on,47,0,480
3,note_on,52,53,0
3,note_on,52,0,480
3,note_on,47,47,960
3,note_on,47,0,480
3,note_on,46,52,0
3,note_on,46,0,480
3,note_on,45,47,0
3,note_on,45,0,480
3,note_on,44,59,0
3,note_on,44,0,480
3,note_on,47,53,0
3,note_on,47,0,480
3,note_on,46,60,0
3,note_on,46,0,480
3,note_on,49,61,0
3,note_on,49,0,480
3,note_on,47,62,0
3,note_on,47,0,480
3,note_on,52,58,0
3,note_on,52,0,480
3,note_on,51,64,0
3,note_on,51,0,480
3,note_on,59,61,0
3,note_on,59,0,480
3,note_on,52,68,0
3,note_on,52,0,480
3,note_on,56,58,0
3,note_on,56,0,480
3,note_on,57,63,0
3,note_on,57,0,480
3,note_on,45,57,0
3,note_on,45,0,480
3,note_on,47,63,0
3,note_on,47,0,480
3,note_on,35,38,960
3,note_on,35,0,960
3,note_on,35,40,0
3,note_on,35,0,480
3,note_on,33,34,0
3,note_on,33,0,480
3,note_on,32,39,0
3,note_on,32,0,480
3,note_on,30,48,0
3,note_on,30,0,480
3,note_on,40,53,0
3,note_on,40,0,480
3,note_on,39,57,0
3,note_on,39,0,480
3,note_on,35,49,0
3,note_on,35,0,480
3,note_on,40,55,0
3,note_on,40,0,950
3,note_on,40,47,10
3,note_on,40,0,1910
3,note_on,40,42,10
3,note_on,40,0,1910
3,note_on,40,36,10
3,note_on,40,0,1910
3,note_on,40,32,10
3,note_on,40,0,1430
3,note_on,40,24,10
3,note_on,40,0,470
3,note_on,40,24,10
3,note_on,40,0,470
3,note_on,40,23,10
3,note_on,40,0,470
3,note_on,40,15,10
3,note_on,47,15,0
3,note_on,47,0,1920
3,note_on,40,0,0
