Track,Message Type,Note,Velocity,Time
1,note_on,61,50,2400
1,note_on,57,40,240
1,note_on,61,0,216
1,note_on,57,0,24
1,note_on,61,56,0
1,note_on,56,37,240
1,note_on,56,0,240
1,note_on,57,42,0
1,note_on,57,0,240
1,note_on,54,34,0
1,note_on,54,0,240
1,note_on,61,0,0
1,note_on,66,54,0
1,note_on,61,39,240
1,note_on,66,0,216
1,note_on,61,0,24
1,note_on,66,55,0
1,note_on,60,45,240
1,note_on,60,0,240
1,note_on,61,55,0
1,note_on,61,0,240
1,note_on,57,46,0
1,note_on,57,0,240
1,note_on,66,0,0
1,note_on,69,66,0
1,note_on,66,55,240
1,note_on,66,0,240
1,note_on,69,0,0
1,note_on,74,73,0
1,note_on,68,56,240
1,note_on,68,0,240
1,note_on,69,61,0
1,note_on,69,0,240
1,note_on,66,56,0
1,note_on,66,0,240
1,note_on,74,0,0
1,note_on,73,68,0
1,note_on,69,49,240
1,note_on,69,0,240
1,note_on,73,0,0
1,note_on,72,68,0
1,note_on,68,50,240
1,note_on,68,0,240
1,note_on,69,55,0
1,note_on,69,0,240
1,note_on,66,45,0
1,note_on,72,0,230
1,note_on,66,0,10
1,note_on,72,51,0
1,note_on,69,33,240
1,note_on,69,0,240
1,note_on,72,0,0
1,note_on,73,56,0
1,note_on,68,43,240
1,note_on,68,0,240
1,note_on,61,46,0
1,note_on,61,0,240
1,note_on,63,42,0
1,note_on,63,0,240
1,note_on,73,0,0
1,note_on,65,40,0
1,note_on,71,50,0
1,note_on,65,0,240
1,note_on,61,38,0
1,note_on,71,0,170
1,note_on,71,43,10
1,note_on,71,0,60
1,note_on,61,0,0
1,note_on,66,44,0
1,note_on,69,55,0
1,note_on,69,0,240
1,note_on,66,0,0
1,note_on,61,46,0
1,note_on,61,0,240
1,note_on,65,50,0
1,note_on,68,63,0
1,note_on,68,0,240
1,note_on,65,0,0
1,note_on,61,54,0
1,note_on,61,0,240
1,note_on,66,55,0
1,note_on,69,69,0
1,note_on,69,0,240
1,note_on,66,0,0
1,note_on,61,57,0
1,note_on,61,0,240
1,note_on,66,55,0
1,note_on,69,69,0
1,note_on,73,76,0
1,note_on,66,0,240
1,note_on,62,54,0
1,note_on,62,0,240
1,note_on,73,0,0
1,note_on,69,0,0
1,note_on,68,48,0
1,note_on,71,61,0
1,note_on,68,0,240
1,note_on,62,49,0
1,note_on,62,0,240
1,note_on,71,0,0
1,note_on,66,40,0
1,note_on,69,50,0
1,note_on,69,0,240
1,note_on,66,0,0
1,note_on,62,41,0
1,note_on,62,0,240
1,note_on,66,44,0
1,note_on,69,56,0
1,note_on,66,0,240
1,note_on,61,45,0
1,note_on,61,0,240
1,note_on,69,0,0
1,note_on,65,40,0
1,note_on,68,50,0
1,note_on,65,0,240
1,note_on,59,43,0
1,note_on,59,0,240
1,note_on,68,0,0
1,note_on,61,50,0
1,note_on,57,40,240
1,note_on,61,0,216
1,note_on,57,0,24
1,note_on,61,56,0
1,note_on,56,37,240
1,note_on,56,0,240
1,note_on,57,42,0
1,note_on,57,0,240
1,note_on,54,34,0
1,note_on,54,0,240
1,note_on,61,0,0
1,note_on,66,54,0
1,note_on,61,39,240
1,note_on,66,0,216
1,note_on,61,0,24
1,note_on,66,55,0
1,note_on,60,45,240
1,note_on,60,0,240
1,note_on,61,55,0
1,note_on,61,0,240
1,note_on,57,46,0
1,note_on,57,0,240
1,note_on,66,0,0
1,note_on,69,66,0
1,note_on,66,55,240
1,note_on,66,0,240
1,note_on,69,0,0
1,note_on,74,73,0
1,note_on,68,56,240
1,note_on,68,0,240
1,note_on,69,61,0
1,note_on,69,0,240
1,note_on,66,56,0
1,note_on,66,0,240
1,note_on,74,0,0
1,note_on,73,68,0
1,note_on,69,49,240
1,note_on,69,0,240
1,note_on,73,0,0
1,note_on,72,68,0
1,note_on,68,50,240
1,note_on,68,0,240
1,note_on,69,55,0
1,note_on,69,0,240
1,note_on,66,45,0
1,note_on,72,0,230
1,note_on,66,0,10
1,note_on,72,51,0
1,note_on,69,33,240
1,note_on,69,0,240
1,note_on,72,0,0
1,note_on,73,56,0
1,note_on,68,43,240
1,note_on,68,0,240
1,note_on,61,46,0
1,note_on,61,0,240
1,note_on,62,42,0
1,note_on,62,0,240
1,note_on,73,0,0
1,note_on,64,40,0
1,note_on,70,50,0
1,note_on,70,0,240
1,note_on,64,0,0
1,note_on,61,38,0
1,note_on,61,0,240
1,note_on,62,46,0
1,note_on,71,56,0
1,note_on,62,0,240
1,note_on,66,43,0
1,note_on,66,0,240
1,note_on,71,0,0
1,note_on,64,46,0
1,note_on,64,0,240
1,note_on,62,42,0
1,note_on,62,0,240
1,note_on,61,40,0
1,note_on,70,50,0
1,note_on,61,0,240
1,note_on,64,38,0
1,note_on,64,0,240
1,note_on,70,0,0
1,note_on,62,46,0
1,note_on,71,56,0
1,note_on,62,0,240
1,note_on,66,43,0
1,note_on,66,0,240
1,note_on,71,0,0
1,note_on,69,50,0
1,note_on,61,46,0
1,note_on,61,0,240
1,note_on,69,0,0
1,note_on,64,42,0
1,note_on,64,0,240
1,note_on,59,40,0
1,note_on,68,50,0
1,note_on,68,0,240
1,note_on,59,0,0
1,note_on,62,38,0
1,note_on,62,0,240
1,note_on,57,46,0
1,note_on,66,56,0
1,note_on,57,0,240
1,note_on,61,43,0
1,note_on,61,0,240
1,note_on,66,0,0
1,note_on,65,56,0
1,note_on,56,46,0
1,note_on,56,0,240
1,note_on,59,42,0
1,note_on,59,0,240
1,note_on,65,0,0
1,note_on,61,40,0
1,note_on,70,50,0
1,note_on,61,0,240
1,note_on,64,38,0
1,note_on,64,0,240
1,note_on,70,0,0
1,note_on,62,43,0
1,note_on,71,56,0
1,note_on,62,0,240
1,note_on,66,43,0
1,note_on,66,0,240
1,note_on,71,0,0
1,note_on,64,46,0
1,note_on,64,0,240
1,note_on,62,42,0
1,note_on,62,0,240
1,note_on,61,40,0
1,note_on,70,50,0
1,note_on,61,0,240
1,note_on,64,38,0
1,note_on,64,0,240
1,note_on,70,0,0
1,note_on,62,46,0
1,note_on,71,56,0
1,note_on,62,0,240
1,note_on,66,43,0
1,note_on,66,0,240
1,note_on,71,0,0
1,note_on,64,46,0
1,note_on,64,0,240
1,note_on,62,42,0
1,note_on,62,0,240
1,note_on,61,40,0
1,note_on,70,50,0
1,note_on,61,0,240
1,note_on,64,38,0
1,note_on,64,0,240
1,note_on,70,0,0
1,note_on,62,46,0
1,note_on,71,56,0
1,note_on,62,0,240
1,note_on,66,43,0
1,note_on,66,0,240
1,note_on,71,0,0
1,note_on,69,50,0
1,note_on,61,46,0
1,note_on,61,0,240
1,note_on,69,0,0
1,note_on,64,42,0
1,note_on,64,0,240
1,note_on,59,40,0
1,note_on,68,50,0
1,note_on,68,0,240
1,note_on,59,0,0
1,note_on,62,38,0
1,note_on,62,0,240
1,note_on,57,46,0
1,note_on,66,56,0
1,note_on,57,0,240
1,note_on,61,43,0
1,note_on,61,0,240
1,note_on,66,0,0
1,note_on,65,56,0
1,note_on,56,46,0
1,note_on,56,0,240
1,note_on,59,42,0
1,note_on,59,0,240
1,note_on,65,0,0
1,note_on,61,40,0
1,note_on,70,50,0
1,note_on,61,0,240
1,note_on,64,38,0
1,note_on,64,0,240
1,note_on,70,0,0
1,note_on,62,43,0
1,note_on,71,56,0
1,note_on,62,0,240
1,note_on,66,43,0
1,note_on,66,0,240
1,note_on,71,0,0
1,note_on,64,46,0
1,note_on,64,0,240
1,note_on,62,42,0
1,note_on,62,0,240
1,note_on,70,40,0
1,note_on,73,50,0
1,note_on,70,0,240
1,note_on,66,38,0
1,note_on,66,0,240
1,note_on,73,0,0
1,note_on,71,45,0
1,note_on,74,56,0
1,note_on,71,0,240
1,note_on,66,43,0
1,note_on,66,0,240
1,note_on,74,0,0
1,note_on,72,48,0
1,note_on,75,61,0
1,note_on,72,0,240
1,note_on,66,48,0
1,note_on,66,0,240
1,note_on,75,0,0
1,note_on,71,53,0
1,note_on,76,66,0
1,note_on,71,0,240
1,note_on,68,52,0
1,note_on,68,0,240
1,note_on,76,0,0
1,note_on,75,58,0
1,note_on,78,72,0
1,note_on,75,0,240
1,note_on,69,57,0
1,note_on,69,0,240
1,note_on,78,0,0
1,note_on,76,62,0
1,note_on,79,78,0
1,note_on,76,0,240
1,note_on,71,62,0
1,note_on,71,0,240
1,note_on,79,0,0
1,note_on,76,67,0
1,note_on,80,84,0
1,note_on,76,0,240
1,note_on,71,66,0
1,note_on,71,0,240
1,note_on,80,0,0
1,note_on,76,73,0
1,note_on,81,91,0
1,note_on,76,0,240
1,note_on,73,70,0
1,note_on,73,0,240
1,note_on,81,0,0
1,note_on,76,75,0
1,note_on,85,93,0
1,note_on,76,0,240
1,note_on,73,71,0
1,note_on,73,0,240
1,note_on,85,0,0
1,note_on,76,75,0
1,note_on,83,93,0
1,note_on,76,0,240
1,note_on,73,71,0
1,note_on,83,0,210
1,note_on,73,0,30
1,note_on,76,75,0
1,note_on,83,93,0
1,note_on,76,0,240
1,note_on,73,71,0
1,note_on,73,0,240
1,note_on,83,0,0
1,note_on,76,75,0
1,note_on,82,93,0
1,note_on,76,0,240
1,note_on,73,71,0
1,note_on,73,0,240
1,note_on,82,0,0
1,note_on,74,75,0
1,note_on,79,93,0
1,note_on,74,0,240
1,note_on,71,63,0
1,note_on,79,0,210
1,note_on,71,0,30
1,note_on,73,75,0
1,note_on,79,93,0
1,note_on,73,0,240
1,note_on,70,68,0
1,note_on,70,0,240
1,note_on,79,0,0
1,note_on,73,71,0
1,note_on,78,90,0
1,note_on,73,0,240
1,note_on,70,65,0
1,note_on,70,0,240
1,note_on,78,0,0
1,note_on,73,66,0
1,note_on,76,83,0
1,note_on,73,0,240
1,note_on,67,60,0
1,note_on,76,0,210
1,note_on,67,0,30
1,note_on,73,61,0
1,note_on,76,77,0
1,note_on,73,0,240
1,note_on,66,56,0
1,note_on,66,0,240
1,note_on,76,0,0
1,note_on,72,57,0
1,note_on,75,71,0
1,note_on,72,0,240
1,note_on,70,51,0
1,note_on,70,0,240
1,note_on,75,0,0
1,note_on,71,52,0
1,note_on,74,66,0
1,note_on,71,0,240
1,note_on,65,47,0
1,note_on,74,0,210
1,note_on,65,0,30
1,note_on,71,48,0
1,note_on,74,60,0
1,note_on,71,0,240
1,note_on,64,44,0
1,note_on,64,0,240
1,note_on,74,0,0
1,note_on,69,44,0
1,note_on,73,55,0
1,note_on,69,0,240
1,note_on,68,39,0
1,note_on,68,0,240
1,note_on,73,0,0
1,note_on,69,40,0
1,note_on,72,50,0
1,note_on,69,0,240
1,note_on,65,38,0
1,note_on,65,0,240
1,note_on,72,0,0
1,note_on,68,40,0
1,note_on,71,50,0
1,note_on,68,0,240
1,note_on,64,38,0
1,note_on,64,0,240
1,note_on,71,0,0
1,note_on,74,74,0
1,note_on,71,62,0
1,note_on,71,0,240
1,note_on,64,56,0
1,note_on,64,0,240
1,note_on,74,0,0
1,note_on,72,62,0
1,note_on,69,62,0
1,note_on,69,0,240
1,note_on,64,38,0
1,note_on,64,0,240
1,note_on,72,0,0
1,note_on,68,40,0
1,note_on,71,50,0
1,note_on,68,0,240
1,note_on,64,38,0
1,note_on,64,0,240
1,note_on,71,0,0
1,note_on,76,74,0
1,note_on,71,62,0
1,note_on,71,0,240
1,note_on,64,56,0
1,note_on,64,0,240
1,note_on,76,0,0
1,note_on,72,62,0
1,note_on,69,62,0
1,note_on,69,0,240
1,note_on,64,38,0
1,note_on,64,0,240
1,note_on,72,0,0
1,note_on,68,40,0
1,note_on,71,50,0
1,note_on,68,0,240
1,note_on,64,38,0
1,note_on,64,0,240
1,note_on,71,0,0
1,note_on,74,74,0
1,note_on,71,62,0
1,note_on,71,0,240
1,note_on,64,56,0
1,note_on,64,0,240
1,note_on,74,0,0
1,note_on,72,62,0
1,note_on,69,62,0
1,note_on,69,0,240
1,note_on,64,38,0
1,note_on,64,0,240
1,note_on,72,0,0
1,note_on,68,40,0
1,note_on,71,50,0
1,note_on,68,0,240
1,note_on,64,38,0
1,note_on,64,0,240
1,note_on,71,0,0
1,note_on,76,74,0
1,note_on,71,62,0
1,note_on,71,0,240
1,note_on,64,56,0
1,note_on,64,0,240
1,note_on,76,0,0
1,note_on,72,62,0
1,note_on,69,62,0
1,note_on,69,0,240
1,note_on,64,38,0
1,note_on,64,0,240
1,note_on,72,0,0
1,note_on,68,40,0
1,note_on,71,50,0
1,note_on,71,0,240
1,note_on,68,0,0
1,note_on,64,38,0
1,note_on,64,0,240
1,note_on,63,42,0
1,note_on,63,0,240
1,note_on,64,38,0
1,note_on,64,0,240
1,note_on,68,42,0
1,note_on,68,0,240
1,note_on,64,38,0
1,note_on,64,0,240
1,note_on,71,45,0
1,note_on,71,0,240
1,note_on,68,45,0
1,note_on,68,0,240
1,note_on,67,46,0
1,note_on,67,0,240
1,note_on,68,49,0
1,note_on,68,0,240
1,note_on,71,50,0
1,note_on,71,0,240
1,note_on,68,52,0
1,note_on,68,0,240
1,note_on,74,54,0
1,note_on,74,0,240
1,note_on,71,54,0
1,note_on,71,0,240
1,note_on,77,55,0
1,note_on,77,0,240
1,note_on,74,56,0
1,note_on,74,0,240
1,note_on,80,59,0
1,note_on,80,0,240
1,note_on,77,63,0
1,note_on,77,0,240
1,note_on,83,70,0
1,note_on,83,0,240
1,note_on,80,62,0
1,note_on,80,0,240
1,note_on,86,70,0
1,note_on,86,0,240
1,note_on,83,59,0
1,note_on,83,0,240
1,note_on,81,65,0
1,note_on,81,0,240
1,note_on,80,61,0
1,note_on,80,0,240
1,note_on,88,69,0
1,note_on,88,0,240
1,note_on,86,63,0
1,note_on,86,0,240
1,note_on,85,59,0
1,note_on,85,0,240
1,note_on,83,58,0
1,note_on,83,0,240
1,note_on,81,56,0
1,note_on,81,0,240
1,note_on,80,49,0
1,note_on,80,0,240
1,note_on,81,55,0
1,note_on,81,0,240
1,note_on,78,53,0
1,note_on,78,0,240
1,note_on,75,51,0
1,note_on,75,0,240
1,note_on,71,51,0
1,note_on,71,0,240
1,note_on,69,48,0
1,note_on,69,0,240
1,note_on,66,46,0
1,note_on,66,0,240
1,note_on,74,61,0
1,note_on,68,61,0
1,note_on,68,0,240
1,note_on,74,0,0
1,note_on,71,51,0
1,note_on,71,0,240
1,note_on,68,48,0
1,note_on,68,0,240
1,note_on,64,47,0
1,note_on,64,0,240
1,note_on,62,46,0
1,note_on,62,0,240
1,note_on,59,43,0
1,note_on,59,0,240
1,note_on,67,49,0
1,note_on,67,0,240
1,note_on,64,42,0
1,note_on,64,0,240
1,note_on,61,45,0
1,note_on,61,0,240
1,note_on,57,46,0
1,note_on,57,0,240
1,note_on,56,48,0
1,note_on,56,0,240
1,note_on,55,52,0
1,note_on,55,0,240
1,note_on,54,54,0
1,note_on,54,0,240
1,note_on,58,38,0
1,note_on,58,0,240
1,note_on,59,45,0
1,note_on,59,0,240
1,note_on,54,38,0
1,note_on,54,0,240
1,note_on,61,43,0
1,note_on,61,0,240
1,note_on,54,38,0
1,note_on,54,0,240
1,note_on,62,50,0
1,note_on,62,0,240
1,note_on,56,38,0
1,note_on,56,0,240
1,note_on,52,43,0
1,note_on,52,0,240
1,note_on,56,38,0
1,note_on,56,0,240
1,note_on,50,45,0
1,note_on,50,0,240
1,note_on,56,37,0
1,note_on,56,0,240
1,note_on,49,45,0
1,note_on,49,0,240
1,note_on,52,33,0
1,note_on,52,0,240
1,note_on,57,33,0
1,note_on,57,0,240
1,note_on,59,33,0
1,note_on,59,0,240
1,note_on,61,33,0
1,note_on,61,0,240
1,note_on,64,33,0
1,note_on,64,0,240
1,note_on,61,36,0
1,note_on,61,0,240
1,note_on,59,31,0
1,note_on,59,0,240
1,note_on,57,33,0
1,note_on,57,0,240
1,note_on,52,33,0
1,note_on,64,50,240
1,note_on,64,0,480
1,note_on,52,0,0
1,note_on,69,65,0
1,note_on,57,55,0
1,note_on,57,0,1920
1,note_on,69,0,0
1,note_on,68,69,0
1,note_on,56,58,0
1,note_on,56,0,480
1,note_on,68,0,0
1,note_on,57,62,0
1,note_on,69,74,0
1,note_on,69,0,480
1,note_on,57,0,0
1,note_on,71,84,0
1,note_on,59,71,0
1,note_on,59,0,1440
1,note_on,71,0,0
1,note_on,73,77,0
1,note_on,61,65,0
1,note_on,61,0,1440
1,note_on,73,0,0
1,note_on,76,89,0
1,note_on,73,89,0
1,note_on,64,75,0
1,note_on,64,0,480
1,note_on,73,0,0
1,note_on,76,0,0
1,note_on,74,76,0
1,note_on,71,76,0
1,note_on,62,63,0
1,note_on,62,0,480
1,note_on,71,0,0
1,note_on,74,0,0
1,note_on,73,70,0
1,note_on,69,70,0
1,note_on,61,59,0
1,note_on,61,0,480
1,note_on,69,0,0
1,note_on,73,0,0
1,note_on,71,82,0
1,note_on,68,82,0
1,note_on,59,70,0
1,note_on,59,0,480
1,note_on,68,0,0
1,note_on,71,0,0
1,note_on,73,75,0
1,note_on,61,62,0
1,note_on,61,0,480
1,note_on,73,0,0
1,note_on,71,68,0
1,note_on,59,57,0
1,note_on,59,0,480
1,note_on,71,0,0
1,note_on,69,90,0
1,note_on,57,77,0
1,note_on,57,0,960
1,note_on,69,0,0
1,note_on,81,86,0
1,note_on,69,73,0
1,note_on,69,0,480
1,note_on,81,0,0
1,note_on,83,91,0
1,note_on,71,77,0
1,note_on,71,0,960
1,note_on,83,0,0
1,note_on,85,95,0
1,note_on,73,80,0
1,note_on,73,0,480
1,note_on,85,0,0
1,note_on,76,82,0
1,note_on,85,97,0
1,note_on,88,97,0
1,note_on,88,0,480
1,note_on,85,0,0
1,note_on,76,0,0
1,note_on,74,75,0
1,note_on,83,89,0
1,note_on,86,89,0
1,note_on,86,0,480
1,note_on,83,0,0
1,note_on,74,0,0
1,note_on,73,69,0
1,note_on,81,82,0
1,note_on,85,82,0
1,note_on,85,0,480
1,note_on,81,0,0
1,note_on,73,0,0
1,note_on,71,80,0
1,note_on,80,95,0
1,note_on,83,95,0
1,note_on,83,0,480
1,note_on,80,0,0
1,note_on,71,0,0
1,note_on,73,75,0
1,note_on,85,89,0
1,note_on,85,0,480
1,note_on,73,0,0
1,note_on,71,68,0
1,note_on,83,80,0
1,note_on,83,0,480
1,note_on,71,0,0
1,note_on,69,79,0
1,note_on,81,93,0
1,note_on,81,0,480
1,note_on,69,0,0
1,note_on,76,80,0
1,note_on,80,80,0
1,note_on,80,0,480
1,note_on,76,0,0
1,note_on,74,77,0
1,note_on,78,77,0
1,note_on,78,0,480
1,note_on,74,0,0
1,note_on,73,72,0
1,note_on,76,72,0
1,note_on,76,0,480
1,note_on,73,0,0
1,note_on,72,70,0
1,note_on,75,70,0
1,note_on,75,0,480
1,note_on,72,0,0
1,note_on,71,70,0
1,note_on,74,70,0
1,note_on,74,0,480
1,note_on,71,0,0
1,note_on,73,74,0
1,note_on,69,65,0
1,note_on,69,0,240
1,note_on,73,0,0
1,note_on,74,57,240
1,note_on,69,50,0
1,note_on,69,0,180
1,note_on,74,0,0
1,note_on,73,51,300
1,note_on,69,45,0
1,note_on,69,0,180
1,note_on,73,0,0
1,note_on,69,50,300
1,note_on,66,50,0
1,note_on,71,57,0
1,note_on,71,0,180
1,note_on,66,0,0
1,note_on,69,0,0
1,note_on,68,65,780
1,note_on,76,74,0
1,note_on,76,0,240
1,note_on,68,0,0
1,note_on,69,67,240
1,note_on,81,79,0
1,note_on,81,0,480
1,note_on,69,0,0
1,note_on,76,57,0
1,note_on,80,68,0
1,note_on,80,0,480
1,note_on,76,0,0
1,note_on,74,55,0
1,note_on,78,65,0
1,note_on,78,0,480
1,note_on,74,0,0
1,note_on,73,51,0
1,note_on,76,61,0
1,note_on,76,0,480
1,note_on,73,0,0
1,note_on,72,50,0
1,note_on,75,59,0
1,note_on,75,0,480
1,note_on,72,0,0
1,note_on,71,50,0
1,note_on,74,59,0
1,note_on,74,0,480
1,note_on,71,0,0
1,note_on,73,47,240
1,note_on,73,0,240
1,note_on,74,47,0
1,note_on,74,0,240
1,note_on,76,47,0
1,note_on,76,0,240
1,note_on,78,51,0
1,note_on,78,0,240
1,note_on,74,47,0
1,note_on,74,0,240
1,note_on,76,50,0
1,note_on,76,0,240
1,note_on,78,47,0
1,note_on,78,0,240
1,note_on,80,49,0
1,note_on,80,0,240
1,note_on,76,47,0
1,note_on,76,0,240
1,note_on,78,50,0
1,note_on,78,0,240
1,note_on,80,47,0
1,note_on,80,0,240
1,note_on,81,50,0
1,note_on,81,0,240
1,note_on,85,51,0
1,note_on,85,0,240
1,note_on,86,51,0
1,note_on,86,0,240
1,note_on,88,50,0
1,note_on,88,0,240
1,note_on,90,54,0
1,note_on,90,0,240
1,note_on,86,48,0
1,note_on,86,0,240
1,note_on,88,50,0
1,note_on,88,0,240
1,note_on,90,47,0
1,note_on,90,0,240
1,note_on,92,47,0
1,note_on,92,0,240
1,note_on,88,45,0
1,note_on,88,0,240
1,note_on,90,47,0
1,note_on,90,0,240
1,note_on,92,44,0
1,note_on,92,0,240
1,note_on,93,52,0
1,note_on,93,0,240
1,note_on,88,52,0
1,note_on,88,0,240
1,note_on,85,48,0
1,note_on,85,0,240
1,note_on,81,48,0
1,note_on,81,0,240
1,note_on,76,48,0
1,note_on,76,0,240
1,note_on,73,48,0
1,note_on,73,0,240
1,note_on,69,46,0
1,note_on,69,0,240
1,note_on,64,45,0
1,note_on,64,0,240
1,note_on,61,43,0
1,note_on,61,0,240
1,note_on,57,42,0
1,note_on,57,0,240
1,note_on,61,50,0
1,note_on,57,40,240
1,note_on,61,0,216
1,note_on,57,0,24
1,note_on,61,50,0
1,note_on,56,37,240
1,note_on,56,0,240
1,note_on,57,42,0
1,note_on,57,0,240
1,note_on,54,34,0
1,note_on,54,0,240
1,note_on,61,0,0
1,note_on,66,54,0
1,note_on,61,39,240
1,note_on,66,0,216
1,note_on,61,0,24
1,note_on,66,55,0
1,note_on,60,45,240
1,note_on,60,0,240
1,note_on,61,55,0
1,note_on,61,0,240
1,note_on,57,46,0
1,note_on,57,0,240
1,note_on,66,0,0
1,note_on,69,66,0
1,note_on,66,55,240
1,note_on,66,0,240
1,note_on,69,0,0
1,note_on,74,73,0
1,note_on,68,56,240
1,note_on,68,0,240
1,note_on,69,61,0
1,note_on,69,0,240
1,note_on,66,56,0
1,note_on,66,0,240
1,note_on,74,0,0
1,note_on,73,68,0
1,note_on,69,49,240
1,note_on,69,0,240
1,note_on,73,0,0
1,note_on,72,68,0
1,note_on,68,50,240
1,note_on,68,0,240
1,note_on,69,55,0
1,note_on,69,0,240
1,note_on,66,45,0
1,note_on,72,0,230
1,note_on,66,0,10
1,note_on,72,51,0
1,note_on,69,33,240
1,note_on,69,0,240
1,note_on,72,0,0
1,note_on,73,56,0
1,note_on,68,43,240
1,note_on,68,0,240
1,note_on,61,46,0
1,note_on,61,0,240
1,note_on,63,42,0
1,note_on,63,0,240
1,note_on,73,0,0
1,note_on,65,40,0
1,note_on,71,50,0
1,note_on,65,0,240
1,note_on,61,38,0
1,note_on,71,0,170
1,note_on,71,43,10
1,note_on,71,0,60
1,note_on,61,0,0
1,note_on,66,44,0
1,note_on,69,55,0
1,note_on,69,0,240
1,note_on,66,0,0
1,note_on,61,46,0
1,note_on,61,0,240
1,note_on,65,50,0
1,note_on,68,63,0
1,note_on,68,0,240
1,note_on,65,0,0
1,note_on,61,54,0
1,note_on,61,0,240
1,note_on,66,55,0
1,note_on,69,69,0
1,note_on,69,0,240
1,note_on,66,0,0
1,note_on,61,57,0
1,note_on,61,0,240
1,note_on,66,55,0
1,note_on,69,69,0
1,note_on,73,76,0
1,note_on,66,0,240
1,note_on,62,54,0
1,note_on,62,0,240
1,note_on,73,0,0
1,note_on,69,0,0
1,note_on,68,48,0
1,note_on,71,61,0
1,note_on,68,0,240
1,note_on,62,49,0
1,note_on,62,0,240
1,note_on,71,0,0
1,note_on,66,40,0
1,note_on,69,50,0
1,note_on,69,0,240
1,note_on,66,0,0
1,note_on,62,41,0
1,note_on,62,0,240
1,note_on,66,44,0
1,note_on,69,56,0
1,note_on,66,0,240
1,note_on,61,45,0
1,note_on,61,0,240
1,note_on,69,0,0
1,note_on,65,40,0
1,note_on,68,50,0
1,note_on,65,0,240
1,note_on,59,43,0
1,note_on,59,0,240
1,note_on,68,0,0
1,note_on,61,50,0
1,note_on,57,40,240
1,note_on,61,0,216
1,note_on,57,0,24
1,note_on,61,56,0
1,note_on,56,37,240
1,note_on,56,0,240
1,note_on,57,42,0
1,note_on,57,0,240
1,note_on,54,34,0
1,note_on,54,0,240
1,note_on,61,0,0
1,note_on,66,54,0
1,note_on,61,39,240
1,note_on,66,0,216
1,note_on,61,0,24
1,note_on,66,55,0
1,note_on,60,45,240
1,note_on,60,0,240
1,note_on,61,55,0
1,note_on,61,0,240
1,note_on,57,46,0
1,note_on,57,0,240
1,note_on,66,0,0
1,note_on,69,66,0
1,note_on,66,55,240
1,note_on,66,0,240
1,note_on,69,0,0
1,note_on,74,73,0
1,note_on,68,56,240
1,note_on,68,0,240
1,note_on,69,61,0
1,note_on,69,0,240
1,note_on,66,56,0
1,note_on,66,0,240
1,note_on,74,0,0
1,note_on,73,68,0
1,note_on,69,49,240
1,note_on,69,0,240
1,note_on,73,0,0
1,note_on,72,68,0
1,note_on,68,50,240
1,note_on,68,0,240
1,note_on,69,55,0
1,note_on,69,0,240
1,note_on,66,45,0
1,note_on,72,0,230
1,note_on,66,0,10
1,note_on,72,51,0
1,note_on,69,33,240
1,note_on,69,0,240
1,note_on,72,0,0
1,note_on,73,56,0
1,note_on,68,43,240
1,note_on,68,0,240
1,note_on,61,46,0
1,note_on,61,0,240
1,note_on,62,42,0
1,note_on,62,0,240
1,note_on,73,0,0
1,note_on,64,40,0
1,note_on,70,50,0
1,note_on,70,0,240
1,note_on,64,0,0
1,note_on,61,38,0
1,note_on,61,0,240
1,note_on,62,46,0
1,note_on,71,56,0
1,note_on,62,0,240
1,note_on,66,43,0
1,note_on,66,0,240
1,note_on,71,0,0
1,note_on,64,46,0
1,note_on,64,0,240
1,note_on,62,42,0
1,note_on,62,0,240
1,note_on,61,40,0
1,note_on,70,50,0
1,note_on,61,0,240
1,note_on,64,38,0
1,note_on,64,0,240
1,note_on,70,0,0
1,note_on,62,46,0
1,note_on,71,56,0
1,note_on,62,0,240
1,note_on,66,43,0
1,note_on,66,0,240
1,note_on,71,0,0
1,note_on,69,50,0
1,note_on,61,46,0
1,note_on,61,0,240
1,note_on,69,0,0
1,note_on,64,42,0
1,note_on,64,0,240
1,note_on,59,40,0
1,note_on,68,50,0
1,note_on,68,0,240
1,note_on,59,0,0
1,note_on,62,38,0
1,note_on,62,0,240
1,note_on,57,46,0
1,note_on,66,56,0
1,note_on,57,0,240
1,note_on,61,43,0
1,note_on,61,0,240
1,note_on,66,0,0
1,note_on,65,56,0
1,note_on,56,46,0
1,note_on,56,0,240
1,note_on,59,42,0
1,note_on,59,0,240
1,note_on,65,0,0
1,note_on,61,40,0
1,note_on,70,50,0
1,note_on,61,0,240
1,note_on,64,38,0
1,note_on,64,0,240
1,note_on,70,0,0
1,note_on,62,43,0
1,note_on,71,56,0
1,note_on,62,0,240
1,note_on,66,43,0
1,note_on,66,0,240
1,note_on,71,0,0
1,note_on,64,46,0
1,note_on,64,0,240
1,note_on,62,42,0
1,note_on,62,0,240
1,note_on,61,40,0
1,note_on,70,50,0
1,note_on,61,0,240
1,note_on,64,38,0
1,note_on,64,0,240
1,note_on,70,0,0
1,note_on,62,46,0
1,note_on,71,56,0
1,note_on,62,0,240
1,note_on,66,43,0
1,note_on,66,0,240
1,note_on,71,0,0
1,note_on,64,46,0
1,note_on,64,0,240
1,note_on,62,42,0
1,note_on,62,0,240
1,note_on,61,40,0
1,note_on,70,50,0
1,note_on,61,0,240
1,note_on,64,38,0
1,note_on,64,0,240
1,note_on,70,0,0
1,note_on,62,46,0
1,note_on,71,56,0
1,note_on,62,0,240
1,note_on,66,43,0
1,note_on,66,0,240
1,note_on,71,0,0
1,note_on,69,50,0
1,note_on,61,46,0
1,note_on,61,0,240
1,note_on,69,0,0
1,note_on,64,42,0
1,note_on,64,0,240
1,note_on,59,40,0
1,note_on,68,50,0
1,note_on,68,0,240
1,note_on,59,0,0
1,note_on,62,38,0
1,note_on,62,0,240
1,note_on,57,46,0
1,note_on,66,56,0
1,note_on,57,0,240
1,note_on,61,43,0
1,note_on,61,0,240
1,note_on,66,0,0
1,note_on,65,56,0
1,note_on,56,46,0
1,note_on,56,0,240
1,note_on,59,42,0
1,note_on,59,0,240
1,note_on,65,0,0
1,note_on,61,40,0
1,note_on,70,50,0
1,note_on,61,0,240
1,note_on,64,38,0
1,note_on,64,0,240
1,note_on,70,0,0
1,note_on,62,43,0
1,note_on,71,56,0
1,note_on,62,0,240
1,note_on,66,43,0
1,note_on,66,0,240
1,note_on,71,0,0
1,note_on,64,46,0
1,note_on,64,0,240
1,note_on,62,42,0
1,note_on,62,0,240
1,note_on,70,40,0
1,note_on,73,50,0
1,note_on,70,0,240
1,note_on,66,38,0
1,note_on,66,0,240
1,note_on,73,0,0
1,note_on,71,45,0
1,note_on,74,56,0
1,note_on,71,0,240
1,note_on,66,43,0
1,note_on,66,0,240
1,note_on,74,0,0
1,note_on,72,48,0
1,note_on,75,61,0
1,note_on,72,0,240
1,note_on,66,48,0
1,note_on,66,0,240
1,note_on,75,0,0
1,note_on,71,53,0
1,note_on,76,66,0
1,note_on,71,0,240
1,note_on,68,52,0
1,note_on,68,0,240
1,note_on,76,0,0
1,note_on,75,58,0
1,note_on,78,72,0
1,note_on,75,0,240
1,note_on,69,57,0
1,note_on,69,0,240
1,note_on,78,0,0
1,note_on,76,62,0
1,note_on,79,78,0
1,note_on,76,0,240
1,note_on,71,62,0
1,note_on,71,0,240
1,note_on,79,0,0
1,note_on,76,67,0
1,note_on,80,84,0
1,note_on,76,0,240
1,note_on,71,66,0
1,note_on,71,0,240
1,note_on,80,0,0
1,note_on,76,73,0
1,note_on,81,91,0
1,note_on,76,0,240
1,note_on,73,70,0
1,note_on,73,0,240
1,note_on,81,0,0
1,note_on,76,75,0
1,note_on,85,93,0
1,note_on,76,0,240
1,note_on,73,71,0
1,note_on,73,0,240
1,note_on,85,0,0
1,note_on,76,75,0
1,note_on,83,93,0
1,note_on,76,0,240
1,note_on,73,71,0
1,note_on,83,0,210
1,note_on,73,0,30
1,note_on,76,75,0
1,note_on,83,93,0
1,note_on,76,0,240
1,note_on,73,71,0
1,note_on,73,0,240
1,note_on,83,0,0
1,note_on,76,75,0
1,note_on,82,93,0
1,note_on,76,0,240
1,note_on,73,71,0
1,note_on,73,0,240
1,note_on,82,0,0
1,note_on,74,75,0
1,note_on,79,93,0
1,note_on,74,0,240
1,note_on,71,63,0
1,note_on,79,0,210
1,note_on,71,0,30
1,note_on,73,75,0
1,note_on,79,93,0
1,note_on,73,0,240
1,note_on,70,68,0
1,note_on,70,0,240
1,note_on,79,0,0
1,note_on,73,71,0
1,note_on,78,90,0
1,note_on,73,0,240
1,note_on,70,65,0
1,note_on,70,0,240
1,note_on,78,0,0
1,note_on,73,66,0
1,note_on,76,83,0
1,note_on,73,0,240
1,note_on,67,60,0
1,note_on,76,0,210
1,note_on,67,0,30
1,note_on,73,61,0
1,note_on,76,77,0
1,note_on,73,0,240
1,note_on,66,56,0
1,note_on,66,0,240
1,note_on,76,0,0
1,note_on,72,57,0
1,note_on,75,71,0
1,note_on,72,0,240
1,note_on,70,51,0
1,note_on,70,0,240
1,note_on,75,0,0
1,note_on,71,52,0
1,note_on,74,66,0
1,note_on,71,0,240
1,note_on,65,47,0
1,note_on,74,0,210
1,note_on,65,0,30
1,note_on,71,48,0
1,note_on,74,60,0
1,note_on,71,0,240
1,note_on,64,44,0
1,note_on,64,0,240
1,note_on,74,0,0
1,note_on,69,44,0
1,note_on,73,55,0
1,note_on,69,0,240
1,note_on,68,39,0
1,note_on,68,0,240
1,note_on,73,0,0
1,note_on,69,40,0
1,note_on,72,50,0
1,note_on,69,0,240
1,note_on,65,38,0
1,note_on,65,0,240
1,note_on,72,0,0
1,note_on,68,40,0
1,note_on,71,50,0
1,note_on,68,0,240
1,note_on,64,38,0
1,note_on,64,0,240
1,note_on,71,0,0
1,note_on,74,74,0
1,note_on,71,62,0
1,note_on,71,0,240
1,note_on,64,56,0
1,note_on,64,0,240
1,note_on,74,0,0
1,note_on,72,62,0
1,note_on,69,62,0
1,note_on,69,0,240
1,note_on,64,38,0
1,note_on,64,0,240
1,note_on,72,0,0
1,note_on,68,40,0
1,note_on,71,50,0
1,note_on,68,0,240
1,note_on,64,38,0
1,note_on,64,0,240
1,note_on,71,0,0
1,note_on,76,74,0
1,note_on,71,62,0
1,note_on,71,0,240
1,note_on,64,56,0
1,note_on,64,0,240
1,note_on,76,0,0
1,note_on,72,62,0
1,note_on,69,62,0
1,note_on,69,0,240
1,note_on,64,38,0
1,note_on,64,0,240
1,note_on,72,0,0
1,note_on,68,40,0
1,note_on,71,50,0
1,note_on,68,0,240
1,note_on,64,38,0
1,note_on,64,0,240
1,note_on,71,0,0
1,note_on,74,74,0
1,note_on,71,62,0
1,note_on,71,0,240
1,note_on,64,56,0
1,note_on,64,0,240
1,note_on,74,0,0
1,note_on,72,62,0
1,note_on,69,62,0
1,note_on,69,0,240
1,note_on,64,38,0
1,note_on,64,0,240
1,note_on,72,0,0
1,note_on,68,40,0
1,note_on,71,50,0
1,note_on,68,0,240
1,note_on,64,38,0
1,note_on,64,0,240
1,note_on,71,0,0
1,note_on,76,74,0
1,note_on,71,62,0
1,note_on,71,0,240
1,note_on,64,56,0
1,note_on,64,0,240
1,note_on,76,0,0
1,note_on,72,62,0
1,note_on,69,62,0
1,note_on,69,0,240
1,note_on,64,38,0
1,note_on,64,0,240
1,note_on,72,0,0
1,note_on,68,40,0
1,note_on,71,50,0
1,note_on,71,0,240
1,note_on,68,0,0
1,note_on,64,38,0
1,note_on,64,0,240
1,note_on,63,42,0
1,note_on,63,0,240
1,note_on,64,38,0
1,note_on,64,0,240
1,note_on,68,42,0
1,note_on,68,0,240
1,note_on,64,38,0
1,note_on,64,0,240
1,note_on,71,45,0
1,note_on,71,0,240
1,note_on,68,45,0
1,note_on,68,0,240
1,note_on,67,46,0
1,note_on,67,0,240
1,note_on,68,49,0
1,note_on,68,0,240
1,note_on,71,50,0
1,note_on,71,0,240
1,note_on,68,52,0
1,note_on,68,0,240
1,note_on,74,54,0
1,note_on,74,0,240
1,note_on,71,54,0
1,note_on,71,0,240
1,note_on,77,55,0
1,note_on,77,0,240
1,note_on,74,56,0
1,note_on,74,0,240
1,note_on,80,59,0
1,note_on,80,0,240
1,note_on,77,63,0
1,note_on,77,0,240
1,note_on,83,70,0
1,note_on,83,0,240
1,note_on,80,62,0
1,note_on,80,0,240
1,note_on,86,70,0
1,note_on,86,0,240
1,note_on,83,59,0
1,note_on,83,0,240
1,note_on,81,65,0
1,note_on,81,0,240
1,note_on,80,61,0
1,note_on,80,0,240
1,note_on,88,69,0
1,note_on,88,0,240
1,note_on,86,63,0
1,note_on,86,0,240
1,note_on,85,59,0
1,note_on,85,0,240
1,note_on,83,58,0
1,note_on,83,0,240
1,note_on,81,56,0
1,note_on,81,0,240
1,note_on,80,49,0
1,note_on,80,0,240
1,note_on,81,55,0
1,note_on,81,0,240
1,note_on,78,53,0
1,note_on,78,0,240
1,note_on,75,51,0
1,note_on,75,0,240
1,note_on,71,51,0
1,note_on,71,0,240
1,note_on,69,48,0
1,note_on,69,0,240
1,note_on,66,46,0
1,note_on,66,0,240
1,note_on,74,61,0
1,note_on,68,61,0
1,note_on,68,0,240
1,note_on,74,0,0
1,note_on,71,51,0
1,note_on,71,0,240
1,note_on,68,48,0
1,note_on,68,0,240
1,note_on,64,47,0
1,note_on,64,0,240
1,note_on,62,46,0
1,note_on,62,0,240
1,note_on,59,43,0
1,note_on,59,0,240
1,note_on,67,49,0
1,note_on,67,0,240
1,note_on,64,42,0
1,note_on,64,0,240
1,note_on,61,45,0
1,note_on,61,0,240
1,note_on,57,46,0
1,note_on,57,0,240
1,note_on,56,48,0
1,note_on,56,0,240
1,note_on,55,52,0
1,note_on,55,0,240
1,note_on,54,54,0
1,note_on,54,0,240
1,note_on,58,38,0
1,note_on,58,0,240
1,note_on,59,45,0
1,note_on,59,0,240
1,note_on,54,38,0
1,note_on,54,0,240
1,note_on,61,43,0
1,note_on,61,0,240
1,note_on,54,38,0
1,note_on,54,0,240
1,note_on,62,50,0
1,note_on,62,0,240
1,note_on,56,38,0
1,note_on,56,0,240
1,note_on,52,43,0
1,note_on,52,0,240
1,note_on,56,38,0
1,note_on,56,0,240
1,note_on,50,45,0
1,note_on,50,0,240
1,note_on,56,37,0
1,note_on,56,0,240
1,note_on,49,45,0
1,note_on,49,0,240
1,note_on,52,33,0
1,note_on,52,0,240
1,note_on,57,33,0
1,note_on,57,0,240
1,note_on,59,33,0
1,note_on,59,0,240
1,note_on,61,33,0
1,note_on,61,0,240
1,note_on,64,33,0
1,note_on,64,0,240
1,note_on,61,36,0
1,note_on,61,0,240
1,note_on,59,31,0
1,note_on,59,0,240
1,note_on,57,33,0
1,note_on,57,0,240
1,note_on,52,33,0
1,note_on,64,50,240
1,note_on,64,0,480
1,note_on,52,0,0
1,note_on,69,65,0
1,note_on,57,55,0
1,note_on,57,0,1920
1,note_on,69,0,0
1,note_on,68,69,0
1,note_on,56,58,0
1,note_on,56,0,480
1,note_on,68,0,0
1,note_on,57,62,0
1,note_on,69,74,0
1,note_on,69,0,480
1,note_on,57,0,0
1,note_on,71,84,0
1,note_on,59,71,0
1,note_on,59,0,1440
1,note_on,71,0,0
1,note_on,73,77,0
1,note_on,61,65,0
1,note_on,61,0,1440
1,note_on,73,0,0
1,note_on,76,89,0
1,note_on,73,89,0
1,note_on,64,75,0
1,note_on,64,0,480
1,note_on,73,0,0
1,note_on,76,0,0
1,note_on,74,76,0
1,note_on,71,76,0
1,note_on,62,63,0
1,note_on,62,0,480
1,note_on,71,0,0
1,note_on,74,0,0
1,note_on,73,70,0
1,note_on,69,70,0
1,note_on,61,59,0
1,note_on,61,0,480
1,note_on,69,0,0
1,note_on,73,0,0
1,note_on,71,82,0
1,note_on,68,82,0
1,note_on,59,70,0
1,note_on,59,0,480
1,note_on,68,0,0
1,note_on,71,0,0
1,note_on,73,75,0
1,note_on,61,62,0
1,note_on,61,0,480
1,note_on,73,0,0
1,note_on,71,68,0
1,note_on,59,57,0
1,note_on,59,0,480
1,note_on,71,0,0
1,note_on,69,90,0
1,note_on,57,77,0
1,note_on,57,0,960
1,note_on,69,0,0
1,note_on,81,86,0
1,note_on,69,73,0
1,note_on,69,0,480
1,note_on,81,0,0
1,note_on,83,91,0
1,note_on,71,77,0
1,note_on,71,0,960
1,note_on,83,0,0
1,note_on,85,95,0
1,note_on,73,80,0
1,note_on,73,0,480
1,note_on,85,0,0
1,note_on,76,82,0
1,note_on,85,97,0
1,note_on,88,97,0
1,note_on,88,0,480
1,note_on,85,0,0
1,note_on,76,0,0
1,note_on,74,75,0
1,note_on,83,89,0
1,note_on,86,89,0
1,note_on,86,0,480
1,note_on,83,0,0
1,note_on,74,0,0
1,note_on,73,69,0
1,note_on,81,82,0
1,note_on,85,82,0
1,note_on,85,0,480
1,note_on,81,0,0
1,note_on,73,0,0
1,note_on,71,80,0
1,note_on,80,95,0
1,note_on,83,95,0
1,note_on,83,0,480
1,note_on,80,0,0
1,note_on,71,0,0
1,note_on,73,75,0
1,note_on,85,89,0
1,note_on,85,0,480
1,note_on,73,0,0
1,note_on,71,68,0
1,note_on,83,80,0
1,note_on,83,0,480
1,note_on,71,0,0
1,note_on,69,79,0
1,note_on,81,93,0
1,note_on,81,0,480
1,note_on,69,0,0
1,note_on,76,80,0
1,note_on,80,80,0
1,note_on,80,0,480
1,note_on,76,0,0
1,note_on,74,77,0
1,note_on,78,77,0
1,note_on,78,0,480
1,note_on,74,0,0
1,note_on,73,72,0
1,note_on,76,72,0
1,note_on,76,0,480
1,note_on,73,0,0
1,note_on,72,70,0
1,note_on,75,70,0
1,note_on,75,0,480
1,note_on,72,0,0
1,note_on,71,70,0
1,note_on,74,70,0
1,note_on,74,0,480
1,note_on,71,0,0
1,note_on,73,74,0
1,note_on,69,65,0
1,note_on,69,0,240
1,note_on,73,0,0
1,note_on,74,57,240
1,note_on,69,50,0
1,note_on,69,0,180
1,note_on,74,0,0
1,note_on,73,51,300
1,note_on,69,45,0
1,note_on,69,0,180
1,note_on,73,0,0
1,note_on,69,50,300
1,note_on,66,50,0
1,note_on,71,57,0
1,note_on,71,0,180
1,note_on,66,0,0
1,note_on,69,0,0
1,note_on,68,65,780
1,note_on,76,74,0
1,note_on,76,0,240
1,note_on,68,0,0
1,note_on,69,67,240
1,note_on,81,79,0
1,note_on,81,0,480
1,note_on,69,0,0
1,note_on,76,57,0
1,note_on,80,68,0
1,note_on,80,0,480
1,note_on,76,0,0
1,note_on,74,55,0
1,note_on,78,65,0
1,note_on,78,0,480
1,note_on,74,0,0
1,note_on,73,51,0
1,note_on,76,61,0
1,note_on,76,0,480
1,note_on,73,0,0
1,note_on,72,50,0
1,note_on,75,59,0
1,note_on,75,0,480
1,note_on,72,0,0
1,note_on,71,50,0
1,note_on,74,59,0
1,note_on,74,0,480
1,note_on,71,0,0
1,note_on,73,47,240
1,note_on,73,0,240
1,note_on,74,47,0
1,note_on,74,0,240
1,note_on,76,47,0
1,note_on,76,0,240
1,note_on,78,51,0
1,note_on,78,0,240
1,note_on,74,47,0
1,note_on,74,0,240
1,note_on,76,50,0
1,note_on,76,0,240
1,note_on,78,47,0
1,note_on,78,0,240
1,note_on,80,49,0
1,note_on,80,0,240
1,note_on,76,47,0
1,note_on,76,0,240
1,note_on,78,50,0
1,note_on,78,0,240
1,note_on,80,47,0
1,note_on,80,0,240
1,note_on,81,50,0
1,note_on,81,0,240
1,note_on,85,51,0
1,note_on,85,0,240
1,note_on,86,51,0
1,note_on,86,0,240
1,note_on,88,50,0
1,note_on,88,0,240
1,note_on,90,54,0
1,note_on,90,0,240
1,note_on,86,48,0
1,note_on,86,0,240
1,note_on,88,50,0
1,note_on,88,0,240
1,note_on,90,47,0
1,note_on,90,0,240
1,note_on,92,47,0
1,note_on,92,0,240
1,note_on,88,45,0
1,note_on,88,0,240
1,note_on,90,47,0
1,note_on,90,0,240
1,note_on,92,44,0
1,note_on,92,0,240
1,note_on,93,52,0
1,note_on,93,0,240
1,note_on,88,52,0
1,note_on,88,0,240
1,note_on,85,48,0
1,note_on,85,0,240
1,note_on,81,48,0
1,note_on,81,0,240
1,note_on,76,48,0
1,note_on,76,0,240
1,note_on,73,48,0
1,note_on,73,0,240
1,note_on,69,46,0
1,note_on,69,0,240
1,note_on,64,45,0
1,note_on,64,0,240
1,note_on,61,43,0
1,note_on,61,0,240
1,note_on,57,42,0
1,note_on,57,0,240
1,note_on,52,56,480
1,note_on,47,37,240
1,note_on,47,0,240
1,note_on,48,42,0
1,note_on,48,0,240
1,note_on,45,34,0
1,note_on,45,0,240
1,note_on,52,0,0
1,note_on,57,54,0
1,note_on,52,39,240
1,note_on,57,0,216
1,note_on,52,0,24
1,note_on,57,55,0
1,note_on,51,45,240
1,note_on,51,0,240
1,note_on,52,55,0
1,note_on,52,0,240
1,note_on,48,46,0
1,note_on,48,0,240
1,note_on,57,0,0
1,note_on,60,66,0
1,note_on,57,55,240
1,note_on,57,0,240
1,note_on,60,0,0
1,note_on,65,73,0
1,note_on,59,56,240
1,note_on,59,0,240
1,note_on,60,61,0
1,note_on,60,0,240
1,note_on,57,56,0
1,note_on,57,0,240
1,note_on,65,0,0
1,note_on,64,68,0
1,note_on,60,49,240
1,note_on,60,0,240
1,note_on,64,0,0
1,note_on,63,68,0
1,note_on,59,50,240
1,note_on,59,0,240
1,note_on,60,55,0
1,note_on,60,0,240
1,note_on,57,45,0
1,note_on,63,0,230
1,note_on,57,0,10
1,note_on,63,51,0
1,note_on,60,33,240
1,note_on,60,0,240
1,note_on,63,0,0
1,note_on,64,45,0
1,note_on,64,0,480
1,note_on,52,39,240
1,note_on,52,0,240
1,note_on,59,40,0
1,note_on,59,0,240
1,note_on,63,42,0
1,note_on,63,0,240
1,note_on,64,44,0
1,note_on,64,0,480
1,note_on,64,43,240
1,note_on,64,0,240
1,note_on,71,48,0
1,note_on,71,0,240
1,note_on,75,50,0
1,note_on,75,0,240
1,note_on,76,52,0
1,note_on,76,0,480
1,note_on,88,58,240
1,note_on,88,0,240
1,note_on,85,57,0
1,note_on,85,0,240
1,note_on,82,55,0
1,note_on,82,0,240
1,note_on,79,54,0
1,note_on,79,0,240
1,note_on,76,54,0
1,note_on,76,0,240
1,note_on,73,54,0
1,note_on,73,0,240
1,note_on,70,53,0
1,note_on,70,0,240
1,note_on,66,50,0
1,note_on,66,0,240
1,note_on,62,46,0
1,note_on,62,0,240
1,note_on,66,56,0
1,note_on,61,37,240
1,note_on,61,0,240
1,note_on,62,42,0
1,note_on,62,0,240
1,note_on,59,34,0
1,note_on,59,0,240
1,note_on,66,0,0
1,note_on,71,54,0
1,note_on,66,39,240
1,note_on,71,0,216
1,note_on,66,0,24
1,note_on,71,55,0
1,note_on,65,45,240
1,note_on,65,0,240
1,note_on,66,55,0
1,note_on,66,0,240
1,note_on,62,46,0
1,note_on,62,0,240
1,note_on,71,0,0
1,note_on,74,66,0
1,note_on,71,55,240
1,note_on,71,0,240
1,note_on,74,0,0
1,note_on,79,73,0
1,note_on,73,56,240
1,note_on,73,0,240
1,note_on,74,61,0
1,note_on,74,0,240
1,note_on,71,56,0
1,note_on,71,0,240
1,note_on,79,0,0
1,note_on,78,68,0
1,note_on,74,49,240
1,note_on,74,0,240
1,note_on,78,0,0
1,note_on,77,68,0
1,note_on,73,50,240
1,note_on,73,0,240
1,note_on,74,55,0
1,note_on,74,0,240
1,note_on,71,45,0
1,note_on,77,0,230
1,note_on,71,0,10
1,note_on,77,51,0
1,note_on,74,33,240
1,note_on,74,0,240
1,note_on,77,0,0
1,note_on,73,45,0
1,note_on,78,45,0
1,note_on,78,0,480
1,note_on,73,0,0
1,note_on,66,39,240
1,note_on,66,0,240
1,note_on,73,40,0
1,note_on,73,0,240
1,note_on,77,42,0
1,note_on,77,0,240
1,note_on,78,44,0
1,note_on,78,0,480
1,note_on,78,43,240
1,note_on,78,0,240
1,note_on,85,48,0
1,note_on,85,0,240
1,note_on,89,50,0
1,note_on,89,0,240
1,note_on,90,52,0
1,note_on,90,0,480
1,note_on,87,58,240
1,note_on,87,0,240
1,note_on,84,57,0
1,note_on,84,0,240
1,note_on,81,55,0
1,note_on,81,0,240
1,note_on,78,54,0
1,note_on,78,0,240
1,note_on,75,54,0
1,note_on,75,0,240
1,note_on,72,54,0
1,note_on,72,0,240
1,note_on,69,53,0
1,note_on,69,0,240
1,note_on,66,50,0
1,note_on,66,0,240
1,note_on,63,46,0
1,note_on,63,0,240
1,note_on,61,45,0
1,note_on,61,0,480
1,note_on,61,42,240
1,note_on,61,0,240
1,note_on,68,44,0
1,note_on,68,0,240
1,note_on,71,46,0
1,note_on,71,0,240
1,note_on,70,49,0
1,note_on,70,0,480
1,note_on,73,49,240
1,note_on,73,0,240
1,note_on,78,55,0
1,note_on,78,0,240
1,note_on,82,57,0
1,note_on,82,0,240
1,note_on,85,67,0
1,note_on,85,0,240
1,note_on,83,58,0
1,note_on,83,0,240
1,note_on,59,46,240
1,note_on,59,0,240
1,note_on,66,47,0
1,note_on,66,0,240
1,note_on,69,50,0
1,note_on,69,0,240
1,note_on,68,52,0
1,note_on,68,0,480
1,note_on,71,52,240
1,note_on,71,0,240
1,note_on,76,59,0
1,note_on,76,0,240
1,note_on,80,62,0
1,note_on,80,0,240
1,note_on,83,70,0
1,note_on,83,0,240
1,note_on,81,62,0
1,note_on,81,0,240
1,note_on,57,49,240
1,note_on,57,0,240
1,note_on,64,51,0
1,note_on,64,0,240
1,note_on,68,53,0
1,note_on,68,0,240
1,note_on,67,56,0
1,note_on,67,0,480
1,note_on,70,56,240
1,note_on,70,0,240
1,note_on,75,63,0
1,note_on,75,0,240
1,note_on,79,66,0
1,note_on,79,0,240
1,note_on,81,73,0
1,note_on,81,0,240
1,note_on,80,67,0
1,note_on,80,0,240
1,note_on,56,53,240
1,note_on,56,0,240
1,note_on,63,54,0
1,note_on,63,0,240
1,note_on,66,57,0
1,note_on,66,0,240
1,note_on,65,60,0
1,note_on,65,0,480
1,note_on,71,60,240
1,note_on,71,0,240
1,note_on,73,67,0
1,note_on,73,0,240
1,note_on,77,70,0
1,note_on,77,0,240
1,note_on,80,77,0
1,note_on,80,0,240
1,note_on,78,71,0
1,note_on,78,0,240
1,note_on,66,56,240
1,note_on,66,0,240
1,note_on,71,58,0
1,note_on,71,0,240
1,note_on,76,61,0
1,note_on,76,0,240
1,note_on,74,64,0
1,note_on,74,0,480
1,note_on,69,64,240
1,note_on,69,0,240
1,note_on,68,71,0
1,note_on,68,0,240
1,note_on,73,75,0
1,note_on,73,0,240
1,note_on,80,79,0
1,note_on,80,0,240
1,note_on,78,76,0
1,note_on,78,0,240
1,note_on,66,59,240
1,note_on,66,0,240
1,note_on,71,61,0
1,note_on,71,0,240
1,note_on,76,64,0
1,note_on,76,0,240
1,note_on,74,68,0
1,note_on,74,0,480
1,note_on,69,67,240
1,note_on,69,0,240
1,note_on,68,75,0
1,note_on,68,0,240
1,note_on,73,79,0
1,note_on,73,0,240
1,note_on,71,90,0
1,note_on,71,0,480
1,note_on,59,62,240
1,note_on,59,0,240
1,note_on,64,64,0
1,note_on,64,0,240
1,note_on,70,67,0
1,note_on,70,0,240
1,note_on,71,70,0
1,note_on,71,0,480
1,note_on,59,68,240
1,note_on,59,0,240
1,note_on,64,76,0
1,note_on,64,0,240
1,note_on,70,80,0
1,note_on,70,0,240
1,note_on,71,90,0
1,note_on,71,0,240
1,note_on,59,62,0
1,note_on,59,0,240
1,note_on,64,66,0
1,note_on,64,0,240
1,note_on,70,72,0
1,note_on,70,0,240
1,note_on,71,84,0
1,note_on,71,0,240
1,note_on,59,72,0
1,note_on,59,0,240
1,note_on,64,75,0
1,note_on,64,0,240
1,note_on,70,82,0
1,note_on,70,0,240
1,note_on,71,89,0
1,note_on,71,0,240
1,note_on,59,77,0
1,note_on,59,0,240
1,note_on,64,81,0
1,note_on,64,0,240
1,note_on,70,88,0
1,note_on,70,0,240
1,note_on,66,81,0
1,note_on,72,103,0
1,note_on,66,0,240
1,note_on,65,67,0
1,note_on,65,0,240
1,note_on,66,71,0
1,note_on,66,0,240
1,note_on,68,72,0
1,note_on,68,0,240
1,note_on,69,78,0
1,note_on,69,0,240
1,note_on,68,72,0
1,note_on,68,0,240
1,note_on,72,0,0
1,note_on,66,81,0
1,note_on,73,103,0
1,note_on,66,0,240
1,note_on,65,70,0
1,note_on,65,0,240
1,note_on,73,0,0
1,note_on,66,72,0
1,note_on,66,0,240
1,note_on,68,74,0
1,note_on,68,0,240
1,note_on,69,76,0
1,note_on,69,0,240
1,note_on,68,72,0
1,note_on,68,0,240
1,note_on,66,81,0
1,note_on,72,103,0
1,note_on,66,0,240
1,note_on,65,67,0
1,note_on,65,0,240
1,note_on,66,71,0
1,note_on,66,0,240
1,note_on,68,72,0
1,note_on,68,0,240
1,note_on,69,78,0
1,note_on,69,0,240
1,note_on,68,72,0
1,note_on,68,0,240
1,note_on,72,0,0
1,note_on,66,81,0
1,note_on,73,103,0
1,note_on,66,0,240
1,note_on,65,70,0
1,note_on,65,0,240
1,note_on,73,0,0
1,note_on,66,72,0
1,note_on,66,0,240
1,note_on,68,74,0
1,note_on,68,0,240
1,note_on,69,76,0
1,note_on,69,0,240
1,note_on,68,72,0
1,note_on,68,0,240
1,note_on,66,81,0
1,note_on,72,103,0
1,note_on,66,0,240
1,note_on,65,67,0
1,note_on,65,0,240
1,note_on,66,71,0
1,note_on,66,0,240
1,note_on,68,72,0
1,note_on,68,0,240
1,note_on,69,78,0
1,note_on,69,0,240
1,note_on,68,72,0
1,note_on,68,0,240
1,note_on,66,52,0
1,note_on,66,0,240
1,note_on,65,53,0
1,note_on,65,0,240
1,note_on,66,54,0
1,note_on,66,0,240
1,note_on,67,55,0
1,note_on,67,0,240
1,note_on,69,61,0
1,note_on,69,0,240
1,note_on,66,54,0
1,note_on,66,0,240
1,note_on,72,0,0
1,note_on,71,62,0
1,note_on,69,58,0
1,note_on,69,0,240
1,note_on,67,47,0
1,note_on,67,0,240
1,note_on,66,47,0
1,note_on,66,0,240
1,note_on,67,47,0
1,note_on,67,0,240
1,note_on,69,54,0
1,note_on,69,0,240
1,note_on,67,47,0
1,note_on,67,0,240
1,note_on,71,0,0
1,note_on,74,60,0
1,note_on,68,56,0
1,note_on,68,0,240
1,note_on,66,45,0
1,note_on,66,0,240
1,note_on,68,45,0
1,note_on,68,0,240
1,note_on,69,45,0
1,note_on,69,0,240
1,note_on,71,52,0
1,note_on,71,0,240
1,note_on,68,45,0
1,note_on,68,0,240
1,note_on,74,0,0
1,note_on,73,57,0
1,note_on,71,53,0
1,note_on,71,0,240
1,note_on,69,43,0
1,note_on,69,0,240
1,note_on,68,44,0
1,note_on,68,0,240
1,note_on,69,44,0
1,note_on,69,0,240
1,note_on,71,49,0
1,note_on,71,0,240
1,note_on,69,44,0
1,note_on,69,0,240
1,note_on,73,0,0
1,note_on,76,55,0
1,note_on,70,51,0
1,note_on,70,0,240
1,note_on,68,42,0
1,note_on,68,0,240
1,note_on,70,42,0
1,note_on,70,0,240
1,note_on,71,41,0
1,note_on,71,0,240
1,note_on,73,47,0
1,note_on,73,0,240
1,note_on,70,42,0
1,note_on,70,0,240
1,note_on,76,0,0
1,note_on,74,52,0
1,note_on,73,49,0
1,note_on,73,0,240
1,note_on,71,40,0
1,note_on,71,0,240
1,note_on,70,40,0
1,note_on,70,0,240
1,note_on,71,40,0
1,note_on,71,0,240
1,note_on,73,46,0
1,note_on,73,0,240
1,note_on,71,41,0
1,note_on,71,0,240
1,note_on,74,0,0
1,note_on,73,52,0
1,note_on,71,49,0
1,note_on,71,0,240
1,note_on,69,40,0
1,note_on,69,0,240
1,note_on,68,40,0
1,note_on,68,0,240
1,note_on,69,40,0
1,note_on,69,0,240
1,note_on,71,46,0
1,note_on,71,0,240
1,note_on,69,41,0
1,note_on,69,0,240
1,note_on,73,0,0
1,note_on,72,52,0
1,note_on,69,49,0
1,note_on,69,0,240
1,note_on,68,40,0
1,note_on,68,0,240
1,note_on,67,40,0
1,note_on,67,0,240
1,note_on,68,40,0
1,note_on,68,0,240
1,note_on,69,46,0
1,note_on,69,0,240
1,note_on,68,41,0
1,note_on,68,0,240
1,note_on,72,0,0
1,note_on,71,52,0
1,note_on,69,49,0
1,note_on,69,0,240
1,note_on,68,40,0
1,note_on,68,0,240
1,note_on,66,40,0
1,note_on,66,0,240
1,note_on,68,40,0
1,note_on,68,0,240
1,note_on,69,46,0
1,note_on,69,0,240
1,note_on,68,41,0
1,note_on,68,0,240
1,note_on,71,0,0
1,note_on,70,52,0
1,note_on,68,49,0
1,note_on,68,0,240
1,note_on,66,40,0
1,note_on,66,0,240
1,note_on,65,40,0
1,note_on,65,0,240
1,note_on,66,40,0
1,note_on,66,0,240
1,note_on,68,46,0
1,note_on,68,0,240
1,note_on,66,41,0
1,note_on,66,0,240
1,note_on,70,0,0
1,note_on,69,52,0
1,note_on,68,49,0
1,note_on,68,0,240
1,note_on,66,40,0
1,note_on,66,0,240
1,note_on,65,40,0
1,note_on,65,0,240
1,note_on,66,40,0
1,note_on,66,0,240
1,note_on,68,46,0
1,note_on,68,0,240
1,note_on,66,41,0
1,note_on,66,0,240
1,note_on,69,0,0
1,note_on,65,55,0
1,note_on,65,0,240
1,note_on,61,45,0
1,note_on,61,0,240
1,note_on,56,49,0
1,note_on,56,0,240
1,note_on,61,47,0
1,note_on,61,0,240
1,note_on,65,49,0
1,note_on,65,0,240
1,note_on,68,49,0
1,note_on,68,0,240
1,note_on,65,57,0
1,note_on,65,0,240
1,note_on,61,45,0
1,note_on,61,0,240
1,note_on,56,49,0
1,note_on,56,0,240
1,note_on,61,47,0
1,note_on,61,0,240
1,note_on,65,46,0
1,note_on,65,0,240
1,note_on,68,43,0
1,note_on,68,0,240
1,note_on,66,55,0
1,note_on,66,0,240
1,note_on,61,45,0
1,note_on,61,0,240
1,note_on,57,49,0
1,note_on,57,0,240
1,note_on,61,47,0
1,note_on,61,0,240
1,note_on,66,49,0
1,note_on,66,0,240
1,note_on,69,49,0
1,note_on,69,0,240
1,note_on,66,57,0
1,note_on,66,0,240
1,note_on,63,45,0
1,note_on,63,0,240
1,note_on,60,49,0
1,note_on,60,0,240
1,note_on,63,47,0
1,note_on,63,0,240
1,note_on,66,46,0
1,note_on,66,0,240
1,note_on,69,43,0
1,note_on,69,0,240
1,note_on,68,55,0
1,note_on,68,0,240
1,note_on,65,45,0
1,note_on,65,0,240
1,note_on,61,49,0
1,note_on,61,0,240
1,note_on,65,47,0
1,note_on,65,0,240
1,note_on,68,49,0
1,note_on,68,0,240
1,note_on,73,49,0
1,note_on,73,0,240
1,note_on,68,57,0
1,note_on,68,0,240
1,note_on,65,45,0
1,note_on,65,0,240
1,note_on,61,49,0
1,note_on,61,0,240
1,note_on,65,47,0
1,note_on,65,0,240
1,note_on,68,46,0
1,note_on,68,0,240
1,note_on,73,43,0
1,note_on,73,0,240
1,note_on,69,55,0
1,note_on,69,0,240
1,note_on,66,45,0
1,note_on,66,0,240
1,note_on,61,49,0
1,note_on,61,0,240
1,note_on,66,47,0
1,note_on,66,0,240
1,note_on,69,49,0
1,note_on,69,0,240
1,note_on,73,49,0
1,note_on,73,0,240
1,note_on,69,57,0
1,note_on,69,0,240
1,note_on,66,45,0
1,note_on,66,0,240
1,note_on,63,49,0
1,note_on,63,0,240
1,note_on,66,47,0
1,note_on,66,0,240
1,note_on,69,46,0
1,note_on,69,0,240
1,note_on,72,43,0
1,note_on,72,0,240
1,note_on,73,55,0
1,note_on,73,0,240
1,note_on,68,45,0
1,note_on,68,0,240
1,note_on,65,49,0
1,note_on,65,0,240
1,note_on,68,47,0
1,note_on,68,0,240
1,note_on,73,49,0
1,note_on,73,0,240
1,note_on,77,49,0
1,note_on,77,0,240
1,note_on,80,55,0
1,note_on,80,0,240
1,note_on,77,45,0
1,note_on,77,0,240
1,note_on,83,55,0
1,note_on,83,0,240
1,note_on,80,53,0
1,note_on,80,0,240
1,note_on,78,49,0
1,note_on,78,0,240
1,note_on,77,49,0
1,note_on,77,0,240
1,note_on,85,69,0
1,note_on,85,0,240
1,note_on,83,63,0
1,note_on,83,0,240
1,note_on,82,59,0
1,note_on,82,0,240
1,note_on,80,58,0
1,note_on,80,0,240
1,note_on,78,56,0
1,note_on,78,0,240
1,note_on,77,49,0
1,note_on,77,0,240
1,note_on,78,55,0
1,note_on,78,0,240
1,note_on,75,53,0
1,note_on,75,0,240
1,note_on,72,51,0
1,note_on,72,0,240
1,note_on,68,51,0
1,note_on,68,0,240
1,note_on,66,48,0
1,note_on,66,0,240
1,note_on,63,46,0
1,note_on,63,0,240
1,note_on,71,61,0
1,note_on,65,61,0
1,note_on,65,0,240
1,note_on,71,0,0
1,note_on,68,51,0
1,note_on,68,0,240
1,note_on,65,48,0
1,note_on,65,0,240
1,note_on,61,47,0
1,note_on,61,0,240
1,note_on,60,46,0
1,note_on,60,0,240
1,note_on,59,43,0
1,note_on,59,0,240
1,note_on,58,49,0
1,note_on,58,0,240
1,note_on,61,42,0
1,note_on,61,0,240
1,note_on,64,45,0
1,note_on,64,0,240
1,note_on,76,46,0
1,note_on,76,0,240
1,note_on,73,48,0
1,note_on,73,0,240
1,note_on,70,52,0
1,note_on,70,0,240
1,note_on,67,54,0
1,note_on,63,38,217
1,note_on,67,0,23
1,note_on,63,0,217
1,note_on,68,45,23
1,note_on,68,0,240
1,note_on,63,38,0
1,note_on,63,0,240
1,note_on,70,43,0
1,note_on,70,0,240
1,note_on,63,38,0
1,note_on,63,0,240
1,note_on,71,50,0
1,note_on,71,0,240
1,note_on,65,38,0
1,note_on,65,0,240
1,note_on,61,43,0
1,note_on,61,0,240
1,note_on,65,38,0
1,note_on,65,0,240
1,note_on,59,45,0
1,note_on,59,0,240
1,note_on,65,37,0
1,note_on,65,0,240
1,note_on,58,45,0
1,note_on,58,0,240
1,note_on,61,33,0
1,note_on,61,0,240
1,note_on,66,33,0
1,note_on,66,0,240
1,note_on,70,33,14
1,note_on,66,33,226
1,note_on,70,0,14
1,note_on,66,0,226
1,note_on,61,33,0
1,note_on,61,0,240
1,note_on,58,36,0
1,note_on,58,0,240
1,note_on,56,31,0
1,note_on,56,0,240
1,note_on,61,59,480
1,note_on,66,64,480
1,note_on,61,0,480
1,note_on,63,55,0
1,note_on,63,0,480
1,note_on,61,55,0
1,note_on,61,0,480
1,note_on,60,58,0
1,note_on,66,0,480
1,note_on,65,62,0
1,note_on,65,0,480
1,note_on,66,70,0
1,note_on,66,0,480
1,note_on,60,0,0
1,note_on,59,58,0
1,note_on,68,72,0
1,note_on,65,60,0
1,note_on,65,0,1440
1,note_on,68,0,0
1,note_on,59,0,0
1,note_on,58,54,0
1,note_on,64,54,0
1,note_on,70,54,0
1,note_on,70,0,1440
1,note_on,64,0,0
1,note_on,58,0,0
1,note_on,70,62,0
1,note_on,63,62,0
1,note_on,73,73,0
1,note_on,73,0,480
1,note_on,70,0,0
1,note_on,68,52,0
1,note_on,71,62,0
1,note_on,71,0,480
1,note_on,68,0,0
1,note_on,66,45,0
1,note_on,70,54,0
1,note_on,70,0,480
1,note_on,66,0,0
1,note_on,63,0,0
1,note_on,65,66,0
1,note_on,68,66,0
1,note_on,68,0,480
1,note_on,70,49,0
1,note_on,70,0,480
1,note_on,68,41,0
1,note_on,68,0,480
1,note_on,65,0,0
1,note_on,66,50,0
1,note_on,66,0,480
1,note_on,78,58,480
1,note_on,66,49,0
1,note_on,66,0,480
1,note_on,78,0,0
1,note_on,68,58,0
1,note_on,77,58,0
1,note_on,80,69,0
1,note_on,80,0,960
1,note_on,77,0,0
1,note_on,68,0,0
1,note_on,70,62,0
1,note_on,76,62,0
1,note_on,82,73,0
1,note_on,82,0,470
1,note_on,76,0,0
1,note_on,70,0,0
1,note_on,85,89,10
1,note_on,82,75,0
1,note_on,73,75,0
1,note_on,73,0,480
1,note_on,82,0,0
1,note_on,85,0,0
1,note_on,83,76,0
1,note_on,80,64,0
1,note_on,71,63,0
1,note_on,71,0,480
1,note_on,80,0,0
1,note_on,83,0,0
1,note_on,82,70,0
1,note_on,78,70,0
1,note_on,78,0,480
1,note_on,82,0,0
1,note_on,77,82,0
1,note_on,80,82,0
1,note_on,80,0,480
1,note_on,82,75,0
1,note_on,82,0,480
1,note_on,80,68,0
1,note_on,80,0,480
1,note_on,77,0,0
1,note_on,78,90,0
1,note_on,78,0,480
1,note_on,66,73,480
1,note_on,78,86,0
1,note_on,70,73,0
1,note_on,70,0,480
1,note_on,78,0,0
1,note_on,66,0,0
1,note_on,68,77,0
1,note_on,80,91,0
1,note_on,71,77,0
1,note_on,71,0,960
1,note_on,80,0,0
1,note_on,68,0,0
1,note_on,70,80,0
1,note_on,82,95,0
1,note_on,73,80,0
1,note_on,73,0,480
1,note_on,82,0,0
1,note_on,70,0,0
1,note_on,73,82,0
1,note_on,78,97,0
1,note_on,85,97,0
1,note_on,85,0,480
1,note_on,78,0,0
1,note_on,73,0,0
1,note_on,71,75,0
1,note_on,83,89,0
1,note_on,83,0,480
1,note_on,71,0,0
1,note_on,70,69,0
1,note_on,82,82,0
1,note_on,82,0,470
1,note_on,70,0,0
1,note_on,70,76,10
1,note_on,75,90,0
1,note_on,82,90,0
1,note_on,82,0,480
1,note_on,75,0,0
1,note_on,70,0,0
1,note_on,68,69,0
1,note_on,80,81,0
1,note_on,80,0,480
1,note_on,68,0,0
1,note_on,78,71,0
1,note_on,66,60,0
1,note_on,66,0,470
1,note_on,78,0,0
1,note_on,66,69,10
1,note_on,78,82,0
1,note_on,78,0,480
1,note_on,66,0,0
1,note_on,77,72,0
1,note_on,65,61,0
1,note_on,65,0,480
1,note_on,77,0,0
1,note_on,63,54,0
1,note_on,75,64,0
1,note_on,75,0,470
1,note_on,63,0,0
1,note_on,73,71,10
1,note_on,61,60,0
1,note_on,61,0,432
1,note_on,73,0,0
1,note_on,61,56,48
1,note_on,73,66,0
1,note_on,73,0,432
1,note_on,61,0,0
1,note_on,73,60,48
1,note_on,61,51,0
1,note_on,61,0,470
1,note_on,73,0,0
1,note_on,73,62,10
1,note_on,61,52,0
1,note_on,70,52,0
1,note_on,70,0,480
1,note_on,61,0,0
1,note_on,73,0,0
1,note_on,68,48,0
1,note_on,71,57,0
1,note_on,71,0,480
1,note_on,68,0,0
1,note_on,66,39,0
1,note_on,70,46,0
1,note_on,70,0,480
1,note_on,66,0,0
1,note_on,73,56,0
1,note_on,63,47,0
1,note_on,73,0,480
1,note_on,71,49,0
1,note_on,71,0,480
1,note_on,68,41,0
1,note_on,68,0,480
1,note_on,63,0,0
1,note_on,66,51,0
1,note_on,61,43,240
1,note_on,61,0,240
1,note_on,60,43,0
1,note_on,60,0,240
1,note_on,61,40,0
1,note_on,61,0,240
1,note_on,63,43,0
1,note_on,63,0,240
1,note_on,61,40,0
1,note_on,61,0,240
1,note_on,66,0,0
1,note_on,65,49,0
1,note_on,65,0,1440
1,note_on,66,67,0
1,note_on,78,79,0
1,note_on,78,0,480
1,note_on,66,0,0
1,note_on,73,68,0
1,note_on,77,68,0
1,note_on,77,0,480
1,note_on,73,0,0
1,note_on,71,65,0
1,note_on,75,65,0
1,note_on,75,0,480
1,note_on,71,0,0
1,note_on,70,61,0
1,note_on,73,61,0
1,note_on,73,0,480
1,note_on,70,0,0
1,note_on,69,59,0
1,note_on,72,59,0
1,note_on,72,0,480
1,note_on,69,0,0
1,note_on,68,59,0
1,note_on,71,59,0
1,note_on,71,0,480
1,note_on,68,0,0
1,note_on,70,62,0
1,note_on,66,55,0
1,note_on,66,0,240
1,note_on,70,0,0
1,note_on,71,57,240
1,note_on,66,50,0
1,note_on,66,0,180
1,note_on,71,0,0
1,note_on,70,51,300
1,note_on,66,45,0
1,note_on,66,0,180
1,note_on,70,0,0
1,note_on,66,50,300
1,note_on,63,50,0
1,note_on,68,57,0
1,note_on,68,0,180
1,note_on,63,0,0
1,note_on,66,0,0
1,note_on,65,66,780
1,note_on,65,0,240
1,note_on,66,60,240
1,note_on,78,71,0
1,note_on,78,0,480
1,note_on,66,0,0
1,note_on,73,51,0
1,note_on,77,61,0
1,note_on,77,0,480
1,note_on,73,0,0
1,note_on,71,49,0
1,note_on,75,58,0
1,note_on,75,0,480
1,note_on,71,0,0
1,note_on,70,45,0
1,note_on,73,54,0
1,note_on,73,0,480
1,note_on,70,0,0
1,note_on,69,45,0
1,note_on,72,53,0
1,note_on,72,0,480
1,note_on,69,0,0
1,note_on,68,45,0
1,note_on,71,53,0
1,note_on,71,0,480
1,note_on,68,0,0
1,note_on,70,50,0
1,note_on,70,0,240
1,note_on,65,47,0
1,note_on,65,0,240
1,note_on,66,47,0
1,note_on,66,0,240
1,note_on,68,47,0
1,note_on,68,0,240
1,note_on,70,51,0
1,note_on,70,0,240
1,note_on,71,47,0
1,note_on,71,0,240
1,note_on,73,50,0
1,note_on,73,0,240
1,note_on,72,47,0
1,note_on,72,0,240
1,note_on,73,49,0
1,note_on,73,0,240
1,note_on,75,47,0
1,note_on,75,0,240
1,note_on,76,50,0
1,note_on,76,0,240
1,note_on,77,47,0
1,note_on,77,0,240
1,note_on,78,50,0
1,note_on,78,0,240
1,note_on,77,50,0
1,note_on,77,0,240
1,note_on,78,49,0
1,note_on,78,0,240
1,note_on,80,48,0
1,note_on,80,0,240
1,note_on,82,51,0
1,note_on,82,0,240
1,note_on,83,45,0
1,note_on,83,0,240
1,note_on,85,46,0
1,note_on,85,0,240
1,note_on,84,43,0
1,note_on,84,0,240
1,note_on,85,42,0
1,note_on,85,0,240
1,note_on,87,40,0
1,note_on,87,0,240
1,note_on,88,41,0
1,note_on,88,0,240
1,note_on,89,38,0
1,note_on,89,0,240
1,note_on,90,44,0
1,note_on,90,0,240
1,note_on,85,44,0
1,note_on,85,0,240
1,note_on,82,40,0
1,note_on,82,0,240
1,note_on,80,37,0
1,note_on,80,0,240
1,note_on,82,40,0
1,note_on,82,0,240
1,note_on,78,36,0
1,note_on,78,0,240
1,note_on,85,45,0
1,note_on,85,0,240
1,note_on,82,36,0
1,note_on,82,0,240
1,note_on,78,40,0
1,note_on,78,0,240
1,note_on,77,36,0
1,note_on,77,0,240
1,note_on,78,40,0
1,note_on,78,0,240
1,note_on,73,36,0
1,note_on,73,0,240
1,note_on,82,45,0
1,note_on,82,0,240
1,note_on,78,36,0
1,note_on,78,0,240
1,note_on,73,40,0
1,note_on,73,0,240
1,note_on,71,36,0
1,note_on,71,0,240
1,note_on,73,40,0
1,note_on,73,0,240
1,note_on,70,36,0
1,note_on,70,0,240
1,note_on,78,45,0
1,note_on,78,0,240
1,note_on,73,36,0
1,note_on,73,0,240
1,note_on,70,40,0
1,note_on,70,0,240
1,note_on,68,36,0
1,note_on,68,0,240
1,note_on,70,40,0
1,note_on,70,0,240
1,note_on,66,36,0
1,note_on,66,0,240
1,note_on,73,45,0
1,note_on,73,0,240
1,note_on,70,37,0
1,note_on,70,0,240
1,note_on,66,37,0
1,note_on,66,0,240
1,note_on,61,37,0
1,note_on,61,0,240
1,note_on,70,39,720
1,note_on,70,0,240
1,note_on,73,42,0
1,note_on,73,0,240
1,note_on,78,40,0
1,note_on,78,0,240
1,note_on,82,43,0
1,note_on,82,0,240
1,note_on,85,39,0
1,note_on,85,0,240
1,note_on,90,45,0
1,note_on,90,0,240
1,note_on,58,26,1200
1,note_on,66,26,0
1,note_on,70,31,0
1,note_on,70,0,480
1,note_on,66,0,0
1,note_on,58,0,0
1,note_on,78,38,960
1,note_on,70,32,0
1,note_on,70,0,480
1,note_on,78,0,0
2,note_on,30,40,2880
2,note_on,42,48,0
2,note_on,42,0,960
2,note_on,30,0,0
2,note_on,42,40,480
2,note_on,54,48,0
2,note_on,54,0,960
2,note_on,42,0,0
2,note_on,62,60,480
2,note_on,57,50,0
2,note_on,54,50,0
2,note_on,62,0,960
2,note_on,61,48,0
2,note_on,61,0,480
2,note_on,60,54,0
2,note_on,54,0,720
2,note_on,57,0,0
2,note_on,60,0,240
2,note_on,57,39,0
2,note_on,54,33,0
2,note_on,54,0,480
2,note_on,57,0,0
2,note_on,53,40,0
2,note_on,56,48,0
2,note_on,56,0,480
2,note_on,53,0,0
2,note_on,49,38,480
2,note_on,37,32,0
2,note_on,37,0,480
2,note_on,49,0,0
2,note_on,42,40,0
2,note_on,54,48,0
2,note_on,54,0,480
2,note_on,42,0,0
2,note_on,35,40,960
2,note_on,47,48,0
2,note_on,47,0,480
2,note_on,35,0,0
2,note_on,49,41,960
2,note_on,37,34,0
2,note_on,37,0,480
2,note_on,49,0,0
2,note_on,30,40,960
2,note_on,42,48,0
2,note_on,42,0,960
2,note_on,30,0,0
2,note_on,42,40,480
2,note_on,54,48,0
2,note_on,54,0,960
2,note_on,42,0,0
2,note_on,62,55,480
2,note_on,57,46,0
2,note_on,54,46,0
2,note_on,62,0,960
2,note_on,61,48,0
2,note_on,61,0,480
2,note_on,60,54,0
2,note_on,54,0,720
2,note_on,57,0,0
2,note_on,60,0,240
2,note_on,57,39,0
2,note_on,54,33,0
2,note_on,54,0,480
2,note_on,57,0,0
2,note_on,53,40,0
2,note_on,56,48,0
2,note_on,56,0,480
2,note_on,53,0,0
2,note_on,54,38,480
2,note_on,42,32,0
2,note_on,42,0,480
2,note_on,47,40,0
2,note_on,47,0,480
2,note_on,54,0,0
2,note_on,54,38,480
2,note_on,42,32,0
2,note_on,42,0,480
2,note_on,54,0,0
2,note_on,47,48,0
2,note_on,47,0,1440
2,note_on,49,40,0
2,note_on,49,0,960
2,note_on,54,38,0
2,note_on,42,32,0
2,note_on,42,0,480
2,note_on,47,40,0
2,note_on,47,0,480
2,note_on,54,0,0
2,note_on,54,38,480
2,note_on,42,32,0
2,note_on,42,0,480
2,note_on,47,40,0
2,note_on,47,0,480
2,note_on,54,0,0
2,note_on,54,38,480
2,note_on,42,32,0
2,note_on,42,0,480
2,note_on,54,0,0
2,note_on,47,48,0
2,note_on,47,0,1440
2,note_on,49,40,0
2,note_on,49,0,960
2,note_on,54,38,0
2,note_on,42,32,0
2,note_on,42,0,480
2,note_on,47,40,0
2,note_on,47,0,480
2,note_on,54,0,0
2,note_on,61,38,480
2,note_on,61,0,480
2,note_on,59,42,0
2,note_on,59,0,480
2,note_on,57,46,0
2,note_on,57,0,480
2,note_on,56,50,0
2,note_on,56,0,480
2,note_on,54,54,0
2,note_on,54,0,480
2,note_on,52,63,0
2,note_on,52,0,480
2,note_on,50,72,0
2,note_on,50,0,480
2,note_on,49,84,0
2,note_on,49,0,480
2,note_on,45,82,0
2,note_on,45,0,480
2,note_on,43,82,0
2,note_on,43,0,480
2,note_on,42,86,0
2,note_on,42,0,2400
2,note_on,46,72,0
2,note_on,46,0,480
2,note_on,47,70,0
2,note_on,47,0,960
2,note_on,44,57,0
2,note_on,44,0,480
2,note_on,45,55,0
2,note_on,45,0,960
2,note_on,39,44,0
2,note_on,39,0,480
2,note_on,40,47,0
2,note_on,40,0,480
2,note_on,52,69,0
2,note_on,44,58,0
2,note_on,44,0,480
2,note_on,52,0,0
2,note_on,45,53,0
2,note_on,45,0,480
2,note_on,40,54,0
2,note_on,40,0,480
2,note_on,52,69,0
2,note_on,44,58,0
2,note_on,44,0,480
2,note_on,52,0,0
2,note_on,45,53,0
2,note_on,45,0,480
2,note_on,40,54,0
2,note_on,40,0,480
2,note_on,52,69,0
2,note_on,44,58,0
2,note_on,44,0,480
2,note_on,52,0,0
2,note_on,45,53,0
2,note_on,45,0,480
2,note_on,40,54,0
2,note_on,40,0,480
2,note_on,52,69,0
2,note_on,44,58,0
2,note_on,44,0,480
2,note_on,52,0,0
2,note_on,45,53,0
2,note_on,45,0,480
2,note_on,40,54,0
2,note_on,40,0,480
2,note_on,40,54,4800
2,note_on,40,0,480
2,note_on,45,64,0
2,note_on,37,64,0
2,note_on,37,0,960
2,note_on,42,58,480
2,note_on,45,0,480
2,note_on,44,62,0
2,note_on,44,0,480
2,note_on,42,0,0
2,note_on,45,70,0
2,note_on,45,0,480
2,note_on,47,72,0
2,note_on,40,72,0
2,note_on,40,0,960
2,note_on,47,0,480
2,note_on,45,54,0
2,note_on,49,54,0
2,note_on,45,0,960
2,note_on,49,0,480
2,note_on,38,73,0
2,note_on,52,73,0
2,note_on,52,0,480
2,note_on,50,62,0
2,note_on,50,0,480
2,note_on,38,0,0
2,note_on,49,54,0
2,note_on,49,0,480
2,note_on,40,66,0
2,note_on,47,66,0
2,note_on,47,0,480
2,note_on,49,49,0
2,note_on,49,0,480
2,note_on,40,0,0
2,note_on,47,41,0
2,note_on,47,0,480
2,note_on,45,50,0
2,note_on,45,0,2400
2,note_on,49,36,0
2,note_on,49,0,240
2,note_on,45,36,0
2,note_on,45,0,240
2,note_on,42,48,0
2,note_on,42,0,240
2,note_on,45,36,0
2,note_on,45,0,240
2,note_on,47,36,0
2,note_on,47,0,240
2,note_on,49,36,0
2,note_on,49,0,240
2,note_on,47,37,0
2,note_on,47,0,240
2,note_on,45,37,0
2,note_on,45,0,240
2,note_on,51,47,0
2,note_on,51,0,240
2,note_on,42,37,0
2,note_on,42,0,240
2,note_on,44,51,0
2,note_on,44,0,240
2,note_on,45,45,0
2,note_on,45,0,240
2,note_on,44,56,0
2,note_on,44,0,240
2,note_on,42,50,0
2,note_on,42,0,240
2,note_on,40,65,0
2,note_on,40,0,240
2,note_on,50,38,0
2,note_on,50,0,240
2,note_on,52,52,0
2,note_on,52,0,240
2,note_on,54,39,0
2,note_on,54,0,240
2,note_on,52,51,0
2,note_on,52,0,240
2,note_on,50,47,0
2,note_on,50,0,240
2,note_on,55,67,0
2,note_on,45,67,0
2,note_on,45,0,240
2,note_on,55,0,0
2,note_on,52,49,0
2,note_on,52,0,240
2,note_on,49,54,0
2,note_on,49,0,240
2,note_on,47,47,0
2,note_on,47,0,240
2,note_on,43,57,0
2,note_on,43,0,240
2,note_on,40,53,0
2,note_on,40,0,240
2,note_on,38,72,0
2,note_on,38,0,240
2,note_on,42,51,0
2,note_on,42,0,240
2,note_on,44,58,0
2,note_on,44,0,240
2,note_on,45,48,0
2,note_on,45,0,240
2,note_on,47,55,0
2,note_on,47,0,240
2,note_on,49,47,0
2,note_on,49,0,240
2,note_on,50,64,0
2,note_on,40,64,0
2,note_on,40,0,240
2,note_on,50,0,0
2,note_on,49,49,0
2,note_on,49,0,240
2,note_on,50,55,0
2,note_on,50,0,240
2,note_on,47,48,0
2,note_on,47,0,240
2,note_on,52,54,0
2,note_on,52,0,240
2,note_on,50,41,0
2,note_on,50,0,240
2,note_on,49,60,0
2,note_on,45,60,0
2,note_on,45,0,240
2,note_on,49,0,0
2,note_on,52,54,0
2,note_on,52,0,240
2,note_on,50,54,0
2,note_on,50,0,240
2,note_on,49,54,0
2,note_on,49,0,240
2,note_on,47,54,0
2,note_on,47,0,240
2,note_on,45,51,0
2,note_on,45,0,240
2,note_on,44,55,0
2,note_on,44,0,240
2,note_on,45,55,0
2,note_on,45,0,240
2,note_on,43,57,0
2,note_on,43,0,240
2,note_on,45,60,0
2,note_on,45,0,240
2,note_on,42,61,0
2,note_on,42,0,240
2,note_on,46,65,0
2,note_on,46,0,240
2,note_on,38,75,0
2,note_on,38,0,240
2,note_on,42,53,0
2,note_on,42,0,240
2,note_on,44,62,0
2,note_on,44,0,240
2,note_on,45,50,0
2,note_on,45,0,240
2,note_on,47,65,0
2,note_on,47,0,240
2,note_on,49,49,0
2,note_on,49,0,240
2,note_on,50,73,0
2,note_on,50,0,240
2,note_on,40,51,0
2,note_on,40,0,240
2,note_on,52,64,0
2,note_on,52,0,240
2,note_on,40,50,0
2,note_on,40,0,240
2,note_on,50,56,0
2,note_on,50,0,240
2,note_on,40,43,0
2,note_on,40,0,240
2,note_on,45,63,0
2,note_on,49,48,240
2,note_on,49,0,240
2,note_on,50,50,0
2,note_on,50,0,240
2,note_on,52,46,0
2,note_on,52,0,240
2,note_on,54,47,0
2,note_on,54,0,240
2,note_on,50,45,0
2,note_on,50,0,240
2,note_on,52,45,0
2,note_on,52,0,240
2,note_on,45,0,0
2,note_on,54,41,0
2,note_on,54,0,240
2,note_on,56,43,0
2,note_on,56,0,240
2,note_on,52,41,0
2,note_on,52,0,240
2,note_on,54,42,0
2,note_on,54,0,240
2,note_on,56,37,0
2,note_on,56,0,240
2,note_on,57,42,0
2,note_on,57,0,240
2,note_on,66,38,240
2,note_on,66,0,180
2,note_on,64,32,300
2,note_on,64,0,180
2,note_on,63,38,300
2,note_on,63,0,180
2,note_on,62,38,780
2,note_on,62,0,240
2,note_on,57,63,240
2,note_on,61,48,240
2,note_on,61,0,240
2,note_on,62,50,0
2,note_on,62,0,240
2,note_on,64,46,0
2,note_on,64,0,240
2,note_on,66,47,0
2,note_on,66,0,240
2,note_on,62,45,0
2,note_on,62,0,240
2,note_on,64,45,0
2,note_on,64,0,240
2,note_on,57,0,0
2,note_on,66,41,0
2,note_on,66,0,240
2,note_on,68,43,0
2,note_on,68,0,240
2,note_on,64,41,0
2,note_on,64,0,240
2,note_on,66,42,0
2,note_on,66,0,240
2,note_on,68,37,0
2,note_on,68,0,240
2,note_on,69,56,0
2,note_on,64,54,480
2,note_on,68,64,0
2,note_on,68,0,480
2,note_on,64,0,0
2,note_on,62,51,0
2,note_on,66,61,0
2,note_on,66,0,480
2,note_on,62,0,0
2,note_on,61,48,0
2,note_on,64,57,0
2,note_on,69,0,240
2,note_on,64,0,240
2,note_on,61,0,0
2,note_on,60,47,0
2,note_on,63,56,0
2,note_on,63,0,480
2,note_on,60,0,0
2,note_on,59,47,0
2,note_on,62,56,0
2,note_on,62,0,480
2,note_on,59,0,0
2,note_on,57,47,0
2,note_on,61,56,0
2,note_on,61,0,480
2,note_on,57,0,0
2,note_on,52,48,0
2,note_on,56,57,0
2,note_on,56,0,480
2,note_on,52,0,0
2,note_on,50,44,0
2,note_on,54,53,0
2,note_on,54,0,480
2,note_on,50,0,0
2,note_on,49,40,0
2,note_on,52,48,0
2,note_on,52,0,480
2,note_on,49,0,0
2,note_on,48,39,0
2,note_on,51,46,0
2,note_on,51,0,480
2,note_on,48,0,0
2,note_on,47,37,0
2,note_on,50,44,0
2,note_on,50,0,480
2,note_on,47,0,0
2,note_on,45,39,0
2,note_on,49,43,0
2,note_on,49,0,1440
2,note_on,45,0,0
2,note_on,30,40,1440
2,note_on,42,48,0
2,note_on,42,0,960
2,note_on,30,0,0
2,note_on,42,40,480
2,note_on,54,48,0
2,note_on,54,0,960
2,note_on,42,0,0
2,note_on,62,60,480
2,note_on,57,50,0
2,note_on,54,50,0
2,note_on,62,0,960
2,note_on,61,48,0
2,note_on,61,0,480
2,note_on,60,54,0
2,note_on,54,0,720
2,note_on,57,0,0
2,note_on,60,0,240
2,note_on,57,39,0
2,note_on,54,33,0
2,note_on,54,0,480
2,note_on,57,0,0
2,note_on,53,40,0
2,note_on,56,48,0
2,note_on,56,0,480
2,note_on,53,0,0
2,note_on,49,38,480
2,note_on,37,32,0
2,note_on,37,0,480
2,note_on,49,0,0
2,note_on,42,40,0
2,note_on,54,48,0
2,note_on,54,0,480
2,note_on,42,0,0
2,note_on,35,40,960
2,note_on,47,48,0
2,note_on,47,0,480
2,note_on,35,0,0
2,note_on,49,41,960
2,note_on,37,34,0
2,note_on,37,0,480
2,note_on,49,0,0
2,note_on,30,40,960
2,note_on,42,48,0
2,note_on,42,0,960
2,note_on,30,0,0
2,note_on,42,40,480
2,note_on,54,48,0
2,note_on,54,0,960
2,note_on,42,0,0
2,note_on,62,55,480
2,note_on,57,46,0
2,note_on,54,46,0
2,note_on,62,0,960
2,note_on,61,48,0
2,note_on,61,0,480
2,note_on,60,54,0
2,note_on,54,0,720
2,note_on,57,0,0
2,note_on,60,0,240
2,note_on,57,39,0
2,note_on,54,33,0
2,note_on,54,0,480
2,note_on,57,0,0
2,note_on,53,40,0
2,note_on,56,48,0
2,note_on,56,0,480
2,note_on,53,0,0
2,note_on,54,38,480
2,note_on,42,32,0
2,note_on,42,0,480
2,note_on,47,40,0
2,note_on,47,0,480
2,note_on,54,0,0
2,note_on,54,38,480
2,note_on,42,32,0
2,note_on,42,0,480
2,note_on,54,0,0
2,note_on,47,48,0
2,note_on,47,0,1440
2,note_on,49,40,0
2,note_on,49,0,960
2,note_on,54,38,0
2,note_on,42,32,0
2,note_on,42,0,480
2,note_on,47,40,0
2,note_on,47,0,480
2,note_on,54,0,0
2,note_on,54,38,480
2,note_on,42,32,0
2,note_on,42,0,480
2,note_on,47,40,0
2,note_on,47,0,480
2,note_on,54,0,0
2,note_on,54,38,480
2,note_on,42,32,0
2,note_on,42,0,480
2,note_on,54,0,0
2,note_on,47,48,0
2,note_on,47,0,1440
2,note_on,49,40,0
2,note_on,49,0,960
2,note_on,54,38,0
2,note_on,42,32,0
2,note_on,42,0,480
2,note_on,47,40,0
2,note_on,47,0,480
2,note_on,54,0,0
2,note_on,61,38,480
2,note_on,61,0,480
2,note_on,59,42,0
2,note_on,59,0,480
2,note_on,57,46,0
2,note_on,57,0,480
2,note_on,56,50,0
2,note_on,56,0,480
2,note_on,54,54,0
2,note_on,54,0,480
2,note_on,52,63,0
2,note_on,52,0,480
2,note_on,50,72,0
2,note_on,50,0,480
2,note_on,49,84,0
2,note_on,49,0,480
2,note_on,45,82,0
2,note_on,45,0,480
2,note_on,43,82,0
2,note_on,43,0,480
2,note_on,42,86,0
2,note_on,42,0,2400
2,note_on,46,72,0
2,note_on,46,0,480
2,note_on,47,70,0
2,note_on,47,0,960
2,note_on,44,57,0
2,note_on,44,0,480
2,note_on,45,55,0
2,note_on,45,0,960
2,note_on,39,44,0
2,note_on,39,0,480
2,note_on,40,47,0
2,note_on,40,0,480
2,note_on,52,69,0
2,note_on,44,58,0
2,note_on,44,0,480
2,note_on,52,0,0
2,note_on,45,53,0
2,note_on,45,0,480
2,note_on,40,54,0
2,note_on,40,0,480
2,note_on,52,69,0
2,note_on,44,58,0
2,note_on,44,0,480
2,note_on,52,0,0
2,note_on,45,53,0
2,note_on,45,0,480
2,note_on,40,54,0
2,note_on,40,0,480
2,note_on,52,69,0
2,note_on,44,58,0
2,note_on,44,0,480
2,note_on,52,0,0
2,note_on,45,53,0
2,note_on,45,0,480
2,note_on,40,54,0
2,note_on,40,0,480
2,note_on,52,69,0
2,note_on,44,58,0
2,note_on,44,0,480
2,note_on,52,0,0
2,note_on,45,53,0
2,note_on,45,0,480
2,note_on,40,54,0
2,note_on,40,0,480
2,note_on,40,54,4800
2,note_on,40,0,480
2,note_on,37,64,0
2,note_on,45,64,0
2,note_on,37,0,960
2,note_on,42,58,480
2,note_on,45,0,480
2,note_on,44,62,0
2,note_on,44,0,480
2,note_on,42,0,0
2,note_on,45,70,0
2,note_on,45,0,480
2,note_on,47,72,0
2,note_on,40,72,0
2,note_on,40,0,960
2,note_on,47,0,480
2,note_on,45,54,0
2,note_on,49,54,0
2,note_on,45,0,960
2,note_on,49,0,480
2,note_on,52,73,0
2,note_on,38,73,0
2,note_on,52,0,480
2,note_on,50,62,0
2,note_on,50,0,480
2,note_on,38,0,0
2,note_on,49,54,0
2,note_on,49,0,480
2,note_on,47,66,0
2,note_on,40,66,0
2,note_on,47,0,480
2,note_on,49,49,0
2,note_on,49,0,480
2,note_on,40,0,0
2,note_on,47,41,0
2,note_on,47,0,480
2,note_on,45,50,0
2,note_on,45,0,2400
2,note_on,49,36,0
2,note_on,49,0,240
2,note_on,45,36,0
2,note_on,45,0,240
2,note_on,42,48,0
2,note_on,42,0,240
2,note_on,45,36,0
2,note_on,45,0,240
2,note_on,47,36,0
2,note_on,47,0,240
2,note_on,49,36,0
2,note_on,49,0,240
2,note_on,47,37,0
2,note_on,47,0,240
2,note_on,45,37,0
2,note_on,45,0,240
2,note_on,51,47,0
2,note_on,51,0,240
2,note_on,42,37,0
2,note_on,42,0,240
2,note_on,44,51,0
2,note_on,44,0,240
2,note_on,45,45,0
2,note_on,45,0,240
2,note_on,44,56,0
2,note_on,44,0,240
2,note_on,42,50,0
2,note_on,42,0,240
2,note_on,40,65,0
2,note_on,40,0,240
2,note_on,50,38,0
2,note_on,50,0,240
2,note_on,52,52,0
2,note_on,52,0,240
2,note_on,54,39,0
2,note_on,54,0,240
2,note_on,52,51,0
2,note_on,52,0,240
2,note_on,50,47,0
2,note_on,50,0,240
2,note_on,55,67,0
2,note_on,45,67,0
2,note_on,45,0,240
2,note_on,55,0,0
2,note_on,52,49,0
2,note_on,52,0,240
2,note_on,49,62,0
2,note_on,49,0,240
2,note_on,47,56,0
2,note_on,47,0,240
2,note_on,43,65,0
2,note_on,43,0,240
2,note_on,40,62,0
2,note_on,40,0,240
2,note_on,38,72,0
2,note_on,38,0,240
2,note_on,42,51,0
2,note_on,42,0,240
2,note_on,44,58,0
2,note_on,44,0,240
2,note_on,45,48,0
2,note_on,45,0,240
2,note_on,47,55,0
2,note_on,47,0,240
2,note_on,49,47,0
2,note_on,49,0,240
2,note_on,50,64,0
2,note_on,40,64,0
2,note_on,40,0,240
2,note_on,50,0,0
2,note_on,49,49,0
2,note_on,49,0,240
2,note_on,50,55,0
2,note_on,50,0,240
2,note_on,47,48,0
2,note_on,47,0,240
2,note_on,52,54,0
2,note_on,52,0,240
2,note_on,50,41,0
2,note_on,50,0,240
2,note_on,49,60,0
2,note_on,45,60,0
2,note_on,45,0,240
2,note_on,49,0,0
2,note_on,52,54,0
2,note_on,52,0,240
2,note_on,50,54,0
2,note_on,50,0,240
2,note_on,49,54,0
2,note_on,49,0,240
2,note_on,47,54,0
2,note_on,47,0,240
2,note_on,45,51,0
2,note_on,45,0,240
2,note_on,44,55,0
2,note_on,44,0,240
2,note_on,45,55,0
2,note_on,45,0,240
2,note_on,43,57,0
2,note_on,43,0,240
2,note_on,45,60,0
2,note_on,45,0,240
2,note_on,42,61,0
2,note_on,42,0,240
2,note_on,46,65,0
2,note_on,46,0,240
2,note_on,38,75,0
2,note_on,38,0,240
2,note_on,42,53,0
2,note_on,42,0,240
2,note_on,44,66,0
2,note_on,44,0,240
2,note_on,45,50,0
2,note_on,45,0,240
2,note_on,47,63,0
2,note_on,47,0,240
2,note_on,49,49,0
2,note_on,49,0,240
2,note_on,50,67,0
2,note_on,50,0,240
2,note_on,40,51,0
2,note_on,40,0,240
2,note_on,52,57,0
2,note_on,52,0,240
2,note_on,40,50,0
2,note_on,40,0,240
2,note_on,50,56,0
2,note_on,50,0,240
2,note_on,40,43,0
2,note_on,40,0,240
2,note_on,45,63,0
2,note_on,49,48,240
2,note_on,49,0,240
2,note_on,50,50,0
2,note_on,50,0,240
2,note_on,52,46,0
2,note_on,52,0,240
2,note_on,54,47,0
2,note_on,54,0,240
2,note_on,50,45,0
2,note_on,50,0,240
2,note_on,52,45,0
2,note_on,52,0,240
2,note_on,45,0,0
2,note_on,54,41,0
2,note_on,54,0,240
2,note_on,56,43,0
2,note_on,56,0,240
2,note_on,52,41,0
2,note_on,52,0,240
2,note_on,54,42,0
2,note_on,54,0,240
2,note_on,56,37,0
2,note_on,56,0,240
2,note_on,57,42,0
2,note_on,57,0,240
2,note_on,66,38,240
2,note_on,66,0,180
2,note_on,64,32,300
2,note_on,64,0,180
2,note_on,63,38,300
2,note_on,63,0,180
2,note_on,62,38,780
2,note_on,62,0,240
2,note_on,57,63,240
2,note_on,61,48,240
2,note_on,61,0,240
2,note_on,62,50,0
2,note_on,62,0,240
2,note_on,64,46,0
2,note_on,64,0,240
2,note_on,66,47,0
2,note_on,66,0,240
2,note_on,62,45,0
2,note_on,62,0,240
2,note_on,64,45,0
2,note_on,64,0,240
2,note_on,57,0,0
2,note_on,66,41,0
2,note_on,66,0,240
2,note_on,68,43,0
2,note_on,68,0,240
2,note_on,64,41,0
2,note_on,64,0,240
2,note_on,66,42,0
2,note_on,66,0,240
2,note_on,68,37,0
2,note_on,68,0,240
2,note_on,69,56,0
2,note_on,64,54,480
2,note_on,68,64,0
2,note_on,68,0,480
2,note_on,64,0,0
2,note_on,66,61,0
2,note_on,62,51,0
2,note_on,62,0,480
2,note_on,66,0,0
2,note_on,61,48,0
2,note_on,64,57,0
2,note_on,69,0,240
2,note_on,64,0,240
2,note_on,61,0,0
2,note_on,60,47,0
2,note_on,63,56,0
2,note_on,63,0,480
2,note_on,60,0,0
2,note_on,59,47,0
2,note_on,62,56,0
2,note_on,62,0,480
2,note_on,59,0,0
2,note_on,57,47,0
2,note_on,61,56,0
2,note_on,61,0,480
2,note_on,57,0,0
2,note_on,56,57,0
2,note_on,52,48,0
2,note_on,52,0,480
2,note_on,56,0,0
2,note_on,50,44,0
2,note_on,54,53,0
2,note_on,54,0,480
2,note_on,50,0,0
2,note_on,52,48,0
2,note_on,49,40,0
2,note_on,49,0,480
2,note_on,52,0,0
2,note_on,48,39,0
2,note_on,51,46,0
2,note_on,51,0,480
2,note_on,48,0,0
2,note_on,47,37,0
2,note_on,50,44,0
2,note_on,50,0,480
2,note_on,47,0,0
2,note_on,45,39,0
2,note_on,49,43,0
2,note_on,49,0,1440
2,note_on,45,0,0
2,note_on,52,50,960
2,note_on,52,0,240
2,note_on,48,42,0
2,note_on,48,0,240
2,note_on,33,48,0
2,note_on,33,0,960
2,note_on,33,40,480
2,note_on,45,48,0
2,note_on,45,0,960
2,note_on,33,0,0
2,note_on,53,60,480
2,note_on,48,50,0
2,note_on,45,50,0
2,note_on,53,0,960
2,note_on,52,48,0
2,note_on,52,0,480
2,note_on,51,54,0
2,note_on,45,0,720
2,note_on,48,0,0
2,note_on,51,0,240
2,note_on,48,39,0
2,note_on,45,33,0
2,note_on,45,0,480
2,note_on,48,0,0
2,note_on,32,35,240
2,note_on,32,0,240
2,note_on,47,42,0
2,note_on,47,0,240
2,note_on,43,36,960
2,note_on,43,0,240
2,note_on,59,39,0
2,note_on,59,0,240
2,note_on,54,36,960
2,note_on,54,0,240
2,note_on,67,39,0
2,note_on,67,0,240
2,note_on,35,44,2160
2,note_on,47,48,0
2,note_on,47,0,960
2,note_on,35,0,0
2,note_on,47,40,480
2,note_on,59,48,0
2,note_on,59,0,960
2,note_on,47,0,0
2,note_on,67,60,480
2,note_on,62,50,0
2,note_on,59,50,0
2,note_on,67,0,960
2,note_on,66,48,0
2,note_on,66,0,480
2,note_on,65,54,0
2,note_on,59,0,720
2,note_on,62,0,0
2,note_on,65,0,240
2,note_on,62,39,0
2,note_on,59,33,0
2,note_on,59,0,480
2,note_on,62,0,0
2,note_on,46,35,240
2,note_on,46,0,240
2,note_on,61,42,0
2,note_on,61,0,240
2,note_on,57,36,960
2,note_on,57,0,240
2,note_on,73,39,0
2,note_on,73,0,240
2,note_on,68,36,960
2,note_on,68,0,240
2,note_on,81,39,0
2,note_on,81,0,240
2,note_on,41,35,2400
2,note_on,41,0,240
2,note_on,56,42,0
2,note_on,56,0,240
2,note_on,52,40,960
2,note_on,52,0,240
2,note_on,66,44,0
2,note_on,66,0,240
2,note_on,39,40,960
2,note_on,39,0,240
2,note_on,54,49,0
2,note_on,54,0,240
2,note_on,50,43,960
2,note_on,50,0,240
2,note_on,64,47,0
2,note_on,64,0,240
2,note_on,37,43,960
2,note_on,37,0,240
2,note_on,52,52,0
2,note_on,52,0,240
2,note_on,49,46,960
2,note_on,49,0,240
2,note_on,63,51,0
2,note_on,63,0,240
2,note_on,36,46,960
2,note_on,36,0,240
2,note_on,51,56,0
2,note_on,51,0,240
2,note_on,47,49,960
2,note_on,47,0,240
2,note_on,61,54,0
2,note_on,61,0,240
2,note_on,57,50,960
2,note_on,57,0,240
2,note_on,61,60,0
2,note_on,61,0,240
2,note_on,56,59,240
2,note_on,56,0,480
2,note_on,54,52,240
2,note_on,54,0,240
2,note_on,61,57,0
2,note_on,61,0,240
2,note_on,53,61,240
2,note_on,53,0,480
2,note_on,57,53,240
2,note_on,57,0,240
2,note_on,61,63,0
2,note_on,61,0,240
2,note_on,56,63,240
2,note_on,56,0,480
2,note_on,54,56,240
2,note_on,54,0,240
2,note_on,61,61,0
2,note_on,61,0,240
2,note_on,53,64,240
2,note_on,53,0,480
2,note_on,50,56,240
2,note_on,50,0,240
2,note_on,54,67,0
2,note_on,54,0,240
2,note_on,49,65,240
2,note_on,55,65,0
2,note_on,55,0,480
2,note_on,49,0,0
2,note_on,50,57,240
2,note_on,50,0,240
2,note_on,54,62,0
2,note_on,54,0,240
2,note_on,49,65,240
2,note_on,55,65,0
2,note_on,55,0,480
2,note_on,49,0,0
2,note_on,54,56,0
2,note_on,50,56,0
2,note_on,50,0,240
2,note_on,54,0,0
2,note_on,49,66,240
2,note_on,55,66,0
2,note_on,55,0,480
2,note_on,49,0,0
2,note_on,50,58,0
2,note_on,54,58,0
2,note_on,54,0,240
2,note_on,50,0,0
2,note_on,49,69,240
2,note_on,55,69,0
2,note_on,55,0,480
2,note_on,49,0,0
2,note_on,50,61,0
2,note_on,54,61,0
2,note_on,54,0,240
2,note_on,50,0,0
2,note_on,49,72,240
2,note_on,55,72,0
2,note_on,55,0,480
2,note_on,49,0,0
2,note_on,50,74,0
2,note_on,54,74,0
2,note_on,50,0,1440
2,note_on,49,74,0
2,note_on,57,74,0
2,note_on,57,0,480
2,note_on,49,0,0
2,note_on,54,0,0
2,note_on,50,74,960
2,note_on,54,74,0
2,note_on,50,0,1440
2,note_on,49,74,0
2,note_on,57,74,0
2,note_on,57,0,480
2,note_on,49,0,0
2,note_on,54,0,0
2,note_on,62,74,960
2,note_on,62,0,2880
2,note_on,55,40,0
2,note_on,55,0,1440
2,note_on,52,38,0
2,note_on,52,0,1440
2,note_on,45,37,0
2,note_on,45,0,1440
2,note_on,42,35,0
2,note_on,42,0,1440
2,note_on,35,34,0
2,note_on,35,0,1440
2,note_on,37,34,0
2,note_on,37,0,1440
2,note_on,39,34,0
2,note_on,39,0,1440
2,note_on,41,34,0
2,note_on,41,0,1440
2,note_on,42,34,0
2,note_on,42,0,1440
2,note_on,36,34,0
2,note_on,36,0,1440
2,note_on,37,63,0
2,note_on,37,0,1440
2,note_on,41,60,0
2,note_on,41,0,480
2,note_on,44,56,0
2,note_on,44,0,480
2,note_on,47,51,0
2,note_on,47,0,410
2,note_on,47,56,10
2,note_on,47,0,60
2,note_on,37,69,0
2,note_on,45,69,0
2,note_on,45,0,480
2,note_on,44,64,0
2,note_on,44,0,480
2,note_on,42,54,0
2,note_on,42,0,480
2,note_on,37,0,0
2,note_on,45,64,0
2,note_on,45,0,480
2,note_on,44,59,0
2,note_on,44,0,480
2,note_on,42,59,0
2,note_on,42,0,480
2,note_on,37,59,0
2,note_on,49,63,0
2,note_on,37,0,960
2,note_on,49,0,480
2,note_on,50,60,0
2,note_on,50,0,480
2,note_on,49,56,0
2,note_on,49,0,480
2,note_on,47,51,0
2,note_on,47,0,410
2,note_on,47,56,10
2,note_on,47,0,60
2,note_on,45,69,0
2,note_on,45,0,480
2,note_on,44,64,0
2,note_on,44,0,480
2,note_on,42,54,0
2,note_on,42,0,480
2,note_on,45,64,0
2,note_on,45,0,480
2,note_on,44,59,0
2,note_on,44,0,480
2,note_on,42,59,0
2,note_on,42,0,480
2,note_on,37,59,0
2,note_on,44,63,0
2,note_on,44,0,1920
2,note_on,37,0,0
2,note_on,49,59,480
2,note_on,49,0,480
2,note_on,54,64,0
2,note_on,46,64,0
2,note_on,46,0,960
2,note_on,51,58,480
2,note_on,54,0,480
2,note_on,53,62,0
2,note_on,53,0,480
2,note_on,51,0,0
2,note_on,54,70,0
2,note_on,54,0,480
2,note_on,56,72,0
2,note_on,49,72,0
2,note_on,49,0,960
2,note_on,56,0,480
2,note_on,54,54,0
2,note_on,58,54,0
2,note_on,54,0,960
2,note_on,58,0,480
2,note_on,47,73,0
2,note_on,61,73,0
2,note_on,61,0,480
2,note_on,59,62,0
2,note_on,59,0,480
2,note_on,47,0,0
2,note_on,58,54,0
2,note_on,58,0,480
2,note_on,49,66,0
2,note_on,56,66,0
2,note_on,56,0,480
2,note_on,58,49,0
2,note_on,58,0,480
2,note_on,49,0,0
2,note_on,56,41,0
2,note_on,56,0,480
2,note_on,54,50,0
2,note_on,54,34,1920
2,note_on,54,0,240
2,note_on,49,31,0
2,note_on,49,0,240
2,note_on,54,0,0
2,note_on,46,31,0
2,note_on,46,0,240
2,note_on,42,26,0
2,note_on,42,0,240
2,note_on,39,42,0
2,note_on,39,0,240
2,note_on,51,31,0
2,note_on,51,0,240
2,note_on,54,37,0
2,note_on,54,0,240
2,note_on,58,31,0
2,note_on,58,0,240
2,note_on,54,37,0
2,note_on,54,0,240
2,note_on,51,31,0
2,note_on,51,0,240
2,note_on,39,40,0
2,note_on,39,0,240
2,note_on,51,31,0
2,note_on,51,0,240
2,note_on,54,49,0
2,note_on,54,0,240
2,note_on,56,39,0
2,note_on,56,0,240
2,note_on,54,50,0
2,note_on,54,0,240
2,note_on,51,47,0
2,note_on,51,0,240
2,note_on,37,61,0
2,note_on,37,0,240
2,note_on,51,45,0
2,note_on,51,0,240
2,note_on,49,44,0
2,note_on,49,0,240
2,note_on,47,38,0
2,note_on,47,0,240
2,note_on,46,50,0
2,note_on,46,0,240
2,note_on,44,31,0
2,note_on,44,0,240
2,note_on,42,49,0
2,note_on,42,0,240
2,note_on,49,31,0
2,note_on,49,0,240
2,note_on,52,39,0
2,note_on,52,0,240
2,note_on,54,31,0
2,note_on,54,0,240
2,note_on,52,38,0
2,note_on,52,0,240
2,note_on,49,31,0
2,note_on,49,0,240
2,note_on,47,52,0
2,note_on,47,0,240
2,note_on,51,31,0
2,note_on,51,0,240
2,note_on,56,45,0
2,note_on,56,0,240
2,note_on,51,31,0
2,note_on,51,0,240
2,note_on,58,46,0
2,note_on,58,0,240
2,note_on,51,33,0
2,note_on,51,0,240
2,note_on,59,55,0
2,note_on,59,0,240
2,note_on,49,48,0
2,note_on,49,0,240
2,note_on,61,43,0
2,note_on,61,0,240
2,note_on,49,37,0
2,note_on,49,0,240
2,note_on,59,45,0
2,note_on,59,0,240
2,note_on,49,40,0
2,note_on,49,0,240
2,note_on,42,46,0
2,note_on,42,0,240
2,note_on,54,39,0
2,note_on,54,0,240
2,note_on,58,43,0
2,note_on,58,0,240
2,note_on,54,37,0
2,note_on,54,0,240
2,note_on,58,48,0
2,note_on,58,0,240
2,note_on,54,40,0
2,note_on,54,0,240
2,note_on,59,56,0
2,note_on,59,0,240
2,note_on,54,46,0
2,note_on,54,0,240
2,note_on,59,58,0
2,note_on,59,0,240
2,note_on,54,48,0
2,note_on,54,0,240
2,note_on,61,67,0
2,note_on,61,0,240
2,note_on,54,56,0
2,note_on,54,0,240
2,note_on,47,65,0
2,note_on,55,72,0
2,note_on,55,0,240
2,note_on,51,51,0
2,note_on,51,0,240
2,note_on,56,58,0
2,note_on,56,0,240
2,note_on,51,48,0
2,note_on,51,0,240
2,note_on,58,55,0
2,note_on,58,0,240
2,note_on,51,47,0
2,note_on,51,0,240
2,note_on,47,0,0
2,note_on,59,64,0
2,note_on,59,0,240
2,note_on,49,49,0
2,note_on,49,0,240
2,note_on,61,55,0
2,note_on,61,0,240
2,note_on,49,48,0
2,note_on,49,0,240
2,note_on,59,54,0
2,note_on,59,0,240
2,note_on,49,41,0
2,note_on,49,0,240
2,note_on,54,54,240
2,note_on,54,0,240
2,note_on,53,54,0
2,note_on,53,0,240
2,note_on,54,54,0
2,note_on,54,0,240
2,note_on,58,54,0
2,note_on,58,0,240
2,note_on,54,51,0
2,note_on,54,0,240
2,note_on,53,55,0
2,note_on,53,0,240
2,note_on,54,55,0
2,note_on,54,0,240
2,note_on,53,57,0
2,note_on,53,0,240
2,note_on,54,60,0
2,note_on,54,0,240
2,note_on,52,61,0
2,note_on,52,0,240
2,note_on,54,65,0
2,note_on,54,0,240
2,note_on,51,75,0
2,note_on,51,0,240
2,note_on,54,53,0
2,note_on,54,0,240
2,note_on,59,60,0
2,note_on,59,0,240
2,note_on,54,50,0
2,note_on,54,0,240
2,note_on,49,57,0
2,note_on,49,0,240
2,note_on,54,49,0
2,note_on,54,0,240
2,note_on,48,63,0
2,note_on,48,0,240
2,note_on,54,47,0
2,note_on,54,0,240
2,note_on,56,52,0
2,note_on,56,0,240
2,note_on,54,45,0
2,note_on,54,0,240
2,note_on,48,49,0
2,note_on,48,0,240
2,note_on,54,37,0
2,note_on,54,0,240
2,note_on,49,63,0
2,note_on,49,0,240
2,note_on,56,44,0
2,note_on,56,0,240
2,note_on,59,49,0
2,note_on,59,0,240
2,note_on,56,40,0
2,note_on,56,0,240
2,note_on,51,45,0
2,note_on,59,45,0
2,note_on,59,0,240
2,note_on,51,0,0
2,note_on,56,37,0
2,note_on,56,0,240
2,note_on,53,42,0
2,note_on,59,50,0
2,note_on,59,0,240
2,note_on,53,0,0
2,note_on,56,38,0
2,note_on,56,0,240
2,note_on,51,42,0
2,note_on,59,42,0
2,note_on,59,0,240
2,note_on,51,0,0
2,note_on,56,37,0
2,note_on,56,0,240
2,note_on,53,42,0
2,note_on,59,42,0
2,note_on,59,0,240
2,note_on,53,0,0
2,note_on,56,32,0
2,note_on,56,0,240
2,note_on,58,50,0
2,note_on,58,0,240
2,note_on,54,38,0
2,note_on,54,0,240
2,note_on,59,42,0
2,note_on,59,0,240
2,note_on,54,37,0
2,note_on,54,0,240
2,note_on,61,42,0
2,note_on,61,0,240
2,note_on,54,32,0
2,note_on,54,0,240
2,note_on,47,45,0
2,note_on,47,0,240
2,note_on,51,33,0
2,note_on,51,0,240
2,note_on,56,43,0
2,note_on,56,0,240
2,note_on,59,32,0
2,note_on,59,0,240
2,note_on,56,41,0
2,note_on,56,0,240
2,note_on,51,32,0
2,note_on,51,0,240
2,note_on,49,50,0
2,note_on,58,50,0
2,note_on,58,0,240
2,note_on,49,0,1200
2,note_on,59,41,0
2,note_on,59,0,240
2,note_on,56,35,0
2,note_on,56,0,240
2,note_on,53,41,0
2,note_on,53,0,240
2,note_on,49,38,0
2,note_on,49,0,240
2,note_on,47,41,0
2,note_on,47,0,240
2,note_on,44,37,0
2,note_on,44,0,240
2,note_on,42,53,0
2,note_on,42,0,240
2,note_on,41,40,0
2,note_on,41,0,240
2,note_on,42,42,0
2,note_on,42,0,240
2,note_on,44,39,0
2,note_on,44,0,240
2,note_on,46,39,0
2,note_on,46,0,240
2,note_on,47,38,0
2,note_on,47,0,240
2,note_on,49,38,0
2,note_on,49,0,240
2,note_on,48,34,0
2,note_on,48,0,240
2,note_on,49,36,0
2,note_on,49,0,240
2,note_on,51,34,0
2,note_on,51,0,240
2,note_on,52,35,0
2,note_on,52,0,240
2,note_on,53,31,0
2,note_on,53,0,240
2,note_on,54,35,0
2,note_on,63,38,480
2,note_on,63,0,180
2,note_on,61,32,300
2,note_on,61,0,180
2,note_on,54,0,300
2,note_on,49,35,0
2,note_on,60,38,0
2,note_on,60,0,180
2,note_on,59,38,780
2,note_on,59,0,240
2,note_on,49,0,240
2,note_on,54,51,0
2,note_on,58,51,0
2,note_on,58,0,240
2,note_on,54,0,0
2,note_on,53,43,0
2,note_on,53,0,240
2,note_on,54,45,0
2,note_on,54,0,240
2,note_on,56,41,0
2,note_on,56,0,240
2,note_on,58,42,0
2,note_on,58,0,240
2,note_on,59,40,0
2,note_on,59,0,240
2,note_on,61,40,0
2,note_on,61,0,240
2,note_on,60,36,0
2,note_on,60,0,240
2,note_on,61,38,0
2,note_on,61,0,240
2,note_on,63,36,0
2,note_on,63,0,240
2,note_on,64,37,0
2,note_on,64,0,240
2,note_on,65,33,0
2,note_on,65,0,240
2,note_on,66,44,0
2,note_on,66,0,480
2,note_on,61,43,0
2,note_on,65,51,0
2,note_on,65,0,480
2,note_on,61,0,0
2,note_on,59,40,0
2,note_on,63,48,0
2,note_on,63,0,480
2,note_on,59,0,0
2,note_on,58,38,0
2,note_on,61,45,0
2,note_on,61,0,480
2,note_on,58,0,0
2,note_on,57,37,0
2,note_on,60,44,0
2,note_on,60,0,480
2,note_on,57,0,0
2,note_on,56,37,0
2,note_on,59,44,0
2,note_on,59,0,480
2,note_on,56,0,0
2,note_on,54,37,0
2,note_on,58,44,0
2,note_on,58,0,480
2,note_on,54,0,0
2,note_on,49,37,0
2,note_on,53,44,0
2,note_on,53,0,480
2,note_on,49,0,0
2,note_on,47,33,0
2,note_on,51,39,0
2,note_on,51,0,480
2,note_on,47,0,0
2,note_on,46,29,0
2,note_on,49,35,0
2,note_on,49,0,480
2,note_on,46,0,0
2,note_on,45,27,0
2,note_on,48,32,0
2,note_on,48,0,480
2,note_on,45,0,0
2,note_on,44,25,0
2,note_on,47,30,0
2,note_on,47,0,480
2,note_on,44,0,0
2,note_on,42,26,0
2,note_on,46,28,0
2,note_on,49,26,2880
2,note_on,49,0,3360
2,note_on,46,0,0
2,note_on,42,0,0
2,note_on,58,33,480
2,note_on,58,0,240
2,note_on,54,29,0
2,note_on,54,0,240
2,note_on,49,33,0
2,note_on,49,0,240
2,note_on,42,21,2640
2,note_on,49,25,0
2,note_on,49,0,480
2,note_on,42,0,0
2,note_on,54,21,960
2,note_on,61,25,0
2,note_on,61,0,480
2,note_on,54,0,0
