Track,Message Type,Note,Velocity,Time
1,note_on,66,50,1200
1,note_on,66,0,120
1,note_on,66,56,120
1,note_on,66,0,240
1,note_on,68,58,0
1,note_on,68,0,60
1,note_on,70,59,60
1,note_on,70,0,60
1,note_on,71,63,60
1,note_on,71,0,60
1,note_on,73,66,60
1,note_on,73,0,60
1,note_on,74,74,60
1,note_on,74,0,240
1,note_on,70,63,0
1,note_on,70,0,240
1,note_on,71,64,0
1,note_on,71,0,240
1,note_on,76,76,0
1,note_on,76,0,240
1,note_on,70,66,0
1,note_on,70,0,240
1,note_on,71,71,0
1,note_on,71,0,240
1,note_on,73,81,0
1,note_on,73,0,480
1,note_on,79,85,0
1,note_on,79,0,240
1,note_on,78,93,0
1,note_on,78,0,360
1,note_on,76,81,0
1,note_on,76,0,60
1,note_on,74,86,60
1,note_on,74,0,60
1,note_on,73,86,60
1,note_on,73,0,60
1,note_on,76,92,60
1,note_on,76,0,360
1,note_on,74,75,0
1,note_on,74,0,60
1,note_on,73,75,60
1,note_on,73,0,60
1,note_on,71,84,60
1,note_on,71,0,60
1,note_on,69,90,60
1,note_on,69,0,360
1,note_on,68,68,0
1,note_on,68,0,60
1,note_on,66,66,60
1,note_on,66,0,60
1,note_on,65,72,60
1,note_on,65,0,60
1,note_on,65,78,60
1,note_on,65,0,240
1,note_on,66,64,0
1,note_on,66,0,210
1,note_on,66,61,30
1,note_on,66,0,120
1,note_on,66,56,120
1,note_on,66,0,240
1,note_on,68,58,0
1,note_on,68,0,60
1,note_on,70,59,60
1,note_on,70,0,60
1,note_on,71,63,60
1,note_on,71,0,60
1,note_on,73,66,60
1,note_on,73,0,60
1,note_on,74,74,60
1,note_on,74,0,240
1,note_on,70,63,0
1,note_on,70,0,240
1,note_on,71,65,0
1,note_on,71,0,240
1,note_on,77,78,0
1,note_on,77,0,240
1,note_on,72,67,0
1,note_on,72,0,240
1,note_on,73,73,0
1,note_on,73,0,240
1,note_on,78,86,0
1,note_on,78,0,480
1,note_on,78,85,0
1,note_on,78,0,240
1,note_on,76,93,0
1,note_on,76,0,360
1,note_on,74,81,0
1,note_on,74,0,60
1,note_on,73,86,60
1,note_on,73,0,60
1,note_on,74,86,60
1,note_on,74,0,60
1,note_on,73,81,60
1,note_on,73,0,480
1,note_on,78,85,0
1,note_on,78,0,240
1,note_on,76,93,0
1,note_on,76,0,360
1,note_on,74,81,0
1,note_on,74,0,60
1,note_on,73,86,60
1,note_on,73,0,60
1,note_on,74,86,60
1,note_on,74,0,60
1,note_on,73,93,60
1,note_on,73,0,360
1,note_on,66,51,0
1,note_on,66,0,60
1,note_on,65,53,60
1,note_on,65,0,60
1,note_on,66,56,60
1,note_on,66,0,60
1,note_on,68,58,60
1,note_on,66,49,0
1,note_on,62,49,0
1,note_on,62,0,360
1,note_on,66,0,0
1,note_on,68,0,0
1,note_on,68,56,0
1,note_on,68,0,60
1,note_on,66,59,60
1,note_on,66,0,60
1,note_on,68,62,60
1,note_on,68,0,60
1,note_on,66,56,60
1,note_on,69,66,0
1,note_on,69,0,300
1,note_on,66,0,0
1,note_on,71,61,40
1,note_on,71,0,20
1,note_on,69,61,0
1,note_on,69,0,60
1,note_on,68,62,60
1,note_on,68,0,60
1,note_on,69,66,60
1,note_on,69,0,60
1,note_on,71,72,60
1,note_on,66,61,0
1,note_on,66,0,360
1,note_on,71,0,0
1,note_on,71,63,0
1,note_on,71,0,60
1,note_on,69,67,60
1,note_on,69,0,60
1,note_on,71,68,60
1,note_on,71,0,60
1,note_on,73,73,60
1,note_on,69,62,0
1,note_on,66,62,0
1,note_on,66,0,300
1,note_on,69,0,0
1,note_on,73,0,0
1,note_on,74,68,40
1,note_on,74,0,20
1,note_on,73,68,0
1,note_on,73,0,60
1,note_on,72,70,60
1,note_on,72,0,60
1,note_on,73,73,60
1,note_on,73,0,60
1,note_on,68,69,60
1,note_on,73,69,0
1,note_on,77,82,0
1,note_on,77,0,360
1,note_on,73,0,0
1,note_on,68,0,0
1,note_on,77,73,0
1,note_on,77,0,60
1,note_on,75,78,60
1,note_on,75,0,60
1,note_on,77,83,60
1,note_on,77,0,60
1,note_on,78,93,60
1,note_on,78,0,960
1,note_on,76,87,0
1,note_on,76,0,240
1,note_on,74,90,0
1,note_on,74,0,210
1,note_on,74,98,30
1,note_on,74,0,240
1,note_on,71,87,0
1,note_on,71,0,240
1,note_on,67,77,0
1,note_on,67,0,240
1,note_on,64,78,0
1,note_on,64,0,480
1,note_on,69,78,0
1,note_on,69,0,240
1,note_on,66,78,0
1,note_on,66,0,360
1,note_on,66,82,0
1,note_on,66,0,60
1,note_on,69,85,60
1,note_on,69,0,60
1,note_on,74,91,60
1,note_on,74,0,60
1,note_on,78,93,60
1,note_on,78,0,240
1,note_on,76,87,0
1,note_on,76,0,240
1,note_on,74,90,0
1,note_on,74,0,210
1,note_on,74,98,30
1,note_on,74,0,240
1,note_on,71,81,0
1,note_on,71,0,240
1,note_on,67,66,0
1,note_on,67,0,240
1,note_on,64,62,0
1,note_on,64,0,480
1,note_on,67,62,0
1,note_on,67,0,240
1,note_on,62,62,0
1,note_on,62,0,480
1,note_on,67,52,0
1,note_on,67,0,240
1,note_on,64,52,0
1,note_on,64,0,480
1,note_on,67,52,0
1,note_on,67,0,240
1,note_on,62,52,0
1,note_on,62,0,480
1,note_on,66,50,720
1,note_on,66,0,120
1,note_on,66,56,120
1,note_on,66,0,240
1,note_on,68,58,0
1,note_on,68,0,60
1,note_on,70,59,60
1,note_on,70,0,60
1,note_on,71,63,60
1,note_on,71,0,60
1,note_on,73,66,60
1,note_on,73,0,60
1,note_on,74,74,60
1,note_on,74,0,240
1,note_on,70,63,0
1,note_on,70,0,240
1,note_on,71,64,0
1,note_on,71,0,240
1,note_on,76,76,0
1,note_on,76,0,240
1,note_on,70,66,0
1,note_on,70,0,240
1,note_on,71,71,0
1,note_on,71,0,240
1,note_on,73,81,0
1,note_on,73,0,480
1,note_on,79,85,0
1,note_on,79,0,240
1,note_on,78,93,0
1,note_on,78,0,360
1,note_on,76,81,0
1,note_on,76,0,60
1,note_on,74,86,60
1,note_on,74,0,60
1,note_on,73,86,60
1,note_on,73,0,60
1,note_on,76,92,60
1,note_on,76,0,360
1,note_on,74,75,0
1,note_on,74,0,60
1,note_on,73,75,60
1,note_on,73,0,60
1,note_on,71,84,60
1,note_on,71,0,60
1,note_on,69,90,60
1,note_on,69,0,360
1,note_on,68,68,0
1,note_on,68,0,60
1,note_on,66,66,60
1,note_on,66,0,60
1,note_on,65,72,60
1,note_on,65,0,60
1,note_on,65,78,60
1,note_on,65,0,240
1,note_on,66,64,0
1,note_on,66,0,210
1,note_on,66,61,30
1,note_on,66,0,120
1,note_on,66,56,120
1,note_on,66,0,240
1,note_on,68,58,0
1,note_on,68,0,60
1,note_on,70,59,60
1,note_on,70,0,60
1,note_on,71,63,60
1,note_on,71,0,60
1,note_on,73,66,60
1,note_on,73,0,60
1,note_on,74,74,60
1,note_on,74,0,240
1,note_on,70,63,0
1,note_on,70,0,240
1,note_on,71,65,0
1,note_on,71,0,240
1,note_on,77,78,0
1,note_on,77,0,240
1,note_on,72,67,0
1,note_on,72,0,240
1,note_on,73,73,0
1,note_on,73,0,240
1,note_on,78,86,0
1,note_on,78,0,480
1,note_on,78,85,0
1,note_on,78,0,240
1,note_on,76,93,0
1,note_on,76,0,360
1,note_on,74,81,0
1,note_on,74,0,60
1,note_on,73,86,60
1,note_on,73,0,60
1,note_on,74,86,60
1,note_on,74,0,60
1,note_on,73,81,60
1,note_on,73,0,480
1,note_on,78,85,0
1,note_on,78,0,240
1,note_on,76,93,0
1,note_on,76,0,360
1,note_on,74,81,0
1,note_on,74,0,60
1,note_on,73,86,60
1,note_on,73,0,60
1,note_on,74,86,60
1,note_on,74,0,60
1,note_on,73,93,60
1,note_on,73,0,360
1,note_on,66,51,0
1,note_on,66,0,60
1,note_on,65,53,60
1,note_on,65,0,60
1,note_on,66,56,60
1,note_on,66,0,60
1,note_on,68,58,60
1,note_on,66,49,0
1,note_on,62,49,0
1,note_on,62,0,360
1,note_on,66,0,0
1,note_on,68,0,0
1,note_on,68,56,0
1,note_on,68,0,60
1,note_on,66,59,60
1,note_on,66,0,60
1,note_on,68,62,60
1,note_on,68,0,60
1,note_on,66,56,60
1,note_on,69,66,0
1,note_on,69,0,300
1,note_on,66,0,0
1,note_on,71,61,40
1,note_on,71,0,20
1,note_on,69,61,0
1,note_on,69,0,60
1,note_on,68,62,60
1,note_on,68,0,60
1,note_on,69,66,60
1,note_on,69,0,60
1,note_on,71,72,60
1,note_on,66,61,0
1,note_on,66,0,360
1,note_on,71,0,0
1,note_on,71,63,0
1,note_on,71,0,60
1,note_on,69,67,60
1,note_on,69,0,60
1,note_on,71,68,60
1,note_on,71,0,60
1,note_on,73,73,60
1,note_on,69,62,0
1,note_on,66,62,0
1,note_on,66,0,300
1,note_on,69,0,0
1,note_on,73,0,0
1,note_on,74,68,40
1,note_on,74,0,20
1,note_on,73,68,0
1,note_on,73,0,60
1,note_on,72,70,60
1,note_on,72,0,60
1,note_on,73,73,60
1,note_on,73,0,60
1,note_on,68,69,60
1,note_on,73,69,0
1,note_on,77,82,0
1,note_on,77,0,360
1,note_on,73,0,0
1,note_on,68,0,0
1,note_on,77,73,0
1,note_on,77,0,60
1,note_on,75,78,60
1,note_on,75,0,60
1,note_on,77,83,60
1,note_on,77,0,60
1,note_on,78,93,60
1,note_on,78,0,960
1,note_on,76,87,0
1,note_on,76,0,240
1,note_on,74,90,0
1,note_on,74,0,210
1,note_on,74,98,30
1,note_on,74,0,240
1,note_on,71,87,0
1,note_on,71,0,240
1,note_on,67,77,0
1,note_on,67,0,240
1,note_on,64,78,0
1,note_on,64,0,480
1,note_on,69,78,0
1,note_on,69,0,240
1,note_on,66,78,0
1,note_on,66,0,360
1,note_on,66,82,0
1,note_on,66,0,60
1,note_on,69,85,60
1,note_on,69,0,60
1,note_on,74,91,60
1,note_on,74,0,60
1,note_on,78,93,60
1,note_on,78,0,240
1,note_on,76,87,0
1,note_on,76,0,240
1,note_on,74,90,0
1,note_on,74,0,210
1,note_on,74,98,30
1,note_on,74,0,240
1,note_on,71,81,0
1,note_on,71,0,240
1,note_on,67,66,0
1,note_on,67,0,240
1,note_on,64,62,0
1,note_on,64,0,480
1,note_on,67,62,0
1,note_on,67,0,240
1,note_on,62,62,0
1,note_on,62,0,480
1,note_on,67,52,0
1,note_on,67,0,240
1,note_on,64,52,0
1,note_on,64,0,480
1,note_on,67,52,0
1,note_on,67,0,240
1,note_on,62,52,0
1,note_on,62,0,480
1,note_on,67,52,0
1,note_on,67,0,240
1,note_on,63,52,0
1,note_on,63,0,480
1,note_on,67,52,0
1,note_on,67,0,240
1,note_on,64,57,0
1,note_on,64,0,480
1,note_on,68,64,0
1,note_on,68,0,240
1,note_on,71,77,0
1,note_on,71,0,240
1,note_on,68,72,0
1,note_on,68,0,240
1,note_on,64,74,0
1,note_on,64,0,240
1,note_on,64,72,0
1,note_on,64,0,480
1,note_on,69,52,0
1,note_on,69,0,240
1,note_on,65,62,0
1,note_on,65,0,480
1,note_on,69,65,0
1,note_on,69,0,240
1,note_on,66,73,0
1,note_on,66,0,480
1,note_on,70,72,0
1,note_on,70,0,240
1,note_on,73,83,0
1,note_on,73,0,240
1,note_on,70,75,0
1,note_on,70,0,240
1,note_on,66,74,0
1,note_on,66,0,230
1,note_on,66,70,10
1,note_on,66,0,480
1,note_on,71,70,0
1,note_on,71,0,230
1,note_on,71,70,10
1,note_on,71,0,470
1,note_on,71,70,10
1,note_on,71,0,230
1,note_on,71,79,10
1,note_on,71,0,240
1,note_on,73,76,0
1,note_on,73,0,60
1,note_on,75,77,60
1,note_on,75,0,60
1,note_on,76,79,60
1,note_on,76,0,60
1,note_on,78,83,60
1,note_on,78,0,60
1,note_on,79,85,60
1,note_on,67,85,0
1,note_on,79,0,720
1,note_on,76,85,0
1,note_on,76,0,240
1,note_on,67,0,0
1,note_on,67,70,240
1,note_on,67,0,230
1,note_on,67,70,10
1,note_on,67,0,470
1,note_on,67,70,10
1,note_on,67,0,230
1,note_on,67,79,10
1,note_on,67,0,240
1,note_on,69,76,0
1,note_on,69,0,60
1,note_on,71,77,60
1,note_on,71,0,60
1,note_on,72,79,60
1,note_on,72,0,60
1,note_on,74,83,60
1,note_on,74,0,60
1,note_on,76,85,60
1,note_on,64,85,0
1,note_on,76,0,720
1,note_on,72,85,0
1,note_on,72,0,240
1,note_on,64,0,0
1,note_on,72,70,240
1,note_on,72,0,230
1,note_on,71,79,10
1,note_on,71,0,240
1,note_on,73,78,0
1,note_on,73,0,60
1,note_on,75,84,60
1,note_on,75,0,60
1,note_on,76,85,60
1,note_on,76,0,60
1,note_on,78,87,60
1,note_on,78,0,60
1,note_on,79,94,60
1,note_on,79,0,240
1,note_on,76,87,0
1,note_on,76,0,240
1,note_on,72,87,0
1,note_on,72,0,240
1,note_on,79,94,0
1,note_on,79,0,240
1,note_on,76,86,0
1,note_on,76,0,240
1,note_on,71,84,0
1,note_on,71,0,240
1,note_on,79,89,0
1,note_on,79,0,240
1,note_on,76,81,0
1,note_on,76,0,240
1,note_on,70,80,0
1,note_on,70,0,240
1,note_on,78,84,0
1,note_on,78,0,240
1,note_on,74,77,0
1,note_on,74,0,240
1,note_on,71,75,0
1,note_on,71,0,240
1,note_on,74,79,0
1,note_on,74,0,240
1,note_on,71,73,0
1,note_on,71,0,240
1,note_on,67,71,0
1,note_on,67,0,240
1,note_on,71,70,0
1,note_on,71,0,240
1,note_on,67,59,0
1,note_on,67,0,240
1,note_on,62,54,0
1,note_on,62,0,240
1,note_on,67,52,0
1,note_on,67,0,240
1,note_on,62,48,0
1,note_on,62,0,240
1,note_on,59,48,0
1,note_on,59,0,240
1,note_on,62,52,0
1,note_on,62,0,240
1,note_on,59,48,0
1,note_on,59,0,240
1,note_on,53,48,0
1,note_on,53,0,240
1,note_on,54,52,0
1,note_on,54,0,180
1,note_on,70,62,60
1,note_on,58,52,0
1,note_on,58,0,60
1,note_on,70,0,0
1,note_on,71,65,60
1,note_on,59,55,0
1,note_on,59,0,60
1,note_on,71,0,0
1,note_on,73,67,60
1,note_on,61,56,0
1,note_on,61,0,60
1,note_on,73,0,0
1,note_on,74,70,60
1,note_on,62,59,0
1,note_on,62,0,60
1,note_on,74,0,0
1,note_on,64,66,60
1,note_on,76,78,0
1,note_on,76,0,720
1,note_on,64,0,0
1,note_on,66,59,120
1,note_on,78,71,0
1,note_on,78,0,60
1,note_on,66,0,0
1,note_on,82,71,60
1,note_on,70,59,0
1,note_on,70,0,60
1,note_on,82,0,0
1,note_on,83,74,60
1,note_on,71,63,0
1,note_on,71,0,60
1,note_on,83,0,0
1,note_on,85,77,60
1,note_on,73,64,0
1,note_on,73,0,60
1,note_on,85,0,0
1,note_on,86,80,60
1,note_on,74,67,0
1,note_on,74,0,60
1,note_on,86,0,0
1,note_on,76,75,60
1,note_on,88,89,0
1,note_on,88,0,810
1,note_on,76,0,0
1,note_on,66,53,30
1,note_on,66,0,120
1,note_on,70,53,0
1,note_on,70,0,120
1,note_on,71,53,0
1,note_on,71,0,120
1,note_on,73,55,0
1,note_on,73,0,120
1,note_on,74,56,0
1,note_on,74,0,120
1,note_on,76,57,0
1,note_on,76,0,110
1,note_on,66,51,10
1,note_on,66,0,120
1,note_on,70,51,0
1,note_on,70,0,120
1,note_on,71,53,0
1,note_on,71,0,120
1,note_on,73,54,0
1,note_on,73,0,120
1,note_on,74,55,0
1,note_on,74,0,120
1,note_on,76,58,0
1,note_on,76,0,110
1,note_on,70,56,10
1,note_on,70,0,120
1,note_on,73,56,0
1,note_on,73,0,120
1,note_on,74,57,0
1,note_on,74,0,120
1,note_on,76,63,0
1,note_on,76,0,120
1,note_on,78,67,0
1,note_on,78,0,120
1,note_on,79,68,0
1,note_on,79,0,110
1,note_on,70,62,10
1,note_on,70,0,120
1,note_on,73,63,0
1,note_on,73,0,120
1,note_on,74,67,0
1,note_on,74,0,120
1,note_on,76,68,0
1,note_on,76,0,120
1,note_on,78,71,0
1,note_on,78,0,120
1,note_on,79,70,0
1,note_on,79,0,120
1,note_on,78,64,0
1,note_on,78,0,120
1,note_on,76,70,0
1,note_on,76,0,120
1,note_on,74,66,0
1,note_on,74,0,120
1,note_on,73,70,0
1,note_on,73,0,120
1,note_on,74,69,0
1,note_on,74,0,120
1,note_on,76,76,0
1,note_on,76,0,120
1,note_on,74,63,0
1,note_on,74,0,120
1,note_on,73,66,0
1,note_on,73,0,120
1,note_on,71,59,0
1,note_on,71,0,120
1,note_on,70,63,0
1,note_on,70,0,120
1,note_on,71,59,0
1,note_on,71,0,120
1,note_on,73,62,0
1,note_on,73,0,120
1,note_on,70,50,0
1,note_on,70,0,120
1,note_on,67,59,0
1,note_on,67,0,120
1,note_on,66,51,0
1,note_on,66,0,120
1,note_on,64,58,0
1,note_on,64,0,120
1,note_on,66,51,0
1,note_on,66,0,120
1,note_on,67,55,0
1,note_on,67,0,120
1,note_on,64,48,0
1,note_on,64,0,120
1,note_on,61,51,0
1,note_on,61,0,120
1,note_on,59,48,0
1,note_on,59,0,120
1,note_on,58,48,0
1,note_on,66,50,0
1,note_on,58,0,120
1,note_on,59,48,0
1,note_on,66,0,60
1,note_on,59,0,60
1,note_on,66,56,0
1,note_on,66,0,240
1,note_on,68,58,0
1,note_on,68,0,60
1,note_on,70,59,60
1,note_on,70,0,60
1,note_on,71,63,60
1,note_on,71,0,60
1,note_on,73,66,60
1,note_on,73,0,60
1,note_on,74,74,60
1,note_on,74,0,240
1,note_on,70,63,0
1,note_on,70,0,240
1,note_on,71,64,0
1,note_on,71,0,240
1,note_on,76,68,0
1,note_on,76,0,240
1,note_on,70,59,0
1,note_on,70,0,240
1,note_on,71,63,0
1,note_on,71,0,240
1,note_on,73,72,0
1,note_on,73,0,480
1,note_on,66,61,0
1,note_on,66,0,180
1,note_on,66,64,60
1,note_on,66,0,240
1,note_on,68,66,0
1,note_on,68,0,60
1,note_on,70,67,60
1,note_on,70,0,60
1,note_on,71,72,60
1,note_on,71,0,60
1,note_on,73,75,60
1,note_on,73,0,60
1,note_on,74,85,60
1,note_on,74,0,240
1,note_on,70,72,0
1,note_on,70,0,240
1,note_on,71,73,0
1,note_on,71,0,240
1,note_on,76,87,0
1,note_on,76,0,240
1,note_on,70,75,0
1,note_on,70,0,240
1,note_on,71,81,0
1,note_on,71,0,240
1,note_on,73,93,0
1,note_on,73,0,480
1,note_on,66,81,0
1,note_on,66,0,180
1,note_on,66,89,60
1,note_on,66,0,235
1,note_on,68,84,5
1,note_on,68,0,60
1,note_on,70,85,60
1,note_on,70,0,60
1,note_on,71,89,60
1,note_on,71,0,60
1,note_on,73,93,60
1,note_on,73,0,60
1,note_on,66,82,60
1,note_on,74,97,0
1,note_on,74,0,240
1,note_on,66,0,0
1,note_on,64,65,0
1,note_on,70,77,0
1,note_on,70,0,240
1,note_on,64,0,0
1,note_on,62,72,0
1,note_on,71,85,0
1,note_on,71,0,240
1,note_on,62,0,0
1,note_on,60,73,0
1,note_on,66,87,0
1,note_on,66,0,240
1,note_on,60,0,0
1,note_on,59,65,0
1,note_on,67,77,0
1,note_on,67,0,240
1,note_on,59,0,0
1,note_on,60,72,0
1,note_on,66,85,0
1,note_on,66,0,240
1,note_on,60,0,0
1,note_on,59,73,0
1,note_on,67,87,0
1,note_on,67,0,240
1,note_on,59,0,0
1,note_on,65,74,0
1,note_on,71,88,0
1,note_on,71,0,240
1,note_on,65,0,0
1,note_on,64,72,0
1,note_on,73,85,0
1,note_on,73,0,240
1,note_on,64,0,0
1,note_on,62,73,0
1,note_on,68,87,0
1,note_on,68,0,240
1,note_on,62,0,0
1,note_on,61,65,0
1,note_on,69,77,0
1,note_on,69,0,240
1,note_on,61,0,0
1,note_on,62,72,0
1,note_on,68,85,0
1,note_on,68,0,240
1,note_on,62,0,0
1,note_on,61,73,0
1,note_on,69,87,0
1,note_on,69,0,240
1,note_on,61,0,0
1,note_on,71,74,0
1,note_on,77,88,0
1,note_on,77,0,240
1,note_on,71,0,0
1,note_on,69,72,0
1,note_on,78,85,0
1,note_on,78,0,240
1,note_on,69,0,0
1,note_on,67,73,0
1,note_on,73,87,0
1,note_on,73,0,240
1,note_on,67,0,0
1,note_on,66,65,0
1,note_on,74,77,0
1,note_on,74,0,240
1,note_on,66,0,0
1,note_on,67,72,0
1,note_on,73,85,0
1,note_on,73,0,240
1,note_on,67,0,0
1,note_on,66,73,0
1,note_on,74,87,0
1,note_on,74,0,240
1,note_on,66,0,0
1,note_on,58,74,0
1,note_on,70,88,0
1,note_on,70,0,240
1,note_on,58,0,0
1,note_on,59,72,0
1,note_on,71,85,0
1,note_on,71,0,240
1,note_on,59,0,0
1,note_on,61,73,0
1,note_on,73,87,0
1,note_on,73,0,240
1,note_on,61,0,0
1,note_on,62,74,0
1,note_on,74,88,0
1,note_on,74,0,240
1,note_on,62,0,0
1,note_on,64,73,0
1,note_on,76,86,0
1,note_on,76,0,240
1,note_on,64,0,0
1,note_on,66,75,0
1,note_on,78,89,0
1,note_on,78,0,240
1,note_on,66,0,0
1,note_on,65,77,0
1,note_on,77,92,0
1,note_on,77,0,240
1,note_on,65,0,0
1,note_on,66,76,0
1,note_on,78,90,0
1,note_on,78,0,240
1,note_on,66,0,0
1,note_on,67,79,0
1,note_on,79,94,0
1,note_on,79,0,240
1,note_on,67,0,0
1,note_on,68,81,0
1,note_on,80,96,0
1,note_on,80,0,240
1,note_on,68,0,0
1,note_on,70,80,0
1,note_on,82,94,0
1,note_on,82,0,240
1,note_on,70,0,0
1,note_on,83,102,0
1,note_on,83,0,960
1,note_on,81,95,0
1,note_on,81,0,240
1,note_on,79,99,0
1,note_on,79,0,210
1,note_on,79,107,30
1,note_on,79,0,240
1,note_on,76,95,0
1,note_on,76,0,240
1,note_on,72,84,0
1,note_on,72,0,240
1,note_on,69,85,0
1,note_on,69,0,480
1,note_on,74,85,0
1,note_on,74,0,240
1,note_on,71,85,0
1,note_on,71,0,360
1,note_on,71,90,0
1,note_on,71,0,60
1,note_on,74,93,60
1,note_on,74,0,60
1,note_on,79,100,60
1,note_on,79,0,60
1,note_on,83,102,60
1,note_on,83,0,240
1,note_on,81,95,0
1,note_on,81,0,240
1,note_on,79,99,0
1,note_on,79,0,210
1,note_on,79,107,30
1,note_on,79,0,240
1,note_on,76,86,0
1,note_on,76,0,240
1,note_on,72,68,0
1,note_on,72,0,240
1,note_on,69,62,0
1,note_on,69,0,480
1,note_on,72,62,0
1,note_on,72,0,240
1,note_on,67,62,0
1,note_on,67,0,480
1,note_on,72,52,0
1,note_on,72,0,240
1,note_on,69,52,0
1,note_on,69,0,480
1,note_on,72,52,0
1,note_on,72,0,240
1,note_on,67,52,0
1,note_on,67,0,480
1,note_on,72,57,720
1,note_on,72,0,240
1,note_on,71,63,0
1,note_on,71,0,480
1,note_on,69,57,0
1,note_on,69,0,240
1,note_on,68,62,0
1,note_on,68,0,480
1,note_on,67,57,0
1,note_on,67,0,240
1,note_on,66,62,0
1,note_on,66,0,240
1,note_on,70,67,0
1,note_on,70,0,240
1,note_on,73,70,0
1,note_on,73,0,240
1,note_on,76,84,0
1,note_on,76,0,240
1,note_on,75,77,0
1,note_on,75,0,240
1,note_on,72,70,0
1,note_on,72,0,240
1,note_on,71,73,0
1,note_on,71,0,480
1,note_on,69,66,0
1,note_on,69,0,240
1,note_on,68,61,0
1,note_on,68,0,480
1,note_on,67,61,0
1,note_on,67,0,240
1,note_on,66,62,0
1,note_on,66,0,240
1,note_on,70,67,0
1,note_on,70,0,240
1,note_on,73,70,0
1,note_on,73,0,240
1,note_on,76,85,0
1,note_on,76,0,240
1,note_on,75,77,0
1,note_on,75,0,240
1,note_on,72,73,0
1,note_on,72,0,240
1,note_on,71,85,0
1,note_on,71,0,960
1,note_on,74,73,240
1,note_on,74,0,240
1,note_on,73,85,0
1,note_on,73,0,960
1,note_on,76,73,240
1,note_on,76,0,240
1,note_on,74,85,0
1,note_on,74,0,240
1,note_on,76,84,0
1,note_on,66,71,0
1,note_on,66,0,60
1,note_on,76,0,0
1,note_on,66,62,60
1,note_on,74,74,0
1,note_on,74,0,60
1,note_on,66,0,0
1,note_on,73,82,60
1,note_on,66,69,0
1,note_on,66,0,60
1,note_on,73,0,0
1,note_on,71,79,60
1,note_on,66,67,0
1,note_on,66,0,60
1,note_on,71,0,0
1,note_on,79,85,60
1,note_on,79,0,120
1,note_on,70,84,120
1,note_on,67,71,0
1,note_on,67,0,360
1,note_on,70,0,0
1,note_on,71,79,0
1,note_on,66,67,0
1,note_on,66,0,110
1,note_on,71,0,0
1,note_on,66,67,10
1,note_on,71,79,0
1,note_on,71,0,120
1,note_on,66,0,0
1,note_on,63,55,0
1,note_on,72,55,0
1,note_on,69,55,0
1,note_on,66,55,0
1,note_on,66,0,60
1,note_on,63,0,0
1,note_on,72,0,0
1,note_on,69,0,0
1,note_on,63,48,60
1,note_on,66,48,0
1,note_on,69,48,0
1,note_on,72,48,0
1,note_on,72,0,60
1,note_on,63,0,0
1,note_on,66,0,0
1,note_on,69,0,0
1,note_on,63,59,60
1,note_on,72,59,0
1,note_on,69,59,0
1,note_on,66,59,0
1,note_on,66,0,60
1,note_on,63,0,0
1,note_on,72,0,0
1,note_on,69,0,0
1,note_on,63,54,60
1,note_on,66,54,0
1,note_on,69,54,0
1,note_on,72,54,0
1,note_on,72,0,60
1,note_on,63,0,0
1,note_on,66,0,0
1,note_on,69,0,0
1,note_on,63,66,60
1,note_on,72,66,0
1,note_on,69,66,0
1,note_on,66,66,0
1,note_on,66,0,60
1,note_on,63,0,0
1,note_on,72,0,0
1,note_on,69,0,0
1,note_on,63,59,60
1,note_on,66,59,0
1,note_on,69,59,0
1,note_on,72,59,0
1,note_on,72,0,60
1,note_on,63,0,0
1,note_on,66,0,0
1,note_on,69,0,0
1,note_on,63,70,60
1,note_on,72,70,0
1,note_on,69,70,0
1,note_on,66,70,0
1,note_on,66,0,60
1,note_on,63,0,0
1,note_on,72,0,0
1,note_on,69,0,0
1,note_on,63,61,60
1,note_on,66,61,0
1,note_on,69,61,0
1,note_on,72,61,0
1,note_on,72,0,60
1,note_on,63,0,0
1,note_on,66,0,0
1,note_on,69,0,0
1,note_on,63,72,60
1,note_on,72,72,0
1,note_on,69,72,0
1,note_on,66,72,0
1,note_on,66,0,60
1,note_on,63,0,0
1,note_on,72,0,0
1,note_on,69,0,0
1,note_on,63,62,60
1,note_on,66,62,0
1,note_on,69,62,0
1,note_on,72,62,0
1,note_on,72,0,60
1,note_on,63,0,0
1,note_on,66,0,0
1,note_on,69,0,0
1,note_on,63,74,60
1,note_on,72,74,0
1,note_on,69,74,0
1,note_on,66,74,0
1,note_on,66,0,60
1,note_on,63,0,0
1,note_on,72,0,0
1,note_on,69,0,0
1,note_on,64,82,60
1,note_on,68,82,0
1,note_on,71,97,0
1,note_on,71,0,240
1,note_on,68,0,0
1,note_on,64,0,0
1,note_on,67,81,0
1,note_on,73,96,0
1,note_on,70,81,0
1,note_on,70,0,60
1,note_on,73,0,0
1,note_on,67,0,0
1,note_on,67,71,60
1,note_on,70,71,0
1,note_on,74,85,0
1,note_on,74,0,60
1,note_on,70,0,0
1,note_on,67,0,0
1,note_on,67,79,60
1,note_on,76,94,0
1,note_on,70,79,0
1,note_on,70,0,60
1,note_on,76,0,0
1,note_on,67,0,0
1,note_on,67,77,60
1,note_on,78,90,0
1,note_on,69,77,0
1,note_on,69,0,60
1,note_on,78,0,0
1,note_on,67,0,0
1,note_on,67,82,60
1,note_on,70,82,0
1,note_on,79,97,0
1,note_on,79,0,120
1,note_on,70,0,0
1,note_on,67,0,0
1,note_on,64,71,120
1,note_on,70,84,0
1,note_on,66,71,0
1,note_on,66,0,357
1,note_on,70,0,3
1,note_on,64,0,0
1,note_on,62,67,0
1,note_on,71,79,0
1,note_on,66,67,0
1,note_on,66,0,110
1,note_on,71,0,0
1,note_on,62,0,0
1,note_on,62,67,10
1,note_on,66,67,0
1,note_on,71,79,0
1,note_on,71,0,120
1,note_on,66,0,0
1,note_on,62,0,0
1,note_on,63,55,0
1,note_on,72,55,0
1,note_on,69,55,0
1,note_on,66,55,0
1,note_on,66,0,60
1,note_on,63,0,0
1,note_on,72,0,0
1,note_on,69,0,0
1,note_on,63,48,60
1,note_on,66,48,0
1,note_on,69,48,0
1,note_on,72,48,0
1,note_on,72,0,60
1,note_on,63,0,0
1,note_on,66,0,0
1,note_on,69,0,0
1,note_on,63,59,60
1,note_on,72,59,0
1,note_on,69,59,0
1,note_on,66,59,0
1,note_on,66,0,60
1,note_on,63,0,0
1,note_on,72,0,0
1,note_on,69,0,0
1,note_on,63,54,60
1,note_on,66,54,0
1,note_on,69,54,0
1,note_on,72,54,0
1,note_on,72,0,60
1,note_on,63,0,0
1,note_on,66,0,0
1,note_on,69,0,0
1,note_on,63,66,60
1,note_on,72,66,0
1,note_on,69,66,0
1,note_on,66,66,0
1,note_on,66,0,60
1,note_on,63,0,0
1,note_on,72,0,0
1,note_on,69,0,0
1,note_on,63,59,60
1,note_on,66,59,0
1,note_on,69,59,0
1,note_on,72,59,0
1,note_on,72,0,60
1,note_on,63,0,0
1,note_on,66,0,0
1,note_on,69,0,0
1,note_on,63,70,60
1,note_on,72,70,0
1,note_on,69,70,0
1,note_on,66,70,0
1,note_on,66,0,60
1,note_on,63,0,0
1,note_on,72,0,0
1,note_on,69,0,0
1,note_on,63,61,60
1,note_on,66,61,0
1,note_on,69,61,0
1,note_on,72,61,0
1,note_on,72,0,60
1,note_on,63,0,0
1,note_on,66,0,0
1,note_on,69,0,0
1,note_on,63,73,60
1,note_on,72,73,0
1,note_on,69,73,0
1,note_on,66,73,0
1,note_on,66,0,60
1,note_on,63,0,0
1,note_on,72,0,0
1,note_on,69,0,0
1,note_on,63,62,60
1,note_on,66,62,0
1,note_on,69,62,0
1,note_on,72,62,0
1,note_on,72,0,60
1,note_on,63,0,0
1,note_on,66,0,0
1,note_on,69,0,0
1,note_on,63,75,60
1,note_on,72,75,0
1,note_on,69,75,0
1,note_on,66,75,0
1,note_on,66,0,60
1,note_on,63,0,0
1,note_on,72,0,0
1,note_on,69,0,0
1,note_on,64,82,60
1,note_on,68,82,0
1,note_on,71,97,0
1,note_on,71,0,240
1,note_on,68,0,0
1,note_on,64,0,0
1,note_on,67,81,0
1,note_on,73,96,0
1,note_on,70,81,0
1,note_on,70,0,60
1,note_on,73,0,0
1,note_on,67,0,0
1,note_on,67,71,60
1,note_on,70,71,0
1,note_on,74,85,0
1,note_on,74,0,60
1,note_on,70,0,0
1,note_on,67,0,0
1,note_on,67,79,60
1,note_on,76,94,0
1,note_on,70,79,0
1,note_on,70,0,60
1,note_on,76,0,0
1,note_on,67,0,0
1,note_on,67,77,60
1,note_on,78,90,0
1,note_on,70,77,0
1,note_on,70,0,60
1,note_on,78,0,0
1,note_on,67,0,0
1,note_on,67,82,60
1,note_on,70,82,0
1,note_on,79,97,0
1,note_on,79,0,120
1,note_on,70,0,0
1,note_on,67,0,0
1,note_on,64,71,120
1,note_on,70,84,0
1,note_on,66,71,0
1,note_on,66,0,477
1,note_on,70,0,3
1,note_on,64,0,0
1,note_on,62,80,0
1,note_on,66,80,0
1,note_on,71,94,0
1,note_on,71,0,120
1,note_on,66,0,0
1,note_on,62,0,0
1,note_on,67,81,120
1,note_on,73,96,0
1,note_on,70,81,0
1,note_on,70,0,60
1,note_on,73,0,0
1,note_on,67,0,0
1,note_on,67,71,60
1,note_on,70,71,0
1,note_on,74,85,0
1,note_on,74,0,60
1,note_on,70,0,0
1,note_on,67,0,0
1,note_on,67,79,60
1,note_on,76,94,0
1,note_on,70,79,0
1,note_on,70,0,60
1,note_on,76,0,0
1,note_on,67,0,0
1,note_on,67,77,60
1,note_on,78,90,0
1,note_on,70,77,0
1,note_on,70,0,60
1,note_on,78,0,0
1,note_on,67,0,0
1,note_on,67,82,60
1,note_on,70,82,0
1,note_on,79,97,0
1,note_on,79,0,120
1,note_on,70,0,0
1,note_on,67,0,0
1,note_on,64,81,120
1,note_on,70,96,0
1,note_on,66,81,0
1,note_on,66,0,477
1,note_on,70,0,3
1,note_on,64,0,0
1,note_on,62,92,0
1,note_on,66,92,0
1,note_on,71,108,0
1,note_on,71,0,120
1,note_on,66,0,0
1,note_on,62,0,0
1,note_on,67,89,120
1,note_on,73,105,0
1,note_on,70,89,0
1,note_on,70,0,60
1,note_on,73,0,0
1,note_on,67,0,0
1,note_on,67,78,60
1,note_on,70,78,0
1,note_on,74,93,0
1,note_on,74,0,60
1,note_on,70,0,0
1,note_on,67,0,0
1,note_on,67,86,60
1,note_on,76,103,0
1,note_on,70,86,0
1,note_on,70,0,60
1,note_on,76,0,0
1,note_on,67,0,0
1,note_on,67,83,60
1,note_on,78,98,0
1,note_on,70,83,0
1,note_on,70,0,60
1,note_on,78,0,0
1,note_on,67,0,0
1,note_on,73,90,60
1,note_on,76,90,0
1,note_on,67,90,0
1,note_on,70,90,0
1,note_on,79,106,0
1,note_on,79,0,450
1,note_on,67,0,0
1,note_on,73,0,0
1,note_on,76,0,0
1,note_on,70,0,0
1,note_on,61,81,30
1,note_on,64,81,0
1,note_on,66,81,0
1,note_on,70,96,0
1,note_on,70,0,120
1,note_on,61,0,0
1,note_on,64,0,0
1,note_on,66,0,0
1,note_on,59,92,120
1,note_on,62,92,0
1,note_on,66,92,0
1,note_on,71,108,0
1,note_on,71,0,120
1,note_on,59,0,0
1,note_on,62,0,0
1,note_on,66,0,0
1,note_on,64,46,2520
1,note_on,67,55,0
1,note_on,67,0,60
1,note_on,64,0,0
1,note_on,64,39,60
1,note_on,67,47,0
1,note_on,67,0,60
1,note_on,64,0,0
1,note_on,66,49,60
1,note_on,62,49,0
1,note_on,62,0,60
1,note_on,66,0,0
1,note_on,62,45,60
1,note_on,66,45,0
1,note_on,66,0,60
1,note_on,62,0,0
1,note_on,70,62,60
1,note_on,64,52,0
1,note_on,64,0,60
1,note_on,70,0,0
1,note_on,64,49,60
1,note_on,70,58,0
1,note_on,70,0,60
1,note_on,64,0,0
1,note_on,71,63,60
1,note_on,66,53,0
1,note_on,66,0,60
1,note_on,71,0,0
1,note_on,71,61,60
1,note_on,66,51,0
1,note_on,66,0,60
1,note_on,71,0,0
1,note_on,67,64,60
1,note_on,73,76,0
1,note_on,73,0,60
1,note_on,67,0,0
1,note_on,67,62,60
1,note_on,73,73,0
1,note_on,73,0,60
1,note_on,67,0,0
1,note_on,74,79,60
1,note_on,71,67,0
1,note_on,71,0,60
1,note_on,74,0,0
1,note_on,74,72,60
1,note_on,71,61,0
1,note_on,71,0,60
1,note_on,74,0,0
1,note_on,73,80,60
1,note_on,67,68,0
1,note_on,67,0,60
1,note_on,73,0,0
1,note_on,67,58,60
1,note_on,73,69,0
1,note_on,73,0,60
1,note_on,67,0,0
1,note_on,71,79,60
1,note_on,66,67,0
1,note_on,66,0,60
1,note_on,71,0,0
1,note_on,66,59,60
1,note_on,71,70,0
1,note_on,71,0,60
1,note_on,66,0,0
1,note_on,69,73,60
1,note_on,66,62,0
1,note_on,63,62,0
1,note_on,63,0,60
1,note_on,66,0,0
1,note_on,69,0,0
1,note_on,69,61,60
1,note_on,66,51,0
1,note_on,63,51,0
1,note_on,63,0,60
1,note_on,66,0,0
1,note_on,69,0,0
1,note_on,68,71,60
1,note_on,64,60,0
1,note_on,64,0,60
1,note_on,68,0,0
1,note_on,68,61,60
1,note_on,64,51,0
1,note_on,64,0,60
1,note_on,68,0,0
1,note_on,64,53,60
1,note_on,67,63,0
1,note_on,67,0,60
1,note_on,64,0,0
1,note_on,67,58,60
1,note_on,64,49,0
1,note_on,64,0,60
1,note_on,67,0,0
1,note_on,65,62,60
1,note_on,61,52,0
1,note_on,61,0,60
1,note_on,65,0,0
1,note_on,65,56,60
1,note_on,61,47,0
1,note_on,61,0,60
1,note_on,65,0,0
1,note_on,66,62,60
1,note_on,62,52,0
1,note_on,62,0,60
1,note_on,66,0,0
1,note_on,66,58,60
1,note_on,62,49,0
1,note_on,62,0,60
1,note_on,66,0,0
1,note_on,61,61,60
1,note_on,58,51,0
1,note_on,58,0,60
1,note_on,61,0,0
1,note_on,61,50,60
1,note_on,58,42,0
1,note_on,58,0,60
1,note_on,61,0,0
1,note_on,62,57,60
1,note_on,59,48,0
1,note_on,59,0,60
1,note_on,62,0,0
1,note_on,62,45,60
1,note_on,59,38,0
1,note_on,59,0,60
1,note_on,62,0,0
1,note_on,59,43,60
1,note_on,62,51,0
1,note_on,62,0,60
1,note_on,59,0,0
1,note_on,62,40,60
1,note_on,59,34,0
1,note_on,59,0,60
1,note_on,62,0,0
1,note_on,59,50,60
1,note_on,54,42,0
1,note_on,54,0,60
1,note_on,59,0,0
1,note_on,54,36,60
1,note_on,59,43,0
1,note_on,59,0,60
1,note_on,54,0,0
1,note_on,59,50,60
1,note_on,54,42,0
1,note_on,54,0,60
1,note_on,59,0,0
1,note_on,54,35,60
1,note_on,59,42,0
1,note_on,59,0,60
1,note_on,54,0,0
1,note_on,66,50,60
1,note_on,66,0,120
1,note_on,66,56,120
1,note_on,66,0,240
1,note_on,68,63,0
1,note_on,68,0,60
1,note_on,70,69,60
1,note_on,70,0,60
1,note_on,71,80,60
1,note_on,71,0,60
1,note_on,73,91,60
1,note_on,73,0,60
1,note_on,74,101,60
1,note_on,74,0,4320
2,note_on,54,43,0
2,note_on,54,0,60
2,note_on,54,39,60
2,note_on,54,0,60
2,note_on,54,40,60
2,note_on,54,0,60
2,note_on,54,37,60
2,note_on,54,0,60
2,note_on,54,40,60
2,note_on,54,0,60
2,note_on,54,37,60
2,note_on,54,0,60
2,note_on,54,36,60
2,note_on,64,40,0
2,note_on,61,32,0
2,note_on,61,0,60
2,note_on,64,0,0
2,note_on,54,0,0
2,note_on,54,29,60
2,note_on,61,29,0
2,note_on,64,37,0
2,note_on,64,0,60
2,note_on,61,0,0
2,note_on,54,0,0
2,note_on,64,40,60
2,note_on,61,32,0
2,note_on,54,32,0
2,note_on,54,0,60
2,note_on,61,0,0
2,note_on,64,0,0
2,note_on,54,29,60
2,note_on,61,29,0
2,note_on,64,37,0
2,note_on,64,0,60
2,note_on,61,0,0
2,note_on,54,0,0
2,note_on,64,40,60
2,note_on,61,32,0
2,note_on,54,32,0
2,note_on,54,0,60
2,note_on,61,0,0
2,note_on,64,0,0
2,note_on,54,30,60
2,note_on,61,30,0
2,note_on,64,38,0
2,note_on,64,0,60
2,note_on,61,0,0
2,note_on,54,0,0
2,note_on,46,40,60
2,note_on,46,0,60
2,note_on,54,33,60
2,note_on,61,33,0
2,note_on,64,43,0
2,note_on,64,0,60
2,note_on,61,0,0
2,note_on,54,0,0
2,note_on,54,37,60
2,note_on,61,37,0
2,note_on,64,47,0
2,note_on,64,0,60
2,note_on,61,0,0
2,note_on,54,0,0
2,note_on,54,39,60
2,note_on,61,39,0
2,note_on,64,50,0
2,note_on,64,0,60
2,note_on,61,0,0
2,note_on,54,0,0
2,note_on,54,42,60
2,note_on,61,42,0
2,note_on,64,53,0
2,note_on,64,0,60
2,note_on,61,0,0
2,note_on,54,0,0
2,note_on,54,46,60
2,note_on,61,46,0
2,note_on,64,57,0
2,note_on,64,0,60
2,note_on,61,0,0
2,note_on,54,0,0
2,note_on,47,60,60
2,note_on,47,0,60
2,note_on,62,43,60
2,note_on,59,34,0
2,note_on,54,34,0
2,note_on,54,0,60
2,note_on,59,0,0
2,note_on,62,0,0
2,note_on,54,41,60
2,note_on,59,41,0
2,note_on,62,52,0
2,note_on,62,0,60
2,note_on,59,0,0
2,note_on,54,0,0
2,note_on,54,39,60
2,note_on,59,39,0
2,note_on,62,49,0
2,note_on,62,0,60
2,note_on,59,0,0
2,note_on,54,0,0
2,note_on,62,56,60
2,note_on,59,44,0
2,note_on,54,44,0
2,note_on,54,0,60
2,note_on,59,0,0
2,note_on,62,0,0
2,note_on,54,42,60
2,note_on,59,42,0
2,note_on,62,54,0
2,note_on,62,0,60
2,note_on,59,0,0
2,note_on,54,0,0
2,note_on,43,67,60
2,note_on,43,0,60
2,note_on,64,49,60
2,note_on,59,39,0
2,note_on,55,39,0
2,note_on,55,0,60
2,note_on,59,0,0
2,note_on,64,0,0
2,note_on,55,44,60
2,note_on,59,44,0
2,note_on,64,55,0
2,note_on,64,0,60
2,note_on,59,0,0
2,note_on,55,0,0
2,note_on,55,42,60
2,note_on,59,42,0
2,note_on,64,52,0
2,note_on,64,0,60
2,note_on,59,0,0
2,note_on,55,0,0
2,note_on,55,46,60
2,note_on,59,46,0
2,note_on,64,57,0
2,note_on,64,0,60
2,note_on,59,0,0
2,note_on,55,0,0
2,note_on,55,52,60
2,note_on,59,52,0
2,note_on,64,66,0
2,note_on,64,0,60
2,note_on,59,0,0
2,note_on,55,0,0
2,note_on,42,73,60
2,note_on,42,0,60
2,note_on,64,61,60
2,note_on,58,48,0
2,note_on,54,48,0
2,note_on,54,0,60
2,note_on,58,0,0
2,note_on,64,0,0
2,note_on,64,66,60
2,note_on,58,52,0
2,note_on,54,52,0
2,note_on,54,0,60
2,note_on,58,0,0
2,note_on,64,0,0
2,note_on,64,70,60
2,note_on,58,56,0
2,note_on,54,56,0
2,note_on,54,0,60
2,note_on,58,0,0
2,note_on,64,0,0
2,note_on,64,72,60
2,note_on,58,57,0
2,note_on,54,57,0
2,note_on,54,0,60
2,note_on,58,0,0
2,note_on,64,0,0
2,note_on,54,48,60
2,note_on,58,48,0
2,note_on,64,60,0
2,note_on,64,0,60
2,note_on,58,0,0
2,note_on,54,0,0
2,note_on,46,78,60
2,note_on,46,0,60
2,note_on,66,61,60
2,note_on,54,48,0
2,note_on,61,48,0
2,note_on,64,51,0
2,note_on,64,0,60
2,note_on,66,0,0
2,note_on,54,0,0
2,note_on,61,0,0
2,note_on,66,57,60
2,note_on,64,48,0
2,note_on,61,45,0
2,note_on,54,45,0
2,note_on,54,0,60
2,note_on,66,0,0
2,note_on,64,0,0
2,note_on,61,0,0
2,note_on,66,63,60
2,note_on,54,50,0
2,note_on,61,50,0
2,note_on,64,53,0
2,note_on,64,0,60
2,note_on,66,0,0
2,note_on,54,0,0
2,note_on,61,0,0
2,note_on,66,64,60
2,note_on,54,51,0
2,note_on,61,51,0
2,note_on,64,54,0
2,note_on,64,0,60
2,note_on,66,0,0
2,note_on,54,0,0
2,note_on,61,0,0
2,note_on,66,68,60
2,note_on,54,54,0
2,note_on,61,54,0
2,note_on,64,57,0
2,note_on,64,0,60
2,note_on,66,0,0
2,note_on,54,0,0
2,note_on,61,0,0
2,note_on,47,75,60
2,note_on,47,0,60
2,note_on,66,60,60
2,note_on,62,51,0
2,note_on,59,48,0
2,note_on,54,48,0
2,note_on,54,0,60
2,note_on,66,0,0
2,note_on,62,0,0
2,note_on,59,0,0
2,note_on,66,60,60
2,note_on,62,51,0
2,note_on,59,48,0
2,note_on,54,48,0
2,note_on,54,0,60
2,note_on,66,0,0
2,note_on,62,0,0
2,note_on,59,0,0
2,note_on,66,56,60
2,note_on,62,47,0
2,note_on,59,44,0
2,note_on,54,44,0
2,note_on,54,0,60
2,note_on,66,0,0
2,note_on,62,0,0
2,note_on,59,0,0
2,note_on,66,63,60
2,note_on,62,53,0
2,note_on,59,50,0
2,note_on,54,50,0
2,note_on,54,0,60
2,note_on,66,0,0
2,note_on,62,0,0
2,note_on,59,0,0
2,note_on,66,58,60
2,note_on,62,49,0
2,note_on,59,46,0
2,note_on,54,46,0
2,note_on,54,0,60
2,note_on,66,0,0
2,note_on,62,0,0
2,note_on,59,0,0
2,note_on,49,75,60
2,note_on,49,0,120
2,note_on,53,43,0
2,note_on,59,43,0
2,note_on,61,55,0
2,note_on,61,0,60
2,note_on,59,0,0
2,note_on,53,0,0
2,note_on,53,48,60
2,note_on,59,48,0
2,note_on,61,61,0
2,note_on,61,0,60
2,note_on,59,0,0
2,note_on,53,0,0
2,note_on,61,53,60
2,note_on,59,42,0
2,note_on,53,42,0
2,note_on,53,0,60
2,note_on,59,0,0
2,note_on,61,0,0
2,note_on,61,62,60
2,note_on,59,49,0
2,note_on,54,49,0
2,note_on,54,0,60
2,note_on,59,0,0
2,note_on,61,0,0
2,note_on,61,56,60
2,note_on,59,45,0
2,note_on,56,56,0
2,note_on,56,0,60
2,note_on,59,0,0
2,note_on,61,0,0
2,note_on,54,52,60
2,note_on,58,52,0
2,note_on,61,67,0
2,note_on,61,0,60
2,note_on,58,0,0
2,note_on,54,0,0
2,note_on,54,38,60
2,note_on,58,38,0
2,note_on,61,49,0
2,note_on,61,0,60
2,note_on,58,0,0
2,note_on,54,0,0
2,note_on,54,42,60
2,note_on,58,42,0
2,note_on,61,52,0
2,note_on,61,0,60
2,note_on,58,0,0
2,note_on,54,0,0
2,note_on,61,41,60
2,note_on,58,32,0
2,note_on,54,32,0
2,note_on,54,0,60
2,note_on,58,0,0
2,note_on,61,0,0
2,note_on,54,36,60
2,note_on,58,36,0
2,note_on,61,46,0
2,note_on,61,0,60
2,note_on,58,0,0
2,note_on,54,0,0
2,note_on,61,40,60
2,note_on,58,32,0
2,note_on,54,32,0
2,note_on,54,0,60
2,note_on,58,0,0
2,note_on,61,0,0
2,note_on,46,40,60
2,note_on,46,0,60
2,note_on,54,33,60
2,note_on,61,33,0
2,note_on,64,43,0
2,note_on,64,0,60
2,note_on,61,0,0
2,note_on,54,0,0
2,note_on,54,37,60
2,note_on,61,37,0
2,note_on,64,47,0
2,note_on,64,0,60
2,note_on,61,0,0
2,note_on,54,0,0
2,note_on,54,39,60
2,note_on,61,39,0
2,note_on,64,50,0
2,note_on,64,0,60
2,note_on,61,0,0
2,note_on,54,0,0
2,note_on,54,42,60
2,note_on,61,42,0
2,note_on,64,53,0
2,note_on,64,0,60
2,note_on,61,0,0
2,note_on,54,0,0
2,note_on,54,46,60
2,note_on,61,46,0
2,note_on,64,57,0
2,note_on,64,0,60
2,note_on,61,0,0
2,note_on,54,0,0
2,note_on,47,60,60
2,note_on,47,0,60
2,note_on,62,43,60
2,note_on,59,34,0
2,note_on,54,34,0
2,note_on,54,0,60
2,note_on,59,0,0
2,note_on,62,0,0
2,note_on,54,41,60
2,note_on,59,41,0
2,note_on,62,52,0
2,note_on,62,0,60
2,note_on,59,0,0
2,note_on,54,0,0
2,note_on,54,39,60
2,note_on,59,39,0
2,note_on,62,49,0
2,note_on,62,0,60
2,note_on,59,0,0
2,note_on,54,0,0
2,note_on,62,57,60
2,note_on,59,44,0
2,note_on,54,44,0
2,note_on,54,0,60
2,note_on,59,0,0
2,note_on,62,0,0
2,note_on,54,42,60
2,note_on,59,42,0
2,note_on,62,55,0
2,note_on,62,0,60
2,note_on,59,0,0
2,note_on,54,0,0
2,note_on,47,69,60
2,note_on,47,0,60
2,note_on,65,50,60
2,note_on,61,40,0
2,note_on,56,40,0
2,note_on,56,0,60
2,note_on,61,0,0
2,note_on,65,0,0
2,note_on,56,45,60
2,note_on,61,45,0
2,note_on,65,56,0
2,note_on,65,0,60
2,note_on,61,0,0
2,note_on,56,0,0
2,note_on,56,43,60
2,note_on,61,43,0
2,note_on,65,54,0
2,note_on,65,0,60
2,note_on,61,0,0
2,note_on,56,0,0
2,note_on,56,47,60
2,note_on,61,47,0
2,note_on,65,59,0
2,note_on,65,0,60
2,note_on,61,0,0
2,note_on,56,0,0
2,note_on,56,54,60
2,note_on,61,54,0
2,note_on,65,68,0
2,note_on,65,0,60
2,note_on,61,0,0
2,note_on,56,0,0
2,note_on,45,73,60
2,note_on,45,0,60
2,note_on,66,61,60
2,note_on,61,51,0
2,note_on,57,48,0
2,note_on,54,48,0
2,note_on,54,0,60
2,note_on,66,0,0
2,note_on,61,0,0
2,note_on,57,0,0
2,note_on,66,66,60
2,note_on,61,56,0
2,note_on,57,52,0
2,note_on,54,52,0
2,note_on,54,0,60
2,note_on,66,0,0
2,note_on,61,0,0
2,note_on,57,0,0
2,note_on,66,70,60
2,note_on,61,59,0
2,note_on,57,56,0
2,note_on,54,56,0
2,note_on,54,0,60
2,note_on,66,0,0
2,note_on,61,0,0
2,note_on,57,0,0
2,note_on,66,72,60
2,note_on,61,61,0
2,note_on,57,57,0
2,note_on,54,57,0
2,note_on,54,0,60
2,note_on,66,0,0
2,note_on,61,0,0
2,note_on,57,0,0
2,note_on,66,60,60
2,note_on,54,48,0
2,note_on,57,48,0
2,note_on,61,51,0
2,note_on,61,0,60
2,note_on,66,0,0
2,note_on,54,0,0
2,note_on,57,0,0
2,note_on,47,78,60
2,note_on,47,0,60
2,note_on,54,48,60
2,note_on,56,48,0
2,note_on,62,61,0
2,note_on,62,0,60
2,note_on,56,0,0
2,note_on,54,0,0
2,note_on,62,57,60
2,note_on,56,45,0
2,note_on,54,45,0
2,note_on,54,0,60
2,note_on,56,0,0
2,note_on,62,0,0
2,note_on,54,50,60
2,note_on,56,50,0
2,note_on,62,63,0
2,note_on,62,0,60
2,note_on,56,0,0
2,note_on,54,0,0
2,note_on,54,51,60
2,note_on,56,51,0
2,note_on,62,64,0
2,note_on,62,0,60
2,note_on,56,0,0
2,note_on,54,0,0
2,note_on,54,54,60
2,note_on,56,54,0
2,note_on,62,68,0
2,note_on,62,0,60
2,note_on,56,0,0
2,note_on,54,0,0
2,note_on,49,73,60
2,note_on,49,0,60
2,note_on,66,61,60
2,note_on,61,51,0
2,note_on,57,48,0
2,note_on,54,48,0
2,note_on,54,0,60
2,note_on,66,0,0
2,note_on,61,0,0
2,note_on,57,0,0
2,note_on,66,66,60
2,note_on,61,56,0
2,note_on,57,52,0
2,note_on,54,52,0
2,note_on,54,0,60
2,note_on,66,0,0
2,note_on,61,0,0
2,note_on,57,0,0
2,note_on,66,70,60
2,note_on,61,59,0
2,note_on,57,56,0
2,note_on,54,56,0
2,note_on,54,0,60
2,note_on,66,0,0
2,note_on,61,0,0
2,note_on,57,0,0
2,note_on,66,72,60
2,note_on,61,61,0
2,note_on,57,57,0
2,note_on,54,57,0
2,note_on,54,0,60
2,note_on,66,0,0
2,note_on,61,0,0
2,note_on,57,0,0
2,note_on,66,60,60
2,note_on,54,48,0
2,note_on,57,48,0
2,note_on,61,51,0
2,note_on,61,0,60
2,note_on,66,0,0
2,note_on,54,0,0
2,note_on,57,0,0
2,note_on,47,78,60
2,note_on,47,0,60
2,note_on,54,48,60
2,note_on,56,48,0
2,note_on,62,61,0
2,note_on,62,0,60
2,note_on,56,0,0
2,note_on,54,0,0
2,note_on,62,57,60
2,note_on,56,45,0
2,note_on,54,45,0
2,note_on,54,0,60
2,note_on,56,0,0
2,note_on,62,0,0
2,note_on,54,50,60
2,note_on,56,50,0
2,note_on,62,63,0
2,note_on,62,0,60
2,note_on,56,0,0
2,note_on,54,0,0
2,note_on,54,51,60
2,note_on,56,51,0
2,note_on,62,64,0
2,note_on,62,0,60
2,note_on,56,0,0
2,note_on,54,0,0
2,note_on,54,54,60
2,note_on,56,54,0
2,note_on,62,68,0
2,note_on,62,0,60
2,note_on,56,0,0
2,note_on,54,0,0
2,note_on,49,48,60
2,note_on,54,48,0
2,note_on,57,61,0
2,note_on,57,0,60
2,note_on,54,0,0
2,note_on,49,0,0
2,note_on,57,57,60
2,note_on,54,45,0
2,note_on,49,45,0
2,note_on,49,0,60
2,note_on,54,0,0
2,note_on,57,0,0
2,note_on,49,50,60
2,note_on,54,50,0
2,note_on,57,63,0
2,note_on,57,0,60
2,note_on,54,0,0
2,note_on,49,0,0
2,note_on,59,63,420
2,note_on,49,55,0
2,note_on,49,0,60
2,note_on,59,0,0
2,note_on,49,49,60
2,note_on,59,56,0
2,note_on,59,0,60
2,note_on,49,0,0
2,note_on,49,49,60
2,note_on,59,56,0
2,note_on,59,0,240
2,note_on,49,0,0
2,note_on,61,66,240
2,note_on,49,58,0
2,note_on,49,0,60
2,note_on,61,0,0
2,note_on,49,49,60
2,note_on,61,56,0
2,note_on,61,0,60
2,note_on,49,0,0
2,note_on,61,60,60
2,note_on,49,53,0
2,note_on,49,0,240
2,note_on,61,0,0
2,note_on,62,67,240
2,note_on,49,59,0
2,note_on,49,0,60
2,note_on,62,0,0
2,note_on,49,49,60
2,note_on,62,56,0
2,note_on,62,0,60
2,note_on,49,0,0
2,note_on,62,58,60
2,note_on,49,51,0
2,note_on,49,0,240
2,note_on,62,0,0
2,note_on,61,70,240
2,note_on,49,61,0
2,note_on,49,0,60
2,note_on,61,0,0
2,note_on,49,50,60
2,note_on,61,57,0
2,note_on,61,0,60
2,note_on,49,0,0
2,note_on,61,62,60
2,note_on,49,54,0
2,note_on,49,0,240
2,note_on,61,0,0
2,note_on,59,73,240
2,note_on,49,64,0
2,note_on,49,0,60
2,note_on,59,0,0
2,note_on,59,63,60
2,note_on,49,55,0
2,note_on,49,0,60
2,note_on,59,0,0
2,note_on,49,49,60
2,note_on,59,56,0
2,note_on,59,0,240
2,note_on,49,0,0
2,note_on,38,87,240
2,note_on,38,0,60
2,note_on,69,65,60
2,note_on,66,52,0
2,note_on,62,52,0
2,note_on,57,51,0
2,note_on,50,51,0
2,note_on,50,0,60
2,note_on,62,0,0
2,note_on,69,0,0
2,note_on,66,0,0
2,note_on,57,0,0
2,note_on,69,71,60
2,note_on,66,56,0
2,note_on,62,56,0
2,note_on,57,55,0
2,note_on,50,55,0
2,note_on,50,0,60
2,note_on,62,0,0
2,note_on,69,0,0
2,note_on,66,0,0
2,note_on,57,0,0
2,note_on,69,75,60
2,note_on,66,60,0
2,note_on,62,60,0
2,note_on,57,60,0
2,note_on,50,60,0
2,note_on,50,0,60
2,note_on,62,0,0
2,note_on,69,0,0
2,note_on,66,0,0
2,note_on,57,0,0
2,note_on,69,77,60
2,note_on,66,61,0
2,note_on,62,61,0
2,note_on,57,61,0
2,note_on,50,61,0
2,note_on,50,0,60
2,note_on,62,0,0
2,note_on,69,0,0
2,note_on,66,0,0
2,note_on,57,0,0
2,note_on,69,64,60
2,note_on,66,51,0
2,note_on,50,51,0
2,note_on,57,51,0
2,note_on,62,51,0
2,note_on,62,0,60
2,note_on,50,0,0
2,note_on,69,0,0
2,note_on,66,0,0
2,note_on,57,0,0
2,note_on,62,62,60
2,note_on,60,62,0
2,note_on,66,62,0
2,note_on,69,79,0
2,note_on,57,62,0
2,note_on,50,62,0
2,note_on,50,0,60
2,note_on,60,0,0
2,note_on,66,0,0
2,note_on,62,0,0
2,note_on,57,0,0
2,note_on,69,0,0
2,note_on,62,57,60
2,note_on,60,57,0
2,note_on,66,57,0
2,note_on,69,73,0
2,note_on,57,57,0
2,note_on,50,57,0
2,note_on,50,0,60
2,note_on,60,0,0
2,note_on,66,0,0
2,note_on,62,0,0
2,note_on,57,0,0
2,note_on,69,0,0
2,note_on,60,68,60
2,note_on,57,62,0
2,note_on,62,79,0
2,note_on,50,62,0
2,note_on,50,0,60
2,note_on,60,0,0
2,note_on,57,0,0
2,note_on,62,0,0
2,note_on,60,67,60
2,note_on,62,67,0
2,note_on,66,67,0
2,note_on,69,80,0
2,note_on,50,67,0
2,note_on,57,67,0
2,note_on,57,0,60
2,note_on,62,0,0
2,note_on,66,0,0
2,note_on,60,0,0
2,note_on,50,0,0
2,note_on,69,0,0
2,note_on,60,68,60
2,note_on,62,86,0
2,note_on,57,68,0
2,note_on,50,68,0
2,note_on,50,0,60
2,note_on,60,0,0
2,note_on,62,0,0
2,note_on,57,0,0
2,note_on,66,57,60
2,note_on,60,57,0
2,note_on,62,57,0
2,note_on,57,57,0
2,note_on,69,72,0
2,note_on,50,57,0
2,note_on,50,0,60
2,note_on,60,0,0
2,note_on,62,0,0
2,note_on,66,0,0
2,note_on,69,0,0
2,note_on,57,0,0
2,note_on,43,87,60
2,note_on,43,0,60
2,note_on,62,55,60
2,note_on,67,70,0
2,note_on,59,55,0
2,note_on,55,55,0
2,note_on,55,0,60
2,note_on,62,0,0
2,note_on,67,0,0
2,note_on,59,0,0
2,note_on,59,74,60
2,note_on,55,58,0
2,note_on,55,0,60
2,note_on,59,0,0
2,note_on,59,75,60
2,note_on,55,60,0
2,note_on,55,0,60
2,note_on,59,0,0
2,note_on,58,74,60
2,note_on,55,59,0
2,note_on,55,0,60
2,note_on,58,0,0
2,note_on,55,47,60
2,note_on,58,60,0
2,note_on,58,0,60
2,note_on,55,0,0
2,note_on,45,69,60
2,note_on,45,0,60
2,note_on,57,45,60
2,note_on,62,58,0
2,note_on,55,45,0
2,note_on,52,45,0
2,note_on,52,0,60
2,note_on,57,0,0
2,note_on,62,0,0
2,note_on,55,0,0
2,note_on,52,49,60
2,note_on,57,49,0
2,note_on,62,63,0
2,note_on,55,49,0
2,note_on,55,0,60
2,note_on,52,0,0
2,note_on,57,0,0
2,note_on,62,0,0
2,note_on,52,53,60
2,note_on,57,53,0
2,note_on,62,67,0
2,note_on,55,53,0
2,note_on,55,0,60
2,note_on,52,0,0
2,note_on,57,0,0
2,note_on,62,0,0
2,note_on,55,54,60
2,note_on,57,68,0
2,note_on,52,54,0
2,note_on,52,0,60
2,note_on,57,0,0
2,note_on,55,0,0
2,note_on,57,45,60
2,note_on,55,45,0
2,note_on,61,45,0
2,note_on,52,45,0
2,note_on,64,57,0
2,note_on,64,0,60
2,note_on,61,0,0
2,note_on,57,0,0
2,note_on,55,0,0
2,note_on,52,0,0
2,note_on,50,69,60
2,note_on,50,0,60
2,note_on,57,45,60
2,note_on,62,58,0
2,note_on,54,45,0
2,note_on,54,0,60
2,note_on,62,0,0
2,note_on,57,0,0
2,note_on,54,49,60
2,note_on,57,49,0
2,note_on,62,63,0
2,note_on,62,0,60
2,note_on,57,0,0
2,note_on,54,0,0
2,note_on,54,53,60
2,note_on,57,53,0
2,note_on,62,67,0
2,note_on,62,0,60
2,note_on,57,0,0
2,note_on,54,0,0
2,note_on,57,54,60
2,note_on,62,68,0
2,note_on,54,54,0
2,note_on,54,0,60
2,note_on,62,0,0
2,note_on,57,0,0
2,note_on,57,45,60
2,note_on,54,45,0
2,note_on,62,57,0
2,note_on,62,0,60
2,note_on,54,0,0
2,note_on,57,0,0
2,note_on,50,69,60
2,note_on,50,0,60
2,note_on,62,57,60
2,note_on,60,57,0
2,note_on,66,57,0
2,note_on,69,73,0
2,note_on,57,57,0
2,note_on,57,0,60
2,note_on,66,0,0
2,note_on,62,0,0
2,note_on,60,0,0
2,note_on,69,0,0
2,note_on,60,68,60
2,note_on,57,62,0
2,note_on,62,79,0
2,note_on,62,0,60
2,note_on,57,0,0
2,note_on,60,0,0
2,note_on,60,67,60
2,note_on,62,67,0
2,note_on,66,67,0
2,note_on,69,79,0
2,note_on,57,67,0
2,note_on,57,0,60
2,note_on,66,0,0
2,note_on,60,0,0
2,note_on,62,0,0
2,note_on,69,0,0
2,note_on,60,68,60
2,note_on,62,86,0
2,note_on,57,68,0
2,note_on,57,0,60
2,note_on,62,0,0
2,note_on,60,0,0
2,note_on,66,57,60
2,note_on,60,57,0
2,note_on,62,57,0
2,note_on,57,57,0
2,note_on,69,72,0
2,note_on,69,0,60
2,note_on,62,0,0
2,note_on,66,0,0
2,note_on,60,0,0
2,note_on,57,0,0
2,note_on,55,87,60
2,note_on,55,0,60
2,note_on,59,53,60
2,note_on,62,53,0
2,note_on,62,0,60
2,note_on,59,0,0
2,note_on,59,69,60
2,note_on,62,54,0
2,note_on,62,0,60
2,note_on,59,0,0
2,note_on,59,67,60
2,note_on,62,54,0
2,note_on,62,0,60
2,note_on,59,0,0
2,note_on,59,64,60
2,note_on,62,51,0
2,note_on,62,0,60
2,note_on,59,0,0
2,note_on,62,39,60
2,note_on,59,50,0
2,note_on,59,0,60
2,note_on,62,0,0
2,note_on,43,55,60
2,note_on,55,44,120
2,note_on,60,44,0
2,note_on,60,0,60
2,note_on,55,0,0
2,note_on,55,44,60
2,note_on,60,59,0
2,note_on,52,50,0
2,note_on,60,0,60
2,note_on,55,0,0
2,note_on,55,44,60
2,note_on,60,44,0
2,note_on,60,0,60
2,note_on,55,0,0
2,note_on,52,0,60
2,note_on,51,54,0
2,note_on,55,44,120
2,note_on,60,44,0
2,note_on,60,0,60
2,note_on,55,0,0
2,note_on,51,0,60
2,note_on,55,44,120
2,note_on,59,44,0
2,note_on,59,0,60
2,note_on,55,0,0
2,note_on,55,44,60
2,note_on,59,59,0
2,note_on,59,0,60
2,note_on,55,0,0
2,note_on,55,44,60
2,note_on,59,44,0
2,note_on,59,0,60
2,note_on,55,0,0
2,note_on,43,0,60
2,note_on,55,37,120
2,note_on,59,37,0
2,note_on,59,0,60
2,note_on,55,0,0
2,note_on,43,46,60
2,note_on,55,37,120
2,note_on,60,37,0
2,note_on,60,0,60
2,note_on,55,0,0
2,note_on,55,37,60
2,note_on,60,50,0
2,note_on,52,42,0
2,note_on,60,0,60
2,note_on,55,0,0
2,note_on,55,37,60
2,note_on,60,37,0
2,note_on,60,0,60
2,note_on,55,0,0
2,note_on,52,0,60
2,note_on,51,45,0
2,note_on,55,37,120
2,note_on,60,37,0
2,note_on,60,0,60
2,note_on,55,0,0
2,note_on,51,0,60
2,note_on,50,45,0
2,note_on,55,31,120
2,note_on,59,37,0
2,note_on,59,0,60
2,note_on,55,0,0
2,note_on,55,32,60
2,note_on,59,51,0
2,note_on,59,0,60
2,note_on,55,0,0
2,note_on,55,33,60
2,note_on,59,39,0
2,note_on,59,0,60
2,note_on,55,0,0
2,note_on,50,0,60
2,note_on,43,0,0
2,note_on,55,46,0
2,note_on,59,55,0
2,note_on,59,0,60
2,note_on,55,0,0
2,note_on,55,34,60
2,note_on,59,41,0
2,note_on,59,0,60
2,note_on,55,0,0
2,note_on,59,43,60
2,note_on,55,35,0
2,note_on,55,0,60
2,note_on,59,0,0
2,note_on,55,37,60
2,note_on,59,44,0
2,note_on,59,0,60
2,note_on,55,0,0
2,note_on,55,38,60
2,note_on,59,45,0
2,note_on,59,0,60
2,note_on,55,0,0
2,note_on,55,39,60
2,note_on,59,46,0
2,note_on,59,0,60
2,note_on,55,0,0
2,note_on,54,32,60
2,note_on,59,30,120
2,note_on,62,38,0
2,note_on,62,0,60
2,note_on,59,0,0
2,note_on,54,0,60
2,note_on,46,40,0
2,note_on,46,0,60
2,note_on,54,33,60
2,note_on,61,33,0
2,note_on,64,43,0
2,note_on,64,0,60
2,note_on,61,0,0
2,note_on,54,0,0
2,note_on,54,37,60
2,note_on,61,37,0
2,note_on,64,47,0
2,note_on,64,0,60
2,note_on,61,0,0
2,note_on,54,0,0
2,note_on,54,39,60
2,note_on,61,39,0
2,note_on,64,50,0
2,note_on,64,0,60
2,note_on,61,0,0
2,note_on,54,0,0
2,note_on,54,42,60
2,note_on,61,42,0
2,note_on,64,53,0
2,note_on,64,0,60
2,note_on,61,0,0
2,note_on,54,0,0
2,note_on,54,46,60
2,note_on,61,46,0
2,note_on,64,57,0
2,note_on,64,0,60
2,note_on,61,0,0
2,note_on,54,0,0
2,note_on,47,60,60
2,note_on,47,0,60
2,note_on,62,43,60
2,note_on,59,34,0
2,note_on,54,34,0
2,note_on,54,0,60
2,note_on,59,0,0
2,note_on,62,0,0
2,note_on,54,41,60
2,note_on,59,41,0
2,note_on,62,52,0
2,note_on,62,0,60
2,note_on,59,0,0
2,note_on,54,0,0
2,note_on,54,39,60
2,note_on,59,39,0
2,note_on,62,49,0
2,note_on,62,0,60
2,note_on,59,0,0
2,note_on,54,0,0
2,note_on,62,56,60
2,note_on,59,44,0
2,note_on,54,44,0
2,note_on,54,0,60
2,note_on,59,0,0
2,note_on,62,0,0
2,note_on,54,42,60
2,note_on,59,42,0
2,note_on,62,54,0
2,note_on,62,0,60
2,note_on,59,0,0
2,note_on,54,0,0
2,note_on,43,67,60
2,note_on,43,0,60
2,note_on,64,49,60
2,note_on,59,39,0
2,note_on,55,39,0
2,note_on,55,0,60
2,note_on,59,0,0
2,note_on,64,0,0
2,note_on,55,44,60
2,note_on,59,44,0
2,note_on,64,55,0
2,note_on,64,0,60
2,note_on,59,0,0
2,note_on,55,0,0
2,note_on,55,42,60
2,note_on,59,42,0
2,note_on,64,52,0
2,note_on,64,0,60
2,note_on,59,0,0
2,note_on,55,0,0
2,note_on,55,46,60
2,note_on,59,46,0
2,note_on,64,57,0
2,note_on,64,0,60
2,note_on,59,0,0
2,note_on,55,0,0
2,note_on,55,52,60
2,note_on,59,52,0
2,note_on,64,66,0
2,note_on,64,0,60
2,note_on,59,0,0
2,note_on,55,0,0
2,note_on,42,73,60
2,note_on,42,0,60
2,note_on,64,61,60
2,note_on,58,48,0
2,note_on,54,48,0
2,note_on,54,0,60
2,note_on,58,0,0
2,note_on,64,0,0
2,note_on,64,66,60
2,note_on,58,52,0
2,note_on,54,52,0
2,note_on,54,0,60
2,note_on,58,0,0
2,note_on,64,0,0
2,note_on,64,70,60
2,note_on,58,56,0
2,note_on,54,56,0
2,note_on,54,0,60
2,note_on,58,0,0
2,note_on,64,0,0
2,note_on,64,72,60
2,note_on,58,57,0
2,note_on,54,57,0
2,note_on,54,0,60
2,note_on,58,0,0
2,note_on,64,0,0
2,note_on,54,48,60
2,note_on,58,48,0
2,note_on,64,60,0
2,note_on,64,0,60
2,note_on,58,0,0
2,note_on,54,0,0
2,note_on,46,78,60
2,note_on,46,0,60
2,note_on,66,61,60
2,note_on,54,48,0
2,note_on,61,48,0
2,note_on,64,51,0
2,note_on,64,0,60
2,note_on,66,0,0
2,note_on,54,0,0
2,note_on,61,0,0
2,note_on,66,57,60
2,note_on,64,48,0
2,note_on,61,45,0
2,note_on,54,45,0
2,note_on,54,0,60
2,note_on,66,0,0
2,note_on,64,0,0
2,note_on,61,0,0
2,note_on,66,63,60
2,note_on,54,50,0
2,note_on,61,50,0
2,note_on,64,53,0
2,note_on,64,0,60
2,note_on,66,0,0
2,note_on,54,0,0
2,note_on,61,0,0
2,note_on,66,64,60
2,note_on,54,51,0
2,note_on,61,51,0
2,note_on,64,54,0
2,note_on,64,0,60
2,note_on,66,0,0
2,note_on,54,0,0
2,note_on,61,0,0
2,note_on,66,68,60
2,note_on,54,54,0
2,note_on,61,54,0
2,note_on,64,57,0
2,note_on,64,0,60
2,note_on,66,0,0
2,note_on,54,0,0
2,note_on,61,0,0
2,note_on,47,75,60
2,note_on,47,0,60
2,note_on,66,60,60
2,note_on,62,51,0
2,note_on,59,48,0
2,note_on,54,48,0
2,note_on,54,0,60
2,note_on,66,0,0
2,note_on,62,0,0
2,note_on,59,0,0
2,note_on,66,60,60
2,note_on,62,51,0
2,note_on,59,48,0
2,note_on,54,48,0
2,note_on,54,0,60
2,note_on,66,0,0
2,note_on,62,0,0
2,note_on,59,0,0
2,note_on,66,56,60
2,note_on,62,47,0
2,note_on,59,44,0
2,note_on,54,44,0
2,note_on,54,0,60
2,note_on,66,0,0
2,note_on,62,0,0
2,note_on,59,0,0
2,note_on,66,63,60
2,note_on,62,53,0
2,note_on,59,50,0
2,note_on,54,50,0
2,note_on,54,0,60
2,note_on,66,0,0
2,note_on,62,0,0
2,note_on,59,0,0
2,note_on,66,58,60
2,note_on,62,49,0
2,note_on,59,46,0
2,note_on,54,46,0
2,note_on,54,0,60
2,note_on,66,0,0
2,note_on,62,0,0
2,note_on,59,0,0
2,note_on,49,75,60
2,note_on,49,0,120
2,note_on,53,43,0
2,note_on,59,43,0
2,note_on,61,55,0
2,note_on,61,0,60
2,note_on,59,0,0
2,note_on,53,0,0
2,note_on,53,48,60
2,note_on,59,48,0
2,note_on,61,61,0
2,note_on,61,0,60
2,note_on,59,0,0
2,note_on,53,0,0
2,note_on,61,53,60
2,note_on,59,42,0
2,note_on,53,42,0
2,note_on,53,0,60
2,note_on,59,0,0
2,note_on,61,0,0
2,note_on,61,62,60
2,note_on,59,49,0
2,note_on,54,49,0
2,note_on,54,0,60
2,note_on,59,0,0
2,note_on,61,0,0
2,note_on,61,56,60
2,note_on,59,45,0
2,note_on,56,56,0
2,note_on,56,0,60
2,note_on,59,0,0
2,note_on,61,0,0
2,note_on,54,52,60
2,note_on,58,52,0
2,note_on,61,67,0
2,note_on,61,0,60
2,note_on,58,0,0
2,note_on,54,0,0
2,note_on,54,38,60
2,note_on,58,38,0
2,note_on,61,49,0
2,note_on,61,0,60
2,note_on,58,0,0
2,note_on,54,0,0
2,note_on,54,42,60
2,note_on,58,42,0
2,note_on,61,52,0
2,note_on,61,0,60
2,note_on,58,0,0
2,note_on,54,0,0
2,note_on,61,41,60
2,note_on,58,32,0
2,note_on,54,32,0
2,note_on,54,0,60
2,note_on,58,0,0
2,note_on,61,0,0
2,note_on,54,36,60
2,note_on,58,36,0
2,note_on,61,46,0
2,note_on,61,0,60
2,note_on,58,0,0
2,note_on,54,0,0
2,note_on,61,40,60
2,note_on,58,32,0
2,note_on,54,32,0
2,note_on,54,0,60
2,note_on,58,0,0
2,note_on,61,0,0
2,note_on,46,40,60
2,note_on,46,0,60
2,note_on,54,33,60
2,note_on,61,33,0
2,note_on,64,43,0
2,note_on,64,0,60
2,note_on,61,0,0
2,note_on,54,0,0
2,note_on,54,37,60
2,note_on,61,37,0
2,note_on,64,47,0
2,note_on,64,0,60
2,note_on,61,0,0
2,note_on,54,0,0
2,note_on,54,39,60
2,note_on,61,39,0
2,note_on,64,50,0
2,note_on,64,0,60
2,note_on,61,0,0
2,note_on,54,0,0
2,note_on,54,42,60
2,note_on,61,42,0
2,note_on,64,53,0
2,note_on,64,0,60
2,note_on,61,0,0
2,note_on,54,0,0
2,note_on,54,46,60
2,note_on,61,46,0
2,note_on,64,57,0
2,note_on,64,0,60
2,note_on,61,0,0
2,note_on,54,0,0
2,note_on,47,60,60
2,note_on,47,0,60
2,note_on,62,43,60
2,note_on,59,34,0
2,note_on,54,34,0
2,note_on,54,0,60
2,note_on,59,0,0
2,note_on,62,0,0
2,note_on,54,41,60
2,note_on,59,41,0
2,note_on,62,52,0
2,note_on,62,0,60
2,note_on,59,0,0
2,note_on,54,0,0
2,note_on,54,39,60
2,note_on,59,39,0
2,note_on,62,49,0
2,note_on,62,0,60
2,note_on,59,0,0
2,note_on,54,0,0
2,note_on,62,57,60
2,note_on,59,44,0
2,note_on,54,44,0
2,note_on,54,0,60
2,note_on,59,0,0
2,note_on,62,0,0
2,note_on,54,42,60
2,note_on,59,42,0
2,note_on,62,55,0
2,note_on,62,0,60
2,note_on,59,0,0
2,note_on,54,0,0
2,note_on,47,69,60
2,note_on,47,0,60
2,note_on,65,50,60
2,note_on,61,40,0
2,note_on,56,40,0
2,note_on,56,0,60
2,note_on,61,0,0
2,note_on,65,0,0
2,note_on,56,45,60
2,note_on,61,45,0
2,note_on,65,56,0
2,note_on,65,0,60
2,note_on,61,0,0
2,note_on,56,0,0
2,note_on,56,43,60
2,note_on,61,43,0
2,note_on,65,54,0
2,note_on,65,0,60
2,note_on,61,0,0
2,note_on,56,0,0
2,note_on,56,47,60
2,note_on,61,47,0
2,note_on,65,59,0
2,note_on,65,0,60
2,note_on,61,0,0
2,note_on,56,0,0
2,note_on,56,54,60
2,note_on,61,54,0
2,note_on,65,68,0
2,note_on,65,0,60
2,note_on,61,0,0
2,note_on,56,0,0
2,note_on,45,73,60
2,note_on,45,0,60
2,note_on,66,61,60
2,note_on,61,51,0
2,note_on,57,48,0
2,note_on,54,48,0
2,note_on,54,0,60
2,note_on,66,0,0
2,note_on,61,0,0
2,note_on,57,0,0
2,note_on,66,66,60
2,note_on,61,56,0
2,note_on,57,52,0
2,note_on,54,52,0
2,note_on,54,0,60
2,note_on,66,0,0
2,note_on,61,0,0
2,note_on,57,0,0
2,note_on,66,70,60
2,note_on,61,59,0
2,note_on,57,56,0
2,note_on,54,56,0
2,note_on,54,0,60
2,note_on,66,0,0
2,note_on,61,0,0
2,note_on,57,0,0
2,note_on,66,72,60
2,note_on,61,61,0
2,note_on,57,57,0
2,note_on,54,57,0
2,note_on,54,0,60
2,note_on,66,0,0
2,note_on,61,0,0
2,note_on,57,0,0
2,note_on,66,60,60
2,note_on,54,48,0
2,note_on,57,48,0
2,note_on,61,51,0
2,note_on,61,0,60
2,note_on,66,0,0
2,note_on,54,0,0
2,note_on,57,0,0
2,note_on,47,78,60
2,note_on,47,0,60
2,note_on,54,48,60
2,note_on,56,48,0
2,note_on,62,61,0
2,note_on,62,0,60
2,note_on,56,0,0
2,note_on,54,0,0
2,note_on,62,57,60
2,note_on,56,45,0
2,note_on,54,45,0
2,note_on,54,0,60
2,note_on,56,0,0
2,note_on,62,0,0
2,note_on,54,50,60
2,note_on,56,50,0
2,note_on,62,63,0
2,note_on,62,0,60
2,note_on,56,0,0
2,note_on,54,0,0
2,note_on,54,51,60
2,note_on,56,51,0
2,note_on,62,64,0
2,note_on,62,0,60
2,note_on,56,0,0
2,note_on,54,0,0
2,note_on,54,54,60
2,note_on,56,54,0
2,note_on,62,68,0
2,note_on,62,0,60
2,note_on,56,0,0
2,note_on,54,0,0
2,note_on,49,73,60
2,note_on,49,0,60
2,note_on,66,61,60
2,note_on,61,51,0
2,note_on,57,48,0
2,note_on,54,48,0
2,note_on,54,0,60
2,note_on,66,0,0
2,note_on,61,0,0
2,note_on,57,0,0
2,note_on,66,66,60
2,note_on,61,56,0
2,note_on,57,52,0
2,note_on,54,52,0
2,note_on,54,0,60
2,note_on,66,0,0
2,note_on,61,0,0
2,note_on,57,0,0
2,note_on,66,70,60
2,note_on,61,59,0
2,note_on,57,56,0
2,note_on,54,56,0
2,note_on,54,0,60
2,note_on,66,0,0
2,note_on,61,0,0
2,note_on,57,0,0
2,note_on,66,72,60
2,note_on,61,61,0
2,note_on,57,57,0
2,note_on,54,57,0
2,note_on,54,0,60
2,note_on,66,0,0
2,note_on,61,0,0
2,note_on,57,0,0
2,note_on,66,60,60
2,note_on,54,48,0
2,note_on,57,48,0
2,note_on,61,51,0
2,note_on,61,0,60
2,note_on,66,0,0
2,note_on,54,0,0
2,note_on,57,0,0
2,note_on,47,78,60
2,note_on,47,0,60
2,note_on,54,48,60
2,note_on,56,48,0
2,note_on,62,61,0
2,note_on,62,0,60
2,note_on,56,0,0
2,note_on,54,0,0
2,note_on,62,57,60
2,note_on,56,45,0
2,note_on,54,45,0
2,note_on,54,0,60
2,note_on,56,0,0
2,note_on,62,0,0
2,note_on,54,50,60
2,note_on,56,50,0
2,note_on,62,63,0
2,note_on,62,0,60
2,note_on,56,0,0
2,note_on,54,0,0
2,note_on,54,51,60
2,note_on,56,51,0
2,note_on,62,64,0
2,note_on,62,0,60
2,note_on,56,0,0
2,note_on,54,0,0
2,note_on,54,54,60
2,note_on,56,54,0
2,note_on,62,68,0
2,note_on,62,0,60
2,note_on,56,0,0
2,note_on,54,0,0
2,note_on,49,48,60
2,note_on,54,48,0
2,note_on,57,61,0
2,note_on,57,0,60
2,note_on,54,0,0
2,note_on,49,0,0
2,note_on,57,57,60
2,note_on,54,45,0
2,note_on,49,45,0
2,note_on,49,0,60
2,note_on,54,0,0
2,note_on,57,0,0
2,note_on,49,50,60
2,note_on,54,50,0
2,note_on,57,63,0
2,note_on,57,0,60
2,note_on,54,0,0
2,note_on,49,0,0
2,note_on,59,63,420
2,note_on,49,55,0
2,note_on,49,0,60
2,note_on,59,0,0
2,note_on,49,49,60
2,note_on,59,56,0
2,note_on,59,0,60
2,note_on,49,0,0
2,note_on,49,49,60
2,note_on,59,56,0
2,note_on,59,0,240
2,note_on,49,0,0
2,note_on,61,66,240
2,note_on,49,58,0
2,note_on,49,0,60
2,note_on,61,0,0
2,note_on,49,49,60
2,note_on,61,56,0
2,note_on,61,0,60
2,note_on,49,0,0
2,note_on,61,60,60
2,note_on,49,53,0
2,note_on,49,0,240
2,note_on,61,0,0
2,note_on,62,67,240
2,note_on,49,59,0
2,note_on,49,0,60
2,note_on,62,0,0
2,note_on,49,49,60
2,note_on,62,56,0
2,note_on,62,0,60
2,note_on,49,0,0
2,note_on,62,58,60
2,note_on,49,51,0
2,note_on,49,0,240
2,note_on,62,0,0
2,note_on,61,70,240
2,note_on,49,61,0
2,note_on,49,0,60
2,note_on,61,0,0
2,note_on,49,50,60
2,note_on,61,57,0
2,note_on,61,0,60
2,note_on,49,0,0
2,note_on,61,62,60
2,note_on,49,54,0
2,note_on,49,0,240
2,note_on,61,0,0
2,note_on,59,73,240
2,note_on,49,64,0
2,note_on,49,0,60
2,note_on,59,0,0
2,note_on,59,63,60
2,note_on,49,55,0
2,note_on,49,0,60
2,note_on,59,0,0
2,note_on,49,49,60
2,note_on,59,56,0
2,note_on,59,0,240
2,note_on,49,0,0
2,note_on,38,87,240
2,note_on,38,0,60
2,note_on,69,65,60
2,note_on,66,52,0
2,note_on,62,52,0
2,note_on,57,51,0
2,note_on,50,51,0
2,note_on,50,0,60
2,note_on,62,0,0
2,note_on,69,0,0
2,note_on,66,0,0
2,note_on,57,0,0
2,note_on,69,71,60
2,note_on,66,56,0
2,note_on,62,56,0
2,note_on,57,55,0
2,note_on,50,55,0
2,note_on,50,0,60
2,note_on,62,0,0
2,note_on,69,0,0
2,note_on,66,0,0
2,note_on,57,0,0
2,note_on,69,75,60
2,note_on,66,60,0
2,note_on,62,60,0
2,note_on,57,60,0
2,note_on,50,60,0
2,note_on,50,0,60
2,note_on,62,0,0
2,note_on,69,0,0
2,note_on,66,0,0
2,note_on,57,0,0
2,note_on,69,77,60
2,note_on,66,61,0
2,note_on,62,61,0
2,note_on,57,61,0
2,note_on,50,61,0
2,note_on,50,0,60
2,note_on,62,0,0
2,note_on,69,0,0
2,note_on,66,0,0
2,note_on,57,0,0
2,note_on,69,64,60
2,note_on,66,51,0
2,note_on,50,51,0
2,note_on,57,51,0
2,note_on,62,51,0
2,note_on,62,0,60
2,note_on,50,0,0
2,note_on,69,0,0
2,note_on,66,0,0
2,note_on,57,0,0
2,note_on,62,62,60
2,note_on,60,62,0
2,note_on,66,62,0
2,note_on,69,79,0
2,note_on,57,62,0
2,note_on,50,62,0
2,note_on,50,0,60
2,note_on,60,0,0
2,note_on,66,0,0
2,note_on,62,0,0
2,note_on,57,0,0
2,note_on,69,0,0
2,note_on,62,57,60
2,note_on,60,57,0
2,note_on,66,57,0
2,note_on,69,73,0
2,note_on,57,57,0
2,note_on,50,57,0
2,note_on,50,0,60
2,note_on,60,0,0
2,note_on,66,0,0
2,note_on,62,0,0
2,note_on,57,0,0
2,note_on,69,0,0
2,note_on,60,68,60
2,note_on,57,62,0
2,note_on,62,79,0
2,note_on,50,62,0
2,note_on,50,0,60
2,note_on,60,0,0
2,note_on,57,0,0
2,note_on,62,0,0
2,note_on,60,67,60
2,note_on,62,67,0
2,note_on,66,67,0
2,note_on,69,77,0
2,note_on,50,67,0
2,note_on,57,67,0
2,note_on,57,0,60
2,note_on,62,0,0
2,note_on,66,0,0
2,note_on,60,0,0
2,note_on,50,0,0
2,note_on,69,0,0
2,note_on,60,68,60
2,note_on,62,86,0
2,note_on,57,68,0
2,note_on,50,68,0
2,note_on,50,0,60
2,note_on,60,0,0
2,note_on,62,0,0
2,note_on,57,0,0
2,note_on,66,57,60
2,note_on,60,57,0
2,note_on,62,57,0
2,note_on,57,57,0
2,note_on,69,72,0
2,note_on,50,57,0
2,note_on,50,0,60
2,note_on,60,0,0
2,note_on,62,0,0
2,note_on,66,0,0
2,note_on,69,0,0
2,note_on,57,0,0
2,note_on,43,87,60
2,note_on,43,0,60
2,note_on,62,55,60
2,note_on,67,70,0
2,note_on,59,55,0
2,note_on,55,55,0
2,note_on,55,0,60
2,note_on,62,0,0
2,note_on,67,0,0
2,note_on,59,0,0
2,note_on,59,74,60
2,note_on,55,58,0
2,note_on,55,0,60
2,note_on,59,0,0
2,note_on,59,75,60
2,note_on,55,60,0
2,note_on,55,0,60
2,note_on,59,0,0
2,note_on,58,74,60
2,note_on,55,59,0
2,note_on,55,0,60
2,note_on,58,0,0
2,note_on,55,47,60
2,note_on,58,60,0
2,note_on,58,0,60
2,note_on,55,0,0
2,note_on,45,69,60
2,note_on,45,0,60
2,note_on,57,45,60
2,note_on,62,58,0
2,note_on,55,45,0
2,note_on,52,45,0
2,note_on,52,0,60
2,note_on,57,0,0
2,note_on,62,0,0
2,note_on,55,0,0
2,note_on,52,49,60
2,note_on,57,49,0
2,note_on,62,63,0
2,note_on,55,49,0
2,note_on,55,0,60
2,note_on,52,0,0
2,note_on,57,0,0
2,note_on,62,0,0
2,note_on,52,53,60
2,note_on,57,53,0
2,note_on,62,67,0
2,note_on,55,53,0
2,note_on,55,0,60
2,note_on,52,0,0
2,note_on,57,0,0
2,note_on,62,0,0
2,note_on,55,54,60
2,note_on,57,68,0
2,note_on,52,54,0
2,note_on,52,0,60
2,note_on,57,0,0
2,note_on,55,0,0
2,note_on,57,45,60
2,note_on,55,45,0
2,note_on,61,45,0
2,note_on,52,45,0
2,note_on,64,57,0
2,note_on,64,0,60
2,note_on,61,0,0
2,note_on,57,0,0
2,note_on,55,0,0
2,note_on,52,0,0
2,note_on,50,69,60
2,note_on,50,0,60
2,note_on,57,45,60
2,note_on,62,58,0
2,note_on,54,45,0
2,note_on,54,0,60
2,note_on,62,0,0
2,note_on,57,0,0
2,note_on,54,49,60
2,note_on,57,49,0
2,note_on,62,63,0
2,note_on,62,0,60
2,note_on,57,0,0
2,note_on,54,0,0
2,note_on,54,53,60
2,note_on,57,53,0
2,note_on,62,67,0
2,note_on,62,0,60
2,note_on,57,0,0
2,note_on,54,0,0
2,note_on,57,54,60
2,note_on,62,68,0
2,note_on,54,54,0
2,note_on,54,0,60
2,note_on,62,0,0
2,note_on,57,0,0
2,note_on,57,45,60
2,note_on,54,45,0
2,note_on,62,57,0
2,note_on,62,0,60
2,note_on,54,0,0
2,note_on,57,0,0
2,note_on,50,69,60
2,note_on,50,0,60
2,note_on,62,57,60
2,note_on,60,57,0
2,note_on,66,57,0
2,note_on,69,73,0
2,note_on,57,57,0
2,note_on,57,0,60
2,note_on,66,0,0
2,note_on,62,0,0
2,note_on,60,0,0
2,note_on,69,0,0
2,note_on,60,68,60
2,note_on,57,62,0
2,note_on,62,79,0
2,note_on,62,0,60
2,note_on,57,0,0
2,note_on,60,0,0
2,note_on,60,67,60
2,note_on,62,67,0
2,note_on,66,67,0
2,note_on,69,76,0
2,note_on,57,67,0
2,note_on,57,0,60
2,note_on,66,0,0
2,note_on,60,0,0
2,note_on,62,0,0
2,note_on,69,0,0
2,note_on,60,68,60
2,note_on,62,86,0
2,note_on,57,68,0
2,note_on,57,0,60
2,note_on,62,0,0
2,note_on,60,0,0
2,note_on,66,57,60
2,note_on,60,57,0
2,note_on,62,57,0
2,note_on,57,57,0
2,note_on,69,72,0
2,note_on,69,0,60
2,note_on,62,0,0
2,note_on,66,0,0
2,note_on,60,0,0
2,note_on,57,0,0
2,note_on,55,87,60
2,note_on,55,0,60
2,note_on,59,53,60
2,note_on,62,53,0
2,note_on,62,0,60
2,note_on,59,0,0
2,note_on,59,69,60
2,note_on,62,54,0
2,note_on,62,0,60
2,note_on,59,0,0
2,note_on,59,67,60
2,note_on,62,54,0
2,note_on,62,0,60
2,note_on,59,0,0
2,note_on,59,64,60
2,note_on,62,51,0
2,note_on,62,0,60
2,note_on,59,0,0
2,note_on,62,39,60
2,note_on,59,50,0
2,note_on,59,0,60
2,note_on,62,0,0
2,note_on,43,55,60
2,note_on,55,44,120
2,note_on,60,44,0
2,note_on,60,0,60
2,note_on,55,0,0
2,note_on,55,44,60
2,note_on,60,59,0
2,note_on,52,50,0
2,note_on,60,0,60
2,note_on,55,0,0
2,note_on,55,44,60
2,note_on,60,44,0
2,note_on,60,0,60
2,note_on,55,0,0
2,note_on,52,0,60
2,note_on,51,54,0
2,note_on,55,44,120
2,note_on,60,44,0
2,note_on,60,0,60
2,note_on,55,0,0
2,note_on,51,0,60
2,note_on,55,44,120
2,note_on,59,44,0
2,note_on,59,0,60
2,note_on,55,0,0
2,note_on,55,44,60
2,note_on,59,59,0
2,note_on,59,0,60
2,note_on,55,0,0
2,note_on,55,44,60
2,note_on,59,44,0
2,note_on,59,0,60
2,note_on,55,0,0
2,note_on,43,0,60
2,note_on,55,37,120
2,note_on,59,37,0
2,note_on,59,0,60
2,note_on,55,0,0
2,note_on,43,46,60
2,note_on,55,37,120
2,note_on,60,37,0
2,note_on,60,0,60
2,note_on,55,0,0
2,note_on,55,37,60
2,note_on,60,50,0
2,note_on,52,42,0
2,note_on,60,0,60
2,note_on,55,0,0
2,note_on,55,37,60
2,note_on,60,37,0
2,note_on,60,0,60
2,note_on,55,0,0
2,note_on,52,0,60
2,note_on,51,45,0
2,note_on,55,37,120
2,note_on,60,37,0
2,note_on,60,0,60
2,note_on,55,0,0
2,note_on,51,0,60
2,note_on,50,45,0
2,note_on,55,31,120
2,note_on,59,37,0
2,note_on,59,0,60
2,note_on,55,0,0
2,note_on,55,32,60
2,note_on,59,51,0
2,note_on,59,0,60
2,note_on,55,0,0
2,note_on,55,33,60
2,note_on,59,39,0
2,note_on,59,0,60
2,note_on,55,0,0
2,note_on,50,0,60
2,note_on,43,0,0
2,note_on,55,34,120
2,note_on,59,41,0
2,note_on,59,0,60
2,note_on,55,0,0
2,note_on,55,31,180
2,note_on,59,37,0
2,note_on,59,0,60
2,note_on,55,0,0
2,note_on,31,43,60
2,note_on,43,46,0
2,note_on,55,32,0
2,note_on,59,51,0
2,note_on,59,0,60
2,note_on,55,0,0
2,note_on,55,33,60
2,note_on,59,39,0
2,note_on,59,0,60
2,note_on,55,0,0
2,note_on,43,0,60
2,note_on,31,0,0
2,note_on,55,34,120
2,note_on,59,41,0
2,note_on,59,0,60
2,note_on,55,0,0
2,note_on,59,34,180
2,note_on,62,41,0
2,note_on,62,0,60
2,note_on,59,0,0
2,note_on,32,49,60
2,note_on,44,52,0
2,note_on,59,36,0
2,note_on,62,58,0
2,note_on,62,0,60
2,note_on,59,0,0
2,note_on,59,38,60
2,note_on,62,45,0
2,note_on,62,0,60
2,note_on,59,0,0
2,note_on,44,0,60
2,note_on,32,0,0
2,note_on,59,41,120
2,note_on,62,50,0
2,note_on,62,0,60
2,note_on,59,0,0
2,note_on,59,39,180
2,note_on,62,46,0
2,note_on,62,0,60
2,note_on,59,0,0
2,note_on,52,59,60
2,note_on,40,55,0
2,note_on,59,43,120
2,note_on,62,51,0
2,note_on,62,0,60
2,note_on,59,0,0
2,note_on,40,0,60
2,note_on,52,0,0
2,note_on,59,46,120
2,note_on,62,56,0
2,note_on,62,0,60
2,note_on,59,0,0
2,note_on,57,43,180
2,note_on,61,51,0
2,note_on,61,0,60
2,note_on,57,0,0
2,note_on,33,60,60
2,note_on,45,64,0
2,note_on,57,44,0
2,note_on,61,71,0
2,note_on,61,0,60
2,note_on,57,0,0
2,note_on,57,46,60
2,note_on,61,54,0
2,note_on,61,0,60
2,note_on,57,0,0
2,note_on,45,0,60
2,note_on,33,0,0
2,note_on,57,34,120
2,note_on,61,41,0
2,note_on,61,0,60
2,note_on,57,0,0
2,note_on,57,33,180
2,note_on,61,39,0
2,note_on,61,0,60
2,note_on,57,0,0
2,note_on,33,47,60
2,note_on,45,51,0
2,note_on,57,35,0
2,note_on,61,56,0
2,note_on,61,0,60
2,note_on,57,0,0
2,note_on,57,37,60
2,note_on,61,44,0
2,note_on,61,0,60
2,note_on,57,0,0
2,note_on,45,0,60
2,note_on,33,0,0
2,note_on,57,40,120
2,note_on,61,49,0
2,note_on,61,0,60
2,note_on,57,0,0
2,note_on,61,38,180
2,note_on,64,46,0
2,note_on,64,0,60
2,note_on,61,0,0
2,note_on,34,55,60
2,note_on,46,58,0
2,note_on,61,40,0
2,note_on,64,65,0
2,note_on,64,0,60
2,note_on,61,0,0
2,note_on,61,43,60
2,note_on,64,51,0
2,note_on,64,0,60
2,note_on,61,0,0
2,note_on,46,0,60
2,note_on,34,0,0
2,note_on,61,46,120
2,note_on,64,56,0
2,note_on,64,0,60
2,note_on,61,0,0
2,note_on,61,41,180
2,note_on,64,49,0
2,note_on,64,0,60
2,note_on,61,0,0
2,note_on,54,62,60
2,note_on,42,58,0
2,note_on,61,44,120
2,note_on,64,52,0
2,note_on,64,0,60
2,note_on,61,0,0
2,note_on,42,0,60
2,note_on,54,0,0
2,note_on,61,45,120
2,note_on,64,55,0
2,note_on,64,0,60
2,note_on,61,0,0
2,note_on,59,41,180
2,note_on,63,49,0
2,note_on,63,0,60
2,note_on,59,0,0
2,note_on,35,58,60
2,note_on,47,62,0
2,note_on,59,43,0
2,note_on,63,68,0
2,note_on,63,0,60
2,note_on,59,0,0
2,note_on,59,44,60
2,note_on,63,52,0
2,note_on,63,0,60
2,note_on,59,0,0
2,note_on,47,0,60
2,note_on,35,0,0
2,note_on,47,58,0
2,note_on,59,45,120
2,note_on,63,45,0
2,note_on,66,55,0
2,note_on,66,0,60
2,note_on,63,0,0
2,note_on,59,0,0
2,note_on,47,0,60
2,note_on,47,62,0
2,note_on,66,43,120
2,note_on,69,68,0
2,note_on,69,0,60
2,note_on,66,0,0
2,note_on,47,0,60
2,note_on,49,68,0
2,note_on,66,34,0
2,note_on,69,54,0
2,note_on,69,0,60
2,note_on,66,0,0
2,note_on,49,0,0
2,note_on,51,73,60
2,note_on,66,35,0
2,note_on,69,41,0
2,note_on,69,0,60
2,note_on,66,0,0
2,note_on,51,0,0
2,note_on,52,72,60
2,note_on,52,0,60
2,note_on,54,76,60
2,note_on,66,76,0
2,note_on,69,76,0
2,note_on,69,0,60
2,note_on,66,0,0
2,note_on,54,0,0
2,note_on,55,84,60
2,note_on,59,59,120
2,note_on,67,70,0
2,note_on,64,59,0
2,note_on,64,0,60
2,note_on,67,0,0
2,note_on,59,0,0
2,note_on,64,56,60
2,note_on,67,66,0
2,note_on,59,56,0
2,note_on,59,0,60
2,note_on,67,0,0
2,note_on,64,0,0
2,note_on,64,57,60
2,note_on,67,68,0
2,note_on,59,57,0
2,note_on,59,0,60
2,note_on,67,0,0
2,note_on,64,0,0
2,note_on,64,59,60
2,note_on,67,70,0
2,note_on,59,59,0
2,note_on,59,0,60
2,note_on,67,0,0
2,note_on,64,0,0
2,note_on,64,61,60
2,note_on,67,72,0
2,note_on,59,61,0
2,note_on,59,0,60
2,note_on,67,0,0
2,note_on,64,0,0
2,note_on,55,0,60
2,note_on,47,72,0
2,note_on,47,0,120
2,note_on,55,59,0
2,note_on,62,59,0
2,note_on,65,70,0
2,note_on,65,0,90
2,note_on,62,0,0
2,note_on,55,0,0
2,note_on,65,70,30
2,note_on,62,59,0
2,note_on,55,59,0
2,note_on,55,0,90
2,note_on,62,0,0
2,note_on,65,0,0
2,note_on,55,59,30
2,note_on,62,59,0
2,note_on,65,70,0
2,note_on,65,0,90
2,note_on,62,0,0
2,note_on,55,0,0
2,note_on,55,59,30
2,note_on,62,59,0
2,note_on,65,70,0
2,note_on,65,0,90
2,note_on,62,0,0
2,note_on,55,0,0
2,note_on,55,59,30
2,note_on,62,59,0
2,note_on,65,70,0
2,note_on,65,0,90
2,note_on,62,0,0
2,note_on,55,0,0
2,note_on,48,72,30
2,note_on,48,0,120
2,note_on,55,59,0
2,note_on,60,59,0
2,note_on,64,70,0
2,note_on,64,0,90
2,note_on,60,0,0
2,note_on,55,0,0
2,note_on,64,70,30
2,note_on,60,59,0
2,note_on,55,59,0
2,note_on,55,0,90
2,note_on,60,0,0
2,note_on,64,0,0
2,note_on,60,44,30
2,note_on,64,52,0
2,note_on,64,0,60
2,note_on,60,0,0
2,note_on,60,59,60
2,note_on,64,70,0
2,note_on,43,58,0
2,note_on,64,0,60
2,note_on,60,0,0
2,note_on,60,45,60
2,note_on,64,55,0
2,note_on,64,0,60
2,note_on,60,0,0
2,note_on,43,0,60
2,note_on,43,62,0
2,note_on,62,43,120
2,note_on,65,68,0
2,note_on,65,0,60
2,note_on,62,0,0
2,note_on,43,0,60
2,note_on,45,68,0
2,note_on,62,34,0
2,note_on,65,54,0
2,note_on,65,0,60
2,note_on,62,0,0
2,note_on,45,0,0
2,note_on,47,73,60
2,note_on,62,35,0
2,note_on,65,41,0
2,note_on,65,0,60
2,note_on,62,0,0
2,note_on,47,0,0
2,note_on,48,76,60
2,note_on,48,0,60
2,note_on,50,78,60
2,note_on,62,78,0
2,note_on,65,78,0
2,note_on,65,0,60
2,note_on,62,0,0
2,note_on,50,0,0
2,note_on,52,84,60
2,note_on,55,59,120
2,note_on,64,70,0
2,note_on,60,59,0
2,note_on,60,0,60
2,note_on,64,0,0
2,note_on,55,0,0
2,note_on,60,56,60
2,note_on,64,66,0
2,note_on,55,56,0
2,note_on,55,0,60
2,note_on,64,0,0
2,note_on,60,0,0
2,note_on,60,57,60
2,note_on,64,68,0
2,note_on,55,57,0
2,note_on,55,0,60
2,note_on,64,0,0
2,note_on,60,0,0
2,note_on,60,59,60
2,note_on,64,70,0
2,note_on,55,59,0
2,note_on,55,0,60
2,note_on,64,0,0
2,note_on,60,0,0
2,note_on,60,61,60
2,note_on,64,72,0
2,note_on,55,61,0
2,note_on,55,0,60
2,note_on,64,0,0
2,note_on,60,0,0
2,note_on,52,0,60
2,note_on,44,72,0
2,note_on,44,0,120
2,note_on,52,53,0
2,note_on,59,53,0
2,note_on,62,63,0
2,note_on,62,0,90
2,note_on,59,0,0
2,note_on,52,0,0
2,note_on,62,70,30
2,note_on,59,59,0
2,note_on,52,59,0
2,note_on,52,0,90
2,note_on,59,0,0
2,note_on,62,0,0
2,note_on,52,53,30
2,note_on,59,53,0
2,note_on,62,63,0
2,note_on,62,0,90
2,note_on,59,0,0
2,note_on,52,0,0
2,note_on,52,59,30
2,note_on,59,59,0
2,note_on,62,70,0
2,note_on,62,0,90
2,note_on,59,0,0
2,note_on,52,0,0
2,note_on,52,53,30
2,note_on,59,53,0
2,note_on,62,63,0
2,note_on,62,0,90
2,note_on,59,0,0
2,note_on,52,0,0
2,note_on,45,72,30
2,note_on,45,0,120
2,note_on,57,59,0
2,note_on,60,70,0
2,note_on,60,0,90
2,note_on,57,0,0
2,note_on,60,70,30
2,note_on,57,59,0
2,note_on,57,0,90
2,note_on,60,0,0
2,note_on,55,59,30
2,note_on,57,59,0
2,note_on,60,70,0
2,note_on,60,0,90
2,note_on,57,0,0
2,note_on,55,0,0
2,note_on,55,59,30
2,note_on,57,59,0
2,note_on,60,70,0
2,note_on,60,0,90
2,note_on,57,0,0
2,note_on,55,0,0
2,note_on,54,59,30
2,note_on,57,59,0
2,note_on,60,70,0
2,note_on,60,0,90
2,note_on,57,0,0
2,note_on,54,0,0
2,note_on,51,70,30
2,note_on,54,70,0
2,note_on,57,70,0
2,note_on,59,70,0
2,note_on,59,0,60
2,note_on,51,0,0
2,note_on,54,0,0
2,note_on,57,0,0
2,note_on,54,45,60
2,note_on,51,45,0
2,note_on,57,45,0
2,note_on,59,53,0
2,note_on,54,0,60
2,note_on,51,0,1
2,note_on,57,0,0
2,note_on,59,0,0
2,note_on,54,51,59
2,note_on,59,60,0
2,note_on,57,51,0
2,note_on,51,51,0
2,note_on,54,0,60
2,note_on,59,0,1
2,note_on,57,0,0
2,note_on,51,0,0
2,note_on,54,52,59
2,note_on,51,52,0
2,note_on,57,52,0
2,note_on,59,62,0
2,note_on,54,0,60
2,note_on,51,0,1
2,note_on,57,0,0
2,note_on,59,0,0
2,note_on,54,53,59
2,note_on,51,53,0
2,note_on,57,53,0
2,note_on,59,63,0
2,note_on,54,0,60
2,note_on,51,0,1
2,note_on,57,0,0
2,note_on,59,0,0
2,note_on,54,54,59
2,note_on,51,54,0
2,note_on,57,54,0
2,note_on,59,65,0
2,note_on,54,0,60
2,note_on,51,0,1
2,note_on,57,0,0
2,note_on,59,0,0
2,note_on,52,56,59
2,note_on,55,56,0
2,note_on,59,66,0
2,note_on,59,0,240
2,note_on,55,0,0
2,note_on,52,0,0
2,note_on,64,54,120
2,note_on,67,64,0
2,note_on,67,0,60
2,note_on,64,0,0
2,note_on,64,56,60
2,note_on,67,66,0
2,note_on,67,0,60
2,note_on,64,0,0
2,note_on,67,64,60
2,note_on,64,54,0
2,note_on,64,0,60
2,note_on,67,0,0
2,note_on,62,52,420
2,note_on,66,52,0
2,note_on,67,62,0
2,note_on,67,0,60
2,note_on,66,0,0
2,note_on,62,0,0
2,note_on,62,54,60
2,note_on,66,54,0
2,note_on,67,64,0
2,note_on,67,0,60
2,note_on,66,0,0
2,note_on,62,0,0
2,note_on,62,51,60
2,note_on,67,61,0
2,note_on,66,51,0
2,note_on,66,0,60
2,note_on,67,0,0
2,note_on,62,0,0
2,note_on,61,50,420
2,note_on,64,50,0
2,note_on,67,59,0
2,note_on,67,0,60
2,note_on,64,0,0
2,note_on,61,0,0
2,note_on,61,51,60
2,note_on,64,51,0
2,note_on,67,60,0
2,note_on,67,0,60
2,note_on,64,0,0
2,note_on,61,0,0
2,note_on,61,49,60
2,note_on,67,58,0
2,note_on,64,49,0
2,note_on,64,0,60
2,note_on,67,0,0
2,note_on,61,0,0
2,note_on,62,47,420
2,note_on,66,56,0
2,note_on,66,0,60
2,note_on,62,0,0
2,note_on,62,48,60
2,note_on,66,57,0
2,note_on,66,0,60
2,note_on,62,0,0
2,note_on,62,46,60
2,note_on,66,55,0
2,note_on,66,0,60
2,note_on,62,0,0
2,note_on,59,44,420
2,note_on,62,53,0
2,note_on,62,0,60
2,note_on,59,0,0
2,note_on,59,45,60
2,note_on,62,54,0
2,note_on,62,0,60
2,note_on,59,0,0
2,note_on,59,43,60
2,note_on,62,51,0
2,note_on,62,0,60
2,note_on,59,0,0
2,note_on,55,35,420
2,note_on,59,42,0
2,note_on,59,0,60
2,note_on,55,0,0
2,note_on,55,35,60
2,note_on,59,41,0
2,note_on,59,0,60
2,note_on,55,0,0
2,note_on,55,32,60
2,note_on,59,38,0
2,note_on,59,0,60
2,note_on,55,0,0
2,note_on,50,30,420
2,note_on,55,36,0
2,note_on,55,0,60
2,note_on,50,0,0
2,note_on,50,31,60
2,note_on,55,36,0
2,note_on,55,0,60
2,note_on,50,0,0
2,note_on,50,30,60
2,note_on,55,36,0
2,note_on,55,0,60
2,note_on,50,0,0
2,note_on,43,30,420
2,note_on,47,36,0
2,note_on,47,0,60
2,note_on,43,0,0
2,note_on,43,31,60
2,note_on,47,36,0
2,note_on,47,0,60
2,note_on,43,0,0
2,note_on,43,30,60
2,note_on,47,36,0
2,note_on,47,0,60
2,note_on,43,0,0
2,note_on,42,36,60
2,note_on,46,36,0
2,note_on,46,0,180
2,note_on,42,0,0
2,note_on,55,46,660
2,note_on,52,36,0
2,note_on,49,36,0
2,note_on,47,36,0
2,note_on,47,0,60
2,note_on,55,0,0
2,note_on,52,0,0
2,note_on,49,0,0
2,note_on,47,39,60
2,note_on,49,39,0
2,note_on,52,39,0
2,note_on,55,50,0
2,note_on,55,0,60
2,note_on,47,0,0
2,note_on,49,0,0
2,note_on,52,0,0
2,note_on,55,46,60
2,note_on,52,36,0
2,note_on,49,36,0
2,note_on,47,36,0
2,note_on,47,0,60
2,note_on,55,0,0
2,note_on,52,0,0
2,note_on,49,0,0
2,note_on,47,41,60
2,note_on,49,41,0
2,note_on,52,41,0
2,note_on,55,52,0
2,note_on,55,0,60
2,note_on,47,0,0
2,note_on,49,0,0
2,note_on,52,0,0
2,note_on,55,46,60
2,note_on,52,36,0
2,note_on,49,36,0
2,note_on,47,36,0
2,note_on,47,0,60
2,note_on,55,0,0
2,note_on,52,0,0
2,note_on,49,0,0
2,note_on,46,50,60
2,note_on,49,50,0
2,note_on,54,57,0
2,note_on,54,0,240
2,note_on,49,0,0
2,note_on,46,0,0
2,note_on,55,46,600
2,note_on,52,36,0
2,note_on,49,36,0
2,note_on,47,36,0
2,note_on,47,0,60
2,note_on,55,0,0
2,note_on,52,0,0
2,note_on,49,0,0
2,note_on,47,39,60
2,note_on,49,39,0
2,note_on,52,39,0
2,note_on,55,50,0
2,note_on,55,0,60
2,note_on,47,0,0
2,note_on,49,0,0
2,note_on,52,0,0
2,note_on,55,46,60
2,note_on,52,36,0
2,note_on,49,36,0
2,note_on,47,36,0
2,note_on,47,0,60
2,note_on,55,0,0
2,note_on,52,0,0
2,note_on,49,0,0
2,note_on,47,41,60
2,note_on,49,41,0
2,note_on,52,41,0
2,note_on,55,52,0
2,note_on,55,0,60
2,note_on,47,0,0
2,note_on,49,0,0
2,note_on,52,0,0
2,note_on,55,46,60
2,note_on,52,36,0
2,note_on,49,36,0
2,note_on,47,36,0
2,note_on,47,0,60
2,note_on,55,0,0
2,note_on,52,0,0
2,note_on,49,0,0
2,note_on,46,50,60
2,note_on,49,50,0
2,note_on,54,57,0
2,note_on,54,0,240
2,note_on,49,0,0
2,note_on,46,0,0
2,note_on,54,47,360
2,note_on,54,0,120
2,note_on,57,48,0
2,note_on,57,0,120
2,note_on,59,43,0
2,note_on,59,0,120
2,note_on,61,43,0
2,note_on,61,0,120
2,note_on,62,45,0
2,note_on,62,0,120
2,note_on,64,50,0
2,note_on,64,0,110
2,note_on,57,46,10
2,note_on,57,0,120
2,note_on,61,47,0
2,note_on,61,0,120
2,note_on,62,47,0
2,note_on,62,0,120
2,note_on,64,47,0
2,note_on,64,0,120
2,note_on,66,48,0
2,note_on,66,0,120
2,note_on,67,53,0
2,note_on,67,0,110
2,note_on,58,50,10
2,note_on,58,0,120
2,note_on,61,50,0
2,note_on,61,0,110
2,note_on,62,52,10
2,note_on,62,0,120
2,note_on,64,53,0
2,note_on,64,0,120
2,note_on,66,56,0
2,note_on,66,0,120
2,note_on,67,57,0
2,note_on,67,0,110
2,note_on,66,56,10
2,note_on,66,0,120
2,note_on,64,55,0
2,note_on,64,0,120
2,note_on,66,54,0
2,note_on,66,0,120
2,note_on,67,59,0
2,note_on,67,0,120
2,note_on,66,56,0
2,note_on,66,0,120
2,note_on,64,55,0
2,note_on,64,0,120
2,note_on,62,53,0
2,note_on,62,0,120
2,note_on,61,57,0
2,note_on,61,0,120
2,note_on,62,53,0
2,note_on,62,0,120
2,note_on,64,56,0
2,note_on,64,0,120
2,note_on,62,50,0
2,note_on,62,0,120
2,note_on,61,53,0
2,note_on,61,0,120
2,note_on,59,50,0
2,note_on,59,0,120
2,note_on,58,48,0
2,note_on,58,0,120
2,note_on,59,42,0
2,note_on,59,0,120
2,note_on,61,50,0
2,note_on,61,0,120
2,note_on,58,43,0
2,note_on,58,0,120
2,note_on,55,49,0
2,note_on,55,0,120
2,note_on,54,43,0
2,note_on,54,0,120
2,note_on,52,46,0
2,note_on,52,0,120
2,note_on,54,40,0
2,note_on,54,0,120
2,note_on,55,43,0
2,note_on,55,0,120
2,note_on,52,40,0
2,note_on,52,0,120
2,note_on,50,40,0
2,note_on,50,0,120
2,note_on,49,40,0
2,note_on,49,0,120
2,note_on,61,47,0
2,note_on,46,40,0
2,note_on,46,0,60
2,note_on,61,0,0
2,note_on,54,33,60
2,note_on,61,33,0
2,note_on,64,43,0
2,note_on,64,0,60
2,note_on,61,0,0
2,note_on,54,0,0
2,note_on,54,37,60
2,note_on,61,37,0
2,note_on,64,47,0
2,note_on,64,0,60
2,note_on,61,0,0
2,note_on,54,0,0
2,note_on,54,39,60
2,note_on,61,39,0
2,note_on,64,50,0
2,note_on,64,0,60
2,note_on,61,0,0
2,note_on,54,0,0
2,note_on,54,42,60
2,note_on,61,42,0
2,note_on,64,53,0
2,note_on,64,0,60
2,note_on,61,0,0
2,note_on,54,0,0
2,note_on,54,46,60
2,note_on,61,46,0
2,note_on,64,57,0
2,note_on,64,0,60
2,note_on,61,0,0
2,note_on,54,0,0
2,note_on,47,60,60
2,note_on,47,0,60
2,note_on,62,43,60
2,note_on,59,34,0
2,note_on,54,34,0
2,note_on,54,0,60
2,note_on,59,0,0
2,note_on,62,0,0
2,note_on,54,41,60
2,note_on,59,41,0
2,note_on,62,52,0
2,note_on,62,0,60
2,note_on,59,0,0
2,note_on,54,0,0
2,note_on,54,39,60
2,note_on,59,39,0
2,note_on,62,49,0
2,note_on,62,0,60
2,note_on,59,0,0
2,note_on,54,0,0
2,note_on,62,56,60
2,note_on,59,44,0
2,note_on,54,44,0
2,note_on,54,0,60
2,note_on,59,0,0
2,note_on,62,0,0
2,note_on,54,42,60
2,note_on,59,42,0
2,note_on,62,54,0
2,note_on,62,0,60
2,note_on,59,0,0
2,note_on,54,0,0
2,note_on,43,60,60
2,note_on,43,0,60
2,note_on,64,44,60
2,note_on,59,35,0
2,note_on,55,35,0
2,note_on,55,0,60
2,note_on,59,0,0
2,note_on,64,0,0
2,note_on,55,39,60
2,note_on,59,39,0
2,note_on,64,49,0
2,note_on,64,0,60
2,note_on,59,0,0
2,note_on,55,0,0
2,note_on,55,37,60
2,note_on,59,37,0
2,note_on,64,46,0
2,note_on,64,0,60
2,note_on,59,0,0
2,note_on,55,0,0
2,note_on,55,41,60
2,note_on,59,41,0
2,note_on,64,51,0
2,note_on,64,0,60
2,note_on,59,0,0
2,note_on,55,0,0
2,note_on,55,46,60
2,note_on,59,46,0
2,note_on,64,59,0
2,note_on,64,0,60
2,note_on,59,0,0
2,note_on,55,0,0
2,note_on,42,65,60
2,note_on,42,0,60
2,note_on,64,54,60
2,note_on,58,43,0
2,note_on,54,43,0
2,note_on,54,0,60
2,note_on,58,0,0
2,note_on,64,0,0
2,note_on,64,59,60
2,note_on,58,46,0
2,note_on,54,46,0
2,note_on,54,0,60
2,note_on,58,0,0
2,note_on,64,0,0
2,note_on,64,63,60
2,note_on,58,50,0
2,note_on,54,50,0
2,note_on,54,0,60
2,note_on,58,0,0
2,note_on,64,0,0
2,note_on,64,46,60
2,note_on,61,36,0
2,note_on,54,36,0
2,note_on,54,0,60
2,note_on,61,0,0
2,note_on,64,0,0
2,note_on,54,34,60
2,note_on,61,34,0
2,note_on,64,43,0
2,note_on,64,0,60
2,note_on,61,0,0
2,note_on,54,0,0
2,note_on,46,46,60
2,note_on,46,0,60
2,note_on,54,37,60
2,note_on,61,37,0
2,note_on,64,49,0
2,note_on,64,0,60
2,note_on,61,0,0
2,note_on,54,0,0
2,note_on,54,42,60
2,note_on,61,42,0
2,note_on,64,54,0
2,note_on,64,0,60
2,note_on,61,0,0
2,note_on,54,0,0
2,note_on,54,44,60
2,note_on,61,44,0
2,note_on,64,57,0
2,note_on,64,0,60
2,note_on,61,0,0
2,note_on,54,0,0
2,note_on,54,48,60
2,note_on,61,48,0
2,note_on,64,60,0
2,note_on,64,0,60
2,note_on,61,0,0
2,note_on,54,0,0
2,note_on,54,52,60
2,note_on,61,52,0
2,note_on,64,65,0
2,note_on,64,0,60
2,note_on,61,0,0
2,note_on,54,0,0
2,note_on,47,69,60
2,note_on,47,0,60
2,note_on,62,49,60
2,note_on,59,39,0
2,note_on,54,39,0
2,note_on,54,0,60
2,note_on,59,0,0
2,note_on,62,0,0
2,note_on,54,47,60
2,note_on,59,47,0
2,note_on,62,59,0
2,note_on,62,0,60
2,note_on,59,0,0
2,note_on,54,0,0
2,note_on,54,44,60
2,note_on,59,44,0
2,note_on,62,56,0
2,note_on,62,0,60
2,note_on,59,0,0
2,note_on,54,0,0
2,note_on,62,64,60
2,note_on,59,50,0
2,note_on,54,50,0
2,note_on,54,0,60
2,note_on,59,0,0
2,note_on,62,0,0
2,note_on,54,48,60
2,note_on,59,48,0
2,note_on,62,62,0
2,note_on,62,0,60
2,note_on,59,0,0
2,note_on,54,0,0
2,note_on,43,77,60
2,note_on,43,0,60
2,note_on,64,56,60
2,note_on,59,44,0
2,note_on,55,44,0
2,note_on,55,0,60
2,note_on,59,0,0
2,note_on,64,0,0
2,note_on,55,50,60
2,note_on,59,50,0
2,note_on,64,63,0
2,note_on,64,0,60
2,note_on,59,0,0
2,note_on,55,0,0
2,note_on,55,48,60
2,note_on,59,48,0
2,note_on,64,59,0
2,note_on,64,0,60
2,note_on,59,0,0
2,note_on,55,0,0
2,note_on,55,52,60
2,note_on,59,52,0
2,note_on,64,65,0
2,note_on,64,0,60
2,note_on,59,0,0
2,note_on,55,0,0
2,note_on,55,59,60
2,note_on,59,59,0
2,note_on,64,75,0
2,note_on,64,0,60
2,note_on,59,0,0
2,note_on,55,0,0
2,note_on,42,83,60
2,note_on,42,0,60
2,note_on,54,55,60
2,note_on,58,55,0
2,note_on,64,65,0
2,note_on,64,0,60
2,note_on,58,0,0
2,note_on,54,0,0
2,note_on,54,61,60
2,note_on,58,61,0
2,note_on,64,72,0
2,note_on,64,0,60
2,note_on,58,0,0
2,note_on,54,0,0
2,note_on,54,53,60
2,note_on,58,53,0
2,note_on,64,63,0
2,note_on,64,0,60
2,note_on,58,0,0
2,note_on,54,0,0
2,note_on,54,58,60
2,note_on,58,69,0
2,note_on,64,69,0
2,note_on,64,0,60
2,note_on,58,0,0
2,note_on,54,0,0
2,note_on,54,51,60
2,note_on,58,61,0
2,note_on,64,61,0
2,note_on,64,0,60
2,note_on,58,0,0
2,note_on,54,0,0
2,note_on,64,64,60
2,note_on,58,54,0
2,note_on,54,54,0
2,note_on,54,0,60
2,note_on,58,0,0
2,note_on,64,0,0
2,note_on,64,58,60
2,note_on,58,49,0
2,note_on,54,49,0
2,note_on,54,0,60
2,note_on,58,0,0
2,note_on,64,0,0
2,note_on,66,62,60
2,note_on,64,52,0
2,note_on,58,52,0
2,note_on,54,52,0
2,note_on,54,0,60
2,note_on,66,0,0
2,note_on,64,0,0
2,note_on,58,0,0
2,note_on,66,65,60
2,note_on,64,55,0
2,note_on,58,55,0
2,note_on,54,55,0
2,note_on,54,0,60
2,note_on,66,0,0
2,note_on,64,0,0
2,note_on,58,0,0
2,note_on,66,68,60
2,note_on,64,57,0
2,note_on,58,57,0
2,note_on,54,57,0
2,note_on,54,0,60
2,note_on,66,0,0
2,note_on,64,0,0
2,note_on,58,0,0
2,note_on,66,72,60
2,note_on,64,61,0
2,note_on,58,61,0
2,note_on,54,61,0
2,note_on,54,0,60
2,note_on,66,0,0
2,note_on,64,0,0
2,note_on,58,0,0
2,note_on,62,64,180
2,note_on,59,54,0
2,note_on,59,0,60
2,note_on,62,0,0
2,note_on,61,58,180
2,note_on,54,49,0
2,note_on,54,0,60
2,note_on,61,0,0
2,note_on,55,51,180
2,note_on,59,60,0
2,note_on,59,0,60
2,note_on,55,0,0
2,note_on,57,64,180
2,note_on,51,54,0
2,note_on,51,0,60
2,note_on,57,0,0
2,note_on,55,58,180
2,note_on,52,49,0
2,note_on,52,0,60
2,note_on,55,0,0
2,note_on,51,51,180
2,note_on,57,60,0
2,note_on,57,0,60
2,note_on,51,0,0
2,note_on,55,64,180
2,note_on,52,54,0
2,note_on,52,0,60
2,note_on,55,0,0
2,note_on,62,58,180
2,note_on,56,49,0
2,note_on,56,0,60
2,note_on,62,0,0
2,note_on,57,51,180
2,note_on,61,60,0
2,note_on,61,0,60
2,note_on,57,0,0
2,note_on,59,64,180
2,note_on,53,54,0
2,note_on,53,0,60
2,note_on,59,0,0
2,note_on,57,58,180
2,note_on,54,49,0
2,note_on,54,0,60
2,note_on,57,0,0
2,note_on,53,51,180
2,note_on,59,60,0
2,note_on,59,0,60
2,note_on,53,0,0
2,note_on,57,64,180
2,note_on,54,54,0
2,note_on,54,0,60
2,note_on,57,0,0
2,note_on,68,58,180
2,note_on,61,49,0
2,note_on,61,0,60
2,note_on,68,0,0
2,note_on,62,51,180
2,note_on,66,60,0
2,note_on,66,0,60
2,note_on,62,0,0
2,note_on,64,64,180
2,note_on,58,54,0
2,note_on,58,0,60
2,note_on,64,0,0
2,note_on,62,58,180
2,note_on,59,49,0
2,note_on,59,0,60
2,note_on,62,0,0
2,note_on,58,51,180
2,note_on,64,60,0
2,note_on,64,0,60
2,note_on,58,0,0
2,note_on,62,64,180
2,note_on,59,54,0
2,note_on,59,0,60
2,note_on,62,0,0
2,note_on,54,58,180
2,note_on,50,49,0
2,note_on,50,0,60
2,note_on,54,0,0
2,note_on,51,51,180
2,note_on,54,60,0
2,note_on,54,0,60
2,note_on,51,0,0
2,note_on,52,54,180
2,note_on,59,64,0
2,note_on,55,54,0
2,note_on,55,0,60
2,note_on,59,0,0
2,note_on,52,0,0
2,note_on,59,58,180
2,note_on,54,49,0
2,note_on,54,0,60
2,note_on,59,0,0
2,note_on,55,52,180
2,note_on,59,61,0
2,note_on,59,0,60
2,note_on,55,0,0
2,note_on,54,55,180
2,note_on,62,65,0
2,note_on,59,55,0
2,note_on,59,0,60
2,note_on,62,0,0
2,note_on,54,0,0
2,note_on,59,52,180
2,note_on,62,61,0
2,note_on,54,52,0
2,note_on,54,0,60
2,note_on,62,0,0
2,note_on,59,0,0
2,note_on,59,55,180
2,note_on,54,55,0
2,note_on,62,64,0
2,note_on,62,0,60
2,note_on,54,0,0
2,note_on,59,0,0
2,note_on,54,58,180
2,note_on,64,70,0
2,note_on,58,58,0
2,note_on,58,0,60
2,note_on,64,0,0
2,note_on,54,0,0
2,note_on,59,54,180
2,note_on,64,64,0
2,note_on,54,54,0
2,note_on,54,0,60
2,note_on,64,0,0
2,note_on,59,0,0
2,note_on,61,57,180
2,note_on,54,57,0
2,note_on,64,67,0
2,note_on,64,0,60
2,note_on,54,0,0
2,note_on,61,0,0
2,note_on,43,95,60
2,note_on,43,0,60
2,note_on,74,72,60
2,note_on,71,72,0
2,note_on,67,72,0
2,note_on,62,55,0
2,note_on,55,55,0
2,note_on,55,0,60
2,note_on,67,0,0
2,note_on,74,0,0
2,note_on,71,0,0
2,note_on,62,0,0
2,note_on,74,77,60
2,note_on,71,77,0
2,note_on,67,77,0
2,note_on,62,61,0
2,note_on,55,61,0
2,note_on,55,0,60
2,note_on,67,0,0
2,note_on,74,0,0
2,note_on,71,0,0
2,note_on,62,0,0
2,note_on,74,73,60
2,note_on,71,73,0
2,note_on,67,73,0
2,note_on,62,65,0
2,note_on,55,65,0
2,note_on,55,0,60
2,note_on,67,0,0
2,note_on,74,0,0
2,note_on,71,0,0
2,note_on,62,0,0
2,note_on,74,75,60
2,note_on,71,75,0
2,note_on,67,84,0
2,note_on,62,66,0
2,note_on,55,66,0
2,note_on,55,0,60
2,note_on,67,0,0
2,note_on,74,0,0
2,note_on,71,0,0
2,note_on,62,0,0
2,note_on,74,71,60
2,note_on,71,71,0
2,note_on,55,55,0
2,note_on,62,55,0
2,note_on,67,71,0
2,note_on,67,0,60
2,note_on,55,0,0
2,note_on,74,0,0
2,note_on,71,0,0
2,note_on,62,0,0
2,note_on,67,68,60
2,note_on,65,68,0
2,note_on,71,68,0
2,note_on,74,86,0
2,note_on,62,68,0
2,note_on,55,68,0
2,note_on,55,0,60
2,note_on,65,0,0
2,note_on,71,0,0
2,note_on,67,0,0
2,note_on,62,0,0
2,note_on,74,0,0
2,note_on,67,62,60
2,note_on,65,62,0
2,note_on,71,62,0
2,note_on,74,80,0
2,note_on,62,62,0
2,note_on,55,62,0
2,note_on,55,0,60
2,note_on,65,0,0
2,note_on,71,0,0
2,note_on,67,0,0
2,note_on,62,0,0
2,note_on,74,0,0
2,note_on,65,74,60
2,note_on,62,68,0
2,note_on,67,86,0
2,note_on,55,68,0
2,note_on,55,0,60
2,note_on,65,0,0
2,note_on,62,0,0
2,note_on,67,0,0
2,note_on,65,69,60
2,note_on,67,69,0
2,note_on,71,69,0
2,note_on,74,79,0
2,note_on,55,69,0
2,note_on,62,69,0
2,note_on,62,0,60
2,note_on,67,0,0
2,note_on,71,0,0
2,note_on,65,0,0
2,note_on,55,0,0
2,note_on,74,0,0
2,note_on,65,74,60
2,note_on,67,94,0
2,note_on,62,74,0
2,note_on,55,74,0
2,note_on,55,0,60
2,note_on,65,0,0
2,note_on,67,0,0
2,note_on,62,0,0
2,note_on,65,62,60
2,note_on,67,62,0
2,note_on,62,62,0
2,note_on,74,79,0
2,note_on,55,62,0
2,note_on,55,0,60
2,note_on,62,0,0
2,note_on,65,0,0
2,note_on,67,0,0
2,note_on,74,0,0
2,note_on,48,95,60
2,note_on,48,0,60
2,note_on,55,60,60
2,note_on,67,60,0
2,note_on,72,77,0
2,note_on,64,60,0
2,note_on,60,60,0
2,note_on,60,0,60
2,note_on,72,0,0
2,note_on,55,0,0
2,note_on,67,0,0
2,note_on,64,0,0
2,note_on,55,63,60
2,note_on,64,81,0
2,note_on,60,63,0
2,note_on,60,0,60
2,note_on,64,0,0
2,note_on,55,0,0
2,note_on,55,66,60
2,note_on,64,82,0
2,note_on,60,66,0
2,note_on,60,0,60
2,note_on,64,0,0
2,note_on,55,0,0
2,note_on,55,64,60
2,note_on,63,81,0
2,note_on,60,64,0
2,note_on,60,0,60
2,note_on,63,0,0
2,note_on,55,0,0
2,note_on,55,51,60
2,note_on,60,51,0
2,note_on,63,66,0
2,note_on,63,0,60
2,note_on,60,0,0
2,note_on,55,0,0
2,note_on,50,75,60
2,note_on,50,0,60
2,note_on,62,49,60
2,note_on,67,63,0
2,note_on,60,49,0
2,note_on,57,49,0
2,note_on,57,0,60
2,note_on,62,0,0
2,note_on,67,0,0
2,note_on,60,0,0
2,note_on,57,53,60
2,note_on,62,53,0
2,note_on,67,69,0
2,note_on,60,53,0
2,note_on,60,0,60
2,note_on,57,0,0
2,note_on,62,0,0
2,note_on,67,0,0
2,note_on,57,58,60
2,note_on,62,58,0
2,note_on,67,73,0
2,note_on,60,58,0
2,note_on,60,0,60
2,note_on,57,0,0
2,note_on,62,0,0
2,note_on,67,0,0
2,note_on,60,59,60
2,note_on,62,74,0
2,note_on,57,59,0
2,note_on,57,0,60
2,note_on,62,0,0
2,note_on,60,0,0
2,note_on,62,49,60
2,note_on,60,49,0
2,note_on,66,49,0
2,note_on,57,49,0
2,note_on,69,62,0
2,note_on,69,0,60
2,note_on,66,0,0
2,note_on,62,0,0
2,note_on,60,0,0
2,note_on,57,0,0
2,note_on,55,75,60
2,note_on,55,0,60
2,note_on,62,49,60
2,note_on,67,63,0
2,note_on,59,49,0
2,note_on,59,0,60
2,note_on,67,0,0
2,note_on,62,0,0
2,note_on,59,53,60
2,note_on,62,53,0
2,note_on,67,69,0
2,note_on,67,0,60
2,note_on,62,0,0
2,note_on,59,0,0
2,note_on,59,58,60
2,note_on,62,58,0
2,note_on,67,73,0
2,note_on,67,0,60
2,note_on,62,0,0
2,note_on,59,0,0
2,note_on,62,59,60
2,note_on,67,74,0
2,note_on,59,59,0
2,note_on,59,0,60
2,note_on,67,0,0
2,note_on,62,0,0
2,note_on,62,49,60
2,note_on,59,49,0
2,note_on,67,62,0
2,note_on,67,0,60
2,note_on,59,0,0
2,note_on,62,0,0
2,note_on,43,75,60
2,note_on,43,0,60
2,note_on,65,58,60
2,note_on,55,58,0
2,note_on,67,58,0
2,note_on,71,58,0
2,note_on,74,76,0
2,note_on,62,58,0
2,note_on,62,0,60
2,note_on,55,0,0
2,note_on,67,0,0
2,note_on,65,0,0
2,note_on,74,0,0
2,note_on,71,0,0
2,note_on,65,77,60
2,note_on,55,61,0
2,note_on,62,61,0
2,note_on,67,77,0
2,note_on,67,0,60
2,note_on,65,0,0
2,note_on,55,0,0
2,note_on,62,0,0
2,note_on,65,69,60
2,note_on,55,69,0
2,note_on,67,69,0
2,note_on,71,69,0
2,note_on,74,78,0
2,note_on,62,69,0
2,note_on,62,0,60
2,note_on,55,0,0
2,note_on,67,0,0
2,note_on,65,0,0
2,note_on,74,0,0
2,note_on,71,0,0
2,note_on,65,83,60
2,note_on,55,66,0
2,note_on,67,84,0
2,note_on,62,66,0
2,note_on,62,0,60
2,note_on,65,0,0
2,note_on,55,0,0
2,note_on,67,0,0
2,note_on,65,62,60
2,note_on,71,62,0
2,note_on,55,62,0
2,note_on,67,62,0
2,note_on,62,62,0
2,note_on,74,79,0
2,note_on,74,0,60
2,note_on,71,0,0
2,note_on,55,0,0
2,note_on,65,0,0
2,note_on,62,0,0
2,note_on,67,0,0
2,note_on,48,95,60
2,note_on,48,0,60
2,note_on,67,57,60
2,note_on,72,57,0
2,note_on,55,57,0
2,note_on,64,57,0
2,note_on,60,57,0
2,note_on,60,0,60
2,note_on,55,0,0
2,note_on,67,0,0
2,note_on,72,0,0
2,note_on,64,0,0
2,note_on,55,57,60
2,note_on,64,73,0
2,note_on,60,57,0
2,note_on,60,0,60
2,note_on,64,0,0
2,note_on,55,0,0
2,note_on,55,56,60
2,note_on,64,70,0
2,note_on,60,56,0
2,note_on,60,0,60
2,note_on,64,0,0
2,note_on,55,0,0
2,note_on,55,53,60
2,note_on,64,66,0
2,note_on,60,53,0
2,note_on,60,0,60
2,note_on,64,0,0
2,note_on,55,0,0
2,note_on,55,39,60
2,note_on,60,39,0
2,note_on,64,51,0
2,note_on,64,0,60
2,note_on,60,0,0
2,note_on,55,0,0
2,note_on,48,55,60
2,note_on,60,44,120
2,note_on,65,44,0
2,note_on,65,0,60
2,note_on,60,0,0
2,note_on,60,44,60
2,note_on,65,59,0
2,note_on,57,50,0
2,note_on,65,0,60
2,note_on,60,0,0
2,note_on,60,44,60
2,note_on,65,44,0
2,note_on,65,0,60
2,note_on,60,0,0
2,note_on,57,0,60
2,note_on,56,54,0
2,note_on,60,44,120
2,note_on,65,44,0
2,note_on,65,0,60
2,note_on,60,0,0
2,note_on,56,0,60
2,note_on,55,54,0
2,note_on,60,44,120
2,note_on,64,44,0
2,note_on,64,0,60
2,note_on,60,0,0
2,note_on,60,44,60
2,note_on,64,59,0
2,note_on,64,0,60
2,note_on,60,0,0
2,note_on,60,44,60
2,note_on,64,44,0
2,note_on,64,0,60
2,note_on,60,0,0
2,note_on,55,0,60
2,note_on,48,0,0
2,note_on,60,37,120
2,note_on,64,37,0
2,note_on,64,0,60
2,note_on,60,0,0
2,note_on,53,46,60
2,note_on,48,46,0
2,note_on,60,37,120
2,note_on,65,37,0
2,note_on,65,0,60
2,note_on,60,0,0
2,note_on,60,37,60
2,note_on,65,50,0
2,note_on,57,42,0
2,note_on,65,0,60
2,note_on,60,0,0
2,note_on,60,37,60
2,note_on,65,37,0
2,note_on,65,0,60
2,note_on,60,0,0
2,note_on,57,0,60
2,note_on,56,45,0
2,note_on,60,37,120
2,note_on,65,37,0
2,note_on,65,0,60
2,note_on,60,0,0
2,note_on,56,0,60
2,note_on,53,0,0
2,note_on,52,46,0
2,note_on,55,46,0
2,note_on,60,31,120
2,note_on,64,37,0
2,note_on,64,0,60
2,note_on,60,0,0
2,note_on,60,32,60
2,note_on,64,51,0
2,note_on,64,0,60
2,note_on,60,0,0
2,note_on,60,33,60
2,note_on,64,39,0
2,note_on,64,0,60
2,note_on,60,0,0
2,note_on,60,46,60
2,note_on,64,55,0
2,note_on,64,0,60
2,note_on,60,0,0
2,note_on,60,34,60
2,note_on,64,41,0
2,note_on,64,0,60
2,note_on,60,0,0
2,note_on,48,0,60
2,note_on,52,0,0
2,note_on,55,0,0
2,note_on,64,43,0
2,note_on,60,35,0
2,note_on,60,0,60
2,note_on,64,0,0
2,note_on,60,37,60
2,note_on,64,44,0
2,note_on,64,0,60
2,note_on,60,0,0
2,note_on,60,38,60
2,note_on,64,45,0
2,note_on,64,0,60
2,note_on,60,0,0
2,note_on,60,39,60
2,note_on,64,46,0
2,note_on,64,0,60
2,note_on,60,0,0
2,note_on,64,40,180
2,note_on,67,40,0
2,note_on,67,0,60
2,note_on,64,0,0
2,note_on,63,34,180
2,note_on,66,40,0
2,note_on,66,0,60
2,note_on,63,0,0
2,note_on,39,54,60
2,note_on,51,57,0
2,note_on,63,35,0
2,note_on,66,56,0
2,note_on,66,0,60
2,note_on,63,0,0
2,note_on,63,36,60
2,note_on,66,42,0
2,note_on,66,0,60
2,note_on,63,0,0
2,note_on,51,0,60
2,note_on,39,0,0
2,note_on,60,37,120
2,note_on,66,45,0
2,note_on,66,0,60
2,note_on,60,0,0
2,note_on,59,34,180
2,note_on,64,40,0
2,note_on,64,0,60
2,note_on,59,0,0
2,note_on,59,35,60
2,note_on,64,56,0
2,note_on,40,54,0
2,note_on,52,57,0
2,note_on,64,0,60
2,note_on,59,0,0
2,note_on,59,36,60
2,note_on,64,42,0
2,note_on,64,0,60
2,note_on,59,0,0
2,note_on,40,0,60
2,note_on,52,0,0
2,note_on,59,37,120
2,note_on,64,45,0
2,note_on,64,0,60
2,note_on,59,0,0
2,note_on,58,37,180
2,note_on,61,45,0
2,note_on,61,0,60
2,note_on,58,0,0
2,note_on,42,60,60
2,note_on,54,65,0
2,note_on,64,49,120
2,note_on,61,41,0
2,note_on,61,0,60
2,note_on,64,0,0
2,note_on,54,0,60
2,note_on,42,0,0
2,note_on,64,45,120
2,note_on,67,55,0
2,note_on,67,0,60
2,note_on,64,0,0
2,note_on,67,42,180
2,note_on,70,50,0
2,note_on,70,0,60
2,note_on,67,0,0
2,note_on,47,73,60
2,note_on,35,69,0
2,note_on,66,47,120
2,note_on,71,56,0
2,note_on,71,0,60
2,note_on,66,0,0
2,note_on,35,0,60
2,note_on,47,0,0
2,note_on,64,50,120
2,note_on,67,61,0
2,note_on,67,0,60
2,note_on,64,0,0
2,note_on,63,34,180
2,note_on,66,40,0
2,note_on,66,0,60
2,note_on,63,0,0
2,note_on,39,54,60
2,note_on,51,57,0
2,note_on,63,35,0
2,note_on,66,56,0
2,note_on,66,0,60
2,note_on,63,0,0
2,note_on,63,36,60
2,note_on,66,42,0
2,note_on,66,0,60
2,note_on,63,0,0
2,note_on,51,0,60
2,note_on,39,0,0
2,note_on,60,37,120
2,note_on,66,45,0
2,note_on,66,0,60
2,note_on,60,0,0
2,note_on,59,34,180
2,note_on,64,40,0
2,note_on,64,0,60
2,note_on,59,0,0
2,note_on,59,35,60
2,note_on,64,56,0
2,note_on,40,54,0
2,note_on,52,57,0
2,note_on,64,0,60
2,note_on,59,0,0
2,note_on,59,36,60
2,note_on,64,42,0
2,note_on,64,0,60
2,note_on,59,0,0
2,note_on,40,0,60
2,note_on,52,0,0
2,note_on,59,37,120
2,note_on,64,45,0
2,note_on,64,0,60
2,note_on,59,0,0
2,note_on,58,37,180
2,note_on,61,45,0
2,note_on,61,0,60
2,note_on,58,0,0
2,note_on,42,60,60
2,note_on,54,65,0
2,note_on,64,49,120
2,note_on,61,41,0
2,note_on,61,0,60
2,note_on,64,0,0
2,note_on,54,0,60
2,note_on,42,0,0
2,note_on,64,45,120
2,note_on,67,55,0
2,note_on,67,0,60
2,note_on,64,0,0
2,note_on,67,42,180
2,note_on,70,50,0
2,note_on,70,0,60
2,note_on,67,0,0
2,note_on,47,73,60
2,note_on,35,69,0
2,note_on,66,47,120
2,note_on,71,56,0
2,note_on,71,0,60
2,note_on,66,0,0
2,note_on,35,0,60
2,note_on,47,0,0
2,note_on,64,50,120
2,note_on,67,61,0
2,note_on,67,0,60
2,note_on,64,0,0
2,note_on,66,61,180
2,note_on,59,48,0
2,note_on,57,48,0
2,note_on,54,48,0
2,note_on,51,48,0
2,note_on,69,61,0
2,note_on,69,0,60
2,note_on,59,0,0
2,note_on,57,0,0
2,note_on,66,0,0
2,note_on,51,0,0
2,note_on,54,0,0
2,note_on,51,42,60
2,note_on,54,42,0
2,note_on,57,42,0
2,note_on,59,42,0
2,note_on,66,69,0
2,note_on,69,69,0
2,note_on,69,0,60
2,note_on,54,0,0
2,note_on,57,0,0
2,note_on,51,0,0
2,note_on,66,0,0
2,note_on,59,0,0
2,note_on,69,65,60
2,note_on,66,65,0
2,note_on,59,51,0
2,note_on,57,51,0
2,note_on,54,51,0
2,note_on,51,51,0
2,note_on,51,0,60
2,note_on,66,0,0
2,note_on,59,0,0
2,note_on,69,0,0
2,note_on,54,0,0
2,note_on,57,0,0
2,note_on,51,46,60
2,note_on,54,46,0
2,note_on,57,46,0
2,note_on,59,46,0
2,note_on,66,75,0
2,note_on,69,75,0
2,note_on,69,0,60
2,note_on,54,0,0
2,note_on,57,0,0
2,note_on,51,0,0
2,note_on,66,0,0
2,note_on,59,0,0
2,note_on,69,70,60
2,note_on,66,70,0
2,note_on,59,56,0
2,note_on,57,56,0
2,note_on,54,56,0
2,note_on,51,56,0
2,note_on,51,0,60
2,note_on,66,0,0
2,note_on,59,0,0
2,note_on,69,0,0
2,note_on,54,0,0
2,note_on,57,0,0
2,note_on,51,49,60
2,note_on,54,49,0
2,note_on,57,49,0
2,note_on,59,49,0
2,note_on,66,80,0
2,note_on,69,80,0
2,note_on,69,0,240
2,note_on,54,0,0
2,note_on,51,0,0
2,note_on,57,0,0
2,note_on,66,0,0
2,note_on,68,61,0
2,note_on,64,61,0
2,note_on,56,48,0
2,note_on,52,48,0
2,note_on,52,0,240
2,note_on,64,0,0
2,note_on,59,0,0
2,note_on,68,0,0
2,note_on,56,0,0
2,note_on,68,61,360
2,note_on,61,48,0
2,note_on,59,48,0
2,note_on,56,48,0
2,note_on,53,48,0
2,note_on,71,61,0
2,note_on,71,0,60
2,note_on,61,0,0
2,note_on,59,0,0
2,note_on,68,0,0
2,note_on,53,0,0
2,note_on,56,0,0
2,note_on,53,42,60
2,note_on,56,42,0
2,note_on,59,42,0
2,note_on,61,42,0
2,note_on,68,69,0
2,note_on,71,69,0
2,note_on,71,0,60
2,note_on,56,0,0
2,note_on,59,0,0
2,note_on,53,0,0
2,note_on,68,0,0
2,note_on,61,0,0
2,note_on,71,65,60
2,note_on,68,65,0
2,note_on,61,51,0
2,note_on,59,51,0
2,note_on,56,51,0
2,note_on,53,51,0
2,note_on,53,0,60
2,note_on,68,0,0
2,note_on,61,0,0
2,note_on,71,0,0
2,note_on,56,0,0
2,note_on,59,0,0
2,note_on,53,46,60
2,note_on,56,46,0
2,note_on,59,46,0
2,note_on,61,46,0
2,note_on,68,75,0
2,note_on,71,75,0
2,note_on,71,0,60
2,note_on,56,0,0
2,note_on,59,0,0
2,note_on,53,0,0
2,note_on,68,0,0
2,note_on,61,0,0
2,note_on,71,70,60
2,note_on,68,70,0
2,note_on,61,56,0
2,note_on,59,56,0
2,note_on,56,56,0
2,note_on,53,56,0
2,note_on,53,0,60
2,note_on,68,0,0
2,note_on,61,0,0
2,note_on,71,0,0
2,note_on,56,0,0
2,note_on,59,0,0
2,note_on,54,49,60
2,note_on,59,49,0
2,note_on,61,49,0
2,note_on,66,80,0
2,note_on,71,80,0
2,note_on,71,0,240
2,note_on,61,0,0
2,note_on,54,0,0
2,note_on,59,0,0
2,note_on,66,0,0
2,note_on,64,61,0
2,note_on,55,48,0
2,note_on,55,0,240
2,note_on,64,0,0
2,note_on,62,55,360
2,note_on,59,55,0
2,note_on,54,55,0
2,note_on,54,0,60
2,note_on,59,0,0
2,note_on,62,0,0
2,note_on,54,47,60
2,note_on,59,47,0
2,note_on,62,47,0
2,note_on,62,0,60
2,note_on,59,0,0
2,note_on,54,0,0
2,note_on,62,55,60
2,note_on,59,55,0
2,note_on,54,55,0
2,note_on,54,0,60
2,note_on,59,0,0
2,note_on,62,0,0
2,note_on,54,47,60
2,note_on,59,47,0
2,note_on,62,47,0
2,note_on,62,0,60
2,note_on,59,0,0
2,note_on,54,0,0
2,note_on,62,55,60
2,note_on,59,55,0
2,note_on,54,55,0
2,note_on,54,0,60
2,note_on,59,0,0
2,note_on,62,0,0
2,note_on,64,55,180
2,note_on,61,55,0
2,note_on,54,55,0
2,note_on,54,0,60
2,note_on,61,0,0
2,note_on,64,0,0
2,note_on,54,47,60
2,note_on,61,47,0
2,note_on,64,47,0
2,note_on,64,0,60
2,note_on,61,0,0
2,note_on,54,0,0
2,note_on,64,55,60
2,note_on,61,55,0
2,note_on,54,55,0
2,note_on,54,0,60
2,note_on,61,0,0
2,note_on,64,0,0
2,note_on,54,47,60
2,note_on,61,47,0
2,note_on,64,47,0
2,note_on,64,0,60
2,note_on,61,0,0
2,note_on,54,0,0
2,note_on,64,55,60
2,note_on,61,55,0
2,note_on,54,55,0
2,note_on,54,0,60
2,note_on,61,0,0
2,note_on,64,0,0
2,note_on,59,70,60
2,note_on,62,70,0
2,note_on,62,0,240
2,note_on,59,0,0
2,note_on,54,64,1320
2,note_on,42,64,0
2,note_on,42,0,60
2,note_on,54,0,0
2,note_on,42,55,60
2,note_on,54,55,0
2,note_on,54,0,60
2,note_on,42,0,0
2,note_on,54,64,60
2,note_on,42,64,0
2,note_on,42,0,60
2,note_on,54,0,0
2,note_on,42,55,60
2,note_on,54,55,0
2,note_on,54,0,60
2,note_on,42,0,0
2,note_on,54,64,60
2,note_on,42,64,0
2,note_on,42,0,60
2,note_on,54,0,0
2,note_on,42,66,60
2,note_on,54,66,0
2,note_on,54,0,60
2,note_on,42,0,0
2,note_on,54,64,60
2,note_on,42,64,0
2,note_on,42,0,60
2,note_on,54,0,0
2,note_on,42,55,60
2,note_on,54,55,0
2,note_on,54,0,60
2,note_on,42,0,0
2,note_on,54,64,60
2,note_on,42,64,0
2,note_on,42,0,60
2,note_on,54,0,0
2,note_on,42,55,60
2,note_on,54,55,0
2,note_on,54,0,60
2,note_on,42,0,0
2,note_on,54,64,60
2,note_on,42,64,0
2,note_on,42,0,60
2,note_on,54,0,0
2,note_on,35,82,60
2,note_on,47,82,0
2,note_on,47,0,240
2,note_on,35,0,0
2,note_on,42,74,1320
2,note_on,30,74,0
2,note_on,30,0,60
2,note_on,42,0,0
2,note_on,30,63,60
2,note_on,42,63,0
2,note_on,42,0,60
2,note_on,30,0,0
2,note_on,42,74,60
2,note_on,30,74,0
2,note_on,30,0,60
2,note_on,42,0,0
2,note_on,30,63,60
2,note_on,42,63,0
2,note_on,42,0,60
2,note_on,30,0,0
2,note_on,42,74,60
2,note_on,30,74,0
2,note_on,30,0,60
2,note_on,42,0,0
2,note_on,30,55,60
2,note_on,42,55,0
2,note_on,42,0,60
2,note_on,30,0,0
2,note_on,42,64,60
2,note_on,30,64,0
2,note_on,30,0,60
2,note_on,42,0,0
2,note_on,30,55,60
2,note_on,42,55,0
2,note_on,42,0,60
2,note_on,30,0,0
2,note_on,42,64,60
2,note_on,30,64,0
2,note_on,30,0,60
2,note_on,42,0,0
2,note_on,30,55,60
2,note_on,42,55,0
2,note_on,42,0,60
2,note_on,30,0,0
2,note_on,42,64,60
2,note_on,30,64,0
2,note_on,30,0,60
2,note_on,42,0,0
2,note_on,42,74,180
2,note_on,30,74,0
2,note_on,30,0,60
2,note_on,42,0,0
2,note_on,30,63,60
2,note_on,42,63,0
2,note_on,42,0,60
2,note_on,30,0,0
2,note_on,42,74,60
2,note_on,30,74,0
2,note_on,30,0,60
2,note_on,42,0,0
2,note_on,30,63,60
2,note_on,42,63,0
2,note_on,42,0,60
2,note_on,30,0,0
2,note_on,42,74,60
2,note_on,30,74,0
2,note_on,30,0,60
2,note_on,42,0,0
2,note_on,30,55,60
2,note_on,42,55,0
2,note_on,42,0,60
2,note_on,30,0,0
2,note_on,42,64,60
2,note_on,30,64,0
2,note_on,30,0,60
2,note_on,42,0,0
2,note_on,30,55,60
2,note_on,42,55,0
2,note_on,42,0,60
2,note_on,30,0,0
2,note_on,42,64,60
2,note_on,30,64,0
2,note_on,30,0,60
2,note_on,42,0,0
2,note_on,30,55,60
2,note_on,42,55,0
2,note_on,42,0,60
2,note_on,30,0,0
2,note_on,42,64,60
2,note_on,30,64,0
2,note_on,30,0,60
2,note_on,42,0,0
2,note_on,54,74,180
2,note_on,42,74,0
2,note_on,42,0,60
2,note_on,54,0,0
2,note_on,42,68,60
2,note_on,54,68,0
2,note_on,54,0,60
2,note_on,42,0,0
2,note_on,54,81,60
2,note_on,42,81,0
2,note_on,42,0,60
2,note_on,54,0,0
2,note_on,42,68,60
2,note_on,54,68,0
2,note_on,54,0,60
2,note_on,42,0,0
2,note_on,54,81,60
2,note_on,42,81,0
2,note_on,42,0,60
2,note_on,54,0,0
2,note_on,42,60,60
2,note_on,54,60,0
2,note_on,54,0,60
2,note_on,54,70,60
2,note_on,54,0,60
2,note_on,42,0,60
2,note_on,54,60,0
2,note_on,54,0,60
2,note_on,54,70,60
2,note_on,54,0,60
2,note_on,42,55,60
2,note_on,54,55,0
2,note_on,54,0,60
2,note_on,54,64,60
2,note_on,54,0,60
2,note_on,42,0,60
2,note_on,47,75,0
2,note_on,47,0,60
2,note_on,54,51,60
2,note_on,54,0,60
2,note_on,54,56,60
2,note_on,54,0,60
2,note_on,54,51,60
2,note_on,54,0,60
2,note_on,54,56,60
2,note_on,54,0,60
2,note_on,54,39,60
2,note_on,54,0,60
2,note_on,54,51,60
2,note_on,54,0,60
2,note_on,54,46,60
2,note_on,54,0,60
2,note_on,54,51,60
2,note_on,54,0,60
2,note_on,54,45,60
2,note_on,54,0,60
2,note_on,53,51,60
2,note_on,53,0,60
2,note_on,53,46,60
2,note_on,53,0,60
2,note_on,54,56,60
2,note_on,54,0,60
2,note_on,54,51,60
2,note_on,54,0,60
2,note_on,55,62,60
2,note_on,55,0,60
2,note_on,55,56,60
2,note_on,55,0,60
2,note_on,54,57,60
2,note_on,54,0,60
2,note_on,54,48,60
2,note_on,54,0,60
2,note_on,55,69,60
2,note_on,55,0,60
2,note_on,55,62,60
2,note_on,55,0,60
2,note_on,54,62,60
2,note_on,54,0,60
2,note_on,54,53,60
2,note_on,54,0,60
2,note_on,58,46,60
2,note_on,58,0,60
2,note_on,58,39,60
2,note_on,58,0,60
2,note_on,59,49,60
2,note_on,59,0,60
2,note_on,59,45,60
2,note_on,59,0,60
2,note_on,61,52,60
2,note_on,61,0,60
2,note_on,61,49,60
2,note_on,61,0,60
2,note_on,62,53,60
2,note_on,62,0,60
2,note_on,62,51,60
2,note_on,62,0,60
2,note_on,64,64,60
2,note_on,64,0,60
2,note_on,64,62,60
2,note_on,64,0,60
2,note_on,66,67,60
2,note_on,66,0,60
2,note_on,66,61,60
2,note_on,66,0,60
2,note_on,64,68,60
2,note_on,64,0,60
2,note_on,64,58,60
2,note_on,64,0,60
2,note_on,62,67,60
2,note_on,62,0,60
2,note_on,62,59,60
2,note_on,62,0,60
2,note_on,60,62,60
2,note_on,60,0,60
2,note_on,60,51,60
2,note_on,60,0,60
2,note_on,59,60,60
2,note_on,59,0,60
2,note_on,59,51,60
2,note_on,59,0,60
2,note_on,58,53,60
2,note_on,58,0,60
2,note_on,58,49,60
2,note_on,58,0,60
2,note_on,59,52,60
2,note_on,59,0,60
2,note_on,59,47,60
2,note_on,59,0,60
2,note_on,54,52,60
2,note_on,54,0,60
2,note_on,54,49,60
2,note_on,54,0,60
2,note_on,55,51,60
2,note_on,55,0,60
2,note_on,55,42,60
2,note_on,55,0,60
2,note_on,53,57,60
2,note_on,53,0,60
2,note_on,53,38,60
2,note_on,53,0,60
2,note_on,54,43,60
2,note_on,54,0,60
2,note_on,54,34,60
2,note_on,54,0,60
2,note_on,49,42,60
2,note_on,49,0,60
2,note_on,49,36,60
2,note_on,49,0,60
2,note_on,50,42,60
2,note_on,50,0,60
2,note_on,50,35,60
2,note_on,50,0,60
2,note_on,59,40,60
2,note_on,54,32,0
2,note_on,42,32,0
2,note_on,42,0,60
2,note_on,54,0,0
2,note_on,59,0,0
2,note_on,42,30,60
2,note_on,54,30,0
2,note_on,59,38,0
2,note_on,59,0,60
2,note_on,54,0,0
2,note_on,42,0,0
2,note_on,59,33,60
2,note_on,54,33,0
2,note_on,47,40,0
2,note_on,47,0,60
2,note_on,54,0,0
2,note_on,59,0,0
2,note_on,59,34,60
2,note_on,54,34,0
2,note_on,47,34,0
2,note_on,62,45,0
2,note_on,62,0,60
2,note_on,59,0,0
2,note_on,54,0,0
2,note_on,47,0,0
2,note_on,59,40,60
2,note_on,54,40,0
2,note_on,47,40,0
2,note_on,62,40,0
2,note_on,66,51,0
2,note_on,66,0,60
2,note_on,47,0,0
2,note_on,59,0,0
2,note_on,54,0,0
2,note_on,62,0,0
2,note_on,59,45,60
2,note_on,54,45,0
2,note_on,47,45,0
2,note_on,62,45,0
2,note_on,66,58,0
2,note_on,66,0,60
2,note_on,47,0,0
2,note_on,59,0,0
2,note_on,54,0,0
2,note_on,62,0,0
2,note_on,59,53,60
2,note_on,54,53,0
2,note_on,47,53,0
2,note_on,62,53,0
2,note_on,66,67,0
2,note_on,66,0,60
2,note_on,47,0,0
2,note_on,59,0,0
2,note_on,54,0,0
2,note_on,62,0,0
2,note_on,59,63,60
2,note_on,54,63,0
2,note_on,47,63,0
2,note_on,62,63,0
2,note_on,66,78,0
2,note_on,66,0,60
2,note_on,47,0,0
2,note_on,59,0,0
2,note_on,54,0,0
2,note_on,62,0,0
2,note_on,62,62,60
2,note_on,66,74,0
2,note_on,59,62,0
2,note_on,54,52,0
2,note_on,47,52,0
2,note_on,47,0,60
2,note_on,59,0,0
2,note_on,62,0,0
2,note_on,66,0,0
2,note_on,54,0,0
2,note_on,66,62,60
2,note_on,59,52,0
2,note_on,54,44,0
2,note_on,47,44,0
2,note_on,62,52,0
2,note_on,62,0,60
2,note_on,54,0,0
2,note_on,66,0,0
2,note_on,59,0,0
2,note_on,47,0,0
2,note_on,59,58,60
2,note_on,54,49,0
2,note_on,47,49,0
2,note_on,62,58,0
2,note_on,66,69,0
2,note_on,66,0,60
2,note_on,47,0,0
2,note_on,59,0,0
2,note_on,54,0,0
2,note_on,62,0,0
2,note_on,59,54,60
2,note_on,54,45,0
2,note_on,47,45,0
2,note_on,62,54,0
2,note_on,66,63,0
2,note_on,66,0,60
2,note_on,47,0,0
2,note_on,59,0,0
2,note_on,54,0,0
2,note_on,62,0,0
2,note_on,59,59,60
2,note_on,54,50,0
2,note_on,47,50,0
2,note_on,62,59,0
2,note_on,66,70,0
2,note_on,66,0,60
2,note_on,47,0,0
2,note_on,59,0,0
2,note_on,54,0,0
2,note_on,62,0,0
2,note_on,66,62,60
2,note_on,62,53,0
2,note_on,47,44,0
2,note_on,54,44,0
2,note_on,59,53,0
2,note_on,59,0,60
2,note_on,47,0,0
2,note_on,66,0,0
2,note_on,62,0,0
2,note_on,54,0,0
2,note_on,62,57,60
2,note_on,66,68,0
2,note_on,59,57,0
2,note_on,54,48,0
2,note_on,47,48,0
2,note_on,47,0,60
2,note_on,59,0,0
2,note_on,62,0,0
2,note_on,66,0,0
2,note_on,54,0,0
2,note_on,66,58,60
2,note_on,59,49,0
2,note_on,54,40,0
2,note_on,47,40,0
2,note_on,62,49,0
2,note_on,62,0,60
2,note_on,54,0,0
2,note_on,66,0,0
2,note_on,59,0,0
2,note_on,47,0,0
2,note_on,59,55,60
2,note_on,54,46,0
2,note_on,47,46,0
2,note_on,62,55,0
2,note_on,66,65,0
2,note_on,66,0,60
2,note_on,47,0,0
2,note_on,59,0,0
2,note_on,54,0,0
2,note_on,62,0,0
2,note_on,59,49,60
2,note_on,54,41,0
2,note_on,47,41,0
2,note_on,62,49,0
2,note_on,66,58,0
2,note_on,66,0,60
2,note_on,47,0,0
2,note_on,59,0,0
2,note_on,54,0,0
2,note_on,62,0,0
2,note_on,59,53,60
2,note_on,54,44,0
2,note_on,47,44,0
2,note_on,62,53,0
2,note_on,66,63,0
2,note_on,66,0,60
2,note_on,47,0,0
2,note_on,59,0,0
2,note_on,54,0,0
2,note_on,62,0,0
2,note_on,66,59,60
2,note_on,62,50,0
2,note_on,47,42,0
2,note_on,54,42,0
2,note_on,59,50,0
2,note_on,59,0,60
2,note_on,47,0,0
2,note_on,66,0,0
2,note_on,62,0,0
2,note_on,54,0,0
2,note_on,66,65,60
2,note_on,62,55,0
2,note_on,59,55,0
2,note_on,54,46,0
2,note_on,47,46,0
2,note_on,47,0,180
2,note_on,59,0,0
2,note_on,66,0,0
2,note_on,62,0,0
2,note_on,54,0,0
2,note_on,66,55,60
2,note_on,62,46,0
2,note_on,59,46,0
2,note_on,54,39,0
2,note_on,47,39,0
2,note_on,47,0,180
2,note_on,59,0,0
2,note_on,66,0,0
2,note_on,62,0,0
2,note_on,54,0,0
2,note_on,66,53,60
2,note_on,62,45,0
2,note_on,59,45,0
2,note_on,54,38,0
2,note_on,47,38,0
2,note_on,47,0,180
2,note_on,59,0,0
2,note_on,66,0,0
2,note_on,62,0,0
2,note_on,54,0,0
2,note_on,62,36,60
2,note_on,66,44,0
2,note_on,59,36,0
2,note_on,54,30,0
2,note_on,47,30,0
2,note_on,47,0,240
2,note_on,59,0,0
2,note_on,62,0,0
2,note_on,66,0,0
2,note_on,54,0,0
2,note_on,47,27,480
2,note_on,54,27,0
2,note_on,59,33,0
2,note_on,62,33,0
2,note_on,66,40,0
2,note_on,66,0,240
2,note_on,59,0,0
2,note_on,47,0,0
2,note_on,54,0,0
2,note_on,62,0,0
2,note_on,47,24,480
2,note_on,54,24,0
2,note_on,59,29,0
2,note_on,62,29,0
2,note_on,66,35,0
2,note_on,66,0,240
2,note_on,59,0,0
2,note_on,47,0,0
2,note_on,54,0,0
2,note_on,62,0,0
