Track,Message Type,Note,Velocity,Time
1,note_on,64,70,720
1,note_on,64,0,960
1,note_on,61,69,0
1,note_on,61,0,120
1,note_on,64,72,0
1,note_on,64,0,120
1,note_on,69,75,0
1,note_on,69,0,120
1,note_on,73,77,0
1,note_on,73,0,120
1,note_on,76,85,0
1,note_on,76,0,960
1,note_on,73,73,0
1,note_on,73,0,120
1,note_on,76,77,0
1,note_on,76,0,120
1,note_on,81,80,0
1,note_on,81,0,120
1,note_on,85,81,0
1,note_on,85,0,120
1,note_on,88,87,0
1,note_on,83,79,240
1,note_on,76,67,0
1,note_on,76,0,60
1,note_on,83,0,0
1,note_on,83,70,180
1,note_on,76,59,0
1,note_on,76,0,60
1,note_on,83,0,0
1,note_on,88,0,180
1,note_on,88,81,0
1,note_on,85,81,0
1,note_on,81,68,0
1,note_on,81,0,240
1,note_on,85,0,0
1,note_on,76,59,0
1,note_on,83,70,0
1,note_on,83,0,60
1,note_on,76,0,0
1,note_on,76,59,180
1,note_on,83,70,0
1,note_on,83,0,60
1,note_on,76,0,0
1,note_on,88,0,180
1,note_on,88,76,0
1,note_on,85,76,0
1,note_on,81,64,0
1,note_on,81,0,240
1,note_on,85,0,0
1,note_on,76,59,0
1,note_on,83,70,0
1,note_on,83,0,60
1,note_on,76,0,0
1,note_on,76,59,180
1,note_on,83,70,0
1,note_on,83,0,60
1,note_on,76,0,0
1,note_on,88,0,180
1,note_on,88,83,0
1,note_on,81,71,0
1,note_on,81,0,480
1,note_on,88,0,0
1,note_on,64,59,600
1,note_on,69,70,0
1,note_on,69,0,108
1,note_on,64,0,0
1,note_on,69,68,12
1,note_on,64,57,0
1,note_on,64,0,180
1,note_on,69,0,0
1,note_on,64,59,60
1,note_on,69,70,0
1,note_on,69,0,240
1,note_on,64,0,0
1,note_on,71,69,0
1,note_on,68,58,0
1,note_on,68,0,240
1,note_on,71,0,0
1,note_on,73,69,0
1,note_on,69,69,0
1,note_on,64,58,0
1,note_on,64,0,120
1,note_on,69,0,0
1,note_on,73,0,0
1,note_on,73,73,120
1,note_on,69,73,0
1,note_on,64,62,0
1,note_on,64,0,480
1,note_on,69,0,0
1,note_on,73,0,0
1,note_on,73,65,0
1,note_on,69,55,0
1,note_on,69,0,180
1,note_on,73,0,0
1,note_on,69,59,60
1,note_on,73,70,0
1,note_on,73,0,240
1,note_on,69,0,0
1,note_on,74,66,0
1,note_on,71,56,0
1,note_on,71,0,240
1,note_on,74,0,0
1,note_on,76,64,0
1,note_on,73,54,0
1,note_on,69,54,0
1,note_on,69,0,120
1,note_on,73,0,0
1,note_on,76,0,0
1,note_on,76,78,120
1,note_on,73,66,0
1,note_on,69,66,0
1,note_on,69,0,360
1,note_on,73,0,0
1,note_on,76,0,0
1,note_on,74,59,0
1,note_on,78,70,0
1,note_on,78,0,108
1,note_on,74,0,0
1,note_on,74,62,12
1,note_on,78,73,0
1,note_on,78,0,180
1,note_on,74,0,0
1,note_on,81,80,60
1,note_on,78,68,0
1,note_on,69,68,0
1,note_on,69,0,360
1,note_on,78,0,0
1,note_on,81,0,0
1,note_on,78,61,0
1,note_on,81,72,0
1,note_on,81,0,108
1,note_on,78,0,0
1,note_on,81,72,12
1,note_on,78,61,0
1,note_on,78,0,180
1,note_on,81,0,0
1,note_on,69,66,60
1,note_on,78,66,0
1,note_on,81,78,0
1,note_on,81,0,240
1,note_on,78,0,0
1,note_on,69,0,0
1,note_on,80,66,0
1,note_on,76,56,0
1,note_on,76,0,240
1,note_on,80,0,0
1,note_on,78,66,0
1,note_on,74,56,0
1,note_on,74,0,120
1,note_on,78,0,0
1,note_on,78,76,120
1,note_on,74,64,0
1,note_on,69,64,0
1,note_on,69,0,720
1,note_on,74,0,0
1,note_on,78,0,0
1,note_on,76,66,0
1,note_on,73,56,0
1,note_on,73,0,240
1,note_on,76,0,0
1,note_on,64,59,120
1,note_on,69,70,0
1,note_on,69,0,108
1,note_on,64,0,0
1,note_on,69,68,12
1,note_on,64,57,0
1,note_on,64,0,180
1,note_on,69,0,0
1,note_on,64,59,60
1,note_on,69,70,0
1,note_on,69,0,240
1,note_on,64,0,0
1,note_on,71,69,0
1,note_on,68,58,0
1,note_on,68,0,240
1,note_on,71,0,0
1,note_on,73,69,0
1,note_on,69,69,0
1,note_on,64,58,0
1,note_on,64,0,120
1,note_on,69,0,0
1,note_on,73,0,0
1,note_on,73,73,120
1,note_on,69,73,0
1,note_on,64,62,0
1,note_on,64,0,480
1,note_on,69,0,0
1,note_on,73,0,0
1,note_on,73,65,0
1,note_on,69,55,0
1,note_on,69,0,180
1,note_on,73,0,0
1,note_on,69,59,60
1,note_on,73,70,0
1,note_on,73,0,240
1,note_on,69,0,0
1,note_on,74,66,0
1,note_on,71,56,0
1,note_on,71,0,240
1,note_on,74,0,0
1,note_on,76,64,0
1,note_on,73,54,0
1,note_on,69,54,0
1,note_on,69,0,120
1,note_on,73,0,0
1,note_on,76,0,0
1,note_on,76,78,120
1,note_on,73,66,0
1,note_on,69,66,0
1,note_on,69,0,360
1,note_on,73,0,0
1,note_on,76,0,0
1,note_on,73,44,0
1,note_on,78,52,0
1,note_on,78,0,108
1,note_on,73,0,0
1,note_on,73,46,12
1,note_on,78,54,0
1,note_on,78,0,180
1,note_on,73,0,0
1,note_on,81,60,60
1,note_on,73,51,0
1,note_on,73,0,360
1,note_on,81,0,0
1,note_on,73,45,0
1,note_on,81,54,0
1,note_on,81,0,108
1,note_on,73,0,0
1,note_on,81,54,12
1,note_on,73,45,0
1,note_on,73,0,180
1,note_on,81,0,0
1,note_on,73,51,60
1,note_on,81,60,0
1,note_on,81,0,240
1,note_on,80,60,0
1,note_on,80,0,240
1,note_on,78,60,0
1,note_on,78,0,240
1,note_on,85,60,0
1,note_on,85,0,240
1,note_on,81,60,0
1,note_on,81,0,240
1,note_on,80,55,0
1,note_on,80,0,240
1,note_on,78,55,0
1,note_on,78,0,360
1,note_on,73,0,0
1,note_on,73,45,0
1,note_on,78,54,0
1,note_on,78,0,108
1,note_on,73,0,0
1,note_on,78,54,12
1,note_on,73,45,0
1,note_on,73,0,180
1,note_on,78,0,0
1,note_on,73,51,60
1,note_on,81,60,0
1,note_on,81,0,360
1,note_on,81,54,0
1,note_on,81,0,108
1,note_on,81,54,12
1,note_on,81,0,180
1,note_on,81,60,60
1,note_on,81,0,240
1,note_on,80,60,0
1,note_on,80,0,240
1,note_on,78,60,0
1,note_on,78,0,240
1,note_on,85,60,0
1,note_on,85,0,240
1,note_on,81,60,0
1,note_on,81,0,240
1,note_on,80,55,0
1,note_on,80,0,240
1,note_on,78,55,0
1,note_on,78,0,240
1,note_on,73,0,0
1,note_on,83,83,0
1,note_on,71,70,0
1,note_on,71,0,120
1,note_on,83,0,0
1,note_on,71,66,120
1,note_on,83,78,0
1,note_on,83,0,120
1,note_on,71,0,0
1,note_on,71,74,120
1,note_on,83,88,0
1,note_on,83,0,720
1,note_on,71,0,0
1,note_on,71,71,0
1,note_on,83,84,0
1,note_on,83,0,720
1,note_on,71,0,0
1,note_on,71,86,0
1,note_on,83,86,0
1,note_on,71,0,360
1,note_on,71,71,0
1,note_on,71,0,108
1,note_on,71,71,12
1,note_on,71,0,120
1,note_on,71,85,120
1,note_on,71,0,240
1,note_on,83,0,0
1,note_on,76,58,0
1,note_on,71,49,0
1,note_on,71,0,120
1,note_on,76,0,0
1,note_on,71,45,120
1,note_on,76,53,0
1,note_on,76,0,120
1,note_on,71,0,0
1,note_on,76,62,120
1,note_on,71,52,0
1,note_on,71,0,240
1,note_on,76,0,0
1,note_on,75,45,0
1,note_on,78,53,0
1,note_on,78,0,240
1,note_on,75,0,0
1,note_on,80,49,0
1,note_on,76,41,0
1,note_on,76,0,120
1,note_on,80,0,0
1,note_on,80,53,120
1,note_on,76,45,0
1,note_on,76,0,480
1,note_on,80,0,0
1,note_on,80,55,0
1,note_on,76,46,0
1,note_on,76,0,120
1,note_on,80,0,0
1,note_on,80,78,120
1,note_on,76,66,0
1,note_on,76,0,240
1,note_on,80,0,0
1,note_on,85,68,0
1,note_on,85,0,240
1,note_on,88,71,0
1,note_on,88,0,120
1,note_on,88,79,120
1,note_on,88,0,360
1,note_on,76,72,0
1,note_on,73,61,0
1,note_on,73,0,108
1,note_on,76,0,0
1,note_on,76,75,12
1,note_on,73,63,0
1,note_on,73,0,120
1,note_on,76,0,0
1,note_on,76,81,120
1,note_on,71,69,0
1,note_on,71,0,240
1,note_on,76,0,0
1,note_on,75,59,0
1,note_on,78,70,0
1,note_on,78,0,240
1,note_on,75,0,0
1,note_on,80,66,0
1,note_on,76,55,0
1,note_on,76,0,120
1,note_on,80,0,0
1,note_on,80,72,120
1,note_on,76,61,0
1,note_on,76,0,480
1,note_on,80,0,0
1,note_on,80,77,0
1,note_on,76,63,0
1,note_on,76,0,120
1,note_on,80,0,0
1,note_on,80,96,120
1,note_on,76,82,0
1,note_on,76,0,240
1,note_on,80,0,0
1,note_on,85,85,0
1,note_on,85,0,240
1,note_on,88,91,0
1,note_on,88,0,120
1,note_on,88,102,120
1,note_on,88,0,360
1,note_on,76,83,0
1,note_on,73,70,0
1,note_on,73,0,108
1,note_on,76,0,0
1,note_on,76,86,12
1,note_on,73,73,0
1,note_on,73,0,120
1,note_on,76,0,0
1,note_on,76,83,120
1,note_on,71,70,0
1,note_on,71,0,360
1,note_on,76,0,0
1,note_on,78,88,0
1,note_on,78,0,120
1,note_on,80,81,0
1,note_on,80,0,120
1,note_on,80,97,120
1,note_on,76,82,0
1,note_on,76,0,240
1,note_on,80,0,0
1,note_on,83,85,0
1,note_on,83,0,240
1,note_on,88,90,0
1,note_on,88,0,120
1,note_on,81,95,120
1,note_on,76,95,0
1,note_on,88,112,0
1,note_on,88,0,960
1,note_on,76,0,0
1,note_on,81,0,0
1,note_on,87,78,0
1,note_on,87,0,120
1,note_on,85,72,120
1,note_on,85,0,120
1,note_on,83,80,120
1,note_on,83,0,120
1,note_on,81,68,120
1,note_on,81,0,120
1,note_on,80,61,120
1,note_on,80,0,120
1,note_on,81,72,120
1,note_on,81,0,120
1,note_on,78,62,120
1,note_on,78,0,120
1,note_on,75,62,120
1,note_on,75,0,120
1,note_on,95,81,120
1,note_on,83,68,0
1,note_on,83,0,960
1,note_on,95,0,0
1,note_on,81,59,0
1,note_on,93,70,0
1,note_on,93,0,120
1,note_on,81,0,0
1,note_on,80,59,120
1,note_on,92,70,0
1,note_on,92,0,120
1,note_on,80,0,0
1,note_on,90,79,120
1,note_on,78,67,0
1,note_on,78,0,120
1,note_on,90,0,0
1,note_on,76,59,120
1,note_on,88,70,0
1,note_on,88,0,120
1,note_on,76,0,0
1,note_on,75,59,120
1,note_on,87,70,0
1,note_on,87,0,120
1,note_on,75,0,0
1,note_on,85,76,120
1,note_on,73,64,0
1,note_on,73,0,120
1,note_on,85,0,0
1,note_on,71,59,120
1,note_on,83,70,0
1,note_on,83,0,120
1,note_on,71,0,0
1,note_on,70,59,120
1,note_on,82,70,0
1,note_on,82,0,120
1,note_on,70,0,0
1,note_on,80,78,120
1,note_on,68,66,0
1,note_on,68,0,120
1,note_on,80,0,0
1,note_on,78,64,120
1,note_on,66,54,0
1,note_on,66,0,120
1,note_on,78,0,0
1,note_on,76,64,120
1,note_on,64,54,0
1,note_on,64,0,120
1,note_on,76,0,0
1,note_on,75,70,120
1,note_on,63,59,0
1,note_on,63,0,120
1,note_on,75,0,0
1,note_on,76,61,120
1,note_on,64,51,0
1,note_on,64,0,120
1,note_on,76,0,0
1,note_on,73,61,120
1,note_on,61,51,0
1,note_on,61,0,120
1,note_on,73,0,0
1,note_on,71,69,120
1,note_on,59,58,0
1,note_on,59,0,120
1,note_on,71,0,0
1,note_on,76,53,120
1,note_on,64,45,0
1,note_on,64,0,120
1,note_on,76,0,0
1,note_on,68,53,120
1,note_on,64,45,0
1,note_on,64,0,120
1,note_on,68,0,0
1,note_on,71,62,120
1,note_on,63,52,0
1,note_on,63,0,120
1,note_on,71,0,0
1,note_on,69,45,120
1,note_on,63,38,0
1,note_on,63,0,120
1,note_on,69,0,0
1,note_on,66,45,120
1,note_on,63,38,0
1,note_on,63,0,120
1,note_on,66,0,0
1,note_on,64,57,120
1,note_on,64,0,240
1,note_on,64,59,840
1,note_on,69,70,0
1,note_on,69,0,108
1,note_on,64,0,0
1,note_on,69,68,12
1,note_on,64,57,0
1,note_on,64,0,180
1,note_on,69,0,0
1,note_on,64,59,60
1,note_on,69,70,0
1,note_on,69,0,240
1,note_on,64,0,0
1,note_on,71,69,0
1,note_on,68,58,0
1,note_on,68,0,240
1,note_on,71,0,0
1,note_on,73,69,0
1,note_on,69,69,0
1,note_on,64,58,0
1,note_on,64,0,120
1,note_on,69,0,0
1,note_on,73,0,0
1,note_on,73,73,120
1,note_on,69,73,0
1,note_on,64,62,0
1,note_on,64,0,480
1,note_on,69,0,0
1,note_on,73,0,0
1,note_on,73,65,0
1,note_on,69,55,0
1,note_on,69,0,180
1,note_on,73,0,0
1,note_on,69,59,60
1,note_on,73,70,0
1,note_on,73,0,240
1,note_on,69,0,0
1,note_on,74,66,0
1,note_on,71,56,0
1,note_on,71,0,240
1,note_on,74,0,0
1,note_on,76,64,0
1,note_on,73,54,0
1,note_on,69,54,0
1,note_on,69,0,120
1,note_on,73,0,0
1,note_on,76,0,0
1,note_on,76,78,120
1,note_on,73,66,0
1,note_on,69,66,0
1,note_on,69,0,360
1,note_on,73,0,0
1,note_on,76,0,0
1,note_on,74,59,0
1,note_on,78,70,0
1,note_on,78,0,108
1,note_on,74,0,0
1,note_on,74,62,12
1,note_on,78,73,0
1,note_on,78,0,180
1,note_on,74,0,0
1,note_on,81,80,60
1,note_on,78,68,0
1,note_on,69,68,0
1,note_on,69,0,360
1,note_on,78,0,0
1,note_on,81,0,0
1,note_on,78,61,0
1,note_on,81,72,0
1,note_on,81,0,108
1,note_on,78,0,0
1,note_on,81,72,12
1,note_on,78,61,0
1,note_on,78,0,180
1,note_on,81,0,0
1,note_on,69,66,60
1,note_on,78,66,0
1,note_on,81,78,0
1,note_on,81,0,240
1,note_on,78,0,0
1,note_on,69,0,0
1,note_on,80,66,0
1,note_on,76,56,0
1,note_on,76,0,240
1,note_on,80,0,0
1,note_on,78,66,0
1,note_on,74,56,0
1,note_on,74,0,120
1,note_on,78,0,0
1,note_on,78,76,120
1,note_on,74,64,0
1,note_on,69,64,0
1,note_on,69,0,720
1,note_on,74,0,0
1,note_on,78,0,0
1,note_on,76,66,0
1,note_on,73,56,0
1,note_on,73,0,240
1,note_on,76,0,0
1,note_on,64,59,120
1,note_on,69,70,0
1,note_on,69,0,108
1,note_on,64,0,0
1,note_on,69,68,12
1,note_on,64,57,0
1,note_on,64,0,180
1,note_on,69,0,0
1,note_on,64,59,60
1,note_on,69,70,0
1,note_on,69,0,240
1,note_on,64,0,0
1,note_on,71,69,0
1,note_on,68,58,0
1,note_on,68,0,240
1,note_on,71,0,0
1,note_on,73,69,0
1,note_on,69,69,0
1,note_on,64,58,0
1,note_on,64,0,120
1,note_on,69,0,0
1,note_on,73,0,0
1,note_on,73,73,120
1,note_on,69,73,0
1,note_on,64,62,0
1,note_on,64,0,480
1,note_on,69,0,0
1,note_on,73,0,0
1,note_on,73,65,0
1,note_on,69,55,0
1,note_on,69,0,180
1,note_on,73,0,0
1,note_on,69,59,60
1,note_on,73,70,0
1,note_on,73,0,240
1,note_on,69,0,0
1,note_on,74,66,0
1,note_on,71,56,0
1,note_on,71,0,240
1,note_on,74,0,0
1,note_on,76,64,0
1,note_on,73,54,0
1,note_on,69,54,0
1,note_on,69,0,120
1,note_on,73,0,0
1,note_on,76,0,0
1,note_on,76,78,120
1,note_on,73,66,0
1,note_on,69,66,0
1,note_on,69,0,360
1,note_on,73,0,0
1,note_on,76,0,0
1,note_on,73,44,0
1,note_on,78,52,0
1,note_on,78,0,108
1,note_on,73,0,0
1,note_on,73,46,12
1,note_on,78,54,0
1,note_on,78,0,180
1,note_on,73,0,0
1,note_on,81,60,60
1,note_on,73,51,0
1,note_on,73,0,360
1,note_on,81,0,0
1,note_on,73,45,0
1,note_on,81,54,0
1,note_on,81,0,108
1,note_on,73,0,0
1,note_on,81,54,12
1,note_on,73,45,0
1,note_on,73,0,180
1,note_on,81,0,0
1,note_on,73,51,60
1,note_on,81,60,0
1,note_on,81,0,240
1,note_on,80,60,0
1,note_on,80,0,240
1,note_on,78,60,0
1,note_on,78,0,240
1,note_on,85,60,0
1,note_on,85,0,240
1,note_on,81,60,0
1,note_on,81,0,240
1,note_on,80,55,0
1,note_on,80,0,240
1,note_on,78,55,0
1,note_on,78,0,360
1,note_on,73,0,0
1,note_on,73,45,0
1,note_on,78,54,0
1,note_on,78,0,108
1,note_on,73,0,0
1,note_on,78,54,12
1,note_on,73,45,0
1,note_on,73,0,180
1,note_on,78,0,0
1,note_on,73,51,60
1,note_on,81,60,0
1,note_on,81,0,360
1,note_on,81,54,0
1,note_on,81,0,108
1,note_on,81,54,12
1,note_on,81,0,180
1,note_on,81,60,60
1,note_on,81,0,240
1,note_on,80,60,0
1,note_on,80,0,240
1,note_on,78,60,0
1,note_on,78,0,240
1,note_on,85,60,0
1,note_on,85,0,240
1,note_on,81,60,0
1,note_on,81,0,240
1,note_on,80,55,0
1,note_on,80,0,240
1,note_on,78,55,0
1,note_on,78,0,240
1,note_on,73,0,0
1,note_on,83,83,0
1,note_on,71,70,0
1,note_on,71,0,120
1,note_on,83,0,0
1,note_on,71,66,120
1,note_on,83,78,0
1,note_on,83,0,120
1,note_on,71,0,0
1,note_on,71,74,120
1,note_on,83,88,0
1,note_on,83,0,720
1,note_on,71,0,0
1,note_on,71,71,0
1,note_on,83,84,0
1,note_on,83,0,720
1,note_on,71,0,0
1,note_on,71,86,0
1,note_on,83,86,0
1,note_on,71,0,360
1,note_on,71,71,0
1,note_on,71,0,108
1,note_on,71,71,12
1,note_on,71,0,120
1,note_on,71,85,120
1,note_on,71,0,240
1,note_on,83,0,0
1,note_on,76,58,0
1,note_on,71,49,0
1,note_on,71,0,120
1,note_on,76,0,0
1,note_on,71,45,120
1,note_on,76,53,0
1,note_on,76,0,120
1,note_on,71,0,0
1,note_on,76,62,120
1,note_on,71,52,0
1,note_on,71,0,240
1,note_on,76,0,0
1,note_on,75,45,0
1,note_on,78,53,0
1,note_on,78,0,240
1,note_on,75,0,0
1,note_on,80,49,0
1,note_on,76,41,0
1,note_on,76,0,120
1,note_on,80,0,0
1,note_on,80,53,120
1,note_on,76,45,0
1,note_on,76,0,480
1,note_on,80,0,0
1,note_on,80,55,0
1,note_on,76,46,0
1,note_on,76,0,120
1,note_on,80,0,0
1,note_on,80,78,120
1,note_on,76,66,0
1,note_on,76,0,240
1,note_on,80,0,0
1,note_on,85,68,0
1,note_on,85,0,240
1,note_on,88,71,0
1,note_on,88,0,120
1,note_on,88,79,120
1,note_on,88,0,360
1,note_on,76,72,0
1,note_on,73,61,0
1,note_on,73,0,108
1,note_on,76,0,0
1,note_on,76,75,12
1,note_on,73,63,0
1,note_on,73,0,120
1,note_on,76,0,0
1,note_on,76,81,120
1,note_on,71,69,0
1,note_on,71,0,240
1,note_on,76,0,0
1,note_on,75,59,0
1,note_on,78,70,0
1,note_on,78,0,240
1,note_on,75,0,0
1,note_on,80,66,0
1,note_on,76,55,0
1,note_on,76,0,120
1,note_on,80,0,0
1,note_on,80,72,120
1,note_on,76,61,0
1,note_on,76,0,480
1,note_on,80,0,0
1,note_on,80,77,0
1,note_on,76,63,0
1,note_on,76,0,120
1,note_on,80,0,0
1,note_on,80,96,120
1,note_on,76,82,0
1,note_on,76,0,240
1,note_on,80,0,0
1,note_on,85,85,0
1,note_on,85,0,240
1,note_on,88,91,0
1,note_on,88,0,120
1,note_on,88,102,120
1,note_on,88,0,360
1,note_on,76,83,0
1,note_on,73,70,0
1,note_on,73,0,108
1,note_on,76,0,0
1,note_on,76,86,12
1,note_on,73,73,0
1,note_on,73,0,120
1,note_on,76,0,0
1,note_on,76,83,120
1,note_on,71,70,0
1,note_on,71,0,360
1,note_on,76,0,0
1,note_on,78,88,0
1,note_on,78,0,120
1,note_on,80,81,0
1,note_on,80,0,120
1,note_on,80,97,120
1,note_on,76,82,0
1,note_on,76,0,240
1,note_on,80,0,0
1,note_on,83,85,0
1,note_on,83,0,240
1,note_on,88,90,0
1,note_on,88,0,120
1,note_on,81,95,120
1,note_on,76,95,0
1,note_on,88,112,0
1,note_on,88,0,960
1,note_on,76,0,0
1,note_on,81,0,0
1,note_on,87,78,0
1,note_on,87,0,120
1,note_on,85,72,120
1,note_on,85,0,120
1,note_on,83,80,120
1,note_on,83,0,120
1,note_on,81,68,120
1,note_on,81,0,120
1,note_on,80,61,120
1,note_on,80,0,120
1,note_on,81,72,120
1,note_on,81,0,120
1,note_on,78,62,120
1,note_on,78,0,120
1,note_on,75,62,120
1,note_on,75,0,120
1,note_on,95,81,120
1,note_on,83,68,0
1,note_on,83,0,960
1,note_on,95,0,0
1,note_on,81,59,0
1,note_on,93,70,0
1,note_on,93,0,120
1,note_on,81,0,0
1,note_on,80,59,120
1,note_on,92,70,0
1,note_on,92,0,120
1,note_on,80,0,0
1,note_on,90,79,120
1,note_on,78,67,0
1,note_on,78,0,120
1,note_on,90,0,0
1,note_on,76,59,120
1,note_on,88,70,0
1,note_on,88,0,120
1,note_on,76,0,0
1,note_on,75,59,120
1,note_on,87,70,0
1,note_on,87,0,120
1,note_on,75,0,0
1,note_on,85,76,120
1,note_on,73,64,0
1,note_on,73,0,120
1,note_on,85,0,0
1,note_on,71,59,120
1,note_on,83,70,0
1,note_on,83,0,120
1,note_on,71,0,0
1,note_on,70,59,120
1,note_on,82,70,0
1,note_on,82,0,120
1,note_on,70,0,0
1,note_on,80,78,120
1,note_on,68,66,0
1,note_on,68,0,120
1,note_on,80,0,0
1,note_on,78,64,120
1,note_on,66,54,0
1,note_on,66,0,120
1,note_on,78,0,0
1,note_on,76,64,120
1,note_on,64,54,0
1,note_on,64,0,120
1,note_on,76,0,0
1,note_on,75,70,120
1,note_on,63,59,0
1,note_on,63,0,120
1,note_on,75,0,0
1,note_on,76,61,120
1,note_on,64,51,0
1,note_on,64,0,120
1,note_on,76,0,0
1,note_on,73,61,120
1,note_on,61,51,0
1,note_on,61,0,120
1,note_on,73,0,0
1,note_on,71,69,120
1,note_on,59,58,0
1,note_on,59,0,120
1,note_on,71,0,0
1,note_on,76,53,120
1,note_on,64,45,0
1,note_on,64,0,120
1,note_on,76,0,0
1,note_on,68,53,120
1,note_on,64,45,0
1,note_on,64,0,120
1,note_on,68,0,0
1,note_on,71,62,120
1,note_on,63,52,0
1,note_on,63,0,120
1,note_on,71,0,0
1,note_on,69,45,120
1,note_on,63,38,0
1,note_on,63,0,120
1,note_on,69,0,0
1,note_on,66,45,120
1,note_on,63,38,0
1,note_on,63,0,120
1,note_on,66,0,0
1,note_on,64,57,120
1,note_on,64,0,240
1,note_on,68,70,480
1,note_on,80,83,0
1,note_on,80,0,713
1,note_on,68,0,0
1,note_on,68,74,7
1,note_on,80,88,0
1,note_on,80,0,713
1,note_on,68,0,0
1,note_on,68,71,7
1,note_on,80,84,0
1,note_on,68,0,230
1,note_on,80,0,483
1,note_on,80,78,7
1,note_on,68,66,0
1,note_on,68,0,240
1,note_on,80,0,0
1,note_on,69,63,0
1,note_on,81,75,0
1,note_on,81,0,240
1,note_on,69,0,0
1,note_on,68,61,0
1,note_on,80,72,0
1,note_on,80,0,120
1,note_on,68,0,0
1,note_on,68,66,120
1,note_on,80,78,0
1,note_on,80,0,120
1,note_on,68,0,0
1,note_on,68,59,120
1,note_on,80,70,0
1,note_on,80,0,120
1,note_on,68,0,0
1,note_on,68,59,120
1,note_on,80,70,0
1,note_on,80,0,120
1,note_on,68,0,0
1,note_on,68,74,120
1,note_on,80,88,0
1,note_on,80,0,713
1,note_on,68,0,0
1,note_on,68,71,7
1,note_on,80,84,0
1,note_on,68,0,230
1,note_on,80,0,483
1,note_on,68,74,7
1,note_on,80,88,0
1,note_on,80,0,713
1,note_on,68,0,0
1,note_on,80,85,247
1,note_on,73,72,0
1,note_on,73,0,120
1,note_on,80,0,0
1,note_on,73,64,120
1,note_on,80,77,0
1,note_on,80,0,120
1,note_on,73,0,0
1,note_on,80,85,120
1,note_on,73,72,0
1,note_on,73,0,240
1,note_on,80,0,0
1,note_on,69,69,0
1,note_on,78,82,0
1,note_on,78,0,240
1,note_on,69,0,0
1,note_on,73,67,0
1,note_on,80,79,0
1,note_on,80,0,120
1,note_on,73,0,0
1,note_on,81,85,120
1,note_on,78,72,0
1,note_on,78,0,240
1,note_on,81,0,0
1,note_on,85,81,0
1,note_on,85,0,240
1,note_on,73,68,0
1,note_on,80,81,0
1,note_on,80,0,120
1,note_on,73,0,0
1,note_on,73,72,120
1,note_on,80,85,0
1,note_on,80,0,480
1,note_on,73,0,0
1,note_on,80,85,480
1,note_on,73,72,0
1,note_on,73,0,120
1,note_on,80,0,0
1,note_on,73,64,120
1,note_on,80,77,0
1,note_on,80,0,120
1,note_on,73,0,0
1,note_on,80,85,120
1,note_on,73,72,0
1,note_on,73,0,240
1,note_on,80,0,0
1,note_on,69,69,0
1,note_on,78,82,0
1,note_on,78,0,240
1,note_on,69,0,0
1,note_on,73,67,0
1,note_on,80,79,0
1,note_on,80,0,120
1,note_on,73,0,0
1,note_on,81,85,120
1,note_on,78,72,0
1,note_on,78,0,240
1,note_on,81,0,0
1,note_on,85,81,0
1,note_on,85,0,240
1,note_on,73,68,0
1,note_on,80,81,0
1,note_on,80,0,120
1,note_on,73,0,0
1,note_on,80,85,120
1,note_on,73,72,0
1,note_on,73,0,713
1,note_on,80,0,0
1,note_on,69,72,7
1,note_on,81,85,0
1,note_on,81,0,713
1,note_on,69,0,0
1,note_on,69,72,7
1,note_on,81,85,0
1,note_on,81,0,713
1,note_on,69,0,0
1,note_on,68,72,7
1,note_on,80,85,0
1,note_on,80,0,713
1,note_on,68,0,0
1,note_on,66,72,7
1,note_on,78,85,0
1,note_on,78,0,713
1,note_on,66,0,0
1,note_on,64,72,7
1,note_on,76,85,0
1,note_on,76,0,713
1,note_on,64,0,0
1,note_on,57,72,7
1,note_on,69,85,0
1,note_on,69,0,713
1,note_on,57,0,0
1,note_on,56,72,7
1,note_on,68,85,0
1,note_on,68,0,713
1,note_on,56,0,0
1,note_on,54,72,7
1,note_on,66,85,0
1,note_on,66,0,713
1,note_on,54,0,0
1,note_on,64,90,7
1,note_on,64,0,240
1,note_on,73,80,0
1,note_on,61,68,0
1,note_on,61,0,120
1,note_on,73,0,0
1,note_on,73,80,120
1,note_on,61,68,0
1,note_on,61,0,120
1,note_on,73,0,0
1,note_on,63,72,120
1,note_on,75,85,0
1,note_on,75,0,120
1,note_on,63,0,0
1,note_on,76,80,120
1,note_on,64,68,0
1,note_on,64,0,120
1,note_on,76,0,0
1,note_on,78,80,120
1,note_on,66,68,0
1,note_on,66,0,120
1,note_on,78,0,0
1,note_on,63,72,120
1,note_on,75,85,0
1,note_on,75,0,120
1,note_on,63,0,0
1,note_on,76,81,120
1,note_on,64,68,0
1,note_on,64,0,120
1,note_on,76,0,0
1,note_on,78,81,120
1,note_on,66,68,0
1,note_on,66,0,120
1,note_on,78,0,0
1,note_on,68,72,120
1,note_on,80,85,0
1,note_on,80,0,120
1,note_on,68,0,0
1,note_on,81,79,120
1,note_on,69,66,0
1,note_on,69,0,120
1,note_on,81,0,0
1,note_on,83,76,120
1,note_on,71,64,0
1,note_on,71,0,120
1,note_on,83,0,0
1,note_on,69,66,120
1,note_on,81,79,0
1,note_on,81,0,120
1,note_on,69,0,0
1,note_on,83,72,120
1,note_on,71,61,0
1,note_on,71,0,120
1,note_on,83,0,0
1,note_on,85,70,120
1,note_on,73,59,0
1,note_on,73,0,120
1,note_on,85,0,0
1,note_on,76,72,120
1,note_on,80,72,0
1,note_on,76,0,240
1,note_on,75,67,0
1,note_on,75,0,240
1,note_on,73,67,0
1,note_on,73,0,240
1,note_on,80,0,0
1,note_on,75,72,0
1,note_on,80,72,0
1,note_on,75,0,240
1,note_on,72,68,0
1,note_on,72,0,240
1,note_on,68,68,0
1,note_on,68,0,240
1,note_on,80,0,0
1,note_on,73,80,0
1,note_on,73,0,120
1,note_on,80,80,120
1,note_on,77,68,0
1,note_on,73,68,0
1,note_on,73,0,120
1,note_on,77,0,0
1,note_on,80,0,0
1,note_on,80,88,120
1,note_on,77,74,0
1,note_on,73,74,0
1,note_on,73,0,120
1,note_on,77,0,0
1,note_on,80,0,0
1,note_on,81,95,120
1,note_on,78,80,0
1,note_on,78,0,720
1,note_on,81,0,0
1,note_on,73,80,0
1,note_on,73,0,120
1,note_on,80,80,120
1,note_on,77,68,0
1,note_on,73,68,0
1,note_on,73,0,120
1,note_on,77,0,0
1,note_on,80,0,0
1,note_on,80,88,120
1,note_on,77,74,0
1,note_on,73,74,0
1,note_on,73,0,120
1,note_on,77,0,0
1,note_on,80,0,0
1,note_on,81,95,120
1,note_on,78,80,0
1,note_on,78,0,720
1,note_on,81,0,0
1,note_on,85,105,0
1,note_on,80,89,0
1,note_on,77,89,0
1,note_on,73,89,0
1,note_on,73,0,480
1,note_on,85,0,0
1,note_on,80,0,0
1,note_on,77,0,0
1,note_on,73,76,0
1,note_on,85,90,0
1,note_on,85,0,180
1,note_on,73,0,0
1,note_on,73,80,60
1,note_on,85,95,0
1,note_on,85,0,180
1,note_on,73,0,0
1,note_on,85,88,60
1,note_on,73,74,0
1,note_on,73,0,180
1,note_on,85,0,0
1,note_on,85,89,60
1,note_on,73,75,0
1,note_on,73,0,180
1,note_on,85,0,0
1,note_on,85,105,60
1,note_on,73,89,0
1,note_on,73,0,480
1,note_on,85,0,0
1,note_on,73,76,0
1,note_on,85,90,0
1,note_on,85,0,180
1,note_on,73,0,0
1,note_on,73,80,60
1,note_on,85,95,0
1,note_on,85,0,180
1,note_on,73,0,0
1,note_on,85,88,60
1,note_on,73,74,0
1,note_on,73,0,180
1,note_on,85,0,0
1,note_on,85,89,60
1,note_on,73,75,0
1,note_on,73,0,180
1,note_on,85,0,0
1,note_on,88,105,60
1,note_on,85,89,0
1,note_on,80,89,0
1,note_on,76,89,0
1,note_on,76,0,480
1,note_on,88,0,0
1,note_on,85,0,0
1,note_on,80,0,0
1,note_on,76,76,0
1,note_on,88,90,0
1,note_on,88,0,180
1,note_on,76,0,0
1,note_on,76,80,60
1,note_on,88,95,0
1,note_on,88,0,180
1,note_on,76,0,0
1,note_on,88,88,60
1,note_on,76,74,0
1,note_on,76,0,180
1,note_on,88,0,0
1,note_on,88,89,60
1,note_on,76,75,0
1,note_on,76,0,180
1,note_on,88,0,0
1,note_on,88,105,60
1,note_on,76,89,0
1,note_on,76,0,480
1,note_on,88,0,0
1,note_on,76,72,0
1,note_on,88,85,0
1,note_on,88,0,180
1,note_on,76,0,0
1,note_on,76,76,60
1,note_on,88,90,0
1,note_on,88,0,180
1,note_on,76,0,0
1,note_on,88,70,60
1,note_on,76,59,0
1,note_on,76,0,180
1,note_on,88,0,0
1,note_on,88,71,60
1,note_on,76,60,0
1,note_on,76,0,180
1,note_on,88,0,0
1,note_on,88,76,60
1,note_on,76,64,0
1,note_on,76,0,180
1,note_on,88,0,0
1,note_on,88,70,60
1,note_on,76,59,0
1,note_on,76,0,180
1,note_on,88,0,0
1,note_on,76,60,60
1,note_on,88,71,0
1,note_on,88,0,180
1,note_on,76,0,0
1,note_on,88,76,60
1,note_on,76,64,0
1,note_on,76,0,180
1,note_on,88,0,0
1,note_on,88,70,60
1,note_on,76,59,0
1,note_on,76,0,180
1,note_on,88,0,0
1,note_on,88,71,60
1,note_on,76,60,0
1,note_on,76,0,180
1,note_on,88,0,0
1,note_on,88,76,60
1,note_on,76,64,0
1,note_on,76,0,180
1,note_on,88,0,0
1,note_on,88,70,60
1,note_on,76,59,0
1,note_on,76,0,180
1,note_on,88,0,0
1,note_on,76,60,60
1,note_on,88,71,0
1,note_on,88,0,180
1,note_on,76,0,0
1,note_on,88,76,60
1,note_on,76,64,0
1,note_on,76,0,180
1,note_on,88,0,0
1,note_on,90,66,60
1,note_on,78,56,0
1,note_on,78,0,180
1,note_on,90,0,0
1,note_on,90,64,60
1,note_on,78,53,0
1,note_on,78,0,180
1,note_on,90,0,0
1,note_on,93,68,60
1,note_on,81,57,0
1,note_on,81,0,180
1,note_on,93,0,0
1,note_on,81,52,60
1,note_on,93,62,0
1,note_on,93,0,180
1,note_on,81,0,0
1,note_on,81,53,60
1,note_on,93,63,0
1,note_on,93,0,180
1,note_on,81,0,0
1,note_on,93,67,60
1,note_on,81,47,0
1,note_on,81,0,180
1,note_on,93,0,0
1,note_on,93,63,60
1,note_on,81,54,0
1,note_on,81,0,180
1,note_on,93,0,0
1,note_on,81,52,60
1,note_on,93,62,0
1,note_on,93,0,180
1,note_on,81,0,0
1,note_on,93,61,60
1,note_on,81,51,0
1,note_on,81,0,240
1,note_on,93,0,0
1,note_on,64,59,840
1,note_on,69,70,0
1,note_on,69,0,108
1,note_on,64,0,0
1,note_on,69,68,12
1,note_on,64,57,0
1,note_on,64,0,180
1,note_on,69,0,0
1,note_on,64,59,60
1,note_on,69,70,0
1,note_on,69,0,240
1,note_on,64,0,0
1,note_on,71,69,0
1,note_on,68,58,0
1,note_on,68,0,240
1,note_on,71,0,0
1,note_on,73,69,0
1,note_on,69,69,0
1,note_on,64,58,0
1,note_on,64,0,120
1,note_on,69,0,0
1,note_on,73,0,0
1,note_on,73,73,120
1,note_on,69,73,0
1,note_on,64,62,0
1,note_on,64,0,480
1,note_on,69,0,0
1,note_on,73,0,0
1,note_on,73,65,0
1,note_on,69,55,0
1,note_on,69,0,180
1,note_on,73,0,0
1,note_on,69,59,60
1,note_on,73,70,0
1,note_on,73,0,240
1,note_on,69,0,0
1,note_on,74,66,0
1,note_on,71,56,0
1,note_on,71,0,240
1,note_on,74,0,0
1,note_on,76,64,0
1,note_on,73,54,0
1,note_on,73,0,120
1,note_on,76,0,0
1,note_on,76,54,120
1,note_on,73,54,0
1,note_on,73,0,240
1,note_on,76,0,0
1,note_on,74,50,0
1,note_on,74,0,240
1,note_on,73,43,0
1,note_on,73,0,240
1,note_on,69,49,0
1,note_on,71,55,0
1,note_on,71,0,360
1,note_on,69,0,0
1,note_on,71,45,0
1,note_on,69,45,0
1,note_on,69,0,108
1,note_on,71,0,0
1,note_on,71,45,12
1,note_on,69,45,0
1,note_on,69,0,180
1,note_on,71,0,0
1,note_on,69,49,60
1,note_on,74,54,0
1,note_on,74,0,240
1,note_on,73,50,0
1,note_on,73,0,240
1,note_on,71,43,0
1,note_on,71,0,240
1,note_on,78,54,0
1,note_on,78,0,240
1,note_on,74,50,0
1,note_on,74,0,240
1,note_on,73,50,0
1,note_on,73,0,240
1,note_on,71,55,0
1,note_on,71,0,360
1,note_on,69,0,0
1,note_on,71,45,0
1,note_on,69,45,0
1,note_on,69,0,108
1,note_on,71,0,0
1,note_on,71,45,12
1,note_on,69,45,0
1,note_on,69,0,180
1,note_on,71,0,0
1,note_on,69,49,60
1,note_on,71,55,0
1,note_on,71,0,360
1,note_on,71,45,0
1,note_on,71,0,108
1,note_on,71,45,12
1,note_on,71,0,180
1,note_on,74,54,60
1,note_on,74,0,240
1,note_on,73,50,0
1,note_on,73,0,240
1,note_on,71,43,0
1,note_on,71,0,240
1,note_on,78,54,0
1,note_on,78,0,240
1,note_on,74,50,0
1,note_on,74,0,240
1,note_on,73,50,0
1,note_on,73,0,240
1,note_on,71,55,0
1,note_on,71,0,233
1,note_on,69,0,7
1,note_on,71,45,0
1,note_on,69,45,0
1,note_on,71,0,220
1,note_on,69,0,8
1,note_on,71,45,12
1,note_on,69,45,0
1,note_on,69,0,180
1,note_on,71,0,0
1,note_on,78,90,60
1,note_on,78,0,960
1,note_on,75,78,0
1,note_on,75,0,120
1,note_on,73,72,120
1,note_on,73,0,120
1,note_on,71,78,120
1,note_on,83,90,0
1,note_on,83,0,960
1,note_on,71,0,0
1,note_on,80,97,0
1,note_on,80,0,120
1,note_on,78,90,120
1,note_on,78,0,120
1,note_on,88,101,120
1,note_on,76,85,0
1,note_on,76,0,960
1,note_on,88,0,0
1,note_on,74,70,0
1,note_on,86,84,0
1,note_on,86,0,120
1,note_on,74,0,0
1,note_on,73,70,120
1,note_on,85,83,0
1,note_on,85,0,120
1,note_on,73,0,0
1,note_on,83,94,120
1,note_on,71,79,0
1,note_on,71,0,120
1,note_on,83,0,0
1,note_on,69,69,120
1,note_on,81,82,0
1,note_on,81,0,120
1,note_on,69,0,0
1,note_on,68,69,120
1,note_on,80,81,0
1,note_on,80,0,120
1,note_on,68,0,0
1,note_on,78,88,120
1,note_on,66,74,0
1,note_on,66,0,120
1,note_on,78,0,0
1,note_on,64,67,120
1,note_on,76,80,0
1,note_on,76,0,120
1,note_on,64,0,0
1,note_on,62,67,120
1,note_on,74,79,0
1,note_on,74,0,120
1,note_on,62,0,0
1,note_on,73,88,120
1,note_on,61,74,0
1,note_on,61,0,120
1,note_on,73,0,0
1,note_on,71,71,120
1,note_on,59,60,0
1,note_on,59,0,120
1,note_on,71,0,0
1,note_on,69,71,120
1,note_on,57,59,0
1,note_on,57,0,120
1,note_on,69,0,0
1,note_on,68,77,120
1,note_on,56,65,0
1,note_on,56,0,120
1,note_on,68,0,0
1,note_on,69,67,120
1,note_on,57,56,0
1,note_on,57,0,120
1,note_on,69,0,0
1,note_on,66,66,120
1,note_on,54,55,0
1,note_on,54,0,120
1,note_on,66,0,0
1,note_on,64,74,120
1,note_on,52,62,0
1,note_on,52,0,120
1,note_on,64,0,0
1,note_on,69,56,120
1,note_on,57,48,0
1,note_on,57,0,120
1,note_on,69,0,0
1,note_on,61,56,120
1,note_on,57,47,0
1,note_on,57,0,120
1,note_on,61,0,0
1,note_on,64,65,120
1,note_on,56,54,0
1,note_on,56,0,120
1,note_on,64,0,0
1,note_on,62,46,120
1,note_on,56,39,0
1,note_on,56,0,120
1,note_on,62,0,0
1,note_on,59,46,120
1,note_on,56,39,0
1,note_on,56,0,120
1,note_on,59,0,0
1,note_on,57,49,120
1,note_on,57,0,180
1,note_on,57,45,60
1,note_on,57,0,120
1,note_on,57,43,120
1,note_on,57,0,120
1,note_on,57,49,120
1,note_on,52,40,240
1,note_on,52,0,120
1,note_on,52,46,120
1,note_on,52,0,120
1,note_on,54,53,120
1,note_on,50,53,0
1,note_on,57,0,230
1,note_on,57,45,10
1,note_on,57,0,120
1,note_on,50,0,120
1,note_on,54,0,0
1,note_on,57,43,0
1,note_on,57,0,120
1,note_on,57,49,120
1,note_on,52,40,240
1,note_on,52,0,120
1,note_on,52,46,120
1,note_on,52,0,120
1,note_on,54,63,120
1,note_on,50,63,0
1,note_on,57,0,230
1,note_on,57,53,10
1,note_on,57,0,120
1,note_on,50,0,120
1,note_on,54,0,0
1,note_on,57,61,0
1,note_on,57,0,120
1,note_on,61,67,120
1,note_on,61,0,950
1,note_on,61,59,10
1,note_on,61,0,120
1,note_on,61,68,120
1,note_on,61,0,120
1,note_on,64,75,120
1,note_on,64,0,960
1,note_on,61,70,0
1,note_on,61,0,120
1,note_on,64,73,0
1,note_on,64,0,120
1,note_on,69,76,0
1,note_on,69,0,120
1,note_on,73,84,0
1,note_on,73,0,120
1,note_on,76,88,0
1,note_on,76,0,960
1,note_on,61,74,0
1,note_on,61,0,120
1,note_on,64,77,0
1,note_on,64,0,120
1,note_on,67,81,0
1,note_on,67,0,120
1,note_on,73,88,0
1,note_on,73,0,120
1,note_on,76,93,0
1,note_on,76,0,960
1,note_on,66,78,0
1,note_on,66,0,120
1,note_on,69,82,0
1,note_on,69,0,120
1,note_on,74,85,0
1,note_on,74,0,120
1,note_on,78,93,0
1,note_on,78,0,120
1,note_on,81,98,0
1,note_on,81,0,960
1,note_on,66,82,0
1,note_on,66,0,120
1,note_on,69,86,0
1,note_on,69,0,120
1,note_on,75,90,0
1,note_on,75,0,120
1,note_on,78,98,0
1,note_on,78,0,120
1,note_on,81,103,0
1,note_on,81,0,960
1,note_on,73,86,0
1,note_on,73,0,120
1,note_on,76,90,0
1,note_on,76,0,120
1,note_on,81,94,0
1,note_on,81,0,120
1,note_on,85,98,0
1,note_on,85,0,120
1,note_on,88,101,0
1,note_on,88,0,120
1,note_on,85,94,0
1,note_on,85,0,120
1,note_on,81,77,0
1,note_on,81,0,120
1,note_on,76,63,0
1,note_on,76,0,120
1,note_on,81,69,0
1,note_on,81,0,120
1,note_on,76,67,0
1,note_on,76,0,120
1,note_on,88,76,0
1,note_on,88,0,120
1,note_on,85,67,0
1,note_on,85,0,120
1,note_on,81,70,0
1,note_on,81,0,120
1,note_on,76,63,0
1,note_on,76,0,120
1,note_on,81,69,0
1,note_on,81,0,120
1,note_on,76,67,0
1,note_on,76,0,120
1,note_on,88,76,0
1,note_on,88,0,120
1,note_on,85,67,0
1,note_on,85,0,120
1,note_on,81,70,0
1,note_on,81,0,120
1,note_on,76,63,0
1,note_on,76,0,120
1,note_on,81,69,0
1,note_on,81,0,120
1,note_on,76,67,0
1,note_on,76,0,120
1,note_on,88,76,0
1,note_on,88,0,120
1,note_on,85,67,0
1,note_on,85,0,120
1,note_on,81,70,0
1,note_on,81,0,120
1,note_on,76,63,0
1,note_on,76,0,120
1,note_on,81,69,0
1,note_on,81,0,120
1,note_on,76,67,0
1,note_on,76,0,120
1,note_on,88,76,0
1,note_on,88,0,120
1,note_on,85,67,0
1,note_on,85,0,120
1,note_on,81,70,0
1,note_on,81,0,120
1,note_on,76,63,0
1,note_on,76,0,120
1,note_on,81,69,0
1,note_on,81,0,120
1,note_on,76,67,0
1,note_on,76,0,120
1,note_on,88,76,0
1,note_on,88,0,120
1,note_on,86,67,0
1,note_on,86,0,120
1,note_on,83,70,0
1,note_on,83,0,120
1,note_on,76,63,0
1,note_on,76,0,120
1,note_on,83,69,0
1,note_on,83,0,120
1,note_on,76,67,0
1,note_on,76,0,120
1,note_on,88,76,0
1,note_on,88,0,120
1,note_on,86,67,0
1,note_on,86,0,120
1,note_on,83,70,0
1,note_on,83,0,120
1,note_on,76,63,0
1,note_on,76,0,120
1,note_on,83,69,0
1,note_on,83,0,120
1,note_on,76,67,0
1,note_on,76,0,120
1,note_on,88,76,0
1,note_on,88,0,120
1,note_on,86,67,0
1,note_on,86,0,120
1,note_on,83,70,0
1,note_on,83,0,120
1,note_on,76,63,0
1,note_on,76,0,120
1,note_on,83,69,0
1,note_on,83,0,120
1,note_on,76,67,0
1,note_on,76,0,120
1,note_on,88,76,0
1,note_on,88,0,120
1,note_on,85,67,0
1,note_on,85,0,120
1,note_on,81,70,0
1,note_on,81,0,120
1,note_on,76,63,0
1,note_on,76,0,120
1,note_on,81,69,0
1,note_on,81,0,120
1,note_on,76,67,0
1,note_on,76,0,120
1,note_on,88,76,0
1,note_on,88,0,120
1,note_on,85,67,0
1,note_on,85,0,120
1,note_on,81,70,0
1,note_on,81,0,120
1,note_on,76,63,0
1,note_on,76,0,120
1,note_on,81,69,0
1,note_on,81,0,120
1,note_on,76,67,0
1,note_on,76,0,120
1,note_on,88,76,0
1,note_on,88,0,120
1,note_on,85,67,0
1,note_on,85,0,120
1,note_on,81,70,0
1,note_on,81,0,120
1,note_on,76,63,0
1,note_on,76,0,120
1,note_on,81,69,0
1,note_on,81,0,120
1,note_on,76,67,0
1,note_on,76,0,120
1,note_on,88,76,0
1,note_on,88,0,120
1,note_on,85,67,0
1,note_on,85,0,120
1,note_on,81,70,0
1,note_on,81,0,120
1,note_on,76,63,0
1,note_on,76,0,120
1,note_on,81,69,0
1,note_on,81,0,120
1,note_on,76,67,0
1,note_on,76,0,120
1,note_on,88,76,0
1,note_on,88,0,120
1,note_on,85,67,0
1,note_on,85,0,120
1,note_on,81,70,0
1,note_on,81,0,120
1,note_on,76,63,0
1,note_on,76,0,120
1,note_on,81,69,0
1,note_on,81,0,120
1,note_on,76,67,0
1,note_on,76,0,120
1,note_on,88,76,0
1,note_on,88,0,120
1,note_on,86,67,0
1,note_on,86,0,120
1,note_on,83,70,0
1,note_on,83,0,120
1,note_on,76,63,0
1,note_on,76,0,120
1,note_on,83,69,0
1,note_on,83,0,120
1,note_on,76,67,0
1,note_on,76,0,120
1,note_on,88,76,0
1,note_on,88,0,120
1,note_on,86,67,0
1,note_on,86,0,120
1,note_on,83,70,0
1,note_on,83,0,120
1,note_on,76,63,0
1,note_on,76,0,120
1,note_on,83,69,0
1,note_on,83,0,120
1,note_on,76,67,0
1,note_on,76,0,120
1,note_on,88,76,0
1,note_on,88,0,120
1,note_on,86,67,0
1,note_on,86,0,120
1,note_on,83,70,0
1,note_on,83,0,120
1,note_on,76,63,0
1,note_on,76,0,120
1,note_on,83,69,0
1,note_on,83,0,120
1,note_on,76,67,0
1,note_on,76,0,120
1,note_on,88,76,0
1,note_on,88,0,120
1,note_on,85,67,0
1,note_on,85,0,120
1,note_on,83,70,0
1,note_on,83,0,120
1,note_on,81,63,0
1,note_on,81,0,120
1,note_on,83,69,0
1,note_on,83,0,120
1,note_on,81,67,0
1,note_on,81,0,120
1,note_on,88,76,0
1,note_on,88,0,120
1,note_on,85,67,0
1,note_on,85,0,120
1,note_on,83,70,0
1,note_on,83,0,120
1,note_on,81,63,0
1,note_on,81,0,120
1,note_on,83,69,0
1,note_on,83,0,120
1,note_on,81,67,0
1,note_on,81,0,120
1,note_on,88,76,0
1,note_on,88,0,120
1,note_on,85,67,0
1,note_on,85,0,120
1,note_on,83,70,0
1,note_on,83,0,120
1,note_on,81,63,0
1,note_on,81,0,120
1,note_on,83,69,0
1,note_on,83,0,120
1,note_on,81,67,0
1,note_on,81,0,120
1,note_on,88,76,0
1,note_on,88,0,120
1,note_on,85,67,0
1,note_on,85,0,120
1,note_on,83,70,0
1,note_on,83,0,120
1,note_on,81,63,0
1,note_on,81,0,120
1,note_on,83,69,0
1,note_on,83,0,120
1,note_on,81,67,0
1,note_on,81,0,120
1,note_on,88,76,0
1,note_on,88,0,120
1,note_on,85,67,0
1,note_on,85,0,120
1,note_on,83,56,0
1,note_on,83,0,120
1,note_on,81,53,0
1,note_on,81,0,120
1,note_on,83,58,0
1,note_on,83,0,120
1,note_on,81,56,0
1,note_on,81,0,120
1,note_on,93,71,0
1,note_on,93,0,120
1,note_on,90,56,0
1,note_on,90,0,120
1,note_on,83,59,0
1,note_on,83,0,120
1,note_on,81,53,0
1,note_on,81,0,120
1,note_on,83,58,0
1,note_on,83,0,120
1,note_on,81,56,0
1,note_on,81,0,120
1,note_on,93,64,0
1,note_on,93,0,120
1,note_on,90,56,0
1,note_on,90,0,120
1,note_on,83,59,0
1,note_on,83,0,120
1,note_on,81,53,0
1,note_on,81,0,120
1,note_on,83,58,0
1,note_on,83,0,120
1,note_on,81,56,0
1,note_on,81,0,120
1,note_on,93,71,0
1,note_on,93,0,120
1,note_on,90,56,0
1,note_on,90,0,120
1,note_on,83,59,0
1,note_on,83,0,120
1,note_on,81,53,0
1,note_on,81,0,120
1,note_on,83,58,0
1,note_on,83,0,120
1,note_on,81,56,0
1,note_on,81,0,120
1,note_on,93,64,0
1,note_on,93,0,120
1,note_on,90,56,0
1,note_on,90,0,120
1,note_on,83,59,0
1,note_on,83,0,120
1,note_on,81,53,0
1,note_on,81,0,120
1,note_on,83,58,0
1,note_on,83,0,120
1,note_on,81,56,0
1,note_on,81,0,120
1,note_on,93,71,0
1,note_on,93,0,120
1,note_on,90,56,0
1,note_on,90,0,120
1,note_on,86,58,0
1,note_on,86,0,120
1,note_on,81,51,0
1,note_on,81,0,120
1,note_on,86,56,0
1,note_on,86,0,120
1,note_on,81,53,0
1,note_on,81,0,120
1,note_on,93,60,0
1,note_on,93,0,120
1,note_on,90,53,0
1,note_on,90,0,120
1,note_on,86,55,0
1,note_on,86,0,120
1,note_on,81,49,0
1,note_on,81,0,120
1,note_on,86,53,0
1,note_on,86,0,120
1,note_on,81,50,0
1,note_on,81,0,120
1,note_on,93,63,0
1,note_on,93,0,120
1,note_on,90,50,0
1,note_on,90,0,120
1,note_on,86,52,0
1,note_on,86,0,120
1,note_on,81,46,0
1,note_on,81,0,120
1,note_on,86,50,0
1,note_on,86,0,120
1,note_on,81,48,0
1,note_on,81,0,120
1,note_on,93,54,0
1,note_on,93,0,120
1,note_on,90,47,0
1,note_on,90,0,120
1,note_on,86,49,0
1,note_on,86,0,120
1,note_on,81,43,0
1,note_on,81,0,120
1,note_on,86,47,0
1,note_on,86,0,120
1,note_on,81,45,0
1,note_on,81,0,120
1,note_on,93,56,0
1,note_on,93,0,120
1,note_on,88,44,0
1,note_on,88,0,120
1,note_on,85,47,0
1,note_on,85,0,120
1,note_on,81,42,0
1,note_on,81,0,120
1,note_on,85,46,0
1,note_on,85,0,120
1,note_on,81,44,0
1,note_on,81,0,120
1,note_on,90,56,0
1,note_on,90,0,120
1,note_on,88,44,0
1,note_on,88,0,120
1,note_on,90,47,0
1,note_on,90,0,120
1,note_on,88,42,0
1,note_on,88,0,120
1,note_on,90,46,0
1,note_on,90,0,120
1,note_on,88,44,0
1,note_on,88,0,120
1,note_on,93,56,0
1,note_on,93,0,120
1,note_on,88,44,0
1,note_on,88,0,120
1,note_on,85,47,0
1,note_on,85,0,120
1,note_on,81,42,0
1,note_on,81,0,120
1,note_on,85,46,0
1,note_on,85,0,120
1,note_on,81,44,0
1,note_on,81,0,120
1,note_on,90,56,0
1,note_on,90,0,120
1,note_on,88,44,0
1,note_on,88,0,120
1,note_on,90,47,0
1,note_on,90,0,120
1,note_on,88,42,0
1,note_on,88,0,120
1,note_on,90,46,0
1,note_on,90,0,120
1,note_on,88,44,0
1,note_on,88,0,120
1,note_on,93,56,0
1,note_on,93,0,120
1,note_on,88,44,0
1,note_on,88,0,120
1,note_on,85,47,0
1,note_on,85,0,120
1,note_on,81,42,0
1,note_on,81,0,120
1,note_on,85,45,0
1,note_on,85,0,120
1,note_on,81,43,0
1,note_on,81,0,120
1,note_on,90,55,0
1,note_on,90,0,120
1,note_on,88,43,0
1,note_on,88,0,120
1,note_on,90,46,0
1,note_on,90,0,120
1,note_on,88,41,0
1,note_on,88,0,120
1,note_on,90,45,0
1,note_on,90,0,120
1,note_on,88,42,0
1,note_on,88,0,120
1,note_on,93,54,0
1,note_on,93,0,120
1,note_on,88,42,0
1,note_on,88,0,120
1,note_on,85,45,0
1,note_on,85,0,120
1,note_on,81,40,0
1,note_on,81,0,120
1,note_on,85,44,0
1,note_on,85,0,120
1,note_on,81,42,0
1,note_on,81,0,120
1,note_on,90,53,0
1,note_on,90,0,120
1,note_on,88,41,0
1,note_on,88,0,120
1,note_on,90,44,0
1,note_on,90,0,120
1,note_on,88,39,0
1,note_on,88,0,120
1,note_on,90,43,0
1,note_on,90,0,120
1,note_on,88,41,0
1,note_on,88,0,120
1,note_on,93,52,0
1,note_on,93,0,120
1,note_on,88,41,0
1,note_on,88,0,120
1,note_on,85,43,0
1,note_on,85,0,120
1,note_on,81,39,0
1,note_on,81,0,120
1,note_on,85,42,0
1,note_on,85,0,120
1,note_on,81,40,0
1,note_on,81,0,120
1,note_on,88,51,0
1,note_on,88,0,120
1,note_on,85,40,0
1,note_on,85,0,120
1,note_on,83,43,0
1,note_on,83,0,120
1,note_on,81,38,0
1,note_on,81,0,120
1,note_on,83,41,0
1,note_on,83,0,120
1,note_on,81,40,0
1,note_on,81,0,120
1,note_on,88,50,0
1,note_on,88,0,120
1,note_on,85,39,0
1,note_on,85,0,120
1,note_on,83,42,0
1,note_on,83,0,120
1,note_on,81,37,0
1,note_on,81,0,120
1,note_on,83,40,0
1,note_on,83,0,120
1,note_on,81,39,0
1,note_on,81,0,120
1,note_on,88,49,0
1,note_on,88,0,120
1,note_on,85,39,0
1,note_on,85,0,120
1,note_on,83,41,0
1,note_on,83,0,120
1,note_on,81,36,0
1,note_on,81,0,120
1,note_on,83,40,0
1,note_on,83,0,120
1,note_on,81,38,0
1,note_on,81,0,120
1,note_on,88,48,0
1,note_on,88,0,120
1,note_on,85,38,0
1,note_on,85,0,120
1,note_on,83,40,0
1,note_on,83,0,120
1,note_on,81,36,0
1,note_on,81,0,120
1,note_on,83,39,0
1,note_on,83,0,120
1,note_on,81,37,0
1,note_on,81,0,120
1,note_on,88,47,0
1,note_on,88,0,120
1,note_on,85,37,0
1,note_on,85,0,120
1,note_on,83,39,0
1,note_on,83,0,120
1,note_on,81,35,0
1,note_on,81,0,120
1,note_on,83,39,0
1,note_on,83,0,120
1,note_on,81,45,0
1,note_on,81,0,120
1,note_on,88,49,0
1,note_on,88,0,120
1,note_on,85,46,0
1,note_on,85,0,120
1,note_on,83,49,0
1,note_on,83,0,120
1,note_on,81,53,0
1,note_on,81,0,120
1,note_on,83,55,0
1,note_on,83,0,120
1,note_on,85,57,0
1,note_on,85,0,120
1,note_on,86,61,0
1,note_on,86,0,120
1,note_on,88,65,0
1,note_on,88,0,120
1,note_on,90,68,0
1,note_on,90,0,120
1,note_on,92,70,0
1,note_on,92,0,120
1,note_on,93,73,0
1,note_on,93,0,120
1,note_on,95,77,0
1,note_on,95,0,120
1,note_on,97,78,0
1,note_on,97,0,240
1,note_on,76,41,1080
1,note_on,81,41,60
1,note_on,88,49,60
1,note_on,88,0,240
1,note_on,81,0,0
1,note_on,76,0,0
1,note_on,57,34,1200
1,note_on,57,0,120
2,note_on,33,59,0
2,note_on,45,70,0
2,note_on,49,61,240
2,note_on,49,0,120
2,note_on,52,63,0
2,note_on,52,0,120
2,note_on,45,0,0
2,note_on,33,0,0
2,note_on,57,67,0
2,note_on,57,0,120
2,note_on,61,70,0
2,note_on,61,0,120
2,note_on,59,63,240
2,note_on,52,53,0
2,note_on,52,0,60
2,note_on,59,0,0
2,note_on,59,63,180
2,note_on,52,53,0
2,note_on,52,0,60
2,note_on,59,0,0
2,note_on,61,70,180
2,note_on,57,70,0
2,note_on,57,0,480
2,note_on,61,0,0
2,note_on,71,66,480
2,note_on,64,56,0
2,note_on,64,0,60
2,note_on,71,0,0
2,note_on,71,62,180
2,note_on,64,52,0
2,note_on,64,0,60
2,note_on,71,0,0
2,note_on,69,59,180
2,note_on,73,70,0
2,note_on,73,0,480
2,note_on,69,0,0
2,note_on,71,66,480
2,note_on,64,56,0
2,note_on,64,0,60
2,note_on,71,0,0
2,note_on,71,66,180
2,note_on,64,56,0
2,note_on,64,0,60
2,note_on,71,0,0
2,note_on,69,59,180
2,note_on,73,70,0
2,note_on,73,0,240
2,note_on,69,0,0
2,note_on,71,64,0
2,note_on,64,54,0
2,note_on,64,0,60
2,note_on,71,0,0
2,note_on,71,64,180
2,note_on,64,54,0
2,note_on,64,0,60
2,note_on,71,0,0
2,note_on,69,59,180
2,note_on,73,70,0
2,note_on,73,0,240
2,note_on,69,0,0
2,note_on,71,64,0
2,note_on,64,54,0
2,note_on,64,0,60
2,note_on,71,0,0
2,note_on,71,64,180
2,note_on,64,54,0
2,note_on,64,0,60
2,note_on,71,0,0
2,note_on,69,59,180
2,note_on,73,70,0
2,note_on,73,0,480
2,note_on,69,0,0
2,note_on,45,79,240
2,note_on,33,67,0
2,note_on,33,0,360
2,note_on,45,0,0
2,note_on,49,50,0
2,note_on,57,59,0
2,note_on,57,0,108
2,note_on,49,0,0
2,note_on,57,54,12
2,note_on,49,45,0
2,note_on,49,0,180
2,note_on,57,0,0
2,note_on,49,50,60
2,note_on,57,59,0
2,note_on,57,0,240
2,note_on,49,0,0
2,note_on,59,55,0
2,note_on,52,46,0
2,note_on,52,0,240
2,note_on,59,0,0
2,note_on,57,46,0
2,note_on,61,55,0
2,note_on,61,0,120
2,note_on,57,0,0
2,note_on,57,51,120
2,note_on,61,60,0
2,note_on,61,0,480
2,note_on,57,0,0
2,note_on,57,50,0
2,note_on,61,59,0
2,note_on,61,0,180
2,note_on,57,0,0
2,note_on,57,53,60
2,note_on,61,63,0
2,note_on,61,0,240
2,note_on,57,0,0
2,note_on,62,59,0
2,note_on,59,50,0
2,note_on,59,0,240
2,note_on,62,0,0
2,note_on,61,50,0
2,note_on,64,59,0
2,note_on,64,0,120
2,note_on,61,0,0
2,note_on,64,66,120
2,note_on,61,56,0
2,note_on,61,0,360
2,note_on,64,0,0
2,note_on,62,50,0
2,note_on,66,59,0
2,note_on,66,0,108
2,note_on,62,0,0
2,note_on,66,62,12
2,note_on,62,52,0
2,note_on,62,0,180
2,note_on,66,0,0
2,note_on,66,70,60
2,note_on,62,59,0
2,note_on,57,59,0
2,note_on,57,0,360
2,note_on,62,0,0
2,note_on,66,0,0
2,note_on,62,50,0
2,note_on,66,59,0
2,note_on,66,0,108
2,note_on,62,0,0
2,note_on,62,50,12
2,note_on,66,59,0
2,note_on,66,0,180
2,note_on,62,0,0
2,note_on,66,67,60
2,note_on,62,56,0
2,note_on,62,0,240
2,note_on,66,0,0
2,note_on,64,50,0
2,note_on,68,59,0
2,note_on,68,0,240
2,note_on,64,0,0
2,note_on,62,50,0
2,note_on,66,59,0
2,note_on,66,0,120
2,note_on,62,0,0
2,note_on,66,67,120
2,note_on,62,56,0
2,note_on,57,56,0
2,note_on,57,0,720
2,note_on,62,0,0
2,note_on,66,0,0
2,note_on,64,58,0
2,note_on,61,49,0
2,note_on,61,0,240
2,note_on,64,0,0
2,note_on,49,50,120
2,note_on,57,59,0
2,note_on,57,0,108
2,note_on,49,0,0
2,note_on,57,54,12
2,note_on,49,45,0
2,note_on,49,0,180
2,note_on,57,0,0
2,note_on,49,50,60
2,note_on,57,59,0
2,note_on,57,0,240
2,note_on,49,0,0
2,note_on,59,55,0
2,note_on,52,46,0
2,note_on,52,0,240
2,note_on,59,0,0
2,note_on,57,46,0
2,note_on,61,55,0
2,note_on,61,0,120
2,note_on,57,0,0
2,note_on,57,51,120
2,note_on,61,60,0
2,note_on,61,0,480
2,note_on,57,0,0
2,note_on,57,50,0
2,note_on,61,59,0
2,note_on,61,0,180
2,note_on,57,0,0
2,note_on,57,53,60
2,note_on,61,63,0
2,note_on,61,0,240
2,note_on,57,0,0
2,note_on,62,59,0
2,note_on,59,50,0
2,note_on,59,0,240
2,note_on,62,0,0
2,note_on,61,50,0
2,note_on,64,59,0
2,note_on,64,0,120
2,note_on,61,0,0
2,note_on,64,66,120
2,note_on,61,56,0
2,note_on,61,0,480
2,note_on,64,0,0
2,note_on,45,52,240
2,note_on,33,44,0
2,note_on,33,0,240
2,note_on,45,0,0
2,note_on,54,37,0
2,note_on,61,37,0
2,note_on,64,44,0
2,note_on,64,0,230
2,note_on,61,0,0
2,note_on,54,0,0
2,note_on,54,37,10
2,note_on,61,37,0
2,note_on,64,44,0
2,note_on,64,0,180
2,note_on,61,0,0
2,note_on,54,0,0
2,note_on,54,29,60
2,note_on,61,29,0
2,note_on,64,35,0
2,note_on,64,0,240
2,note_on,61,0,0
2,note_on,54,0,0
2,note_on,54,29,0
2,note_on,61,29,0
2,note_on,64,35,0
2,note_on,64,0,240
2,note_on,61,0,0
2,note_on,54,0,0
2,note_on,54,29,0
2,note_on,61,29,0
2,note_on,64,35,0
2,note_on,64,0,240
2,note_on,61,0,0
2,note_on,54,0,0
2,note_on,54,37,0
2,note_on,61,37,0
2,note_on,64,37,0
2,note_on,64,0,1440
2,note_on,61,0,0
2,note_on,54,0,0
2,note_on,45,52,0
2,note_on,33,44,0
2,note_on,33,0,240
2,note_on,45,0,0
2,note_on,54,37,0
2,note_on,61,37,0
2,note_on,64,44,0
2,note_on,64,0,230
2,note_on,61,0,0
2,note_on,54,0,0
2,note_on,54,37,10
2,note_on,61,37,0
2,note_on,64,44,0
2,note_on,64,0,180
2,note_on,61,0,0
2,note_on,54,0,0
2,note_on,54,29,60
2,note_on,61,29,0
2,note_on,64,35,0
2,note_on,64,0,240
2,note_on,61,0,0
2,note_on,54,0,0
2,note_on,54,29,0
2,note_on,61,29,0
2,note_on,64,35,0
2,note_on,64,0,240
2,note_on,61,0,0
2,note_on,54,0,0
2,note_on,54,29,0
2,note_on,61,29,0
2,note_on,64,35,0
2,note_on,64,0,240
2,note_on,61,0,0
2,note_on,54,0,0
2,note_on,54,37,0
2,note_on,61,37,0
2,note_on,64,37,0
2,note_on,64,0,960
2,note_on,61,0,0
2,note_on,54,0,0
2,note_on,66,78,0
2,note_on,59,66,0
2,note_on,59,0,120
2,note_on,66,0,0
2,note_on,59,59,120
2,note_on,66,70,0
2,note_on,66,0,120
2,note_on,59,0,0
2,note_on,66,78,120
2,note_on,59,66,0
2,note_on,59,0,240
2,note_on,66,0,0
2,note_on,56,63,0
2,note_on,64,75,0
2,note_on,64,0,240
2,note_on,56,0,0
2,note_on,59,61,0
2,note_on,66,72,0
2,note_on,66,0,120
2,note_on,59,0,0
2,note_on,68,78,120
2,note_on,64,66,0
2,note_on,64,0,240
2,note_on,68,0,0
2,note_on,71,74,0
2,note_on,68,62,0
2,note_on,68,0,240
2,note_on,71,0,0
2,note_on,59,62,0
2,note_on,66,74,0
2,note_on,66,0,120
2,note_on,59,0,0
2,note_on,66,84,120
2,note_on,59,71,0
2,note_on,59,0,960
2,note_on,66,0,0
2,note_on,32,41,480
2,note_on,44,49,0
2,note_on,44,0,240
2,note_on,32,0,0
2,note_on,52,30,0
2,note_on,56,30,0
2,note_on,64,37,0
2,note_on,59,30,0
2,note_on,59,0,120
2,note_on,52,0,0
2,note_on,56,0,0
2,note_on,64,0,0
2,note_on,52,30,120
2,note_on,56,30,0
2,note_on,59,30,0
2,note_on,64,37,0
2,note_on,64,0,120
2,note_on,52,0,0
2,note_on,56,0,0
2,note_on,59,0,0
2,note_on,52,30,120
2,note_on,56,30,0
2,note_on,59,30,0
2,note_on,64,37,0
2,note_on,64,0,480
2,note_on,52,0,0
2,note_on,56,0,0
2,note_on,59,0,0
2,note_on,33,41,240
2,note_on,45,49,0
2,note_on,45,0,240
2,note_on,33,0,0
2,note_on,52,37,0
2,note_on,56,37,0
2,note_on,64,45,0
2,note_on,61,37,0
2,note_on,61,0,120
2,note_on,52,0,0
2,note_on,56,0,0
2,note_on,64,0,0
2,note_on,52,37,120
2,note_on,56,37,0
2,note_on,61,37,0
2,note_on,64,45,0
2,note_on,64,0,120
2,note_on,52,0,0
2,note_on,56,0,0
2,note_on,61,0,0
2,note_on,52,37,120
2,note_on,56,37,0
2,note_on,61,37,0
2,note_on,64,45,0
2,note_on,64,0,480
2,note_on,52,0,0
2,note_on,56,0,0
2,note_on,61,0,0
2,note_on,35,53,240
2,note_on,47,63,0
2,note_on,47,0,240
2,note_on,35,0,0
2,note_on,52,39,0
2,note_on,56,39,0
2,note_on,64,48,0
2,note_on,59,39,0
2,note_on,59,0,120
2,note_on,52,0,0
2,note_on,56,0,0
2,note_on,64,0,0
2,note_on,52,40,120
2,note_on,56,40,0
2,note_on,59,40,0
2,note_on,64,50,0
2,note_on,64,0,120
2,note_on,52,0,0
2,note_on,56,0,0
2,note_on,59,0,0
2,note_on,52,40,120
2,note_on,56,40,0
2,note_on,59,40,0
2,note_on,64,50,0
2,note_on,64,0,480
2,note_on,52,0,0
2,note_on,56,0,0
2,note_on,59,0,0
2,note_on,37,51,240
2,note_on,49,61,0
2,note_on,49,0,240
2,note_on,37,0,0
2,note_on,52,46,0
2,note_on,56,46,0
2,note_on,64,56,0
2,note_on,61,46,0
2,note_on,61,0,120
2,note_on,52,0,0
2,note_on,56,0,0
2,note_on,64,0,0
2,note_on,52,47,120
2,note_on,56,47,0
2,note_on,61,47,0
2,note_on,64,57,0
2,note_on,64,0,120
2,note_on,52,0,0
2,note_on,56,0,0
2,note_on,61,0,0
2,note_on,52,48,120
2,note_on,56,48,0
2,note_on,61,48,0
2,note_on,64,58,0
2,note_on,64,0,480
2,note_on,52,0,0
2,note_on,56,0,0
2,note_on,61,0,0
2,note_on,38,56,240
2,note_on,50,66,0
2,note_on,50,0,240
2,note_on,38,0,0
2,note_on,52,41,0
2,note_on,56,41,0
2,note_on,64,50,0
2,note_on,59,41,0
2,note_on,59,0,120
2,note_on,52,0,0
2,note_on,56,0,0
2,note_on,64,0,0
2,note_on,52,41,120
2,note_on,56,41,0
2,note_on,59,41,0
2,note_on,64,50,0
2,note_on,64,0,120
2,note_on,52,0,0
2,note_on,56,0,0
2,note_on,59,0,0
2,note_on,52,42,120
2,note_on,56,42,0
2,note_on,59,42,0
2,note_on,64,51,0
2,note_on,64,0,480
2,note_on,52,0,0
2,note_on,56,0,0
2,note_on,59,0,0
2,note_on,37,60,240
2,note_on,49,71,0
2,note_on,49,0,240
2,note_on,37,0,0
2,note_on,52,53,0
2,note_on,57,53,0
2,note_on,64,64,0
2,note_on,61,53,0
2,note_on,61,0,120
2,note_on,52,0,0
2,note_on,57,0,0
2,note_on,64,0,0
2,note_on,52,53,120
2,note_on,57,53,0
2,note_on,61,53,0
2,note_on,64,64,0
2,note_on,64,0,120
2,note_on,52,0,0
2,note_on,57,0,0
2,note_on,61,0,0
2,note_on,52,53,120
2,note_on,57,53,0
2,note_on,61,53,0
2,note_on,64,64,0
2,note_on,64,0,480
2,note_on,52,0,0
2,note_on,57,0,0
2,note_on,61,0,0
2,note_on,39,46,240
2,note_on,51,55,0
2,note_on,51,0,120
2,note_on,39,0,0
2,note_on,51,41,120
2,note_on,54,41,0
2,note_on,59,50,0
2,note_on,57,41,0
2,note_on,57,0,120
2,note_on,51,0,0
2,note_on,54,0,0
2,note_on,59,0,0
2,note_on,51,41,120
2,note_on,54,41,0
2,note_on,57,41,0
2,note_on,59,50,0
2,note_on,59,0,120
2,note_on,51,0,0
2,note_on,54,0,0
2,note_on,57,0,0
2,note_on,51,41,120
2,note_on,54,41,0
2,note_on,57,41,0
2,note_on,59,50,0
2,note_on,59,0,240
2,note_on,51,0,0
2,note_on,54,0,0
2,note_on,57,0,0
2,note_on,52,46,480
2,note_on,47,46,0
2,note_on,44,46,0
2,note_on,56,55,0
2,note_on,56,0,120
2,note_on,52,0,0
2,note_on,47,0,0
2,note_on,44,0,0
2,note_on,44,41,120
2,note_on,47,41,0
2,note_on,56,50,0
2,note_on,52,41,0
2,note_on,52,0,120
2,note_on,44,0,0
2,note_on,47,0,0
2,note_on,56,0,0
2,note_on,44,41,120
2,note_on,47,41,0
2,note_on,52,41,0
2,note_on,56,50,0
2,note_on,56,0,120
2,note_on,44,0,0
2,note_on,47,0,0
2,note_on,52,0,0
2,note_on,44,41,120
2,note_on,47,41,0
2,note_on,52,41,0
2,note_on,56,50,0
2,note_on,56,0,240
2,note_on,44,0,0
2,note_on,47,0,0
2,note_on,52,0,0
2,note_on,52,39,480
2,note_on,46,39,0
2,note_on,54,46,0
2,note_on,54,0,120
2,note_on,46,0,0
2,note_on,52,0,0
2,note_on,46,34,120
2,note_on,54,42,0
2,note_on,52,34,0
2,note_on,52,0,120
2,note_on,54,0,0
2,note_on,46,0,0
2,note_on,46,34,120
2,note_on,52,34,0
2,note_on,54,42,0
2,note_on,54,0,120
2,note_on,52,0,0
2,note_on,46,0,0
2,note_on,52,39,120
2,note_on,46,39,0
2,note_on,54,46,0
2,note_on,54,0,120
2,note_on,46,0,0
2,note_on,52,0,0
2,note_on,46,34,120
2,note_on,54,42,0
2,note_on,52,34,0
2,note_on,52,0,120
2,note_on,54,0,0
2,note_on,46,0,0
2,note_on,46,34,120
2,note_on,52,34,0
2,note_on,54,42,0
2,note_on,54,0,120
2,note_on,52,0,0
2,note_on,46,0,0
2,note_on,52,39,120
2,note_on,46,39,0
2,note_on,54,46,0
2,note_on,54,0,120
2,note_on,46,0,0
2,note_on,52,0,0
2,note_on,46,33,120
2,note_on,54,41,0
2,note_on,52,33,0
2,note_on,52,0,120
2,note_on,54,0,0
2,note_on,46,0,0
2,note_on,46,32,120
2,note_on,52,32,0
2,note_on,54,40,0
2,note_on,54,0,120
2,note_on,52,0,0
2,note_on,46,0,0
2,note_on,52,37,120
2,note_on,46,37,0
2,note_on,54,43,0
2,note_on,54,0,120
2,note_on,46,0,0
2,note_on,52,0,0
2,note_on,46,31,120
2,note_on,54,39,0
2,note_on,52,31,0
2,note_on,52,0,120
2,note_on,54,0,0
2,note_on,46,0,0
2,note_on,46,31,120
2,note_on,52,31,0
2,note_on,54,38,0
2,note_on,54,0,120
2,note_on,52,0,0
2,note_on,46,0,0
2,note_on,47,35,120
2,note_on,56,41,0
2,note_on,52,35,6
2,note_on,56,0,114
2,note_on,47,0,0
2,note_on,52,0,6
2,note_on,47,29,114
2,note_on,56,36,0
2,note_on,52,29,6
2,note_on,56,0,114
2,note_on,47,0,0
2,note_on,52,0,6
2,note_on,47,29,114
2,note_on,56,36,0
2,note_on,52,29,6
2,note_on,56,0,114
2,note_on,47,0,0
2,note_on,52,0,6
2,note_on,47,33,114
2,note_on,54,33,0
2,note_on,57,39,0
2,note_on,57,0,120
2,note_on,54,0,0
2,note_on,47,0,0
2,note_on,47,28,120
2,note_on,54,28,0
2,note_on,57,34,0
2,note_on,57,0,120
2,note_on,54,0,0
2,note_on,47,0,0
2,note_on,47,27,120
2,note_on,54,27,0
2,note_on,57,34,0
2,note_on,57,0,120
2,note_on,54,0,0
2,note_on,47,0,0
2,note_on,52,33,120
2,note_on,56,33,0
2,note_on,56,0,240
2,note_on,52,0,0
2,note_on,45,79,480
2,note_on,33,67,0
2,note_on,33,0,360
2,note_on,45,0,0
2,note_on,49,50,0
2,note_on,57,59,0
2,note_on,57,0,108
2,note_on,49,0,0
2,note_on,57,54,12
2,note_on,49,45,0
2,note_on,49,0,180
2,note_on,57,0,0
2,note_on,49,50,60
2,note_on,57,59,0
2,note_on,57,0,240
2,note_on,49,0,0
2,note_on,59,55,0
2,note_on,52,46,0
2,note_on,52,0,240
2,note_on,59,0,0
2,note_on,57,46,0
2,note_on,61,55,0
2,note_on,61,0,120
2,note_on,57,0,0
2,note_on,57,51,120
2,note_on,61,60,0
2,note_on,61,0,480
2,note_on,57,0,0
2,note_on,57,50,0
2,note_on,61,59,0
2,note_on,61,0,180
2,note_on,57,0,0
2,note_on,57,53,60
2,note_on,61,63,0
2,note_on,61,0,240
2,note_on,57,0,0
2,note_on,62,59,0
2,note_on,59,50,0
2,note_on,59,0,240
2,note_on,62,0,0
2,note_on,61,50,0
2,note_on,64,59,0
2,note_on,64,0,120
2,note_on,61,0,0
2,note_on,64,66,120
2,note_on,61,56,0
2,note_on,61,0,360
2,note_on,64,0,0
2,note_on,62,50,0
2,note_on,66,59,0
2,note_on,66,0,108
2,note_on,62,0,0
2,note_on,66,62,12
2,note_on,62,52,0
2,note_on,62,0,180
2,note_on,66,0,0
2,note_on,66,70,60
2,note_on,62,59,0
2,note_on,57,59,0
2,note_on,57,0,360
2,note_on,62,0,0
2,note_on,66,0,0
2,note_on,62,50,0
2,note_on,66,59,0
2,note_on,66,0,108
2,note_on,62,0,0
2,note_on,62,50,12
2,note_on,66,59,0
2,note_on,66,0,180
2,note_on,62,0,0
2,note_on,66,67,60
2,note_on,62,56,0
2,note_on,62,0,240
2,note_on,66,0,0
2,note_on,64,50,0
2,note_on,68,59,0
2,note_on,68,0,240
2,note_on,64,0,0
2,note_on,62,50,0
2,note_on,66,59,0
2,note_on,66,0,120
2,note_on,62,0,0
2,note_on,66,67,120
2,note_on,62,56,0
2,note_on,57,56,0
2,note_on,57,0,720
2,note_on,62,0,0
2,note_on,66,0,0
2,note_on,64,58,0
2,note_on,61,49,0
2,note_on,61,0,240
2,note_on,64,0,0
2,note_on,49,50,120
2,note_on,57,59,0
2,note_on,57,0,108
2,note_on,49,0,0
2,note_on,57,54,12
2,note_on,49,45,0
2,note_on,49,0,180
2,note_on,57,0,0
2,note_on,49,50,60
2,note_on,57,59,0
2,note_on,57,0,240
2,note_on,49,0,0
2,note_on,59,55,0
2,note_on,52,46,0
2,note_on,52,0,240
2,note_on,59,0,0
2,note_on,57,46,0
2,note_on,61,55,0
2,note_on,61,0,120
2,note_on,57,0,0
2,note_on,57,51,120
2,note_on,61,60,0
2,note_on,61,0,480
2,note_on,57,0,0
2,note_on,57,50,0
2,note_on,61,59,0
2,note_on,61,0,180
2,note_on,57,0,0
2,note_on,57,53,60
2,note_on,61,63,0
2,note_on,61,0,240
2,note_on,57,0,0
2,note_on,62,59,0
2,note_on,59,50,0
2,note_on,59,0,240
2,note_on,62,0,0
2,note_on,61,50,0
2,note_on,64,59,0
2,note_on,64,0,120
2,note_on,61,0,0
2,note_on,64,66,120
2,note_on,61,56,0
2,note_on,61,0,480
2,note_on,64,0,0
2,note_on,45,52,240
2,note_on,33,44,0
2,note_on,33,0,240
2,note_on,45,0,0
2,note_on,54,37,0
2,note_on,61,37,0
2,note_on,64,44,0
2,note_on,64,0,230
2,note_on,61,0,0
2,note_on,54,0,0
2,note_on,54,37,10
2,note_on,61,37,0
2,note_on,64,44,0
2,note_on,64,0,180
2,note_on,61,0,0
2,note_on,54,0,0
2,note_on,54,29,60
2,note_on,61,29,0
2,note_on,64,35,0
2,note_on,64,0,240
2,note_on,61,0,0
2,note_on,54,0,0
2,note_on,54,29,0
2,note_on,61,29,0
2,note_on,64,35,0
2,note_on,64,0,240
2,note_on,61,0,0
2,note_on,54,0,0
2,note_on,54,29,0
2,note_on,61,29,0
2,note_on,64,35,0
2,note_on,64,0,240
2,note_on,61,0,0
2,note_on,54,0,0
2,note_on,54,37,0
2,note_on,61,37,0
2,note_on,64,37,0
2,note_on,64,0,1440
2,note_on,61,0,0
2,note_on,54,0,0
2,note_on,45,52,0
2,note_on,33,44,0
2,note_on,33,0,240
2,note_on,45,0,0
2,note_on,54,37,0
2,note_on,61,37,0
2,note_on,64,44,0
2,note_on,64,0,230
2,note_on,61,0,0
2,note_on,54,0,0
2,note_on,54,37,10
2,note_on,61,37,0
2,note_on,64,44,0
2,note_on,64,0,180
2,note_on,61,0,0
2,note_on,54,0,0
2,note_on,54,29,60
2,note_on,61,29,0
2,note_on,64,35,0
2,note_on,64,0,240
2,note_on,61,0,0
2,note_on,54,0,0
2,note_on,54,29,0
2,note_on,61,29,0
2,note_on,64,35,0
2,note_on,64,0,240
2,note_on,61,0,0
2,note_on,54,0,0
2,note_on,54,29,0
2,note_on,61,29,0
2,note_on,64,35,0
2,note_on,64,0,240
2,note_on,61,0,0
2,note_on,54,0,0
2,note_on,54,37,0
2,note_on,61,37,0
2,note_on,64,37,0
2,note_on,64,0,960
2,note_on,61,0,0
2,note_on,54,0,0
2,note_on,66,78,0
2,note_on,59,66,0
2,note_on,59,0,120
2,note_on,66,0,0
2,note_on,59,59,120
2,note_on,66,70,0
2,note_on,66,0,120
2,note_on,59,0,0
2,note_on,66,78,120
2,note_on,59,66,0
2,note_on,59,0,240
2,note_on,66,0,0
2,note_on,56,63,0
2,note_on,64,75,0
2,note_on,64,0,240
2,note_on,56,0,0
2,note_on,59,61,0
2,note_on,66,72,0
2,note_on,66,0,120
2,note_on,59,0,0
2,note_on,68,78,120
2,note_on,64,66,0
2,note_on,64,0,240
2,note_on,68,0,0
2,note_on,71,74,0
2,note_on,68,62,0
2,note_on,68,0,240
2,note_on,71,0,0
2,note_on,59,62,0
2,note_on,66,74,0
2,note_on,66,0,120
2,note_on,59,0,0
2,note_on,66,84,120
2,note_on,59,71,0
2,note_on,59,0,960
2,note_on,66,0,0
2,note_on,32,41,480
2,note_on,44,49,0
2,note_on,44,0,240
2,note_on,32,0,0
2,note_on,52,30,0
2,note_on,56,30,0
2,note_on,64,37,0
2,note_on,59,30,0
2,note_on,59,0,120
2,note_on,52,0,0
2,note_on,56,0,0
2,note_on,64,0,0
2,note_on,52,30,120
2,note_on,56,30,0
2,note_on,59,30,0
2,note_on,64,37,0
2,note_on,64,0,120
2,note_on,52,0,0
2,note_on,56,0,0
2,note_on,59,0,0
2,note_on,52,30,120
2,note_on,56,30,0
2,note_on,59,30,0
2,note_on,64,37,0
2,note_on,64,0,480
2,note_on,52,0,0
2,note_on,56,0,0
2,note_on,59,0,0
2,note_on,33,41,240
2,note_on,45,49,0
2,note_on,45,0,240
2,note_on,33,0,0
2,note_on,52,37,0
2,note_on,56,37,0
2,note_on,64,45,0
2,note_on,61,37,0
2,note_on,61,0,120
2,note_on,52,0,0
2,note_on,56,0,0
2,note_on,64,0,0
2,note_on,52,37,120
2,note_on,56,37,0
2,note_on,61,37,0
2,note_on,64,45,0
2,note_on,64,0,120
2,note_on,52,0,0
2,note_on,56,0,0
2,note_on,61,0,0
2,note_on,52,37,120
2,note_on,56,37,0
2,note_on,61,37,0
2,note_on,64,45,0
2,note_on,64,0,480
2,note_on,52,0,0
2,note_on,56,0,0
2,note_on,61,0,0
2,note_on,35,53,240
2,note_on,47,63,0
2,note_on,47,0,240
2,note_on,35,0,0
2,note_on,52,39,0
2,note_on,56,39,0
2,note_on,64,48,0
2,note_on,59,39,0
2,note_on,59,0,120
2,note_on,52,0,0
2,note_on,56,0,0
2,note_on,64,0,0
2,note_on,52,40,120
2,note_on,56,40,0
2,note_on,59,40,0
2,note_on,64,50,0
2,note_on,64,0,120
2,note_on,52,0,0
2,note_on,56,0,0
2,note_on,59,0,0
2,note_on,52,40,120
2,note_on,56,40,0
2,note_on,59,40,0
2,note_on,64,50,0
2,note_on,64,0,480
2,note_on,52,0,0
2,note_on,56,0,0
2,note_on,59,0,0
2,note_on,37,51,240
2,note_on,49,61,0
2,note_on,49,0,240
2,note_on,37,0,0
2,note_on,52,46,0
2,note_on,56,46,0
2,note_on,64,56,0
2,note_on,61,46,0
2,note_on,61,0,120
2,note_on,52,0,0
2,note_on,56,0,0
2,note_on,64,0,0
2,note_on,52,47,120
2,note_on,56,47,0
2,note_on,61,47,0
2,note_on,64,57,0
2,note_on,64,0,120
2,note_on,52,0,0
2,note_on,56,0,0
2,note_on,61,0,0
2,note_on,52,48,120
2,note_on,56,48,0
2,note_on,61,48,0
2,note_on,64,58,0
2,note_on,64,0,480
2,note_on,52,0,0
2,note_on,56,0,0
2,note_on,61,0,0
2,note_on,38,56,240
2,note_on,50,66,0
2,note_on,50,0,240
2,note_on,38,0,0
2,note_on,52,41,0
2,note_on,56,41,0
2,note_on,64,50,0
2,note_on,59,41,0
2,note_on,59,0,120
2,note_on,52,0,0
2,note_on,56,0,0
2,note_on,64,0,0
2,note_on,52,41,120
2,note_on,56,41,0
2,note_on,59,41,0
2,note_on,64,50,0
2,note_on,64,0,120
2,note_on,52,0,0
2,note_on,56,0,0
2,note_on,59,0,0
2,note_on,52,42,120
2,note_on,56,42,0
2,note_on,59,42,0
2,note_on,64,51,0
2,note_on,64,0,480
2,note_on,52,0,0
2,note_on,56,0,0
2,note_on,59,0,0
2,note_on,37,60,240
2,note_on,49,71,0
2,note_on,49,0,240
2,note_on,37,0,0
2,note_on,52,53,0
2,note_on,57,53,0
2,note_on,64,64,0
2,note_on,61,53,0
2,note_on,61,0,120
2,note_on,52,0,0
2,note_on,57,0,0
2,note_on,64,0,0
2,note_on,52,53,120
2,note_on,57,53,0
2,note_on,61,53,0
2,note_on,64,64,0
2,note_on,64,0,120
2,note_on,52,0,0
2,note_on,57,0,0
2,note_on,61,0,0
2,note_on,52,53,120
2,note_on,57,53,0
2,note_on,61,53,0
2,note_on,64,64,0
2,note_on,64,0,480
2,note_on,52,0,0
2,note_on,57,0,0
2,note_on,61,0,0
2,note_on,39,46,240
2,note_on,51,55,0
2,note_on,51,0,120
2,note_on,39,0,0
2,note_on,51,41,120
2,note_on,54,41,0
2,note_on,59,50,0
2,note_on,57,41,0
2,note_on,57,0,120
2,note_on,51,0,0
2,note_on,54,0,0
2,note_on,59,0,0
2,note_on,51,41,120
2,note_on,54,41,0
2,note_on,57,41,0
2,note_on,59,50,0
2,note_on,59,0,120
2,note_on,51,0,0
2,note_on,54,0,0
2,note_on,57,0,0
2,note_on,51,41,120
2,note_on,54,41,0
2,note_on,57,41,0
2,note_on,59,50,0
2,note_on,59,0,240
2,note_on,51,0,0
2,note_on,54,0,0
2,note_on,57,0,0
2,note_on,52,46,480
2,note_on,47,46,0
2,note_on,44,46,0
2,note_on,56,55,0
2,note_on,56,0,120
2,note_on,52,0,0
2,note_on,47,0,0
2,note_on,44,0,0
2,note_on,44,41,120
2,note_on,47,41,0
2,note_on,56,50,0
2,note_on,52,41,0
2,note_on,52,0,120
2,note_on,44,0,0
2,note_on,47,0,0
2,note_on,56,0,0
2,note_on,44,41,120
2,note_on,47,41,0
2,note_on,52,41,0
2,note_on,56,50,0
2,note_on,56,0,120
2,note_on,44,0,0
2,note_on,47,0,0
2,note_on,52,0,0
2,note_on,44,41,120
2,note_on,47,41,0
2,note_on,52,41,0
2,note_on,56,50,0
2,note_on,56,0,240
2,note_on,44,0,0
2,note_on,47,0,0
2,note_on,52,0,0
2,note_on,52,39,480
2,note_on,46,39,0
2,note_on,54,46,0
2,note_on,54,0,120
2,note_on,46,0,0
2,note_on,52,0,0
2,note_on,46,34,120
2,note_on,54,42,0
2,note_on,52,34,0
2,note_on,52,0,120
2,note_on,54,0,0
2,note_on,46,0,0
2,note_on,46,34,120
2,note_on,52,34,0
2,note_on,54,42,0
2,note_on,54,0,120
2,note_on,52,0,0
2,note_on,46,0,0
2,note_on,52,39,120
2,note_on,46,39,0
2,note_on,54,46,0
2,note_on,54,0,120
2,note_on,46,0,0
2,note_on,52,0,0
2,note_on,46,34,120
2,note_on,54,42,0
2,note_on,52,34,0
2,note_on,52,0,120
2,note_on,54,0,0
2,note_on,46,0,0
2,note_on,46,34,120
2,note_on,52,34,0
2,note_on,54,42,0
2,note_on,54,0,120
2,note_on,52,0,0
2,note_on,46,0,0
2,note_on,52,39,120
2,note_on,46,39,0
2,note_on,54,46,0
2,note_on,54,0,120
2,note_on,46,0,0
2,note_on,52,0,0
2,note_on,46,33,120
2,note_on,54,41,0
2,note_on,52,33,0
2,note_on,52,0,120
2,note_on,54,0,0
2,note_on,46,0,0
2,note_on,46,32,120
2,note_on,52,32,0
2,note_on,54,40,0
2,note_on,54,0,120
2,note_on,52,0,0
2,note_on,46,0,0
2,note_on,52,37,120
2,note_on,46,37,0
2,note_on,54,43,0
2,note_on,54,0,120
2,note_on,46,0,0
2,note_on,52,0,0
2,note_on,46,31,120
2,note_on,54,39,0
2,note_on,52,31,0
2,note_on,52,0,120
2,note_on,54,0,0
2,note_on,46,0,0
2,note_on,46,31,120
2,note_on,52,31,0
2,note_on,54,38,0
2,note_on,54,0,120
2,note_on,52,0,0
2,note_on,46,0,0
2,note_on,47,35,120
2,note_on,56,41,0
2,note_on,52,35,6
2,note_on,56,0,114
2,note_on,47,0,0
2,note_on,52,0,6
2,note_on,47,29,114
2,note_on,56,36,0
2,note_on,52,29,6
2,note_on,56,0,114
2,note_on,47,0,0
2,note_on,52,0,6
2,note_on,47,29,114
2,note_on,56,36,0
2,note_on,52,29,6
2,note_on,56,0,114
2,note_on,47,0,0
2,note_on,52,0,6
2,note_on,47,33,114
2,note_on,54,33,0
2,note_on,57,39,0
2,note_on,57,0,120
2,note_on,54,0,0
2,note_on,47,0,0
2,note_on,47,28,120
2,note_on,54,28,0
2,note_on,57,34,0
2,note_on,57,0,120
2,note_on,54,0,0
2,note_on,47,0,0
2,note_on,47,27,120
2,note_on,54,27,0
2,note_on,57,34,0
2,note_on,57,0,120
2,note_on,54,0,0
2,note_on,47,0,0
2,note_on,52,33,120
2,note_on,56,33,0
2,note_on,56,0,240
2,note_on,52,0,0
2,note_on,63,78,720
2,note_on,56,66,0
2,note_on,56,0,120
2,note_on,63,0,0
2,note_on,56,59,120
2,note_on,63,70,0
2,note_on,63,0,120
2,note_on,56,0,0
2,note_on,63,78,120
2,note_on,56,66,0
2,note_on,56,0,240
2,note_on,63,0,0
2,note_on,52,63,0
2,note_on,61,75,0
2,note_on,61,0,240
2,note_on,52,0,0
2,note_on,56,61,0
2,note_on,63,72,0
2,note_on,63,0,120
2,note_on,56,0,0
2,note_on,64,78,120
2,note_on,61,66,0
2,note_on,61,0,240
2,note_on,64,0,0
2,note_on,68,74,0
2,note_on,56,62,240
2,note_on,63,74,0
2,note_on,63,0,120
2,note_on,56,0,0
2,note_on,68,0,110
2,note_on,56,66,10
2,note_on,63,78,0
2,note_on,63,0,480
2,note_on,56,0,0
2,note_on,63,78,480
2,note_on,56,66,0
2,note_on,56,0,120
2,note_on,63,0,0
2,note_on,56,59,120
2,note_on,63,70,0
2,note_on,63,0,120
2,note_on,56,0,0
2,note_on,63,78,120
2,note_on,56,66,0
2,note_on,56,0,240
2,note_on,63,0,0
2,note_on,52,63,0
2,note_on,61,75,0
2,note_on,61,0,240
2,note_on,52,0,0
2,note_on,56,61,0
2,note_on,63,72,0
2,note_on,63,0,120
2,note_on,56,0,0
2,note_on,64,78,120
2,note_on,61,66,0
2,note_on,61,0,240
2,note_on,64,0,0
2,note_on,68,74,0
2,note_on,56,62,240
2,note_on,63,74,0
2,note_on,63,0,120
2,note_on,56,0,0
2,note_on,68,0,110
2,note_on,63,78,10
2,note_on,56,66,0
2,note_on,56,0,720
2,note_on,63,0,0
2,note_on,49,63,0
2,note_on,61,74,0
2,note_on,61,0,713
2,note_on,49,0,0
2,note_on,49,66,7
2,note_on,61,79,0
2,note_on,61,0,713
2,note_on,49,0,0
2,note_on,49,63,7
2,note_on,61,75,0
2,note_on,61,0,713
2,note_on,49,0,0
2,note_on,61,70,7
2,note_on,49,59,0
2,note_on,49,0,240
2,note_on,61,0,0
2,note_on,50,56,0
2,note_on,62,67,0
2,note_on,62,0,240
2,note_on,50,0,0
2,note_on,49,54,0
2,note_on,61,64,0
2,note_on,61,0,120
2,note_on,49,0,0
2,note_on,49,59,120
2,note_on,61,70,0
2,note_on,61,0,120
2,note_on,49,0,0
2,note_on,49,53,120
2,note_on,61,63,0
2,note_on,61,0,120
2,note_on,49,0,0
2,note_on,49,53,120
2,note_on,61,63,0
2,note_on,61,0,120
2,note_on,49,0,0
2,note_on,49,66,120
2,note_on,61,79,0
2,note_on,61,0,713
2,note_on,49,0,0
2,note_on,49,63,7
2,note_on,61,75,0
2,note_on,61,0,713
2,note_on,49,0,0
2,note_on,49,66,7
2,note_on,61,79,0
2,note_on,61,0,713
2,note_on,49,0,0
2,note_on,66,66,247
2,note_on,66,0,120
2,note_on,66,66,120
2,note_on,66,0,120
2,note_on,66,70,120
2,note_on,66,0,120
2,note_on,64,66,120
2,note_on,64,0,120
2,note_on,63,66,120
2,note_on,63,0,120
2,note_on,64,70,120
2,note_on,64,0,120
2,note_on,63,66,120
2,note_on,63,0,120
2,note_on,61,65,120
2,note_on,61,0,120
2,note_on,63,70,120
2,note_on,63,0,120
2,note_on,60,65,120
2,note_on,60,0,120
2,note_on,56,65,120
2,note_on,56,0,120
2,note_on,61,70,120
2,note_on,61,0,180
2,note_on,54,64,60
2,note_on,42,64,0
2,note_on,42,0,120
2,note_on,54,0,0
2,note_on,54,64,120
2,note_on,42,64,0
2,note_on,42,0,120
2,note_on,54,0,0
2,note_on,42,70,120
2,note_on,54,70,0
2,note_on,54,0,180
2,note_on,42,0,0
2,note_on,52,66,60
2,note_on,40,66,0
2,note_on,40,0,180
2,note_on,52,0,0
2,note_on,51,66,60
2,note_on,39,66,0
2,note_on,39,0,180
2,note_on,51,0,0
2,note_on,40,70,60
2,note_on,52,70,0
2,note_on,52,0,180
2,note_on,40,0,0
2,note_on,51,65,60
2,note_on,39,65,0
2,note_on,39,0,180
2,note_on,51,0,0
2,note_on,49,65,60
2,note_on,37,65,0
2,note_on,37,0,180
2,note_on,49,0,0
2,note_on,39,70,60
2,note_on,51,70,0
2,note_on,51,0,180
2,note_on,39,0,0
2,note_on,48,66,60
2,note_on,36,66,0
2,note_on,36,0,180
2,note_on,48,0,0
2,note_on,44,66,60
2,note_on,32,66,0
2,note_on,32,0,180
2,note_on,44,0,0
2,note_on,37,58,60
2,note_on,49,76,0
2,note_on,49,0,240
2,note_on,37,0,0
2,note_on,51,68,0
2,note_on,39,57,0
2,note_on,39,0,120
2,note_on,51,0,0
2,note_on,52,68,120
2,note_on,40,57,0
2,note_on,40,0,120
2,note_on,52,0,0
2,note_on,42,61,120
2,note_on,54,72,0
2,note_on,54,0,120
2,note_on,42,0,0
2,note_on,54,57,120
2,note_on,61,68,0
2,note_on,57,57,0
2,note_on,57,0,120
2,note_on,61,0,0
2,note_on,54,0,0
2,note_on,54,57,120
2,note_on,61,68,0
2,note_on,57,57,0
2,note_on,57,0,120
2,note_on,61,0,0
2,note_on,54,0,0
2,note_on,54,61,120
2,note_on,57,61,0
2,note_on,60,72,0
2,note_on,60,0,120
2,note_on,57,0,0
2,note_on,54,0,0
2,note_on,54,57,120
2,note_on,60,68,0
2,note_on,57,57,0
2,note_on,57,0,120
2,note_on,60,0,0
2,note_on,54,0,0
2,note_on,54,57,120
2,note_on,60,68,0
2,note_on,57,57,0
2,note_on,57,0,120
2,note_on,60,0,0
2,note_on,54,0,0
2,note_on,52,61,120
2,note_on,61,72,0
2,note_on,61,0,120
2,note_on,52,0,0
2,note_on,61,66,120
2,note_on,54,55,0
2,note_on,54,0,120
2,note_on,61,0,0
2,note_on,61,64,120
2,note_on,56,54,0
2,note_on,56,0,120
2,note_on,61,0,0
2,note_on,54,56,120
2,note_on,61,66,0
2,note_on,61,0,120
2,note_on,54,0,0
2,note_on,61,61,120
2,note_on,56,51,0
2,note_on,56,0,120
2,note_on,61,0,0
2,note_on,61,59,120
2,note_on,57,50,0
2,note_on,57,0,120
2,note_on,61,0,0
2,note_on,56,58,120
2,note_on,64,61,0
2,note_on,64,0,240
2,note_on,63,57,0
2,note_on,63,0,240
2,note_on,61,57,0
2,note_on,56,0,237
2,note_on,61,0,3
2,note_on,56,58,0
2,note_on,63,61,0
2,note_on,63,0,240
2,note_on,60,57,0
2,note_on,56,0,230
2,note_on,60,0,10
2,note_on,56,57,0
2,note_on,56,0,240
2,note_on,49,60,0
2,note_on,61,71,0
2,note_on,61,0,480
2,note_on,49,0,0
2,note_on,49,65,480
2,note_on,37,55,0
2,note_on,37,0,120
2,note_on,49,0,0
2,note_on,37,52,120
2,note_on,49,62,0
2,note_on,49,0,120
2,note_on,37,0,0
2,note_on,49,60,120
2,note_on,61,71,0
2,note_on,61,0,480
2,note_on,49,0,0
2,note_on,49,65,480
2,note_on,37,55,0
2,note_on,37,0,120
2,note_on,49,0,0
2,note_on,37,52,120
2,note_on,49,62,0
2,note_on,49,0,120
2,note_on,37,0,0
2,note_on,61,79,120
2,note_on,49,67,0
2,note_on,49,0,480
2,note_on,61,0,0
2,note_on,61,68,0
2,note_on,49,57,0
2,note_on,49,0,180
2,note_on,61,0,0
2,note_on,49,60,60
2,note_on,61,71,0
2,note_on,61,0,180
2,note_on,49,0,0
2,note_on,61,70,60
2,note_on,49,59,0
2,note_on,49,0,180
2,note_on,61,0,0
2,note_on,61,70,60
2,note_on,49,59,0
2,note_on,49,0,180
2,note_on,61,0,0
2,note_on,61,79,60
2,note_on,49,67,0
2,note_on,49,0,480
2,note_on,61,0,0
2,note_on,61,68,0
2,note_on,49,57,0
2,note_on,49,0,180
2,note_on,61,0,0
2,note_on,49,60,60
2,note_on,61,71,0
2,note_on,61,0,180
2,note_on,49,0,0
2,note_on,61,70,60
2,note_on,49,59,0
2,note_on,49,0,180
2,note_on,61,0,0
2,note_on,61,70,60
2,note_on,49,59,0
2,note_on,49,0,180
2,note_on,61,0,0
2,note_on,61,67,60
2,note_on,56,67,0
2,note_on,64,79,0
2,note_on,52,67,0
2,note_on,52,0,480
2,note_on,61,0,0
2,note_on,56,0,0
2,note_on,64,0,0
2,note_on,64,68,0
2,note_on,52,57,0
2,note_on,52,0,180
2,note_on,64,0,0
2,note_on,52,60,60
2,note_on,64,71,0
2,note_on,64,0,180
2,note_on,52,0,0
2,note_on,64,70,60
2,note_on,52,59,0
2,note_on,52,0,180
2,note_on,64,0,0
2,note_on,64,70,60
2,note_on,52,59,0
2,note_on,52,0,180
2,note_on,64,0,0
2,note_on,64,79,60
2,note_on,52,67,0
2,note_on,52,0,480
2,note_on,64,0,0
2,note_on,33,60,240
2,note_on,45,71,0
2,note_on,45,0,180
2,note_on,33,0,0
2,note_on,49,61,180
2,note_on,57,73,0
2,note_on,57,0,90
2,note_on,49,0,0
2,note_on,57,73,30
2,note_on,49,61,0
2,note_on,49,0,180
2,note_on,57,0,0
2,note_on,49,63,60
2,note_on,57,73,0
2,note_on,57,0,240
2,note_on,49,0,0
2,note_on,59,69,0
2,note_on,52,57,0
2,note_on,52,0,240
2,note_on,59,0,0
2,note_on,57,57,0
2,note_on,61,69,0
2,note_on,61,0,120
2,note_on,57,0,0
2,note_on,57,64,120
2,note_on,61,75,0
2,note_on,61,0,480
2,note_on,57,0,0
2,note_on,57,63,0
2,note_on,61,73,0
2,note_on,61,0,180
2,note_on,57,0,0
2,note_on,57,66,60
2,note_on,61,78,0
2,note_on,61,0,240
2,note_on,57,0,0
2,note_on,62,73,0
2,note_on,59,63,0
2,note_on,59,0,240
2,note_on,62,0,0
2,note_on,61,63,0
2,note_on,64,73,0
2,note_on,64,0,120
2,note_on,61,0,0
2,note_on,64,82,120
2,note_on,61,70,0
2,note_on,61,0,360
2,note_on,64,0,0
2,note_on,62,55,0
2,note_on,66,65,0
2,note_on,66,0,108
2,note_on,62,0,0
2,note_on,66,66,12
2,note_on,62,55,0
2,note_on,62,0,180
2,note_on,66,0,0
2,note_on,57,59,60
2,note_on,69,71,0
2,note_on,66,59,0
2,note_on,66,0,360
2,note_on,69,0,0
2,note_on,57,0,0
2,note_on,69,59,0
2,note_on,66,51,0
2,note_on,66,0,108
2,note_on,69,0,0
2,note_on,69,59,12
2,note_on,66,51,0
2,note_on,66,0,180
2,note_on,69,0,0
2,note_on,69,67,60
2,note_on,66,47,0
2,note_on,66,0,240
2,note_on,69,0,0
2,note_on,68,63,0
2,note_on,64,53,0
2,note_on,64,0,240
2,note_on,68,0,0
2,note_on,62,42,0
2,note_on,66,50,0
2,note_on,66,0,120
2,note_on,62,0,0
2,note_on,57,46,120
2,note_on,62,46,0
2,note_on,66,55,0
2,note_on,66,0,720
2,note_on,62,0,0
2,note_on,57,0,0
2,note_on,61,45,0
2,note_on,64,54,0
2,note_on,64,0,240
2,note_on,61,0,0
2,note_on,49,50,120
2,note_on,57,59,0
2,note_on,57,0,108
2,note_on,49,0,0
2,note_on,57,54,12
2,note_on,49,45,0
2,note_on,49,0,180
2,note_on,57,0,0
2,note_on,49,50,60
2,note_on,57,59,0
2,note_on,57,0,240
2,note_on,49,0,0
2,note_on,59,55,0
2,note_on,52,46,0
2,note_on,52,0,240
2,note_on,59,0,0
2,note_on,57,46,0
2,note_on,61,55,0
2,note_on,61,0,120
2,note_on,57,0,0
2,note_on,57,51,120
2,note_on,61,60,0
2,note_on,61,0,480
2,note_on,57,0,0
2,note_on,57,50,0
2,note_on,61,59,0
2,note_on,61,0,180
2,note_on,57,0,0
2,note_on,57,53,60
2,note_on,61,63,0
2,note_on,61,0,240
2,note_on,57,0,0
2,note_on,62,59,0
2,note_on,59,50,0
2,note_on,59,0,240
2,note_on,62,0,0
2,note_on,61,50,0
2,note_on,64,59,0
2,note_on,64,0,120
2,note_on,61,0,0
2,note_on,64,66,120
2,note_on,61,56,0
2,note_on,61,0,240
2,note_on,64,0,0
2,note_on,38,45,480
2,note_on,50,45,0
2,note_on,50,0,240
2,note_on,38,0,0
2,note_on,59,34,0
2,note_on,57,27,0
2,note_on,54,27,0
2,note_on,50,27,0
2,note_on,50,0,228
2,note_on,59,0,0
2,note_on,57,0,0
2,note_on,54,0,0
2,note_on,59,34,12
2,note_on,57,27,0
2,note_on,54,27,0
2,note_on,50,27,0
2,note_on,50,0,228
2,note_on,59,0,0
2,note_on,57,0,0
2,note_on,54,0,0
2,note_on,59,40,12
2,note_on,57,32,0
2,note_on,54,32,0
2,note_on,50,32,0
2,note_on,50,0,228
2,note_on,59,0,0
2,note_on,57,0,0
2,note_on,54,0,0
2,note_on,59,34,12
2,note_on,57,27,0
2,note_on,54,27,0
2,note_on,50,27,0
2,note_on,50,0,228
2,note_on,59,0,0
2,note_on,57,0,0
2,note_on,54,0,0
2,note_on,59,34,12
2,note_on,57,27,0
2,note_on,54,27,0
2,note_on,50,27,0
2,note_on,50,0,228
2,note_on,59,0,0
2,note_on,57,0,0
2,note_on,54,0,0
2,note_on,59,40,12
2,note_on,57,32,0
2,note_on,54,32,0
2,note_on,50,32,0
2,note_on,50,0,1440
2,note_on,59,0,0
2,note_on,57,0,0
2,note_on,54,0,0
2,note_on,38,45,0
2,note_on,50,45,0
2,note_on,50,0,240
2,note_on,38,0,0
2,note_on,59,34,0
2,note_on,57,27,0
2,note_on,54,27,0
2,note_on,50,27,0
2,note_on,50,0,228
2,note_on,59,0,0
2,note_on,57,0,0
2,note_on,54,0,0
2,note_on,59,34,12
2,note_on,57,27,0
2,note_on,54,27,0
2,note_on,50,27,0
2,note_on,50,0,228
2,note_on,59,0,0
2,note_on,57,0,0
2,note_on,54,0,0
2,note_on,59,40,12
2,note_on,57,32,0
2,note_on,54,32,0
2,note_on,50,32,0
2,note_on,50,0,228
2,note_on,59,0,0
2,note_on,57,0,0
2,note_on,54,0,0
2,note_on,59,34,12
2,note_on,57,27,0
2,note_on,54,27,0
2,note_on,50,27,0
2,note_on,50,0,228
2,note_on,59,0,0
2,note_on,57,0,0
2,note_on,54,0,0
2,note_on,59,34,12
2,note_on,57,27,0
2,note_on,54,27,0
2,note_on,50,27,0
2,note_on,50,0,228
2,note_on,59,0,0
2,note_on,57,0,0
2,note_on,54,0,0
2,note_on,59,40,12
2,note_on,57,32,0
2,note_on,54,32,0
2,note_on,50,32,0
2,note_on,50,0,1440
2,note_on,59,0,0
2,note_on,57,0,0
2,note_on,54,0,0
2,note_on,39,60,0
2,note_on,51,71,0
2,note_on,51,0,456
2,note_on,39,0,0
2,note_on,57,46,24
2,note_on,59,55,0
2,note_on,54,46,0
2,note_on,51,46,0
2,note_on,51,0,180
2,note_on,57,0,0
2,note_on,59,0,0
2,note_on,54,0,0
2,note_on,51,45,60
2,note_on,57,45,0
2,note_on,54,45,0
2,note_on,59,64,0
2,note_on,59,0,456
2,note_on,51,0,0
2,note_on,57,0,0
2,note_on,54,0,0
2,note_on,59,56,24
2,note_on,57,47,0
2,note_on,54,47,0
2,note_on,51,47,0
2,note_on,51,0,120
2,note_on,59,0,0
2,note_on,57,0,0
2,note_on,54,0,0
2,note_on,56,60,120
2,note_on,52,60,0
2,note_on,50,60,0
2,note_on,59,71,0
2,note_on,59,0,456
2,note_on,50,0,0
2,note_on,52,0,24
2,note_on,56,0,0
2,note_on,56,46,0
2,note_on,59,55,0
2,note_on,52,46,0
2,note_on,50,46,0
2,note_on,50,0,180
2,note_on,56,0,0
2,note_on,59,0,0
2,note_on,52,0,0
2,note_on,50,45,60
2,note_on,56,45,0
2,note_on,52,45,0
2,note_on,59,64,0
2,note_on,59,0,456
2,note_on,50,0,0
2,note_on,56,0,0
2,note_on,52,0,0
2,note_on,59,70,24
2,note_on,56,58,0
2,note_on,52,58,0
2,note_on,50,58,0
2,note_on,50,0,120
2,note_on,59,0,0
2,note_on,56,0,0
2,note_on,52,0,0
2,note_on,57,57,120
2,note_on,52,57,0
2,note_on,49,57,0
2,note_on,61,68,0
2,note_on,61,0,456
2,note_on,57,0,0
2,note_on,52,0,0
2,note_on,49,0,0
2,note_on,49,51,24
2,note_on,52,51,0
2,note_on,57,51,0
2,note_on,61,62,0
2,note_on,61,0,120
2,note_on,49,0,0
2,note_on,52,0,0
2,note_on,57,0,0
2,note_on,49,51,120
2,note_on,52,51,0
2,note_on,57,51,0
2,note_on,61,62,0
2,note_on,61,0,480
2,note_on,49,0,0
2,note_on,52,0,0
2,note_on,57,0,0
2,note_on,45,46,240
2,note_on,38,46,0
2,note_on,47,54,0
2,note_on,47,0,120
2,note_on,38,0,0
2,note_on,45,0,0
2,note_on,38,40,120
2,note_on,47,49,0
2,note_on,45,40,0
2,note_on,45,0,120
2,note_on,47,0,0
2,note_on,38,0,0
2,note_on,38,39,120
2,note_on,45,39,0
2,note_on,47,49,0
2,note_on,47,0,120
2,note_on,45,0,0
2,note_on,38,0,0
2,note_on,45,45,120
2,note_on,38,45,0
2,note_on,47,53,0
2,note_on,47,0,120
2,note_on,38,0,0
2,note_on,45,0,0
2,note_on,38,39,120
2,note_on,47,48,0
2,note_on,45,39,0
2,note_on,45,0,120
2,note_on,47,0,0
2,note_on,38,0,0
2,note_on,38,38,120
2,note_on,45,38,0
2,note_on,47,47,0
2,note_on,47,0,120
2,note_on,45,0,0
2,note_on,38,0,0
2,note_on,45,44,120
2,note_on,38,44,0
2,note_on,47,51,0
2,note_on,47,0,120
2,note_on,38,0,0
2,note_on,45,0,0
2,note_on,38,36,120
2,note_on,47,45,0
2,note_on,45,36,0
2,note_on,45,0,120
2,note_on,47,0,0
2,note_on,38,0,0
2,note_on,38,35,120
2,note_on,45,35,0
2,note_on,47,44,0
2,note_on,47,0,120
2,note_on,45,0,0
2,note_on,38,0,0
2,note_on,45,41,120
2,note_on,38,41,0
2,note_on,47,47,0
2,note_on,47,0,120
2,note_on,38,0,0
2,note_on,45,0,0
2,note_on,38,34,120
2,note_on,47,42,0
2,note_on,45,34,0
2,note_on,45,0,120
2,note_on,47,0,0
2,note_on,38,0,0
2,note_on,38,33,120
2,note_on,45,33,0
2,note_on,47,41,0
2,note_on,47,0,120
2,note_on,45,0,0
2,note_on,38,0,0
2,note_on,45,37,120
2,note_on,40,37,0
2,note_on,49,44,0
2,note_on,49,0,120
2,note_on,40,0,0
2,note_on,45,0,0
2,note_on,45,31,120
2,note_on,40,31,0
2,note_on,49,38,0
2,note_on,49,0,120
2,note_on,40,0,0
2,note_on,45,0,0
2,note_on,45,30,120
2,note_on,40,30,0
2,note_on,49,38,0
2,note_on,49,0,120
2,note_on,40,0,0
2,note_on,45,0,0
2,note_on,40,34,120
2,note_on,47,40,0
2,note_on,47,0,120
2,note_on,40,0,0
2,note_on,40,29,120
2,note_on,47,35,0
2,note_on,47,0,120
2,note_on,40,0,0
2,note_on,38,28,120
2,note_on,40,35,0
2,note_on,40,0,120
2,note_on,38,0,0
2,note_on,37,28,120
2,note_on,40,28,0
2,note_on,45,28,0
2,note_on,45,0,480
2,note_on,40,0,0
2,note_on,37,0,0
2,note_on,45,31,480
2,note_on,33,26,0
2,note_on,33,0,120
2,note_on,45,0,0
2,note_on,45,27,120
2,note_on,33,22,0
2,note_on,33,0,120
2,note_on,45,0,0
2,note_on,45,34,120
2,note_on,38,28,0
2,note_on,38,0,480
2,note_on,45,0,0
2,note_on,45,34,480
2,note_on,33,28,0
2,note_on,33,0,120
2,note_on,45,0,0
2,note_on,45,32,120
2,note_on,33,27,0
2,note_on,33,0,120
2,note_on,45,0,0
2,note_on,45,45,120
2,note_on,38,38,0
2,note_on,38,0,480
2,note_on,45,0,0
2,note_on,56,45,480
2,note_on,49,38,0
2,note_on,49,0,120
2,note_on,56,0,0
2,note_on,49,39,120
2,note_on,56,47,0
2,note_on,56,0,120
2,note_on,49,0,0
2,note_on,54,49,120
2,note_on,57,59,0
2,note_on,57,0,480
2,note_on,54,0,0
2,note_on,59,50,480
2,note_on,52,42,0
2,note_on,52,0,120
2,note_on,59,0,0
2,note_on,52,44,120
2,note_on,59,52,0
2,note_on,59,0,120
2,note_on,52,0,0
2,note_on,57,55,120
2,note_on,61,66,0
2,note_on,61,0,480
2,note_on,57,0,0
2,note_on,49,45,480
2,note_on,57,52,0
2,note_on,52,45,0
2,note_on,52,0,120
2,note_on,57,0,0
2,note_on,49,0,0
2,note_on,49,46,120
2,note_on,52,46,0
2,note_on,57,55,0
2,note_on,57,0,120
2,note_on,52,0,0
2,note_on,49,0,0
2,note_on,49,58,120
2,note_on,52,58,0
2,note_on,58,70,0
2,note_on,58,0,480
2,note_on,52,0,0
2,note_on,49,0,0
2,note_on,49,47,480
2,note_on,58,56,0
2,note_on,52,47,0
2,note_on,52,0,120
2,note_on,58,0,0
2,note_on,49,0,0
2,note_on,49,49,120
2,note_on,52,49,0
2,note_on,58,58,0
2,note_on,58,0,120
2,note_on,52,0,0
2,note_on,49,0,0
2,note_on,50,60,120
2,note_on,54,60,0
2,note_on,59,73,0
2,note_on,59,0,480
2,note_on,54,0,0
2,note_on,50,0,0
2,note_on,57,50,480
2,note_on,50,50,0
2,note_on,59,58,0
2,note_on,54,50,0
2,note_on,54,0,120
2,note_on,57,0,0
2,note_on,50,0,0
2,note_on,59,0,0
2,note_on,57,51,120
2,note_on,50,51,0
2,note_on,54,51,0
2,note_on,59,61,0
2,note_on,59,0,120
2,note_on,57,0,0
2,note_on,50,0,0
2,note_on,54,0,0
2,note_on,57,64,120
2,note_on,51,64,0
2,note_on,54,64,0
2,note_on,60,77,0
2,note_on,60,0,480
2,note_on,57,0,0
2,note_on,51,0,0
2,note_on,54,0,0
2,note_on,57,52,480
2,note_on,51,52,0
2,note_on,60,62,0
2,note_on,54,52,0
2,note_on,54,0,120
2,note_on,57,0,0
2,note_on,51,0,0
2,note_on,60,0,0
2,note_on,57,54,120
2,note_on,51,54,0
2,note_on,54,54,0
2,note_on,60,64,0
2,note_on,60,0,120
2,note_on,57,0,0
2,note_on,51,0,0
2,note_on,54,0,0
2,note_on,57,67,120
2,note_on,52,67,0
2,note_on,61,81,0
2,note_on,61,0,480
2,note_on,52,0,0
2,note_on,57,0,0
2,note_on,49,61,600
2,note_on,57,73,0
2,note_on,57,0,90
2,note_on,49,0,0
2,note_on,57,73,30
2,note_on,49,61,0
2,note_on,49,0,180
2,note_on,57,0,0
2,note_on,49,63,60
2,note_on,57,73,0
2,note_on,57,0,240
2,note_on,49,0,0
2,note_on,59,69,0
2,note_on,52,57,0
2,note_on,52,0,240
2,note_on,59,0,0
2,note_on,57,57,0
2,note_on,61,69,0
2,note_on,61,0,120
2,note_on,57,0,0
2,note_on,57,64,120
2,note_on,61,75,0
2,note_on,61,0,480
2,note_on,57,0,0
2,note_on,57,63,0
2,note_on,61,73,0
2,note_on,61,0,180
2,note_on,57,0,0
2,note_on,57,66,60
2,note_on,61,78,0
2,note_on,61,0,240
2,note_on,57,0,0
2,note_on,62,73,0
2,note_on,59,63,0
2,note_on,59,0,240
2,note_on,62,0,0
2,note_on,61,63,0
2,note_on,64,73,0
2,note_on,64,0,120
2,note_on,61,0,0
2,note_on,61,66,120
2,note_on,64,78,0
2,note_on,64,0,240
2,note_on,61,0,0
2,note_on,62,73,0
2,note_on,59,63,0
2,note_on,59,0,240
2,note_on,62,0,0
2,note_on,57,63,0
2,note_on,61,73,0
2,note_on,61,0,120
2,note_on,57,0,0
2,note_on,52,66,120
2,note_on,56,66,0
2,note_on,59,78,0
2,note_on,59,0,960
2,note_on,56,0,0
2,note_on,52,0,0
2,note_on,52,63,0
2,note_on,59,73,0
2,note_on,56,63,0
2,note_on,56,0,120
2,note_on,59,0,0
2,note_on,52,0,0
2,note_on,52,63,120
2,note_on,56,63,0
2,note_on,59,73,0
2,note_on,59,0,120
2,note_on,56,0,0
2,note_on,52,0,0
2,note_on,52,66,120
2,note_on,56,66,0
2,note_on,59,78,0
2,note_on,59,0,480
2,note_on,56,0,0
2,note_on,52,0,0
2,note_on,28,75,240
2,note_on,40,78,0
2,note_on,40,0,240
2,note_on,28,0,0
2,note_on,49,61,120
2,note_on,57,73,0
2,note_on,57,0,90
2,note_on,49,0,0
2,note_on,57,73,30
2,note_on,49,61,0
2,note_on,49,0,180
2,note_on,57,0,0
2,note_on,49,63,60
2,note_on,57,73,0
2,note_on,57,0,240
2,note_on,49,0,0
2,note_on,59,69,0
2,note_on,52,57,0
2,note_on,52,0,240
2,note_on,59,0,0
2,note_on,57,57,0
2,note_on,61,69,0
2,note_on,61,0,120
2,note_on,57,0,0
2,note_on,57,64,120
2,note_on,61,75,0
2,note_on,61,0,480
2,note_on,57,0,0
2,note_on,57,63,0
2,note_on,61,73,0
2,note_on,61,0,180
2,note_on,57,0,0
2,note_on,57,66,60
2,note_on,61,78,0
2,note_on,61,0,240
2,note_on,57,0,0
2,note_on,62,73,0
2,note_on,59,63,0
2,note_on,59,0,240
2,note_on,62,0,0
2,note_on,61,63,0
2,note_on,64,73,0
2,note_on,64,0,120
2,note_on,61,0,0
2,note_on,61,66,120
2,note_on,64,78,0
2,note_on,64,0,240
2,note_on,61,0,0
2,note_on,62,73,0
2,note_on,59,63,0
2,note_on,59,0,240
2,note_on,62,0,0
2,note_on,57,63,0
2,note_on,61,73,0
2,note_on,61,0,120
2,note_on,57,0,0
2,note_on,52,66,120
2,note_on,56,66,0
2,note_on,59,78,0
2,note_on,59,0,960
2,note_on,56,0,0
2,note_on,52,0,0
2,note_on,52,63,0
2,note_on,59,73,0
2,note_on,56,63,0
2,note_on,56,0,120
2,note_on,59,0,0
2,note_on,52,0,0
2,note_on,52,63,120
2,note_on,56,63,0
2,note_on,59,73,0
2,note_on,59,0,120
2,note_on,56,0,0
2,note_on,52,0,0
2,note_on,52,66,120
2,note_on,56,66,0
2,note_on,59,78,0
2,note_on,59,0,480
2,note_on,56,0,0
2,note_on,52,0,0
2,note_on,33,75,240
2,note_on,45,78,0
2,note_on,45,0,240
2,note_on,33,0,0
2,note_on,49,61,120
2,note_on,57,73,0
2,note_on,57,0,90
2,note_on,49,0,0
2,note_on,57,73,30
2,note_on,49,61,0
2,note_on,49,0,180
2,note_on,57,0,0
2,note_on,49,63,60
2,note_on,57,73,0
2,note_on,57,0,240
2,note_on,49,0,0
2,note_on,59,69,0
2,note_on,52,57,0
2,note_on,52,0,240
2,note_on,59,0,0
2,note_on,57,57,0
2,note_on,61,69,0
2,note_on,61,0,120
2,note_on,57,0,0
2,note_on,57,64,120
2,note_on,61,75,0
2,note_on,61,0,480
2,note_on,57,0,0
2,note_on,57,63,0
2,note_on,61,73,0
2,note_on,61,0,180
2,note_on,57,0,0
2,note_on,57,66,60
2,note_on,61,78,0
2,note_on,61,0,240
2,note_on,57,0,0
2,note_on,62,73,0
2,note_on,59,63,0
2,note_on,59,0,240
2,note_on,62,0,0
2,note_on,61,63,0
2,note_on,64,73,0
2,note_on,64,0,120
2,note_on,61,0,0
2,note_on,61,78,120
2,note_on,64,78,0
2,note_on,64,0,360
2,note_on,61,0,0
2,note_on,62,68,0
2,note_on,66,68,0
2,note_on,66,0,120
2,note_on,62,0,0
2,note_on,62,64,0
2,note_on,66,64,0
2,note_on,66,0,240
2,note_on,62,0,0
2,note_on,69,61,0
2,note_on,66,51,0
2,note_on,57,51,0
2,note_on,57,0,1440
2,note_on,66,0,0
2,note_on,69,0,0
2,note_on,66,56,0
2,note_on,62,47,0
2,note_on,57,47,0
2,note_on,57,0,480
2,note_on,62,0,0
2,note_on,66,0,0
2,note_on,66,49,480
2,note_on,62,41,0
2,note_on,62,0,228
2,note_on,66,0,0
2,note_on,66,49,12
2,note_on,62,41,0
2,note_on,62,0,228
2,note_on,66,0,0
2,note_on,57,51,12
2,note_on,66,51,0
2,note_on,69,61,0
2,note_on,69,0,1200
2,note_on,66,0,0
2,note_on,57,0,0
2,note_on,66,46,0
2,note_on,62,39,0
2,note_on,62,0,240
2,note_on,66,0,0
2,note_on,57,45,0
2,note_on,66,45,0
2,note_on,69,54,0
2,note_on,57,0,720
2,note_on,69,0,240
2,note_on,66,0,0
2,note_on,64,39,0
2,note_on,68,42,0
2,note_on,68,0,240
2,note_on,64,0,0
2,note_on,66,41,0
2,note_on,62,35,0
2,note_on,62,0,240
2,note_on,66,0,0
2,note_on,57,31,0
2,note_on,61,31,0
2,note_on,64,37,0
2,note_on,64,0,480
2,note_on,61,0,0
2,note_on,57,0,0
2,note_on,68,29,240
2,note_on,74,40,0
2,note_on,74,0,720
2,note_on,68,0,0
2,note_on,69,31,0
2,note_on,73,37,0
2,note_on,73,0,480
2,note_on,69,0,0
2,note_on,68,31,240
2,note_on,62,31,0
2,note_on,71,44,0
2,note_on,71,0,720
2,note_on,62,0,0
2,note_on,68,0,0
2,note_on,61,31,0
2,note_on,64,31,0
2,note_on,69,37,0
2,note_on,69,0,720
2,note_on,64,0,0
2,note_on,61,0,0
2,note_on,56,30,0
2,note_on,62,42,0
2,note_on,62,0,720
2,note_on,56,0,0
2,note_on,57,30,0
2,note_on,61,35,0
2,note_on,61,0,720
2,note_on,57,0,0
2,note_on,52,27,0
2,note_on,62,38,0
2,note_on,56,27,7
2,note_on,62,0,233
2,note_on,52,0,0
2,note_on,56,0,7
2,note_on,45,29,353
2,note_on,52,29,60
2,note_on,61,34,60
2,note_on,61,0,240
2,note_on,52,0,0
2,note_on,45,0,0
2,note_on,69,26,720
2,note_on,73,36,0
2,note_on,73,0,180
2,note_on,69,0,0
2,note_on,69,26,60
2,note_on,73,26,0
2,note_on,73,0,180
2,note_on,69,0,0
2,note_on,69,27,60
2,note_on,73,33,0
2,note_on,73,0,480
2,note_on,69,0,0
2,note_on,61,25,480
2,note_on,69,35,0
2,note_on,69,0,180
2,note_on,61,0,0
2,note_on,61,25,60
2,note_on,69,25,0
2,note_on,69,0,180
2,note_on,61,0,0
2,note_on,61,26,60
2,note_on,69,32,0
2,note_on,69,0,480
2,note_on,61,0,0
2,note_on,57,24,480
2,note_on,61,34,0
2,note_on,61,0,180
2,note_on,57,0,0
2,note_on,57,24,60
2,note_on,61,24,0
2,note_on,61,0,180
2,note_on,57,0,0
2,note_on,57,26,60
2,note_on,61,31,0
2,note_on,61,0,480
2,note_on,57,0,0
2,note_on,52,41,240
2,note_on,59,48,0
2,note_on,59,0,480
2,note_on,52,0,0
2,note_on,57,56,240
2,note_on,49,51,0
2,note_on,49,0,240
2,note_on,57,0,0
2,note_on,61,25,1020
2,note_on,64,25,60
2,note_on,69,25,0
2,note_on,73,39,120
2,note_on,69,0,180
2,note_on,61,0,60
2,note_on,64,0,0
2,note_on,73,0,0
2,note_on,45,33,1200
2,note_on,33,28,0
2,note_on,33,0,120
2,note_on,45,0,0
