Track,Message Type,Note,Velocity,Time
1,note_on,72,33,1680
1,note_on,72,0,120
1,note_on,74,34,0
1,note_on,74,0,120
1,note_on,76,41,0
1,note_on,76,0,120
1,note_on,72,34,0
1,note_on,72,0,120
1,note_on,69,34,0
1,note_on,69,0,180
1,note_on,76,35,180
1,note_on,76,0,120
1,note_on,72,35,0
1,note_on,72,0,120
1,note_on,69,35,0
1,note_on,69,0,120
1,note_on,77,41,0
1,note_on,77,0,120
1,note_on,74,35,0
1,note_on,74,0,120
1,note_on,69,35,0
1,note_on,69,0,180
1,note_on,77,35,180
1,note_on,77,0,120
1,note_on,74,35,0
1,note_on,74,0,120
1,note_on,69,35,0
1,note_on,69,0,120
1,note_on,74,41,0
1,note_on,74,0,120
1,note_on,71,36,0
1,note_on,71,0,120
1,note_on,68,36,0
1,note_on,68,0,180
1,note_on,74,36,180
1,note_on,74,0,120
1,note_on,71,36,0
1,note_on,71,0,120
1,note_on,68,36,0
1,note_on,68,0,120
1,note_on,76,41,0
1,note_on,76,0,120
1,note_on,72,35,0
1,note_on,72,0,120
1,note_on,69,35,0
1,note_on,69,0,180
1,note_on,71,38,180
1,note_on,71,0,120
1,note_on,72,38,0
1,note_on,72,0,120
1,note_on,74,38,0
1,note_on,74,0,120
1,note_on,76,45,0
1,note_on,76,0,120
1,note_on,72,37,0
1,note_on,72,0,120
1,note_on,69,38,0
1,note_on,69,0,180
1,note_on,76,44,180
1,note_on,76,0,120
1,note_on,72,42,0
1,note_on,72,0,120
1,note_on,69,42,0
1,note_on,69,0,120
1,note_on,77,46,0
1,note_on,77,0,120
1,note_on,74,43,0
1,note_on,74,0,120
1,note_on,69,43,0
1,note_on,69,0,180
1,note_on,77,46,180
1,note_on,77,0,120
1,note_on,74,46,0
1,note_on,74,0,120
1,note_on,69,46,0
1,note_on,69,0,120
1,note_on,74,52,0
1,note_on,74,0,120
1,note_on,71,47,0
1,note_on,71,0,120
1,note_on,68,47,0
1,note_on,68,0,180
1,note_on,74,48,180
1,note_on,74,0,120
1,note_on,71,48,0
1,note_on,71,0,120
1,note_on,68,48,0
1,note_on,68,0,120
1,note_on,76,56,0
1,note_on,76,0,120
1,note_on,72,52,0
1,note_on,72,0,120
1,note_on,69,52,0
1,note_on,69,0,180
1,note_on,74,55,180
1,note_on,74,0,120
1,note_on,71,55,0
1,note_on,71,0,120
1,note_on,68,55,0
1,note_on,68,0,120
1,note_on,76,64,0
1,note_on,76,0,120
1,note_on,72,55,0
1,note_on,72,0,120
1,note_on,69,55,0
1,note_on,69,0,180
1,note_on,74,58,180
1,note_on,74,0,120
1,note_on,71,58,0
1,note_on,71,0,120
1,note_on,68,58,0
1,note_on,68,0,120
1,note_on,76,69,0
1,note_on,76,0,120
1,note_on,72,57,0
1,note_on,72,0,120
1,note_on,69,58,0
1,note_on,69,0,180
1,note_on,74,64,180
1,note_on,74,0,120
1,note_on,71,65,0
1,note_on,71,0,120
1,note_on,68,65,0
1,note_on,68,0,120
1,note_on,76,71,0
1,note_on,76,0,120
1,note_on,72,65,0
1,note_on,72,0,120
1,note_on,69,64,0
1,note_on,69,0,120
1,note_on,64,63,0
1,note_on,64,0,120
1,note_on,64,71,960
1,note_on,64,0,480
1,note_on,64,64,0
1,note_on,69,71,0
1,note_on,69,0,720
1,note_on,64,0,0
1,note_on,64,62,0
1,note_on,71,68,0
1,note_on,71,0,240
1,note_on,64,0,0
1,note_on,69,64,0
1,note_on,72,71,0
1,note_on,72,0,480
1,note_on,69,0,0
1,note_on,71,64,0
1,note_on,74,71,0
1,note_on,74,0,480
1,note_on,71,0,0
1,note_on,72,64,0
1,note_on,76,73,0
1,note_on,76,0,480
1,note_on,72,0,0
1,note_on,76,68,0
1,note_on,79,76,0
1,note_on,79,0,960
1,note_on,76,0,0
1,note_on,74,64,0
1,note_on,77,73,0
1,note_on,77,0,360
1,note_on,74,0,0
1,note_on,72,60,0
1,note_on,76,67,0
1,note_on,76,0,114
1,note_on,72,0,0
1,note_on,72,64,6
1,note_on,76,71,0
1,note_on,76,0,480
1,note_on,72,0,0
1,note_on,71,64,0
1,note_on,74,71,0
1,note_on,74,0,360
1,note_on,71,0,0
1,note_on,69,60,0
1,note_on,72,67,0
1,note_on,72,0,114
1,note_on,69,0,0
1,note_on,69,64,6
1,note_on,72,71,0
1,note_on,72,0,480
1,note_on,69,0,0
1,note_on,65,65,0
1,note_on,72,65,0
1,note_on,76,74,0
1,note_on,76,0,360
1,note_on,72,0,0
1,note_on,65,0,0
1,note_on,71,60,0
1,note_on,74,67,0
1,note_on,74,0,120
1,note_on,71,0,0
1,note_on,69,58,0
1,note_on,72,66,0
1,note_on,72,0,960
1,note_on,69,0,0
1,note_on,68,57,0
1,note_on,71,65,0
1,note_on,71,0,240
1,note_on,68,0,0
1,note_on,62,64,240
1,note_on,64,71,0
1,note_on,64,0,480
1,note_on,62,0,0
1,note_on,60,64,0
1,note_on,64,64,0
1,note_on,69,71,0
1,note_on,69,0,720
1,note_on,64,0,0
1,note_on,60,0,0
1,note_on,64,62,0
1,note_on,71,68,0
1,note_on,71,0,240
1,note_on,64,0,0
1,note_on,69,64,0
1,note_on,72,71,0
1,note_on,72,0,480
1,note_on,69,0,0
1,note_on,71,64,0
1,note_on,74,71,0
1,note_on,74,0,480
1,note_on,71,0,0
1,note_on,72,64,0
1,note_on,76,73,0
1,note_on,76,0,456
1,note_on,72,0,0
1,note_on,67,68,24
1,note_on,76,68,0
1,note_on,79,76,0
1,note_on,79,0,960
1,note_on,76,0,0
1,note_on,67,0,0
1,note_on,74,64,0
1,note_on,77,73,0
1,note_on,77,0,360
1,note_on,74,0,0
1,note_on,72,60,0
1,note_on,76,67,0
1,note_on,76,0,114
1,note_on,72,0,0
1,note_on,72,64,6
1,note_on,76,71,0
1,note_on,76,0,480
1,note_on,72,0,0
1,note_on,71,64,0
1,note_on,74,71,0
1,note_on,74,0,360
1,note_on,71,0,0
1,note_on,69,60,0
1,note_on,72,67,0
1,note_on,72,0,114
1,note_on,69,0,0
1,note_on,69,64,6
1,note_on,72,71,0
1,note_on,72,0,480
1,note_on,69,0,0
1,note_on,67,65,0
1,note_on,71,74,0
1,note_on,71,0,360
1,note_on,67,0,0
1,note_on,65,60,0
1,note_on,69,67,0
1,note_on,69,0,114
1,note_on,65,0,0
1,note_on,65,57,6
1,note_on,69,64,0
1,note_on,69,0,120
1,note_on,65,0,0
1,note_on,59,57,120
1,note_on,68,57,0
1,note_on,71,65,0
1,note_on,71,0,120
1,note_on,68,0,0
1,note_on,59,0,0
1,note_on,60,59,120
1,note_on,69,59,0
1,note_on,72,67,0
1,note_on,72,0,120
1,note_on,69,0,0
1,note_on,60,0,0
1,note_on,62,62,120
1,note_on,71,62,0
1,note_on,74,69,0
1,note_on,74,0,120
1,note_on,71,0,0
1,note_on,62,0,0
1,note_on,64,64,120
1,note_on,72,64,0
1,note_on,76,71,0
1,note_on,76,0,120
1,note_on,72,0,0
1,note_on,64,0,0
1,note_on,62,62,120
1,note_on,71,62,0
1,note_on,74,69,0
1,note_on,74,0,120
1,note_on,71,0,0
1,note_on,62,0,0
1,note_on,60,59,120
1,note_on,69,59,0
1,note_on,72,67,0
1,note_on,72,0,120
1,note_on,69,0,0
1,note_on,60,0,0
1,note_on,59,57,240
1,note_on,64,57,0
1,note_on,71,65,0
1,note_on,71,0,114
1,note_on,64,0,0
1,note_on,59,0,0
1,note_on,59,53,6
1,note_on,64,53,0
1,note_on,71,66,0
1,note_on,71,0,960
1,note_on,64,0,0
1,note_on,59,0,0
1,note_on,60,57,0
1,note_on,69,65,0
1,note_on,69,0,240
1,note_on,60,0,0
1,note_on,68,35,480
1,note_on,68,0,120
1,note_on,69,35,0
1,note_on,69,0,120
1,note_on,71,41,0
1,note_on,71,0,120
1,note_on,68,35,0
1,note_on,68,0,120
1,note_on,64,35,0
1,note_on,64,0,180
1,note_on,71,35,180
1,note_on,71,0,120
1,note_on,68,35,0
1,note_on,68,0,120
1,note_on,64,35,0
1,note_on,64,0,120
1,note_on,72,41,0
1,note_on,72,0,120
1,note_on,69,35,0
1,note_on,69,0,120
1,note_on,64,35,0
1,note_on,64,0,180
1,note_on,72,36,180
1,note_on,72,0,120
1,note_on,69,36,0
1,note_on,69,0,120
1,note_on,64,36,0
1,note_on,64,0,120
1,note_on,69,41,0
1,note_on,69,0,120
1,note_on,66,35,0
1,note_on,66,0,120
1,note_on,63,35,0
1,note_on,63,0,180
1,note_on,69,36,180
1,note_on,69,0,120
1,note_on,66,36,0
1,note_on,66,0,120
1,note_on,63,36,0
1,note_on,63,0,120
1,note_on,71,41,0
1,note_on,71,0,120
1,note_on,68,35,0
1,note_on,68,0,120
1,note_on,64,35,0
1,note_on,64,0,180
1,note_on,66,38,180
1,note_on,66,0,120
1,note_on,68,38,0
1,note_on,68,0,120
1,note_on,69,38,0
1,note_on,69,0,120
1,note_on,71,45,0
1,note_on,71,0,120
1,note_on,68,37,0
1,note_on,68,0,120
1,note_on,64,38,0
1,note_on,64,0,180
1,note_on,71,45,180
1,note_on,71,0,120
1,note_on,68,46,0
1,note_on,68,0,120
1,note_on,64,46,0
1,note_on,64,0,120
1,note_on,72,50,0
1,note_on,72,0,120
1,note_on,69,46,0
1,note_on,69,0,120
1,note_on,64,46,0
1,note_on,64,0,180
1,note_on,72,52,180
1,note_on,72,0,120
1,note_on,69,52,0
1,note_on,69,0,120
1,note_on,64,52,0
1,note_on,64,0,120
1,note_on,69,57,0
1,note_on,69,0,120
1,note_on,66,53,0
1,note_on,66,0,120
1,note_on,63,53,0
1,note_on,63,0,180
1,note_on,69,58,180
1,note_on,69,0,120
1,note_on,66,58,0
1,note_on,66,0,120
1,note_on,63,60,0
1,note_on,63,0,120
1,note_on,71,66,0
1,note_on,71,0,120
1,note_on,68,58,0
1,note_on,68,0,120
1,note_on,64,57,0
1,note_on,64,0,180
1,note_on,64,71,300
1,note_on,64,0,240
1,note_on,64,64,0
1,note_on,71,71,0
1,note_on,71,0,720
1,note_on,64,0,0
1,note_on,69,62,0
1,note_on,72,68,0
1,note_on,72,0,240
1,note_on,69,0,0
1,note_on,68,64,0
1,note_on,74,71,0
1,note_on,74,0,480
1,note_on,68,0,0
1,note_on,69,64,0
1,note_on,72,71,0
1,note_on,72,0,480
1,note_on,69,0,0
1,note_on,68,64,0
1,note_on,77,73,0
1,note_on,77,0,120
1,note_on,68,0,0
1,note_on,68,64,240
1,note_on,76,73,0
1,note_on,76,0,90
1,note_on,68,0,0
1,note_on,68,68,30
1,note_on,74,76,0
1,note_on,74,0,960
1,note_on,68,0,0
1,note_on,68,64,0
1,note_on,77,73,0
1,note_on,77,0,480
1,note_on,68,0,0
1,note_on,69,64,0
1,note_on,76,71,0
1,note_on,76,0,480
1,note_on,69,0,0
1,note_on,64,64,0
1,note_on,72,71,0
1,note_on,72,0,480
1,note_on,64,0,0
1,note_on,64,64,0
1,note_on,71,69,0
1,note_on,71,0,480
1,note_on,64,0,0
1,note_on,60,57,0
1,note_on,63,65,0
1,note_on,69,70,0
1,note_on,69,0,360
1,note_on,71,67,0
1,note_on,71,0,120
1,note_on,63,0,0
1,note_on,60,0,0
1,note_on,60,58,0
1,note_on,63,58,0
1,note_on,69,66,0
1,note_on,69,0,960
1,note_on,63,0,0
1,note_on,60,0,0
1,note_on,59,57,0
1,note_on,64,57,0
1,note_on,68,65,0
1,note_on,68,0,480
1,note_on,64,0,0
1,note_on,59,0,0
1,note_on,64,71,0
1,note_on,64,0,480
1,note_on,59,64,0
1,note_on,64,64,0
1,note_on,71,71,0
1,note_on,71,0,720
1,note_on,64,0,0
1,note_on,59,0,0
1,note_on,60,62,0
1,note_on,69,62,0
1,note_on,72,68,0
1,note_on,72,0,240
1,note_on,69,0,0
1,note_on,60,0,0
1,note_on,62,64,0
1,note_on,68,64,0
1,note_on,74,71,0
1,note_on,74,0,480
1,note_on,68,0,0
1,note_on,62,0,0
1,note_on,65,64,0
1,note_on,68,64,0
1,note_on,77,71,0
1,note_on,77,0,480
1,note_on,68,0,0
1,note_on,65,0,0
1,note_on,69,64,0
1,note_on,64,64,0
1,note_on,76,73,0
1,note_on,76,0,120
1,note_on,64,0,0
1,note_on,69,0,0
1,note_on,69,64,240
1,note_on,62,64,0
1,note_on,74,73,0
1,note_on,74,0,90
1,note_on,62,0,0
1,note_on,69,0,0
1,note_on,60,64,30
1,note_on,69,68,0
1,note_on,72,75,0
1,note_on,72,0,960
1,note_on,69,0,0
1,note_on,60,0,0
1,note_on,72,69,0
1,note_on,64,69,0
1,note_on,76,78,0
1,note_on,76,0,480
1,note_on,64,0,0
1,note_on,72,0,0
1,note_on,71,69,0
1,note_on,62,69,0
1,note_on,74,77,0
1,note_on,74,0,480
1,note_on,62,0,0
1,note_on,71,0,0
1,note_on,69,69,0
1,note_on,64,69,0
1,note_on,72,77,0
1,note_on,72,0,480
1,note_on,64,0,0
1,note_on,69,0,0
1,note_on,67,72,0
1,note_on,62,68,0
1,note_on,71,75,0
1,note_on,71,0,480
1,note_on,62,0,0
1,note_on,67,0,0
1,note_on,66,71,0
1,note_on,60,71,0
1,note_on,62,71,0
1,note_on,69,79,0
1,note_on,69,0,360
1,note_on,71,74,0
1,note_on,71,0,120
1,note_on,62,0,0
1,note_on,60,0,0
1,note_on,66,0,0
1,note_on,66,65,0
1,note_on,60,65,0
1,note_on,62,65,0
1,note_on,69,73,0
1,note_on,69,0,960
1,note_on,66,0,0
1,note_on,60,0,0
1,note_on,62,0,0
1,note_on,59,64,0
1,note_on,62,64,0
1,note_on,67,71,0
1,note_on,67,0,456
1,note_on,62,0,0
1,note_on,59,0,0
1,note_on,67,82,24
1,note_on,67,0,480
1,note_on,67,71,0
1,note_on,76,71,0
1,note_on,79,79,0
1,note_on,79,0,720
1,note_on,76,0,0
1,note_on,67,0,0
1,note_on,65,69,0
1,note_on,74,69,0
1,note_on,77,76,0
1,note_on,77,0,240
1,note_on,74,0,0
1,note_on,65,0,0
1,note_on,64,71,0
1,note_on,72,71,0
1,note_on,76,79,0
1,note_on,76,0,480
1,note_on,72,0,0
1,note_on,64,0,0
1,note_on,65,71,0
1,note_on,74,71,0
1,note_on,77,79,0
1,note_on,77,0,480
1,note_on,74,0,0
1,note_on,65,0,0
1,note_on,72,71,0
1,note_on,64,71,0
1,note_on,76,80,0
1,note_on,76,0,480
1,note_on,64,0,0
1,note_on,72,0,0
1,note_on,62,73,0
1,note_on,71,73,0
1,note_on,74,80,0
1,note_on,74,0,360
1,note_on,71,0,0
1,note_on,62,0,0
1,note_on,60,69,0
1,note_on,69,69,0
1,note_on,72,76,0
1,note_on,72,0,120
1,note_on,69,0,0
1,note_on,60,0,0
1,note_on,62,69,0
1,note_on,71,69,0
1,note_on,74,79,0
1,note_on,74,0,480
1,note_on,71,0,0
1,note_on,62,0,0
1,note_on,65,70,0
1,note_on,67,85,0
1,note_on,67,0,480
1,note_on,65,0,0
1,note_on,72,71,0
1,note_on,64,71,0
1,note_on,76,79,0
1,note_on,76,0,720
1,note_on,64,0,0
1,note_on,72,0,0
1,note_on,62,71,0
1,note_on,71,71,0
1,note_on,74,79,0
1,note_on,74,0,120
1,note_on,71,0,0
1,note_on,62,0,0
1,note_on,60,64,120
1,note_on,69,64,0
1,note_on,72,76,0
1,note_on,72,0,120
1,note_on,69,0,0
1,note_on,60,0,0
1,note_on,62,65,120
1,note_on,71,65,0
1,note_on,74,77,0
1,note_on,74,0,120
1,note_on,71,0,0
1,note_on,62,0,0
1,note_on,64,67,120
1,note_on,72,67,0
1,note_on,76,79,0
1,note_on,76,0,120
1,note_on,72,0,0
1,note_on,64,0,0
1,note_on,62,65,120
1,note_on,71,65,0
1,note_on,74,77,0
1,note_on,74,0,120
1,note_on,71,0,0
1,note_on,62,0,0
1,note_on,69,71,120
1,note_on,60,71,0
1,note_on,72,80,0
1,note_on,72,0,480
1,note_on,60,0,0
1,note_on,69,0,0
1,note_on,59,73,0
1,note_on,68,73,0
1,note_on,71,80,0
1,note_on,71,0,360
1,note_on,68,0,0
1,note_on,59,0,0
1,note_on,57,65,0
1,note_on,66,65,0
1,note_on,69,73,0
1,note_on,69,0,120
1,note_on,66,0,0
1,note_on,57,0,0
1,note_on,59,65,0
1,note_on,68,65,0
1,note_on,71,76,0
1,note_on,71,0,480
1,note_on,68,0,0
1,note_on,59,0,0
1,note_on,62,71,0
1,note_on,64,80,0
1,note_on,64,0,480
1,note_on,62,0,0
1,note_on,60,71,0
1,note_on,64,71,0
1,note_on,69,79,0
1,note_on,69,0,720
1,note_on,64,0,0
1,note_on,60,0,0
1,note_on,64,69,0
1,note_on,71,76,0
1,note_on,71,0,240
1,note_on,64,0,0
1,note_on,69,71,0
1,note_on,72,79,0
1,note_on,72,0,480
1,note_on,69,0,0
1,note_on,71,71,0
1,note_on,74,79,0
1,note_on,74,0,480
1,note_on,71,0,0
1,note_on,72,71,0
1,note_on,76,80,0
1,note_on,76,0,456
1,note_on,72,0,0
1,note_on,67,76,24
1,note_on,76,76,0
1,note_on,79,86,0
1,note_on,79,0,960
1,note_on,76,0,0
1,note_on,67,0,0
1,note_on,74,71,0
1,note_on,77,80,0
1,note_on,77,0,360
1,note_on,74,0,0
1,note_on,72,68,0
1,note_on,76,76,0
1,note_on,76,0,114
1,note_on,72,0,0
1,note_on,72,71,6
1,note_on,76,79,0
1,note_on,76,0,480
1,note_on,72,0,0
1,note_on,71,71,0
1,note_on,74,79,0
1,note_on,74,0,360
1,note_on,71,0,0
1,note_on,69,68,0
1,note_on,72,76,0
1,note_on,72,0,114
1,note_on,69,0,0
1,note_on,69,71,6
1,note_on,72,79,0
1,note_on,72,0,240
1,note_on,69,0,0
1,note_on,72,85,0
1,note_on,72,0,240
1,note_on,64,68,0
1,note_on,65,73,0
1,note_on,72,73,0
1,note_on,76,79,0
1,note_on,76,0,360
1,note_on,64,0,0
1,note_on,65,0,0
1,note_on,72,0,0
1,note_on,71,68,0
1,note_on,74,76,0
1,note_on,74,0,120
1,note_on,71,0,0
1,note_on,69,66,0
1,note_on,72,75,0
1,note_on,63,76,480
1,note_on,63,0,360
1,note_on,64,66,0
1,note_on,64,0,120
1,note_on,72,0,0
1,note_on,69,0,0
1,note_on,68,61,0
1,note_on,71,69,0
1,note_on,71,0,240
1,note_on,68,0,0
1,note_on,62,71,240
1,note_on,64,80,0
1,note_on,64,0,480
1,note_on,62,0,0
1,note_on,60,71,0
1,note_on,64,71,0
1,note_on,69,79,0
1,note_on,69,0,720
1,note_on,64,0,0
1,note_on,60,0,0
1,note_on,64,69,0
1,note_on,71,76,0
1,note_on,71,0,240
1,note_on,64,0,0
1,note_on,69,71,0
1,note_on,72,79,0
1,note_on,72,0,360
1,note_on,69,0,0
1,note_on,64,71,0
1,note_on,71,79,0
1,note_on,71,0,120
1,note_on,64,0,0
1,note_on,69,71,0
1,note_on,72,79,0
1,note_on,72,0,360
1,note_on,69,0,0
1,note_on,74,79,0
1,note_on,71,71,0
1,note_on,71,0,120
1,note_on,74,0,0
1,note_on,72,71,0
1,note_on,76,80,0
1,note_on,76,0,456
1,note_on,72,0,0
1,note_on,76,76,24
1,note_on,79,86,0
1,note_on,79,0,960
1,note_on,76,0,0
1,note_on,79,77,0
1,note_on,82,88,0
1,note_on,82,0,1800
1,note_on,79,0,0
1,note_on,70,67,0
1,note_on,79,67,0
1,note_on,82,79,0
1,note_on,82,0,90
1,note_on,79,0,0
1,note_on,70,0,0
1,note_on,69,73,30
1,note_on,77,73,0
1,note_on,81,81,0
1,note_on,81,0,90
1,note_on,77,0,30
1,note_on,69,0,0
1,note_on,67,68,240
1,note_on,76,68,0
1,note_on,79,76,0
1,note_on,79,0,90
1,note_on,76,0,0
1,note_on,67,0,0
1,note_on,65,75,30
1,note_on,74,75,0
1,note_on,77,84,0
1,note_on,77,0,1320
1,note_on,74,0,0
1,note_on,65,0,0
1,note_on,65,67,0
1,note_on,74,67,0
1,note_on,77,79,0
1,note_on,77,0,90
1,note_on,74,0,0
1,note_on,65,0,0
1,note_on,64,73,30
1,note_on,72,73,0
1,note_on,76,81,0
1,note_on,76,0,120
1,note_on,72,0,0
1,note_on,64,0,0
1,note_on,62,68,240
1,note_on,71,68,0
1,note_on,74,76,0
1,note_on,74,0,90
1,note_on,71,0,0
1,note_on,62,0,0
1,note_on,60,75,30
1,note_on,69,75,0
1,note_on,72,84,0
1,note_on,72,0,1200
1,note_on,69,0,0
1,note_on,60,0,0
1,note_on,59,67,0
1,note_on,68,67,0
1,note_on,71,79,0
1,note_on,71,0,90
1,note_on,68,0,0
1,note_on,59,0,0
1,note_on,57,73,150
1,note_on,66,73,0
1,note_on,69,81,0
1,note_on,69,0,120
1,note_on,66,0,0
1,note_on,57,0,0
1,note_on,59,68,120
1,note_on,68,68,0
1,note_on,71,76,0
1,note_on,71,0,90
1,note_on,68,0,0
1,note_on,59,0,0
1,note_on,60,64,150
1,note_on,69,64,0
1,note_on,72,76,0
1,note_on,72,0,120
1,note_on,69,0,0
1,note_on,60,0,0
1,note_on,62,65,120
1,note_on,71,65,0
1,note_on,74,77,0
1,note_on,74,0,120
1,note_on,71,0,0
1,note_on,62,0,0
1,note_on,64,67,120
1,note_on,72,67,0
1,note_on,76,79,0
1,note_on,76,0,120
1,note_on,72,0,0
1,note_on,64,0,0
1,note_on,65,69,120
1,note_on,74,69,0
1,note_on,77,81,0
1,note_on,77,0,120
1,note_on,74,0,0
1,note_on,65,0,0
1,note_on,64,66,120
1,note_on,72,66,0
1,note_on,76,78,0
1,note_on,76,0,120
1,note_on,72,0,0
1,note_on,64,0,0
1,note_on,62,65,120
1,note_on,71,65,0
1,note_on,74,77,0
1,note_on,74,0,120
1,note_on,71,0,0
1,note_on,62,0,0
1,note_on,60,64,120
1,note_on,69,64,0
1,note_on,72,76,0
1,note_on,72,0,120
1,note_on,69,0,0
1,note_on,60,0,0
1,note_on,64,64,240
1,note_on,71,76,0
1,note_on,71,0,90
1,note_on,64,0,0
1,note_on,64,64,30
1,note_on,71,76,0
1,note_on,71,0,960
1,note_on,64,0,0
1,note_on,60,64,0
1,note_on,69,76,0
1,note_on,69,0,480
1,note_on,60,0,0
1,note_on,69,34,120
1,note_on,69,0,120
1,note_on,68,34,0
1,note_on,68,0,120
1,note_on,69,34,0
1,note_on,69,0,120
1,note_on,71,41,0
1,note_on,71,0,120
1,note_on,68,35,0
1,note_on,68,0,120
1,note_on,64,35,0
1,note_on,64,0,180
1,note_on,71,34,180
1,note_on,71,0,120
1,note_on,68,34,0
1,note_on,68,0,120
1,note_on,64,34,0
1,note_on,64,0,120
1,note_on,72,41,0
1,note_on,72,0,120
1,note_on,69,34,0
1,note_on,69,0,120
1,note_on,64,34,0
1,note_on,64,0,180
1,note_on,72,36,180
1,note_on,72,0,120
1,note_on,69,36,0
1,note_on,69,0,120
1,note_on,64,36,0
1,note_on,64,0,120
1,note_on,69,41,0
1,note_on,69,0,120
1,note_on,66,36,0
1,note_on,66,0,120
1,note_on,63,36,0
1,note_on,63,0,180
1,note_on,69,36,180
1,note_on,69,0,120
1,note_on,66,36,0
1,note_on,66,0,120
1,note_on,63,36,0
1,note_on,63,0,120
1,note_on,71,41,0
1,note_on,71,0,120
1,note_on,68,35,0
1,note_on,68,0,120
1,note_on,64,35,0
1,note_on,64,0,180
1,note_on,66,39,180
1,note_on,66,0,120
1,note_on,68,39,0
1,note_on,68,0,120
1,note_on,69,39,0
1,note_on,69,0,120
1,note_on,71,42,0
1,note_on,71,0,120
1,note_on,68,38,0
1,note_on,68,0,120
1,note_on,64,38,0
1,note_on,64,0,180
1,note_on,71,46,180
1,note_on,71,0,120
1,note_on,68,47,0
1,note_on,68,0,120
1,note_on,64,47,0
1,note_on,64,0,120
1,note_on,72,53,0
1,note_on,72,0,120
1,note_on,69,48,0
1,note_on,69,0,120
1,note_on,64,48,0
1,note_on,64,0,180
1,note_on,72,53,180
1,note_on,72,0,120
1,note_on,69,54,0
1,note_on,69,0,120
1,note_on,64,54,0
1,note_on,64,0,120
1,note_on,69,60,0
1,note_on,69,0,120
1,note_on,66,56,0
1,note_on,66,0,120
1,note_on,63,56,0
1,note_on,63,0,180
1,note_on,69,58,180
1,note_on,69,0,120
1,note_on,66,58,0
1,note_on,66,0,120
1,note_on,63,58,0
1,note_on,63,0,120
1,note_on,71,71,0
1,note_on,71,0,120
1,note_on,68,59,0
1,note_on,68,0,120
1,note_on,64,60,0
1,note_on,64,0,180
1,note_on,64,79,300
1,note_on,64,0,240
1,note_on,59,71,0
1,note_on,64,71,0
1,note_on,71,79,0
1,note_on,71,0,720
1,note_on,64,0,0
1,note_on,59,0,0
1,note_on,60,69,0
1,note_on,64,69,0
1,note_on,72,76,0
1,note_on,72,0,240
1,note_on,64,0,0
1,note_on,60,0,0
1,note_on,62,71,0
1,note_on,64,71,0
1,note_on,74,79,0
1,note_on,74,0,480
1,note_on,64,0,0
1,note_on,62,0,0
1,note_on,60,71,0
1,note_on,64,71,0
1,note_on,72,79,0
1,note_on,72,0,480
1,note_on,64,0,0
1,note_on,60,0,0
1,note_on,65,71,0
1,note_on,68,71,0
1,note_on,77,80,0
1,note_on,77,0,120
1,note_on,68,0,0
1,note_on,65,0,0
1,note_on,64,71,240
1,note_on,68,71,0
1,note_on,76,80,0
1,note_on,76,0,90
1,note_on,68,0,0
1,note_on,64,0,0
1,note_on,62,76,30
1,note_on,68,76,0
1,note_on,74,86,0
1,note_on,74,0,960
1,note_on,68,0,0
1,note_on,62,0,0
1,note_on,65,71,0
1,note_on,68,71,0
1,note_on,77,80,0
1,note_on,77,0,480
1,note_on,68,0,0
1,note_on,65,0,0
1,note_on,64,71,0
1,note_on,69,71,0
1,note_on,76,79,0
1,note_on,76,0,480
1,note_on,69,0,0
1,note_on,64,0,0
1,note_on,60,71,0
1,note_on,64,71,0
1,note_on,72,79,0
1,note_on,72,0,480
1,note_on,64,0,0
1,note_on,60,0,0
1,note_on,59,75,0
1,note_on,64,71,0
1,note_on,71,75,0
1,note_on,71,0,480
1,note_on,64,0,0
1,note_on,59,0,0
1,note_on,60,66,0
1,note_on,63,73,0
1,note_on,69,76,0
1,note_on,69,0,360
1,note_on,71,76,0
1,note_on,71,0,120
1,note_on,63,0,0
1,note_on,60,0,0
1,note_on,60,66,0
1,note_on,63,66,0
1,note_on,69,75,0
1,note_on,69,0,960
1,note_on,63,0,0
1,note_on,60,0,0
1,note_on,59,65,0
1,note_on,64,65,0
1,note_on,68,73,0
1,note_on,68,0,456
1,note_on,64,0,0
1,note_on,59,0,0
1,note_on,64,79,24
1,note_on,64,0,480
1,note_on,59,71,0
1,note_on,64,71,0
1,note_on,71,79,0
1,note_on,71,0,720
1,note_on,64,0,0
1,note_on,59,0,0
1,note_on,60,69,0
1,note_on,69,69,0
1,note_on,72,76,0
1,note_on,72,0,240
1,note_on,69,0,0
1,note_on,60,0,0
1,note_on,62,71,0
1,note_on,68,71,0
1,note_on,74,79,0
1,note_on,62,0,478
1,note_on,74,0,2
1,note_on,68,0,0
1,note_on,65,71,0
1,note_on,68,71,0
1,note_on,77,79,0
1,note_on,77,0,480
1,note_on,68,0,0
1,note_on,65,0,0
1,note_on,69,71,0
1,note_on,64,71,0
1,note_on,76,80,0
1,note_on,76,0,120
1,note_on,64,0,0
1,note_on,69,0,0
1,note_on,69,71,240
1,note_on,62,71,0
1,note_on,74,80,0
1,note_on,74,0,90
1,note_on,62,0,0
1,note_on,69,0,0
1,note_on,60,71,30
1,note_on,69,76,0
1,note_on,72,84,0
1,note_on,72,0,960
1,note_on,69,0,0
1,note_on,60,0,0
1,note_on,66,75,0
1,note_on,72,75,0
1,note_on,64,75,0
1,note_on,76,84,0
1,note_on,76,0,480
1,note_on,66,0,0
1,note_on,72,0,0
1,note_on,64,0,0
1,note_on,67,75,0
1,note_on,71,75,0
1,note_on,62,75,0
1,note_on,74,83,0
1,note_on,74,0,480
1,note_on,67,0,0
1,note_on,71,0,0
1,note_on,62,0,0
1,note_on,60,75,0
1,note_on,69,75,0
1,note_on,64,75,0
1,note_on,72,83,0
1,note_on,72,0,480
1,note_on,60,0,0
1,note_on,69,0,0
1,note_on,64,0,0
1,note_on,59,74,0
1,note_on,67,76,0
1,note_on,62,74,0
1,note_on,71,80,0
1,note_on,71,0,480
1,note_on,59,0,0
1,note_on,67,0,0
1,note_on,62,0,0
1,note_on,66,76,0
1,note_on,57,76,0
1,note_on,60,76,0
1,note_on,69,85,0
1,note_on,69,0,360
1,note_on,59,78,0
1,note_on,71,78,0
1,note_on,71,0,120
1,note_on,66,0,0
1,note_on,60,0,0
1,note_on,57,0,0
1,note_on,59,0,0
1,note_on,66,69,0
1,note_on,57,69,0
1,note_on,60,69,0
1,note_on,69,77,0
1,note_on,69,0,960
1,note_on,66,0,0
1,note_on,57,0,0
1,note_on,60,0,0
1,note_on,59,68,0
1,note_on,62,68,0
1,note_on,67,76,0
1,note_on,67,0,456
1,note_on,62,0,0
1,note_on,59,0,0
1,note_on,67,88,24
1,note_on,67,0,480
1,note_on,67,75,0
1,note_on,76,76,0
1,note_on,79,88,0
1,note_on,79,0,720
1,note_on,76,0,0
1,note_on,67,0,0
1,note_on,65,73,0
1,note_on,74,73,0
1,note_on,77,79,0
1,note_on,77,0,240
1,note_on,74,0,0
1,note_on,65,0,0
1,note_on,64,75,0
1,note_on,72,75,0
1,note_on,76,83,0
1,note_on,76,0,480
1,note_on,72,0,0
1,note_on,64,0,0
1,note_on,65,75,0
1,note_on,74,75,0
1,note_on,77,83,0
1,note_on,77,0,480
1,note_on,74,0,0
1,note_on,65,0,0
1,note_on,72,75,0
1,note_on,64,75,0
1,note_on,76,84,0
1,note_on,76,0,480
1,note_on,64,0,0
1,note_on,72,0,0
1,note_on,62,76,0
1,note_on,71,76,0
1,note_on,74,84,0
1,note_on,74,0,360
1,note_on,71,0,0
1,note_on,62,0,0
1,note_on,60,73,0
1,note_on,69,73,0
1,note_on,72,79,0
1,note_on,72,0,120
1,note_on,69,0,0
1,note_on,60,0,0
1,note_on,62,73,0
1,note_on,71,73,0
1,note_on,74,83,0
1,note_on,74,0,480
1,note_on,71,0,0
1,note_on,62,0,0
1,note_on,65,74,0
1,note_on,67,89,0
1,note_on,67,0,480
1,note_on,65,0,0
1,note_on,72,76,0
1,note_on,64,75,0
1,note_on,76,85,0
1,note_on,76,0,720
1,note_on,64,0,0
1,note_on,72,0,0
1,note_on,62,75,0
1,note_on,71,75,0
1,note_on,74,83,0
1,note_on,74,0,120
1,note_on,71,0,0
1,note_on,62,0,0
1,note_on,60,67,120
1,note_on,69,67,0
1,note_on,72,78,0
1,note_on,72,0,120
1,note_on,69,0,0
1,note_on,60,0,0
1,note_on,62,68,120
1,note_on,71,68,0
1,note_on,74,80,0
1,note_on,74,0,120
1,note_on,71,0,0
1,note_on,62,0,0
1,note_on,64,70,120
1,note_on,72,70,0
1,note_on,76,83,0
1,note_on,76,0,120
1,note_on,72,0,0
1,note_on,64,0,0
1,note_on,62,68,120
1,note_on,71,68,0
1,note_on,74,80,0
1,note_on,74,0,120
1,note_on,71,0,0
1,note_on,62,0,0
1,note_on,69,75,120
1,note_on,60,75,0
1,note_on,72,84,0
1,note_on,72,0,480
1,note_on,60,0,0
1,note_on,69,0,0
1,note_on,59,76,0
1,note_on,68,76,0
1,note_on,71,84,0
1,note_on,71,0,360
1,note_on,68,0,0
1,note_on,59,0,0
1,note_on,57,68,0
1,note_on,66,68,0
1,note_on,69,76,0
1,note_on,69,0,120
1,note_on,66,0,0
1,note_on,57,0,0
1,note_on,59,68,0
1,note_on,68,68,0
1,note_on,71,78,0
1,note_on,71,0,480
1,note_on,68,0,0
1,note_on,59,0,0
1,note_on,62,75,0
1,note_on,64,84,0
1,note_on,64,0,480
1,note_on,62,0,0
1,note_on,57,75,0
1,note_on,60,75,0
1,note_on,64,75,0
1,note_on,69,83,0
1,note_on,69,0,720
1,note_on,57,0,0
1,note_on,60,0,0
1,note_on,64,0,0
1,note_on,59,73,0
1,note_on,64,73,0
1,note_on,71,79,0
1,note_on,71,0,240
1,note_on,64,0,0
1,note_on,59,0,0
1,note_on,60,75,0
1,note_on,69,75,0
1,note_on,72,83,0
1,note_on,72,0,480
1,note_on,69,0,0
1,note_on,60,0,0
1,note_on,62,75,0
1,note_on,71,75,0
1,note_on,74,83,0
1,note_on,74,0,480
1,note_on,71,0,0
1,note_on,62,0,0
1,note_on,64,75,0
1,note_on,72,75,0
1,note_on,76,84,0
1,note_on,76,0,480
1,note_on,72,0,0
1,note_on,64,0,0
1,note_on,67,79,0
1,note_on,76,79,0
1,note_on,79,90,0
1,note_on,79,0,960
1,note_on,76,0,0
1,note_on,67,0,0
1,note_on,65,75,0
1,note_on,74,75,0
1,note_on,77,84,0
1,note_on,77,0,360
1,note_on,74,0,0
1,note_on,65,0,0
1,note_on,64,71,0
1,note_on,72,71,0
1,note_on,76,78,0
1,note_on,76,0,114
1,note_on,72,0,0
1,note_on,64,0,0
1,note_on,64,75,6
1,note_on,72,75,0
1,note_on,76,83,0
1,note_on,76,0,480
1,note_on,72,0,0
1,note_on,64,0,0
1,note_on,62,75,0
1,note_on,71,75,0
1,note_on,74,83,0
1,note_on,74,0,360
1,note_on,71,0,0
1,note_on,62,0,0
1,note_on,60,71,0
1,note_on,69,71,0
1,note_on,72,78,0
1,note_on,72,0,114
1,note_on,69,0,0
1,note_on,60,0,0
1,note_on,60,75,6
1,note_on,69,75,0
1,note_on,72,83,0
1,note_on,72,0,480
1,note_on,69,0,0
1,note_on,60,0,0
1,note_on,64,76,0
1,note_on,72,76,0
1,note_on,76,85,0
1,note_on,76,0,360
1,note_on,72,0,0
1,note_on,64,0,0
1,note_on,62,71,0
1,note_on,71,71,0
1,note_on,74,78,0
1,note_on,74,0,120
1,note_on,71,0,0
1,note_on,62,0,0
1,note_on,60,69,0
1,note_on,69,69,0
1,note_on,72,77,0
1,note_on,72,0,960
1,note_on,69,0,0
1,note_on,60,0,0
1,note_on,59,68,0
1,note_on,68,68,0
1,note_on,71,76,0
1,note_on,71,0,480
1,note_on,68,0,0
1,note_on,59,0,0
1,note_on,62,75,0
1,note_on,64,84,0
1,note_on,64,0,480
1,note_on,62,0,0
1,note_on,57,75,0
1,note_on,60,75,0
1,note_on,64,75,0
1,note_on,69,83,0
1,note_on,69,0,720
1,note_on,57,0,0
1,note_on,60,0,0
1,note_on,64,0,0
1,note_on,59,73,0
1,note_on,64,73,0
1,note_on,71,79,0
1,note_on,71,0,240
1,note_on,64,0,0
1,note_on,59,0,0
1,note_on,60,75,0
1,note_on,69,75,0
1,note_on,72,83,0
1,note_on,72,0,360
1,note_on,69,0,0
1,note_on,60,0,0
1,note_on,59,75,0
1,note_on,68,75,0
1,note_on,71,83,0
1,note_on,71,0,120
1,note_on,68,0,0
1,note_on,59,0,0
1,note_on,60,75,0
1,note_on,69,75,0
1,note_on,72,83,0
1,note_on,72,0,360
1,note_on,69,0,0
1,note_on,60,0,0
1,note_on,62,75,0
1,note_on,74,83,0
1,note_on,71,75,0
1,note_on,71,0,120
1,note_on,74,0,0
1,note_on,62,0,0
1,note_on,64,75,0
1,note_on,72,75,0
1,note_on,76,84,0
1,note_on,76,0,480
1,note_on,72,0,0
1,note_on,64,0,0
1,note_on,67,79,0
1,note_on,76,79,0
1,note_on,79,90,0
1,note_on,79,0,960
1,note_on,76,0,0
1,note_on,67,0,0
1,note_on,70,80,0
1,note_on,79,80,0
1,note_on,82,92,0
1,note_on,82,0,1800
1,note_on,79,0,0
1,note_on,70,0,0
1,note_on,70,76,0
1,note_on,79,76,0
1,note_on,82,83,0
1,note_on,82,0,120
1,note_on,79,0,0
1,note_on,70,0,0
1,note_on,69,76,0
1,note_on,77,76,0
1,note_on,81,85,0
1,note_on,81,0,360
1,note_on,77,0,0
1,note_on,69,0,0
1,note_on,67,71,0
1,note_on,76,71,0
1,note_on,79,78,0
1,note_on,79,0,120
1,note_on,76,0,0
1,note_on,67,0,0
1,note_on,65,77,0
1,note_on,74,77,0
1,note_on,77,88,0
1,note_on,77,0,1320
1,note_on,74,0,0
1,note_on,65,0,0
1,note_on,65,70,0
1,note_on,74,70,0
1,note_on,77,83,0
1,note_on,77,0,120
1,note_on,74,0,0
1,note_on,65,0,0
1,note_on,64,76,0
1,note_on,72,76,0
1,note_on,76,85,0
1,note_on,76,0,360
1,note_on,72,0,0
1,note_on,64,0,0
1,note_on,62,71,0
1,note_on,71,71,0
1,note_on,74,78,0
1,note_on,74,0,120
1,note_on,71,0,0
1,note_on,62,0,0
1,note_on,60,74,0
1,note_on,69,77,0
1,note_on,72,82,0
1,note_on,59,42,1200
1,note_on,68,42,0
1,note_on,71,60,0
1,note_on,71,0,120
1,note_on,69,0,0
1,note_on,72,0,0
1,note_on,60,0,0
1,note_on,68,0,0
1,note_on,59,0,0
1,note_on,57,53,120
1,note_on,66,53,0
1,note_on,69,64,0
1,note_on,69,0,120
1,note_on,66,0,0
1,note_on,57,0,0
1,note_on,59,52,120
1,note_on,68,52,0
1,note_on,71,62,0
1,note_on,71,0,120
1,note_on,68,0,0
1,note_on,59,0,0
1,note_on,69,52,120
1,note_on,72,63,0
1,note_on,60,52,0
1,note_on,60,0,120
1,note_on,72,0,0
1,note_on,69,0,0
1,note_on,62,54,120
1,note_on,74,65,0
1,note_on,71,54,0
1,note_on,71,0,120
1,note_on,74,0,0
1,note_on,62,0,0
1,note_on,64,56,120
1,note_on,76,67,0
1,note_on,72,56,0
1,note_on,72,0,120
1,note_on,76,0,0
1,note_on,64,0,0
1,note_on,65,57,120
1,note_on,74,57,0
1,note_on,77,69,0
1,note_on,77,0,120
1,note_on,74,0,0
1,note_on,65,0,0
1,note_on,64,57,120
1,note_on,72,57,0
1,note_on,76,68,0
1,note_on,76,0,120
1,note_on,72,0,0
1,note_on,64,0,0
1,note_on,71,57,120
1,note_on,74,68,0
1,note_on,62,57,0
1,note_on,62,0,120
1,note_on,74,0,0
1,note_on,71,0,0
1,note_on,69,57,120
1,note_on,72,68,0
1,note_on,60,57,0
1,note_on,60,0,120
1,note_on,72,0,0
1,note_on,69,0,0
1,note_on,68,58,120
1,note_on,71,68,0
1,note_on,59,58,0
1,note_on,59,0,120
1,note_on,71,0,0
1,note_on,68,0,0
1,note_on,72,70,120
1,note_on,60,59,0
1,note_on,69,59,0
1,note_on,69,0,120
1,note_on,60,0,0
1,note_on,72,0,0
1,note_on,62,59,120
1,note_on,71,59,0
1,note_on,74,71,0
1,note_on,74,0,120
1,note_on,71,0,0
1,note_on,62,0,0
1,note_on,72,63,120
1,note_on,76,76,0
1,note_on,64,63,0
1,note_on,64,0,120
1,note_on,76,0,0
1,note_on,72,0,0
1,note_on,65,65,120
1,note_on,77,78,0
1,note_on,74,65,0
1,note_on,74,0,120
1,note_on,77,0,0
1,note_on,65,0,0
1,note_on,64,63,120
1,note_on,76,76,0
1,note_on,72,63,0
1,note_on,72,0,120
1,note_on,76,0,0
1,note_on,64,0,0
1,note_on,62,64,120
1,note_on,71,64,0
1,note_on,74,76,0
1,note_on,74,0,120
1,note_on,71,0,0
1,note_on,62,0,0
1,note_on,60,64,120
1,note_on,69,64,0
1,note_on,72,76,0
1,note_on,72,0,120
1,note_on,69,0,0
1,note_on,60,0,0
1,note_on,68,64,120
1,note_on,71,76,0
1,note_on,59,64,0
1,note_on,59,0,120
1,note_on,71,0,0
1,note_on,68,0,0
1,note_on,69,66,120
1,note_on,72,79,0
1,note_on,60,66,0
1,note_on,60,0,120
1,note_on,72,0,0
1,note_on,69,0,0
1,note_on,74,81,120
1,note_on,71,68,0
1,note_on,62,68,0
1,note_on,62,0,120
1,note_on,71,0,0
1,note_on,74,0,0
1,note_on,76,84,120
1,note_on,72,70,0
1,note_on,64,70,0
1,note_on,64,0,120
1,note_on,72,0,0
1,note_on,76,0,0
1,note_on,65,73,120
1,note_on,74,73,0
1,note_on,77,86,0
1,note_on,77,0,120
1,note_on,74,0,0
1,note_on,65,0,0
1,note_on,76,83,120
1,note_on,64,69,0
1,note_on,72,69,0
1,note_on,72,0,120
1,note_on,64,0,0
1,note_on,76,0,0
1,note_on,62,68,120
1,note_on,71,68,0
1,note_on,74,81,0
1,note_on,74,0,120
1,note_on,71,0,0
1,note_on,62,0,0
1,note_on,60,67,120
1,note_on,69,67,0
1,note_on,72,80,0
1,note_on,72,0,120
1,note_on,69,0,0
1,note_on,60,0,0
1,note_on,68,68,120
1,note_on,59,68,0
1,note_on,71,80,0
1,note_on,71,0,120
1,note_on,59,0,0
1,note_on,68,0,0
1,note_on,60,70,120
1,note_on,69,70,0
1,note_on,72,84,0
1,note_on,72,0,120
1,note_on,69,0,0
1,note_on,60,0,0
1,note_on,74,85,120
1,note_on,62,71,0
1,note_on,71,71,0
1,note_on,71,0,120
1,note_on,62,0,0
1,note_on,74,0,0
1,note_on,64,74,120
1,note_on,72,74,0
1,note_on,76,88,0
1,note_on,76,0,120
1,note_on,72,0,0
1,note_on,64,0,0
1,note_on,77,90,120
1,note_on,65,76,0
1,note_on,74,76,0
1,note_on,74,0,120
1,note_on,65,0,0
1,note_on,77,0,0
1,note_on,64,74,120
1,note_on,72,74,0
1,note_on,76,87,0
1,note_on,76,0,120
1,note_on,72,0,0
1,note_on,64,0,0
1,note_on,62,74,120
1,note_on,74,87,0
1,note_on,71,74,0
1,note_on,71,0,120
1,note_on,74,0,0
1,note_on,62,0,0
1,note_on,69,73,120
1,note_on,60,73,0
1,note_on,72,86,0
1,note_on,72,0,120
1,note_on,60,0,0
1,note_on,69,0,0
1,note_on,68,73,120
1,note_on,59,73,0
1,note_on,71,86,0
1,note_on,71,0,120
1,note_on,59,0,0
1,note_on,68,0,0
1,note_on,69,72,120
1,note_on,72,93,0
1,note_on,60,72,0
1,note_on,60,0,180
1,note_on,72,0,0
1,note_on,69,0,0
1,note_on,71,89,60
1,note_on,59,69,0
1,note_on,68,69,0
1,note_on,68,0,180
1,note_on,59,0,0
1,note_on,71,0,0
1,note_on,72,93,60
1,note_on,60,72,0
1,note_on,69,72,0
1,note_on,69,0,180
1,note_on,60,0,0
1,note_on,72,0,0
1,note_on,59,67,60
1,note_on,68,67,0
1,note_on,71,85,0
1,note_on,71,0,180
1,note_on,68,0,0
1,note_on,59,0,0
1,note_on,60,72,60
1,note_on,72,93,0
1,note_on,69,72,0
1,note_on,69,0,180
1,note_on,72,0,0
1,note_on,60,0,0
1,note_on,71,83,60
1,note_on,68,66,0
1,note_on,59,66,0
1,note_on,59,0,180
1,note_on,68,0,0
1,note_on,71,0,0
1,note_on,60,72,60
1,note_on,69,72,0
1,note_on,72,93,0
1,note_on,72,0,180
1,note_on,69,0,0
1,note_on,60,0,0
1,note_on,71,83,60
1,note_on,59,66,0
1,note_on,68,66,0
1,note_on,68,0,180
1,note_on,59,0,0
1,note_on,71,0,0
1,note_on,60,72,60
1,note_on,69,72,0
1,note_on,72,93,0
1,note_on,72,0,180
1,note_on,69,0,0
1,note_on,60,0,0
1,note_on,59,67,60
1,note_on,68,67,0
1,note_on,71,85,0
1,note_on,71,0,180
1,note_on,68,0,0
1,note_on,59,0,0
1,note_on,69,72,60
1,note_on,60,72,0
1,note_on,72,93,0
1,note_on,72,0,180
1,note_on,60,0,0
1,note_on,69,0,0
1,note_on,62,66,60
1,note_on,71,66,0
1,note_on,74,83,0
1,note_on,74,0,180
1,note_on,71,0,0
1,note_on,62,0,0
1,note_on,76,93,60
1,note_on,64,72,0
1,note_on,72,72,0
1,note_on,72,0,480
1,note_on,64,0,0
1,note_on,76,0,0
1,note_on,59,68,0
1,note_on,64,68,0
1,note_on,71,88,0
1,note_on,71,0,360
1,note_on,64,0,0
1,note_on,59,0,0
1,note_on,60,63,0
1,note_on,72,81,0
1,note_on,72,0,120
1,note_on,60,0,0
1,note_on,64,68,0
1,note_on,59,68,0
1,note_on,71,88,0
1,note_on,71,0,960
1,note_on,59,0,0
1,note_on,64,0,0
1,note_on,57,63,0
1,note_on,69,81,0
1,note_on,69,0,480
1,note_on,57,0,0
1,note_on,71,68,120
1,note_on,71,0,120
1,note_on,72,69,0
1,note_on,72,0,120
1,note_on,74,66,0
1,note_on,74,0,120
1,note_on,76,76,0
1,note_on,76,0,120
1,note_on,72,64,0
1,note_on,72,0,120
1,note_on,69,64,0
1,note_on,69,0,180
1,note_on,76,70,180
1,note_on,76,0,120
1,note_on,72,69,0
1,note_on,72,0,120
1,note_on,69,69,0
1,note_on,69,0,120
1,note_on,77,76,0
1,note_on,77,0,120
1,note_on,74,64,0
1,note_on,74,0,120
1,note_on,69,64,0
1,note_on,69,0,180
1,note_on,77,68,180
1,note_on,77,0,120
1,note_on,74,68,0
1,note_on,74,0,120
1,note_on,69,68,0
1,note_on,69,0,120
1,note_on,74,76,0
1,note_on,74,0,120
1,note_on,71,64,0
1,note_on,71,0,120
1,note_on,68,64,0
1,note_on,68,0,180
1,note_on,74,64,180
1,note_on,74,0,120
1,note_on,71,64,0
1,note_on,71,0,120
1,note_on,68,64,0
1,note_on,68,0,120
1,note_on,76,75,0
1,note_on,76,0,120
1,note_on,72,62,0
1,note_on,72,0,120
1,note_on,69,63,0
1,note_on,69,0,180
1,note_on,71,47,180
1,note_on,71,0,120
1,note_on,72,47,0
1,note_on,72,0,120
1,note_on,74,48,0
1,note_on,74,0,120
1,note_on,76,57,0
1,note_on,76,0,120
1,note_on,73,46,0
1,note_on,73,0,120
1,note_on,69,46,0
1,note_on,69,0,180
1,note_on,76,44,180
1,note_on,76,0,120
1,note_on,73,44,0
1,note_on,73,0,120
1,note_on,69,44,0
1,note_on,69,0,120
1,note_on,77,52,0
1,note_on,77,0,120
1,note_on,74,42,0
1,note_on,74,0,120
1,note_on,69,42,0
1,note_on,69,0,180
1,note_on,77,44,180
1,note_on,77,0,120
1,note_on,74,44,0
1,note_on,74,0,120
1,note_on,69,44,0
1,note_on,69,0,120
1,note_on,74,50,0
1,note_on,74,0,120
1,note_on,71,42,0
1,note_on,71,0,120
1,note_on,68,42,0
1,note_on,68,0,180
1,note_on,74,43,180
1,note_on,74,0,120
1,note_on,71,43,0
1,note_on,71,0,120
1,note_on,68,43,0
1,note_on,68,0,120
1,note_on,76,49,0
1,note_on,76,0,120
1,note_on,72,41,0
1,note_on,72,0,120
1,note_on,69,41,0
1,note_on,69,0,180
1,note_on,74,43,180
1,note_on,74,0,120
1,note_on,71,43,0
1,note_on,71,0,120
1,note_on,68,43,0
1,note_on,68,0,120
1,note_on,76,52,0
1,note_on,76,0,120
1,note_on,72,43,0
1,note_on,72,0,120
1,note_on,69,43,0
1,note_on,69,0,180
1,note_on,74,39,180
1,note_on,74,0,120
1,note_on,71,39,0
1,note_on,71,0,120
1,note_on,68,39,0
1,note_on,68,0,120
1,note_on,76,47,0
1,note_on,76,0,120
1,note_on,72,39,0
1,note_on,72,0,120
1,note_on,69,38,0
1,note_on,69,0,120
1,note_on,74,38,0
1,note_on,74,0,120
1,note_on,71,38,0
1,note_on,71,0,120
1,note_on,68,38,0
1,note_on,68,0,120
1,note_on,76,46,0
1,note_on,76,0,120
1,note_on,72,41,0
1,note_on,72,0,120
1,note_on,69,38,0
1,note_on,69,0,120
1,note_on,74,38,0
1,note_on,74,0,120
1,note_on,71,38,0
1,note_on,71,0,120
1,note_on,68,38,0
1,note_on,68,0,120
1,note_on,76,45,0
1,note_on,76,0,120
1,note_on,72,38,0
1,note_on,72,0,120
1,note_on,69,38,0
1,note_on,69,0,120
1,note_on,74,38,0
1,note_on,74,0,120
1,note_on,71,38,0
1,note_on,71,0,120
1,note_on,68,37,0
1,note_on,68,0,120
1,note_on,76,44,0
1,note_on,76,0,120
1,note_on,72,37,0
1,note_on,72,0,120
1,note_on,69,37,0
1,note_on,69,0,120
1,note_on,74,37,0
1,note_on,74,0,120
1,note_on,71,37,0
1,note_on,71,0,120
1,note_on,68,37,0
1,note_on,68,0,120
1,note_on,76,41,0
1,note_on,76,0,120
1,note_on,72,35,0
1,note_on,72,0,120
1,note_on,69,35,0
1,note_on,69,0,120
1,note_on,76,35,0
1,note_on,76,0,120
1,note_on,72,35,0
1,note_on,72,0,120
1,note_on,69,34,0
1,note_on,69,0,120
1,note_on,76,42,0
1,note_on,76,0,120
1,note_on,72,35,0
1,note_on,72,0,120
1,note_on,69,35,0
1,note_on,69,0,120
1,note_on,76,35,0
1,note_on,76,0,120
1,note_on,72,36,0
1,note_on,72,0,120
1,note_on,69,36,0
1,note_on,69,0,120
1,note_on,76,41,0
1,note_on,76,0,120
1,note_on,72,36,0
1,note_on,72,0,120
1,note_on,69,36,0
1,note_on,69,0,120
1,note_on,76,36,0
1,note_on,76,0,120
1,note_on,72,36,0
1,note_on,72,0,120
1,note_on,69,34,0
1,note_on,69,0,120
1,note_on,76,39,0
1,note_on,76,0,120
1,note_on,72,33,0
1,note_on,72,0,120
1,note_on,69,33,0
1,note_on,69,0,120
1,note_on,76,33,0
1,note_on,76,0,120
1,note_on,72,33,0
1,note_on,72,0,120
1,note_on,69,33,0
1,note_on,69,0,120
1,note_on,76,38,0
1,note_on,76,0,960
1,note_on,72,35,0
1,note_on,72,0,480
1,note_on,69,35,0
1,note_on,69,0,1440
2,note_on,64,27,2400
2,note_on,60,23,0
2,note_on,57,23,0
2,note_on,57,0,480
2,note_on,60,0,0
2,note_on,64,0,0
2,note_on,57,23,480
2,note_on,62,23,0
2,note_on,65,27,0
2,note_on,65,0,480
2,note_on,62,0,0
2,note_on,57,0,0
2,note_on,62,27,480
2,note_on,59,23,0
2,note_on,57,23,0
2,note_on,57,0,480
2,note_on,59,0,0
2,note_on,62,0,0
2,note_on,64,27,480
2,note_on,60,23,0
2,note_on,57,23,0
2,note_on,57,0,480
2,note_on,60,0,0
2,note_on,64,0,0
2,note_on,64,31,480
2,note_on,60,25,0
2,note_on,57,25,0
2,note_on,57,0,480
2,note_on,60,0,0
2,note_on,64,0,0
2,note_on,57,27,480
2,note_on,62,27,0
2,note_on,65,34,0
2,note_on,65,0,480
2,note_on,62,0,0
2,note_on,57,0,0
2,note_on,62,36,480
2,note_on,59,29,0
2,note_on,57,29,0
2,note_on,57,0,480
2,note_on,59,0,0
2,note_on,62,0,0
2,note_on,60,31,240
2,note_on,57,31,0
2,note_on,64,38,0
2,note_on,64,0,180
2,note_on,57,0,0
2,note_on,60,0,0
2,note_on,65,38,60
2,note_on,62,31,0
2,note_on,57,31,0
2,note_on,57,0,480
2,note_on,62,0,0
2,note_on,65,0,0
2,note_on,57,34,240
2,note_on,60,34,0
2,note_on,64,42,0
2,note_on,64,0,180
2,note_on,60,0,0
2,note_on,57,0,0
2,note_on,65,42,60
2,note_on,62,34,0
2,note_on,57,34,0
2,note_on,57,0,480
2,note_on,62,0,0
2,note_on,65,0,0
2,note_on,60,37,240
2,note_on,57,37,0
2,note_on,64,46,0
2,note_on,64,0,180
2,note_on,57,0,0
2,note_on,60,0,0
2,note_on,65,46,60
2,note_on,62,37,0
2,note_on,57,37,0
2,note_on,57,0,480
2,note_on,62,0,0
2,note_on,65,0,0
2,note_on,60,60,424
2,note_on,60,0,120
2,note_on,57,58,0
2,note_on,57,0,120
2,note_on,52,58,0
2,note_on,52,0,120
2,note_on,48,57,0
2,note_on,48,0,120
2,note_on,33,57,0
2,note_on,45,57,0
2,note_on,45,0,240
2,note_on,33,0,0
2,note_on,52,56,233
2,note_on,52,0,480
2,note_on,48,54,0
2,note_on,57,58,0
2,note_on,57,0,593
2,note_on,48,0,0
2,note_on,52,52,0
2,note_on,59,57,0
2,note_on,59,0,240
2,note_on,52,0,0
2,note_on,57,54,0
2,note_on,60,58,0
2,note_on,60,0,466
2,note_on,57,0,0
2,note_on,59,54,0
2,note_on,62,58,0
2,note_on,62,0,480
2,note_on,59,0,0
2,note_on,60,54,0
2,note_on,64,58,0
2,note_on,64,0,480
2,note_on,60,0,0
2,note_on,64,57,0
2,note_on,67,65,0
2,note_on,67,0,960
2,note_on,64,0,0
2,note_on,65,63,0
2,note_on,62,56,0
2,note_on,62,0,360
2,note_on,65,0,0
2,note_on,60,54,0
2,note_on,64,58,0
2,note_on,64,0,114
2,note_on,60,0,0
2,note_on,60,56,6
2,note_on,64,63,0
2,note_on,64,0,480
2,note_on,60,0,0
2,note_on,59,54,0
2,note_on,62,58,0
2,note_on,62,0,360
2,note_on,59,0,0
2,note_on,57,50,0
2,note_on,60,56,0
2,note_on,60,0,114
2,note_on,57,0,0
2,note_on,57,54,6
2,note_on,60,58,0
2,note_on,60,0,480
2,note_on,57,0,0
2,note_on,50,54,0
2,note_on,60,56,0
2,note_on,64,63,0
2,note_on,64,0,355
2,note_on,60,0,0
2,note_on,62,56,0
2,note_on,59,50,0
2,note_on,59,0,120
2,note_on,62,0,0
2,note_on,50,0,0
2,note_on,52,49,0
2,note_on,60,56,0
2,note_on,57,49,0
2,note_on,57,0,950
2,note_on,60,0,0
2,note_on,56,48,0
2,note_on,59,55,0
2,note_on,59,0,240
2,note_on,56,0,0
2,note_on,52,0,0
2,note_on,52,56,240
2,note_on,52,0,480
2,note_on,45,54,0
2,note_on,48,54,0
2,note_on,57,58,0
2,note_on,57,0,593
2,note_on,48,0,0
2,note_on,45,0,0
2,note_on,52,52,0
2,note_on,59,57,0
2,note_on,59,0,240
2,note_on,52,0,0
2,note_on,57,54,0
2,note_on,60,58,0
2,note_on,60,0,466
2,note_on,57,0,0
2,note_on,59,54,0
2,note_on,62,58,0
2,note_on,62,0,480
2,note_on,59,0,0
2,note_on,60,54,0
2,note_on,64,58,0
2,note_on,64,0,456
2,note_on,60,0,0
2,note_on,52,67,24
2,note_on,64,67,0
2,note_on,52,0,120
2,note_on,53,69,120
2,note_on,53,0,120
2,note_on,55,75,120
2,note_on,64,0,480
2,note_on,65,63,0
2,note_on,62,56,0
2,note_on,62,0,360
2,note_on,65,0,0
2,note_on,60,54,0
2,note_on,64,58,0
2,note_on,64,0,114
2,note_on,60,0,0
2,note_on,60,56,6
2,note_on,64,63,0
2,note_on,64,0,480
2,note_on,60,0,0
2,note_on,55,0,0
2,note_on,55,54,0
2,note_on,59,54,0
2,note_on,62,58,0
2,note_on,62,0,360
2,note_on,59,0,0
2,note_on,57,50,0
2,note_on,60,56,0
2,note_on,60,0,114
2,note_on,57,0,0
2,note_on,55,0,6
2,note_on,57,54,0
2,note_on,60,58,0
2,note_on,60,0,480
2,note_on,57,0,0
2,note_on,52,52,0
2,note_on,55,52,0
2,note_on,59,57,0
2,note_on,59,0,480
2,note_on,55,0,0
2,note_on,52,0,0
2,note_on,53,42,0
2,note_on,57,47,0
2,note_on,57,0,240
2,note_on,56,49,0
2,note_on,56,0,120
2,note_on,53,0,120
2,note_on,52,46,0
2,note_on,57,52,0
2,note_on,57,0,120
2,note_on,52,0,0
2,note_on,50,47,120
2,note_on,59,54,0
2,note_on,59,0,120
2,note_on,50,0,0
2,note_on,48,48,120
2,note_on,60,55,0
2,note_on,60,0,120
2,note_on,48,0,0
2,note_on,50,46,120
2,note_on,59,53,0
2,note_on,59,0,120
2,note_on,50,0,0
2,note_on,52,45,120
2,note_on,57,50,0
2,note_on,57,0,120
2,note_on,52,0,0
2,note_on,52,48,240
2,note_on,52,0,114
2,note_on,52,52,6
2,note_on,52,0,960
2,note_on,45,48,0
2,note_on,57,55,0
2,note_on,57,0,240
2,note_on,45,0,0
2,note_on,59,27,1200
2,note_on,56,23,0
2,note_on,52,23,0
2,note_on,52,0,480
2,note_on,56,0,0
2,note_on,59,0,0
2,note_on,52,23,480
2,note_on,57,23,0
2,note_on,60,27,0
2,note_on,60,0,480
2,note_on,57,0,0
2,note_on,52,0,0
2,note_on,57,27,480
2,note_on,54,23,0
2,note_on,52,23,0
2,note_on,52,0,480
2,note_on,54,0,0
2,note_on,57,0,0
2,note_on,59,27,480
2,note_on,56,23,0
2,note_on,52,23,0
2,note_on,52,0,480
2,note_on,56,0,0
2,note_on,59,0,0
2,note_on,62,31,480
2,note_on,59,25,0
2,note_on,52,25,0
2,note_on,52,0,480
2,note_on,59,0,0
2,note_on,62,0,0
2,note_on,52,29,480
2,note_on,57,29,0
2,note_on,60,37,0
2,note_on,60,0,480
2,note_on,57,0,0
2,note_on,52,0,0
2,note_on,57,35,480
2,note_on,60,42,0
2,note_on,54,35,0
2,note_on,52,35,0
2,note_on,52,0,480
2,note_on,57,0,0
2,note_on,60,0,0
2,note_on,54,0,0
2,note_on,52,56,480
2,note_on,56,56,0
2,note_on,59,66,0
2,note_on,59,0,240
2,note_on,56,0,0
2,note_on,52,0,0
2,note_on,52,56,0
2,note_on,52,0,240
2,note_on,56,54,0
2,note_on,59,58,0
2,note_on,59,0,602
2,note_on,56,0,0
2,note_on,57,52,0
2,note_on,60,57,0
2,note_on,60,0,240
2,note_on,57,0,0
2,note_on,59,54,0
2,note_on,62,58,0
2,note_on,62,0,466
2,note_on,59,0,0
2,note_on,57,54,0
2,note_on,60,58,0
2,note_on,60,0,480
2,note_on,57,0,0
2,note_on,62,54,0
2,note_on,65,58,0
2,note_on,65,0,120
2,note_on,62,0,0
2,note_on,60,54,240
2,note_on,64,58,0
2,note_on,64,0,90
2,note_on,60,0,0
2,note_on,59,57,30
2,note_on,62,65,0
2,note_on,62,0,960
2,note_on,59,0,0
2,note_on,65,63,0
2,note_on,62,56,0
2,note_on,62,0,480
2,note_on,65,0,0
2,note_on,60,56,0
2,note_on,64,63,0
2,note_on,64,0,480
2,note_on,60,0,0
2,note_on,57,54,0
2,note_on,60,58,0
2,note_on,60,0,480
2,note_on,57,0,0
2,note_on,56,56,0
2,note_on,59,61,0
2,note_on,59,0,480
2,note_on,56,0,0
2,note_on,54,55,0
2,note_on,57,60,0
2,note_on,57,0,275
2,note_on,59,56,0
2,note_on,59,0,120
2,note_on,54,0,0
2,note_on,52,49,0
2,note_on,57,56,0
2,note_on,57,0,960
2,note_on,56,55,0
2,note_on,56,0,480
2,note_on,52,0,0
2,note_on,52,56,0
2,note_on,52,0,480
2,note_on,56,58,0
2,note_on,56,0,593
2,note_on,57,57,0
2,note_on,57,0,240
2,note_on,59,58,0
2,note_on,59,0,471
2,note_on,62,58,0
2,note_on,62,0,480
2,note_on,60,58,0
2,note_on,60,0,120
2,note_on,59,58,240
2,note_on,59,0,90
2,note_on,57,60,30
2,note_on,57,0,960
2,note_on,54,68,0
2,note_on,45,61,0
2,note_on,45,0,480
2,note_on,54,0,0
2,note_on,47,61,0
2,note_on,55,68,0
2,note_on,55,0,480
2,note_on,47,0,0
2,note_on,48,58,0
2,note_on,60,65,0
2,note_on,60,0,480
2,note_on,48,0,0
2,note_on,50,58,0
2,note_on,59,65,0
2,note_on,59,0,480
2,note_on,50,0,0
2,note_on,50,61,0
2,note_on,57,68,0
2,note_on,57,0,282
2,note_on,59,62,0
2,note_on,59,0,120
2,note_on,50,0,0
2,note_on,50,55,0
2,note_on,57,62,0
2,note_on,57,0,960
2,note_on,50,0,0
2,note_on,43,52,0
2,note_on,55,59,0
2,note_on,55,0,456
2,note_on,43,0,0
2,note_on,53,62,24
2,note_on,55,67,0
2,note_on,55,0,480
2,note_on,53,0,0
2,note_on,52,63,0
2,note_on,64,66,0
2,note_on,64,0,593
2,note_on,62,64,0
2,note_on,62,0,240
2,note_on,60,66,0
2,note_on,60,0,470
2,note_on,52,0,0
2,note_on,50,59,0
2,note_on,62,66,0
2,note_on,62,0,480
2,note_on,50,0,0
2,note_on,55,66,0
2,note_on,60,66,0
2,note_on,60,0,480
2,note_on,59,68,0
2,note_on,59,0,261
2,note_on,57,73,0
2,note_on,57,0,120
2,note_on,59,66,0
2,note_on,55,0,230
2,note_on,53,73,0
2,note_on,53,0,120
2,note_on,59,0,120
2,note_on,52,76,0
2,note_on,55,71,0
2,note_on,52,0,120
2,note_on,50,73,120
2,note_on,50,0,120
2,note_on,55,0,120
2,note_on,48,62,0
2,note_on,60,70,0
2,note_on,60,0,656
2,note_on,59,63,0
2,note_on,59,0,120
2,note_on,57,64,120
2,note_on,57,0,120
2,note_on,59,68,120
2,note_on,59,0,120
2,note_on,48,0,120
2,note_on,47,68,0
2,note_on,60,68,0
2,note_on,60,0,120
2,note_on,59,66,120
2,note_on,59,0,120
2,note_on,47,0,120
2,note_on,52,66,0
2,note_on,57,66,0
2,note_on,57,0,480
2,note_on,56,68,0
2,note_on,56,0,274
2,note_on,54,68,0
2,note_on,54,0,120
2,note_on,56,62,0
2,note_on,52,0,230
2,note_on,50,76,0
2,note_on,50,0,120
2,note_on,56,0,120
2,note_on,48,79,0
2,note_on,52,74,0
2,note_on,48,0,120
2,note_on,45,76,120
2,note_on,45,0,120
2,note_on,52,0,120
2,note_on,45,59,0
2,note_on,48,59,0
2,note_on,57,66,0
2,note_on,57,0,593
2,note_on,48,0,0
2,note_on,45,0,0
2,note_on,52,57,0
2,note_on,59,64,0
2,note_on,59,0,240
2,note_on,52,0,0
2,note_on,57,59,0
2,note_on,60,66,0
2,note_on,60,0,470
2,note_on,57,0,0
2,note_on,59,59,0
2,note_on,62,66,0
2,note_on,62,0,480
2,note_on,59,0,0
2,note_on,60,59,0
2,note_on,64,66,0
2,note_on,64,0,456
2,note_on,60,0,0
2,note_on,52,76,24
2,note_on,64,76,0
2,note_on,52,0,120
2,note_on,53,77,120
2,note_on,53,0,120
2,note_on,55,84,120
2,note_on,64,0,480
2,note_on,65,70,0
2,note_on,62,62,0
2,note_on,62,0,360
2,note_on,65,0,0
2,note_on,60,59,0
2,note_on,64,66,0
2,note_on,64,0,114
2,note_on,60,0,0
2,note_on,60,62,6
2,note_on,64,70,0
2,note_on,64,0,480
2,note_on,60,0,0
2,note_on,55,0,0
2,note_on,56,59,0
2,note_on,59,59,0
2,note_on,62,66,0
2,note_on,62,0,360
2,note_on,59,0,0
2,note_on,57,57,0
2,note_on,60,63,0
2,note_on,60,0,114
2,note_on,57,0,0
2,note_on,56,0,6
2,note_on,57,59,0
2,note_on,60,66,0
2,note_on,60,0,480
2,note_on,57,0,0
2,note_on,50,57,0
2,note_on,60,64,0
2,note_on,60,0,261
2,note_on,59,63,0
2,note_on,62,63,0
2,note_on,62,0,120
2,note_on,59,0,0
2,note_on,50,0,0
2,note_on,52,56,0
2,note_on,60,63,0
2,note_on,57,56,0
2,note_on,57,0,950
2,note_on,60,0,0
2,note_on,56,52,0
2,note_on,59,57,0
2,note_on,59,0,240
2,note_on,56,0,0
2,note_on,52,0,0
2,note_on,52,74,240
2,note_on,52,0,480
2,note_on,45,59,0
2,note_on,48,59,0
2,note_on,57,66,0
2,note_on,57,0,593
2,note_on,48,0,0
2,note_on,45,0,0
2,note_on,52,57,0
2,note_on,59,64,0
2,note_on,59,0,240
2,note_on,52,0,0
2,note_on,60,67,0
2,note_on,57,59,0
2,note_on,57,0,240
2,note_on,60,0,0
2,note_on,59,63,0
2,note_on,52,53,0
2,note_on,52,0,120
2,note_on,59,0,0
2,note_on,60,68,0
2,note_on,57,57,0
2,note_on,57,0,240
2,note_on,60,0,0
2,note_on,62,54,0
2,note_on,59,52,0
2,note_on,59,0,120
2,note_on,62,0,0
2,note_on,64,66,0
2,note_on,60,59,0
2,note_on,60,0,449
2,note_on,64,0,0
2,note_on,67,76,24
2,note_on,64,76,0
2,note_on,64,0,960
2,note_on,67,0,0
2,note_on,67,75,0
2,note_on,70,75,0
2,note_on,65,75,720
2,note_on,65,0,120
2,note_on,64,71,120
2,note_on,64,0,120
2,note_on,62,71,120
2,note_on,62,0,120
2,note_on,61,66,120
2,note_on,70,0,360
2,note_on,67,0,0
2,note_on,67,63,0
2,note_on,67,0,90
2,note_on,61,0,30
2,note_on,65,65,0
2,note_on,65,0,63
2,note_on,64,59,240
2,note_on,64,0,90
2,note_on,62,71,30
2,note_on,60,71,236
2,note_on,60,0,120
2,note_on,59,71,120
2,note_on,59,0,120
2,note_on,57,71,120
2,note_on,57,0,120
2,note_on,56,66,120
2,note_on,62,0,360
2,note_on,62,63,0
2,note_on,62,0,90
2,note_on,56,0,30
2,note_on,60,65,0
2,note_on,60,0,85
2,note_on,59,59,240
2,note_on,59,0,90
2,note_on,57,71,30
2,note_on,55,71,235
2,note_on,55,0,120
2,note_on,54,71,120
2,note_on,54,0,120
2,note_on,52,71,120
2,note_on,52,0,120
2,note_on,51,66,120
2,note_on,56,63,240
2,note_on,56,0,90
2,note_on,57,0,30
2,note_on,51,0,120
2,note_on,54,65,0
2,note_on,54,0,120
2,note_on,56,59,120
2,note_on,56,0,90
2,note_on,52,59,150
2,note_on,57,71,0
2,note_on,57,0,120
2,note_on,59,73,120
2,note_on,59,0,120
2,note_on,60,74,120
2,note_on,60,0,120
2,note_on,62,75,120
2,note_on,62,0,120
2,note_on,60,76,120
2,note_on,60,0,120
2,note_on,59,75,120
2,note_on,59,0,120
2,note_on,57,73,120
2,note_on,57,0,120
2,note_on,52,0,40
2,note_on,52,58,200
2,note_on,59,70,0
2,note_on,59,0,90
2,note_on,52,0,0
2,note_on,52,58,30
2,note_on,59,70,0
2,note_on,59,0,960
2,note_on,52,0,0
2,note_on,45,59,0
2,note_on,57,71,0
2,note_on,57,0,480
2,note_on,45,0,0
2,note_on,59,27,960
2,note_on,56,23,0
2,note_on,52,23,0
2,note_on,52,0,480
2,note_on,56,0,0
2,note_on,59,0,0
2,note_on,52,23,480
2,note_on,57,23,0
2,note_on,60,27,0
2,note_on,60,0,480
2,note_on,57,0,0
2,note_on,52,0,0
2,note_on,57,27,480
2,note_on,54,23,0
2,note_on,52,23,0
2,note_on,52,0,480
2,note_on,54,0,0
2,note_on,57,0,0
2,note_on,59,27,480
2,note_on,56,23,0
2,note_on,52,23,0
2,note_on,52,0,480
2,note_on,56,0,0
2,note_on,59,0,0
2,note_on,40,27,0
2,note_on,52,32,0
2,note_on,52,0,429
2,note_on,40,0,0
2,note_on,62,31,0
2,note_on,59,25,0
2,note_on,52,25,0
2,note_on,52,0,354
2,note_on,59,0,0
2,note_on,62,0,0
2,note_on,52,32,394
2,note_on,57,32,0
2,note_on,60,38,0
2,note_on,60,0,320
2,note_on,57,0,0
2,note_on,52,0,0
2,note_on,40,33,0
2,note_on,52,38,0
2,note_on,52,0,434
2,note_on,40,0,0
2,note_on,57,37,0
2,note_on,60,45,0
2,note_on,54,37,0
2,note_on,52,37,0
2,note_on,52,0,314
2,note_on,57,0,0
2,note_on,60,0,0
2,note_on,54,0,0
2,note_on,52,57,411
2,note_on,56,63,0
2,note_on,59,78,0
2,note_on,59,0,166
2,note_on,56,0,0
2,note_on,52,0,0
2,note_on,40,57,0
2,note_on,52,63,0
2,note_on,52,0,240
2,note_on,40,0,0
2,note_on,44,59,0
2,note_on,52,66,0
2,note_on,52,0,593
2,note_on,44,0,0
2,note_on,45,57,0
2,note_on,52,64,0
2,note_on,52,0,240
2,note_on,45,0,0
2,note_on,47,59,0
2,note_on,52,66,0
2,note_on,52,0,470
2,note_on,47,0,0
2,note_on,45,59,0
2,note_on,52,66,0
2,note_on,52,0,480
2,note_on,45,0,0
2,note_on,50,59,0
2,note_on,52,66,0
2,note_on,52,0,120
2,note_on,50,0,0
2,note_on,48,59,240
2,note_on,52,66,0
2,note_on,52,0,90
2,note_on,48,0,0
2,note_on,47,64,30
2,note_on,52,73,0
2,note_on,52,0,960
2,note_on,47,0,0
2,note_on,50,62,0
2,note_on,62,70,0
2,note_on,52,62,0
2,note_on,52,0,480
2,note_on,62,0,0
2,note_on,50,0,0
2,note_on,48,62,0
2,note_on,52,62,0
2,note_on,60,70,0
2,note_on,60,0,480
2,note_on,52,0,0
2,note_on,48,0,0
2,note_on,52,59,0
2,note_on,45,59,0
2,note_on,57,66,0
2,note_on,57,0,480
2,note_on,45,0,0
2,note_on,52,0,0
2,note_on,52,62,0
2,note_on,44,62,0
2,note_on,56,69,0
2,note_on,56,0,480
2,note_on,44,0,0
2,note_on,52,0,0
2,note_on,52,57,0
2,note_on,42,57,0
2,note_on,54,70,0
2,note_on,54,0,409
2,note_on,42,0,0
2,note_on,52,0,0
2,note_on,40,56,0
2,note_on,52,67,0
2,note_on,52,0,297
2,note_on,40,0,0
2,note_on,28,66,0
2,note_on,40,76,0
2,note_on,40,0,470
2,note_on,28,0,0
2,note_on,40,56,0
2,note_on,52,63,0
2,note_on,52,0,480
2,note_on,40,0,0
2,note_on,50,56,0
2,note_on,52,56,0
2,note_on,56,66,0
2,note_on,56,0,593
2,note_on,52,0,0
2,note_on,50,0,0
2,note_on,48,54,0
2,note_on,52,54,0
2,note_on,57,64,0
2,note_on,57,0,240
2,note_on,52,0,0
2,note_on,48,0,0
2,note_on,47,56,0
2,note_on,52,56,0
2,note_on,59,66,0
2,note_on,59,0,470
2,note_on,52,0,0
2,note_on,47,0,0
2,note_on,50,56,0
2,note_on,52,56,0
2,note_on,62,66,0
2,note_on,62,0,480
2,note_on,52,0,0
2,note_on,50,0,0
2,note_on,48,56,0
2,note_on,52,56,0
2,note_on,60,66,0
2,note_on,60,0,120
2,note_on,52,0,0
2,note_on,48,0,0
2,note_on,47,56,240
2,note_on,52,56,0
2,note_on,59,66,0
2,note_on,59,0,90
2,note_on,52,0,0
2,note_on,47,0,0
2,note_on,45,57,30
2,note_on,52,57,0
2,note_on,57,68,0
2,note_on,57,0,960
2,note_on,52,0,0
2,note_on,45,0,0
2,note_on,45,74,0
2,note_on,33,65,0
2,note_on,33,0,480
2,note_on,45,0,0
2,note_on,35,65,0
2,note_on,47,74,0
2,note_on,47,0,480
2,note_on,35,0,0
2,note_on,36,62,0
2,note_on,48,69,0
2,note_on,48,0,480
2,note_on,36,0,0
2,note_on,38,62,0
2,note_on,50,69,0
2,note_on,50,0,480
2,note_on,38,0,0
2,note_on,38,65,0
2,note_on,50,74,0
2,note_on,50,0,416
2,note_on,38,0,0
2,note_on,31,63,0
2,note_on,43,73,0
2,note_on,43,0,240
2,note_on,31,0,0
2,note_on,43,77,0
2,note_on,55,90,0
2,note_on,55,0,470
2,note_on,43,0,0
2,note_on,41,69,0
2,note_on,53,78,0
2,note_on,53,0,480
2,note_on,41,0,0
2,note_on,40,66,0
2,note_on,43,66,0
2,note_on,48,66,0
2,note_on,52,70,0
2,note_on,52,0,353
2,note_on,40,0,0
2,note_on,43,0,0
2,note_on,48,0,0
2,note_on,52,66,0
2,note_on,55,66,0
2,note_on,60,66,0
2,note_on,64,66,0
2,note_on,64,0,960
2,note_on,52,0,0
2,note_on,55,0,0
2,note_on,60,0,0
2,note_on,38,57,0
2,note_on,50,69,0
2,note_on,50,0,470
2,note_on,38,0,0
2,note_on,43,48,0
2,note_on,55,57,0
2,note_on,55,0,480
2,note_on,43,0,0
2,note_on,31,48,0
2,note_on,43,57,0
2,note_on,43,0,231
2,note_on,31,0,0
2,note_on,41,59,0
2,note_on,53,69,0
2,note_on,53,0,240
2,note_on,41,0,0
2,note_on,40,61,0
2,note_on,52,73,0
2,note_on,52,0,180
2,note_on,40,0,0
2,note_on,38,59,60
2,note_on,50,69,0
2,note_on,50,0,180
2,note_on,38,0,0
2,note_on,36,66,60
2,note_on,48,71,0
2,note_on,48,0,318
2,note_on,36,0,0
2,note_on,48,66,0
2,note_on,52,66,0
2,note_on,57,66,0
2,note_on,60,66,0
2,note_on,60,0,960
2,note_on,48,0,0
2,note_on,52,0,0
2,note_on,57,0,0
2,note_on,35,67,0
2,note_on,47,71,0
2,note_on,47,0,470
2,note_on,35,0,0
2,note_on,40,57,0
2,note_on,52,69,0
2,note_on,52,0,480
2,note_on,40,0,0
2,note_on,28,57,0
2,note_on,40,69,0
2,note_on,40,0,230
2,note_on,28,0,0
2,note_on,38,63,0
2,note_on,50,76,0
2,note_on,50,0,240
2,note_on,38,0,0
2,note_on,36,67,0
2,note_on,48,79,0
2,note_on,48,0,180
2,note_on,36,0,0
2,note_on,35,63,60
2,note_on,47,76,0
2,note_on,47,0,180
2,note_on,35,0,0
2,note_on,33,65,60
2,note_on,45,76,0
2,note_on,45,0,198
2,note_on,33,0,0
2,note_on,40,57,0
2,note_on,52,69,0
2,note_on,52,0,240
2,note_on,40,0,0
2,note_on,36,60,0
2,note_on,48,74,0
2,note_on,48,0,240
2,note_on,36,0,0
2,note_on,40,57,0
2,note_on,52,69,0
2,note_on,52,0,240
2,note_on,40,0,0
2,note_on,45,62,0
2,note_on,57,75,0
2,note_on,57,0,85
2,note_on,45,0,0
2,note_on,40,57,0
2,note_on,52,69,0
2,note_on,52,0,240
2,note_on,40,0,0
2,note_on,47,62,0
2,note_on,59,75,0
2,note_on,59,0,85
2,note_on,47,0,0
2,note_on,40,57,0
2,note_on,52,69,0
2,note_on,52,0,240
2,note_on,40,0,0
2,note_on,48,63,0
2,note_on,60,76,0
2,note_on,60,0,231
2,note_on,48,0,0
2,note_on,47,57,0
2,note_on,59,69,0
2,note_on,59,0,240
2,note_on,47,0,0
2,note_on,48,58,0
2,note_on,60,70,0
2,note_on,60,0,240
2,note_on,48,0,0
2,note_on,50,59,0
2,note_on,62,73,0
2,note_on,62,0,240
2,note_on,50,0,0
2,note_on,52,60,0
2,note_on,64,74,0
2,note_on,64,0,240
2,note_on,52,0,0
2,note_on,43,56,0
2,note_on,55,67,0
2,note_on,55,0,240
2,note_on,43,0,0
2,note_on,45,58,0
2,note_on,57,70,0
2,note_on,57,0,205
2,note_on,45,0,0
2,note_on,47,60,0
2,note_on,59,74,0
2,note_on,59,0,240
2,note_on,47,0,0
2,note_on,48,63,0
2,note_on,60,76,0
2,note_on,60,0,233
2,note_on,48,0,0
2,note_on,40,56,0
2,note_on,52,67,0
2,note_on,52,0,240
2,note_on,40,0,0
2,note_on,42,57,0
2,note_on,54,69,0
2,note_on,54,0,226
2,note_on,42,0,0
2,note_on,44,58,0
2,note_on,56,70,0
2,note_on,56,0,240
2,note_on,44,0,0
2,note_on,45,59,0
2,note_on,57,73,0
2,note_on,57,0,230
2,note_on,45,0,0
2,note_on,36,57,0
2,note_on,48,69,0
2,note_on,48,0,240
2,note_on,36,0,0
2,note_on,41,60,0
2,note_on,53,74,0
2,note_on,53,0,176
2,note_on,41,0,0
2,note_on,38,57,0
2,note_on,50,69,0
2,note_on,50,0,240
2,note_on,38,0,0
2,note_on,40,62,0
2,note_on,52,75,0
2,note_on,52,0,230
2,note_on,40,0,0
2,note_on,39,57,0
2,note_on,51,69,0
2,note_on,51,0,240
2,note_on,39,0,0
2,note_on,40,57,0
2,note_on,52,69,0
2,note_on,52,0,240
2,note_on,40,0,0
2,note_on,39,57,0
2,note_on,51,69,0
2,note_on,51,0,240
2,note_on,39,0,0
2,note_on,40,60,0
2,note_on,52,74,0
2,note_on,52,0,183
2,note_on,40,0,0
2,note_on,38,57,0
2,note_on,50,69,0
2,note_on,50,0,240
2,note_on,38,0,0
2,note_on,35,57,0
2,note_on,47,69,0
2,note_on,47,0,103
2,note_on,35,0,0
2,note_on,36,57,0
2,note_on,48,69,0
2,note_on,48,0,240
2,note_on,36,0,0
2,note_on,33,65,0
2,note_on,45,76,0
2,note_on,45,0,177
2,note_on,33,0,0
2,note_on,52,69,0
2,note_on,40,57,0
2,note_on,40,0,240
2,note_on,52,0,0
2,note_on,36,60,0
2,note_on,48,74,0
2,note_on,48,0,240
2,note_on,36,0,0
2,note_on,40,57,0
2,note_on,52,69,0
2,note_on,52,0,240
2,note_on,40,0,0
2,note_on,45,62,0
2,note_on,57,75,0
2,note_on,57,0,166
2,note_on,45,0,0
2,note_on,40,57,0
2,note_on,52,69,0
2,note_on,52,0,240
2,note_on,40,0,0
2,note_on,45,62,0
2,note_on,57,75,0
2,note_on,57,0,143
2,note_on,45,0,0
2,note_on,59,69,0
2,note_on,47,57,0
2,note_on,47,0,240
2,note_on,59,0,0
2,note_on,60,76,0
2,note_on,48,63,0
2,note_on,48,0,233
2,note_on,60,0,0
2,note_on,59,69,0
2,note_on,47,57,0
2,note_on,47,0,240
2,note_on,59,0,0
2,note_on,48,58,0
2,note_on,60,70,0
2,note_on,60,0,240
2,note_on,48,0,0
2,note_on,50,59,0
2,note_on,62,73,0
2,note_on,62,0,240
2,note_on,50,0,0
2,note_on,64,74,0
2,note_on,52,60,0
2,note_on,52,0,240
2,note_on,64,0,0
2,note_on,53,56,0
2,note_on,65,67,0
2,note_on,65,0,240
2,note_on,53,0,0
2,note_on,67,70,0
2,note_on,55,58,0
2,note_on,55,0,240
2,note_on,67,0,0
2,note_on,69,74,0
2,note_on,57,60,0
2,note_on,57,0,240
2,note_on,69,0,0
2,note_on,58,62,0
2,note_on,70,76,0
2,note_on,70,0,184
2,note_on,58,0,0
2,note_on,55,66,0
2,note_on,67,77,0
2,note_on,67,0,240
2,note_on,55,0,0
2,note_on,52,62,0
2,note_on,64,75,0
2,note_on,64,0,240
2,note_on,52,0,0
2,note_on,50,62,0
2,note_on,62,75,0
2,note_on,62,0,240
2,note_on,50,0,0
2,note_on,49,65,0
2,note_on,61,69,0
2,note_on,67,66,56
2,note_on,67,0,120
2,note_on,61,0,0
2,note_on,49,0,0
2,note_on,65,68,0
2,note_on,65,0,360
2,note_on,64,62,0
2,note_on,64,0,120
2,note_on,50,65,0
2,note_on,62,77,0
2,note_on,62,0,234
2,note_on,50,0,0
2,note_on,48,65,0
2,note_on,60,74,0
2,note_on,60,0,120
2,note_on,48,0,0
2,note_on,47,65,120
2,note_on,59,74,0
2,note_on,59,0,120
2,note_on,47,0,0
2,note_on,45,65,120
2,note_on,57,74,0
2,note_on,57,0,120
2,note_on,45,0,0
2,note_on,44,59,120
2,note_on,56,73,0
2,note_on,62,66,21
2,note_on,62,0,120
2,note_on,56,0,0
2,note_on,44,0,0
2,note_on,60,68,0
2,note_on,60,0,360
2,note_on,59,62,0
2,note_on,59,0,120
2,note_on,45,65,0
2,note_on,57,73,0
2,note_on,57,0,232
2,note_on,45,0,0
2,note_on,43,63,0
2,note_on,55,73,0
2,note_on,55,0,120
2,note_on,43,0,0
2,note_on,42,65,120
2,note_on,54,74,0
2,note_on,54,0,120
2,note_on,42,0,0
2,note_on,40,65,120
2,note_on,52,74,0
2,note_on,52,0,120
2,note_on,40,0,0
2,note_on,39,59,120
2,note_on,51,73,0
2,note_on,51,0,240
2,note_on,39,0,0
2,note_on,56,49,0
2,note_on,56,0,120
2,note_on,54,53,120
2,note_on,54,0,120
2,note_on,56,48,120
2,note_on,56,0,120
2,note_on,40,48,120
2,note_on,52,52,0
2,note_on,52,0,120
2,note_on,40,0,0
2,note_on,59,54,120
2,note_on,59,0,120
2,note_on,60,55,120
2,note_on,60,0,120
2,note_on,62,57,120
2,note_on,62,0,120
2,note_on,60,58,120
2,note_on,60,0,120
2,note_on,59,58,120
2,note_on,59,0,120
2,note_on,57,57,120
2,note_on,57,0,120
2,note_on,52,56,120
2,note_on,52,0,120
2,note_on,57,57,120
2,note_on,57,0,120
2,note_on,59,58,120
2,note_on,59,0,120
2,note_on,60,62,120
2,note_on,60,0,120
2,note_on,62,64,120
2,note_on,62,0,120
2,note_on,60,65,120
2,note_on,60,0,120
2,note_on,59,66,120
2,note_on,59,0,120
2,note_on,57,65,120
2,note_on,57,0,120
2,note_on,44,53,120
2,note_on,47,53,0
2,note_on,56,63,0
2,note_on,56,0,120
2,note_on,47,0,0
2,note_on,44,0,0
2,note_on,45,56,120
2,note_on,57,66,0
2,note_on,48,56,0
2,note_on,48,0,120
2,note_on,57,0,0
2,note_on,45,0,0
2,note_on,47,57,120
2,note_on,50,57,0
2,note_on,59,68,0
2,note_on,59,0,120
2,note_on,50,0,0
2,note_on,47,0,0
2,note_on,48,58,120
2,note_on,52,58,0
2,note_on,60,69,0
2,note_on,60,0,120
2,note_on,52,0,0
2,note_on,48,0,0
2,note_on,50,58,120
2,note_on,53,58,0
2,note_on,62,70,0
2,note_on,62,0,120
2,note_on,53,0,0
2,note_on,50,0,0
2,note_on,48,59,120
2,note_on,52,59,0
2,note_on,60,71,0
2,note_on,60,0,120
2,note_on,52,0,0
2,note_on,48,0,0
2,note_on,47,58,120
2,note_on,50,58,0
2,note_on,59,70,0
2,note_on,59,0,120
2,note_on,50,0,0
2,note_on,47,0,0
2,note_on,45,57,120
2,note_on,48,57,0
2,note_on,57,68,0
2,note_on,57,0,120
2,note_on,48,0,0
2,note_on,45,0,0
2,note_on,44,57,120
2,note_on,47,57,0
2,note_on,56,67,0
2,note_on,56,0,120
2,note_on,47,0,0
2,note_on,44,0,0
2,note_on,45,56,120
2,note_on,48,56,0
2,note_on,57,66,0
2,note_on,57,0,120
2,note_on,48,0,0
2,note_on,45,0,0
2,note_on,47,56,120
2,note_on,50,56,0
2,note_on,59,67,0
2,note_on,59,0,120
2,note_on,50,0,0
2,note_on,47,0,0
2,note_on,48,57,120
2,note_on,52,57,0
2,note_on,60,68,0
2,note_on,60,0,120
2,note_on,52,0,0
2,note_on,48,0,0
2,note_on,50,58,120
2,note_on,53,58,0
2,note_on,62,69,0
2,note_on,62,0,120
2,note_on,53,0,0
2,note_on,50,0,0
2,note_on,48,59,120
2,note_on,52,59,0
2,note_on,60,71,0
2,note_on,60,0,120
2,note_on,52,0,0
2,note_on,48,0,0
2,note_on,47,59,120
2,note_on,50,59,0
2,note_on,59,71,0
2,note_on,59,0,120
2,note_on,50,0,0
2,note_on,47,0,0
2,note_on,45,57,120
2,note_on,48,57,0
2,note_on,57,68,0
2,note_on,57,0,120
2,note_on,48,0,0
2,note_on,45,0,0
2,note_on,44,57,120
2,note_on,47,57,0
2,note_on,56,67,0
2,note_on,56,0,120
2,note_on,47,0,0
2,note_on,44,0,0
2,note_on,45,54,120
2,note_on,48,54,0
2,note_on,57,71,0
2,note_on,57,0,180
2,note_on,48,0,0
2,note_on,45,0,0
2,note_on,47,52,60
2,note_on,56,65,0
2,note_on,44,52,0
2,note_on,44,0,180
2,note_on,56,0,0
2,note_on,47,0,0
2,note_on,48,54,60
2,note_on,57,71,0
2,note_on,45,54,0
2,note_on,45,0,180
2,note_on,57,0,0
2,note_on,48,0,0
2,note_on,47,51,60
2,note_on,56,64,0
2,note_on,44,51,0
2,note_on,44,0,180
2,note_on,56,0,0
2,note_on,47,0,0
2,note_on,48,54,60
2,note_on,57,71,0
2,note_on,45,54,0
2,note_on,45,0,180
2,note_on,57,0,0
2,note_on,48,0,0
2,note_on,47,51,60
2,note_on,56,64,0
2,note_on,44,51,0
2,note_on,44,0,180
2,note_on,56,0,0
2,note_on,47,0,0
2,note_on,48,54,60
2,note_on,57,71,0
2,note_on,45,54,0
2,note_on,45,0,180
2,note_on,57,0,0
2,note_on,48,0,0
2,note_on,47,50,60
2,note_on,56,63,0
2,note_on,44,50,0
2,note_on,44,0,180
2,note_on,56,0,0
2,note_on,47,0,0
2,note_on,48,54,60
2,note_on,57,71,0
2,note_on,45,54,0
2,note_on,45,0,480
2,note_on,57,0,0
2,note_on,48,0,0
2,note_on,45,53,0
2,note_on,53,66,0
2,note_on,41,53,0
2,note_on,41,0,429
2,note_on,53,0,0
2,note_on,45,0,0
2,note_on,44,53,0
2,note_on,52,66,0
2,note_on,40,53,0
2,note_on,40,0,434
2,note_on,52,0,0
2,note_on,44,0,0
2,note_on,40,52,0
2,note_on,52,67,0
2,note_on,47,67,0
2,note_on,47,0,257
2,note_on,48,58,0
2,note_on,48,0,120
2,note_on,52,0,0
2,note_on,40,0,0
2,note_on,40,52,0
2,note_on,47,52,0
2,note_on,52,67,0
2,note_on,52,0,954
2,note_on,47,0,0
2,note_on,40,0,0
2,note_on,33,49,0
2,note_on,45,62,0
2,note_on,45,0,480
2,note_on,33,0,0
2,note_on,64,46,99
2,note_on,60,38,0
2,note_on,57,38,0
2,note_on,57,0,480
2,note_on,60,0,0
2,note_on,64,0,0
2,note_on,57,38,49
2,note_on,62,38,0
2,note_on,65,46,0
2,note_on,65,0,480
2,note_on,62,0,0
2,note_on,57,0,0
2,note_on,62,48,120
2,note_on,59,39,0
2,note_on,57,39,0
2,note_on,57,0,480
2,note_on,59,0,0
2,note_on,62,0,0
2,note_on,64,38,69
2,note_on,60,33,0
2,note_on,57,33,0
2,note_on,57,0,480
2,note_on,60,0,0
2,note_on,64,0,0
2,note_on,67,37,103
2,note_on,64,32,0
2,note_on,57,32,0
2,note_on,57,0,480
2,note_on,64,0,0
2,note_on,67,0,0
2,note_on,57,28,80
2,note_on,62,28,0
2,note_on,65,36,0
2,note_on,65,0,480
2,note_on,62,0,0
2,note_on,57,0,0
2,note_on,62,27,69
2,note_on,65,33,0
2,note_on,59,27,0
2,note_on,57,27,0
2,note_on,57,0,480
2,note_on,62,0,0
2,note_on,65,0,0
2,note_on,59,0,0
2,note_on,60,26,188
2,note_on,57,26,0
2,note_on,64,35,0
2,note_on,64,0,111
2,note_on,57,0,0
2,note_on,60,0,0
2,note_on,65,34,60
2,note_on,62,26,0
2,note_on,57,26,0
2,note_on,57,0,480
2,note_on,62,0,0
2,note_on,65,0,0
2,note_on,57,28,188
2,note_on,60,28,0
2,note_on,64,37,0
2,note_on,64,0,123
2,note_on,60,0,0
2,note_on,57,0,0
2,note_on,65,34,60
2,note_on,62,27,0
2,note_on,57,27,0
2,note_on,57,0,480
2,note_on,62,0,0
2,note_on,65,0,0
2,note_on,57,27,0
2,note_on,64,34,0
2,note_on,60,27,0
2,note_on,60,0,423
2,note_on,64,0,0
2,note_on,62,25,0
2,note_on,65,31,0
2,note_on,65,0,400
2,note_on,62,0,0
2,note_on,64,32,0
2,note_on,60,25,0
2,note_on,60,0,189
2,note_on,64,0,0
2,note_on,62,25,0
2,note_on,65,32,0
2,note_on,65,0,240
2,note_on,62,0,0
2,note_on,57,0,0
2,note_on,64,33,0
2,note_on,60,27,0
2,note_on,57,33,0
2,note_on,60,0,420
2,note_on,64,0,0
2,note_on,62,24,0
2,note_on,65,29,0
2,note_on,65,0,411
2,note_on,62,0,0
2,note_on,60,24,0
2,note_on,64,28,0
2,note_on,64,0,183
2,note_on,60,0,0
2,note_on,62,24,0
2,note_on,65,28,0
2,note_on,65,0,240
2,note_on,62,0,0
2,note_on,57,0,0
2,note_on,64,32,0
2,note_on,60,25,0
2,note_on,57,25,0
2,note_on,33,25,2805
2,note_on,45,31,0
2,note_on,45,0,2880
2,note_on,57,0,0
2,note_on,64,0,0
2,note_on,60,0,0
2,note_on,33,0,0
