Track,Message Type,Note,Velocity,Time
1,note_on,44,46,120
1,note_on,44,0,115
1,note_on,49,48,5
1,note_on,52,50,120
1,note_on,49,0,20
1,note_on,56,51,100
1,note_on,52,0,20
1,note_on,49,46,100
1,note_on,56,0,20
1,note_on,52,47,100
1,note_on,49,0,20
1,note_on,56,49,100
1,note_on,52,0,20
1,note_on,61,51,100
1,note_on,56,0,20
1,note_on,52,46,100
1,note_on,61,0,20
1,note_on,56,47,100
1,note_on,52,0,20
1,note_on,61,49,100
1,note_on,56,0,20
1,note_on,64,51,100
1,note_on,61,0,20
1,note_on,56,47,100
1,note_on,64,0,20
1,note_on,61,48,100
1,note_on,56,0,20
1,note_on,64,49,100
1,note_on,61,0,20
1,note_on,68,50,100
1,note_on,64,0,20
1,note_on,61,47,100
1,note_on,68,0,20
1,note_on,64,47,100
1,note_on,61,0,20
1,note_on,68,49,100
1,note_on,64,0,20
1,note_on,73,50,100
1,note_on,68,0,20
1,note_on,64,51,100
1,note_on,73,0,20
1,note_on,68,47,100
1,note_on,64,0,20
1,note_on,73,51,100
1,note_on,68,0,20
1,note_on,76,52,100
1,note_on,73,0,20
1,note_on,68,50,100
1,note_on,76,0,20
1,note_on,73,51,100
1,note_on,68,0,20
1,note_on,76,54,100
1,note_on,73,0,20
1,note_on,76,0,100
1,note_on,68,79,0
1,note_on,76,94,0
1,note_on,80,94,0
1,note_on,73,79,0
1,note_on,73,0,120
1,note_on,68,0,0
1,note_on,76,0,0
1,note_on,80,0,0
1,note_on,68,67,120
1,note_on,73,67,0
1,note_on,80,79,0
1,note_on,76,79,0
1,note_on,76,0,120
1,note_on,68,0,0
1,note_on,73,0,0
1,note_on,80,0,0
1,note_on,44,47,240
1,note_on,44,0,115
1,note_on,48,48,5
1,note_on,51,50,120
1,note_on,48,0,20
1,note_on,56,51,100
1,note_on,51,0,20
1,note_on,48,47,100
1,note_on,56,0,20
1,note_on,51,48,100
1,note_on,48,0,20
1,note_on,56,51,100
1,note_on,51,0,20
1,note_on,60,52,100
1,note_on,56,0,20
1,note_on,51,47,100
1,note_on,60,0,20
1,note_on,56,48,100
1,note_on,51,0,20
1,note_on,60,50,100
1,note_on,56,0,20
1,note_on,63,51,100
1,note_on,60,0,20
1,note_on,56,46,100
1,note_on,63,0,20
1,note_on,60,47,100
1,note_on,56,0,20
1,note_on,63,49,100
1,note_on,60,0,20
1,note_on,68,51,100
1,note_on,63,0,20
1,note_on,60,47,100
1,note_on,68,0,20
1,note_on,63,48,100
1,note_on,60,0,20
1,note_on,68,50,100
1,note_on,63,0,20
1,note_on,72,51,100
1,note_on,68,0,20
1,note_on,63,47,100
1,note_on,72,0,20
1,note_on,68,48,100
1,note_on,63,0,20
1,note_on,72,51,100
1,note_on,68,0,20
1,note_on,75,52,100
1,note_on,72,0,20
1,note_on,68,51,100
1,note_on,75,0,20
1,note_on,72,51,100
1,note_on,68,0,20
1,note_on,75,52,100
1,note_on,72,0,20
1,note_on,75,0,100
1,note_on,68,79,0
1,note_on,72,79,0
1,note_on,75,94,0
1,note_on,80,94,0
1,note_on,80,0,120
1,note_on,68,0,0
1,note_on,72,0,0
1,note_on,75,0,0
1,note_on,72,66,120
1,note_on,80,78,0
1,note_on,68,66,0
1,note_on,75,78,0
1,note_on,75,0,120
1,note_on,72,0,0
1,note_on,80,0,0
1,note_on,68,0,0
1,note_on,49,66,240
1,note_on,53,62,120
1,note_on,49,0,20
1,note_on,56,66,100
1,note_on,53,0,20
1,note_on,61,68,100
1,note_on,56,0,20
1,note_on,53,62,100
1,note_on,61,0,20
1,note_on,56,62,100
1,note_on,53,0,20
1,note_on,61,65,100
1,note_on,56,0,20
1,note_on,65,68,100
1,note_on,61,0,20
1,note_on,56,62,100
1,note_on,65,0,20
1,note_on,61,65,100
1,note_on,56,0,20
1,note_on,65,67,100
1,note_on,61,0,20
1,note_on,68,68,100
1,note_on,65,0,20
1,note_on,61,62,100
1,note_on,68,0,20
1,note_on,65,63,100
1,note_on,61,0,20
1,note_on,68,66,100
1,note_on,65,0,20
1,note_on,73,67,100
1,note_on,68,0,20
1,note_on,65,62,100
1,note_on,73,0,20
1,note_on,68,62,100
1,note_on,65,0,20
1,note_on,73,66,100
1,note_on,68,0,20
1,note_on,77,68,100
1,note_on,73,0,20
1,note_on,68,62,100
1,note_on,77,0,20
1,note_on,73,66,100
1,note_on,68,0,20
1,note_on,77,68,100
1,note_on,73,0,20
1,note_on,80,66,100
1,note_on,77,0,20
1,note_on,73,68,100
1,note_on,80,0,20
1,note_on,77,69,100
1,note_on,73,0,20
1,note_on,80,71,100
1,note_on,77,0,20
1,note_on,80,0,100
1,note_on,77,87,0
1,note_on,85,103,0
1,note_on,80,103,0
1,note_on,73,87,0
1,note_on,73,0,120
1,note_on,77,0,0
1,note_on,85,0,0
1,note_on,80,0,0
1,note_on,80,90,120
1,note_on,85,90,0
1,note_on,73,77,0
1,note_on,77,77,0
1,note_on,77,0,120
1,note_on,80,0,0
1,note_on,85,0,0
1,note_on,73,0,0
1,note_on,49,61,240
1,note_on,54,63,120
1,note_on,49,0,20
1,note_on,57,62,100
1,note_on,54,0,20
1,note_on,61,69,100
1,note_on,57,0,20
1,note_on,61,0,40
1,note_on,61,72,60
1,note_on,66,76,120
1,note_on,61,0,20
1,note_on,69,73,100
1,note_on,66,0,20
1,note_on,73,79,100
1,note_on,69,0,20
1,note_on,73,0,40
1,note_on,73,77,60
1,note_on,78,81,120
1,note_on,73,0,20
1,note_on,81,76,100
1,note_on,78,0,20
1,note_on,81,0,100
1,note_on,73,90,0
1,note_on,85,108,0
1,note_on,78,90,0
1,note_on,78,0,120
1,note_on,85,0,0
1,note_on,73,0,0
1,note_on,73,88,120
1,note_on,78,88,0
1,note_on,85,104,0
1,note_on,85,0,120
1,note_on,78,0,0
1,note_on,73,0,0
1,note_on,49,75,240
1,note_on,52,77,120
1,note_on,49,0,20
1,note_on,55,79,100
1,note_on,52,0,20
1,note_on,61,76,100
1,note_on,55,0,20
1,note_on,61,0,40
1,note_on,61,77,60
1,note_on,64,79,120
1,note_on,61,0,20
1,note_on,67,79,100
1,note_on,64,0,20
1,note_on,73,80,100
1,note_on,67,0,20
1,note_on,73,0,40
1,note_on,73,77,60
1,note_on,76,79,120
1,note_on,73,0,20
1,note_on,79,80,100
1,note_on,76,0,20
1,note_on,79,0,100
1,note_on,85,105,0
1,note_on,73,89,0
1,note_on,79,105,0
1,note_on,79,0,120
1,note_on,73,0,0
1,note_on,85,0,0
1,note_on,73,89,120
1,note_on,79,105,0
1,note_on,85,105,0
1,note_on,85,0,120
1,note_on,79,0,0
1,note_on,73,0,0
1,note_on,72,88,120
1,note_on,84,104,0
1,note_on,80,104,0
1,note_on,80,0,240
1,note_on,84,0,0
1,note_on,72,0,0
1,note_on,68,74,0
1,note_on,68,0,120
1,note_on,80,58,0
1,note_on,80,0,120
1,note_on,68,75,0
1,note_on,68,0,120
1,note_on,80,60,0
1,note_on,80,0,120
1,note_on,70,76,0
1,note_on,70,0,120
1,note_on,80,60,0
1,note_on,80,0,120
1,note_on,72,76,0
1,note_on,72,0,120
1,note_on,80,61,0
1,note_on,80,0,120
1,note_on,73,78,0
1,note_on,73,0,120
1,note_on,80,62,0
1,note_on,80,0,120
1,note_on,75,79,0
1,note_on,75,0,120
1,note_on,80,62,0
1,note_on,80,0,120
1,note_on,72,79,0
1,note_on,72,0,120
1,note_on,80,62,0
1,note_on,80,0,120
1,note_on,75,80,0
1,note_on,75,0,120
1,note_on,80,62,0
1,note_on,80,0,120
1,note_on,73,80,0
1,note_on,73,0,120
1,note_on,80,62,0
1,note_on,80,0,120
1,note_on,78,84,0
1,note_on,78,0,120
1,note_on,80,62,0
1,note_on,80,0,120
1,note_on,76,80,0
1,note_on,76,0,120
1,note_on,80,62,0
1,note_on,80,0,120
1,note_on,75,80,0
1,note_on,75,0,120
1,note_on,80,62,0
1,note_on,80,0,120
1,note_on,73,79,0
1,note_on,73,0,120
1,note_on,80,62,0
1,note_on,80,0,120
1,note_on,72,79,0
1,note_on,72,0,120
1,note_on,80,62,0
1,note_on,80,0,120
1,note_on,69,77,0
1,note_on,69,0,120
1,note_on,79,61,0
1,note_on,79,0,120
1,note_on,68,76,0
1,note_on,68,0,120
1,note_on,80,60,0
1,note_on,80,0,120
1,note_on,68,75,0
1,note_on,68,0,120
1,note_on,80,59,0
1,note_on,80,0,120
1,note_on,68,74,0
1,note_on,68,0,120
1,note_on,80,59,0
1,note_on,80,0,120
1,note_on,70,74,0
1,note_on,70,0,120
1,note_on,80,61,0
1,note_on,80,0,120
1,note_on,72,76,0
1,note_on,72,0,120
1,note_on,80,59,0
1,note_on,80,0,120
1,note_on,73,76,0
1,note_on,73,0,120
1,note_on,80,62,0
1,note_on,80,0,120
1,note_on,75,77,0
1,note_on,75,0,120
1,note_on,80,61,0
1,note_on,80,0,120
1,note_on,72,79,0
1,note_on,72,0,120
1,note_on,80,62,0
1,note_on,80,0,120
1,note_on,75,79,0
1,note_on,75,0,120
1,note_on,80,62,0
1,note_on,80,0,120
1,note_on,73,80,0
1,note_on,73,0,120
1,note_on,80,65,0
1,note_on,80,0,120
1,note_on,78,84,0
1,note_on,78,0,120
1,note_on,80,68,0
1,note_on,80,0,120
1,note_on,76,84,0
1,note_on,76,0,120
1,note_on,80,67,0
1,note_on,80,0,120
1,note_on,75,84,0
1,note_on,75,0,120
1,note_on,80,67,0
1,note_on,80,0,120
1,note_on,73,84,0
1,note_on,73,0,120
1,note_on,80,66,0
1,note_on,80,0,120
1,note_on,72,84,0
1,note_on,72,0,120
1,note_on,80,67,0
1,note_on,80,0,120
1,note_on,69,84,0
1,note_on,69,0,120
1,note_on,79,66,0
1,note_on,79,0,120
1,note_on,68,84,0
1,note_on,68,0,120
1,note_on,80,66,0
1,note_on,80,0,120
1,note_on,69,79,0
1,note_on,69,0,120
1,note_on,79,67,0
1,note_on,79,0,120
1,note_on,68,84,0
1,note_on,68,0,120
1,note_on,80,66,0
1,note_on,80,0,120
1,note_on,69,79,0
1,note_on,69,0,120
1,note_on,79,67,0
1,note_on,79,0,120
1,note_on,68,84,0
1,note_on,68,0,120
1,note_on,80,66,0
1,note_on,80,0,120
1,note_on,69,79,0
1,note_on,69,0,120
1,note_on,79,65,0
1,note_on,79,0,120
1,note_on,68,84,0
1,note_on,68,0,120
1,note_on,80,66,0
1,note_on,80,0,120
1,note_on,69,79,0
1,note_on,69,0,120
1,note_on,79,65,0
1,note_on,79,0,120
1,note_on,68,84,0
1,note_on,80,84,0
1,note_on,80,0,240
1,note_on,68,0,0
1,note_on,56,113,240
1,note_on,56,0,1440
1,note_on,44,45,120
1,note_on,44,0,115
1,note_on,49,47,5
1,note_on,52,49,120
1,note_on,49,0,20
1,note_on,56,51,100
1,note_on,52,0,20
1,note_on,49,47,100
1,note_on,56,0,20
1,note_on,52,49,100
1,note_on,49,0,20
1,note_on,56,51,100
1,note_on,52,0,20
1,note_on,61,51,100
1,note_on,56,0,20
1,note_on,52,47,100
1,note_on,61,0,20
1,note_on,56,48,100
1,note_on,52,0,20
1,note_on,61,50,100
1,note_on,56,0,20
1,note_on,64,51,100
1,note_on,61,0,20
1,note_on,56,47,100
1,note_on,64,0,20
1,note_on,61,48,100
1,note_on,56,0,20
1,note_on,64,50,100
1,note_on,61,0,20
1,note_on,68,51,100
1,note_on,64,0,20
1,note_on,61,47,100
1,note_on,68,0,20
1,note_on,64,48,100
1,note_on,61,0,20
1,note_on,68,50,100
1,note_on,64,0,20
1,note_on,73,51,100
1,note_on,68,0,20
1,note_on,64,47,100
1,note_on,73,0,20
1,note_on,68,49,100
1,note_on,64,0,20
1,note_on,73,51,100
1,note_on,68,0,20
1,note_on,76,51,100
1,note_on,73,0,20
1,note_on,76,0,90
1,note_on,76,51,10
1,note_on,80,51,120
1,note_on,76,0,20
1,note_on,85,53,100
1,note_on,80,0,20
1,note_on,76,96,100
1,note_on,88,113,0
1,note_on,85,0,20
1,note_on,88,0,100
1,note_on,76,0,0
1,note_on,76,74,120
1,note_on,88,88,0
1,note_on,88,0,120
1,note_on,76,0,0
1,note_on,52,47,240
1,note_on,55,49,120
1,note_on,52,0,20
1,note_on,61,51,100
1,note_on,55,0,20
1,note_on,64,51,100
1,note_on,61,0,20
1,note_on,55,47,100
1,note_on,64,0,20
1,note_on,61,48,100
1,note_on,55,0,20
1,note_on,64,50,100
1,note_on,61,0,20
1,note_on,67,51,100
1,note_on,64,0,20
1,note_on,61,47,100
1,note_on,67,0,20
1,note_on,64,48,100
1,note_on,61,0,20
1,note_on,67,51,100
1,note_on,64,0,20
1,note_on,73,52,100
1,note_on,67,0,20
1,note_on,64,47,100
1,note_on,73,0,20
1,note_on,67,49,100
1,note_on,64,0,20
1,note_on,73,51,100
1,note_on,67,0,20
1,note_on,76,53,100
1,note_on,73,0,20
1,note_on,67,47,100
1,note_on,76,0,20
1,note_on,73,50,100
1,note_on,67,0,20
1,note_on,76,51,100
1,note_on,73,0,20
1,note_on,79,53,100
1,note_on,76,0,20
1,note_on,73,47,100
1,note_on,79,0,20
1,note_on,76,49,100
1,note_on,73,0,20
1,note_on,79,51,100
1,note_on,76,0,20
1,note_on,85,52,100
1,note_on,79,0,20
1,note_on,76,49,100
1,note_on,85,0,20
1,note_on,79,51,100
1,note_on,76,0,20
1,note_on,85,54,100
1,note_on,79,0,20
1,note_on,76,93,100
1,note_on,88,110,0
1,note_on,85,0,20
1,note_on,88,0,100
1,note_on,76,0,0
1,note_on,76,73,120
1,note_on,88,87,0
1,note_on,88,0,120
1,note_on,76,0,0
1,note_on,51,50,240
1,note_on,51,0,115
1,note_on,58,51,5
1,note_on,61,49,120
1,note_on,58,0,20
1,note_on,63,51,100
1,note_on,61,0,20
1,note_on,58,52,100
1,note_on,63,0,20
1,note_on,61,53,100
1,note_on,58,0,20
1,note_on,63,51,100
1,note_on,61,0,20
1,note_on,70,56,100
1,note_on,63,0,20
1,note_on,61,56,100
1,note_on,70,0,20
1,note_on,63,57,100
1,note_on,61,0,20
1,note_on,70,52,100
1,note_on,63,0,20
1,note_on,73,58,100
1,note_on,70,0,20
1,note_on,63,59,100
1,note_on,73,0,20
1,note_on,70,60,100
1,note_on,63,0,20
1,note_on,73,56,100
1,note_on,70,0,20
1,note_on,75,62,100
1,note_on,73,0,20
1,note_on,70,62,100
1,note_on,75,0,20
1,note_on,73,62,100
1,note_on,70,0,20
1,note_on,75,59,100
1,note_on,73,0,20
1,note_on,82,63,100
1,note_on,75,0,20
1,note_on,73,65,100
1,note_on,82,0,20
1,note_on,75,66,100
1,note_on,73,0,20
1,note_on,82,62,100
1,note_on,75,0,20
1,note_on,85,67,100
1,note_on,82,0,20
1,note_on,82,65,100
1,note_on,85,0,20
1,note_on,75,62,100
1,note_on,82,0,20
1,note_on,73,61,100
1,note_on,75,0,20
1,note_on,82,59,100
1,note_on,73,0,20
1,note_on,75,57,100
1,note_on,82,0,20
1,note_on,73,56,100
1,note_on,75,0,20
1,note_on,70,52,100
1,note_on,73,0,20
1,note_on,71,49,100
1,note_on,70,0,20
1,note_on,71,0,220
1,note_on,75,61,240
1,note_on,71,50,960
1,note_on,75,0,20
1,note_on,68,50,340
1,note_on,71,0,20
1,note_on,68,0,40
1,note_on,67,40,0
1,note_on,67,0,20
1,note_on,68,40,0
1,note_on,68,0,20
1,note_on,70,40,0
1,note_on,70,0,20
1,note_on,68,58,0
1,note_on,67,50,480
1,note_on,68,0,20
1,note_on,67,0,700
1,note_on,67,50,0
1,note_on,75,61,240
1,note_on,67,0,20
1,note_on,75,0,340
1,note_on,67,52,0
1,note_on,67,0,120
1,note_on,70,47,0
1,note_on,68,51,480
1,note_on,70,0,20
1,note_on,68,0,700
1,note_on,68,49,0
1,note_on,75,61,240
1,note_on,68,0,20
1,note_on,75,0,340
1,note_on,68,50,0
1,note_on,71,52,120
1,note_on,68,0,20
1,note_on,70,50,460
1,note_on,71,0,20
1,note_on,70,0,700
1,note_on,70,52,0
1,note_on,75,49,240
1,note_on,70,0,20
1,note_on,75,0,340
1,note_on,70,52,0
1,note_on,70,0,120
1,note_on,71,56,0
1,note_on,71,0,120
1,note_on,87,56,120
1,note_on,75,47,0
1,note_on,75,0,480
1,note_on,87,0,0
1,note_on,87,58,0
1,note_on,75,49,0
1,note_on,75,0,480
1,note_on,87,0,0
1,note_on,75,47,0
1,note_on,87,56,0
1,note_on,87,0,120
1,note_on,75,0,0
1,note_on,71,49,120
1,note_on,83,58,0
1,note_on,83,0,120
1,note_on,71,0,0
1,note_on,80,59,120
1,note_on,68,49,0
1,note_on,68,0,120
1,note_on,80,0,0
1,note_on,80,61,120
1,note_on,68,51,0
1,note_on,68,0,120
1,note_on,80,0,0
1,note_on,79,62,120
1,note_on,67,52,0
1,note_on,67,0,480
1,note_on,79,0,0
1,note_on,79,68,0
1,note_on,67,57,0
1,note_on,67,0,480
1,note_on,79,0,0
1,note_on,67,58,0
1,note_on,79,69,0
1,note_on,79,0,120
1,note_on,67,0,0
1,note_on,87,71,120
1,note_on,75,60,0
1,note_on,75,0,120
1,note_on,87,0,0
1,note_on,67,61,120
1,note_on,79,73,0
1,note_on,79,0,120
1,note_on,67,0,0
1,note_on,70,62,120
1,note_on,82,74,0
1,note_on,82,0,120
1,note_on,70,0,0
1,note_on,68,63,120
1,note_on,80,75,0
1,note_on,80,0,480
1,note_on,68,0,0
1,note_on,68,68,0
1,note_on,80,80,0
1,note_on,80,0,480
1,note_on,68,0,0
1,note_on,68,69,0
1,note_on,80,82,0
1,note_on,80,0,120
1,note_on,68,0,0
1,note_on,75,72,120
1,note_on,87,85,0
1,note_on,87,0,120
1,note_on,75,0,0
1,note_on,80,86,120
1,note_on,68,73,0
1,note_on,68,0,120
1,note_on,80,0,0
1,note_on,71,73,120
1,note_on,83,86,0
1,note_on,83,0,120
1,note_on,71,0,0
1,note_on,82,89,120
1,note_on,70,74,0
1,note_on,70,0,480
1,note_on,82,0,0
1,note_on,70,79,0
1,note_on,82,93,0
1,note_on,82,0,480
1,note_on,70,0,0
1,note_on,82,93,0
1,note_on,70,79,0
1,note_on,70,0,120
1,note_on,82,0,0
1,note_on,87,93,120
1,note_on,75,79,0
1,note_on,75,0,120
1,note_on,87,0,0
1,note_on,82,93,120
1,note_on,70,79,0
1,note_on,70,0,120
1,note_on,82,0,0
1,note_on,72,80,120
1,note_on,84,95,0
1,note_on,84,0,960
1,note_on,72,0,0
1,note_on,85,95,0
1,note_on,73,80,0
1,note_on,73,0,960
1,note_on,85,0,0
1,note_on,82,80,0
1,note_on,70,68,0
1,note_on,82,0,65
1,note_on,83,75,0
1,note_on,83,0,64
1,note_on,82,80,0
1,note_on,82,0,65
1,note_on,83,80,0
1,note_on,83,0,64
1,note_on,82,80,17
1,note_on,80,75,72
1,note_on,82,0,6
1,note_on,82,75,60
1,note_on,80,0,11
1,note_on,82,0,56
1,note_on,70,0,0
1,note_on,83,95,0
1,note_on,71,80,0
1,note_on,71,0,1440
1,note_on,83,0,0
1,note_on,80,95,0
1,note_on,68,80,0
1,note_on,68,0,960
1,note_on,80,0,0
1,note_on,69,80,0
1,note_on,81,94,0
1,note_on,81,0,960
1,note_on,69,0,0
1,note_on,67,68,0
1,note_on,79,80,0
1,note_on,79,0,65
1,note_on,80,75,0
1,note_on,79,80,64
1,note_on,80,0,1
1,note_on,79,0,64
1,note_on,80,80,0
1,note_on,80,0,65
1,note_on,79,80,16
1,note_on,77,75,72
1,note_on,79,0,6
1,note_on,79,75,60
1,note_on,77,0,12
1,note_on,79,0,55
1,note_on,67,0,0
1,note_on,68,80,0
1,note_on,80,95,0
1,note_on,80,0,1440
1,note_on,68,0,0
1,note_on,76,100,0
1,note_on,69,83,0
1,note_on,73,83,0
1,note_on,81,100,0
1,note_on,81,0,1080
1,note_on,76,0,0
1,note_on,69,0,0
1,note_on,73,0,0
1,note_on,76,47,0
1,note_on,76,0,120
1,note_on,78,47,0
1,note_on,78,0,120
1,note_on,80,48,0
1,note_on,80,0,120
1,note_on,81,49,0
1,note_on,81,0,120
1,note_on,83,50,0
1,note_on,83,0,120
1,note_on,85,51,0
1,note_on,85,0,120
1,note_on,83,51,0
1,note_on,83,0,120
1,note_on,81,49,0
1,note_on,81,0,120
1,note_on,76,47,0
1,note_on,76,0,120
1,note_on,78,47,0
1,note_on,78,0,120
1,note_on,80,47,0
1,note_on,80,0,120
1,note_on,81,48,0
1,note_on,81,0,120
1,note_on,83,49,0
1,note_on,83,0,120
1,note_on,85,50,0
1,note_on,85,0,120
1,note_on,83,48,0
1,note_on,83,0,120
1,note_on,81,48,0
1,note_on,81,0,120
1,note_on,76,47,0
1,note_on,76,0,120
1,note_on,78,48,0
1,note_on,78,0,120
1,note_on,80,49,0
1,note_on,80,0,120
1,note_on,81,50,0
1,note_on,81,0,120
1,note_on,83,51,0
1,note_on,83,0,120
1,note_on,85,51,0
1,note_on,85,0,120
1,note_on,83,49,0
1,note_on,83,0,120
1,note_on,81,47,0
1,note_on,81,0,120
1,note_on,76,48,0
1,note_on,76,0,120
1,note_on,78,51,0
1,note_on,78,0,120
1,note_on,80,51,0
1,note_on,80,0,120
1,note_on,81,54,0
1,note_on,81,0,120
1,note_on,83,56,0
1,note_on,83,0,120
1,note_on,85,57,0
1,note_on,85,0,120
1,note_on,86,60,0
1,note_on,86,0,120
1,note_on,88,61,0
1,note_on,88,0,120
1,note_on,87,59,0
1,note_on,87,0,120
1,note_on,88,57,0
1,note_on,88,0,120
1,note_on,87,56,0
1,note_on,87,0,120
1,note_on,88,54,0
1,note_on,88,0,120
1,note_on,85,52,0
1,note_on,85,0,120
1,note_on,83,51,0
1,note_on,83,0,120
1,note_on,81,50,0
1,note_on,81,0,120
1,note_on,80,48,0
1,note_on,80,0,960
1,note_on,82,50,0
1,note_on,82,0,80
1,note_on,83,50,0
1,note_on,83,0,80
1,note_on,82,50,0
1,note_on,82,0,75
1,note_on,83,50,0
1,note_on,83,0,75
1,note_on,82,50,0
1,note_on,82,0,75
1,note_on,83,50,0
1,note_on,83,0,75
1,note_on,82,48,0
1,note_on,82,0,70
1,note_on,83,48,0
1,note_on,83,0,70
1,note_on,82,49,0
1,note_on,82,0,60
1,note_on,83,50,0
1,note_on,83,0,60
1,note_on,82,51,0
1,note_on,82,0,60
1,note_on,83,51,0
1,note_on,83,0,60
1,note_on,82,51,0
1,note_on,82,0,60
1,note_on,83,52,0
1,note_on,83,0,60
1,note_on,80,56,0
1,note_on,80,0,240
1,note_on,64,87,240
1,note_on,57,73,0
1,note_on,61,87,0
1,note_on,69,87,0
1,note_on,69,0,600
1,note_on,64,0,0
1,note_on,57,0,0
1,note_on,61,0,0
1,note_on,64,50,0
1,note_on,64,0,120
1,note_on,66,50,0
1,note_on,66,0,120
1,note_on,68,50,0
1,note_on,68,0,120
1,note_on,69,48,0
1,note_on,69,0,120
1,note_on,71,47,0
1,note_on,71,0,120
1,note_on,73,49,0
1,note_on,73,0,120
1,note_on,71,48,0
1,note_on,71,0,120
1,note_on,69,47,0
1,note_on,69,0,120
1,note_on,64,47,0
1,note_on,64,0,120
1,note_on,66,48,0
1,note_on,66,0,120
1,note_on,68,49,0
1,note_on,68,0,120
1,note_on,69,51,0
1,note_on,69,0,120
1,note_on,71,51,0
1,note_on,71,0,120
1,note_on,73,49,0
1,note_on,73,0,120
1,note_on,71,48,0
1,note_on,71,0,120
1,note_on,69,48,0
1,note_on,69,0,120
1,note_on,64,48,0
1,note_on,64,0,120
1,note_on,66,48,0
1,note_on,66,0,120
1,note_on,68,50,0
1,note_on,68,0,120
1,note_on,69,50,0
1,note_on,69,0,120
1,note_on,71,50,0
1,note_on,71,0,120
1,note_on,73,50,0
1,note_on,73,0,120
1,note_on,71,50,0
1,note_on,71,0,120
1,note_on,69,49,0
1,note_on,69,0,120
1,note_on,64,50,0
1,note_on,64,0,120
1,note_on,66,51,0
1,note_on,66,0,120
1,note_on,68,51,0
1,note_on,68,0,120
1,note_on,69,52,0
1,note_on,69,0,120
1,note_on,71,53,0
1,note_on,71,0,120
1,note_on,73,56,0
1,note_on,73,0,120
1,note_on,71,56,0
1,note_on,71,0,120
1,note_on,69,57,0
1,note_on,69,0,120
1,note_on,64,58,0
1,note_on,64,0,120
1,note_on,66,59,0
1,note_on,66,0,120
1,note_on,68,60,0
1,note_on,68,0,120
1,note_on,69,62,0
1,note_on,69,0,120
1,note_on,71,62,0
1,note_on,71,0,120
1,note_on,73,62,0
1,note_on,73,0,120
1,note_on,71,63,0
1,note_on,71,0,120
1,note_on,69,66,0
1,note_on,69,0,120
1,note_on,64,67,0
1,note_on,64,0,120
1,note_on,66,68,0
1,note_on,66,0,120
1,note_on,68,68,0
1,note_on,68,0,120
1,note_on,69,70,0
1,note_on,69,0,120
1,note_on,71,71,0
1,note_on,71,0,120
1,note_on,73,72,0
1,note_on,73,0,120
1,note_on,74,73,0
1,note_on,74,0,120
1,note_on,76,74,0
1,note_on,76,0,120
1,note_on,78,75,0
1,note_on,78,0,120
1,note_on,80,76,0
1,note_on,80,0,120
1,note_on,81,77,0
1,note_on,81,0,120
1,note_on,83,79,0
1,note_on,83,0,120
1,note_on,85,79,0
1,note_on,85,0,120
1,note_on,86,79,0
1,note_on,86,0,120
1,note_on,87,80,0
1,note_on,87,0,120
1,note_on,76,84,0
1,note_on,88,84,0
1,note_on,88,0,960
1,note_on,76,0,0
1,note_on,68,84,0
1,note_on,80,84,0
1,note_on,80,0,960
1,note_on,68,0,0
1,note_on,71,84,0
1,note_on,83,84,0
1,note_on,83,0,960
1,note_on,71,0,0
1,note_on,55,71,0
1,note_on,61,71,0
1,note_on,67,84,0
1,note_on,67,0,960
1,note_on,61,0,0
1,note_on,55,0,0
1,note_on,63,84,0
1,note_on,68,84,0
1,note_on,59,84,0
1,note_on,59,0,240
1,note_on,68,0,0
1,note_on,63,0,0
1,note_on,63,51,0
1,note_on,71,51,0
1,note_on,71,0,120
1,note_on,63,0,0
1,note_on,63,51,120
1,note_on,71,51,0
1,note_on,71,0,120
1,note_on,63,0,0
1,note_on,63,51,120
1,note_on,71,51,0
1,note_on,71,0,120
1,note_on,63,0,0
1,note_on,63,51,120
1,note_on,71,51,0
1,note_on,71,0,120
1,note_on,63,0,0
1,note_on,63,51,120
1,note_on,71,51,0
1,note_on,71,0,120
1,note_on,63,0,0
1,note_on,70,49,120
1,note_on,63,49,0
1,note_on,63,0,120
1,note_on,70,0,0
1,note_on,63,48,120
1,note_on,68,48,0
1,note_on,68,0,120
1,note_on,63,0,0
1,note_on,63,59,120
1,note_on,67,59,0
1,note_on,67,0,240
1,note_on,63,0,0
1,note_on,75,49,0
1,note_on,67,49,0
1,note_on,67,0,120
1,note_on,75,0,0
1,note_on,67,49,120
1,note_on,75,49,0
1,note_on,75,0,120
1,note_on,67,0,0
1,note_on,67,50,120
1,note_on,75,50,0
1,note_on,75,0,120
1,note_on,67,0,0
1,note_on,67,51,120
1,note_on,75,51,0
1,note_on,75,0,120
1,note_on,67,0,0
1,note_on,75,51,120
1,note_on,67,51,0
1,note_on,67,0,120
1,note_on,75,0,0
1,note_on,75,51,120
1,note_on,68,51,0
1,note_on,68,0,120
1,note_on,75,0,0
1,note_on,70,50,120
1,note_on,75,50,0
1,note_on,75,0,120
1,note_on,70,0,0
1,note_on,71,58,120
1,note_on,75,58,0
1,note_on,75,0,240
1,note_on,71,0,0
1,note_on,71,50,0
1,note_on,63,50,0
1,note_on,63,0,120
1,note_on,71,0,0
1,note_on,71,50,120
1,note_on,63,50,0
1,note_on,63,0,120
1,note_on,71,0,0
1,note_on,63,50,120
1,note_on,71,50,0
1,note_on,71,0,120
1,note_on,63,0,0
1,note_on,71,50,120
1,note_on,63,50,0
1,note_on,63,0,120
1,note_on,71,0,0
1,note_on,71,50,120
1,note_on,63,50,0
1,note_on,63,0,120
1,note_on,71,0,0
1,note_on,70,50,120
1,note_on,63,50,0
1,note_on,63,0,120
1,note_on,70,0,0
1,note_on,63,48,120
1,note_on,68,48,0
1,note_on,68,0,120
1,note_on,63,0,0
1,note_on,63,58,120
1,note_on,67,58,0
1,note_on,67,0,240
1,note_on,63,0,0
1,note_on,75,49,0
1,note_on,67,49,0
1,note_on,67,0,120
1,note_on,75,0,0
1,note_on,67,49,120
1,note_on,75,49,0
1,note_on,75,0,120
1,note_on,67,0,0
1,note_on,67,51,120
1,note_on,75,51,0
1,note_on,75,0,120
1,note_on,67,0,0
1,note_on,67,49,120
1,note_on,75,49,0
1,note_on,75,0,120
1,note_on,67,0,0
1,note_on,75,49,120
1,note_on,67,49,0
1,note_on,67,0,120
1,note_on,75,0,0
1,note_on,68,50,120
1,note_on,75,50,0
1,note_on,75,0,120
1,note_on,68,0,0
1,note_on,70,51,120
1,note_on,75,51,0
1,note_on,75,0,120
1,note_on,70,0,0
1,note_on,71,56,120
1,note_on,75,56,0
1,note_on,75,0,120
1,note_on,71,0,0
1,note_on,75,50,120
1,note_on,71,50,0
1,note_on,71,0,120
1,note_on,75,0,0
1,note_on,75,50,120
1,note_on,71,50,0
1,note_on,71,0,240
1,note_on,75,0,0
1,note_on,68,47,0
1,note_on,71,47,0
1,note_on,71,0,240
1,note_on,68,0,0
1,note_on,76,50,240
1,note_on,73,50,0
1,note_on,73,0,120
1,note_on,76,0,0
1,note_on,73,50,120
1,note_on,76,50,0
1,note_on,76,0,240
1,note_on,73,0,0
1,note_on,73,48,0
1,note_on,68,48,0
1,note_on,68,0,240
1,note_on,73,0,0
1,note_on,75,47,240
1,note_on,71,47,0
1,note_on,71,0,120
1,note_on,75,0,0
1,note_on,71,47,120
1,note_on,75,47,0
1,note_on,75,0,240
1,note_on,71,0,0
1,note_on,71,44,0
1,note_on,68,44,0
1,note_on,68,0,240
1,note_on,71,0,0
1,note_on,70,49,240
1,note_on,75,49,0
1,note_on,75,0,120
1,note_on,70,0,0
1,note_on,70,47,120
1,note_on,75,47,0
1,note_on,75,0,240
1,note_on,70,0,0
1,note_on,70,45,0
1,note_on,67,45,0
1,note_on,67,0,240
1,note_on,70,0,0
1,note_on,71,49,0
1,note_on,68,49,0
1,note_on,68,0,240
1,note_on,71,0,0
1,note_on,71,43,0
1,note_on,75,51,0
1,note_on,83,51,0
1,note_on,83,0,120
1,note_on,75,0,0
1,note_on,71,0,0
1,note_on,75,56,120
1,note_on,71,47,0
1,note_on,83,56,0
1,note_on,83,0,120
1,note_on,71,0,0
1,note_on,75,0,0
1,note_on,83,58,120
1,note_on,75,58,0
1,note_on,71,49,0
1,note_on,71,0,120
1,note_on,75,0,0
1,note_on,83,0,0
1,note_on,71,52,120
1,note_on,75,62,0
1,note_on,83,62,0
1,note_on,83,0,120
1,note_on,75,0,0
1,note_on,71,0,0
1,note_on,71,56,120
1,note_on,75,66,0
1,note_on,83,66,0
1,note_on,83,0,120
1,note_on,75,0,0
1,note_on,71,0,0
1,note_on,82,68,120
1,note_on,70,57,0
1,note_on,73,68,0
1,note_on,73,0,120
1,note_on,70,0,0
1,note_on,82,0,0
1,note_on,68,61,120
1,note_on,71,72,0
1,note_on,80,72,0
1,note_on,80,0,120
1,note_on,71,0,0
1,note_on,68,0,0
1,note_on,67,63,120
1,note_on,70,75,0
1,note_on,79,75,0
1,note_on,79,0,240
1,note_on,70,0,0
1,note_on,67,0,0
1,note_on,79,76,0
1,note_on,76,64,0
1,note_on,88,76,0
1,note_on,88,0,120
1,note_on,76,0,0
1,note_on,79,0,0
1,note_on,79,82,120
1,note_on,88,82,0
1,note_on,76,69,0
1,note_on,76,0,120
1,note_on,88,0,0
1,note_on,79,0,0
1,note_on,76,67,120
1,note_on,88,79,0
1,note_on,79,79,0
1,note_on,79,0,120
1,note_on,88,0,0
1,note_on,76,0,0
1,note_on,88,82,120
1,note_on,79,82,0
1,note_on,76,69,0
1,note_on,76,0,120
1,note_on,79,0,0
1,note_on,88,0,0
1,note_on,88,78,120
1,note_on,79,78,0
1,note_on,76,66,0
1,note_on,76,0,120
1,note_on,79,0,0
1,note_on,88,0,0
1,note_on,79,80,120
1,note_on,75,68,0
1,note_on,87,80,0
1,note_on,87,0,120
1,note_on,75,0,0
1,note_on,79,0,0
1,note_on,79,78,120
1,note_on,73,66,0
1,note_on,85,78,0
1,note_on,85,0,120
1,note_on,73,0,0
1,note_on,79,0,0
1,note_on,71,69,120
1,note_on,80,82,0
1,note_on,83,82,0
1,note_on,83,0,240
1,note_on,80,0,0
1,note_on,71,0,0
1,note_on,71,41,0
1,note_on,75,49,0
1,note_on,83,49,0
1,note_on,83,0,120
1,note_on,75,0,0
1,note_on,71,0,0
1,note_on,75,52,120
1,note_on,83,52,0
1,note_on,71,44,0
1,note_on,71,0,120
1,note_on,83,0,0
1,note_on,75,0,0
1,note_on,71,48,120
1,note_on,75,57,0
1,note_on,83,57,0
1,note_on,83,0,120
1,note_on,75,0,0
1,note_on,71,0,0
1,note_on,75,61,120
1,note_on,83,61,0
1,note_on,71,51,0
1,note_on,71,0,120
1,note_on,83,0,0
1,note_on,75,0,0
1,note_on,83,66,120
1,note_on,71,56,0
1,note_on,75,66,0
1,note_on,75,0,120
1,note_on,71,0,0
1,note_on,83,0,0
1,note_on,70,58,120
1,note_on,82,69,0
1,note_on,73,69,0
1,note_on,73,0,120
1,note_on,82,0,0
1,note_on,70,0,0
1,note_on,68,62,120
1,note_on,71,73,0
1,note_on,80,73,0
1,note_on,80,0,120
1,note_on,71,0,0
1,note_on,68,0,0
1,note_on,67,66,120
1,note_on,70,78,0
1,note_on,79,78,0
1,note_on,79,0,240
1,note_on,70,0,0
1,note_on,67,0,0
1,note_on,79,79,0
1,note_on,88,79,0
1,note_on,76,67,0
1,note_on,76,0,120
1,note_on,88,0,0
1,note_on,79,0,0
1,note_on,79,81,120
1,note_on,76,68,0
1,note_on,88,81,0
1,note_on,88,0,120
1,note_on,76,0,0
1,note_on,79,0,0
1,note_on,76,66,120
1,note_on,88,78,0
1,note_on,79,78,0
1,note_on,79,0,120
1,note_on,88,0,0
1,note_on,76,0,0
1,note_on,79,82,120
1,note_on,76,69,0
1,note_on,88,82,0
1,note_on,88,0,120
1,note_on,76,0,0
1,note_on,79,0,0
1,note_on,76,66,120
1,note_on,88,78,0
1,note_on,79,78,0
1,note_on,79,0,120
1,note_on,88,0,0
1,note_on,76,0,0
1,note_on,87,79,120
1,note_on,79,79,0
1,note_on,75,67,0
1,note_on,75,0,120
1,note_on,79,0,0
1,note_on,87,0,0
1,note_on,85,79,120
1,note_on,73,67,0
1,note_on,79,79,0
1,note_on,79,0,120
1,note_on,73,0,0
1,note_on,85,0,0
1,note_on,80,82,120
1,note_on,83,82,0
1,note_on,71,69,0
1,note_on,71,0,240
1,note_on,83,0,0
1,note_on,80,0,0
1,note_on,83,50,0
1,note_on,80,50,0
1,note_on,80,0,120
1,note_on,83,0,0
1,note_on,83,50,120
1,note_on,80,50,0
1,note_on,80,0,240
1,note_on,83,0,0
1,note_on,87,48,0
1,note_on,83,48,0
1,note_on,83,0,240
1,note_on,87,0,0
1,note_on,85,49,240
1,note_on,80,49,0
1,note_on,80,0,120
1,note_on,85,0,0
1,note_on,85,49,120
1,note_on,80,49,0
1,note_on,80,0,240
1,note_on,85,0,0
1,note_on,88,48,0
1,note_on,85,48,0
1,note_on,85,0,240
1,note_on,88,0,0
1,note_on,80,49,240
1,note_on,83,49,0
1,note_on,83,0,120
1,note_on,80,0,0
1,note_on,83,49,120
1,note_on,80,49,0
1,note_on,80,0,240
1,note_on,83,0,0
1,note_on,87,48,0
1,note_on,83,48,0
1,note_on,83,0,240
1,note_on,87,0,0
1,note_on,82,51,240
1,note_on,79,51,0
1,note_on,79,0,120
1,note_on,82,0,0
1,note_on,82,51,120
1,note_on,79,51,0
1,note_on,79,0,240
1,note_on,82,0,0
1,note_on,87,48,0
1,note_on,82,48,0
1,note_on,82,0,240
1,note_on,87,0,0
1,note_on,75,56,240
1,note_on,83,56,0
1,note_on,83,0,120
1,note_on,75,0,0
1,note_on,83,51,120
1,note_on,75,51,0
1,note_on,75,0,240
1,note_on,83,0,0
1,note_on,80,51,0
1,note_on,87,51,0
1,note_on,87,0,240
1,note_on,80,0,0
1,note_on,81,62,240
1,note_on,73,62,0
1,note_on,73,0,120
1,note_on,81,0,0
1,note_on,81,56,120
1,note_on,73,56,0
1,note_on,73,0,240
1,note_on,81,0,0
1,note_on,76,56,0
1,note_on,85,56,0
1,note_on,85,0,240
1,note_on,76,0,0
1,note_on,80,57,240
1,note_on,71,57,0
1,note_on,71,0,120
1,note_on,80,0,0
1,note_on,80,57,120
1,note_on,71,57,0
1,note_on,71,0,240
1,note_on,80,0,0
1,note_on,75,51,0
1,note_on,83,51,0
1,note_on,83,0,240
1,note_on,75,0,0
1,note_on,79,52,240
1,note_on,70,52,0
1,note_on,70,0,120
1,note_on,79,0,0
1,note_on,70,51,120
1,note_on,79,51,0
1,note_on,79,0,240
1,note_on,70,0,0
1,note_on,73,42,0
1,note_on,82,42,0
1,note_on,82,0,240
1,note_on,73,0,0
1,note_on,80,50,0
1,note_on,71,50,0
1,note_on,71,0,480
1,note_on,80,0,0
1,note_on,71,50,960
1,note_on,71,0,360
1,note_on,68,50,0
1,note_on,68,0,120
1,note_on,67,57,0
1,note_on,67,0,480
1,note_on,75,47,0
1,note_on,61,39,0
1,note_on,67,47,0
1,note_on,67,0,360
1,note_on,61,0,0
1,note_on,75,0,0
1,note_on,67,47,120
1,note_on,75,47,0
1,note_on,61,39,0
1,note_on,61,0,360
1,note_on,75,0,0
1,note_on,67,0,0
1,note_on,67,50,120
1,note_on,75,50,0
1,note_on,61,42,0
1,note_on,61,0,360
1,note_on,75,0,0
1,note_on,67,0,0
1,note_on,59,50,0
1,note_on,68,50,60
1,note_on,59,0,20
1,note_on,75,57,40
1,note_on,68,0,20
1,note_on,75,0,1420
1,note_on,83,58,0
1,note_on,83,0,360
1,note_on,80,58,0
1,note_on,80,0,120
1,note_on,79,67,0
1,note_on,79,0,480
1,note_on,87,57,0
1,note_on,73,48,0
1,note_on,79,57,0
1,note_on,79,0,360
1,note_on,73,0,0
1,note_on,87,0,0
1,note_on,73,48,120
1,note_on,87,57,0
1,note_on,79,57,0
1,note_on,79,0,360
1,note_on,87,0,0
1,note_on,73,0,0
1,note_on,79,57,120
1,note_on,73,48,0
1,note_on,87,57,0
1,note_on,87,0,360
1,note_on,73,0,0
1,note_on,79,0,0
1,note_on,71,47,0
1,note_on,80,53,60
1,note_on,71,0,20
1,note_on,87,73,40
1,note_on,80,0,20
1,note_on,87,0,820
1,note_on,73,43,0
1,note_on,79,53,60
1,note_on,73,0,20
1,note_on,87,72,40
1,note_on,79,0,20
1,note_on,87,0,820
1,note_on,71,40,0
1,note_on,80,53,60
1,note_on,71,0,20
1,note_on,87,72,40
1,note_on,80,0,20
1,note_on,87,0,820
1,note_on,73,45,0
1,note_on,79,52,60
1,note_on,73,0,20
1,note_on,87,71,40
1,note_on,79,0,20
1,note_on,87,0,940
1,note_on,59,49,0
1,note_on,59,0,119
1,note_on,68,50,1
1,note_on,68,0,119
1,note_on,63,51,1
1,note_on,63,0,119
1,note_on,68,48,1
1,note_on,68,0,119
1,note_on,59,52,1
1,note_on,59,0,119
1,note_on,68,53,1
1,note_on,68,0,119
1,note_on,63,54,1
1,note_on,63,0,119
1,note_on,68,51,1
1,note_on,68,0,119
1,note_on,59,57,1
1,note_on,59,0,119
1,note_on,68,57,1
1,note_on,68,0,119
1,note_on,63,58,1
1,note_on,63,0,119
1,note_on,68,52,1
1,note_on,68,0,119
1,note_on,59,61,1
1,note_on,59,0,119
1,note_on,68,62,1
1,note_on,68,0,119
1,note_on,63,62,1
1,note_on,63,0,119
1,note_on,68,57,1
1,note_on,68,0,119
1,note_on,60,66,1
1,note_on,60,0,119
1,note_on,66,67,1
1,note_on,66,0,119
1,note_on,63,68,1
1,note_on,63,0,119
1,note_on,66,62,1
1,note_on,66,0,119
1,note_on,60,69,1
1,note_on,60,0,119
1,note_on,66,70,1
1,note_on,66,0,119
1,note_on,63,71,1
1,note_on,63,0,119
1,note_on,66,68,1
1,note_on,66,0,119
1,note_on,60,73,1
1,note_on,60,0,119
1,note_on,66,74,1
1,note_on,66,0,119
1,note_on,63,75,1
1,note_on,63,0,119
1,note_on,66,76,1
1,note_on,66,0,119
1,note_on,60,78,1
1,note_on,60,0,119
1,note_on,66,79,1
1,note_on,66,0,119
1,note_on,63,79,1
1,note_on,63,0,119
1,note_on,66,73,1
1,note_on,66,0,119
1,note_on,52,69,1
1,note_on,56,69,0
1,note_on,61,82,0
1,note_on,64,82,0
1,note_on,64,0,120
1,note_on,52,0,0
1,note_on,56,0,0
1,note_on,61,0,0
1,note_on,44,54,0
1,note_on,44,0,115
1,note_on,49,56,5
1,note_on,52,57,120
1,note_on,49,0,20
1,note_on,56,59,100
1,note_on,52,0,20
1,note_on,49,54,100
1,note_on,56,0,20
1,note_on,52,56,100
1,note_on,49,0,20
1,note_on,56,56,100
1,note_on,52,0,20
1,note_on,61,57,100
1,note_on,56,0,20
1,note_on,52,51,100
1,note_on,61,0,20
1,note_on,56,53,100
1,note_on,52,0,20
1,note_on,61,54,100
1,note_on,56,0,20
1,note_on,64,56,100
1,note_on,61,0,20
1,note_on,56,52,100
1,note_on,64,0,20
1,note_on,61,53,100
1,note_on,56,0,20
1,note_on,64,56,100
1,note_on,61,0,20
1,note_on,68,57,100
1,note_on,64,0,20
1,note_on,61,52,100
1,note_on,68,0,20
1,note_on,64,53,100
1,note_on,61,0,20
1,note_on,68,56,100
1,note_on,64,0,20
1,note_on,73,57,100
1,note_on,68,0,20
1,note_on,64,52,100
1,note_on,73,0,20
1,note_on,68,53,100
1,note_on,64,0,20
1,note_on,73,56,100
1,note_on,68,0,20
1,note_on,76,56,100
1,note_on,73,0,20
1,note_on,68,52,100
1,note_on,76,0,20
1,note_on,73,56,100
1,note_on,68,0,20
1,note_on,76,57,100
1,note_on,73,0,20
1,note_on,76,0,100
1,note_on,76,94,0
1,note_on,80,94,0
1,note_on,73,79,0
1,note_on,68,79,0
1,note_on,68,0,120
1,note_on,76,0,0
1,note_on,80,0,0
1,note_on,73,0,0
1,note_on,68,67,120
1,note_on,80,79,0
1,note_on,73,67,0
1,note_on,76,79,0
1,note_on,76,0,120
1,note_on,68,0,0
1,note_on,80,0,0
1,note_on,73,0,0
1,note_on,44,48,240
1,note_on,44,0,115
1,note_on,48,50,5
1,note_on,51,51,120
1,note_on,48,0,20
1,note_on,56,52,100
1,note_on,51,0,20
1,note_on,48,48,100
1,note_on,56,0,20
1,note_on,51,49,100
1,note_on,48,0,20
1,note_on,56,51,100
1,note_on,51,0,20
1,note_on,60,53,100
1,note_on,56,0,20
1,note_on,51,47,100
1,note_on,60,0,20
1,note_on,56,49,100
1,note_on,51,0,20
1,note_on,60,51,100
1,note_on,56,0,20
1,note_on,63,51,100
1,note_on,60,0,20
1,note_on,56,48,100
1,note_on,63,0,20
1,note_on,60,51,100
1,note_on,56,0,20
1,note_on,63,52,100
1,note_on,60,0,20
1,note_on,68,53,100
1,note_on,63,0,20
1,note_on,60,48,100
1,note_on,68,0,20
1,note_on,63,49,100
1,note_on,60,0,20
1,note_on,68,51,100
1,note_on,63,0,20
1,note_on,72,51,100
1,note_on,68,0,20
1,note_on,63,48,100
1,note_on,72,0,20
1,note_on,68,50,100
1,note_on,63,0,20
1,note_on,72,51,100
1,note_on,68,0,20
1,note_on,75,52,100
1,note_on,72,0,20
1,note_on,68,51,100
1,note_on,75,0,20
1,note_on,72,52,100
1,note_on,68,0,20
1,note_on,75,56,100
1,note_on,72,0,20
1,note_on,75,0,100
1,note_on,68,79,0
1,note_on,72,79,0
1,note_on,75,94,0
1,note_on,80,94,0
1,note_on,80,0,120
1,note_on,68,0,0
1,note_on,72,0,0
1,note_on,75,0,0
1,note_on,68,66,120
1,note_on,72,66,0
1,note_on,75,78,0
1,note_on,80,78,0
1,note_on,80,0,120
1,note_on,68,0,0
1,note_on,72,0,0
1,note_on,75,0,0
1,note_on,49,63,240
1,note_on,53,66,120
1,note_on,49,0,20
1,note_on,56,63,100
1,note_on,53,0,20
1,note_on,61,68,100
1,note_on,56,0,20
1,note_on,53,62,100
1,note_on,61,0,20
1,note_on,56,63,100
1,note_on,53,0,20
1,note_on,61,62,100
1,note_on,56,0,20
1,note_on,65,68,100
1,note_on,61,0,20
1,note_on,56,62,100
1,note_on,65,0,20
1,note_on,61,63,100
1,note_on,56,0,20
1,note_on,65,65,100
1,note_on,61,0,20
1,note_on,68,68,100
1,note_on,65,0,20
1,note_on,61,62,100
1,note_on,68,0,20
1,note_on,65,65,100
1,note_on,61,0,20
1,note_on,68,62,100
1,note_on,65,0,20
1,note_on,73,68,100
1,note_on,68,0,20
1,note_on,65,61,100
1,note_on,73,0,20
1,note_on,68,62,100
1,note_on,65,0,20
1,note_on,73,62,100
1,note_on,68,0,20
1,note_on,77,68,100
1,note_on,73,0,20
1,note_on,68,63,100
1,note_on,77,0,20
1,note_on,73,66,100
1,note_on,68,0,20
1,note_on,77,65,100
1,note_on,73,0,20
1,note_on,80,69,100
1,note_on,77,0,20
1,note_on,73,63,100
1,note_on,80,0,20
1,note_on,77,68,100
1,note_on,73,0,20
1,note_on,80,68,100
1,note_on,77,0,20
1,note_on,80,0,100
1,note_on,77,87,0
1,note_on,80,103,0
1,note_on,73,87,0
1,note_on,85,103,0
1,note_on,85,0,120
1,note_on,77,0,0
1,note_on,80,0,0
1,note_on,73,0,0
1,note_on,77,77,120
1,note_on,73,77,0
1,note_on,80,90,0
1,note_on,85,90,0
1,note_on,85,0,120
1,note_on,77,0,0
1,note_on,73,0,0
1,note_on,80,0,0
1,note_on,49,61,240
1,note_on,54,63,120
1,note_on,49,0,20
1,note_on,57,62,100
1,note_on,54,0,20
1,note_on,61,69,100
1,note_on,57,0,20
1,note_on,61,0,40
1,note_on,61,72,60
1,note_on,66,76,120
1,note_on,61,0,20
1,note_on,69,76,100
1,note_on,66,0,20
1,note_on,73,79,100
1,note_on,69,0,20
1,note_on,73,0,40
1,note_on,73,83,60
1,note_on,78,84,120
1,note_on,73,0,20
1,note_on,81,80,100
1,note_on,78,0,20
1,note_on,78,102,100
1,note_on,73,86,0
1,note_on,85,102,0
1,note_on,81,0,20
1,note_on,78,0,100
1,note_on,73,0,0
1,note_on,85,0,0
1,note_on,73,85,120
1,note_on,78,101,0
1,note_on,85,101,0
1,note_on,85,0,120
1,note_on,78,0,0
1,note_on,73,0,0
1,note_on,49,75,240
1,note_on,52,77,120
1,note_on,49,0,20
1,note_on,55,75,100
1,note_on,52,0,20
1,note_on,61,80,100
1,note_on,55,0,20
1,note_on,61,0,40
1,note_on,61,76,60
1,note_on,64,79,120
1,note_on,61,0,20
1,note_on,67,77,100
1,note_on,64,0,20
1,note_on,73,81,100
1,note_on,67,0,20
1,note_on,73,0,40
1,note_on,73,79,60
1,note_on,76,80,120
1,note_on,73,0,20
1,note_on,79,80,100
1,note_on,76,0,20
1,note_on,79,0,100
1,note_on,79,108,0
1,note_on,73,90,0
1,note_on,85,108,0
1,note_on,85,0,120
1,note_on,73,0,0
1,note_on,79,0,0
1,note_on,85,108,120
1,note_on,73,90,0
1,note_on,79,108,0
1,note_on,79,0,120
1,note_on,73,0,0
1,note_on,85,0,0
1,note_on,84,108,120
1,note_on,80,108,0
1,note_on,72,90,0
1,note_on,72,0,240
1,note_on,80,0,0
1,note_on,84,0,0
1,note_on,68,74,0
1,note_on,68,0,120
1,note_on,80,58,0
1,note_on,80,0,120
1,note_on,68,75,0
1,note_on,68,0,120
1,note_on,80,60,0
1,note_on,80,0,120
1,note_on,70,76,0
1,note_on,70,0,120
1,note_on,80,60,0
1,note_on,80,0,120
1,note_on,72,76,0
1,note_on,72,0,120
1,note_on,80,61,0
1,note_on,80,0,120
1,note_on,73,78,0
1,note_on,73,0,120
1,note_on,80,62,0
1,note_on,80,0,120
1,note_on,75,79,0
1,note_on,75,0,120
1,note_on,80,62,0
1,note_on,80,0,120
1,note_on,72,79,0
1,note_on,72,0,120
1,note_on,80,62,0
1,note_on,80,0,120
1,note_on,75,80,0
1,note_on,75,0,120
1,note_on,80,62,0
1,note_on,80,0,120
1,note_on,73,80,0
1,note_on,73,0,120
1,note_on,80,62,0
1,note_on,80,0,120
1,note_on,78,84,0
1,note_on,78,0,120
1,note_on,80,62,0
1,note_on,80,0,120
1,note_on,76,80,0
1,note_on,76,0,120
1,note_on,80,62,0
1,note_on,80,0,120
1,note_on,75,80,0
1,note_on,75,0,120
1,note_on,80,62,0
1,note_on,80,0,120
1,note_on,73,79,0
1,note_on,73,0,120
1,note_on,80,62,0
1,note_on,80,0,120
1,note_on,72,79,0
1,note_on,72,0,120
1,note_on,80,62,0
1,note_on,80,0,120
1,note_on,69,77,0
1,note_on,69,0,120
1,note_on,79,61,0
1,note_on,79,0,120
1,note_on,68,76,0
1,note_on,68,0,120
1,note_on,80,60,0
1,note_on,80,0,120
1,note_on,68,75,0
1,note_on,68,0,120
1,note_on,80,59,0
1,note_on,80,0,120
1,note_on,68,74,0
1,note_on,68,0,120
1,note_on,80,59,0
1,note_on,80,0,120
1,note_on,70,74,0
1,note_on,70,0,120
1,note_on,80,61,0
1,note_on,80,0,120
1,note_on,72,76,0
1,note_on,72,0,120
1,note_on,80,59,0
1,note_on,80,0,120
1,note_on,73,76,0
1,note_on,73,0,120
1,note_on,80,62,0
1,note_on,80,0,120
1,note_on,75,77,0
1,note_on,75,0,120
1,note_on,80,61,0
1,note_on,80,0,120
1,note_on,72,79,0
1,note_on,72,0,120
1,note_on,80,62,0
1,note_on,80,0,120
1,note_on,75,79,0
1,note_on,75,0,120
1,note_on,80,62,0
1,note_on,80,0,120
1,note_on,73,80,0
1,note_on,73,0,120
1,note_on,80,65,0
1,note_on,80,0,120
1,note_on,78,84,0
1,note_on,78,0,120
1,note_on,80,68,0
1,note_on,80,0,120
1,note_on,76,84,0
1,note_on,76,0,120
1,note_on,80,67,0
1,note_on,80,0,120
1,note_on,75,84,0
1,note_on,75,0,120
1,note_on,80,67,0
1,note_on,80,0,120
1,note_on,73,84,0
1,note_on,73,0,120
1,note_on,80,66,0
1,note_on,80,0,120
1,note_on,72,84,0
1,note_on,72,0,120
1,note_on,80,67,0
1,note_on,80,0,120
1,note_on,69,84,0
1,note_on,69,0,120
1,note_on,79,66,0
1,note_on,79,0,120
1,note_on,68,84,0
1,note_on,68,0,120
1,note_on,80,66,0
1,note_on,80,0,120
1,note_on,69,79,0
1,note_on,69,0,120
1,note_on,79,67,0
1,note_on,79,0,120
1,note_on,68,84,0
1,note_on,68,0,120
1,note_on,80,66,0
1,note_on,80,0,120
1,note_on,69,79,0
1,note_on,69,0,120
1,note_on,79,67,0
1,note_on,79,0,120
1,note_on,68,84,0
1,note_on,68,0,120
1,note_on,80,66,0
1,note_on,80,0,120
1,note_on,69,79,0
1,note_on,69,0,120
1,note_on,79,65,0
1,note_on,79,0,120
1,note_on,68,84,0
1,note_on,68,0,120
1,note_on,80,66,0
1,note_on,80,0,120
1,note_on,69,79,0
1,note_on,69,0,120
1,note_on,79,65,0
1,note_on,79,0,120
1,note_on,68,84,0
1,note_on,80,84,0
1,note_on,80,0,240
1,note_on,68,0,0
1,note_on,56,113,240
1,note_on,56,0,1440
1,note_on,44,47,120
1,note_on,44,0,115
1,note_on,49,49,5
1,note_on,52,51,120
1,note_on,49,0,20
1,note_on,56,52,100
1,note_on,52,0,20
1,note_on,49,47,100
1,note_on,56,0,20
1,note_on,52,49,100
1,note_on,49,0,20
1,note_on,56,51,100
1,note_on,52,0,20
1,note_on,61,52,100
1,note_on,56,0,20
1,note_on,52,47,100
1,note_on,61,0,20
1,note_on,56,49,100
1,note_on,52,0,20
1,note_on,61,51,100
1,note_on,56,0,20
1,note_on,64,52,100
1,note_on,61,0,20
1,note_on,56,48,100
1,note_on,64,0,20
1,note_on,61,50,100
1,note_on,56,0,20
1,note_on,64,51,100
1,note_on,61,0,20
1,note_on,68,52,100
1,note_on,64,0,20
1,note_on,61,47,100
1,note_on,68,0,20
1,note_on,64,47,100
1,note_on,61,0,20
1,note_on,68,50,100
1,note_on,64,0,20
1,note_on,73,52,100
1,note_on,68,0,20
1,note_on,64,47,100
1,note_on,73,0,20
1,note_on,68,50,100
1,note_on,64,0,20
1,note_on,73,51,100
1,note_on,68,0,20
1,note_on,76,54,100
1,note_on,73,0,20
1,note_on,76,0,95
1,note_on,76,51,5
1,note_on,80,51,120
1,note_on,76,0,20
1,note_on,85,53,100
1,note_on,80,0,20
1,note_on,85,0,100
1,note_on,76,95,0
1,note_on,88,112,0
1,note_on,88,0,120
1,note_on,76,0,0
1,note_on,76,74,120
1,note_on,88,88,0
1,note_on,88,0,120
1,note_on,76,0,0
1,note_on,52,46,240
1,note_on,55,48,120
1,note_on,52,0,20
1,note_on,61,50,100
1,note_on,55,0,20
1,note_on,64,51,100
1,note_on,61,0,20
1,note_on,55,47,100
1,note_on,64,0,20
1,note_on,61,49,100
1,note_on,55,0,20
1,note_on,64,51,100
1,note_on,61,0,20
1,note_on,67,51,100
1,note_on,64,0,20
1,note_on,61,50,100
1,note_on,67,0,20
1,note_on,64,49,100
1,note_on,61,0,20
1,note_on,67,51,100
1,note_on,64,0,20
1,note_on,73,52,100
1,note_on,67,0,20
1,note_on,64,47,100
1,note_on,73,0,20
1,note_on,67,49,100
1,note_on,64,0,20
1,note_on,73,51,100
1,note_on,67,0,20
1,note_on,76,52,100
1,note_on,73,0,20
1,note_on,67,48,100
1,note_on,76,0,20
1,note_on,73,48,100
1,note_on,67,0,20
1,note_on,76,50,100
1,note_on,73,0,20
1,note_on,79,52,100
1,note_on,76,0,20
1,note_on,73,47,100
1,note_on,79,0,20
1,note_on,76,50,100
1,note_on,73,0,20
1,note_on,79,51,100
1,note_on,76,0,20
1,note_on,85,54,100
1,note_on,79,0,20
1,note_on,76,51,100
1,note_on,85,0,20
1,note_on,79,54,100
1,note_on,76,0,20
1,note_on,85,57,100
1,note_on,79,0,20
1,note_on,85,0,100
1,note_on,88,110,0
1,note_on,76,93,0
1,note_on,76,0,120
1,note_on,88,0,0
1,note_on,76,73,120
1,note_on,88,87,0
1,note_on,88,0,120
1,note_on,76,0,0
1,note_on,51,50,240
1,note_on,51,0,115
1,note_on,58,51,5
1,note_on,61,51,120
1,note_on,58,0,20
1,note_on,63,51,100
1,note_on,61,0,20
1,note_on,58,52,100
1,note_on,63,0,20
1,note_on,61,53,100
1,note_on,58,0,20
1,note_on,63,54,100
1,note_on,61,0,20
1,note_on,70,56,100
1,note_on,63,0,20
1,note_on,61,56,100
1,note_on,70,0,20
1,note_on,63,57,100
1,note_on,61,0,20
1,note_on,70,57,100
1,note_on,63,0,20
1,note_on,73,58,100
1,note_on,70,0,20
1,note_on,63,59,100
1,note_on,73,0,20
1,note_on,70,60,100
1,note_on,63,0,20
1,note_on,73,61,100
1,note_on,70,0,20
1,note_on,75,62,100
1,note_on,73,0,20
1,note_on,70,62,100
1,note_on,75,0,20
1,note_on,73,62,100
1,note_on,70,0,20
1,note_on,75,62,100
1,note_on,73,0,20
1,note_on,82,63,100
1,note_on,75,0,20
1,note_on,73,65,100
1,note_on,82,0,20
1,note_on,75,66,100
1,note_on,73,0,20
1,note_on,82,67,100
1,note_on,75,0,20
1,note_on,85,67,100
1,note_on,82,0,20
1,note_on,82,65,100
1,note_on,85,0,20
1,note_on,75,62,100
1,note_on,82,0,20
1,note_on,73,61,100
1,note_on,75,0,20
1,note_on,82,59,100
1,note_on,73,0,20
1,note_on,75,57,100
1,note_on,82,0,20
1,note_on,73,56,100
1,note_on,75,0,20
1,note_on,70,52,100
1,note_on,73,0,20
1,note_on,71,49,100
1,note_on,70,0,20
1,note_on,71,0,220
1,note_on,75,61,240
1,note_on,71,56,960
1,note_on,75,0,20
1,note_on,71,0,340
1,note_on,68,56,0
1,note_on,68,0,60
1,note_on,67,44,0
1,note_on,67,0,20
1,note_on,68,44,0
1,note_on,68,0,20
1,note_on,70,44,0
1,note_on,70,0,20
1,note_on,68,63,0
1,note_on,67,56,480
1,note_on,68,0,20
1,note_on,67,0,700
1,note_on,67,56,0
1,note_on,75,68,240
1,note_on,67,0,20
1,note_on,75,0,340
1,note_on,67,57,0
1,note_on,67,0,120
1,note_on,70,51,0
1,note_on,68,56,480
1,note_on,70,0,20
1,note_on,68,0,700
1,note_on,68,53,0
1,note_on,75,68,240
1,note_on,68,0,20
1,note_on,75,0,340
1,note_on,68,56,0
1,note_on,68,0,120
1,note_on,71,57,0
1,note_on,70,56,480
1,note_on,71,0,20
1,note_on,70,0,700
1,note_on,70,57,0
1,note_on,75,53,240
1,note_on,70,0,20
1,note_on,75,0,340
1,note_on,70,57,0
1,note_on,70,0,120
1,note_on,71,59,0
1,note_on,71,0,240
1,note_on,87,59,0
1,note_on,75,49,0
1,note_on,75,0,480
1,note_on,87,0,0
1,note_on,75,49,0
1,note_on,87,58,0
1,note_on,87,0,480
1,note_on,75,0,0
1,note_on,75,47,0
1,note_on,87,56,0
1,note_on,87,0,120
1,note_on,75,0,0
1,note_on,71,49,120
1,note_on,83,58,0
1,note_on,83,0,120
1,note_on,71,0,0
1,note_on,80,59,120
1,note_on,68,49,0
1,note_on,68,0,120
1,note_on,80,0,0
1,note_on,68,51,120
1,note_on,80,61,0
1,note_on,80,0,120
1,note_on,68,0,0
1,note_on,67,52,120
1,note_on,79,62,0
1,note_on,79,0,480
1,note_on,67,0,0
1,note_on,79,68,0
1,note_on,67,57,0
1,note_on,67,0,480
1,note_on,79,0,0
1,note_on,79,69,0
1,note_on,67,58,0
1,note_on,67,0,120
1,note_on,79,0,0
1,note_on,75,60,120
1,note_on,87,71,0
1,note_on,87,0,120
1,note_on,75,0,0
1,note_on,67,61,120
1,note_on,79,73,0
1,note_on,79,0,120
1,note_on,67,0,0
1,note_on,82,74,120
1,note_on,70,62,0
1,note_on,70,0,120
1,note_on,82,0,0
1,note_on,68,63,120
1,note_on,80,75,0
1,note_on,80,0,480
1,note_on,68,0,0
1,note_on,68,68,0
1,note_on,80,80,0
1,note_on,80,0,480
1,note_on,68,0,0
1,note_on,80,82,0
1,note_on,68,69,0
1,note_on,68,0,120
1,note_on,80,0,0
1,note_on,87,85,120
1,note_on,75,72,0
1,note_on,75,0,120
1,note_on,87,0,0
1,note_on,68,73,120
1,note_on,80,86,0
1,note_on,80,0,120
1,note_on,68,0,0
1,note_on,71,73,120
1,note_on,83,86,0
1,note_on,83,0,120
1,note_on,71,0,0
1,note_on,70,74,120
1,note_on,82,89,0
1,note_on,82,0,480
1,note_on,70,0,0
1,note_on,70,79,0
1,note_on,82,93,0
1,note_on,82,0,480
1,note_on,70,0,0
1,note_on,70,79,0
1,note_on,82,93,0
1,note_on,82,0,120
1,note_on,70,0,0
1,note_on,87,93,120
1,note_on,75,93,0
1,note_on,75,0,120
1,note_on,87,0,0
1,note_on,82,93,120
1,note_on,70,79,0
1,note_on,70,0,120
1,note_on,82,0,0
1,note_on,72,80,120
1,note_on,84,95,0
1,note_on,84,0,960
1,note_on,72,0,0
1,note_on,73,80,0
1,note_on,85,95,0
1,note_on,85,0,960
1,note_on,73,0,0
1,note_on,70,68,0
1,note_on,82,80,0
1,note_on,82,0,65
1,note_on,83,75,0
1,note_on,83,0,64
1,note_on,82,80,0
1,note_on,82,0,65
1,note_on,83,80,0
1,note_on,83,0,64
1,note_on,82,80,17
1,note_on,80,75,72
1,note_on,82,0,6
1,note_on,82,75,60
1,note_on,80,0,11
1,note_on,82,0,56
1,note_on,70,0,0
1,note_on,71,80,0
1,note_on,83,95,0
1,note_on,83,0,1440
1,note_on,71,0,0
1,note_on,80,95,0
1,note_on,68,80,0
1,note_on,68,0,960
1,note_on,80,0,0
1,note_on,69,80,0
1,note_on,81,94,0
1,note_on,81,0,960
1,note_on,69,0,0
1,note_on,67,68,0
1,note_on,79,80,0
1,note_on,79,0,65
1,note_on,80,75,0
1,note_on,79,80,64
1,note_on,80,0,1
1,note_on,79,0,64
1,note_on,80,80,0
1,note_on,80,0,65
1,note_on,79,80,16
1,note_on,77,75,72
1,note_on,79,0,6
1,note_on,79,75,60
1,note_on,77,0,12
1,note_on,79,0,55
1,note_on,67,0,0
1,note_on,80,95,0
1,note_on,68,80,0
1,note_on,68,0,1440
1,note_on,80,0,0
1,note_on,76,100,0
1,note_on,69,83,0
1,note_on,73,100,0
1,note_on,81,100,0
1,note_on,81,0,1080
1,note_on,76,0,0
1,note_on,69,0,0
1,note_on,73,0,0
1,note_on,76,48,0
1,note_on,76,0,120
1,note_on,78,49,0
1,note_on,78,0,120
1,note_on,80,51,0
1,note_on,80,0,120
1,note_on,81,51,0
1,note_on,81,0,120
1,note_on,83,52,0
1,note_on,83,0,120
1,note_on,85,53,0
1,note_on,85,0,120
1,note_on,83,51,0
1,note_on,83,0,120
1,note_on,81,49,0
1,note_on,81,0,120
1,note_on,76,47,0
1,note_on,76,0,120
1,note_on,78,48,0
1,note_on,78,0,120
1,note_on,80,48,0
1,note_on,80,0,120
1,note_on,81,49,0
1,note_on,81,0,120
1,note_on,83,50,0
1,note_on,83,0,120
1,note_on,85,51,0
1,note_on,85,0,120
1,note_on,83,50,0
1,note_on,83,0,120
1,note_on,81,48,0
1,note_on,81,0,120
1,note_on,76,49,0
1,note_on,76,0,120
1,note_on,78,50,0
1,note_on,78,0,120
1,note_on,80,50,0
1,note_on,80,0,120
1,note_on,81,51,0
1,note_on,81,0,120
1,note_on,83,51,0
1,note_on,83,0,120
1,note_on,85,51,0
1,note_on,85,0,120
1,note_on,83,49,0
1,note_on,83,0,120
1,note_on,81,47,0
1,note_on,81,0,120
1,note_on,76,48,0
1,note_on,76,0,120
1,note_on,78,51,0
1,note_on,78,0,120
1,note_on,80,51,0
1,note_on,80,0,120
1,note_on,81,54,0
1,note_on,81,0,120
1,note_on,83,56,0
1,note_on,83,0,120
1,note_on,85,57,0
1,note_on,85,0,120
1,note_on,86,60,0
1,note_on,86,0,120
1,note_on,88,61,0
1,note_on,88,0,120
1,note_on,87,59,0
1,note_on,87,0,120
1,note_on,88,57,0
1,note_on,88,0,120
1,note_on,87,56,0
1,note_on,87,0,120
1,note_on,88,54,0
1,note_on,88,0,120
1,note_on,85,52,0
1,note_on,85,0,120
1,note_on,83,51,0
1,note_on,83,0,120
1,note_on,81,50,0
1,note_on,81,0,120
1,note_on,80,48,0
1,note_on,80,0,960
1,note_on,82,50,0
1,note_on,82,0,80
1,note_on,83,50,0
1,note_on,83,0,80
1,note_on,82,50,0
1,note_on,82,0,75
1,note_on,83,50,0
1,note_on,83,0,75
1,note_on,82,50,0
1,note_on,82,0,75
1,note_on,83,50,0
1,note_on,83,0,75
1,note_on,82,50,0
1,note_on,82,0,70
1,note_on,83,48,0
1,note_on,83,0,70
1,note_on,82,49,0
1,note_on,82,0,60
1,note_on,83,50,0
1,note_on,83,0,60
1,note_on,82,51,0
1,note_on,82,0,60
1,note_on,83,51,0
1,note_on,83,0,60
1,note_on,82,51,0
1,note_on,82,0,60
1,note_on,83,52,0
1,note_on,83,0,60
1,note_on,80,56,0
1,note_on,80,0,240
1,note_on,57,73,240
1,note_on,61,73,0
1,note_on,69,87,0
1,note_on,64,87,0
1,note_on,64,0,600
1,note_on,57,0,0
1,note_on,61,0,0
1,note_on,69,0,0
1,note_on,64,48,0
1,note_on,64,0,120
1,note_on,66,49,0
1,note_on,66,0,120
1,note_on,68,50,0
1,note_on,68,0,120
1,note_on,69,51,0
1,note_on,69,0,120
1,note_on,71,51,0
1,note_on,71,0,120
1,note_on,73,52,0
1,note_on,73,0,120
1,note_on,71,51,0
1,note_on,71,0,120
1,note_on,69,48,0
1,note_on,69,0,120
1,note_on,64,48,0
1,note_on,64,0,120
1,note_on,66,48,0
1,note_on,66,0,120
1,note_on,68,49,0
1,note_on,68,0,120
1,note_on,69,50,0
1,note_on,69,0,120
1,note_on,71,50,0
1,note_on,71,0,120
1,note_on,73,51,0
1,note_on,73,0,120
1,note_on,71,51,0
1,note_on,71,0,120
1,note_on,69,48,0
1,note_on,69,0,120
1,note_on,64,48,0
1,note_on,64,0,120
1,note_on,66,48,0
1,note_on,66,0,120
1,note_on,68,50,0
1,note_on,68,0,120
1,note_on,69,51,0
1,note_on,69,0,120
1,note_on,71,51,0
1,note_on,71,0,120
1,note_on,73,51,0
1,note_on,73,0,120
1,note_on,71,50,0
1,note_on,71,0,120
1,note_on,69,49,0
1,note_on,69,0,120
1,note_on,64,50,0
1,note_on,64,0,120
1,note_on,66,51,0
1,note_on,66,0,120
1,note_on,68,51,0
1,note_on,68,0,120
1,note_on,69,52,0
1,note_on,69,0,120
1,note_on,71,53,0
1,note_on,71,0,120
1,note_on,73,56,0
1,note_on,73,0,120
1,note_on,71,56,0
1,note_on,71,0,120
1,note_on,69,57,0
1,note_on,69,0,120
1,note_on,64,58,0
1,note_on,64,0,120
1,note_on,66,59,0
1,note_on,66,0,120
1,note_on,68,60,0
1,note_on,68,0,120
1,note_on,69,62,0
1,note_on,69,0,120
1,note_on,71,62,0
1,note_on,71,0,120
1,note_on,73,62,0
1,note_on,73,0,120
1,note_on,71,63,0
1,note_on,71,0,120
1,note_on,69,66,0
1,note_on,69,0,120
1,note_on,64,67,0
1,note_on,64,0,120
1,note_on,66,68,0
1,note_on,66,0,120
1,note_on,68,68,0
1,note_on,68,0,120
1,note_on,69,70,0
1,note_on,69,0,120
1,note_on,71,71,0
1,note_on,71,0,120
1,note_on,73,72,0
1,note_on,73,0,120
1,note_on,74,73,0
1,note_on,74,0,120
1,note_on,76,74,0
1,note_on,76,0,120
1,note_on,78,75,0
1,note_on,78,0,120
1,note_on,80,76,0
1,note_on,80,0,120
1,note_on,81,77,0
1,note_on,81,0,120
1,note_on,83,79,0
1,note_on,83,0,120
1,note_on,85,79,0
1,note_on,85,0,120
1,note_on,86,79,0
1,note_on,86,0,120
1,note_on,87,80,0
1,note_on,87,0,120
1,note_on,88,84,0
1,note_on,76,71,0
1,note_on,76,0,960
1,note_on,88,0,0
1,note_on,68,71,0
1,note_on,80,84,0
1,note_on,80,0,960
1,note_on,68,0,0
1,note_on,71,71,0
1,note_on,83,84,0
1,note_on,83,0,960
1,note_on,71,0,0
1,note_on,61,71,0
1,note_on,55,60,0
1,note_on,67,84,0
1,note_on,67,0,960
1,note_on,55,0,0
1,note_on,61,0,0
1,note_on,63,71,0
1,note_on,59,71,0
1,note_on,68,84,0
1,note_on,68,0,240
1,note_on,59,0,0
1,note_on,63,0,0
1,note_on,71,51,0
1,note_on,63,51,0
1,note_on,63,0,120
1,note_on,71,0,0
1,note_on,71,51,120
1,note_on,63,51,0
1,note_on,63,0,120
1,note_on,71,0,0
1,note_on,63,51,120
1,note_on,71,51,0
1,note_on,71,0,120
1,note_on,63,0,0
1,note_on,71,51,120
1,note_on,63,51,0
1,note_on,63,0,120
1,note_on,71,0,0
1,note_on,71,51,120
1,note_on,63,51,0
1,note_on,63,0,120
1,note_on,71,0,0
1,note_on,63,49,120
1,note_on,70,49,0
1,note_on,70,0,120
1,note_on,63,0,0
1,note_on,68,47,120
1,note_on,63,47,0
1,note_on,63,0,120
1,note_on,68,0,0
1,note_on,63,59,120
1,note_on,67,59,0
1,note_on,67,0,240
1,note_on,63,0,0
1,note_on,67,49,0
1,note_on,75,49,0
1,note_on,75,0,120
1,note_on,67,0,0
1,note_on,67,49,120
1,note_on,75,49,0
1,note_on,75,0,120
1,note_on,67,0,0
1,note_on,75,50,120
1,note_on,67,50,0
1,note_on,67,0,120
1,note_on,75,0,0
1,note_on,67,51,120
1,note_on,75,51,0
1,note_on,75,0,120
1,note_on,67,0,0
1,note_on,67,51,120
1,note_on,75,51,0
1,note_on,75,0,120
1,note_on,67,0,0
1,note_on,75,51,120
1,note_on,68,51,0
1,note_on,68,0,120
1,note_on,75,0,0
1,note_on,70,53,120
1,note_on,75,53,0
1,note_on,75,0,120
1,note_on,70,0,0
1,note_on,71,58,120
1,note_on,75,58,0
1,note_on,75,0,240
1,note_on,71,0,0
1,note_on,71,50,0
1,note_on,63,50,0
1,note_on,63,0,120
1,note_on,71,0,0
1,note_on,63,50,120
1,note_on,71,50,0
1,note_on,71,0,120
1,note_on,63,0,0
1,note_on,71,50,120
1,note_on,63,50,0
1,note_on,63,0,120
1,note_on,71,0,0
1,note_on,71,50,120
1,note_on,63,50,0
1,note_on,63,0,120
1,note_on,71,0,0
1,note_on,63,50,120
1,note_on,71,50,0
1,note_on,71,0,120
1,note_on,63,0,0
1,note_on,63,48,120
1,note_on,70,48,0
1,note_on,70,0,120
1,note_on,63,0,0
1,note_on,68,47,120
1,note_on,63,47,0
1,note_on,63,0,120
1,note_on,68,0,0
1,note_on,63,58,120
1,note_on,67,58,0
1,note_on,67,0,240
1,note_on,63,0,0
1,note_on,75,49,0
1,note_on,67,49,0
1,note_on,67,0,120
1,note_on,75,0,0
1,note_on,75,49,120
1,note_on,67,49,0
1,note_on,67,0,120
1,note_on,75,0,0
1,note_on,67,51,120
1,note_on,75,51,0
1,note_on,75,0,120
1,note_on,67,0,0
1,note_on,67,49,120
1,note_on,75,49,0
1,note_on,75,0,120
1,note_on,67,0,0
1,note_on,67,49,120
1,note_on,75,49,0
1,note_on,75,0,120
1,note_on,67,0,0
1,note_on,68,51,120
1,note_on,75,51,0
1,note_on,75,0,120
1,note_on,68,0,0
1,note_on,75,51,120
1,note_on,70,51,0
1,note_on,70,0,120
1,note_on,75,0,0
1,note_on,75,56,120
1,note_on,71,56,0
1,note_on,71,0,120
1,note_on,75,0,0
1,note_on,71,50,120
1,note_on,75,50,0
1,note_on,75,0,120
1,note_on,71,0,0
1,note_on,71,50,120
1,note_on,75,50,0
1,note_on,75,0,240
1,note_on,71,0,0
1,note_on,71,49,0
1,note_on,68,49,0
1,note_on,68,0,240
1,note_on,71,0,0
1,note_on,73,50,240
1,note_on,76,50,0
1,note_on,76,0,120
1,note_on,73,0,0
1,note_on,76,50,120
1,note_on,73,50,0
1,note_on,73,0,240
1,note_on,76,0,0
1,note_on,73,49,0
1,note_on,68,49,0
1,note_on,68,0,240
1,note_on,73,0,0
1,note_on,75,47,240
1,note_on,71,47,0
1,note_on,71,0,120
1,note_on,75,0,0
1,note_on,75,47,120
1,note_on,71,47,0
1,note_on,71,0,240
1,note_on,75,0,0
1,note_on,68,49,0
1,note_on,71,49,0
1,note_on,71,0,240
1,note_on,68,0,0
1,note_on,75,49,240
1,note_on,70,49,0
1,note_on,70,0,120
1,note_on,75,0,0
1,note_on,75,47,120
1,note_on,70,47,0
1,note_on,70,0,240
1,note_on,75,0,0
1,note_on,67,47,0
1,note_on,70,47,0
1,note_on,70,0,240
1,note_on,67,0,0
1,note_on,68,49,0
1,note_on,71,49,0
1,note_on,71,0,240
1,note_on,68,0,0
1,note_on,75,51,0
1,note_on,83,51,0
1,note_on,71,43,0
1,note_on,71,0,120
1,note_on,83,0,0
1,note_on,75,0,0
1,note_on,83,56,120
1,note_on,75,56,0
1,note_on,71,47,0
1,note_on,71,0,120
1,note_on,75,0,0
1,note_on,83,0,0
1,note_on,83,58,120
1,note_on,71,49,0
1,note_on,75,58,0
1,note_on,75,0,120
1,note_on,71,0,0
1,note_on,83,0,0
1,note_on,71,52,120
1,note_on,75,62,0
1,note_on,83,62,0
1,note_on,83,0,120
1,note_on,75,0,0
1,note_on,71,0,0
1,note_on,83,66,120
1,note_on,75,66,0
1,note_on,71,56,0
1,note_on,71,0,120
1,note_on,75,0,0
1,note_on,83,0,0
1,note_on,73,68,120
1,note_on,70,57,0
1,note_on,82,68,0
1,note_on,82,0,120
1,note_on,70,0,0
1,note_on,73,0,0
1,note_on,80,72,120
1,note_on,68,61,0
1,note_on,71,72,0
1,note_on,71,0,120
1,note_on,68,0,0
1,note_on,80,0,0
1,note_on,79,75,120
1,note_on,67,63,0
1,note_on,70,75,0
1,note_on,70,0,240
1,note_on,67,0,0
1,note_on,79,0,0
1,note_on,76,64,0
1,note_on,88,76,0
1,note_on,79,76,0
1,note_on,79,0,120
1,note_on,88,0,0
1,note_on,76,0,0
1,note_on,79,82,120
1,note_on,76,69,0
1,note_on,88,82,0
1,note_on,88,0,120
1,note_on,76,0,0
1,note_on,79,0,0
1,note_on,79,79,120
1,note_on,88,79,0
1,note_on,76,67,0
1,note_on,76,0,120
1,note_on,88,0,0
1,note_on,79,0,0
1,note_on,88,82,120
1,note_on,76,69,0
1,note_on,79,82,0
1,note_on,79,0,120
1,note_on,76,0,0
1,note_on,88,0,0
1,note_on,79,79,120
1,note_on,76,67,0
1,note_on,88,79,0
1,note_on,88,0,120
1,note_on,76,0,0
1,note_on,79,0,0
1,note_on,79,81,120
1,note_on,75,68,0
1,note_on,87,81,0
1,note_on,87,0,120
1,note_on,75,0,0
1,note_on,79,0,0
1,note_on,79,79,120
1,note_on,85,79,0
1,note_on,73,67,0
1,note_on,73,0,120
1,note_on,85,0,0
1,note_on,79,0,0
1,note_on,83,82,120
1,note_on,80,82,0
1,note_on,71,69,0
1,note_on,71,0,240
1,note_on,80,0,0
1,note_on,71,41,0
1,note_on,83,49,0
1,note_on,75,49,0
1,note_on,83,0,9
1,note_on,71,0,111
1,note_on,83,0,0
1,note_on,75,0,0
1,note_on,83,52,120
1,note_on,71,44,0
1,note_on,75,52,0
1,note_on,75,0,120
1,note_on,71,0,0
1,note_on,83,0,0
1,note_on,71,48,120
1,note_on,83,57,0
1,note_on,75,57,0
1,note_on,75,0,120
1,note_on,83,0,0
1,note_on,71,0,0
1,note_on,71,51,120
1,note_on,75,61,0
1,note_on,83,61,0
1,note_on,83,0,120
1,note_on,75,0,0
1,note_on,71,0,0
1,note_on,75,66,120
1,note_on,83,66,0
1,note_on,71,56,0
1,note_on,71,0,120
1,note_on,83,0,0
1,note_on,75,0,0
1,note_on,82,69,120
1,note_on,70,58,0
1,note_on,73,69,0
1,note_on,73,0,120
1,note_on,70,0,0
1,note_on,82,0,0
1,note_on,80,73,120
1,note_on,68,62,0
1,note_on,71,73,0
1,note_on,71,0,120
1,note_on,68,0,0
1,note_on,80,0,0
1,note_on,70,78,120
1,note_on,67,66,0
1,note_on,79,78,0
1,note_on,79,0,240
1,note_on,67,0,0
1,note_on,70,0,0
1,note_on,88,78,0
1,note_on,79,78,0
1,note_on,76,66,0
1,note_on,76,0,120
1,note_on,79,0,0
1,note_on,88,0,0
1,note_on,88,82,120
1,note_on,76,69,0
1,note_on,79,82,0
1,note_on,79,0,120
1,note_on,76,0,0
1,note_on,88,0,0
1,note_on,76,66,120
1,note_on,88,78,0
1,note_on,79,78,0
1,note_on,79,0,120
1,note_on,88,0,0
1,note_on,76,0,0
1,note_on,79,82,120
1,note_on,76,69,0
1,note_on,88,82,0
1,note_on,88,0,120
1,note_on,76,0,0
1,note_on,79,0,0
1,note_on,79,79,120
1,note_on,76,67,0
1,note_on,88,79,0
1,note_on,88,0,120
1,note_on,76,0,0
1,note_on,79,0,0
1,note_on,75,68,120
1,note_on,79,80,0
1,note_on,87,80,0
1,note_on,87,0,120
1,note_on,79,0,0
1,note_on,75,0,0
1,note_on,79,79,120
1,note_on,73,67,0
1,note_on,85,79,0
1,note_on,85,0,120
1,note_on,73,0,0
1,note_on,79,0,0
1,note_on,83,82,120
1,note_on,80,82,0
1,note_on,71,69,0
1,note_on,71,0,240
1,note_on,80,0,0
1,note_on,83,0,0
1,note_on,83,50,0
1,note_on,80,50,0
1,note_on,80,0,120
1,note_on,83,0,0
1,note_on,83,50,120
1,note_on,80,50,0
1,note_on,80,0,240
1,note_on,83,0,0
1,note_on,83,48,0
1,note_on,87,48,0
1,note_on,87,0,240
1,note_on,83,0,0
1,note_on,85,49,240
1,note_on,80,49,0
1,note_on,80,0,120
1,note_on,85,0,0
1,note_on,85,49,120
1,note_on,80,49,0
1,note_on,80,0,240
1,note_on,85,0,0
1,note_on,88,47,0
1,note_on,85,47,0
1,note_on,85,0,240
1,note_on,88,0,0
1,note_on,83,49,240
1,note_on,80,49,0
1,note_on,80,0,120
1,note_on,83,0,0
1,note_on,80,49,120
1,note_on,83,49,0
1,note_on,83,0,240
1,note_on,80,0,0
1,note_on,87,47,0
1,note_on,83,47,0
1,note_on,83,0,240
1,note_on,87,0,0
1,note_on,82,51,240
1,note_on,79,51,0
1,note_on,79,0,120
1,note_on,82,0,0
1,note_on,82,51,120
1,note_on,79,51,0
1,note_on,79,0,240
1,note_on,82,0,0
1,note_on,87,47,0
1,note_on,82,47,0
1,note_on,82,0,240
1,note_on,87,0,0
1,note_on,83,56,240
1,note_on,75,56,0
1,note_on,75,0,120
1,note_on,83,0,0
1,note_on,75,51,120
1,note_on,83,51,0
1,note_on,83,0,240
1,note_on,75,0,0
1,note_on,87,51,0
1,note_on,80,51,0
1,note_on,80,0,240
1,note_on,87,0,0
1,note_on,81,62,240
1,note_on,73,62,0
1,note_on,73,0,120
1,note_on,81,0,0
1,note_on,81,56,120
1,note_on,73,56,0
1,note_on,73,0,240
1,note_on,81,0,0
1,note_on,76,56,0
1,note_on,85,56,0
1,note_on,85,0,240
1,note_on,76,0,0
1,note_on,80,57,240
1,note_on,71,57,0
1,note_on,71,0,120
1,note_on,80,0,0
1,note_on,71,57,120
1,note_on,80,57,0
1,note_on,80,0,240
1,note_on,71,0,0
1,note_on,75,51,0
1,note_on,83,51,0
1,note_on,83,0,240
1,note_on,75,0,0
1,note_on,70,52,240
1,note_on,79,52,0
1,note_on,79,0,120
1,note_on,70,0,0
1,note_on,70,51,120
1,note_on,79,51,0
1,note_on,79,0,240
1,note_on,70,0,0
1,note_on,73,42,0
1,note_on,82,42,0
1,note_on,82,0,240
1,note_on,73,0,0
1,note_on,80,50,0
1,note_on,71,50,0
1,note_on,71,0,480
1,note_on,80,0,0
1,note_on,71,50,960
1,note_on,71,0,360
1,note_on,68,50,0
1,note_on,68,0,120
1,note_on,67,57,0
1,note_on,67,0,480
1,note_on,61,39,0
1,note_on,67,47,0
1,note_on,75,47,0
1,note_on,75,0,360
1,note_on,67,0,0
1,note_on,61,0,0
1,note_on,75,47,120
1,note_on,61,39,0
1,note_on,67,47,0
1,note_on,67,0,360
1,note_on,61,0,0
1,note_on,75,0,0
1,note_on,67,50,120
1,note_on,75,50,0
1,note_on,61,42,0
1,note_on,61,0,360
1,note_on,75,0,0
1,note_on,67,0,0
1,note_on,59,50,0
1,note_on,68,50,60
1,note_on,59,0,20
1,note_on,75,57,40
1,note_on,68,0,20
1,note_on,75,0,1420
1,note_on,83,58,0
1,note_on,83,0,360
1,note_on,80,58,0
1,note_on,80,0,120
1,note_on,79,67,0
1,note_on,79,0,480
1,note_on,79,57,0
1,note_on,87,57,0
1,note_on,73,48,0
1,note_on,73,0,360
1,note_on,87,0,0
1,note_on,79,0,0
1,note_on,73,48,120
1,note_on,87,57,0
1,note_on,79,57,0
1,note_on,79,0,360
1,note_on,87,0,0
1,note_on,73,0,0
1,note_on,87,57,120
1,note_on,79,57,0
1,note_on,73,48,0
1,note_on,73,0,360
1,note_on,79,0,0
1,note_on,87,0,0
1,note_on,71,47,0
1,note_on,80,52,60
1,note_on,71,0,20
1,note_on,87,73,40
1,note_on,80,0,20
1,note_on,87,0,820
1,note_on,73,43,0
1,note_on,79,51,60
1,note_on,73,0,20
1,note_on,87,72,40
1,note_on,79,0,20
1,note_on,87,0,820
1,note_on,71,40,0
1,note_on,80,50,60
1,note_on,71,0,20
1,note_on,87,72,40
1,note_on,80,0,20
1,note_on,87,0,820
1,note_on,73,45,0
1,note_on,79,52,60
1,note_on,73,0,20
1,note_on,87,71,40
1,note_on,79,0,20
1,note_on,87,0,940
1,note_on,59,49,0
1,note_on,59,0,119
1,note_on,68,50,1
1,note_on,68,0,119
1,note_on,63,51,1
1,note_on,63,0,119
1,note_on,68,47,1
1,note_on,68,0,119
1,note_on,59,52,1
1,note_on,59,0,119
1,note_on,68,53,1
1,note_on,68,0,119
1,note_on,63,54,1
1,note_on,63,0,119
1,note_on,68,52,1
1,note_on,68,0,119
1,note_on,59,57,1
1,note_on,59,0,119
1,note_on,68,57,1
1,note_on,68,0,119
1,note_on,63,58,1
1,note_on,63,0,119
1,note_on,68,54,1
1,note_on,68,0,119
1,note_on,59,61,1
1,note_on,59,0,119
1,note_on,68,62,1
1,note_on,68,0,119
1,note_on,63,62,1
1,note_on,63,0,119
1,note_on,68,57,1
1,note_on,68,0,119
1,note_on,60,66,1
1,note_on,60,0,119
1,note_on,66,67,1
1,note_on,66,0,119
1,note_on,63,68,1
1,note_on,63,0,119
1,note_on,66,63,1
1,note_on,66,0,119
1,note_on,60,69,1
1,note_on,60,0,119
1,note_on,66,70,1
1,note_on,66,0,119
1,note_on,63,71,1
1,note_on,63,0,119
1,note_on,66,68,1
1,note_on,66,0,119
1,note_on,60,73,1
1,note_on,60,0,119
1,note_on,66,74,1
1,note_on,66,0,119
1,note_on,63,75,1
1,note_on,63,0,119
1,note_on,66,70,1
1,note_on,66,0,119
1,note_on,60,78,1
1,note_on,60,0,119
1,note_on,66,79,1
1,note_on,66,0,119
1,note_on,63,79,1
1,note_on,63,0,119
1,note_on,66,73,1
1,note_on,66,0,119
1,note_on,61,80,1
1,note_on,65,80,0
1,note_on,65,0,120
1,note_on,61,0,0
1,note_on,49,51,0
1,note_on,53,51,120
1,note_on,49,0,20
1,note_on,56,52,100
1,note_on,53,0,20
1,note_on,61,54,100
1,note_on,56,0,20
1,note_on,53,49,100
1,note_on,61,0,20
1,note_on,56,50,100
1,note_on,53,0,20
1,note_on,61,51,100
1,note_on,56,0,20
1,note_on,65,51,100
1,note_on,61,0,20
1,note_on,56,48,100
1,note_on,65,0,20
1,note_on,61,50,100
1,note_on,56,0,20
1,note_on,65,51,100
1,note_on,61,0,20
1,note_on,68,52,100
1,note_on,65,0,20
1,note_on,61,49,100
1,note_on,68,0,20
1,note_on,65,50,100
1,note_on,61,0,20
1,note_on,68,51,100
1,note_on,65,0,20
1,note_on,73,51,100
1,note_on,68,0,20
1,note_on,65,49,100
1,note_on,73,0,20
1,note_on,68,51,100
1,note_on,65,0,20
1,note_on,73,51,100
1,note_on,68,0,20
1,note_on,77,54,100
1,note_on,73,0,20
1,note_on,68,49,100
1,note_on,77,0,20
1,note_on,73,51,100
1,note_on,68,0,20
1,note_on,77,51,100
1,note_on,73,0,20
1,note_on,80,53,100
1,note_on,77,0,20
1,note_on,73,50,100
1,note_on,80,0,20
1,note_on,77,51,100
1,note_on,73,0,20
1,note_on,80,52,100
1,note_on,77,0,20
1,note_on,80,0,100
1,note_on,73,78,0
1,note_on,77,78,0
1,note_on,80,93,0
1,note_on,85,93,0
1,note_on,85,0,120
1,note_on,73,0,0
1,note_on,77,0,0
1,note_on,80,0,0
1,note_on,80,78,120
1,note_on,73,65,0
1,note_on,85,78,0
1,note_on,77,65,0
1,note_on,77,0,120
1,note_on,80,0,0
1,note_on,73,0,0
1,note_on,85,0,0
1,note_on,49,51,240
1,note_on,53,52,120
1,note_on,49,0,20
1,note_on,56,54,100
1,note_on,53,0,20
1,note_on,61,56,100
1,note_on,56,0,20
1,note_on,53,51,100
1,note_on,61,0,20
1,note_on,56,53,100
1,note_on,53,0,20
1,note_on,61,54,100
1,note_on,56,0,20
1,note_on,65,56,100
1,note_on,61,0,20
1,note_on,56,51,100
1,note_on,65,0,20
1,note_on,61,53,100
1,note_on,56,0,20
1,note_on,65,56,100
1,note_on,61,0,20
1,note_on,68,57,100
1,note_on,65,0,20
1,note_on,61,51,100
1,note_on,68,0,20
1,note_on,65,53,100
1,note_on,61,0,20
1,note_on,68,56,100
1,note_on,65,0,20
1,note_on,73,57,100
1,note_on,68,0,20
1,note_on,65,53,100
1,note_on,73,0,20
1,note_on,68,56,100
1,note_on,65,0,20
1,note_on,73,57,100
1,note_on,68,0,20
1,note_on,77,57,100
1,note_on,73,0,20
1,note_on,68,52,100
1,note_on,77,0,20
1,note_on,73,54,100
1,note_on,68,0,20
1,note_on,77,56,100
1,note_on,73,0,20
1,note_on,80,58,100
1,note_on,77,0,20
1,note_on,73,52,100
1,note_on,80,0,20
1,note_on,77,56,100
1,note_on,73,0,20
1,note_on,80,59,100
1,note_on,77,0,20
1,note_on,80,0,100
1,note_on,73,78,0
1,note_on,77,78,0
1,note_on,85,93,0
1,note_on,80,93,0
1,note_on,80,0,120
1,note_on,73,0,0
1,note_on,77,0,0
1,note_on,85,0,0
1,note_on,77,67,120
1,note_on,80,81,0
1,note_on,73,67,0
1,note_on,85,81,0
1,note_on,85,0,120
1,note_on,77,0,0
1,note_on,80,0,0
1,note_on,73,0,0
1,note_on,49,62,240
1,note_on,54,62,120
1,note_on,49,0,20
1,note_on,57,65,100
1,note_on,54,0,20
1,note_on,61,67,100
1,note_on,57,0,20
1,note_on,61,0,40
1,note_on,61,62,60
1,note_on,66,65,120
1,note_on,61,0,20
1,note_on,69,67,100
1,note_on,66,0,20
1,note_on,73,68,100
1,note_on,69,0,20
1,note_on,73,0,40
1,note_on,73,62,60
1,note_on,78,65,120
1,note_on,73,0,20
1,note_on,81,68,100
1,note_on,78,0,20
1,note_on,81,0,100
1,note_on,78,85,0
1,note_on,73,85,0
1,note_on,81,101,0
1,note_on,85,101,0
1,note_on,85,0,120
1,note_on,78,0,0
1,note_on,73,0,0
1,note_on,81,0,0
1,note_on,78,72,120
1,note_on,85,86,0
1,note_on,81,86,0
1,note_on,73,72,0
1,note_on,73,0,120
1,note_on,78,0,0
1,note_on,85,0,0
1,note_on,81,0,0
1,note_on,49,62,240
1,note_on,56,62,120
1,note_on,49,0,20
1,note_on,59,66,100
1,note_on,56,0,20
1,note_on,61,68,100
1,note_on,59,0,20
1,note_on,61,0,40
1,note_on,61,62,60
1,note_on,68,63,120
1,note_on,61,0,20
1,note_on,71,67,100
1,note_on,68,0,20
1,note_on,73,68,100
1,note_on,71,0,20
1,note_on,73,0,40
1,note_on,73,62,60
1,note_on,80,63,120
1,note_on,73,0,20
1,note_on,83,67,100
1,note_on,80,0,20
1,note_on,83,0,100
1,note_on,73,88,0
1,note_on,80,88,0
1,note_on,85,104,0
1,note_on,83,104,0
1,note_on,83,0,120
1,note_on,73,0,0
1,note_on,80,0,0
1,note_on,85,0,0
1,note_on,85,90,120
1,note_on,83,90,0
1,note_on,80,77,0
1,note_on,73,77,0
1,note_on,73,0,120
1,note_on,85,0,0
1,note_on,83,0,0
1,note_on,80,0,0
1,note_on,73,81,120
1,note_on,85,96,0
1,note_on,81,96,0
1,note_on,78,81,0
1,note_on,78,0,240
1,note_on,73,0,0
1,note_on,85,0,0
1,note_on,81,0,0
1,note_on,73,68,240
1,note_on,69,51,960
1,note_on,73,0,20
1,note_on,66,51,340
1,note_on,69,0,20
1,note_on,66,0,40
1,note_on,65,41,0
1,note_on,65,0,20
1,note_on,66,41,0
1,note_on,66,0,20
1,note_on,68,41,0
1,note_on,68,0,20
1,note_on,66,62,0
1,note_on,65,51,480
1,note_on,66,0,20
1,note_on,65,0,700
1,note_on,65,51,0
1,note_on,73,56,240
1,note_on,65,0,20
1,note_on,73,0,340
1,note_on,65,51,0
1,note_on,65,0,120
1,note_on,68,51,0
1,note_on,66,51,480
1,note_on,68,0,20
1,note_on,66,0,700
1,note_on,66,52,0
1,note_on,73,56,240
1,note_on,66,0,20
1,note_on,66,51,340
1,note_on,73,0,20
1,note_on,66,0,100
1,note_on,69,49,0
1,note_on,68,52,480
1,note_on,69,0,20
1,note_on,68,0,700
1,note_on,68,52,0
1,note_on,73,58,240
1,note_on,68,0,20
1,note_on,73,0,340
1,note_on,68,51,0
1,note_on,68,0,120
1,note_on,69,39,0
1,note_on,73,31,120
1,note_on,69,0,20
1,note_on,69,34,100
1,note_on,73,0,20
1,note_on,73,30,100
1,note_on,69,0,20
1,note_on,66,39,100
1,note_on,73,0,20
1,note_on,73,31,100
1,note_on,66,0,20
1,note_on,69,34,100
1,note_on,73,0,20
1,note_on,73,31,100
1,note_on,69,0,20
1,note_on,66,39,100
1,note_on,73,0,20
1,note_on,73,32,100
1,note_on,66,0,20
1,note_on,69,34,100
1,note_on,73,0,20
1,note_on,73,30,100
1,note_on,69,0,20
1,note_on,66,39,100
1,note_on,73,0,20
1,note_on,73,32,100
1,note_on,66,0,20
1,note_on,69,34,100
1,note_on,73,0,20
1,note_on,73,31,100
1,note_on,69,0,20
1,note_on,68,39,100
1,note_on,73,0,20
1,note_on,73,32,100
1,note_on,68,0,20
1,note_on,71,34,100
1,note_on,73,0,20
1,note_on,73,32,100
1,note_on,71,0,20
1,note_on,68,47,100
1,note_on,73,0,20
1,note_on,73,41,100
1,note_on,68,0,20
1,note_on,71,47,100
1,note_on,73,0,20
1,note_on,73,44,100
1,note_on,71,0,20
1,note_on,68,58,100
1,note_on,73,0,20
1,note_on,73,47,100
1,note_on,68,0,20
1,note_on,71,54,100
1,note_on,73,0,20
1,note_on,73,50,100
1,note_on,71,0,20
1,note_on,68,64,100
1,note_on,73,0,20
1,note_on,73,49,100
1,note_on,68,0,20
1,note_on,71,51,100
1,note_on,73,0,20
1,note_on,73,44,100
1,note_on,71,0,20
1,note_on,66,39,100
1,note_on,73,0,20
1,note_on,73,31,100
1,note_on,66,0,20
1,note_on,69,34,100
1,note_on,73,0,20
1,note_on,73,39,100
1,note_on,69,0,20
1,note_on,66,48,100
1,note_on,73,0,20
1,note_on,73,42,100
1,note_on,66,0,20
1,note_on,69,48,100
1,note_on,73,0,20
1,note_on,73,45,100
1,note_on,69,0,20
1,note_on,66,58,100
1,note_on,73,0,20
1,note_on,73,48,100
1,note_on,66,0,20
1,note_on,69,54,100
1,note_on,73,0,20
1,note_on,73,50,100
1,note_on,69,0,20
1,note_on,66,64,100
1,note_on,73,0,20
1,note_on,73,51,100
1,note_on,66,0,20
1,note_on,69,51,100
1,note_on,73,0,20
1,note_on,73,45,100
1,note_on,69,0,20
1,note_on,66,39,100
1,note_on,73,0,20
1,note_on,74,31,100
1,note_on,66,0,20
1,note_on,69,34,100
1,note_on,74,0,20
1,note_on,74,32,100
1,note_on,69,0,20
1,note_on,66,45,100
1,note_on,74,0,20
1,note_on,74,31,100
1,note_on,66,0,20
1,note_on,69,34,100
1,note_on,74,0,20
1,note_on,74,34,100
1,note_on,69,0,20
1,note_on,69,48,100
1,note_on,74,0,20
1,note_on,74,34,100
1,note_on,69,0,20
1,note_on,72,38,100
1,note_on,74,0,20
1,note_on,74,34,100
1,note_on,72,0,20
1,note_on,69,53,100
1,note_on,74,0,20
1,note_on,74,34,100
1,note_on,69,0,20
1,note_on,72,39,100
1,note_on,74,0,20
1,note_on,74,34,100
1,note_on,72,0,20
1,note_on,67,53,100
1,note_on,74,0,20
1,note_on,74,32,100
1,note_on,67,0,20
1,note_on,71,34,100
1,note_on,74,0,20
1,note_on,74,32,100
1,note_on,71,0,20
1,note_on,67,39,100
1,note_on,74,0,20
1,note_on,74,33,100
1,note_on,67,0,20
1,note_on,71,35,100
1,note_on,74,0,20
1,note_on,74,31,100
1,note_on,71,0,20
1,note_on,67,39,100
1,note_on,74,0,20
1,note_on,74,32,100
1,note_on,67,0,20
1,note_on,71,34,100
1,note_on,74,0,20
1,note_on,74,31,100
1,note_on,71,0,20
1,note_on,67,39,100
1,note_on,74,0,20
1,note_on,74,32,100
1,note_on,67,0,20
1,note_on,71,34,100
1,note_on,74,0,20
1,note_on,74,32,100
1,note_on,71,0,20
1,note_on,69,39,100
1,note_on,74,0,20
1,note_on,74,32,100
1,note_on,69,0,20
1,note_on,72,35,100
1,note_on,74,0,20
1,note_on,74,32,100
1,note_on,72,0,20
1,note_on,69,50,100
1,note_on,74,0,20
1,note_on,74,41,100
1,note_on,69,0,20
1,note_on,72,47,100
1,note_on,74,0,20
1,note_on,74,44,100
1,note_on,72,0,20
1,note_on,69,58,100
1,note_on,74,0,20
1,note_on,74,46,100
1,note_on,69,0,20
1,note_on,72,54,100
1,note_on,74,0,20
1,note_on,74,49,100
1,note_on,72,0,20
1,note_on,69,63,100
1,note_on,74,0,20
1,note_on,74,49,100
1,note_on,69,0,20
1,note_on,72,51,100
1,note_on,74,0,20
1,note_on,74,44,100
1,note_on,72,0,20
1,note_on,67,39,100
1,note_on,74,0,20
1,note_on,74,32,100
1,note_on,67,0,20
1,note_on,71,34,100
1,note_on,74,0,20
1,note_on,74,31,100
1,note_on,71,0,20
1,note_on,67,50,100
1,note_on,74,0,20
1,note_on,74,42,100
1,note_on,67,0,20
1,note_on,71,48,100
1,note_on,74,0,20
1,note_on,74,46,100
1,note_on,71,0,20
1,note_on,67,61,100
1,note_on,74,0,20
1,note_on,74,49,100
1,note_on,67,0,20
1,note_on,71,55,100
1,note_on,74,0,20
1,note_on,74,52,100
1,note_on,71,0,20
1,note_on,67,69,100
1,note_on,74,0,20
1,note_on,74,54,100
1,note_on,67,0,20
1,note_on,71,55,100
1,note_on,74,0,20
1,note_on,74,45,100
1,note_on,71,0,20
1,note_on,68,43,100
1,note_on,74,0,20
1,note_on,74,34,100
1,note_on,68,0,20
1,note_on,71,38,100
1,note_on,74,0,20
1,note_on,74,34,100
1,note_on,71,0,20
1,note_on,68,56,100
1,note_on,74,0,20
1,note_on,73,45,100
1,note_on,68,0,20
1,note_on,71,54,100
1,note_on,73,0,20
1,note_on,73,48,100
1,note_on,71,0,20
1,note_on,68,67,100
1,note_on,73,0,20
1,note_on,73,52,100
1,note_on,68,0,20
1,note_on,71,65,100
1,note_on,73,0,20
1,note_on,73,55,100
1,note_on,71,0,20
1,note_on,68,78,100
1,note_on,73,0,20
1,note_on,73,59,100
1,note_on,68,0,20
1,note_on,71,61,100
1,note_on,73,0,20
1,note_on,73,49,100
1,note_on,71,0,20
1,note_on,66,57,100
1,note_on,73,0,20
1,note_on,73,44,100
1,note_on,66,0,20
1,note_on,69,47,100
1,note_on,73,0,20
1,note_on,73,43,100
1,note_on,69,0,20
1,note_on,66,56,100
1,note_on,73,0,20
1,note_on,73,44,100
1,note_on,66,0,20
1,note_on,69,47,100
1,note_on,73,0,20
1,note_on,73,44,100
1,note_on,69,0,20
1,note_on,66,56,100
1,note_on,73,0,20
1,note_on,78,43,100
1,note_on,66,0,20
1,note_on,69,46,100
1,note_on,78,0,20
1,note_on,78,42,100
1,note_on,69,0,20
1,note_on,66,54,100
1,note_on,78,0,20
1,note_on,78,45,100
1,note_on,66,0,20
1,note_on,69,47,100
1,note_on,78,0,20
1,note_on,78,43,100
1,note_on,69,0,20
1,note_on,66,62,100
1,note_on,78,0,20
1,note_on,78,41,100
1,note_on,66,0,20
1,note_on,75,47,100
1,note_on,68,47,0
1,note_on,78,0,20
1,note_on,78,42,100
1,note_on,68,0,20
1,note_on,75,0,0
1,note_on,66,59,100
1,note_on,78,0,20
1,note_on,78,43,100
1,note_on,66,0,20
1,note_on,75,47,100
1,note_on,68,47,0
1,note_on,78,0,20
1,note_on,78,44,100
1,note_on,68,0,20
1,note_on,75,0,0
1,note_on,66,58,100
1,note_on,78,0,20
1,note_on,78,45,100
1,note_on,66,0,20
1,note_on,68,47,100
1,note_on,75,47,0
1,note_on,78,0,20
1,note_on,78,42,100
1,note_on,75,0,20
1,note_on,68,0,0
1,note_on,66,58,100
1,note_on,78,0,20
1,note_on,78,43,100
1,note_on,66,0,20
1,note_on,75,47,100
1,note_on,68,47,0
1,note_on,78,0,20
1,note_on,78,42,100
1,note_on,68,0,20
1,note_on,75,0,0
1,note_on,64,65,100
1,note_on,78,0,20
1,note_on,76,52,100
1,note_on,64,0,20
1,note_on,73,56,100
1,note_on,76,0,20
1,note_on,76,52,100
1,note_on,73,0,20
1,note_on,64,65,100
1,note_on,76,0,20
1,note_on,76,52,100
1,note_on,64,0,20
1,note_on,73,56,100
1,note_on,76,0,20
1,note_on,76,51,100
1,note_on,73,0,20
1,note_on,64,65,100
1,note_on,76,0,20
1,note_on,76,53,100
1,note_on,64,0,20
1,note_on,73,57,100
1,note_on,76,0,20
1,note_on,76,51,100
1,note_on,73,0,20
1,note_on,64,65,100
1,note_on,76,0,20
1,note_on,76,53,100
1,note_on,64,0,20
1,note_on,73,57,100
1,note_on,76,0,20
1,note_on,76,52,100
1,note_on,73,0,20
1,note_on,63,65,100
1,note_on,76,0,20
1,note_on,75,53,100
1,note_on,63,0,20
1,note_on,73,58,100
1,note_on,75,0,20
1,note_on,75,52,100
1,note_on,73,0,20
1,note_on,63,65,100
1,note_on,75,0,20
1,note_on,75,51,100
1,note_on,63,0,20
1,note_on,73,57,100
1,note_on,75,0,20
1,note_on,75,52,100
1,note_on,73,0,20
1,note_on,63,65,100
1,note_on,75,0,20
1,note_on,75,51,100
1,note_on,63,0,20
1,note_on,73,56,100
1,note_on,75,0,20
1,note_on,75,51,100
1,note_on,73,0,20
1,note_on,63,65,100
1,note_on,75,0,20
1,note_on,75,51,100
1,note_on,63,0,20
1,note_on,73,56,100
1,note_on,75,0,20
1,note_on,75,51,100
1,note_on,73,0,20
1,note_on,75,0,100
1,note_on,63,68,0
1,note_on,72,78,0
1,note_on,75,80,0
1,note_on,75,0,240
1,note_on,72,0,0
1,note_on,63,0,0
1,note_on,68,54,240
1,note_on,68,0,960
1,note_on,69,51,0
1,note_on,69,0,240
1,note_on,68,51,0
1,note_on,68,0,240
1,note_on,57,50,0
1,note_on,61,50,0
1,note_on,66,59,0
1,note_on,66,0,480
1,note_on,68,49,0
1,note_on,68,0,240
1,note_on,66,49,0
1,note_on,66,0,240
1,note_on,61,0,0
1,note_on,57,0,0
1,note_on,59,50,0
1,note_on,56,50,0
1,note_on,64,59,0
1,note_on,64,0,480
1,note_on,66,48,0
1,note_on,66,0,240
1,note_on,64,48,0
1,note_on,64,0,240
1,note_on,56,0,0
1,note_on,59,0,0
1,note_on,54,49,0
1,note_on,63,58,0
1,note_on,57,49,0
1,note_on,63,0,480
1,note_on,64,47,0
1,note_on,64,0,240
1,note_on,63,47,0
1,note_on,63,0,240
1,note_on,57,0,0
1,note_on,54,0,0
1,note_on,52,49,0
1,note_on,56,49,0
1,note_on,61,58,0
1,note_on,61,0,480
1,note_on,63,51,0
1,note_on,63,0,240
1,note_on,61,51,0
1,note_on,61,0,240
1,note_on,56,0,0
1,note_on,52,0,0
1,note_on,60,58,0
1,note_on,54,49,0
1,note_on,51,49,0
1,note_on,51,0,960
1,note_on,54,0,0
1,note_on,60,0,0
1,note_on,49,48,0
1,note_on,61,57,0
1,note_on,52,48,0
1,note_on,52,0,840
1,note_on,61,0,0
1,note_on,49,0,0
1,note_on,48,48,0
1,note_on,48,0,60
1,note_on,56,48,0
1,note_on,56,0,60
1,note_on,63,58,0
1,note_on,63,0,360
1,note_on,80,63,120
1,note_on,80,0,720
1,note_on,80,67,0
1,note_on,80,0,120
1,note_on,81,68,120
1,note_on,81,0,120
1,note_on,80,66,120
1,note_on,80,0,120
1,note_on,78,68,120
1,note_on,78,0,120
1,note_on,73,56,120
1,note_on,69,47,0
1,note_on,78,56,0
1,note_on,78,0,120
1,note_on,69,0,0
1,note_on,73,0,0
1,note_on,71,48,120
1,note_on,80,57,0
1,note_on,75,57,0
1,note_on,75,0,120
1,note_on,80,0,0
1,note_on,71,0,0
1,note_on,69,48,120
1,note_on,73,57,0
1,note_on,78,57,0
1,note_on,78,0,120
1,note_on,73,0,0
1,note_on,69,0,0
1,note_on,71,59,120
1,note_on,76,59,0
1,note_on,68,50,0
1,note_on,68,0,120
1,note_on,76,0,0
1,note_on,71,0,0
1,note_on,68,51,120
1,note_on,71,60,0
1,note_on,76,60,0
1,note_on,76,0,120
1,note_on,71,0,0
1,note_on,68,0,0
1,note_on,69,51,120
1,note_on,73,61,0
1,note_on,78,61,0
1,note_on,78,0,120
1,note_on,73,0,0
1,note_on,69,0,0
1,note_on,76,62,120
1,note_on,68,52,0
1,note_on,71,62,0
1,note_on,71,0,120
1,note_on,68,0,0
1,note_on,76,0,0
1,note_on,69,62,120
1,note_on,75,62,0
1,note_on,66,52,0
1,note_on,66,0,120
1,note_on,75,0,0
1,note_on,69,0,0
1,note_on,69,63,120
1,note_on,75,63,0
1,note_on,66,53,0
1,note_on,66,0,120
1,note_on,75,0,0
1,note_on,69,0,0
1,note_on,68,56,120
1,note_on,71,66,0
1,note_on,76,66,0
1,note_on,76,0,120
1,note_on,71,0,0
1,note_on,68,0,0
1,note_on,66,56,120
1,note_on,69,67,0
1,note_on,75,67,0
1,note_on,75,0,120
1,note_on,69,0,0
1,note_on,66,0,0
1,note_on,73,68,120
1,note_on,68,68,0
1,note_on,64,57,0
1,note_on,64,0,120
1,note_on,68,0,0
1,note_on,73,0,0
1,note_on,64,57,120
1,note_on,73,68,0
1,note_on,68,68,0
1,note_on,68,0,120
1,note_on,73,0,0
1,note_on,64,0,0
1,note_on,66,51,120
1,note_on,75,60,0
1,note_on,69,60,0
1,note_on,69,0,120
1,note_on,75,0,0
1,note_on,66,0,0
1,note_on,68,54,120
1,note_on,64,45,0
1,note_on,73,54,0
1,note_on,73,0,120
1,note_on,64,0,0
1,note_on,68,0,0
1,note_on,72,48,120
1,note_on,63,40,0
1,note_on,66,48,0
1,note_on,66,0,960
1,note_on,63,0,0
1,note_on,72,0,0
1,note_on,64,56,0
1,note_on,73,56,0
1,note_on,61,47,0
1,note_on,61,0,840
1,note_on,73,0,0
1,note_on,64,0,0
1,note_on,60,49,0
1,note_on,60,0,60
1,note_on,66,59,0
1,note_on,75,80,60
1,note_on,75,0,1440
1,note_on,66,0,0
1,note_on,73,58,0
1,note_on,64,58,0
1,note_on,61,49,0
1,note_on,61,0,480
1,note_on,64,0,0
1,note_on,73,0,0
1,note_on,63,39,0
1,note_on,72,47,0
1,note_on,66,47,0
1,note_on,66,0,240
1,note_on,72,0,0
1,note_on,63,0,0
1,note_on,66,53,240
1,note_on,72,53,0
1,note_on,63,45,0
1,note_on,63,0,240
1,note_on,72,0,0
1,note_on,66,0,0
1,note_on,73,62,240
1,note_on,64,62,0
1,note_on,61,52,0
1,note_on,61,0,240
1,note_on,64,0,0
1,note_on,73,0,0
1,note_on,64,68,240
1,note_on,61,57,0
1,note_on,73,68,0
1,note_on,73,0,240
1,note_on,61,0,0
1,note_on,64,0,0
1,note_on,60,51,120
1,note_on,60,0,60
1,note_on,66,59,0
1,note_on,75,80,60
1,note_on,75,0,1440
1,note_on,66,0,0
1,note_on,64,48,0
1,note_on,61,40,0
1,note_on,61,0,240
1,note_on,64,0,0
1,note_on,73,43,0
1,note_on,73,0,240
1,note_on,66,51,0
1,note_on,63,43,0
1,note_on,63,0,240
1,note_on,66,0,0
1,note_on,72,47,0
1,note_on,72,0,240
1,note_on,63,48,0
1,note_on,66,57,0
1,note_on,66,0,240
1,note_on,63,0,0
1,note_on,72,53,0
1,note_on,72,0,240
1,note_on,61,57,0
1,note_on,64,68,0
1,note_on,64,0,240
1,note_on,61,0,0
1,note_on,73,57,0
1,note_on,73,0,240
1,note_on,61,60,0
1,note_on,64,71,0
1,note_on,64,0,240
1,note_on,61,0,0
1,note_on,73,65,0
1,note_on,73,0,240
1,note_on,60,68,0
1,note_on,66,80,0
1,note_on,66,0,240
1,note_on,60,0,0
1,note_on,75,69,0
1,note_on,75,0,240
1,note_on,60,62,0
1,note_on,66,73,0
1,note_on,66,0,240
1,note_on,60,0,0
1,note_on,75,58,0
1,note_on,75,0,240
1,note_on,64,63,0
1,note_on,61,53,0
1,note_on,61,0,240
1,note_on,64,0,0
1,note_on,73,51,0
1,note_on,73,0,240
1,note_on,64,57,0
1,note_on,61,48,0
1,note_on,61,0,240
1,note_on,64,0,0
1,note_on,73,53,0
1,note_on,73,0,240
1,note_on,63,47,0
1,note_on,57,39,0
1,note_on,61,39,0
1,note_on,69,47,0
1,note_on,69,0,1920
1,note_on,63,0,0
1,note_on,57,0,0
1,note_on,61,0,0
1,note_on,63,31,0
1,note_on,68,31,0
1,note_on,56,26,0
1,note_on,60,26,0
1,note_on,60,0,1920
1,note_on,63,0,0
1,note_on,68,0,0
1,note_on,56,0,0
1,note_on,44,47,120
1,note_on,44,0,115
1,note_on,49,48,5
1,note_on,52,50,120
1,note_on,49,0,20
1,note_on,56,51,100
1,note_on,52,0,20
1,note_on,49,51,100
1,note_on,56,0,20
1,note_on,52,49,100
1,note_on,49,0,20
1,note_on,56,51,100
1,note_on,52,0,20
1,note_on,61,51,100
1,note_on,56,0,20
1,note_on,52,47,100
1,note_on,61,0,20
1,note_on,56,48,100
1,note_on,52,0,20
1,note_on,61,50,100
1,note_on,56,0,20
1,note_on,64,51,100
1,note_on,61,0,20
1,note_on,56,48,100
1,note_on,64,0,20
1,note_on,61,49,100
1,note_on,56,0,20
1,note_on,64,51,100
1,note_on,61,0,20
1,note_on,68,53,100
1,note_on,64,0,20
1,note_on,61,47,100
1,note_on,68,0,20
1,note_on,64,49,100
1,note_on,61,0,20
1,note_on,68,51,100
1,note_on,64,0,20
1,note_on,73,52,100
1,note_on,68,0,20
1,note_on,64,51,100
1,note_on,73,0,20
1,note_on,68,50,100
1,note_on,64,0,20
1,note_on,73,51,100
1,note_on,68,0,20
1,note_on,76,53,100
1,note_on,73,0,20
1,note_on,68,51,100
1,note_on,76,0,20
1,note_on,73,51,100
1,note_on,68,0,20
1,note_on,76,56,100
1,note_on,73,0,20
1,note_on,76,0,100
1,note_on,73,79,0
1,note_on,80,94,0
1,note_on,68,79,0
1,note_on,76,94,0
1,note_on,76,0,120
1,note_on,73,0,0
1,note_on,80,0,0
1,note_on,68,0,0
1,note_on,80,79,120
1,note_on,76,79,0
1,note_on,73,67,0
1,note_on,68,67,0
1,note_on,68,0,120
1,note_on,80,0,0
1,note_on,76,0,0
1,note_on,73,0,0
1,note_on,44,47,240
1,note_on,44,0,115
1,note_on,48,49,5
1,note_on,51,51,120
1,note_on,48,0,20
1,note_on,56,51,100
1,note_on,51,0,20
1,note_on,48,48,100
1,note_on,56,0,20
1,note_on,51,50,100
1,note_on,48,0,20
1,note_on,56,51,100
1,note_on,51,0,20
1,note_on,60,52,100
1,note_on,56,0,20
1,note_on,51,51,100
1,note_on,60,0,20
1,note_on,56,51,100
1,note_on,51,0,20
1,note_on,60,51,100
1,note_on,56,0,20
1,note_on,63,52,100
1,note_on,60,0,20
1,note_on,56,47,100
1,note_on,63,0,20
1,note_on,60,50,100
1,note_on,56,0,20
1,note_on,63,51,100
1,note_on,60,0,20
1,note_on,68,53,100
1,note_on,63,0,20
1,note_on,60,49,100
1,note_on,68,0,20
1,note_on,63,50,100
1,note_on,60,0,20
1,note_on,68,51,100
1,note_on,63,0,20
1,note_on,72,52,100
1,note_on,68,0,20
1,note_on,63,51,100
1,note_on,72,0,20
1,note_on,68,50,100
1,note_on,63,0,20
1,note_on,72,51,100
1,note_on,68,0,20
1,note_on,75,52,100
1,note_on,72,0,20
1,note_on,68,49,100
1,note_on,75,0,20
1,note_on,72,51,100
1,note_on,68,0,20
1,note_on,75,53,100
1,note_on,72,0,20
1,note_on,75,0,100
1,note_on,72,79,0
1,note_on,75,94,0
1,note_on,80,94,0
1,note_on,68,79,0
1,note_on,68,0,120
1,note_on,72,0,0
1,note_on,75,0,0
1,note_on,80,0,0
1,note_on,75,78,120
1,note_on,68,66,0
1,note_on,80,78,0
1,note_on,72,66,0
1,note_on,72,0,120
1,note_on,75,0,0
1,note_on,68,0,0
1,note_on,80,0,0
1,note_on,49,62,240
1,note_on,53,65,120
1,note_on,49,0,20
1,note_on,56,67,100
1,note_on,53,0,20
1,note_on,61,68,100
1,note_on,56,0,20
1,note_on,53,65,100
1,note_on,61,0,20
1,note_on,56,67,100
1,note_on,53,0,20
1,note_on,61,68,100
1,note_on,56,0,20
1,note_on,65,69,100
1,note_on,61,0,20
1,note_on,56,66,100
1,note_on,65,0,20
1,note_on,61,68,100
1,note_on,56,0,20
1,note_on,65,69,100
1,note_on,61,0,20
1,note_on,68,71,100
1,note_on,65,0,20
1,note_on,61,66,100
1,note_on,68,0,20
1,note_on,65,68,100
1,note_on,61,0,20
1,note_on,68,68,100
1,note_on,65,0,20
1,note_on,73,69,100
1,note_on,68,0,20
1,note_on,65,66,100
1,note_on,73,0,20
1,note_on,68,68,100
1,note_on,65,0,20
1,note_on,73,68,100
1,note_on,68,0,20
1,note_on,77,70,100
1,note_on,73,0,20
1,note_on,68,63,100
1,note_on,77,0,20
1,note_on,73,66,100
1,note_on,68,0,20
1,note_on,77,68,100
1,note_on,73,0,20
1,note_on,80,68,100
1,note_on,77,0,20
1,note_on,73,66,100
1,note_on,80,0,20
1,note_on,77,68,100
1,note_on,73,0,20
1,note_on,80,70,100
1,note_on,77,0,20
1,note_on,80,0,100
1,note_on,73,87,0
1,note_on,77,87,0
1,note_on,80,103,0
1,note_on,85,103,0
1,note_on,85,0,120
1,note_on,73,0,0
1,note_on,77,0,0
1,note_on,80,0,0
1,note_on,77,77,120
1,note_on,80,90,0
1,note_on,85,90,0
1,note_on,73,77,0
1,note_on,73,0,120
1,note_on,77,0,0
1,note_on,80,0,0
1,note_on,85,0,0
1,note_on,49,61,240
1,note_on,54,63,120
1,note_on,49,0,20
1,note_on,57,62,100
1,note_on,54,0,20
1,note_on,61,69,100
1,note_on,57,0,20
1,note_on,61,0,40
1,note_on,61,72,60
1,note_on,66,76,120
1,note_on,61,0,20
1,note_on,69,76,100
1,note_on,66,0,20
1,note_on,73,82,100
1,note_on,69,0,20
1,note_on,73,0,40
1,note_on,73,85,60
1,note_on,78,87,120
1,note_on,73,0,20
1,note_on,81,84,100
1,note_on,78,0,20
1,note_on,78,102,100
1,note_on,85,102,0
1,note_on,73,86,0
1,note_on,81,0,20
1,note_on,78,0,100
1,note_on,85,0,0
1,note_on,73,0,0
1,note_on,73,85,120
1,note_on,78,101,0
1,note_on,85,101,0
1,note_on,85,0,120
1,note_on,78,0,0
1,note_on,73,0,0
1,note_on,49,75,240
1,note_on,52,77,120
1,note_on,49,0,20
1,note_on,55,75,100
1,note_on,52,0,20
1,note_on,61,80,100
1,note_on,55,0,20
1,note_on,61,0,40
1,note_on,61,77,60
1,note_on,64,79,120
1,note_on,61,0,20
1,note_on,67,77,100
1,note_on,64,0,20
1,note_on,73,81,100
1,note_on,67,0,20
1,note_on,73,0,40
1,note_on,73,80,60
1,note_on,76,81,120
1,note_on,73,0,20
1,note_on,79,79,100
1,note_on,76,0,20
1,note_on,79,0,100
1,note_on,79,108,0
1,note_on,85,108,0
1,note_on,73,90,0
1,note_on,73,0,120
1,note_on,85,0,0
1,note_on,79,0,0
1,note_on,85,108,120
1,note_on,79,108,0
1,note_on,73,90,0
1,note_on,73,0,120
1,note_on,79,0,0
1,note_on,85,0,0
1,note_on,80,108,120
1,note_on,72,90,0
1,note_on,84,108,0
1,note_on,84,0,240
1,note_on,72,0,0
1,note_on,80,0,0
1,note_on,68,74,0
1,note_on,68,0,120
1,note_on,80,58,0
1,note_on,80,0,120
1,note_on,68,75,0
1,note_on,68,0,120
1,note_on,80,60,0
1,note_on,80,0,120
1,note_on,70,76,0
1,note_on,70,0,120
1,note_on,80,60,0
1,note_on,80,0,120
1,note_on,72,76,0
1,note_on,72,0,120
1,note_on,80,61,0
1,note_on,80,0,120
1,note_on,73,78,0
1,note_on,73,0,120
1,note_on,80,62,0
1,note_on,80,0,120
1,note_on,75,79,0
1,note_on,75,0,120
1,note_on,80,62,0
1,note_on,80,0,120
1,note_on,72,79,0
1,note_on,72,0,120
1,note_on,80,62,0
1,note_on,80,0,120
1,note_on,75,80,0
1,note_on,75,0,120
1,note_on,80,62,0
1,note_on,80,0,120
1,note_on,73,80,0
1,note_on,73,0,120
1,note_on,80,62,0
1,note_on,80,0,120
1,note_on,78,84,0
1,note_on,78,0,120
1,note_on,80,62,0
1,note_on,80,0,120
1,note_on,76,80,0
1,note_on,76,0,120
1,note_on,80,62,0
1,note_on,80,0,120
1,note_on,75,80,0
1,note_on,75,0,120
1,note_on,80,62,0
1,note_on,80,0,120
1,note_on,73,79,0
1,note_on,73,0,120
1,note_on,80,62,0
1,note_on,80,0,120
1,note_on,72,79,0
1,note_on,72,0,120
1,note_on,80,62,0
1,note_on,80,0,120
1,note_on,69,77,0
1,note_on,69,0,120
1,note_on,79,61,0
1,note_on,79,0,120
1,note_on,68,76,0
1,note_on,68,0,120
1,note_on,80,60,0
1,note_on,80,0,120
1,note_on,68,75,0
1,note_on,68,0,120
1,note_on,80,59,0
1,note_on,80,0,120
1,note_on,68,74,0
1,note_on,68,0,120
1,note_on,80,59,0
1,note_on,80,0,120
1,note_on,70,74,0
1,note_on,70,0,120
1,note_on,80,61,0
1,note_on,80,0,120
1,note_on,72,76,0
1,note_on,72,0,120
1,note_on,80,59,0
1,note_on,80,0,120
1,note_on,73,76,0
1,note_on,73,0,120
1,note_on,80,62,0
1,note_on,80,0,120
1,note_on,75,77,0
1,note_on,75,0,120
1,note_on,80,61,0
1,note_on,80,0,120
1,note_on,72,79,0
1,note_on,72,0,120
1,note_on,80,62,0
1,note_on,80,0,120
1,note_on,75,79,0
1,note_on,75,0,120
1,note_on,80,62,0
1,note_on,80,0,120
1,note_on,73,80,0
1,note_on,73,0,120
1,note_on,80,65,0
1,note_on,80,0,120
1,note_on,78,84,0
1,note_on,78,0,120
1,note_on,80,68,0
1,note_on,80,0,120
1,note_on,76,84,0
1,note_on,76,0,120
1,note_on,80,67,0
1,note_on,80,0,120
1,note_on,75,84,0
1,note_on,75,0,120
1,note_on,80,67,0
1,note_on,80,0,120
1,note_on,73,84,0
1,note_on,73,0,120
1,note_on,80,66,0
1,note_on,80,0,120
1,note_on,72,84,0
1,note_on,72,0,120
1,note_on,80,67,0
1,note_on,80,0,120
1,note_on,69,84,0
1,note_on,69,0,120
1,note_on,79,66,0
1,note_on,79,0,120
1,note_on,68,84,0
1,note_on,68,0,120
1,note_on,80,66,0
1,note_on,80,0,120
1,note_on,69,79,0
1,note_on,69,0,120
1,note_on,79,67,0
1,note_on,79,0,120
1,note_on,68,84,0
1,note_on,68,0,120
1,note_on,80,66,0
1,note_on,80,0,120
1,note_on,69,79,0
1,note_on,69,0,120
1,note_on,79,67,0
1,note_on,79,0,120
1,note_on,68,84,0
1,note_on,68,0,120
1,note_on,80,66,0
1,note_on,80,0,120
1,note_on,69,79,0
1,note_on,69,0,120
1,note_on,79,65,0
1,note_on,79,0,120
1,note_on,68,84,0
1,note_on,68,0,120
1,note_on,80,66,0
1,note_on,80,0,120
1,note_on,69,79,0
1,note_on,69,0,120
1,note_on,79,65,0
1,note_on,79,0,120
1,note_on,80,84,0
1,note_on,68,84,0
1,note_on,68,0,240
1,note_on,80,0,0
1,note_on,56,113,240
1,note_on,56,0,1440
1,note_on,68,56,480
1,note_on,64,47,960
1,note_on,68,0,20
1,note_on,61,47,340
1,note_on,64,0,20
1,note_on,61,0,40
1,note_on,60,37,0
1,note_on,60,0,20
1,note_on,61,37,0
1,note_on,61,0,20
1,note_on,63,37,0
1,note_on,63,0,20
1,note_on,61,53,0
1,note_on,60,47,480
1,note_on,61,0,20
1,note_on,60,0,700
1,note_on,60,47,0
1,note_on,68,56,240
1,note_on,60,0,20
1,note_on,68,0,340
1,note_on,60,48,0
1,note_on,60,0,120
1,note_on,63,43,0
1,note_on,61,47,480
1,note_on,63,0,20
1,note_on,61,0,700
1,note_on,61,45,0
1,note_on,68,57,240
1,note_on,61,0,20
1,note_on,68,0,340
1,note_on,61,47,0
1,note_on,61,0,120
1,note_on,64,48,0
1,note_on,63,47,480
1,note_on,64,0,20
1,note_on,63,0,700
1,note_on,63,48,0
1,note_on,68,54,240
1,note_on,63,0,20
1,note_on,63,48,340
1,note_on,68,0,20
1,note_on,63,0,100
1,note_on,64,51,0
1,note_on,64,0,120
1,note_on,80,58,120
1,note_on,68,48,0
1,note_on,68,0,480
1,note_on,80,0,0
1,note_on,68,45,0
1,note_on,80,53,0
1,note_on,80,0,480
1,note_on,68,0,0
1,note_on,80,56,0
1,note_on,68,47,0
1,note_on,68,0,120
1,note_on,80,0,0
1,note_on,64,49,120
1,note_on,76,58,0
1,note_on,76,0,120
1,note_on,64,0,0
1,note_on,73,56,120
1,note_on,61,47,0
1,note_on,61,0,120
1,note_on,73,0,0
1,note_on,61,51,120
1,note_on,73,61,0
1,note_on,73,0,120
1,note_on,61,0,0
1,note_on,60,52,120
1,note_on,72,62,0
1,note_on,72,0,480
1,note_on,60,0,0
1,note_on,72,68,0
1,note_on,60,57,0
1,note_on,60,0,480
1,note_on,72,0,0
1,note_on,60,58,0
1,note_on,72,69,0
1,note_on,72,0,120
1,note_on,60,0,0
1,note_on,80,71,120
1,note_on,68,60,0
1,note_on,68,0,120
1,note_on,80,0,0
1,note_on,72,69,120
1,note_on,60,58,0
1,note_on,60,0,120
1,note_on,72,0,0
1,note_on,75,74,120
1,note_on,63,62,0
1,note_on,63,0,120
1,note_on,75,0,0
1,note_on,61,63,120
1,note_on,73,75,0
1,note_on,73,0,480
1,note_on,61,0,0
1,note_on,61,68,0
1,note_on,73,80,0
1,note_on,73,0,480
1,note_on,61,0,0
1,note_on,73,75,0
1,note_on,61,63,0
1,note_on,61,0,120
1,note_on,73,0,0
1,note_on,80,85,120
1,note_on,68,72,0
1,note_on,68,0,120
1,note_on,80,0,0
1,note_on,73,86,120
1,note_on,61,73,0
1,note_on,61,0,120
1,note_on,73,0,0
1,note_on,64,73,120
1,note_on,76,86,0
1,note_on,76,0,120
1,note_on,64,0,0
1,note_on,63,72,120
1,note_on,75,85,0
1,note_on,75,0,480
1,note_on,63,0,0
1,note_on,75,93,0
1,note_on,63,79,0
1,note_on,63,0,480
1,note_on,75,0,0
1,note_on,63,75,0
1,note_on,75,90,0
1,note_on,75,0,120
1,note_on,63,0,0
1,note_on,68,79,120
1,note_on,80,93,0
1,note_on,80,0,120
1,note_on,68,0,0
1,note_on,75,90,120
1,note_on,63,75,0
1,note_on,63,0,120
1,note_on,75,0,0
1,note_on,65,80,120
1,note_on,77,95,0
1,note_on,77,0,960
1,note_on,65,0,0
1,note_on,66,80,0
1,note_on,78,95,0
1,note_on,78,0,960
1,note_on,66,0,0
1,note_on,63,67,0
1,note_on,75,80,0
1,note_on,75,0,65
1,note_on,76,75,0
1,note_on,75,80,64
1,note_on,76,0,1
1,note_on,75,0,64
1,note_on,76,80,0
1,note_on,76,0,65
1,note_on,75,80,16
1,note_on,73,75,72
1,note_on,75,0,6
1,note_on,75,75,60
1,note_on,73,0,12
1,note_on,75,0,55
1,note_on,63,0,0
1,note_on,76,95,0
1,note_on,64,80,0
1,note_on,64,0,1440
1,note_on,76,0,0
1,note_on,73,95,0
1,note_on,61,80,0
1,note_on,61,0,960
1,note_on,73,0,0
1,note_on,62,80,0
1,note_on,74,94,0
1,note_on,74,0,960
1,note_on,62,0,0
1,note_on,60,67,0
1,note_on,72,80,0
1,note_on,72,0,65
1,note_on,73,75,0
1,note_on,72,80,64
1,note_on,73,0,1
1,note_on,72,0,64
1,note_on,73,80,0
1,note_on,73,0,65
1,note_on,72,80,16
1,note_on,70,75,72
1,note_on,72,0,6
1,note_on,72,75,60
1,note_on,70,0,12
1,note_on,72,0,55
1,note_on,60,0,0
1,note_on,61,80,0
1,note_on,73,95,0
1,note_on,73,0,1440
1,note_on,61,0,0
1,note_on,66,83,0
1,note_on,69,100,0
1,note_on,74,100,0
1,note_on,62,83,0
1,note_on,62,0,1080
1,note_on,66,0,0
1,note_on,69,0,0
1,note_on,74,0,0
1,note_on,69,48,0
1,note_on,69,0,120
1,note_on,71,48,0
1,note_on,71,0,120
1,note_on,73,49,0
1,note_on,73,0,120
1,note_on,74,50,0
1,note_on,74,0,120
1,note_on,76,51,0
1,note_on,76,0,120
1,note_on,78,51,0
1,note_on,78,0,120
1,note_on,76,49,0
1,note_on,76,0,120
1,note_on,74,49,0
1,note_on,74,0,120
1,note_on,69,47,0
1,note_on,69,0,120
1,note_on,71,48,0
1,note_on,71,0,120
1,note_on,73,49,0
1,note_on,73,0,120
1,note_on,74,50,0
1,note_on,74,0,120
1,note_on,76,51,0
1,note_on,76,0,120
1,note_on,78,51,0
1,note_on,78,0,120
1,note_on,76,50,0
1,note_on,76,0,120
1,note_on,74,48,0
1,note_on,74,0,120
1,note_on,69,48,0
1,note_on,69,0,120
1,note_on,71,50,0
1,note_on,71,0,120
1,note_on,73,51,0
1,note_on,73,0,120
1,note_on,74,51,0
1,note_on,74,0,120
1,note_on,76,52,0
1,note_on,76,0,120
1,note_on,78,52,0
1,note_on,78,0,120
1,note_on,76,51,0
1,note_on,76,0,120
1,note_on,74,47,0
1,note_on,74,0,120
1,note_on,69,48,0
1,note_on,69,0,120
1,note_on,71,51,0
1,note_on,71,0,120
1,note_on,73,51,0
1,note_on,73,0,120
1,note_on,74,54,0
1,note_on,74,0,120
1,note_on,76,56,0
1,note_on,76,0,120
1,note_on,78,57,0
1,note_on,78,0,120
1,note_on,79,60,0
1,note_on,79,0,120
1,note_on,81,61,0
1,note_on,81,0,120
1,note_on,80,59,0
1,note_on,80,0,120
1,note_on,83,57,0
1,note_on,83,0,120
1,note_on,81,56,0
1,note_on,81,0,120
1,note_on,79,54,0
1,note_on,79,0,120
1,note_on,78,52,0
1,note_on,78,0,120
1,note_on,76,51,0
1,note_on,76,0,120
1,note_on,74,50,0
1,note_on,74,0,120
1,note_on,73,48,0
1,note_on,73,0,960
1,note_on,75,50,0
1,note_on,75,0,80
1,note_on,76,50,0
1,note_on,76,0,80
1,note_on,75,50,0
1,note_on,75,0,75
1,note_on,76,50,0
1,note_on,76,0,75
1,note_on,75,50,0
1,note_on,75,0,75
1,note_on,76,50,0
1,note_on,76,0,75
1,note_on,75,49,0
1,note_on,75,0,70
1,note_on,76,49,0
1,note_on,76,0,70
1,note_on,75,50,0
1,note_on,75,0,60
1,note_on,76,51,0
1,note_on,76,0,60
1,note_on,75,51,0
1,note_on,75,0,80
1,note_on,73,51,0
1,note_on,73,0,80
1,note_on,75,52,0
1,note_on,75,0,80
1,note_on,73,56,0
1,note_on,73,0,240
1,note_on,62,87,240
1,note_on,54,73,0
1,note_on,57,87,0
1,note_on,50,73,0
1,note_on,50,0,600
1,note_on,62,0,0
1,note_on,54,0,0
1,note_on,57,0,0
1,note_on,57,48,0
1,note_on,57,0,120
1,note_on,59,48,0
1,note_on,59,0,120
1,note_on,61,49,0
1,note_on,61,0,120
1,note_on,62,50,0
1,note_on,62,0,120
1,note_on,64,51,0
1,note_on,64,0,120
1,note_on,66,51,0
1,note_on,66,0,120
1,note_on,64,51,0
1,note_on,64,0,120
1,note_on,62,48,0
1,note_on,62,0,120
1,note_on,57,47,0
1,note_on,57,0,120
1,note_on,59,48,0
1,note_on,59,0,120
1,note_on,61,48,0
1,note_on,61,0,120
1,note_on,62,49,0
1,note_on,62,0,120
1,note_on,64,50,0
1,note_on,64,0,120
1,note_on,66,51,0
1,note_on,66,0,120
1,note_on,64,48,0
1,note_on,64,0,120
1,note_on,62,48,0
1,note_on,62,0,120
1,note_on,57,48,0
1,note_on,57,0,120
1,note_on,59,48,0
1,note_on,59,0,120
1,note_on,61,50,0
1,note_on,61,0,120
1,note_on,62,50,0
1,note_on,62,0,120
1,note_on,64,50,0
1,note_on,64,0,120
1,note_on,66,50,0
1,note_on,66,0,120
1,note_on,64,50,0
1,note_on,64,0,120
1,note_on,62,49,0
1,note_on,62,0,120
1,note_on,57,51,0
1,note_on,57,0,120
1,note_on,59,51,0
1,note_on,59,0,120
1,note_on,61,53,0
1,note_on,61,0,120
1,note_on,62,56,0
1,note_on,62,0,120
1,note_on,64,56,0
1,note_on,64,0,120
1,note_on,66,57,0
1,note_on,66,0,120
1,note_on,67,59,0
1,note_on,67,0,120
1,note_on,69,61,0
1,note_on,69,0,120
1,note_on,71,62,0
1,note_on,71,0,120
1,note_on,73,63,0
1,note_on,73,0,120
1,note_on,74,66,0
1,note_on,74,0,120
1,note_on,76,68,0
1,note_on,76,0,120
1,note_on,78,68,0
1,note_on,78,0,120
1,note_on,79,70,0
1,note_on,79,0,120
1,note_on,80,72,0
1,note_on,80,0,120
1,note_on,81,79,0
1,note_on,69,67,0
1,note_on,69,0,960
1,note_on,81,0,0
1,note_on,73,77,0
1,note_on,61,65,0
1,note_on,61,0,960
1,note_on,73,0,0
1,note_on,64,65,0
1,note_on,76,77,0
1,note_on,76,0,960
1,note_on,64,0,0
1,note_on,48,65,0
1,note_on,54,65,0
1,note_on,60,77,0
1,note_on,60,0,960
1,note_on,54,0,0
1,note_on,48,0,0
1,note_on,64,48,240
1,note_on,56,48,0
1,note_on,56,0,120
1,note_on,64,0,0
1,note_on,64,48,120
1,note_on,56,48,0
1,note_on,56,0,120
1,note_on,64,0,0
1,note_on,64,48,120
1,note_on,56,48,0
1,note_on,56,0,120
1,note_on,64,0,0
1,note_on,64,48,120
1,note_on,56,48,0
1,note_on,56,0,120
1,note_on,64,0,0
1,note_on,64,48,120
1,note_on,56,48,0
1,note_on,56,0,120
1,note_on,64,0,0
1,note_on,63,46,120
1,note_on,56,46,0
1,note_on,56,0,120
1,note_on,63,0,0
1,note_on,56,45,120
1,note_on,61,45,0
1,note_on,61,0,120
1,note_on,56,0,0
1,note_on,60,53,120
1,note_on,56,53,0
1,note_on,56,0,240
1,note_on,60,0,0
1,note_on,60,48,0
1,note_on,68,48,0
1,note_on,68,0,120
1,note_on,60,0,0
1,note_on,68,48,120
1,note_on,60,48,0
1,note_on,60,0,120
1,note_on,68,0,0
1,note_on,60,48,120
1,note_on,68,48,0
1,note_on,68,0,120
1,note_on,60,0,0
1,note_on,60,48,120
1,note_on,68,48,0
1,note_on,68,0,120
1,note_on,60,0,0
1,note_on,68,48,120
1,note_on,60,48,0
1,note_on,60,0,120
1,note_on,68,0,0
1,note_on,68,48,120
1,note_on,61,48,0
1,note_on,61,0,120
1,note_on,68,0,0
1,note_on,68,51,120
1,note_on,63,51,0
1,note_on,63,0,120
1,note_on,68,0,0
1,note_on,64,59,120
1,note_on,68,59,0
1,note_on,68,0,240
1,note_on,64,0,0
1,note_on,56,48,0
1,note_on,64,48,0
1,note_on,64,0,120
1,note_on,56,0,0
1,note_on,64,48,120
1,note_on,56,48,0
1,note_on,56,0,120
1,note_on,64,0,0
1,note_on,56,49,120
1,note_on,64,49,0
1,note_on,64,0,120
1,note_on,56,0,0
1,note_on,56,49,120
1,note_on,64,49,0
1,note_on,64,0,120
1,note_on,56,0,0
1,note_on,64,49,120
1,note_on,56,49,0
1,note_on,56,0,120
1,note_on,64,0,0
1,note_on,56,47,120
1,note_on,63,47,0
1,note_on,63,0,120
1,note_on,56,0,0
1,note_on,61,48,120
1,note_on,56,48,0
1,note_on,56,0,120
1,note_on,61,0,0
1,note_on,56,59,120
1,note_on,60,59,0
1,note_on,60,0,240
1,note_on,56,0,0
1,note_on,68,47,0
1,note_on,60,47,0
1,note_on,60,0,120
1,note_on,68,0,0
1,note_on,68,47,120
1,note_on,60,47,0
1,note_on,60,0,120
1,note_on,68,0,0
1,note_on,60,47,120
1,note_on,68,47,0
1,note_on,68,0,120
1,note_on,60,0,0
1,note_on,60,47,120
1,note_on,68,47,0
1,note_on,68,0,120
1,note_on,60,0,0
1,note_on,60,47,120
1,note_on,68,47,0
1,note_on,68,0,120
1,note_on,60,0,0
1,note_on,61,47,120
1,note_on,68,47,0
1,note_on,68,0,120
1,note_on,61,0,0
1,note_on,68,51,120
1,note_on,63,51,0
1,note_on,63,0,120
1,note_on,68,0,0
1,note_on,68,61,120
1,note_on,64,61,0
1,note_on,64,0,120
1,note_on,68,0,0
1,note_on,68,47,120
1,note_on,64,47,0
1,note_on,64,0,120
1,note_on,68,0,0
1,note_on,64,48,120
1,note_on,68,48,0
1,note_on,68,0,240
1,note_on,64,0,0
1,note_on,61,45,0
1,note_on,64,45,0
1,note_on,64,0,240
1,note_on,61,0,0
1,note_on,66,48,240
1,note_on,69,48,0
1,note_on,69,0,120
1,note_on,66,0,0
1,note_on,69,48,120
1,note_on,66,48,0
1,note_on,66,0,240
1,note_on,69,0,0
1,note_on,61,46,0
1,note_on,66,46,0
1,note_on,66,0,240
1,note_on,61,0,0
1,note_on,68,47,240
1,note_on,64,47,0
1,note_on,64,0,120
1,note_on,68,0,0
1,note_on,68,47,120
1,note_on,64,47,0
1,note_on,64,0,240
1,note_on,68,0,0
1,note_on,64,46,0
1,note_on,61,46,0
1,note_on,61,0,240
1,note_on,64,0,0
1,note_on,63,47,240
1,note_on,68,47,0
1,note_on,68,0,120
1,note_on,63,0,0
1,note_on,63,47,120
1,note_on,68,47,0
1,note_on,68,0,240
1,note_on,63,0,0
1,note_on,60,45,0
1,note_on,63,45,0
1,note_on,63,0,240
1,note_on,60,0,0
1,note_on,61,59,0
1,note_on,64,59,0
1,note_on,64,0,240
1,note_on,61,0,0
1,note_on,64,39,0
1,note_on,76,47,0
1,note_on,68,47,0
1,note_on,68,0,120
1,note_on,76,0,0
1,note_on,64,0,0
1,note_on,76,47,120
1,note_on,64,39,0
1,note_on,68,47,0
1,note_on,68,0,120
1,note_on,64,0,0
1,note_on,76,0,0
1,note_on,64,39,120
1,note_on,68,47,0
1,note_on,76,47,0
1,note_on,76,0,120
1,note_on,68,0,0
1,note_on,64,0,0
1,note_on,68,47,120
1,note_on,64,39,0
1,note_on,76,47,0
1,note_on,76,0,120
1,note_on,64,0,0
1,note_on,68,0,0
1,note_on,68,47,120
1,note_on,64,39,0
1,note_on,76,47,0
1,note_on,76,0,120
1,note_on,64,0,0
1,note_on,68,0,0
1,note_on,66,50,120
1,note_on,63,42,0
1,note_on,75,50,0
1,note_on,75,0,120
1,note_on,63,0,0
1,note_on,66,0,0
1,note_on,61,44,120
1,note_on,73,52,0
1,note_on,64,52,0
1,note_on,64,0,120
1,note_on,73,0,0
1,note_on,61,0,0
1,note_on,63,58,120
1,note_on,72,58,0
1,note_on,60,49,0
1,note_on,60,0,240
1,note_on,72,0,0
1,note_on,63,0,0
1,note_on,72,68,0
1,note_on,75,81,0
1,note_on,84,81,0
1,note_on,84,0,120
1,note_on,75,0,0
1,note_on,72,0,0
1,note_on,75,86,120
1,note_on,72,73,0
1,note_on,84,86,0
1,note_on,84,0,120
1,note_on,72,0,0
1,note_on,75,0,0
1,note_on,72,68,120
1,note_on,84,80,0
1,note_on,75,80,0
1,note_on,75,0,120
1,note_on,84,0,0
1,note_on,72,0,0
1,note_on,72,73,120
1,note_on,75,86,0
1,note_on,84,86,0
1,note_on,84,0,120
1,note_on,75,0,0
1,note_on,72,0,0
1,note_on,72,68,120
1,note_on,84,81,0
1,note_on,75,81,0
1,note_on,75,0,120
1,note_on,84,0,0
1,note_on,72,0,0
1,note_on,76,89,120
1,note_on,73,74,0
1,note_on,85,89,0
1,note_on,85,0,120
1,note_on,73,0,0
1,note_on,76,0,0
1,note_on,87,84,120
1,note_on,75,71,0
1,note_on,78,84,0
1,note_on,78,0,120
1,note_on,75,0,0
1,note_on,87,0,0
1,note_on,88,96,120
1,note_on,80,96,0
1,note_on,76,81,0
1,note_on,76,0,240
1,note_on,80,0,0
1,note_on,88,0,0
1,note_on,68,47,0
1,note_on,64,39,0
1,note_on,76,47,0
1,note_on,76,0,120
1,note_on,64,0,0
1,note_on,68,0,0
1,note_on,64,39,120
1,note_on,68,47,0
1,note_on,76,47,0
1,note_on,76,0,120
1,note_on,68,0,0
1,note_on,64,0,0
1,note_on,68,47,120
1,note_on,64,39,0
1,note_on,76,47,0
1,note_on,76,0,120
1,note_on,64,0,0
1,note_on,68,0,0
1,note_on,76,48,120
1,note_on,64,40,0
1,note_on,68,48,0
1,note_on,68,0,120
1,note_on,64,0,0
1,note_on,76,0,0
1,note_on,68,48,120
1,note_on,64,40,0
1,note_on,76,48,0
1,note_on,76,0,120
1,note_on,64,0,0
1,note_on,68,0,0
1,note_on,63,40,120
1,note_on,66,48,0
1,note_on,75,48,0
1,note_on,75,0,120
1,note_on,66,0,0
1,note_on,63,0,0
1,note_on,64,50,120
1,note_on,73,50,0
1,note_on,61,42,0
1,note_on,61,0,120
1,note_on,73,0,0
1,note_on,64,0,0
1,note_on,72,56,120
1,note_on,63,56,0
1,note_on,60,47,0
1,note_on,60,0,240
1,note_on,63,0,0
1,note_on,72,0,0
1,note_on,75,78,0
1,note_on,84,78,0
1,note_on,72,66,0
1,note_on,72,0,120
1,note_on,84,0,0
1,note_on,75,0,0
1,note_on,75,86,120
1,note_on,72,73,0
1,note_on,84,86,0
1,note_on,84,0,120
1,note_on,72,0,0
1,note_on,75,0,0
1,note_on,75,80,120
1,note_on,72,68,0
1,note_on,84,80,0
1,note_on,84,0,120
1,note_on,72,0,0
1,note_on,75,0,0
1,note_on,84,86,120
1,note_on,72,73,0
1,note_on,75,86,0
1,note_on,75,0,120
1,note_on,72,0,0
1,note_on,84,0,0
1,note_on,75,86,120
1,note_on,84,86,0
1,note_on,72,73,0
1,note_on,72,0,120
1,note_on,84,0,0
1,note_on,75,0,0
1,note_on,73,73,120
1,note_on,85,86,0
1,note_on,76,86,0
1,note_on,76,0,120
1,note_on,85,0,0
1,note_on,73,0,0
1,note_on,87,80,120
1,note_on,75,68,0
1,note_on,78,80,0
1,note_on,78,0,120
1,note_on,75,0,0
1,note_on,87,0,0
1,note_on,76,82,120
1,note_on,80,97,0
1,note_on,88,97,0
1,note_on,88,0,240
1,note_on,80,0,0
1,note_on,76,0,0
1,note_on,80,50,0
1,note_on,85,50,0
1,note_on,85,0,120
1,note_on,80,0,0
1,note_on,85,50,120
1,note_on,80,50,0
1,note_on,80,0,240
1,note_on,85,0,0
1,note_on,80,48,0
1,note_on,76,48,0
1,note_on,76,0,240
1,note_on,80,0,0
1,note_on,81,49,240
1,note_on,85,49,0
1,note_on,85,0,120
1,note_on,81,0,0
1,note_on,85,49,120
1,note_on,81,49,0
1,note_on,81,0,240
1,note_on,85,0,0
1,note_on,78,48,0
1,note_on,81,48,0
1,note_on,81,0,240
1,note_on,78,0,0
1,note_on,80,49,240
1,note_on,76,49,0
1,note_on,76,0,120
1,note_on,80,0,0
1,note_on,76,49,120
1,note_on,80,49,0
1,note_on,80,0,240
1,note_on,76,0,0
1,note_on,73,47,0
1,note_on,76,47,0
1,note_on,76,0,240
1,note_on,73,0,0
1,note_on,80,51,240
1,note_on,75,51,0
1,note_on,75,0,120
1,note_on,80,0,0
1,note_on,75,51,120
1,note_on,80,51,0
1,note_on,80,0,240
1,note_on,75,0,0
1,note_on,72,49,0
1,note_on,75,49,0
1,note_on,75,0,240
1,note_on,72,0,0
1,note_on,76,56,240
1,note_on,80,56,0
1,note_on,80,0,120
1,note_on,76,0,0
1,note_on,76,56,120
1,note_on,80,56,0
1,note_on,80,0,240
1,note_on,76,0,0
1,note_on,68,54,0
1,note_on,76,54,0
1,note_on,76,0,240
1,note_on,68,0,0
1,note_on,78,65,240
1,note_on,69,65,0
1,note_on,69,0,120
1,note_on,78,0,0
1,note_on,78,63,120
1,note_on,69,63,0
1,note_on,69,0,240
1,note_on,78,0,0
1,note_on,66,62,0
1,note_on,74,62,0
1,note_on,74,0,240
1,note_on,66,0,0
1,note_on,76,57,240
1,note_on,68,57,0
1,note_on,68,0,120
1,note_on,76,0,0
1,note_on,68,57,120
1,note_on,76,57,0
1,note_on,76,0,240
1,note_on,68,0,0
1,note_on,64,57,0
1,note_on,73,57,0
1,note_on,73,0,240
1,note_on,64,0,0
1,note_on,75,49,240
1,note_on,66,49,0
1,note_on,66,0,120
1,note_on,75,0,0
1,note_on,75,49,120
1,note_on,66,49,0
1,note_on,66,0,240
1,note_on,75,0,0
1,note_on,72,47,0
1,note_on,63,47,0
1,note_on,63,0,240
1,note_on,72,0,0
1,note_on,73,50,0
1,note_on,64,50,0
1,note_on,64,0,480
1,note_on,73,0,0
1,note_on,64,50,960
1,note_on,64,0,360
1,note_on,61,50,0
1,note_on,61,0,120
1,note_on,60,57,0
1,note_on,60,0,480
1,note_on,60,47,0
1,note_on,54,39,0
1,note_on,68,47,0
1,note_on,68,0,360
1,note_on,54,0,0
1,note_on,60,0,0
1,note_on,60,47,120
1,note_on,68,47,0
1,note_on,54,39,0
1,note_on,54,0,360
1,note_on,68,0,0
1,note_on,60,0,0
1,note_on,54,42,120
1,note_on,60,50,0
1,note_on,68,50,0
1,note_on,68,0,360
1,note_on,60,0,0
1,note_on,54,0,0
1,note_on,52,50,0
1,note_on,52,0,60
1,note_on,61,50,0
1,note_on,61,0,60
1,note_on,68,57,0
1,note_on,68,0,1440
1,note_on,76,58,0
1,note_on,76,0,360
1,note_on,73,58,0
1,note_on,73,0,120
1,note_on,72,67,0
1,note_on,72,0,480
1,note_on,80,57,0
1,note_on,66,48,0
1,note_on,72,57,0
1,note_on,72,0,360
1,note_on,66,0,0
1,note_on,80,0,0
1,note_on,72,57,120
1,note_on,66,48,0
1,note_on,80,57,0
1,note_on,80,0,360
1,note_on,66,0,0
1,note_on,72,0,0
1,note_on,72,57,120
1,note_on,80,57,0
1,note_on,66,48,0
1,note_on,66,0,360
1,note_on,80,0,0
1,note_on,72,0,0
1,note_on,64,47,0
1,note_on,64,0,60
1,note_on,73,53,0
1,note_on,73,0,60
1,note_on,80,73,0
1,note_on,80,0,840
1,note_on,66,45,0
1,note_on,66,0,60
1,note_on,72,52,0
1,note_on,72,0,60
1,note_on,80,72,0
1,note_on,80,0,840
1,note_on,64,43,0
1,note_on,64,0,60
1,note_on,73,53,0
1,note_on,73,0,60
1,note_on,80,72,0
1,note_on,80,0,840
1,note_on,66,45,0
1,note_on,66,0,60
1,note_on,72,53,0
1,note_on,72,0,60
1,note_on,80,71,0
1,note_on,80,0,960
1,note_on,52,51,0
1,note_on,52,0,119
1,note_on,61,48,1
1,note_on,61,0,119
1,note_on,56,51,1
1,note_on,56,0,119
1,note_on,61,49,1
1,note_on,61,0,119
1,note_on,52,53,1
1,note_on,52,0,119
1,note_on,61,51,1
1,note_on,61,0,119
1,note_on,56,56,1
1,note_on,56,0,119
1,note_on,61,52,1
1,note_on,61,0,119
1,note_on,52,57,1
1,note_on,52,0,119
1,note_on,61,53,1
1,note_on,61,0,119
1,note_on,56,59,1
1,note_on,56,0,119
1,note_on,61,56,1
1,note_on,61,0,119
1,note_on,52,61,1
1,note_on,52,0,119
1,note_on,61,57,1
1,note_on,61,0,119
1,note_on,56,62,1
1,note_on,56,0,119
1,note_on,61,57,1
1,note_on,61,0,119
1,note_on,53,65,1
1,note_on,49,65,0
1,note_on,49,0,119
1,note_on,53,0,0
1,note_on,61,58,1
1,note_on,61,0,119
1,note_on,56,67,1
1,note_on,56,0,119
1,note_on,61,60,1
1,note_on,61,0,119
1,note_on,53,68,1
1,note_on,49,68,0
1,note_on,49,0,119
1,note_on,53,0,0
1,note_on,61,61,1
1,note_on,61,0,119
1,note_on,56,69,1
1,note_on,56,0,119
1,note_on,61,65,1
1,note_on,61,0,119
1,note_on,53,72,1
1,note_on,49,72,0
1,note_on,49,0,119
1,note_on,53,0,0
1,note_on,61,67,1
1,note_on,61,0,119
1,note_on,56,73,1
1,note_on,56,0,119
1,note_on,61,68,1
1,note_on,61,0,119
1,note_on,49,74,1
1,note_on,53,74,0
1,note_on,53,0,119
1,note_on,49,0,0
1,note_on,61,70,1
1,note_on,61,0,119
1,note_on,56,76,1
1,note_on,56,0,119
1,note_on,61,71,1
1,note_on,61,0,102
1,note_on,54,67,18
1,note_on,61,79,0
1,note_on,49,67,0
1,note_on,57,67,0
1,note_on,57,0,120
1,note_on,54,0,0
1,note_on,61,0,0
1,note_on,49,0,0
1,note_on,49,53,0
1,note_on,54,56,120
1,note_on,49,0,20
1,note_on,57,57,100
1,note_on,54,0,20
1,note_on,61,59,100
1,note_on,57,0,20
1,note_on,54,54,100
1,note_on,61,0,20
1,note_on,57,54,100
1,note_on,54,0,20
1,note_on,61,56,100
1,note_on,57,0,20
1,note_on,66,57,100
1,note_on,61,0,20
1,note_on,57,53,100
1,note_on,66,0,20
1,note_on,61,56,100
1,note_on,57,0,20
1,note_on,66,57,100
1,note_on,61,0,20
1,note_on,69,58,100
1,note_on,66,0,20
1,note_on,61,53,100
1,note_on,69,0,20
1,note_on,66,53,100
1,note_on,61,0,20
1,note_on,69,54,100
1,note_on,66,0,20
1,note_on,73,57,100
1,note_on,69,0,20
1,note_on,66,58,100
1,note_on,73,0,20
1,note_on,69,51,100
1,note_on,66,0,20
1,note_on,73,52,100
1,note_on,69,0,20
1,note_on,78,56,100
1,note_on,73,0,20
1,note_on,69,51,100
1,note_on,78,0,20
1,note_on,73,51,100
1,note_on,69,0,20
1,note_on,78,53,100
1,note_on,73,0,20
1,note_on,81,56,100
1,note_on,78,0,20
1,note_on,73,51,100
1,note_on,81,0,20
1,note_on,78,54,100
1,note_on,73,0,20
1,note_on,81,57,100
1,note_on,78,0,20
1,note_on,81,0,100
1,note_on,85,98,0
1,note_on,73,83,0
1,note_on,81,98,0
1,note_on,78,83,0
1,note_on,78,0,120
1,note_on,85,0,0
1,note_on,73,0,0
1,note_on,81,0,0
1,note_on,81,81,120
1,note_on,78,69,0
1,note_on,85,81,0
1,note_on,73,69,0
1,note_on,73,0,120
1,note_on,81,0,0
1,note_on,78,0,0
1,note_on,85,0,0
1,note_on,49,58,240
1,note_on,52,60,120
1,note_on,49,0,20
1,note_on,56,62,100
1,note_on,52,0,20
1,note_on,61,65,100
1,note_on,56,0,20
1,note_on,52,60,100
1,note_on,61,0,20
1,note_on,56,62,100
1,note_on,52,0,20
1,note_on,61,63,100
1,note_on,56,0,20
1,note_on,64,66,100
1,note_on,61,0,20
1,note_on,56,61,100
1,note_on,64,0,20
1,note_on,61,62,100
1,note_on,56,0,20
1,note_on,64,63,100
1,note_on,61,0,20
1,note_on,68,67,100
1,note_on,64,0,20
1,note_on,61,61,100
1,note_on,68,0,20
1,note_on,64,62,100
1,note_on,61,0,20
1,note_on,68,63,100
1,note_on,64,0,20
1,note_on,73,66,100
1,note_on,68,0,20
1,note_on,64,63,100
1,note_on,73,0,20
1,note_on,68,63,100
1,note_on,64,0,20
1,note_on,73,62,100
1,note_on,68,0,20
1,note_on,76,66,100
1,note_on,73,0,20
1,note_on,68,62,100
1,note_on,76,0,20
1,note_on,73,62,100
1,note_on,68,0,20
1,note_on,76,67,100
1,note_on,73,0,20
1,note_on,80,68,100
1,note_on,76,0,20
1,note_on,73,62,100
1,note_on,80,0,20
1,note_on,76,66,100
1,note_on,73,0,20
1,note_on,80,68,100
1,note_on,76,0,20
1,note_on,80,0,100
1,note_on,85,109,0
1,note_on,76,92,0
1,note_on,73,92,0
1,note_on,80,109,0
1,note_on,80,0,120
1,note_on,85,0,0
1,note_on,76,0,0
1,note_on,73,0,0
1,note_on,73,81,120
1,note_on,76,81,0
1,note_on,80,96,0
1,note_on,85,96,0
1,note_on,85,0,120
1,note_on,73,0,0
1,note_on,76,0,0
1,note_on,80,0,0
1,note_on,49,31,360
1,note_on,52,33,60
1,note_on,55,35,60
1,note_on,58,39,60
1,note_on,61,45,60
1,note_on,61,0,720
1,note_on,55,0,0
1,note_on,49,0,0
1,note_on,52,0,0
1,note_on,58,0,0
1,note_on,61,53,0
1,note_on,64,56,60
1,note_on,67,58,60
1,note_on,70,61,60
1,note_on,73,62,60
1,note_on,73,0,480
1,note_on,67,0,240
1,note_on,61,0,0
1,note_on,64,0,0
1,note_on,70,0,0
1,note_on,73,66,0
1,note_on,76,68,60
1,note_on,79,73,60
1,note_on,82,76,60
1,note_on,85,79,60
1,note_on,85,0,1440
1,note_on,79,0,0
1,note_on,73,0,0
1,note_on,76,0,0
1,note_on,82,0,0
1,note_on,45,29,240
1,note_on,48,32,60
1,note_on,51,35,60
1,note_on,54,38,60
1,note_on,57,41,60
1,note_on,57,0,720
1,note_on,51,0,0
1,note_on,45,0,0
1,note_on,48,0,0
1,note_on,54,0,0
1,note_on,57,56,0
1,note_on,60,57,60
1,note_on,63,58,60
1,note_on,66,59,60
1,note_on,69,62,60
1,note_on,69,0,480
1,note_on,69,73,120
1,note_on,63,0,120
1,note_on,66,0,0
1,note_on,57,0,0
1,note_on,60,0,0
1,note_on,72,77,0
1,note_on,75,79,120
1,note_on,81,91,120
1,note_on,81,0,1440
1,note_on,69,0,0
1,note_on,72,0,0
1,note_on,75,0,0
1,note_on,68,31,120
1,note_on,64,34,120
1,note_on,68,0,20
1,note_on,68,30,100
1,note_on,64,0,20
1,note_on,61,39,100
1,note_on,68,0,20
1,note_on,61,0,99
1,note_on,68,30,1
1,note_on,68,0,119
1,note_on,64,34,1
1,note_on,64,0,119
1,note_on,68,30,1
1,note_on,68,0,119
1,note_on,61,39,1
1,note_on,61,0,119
1,note_on,68,31,1
1,note_on,68,0,119
1,note_on,64,34,1
1,note_on,64,0,119
1,note_on,68,30,1
1,note_on,68,0,119
1,note_on,61,39,1
1,note_on,61,0,119
1,note_on,68,31,1
1,note_on,68,0,119
1,note_on,64,34,1
1,note_on,64,0,119
1,note_on,68,31,1
1,note_on,68,0,119
1,note_on,63,39,1
1,note_on,68,31,120
1,note_on,63,0,20
1,note_on,66,34,100
1,note_on,68,0,20
1,note_on,68,30,100
1,note_on,66,0,20
1,note_on,63,50,100
1,note_on,68,0,20
1,note_on,63,0,99
1,note_on,68,43,1
1,note_on,68,0,119
1,note_on,66,47,1
1,note_on,66,0,119
1,note_on,68,44,1
1,note_on,68,0,119
1,note_on,63,58,1
1,note_on,63,0,119
1,note_on,68,46,1
1,note_on,68,0,119
1,note_on,66,54,1
1,note_on,66,0,119
1,note_on,68,51,1
1,note_on,68,0,119
1,note_on,63,66,1
1,note_on,63,0,119
1,note_on,68,49,1
1,note_on,68,0,119
1,note_on,66,51,1
1,note_on,66,0,119
1,note_on,68,43,1
1,note_on,68,0,119
1,note_on,61,39,1
1,note_on,68,30,120
1,note_on,61,0,20
1,note_on,64,34,100
1,note_on,68,0,20
1,note_on,68,31,100
1,note_on,64,0,20
1,note_on,61,50,100
1,note_on,68,0,20
1,note_on,61,0,99
1,note_on,68,40,1
1,note_on,68,0,119
1,note_on,64,47,1
1,note_on,64,0,119
1,note_on,68,43,1
1,note_on,68,0,119
1,note_on,61,58,1
1,note_on,61,0,119
1,note_on,68,48,1
1,note_on,68,0,119
1,note_on,64,54,1
1,note_on,64,0,119
1,note_on,68,49,1
1,note_on,68,0,119
1,note_on,61,66,1
1,note_on,61,0,119
1,note_on,68,49,1
1,note_on,68,0,119
1,note_on,64,51,1
1,note_on,64,0,119
1,note_on,68,42,1
1,note_on,68,0,119
1,note_on,60,39,1
1,note_on,68,29,120
1,note_on,60,0,20
1,note_on,66,34,100
1,note_on,68,0,20
1,note_on,68,30,100
1,note_on,66,0,20
1,note_on,60,50,100
1,note_on,68,0,20
1,note_on,60,0,99
1,note_on,68,40,1
1,note_on,68,0,119
1,note_on,66,47,1
1,note_on,66,0,119
1,note_on,68,43,1
1,note_on,68,0,119
1,note_on,60,58,1
1,note_on,60,0,119
1,note_on,68,49,1
1,note_on,68,0,119
1,note_on,66,54,1
1,note_on,66,0,119
1,note_on,68,49,1
1,note_on,68,0,119
1,note_on,60,66,1
1,note_on,60,0,119
1,note_on,68,48,1
1,note_on,68,0,119
1,note_on,66,51,1
1,note_on,66,0,119
1,note_on,68,43,1
1,note_on,68,0,102
1,note_on,64,41,18
1,note_on,68,41,0
1,note_on,61,41,0
1,note_on,61,0,240
1,note_on,68,0,0
1,note_on,64,0,0
1,note_on,80,57,240
1,note_on,68,57,0
1,note_on,68,0,960
1,note_on,80,0,0
1,note_on,64,47,0
1,note_on,76,47,0
1,note_on,76,0,360
1,note_on,64,0,0
1,note_on,61,47,0
1,note_on,73,47,0
1,note_on,73,0,115
1,note_on,61,0,0
1,note_on,73,54,5
1,note_on,61,54,0
1,note_on,61,0,480
1,note_on,73,0,0
1,note_on,72,46,0
1,note_on,60,46,0
1,note_on,60,0,720
1,note_on,72,0,0
1,note_on,72,47,0
1,note_on,60,47,0
1,note_on,60,0,240
1,note_on,72,0,0
1,note_on,80,56,0
1,note_on,68,56,0
1,note_on,68,0,360
1,note_on,80,0,0
1,note_on,60,47,0
1,note_on,72,47,0
1,note_on,72,0,120
1,note_on,60,0,0
1,note_on,63,46,0
1,note_on,75,46,0
1,note_on,75,0,480
1,note_on,63,0,0
1,note_on,61,47,0
1,note_on,73,47,0
1,note_on,73,0,720
1,note_on,61,0,0
1,note_on,73,46,0
1,note_on,61,46,0
1,note_on,61,0,240
1,note_on,73,0,0
1,note_on,80,56,0
1,note_on,68,56,0
1,note_on,68,0,360
1,note_on,80,0,0
1,note_on,61,46,0
1,note_on,73,46,0
1,note_on,73,0,120
1,note_on,61,0,0
1,note_on,76,49,0
1,note_on,64,49,0
1,note_on,64,0,480
1,note_on,76,0,0
1,note_on,75,48,0
1,note_on,63,48,0
1,note_on,63,0,720
1,note_on,75,0,0
1,note_on,63,47,0
1,note_on,75,47,0
1,note_on,75,0,240
1,note_on,63,0,0
1,note_on,80,54,0
1,note_on,68,54,0
1,note_on,68,0,360
1,note_on,80,0,0
1,note_on,75,47,0
1,note_on,63,47,0
1,note_on,63,0,120
1,note_on,75,0,0
1,note_on,66,50,0
1,note_on,78,50,0
1,note_on,78,0,240
1,note_on,66,0,0
1,note_on,64,48,0
1,note_on,76,48,0
1,note_on,76,0,240
1,note_on,64,0,0
1,note_on,85,54,0
1,note_on,73,54,0
1,note_on,73,0,120
1,note_on,85,0,0
1,note_on,64,51,120
1,note_on,76,51,0
1,note_on,76,0,120
1,note_on,64,0,0
1,note_on,66,57,120
1,note_on,78,57,0
1,note_on,78,0,240
1,note_on,66,0,0
1,note_on,77,56,0
1,note_on,65,56,0
1,note_on,65,0,240
1,note_on,77,0,0
1,note_on,73,60,0
1,note_on,85,60,0
1,note_on,85,0,120
1,note_on,73,0,0
1,note_on,65,60,120
1,note_on,77,60,0
1,note_on,77,0,120
1,note_on,65,0,0
1,note_on,80,66,120
1,note_on,68,66,0
1,note_on,68,0,240
1,note_on,80,0,0
1,note_on,66,63,0
1,note_on,78,63,0
1,note_on,78,0,240
1,note_on,66,0,0
1,note_on,73,68,0
1,note_on,85,68,0
1,note_on,85,0,120
1,note_on,73,0,0
1,note_on,66,68,120
1,note_on,78,68,0
1,note_on,78,0,120
1,note_on,66,0,0
1,note_on,81,73,120
1,note_on,69,73,0
1,note_on,69,0,240
1,note_on,81,0,0
1,note_on,80,72,0
1,note_on,68,72,0
1,note_on,68,0,240
1,note_on,80,0,0
1,note_on,73,78,0
1,note_on,85,78,0
1,note_on,85,0,120
1,note_on,73,0,0
1,note_on,68,76,120
1,note_on,80,76,0
1,note_on,80,0,120
1,note_on,68,0,0
1,note_on,81,84,120
1,note_on,81,0,160
1,note_on,78,67,0
1,note_on,78,0,160
1,note_on,73,66,0
1,note_on,73,0,160
1,note_on,69,73,0
1,note_on,69,0,160
1,note_on,66,62,0
1,note_on,66,0,160
1,note_on,61,63,0
1,note_on,61,0,160
1,note_on,69,71,0
1,note_on,69,0,160
1,note_on,66,63,0
1,note_on,66,0,160
1,note_on,61,63,0
1,note_on,61,0,160
1,note_on,57,71,0
1,note_on,57,0,160
1,note_on,54,61,0
1,note_on,54,0,160
1,note_on,49,62,0
1,note_on,49,0,160
1,note_on,57,78,0
1,note_on,57,0,120
1,note_on,54,61,0
1,note_on,54,0,120
1,note_on,49,67,0
1,note_on,49,0,120
1,note_on,45,62,0
1,note_on,45,0,120
1,note_on,49,71,0
1,note_on,49,0,120
1,note_on,52,62,0
1,note_on,52,0,120
1,note_on,56,67,0
1,note_on,56,0,120
1,note_on,61,62,0
1,note_on,61,0,120
1,note_on,66,71,0
1,note_on,66,0,120
1,note_on,69,61,0
1,note_on,69,0,120
1,note_on,73,67,0
1,note_on,73,0,120
1,note_on,78,60,0
1,note_on,78,0,120
1,note_on,81,72,0
1,note_on,81,0,120
1,note_on,78,63,0
1,note_on,78,0,120
1,note_on,73,68,0
1,note_on,73,0,120
1,note_on,69,65,0
1,note_on,69,0,120
1,note_on,81,84,0
1,note_on,81,0,160
1,note_on,78,65,0
1,note_on,78,0,160
1,note_on,74,66,0
1,note_on,74,0,160
1,note_on,69,71,0
1,note_on,69,0,160
1,note_on,66,62,0
1,note_on,66,0,160
1,note_on,62,65,0
1,note_on,62,0,160
1,note_on,69,70,0
1,note_on,69,0,160
1,note_on,66,62,0
1,note_on,66,0,160
1,note_on,62,63,0
1,note_on,62,0,160
1,note_on,57,72,0
1,note_on,57,0,160
1,note_on,54,62,0
1,note_on,54,0,160
1,note_on,50,62,0
1,note_on,50,0,160
1,note_on,57,77,0
1,note_on,57,0,120
1,note_on,54,65,0
1,note_on,54,0,120
1,note_on,50,70,0
1,note_on,50,0,120
1,note_on,45,66,0
1,note_on,45,0,120
1,note_on,50,73,0
1,note_on,50,0,120
1,note_on,54,62,0
1,note_on,54,0,120
1,note_on,57,68,0
1,note_on,57,0,120
1,note_on,62,63,0
1,note_on,62,0,120
1,note_on,66,72,0
1,note_on,66,0,120
1,note_on,69,62,0
1,note_on,69,0,120
1,note_on,74,68,0
1,note_on,74,0,120
1,note_on,78,65,0
1,note_on,78,0,120
1,note_on,81,78,0
1,note_on,81,0,120
1,note_on,78,66,0
1,note_on,78,0,120
1,note_on,74,70,0
1,note_on,74,0,120
1,note_on,69,67,0
1,note_on,69,0,120
1,note_on,85,85,0
1,note_on,85,0,160
1,note_on,82,68,0
1,note_on,82,0,160
1,note_on,79,67,0
1,note_on,79,0,160
1,note_on,76,78,0
1,note_on,76,0,160
1,note_on,73,65,0
1,note_on,73,0,160
1,note_on,70,67,0
1,note_on,70,0,160
1,note_on,76,78,0
1,note_on,76,0,160
1,note_on,73,68,0
1,note_on,73,0,160
1,note_on,70,68,0
1,note_on,70,0,160
1,note_on,67,74,0
1,note_on,67,0,120
1,note_on,64,62,0
1,note_on,64,0,120
1,note_on,61,67,0
1,note_on,61,0,120
1,note_on,58,62,0
1,note_on,58,0,120
1,note_on,64,72,0
1,note_on,64,0,120
1,note_on,61,63,0
1,note_on,61,0,120
1,note_on,58,68,0
1,note_on,58,0,120
1,note_on,55,63,0
1,note_on,55,0,120
1,note_on,52,73,0
1,note_on,52,0,120
1,note_on,49,65,0
1,note_on,49,0,120
1,note_on,52,68,0
1,note_on,52,0,120
1,note_on,55,63,0
1,note_on,55,0,120
1,note_on,58,79,0
1,note_on,58,0,80
1,note_on,61,64,0
1,note_on,61,0,80
1,note_on,64,69,0
1,note_on,64,0,80
1,note_on,67,66,0
1,note_on,67,0,80
1,note_on,70,70,0
1,note_on,70,0,80
1,note_on,73,65,0
1,note_on,73,0,80
1,note_on,76,71,0
1,note_on,76,0,80
1,note_on,79,67,0
1,note_on,79,0,80
1,note_on,82,72,0
1,note_on,82,0,80
1,note_on,85,67,0
1,note_on,85,0,80
1,note_on,82,73,0
1,note_on,82,0,80
1,note_on,76,68,0
1,note_on,76,0,80
1,note_on,88,87,0
1,note_on,88,0,160
1,note_on,85,67,0
1,note_on,85,0,160
1,note_on,80,67,0
1,note_on,80,0,160
1,note_on,76,78,0
1,note_on,76,0,160
1,note_on,73,66,0
1,note_on,73,0,160
1,note_on,68,67,0
1,note_on,68,0,160
1,note_on,76,78,0
1,note_on,76,0,160
1,note_on,73,66,0
1,note_on,73,0,160
1,note_on,68,66,0
1,note_on,68,0,160
1,note_on,64,78,0
1,note_on,64,0,120
1,note_on,73,67,0
1,note_on,73,0,120
1,note_on,68,70,0
1,note_on,68,0,120
1,note_on,64,68,0
1,note_on,64,0,120
1,note_on,61,79,0
1,note_on,61,0,120
1,note_on,68,65,0
1,note_on,68,0,120
1,note_on,64,68,0
1,note_on,64,0,120
1,note_on,61,65,0
1,note_on,61,0,120
1,note_on,56,78,0
1,note_on,56,0,120
1,note_on,64,63,0
1,note_on,64,0,120
1,note_on,61,67,0
1,note_on,61,0,120
1,note_on,56,62,0
1,note_on,56,0,120
1,note_on,52,79,0
1,note_on,52,0,120
1,note_on,61,65,0
1,note_on,61,0,120
1,note_on,56,68,0
1,note_on,56,0,120
1,note_on,52,65,0
1,note_on,52,0,120
1,note_on,49,78,0
1,note_on,49,0,120
1,note_on,56,63,0
1,note_on,56,0,120
1,note_on,52,68,0
1,note_on,52,0,120
1,note_on,49,62,0
1,note_on,49,0,120
1,note_on,44,47,0
1,note_on,44,0,120
1,note_on,45,47,0
1,note_on,45,0,120
1,note_on,46,48,0
1,note_on,46,0,120
1,note_on,47,49,0
1,note_on,47,0,120
1,note_on,48,51,0
1,note_on,48,0,120
1,note_on,49,51,0
1,note_on,49,0,120
1,note_on,50,51,0
1,note_on,50,0,120
1,note_on,51,52,0
1,note_on,51,0,120
1,note_on,52,54,0
1,note_on,52,0,120
1,note_on,53,56,0
1,note_on,53,0,120
1,note_on,54,56,0
1,note_on,54,0,120
1,note_on,55,57,0
1,note_on,55,0,120
1,note_on,56,58,0
1,note_on,56,0,120
1,note_on,57,59,0
1,note_on,57,0,120
1,note_on,58,60,0
1,note_on,58,0,120
1,note_on,59,61,0
1,note_on,59,0,120
1,note_on,60,62,0
1,note_on,60,0,120
1,note_on,61,62,0
1,note_on,61,0,120
1,note_on,62,63,0
1,note_on,62,0,120
1,note_on,63,65,0
1,note_on,63,0,120
1,note_on,64,67,0
1,note_on,64,0,96
1,note_on,65,68,0
1,note_on,65,0,96
1,note_on,66,68,0
1,note_on,66,0,96
1,note_on,67,68,0
1,note_on,67,0,96
1,note_on,68,69,0
1,note_on,68,0,96
1,note_on,69,70,0
1,note_on,69,0,96
1,note_on,70,71,0
1,note_on,70,0,96
1,note_on,71,72,0
1,note_on,71,0,96
1,note_on,72,73,0
1,note_on,72,0,96
1,note_on,73,73,0
1,note_on,73,0,96
1,note_on,74,74,0
1,note_on,74,0,80
1,note_on,75,74,0
1,note_on,75,0,80
1,note_on,76,75,0
1,note_on,76,0,80
1,note_on,77,76,0
1,note_on,77,0,60
1,note_on,78,77,0
1,note_on,78,0,60
1,note_on,79,77,0
1,note_on,79,0,60
1,note_on,80,77,0
1,note_on,80,0,60
1,note_on,81,81,0
1,note_on,81,0,90
1,note_on,83,72,0
1,note_on,83,0,90
1,note_on,81,77,0
1,note_on,81,0,80
1,note_on,83,71,0
1,note_on,83,0,80
1,note_on,81,79,0
1,note_on,81,0,80
1,note_on,83,71,0
1,note_on,83,0,80
1,note_on,81,81,0
1,note_on,81,0,80
1,note_on,83,74,0
1,note_on,83,0,80
1,note_on,81,81,0
1,note_on,81,0,80
1,note_on,83,73,0
1,note_on,83,0,80
1,note_on,81,81,0
1,note_on,81,0,80
1,note_on,83,79,0
1,note_on,83,0,80
1,note_on,81,79,0
1,note_on,81,0,75
1,note_on,83,76,0
1,note_on,83,0,75
1,note_on,81,79,0
1,note_on,81,0,75
1,note_on,83,76,0
1,note_on,83,0,75
1,note_on,81,78,0
1,note_on,81,0,70
1,note_on,83,74,0
1,note_on,83,0,75
1,note_on,81,77,0
1,note_on,81,0,75
1,note_on,83,70,0
1,note_on,83,0,80
1,note_on,81,74,0
1,note_on,81,0,80
1,note_on,83,68,0
1,note_on,83,0,80
1,note_on,81,74,0
1,note_on,81,0,90
1,note_on,83,68,0
1,note_on,83,0,90
1,note_on,80,75,0
1,note_on,80,0,160
1,note_on,78,62,0
1,note_on,78,0,160
1,note_on,76,62,0
1,note_on,76,0,160
1,note_on,75,62,0
1,note_on,75,0,160
1,note_on,78,65,0
1,note_on,78,0,160
1,note_on,73,62,0
1,note_on,73,0,160
1,note_on,72,62,0
1,note_on,72,0,160
1,note_on,75,65,0
1,note_on,75,0,160
1,note_on,69,62,0
1,note_on,69,0,160
1,note_on,68,62,0
1,note_on,68,0,160
1,note_on,66,62,0
1,note_on,66,0,160
1,note_on,69,65,0
1,note_on,69,0,160
1,note_on,64,62,0
1,note_on,64,0,160
1,note_on,63,62,0
1,note_on,63,0,160
1,note_on,66,66,0
1,note_on,66,0,160
1,note_on,61,62,0
1,note_on,61,0,160
1,note_on,60,62,0
1,note_on,60,0,160
1,note_on,63,62,0
1,note_on,63,0,160
1,note_on,57,62,0
1,note_on,57,0,160
1,note_on,56,62,0
1,note_on,56,0,160
1,note_on,54,62,0
1,note_on,54,0,160
1,note_on,57,63,0
1,note_on,57,0,160
1,note_on,52,62,0
1,note_on,52,0,160
1,note_on,51,62,0
1,note_on,51,0,160
1,note_on,54,65,0
1,note_on,54,0,160
1,note_on,49,62,0
1,note_on,49,0,160
1,note_on,48,62,0
1,note_on,48,0,160
1,note_on,51,61,0
1,note_on,51,0,120
1,note_on,45,58,40
1,note_on,45,0,120
1,note_on,44,52,40
1,note_on,44,0,120
1,note_on,64,41,5320
1,note_on,64,0,360
1,note_on,61,41,0
1,note_on,61,0,120
1,note_on,60,49,0
1,note_on,60,0,480
1,note_on,60,42,0
1,note_on,68,42,0
1,note_on,54,35,0
1,note_on,54,0,480
1,note_on,68,0,0
1,note_on,60,0,0
1,note_on,60,41,0
1,note_on,54,34,0
1,note_on,68,41,0
1,note_on,68,0,480
1,note_on,54,0,0
1,note_on,60,0,0
1,note_on,54,34,0
1,note_on,68,41,0
1,note_on,60,41,0
1,note_on,60,0,360
1,note_on,68,0,0
1,note_on,54,0,0
1,note_on,52,33,0
1,note_on,52,0,60
1,note_on,61,39,0
1,note_on,61,0,60
1,note_on,68,49,0
1,note_on,68,0,1440
1,note_on,76,47,0
1,note_on,76,0,360
1,note_on,73,47,0
1,note_on,73,0,120
1,note_on,72,56,0
1,note_on,72,0,480
1,note_on,66,39,0
1,note_on,72,47,0
1,note_on,80,47,0
1,note_on,80,0,480
1,note_on,72,0,0
1,note_on,66,0,0
1,note_on,80,47,0
1,note_on,72,47,0
1,note_on,66,39,0
1,note_on,66,0,480
1,note_on,72,0,0
1,note_on,80,0,0
1,note_on,72,47,0
1,note_on,66,39,0
1,note_on,80,47,0
1,note_on,80,0,360
1,note_on,66,0,0
1,note_on,72,0,0
1,note_on,64,41,0
1,note_on,64,0,60
1,note_on,73,46,0
1,note_on,73,0,60
1,note_on,80,58,0
1,note_on,80,0,840
1,note_on,66,49,0
1,note_on,66,0,60
1,note_on,72,53,0
1,note_on,72,0,60
1,note_on,80,63,0
1,note_on,80,0,840
1,note_on,64,56,0
1,note_on,64,0,60
1,note_on,73,62,0
1,note_on,73,0,60
1,note_on,80,70,0
1,note_on,80,0,840
1,note_on,66,60,0
1,note_on,66,0,60
1,note_on,72,68,0
1,note_on,72,0,60
1,note_on,80,80,0
1,note_on,80,0,840
1,note_on,64,68,0
1,note_on,64,0,60
1,note_on,73,68,0
1,note_on,73,0,60
1,note_on,80,74,0
1,note_on,64,68,120
1,note_on,80,0,20
1,note_on,68,71,100
1,note_on,64,0,20
1,note_on,73,68,100
1,note_on,68,0,20
1,note_on,76,74,100
1,note_on,73,0,20
1,note_on,68,69,100
1,note_on,76,0,20
1,note_on,73,72,100
1,note_on,68,0,20
1,note_on,76,68,100
1,note_on,73,0,20
1,note_on,80,74,100
1,note_on,76,0,20
1,note_on,73,68,100
1,note_on,80,0,20
1,note_on,76,71,100
1,note_on,73,0,20
1,note_on,80,69,100
1,note_on,76,0,20
1,note_on,85,75,100
1,note_on,80,0,20
1,note_on,76,72,100
1,note_on,85,0,20
1,note_on,80,74,100
1,note_on,76,0,20
1,note_on,85,72,100
1,note_on,80,0,20
1,note_on,88,80,100
1,note_on,85,0,20
1,note_on,85,80,100
1,note_on,88,0,20
1,note_on,80,79,100
1,note_on,85,0,20
1,note_on,76,74,100
1,note_on,80,0,20
1,note_on,85,81,100
1,note_on,76,0,20
1,note_on,80,80,100
1,note_on,85,0,20
1,note_on,76,79,100
1,note_on,80,0,20
1,note_on,73,73,100
1,note_on,76,0,20
1,note_on,80,80,100
1,note_on,73,0,20
1,note_on,76,79,100
1,note_on,80,0,20
1,note_on,73,78,100
1,note_on,76,0,20
1,note_on,68,74,100
1,note_on,73,0,20
1,note_on,76,80,100
1,note_on,68,0,20
1,note_on,73,80,100
1,note_on,76,0,20
1,note_on,68,78,100
1,note_on,73,0,20
1,note_on,64,73,100
1,note_on,68,0,20
1,note_on,73,78,100
1,note_on,64,0,20
1,note_on,68,75,100
1,note_on,73,0,20
1,note_on,64,74,100
1,note_on,68,0,20
1,note_on,61,69,100
1,note_on,64,0,20
1,note_on,68,78,100
1,note_on,61,0,20
1,note_on,64,75,100
1,note_on,68,0,20
1,note_on,61,74,100
1,note_on,64,0,20
1,note_on,56,71,100
1,note_on,61,0,20
1,note_on,64,78,100
1,note_on,56,0,20
1,note_on,61,75,100
1,note_on,64,0,20
1,note_on,56,74,100
1,note_on,61,0,20
1,note_on,52,71,100
1,note_on,56,0,20
1,note_on,61,78,100
1,note_on,52,0,20
1,note_on,56,75,100
1,note_on,61,0,20
1,note_on,52,74,100
1,note_on,56,0,20
1,note_on,56,71,100
1,note_on,52,0,20
1,note_on,49,74,100
1,note_on,56,0,20
1,note_on,49,0,460
1,note_on,73,83,480
1,note_on,80,98,0
1,note_on,76,83,0
1,note_on,85,98,0
1,note_on,85,0,360
1,note_on,73,0,0
1,note_on,80,0,0
1,note_on,76,0,0
1,note_on,61,83,600
1,note_on,64,83,0
1,note_on,68,97,0
1,note_on,73,97,0
1,note_on,73,0,360
1,note_on,61,0,0
1,note_on,64,0,0
1,note_on,68,0,0
2,note_on,37,42,1
2,note_on,37,0,120
2,note_on,44,39,119
2,note_on,44,0,120
2,note_on,37,43,120
2,note_on,37,0,120
2,note_on,44,39,120
2,note_on,44,0,120
2,note_on,37,41,120
2,note_on,37,0,120
2,note_on,44,39,120
2,note_on,44,0,120
2,note_on,37,42,120
2,note_on,37,0,120
2,note_on,44,39,120
2,note_on,44,0,120
2,note_on,37,43,120
2,note_on,37,0,120
2,note_on,44,41,120
2,note_on,44,0,120
2,note_on,37,43,120
2,note_on,37,0,120
2,note_on,44,40,120
2,note_on,44,0,120
2,note_on,37,41,120
2,note_on,37,0,120
2,note_on,44,39,120
2,note_on,44,0,120
2,note_on,49,78,120
2,note_on,37,65,0
2,note_on,37,0,120
2,note_on,49,0,0
2,note_on,44,67,120
2,note_on,44,0,120
2,note_on,36,41,120
2,note_on,36,0,120
2,note_on,44,37,120
2,note_on,44,0,120
2,note_on,36,41,120
2,note_on,36,0,120
2,note_on,44,37,120
2,note_on,44,0,120
2,note_on,36,40,120
2,note_on,36,0,120
2,note_on,44,37,120
2,note_on,44,0,120
2,note_on,36,40,120
2,note_on,36,0,120
2,note_on,44,38,120
2,note_on,44,0,120
2,note_on,36,40,120
2,note_on,36,0,120
2,note_on,44,36,120
2,note_on,44,0,120
2,note_on,36,40,120
2,note_on,36,0,120
2,note_on,44,37,120
2,note_on,44,0,120
2,note_on,36,40,120
2,note_on,36,0,120
2,note_on,44,37,120
2,note_on,44,0,120
2,note_on,48,78,120
2,note_on,36,65,0
2,note_on,36,0,120
2,note_on,48,0,0
2,note_on,44,65,120
2,note_on,44,0,120
2,note_on,35,55,120
2,note_on,35,0,120
2,note_on,44,50,120
2,note_on,44,0,120
2,note_on,35,56,120
2,note_on,35,0,120
2,note_on,44,51,120
2,note_on,44,0,120
2,note_on,35,56,120
2,note_on,35,0,120
2,note_on,44,52,120
2,note_on,44,0,120
2,note_on,35,56,120
2,note_on,35,0,120
2,note_on,44,52,120
2,note_on,44,0,120
2,note_on,35,56,120
2,note_on,35,0,120
2,note_on,44,52,120
2,note_on,44,0,120
2,note_on,35,56,120
2,note_on,35,0,120
2,note_on,44,51,120
2,note_on,44,0,120
2,note_on,35,56,120
2,note_on,35,0,120
2,note_on,44,51,120
2,note_on,44,0,120
2,note_on,35,82,120
2,note_on,47,82,0
2,note_on,47,0,120
2,note_on,35,0,0
2,note_on,44,73,120
2,note_on,44,0,120
2,note_on,33,50,120
2,note_on,33,0,120
2,note_on,45,51,120
2,note_on,45,0,120
2,note_on,33,57,120
2,note_on,33,0,120
2,note_on,45,60,120
2,note_on,45,0,120
2,note_on,33,57,120
2,note_on,33,0,120
2,note_on,45,57,120
2,note_on,45,0,120
2,note_on,33,77,120
2,note_on,33,0,120
2,note_on,45,77,120
2,note_on,45,0,120
2,note_on,33,67,120
2,note_on,33,0,120
2,note_on,45,63,120
2,note_on,45,0,120
2,note_on,33,67,120
2,note_on,33,0,120
2,note_on,45,63,120
2,note_on,45,0,120
2,note_on,33,67,120
2,note_on,33,0,120
2,note_on,45,63,120
2,note_on,45,0,120
2,note_on,33,83,120
2,note_on,33,0,120
2,note_on,45,83,120
2,note_on,45,0,120
2,note_on,44,77,120
2,note_on,32,64,0
2,note_on,32,0,240
2,note_on,44,0,0
2,note_on,60,62,0
2,note_on,56,62,0
2,note_on,60,0,240
2,note_on,60,62,0
2,note_on,60,0,240
2,note_on,61,62,0
2,note_on,61,0,240
2,note_on,63,64,0
2,note_on,63,0,240
2,note_on,64,66,0
2,note_on,64,0,240
2,note_on,66,67,0
2,note_on,66,0,240
2,note_on,63,68,0
2,note_on,63,0,240
2,note_on,66,69,0
2,note_on,66,0,240
2,note_on,64,71,0
2,note_on,64,0,240
2,note_on,69,72,0
2,note_on,69,0,240
2,note_on,68,71,0
2,note_on,68,0,240
2,note_on,66,69,0
2,note_on,66,0,240
2,note_on,64,68,0
2,note_on,64,0,240
2,note_on,63,67,0
2,note_on,63,0,240
2,note_on,61,66,0
2,note_on,61,0,240
2,note_on,56,0,0
2,note_on,60,64,0
2,note_on,56,64,0
2,note_on,60,0,240
2,note_on,60,63,0
2,note_on,60,0,240
2,note_on,60,62,0
2,note_on,60,0,240
2,note_on,61,60,0
2,note_on,61,0,240
2,note_on,63,62,0
2,note_on,63,0,240
2,note_on,64,62,0
2,note_on,64,0,240
2,note_on,66,65,0
2,note_on,66,0,240
2,note_on,63,67,0
2,note_on,63,0,240
2,note_on,66,68,0
2,note_on,66,0,240
2,note_on,64,68,0
2,note_on,64,0,240
2,note_on,69,68,0
2,note_on,69,0,240
2,note_on,68,67,0
2,note_on,68,0,240
2,note_on,66,67,0
2,note_on,66,0,240
2,note_on,64,67,0
2,note_on,64,0,240
2,note_on,63,67,0
2,note_on,63,0,240
2,note_on,61,67,0
2,note_on,61,0,240
2,note_on,56,0,0
2,note_on,56,60,0
2,note_on,60,71,0
2,note_on,60,0,120
2,note_on,56,0,0
2,note_on,61,62,120
2,note_on,56,52,0
2,note_on,56,0,120
2,note_on,61,0,0
2,note_on,56,56,120
2,note_on,60,67,0
2,note_on,60,0,120
2,note_on,56,0,0
2,note_on,61,62,120
2,note_on,56,52,0
2,note_on,56,0,120
2,note_on,61,0,0
2,note_on,56,60,120
2,note_on,60,71,0
2,note_on,60,0,120
2,note_on,56,0,0
2,note_on,56,52,120
2,note_on,61,62,0
2,note_on,61,0,120
2,note_on,56,0,0
2,note_on,56,56,120
2,note_on,60,67,0
2,note_on,60,0,120
2,note_on,56,0,0
2,note_on,61,61,120
2,note_on,56,51,0
2,note_on,56,0,120
2,note_on,61,0,0
2,note_on,56,60,120
2,note_on,60,71,0
2,note_on,60,0,240
2,note_on,56,0,0
2,note_on,32,77,240
2,note_on,44,90,0
2,note_on,44,0,1440
2,note_on,32,0,0
2,note_on,37,43,0
2,note_on,37,0,120
2,note_on,44,39,120
2,note_on,44,0,120
2,note_on,37,43,120
2,note_on,37,0,120
2,note_on,44,39,120
2,note_on,44,0,120
2,note_on,37,43,120
2,note_on,37,0,120
2,note_on,44,39,120
2,note_on,44,0,120
2,note_on,37,43,120
2,note_on,37,0,120
2,note_on,44,39,120
2,note_on,44,0,120
2,note_on,37,43,120
2,note_on,37,0,120
2,note_on,44,39,120
2,note_on,44,0,120
2,note_on,37,43,120
2,note_on,37,0,120
2,note_on,44,39,120
2,note_on,44,0,120
2,note_on,37,43,120
2,note_on,37,0,120
2,note_on,44,39,120
2,note_on,44,0,120
2,note_on,37,73,120
2,note_on,49,87,0
2,note_on,49,0,120
2,note_on,37,0,0
2,note_on,44,74,120
2,note_on,44,0,120
2,note_on,34,40,120
2,note_on,34,0,120
2,note_on,49,36,120
2,note_on,49,0,120
2,note_on,46,40,120
2,note_on,46,0,120
2,note_on,49,37,120
2,note_on,49,0,120
2,note_on,46,40,120
2,note_on,46,0,120
2,note_on,49,37,120
2,note_on,49,0,120
2,note_on,46,40,120
2,note_on,46,0,120
2,note_on,49,37,120
2,note_on,49,0,120
2,note_on,46,40,120
2,note_on,46,0,120
2,note_on,49,37,120
2,note_on,49,0,120
2,note_on,46,40,120
2,note_on,46,0,120
2,note_on,49,36,120
2,note_on,49,0,120
2,note_on,46,40,120
2,note_on,46,0,120
2,note_on,49,37,120
2,note_on,49,0,120
2,note_on,46,87,120
2,note_on,34,73,0
2,note_on,34,0,120
2,note_on,46,0,0
2,note_on,49,72,120
2,note_on,49,0,120
2,note_on,31,39,120
2,note_on,31,0,120
2,note_on,51,36,120
2,note_on,51,0,120
2,note_on,43,40,120
2,note_on,43,0,120
2,note_on,51,39,120
2,note_on,51,0,120
2,note_on,43,43,120
2,note_on,43,0,120
2,note_on,51,40,120
2,note_on,51,0,120
2,note_on,43,45,120
2,note_on,43,0,120
2,note_on,51,43,120
2,note_on,51,0,120
2,note_on,43,47,120
2,note_on,43,0,120
2,note_on,51,44,120
2,note_on,51,0,120
2,note_on,43,49,120
2,note_on,43,0,120
2,note_on,51,45,120
2,note_on,51,0,120
2,note_on,43,51,120
2,note_on,43,0,120
2,note_on,51,48,120
2,note_on,51,0,120
2,note_on,43,47,120
2,note_on,43,0,120
2,note_on,51,45,120
2,note_on,51,0,120
2,note_on,44,33,120
2,note_on,51,26,120
2,note_on,44,0,20
2,note_on,47,28,100
2,note_on,51,0,20
2,note_on,51,25,100
2,note_on,47,0,20
2,note_on,44,33,100
2,note_on,51,0,20
2,note_on,44,0,99
2,note_on,51,25,1
2,note_on,51,0,119
2,note_on,47,28,1
2,note_on,47,0,119
2,note_on,51,24,1
2,note_on,51,0,119
2,note_on,44,33,1
2,note_on,44,0,119
2,note_on,51,26,1
2,note_on,51,0,119
2,note_on,47,29,1
2,note_on,47,0,119
2,note_on,51,25,1
2,note_on,51,0,119
2,note_on,44,33,1
2,note_on,44,0,119
2,note_on,51,26,1
2,note_on,51,0,119
2,note_on,47,29,1
2,note_on,47,0,119
2,note_on,51,25,1
2,note_on,51,0,119
2,note_on,46,33,1
2,note_on,51,26,120
2,note_on,46,0,20
2,note_on,49,29,100
2,note_on,51,0,20
2,note_on,51,26,100
2,note_on,49,0,20
2,note_on,46,41,100
2,note_on,51,0,20
2,note_on,46,0,99
2,note_on,51,35,1
2,note_on,51,0,119
2,note_on,49,40,1
2,note_on,49,0,119
2,note_on,51,37,1
2,note_on,51,0,119
2,note_on,46,49,1
2,note_on,46,0,119
2,note_on,51,40,1
2,note_on,51,0,119
2,note_on,49,46,1
2,note_on,49,0,119
2,note_on,51,42,1
2,note_on,51,0,119
2,note_on,46,56,1
2,note_on,46,0,119
2,note_on,51,41,1
2,note_on,51,0,119
2,note_on,49,43,1
2,note_on,49,0,119
2,note_on,51,36,1
2,note_on,51,0,119
2,note_on,47,33,1
2,note_on,47,0,119
2,note_on,51,28,1
2,note_on,51,0,119
2,note_on,47,30,1
2,note_on,47,0,119
2,note_on,51,26,1
2,note_on,51,0,119
2,note_on,47,41,1
2,note_on,47,0,119
2,note_on,51,37,1
2,note_on,51,0,119
2,note_on,47,39,1
2,note_on,47,0,119
2,note_on,51,36,1
2,note_on,51,0,119
2,note_on,47,49,1
2,note_on,47,0,119
2,note_on,51,43,1
2,note_on,51,0,119
2,note_on,47,48,1
2,note_on,47,0,119
2,note_on,51,42,1
2,note_on,51,0,119
2,note_on,47,54,1
2,note_on,47,0,119
2,note_on,51,41,1
2,note_on,51,0,119
2,note_on,47,43,1
2,note_on,47,0,119
2,note_on,51,36,1
2,note_on,51,0,119
2,note_on,43,32,1
2,note_on,43,0,119
2,note_on,51,25,1
2,note_on,51,0,119
2,note_on,43,29,1
2,note_on,43,0,119
2,note_on,51,26,1
2,note_on,51,0,119
2,note_on,43,41,1
2,note_on,43,0,119
2,note_on,51,37,1
2,note_on,51,0,119
2,note_on,43,42,1
2,note_on,43,0,119
2,note_on,51,43,1
2,note_on,51,0,119
2,note_on,43,48,1
2,note_on,43,0,119
2,note_on,51,43,1
2,note_on,51,0,119
2,note_on,43,49,1
2,note_on,43,0,119
2,note_on,51,46,1
2,note_on,51,0,119
2,note_on,43,54,1
2,note_on,43,0,119
2,note_on,51,38,1
2,note_on,51,0,119
2,note_on,43,42,1
2,note_on,43,0,119
2,note_on,51,36,1
2,note_on,51,0,119
2,note_on,44,39,1
2,note_on,51,32,120
2,note_on,44,0,20
2,note_on,47,35,100
2,note_on,51,0,20
2,note_on,47,0,99
2,note_on,51,31,1
2,note_on,51,0,119
2,note_on,44,40,1
2,note_on,44,0,119
2,note_on,51,31,1
2,note_on,51,0,119
2,note_on,47,34,1
2,note_on,47,0,119
2,note_on,51,31,1
2,note_on,51,0,119
2,note_on,44,41,1
2,note_on,44,0,119
2,note_on,51,32,1
2,note_on,51,0,119
2,note_on,47,35,1
2,note_on,47,0,119
2,note_on,51,32,1
2,note_on,51,0,119
2,note_on,44,43,1
2,note_on,51,37,120
2,note_on,44,0,20
2,note_on,47,37,100
2,note_on,51,0,20
2,note_on,51,34,100
2,note_on,47,0,20
2,note_on,46,46,100
2,note_on,51,0,20
2,note_on,51,34,100
2,note_on,46,0,20
2,note_on,49,39,100
2,note_on,51,0,20
2,note_on,49,0,99
2,note_on,51,34,1
2,note_on,51,0,119
2,note_on,46,47,1
2,note_on,46,0,119
2,note_on,51,35,1
2,note_on,51,0,119
2,note_on,49,40,1
2,note_on,49,0,119
2,note_on,51,35,1
2,note_on,51,0,119
2,note_on,46,49,1
2,note_on,46,0,119
2,note_on,51,35,1
2,note_on,51,0,119
2,note_on,49,41,1
2,note_on,49,0,119
2,note_on,51,37,1
2,note_on,51,0,119
2,note_on,46,50,1
2,note_on,51,40,120
2,note_on,46,0,20
2,note_on,49,45,100
2,note_on,51,0,20
2,note_on,51,41,100
2,note_on,49,0,20
2,note_on,47,51,100
2,note_on,51,0,20
2,note_on,51,44,100
2,note_on,47,0,20
2,note_on,47,47,100
2,note_on,51,0,20
2,note_on,47,0,99
2,note_on,51,43,1
2,note_on,51,0,119
2,note_on,47,52,1
2,note_on,47,0,119
2,note_on,51,44,1
2,note_on,51,0,119
2,note_on,47,48,1
2,note_on,47,0,119
2,note_on,51,48,1
2,note_on,51,0,119
2,note_on,47,56,1
2,note_on,47,0,119
2,note_on,51,47,1
2,note_on,51,0,119
2,note_on,47,50,1
2,note_on,47,0,119
2,note_on,51,45,1
2,note_on,47,57,120
2,note_on,51,0,20
2,note_on,51,49,100
2,note_on,47,0,20
2,note_on,47,51,100
2,note_on,51,0,20
2,note_on,51,47,100
2,note_on,47,0,20
2,note_on,43,59,100
2,note_on,51,0,20
2,note_on,51,53,100
2,note_on,43,0,20
2,note_on,43,56,100
2,note_on,51,0,20
2,note_on,43,0,99
2,note_on,51,56,1
2,note_on,51,0,119
2,note_on,43,60,1
2,note_on,43,0,119
2,note_on,51,52,1
2,note_on,51,0,119
2,note_on,43,57,1
2,note_on,43,0,119
2,note_on,51,52,1
2,note_on,51,0,119
2,note_on,43,62,1
2,note_on,43,0,119
2,note_on,51,53,1
2,note_on,51,0,119
2,note_on,43,59,1
2,note_on,51,53,120
2,note_on,43,0,20
2,note_on,43,62,100
2,note_on,51,0,20
2,note_on,51,54,100
2,note_on,43,0,20
2,note_on,43,60,100
2,note_on,51,0,20
2,note_on,51,54,100
2,note_on,43,0,20
2,note_on,42,66,100
2,note_on,51,0,20
2,note_on,51,54,100
2,note_on,42,0,17
2,note_on,44,61,103
2,note_on,51,0,17
2,note_on,51,54,103
2,note_on,44,0,17
2,note_on,42,66,103
2,note_on,51,0,17
2,note_on,51,56,103
2,note_on,42,0,17
2,note_on,44,61,103
2,note_on,51,0,17
2,note_on,51,56,103
2,note_on,44,0,17
2,note_on,40,66,103
2,note_on,51,0,17
2,note_on,49,56,103
2,note_on,40,0,17
2,note_on,44,62,103
2,note_on,49,0,17
2,note_on,49,56,103
2,note_on,44,0,17
2,note_on,40,66,103
2,note_on,49,0,17
2,note_on,49,56,103
2,note_on,40,0,17
2,note_on,44,61,103
2,note_on,49,0,17
2,note_on,49,56,103
2,note_on,44,0,17
2,note_on,40,66,103
2,note_on,49,0,17
2,note_on,40,0,102
2,note_on,49,56,1
2,note_on,49,0,119
2,note_on,42,61,1
2,note_on,42,0,119
2,note_on,49,56,1
2,note_on,49,0,119
2,note_on,39,66,1
2,note_on,47,57,120
2,note_on,39,0,17
2,note_on,42,62,103
2,note_on,47,0,17
2,note_on,47,57,103
2,note_on,42,0,17
2,note_on,39,66,103
2,note_on,47,0,17
2,note_on,47,56,103
2,note_on,39,0,17
2,note_on,42,61,103
2,note_on,47,0,17
2,note_on,47,56,103
2,note_on,42,0,17
2,note_on,39,66,103
2,note_on,47,0,17
2,note_on,47,56,103
2,note_on,39,0,17
2,note_on,42,60,103
2,note_on,47,0,17
2,note_on,47,56,103
2,note_on,42,0,17
2,note_on,38,66,103
2,note_on,47,0,17
2,note_on,47,58,103
2,note_on,38,0,20
2,note_on,40,62,100
2,note_on,47,0,20
2,note_on,47,58,100
2,note_on,40,0,20
2,note_on,38,66,100
2,note_on,47,0,20
2,note_on,47,58,100
2,note_on,38,0,20
2,note_on,40,62,100
2,note_on,47,0,20
2,note_on,47,57,100
2,note_on,40,0,20
2,note_on,37,66,100
2,note_on,47,0,20
2,note_on,37,0,99
2,note_on,45,57,1
2,note_on,45,0,119
2,note_on,40,62,1
2,note_on,40,0,119
2,note_on,45,56,1
2,note_on,45,0,119
2,note_on,37,66,1
2,note_on,37,0,119
2,note_on,45,57,1
2,note_on,45,0,119
2,note_on,40,62,1
2,note_on,40,0,119
2,note_on,45,57,1
2,note_on,45,0,119
2,note_on,37,66,1
2,note_on,37,0,119
2,note_on,46,56,1
2,note_on,46,0,119
2,note_on,39,60,1
2,note_on,39,0,119
2,note_on,46,56,1
2,note_on,46,0,119
2,note_on,35,66,1
2,note_on,44,57,120
2,note_on,35,0,17
2,note_on,39,61,103
2,note_on,44,0,17
2,note_on,44,57,103
2,note_on,39,0,17
2,note_on,35,66,103
2,note_on,44,0,17
2,note_on,44,56,103
2,note_on,35,0,17
2,note_on,39,61,103
2,note_on,44,0,17
2,note_on,44,57,103
2,note_on,39,0,17
2,note_on,35,66,103
2,note_on,44,0,17
2,note_on,44,56,103
2,note_on,35,0,17
2,note_on,39,61,103
2,note_on,44,0,17
2,note_on,44,58,103
2,note_on,39,0,17
2,note_on,45,75,103
2,note_on,40,64,0
2,note_on,49,75,0
2,note_on,37,64,0
2,note_on,44,0,17
2,note_on,49,0,1423
2,note_on,45,0,0
2,note_on,40,0,0
2,note_on,37,0,0
2,note_on,64,42,480
2,note_on,61,42,0
2,note_on,69,50,0
2,note_on,69,0,476
2,note_on,61,0,4
2,note_on,64,0,0
2,note_on,64,41,480
2,note_on,61,41,0
2,note_on,69,49,0
2,note_on,69,0,480
2,note_on,61,0,0
2,note_on,64,0,0
2,note_on,64,41,480
2,note_on,61,41,0
2,note_on,69,49,0
2,note_on,69,0,480
2,note_on,61,0,0
2,note_on,64,0,0
2,note_on,64,44,0
2,note_on,61,44,0
2,note_on,69,52,0
2,note_on,69,0,480
2,note_on,61,0,0
2,note_on,64,0,0
2,note_on,69,60,0
2,note_on,64,51,0
2,note_on,61,51,0
2,note_on,61,0,480
2,note_on,64,0,0
2,note_on,69,0,0
2,note_on,69,56,0
2,note_on,64,47,0
2,note_on,61,47,0
2,note_on,61,0,480
2,note_on,64,0,0
2,note_on,69,0,0
2,note_on,63,49,0
2,note_on,63,0,119
2,note_on,71,44,1
2,note_on,71,0,119
2,note_on,68,47,1
2,note_on,68,0,119
2,note_on,71,44,1
2,note_on,71,0,119
2,note_on,63,51,1
2,note_on,63,0,119
2,note_on,71,43,1
2,note_on,71,0,119
2,note_on,68,47,1
2,note_on,68,0,119
2,note_on,71,43,1
2,note_on,71,0,119
2,note_on,63,51,1
2,note_on,63,0,119
2,note_on,73,45,1
2,note_on,73,0,119
2,note_on,67,47,1
2,note_on,67,0,119
2,note_on,73,43,1
2,note_on,73,0,119
2,note_on,63,51,1
2,note_on,63,0,119
2,note_on,73,43,1
2,note_on,73,0,119
2,note_on,67,47,1
2,note_on,67,0,119
2,note_on,73,43,1
2,note_on,73,0,119
2,note_on,68,56,1
2,note_on,64,56,0
2,note_on,71,56,0
2,note_on,71,0,240
2,note_on,64,0,0
2,note_on,68,0,0
2,note_on,40,62,240
2,note_on,45,73,0
2,note_on,49,73,0
2,note_on,37,62,0
2,note_on,37,0,960
2,note_on,40,0,0
2,note_on,45,0,0
2,note_on,49,0,0
2,note_on,52,41,960
2,note_on,49,41,0
2,note_on,57,49,0
2,note_on,57,0,480
2,note_on,49,0,0
2,note_on,52,0,0
2,note_on,52,41,480
2,note_on,49,41,0
2,note_on,57,49,0
2,note_on,57,0,480
2,note_on,49,0,0
2,note_on,52,0,0
2,note_on,57,51,240
2,note_on,49,43,0
2,note_on,52,43,0
2,note_on,52,0,240
2,note_on,49,0,0
2,note_on,57,0,0
2,note_on,57,61,240
2,note_on,49,51,0
2,note_on,52,51,0
2,note_on,52,0,240
2,note_on,49,0,0
2,note_on,57,0,0
2,note_on,57,68,240
2,note_on,52,57,0
2,note_on,49,57,0
2,note_on,49,0,240
2,note_on,52,0,0
2,note_on,57,0,0
2,note_on,57,68,240
2,note_on,52,57,0
2,note_on,49,57,0
2,note_on,49,0,240
2,note_on,52,0,0
2,note_on,57,0,0
2,note_on,52,56,0
2,note_on,57,67,0
2,note_on,49,56,0
2,note_on,49,0,480
2,note_on,57,0,0
2,note_on,52,0,0
2,note_on,49,70,1440
2,note_on,49,0,119
2,note_on,57,61,1
2,note_on,57,0,119
2,note_on,52,66,1
2,note_on,52,0,119
2,note_on,57,62,1
2,note_on,57,0,119
2,note_on,49,70,1
2,note_on,49,0,119
2,note_on,57,61,1
2,note_on,57,0,119
2,note_on,52,65,1
2,note_on,52,0,119
2,note_on,57,61,1
2,note_on,57,0,119
2,note_on,50,70,1
2,note_on,50,0,119
2,note_on,59,61,1
2,note_on,59,0,119
2,note_on,53,66,1
2,note_on,53,0,119
2,note_on,59,62,1
2,note_on,59,0,119
2,note_on,50,70,1
2,note_on,50,0,119
2,note_on,59,61,1
2,note_on,59,0,119
2,note_on,53,63,1
2,note_on,53,0,119
2,note_on,59,61,1
2,note_on,59,0,119
2,note_on,51,70,1
2,note_on,51,0,119
2,note_on,59,61,1
2,note_on,59,0,119
2,note_on,56,66,1
2,note_on,56,0,119
2,note_on,59,66,1
2,note_on,59,0,119
2,note_on,51,70,1
2,note_on,51,0,119
2,note_on,59,62,1
2,note_on,59,0,119
2,note_on,56,66,1
2,note_on,56,0,119
2,note_on,59,62,1
2,note_on,59,0,119
2,note_on,39,70,1
2,note_on,39,0,119
2,note_on,51,62,1
2,note_on,51,0,119
2,note_on,50,67,1
2,note_on,50,0,119
2,note_on,51,62,1
2,note_on,51,0,119
2,note_on,50,70,1
2,note_on,50,0,119
2,note_on,51,62,1
2,note_on,51,0,119
2,note_on,50,67,1
2,note_on,50,0,119
2,note_on,51,61,1
2,note_on,51,0,102
2,note_on,44,71,18
2,note_on,44,0,240
2,note_on,56,43,240
2,note_on,56,0,120
2,note_on,56,43,120
2,note_on,56,0,120
2,note_on,56,43,120
2,note_on,56,0,120
2,note_on,56,43,120
2,note_on,56,0,120
2,note_on,58,42,120
2,note_on,58,0,120
2,note_on,59,42,120
2,note_on,59,0,120
2,note_on,51,47,120
2,note_on,61,47,0
2,note_on,61,0,240
2,note_on,51,0,0
2,note_on,63,42,0
2,note_on,61,42,0
2,note_on,61,0,120
2,note_on,63,0,0
2,note_on,61,41,120
2,note_on,63,41,0
2,note_on,63,0,120
2,note_on,61,0,0
2,note_on,61,41,120
2,note_on,63,41,0
2,note_on,63,0,120
2,note_on,61,0,0
2,note_on,63,41,120
2,note_on,61,41,0
2,note_on,61,0,120
2,note_on,63,0,0
2,note_on,61,41,120
2,note_on,63,41,0
2,note_on,63,0,120
2,note_on,61,0,0
2,note_on,63,41,120
2,note_on,59,41,0
2,note_on,59,0,120
2,note_on,63,0,0
2,note_on,58,40,120
2,note_on,63,40,0
2,note_on,63,0,120
2,note_on,58,0,0
2,note_on,56,47,120
2,note_on,44,47,0
2,note_on,44,0,240
2,note_on,56,0,0
2,note_on,56,42,0
2,note_on,56,0,120
2,note_on,56,42,120
2,note_on,56,0,120
2,note_on,56,42,120
2,note_on,56,0,120
2,note_on,56,43,120
2,note_on,56,0,120
2,note_on,56,42,120
2,note_on,56,0,120
2,note_on,58,43,120
2,note_on,58,0,120
2,note_on,59,43,120
2,note_on,59,0,120
2,note_on,61,47,120
2,note_on,51,47,0
2,note_on,51,0,240
2,note_on,61,0,0
2,note_on,61,41,0
2,note_on,63,41,0
2,note_on,63,0,120
2,note_on,61,0,0
2,note_on,61,43,120
2,note_on,63,43,0
2,note_on,63,0,120
2,note_on,61,0,0
2,note_on,63,42,120
2,note_on,61,42,0
2,note_on,61,0,120
2,note_on,63,0,0
2,note_on,61,42,120
2,note_on,63,42,0
2,note_on,63,0,120
2,note_on,61,0,0
2,note_on,63,42,120
2,note_on,61,42,0
2,note_on,61,0,120
2,note_on,63,0,0
2,note_on,59,42,120
2,note_on,63,42,0
2,note_on,63,0,120
2,note_on,59,0,0
2,note_on,63,42,120
2,note_on,58,42,0
2,note_on,58,0,120
2,note_on,63,0,0
2,note_on,44,48,120
2,note_on,44,0,120
2,note_on,59,39,120
2,note_on,56,39,0
2,note_on,56,0,120
2,note_on,59,0,0
2,note_on,56,39,120
2,note_on,59,39,0
2,note_on,59,0,240
2,note_on,56,0,0
2,note_on,63,39,0
2,note_on,59,39,0
2,note_on,59,0,240
2,note_on,63,0,0
2,note_on,49,47,0
2,note_on,49,0,120
2,note_on,61,43,120
2,note_on,56,43,0
2,note_on,56,0,120
2,note_on,61,0,0
2,note_on,61,43,120
2,note_on,56,43,0
2,note_on,56,0,240
2,note_on,61,0,0
2,note_on,64,40,0
2,note_on,61,40,0
2,note_on,61,0,240
2,note_on,64,0,0
2,note_on,51,47,0
2,note_on,51,0,120
2,note_on,56,41,120
2,note_on,59,41,0
2,note_on,59,0,120
2,note_on,56,0,0
2,note_on,59,42,120
2,note_on,56,42,0
2,note_on,56,0,240
2,note_on,59,0,0
2,note_on,63,39,0
2,note_on,59,39,0
2,note_on,59,0,240
2,note_on,63,0,0
2,note_on,51,47,0
2,note_on,51,0,120
2,note_on,58,39,120
2,note_on,55,39,0
2,note_on,55,0,120
2,note_on,58,0,0
2,note_on,58,39,120
2,note_on,55,39,0
2,note_on,55,0,240
2,note_on,58,0,0
2,note_on,58,39,0
2,note_on,63,39,0
2,note_on,63,0,240
2,note_on,58,0,0
2,note_on,32,42,0
2,note_on,44,42,0
2,note_on,44,0,240
2,note_on,32,0,0
2,note_on,51,41,0
2,note_on,44,41,0
2,note_on,44,0,120
2,note_on,51,0,0
2,note_on,44,43,120
2,note_on,51,43,0
2,note_on,51,0,120
2,note_on,44,0,0
2,note_on,51,47,120
2,note_on,44,47,0
2,note_on,44,0,120
2,note_on,51,0,0
2,note_on,44,50,120
2,note_on,51,50,0
2,note_on,51,0,120
2,note_on,44,0,0
2,note_on,51,52,120
2,note_on,44,52,0
2,note_on,44,0,120
2,note_on,51,0,0
2,note_on,51,57,120
2,note_on,46,57,0
2,note_on,46,0,120
2,note_on,51,0,0
2,note_on,51,59,120
2,note_on,47,59,0
2,note_on,47,0,120
2,note_on,51,0,0
2,note_on,51,62,120
2,note_on,49,62,0
2,note_on,39,52,0
2,note_on,39,0,240
2,note_on,49,0,0
2,note_on,51,0,0
2,note_on,51,62,0
2,note_on,61,62,0
2,note_on,61,0,120
2,note_on,51,0,0
2,note_on,51,67,120
2,note_on,61,67,0
2,note_on,61,0,120
2,note_on,51,0,0
2,note_on,61,63,120
2,note_on,51,63,0
2,note_on,51,0,120
2,note_on,61,0,0
2,note_on,51,66,120
2,note_on,61,66,0
2,note_on,61,0,120
2,note_on,51,0,0
2,note_on,61,62,120
2,note_on,51,62,0
2,note_on,51,0,120
2,note_on,61,0,0
2,note_on,59,67,120
2,note_on,51,67,0
2,note_on,51,0,120
2,note_on,59,0,0
2,note_on,58,63,120
2,note_on,51,63,0
2,note_on,51,0,120
2,note_on,58,0,0
2,note_on,32,69,120
2,note_on,44,69,0
2,note_on,44,0,240
2,note_on,32,0,0
2,note_on,51,41,0
2,note_on,44,41,0
2,note_on,44,0,120
2,note_on,51,0,0
2,note_on,51,44,120
2,note_on,44,44,0
2,note_on,44,0,120
2,note_on,51,0,0
2,note_on,44,48,120
2,note_on,51,48,0
2,note_on,51,0,120
2,note_on,44,0,0
2,note_on,51,51,120
2,note_on,44,51,0
2,note_on,44,0,120
2,note_on,51,0,0
2,note_on,51,56,120
2,note_on,44,56,0
2,note_on,44,0,120
2,note_on,51,0,0
2,note_on,46,58,120
2,note_on,51,58,0
2,note_on,51,0,120
2,note_on,46,0,0
2,note_on,51,62,120
2,note_on,47,62,0
2,note_on,47,0,120
2,note_on,51,0,0
2,note_on,39,66,120
2,note_on,49,66,0
2,note_on,51,66,0
2,note_on,51,0,240
2,note_on,49,0,0
2,note_on,39,0,0
2,note_on,51,63,0
2,note_on,61,63,0
2,note_on,61,0,120
2,note_on,51,0,0
2,note_on,51,67,120
2,note_on,61,67,0
2,note_on,61,0,120
2,note_on,51,0,0
2,note_on,61,62,120
2,note_on,51,62,0
2,note_on,51,0,120
2,note_on,61,0,0
2,note_on,51,67,120
2,note_on,61,67,0
2,note_on,61,0,120
2,note_on,51,0,0
2,note_on,61,63,120
2,note_on,51,63,0
2,note_on,51,0,120
2,note_on,61,0,0
2,note_on,59,67,120
2,note_on,51,67,0
2,note_on,51,0,120
2,note_on,59,0,0
2,note_on,58,67,120
2,note_on,51,67,0
2,note_on,51,0,120
2,note_on,58,0,0
2,note_on,44,69,120
2,note_on,56,69,0
2,note_on,56,0,240
2,note_on,44,0,0
2,note_on,59,43,0
2,note_on,63,43,0
2,note_on,63,0,120
2,note_on,59,0,0
2,note_on,59,41,120
2,note_on,63,41,0
2,note_on,63,0,240
2,note_on,59,0,0
2,note_on,56,39,0
2,note_on,59,39,0
2,note_on,59,0,240
2,note_on,56,0,0
2,note_on,49,48,0
2,note_on,49,0,120
2,note_on,64,42,120
2,note_on,61,42,0
2,note_on,61,0,120
2,note_on,64,0,0
2,note_on,64,42,120
2,note_on,61,42,0
2,note_on,61,0,240
2,note_on,64,0,0
2,note_on,61,39,0
2,note_on,56,39,0
2,note_on,56,0,240
2,note_on,61,0,0
2,note_on,51,48,0
2,note_on,51,0,120
2,note_on,59,42,120
2,note_on,63,42,0
2,note_on,63,0,120
2,note_on,59,0,0
2,note_on,59,42,120
2,note_on,63,42,0
2,note_on,63,0,240
2,note_on,59,0,0
2,note_on,56,39,0
2,note_on,59,39,0
2,note_on,59,0,240
2,note_on,56,0,0
2,note_on,49,49,0
2,note_on,49,0,120
2,note_on,63,42,120
2,note_on,58,42,0
2,note_on,58,0,120
2,note_on,63,0,0
2,note_on,63,42,120
2,note_on,58,42,0
2,note_on,58,0,240
2,note_on,63,0,0
2,note_on,58,40,0
2,note_on,55,40,0
2,note_on,55,0,240
2,note_on,58,0,0
2,note_on,47,45,0
2,note_on,47,0,240
2,note_on,68,39,0
2,note_on,63,39,0
2,note_on,63,0,120
2,note_on,68,0,0
2,note_on,63,41,120
2,note_on,68,41,0
2,note_on,68,0,240
2,note_on,63,0,0
2,note_on,63,41,0
2,note_on,59,41,0
2,note_on,59,0,240
2,note_on,63,0,0
2,note_on,49,50,0
2,note_on,49,0,240
2,note_on,64,47,0
2,note_on,69,47,0
2,note_on,69,0,120
2,note_on,64,0,0
2,note_on,69,45,120
2,note_on,64,45,0
2,note_on,64,0,240
2,note_on,69,0,0
2,note_on,64,45,0
2,note_on,61,45,0
2,note_on,61,0,240
2,note_on,64,0,0
2,note_on,51,52,0
2,note_on,51,0,240
2,note_on,68,48,0
2,note_on,63,48,0
2,note_on,63,0,120
2,note_on,68,0,0
2,note_on,63,48,120
2,note_on,68,48,0
2,note_on,68,0,240
2,note_on,63,0,0
2,note_on,63,45,0
2,note_on,59,45,0
2,note_on,59,0,240
2,note_on,63,0,0
2,note_on,51,51,0
2,note_on,51,0,240
2,note_on,67,43,0
2,note_on,61,43,0
2,note_on,61,0,120
2,note_on,67,0,0
2,note_on,61,43,120
2,note_on,67,43,0
2,note_on,67,0,240
2,note_on,61,0,0
2,note_on,61,35,0
2,note_on,58,35,0
2,note_on,58,0,240
2,note_on,61,0,0
2,note_on,44,41,0
2,note_on,44,0,119
2,note_on,56,33,1
2,note_on,56,0,119
2,note_on,51,36,1
2,note_on,51,0,119
2,note_on,56,32,1
2,note_on,56,0,119
2,note_on,44,41,1
2,note_on,44,0,119
2,note_on,56,33,1
2,note_on,56,0,119
2,note_on,51,36,1
2,note_on,51,0,119
2,note_on,56,33,1
2,note_on,56,0,119
2,note_on,44,41,1
2,note_on,44,0,119
2,note_on,56,33,1
2,note_on,56,0,119
2,note_on,51,37,1
2,note_on,51,0,119
2,note_on,56,33,1
2,note_on,56,0,119
2,note_on,44,41,1
2,note_on,44,0,119
2,note_on,56,33,1
2,note_on,56,0,119
2,note_on,51,37,1
2,note_on,51,0,119
2,note_on,56,33,1
2,note_on,56,0,119
2,note_on,44,41,1
2,note_on,44,0,119
2,note_on,58,33,1
2,note_on,58,0,119
2,note_on,51,38,1
2,note_on,51,0,119
2,note_on,58,33,1
2,note_on,58,0,119
2,note_on,44,41,1
2,note_on,44,0,119
2,note_on,58,33,1
2,note_on,58,0,119
2,note_on,51,37,1
2,note_on,51,0,119
2,note_on,58,33,1
2,note_on,58,0,119
2,note_on,44,41,1
2,note_on,44,0,119
2,note_on,58,34,1
2,note_on,58,0,119
2,note_on,51,38,1
2,note_on,51,0,119
2,note_on,58,34,1
2,note_on,58,0,119
2,note_on,44,41,1
2,note_on,44,0,119
2,note_on,58,34,1
2,note_on,58,0,119
2,note_on,51,36,1
2,note_on,51,0,119
2,note_on,58,33,1
2,note_on,58,0,119
2,note_on,44,41,1
2,note_on,44,0,119
2,note_on,56,33,1
2,note_on,56,0,119
2,note_on,51,37,1
2,note_on,51,0,119
2,note_on,56,33,1
2,note_on,56,0,119
2,note_on,44,41,1
2,note_on,44,0,119
2,note_on,56,34,1
2,note_on,56,0,119
2,note_on,51,38,1
2,note_on,51,0,119
2,note_on,56,34,1
2,note_on,56,0,119
2,note_on,44,41,1
2,note_on,44,0,119
2,note_on,56,34,1
2,note_on,56,0,119
2,note_on,51,38,1
2,note_on,51,0,119
2,note_on,56,34,1
2,note_on,56,0,119
2,note_on,44,41,1
2,note_on,44,0,119
2,note_on,56,33,1
2,note_on,56,0,119
2,note_on,51,36,1
2,note_on,51,0,119
2,note_on,56,33,1
2,note_on,56,0,119
2,note_on,44,41,1
2,note_on,44,0,119
2,note_on,58,36,1
2,note_on,58,0,119
2,note_on,51,36,1
2,note_on,51,0,119
2,note_on,58,34,1
2,note_on,58,0,119
2,note_on,44,41,1
2,note_on,44,0,119
2,note_on,58,34,1
2,note_on,58,0,119
2,note_on,51,36,1
2,note_on,51,0,119
2,note_on,58,33,1
2,note_on,58,0,119
2,note_on,44,41,1
2,note_on,44,0,119
2,note_on,58,34,1
2,note_on,58,0,119
2,note_on,51,36,1
2,note_on,51,0,119
2,note_on,58,33,1
2,note_on,58,0,119
2,note_on,44,41,1
2,note_on,44,0,119
2,note_on,58,34,1
2,note_on,58,0,119
2,note_on,51,39,1
2,note_on,51,0,119
2,note_on,58,34,1
2,note_on,58,0,119
2,note_on,44,41,1
2,note_on,44,0,119
2,note_on,56,33,1
2,note_on,56,0,119
2,note_on,51,36,1
2,note_on,51,0,119
2,note_on,56,33,1
2,note_on,56,0,119
2,note_on,44,42,1
2,note_on,44,0,119
2,note_on,56,33,1
2,note_on,56,0,119
2,note_on,51,35,1
2,note_on,51,0,119
2,note_on,56,33,1
2,note_on,56,0,119
2,note_on,44,41,1
2,note_on,44,0,119
2,note_on,58,34,1
2,note_on,58,0,119
2,note_on,51,37,1
2,note_on,51,0,119
2,note_on,58,37,1
2,note_on,58,0,119
2,note_on,44,41,1
2,note_on,44,0,119
2,note_on,58,34,1
2,note_on,58,0,119
2,note_on,51,38,1
2,note_on,51,0,119
2,note_on,58,34,1
2,note_on,58,0,119
2,note_on,44,41,1
2,note_on,44,0,119
2,note_on,56,33,1
2,note_on,56,0,119
2,note_on,51,36,1
2,note_on,51,0,119
2,note_on,56,33,1
2,note_on,56,0,119
2,note_on,44,41,1
2,note_on,44,0,119
2,note_on,56,33,1
2,note_on,56,0,119
2,note_on,51,36,1
2,note_on,51,0,119
2,note_on,56,33,1
2,note_on,56,0,119
2,note_on,44,41,1
2,note_on,44,0,119
2,note_on,58,34,1
2,note_on,58,0,119
2,note_on,51,37,1
2,note_on,51,0,119
2,note_on,58,33,1
2,note_on,58,0,119
2,note_on,44,41,1
2,note_on,44,0,119
2,note_on,58,34,1
2,note_on,58,0,119
2,note_on,51,37,1
2,note_on,51,0,119
2,note_on,58,34,1
2,note_on,58,0,119
2,note_on,44,42,1
2,note_on,44,0,119
2,note_on,56,41,1
2,note_on,56,0,119
2,note_on,51,42,1
2,note_on,51,0,119
2,note_on,56,40,1
2,note_on,56,0,119
2,note_on,44,43,1
2,note_on,44,0,119
2,note_on,56,44,1
2,note_on,56,0,119
2,note_on,51,45,1
2,note_on,51,0,119
2,note_on,56,43,1
2,note_on,56,0,119
2,note_on,44,47,1
2,note_on,44,0,119
2,note_on,56,48,1
2,note_on,56,0,119
2,note_on,51,48,1
2,note_on,51,0,119
2,note_on,56,49,1
2,note_on,56,0,119
2,note_on,44,51,1
2,note_on,44,0,119
2,note_on,56,51,1
2,note_on,56,0,119
2,note_on,51,52,1
2,note_on,51,0,119
2,note_on,56,47,1
2,note_on,56,0,119
2,note_on,44,53,1
2,note_on,44,0,119
2,note_on,54,56,1
2,note_on,54,0,119
2,note_on,51,56,1
2,note_on,51,0,119
2,note_on,54,51,1
2,note_on,54,0,119
2,note_on,44,57,1
2,note_on,44,0,119
2,note_on,54,58,1
2,note_on,54,0,119
2,note_on,51,60,1
2,note_on,51,0,119
2,note_on,54,56,1
2,note_on,54,0,119
2,note_on,44,62,1
2,note_on,44,0,119
2,note_on,54,62,1
2,note_on,54,0,119
2,note_on,51,63,1
2,note_on,51,0,119
2,note_on,54,57,1
2,note_on,54,0,119
2,note_on,44,65,1
2,note_on,44,0,119
2,note_on,54,67,1
2,note_on,54,0,119
2,note_on,51,67,1
2,note_on,51,0,119
2,note_on,54,62,1
2,note_on,54,0,119
2,note_on,37,69,1
2,note_on,37,0,120
2,note_on,44,39,120
2,note_on,44,0,120
2,note_on,37,43,120
2,note_on,37,0,120
2,note_on,44,40,120
2,note_on,44,0,120
2,note_on,37,42,120
2,note_on,37,0,120
2,note_on,44,39,120
2,note_on,44,0,120
2,note_on,37,39,120
2,note_on,37,0,120
2,note_on,44,39,120
2,note_on,44,0,120
2,note_on,37,43,120
2,note_on,37,0,120
2,note_on,44,40,120
2,note_on,44,0,120
2,note_on,37,43,120
2,note_on,37,0,120
2,note_on,44,40,120
2,note_on,44,0,120
2,note_on,37,41,120
2,note_on,37,0,120
2,note_on,44,38,120
2,note_on,44,0,120
2,note_on,49,77,120
2,note_on,37,64,0
2,note_on,37,0,120
2,note_on,49,0,0
2,note_on,44,67,120
2,note_on,44,0,120
2,note_on,36,41,120
2,note_on,36,0,120
2,note_on,44,39,120
2,note_on,44,0,120
2,note_on,36,41,120
2,note_on,36,0,120
2,note_on,44,38,120
2,note_on,44,0,120
2,note_on,36,40,120
2,note_on,36,0,120
2,note_on,44,37,120
2,note_on,44,0,120
2,note_on,36,40,120
2,note_on,36,0,120
2,note_on,44,38,120
2,note_on,44,0,120
2,note_on,36,40,120
2,note_on,36,0,120
2,note_on,44,38,120
2,note_on,44,0,120
2,note_on,36,40,120
2,note_on,36,0,120
2,note_on,44,37,120
2,note_on,44,0,120
2,note_on,36,40,120
2,note_on,36,0,120
2,note_on,44,37,120
2,note_on,44,0,120
2,note_on,48,77,120
2,note_on,36,64,0
2,note_on,36,0,120
2,note_on,48,0,0
2,note_on,44,58,120
2,note_on,44,0,120
2,note_on,35,55,120
2,note_on,35,0,120
2,note_on,44,51,120
2,note_on,44,0,120
2,note_on,35,56,120
2,note_on,35,0,120
2,note_on,44,52,120
2,note_on,44,0,120
2,note_on,35,56,120
2,note_on,35,0,120
2,note_on,44,52,120
2,note_on,44,0,120
2,note_on,35,56,120
2,note_on,35,0,120
2,note_on,44,52,120
2,note_on,44,0,120
2,note_on,35,56,120
2,note_on,35,0,120
2,note_on,44,52,120
2,note_on,44,0,120
2,note_on,35,56,120
2,note_on,35,0,120
2,note_on,44,52,120
2,note_on,44,0,120
2,note_on,35,56,120
2,note_on,35,0,120
2,note_on,44,52,120
2,note_on,44,0,120
2,note_on,47,80,120
2,note_on,35,67,0
2,note_on,35,0,120
2,note_on,47,0,0
2,note_on,44,73,120
2,note_on,44,0,120
2,note_on,33,50,120
2,note_on,33,0,120
2,note_on,45,51,120
2,note_on,45,0,120
2,note_on,33,57,120
2,note_on,33,0,120
2,note_on,45,62,120
2,note_on,45,0,120
2,note_on,33,67,120
2,note_on,33,0,120
2,note_on,45,68,120
2,note_on,45,0,120
2,note_on,33,86,120
2,note_on,33,0,120
2,note_on,45,85,120
2,note_on,45,0,120
2,note_on,33,67,120
2,note_on,33,0,120
2,note_on,45,63,120
2,note_on,45,0,120
2,note_on,33,67,120
2,note_on,33,0,120
2,note_on,45,63,120
2,note_on,45,0,120
2,note_on,33,67,120
2,note_on,33,0,120
2,note_on,45,63,120
2,note_on,45,0,120
2,note_on,33,90,120
2,note_on,33,0,120
2,note_on,45,90,120
2,note_on,45,0,120
2,note_on,44,77,120
2,note_on,32,77,0
2,note_on,32,0,240
2,note_on,44,0,0
2,note_on,60,62,0
2,note_on,56,62,0
2,note_on,60,0,240
2,note_on,60,62,0
2,note_on,60,0,240
2,note_on,61,62,0
2,note_on,61,0,240
2,note_on,63,64,0
2,note_on,63,0,240
2,note_on,64,66,0
2,note_on,64,0,240
2,note_on,66,67,0
2,note_on,66,0,240
2,note_on,63,68,0
2,note_on,63,0,240
2,note_on,66,69,0
2,note_on,66,0,240
2,note_on,64,71,0
2,note_on,64,0,240
2,note_on,69,72,0
2,note_on,69,0,240
2,note_on,68,71,0
2,note_on,68,0,240
2,note_on,66,69,0
2,note_on,66,0,240
2,note_on,64,68,0
2,note_on,64,0,240
2,note_on,63,67,0
2,note_on,63,0,240
2,note_on,61,66,0
2,note_on,61,0,240
2,note_on,56,0,0
2,note_on,60,64,0
2,note_on,56,64,0
2,note_on,60,0,240
2,note_on,60,63,0
2,note_on,60,0,240
2,note_on,60,62,0
2,note_on,60,0,240
2,note_on,61,60,0
2,note_on,61,0,240
2,note_on,63,62,0
2,note_on,63,0,240
2,note_on,64,62,0
2,note_on,64,0,240
2,note_on,66,65,0
2,note_on,66,0,240
2,note_on,63,67,0
2,note_on,63,0,240
2,note_on,66,68,0
2,note_on,66,0,240
2,note_on,64,68,0
2,note_on,64,0,240
2,note_on,69,68,0
2,note_on,69,0,240
2,note_on,68,67,0
2,note_on,68,0,240
2,note_on,66,67,0
2,note_on,66,0,240
2,note_on,64,67,0
2,note_on,64,0,240
2,note_on,63,67,0
2,note_on,63,0,240
2,note_on,61,67,0
2,note_on,61,0,240
2,note_on,56,0,0
2,note_on,56,71,0
2,note_on,60,71,0
2,note_on,60,0,120
2,note_on,56,0,0
2,note_on,61,62,120
2,note_on,56,62,0
2,note_on,56,0,120
2,note_on,61,0,0
2,note_on,60,67,120
2,note_on,56,67,0
2,note_on,56,0,120
2,note_on,60,0,0
2,note_on,61,62,120
2,note_on,56,62,0
2,note_on,56,0,120
2,note_on,61,0,0
2,note_on,60,71,120
2,note_on,56,71,0
2,note_on,56,0,120
2,note_on,60,0,0
2,note_on,61,62,120
2,note_on,56,62,0
2,note_on,56,0,120
2,note_on,61,0,0
2,note_on,60,67,120
2,note_on,56,67,0
2,note_on,56,0,120
2,note_on,60,0,0
2,note_on,61,61,120
2,note_on,56,61,0
2,note_on,56,0,120
2,note_on,61,0,0
2,note_on,56,71,120
2,note_on,60,71,0
2,note_on,60,0,240
2,note_on,56,0,0
2,note_on,32,96,240
2,note_on,44,96,0
2,note_on,44,0,1440
2,note_on,32,0,0
2,note_on,37,43,0
2,note_on,37,0,120
2,note_on,44,39,120
2,note_on,44,0,120
2,note_on,37,43,120
2,note_on,37,0,120
2,note_on,44,39,120
2,note_on,44,0,120
2,note_on,37,43,120
2,note_on,37,0,120
2,note_on,44,39,120
2,note_on,44,0,120
2,note_on,37,43,120
2,note_on,37,0,120
2,note_on,44,39,120
2,note_on,44,0,120
2,note_on,37,43,120
2,note_on,37,0,120
2,note_on,44,39,120
2,note_on,44,0,120
2,note_on,37,43,120
2,note_on,37,0,120
2,note_on,44,39,120
2,note_on,44,0,120
2,note_on,37,43,120
2,note_on,37,0,120
2,note_on,44,43,120
2,note_on,44,0,120
2,note_on,49,89,120
2,note_on,37,75,0
2,note_on,37,0,120
2,note_on,49,0,0
2,note_on,44,74,120
2,note_on,44,0,120
2,note_on,34,40,120
2,note_on,34,0,120
2,note_on,49,37,120
2,note_on,49,0,120
2,note_on,46,40,120
2,note_on,46,0,120
2,note_on,49,40,120
2,note_on,49,0,120
2,note_on,46,40,120
2,note_on,46,0,120
2,note_on,49,37,120
2,note_on,49,0,120
2,note_on,46,40,120
2,note_on,46,0,120
2,note_on,49,40,120
2,note_on,49,0,120
2,note_on,46,40,120
2,note_on,46,0,120
2,note_on,49,37,120
2,note_on,49,0,120
2,note_on,46,40,120
2,note_on,46,0,120
2,note_on,49,37,120
2,note_on,49,0,120
2,note_on,46,40,120
2,note_on,46,0,120
2,note_on,49,38,120
2,note_on,49,0,120
2,note_on,46,83,120
2,note_on,34,71,0
2,note_on,34,0,120
2,note_on,46,0,0
2,note_on,49,72,120
2,note_on,49,0,120
2,note_on,31,39,120
2,note_on,31,0,120
2,note_on,51,39,120
2,note_on,51,0,120
2,note_on,43,40,120
2,note_on,43,0,120
2,note_on,51,42,120
2,note_on,51,0,120
2,note_on,43,43,120
2,note_on,43,0,120
2,note_on,51,43,120
2,note_on,51,0,120
2,note_on,43,45,120
2,note_on,43,0,120
2,note_on,51,45,120
2,note_on,51,0,120
2,note_on,43,47,120
2,note_on,43,0,120
2,note_on,51,48,120
2,note_on,51,0,120
2,note_on,43,49,120
2,note_on,43,0,120
2,note_on,51,51,120
2,note_on,51,0,120
2,note_on,43,51,120
2,note_on,43,0,120
2,note_on,51,48,120
2,note_on,51,0,120
2,note_on,43,47,120
2,note_on,43,0,120
2,note_on,51,45,120
2,note_on,51,0,120
2,note_on,44,33,120
2,note_on,51,25,120
2,note_on,44,0,20
2,note_on,47,28,100
2,note_on,51,0,20
2,note_on,51,25,100
2,note_on,47,0,20
2,note_on,44,35,100
2,note_on,51,0,20
2,note_on,44,0,99
2,note_on,51,27,1
2,note_on,51,0,119
2,note_on,47,35,1
2,note_on,47,0,119
2,note_on,51,30,1
2,note_on,51,0,119
2,note_on,44,37,1
2,note_on,44,0,119
2,note_on,51,27,1
2,note_on,51,0,119
2,note_on,47,39,1
2,note_on,47,0,119
2,note_on,51,30,1
2,note_on,51,0,119
2,note_on,44,39,1
2,note_on,44,0,119
2,note_on,51,31,1
2,note_on,51,0,119
2,note_on,47,40,1
2,note_on,47,0,119
2,note_on,51,33,1
2,note_on,51,0,119
2,note_on,46,33,1
2,note_on,51,26,120
2,note_on,46,0,20
2,note_on,49,29,100
2,note_on,51,0,20
2,note_on,51,26,100
2,note_on,49,0,20
2,note_on,46,42,100
2,note_on,51,0,20
2,note_on,46,0,99
2,note_on,51,32,1
2,note_on,51,0,119
2,note_on,49,40,1
2,note_on,49,0,119
2,note_on,51,40,1
2,note_on,51,0,119
2,note_on,46,49,1
2,note_on,46,0,119
2,note_on,51,40,1
2,note_on,51,0,119
2,note_on,49,46,1
2,note_on,49,0,119
2,note_on,51,41,1
2,note_on,51,0,119
2,note_on,46,56,1
2,note_on,46,0,119
2,note_on,51,41,1
2,note_on,51,0,119
2,note_on,49,43,1
2,note_on,49,0,119
2,note_on,51,36,1
2,note_on,51,0,119
2,note_on,47,33,1
2,note_on,47,0,119
2,note_on,51,29,1
2,note_on,51,0,119
2,note_on,47,30,1
2,note_on,47,0,119
2,note_on,51,26,1
2,note_on,51,0,119
2,note_on,47,41,1
2,note_on,47,0,119
2,note_on,51,32,1
2,note_on,51,0,119
2,note_on,47,39,1
2,note_on,47,0,119
2,note_on,51,36,1
2,note_on,51,0,119
2,note_on,47,49,1
2,note_on,47,0,119
2,note_on,51,38,1
2,note_on,51,0,119
2,note_on,47,48,1
2,note_on,47,0,119
2,note_on,51,42,1
2,note_on,51,0,119
2,note_on,47,54,1
2,note_on,47,0,119
2,note_on,51,41,1
2,note_on,51,0,119
2,note_on,47,43,1
2,note_on,47,0,119
2,note_on,51,35,1
2,note_on,51,0,119
2,note_on,43,32,1
2,note_on,43,0,119
2,note_on,51,29,1
2,note_on,51,0,119
2,note_on,43,29,1
2,note_on,43,0,119
2,note_on,51,26,1
2,note_on,51,0,119
2,note_on,43,41,1
2,note_on,43,0,119
2,note_on,51,40,1
2,note_on,51,0,119
2,note_on,43,42,1
2,note_on,43,0,119
2,note_on,51,40,1
2,note_on,51,0,119
2,note_on,43,48,1
2,note_on,43,0,119
2,note_on,51,43,1
2,note_on,51,0,119
2,note_on,43,49,1
2,note_on,43,0,119
2,note_on,51,42,1
2,note_on,51,0,119
2,note_on,43,54,1
2,note_on,43,0,119
2,note_on,51,38,1
2,note_on,51,0,119
2,note_on,43,42,1
2,note_on,43,0,119
2,note_on,51,35,1
2,note_on,51,0,119
2,note_on,44,39,1
2,note_on,51,33,120
2,note_on,44,0,20
2,note_on,47,35,100
2,note_on,51,0,20
2,note_on,47,0,99
2,note_on,51,31,1
2,note_on,51,0,119
2,note_on,44,40,1
2,note_on,44,0,119
2,note_on,51,31,1
2,note_on,51,0,119
2,note_on,47,34,1
2,note_on,47,0,119
2,note_on,51,31,1
2,note_on,51,0,119
2,note_on,44,41,1
2,note_on,44,0,119
2,note_on,51,32,1
2,note_on,51,0,119
2,note_on,47,35,1
2,note_on,47,0,119
2,note_on,51,32,1
2,note_on,51,0,119
2,note_on,44,43,1
2,note_on,51,33,120
2,note_on,44,0,20
2,note_on,47,37,100
2,note_on,51,0,20
2,note_on,51,33,100
2,note_on,47,0,20
2,note_on,46,46,100
2,note_on,51,0,20
2,note_on,51,34,100
2,note_on,46,0,20
2,note_on,49,39,100
2,note_on,51,0,20
2,note_on,49,0,99
2,note_on,51,34,1
2,note_on,51,0,119
2,note_on,46,47,1
2,note_on,46,0,119
2,note_on,51,35,1
2,note_on,51,0,119
2,note_on,49,40,1
2,note_on,49,0,119
2,note_on,51,40,1
2,note_on,51,0,119
2,note_on,46,49,1
2,note_on,46,0,119
2,note_on,51,35,1
2,note_on,51,0,119
2,note_on,49,41,1
2,note_on,49,0,119
2,note_on,51,35,1
2,note_on,51,0,119
2,note_on,46,50,1
2,note_on,51,42,120
2,note_on,46,0,20
2,note_on,49,45,100
2,note_on,51,0,20
2,note_on,51,42,100
2,note_on,49,0,20
2,note_on,47,51,100
2,note_on,51,0,20
2,note_on,51,43,100
2,note_on,47,0,20
2,note_on,47,47,100
2,note_on,51,0,20
2,note_on,47,0,99
2,note_on,51,43,1
2,note_on,51,0,119
2,note_on,47,52,1
2,note_on,47,0,119
2,note_on,51,44,1
2,note_on,51,0,119
2,note_on,47,48,1
2,note_on,47,0,119
2,note_on,51,44,1
2,note_on,51,0,119
2,note_on,47,56,1
2,note_on,47,0,119
2,note_on,51,46,1
2,note_on,51,0,119
2,note_on,47,50,1
2,note_on,51,45,120
2,note_on,47,0,20
2,note_on,47,57,100
2,note_on,51,0,20
2,note_on,51,47,100
2,note_on,47,0,20
2,note_on,47,51,100
2,note_on,51,0,20
2,note_on,51,47,100
2,note_on,47,0,20
2,note_on,43,59,100
2,note_on,51,0,20
2,note_on,51,52,100
2,note_on,43,0,20
2,note_on,43,56,100
2,note_on,51,0,20
2,note_on,43,0,99
2,note_on,51,51,1
2,note_on,51,0,119
2,note_on,43,60,1
2,note_on,43,0,119
2,note_on,51,53,1
2,note_on,51,0,119
2,note_on,43,57,1
2,note_on,43,0,119
2,note_on,51,52,1
2,note_on,51,0,119
2,note_on,43,62,1
2,note_on,43,0,119
2,note_on,51,54,1
2,note_on,51,0,119
2,note_on,43,59,1
2,note_on,51,53,120
2,note_on,43,0,20
2,note_on,43,62,100
2,note_on,51,0,20
2,note_on,51,54,100
2,note_on,43,0,20
2,note_on,43,60,100
2,note_on,51,0,20
2,note_on,51,53,100
2,note_on,43,0,20
2,note_on,42,66,100
2,note_on,51,0,20
2,note_on,51,57,100
2,note_on,42,0,20
2,note_on,44,61,100
2,note_on,51,0,20
2,note_on,51,56,100
2,note_on,44,0,20
2,note_on,42,66,100
2,note_on,51,0,20
2,note_on,51,56,100
2,note_on,42,0,20
2,note_on,44,61,100
2,note_on,51,0,20
2,note_on,51,56,100
2,note_on,44,0,20
2,note_on,40,66,100
2,note_on,51,0,20
2,note_on,49,58,100
2,note_on,40,0,20
2,note_on,44,62,100
2,note_on,49,0,20
2,note_on,49,56,100
2,note_on,44,0,20
2,note_on,40,66,100
2,note_on,49,0,20
2,note_on,49,56,100
2,note_on,40,0,20
2,note_on,44,61,100
2,note_on,49,0,20
2,note_on,49,61,100
2,note_on,44,0,20
2,note_on,40,66,100
2,note_on,49,0,20
2,note_on,40,0,99
2,note_on,49,56,1
2,note_on,49,0,119
2,note_on,42,61,1
2,note_on,42,0,119
2,note_on,49,54,1
2,note_on,49,0,119
2,note_on,39,66,1
2,note_on,47,56,120
2,note_on,39,0,20
2,note_on,42,62,100
2,note_on,47,0,20
2,note_on,47,56,100
2,note_on,42,0,20
2,note_on,39,66,100
2,note_on,47,0,20
2,note_on,47,56,100
2,note_on,39,0,20
2,note_on,42,61,100
2,note_on,47,0,20
2,note_on,47,56,100
2,note_on,42,0,20
2,note_on,39,66,100
2,note_on,47,0,20
2,note_on,47,54,100
2,note_on,39,0,20
2,note_on,42,60,100
2,note_on,47,0,20
2,note_on,47,60,100
2,note_on,42,0,20
2,note_on,38,66,100
2,note_on,47,0,20
2,note_on,47,56,100
2,note_on,38,0,20
2,note_on,40,62,100
2,note_on,47,0,20
2,note_on,47,54,100
2,note_on,40,0,20
2,note_on,38,66,100
2,note_on,47,0,20
2,note_on,47,56,100
2,note_on,38,0,20
2,note_on,40,62,100
2,note_on,47,0,20
2,note_on,47,56,100
2,note_on,40,0,20
2,note_on,37,66,100
2,note_on,47,0,20
2,note_on,45,56,100
2,note_on,37,0,20
2,note_on,40,62,100
2,note_on,45,0,20
2,note_on,45,56,100
2,note_on,40,0,20
2,note_on,37,66,100
2,note_on,45,0,20
2,note_on,45,56,100
2,note_on,37,0,20
2,note_on,40,62,100
2,note_on,45,0,20
2,note_on,45,56,100
2,note_on,40,0,20
2,note_on,37,66,100
2,note_on,45,0,20
2,note_on,37,0,99
2,note_on,46,56,1
2,note_on,46,0,119
2,note_on,39,60,1
2,note_on,39,0,119
2,note_on,46,56,1
2,note_on,46,0,119
2,note_on,35,66,1
2,note_on,44,56,120
2,note_on,35,0,20
2,note_on,39,61,100
2,note_on,44,0,20
2,note_on,44,56,100
2,note_on,39,0,20
2,note_on,35,66,100
2,note_on,44,0,20
2,note_on,44,56,100
2,note_on,35,0,20
2,note_on,39,61,100
2,note_on,44,0,20
2,note_on,44,54,100
2,note_on,39,0,20
2,note_on,35,66,100
2,note_on,44,0,20
2,note_on,44,56,100
2,note_on,35,0,20
2,note_on,39,61,100
2,note_on,44,0,20
2,note_on,44,54,100
2,note_on,39,0,20
2,note_on,44,0,100
2,note_on,45,75,0
2,note_on,49,75,0
2,note_on,40,64,0
2,note_on,37,64,0
2,note_on,37,0,1440
2,note_on,45,0,0
2,note_on,49,0,0
2,note_on,40,0,0
2,note_on,64,42,480
2,note_on,61,42,0
2,note_on,69,50,0
2,note_on,69,0,476
2,note_on,61,0,4
2,note_on,64,0,0
2,note_on,69,49,480
2,note_on,64,41,0
2,note_on,61,41,0
2,note_on,61,0,480
2,note_on,64,0,0
2,note_on,69,0,0
2,note_on,69,49,480
2,note_on,64,41,0
2,note_on,61,41,0
2,note_on,61,0,480
2,note_on,64,0,0
2,note_on,69,0,0
2,note_on,69,52,0
2,note_on,64,44,0
2,note_on,61,44,0
2,note_on,61,0,480
2,note_on,64,0,0
2,note_on,69,0,0
2,note_on,69,60,0
2,note_on,64,51,0
2,note_on,61,51,0
2,note_on,61,0,480
2,note_on,64,0,0
2,note_on,69,0,0
2,note_on,61,47,0
2,note_on,69,56,0
2,note_on,64,47,0
2,note_on,64,0,480
2,note_on,69,0,0
2,note_on,61,0,0
2,note_on,63,49,0
2,note_on,63,0,120
2,note_on,71,43,0
2,note_on,71,0,120
2,note_on,68,49,0
2,note_on,68,0,120
2,note_on,71,49,0
2,note_on,71,0,120
2,note_on,63,51,0
2,note_on,63,0,120
2,note_on,71,44,0
2,note_on,71,0,120
2,note_on,68,47,0
2,note_on,68,0,120
2,note_on,71,43,0
2,note_on,71,0,120
2,note_on,63,51,0
2,note_on,63,0,120
2,note_on,73,44,0
2,note_on,73,0,120
2,note_on,67,48,0
2,note_on,67,0,120
2,note_on,73,44,0
2,note_on,73,0,120
2,note_on,63,51,0
2,note_on,63,0,120
2,note_on,73,45,0
2,note_on,73,0,120
2,note_on,67,48,0
2,note_on,67,0,120
2,note_on,73,45,0
2,note_on,73,0,120
2,note_on,71,56,0
2,note_on,64,47,0
2,note_on,68,56,0
2,note_on,68,0,240
2,note_on,64,0,0
2,note_on,71,0,0
2,note_on,49,73,240
2,note_on,45,73,0
2,note_on,40,62,0
2,note_on,37,62,0
2,note_on,37,0,960
2,note_on,49,0,0
2,note_on,45,0,0
2,note_on,40,0,0
2,note_on,52,41,960
2,note_on,49,41,0
2,note_on,57,49,0
2,note_on,57,0,480
2,note_on,49,0,0
2,note_on,52,0,0
2,note_on,52,41,480
2,note_on,57,49,0
2,note_on,49,41,0
2,note_on,49,0,480
2,note_on,57,0,0
2,note_on,52,0,0
2,note_on,49,43,240
2,note_on,57,51,0
2,note_on,52,43,0
2,note_on,52,0,240
2,note_on,57,0,0
2,note_on,49,0,0
2,note_on,49,51,240
2,note_on,57,61,0
2,note_on,52,51,0
2,note_on,52,0,240
2,note_on,57,0,0
2,note_on,49,0,0
2,note_on,49,57,240
2,note_on,57,68,0
2,note_on,52,57,0
2,note_on,52,0,240
2,note_on,57,0,0
2,note_on,49,0,0
2,note_on,57,68,240
2,note_on,52,57,0
2,note_on,49,57,0
2,note_on,49,0,240
2,note_on,52,0,0
2,note_on,57,0,0
2,note_on,52,56,0
2,note_on,49,56,0
2,note_on,57,67,0
2,note_on,57,0,480
2,note_on,49,0,0
2,note_on,52,0,0
2,note_on,49,70,1440
2,note_on,49,0,119
2,note_on,57,61,1
2,note_on,57,0,119
2,note_on,52,66,1
2,note_on,52,0,119
2,note_on,57,62,1
2,note_on,57,0,119
2,note_on,49,70,1
2,note_on,49,0,119
2,note_on,57,61,1
2,note_on,57,0,119
2,note_on,52,65,1
2,note_on,52,0,119
2,note_on,57,62,1
2,note_on,57,0,119
2,note_on,50,70,1
2,note_on,50,0,119
2,note_on,59,61,1
2,note_on,59,0,119
2,note_on,53,66,1
2,note_on,53,0,119
2,note_on,59,62,1
2,note_on,59,0,119
2,note_on,50,70,1
2,note_on,50,0,119
2,note_on,59,59,1
2,note_on,59,0,119
2,note_on,53,63,1
2,note_on,53,0,119
2,note_on,59,61,1
2,note_on,59,0,119
2,note_on,51,70,1
2,note_on,51,0,119
2,note_on,59,61,1
2,note_on,59,0,119
2,note_on,56,66,1
2,note_on,56,0,119
2,note_on,59,62,1
2,note_on,59,0,119
2,note_on,51,70,1
2,note_on,51,0,119
2,note_on,59,62,1
2,note_on,59,0,119
2,note_on,56,66,1
2,note_on,56,0,119
2,note_on,59,61,1
2,note_on,59,0,119
2,note_on,39,70,1
2,note_on,39,0,119
2,note_on,51,62,1
2,note_on,51,0,119
2,note_on,50,67,1
2,note_on,50,0,119
2,note_on,51,62,1
2,note_on,51,0,119
2,note_on,50,70,1
2,note_on,50,0,119
2,note_on,51,62,1
2,note_on,51,0,119
2,note_on,50,67,1
2,note_on,50,0,119
2,note_on,51,62,1
2,note_on,51,0,102
2,note_on,44,71,18
2,note_on,44,0,240
2,note_on,56,43,240
2,note_on,56,0,120
2,note_on,56,43,120
2,note_on,56,0,120
2,note_on,56,43,120
2,note_on,56,0,120
2,note_on,56,43,120
2,note_on,56,0,120
2,note_on,58,40,120
2,note_on,58,0,120
2,note_on,59,39,120
2,note_on,59,0,120
2,note_on,51,47,120
2,note_on,61,47,0
2,note_on,61,0,240
2,note_on,51,0,0
2,note_on,61,42,0
2,note_on,63,42,0
2,note_on,63,0,120
2,note_on,61,0,0
2,note_on,61,41,120
2,note_on,63,41,0
2,note_on,63,0,120
2,note_on,61,0,0
2,note_on,61,41,120
2,note_on,63,41,0
2,note_on,63,0,120
2,note_on,61,0,0
2,note_on,63,41,120
2,note_on,61,41,0
2,note_on,61,0,120
2,note_on,63,0,0
2,note_on,63,41,120
2,note_on,61,41,0
2,note_on,61,0,120
2,note_on,63,0,0
2,note_on,63,41,120
2,note_on,59,41,0
2,note_on,59,0,120
2,note_on,63,0,0
2,note_on,58,43,120
2,note_on,63,43,0
2,note_on,63,0,120
2,note_on,58,0,0
2,note_on,56,47,120
2,note_on,44,47,0
2,note_on,44,0,240
2,note_on,56,0,0
2,note_on,56,42,0
2,note_on,56,0,120
2,note_on,56,42,120
2,note_on,56,0,120
2,note_on,56,42,120
2,note_on,56,0,120
2,note_on,56,43,120
2,note_on,56,0,120
2,note_on,56,42,120
2,note_on,56,0,120
2,note_on,58,41,120
2,note_on,58,0,120
2,note_on,59,39,120
2,note_on,59,0,120
2,note_on,51,47,120
2,note_on,61,47,0
2,note_on,61,0,240
2,note_on,51,0,0
2,note_on,61,41,0
2,note_on,63,41,0
2,note_on,63,0,120
2,note_on,61,0,0
2,note_on,63,43,120
2,note_on,61,43,0
2,note_on,61,0,120
2,note_on,63,0,0
2,note_on,61,42,120
2,note_on,63,42,0
2,note_on,63,0,120
2,note_on,61,0,0
2,note_on,61,42,120
2,note_on,63,42,0
2,note_on,63,0,120
2,note_on,61,0,0
2,note_on,63,42,120
2,note_on,61,42,0
2,note_on,61,0,120
2,note_on,63,0,0
2,note_on,63,43,120
2,note_on,59,43,0
2,note_on,59,0,120
2,note_on,63,0,0
2,note_on,63,45,120
2,note_on,58,45,0
2,note_on,58,0,120
2,note_on,63,0,0
2,note_on,44,48,120
2,note_on,44,0,120
2,note_on,59,39,120
2,note_on,56,39,0
2,note_on,56,0,120
2,note_on,59,0,0
2,note_on,56,39,120
2,note_on,59,39,0
2,note_on,59,0,240
2,note_on,56,0,0
2,note_on,59,39,0
2,note_on,63,39,0
2,note_on,63,0,240
2,note_on,59,0,0
2,note_on,49,47,0
2,note_on,49,0,120
2,note_on,56,43,120
2,note_on,61,43,0
2,note_on,61,0,120
2,note_on,56,0,0
2,note_on,61,43,120
2,note_on,56,43,0
2,note_on,56,0,240
2,note_on,61,0,0
2,note_on,61,41,0
2,note_on,64,41,0
2,note_on,64,0,240
2,note_on,61,0,0
2,note_on,51,47,0
2,note_on,51,0,120
2,note_on,59,41,120
2,note_on,56,41,0
2,note_on,56,0,120
2,note_on,59,0,0
2,note_on,56,42,120
2,note_on,59,42,0
2,note_on,59,0,240
2,note_on,56,0,0
2,note_on,63,42,0
2,note_on,59,42,0
2,note_on,59,0,240
2,note_on,63,0,0
2,note_on,51,47,0
2,note_on,51,0,120
2,note_on,55,39,120
2,note_on,58,39,0
2,note_on,58,0,120
2,note_on,55,0,0
2,note_on,58,39,120
2,note_on,55,39,0
2,note_on,55,0,240
2,note_on,58,0,0
2,note_on,58,39,0
2,note_on,63,39,0
2,note_on,63,0,240
2,note_on,58,0,0
2,note_on,32,42,0
2,note_on,44,42,0
2,note_on,44,0,240
2,note_on,32,0,0
2,note_on,44,41,0
2,note_on,51,41,0
2,note_on,51,0,120
2,note_on,44,0,0
2,note_on,44,43,120
2,note_on,51,43,0
2,note_on,51,0,120
2,note_on,44,0,0
2,note_on,51,47,120
2,note_on,44,47,0
2,note_on,44,0,120
2,note_on,51,0,0
2,note_on,51,50,120
2,note_on,44,50,0
2,note_on,44,0,120
2,note_on,51,0,0
2,note_on,51,52,120
2,note_on,44,52,0
2,note_on,44,0,120
2,note_on,51,0,0
2,note_on,51,57,120
2,note_on,46,57,0
2,note_on,46,0,120
2,note_on,51,0,0
2,note_on,51,59,120
2,note_on,47,59,0
2,note_on,47,0,120
2,note_on,51,0,0
2,note_on,51,62,120
2,note_on,49,62,0
2,note_on,39,62,0
2,note_on,39,0,240
2,note_on,49,0,0
2,note_on,51,0,0
2,note_on,61,62,0
2,note_on,51,62,0
2,note_on,51,0,120
2,note_on,61,0,0
2,note_on,51,66,120
2,note_on,61,66,0
2,note_on,61,0,120
2,note_on,51,0,0
2,note_on,61,62,120
2,note_on,51,62,0
2,note_on,51,0,120
2,note_on,61,0,0
2,note_on,61,66,120
2,note_on,51,66,0
2,note_on,51,0,120
2,note_on,61,0,0
2,note_on,61,62,120
2,note_on,51,62,0
2,note_on,51,0,120
2,note_on,61,0,0
2,note_on,51,66,120
2,note_on,59,66,0
2,note_on,59,0,120
2,note_on,51,0,0
2,note_on,51,62,120
2,note_on,58,62,0
2,note_on,58,0,120
2,note_on,51,0,0
2,note_on,44,67,120
2,note_on,32,67,0
2,note_on,32,0,240
2,note_on,44,0,0
2,note_on,51,41,0
2,note_on,44,41,0
2,note_on,44,0,120
2,note_on,51,0,0
2,note_on,51,44,120
2,note_on,44,44,0
2,note_on,44,0,120
2,note_on,51,0,0
2,note_on,44,48,120
2,note_on,51,48,0
2,note_on,51,0,120
2,note_on,44,0,0
2,note_on,44,51,120
2,note_on,51,51,0
2,note_on,51,0,120
2,note_on,44,0,0
2,note_on,44,56,120
2,note_on,51,56,0
2,note_on,51,0,120
2,note_on,44,0,0
2,note_on,51,58,120
2,note_on,46,58,0
2,note_on,46,0,120
2,note_on,51,0,0
2,note_on,47,62,120
2,note_on,51,62,0
2,note_on,51,0,120
2,note_on,47,0,0
2,note_on,49,66,120
2,note_on,39,66,0
2,note_on,51,66,0
2,note_on,51,0,240
2,note_on,39,0,0
2,note_on,49,0,0
2,note_on,51,62,0
2,note_on,61,62,0
2,note_on,61,0,120
2,note_on,51,0,0
2,note_on,51,67,120
2,note_on,61,67,0
2,note_on,61,0,120
2,note_on,51,0,0
2,note_on,51,62,120
2,note_on,61,62,0
2,note_on,61,0,120
2,note_on,51,0,0
2,note_on,61,67,120
2,note_on,51,67,0
2,note_on,51,0,120
2,note_on,61,0,0
2,note_on,51,62,120
2,note_on,61,62,0
2,note_on,61,0,120
2,note_on,51,0,0
2,note_on,59,67,120
2,note_on,51,67,0
2,note_on,51,0,120
2,note_on,59,0,0
2,note_on,51,62,120
2,note_on,58,62,0
2,note_on,58,0,120
2,note_on,51,0,0
2,note_on,44,68,120
2,note_on,56,68,0
2,note_on,56,0,240
2,note_on,44,0,0
2,note_on,59,43,0
2,note_on,63,43,0
2,note_on,63,0,120
2,note_on,59,0,0
2,note_on,63,41,120
2,note_on,59,41,0
2,note_on,59,0,240
2,note_on,63,0,0
2,note_on,56,39,0
2,note_on,59,39,0
2,note_on,59,0,240
2,note_on,56,0,0
2,note_on,49,48,0
2,note_on,49,0,120
2,note_on,64,42,120
2,note_on,61,42,0
2,note_on,61,0,120
2,note_on,64,0,0
2,note_on,61,42,120
2,note_on,64,42,0
2,note_on,64,0,240
2,note_on,61,0,0
2,note_on,56,39,0
2,note_on,61,39,0
2,note_on,61,0,240
2,note_on,56,0,0
2,note_on,51,48,0
2,note_on,51,0,120
2,note_on,63,42,120
2,note_on,59,42,0
2,note_on,59,0,120
2,note_on,63,0,0
2,note_on,63,42,120
2,note_on,59,42,0
2,note_on,59,0,240
2,note_on,63,0,0
2,note_on,59,39,0
2,note_on,56,39,0
2,note_on,56,0,240
2,note_on,59,0,0
2,note_on,49,49,0
2,note_on,49,0,120
2,note_on,63,42,120
2,note_on,58,42,0
2,note_on,58,0,120
2,note_on,63,0,0
2,note_on,58,42,120
2,note_on,63,42,0
2,note_on,63,0,240
2,note_on,58,0,0
2,note_on,58,39,0
2,note_on,55,39,0
2,note_on,55,0,240
2,note_on,58,0,0
2,note_on,47,45,0
2,note_on,47,0,240
2,note_on,63,39,0
2,note_on,68,39,0
2,note_on,68,0,120
2,note_on,63,0,0
2,note_on,68,41,120
2,note_on,63,41,0
2,note_on,63,0,240
2,note_on,68,0,0
2,note_on,63,41,0
2,note_on,59,41,0
2,note_on,59,0,240
2,note_on,63,0,0
2,note_on,49,50,0
2,note_on,49,0,240
2,note_on,64,47,0
2,note_on,69,47,0
2,note_on,69,0,120
2,note_on,64,0,0
2,note_on,69,45,120
2,note_on,64,45,0
2,note_on,64,0,240
2,note_on,69,0,0
2,note_on,64,45,0
2,note_on,61,45,0
2,note_on,61,0,240
2,note_on,64,0,0
2,note_on,51,52,0
2,note_on,51,0,240
2,note_on,68,48,0
2,note_on,63,48,0
2,note_on,63,0,120
2,note_on,68,0,0
2,note_on,68,48,120
2,note_on,63,48,0
2,note_on,63,0,240
2,note_on,68,0,0
2,note_on,63,45,0
2,note_on,59,45,0
2,note_on,59,0,240
2,note_on,63,0,0
2,note_on,51,51,0
2,note_on,51,0,240
2,note_on,67,43,0
2,note_on,61,43,0
2,note_on,61,0,120
2,note_on,67,0,0
2,note_on,67,43,120
2,note_on,61,43,0
2,note_on,61,0,240
2,note_on,67,0,0
2,note_on,58,35,0
2,note_on,61,35,0
2,note_on,61,0,240
2,note_on,58,0,0
2,note_on,44,41,0
2,note_on,44,0,119
2,note_on,56,32,1
2,note_on,56,0,119
2,note_on,51,36,1
2,note_on,51,0,119
2,note_on,56,33,1
2,note_on,56,0,119
2,note_on,44,41,1
2,note_on,44,0,119
2,note_on,56,33,1
2,note_on,56,0,119
2,note_on,51,36,1
2,note_on,51,0,119
2,note_on,56,33,1
2,note_on,56,0,119
2,note_on,44,41,1
2,note_on,44,0,119
2,note_on,56,33,1
2,note_on,56,0,119
2,note_on,51,37,1
2,note_on,51,0,119
2,note_on,56,33,1
2,note_on,56,0,119
2,note_on,44,41,1
2,note_on,44,0,119
2,note_on,56,33,1
2,note_on,56,0,119
2,note_on,51,37,1
2,note_on,51,0,119
2,note_on,56,33,1
2,note_on,56,0,119
2,note_on,44,41,1
2,note_on,44,0,119
2,note_on,58,33,1
2,note_on,58,0,119
2,note_on,51,38,1
2,note_on,51,0,119
2,note_on,58,33,1
2,note_on,58,0,119
2,note_on,44,41,1
2,note_on,44,0,119
2,note_on,58,33,1
2,note_on,58,0,119
2,note_on,51,37,1
2,note_on,51,0,119
2,note_on,58,34,1
2,note_on,58,0,119
2,note_on,44,41,1
2,note_on,44,0,119
2,note_on,58,34,1
2,note_on,58,0,119
2,note_on,51,38,1
2,note_on,51,0,119
2,note_on,58,33,1
2,note_on,58,0,119
2,note_on,44,41,1
2,note_on,44,0,119
2,note_on,58,33,1
2,note_on,58,0,119
2,note_on,51,36,1
2,note_on,51,0,119
2,note_on,58,33,1
2,note_on,58,0,119
2,note_on,44,41,1
2,note_on,44,0,119
2,note_on,56,32,1
2,note_on,56,0,119
2,note_on,51,37,1
2,note_on,51,0,119
2,note_on,56,32,1
2,note_on,56,0,119
2,note_on,44,41,1
2,note_on,44,0,119
2,note_on,56,33,1
2,note_on,56,0,119
2,note_on,51,38,1
2,note_on,51,0,119
2,note_on,56,34,1
2,note_on,56,0,119
2,note_on,44,41,1
2,note_on,44,0,119
2,note_on,56,34,1
2,note_on,56,0,119
2,note_on,51,38,1
2,note_on,51,0,119
2,note_on,56,33,1
2,note_on,56,0,119
2,note_on,44,41,1
2,note_on,44,0,119
2,note_on,56,33,1
2,note_on,56,0,119
2,note_on,51,36,1
2,note_on,51,0,119
2,note_on,56,34,1
2,note_on,56,0,119
2,note_on,44,41,1
2,note_on,44,0,119
2,note_on,58,33,1
2,note_on,58,0,119
2,note_on,51,36,1
2,note_on,51,0,119
2,note_on,58,33,1
2,note_on,58,0,119
2,note_on,44,41,1
2,note_on,44,0,119
2,note_on,58,33,1
2,note_on,58,0,119
2,note_on,51,36,1
2,note_on,51,0,119
2,note_on,58,33,1
2,note_on,58,0,119
2,note_on,44,41,1
2,note_on,44,0,119
2,note_on,58,33,1
2,note_on,58,0,119
2,note_on,51,36,1
2,note_on,51,0,119
2,note_on,58,33,1
2,note_on,58,0,119
2,note_on,44,41,1
2,note_on,44,0,119
2,note_on,58,34,1
2,note_on,58,0,119
2,note_on,51,39,1
2,note_on,51,0,119
2,note_on,58,34,1
2,note_on,58,0,119
2,note_on,44,41,1
2,note_on,44,0,119
2,note_on,56,33,1
2,note_on,56,0,119
2,note_on,51,36,1
2,note_on,51,0,119
2,note_on,56,33,1
2,note_on,56,0,119
2,note_on,44,42,1
2,note_on,44,0,119
2,note_on,56,33,1
2,note_on,56,0,119
2,note_on,51,35,1
2,note_on,51,0,119
2,note_on,56,33,1
2,note_on,56,0,119
2,note_on,44,41,1
2,note_on,44,0,119
2,note_on,58,34,1
2,note_on,58,0,119
2,note_on,51,37,1
2,note_on,51,0,119
2,note_on,58,34,1
2,note_on,58,0,119
2,note_on,44,41,1
2,note_on,44,0,119
2,note_on,58,33,1
2,note_on,58,0,119
2,note_on,51,38,1
2,note_on,51,0,119
2,note_on,58,33,1
2,note_on,58,0,119
2,note_on,44,41,1
2,note_on,44,0,119
2,note_on,56,33,1
2,note_on,56,0,119
2,note_on,51,36,1
2,note_on,51,0,119
2,note_on,56,33,1
2,note_on,56,0,119
2,note_on,44,41,1
2,note_on,44,0,119
2,note_on,56,34,1
2,note_on,56,0,119
2,note_on,51,36,1
2,note_on,51,0,119
2,note_on,56,33,1
2,note_on,56,0,119
2,note_on,44,41,1
2,note_on,44,0,119
2,note_on,58,34,1
2,note_on,58,0,119
2,note_on,51,37,1
2,note_on,51,0,119
2,note_on,58,34,1
2,note_on,58,0,119
2,note_on,44,41,1
2,note_on,44,0,119
2,note_on,58,34,1
2,note_on,58,0,119
2,note_on,51,37,1
2,note_on,51,0,119
2,note_on,58,34,1
2,note_on,58,0,119
2,note_on,44,42,1
2,note_on,44,0,119
2,note_on,56,41,1
2,note_on,56,0,119
2,note_on,51,42,1
2,note_on,51,0,119
2,note_on,56,39,1
2,note_on,56,0,119
2,note_on,44,43,1
2,note_on,44,0,119
2,note_on,56,44,1
2,note_on,56,0,119
2,note_on,51,45,1
2,note_on,51,0,119
2,note_on,56,42,1
2,note_on,56,0,119
2,note_on,44,47,1
2,note_on,44,0,119
2,note_on,56,48,1
2,note_on,56,0,119
2,note_on,51,48,1
2,note_on,51,0,119
2,note_on,56,44,1
2,note_on,56,0,119
2,note_on,44,51,1
2,note_on,44,0,119
2,note_on,56,51,1
2,note_on,56,0,119
2,note_on,51,52,1
2,note_on,51,0,119
2,note_on,56,47,1
2,note_on,56,0,119
2,note_on,44,53,1
2,note_on,44,0,119
2,note_on,54,56,1
2,note_on,54,0,119
2,note_on,51,56,1
2,note_on,51,0,119
2,note_on,54,52,1
2,note_on,54,0,119
2,note_on,44,57,1
2,note_on,44,0,119
2,note_on,54,58,1
2,note_on,54,0,119
2,note_on,51,60,1
2,note_on,51,0,119
2,note_on,54,57,1
2,note_on,54,0,119
2,note_on,44,62,1
2,note_on,44,0,119
2,note_on,54,62,1
2,note_on,54,0,119
2,note_on,51,63,1
2,note_on,51,0,119
2,note_on,54,59,1
2,note_on,54,0,119
2,note_on,44,65,1
2,note_on,44,0,119
2,note_on,54,67,1
2,note_on,54,0,119
2,note_on,51,67,1
2,note_on,51,0,119
2,note_on,54,60,1
2,note_on,54,0,119
2,note_on,37,48,1
2,note_on,53,57,0
2,note_on,56,57,0
2,note_on,56,0,120
2,note_on,53,0,0
2,note_on,37,0,0
2,note_on,44,34,120
2,note_on,44,0,120
2,note_on,37,36,120
2,note_on,37,0,120
2,note_on,44,34,120
2,note_on,44,0,120
2,note_on,37,36,120
2,note_on,37,0,120
2,note_on,44,34,120
2,note_on,44,0,120
2,note_on,37,35,120
2,note_on,37,0,120
2,note_on,44,33,120
2,note_on,44,0,120
2,note_on,37,42,120
2,note_on,37,0,120
2,note_on,44,39,120
2,note_on,44,0,120
2,note_on,37,43,120
2,note_on,37,0,120
2,note_on,44,39,120
2,note_on,44,0,120
2,note_on,37,43,120
2,note_on,37,0,120
2,note_on,44,39,120
2,note_on,44,0,120
2,note_on,49,77,120
2,note_on,37,64,0
2,note_on,37,0,120
2,note_on,49,0,0
2,note_on,44,64,120
2,note_on,44,0,120
2,note_on,35,68,120
2,note_on,35,0,120
2,note_on,44,43,120
2,note_on,44,0,120
2,note_on,35,47,120
2,note_on,35,0,120
2,note_on,44,44,120
2,note_on,44,0,120
2,note_on,35,48,120
2,note_on,35,0,120
2,note_on,44,43,120
2,note_on,44,0,120
2,note_on,35,48,120
2,note_on,35,0,120
2,note_on,44,44,120
2,note_on,44,0,120
2,note_on,35,48,120
2,note_on,35,0,120
2,note_on,44,44,120
2,note_on,44,0,120
2,note_on,35,48,120
2,note_on,35,0,120
2,note_on,44,44,120
2,note_on,44,0,120
2,note_on,35,48,120
2,note_on,35,0,120
2,note_on,44,44,120
2,note_on,44,0,120
2,note_on,35,64,120
2,note_on,47,77,0
2,note_on,47,0,120
2,note_on,35,0,0
2,note_on,44,64,120
2,note_on,44,0,120
2,note_on,33,68,120
2,note_on,33,0,120
2,note_on,45,51,120
2,note_on,45,0,120
2,note_on,33,55,120
2,note_on,33,0,120
2,note_on,45,51,120
2,note_on,45,0,120
2,note_on,33,55,120
2,note_on,33,0,120
2,note_on,45,51,120
2,note_on,45,0,120
2,note_on,33,83,120
2,note_on,33,0,120
2,note_on,45,71,120
2,note_on,45,0,120
2,note_on,29,56,120
2,note_on,29,0,120
2,note_on,41,52,120
2,note_on,41,0,120
2,note_on,29,53,120
2,note_on,29,0,120
2,note_on,41,51,120
2,note_on,41,0,120
2,note_on,29,53,120
2,note_on,29,0,120
2,note_on,41,50,120
2,note_on,41,0,120
2,note_on,29,83,120
2,note_on,29,0,120
2,note_on,41,77,120
2,note_on,41,0,120
2,note_on,30,78,120
2,note_on,42,78,0
2,note_on,42,0,120
2,note_on,30,0,0
2,note_on,61,29,0
2,note_on,57,34,120
2,note_on,61,0,20
2,note_on,61,29,100
2,note_on,57,0,20
2,note_on,54,41,100
2,note_on,61,0,20
2,note_on,54,0,99
2,note_on,61,28,1
2,note_on,61,0,119
2,note_on,57,31,1
2,note_on,57,0,119
2,note_on,61,28,1
2,note_on,61,0,119
2,note_on,54,38,1
2,note_on,54,0,119
2,note_on,61,28,1
2,note_on,61,0,119
2,note_on,57,32,1
2,note_on,57,0,119
2,note_on,61,29,1
2,note_on,61,0,119
2,note_on,54,38,1
2,note_on,54,0,119
2,note_on,61,29,1
2,note_on,61,0,119
2,note_on,57,32,1
2,note_on,57,0,119
2,note_on,61,28,1
2,note_on,61,0,119
2,note_on,56,37,1
2,note_on,61,28,120
2,note_on,56,0,20
2,note_on,59,31,100
2,note_on,61,0,20
2,note_on,61,26,100
2,note_on,59,0,20
2,note_on,56,43,100
2,note_on,61,0,20
2,note_on,56,0,99
2,note_on,61,39,1
2,note_on,61,0,119
2,note_on,59,47,1
2,note_on,59,0,119
2,note_on,61,43,1
2,note_on,61,0,119
2,note_on,56,55,1
2,note_on,56,0,119
2,note_on,61,44,1
2,note_on,61,0,119
2,note_on,59,51,1
2,note_on,59,0,119
2,note_on,61,47,1
2,note_on,61,0,119
2,note_on,56,62,1
2,note_on,56,0,119
2,note_on,61,49,1
2,note_on,61,0,119
2,note_on,59,51,1
2,note_on,59,0,119
2,note_on,61,43,1
2,note_on,61,0,119
2,note_on,57,37,1
2,note_on,57,0,119
2,note_on,61,30,1
2,note_on,61,0,119
2,note_on,57,34,1
2,note_on,57,0,119
2,note_on,61,29,1
2,note_on,61,0,119
2,note_on,57,43,1
2,note_on,57,0,119
2,note_on,61,37,1
2,note_on,61,0,119
2,note_on,57,47,1
2,note_on,57,0,119
2,note_on,61,43,1
2,note_on,61,0,119
2,note_on,57,55,1
2,note_on,57,0,119
2,note_on,61,44,1
2,note_on,61,0,119
2,note_on,57,52,1
2,note_on,57,0,119
2,note_on,61,47,1
2,note_on,61,0,119
2,note_on,57,64,1
2,note_on,57,0,119
2,note_on,61,48,1
2,note_on,61,0,119
2,note_on,57,49,1
2,note_on,57,0,119
2,note_on,61,40,1
2,note_on,61,0,119
2,note_on,53,39,1
2,note_on,53,0,119
2,note_on,61,29,1
2,note_on,61,0,119
2,note_on,53,32,1
2,note_on,53,0,119
2,note_on,61,29,1
2,note_on,61,0,119
2,note_on,53,39,1
2,note_on,53,0,119
2,note_on,61,34,1
2,note_on,61,0,119
2,note_on,53,46,1
2,note_on,53,0,119
2,note_on,61,42,1
2,note_on,61,0,119
2,note_on,53,55,1
2,note_on,53,0,119
2,note_on,61,44,1
2,note_on,61,0,119
2,note_on,53,54,1
2,note_on,53,0,119
2,note_on,61,51,1
2,note_on,61,0,119
2,note_on,53,62,1
2,note_on,53,0,119
2,note_on,61,46,1
2,note_on,61,0,119
2,note_on,53,48,1
2,note_on,53,0,119
2,note_on,61,39,1
2,note_on,61,0,119
2,note_on,54,41,1
2,note_on,54,0,240
2,note_on,61,56,240
2,note_on,61,0,960
2,note_on,57,48,0
2,note_on,57,0,360
2,note_on,54,48,0
2,note_on,54,0,115
2,note_on,54,54,5
2,note_on,54,0,480
2,note_on,53,47,0
2,note_on,53,0,720
2,note_on,53,47,0
2,note_on,53,0,240
2,note_on,61,56,0
2,note_on,61,0,360
2,note_on,53,47,0
2,note_on,53,0,115
2,note_on,56,43,5
2,note_on,56,0,480
2,note_on,54,47,0
2,note_on,54,0,720
2,note_on,54,48,0
2,note_on,54,0,240
2,note_on,61,53,0
2,note_on,61,0,360
2,note_on,54,47,0
2,note_on,54,0,115
2,note_on,54,54,5
2,note_on,54,0,120
2,note_on,54,49,120
2,note_on,54,0,240
2,note_on,62,53,0
2,note_on,62,0,360
2,note_on,54,58,0
2,note_on,54,0,120
2,note_on,54,58,0
2,note_on,54,0,120
2,note_on,54,61,120
2,note_on,54,0,240
2,note_on,62,62,0
2,note_on,62,0,360
2,note_on,54,62,0
2,note_on,54,0,120
2,note_on,55,66,0
2,note_on,55,0,240
2,note_on,50,48,240
2,note_on,50,0,960
2,note_on,47,48,0
2,note_on,47,0,360
2,note_on,43,48,0
2,note_on,43,0,120
2,note_on,43,57,0
2,note_on,43,0,480
2,note_on,42,48,0
2,note_on,42,0,720
2,note_on,42,48,0
2,note_on,42,0,240
2,note_on,50,60,0
2,note_on,50,0,360
2,note_on,42,47,0
2,note_on,42,0,120
2,note_on,45,66,0
2,note_on,45,0,480
2,note_on,43,57,0
2,note_on,43,0,720
2,note_on,43,59,0
2,note_on,43,0,240
2,note_on,50,66,0
2,note_on,50,0,360
2,note_on,42,57,0
2,note_on,42,0,115
2,note_on,42,73,5
2,note_on,42,0,480
2,note_on,41,62,0
2,note_on,41,0,720
2,note_on,41,62,0
2,note_on,41,0,240
2,note_on,49,71,0
2,note_on,49,0,360
2,note_on,41,62,0
2,note_on,41,0,120
2,note_on,42,75,0
2,note_on,42,0,120
2,note_on,42,67,120
2,note_on,42,0,240
2,note_on,45,67,0
2,note_on,45,0,240
2,note_on,42,61,0
2,note_on,42,0,240
2,note_on,38,75,0
2,note_on,38,0,120
2,note_on,38,68,120
2,note_on,38,0,240
2,note_on,42,67,0
2,note_on,42,0,240
2,note_on,38,62,0
2,note_on,38,0,240
2,note_on,36,76,0
2,note_on,36,0,1080
2,note_on,36,68,120
2,note_on,36,0,240
2,note_on,39,68,0
2,note_on,39,0,240
2,note_on,36,65,0
2,note_on,36,0,240
2,note_on,37,73,0
2,note_on,37,0,120
2,note_on,37,68,120
2,note_on,37,0,240
2,note_on,40,68,0
2,note_on,40,0,240
2,note_on,37,65,0
2,note_on,37,0,240
2,note_on,33,76,0
2,note_on,33,0,120
2,note_on,33,68,120
2,note_on,33,0,240
2,note_on,37,68,0
2,note_on,37,0,240
2,note_on,33,67,0
2,note_on,33,0,240
2,note_on,30,75,0
2,note_on,30,0,120
2,note_on,30,68,120
2,note_on,30,0,240
2,note_on,33,68,0
2,note_on,33,0,240
2,note_on,30,67,0
2,note_on,30,0,240
2,note_on,31,77,0
2,note_on,31,0,120
2,note_on,31,67,120
2,note_on,31,0,240
2,note_on,34,67,0
2,note_on,34,0,240
2,note_on,31,67,0
2,note_on,31,0,240
2,note_on,32,39,0
2,note_on,44,33,120
2,note_on,32,0,20
2,note_on,32,39,100
2,note_on,44,0,20
2,note_on,44,31,100
2,note_on,32,0,20
2,note_on,32,39,100
2,note_on,44,0,20
2,note_on,32,0,99
2,note_on,44,32,1
2,note_on,44,0,119
2,note_on,32,39,1
2,note_on,32,0,119
2,note_on,44,32,1
2,note_on,44,0,119
2,note_on,32,39,1
2,note_on,32,0,119
2,note_on,44,34,1
2,note_on,44,0,119
2,note_on,32,39,1
2,note_on,32,0,119
2,note_on,44,34,1
2,note_on,44,0,119
2,note_on,32,39,1
2,note_on,32,0,119
2,note_on,44,32,1
2,note_on,44,0,119
2,note_on,32,39,1
2,note_on,32,0,119
2,note_on,44,34,1
2,note_on,44,0,119
2,note_on,32,39,1
2,note_on,32,0,119
2,note_on,44,33,1
2,note_on,44,0,119
2,note_on,32,39,1
2,note_on,32,0,119
2,note_on,44,32,1
2,note_on,44,0,119
2,note_on,32,39,1
2,note_on,32,0,119
2,note_on,44,33,1
2,note_on,44,0,119
2,note_on,32,39,1
2,note_on,32,0,119
2,note_on,44,33,1
2,note_on,44,0,119
2,note_on,32,39,1
2,note_on,32,0,119
2,note_on,44,33,1
2,note_on,44,0,119
2,note_on,32,39,1
2,note_on,32,0,119
2,note_on,44,34,1
2,note_on,44,0,119
2,note_on,32,39,1
2,note_on,32,0,119
2,note_on,44,33,1
2,note_on,44,0,119
2,note_on,32,39,1
2,note_on,32,0,119
2,note_on,44,32,1
2,note_on,44,0,119
2,note_on,32,39,1
2,note_on,32,0,119
2,note_on,44,33,1
2,note_on,44,0,119
2,note_on,32,39,1
2,note_on,32,0,119
2,note_on,44,33,1
2,note_on,44,0,119
2,note_on,32,39,1
2,note_on,32,0,119
2,note_on,44,33,1
2,note_on,44,0,119
2,note_on,32,39,1
2,note_on,32,0,119
2,note_on,44,33,1
2,note_on,44,0,119
2,note_on,32,39,1
2,note_on,32,0,119
2,note_on,44,33,1
2,note_on,44,0,119
2,note_on,32,39,1
2,note_on,32,0,119
2,note_on,44,33,1
2,note_on,44,0,119
2,note_on,32,39,1
2,note_on,32,0,119
2,note_on,44,33,1
2,note_on,44,0,119
2,note_on,32,39,1
2,note_on,32,0,119
2,note_on,44,34,1
2,note_on,44,0,119
2,note_on,32,39,1
2,note_on,32,0,119
2,note_on,44,34,1
2,note_on,44,0,119
2,note_on,32,39,1
2,note_on,32,0,119
2,note_on,44,33,1
2,note_on,44,0,119
2,note_on,32,39,1
2,note_on,32,0,119
2,note_on,44,34,1
2,note_on,44,0,119
2,note_on,32,39,1
2,note_on,32,0,119
2,note_on,44,34,1
2,note_on,44,0,119
2,note_on,32,39,1
2,note_on,44,34,120
2,note_on,32,0,20
2,note_on,32,39,100
2,note_on,44,0,20
2,note_on,44,32,100
2,note_on,32,0,20
2,note_on,32,37,100
2,note_on,44,0,20
2,note_on,44,33,100
2,note_on,32,0,20
2,note_on,32,37,100
2,note_on,44,0,20
2,note_on,44,31,100
2,note_on,32,0,20
2,note_on,32,37,100
2,note_on,44,0,20
2,note_on,32,0,99
2,note_on,44,33,1
2,note_on,44,0,119
2,note_on,32,37,1
2,note_on,32,0,119
2,note_on,44,32,1
2,note_on,44,0,119
2,note_on,32,37,1
2,note_on,32,0,119
2,note_on,44,32,1
2,note_on,44,0,119
2,note_on,32,37,1
2,note_on,32,0,119
2,note_on,44,33,1
2,note_on,44,0,119
2,note_on,32,39,1
2,note_on,32,0,119
2,note_on,44,34,1
2,note_on,44,0,119
2,note_on,32,40,1
2,note_on,32,0,119
2,note_on,44,34,1
2,note_on,44,0,119
2,note_on,32,41,1
2,note_on,44,37,120
2,note_on,32,0,20
2,note_on,32,41,100
2,note_on,44,0,20
2,note_on,44,38,100
2,note_on,32,0,20
2,note_on,32,43,100
2,note_on,44,0,20
2,note_on,44,38,100
2,note_on,32,0,20
2,note_on,32,44,100
2,note_on,44,0,20
2,note_on,44,39,100
2,note_on,32,0,20
2,note_on,32,45,100
2,note_on,44,0,20
2,note_on,44,40,100
2,note_on,32,0,20
2,note_on,32,46,100
2,note_on,44,0,20
2,note_on,44,41,100
2,note_on,32,0,20
2,note_on,32,47,100
2,note_on,44,0,20
2,note_on,44,41,100
2,note_on,32,0,20
2,note_on,32,48,100
2,note_on,44,0,20
2,note_on,44,43,100
2,note_on,32,0,20
2,note_on,32,49,100
2,note_on,44,0,20
2,note_on,44,44,100
2,note_on,32,0,20
2,note_on,32,50,100
2,note_on,44,0,20
2,note_on,44,45,100
2,note_on,32,0,20
2,note_on,32,51,100
2,note_on,44,0,20
2,note_on,44,46,100
2,note_on,32,0,20
2,note_on,32,51,100
2,note_on,44,0,20
2,note_on,44,47,100
2,note_on,32,0,20
2,note_on,32,53,100
2,note_on,44,0,20
2,note_on,44,50,100
2,note_on,32,0,20
2,note_on,32,54,100
2,note_on,44,0,20
2,note_on,44,51,100
2,note_on,32,0,20
2,note_on,32,54,100
2,note_on,44,0,20
2,note_on,44,51,100
2,note_on,32,0,20
2,note_on,32,49,100
2,note_on,44,0,20
2,note_on,44,47,100
2,note_on,32,0,20
2,note_on,32,44,100
2,note_on,44,0,20
2,note_on,44,35,100
2,note_on,32,0,20
2,note_on,32,39,100
2,note_on,44,0,20
2,note_on,44,34,100
2,note_on,32,0,20
2,note_on,32,39,100
2,note_on,44,0,20
2,note_on,32,0,99
2,note_on,44,33,1
2,note_on,44,0,119
2,note_on,32,37,1
2,note_on,32,0,119
2,note_on,44,35,1
2,note_on,44,0,119
2,note_on,32,37,1
2,note_on,32,0,119
2,note_on,44,32,1
2,note_on,44,0,119
2,note_on,32,37,1
2,note_on,32,0,119
2,note_on,44,33,1
2,note_on,44,0,119
2,note_on,32,39,1
2,note_on,32,0,119
2,note_on,44,34,1
2,note_on,44,0,119
2,note_on,32,39,1
2,note_on,32,0,119
2,note_on,44,35,1
2,note_on,44,0,119
2,note_on,32,41,1
2,note_on,32,0,119
2,note_on,44,39,1
2,note_on,44,0,119
2,note_on,32,45,1
2,note_on,32,0,119
2,note_on,44,41,1
2,note_on,44,0,119
2,note_on,32,46,1
2,note_on,32,0,119
2,note_on,44,42,1
2,note_on,44,0,119
2,note_on,32,49,1
2,note_on,32,0,119
2,note_on,44,44,1
2,note_on,44,0,119
2,note_on,32,51,1
2,note_on,32,0,119
2,note_on,44,45,1
2,note_on,44,0,119
2,note_on,32,51,1
2,note_on,32,0,119
2,note_on,44,44,1
2,note_on,44,0,119
2,note_on,32,45,1
2,note_on,32,0,119
2,note_on,44,41,1
2,note_on,44,0,119
2,note_on,32,41,1
2,note_on,32,0,119
2,note_on,44,37,1
2,note_on,44,0,119
2,note_on,32,41,1
2,note_on,44,35,120
2,note_on,32,0,20
2,note_on,32,39,100
2,note_on,44,0,20
2,note_on,44,33,100
2,note_on,32,0,20
2,note_on,32,37,100
2,note_on,44,0,20
2,note_on,44,34,100
2,note_on,32,0,20
2,note_on,32,37,100
2,note_on,44,0,20
2,note_on,44,32,100
2,note_on,32,0,20
2,note_on,32,37,100
2,note_on,44,0,20
2,note_on,44,33,100
2,note_on,32,0,20
2,note_on,32,37,100
2,note_on,44,0,20
2,note_on,44,35,100
2,note_on,32,0,20
2,note_on,32,35,100
2,note_on,44,0,20
2,note_on,44,34,100
2,note_on,32,0,20
2,note_on,32,41,100
2,note_on,44,0,20
2,note_on,44,37,100
2,note_on,32,0,20
2,note_on,32,43,100
2,note_on,44,0,20
2,note_on,44,39,100
2,note_on,32,0,20
2,note_on,32,47,100
2,note_on,44,0,20
2,note_on,44,42,100
2,note_on,32,0,20
2,note_on,32,47,100
2,note_on,44,0,20
2,note_on,32,0,99
2,note_on,44,43,1
2,note_on,44,0,119
2,note_on,32,51,1
2,note_on,32,0,119
2,note_on,44,47,1
2,note_on,44,0,119
2,note_on,32,56,1
2,note_on,32,0,119
2,note_on,44,48,1
2,note_on,44,0,119
2,note_on,32,54,1
2,note_on,32,0,119
2,note_on,44,47,1
2,note_on,44,0,119
2,note_on,32,49,1
2,note_on,32,0,119
2,note_on,44,45,1
2,note_on,44,0,119
2,note_on,32,49,1
2,note_on,32,0,119
2,note_on,44,41,1
2,note_on,44,0,119
2,note_on,32,45,1
2,note_on,32,0,119
2,note_on,44,39,1
2,note_on,44,0,119
2,note_on,32,41,1
2,note_on,32,0,119
2,note_on,44,35,1
2,note_on,44,0,119
2,note_on,32,40,1
2,note_on,32,0,119
2,note_on,44,34,1
2,note_on,44,0,119
2,note_on,32,39,1
2,note_on,32,0,119
2,note_on,44,34,1
2,note_on,44,0,119
2,note_on,32,39,1
2,note_on,32,0,119
2,note_on,44,34,1
2,note_on,44,0,119
2,note_on,32,41,1
2,note_on,32,0,119
2,note_on,44,39,1
2,note_on,44,0,119
2,note_on,32,45,1
2,note_on,32,0,119
2,note_on,44,39,1
2,note_on,44,0,119
2,note_on,32,45,1
2,note_on,32,0,119
2,note_on,44,40,1
2,note_on,44,0,119
2,note_on,32,47,1
2,note_on,32,0,119
2,note_on,44,43,1
2,note_on,44,0,119
2,note_on,32,51,1
2,note_on,32,0,119
2,note_on,44,45,1
2,note_on,44,0,119
2,note_on,32,56,1
2,note_on,32,0,119
2,note_on,44,51,1
2,note_on,44,0,119
2,note_on,32,56,1
2,note_on,32,0,119
2,note_on,44,49,1
2,note_on,44,0,119
2,note_on,32,51,1
2,note_on,32,0,119
2,note_on,44,43,1
2,note_on,44,0,119
2,note_on,32,47,1
2,note_on,32,0,119
2,note_on,44,40,1
2,note_on,44,0,119
2,note_on,33,44,1
2,note_on,33,0,119
2,note_on,45,38,1
2,note_on,45,0,119
2,note_on,33,41,1
2,note_on,33,0,119
2,note_on,45,35,1
2,note_on,45,0,119
2,note_on,33,39,1
2,note_on,33,0,119
2,note_on,45,34,1
2,note_on,45,0,119
2,note_on,33,39,1
2,note_on,33,0,119
2,note_on,45,34,1
2,note_on,45,0,119
2,note_on,30,33,1
2,note_on,42,39,0
2,note_on,42,0,1920
2,note_on,30,0,0
2,note_on,32,27,0
2,note_on,44,32,0
2,note_on,44,0,1920
2,note_on,32,0,0
2,note_on,37,62,0
2,note_on,37,0,120
2,note_on,44,40,120
2,note_on,44,0,120
2,note_on,37,43,120
2,note_on,37,0,120
2,note_on,44,39,120
2,note_on,44,0,120
2,note_on,37,41,120
2,note_on,37,0,120
2,note_on,44,39,120
2,note_on,44,0,120
2,note_on,37,42,120
2,note_on,37,0,120
2,note_on,44,39,120
2,note_on,44,0,120
2,note_on,37,43,120
2,note_on,37,0,120
2,note_on,44,40,120
2,note_on,44,0,120
2,note_on,37,43,120
2,note_on,37,0,120
2,note_on,44,40,120
2,note_on,44,0,120
2,note_on,37,41,120
2,note_on,37,0,120
2,note_on,44,38,120
2,note_on,44,0,120
2,note_on,37,66,120
2,note_on,49,79,0
2,note_on,49,0,120
2,note_on,37,0,0
2,note_on,44,67,120
2,note_on,44,0,120
2,note_on,36,41,120
2,note_on,36,0,120
2,note_on,44,38,120
2,note_on,44,0,120
2,note_on,36,41,120
2,note_on,36,0,120
2,note_on,44,38,120
2,note_on,44,0,120
2,note_on,36,40,120
2,note_on,36,0,120
2,note_on,44,37,120
2,note_on,44,0,120
2,note_on,36,40,120
2,note_on,36,0,120
2,note_on,44,36,120
2,note_on,44,0,120
2,note_on,36,40,120
2,note_on,36,0,120
2,note_on,44,36,120
2,note_on,44,0,120
2,note_on,36,40,120
2,note_on,36,0,120
2,note_on,44,36,120
2,note_on,44,0,120
2,note_on,36,40,120
2,note_on,36,0,120
2,note_on,44,36,120
2,note_on,44,0,120
2,note_on,48,79,120
2,note_on,36,66,0
2,note_on,36,0,120
2,note_on,48,0,0
2,note_on,44,65,120
2,note_on,44,0,120
2,note_on,35,55,120
2,note_on,35,0,120
2,note_on,44,51,120
2,note_on,44,0,120
2,note_on,35,56,120
2,note_on,35,0,120
2,note_on,44,52,120
2,note_on,44,0,120
2,note_on,35,56,120
2,note_on,35,0,120
2,note_on,44,52,120
2,note_on,44,0,120
2,note_on,35,56,120
2,note_on,35,0,120
2,note_on,44,51,120
2,note_on,44,0,120
2,note_on,35,56,120
2,note_on,35,0,120
2,note_on,44,51,120
2,note_on,44,0,120
2,note_on,35,56,120
2,note_on,35,0,120
2,note_on,44,52,120
2,note_on,44,0,120
2,note_on,35,56,120
2,note_on,35,0,120
2,note_on,44,52,120
2,note_on,44,0,120
2,note_on,47,85,120
2,note_on,35,71,0
2,note_on,35,0,120
2,note_on,47,0,0
2,note_on,44,73,120
2,note_on,44,0,120
2,note_on,33,50,120
2,note_on,33,0,120
2,note_on,45,51,120
2,note_on,45,0,120
2,note_on,33,57,120
2,note_on,33,0,120
2,note_on,45,62,120
2,note_on,45,0,120
2,note_on,33,67,120
2,note_on,33,0,120
2,note_on,45,67,120
2,note_on,45,0,120
2,note_on,33,86,120
2,note_on,33,0,120
2,note_on,45,85,120
2,note_on,45,0,120
2,note_on,33,67,120
2,note_on,33,0,120
2,note_on,45,62,120
2,note_on,45,0,120
2,note_on,33,67,120
2,note_on,33,0,120
2,note_on,45,63,120
2,note_on,45,0,120
2,note_on,33,67,120
2,note_on,33,0,120
2,note_on,45,64,120
2,note_on,45,0,120
2,note_on,33,90,120
2,note_on,33,0,120
2,note_on,45,90,120
2,note_on,45,0,120
2,note_on,44,77,120
2,note_on,32,77,0
2,note_on,32,0,240
2,note_on,44,0,0
2,note_on,60,62,0
2,note_on,56,62,0
2,note_on,60,0,240
2,note_on,60,62,0
2,note_on,60,0,240
2,note_on,61,62,0
2,note_on,61,0,240
2,note_on,63,64,0
2,note_on,63,0,240
2,note_on,64,66,0
2,note_on,64,0,240
2,note_on,66,67,0
2,note_on,66,0,240
2,note_on,63,68,0
2,note_on,63,0,240
2,note_on,66,69,0
2,note_on,66,0,240
2,note_on,64,71,0
2,note_on,64,0,240
2,note_on,69,72,0
2,note_on,69,0,240
2,note_on,68,71,0
2,note_on,68,0,240
2,note_on,66,69,0
2,note_on,66,0,240
2,note_on,64,68,0
2,note_on,64,0,240
2,note_on,63,67,0
2,note_on,63,0,240
2,note_on,61,66,0
2,note_on,61,0,240
2,note_on,56,0,0
2,note_on,56,64,0
2,note_on,60,64,0
2,note_on,60,0,240
2,note_on,60,63,0
2,note_on,60,0,240
2,note_on,60,62,0
2,note_on,60,0,240
2,note_on,61,60,0
2,note_on,61,0,240
2,note_on,63,62,0
2,note_on,63,0,240
2,note_on,64,62,0
2,note_on,64,0,240
2,note_on,66,65,0
2,note_on,66,0,240
2,note_on,63,67,0
2,note_on,63,0,240
2,note_on,66,68,0
2,note_on,66,0,240
2,note_on,64,68,0
2,note_on,64,0,240
2,note_on,69,68,0
2,note_on,69,0,240
2,note_on,68,67,0
2,note_on,68,0,240
2,note_on,66,67,0
2,note_on,66,0,240
2,note_on,64,67,0
2,note_on,64,0,240
2,note_on,63,67,0
2,note_on,63,0,240
2,note_on,61,67,0
2,note_on,61,0,240
2,note_on,56,0,0
2,note_on,60,71,0
2,note_on,56,71,0
2,note_on,56,0,120
2,note_on,60,0,0
2,note_on,61,62,120
2,note_on,56,62,0
2,note_on,56,0,120
2,note_on,61,0,0
2,note_on,56,68,120
2,note_on,60,68,0
2,note_on,60,0,120
2,note_on,56,0,0
2,note_on,61,62,120
2,note_on,56,62,0
2,note_on,56,0,120
2,note_on,61,0,0
2,note_on,60,71,120
2,note_on,56,71,0
2,note_on,56,0,120
2,note_on,60,0,0
2,note_on,56,62,120
2,note_on,61,62,0
2,note_on,61,0,120
2,note_on,56,0,0
2,note_on,60,67,120
2,note_on,56,67,0
2,note_on,56,0,120
2,note_on,60,0,0
2,note_on,61,61,120
2,note_on,56,61,0
2,note_on,56,0,120
2,note_on,61,0,0
2,note_on,60,71,120
2,note_on,56,71,0
2,note_on,56,0,240
2,note_on,60,0,0
2,note_on,32,77,240
2,note_on,44,90,0
2,note_on,44,0,1440
2,note_on,32,0,0
2,note_on,49,39,0
2,note_on,56,29,120
2,note_on,49,0,20
2,note_on,52,34,100
2,note_on,56,0,20
2,note_on,56,29,100
2,note_on,52,0,20
2,note_on,49,39,100
2,note_on,56,0,20
2,note_on,49,0,99
2,note_on,56,29,1
2,note_on,56,0,119
2,note_on,52,34,1
2,note_on,52,0,119
2,note_on,56,30,1
2,note_on,56,0,119
2,note_on,49,39,1
2,note_on,49,0,119
2,note_on,56,30,1
2,note_on,56,0,119
2,note_on,52,34,1
2,note_on,52,0,119
2,note_on,56,30,1
2,note_on,56,0,119
2,note_on,49,39,1
2,note_on,49,0,119
2,note_on,56,30,1
2,note_on,56,0,119
2,note_on,52,34,1
2,note_on,52,0,119
2,note_on,56,30,1
2,note_on,56,0,119
2,note_on,51,39,1
2,note_on,56,30,120
2,note_on,51,0,20
2,note_on,54,34,100
2,note_on,56,0,20
2,note_on,56,30,100
2,note_on,54,0,20
2,note_on,51,48,100
2,note_on,56,0,20
2,note_on,51,0,99
2,note_on,56,43,1
2,note_on,56,0,119
2,note_on,54,47,1
2,note_on,54,0,119
2,note_on,56,49,1
2,note_on,56,0,119
2,note_on,51,58,1
2,note_on,51,0,119
2,note_on,56,46,1
2,note_on,56,0,119
2,note_on,54,54,1
2,note_on,54,0,119
2,note_on,56,47,1
2,note_on,56,0,119
2,note_on,51,66,1
2,note_on,51,0,119
2,note_on,56,46,1
2,note_on,56,0,119
2,note_on,54,51,1
2,note_on,54,0,119
2,note_on,56,40,1
2,note_on,56,0,119
2,note_on,52,39,1
2,note_on,52,0,119
2,note_on,56,32,1
2,note_on,56,0,119
2,note_on,52,35,1
2,note_on,52,0,119
2,note_on,56,31,1
2,note_on,56,0,119
2,note_on,52,50,1
2,note_on,52,0,119
2,note_on,56,41,1
2,note_on,56,0,119
2,note_on,52,47,1
2,note_on,52,0,119
2,note_on,56,42,1
2,note_on,56,0,119
2,note_on,52,58,1
2,note_on,52,0,119
2,note_on,56,48,1
2,note_on,56,0,119
2,note_on,52,56,1
2,note_on,52,0,119
2,note_on,56,51,1
2,note_on,56,0,119
2,note_on,52,66,1
2,note_on,52,0,119
2,note_on,56,49,1
2,note_on,56,0,119
2,note_on,52,51,1
2,note_on,52,0,119
2,note_on,56,47,1
2,note_on,56,0,119
2,note_on,48,39,1
2,note_on,48,0,119
2,note_on,56,31,1
2,note_on,56,0,119
2,note_on,48,34,1
2,note_on,48,0,119
2,note_on,56,32,1
2,note_on,56,0,119
2,note_on,48,50,1
2,note_on,48,0,119
2,note_on,56,43,1
2,note_on,56,0,119
2,note_on,48,49,1
2,note_on,48,0,119
2,note_on,56,44,1
2,note_on,56,0,119
2,note_on,48,58,1
2,note_on,48,0,119
2,note_on,56,51,1
2,note_on,56,0,119
2,note_on,48,59,1
2,note_on,48,0,119
2,note_on,56,54,1
2,note_on,56,0,119
2,note_on,48,66,1
2,note_on,48,0,119
2,note_on,56,48,1
2,note_on,56,0,119
2,note_on,48,51,1
2,note_on,48,0,119
2,note_on,56,39,1
2,note_on,56,0,119
2,note_on,49,39,1
2,note_on,56,32,120
2,note_on,49,0,20
2,note_on,52,35,100
2,note_on,56,0,20
2,note_on,52,0,99
2,note_on,56,31,1
2,note_on,56,0,119
2,note_on,49,40,1
2,note_on,49,0,119
2,note_on,56,31,1
2,note_on,56,0,119
2,note_on,52,34,1
2,note_on,52,0,119
2,note_on,56,31,1
2,note_on,56,0,119
2,note_on,49,41,1
2,note_on,49,0,119
2,note_on,56,31,1
2,note_on,56,0,119
2,note_on,52,35,1
2,note_on,52,0,119
2,note_on,56,31,1
2,note_on,56,0,119
2,note_on,49,43,1
2,note_on,56,34,120
2,note_on,49,0,20
2,note_on,52,37,100
2,note_on,56,0,20
2,note_on,56,33,100
2,note_on,52,0,20
2,note_on,51,46,100
2,note_on,56,0,20
2,note_on,56,33,100
2,note_on,51,0,20
2,note_on,54,39,100
2,note_on,56,0,20
2,note_on,54,0,99
2,note_on,56,33,1
2,note_on,56,0,119
2,note_on,51,47,1
2,note_on,51,0,119
2,note_on,56,35,1
2,note_on,56,0,119
2,note_on,54,40,1
2,note_on,54,0,119
2,note_on,56,34,1
2,note_on,56,0,119
2,note_on,51,49,1
2,note_on,51,0,119
2,note_on,56,35,1
2,note_on,56,0,119
2,note_on,54,41,1
2,note_on,54,0,119
2,note_on,56,35,1
2,note_on,56,0,119
2,note_on,51,50,1
2,note_on,56,40,120
2,note_on,51,0,20
2,note_on,54,45,100
2,note_on,56,0,20
2,note_on,56,42,100
2,note_on,54,0,20
2,note_on,52,51,100
2,note_on,56,0,20
2,note_on,56,43,100
2,note_on,52,0,20
2,note_on,52,47,100
2,note_on,56,0,20
2,note_on,52,0,99
2,note_on,56,43,1
2,note_on,56,0,119
2,note_on,52,52,1
2,note_on,52,0,119
2,note_on,56,43,1
2,note_on,56,0,119
2,note_on,52,48,1
2,note_on,52,0,119
2,note_on,56,44,1
2,note_on,56,0,119
2,note_on,52,56,1
2,note_on,52,0,119
2,note_on,56,46,1
2,note_on,56,0,119
2,note_on,52,50,1
2,note_on,52,0,119
2,note_on,56,47,1
2,note_on,56,0,119
2,note_on,52,57,1
2,note_on,56,49,120
2,note_on,52,0,20
2,note_on,52,51,100
2,note_on,56,0,20
2,note_on,56,48,100
2,note_on,52,0,20
2,note_on,48,59,100
2,note_on,56,0,20
2,note_on,56,53,100
2,note_on,48,0,20
2,note_on,48,56,100
2,note_on,56,0,20
2,note_on,48,0,99
2,note_on,56,52,1
2,note_on,56,0,119
2,note_on,48,60,1
2,note_on,48,0,119
2,note_on,56,52,1
2,note_on,56,0,119
2,note_on,48,57,1
2,note_on,48,0,119
2,note_on,56,52,1
2,note_on,56,0,119
2,note_on,48,62,1
2,note_on,48,0,119
2,note_on,56,52,1
2,note_on,56,0,119
2,note_on,48,59,1
2,note_on,48,0,119
2,note_on,56,53,1
2,note_on,56,0,119
2,note_on,48,62,1
2,note_on,56,53,120
2,note_on,48,0,20
2,note_on,48,60,100
2,note_on,56,0,20
2,note_on,56,54,100
2,note_on,48,0,20
2,note_on,47,66,100
2,note_on,56,0,20
2,note_on,56,56,100
2,note_on,47,0,20
2,note_on,49,61,100
2,note_on,56,0,20
2,note_on,56,56,100
2,note_on,49,0,20
2,note_on,47,66,100
2,note_on,56,0,20
2,note_on,56,56,100
2,note_on,47,0,20
2,note_on,49,61,100
2,note_on,56,0,20
2,note_on,56,56,100
2,note_on,49,0,20
2,note_on,45,66,100
2,note_on,56,0,20
2,note_on,54,56,100
2,note_on,45,0,20
2,note_on,49,62,100
2,note_on,54,0,20
2,note_on,54,57,100
2,note_on,49,0,20
2,note_on,45,66,100
2,note_on,54,0,20
2,note_on,54,56,100
2,note_on,45,0,20
2,note_on,49,61,100
2,note_on,54,0,20
2,note_on,54,56,100
2,note_on,49,0,20
2,note_on,45,66,100
2,note_on,54,0,20
2,note_on,45,0,99
2,note_on,54,56,1
2,note_on,54,0,119
2,note_on,47,61,1
2,note_on,47,0,119
2,note_on,54,56,1
2,note_on,54,0,119
2,note_on,44,66,1
2,note_on,52,56,120
2,note_on,44,0,20
2,note_on,47,62,100
2,note_on,52,0,20
2,note_on,52,56,100
2,note_on,47,0,20
2,note_on,44,66,100
2,note_on,52,0,20
2,note_on,52,56,100
2,note_on,44,0,20
2,note_on,47,61,100
2,note_on,52,0,20
2,note_on,52,56,100
2,note_on,47,0,20
2,note_on,44,66,100
2,note_on,52,0,20
2,note_on,52,54,100
2,note_on,44,0,20
2,note_on,47,60,100
2,note_on,52,0,20
2,note_on,52,56,100
2,note_on,47,0,20
2,note_on,43,66,100
2,note_on,52,0,20
2,note_on,52,58,100
2,note_on,43,0,20
2,note_on,45,62,100
2,note_on,52,0,20
2,note_on,52,58,100
2,note_on,45,0,20
2,note_on,43,66,100
2,note_on,52,0,20
2,note_on,52,57,100
2,note_on,43,0,20
2,note_on,45,62,100
2,note_on,52,0,20
2,note_on,52,58,100
2,note_on,45,0,20
2,note_on,42,66,100
2,note_on,52,0,20
2,note_on,50,54,100
2,note_on,42,0,20
2,note_on,45,62,100
2,note_on,50,0,20
2,note_on,50,56,100
2,note_on,45,0,20
2,note_on,42,66,100
2,note_on,50,0,20
2,note_on,50,54,100
2,note_on,42,0,20
2,note_on,45,62,100
2,note_on,50,0,20
2,note_on,50,54,100
2,note_on,45,0,20
2,note_on,42,66,100
2,note_on,50,0,20
2,note_on,42,0,99
2,note_on,51,56,1
2,note_on,51,0,119
2,note_on,44,60,1
2,note_on,44,0,119
2,note_on,51,60,1
2,note_on,51,0,119
2,note_on,40,66,1
2,note_on,49,56,120
2,note_on,40,0,20
2,note_on,44,61,100
2,note_on,49,0,20
2,note_on,49,57,100
2,note_on,44,0,20
2,note_on,40,66,100
2,note_on,49,0,20
2,note_on,49,56,100
2,note_on,40,0,20
2,note_on,44,61,100
2,note_on,49,0,20
2,note_on,49,56,100
2,note_on,44,0,20
2,note_on,40,66,100
2,note_on,49,0,20
2,note_on,49,56,100
2,note_on,40,0,20
2,note_on,44,61,100
2,note_on,49,0,20
2,note_on,49,61,100
2,note_on,44,0,20
2,note_on,45,64,100
2,note_on,54,75,0
2,note_on,50,75,0
2,note_on,42,64,0
2,note_on,49,0,20
2,note_on,50,0,1420
2,note_on,45,0,0
2,note_on,54,0,0
2,note_on,42,0,0
2,note_on,54,42,480
2,note_on,62,50,0
2,note_on,57,42,0
2,note_on,62,0,476
2,note_on,57,0,4
2,note_on,54,0,0
2,note_on,57,41,480
2,note_on,62,49,0
2,note_on,54,41,0
2,note_on,54,0,480
2,note_on,62,0,0
2,note_on,57,0,0
2,note_on,54,41,480
2,note_on,57,41,0
2,note_on,62,49,0
2,note_on,62,0,480
2,note_on,57,0,0
2,note_on,54,0,0
2,note_on,62,52,0
2,note_on,57,44,0
2,note_on,54,44,0
2,note_on,54,0,480
2,note_on,57,0,0
2,note_on,62,0,0
2,note_on,54,51,0
2,note_on,62,60,0
2,note_on,57,51,0
2,note_on,57,0,480
2,note_on,62,0,0
2,note_on,54,0,0
2,note_on,54,47,0
2,note_on,62,56,0
2,note_on,57,47,0
2,note_on,57,0,480
2,note_on,62,0,0
2,note_on,54,0,0
2,note_on,56,49,0
2,note_on,64,44,120
2,note_on,56,0,20
2,note_on,61,47,100
2,note_on,64,0,20
2,note_on,64,43,100
2,note_on,61,0,20
2,note_on,56,51,100
2,note_on,64,0,20
2,note_on,64,43,100
2,note_on,56,0,20
2,note_on,61,47,100
2,note_on,64,0,20
2,note_on,64,42,100
2,note_on,61,0,20
2,note_on,56,51,100
2,note_on,64,0,20
2,note_on,56,0,99
2,note_on,66,43,1
2,note_on,66,0,119
2,note_on,60,47,1
2,note_on,60,0,119
2,note_on,66,43,1
2,note_on,66,0,119
2,note_on,56,51,1
2,note_on,56,0,119
2,note_on,66,44,1
2,note_on,66,0,119
2,note_on,60,47,1
2,note_on,60,0,119
2,note_on,66,42,1
2,note_on,66,0,119
2,note_on,64,56,1
2,note_on,61,56,0
2,note_on,57,56,0
2,note_on,57,0,240
2,note_on,61,0,0
2,note_on,64,0,0
2,note_on,30,67,240
2,note_on,33,67,0
2,note_on,38,80,0
2,note_on,42,80,0
2,note_on,42,0,960
2,note_on,30,0,0
2,note_on,33,0,0
2,note_on,38,0,0
2,note_on,50,49,960
2,note_on,45,41,0
2,note_on,42,41,0
2,note_on,42,0,480
2,note_on,45,0,0
2,note_on,50,0,0
2,note_on,50,49,480
2,note_on,42,41,0
2,note_on,45,41,0
2,note_on,45,0,480
2,note_on,42,0,0
2,note_on,50,0,0
2,note_on,50,51,240
2,note_on,45,43,0
2,note_on,42,43,0
2,note_on,42,0,240
2,note_on,45,0,0
2,note_on,50,0,0
2,note_on,50,61,240
2,note_on,45,51,0
2,note_on,42,51,0
2,note_on,42,0,240
2,note_on,45,0,0
2,note_on,50,0,0
2,note_on,45,57,240
2,note_on,50,68,0
2,note_on,42,57,0
2,note_on,42,0,240
2,note_on,50,0,0
2,note_on,45,0,0
2,note_on,42,57,240
2,note_on,50,68,0
2,note_on,45,57,0
2,note_on,45,0,240
2,note_on,50,0,0
2,note_on,42,0,0
2,note_on,42,66,0
2,note_on,42,0,119
2,note_on,50,56,1
2,note_on,50,0,119
2,note_on,45,62,1
2,note_on,45,0,119
2,note_on,50,56,1
2,note_on,50,0,119
2,note_on,42,66,1
2,note_on,42,0,119
2,note_on,50,56,1
2,note_on,50,0,119
2,note_on,45,61,1
2,note_on,45,0,119
2,note_on,50,54,1
2,note_on,50,0,119
2,note_on,43,66,1
2,note_on,43,0,119
2,note_on,52,56,1
2,note_on,52,0,119
2,note_on,46,62,1
2,note_on,46,0,119
2,note_on,52,56,1
2,note_on,52,0,119
2,note_on,43,66,1
2,note_on,43,0,119
2,note_on,52,54,1
2,note_on,52,0,119
2,note_on,46,60,1
2,note_on,46,0,119
2,note_on,52,54,1
2,note_on,52,0,119
2,note_on,44,66,1
2,note_on,44,0,119
2,note_on,52,58,1
2,note_on,52,0,119
2,note_on,49,62,1
2,note_on,49,0,119
2,note_on,52,56,1
2,note_on,52,0,119
2,note_on,44,66,1
2,note_on,44,0,119
2,note_on,52,56,1
2,note_on,52,0,119
2,note_on,49,62,1
2,note_on,49,0,119
2,note_on,52,57,1
2,note_on,52,0,119
2,note_on,32,66,1
2,note_on,32,0,119
2,note_on,44,57,1
2,note_on,44,0,119
2,note_on,43,62,1
2,note_on,43,0,119
2,note_on,44,57,1
2,note_on,44,0,119
2,note_on,43,66,1
2,note_on,43,0,119
2,note_on,44,57,1
2,note_on,44,0,119
2,note_on,43,62,1
2,note_on,43,0,119
2,note_on,44,58,1
2,note_on,44,0,119
2,note_on,37,59,1
2,note_on,49,59,0
2,note_on,52,59,0
2,note_on,61,59,0
2,note_on,61,0,240
2,note_on,37,0,0
2,note_on,49,0,0
2,note_on,52,0,0
2,note_on,49,40,0
2,note_on,49,0,120
2,note_on,49,40,120
2,note_on,49,0,120
2,note_on,49,40,120
2,note_on,49,0,120
2,note_on,49,40,120
2,note_on,49,0,120
2,note_on,49,40,120
2,note_on,49,0,120
2,note_on,51,39,120
2,note_on,51,0,120
2,note_on,52,39,120
2,note_on,52,0,120
2,note_on,44,45,120
2,note_on,54,45,0
2,note_on,54,0,240
2,note_on,44,0,0
2,note_on,56,39,0
2,note_on,54,39,0
2,note_on,54,0,120
2,note_on,56,0,0
2,note_on,56,39,120
2,note_on,54,39,0
2,note_on,54,0,120
2,note_on,56,0,0
2,note_on,56,39,120
2,note_on,54,39,0
2,note_on,54,0,120
2,note_on,56,0,0
2,note_on,54,39,120
2,note_on,56,39,0
2,note_on,56,0,120
2,note_on,54,0,0
2,note_on,54,39,120
2,note_on,56,39,0
2,note_on,56,0,120
2,note_on,54,0,0
2,note_on,56,39,120
2,note_on,52,39,0
2,note_on,52,0,120
2,note_on,56,0,0
2,note_on,51,42,120
2,note_on,56,42,0
2,note_on,56,0,120
2,note_on,51,0,0
2,note_on,49,45,120
2,note_on,37,45,0
2,note_on,37,0,240
2,note_on,49,0,0
2,note_on,49,39,0
2,note_on,49,0,120
2,note_on,49,39,120
2,note_on,49,0,120
2,note_on,49,39,120
2,note_on,49,0,120
2,note_on,49,39,120
2,note_on,49,0,120
2,note_on,49,40,120
2,note_on,49,0,120
2,note_on,51,39,120
2,note_on,51,0,120
2,note_on,52,39,120
2,note_on,52,0,120
2,note_on,54,47,120
2,note_on,44,47,0
2,note_on,44,0,240
2,note_on,54,0,0
2,note_on,56,39,0
2,note_on,54,39,0
2,note_on,54,0,120
2,note_on,56,0,0
2,note_on,54,39,120
2,note_on,56,39,0
2,note_on,56,0,120
2,note_on,54,0,0
2,note_on,54,39,120
2,note_on,56,39,0
2,note_on,56,0,120
2,note_on,54,0,0
2,note_on,54,39,120
2,note_on,56,39,0
2,note_on,56,0,120
2,note_on,54,0,0
2,note_on,54,39,120
2,note_on,56,39,0
2,note_on,56,0,120
2,note_on,54,0,0
2,note_on,52,41,120
2,note_on,56,41,0
2,note_on,56,0,120
2,note_on,52,0,0
2,note_on,51,43,120
2,note_on,56,43,0
2,note_on,56,0,120
2,note_on,51,0,0
2,note_on,49,47,120
2,note_on,37,42,0
2,note_on,37,0,120
2,note_on,49,0,0
2,note_on,49,40,120
2,note_on,52,40,0
2,note_on,52,0,120
2,note_on,49,0,0
2,note_on,52,40,120
2,note_on,49,40,0
2,note_on,49,0,240
2,note_on,52,0,0
2,note_on,56,39,0
2,note_on,52,39,0
2,note_on,52,0,240
2,note_on,56,0,0
2,note_on,42,48,0
2,note_on,42,0,120
2,note_on,49,40,120
2,note_on,54,40,0
2,note_on,54,0,120
2,note_on,49,0,0
2,note_on,54,40,120
2,note_on,49,40,0
2,note_on,49,0,240
2,note_on,54,0,0
2,note_on,57,39,0
2,note_on,54,39,0
2,note_on,54,0,240
2,note_on,57,0,0
2,note_on,44,48,0
2,note_on,44,0,120
2,note_on,52,39,120
2,note_on,49,39,0
2,note_on,49,0,120
2,note_on,52,0,0
2,note_on,49,39,120
2,note_on,52,39,0
2,note_on,52,0,240
2,note_on,49,0,0
2,note_on,52,39,0
2,note_on,56,39,0
2,note_on,56,0,240
2,note_on,52,0,0
2,note_on,44,48,0
2,note_on,44,0,120
2,note_on,51,39,120
2,note_on,48,39,0
2,note_on,48,0,120
2,note_on,51,0,0
2,note_on,48,39,120
2,note_on,51,39,0
2,note_on,51,0,240
2,note_on,48,0,0
2,note_on,56,38,0
2,note_on,51,38,0
2,note_on,51,0,240
2,note_on,56,0,0
2,note_on,49,49,0
2,note_on,37,49,0
2,note_on,37,0,240
2,note_on,49,0,0
2,note_on,49,39,0
2,note_on,56,39,0
2,note_on,56,0,120
2,note_on,49,0,0
2,note_on,56,42,120
2,note_on,49,42,0
2,note_on,49,0,120
2,note_on,56,0,0
2,note_on,56,41,120
2,note_on,49,41,0
2,note_on,49,0,120
2,note_on,56,0,0
2,note_on,49,39,120
2,note_on,56,39,0
2,note_on,56,0,120
2,note_on,49,0,0
2,note_on,49,39,120
2,note_on,56,39,0
2,note_on,56,0,120
2,note_on,49,0,0
2,note_on,56,41,120
2,note_on,51,41,0
2,note_on,51,0,120
2,note_on,56,0,0
2,note_on,56,44,120
2,note_on,52,44,0
2,note_on,52,0,120
2,note_on,56,0,0
2,note_on,44,47,120
2,note_on,56,47,0
2,note_on,54,47,0
2,note_on,54,0,240
2,note_on,56,0,0
2,note_on,44,0,0
2,note_on,66,58,0
2,note_on,56,58,0
2,note_on,56,0,120
2,note_on,66,0,0
2,note_on,66,68,120
2,note_on,56,68,0
2,note_on,56,0,120
2,note_on,66,0,0
2,note_on,56,62,120
2,note_on,66,62,0
2,note_on,66,0,120
2,note_on,56,0,0
2,note_on,56,68,120
2,note_on,66,68,0
2,note_on,66,0,120
2,note_on,56,0,0
2,note_on,66,62,120
2,note_on,56,62,0
2,note_on,56,0,120
2,note_on,66,0,0
2,note_on,56,68,120
2,note_on,64,68,0
2,note_on,64,0,120
2,note_on,56,0,0
2,note_on,63,62,120
2,note_on,56,62,0
2,note_on,56,0,120
2,note_on,63,0,0
2,note_on,37,68,120
2,note_on,49,68,0
2,note_on,49,0,240
2,note_on,37,0,0
2,note_on,56,39,0
2,note_on,49,39,0
2,note_on,49,0,120
2,note_on,56,0,0
2,note_on,56,39,120
2,note_on,49,39,0
2,note_on,49,0,120
2,note_on,56,0,0
2,note_on,56,39,120
2,note_on,49,39,0
2,note_on,49,0,120
2,note_on,56,0,0
2,note_on,49,39,120
2,note_on,56,39,0
2,note_on,56,0,120
2,note_on,49,0,0
2,note_on,49,39,120
2,note_on,56,39,0
2,note_on,56,0,120
2,note_on,49,0,0
2,note_on,51,39,120
2,note_on,56,39,0
2,note_on,56,0,120
2,note_on,51,0,0
2,note_on,56,41,120
2,note_on,52,41,0
2,note_on,52,0,120
2,note_on,56,0,0
2,note_on,44,45,120
2,note_on,56,45,0
2,note_on,54,45,0
2,note_on,54,0,240
2,note_on,56,0,0
2,note_on,44,0,0
2,note_on,66,57,0
2,note_on,56,57,0
2,note_on,56,0,120
2,note_on,66,0,0
2,note_on,56,68,120
2,note_on,66,68,0
2,note_on,66,0,120
2,note_on,56,0,0
2,note_on,66,60,120
2,note_on,56,60,0
2,note_on,56,0,120
2,note_on,66,0,0
2,note_on,56,68,120
2,note_on,66,68,0
2,note_on,66,0,120
2,note_on,56,0,0
2,note_on,66,60,120
2,note_on,56,60,0
2,note_on,56,0,120
2,note_on,66,0,0
2,note_on,64,68,120
2,note_on,56,68,0
2,note_on,56,0,120
2,note_on,64,0,0
2,note_on,56,59,120
2,note_on,63,59,0
2,note_on,63,0,120
2,note_on,56,0,0
2,note_on,61,69,120
2,note_on,49,69,0
2,note_on,49,0,240
2,note_on,61,0,0
2,note_on,61,42,0
2,note_on,64,42,0
2,note_on,64,0,120
2,note_on,61,0,0
2,note_on,64,43,120
2,note_on,61,43,0
2,note_on,61,0,240
2,note_on,64,0,0
2,note_on,68,39,0
2,note_on,64,39,0
2,note_on,64,0,240
2,note_on,68,0,0
2,note_on,54,48,0
2,note_on,54,0,120
2,note_on,66,40,120
2,note_on,61,40,0
2,note_on,61,0,120
2,note_on,66,0,0
2,note_on,66,42,120
2,note_on,61,42,0
2,note_on,61,0,240
2,note_on,66,0,0
2,note_on,66,39,0
2,note_on,69,39,0
2,note_on,69,0,240
2,note_on,66,0,0
2,note_on,56,47,0
2,note_on,56,0,120
2,note_on,61,42,120
2,note_on,64,42,0
2,note_on,64,0,120
2,note_on,61,0,0
2,note_on,64,42,120
2,note_on,61,42,0
2,note_on,61,0,240
2,note_on,64,0,0
2,note_on,68,39,0
2,note_on,64,39,0
2,note_on,64,0,240
2,note_on,68,0,0
2,note_on,54,47,0
2,note_on,54,0,120
2,note_on,63,42,120
2,note_on,60,42,0
2,note_on,60,0,120
2,note_on,63,0,0
2,note_on,63,42,120
2,note_on,60,42,0
2,note_on,60,0,240
2,note_on,63,0,0
2,note_on,63,40,0
2,note_on,68,40,0
2,note_on,68,0,240
2,note_on,63,0,0
2,note_on,52,47,0
2,note_on,52,0,240
2,note_on,61,42,0
2,note_on,56,42,0
2,note_on,56,0,120
2,note_on,61,0,0
2,note_on,61,42,120
2,note_on,56,42,0
2,note_on,56,0,240
2,note_on,61,0,0
2,note_on,64,39,0
2,note_on,61,39,0
2,note_on,61,0,240
2,note_on,64,0,0
2,note_on,42,47,0
2,note_on,42,0,240
2,note_on,57,43,0
2,note_on,54,43,0
2,note_on,54,0,120
2,note_on,57,0,0
2,note_on,54,43,120
2,note_on,57,43,0
2,note_on,57,0,240
2,note_on,54,0,0
2,note_on,62,41,0
2,note_on,57,41,0
2,note_on,57,0,240
2,note_on,62,0,0
2,note_on,44,45,0
2,note_on,44,0,240
2,note_on,56,39,0
2,note_on,52,39,0
2,note_on,52,0,120
2,note_on,56,0,0
2,note_on,52,40,120
2,note_on,56,40,0
2,note_on,56,0,240
2,note_on,52,0,0
2,note_on,56,42,0
2,note_on,61,42,0
2,note_on,61,0,240
2,note_on,56,0,0
2,note_on,44,48,0
2,note_on,44,0,240
2,note_on,51,39,0
2,note_on,54,39,0
2,note_on,54,0,120
2,note_on,51,0,0
2,note_on,54,39,120
2,note_on,51,39,0
2,note_on,51,0,240
2,note_on,54,0,0
2,note_on,54,39,0
2,note_on,60,39,0
2,note_on,60,0,240
2,note_on,54,0,0
2,note_on,37,49,0
2,note_on,37,0,119
2,note_on,49,31,1
2,note_on,49,0,119
2,note_on,44,36,1
2,note_on,44,0,119
2,note_on,49,32,1
2,note_on,49,0,119
2,note_on,37,41,1
2,note_on,37,0,119
2,note_on,49,32,1
2,note_on,49,0,119
2,note_on,44,36,1
2,note_on,44,0,119
2,note_on,49,32,1
2,note_on,49,0,119
2,note_on,37,41,1
2,note_on,37,0,119
2,note_on,49,32,1
2,note_on,49,0,119
2,note_on,44,37,1
2,note_on,44,0,119
2,note_on,49,37,1
2,note_on,49,0,119
2,note_on,37,41,1
2,note_on,37,0,119
2,note_on,49,32,1
2,note_on,49,0,119
2,note_on,44,37,1
2,note_on,44,0,119
2,note_on,49,33,1
2,note_on,49,0,119
2,note_on,37,41,1
2,note_on,37,0,119
2,note_on,51,33,1
2,note_on,51,0,119
2,note_on,44,38,1
2,note_on,44,0,119
2,note_on,51,33,1
2,note_on,51,0,119
2,note_on,37,41,1
2,note_on,37,0,119
2,note_on,51,32,1
2,note_on,51,0,119
2,note_on,44,37,1
2,note_on,44,0,119
2,note_on,51,32,1
2,note_on,51,0,119
2,note_on,37,41,1
2,note_on,37,0,119
2,note_on,51,33,1
2,note_on,51,0,119
2,note_on,44,38,1
2,note_on,44,0,119
2,note_on,51,33,1
2,note_on,51,0,119
2,note_on,37,41,1
2,note_on,37,0,119
2,note_on,51,32,1
2,note_on,51,0,119
2,note_on,44,36,1
2,note_on,44,0,119
2,note_on,51,33,1
2,note_on,51,0,119
2,note_on,37,41,1
2,note_on,37,0,119
2,note_on,49,33,1
2,note_on,49,0,119
2,note_on,44,37,1
2,note_on,44,0,119
2,note_on,49,33,1
2,note_on,49,0,119
2,note_on,37,41,1
2,note_on,37,0,119
2,note_on,49,34,1
2,note_on,49,0,119
2,note_on,44,38,1
2,note_on,44,0,119
2,note_on,49,34,1
2,note_on,49,0,119
2,note_on,37,41,1
2,note_on,37,0,119
2,note_on,49,34,1
2,note_on,49,0,119
2,note_on,44,38,1
2,note_on,44,0,119
2,note_on,49,33,1
2,note_on,49,0,119
2,note_on,37,41,1
2,note_on,37,0,119
2,note_on,49,33,1
2,note_on,49,0,119
2,note_on,44,36,1
2,note_on,44,0,119
2,note_on,49,32,1
2,note_on,49,0,119
2,note_on,37,41,1
2,note_on,37,0,119
2,note_on,51,33,1
2,note_on,51,0,119
2,note_on,44,36,1
2,note_on,44,0,119
2,note_on,51,33,1
2,note_on,51,0,119
2,note_on,37,41,1
2,note_on,37,0,119
2,note_on,51,33,1
2,note_on,51,0,119
2,note_on,44,36,1
2,note_on,44,0,119
2,note_on,51,33,1
2,note_on,51,0,119
2,note_on,37,41,1
2,note_on,37,0,119
2,note_on,51,32,1
2,note_on,51,0,119
2,note_on,44,36,1
2,note_on,44,0,119
2,note_on,51,33,1
2,note_on,51,0,119
2,note_on,37,41,1
2,note_on,37,0,119
2,note_on,51,35,1
2,note_on,51,0,119
2,note_on,44,39,1
2,note_on,44,0,119
2,note_on,51,34,1
2,note_on,51,0,119
2,note_on,37,41,1
2,note_on,37,0,119
2,note_on,49,33,1
2,note_on,49,0,119
2,note_on,44,36,1
2,note_on,44,0,119
2,note_on,49,33,1
2,note_on,49,0,119
2,note_on,37,42,1
2,note_on,37,0,119
2,note_on,49,31,1
2,note_on,49,0,119
2,note_on,44,35,1
2,note_on,44,0,119
2,note_on,49,32,1
2,note_on,49,0,119
2,note_on,37,41,1
2,note_on,37,0,119
2,note_on,51,33,1
2,note_on,51,0,119
2,note_on,44,37,1
2,note_on,44,0,119
2,note_on,51,33,1
2,note_on,51,0,119
2,note_on,37,41,1
2,note_on,37,0,119
2,note_on,51,33,1
2,note_on,51,0,119
2,note_on,44,38,1
2,note_on,44,0,119
2,note_on,51,34,1
2,note_on,51,0,119
2,note_on,37,41,1
2,note_on,37,0,119
2,note_on,49,33,1
2,note_on,49,0,119
2,note_on,44,36,1
2,note_on,44,0,119
2,note_on,49,32,1
2,note_on,49,0,119
2,note_on,37,41,1
2,note_on,37,0,119
2,note_on,49,33,1
2,note_on,49,0,119
2,note_on,44,36,1
2,note_on,44,0,119
2,note_on,49,33,1
2,note_on,49,0,119
2,note_on,37,41,1
2,note_on,37,0,119
2,note_on,51,33,1
2,note_on,51,0,119
2,note_on,44,37,1
2,note_on,44,0,119
2,note_on,51,33,1
2,note_on,51,0,119
2,note_on,37,41,1
2,note_on,37,0,119
2,note_on,51,33,1
2,note_on,51,0,119
2,note_on,44,37,1
2,note_on,44,0,119
2,note_on,51,34,1
2,note_on,51,0,119
2,note_on,37,41,1
2,note_on,37,0,119
2,note_on,49,39,1
2,note_on,49,0,119
2,note_on,44,43,1
2,note_on,44,0,119
2,note_on,49,42,1
2,note_on,49,0,119
2,note_on,37,45,1
2,note_on,37,0,119
2,note_on,49,43,1
2,note_on,49,0,119
2,note_on,44,47,1
2,note_on,44,0,119
2,note_on,49,43,1
2,note_on,49,0,119
2,note_on,37,48,1
2,note_on,37,0,119
2,note_on,49,45,1
2,note_on,49,0,119
2,note_on,44,50,1
2,note_on,44,0,119
2,note_on,49,45,1
2,note_on,49,0,119
2,note_on,37,51,1
2,note_on,37,0,119
2,note_on,49,47,1
2,note_on,49,0,119
2,note_on,44,52,1
2,note_on,44,0,119
2,note_on,49,49,1
2,note_on,49,0,119
2,note_on,35,55,1
2,note_on,35,0,119
2,note_on,47,50,1
2,note_on,47,0,119
2,note_on,37,56,1
2,note_on,37,0,119
2,note_on,47,51,1
2,note_on,47,0,119
2,note_on,35,57,1
2,note_on,35,0,119
2,note_on,47,52,1
2,note_on,47,0,119
2,note_on,37,58,1
2,note_on,37,0,119
2,note_on,47,53,1
2,note_on,47,0,119
2,note_on,35,61,1
2,note_on,35,0,119
2,note_on,47,57,1
2,note_on,47,0,119
2,note_on,37,62,1
2,note_on,37,0,119
2,note_on,47,57,1
2,note_on,47,0,119
2,note_on,35,62,1
2,note_on,35,0,119
2,note_on,47,58,1
2,note_on,47,0,119
2,note_on,37,64,1
2,note_on,37,0,119
2,note_on,47,60,1
2,note_on,47,0,102
2,note_on,33,56,18
2,note_on,45,67,0
2,note_on,45,0,120
2,note_on,33,0,0
2,note_on,42,39,120
2,note_on,42,0,120
2,note_on,33,39,120
2,note_on,33,0,120
2,note_on,42,36,120
2,note_on,42,0,120
2,note_on,33,39,120
2,note_on,33,0,120
2,note_on,42,35,120
2,note_on,42,0,120
2,note_on,33,39,120
2,note_on,33,0,120
2,note_on,42,35,120
2,note_on,42,0,120
2,note_on,33,39,120
2,note_on,33,0,120
2,note_on,42,40,120
2,note_on,42,0,120
2,note_on,33,40,120
2,note_on,33,0,120
2,note_on,42,40,120
2,note_on,42,0,120
2,note_on,33,40,120
2,note_on,33,0,120
2,note_on,42,36,120
2,note_on,42,0,120
2,note_on,45,81,120
2,note_on,33,69,0
2,note_on,33,0,120
2,note_on,45,0,0
2,note_on,42,69,120
2,note_on,42,0,120
2,note_on,32,52,120
2,note_on,32,0,120
2,note_on,40,47,120
2,note_on,40,0,120
2,note_on,32,52,120
2,note_on,32,0,120
2,note_on,40,48,120
2,note_on,40,0,120
2,note_on,32,52,120
2,note_on,32,0,120
2,note_on,40,48,120
2,note_on,40,0,120
2,note_on,32,52,120
2,note_on,32,0,120
2,note_on,40,52,120
2,note_on,40,0,120
2,note_on,32,52,120
2,note_on,32,0,120
2,note_on,40,52,120
2,note_on,40,0,120
2,note_on,32,52,120
2,note_on,32,0,120
2,note_on,40,48,120
2,note_on,40,0,120
2,note_on,32,52,120
2,note_on,32,0,120
2,note_on,40,48,120
2,note_on,40,0,120
2,note_on,32,72,120
2,note_on,44,86,0
2,note_on,44,0,120
2,note_on,32,0,0
2,note_on,40,77,120
2,note_on,40,0,120
2,note_on,31,39,120
2,note_on,31,0,720
2,note_on,31,45,0
2,note_on,34,47,60
2,note_on,37,50,60
2,note_on,40,51,60
2,note_on,43,53,60
2,note_on,43,0,720
2,note_on,37,0,0
2,note_on,31,0,0
2,note_on,34,0,0
2,note_on,40,0,0
2,note_on,43,51,0
2,note_on,46,56,60
2,note_on,49,58,60
2,note_on,52,61,60
2,note_on,55,63,60
2,note_on,55,0,240
2,note_on,49,0,240
2,note_on,43,0,0
2,note_on,46,0,0
2,note_on,52,0,0
2,note_on,64,79,0
2,note_on,61,79,0
2,note_on,55,67,0
2,note_on,58,67,0
2,note_on,58,0,1440
2,note_on,64,0,0
2,note_on,61,0,0
2,note_on,55,0,0
2,note_on,30,47,0
2,note_on,30,0,720
2,note_on,30,41,0
2,note_on,33,43,60
2,note_on,36,47,60
2,note_on,39,49,60
2,note_on,42,52,60
2,note_on,42,0,720
2,note_on,36,0,0
2,note_on,30,0,0
2,note_on,33,0,0
2,note_on,39,0,0
2,note_on,42,54,0
2,note_on,45,56,60
2,note_on,48,58,60
2,note_on,51,61,60
2,note_on,54,62,60
2,note_on,54,0,240
2,note_on,48,0,240
2,note_on,42,0,0
2,note_on,45,0,0
2,note_on,51,0,0
2,note_on,63,79,0
2,note_on,57,67,0
2,note_on,54,67,0
2,note_on,60,79,0
2,note_on,60,0,1440
2,note_on,63,0,0
2,note_on,57,0,0
2,note_on,54,0,0
2,note_on,49,41,0
2,note_on,49,0,240
2,note_on,56,56,240
2,note_on,56,0,960
2,note_on,52,48,0
2,note_on,52,0,360
2,note_on,49,48,0
2,note_on,49,0,115
2,note_on,49,54,5
2,note_on,49,0,480
2,note_on,48,47,0
2,note_on,48,0,720
2,note_on,48,47,0
2,note_on,48,0,240
2,note_on,56,56,0
2,note_on,56,0,360
2,note_on,48,47,0
2,note_on,48,0,120
2,note_on,51,43,0
2,note_on,51,0,480
2,note_on,49,47,0
2,note_on,49,0,720
2,note_on,49,48,0
2,note_on,49,0,240
2,note_on,56,53,0
2,note_on,56,0,360
2,note_on,49,47,0
2,note_on,49,0,120
2,note_on,52,43,0
2,note_on,52,0,480
2,note_on,51,47,0
2,note_on,51,0,720
2,note_on,51,48,0
2,note_on,51,0,240
2,note_on,56,53,0
2,note_on,56,0,360
2,note_on,51,47,0
2,note_on,51,0,120
2,note_on,52,40,0
2,note_on,56,35,120
2,note_on,52,0,20
2,note_on,52,40,100
2,note_on,56,0,20
2,note_on,56,34,100
2,note_on,52,0,20
2,note_on,52,47,100
2,note_on,56,0,20
2,note_on,52,0,99
2,note_on,56,34,1
2,note_on,56,0,119
2,note_on,52,40,1
2,note_on,52,0,119
2,note_on,56,34,1
2,note_on,56,0,119
2,note_on,52,47,1
2,note_on,52,0,119
2,note_on,56,34,1
2,note_on,56,0,119
2,note_on,52,39,1
2,note_on,52,0,119
2,note_on,56,34,1
2,note_on,56,0,119
2,note_on,52,47,1
2,note_on,52,0,119
2,note_on,56,35,1
2,note_on,56,0,119
2,note_on,52,40,1
2,note_on,52,0,119
2,note_on,56,34,1
2,note_on,56,0,119
2,note_on,54,47,1
2,note_on,54,0,119
2,note_on,56,33,1
2,note_on,56,0,119
2,note_on,54,39,1
2,note_on,54,0,119
2,note_on,56,34,1
2,note_on,56,0,119
2,note_on,54,55,1
2,note_on,54,0,119
2,note_on,56,45,1
2,note_on,56,0,119
2,note_on,54,57,1
2,note_on,54,0,119
2,note_on,56,53,1
2,note_on,56,0,119
2,note_on,54,67,1
2,note_on,54,0,119
2,note_on,56,52,1
2,note_on,56,0,119
2,note_on,54,62,1
2,note_on,54,0,119
2,note_on,56,56,1
2,note_on,56,0,119
2,note_on,54,71,1
2,note_on,54,0,119
2,note_on,56,56,1
2,note_on,56,0,119
2,note_on,54,58,1
2,note_on,54,0,119
2,note_on,56,49,1
2,note_on,56,0,119
2,note_on,52,47,1
2,note_on,52,0,119
2,note_on,56,34,1
2,note_on,56,0,119
2,note_on,52,40,1
2,note_on,52,0,119
2,note_on,56,34,1
2,note_on,56,0,119
2,note_on,52,56,1
2,note_on,52,0,119
2,note_on,56,47,1
2,note_on,56,0,119
2,note_on,52,57,1
2,note_on,52,0,119
2,note_on,56,50,1
2,note_on,56,0,119
2,note_on,52,68,1
2,note_on,52,0,119
2,note_on,56,52,1
2,note_on,56,0,119
2,note_on,52,64,1
2,note_on,52,0,119
2,note_on,56,57,1
2,note_on,56,0,119
2,note_on,52,75,1
2,note_on,52,0,119
2,note_on,56,56,1
2,note_on,56,0,119
2,note_on,52,61,1
2,note_on,52,0,119
2,note_on,56,49,1
2,note_on,56,0,119
2,note_on,48,47,1
2,note_on,48,0,119
2,note_on,56,37,1
2,note_on,56,0,119
2,note_on,48,41,1
2,note_on,48,0,119
2,note_on,56,35,1
2,note_on,56,0,119
2,note_on,48,59,1
2,note_on,48,0,119
2,note_on,56,47,1
2,note_on,56,0,119
2,note_on,48,56,1
2,note_on,48,0,119
2,note_on,56,49,1
2,note_on,56,0,119
2,note_on,48,69,1
2,note_on,48,0,119
2,note_on,56,52,1
2,note_on,56,0,119
2,note_on,48,62,1
2,note_on,48,0,119
2,note_on,56,56,1
2,note_on,56,0,119
2,note_on,48,77,1
2,note_on,48,0,119
2,note_on,56,54,1
2,note_on,56,0,119
2,note_on,48,58,1
2,note_on,48,0,119
2,note_on,56,47,1
2,note_on,56,0,119
2,note_on,49,47,1
2,note_on,56,43,120
2,note_on,49,0,20
2,note_on,49,47,100
2,note_on,56,0,20
2,note_on,56,43,100
2,note_on,49,0,20
2,note_on,49,49,100
2,note_on,56,0,20
2,note_on,56,46,100
2,note_on,49,0,20
2,note_on,49,51,100
2,note_on,56,0,20
2,note_on,56,48,100
2,note_on,49,0,20
2,note_on,47,53,100
2,note_on,56,0,20
2,note_on,49,51,100
2,note_on,47,0,20
2,note_on,47,56,100
2,note_on,49,0,20
2,note_on,49,51,100
2,note_on,47,0,20
2,note_on,47,57,100
2,note_on,49,0,20
2,note_on,49,53,100
2,note_on,47,0,20
2,note_on,47,59,100
2,note_on,49,0,20
2,note_on,49,53,100
2,note_on,47,0,20
2,note_on,45,62,100
2,note_on,49,0,20
2,note_on,49,56,100
2,note_on,45,0,20
2,note_on,45,62,100
2,note_on,49,0,20
2,note_on,49,58,100
2,note_on,45,0,20
2,note_on,45,66,100
2,note_on,49,0,20
2,note_on,49,61,100
2,note_on,45,0,20
2,note_on,45,68,100
2,note_on,49,0,20
2,note_on,49,62,100
2,note_on,45,0,20
2,note_on,41,69,100
2,note_on,49,0,20
2,note_on,49,66,100
2,note_on,41,0,20
2,note_on,41,72,100
2,note_on,49,0,20
2,note_on,49,68,100
2,note_on,41,0,20
2,note_on,41,73,100
2,note_on,49,0,20
2,note_on,49,68,100
2,note_on,41,0,20
2,note_on,41,76,100
2,note_on,49,0,20
2,note_on,49,70,100
2,note_on,41,0,20
2,note_on,37,67,100
2,note_on,42,79,0
2,note_on,30,67,0
2,note_on,49,0,20
2,note_on,37,0,3820
2,note_on,42,0,0
2,note_on,30,0,0
2,note_on,38,53,0
2,note_on,42,63,0
2,note_on,30,53,0
2,note_on,30,0,3840
2,note_on,42,0,0
2,note_on,38,0,0
2,note_on,37,53,0
2,note_on,31,53,0
2,note_on,43,63,0
2,note_on,43,0,3840
2,note_on,31,0,0
2,note_on,37,0,0
2,note_on,37,52,0
2,note_on,44,62,0
2,note_on,32,52,0
2,note_on,32,0,3840
2,note_on,44,0,0
2,note_on,37,0,0
2,note_on,60,62,3840
2,note_on,66,62,0
2,note_on,56,62,0
2,note_on,56,0,1920
2,note_on,66,0,0
2,note_on,60,0,0
2,note_on,31,33,4800
2,note_on,43,39,0
2,note_on,43,0,1920
2,note_on,31,0,0
2,note_on,32,28,0
2,note_on,44,34,0
2,note_on,44,0,1920
2,note_on,32,0,0
2,note_on,37,37,0
2,note_on,49,37,0
2,note_on,49,0,115
2,note_on,37,0,5
2,note_on,49,31,0
2,note_on,49,0,120
2,note_on,44,35,0
2,note_on,44,0,120
2,note_on,49,31,0
2,note_on,49,0,120
2,note_on,37,37,0
2,note_on,37,0,120
2,note_on,49,31,0
2,note_on,49,0,119
2,note_on,44,35,1
2,note_on,44,0,119
2,note_on,49,30,1
2,note_on,49,0,119
2,note_on,37,37,1
2,note_on,37,0,119
2,note_on,49,32,1
2,note_on,49,0,119
2,note_on,44,35,1
2,note_on,44,0,119
2,note_on,49,32,1
2,note_on,49,0,119
2,note_on,37,37,1
2,note_on,37,0,119
2,note_on,49,32,1
2,note_on,49,0,119
2,note_on,44,35,1
2,note_on,44,0,119
2,note_on,49,30,1
2,note_on,49,0,119
2,note_on,37,37,1
2,note_on,37,0,119
2,note_on,51,31,1
2,note_on,51,0,119
2,note_on,44,35,1
2,note_on,44,0,119
2,note_on,51,31,1
2,note_on,51,0,119
2,note_on,37,37,1
2,note_on,37,0,119
2,note_on,51,30,1
2,note_on,51,0,119
2,note_on,44,35,1
2,note_on,44,0,119
2,note_on,51,31,1
2,note_on,51,0,119
2,note_on,37,37,1
2,note_on,37,0,119
2,note_on,51,32,1
2,note_on,51,0,119
2,note_on,44,35,1
2,note_on,44,0,119
2,note_on,51,35,1
2,note_on,51,0,119
2,note_on,37,37,1
2,note_on,37,0,119
2,note_on,51,30,1
2,note_on,51,0,119
2,note_on,44,35,1
2,note_on,44,0,119
2,note_on,51,31,1
2,note_on,51,0,119
2,note_on,37,37,1
2,note_on,37,0,119
2,note_on,49,30,1
2,note_on,49,0,119
2,note_on,44,35,1
2,note_on,44,0,119
2,note_on,49,31,1
2,note_on,49,0,119
2,note_on,37,37,1
2,note_on,37,0,119
2,note_on,49,32,1
2,note_on,49,0,119
2,note_on,44,35,1
2,note_on,44,0,119
2,note_on,49,30,1
2,note_on,49,0,119
2,note_on,37,37,1
2,note_on,37,0,119
2,note_on,49,31,1
2,note_on,49,0,119
2,note_on,44,35,1
2,note_on,44,0,119
2,note_on,49,31,1
2,note_on,49,0,119
2,note_on,37,37,1
2,note_on,37,0,119
2,note_on,49,31,1
2,note_on,49,0,119
2,note_on,44,35,1
2,note_on,44,0,119
2,note_on,49,30,1
2,note_on,49,0,119
2,note_on,37,37,1
2,note_on,37,0,119
2,note_on,51,31,1
2,note_on,51,0,119
2,note_on,44,35,1
2,note_on,44,0,119
2,note_on,51,31,1
2,note_on,51,0,119
2,note_on,37,37,1
2,note_on,37,0,119
2,note_on,51,33,1
2,note_on,51,0,119
2,note_on,44,35,1
2,note_on,44,0,119
2,note_on,51,30,1
2,note_on,51,0,119
2,note_on,37,37,1
2,note_on,37,0,119
2,note_on,51,31,1
2,note_on,51,0,119
2,note_on,44,35,1
2,note_on,44,0,119
2,note_on,51,31,1
2,note_on,51,0,119
2,note_on,37,37,1
2,note_on,37,0,119
2,note_on,51,32,1
2,note_on,51,0,119
2,note_on,44,35,1
2,note_on,44,0,119
2,note_on,51,32,1
2,note_on,51,0,119
2,note_on,37,37,1
2,note_on,37,0,119
2,note_on,49,33,1
2,note_on,49,0,119
2,note_on,44,38,1
2,note_on,44,0,119
2,note_on,49,34,1
2,note_on,49,0,119
2,note_on,37,39,1
2,note_on,37,0,119
2,note_on,49,34,1
2,note_on,49,0,119
2,note_on,44,40,1
2,note_on,44,0,119
2,note_on,49,35,1
2,note_on,49,0,119
2,note_on,37,41,1
2,note_on,37,0,119
2,note_on,51,39,1
2,note_on,51,0,119
2,note_on,44,43,1
2,note_on,44,0,119
2,note_on,51,39,1
2,note_on,51,0,119
2,note_on,37,45,1
2,note_on,37,0,119
2,note_on,51,40,1
2,note_on,51,0,119
2,note_on,44,47,1
2,note_on,44,0,119
2,note_on,51,41,1
2,note_on,51,0,119
2,note_on,37,47,1
2,note_on,37,0,119
2,note_on,49,42,1
2,note_on,49,0,119
2,note_on,44,50,1
2,note_on,44,0,119
2,note_on,49,44,1
2,note_on,49,0,119
2,note_on,37,51,1
2,note_on,37,0,119
2,note_on,49,47,1
2,note_on,49,0,119
2,note_on,44,51,1
2,note_on,44,0,119
2,note_on,49,46,1
2,note_on,49,0,119
2,note_on,37,52,1
2,note_on,37,0,119
2,note_on,51,50,1
2,note_on,51,0,119
2,note_on,44,54,1
2,note_on,44,0,119
2,note_on,51,50,1
2,note_on,51,0,119
2,note_on,37,56,1
2,note_on,37,0,119
2,note_on,51,51,1
2,note_on,51,0,119
2,note_on,44,57,1
2,note_on,44,0,119
2,note_on,51,51,1
2,note_on,51,0,119
2,note_on,44,68,1
2,note_on,49,68,0
2,note_on,37,57,0
2,note_on,52,57,120
2,note_on,37,0,20
2,note_on,44,0,0
2,note_on,49,0,0
2,note_on,56,60,100
2,note_on,52,0,20
2,note_on,61,56,100
2,note_on,56,0,20
2,note_on,64,62,100
2,note_on,61,0,20
2,note_on,56,57,100
2,note_on,64,0,20
2,note_on,61,58,100
2,note_on,56,0,20
2,note_on,64,57,100
2,note_on,61,0,20
2,note_on,68,62,100
2,note_on,64,0,20
2,note_on,61,58,100
2,note_on,68,0,20
2,note_on,64,58,100
2,note_on,61,0,20
2,note_on,68,57,100
2,note_on,64,0,20
2,note_on,73,63,100
2,note_on,68,0,20
2,note_on,64,60,100
2,note_on,73,0,20
2,note_on,68,62,100
2,note_on,64,0,20
2,note_on,73,60,100
2,note_on,68,0,20
2,note_on,76,68,100
2,note_on,73,0,20
2,note_on,73,64,100
2,note_on,76,0,20
2,note_on,68,63,100
2,note_on,73,0,20
2,note_on,64,61,100
2,note_on,68,0,20
2,note_on,73,67,100
2,note_on,64,0,20
2,note_on,68,64,100
2,note_on,73,0,20
2,note_on,64,62,100
2,note_on,68,0,20
2,note_on,61,62,100
2,note_on,64,0,20
2,note_on,68,67,100
2,note_on,61,0,20
2,note_on,64,64,100
2,note_on,68,0,20
2,note_on,61,62,100
2,note_on,64,0,20
2,note_on,56,62,100
2,note_on,61,0,20
2,note_on,64,67,100
2,note_on,56,0,20
2,note_on,61,64,100
2,note_on,64,0,20
2,note_on,56,62,100
2,note_on,61,0,20
2,note_on,52,62,100
2,note_on,56,0,20
2,note_on,61,63,100
2,note_on,52,0,20
2,note_on,56,62,100
2,note_on,61,0,20
2,note_on,52,62,100
2,note_on,56,0,20
2,note_on,49,60,100
2,note_on,52,0,20
2,note_on,56,64,100
2,note_on,49,0,20
2,note_on,52,63,100
2,note_on,56,0,20
2,note_on,49,62,100
2,note_on,52,0,20
2,note_on,44,60,100
2,note_on,49,0,20
2,note_on,52,66,100
2,note_on,44,0,20
2,note_on,49,66,100
2,note_on,52,0,20
2,note_on,44,63,100
2,note_on,49,0,20
2,note_on,40,61,100
2,note_on,44,0,20
2,note_on,49,66,100
2,note_on,40,0,20
2,note_on,44,64,100
2,note_on,49,0,20
2,note_on,40,63,100
2,note_on,44,0,20
2,note_on,44,62,100
2,note_on,40,0,20
2,note_on,37,62,100
2,note_on,44,0,20
2,note_on,37,0,460
2,note_on,37,67,480
2,note_on,40,67,0
2,note_on,44,79,0
2,note_on,49,79,0
2,note_on,49,0,360
2,note_on,37,0,0
2,note_on,40,0,0
2,note_on,44,0,0
2,note_on,44,79,600
2,note_on,37,67,0
2,note_on,40,67,0
2,note_on,49,79,0
2,note_on,49,0,360
2,note_on,44,0,0
2,note_on,37,0,0
2,note_on,40,0,0
