Track,Message Type,Note,Velocity,Time
1,note_on,67,90,1
1,note_on,65,85,479
1,note_on,67,0,21
1,note_on,70,89,459
1,note_on,65,0,20
1,note_on,72,87,460
1,note_on,70,0,20
1,note_on,77,73,220
1,note_on,72,0,20
1,note_on,74,86,220
1,note_on,77,0,20
1,note_on,72,85,460
1,note_on,74,0,20
1,note_on,77,74,220
1,note_on,72,0,20
1,note_on,74,85,220
1,note_on,77,0,20
1,note_on,74,0,430
1,note_on,70,86,30
1,note_on,72,86,480
1,note_on,70,0,20
1,note_on,67,82,460
1,note_on,72,0,20
1,note_on,65,81,460
1,note_on,67,0,20
1,note_on,65,0,430
1,note_on,58,69,30
1,note_on,67,82,0
1,note_on,62,69,0
1,note_on,62,0,480
1,note_on,67,0,0
1,note_on,58,0,0
1,note_on,60,68,0
1,note_on,57,68,0
1,note_on,65,80,0
1,note_on,65,0,480
1,note_on,57,0,0
1,note_on,60,0,0
1,note_on,62,68,0
1,note_on,58,68,0
1,note_on,70,80,0
1,note_on,70,0,480
1,note_on,58,0,0
1,note_on,62,0,0
1,note_on,60,69,0
1,note_on,72,82,0
1,note_on,69,69,0
1,note_on,72,0,240
1,note_on,77,78,0
1,note_on,77,0,240
1,note_on,69,0,0
1,note_on,60,0,0
1,note_on,69,68,0
1,note_on,74,81,0
1,note_on,65,68,0
1,note_on,65,0,480
1,note_on,74,0,0
1,note_on,69,0,0
1,note_on,60,68,0
1,note_on,69,68,0
1,note_on,72,81,0
1,note_on,72,0,240
1,note_on,77,77,0
1,note_on,77,0,240
1,note_on,69,0,0
1,note_on,60,0,0
1,note_on,70,71,0
1,note_on,65,71,0
1,note_on,74,84,0
1,note_on,74,0,450
1,note_on,65,0,0
1,note_on,70,0,0
1,note_on,67,66,30
1,note_on,62,66,0
1,note_on,70,78,0
1,note_on,70,0,480
1,note_on,62,0,0
1,note_on,67,0,0
1,note_on,67,65,0
1,note_on,64,65,0
1,note_on,72,77,0
1,note_on,72,0,480
1,note_on,64,0,0
1,note_on,67,0,0
1,note_on,60,59,0
1,note_on,67,70,0
1,note_on,55,59,0
1,note_on,55,0,480
1,note_on,67,0,0
1,note_on,60,0,0
1,note_on,65,66,0
1,note_on,57,56,0
1,note_on,60,56,0
1,note_on,60,0,450
1,note_on,57,0,0
1,note_on,65,0,0
1,note_on,65,92,30
1,note_on,67,88,480
1,note_on,65,0,20
1,note_on,62,83,460
1,note_on,67,0,20
1,note_on,65,86,460
1,note_on,62,0,20
1,note_on,67,74,220
1,note_on,65,0,20
1,note_on,60,80,220
1,note_on,67,0,20
1,note_on,67,80,460
1,note_on,60,0,20
1,note_on,69,72,220
1,note_on,67,0,20
1,note_on,65,79,220
1,note_on,69,0,20
1,note_on,65,0,430
1,note_on,72,71,30
1,note_on,65,71,0
1,note_on,69,71,0
1,note_on,77,84,0
1,note_on,77,0,480
1,note_on,72,0,0
1,note_on,65,0,0
1,note_on,69,0,0
1,note_on,65,69,0
1,note_on,62,69,0
1,note_on,74,82,0
1,note_on,74,0,480
1,note_on,62,0,0
1,note_on,65,0,0
1,note_on,72,80,0
1,note_on,60,68,0
1,note_on,65,68,0
1,note_on,60,0,240
1,note_on,72,0,0
1,note_on,70,74,0
1,note_on,58,62,0
1,note_on,58,0,240
1,note_on,70,0,0
1,note_on,65,0,0
1,note_on,65,79,0
1,note_on,65,0,450
1,note_on,65,92,30
1,note_on,67,88,480
1,note_on,65,0,20
1,note_on,62,85,460
1,note_on,67,0,20
1,note_on,65,86,460
1,note_on,62,0,20
1,note_on,67,77,220
1,note_on,65,0,20
1,note_on,63,85,220
1,note_on,67,0,20
1,note_on,70,94,460
1,note_on,63,0,20
1,note_on,72,78,220
1,note_on,70,0,20
1,note_on,68,81,220
1,note_on,72,0,20
1,note_on,68,0,430
1,note_on,68,71,30
1,note_on,72,71,0
1,note_on,75,71,0
1,note_on,80,84,0
1,note_on,80,0,480
1,note_on,68,0,0
1,note_on,72,0,0
1,note_on,75,0,0
1,note_on,77,80,0
1,note_on,68,68,0
1,note_on,65,68,0
1,note_on,65,0,480
1,note_on,68,0,0
1,note_on,77,0,0
1,note_on,63,66,0
1,note_on,75,78,0
1,note_on,68,66,0
1,note_on,68,0,240
1,note_on,75,0,0
1,note_on,63,0,0
1,note_on,61,66,0
1,note_on,73,78,0
1,note_on,73,0,240
1,note_on,61,0,0
1,note_on,68,74,0
1,note_on,68,0,450
1,note_on,63,48,30
1,note_on,56,48,0
1,note_on,68,57,0
1,note_on,68,0,480
1,note_on,56,0,0
1,note_on,58,49,0
1,note_on,70,58,0
1,note_on,70,0,480
1,note_on,58,0,0
1,note_on,68,58,0
1,note_on,56,49,0
1,note_on,56,0,480
1,note_on,68,0,0
1,note_on,63,0,0
1,note_on,63,49,0
1,note_on,58,49,0
1,note_on,70,58,0
1,note_on,70,0,240
1,note_on,58,0,0
1,note_on,60,49,0
1,note_on,72,58,0
1,note_on,72,0,240
1,note_on,60,0,0
1,note_on,75,63,0
1,note_on,63,53,0
1,note_on,63,0,240
1,note_on,75,0,0
1,note_on,58,49,0
1,note_on,70,58,0
1,note_on,70,0,240
1,note_on,58,0,0
1,note_on,56,46,0
1,note_on,68,55,0
1,note_on,68,0,480
1,note_on,56,0,0
1,note_on,63,0,0
1,note_on,73,73,0
1,note_on,68,62,0
1,note_on,61,62,0
1,note_on,65,62,0
1,note_on,65,0,240
1,note_on,73,0,0
1,note_on,68,0,0
1,note_on,61,0,0
1,note_on,72,58,0
1,note_on,75,69,0
1,note_on,68,58,0
1,note_on,63,58,0
1,note_on,63,0,240
1,note_on,72,0,0
1,note_on,75,0,0
1,note_on,68,0,0
1,note_on,65,62,0
1,note_on,77,73,0
1,note_on,68,62,0
1,note_on,73,62,0
1,note_on,73,0,240
1,note_on,65,0,0
1,note_on,77,0,0
1,note_on,68,0,0
1,note_on,68,63,0
1,note_on,80,75,0
1,note_on,80,0,240
1,note_on,68,0,0
1,note_on,66,61,0
1,note_on,78,72,0
1,note_on,70,61,0
1,note_on,75,61,0
1,note_on,75,0,240
1,note_on,66,0,0
1,note_on,78,0,0
1,note_on,70,0,0
1,note_on,65,57,0
1,note_on,77,68,0
1,note_on,68,57,0
1,note_on,73,57,0
1,note_on,73,0,240
1,note_on,65,0,0
1,note_on,77,0,0
1,note_on,68,0,0
1,note_on,72,63,0
1,note_on,75,75,0
1,note_on,68,63,0
1,note_on,63,63,0
1,note_on,63,0,240
1,note_on,72,0,0
1,note_on,75,0,0
1,note_on,68,0,0
1,note_on,78,69,0
1,note_on,66,58,0
1,note_on,66,0,240
1,note_on,78,0,0
1,note_on,73,58,0
1,note_on,77,69,0
1,note_on,65,58,0
1,note_on,70,58,0
1,note_on,70,0,240
1,note_on,73,0,0
1,note_on,77,0,0
1,note_on,65,0,0
1,note_on,61,57,0
1,note_on,73,68,0
1,note_on,73,0,240
1,note_on,61,0,0
1,note_on,68,54,0
1,note_on,63,54,0
1,note_on,72,54,0
1,note_on,75,64,0
1,note_on,75,0,480
1,note_on,68,0,0
1,note_on,63,0,0
1,note_on,72,0,0
1,note_on,63,51,0
1,note_on,56,51,0
1,note_on,68,61,0
1,note_on,68,0,480
1,note_on,56,0,0
1,note_on,63,0,0
1,note_on,63,51,0
1,note_on,70,61,0
1,note_on,58,51,0
1,note_on,58,0,480
1,note_on,70,0,0
1,note_on,63,0,0
1,note_on,56,51,0
1,note_on,63,51,0
1,note_on,68,61,0
1,note_on,68,0,480
1,note_on,63,0,0
1,note_on,56,0,0
1,note_on,58,49,0
1,note_on,63,49,0
1,note_on,70,58,0
1,note_on,70,0,240
1,note_on,58,0,0
1,note_on,72,58,0
1,note_on,60,49,0
1,note_on,60,0,240
1,note_on,72,0,0
1,note_on,63,53,0
1,note_on,75,63,0
1,note_on,75,0,240
1,note_on,63,0,0
1,note_on,63,0,0
1,note_on,58,49,0
1,note_on,70,58,0
1,note_on,70,0,210
1,note_on,58,0,0
1,note_on,72,62,30
1,note_on,67,52,0
1,note_on,60,52,0
1,note_on,60,0,480
1,note_on,72,0,0
1,note_on,74,64,0
1,note_on,62,54,0
1,note_on,62,0,480
1,note_on,74,0,0
1,note_on,60,53,0
1,note_on,72,63,0
1,note_on,72,0,480
1,note_on,60,0,0
1,note_on,67,0,0
1,note_on,67,52,0
1,note_on,62,52,0
1,note_on,74,62,0
1,note_on,74,0,240
1,note_on,62,0,0
1,note_on,65,52,0
1,note_on,77,62,0
1,note_on,77,0,240
1,note_on,65,0,0
1,note_on,79,64,0
1,note_on,67,54,0
1,note_on,67,0,240
1,note_on,79,0,0
1,note_on,74,63,0
1,note_on,62,53,0
1,note_on,62,0,240
1,note_on,74,0,0
1,note_on,72,61,0
1,note_on,60,51,0
1,note_on,60,0,450
1,note_on,72,0,0
1,note_on,67,0,30
1,note_on,72,67,0
1,note_on,65,67,0
1,note_on,69,67,0
1,note_on,77,79,0
1,note_on,77,0,240
1,note_on,72,0,0
1,note_on,65,0,0
1,note_on,69,0,0
1,note_on,72,61,0
1,note_on,79,72,0
1,note_on,76,61,0
1,note_on,67,61,0
1,note_on,67,0,240
1,note_on,72,0,0
1,note_on,79,0,0
1,note_on,76,0,0
1,note_on,69,69,0
1,note_on,81,82,0
1,note_on,77,69,0
1,note_on,72,69,0
1,note_on,72,0,240
1,note_on,69,0,0
1,note_on,81,0,0
1,note_on,77,0,0
1,note_on,84,72,0
1,note_on,72,61,0
1,note_on,72,0,240
1,note_on,84,0,0
1,note_on,79,68,0
1,note_on,70,68,0
1,note_on,74,68,0
1,note_on,82,81,0
1,note_on,82,0,240
1,note_on,79,0,0
1,note_on,70,0,0
1,note_on,74,0,0
1,note_on,72,63,0
1,note_on,81,75,0
1,note_on,77,63,0
1,note_on,69,63,0
1,note_on,69,0,240
1,note_on,72,0,0
1,note_on,81,0,0
1,note_on,77,0,0
1,note_on,67,68,0
1,note_on,79,81,0
1,note_on,72,68,0
1,note_on,76,68,0
1,note_on,76,0,240
1,note_on,67,0,0
1,note_on,79,0,0
1,note_on,72,0,0
1,note_on,70,63,0
1,note_on,82,75,0
1,note_on,82,0,240
1,note_on,70,0,0
1,note_on,74,67,0
1,note_on,69,67,0
1,note_on,77,67,0
1,note_on,81,79,0
1,note_on,81,0,240
1,note_on,74,0,0
1,note_on,69,0,0
1,note_on,77,0,0
1,note_on,65,62,0
1,note_on,77,74,0
1,note_on,77,0,240
1,note_on,65,0,0
1,note_on,72,58,0
1,note_on,67,58,0
1,note_on,79,69,0
1,note_on,76,58,0
1,note_on,76,0,480
1,note_on,72,0,0
1,note_on,67,0,0
1,note_on,79,0,0
1,note_on,72,61,0
1,note_on,67,51,0
1,note_on,60,51,0
1,note_on,60,0,480
1,note_on,67,0,0
1,note_on,72,0,0
1,note_on,74,61,0
1,note_on,62,51,0
1,note_on,67,51,0
1,note_on,67,0,480
1,note_on,62,0,0
1,note_on,74,0,0
1,note_on,72,61,0
1,note_on,67,51,0
1,note_on,60,51,0
1,note_on,60,0,480
1,note_on,67,0,0
1,note_on,72,0,0
1,note_on,74,58,0
1,note_on,67,49,0
1,note_on,62,49,0
1,note_on,62,0,240
1,note_on,67,0,0
1,note_on,74,0,0
1,note_on,77,58,0
1,note_on,65,49,0
1,note_on,65,0,240
1,note_on,77,0,0
1,note_on,67,53,0
1,note_on,79,63,0
1,note_on,79,0,240
1,note_on,67,0,0
1,note_on,62,49,0
1,note_on,74,58,0
1,note_on,74,0,210
1,note_on,62,0,0
1,note_on,69,56,30
1,note_on,81,67,0
1,note_on,73,56,0
1,note_on,73,0,480
1,note_on,81,0,0
1,note_on,69,0,0
1,note_on,74,54,0
1,note_on,69,54,0
1,note_on,77,64,0
1,note_on,77,0,480
1,note_on,69,0,0
1,note_on,74,0,0
1,note_on,73,55,0
1,note_on,69,55,0
1,note_on,81,65,0
1,note_on,81,0,480
1,note_on,69,0,0
1,note_on,73,0,0
1,note_on,74,61,0
1,note_on,70,51,0
1,note_on,64,51,0
1,note_on,64,0,480
1,note_on,70,0,0
1,note_on,74,0,0
1,note_on,72,51,0
1,note_on,69,51,0
1,note_on,81,60,0
1,note_on,81,0,480
1,note_on,69,0,0
1,note_on,72,0,0
1,note_on,64,47,0
1,note_on,74,56,0
1,note_on,70,47,0
1,note_on,70,0,480
1,note_on,74,0,0
1,note_on,64,0,0
1,note_on,69,56,0
1,note_on,77,66,0
1,note_on,65,56,0
1,note_on,77,0,240
1,note_on,72,60,0
1,note_on,72,0,240
1,note_on,65,0,0
1,note_on,69,0,0
1,note_on,65,54,0
1,note_on,74,64,0
1,note_on,70,54,0
1,note_on,70,0,450
1,note_on,74,0,0
1,note_on,65,0,0
1,note_on,69,52,30
1,note_on,77,62,0
1,note_on,65,52,0
1,note_on,65,0,480
1,note_on,77,0,0
1,note_on,69,0,0
1,note_on,70,47,0
1,note_on,65,47,0
1,note_on,74,56,0
1,note_on,74,0,480
1,note_on,65,0,0
1,note_on,70,0,0
1,note_on,69,54,0
1,note_on,77,64,0
1,note_on,65,54,0
1,note_on,77,0,240
1,note_on,72,60,0
1,note_on,72,0,240
1,note_on,65,0,0
1,note_on,69,0,0
1,note_on,74,62,0
1,note_on,65,52,0
1,note_on,70,52,0
1,note_on,70,0,450
1,note_on,65,0,0
1,note_on,74,0,0
1,note_on,72,63,30
1,note_on,63,53,0
1,note_on,67,53,0
1,note_on,63,0,240
1,note_on,64,46,0
1,note_on,64,0,240
1,note_on,67,0,0
1,note_on,72,0,0
1,note_on,60,49,0
1,note_on,69,58,0
1,note_on,65,49,0
1,note_on,65,0,480
1,note_on,69,0,0
1,note_on,60,0,0
1,note_on,65,46,0
1,note_on,70,55,0
1,note_on,62,46,0
1,note_on,62,0,480
1,note_on,70,0,0
1,note_on,65,0,0
1,note_on,72,64,0
1,note_on,63,64,0
1,note_on,67,54,0
1,note_on,63,0,240
1,note_on,64,56,0
1,note_on,64,0,240
1,note_on,67,0,0
1,note_on,72,0,0
1,note_on,60,49,0
1,note_on,65,49,0
1,note_on,69,58,0
1,note_on,69,0,450
1,note_on,65,0,0
1,note_on,60,0,0
1,note_on,65,63,30
1,note_on,70,75,0
1,note_on,62,63,0
1,note_on,70,0,240
1,note_on,74,82,0
1,note_on,74,0,240
1,note_on,62,0,0
1,note_on,65,0,0
1,note_on,77,88,0
1,note_on,65,74,0
1,note_on,65,0,480
1,note_on,77,0,0
1,note_on,63,69,0
1,note_on,67,69,0
1,note_on,75,82,0
1,note_on,70,69,0
1,note_on,70,0,240
1,note_on,63,0,0
1,note_on,67,0,0
1,note_on,75,0,0
1,note_on,62,66,0
1,note_on,74,78,0
1,note_on,74,0,240
1,note_on,62,0,0
1,note_on,60,63,0
1,note_on,65,63,0
1,note_on,69,63,0
1,note_on,72,75,0
1,note_on,72,0,240
1,note_on,60,0,0
1,note_on,65,0,0
1,note_on,69,0,0
1,note_on,70,71,0
1,note_on,58,60,0
1,note_on,58,0,240
1,note_on,70,0,0
1,note_on,65,69,0
1,note_on,72,82,0
1,note_on,60,69,0
1,note_on,60,0,480
1,note_on,72,0,0
1,note_on,65,0,0
1,note_on,62,71,0
1,note_on,65,71,0
1,note_on,74,84,0
1,note_on,74,0,480
1,note_on,65,0,0
1,note_on,62,0,0
1,note_on,77,86,0
1,note_on,69,73,0
1,note_on,65,73,0
1,note_on,72,86,0
1,note_on,72,0,480
1,note_on,77,0,0
1,note_on,69,0,0
1,note_on,65,0,0
1,note_on,79,90,0
1,note_on,70,76,0
1,note_on,75,76,0
1,note_on,67,76,0
1,note_on,67,0,240
1,note_on,79,0,0
1,note_on,70,0,0
1,note_on,75,0,0
1,note_on,70,69,0
1,note_on,82,82,0
1,note_on,82,0,240
1,note_on,70,0,0
1,note_on,77,89,0
1,note_on,65,75,0
1,note_on,65,0,450
1,note_on,77,0,0
1,note_on,70,68,30
1,note_on,75,81,0
1,note_on,67,68,0
1,note_on,63,68,0
1,note_on,63,0,240
1,note_on,70,0,0
1,note_on,75,0,0
1,note_on,67,0,0
1,note_on,74,75,0
1,note_on,62,60,0
1,note_on,62,0,240
1,note_on,74,0,0
1,note_on,72,73,0
1,note_on,69,62,0
1,note_on,65,62,0
1,note_on,60,62,0
1,note_on,60,0,240
1,note_on,72,0,0
1,note_on,69,0,0
1,note_on,65,0,0
1,note_on,58,60,0
1,note_on,70,71,0
1,note_on,70,0,240
1,note_on,58,0,0
1,note_on,65,63,0
1,note_on,60,63,0
1,note_on,72,75,0
1,note_on,72,0,480
1,note_on,60,0,0
1,note_on,65,0,0
1,note_on,65,76,0
1,note_on,62,76,0
1,note_on,74,90,0
1,note_on,74,0,480
1,note_on,62,0,0
1,note_on,65,0,0
1,note_on,69,74,0
1,note_on,72,74,0
1,note_on,65,74,0
1,note_on,77,88,0
1,note_on,77,0,480
1,note_on,69,0,0
1,note_on,72,0,0
1,note_on,65,0,0
1,note_on,79,91,0
1,note_on,67,77,0
1,note_on,76,91,0
1,note_on,72,77,0
1,note_on,72,0,240
1,note_on,79,0,0
1,note_on,67,0,0
1,note_on,76,0,0
1,note_on,82,82,0
1,note_on,70,69,0
1,note_on,70,0,240
1,note_on,82,0,0
1,note_on,77,88,0
1,note_on,65,74,0
1,note_on,65,0,450
1,note_on,77,0,0
1,note_on,67,77,30
1,note_on,79,91,0
1,note_on,79,0,480
1,note_on,67,0,0
1,note_on,65,74,0
1,note_on,77,88,0
1,note_on,77,0,450
1,note_on,65,0,0
1,note_on,67,93,30
1,note_on,67,0,480
1,note_on,65,90,0
1,note_on,65,0,450
1,note_on,62,73,30
1,note_on,70,87,0
1,note_on,58,73,0
1,note_on,58,0,480
1,note_on,70,0,0
1,note_on,62,0,0
1,note_on,72,85,0
1,note_on,60,72,0
1,note_on,69,72,0
1,note_on,72,0,240
1,note_on,65,68,0
1,note_on,77,80,0
1,note_on,77,0,240
1,note_on,60,0,0
1,note_on,69,0,0
1,note_on,65,0,0
1,note_on,74,86,0
1,note_on,62,73,0
1,note_on,70,73,0
1,note_on,70,0,480
1,note_on,62,0,0
1,note_on,74,0,0
1,note_on,60,72,0
1,note_on,69,72,0
1,note_on,72,85,0
1,note_on,72,0,240
1,note_on,65,66,0
1,note_on,77,78,0
1,note_on,77,0,240
1,note_on,60,0,0
1,note_on,69,0,0
1,note_on,65,0,0
1,note_on,74,85,0
1,note_on,62,72,0
1,note_on,70,72,0
1,note_on,70,0,450
1,note_on,62,0,0
1,note_on,74,0,0
1,note_on,62,72,30
1,note_on,58,72,0
1,note_on,70,85,0
1,note_on,70,0,480
1,note_on,58,0,0
1,note_on,62,0,0
1,note_on,67,71,0
1,note_on,60,71,0
1,note_on,72,84,0
1,note_on,72,0,480
1,note_on,60,0,0
1,note_on,67,0,0
1,note_on,55,66,0
1,note_on,60,66,0
1,note_on,67,78,0
1,note_on,67,0,480
1,note_on,60,0,0
1,note_on,55,0,0
1,note_on,65,74,0
1,note_on,57,62,0
1,note_on,60,62,0
1,note_on,60,0,450
1,note_on,57,0,0
1,note_on,65,0,0
1,note_on,58,78,30
1,note_on,62,78,0
1,note_on,67,92,0
1,note_on,67,0,480
1,note_on,62,0,0
1,note_on,58,0,0
1,note_on,57,77,0
1,note_on,60,77,0
1,note_on,65,91,0
1,note_on,65,0,480
1,note_on,60,0,0
1,note_on,57,0,0
1,note_on,65,77,0
1,note_on,70,91,0
1,note_on,62,77,0
1,note_on,58,77,0
1,note_on,58,0,480
1,note_on,65,0,0
1,note_on,70,0,0
1,note_on,62,0,0
1,note_on,69,72,0
1,note_on,65,72,0
1,note_on,60,72,0
1,note_on,72,85,0
1,note_on,72,0,240
1,note_on,65,0,0
1,note_on,77,78,0
1,note_on,65,66,0
1,note_on,65,0,240
1,note_on,69,0,0
1,note_on,60,0,0
1,note_on,77,0,0
1,note_on,70,72,0
1,note_on,62,72,0
1,note_on,65,72,0
1,note_on,74,85,0
1,note_on,74,0,450
1,note_on,70,0,0
1,note_on,62,0,0
1,note_on,65,0,0
1,note_on,65,72,30
1,note_on,69,72,0
1,note_on,60,72,0
1,note_on,72,85,0
1,note_on,72,0,240
1,note_on,65,0,0
1,note_on,77,78,0
1,note_on,65,66,0
1,note_on,65,0,240
1,note_on,69,0,0
1,note_on,60,0,0
1,note_on,77,0,0
1,note_on,74,85,0
1,note_on,65,72,0
1,note_on,70,72,0
1,note_on,62,72,0
1,note_on,62,0,450
1,note_on,74,0,0
1,note_on,65,0,0
1,note_on,70,0,0
1,note_on,70,88,30
1,note_on,62,74,0
1,note_on,67,74,0
1,note_on,58,74,0
1,note_on,58,0,480
1,note_on,70,0,0
1,note_on,62,0,0
1,note_on,67,0,0
1,note_on,67,79,0
1,note_on,75,93,0
1,note_on,72,79,0
1,note_on,63,79,0
1,note_on,63,0,960
1,note_on,67,0,0
1,note_on,75,0,0
1,note_on,72,0,0
1,note_on,60,75,0
1,note_on,72,89,0
1,note_on,65,75,0
1,note_on,69,75,0
1,note_on,69,0,960
1,note_on,60,0,0
1,note_on,72,0,0
1,note_on,65,0,0
1,note_on,65,76,0
1,note_on,70,90,0
1,note_on,62,76,0
1,note_on,62,0,240
1,note_on,65,0,0
1,note_on,70,0,2160
1,note_on,70,89,480
1,note_on,70,0,120
1,note_on,69,77,0
1,note_on,69,0,120
1,note_on,70,80,0
1,note_on,70,0,60
1,note_on,70,80,60
1,note_on,70,0,60
1,note_on,70,85,60
1,note_on,70,0,120
1,note_on,69,77,0
1,note_on,69,0,120
1,note_on,70,80,0
1,note_on,70,0,60
1,note_on,70,80,60
1,note_on,70,0,60
1,note_on,70,89,60
1,note_on,70,0,120
1,note_on,69,75,0
1,note_on,69,0,120
1,note_on,70,78,0
1,note_on,70,0,60
1,note_on,70,78,60
1,note_on,70,0,60
1,note_on,70,81,60
1,note_on,70,0,120
1,note_on,69,69,0
1,note_on,69,0,120
1,note_on,70,70,0
1,note_on,70,0,60
1,note_on,70,72,60
1,note_on,70,0,60
1,note_on,70,85,60
1,note_on,70,0,60
1,note_on,69,74,60
1,note_on,69,0,60
1,note_on,72,76,60
1,note_on,72,0,60
1,note_on,70,70,60
1,note_on,70,0,60
1,note_on,75,80,60
1,note_on,75,0,60
1,note_on,74,74,60
1,note_on,74,0,60
1,note_on,77,76,60
1,note_on,77,0,60
1,note_on,75,72,60
1,note_on,75,0,60
1,note_on,78,78,60
1,note_on,78,0,60
1,note_on,79,75,60
1,note_on,79,0,60
1,note_on,84,86,60
1,note_on,84,0,120
1,note_on,82,77,0
1,note_on,82,0,120
1,note_on,80,81,0
1,note_on,80,0,120
1,note_on,79,74,0
1,note_on,79,0,120
1,note_on,77,78,0
1,note_on,77,0,120
1,note_on,75,73,0
1,note_on,75,0,120
1,note_on,83,73,0
1,note_on,83,0,60
1,note_on,77,69,60
1,note_on,77,0,60
1,note_on,82,100,60
1,note_on,82,0,120
1,note_on,80,78,0
1,note_on,80,0,120
1,note_on,83,74,0
1,note_on,83,0,60
1,note_on,77,69,60
1,note_on,77,0,60
1,note_on,82,100,60
1,note_on,82,0,120
1,note_on,80,76,0
1,note_on,80,0,120
1,note_on,83,96,0
1,note_on,83,0,60
1,note_on,77,73,60
1,note_on,77,0,60
1,note_on,82,93,60
1,note_on,82,0,60
1,note_on,77,71,60
1,note_on,77,0,60
1,note_on,81,87,60
1,note_on,81,0,60
1,note_on,74,69,60
1,note_on,74,0,60
1,note_on,80,84,60
1,note_on,80,0,60
1,note_on,74,68,60
1,note_on,74,0,60
1,note_on,70,81,60
1,note_on,70,0,60
1,note_on,69,74,60
1,note_on,69,0,60
1,note_on,72,76,60
1,note_on,72,0,60
1,note_on,70,70,60
1,note_on,70,0,60
1,note_on,75,80,60
1,note_on,75,0,60
1,note_on,74,74,60
1,note_on,74,0,60
1,note_on,77,76,60
1,note_on,77,0,60
1,note_on,75,72,60
1,note_on,75,0,60
1,note_on,78,78,60
1,note_on,78,0,60
1,note_on,79,75,60
1,note_on,79,0,60
1,note_on,84,92,60
1,note_on,84,0,120
1,note_on,82,77,0
1,note_on,82,0,120
1,note_on,80,81,0
1,note_on,80,0,120
1,note_on,79,74,0
1,note_on,79,0,120
1,note_on,77,78,0
1,note_on,77,0,120
1,note_on,75,73,0
1,note_on,75,0,120
1,note_on,90,87,0
1,note_on,90,0,60
1,note_on,87,69,60
1,note_on,87,0,60
1,note_on,85,73,60
1,note_on,85,0,60
1,note_on,83,69,60
1,note_on,83,0,60
1,note_on,82,88,60
1,note_on,82,0,120
1,note_on,85,70,0
1,note_on,85,0,120
1,note_on,83,80,0
1,note_on,83,0,120
1,note_on,80,74,0
1,note_on,80,0,120
1,note_on,78,77,0
1,note_on,78,0,60
1,note_on,75,71,60
1,note_on,75,0,60
1,note_on,73,95,60
1,note_on,73,0,60
1,note_on,71,76,60
1,note_on,71,0,60
1,note_on,70,90,60
1,note_on,70,0,120
1,note_on,73,71,0
1,note_on,73,0,120
1,note_on,71,74,0
1,note_on,71,0,120
1,note_on,68,68,0
1,note_on,68,0,120
1,note_on,65,62,0
1,note_on,68,62,0
1,note_on,70,62,0
1,note_on,68,0,90
1,note_on,65,0,0
1,note_on,65,66,30
1,note_on,68,66,0
1,note_on,68,0,90
1,note_on,65,0,0
1,note_on,65,69,30
1,note_on,68,69,0
1,note_on,68,0,90
1,note_on,65,0,0
1,note_on,65,73,30
1,note_on,68,73,0
1,note_on,68,0,90
1,note_on,65,0,0
1,note_on,70,0,30
1,note_on,69,89,0
1,note_on,78,68,120
1,note_on,78,0,120
1,note_on,77,68,0
1,note_on,77,0,120
1,note_on,75,68,0
1,note_on,75,0,120
1,note_on,69,0,0
1,note_on,65,62,0
1,note_on,68,62,0
1,note_on,70,62,0
1,note_on,68,0,90
1,note_on,65,0,0
1,note_on,65,65,30
1,note_on,68,65,0
1,note_on,68,0,90
1,note_on,65,0,0
1,note_on,65,68,30
1,note_on,68,68,0
1,note_on,68,0,90
1,note_on,65,0,0
1,note_on,65,63,30
1,note_on,68,63,0
1,note_on,68,0,90
1,note_on,65,0,0
1,note_on,70,0,30
1,note_on,69,91,0
1,note_on,78,70,120
1,note_on,78,0,120
1,note_on,77,68,0
1,note_on,77,0,120
1,note_on,75,68,0
1,note_on,75,0,120
1,note_on,69,0,0
1,note_on,68,65,0
1,note_on,71,65,0
1,note_on,73,65,0
1,note_on,71,0,90
1,note_on,68,0,0
1,note_on,68,68,30
1,note_on,71,68,0
1,note_on,71,0,90
1,note_on,68,0,0
1,note_on,68,70,30
1,note_on,71,70,0
1,note_on,71,0,90
1,note_on,68,0,0
1,note_on,68,73,30
1,note_on,71,73,0
1,note_on,71,0,90
1,note_on,68,0,0
1,note_on,73,0,30
1,note_on,72,87,0
1,note_on,81,71,120
1,note_on,81,0,120
1,note_on,80,75,0
1,note_on,80,0,120
1,note_on,78,71,0
1,note_on,78,0,120
1,note_on,72,0,0
1,note_on,70,66,0
1,note_on,74,66,0
1,note_on,75,66,0
1,note_on,74,0,90
1,note_on,70,0,0
1,note_on,70,68,30
1,note_on,74,68,0
1,note_on,74,0,90
1,note_on,70,0,0
1,note_on,70,70,30
1,note_on,74,70,0
1,note_on,74,0,90
1,note_on,70,0,0
1,note_on,70,72,30
1,note_on,74,72,0
1,note_on,74,0,90
1,note_on,70,0,0
1,note_on,75,0,30
1,note_on,74,87,0
1,note_on,83,72,120
1,note_on,83,0,120
1,note_on,82,91,0
1,note_on,82,0,120
1,note_on,80,72,0
1,note_on,80,0,120
1,note_on,74,0,0
1,note_on,68,63,240
1,note_on,71,91,0
1,note_on,77,77,120
1,note_on,77,0,120
1,note_on,71,0,0
1,note_on,68,0,0
1,note_on,68,63,240
1,note_on,71,91,0
1,note_on,77,77,120
1,note_on,77,0,120
1,note_on,71,0,0
1,note_on,68,0,0
1,note_on,71,77,0
1,note_on,71,0,120
1,note_on,70,70,0
1,note_on,70,0,120
1,note_on,71,74,0
1,note_on,71,0,120
1,note_on,70,67,0
1,note_on,70,0,120
1,note_on,71,73,0
1,note_on,71,0,120
1,note_on,70,67,0
1,note_on,70,0,120
1,note_on,71,73,0
1,note_on,71,0,120
1,note_on,77,67,0
1,note_on,77,0,120
1,note_on,70,85,0
1,note_on,70,0,60
1,note_on,69,74,60
1,note_on,69,0,60
1,note_on,72,76,60
1,note_on,72,0,60
1,note_on,70,70,60
1,note_on,70,0,60
1,note_on,75,80,60
1,note_on,75,0,60
1,note_on,74,74,60
1,note_on,74,0,60
1,note_on,77,76,60
1,note_on,77,0,60
1,note_on,75,72,60
1,note_on,75,0,60
1,note_on,78,78,60
1,note_on,78,0,60
1,note_on,79,75,60
1,note_on,79,0,60
1,note_on,84,94,60
1,note_on,84,0,120
1,note_on,82,77,0
1,note_on,82,0,120
1,note_on,80,81,0
1,note_on,80,0,120
1,note_on,79,74,0
1,note_on,79,0,120
1,note_on,77,78,0
1,note_on,77,0,120
1,note_on,75,73,0
1,note_on,75,0,120
1,note_on,83,73,0
1,note_on,83,0,60
1,note_on,77,69,60
1,note_on,77,0,60
1,note_on,82,96,60
1,note_on,82,0,120
1,note_on,80,78,0
1,note_on,80,0,120
1,note_on,83,74,0
1,note_on,83,0,60
1,note_on,77,69,60
1,note_on,77,0,60
1,note_on,82,94,60
1,note_on,82,0,120
1,note_on,80,76,0
1,note_on,80,0,120
1,note_on,87,96,0
1,note_on,87,0,60
1,note_on,86,73,60
1,note_on,86,0,60
1,note_on,89,84,60
1,note_on,89,0,60
1,note_on,87,71,60
1,note_on,87,0,60
1,note_on,83,88,60
1,note_on,83,0,120
1,note_on,86,69,0
1,note_on,86,0,120
1,note_on,84,76,0
1,note_on,84,0,120
1,note_on,80,68,0
1,note_on,80,0,120
1,note_on,79,89,0
1,note_on,79,0,120
1,note_on,82,72,0
1,note_on,82,0,120
1,note_on,80,79,0
1,note_on,80,0,120
1,note_on,77,74,0
1,note_on,77,0,120
1,note_on,75,85,0
1,note_on,75,0,60
1,note_on,74,73,60
1,note_on,74,0,60
1,note_on,77,91,60
1,note_on,77,0,60
1,note_on,75,74,60
1,note_on,75,0,60
1,note_on,82,71,60
1,note_on,79,71,0
1,note_on,79,0,60
1,note_on,82,0,0
1,note_on,82,73,60
1,note_on,79,73,0
1,note_on,79,0,60
1,note_on,82,0,0
1,note_on,82,75,60
1,note_on,79,75,0
1,note_on,79,0,60
1,note_on,82,0,0
1,note_on,82,78,60
1,note_on,79,78,0
1,note_on,79,0,60
1,note_on,82,0,0
1,note_on,82,80,60
1,note_on,79,80,0
1,note_on,79,0,60
1,note_on,82,0,0
1,note_on,82,82,60
1,note_on,79,82,0
1,note_on,79,0,60
1,note_on,82,0,0
1,note_on,82,84,60
1,note_on,79,84,0
1,note_on,79,0,60
1,note_on,82,0,0
1,note_on,82,85,60
1,note_on,79,85,0
1,note_on,79,0,60
1,note_on,82,0,0
1,note_on,86,94,60
1,note_on,78,94,0
1,note_on,74,94,0
1,note_on,74,0,240
1,note_on,78,0,0
1,note_on,86,0,0
1,note_on,78,74,0
1,note_on,74,74,0
1,note_on,74,0,90
1,note_on,78,0,0
1,note_on,78,70,30
1,note_on,74,70,0
1,note_on,74,0,90
1,note_on,78,0,0
1,note_on,78,76,30
1,note_on,74,76,0
1,note_on,74,0,90
1,note_on,78,0,0
1,note_on,78,70,30
1,note_on,74,70,0
1,note_on,74,0,90
1,note_on,78,0,0
1,note_on,78,75,30
1,note_on,74,75,0
1,note_on,74,0,90
1,note_on,78,0,0
1,note_on,78,71,30
1,note_on,74,71,0
1,note_on,74,0,90
1,note_on,78,0,0
1,note_on,76,89,30
1,note_on,74,89,0
1,note_on,74,0,240
1,note_on,76,0,0
1,note_on,82,70,0
1,note_on,80,70,0
1,note_on,80,0,60
1,note_on,82,0,0
1,note_on,82,67,60
1,note_on,80,67,0
1,note_on,80,0,60
1,note_on,82,0,0
1,note_on,76,89,60
1,note_on,74,89,0
1,note_on,74,0,240
1,note_on,76,0,0
1,note_on,82,68,0
1,note_on,80,68,0
1,note_on,80,0,60
1,note_on,82,0,0
1,note_on,82,68,60
1,note_on,80,68,0
1,note_on,80,0,60
1,note_on,82,0,0
1,note_on,74,71,60
1,note_on,76,71,0
1,note_on,76,0,90
1,note_on,74,0,0
1,note_on,74,71,30
1,note_on,76,71,0
1,note_on,76,0,90
1,note_on,74,0,0
1,note_on,74,71,30
1,note_on,76,71,0
1,note_on,76,0,90
1,note_on,74,0,0
1,note_on,74,71,30
1,note_on,76,71,0
1,note_on,76,0,90
1,note_on,74,0,0
1,note_on,76,74,30
1,note_on,74,74,0
1,note_on,74,0,90
1,note_on,76,0,0
1,note_on,74,77,30
1,note_on,76,77,0
1,note_on,76,0,90
1,note_on,74,0,0
1,note_on,74,80,30
1,note_on,76,80,0
1,note_on,76,0,90
1,note_on,74,0,0
1,note_on,74,84,30
1,note_on,76,84,0
1,note_on,76,0,90
1,note_on,74,0,0
1,note_on,73,91,30
1,note_on,76,91,0
1,note_on,76,0,60
1,note_on,73,0,0
1,note_on,73,82,60
1,note_on,76,82,0
1,note_on,76,0,60
1,note_on,73,0,0
1,note_on,73,87,60
1,note_on,76,87,0
1,note_on,76,0,60
1,note_on,73,0,0
1,note_on,73,79,60
1,note_on,76,79,0
1,note_on,76,0,60
1,note_on,73,0,0
1,note_on,81,96,60
1,note_on,73,96,0
1,note_on,73,0,240
1,note_on,81,0,0
1,note_on,86,94,240
1,note_on,78,94,0
1,note_on,74,94,0
1,note_on,74,0,240
1,note_on,78,0,0
1,note_on,86,0,0
1,note_on,78,75,0
1,note_on,74,75,0
1,note_on,74,0,90
1,note_on,78,0,0
1,note_on,78,70,30
1,note_on,74,70,0
1,note_on,74,0,90
1,note_on,78,0,0
1,note_on,78,75,30
1,note_on,74,75,0
1,note_on,74,0,90
1,note_on,78,0,0
1,note_on,78,69,30
1,note_on,74,69,0
1,note_on,74,0,90
1,note_on,78,0,0
1,note_on,78,75,30
1,note_on,74,75,0
1,note_on,74,0,90
1,note_on,78,0,0
1,note_on,78,70,30
1,note_on,74,70,0
1,note_on,74,0,90
1,note_on,78,0,0
1,note_on,76,89,30
1,note_on,78,89,0
1,note_on,78,0,240
1,note_on,76,0,0
1,note_on,84,68,0
1,note_on,82,68,0
1,note_on,82,0,60
1,note_on,84,0,0
1,note_on,84,68,60
1,note_on,82,68,0
1,note_on,82,0,60
1,note_on,84,0,0
1,note_on,76,89,60
1,note_on,78,89,0
1,note_on,78,0,240
1,note_on,76,0,0
1,note_on,84,69,0
1,note_on,82,69,0
1,note_on,82,0,60
1,note_on,84,0,0
1,note_on,84,69,60
1,note_on,82,69,0
1,note_on,82,0,60
1,note_on,84,0,0
1,note_on,78,71,60
1,note_on,76,71,0
1,note_on,76,0,90
1,note_on,78,0,0
1,note_on,78,71,30
1,note_on,76,71,0
1,note_on,76,0,90
1,note_on,78,0,0
1,note_on,78,71,30
1,note_on,76,71,0
1,note_on,76,0,90
1,note_on,78,0,0
1,note_on,78,71,30
1,note_on,76,71,0
1,note_on,76,0,90
1,note_on,78,0,0
1,note_on,76,70,30
1,note_on,78,70,0
1,note_on,78,0,90
1,note_on,76,0,0
1,note_on,78,71,30
1,note_on,76,71,0
1,note_on,76,0,90
1,note_on,78,0,0
1,note_on,78,73,30
1,note_on,76,73,0
1,note_on,76,0,90
1,note_on,78,0,0
1,note_on,78,75,30
1,note_on,76,75,0
1,note_on,76,0,90
1,note_on,78,0,0
1,note_on,78,81,30
1,note_on,75,81,0
1,note_on,75,0,60
1,note_on,78,0,0
1,note_on,78,74,60
1,note_on,75,74,0
1,note_on,75,0,60
1,note_on,78,0,0
1,note_on,78,79,60
1,note_on,75,79,0
1,note_on,75,0,60
1,note_on,78,0,0
1,note_on,78,71,60
1,note_on,75,71,0
1,note_on,75,0,60
1,note_on,78,0,0
1,note_on,83,85,60
1,note_on,75,85,0
1,note_on,75,0,240
1,note_on,83,0,0
1,note_on,88,94,240
1,note_on,76,94,0
1,note_on,76,0,240
1,note_on,88,0,0
1,note_on,75,70,0
1,note_on,75,0,120
1,note_on,76,67,0
1,note_on,76,0,120
1,note_on,78,72,0
1,note_on,78,0,120
1,note_on,79,70,0
1,note_on,79,0,120
1,note_on,82,74,0
1,note_on,82,0,120
1,note_on,83,72,0
1,note_on,83,0,120
1,note_on,77,89,0
1,note_on,86,89,0
1,note_on,74,89,0
1,note_on,74,0,240
1,note_on,86,0,0
1,note_on,77,0,0
1,note_on,80,74,0
1,note_on,74,74,0
1,note_on,77,74,0
1,note_on,80,0,120
1,note_on,79,76,0
1,note_on,79,0,120
1,note_on,77,0,0
1,note_on,74,0,0
1,note_on,84,94,0
1,note_on,75,79,0
1,note_on,75,0,240
1,note_on,84,0,0
1,note_on,71,70,0
1,note_on,71,0,120
1,note_on,72,67,0
1,note_on,72,0,120
1,note_on,74,72,0
1,note_on,74,0,120
1,note_on,75,70,0
1,note_on,75,0,120
1,note_on,78,74,0
1,note_on,78,0,120
1,note_on,79,72,0
1,note_on,79,0,120
1,note_on,73,89,0
1,note_on,82,89,0
1,note_on,70,89,0
1,note_on,70,0,240
1,note_on,82,0,0
1,note_on,73,0,0
1,note_on,76,74,0
1,note_on,73,74,0
1,note_on,70,74,0
1,note_on,76,0,120
1,note_on,75,70,0
1,note_on,75,0,120
1,note_on,70,0,0
1,note_on,73,0,0
1,note_on,80,94,0
1,note_on,72,79,0
1,note_on,75,79,0
1,note_on,75,0,240
1,note_on,72,0,0
1,note_on,80,0,0
1,note_on,71,70,0
1,note_on,71,0,120
1,note_on,72,67,0
1,note_on,72,0,120
1,note_on,67,71,0
1,note_on,67,0,120
1,note_on,68,67,0
1,note_on,68,0,120
1,note_on,71,72,0
1,note_on,71,0,120
1,note_on,72,68,0
1,note_on,72,0,120
1,note_on,71,88,240
1,note_on,68,79,0
1,note_on,71,0,120
1,note_on,77,80,0
1,note_on,77,0,120
1,note_on,68,0,0
1,note_on,80,94,0
1,note_on,72,79,0
1,note_on,75,79,0
1,note_on,75,0,240
1,note_on,72,0,0
1,note_on,80,0,0
1,note_on,71,70,0
1,note_on,71,0,120
1,note_on,72,65,0
1,note_on,72,0,120
1,note_on,67,71,0
1,note_on,67,0,120
1,note_on,68,67,0
1,note_on,68,0,120
1,note_on,71,74,0
1,note_on,71,0,120
1,note_on,72,67,0
1,note_on,72,0,120
1,note_on,71,85,240
1,note_on,68,77,0
1,note_on,71,0,120
1,note_on,77,80,0
1,note_on,77,0,120
1,note_on,68,0,0
1,note_on,76,89,0
1,note_on,74,89,0
1,note_on,74,0,240
1,note_on,76,0,0
1,note_on,82,68,0
1,note_on,80,68,0
1,note_on,80,0,60
1,note_on,82,0,0
1,note_on,82,68,60
1,note_on,80,68,0
1,note_on,80,0,60
1,note_on,82,0,0
1,note_on,85,94,60
1,note_on,73,79,0
1,note_on,77,79,0
1,note_on,77,0,240
1,note_on,73,0,0
1,note_on,85,0,0
1,note_on,76,70,0
1,note_on,76,0,120
1,note_on,77,65,0
1,note_on,77,0,120
1,note_on,72,70,0
1,note_on,72,0,120
1,note_on,73,66,0
1,note_on,73,0,120
1,note_on,76,71,0
1,note_on,76,0,120
1,note_on,77,67,0
1,note_on,77,0,120
1,note_on,76,85,240
1,note_on,73,85,0
1,note_on,76,0,120
1,note_on,82,80,0
1,note_on,82,0,120
1,note_on,73,0,0
1,note_on,76,89,0
1,note_on,74,89,0
1,note_on,74,0,240
1,note_on,76,0,0
1,note_on,82,68,0
1,note_on,81,68,0
1,note_on,81,0,60
1,note_on,82,0,0
1,note_on,82,68,60
1,note_on,81,68,0
1,note_on,81,0,60
1,note_on,82,0,0
1,note_on,76,85,300
1,note_on,73,85,0
1,note_on,76,0,120
1,note_on,82,80,0
1,note_on,82,0,120
1,note_on,73,0,0
1,note_on,76,85,240
1,note_on,74,85,0
1,note_on,76,0,120
1,note_on,83,80,0
1,note_on,83,0,120
1,note_on,74,0,0
1,note_on,76,89,0
1,note_on,74,89,0
1,note_on,74,0,240
1,note_on,76,0,0
1,note_on,82,72,0
1,note_on,80,72,0
1,note_on,80,0,60
1,note_on,82,0,0
1,note_on,82,72,60
1,note_on,80,72,0
1,note_on,80,0,60
1,note_on,82,0,0
1,note_on,76,85,300
1,note_on,74,85,0
1,note_on,76,0,120
1,note_on,83,80,0
1,note_on,83,0,120
1,note_on,74,0,0
1,note_on,79,85,240
1,note_on,76,85,0
1,note_on,79,0,120
1,note_on,85,80,0
1,note_on,85,0,120
1,note_on,76,0,0
1,note_on,76,89,0
1,note_on,74,89,0
1,note_on,74,0,240
1,note_on,76,0,0
1,note_on,82,73,0
1,note_on,80,73,0
1,note_on,80,0,60
1,note_on,82,0,0
1,note_on,82,73,60
1,note_on,80,73,0
1,note_on,80,0,60
1,note_on,82,0,0
1,note_on,79,85,300
1,note_on,76,85,0
1,note_on,79,0,120
1,note_on,85,80,0
1,note_on,85,0,120
1,note_on,76,0,0
1,note_on,79,85,240
1,note_on,76,85,0
1,note_on,79,0,120
1,note_on,85,80,0
1,note_on,85,0,120
1,note_on,76,0,0
1,note_on,79,85,240
1,note_on,76,85,0
1,note_on,79,0,120
1,note_on,85,80,0
1,note_on,85,0,120
1,note_on,76,0,0
1,note_on,81,85,240
1,note_on,79,85,0
1,note_on,81,0,120
1,note_on,88,76,0
1,note_on,88,0,120
1,note_on,79,0,0
1,note_on,81,89,0
1,note_on,79,89,0
1,note_on,81,0,120
1,note_on,88,81,0
1,note_on,88,0,120
1,note_on,79,0,0
1,note_on,81,93,0
1,note_on,79,93,0
1,note_on,81,0,120
1,note_on,88,80,0
1,note_on,88,0,120
1,note_on,79,0,0
1,note_on,74,94,0
1,note_on,74,0,60
1,note_on,74,86,60
1,note_on,74,0,60
1,note_on,74,94,60
1,note_on,74,0,60
1,note_on,74,85,60
1,note_on,74,0,60
1,note_on,74,94,60
1,note_on,74,0,60
1,note_on,75,88,60
1,note_on,75,0,60
1,note_on,74,94,60
1,note_on,74,0,60
1,note_on,77,88,60
1,note_on,77,0,60
1,note_on,74,94,60
1,note_on,74,0,60
1,note_on,74,86,60
1,note_on,74,0,60
1,note_on,74,94,60
1,note_on,74,0,60
1,note_on,74,86,60
1,note_on,74,0,60
1,note_on,74,94,60
1,note_on,74,0,60
1,note_on,76,86,60
1,note_on,76,0,60
1,note_on,74,94,60
1,note_on,74,0,60
1,note_on,81,85,60
1,note_on,81,0,60
1,note_on,74,92,60
1,note_on,74,0,60
1,note_on,74,87,60
1,note_on,74,0,60
1,note_on,74,86,60
1,note_on,74,0,60
1,note_on,74,86,60
1,note_on,74,0,60
1,note_on,74,92,60
1,note_on,74,0,90
1,note_on,74,92,30
1,note_on,74,0,90
1,note_on,74,91,30
1,note_on,74,0,90
1,note_on,74,91,30
1,note_on,74,0,90
1,note_on,74,90,30
1,note_on,74,0,90
1,note_on,74,90,30
1,note_on,74,0,90
1,note_on,74,89,30
1,note_on,74,0,90
1,note_on,74,88,30
1,note_on,74,0,90
1,note_on,74,88,30
1,note_on,74,0,90
1,note_on,74,87,30
1,note_on,74,0,90
1,note_on,74,87,30
1,note_on,74,0,90
1,note_on,74,86,30
1,note_on,74,0,90
1,note_on,70,85,30
1,note_on,70,0,60
1,note_on,69,74,60
1,note_on,69,0,60
1,note_on,72,76,60
1,note_on,72,0,60
1,note_on,70,70,60
1,note_on,70,0,60
1,note_on,75,80,60
1,note_on,75,0,60
1,note_on,74,74,60
1,note_on,74,0,60
1,note_on,77,76,60
1,note_on,77,0,60
1,note_on,75,72,60
1,note_on,75,0,60
1,note_on,78,78,60
1,note_on,78,0,60
1,note_on,79,75,60
1,note_on,79,0,60
1,note_on,84,93,60
1,note_on,84,0,120
1,note_on,82,77,0
1,note_on,82,0,120
1,note_on,80,81,0
1,note_on,80,0,120
1,note_on,79,74,0
1,note_on,79,0,120
1,note_on,77,78,0
1,note_on,77,0,120
1,note_on,75,73,0
1,note_on,75,0,120
1,note_on,83,73,0
1,note_on,83,0,60
1,note_on,77,69,60
1,note_on,77,0,60
1,note_on,82,99,60
1,note_on,82,0,120
1,note_on,80,78,0
1,note_on,80,0,120
1,note_on,83,74,0
1,note_on,83,0,60
1,note_on,77,69,60
1,note_on,77,0,60
1,note_on,82,99,60
1,note_on,82,0,120
1,note_on,80,76,0
1,note_on,80,0,120
1,note_on,83,98,0
1,note_on,83,0,60
1,note_on,77,73,60
1,note_on,77,0,60
1,note_on,82,89,60
1,note_on,82,0,60
1,note_on,77,71,60
1,note_on,77,0,60
1,note_on,81,83,60
1,note_on,81,0,60
1,note_on,74,69,60
1,note_on,74,0,60
1,note_on,80,82,60
1,note_on,80,0,60
1,note_on,74,68,60
1,note_on,74,0,60
1,note_on,70,81,60
1,note_on,70,0,60
1,note_on,69,74,60
1,note_on,69,0,60
1,note_on,72,76,60
1,note_on,72,0,60
1,note_on,70,70,60
1,note_on,70,0,60
1,note_on,75,80,60
1,note_on,75,0,60
1,note_on,74,74,60
1,note_on,74,0,60
1,note_on,77,76,60
1,note_on,77,0,60
1,note_on,75,72,60
1,note_on,75,0,60
1,note_on,78,78,60
1,note_on,78,0,60
1,note_on,79,75,60
1,note_on,79,0,60
1,note_on,84,94,60
1,note_on,84,0,120
1,note_on,82,77,0
1,note_on,82,0,120
1,note_on,80,81,0
1,note_on,80,0,120
1,note_on,79,74,0
1,note_on,79,0,120
1,note_on,77,78,0
1,note_on,77,0,120
1,note_on,75,73,0
1,note_on,75,0,120
1,note_on,90,87,0
1,note_on,90,0,60
1,note_on,87,69,60
1,note_on,87,0,60
1,note_on,85,73,60
1,note_on,85,0,60
1,note_on,83,69,60
1,note_on,83,0,60
1,note_on,82,96,60
1,note_on,82,0,120
1,note_on,85,70,0
1,note_on,85,0,120
1,note_on,83,81,0
1,note_on,83,0,120
1,note_on,80,74,0
1,note_on,80,0,120
1,note_on,78,77,0
1,note_on,78,0,60
1,note_on,75,71,60
1,note_on,75,0,60
1,note_on,73,95,60
1,note_on,73,0,60
1,note_on,71,76,60
1,note_on,71,0,60
1,note_on,70,98,60
1,note_on,70,0,120
1,note_on,73,71,0
1,note_on,73,0,120
1,note_on,71,74,0
1,note_on,71,0,120
1,note_on,68,68,0
1,note_on,68,0,120
1,note_on,65,62,0
1,note_on,68,62,0
1,note_on,70,62,0
1,note_on,68,0,90
1,note_on,65,0,0
1,note_on,65,66,30
1,note_on,68,66,0
1,note_on,68,0,90
1,note_on,65,0,0
1,note_on,65,69,30
1,note_on,68,69,0
1,note_on,68,0,90
1,note_on,65,0,0
1,note_on,65,73,30
1,note_on,68,73,0
1,note_on,68,0,90
1,note_on,65,0,0
1,note_on,70,0,30
1,note_on,69,88,0
1,note_on,78,68,120
1,note_on,78,0,120
1,note_on,77,68,0
1,note_on,77,0,120
1,note_on,75,68,0
1,note_on,75,0,120
1,note_on,69,0,0
1,note_on,65,62,0
1,note_on,68,62,0
1,note_on,70,62,0
1,note_on,68,0,90
1,note_on,65,0,0
1,note_on,65,65,30
1,note_on,68,65,0
1,note_on,68,0,90
1,note_on,65,0,0
1,note_on,65,68,30
1,note_on,68,68,0
1,note_on,68,0,90
1,note_on,65,0,0
1,note_on,65,63,30
1,note_on,68,63,0
1,note_on,68,0,90
1,note_on,65,0,0
1,note_on,70,0,30
1,note_on,69,88,0
1,note_on,78,70,120
1,note_on,78,0,120
1,note_on,77,68,0
1,note_on,77,0,120
1,note_on,75,68,0
1,note_on,75,0,120
1,note_on,69,0,0
1,note_on,68,65,0
1,note_on,71,65,0
1,note_on,73,65,0
1,note_on,71,0,90
1,note_on,68,0,0
1,note_on,68,68,30
1,note_on,71,68,0
1,note_on,71,0,90
1,note_on,68,0,0
1,note_on,68,70,30
1,note_on,71,70,0
1,note_on,71,0,90
1,note_on,68,0,0
1,note_on,68,73,30
1,note_on,71,73,0
1,note_on,71,0,90
1,note_on,68,0,0
1,note_on,73,0,30
1,note_on,72,85,0
1,note_on,81,71,120
1,note_on,81,0,120
1,note_on,80,79,0
1,note_on,80,0,120
1,note_on,78,71,0
1,note_on,78,0,120
1,note_on,72,0,0
1,note_on,70,66,0
1,note_on,74,66,0
1,note_on,75,66,0
1,note_on,74,0,90
1,note_on,70,0,0
1,note_on,70,68,30
1,note_on,74,68,0
1,note_on,74,0,90
1,note_on,70,0,0
1,note_on,70,70,30
1,note_on,74,70,0
1,note_on,74,0,90
1,note_on,70,0,0
1,note_on,70,72,30
1,note_on,74,72,0
1,note_on,74,0,90
1,note_on,70,0,0
1,note_on,75,0,30
1,note_on,74,88,0
1,note_on,83,72,120
1,note_on,83,0,120
1,note_on,82,85,0
1,note_on,82,0,120
1,note_on,80,72,0
1,note_on,80,0,120
1,note_on,74,0,0
1,note_on,68,76,240
1,note_on,71,83,0
1,note_on,77,77,120
1,note_on,77,0,120
1,note_on,71,0,0
1,note_on,68,0,0
1,note_on,68,76,240
1,note_on,71,83,0
1,note_on,77,77,120
1,note_on,77,0,120
1,note_on,71,0,0
1,note_on,68,0,0
1,note_on,76,89,0
1,note_on,74,89,0
1,note_on,74,0,240
1,note_on,76,0,0
1,note_on,82,70,0
1,note_on,80,70,0
1,note_on,80,0,60
1,note_on,82,0,0
1,note_on,82,70,60
1,note_on,80,70,0
1,note_on,80,0,60
1,note_on,82,0,0
1,note_on,76,89,60
1,note_on,74,89,0
1,note_on,74,0,240
1,note_on,76,0,0
1,note_on,82,68,0
1,note_on,80,68,0
1,note_on,80,0,60
1,note_on,82,0,0
1,note_on,82,68,60
1,note_on,80,68,0
1,note_on,80,0,60
1,note_on,82,0,0
1,note_on,70,85,60
1,note_on,70,0,120
1,note_on,69,74,0
1,note_on,69,0,120
1,note_on,72,76,0
1,note_on,72,0,120
1,note_on,70,70,0
1,note_on,70,0,120
1,note_on,75,80,0
1,note_on,75,0,120
1,note_on,74,74,0
1,note_on,74,0,120
1,note_on,77,76,0
1,note_on,77,0,120
1,note_on,75,72,0
1,note_on,75,0,120
1,note_on,76,89,0
1,note_on,74,89,0
1,note_on,74,0,240
1,note_on,76,0,0
1,note_on,82,68,0
1,note_on,80,68,0
1,note_on,80,0,60
1,note_on,82,0,0
1,note_on,82,68,60
1,note_on,80,68,0
1,note_on,80,0,60
1,note_on,82,0,0
1,note_on,71,74,300
1,note_on,68,74,0
1,note_on,71,0,120
1,note_on,77,77,0
1,note_on,77,0,120
1,note_on,68,0,0
1,note_on,78,78,0
1,note_on,78,0,60
1,note_on,79,75,60
1,note_on,79,0,60
1,note_on,84,86,60
1,note_on,84,0,120
1,note_on,82,77,0
1,note_on,82,0,120
1,note_on,80,81,0
1,note_on,80,0,120
1,note_on,79,74,0
1,note_on,79,0,120
1,note_on,77,78,0
1,note_on,77,0,120
1,note_on,75,73,0
1,note_on,75,0,120
1,note_on,76,89,0
1,note_on,74,89,0
1,note_on,74,0,240
1,note_on,76,0,0
1,note_on,82,68,0
1,note_on,80,68,0
1,note_on,80,0,60
1,note_on,82,0,0
1,note_on,82,68,60
1,note_on,80,68,0
1,note_on,80,0,60
1,note_on,82,0,0
1,note_on,71,76,300
1,note_on,68,76,0
1,note_on,71,0,120
1,note_on,77,80,0
1,note_on,77,0,120
1,note_on,68,0,0
1,note_on,77,89,240
1,note_on,89,89,0
1,note_on,89,0,120
1,note_on,82,74,0
1,note_on,82,0,120
1,note_on,77,0,0
1,note_on,77,89,240
1,note_on,89,89,0
1,note_on,89,0,120
1,note_on,82,74,0
1,note_on,82,0,120
1,note_on,77,0,0
1,note_on,77,91,240
1,note_on,89,91,0
1,note_on,89,0,120
1,note_on,82,73,0
1,note_on,82,0,120
1,note_on,77,0,0
1,note_on,67,56,540
1,note_on,70,63,0
1,note_on,63,56,0
1,note_on,63,0,60
1,note_on,70,0,0
1,note_on,67,0,0
1,note_on,70,66,60
1,note_on,67,59,0
1,note_on,63,59,0
1,note_on,63,0,60
1,note_on,67,0,0
1,note_on,70,0,0
1,note_on,67,55,60
1,note_on,70,62,0
1,note_on,70,0,60
1,note_on,67,0,0
1,note_on,72,70,60
1,note_on,70,63,0
1,note_on,67,63,0
1,note_on,67,0,60
1,note_on,70,0,0
1,note_on,72,0,0
1,note_on,67,56,60
1,note_on,70,56,0
1,note_on,75,63,0
1,note_on,75,0,60
1,note_on,70,0,0
1,note_on,67,0,0
1,note_on,75,61,60
1,note_on,70,54,0
1,note_on,67,54,0
1,note_on,67,0,60
1,note_on,70,0,0
1,note_on,75,0,0
1,note_on,75,67,60
1,note_on,70,60,0
1,note_on,74,60,0
1,note_on,74,0,60
1,note_on,70,0,0
1,note_on,75,0,0
1,note_on,75,68,60
1,note_on,70,61,0
1,note_on,74,68,0
1,note_on,74,0,60
1,note_on,70,0,0
1,note_on,75,0,0
1,note_on,75,63,60
1,note_on,84,70,0
1,note_on,80,63,0
1,note_on,80,0,60
1,note_on,84,0,0
1,note_on,75,0,0
1,note_on,80,64,60
1,note_on,77,57,0
1,note_on,75,57,0
1,note_on,75,0,60
1,note_on,77,0,0
1,note_on,80,0,0
1,note_on,77,64,60
1,note_on,75,57,0
1,note_on,72,57,0
1,note_on,72,0,60
1,note_on,75,0,0
1,note_on,77,0,0
1,note_on,68,61,60
1,note_on,72,61,0
1,note_on,75,68,0
1,note_on,75,0,60
1,note_on,72,0,0
1,note_on,68,0,0
1,note_on,72,70,60
1,note_on,70,63,0
1,note_on,67,63,0
1,note_on,67,0,60
1,note_on,70,0,0
1,note_on,72,0,0
1,note_on,74,64,60
1,note_on,70,57,0
1,note_on,67,57,0
1,note_on,67,0,60
1,note_on,70,0,0
1,note_on,74,0,0
1,note_on,75,68,60
1,note_on,70,61,0
1,note_on,67,61,0
1,note_on,67,0,60
1,note_on,70,0,0
1,note_on,75,0,0
1,note_on,79,69,60
1,note_on,70,62,0
1,note_on,67,62,0
1,note_on,67,0,60
1,note_on,70,0,0
1,note_on,79,0,0
1,note_on,70,63,60
1,note_on,67,56,0
1,note_on,63,56,0
1,note_on,63,0,60
1,note_on,67,0,0
1,note_on,70,0,0
1,note_on,67,55,60
1,note_on,70,62,0
1,note_on,63,55,0
1,note_on,63,0,60
1,note_on,70,0,0
1,note_on,67,0,0
1,note_on,67,61,60
1,note_on,70,68,0
1,note_on,70,0,60
1,note_on,67,0,0
1,note_on,72,66,60
1,note_on,70,59,0
1,note_on,67,59,0
1,note_on,67,0,60
1,note_on,70,0,0
1,note_on,72,0,0
1,note_on,67,56,60
1,note_on,70,56,0
1,note_on,75,63,0
1,note_on,75,0,60
1,note_on,70,0,0
1,note_on,67,0,0
1,note_on,75,62,60
1,note_on,70,55,0
1,note_on,67,55,0
1,note_on,67,0,60
1,note_on,70,0,0
1,note_on,75,0,0
1,note_on,70,60,60
1,note_on,74,60,0
1,note_on,75,67,0
1,note_on,75,0,60
1,note_on,74,0,0
1,note_on,70,0,0
1,note_on,75,64,60
1,note_on,70,57,0
1,note_on,74,57,0
1,note_on,74,0,60
1,note_on,70,0,0
1,note_on,75,0,0
1,note_on,75,57,60
1,note_on,84,64,0
1,note_on,80,57,0
1,note_on,80,0,60
1,note_on,84,0,0
1,note_on,75,0,0
1,note_on,75,63,60
1,note_on,80,71,0
1,note_on,77,63,0
1,note_on,77,0,60
1,note_on,80,0,0
1,note_on,75,0,0
1,note_on,77,70,60
1,note_on,75,63,0
1,note_on,72,63,0
1,note_on,72,0,60
1,note_on,75,0,0
1,note_on,77,0,0
1,note_on,68,62,60
1,note_on,72,62,0
1,note_on,75,69,0
1,note_on,75,0,60
1,note_on,72,0,0
1,note_on,68,0,0
1,note_on,72,68,60
1,note_on,70,61,0
1,note_on,67,61,0
1,note_on,67,0,60
1,note_on,70,0,0
1,note_on,72,0,0
1,note_on,74,67,60
1,note_on,70,60,0
1,note_on,67,60,0
1,note_on,67,0,60
1,note_on,70,0,0
1,note_on,74,0,0
1,note_on,75,66,60
1,note_on,70,59,0
1,note_on,67,59,0
1,note_on,67,0,60
1,note_on,70,0,0
1,note_on,75,0,0
1,note_on,79,69,60
1,note_on,70,62,0
1,note_on,67,62,0
1,note_on,67,0,60
1,note_on,70,0,0
1,note_on,79,0,0
1,note_on,70,59,60
1,note_on,79,66,0
1,note_on,75,59,0
1,note_on,75,0,60
1,note_on,79,0,0
1,note_on,70,0,0
1,note_on,66,55,60
1,note_on,70,55,0
1,note_on,74,62,0
1,note_on,74,0,60
1,note_on,70,0,0
1,note_on,66,0,0
1,note_on,70,56,60
1,note_on,67,56,0
1,note_on,75,63,0
1,note_on,75,0,60
1,note_on,67,0,0
1,note_on,70,0,0
1,note_on,63,54,60
1,note_on,67,54,0
1,note_on,71,60,0
1,note_on,71,0,60
1,note_on,67,0,0
1,note_on,63,0,0
1,note_on,63,56,60
1,note_on,67,56,0
1,note_on,72,63,0
1,note_on,72,0,60
1,note_on,67,0,0
1,note_on,63,0,0
1,note_on,73,61,60
1,note_on,67,54,0
1,note_on,63,54,0
1,note_on,63,0,60
1,note_on,67,0,0
1,note_on,73,0,0
1,note_on,74,63,60
1,note_on,70,56,0
1,note_on,67,56,0
1,note_on,67,0,60
1,note_on,70,0,0
1,note_on,74,0,0
1,note_on,77,63,60
1,note_on,74,56,0
1,note_on,68,56,0
1,note_on,68,0,60
1,note_on,74,0,0
1,note_on,77,0,0
1,note_on,75,56,60
1,note_on,79,63,0
1,note_on,70,56,0
1,note_on,70,0,60
1,note_on,79,0,0
1,note_on,75,0,0
1,note_on,70,53,60
1,note_on,66,53,0
1,note_on,74,59,0
1,note_on,74,0,60
1,note_on,66,0,0
1,note_on,70,0,0
1,note_on,75,63,60
1,note_on,67,56,0
1,note_on,70,56,0
1,note_on,70,0,60
1,note_on,67,0,0
1,note_on,75,0,0
1,note_on,63,52,60
1,note_on,67,52,0
1,note_on,71,58,0
1,note_on,71,0,60
1,note_on,67,0,0
1,note_on,63,0,0
1,note_on,63,56,60
1,note_on,67,56,0
1,note_on,72,63,0
1,note_on,72,0,60
1,note_on,67,0,0
1,note_on,63,0,0
1,note_on,63,54,60
1,note_on,67,54,0
1,note_on,73,61,0
1,note_on,73,0,60
1,note_on,67,0,0
1,note_on,63,0,0
1,note_on,67,56,60
1,note_on,70,56,0
1,note_on,74,63,0
1,note_on,74,0,60
1,note_on,70,0,0
1,note_on,67,0,0
1,note_on,68,52,60
1,note_on,74,52,0
1,note_on,77,58,0
1,note_on,77,0,60
1,note_on,74,0,0
1,note_on,68,0,0
1,note_on,67,62,60
1,note_on,67,0,60
1,note_on,67,56,60
1,note_on,72,63,0
1,note_on,72,0,60
1,note_on,67,0,0
1,note_on,69,64,60
1,note_on,69,0,60
1,note_on,69,59,60
1,note_on,74,66,0
1,note_on,74,0,60
1,note_on,69,0,0
1,note_on,70,68,60
1,note_on,70,0,60
1,note_on,72,62,60
1,note_on,77,69,0
1,note_on,77,0,60
1,note_on,72,0,0
1,note_on,73,70,60
1,note_on,73,0,60
1,note_on,79,71,60
1,note_on,74,63,0
1,note_on,74,0,60
1,note_on,79,0,0
1,note_on,75,72,60
1,note_on,75,0,60
1,note_on,80,74,60
1,note_on,76,66,0
1,note_on,76,0,60
1,note_on,80,0,0
1,note_on,78,75,60
1,note_on,78,0,60
1,note_on,84,77,60
1,note_on,79,69,0
1,note_on,79,0,60
1,note_on,84,0,0
1,note_on,80,78,60
1,note_on,80,0,60
1,note_on,86,79,60
1,note_on,80,71,0
1,note_on,80,0,60
1,note_on,86,0,0
1,note_on,86,81,60
1,note_on,82,72,0
1,note_on,82,0,60
1,note_on,86,0,0
1,note_on,91,82,60
1,note_on,82,73,0
1,note_on,82,0,60
1,note_on,91,0,0
1,note_on,59,105,0
1,note_on,59,0,1440
1,note_on,55,42,0
1,note_on,55,0,1440
1,note_on,67,91,0
1,note_on,67,0,1440
1,note_on,66,109,0
1,note_on,59,85,0
1,note_on,55,85,0
1,note_on,55,0,2880
1,note_on,59,0,0
1,note_on,66,0,0
1,note_on,58,83,0
1,note_on,66,106,0
1,note_on,55,83,0
1,note_on,58,0,1440
1,note_on,59,50,0
1,note_on,59,0,1440
1,note_on,55,0,0
1,note_on,66,0,0
1,note_on,61,87,0
1,note_on,66,105,0
1,note_on,55,87,0
1,note_on,55,0,1440
1,note_on,66,0,0
1,note_on,61,0,0
1,note_on,62,64,0
1,note_on,66,72,0
1,note_on,54,64,0
1,note_on,62,0,1440
1,note_on,59,45,0
1,note_on,59,0,1440
1,note_on,54,0,0
1,note_on,66,0,0
1,note_on,66,40,0
1,note_on,61,36,0
1,note_on,54,36,0
1,note_on,54,0,960
1,note_on,61,0,0
1,note_on,66,0,0
1,note_on,47,86,480
1,note_on,55,96,0
1,note_on,59,104,0
1,note_on,59,0,1440
1,note_on,55,0,0
1,note_on,47,0,0
1,note_on,46,80,0
1,note_on,58,97,0
1,note_on,55,89,0
1,note_on,55,0,1440
1,note_on,58,0,0
1,note_on,46,0,0
1,note_on,58,82,0
1,note_on,70,98,0
1,note_on,67,95,0
1,note_on,67,0,1440
1,note_on,70,0,0
1,note_on,58,0,0
1,note_on,62,60,0
1,note_on,64,60,0
1,note_on,57,54,0
1,note_on,52,54,0
1,note_on,62,0,1440
1,note_on,61,50,0
1,note_on,61,0,1440
1,note_on,52,0,0
1,note_on,57,0,0
1,note_on,64,0,0
1,note_on,65,63,0
1,note_on,61,63,0
1,note_on,69,63,0
1,note_on,57,56,0
1,note_on,61,0,1440
1,note_on,62,58,0
1,note_on,62,0,960
1,note_on,69,0,0
1,note_on,69,54,0
1,note_on,69,0,480
1,note_on,65,0,0
1,note_on,57,0,0
1,note_on,69,60,0
1,note_on,60,54,0
1,note_on,62,54,0
1,note_on,74,71,0
1,note_on,74,0,1440
1,note_on,73,66,0
1,note_on,73,0,960
1,note_on,74,62,0
1,note_on,74,0,480
1,note_on,69,0,0
1,note_on,60,0,0
1,note_on,62,0,0
1,note_on,62,56,0
1,note_on,67,63,0
1,note_on,72,63,0
1,note_on,72,0,1440
1,note_on,67,0,0
1,note_on,62,0,0
1,note_on,62,45,0
1,note_on,67,50,0
1,note_on,70,50,0
1,note_on,70,0,720
1,note_on,67,0,0
1,note_on,62,0,0
1,note_on,55,111,240
1,note_on,55,0,480
1,note_on,79,109,0
1,note_on,75,95,0
1,note_on,70,82,0
1,note_on,67,82,0
1,note_on,67,0,1440
1,note_on,79,0,0
1,note_on,75,0,0
1,note_on,70,0,0
1,note_on,55,55,0
1,note_on,60,55,0
1,note_on,64,61,0
1,note_on,67,61,0
1,note_on,67,0,1440
1,note_on,55,0,0
1,note_on,60,0,0
1,note_on,64,0,0
1,note_on,58,74,0
1,note_on,64,83,0
1,note_on,67,83,0
1,note_on,67,0,1440
1,note_on,64,0,0
1,note_on,58,0,0
1,note_on,59,67,0
1,note_on,62,75,0
1,note_on,66,75,0
1,note_on,66,0,1440
1,note_on,62,0,0
1,note_on,59,0,0
1,note_on,55,53,0
1,note_on,61,60,0
1,note_on,64,60,0
1,note_on,64,0,1440
1,note_on,61,0,0
1,note_on,55,0,0
1,note_on,56,50,0
1,note_on,59,56,0
1,note_on,62,56,0
1,note_on,62,0,1440
1,note_on,59,0,0
1,note_on,56,0,0
1,note_on,53,82,0
1,note_on,56,82,0
1,note_on,62,100,0
1,note_on,59,92,0
1,note_on,59,0,2400
1,note_on,53,0,0
1,note_on,56,0,0
1,note_on,62,0,0
1,note_on,90,31,480
1,note_on,90,0,60
1,note_on,78,19,0
1,note_on,78,0,60
1,note_on,90,31,0
1,note_on,90,0,60
1,note_on,78,18,0
1,note_on,78,0,60
1,note_on,90,31,0
1,note_on,90,0,60
1,note_on,78,19,0
1,note_on,78,0,60
1,note_on,90,31,0
1,note_on,90,0,60
1,note_on,78,19,0
1,note_on,78,0,60
1,note_on,90,31,0
1,note_on,90,0,60
1,note_on,78,19,0
1,note_on,78,0,60
1,note_on,90,32,0
1,note_on,90,0,60
1,note_on,78,19,0
1,note_on,78,0,60
1,note_on,90,32,0
1,note_on,90,0,60
1,note_on,78,20,0
1,note_on,78,0,60
1,note_on,90,32,0
1,note_on,90,0,60
1,note_on,78,20,0
1,note_on,78,0,60
1,note_on,90,32,0
1,note_on,90,0,60
1,note_on,78,20,0
1,note_on,78,0,60
1,note_on,90,33,0
1,note_on,90,0,60
1,note_on,78,20,0
1,note_on,78,0,60
1,note_on,90,33,0
1,note_on,90,0,60
1,note_on,78,20,0
1,note_on,78,0,60
1,note_on,90,33,0
1,note_on,90,0,60
1,note_on,78,20,0
1,note_on,78,0,60
1,note_on,90,34,0
1,note_on,90,0,60
1,note_on,78,21,0
1,note_on,78,0,60
1,note_on,90,34,0
1,note_on,90,0,60
1,note_on,78,20,0
1,note_on,78,0,60
1,note_on,90,34,0
1,note_on,90,0,60
1,note_on,78,21,0
1,note_on,78,0,60
1,note_on,90,34,0
1,note_on,90,0,60
1,note_on,78,21,0
1,note_on,78,0,60
1,note_on,90,34,0
1,note_on,90,0,60
1,note_on,78,21,0
1,note_on,78,0,60
1,note_on,90,34,0
1,note_on,90,0,60
1,note_on,78,21,0
1,note_on,78,0,60
1,note_on,90,34,0
1,note_on,90,0,60
1,note_on,78,21,0
1,note_on,78,0,60
1,note_on,90,34,0
1,note_on,90,0,60
1,note_on,78,21,0
1,note_on,78,0,60
1,note_on,90,34,0
1,note_on,90,0,60
1,note_on,78,21,0
1,note_on,78,0,60
1,note_on,90,34,0
1,note_on,90,0,60
1,note_on,78,21,0
1,note_on,78,0,60
1,note_on,90,34,0
1,note_on,90,0,60
1,note_on,78,21,0
1,note_on,78,0,60
1,note_on,90,34,0
1,note_on,90,0,60
1,note_on,78,21,0
1,note_on,78,0,60
1,note_on,90,34,0
1,note_on,90,0,60
1,note_on,78,21,0
1,note_on,78,0,60
1,note_on,90,34,0
1,note_on,90,0,60
1,note_on,78,20,0
1,note_on,78,0,60
1,note_on,90,34,0
1,note_on,90,0,60
1,note_on,78,21,0
1,note_on,78,0,60
1,note_on,90,34,0
1,note_on,90,0,60
1,note_on,78,21,0
1,note_on,78,0,60
1,note_on,90,34,0
1,note_on,90,0,60
1,note_on,78,21,0
1,note_on,78,0,60
1,note_on,90,34,0
1,note_on,90,0,60
1,note_on,78,21,0
1,note_on,78,0,60
1,note_on,90,34,0
1,note_on,90,0,60
1,note_on,78,21,0
1,note_on,78,0,60
1,note_on,90,34,0
1,note_on,90,0,60
1,note_on,78,21,0
1,note_on,78,0,60
1,note_on,90,34,0
1,note_on,90,0,60
1,note_on,78,21,0
1,note_on,78,0,60
1,note_on,90,34,0
1,note_on,90,0,60
1,note_on,78,21,0
1,note_on,78,0,60
1,note_on,90,34,0
1,note_on,90,0,60
1,note_on,78,21,0
1,note_on,78,0,60
1,note_on,90,34,0
1,note_on,90,0,60
1,note_on,78,21,0
1,note_on,78,0,60
1,note_on,90,34,0
1,note_on,90,0,60
1,note_on,78,21,0
1,note_on,78,0,60
1,note_on,90,34,0
1,note_on,90,0,60
1,note_on,78,20,0
1,note_on,78,0,60
1,note_on,90,34,0
1,note_on,90,0,60
1,note_on,78,21,0
1,note_on,78,0,60
1,note_on,90,34,0
1,note_on,90,0,60
1,note_on,78,21,0
1,note_on,78,0,60
1,note_on,90,34,0
1,note_on,90,0,60
1,note_on,78,21,0
1,note_on,78,0,60
1,note_on,90,34,0
1,note_on,90,0,60
1,note_on,78,21,0
1,note_on,78,0,60
1,note_on,90,34,0
1,note_on,90,0,60
1,note_on,78,21,0
1,note_on,78,0,60
1,note_on,90,34,0
1,note_on,90,0,60
1,note_on,78,21,0
1,note_on,78,0,60
1,note_on,90,34,0
1,note_on,90,0,60
1,note_on,78,19,0
1,note_on,78,0,60
1,note_on,90,34,0
1,note_on,90,0,60
1,note_on,78,20,0
1,note_on,78,0,60
1,note_on,90,33,0
1,note_on,90,0,60
1,note_on,78,20,0
1,note_on,78,0,60
1,note_on,90,32,0
1,note_on,90,0,60
1,note_on,78,20,0
1,note_on,78,0,60
1,note_on,90,34,0
1,note_on,90,0,60
1,note_on,78,21,0
1,note_on,78,0,60
1,note_on,90,34,0
1,note_on,90,0,60
1,note_on,78,20,0
1,note_on,78,0,60
1,note_on,90,34,0
1,note_on,90,0,60
1,note_on,78,21,0
1,note_on,78,0,60
1,note_on,90,34,0
1,note_on,90,0,60
1,note_on,78,21,0
1,note_on,78,0,60
1,note_on,90,34,0
1,note_on,90,0,60
1,note_on,78,21,0
1,note_on,78,0,60
1,note_on,90,34,0
1,note_on,90,0,60
1,note_on,78,21,0
1,note_on,78,0,60
1,note_on,90,34,0
1,note_on,90,0,60
1,note_on,78,21,0
1,note_on,78,0,60
1,note_on,90,34,0
1,note_on,90,0,60
1,note_on,78,21,0
1,note_on,78,0,60
1,note_on,90,32,0
1,note_on,90,0,60
1,note_on,78,21,0
1,note_on,78,0,60
1,note_on,90,33,0
1,note_on,90,0,60
1,note_on,78,20,0
1,note_on,78,0,60
1,note_on,90,33,0
1,note_on,90,0,60
1,note_on,78,20,0
1,note_on,78,0,60
1,note_on,90,32,0
1,note_on,90,0,60
1,note_on,78,20,0
1,note_on,78,0,60
1,note_on,90,34,0
1,note_on,90,0,60
1,note_on,78,21,0
1,note_on,78,0,60
1,note_on,90,34,0
1,note_on,90,0,60
1,note_on,78,20,0
1,note_on,78,0,60
1,note_on,90,34,0
1,note_on,90,0,60
1,note_on,78,21,0
1,note_on,78,0,60
1,note_on,90,34,0
1,note_on,90,0,60
1,note_on,78,21,0
1,note_on,78,0,60
1,note_on,90,34,0
1,note_on,90,0,60
1,note_on,78,21,0
1,note_on,78,0,60
1,note_on,90,34,0
1,note_on,90,0,60
1,note_on,78,21,0
1,note_on,78,0,60
1,note_on,90,34,0
1,note_on,90,0,60
1,note_on,78,21,0
1,note_on,78,0,60
1,note_on,90,34,0
1,note_on,90,0,60
1,note_on,78,21,0
1,note_on,78,0,60
1,note_on,90,33,0
1,note_on,90,0,60
1,note_on,78,21,0
1,note_on,78,0,60
1,note_on,90,31,0
1,note_on,90,0,60
1,note_on,78,21,0
1,note_on,78,0,60
1,note_on,90,32,0
1,note_on,90,0,60
1,note_on,78,21,0
1,note_on,78,0,60
1,note_on,90,34,0
1,note_on,90,0,60
1,note_on,78,21,0
1,note_on,78,0,60
1,note_on,90,33,0
1,note_on,90,0,60
1,note_on,78,21,0
1,note_on,78,0,60
1,note_on,90,33,0
1,note_on,90,0,60
1,note_on,78,20,0
1,note_on,78,0,60
1,note_on,90,32,0
1,note_on,90,0,60
1,note_on,78,21,0
1,note_on,78,0,60
1,note_on,90,32,0
1,note_on,90,0,60
1,note_on,78,21,0
1,note_on,78,0,60
1,note_on,90,36,0
1,note_on,90,0,60
1,note_on,78,26,0
1,note_on,78,0,60
1,note_on,90,37,0
1,note_on,90,0,60
1,note_on,78,28,0
1,note_on,78,0,60
1,note_on,90,40,0
1,note_on,90,0,60
1,note_on,78,29,0
1,note_on,78,0,60
1,note_on,90,40,0
1,note_on,90,0,60
1,note_on,78,31,0
1,note_on,78,0,60
1,note_on,90,40,0
1,note_on,90,0,60
1,note_on,78,31,0
1,note_on,78,0,60
1,note_on,90,40,0
1,note_on,90,0,60
1,note_on,78,31,0
1,note_on,78,0,60
1,note_on,90,41,0
1,note_on,90,0,60
1,note_on,78,32,0
1,note_on,78,0,60
1,note_on,90,42,0
1,note_on,90,0,60
1,note_on,78,34,0
1,note_on,78,0,60
1,note_on,89,48,0
1,note_on,89,0,60
1,note_on,77,39,0
1,note_on,77,0,60
1,note_on,89,47,0
1,note_on,89,0,60
1,note_on,77,35,0
1,note_on,77,0,60
1,note_on,89,48,0
1,note_on,89,0,60
1,note_on,77,39,0
1,note_on,77,0,60
1,note_on,89,48,0
1,note_on,89,0,60
1,note_on,77,39,0
1,note_on,77,0,60
1,note_on,88,50,0
1,note_on,88,0,60
1,note_on,76,40,0
1,note_on,76,0,60
1,note_on,88,50,0
1,note_on,88,0,60
1,note_on,76,39,0
1,note_on,76,0,60
1,note_on,88,49,0
1,note_on,88,0,60
1,note_on,76,39,0
1,note_on,76,0,60
1,note_on,88,49,0
1,note_on,88,0,60
1,note_on,76,39,0
1,note_on,76,0,60
1,note_on,86,56,0
1,note_on,86,0,60
1,note_on,74,42,0
1,note_on,74,0,60
1,note_on,86,56,0
1,note_on,86,0,60
1,note_on,74,43,0
1,note_on,74,0,60
1,note_on,86,56,0
1,note_on,86,0,60
1,note_on,74,43,0
1,note_on,74,0,60
1,note_on,86,56,0
1,note_on,86,0,60
1,note_on,74,42,0
1,note_on,74,0,60
1,note_on,83,52,0
1,note_on,83,0,60
1,note_on,71,43,0
1,note_on,71,0,60
1,note_on,83,52,0
1,note_on,83,0,60
1,note_on,71,41,0
1,note_on,71,0,60
1,note_on,83,52,0
1,note_on,83,0,60
1,note_on,71,42,0
1,note_on,71,0,60
1,note_on,83,52,0
1,note_on,83,0,60
1,note_on,71,42,0
1,note_on,71,0,60
1,note_on,82,51,0
1,note_on,82,0,60
1,note_on,70,42,0
1,note_on,70,0,60
1,note_on,82,51,0
1,note_on,82,0,60
1,note_on,70,42,0
1,note_on,70,0,60
1,note_on,82,51,0
1,note_on,82,0,60
1,note_on,70,42,0
1,note_on,70,0,60
1,note_on,82,51,0
1,note_on,82,0,60
1,note_on,70,41,0
1,note_on,70,0,60
1,note_on,81,50,0
1,note_on,81,0,60
1,note_on,69,40,0
1,note_on,69,0,60
1,note_on,81,49,0
1,note_on,81,0,60
1,note_on,69,39,0
1,note_on,69,0,60
1,note_on,81,48,0
1,note_on,81,0,60
1,note_on,69,39,0
1,note_on,69,0,60
1,note_on,81,48,0
1,note_on,81,0,60
1,note_on,69,39,0
1,note_on,69,0,60
1,note_on,80,48,0
1,note_on,80,0,60
1,note_on,68,39,0
1,note_on,68,0,60
1,note_on,80,48,0
1,note_on,80,0,60
1,note_on,68,39,0
1,note_on,68,0,60
1,note_on,80,48,0
1,note_on,80,0,60
1,note_on,68,39,0
1,note_on,68,0,60
1,note_on,80,48,0
1,note_on,80,0,60
1,note_on,68,39,0
1,note_on,68,0,60
1,note_on,79,43,0
1,note_on,79,0,60
1,note_on,67,34,0
1,note_on,67,0,60
1,note_on,79,44,0
1,note_on,79,0,60
1,note_on,67,35,0
1,note_on,67,0,60
1,note_on,79,43,0
1,note_on,79,0,60
1,note_on,67,35,0
1,note_on,67,0,60
1,note_on,79,47,0
1,note_on,79,0,60
1,note_on,67,34,0
1,note_on,67,0,60
1,note_on,79,42,0
1,note_on,79,0,60
1,note_on,67,35,0
1,note_on,67,0,60
1,note_on,79,42,0
1,note_on,79,0,60
1,note_on,67,35,0
1,note_on,67,0,60
1,note_on,79,42,0
1,note_on,79,0,60
1,note_on,67,35,0
1,note_on,67,0,60
1,note_on,79,42,0
1,note_on,79,0,60
1,note_on,67,35,0
1,note_on,67,0,60
1,note_on,77,44,0
1,note_on,77,0,60
1,note_on,65,36,0
1,note_on,65,0,60
1,note_on,77,44,0
1,note_on,77,0,60
1,note_on,65,34,0
1,note_on,65,0,60
1,note_on,77,44,0
1,note_on,77,0,60
1,note_on,65,34,0
1,note_on,65,0,60
1,note_on,77,44,0
1,note_on,77,0,60
1,note_on,65,33,0
1,note_on,65,0,60
1,note_on,77,44,0
1,note_on,77,0,60
1,note_on,65,32,0
1,note_on,65,0,60
1,note_on,77,42,0
1,note_on,77,0,60
1,note_on,65,32,0
1,note_on,65,0,60
1,note_on,77,41,0
1,note_on,77,0,60
1,note_on,65,32,0
1,note_on,65,0,60
1,note_on,77,41,0
1,note_on,77,0,60
1,note_on,65,33,0
1,note_on,65,0,60
1,note_on,78,39,0
1,note_on,78,0,60
1,note_on,66,32,0
1,note_on,66,0,60
1,note_on,78,39,0
1,note_on,78,0,60
1,note_on,66,31,0
1,note_on,66,0,60
1,note_on,78,37,0
1,note_on,78,0,60
1,note_on,66,31,0
1,note_on,66,0,60
1,note_on,78,37,0
1,note_on,78,0,60
1,note_on,66,29,0
1,note_on,66,0,60
1,note_on,90,36,0
1,note_on,90,0,60
1,note_on,78,28,0
1,note_on,78,0,60
1,note_on,90,36,0
1,note_on,90,0,60
1,note_on,78,28,0
1,note_on,78,0,60
1,note_on,90,35,0
1,note_on,90,0,60
1,note_on,78,27,0
1,note_on,78,0,60
1,note_on,90,35,0
1,note_on,90,0,60
1,note_on,78,26,0
1,note_on,78,0,60
1,note_on,90,36,0
1,note_on,90,0,60
1,note_on,78,28,0
1,note_on,78,0,60
1,note_on,90,39,0
1,note_on,90,0,60
1,note_on,78,28,0
1,note_on,78,0,60
1,note_on,90,37,0
1,note_on,90,0,60
1,note_on,78,29,0
1,note_on,78,0,60
1,note_on,90,37,0
1,note_on,90,0,60
1,note_on,78,34,0
1,note_on,78,0,60
1,note_on,89,42,0
1,note_on,89,0,60
1,note_on,77,35,0
1,note_on,77,0,60
1,note_on,89,42,0
1,note_on,89,0,60
1,note_on,77,35,0
1,note_on,77,0,60
1,note_on,89,42,0
1,note_on,89,0,60
1,note_on,77,35,0
1,note_on,77,0,60
1,note_on,89,42,0
1,note_on,89,0,60
1,note_on,77,35,0
1,note_on,77,0,60
1,note_on,88,46,0
1,note_on,88,0,60
1,note_on,76,37,0
1,note_on,76,0,60
1,note_on,88,46,0
1,note_on,88,0,60
1,note_on,76,39,0
1,note_on,76,0,60
1,note_on,88,46,0
1,note_on,88,0,60
1,note_on,76,40,0
1,note_on,76,0,60
1,note_on,88,46,0
1,note_on,88,0,60
1,note_on,76,40,0
1,note_on,76,0,60
1,note_on,85,51,0
1,note_on,85,0,60
1,note_on,73,40,0
1,note_on,73,0,60
1,note_on,85,50,0
1,note_on,85,0,60
1,note_on,73,39,0
1,note_on,73,0,60
1,note_on,85,50,0
1,note_on,85,0,60
1,note_on,73,40,0
1,note_on,73,0,60
1,note_on,85,48,0
1,note_on,85,0,60
1,note_on,73,40,0
1,note_on,73,0,60
1,note_on,83,46,0
1,note_on,83,0,60
1,note_on,71,37,0
1,note_on,71,0,60
1,note_on,83,46,0
1,note_on,83,0,60
1,note_on,71,39,0
1,note_on,71,0,60
1,note_on,83,46,0
1,note_on,83,0,60
1,note_on,71,40,0
1,note_on,71,0,60
1,note_on,83,46,0
1,note_on,83,0,60
1,note_on,71,40,0
1,note_on,71,0,60
1,note_on,81,43,0
1,note_on,81,0,60
1,note_on,69,35,0
1,note_on,69,0,60
1,note_on,81,42,0
1,note_on,81,0,60
1,note_on,69,35,0
1,note_on,69,0,60
1,note_on,81,42,0
1,note_on,81,0,60
1,note_on,69,34,0
1,note_on,69,0,60
1,note_on,81,42,0
1,note_on,81,0,60
1,note_on,69,34,0
1,note_on,69,0,60
1,note_on,86,54,0
1,note_on,86,0,60
1,note_on,74,44,0
1,note_on,74,0,60
1,note_on,86,54,0
1,note_on,86,0,60
1,note_on,74,46,0
1,note_on,74,0,60
1,note_on,86,54,0
1,note_on,86,0,60
1,note_on,74,46,0
1,note_on,74,0,60
1,note_on,86,54,0
1,note_on,86,0,60
1,note_on,74,46,0
1,note_on,74,0,60
1,note_on,86,56,0
1,note_on,86,0,60
1,note_on,74,49,0
1,note_on,74,0,60
1,note_on,86,55,0
1,note_on,86,0,60
1,note_on,74,51,0
1,note_on,74,0,60
1,note_on,86,56,0
1,note_on,86,0,60
1,note_on,74,49,0
1,note_on,74,0,60
1,note_on,86,56,0
1,note_on,86,0,60
1,note_on,74,44,0
1,note_on,74,0,60
1,note_on,85,50,0
1,note_on,85,0,60
1,note_on,73,39,0
1,note_on,73,0,60
1,note_on,85,50,0
1,note_on,85,0,60
1,note_on,73,37,0
1,note_on,73,0,60
1,note_on,85,49,0
1,note_on,85,0,60
1,note_on,73,37,0
1,note_on,73,0,60
1,note_on,85,49,0
1,note_on,85,0,60
1,note_on,73,39,0
1,note_on,73,0,60
1,note_on,90,42,0
1,note_on,90,0,60
1,note_on,78,34,0
1,note_on,78,0,60
1,note_on,90,42,0
1,note_on,90,0,60
1,note_on,78,34,0
1,note_on,78,0,60
1,note_on,90,42,0
1,note_on,90,0,60
1,note_on,78,34,0
1,note_on,78,0,60
1,note_on,90,42,0
1,note_on,90,0,60
1,note_on,78,34,0
1,note_on,78,0,60
1,note_on,93,49,0
1,note_on,93,0,60
1,note_on,81,37,0
1,note_on,81,0,60
1,note_on,93,49,0
1,note_on,93,0,60
1,note_on,81,39,0
1,note_on,81,0,60
1,note_on,93,49,0
1,note_on,93,0,60
1,note_on,81,39,0
1,note_on,81,0,60
1,note_on,93,49,0
1,note_on,93,0,60
1,note_on,81,39,0
1,note_on,81,0,60
1,note_on,90,49,0
1,note_on,90,0,60
1,note_on,78,37,0
1,note_on,78,0,60
1,note_on,90,42,0
1,note_on,90,0,60
1,note_on,78,35,0
1,note_on,78,0,60
1,note_on,90,41,0
1,note_on,90,0,60
1,note_on,78,34,0
1,note_on,78,0,60
1,note_on,90,41,0
1,note_on,90,0,60
1,note_on,78,34,0
1,note_on,78,0,60
1,note_on,90,40,0
1,note_on,90,0,60
1,note_on,78,33,0
1,note_on,78,0,60
1,note_on,90,40,0
1,note_on,90,0,60
1,note_on,78,33,0
1,note_on,78,0,60
1,note_on,90,39,0
1,note_on,90,0,60
1,note_on,78,32,0
1,note_on,78,0,60
1,note_on,90,37,0
1,note_on,90,0,60
1,note_on,78,31,0
1,note_on,78,0,60
1,note_on,90,37,0
1,note_on,90,0,60
1,note_on,78,29,0
1,note_on,78,0,60
1,note_on,90,36,0
1,note_on,90,0,60
1,note_on,78,29,0
1,note_on,78,0,60
1,note_on,90,36,0
1,note_on,90,0,60
1,note_on,78,31,0
1,note_on,78,0,60
1,note_on,90,35,0
1,note_on,90,0,60
1,note_on,78,28,0
1,note_on,78,0,60
1,note_on,90,34,0
1,note_on,90,0,60
1,note_on,78,27,0
1,note_on,78,0,60
1,note_on,90,34,0
1,note_on,90,0,60
1,note_on,78,26,0
1,note_on,78,0,60
1,note_on,90,34,0
1,note_on,90,0,60
1,note_on,78,27,0
1,note_on,78,0,60
1,note_on,90,34,0
1,note_on,90,0,60
1,note_on,78,26,0
1,note_on,78,0,60
1,note_on,88,52,0
1,note_on,88,0,60
1,note_on,76,42,0
1,note_on,76,0,60
1,note_on,88,52,0
1,note_on,88,0,60
1,note_on,76,42,0
1,note_on,76,0,60
1,note_on,88,52,0
1,note_on,88,0,60
1,note_on,76,44,0
1,note_on,76,0,60
1,note_on,88,52,0
1,note_on,88,0,60
1,note_on,76,44,0
1,note_on,76,0,60
1,note_on,88,52,0
1,note_on,88,0,60
1,note_on,76,44,0
1,note_on,76,0,60
1,note_on,88,52,0
1,note_on,88,0,60
1,note_on,76,42,0
1,note_on,76,0,60
1,note_on,88,52,0
1,note_on,88,0,60
1,note_on,76,43,0
1,note_on,76,0,60
1,note_on,88,52,0
1,note_on,88,0,60
1,note_on,76,43,0
1,note_on,76,0,60
1,note_on,85,50,0
1,note_on,85,0,60
1,note_on,73,41,0
1,note_on,73,0,60
1,note_on,85,50,0
1,note_on,85,0,60
1,note_on,73,42,0
1,note_on,73,0,60
1,note_on,85,50,0
1,note_on,85,0,60
1,note_on,73,42,0
1,note_on,73,0,60
1,note_on,85,50,0
1,note_on,85,0,60
1,note_on,73,42,0
1,note_on,73,0,60
1,note_on,88,52,0
1,note_on,88,0,60
1,note_on,76,44,0
1,note_on,76,0,60
1,note_on,88,52,0
1,note_on,88,0,60
1,note_on,76,44,0
1,note_on,76,0,60
1,note_on,88,52,0
1,note_on,88,0,60
1,note_on,76,44,0
1,note_on,76,0,60
1,note_on,88,52,0
1,note_on,88,0,60
1,note_on,76,43,0
1,note_on,76,0,60
1,note_on,88,58,0
1,note_on,88,0,60
1,note_on,76,50,0
1,note_on,76,0,60
1,note_on,88,58,0
1,note_on,88,0,60
1,note_on,76,50,0
1,note_on,76,0,60
1,note_on,88,58,0
1,note_on,88,0,60
1,note_on,76,50,0
1,note_on,76,0,60
1,note_on,88,58,0
1,note_on,88,0,60
1,note_on,76,51,0
1,note_on,76,0,60
1,note_on,85,55,0
1,note_on,85,0,60
1,note_on,73,46,0
1,note_on,73,0,60
1,note_on,85,55,0
1,note_on,85,0,60
1,note_on,73,48,0
1,note_on,73,0,60
1,note_on,85,55,0
1,note_on,85,0,60
1,note_on,73,47,0
1,note_on,73,0,60
1,note_on,85,55,0
1,note_on,85,0,60
1,note_on,73,48,0
1,note_on,73,0,60
1,note_on,84,56,0
1,note_on,84,0,60
1,note_on,72,48,0
1,note_on,72,0,60
1,note_on,84,56,0
1,note_on,84,0,60
1,note_on,72,47,0
1,note_on,72,0,60
1,note_on,84,56,0
1,note_on,84,0,60
1,note_on,72,46,0
1,note_on,72,0,60
1,note_on,84,56,0
1,note_on,84,0,60
1,note_on,72,48,0
1,note_on,72,0,60
1,note_on,83,55,0
1,note_on,83,0,60
1,note_on,71,48,0
1,note_on,71,0,60
1,note_on,83,55,0
1,note_on,83,0,60
1,note_on,71,48,0
1,note_on,71,0,60
1,note_on,83,55,0
1,note_on,83,0,60
1,note_on,71,48,0
1,note_on,71,0,60
1,note_on,83,55,0
1,note_on,83,0,60
1,note_on,71,47,0
1,note_on,71,0,60
1,note_on,82,50,0
1,note_on,82,0,60
1,note_on,70,43,0
1,note_on,70,0,60
1,note_on,82,50,0
1,note_on,82,0,60
1,note_on,70,41,0
1,note_on,70,0,60
1,note_on,82,50,0
1,note_on,82,0,60
1,note_on,70,41,0
1,note_on,70,0,60
1,note_on,82,50,0
1,note_on,82,0,60
1,note_on,70,42,0
1,note_on,70,0,60
1,note_on,81,47,0
1,note_on,81,0,60
1,note_on,69,40,0
1,note_on,69,0,60
1,note_on,81,47,0
1,note_on,81,0,60
1,note_on,69,40,0
1,note_on,69,0,60
1,note_on,81,47,0
1,note_on,81,0,60
1,note_on,69,40,0
1,note_on,69,0,60
1,note_on,81,47,0
1,note_on,81,0,60
1,note_on,69,41,0
1,note_on,69,0,60
1,note_on,80,54,0
1,note_on,80,0,60
1,note_on,68,46,0
1,note_on,68,0,60
1,note_on,80,54,0
1,note_on,80,0,60
1,note_on,68,44,0
1,note_on,68,0,60
1,note_on,80,54,0
1,note_on,80,0,60
1,note_on,68,44,0
1,note_on,68,0,60
1,note_on,80,54,0
1,note_on,80,0,60
1,note_on,68,46,0
1,note_on,68,0,60
1,note_on,79,54,0
1,note_on,79,0,60
1,note_on,67,43,0
1,note_on,67,0,60
1,note_on,79,50,0
1,note_on,79,0,60
1,note_on,67,42,0
1,note_on,67,0,60
1,note_on,79,50,0
1,note_on,79,0,60
1,note_on,67,44,0
1,note_on,67,0,60
1,note_on,79,50,0
1,note_on,79,0,60
1,note_on,67,42,0
1,note_on,67,0,60
1,note_on,77,48,0
1,note_on,77,0,60
1,note_on,65,41,0
1,note_on,65,0,60
1,note_on,77,48,0
1,note_on,77,0,60
1,note_on,65,41,0
1,note_on,65,0,60
1,note_on,77,48,0
1,note_on,77,0,60
1,note_on,65,41,0
1,note_on,65,0,60
1,note_on,77,46,0
1,note_on,77,0,60
1,note_on,65,39,0
1,note_on,65,0,60
1,note_on,77,48,0
1,note_on,77,0,60
1,note_on,65,39,0
1,note_on,65,0,60
1,note_on,77,44,0
1,note_on,77,0,60
1,note_on,65,39,0
1,note_on,65,0,60
1,note_on,77,44,0
1,note_on,77,0,60
1,note_on,65,37,0
1,note_on,65,0,60
1,note_on,77,44,0
1,note_on,77,0,60
1,note_on,65,39,0
1,note_on,65,0,60
1,note_on,78,41,0
1,note_on,78,0,60
1,note_on,66,37,0
1,note_on,66,0,60
1,note_on,78,41,0
1,note_on,78,0,60
1,note_on,66,36,0
1,note_on,66,0,60
1,note_on,78,41,0
1,note_on,78,0,60
1,note_on,66,34,0
1,note_on,66,0,60
1,note_on,78,40,0
1,note_on,78,0,60
1,note_on,66,34,0
1,note_on,66,0,60
1,note_on,78,40,0
1,note_on,78,0,60
1,note_on,66,32,0
1,note_on,66,0,60
1,note_on,78,40,0
1,note_on,78,0,60
1,note_on,66,32,0
1,note_on,66,0,60
1,note_on,78,39,0
1,note_on,78,0,60
1,note_on,66,31,0
1,note_on,66,0,60
1,note_on,78,39,0
1,note_on,78,0,60
1,note_on,66,31,0
1,note_on,66,0,60
1,note_on,78,39,0
1,note_on,78,0,60
1,note_on,66,28,0
1,note_on,66,0,60
1,note_on,78,37,0
1,note_on,78,0,60
1,note_on,66,28,0
1,note_on,66,0,60
1,note_on,78,37,0
1,note_on,78,0,60
1,note_on,66,28,0
1,note_on,66,0,60
1,note_on,78,34,0
1,note_on,78,0,60
1,note_on,66,25,0
1,note_on,66,0,60
1,note_on,66,43,0
1,note_on,72,52,0
1,note_on,76,52,0
1,note_on,78,37,0
1,note_on,78,0,60
1,note_on,66,25,0
1,note_on,66,0,60
1,note_on,78,37,0
1,note_on,78,0,60
1,note_on,66,25,0
1,note_on,66,0,60
1,note_on,78,37,0
1,note_on,78,0,60
1,note_on,66,25,0
1,note_on,66,0,60
1,note_on,78,37,0
1,note_on,78,0,60
1,note_on,66,25,0
1,note_on,66,0,60
1,note_on,78,37,0
1,note_on,78,0,60
1,note_on,66,25,0
1,note_on,66,0,60
1,note_on,78,37,0
1,note_on,78,0,60
1,note_on,66,25,0
1,note_on,66,0,60
1,note_on,78,37,0
1,note_on,78,0,60
1,note_on,66,25,0
1,note_on,66,0,60
1,note_on,78,37,0
1,note_on,78,0,60
1,note_on,66,25,0
1,note_on,66,0,60
1,note_on,78,37,0
1,note_on,78,0,60
1,note_on,66,25,0
1,note_on,66,0,60
1,note_on,78,37,0
1,note_on,78,0,60
1,note_on,66,25,0
1,note_on,66,0,60
1,note_on,78,37,0
1,note_on,78,0,60
1,note_on,66,25,0
1,note_on,66,0,60
1,note_on,78,37,0
1,note_on,78,0,60
1,note_on,66,25,0
1,note_on,66,0,60
1,note_on,76,0,0
1,note_on,74,50,0
1,note_on,78,50,0
1,note_on,78,0,60
1,note_on,66,25,0
1,note_on,66,0,60
1,note_on,78,37,0
1,note_on,78,0,60
1,note_on,66,25,0
1,note_on,66,0,60
1,note_on,78,37,0
1,note_on,78,0,60
1,note_on,66,25,0
1,note_on,66,0,60
1,note_on,78,37,0
1,note_on,78,0,60
1,note_on,66,25,0
1,note_on,66,0,60
1,note_on,78,37,0
1,note_on,78,0,60
1,note_on,66,25,0
1,note_on,66,0,60
1,note_on,78,37,0
1,note_on,78,0,60
1,note_on,66,25,0
1,note_on,66,0,60
1,note_on,78,37,0
1,note_on,78,0,60
1,note_on,66,25,0
1,note_on,66,0,60
1,note_on,78,37,0
1,note_on,78,0,60
1,note_on,66,25,0
1,note_on,66,0,60
1,note_on,74,0,0
1,note_on,72,0,0
1,note_on,72,48,0
1,note_on,78,48,0
1,note_on,78,0,60
1,note_on,66,25,0
1,note_on,66,0,60
1,note_on,78,37,0
1,note_on,78,0,60
1,note_on,66,25,0
1,note_on,66,0,60
1,note_on,78,37,0
1,note_on,78,0,60
1,note_on,66,25,0
1,note_on,66,0,60
1,note_on,78,37,0
1,note_on,78,0,60
1,note_on,66,25,0
1,note_on,66,0,60
1,note_on,72,0,0
1,note_on,66,0,0
1,note_on,78,48,0
1,note_on,66,37,0
1,note_on,70,37,0
1,note_on,73,37,0
1,note_on,66,25,60
1,note_on,66,0,60
1,note_on,78,37,0
1,note_on,78,0,60
1,note_on,66,25,0
1,note_on,66,0,60
1,note_on,78,37,0
1,note_on,78,0,60
1,note_on,66,25,0
1,note_on,66,0,60
1,note_on,78,37,0
1,note_on,78,0,60
1,note_on,66,25,0
1,note_on,66,0,60
1,note_on,70,0,0
1,note_on,78,0,0
1,note_on,66,0,0
1,note_on,73,0,0
1,note_on,78,32,0
1,note_on,78,0,60
1,note_on,66,20,0
1,note_on,66,0,60
1,note_on,78,32,0
1,note_on,78,0,60
1,note_on,66,20,0
1,note_on,66,0,60
1,note_on,78,32,0
1,note_on,78,0,60
1,note_on,66,20,0
1,note_on,66,0,60
1,note_on,78,32,0
1,note_on,78,0,60
1,note_on,66,21,0
1,note_on,66,0,60
1,note_on,78,33,0
1,note_on,78,0,60
1,note_on,66,21,0
1,note_on,66,0,60
1,note_on,78,33,0
1,note_on,78,0,60
1,note_on,66,21,0
1,note_on,66,0,60
1,note_on,78,33,0
1,note_on,78,0,60
1,note_on,66,21,0
1,note_on,66,0,60
1,note_on,78,33,0
1,note_on,78,0,60
1,note_on,66,21,0
1,note_on,66,0,60
1,note_on,78,34,0
1,note_on,78,0,60
1,note_on,66,23,0
1,note_on,66,0,60
1,note_on,78,34,0
1,note_on,78,0,60
1,note_on,66,23,0
1,note_on,66,0,60
1,note_on,78,34,0
1,note_on,78,0,60
1,note_on,66,23,0
1,note_on,66,0,60
1,note_on,78,34,0
1,note_on,78,0,60
1,note_on,66,23,0
1,note_on,66,0,60
1,note_on,78,35,0
1,note_on,78,0,60
1,note_on,66,23,0
1,note_on,66,0,60
1,note_on,78,35,0
1,note_on,78,0,60
1,note_on,66,23,0
1,note_on,66,0,60
1,note_on,78,35,0
1,note_on,78,0,60
1,note_on,66,23,0
1,note_on,66,0,60
1,note_on,78,35,0
1,note_on,78,0,60
1,note_on,66,24,0
1,note_on,66,0,60
1,note_on,78,36,0
1,note_on,78,0,60
1,note_on,66,24,0
1,note_on,66,0,60
1,note_on,78,36,0
1,note_on,78,0,60
1,note_on,66,24,0
1,note_on,66,0,60
1,note_on,78,36,0
1,note_on,78,0,60
1,note_on,66,24,0
1,note_on,66,0,60
1,note_on,78,36,0
1,note_on,78,0,60
1,note_on,66,24,0
1,note_on,66,0,60
1,note_on,66,43,0
1,note_on,72,52,0
1,note_on,76,52,0
1,note_on,78,37,0
1,note_on,78,0,60
1,note_on,66,21,0
1,note_on,66,0,60
1,note_on,78,32,0
1,note_on,78,0,60
1,note_on,66,20,0
1,note_on,66,0,60
1,note_on,78,32,0
1,note_on,78,0,60
1,note_on,66,21,0
1,note_on,66,0,60
1,note_on,78,32,0
1,note_on,78,0,60
1,note_on,66,21,0
1,note_on,66,0,60
1,note_on,78,33,0
1,note_on,78,0,60
1,note_on,66,21,0
1,note_on,66,0,60
1,note_on,78,34,0
1,note_on,78,0,60
1,note_on,66,21,0
1,note_on,66,0,60
1,note_on,78,34,0
1,note_on,78,0,60
1,note_on,66,21,0
1,note_on,66,0,60
1,note_on,78,35,0
1,note_on,78,0,60
1,note_on,66,23,0
1,note_on,66,0,60
1,note_on,78,35,0
1,note_on,78,0,60
1,note_on,66,23,0
1,note_on,66,0,60
1,note_on,78,35,0
1,note_on,78,0,60
1,note_on,66,23,0
1,note_on,66,0,60
1,note_on,78,35,0
1,note_on,78,0,60
1,note_on,66,25,0
1,note_on,66,0,60
1,note_on,78,36,0
1,note_on,78,0,60
1,note_on,66,25,0
1,note_on,66,0,60
1,note_on,76,0,0
1,note_on,74,50,0
1,note_on,78,50,0
1,note_on,78,0,60
1,note_on,66,25,0
1,note_on,66,0,60
1,note_on,78,37,0
1,note_on,78,0,60
1,note_on,66,25,0
1,note_on,66,0,60
1,note_on,78,37,0
1,note_on,78,0,60
1,note_on,66,25,0
1,note_on,66,0,60
1,note_on,78,37,0
1,note_on,78,0,60
1,note_on,66,25,0
1,note_on,66,0,60
1,note_on,78,36,0
1,note_on,78,0,60
1,note_on,66,25,0
1,note_on,66,0,60
1,note_on,78,36,0
1,note_on,78,0,60
1,note_on,66,25,0
1,note_on,66,0,60
1,note_on,78,37,0
1,note_on,78,0,60
1,note_on,66,25,0
1,note_on,66,0,60
1,note_on,78,37,0
1,note_on,78,0,60
1,note_on,66,25,0
1,note_on,66,0,60
1,note_on,74,0,0
1,note_on,72,0,0
1,note_on,72,48,0
1,note_on,78,48,0
1,note_on,78,0,60
1,note_on,66,21,0
1,note_on,66,0,60
1,note_on,78,36,0
1,note_on,78,0,60
1,note_on,66,21,0
1,note_on,66,0,60
1,note_on,78,37,0
1,note_on,78,0,60
1,note_on,66,21,0
1,note_on,66,0,60
1,note_on,78,34,0
1,note_on,78,0,60
1,note_on,66,25,0
1,note_on,66,0,60
1,note_on,72,0,0
1,note_on,66,0,0
1,note_on,78,48,0
1,note_on,66,37,0
1,note_on,70,37,0
1,note_on,73,37,0
1,note_on,66,25,60
1,note_on,66,0,60
1,note_on,78,37,0
1,note_on,78,0,60
1,note_on,66,25,0
1,note_on,66,0,60
1,note_on,78,36,0
1,note_on,78,0,60
1,note_on,66,25,0
1,note_on,66,0,60
1,note_on,78,34,0
1,note_on,78,0,60
1,note_on,66,25,0
1,note_on,66,0,60
1,note_on,70,0,0
1,note_on,78,0,0
1,note_on,66,0,0
1,note_on,73,0,0
1,note_on,78,32,0
1,note_on,78,0,60
1,note_on,66,20,0
1,note_on,66,0,60
1,note_on,78,32,0
1,note_on,78,0,60
1,note_on,66,20,0
1,note_on,66,0,60
1,note_on,78,32,0
1,note_on,78,0,60
1,note_on,66,20,0
1,note_on,66,0,60
1,note_on,78,32,0
1,note_on,78,0,60
1,note_on,66,21,0
1,note_on,66,0,60
1,note_on,78,33,0
1,note_on,78,0,60
1,note_on,66,21,0
1,note_on,66,0,60
1,note_on,78,33,0
1,note_on,78,0,60
1,note_on,66,21,0
1,note_on,66,0,60
1,note_on,78,33,0
1,note_on,78,0,60
1,note_on,66,21,0
1,note_on,66,0,60
1,note_on,78,33,0
1,note_on,78,0,60
1,note_on,66,21,0
1,note_on,66,0,60
1,note_on,78,34,0
1,note_on,78,0,60
1,note_on,66,23,0
1,note_on,66,0,60
1,note_on,78,34,0
1,note_on,78,0,60
1,note_on,66,23,0
1,note_on,66,0,60
1,note_on,78,34,0
1,note_on,78,0,60
1,note_on,66,23,0
1,note_on,66,0,60
1,note_on,78,34,0
1,note_on,78,0,60
1,note_on,66,23,0
1,note_on,66,0,60
1,note_on,78,35,0
1,note_on,78,0,60
1,note_on,66,23,0
1,note_on,66,0,60
1,note_on,78,35,0
1,note_on,78,0,60
1,note_on,66,23,0
1,note_on,66,0,60
1,note_on,78,35,0
1,note_on,78,0,60
1,note_on,66,23,0
1,note_on,66,0,60
1,note_on,78,35,0
1,note_on,78,0,60
1,note_on,66,24,0
1,note_on,66,0,60
1,note_on,78,36,0
1,note_on,78,0,60
1,note_on,66,24,0
1,note_on,66,0,60
1,note_on,78,36,0
1,note_on,78,0,60
1,note_on,66,24,0
1,note_on,66,0,60
1,note_on,78,36,0
1,note_on,78,0,60
1,note_on,66,24,0
1,note_on,66,0,60
1,note_on,78,36,0
1,note_on,78,0,60
1,note_on,66,24,0
1,note_on,66,0,60
1,note_on,66,43,0
1,note_on,73,52,0
1,note_on,75,52,0
1,note_on,78,37,0
1,note_on,78,0,60
1,note_on,66,25,0
1,note_on,66,0,60
1,note_on,78,37,0
1,note_on,78,0,60
1,note_on,66,25,0
1,note_on,66,0,60
1,note_on,78,37,0
1,note_on,78,0,60
1,note_on,66,25,0
1,note_on,66,0,60
1,note_on,78,37,0
1,note_on,78,0,60
1,note_on,66,25,0
1,note_on,66,0,60
1,note_on,78,37,0
1,note_on,78,0,60
1,note_on,66,25,0
1,note_on,66,0,60
1,note_on,78,37,0
1,note_on,78,0,60
1,note_on,66,25,0
1,note_on,66,0,60
1,note_on,78,37,0
1,note_on,78,0,60
1,note_on,66,25,0
1,note_on,66,0,60
1,note_on,78,37,0
1,note_on,78,0,60
1,note_on,66,25,0
1,note_on,66,0,60
1,note_on,78,37,0
1,note_on,78,0,60
1,note_on,66,25,0
1,note_on,66,0,60
1,note_on,78,37,0
1,note_on,78,0,60
1,note_on,66,25,0
1,note_on,66,0,60
1,note_on,78,39,0
1,note_on,78,0,60
1,note_on,66,25,0
1,note_on,66,0,60
1,note_on,78,39,0
1,note_on,78,0,60
1,note_on,66,25,0
1,note_on,66,0,60
1,note_on,75,0,0
1,note_on,69,47,0
1,note_on,78,47,0
1,note_on,78,0,60
1,note_on,66,25,0
1,note_on,66,0,60
1,note_on,78,36,0
1,note_on,78,0,60
1,note_on,66,25,0
1,note_on,66,0,60
1,note_on,78,36,0
1,note_on,78,0,60
1,note_on,66,23,0
1,note_on,66,0,60
1,note_on,78,34,0
1,note_on,78,0,60
1,note_on,66,25,0
1,note_on,66,0,60
1,note_on,78,35,0
1,note_on,78,0,60
1,note_on,66,23,0
1,note_on,66,0,60
1,note_on,78,34,0
1,note_on,78,0,60
1,note_on,66,21,0
1,note_on,66,0,60
1,note_on,78,34,0
1,note_on,78,0,60
1,note_on,66,23,0
1,note_on,66,0,60
1,note_on,78,33,0
1,note_on,78,0,60
1,note_on,66,23,0
1,note_on,66,0,60
1,note_on,69,0,0
1,note_on,70,40,0
1,note_on,78,40,0
1,note_on,78,0,60
1,note_on,66,25,0
1,note_on,66,0,60
1,note_on,78,32,0
1,note_on,78,0,60
1,note_on,66,21,0
1,note_on,66,0,60
1,note_on,78,32,0
1,note_on,78,0,60
1,note_on,66,20,0
1,note_on,66,0,60
1,note_on,78,34,0
1,note_on,78,0,60
1,note_on,66,23,0
1,note_on,66,0,60
1,note_on,70,0,0
1,note_on,73,0,0
1,note_on,66,0,0
1,note_on,78,42,0
1,note_on,66,33,0
1,note_on,70,33,0
1,note_on,73,33,0
1,note_on,66,25,60
1,note_on,66,0,60
1,note_on,78,36,0
1,note_on,78,0,60
1,note_on,66,24,0
1,note_on,66,0,60
1,note_on,78,35,0
1,note_on,78,0,60
1,note_on,66,24,0
1,note_on,66,0,60
1,note_on,78,35,0
1,note_on,78,0,60
1,note_on,66,24,0
1,note_on,66,0,60
1,note_on,78,37,0
1,note_on,78,0,60
1,note_on,66,23,0
1,note_on,66,0,60
1,note_on,78,35,0
1,note_on,78,0,60
1,note_on,66,23,0
1,note_on,66,0,60
1,note_on,78,34,0
1,note_on,78,0,60
1,note_on,66,23,0
1,note_on,66,0,60
1,note_on,78,34,0
1,note_on,78,0,60
1,note_on,66,23,0
1,note_on,66,0,60
1,note_on,70,0,0
1,note_on,78,0,0
1,note_on,66,0,0
1,note_on,73,0,0
1,note_on,78,33,0
1,note_on,78,0,60
1,note_on,66,21,0
1,note_on,66,0,60
1,note_on,78,33,0
1,note_on,78,0,60
1,note_on,66,21,0
1,note_on,66,0,60
1,note_on,78,33,0
1,note_on,78,0,60
1,note_on,66,21,0
1,note_on,66,0,60
1,note_on,78,32,0
1,note_on,78,0,60
1,note_on,66,20,0
1,note_on,66,0,60
1,note_on,78,32,0
1,note_on,78,0,60
1,note_on,66,20,0
1,note_on,66,0,60
1,note_on,78,32,0
1,note_on,78,0,60
1,note_on,66,20,0
1,note_on,66,0,60
1,note_on,78,32,0
1,note_on,78,0,60
1,note_on,66,20,0
1,note_on,66,0,60
1,note_on,78,32,0
1,note_on,78,0,60
1,note_on,66,20,0
1,note_on,66,0,60
1,note_on,78,32,0
1,note_on,78,0,60
1,note_on,66,20,0
1,note_on,66,0,60
1,note_on,78,32,0
1,note_on,78,0,60
1,note_on,66,20,0
1,note_on,66,0,60
1,note_on,78,32,0
1,note_on,78,0,60
1,note_on,66,20,0
1,note_on,66,0,60
1,note_on,78,32,0
1,note_on,78,0,60
1,note_on,66,20,0
1,note_on,66,0,60
1,note_on,78,32,0
1,note_on,78,0,60
1,note_on,66,20,0
1,note_on,66,0,60
1,note_on,78,32,0
1,note_on,78,0,60
1,note_on,66,20,0
1,note_on,66,0,60
1,note_on,78,32,0
1,note_on,78,0,60
1,note_on,66,20,0
1,note_on,66,0,60
1,note_on,78,32,0
1,note_on,78,0,60
1,note_on,66,20,0
1,note_on,66,0,60
1,note_on,66,43,0
1,note_on,73,52,0
1,note_on,75,52,0
1,note_on,78,37,0
1,note_on,78,0,60
1,note_on,66,25,0
1,note_on,66,0,60
1,note_on,78,37,0
1,note_on,78,0,60
1,note_on,66,25,0
1,note_on,66,0,60
1,note_on,78,37,0
1,note_on,78,0,60
1,note_on,66,25,0
1,note_on,66,0,60
1,note_on,78,37,0
1,note_on,78,0,60
1,note_on,66,25,0
1,note_on,66,0,60
1,note_on,78,37,0
1,note_on,78,0,60
1,note_on,66,25,0
1,note_on,66,0,60
1,note_on,78,37,0
1,note_on,78,0,60
1,note_on,66,25,0
1,note_on,66,0,60
1,note_on,78,37,0
1,note_on,78,0,60
1,note_on,66,25,0
1,note_on,66,0,60
1,note_on,78,37,0
1,note_on,78,0,60
1,note_on,66,25,0
1,note_on,66,0,60
1,note_on,78,37,0
1,note_on,78,0,60
1,note_on,66,25,0
1,note_on,66,0,60
1,note_on,78,37,0
1,note_on,78,0,60
1,note_on,66,25,0
1,note_on,66,0,60
1,note_on,78,39,0
1,note_on,78,0,60
1,note_on,66,25,0
1,note_on,66,0,60
1,note_on,78,39,0
1,note_on,78,0,60
1,note_on,66,25,0
1,note_on,66,0,60
1,note_on,75,0,0
1,note_on,69,47,0
1,note_on,78,47,0
1,note_on,78,0,60
1,note_on,66,25,0
1,note_on,66,0,60
1,note_on,78,37,0
1,note_on,78,0,60
1,note_on,66,25,0
1,note_on,66,0,60
1,note_on,78,37,0
1,note_on,78,0,60
1,note_on,66,25,0
1,note_on,66,0,60
1,note_on,78,37,0
1,note_on,78,0,60
1,note_on,66,25,0
1,note_on,66,0,60
1,note_on,78,37,0
1,note_on,78,0,60
1,note_on,66,25,0
1,note_on,66,0,60
1,note_on,78,37,0
1,note_on,78,0,60
1,note_on,66,25,0
1,note_on,66,0,60
1,note_on,78,37,0
1,note_on,78,0,60
1,note_on,66,25,0
1,note_on,66,0,60
1,note_on,78,37,0
1,note_on,78,0,60
1,note_on,66,25,0
1,note_on,66,0,60
1,note_on,69,0,0
1,note_on,70,40,0
1,note_on,78,40,0
1,note_on,78,0,60
1,note_on,66,25,0
1,note_on,66,0,60
1,note_on,78,35,0
1,note_on,78,0,60
1,note_on,66,25,0
1,note_on,66,0,60
1,note_on,78,34,0
1,note_on,78,0,60
1,note_on,66,25,0
1,note_on,66,0,60
1,note_on,78,34,0
1,note_on,78,0,60
1,note_on,66,25,0
1,note_on,66,0,60
1,note_on,70,0,0
1,note_on,73,0,0
1,note_on,66,0,0
1,note_on,78,42,0
1,note_on,66,33,0
1,note_on,70,33,0
1,note_on,73,33,0
1,note_on,66,25,60
1,note_on,66,0,60
1,note_on,78,36,0
1,note_on,78,0,60
1,note_on,66,24,0
1,note_on,66,0,60
1,note_on,78,35,0
1,note_on,78,0,60
1,note_on,66,24,0
1,note_on,66,0,60
1,note_on,78,35,0
1,note_on,78,0,60
1,note_on,66,24,0
1,note_on,66,0,60
1,note_on,78,37,0
1,note_on,78,0,60
1,note_on,66,23,0
1,note_on,66,0,60
1,note_on,78,35,0
1,note_on,78,0,60
1,note_on,66,23,0
1,note_on,66,0,60
1,note_on,78,34,0
1,note_on,78,0,60
1,note_on,66,23,0
1,note_on,66,0,60
1,note_on,78,34,0
1,note_on,78,0,60
1,note_on,66,23,0
1,note_on,66,0,60
1,note_on,70,0,0
1,note_on,78,0,0
1,note_on,66,0,0
1,note_on,73,0,0
1,note_on,78,33,0
1,note_on,78,0,60
1,note_on,66,21,0
1,note_on,66,0,60
1,note_on,78,33,0
1,note_on,78,0,60
1,note_on,66,21,0
1,note_on,66,0,60
1,note_on,78,33,0
1,note_on,78,0,60
1,note_on,66,21,0
1,note_on,66,0,60
1,note_on,78,32,0
1,note_on,78,0,60
1,note_on,66,20,0
1,note_on,66,0,60
1,note_on,78,32,0
1,note_on,78,0,60
1,note_on,66,20,0
1,note_on,66,0,60
1,note_on,78,32,0
1,note_on,78,0,60
1,note_on,66,20,0
1,note_on,66,0,60
1,note_on,78,32,0
1,note_on,78,0,60
1,note_on,66,20,0
1,note_on,66,0,60
1,note_on,78,32,0
1,note_on,78,0,60
1,note_on,66,20,0
1,note_on,66,0,60
1,note_on,78,32,0
1,note_on,78,0,60
1,note_on,66,20,0
1,note_on,66,0,60
1,note_on,78,32,0
1,note_on,78,0,60
1,note_on,66,20,0
1,note_on,66,0,60
1,note_on,78,32,0
1,note_on,78,0,60
1,note_on,66,20,0
1,note_on,66,0,60
1,note_on,78,32,0
1,note_on,78,0,60
1,note_on,66,20,0
1,note_on,66,0,60
1,note_on,78,32,0
1,note_on,78,0,60
1,note_on,66,20,0
1,note_on,66,0,60
1,note_on,78,32,0
1,note_on,78,0,60
1,note_on,66,20,0
1,note_on,66,0,60
1,note_on,78,32,0
1,note_on,78,0,60
1,note_on,66,20,0
1,note_on,66,0,60
1,note_on,78,32,0
1,note_on,78,0,60
1,note_on,66,20,0
1,note_on,66,0,60
1,note_on,78,42,0
1,note_on,66,33,0
1,note_on,71,33,0
1,note_on,75,42,0
1,note_on,66,25,60
1,note_on,66,0,60
1,note_on,78,37,0
1,note_on,78,0,60
1,note_on,66,25,0
1,note_on,66,0,60
1,note_on,78,36,0
1,note_on,78,0,60
1,note_on,66,25,0
1,note_on,66,0,60
1,note_on,78,36,0
1,note_on,78,0,60
1,note_on,66,25,0
1,note_on,66,0,60
1,note_on,78,32,0
1,note_on,78,0,60
1,note_on,66,19,0
1,note_on,66,0,60
1,note_on,78,29,0
1,note_on,78,0,60
1,note_on,66,19,0
1,note_on,66,0,60
1,note_on,78,29,0
1,note_on,78,0,60
1,note_on,66,19,0
1,note_on,66,0,60
1,note_on,78,29,0
1,note_on,78,0,60
1,note_on,66,19,0
1,note_on,66,0,60
1,note_on,78,31,0
1,note_on,78,0,60
1,note_on,66,20,0
1,note_on,66,0,60
1,note_on,78,31,0
1,note_on,78,0,60
1,note_on,66,20,0
1,note_on,66,0,60
1,note_on,78,31,0
1,note_on,78,0,60
1,note_on,66,20,0
1,note_on,66,0,60
1,note_on,78,31,0
1,note_on,78,0,60
1,note_on,66,20,0
1,note_on,66,0,60
1,note_on,78,31,0
1,note_on,78,0,60
1,note_on,66,20,0
1,note_on,66,0,60
1,note_on,78,31,0
1,note_on,78,0,60
1,note_on,66,20,0
1,note_on,66,0,60
1,note_on,78,32,0
1,note_on,78,0,60
1,note_on,66,20,0
1,note_on,66,0,60
1,note_on,78,32,0
1,note_on,78,0,60
1,note_on,66,20,0
1,note_on,66,0,60
1,note_on,78,32,0
1,note_on,78,0,60
1,note_on,66,20,0
1,note_on,66,0,60
1,note_on,78,32,0
1,note_on,78,0,60
1,note_on,66,20,0
1,note_on,66,0,60
1,note_on,78,32,0
1,note_on,78,0,60
1,note_on,66,21,0
1,note_on,66,0,60
1,note_on,78,32,0
1,note_on,78,0,60
1,note_on,66,21,0
1,note_on,66,0,60
1,note_on,71,0,0
1,note_on,78,0,0
1,note_on,66,0,0
1,note_on,75,0,0
1,note_on,78,33,0
1,note_on,78,0,60
1,note_on,66,21,0
1,note_on,66,0,60
1,note_on,78,33,0
1,note_on,78,0,60
1,note_on,66,21,0
1,note_on,66,0,60
1,note_on,78,33,0
1,note_on,78,0,60
1,note_on,66,21,0
1,note_on,66,0,60
1,note_on,78,33,0
1,note_on,78,0,60
1,note_on,66,21,0
1,note_on,66,0,60
1,note_on,78,32,0
1,note_on,78,0,60
1,note_on,66,19,0
1,note_on,66,0,60
1,note_on,78,33,0
1,note_on,78,0,60
1,note_on,66,19,0
1,note_on,66,0,60
1,note_on,78,32,0
1,note_on,78,0,60
1,note_on,66,19,0
1,note_on,66,0,60
1,note_on,78,32,0
1,note_on,78,0,60
1,note_on,66,20,0
1,note_on,66,0,60
1,note_on,78,34,0
1,note_on,78,0,60
1,note_on,66,20,0
1,note_on,66,0,60
1,note_on,78,32,0
1,note_on,78,0,60
1,note_on,66,20,0
1,note_on,66,0,60
1,note_on,78,31,0
1,note_on,78,0,60
1,note_on,66,20,0
1,note_on,66,0,60
1,note_on,78,31,0
1,note_on,78,0,60
1,note_on,66,20,0
1,note_on,66,0,60
1,note_on,78,29,0
1,note_on,78,0,60
1,note_on,66,19,0
1,note_on,66,0,60
1,note_on,78,29,0
1,note_on,78,0,60
1,note_on,66,18,0
1,note_on,66,0,60
1,note_on,78,29,0
1,note_on,78,0,60
1,note_on,66,18,0
1,note_on,66,0,60
1,note_on,78,28,0
1,note_on,78,0,60
1,note_on,66,18,0
1,note_on,66,0,60
1,note_on,78,27,0
1,note_on,78,0,60
1,note_on,66,18,0
1,note_on,66,0,60
1,note_on,78,27,0
1,note_on,78,0,60
1,note_on,66,17,0
1,note_on,66,0,60
1,note_on,78,26,0
1,note_on,78,0,60
1,note_on,66,17,0
1,note_on,66,0,60
1,note_on,78,26,0
1,note_on,78,0,60
1,note_on,66,17,0
1,note_on,66,0,60
1,note_on,78,24,0
1,note_on,78,0,60
1,note_on,66,16,0
1,note_on,66,0,60
1,note_on,78,24,0
1,note_on,78,0,60
1,note_on,66,15,0
1,note_on,66,0,60
1,note_on,78,24,0
1,note_on,78,0,60
1,note_on,66,15,0
1,note_on,66,0,60
1,note_on,78,23,0
1,note_on,78,0,60
1,note_on,66,15,0
1,note_on,66,0,60
1,note_on,78,22,0
1,note_on,78,0,60
1,note_on,66,15,0
1,note_on,66,0,60
1,note_on,78,22,0
1,note_on,78,0,60
1,note_on,66,14,0
1,note_on,66,0,60
1,note_on,78,22,0
1,note_on,78,0,60
1,note_on,66,14,0
1,note_on,66,0,60
1,note_on,78,22,0
1,note_on,78,0,60
1,note_on,66,14,0
1,note_on,66,0,60
1,note_on,78,22,0
1,note_on,78,0,60
1,note_on,66,15,0
1,note_on,66,0,60
1,note_on,78,22,0
1,note_on,78,0,60
1,note_on,66,14,0
1,note_on,66,0,60
1,note_on,78,22,0
1,note_on,78,0,60
1,note_on,66,14,0
1,note_on,66,0,60
1,note_on,78,22,0
1,note_on,78,0,60
1,note_on,66,14,0
1,note_on,66,0,60
1,note_on,78,20,0
1,note_on,78,0,60
1,note_on,66,13,0
1,note_on,66,0,60
1,note_on,78,20,0
1,note_on,78,0,60
1,note_on,66,12,0
1,note_on,66,0,60
1,note_on,78,20,0
1,note_on,78,0,60
1,note_on,66,12,0
1,note_on,66,0,60
1,note_on,78,19,0
1,note_on,78,0,60
1,note_on,66,12,0
1,note_on,66,0,60
1,note_on,78,18,0
1,note_on,78,0,60
1,note_on,66,12,0
1,note_on,66,0,60
1,note_on,78,18,0
1,note_on,78,0,60
1,note_on,66,11,0
1,note_on,66,0,60
1,note_on,78,18,0
1,note_on,78,0,60
1,note_on,66,11,0
1,note_on,66,0,60
1,note_on,78,18,0
1,note_on,78,0,60
1,note_on,66,11,0
1,note_on,66,0,60
2,note_on,55,68,1
2,note_on,53,64,479
2,note_on,55,0,21
2,note_on,58,67,459
2,note_on,53,0,20
2,note_on,60,65,460
2,note_on,58,0,20
2,note_on,65,55,220
2,note_on,60,0,20
2,note_on,62,65,220
2,note_on,65,0,20
2,note_on,60,64,460
2,note_on,62,0,20
2,note_on,65,55,220
2,note_on,60,0,20
2,note_on,62,64,220
2,note_on,65,0,20
2,note_on,58,65,460
2,note_on,62,0,20
2,note_on,58,0,430
2,note_on,60,65,30
2,note_on,55,62,480
2,note_on,60,0,20
2,note_on,53,61,460
2,note_on,55,0,20
2,note_on,53,0,430
2,note_on,55,74,30
2,note_on,43,62,0
2,note_on,43,0,480
2,note_on,55,0,0
2,note_on,53,69,0
2,note_on,45,58,0
2,note_on,45,0,480
2,note_on,53,0,0
2,note_on,55,69,0
2,note_on,43,58,0
2,note_on,43,0,480
2,note_on,55,0,0
2,note_on,53,66,0
2,note_on,41,56,0
2,note_on,41,0,480
2,note_on,53,0,0
2,note_on,50,60,0
2,note_on,38,51,0
2,note_on,38,0,480
2,note_on,50,0,0
2,note_on,41,58,0
2,note_on,53,69,0
2,note_on,53,0,480
2,note_on,41,0,0
2,note_on,46,56,0
2,note_on,58,67,0
2,note_on,58,0,450
2,note_on,46,0,0
2,note_on,43,53,30
2,note_on,55,63,0
2,note_on,55,0,480
2,note_on,43,0,0
2,note_on,36,56,0
2,note_on,48,67,0
2,note_on,48,0,480
2,note_on,36,0,0
2,note_on,52,58,0
2,note_on,40,49,0
2,note_on,40,0,480
2,note_on,52,0,0
2,note_on,53,56,0
2,note_on,41,47,0
2,note_on,41,0,450
2,note_on,53,0,0
2,note_on,53,70,30
2,note_on,55,66,480
2,note_on,53,0,20
2,note_on,50,63,460
2,note_on,55,0,20
2,note_on,53,65,460
2,note_on,50,0,20
2,note_on,55,55,220
2,note_on,53,0,20
2,note_on,48,61,220
2,note_on,55,0,20
2,note_on,55,61,460
2,note_on,48,0,20
2,note_on,57,54,220
2,note_on,55,0,20
2,note_on,53,60,220
2,note_on,57,0,20
2,note_on,53,0,430
2,note_on,29,62,30
2,note_on,41,73,0
2,note_on,41,0,480
2,note_on,29,0,0
2,note_on,34,58,0
2,note_on,46,69,0
2,note_on,46,0,480
2,note_on,34,0,0
2,note_on,45,67,0
2,note_on,33,56,0
2,note_on,33,0,240
2,note_on,45,0,0
2,note_on,31,54,0
2,note_on,43,64,0
2,note_on,43,0,240
2,note_on,31,0,0
2,note_on,29,51,0
2,note_on,41,61,0
2,note_on,41,0,450
2,note_on,29,0,0
2,note_on,53,70,30
2,note_on,55,66,480
2,note_on,53,0,20
2,note_on,50,64,460
2,note_on,55,0,20
2,note_on,53,65,460
2,note_on,50,0,20
2,note_on,55,58,220
2,note_on,53,0,20
2,note_on,51,64,220
2,note_on,55,0,20
2,note_on,58,71,460
2,note_on,51,0,20
2,note_on,60,60,220
2,note_on,58,0,20
2,note_on,56,60,220
2,note_on,60,0,20
2,note_on,56,0,430
2,note_on,44,73,30
2,note_on,32,62,0
2,note_on,32,0,480
2,note_on,44,0,0
2,note_on,37,57,0
2,note_on,49,68,0
2,note_on,49,0,480
2,note_on,37,0,0
2,note_on,36,56,0
2,note_on,48,67,0
2,note_on,48,0,240
2,note_on,36,0,0
2,note_on,46,63,0
2,note_on,34,51,0
2,note_on,34,0,240
2,note_on,46,0,0
2,note_on,32,54,0
2,note_on,44,64,0
2,note_on,44,0,450
2,note_on,32,0,0
2,note_on,30,37,30
2,note_on,42,44,0
2,note_on,42,0,480
2,note_on,30,0,0
2,note_on,42,39,0
2,note_on,30,33,0
2,note_on,30,0,480
2,note_on,42,0,0
2,note_on,29,34,0
2,note_on,41,40,0
2,note_on,41,0,480
2,note_on,29,0,0
2,note_on,30,37,0
2,note_on,42,44,0
2,note_on,42,0,480
2,note_on,30,0,0
2,note_on,42,41,0
2,note_on,30,34,0
2,note_on,30,0,480
2,note_on,42,0,0
2,note_on,54,49,0
2,note_on,42,41,0
2,note_on,42,0,240
2,note_on,54,0,0
2,note_on,39,39,0
2,note_on,51,46,0
2,note_on,51,0,240
2,note_on,39,0,0
2,note_on,41,46,0
2,note_on,53,55,0
2,note_on,53,0,240
2,note_on,41,0,0
2,note_on,51,50,0
2,note_on,39,42,0
2,note_on,39,0,240
2,note_on,51,0,0
2,note_on,37,46,0
2,note_on,49,55,0
2,note_on,49,0,240
2,note_on,37,0,0
2,note_on,37,55,0
2,note_on,25,46,0
2,note_on,25,0,240
2,note_on,37,0,0
2,note_on,51,56,0
2,note_on,39,47,0
2,note_on,39,0,240
2,note_on,51,0,0
2,note_on,53,51,0
2,note_on,41,43,0
2,note_on,41,0,240
2,note_on,53,0,0
2,note_on,56,56,0
2,note_on,44,47,0
2,note_on,44,0,240
2,note_on,56,0,0
2,note_on,44,56,0
2,note_on,32,47,0
2,note_on,32,0,240
2,note_on,44,0,0
2,note_on,34,39,0
2,note_on,46,46,0
2,note_on,46,0,240
2,note_on,34,0,0
2,note_on,37,39,0
2,note_on,49,46,0
2,note_on,49,0,240
2,note_on,37,0,0
2,note_on,36,43,0
2,note_on,48,51,0
2,note_on,48,0,240
2,note_on,36,0,0
2,note_on,32,40,0
2,note_on,44,48,0
2,note_on,44,0,240
2,note_on,32,0,0
2,note_on,30,35,0
2,note_on,42,42,0
2,note_on,42,0,480
2,note_on,30,0,0
2,note_on,30,31,0
2,note_on,42,37,0
2,note_on,42,0,480
2,note_on,30,0,0
2,note_on,42,44,0
2,note_on,30,37,0
2,note_on,30,0,480
2,note_on,42,0,0
2,note_on,30,35,0
2,note_on,42,42,0
2,note_on,42,0,480
2,note_on,30,0,0
2,note_on,54,45,0
2,note_on,42,38,0
2,note_on,42,0,240
2,note_on,54,0,0
2,note_on,46,41,240
2,note_on,34,34,0
2,note_on,34,0,480
2,note_on,46,0,0
2,note_on,46,38,0
2,note_on,34,32,0
2,note_on,34,0,480
2,note_on,46,0,0
2,note_on,33,34,0
2,note_on,45,40,0
2,note_on,45,0,480
2,note_on,33,0,0
2,note_on,34,35,0
2,note_on,46,42,0
2,note_on,46,0,480
2,note_on,34,0,0
2,note_on,34,34,0
2,note_on,46,41,0
2,note_on,46,0,480
2,note_on,34,0,0
2,note_on,58,41,0
2,note_on,46,34,0
2,note_on,46,0,450
2,note_on,58,0,0
2,note_on,57,62,30
2,note_on,45,52,0
2,note_on,45,0,240
2,note_on,57,0,0
2,note_on,43,47,0
2,note_on,55,56,0
2,note_on,55,0,240
2,note_on,43,0,0
2,note_on,41,51,0
2,note_on,53,61,0
2,note_on,53,0,240
2,note_on,41,0,0
2,note_on,29,47,0
2,note_on,41,56,0
2,note_on,41,0,240
2,note_on,29,0,0
2,note_on,43,51,0
2,note_on,55,61,0
2,note_on,55,0,240
2,note_on,43,0,0
2,note_on,57,56,0
2,note_on,45,47,0
2,note_on,45,0,240
2,note_on,57,0,0
2,note_on,48,52,0
2,note_on,60,62,0
2,note_on,60,0,240
2,note_on,48,0,0
2,note_on,36,49,0
2,note_on,48,58,0
2,note_on,48,0,240
2,note_on,36,0,0
2,note_on,38,51,0
2,note_on,50,60,0
2,note_on,50,0,240
2,note_on,38,0,0
2,note_on,41,51,0
2,note_on,53,60,0
2,note_on,53,0,240
2,note_on,41,0,0
2,note_on,40,49,0
2,note_on,52,58,0
2,note_on,52,0,240
2,note_on,40,0,0
2,note_on,48,58,0
2,note_on,36,49,0
2,note_on,36,0,240
2,note_on,48,0,0
2,note_on,34,35,0
2,note_on,46,42,0
2,note_on,46,0,480
2,note_on,34,0,0
2,note_on,46,42,0
2,note_on,34,35,0
2,note_on,34,0,480
2,note_on,46,0,0
2,note_on,34,37,0
2,note_on,46,44,0
2,note_on,46,0,480
2,note_on,34,0,0
2,note_on,34,35,0
2,note_on,46,42,0
2,note_on,46,0,480
2,note_on,34,0,0
2,note_on,58,45,0
2,note_on,46,38,0
2,note_on,46,0,240
2,note_on,58,0,0
2,note_on,57,51,240
2,note_on,45,43,0
2,note_on,45,0,480
2,note_on,57,0,0
2,note_on,62,46,0
2,note_on,50,46,0
2,note_on,50,0,480
2,note_on,62,0,0
2,note_on,57,51,0
2,note_on,45,43,0
2,note_on,45,0,480
2,note_on,57,0,0
2,note_on,43,37,0
2,note_on,55,44,0
2,note_on,55,0,480
2,note_on,43,0,0
2,note_on,41,42,0
2,note_on,53,50,0
2,note_on,53,0,480
2,note_on,41,0,0
2,note_on,55,44,0
2,note_on,43,37,0
2,note_on,43,0,480
2,note_on,55,0,0
2,note_on,50,52,0
2,note_on,38,44,0
2,note_on,38,0,480
2,note_on,50,0,0
2,note_on,43,41,0
2,note_on,55,49,0
2,note_on,55,0,450
2,note_on,43,0,0
2,note_on,38,44,30
2,note_on,50,52,0
2,note_on,50,0,480
2,note_on,38,0,0
2,note_on,55,42,0
2,note_on,43,35,0
2,note_on,43,0,480
2,note_on,55,0,0
2,note_on,38,44,0
2,note_on,50,52,0
2,note_on,50,0,480
2,note_on,38,0,0
2,note_on,43,40,0
2,note_on,55,48,0
2,note_on,55,0,450
2,note_on,43,0,0
2,note_on,36,43,30
2,note_on,48,51,0
2,note_on,48,0,480
2,note_on,36,0,0
2,note_on,53,49,0
2,note_on,41,41,0
2,note_on,41,0,480
2,note_on,53,0,0
2,note_on,55,42,0
2,note_on,43,35,0
2,note_on,43,0,480
2,note_on,55,0,0
2,note_on,36,42,0
2,note_on,48,50,0
2,note_on,48,0,480
2,note_on,36,0,0
2,note_on,53,48,0
2,note_on,41,40,0
2,note_on,41,0,450
2,note_on,53,0,0
2,note_on,43,47,30
2,note_on,55,56,0
2,note_on,55,0,480
2,note_on,43,0,0
2,note_on,41,60,0
2,note_on,29,51,0
2,note_on,29,0,480
2,note_on,41,0,0
2,note_on,31,56,0
2,note_on,43,67,0
2,note_on,43,0,480
2,note_on,31,0,0
2,note_on,33,52,0
2,note_on,45,62,0
2,note_on,45,0,240
2,note_on,33,0,0
2,note_on,46,56,0
2,note_on,34,47,0
2,note_on,34,0,240
2,note_on,46,0,0
2,note_on,45,64,0
2,note_on,33,54,0
2,note_on,33,0,480
2,note_on,45,0,0
2,note_on,34,56,0
2,note_on,46,66,0
2,note_on,46,0,480
2,note_on,34,0,0
2,note_on,45,66,0
2,note_on,33,56,0
2,note_on,33,0,480
2,note_on,45,0,0
2,note_on,31,53,0
2,note_on,43,63,0
2,note_on,43,0,480
2,note_on,31,0,0
2,note_on,41,67,0
2,note_on,29,56,0
2,note_on,29,0,450
2,note_on,41,0,0
2,note_on,31,53,30
2,note_on,43,63,0
2,note_on,43,0,480
2,note_on,31,0,0
2,note_on,45,62,0
2,note_on,33,52,0
2,note_on,33,0,240
2,note_on,45,0,0
2,note_on,46,55,0
2,note_on,34,46,0
2,note_on,34,0,240
2,note_on,46,0,0
2,note_on,33,52,0
2,note_on,45,62,0
2,note_on,45,0,480
2,note_on,33,0,0
2,note_on,34,57,0
2,note_on,46,68,0
2,note_on,46,0,480
2,note_on,34,0,0
2,note_on,45,68,0
2,note_on,33,57,0
2,note_on,33,0,480
2,note_on,45,0,0
2,note_on,43,69,0
2,note_on,31,58,0
2,note_on,31,0,480
2,note_on,43,0,0
2,note_on,41,66,0
2,note_on,29,56,0
2,note_on,29,0,450
2,note_on,41,0,0
2,note_on,43,69,30
2,note_on,31,58,0
2,note_on,31,0,480
2,note_on,43,0,0
2,note_on,29,56,0
2,note_on,41,66,0
2,note_on,41,0,450
2,note_on,29,0,0
2,note_on,55,69,30
2,note_on,55,0,480
2,note_on,53,68,0
2,note_on,53,0,450
2,note_on,43,56,30
2,note_on,55,66,0
2,note_on,55,0,480
2,note_on,43,0,0
2,note_on,53,68,0
2,note_on,41,57,0
2,note_on,41,0,480
2,note_on,53,0,0
2,note_on,43,52,0
2,note_on,55,62,0
2,note_on,55,0,480
2,note_on,43,0,0
2,note_on,57,68,0
2,note_on,45,57,0
2,note_on,45,0,480
2,note_on,57,0,0
2,note_on,58,62,0
2,note_on,46,52,0
2,note_on,46,0,450
2,note_on,58,0,0
2,note_on,55,62,30
2,note_on,43,52,0
2,note_on,43,0,480
2,note_on,55,0,0
2,note_on,51,64,0
2,note_on,39,54,0
2,note_on,39,0,480
2,note_on,51,0,0
2,note_on,40,49,0
2,note_on,52,58,0
2,note_on,52,0,480
2,note_on,40,0,0
2,note_on,53,57,0
2,note_on,41,48,0
2,note_on,41,0,450
2,note_on,53,0,0
2,note_on,34,58,30
2,note_on,46,69,0
2,note_on,46,0,480
2,note_on,34,0,0
2,note_on,33,56,0
2,note_on,45,66,0
2,note_on,45,0,480
2,note_on,33,0,0
2,note_on,43,67,0
2,note_on,31,56,0
2,note_on,31,0,480
2,note_on,43,0,0
2,note_on,41,68,0
2,note_on,29,57,0
2,note_on,29,0,480
2,note_on,41,0,0
2,note_on,34,54,0
2,note_on,46,64,0
2,note_on,46,0,450
2,note_on,34,0,0
2,note_on,45,68,30
2,note_on,33,57,0
2,note_on,33,0,480
2,note_on,45,0,0
2,note_on,34,54,0
2,note_on,46,64,0
2,note_on,46,0,450
2,note_on,34,0,0
2,note_on,55,60,30
2,note_on,43,51,0
2,note_on,43,0,480
2,note_on,55,0,0
2,note_on,48,67,0
2,note_on,36,56,0
2,note_on,36,0,960
2,note_on,48,0,0
2,note_on,53,61,0
2,note_on,41,51,0
2,note_on,41,0,960
2,note_on,53,0,0
2,note_on,58,69,0
2,note_on,46,58,0
2,note_on,46,0,240
2,note_on,58,0,0
2,note_on,63,69,2640
2,note_on,67,69,0
2,note_on,67,0,120
2,note_on,63,0,0
2,note_on,58,56,0
2,note_on,58,0,120
2,note_on,63,61,0
2,note_on,67,61,0
2,note_on,67,0,60
2,note_on,63,0,0
2,note_on,63,61,60
2,note_on,67,61,0
2,note_on,67,0,60
2,note_on,63,0,0
2,note_on,63,67,60
2,note_on,67,67,0
2,note_on,67,0,120
2,note_on,63,0,0
2,note_on,58,55,0
2,note_on,58,0,120
2,note_on,63,61,0
2,note_on,67,61,0
2,note_on,67,0,60
2,note_on,63,0,0
2,note_on,63,61,60
2,note_on,67,61,0
2,note_on,67,0,60
2,note_on,63,0,0
2,note_on,63,69,60
2,note_on,67,69,0
2,note_on,67,0,120
2,note_on,63,0,0
2,note_on,58,55,0
2,note_on,58,0,120
2,note_on,63,59,0
2,note_on,67,59,0
2,note_on,67,0,60
2,note_on,63,0,0
2,note_on,63,58,60
2,note_on,67,58,0
2,note_on,67,0,60
2,note_on,63,0,0
2,note_on,63,61,60
2,note_on,67,61,0
2,note_on,67,0,120
2,note_on,63,0,0
2,note_on,58,49,0
2,note_on,58,0,120
2,note_on,63,55,0
2,note_on,67,55,0
2,note_on,67,0,60
2,note_on,63,0,0
2,note_on,63,55,60
2,note_on,67,55,0
2,note_on,67,0,60
2,note_on,63,0,0
2,note_on,63,56,60
2,note_on,67,56,0
2,note_on,67,0,60
2,note_on,63,0,0
2,note_on,63,52,60
2,note_on,67,52,0
2,note_on,67,0,60
2,note_on,63,0,0
2,note_on,63,56,60
2,note_on,67,56,0
2,note_on,67,0,60
2,note_on,63,0,0
2,note_on,63,50,60
2,note_on,67,50,0
2,note_on,67,0,60
2,note_on,63,0,0
2,note_on,63,56,60
2,note_on,67,56,0
2,note_on,67,0,60
2,note_on,63,0,0
2,note_on,63,52,60
2,note_on,67,52,0
2,note_on,67,0,60
2,note_on,63,0,0
2,note_on,63,56,60
2,note_on,67,56,0
2,note_on,67,0,60
2,note_on,63,0,0
2,note_on,63,50,60
2,note_on,67,50,0
2,note_on,67,0,60
2,note_on,63,0,0
2,note_on,70,56,60
2,note_on,67,56,0
2,note_on,67,0,60
2,note_on,70,0,0
2,note_on,70,50,60
2,note_on,67,50,0
2,note_on,67,0,60
2,note_on,70,0,0
2,note_on,70,59,60
2,note_on,67,59,0
2,note_on,67,0,60
2,note_on,70,0,0
2,note_on,70,51,60
2,note_on,67,51,0
2,note_on,67,0,60
2,note_on,70,0,0
2,note_on,70,58,60
2,note_on,67,58,0
2,note_on,67,0,60
2,note_on,70,0,0
2,note_on,67,53,60
2,note_on,70,53,0
2,note_on,70,0,60
2,note_on,67,0,0
2,note_on,70,56,60
2,note_on,67,56,0
2,note_on,67,0,60
2,note_on,70,0,0
2,note_on,70,51,60
2,note_on,67,51,0
2,note_on,67,0,60
2,note_on,70,0,0
2,note_on,68,54,60
2,note_on,71,54,0
2,note_on,71,0,90
2,note_on,68,0,0
2,note_on,68,48,30
2,note_on,71,48,0
2,note_on,71,0,90
2,note_on,68,0,0
2,note_on,71,54,30
2,note_on,75,54,0
2,note_on,75,0,90
2,note_on,71,0,0
2,note_on,71,49,30
2,note_on,75,49,0
2,note_on,75,0,90
2,note_on,71,0,0
2,note_on,68,55,30
2,note_on,71,55,0
2,note_on,71,0,90
2,note_on,68,0,0
2,note_on,68,51,30
2,note_on,71,51,0
2,note_on,71,0,90
2,note_on,68,0,0
2,note_on,71,54,30
2,note_on,75,54,0
2,note_on,75,0,90
2,note_on,71,0,0
2,note_on,71,51,30
2,note_on,75,51,0
2,note_on,75,0,90
2,note_on,71,0,0
2,note_on,68,54,30
2,note_on,74,54,0
2,note_on,74,0,90
2,note_on,68,0,0
2,note_on,68,39,30
2,note_on,74,39,0
2,note_on,74,0,90
2,note_on,68,0,0
2,note_on,68,51,30
2,note_on,74,51,0
2,note_on,74,0,90
2,note_on,68,0,0
2,note_on,68,39,30
2,note_on,74,39,0
2,note_on,74,0,90
2,note_on,68,0,0
2,note_on,65,49,30
2,note_on,70,49,0
2,note_on,70,0,90
2,note_on,65,0,0
2,note_on,65,37,30
2,note_on,70,37,0
2,note_on,70,0,90
2,note_on,65,0,0
2,note_on,65,46,30
2,note_on,70,46,0
2,note_on,70,0,90
2,note_on,65,0,0
2,note_on,65,35,30
2,note_on,70,35,0
2,note_on,70,0,90
2,note_on,65,0,0
2,note_on,63,56,30
2,note_on,67,56,0
2,note_on,67,0,60
2,note_on,63,0,0
2,note_on,63,52,60
2,note_on,67,52,0
2,note_on,67,0,60
2,note_on,63,0,0
2,note_on,63,56,60
2,note_on,67,56,0
2,note_on,67,0,60
2,note_on,63,0,0
2,note_on,63,50,60
2,note_on,67,50,0
2,note_on,67,0,60
2,note_on,63,0,0
2,note_on,63,56,60
2,note_on,67,56,0
2,note_on,67,0,60
2,note_on,63,0,0
2,note_on,63,52,60
2,note_on,67,52,0
2,note_on,67,0,60
2,note_on,63,0,0
2,note_on,63,56,60
2,note_on,67,56,0
2,note_on,67,0,60
2,note_on,63,0,0
2,note_on,63,50,60
2,note_on,67,50,0
2,note_on,67,0,60
2,note_on,63,0,0
2,note_on,70,56,60
2,note_on,67,56,0
2,note_on,67,0,60
2,note_on,70,0,0
2,note_on,70,50,60
2,note_on,67,50,0
2,note_on,67,0,60
2,note_on,70,0,0
2,note_on,70,59,60
2,note_on,67,59,0
2,note_on,67,0,60
2,note_on,70,0,0
2,note_on,70,51,60
2,note_on,67,51,0
2,note_on,67,0,60
2,note_on,70,0,0
2,note_on,70,58,60
2,note_on,67,58,0
2,note_on,67,0,60
2,note_on,70,0,0
2,note_on,70,53,60
2,note_on,67,53,0
2,note_on,67,0,60
2,note_on,70,0,0
2,note_on,70,56,60
2,note_on,67,56,0
2,note_on,67,0,60
2,note_on,70,0,0
2,note_on,70,51,60
2,note_on,67,51,0
2,note_on,67,0,60
2,note_on,70,0,0
2,note_on,71,57,60
2,note_on,75,57,0
2,note_on,78,57,0
2,note_on,75,0,90
2,note_on,71,0,0
2,note_on,71,51,30
2,note_on,75,51,0
2,note_on,75,0,90
2,note_on,71,0,0
2,note_on,71,53,30
2,note_on,75,53,0
2,note_on,75,0,90
2,note_on,71,0,0
2,note_on,71,47,30
2,note_on,75,47,0
2,note_on,75,0,90
2,note_on,71,0,0
2,note_on,78,0,30
2,note_on,68,53,0
2,note_on,71,53,0
2,note_on,76,53,0
2,note_on,71,0,90
2,note_on,68,0,0
2,note_on,68,47,30
2,note_on,71,47,0
2,note_on,71,0,90
2,note_on,68,0,0
2,note_on,68,55,30
2,note_on,71,55,0
2,note_on,71,0,90
2,note_on,68,0,0
2,note_on,68,48,30
2,note_on,71,48,0
2,note_on,71,0,90
2,note_on,68,0,0
2,note_on,76,0,30
2,note_on,63,52,0
2,note_on,66,52,0
2,note_on,71,52,0
2,note_on,66,0,90
2,note_on,63,0,0
2,note_on,63,46,30
2,note_on,66,46,0
2,note_on,66,0,90
2,note_on,63,0,0
2,note_on,63,54,30
2,note_on,66,54,0
2,note_on,66,0,90
2,note_on,63,0,0
2,note_on,63,47,30
2,note_on,66,47,0
2,note_on,66,0,90
2,note_on,63,0,0
2,note_on,71,0,30
2,note_on,59,55,0
2,note_on,64,55,0
2,note_on,68,55,0
2,note_on,64,0,90
2,note_on,59,0,0
2,note_on,59,47,30
2,note_on,64,47,0
2,note_on,64,0,90
2,note_on,59,0,0
2,note_on,59,51,30
2,note_on,64,51,0
2,note_on,64,0,90
2,note_on,59,0,0
2,note_on,59,48,30
2,note_on,64,48,0
2,note_on,64,0,90
2,note_on,59,0,0
2,note_on,68,0,30
2,note_on,58,42,0
2,note_on,58,0,120
2,note_on,60,44,0
2,note_on,60,0,120
2,note_on,61,46,0
2,note_on,61,0,120
2,note_on,62,48,0
2,note_on,62,0,120
2,note_on,63,55,0
2,note_on,66,55,0
2,note_on,66,0,90
2,note_on,63,0,0
2,note_on,63,50,30
2,note_on,66,50,0
2,note_on,66,0,90
2,note_on,63,0,0
2,note_on,63,50,30
2,note_on,66,50,0
2,note_on,66,0,90
2,note_on,63,0,0
2,note_on,63,50,30
2,note_on,66,50,0
2,note_on,66,0,90
2,note_on,63,0,0
2,note_on,58,40,30
2,note_on,58,0,120
2,note_on,60,42,0
2,note_on,60,0,120
2,note_on,61,44,0
2,note_on,61,0,120
2,note_on,62,46,0
2,note_on,62,0,120
2,note_on,63,55,0
2,note_on,66,55,0
2,note_on,66,0,90
2,note_on,63,0,0
2,note_on,63,48,30
2,note_on,66,48,0
2,note_on,66,0,90
2,note_on,63,0,0
2,note_on,63,48,30
2,note_on,66,48,0
2,note_on,66,0,90
2,note_on,63,0,0
2,note_on,63,49,30
2,note_on,66,49,0
2,note_on,66,0,90
2,note_on,63,0,0
2,note_on,61,42,30
2,note_on,61,0,120
2,note_on,63,44,0
2,note_on,63,0,120
2,note_on,64,46,0
2,note_on,64,0,120
2,note_on,65,48,0
2,note_on,65,0,120
2,note_on,66,58,0
2,note_on,69,58,0
2,note_on,69,0,90
2,note_on,66,0,0
2,note_on,66,50,30
2,note_on,69,50,0
2,note_on,69,0,90
2,note_on,66,0,0
2,note_on,66,54,30
2,note_on,69,54,0
2,note_on,69,0,90
2,note_on,66,0,0
2,note_on,66,50,30
2,note_on,69,50,0
2,note_on,69,0,90
2,note_on,66,0,0
2,note_on,63,42,30
2,note_on,63,0,120
2,note_on,65,44,0
2,note_on,65,0,120
2,note_on,66,46,0
2,note_on,66,0,120
2,note_on,66,48,0
2,note_on,66,0,120
2,note_on,68,57,0
2,note_on,71,57,0
2,note_on,71,0,90
2,note_on,68,0,0
2,note_on,68,48,30
2,note_on,71,48,0
2,note_on,71,0,90
2,note_on,68,0,0
2,note_on,68,52,30
2,note_on,71,52,0
2,note_on,71,0,90
2,note_on,68,0,0
2,note_on,68,49,30
2,note_on,71,49,0
2,note_on,71,0,90
2,note_on,68,0,0
2,note_on,58,54,30
2,note_on,58,0,120
2,note_on,59,54,0
2,note_on,59,0,120
2,note_on,63,44,0
2,note_on,65,44,0
2,note_on,65,0,240
2,note_on,63,0,0
2,note_on,58,54,0
2,note_on,58,0,120
2,note_on,59,54,0
2,note_on,59,0,120
2,note_on,63,45,0
2,note_on,65,45,0
2,note_on,65,0,240
2,note_on,63,0,0
2,note_on,65,56,120
2,note_on,68,56,0
2,note_on,68,0,240
2,note_on,65,0,0
2,note_on,64,52,0
2,note_on,67,52,0
2,note_on,67,0,240
2,note_on,64,0,0
2,note_on,63,49,0
2,note_on,66,49,0
2,note_on,66,0,240
2,note_on,63,0,0
2,note_on,62,48,0
2,note_on,65,48,0
2,note_on,65,0,120
2,note_on,62,0,0
2,note_on,63,56,0
2,note_on,67,56,0
2,note_on,67,0,60
2,note_on,63,0,0
2,note_on,63,52,60
2,note_on,67,52,0
2,note_on,67,0,60
2,note_on,63,0,0
2,note_on,63,56,60
2,note_on,67,56,0
2,note_on,67,0,60
2,note_on,63,0,0
2,note_on,63,50,60
2,note_on,67,50,0
2,note_on,67,0,60
2,note_on,63,0,0
2,note_on,63,56,60
2,note_on,67,56,0
2,note_on,67,0,60
2,note_on,63,0,0
2,note_on,63,52,60
2,note_on,67,52,0
2,note_on,67,0,60
2,note_on,63,0,0
2,note_on,63,56,60
2,note_on,67,56,0
2,note_on,67,0,60
2,note_on,63,0,0
2,note_on,63,50,60
2,note_on,67,50,0
2,note_on,67,0,60
2,note_on,63,0,0
2,note_on,70,56,60
2,note_on,67,56,0
2,note_on,67,0,60
2,note_on,70,0,0
2,note_on,70,50,60
2,note_on,67,50,0
2,note_on,67,0,60
2,note_on,70,0,0
2,note_on,70,59,60
2,note_on,67,59,0
2,note_on,67,0,60
2,note_on,70,0,0
2,note_on,70,51,60
2,note_on,67,51,0
2,note_on,67,0,60
2,note_on,70,0,0
2,note_on,70,58,60
2,note_on,67,58,0
2,note_on,67,0,60
2,note_on,70,0,0
2,note_on,70,53,60
2,note_on,67,53,0
2,note_on,67,0,60
2,note_on,70,0,0
2,note_on,70,56,60
2,note_on,67,56,0
2,note_on,67,0,60
2,note_on,70,0,0
2,note_on,70,51,60
2,note_on,67,51,0
2,note_on,67,0,60
2,note_on,70,0,0
2,note_on,68,54,60
2,note_on,71,54,0
2,note_on,71,0,90
2,note_on,68,0,0
2,note_on,68,48,30
2,note_on,71,48,0
2,note_on,71,0,90
2,note_on,68,0,0
2,note_on,71,54,30
2,note_on,75,54,0
2,note_on,75,0,90
2,note_on,71,0,0
2,note_on,71,49,30
2,note_on,75,49,0
2,note_on,75,0,90
2,note_on,71,0,0
2,note_on,68,55,30
2,note_on,71,55,0
2,note_on,71,0,90
2,note_on,68,0,0
2,note_on,68,51,30
2,note_on,71,51,0
2,note_on,71,0,90
2,note_on,68,0,0
2,note_on,71,54,30
2,note_on,75,54,0
2,note_on,75,0,90
2,note_on,71,0,0
2,note_on,71,51,30
2,note_on,75,51,0
2,note_on,75,0,90
2,note_on,71,0,0
2,note_on,68,43,30
2,note_on,72,54,0
2,note_on,75,54,0
2,note_on,75,0,90
2,note_on,72,0,0
2,note_on,72,46,30
2,note_on,75,46,0
2,note_on,75,0,90
2,note_on,72,0,0
2,note_on,72,54,30
2,note_on,75,54,0
2,note_on,75,0,90
2,note_on,72,0,0
2,note_on,72,44,30
2,note_on,75,44,0
2,note_on,75,0,90
2,note_on,72,0,0
2,note_on,68,0,30
2,note_on,63,43,0
2,note_on,68,53,0
2,note_on,72,53,0
2,note_on,72,0,90
2,note_on,68,0,0
2,note_on,68,43,30
2,note_on,72,43,0
2,note_on,72,0,90
2,note_on,68,0,0
2,note_on,68,50,30
2,note_on,72,50,0
2,note_on,72,0,90
2,note_on,68,0,0
2,note_on,68,43,30
2,note_on,72,43,0
2,note_on,72,0,90
2,note_on,68,0,0
2,note_on,63,0,30
2,note_on,60,52,0
2,note_on,63,52,0
2,note_on,68,52,0
2,note_on,68,0,90
2,note_on,63,0,0
2,note_on,63,43,30
2,note_on,68,43,0
2,note_on,68,0,90
2,note_on,63,0,0
2,note_on,63,49,30
2,note_on,68,49,0
2,note_on,68,0,90
2,note_on,63,0,0
2,note_on,63,43,30
2,note_on,68,43,0
2,note_on,68,0,90
2,note_on,63,0,0
2,note_on,60,0,30
2,note_on,56,49,0
2,note_on,60,49,0
2,note_on,63,49,0
2,note_on,63,0,90
2,note_on,60,0,0
2,note_on,60,43,30
2,note_on,63,43,0
2,note_on,63,0,90
2,note_on,60,0,0
2,note_on,60,52,30
2,note_on,63,52,0
2,note_on,63,0,90
2,note_on,60,0,0
2,note_on,60,43,30
2,note_on,63,43,0
2,note_on,63,0,90
2,note_on,60,0,0
2,note_on,56,0,30
2,note_on,55,60,0
2,note_on,58,60,0
2,note_on,67,60,0
2,note_on,63,60,0
2,note_on,58,63,120
2,note_on,58,0,120
2,note_on,67,0,0
2,note_on,55,0,0
2,note_on,58,0,0
2,note_on,63,0,0
2,note_on,62,66,0
2,note_on,62,0,120
2,note_on,63,69,0
2,note_on,63,0,120
2,note_on,67,72,0
2,note_on,67,0,120
2,note_on,70,75,0
2,note_on,70,0,120
2,note_on,74,78,0
2,note_on,74,0,120
2,note_on,75,81,0
2,note_on,75,0,120
2,note_on,66,84,0
2,note_on,69,84,0
2,note_on,69,0,240
2,note_on,66,0,0
2,note_on,57,71,0
2,note_on,57,0,120
2,note_on,61,66,0
2,note_on,61,0,120
2,note_on,62,70,0
2,note_on,62,0,120
2,note_on,64,66,0
2,note_on,64,0,120
2,note_on,66,70,0
2,note_on,66,0,120
2,note_on,69,65,0
2,note_on,69,0,120
2,note_on,70,78,0
2,note_on,70,0,120
2,note_on,68,74,0
2,note_on,68,0,120
2,note_on,62,64,0
2,note_on,64,64,0
2,note_on,64,0,120
2,note_on,62,0,0
2,note_on,70,77,120
2,note_on,70,0,120
2,note_on,68,72,0
2,note_on,68,0,120
2,note_on,62,67,0
2,note_on,64,67,0
2,note_on,64,0,120
2,note_on,62,0,0
2,note_on,58,71,120
2,note_on,58,0,480
2,note_on,57,62,0
2,note_on,57,0,120
2,note_on,56,62,0
2,note_on,56,0,120
2,note_on,59,62,0
2,note_on,59,0,120
2,note_on,58,62,0
2,note_on,58,0,120
2,note_on,57,63,0
2,note_on,57,0,60
2,note_on,59,66,60
2,note_on,59,0,60
2,note_on,60,69,60
2,note_on,60,0,60
2,note_on,61,71,60
2,note_on,61,0,60
2,note_on,66,78,60
2,note_on,66,0,120
2,note_on,64,70,0
2,note_on,64,0,120
2,note_on,61,74,0
2,note_on,61,0,120
2,note_on,57,69,0
2,note_on,57,0,120
2,note_on,66,83,0
2,note_on,69,83,0
2,note_on,69,0,240
2,note_on,66,0,0
2,note_on,57,70,0
2,note_on,57,0,120
2,note_on,61,65,0
2,note_on,61,0,120
2,note_on,62,70,0
2,note_on,62,0,120
2,note_on,64,65,0
2,note_on,64,0,120
2,note_on,66,70,0
2,note_on,66,0,120
2,note_on,69,66,0
2,note_on,69,0,120
2,note_on,72,78,0
2,note_on,72,0,120
2,note_on,70,73,0
2,note_on,70,0,120
2,note_on,66,67,0
2,note_on,64,67,0
2,note_on,64,0,120
2,note_on,66,0,0
2,note_on,72,77,120
2,note_on,72,0,120
2,note_on,70,72,0
2,note_on,70,0,120
2,note_on,66,66,0
2,note_on,64,66,0
2,note_on,64,0,120
2,note_on,66,0,0
2,note_on,60,71,120
2,note_on,60,0,480
2,note_on,59,62,0
2,note_on,59,0,120
2,note_on,58,62,0
2,note_on,58,0,120
2,note_on,61,62,0
2,note_on,61,0,120
2,note_on,60,62,0
2,note_on,60,0,120
2,note_on,59,61,0
2,note_on,59,0,60
2,note_on,61,63,60
2,note_on,61,0,60
2,note_on,62,65,60
2,note_on,62,0,60
2,note_on,63,67,60
2,note_on,63,0,60
2,note_on,67,73,60
2,note_on,67,0,120
2,note_on,65,66,0
2,note_on,65,0,120
2,note_on,63,71,0
2,note_on,63,0,120
2,note_on,59,66,0
2,note_on,59,0,120
2,note_on,71,83,0
2,note_on,64,83,0
2,note_on,67,83,0
2,note_on,67,0,240
2,note_on,64,0,0
2,note_on,71,0,0
2,note_on,67,66,0
2,note_on,64,66,0
2,note_on,64,0,90
2,note_on,67,0,0
2,note_on,64,58,30
2,note_on,67,58,0
2,note_on,67,0,90
2,note_on,64,0,0
2,note_on,64,66,30
2,note_on,67,66,0
2,note_on,67,0,90
2,note_on,64,0,0
2,note_on,64,58,30
2,note_on,67,58,0
2,note_on,67,0,90
2,note_on,64,0,0
2,note_on,64,66,30
2,note_on,67,66,0
2,note_on,67,0,90
2,note_on,64,0,0
2,note_on,64,59,30
2,note_on,67,59,0
2,note_on,67,0,90
2,note_on,64,0,0
2,note_on,62,70,30
2,note_on,69,70,0
2,note_on,69,0,120
2,note_on,69,65,0
2,note_on,69,0,120
2,note_on,62,0,0
2,note_on,71,66,0
2,note_on,71,0,120
2,note_on,71,59,0
2,note_on,71,0,120
2,note_on,72,73,0
2,note_on,63,62,0
2,note_on,67,62,0
2,note_on,67,0,240
2,note_on,63,0,0
2,note_on,72,0,0
2,note_on,60,66,0
2,note_on,63,66,0
2,note_on,63,0,90
2,note_on,60,0,0
2,note_on,63,58,30
2,note_on,60,58,0
2,note_on,60,0,90
2,note_on,63,0,0
2,note_on,63,66,30
2,note_on,60,66,0
2,note_on,60,0,90
2,note_on,63,0,0
2,note_on,63,58,30
2,note_on,60,58,0
2,note_on,60,0,90
2,note_on,63,0,0
2,note_on,63,66,30
2,note_on,60,66,0
2,note_on,60,0,90
2,note_on,63,0,0
2,note_on,63,59,30
2,note_on,60,59,0
2,note_on,60,0,90
2,note_on,63,0,0
2,note_on,58,70,30
2,note_on,65,70,0
2,note_on,65,0,120
2,note_on,65,65,0
2,note_on,65,0,120
2,note_on,58,0,0
2,note_on,67,66,0
2,note_on,67,0,120
2,note_on,67,59,0
2,note_on,67,0,120
2,note_on,68,75,0
2,note_on,63,63,0
2,note_on,60,63,0
2,note_on,60,0,240
2,note_on,63,0,0
2,note_on,68,0,0
2,note_on,68,66,0
2,note_on,63,66,0
2,note_on,63,0,90
2,note_on,68,0,0
2,note_on,63,58,30
2,note_on,68,58,0
2,note_on,68,0,90
2,note_on,63,0,0
2,note_on,63,66,30
2,note_on,60,66,0
2,note_on,60,0,90
2,note_on,63,0,0
2,note_on,63,58,30
2,note_on,60,58,0
2,note_on,60,0,90
2,note_on,63,0,0
2,note_on,63,66,30
2,note_on,56,66,0
2,note_on,56,0,90
2,note_on,63,0,0
2,note_on,63,59,30
2,note_on,56,59,0
2,note_on,56,0,90
2,note_on,63,0,0
2,note_on,58,70,30
2,note_on,58,0,120
2,note_on,59,65,0
2,note_on,59,0,120
2,note_on,63,66,0
2,note_on,65,66,0
2,note_on,65,0,240
2,note_on,63,0,0
2,note_on,68,73,0
2,note_on,63,62,0
2,note_on,60,62,0
2,note_on,60,0,240
2,note_on,63,0,0
2,note_on,68,0,0
2,note_on,68,66,0
2,note_on,63,66,0
2,note_on,63,0,90
2,note_on,68,0,0
2,note_on,63,58,30
2,note_on,68,58,0
2,note_on,68,0,90
2,note_on,63,0,0
2,note_on,63,66,30
2,note_on,60,66,0
2,note_on,60,0,90
2,note_on,63,0,0
2,note_on,63,58,30
2,note_on,60,58,0
2,note_on,60,0,90
2,note_on,63,0,0
2,note_on,63,66,30
2,note_on,56,66,0
2,note_on,56,0,90
2,note_on,63,0,0
2,note_on,63,59,30
2,note_on,56,59,0
2,note_on,56,0,90
2,note_on,63,0,0
2,note_on,58,70,30
2,note_on,58,0,120
2,note_on,59,65,0
2,note_on,59,0,120
2,note_on,63,66,0
2,note_on,65,66,0
2,note_on,65,0,240
2,note_on,63,0,0
2,note_on,70,77,0
2,note_on,70,0,120
2,note_on,68,72,0
2,note_on,68,0,120
2,note_on,62,67,0
2,note_on,64,67,0
2,note_on,64,0,240
2,note_on,62,0,0
2,note_on,61,70,0
2,note_on,68,70,0
2,note_on,71,83,0
2,note_on,71,0,240
2,note_on,68,0,0
2,note_on,61,0,0
2,note_on,68,66,0
2,note_on,71,66,0
2,note_on,71,0,90
2,note_on,68,0,0
2,note_on,71,58,30
2,note_on,68,58,0
2,note_on,68,0,90
2,note_on,71,0,0
2,note_on,65,66,30
2,note_on,68,66,0
2,note_on,68,0,90
2,note_on,65,0,0
2,note_on,65,58,30
2,note_on,68,58,0
2,note_on,68,0,90
2,note_on,65,0,0
2,note_on,68,66,30
2,note_on,61,66,0
2,note_on,61,0,90
2,note_on,68,0,0
2,note_on,68,59,30
2,note_on,61,59,0
2,note_on,61,0,90
2,note_on,68,0,0
2,note_on,63,70,30
2,note_on,63,0,120
2,note_on,64,65,0
2,note_on,64,0,120
2,note_on,68,66,0
2,note_on,70,66,0
2,note_on,70,0,240
2,note_on,68,0,0
2,note_on,70,77,0
2,note_on,70,0,120
2,note_on,68,72,0
2,note_on,68,0,120
2,note_on,62,67,0
2,note_on,64,67,0
2,note_on,64,0,120
2,note_on,62,0,0
2,note_on,63,70,120
2,note_on,63,0,120
2,note_on,64,65,0
2,note_on,64,0,120
2,note_on,68,66,0
2,note_on,70,66,0
2,note_on,70,0,240
2,note_on,68,0,0
2,note_on,63,70,0
2,note_on,63,0,120
2,note_on,64,65,0
2,note_on,64,0,120
2,note_on,68,66,0
2,note_on,71,66,0
2,note_on,71,0,240
2,note_on,68,0,0
2,note_on,70,77,0
2,note_on,70,0,120
2,note_on,68,72,0
2,note_on,68,0,120
2,note_on,62,67,0
2,note_on,64,67,0
2,note_on,64,0,240
2,note_on,62,0,0
2,note_on,63,70,0
2,note_on,63,0,120
2,note_on,64,65,0
2,note_on,64,0,120
2,note_on,68,66,0
2,note_on,71,66,0
2,note_on,71,0,240
2,note_on,68,0,0
2,note_on,63,70,0
2,note_on,63,0,120
2,note_on,64,65,0
2,note_on,64,0,120
2,note_on,69,66,0
2,note_on,73,66,0
2,note_on,73,0,240
2,note_on,69,0,0
2,note_on,70,77,0
2,note_on,70,0,120
2,note_on,68,72,0
2,note_on,68,0,120
2,note_on,62,67,0
2,note_on,64,67,0
2,note_on,64,0,120
2,note_on,62,0,0
2,note_on,63,70,120
2,note_on,63,0,120
2,note_on,64,65,0
2,note_on,64,0,120
2,note_on,69,66,0
2,note_on,73,66,0
2,note_on,73,0,240
2,note_on,69,0,0
2,note_on,63,70,0
2,note_on,63,0,120
2,note_on,64,65,0
2,note_on,64,0,120
2,note_on,69,66,0
2,note_on,73,66,0
2,note_on,73,0,240
2,note_on,69,0,0
2,note_on,63,70,0
2,note_on,63,0,120
2,note_on,64,65,0
2,note_on,64,0,120
2,note_on,69,66,0
2,note_on,73,66,0
2,note_on,73,0,240
2,note_on,69,0,0
2,note_on,68,70,0
2,note_on,68,0,120
2,note_on,69,65,0
2,note_on,69,0,120
2,note_on,76,66,0
2,note_on,73,66,0
2,note_on,73,0,240
2,note_on,76,0,0
2,note_on,76,66,0
2,note_on,73,66,0
2,note_on,73,0,240
2,note_on,76,0,0
2,note_on,76,66,0
2,note_on,73,66,0
2,note_on,73,0,240
2,note_on,76,0,0
2,note_on,62,79,0
2,note_on,62,0,60
2,note_on,62,71,60
2,note_on,62,0,60
2,note_on,62,79,60
2,note_on,62,0,60
2,note_on,62,71,60
2,note_on,62,0,60
2,note_on,62,80,60
2,note_on,62,0,60
2,note_on,63,73,60
2,note_on,63,0,60
2,note_on,62,81,60
2,note_on,62,0,60
2,note_on,65,71,60
2,note_on,65,0,60
2,note_on,62,81,60
2,note_on,62,0,60
2,note_on,62,72,60
2,note_on,62,0,60
2,note_on,62,81,60
2,note_on,62,0,60
2,note_on,62,73,60
2,note_on,62,0,60
2,note_on,62,81,60
2,note_on,62,0,60
2,note_on,64,73,60
2,note_on,64,0,60
2,note_on,62,81,60
2,note_on,62,0,60
2,note_on,69,72,60
2,note_on,69,0,60
2,note_on,73,75,660
2,note_on,73,0,120
2,note_on,72,74,0
2,note_on,72,0,120
2,note_on,71,73,0
2,note_on,71,0,120
2,note_on,70,72,0
2,note_on,70,0,120
2,note_on,69,72,0
2,note_on,69,0,120
2,note_on,68,71,0
2,note_on,68,0,120
2,note_on,67,70,0
2,note_on,67,0,120
2,note_on,66,69,0
2,note_on,66,0,120
2,note_on,65,68,0
2,note_on,65,0,120
2,note_on,64,67,0
2,note_on,64,0,120
2,note_on,63,66,0
2,note_on,63,0,120
2,note_on,63,56,0
2,note_on,67,56,0
2,note_on,67,0,90
2,note_on,63,0,0
2,note_on,63,52,30
2,note_on,67,52,0
2,note_on,67,0,90
2,note_on,63,0,0
2,note_on,63,56,30
2,note_on,67,56,0
2,note_on,67,0,90
2,note_on,63,0,0
2,note_on,63,50,30
2,note_on,67,50,0
2,note_on,67,0,90
2,note_on,63,0,0
2,note_on,63,56,30
2,note_on,67,56,0
2,note_on,67,0,90
2,note_on,63,0,0
2,note_on,63,52,30
2,note_on,67,52,0
2,note_on,67,0,90
2,note_on,63,0,0
2,note_on,63,56,30
2,note_on,67,56,0
2,note_on,67,0,90
2,note_on,63,0,0
2,note_on,63,50,30
2,note_on,67,50,0
2,note_on,67,0,90
2,note_on,63,0,0
2,note_on,70,56,30
2,note_on,67,56,0
2,note_on,67,0,90
2,note_on,70,0,0
2,note_on,70,50,30
2,note_on,67,50,0
2,note_on,67,0,90
2,note_on,70,0,0
2,note_on,70,59,30
2,note_on,67,59,0
2,note_on,67,0,90
2,note_on,70,0,0
2,note_on,70,51,30
2,note_on,67,51,0
2,note_on,67,0,90
2,note_on,70,0,0
2,note_on,70,58,30
2,note_on,67,58,0
2,note_on,67,0,90
2,note_on,70,0,0
2,note_on,70,53,30
2,note_on,67,53,0
2,note_on,67,0,90
2,note_on,70,0,0
2,note_on,70,56,30
2,note_on,67,56,0
2,note_on,67,0,90
2,note_on,70,0,0
2,note_on,70,51,30
2,note_on,67,51,0
2,note_on,67,0,90
2,note_on,70,0,0
2,note_on,68,54,30
2,note_on,71,54,0
2,note_on,71,0,90
2,note_on,68,0,0
2,note_on,68,48,30
2,note_on,71,48,0
2,note_on,71,0,90
2,note_on,68,0,0
2,note_on,71,54,30
2,note_on,75,54,0
2,note_on,75,0,90
2,note_on,71,0,0
2,note_on,71,49,30
2,note_on,75,49,0
2,note_on,75,0,90
2,note_on,71,0,0
2,note_on,68,55,30
2,note_on,71,55,0
2,note_on,71,0,90
2,note_on,68,0,0
2,note_on,68,51,30
2,note_on,71,51,0
2,note_on,71,0,90
2,note_on,68,0,0
2,note_on,71,54,30
2,note_on,75,54,0
2,note_on,75,0,90
2,note_on,71,0,0
2,note_on,71,51,30
2,note_on,75,51,0
2,note_on,75,0,90
2,note_on,71,0,0
2,note_on,68,51,30
2,note_on,74,51,0
2,note_on,74,0,90
2,note_on,68,0,0
2,note_on,68,42,30
2,note_on,74,42,0
2,note_on,74,0,90
2,note_on,68,0,0
2,note_on,68,49,30
2,note_on,74,49,0
2,note_on,74,0,90
2,note_on,68,0,0
2,note_on,68,39,30
2,note_on,74,39,0
2,note_on,74,0,90
2,note_on,68,0,0
2,note_on,65,47,30
2,note_on,70,47,0
2,note_on,70,0,90
2,note_on,65,0,0
2,note_on,65,38,30
2,note_on,70,38,0
2,note_on,70,0,90
2,note_on,65,0,0
2,note_on,65,46,30
2,note_on,70,46,0
2,note_on,70,0,90
2,note_on,65,0,0
2,note_on,65,36,30
2,note_on,70,36,0
2,note_on,70,0,90
2,note_on,65,0,0
2,note_on,63,56,30
2,note_on,67,56,0
2,note_on,67,0,90
2,note_on,63,0,0
2,note_on,63,52,30
2,note_on,67,52,0
2,note_on,67,0,90
2,note_on,63,0,0
2,note_on,63,56,30
2,note_on,67,56,0
2,note_on,67,0,90
2,note_on,63,0,0
2,note_on,63,50,30
2,note_on,67,50,0
2,note_on,67,0,90
2,note_on,63,0,0
2,note_on,63,56,30
2,note_on,67,56,0
2,note_on,67,0,90
2,note_on,63,0,0
2,note_on,63,52,30
2,note_on,67,52,0
2,note_on,67,0,90
2,note_on,63,0,0
2,note_on,63,56,30
2,note_on,67,56,0
2,note_on,67,0,90
2,note_on,63,0,0
2,note_on,63,50,30
2,note_on,67,50,0
2,note_on,67,0,90
2,note_on,63,0,0
2,note_on,70,56,30
2,note_on,67,56,0
2,note_on,67,0,90
2,note_on,70,0,0
2,note_on,70,50,30
2,note_on,67,50,0
2,note_on,67,0,90
2,note_on,70,0,0
2,note_on,70,59,30
2,note_on,67,59,0
2,note_on,67,0,90
2,note_on,70,0,0
2,note_on,70,51,30
2,note_on,67,51,0
2,note_on,67,0,90
2,note_on,70,0,0
2,note_on,70,58,30
2,note_on,67,58,0
2,note_on,67,0,90
2,note_on,70,0,0
2,note_on,70,53,30
2,note_on,67,53,0
2,note_on,67,0,90
2,note_on,70,0,0
2,note_on,70,56,30
2,note_on,67,56,0
2,note_on,67,0,90
2,note_on,70,0,0
2,note_on,70,51,30
2,note_on,67,51,0
2,note_on,67,0,90
2,note_on,70,0,0
2,note_on,71,57,30
2,note_on,75,57,0
2,note_on,78,57,0
2,note_on,75,0,90
2,note_on,71,0,0
2,note_on,71,51,30
2,note_on,75,51,0
2,note_on,75,0,90
2,note_on,71,0,0
2,note_on,71,53,30
2,note_on,75,53,0
2,note_on,75,0,90
2,note_on,71,0,0
2,note_on,71,47,30
2,note_on,75,47,0
2,note_on,75,0,90
2,note_on,71,0,0
2,note_on,78,0,30
2,note_on,68,53,0
2,note_on,71,53,0
2,note_on,76,53,0
2,note_on,71,0,90
2,note_on,68,0,0
2,note_on,68,47,30
2,note_on,71,47,0
2,note_on,71,0,90
2,note_on,68,0,0
2,note_on,68,55,30
2,note_on,71,55,0
2,note_on,71,0,90
2,note_on,68,0,0
2,note_on,68,48,30
2,note_on,71,48,0
2,note_on,71,0,90
2,note_on,68,0,0
2,note_on,76,0,30
2,note_on,63,52,0
2,note_on,66,52,0
2,note_on,71,52,0
2,note_on,66,0,90
2,note_on,63,0,0
2,note_on,63,46,30
2,note_on,66,46,0
2,note_on,66,0,90
2,note_on,63,0,0
2,note_on,63,54,30
2,note_on,66,54,0
2,note_on,66,0,90
2,note_on,63,0,0
2,note_on,63,47,30
2,note_on,66,47,0
2,note_on,66,0,90
2,note_on,63,0,0
2,note_on,71,0,30
2,note_on,59,55,0
2,note_on,64,55,0
2,note_on,68,55,0
2,note_on,64,0,90
2,note_on,59,0,0
2,note_on,59,47,30
2,note_on,64,47,0
2,note_on,64,0,90
2,note_on,59,0,0
2,note_on,59,51,30
2,note_on,64,51,0
2,note_on,64,0,90
2,note_on,59,0,0
2,note_on,59,48,30
2,note_on,64,48,0
2,note_on,64,0,90
2,note_on,59,0,0
2,note_on,68,0,30
2,note_on,58,42,0
2,note_on,58,0,120
2,note_on,60,44,0
2,note_on,60,0,120
2,note_on,61,46,0
2,note_on,61,0,120
2,note_on,62,48,0
2,note_on,62,0,120
2,note_on,63,55,0
2,note_on,66,55,0
2,note_on,66,0,90
2,note_on,63,0,0
2,note_on,63,50,30
2,note_on,66,50,0
2,note_on,66,0,90
2,note_on,63,0,0
2,note_on,63,50,30
2,note_on,66,50,0
2,note_on,66,0,90
2,note_on,63,0,0
2,note_on,63,50,30
2,note_on,66,50,0
2,note_on,66,0,90
2,note_on,63,0,0
2,note_on,58,40,30
2,note_on,58,0,120
2,note_on,60,42,0
2,note_on,60,0,120
2,note_on,61,44,0
2,note_on,61,0,120
2,note_on,62,46,0
2,note_on,62,0,120
2,note_on,63,55,0
2,note_on,66,55,0
2,note_on,66,0,90
2,note_on,63,0,0
2,note_on,63,48,30
2,note_on,66,48,0
2,note_on,66,0,90
2,note_on,63,0,0
2,note_on,63,48,30
2,note_on,66,48,0
2,note_on,66,0,90
2,note_on,63,0,0
2,note_on,63,49,30
2,note_on,66,49,0
2,note_on,66,0,90
2,note_on,63,0,0
2,note_on,61,42,30
2,note_on,61,0,120
2,note_on,63,44,0
2,note_on,63,0,120
2,note_on,64,46,0
2,note_on,64,0,120
2,note_on,65,48,0
2,note_on,65,0,120
2,note_on,66,58,0
2,note_on,69,58,0
2,note_on,69,0,90
2,note_on,66,0,0
2,note_on,66,50,30
2,note_on,69,50,0
2,note_on,69,0,90
2,note_on,66,0,0
2,note_on,66,55,30
2,note_on,69,55,0
2,note_on,69,0,90
2,note_on,66,0,0
2,note_on,66,50,30
2,note_on,69,50,0
2,note_on,69,0,90
2,note_on,66,0,0
2,note_on,63,42,30
2,note_on,63,0,120
2,note_on,65,44,0
2,note_on,65,0,120
2,note_on,66,46,0
2,note_on,66,0,120
2,note_on,66,48,0
2,note_on,66,0,120
2,note_on,68,57,0
2,note_on,71,57,0
2,note_on,71,0,90
2,note_on,68,0,0
2,note_on,68,48,30
2,note_on,71,48,0
2,note_on,71,0,90
2,note_on,68,0,0
2,note_on,68,53,30
2,note_on,71,53,0
2,note_on,71,0,90
2,note_on,68,0,0
2,note_on,68,49,30
2,note_on,71,49,0
2,note_on,71,0,90
2,note_on,68,0,0
2,note_on,58,54,30
2,note_on,58,0,120
2,note_on,59,54,0
2,note_on,59,0,120
2,note_on,63,54,0
2,note_on,65,54,0
2,note_on,65,0,240
2,note_on,63,0,0
2,note_on,58,54,0
2,note_on,58,0,120
2,note_on,59,54,0
2,note_on,59,0,120
2,note_on,63,54,0
2,note_on,65,54,0
2,note_on,65,0,240
2,note_on,63,0,0
2,note_on,70,78,0
2,note_on,70,0,120
2,note_on,68,74,0
2,note_on,68,0,120
2,note_on,62,64,0
2,note_on,64,64,0
2,note_on,64,0,120
2,note_on,62,0,0
2,note_on,70,77,120
2,note_on,70,0,120
2,note_on,68,72,0
2,note_on,68,0,120
2,note_on,62,63,0
2,note_on,64,63,0
2,note_on,64,0,120
2,note_on,62,0,0
2,note_on,63,56,120
2,note_on,67,56,0
2,note_on,67,0,90
2,note_on,63,0,0
2,note_on,63,52,30
2,note_on,67,52,0
2,note_on,67,0,90
2,note_on,63,0,0
2,note_on,63,56,30
2,note_on,67,56,0
2,note_on,67,0,90
2,note_on,63,0,0
2,note_on,63,50,30
2,note_on,67,50,0
2,note_on,67,0,90
2,note_on,63,0,0
2,note_on,63,56,30
2,note_on,67,56,0
2,note_on,67,0,90
2,note_on,63,0,0
2,note_on,63,52,30
2,note_on,67,52,0
2,note_on,67,0,90
2,note_on,63,0,0
2,note_on,63,56,30
2,note_on,67,56,0
2,note_on,67,0,90
2,note_on,63,0,0
2,note_on,63,50,30
2,note_on,67,50,0
2,note_on,67,0,90
2,note_on,63,0,0
2,note_on,70,77,30
2,note_on,70,0,120
2,note_on,68,72,0
2,note_on,68,0,120
2,note_on,62,67,0
2,note_on,64,67,0
2,note_on,64,0,240
2,note_on,62,0,0
2,note_on,58,70,0
2,note_on,58,0,120
2,note_on,59,59,0
2,note_on,59,0,120
2,note_on,63,50,0
2,note_on,65,50,0
2,note_on,65,0,240
2,note_on,63,0,0
2,note_on,63,56,0
2,note_on,67,56,0
2,note_on,67,0,90
2,note_on,63,0,0
2,note_on,63,50,30
2,note_on,67,50,0
2,note_on,67,0,90
2,note_on,63,0,0
2,note_on,63,59,30
2,note_on,67,59,0
2,note_on,67,0,90
2,note_on,63,0,0
2,note_on,63,51,30
2,note_on,67,51,0
2,note_on,67,0,90
2,note_on,63,0,0
2,note_on,70,58,30
2,note_on,67,58,0
2,note_on,67,0,90
2,note_on,70,0,0
2,note_on,70,53,30
2,note_on,67,53,0
2,note_on,67,0,90
2,note_on,70,0,0
2,note_on,70,56,30
2,note_on,67,56,0
2,note_on,67,0,90
2,note_on,70,0,0
2,note_on,70,51,30
2,note_on,67,51,0
2,note_on,67,0,90
2,note_on,70,0,0
2,note_on,70,77,30
2,note_on,70,0,120
2,note_on,68,72,0
2,note_on,68,0,120
2,note_on,62,67,0
2,note_on,64,67,0
2,note_on,64,0,240
2,note_on,62,0,0
2,note_on,58,70,0
2,note_on,58,0,120
2,note_on,59,65,0
2,note_on,59,0,120
2,note_on,63,59,0
2,note_on,65,59,0
2,note_on,65,0,240
2,note_on,63,0,0
2,note_on,71,73,0
2,note_on,65,73,0
2,note_on,71,0,120
2,note_on,70,74,0
2,note_on,70,0,120
2,note_on,65,0,0
2,note_on,62,69,0
2,note_on,74,69,0
2,note_on,74,0,240
2,note_on,62,0,0
2,note_on,71,73,0
2,note_on,65,73,0
2,note_on,71,0,120
2,note_on,70,75,0
2,note_on,70,0,120
2,note_on,65,0,0
2,note_on,62,70,0
2,note_on,74,70,0
2,note_on,74,0,240
2,note_on,62,0,0
2,note_on,71,74,0
2,note_on,65,74,0
2,note_on,71,0,120
2,note_on,70,75,0
2,note_on,70,0,120
2,note_on,65,0,0
2,note_on,62,72,0
2,note_on,74,72,0
2,note_on,74,0,240
2,note_on,62,0,0
2,note_on,58,88,480
2,note_on,58,0,120
2,note_on,60,78,0
2,note_on,60,0,120
2,note_on,62,81,0
2,note_on,62,0,120
2,note_on,63,83,0
2,note_on,63,0,120
2,note_on,62,90,0
2,note_on,62,0,120
2,note_on,63,79,0
2,note_on,63,0,120
2,note_on,65,82,0
2,note_on,65,0,120
2,note_on,67,78,0
2,note_on,67,0,120
2,note_on,65,88,0
2,note_on,65,0,120
2,note_on,72,83,0
2,note_on,72,0,120
2,note_on,68,84,0
2,note_on,68,0,120
2,note_on,65,82,0
2,note_on,65,0,120
2,note_on,63,91,0
2,note_on,63,0,120
2,note_on,62,83,0
2,note_on,62,0,120
2,note_on,60,89,0
2,note_on,60,0,120
2,note_on,58,80,0
2,note_on,58,0,120
2,note_on,58,88,0
2,note_on,58,0,120
2,note_on,60,82,0
2,note_on,60,0,120
2,note_on,62,84,0
2,note_on,62,0,120
2,note_on,63,79,0
2,note_on,63,0,120
2,note_on,62,90,0
2,note_on,62,0,120
2,note_on,63,78,0
2,note_on,63,0,120
2,note_on,65,83,0
2,note_on,65,0,120
2,note_on,67,79,0
2,note_on,67,0,120
2,note_on,65,88,0
2,note_on,65,0,120
2,note_on,72,81,0
2,note_on,72,0,120
2,note_on,68,85,0
2,note_on,68,0,120
2,note_on,65,80,0
2,note_on,65,0,120
2,note_on,63,89,0
2,note_on,63,0,120
2,note_on,62,78,0
2,note_on,62,0,120
2,note_on,60,84,0
2,note_on,60,0,120
2,note_on,58,78,0
2,note_on,58,0,120
2,note_on,67,88,0
2,note_on,67,0,120
2,note_on,62,81,0
2,note_on,62,0,120
2,note_on,63,88,0
2,note_on,63,0,120
2,note_on,59,79,0
2,note_on,59,0,120
2,note_on,60,83,0
2,note_on,60,0,120
2,note_on,61,75,0
2,note_on,61,0,120
2,note_on,62,81,0
2,note_on,62,0,120
2,note_on,58,78,0
2,note_on,58,0,120
2,note_on,67,88,0
2,note_on,67,0,120
2,note_on,62,79,0
2,note_on,62,0,120
2,note_on,63,84,0
2,note_on,63,0,120
2,note_on,59,78,0
2,note_on,59,0,120
2,note_on,60,84,0
2,note_on,60,0,120
2,note_on,61,75,0
2,note_on,61,0,120
2,note_on,62,83,0
2,note_on,62,0,120
2,note_on,58,77,0
2,note_on,58,0,120
2,note_on,63,82,0
2,note_on,63,0,120
2,note_on,64,83,0
2,note_on,64,0,120
2,note_on,65,84,0
2,note_on,65,0,120
2,note_on,66,85,0
2,note_on,66,0,120
2,note_on,67,86,0
2,note_on,67,0,120
2,note_on,68,88,0
2,note_on,68,0,120
2,note_on,69,88,0
2,note_on,69,0,120
2,note_on,70,89,0
2,note_on,70,0,120
2,note_on,72,90,0
2,note_on,72,0,120
2,note_on,73,91,0
2,note_on,73,0,120
2,note_on,74,92,0
2,note_on,74,0,120
2,note_on,75,93,0
2,note_on,75,0,120
2,note_on,76,94,0
2,note_on,76,0,120
2,note_on,77,95,0
2,note_on,77,0,120
2,note_on,78,96,0
2,note_on,78,0,120
2,note_on,79,97,0
2,note_on,79,0,120
2,note_on,35,74,0
2,note_on,47,93,0
2,note_on,47,0,1440
2,note_on,35,0,0
2,note_on,31,30,0
2,note_on,43,39,0
2,note_on,43,0,1440
2,note_on,31,0,0
2,note_on,43,64,0
2,note_on,55,79,0
2,note_on,55,0,1440
2,note_on,43,0,0
2,note_on,38,57,0
2,note_on,50,72,0
2,note_on,50,0,1440
2,note_on,38,0,0
2,note_on,37,38,0
2,note_on,49,48,0
2,note_on,49,0,1440
2,note_on,37,0,0
2,note_on,36,50,0
2,note_on,48,67,0
2,note_on,48,0,1440
2,note_on,36,0,0
2,note_on,35,33,0
2,note_on,47,42,0
2,note_on,47,0,1440
2,note_on,35,0,0
2,note_on,34,61,0
2,note_on,46,77,0
2,note_on,46,0,1440
2,note_on,34,0,0
2,note_on,33,46,0
2,note_on,45,58,0
2,note_on,45,0,1440
2,note_on,33,0,0
2,note_on,31,34,0
2,note_on,43,43,0
2,note_on,43,0,1440
2,note_on,31,0,0
2,note_on,30,22,0
2,note_on,42,28,0
2,note_on,42,0,960
2,note_on,30,0,0
2,note_on,31,62,480
2,note_on,35,62,0
2,note_on,43,78,0
2,note_on,43,0,1440
2,note_on,35,0,0
2,note_on,31,0,0
2,note_on,34,58,0
2,note_on,31,58,0
2,note_on,43,74,0
2,note_on,43,0,1440
2,note_on,31,0,0
2,note_on,34,0,0
2,note_on,46,56,0
2,note_on,43,56,0
2,note_on,55,71,0
2,note_on,55,0,1440
2,note_on,43,0,0
2,note_on,46,0,0
2,note_on,33,33,0
2,note_on,40,33,0
2,note_on,45,42,0
2,note_on,45,0,2880
2,note_on,40,0,0
2,note_on,33,0,0
2,note_on,33,36,0
2,note_on,41,36,0
2,note_on,45,46,0
2,note_on,45,0,2880
2,note_on,41,0,0
2,note_on,33,0,0
2,note_on,33,36,0
2,note_on,42,36,0
2,note_on,45,46,0
2,note_on,45,0,2880
2,note_on,42,0,0
2,note_on,50,41,0
2,note_on,43,41,0
2,note_on,43,0,2160
2,note_on,50,0,0
2,note_on,33,0,0
2,note_on,31,58,240
2,note_on,43,73,0
2,note_on,43,0,480
2,note_on,31,0,0
2,note_on,63,80,0
2,note_on,58,72,0
2,note_on,55,64,0
2,note_on,55,0,1440
2,note_on,58,0,0
2,note_on,63,0,0
2,note_on,52,48,0
2,note_on,43,38,27
2,note_on,52,0,1413
2,note_on,48,52,0
2,note_on,42,47,0
2,note_on,43,0,27
2,note_on,48,0,453
2,note_on,49,52,0
2,note_on,49,0,960
2,note_on,50,55,0
2,note_on,50,0,1440
2,note_on,52,44,0
2,note_on,52,0,1440
2,note_on,42,0,0
2,note_on,53,39,0
2,note_on,42,39,0
2,note_on,42,0,1440
2,note_on,53,0,0
2,note_on,42,63,0
2,note_on,47,71,0
2,note_on,50,79,0
2,note_on,50,0,2400
2,note_on,47,0,0
2,note_on,42,0,0
2,note_on,59,42,3840
2,note_on,64,42,0
2,note_on,67,54,0
2,note_on,67,0,480
2,note_on,64,0,0
2,note_on,59,0,0
2,note_on,58,35,0
2,note_on,61,35,0
2,note_on,66,44,0
2,note_on,66,0,480
2,note_on,61,0,0
2,note_on,58,0,0
2,note_on,62,43,0
2,note_on,66,43,0
2,note_on,71,55,0
2,note_on,71,0,480
2,note_on,66,0,0
2,note_on,62,0,0
2,note_on,66,41,0
2,note_on,70,41,0
2,note_on,73,52,0
2,note_on,73,0,480
2,note_on,66,0,0
2,note_on,78,52,0
2,note_on,78,0,50
2,note_on,70,0,190
2,note_on,67,44,240
2,note_on,71,44,0
2,note_on,74,56,0
2,note_on,74,0,480
2,note_on,71,0,0
2,note_on,67,0,0
2,note_on,65,41,0
2,note_on,71,41,0
2,note_on,73,51,0
2,note_on,73,0,480
2,note_on,71,0,0
2,note_on,65,0,0
2,note_on,66,46,0
2,note_on,70,46,0
2,note_on,78,57,0
2,note_on,78,0,50
2,note_on,70,0,190
2,note_on,66,0,0
2,note_on,71,43,240
2,note_on,74,55,0
2,note_on,74,0,480
2,note_on,71,0,0
2,note_on,66,41,0
2,note_on,73,52,0
2,note_on,73,0,480
2,note_on,66,0,0
2,note_on,67,40,0
2,note_on,71,50,0
2,note_on,71,0,480
2,note_on,67,0,0
2,note_on,66,50,0
2,note_on,66,0,480
2,note_on,31,43,0
2,note_on,43,55,0
2,note_on,43,0,480
2,note_on,31,0,0
2,note_on,30,41,0
2,note_on,42,51,0
2,note_on,42,0,480
2,note_on,30,0,0
2,note_on,35,43,0
2,note_on,47,55,0
2,note_on,47,0,480
2,note_on,35,0,0
2,note_on,37,40,0
2,note_on,49,50,0
2,note_on,49,0,480
2,note_on,37,0,0
2,note_on,42,42,0
2,note_on,54,54,0
2,note_on,54,0,480
2,note_on,42,0,0
2,note_on,38,43,0
2,note_on,50,55,0
2,note_on,50,0,480
2,note_on,38,0,0
2,note_on,37,40,0
2,note_on,49,50,0
2,note_on,49,0,480
2,note_on,37,0,0
2,note_on,42,41,0
2,note_on,54,51,0
2,note_on,54,0,480
2,note_on,42,0,0
2,note_on,38,43,0
2,note_on,50,55,0
2,note_on,50,0,960
2,note_on,38,0,0
2,note_on,35,41,0
2,note_on,47,52,0
2,note_on,47,0,480
2,note_on,35,0,0
2,note_on,37,44,0
2,note_on,49,56,0
2,note_on,49,0,480
2,note_on,37,0,0
2,note_on,35,41,0
2,note_on,47,52,0
2,note_on,47,0,480
2,note_on,35,0,0
2,note_on,30,36,0
2,note_on,42,46,0
2,note_on,42,0,480
2,note_on,30,0,0
2,note_on,58,44,480
2,note_on,61,44,0
2,note_on,66,56,0
2,note_on,66,0,480
2,note_on,61,0,0
2,note_on,58,0,0
2,note_on,59,42,0
2,note_on,62,42,0
2,note_on,67,54,0
2,note_on,67,0,480
2,note_on,62,0,0
2,note_on,59,0,0
2,note_on,55,41,0
2,note_on,60,41,0
2,note_on,64,51,0
2,note_on,64,0,480
2,note_on,60,0,0
2,note_on,55,0,0
2,note_on,54,46,0
2,note_on,58,46,0
2,note_on,66,58,0
2,note_on,66,0,480
2,note_on,58,0,0
2,note_on,54,0,0
2,note_on,59,44,0
2,note_on,55,44,0
2,note_on,67,56,0
2,note_on,67,0,480
2,note_on,55,0,0
2,note_on,59,0,0
2,note_on,57,42,0
2,note_on,60,42,0
2,note_on,64,54,0
2,note_on,64,0,480
2,note_on,60,0,0
2,note_on,57,0,0
2,note_on,62,46,0
2,note_on,66,46,0
2,note_on,69,58,0
2,note_on,69,0,480
2,note_on,66,0,0
2,note_on,67,46,0
2,note_on,71,57,0
2,note_on,71,0,480
2,note_on,67,0,0
2,note_on,62,0,0
2,note_on,66,55,0
2,note_on,58,49,0
2,note_on,61,43,0
2,note_on,58,0,480
2,note_on,54,42,0
2,note_on,54,0,480
2,note_on,61,0,0
2,note_on,69,42,0
2,note_on,74,42,0
2,note_on,78,54,0
2,note_on,78,0,50
2,note_on,74,0,430
2,note_on,69,0,0
2,note_on,71,48,0
2,note_on,74,60,0
2,note_on,74,0,480
2,note_on,71,0,0
2,note_on,66,0,0
2,note_on,66,46,0
2,note_on,73,58,0
2,note_on,73,0,480
2,note_on,66,0,0
2,note_on,67,41,0
2,note_on,71,52,0
2,note_on,71,0,480
2,note_on,67,0,0
2,note_on,66,49,0
2,note_on,66,0,480
2,note_on,30,46,0
2,note_on,42,58,0
2,note_on,42,0,480
2,note_on,30,0,0
2,note_on,31,46,0
2,note_on,43,57,0
2,note_on,43,0,480
2,note_on,31,0,0
2,note_on,28,43,0
2,note_on,40,55,0
2,note_on,40,0,480
2,note_on,28,0,0
2,note_on,30,46,0
2,note_on,42,57,0
2,note_on,42,0,480
2,note_on,30,0,0
2,note_on,31,43,0
2,note_on,43,55,0
2,note_on,43,0,480
2,note_on,31,0,0
2,note_on,28,43,0
2,note_on,40,55,0
2,note_on,40,0,480
2,note_on,28,0,0
2,note_on,33,46,0
2,note_on,45,58,0
2,note_on,45,0,480
2,note_on,33,0,0
2,note_on,35,43,0
2,note_on,47,55,0
2,note_on,47,0,480
2,note_on,35,0,0
2,note_on,30,42,0
2,note_on,42,54,0
2,note_on,42,0,960
2,note_on,30,0,0
2,note_on,42,46,0
2,note_on,54,58,0
2,note_on,54,0,480
2,note_on,42,0,0
2,note_on,38,47,0
2,note_on,50,59,0
2,note_on,50,0,480
2,note_on,38,0,0
2,note_on,37,43,0
2,note_on,49,55,0
2,note_on,49,0,480
2,note_on,37,0,0
2,note_on,35,43,0
2,note_on,47,55,0
2,note_on,47,0,480
2,note_on,35,0,0
2,note_on,30,41,0
2,note_on,42,52,0
2,note_on,42,0,480
2,note_on,30,0,0
2,note_on,50,34,960
2,note_on,57,34,0
2,note_on,60,34,0
2,note_on,64,43,0
2,note_on,64,0,1440
2,note_on,62,41,0
2,note_on,62,0,960
2,note_on,60,39,0
2,note_on,60,0,480
2,note_on,50,0,0
2,note_on,57,0,0
2,note_on,60,0,0
2,note_on,54,33,0
2,note_on,58,33,0
2,note_on,61,42,0
2,note_on,61,0,480
2,note_on,58,0,0
2,note_on,54,0,0
2,note_on,42,37,0
2,note_on,42,0,480
2,note_on,49,39,0
2,note_on,49,0,480
2,note_on,54,42,0
2,note_on,54,0,480
2,note_on,58,44,0
2,note_on,58,0,480
2,note_on,61,49,0
2,note_on,61,0,480
2,note_on,50,34,0
2,note_on,57,34,0
2,note_on,60,43,0
2,note_on,64,43,0
2,note_on,64,0,1440
2,note_on,62,41,0
2,note_on,62,0,960
2,note_on,60,39,0
2,note_on,60,0,480
2,note_on,50,0,0
2,note_on,57,0,0
2,note_on,60,0,0
2,note_on,54,33,0
2,note_on,58,33,0
2,note_on,61,42,0
2,note_on,61,0,480
2,note_on,58,0,0
2,note_on,54,0,0
2,note_on,42,37,0
2,note_on,42,0,480
2,note_on,49,39,0
2,note_on,49,0,480
2,note_on,54,41,0
2,note_on,54,0,480
2,note_on,58,44,0
2,note_on,58,0,480
2,note_on,61,49,0
2,note_on,61,0,480
2,note_on,63,34,0
2,note_on,47,34,0
2,note_on,54,34,0
2,note_on,63,0,1440
2,note_on,57,40,0
2,note_on,57,0,960
2,note_on,58,39,0
2,note_on,58,0,480
2,note_on,54,0,0
2,note_on,47,0,0
2,note_on,54,28,0
2,note_on,58,28,0
2,note_on,61,36,0
2,note_on,35,24,1440
2,note_on,42,31,0
2,note_on,61,0,960
2,note_on,54,0,0
2,note_on,58,0,0
2,note_on,35,0,240
2,note_on,42,0,0
2,note_on,63,34,240
2,note_on,47,34,0
2,note_on,54,34,0
2,note_on,54,0,1440
2,note_on,63,0,0
2,note_on,57,40,0
2,note_on,57,0,960
2,note_on,58,39,0
2,note_on,58,0,480
2,note_on,47,0,0
2,note_on,54,28,0
2,note_on,58,28,0
2,note_on,61,36,0
2,note_on,35,24,1440
2,note_on,42,31,0
2,note_on,61,0,960
2,note_on,54,0,0
2,note_on,58,0,0
2,note_on,35,0,240
2,note_on,42,0,0
2,note_on,54,26,240
2,note_on,59,26,0
2,note_on,63,33,0
2,note_on,35,36,480
2,note_on,35,0,480
2,note_on,42,36,0
2,note_on,42,0,480
2,note_on,51,36,0
2,note_on,51,0,480
2,note_on,59,34,0
2,note_on,59,0,480
2,note_on,63,0,0
2,note_on,59,0,0
2,note_on,54,0,0
2,note_on,63,34,0
2,note_on,63,0,480
2,note_on,90,38,0
2,note_on,87,38,0
2,note_on,83,38,0
2,note_on,83,0,4320
2,note_on,87,0,0
2,note_on,90,0,0
