Track,Message Type,Note,Velocity,Time
1,note_on,51,57,960
1,note_on,51,0,1440
1,note_on,54,59,0
1,note_on,54,0,240
1,note_on,52,55,0
1,note_on,52,0,240
1,note_on,51,59,0
1,note_on,51,0,480
1,note_on,52,56,0
1,note_on,52,0,480
1,note_on,51,59,0
1,note_on,51,0,480
1,note_on,56,69,0
1,note_on,56,0,480
1,note_on,58,70,0
1,note_on,58,0,480
1,note_on,59,70,0
1,note_on,59,0,480
1,note_on,58,73,0
1,note_on,58,0,960
1,note_on,56,67,0
1,note_on,56,0,480
1,note_on,61,73,480
1,note_on,61,0,960
1,note_on,68,69,0
1,note_on,68,0,480
1,note_on,61,74,480
1,note_on,61,0,960
1,note_on,68,69,0
1,note_on,68,0,480
1,note_on,68,67,0
1,note_on,68,0,480
1,note_on,63,70,0
1,note_on,63,0,960
1,note_on,61,68,0
1,note_on,61,0,960
1,note_on,59,66,0
1,note_on,59,0,480
1,note_on,63,62,0
1,note_on,63,0,480
1,note_on,58,66,0
1,note_on,58,0,480
1,note_on,56,69,480
1,note_on,56,0,960
1,note_on,54,57,0
1,note_on,54,0,480
1,note_on,52,53,0
1,note_on,52,0,480
1,note_on,51,55,0
1,note_on,51,0,480
1,note_on,51,67,480
1,note_on,51,0,1440
1,note_on,54,64,0
1,note_on,54,0,240
1,note_on,52,60,0
1,note_on,52,0,240
1,note_on,51,64,0
1,note_on,51,0,480
1,note_on,52,61,0
1,note_on,52,0,480
1,note_on,51,64,0
1,note_on,51,0,480
1,note_on,56,75,0
1,note_on,56,0,480
1,note_on,58,77,0
1,note_on,58,0,480
1,note_on,59,77,0
1,note_on,59,0,480
1,note_on,58,80,0
1,note_on,58,0,960
1,note_on,56,77,0
1,note_on,56,0,480
1,note_on,61,80,480
1,note_on,61,0,960
1,note_on,64,75,0
1,note_on,64,0,480
1,note_on,64,81,480
1,note_on,64,0,960
1,note_on,64,78,0
1,note_on,64,0,960
1,note_on,62,80,0
1,note_on,62,0,2880
1,note_on,60,75,0
1,note_on,60,0,480
1,note_on,61,86,480
1,note_on,61,0,960
1,note_on,68,76,0
1,note_on,68,0,480
1,note_on,68,71,0
1,note_on,68,0,480
1,note_on,63,77,0
1,note_on,63,0,480
1,note_on,59,68,0
1,note_on,59,0,480
1,note_on,58,73,0
1,note_on,58,0,960
1,note_on,56,70,0
1,note_on,56,0,1440
1,note_on,88,70,480
1,note_on,85,70,0
1,note_on,76,64,0
1,note_on,81,64,0
1,note_on,81,0,480
1,note_on,88,0,0
1,note_on,85,0,0
1,note_on,76,0,0
1,note_on,85,72,0
1,note_on,73,66,0
1,note_on,73,0,480
1,note_on,85,0,0
1,note_on,87,72,0
1,note_on,75,66,0
1,note_on,78,66,0
1,note_on,83,72,0
1,note_on,83,0,480
1,note_on,87,0,0
1,note_on,75,0,0
1,note_on,78,0,0
1,note_on,71,60,0
1,note_on,83,66,0
1,note_on,83,0,480
1,note_on,71,0,0
1,note_on,76,66,0
1,note_on,81,72,0
1,note_on,85,72,0
1,note_on,73,66,0
1,note_on,73,0,480
1,note_on,76,0,0
1,note_on,81,0,0
1,note_on,85,0,0
1,note_on,69,63,0
1,note_on,81,69,0
1,note_on,81,0,480
1,note_on,69,0,0
1,note_on,78,69,0
1,note_on,66,63,0
1,note_on,69,63,0
1,note_on,74,69,0
1,note_on,74,0,960
1,note_on,78,0,0
1,note_on,66,0,0
1,note_on,69,0,0
1,note_on,81,70,0
1,note_on,85,77,0
1,note_on,88,77,0
1,note_on,76,70,0
1,note_on,76,0,480
1,note_on,81,0,0
1,note_on,85,0,0
1,note_on,88,0,0
1,note_on,85,79,0
1,note_on,73,72,0
1,note_on,73,0,480
1,note_on,85,0,0
1,note_on,87,80,0
1,note_on,75,73,0
1,note_on,78,73,0
1,note_on,83,80,0
1,note_on,83,0,480
1,note_on,87,0,0
1,note_on,75,0,0
1,note_on,78,0,0
1,note_on,71,66,0
1,note_on,83,72,0
1,note_on,83,0,480
1,note_on,71,0,0
1,note_on,76,73,0
1,note_on,81,80,0
1,note_on,85,80,0
1,note_on,73,73,0
1,note_on,73,0,960
1,note_on,76,0,0
1,note_on,81,0,0
1,note_on,85,0,0
1,note_on,74,77,0
1,note_on,66,70,0
1,note_on,69,70,0
1,note_on,78,77,0
1,note_on,78,0,960
1,note_on,74,0,0
1,note_on,66,0,0
1,note_on,69,0,0
1,note_on,81,77,0
1,note_on,76,77,0
1,note_on,88,84,0
1,note_on,85,84,0
1,note_on,85,0,480
1,note_on,81,0,0
1,note_on,76,0,0
1,note_on,88,0,0
1,note_on,85,86,0
1,note_on,73,79,0
1,note_on,73,0,480
1,note_on,85,0,0
1,note_on,87,86,0
1,note_on,83,86,0
1,note_on,78,79,0
1,note_on,75,79,0
1,note_on,75,0,480
1,note_on,87,0,0
1,note_on,83,0,0
1,note_on,78,0,0
1,note_on,71,72,0
1,note_on,83,79,0
1,note_on,83,0,480
1,note_on,71,0,0
1,note_on,76,79,0
1,note_on,73,79,0
1,note_on,85,86,0
1,note_on,81,86,0
1,note_on,81,0,480
1,note_on,76,0,0
1,note_on,73,0,0
1,note_on,85,0,0
1,note_on,69,75,0
1,note_on,81,82,0
1,note_on,81,0,480
1,note_on,69,0,0
1,note_on,69,75,0
1,note_on,66,75,0
1,note_on,78,82,0
1,note_on,74,82,0
1,note_on,74,0,960
1,note_on,69,0,0
1,note_on,66,0,0
1,note_on,78,0,0
1,note_on,78,81,0
1,note_on,73,81,0
1,note_on,85,89,0
1,note_on,81,89,0
1,note_on,81,0,960
1,note_on,78,0,0
1,note_on,73,0,0
1,note_on,85,0,0
1,note_on,74,85,0
1,note_on,69,78,0
1,note_on,66,78,0
1,note_on,78,85,0
1,note_on,78,0,960
1,note_on,74,0,0
1,note_on,69,0,0
1,note_on,66,0,0
1,note_on,78,82,0
1,note_on,73,82,0
1,note_on,81,90,0
1,note_on,85,90,0
1,note_on,85,0,960
1,note_on,78,0,0
1,note_on,73,0,0
1,note_on,81,0,0
1,note_on,74,74,0
1,note_on,80,81,0
1,note_on,68,74,0
1,note_on,71,74,0
1,note_on,71,0,480
1,note_on,74,0,0
1,note_on,80,0,0
1,note_on,68,0,0
1,note_on,66,75,0
1,note_on,78,82,0
1,note_on,78,0,480
1,note_on,66,0,0
1,note_on,81,88,0
1,note_on,85,88,0
1,note_on,73,80,0
1,note_on,76,80,0
1,note_on,76,0,960
1,note_on,81,0,0
1,note_on,85,0,0
1,note_on,73,0,0
1,note_on,69,77,0
1,note_on,74,84,0
1,note_on,78,84,0
1,note_on,66,77,0
1,note_on,66,0,960
1,note_on,69,0,0
1,note_on,74,0,0
1,note_on,78,0,0
1,note_on,78,80,0
1,note_on,73,80,0
1,note_on,85,88,0
1,note_on,81,88,0
1,note_on,81,0,960
1,note_on,78,0,0
1,note_on,73,0,0
1,note_on,85,0,0
1,note_on,75,79,0
1,note_on,78,79,0
1,note_on,87,86,0
1,note_on,84,86,0
1,note_on,84,0,960
1,note_on,75,0,0
1,note_on,78,0,0
1,note_on,87,0,0
1,note_on,88,77,0
1,note_on,80,70,0
1,note_on,85,77,0
1,note_on,76,70,0
1,note_on,76,0,480
1,note_on,88,0,0
1,note_on,80,0,0
1,note_on,85,0,0
1,note_on,80,68,0
1,note_on,92,75,0
1,note_on,92,0,480
1,note_on,80,0,0
1,note_on,74,71,0
1,note_on,78,71,0
1,note_on,81,71,0
1,note_on,86,78,0
1,note_on,86,0,960
1,note_on,74,0,0
1,note_on,78,0,0
1,note_on,81,0,0
1,note_on,72,61,0
1,note_on,78,61,0
1,note_on,84,61,0
1,note_on,80,61,0
1,note_on,80,0,960
1,note_on,72,0,0
1,note_on,78,0,0
1,note_on,84,0,0
1,note_on,76,55,0
1,note_on,73,55,0
1,note_on,80,55,0
1,note_on,85,55,0
1,note_on,85,0,480
1,note_on,76,0,0
1,note_on,73,0,0
1,note_on,80,0,0
1,note_on,68,44,0
1,note_on,80,44,0
1,note_on,80,0,480
1,note_on,68,0,0
1,note_on,75,44,0
1,note_on,81,44,0
1,note_on,73,44,0
1,note_on,69,44,0
1,note_on,69,0,960
1,note_on,75,0,0
1,note_on,81,0,0
1,note_on,73,0,0
1,note_on,76,38,0
1,note_on,80,38,0
1,note_on,68,38,0
1,note_on,73,38,0
1,note_on,73,0,960
1,note_on,76,0,0
1,note_on,80,0,0
1,note_on,68,0,0
1,note_on,66,47,0
1,note_on,73,47,0
1,note_on,75,47,0
1,note_on,78,47,0
1,note_on,78,0,960
1,note_on,66,0,0
1,note_on,73,0,0
1,note_on,75,0,0
1,note_on,73,52,0
1,note_on,85,52,0
1,note_on,85,0,240
1,note_on,73,0,0
1,note_on,73,84,720
1,note_on,79,84,0
1,note_on,82,84,0
1,note_on,70,84,0
1,note_on,70,0,1920
1,note_on,73,0,0
1,note_on,79,0,0
1,note_on,82,0,0
1,note_on,75,96,0
1,note_on,80,96,0
1,note_on,83,96,0
1,note_on,71,96,0
1,note_on,71,0,480
1,note_on,75,0,0
1,note_on,80,0,0
1,note_on,83,0,0
1,note_on,92,104,480
1,note_on,80,104,0
1,note_on,80,0,480
1,note_on,92,0,0
1,note_on,88,99,480
1,note_on,76,99,0
1,note_on,85,99,0
1,note_on,80,99,0
1,note_on,80,0,480
1,note_on,88,0,0
1,note_on,76,0,0
1,note_on,85,0,0
1,note_on,87,95,480
1,note_on,83,95,0
1,note_on,79,95,0
1,note_on,75,95,0
1,note_on,75,0,480
1,note_on,87,0,0
1,note_on,83,0,0
1,note_on,79,0,0
1,note_on,71,94,0
1,note_on,83,94,0
1,note_on,83,0,480
1,note_on,71,0,0
1,note_on,68,90,0
1,note_on,80,100,0
1,note_on,80,0,480
1,note_on,68,0,0
1,note_on,75,102,480
1,note_on,63,86,0
1,note_on,63,0,1440
1,note_on,75,0,0
1,note_on,78,100,0
1,note_on,66,90,0
1,note_on,66,0,240
1,note_on,78,0,0
1,note_on,76,92,0
1,note_on,64,82,0
1,note_on,64,0,240
1,note_on,76,0,0
1,note_on,63,88,0
1,note_on,75,98,0
1,note_on,75,0,480
1,note_on,63,0,0
1,note_on,64,82,0
1,note_on,76,92,0
1,note_on,76,0,480
1,note_on,64,0,0
1,note_on,75,96,0
1,note_on,63,86,0
1,note_on,63,0,480
1,note_on,75,0,0
1,note_on,80,106,0
1,note_on,68,95,0
1,note_on,68,0,480
1,note_on,80,0,0
1,note_on,82,110,0
1,note_on,70,99,0
1,note_on,70,0,480
1,note_on,82,0,0
1,note_on,83,110,0
1,note_on,71,99,0
1,note_on,71,0,480
1,note_on,83,0,0
1,note_on,82,113,0
1,note_on,70,101,0
1,note_on,70,0,960
1,note_on,82,0,0
1,note_on,80,110,0
1,note_on,68,99,0
1,note_on,68,0,480
1,note_on,80,0,0
1,note_on,85,113,480
1,note_on,73,101,0
1,note_on,73,0,960
1,note_on,85,0,0
1,note_on,80,95,0
1,note_on,92,106,0
1,note_on,92,0,480
1,note_on,80,0,0
1,note_on,85,115,480
1,note_on,73,103,0
1,note_on,73,0,960
1,note_on,85,0,0
1,note_on,92,106,0
1,note_on,80,95,0
1,note_on,80,0,480
1,note_on,92,0,0
1,note_on,92,104,0
1,note_on,80,93,0
1,note_on,80,0,480
1,note_on,92,0,0
1,note_on,87,110,0
1,note_on,75,99,0
1,note_on,75,0,960
1,note_on,87,0,0
1,note_on,85,105,0
1,note_on,73,94,0
1,note_on,73,0,960
1,note_on,85,0,0
1,note_on,83,102,0
1,note_on,71,91,0
1,note_on,71,0,480
1,note_on,83,0,0
1,note_on,87,96,0
1,note_on,75,86,0
1,note_on,75,0,480
1,note_on,87,0,0
1,note_on,82,102,0
1,note_on,70,91,0
1,note_on,70,0,480
1,note_on,82,0,0
1,note_on,80,96,480
1,note_on,68,86,0
1,note_on,68,0,960
1,note_on,80,0,0
1,note_on,78,89,0
1,note_on,66,80,0
1,note_on,66,0,480
1,note_on,78,0,0
1,note_on,76,81,0
1,note_on,64,72,0
1,note_on,64,0,480
1,note_on,76,0,0
1,note_on,75,85,0
1,note_on,63,76,0
1,note_on,63,0,480
1,note_on,75,0,0
1,note_on,51,57,480
1,note_on,51,0,1440
1,note_on,54,59,0
1,note_on,54,0,240
1,note_on,52,56,0
1,note_on,52,0,240
1,note_on,51,59,0
1,note_on,51,0,480
1,note_on,52,56,0
1,note_on,52,0,480
1,note_on,51,59,0
1,note_on,51,0,480
1,note_on,56,58,0
1,note_on,56,0,480
1,note_on,58,59,0
1,note_on,58,0,480
1,note_on,59,59,0
1,note_on,59,0,480
1,note_on,58,62,0
1,note_on,58,0,960
1,note_on,56,59,0
1,note_on,56,0,480
1,note_on,61,68,480
1,note_on,61,0,960
1,note_on,64,63,0
1,note_on,64,0,480
1,note_on,64,68,480
1,note_on,64,0,960
1,note_on,64,66,0
1,note_on,64,0,960
1,note_on,68,64,960
1,note_on,68,0,960
1,note_on,63,65,0
1,note_on,63,0,480
1,note_on,59,57,0
1,note_on,59,0,480
1,note_on,58,62,0
1,note_on,58,0,960
1,note_on,56,54,0
1,note_on,56,0,480
1,note_on,51,35,4320
1,note_on,51,0,1440
1,note_on,54,33,0
1,note_on,54,0,240
1,note_on,52,30,0
1,note_on,52,0,240
1,note_on,51,34,0
1,note_on,51,0,480
1,note_on,52,32,0
1,note_on,52,0,480
1,note_on,51,29,3840
1,note_on,51,0,1440
2,note_on,32,32,0
2,note_on,39,32,0
2,note_on,44,38,0
2,note_on,44,0,480
2,note_on,39,0,0
2,note_on,32,0,0
2,note_on,39,29,0
2,note_on,35,29,0
2,note_on,47,35,0
2,note_on,47,0,480
2,note_on,35,0,0
2,note_on,39,0,0
2,note_on,32,32,0
2,note_on,44,38,0
2,note_on,39,32,0
2,note_on,39,0,480
2,note_on,44,0,0
2,note_on,32,0,0
2,note_on,39,29,0
2,note_on,47,35,0
2,note_on,35,29,0
2,note_on,35,0,480
2,note_on,47,0,0
2,note_on,39,0,0
2,note_on,32,32,0
2,note_on,44,38,0
2,note_on,39,32,0
2,note_on,39,0,480
2,note_on,44,0,0
2,note_on,32,0,0
2,note_on,35,29,0
2,note_on,47,35,0
2,note_on,39,29,0
2,note_on,39,0,480
2,note_on,47,0,0
2,note_on,35,0,0
2,note_on,39,32,0
2,note_on,32,32,0
2,note_on,44,38,0
2,note_on,44,0,480
2,note_on,32,0,0
2,note_on,39,0,0
2,note_on,39,29,0
2,note_on,35,29,0
2,note_on,47,35,0
2,note_on,47,0,480
2,note_on,35,0,0
2,note_on,39,0,0
2,note_on,39,32,0
2,note_on,32,32,0
2,note_on,44,38,0
2,note_on,44,0,480
2,note_on,32,0,0
2,note_on,39,0,0
2,note_on,39,29,0
2,note_on,47,35,0
2,note_on,35,29,0
2,note_on,35,0,480
2,note_on,47,0,0
2,note_on,39,0,0
2,note_on,39,35,0
2,note_on,44,42,0
2,note_on,32,35,0
2,note_on,32,0,480
2,note_on,44,0,0
2,note_on,39,0,0
2,note_on,39,31,0
2,note_on,35,31,0
2,note_on,47,37,0
2,note_on,47,0,480
2,note_on,35,0,0
2,note_on,39,0,0
2,note_on,39,36,0
2,note_on,32,36,0
2,note_on,44,43,0
2,note_on,44,0,480
2,note_on,32,0,0
2,note_on,39,0,0
2,note_on,39,32,0
2,note_on,35,32,0
2,note_on,47,38,0
2,note_on,47,0,480
2,note_on,35,0,0
2,note_on,39,0,0
2,note_on,39,32,0
2,note_on,44,38,0
2,note_on,32,32,0
2,note_on,32,0,480
2,note_on,44,0,0
2,note_on,39,0,0
2,note_on,39,29,0
2,note_on,47,35,0
2,note_on,35,29,0
2,note_on,35,0,480
2,note_on,47,0,0
2,note_on,39,0,0
2,note_on,33,38,0
2,note_on,37,38,0
2,note_on,45,45,0
2,note_on,45,0,480
2,note_on,37,0,0
2,note_on,33,0,0
2,note_on,37,34,0
2,note_on,49,41,0
2,note_on,40,34,0
2,note_on,40,0,480
2,note_on,49,0,0
2,note_on,37,0,0
2,note_on,32,37,0
2,note_on,40,44,0
2,note_on,28,37,0
2,note_on,28,0,480
2,note_on,40,0,0
2,note_on,32,0,0
2,note_on,35,33,0
2,note_on,44,39,0
2,note_on,32,33,0
2,note_on,32,0,480
2,note_on,44,0,0
2,note_on,35,0,0
2,note_on,37,38,0
2,note_on,33,38,0
2,note_on,45,45,0
2,note_on,45,0,480
2,note_on,33,0,0
2,note_on,37,0,0
2,note_on,37,33,0
2,note_on,40,33,0
2,note_on,49,39,0
2,note_on,49,0,480
2,note_on,40,0,0
2,note_on,37,0,0
2,note_on,28,38,0
2,note_on,32,38,0
2,note_on,40,45,0
2,note_on,40,0,480
2,note_on,32,0,0
2,note_on,28,0,0
2,note_on,32,34,0
2,note_on,35,34,0
2,note_on,44,40,0
2,note_on,44,0,480
2,note_on,35,0,0
2,note_on,32,0,0
2,note_on,34,38,0
2,note_on,31,38,0
2,note_on,43,45,0
2,note_on,43,0,480
2,note_on,31,0,0
2,note_on,34,0,0
2,note_on,34,29,0
2,note_on,39,29,0
2,note_on,46,35,0
2,note_on,46,0,480
2,note_on,39,0,0
2,note_on,34,0,0
2,note_on,31,32,0
2,note_on,34,32,0
2,note_on,43,38,0
2,note_on,43,0,480
2,note_on,34,0,0
2,note_on,31,0,0
2,note_on,34,29,0
2,note_on,39,29,0
2,note_on,46,35,0
2,note_on,46,0,480
2,note_on,39,0,0
2,note_on,34,0,0
2,note_on,32,35,0
2,note_on,39,35,0
2,note_on,44,42,0
2,note_on,44,0,480
2,note_on,39,0,0
2,note_on,32,0,0
2,note_on,35,29,0
2,note_on,39,29,0
2,note_on,47,35,0
2,note_on,47,0,480
2,note_on,39,0,0
2,note_on,35,0,0
2,note_on,31,32,0
2,note_on,34,32,0
2,note_on,43,38,0
2,note_on,43,0,480
2,note_on,34,0,0
2,note_on,31,0,0
2,note_on,34,29,0
2,note_on,39,29,0
2,note_on,46,35,0
2,note_on,46,0,480
2,note_on,39,0,0
2,note_on,34,0,0
2,note_on,32,34,0
2,note_on,35,34,0
2,note_on,44,40,0
2,note_on,44,0,480
2,note_on,35,0,0
2,note_on,32,0,0
2,note_on,35,29,0
2,note_on,39,29,0
2,note_on,47,35,0
2,note_on,47,0,480
2,note_on,39,0,0
2,note_on,35,0,0
2,note_on,33,32,0
2,note_on,37,32,0
2,note_on,45,38,0
2,note_on,45,0,480
2,note_on,37,0,0
2,note_on,33,0,0
2,note_on,37,28,0
2,note_on,40,28,0
2,note_on,49,33,0
2,note_on,49,0,480
2,note_on,40,0,0
2,note_on,37,0,0
2,note_on,32,30,0
2,note_on,39,30,0
2,note_on,44,36,0
2,note_on,44,0,480
2,note_on,39,0,0
2,note_on,32,0,0
2,note_on,35,26,0
2,note_on,39,26,0
2,note_on,47,31,0
2,note_on,47,0,480
2,note_on,39,0,0
2,note_on,35,0,0
2,note_on,32,38,0
2,note_on,39,38,0
2,note_on,44,45,0
2,note_on,44,0,480
2,note_on,39,0,0
2,note_on,32,0,0
2,note_on,35,32,0
2,note_on,39,32,0
2,note_on,47,38,0
2,note_on,47,0,480
2,note_on,39,0,0
2,note_on,35,0,0
2,note_on,32,34,0
2,note_on,39,34,0
2,note_on,44,41,0
2,note_on,44,0,480
2,note_on,39,0,0
2,note_on,32,0,0
2,note_on,35,32,0
2,note_on,39,32,0
2,note_on,47,38,0
2,note_on,47,0,480
2,note_on,39,0,0
2,note_on,35,0,0
2,note_on,32,34,0
2,note_on,39,34,0
2,note_on,44,41,0
2,note_on,44,0,480
2,note_on,39,0,0
2,note_on,32,0,0
2,note_on,35,32,0
2,note_on,39,32,0
2,note_on,47,38,0
2,note_on,47,0,480
2,note_on,39,0,0
2,note_on,35,0,0
2,note_on,32,34,0
2,note_on,39,34,0
2,note_on,44,41,0
2,note_on,44,0,480
2,note_on,39,0,0
2,note_on,32,0,0
2,note_on,35,32,0
2,note_on,39,32,0
2,note_on,47,38,0
2,note_on,47,0,480
2,note_on,39,0,0
2,note_on,35,0,0
2,note_on,32,39,0
2,note_on,39,39,0
2,note_on,44,46,0
2,note_on,44,0,480
2,note_on,39,0,0
2,note_on,32,0,0
2,note_on,35,34,0
2,note_on,39,34,0
2,note_on,47,40,0
2,note_on,47,0,480
2,note_on,39,0,0
2,note_on,35,0,0
2,note_on,32,39,0
2,note_on,39,39,0
2,note_on,44,47,0
2,note_on,44,0,480
2,note_on,39,0,0
2,note_on,32,0,0
2,note_on,35,34,0
2,note_on,39,34,0
2,note_on,47,41,0
2,note_on,47,0,480
2,note_on,39,0,0
2,note_on,35,0,0
2,note_on,32,34,0
2,note_on,39,34,0
2,note_on,44,41,0
2,note_on,44,0,480
2,note_on,39,0,0
2,note_on,32,0,0
2,note_on,35,32,0
2,note_on,39,32,0
2,note_on,47,38,0
2,note_on,47,0,480
2,note_on,39,0,0
2,note_on,35,0,0
2,note_on,37,46,0
2,note_on,33,46,0
2,note_on,45,55,0
2,note_on,45,0,480
2,note_on,33,0,0
2,note_on,37,0,0
2,note_on,37,41,0
2,note_on,40,41,0
2,note_on,49,49,0
2,note_on,49,0,480
2,note_on,40,0,0
2,note_on,37,0,0
2,note_on,28,45,0
2,note_on,32,45,0
2,note_on,40,53,0
2,note_on,40,0,480
2,note_on,32,0,0
2,note_on,28,0,0
2,note_on,32,41,0
2,note_on,35,41,0
2,note_on,44,49,0
2,note_on,44,0,480
2,note_on,35,0,0
2,note_on,32,0,0
2,note_on,37,48,0
2,note_on,33,48,0
2,note_on,45,57,0
2,note_on,45,0,480
2,note_on,33,0,0
2,note_on,37,0,0
2,note_on,37,43,0
2,note_on,40,43,0
2,note_on,49,51,0
2,note_on,49,0,480
2,note_on,40,0,0
2,note_on,37,0,0
2,note_on,28,49,0
2,note_on,32,49,0
2,note_on,40,58,0
2,note_on,40,0,480
2,note_on,32,0,0
2,note_on,28,0,0
2,note_on,32,44,0
2,note_on,35,44,0
2,note_on,44,52,0
2,note_on,44,0,480
2,note_on,35,0,0
2,note_on,32,0,0
2,note_on,30,48,0
2,note_on,33,48,0
2,note_on,42,57,0
2,note_on,42,0,480
2,note_on,33,0,0
2,note_on,30,0,0
2,note_on,33,44,0
2,note_on,38,44,0
2,note_on,45,52,0
2,note_on,45,0,480
2,note_on,38,0,0
2,note_on,33,0,0
2,note_on,30,49,0
2,note_on,38,49,0
2,note_on,42,58,0
2,note_on,42,0,480
2,note_on,38,0,0
2,note_on,30,0,0
2,note_on,33,45,0
2,note_on,38,45,0
2,note_on,45,53,0
2,note_on,45,0,480
2,note_on,38,0,0
2,note_on,33,0,0
2,note_on,30,50,0
2,note_on,38,50,0
2,note_on,42,59,0
2,note_on,42,0,480
2,note_on,38,0,0
2,note_on,30,0,0
2,note_on,33,42,0
2,note_on,38,42,0
2,note_on,45,50,0
2,note_on,45,0,480
2,note_on,38,0,0
2,note_on,33,0,0
2,note_on,32,50,0
2,note_on,39,50,0
2,note_on,44,59,0
2,note_on,44,0,480
2,note_on,39,0,0
2,note_on,32,0,0
2,note_on,36,44,0
2,note_on,39,44,0
2,note_on,48,52,0
2,note_on,48,0,480
2,note_on,39,0,0
2,note_on,36,0,0
2,note_on,37,49,0
2,note_on,33,49,0
2,note_on,45,58,0
2,note_on,45,0,480
2,note_on,33,0,0
2,note_on,37,0,0
2,note_on,37,43,0
2,note_on,40,43,0
2,note_on,49,51,0
2,note_on,49,0,480
2,note_on,40,0,0
2,note_on,37,0,0
2,note_on,28,46,0
2,note_on,32,46,0
2,note_on,40,55,0
2,note_on,40,0,480
2,note_on,32,0,0
2,note_on,28,0,0
2,note_on,32,42,0
2,note_on,35,42,0
2,note_on,44,50,0
2,note_on,44,0,480
2,note_on,35,0,0
2,note_on,32,0,0
2,note_on,42,45,0
2,note_on,35,45,0
2,note_on,47,54,0
2,note_on,47,0,480
2,note_on,35,0,0
2,note_on,42,0,0
2,note_on,39,32,0
2,note_on,42,32,0
2,note_on,51,38,0
2,note_on,51,0,480
2,note_on,42,0,0
2,note_on,39,0,0
2,note_on,31,45,0
2,note_on,39,45,0
2,note_on,43,54,0
2,note_on,43,0,480
2,note_on,39,0,0
2,note_on,31,0,0
2,note_on,34,35,0
2,note_on,39,35,0
2,note_on,46,42,0
2,note_on,46,0,480
2,note_on,39,0,0
2,note_on,34,0,0
2,note_on,32,39,0
2,note_on,39,39,0
2,note_on,44,46,0
2,note_on,44,0,480
2,note_on,39,0,0
2,note_on,32,0,0
2,note_on,35,30,0
2,note_on,39,30,0
2,note_on,47,36,0
2,note_on,47,0,480
2,note_on,39,0,0
2,note_on,35,0,0
2,note_on,32,37,0
2,note_on,39,37,0
2,note_on,44,44,0
2,note_on,44,0,480
2,note_on,39,0,0
2,note_on,32,0,0
2,note_on,35,31,0
2,note_on,39,31,0
2,note_on,47,37,0
2,note_on,47,0,480
2,note_on,39,0,0
2,note_on,35,0,0
2,note_on,33,44,0
2,note_on,37,44,0
2,note_on,45,52,0
2,note_on,45,0,480
2,note_on,37,0,0
2,note_on,37,41,0
2,note_on,45,49,0
2,note_on,45,0,480
2,note_on,37,0,0
2,note_on,33,0,0
2,note_on,35,44,0
2,note_on,39,44,0
2,note_on,47,52,0
2,note_on,47,0,480
2,note_on,39,0,0
2,note_on,39,48,0
2,note_on,47,48,0
2,note_on,47,0,480
2,note_on,39,0,0
2,note_on,35,0,0
2,note_on,37,44,0
2,note_on,40,44,0
2,note_on,49,52,0
2,note_on,49,0,480
2,note_on,40,0,0
2,note_on,40,42,0
2,note_on,49,50,0
2,note_on,49,0,480
2,note_on,40,0,0
2,note_on,37,0,0
2,note_on,38,45,0
2,note_on,42,45,0
2,note_on,50,53,0
2,note_on,50,0,480
2,note_on,42,0,0
2,note_on,42,42,0
2,note_on,50,50,0
2,note_on,50,0,480
2,note_on,42,0,0
2,note_on,38,0,0
2,note_on,33,45,0
2,note_on,37,45,0
2,note_on,45,53,0
2,note_on,45,0,480
2,note_on,37,0,0
2,note_on,37,39,0
2,note_on,45,47,0
2,note_on,45,0,480
2,note_on,37,0,0
2,note_on,33,0,0
2,note_on,35,44,0
2,note_on,39,44,0
2,note_on,47,52,0
2,note_on,47,0,480
2,note_on,39,0,0
2,note_on,39,38,0
2,note_on,47,45,0
2,note_on,47,0,480
2,note_on,39,0,0
2,note_on,35,0,0
2,note_on,37,44,0
2,note_on,40,44,0
2,note_on,49,52,0
2,note_on,49,0,480
2,note_on,40,0,0
2,note_on,40,42,0
2,note_on,49,50,0
2,note_on,49,0,480
2,note_on,40,0,0
2,note_on,37,0,0
2,note_on,38,44,0
2,note_on,42,44,0
2,note_on,50,52,0
2,note_on,50,0,480
2,note_on,42,0,0
2,note_on,42,40,0
2,note_on,50,48,0
2,note_on,50,0,480
2,note_on,42,0,0
2,note_on,38,0,0
2,note_on,33,47,0
2,note_on,37,47,0
2,note_on,45,56,0
2,note_on,45,0,480
2,note_on,37,0,0
2,note_on,37,42,0
2,note_on,45,50,0
2,note_on,45,0,480
2,note_on,37,0,0
2,note_on,33,0,0
2,note_on,35,47,0
2,note_on,39,47,0
2,note_on,47,56,0
2,note_on,47,0,480
2,note_on,39,0,0
2,note_on,39,41,0
2,note_on,47,49,0
2,note_on,47,0,480
2,note_on,39,0,0
2,note_on,35,0,0
2,note_on,37,47,0
2,note_on,40,47,0
2,note_on,49,56,0
2,note_on,49,0,480
2,note_on,40,0,0
2,note_on,40,43,0
2,note_on,49,51,0
2,note_on,49,0,480
2,note_on,40,0,0
2,note_on,37,0,0
2,note_on,38,46,0
2,note_on,42,46,0
2,note_on,50,55,0
2,note_on,50,0,480
2,note_on,42,0,0
2,note_on,42,42,0
2,note_on,50,50,0
2,note_on,50,0,480
2,note_on,42,0,0
2,note_on,38,0,0
2,note_on,33,48,0
2,note_on,37,48,0
2,note_on,45,57,0
2,note_on,45,0,480
2,note_on,37,0,0
2,note_on,37,42,0
2,note_on,45,50,0
2,note_on,45,0,480
2,note_on,37,0,0
2,note_on,33,0,0
2,note_on,38,47,0
2,note_on,42,47,0
2,note_on,50,56,0
2,note_on,50,0,480
2,note_on,42,0,0
2,note_on,42,45,0
2,note_on,50,53,0
2,note_on,50,0,480
2,note_on,42,0,0
2,note_on,38,0,0
2,note_on,37,48,0
2,note_on,45,57,0
2,note_on,33,48,0
2,note_on,45,0,480
2,note_on,37,0,0
2,note_on,37,44,0
2,note_on,45,52,0
2,note_on,45,0,480
2,note_on,37,0,0
2,note_on,33,0,0
2,note_on,35,48,0
2,note_on,38,48,0
2,note_on,47,57,0
2,note_on,47,0,480
2,note_on,38,0,0
2,note_on,38,44,0
2,note_on,47,52,0
2,note_on,47,0,480
2,note_on,38,0,0
2,note_on,35,0,0
2,note_on,37,49,0
2,note_on,33,49,0
2,note_on,45,58,0
2,note_on,45,0,480
2,note_on,37,0,0
2,note_on,37,45,0
2,note_on,45,53,0
2,note_on,45,0,480
2,note_on,37,0,0
2,note_on,33,0,0
2,note_on,38,50,0
2,note_on,42,50,0
2,note_on,50,59,0
2,note_on,50,0,480
2,note_on,42,0,0
2,note_on,42,46,0
2,note_on,50,55,0
2,note_on,50,0,480
2,note_on,42,0,0
2,note_on,38,0,0
2,note_on,49,59,0
2,note_on,42,50,0
2,note_on,37,50,0
2,note_on,42,0,480
2,note_on,49,0,0
2,note_on,42,46,0
2,note_on,49,55,0
2,note_on,49,0,480
2,note_on,42,0,0
2,note_on,37,0,0
2,note_on,44,52,0
2,note_on,48,62,0
2,note_on,36,52,0
2,note_on,48,0,480
2,note_on,44,0,0
2,note_on,44,47,0
2,note_on,48,56,0
2,note_on,48,0,480
2,note_on,44,0,0
2,note_on,36,0,0
2,note_on,49,53,0
2,note_on,44,45,0
2,note_on,37,45,0
2,note_on,44,0,480
2,note_on,49,0,0
2,note_on,44,40,0
2,note_on,49,48,0
2,note_on,49,0,480
2,note_on,44,0,0
2,note_on,37,0,0
2,note_on,42,44,0
2,note_on,50,52,0
2,note_on,38,44,0
2,note_on,50,0,480
2,note_on,42,0,0
2,note_on,42,38,0
2,note_on,50,45,0
2,note_on,50,0,480
2,note_on,42,0,0
2,note_on,38,0,0
2,note_on,44,37,0
2,note_on,51,45,0
2,note_on,39,37,0
2,note_on,51,0,480
2,note_on,44,0,0
2,note_on,44,34,0
2,note_on,51,41,0
2,note_on,51,0,480
2,note_on,44,0,0
2,note_on,39,0,0
2,note_on,49,35,0
2,note_on,52,41,0
2,note_on,40,35,0
2,note_on,52,0,480
2,note_on,49,0,0
2,note_on,49,31,0
2,note_on,52,37,0
2,note_on,52,0,480
2,note_on,49,0,0
2,note_on,40,0,0
2,note_on,49,27,0
2,note_on,54,32,0
2,note_on,42,27,0
2,note_on,54,0,480
2,note_on,49,0,0
2,note_on,49,20,0
2,note_on,54,24,0
2,note_on,54,0,480
2,note_on,49,0,0
2,note_on,42,0,0
2,note_on,49,23,0
2,note_on,56,27,0
2,note_on,44,23,0
2,note_on,56,0,480
2,note_on,49,0,0
2,note_on,49,19,0
2,note_on,56,22,0
2,note_on,56,0,480
2,note_on,49,0,0
2,note_on,44,0,0
2,note_on,49,28,0
2,note_on,57,34,0
2,note_on,45,28,0
2,note_on,57,0,480
2,note_on,49,0,0
2,note_on,49,28,0
2,note_on,57,34,0
2,note_on,57,0,480
2,note_on,49,0,0
2,note_on,45,0,0
2,note_on,51,28,0
2,note_on,54,33,0
2,note_on,42,28,0
2,note_on,54,0,480
2,note_on,51,0,0
2,note_on,51,36,0
2,note_on,54,43,0
2,note_on,54,0,480
2,note_on,51,0,0
2,note_on,42,0,0
2,note_on,55,67,0
2,note_on,51,56,0
2,note_on,43,56,0
2,note_on,51,0,480
2,note_on,55,0,0
2,note_on,51,50,0
2,note_on,55,59,0
2,note_on,55,0,480
2,note_on,51,0,0
2,note_on,43,0,0
2,note_on,46,56,0
2,note_on,51,67,0
2,note_on,39,56,0
2,note_on,51,0,480
2,note_on,46,0,0
2,note_on,46,51,0
2,note_on,51,60,0
2,note_on,51,0,480
2,note_on,46,0,0
2,note_on,39,0,0
2,note_on,51,65,0
2,note_on,56,77,0
2,note_on,44,65,0
2,note_on,56,0,480
2,note_on,51,0,0
2,note_on,51,60,0
2,note_on,56,71,0
2,note_on,56,0,480
2,note_on,51,0,0
2,note_on,44,0,0
2,note_on,47,77,0
2,note_on,39,65,0
2,note_on,35,65,0
2,note_on,39,0,480
2,note_on,47,0,0
2,note_on,39,62,0
2,note_on,47,73,0
2,note_on,47,0,480
2,note_on,39,0,0
2,note_on,35,0,0
2,note_on,49,77,0
2,note_on,44,65,0
2,note_on,37,65,0
2,note_on,44,0,480
2,note_on,49,0,0
2,note_on,44,56,0
2,note_on,49,67,0
2,note_on,49,0,480
2,note_on,44,0,0
2,note_on,37,0,0
2,note_on,51,74,0
2,note_on,43,62,0
2,note_on,39,62,0
2,note_on,43,0,480
2,note_on,51,0,0
2,note_on,43,57,0
2,note_on,51,68,0
2,note_on,51,0,480
2,note_on,43,0,0
2,note_on,39,0,0
2,note_on,32,57,0
2,note_on,39,64,0
2,note_on,44,76,0
2,note_on,44,0,480
2,note_on,39,0,0
2,note_on,32,0,0
2,note_on,35,52,0
2,note_on,39,58,0
2,note_on,47,69,0
2,note_on,47,0,480
2,note_on,39,0,0
2,note_on,35,0,0
2,note_on,32,57,0
2,note_on,39,64,0
2,note_on,44,76,0
2,note_on,44,0,480
2,note_on,39,0,0
2,note_on,32,0,0
2,note_on,35,47,0
2,note_on,39,53,0
2,note_on,47,63,0
2,note_on,47,0,480
2,note_on,39,0,0
2,note_on,35,0,0
2,note_on,32,58,0
2,note_on,39,65,0
2,note_on,44,77,0
2,note_on,44,0,480
2,note_on,39,0,0
2,note_on,32,0,0
2,note_on,35,53,0
2,note_on,39,59,0
2,note_on,47,70,0
2,note_on,47,0,480
2,note_on,39,0,0
2,note_on,35,0,0
2,note_on,32,58,0
2,note_on,39,65,0
2,note_on,44,77,0
2,note_on,44,0,480
2,note_on,39,0,0
2,note_on,32,0,0
2,note_on,35,52,0
2,note_on,39,58,0
2,note_on,47,69,0
2,note_on,47,0,480
2,note_on,39,0,0
2,note_on,35,0,0
2,note_on,32,56,0
2,note_on,39,62,0
2,note_on,44,74,0
2,note_on,44,0,480
2,note_on,39,0,0
2,note_on,32,0,0
2,note_on,35,51,0
2,note_on,39,57,0
2,note_on,47,68,0
2,note_on,47,0,480
2,note_on,39,0,0
2,note_on,35,0,0
2,note_on,32,58,0
2,note_on,39,65,0
2,note_on,44,77,0
2,note_on,44,0,480
2,note_on,39,0,0
2,note_on,32,0,0
2,note_on,35,51,0
2,note_on,39,57,0
2,note_on,47,68,0
2,note_on,47,0,480
2,note_on,39,0,0
2,note_on,35,0,0
2,note_on,32,60,0
2,note_on,39,67,0
2,note_on,44,79,0
2,note_on,44,0,480
2,note_on,39,0,0
2,note_on,32,0,0
2,note_on,35,52,0
2,note_on,39,58,0
2,note_on,47,69,0
2,note_on,47,0,480
2,note_on,39,0,0
2,note_on,35,0,0
2,note_on,32,56,0
2,note_on,39,62,0
2,note_on,44,74,0
2,note_on,44,0,480
2,note_on,39,0,0
2,note_on,32,0,0
2,note_on,35,53,0
2,note_on,39,59,0
2,note_on,47,70,0
2,note_on,47,0,480
2,note_on,39,0,0
2,note_on,35,0,0
2,note_on,37,69,0
2,note_on,33,62,0
2,note_on,45,82,0
2,note_on,45,0,480
2,note_on,33,0,0
2,note_on,37,0,0
2,note_on,37,48,0
2,note_on,40,54,0
2,note_on,49,64,0
2,note_on,49,0,480
2,note_on,40,0,0
2,note_on,37,0,0
2,note_on,52,70,0
2,note_on,44,59,0
2,note_on,40,59,0
2,note_on,40,0,480
2,note_on,44,0,0
2,note_on,52,0,0
2,note_on,56,66,0
2,note_on,47,56,0
2,note_on,44,50,0
2,note_on,44,0,480
2,note_on,47,0,0
2,note_on,56,0,0
2,note_on,37,69,0
2,note_on,33,62,0
2,note_on,45,82,0
2,note_on,45,0,480
2,note_on,33,0,0
2,note_on,37,0,0
2,note_on,37,51,0
2,note_on,40,56,0
2,note_on,49,67,0
2,note_on,49,0,480
2,note_on,40,0,0
2,note_on,37,0,0
2,note_on,52,75,0
2,note_on,44,63,0
2,note_on,40,56,0
2,note_on,40,0,480
2,note_on,44,0,0
2,note_on,52,0,0
2,note_on,56,65,0
2,note_on,47,55,0
2,note_on,44,49,0
2,note_on,44,0,480
2,note_on,47,0,0
2,note_on,56,0,0
2,note_on,34,69,0
2,note_on,31,62,0
2,note_on,43,82,0
2,note_on,43,0,480
2,note_on,31,0,0
2,note_on,34,0,0
2,note_on,34,47,0
2,note_on,39,53,0
2,note_on,46,63,0
2,note_on,46,0,480
2,note_on,39,0,0
2,note_on,34,0,0
2,note_on,31,52,0
2,note_on,34,58,0
2,note_on,43,69,0
2,note_on,43,0,480
2,note_on,34,0,0
2,note_on,31,0,0
2,note_on,34,40,0
2,note_on,39,45,0
2,note_on,46,54,0
2,note_on,46,0,480
2,note_on,39,0,0
2,note_on,34,0,0
2,note_on,32,58,0
2,note_on,39,65,0
2,note_on,44,77,0
2,note_on,44,0,480
2,note_on,39,0,0
2,note_on,32,0,0
2,note_on,35,47,0
2,note_on,39,53,0
2,note_on,47,63,0
2,note_on,47,0,480
2,note_on,39,0,0
2,note_on,35,0,0
2,note_on,27,49,0
2,note_on,34,55,0
2,note_on,39,65,0
2,note_on,39,0,480
2,note_on,34,0,0
2,note_on,27,0,0
2,note_on,31,39,0
2,note_on,39,45,0
2,note_on,43,53,0
2,note_on,43,0,480
2,note_on,39,0,0
2,note_on,31,0,0
2,note_on,32,53,0
2,note_on,35,60,0
2,note_on,44,71,0
2,note_on,44,0,480
2,note_on,35,0,0
2,note_on,32,0,0
2,note_on,35,40,0
2,note_on,39,45,0
2,note_on,47,54,0
2,note_on,47,0,480
2,note_on,39,0,0
2,note_on,35,0,0
2,note_on,33,44,0
2,note_on,37,49,0
2,note_on,45,58,0
2,note_on,45,0,480
2,note_on,37,0,0
2,note_on,33,0,0
2,note_on,37,38,0
2,note_on,40,42,0
2,note_on,49,50,0
2,note_on,49,0,480
2,note_on,40,0,0
2,note_on,37,0,0
2,note_on,32,40,0
2,note_on,39,45,0
2,note_on,44,54,0
2,note_on,44,0,480
2,note_on,39,0,0
2,note_on,32,0,0
2,note_on,35,28,0
2,note_on,39,31,0
2,note_on,47,37,0
2,note_on,47,0,480
2,note_on,39,0,0
2,note_on,35,0,0
2,note_on,32,25,0
2,note_on,39,28,0
2,note_on,44,34,0
2,note_on,44,0,480
2,note_on,39,0,0
2,note_on,32,0,0
2,note_on,35,23,0
2,note_on,39,27,0
2,note_on,47,32,0
2,note_on,47,0,480
2,note_on,39,0,0
2,note_on,35,0,0
2,note_on,32,25,0
2,note_on,39,28,0
2,note_on,44,34,0
2,note_on,44,0,480
2,note_on,39,0,0
2,note_on,32,0,0
2,note_on,35,23,0
2,note_on,39,27,0
2,note_on,47,32,0
2,note_on,47,0,480
2,note_on,39,0,0
2,note_on,35,0,0
2,note_on,32,25,0
2,note_on,39,28,0
2,note_on,44,34,0
2,note_on,44,0,480
2,note_on,39,0,0
2,note_on,32,0,0
2,note_on,35,23,0
2,note_on,39,27,0
2,note_on,47,32,0
2,note_on,47,0,480
2,note_on,39,0,0
2,note_on,35,0,0
2,note_on,32,25,0
2,note_on,39,28,0
2,note_on,44,34,0
2,note_on,44,0,480
2,note_on,39,0,0
2,note_on,32,0,0
2,note_on,35,22,0
2,note_on,39,24,0
2,note_on,47,29,0
2,note_on,47,0,480
2,note_on,39,0,0
2,note_on,35,0,0
2,note_on,32,26,0
2,note_on,39,29,0
2,note_on,44,35,0
2,note_on,44,0,480
2,note_on,39,0,0
2,note_on,32,0,0
2,note_on,35,23,0
2,note_on,39,26,0
2,note_on,47,31,0
2,note_on,47,0,480
2,note_on,39,0,0
2,note_on,35,0,0
2,note_on,32,27,0
2,note_on,39,30,0
2,note_on,44,36,0
2,note_on,44,0,480
2,note_on,39,0,0
2,note_on,32,0,0
2,note_on,35,23,0
2,note_on,39,27,0
2,note_on,47,32,0
2,note_on,47,0,480
2,note_on,39,0,0
2,note_on,35,0,0
2,note_on,32,23,0
2,note_on,39,27,0
2,note_on,44,32,0
2,note_on,44,0,480
2,note_on,39,0,0
2,note_on,32,0,0
2,note_on,35,22,0
2,note_on,39,24,0
2,note_on,47,29,0
2,note_on,47,0,480
2,note_on,39,0,0
2,note_on,35,0,0
2,note_on,37,36,0
2,note_on,33,32,0
2,note_on,45,43,0
2,note_on,45,0,480
2,note_on,33,0,0
2,note_on,37,0,0
2,note_on,37,29,0
2,note_on,40,33,0
2,note_on,49,39,0
2,note_on,49,0,480
2,note_on,40,0,0
2,note_on,37,0,0
2,note_on,28,32,0
2,note_on,32,36,0
2,note_on,40,43,0
2,note_on,40,0,480
2,note_on,32,0,0
2,note_on,28,0,0
2,note_on,32,29,0
2,note_on,35,33,0
2,note_on,44,39,0
2,note_on,44,0,480
2,note_on,35,0,0
2,note_on,32,0,0
2,note_on,37,38,0
2,note_on,33,34,0
2,note_on,45,45,0
2,note_on,45,0,480
2,note_on,33,0,0
2,note_on,37,0,0
2,note_on,37,28,0
2,note_on,40,33,0
2,note_on,49,39,0
2,note_on,49,0,480
2,note_on,40,0,0
2,note_on,37,0,0
2,note_on,28,34,0
2,note_on,32,39,0
2,note_on,40,46,0
2,note_on,40,0,480
2,note_on,32,0,0
2,note_on,28,0,0
2,note_on,32,30,0
2,note_on,35,34,0
2,note_on,44,40,0
2,note_on,44,0,480
2,note_on,35,0,0
2,note_on,32,0,0
2,note_on,37,39,0
2,note_on,33,34,0
2,note_on,45,46,0
2,note_on,45,0,480
2,note_on,33,0,0
2,note_on,37,0,0
2,note_on,37,24,0
2,note_on,40,28,0
2,note_on,49,33,0
2,note_on,49,0,480
2,note_on,40,0,0
2,note_on,37,0,0
2,note_on,28,34,0
2,note_on,32,39,0
2,note_on,40,46,0
2,note_on,40,0,480
2,note_on,32,0,0
2,note_on,28,0,0
2,note_on,32,24,0
2,note_on,35,28,0
2,note_on,44,33,0
2,note_on,44,0,480
2,note_on,35,0,0
2,note_on,32,0,0
2,note_on,42,38,0
2,note_on,35,34,0
2,note_on,47,45,0
2,note_on,47,0,480
2,note_on,35,0,0
2,note_on,42,0,0
2,note_on,39,23,0
2,note_on,42,27,0
2,note_on,51,32,0
2,note_on,51,0,480
2,note_on,42,0,0
2,note_on,39,0,0
2,note_on,39,37,0
2,note_on,43,37,0
2,note_on,51,44,0
2,note_on,51,0,480
2,note_on,43,0,0
2,note_on,43,29,0
2,note_on,51,35,0
2,note_on,51,0,480
2,note_on,43,0,0
2,note_on,39,0,0
2,note_on,32,28,0
2,note_on,39,33,0
2,note_on,44,39,0
2,note_on,44,0,480
2,note_on,39,0,0
2,note_on,39,23,0
2,note_on,44,28,0
2,note_on,44,0,480
2,note_on,39,0,0
2,note_on,32,0,0
2,note_on,33,22,0
2,note_on,37,25,0
2,note_on,45,30,0
2,note_on,45,0,480
2,note_on,37,0,0
2,note_on,37,23,0
2,note_on,45,28,0
2,note_on,45,0,480
2,note_on,37,0,0
2,note_on,33,0,0
2,note_on,50,30,0
2,note_on,42,25,0
2,note_on,38,22,0
2,note_on,42,0,480
2,note_on,50,0,0
2,note_on,50,28,0
2,note_on,42,23,0
2,note_on,42,0,480
2,note_on,50,0,0
2,note_on,38,0,0
2,note_on,49,30,0
2,note_on,40,25,0
2,note_on,37,22,0
2,note_on,40,0,480
2,note_on,49,0,0
2,note_on,40,23,0
2,note_on,49,28,0
2,note_on,49,0,480
2,note_on,40,0,0
2,note_on,37,0,0
2,note_on,32,22,0
2,note_on,39,25,0
2,note_on,44,30,0
2,note_on,44,0,480
2,note_on,39,0,0
2,note_on,32,0,0
2,note_on,35,18,0
2,note_on,39,22,0
2,note_on,47,26,0
2,note_on,47,0,480
2,note_on,39,0,0
2,note_on,35,0,0
2,note_on,32,22,0
2,note_on,39,24,0
2,note_on,44,29,0
2,note_on,44,0,480
2,note_on,39,0,0
2,note_on,32,0,0
2,note_on,35,19,0
2,note_on,39,22,0
2,note_on,47,27,0
2,note_on,47,0,480
2,note_on,39,0,0
2,note_on,35,0,0
2,note_on,32,22,0
2,note_on,39,25,0
2,note_on,44,30,0
2,note_on,44,0,480
2,note_on,39,0,0
2,note_on,32,0,0
2,note_on,35,20,0
2,note_on,39,23,0
2,note_on,47,28,0
2,note_on,47,0,480
2,note_on,39,0,0
2,note_on,35,0,0
2,note_on,32,22,0
2,note_on,39,24,0
2,note_on,44,29,0
2,note_on,44,0,480
2,note_on,39,0,0
2,note_on,32,0,0
2,note_on,35,19,0
2,note_on,39,22,0
2,note_on,47,27,0
2,note_on,47,0,480
2,note_on,39,0,0
2,note_on,35,0,0
2,note_on,39,23,0
2,note_on,44,28,0
2,note_on,32,21,0
2,note_on,44,0,480
2,note_on,39,0,0
2,note_on,39,21,0
2,note_on,44,25,0
2,note_on,44,0,480
2,note_on,39,0,0
2,note_on,32,0,0
2,note_on,33,21,0
2,note_on,37,23,0
2,note_on,45,28,0
2,note_on,45,0,480
2,note_on,37,0,0
2,note_on,37,21,0
2,note_on,45,25,0
2,note_on,45,0,480
2,note_on,37,0,0
2,note_on,33,0,0
2,note_on,40,28,0
2,note_on,32,23,0
2,note_on,28,21,0
2,note_on,32,0,480
2,note_on,40,0,0
2,note_on,40,25,0
2,note_on,32,21,0
2,note_on,32,0,480
2,note_on,40,0,0
2,note_on,28,0,0
2,note_on,42,28,0
2,note_on,33,23,0
2,note_on,30,21,0
2,note_on,33,0,480
2,note_on,42,0,0
2,note_on,42,23,0
2,note_on,33,19,0
2,note_on,33,0,480
2,note_on,42,0,0
2,note_on,30,0,0
2,note_on,32,18,0
2,note_on,39,21,0
2,note_on,44,25,0
2,note_on,44,0,480
2,note_on,39,0,0
2,note_on,32,0,0
2,note_on,35,12,0
2,note_on,39,14,0
2,note_on,47,17,0
2,note_on,47,0,480
2,note_on,39,0,0
2,note_on,35,0,0
2,note_on,32,18,0
2,note_on,39,20,0
2,note_on,44,24,0
2,note_on,44,0,480
2,note_on,39,0,0
2,note_on,32,0,0
2,note_on,35,14,0
2,note_on,39,16,0
2,note_on,47,19,0
2,note_on,47,0,480
2,note_on,39,0,0
2,note_on,35,0,0
2,note_on,35,22,0
2,note_on,32,18,0
2,note_on,32,0,480
2,note_on,35,0,0
2,note_on,39,17,0
2,note_on,35,14,0
2,note_on,35,0,480
2,note_on,39,0,0
2,note_on,35,23,0
2,note_on,32,19,0
2,note_on,32,0,480
2,note_on,35,0,0
2,note_on,39,17,0
2,note_on,35,14,0
2,note_on,35,0,480
2,note_on,39,0,0
2,note_on,32,24,0
2,note_on,32,0,960
2,note_on,35,19,0
2,note_on,35,0,960
2,note_on,32,21,0
2,note_on,32,0,960
2,note_on,35,17,0
2,note_on,35,0,960
