Track,Message Type,Note,Velocity,Time
1,note_on,68,40,5279
1,note_on,65,34,0
1,note_on,61,34,0
1,note_on,61,0,480
1,note_on,65,0,0
1,note_on,68,0,0
1,note_on,70,36,0
1,note_on,67,30,0
1,note_on,58,30,0
1,note_on,58,0,480
1,note_on,67,0,0
1,note_on,70,0,0
1,note_on,63,35,0
1,note_on,72,42,0
1,note_on,68,35,0
1,note_on,68,0,480
1,note_on,72,0,0
1,note_on,63,0,0
1,note_on,75,47,0
1,note_on,70,39,0
1,note_on,67,39,0
1,note_on,67,0,480
1,note_on,70,0,0
1,note_on,75,0,0
1,note_on,80,46,0
1,note_on,75,39,0
1,note_on,72,39,0
1,note_on,72,0,480
1,note_on,75,0,0
1,note_on,80,0,0
1,note_on,70,39,0
1,note_on,79,47,0
1,note_on,75,39,0
1,note_on,75,0,480
1,note_on,79,0,0
1,note_on,70,0,0
1,note_on,75,45,0
1,note_on,72,38,0
1,note_on,67,38,0
1,note_on,67,0,480
1,note_on,72,0,0
1,note_on,75,0,0
1,note_on,77,39,0
1,note_on,72,33,0
1,note_on,68,33,0
1,note_on,68,0,480
1,note_on,72,0,0
1,note_on,77,0,0
1,note_on,73,32,0
1,note_on,82,38,0
1,note_on,77,32,0
1,note_on,77,0,480
1,note_on,82,0,0
1,note_on,73,0,0
1,note_on,84,33,0
1,note_on,80,28,0
1,note_on,77,28,0
1,note_on,77,0,480
1,note_on,80,0,0
1,note_on,84,0,0
1,note_on,79,28,0
1,note_on,82,28,0
1,note_on,87,33,0
1,note_on,87,0,240
1,note_on,82,0,0
1,note_on,79,0,0
1,note_on,79,40,5520
1,note_on,67,34,0
1,note_on,75,34,0
1,note_on,70,34,0
1,note_on,70,0,480
1,note_on,79,0,0
1,note_on,67,0,0
1,note_on,75,0,0
1,note_on,65,34,0
1,note_on,68,34,0
1,note_on,73,34,0
1,note_on,77,40,0
1,note_on,77,0,480
1,note_on,65,0,0
1,note_on,68,0,0
1,note_on,73,0,0
1,note_on,80,40,0
1,note_on,75,34,0
1,note_on,68,34,0
1,note_on,72,34,0
1,note_on,72,0,480
1,note_on,80,0,0
1,note_on,75,0,0
1,note_on,68,0,0
1,note_on,75,34,0
1,note_on,79,34,0
1,note_on,82,40,0
1,note_on,70,34,0
1,note_on,70,0,480
1,note_on,75,0,0
1,note_on,79,0,0
1,note_on,82,0,0
1,note_on,77,35,0
1,note_on,82,35,0
1,note_on,85,42,0
1,note_on,73,35,0
1,note_on,73,0,480
1,note_on,77,0,0
1,note_on,82,0,0
1,note_on,85,0,0
1,note_on,85,39,0
1,note_on,77,39,0
1,note_on,82,39,0
1,note_on,89,46,0
1,note_on,89,0,480
1,note_on,85,0,0
1,note_on,77,0,0
1,note_on,82,0,0
1,note_on,82,37,0
1,note_on,79,37,0
1,note_on,91,44,0
1,note_on,87,37,0
1,note_on,87,0,450
1,note_on,82,0,0
1,note_on,79,0,0
1,note_on,91,0,0
1,note_on,79,40,30
1,note_on,84,48,0
1,note_on,75,40,0
1,note_on,72,40,0
1,note_on,72,0,480
1,note_on,79,0,0
1,note_on,84,0,0
1,note_on,75,0,0
1,note_on,80,46,0
1,note_on,68,39,0
1,note_on,72,39,0
1,note_on,75,39,0
1,note_on,75,0,480
1,note_on,80,0,0
1,note_on,68,0,0
1,note_on,72,0,0
1,note_on,70,38,0
1,note_on,82,45,0
1,note_on,77,38,0
1,note_on,73,38,0
1,note_on,73,0,480
1,note_on,70,0,0
1,note_on,82,0,0
1,note_on,77,0,0
1,note_on,75,34,0
1,note_on,70,34,0
1,note_on,67,34,0
1,note_on,79,40,0
1,note_on,79,0,240
1,note_on,75,0,0
1,note_on,70,0,0
1,note_on,67,0,0
1,note_on,61,39,240
1,note_on,56,39,0
1,note_on,65,47,0
1,note_on,65,0,480
1,note_on,56,0,0
1,note_on,61,0,0
1,note_on,63,45,0
1,note_on,58,38,0
1,note_on,55,38,0
1,note_on,55,0,480
1,note_on,58,0,0
1,note_on,63,0,0
1,note_on,60,38,0
1,note_on,63,38,0
1,note_on,68,44,0
1,note_on,68,0,480
1,note_on,63,0,0
1,note_on,60,0,0
1,note_on,63,33,0
1,note_on,67,33,0
1,note_on,70,39,0
1,note_on,70,0,240
1,note_on,75,33,0
1,note_on,75,0,240
1,note_on,67,0,0
1,note_on,72,42,0
1,note_on,68,35,0
1,note_on,68,0,240
1,note_on,72,0,0
1,note_on,63,0,0
1,note_on,61,33,240
1,note_on,65,33,0
1,note_on,70,39,0
1,note_on,70,0,240
1,note_on,75,34,0
1,note_on,75,0,240
1,note_on,65,0,0
1,note_on,61,0,0
1,note_on,67,32,0
1,note_on,63,32,0
1,note_on,72,38,0
1,note_on,72,0,480
1,note_on,63,0,0
1,note_on,67,0,0
1,note_on,68,35,0
1,note_on,63,35,0
1,note_on,60,35,0
1,note_on,60,0,480
1,note_on,63,0,0
1,note_on,68,0,0
1,note_on,70,42,0
1,note_on,65,35,0
1,note_on,62,35,0
1,note_on,62,0,480
1,note_on,65,0,0
1,note_on,70,0,0
1,note_on,58,34,0
1,note_on,62,34,0
1,note_on,65,40,0
1,note_on,65,0,480
1,note_on,62,0,0
1,note_on,58,0,0
1,note_on,55,31,0
1,note_on,58,31,0
1,note_on,63,37,0
1,note_on,63,0,450
1,note_on,58,0,0
1,note_on,55,0,0
1,note_on,82,47,30
1,note_on,70,39,0
1,note_on,70,0,960
1,note_on,82,0,0
1,note_on,75,44,0
1,note_on,87,52,0
1,note_on,87,0,1440
1,note_on,75,0,0
1,note_on,91,39,0
1,note_on,79,33,0
1,note_on,79,0,960
1,note_on,91,0,0
1,note_on,92,38,0
1,note_on,80,32,0
1,note_on,80,0,480
1,note_on,92,0,0
1,note_on,94,37,0
1,note_on,82,31,0
1,note_on,82,0,1200
1,note_on,94,0,0
1,note_on,51,45,240
1,note_on,51,0,1920
1,note_on,51,41,0
1,note_on,51,0,240
1,note_on,51,45,0
1,note_on,51,0,228
1,note_on,51,41,12
1,note_on,51,0,228
1,note_on,51,38,12
1,note_on,51,0,228
1,note_on,51,45,12
1,note_on,51,0,360
1,note_on,52,41,0
1,note_on,52,0,120
1,note_on,51,45,0
1,note_on,51,0,180
1,note_on,54,47,60
1,note_on,54,0,228
1,note_on,52,45,12
1,note_on,52,0,228
1,note_on,51,40,12
1,note_on,51,0,228
1,note_on,49,45,12
1,note_on,49,0,342
1,note_on,51,40,18
1,note_on,51,0,120
1,note_on,49,42,0
1,note_on,49,0,180
1,note_on,52,48,60
1,note_on,52,0,228
1,note_on,51,42,12
1,note_on,51,0,228
1,note_on,49,41,12
1,note_on,49,0,228
1,note_on,47,45,12
1,note_on,47,0,480
1,note_on,49,48,0
1,note_on,49,0,240
1,note_on,51,52,0
1,note_on,51,0,240
1,note_on,49,51,0
1,note_on,49,0,240
1,note_on,47,41,0
1,note_on,47,0,240
1,note_on,46,45,0
1,note_on,46,0,360
1,note_on,47,41,0
1,note_on,47,0,120
1,note_on,46,45,0
1,note_on,46,0,180
1,note_on,49,48,60
1,note_on,49,0,228
1,note_on,47,41,12
1,note_on,47,0,228
1,note_on,46,40,12
1,note_on,46,0,228
1,note_on,47,45,12
1,note_on,47,0,720
1,note_on,44,39,0
1,note_on,44,0,480
1,note_on,63,53,0
1,note_on,68,58,240
1,note_on,63,0,20
1,note_on,71,57,1660
1,note_on,68,0,20
1,note_on,70,53,220
1,note_on,71,0,20
1,note_on,68,47,140
1,note_on,70,0,20
1,note_on,70,45,20
1,note_on,68,0,20
1,note_on,68,61,20
1,note_on,70,0,20
1,note_on,64,51,220
1,note_on,68,0,20
1,note_on,68,47,220
1,note_on,64,0,20
1,note_on,68,0,220
1,note_on,68,53,0
1,note_on,63,51,480
1,note_on,68,0,20
1,note_on,66,56,220
1,note_on,63,0,20
1,note_on,64,51,940
1,note_on,66,0,20
1,note_on,63,47,220
1,note_on,64,0,20
1,note_on,63,0,180
1,note_on,63,43,0
1,note_on,64,56,40
1,note_on,63,0,20
1,note_on,63,46,220
1,note_on,64,0,20
1,note_on,61,43,220
1,note_on,63,0,20
1,note_on,63,53,220
1,note_on,61,0,20
1,note_on,63,0,220
1,note_on,56,48,0
1,note_on,58,51,1440
1,note_on,56,0,20
1,note_on,59,51,220
1,note_on,58,0,20
1,note_on,61,46,140
1,note_on,59,0,20
1,note_on,63,41,20
1,note_on,61,0,20
1,note_on,61,56,20
1,note_on,63,0,20
1,note_on,59,46,220
1,note_on,61,0,20
1,note_on,58,43,220
1,note_on,59,0,20
1,note_on,59,56,220
1,note_on,58,0,20
1,note_on,59,0,700
1,note_on,56,47,0
1,note_on,56,0,1200
1,note_on,68,51,720
1,note_on,68,0,240
1,note_on,75,63,0
1,note_on,75,0,2880
1,note_on,80,56,0
1,note_on,80,0,240
1,note_on,63,53,960
1,note_on,68,57,240
1,note_on,63,0,20
1,note_on,71,57,1660
1,note_on,68,0,20
1,note_on,70,53,220
1,note_on,71,0,20
1,note_on,68,47,140
1,note_on,70,0,20
1,note_on,70,45,20
1,note_on,68,0,20
1,note_on,68,61,20
1,note_on,70,0,20
1,note_on,64,51,220
1,note_on,68,0,20
1,note_on,68,47,220
1,note_on,64,0,20
1,note_on,68,0,220
1,note_on,68,53,0
1,note_on,63,51,480
1,note_on,68,0,20
1,note_on,59,42,220
1,note_on,64,56,0
1,note_on,63,0,20
1,note_on,66,57,940
1,note_on,64,0,20
1,note_on,68,59,220
1,note_on,66,0,20
1,note_on,59,0,220
1,note_on,61,42,0
1,note_on,64,42,0
1,note_on,69,62,0
1,note_on,68,0,20
1,note_on,71,58,220
1,note_on,69,0,20
1,note_on,73,58,220
1,note_on,71,0,20
1,note_on,61,0,220
1,note_on,64,0,0
1,note_on,73,0,0
1,note_on,57,37,0
1,note_on,61,37,0
1,note_on,66,62,0
1,note_on,66,0,960
1,note_on,68,60,0
1,note_on,69,58,240
1,note_on,68,0,20
1,note_on,57,0,220
1,note_on,61,0,0
1,note_on,69,0,0
1,note_on,56,42,0
1,note_on,63,42,0
1,note_on,68,62,0
1,note_on,68,0,480
1,note_on,63,56,0
1,note_on,63,0,240
1,note_on,68,61,0
1,note_on,68,0,480
1,note_on,66,56,0
1,note_on,66,0,240
1,note_on,63,0,0
1,note_on,56,0,0
1,note_on,56,42,0
1,note_on,64,58,0
1,note_on,64,0,720
1,note_on,63,56,0
1,note_on,63,0,240
1,note_on,61,53,0
1,note_on,61,0,240
1,note_on,59,48,0
1,note_on,59,0,240
1,note_on,56,0,0
1,note_on,56,42,0
1,note_on,58,51,0
1,note_on,58,0,360
1,note_on,59,46,0
1,note_on,59,0,120
1,note_on,58,51,0
1,note_on,58,0,240
1,note_on,56,0,0
1,note_on,55,42,0
1,note_on,61,48,0
1,note_on,61,0,240
1,note_on,59,46,0
1,note_on,59,0,240
1,note_on,58,45,0
1,note_on,58,0,240
1,note_on,55,0,0
1,note_on,56,42,0
1,note_on,59,46,0
1,note_on,59,0,720
1,note_on,56,0,0
1,note_on,56,43,0
1,note_on,56,0,1200
1,note_on,69,40,960
1,note_on,73,40,0
1,note_on,64,45,0
1,note_on,76,45,0
1,note_on,76,0,480
1,note_on,64,0,0
1,note_on,64,43,0
1,note_on,76,43,0
1,note_on,76,0,240
1,note_on,69,0,0
1,note_on,73,0,0
1,note_on,64,0,0
1,note_on,69,43,0
1,note_on,73,43,0
1,note_on,66,48,0
1,note_on,78,48,0
1,note_on,78,0,360
1,note_on,66,0,0
1,note_on,64,46,0
1,note_on,76,46,0
1,note_on,76,0,120
1,note_on,64,0,0
1,note_on,63,42,0
1,note_on,75,42,0
1,note_on,75,0,240
1,note_on,69,0,0
1,note_on,73,0,0
1,note_on,63,0,0
1,note_on,69,43,0
1,note_on,73,43,0
1,note_on,64,48,0
1,note_on,76,48,0
1,note_on,76,0,480
1,note_on,64,0,0
1,note_on,64,45,0
1,note_on,76,45,0
1,note_on,76,0,240
1,note_on,69,0,0
1,note_on,73,0,0
1,note_on,64,0,0
1,note_on,69,41,0
1,note_on,73,41,0
1,note_on,66,46,0
1,note_on,78,46,0
1,note_on,78,0,360
1,note_on,66,0,0
1,note_on,64,40,0
1,note_on,76,40,0
1,note_on,76,0,120
1,note_on,64,0,0
1,note_on,63,40,0
1,note_on,75,40,0
1,note_on,75,0,240
1,note_on,69,0,0
1,note_on,73,0,0
1,note_on,63,0,0
1,note_on,64,45,0
1,note_on,69,45,0
1,note_on,73,45,0
1,note_on,76,45,0
1,note_on,76,0,720
1,note_on,64,0,0
1,note_on,69,0,0
1,note_on,73,0,0
1,note_on,62,46,0
1,note_on,66,46,0
1,note_on,69,46,0
1,note_on,74,46,0
1,note_on,74,0,720
1,note_on,62,0,0
1,note_on,66,0,0
1,note_on,69,0,0
1,note_on,74,51,0
1,note_on,78,51,0
1,note_on,69,51,0
1,note_on,81,51,0
1,note_on,81,0,960
1,note_on,69,0,0
1,note_on,68,51,0
1,note_on,80,51,0
1,note_on,80,0,240
1,note_on,68,0,0
1,note_on,66,47,0
1,note_on,78,47,0
1,note_on,78,0,240
1,note_on,74,0,0
1,note_on,78,0,0
1,note_on,66,0,0
1,note_on,64,51,0
1,note_on,68,51,0
1,note_on,73,51,0
1,note_on,76,51,0
1,note_on,76,0,720
1,note_on,64,0,0
1,note_on,68,0,0
1,note_on,73,0,0
1,note_on,68,54,0
1,note_on,73,54,0
1,note_on,76,54,0
1,note_on,80,54,0
1,note_on,80,0,720
1,note_on,68,0,0
1,note_on,73,0,0
1,note_on,76,0,0
1,note_on,66,53,0
1,note_on,68,53,0
1,note_on,75,53,0
1,note_on,78,53,0
1,note_on,78,0,720
1,note_on,66,0,0
1,note_on,68,0,0
1,note_on,75,0,0
1,note_on,64,47,0
1,note_on,68,47,0
1,note_on,73,47,0
1,note_on,76,47,0
1,note_on,76,0,720
1,note_on,64,0,0
1,note_on,68,0,0
1,note_on,73,0,0
1,note_on,67,45,0
1,note_on,70,45,0
1,note_on,63,51,0
1,note_on,75,51,0
1,note_on,75,0,720
1,note_on,63,0,0
1,note_on,61,48,0
1,note_on,73,48,0
1,note_on,73,0,480
1,note_on,61,0,0
1,note_on,59,46,0
1,note_on,71,46,0
1,note_on,71,0,240
1,note_on,67,0,0
1,note_on,70,0,0
1,note_on,59,0,0
1,note_on,63,45,0
1,note_on,67,45,0
1,note_on,58,51,0
1,note_on,70,51,0
1,note_on,70,0,360
1,note_on,58,0,0
1,note_on,59,41,0
1,note_on,71,41,0
1,note_on,71,0,120
1,note_on,59,0,0
1,note_on,58,35,0
1,note_on,70,35,0
1,note_on,70,0,240
1,note_on,58,0,0
1,note_on,61,43,0
1,note_on,73,43,0
1,note_on,73,0,240
1,note_on,61,0,0
1,note_on,59,38,0
1,note_on,71,38,0
1,note_on,71,0,240
1,note_on,59,0,0
1,note_on,58,35,0
1,note_on,70,35,0
1,note_on,70,0,240
1,note_on,63,0,0
1,note_on,67,0,0
1,note_on,58,0,0
1,note_on,59,45,0
1,note_on,63,45,0
1,note_on,68,45,0
1,note_on,71,45,0
1,note_on,71,0,720
1,note_on,68,0,0
1,note_on,68,41,0
1,note_on,68,0,480
1,note_on,63,0,0
1,note_on,59,0,0
1,note_on,69,40,240
1,note_on,73,40,0
1,note_on,64,45,0
1,note_on,76,45,0
1,note_on,76,0,480
1,note_on,64,0,0
1,note_on,64,43,0
1,note_on,76,43,0
1,note_on,76,0,240
1,note_on,69,0,0
1,note_on,73,0,0
1,note_on,64,0,0
1,note_on,69,43,0
1,note_on,73,43,0
1,note_on,66,48,0
1,note_on,78,48,0
1,note_on,78,0,360
1,note_on,66,0,0
1,note_on,64,46,0
1,note_on,76,46,0
1,note_on,76,0,120
1,note_on,64,0,0
1,note_on,63,42,0
1,note_on,75,42,0
1,note_on,75,0,180
1,note_on,63,0,0
1,note_on,73,0,60
1,note_on,69,0,0
1,note_on,69,43,0
1,note_on,73,43,0
1,note_on,64,48,0
1,note_on,76,48,0
1,note_on,76,0,480
1,note_on,64,0,0
1,note_on,64,45,0
1,note_on,76,45,0
1,note_on,76,0,240
1,note_on,69,0,0
1,note_on,73,0,0
1,note_on,64,0,0
1,note_on,69,41,0
1,note_on,73,41,0
1,note_on,66,46,0
1,note_on,78,46,0
1,note_on,78,0,360
1,note_on,66,0,0
1,note_on,64,40,0
1,note_on,76,40,0
1,note_on,76,0,120
1,note_on,64,0,0
1,note_on,63,40,0
1,note_on,75,40,0
1,note_on,75,0,180
1,note_on,63,0,0
1,note_on,73,0,60
1,note_on,69,0,0
1,note_on,64,45,0
1,note_on,69,45,0
1,note_on,73,45,0
1,note_on,76,45,0
1,note_on,76,0,720
1,note_on,64,0,0
1,note_on,69,0,0
1,note_on,73,0,0
1,note_on,62,46,0
1,note_on,66,46,0
1,note_on,69,46,0
1,note_on,74,46,0
1,note_on,74,0,720
1,note_on,62,0,0
1,note_on,66,0,0
1,note_on,69,0,0
1,note_on,74,51,0
1,note_on,78,51,0
1,note_on,69,51,0
1,note_on,81,51,0
1,note_on,81,0,720
1,note_on,69,0,0
1,note_on,68,51,0
1,note_on,80,51,0
1,note_on,80,0,240
1,note_on,68,0,0
1,note_on,81,45,0
1,note_on,69,45,0
1,note_on,69,0,240
1,note_on,81,0,0
1,note_on,66,46,0
1,note_on,78,46,0
1,note_on,78,0,240
1,note_on,74,0,0
1,note_on,78,0,0
1,note_on,66,0,0
1,note_on,64,51,0
1,note_on,68,51,0
1,note_on,73,51,0
1,note_on,76,51,0
1,note_on,76,0,720
1,note_on,64,0,0
1,note_on,68,0,0
1,note_on,73,0,0
1,note_on,68,47,0
1,note_on,73,47,0
1,note_on,76,47,0
1,note_on,80,47,0
1,note_on,80,0,720
1,note_on,68,0,0
1,note_on,73,0,0
1,note_on,76,0,0
1,note_on,66,48,0
1,note_on,68,48,0
1,note_on,75,48,0
1,note_on,78,48,0
1,note_on,78,0,240
1,note_on,66,0,0
1,note_on,68,0,0
1,note_on,68,45,0
1,note_on,80,45,0
1,note_on,80,0,240
1,note_on,63,45,0
1,note_on,75,45,0
1,note_on,75,0,240
1,note_on,75,0,0
1,note_on,68,0,0
1,note_on,63,0,0
1,note_on,64,47,0
1,note_on,68,47,0
1,note_on,73,47,0
1,note_on,76,47,0
1,note_on,76,0,240
1,note_on,64,0,0
1,note_on,63,43,0
1,note_on,75,43,0
1,note_on,75,0,240
1,note_on,63,0,0
1,note_on,64,42,0
1,note_on,76,42,0
1,note_on,76,0,240
1,note_on,68,0,0
1,note_on,73,0,0
1,note_on,64,0,0
1,note_on,67,45,0
1,note_on,70,45,0
1,note_on,63,51,0
1,note_on,75,51,0
1,note_on,75,0,720
1,note_on,63,0,0
1,note_on,61,48,0
1,note_on,73,48,0
1,note_on,73,0,480
1,note_on,61,0,0
1,note_on,59,46,0
1,note_on,71,46,0
1,note_on,71,0,240
1,note_on,67,0,0
1,note_on,70,0,0
1,note_on,59,0,0
1,note_on,63,45,0
1,note_on,67,45,0
1,note_on,58,51,0
1,note_on,70,51,0
1,note_on,70,0,360
1,note_on,58,0,0
1,note_on,59,41,0
1,note_on,71,41,0
1,note_on,71,0,120
1,note_on,59,0,0
1,note_on,58,35,0
1,note_on,70,35,0
1,note_on,70,0,180
1,note_on,58,0,0
1,note_on,61,43,60
1,note_on,73,43,0
1,note_on,73,0,240
1,note_on,61,0,0
1,note_on,59,38,0
1,note_on,71,38,0
1,note_on,71,0,240
1,note_on,59,0,0
1,note_on,58,35,0
1,note_on,70,35,0
1,note_on,70,0,180
1,note_on,58,0,0
1,note_on,67,0,60
1,note_on,63,0,0
1,note_on,59,40,0
1,note_on,63,40,0
1,note_on,68,45,0
1,note_on,71,45,0
1,note_on,71,0,720
1,note_on,68,0,0
1,note_on,68,41,0
1,note_on,68,0,480
1,note_on,63,0,0
1,note_on,59,0,0
1,note_on,68,51,960
1,note_on,68,0,720
1,note_on,75,63,0
1,note_on,75,0,2880
1,note_on,80,56,0
1,note_on,80,0,480
1,note_on,63,51,720
1,note_on,68,56,240
1,note_on,63,0,20
1,note_on,71,53,1660
1,note_on,68,0,20
1,note_on,70,51,220
1,note_on,71,0,20
1,note_on,68,45,140
1,note_on,70,0,20
1,note_on,70,42,20
1,note_on,68,0,20
1,note_on,68,56,20
1,note_on,70,0,20
1,note_on,64,47,220
1,note_on,68,0,20
1,note_on,68,45,220
1,note_on,64,0,20
1,note_on,68,0,220
1,note_on,68,53,0
1,note_on,75,48,480
1,note_on,68,0,20
1,note_on,68,50,220
1,note_on,75,0,20
1,note_on,68,0,1420
1,note_on,63,36,720
1,note_on,66,36,0
1,note_on,69,51,0
1,note_on,69,0,960
1,note_on,68,47,0
1,note_on,68,0,240
1,note_on,66,0,0
1,note_on,63,0,0
1,note_on,69,44,0
1,note_on,69,0,240
1,note_on,62,36,0
1,note_on,65,36,0
1,note_on,70,57,0
1,note_on,77,48,480
1,note_on,70,0,20
1,note_on,70,50,220
1,note_on,77,0,20
1,note_on,62,0,460
1,note_on,65,0,0
1,note_on,70,0,0
1,note_on,63,36,240
1,note_on,66,36,0
1,note_on,72,51,0
1,note_on,72,0,960
1,note_on,71,47,0
1,note_on,71,0,240
1,note_on,66,0,0
1,note_on,63,0,0
1,note_on,72,45,0
1,note_on,72,0,240
1,note_on,68,36,0
1,note_on,65,36,0
1,note_on,73,57,0
1,note_on,80,50,480
1,note_on,73,0,20
1,note_on,73,50,220
1,note_on,80,0,20
1,note_on,68,0,460
1,note_on,65,0,0
1,note_on,73,0,0
1,note_on,63,51,240
1,note_on,70,51,0
1,note_on,74,51,0
1,note_on,74,0,2880
1,note_on,70,0,0
1,note_on,63,0,0
1,note_on,68,36,0
1,note_on,63,56,0
1,note_on,75,56,0
1,note_on,75,0,720
1,note_on,63,0,0
1,note_on,68,0,0
1,note_on,68,36,0
1,note_on,62,48,0
1,note_on,74,48,0
1,note_on,74,0,240
1,note_on,62,0,0
1,note_on,61,46,0
1,note_on,73,46,0
1,note_on,73,0,240
1,note_on,61,0,0
1,note_on,62,45,0
1,note_on,74,45,0
1,note_on,74,0,240
1,note_on,62,0,0
1,note_on,68,0,0
1,note_on,68,36,0
1,note_on,63,53,0
1,note_on,75,53,0
1,note_on,75,0,720
1,note_on,63,0,0
1,note_on,68,0,0
1,note_on,68,36,0
1,note_on,62,47,0
1,note_on,74,47,0
1,note_on,74,0,240
1,note_on,62,0,0
1,note_on,61,46,0
1,note_on,73,46,0
1,note_on,73,0,240
1,note_on,61,0,0
1,note_on,62,45,0
1,note_on,74,45,0
1,note_on,74,0,240
1,note_on,62,0,0
1,note_on,68,0,0
1,note_on,68,36,0
1,note_on,63,52,0
1,note_on,75,52,0
1,note_on,75,0,720
1,note_on,63,0,0
1,note_on,62,47,0
1,note_on,74,47,0
1,note_on,74,0,720
1,note_on,62,0,0
1,note_on,68,0,0
1,note_on,61,46,0
1,note_on,68,46,0
1,note_on,73,46,0
1,note_on,73,0,720
1,note_on,68,0,0
1,note_on,61,0,0
1,note_on,68,57,0
1,note_on,76,57,0
1,note_on,80,57,0
1,note_on,80,0,720
1,note_on,76,0,0
1,note_on,68,0,0
1,note_on,66,56,0
1,note_on,75,56,0
1,note_on,78,56,0
1,note_on,78,0,720
1,note_on,75,0,0
1,note_on,66,0,0
1,note_on,64,55,0
1,note_on,73,55,0
1,note_on,76,55,0
1,note_on,76,0,720
1,note_on,73,0,0
1,note_on,64,0,0
1,note_on,67,45,0
1,note_on,70,45,0
1,note_on,63,51,0
1,note_on,75,51,0
1,note_on,75,0,720
1,note_on,63,0,0
1,note_on,61,48,0
1,note_on,73,48,0
1,note_on,73,0,480
1,note_on,61,0,0
1,note_on,59,46,0
1,note_on,71,46,0
1,note_on,71,0,240
1,note_on,67,0,0
1,note_on,70,0,0
1,note_on,59,0,0
1,note_on,63,38,0
1,note_on,67,38,0
1,note_on,58,51,0
1,note_on,70,51,0
1,note_on,70,0,360
1,note_on,58,0,0
1,note_on,59,41,0
1,note_on,71,41,0
1,note_on,71,0,120
1,note_on,59,0,0
1,note_on,58,35,0
1,note_on,70,35,0
1,note_on,70,0,180
1,note_on,58,0,0
1,note_on,61,43,60
1,note_on,73,43,0
1,note_on,73,0,240
1,note_on,61,0,0
1,note_on,59,38,0
1,note_on,71,38,0
1,note_on,71,0,240
1,note_on,59,0,0
1,note_on,58,35,0
1,note_on,70,35,0
1,note_on,70,0,240
1,note_on,63,0,0
1,note_on,67,0,0
1,note_on,58,0,0
1,note_on,59,37,0
1,note_on,63,36,0
1,note_on,68,37,0
1,note_on,71,45,0
1,note_on,71,0,720
1,note_on,68,0,0
1,note_on,68,41,0
1,note_on,68,0,480
1,note_on,63,0,0
1,note_on,59,0,0
1,note_on,63,51,1440
1,note_on,68,56,240
1,note_on,63,0,20
1,note_on,71,53,1660
1,note_on,68,0,20
1,note_on,70,51,220
1,note_on,71,0,20
1,note_on,68,45,140
1,note_on,70,0,20
1,note_on,70,42,20
1,note_on,68,0,20
1,note_on,68,56,20
1,note_on,70,0,20
1,note_on,64,47,220
1,note_on,68,0,20
1,note_on,68,45,220
1,note_on,64,0,20
1,note_on,68,0,220
1,note_on,68,53,0
1,note_on,68,0,360
1,note_on,76,48,0
1,note_on,76,0,120
1,note_on,68,45,0
1,note_on,68,0,240
1,note_on,68,49,0
1,note_on,68,0,1200
1,note_on,63,36,960
1,note_on,66,36,0
1,note_on,69,51,0
1,note_on,69,0,960
1,note_on,68,47,0
1,note_on,68,0,240
1,note_on,66,0,0
1,note_on,63,0,0
1,note_on,69,48,0
1,note_on,69,0,240
1,note_on,62,36,0
1,note_on,65,36,0
1,note_on,70,57,0
1,note_on,70,0,360
1,note_on,77,51,0
1,note_on,77,0,120
1,note_on,70,51,0
1,note_on,70,0,240
1,note_on,70,47,0
1,note_on,70,0,480
1,note_on,65,0,0
1,note_on,62,0,0
1,note_on,63,36,240
1,note_on,66,36,0
1,note_on,72,51,0
1,note_on,72,0,960
1,note_on,71,47,0
1,note_on,71,0,240
1,note_on,66,0,0
1,note_on,63,0,0
1,note_on,72,46,0
1,note_on,72,0,240
1,note_on,68,36,0
1,note_on,65,36,0
1,note_on,73,57,0
1,note_on,73,0,360
1,note_on,80,51,0
1,note_on,80,0,120
1,note_on,73,51,0
1,note_on,73,0,240
1,note_on,73,48,0
1,note_on,73,0,480
1,note_on,65,0,0
1,note_on,68,0,0
1,note_on,63,51,240
1,note_on,70,51,0
1,note_on,74,51,0
1,note_on,74,0,2880
1,note_on,70,0,0
1,note_on,63,0,0
1,note_on,68,36,0
1,note_on,63,56,0
1,note_on,75,56,0
1,note_on,75,0,720
1,note_on,63,0,0
1,note_on,68,0,0
1,note_on,68,36,0
1,note_on,62,48,0
1,note_on,74,48,0
1,note_on,74,0,240
1,note_on,62,0,0
1,note_on,61,46,0
1,note_on,73,46,0
1,note_on,73,0,240
1,note_on,61,0,0
1,note_on,62,44,0
1,note_on,74,44,0
1,note_on,74,0,240
1,note_on,62,0,0
1,note_on,68,0,0
1,note_on,68,36,0
1,note_on,63,53,0
1,note_on,75,53,0
1,note_on,75,0,720
1,note_on,63,0,0
1,note_on,68,0,0
1,note_on,68,36,0
1,note_on,62,47,0
1,note_on,74,47,0
1,note_on,74,0,240
1,note_on,62,0,0
1,note_on,61,46,0
1,note_on,73,46,0
1,note_on,73,0,240
1,note_on,61,0,0
1,note_on,62,45,0
1,note_on,74,45,0
1,note_on,74,0,240
1,note_on,62,0,0
1,note_on,68,0,0
1,note_on,68,36,0
1,note_on,63,52,0
1,note_on,75,52,0
1,note_on,75,0,720
1,note_on,63,0,0
1,note_on,62,47,0
1,note_on,74,47,0
1,note_on,74,0,720
1,note_on,62,0,0
1,note_on,68,0,0
1,note_on,61,46,0
1,note_on,68,46,0
1,note_on,73,46,0
1,note_on,73,0,720
1,note_on,68,0,0
1,note_on,61,0,0
1,note_on,68,57,0
1,note_on,76,57,0
1,note_on,80,57,0
1,note_on,80,0,720
1,note_on,76,0,0
1,note_on,68,0,0
1,note_on,66,56,0
1,note_on,75,56,0
1,note_on,78,56,0
1,note_on,78,0,720
1,note_on,75,0,0
1,note_on,66,0,0
1,note_on,64,52,0
1,note_on,73,52,0
1,note_on,76,52,0
1,note_on,76,0,240
1,note_on,64,0,0
1,note_on,68,43,0
1,note_on,80,43,0
1,note_on,80,0,240
1,note_on,68,0,0
1,note_on,64,47,0
1,note_on,76,47,0
1,note_on,76,0,240
1,note_on,64,0,0
1,note_on,73,0,0
1,note_on,67,47,0
1,note_on,70,47,0
1,note_on,63,47,0
1,note_on,75,47,0
1,note_on,75,0,720
1,note_on,63,0,0
1,note_on,61,48,0
1,note_on,73,48,0
1,note_on,73,0,240
1,note_on,61,0,0
1,note_on,63,45,0
1,note_on,75,45,0
1,note_on,75,0,240
1,note_on,63,0,0
1,note_on,59,42,0
1,note_on,71,42,0
1,note_on,71,0,240
1,note_on,67,0,0
1,note_on,70,0,0
1,note_on,59,0,0
1,note_on,63,31,0
1,note_on,67,31,0
1,note_on,58,47,0
1,note_on,70,47,0
1,note_on,70,0,360
1,note_on,58,0,0
1,note_on,59,37,0
1,note_on,71,37,0
1,note_on,71,0,120
1,note_on,59,0,0
1,note_on,58,32,0
1,note_on,70,32,0
1,note_on,70,0,240
1,note_on,58,0,0
1,note_on,61,40,0
1,note_on,73,40,0
1,note_on,73,0,240
1,note_on,61,0,0
1,note_on,59,33,0
1,note_on,71,33,0
1,note_on,71,0,240
1,note_on,59,0,0
1,note_on,58,30,0
1,note_on,70,30,0
1,note_on,70,0,120
1,note_on,58,0,0
1,note_on,67,0,120
1,note_on,63,0,0
1,note_on,69,33,1440
1,note_on,73,33,0
1,note_on,64,37,0
1,note_on,76,37,0
1,note_on,76,0,480
1,note_on,64,0,0
1,note_on,64,36,0
1,note_on,76,36,0
1,note_on,76,0,240
1,note_on,69,0,0
1,note_on,73,0,0
1,note_on,64,0,0
1,note_on,69,36,0
1,note_on,73,36,0
1,note_on,66,41,0
1,note_on,78,41,0
1,note_on,78,0,360
1,note_on,66,0,0
1,note_on,64,38,0
1,note_on,76,38,0
1,note_on,76,0,120
1,note_on,64,0,0
1,note_on,63,35,0
1,note_on,75,35,0
1,note_on,75,0,120
1,note_on,63,0,0
1,note_on,73,0,120
1,note_on,69,0,0
1,note_on,69,36,0
1,note_on,73,36,0
1,note_on,64,41,0
1,note_on,76,41,0
1,note_on,76,0,480
1,note_on,64,0,0
1,note_on,64,37,0
1,note_on,76,37,0
1,note_on,76,0,240
1,note_on,69,0,0
1,note_on,73,0,0
1,note_on,64,0,0
1,note_on,69,35,0
1,note_on,73,35,0
1,note_on,66,38,0
1,note_on,78,38,0
1,note_on,78,0,360
1,note_on,66,0,0
1,note_on,64,33,0
1,note_on,76,33,0
1,note_on,76,0,120
1,note_on,64,0,0
1,note_on,63,33,0
1,note_on,75,33,0
1,note_on,75,0,120
1,note_on,63,0,0
1,note_on,73,0,120
1,note_on,69,0,0
1,note_on,64,47,1440
1,note_on,68,47,0
1,note_on,73,47,0
1,note_on,61,47,0
1,note_on,61,0,720
1,note_on,64,0,0
1,note_on,68,0,0
1,note_on,73,0,0
1,note_on,68,56,0
1,note_on,73,56,0
1,note_on,76,56,0
1,note_on,80,56,0
1,note_on,80,0,720
1,note_on,68,0,0
1,note_on,73,0,0
1,note_on,76,0,0
1,note_on,66,52,0
1,note_on,68,52,0
1,note_on,75,52,0
1,note_on,78,52,0
1,note_on,78,0,720
1,note_on,66,0,0
1,note_on,68,0,0
1,note_on,75,0,0
1,note_on,64,47,0
1,note_on,68,47,0
1,note_on,73,47,0
1,note_on,76,47,0
1,note_on,76,0,720
1,note_on,64,0,0
1,note_on,68,0,0
1,note_on,73,0,0
1,note_on,63,37,1440
1,note_on,67,37,0
1,note_on,58,42,0
1,note_on,70,42,0
1,note_on,70,0,360
1,note_on,58,0,0
1,note_on,59,35,0
1,note_on,71,35,0
1,note_on,71,0,120
1,note_on,59,0,0
1,note_on,58,28,0
1,note_on,70,28,0
1,note_on,70,0,240
1,note_on,63,0,0
1,note_on,67,0,0
1,note_on,58,0,0
1,note_on,63,37,0
1,note_on,67,37,0
1,note_on,61,36,0
1,note_on,73,36,0
1,note_on,73,0,240
1,note_on,61,0,0
1,note_on,59,32,0
1,note_on,71,32,0
1,note_on,71,0,240
1,note_on,59,0,0
1,note_on,58,28,0
1,note_on,70,28,0
1,note_on,70,0,240
1,note_on,63,0,0
1,note_on,67,0,0
1,note_on,58,0,0
1,note_on,63,51,1200
1,note_on,68,55,240
1,note_on,63,0,20
1,note_on,71,56,1660
1,note_on,68,0,20
1,note_on,70,51,220
1,note_on,71,0,20
1,note_on,68,45,140
1,note_on,70,0,20
1,note_on,70,42,20
1,note_on,68,0,20
1,note_on,68,57,20
1,note_on,70,0,20
1,note_on,64,48,220
1,note_on,68,0,20
1,note_on,68,45,220
1,note_on,64,0,20
1,note_on,68,0,220
1,note_on,68,51,0
1,note_on,63,48,480
1,note_on,68,0,20
1,note_on,66,52,220
1,note_on,63,0,20
1,note_on,64,48,940
1,note_on,66,0,20
1,note_on,63,45,220
1,note_on,64,0,20
1,note_on,63,0,180
1,note_on,63,41,0
1,note_on,64,52,40
1,note_on,63,0,20
1,note_on,63,43,220
1,note_on,64,0,20
1,note_on,61,41,220
1,note_on,63,0,20
1,note_on,63,51,220
1,note_on,61,0,20
1,note_on,63,0,220
1,note_on,56,46,0
1,note_on,56,0,960
1,note_on,56,34,1680
1,note_on,58,34,0
1,note_on,61,34,0
1,note_on,64,38,0
1,note_on,64,0,480
1,note_on,56,0,0
1,note_on,58,0,0
1,note_on,61,0,0
1,note_on,55,34,240
1,note_on,58,34,0
1,note_on,61,34,0
1,note_on,63,38,0
1,note_on,63,0,480
1,note_on,55,0,0
1,note_on,58,0,0
1,note_on,61,0,0
1,note_on,54,34,1680
1,note_on,57,34,0
1,note_on,62,38,0
1,note_on,62,0,480
1,note_on,57,0,0
1,note_on,54,0,0
1,note_on,52,34,240
1,note_on,56,34,0
1,note_on,61,38,0
1,note_on,61,0,480
1,note_on,56,0,0
1,note_on,52,0,0
1,note_on,55,38,240
1,note_on,58,38,0
1,note_on,58,0,240
1,note_on,55,0,0
1,note_on,63,68,960
1,note_on,75,68,0
1,note_on,75,0,240
1,note_on,63,0,0
1,note_on,68,73,0
1,note_on,80,73,0
1,note_on,80,0,1440
1,note_on,68,0,0
2,note_on,53,52,1
2,note_on,51,51,479
2,note_on,53,0,1
2,note_on,51,0,479
2,note_on,56,49,0
2,note_on,56,0,480
2,note_on,58,45,0
2,note_on,58,0,240
2,note_on,63,45,0
2,note_on,63,0,240
2,note_on,60,48,0
2,note_on,60,0,480
2,note_on,58,44,0
2,note_on,58,0,240
2,note_on,63,46,0
2,note_on,63,0,240
2,note_on,60,42,0
2,note_on,60,0,480
2,note_on,56,48,0
2,note_on,56,0,480
2,note_on,58,46,0
2,note_on,58,0,480
2,note_on,53,48,0
2,note_on,53,0,480
2,note_on,51,48,0
2,note_on,51,0,450
2,note_on,53,51,30
2,note_on,53,0,480
2,note_on,51,51,0
2,note_on,51,0,480
2,note_on,56,51,0
2,note_on,56,0,480
2,note_on,58,56,0
2,note_on,58,0,240
2,note_on,63,56,0
2,note_on,63,0,240
2,note_on,60,55,0
2,note_on,60,0,480
2,note_on,58,59,0
2,note_on,58,0,240
2,note_on,63,56,0
2,note_on,63,0,240
2,note_on,60,58,0
2,note_on,60,0,480
2,note_on,56,44,0
2,note_on,56,0,480
2,note_on,58,45,0
2,note_on,58,0,480
2,note_on,53,41,0
2,note_on,53,0,480
2,note_on,51,38,0
2,note_on,51,0,240
2,note_on,51,52,240
2,note_on,51,0,480
2,note_on,53,51,0
2,note_on,53,0,480
2,note_on,48,49,0
2,note_on,48,0,480
2,note_on,51,48,0
2,note_on,53,42,240
2,note_on,51,0,24
2,note_on,53,0,216
2,note_on,46,47,0
2,note_on,46,0,480
2,note_on,53,44,0
2,note_on,55,41,240
2,note_on,53,0,24
2,note_on,55,0,216
2,note_on,51,42,0
2,note_on,51,0,450
2,note_on,63,57,30
2,note_on,63,0,480
2,note_on,60,52,0
2,note_on,60,0,480
2,note_on,58,53,0
2,note_on,56,48,240
2,note_on,58,0,24
2,note_on,56,0,216
2,note_on,51,48,0
2,note_on,51,0,450
2,note_on,51,56,30
2,note_on,51,0,480
2,note_on,53,53,0
2,note_on,53,0,480
2,note_on,48,51,0
2,note_on,48,0,480
2,note_on,51,51,0
2,note_on,53,47,240
2,note_on,51,0,24
2,note_on,53,0,216
2,note_on,46,53,0
2,note_on,46,0,480
2,note_on,53,51,0
2,note_on,55,47,240
2,note_on,53,0,24
2,note_on,55,0,216
2,note_on,51,51,0
2,note_on,51,0,450
2,note_on,63,56,30
2,note_on,63,0,480
2,note_on,60,50,0
2,note_on,60,0,480
2,note_on,58,49,0
2,note_on,56,42,240
2,note_on,58,0,24
2,note_on,56,0,216
2,note_on,51,48,0
2,note_on,51,0,240
2,note_on,51,53,240
2,note_on,51,0,1440
2,note_on,44,56,0
2,note_on,44,0,960
2,note_on,39,56,0
2,note_on,39,0,1440
2,note_on,32,51,0
2,note_on,32,0,960
2,note_on,56,35,480
2,note_on,61,35,0
2,note_on,65,42,0
2,note_on,65,0,480
2,note_on,61,0,0
2,note_on,56,0,0
2,note_on,58,38,0
2,note_on,63,45,0
2,note_on,55,38,0
2,note_on,55,0,480
2,note_on,63,0,0
2,note_on,58,0,0
2,note_on,63,34,0
2,note_on,68,40,0
2,note_on,60,34,0
2,note_on,60,0,480
2,note_on,68,0,0
2,note_on,63,0,0
2,note_on,63,34,0
2,note_on,70,40,0
2,note_on,67,34,0
2,note_on,70,0,240
2,note_on,75,34,0
2,note_on,75,0,240
2,note_on,67,0,0
2,note_on,68,35,0
2,note_on,72,42,0
2,note_on,72,0,240
2,note_on,68,0,0
2,note_on,63,0,0
2,note_on,65,33,240
2,note_on,70,39,0
2,note_on,61,33,0
2,note_on,70,0,240
2,note_on,75,34,0
2,note_on,75,0,240
2,note_on,61,0,0
2,note_on,65,0,0
2,note_on,67,32,0
2,note_on,72,38,0
2,note_on,63,32,0
2,note_on,63,0,480
2,note_on,72,0,0
2,note_on,67,0,0
2,note_on,60,28,0
2,note_on,63,28,0
2,note_on,68,34,0
2,note_on,68,0,480
2,note_on,63,0,0
2,note_on,60,0,0
2,note_on,65,29,0
2,note_on,70,35,0
2,note_on,62,29,0
2,note_on,62,0,480
2,note_on,70,0,0
2,note_on,65,0,0
2,note_on,58,27,0
2,note_on,65,32,0
2,note_on,62,27,0
2,note_on,62,0,480
2,note_on,65,0,0
2,note_on,58,0,0
2,note_on,55,26,0
2,note_on,58,26,0
2,note_on,63,31,0
2,note_on,63,0,240
2,note_on,58,0,0
2,note_on,55,0,0
2,note_on,51,41,10320
2,note_on,51,0,2160
2,note_on,52,41,0
2,note_on,52,0,720
2,note_on,51,41,0
2,note_on,51,0,2160
2,note_on,52,41,0
2,note_on,52,0,720
2,note_on,51,41,0
2,note_on,51,0,1440
2,note_on,52,41,0
2,note_on,52,0,1440
2,note_on,51,45,0
2,note_on,52,38,360
2,note_on,51,0,20
2,note_on,51,43,100
2,note_on,52,0,20
2,note_on,51,0,220
2,note_on,54,45,0
2,note_on,52,43,240
2,note_on,54,0,20
2,note_on,51,45,220
2,note_on,52,0,20
2,note_on,51,0,220
2,note_on,49,45,0
2,note_on,51,43,360
2,note_on,49,0,20
2,note_on,49,43,100
2,note_on,51,0,20
2,note_on,49,0,220
2,note_on,52,47,0
2,note_on,51,43,240
2,note_on,52,0,20
2,note_on,49,39,220
2,note_on,51,0,20
2,note_on,49,0,220
2,note_on,47,45,0
2,note_on,49,42,480
2,note_on,47,0,20
2,note_on,51,47,220
2,note_on,49,0,20
2,note_on,49,42,220
2,note_on,51,0,20
2,note_on,47,40,220
2,note_on,49,0,20
2,note_on,47,0,220
2,note_on,46,43,0
2,note_on,47,38,360
2,note_on,46,0,20
2,note_on,46,45,100
2,note_on,47,0,20
2,note_on,46,0,220
2,note_on,49,46,0
2,note_on,47,42,240
2,note_on,49,0,20
2,note_on,46,40,220
2,note_on,47,0,20
2,note_on,46,0,220
2,note_on,47,42,0
2,note_on,47,0,720
2,note_on,51,41,720
2,note_on,51,0,2160
2,note_on,52,41,0
2,note_on,52,0,720
2,note_on,51,41,0
2,note_on,51,0,720
2,note_on,56,41,0
2,note_on,56,0,1440
2,note_on,52,41,0
2,note_on,52,0,720
2,note_on,51,41,0
2,note_on,51,0,1440
2,note_on,48,41,0
2,note_on,48,0,1440
2,note_on,49,38,0
2,note_on,49,0,720
2,note_on,51,40,0
2,note_on,51,0,720
2,note_on,52,40,0
2,note_on,52,0,720
2,note_on,51,38,0
2,note_on,51,0,3360
2,note_on,49,35,240
2,note_on,52,35,0
2,note_on,52,0,720
2,note_on,49,0,0
2,note_on,51,33,0
2,note_on,54,33,0
2,note_on,54,0,720
2,note_on,51,0,0
2,note_on,49,35,0
2,note_on,52,35,0
2,note_on,52,0,720
2,note_on,49,0,0
2,note_on,51,32,0
2,note_on,54,32,0
2,note_on,54,0,720
2,note_on,51,0,0
2,note_on,49,35,0
2,note_on,52,35,0
2,note_on,52,0,720
2,note_on,49,0,0
2,note_on,50,35,0
2,note_on,54,35,0
2,note_on,54,0,2160
2,note_on,50,0,0
2,note_on,52,37,0
2,note_on,56,37,0
2,note_on,56,0,720
2,note_on,52,0,0
2,note_on,49,39,0
2,note_on,52,39,0
2,note_on,52,0,720
2,note_on,49,0,0
2,note_on,51,36,0
2,note_on,54,36,0
2,note_on,54,0,720
2,note_on,51,0,0
2,note_on,52,33,0
2,note_on,56,33,0
2,note_on,56,0,720
2,note_on,52,0,0
2,note_on,51,40,0
2,note_on,51,0,1440
2,note_on,55,33,0
2,note_on,55,0,1440
2,note_on,56,33,0
2,note_on,56,0,1200
2,note_on,49,35,240
2,note_on,52,35,0
2,note_on,52,0,720
2,note_on,49,0,0
2,note_on,51,33,0
2,note_on,54,33,0
2,note_on,54,0,720
2,note_on,51,0,0
2,note_on,49,35,0
2,note_on,52,35,0
2,note_on,52,0,720
2,note_on,49,0,0
2,note_on,51,32,0
2,note_on,54,32,0
2,note_on,54,0,720
2,note_on,51,0,0
2,note_on,49,35,0
2,note_on,52,35,0
2,note_on,52,0,720
2,note_on,49,0,0
2,note_on,50,35,0
2,note_on,54,35,0
2,note_on,54,0,2160
2,note_on,50,0,0
2,note_on,52,37,0
2,note_on,56,37,0
2,note_on,56,0,720
2,note_on,52,0,0
2,note_on,49,35,0
2,note_on,52,35,0
2,note_on,52,0,720
2,note_on,49,0,0
2,note_on,51,35,0
2,note_on,54,35,0
2,note_on,54,0,720
2,note_on,51,0,0
2,note_on,52,33,0
2,note_on,56,33,0
2,note_on,56,0,720
2,note_on,52,0,0
2,note_on,55,40,0
2,note_on,55,0,1440
2,note_on,51,33,0
2,note_on,51,0,1440
2,note_on,51,45,0
2,note_on,52,38,360
2,note_on,51,0,20
2,note_on,51,43,100
2,note_on,52,0,20
2,note_on,51,0,220
2,note_on,54,45,0
2,note_on,52,43,240
2,note_on,54,0,20
2,note_on,51,45,220
2,note_on,52,0,20
2,note_on,51,0,220
2,note_on,49,45,0
2,note_on,51,43,360
2,note_on,49,0,20
2,note_on,49,43,100
2,note_on,51,0,20
2,note_on,49,0,220
2,note_on,52,47,0
2,note_on,51,43,240
2,note_on,52,0,20
2,note_on,49,39,220
2,note_on,51,0,20
2,note_on,49,0,220
2,note_on,47,45,0
2,note_on,49,42,480
2,note_on,47,0,20
2,note_on,51,47,220
2,note_on,49,0,20
2,note_on,49,42,220
2,note_on,51,0,20
2,note_on,47,40,220
2,note_on,49,0,20
2,note_on,47,0,220
2,note_on,46,43,0
2,note_on,47,38,360
2,note_on,46,0,20
2,note_on,46,45,100
2,note_on,47,0,20
2,note_on,46,0,220
2,note_on,49,46,0
2,note_on,47,42,240
2,note_on,49,0,20
2,note_on,46,40,220
2,note_on,47,0,20
2,note_on,46,0,220
2,note_on,47,42,0
2,note_on,47,0,720
2,note_on,51,41,720
2,note_on,51,0,2160
2,note_on,52,41,0
2,note_on,52,0,720
2,note_on,51,41,0
2,note_on,51,0,720
2,note_on,56,40,0
2,note_on,56,0,1440
2,note_on,60,41,720
2,note_on,60,0,1440
2,note_on,58,41,0
2,note_on,58,0,1440
2,note_on,57,41,0
2,note_on,57,0,1440
2,note_on,56,41,0
2,note_on,56,0,1440
2,note_on,54,41,0
2,note_on,54,0,2880
2,note_on,53,36,0
2,note_on,53,0,720
2,note_on,52,36,0
2,note_on,52,0,720
2,note_on,53,36,0
2,note_on,53,0,720
2,note_on,52,36,0
2,note_on,52,0,720
2,note_on,53,36,0
2,note_on,53,0,1440
2,note_on,52,36,0
2,note_on,52,0,720
2,note_on,49,43,0
2,note_on,49,0,720
2,note_on,51,42,0
2,note_on,51,0,720
2,note_on,56,40,0
2,note_on,56,0,720
2,note_on,51,40,0
2,note_on,51,0,720
2,note_on,55,40,0
2,note_on,55,0,720
2,note_on,51,33,0
2,note_on,51,0,720
2,note_on,55,33,0
2,note_on,55,0,720
2,note_on,51,33,0
2,note_on,51,0,720
2,note_on,56,33,0
2,note_on,56,0,1920
2,note_on,51,38,240
2,note_on,51,0,2160
2,note_on,52,41,0
2,note_on,52,0,720
2,note_on,59,38,0
2,note_on,59,0,1920
2,note_on,60,41,960
2,note_on,60,0,1440
2,note_on,58,41,0
2,note_on,58,0,1440
2,note_on,57,41,0
2,note_on,57,0,1440
2,note_on,56,41,0
2,note_on,56,0,1440
2,note_on,54,41,0
2,note_on,54,0,2880
2,note_on,53,36,0
2,note_on,53,0,720
2,note_on,52,36,0
2,note_on,52,0,720
2,note_on,53,36,0
2,note_on,53,0,720
2,note_on,52,36,0
2,note_on,52,0,720
2,note_on,53,36,0
2,note_on,53,0,1440
2,note_on,52,36,0
2,note_on,52,0,720
2,note_on,49,35,0
2,note_on,49,0,720
2,note_on,51,35,0
2,note_on,51,0,720
2,note_on,56,33,0
2,note_on,56,0,720
2,note_on,51,40,0
2,note_on,51,0,720
2,note_on,55,40,0
2,note_on,55,0,720
2,note_on,51,33,0
2,note_on,51,0,720
2,note_on,55,31,0
2,note_on,55,0,600
2,note_on,49,28,1560
2,note_on,52,28,0
2,note_on,52,0,720
2,note_on,49,0,0
2,note_on,51,27,0
2,note_on,54,27,0
2,note_on,54,0,720
2,note_on,51,0,0
2,note_on,49,28,0
2,note_on,52,28,0
2,note_on,52,0,720
2,note_on,49,0,0
2,note_on,51,27,0
2,note_on,54,27,0
2,note_on,54,0,600
2,note_on,51,0,0
2,note_on,52,35,1560
2,note_on,56,35,0
2,note_on,56,0,720
2,note_on,52,0,0
2,note_on,49,42,0
2,note_on,52,42,0
2,note_on,52,0,720
2,note_on,49,0,0
2,note_on,51,38,0
2,note_on,54,38,0
2,note_on,54,0,720
2,note_on,51,0,0
2,note_on,52,36,0
2,note_on,56,36,0
2,note_on,56,0,720
2,note_on,52,0,0
2,note_on,51,27,1440
2,note_on,51,0,720
2,note_on,55,27,0
2,note_on,55,0,720
2,note_on,51,40,1440
2,note_on,51,0,2160
2,note_on,52,40,0
2,note_on,52,0,720
2,note_on,59,42,0
2,note_on,59,0,480
2,note_on,58,40,240
2,note_on,58,0,480
2,note_on,57,38,0
2,note_on,57,0,240
2,note_on,56,46,0
2,note_on,56,0,240
2,note_on,55,43,0
2,note_on,55,0,480
2,note_on,48,48,0
2,note_on,48,0,480
2,note_on,49,41,0
2,note_on,49,0,240
2,note_on,49,38,2880
2,note_on,49,0,480
2,note_on,51,38,240
2,note_on,51,0,480
2,note_on,48,38,1680
2,note_on,48,0,480
2,note_on,49,38,240
2,note_on,49,0,480
2,note_on,44,51,1560
2,note_on,51,51,60
2,note_on,59,51,60
2,note_on,59,0,480
2,note_on,51,0,0
2,note_on,44,0,0
3,note_on,44,33,194
3,note_on,44,0,2080
3,note_on,44,31,0
3,note_on,44,0,710
3,note_on,44,34,10
3,note_on,44,0,149
3,note_on,44,33,10
3,note_on,44,0,170
3,note_on,44,34,10
3,note_on,44,0,163
3,note_on,44,34,10
3,note_on,44,0,166
3,note_on,44,34,10
3,note_on,44,0,93
3,note_on,44,34,240
3,note_on,44,0,183
3,note_on,44,34,187
3,note_on,44,0,296
3,note_on,44,28,10
3,note_on,44,0,233
3,note_on,44,31,487
3,note_on,44,0,83
3,note_on,44,36,10
3,note_on,44,0,470
3,note_on,44,29,10
3,note_on,44,0,230
3,note_on,44,33,10
3,note_on,44,0,470
3,note_on,44,29,10
3,note_on,44,0,230
3,note_on,44,32,0
3,note_on,44,0,417
3,note_on,44,33,10
3,note_on,44,0,224
3,note_on,44,36,10
3,note_on,44,0,449
3,note_on,44,34,10
3,note_on,44,0,230
3,note_on,44,36,10
3,note_on,44,0,350
3,note_on,44,33,10
3,note_on,44,0,230
3,note_on,44,36,10
3,note_on,44,0,283
3,note_on,44,33,10
3,note_on,44,0,230
3,note_on,44,36,10
3,note_on,44,0,214
3,note_on,44,33,10
3,note_on,44,0,230
3,note_on,44,36,10
3,note_on,44,0,371
3,note_on,44,33,10
3,note_on,44,0,149
3,note_on,44,36,10
3,note_on,44,0,310
3,note_on,44,30,10
3,note_on,44,0,230
3,note_on,44,33,10
3,note_on,44,0,470
3,note_on,44,30,10
3,note_on,44,0,230
3,note_on,44,34,10
3,note_on,44,0,403
3,note_on,44,33,10
3,note_on,44,0,223
3,note_on,44,36,10
3,note_on,44,0,346
3,note_on,44,33,10
3,note_on,44,0,180
3,note_on,44,36,10
3,note_on,44,0,166
3,note_on,44,34,10
3,note_on,44,0,166
3,note_on,44,36,0
3,note_on,44,0,162
3,note_on,44,37,0
3,note_on,44,0,133
3,note_on,44,38,0
3,note_on,44,0,169
3,note_on,44,38,0
3,note_on,44,0,296
3,note_on,44,36,10
3,note_on,44,0,230
3,note_on,44,36,10
3,note_on,44,0,470
3,note_on,44,31,10
3,note_on,44,0,96
3,note_on,44,36,10
3,note_on,44,0,470
3,note_on,44,30,10
3,note_on,44,0,230
3,note_on,44,32,10
3,note_on,44,0,470
3,note_on,44,29,10
3,note_on,44,0,230
3,note_on,44,34,10
3,note_on,44,0,470
3,note_on,44,33,10
3,note_on,44,0,214
3,note_on,44,36,10
3,note_on,44,0,371
3,note_on,44,34,10
3,note_on,44,0,230
3,note_on,44,36,10
3,note_on,44,0,350
3,note_on,44,33,10
3,note_on,44,0,230
3,note_on,44,36,10
3,note_on,44,0,203
3,note_on,44,29,10
3,note_on,44,0,230
3,note_on,44,33,10
3,note_on,44,0,196
3,note_on,44,33,10
3,note_on,44,0,127
3,note_on,44,36,10
3,note_on,44,0,287
3,note_on,44,33,10
3,note_on,44,0,230
3,note_on,44,36,10
3,note_on,44,0,310
3,note_on,44,33,10
3,note_on,44,0,230
3,note_on,44,36,10
3,note_on,44,0,13
3,note_on,44,33,10
3,note_on,44,0,230
3,note_on,44,35,10
3,note_on,44,0,350
3,note_on,44,33,10
3,note_on,44,0,230
3,note_on,44,36,10
3,note_on,44,0,457
3,note_on,44,33,10
3,note_on,44,0,230
3,note_on,44,34,10
3,note_on,44,0,337
3,note_on,44,33,10
3,note_on,44,0,230
3,note_on,44,35,10
3,note_on,44,0,323
3,note_on,44,30,10
3,note_on,44,0,110
3,note_on,44,35,10
3,note_on,44,0,378
3,note_on,44,33,10
3,note_on,44,0,117
3,note_on,44,34,10
3,note_on,44,0,357
3,note_on,44,28,10
3,note_on,44,0,60
3,note_on,44,35,10
3,note_on,44,0,96
3,note_on,44,28,10
3,note_on,44,0,230
3,note_on,44,31,10
3,note_on,44,0,470
3,note_on,44,28,10
3,note_on,44,0,230
3,note_on,44,31,10
3,note_on,44,0,470
3,note_on,44,28,10
3,note_on,44,0,230
3,note_on,44,30,10
3,note_on,44,0,470
3,note_on,44,27,10
3,note_on,44,0,230
3,note_on,44,31,10
3,note_on,44,0,336
3,note_on,44,28,10
3,note_on,44,0,230
3,note_on,44,30,10
3,note_on,44,0,329
3,note_on,44,28,10
3,note_on,44,0,131
3,note_on,44,30,10
3,note_on,44,0,350
3,note_on,44,28,10
3,note_on,44,0,230
3,note_on,44,30,10
3,note_on,44,0,322
3,note_on,44,27,10
3,note_on,44,0,117
3,note_on,44,33,10
3,note_on,44,0,270
3,note_on,44,31,10
3,note_on,44,0,230
3,note_on,44,35,10
3,note_on,44,0,230
3,note_on,44,31,10
3,note_on,44,0,296
3,note_on,44,28,10
3,note_on,44,0,230
3,note_on,44,34,10
3,note_on,44,0,310
3,note_on,44,28,10
3,note_on,44,0,123
3,note_on,44,31,10
3,note_on,44,0,296
3,note_on,44,28,10
3,note_on,44,0,230
3,note_on,44,31,10
3,note_on,44,0,296
3,note_on,44,28,10
3,note_on,44,0,230
3,note_on,44,31,10
3,note_on,44,0,283
3,note_on,44,28,10
3,note_on,44,0,230
3,note_on,44,30,10
3,note_on,44,0,310
3,note_on,44,28,10
3,note_on,44,0,230
3,note_on,44,32,10
3,note_on,44,0,256
3,note_on,44,23,10
3,note_on,44,0,230
3,note_on,44,30,10
3,note_on,44,0,470
3,note_on,44,28,10
3,note_on,44,0,96
3,note_on,44,30,10
3,note_on,44,0,329
3,note_on,44,27,10
3,note_on,44,0,131
3,note_on,44,28,10
3,note_on,44,0,131
3,note_on,44,23,10
3,note_on,44,0,117
3,note_on,44,28,10
3,note_on,44,0,256
3,note_on,44,28,10
3,note_on,44,0,230
3,note_on,44,32,10
3,note_on,44,0,470
3,note_on,44,29,10
3,note_on,44,0,217
3,note_on,44,32,10
3,note_on,44,0,414
3,note_on,44,26,10
3,note_on,44,0,230
3,note_on,44,30,10
3,note_on,44,0,329
3,note_on,44,28,10
3,note_on,44,0,124
3,note_on,44,31,10
3,note_on,44,0,357
3,note_on,44,28,10
3,note_on,44,0,230
3,note_on,44,30,10
3,note_on,44,0,367
3,note_on,44,28,10
3,note_on,44,0,156
3,note_on,44,34,10
3,note_on,44,0,310
3,note_on,44,28,10
3,note_on,44,0,230
3,note_on,44,32,10
3,note_on,44,0,270
3,note_on,44,33,10
3,note_on,44,0,283
3,note_on,44,31,10
3,note_on,44,0,230
3,note_on,44,34,10
3,note_on,44,0,310
3,note_on,44,28,10
3,note_on,44,0,110
3,note_on,44,35,10
3,note_on,44,0,256
3,note_on,44,28,10
3,note_on,44,0,3
3,note_on,44,36,10
3,note_on,44,0,283
3,note_on,44,28,10
3,note_on,44,0,230
3,note_on,44,32,10
3,note_on,44,0,270
3,note_on,44,28,10
3,note_on,44,0,230
3,note_on,44,30,10
3,note_on,44,0,270
3,note_on,44,28,10
3,note_on,44,0,230
3,note_on,44,32,10
3,note_on,44,0,243
3,note_on,44,27,10
3,note_on,44,0,230
3,note_on,44,30,10
3,note_on,44,0,216
3,note_on,44,27,10
3,note_on,44,0,216
3,note_on,44,31,10
3,note_on,44,0,410
3,note_on,44,28,10
3,note_on,44,0,96
3,note_on,44,31,10
3,note_on,44,0,149
3,note_on,44,23,10
3,note_on,44,0,89
3,note_on,44,32,10
3,note_on,44,0,155
3,note_on,44,33,0
3,note_on,44,0,120
3,note_on,44,35,0
3,note_on,44,0,162
3,note_on,44,34,0
3,note_on,44,0,230
3,note_on,44,27,10
3,note_on,44,0,230
3,note_on,44,32,10
3,note_on,44,0,170
3,note_on,44,29,10
3,note_on,44,0,83
3,note_on,44,28,10
3,note_on,44,0,470
3,note_on,44,22,10
3,note_on,44,0,230
3,note_on,44,26,10
3,note_on,44,0,470
3,note_on,44,20,10
3,note_on,44,0,230
3,note_on,44,26,10
3,note_on,44,0,371
3,note_on,44,20,10
3,note_on,44,0,214
3,note_on,44,26,10
3,note_on,44,0,374
3,note_on,44,20,10
3,note_on,44,0,230
3,note_on,44,25,10
3,note_on,44,0,296
3,note_on,44,22,10
3,note_on,44,0,230
3,note_on,44,26,10
3,note_on,44,0,230
3,note_on,44,22,10
3,note_on,44,0,230
3,note_on,44,26,10
3,note_on,44,0,470
3,note_on,44,22,10
3,note_on,44,0,230
3,note_on,44,28,10
3,note_on,44,0,470
3,note_on,44,22,10
3,note_on,44,0,230
3,note_on,44,27,10
3,note_on,44,0,333
3,note_on,44,28,10
3,note_on,44,0,230
3,note_on,44,30,10
3,note_on,44,0,93
3,note_on,44,28,10
3,note_on,44,0,70
3,note_on,44,32,0
3,note_on,44,0,333
3,note_on,44,31,10
3,note_on,44,0,230
3,note_on,44,35,10
3,note_on,44,0,470
3,note_on,44,23,10
3,note_on,44,0,230
3,note_on,44,26,10
3,note_on,44,0,310
3,note_on,44,27,10
3,note_on,44,0,230
3,note_on,44,29,10
3,note_on,44,0,115
3,note_on,44,30,10
3,note_on,44,0,81
3,note_on,44,32,10
3,note_on,44,0,310
3,note_on,44,31,10
3,note_on,44,0,230
3,note_on,44,34,10
3,note_on,44,0,470
3,note_on,44,22,10
3,note_on,44,0,230
3,note_on,44,32,10
3,note_on,44,0,216
3,note_on,44,27,10
3,note_on,44,0,230
3,note_on,44,28,10
3,note_on,44,0,470
3,note_on,44,25,10
3,note_on,44,0,230
3,note_on,44,28,10
3,note_on,44,0,470
3,note_on,44,25,10
3,note_on,44,0,230
3,note_on,44,28,10
3,note_on,44,0,470
3,note_on,44,25,10
3,note_on,44,0,230
3,note_on,44,32,10
3,note_on,44,0,321
3,note_on,44,26,10
3,note_on,44,0,230
3,note_on,44,31,10
3,note_on,44,0,104
3,note_on,44,23,10
3,note_on,44,0,138
3,note_on,44,30,0
3,note_on,44,0,379
3,note_on,44,26,10
3,note_on,44,0,230
3,note_on,44,28,10
3,note_on,44,0,127
3,note_on,44,26,10
3,note_on,44,0,115
3,note_on,44,29,10
3,note_on,44,0,296
3,note_on,44,23,10
3,note_on,44,0,230
3,note_on,44,27,10
3,note_on,44,0,230
3,note_on,44,25,10
3,note_on,44,0,230
3,note_on,44,27,10
3,note_on,44,0,310
3,note_on,44,23,10
3,note_on,44,0,230
3,note_on,44,33,10
3,note_on,44,0,470
3,note_on,44,28,10
3,note_on,44,0,230
3,note_on,44,35,10
3,note_on,44,0,310
3,note_on,44,31,10
3,note_on,44,0,230
3,note_on,44,35,10
3,note_on,44,0,283
3,note_on,44,31,10
3,note_on,44,0,230
3,note_on,44,31,10
3,note_on,44,0,310
3,note_on,44,23,10
3,note_on,44,0,230
3,note_on,44,27,10
3,note_on,44,0,296
3,note_on,44,23,10
3,note_on,44,0,230
3,note_on,44,28,0
3,note_on,44,0,403
3,note_on,44,23,10
3,note_on,44,0,25
3,note_on,44,27,10
3,note_on,44,0,152
3,note_on,44,23,10
3,note_on,44,0,163
3,note_on,44,28,10
3,note_on,44,0,190
3,note_on,44,23,10
3,note_on,44,0,230
3,note_on,44,27,10
3,note_on,44,0,470
3,note_on,44,22,10
3,note_on,44,0,230
3,note_on,44,28,10
3,note_on,44,0,470
3,note_on,44,26,10
3,note_on,44,0,230
3,note_on,44,29,10
3,note_on,44,0,243
3,note_on,44,22,10
3,note_on,44,0,123
3,note_on,44,26,10
3,note_on,44,0,470
3,note_on,44,27,10
3,note_on,44,0,230
3,note_on,44,30,10
3,note_on,44,0,470
3,note_on,44,23,10
3,note_on,44,0,230
3,note_on,44,27,10
3,note_on,44,0,420
3,note_on,44,22,10
3,note_on,44,0,214
3,note_on,44,27,10
3,note_on,44,0,339
3,note_on,44,20,10
3,note_on,44,0,230
3,note_on,44,26,10
3,note_on,44,0,322
3,note_on,44,27,10
3,note_on,44,0,230
3,note_on,44,29,10
3,note_on,44,0,470
3,note_on,44,27,10
3,note_on,44,0,230
3,note_on,44,29,10
3,note_on,44,0,470
3,note_on,44,27,10
3,note_on,44,0,230
3,note_on,44,29,10
3,note_on,44,0,470
3,note_on,44,22,10
3,note_on,44,0,213
3,note_on,44,28,10
3,note_on,44,0,436
3,note_on,44,22,10
3,note_on,44,0,230
3,note_on,44,25,10
3,note_on,44,0,104
3,note_on,44,22,10
3,note_on,44,0,93
3,note_on,44,28,10
3,note_on,44,0,401
3,note_on,44,27,10
3,note_on,44,0,230
3,note_on,44,29,10
3,note_on,44,0,470
3,note_on,44,28,10
3,note_on,44,0,173
3,note_on,44,31,10
3,note_on,44,0,436
3,note_on,44,22,10
3,note_on,44,0,230
3,note_on,44,27,10
3,note_on,44,0,104
3,note_on,44,22,10
3,note_on,44,0,104
3,note_on,44,28,10
3,note_on,44,0,350
3,note_on,44,27,10
3,note_on,44,0,230
3,note_on,44,29,10
3,note_on,44,0,470
3,note_on,44,22,10
3,note_on,44,0,173
3,note_on,44,28,10
3,note_on,44,0,417
3,note_on,44,27,10
3,note_on,44,0,230
3,note_on,44,29,10
3,note_on,44,0,470
3,note_on,44,25,10
3,note_on,44,0,230
3,note_on,44,29,10
3,note_on,44,0,470
3,note_on,44,25,10
3,note_on,44,0,230
3,note_on,44,27,10
3,note_on,44,0,470
3,note_on,44,25,10
3,note_on,44,0,230
3,note_on,44,28,10
3,note_on,44,0,344
3,note_on,44,25,10
3,note_on,44,0,230
3,note_on,44,23,10
3,note_on,44,0,104
3,note_on,44,22,10
3,note_on,44,0,138
3,note_on,44,26,10
3,note_on,44,0,310
3,note_on,44,22,10
3,note_on,44,0,230
3,note_on,44,28,10
3,note_on,44,0,150
3,note_on,44,22,10
3,note_on,44,0,138
3,note_on,44,27,10
3,note_on,44,0,310
3,note_on,44,27,10
3,note_on,44,0,230
3,note_on,44,30,10
3,note_on,44,0,323
3,note_on,44,25,10
3,note_on,44,0,230
3,note_on,44,29,10
3,note_on,44,0,216
3,note_on,44,23,10
3,note_on,44,0,230
3,note_on,44,31,10
3,note_on,44,0,470
3,note_on,44,28,10
3,note_on,44,0,230
3,note_on,44,33,10
3,note_on,44,0,243
3,note_on,44,28,10
3,note_on,44,0,230
3,note_on,44,31,10
3,note_on,44,0,270
3,note_on,44,28,10
3,note_on,44,0,230
3,note_on,44,33,10
3,note_on,44,0,310
3,note_on,44,23,10
3,note_on,44,0,230
3,note_on,44,27,10
3,note_on,44,0,243
3,note_on,44,23,10
3,note_on,44,0,230
3,note_on,44,28,10
3,note_on,44,0,350
3,note_on,44,22,10
3,note_on,44,0,159
3,note_on,44,25,10
3,note_on,44,0,110
3,note_on,44,23,10
3,note_on,44,0,145
3,note_on,44,28,0
3,note_on,44,0,350
3,note_on,44,24,10
3,note_on,44,0,230
3,note_on,44,28,10
3,note_on,44,0,470
3,note_on,44,25,10
3,note_on,44,0,230
3,note_on,44,28,10
3,note_on,44,0,322
3,note_on,44,23,10
3,note_on,44,0,230
3,note_on,44,22,10
3,note_on,44,0,350
3,note_on,44,26,10
3,note_on,44,0,131
3,note_on,44,22,10
3,note_on,44,0,385
3,note_on,44,23,10
3,note_on,44,0,230
3,note_on,44,22,10
3,note_on,44,0,357
3,note_on,44,25,10
3,note_on,44,0,152
3,note_on,44,28,10
3,note_on,44,0,270
3,note_on,44,25,10
3,note_on,44,0,230
3,note_on,44,28,10
3,note_on,44,0,470
3,note_on,44,25,10
3,note_on,44,0,230
3,note_on,44,31,0
3,note_on,44,0,283
3,note_on,44,28,10
3,note_on,44,0,230
3,note_on,44,33,10
3,note_on,44,0,470
3,note_on,44,28,10
3,note_on,44,0,230
3,note_on,44,33,10
3,note_on,44,0,310
3,note_on,44,26,10
3,note_on,44,0,230
3,note_on,44,25,10
3,note_on,44,0,310
3,note_on,44,23,10
3,note_on,44,0,230
3,note_on,44,28,10
3,note_on,44,0,270
3,note_on,44,24,10
3,note_on,44,0,230
3,note_on,44,27,10
3,note_on,44,0,470
3,note_on,44,24,10
3,note_on,44,0,230
3,note_on,44,26,10
3,note_on,44,0,350
3,note_on,44,18,10
3,note_on,44,0,138
3,note_on,44,22,10
3,note_on,44,0,131
3,note_on,44,18,10
3,note_on,44,0,145
3,note_on,44,25,10
3,note_on,44,0,270
3,note_on,44,20,10
3,note_on,44,0,230
3,note_on,44,22,10
3,note_on,44,0,470
3,note_on,44,25,10
3,note_on,44,0,83
3,note_on,44,30,10
3,note_on,44,0,470
3,note_on,44,25,10
3,note_on,44,0,230
3,note_on,44,28,10
3,note_on,44,0,470
3,note_on,44,25,10
3,note_on,44,0,230
3,note_on,44,28,10
3,note_on,44,0,410
3,note_on,44,25,10
3,note_on,44,0,214
3,note_on,44,28,10
3,note_on,44,0,413
3,note_on,44,22,10
3,note_on,44,0,230
3,note_on,44,28,10
3,note_on,44,0,333
3,note_on,44,25,10
3,note_on,44,0,230
3,note_on,44,28,10
3,note_on,44,0,159
3,note_on,44,28,0
3,note_on,44,0,243
3,note_on,44,23,10
3,note_on,44,0,230
3,note_on,44,28,10
3,note_on,44,0,470
3,note_on,44,23,10
3,note_on,44,0,230
3,note_on,44,28,10
3,note_on,44,0,470
3,note_on,44,23,10
3,note_on,44,0,230
3,note_on,44,28,10
3,note_on,44,0,470
3,note_on,44,23,10
3,note_on,44,0,230
3,note_on,44,28,10
3,note_on,44,0,323
3,note_on,44,23,10
3,note_on,44,0,230
3,note_on,44,28,10
3,note_on,44,0,270
3,note_on,44,23,10
3,note_on,44,0,230
3,note_on,44,28,10
3,note_on,44,0,310
3,note_on,44,23,10
3,note_on,44,0,230
3,note_on,44,28,10
3,note_on,44,0,470
3,note_on,44,23,10
3,note_on,44,0,230
3,note_on,44,28,10
3,note_on,44,0,323
3,note_on,44,23,10
3,note_on,44,0,230
3,note_on,44,28,10
3,note_on,44,0,310
3,note_on,44,23,10
3,note_on,44,0,230
3,note_on,44,28,10
3,note_on,44,0,219
3,note_on,44,28,480
3,note_on,44,0,710
3,note_on,44,28,10
3,note_on,44,0,710
