Track,Message Type,Note,Velocity,Time
1,note_on,54,76,1
1,note_on,66,90,0
1,note_on,66,0,239
1,note_on,54,0,0
1,note_on,55,96,240
1,note_on,55,0,480
1,note_on,66,86,960
1,note_on,54,73,0
1,note_on,54,0,120
1,note_on,66,0,0
1,note_on,54,69,120
1,note_on,66,82,0
1,note_on,66,0,120
1,note_on,54,0,0
1,note_on,55,91,120
1,note_on,55,0,480
1,note_on,53,76,960
1,note_on,65,90,0
1,note_on,65,0,240
1,note_on,53,0,0
1,note_on,56,93,240
1,note_on,56,0,240
1,note_on,55,87,0
1,note_on,55,0,240
1,note_on,65,86,960
1,note_on,53,73,0
1,note_on,53,0,120
1,note_on,65,0,0
1,note_on,53,69,120
1,note_on,65,82,0
1,note_on,65,0,120
1,note_on,53,0,0
1,note_on,56,90,120
1,note_on,56,0,240
1,note_on,55,85,0
1,note_on,55,0,180
1,note_on,56,90,60
1,note_on,56,0,240
1,note_on,55,87,0
1,note_on,55,0,180
1,note_on,55,86,540
1,note_on,55,0,480
1,note_on,55,82,0
1,note_on,55,0,480
1,note_on,55,95,0
1,note_on,56,85,240
1,note_on,56,0,120
1,note_on,55,0,120
1,note_on,55,83,0
1,note_on,65,77,240
1,note_on,65,0,120
1,note_on,55,0,120
1,note_on,55,85,0
1,note_on,55,0,480
1,note_on,55,83,0
1,note_on,55,0,480
1,note_on,55,94,0
1,note_on,56,84,240
1,note_on,56,0,240
1,note_on,55,0,0
1,note_on,55,83,0
1,note_on,61,77,240
1,note_on,61,0,120
1,note_on,55,0,120
1,note_on,55,88,0
1,note_on,56,82,240
1,note_on,56,0,240
1,note_on,55,0,0
1,note_on,55,84,0
1,note_on,65,75,240
1,note_on,65,0,120
1,note_on,55,0,120
1,note_on,55,83,0
1,note_on,56,76,240
1,note_on,56,0,240
1,note_on,55,0,0
1,note_on,55,82,0
1,note_on,61,77,240
1,note_on,61,0,240
1,note_on,55,0,0
1,note_on,55,84,0
1,note_on,55,0,480
1,note_on,55,82,0
1,note_on,55,0,480
1,note_on,55,85,0
1,note_on,55,0,480
1,note_on,55,84,0
1,note_on,55,0,480
1,note_on,55,71,0
1,note_on,55,0,120
1,note_on,60,65,120
1,note_on,60,0,120
1,note_on,56,84,120
1,note_on,56,0,120
1,note_on,61,73,120
1,note_on,61,0,120
1,note_on,57,72,120
1,note_on,57,0,120
1,note_on,62,71,120
1,note_on,62,0,120
1,note_on,58,81,120
1,note_on,58,0,120
1,note_on,63,70,120
1,note_on,63,0,120
1,note_on,55,73,120
1,note_on,55,0,120
1,note_on,60,68,120
1,note_on,60,0,120
1,note_on,56,88,120
1,note_on,56,0,120
1,note_on,61,77,120
1,note_on,61,0,120
1,note_on,57,75,120
1,note_on,57,0,120
1,note_on,62,74,120
1,note_on,62,0,120
1,note_on,58,87,120
1,note_on,58,0,120
1,note_on,63,74,120
1,note_on,63,0,120
1,note_on,55,76,120
1,note_on,55,0,120
1,note_on,60,70,120
1,note_on,60,0,120
1,note_on,56,90,120
1,note_on,56,0,120
1,note_on,61,80,120
1,note_on,61,0,120
1,note_on,57,78,120
1,note_on,57,0,120
1,note_on,62,77,120
1,note_on,62,0,120
1,note_on,58,89,120
1,note_on,58,0,120
1,note_on,63,76,120
1,note_on,63,0,120
1,note_on,55,81,120
1,note_on,55,0,120
1,note_on,60,75,120
1,note_on,60,0,120
1,note_on,56,99,120
1,note_on,56,0,120
1,note_on,61,86,120
1,note_on,61,0,120
1,note_on,57,88,120
1,note_on,57,0,120
1,note_on,62,83,120
1,note_on,62,0,120
1,note_on,58,99,120
1,note_on,58,0,120
1,note_on,63,84,120
1,note_on,63,0,120
1,note_on,89,62,60
1,note_on,89,0,60
1,note_on,76,64,0
1,note_on,84,76,0
1,note_on,88,76,0
1,note_on,88,0,120
1,note_on,84,0,0
1,note_on,76,0,0
1,note_on,87,60,300
1,note_on,87,0,60
1,note_on,80,72,0
1,note_on,85,72,0
1,note_on,77,61,0
1,note_on,77,0,120
1,note_on,85,0,0
1,note_on,80,0,0
1,note_on,86,58,300
1,note_on,86,0,60
1,note_on,74,61,0
1,note_on,78,72,0
1,note_on,84,72,0
1,note_on,84,0,120
1,note_on,78,0,0
1,note_on,74,0,0
1,note_on,84,55,300
1,note_on,84,0,60
1,note_on,70,58,0
1,note_on,82,69,0
1,note_on,79,69,0
1,note_on,79,0,120
1,note_on,82,0,0
1,note_on,70,0,0
1,note_on,77,58,300
1,note_on,77,0,60
1,note_on,76,72,0
1,note_on,72,72,0
1,note_on,64,61,0
1,note_on,64,0,120
1,note_on,72,0,0
1,note_on,76,0,0
1,note_on,75,56,300
1,note_on,75,0,60
1,note_on,73,68,0
1,note_on,65,57,0
1,note_on,68,68,0
1,note_on,68,0,120
1,note_on,65,0,0
1,note_on,73,0,0
1,note_on,74,54,300
1,note_on,74,0,60
1,note_on,66,68,0
1,note_on,62,57,0
1,note_on,72,68,0
1,note_on,72,0,120
1,note_on,62,0,0
1,note_on,66,0,0
1,note_on,72,52,300
1,note_on,72,0,60
1,note_on,70,65,0
1,note_on,67,65,0
1,note_on,58,55,0
1,note_on,58,0,120
1,note_on,67,0,0
1,note_on,70,0,0
1,note_on,65,55,300
1,note_on,65,0,60
1,note_on,55,57,0
1,note_on,60,68,0
1,note_on,64,68,0
1,note_on,64,0,120
1,note_on,60,0,0
1,note_on,55,0,0
1,note_on,63,54,300
1,note_on,63,0,60
1,note_on,56,64,0
1,note_on,61,64,0
1,note_on,53,54,0
1,note_on,53,0,120
1,note_on,61,0,0
1,note_on,56,0,0
1,note_on,62,52,300
1,note_on,62,0,60
1,note_on,50,54,0
1,note_on,54,64,0
1,note_on,60,64,0
1,note_on,60,0,120
1,note_on,54,0,0
1,note_on,50,0,0
1,note_on,60,49,300
1,note_on,60,0,60
1,note_on,51,52,0
1,note_on,58,62,0
1,note_on,55,62,0
1,note_on,55,0,120
1,note_on,58,0,0
1,note_on,51,0,0
1,note_on,55,88,360
1,note_on,55,0,120
1,note_on,60,73,120
1,note_on,60,0,120
1,note_on,56,85,120
1,note_on,56,0,120
1,note_on,61,71,120
1,note_on,61,0,120
1,note_on,57,87,120
1,note_on,57,0,120
1,note_on,62,72,120
1,note_on,62,0,120
1,note_on,58,87,120
1,note_on,58,0,120
1,note_on,63,72,120
1,note_on,63,0,120
1,note_on,64,67,120
1,note_on,72,79,0
1,note_on,67,67,0
1,note_on,60,67,0
1,note_on,60,0,240
1,note_on,64,0,0
1,note_on,72,0,0
1,note_on,67,0,0
1,note_on,67,61,240
1,note_on,79,72,0
1,note_on,72,61,0
1,note_on,76,61,0
1,note_on,76,0,480
1,note_on,67,0,0
1,note_on,79,0,0
1,note_on,72,0,0
1,note_on,76,63,0
1,note_on,67,63,0
1,note_on,72,63,0
1,note_on,79,75,0
1,note_on,79,0,480
1,note_on,76,0,0
1,note_on,67,0,0
1,note_on,72,0,0
1,note_on,72,61,0
1,note_on,79,72,0
1,note_on,76,61,0
1,note_on,67,61,0
1,note_on,67,0,420
1,note_on,72,0,0
1,note_on,79,0,0
1,note_on,76,0,0
1,note_on,68,54,0
1,note_on,80,64,0
1,note_on,80,0,60
1,note_on,68,0,0
1,note_on,79,72,0
1,note_on,67,61,0
1,note_on,67,0,240
1,note_on,79,0,0
1,note_on,60,58,240
1,note_on,72,69,0
1,note_on,64,58,0
1,note_on,67,58,0
1,note_on,67,0,480
1,note_on,60,0,0
1,note_on,72,0,0
1,note_on,64,0,0
1,note_on,68,62,0
1,note_on,74,73,0
1,note_on,65,62,0
1,note_on,62,62,0
1,note_on,62,0,720
1,note_on,68,0,0
1,note_on,74,0,0
1,note_on,65,0,0
1,note_on,64,67,240
1,note_on,60,67,0
1,note_on,67,67,0
1,note_on,72,79,0
1,note_on,72,0,240
1,note_on,64,0,0
1,note_on,60,0,0
1,note_on,67,0,0
1,note_on,67,61,240
1,note_on,79,72,0
1,note_on,72,61,0
1,note_on,76,61,0
1,note_on,76,0,480
1,note_on,67,0,0
1,note_on,79,0,0
1,note_on,72,0,0
1,note_on,76,63,0
1,note_on,79,75,0
1,note_on,72,63,0
1,note_on,67,63,0
1,note_on,67,0,480
1,note_on,76,0,0
1,note_on,79,0,0
1,note_on,72,0,0
1,note_on,72,61,0
1,note_on,67,61,0
1,note_on,79,72,0
1,note_on,76,61,0
1,note_on,76,0,420
1,note_on,72,0,0
1,note_on,67,0,0
1,note_on,79,0,0
1,note_on,81,64,0
1,note_on,69,54,0
1,note_on,69,0,60
1,note_on,81,0,0
1,note_on,67,61,0
1,note_on,79,72,0
1,note_on,79,0,240
1,note_on,67,0,0
1,note_on,60,58,240
1,note_on,72,69,0
1,note_on,64,58,0
1,note_on,67,58,0
1,note_on,67,0,480
1,note_on,60,0,0
1,note_on,72,0,0
1,note_on,64,0,0
1,note_on,69,62,0
1,note_on,62,62,0
1,note_on,66,62,0
1,note_on,74,73,0
1,note_on,74,0,720
1,note_on,69,0,0
1,note_on,62,0,0
1,note_on,66,0,0
1,note_on,75,83,240
1,note_on,69,70,0
1,note_on,78,83,0
1,note_on,78,0,240
1,note_on,69,0,0
1,note_on,75,0,0
1,note_on,75,61,240
1,note_on,69,61,0
1,note_on,78,72,0
1,note_on,81,72,0
1,note_on,81,0,480
1,note_on,75,0,0
1,note_on,69,0,0
1,note_on,78,0,0
1,note_on,69,63,0
1,note_on,81,75,0
1,note_on,75,63,0
1,note_on,78,75,0
1,note_on,78,0,480
1,note_on,69,0,0
1,note_on,81,0,0
1,note_on,75,0,0
1,note_on,78,72,0
1,note_on,81,72,0
1,note_on,75,61,0
1,note_on,69,61,0
1,note_on,69,0,480
1,note_on,78,0,0
1,note_on,81,0,0
1,note_on,75,0,0
1,note_on,87,82,0
1,note_on,79,69,0
1,note_on,82,69,0
1,note_on,91,82,0
1,note_on,91,0,240
1,note_on,87,0,0
1,note_on,79,0,0
1,note_on,82,0,0
1,note_on,74,61,0
1,note_on,86,72,0
1,note_on,86,0,240
1,note_on,74,0,0
1,note_on,75,65,0
1,note_on,87,77,0
1,note_on,87,0,240
1,note_on,75,0,0
1,note_on,70,61,0
1,note_on,82,72,0
1,note_on,82,0,240
1,note_on,70,0,0
1,note_on,91,80,0
1,note_on,79,68,0
1,note_on,87,80,0
1,note_on,82,68,0
1,note_on,82,0,240
1,note_on,91,0,0
1,note_on,79,0,0
1,note_on,87,0,0
1,note_on,74,61,0
1,note_on,86,72,0
1,note_on,86,0,240
1,note_on,74,0,0
1,note_on,87,77,0
1,note_on,75,65,0
1,note_on,75,0,240
1,note_on,87,0,0
1,note_on,82,72,0
1,note_on,70,61,0
1,note_on,70,0,240
1,note_on,82,0,0
1,note_on,78,83,0
1,note_on,69,70,0
1,note_on,75,83,0
1,note_on,75,0,240
1,note_on,69,0,0
1,note_on,78,0,0
1,note_on,78,72,240
1,note_on,81,72,0
1,note_on,69,61,0
1,note_on,75,61,0
1,note_on,75,0,480
1,note_on,78,0,0
1,note_on,81,0,0
1,note_on,69,0,0
1,note_on,78,75,0
1,note_on,69,63,0
1,note_on,75,63,0
1,note_on,81,75,0
1,note_on,81,0,480
1,note_on,78,0,0
1,note_on,69,0,0
1,note_on,75,0,0
1,note_on,75,61,0
1,note_on,81,72,0
1,note_on,78,72,0
1,note_on,69,61,0
1,note_on,69,0,480
1,note_on,75,0,0
1,note_on,81,0,0
1,note_on,78,0,0
1,note_on,91,82,0
1,note_on,94,82,0
1,note_on,87,69,0
1,note_on,82,69,0
1,note_on,82,0,240
1,note_on,91,0,0
1,note_on,94,0,0
1,note_on,87,0,0
1,note_on,94,80,240
1,note_on,82,68,0
1,note_on,82,0,240
1,note_on,94,0,0
1,note_on,77,61,0
1,note_on,89,72,0
1,note_on,89,0,240
1,note_on,77,0,0
1,note_on,87,73,0
1,note_on,79,62,0
1,note_on,82,62,0
1,note_on,91,73,0
1,note_on,91,0,240
1,note_on,87,0,0
1,note_on,79,0,0
1,note_on,82,0,0
1,note_on,75,58,0
1,note_on,87,69,0
1,note_on,87,0,240
1,note_on,75,0,0
1,note_on,74,65,0
1,note_on,86,77,0
1,note_on,86,0,240
1,note_on,74,0,0
1,note_on,70,61,0
1,note_on,82,72,0
1,note_on,82,0,240
1,note_on,70,0,0
1,note_on,75,70,0
1,note_on,71,70,0
1,note_on,81,83,0
1,note_on,83,83,0
1,note_on,83,0,240
1,note_on,75,0,0
1,note_on,71,0,0
1,note_on,81,0,0
1,note_on,75,61,240
1,note_on,87,72,0
1,note_on,78,72,0
1,note_on,83,72,0
1,note_on,83,0,480
1,note_on,75,0,0
1,note_on,87,0,0
1,note_on,78,0,0
1,note_on,83,75,0
1,note_on,87,75,0
1,note_on,78,75,0
1,note_on,75,63,0
1,note_on,75,0,480
1,note_on,83,0,0
1,note_on,87,0,0
1,note_on,78,0,0
1,note_on,78,72,0
1,note_on,75,61,0
1,note_on,83,72,0
1,note_on,87,72,0
1,note_on,87,0,480
1,note_on,78,0,0
1,note_on,75,0,0
1,note_on,83,0,0
1,note_on,91,78,0
1,note_on,79,66,0
1,note_on,88,78,0
1,note_on,84,66,0
1,note_on,84,0,240
1,note_on,91,0,0
1,note_on,79,0,0
1,note_on,88,0,0
1,note_on,86,72,0
1,note_on,74,61,0
1,note_on,74,0,240
1,note_on,86,0,0
1,note_on,76,64,0
1,note_on,88,76,0
1,note_on,88,0,240
1,note_on,76,0,0
1,note_on,72,56,0
1,note_on,84,67,0
1,note_on,84,0,240
1,note_on,72,0,0
1,note_on,91,78,0
1,note_on,79,66,0
1,note_on,88,78,0
1,note_on,84,66,0
1,note_on,84,0,240
1,note_on,91,0,0
1,note_on,79,0,0
1,note_on,88,0,0
1,note_on,74,57,0
1,note_on,86,68,0
1,note_on,86,0,240
1,note_on,74,0,0
1,note_on,88,73,0
1,note_on,76,62,0
1,note_on,76,0,240
1,note_on,88,0,0
1,note_on,84,66,0
1,note_on,72,56,0
1,note_on,72,0,240
1,note_on,84,0,0
1,note_on,81,83,0
1,note_on,71,70,0
1,note_on,75,70,0
1,note_on,83,83,0
1,note_on,83,0,240
1,note_on,81,0,0
1,note_on,71,0,0
1,note_on,75,0,0
1,note_on,78,61,240
1,note_on,87,72,0
1,note_on,83,72,0
1,note_on,75,61,0
1,note_on,75,0,480
1,note_on,78,0,0
1,note_on,87,0,0
1,note_on,83,0,0
1,note_on,75,63,0
1,note_on,87,75,0
1,note_on,83,75,0
1,note_on,78,63,0
1,note_on,78,0,480
1,note_on,75,0,0
1,note_on,87,0,0
1,note_on,83,0,0
1,note_on,78,61,0
1,note_on,87,72,0
1,note_on,83,72,0
1,note_on,75,61,0
1,note_on,75,0,480
1,note_on,78,0,0
1,note_on,87,0,0
1,note_on,83,0,0
1,note_on,91,78,0
1,note_on,96,78,0
1,note_on,88,66,0
1,note_on,84,66,0
1,note_on,84,0,240
1,note_on,91,0,0
1,note_on,96,0,0
1,note_on,88,0,0
1,note_on,96,76,240
1,note_on,84,64,0
1,note_on,84,0,240
1,note_on,96,0,0
1,note_on,79,56,0
1,note_on,91,67,0
1,note_on,91,0,240
1,note_on,79,0,0
1,note_on,88,68,0
1,note_on,81,57,0
1,note_on,84,57,0
1,note_on,93,68,0
1,note_on,93,0,240
1,note_on,88,0,0
1,note_on,81,0,0
1,note_on,84,0,0
1,note_on,77,54,0
1,note_on,89,64,0
1,note_on,89,0,240
1,note_on,77,0,0
1,note_on,76,62,0
1,note_on,88,73,0
1,note_on,88,0,240
1,note_on,76,0,0
1,note_on,72,56,0
1,note_on,84,66,0
1,note_on,84,0,240
1,note_on,72,0,0
1,note_on,55,66,0
1,note_on,67,78,0
1,note_on,67,0,240
1,note_on,55,0,0
1,note_on,91,62,240
1,note_on,103,73,0
1,note_on,103,0,240
1,note_on,91,0,0
1,note_on,98,67,0
1,note_on,86,56,0
1,note_on,86,0,240
1,note_on,98,0,0
1,note_on,87,59,0
1,note_on,99,70,0
1,note_on,99,0,240
1,note_on,87,0,0
1,note_on,98,65,0
1,note_on,86,55,0
1,note_on,86,0,240
1,note_on,98,0,0
1,note_on,82,59,0
1,note_on,94,70,0
1,note_on,94,0,240
1,note_on,82,0,0
1,note_on,91,67,0
1,note_on,79,56,0
1,note_on,79,0,240
1,note_on,91,0,0
1,note_on,80,59,0
1,note_on,92,70,0
1,note_on,92,0,240
1,note_on,80,0,0
1,note_on,99,64,0
1,note_on,87,54,0
1,note_on,87,0,240
1,note_on,99,0,0
1,note_on,83,56,0
1,note_on,95,67,0
1,note_on,95,0,240
1,note_on,83,0,0
1,note_on,99,59,0
1,note_on,87,50,0
1,note_on,87,0,240
1,note_on,99,0,0
1,note_on,86,62,0
1,note_on,98,74,0
1,note_on,98,0,240
1,note_on,86,0,0
1,note_on,91,68,240
1,note_on,79,57,0
1,note_on,79,0,240
1,note_on,91,0,0
1,note_on,91,78,240
1,note_on,79,66,0
1,note_on,79,0,480
1,note_on,91,0,0
1,note_on,79,62,0
1,note_on,91,73,0
1,note_on,91,0,240
1,note_on,79,0,0
1,note_on,86,67,0
1,note_on,74,56,0
1,note_on,74,0,240
1,note_on,86,0,0
1,note_on,87,70,0
1,note_on,75,59,0
1,note_on,75,0,240
1,note_on,87,0,0
1,note_on,74,55,0
1,note_on,86,65,0
1,note_on,86,0,240
1,note_on,74,0,0
1,note_on,70,59,0
1,note_on,82,70,0
1,note_on,82,0,240
1,note_on,70,0,0
1,note_on,67,56,0
1,note_on,79,67,0
1,note_on,79,0,240
1,note_on,67,0,0
1,note_on,80,70,0
1,note_on,68,59,0
1,note_on,68,0,240
1,note_on,80,0,0
1,note_on,87,64,0
1,note_on,75,54,0
1,note_on,75,0,240
1,note_on,87,0,0
1,note_on,83,67,0
1,note_on,71,56,0
1,note_on,71,0,240
1,note_on,83,0,0
1,note_on,75,50,0
1,note_on,87,59,0
1,note_on,87,0,240
1,note_on,75,0,0
1,note_on,74,67,0
1,note_on,86,79,0
1,note_on,86,0,240
1,note_on,74,0,0
1,note_on,67,56,240
1,note_on,79,67,0
1,note_on,79,0,240
1,note_on,67,0,0
1,note_on,79,78,240
1,note_on,67,66,0
1,note_on,67,0,480
1,note_on,79,0,0
1,note_on,79,73,0
1,note_on,67,62,0
1,note_on,67,0,240
1,note_on,79,0,0
1,note_on,62,56,0
1,note_on,74,67,0
1,note_on,74,0,240
1,note_on,62,0,0
1,note_on,75,70,0
1,note_on,63,59,0
1,note_on,63,0,240
1,note_on,75,0,0
1,note_on,74,65,0
1,note_on,62,55,0
1,note_on,62,0,240
1,note_on,74,0,0
1,note_on,70,70,0
1,note_on,58,59,0
1,note_on,58,0,240
1,note_on,70,0,0
1,note_on,55,56,0
1,note_on,67,67,0
1,note_on,67,0,240
1,note_on,55,0,0
1,note_on,54,87,0
1,note_on,79,73,480
1,note_on,67,62,0
1,note_on,67,0,240
1,note_on,79,0,0
1,note_on,54,0,0
1,note_on,74,67,0
1,note_on,62,56,0
1,note_on,62,0,240
1,note_on,74,0,0
1,note_on,63,59,0
1,note_on,75,70,0
1,note_on,75,0,240
1,note_on,63,0,0
1,note_on,74,65,0
1,note_on,62,55,0
1,note_on,62,0,240
1,note_on,74,0,0
1,note_on,58,59,0
1,note_on,70,70,0
1,note_on,70,0,240
1,note_on,58,0,0
1,note_on,55,56,0
1,note_on,67,67,0
1,note_on,67,0,240
1,note_on,55,0,0
1,note_on,53,87,0
1,note_on,67,62,480
1,note_on,79,73,0
1,note_on,79,0,240
1,note_on,67,0,0
1,note_on,53,0,0
1,note_on,74,67,0
1,note_on,62,56,0
1,note_on,62,0,240
1,note_on,74,0,0
1,note_on,75,70,0
1,note_on,63,59,0
1,note_on,63,0,240
1,note_on,75,0,0
1,note_on,62,55,0
1,note_on,74,65,0
1,note_on,74,0,240
1,note_on,62,0,0
1,note_on,58,59,0
1,note_on,70,70,0
1,note_on,70,0,240
1,note_on,58,0,0
1,note_on,55,56,0
1,note_on,67,67,0
1,note_on,67,0,240
1,note_on,55,0,0
1,note_on,52,87,0
1,note_on,79,73,480
1,note_on,67,62,0
1,note_on,67,0,240
1,note_on,79,0,0
1,note_on,52,0,0
1,note_on,62,56,0
1,note_on,74,67,0
1,note_on,74,0,240
1,note_on,62,0,0
1,note_on,75,70,0
1,note_on,63,59,0
1,note_on,63,0,240
1,note_on,75,0,0
1,note_on,74,65,0
1,note_on,62,55,0
1,note_on,62,0,240
1,note_on,74,0,0
1,note_on,70,70,0
1,note_on,58,59,0
1,note_on,58,0,240
1,note_on,70,0,0
1,note_on,67,67,0
1,note_on,55,56,0
1,note_on,55,0,240
1,note_on,67,0,0
1,note_on,51,87,0
1,note_on,51,0,480
1,note_on,50,87,0
1,note_on,50,0,240
1,note_on,59,73,240
1,note_on,71,87,0
1,note_on,92,83,480
1,note_on,80,70,0
1,note_on,80,0,240
1,note_on,59,0,0
1,note_on,71,0,0
1,note_on,92,0,0
1,note_on,103,72,360
1,note_on,103,0,120
1,note_on,98,65,120
1,note_on,98,0,120
1,note_on,99,69,120
1,note_on,99,0,120
1,note_on,95,66,120
1,note_on,95,0,120
1,note_on,96,69,120
1,note_on,96,0,120
1,note_on,91,65,120
1,note_on,91,0,120
1,note_on,92,69,120
1,note_on,92,0,120
1,note_on,86,65,120
1,note_on,86,0,120
1,note_on,87,72,120
1,note_on,87,0,120
1,note_on,83,65,120
1,note_on,83,0,120
1,note_on,84,69,120
1,note_on,84,0,120
1,note_on,79,65,120
1,note_on,79,0,120
1,note_on,80,68,120
1,note_on,80,0,120
1,note_on,74,63,120
1,note_on,74,0,120
1,note_on,75,69,120
1,note_on,75,0,120
1,note_on,71,66,120
1,note_on,71,0,120
1,note_on,72,72,120
1,note_on,72,0,120
1,note_on,67,63,120
1,note_on,67,0,120
1,note_on,68,69,120
1,note_on,68,0,120
1,note_on,62,66,120
1,note_on,62,0,120
1,note_on,63,69,120
1,note_on,63,0,120
1,note_on,59,66,120
1,note_on,59,0,120
1,note_on,60,75,120
1,note_on,60,0,120
1,note_on,55,69,120
1,note_on,55,0,120
1,note_on,56,78,120
1,note_on,56,0,120
1,note_on,50,71,120
1,note_on,50,0,120
1,note_on,51,81,120
1,note_on,51,0,120
1,note_on,47,74,120
1,note_on,47,0,120
1,note_on,48,82,120
1,note_on,48,0,120
1,note_on,43,77,120
1,note_on,43,0,120
1,note_on,44,82,120
1,note_on,44,0,120
1,note_on,43,77,120
1,note_on,43,0,120
1,note_on,44,82,120
1,note_on,44,0,120
1,note_on,43,76,120
1,note_on,43,0,120
1,note_on,47,82,120
1,note_on,47,0,120
1,note_on,43,79,120
1,note_on,43,0,120
1,note_on,56,82,120
1,note_on,56,0,120
1,note_on,55,76,120
1,note_on,55,0,120
1,note_on,59,82,120
1,note_on,59,0,120
1,note_on,55,79,120
1,note_on,55,0,120
1,note_on,56,85,0
1,note_on,56,0,240
1,note_on,56,84,240
1,note_on,56,0,240
1,note_on,67,73,240
1,note_on,79,86,0
1,note_on,79,0,240
1,note_on,67,0,0
1,note_on,79,83,240
1,note_on,67,70,0
1,note_on,67,0,240
1,note_on,79,0,0
1,note_on,56,85,240
1,note_on,56,0,240
1,note_on,56,84,240
1,note_on,56,0,240
1,note_on,79,86,240
1,note_on,67,73,0
1,note_on,67,0,240
1,note_on,79,0,0
1,note_on,79,83,240
1,note_on,67,70,0
1,note_on,67,0,240
1,note_on,79,0,0
1,note_on,56,85,240
1,note_on,56,0,960
1,note_on,79,84,0
1,note_on,67,71,0
1,note_on,67,0,960
1,note_on,79,0,0
1,note_on,56,85,0
1,note_on,56,0,960
1,note_on,79,83,0
1,note_on,67,70,0
1,note_on,67,0,960
1,note_on,79,0,0
1,note_on,67,61,0
1,note_on,67,0,480
1,note_on,67,54,0
1,note_on,67,0,480
1,note_on,67,51,0
1,note_on,67,0,480
1,note_on,67,47,0
1,note_on,67,0,480
1,note_on,67,36,0
1,note_on,64,31,80
1,note_on,67,0,10
1,note_on,67,36,70
1,note_on,64,0,10
1,note_on,64,31,70
1,note_on,67,0,10
1,note_on,67,36,70
1,note_on,64,0,10
1,note_on,64,31,70
1,note_on,67,0,10
1,note_on,67,36,70
1,note_on,64,0,10
1,note_on,64,31,70
1,note_on,67,0,10
1,note_on,67,36,70
1,note_on,64,0,10
1,note_on,64,32,70
1,note_on,67,0,10
1,note_on,67,36,70
1,note_on,64,0,10
1,note_on,64,31,70
1,note_on,67,0,10
1,note_on,67,36,70
1,note_on,64,0,10
1,note_on,64,31,70
1,note_on,67,0,10
1,note_on,67,36,70
1,note_on,64,0,10
1,note_on,64,31,70
1,note_on,67,0,10
1,note_on,67,36,70
1,note_on,64,0,10
1,note_on,64,30,70
1,note_on,67,0,10
1,note_on,67,36,70
1,note_on,64,0,10
1,note_on,64,30,70
1,note_on,67,0,10
1,note_on,67,36,70
1,note_on,64,0,10
1,note_on,64,32,70
1,note_on,67,0,10
1,note_on,67,36,70
1,note_on,64,0,10
1,note_on,64,31,70
1,note_on,67,0,10
1,note_on,64,0,70
1,note_on,67,37,0
1,note_on,64,32,80
1,note_on,67,0,37
1,note_on,67,36,43
1,note_on,64,0,37
1,note_on,64,32,43
1,note_on,67,0,37
1,note_on,67,37,43
1,note_on,64,0,37
1,note_on,64,31,43
1,note_on,67,0,37
1,note_on,67,36,43
1,note_on,64,0,10
1,note_on,64,31,70
1,note_on,67,0,10
1,note_on,67,36,70
1,note_on,64,0,10
1,note_on,64,32,70
1,note_on,67,0,10
1,note_on,67,36,70
1,note_on,64,0,10
1,note_on,64,31,70
1,note_on,67,0,10
1,note_on,67,36,70
1,note_on,64,0,10
1,note_on,64,31,70
1,note_on,67,0,10
1,note_on,67,36,70
1,note_on,64,0,10
1,note_on,64,31,70
1,note_on,67,0,10
1,note_on,67,36,70
1,note_on,64,0,10
1,note_on,64,30,70
1,note_on,67,0,10
1,note_on,67,36,70
1,note_on,64,0,10
1,note_on,64,30,70
1,note_on,67,0,10
1,note_on,67,36,70
1,note_on,64,0,10
1,note_on,64,32,70
1,note_on,67,0,10
1,note_on,67,36,70
1,note_on,64,0,10
1,note_on,64,31,70
1,note_on,67,0,10
1,note_on,64,0,70
1,note_on,67,39,0
1,note_on,64,33,80
1,note_on,67,0,10
1,note_on,67,38,70
1,note_on,64,0,10
1,note_on,64,33,70
1,note_on,67,0,10
1,note_on,67,38,70
1,note_on,64,0,10
1,note_on,64,34,70
1,note_on,67,0,10
1,note_on,67,36,70
1,note_on,64,0,10
1,note_on,64,31,70
1,note_on,67,0,10
1,note_on,67,36,70
1,note_on,64,0,10
1,note_on,64,32,70
1,note_on,67,0,10
1,note_on,67,36,70
1,note_on,64,0,10
1,note_on,64,31,70
1,note_on,67,0,10
1,note_on,67,36,70
1,note_on,64,0,10
1,note_on,64,31,70
1,note_on,67,0,10
1,note_on,67,36,70
1,note_on,64,0,10
1,note_on,64,31,70
1,note_on,67,0,10
1,note_on,67,36,70
1,note_on,64,0,10
1,note_on,64,30,70
1,note_on,67,0,10
1,note_on,67,36,70
1,note_on,64,0,10
1,note_on,64,30,70
1,note_on,67,0,10
1,note_on,67,36,70
1,note_on,64,0,10
1,note_on,64,32,70
1,note_on,67,0,10
1,note_on,67,36,70
1,note_on,64,0,10
1,note_on,64,31,70
1,note_on,67,0,10
1,note_on,64,0,70
1,note_on,67,36,0
1,note_on,64,31,80
1,note_on,67,0,10
1,note_on,67,36,70
1,note_on,64,0,10
1,note_on,64,31,70
1,note_on,67,0,10
1,note_on,67,36,70
1,note_on,64,0,10
1,note_on,64,31,70
1,note_on,67,0,10
1,note_on,67,36,70
1,note_on,64,0,10
1,note_on,64,31,70
1,note_on,67,0,10
1,note_on,67,36,70
1,note_on,64,0,10
1,note_on,64,32,70
1,note_on,67,0,10
1,note_on,67,36,70
1,note_on,64,0,10
1,note_on,64,31,70
1,note_on,67,0,10
1,note_on,67,36,70
1,note_on,64,0,10
1,note_on,64,31,70
1,note_on,67,0,10
1,note_on,67,36,70
1,note_on,64,0,10
1,note_on,64,31,70
1,note_on,67,0,10
1,note_on,67,36,70
1,note_on,64,0,10
1,note_on,64,30,70
1,note_on,67,0,10
1,note_on,64,0,70
1,note_on,67,38,0
1,note_on,64,35,80
1,note_on,67,0,37
1,note_on,67,38,43
1,note_on,64,0,37
1,note_on,64,32,43
1,note_on,67,0,37
1,note_on,67,36,43
1,note_on,64,0,37
1,note_on,64,31,43
1,note_on,67,0,37
1,note_on,67,40,43
1,note_on,64,0,40
1,note_on,64,36,40
1,note_on,67,0,10
1,note_on,67,39,70
1,note_on,64,0,10
1,note_on,64,34,70
1,note_on,67,0,10
1,note_on,67,39,70
1,note_on,64,0,10
1,note_on,64,33,70
1,note_on,67,0,10
1,note_on,67,38,70
1,note_on,64,0,10
1,note_on,64,32,70
1,note_on,67,0,37
1,note_on,67,36,43
1,note_on,64,0,37
1,note_on,64,32,43
1,note_on,67,0,37
1,note_on,67,36,43
1,note_on,64,0,37
1,note_on,64,31,43
1,note_on,67,0,37
1,note_on,66,37,43
1,note_on,64,0,24
1,note_on,63,32,56
1,note_on,66,0,37
1,note_on,66,36,43
1,note_on,63,0,37
1,note_on,63,32,43
1,note_on,66,0,37
1,note_on,66,37,43
1,note_on,63,0,37
1,note_on,63,31,43
1,note_on,66,0,37
1,note_on,66,34,43
1,note_on,63,0,10
1,note_on,63,29,70
1,note_on,66,0,10
1,note_on,66,34,70
1,note_on,63,0,10
1,note_on,63,30,70
1,note_on,66,0,10
1,note_on,66,33,70
1,note_on,63,0,10
1,note_on,63,28,70
1,note_on,66,0,10
1,note_on,66,33,70
1,note_on,63,0,10
1,note_on,63,28,70
1,note_on,66,0,10
1,note_on,66,33,70
1,note_on,63,0,10
1,note_on,63,28,70
1,note_on,66,0,10
1,note_on,66,33,70
1,note_on,63,0,10
1,note_on,63,27,70
1,note_on,66,0,10
1,note_on,66,32,70
1,note_on,63,0,10
1,note_on,63,27,70
1,note_on,66,0,10
1,note_on,66,32,70
1,note_on,63,0,10
1,note_on,63,28,70
1,note_on,66,0,10
1,note_on,66,32,70
1,note_on,63,0,10
1,note_on,63,27,70
1,note_on,66,0,10
1,note_on,63,0,70
1,note_on,66,39,0
1,note_on,63,33,80
1,note_on,66,0,37
1,note_on,66,38,43
1,note_on,63,0,37
1,note_on,63,33,43
1,note_on,66,0,37
1,note_on,66,38,43
1,note_on,63,0,37
1,note_on,63,34,43
1,note_on,66,0,37
1,note_on,66,34,43
1,note_on,63,0,10
1,note_on,63,29,70
1,note_on,66,0,10
1,note_on,66,34,70
1,note_on,63,0,10
1,note_on,63,30,70
1,note_on,66,0,10
1,note_on,66,33,70
1,note_on,63,0,10
1,note_on,63,28,70
1,note_on,66,0,10
1,note_on,66,33,70
1,note_on,63,0,10
1,note_on,63,28,70
1,note_on,66,0,10
1,note_on,66,33,70
1,note_on,63,0,10
1,note_on,63,28,70
1,note_on,66,0,10
1,note_on,66,33,70
1,note_on,63,0,10
1,note_on,63,27,70
1,note_on,66,0,10
1,note_on,66,32,70
1,note_on,63,0,10
1,note_on,63,27,70
1,note_on,66,0,10
1,note_on,66,32,70
1,note_on,63,0,10
1,note_on,63,28,70
1,note_on,66,0,10
1,note_on,66,32,70
1,note_on,63,0,10
1,note_on,63,27,70
1,note_on,66,0,10
1,note_on,63,0,70
1,note_on,65,36,0
1,note_on,62,31,80
1,note_on,65,0,37
1,note_on,65,36,43
1,note_on,62,0,37
1,note_on,62,31,43
1,note_on,65,0,37
1,note_on,65,36,43
1,note_on,62,0,37
1,note_on,62,31,43
1,note_on,65,0,37
1,note_on,65,36,43
1,note_on,62,0,37
1,note_on,62,31,43
1,note_on,65,0,37
1,note_on,65,36,43
1,note_on,62,0,37
1,note_on,62,32,43
1,note_on,65,0,37
1,note_on,65,36,43
1,note_on,62,0,37
1,note_on,62,31,43
1,note_on,65,0,37
1,note_on,65,36,43
1,note_on,62,0,10
1,note_on,62,31,70
1,note_on,65,0,10
1,note_on,65,36,70
1,note_on,62,0,10
1,note_on,62,31,70
1,note_on,65,0,10
1,note_on,65,36,70
1,note_on,62,0,10
1,note_on,62,30,70
1,note_on,65,0,10
1,note_on,62,0,70
1,note_on,65,38,0
1,note_on,62,35,80
1,note_on,65,0,37
1,note_on,65,38,43
1,note_on,62,0,37
1,note_on,62,32,43
1,note_on,65,0,37
1,note_on,65,36,43
1,note_on,62,0,37
1,note_on,62,31,43
1,note_on,65,0,37
1,note_on,65,40,43
1,note_on,62,0,10
1,note_on,62,36,70
1,note_on,65,0,10
1,note_on,65,39,70
1,note_on,62,0,10
1,note_on,62,34,70
1,note_on,65,0,10
1,note_on,65,39,70
1,note_on,62,0,10
1,note_on,62,33,70
1,note_on,65,0,10
1,note_on,62,0,70
1,note_on,65,38,0
1,note_on,62,32,80
1,note_on,65,0,37
1,note_on,65,36,43
1,note_on,62,0,37
1,note_on,62,32,43
1,note_on,65,0,37
1,note_on,65,36,43
1,note_on,62,0,37
1,note_on,62,31,43
1,note_on,65,0,37
1,note_on,64,37,43
1,note_on,62,0,10
1,note_on,61,32,70
1,note_on,64,0,10
1,note_on,64,36,70
1,note_on,61,0,10
1,note_on,61,32,70
1,note_on,64,0,10
1,note_on,64,37,70
1,note_on,61,0,10
1,note_on,61,31,70
1,note_on,64,0,10
1,note_on,61,0,70
1,note_on,63,36,0
1,note_on,59,31,80
1,note_on,63,0,10
1,note_on,63,36,70
1,note_on,59,0,10
1,note_on,59,32,70
1,note_on,63,0,10
1,note_on,63,36,70
1,note_on,59,0,10
1,note_on,59,31,70
1,note_on,63,0,10
1,note_on,59,0,70
1,note_on,81,54,0
1,note_on,69,49,0
1,note_on,69,0,480
1,note_on,81,0,0
1,note_on,76,53,0
1,note_on,88,57,0
1,note_on,88,0,240
1,note_on,76,0,0
1,note_on,59,37,240
1,note_on,56,32,80
1,note_on,59,0,10
1,note_on,59,36,70
1,note_on,56,0,10
1,note_on,56,32,70
1,note_on,59,0,10
1,note_on,59,37,70
1,note_on,56,0,10
1,note_on,56,31,70
1,note_on,59,0,10
1,note_on,56,0,70
1,note_on,58,36,0
1,note_on,55,31,80
1,note_on,58,0,10
1,note_on,58,36,70
1,note_on,55,0,10
1,note_on,55,32,70
1,note_on,58,0,10
1,note_on,58,36,70
1,note_on,55,0,10
1,note_on,55,31,70
1,note_on,58,0,10
1,note_on,55,0,70
1,note_on,69,49,0
1,note_on,81,54,0
1,note_on,81,0,480
1,note_on,69,0,0
1,note_on,88,57,0
1,note_on,76,53,0
1,note_on,76,0,240
1,note_on,88,0,0
1,note_on,55,37,240
1,note_on,51,32,80
1,note_on,55,0,10
1,note_on,55,36,70
1,note_on,51,0,10
1,note_on,51,32,70
1,note_on,55,0,10
1,note_on,55,37,70
1,note_on,51,0,10
1,note_on,51,31,70
1,note_on,55,0,10
1,note_on,51,0,70
1,note_on,54,36,0
1,note_on,50,31,80
1,note_on,54,0,10
1,note_on,54,36,70
1,note_on,50,0,10
1,note_on,50,32,70
1,note_on,54,0,10
1,note_on,54,36,70
1,note_on,50,0,10
1,note_on,50,31,70
1,note_on,54,0,10
1,note_on,50,0,70
1,note_on,69,49,0
1,note_on,81,54,0
1,note_on,81,0,480
1,note_on,69,0,0
1,note_on,88,57,0
1,note_on,76,53,0
1,note_on,76,0,240
1,note_on,88,0,0
1,note_on,67,32,720
1,note_on,63,27,80
1,note_on,67,0,10
1,note_on,67,32,70
1,note_on,63,0,10
1,note_on,63,27,70
1,note_on,67,0,10
1,note_on,67,33,70
1,note_on,63,0,10
1,note_on,63,27,70
1,note_on,67,0,10
1,note_on,63,0,70
1,note_on,67,36,0
1,note_on,64,31,60
1,note_on,67,0,20
1,note_on,67,36,40
1,note_on,64,0,20
1,note_on,64,32,40
1,note_on,67,0,20
1,note_on,67,36,40
1,note_on,64,0,20
1,note_on,64,31,40
1,note_on,67,0,20
1,note_on,67,36,40
1,note_on,64,0,20
1,note_on,64,31,40
1,note_on,67,0,20
1,note_on,64,0,40
1,note_on,67,34,0
1,note_on,64,29,60
1,note_on,67,0,20
1,note_on,67,34,40
1,note_on,64,0,20
1,note_on,64,29,40
1,note_on,67,0,20
1,note_on,67,33,40
1,note_on,64,0,20
1,note_on,64,29,40
1,note_on,67,0,20
1,note_on,67,34,40
1,note_on,64,0,20
1,note_on,64,29,40
1,note_on,67,0,20
1,note_on,64,0,40
1,note_on,67,33,0
1,note_on,64,28,60
1,note_on,67,0,20
1,note_on,67,33,40
1,note_on,64,0,20
1,note_on,64,29,40
1,note_on,67,0,20
1,note_on,79,60,40
1,note_on,67,33,0
1,note_on,76,60,0
1,note_on,70,50,0
1,note_on,64,0,20
1,note_on,64,31,40
1,note_on,67,0,20
1,note_on,67,34,40
1,note_on,64,0,20
1,note_on,64,30,40
1,note_on,67,0,20
1,note_on,70,0,40
1,note_on,79,0,0
1,note_on,76,0,0
1,note_on,64,0,0
1,note_on,88,65,0
1,note_on,67,65,0
1,note_on,82,55,0
1,note_on,91,65,0
1,note_on,64,31,60
1,note_on,67,0,20
1,note_on,67,34,40
1,note_on,64,0,20
1,note_on,64,32,40
1,note_on,67,0,20
1,note_on,91,0,40
1,note_on,88,0,0
1,note_on,82,0,0
1,note_on,67,35,0
1,note_on,64,0,20
1,note_on,64,31,40
1,note_on,67,0,20
1,note_on,67,34,40
1,note_on,64,0,20
1,note_on,64,30,40
1,note_on,67,0,20
1,note_on,64,0,40
1,note_on,67,36,0
1,note_on,64,31,60
1,note_on,67,0,20
1,note_on,67,36,40
1,note_on,64,0,20
1,note_on,64,32,40
1,note_on,67,0,20
1,note_on,67,36,40
1,note_on,64,0,20
1,note_on,64,31,40
1,note_on,67,0,20
1,note_on,67,36,40
1,note_on,64,0,20
1,note_on,64,31,40
1,note_on,67,0,20
1,note_on,67,34,40
1,note_on,64,0,20
1,note_on,64,29,40
1,note_on,67,0,20
1,note_on,67,34,40
1,note_on,64,0,20
1,note_on,64,29,40
1,note_on,67,0,20
1,note_on,67,33,40
1,note_on,64,0,20
1,note_on,64,29,40
1,note_on,67,0,20
1,note_on,67,34,40
1,note_on,64,0,20
1,note_on,64,29,40
1,note_on,67,0,20
1,note_on,64,0,40
1,note_on,67,33,0
1,note_on,64,28,60
1,note_on,67,0,20
1,note_on,67,33,40
1,note_on,64,0,20
1,note_on,64,29,40
1,note_on,67,0,20
1,note_on,76,62,40
1,note_on,67,33,0
1,note_on,79,62,0
1,note_on,70,52,0
1,note_on,64,0,20
1,note_on,64,31,40
1,note_on,67,0,20
1,note_on,67,34,40
1,note_on,64,0,20
1,note_on,64,30,40
1,note_on,67,0,20
1,note_on,70,0,40
1,note_on,76,0,0
1,note_on,79,0,0
1,note_on,64,0,0
1,note_on,91,66,0
1,note_on,88,66,0
1,note_on,82,55,0
1,note_on,67,66,0
1,note_on,64,31,60
1,note_on,67,0,20
1,note_on,67,36,40
1,note_on,64,0,20
1,note_on,64,32,40
1,note_on,67,0,20
1,note_on,82,0,40
1,note_on,91,0,0
1,note_on,88,0,0
1,note_on,67,38,0
1,note_on,64,0,20
1,note_on,64,31,40
1,note_on,67,0,20
1,note_on,67,38,40
1,note_on,64,0,20
1,note_on,64,33,40
1,note_on,67,0,20
1,note_on,64,0,40
1,note_on,67,40,0
1,note_on,64,31,60
1,note_on,67,0,20
1,note_on,67,36,40
1,note_on,64,0,20
1,note_on,64,32,40
1,note_on,67,0,20
1,note_on,67,38,40
1,note_on,64,0,20
1,note_on,64,31,40
1,note_on,67,0,20
1,note_on,67,36,40
1,note_on,64,0,20
1,note_on,64,30,40
1,note_on,67,0,20
1,note_on,67,34,40
1,note_on,64,0,20
1,note_on,64,29,40
1,note_on,67,0,20
1,note_on,67,34,40
1,note_on,64,0,20
1,note_on,64,29,40
1,note_on,67,0,20
1,note_on,67,33,40
1,note_on,64,0,20
1,note_on,64,29,40
1,note_on,67,0,20
1,note_on,67,34,40
1,note_on,64,0,20
1,note_on,64,29,40
1,note_on,67,0,20
1,note_on,67,36,40
1,note_on,64,0,20
1,note_on,64,31,40
1,note_on,67,0,20
1,note_on,67,36,40
1,note_on,64,0,20
1,note_on,64,32,40
1,note_on,67,0,20
1,note_on,67,36,40
1,note_on,64,0,20
1,note_on,64,31,40
1,note_on,67,0,20
1,note_on,67,36,40
1,note_on,64,0,20
1,note_on,64,31,40
1,note_on,67,0,20
1,note_on,64,0,40
1,note_on,67,34,0
1,note_on,64,29,60
1,note_on,67,0,20
1,note_on,67,34,40
1,note_on,64,0,20
1,note_on,64,29,40
1,note_on,67,0,20
1,note_on,67,33,40
1,note_on,64,0,20
1,note_on,64,29,40
1,note_on,67,0,20
1,note_on,67,34,40
1,note_on,64,0,20
1,note_on,64,29,40
1,note_on,67,0,20
1,note_on,67,37,40
1,note_on,64,0,20
1,note_on,64,32,40
1,note_on,67,0,20
1,note_on,67,37,40
1,note_on,64,0,20
1,note_on,64,32,40
1,note_on,67,0,20
1,note_on,67,37,40
1,note_on,64,0,20
1,note_on,64,31,40
1,note_on,67,0,20
1,note_on,67,38,40
1,note_on,64,0,20
1,note_on,64,31,40
1,note_on,67,0,20
1,note_on,64,0,40
1,note_on,67,39,0
1,note_on,64,31,60
1,note_on,67,0,20
1,note_on,67,37,40
1,note_on,64,0,20
1,note_on,64,32,40
1,note_on,67,0,20
1,note_on,67,36,40
1,note_on,64,0,20
1,note_on,64,31,40
1,note_on,67,0,20
1,note_on,67,34,40
1,note_on,64,0,20
1,note_on,64,29,40
1,note_on,67,0,20
1,note_on,66,38,40
1,note_on,64,0,20
1,note_on,63,31,40
1,note_on,66,0,20
1,note_on,66,38,40
1,note_on,63,0,20
1,note_on,63,32,40
1,note_on,66,0,20
1,note_on,66,38,40
1,note_on,63,0,20
1,note_on,63,31,40
1,note_on,66,0,20
1,note_on,66,38,40
1,note_on,63,0,20
1,note_on,63,31,40
1,note_on,66,0,20
1,note_on,63,0,40
1,note_on,66,34,0
1,note_on,63,29,60
1,note_on,66,0,20
1,note_on,66,34,40
1,note_on,63,0,20
1,note_on,63,29,40
1,note_on,66,0,20
1,note_on,66,33,40
1,note_on,63,0,20
1,note_on,63,29,40
1,note_on,66,0,20
1,note_on,66,34,40
1,note_on,63,0,20
1,note_on,63,29,40
1,note_on,66,0,20
1,note_on,66,33,40
1,note_on,63,0,20
1,note_on,63,28,40
1,note_on,66,0,20
1,note_on,66,33,40
1,note_on,63,0,20
1,note_on,63,29,40
1,note_on,66,0,20
1,note_on,63,0,40
1,note_on,79,63,0
1,note_on,70,53,0
1,note_on,76,63,0
1,note_on,67,33,0
1,note_on,64,31,60
1,note_on,67,0,20
1,note_on,67,34,40
1,note_on,64,0,20
1,note_on,64,30,40
1,note_on,67,0,20
1,note_on,76,0,40
1,note_on,79,0,0
1,note_on,70,0,0
1,note_on,64,0,0
1,note_on,88,66,0
1,note_on,91,66,0
1,note_on,67,66,0
1,note_on,82,55,0
1,note_on,64,31,60
1,note_on,67,0,20
1,note_on,67,34,40
1,note_on,64,0,20
1,note_on,64,32,40
1,note_on,67,0,20
1,note_on,82,0,40
1,note_on,88,0,0
1,note_on,91,0,0
1,note_on,67,35,0
1,note_on,64,0,20
1,note_on,64,31,40
1,note_on,67,0,20
1,note_on,67,34,40
1,note_on,64,0,20
1,note_on,64,30,40
1,note_on,67,0,20
1,note_on,66,36,40
1,note_on,64,0,20
1,note_on,63,31,40
1,note_on,66,0,20
1,note_on,66,36,40
1,note_on,63,0,20
1,note_on,63,32,40
1,note_on,66,0,20
1,note_on,66,36,40
1,note_on,63,0,20
1,note_on,63,31,40
1,note_on,66,0,20
1,note_on,66,36,40
1,note_on,63,0,20
1,note_on,63,31,40
1,note_on,66,0,20
1,note_on,66,34,40
1,note_on,63,0,20
1,note_on,63,29,40
1,note_on,66,0,20
1,note_on,66,34,40
1,note_on,63,0,20
1,note_on,63,29,40
1,note_on,66,0,20
1,note_on,66,33,40
1,note_on,63,0,20
1,note_on,63,29,40
1,note_on,66,0,20
1,note_on,66,34,40
1,note_on,63,0,20
1,note_on,63,29,40
1,note_on,66,0,20
1,note_on,66,33,40
1,note_on,63,0,20
1,note_on,63,28,40
1,note_on,66,0,20
1,note_on,66,33,40
1,note_on,63,0,20
1,note_on,63,29,40
1,note_on,66,0,20
1,note_on,63,0,40
1,note_on,79,64,0
1,note_on,70,54,0
1,note_on,76,64,0
1,note_on,67,33,0
1,note_on,64,31,60
1,note_on,67,0,20
1,note_on,67,34,40
1,note_on,64,0,20
1,note_on,64,30,40
1,note_on,67,0,20
1,note_on,76,0,40
1,note_on,79,0,0
1,note_on,70,0,0
1,note_on,64,0,0
1,note_on,67,67,0
1,note_on,88,67,0
1,note_on,91,67,0
1,note_on,82,56,0
1,note_on,64,31,60
1,note_on,67,0,20
1,note_on,67,34,40
1,note_on,64,0,20
1,note_on,64,32,40
1,note_on,67,0,20
1,note_on,82,0,40
1,note_on,88,0,0
1,note_on,91,0,0
1,note_on,67,35,0
1,note_on,64,0,20
1,note_on,64,31,40
1,note_on,67,0,20
1,note_on,67,34,40
1,note_on,64,0,20
1,note_on,64,30,40
1,note_on,67,0,20
1,note_on,64,0,40
1,note_on,65,40,0
1,note_on,62,31,60
1,note_on,65,0,20
1,note_on,65,36,40
1,note_on,62,0,20
1,note_on,62,32,40
1,note_on,65,0,20
1,note_on,65,38,40
1,note_on,62,0,20
1,note_on,62,31,40
1,note_on,65,0,20
1,note_on,65,36,40
1,note_on,62,0,20
1,note_on,62,30,40
1,note_on,65,0,20
1,note_on,65,34,40
1,note_on,62,0,20
1,note_on,62,29,40
1,note_on,65,0,20
1,note_on,65,34,40
1,note_on,62,0,20
1,note_on,62,29,40
1,note_on,65,0,20
1,note_on,65,33,40
1,note_on,62,0,20
1,note_on,62,29,40
1,note_on,65,0,20
1,note_on,65,34,40
1,note_on,62,0,20
1,note_on,62,29,40
1,note_on,65,0,20
1,note_on,65,36,40
1,note_on,62,0,20
1,note_on,62,31,40
1,note_on,65,0,20
1,note_on,65,36,40
1,note_on,62,0,20
1,note_on,62,32,40
1,note_on,65,0,20
1,note_on,65,36,40
1,note_on,62,0,20
1,note_on,62,31,40
1,note_on,65,0,20
1,note_on,65,36,40
1,note_on,62,0,20
1,note_on,62,31,40
1,note_on,65,0,20
1,note_on,62,0,40
1,note_on,65,34,0
1,note_on,62,29,60
1,note_on,65,0,20
1,note_on,65,34,40
1,note_on,62,0,20
1,note_on,62,29,40
1,note_on,65,0,20
1,note_on,65,33,40
1,note_on,62,0,20
1,note_on,62,29,40
1,note_on,65,0,20
1,note_on,65,34,40
1,note_on,62,0,20
1,note_on,62,29,40
1,note_on,65,0,20
1,note_on,65,36,40
1,note_on,62,0,20
1,note_on,62,31,40
1,note_on,65,0,20
1,note_on,65,36,40
1,note_on,62,0,20
1,note_on,62,32,40
1,note_on,65,0,20
1,note_on,65,36,40
1,note_on,62,0,20
1,note_on,62,31,40
1,note_on,65,0,20
1,note_on,65,36,40
1,note_on,62,0,20
1,note_on,62,31,40
1,note_on,65,0,20
1,note_on,62,0,40
1,note_on,65,34,0
1,note_on,62,29,60
1,note_on,65,0,20
1,note_on,65,34,40
1,note_on,62,0,20
1,note_on,62,29,40
1,note_on,65,0,20
1,note_on,65,33,40
1,note_on,62,0,20
1,note_on,62,29,40
1,note_on,65,0,20
1,note_on,65,34,40
1,note_on,62,0,20
1,note_on,62,29,40
1,note_on,65,0,20
1,note_on,64,36,40
1,note_on,62,0,20
1,note_on,61,32,40
1,note_on,64,0,20
1,note_on,64,37,40
1,note_on,61,0,20
1,note_on,61,32,40
1,note_on,64,0,20
1,note_on,64,36,40
1,note_on,61,0,20
1,note_on,61,33,40
1,note_on,64,0,20
1,note_on,64,38,40
1,note_on,61,0,20
1,note_on,61,33,40
1,note_on,64,0,20
1,note_on,61,0,40
1,note_on,63,39,0
1,note_on,59,34,60
1,note_on,63,0,20
1,note_on,63,39,40
1,note_on,59,0,20
1,note_on,59,34,40
1,note_on,63,0,20
1,note_on,63,39,40
1,note_on,59,0,20
1,note_on,59,35,40
1,note_on,63,0,20
1,note_on,63,40,40
1,note_on,59,0,20
1,note_on,59,35,40
1,note_on,63,0,20
1,note_on,59,0,40
1,note_on,62,41,0
1,note_on,58,36,60
1,note_on,62,0,20
1,note_on,62,41,40
1,note_on,58,0,20
1,note_on,58,36,40
1,note_on,62,0,20
1,note_on,62,41,40
1,note_on,58,0,20
1,note_on,58,36,40
1,note_on,62,0,20
1,note_on,62,42,40
1,note_on,58,0,20
1,note_on,58,36,40
1,note_on,62,0,20
1,note_on,58,0,40
1,note_on,60,43,0
1,note_on,57,37,60
1,note_on,60,0,20
1,note_on,60,44,40
1,note_on,57,0,20
1,note_on,57,37,40
1,note_on,60,0,20
1,note_on,60,43,40
1,note_on,57,0,20
1,note_on,57,38,40
1,note_on,60,0,20
1,note_on,60,45,40
1,note_on,57,0,20
1,note_on,57,38,40
1,note_on,60,0,20
1,note_on,57,0,40
1,note_on,59,45,0
1,note_on,56,39,60
1,note_on,59,0,20
1,note_on,59,45,40
1,note_on,56,0,20
1,note_on,56,39,40
1,note_on,59,0,20
1,note_on,59,45,40
1,note_on,56,0,20
1,note_on,56,40,40
1,note_on,59,0,20
1,note_on,59,46,40
1,note_on,56,0,20
1,note_on,56,41,40
1,note_on,59,0,20
1,note_on,56,0,40
1,note_on,58,47,0
1,note_on,55,41,60
1,note_on,58,0,20
1,note_on,58,47,40
1,note_on,55,0,20
1,note_on,55,42,40
1,note_on,58,0,20
1,note_on,58,46,40
1,note_on,55,0,20
1,note_on,55,42,40
1,note_on,58,0,20
1,note_on,58,49,40
1,note_on,55,0,20
1,note_on,55,43,40
1,note_on,58,0,20
1,note_on,55,0,40
1,note_on,57,49,0
1,note_on,53,43,60
1,note_on,57,0,20
1,note_on,57,50,40
1,note_on,53,0,20
1,note_on,53,44,40
1,note_on,57,0,20
1,note_on,57,49,40
1,note_on,53,0,20
1,note_on,53,44,40
1,note_on,57,0,20
1,note_on,57,51,40
1,note_on,53,0,20
1,note_on,53,45,40
1,note_on,57,0,20
1,note_on,53,0,40
1,note_on,56,52,0
1,note_on,52,45,60
1,note_on,56,0,20
1,note_on,56,52,40
1,note_on,52,0,20
1,note_on,52,45,40
1,note_on,56,0,20
1,note_on,56,51,40
1,note_on,52,0,20
1,note_on,52,45,40
1,note_on,56,0,20
1,note_on,56,53,40
1,note_on,52,0,20
1,note_on,52,46,40
1,note_on,56,0,20
1,note_on,52,0,40
1,note_on,55,51,0
1,note_on,51,45,60
1,note_on,55,0,20
1,note_on,55,49,40
1,note_on,51,0,20
1,note_on,51,44,40
1,note_on,55,0,20
1,note_on,55,47,40
1,note_on,51,0,20
1,note_on,51,43,40
1,note_on,55,0,20
1,note_on,55,46,40
1,note_on,51,0,20
1,note_on,51,42,40
1,note_on,55,0,20
1,note_on,51,0,40
1,note_on,54,47,0
1,note_on,50,41,60
1,note_on,54,0,20
1,note_on,54,45,40
1,note_on,50,0,20
1,note_on,50,40,40
1,note_on,54,0,20
1,note_on,54,43,40
1,note_on,50,0,20
1,note_on,50,39,40
1,note_on,54,0,20
1,note_on,54,42,40
1,note_on,50,0,20
1,note_on,50,38,40
1,note_on,54,0,20
1,note_on,50,0,40
1,note_on,53,43,0
1,note_on,49,37,60
1,note_on,53,0,20
1,note_on,53,41,40
1,note_on,49,0,20
1,note_on,49,36,40
1,note_on,53,0,20
1,note_on,53,39,40
1,note_on,49,0,20
1,note_on,49,36,40
1,note_on,53,0,20
1,note_on,53,38,40
1,note_on,49,0,20
1,note_on,49,35,40
1,note_on,53,0,20
1,note_on,49,0,40
1,note_on,52,38,0
1,note_on,48,34,60
1,note_on,52,0,20
1,note_on,52,37,40
1,note_on,48,0,20
1,note_on,48,33,40
1,note_on,52,0,20
1,note_on,52,36,40
1,note_on,48,0,20
1,note_on,48,32,40
1,note_on,52,0,20
1,note_on,52,35,40
1,note_on,48,0,20
1,note_on,48,31,40
1,note_on,52,0,20
1,note_on,48,0,40
1,note_on,76,65,1800
1,note_on,64,65,0
1,note_on,64,0,120
1,note_on,76,0,0
1,note_on,88,72,0
1,note_on,76,72,0
1,note_on,76,0,720
1,note_on,88,0,0
1,note_on,76,65,1080
1,note_on,64,65,0
1,note_on,64,0,120
1,note_on,76,0,0
1,note_on,88,72,0
1,note_on,76,72,0
1,note_on,76,0,720
1,note_on,88,0,0
1,note_on,55,86,3120
1,note_on,55,0,480
1,note_on,55,86,1440
1,note_on,55,0,480
1,note_on,55,82,0
1,note_on,55,0,480
1,note_on,55,86,960
1,note_on,55,0,480
1,note_on,55,82,0
1,note_on,55,0,480
1,note_on,55,95,0
1,note_on,56,85,240
1,note_on,56,0,120
1,note_on,55,0,120
1,note_on,55,83,0
1,note_on,65,77,240
1,note_on,65,0,120
1,note_on,55,0,120
1,note_on,55,85,0
1,note_on,55,0,480
1,note_on,55,83,0
1,note_on,55,0,480
1,note_on,55,94,0
1,note_on,56,84,240
1,note_on,56,0,240
1,note_on,55,0,0
1,note_on,55,83,0
1,note_on,61,77,240
1,note_on,61,0,120
1,note_on,55,0,120
1,note_on,55,80,0
1,note_on,55,0,480
1,note_on,55,78,0
1,note_on,55,0,480
1,note_on,55,81,0
1,note_on,55,0,480
1,note_on,55,85,0
1,note_on,55,0,480
1,note_on,55,71,0
1,note_on,55,0,120
1,note_on,60,65,120
1,note_on,60,0,120
1,note_on,56,84,120
1,note_on,56,0,120
1,note_on,61,73,120
1,note_on,61,0,120
1,note_on,57,72,120
1,note_on,57,0,120
1,note_on,62,71,120
1,note_on,62,0,120
1,note_on,58,81,120
1,note_on,58,0,120
1,note_on,63,70,120
1,note_on,63,0,120
1,note_on,55,73,120
1,note_on,55,0,120
1,note_on,60,68,120
1,note_on,60,0,120
1,note_on,56,88,120
1,note_on,56,0,120
1,note_on,61,77,120
1,note_on,61,0,120
1,note_on,57,79,120
1,note_on,57,0,120
1,note_on,62,74,120
1,note_on,62,0,120
1,note_on,58,87,120
1,note_on,58,0,120
1,note_on,63,74,120
1,note_on,63,0,120
1,note_on,89,62,60
1,note_on,89,0,60
1,note_on,76,64,0
1,note_on,84,76,0
1,note_on,88,76,0
1,note_on,88,0,120
1,note_on,84,0,0
1,note_on,76,0,0
1,note_on,87,60,300
1,note_on,87,0,60
1,note_on,80,72,0
1,note_on,85,72,0
1,note_on,77,61,0
1,note_on,77,0,120
1,note_on,85,0,0
1,note_on,80,0,0
1,note_on,86,58,300
1,note_on,86,0,60
1,note_on,78,72,0
1,note_on,74,61,0
1,note_on,84,72,0
1,note_on,84,0,120
1,note_on,74,0,0
1,note_on,78,0,0
1,note_on,84,55,300
1,note_on,84,0,60
1,note_on,82,69,0
1,note_on,79,69,0
1,note_on,70,58,0
1,note_on,70,0,120
1,note_on,79,0,0
1,note_on,82,0,0
1,note_on,77,58,300
1,note_on,77,0,60
1,note_on,64,61,0
1,note_on,72,72,0
1,note_on,76,72,0
1,note_on,76,0,120
1,note_on,72,0,0
1,note_on,64,0,0
1,note_on,75,56,300
1,note_on,75,0,60
1,note_on,68,68,0
1,note_on,73,68,0
1,note_on,65,57,0
1,note_on,65,0,120
1,note_on,73,0,0
1,note_on,68,0,0
1,note_on,74,54,300
1,note_on,74,0,60
1,note_on,62,57,0
1,note_on,66,68,0
1,note_on,72,68,0
1,note_on,72,0,120
1,note_on,66,0,0
1,note_on,62,0,0
1,note_on,72,52,300
1,note_on,72,0,60
1,note_on,58,55,0
1,note_on,70,65,0
1,note_on,67,65,0
1,note_on,67,0,120
1,note_on,70,0,0
1,note_on,58,0,0
1,note_on,55,76,360
1,note_on,55,0,120
1,note_on,60,70,120
1,note_on,60,0,120
1,note_on,56,90,120
1,note_on,56,0,120
1,note_on,61,80,120
1,note_on,61,0,120
1,note_on,57,78,120
1,note_on,57,0,120
1,note_on,62,77,120
1,note_on,62,0,120
1,note_on,58,89,120
1,note_on,58,0,120
1,note_on,63,76,120
1,note_on,63,0,120
1,note_on,55,81,120
1,note_on,55,0,120
1,note_on,60,75,120
1,note_on,60,0,120
1,note_on,56,99,120
1,note_on,56,0,120
1,note_on,61,86,120
1,note_on,61,0,120
1,note_on,57,88,120
1,note_on,57,0,120
1,note_on,62,83,120
1,note_on,62,0,120
1,note_on,58,99,120
1,note_on,58,0,120
1,note_on,63,84,120
1,note_on,63,0,120
1,note_on,67,79,120
1,note_on,60,67,0
1,note_on,64,67,0
1,note_on,72,79,0
1,note_on,72,0,240
1,note_on,67,0,0
1,note_on,60,0,0
1,note_on,64,0,0
1,note_on,72,61,240
1,note_on,79,72,0
1,note_on,76,72,0
1,note_on,67,61,0
1,note_on,67,0,480
1,note_on,72,0,0
1,note_on,79,0,0
1,note_on,76,0,0
1,note_on,67,63,0
1,note_on,79,75,0
1,note_on,72,63,0
1,note_on,76,75,0
1,note_on,76,0,480
1,note_on,67,0,0
1,note_on,79,0,0
1,note_on,72,0,0
1,note_on,67,61,0
1,note_on,79,72,0
1,note_on,72,61,0
1,note_on,76,72,0
1,note_on,76,0,420
1,note_on,67,0,0
1,note_on,79,0,0
1,note_on,72,0,0
1,note_on,68,54,0
1,note_on,80,64,0
1,note_on,80,0,60
1,note_on,68,0,0
1,note_on,67,61,0
1,note_on,79,72,0
1,note_on,79,0,240
1,note_on,67,0,0
1,note_on,64,58,240
1,note_on,60,58,0
1,note_on,67,69,0
1,note_on,72,69,0
1,note_on,72,0,480
1,note_on,64,0,0
1,note_on,60,0,0
1,note_on,67,0,0
1,note_on,62,62,0
1,note_on,74,73,0
1,note_on,65,62,0
1,note_on,68,73,0
1,note_on,68,0,720
1,note_on,62,0,0
1,note_on,74,0,0
1,note_on,65,0,0
1,note_on,67,79,240
1,note_on,72,79,0
1,note_on,64,67,0
1,note_on,60,67,0
1,note_on,60,0,240
1,note_on,67,0,0
1,note_on,72,0,0
1,note_on,64,0,0
1,note_on,72,61,240
1,note_on,67,61,0
1,note_on,79,72,0
1,note_on,76,72,0
1,note_on,76,0,480
1,note_on,72,0,0
1,note_on,67,0,0
1,note_on,79,0,0
1,note_on,76,75,0
1,note_on,79,75,0
1,note_on,72,63,0
1,note_on,67,63,0
1,note_on,67,0,480
1,note_on,76,0,0
1,note_on,79,0,0
1,note_on,72,0,0
1,note_on,76,72,0
1,note_on,67,61,0
1,note_on,72,61,0
1,note_on,79,72,0
1,note_on,79,0,420
1,note_on,76,0,0
1,note_on,67,0,0
1,note_on,72,0,0
1,note_on,81,64,0
1,note_on,69,54,0
1,note_on,69,0,60
1,note_on,81,0,0
1,note_on,67,61,0
1,note_on,79,72,0
1,note_on,79,0,240
1,note_on,67,0,0
1,note_on,60,58,240
1,note_on,72,69,0
1,note_on,64,58,0
1,note_on,67,69,0
1,note_on,67,0,480
1,note_on,60,0,0
1,note_on,72,0,0
1,note_on,64,0,0
1,note_on,69,73,0
1,note_on,62,62,0
1,note_on,66,62,0
1,note_on,74,73,0
1,note_on,74,0,720
1,note_on,69,0,0
1,note_on,62,0,0
1,note_on,66,0,0
1,note_on,75,83,240
1,note_on,69,70,0
1,note_on,78,83,0
1,note_on,78,0,240
1,note_on,69,0,0
1,note_on,75,0,0
1,note_on,75,61,240
1,note_on,69,61,0
1,note_on,81,72,0
1,note_on,78,72,0
1,note_on,78,0,480
1,note_on,75,0,0
1,note_on,69,0,0
1,note_on,81,0,0
1,note_on,75,63,0
1,note_on,81,75,0
1,note_on,78,75,0
1,note_on,69,63,0
1,note_on,69,0,480
1,note_on,75,0,0
1,note_on,81,0,0
1,note_on,78,0,0
1,note_on,69,61,0
1,note_on,81,72,0
1,note_on,75,61,0
1,note_on,78,72,0
1,note_on,78,0,480
1,note_on,69,0,0
1,note_on,81,0,0
1,note_on,75,0,0
1,note_on,82,69,0
1,note_on,91,82,0
1,note_on,87,82,0
1,note_on,79,69,0
1,note_on,79,0,240
1,note_on,82,0,0
1,note_on,91,0,0
1,note_on,87,0,0
1,note_on,86,72,0
1,note_on,74,61,0
1,note_on,74,0,240
1,note_on,86,0,0
1,note_on,87,77,0
1,note_on,75,65,0
1,note_on,75,0,240
1,note_on,87,0,0
1,note_on,70,61,0
1,note_on,82,72,0
1,note_on,82,0,240
1,note_on,70,0,0
1,note_on,87,80,0
1,note_on,79,68,0
1,note_on,82,68,0
1,note_on,91,80,0
1,note_on,91,0,240
1,note_on,87,0,0
1,note_on,79,0,0
1,note_on,82,0,0
1,note_on,74,61,0
1,note_on,86,72,0
1,note_on,86,0,240
1,note_on,74,0,0
1,note_on,75,65,0
1,note_on,87,77,0
1,note_on,87,0,240
1,note_on,75,0,0
1,note_on,70,61,0
1,note_on,82,72,0
1,note_on,82,0,240
1,note_on,70,0,0
1,note_on,75,83,0
1,note_on,69,70,0
1,note_on,78,83,0
1,note_on,78,0,240
1,note_on,69,0,0
1,note_on,75,0,0
1,note_on,75,61,240
1,note_on,81,72,0
1,note_on,78,72,0
1,note_on,69,61,0
1,note_on,69,0,480
1,note_on,75,0,0
1,note_on,81,0,0
1,note_on,78,0,0
1,note_on,69,63,0
1,note_on,81,75,0
1,note_on,75,63,0
1,note_on,78,75,0
1,note_on,78,0,480
1,note_on,69,0,0
1,note_on,81,0,0
1,note_on,75,0,0
1,note_on,78,72,0
1,note_on,69,61,0
1,note_on,75,61,0
1,note_on,81,72,0
1,note_on,81,0,480
1,note_on,78,0,0
1,note_on,69,0,0
1,note_on,75,0,0
1,note_on,87,69,0
1,note_on,94,82,0
1,note_on,82,69,0
1,note_on,91,82,0
1,note_on,91,0,240
1,note_on,87,0,0
1,note_on,94,0,0
1,note_on,82,0,0
1,note_on,94,80,240
1,note_on,82,68,0
1,note_on,82,0,240
1,note_on,94,0,0
1,note_on,89,72,0
1,note_on,77,61,0
1,note_on,77,0,240
1,note_on,89,0,0
1,note_on,91,73,0
1,note_on,79,62,0
1,note_on,87,73,0
1,note_on,82,62,0
1,note_on,82,0,240
1,note_on,91,0,0
1,note_on,79,0,0
1,note_on,87,0,0
1,note_on,75,58,0
1,note_on,87,69,0
1,note_on,87,0,240
1,note_on,75,0,0
1,note_on,86,77,0
1,note_on,74,65,0
1,note_on,74,0,240
1,note_on,86,0,0
1,note_on,82,72,0
1,note_on,70,61,0
1,note_on,70,0,240
1,note_on,82,0,0
1,note_on,81,83,0
1,note_on,83,83,0
1,note_on,75,70,0
1,note_on,71,70,0
1,note_on,71,0,240
1,note_on,81,0,0
1,note_on,83,0,0
1,note_on,75,0,0
1,note_on,78,72,240
1,note_on,75,61,0
1,note_on,83,72,0
1,note_on,87,72,0
1,note_on,87,0,480
1,note_on,78,0,0
1,note_on,75,0,0
1,note_on,83,0,0
1,note_on,75,63,0
1,note_on,87,75,0
1,note_on,78,75,0
1,note_on,83,75,0
1,note_on,83,0,480
1,note_on,75,0,0
1,note_on,87,0,0
1,note_on,78,0,0
1,note_on,83,72,0
1,note_on,87,72,0
1,note_on,75,61,0
1,note_on,78,72,0
1,note_on,78,0,480
1,note_on,83,0,0
1,note_on,87,0,0
1,note_on,75,0,0
1,note_on,91,78,0
1,note_on,79,66,0
1,note_on,88,78,0
1,note_on,84,66,0
1,note_on,84,0,240
1,note_on,91,0,0
1,note_on,79,0,0
1,note_on,88,0,0
1,note_on,74,61,0
1,note_on,86,72,0
1,note_on,86,0,240
1,note_on,74,0,0
1,note_on,88,76,0
1,note_on,76,64,0
1,note_on,76,0,240
1,note_on,88,0,0
1,note_on,84,67,0
1,note_on,72,56,0
1,note_on,72,0,240
1,note_on,84,0,0
1,note_on,84,78,0
1,note_on,79,66,0
1,note_on,88,78,0
1,note_on,91,78,0
1,note_on,91,0,240
1,note_on,84,0,0
1,note_on,79,0,0
1,note_on,88,0,0
1,note_on,86,68,0
1,note_on,74,57,0
1,note_on,74,0,240
1,note_on,86,0,0
1,note_on,88,73,0
1,note_on,76,62,0
1,note_on,76,0,240
1,note_on,88,0,0
1,note_on,72,56,0
1,note_on,84,66,0
1,note_on,84,0,240
1,note_on,72,0,0
1,note_on,75,70,0
1,note_on,71,70,0
1,note_on,83,83,0
1,note_on,81,83,0
1,note_on,81,0,240
1,note_on,75,0,0
1,note_on,71,0,0
1,note_on,83,0,0
1,note_on,78,61,240
1,note_on,87,72,0
1,note_on,83,72,0
1,note_on,75,61,0
1,note_on,75,0,480
1,note_on,78,0,0
1,note_on,87,0,0
1,note_on,83,0,0
1,note_on,75,63,0
1,note_on,87,75,0
1,note_on,78,63,0
1,note_on,83,75,0
1,note_on,83,0,480
1,note_on,75,0,0
1,note_on,87,0,0
1,note_on,78,0,0
1,note_on,83,72,0
1,note_on,75,61,0
1,note_on,78,61,0
1,note_on,87,72,0
1,note_on,87,0,480
1,note_on,83,0,0
1,note_on,75,0,0
1,note_on,78,0,0
1,note_on,88,66,0
1,note_on,96,78,0
1,note_on,84,66,0
1,note_on,91,78,0
1,note_on,91,0,240
1,note_on,88,0,0
1,note_on,96,0,0
1,note_on,84,0,0
1,note_on,96,76,240
1,note_on,84,64,0
1,note_on,84,0,240
1,note_on,96,0,0
1,note_on,91,67,0
1,note_on,79,56,0
1,note_on,79,0,240
1,note_on,91,0,0
1,note_on,84,57,0
1,note_on,93,68,0
1,note_on,88,68,0
1,note_on,81,57,0
1,note_on,81,0,240
1,note_on,84,0,0
1,note_on,93,0,0
1,note_on,88,0,0
1,note_on,89,64,0
1,note_on,77,54,0
1,note_on,77,0,240
1,note_on,89,0,0
1,note_on,88,73,0
1,note_on,76,62,0
1,note_on,76,0,240
1,note_on,88,0,0
1,note_on,84,66,0
1,note_on,72,56,0
1,note_on,72,0,240
1,note_on,84,0,0
1,note_on,55,66,0
1,note_on,67,78,0
1,note_on,67,0,240
1,note_on,55,0,0
1,note_on,103,73,240
1,note_on,91,73,0
1,note_on,91,0,240
1,note_on,103,0,0
1,note_on,86,56,0
1,note_on,98,67,0
1,note_on,98,0,240
1,note_on,86,0,0
1,note_on,99,70,0
1,note_on,87,59,0
1,note_on,87,0,240
1,note_on,99,0,0
1,note_on,98,65,0
1,note_on,86,55,0
1,note_on,86,0,240
1,note_on,98,0,0
1,note_on,94,70,0
1,note_on,82,59,0
1,note_on,82,0,240
1,note_on,94,0,0
1,note_on,79,56,0
1,note_on,91,67,0
1,note_on,91,0,240
1,note_on,79,0,0
1,note_on,80,59,0
1,note_on,92,70,0
1,note_on,92,0,240
1,note_on,80,0,0
1,note_on,87,54,0
1,note_on,99,64,0
1,note_on,99,0,240
1,note_on,87,0,0
1,note_on,83,56,0
1,note_on,95,67,0
1,note_on,95,0,240
1,note_on,83,0,0
1,note_on,87,50,0
1,note_on,99,59,0
1,note_on,99,0,240
1,note_on,87,0,0
1,note_on,86,74,0
1,note_on,98,74,0
1,note_on,98,0,240
1,note_on,86,0,0
1,note_on,79,57,240
1,note_on,91,68,0
1,note_on,91,0,240
1,note_on,79,0,0
1,note_on,91,78,240
1,note_on,79,66,0
1,note_on,79,0,480
1,note_on,91,0,0
1,note_on,91,73,0
1,note_on,79,62,0
1,note_on,79,0,240
1,note_on,91,0,0
1,note_on,86,67,0
1,note_on,74,56,0
1,note_on,74,0,240
1,note_on,86,0,0
1,note_on,75,59,0
1,note_on,87,70,0
1,note_on,87,0,240
1,note_on,75,0,0
1,note_on,86,65,0
1,note_on,74,55,0
1,note_on,74,0,240
1,note_on,86,0,0
1,note_on,70,59,0
1,note_on,82,70,0
1,note_on,82,0,240
1,note_on,70,0,0
1,note_on,79,67,0
1,note_on,67,56,0
1,note_on,67,0,240
1,note_on,79,0,0
1,note_on,68,59,0
1,note_on,80,70,0
1,note_on,80,0,240
1,note_on,68,0,0
1,note_on,87,64,0
1,note_on,75,54,0
1,note_on,75,0,240
1,note_on,87,0,0
1,note_on,83,67,0
1,note_on,71,56,0
1,note_on,71,0,240
1,note_on,83,0,0
1,note_on,75,50,0
1,note_on,87,59,0
1,note_on,87,0,240
1,note_on,75,0,0
1,note_on,74,67,0
1,note_on,86,79,0
1,note_on,86,0,240
1,note_on,74,0,0
1,note_on,79,67,240
1,note_on,67,56,0
1,note_on,67,0,240
1,note_on,79,0,0
1,note_on,67,66,240
1,note_on,79,78,0
1,note_on,79,0,480
1,note_on,67,0,0
1,note_on,79,73,0
1,note_on,67,62,0
1,note_on,67,0,240
1,note_on,79,0,0
1,note_on,62,56,0
1,note_on,74,67,0
1,note_on,74,0,240
1,note_on,62,0,0
1,note_on,75,70,0
1,note_on,63,59,0
1,note_on,63,0,240
1,note_on,75,0,0
1,note_on,74,65,0
1,note_on,62,55,0
1,note_on,62,0,240
1,note_on,74,0,0
1,note_on,70,70,0
1,note_on,58,59,0
1,note_on,58,0,240
1,note_on,70,0,0
1,note_on,55,56,0
1,note_on,67,67,0
1,note_on,67,0,240
1,note_on,55,0,0
1,note_on,54,87,0
1,note_on,79,73,480
1,note_on,67,62,0
1,note_on,67,0,240
1,note_on,79,0,0
1,note_on,54,0,0
1,note_on,74,67,0
1,note_on,62,56,0
1,note_on,62,0,240
1,note_on,74,0,0
1,note_on,63,59,0
1,note_on,75,70,0
1,note_on,75,0,240
1,note_on,63,0,0
1,note_on,74,65,0
1,note_on,62,55,0
1,note_on,62,0,240
1,note_on,74,0,0
1,note_on,70,70,0
1,note_on,58,59,0
1,note_on,58,0,240
1,note_on,70,0,0
1,note_on,55,56,0
1,note_on,67,67,0
1,note_on,67,0,240
1,note_on,55,0,0
1,note_on,53,87,0
1,note_on,79,73,480
1,note_on,67,62,0
1,note_on,67,0,240
1,note_on,79,0,0
1,note_on,53,0,0
1,note_on,74,67,0
1,note_on,62,56,0
1,note_on,62,0,240
1,note_on,74,0,0
1,note_on,63,59,0
1,note_on,75,70,0
1,note_on,75,0,240
1,note_on,63,0,0
1,note_on,74,65,0
1,note_on,62,55,0
1,note_on,62,0,240
1,note_on,74,0,0
1,note_on,58,59,0
1,note_on,70,70,0
1,note_on,70,0,240
1,note_on,58,0,0
1,note_on,67,67,0
1,note_on,55,56,0
1,note_on,55,0,240
1,note_on,67,0,0
1,note_on,52,87,0
1,note_on,67,62,480
1,note_on,79,73,0
1,note_on,79,0,240
1,note_on,67,0,0
1,note_on,52,0,0
1,note_on,62,56,0
1,note_on,74,67,0
1,note_on,74,0,240
1,note_on,62,0,0
1,note_on,63,59,0
1,note_on,75,70,0
1,note_on,75,0,240
1,note_on,63,0,0
1,note_on,74,65,0
1,note_on,62,55,0
1,note_on,62,0,240
1,note_on,74,0,0
1,note_on,58,59,0
1,note_on,70,70,0
1,note_on,70,0,240
1,note_on,58,0,0
1,note_on,67,67,0
1,note_on,55,56,0
1,note_on,55,0,240
1,note_on,67,0,0
1,note_on,51,87,0
1,note_on,51,0,480
1,note_on,50,87,0
1,note_on,50,0,240
1,note_on,59,73,240
1,note_on,71,87,0
1,note_on,80,70,480
1,note_on,92,83,0
1,note_on,92,0,240
1,note_on,59,0,0
1,note_on,71,0,0
1,note_on,80,0,0
1,note_on,103,72,360
1,note_on,103,0,120
1,note_on,98,65,120
1,note_on,98,0,120
1,note_on,99,69,120
1,note_on,99,0,120
1,note_on,95,66,120
1,note_on,95,0,120
1,note_on,96,69,120
1,note_on,96,0,120
1,note_on,91,65,120
1,note_on,91,0,120
1,note_on,92,69,120
1,note_on,92,0,120
1,note_on,86,65,120
1,note_on,86,0,120
1,note_on,87,72,120
1,note_on,87,0,120
1,note_on,83,65,120
1,note_on,83,0,120
1,note_on,84,69,120
1,note_on,84,0,120
1,note_on,79,65,120
1,note_on,79,0,120
1,note_on,80,68,120
1,note_on,80,0,120
1,note_on,74,63,120
1,note_on,74,0,120
1,note_on,75,69,120
1,note_on,75,0,120
1,note_on,71,66,120
1,note_on,71,0,120
1,note_on,72,72,120
1,note_on,72,0,120
1,note_on,67,63,120
1,note_on,67,0,120
1,note_on,68,69,120
1,note_on,68,0,120
1,note_on,62,66,120
1,note_on,62,0,120
1,note_on,63,69,120
1,note_on,63,0,120
1,note_on,59,66,120
1,note_on,59,0,120
1,note_on,60,75,120
1,note_on,60,0,120
1,note_on,55,69,120
1,note_on,55,0,120
1,note_on,56,77,120
1,note_on,56,0,120
1,note_on,50,71,120
1,note_on,50,0,120
1,note_on,51,76,120
1,note_on,51,0,120
1,note_on,47,68,120
1,note_on,47,0,120
1,note_on,48,72,120
1,note_on,48,0,120
1,note_on,43,63,120
1,note_on,43,0,120
1,note_on,44,72,120
1,note_on,44,0,120
1,note_on,43,63,120
1,note_on,43,0,120
1,note_on,44,70,120
1,note_on,44,0,120
1,note_on,43,63,120
1,note_on,43,0,120
1,note_on,47,75,120
1,note_on,47,0,120
1,note_on,43,63,120
1,note_on,43,0,120
1,note_on,44,69,120
1,note_on,44,0,120
1,note_on,43,63,120
1,note_on,43,0,120
1,note_on,47,73,120
1,note_on,47,0,120
1,note_on,43,61,120
1,note_on,43,0,120
1,note_on,44,68,120
1,note_on,44,0,120
1,note_on,43,62,120
1,note_on,43,0,120
1,note_on,44,67,120
1,note_on,44,0,120
1,note_on,46,63,120
1,note_on,46,0,120
1,note_on,47,64,120
1,note_on,47,0,120
1,note_on,50,62,120
1,note_on,50,0,120
1,note_on,51,64,120
1,note_on,51,0,120
1,note_on,53,68,120
1,note_on,53,0,120
1,note_on,55,68,120
1,note_on,55,0,120
1,note_on,56,64,120
1,note_on,56,0,120
1,note_on,58,65,120
1,note_on,58,0,120
1,note_on,59,65,120
1,note_on,59,0,120
1,note_on,62,76,120
1,note_on,62,0,120
1,note_on,63,69,120
1,note_on,63,0,120
1,note_on,65,69,120
1,note_on,65,0,120
1,note_on,67,69,120
1,note_on,67,0,120
1,note_on,68,76,120
1,note_on,68,0,120
1,note_on,70,70,120
1,note_on,70,0,120
1,note_on,71,70,120
1,note_on,71,0,120
1,note_on,74,72,120
1,note_on,74,0,120
1,note_on,75,78,120
1,note_on,75,0,120
1,note_on,77,72,120
1,note_on,77,0,120
1,note_on,79,72,120
1,note_on,79,0,120
1,note_on,80,72,120
1,note_on,80,0,120
1,note_on,83,80,120
1,note_on,83,0,120
1,note_on,74,63,120
1,note_on,86,71,0
1,note_on,86,0,120
1,note_on,74,0,0
1,note_on,87,71,120
1,note_on,75,63,0
1,note_on,75,0,120
1,note_on,87,0,0
1,note_on,89,72,120
1,note_on,77,64,0
1,note_on,77,0,120
1,note_on,89,0,0
1,note_on,79,64,120
1,note_on,91,72,0
1,note_on,91,0,120
1,note_on,79,0,0
1,note_on,92,70,120
1,note_on,80,63,0
1,note_on,80,0,120
1,note_on,92,0,0
1,note_on,94,70,120
1,note_on,82,63,0
1,note_on,82,0,120
1,note_on,94,0,0
1,note_on,83,63,120
1,note_on,95,71,0
1,note_on,95,0,120
1,note_on,83,0,0
1,note_on,98,77,120
1,note_on,86,69,0
1,note_on,86,0,120
1,note_on,98,0,0
1,note_on,99,71,120
1,note_on,87,63,0
1,note_on,87,0,120
1,note_on,99,0,0
1,note_on,89,64,120
1,note_on,101,72,0
1,note_on,101,0,120
1,note_on,89,0,0
1,note_on,91,64,120
1,note_on,103,72,0
1,note_on,103,0,120
1,note_on,91,0,0
1,note_on,99,74,120
1,note_on,87,66,0
1,note_on,87,0,120
1,note_on,99,0,0
1,note_on,101,67,120
1,note_on,89,60,0
1,note_on,89,0,120
1,note_on,101,0,0
1,note_on,95,72,120
1,note_on,83,64,0
1,note_on,83,0,120
1,note_on,95,0,0
1,note_on,86,61,120
1,note_on,98,68,0
1,note_on,98,0,120
1,note_on,86,0,0
1,note_on,87,67,120
1,note_on,99,75,0
1,note_on,99,0,120
1,note_on,87,0,0
1,note_on,101,68,120
1,note_on,89,61,0
1,note_on,89,0,120
1,note_on,101,0,0
1,note_on,83,64,120
1,note_on,95,72,0
1,note_on,95,0,120
1,note_on,83,0,0
1,note_on,98,68,120
1,note_on,86,61,0
1,note_on,86,0,120
1,note_on,98,0,0
1,note_on,99,72,120
1,note_on,87,64,0
1,note_on,87,0,120
1,note_on,99,0,0
1,note_on,89,62,120
1,note_on,101,69,0
1,note_on,101,0,120
1,note_on,89,0,0
1,note_on,89,63,120
1,note_on,77,56,0
1,note_on,77,0,120
1,note_on,89,0,0
1,note_on,90,62,120
1,note_on,78,55,0
1,note_on,78,0,120
1,note_on,90,0,0
1,note_on,79,56,120
1,note_on,91,63,0
1,note_on,91,0,120
1,note_on,79,0,0
1,note_on,92,64,120
1,note_on,80,57,0
1,note_on,80,0,120
1,note_on,92,0,0
1,note_on,81,58,120
1,note_on,93,65,0
1,note_on,93,0,120
1,note_on,81,0,0
1,note_on,94,66,120
1,note_on,82,59,0
1,note_on,82,0,120
1,note_on,94,0,0
1,note_on,95,67,120
1,note_on,83,60,0
1,note_on,83,0,120
1,note_on,95,0,0
1,note_on,84,61,120
1,note_on,96,68,0
1,note_on,96,0,120
1,note_on,84,0,0
1,note_on,97,68,120
1,note_on,85,61,0
1,note_on,85,0,120
1,note_on,97,0,0
1,note_on,98,69,120
1,note_on,86,62,0
1,note_on,86,0,120
1,note_on,98,0,0
1,note_on,87,63,120
1,note_on,99,70,0
1,note_on,99,0,120
1,note_on,87,0,0
1,note_on,101,71,120
1,note_on,89,63,0
1,note_on,89,0,120
1,note_on,101,0,0
1,note_on,102,72,120
1,note_on,90,64,0
1,note_on,90,0,120
1,note_on,102,0,0
1,note_on,91,65,120
1,note_on,103,73,0
1,note_on,103,0,120
1,note_on,91,0,0
1,note_on,63,75,120
1,note_on,67,75,0
1,note_on,70,90,0
1,note_on,75,90,0
1,note_on,75,0,1680
1,note_on,63,0,0
1,note_on,67,0,0
1,note_on,70,0,0
1,note_on,65,71,120
1,note_on,70,71,0
1,note_on,74,85,0
1,note_on,77,85,0
1,note_on,77,0,1800
1,note_on,65,0,0
1,note_on,70,0,0
1,note_on,74,0,0
1,note_on,67,75,120
1,note_on,70,75,0
1,note_on,75,90,0
1,note_on,79,90,0
1,note_on,79,0,840
1,note_on,67,0,0
1,note_on,70,0,0
1,note_on,75,0,0
1,note_on,63,72,120
1,note_on,67,72,0
1,note_on,72,86,0
1,note_on,75,86,0
1,note_on,75,0,480
1,note_on,63,0,0
1,note_on,67,0,0
1,note_on,72,0,0
1,note_on,67,79,0
1,note_on,79,79,0
1,note_on,79,0,360
1,note_on,67,0,0
1,note_on,65,69,120
1,note_on,70,69,0
1,note_on,74,82,0
1,note_on,77,82,0
1,note_on,77,0,960
1,note_on,65,0,0
1,note_on,70,0,0
1,note_on,74,0,0
1,note_on,58,71,0
1,note_on,70,71,0
1,note_on,70,0,840
1,note_on,58,0,0
1,note_on,67,72,120
1,note_on,70,72,0
1,note_on,79,86,0
1,note_on,75,86,0
1,note_on,75,0,480
1,note_on,67,0,0
1,note_on,70,0,0
1,note_on,79,0,0
1,note_on,70,80,0
1,note_on,82,80,0
1,note_on,82,0,480
1,note_on,70,0,0
1,note_on,70,85,0
1,note_on,65,71,0
1,note_on,77,85,0
1,note_on,77,0,480
1,note_on,65,0,0
1,note_on,63,69,0
1,note_on,75,83,0
1,note_on,75,0,480
1,note_on,63,0,0
1,note_on,70,0,0
1,note_on,62,69,0
1,note_on,70,82,0
1,note_on,74,82,0
1,note_on,74,0,960
1,note_on,70,0,0
1,note_on,62,0,0
1,note_on,58,57,0
1,note_on,67,68,0
1,note_on,70,68,0
1,note_on,70,0,840
1,note_on,67,0,0
1,note_on,58,0,0
1,note_on,67,72,120
1,note_on,70,72,0
1,note_on,79,86,0
1,note_on,75,86,0
1,note_on,75,0,480
1,note_on,67,0,0
1,note_on,70,0,0
1,note_on,79,0,0
1,note_on,70,67,0
1,note_on,82,80,0
1,note_on,82,0,480
1,note_on,70,0,0
1,note_on,70,69,0
1,note_on,65,83,0
1,note_on,77,83,0
1,note_on,77,0,480
1,note_on,65,0,0
1,note_on,63,81,0
1,note_on,75,81,0
1,note_on,75,0,480
1,note_on,63,0,0
1,note_on,70,0,0
1,note_on,62,64,0
1,note_on,70,76,0
1,note_on,74,76,0
1,note_on,74,0,960
1,note_on,70,0,0
1,note_on,62,0,0
1,note_on,58,57,0
1,note_on,67,69,0
1,note_on,70,69,0
1,note_on,70,0,960
1,note_on,67,0,0
1,note_on,58,0,0
1,note_on,63,75,120
1,note_on,67,75,0
1,note_on,70,90,0
1,note_on,75,90,0
1,note_on,75,0,1680
1,note_on,63,0,0
1,note_on,67,0,0
1,note_on,70,0,0
1,note_on,65,71,120
1,note_on,70,85,0
1,note_on,74,85,0
1,note_on,77,85,0
1,note_on,77,0,1800
1,note_on,65,0,0
1,note_on,70,0,0
1,note_on,74,0,0
1,note_on,67,75,120
1,note_on,70,75,0
1,note_on,75,90,0
1,note_on,79,90,0
1,note_on,79,0,840
1,note_on,67,0,0
1,note_on,70,0,0
1,note_on,75,0,0
1,note_on,63,72,120
1,note_on,67,72,0
1,note_on,72,86,0
1,note_on,75,86,0
1,note_on,75,0,480
1,note_on,63,0,0
1,note_on,67,0,0
1,note_on,72,0,0
1,note_on,67,66,0
1,note_on,79,79,0
1,note_on,79,0,360
1,note_on,67,0,0
1,note_on,65,69,120
1,note_on,70,69,0
1,note_on,74,82,0
1,note_on,77,82,0
1,note_on,77,0,960
1,note_on,65,0,0
1,note_on,70,0,0
1,note_on,74,0,0
1,note_on,58,63,0
1,note_on,70,75,0
1,note_on,70,0,960
1,note_on,58,0,0
1,note_on,80,73,0
1,note_on,87,73,0
1,note_on,75,63,0
1,note_on,75,0,480
1,note_on,87,0,0
1,note_on,87,70,0
1,note_on,75,59,0
1,note_on,75,0,480
1,note_on,87,0,0
1,note_on,80,0,0
1,note_on,80,73,0
1,note_on,86,65,0
1,note_on,74,54,0
1,note_on,74,0,480
1,note_on,86,0,0
1,note_on,82,63,0
1,note_on,70,52,0
1,note_on,70,0,480
1,note_on,82,0,0
1,note_on,80,0,0
1,note_on,75,68,0
1,note_on,72,56,0
1,note_on,84,68,0
1,note_on,84,0,480
1,note_on,72,0,0
1,note_on,84,62,0
1,note_on,72,51,0
1,note_on,72,0,480
1,note_on,84,0,0
1,note_on,80,65,0
1,note_on,68,53,0
1,note_on,68,0,480
1,note_on,80,0,0
1,note_on,72,52,0
1,note_on,84,63,0
1,note_on,84,0,480
1,note_on,72,0,0
1,note_on,75,0,0
1,note_on,75,66,0
1,note_on,70,64,0
1,note_on,82,76,0
1,note_on,82,0,960
1,note_on,70,0,0
1,note_on,68,63,0
1,note_on,80,72,0
1,note_on,80,0,480
1,note_on,68,0,0
1,note_on,75,0,0
1,note_on,67,67,0
1,note_on,79,80,0
1,note_on,79,0,480
1,note_on,67,0,0
1,note_on,65,69,0
1,note_on,68,69,0
1,note_on,72,83,0
1,note_on,77,83,0
1,note_on,77,0,1920
1,note_on,65,0,0
1,note_on,68,0,0
1,note_on,72,0,0
1,note_on,70,70,0
1,note_on,74,70,0
1,note_on,77,83,0
1,note_on,82,83,0
1,note_on,82,0,960
1,note_on,70,0,0
1,note_on,74,0,0
1,note_on,77,0,0
1,note_on,84,81,0
1,note_on,79,81,0
1,note_on,75,67,0
1,note_on,72,67,0
1,note_on,72,0,960
1,note_on,84,0,0
1,note_on,79,0,0
1,note_on,75,0,0
1,note_on,75,83,0
1,note_on,63,69,0
1,note_on,63,0,480
1,note_on,75,0,0
1,note_on,75,76,0
1,note_on,63,64,0
1,note_on,63,0,480
1,note_on,75,0,0
1,note_on,68,66,0
1,note_on,74,76,0
1,note_on,62,64,0
1,note_on,62,0,480
1,note_on,74,0,0
1,note_on,72,75,0
1,note_on,60,63,0
1,note_on,60,0,480
1,note_on,72,0,0
1,note_on,68,0,0
1,note_on,63,69,0
1,note_on,58,69,0
1,note_on,70,82,0
1,note_on,70,0,960
1,note_on,58,0,0
1,note_on,56,69,0
1,note_on,68,83,0
1,note_on,68,0,480
1,note_on,56,0,0
1,note_on,63,0,0
1,note_on,55,67,0
1,note_on,67,80,0
1,note_on,67,0,480
1,note_on,55,0,0
1,note_on,53,70,0
1,note_on,60,70,0
1,note_on,65,84,0
1,note_on,63,84,0
1,note_on,63,0,1920
1,note_on,53,0,0
1,note_on,60,0,0
1,note_on,65,0,0
1,note_on,58,72,0
1,note_on,62,72,0
1,note_on,67,87,0
1,note_on,70,87,0
1,note_on,70,0,1920
1,note_on,58,0,0
1,note_on,62,0,0
1,note_on,67,0,0
1,note_on,51,100,0
1,note_on,63,80,120
1,note_on,67,80,0
1,note_on,70,94,0
1,note_on,75,94,0
1,note_on,75,0,1680
1,note_on,67,0,0
1,note_on,51,0,0
1,note_on,63,0,0
1,note_on,70,0,0
1,note_on,51,90,0
1,note_on,65,73,120
1,note_on,70,73,0
1,note_on,74,89,0
1,note_on,77,89,0
1,note_on,77,0,1800
1,note_on,70,0,0
1,note_on,51,0,0
1,note_on,65,0,0
1,note_on,74,0,0
1,note_on,51,90,0
1,note_on,67,80,120
1,note_on,70,80,0
1,note_on,75,94,0
1,note_on,79,94,0
1,note_on,79,0,960
1,note_on,70,0,0
1,note_on,75,0,0
1,note_on,67,0,0
1,note_on,63,75,0
1,note_on,67,75,0
1,note_on,72,90,0
1,note_on,75,90,0
1,note_on,75,0,480
1,note_on,67,0,0
1,note_on,72,0,0
1,note_on,63,0,0
1,note_on,67,69,0
1,note_on,79,82,0
1,note_on,79,0,480
1,note_on,67,0,0
1,note_on,51,0,0
1,note_on,65,71,0
1,note_on,70,71,0
1,note_on,74,85,0
1,note_on,77,85,0
1,note_on,77,0,960
1,note_on,65,0,0
1,note_on,70,0,0
1,note_on,74,0,0
1,note_on,58,67,0
1,note_on,70,80,0
1,note_on,70,0,840
1,note_on,58,0,0
1,note_on,51,90,0
1,note_on,67,75,120
1,note_on,70,75,0
1,note_on,79,90,0
1,note_on,75,90,0
1,note_on,75,0,480
1,note_on,70,0,0
1,note_on,79,0,0
1,note_on,67,0,0
1,note_on,70,69,0
1,note_on,82,83,0
1,note_on,82,0,480
1,note_on,70,0,0
1,note_on,70,89,0
1,note_on,65,73,0
1,note_on,77,89,0
1,note_on,77,0,480
1,note_on,65,0,0
1,note_on,63,72,0
1,note_on,75,87,0
1,note_on,75,0,480
1,note_on,63,0,0
1,note_on,70,0,0
1,note_on,62,71,0
1,note_on,70,85,0
1,note_on,74,85,0
1,note_on,74,0,960
1,note_on,70,0,0
1,note_on,62,0,0
1,note_on,58,63,0
1,note_on,67,75,0
1,note_on,70,75,0
1,note_on,70,0,840
1,note_on,51,0,0
1,note_on,58,0,0
1,note_on,67,0,0
1,note_on,51,90,0
1,note_on,67,75,120
1,note_on,70,90,0
1,note_on,79,90,0
1,note_on,75,90,0
1,note_on,75,0,480
1,note_on,70,0,0
1,note_on,79,0,0
1,note_on,67,0,0
1,note_on,70,69,0
1,note_on,82,83,0
1,note_on,82,0,480
1,note_on,70,0,0
1,note_on,70,87,0
1,note_on,65,72,0
1,note_on,77,87,0
1,note_on,77,0,480
1,note_on,65,0,0
1,note_on,63,70,0
1,note_on,75,84,0
1,note_on,75,0,480
1,note_on,63,0,0
1,note_on,70,0,0
1,note_on,62,81,0
1,note_on,70,81,0
1,note_on,74,81,0
1,note_on,74,0,960
1,note_on,70,0,0
1,note_on,62,0,0
1,note_on,58,63,0
1,note_on,67,73,0
1,note_on,70,73,0
1,note_on,70,0,960
1,note_on,51,0,0
1,note_on,58,0,0
1,note_on,67,0,0
1,note_on,59,50,0
1,note_on,63,50,0
1,note_on,68,50,0
1,note_on,68,0,1920
1,note_on,63,0,0
1,note_on,59,0,0
1,note_on,59,49,0
1,note_on,63,49,0
1,note_on,63,0,960
1,note_on,59,0,0
1,note_on,59,47,0
1,note_on,63,47,0
1,note_on,63,0,960
1,note_on,59,0,0
1,note_on,61,50,0
1,note_on,64,50,0
1,note_on,64,0,960
1,note_on,61,0,0
1,note_on,63,50,0
1,note_on,66,50,0
1,note_on,66,0,960
1,note_on,63,0,0
1,note_on,64,53,0
1,note_on,68,53,0
1,note_on,68,0,1920
1,note_on,64,0,0
1,note_on,63,50,0
1,note_on,66,50,0
1,note_on,66,0,1920
1,note_on,63,0,0
1,note_on,64,51,0
1,note_on,68,51,0
1,note_on,68,0,960
1,note_on,64,0,0
1,note_on,66,52,0
1,note_on,69,52,0
1,note_on,69,0,960
1,note_on,66,0,0
1,note_on,68,53,0
1,note_on,71,53,0
1,note_on,71,0,960
1,note_on,68,0,0
1,note_on,68,50,0
1,note_on,71,50,0
1,note_on,71,0,960
1,note_on,68,0,0
1,note_on,66,53,0
1,note_on,69,53,0
1,note_on,69,0,960
1,note_on,66,0,0
1,note_on,68,54,0
1,note_on,71,54,0
1,note_on,71,0,960
1,note_on,68,0,0
1,note_on,69,56,0
1,note_on,73,56,0
1,note_on,73,0,1920
1,note_on,69,0,0
1,note_on,66,63,0
1,note_on,74,63,0
1,note_on,74,0,960
1,note_on,66,0,0
1,note_on,69,56,0
1,note_on,73,56,0
1,note_on,73,0,960
1,note_on,69,0,0
1,note_on,68,53,0
1,note_on,71,53,0
1,note_on,71,0,1920
1,note_on,68,0,0
1,note_on,64,54,0
1,note_on,73,54,0
1,note_on,73,0,960
1,note_on,64,0,0
1,note_on,71,52,0
1,note_on,68,52,0
1,note_on,68,0,960
1,note_on,71,0,0
1,note_on,61,51,0
1,note_on,69,51,0
1,note_on,69,0,960
1,note_on,61,0,0
1,note_on,64,49,0
1,note_on,68,49,0
1,note_on,68,0,960
1,note_on,64,0,0
1,note_on,63,52,0
1,note_on,66,52,0
1,note_on,66,0,1920
1,note_on,63,0,0
1,note_on,61,50,0
1,note_on,64,50,0
1,note_on,64,0,1920
1,note_on,61,0,0
1,note_on,56,46,0
1,note_on,63,46,0
1,note_on,63,0,1920
1,note_on,56,0,0
1,note_on,56,37,0
1,note_on,63,37,0
1,note_on,63,0,960
1,note_on,56,0,0
1,note_on,56,35,0
1,note_on,63,35,0
1,note_on,63,0,840
1,note_on,56,0,0
1,note_on,91,71,118
1,note_on,103,90,2
1,note_on,91,0,238
1,note_on,103,0,2
1,note_on,101,83,0
1,note_on,89,65,1
1,note_on,87,71,238
1,note_on,101,0,1
1,note_on,99,90,0
1,note_on,89,0,1
1,note_on,87,0,238
1,note_on,99,0,1
1,note_on,98,82,0
1,note_on,86,64,2
1,note_on,98,0,238
1,note_on,96,88,0
1,note_on,84,70,1
1,note_on,86,0,1
1,note_on,96,0,238
1,note_on,82,64,0
1,note_on,94,82,0
1,note_on,84,0,1
1,note_on,94,0,239
1,note_on,82,0,0
1,note_on,92,88,0
1,note_on,80,70,0
1,note_on,80,0,240
1,note_on,92,0,0
1,note_on,91,82,0
1,note_on,79,64,3
1,note_on,91,0,237
1,note_on,89,87,0
1,note_on,77,70,2
1,note_on,79,0,1
1,note_on,89,0,237
1,note_on,87,81,0
1,note_on,77,0,2
1,note_on,75,63,0
1,note_on,74,68,237
1,note_on,87,0,1
1,note_on,86,86,0
1,note_on,75,0,2
1,note_on,74,0,237
1,note_on,86,0,1
1,note_on,84,80,0
1,note_on,72,63,3
1,note_on,84,0,237
1,note_on,82,86,0
1,note_on,70,68,2
1,note_on,72,0,1
1,note_on,82,0,237
1,note_on,80,80,0
1,note_on,68,63,1
1,note_on,70,0,1
1,note_on,67,68,237
1,note_on,80,0,1
1,note_on,79,86,0
1,note_on,68,0,1
1,note_on,65,63,237
1,note_on,67,0,1
1,note_on,79,0,1
1,note_on,77,80,0
1,note_on,65,0,238
1,note_on,63,66,0
1,note_on,77,0,2
1,note_on,75,84,0
1,note_on,63,0,238
1,note_on,75,0,2
1,note_on,62,63,0
1,note_on,74,79,0
1,note_on,60,66,238
1,note_on,74,0,2
1,note_on,62,0,0
1,note_on,72,84,0
1,note_on,60,0,238
1,note_on,58,62,0
1,note_on,72,0,2
1,note_on,70,76,0
1,note_on,58,0,238
1,note_on,70,0,2
1,note_on,68,83,0
1,note_on,56,65,3
1,note_on,68,0,237
1,note_on,55,61,0
1,note_on,67,73,0
1,note_on,56,0,3
1,note_on,53,64,235
1,note_on,67,0,2
1,note_on,55,0,0
1,note_on,65,82,0
1,note_on,53,0,238
1,note_on,51,61,0
1,note_on,65,0,2
1,note_on,63,73,0
1,note_on,51,0,238
1,note_on,50,63,0
1,note_on,63,0,2
1,note_on,62,80,0
1,note_on,50,0,238
1,note_on,62,0,2
1,note_on,48,59,0
1,note_on,60,72,0
1,note_on,60,0,240
1,note_on,48,0,0
1,note_on,58,80,0
1,note_on,46,63,1
1,note_on,58,0,239
1,note_on,56,71,0
1,note_on,46,0,1
1,note_on,44,57,0
1,note_on,56,0,239
1,note_on,55,79,0
1,note_on,44,0,1
1,note_on,43,62,0
1,note_on,55,0,239
1,note_on,53,69,0
1,note_on,43,0,1
1,note_on,41,54,0
1,note_on,39,62,237
1,note_on,53,0,2
1,note_on,51,79,0
1,note_on,41,0,1
1,note_on,39,0,237
1,note_on,51,0,2
1,note_on,50,68,0
1,note_on,38,54,1
1,note_on,50,0,239
1,note_on,51,76,0
1,note_on,38,0,1
1,note_on,51,0,239
1,note_on,53,67,0
1,note_on,53,0,240
1,note_on,55,76,0
1,note_on,55,0,240
1,note_on,56,68,0
1,note_on,56,0,240
1,note_on,58,79,0
1,note_on,58,0,240
1,note_on,60,68,0
1,note_on,60,0,240
1,note_on,62,80,0
1,note_on,62,0,240
1,note_on,63,69,0
1,note_on,63,0,240
1,note_on,53,65,0
1,note_on,65,72,0
1,note_on,65,0,240
1,note_on,53,0,0
1,note_on,55,60,0
1,note_on,67,67,0
1,note_on,56,70,238
1,note_on,67,0,2
1,note_on,55,0,0
1,note_on,68,79,0
1,note_on,56,0,238
1,note_on,68,0,2
1,note_on,70,70,0
1,note_on,58,63,1
1,note_on,70,0,239
1,note_on,72,83,0
1,note_on,58,0,1
1,note_on,60,72,1
1,note_on,72,0,238
1,note_on,74,73,0
1,note_on,60,0,2
1,note_on,62,67,0
1,note_on,74,0,238
1,note_on,75,85,0
1,note_on,63,75,1
1,note_on,62,0,1
1,note_on,65,68,237
1,note_on,75,0,1
1,note_on,77,75,0
1,note_on,63,0,1
1,note_on,65,0,238
1,note_on,77,0,1
1,note_on,79,88,0
1,note_on,67,80,3
1,note_on,79,0,237
1,note_on,80,80,0
1,note_on,68,70,2
1,note_on,67,0,1
1,note_on,80,0,237
1,note_on,82,90,0
1,note_on,68,0,2
1,note_on,70,81,1
1,note_on,82,0,237
1,note_on,84,81,0
1,note_on,70,0,3
1,note_on,72,71,0
1,note_on,84,0,237
1,note_on,86,91,0
1,note_on,74,82,1
1,note_on,72,0,2
1,note_on,75,70,235
1,note_on,86,0,2
1,note_on,87,80,0
1,note_on,74,0,1
1,note_on,75,0,237
1,note_on,87,0,2
1,note_on,89,92,0
1,note_on,77,83,0
1,note_on,79,73,239
1,note_on,77,0,1
1,note_on,89,0,0
1,note_on,91,84,0
1,note_on,79,0,239
1,note_on,91,0,1
1,note_on,89,92,0
1,note_on,77,83,3
1,note_on,75,80,236
1,note_on,89,0,1
1,note_on,87,88,0
1,note_on,77,0,3
1,note_on,75,0,236
1,note_on,87,0,1
1,note_on,86,92,0
1,note_on,74,83,2
1,note_on,86,0,238
1,note_on,84,87,0
1,note_on,74,0,2
1,note_on,72,79,1
1,note_on,84,0,237
1,note_on,82,91,0
1,note_on,72,0,3
1,note_on,70,82,0
1,note_on,82,0,237
1,note_on,80,84,0
1,note_on,70,0,3
1,note_on,68,73,0
1,note_on,80,0,237
1,note_on,79,90,0
1,note_on,67,81,1
1,note_on,68,0,2
1,note_on,79,0,237
1,note_on,77,84,0
1,note_on,65,73,0
1,note_on,67,0,1
1,note_on,65,0,239
1,note_on,77,0,0
1,note_on,63,85,0
1,note_on,67,85,0
1,note_on,70,85,0
1,note_on,75,96,0
1,note_on,75,0,1920
1,note_on,63,0,0
1,note_on,67,0,0
1,note_on,70,0,0
1,note_on,65,81,0
1,note_on,70,90,0
1,note_on,74,90,0
1,note_on,77,90,0
1,note_on,77,0,1920
1,note_on,65,0,0
1,note_on,70,0,0
1,note_on,74,0,0
1,note_on,67,85,0
1,note_on,70,85,0
1,note_on,75,85,0
1,note_on,79,96,0
1,note_on,79,0,960
1,note_on,67,0,0
1,note_on,70,0,0
1,note_on,75,0,0
1,note_on,63,82,0
1,note_on,67,82,0
1,note_on,72,82,0
1,note_on,75,91,0
1,note_on,75,0,480
1,note_on,63,0,0
1,note_on,67,0,0
1,note_on,72,0,0
1,note_on,70,73,0
1,note_on,75,73,0
1,note_on,67,73,0
1,note_on,79,84,0
1,note_on,79,0,480
1,note_on,70,0,0
1,note_on,75,0,0
1,note_on,67,0,0
1,note_on,65,79,0
1,note_on,70,79,0
1,note_on,74,79,0
1,note_on,77,88,0
1,note_on,77,0,960
1,note_on,65,0,0
1,note_on,70,0,0
1,note_on,74,0,0
1,note_on,58,72,0
1,note_on,70,81,0
1,note_on,70,0,960
1,note_on,58,0,0
1,note_on,84,72,0
1,note_on,80,72,0
1,note_on,87,81,0
1,note_on,75,72,0
1,note_on,75,0,480
1,note_on,87,0,0
1,note_on,87,81,0
1,note_on,75,72,0
1,note_on,75,0,480
1,note_on,84,0,0
1,note_on,80,0,0
1,note_on,87,0,0
1,note_on,79,72,0
1,note_on,82,72,0
1,note_on,86,81,0
1,note_on,74,72,0
1,note_on,74,0,480
1,note_on,86,0,0
1,note_on,82,76,0
1,note_on,70,68,0
1,note_on,70,0,480
1,note_on,79,0,0
1,note_on,82,0,0
1,note_on,82,0,0
1,note_on,80,79,0
1,note_on,77,70,0
1,note_on,72,70,0
1,note_on,84,79,0
1,note_on,84,0,480
1,note_on,72,0,0
1,note_on,84,75,0
1,note_on,72,68,0
1,note_on,72,0,480
1,note_on,84,0,0
1,note_on,80,73,0
1,note_on,68,67,0
1,note_on,68,0,480
1,note_on,80,0,0
1,note_on,72,63,0
1,note_on,84,71,0
1,note_on,84,0,480
1,note_on,80,0,0
1,note_on,77,0,0
1,note_on,72,0,0
1,note_on,74,82,0
1,note_on,79,82,0
1,note_on,70,72,0
1,note_on,82,82,0
1,note_on,82,0,960
1,note_on,74,0,0
1,note_on,79,0,0
1,note_on,70,0,0
1,note_on,72,70,0
1,note_on,68,70,0
1,note_on,80,79,0
1,note_on,80,0,480
1,note_on,68,0,0
1,note_on,67,75,0
1,note_on,79,84,0
1,note_on,79,0,480
1,note_on,67,0,0
1,note_on,72,0,0
1,note_on,65,79,0
1,note_on,75,79,0
1,note_on,72,79,0
1,note_on,77,89,0
1,note_on,77,0,1920
1,note_on,65,0,0
1,note_on,75,0,0
1,note_on,72,0,0
1,note_on,70,84,0
1,note_on,74,84,0
1,note_on,77,84,0
1,note_on,82,95,0
1,note_on,82,0,720
1,note_on,70,0,0
1,note_on,74,0,0
1,note_on,77,0,0
1,note_on,66,67,1200
1,note_on,70,67,0
1,note_on,70,0,1920
1,note_on,66,0,0
1,note_on,66,65,0
1,note_on,70,65,0
1,note_on,70,0,960
1,note_on,66,0,0
1,note_on,66,63,0
1,note_on,70,63,0
1,note_on,70,0,960
1,note_on,66,0,0
1,note_on,68,66,0
1,note_on,71,66,0
1,note_on,71,0,960
1,note_on,68,0,0
1,note_on,70,66,0
1,note_on,73,66,0
1,note_on,73,0,960
1,note_on,70,0,0
1,note_on,71,66,0
1,note_on,75,66,0
1,note_on,75,0,1920
1,note_on,71,0,0
1,note_on,70,66,0
1,note_on,73,66,0
1,note_on,73,0,1920
1,note_on,70,0,0
1,note_on,71,65,0
1,note_on,75,65,0
1,note_on,75,0,960
1,note_on,71,0,0
1,note_on,73,66,0
1,note_on,76,66,0
1,note_on,76,0,960
1,note_on,73,0,0
1,note_on,75,67,0
1,note_on,78,67,0
1,note_on,78,0,960
1,note_on,75,0,0
1,note_on,75,64,0
1,note_on,78,64,0
1,note_on,78,0,960
1,note_on,75,0,0
1,note_on,73,67,0
1,note_on,76,67,0
1,note_on,76,0,960
1,note_on,73,0,0
1,note_on,75,68,0
1,note_on,78,68,0
1,note_on,78,0,960
1,note_on,75,0,0
1,note_on,76,71,0
1,note_on,80,71,0
1,note_on,80,0,1920
1,note_on,76,0,0
1,note_on,73,75,0
1,note_on,81,75,0
1,note_on,81,0,960
1,note_on,73,0,0
1,note_on,76,67,0
1,note_on,80,67,0
1,note_on,80,0,960
1,note_on,76,0,0
1,note_on,75,64,0
1,note_on,78,64,0
1,note_on,78,0,1920
1,note_on,75,0,0
1,note_on,71,64,0
1,note_on,80,64,0
1,note_on,80,0,960
1,note_on,71,0,0
1,note_on,78,60,0
1,note_on,75,60,0
1,note_on,75,0,960
1,note_on,78,0,0
1,note_on,68,57,0
1,note_on,76,57,0
1,note_on,76,0,960
1,note_on,68,0,0
1,note_on,71,54,0
1,note_on,75,54,0
1,note_on,75,0,960
1,note_on,71,0,0
1,note_on,70,57,0
1,note_on,73,57,0
1,note_on,73,0,1920
1,note_on,70,0,0
1,note_on,68,54,0
1,note_on,71,54,0
1,note_on,71,0,1920
1,note_on,68,0,0
1,note_on,63,48,0
1,note_on,70,48,0
1,note_on,70,0,1920
1,note_on,63,0,0
1,note_on,63,39,0
1,note_on,70,39,0
1,note_on,70,0,960
1,note_on,63,0,0
1,note_on,63,35,0
1,note_on,70,35,0
1,note_on,70,0,960
1,note_on,63,0,0
1,note_on,53,85,0
1,note_on,63,85,0
1,note_on,63,0,1920
1,note_on,53,0,0
1,note_on,52,84,0
1,note_on,63,84,0
1,note_on,63,0,1920
1,note_on,52,0,0
1,note_on,53,85,0
1,note_on,63,85,0
1,note_on,63,0,1920
1,note_on,53,0,0
1,note_on,52,84,0
1,note_on,63,84,0
1,note_on,63,0,1920
1,note_on,52,0,0
1,note_on,68,84,0
1,note_on,75,84,0
1,note_on,77,84,0
1,note_on,77,0,320
1,note_on,75,0,0
1,note_on,68,0,0
1,note_on,65,60,0
1,note_on,65,0,320
1,note_on,68,50,0
1,note_on,75,50,0
1,note_on,77,50,0
1,note_on,77,0,320
1,note_on,75,0,0
1,note_on,68,0,0
1,note_on,65,62,0
1,note_on,65,0,320
1,note_on,68,48,0
1,note_on,75,48,0
1,note_on,77,48,0
1,note_on,77,0,320
1,note_on,75,0,0
1,note_on,68,0,0
1,note_on,65,54,0
1,note_on,65,0,320
1,note_on,68,77,0
1,note_on,75,77,0
1,note_on,71,77,0
1,note_on,71,0,320
1,note_on,75,0,0
1,note_on,68,0,0
1,note_on,64,60,0
1,note_on,64,0,320
1,note_on,68,48,0
1,note_on,75,48,0
1,note_on,71,48,0
1,note_on,71,0,320
1,note_on,75,0,0
1,note_on,68,0,0
1,note_on,64,62,0
1,note_on,64,0,320
1,note_on,68,45,0
1,note_on,75,45,0
1,note_on,71,45,0
1,note_on,71,0,320
1,note_on,75,0,0
1,note_on,68,0,0
1,note_on,64,50,0
1,note_on,64,0,320
1,note_on,68,79,0
1,note_on,75,79,0
1,note_on,77,79,0
1,note_on,77,0,320
1,note_on,75,0,0
1,note_on,68,0,0
1,note_on,65,60,0
1,note_on,65,0,320
1,note_on,68,48,0
1,note_on,75,48,0
1,note_on,77,48,0
1,note_on,77,0,320
1,note_on,75,0,0
1,note_on,68,0,0
1,note_on,65,63,0
1,note_on,65,0,320
1,note_on,68,47,0
1,note_on,75,47,0
1,note_on,77,47,0
1,note_on,77,0,320
1,note_on,75,0,0
1,note_on,68,0,0
1,note_on,65,54,0
1,note_on,65,0,320
1,note_on,68,77,0
1,note_on,75,77,0
1,note_on,71,77,0
1,note_on,71,0,320
1,note_on,75,0,0
1,note_on,68,0,0
1,note_on,64,60,0
1,note_on,64,0,320
1,note_on,68,47,0
1,note_on,75,47,0
1,note_on,71,47,0
1,note_on,71,0,320
1,note_on,75,0,0
1,note_on,68,0,0
1,note_on,64,62,0
1,note_on,64,0,320
1,note_on,68,45,0
1,note_on,75,45,0
1,note_on,71,45,0
1,note_on,71,0,320
1,note_on,75,0,0
1,note_on,68,0,0
1,note_on,64,51,0
1,note_on,64,0,320
1,note_on,101,77,0
1,note_on,99,77,0
1,note_on,99,0,240
1,note_on,101,0,0
1,note_on,89,59,0
1,note_on,89,0,240
1,note_on,87,63,0
1,note_on,89,63,0
1,note_on,89,0,240
1,note_on,87,0,0
1,note_on,77,57,0
1,note_on,77,0,240
1,note_on,89,64,0
1,note_on,87,64,0
1,note_on,87,0,240
1,note_on,89,0,0
1,note_on,89,54,0
1,note_on,89,0,240
1,note_on,99,69,0
1,note_on,101,69,0
1,note_on,101,0,240
1,note_on,99,0,0
1,note_on,89,64,0
1,note_on,89,0,240
1,note_on,95,77,0
1,note_on,99,77,0
1,note_on,99,0,240
1,note_on,95,0,0
1,note_on,88,57,0
1,note_on,88,0,240
1,note_on,87,63,0
1,note_on,83,63,0
1,note_on,83,0,240
1,note_on,87,0,0
1,note_on,76,57,0
1,note_on,76,0,240
1,note_on,83,65,0
1,note_on,87,65,0
1,note_on,87,0,240
1,note_on,83,0,0
1,note_on,88,59,0
1,note_on,88,0,240
1,note_on,99,71,0
1,note_on,95,71,0
1,note_on,95,0,240
1,note_on,99,0,0
1,note_on,88,63,0
1,note_on,88,0,240
1,note_on,101,80,0
1,note_on,99,80,0
1,note_on,99,0,240
1,note_on,101,0,0
1,note_on,89,59,0
1,note_on,89,0,240
1,note_on,87,66,0
1,note_on,89,66,0
1,note_on,89,0,240
1,note_on,87,0,0
1,note_on,77,59,0
1,note_on,77,0,240
1,note_on,89,65,0
1,note_on,87,65,0
1,note_on,87,0,240
1,note_on,89,0,0
1,note_on,89,57,0
1,note_on,89,0,240
1,note_on,99,70,0
1,note_on,101,70,0
1,note_on,101,0,240
1,note_on,99,0,0
1,note_on,89,63,0
1,note_on,89,0,240
1,note_on,95,81,0
1,note_on,99,81,0
1,note_on,99,0,240
1,note_on,95,0,0
1,note_on,88,60,0
1,note_on,88,0,240
1,note_on,87,65,0
1,note_on,83,65,0
1,note_on,83,0,240
1,note_on,87,0,0
1,note_on,76,59,0
1,note_on,76,0,240
1,note_on,83,65,0
1,note_on,87,65,0
1,note_on,87,0,240
1,note_on,83,0,0
1,note_on,88,59,0
1,note_on,88,0,240
1,note_on,99,72,0
1,note_on,95,72,0
1,note_on,95,0,240
1,note_on,99,0,0
1,note_on,88,64,0
1,note_on,88,0,240
1,note_on,92,83,0
1,note_on,96,83,0
1,note_on,99,83,0
1,note_on,99,0,240
1,note_on,96,0,0
1,note_on,92,0,0
1,note_on,89,63,0
1,note_on,89,0,240
1,note_on,80,60,0
1,note_on,87,60,0
1,note_on,84,60,0
1,note_on,84,0,240
1,note_on,87,0,0
1,note_on,80,0,0
1,note_on,77,62,0
1,note_on,77,0,240
1,note_on,80,57,0
1,note_on,84,57,0
1,note_on,87,57,0
1,note_on,87,0,240
1,note_on,84,0,0
1,note_on,80,0,0
1,note_on,89,60,0
1,note_on,89,0,240
1,note_on,92,67,0
1,note_on,99,67,0
1,note_on,96,67,0
1,note_on,96,0,240
1,note_on,99,0,0
1,note_on,92,0,0
1,note_on,89,64,0
1,note_on,89,0,240
1,note_on,91,84,0
1,note_on,94,84,0
1,note_on,98,84,0
1,note_on,98,0,240
1,note_on,94,0,0
1,note_on,91,0,0
1,note_on,87,63,0
1,note_on,87,0,240
1,note_on,79,54,0
1,note_on,86,54,0
1,note_on,82,54,0
1,note_on,82,0,240
1,note_on,86,0,0
1,note_on,79,0,0
1,note_on,75,62,0
1,note_on,75,0,240
1,note_on,79,56,0
1,note_on,82,56,0
1,note_on,86,56,0
1,note_on,86,0,240
1,note_on,82,0,0
1,note_on,79,0,0
1,note_on,87,62,0
1,note_on,87,0,240
1,note_on,91,71,0
1,note_on,98,71,0
1,note_on,94,71,0
1,note_on,94,0,240
1,note_on,98,0,0
1,note_on,91,0,0
1,note_on,87,65,0
1,note_on,87,0,240
1,note_on,87,81,0
1,note_on,94,81,0
1,note_on,92,81,0
1,note_on,92,0,240
1,note_on,94,0,0
1,note_on,87,0,0
1,note_on,83,64,0
1,note_on,83,0,240
1,note_on,75,68,0
1,note_on,80,68,0
1,note_on,82,68,0
1,note_on,82,0,240
1,note_on,80,0,0
1,note_on,75,0,0
1,note_on,71,63,0
1,note_on,71,0,240
1,note_on,75,68,0
1,note_on,82,68,0
1,note_on,80,68,0
1,note_on,80,0,240
1,note_on,82,0,0
1,note_on,75,0,0
1,note_on,83,61,0
1,note_on,83,0,240
1,note_on,87,73,0
1,note_on,92,73,0
1,note_on,94,73,0
1,note_on,94,0,240
1,note_on,92,0,0
1,note_on,87,0,0
1,note_on,83,64,0
1,note_on,83,0,240
1,note_on,86,84,0
1,note_on,91,84,0
1,note_on,91,0,240
1,note_on,86,0,0
1,note_on,82,65,0
1,note_on,82,0,240
1,note_on,74,69,0
1,note_on,79,69,0
1,note_on,79,0,240
1,note_on,74,0,0
1,note_on,70,63,0
1,note_on,70,0,240
1,note_on,74,72,0
1,note_on,79,72,0
1,note_on,79,0,240
1,note_on,74,0,0
1,note_on,82,65,0
1,note_on,82,0,240
1,note_on,86,80,0
1,note_on,91,80,0
1,note_on,91,0,240
1,note_on,86,0,0
1,note_on,82,69,0
1,note_on,82,0,240
1,note_on,79,85,0
1,note_on,84,92,0
1,note_on,84,0,240
1,note_on,79,0,0
1,note_on,75,66,0
1,note_on,75,0,240
1,note_on,67,64,0
1,note_on,72,71,0
1,note_on,72,0,240
1,note_on,67,0,0
1,note_on,63,64,0
1,note_on,63,0,240
1,note_on,77,73,0
1,note_on,82,73,0
1,note_on,82,0,240
1,note_on,77,0,0
1,note_on,74,66,0
1,note_on,74,0,240
1,note_on,65,63,0
1,note_on,70,71,0
1,note_on,70,0,240
1,note_on,65,0,0
1,note_on,62,70,0
1,note_on,62,0,240
1,note_on,79,84,0
1,note_on,84,91,0
1,note_on,84,0,240
1,note_on,79,0,0
1,note_on,75,66,0
1,note_on,75,0,240
1,note_on,67,71,0
1,note_on,72,71,0
1,note_on,72,0,240
1,note_on,67,0,0
1,note_on,63,64,0
1,note_on,63,0,240
1,note_on,89,84,0
1,note_on,82,62,0
1,note_on,86,62,0
1,note_on,86,0,240
1,note_on,82,0,0
1,note_on,89,0,0
1,note_on,77,66,0
1,note_on,77,0,240
1,note_on,86,63,0
1,note_on,89,63,0
1,note_on,94,87,0
1,note_on,94,0,240
1,note_on,89,0,0
1,note_on,86,0,0
1,note_on,82,70,0
1,note_on,82,0,240
1,note_on,91,96,0
1,note_on,87,66,0
1,note_on,84,66,0
1,note_on,84,0,240
1,note_on,87,0,0
1,note_on,91,0,0
1,note_on,82,66,0
1,note_on,82,0,240
1,note_on,72,61,0
1,note_on,75,63,0
1,note_on,79,71,0
1,note_on,79,0,240
1,note_on,75,0,0
1,note_on,72,0,0
1,note_on,70,64,0
1,note_on,70,0,240
1,note_on,89,82,0
1,note_on,82,59,0
1,note_on,86,59,0
1,note_on,86,0,240
1,note_on,82,0,0
1,note_on,89,0,0
1,note_on,77,66,0
1,note_on,77,0,240
1,note_on,86,64,0
1,note_on,89,64,0
1,note_on,94,88,0
1,note_on,94,0,240
1,note_on,89,0,0
1,note_on,86,0,0
1,note_on,82,70,0
1,note_on,82,0,240
1,note_on,91,95,0
1,note_on,87,45,0
1,note_on,86,45,0
1,note_on,86,0,240
1,note_on,87,0,0
1,note_on,91,0,0
1,note_on,84,66,0
1,note_on,84,0,240
1,note_on,74,61,0
1,note_on,75,61,0
1,note_on,79,71,0
1,note_on,79,0,240
1,note_on,75,0,0
1,note_on,74,0,0
1,note_on,72,64,0
1,note_on,72,0,240
1,note_on,87,92,0
1,note_on,84,44,0
1,note_on,82,44,0
1,note_on,82,0,240
1,note_on,84,0,0
1,note_on,87,0,0
1,note_on,79,62,0
1,note_on,79,0,240
1,note_on,70,56,0
1,note_on,72,56,0
1,note_on,75,67,0
1,note_on,75,0,240
1,note_on,72,0,0
1,note_on,70,0,0
1,note_on,67,64,0
1,note_on,67,0,240
1,note_on,89,90,0
1,note_on,87,65,0
1,note_on,84,65,0
1,note_on,84,0,240
1,note_on,87,0,0
1,note_on,89,0,0
1,note_on,80,66,0
1,note_on,80,0,240
1,note_on,72,61,0
1,note_on,75,61,0
1,note_on,77,71,0
1,note_on,77,0,240
1,note_on,75,0,0
1,note_on,72,0,0
1,note_on,68,64,0
1,note_on,68,0,240
1,note_on,84,90,0
1,note_on,80,64,0
1,note_on,77,64,0
1,note_on,77,0,240
1,note_on,80,0,0
1,note_on,84,0,0
1,note_on,75,66,0
1,note_on,75,0,240
1,note_on,65,61,0
1,note_on,68,61,0
1,note_on,72,71,0
1,note_on,72,0,240
1,note_on,68,0,0
1,note_on,65,0,0
1,note_on,63,64,0
1,note_on,63,0,240
1,note_on,70,87,0
1,note_on,68,49,0
1,note_on,65,49,0
1,note_on,65,0,240
1,note_on,68,0,0
1,note_on,70,0,0
1,note_on,62,66,0
1,note_on,62,0,240
1,note_on,68,45,0
1,note_on,70,45,0
1,note_on,74,79,0
1,note_on,74,0,240
1,note_on,70,0,0
1,note_on,68,0,0
1,note_on,65,64,0
1,note_on,65,0,240
1,note_on,77,86,0
1,note_on,74,48,0
1,note_on,70,48,0
1,note_on,70,0,240
1,note_on,74,0,0
1,note_on,77,0,0
1,note_on,68,66,0
1,note_on,68,0,240
1,note_on,74,51,0
1,note_on,77,51,0
1,note_on,82,90,0
1,note_on,82,0,240
1,note_on,77,0,0
1,note_on,74,0,0
1,note_on,70,72,0
1,note_on,70,0,240
1,note_on,79,54,0
1,note_on,84,95,0
1,note_on,84,0,240
1,note_on,79,0,0
1,note_on,75,66,0
1,note_on,75,0,240
1,note_on,67,62,0
1,note_on,72,71,0
1,note_on,72,0,240
1,note_on,67,0,0
1,note_on,63,64,0
1,note_on,63,0,240
1,note_on,89,82,0
1,note_on,82,46,0
1,note_on,86,46,0
1,note_on,86,0,240
1,note_on,82,0,0
1,note_on,89,0,0
1,note_on,77,66,0
1,note_on,77,0,240
1,note_on,86,50,0
1,note_on,89,50,0
1,note_on,94,88,0
1,note_on,94,0,240
1,note_on,89,0,0
1,note_on,86,0,0
1,note_on,82,70,0
1,note_on,82,0,240
1,note_on,91,97,0
1,note_on,87,54,0
1,note_on,84,54,0
1,note_on,84,0,240
1,note_on,87,0,0
1,note_on,91,0,0
1,note_on,82,66,0
1,note_on,82,0,240
1,note_on,72,60,0
1,note_on,75,64,0
1,note_on,79,71,0
1,note_on,79,0,240
1,note_on,75,0,0
1,note_on,72,0,0
1,note_on,70,64,0
1,note_on,70,0,240
1,note_on,89,82,0
1,note_on,82,46,0
1,note_on,86,46,0
1,note_on,86,0,240
1,note_on,82,0,0
1,note_on,89,0,0
1,note_on,77,66,0
1,note_on,77,0,240
1,note_on,86,50,0
1,note_on,89,50,0
1,note_on,94,88,0
1,note_on,94,0,240
1,note_on,89,0,0
1,note_on,86,0,0
1,note_on,82,70,0
1,note_on,82,0,240
1,note_on,68,60,0
1,note_on,72,83,0
1,note_on,67,60,0
1,note_on,67,0,240
1,note_on,72,0,0
1,note_on,68,0,0
1,note_on,65,65,0
1,note_on,65,0,240
1,note_on,70,57,0
1,note_on,74,57,0
1,note_on,75,81,0
1,note_on,75,0,240
1,note_on,74,0,0
1,note_on,70,0,0
1,note_on,67,64,0
1,note_on,67,0,240
1,note_on,77,83,0
1,note_on,75,60,0
1,note_on,72,60,0
1,note_on,72,0,240
1,note_on,75,0,0
1,note_on,77,0,0
1,note_on,68,66,0
1,note_on,68,0,240
1,note_on,74,63,0
1,note_on,77,63,0
1,note_on,80,87,0
1,note_on,80,0,240
1,note_on,77,0,0
1,note_on,74,0,0
1,note_on,72,71,0
1,note_on,72,0,240
1,note_on,75,81,0
1,note_on,79,88,0
1,note_on,74,64,0
1,note_on,74,0,240
1,note_on,79,0,0
1,note_on,75,0,0
1,note_on,71,66,0
1,note_on,71,0,240
1,note_on,75,60,0
1,note_on,79,60,0
1,note_on,80,83,0
1,note_on,80,0,240
1,note_on,79,0,0
1,note_on,75,0,0
1,note_on,72,64,0
1,note_on,72,0,240
1,note_on,84,87,0
1,note_on,80,63,0
1,note_on,79,63,0
1,note_on,79,0,240
1,note_on,80,0,0
1,note_on,84,0,0
1,note_on,77,66,0
1,note_on,77,0,240
1,note_on,84,63,0
1,note_on,86,63,0
1,note_on,89,87,0
1,note_on,89,0,240
1,note_on,86,0,0
1,note_on,84,0,0
1,note_on,80,72,0
1,note_on,80,0,240
1,note_on,92,90,0
1,note_on,87,59,0
1,note_on,87,0,240
1,note_on,92,0,0
1,note_on,80,35,0
1,note_on,94,66,0
1,note_on,94,0,240
1,note_on,80,0,0
1,note_on,87,57,0
1,note_on,92,89,0
1,note_on,92,0,240
1,note_on,87,0,0
1,note_on,80,35,0
1,note_on,94,66,0
1,note_on,94,0,240
1,note_on,80,0,0
1,note_on,92,90,0
1,note_on,87,59,0
1,note_on,87,0,240
1,note_on,92,0,0
1,note_on,80,35,0
1,note_on,94,66,0
1,note_on,94,0,240
1,note_on,80,0,0
1,note_on,87,56,0
1,note_on,92,87,0
1,note_on,92,0,240
1,note_on,87,0,0
1,note_on,80,35,0
1,note_on,94,66,0
1,note_on,94,0,240
1,note_on,80,0,0
1,note_on,92,92,0
1,note_on,87,60,0
1,note_on,87,0,240
1,note_on,92,0,0
1,note_on,80,37,0
1,note_on,94,70,0
1,note_on,94,0,240
1,note_on,80,0,0
1,note_on,87,60,0
1,note_on,92,91,0
1,note_on,92,0,240
1,note_on,87,0,0
1,note_on,80,36,0
1,note_on,94,69,0
1,note_on,94,0,240
1,note_on,80,0,0
1,note_on,92,95,0
1,note_on,87,63,0
1,note_on,87,0,240
1,note_on,92,0,0
1,note_on,80,37,0
1,note_on,94,70,0
1,note_on,94,0,240
1,note_on,80,0,0
1,note_on,87,59,0
1,note_on,92,90,0
1,note_on,92,0,240
1,note_on,87,0,0
1,note_on,80,36,0
1,note_on,94,69,0
1,note_on,94,0,240
1,note_on,80,0,0
1,note_on,89,96,0
1,note_on,87,64,0
1,note_on,87,0,240
1,note_on,89,0,0
1,note_on,80,37,0
1,note_on,94,72,0
1,note_on,94,0,240
1,note_on,80,0,0
1,note_on,87,63,0
1,note_on,89,95,0
1,note_on,89,0,240
1,note_on,87,0,0
1,note_on,80,37,0
1,note_on,94,71,0
1,note_on,94,0,240
1,note_on,80,0,0
1,note_on,89,99,0
1,note_on,87,65,0
1,note_on,87,0,240
1,note_on,89,0,0
1,note_on,80,37,0
1,note_on,94,72,0
1,note_on,94,0,240
1,note_on,80,0,0
1,note_on,87,84,0
1,note_on,89,94,0
1,note_on,89,0,240
1,note_on,87,0,0
1,note_on,80,37,0
1,note_on,94,71,0
1,note_on,94,0,240
1,note_on,80,0,0
1,note_on,89,100,0
1,note_on,87,66,0
1,note_on,87,0,240
1,note_on,89,0,0
1,note_on,80,40,0
1,note_on,94,75,0
1,note_on,94,0,240
1,note_on,80,0,0
1,note_on,87,66,0
1,note_on,89,99,0
1,note_on,89,0,240
1,note_on,87,0,0
1,note_on,80,39,0
1,note_on,94,73,0
1,note_on,94,0,240
1,note_on,80,0,0
1,note_on,89,103,0
1,note_on,87,67,0
1,note_on,87,0,240
1,note_on,89,0,0
1,note_on,80,40,0
1,note_on,94,75,0
1,note_on,94,0,240
1,note_on,80,0,0
1,note_on,87,65,0
1,note_on,89,97,0
1,note_on,89,0,240
1,note_on,87,0,0
1,note_on,80,39,0
1,note_on,94,73,0
1,note_on,94,0,240
1,note_on,80,0,0
1,note_on,104,85,0
1,note_on,104,0,120
1,note_on,103,80,0
1,note_on,103,0,120
1,note_on,101,85,0
1,note_on,101,0,120
1,note_on,99,78,0
1,note_on,99,0,120
1,note_on,98,83,0
1,note_on,98,0,120
1,note_on,96,77,0
1,note_on,96,0,120
1,note_on,94,83,0
1,note_on,94,0,120
1,note_on,92,76,0
1,note_on,92,0,120
1,note_on,91,82,0
1,note_on,91,0,120
1,note_on,89,79,0
1,note_on,89,0,120
1,note_on,87,81,0
1,note_on,87,0,120
1,note_on,86,76,0
1,note_on,86,0,120
1,note_on,84,81,0
1,note_on,84,0,120
1,note_on,82,76,0
1,note_on,82,0,120
1,note_on,80,80,0
1,note_on,80,0,120
1,note_on,79,75,0
1,note_on,79,0,120
1,note_on,77,79,0
1,note_on,77,0,120
1,note_on,75,73,0
1,note_on,75,0,120
1,note_on,74,79,0
1,note_on,74,0,120
1,note_on,72,75,0
1,note_on,72,0,120
1,note_on,70,79,0
1,note_on,70,0,120
1,note_on,68,73,0
1,note_on,68,0,120
1,note_on,67,79,0
1,note_on,67,0,120
1,note_on,65,72,0
1,note_on,65,0,120
1,note_on,63,79,0
1,note_on,63,0,120
1,note_on,62,73,0
1,note_on,62,0,120
1,note_on,60,78,0
1,note_on,60,0,120
1,note_on,58,73,0
1,note_on,58,0,120
1,note_on,56,77,0
1,note_on,56,0,120
1,note_on,55,72,0
1,note_on,55,0,120
1,note_on,53,79,0
1,note_on,53,0,120
1,note_on,51,73,0
1,note_on,51,0,120
1,note_on,50,78,0
1,note_on,50,0,120
1,note_on,48,73,0
1,note_on,48,0,120
1,note_on,46,79,0
1,note_on,46,0,120
1,note_on,44,75,0
1,note_on,44,0,120
1,note_on,43,80,0
1,note_on,43,0,120
1,note_on,41,76,0
1,note_on,41,0,120
1,note_on,39,82,0
1,note_on,39,0,120
1,note_on,38,76,0
1,note_on,38,0,120
1,note_on,36,83,0
1,note_on,36,0,120
1,note_on,34,78,0
1,note_on,34,0,120
1,note_on,32,85,0
1,note_on,32,0,120
1,note_on,31,78,0
1,note_on,31,0,120
1,note_on,29,86,0
1,note_on,29,0,120
1,note_on,27,81,0
1,note_on,27,0,120
1,note_on,26,87,0
1,note_on,26,0,120
1,note_on,24,83,0
1,note_on,24,0,360
1,note_on,87,102,240
1,note_on,82,100,0
1,note_on,79,85,0
1,note_on,75,85,0
1,note_on,75,0,317
1,note_on,87,0,0
1,note_on,82,0,0
1,note_on,79,0,0
1,note_on,63,79,3
1,note_on,58,66,0
1,note_on,58,0,317
1,note_on,63,0,0
1,note_on,87,89,3
1,note_on,82,89,0
1,note_on,79,73,0
1,note_on,75,73,0
1,note_on,75,0,317
1,note_on,87,0,0
1,note_on,82,0,0
1,note_on,79,0,0
1,note_on,63,71,3
1,note_on,58,59,0
1,note_on,58,0,317
1,note_on,63,0,0
1,note_on,87,90,3
1,note_on,82,90,0
1,note_on,79,73,0
1,note_on,75,73,0
1,note_on,75,0,317
1,note_on,87,0,0
1,note_on,82,0,0
1,note_on,79,0,0
1,note_on,63,70,3
1,note_on,58,57,0
1,note_on,58,0,317
1,note_on,63,0,0
1,note_on,89,98,3
1,note_on,86,98,0
1,note_on,82,84,0
1,note_on,77,84,0
1,note_on,77,0,317
1,note_on,89,0,0
1,note_on,86,0,0
1,note_on,82,0,0
1,note_on,65,72,3
1,note_on,62,62,0
1,note_on,62,0,317
1,note_on,65,0,0
1,note_on,89,89,3
1,note_on,86,89,0
1,note_on,82,72,0
1,note_on,77,72,0
1,note_on,77,0,317
1,note_on,89,0,0
1,note_on,86,0,0
1,note_on,82,0,0
1,note_on,65,71,3
1,note_on,62,59,0
1,note_on,62,0,317
1,note_on,65,0,0
1,note_on,89,88,3
1,note_on,86,88,0
1,note_on,82,72,0
1,note_on,77,72,0
1,note_on,77,0,317
1,note_on,89,0,0
1,note_on,86,0,0
1,note_on,82,0,0
1,note_on,65,70,3
1,note_on,62,58,0
1,note_on,62,0,317
1,note_on,65,0,0
1,note_on,91,99,3
1,note_on,87,99,0
1,note_on,82,84,0
1,note_on,79,84,0
1,note_on,79,0,317
1,note_on,91,0,0
1,note_on,87,0,0
1,note_on,82,0,0
1,note_on,67,68,3
1,note_on,75,80,0
1,note_on,70,80,0
1,note_on,70,0,317
1,note_on,75,0,0
1,note_on,67,0,0
1,note_on,91,92,3
1,note_on,87,92,0
1,note_on,82,77,0
1,note_on,79,77,0
1,note_on,79,0,317
1,note_on,91,0,0
1,note_on,87,0,0
1,note_on,82,0,0
1,note_on,87,91,3
1,note_on,84,91,0
1,note_on,79,76,0
1,note_on,75,76,0
1,note_on,75,0,317
1,note_on,87,0,0
1,note_on,84,0,0
1,note_on,79,0,0
1,note_on,72,80,3
1,note_on,67,68,0
1,note_on,63,68,0
1,note_on,63,0,317
1,note_on,67,0,0
1,note_on,72,0,0
1,note_on,87,87,3
1,note_on,84,72,0
1,note_on,91,87,0
1,note_on,79,72,0
1,note_on,79,0,317
1,note_on,87,0,0
1,note_on,84,0,0
1,note_on,91,0,0
1,note_on,89,87,3
1,note_on,86,87,0
1,note_on,82,72,0
1,note_on,77,72,0
1,note_on,77,0,317
1,note_on,89,0,0
1,note_on,86,0,0
1,note_on,82,0,0
1,note_on,58,79,3
1,note_on,62,79,0
1,note_on,62,0,314
1,note_on,58,0,0
1,note_on,65,81,6
1,note_on,62,81,0
1,note_on,62,0,314
1,note_on,65,0,0
1,note_on,65,83,6
1,note_on,70,83,0
1,note_on,70,0,314
1,note_on,65,0,0
1,note_on,74,87,6
1,note_on,70,87,0
1,note_on,70,0,314
1,note_on,74,0,0
1,note_on,74,90,6
1,note_on,77,90,0
1,note_on,77,0,314
1,note_on,74,0,0
1,note_on,67,80,6
1,note_on,75,95,0
1,note_on,79,95,0
1,note_on,79,0,475
1,note_on,75,0,0
1,note_on,67,0,0
1,note_on,70,75,5
1,note_on,75,90,0
1,note_on,82,90,0
1,note_on,82,0,475
1,note_on,75,0,0
1,note_on,70,0,0
1,note_on,65,73,5
1,note_on,70,89,0
1,note_on,77,89,0
1,note_on,77,0,475
1,note_on,70,0,0
1,note_on,65,0,0
1,note_on,63,72,5
1,note_on,70,85,0
1,note_on,75,85,0
1,note_on,75,0,475
1,note_on,70,0,0
1,note_on,63,0,0
1,note_on,74,87,5
1,note_on,70,87,0
1,note_on,62,72,0
1,note_on,62,0,317
1,note_on,70,0,0
1,note_on,74,0,0
1,note_on,58,79,3
1,note_on,62,79,0
1,note_on,62,0,317
1,note_on,58,0,0
1,note_on,65,81,3
1,note_on,62,81,0
1,note_on,62,0,314
1,note_on,65,0,0
1,note_on,65,83,6
1,note_on,70,83,0
1,note_on,70,0,314
1,note_on,65,0,0
1,note_on,74,87,6
1,note_on,70,87,0
1,note_on,70,0,314
1,note_on,74,0,0
1,note_on,74,90,6
1,note_on,77,90,0
1,note_on,77,0,314
1,note_on,74,0,0
1,note_on,67,80,6
1,note_on,75,95,0
1,note_on,79,95,0
1,note_on,79,0,475
1,note_on,75,0,0
1,note_on,67,0,0
1,note_on,70,75,5
1,note_on,75,90,0
1,note_on,82,90,0
1,note_on,82,0,475
1,note_on,75,0,0
1,note_on,70,0,0
1,note_on,65,73,5
1,note_on,70,89,0
1,note_on,77,89,0
1,note_on,77,0,475
1,note_on,70,0,0
1,note_on,65,0,0
1,note_on,63,61,5
1,note_on,70,85,0
1,note_on,75,85,0
1,note_on,75,0,475
1,note_on,70,0,0
1,note_on,63,0,0
1,note_on,74,87,5
1,note_on,70,87,0
1,note_on,62,72,0
1,note_on,62,0,317
1,note_on,70,0,0
1,note_on,74,0,0
1,note_on,58,79,3
1,note_on,62,79,0
1,note_on,62,0,314
1,note_on,58,0,0
1,note_on,67,81,6
1,note_on,62,81,0
1,note_on,62,0,314
1,note_on,67,0,0
1,note_on,68,83,6
1,note_on,65,70,0
1,note_on,70,83,0
1,note_on,70,0,314
1,note_on,65,0,0
1,note_on,68,0,0
1,note_on,68,83,6
1,note_on,74,87,0
1,note_on,70,87,0
1,note_on,70,0,314
1,note_on,74,0,0
1,note_on,68,0,0
1,note_on,70,83,6
1,note_on,74,90,0
1,note_on,77,90,0
1,note_on,77,0,314
1,note_on,74,0,0
1,note_on,70,0,0
1,note_on,87,91,6
1,note_on,80,91,0
1,note_on,75,76,0
1,note_on,75,0,317
1,note_on,80,0,0
1,note_on,87,0,0
1,note_on,63,72,3
1,note_on,56,72,0
1,note_on,51,62,0
1,note_on,51,0,317
1,note_on,56,0,0
1,note_on,63,0,0
1,note_on,87,86,3
1,note_on,80,86,0
1,note_on,75,72,0
1,note_on,75,0,317
1,note_on,80,0,0
1,note_on,87,0,0
1,note_on,86,91,3
1,note_on,80,91,0
1,note_on,74,76,0
1,note_on,74,0,475
1,note_on,80,0,0
1,note_on,86,0,0
1,note_on,70,72,5
1,note_on,75,86,0
1,note_on,82,86,0
1,note_on,82,0,475
1,note_on,75,0,0
1,note_on,70,0,0
1,note_on,84,90,5
1,note_on,75,90,0
1,note_on,72,75,0
1,note_on,72,0,317
1,note_on,75,0,0
1,note_on,84,0,0
1,note_on,63,72,3
1,note_on,56,72,0
1,note_on,51,62,0
1,note_on,51,0,317
1,note_on,56,0,0
1,note_on,63,0,0
1,note_on,84,86,3
1,note_on,75,86,0
1,note_on,72,72,0
1,note_on,72,0,317
1,note_on,75,0,0
1,note_on,84,0,0
1,note_on,80,90,3
1,note_on,75,90,0
1,note_on,68,75,0
1,note_on,68,0,475
1,note_on,75,0,0
1,note_on,80,0,0
1,note_on,72,69,5
1,note_on,75,82,0
1,note_on,84,82,0
1,note_on,84,0,475
1,note_on,75,0,0
1,note_on,72,0,0
1,note_on,70,75,5
1,note_on,75,90,0
1,note_on,82,90,0
1,note_on,82,0,475
1,note_on,75,0,0
1,note_on,70,0,0
1,note_on,58,64,5
1,note_on,63,76,0
1,note_on,70,76,0
1,note_on,70,0,475
1,note_on,63,0,0
1,note_on,58,0,0
1,note_on,68,73,5
1,note_on,70,88,0
1,note_on,80,88,0
1,note_on,80,0,475
1,note_on,70,0,0
1,note_on,68,0,0
1,note_on,67,70,5
1,note_on,70,70,0
1,note_on,79,83,0
1,note_on,79,0,475
1,note_on,70,0,0
1,note_on,67,0,0
1,note_on,65,47,5
1,note_on,72,47,0
1,note_on,75,53,0
1,note_on,77,53,0
1,note_on,77,0,317
1,note_on,65,0,0
1,note_on,72,0,0
1,note_on,75,0,0
1,note_on,65,44,3
1,note_on,72,44,0
1,note_on,75,49,0
1,note_on,77,49,0
1,note_on,77,0,317
1,note_on,65,0,0
1,note_on,72,0,0
1,note_on,75,0,0
1,note_on,65,44,3
1,note_on,72,44,0
1,note_on,75,49,0
1,note_on,77,49,0
1,note_on,77,0,317
1,note_on,65,0,0
1,note_on,72,0,0
1,note_on,75,0,0
1,note_on,65,43,3
1,note_on,72,43,0
1,note_on,75,48,0
1,note_on,77,48,0
1,note_on,77,0,317
1,note_on,65,0,0
1,note_on,72,0,0
1,note_on,75,0,0
1,note_on,65,43,3
1,note_on,72,43,0
1,note_on,75,48,0
1,note_on,77,48,0
1,note_on,77,0,317
1,note_on,65,0,0
1,note_on,72,0,0
1,note_on,75,0,0
1,note_on,65,43,3
1,note_on,72,43,0
1,note_on,75,48,0
1,note_on,77,48,0
1,note_on,77,0,317
1,note_on,65,0,0
1,note_on,72,0,0
1,note_on,75,0,0
1,note_on,67,53,3
1,note_on,70,53,0
1,note_on,74,53,0
1,note_on,79,60,0
1,note_on,79,0,317
1,note_on,67,0,0
1,note_on,70,0,0
1,note_on,74,0,0
1,note_on,67,48,3
1,note_on,70,48,0
1,note_on,74,48,0
1,note_on,79,54,0
1,note_on,79,0,317
1,note_on,67,0,0
1,note_on,70,0,0
1,note_on,74,0,0
1,note_on,67,49,3
1,note_on,70,49,0
1,note_on,74,49,0
1,note_on,79,54,0
1,note_on,79,0,317
1,note_on,67,0,0
1,note_on,70,0,0
1,note_on,74,0,0
1,note_on,67,49,3
1,note_on,70,49,0
1,note_on,75,54,0
1,note_on,79,54,0
1,note_on,79,0,317
1,note_on,67,0,0
1,note_on,70,0,0
1,note_on,75,0,0
1,note_on,67,49,3
1,note_on,70,49,0
1,note_on,75,55,0
1,note_on,79,55,0
1,note_on,79,0,317
1,note_on,67,0,0
1,note_on,70,0,0
1,note_on,75,0,0
1,note_on,67,49,3
1,note_on,70,49,0
1,note_on,75,55,0
1,note_on,79,55,0
1,note_on,79,0,317
1,note_on,67,0,0
1,note_on,70,0,0
1,note_on,75,0,0
1,note_on,82,61,3
1,note_on,70,55,0
1,note_on,73,55,0
1,note_on,79,61,0
1,note_on,79,0,317
1,note_on,82,0,0
1,note_on,70,0,0
1,note_on,73,0,0
1,note_on,82,56,3
1,note_on,70,51,0
1,note_on,73,51,0
1,note_on,79,56,0
1,note_on,79,0,317
1,note_on,82,0,0
1,note_on,70,0,0
1,note_on,73,0,0
1,note_on,82,57,3
1,note_on,70,51,0
1,note_on,73,51,0
1,note_on,79,57,0
1,note_on,79,0,317
1,note_on,82,0,0
1,note_on,70,0,0
1,note_on,73,0,0
1,note_on,68,56,3
1,note_on,71,56,0
1,note_on,75,56,0
1,note_on,80,63,0
1,note_on,80,0,317
1,note_on,68,0,0
1,note_on,71,0,0
1,note_on,75,0,0
1,note_on,68,52,3
1,note_on,71,52,0
1,note_on,75,52,0
1,note_on,80,58,0
1,note_on,80,0,317
1,note_on,68,0,0
1,note_on,71,0,0
1,note_on,75,0,0
1,note_on,68,52,3
1,note_on,71,52,0
1,note_on,75,52,0
1,note_on,80,59,0
1,note_on,80,0,317
1,note_on,68,0,0
1,note_on,71,0,0
1,note_on,75,0,0
1,note_on,68,58,3
1,note_on,75,58,0
1,note_on,80,67,0
1,note_on,80,0,317
1,note_on,75,0,0
1,note_on,68,0,0
1,note_on,68,58,3
1,note_on,75,58,0
1,note_on,80,67,0
1,note_on,80,0,317
1,note_on,75,0,0
1,note_on,68,0,0
1,note_on,68,59,3
1,note_on,75,59,0
1,note_on,80,67,0
1,note_on,80,0,317
1,note_on,75,0,0
1,note_on,68,0,0
1,note_on,68,58,3
1,note_on,74,58,0
1,note_on,80,63,0
1,note_on,80,0,317
1,note_on,74,0,0
1,note_on,68,0,0
1,note_on,68,58,3
1,note_on,74,58,0
1,note_on,80,64,0
1,note_on,80,0,317
1,note_on,74,0,0
1,note_on,68,0,0
1,note_on,68,59,3
1,note_on,74,59,0
1,note_on,80,64,0
1,note_on,80,0,317
1,note_on,74,0,0
1,note_on,68,0,0
1,note_on,68,64,3
1,note_on,73,64,0
1,note_on,80,64,0
1,note_on,80,0,317
1,note_on,73,0,0
1,note_on,68,0,0
1,note_on,68,64,3
1,note_on,73,64,0
1,note_on,80,64,0
1,note_on,80,0,317
1,note_on,73,0,0
1,note_on,68,0,0
1,note_on,68,61,3
1,note_on,73,61,0
1,note_on,80,61,0
1,note_on,80,0,317
1,note_on,73,0,0
1,note_on,68,0,0
1,note_on,67,69,3
1,note_on,73,69,0
1,note_on,79,69,0
1,note_on,79,0,317
1,note_on,73,0,0
1,note_on,67,0,0
1,note_on,67,65,3
1,note_on,73,65,0
1,note_on,79,65,0
1,note_on,79,0,317
1,note_on,73,0,0
1,note_on,67,0,0
1,note_on,67,64,3
1,note_on,73,64,0
1,note_on,79,64,0
1,note_on,79,0,317
1,note_on,73,0,0
1,note_on,67,0,0
1,note_on,66,68,3
1,note_on,73,68,0
1,note_on,78,76,0
1,note_on,78,0,317
1,note_on,73,0,0
1,note_on,66,0,0
1,note_on,66,61,3
1,note_on,73,61,0
1,note_on,78,68,0
1,note_on,78,0,317
1,note_on,73,0,0
1,note_on,66,0,0
1,note_on,66,62,3
1,note_on,73,62,0
1,note_on,78,69,0
1,note_on,78,0,317
1,note_on,73,0,0
1,note_on,66,0,0
1,note_on,65,70,3
1,note_on,72,80,0
1,note_on,77,80,0
1,note_on,77,0,317
1,note_on,72,0,0
1,note_on,65,0,0
1,note_on,65,65,3
1,note_on,72,73,0
1,note_on,77,73,0
1,note_on,77,0,317
1,note_on,72,0,0
1,note_on,65,0,0
1,note_on,65,66,3
1,note_on,75,74,0
1,note_on,77,74,0
1,note_on,77,0,317
1,note_on,75,0,0
1,note_on,65,0,0
1,note_on,89,83,3
1,note_on,87,83,0
1,note_on,82,73,0
1,note_on,77,73,0
1,note_on,77,0,317
1,note_on,89,0,0
1,note_on,87,0,0
1,note_on,82,0,0
1,note_on,77,72,3
1,note_on,75,72,0
1,note_on,70,65,0
1,note_on,65,65,0
1,note_on,65,0,317
1,note_on,77,0,0
1,note_on,75,0,0
1,note_on,70,0,0
1,note_on,89,77,3
1,note_on,87,77,0
1,note_on,82,69,0
1,note_on,77,69,0
1,note_on,77,0,317
1,note_on,89,0,0
1,note_on,87,0,0
1,note_on,82,0,0
1,note_on,65,65,3
1,note_on,68,65,0
1,note_on,75,72,0
1,note_on,77,72,0
1,note_on,77,0,317
1,note_on,65,0,0
1,note_on,68,0,0
1,note_on,75,0,0
1,note_on,77,69,3
1,note_on,80,69,0
1,note_on,87,77,0
1,note_on,89,77,0
1,note_on,89,0,317
1,note_on,77,0,0
1,note_on,80,0,0
1,note_on,87,0,0
1,note_on,65,65,3
1,note_on,68,65,0
1,note_on,75,72,0
1,note_on,77,72,0
1,note_on,77,0,317
1,note_on,65,0,0
1,note_on,68,0,0
1,note_on,75,0,0
1,note_on,89,83,3
1,note_on,87,83,0
1,note_on,82,73,0
1,note_on,77,73,0
1,note_on,77,0,317
1,note_on,89,0,0
1,note_on,87,0,0
1,note_on,82,0,0
1,note_on,77,72,3
1,note_on,75,72,0
1,note_on,70,65,0
1,note_on,65,65,0
1,note_on,65,0,317
1,note_on,77,0,0
1,note_on,75,0,0
1,note_on,70,0,0
1,note_on,89,77,3
1,note_on,87,77,0
1,note_on,82,69,0
1,note_on,77,69,0
1,note_on,77,0,317
1,note_on,89,0,0
1,note_on,87,0,0
1,note_on,82,0,0
1,note_on,65,65,3
1,note_on,71,65,0
1,note_on,75,72,0
1,note_on,77,72,0
1,note_on,77,0,317
1,note_on,65,0,0
1,note_on,71,0,0
1,note_on,75,0,0
1,note_on,77,69,3
1,note_on,83,69,0
1,note_on,87,77,0
1,note_on,89,77,0
1,note_on,89,0,317
1,note_on,77,0,0
1,note_on,83,0,0
1,note_on,87,0,0
1,note_on,65,65,3
1,note_on,71,65,0
1,note_on,75,72,0
1,note_on,77,72,0
1,note_on,77,0,317
1,note_on,65,0,0
1,note_on,71,0,0
1,note_on,75,0,0
1,note_on,89,83,3
1,note_on,87,83,0
1,note_on,82,73,0
1,note_on,77,73,0
1,note_on,77,0,317
1,note_on,89,0,0
1,note_on,87,0,0
1,note_on,82,0,0
1,note_on,77,72,3
1,note_on,75,72,0
1,note_on,70,65,0
1,note_on,65,65,0
1,note_on,65,0,317
1,note_on,77,0,0
1,note_on,75,0,0
1,note_on,70,0,0
1,note_on,89,77,3
1,note_on,87,77,0
1,note_on,82,69,0
1,note_on,77,69,0
1,note_on,77,0,317
1,note_on,89,0,0
1,note_on,87,0,0
1,note_on,82,0,0
1,note_on,65,67,3
1,note_on,69,67,0
1,note_on,75,73,0
1,note_on,77,73,0
1,note_on,77,0,317
1,note_on,65,0,0
1,note_on,69,0,0
1,note_on,75,0,0
1,note_on,77,72,3
1,note_on,81,72,0
1,note_on,87,82,0
1,note_on,89,82,0
1,note_on,89,0,317
1,note_on,77,0,0
1,note_on,81,0,0
1,note_on,87,0,0
1,note_on,65,69,3
1,note_on,69,69,0
1,note_on,75,76,0
1,note_on,77,76,0
1,note_on,77,0,317
1,note_on,65,0,0
1,note_on,69,0,0
1,note_on,75,0,0
1,note_on,89,90,3
1,note_on,87,90,0
1,note_on,82,80,0
1,note_on,77,80,0
1,note_on,77,0,317
1,note_on,89,0,0
1,note_on,87,0,0
1,note_on,82,0,0
1,note_on,77,80,3
1,note_on,75,80,0
1,note_on,70,70,0
1,note_on,65,70,0
1,note_on,65,0,317
1,note_on,77,0,0
1,note_on,75,0,0
1,note_on,70,0,0
1,note_on,89,86,3
1,note_on,87,86,0
1,note_on,82,77,0
1,note_on,77,77,0
1,note_on,77,0,317
1,note_on,89,0,0
1,note_on,87,0,0
1,note_on,82,0,0
1,note_on,65,72,3
1,note_on,72,72,0
1,note_on,75,82,0
1,note_on,77,82,0
1,note_on,77,0,317
1,note_on,65,0,0
1,note_on,72,0,0
1,note_on,75,0,0
1,note_on,77,80,3
1,note_on,84,80,0
1,note_on,87,89,0
1,note_on,89,89,0
1,note_on,89,0,317
1,note_on,77,0,0
1,note_on,84,0,0
1,note_on,87,0,0
1,note_on,65,75,3
1,note_on,72,75,0
1,note_on,75,84,0
1,note_on,77,84,0
1,note_on,77,0,317
1,note_on,65,0,0
1,note_on,72,0,0
1,note_on,75,0,0
1,note_on,91,106,3
1,note_on,87,106,0
1,note_on,79,95,0
1,note_on,79,0,640
1,note_on,87,0,0
1,note_on,91,0,0
1,note_on,79,97,0
1,note_on,75,97,0
1,note_on,67,87,0
1,note_on,67,0,640
1,note_on,75,0,0
1,note_on,79,0,0
1,note_on,55,80,0
1,note_on,63,90,0
1,note_on,67,90,0
1,note_on,67,0,640
1,note_on,63,0,0
1,note_on,55,0,0
1,note_on,59,81,0
1,note_on,63,81,0
1,note_on,66,88,0
1,note_on,71,88,0
1,note_on,71,0,480
1,note_on,59,0,0
1,note_on,63,0,0
1,note_on,66,0,0
1,note_on,61,75,0
1,note_on,66,75,0
1,note_on,70,85,0
1,note_on,73,85,0
1,note_on,73,0,480
1,note_on,61,0,0
1,note_on,66,0,0
1,note_on,70,0,0
1,note_on,91,106,0
1,note_on,87,106,0
1,note_on,79,95,0
1,note_on,79,0,640
1,note_on,87,0,0
1,note_on,91,0,0
1,note_on,79,97,0
1,note_on,75,97,0
1,note_on,67,87,0
1,note_on,67,0,640
1,note_on,75,0,0
1,note_on,79,0,0
1,note_on,55,80,0
1,note_on,63,90,0
1,note_on,67,90,0
1,note_on,67,0,640
1,note_on,63,0,0
1,note_on,55,0,0
1,note_on,60,81,0
1,note_on,63,81,0
1,note_on,67,88,0
1,note_on,72,88,0
1,note_on,72,0,480
1,note_on,60,0,0
1,note_on,63,0,0
1,note_on,67,0,0
1,note_on,62,75,0
1,note_on,65,75,0
1,note_on,70,85,0
1,note_on,74,85,0
1,note_on,74,0,480
1,note_on,62,0,0
1,note_on,65,0,0
1,note_on,70,0,0
1,note_on,51,105,0
1,note_on,63,83,120
1,note_on,67,83,0
1,note_on,70,99,0
1,note_on,75,99,0
1,note_on,75,0,1680
1,note_on,67,0,0
1,note_on,51,0,0
1,note_on,63,0,0
1,note_on,70,0,0
1,note_on,51,95,0
1,note_on,65,77,120
1,note_on,70,77,0
1,note_on,74,92,0
1,note_on,77,92,0
1,note_on,77,0,1800
1,note_on,70,0,0
1,note_on,51,0,0
1,note_on,65,0,0
1,note_on,74,0,0
1,note_on,51,95,0
1,note_on,67,83,120
1,note_on,70,83,0
1,note_on,75,99,0
1,note_on,79,99,0
1,note_on,79,0,1920
1,note_on,70,0,0
1,note_on,51,0,0
1,note_on,67,0,0
1,note_on,75,0,0
1,note_on,63,79,0
1,note_on,67,79,0
1,note_on,72,94,0
1,note_on,75,94,0
1,note_on,75,0,960
1,note_on,63,0,0
1,note_on,67,0,0
1,note_on,72,0,0
1,note_on,72,72,0
1,note_on,75,86,0
1,note_on,67,72,0
1,note_on,79,86,0
1,note_on,79,0,960
1,note_on,72,0,0
1,note_on,75,0,0
1,note_on,67,0,0
1,note_on,65,73,0
1,note_on,70,73,0
1,note_on,74,89,0
1,note_on,77,89,0
1,note_on,77,0,1920
1,note_on,65,0,0
1,note_on,70,0,0
1,note_on,74,0,0
1,note_on,58,81,0
1,note_on,70,95,0
1,note_on,70,0,1800
1,note_on,58,0,0
1,note_on,63,99,0
1,note_on,60,99,0
1,note_on,60,0,120
1,note_on,63,0,0
1,note_on,68,81,0
1,note_on,72,81,0
1,note_on,75,97,0
1,note_on,80,97,0
1,note_on,80,0,1800
1,note_on,68,0,0
1,note_on,72,0,0
1,note_on,75,0,0
1,note_on,67,92,0
1,note_on,62,92,0
1,note_on,62,0,120
1,note_on,67,0,0
1,note_on,70,81,0
1,note_on,74,81,0
1,note_on,79,97,0
1,note_on,82,97,0
1,note_on,82,0,1800
1,note_on,70,0,0
1,note_on,74,0,0
1,note_on,79,0,0
1,note_on,63,92,0
1,note_on,67,92,0
1,note_on,67,0,120
1,note_on,63,0,0
1,note_on,79,89,0
1,note_on,82,89,0
1,note_on,87,108,0
1,note_on,91,108,0
1,note_on,91,0,960
1,note_on,79,0,0
1,note_on,82,0,0
1,note_on,87,0,0
1,note_on,63,84,0
1,note_on,67,84,0
1,note_on,70,99,0
1,note_on,70,0,960
1,note_on,67,0,0
1,note_on,63,0,0
1,note_on,79,89,0
1,note_on,82,89,0
1,note_on,87,108,0
1,note_on,91,108,0
1,note_on,91,0,960
1,note_on,79,0,0
1,note_on,82,0,0
1,note_on,87,0,0
1,note_on,63,84,0
1,note_on,67,85,0
1,note_on,70,99,0
1,note_on,70,0,960
1,note_on,67,0,0
1,note_on,63,0,0
1,note_on,51,95,0
1,note_on,63,108,0
1,note_on,63,0,3840
1,note_on,51,0,0
1,note_on,51,110,0
1,note_on,51,0,1440
2,note_on,42,74,1
2,note_on,42,0,239
2,note_on,43,77,240
2,note_on,31,65,0
2,note_on,31,0,480
2,note_on,43,0,0
2,note_on,42,69,960
2,note_on,42,0,120
2,note_on,42,66,120
2,note_on,42,0,120
2,note_on,31,63,120
2,note_on,43,74,0
2,note_on,43,0,480
2,note_on,31,0,0
2,note_on,41,72,960
2,note_on,41,0,240
2,note_on,32,63,240
2,note_on,44,75,0
2,note_on,44,0,240
2,note_on,32,0,0
2,note_on,43,70,0
2,note_on,31,59,0
2,note_on,31,0,240
2,note_on,43,0,0
2,note_on,41,68,960
2,note_on,41,0,120
2,note_on,41,65,120
2,note_on,41,0,120
2,note_on,32,60,120
2,note_on,44,71,0
2,note_on,44,0,240
2,note_on,32,0,0
2,note_on,43,68,0
2,note_on,31,57,0
2,note_on,31,0,180
2,note_on,43,0,0
2,note_on,44,72,60
2,note_on,32,61,0
2,note_on,32,0,240
2,note_on,44,0,0
2,note_on,31,56,0
2,note_on,43,67,0
2,note_on,43,0,180
2,note_on,31,0,0
2,note_on,31,68,540
2,note_on,43,68,0
2,note_on,43,0,480
2,note_on,31,0,0
2,note_on,43,65,0
2,note_on,31,65,0
2,note_on,31,0,480
2,note_on,43,0,0
2,note_on,31,75,0
2,note_on,43,75,0
2,note_on,43,0,120
2,note_on,31,0,0
2,note_on,44,68,120
2,note_on,44,0,120
2,note_on,43,66,120
2,note_on,53,61,240
2,note_on,53,0,120
2,note_on,43,0,120
2,note_on,43,68,0
2,note_on,31,57,0
2,note_on,31,0,480
2,note_on,43,0,0
2,note_on,43,66,0
2,note_on,31,55,0
2,note_on,31,0,480
2,note_on,43,0,0
2,note_on,31,63,0
2,note_on,43,75,0
2,note_on,43,0,240
2,note_on,31,0,0
2,note_on,44,66,0
2,note_on,44,0,240
2,note_on,43,66,0
2,note_on,49,61,240
2,note_on,49,0,120
2,note_on,43,0,120
2,note_on,43,71,0
2,note_on,31,60,0
2,note_on,31,0,240
2,note_on,43,0,0
2,note_on,44,64,0
2,note_on,44,0,240
2,note_on,43,67,0
2,note_on,53,60,240
2,note_on,53,0,120
2,note_on,43,0,120
2,note_on,31,55,0
2,note_on,43,66,0
2,note_on,43,0,240
2,note_on,31,0,0
2,note_on,44,61,0
2,note_on,44,0,240
2,note_on,43,66,0
2,note_on,49,61,240
2,note_on,49,0,240
2,note_on,43,0,0
2,note_on,31,56,0
2,note_on,43,67,0
2,note_on,43,0,480
2,note_on,31,0,0
2,note_on,43,65,0
2,note_on,31,55,0
2,note_on,31,0,480
2,note_on,43,0,0
2,note_on,31,56,0
2,note_on,43,67,0
2,note_on,43,0,480
2,note_on,31,0,0
2,note_on,43,63,0
2,note_on,31,54,0
2,note_on,31,0,480
2,note_on,43,0,0
2,note_on,31,47,0
2,note_on,43,56,0
2,note_on,43,0,120
2,note_on,31,0,0
2,note_on,36,44,120
2,note_on,48,52,0
2,note_on,48,0,120
2,note_on,36,0,0
2,note_on,44,67,120
2,note_on,32,56,0
2,note_on,32,0,120
2,note_on,44,0,0
2,note_on,49,58,120
2,note_on,37,49,0
2,note_on,37,0,120
2,note_on,49,0,0
2,note_on,33,48,120
2,note_on,45,57,0
2,note_on,45,0,120
2,note_on,33,0,0
2,note_on,50,56,120
2,note_on,38,47,0
2,note_on,38,0,120
2,note_on,50,0,0
2,note_on,34,53,120
2,note_on,46,63,0
2,note_on,46,0,120
2,note_on,34,0,0
2,note_on,51,55,120
2,note_on,39,46,0
2,note_on,39,0,120
2,note_on,51,0,0
2,note_on,31,50,120
2,note_on,43,59,0
2,note_on,43,0,120
2,note_on,31,0,0
2,note_on,36,45,120
2,note_on,48,54,0
2,note_on,48,0,120
2,note_on,36,0,0
2,note_on,44,70,120
2,note_on,32,59,0
2,note_on,32,0,120
2,note_on,44,0,0
2,note_on,49,61,120
2,note_on,37,51,0
2,note_on,37,0,120
2,note_on,49,0,0
2,note_on,33,50,120
2,note_on,45,60,0
2,note_on,45,0,120
2,note_on,33,0,0
2,note_on,38,50,120
2,note_on,50,59,0
2,note_on,50,0,120
2,note_on,38,0,0
2,note_on,46,68,120
2,note_on,34,58,0
2,note_on,34,0,120
2,note_on,46,0,0
2,note_on,39,59,120
2,note_on,51,59,0
2,note_on,51,0,120
2,note_on,39,0,0
2,note_on,43,61,120
2,note_on,31,51,0
2,note_on,31,0,120
2,note_on,43,0,0
2,note_on,36,46,120
2,note_on,48,55,0
2,note_on,48,0,120
2,note_on,36,0,0
2,note_on,44,72,120
2,note_on,32,61,0
2,note_on,32,0,120
2,note_on,44,0,0
2,note_on,49,63,120
2,note_on,37,53,0
2,note_on,37,0,120
2,note_on,49,0,0
2,note_on,33,52,120
2,note_on,45,62,0
2,note_on,45,0,120
2,note_on,33,0,0
2,note_on,38,52,120
2,note_on,50,62,0
2,note_on,50,0,120
2,note_on,38,0,0
2,note_on,46,70,120
2,note_on,34,59,0
2,note_on,34,0,120
2,note_on,46,0,0
2,note_on,39,61,120
2,note_on,51,61,0
2,note_on,51,0,120
2,note_on,39,0,0
2,note_on,43,65,120
2,note_on,31,55,0
2,note_on,31,0,120
2,note_on,43,0,0
2,note_on,36,50,120
2,note_on,48,59,0
2,note_on,48,0,120
2,note_on,36,0,0
2,note_on,44,79,120
2,note_on,32,66,0
2,note_on,32,0,120
2,note_on,44,0,0
2,note_on,37,57,120
2,note_on,49,68,0
2,note_on,49,0,120
2,note_on,37,0,0
2,note_on,45,70,120
2,note_on,33,59,0
2,note_on,33,0,120
2,note_on,45,0,0
2,note_on,38,55,120
2,note_on,50,66,0
2,note_on,50,0,120
2,note_on,38,0,0
2,note_on,46,77,120
2,note_on,34,64,0
2,note_on,34,0,120
2,note_on,46,0,0
2,note_on,39,56,120
2,note_on,51,67,0
2,note_on,51,0,120
2,note_on,39,0,0
2,note_on,31,61,120
2,note_on,43,72,0
2,note_on,43,0,120
2,note_on,31,0,0
2,note_on,48,66,120
2,note_on,36,55,0
2,note_on,36,0,120
2,note_on,48,0,0
2,note_on,44,69,120
2,note_on,32,58,0
2,note_on,32,0,120
2,note_on,44,0,0
2,note_on,49,63,120
2,note_on,37,54,0
2,note_on,37,0,120
2,note_on,49,0,0
2,note_on,33,61,120
2,note_on,45,72,0
2,note_on,45,0,120
2,note_on,33,0,0
2,note_on,38,55,120
2,note_on,50,65,0
2,note_on,50,0,120
2,note_on,38,0,0
2,note_on,46,70,120
2,note_on,34,59,0
2,note_on,34,0,120
2,note_on,46,0,0
2,note_on,39,54,120
2,note_on,51,63,0
2,note_on,51,0,120
2,note_on,39,0,0
2,note_on,43,61,120
2,note_on,31,61,0
2,note_on,31,0,120
2,note_on,43,0,0
2,note_on,36,55,120
2,note_on,48,66,0
2,note_on,48,0,120
2,note_on,36,0,0
2,note_on,44,69,120
2,note_on,32,58,0
2,note_on,32,0,120
2,note_on,44,0,0
2,note_on,37,54,120
2,note_on,49,63,0
2,note_on,49,0,120
2,note_on,37,0,0
2,note_on,45,72,120
2,note_on,33,61,0
2,note_on,33,0,120
2,note_on,45,0,0
2,note_on,38,55,120
2,note_on,50,65,0
2,note_on,50,0,120
2,note_on,38,0,0
2,note_on,46,70,120
2,note_on,34,59,0
2,note_on,34,0,120
2,note_on,46,0,0
2,note_on,39,54,120
2,note_on,51,63,0
2,note_on,51,0,120
2,note_on,39,0,0
2,note_on,31,61,120
2,note_on,43,72,0
2,note_on,43,0,120
2,note_on,31,0,0
2,note_on,48,66,120
2,note_on,36,55,0
2,note_on,36,0,120
2,note_on,48,0,0
2,note_on,44,69,120
2,note_on,32,58,0
2,note_on,32,0,120
2,note_on,44,0,0
2,note_on,37,54,120
2,note_on,49,63,0
2,note_on,49,0,120
2,note_on,37,0,0
2,note_on,45,72,120
2,note_on,33,61,0
2,note_on,33,0,120
2,note_on,45,0,0
2,note_on,38,55,120
2,note_on,50,65,0
2,note_on,50,0,120
2,note_on,38,0,0
2,note_on,46,70,120
2,note_on,34,59,0
2,note_on,34,0,120
2,note_on,46,0,0
2,note_on,39,54,120
2,note_on,51,63,0
2,note_on,51,0,120
2,note_on,39,0,0
2,note_on,31,63,120
2,note_on,43,76,0
2,note_on,43,0,120
2,note_on,31,0,0
2,note_on,48,66,120
2,note_on,36,55,0
2,note_on,36,0,120
2,note_on,48,0,0
2,note_on,44,72,120
2,note_on,32,61,0
2,note_on,32,0,120
2,note_on,44,0,0
2,note_on,37,54,120
2,note_on,49,63,0
2,note_on,49,0,120
2,note_on,37,0,0
2,note_on,33,63,120
2,note_on,45,75,0
2,note_on,45,0,120
2,note_on,33,0,0
2,note_on,50,65,120
2,note_on,38,55,0
2,note_on,38,0,120
2,note_on,50,0,0
2,note_on,34,62,120
2,note_on,46,72,0
2,note_on,46,0,120
2,note_on,34,0,0
2,note_on,51,63,120
2,note_on,39,54,0
2,note_on,39,0,120
2,note_on,51,0,0
2,note_on,31,59,120
2,note_on,43,70,0
2,note_on,43,0,240
2,note_on,31,0,0
2,note_on,42,65,0
2,note_on,42,0,240
2,note_on,31,59,0
2,note_on,43,70,0
2,note_on,43,0,240
2,note_on,31,0,0
2,note_on,42,65,0
2,note_on,42,0,240
2,note_on,43,70,0
2,note_on,31,59,0
2,note_on,31,0,240
2,note_on,43,0,0
2,note_on,42,65,0
2,note_on,42,0,240
2,note_on,31,59,0
2,note_on,43,70,0
2,note_on,43,0,240
2,note_on,31,0,0
2,note_on,42,65,0
2,note_on,42,0,240
2,note_on,31,59,0
2,note_on,43,70,0
2,note_on,43,0,240
2,note_on,31,0,0
2,note_on,42,67,0
2,note_on,42,0,240
2,note_on,43,70,0
2,note_on,31,59,0
2,note_on,31,0,240
2,note_on,43,0,0
2,note_on,42,67,0
2,note_on,42,0,240
2,note_on,36,61,0
2,note_on,48,72,0
2,note_on,48,0,240
2,note_on,36,0,0
2,note_on,46,71,0
2,note_on,34,60,0
2,note_on,34,0,240
2,note_on,46,0,0
2,note_on,33,59,0
2,note_on,45,70,0
2,note_on,45,0,240
2,note_on,33,0,0
2,note_on,32,58,0
2,note_on,44,69,0
2,note_on,44,0,240
2,note_on,32,0,0
2,note_on,43,70,0
2,note_on,31,59,0
2,note_on,31,0,240
2,note_on,43,0,0
2,note_on,42,65,0
2,note_on,42,0,240
2,note_on,31,59,0
2,note_on,43,70,0
2,note_on,43,0,240
2,note_on,31,0,0
2,note_on,42,65,0
2,note_on,42,0,240
2,note_on,31,59,0
2,note_on,43,70,0
2,note_on,43,0,240
2,note_on,31,0,0
2,note_on,42,65,0
2,note_on,42,0,240
2,note_on,43,70,0
2,note_on,31,59,0
2,note_on,31,0,240
2,note_on,43,0,0
2,note_on,42,65,0
2,note_on,42,0,240
2,note_on,43,70,0
2,note_on,31,59,0
2,note_on,31,0,240
2,note_on,43,0,0
2,note_on,42,67,0
2,note_on,42,0,240
2,note_on,43,70,0
2,note_on,31,59,0
2,note_on,31,0,240
2,note_on,43,0,0
2,note_on,42,67,0
2,note_on,42,0,240
2,note_on,36,61,0
2,note_on,48,72,0
2,note_on,48,0,240
2,note_on,36,0,0
2,note_on,47,71,0
2,note_on,35,60,0
2,note_on,35,0,240
2,note_on,47,0,0
2,note_on,46,70,0
2,note_on,34,59,0
2,note_on,34,0,240
2,note_on,46,0,0
2,note_on,45,69,0
2,note_on,33,58,0
2,note_on,33,0,240
2,note_on,45,0,0
2,note_on,66,70,0
2,note_on,48,50,480
2,note_on,60,59,0
2,note_on,60,0,480
2,note_on,48,0,0
2,note_on,48,63,0
2,note_on,36,54,0
2,note_on,36,0,480
2,note_on,48,0,0
2,note_on,60,60,0
2,note_on,48,50,0
2,note_on,48,0,480
2,note_on,60,0,0
2,note_on,66,0,0
2,note_on,70,70,0
2,note_on,55,59,480
2,note_on,43,50,0
2,note_on,43,0,480
2,note_on,55,0,0
2,note_on,43,54,0
2,note_on,31,54,0
2,note_on,31,0,480
2,note_on,43,0,0
2,note_on,55,60,0
2,note_on,43,50,0
2,note_on,43,0,480
2,note_on,55,0,0
2,note_on,70,0,0
2,note_on,66,70,0
2,note_on,60,59,480
2,note_on,48,50,0
2,note_on,48,0,480
2,note_on,60,0,0
2,note_on,36,54,0
2,note_on,48,63,0
2,note_on,48,0,480
2,note_on,36,0,0
2,note_on,60,60,0
2,note_on,48,50,0
2,note_on,48,0,480
2,note_on,60,0,0
2,note_on,66,0,0
2,note_on,70,70,0
2,note_on,55,59,480
2,note_on,43,50,0
2,note_on,43,0,480
2,note_on,55,0,0
2,note_on,43,63,0
2,note_on,31,54,0
2,note_on,31,0,480
2,note_on,43,0,0
2,note_on,43,50,0
2,note_on,55,60,0
2,note_on,55,0,480
2,note_on,43,0,0
2,note_on,70,0,0
2,note_on,66,70,0
2,note_on,45,50,480
2,note_on,57,59,0
2,note_on,57,0,480
2,note_on,45,0,0
2,note_on,33,54,0
2,note_on,45,63,0
2,note_on,45,0,480
2,note_on,33,0,0
2,note_on,45,50,0
2,note_on,57,60,0
2,note_on,57,0,480
2,note_on,45,0,0
2,note_on,66,0,0
2,note_on,70,70,0
2,note_on,40,50,480
2,note_on,52,59,0
2,note_on,52,0,480
2,note_on,40,0,0
2,note_on,28,54,0
2,note_on,40,63,0
2,note_on,40,0,480
2,note_on,28,0,0
2,note_on,52,60,0
2,note_on,40,50,0
2,note_on,40,0,480
2,note_on,52,0,0
2,note_on,70,0,0
2,note_on,66,70,0
2,note_on,45,50,480
2,note_on,57,59,0
2,note_on,57,0,480
2,note_on,45,0,0
2,note_on,45,63,0
2,note_on,33,54,0
2,note_on,33,0,480
2,note_on,45,0,0
2,note_on,57,60,0
2,note_on,45,50,0
2,note_on,45,0,480
2,note_on,57,0,0
2,note_on,66,0,0
2,note_on,72,70,0
2,note_on,52,59,480
2,note_on,40,50,0
2,note_on,40,0,480
2,note_on,52,0,0
2,note_on,28,54,0
2,note_on,40,63,0
2,note_on,40,0,480
2,note_on,28,0,0
2,note_on,40,50,0
2,note_on,52,60,0
2,note_on,52,0,480
2,note_on,40,0,0
2,note_on,72,0,0
2,note_on,31,57,0
2,note_on,43,68,0
2,note_on,43,0,240
2,note_on,31,0,0
2,note_on,79,66,240
2,note_on,79,0,240
2,note_on,74,60,0
2,note_on,74,0,240
2,note_on,75,65,0
2,note_on,75,0,240
2,note_on,74,60,0
2,note_on,74,0,240
2,note_on,70,65,0
2,note_on,70,0,240
2,note_on,67,60,0
2,note_on,67,0,240
2,note_on,68,64,0
2,note_on,68,0,240
2,note_on,75,58,0
2,note_on,75,0,240
2,note_on,71,62,0
2,note_on,71,0,240
2,note_on,75,58,0
2,note_on,75,0,240
2,note_on,74,63,0
2,note_on,74,0,240
2,note_on,67,61,240
2,note_on,67,0,240
2,note_on,67,68,240
2,note_on,55,57,0
2,note_on,55,0,480
2,note_on,67,0,0
2,note_on,55,55,0
2,note_on,67,66,0
2,note_on,67,0,240
2,note_on,55,0,0
2,note_on,50,50,0
2,note_on,62,60,0
2,note_on,62,0,240
2,note_on,50,0,0
2,note_on,63,65,0
2,note_on,51,55,0
2,note_on,51,0,240
2,note_on,63,0,0
2,note_on,50,50,0
2,note_on,62,60,0
2,note_on,62,0,240
2,note_on,50,0,0
2,note_on,46,55,0
2,note_on,58,65,0
2,note_on,58,0,240
2,note_on,46,0,0
2,note_on,55,60,0
2,note_on,43,50,0
2,note_on,43,0,240
2,note_on,55,0,0
2,note_on,56,64,0
2,note_on,44,54,0
2,note_on,44,0,240
2,note_on,56,0,0
2,note_on,63,58,0
2,note_on,51,49,0
2,note_on,51,0,240
2,note_on,63,0,0
2,note_on,47,52,0
2,note_on,59,62,0
2,note_on,59,0,240
2,note_on,47,0,0
2,note_on,51,49,0
2,note_on,63,58,0
2,note_on,63,0,240
2,note_on,51,0,0
2,note_on,62,63,0
2,note_on,50,54,0
2,note_on,50,0,240
2,note_on,62,0,0
2,note_on,43,51,240
2,note_on,55,61,0
2,note_on,55,0,240
2,note_on,43,0,0
2,note_on,55,68,240
2,note_on,43,57,0
2,note_on,43,0,480
2,note_on,55,0,0
2,note_on,55,66,0
2,note_on,43,55,0
2,note_on,43,0,240
2,note_on,55,0,0
2,note_on,38,50,0
2,note_on,50,60,0
2,note_on,50,0,240
2,note_on,38,0,0
2,note_on,39,55,0
2,note_on,51,65,0
2,note_on,51,0,240
2,note_on,39,0,0
2,note_on,38,50,0
2,note_on,50,60,0
2,note_on,50,0,240
2,note_on,38,0,0
2,note_on,34,55,0
2,note_on,46,65,0
2,note_on,46,0,240
2,note_on,34,0,0
2,note_on,43,60,0
2,note_on,31,50,0
2,note_on,31,0,240
2,note_on,43,0,0
2,note_on,30,59,0
2,note_on,42,70,0
2,note_on,55,66,480
2,note_on,43,55,0
2,note_on,43,0,240
2,note_on,30,0,0
2,note_on,42,0,0
2,note_on,55,0,0
2,note_on,38,50,0
2,note_on,50,60,0
2,note_on,50,0,240
2,note_on,38,0,0
2,note_on,39,55,0
2,note_on,51,65,0
2,note_on,51,0,240
2,note_on,39,0,0
2,note_on,50,60,0
2,note_on,38,50,0
2,note_on,38,0,240
2,note_on,50,0,0
2,note_on,34,55,0
2,note_on,46,65,0
2,note_on,46,0,240
2,note_on,34,0,0
2,note_on,31,50,0
2,note_on,43,60,0
2,note_on,43,0,240
2,note_on,31,0,0
2,note_on,29,59,0
2,note_on,41,70,0
2,note_on,43,55,480
2,note_on,55,66,0
2,note_on,55,0,240
2,note_on,29,0,0
2,note_on,41,0,0
2,note_on,43,0,0
2,note_on,50,60,0
2,note_on,38,50,0
2,note_on,38,0,240
2,note_on,50,0,0
2,note_on,51,65,0
2,note_on,39,55,0
2,note_on,39,0,240
2,note_on,51,0,0
2,note_on,50,60,0
2,note_on,38,50,0
2,note_on,38,0,240
2,note_on,50,0,0
2,note_on,34,55,0
2,note_on,46,65,0
2,note_on,46,0,240
2,note_on,34,0,0
2,note_on,31,50,0
2,note_on,43,60,0
2,note_on,43,0,240
2,note_on,31,0,0
2,note_on,40,70,0
2,note_on,28,59,0
2,note_on,43,55,480
2,note_on,55,66,0
2,note_on,55,0,240
2,note_on,40,0,0
2,note_on,28,0,0
2,note_on,43,0,0
2,note_on,38,50,0
2,note_on,50,60,0
2,note_on,50,0,240
2,note_on,38,0,0
2,note_on,51,65,0
2,note_on,39,55,0
2,note_on,39,0,240
2,note_on,51,0,0
2,note_on,50,60,0
2,note_on,38,50,0
2,note_on,38,0,240
2,note_on,50,0,0
2,note_on,46,65,0
2,note_on,34,55,0
2,note_on,34,0,240
2,note_on,46,0,0
2,note_on,31,50,0
2,note_on,43,60,0
2,note_on,43,0,240
2,note_on,31,0,0
2,note_on,27,59,0
2,note_on,39,70,0
2,note_on,39,0,480
2,note_on,27,0,0
2,note_on,26,59,0
2,note_on,38,70,0
2,note_on,38,0,480
2,note_on,26,0,0
2,note_on,47,70,0
2,note_on,35,59,0
2,note_on,68,72,480
2,note_on,56,72,0
2,note_on,56,0,240
2,note_on,47,0,0
2,note_on,35,0,0
2,note_on,68,0,0
2,note_on,91,76,240
2,note_on,91,0,120
2,note_on,86,69,120
2,note_on,86,0,120
2,note_on,87,73,120
2,note_on,87,0,120
2,note_on,83,70,120
2,note_on,83,0,120
2,note_on,84,73,120
2,note_on,84,0,120
2,note_on,79,69,120
2,note_on,79,0,120
2,note_on,80,72,120
2,note_on,80,0,120
2,note_on,74,70,120
2,note_on,74,0,120
2,note_on,75,76,120
2,note_on,75,0,120
2,note_on,71,66,120
2,note_on,71,0,120
2,note_on,72,72,120
2,note_on,72,0,120
2,note_on,67,66,120
2,note_on,67,0,120
2,note_on,68,72,120
2,note_on,68,0,120
2,note_on,62,67,120
2,note_on,62,0,120
2,note_on,63,72,120
2,note_on,63,0,120
2,note_on,59,67,120
2,note_on,59,0,120
2,note_on,60,76,120
2,note_on,60,0,120
2,note_on,55,67,120
2,note_on,55,0,120
2,note_on,56,73,120
2,note_on,56,0,120
2,note_on,50,67,120
2,note_on,50,0,120
2,note_on,51,73,120
2,note_on,51,0,120
2,note_on,47,70,120
2,note_on,47,0,120
2,note_on,48,74,120
2,note_on,48,0,120
2,note_on,43,72,120
2,note_on,43,0,120
2,note_on,44,76,120
2,note_on,44,0,120
2,note_on,38,71,120
2,note_on,38,0,120
2,note_on,39,76,120
2,note_on,39,0,120
2,note_on,35,72,120
2,note_on,35,0,120
2,note_on,36,76,120
2,note_on,36,0,120
2,note_on,31,71,120
2,note_on,31,0,120
2,note_on,32,77,120
2,note_on,32,0,120
2,note_on,31,72,120
2,note_on,31,0,120
2,note_on,32,76,120
2,note_on,32,0,120
2,note_on,31,71,120
2,note_on,31,0,120
2,note_on,35,76,120
2,note_on,35,0,120
2,note_on,31,69,120
2,note_on,31,0,120
2,note_on,44,74,120
2,note_on,32,63,0
2,note_on,32,0,120
2,note_on,44,0,0
2,note_on,31,60,120
2,note_on,43,71,0
2,note_on,43,0,120
2,note_on,31,0,0
2,note_on,47,73,120
2,note_on,35,62,0
2,note_on,35,0,120
2,note_on,47,0,0
2,note_on,31,60,120
2,note_on,43,71,0
2,note_on,43,0,120
2,note_on,31,0,0
2,note_on,44,76,120
2,note_on,32,64,0
2,note_on,32,0,240
2,note_on,44,0,0
2,note_on,32,61,240
2,note_on,44,72,0
2,note_on,44,0,240
2,note_on,32,0,0
2,note_on,55,76,240
2,note_on,43,64,0
2,note_on,43,0,240
2,note_on,55,0,0
2,note_on,43,61,240
2,note_on,55,72,0
2,note_on,55,0,240
2,note_on,43,0,0
2,note_on,44,76,240
2,note_on,32,64,0
2,note_on,32,0,240
2,note_on,44,0,0
2,note_on,32,61,240
2,note_on,44,72,0
2,note_on,44,0,240
2,note_on,32,0,0
2,note_on,43,64,240
2,note_on,55,76,0
2,note_on,55,0,240
2,note_on,43,0,0
2,note_on,55,72,240
2,note_on,43,61,0
2,note_on,43,0,240
2,note_on,55,0,0
2,note_on,44,76,240
2,note_on,44,0,960
2,note_on,55,70,0
2,note_on,55,0,960
2,note_on,44,76,0
2,note_on,44,0,960
2,note_on,55,71,0
2,note_on,55,0,960
2,note_on,58,48,3840
2,note_on,46,40,0
2,note_on,46,0,240
2,note_on,58,0,0
2,note_on,40,35,240
2,note_on,52,42,0
2,note_on,52,0,960
2,note_on,40,0,0
2,note_on,58,47,480
2,note_on,46,40,0
2,note_on,46,0,120
2,note_on,58,0,0
2,note_on,46,38,120
2,note_on,58,45,0
2,note_on,58,0,120
2,note_on,46,0,0
2,note_on,52,40,120
2,note_on,40,34,0
2,note_on,40,0,960
2,note_on,52,0,0
2,note_on,46,41,480
2,note_on,58,49,0
2,note_on,58,0,120
2,note_on,46,0,0
2,note_on,50,45,120
2,note_on,62,45,0
2,note_on,62,0,120
2,note_on,50,0,0
2,note_on,60,45,120
2,note_on,48,38,0
2,note_on,48,0,120
2,note_on,60,0,0
2,note_on,62,45,120
2,note_on,50,45,0
2,note_on,50,0,120
2,note_on,62,0,0
2,note_on,46,39,120
2,note_on,58,46,0
2,note_on,58,0,480
2,note_on,46,0,0
2,note_on,48,39,0
2,note_on,60,46,0
2,note_on,60,0,120
2,note_on,48,0,0
2,note_on,58,44,120
2,note_on,46,36,0
2,note_on,46,0,120
2,note_on,58,0,0
2,note_on,50,41,120
2,note_on,62,49,0
2,note_on,62,0,480
2,note_on,50,0,0
2,note_on,60,45,0
2,note_on,48,37,0
2,note_on,48,0,120
2,note_on,60,0,0
2,note_on,58,43,120
2,note_on,46,36,0
2,note_on,46,0,120
2,note_on,58,0,0
2,note_on,47,37,120
2,note_on,59,45,0
2,note_on,59,0,240
2,note_on,47,0,0
2,note_on,40,35,240
2,note_on,52,42,0
2,note_on,52,0,960
2,note_on,40,0,0
2,note_on,59,45,480
2,note_on,47,37,0
2,note_on,47,0,120
2,note_on,59,0,0
2,note_on,47,36,120
2,note_on,59,43,0
2,note_on,59,0,120
2,note_on,47,0,0
2,note_on,52,40,120
2,note_on,40,34,0
2,note_on,40,0,960
2,note_on,52,0,0
2,note_on,44,37,480
2,note_on,56,45,0
2,note_on,56,0,120
2,note_on,44,0,0
2,note_on,48,35,120
2,note_on,60,42,0
2,note_on,60,0,120
2,note_on,48,0,0
2,note_on,59,45,120
2,note_on,47,38,0
2,note_on,47,0,120
2,note_on,59,0,0
2,note_on,48,37,120
2,note_on,60,45,0
2,note_on,60,0,120
2,note_on,48,0,0
2,note_on,56,46,120
2,note_on,44,39,0
2,note_on,44,0,480
2,note_on,56,0,0
2,note_on,57,46,0
2,note_on,45,39,0
2,note_on,45,0,120
2,note_on,57,0,0
2,note_on,44,36,120
2,note_on,56,43,0
2,note_on,56,0,120
2,note_on,44,0,0
2,note_on,60,47,120
2,note_on,48,40,0
2,note_on,48,0,480
2,note_on,60,0,0
2,note_on,47,37,0
2,note_on,59,45,0
2,note_on,59,0,120
2,note_on,47,0,0
2,note_on,56,43,120
2,note_on,44,36,0
2,note_on,44,0,120
2,note_on,56,0,0
2,note_on,45,37,120
2,note_on,57,45,0
2,note_on,57,0,240
2,note_on,45,0,0
2,note_on,52,42,240
2,note_on,40,35,0
2,note_on,40,0,240
2,note_on,52,0,0
2,note_on,62,40,240
2,note_on,58,32,80
2,note_on,62,0,10
2,note_on,62,38,70
2,note_on,58,0,10
2,note_on,58,31,70
2,note_on,62,0,10
2,note_on,62,37,70
2,note_on,58,0,10
2,note_on,58,32,70
2,note_on,62,0,10
2,note_on,58,0,70
2,note_on,60,36,0
2,note_on,57,30,80
2,note_on,60,0,10
2,note_on,60,36,70
2,note_on,57,0,10
2,note_on,57,31,70
2,note_on,60,0,10
2,note_on,60,36,70
2,note_on,57,0,10
2,note_on,57,31,70
2,note_on,60,0,10
2,note_on,45,49,70
2,note_on,57,0,10
2,note_on,45,0,230
2,note_on,40,45,240
2,note_on,40,0,240
2,note_on,57,40,240
2,note_on,53,32,80
2,note_on,57,0,10
2,note_on,57,38,70
2,note_on,53,0,10
2,note_on,53,31,70
2,note_on,57,0,10
2,note_on,57,37,70
2,note_on,53,0,10
2,note_on,53,32,70
2,note_on,57,0,10
2,note_on,53,0,70
2,note_on,56,36,0
2,note_on,52,30,80
2,note_on,56,0,10
2,note_on,56,36,70
2,note_on,52,0,10
2,note_on,52,31,70
2,note_on,56,0,10
2,note_on,56,36,70
2,note_on,52,0,10
2,note_on,52,31,70
2,note_on,56,0,10
2,note_on,45,49,70
2,note_on,52,0,10
2,note_on,45,0,230
2,note_on,40,42,240
2,note_on,40,0,240
2,note_on,53,33,240
2,note_on,49,26,80
2,note_on,53,0,10
2,note_on,53,32,70
2,note_on,49,0,10
2,note_on,49,27,70
2,note_on,53,0,10
2,note_on,53,32,70
2,note_on,49,0,10
2,note_on,49,26,70
2,note_on,53,0,10
2,note_on,49,0,70
2,note_on,52,32,0
2,note_on,48,27,80
2,note_on,52,0,10
2,note_on,52,32,70
2,note_on,48,0,10
2,note_on,48,27,70
2,note_on,52,0,10
2,note_on,52,33,70
2,note_on,48,0,10
2,note_on,48,27,70
2,note_on,52,0,10
2,note_on,48,0,70
2,note_on,51,32,0
2,note_on,47,26,80
2,note_on,51,0,10
2,note_on,51,31,70
2,note_on,47,0,10
2,note_on,47,27,70
2,note_on,51,0,10
2,note_on,51,30,70
2,note_on,47,0,10
2,note_on,47,26,70
2,note_on,51,0,10
2,note_on,47,0,70
2,note_on,46,40,480
2,note_on,58,47,0
2,note_on,58,0,240
2,note_on,46,0,0
2,note_on,52,42,240
2,note_on,40,35,0
2,note_on,40,0,960
2,note_on,52,0,0
2,note_on,46,40,480
2,note_on,58,48,0
2,note_on,58,0,120
2,note_on,46,0,0
2,note_on,58,45,120
2,note_on,46,38,0
2,note_on,46,0,120
2,note_on,58,0,0
2,note_on,52,40,120
2,note_on,40,34,0
2,note_on,40,0,960
2,note_on,52,0,0
2,note_on,46,40,480
2,note_on,58,48,0
2,note_on,58,0,120
2,note_on,46,0,0
2,note_on,50,36,120
2,note_on,62,44,0
2,note_on,62,0,120
2,note_on,50,0,0
2,note_on,48,38,120
2,note_on,60,45,0
2,note_on,60,0,120
2,note_on,48,0,0
2,note_on,50,37,120
2,note_on,62,45,0
2,note_on,62,0,120
2,note_on,50,0,0
2,note_on,46,39,120
2,note_on,58,46,0
2,note_on,58,0,480
2,note_on,46,0,0
2,note_on,60,46,0
2,note_on,48,39,0
2,note_on,48,0,120
2,note_on,60,0,0
2,note_on,58,43,120
2,note_on,46,36,0
2,note_on,46,0,120
2,note_on,58,0,0
2,note_on,50,40,120
2,note_on,62,47,0
2,note_on,62,0,480
2,note_on,50,0,0
2,note_on,48,37,0
2,note_on,60,45,0
2,note_on,60,0,120
2,note_on,48,0,0
2,note_on,46,36,120
2,note_on,58,43,0
2,note_on,58,0,120
2,note_on,46,0,0
2,note_on,59,45,120
2,note_on,47,37,0
2,note_on,47,0,240
2,note_on,59,0,0
2,note_on,40,35,240
2,note_on,52,42,0
2,note_on,52,0,960
2,note_on,40,0,0
2,note_on,47,37,480
2,note_on,59,45,0
2,note_on,59,0,120
2,note_on,47,0,0
2,note_on,47,36,120
2,note_on,59,43,0
2,note_on,59,0,120
2,note_on,47,0,0
2,note_on,52,40,120
2,note_on,40,34,0
2,note_on,40,0,960
2,note_on,52,0,0
2,note_on,56,45,480
2,note_on,44,37,0
2,note_on,44,0,120
2,note_on,56,0,0
2,note_on,60,42,120
2,note_on,48,35,0
2,note_on,48,0,120
2,note_on,60,0,0
2,note_on,47,38,120
2,note_on,59,45,0
2,note_on,59,0,120
2,note_on,47,0,0
2,note_on,48,37,120
2,note_on,60,45,0
2,note_on,60,0,120
2,note_on,48,0,0
2,note_on,44,39,120
2,note_on,56,46,0
2,note_on,56,0,480
2,note_on,44,0,0
2,note_on,45,39,0
2,note_on,57,46,0
2,note_on,57,0,120
2,note_on,45,0,0
2,note_on,44,36,120
2,note_on,56,43,0
2,note_on,56,0,120
2,note_on,44,0,0
2,note_on,48,40,120
2,note_on,60,47,0
2,note_on,60,0,480
2,note_on,48,0,0
2,note_on,59,45,0
2,note_on,47,37,0
2,note_on,47,0,120
2,note_on,59,0,0
2,note_on,44,36,120
2,note_on,56,43,0
2,note_on,56,0,120
2,note_on,44,0,0
2,note_on,45,52,120
2,note_on,45,0,960
2,note_on,40,61,0
2,note_on,40,0,960
2,note_on,33,69,0
2,note_on,33,0,1920
2,note_on,31,71,0
2,note_on,31,0,1920
2,note_on,56,32,0
2,note_on,52,27,0
2,note_on,60,28,60
2,note_on,52,0,20
2,note_on,56,0,0
2,note_on,52,27,40
2,note_on,56,32,0
2,note_on,60,0,20
2,note_on,60,28,40
2,note_on,56,0,20
2,note_on,52,0,0
2,note_on,56,33,40
2,note_on,52,27,0
2,note_on,60,0,20
2,note_on,60,28,40
2,note_on,52,0,20
2,note_on,56,0,0
2,note_on,56,34,40
2,note_on,52,28,0
2,note_on,60,0,20
2,note_on,60,29,40
2,note_on,52,0,20
2,note_on,56,0,0
2,note_on,60,0,40
2,note_on,55,36,0
2,note_on,51,30,0
2,note_on,59,32,60
2,note_on,51,0,20
2,note_on,55,0,0
2,note_on,51,30,40
2,note_on,55,36,0
2,note_on,59,0,20
2,note_on,59,32,40
2,note_on,55,0,20
2,note_on,51,0,0
2,note_on,51,33,40
2,note_on,55,39,0
2,note_on,59,0,20
2,note_on,59,34,40
2,note_on,55,0,20
2,note_on,51,0,0
2,note_on,55,40,40
2,note_on,51,34,0
2,note_on,59,0,20
2,note_on,59,34,40
2,note_on,51,0,20
2,note_on,55,0,0
2,note_on,59,0,40
2,note_on,50,34,0
2,note_on,53,40,0
2,note_on,58,36,60
2,note_on,53,0,20
2,note_on,50,0,0
2,note_on,53,39,40
2,note_on,50,33,0
2,note_on,58,0,20
2,note_on,58,34,40
2,note_on,50,0,20
2,note_on,53,0,0
2,note_on,50,33,40
2,note_on,53,39,0
2,note_on,58,0,20
2,note_on,58,33,40
2,note_on,53,0,20
2,note_on,50,0,0
2,note_on,50,30,40
2,note_on,53,36,0
2,note_on,58,0,20
2,note_on,58,32,40
2,note_on,53,0,20
2,note_on,50,0,0
2,note_on,58,0,40
2,note_on,52,36,0
2,note_on,48,30,0
2,note_on,57,31,60
2,note_on,48,0,20
2,note_on,52,0,0
2,note_on,52,36,40
2,note_on,48,30,0
2,note_on,57,0,20
2,note_on,57,31,40
2,note_on,48,0,20
2,note_on,52,0,0
2,note_on,48,28,40
2,note_on,52,34,0
2,note_on,57,0,20
2,note_on,57,30,40
2,note_on,52,0,20
2,note_on,48,0,0
2,note_on,48,27,40
2,note_on,52,33,0
2,note_on,57,0,20
2,note_on,57,28,40
2,note_on,52,0,20
2,note_on,48,0,0
2,note_on,57,0,40
2,note_on,52,27,0
2,note_on,56,32,0
2,note_on,60,28,60
2,note_on,56,0,20
2,note_on,52,0,0
2,note_on,52,27,40
2,note_on,56,32,0
2,note_on,60,0,20
2,note_on,60,28,40
2,note_on,56,0,20
2,note_on,52,0,0
2,note_on,56,33,40
2,note_on,52,27,0
2,note_on,60,0,20
2,note_on,60,28,40
2,note_on,52,0,20
2,note_on,56,0,0
2,note_on,52,28,40
2,note_on,56,34,0
2,note_on,60,0,20
2,note_on,60,29,40
2,note_on,56,0,20
2,note_on,52,0,0
2,note_on,60,0,40
2,note_on,51,30,0
2,note_on,55,36,0
2,note_on,59,32,60
2,note_on,55,0,20
2,note_on,51,0,0
2,note_on,51,30,40
2,note_on,55,36,0
2,note_on,59,0,20
2,note_on,59,32,40
2,note_on,55,0,20
2,note_on,51,0,0
2,note_on,55,39,40
2,note_on,51,33,0
2,note_on,59,0,20
2,note_on,59,34,40
2,note_on,51,0,20
2,note_on,55,0,0
2,note_on,51,34,40
2,note_on,55,40,0
2,note_on,59,0,20
2,note_on,59,34,40
2,note_on,55,0,20
2,note_on,51,0,0
2,note_on,59,0,40
2,note_on,50,34,0
2,note_on,53,40,0
2,note_on,58,36,60
2,note_on,53,0,20
2,note_on,50,0,0
2,note_on,53,39,40
2,note_on,50,33,0
2,note_on,58,0,20
2,note_on,58,34,40
2,note_on,50,0,20
2,note_on,53,0,0
2,note_on,50,33,40
2,note_on,53,39,0
2,note_on,58,0,20
2,note_on,58,33,40
2,note_on,53,0,20
2,note_on,50,0,0
2,note_on,53,36,40
2,note_on,50,30,0
2,note_on,58,0,20
2,note_on,58,32,40
2,note_on,50,0,20
2,note_on,53,0,0
2,note_on,58,0,40
2,note_on,48,30,0
2,note_on,52,36,0
2,note_on,57,31,60
2,note_on,52,0,20
2,note_on,48,0,0
2,note_on,48,30,40
2,note_on,52,36,0
2,note_on,57,0,20
2,note_on,57,31,40
2,note_on,52,0,20
2,note_on,48,0,0
2,note_on,48,34,40
2,note_on,52,34,0
2,note_on,57,0,20
2,note_on,57,30,40
2,note_on,52,0,20
2,note_on,48,0,0
2,note_on,52,33,40
2,note_on,48,27,0
2,note_on,57,0,20
2,note_on,57,28,40
2,note_on,48,0,20
2,note_on,52,0,0
2,note_on,57,0,40
2,note_on,40,30,0
2,note_on,44,36,0
2,note_on,48,29,60
2,note_on,44,0,20
2,note_on,40,0,0
2,note_on,40,30,40
2,note_on,44,36,0
2,note_on,48,0,20
2,note_on,48,30,40
2,note_on,44,0,20
2,note_on,40,0,0
2,note_on,44,36,40
2,note_on,40,30,0
2,note_on,48,0,20
2,note_on,48,30,40
2,note_on,40,0,20
2,note_on,44,0,0
2,note_on,40,30,40
2,note_on,44,36,0
2,note_on,48,0,20
2,note_on,48,30,40
2,note_on,44,0,20
2,note_on,40,0,0
2,note_on,48,0,40
2,note_on,43,34,0
2,note_on,39,28,0
2,note_on,47,28,60
2,note_on,39,0,20
2,note_on,43,0,0
2,note_on,39,28,40
2,note_on,43,34,0
2,note_on,47,0,20
2,note_on,47,28,40
2,note_on,43,0,20
2,note_on,39,0,0
2,note_on,39,28,40
2,note_on,43,34,0
2,note_on,47,0,20
2,note_on,47,27,40
2,note_on,43,0,20
2,note_on,39,0,0
2,note_on,39,28,40
2,note_on,43,34,0
2,note_on,47,0,20
2,note_on,47,27,40
2,note_on,43,0,20
2,note_on,39,0,0
2,note_on,47,0,40
2,note_on,41,30,0
2,note_on,38,25,0
2,note_on,46,21,60
2,note_on,38,0,20
2,note_on,41,0,0
2,note_on,41,30,40
2,note_on,38,25,0
2,note_on,46,0,20
2,note_on,46,19,40
2,note_on,38,0,20
2,note_on,41,0,0
2,note_on,38,25,40
2,note_on,41,29,0
2,note_on,46,0,20
2,note_on,46,18,40
2,note_on,41,0,20
2,note_on,38,0,0
2,note_on,41,29,40
2,note_on,38,25,0
2,note_on,46,0,20
2,note_on,46,17,40
2,note_on,38,0,20
2,note_on,41,0,0
2,note_on,46,0,40
2,note_on,36,24,0
2,note_on,40,28,0
2,note_on,45,16,60
2,note_on,40,0,20
2,note_on,36,0,0
2,note_on,40,27,40
2,note_on,36,23,0
2,note_on,45,0,20
2,note_on,45,16,40
2,note_on,36,0,20
2,note_on,40,0,0
2,note_on,40,27,40
2,note_on,36,23,0
2,note_on,45,0,20
2,note_on,45,16,40
2,note_on,36,0,20
2,note_on,40,0,0
2,note_on,36,22,40
2,note_on,40,27,0
2,note_on,45,0,20
2,note_on,45,16,40
2,note_on,40,0,20
2,note_on,36,0,0
2,note_on,45,0,40
2,note_on,35,23,0
2,note_on,39,27,0
2,note_on,43,15,60
2,note_on,39,0,20
2,note_on,35,0,0
2,note_on,35,22,40
2,note_on,39,27,0
2,note_on,43,0,20
2,note_on,43,15,40
2,note_on,39,0,20
2,note_on,35,0,0
2,note_on,43,0,40
2,note_on,35,22,0
2,note_on,39,27,0
2,note_on,43,15,60
2,note_on,39,0,20
2,note_on,35,0,0
2,note_on,39,27,40
2,note_on,35,22,0
2,note_on,43,0,20
2,note_on,43,14,40
2,note_on,35,0,20
2,note_on,39,0,0
2,note_on,43,0,40
2,note_on,39,26,0
2,note_on,35,21,0
2,note_on,43,15,60
2,note_on,35,0,20
2,note_on,39,0,0
2,note_on,35,21,40
2,note_on,39,26,0
2,note_on,43,0,20
2,note_on,43,15,40
2,note_on,39,0,20
2,note_on,35,0,0
2,note_on,39,26,40
2,note_on,35,21,0
2,note_on,43,0,20
2,note_on,43,15,40
2,note_on,35,0,20
2,note_on,39,0,0
2,note_on,39,26,40
2,note_on,35,21,0
2,note_on,43,0,20
2,note_on,43,14,40
2,note_on,35,0,20
2,note_on,39,0,0
2,note_on,43,0,40
2,note_on,39,26,0
2,note_on,35,21,0
2,note_on,43,15,60
2,note_on,35,0,20
2,note_on,39,0,0
2,note_on,35,20,40
2,note_on,39,25,0
2,note_on,43,0,20
2,note_on,43,15,40
2,note_on,39,0,20
2,note_on,35,0,0
2,note_on,35,20,40
2,note_on,39,25,0
2,note_on,43,0,20
2,note_on,43,15,40
2,note_on,39,0,20
2,note_on,35,0,0
2,note_on,35,19,40
2,note_on,39,24,0
2,note_on,43,0,20
2,note_on,43,14,40
2,note_on,39,0,20
2,note_on,35,0,0
2,note_on,43,0,40
2,note_on,35,21,0
2,note_on,39,26,0
2,note_on,39,0,480
2,note_on,35,0,0
2,note_on,43,68,0
2,note_on,31,57,0
2,note_on,31,0,480
2,note_on,43,0,0
2,note_on,31,57,1440
2,note_on,43,68,0
2,note_on,43,0,480
2,note_on,31,0,0
2,note_on,43,65,0
2,note_on,31,55,0
2,note_on,31,0,480
2,note_on,43,0,0
2,note_on,43,68,960
2,note_on,31,57,0
2,note_on,31,0,480
2,note_on,43,0,0
2,note_on,31,55,0
2,note_on,43,65,0
2,note_on,43,0,480
2,note_on,31,0,0
2,note_on,31,63,0
2,note_on,43,75,0
2,note_on,43,0,120
2,note_on,44,68,120
2,note_on,44,0,120
2,note_on,31,0,120
2,note_on,43,66,0
2,note_on,53,61,240
2,note_on,53,0,120
2,note_on,43,0,120
2,note_on,31,57,0
2,note_on,43,68,0
2,note_on,43,0,480
2,note_on,31,0,0
2,note_on,31,55,0
2,note_on,43,66,0
2,note_on,43,0,480
2,note_on,31,0,0
2,note_on,31,63,0
2,note_on,43,75,0
2,note_on,43,0,240
2,note_on,44,66,0
2,note_on,44,0,240
2,note_on,31,0,0
2,note_on,43,66,0
2,note_on,49,61,240
2,note_on,49,0,120
2,note_on,43,0,120
2,note_on,43,57,0
2,note_on,31,48,0
2,note_on,31,0,480
2,note_on,43,0,0
2,note_on,43,54,0
2,note_on,31,45,0
2,note_on,31,0,480
2,note_on,43,0,0
2,note_on,43,58,0
2,note_on,31,49,0
2,note_on,31,0,480
2,note_on,43,0,0
2,note_on,43,64,0
2,note_on,31,54,0
2,note_on,31,0,480
2,note_on,43,0,0
2,note_on,43,56,0
2,note_on,31,47,0
2,note_on,31,0,120
2,note_on,43,0,0
2,note_on,36,44,120
2,note_on,48,52,0
2,note_on,48,0,120
2,note_on,36,0,0
2,note_on,32,57,120
2,note_on,44,67,0
2,note_on,44,0,120
2,note_on,32,0,0
2,note_on,37,49,120
2,note_on,49,58,0
2,note_on,49,0,120
2,note_on,37,0,0
2,note_on,45,57,120
2,note_on,33,48,0
2,note_on,33,0,120
2,note_on,45,0,0
2,note_on,50,56,120
2,note_on,38,47,0
2,note_on,38,0,120
2,note_on,50,0,0
2,note_on,46,64,120
2,note_on,34,54,0
2,note_on,34,0,120
2,note_on,46,0,0
2,note_on,39,46,120
2,note_on,51,55,0
2,note_on,51,0,120
2,note_on,39,0,0
2,note_on,31,50,120
2,note_on,43,59,0
2,note_on,43,0,120
2,note_on,31,0,0
2,note_on,36,45,120
2,note_on,48,54,0
2,note_on,48,0,120
2,note_on,36,0,0
2,note_on,44,70,120
2,note_on,32,59,0
2,note_on,32,0,120
2,note_on,44,0,0
2,note_on,37,51,120
2,note_on,49,61,0
2,note_on,49,0,120
2,note_on,37,0,0
2,note_on,33,52,120
2,note_on,45,63,0
2,note_on,45,0,120
2,note_on,33,0,0
2,note_on,38,50,120
2,note_on,50,59,0
2,note_on,50,0,120
2,note_on,38,0,0
2,note_on,46,68,120
2,note_on,34,58,0
2,note_on,34,0,120
2,note_on,46,0,0
2,note_on,51,59,120
2,note_on,39,50,0
2,note_on,39,0,120
2,note_on,51,0,0
2,note_on,31,61,120
2,note_on,43,72,0
2,note_on,43,0,120
2,note_on,31,0,0
2,note_on,48,66,120
2,note_on,36,55,0
2,note_on,36,0,120
2,note_on,48,0,0
2,note_on,44,69,120
2,note_on,32,58,0
2,note_on,32,0,120
2,note_on,44,0,0
2,note_on,49,63,120
2,note_on,37,54,0
2,note_on,37,0,120
2,note_on,49,0,0
2,note_on,33,61,120
2,note_on,45,72,0
2,note_on,45,0,120
2,note_on,33,0,0
2,note_on,50,65,120
2,note_on,38,55,0
2,note_on,38,0,120
2,note_on,50,0,0
2,note_on,46,70,120
2,note_on,34,59,0
2,note_on,34,0,120
2,note_on,46,0,0
2,note_on,51,63,120
2,note_on,39,54,0
2,note_on,39,0,120
2,note_on,51,0,0
2,note_on,43,72,120
2,note_on,31,61,0
2,note_on,31,0,120
2,note_on,43,0,0
2,note_on,36,55,120
2,note_on,48,66,0
2,note_on,48,0,120
2,note_on,36,0,0
2,note_on,44,69,120
2,note_on,32,58,0
2,note_on,32,0,120
2,note_on,44,0,0
2,note_on,37,54,120
2,note_on,49,63,0
2,note_on,49,0,120
2,note_on,37,0,0
2,note_on,45,72,120
2,note_on,33,61,0
2,note_on,33,0,120
2,note_on,45,0,0
2,note_on,50,65,120
2,note_on,38,55,0
2,note_on,38,0,120
2,note_on,50,0,0
2,note_on,46,70,120
2,note_on,34,59,0
2,note_on,34,0,120
2,note_on,46,0,0
2,note_on,51,63,120
2,note_on,39,54,0
2,note_on,39,0,120
2,note_on,51,0,0
2,note_on,31,51,120
2,note_on,43,61,0
2,note_on,43,0,120
2,note_on,31,0,0
2,note_on,36,46,120
2,note_on,48,55,0
2,note_on,48,0,120
2,note_on,36,0,0
2,note_on,44,72,120
2,note_on,32,61,0
2,note_on,32,0,120
2,note_on,44,0,0
2,note_on,37,53,120
2,note_on,49,63,0
2,note_on,49,0,120
2,note_on,37,0,0
2,note_on,45,62,120
2,note_on,33,52,0
2,note_on,33,0,120
2,note_on,45,0,0
2,note_on,50,62,120
2,note_on,38,52,0
2,note_on,38,0,120
2,note_on,50,0,0
2,note_on,46,70,120
2,note_on,34,59,0
2,note_on,34,0,120
2,note_on,46,0,0
2,note_on,39,51,120
2,note_on,51,61,0
2,note_on,51,0,120
2,note_on,39,0,0
2,note_on,31,55,120
2,note_on,43,65,0
2,note_on,43,0,120
2,note_on,31,0,0
2,note_on,48,59,120
2,note_on,36,50,0
2,note_on,36,0,120
2,note_on,48,0,0
2,note_on,44,79,120
2,note_on,32,66,0
2,note_on,32,0,120
2,note_on,44,0,0
2,note_on,37,57,120
2,note_on,49,68,0
2,note_on,49,0,120
2,note_on,37,0,0
2,note_on,45,70,120
2,note_on,33,59,0
2,note_on,33,0,120
2,note_on,45,0,0
2,note_on,50,66,120
2,note_on,38,55,0
2,note_on,38,0,120
2,note_on,50,0,0
2,note_on,46,77,120
2,note_on,34,64,0
2,note_on,34,0,120
2,note_on,46,0,0
2,note_on,51,67,120
2,note_on,39,56,0
2,note_on,39,0,120
2,note_on,51,0,0
2,note_on,43,70,120
2,note_on,31,59,0
2,note_on,31,0,240
2,note_on,43,0,0
2,note_on,42,65,0
2,note_on,42,0,240
2,note_on,31,59,0
2,note_on,43,70,0
2,note_on,43,0,240
2,note_on,31,0,0
2,note_on,42,65,0
2,note_on,42,0,240
2,note_on,43,70,0
2,note_on,31,59,0
2,note_on,31,0,240
2,note_on,43,0,0
2,note_on,42,65,0
2,note_on,42,0,240
2,note_on,31,59,0
2,note_on,43,70,0
2,note_on,43,0,240
2,note_on,31,0,0
2,note_on,42,65,0
2,note_on,42,0,240
2,note_on,31,59,0
2,note_on,43,70,0
2,note_on,43,0,240
2,note_on,31,0,0
2,note_on,42,67,0
2,note_on,42,0,240
2,note_on,43,70,0
2,note_on,31,59,0
2,note_on,31,0,240
2,note_on,43,0,0
2,note_on,42,67,0
2,note_on,42,0,240
2,note_on,36,61,0
2,note_on,48,72,0
2,note_on,48,0,240
2,note_on,36,0,0
2,note_on,46,71,0
2,note_on,34,60,0
2,note_on,34,0,240
2,note_on,46,0,0
2,note_on,33,59,0
2,note_on,45,70,0
2,note_on,45,0,240
2,note_on,33,0,0
2,note_on,44,69,0
2,note_on,32,58,0
2,note_on,32,0,240
2,note_on,44,0,0
2,note_on,43,70,0
2,note_on,31,59,0
2,note_on,31,0,240
2,note_on,43,0,0
2,note_on,42,65,0
2,note_on,42,0,240
2,note_on,31,59,0
2,note_on,43,70,0
2,note_on,43,0,240
2,note_on,31,0,0
2,note_on,42,65,0
2,note_on,42,0,240
2,note_on,31,59,0
2,note_on,43,70,0
2,note_on,43,0,240
2,note_on,31,0,0
2,note_on,42,65,0
2,note_on,42,0,240
2,note_on,43,70,0
2,note_on,31,59,0
2,note_on,31,0,240
2,note_on,43,0,0
2,note_on,42,65,0
2,note_on,42,0,240
2,note_on,43,70,0
2,note_on,31,59,0
2,note_on,31,0,240
2,note_on,43,0,0
2,note_on,42,67,0
2,note_on,42,0,240
2,note_on,43,70,0
2,note_on,31,59,0
2,note_on,31,0,240
2,note_on,43,0,0
2,note_on,42,67,0
2,note_on,42,0,240
2,note_on,36,61,0
2,note_on,48,72,0
2,note_on,48,0,240
2,note_on,36,0,0
2,note_on,47,71,0
2,note_on,35,60,0
2,note_on,35,0,240
2,note_on,47,0,0
2,note_on,46,70,0
2,note_on,34,59,0
2,note_on,34,0,240
2,note_on,46,0,0
2,note_on,45,69,0
2,note_on,33,58,0
2,note_on,33,0,240
2,note_on,45,0,0
2,note_on,66,70,0
2,note_on,48,50,480
2,note_on,60,59,0
2,note_on,60,0,480
2,note_on,48,0,0
2,note_on,48,63,0
2,note_on,36,54,0
2,note_on,36,0,480
2,note_on,48,0,0
2,note_on,60,60,0
2,note_on,48,50,0
2,note_on,48,0,480
2,note_on,60,0,0
2,note_on,66,0,0
2,note_on,70,70,0
2,note_on,55,59,480
2,note_on,43,50,0
2,note_on,43,0,480
2,note_on,55,0,0
2,note_on,43,63,0
2,note_on,31,54,0
2,note_on,31,0,480
2,note_on,43,0,0
2,note_on,55,60,0
2,note_on,43,50,0
2,note_on,43,0,480
2,note_on,55,0,0
2,note_on,70,0,0
2,note_on,66,70,0
2,note_on,60,59,480
2,note_on,48,50,0
2,note_on,48,0,480
2,note_on,60,0,0
2,note_on,36,54,0
2,note_on,48,63,0
2,note_on,48,0,480
2,note_on,36,0,0
2,note_on,60,60,0
2,note_on,48,50,0
2,note_on,48,0,480
2,note_on,60,0,0
2,note_on,66,0,0
2,note_on,70,70,0
2,note_on,43,50,480
2,note_on,55,59,0
2,note_on,55,0,480
2,note_on,43,0,0
2,note_on,43,63,0
2,note_on,31,54,0
2,note_on,31,0,480
2,note_on,43,0,0
2,note_on,43,50,0
2,note_on,55,60,0
2,note_on,55,0,480
2,note_on,43,0,0
2,note_on,70,0,0
2,note_on,66,70,0
2,note_on,57,59,480
2,note_on,45,50,0
2,note_on,45,0,480
2,note_on,57,0,0
2,note_on,33,54,0
2,note_on,45,63,0
2,note_on,45,0,480
2,note_on,33,0,0
2,note_on,45,50,0
2,note_on,57,60,0
2,note_on,57,0,480
2,note_on,45,0,0
2,note_on,66,0,0
2,note_on,70,70,0
2,note_on,52,59,480
2,note_on,40,50,0
2,note_on,40,0,480
2,note_on,52,0,0
2,note_on,28,54,0
2,note_on,40,63,0
2,note_on,40,0,480
2,note_on,28,0,0
2,note_on,40,50,0
2,note_on,52,60,0
2,note_on,52,0,480
2,note_on,40,0,0
2,note_on,70,0,0
2,note_on,66,70,0
2,note_on,45,50,480
2,note_on,57,59,0
2,note_on,57,0,480
2,note_on,45,0,0
2,note_on,45,63,0
2,note_on,33,54,0
2,note_on,33,0,480
2,note_on,45,0,0
2,note_on,45,50,0
2,note_on,57,60,0
2,note_on,57,0,480
2,note_on,45,0,0
2,note_on,66,0,0
2,note_on,72,70,0
2,note_on,40,50,480
2,note_on,52,59,0
2,note_on,52,0,480
2,note_on,40,0,0
2,note_on,28,54,0
2,note_on,40,63,0
2,note_on,40,0,480
2,note_on,28,0,0
2,note_on,40,50,0
2,note_on,52,60,0
2,note_on,52,0,480
2,note_on,40,0,0
2,note_on,72,0,0
2,note_on,31,57,0
2,note_on,43,68,0
2,note_on,43,0,240
2,note_on,31,0,0
2,note_on,79,66,240
2,note_on,79,0,240
2,note_on,74,60,0
2,note_on,74,0,240
2,note_on,75,65,0
2,note_on,75,0,240
2,note_on,74,60,0
2,note_on,74,0,240
2,note_on,70,65,0
2,note_on,70,0,240
2,note_on,67,60,0
2,note_on,67,0,240
2,note_on,68,64,0
2,note_on,68,0,240
2,note_on,75,58,0
2,note_on,75,0,240
2,note_on,71,62,0
2,note_on,71,0,240
2,note_on,75,58,0
2,note_on,75,0,240
2,note_on,74,63,0
2,note_on,74,0,240
2,note_on,67,61,240
2,note_on,67,0,240
2,note_on,67,68,240
2,note_on,55,57,0
2,note_on,55,0,480
2,note_on,67,0,0
2,note_on,67,66,0
2,note_on,55,55,0
2,note_on,55,0,240
2,note_on,67,0,0
2,note_on,50,50,0
2,note_on,62,60,0
2,note_on,62,0,240
2,note_on,50,0,0
2,note_on,51,55,0
2,note_on,63,65,0
2,note_on,63,0,240
2,note_on,51,0,0
2,note_on,50,50,0
2,note_on,62,60,0
2,note_on,62,0,240
2,note_on,50,0,0
2,note_on,58,65,0
2,note_on,46,55,0
2,note_on,46,0,240
2,note_on,58,0,0
2,note_on,55,60,0
2,note_on,43,50,0
2,note_on,43,0,240
2,note_on,55,0,0
2,note_on,56,64,0
2,note_on,44,54,0
2,note_on,44,0,240
2,note_on,56,0,0
2,note_on,51,49,0
2,note_on,63,58,0
2,note_on,63,0,240
2,note_on,51,0,0
2,note_on,47,52,0
2,note_on,59,62,0
2,note_on,59,0,240
2,note_on,47,0,0
2,note_on,63,58,0
2,note_on,51,58,0
2,note_on,51,0,240
2,note_on,63,0,0
2,note_on,62,63,0
2,note_on,50,54,0
2,note_on,50,0,240
2,note_on,62,0,0
2,note_on,43,51,240
2,note_on,55,61,0
2,note_on,55,0,240
2,note_on,43,0,0
2,note_on,55,68,240
2,note_on,43,57,0
2,note_on,43,0,480
2,note_on,55,0,0
2,note_on,55,66,0
2,note_on,43,55,0
2,note_on,43,0,240
2,note_on,55,0,0
2,note_on,38,50,0
2,note_on,50,60,0
2,note_on,50,0,240
2,note_on,38,0,0
2,note_on,39,55,0
2,note_on,51,65,0
2,note_on,51,0,240
2,note_on,39,0,0
2,note_on,50,60,0
2,note_on,38,50,0
2,note_on,38,0,240
2,note_on,50,0,0
2,note_on,46,65,0
2,note_on,34,55,0
2,note_on,34,0,240
2,note_on,46,0,0
2,note_on,43,60,0
2,note_on,31,50,0
2,note_on,31,0,240
2,note_on,43,0,0
2,note_on,30,59,0
2,note_on,42,70,0
2,note_on,55,66,480
2,note_on,43,55,0
2,note_on,43,0,240
2,note_on,30,0,0
2,note_on,42,0,0
2,note_on,55,0,0
2,note_on,38,50,0
2,note_on,50,60,0
2,note_on,50,0,240
2,note_on,38,0,0
2,note_on,51,65,0
2,note_on,39,55,0
2,note_on,39,0,240
2,note_on,51,0,0
2,note_on,50,60,0
2,note_on,38,50,0
2,note_on,38,0,240
2,note_on,50,0,0
2,note_on,34,55,0
2,note_on,46,65,0
2,note_on,46,0,240
2,note_on,34,0,0
2,note_on,31,50,0
2,note_on,43,60,0
2,note_on,43,0,240
2,note_on,31,0,0
2,note_on,41,70,0
2,note_on,29,59,0
2,note_on,55,66,480
2,note_on,43,55,0
2,note_on,43,0,240
2,note_on,41,0,0
2,note_on,29,0,0
2,note_on,55,0,0
2,note_on,50,60,0
2,note_on,38,50,0
2,note_on,38,0,240
2,note_on,50,0,0
2,note_on,39,55,0
2,note_on,51,65,0
2,note_on,51,0,240
2,note_on,39,0,0
2,note_on,50,60,0
2,note_on,38,50,0
2,note_on,38,0,240
2,note_on,50,0,0
2,note_on,34,55,0
2,note_on,46,65,0
2,note_on,46,0,240
2,note_on,34,0,0
2,note_on,31,50,0
2,note_on,43,60,0
2,note_on,43,0,240
2,note_on,31,0,0
2,note_on,28,59,0
2,note_on,40,70,0
2,note_on,55,66,480
2,note_on,43,55,0
2,note_on,43,0,240
2,note_on,28,0,0
2,note_on,40,0,0
2,note_on,55,0,0
2,note_on,38,50,0
2,note_on,50,60,0
2,note_on,50,0,240
2,note_on,38,0,0
2,note_on,39,55,0
2,note_on,51,65,0
2,note_on,51,0,240
2,note_on,39,0,0
2,note_on,38,50,0
2,note_on,50,60,0
2,note_on,50,0,240
2,note_on,38,0,0
2,note_on,46,65,0
2,note_on,34,55,0
2,note_on,34,0,240
2,note_on,46,0,0
2,note_on,43,60,0
2,note_on,31,50,0
2,note_on,31,0,240
2,note_on,43,0,0
2,note_on,27,59,0
2,note_on,39,70,0
2,note_on,39,0,480
2,note_on,27,0,0
2,note_on,38,70,0
2,note_on,26,59,0
2,note_on,26,0,240
2,note_on,38,0,0
2,note_on,35,59,240
2,note_on,47,70,0
2,note_on,68,72,480
2,note_on,56,61,0
2,note_on,56,0,240
2,note_on,35,0,0
2,note_on,47,0,0
2,note_on,68,0,0
2,note_on,91,76,240
2,note_on,91,0,120
2,note_on,86,69,120
2,note_on,86,0,120
2,note_on,87,73,120
2,note_on,87,0,120
2,note_on,83,70,120
2,note_on,83,0,120
2,note_on,84,73,120
2,note_on,84,0,120
2,note_on,79,69,120
2,note_on,79,0,120
2,note_on,80,72,120
2,note_on,80,0,120
2,note_on,74,70,120
2,note_on,74,0,120
2,note_on,75,76,120
2,note_on,75,0,120
2,note_on,71,66,120
2,note_on,71,0,120
2,note_on,72,72,120
2,note_on,72,0,120
2,note_on,67,66,120
2,note_on,67,0,120
2,note_on,68,72,120
2,note_on,68,0,120
2,note_on,62,67,120
2,note_on,62,0,120
2,note_on,63,72,120
2,note_on,63,0,120
2,note_on,59,67,120
2,note_on,59,0,120
2,note_on,60,76,120
2,note_on,60,0,120
2,note_on,55,67,120
2,note_on,55,0,120
2,note_on,56,73,120
2,note_on,56,0,120
2,note_on,50,67,120
2,note_on,50,0,120
2,note_on,51,73,120
2,note_on,51,0,120
2,note_on,47,70,120
2,note_on,47,0,120
2,note_on,48,74,120
2,note_on,48,0,120
2,note_on,43,68,120
2,note_on,43,0,120
2,note_on,44,72,120
2,note_on,44,0,120
2,note_on,38,66,120
2,note_on,38,0,120
2,note_on,39,71,120
2,note_on,39,0,120
2,note_on,35,64,120
2,note_on,35,0,120
2,note_on,36,66,120
2,note_on,36,0,120
2,note_on,31,60,120
2,note_on,31,0,120
2,note_on,32,67,120
2,note_on,32,0,120
2,note_on,31,61,120
2,note_on,31,0,120
2,note_on,32,66,120
2,note_on,32,0,120
2,note_on,31,63,120
2,note_on,31,0,120
2,note_on,35,71,120
2,note_on,35,0,120
2,note_on,31,60,120
2,note_on,31,0,120
2,note_on,32,67,120
2,note_on,32,0,120
2,note_on,31,61,120
2,note_on,31,0,120
2,note_on,35,73,120
2,note_on,35,0,120
2,note_on,31,63,120
2,note_on,31,0,120
2,note_on,32,72,120
2,note_on,32,0,120
2,note_on,31,67,120
2,note_on,31,0,120
2,note_on,32,70,120
2,note_on,32,0,120
2,note_on,34,66,120
2,note_on,34,0,120
2,note_on,35,72,120
2,note_on,35,0,120
2,note_on,38,66,120
2,note_on,38,0,120
2,note_on,39,69,120
2,note_on,39,0,120
2,note_on,41,73,120
2,note_on,41,0,120
2,note_on,31,61,120
2,note_on,43,72,0
2,note_on,43,0,120
2,note_on,31,0,0
2,note_on,44,68,120
2,note_on,32,57,0
2,note_on,32,0,120
2,note_on,44,0,0
2,note_on,46,69,120
2,note_on,34,58,0
2,note_on,34,0,120
2,note_on,46,0,0
2,note_on,47,70,120
2,note_on,35,59,0
2,note_on,35,0,120
2,note_on,47,0,0
2,note_on,38,64,120
2,note_on,50,76,0
2,note_on,50,0,120
2,note_on,38,0,0
2,note_on,39,59,120
2,note_on,51,70,0
2,note_on,51,0,120
2,note_on,39,0,0
2,note_on,41,59,120
2,note_on,53,70,0
2,note_on,53,0,120
2,note_on,41,0,0
2,note_on,55,70,120
2,note_on,43,59,0
2,note_on,43,0,120
2,note_on,55,0,0
2,note_on,44,64,120
2,note_on,56,76,0
2,note_on,56,0,120
2,note_on,44,0,0
2,note_on,58,70,120
2,note_on,46,59,0
2,note_on,46,0,120
2,note_on,58,0,0
2,note_on,47,59,120
2,note_on,59,70,0
2,note_on,59,0,120
2,note_on,47,0,0
2,note_on,62,70,120
2,note_on,50,59,0
2,note_on,50,0,120
2,note_on,62,0,0
2,note_on,51,65,120
2,note_on,63,78,0
2,note_on,63,0,120
2,note_on,51,0,0
2,note_on,53,60,120
2,note_on,65,71,0
2,note_on,65,0,120
2,note_on,53,0,0
2,note_on,55,61,120
2,note_on,67,72,0
2,note_on,67,0,120
2,note_on,55,0,0
2,note_on,68,72,120
2,note_on,56,61,0
2,note_on,56,0,120
2,note_on,68,0,0
2,note_on,71,80,120
2,note_on,59,67,0
2,note_on,59,0,120
2,note_on,71,0,0
2,note_on,62,72,120
2,note_on,62,0,120
2,note_on,63,72,120
2,note_on,63,0,120
2,note_on,65,72,120
2,note_on,65,0,120
2,note_on,67,81,120
2,note_on,67,0,120
2,note_on,68,74,120
2,note_on,68,0,120
2,note_on,70,74,120
2,note_on,70,0,120
2,note_on,71,74,120
2,note_on,71,0,120
2,note_on,74,81,120
2,note_on,74,0,120
2,note_on,75,75,120
2,note_on,75,0,120
2,note_on,77,76,120
2,note_on,77,0,120
2,note_on,79,77,120
2,note_on,79,0,120
2,note_on,75,85,120
2,note_on,75,0,120
2,note_on,77,75,120
2,note_on,77,0,120
2,note_on,71,81,120
2,note_on,71,0,120
2,note_on,74,74,120
2,note_on,74,0,120
2,note_on,75,83,120
2,note_on,75,0,120
2,note_on,77,74,120
2,note_on,77,0,120
2,note_on,71,79,120
2,note_on,71,0,120
2,note_on,74,75,120
2,note_on,74,0,120
2,note_on,63,74,120
2,note_on,75,79,0
2,note_on,75,0,120
2,note_on,63,0,0
2,note_on,77,73,120
2,note_on,65,69,0
2,note_on,65,0,120
2,note_on,77,0,0
2,note_on,65,67,120
2,note_on,53,53,0
2,note_on,53,0,120
2,note_on,65,0,0
2,note_on,54,52,120
2,note_on,66,65,0
2,note_on,66,0,120
2,note_on,54,0,0
2,note_on,55,54,120
2,note_on,67,69,0
2,note_on,67,0,120
2,note_on,55,0,0
2,note_on,56,63,120
2,note_on,68,67,0
2,note_on,68,0,120
2,note_on,56,0,0
2,note_on,57,64,120
2,note_on,69,68,0
2,note_on,69,0,120
2,note_on,57,0,0
2,note_on,70,69,120
2,note_on,58,65,0
2,note_on,58,0,120
2,note_on,70,0,0
2,note_on,59,65,120
2,note_on,71,69,0
2,note_on,71,0,120
2,note_on,59,0,0
2,note_on,60,66,120
2,note_on,72,70,0
2,note_on,72,0,120
2,note_on,60,0,0
2,note_on,73,71,120
2,note_on,61,67,0
2,note_on,61,0,120
2,note_on,73,0,0
2,note_on,74,71,120
2,note_on,62,67,0
2,note_on,62,0,120
2,note_on,74,0,0
2,note_on,63,68,120
2,note_on,75,72,0
2,note_on,75,0,120
2,note_on,63,0,0
2,note_on,77,72,120
2,note_on,65,68,0
2,note_on,65,0,120
2,note_on,77,0,0
2,note_on,66,69,120
2,note_on,78,73,0
2,note_on,78,0,120
2,note_on,66,0,0
2,note_on,67,69,120
2,note_on,79,73,0
2,note_on,79,0,120
2,note_on,67,0,0
2,note_on,43,96,120
2,note_on,46,62,120
2,note_on,51,62,0
2,note_on,55,72,0
2,note_on,55,0,1680
2,note_on,43,0,0
2,note_on,46,0,0
2,note_on,51,0,0
2,note_on,41,87,0
2,note_on,46,57,120
2,note_on,50,57,0
2,note_on,53,68,0
2,note_on,53,0,1800
2,note_on,41,0,0
2,note_on,46,0,0
2,note_on,50,0,0
2,note_on,39,87,0
2,note_on,43,62,120
2,note_on,46,62,0
2,note_on,51,72,0
2,note_on,36,81,840
2,note_on,51,0,120
2,note_on,46,0,0
2,note_on,39,0,0
2,note_on,43,0,0
2,note_on,39,57,0
2,note_on,43,57,0
2,note_on,48,68,0
2,note_on,48,0,840
2,note_on,36,0,0
2,note_on,39,0,0
2,note_on,43,0,0
2,note_on,38,82,0
2,note_on,41,54,120
2,note_on,46,54,0
2,note_on,50,65,0
2,note_on,50,0,960
2,note_on,38,0,0
2,note_on,41,0,0
2,note_on,46,0,0
2,note_on,46,66,0
2,note_on,46,0,840
2,note_on,39,87,0
2,note_on,46,57,120
2,note_on,51,68,0
2,note_on,51,0,960
2,note_on,46,0,0
2,note_on,39,0,0
2,note_on,38,62,0
2,note_on,50,72,0
2,note_on,46,72,0
2,note_on,50,0,480
2,note_on,38,0,0
2,note_on,36,62,0
2,note_on,48,72,0
2,note_on,48,0,480
2,note_on,36,0,0
2,note_on,46,0,0
2,note_on,34,54,0
2,note_on,41,54,0
2,note_on,46,65,0
2,note_on,46,0,960
2,note_on,41,0,0
2,note_on,34,0,0
2,note_on,31,41,0
2,note_on,39,48,0
2,note_on,43,48,0
2,note_on,43,0,840
2,note_on,39,0,0
2,note_on,31,0,0
2,note_on,39,87,0
2,note_on,46,57,120
2,note_on,51,68,0
2,note_on,51,0,960
2,note_on,46,0,0
2,note_on,39,0,0
2,note_on,38,62,0
2,note_on,50,72,0
2,note_on,46,72,0
2,note_on,50,0,480
2,note_on,38,0,0
2,note_on,36,62,0
2,note_on,48,72,0
2,note_on,48,0,480
2,note_on,36,0,0
2,note_on,46,0,0
2,note_on,34,54,0
2,note_on,41,54,0
2,note_on,46,65,0
2,note_on,46,0,960
2,note_on,41,0,0
2,note_on,34,0,0
2,note_on,31,42,0
2,note_on,39,48,0
2,note_on,43,48,0
2,note_on,43,0,960
2,note_on,39,0,0
2,note_on,31,0,0
2,note_on,43,86,0
2,note_on,46,62,120
2,note_on,51,62,0
2,note_on,55,72,0
2,note_on,55,0,1680
2,note_on,43,0,0
2,note_on,46,0,0
2,note_on,51,0,0
2,note_on,41,87,0
2,note_on,46,57,120
2,note_on,50,57,0
2,note_on,53,68,0
2,note_on,53,0,1800
2,note_on,41,0,0
2,note_on,46,0,0
2,note_on,50,0,0
2,note_on,39,87,0
2,note_on,43,62,120
2,note_on,46,62,0
2,note_on,51,72,0
2,note_on,36,81,840
2,note_on,51,0,120
2,note_on,46,0,0
2,note_on,39,0,0
2,note_on,43,0,0
2,note_on,39,57,0
2,note_on,43,57,0
2,note_on,48,68,0
2,note_on,48,0,840
2,note_on,36,0,0
2,note_on,39,0,0
2,note_on,43,0,0
2,note_on,38,82,0
2,note_on,41,54,120
2,note_on,46,54,0
2,note_on,50,54,0
2,note_on,50,0,960
2,note_on,38,0,0
2,note_on,41,0,0
2,note_on,46,0,0
2,note_on,46,70,0
2,note_on,46,0,960
2,note_on,56,63,0
2,note_on,60,63,0
2,note_on,48,51,0
2,note_on,48,0,480
2,note_on,60,0,0
2,note_on,60,59,0
2,note_on,48,49,0
2,note_on,48,0,480
2,note_on,60,0,0
2,note_on,56,0,0
2,note_on,51,63,0
2,note_on,58,54,0
2,note_on,46,46,0
2,note_on,46,0,480
2,note_on,58,0,0
2,note_on,55,51,0
2,note_on,43,44,0
2,note_on,43,0,480
2,note_on,55,0,0
2,note_on,51,0,0
2,note_on,51,51,0
2,note_on,44,52,0
2,note_on,56,59,0
2,note_on,56,0,480
2,note_on,44,0,0
2,note_on,56,51,0
2,note_on,44,39,0
2,note_on,44,0,480
2,note_on,56,0,0
2,note_on,53,53,0
2,note_on,41,41,0
2,note_on,41,0,480
2,note_on,53,0,0
2,note_on,44,39,0
2,note_on,56,51,0
2,note_on,56,0,480
2,note_on,44,0,0
2,note_on,51,0,0
2,note_on,51,56,0
2,note_on,43,54,0
2,note_on,55,65,0
2,note_on,55,0,960
2,note_on,43,0,0
2,note_on,41,50,0
2,note_on,53,60,0
2,note_on,53,0,480
2,note_on,41,0,0
2,note_on,51,0,0
2,note_on,39,51,0
2,note_on,51,62,0
2,note_on,51,0,480
2,note_on,39,0,0
2,note_on,53,51,0
2,note_on,56,51,0
2,note_on,60,62,0
2,note_on,60,0,1920
2,note_on,56,0,0
2,note_on,53,0,0
2,note_on,50,53,0
2,note_on,53,53,0
2,note_on,62,64,0
2,note_on,58,64,0
2,note_on,58,0,960
2,note_on,50,0,0
2,note_on,53,0,0
2,note_on,62,0,0
2,note_on,63,59,0
2,note_on,55,49,0
2,note_on,48,49,0
2,note_on,48,0,840
2,note_on,55,0,0
2,note_on,63,0,0
2,note_on,32,72,0
2,note_on,32,0,120
2,note_on,60,67,0
2,note_on,48,56,0
2,note_on,48,0,480
2,note_on,60,0,0
2,note_on,60,63,0
2,note_on,48,51,0
2,note_on,48,0,480
2,note_on,60,0,0
2,note_on,51,45,0
2,note_on,58,60,0
2,note_on,46,50,0
2,note_on,46,0,480
2,note_on,58,0,0
2,note_on,56,57,0
2,note_on,44,48,0
2,note_on,44,0,480
2,note_on,56,0,0
2,note_on,51,0,0
2,note_on,51,54,0
2,note_on,43,52,0
2,note_on,55,63,0
2,note_on,55,0,960
2,note_on,43,0,0
2,note_on,41,52,0
2,note_on,53,63,0
2,note_on,53,0,480
2,note_on,41,0,0
2,note_on,51,0,0
2,note_on,39,54,0
2,note_on,51,65,0
2,note_on,51,0,480
2,note_on,39,0,0
2,note_on,44,56,0
2,note_on,56,68,0
2,note_on,56,0,1920
2,note_on,44,0,0
2,note_on,43,60,0
2,note_on,55,71,0
2,note_on,55,0,1920
2,note_on,43,0,0
2,note_on,27,85,0
2,note_on,39,90,0
2,note_on,43,63,120
2,note_on,46,63,0
2,note_on,51,76,0
2,note_on,55,76,0
2,note_on,55,0,1680
2,note_on,39,0,0
2,note_on,43,0,0
2,note_on,27,0,0
2,note_on,51,0,0
2,note_on,46,0,0
2,note_on,27,76,0
2,note_on,39,90,0
2,note_on,41,62,120
2,note_on,46,62,0
2,note_on,50,62,0
2,note_on,53,71,0
2,note_on,53,0,1800
2,note_on,39,0,0
2,note_on,41,0,0
2,note_on,27,0,0
2,note_on,50,0,0
2,note_on,46,0,0
2,note_on,29,84,0
2,note_on,39,63,120
2,note_on,43,63,0
2,note_on,46,76,0
2,note_on,51,76,0
2,note_on,51,0,960
2,note_on,43,0,0
2,note_on,29,0,0
2,note_on,39,0,0
2,note_on,46,0,0
2,note_on,36,62,0
2,note_on,39,62,0
2,note_on,43,71,0
2,note_on,48,71,0
2,note_on,48,0,960
2,note_on,36,0,0
2,note_on,39,0,0
2,note_on,43,0,0
2,note_on,38,57,0
2,note_on,41,57,0
2,note_on,46,68,0
2,note_on,50,68,0
2,note_on,50,0,960
2,note_on,38,0,0
2,note_on,41,0,0
2,note_on,46,0,0
2,note_on,34,63,0
2,note_on,46,72,0
2,note_on,46,0,840
2,note_on,34,0,0
2,note_on,27,76,0
2,note_on,39,90,0
2,note_on,43,71,120
2,note_on,55,71,0
2,note_on,46,71,0
2,note_on,46,0,960
2,note_on,43,0,0
2,note_on,55,0,0
2,note_on,38,63,0
2,note_on,50,75,0
2,note_on,46,75,0
2,note_on,50,0,480
2,note_on,38,0,0
2,note_on,36,63,0
2,note_on,48,75,0
2,note_on,48,0,480
2,note_on,46,0,0
2,note_on,36,0,0
2,note_on,34,50,0
2,note_on,43,62,0
2,note_on,46,62,0
2,note_on,46,0,960
2,note_on,34,0,0
2,note_on,43,0,0
2,note_on,38,45,0
2,note_on,46,54,0
2,note_on,50,54,0
2,note_on,50,0,840
2,note_on,38,0,0
2,note_on,27,0,0
2,note_on,39,0,0
2,note_on,46,0,0
2,note_on,27,76,0
2,note_on,39,81,0
2,note_on,46,71,120
2,note_on,51,71,0
2,note_on,51,0,960
2,note_on,46,0,0
2,note_on,38,63,0
2,note_on,50,75,0
2,note_on,46,75,0
2,note_on,50,0,480
2,note_on,38,0,0
2,note_on,36,63,0
2,note_on,48,75,0
2,note_on,48,0,480
2,note_on,46,0,0
2,note_on,36,0,0
2,note_on,34,56,0
2,note_on,43,68,0
2,note_on,46,68,0
2,note_on,46,0,960
2,note_on,34,0,0
2,note_on,43,0,0
2,note_on,38,45,0
2,note_on,46,52,0
2,note_on,50,52,0
2,note_on,50,0,960
2,note_on,38,0,0
2,note_on,27,0,0
2,note_on,39,0,0
2,note_on,46,0,0
2,note_on,51,50,0
2,note_on,44,50,0
2,note_on,44,0,1920
2,note_on,51,0,0
2,note_on,44,42,0
2,note_on,51,42,0
2,note_on,51,0,960
2,note_on,44,0,0
2,note_on,47,41,0
2,note_on,56,41,0
2,note_on,56,0,960
2,note_on,47,0,0
2,note_on,49,43,0
2,note_on,56,43,0
2,note_on,56,0,960
2,note_on,49,0,0
2,note_on,47,43,0
2,note_on,59,43,0
2,note_on,59,0,960
2,note_on,47,0,0
2,note_on,52,45,0
2,note_on,59,45,0
2,note_on,59,0,1920
2,note_on,52,0,0
2,note_on,59,43,0
2,note_on,59,0,1920
2,note_on,59,43,0
2,note_on,56,43,0
2,note_on,56,0,960
2,note_on,59,0,0
2,note_on,61,44,0
2,note_on,54,44,0
2,note_on,54,0,960
2,note_on,61,0,0
2,note_on,52,46,0
2,note_on,64,46,0
2,note_on,64,0,960
2,note_on,52,0,0
2,note_on,52,43,0
2,note_on,64,43,0
2,note_on,64,0,960
2,note_on,52,0,0
2,note_on,57,45,0
2,note_on,64,45,0
2,note_on,64,0,960
2,note_on,57,0,0
2,note_on,52,46,0
2,note_on,64,46,0
2,note_on,64,0,960
2,note_on,52,0,0
2,note_on,64,47,0
2,note_on,57,47,0
2,note_on,57,0,1920
2,note_on,64,0,0
2,note_on,62,52,0
2,note_on,59,52,0
2,note_on,59,0,960
2,note_on,62,0,0
2,note_on,64,49,0
2,note_on,57,49,0
2,note_on,57,0,960
2,note_on,64,0,0
2,note_on,52,47,0
2,note_on,64,47,0
2,note_on,64,0,1920
2,note_on,52,0,0
2,note_on,57,48,0
2,note_on,61,48,0
2,note_on,61,0,960
2,note_on,57,0,0
2,note_on,52,47,0
2,note_on,59,47,0
2,note_on,59,0,960
2,note_on,52,0,0
2,note_on,57,45,0
2,note_on,54,45,0
2,note_on,54,0,960
2,note_on,57,0,0
2,note_on,49,41,0
2,note_on,56,41,0
2,note_on,56,0,960
2,note_on,49,0,0
2,note_on,51,47,0
2,note_on,54,47,0
2,note_on,54,0,1920
2,note_on,51,0,0
2,note_on,52,43,0
2,note_on,56,43,0
2,note_on,56,0,1920
2,note_on,52,0,0
2,note_on,51,39,0
2,note_on,44,39,0
2,note_on,44,0,1920
2,note_on,51,0,0
2,note_on,44,36,0
2,note_on,51,36,0
2,note_on,51,0,960
2,note_on,44,0,0
2,note_on,44,34,0
2,note_on,51,34,0
2,note_on,51,0,840
2,note_on,44,0,0
2,note_on,39,81,0
2,note_on,43,72,120
2,note_on,46,72,0
2,note_on,51,88,0
2,note_on,51,0,1800
2,note_on,39,0,0
2,note_on,43,0,0
2,note_on,46,0,0
2,note_on,41,75,0
2,note_on,46,70,120
2,note_on,50,70,0
2,note_on,53,86,0
2,note_on,53,0,1800
2,note_on,41,0,0
2,note_on,46,0,0
2,note_on,50,0,0
2,note_on,43,80,0
2,note_on,46,70,120
2,note_on,51,70,0
2,note_on,55,87,0
2,note_on,55,0,840
2,note_on,43,0,0
2,note_on,46,0,0
2,note_on,51,0,0
2,note_on,39,66,0
2,note_on,46,67,120
2,note_on,51,82,0
2,note_on,51,0,360
2,note_on,46,0,0
2,note_on,39,0,0
2,note_on,43,63,0
2,note_on,46,64,120
2,note_on,55,80,0
2,note_on,55,0,360
2,note_on,46,0,0
2,note_on,43,0,0
2,note_on,41,63,0
2,note_on,46,63,120
2,note_on,53,79,0
2,note_on,53,0,840
2,note_on,46,0,0
2,note_on,41,0,0
2,note_on,34,54,0
2,note_on,38,59,120
2,note_on,46,71,0
2,note_on,46,0,960
2,note_on,38,0,0
2,note_on,34,0,0
2,note_on,43,67,0
2,note_on,46,67,0
2,note_on,55,82,0
2,note_on,55,0,480
2,note_on,46,0,0
2,note_on,43,0,0
2,note_on,51,63,0
2,note_on,46,63,0
2,note_on,58,76,0
2,note_on,58,0,480
2,note_on,46,0,0
2,note_on,51,0,0
2,note_on,46,65,0
2,note_on,41,65,0
2,note_on,53,81,0
2,note_on,53,0,480
2,note_on,41,0,0
2,note_on,39,63,0
2,note_on,51,79,0
2,note_on,51,0,360
2,note_on,39,0,0
2,note_on,46,0,0
2,note_on,38,63,0
2,note_on,46,63,120
2,note_on,50,79,0
2,note_on,50,0,840
2,note_on,46,0,0
2,note_on,38,0,0
2,note_on,34,54,0
2,note_on,43,54,120
2,note_on,46,68,0
2,note_on,46,0,960
2,note_on,43,0,0
2,note_on,34,0,0
2,note_on,43,67,0
2,note_on,55,82,0
2,note_on,51,67,0
2,note_on,55,0,480
2,note_on,43,0,0
2,note_on,46,63,0
2,note_on,58,76,0
2,note_on,58,0,480
2,note_on,46,0,0
2,note_on,51,0,0
2,note_on,46,65,0
2,note_on,41,65,0
2,note_on,53,81,0
2,note_on,53,0,480
2,note_on,41,0,0
2,note_on,39,63,0
2,note_on,51,79,0
2,note_on,51,0,360
2,note_on,39,0,0
2,note_on,46,0,0
2,note_on,38,64,0
2,note_on,46,63,120
2,note_on,50,79,0
2,note_on,50,0,840
2,note_on,46,0,0
2,note_on,38,0,0
2,note_on,34,54,0
2,note_on,43,54,120
2,note_on,46,68,0
2,note_on,63,72,959
2,note_on,46,0,1
2,note_on,34,0,0
2,note_on,43,0,0
2,note_on,75,82,0
2,note_on,63,0,239
2,note_on,62,68,0
2,note_on,75,0,1
2,note_on,74,75,0
2,note_on,62,0,239
2,note_on,74,0,1
2,note_on,72,82,0
2,note_on,60,72,3
2,note_on,58,67,235
2,note_on,72,0,2
2,note_on,70,73,0
2,note_on,60,0,3
2,note_on,58,0,235
2,note_on,70,0,2
2,note_on,56,72,0
2,note_on,68,82,0
2,note_on,55,67,238
2,note_on,68,0,2
2,note_on,56,0,0
2,note_on,67,73,0
2,note_on,55,0,238
2,note_on,67,0,2
2,note_on,65,82,0
2,note_on,53,82,2
2,note_on,51,66,236
2,note_on,65,0,2
2,note_on,63,72,0
2,note_on,53,0,2
2,note_on,51,0,236
2,note_on,50,72,0
2,note_on,63,0,2
2,note_on,62,82,0
2,note_on,50,0,238
2,note_on,62,0,2
2,note_on,60,72,0
2,note_on,48,65,3
2,note_on,46,72,236
2,note_on,60,0,1
2,note_on,58,82,0
2,note_on,48,0,3
2,note_on,46,0,236
2,note_on,44,68,0
2,note_on,58,0,1
2,note_on,56,75,0
2,note_on,44,0,239
2,note_on,56,0,1
2,note_on,55,82,0
2,note_on,43,72,1
2,note_on,55,0,239
2,note_on,53,73,0
2,note_on,43,0,1
2,note_on,41,67,1
2,note_on,53,0,238
2,note_on,51,82,0
2,note_on,41,0,2
2,note_on,39,72,1
2,note_on,51,0,237
2,note_on,50,72,0
2,note_on,38,66,2
2,note_on,39,0,1
2,note_on,50,0,237
2,note_on,36,82,0
2,note_on,48,82,0
2,note_on,38,0,2
2,note_on,34,65,237
2,note_on,48,0,1
2,note_on,36,0,0
2,note_on,46,72,0
2,note_on,34,0,239
2,note_on,46,0,1
2,note_on,44,76,0
2,note_on,32,68,2
2,note_on,44,0,238
2,note_on,31,60,0
2,note_on,43,68,0
2,note_on,32,0,2
2,note_on,43,0,238
2,note_on,31,0,0
2,note_on,29,67,0
2,note_on,41,73,0
2,note_on,41,0,240
2,note_on,29,0,0
2,note_on,39,65,0
2,note_on,27,57,3
2,note_on,39,0,237
2,note_on,38,72,0
2,note_on,26,66,2
2,note_on,27,0,1
2,note_on,24,56,235
2,note_on,38,0,2
2,note_on,36,63,0
2,note_on,26,0,2
2,note_on,24,0,236
2,note_on,36,0,2
2,note_on,38,66,0
2,note_on,26,57,1
2,note_on,38,0,239
2,note_on,27,51,0
2,note_on,39,59,0
2,note_on,26,0,1
2,note_on,39,0,239
2,note_on,27,0,0
2,note_on,41,67,0
2,note_on,29,59,2
2,note_on,41,0,238
2,note_on,43,62,0
2,note_on,31,54,1
2,note_on,29,0,1
2,note_on,43,0,238
2,note_on,45,68,0
2,note_on,31,0,1
2,note_on,33,60,0
2,note_on,45,0,239
2,note_on,34,56,0
2,note_on,46,63,0
2,note_on,33,0,1
2,note_on,36,62,237
2,note_on,46,0,2
2,note_on,34,0,0
2,note_on,48,70,0
2,note_on,36,0,238
2,note_on,38,57,1
2,note_on,48,0,1
2,note_on,50,66,0
2,note_on,38,0,239
2,note_on,50,0,1
2,note_on,39,62,0
2,note_on,51,70,0
2,note_on,51,0,240
2,note_on,39,0,0
2,note_on,53,67,0
2,note_on,41,59,2
2,note_on,53,0,238
2,note_on,55,72,0
2,note_on,43,66,1
2,note_on,41,0,1
2,note_on,55,0,238
2,note_on,56,67,0
2,note_on,43,0,1
2,note_on,44,59,2
2,note_on,56,0,237
2,note_on,58,76,0
2,note_on,46,68,2
2,note_on,44,0,1
2,note_on,58,0,237
2,note_on,48,70,0
2,note_on,60,70,0
2,note_on,46,0,2
2,note_on,50,72,237
2,note_on,60,0,1
2,note_on,48,0,0
2,note_on,62,81,0
2,note_on,50,0,239
2,note_on,62,0,1
2,note_on,58,76,0
2,note_on,46,68,1
2,note_on,58,0,239
2,note_on,44,71,0
2,note_on,56,80,0
2,note_on,46,0,1
2,note_on,43,68,237
2,note_on,56,0,2
2,note_on,44,0,0
2,note_on,55,75,0
2,note_on,43,0,238
2,note_on,55,0,2
2,note_on,53,75,0
2,note_on,41,68,2
2,note_on,53,0,238
2,note_on,51,72,0
2,note_on,39,63,1
2,note_on,41,0,1
2,note_on,38,67,236
2,note_on,51,0,2
2,note_on,50,73,0
2,note_on,39,0,1
2,note_on,38,0,237
2,note_on,50,0,2
2,note_on,48,68,0
2,note_on,36,60,3
2,note_on,34,66,235
2,note_on,48,0,2
2,note_on,46,72,0
2,note_on,36,0,3
2,note_on,34,0,235
2,note_on,46,0,2
2,note_on,44,59,0
2,note_on,32,59,3
2,note_on,44,0,237
2,note_on,43,72,0
2,note_on,31,65,2
2,note_on,32,0,1
2,note_on,29,57,236
2,note_on,43,0,1
2,note_on,41,65,0
2,note_on,31,0,2
2,note_on,29,0,237
2,note_on,41,0,1
2,note_on,27,65,0
2,note_on,39,72,0
2,note_on,26,57,238
2,note_on,39,0,2
2,note_on,27,0,0
2,note_on,38,66,0
2,note_on,26,0,238
2,note_on,38,0,2
2,note_on,39,72,0
2,note_on,27,63,3
2,note_on,39,0,237
2,note_on,40,66,0
2,note_on,28,57,2
2,note_on,27,0,1
2,note_on,29,62,235
2,note_on,40,0,2
2,note_on,41,70,0
2,note_on,28,0,2
2,note_on,29,0,236
2,note_on,41,0,2
2,note_on,43,65,0
2,note_on,31,57,3
2,note_on,43,0,237
2,note_on,44,67,0
2,note_on,32,59,2
2,note_on,31,0,1
2,note_on,44,0,237
2,note_on,46,63,0
2,note_on,34,56,1
2,note_on,32,0,1
2,note_on,36,70,237
2,note_on,46,0,1
2,note_on,48,70,0
2,note_on,34,0,1
2,note_on,36,0,238
2,note_on,38,65,0
2,note_on,48,0,1
2,note_on,50,65,0
2,note_on,38,0,239
2,note_on,50,0,1
2,note_on,51,72,0
2,note_on,39,65,2
2,note_on,51,0,238
2,note_on,41,57,0
2,note_on,53,66,0
2,note_on,39,0,2
2,note_on,43,68,236
2,note_on,53,0,2
2,note_on,41,0,0
2,note_on,55,75,0
2,note_on,43,0,238
2,note_on,55,0,2
2,note_on,56,68,0
2,note_on,44,60,1
2,note_on,56,0,239
2,note_on,58,79,0
2,note_on,44,0,1
2,note_on,46,70,1
2,note_on,58,0,238
2,note_on,48,63,0
2,note_on,60,72,0
2,note_on,46,0,2
2,note_on,50,72,237
2,note_on,60,0,1
2,note_on,48,0,0
2,note_on,62,81,0
2,note_on,50,0,239
2,note_on,62,0,1
2,note_on,63,72,0
2,note_on,51,66,1
2,note_on,63,0,239
2,note_on,65,84,0
2,note_on,51,0,1
2,note_on,53,73,1
2,note_on,65,0,238
2,note_on,67,75,0
2,note_on,53,0,2
2,note_on,55,68,0
2,note_on,67,0,238
2,note_on,68,88,0
2,note_on,55,0,2
2,note_on,56,79,0
2,note_on,68,0,238
2,note_on,58,72,0
2,note_on,70,81,0
2,note_on,56,0,2
2,note_on,70,0,238
2,note_on,58,0,0
2,note_on,58,59,0
2,note_on,51,59,0
2,note_on,51,0,1920
2,note_on,58,0,0
2,note_on,51,54,0
2,note_on,58,54,0
2,note_on,58,0,960
2,note_on,51,0,0
2,note_on,54,52,0
2,note_on,63,52,0
2,note_on,63,0,960
2,note_on,54,0,0
2,note_on,56,54,0
2,note_on,63,54,0
2,note_on,63,0,960
2,note_on,56,0,0
2,note_on,54,54,0
2,note_on,66,54,0
2,note_on,66,0,960
2,note_on,54,0,0
2,note_on,59,54,0
2,note_on,66,54,0
2,note_on,66,0,1920
2,note_on,59,0,0
2,note_on,66,54,0
2,note_on,66,0,1920
2,note_on,66,52,0
2,note_on,63,52,0
2,note_on,63,0,960
2,note_on,66,0,0
2,note_on,68,54,0
2,note_on,61,54,0
2,note_on,61,0,960
2,note_on,68,0,0
2,note_on,59,57,0
2,note_on,71,57,0
2,note_on,71,0,960
2,note_on,59,0,0
2,note_on,59,52,0
2,note_on,71,52,0
2,note_on,71,0,960
2,note_on,59,0,0
2,note_on,64,54,0
2,note_on,71,54,0
2,note_on,71,0,960
2,note_on,64,0,0
2,note_on,59,57,0
2,note_on,71,57,0
2,note_on,71,0,960
2,note_on,59,0,0
2,note_on,71,59,0
2,note_on,64,59,0
2,note_on,64,0,1920
2,note_on,71,0,0
2,note_on,69,63,0
2,note_on,66,63,0
2,note_on,66,0,960
2,note_on,69,0,0
2,note_on,71,59,0
2,note_on,64,59,0
2,note_on,64,0,960
2,note_on,71,0,0
2,note_on,59,56,0
2,note_on,71,56,0
2,note_on,71,0,1920
2,note_on,59,0,0
2,note_on,64,54,0
2,note_on,68,54,0
2,note_on,68,0,960
2,note_on,64,0,0
2,note_on,59,53,0
2,note_on,66,53,0
2,note_on,66,0,960
2,note_on,59,0,0
2,note_on,64,50,0
2,note_on,61,50,0
2,note_on,61,0,960
2,note_on,64,0,0
2,note_on,56,45,0
2,note_on,63,45,0
2,note_on,63,0,960
2,note_on,56,0,0
2,note_on,58,51,0
2,note_on,61,51,0
2,note_on,61,0,1920
2,note_on,58,0,0
2,note_on,59,45,0
2,note_on,63,45,0
2,note_on,63,0,1920
2,note_on,59,0,0
2,note_on,58,41,0
2,note_on,51,41,0
2,note_on,51,0,1920
2,note_on,58,0,0
2,note_on,51,37,0
2,note_on,58,37,0
2,note_on,58,0,960
2,note_on,51,0,0
2,note_on,51,34,0
2,note_on,58,34,0
2,note_on,58,0,960
2,note_on,51,0,0
2,note_on,59,71,0
2,note_on,44,79,960
2,note_on,44,0,960
2,note_on,59,0,0
2,note_on,56,71,0
2,note_on,35,79,960
2,note_on,35,0,960
2,note_on,56,0,0
2,note_on,59,71,0
2,note_on,44,77,960
2,note_on,44,0,960
2,note_on,59,0,0
2,note_on,56,71,0
2,note_on,35,79,960
2,note_on,35,0,960
2,note_on,56,0,0
2,note_on,63,71,0
2,note_on,59,71,0
2,note_on,53,71,0
2,note_on,44,80,960
2,note_on,44,0,960
2,note_on,63,0,0
2,note_on,59,0,0
2,note_on,53,0,0
2,note_on,52,71,0
2,note_on,63,71,0
2,note_on,56,71,0
2,note_on,35,71,960
2,note_on,35,0,960
2,note_on,52,0,0
2,note_on,63,0,0
2,note_on,56,0,0
2,note_on,53,71,0
2,note_on,59,71,0
2,note_on,63,71,0
2,note_on,44,84,960
2,note_on,44,0,960
2,note_on,53,0,0
2,note_on,59,0,0
2,note_on,63,0,0
2,note_on,52,71,0
2,note_on,63,71,0
2,note_on,56,71,0
2,note_on,35,73,960
2,note_on,35,0,960
2,note_on,52,0,0
2,note_on,63,0,0
2,note_on,56,0,0
2,note_on,53,71,0
2,note_on,59,71,0
2,note_on,63,71,0
2,note_on,44,82,960
2,note_on,44,0,960
2,note_on,53,0,0
2,note_on,59,0,0
2,note_on,63,0,0
2,note_on,52,71,0
2,note_on,63,71,0
2,note_on,56,71,0
2,note_on,35,75,960
2,note_on,35,0,960
2,note_on,52,0,0
2,note_on,63,0,0
2,note_on,56,0,0
2,note_on,53,72,0
2,note_on,59,72,0
2,note_on,63,72,0
2,note_on,44,82,960
2,note_on,44,0,960
2,note_on,53,0,0
2,note_on,59,0,0
2,note_on,63,0,0
2,note_on,52,73,0
2,note_on,63,73,0
2,note_on,56,73,0
2,note_on,35,75,960
2,note_on,35,0,960
2,note_on,52,0,0
2,note_on,63,0,0
2,note_on,56,0,0
2,note_on,63,80,0
2,note_on,34,77,960
2,note_on,34,0,960
2,note_on,63,0,0
2,note_on,63,77,0
2,note_on,34,76,960
2,note_on,34,0,960
2,note_on,63,0,0
2,note_on,63,79,0
2,note_on,34,77,960
2,note_on,34,0,960
2,note_on,63,0,0
2,note_on,63,81,0
2,note_on,34,77,960
2,note_on,34,0,960
2,note_on,63,0,0
2,note_on,63,82,0
2,note_on,34,80,960
2,note_on,34,0,960
2,note_on,63,0,0
2,note_on,63,82,0
2,note_on,34,79,960
2,note_on,34,0,960
2,note_on,63,0,0
2,note_on,63,82,0
2,note_on,34,80,960
2,note_on,34,0,960
2,note_on,63,0,0
2,note_on,63,82,0
2,note_on,34,80,960
2,note_on,34,0,960
2,note_on,63,0,0
2,note_on,63,82,0
2,note_on,63,0,1920
2,note_on,34,85,0
2,note_on,34,0,1920
2,note_on,63,89,0
2,note_on,34,83,960
2,note_on,34,0,960
2,note_on,63,0,0
2,note_on,63,89,0
2,note_on,34,83,960
2,note_on,34,0,960
2,note_on,63,0,0
2,note_on,63,87,0
2,note_on,63,0,960
2,note_on,34,83,0
2,note_on,34,0,960
2,note_on,63,90,0
2,note_on,63,0,960
2,note_on,34,83,0
2,note_on,34,0,960
2,note_on,58,59,0
2,note_on,65,59,0
2,note_on,63,59,0
2,note_on,70,82,0
2,note_on,27,65,960
2,note_on,39,82,0
2,note_on,70,0,720
2,note_on,63,0,0
2,note_on,58,0,0
2,note_on,65,0,0
2,note_on,39,0,240
2,note_on,27,0,0
2,note_on,58,60,0
2,note_on,63,60,0
2,note_on,65,60,0
2,note_on,70,84,0
2,note_on,27,68,960
2,note_on,39,86,0
2,note_on,70,0,720
2,note_on,65,0,0
2,note_on,58,0,0
2,note_on,63,0,0
2,note_on,39,0,240
2,note_on,27,0,0
2,note_on,58,62,0
2,note_on,63,62,0
2,note_on,65,62,0
2,note_on,70,87,0
2,note_on,27,70,960
2,note_on,39,89,0
2,note_on,70,0,720
2,note_on,65,0,0
2,note_on,58,0,0
2,note_on,63,0,0
2,note_on,39,0,240
2,note_on,27,0,0
2,note_on,58,64,0
2,note_on,63,64,0
2,note_on,65,64,0
2,note_on,70,90,0
2,note_on,27,72,960
2,note_on,39,91,0
2,note_on,70,0,720
2,note_on,65,0,0
2,note_on,58,0,0
2,note_on,63,0,0
2,note_on,92,68,238
2,note_on,39,0,2
2,note_on,27,0,0
2,note_on,92,0,118
2,note_on,91,60,2
2,note_on,91,0,120
2,note_on,89,64,3
2,note_on,87,59,115
2,note_on,89,0,5
2,note_on,87,0,115
2,note_on,86,63,3
2,note_on,86,0,120
2,note_on,84,57,0
2,note_on,82,63,119
2,note_on,84,0,1
2,note_on,80,57,117
2,note_on,82,0,2
2,note_on,80,0,118
2,note_on,79,63,5
2,note_on,79,0,120
2,note_on,77,57,0
2,note_on,75,63,118
2,note_on,77,0,2
2,note_on,74,56,117
2,note_on,75,0,1
2,note_on,74,0,119
2,note_on,72,62,0
2,note_on,72,0,120
2,note_on,70,54,0
2,note_on,70,0,120
2,note_on,68,62,3
2,note_on,67,54,116
2,note_on,68,0,4
2,note_on,67,0,116
2,note_on,65,61,1
2,note_on,63,54,119
2,note_on,65,0,1
2,note_on,63,0,119
2,note_on,62,61,4
2,note_on,60,54,116
2,note_on,62,0,4
2,note_on,60,0,116
2,note_on,58,61,3
2,note_on,56,54,119
2,note_on,58,0,1
2,note_on,55,61,117
2,note_on,56,0,2
2,note_on,55,0,118
2,note_on,53,54,3
2,note_on,53,0,120
2,note_on,51,61,1
2,note_on,50,54,117
2,note_on,51,0,3
2,note_on,50,0,117
2,note_on,48,61,1
2,note_on,48,0,120
2,note_on,46,54,2
2,note_on,44,57,115
2,note_on,46,0,5
2,note_on,44,0,115
2,note_on,43,53,5
2,note_on,41,59,118
2,note_on,43,0,2
2,note_on,39,59,115
2,note_on,41,0,3
2,note_on,39,0,117
2,note_on,38,61,3
2,note_on,38,0,120
2,note_on,36,54,0
2,note_on,36,0,120
2,note_on,34,62,0
2,note_on,32,57,118
2,note_on,34,0,2
2,note_on,32,0,118
2,note_on,31,63,4
2,note_on,29,54,115
2,note_on,31,0,5
2,note_on,29,0,115
2,note_on,27,63,0
2,note_on,27,0,120
2,note_on,26,63,4
2,note_on,24,57,117
2,note_on,26,0,3
2,note_on,24,0,117
2,note_on,31,65,1321
2,note_on,34,65,0
2,note_on,39,80,0
2,note_on,43,80,0
2,note_on,43,0,317
2,note_on,31,0,0
2,note_on,34,0,0
2,note_on,39,0,0
2,note_on,51,64,3
2,note_on,55,73,0
2,note_on,55,0,317
2,note_on,51,0,0
2,note_on,31,69,3
2,note_on,43,82,0
2,note_on,43,0,317
2,note_on,31,0,0
2,note_on,51,53,3
2,note_on,55,65,0
2,note_on,55,0,317
2,note_on,51,0,0
2,note_on,31,66,3
2,note_on,34,66,0
2,note_on,39,79,0
2,note_on,43,79,0
2,note_on,43,0,317
2,note_on,31,0,0
2,note_on,34,0,0
2,note_on,39,0,0
2,note_on,51,54,3
2,note_on,55,67,0
2,note_on,55,0,317
2,note_on,51,0,0
2,note_on,29,63,3
2,note_on,34,63,0
2,note_on,38,63,0
2,note_on,41,78,0
2,note_on,41,0,317
2,note_on,29,0,0
2,note_on,34,0,0
2,note_on,38,0,0
2,note_on,58,63,3
2,note_on,50,50,0
2,note_on,53,50,0
2,note_on,53,0,317
2,note_on,50,0,0
2,note_on,58,0,0
2,note_on,29,61,3
2,note_on,41,72,0
2,note_on,41,0,317
2,note_on,29,0,0
2,note_on,58,65,3
2,note_on,50,52,0
2,note_on,53,65,0
2,note_on,53,0,317
2,note_on,50,0,0
2,note_on,58,0,0
2,note_on,29,59,3
2,note_on,34,59,0
2,note_on,38,70,0
2,note_on,41,70,0
2,note_on,41,0,317
2,note_on,29,0,0
2,note_on,34,0,0
2,note_on,38,0,0
2,note_on,58,65,3
2,note_on,50,54,0
2,note_on,53,54,0
2,note_on,53,0,317
2,note_on,50,0,0
2,note_on,58,0,0
2,note_on,27,63,3
2,note_on,31,63,0
2,note_on,34,77,0
2,note_on,39,77,0
2,note_on,39,0,317
2,note_on,27,0,0
2,note_on,31,0,0
2,note_on,34,0,0
2,note_on,63,69,3
2,note_on,55,56,0
2,note_on,58,56,0
2,note_on,58,0,317
2,note_on,55,0,0
2,note_on,63,0,0
2,note_on,27,72,3
2,note_on,39,86,0
2,note_on,39,0,317
2,note_on,27,0,0
2,note_on,48,81,3
2,note_on,43,81,0
2,note_on,36,69,0
2,note_on,39,69,0
2,note_on,39,0,317
2,note_on,48,0,0
2,note_on,43,0,0
2,note_on,36,0,0
2,note_on,60,69,3
2,note_on,51,56,0
2,note_on,55,56,0
2,note_on,55,0,317
2,note_on,51,0,0
2,note_on,60,0,0
2,note_on,39,56,3
2,note_on,51,71,0
2,note_on,51,0,317
2,note_on,39,0,0
2,note_on,50,76,3
2,note_on,46,76,0
2,note_on,38,65,0
2,note_on,41,65,0
2,note_on,41,0,317
2,note_on,50,0,0
2,note_on,46,0,0
2,note_on,38,0,0
2,note_on,50,63,3
2,note_on,53,63,0
2,note_on,53,0,314
2,note_on,50,0,0
2,note_on,53,64,6
2,note_on,58,64,0
2,note_on,58,0,314
2,note_on,53,0,0
2,note_on,58,67,6
2,note_on,62,67,0
2,note_on,62,0,314
2,note_on,58,0,0
2,note_on,65,68,6
2,note_on,62,68,0
2,note_on,62,0,314
2,note_on,65,0,0
2,note_on,65,70,6
2,note_on,70,70,0
2,note_on,70,0,314
2,note_on,65,0,0
2,note_on,39,65,6
2,note_on,46,77,0
2,note_on,51,77,0
2,note_on,51,0,475
2,note_on,46,0,0
2,note_on,39,0,0
2,note_on,43,57,5
2,note_on,51,70,0
2,note_on,55,70,0
2,note_on,55,0,475
2,note_on,51,0,0
2,note_on,43,0,0
2,note_on,38,54,5
2,note_on,50,66,0
2,note_on,43,66,0
2,note_on,43,0,475
2,note_on,50,0,0
2,note_on,38,0,0
2,note_on,36,51,5
2,note_on,43,72,0
2,note_on,48,72,0
2,note_on,48,0,475
2,note_on,43,0,0
2,note_on,36,0,0
2,note_on,46,75,5
2,note_on,34,65,0
2,note_on,43,75,0
2,note_on,43,0,317
2,note_on,34,0,0
2,note_on,46,0,0
2,note_on,50,63,3
2,note_on,53,63,0
2,note_on,53,0,317
2,note_on,50,0,0
2,note_on,53,64,3
2,note_on,58,64,0
2,note_on,58,0,314
2,note_on,53,0,0
2,note_on,58,67,6
2,note_on,62,67,0
2,note_on,62,0,314
2,note_on,58,0,0
2,note_on,65,68,6
2,note_on,62,68,0
2,note_on,62,0,314
2,note_on,65,0,0
2,note_on,65,70,6
2,note_on,70,70,0
2,note_on,70,0,314
2,note_on,65,0,0
2,note_on,39,65,6
2,note_on,46,77,0
2,note_on,51,77,0
2,note_on,51,0,475
2,note_on,46,0,0
2,note_on,39,0,0
2,note_on,43,57,5
2,note_on,51,70,0
2,note_on,55,70,0
2,note_on,55,0,475
2,note_on,51,0,0
2,note_on,43,0,0
2,note_on,38,54,5
2,note_on,50,66,0
2,note_on,43,66,0
2,note_on,43,0,475
2,note_on,50,0,0
2,note_on,38,0,0
2,note_on,36,51,5
2,note_on,43,72,0
2,note_on,48,72,0
2,note_on,48,0,475
2,note_on,43,0,0
2,note_on,36,0,0
2,note_on,46,75,5
2,note_on,34,65,0
2,note_on,43,75,0
2,note_on,43,0,317
2,note_on,34,0,0
2,note_on,46,0,0
2,note_on,50,63,3
2,note_on,55,63,0
2,note_on,55,0,314
2,note_on,50,0,0
2,note_on,55,64,6
2,note_on,58,64,0
2,note_on,58,0,314
2,note_on,55,0,0
2,note_on,56,54,6
2,note_on,58,67,0
2,note_on,62,67,0
2,note_on,62,0,314
2,note_on,58,0,0
2,note_on,56,0,0
2,note_on,58,54,6
2,note_on,65,68,0
2,note_on,62,68,0
2,note_on,62,0,314
2,note_on,65,0,0
2,note_on,58,0,0
2,note_on,62,54,6
2,note_on,65,70,0
2,note_on,68,70,0
2,note_on,68,0,314
2,note_on,65,0,0
2,note_on,62,0,0
2,note_on,72,81,6
2,note_on,68,81,0
2,note_on,60,69,0
2,note_on,60,0,317
2,note_on,68,0,0
2,note_on,72,0,0
2,note_on,48,57,3
2,note_on,36,48,0
2,note_on,44,57,0
2,note_on,44,0,317
2,note_on,36,0,0
2,note_on,48,0,0
2,note_on,56,70,3
2,note_on,48,57,0
2,note_on,60,70,0
2,note_on,60,0,317
2,note_on,48,0,0
2,note_on,56,0,0
2,note_on,46,65,3
2,note_on,51,77,0
2,note_on,58,77,0
2,note_on,58,0,475
2,note_on,51,0,0
2,note_on,46,0,0
2,note_on,43,57,5
2,note_on,51,70,0
2,note_on,55,70,0
2,note_on,55,0,475
2,note_on,51,0,0
2,note_on,43,0,0
2,note_on,56,72,5
2,note_on,51,72,0
2,note_on,44,62,0
2,note_on,44,0,317
2,note_on,51,0,0
2,note_on,56,0,0
2,note_on,48,57,3
2,note_on,36,48,0
2,note_on,44,57,0
2,note_on,44,0,317
2,note_on,36,0,0
2,note_on,48,0,0
2,note_on,51,70,3
2,note_on,44,57,0
2,note_on,56,70,0
2,note_on,56,0,317
2,note_on,44,0,0
2,note_on,51,0,0
2,note_on,41,57,3
2,note_on,48,70,0
2,note_on,53,70,0
2,note_on,53,0,475
2,note_on,48,0,0
2,note_on,41,0,0
2,note_on,44,54,5
2,note_on,48,67,0
2,note_on,56,67,0
2,note_on,56,0,475
2,note_on,48,0,0
2,note_on,44,0,0
2,note_on,43,57,5
2,note_on,51,70,0
2,note_on,55,70,0
2,note_on,55,0,475
2,note_on,51,0,0
2,note_on,43,0,0
2,note_on,31,46,5
2,note_on,39,54,0
2,note_on,43,54,0
2,note_on,43,0,475
2,note_on,39,0,0
2,note_on,31,0,0
2,note_on,41,54,5
2,note_on,46,68,0
2,note_on,53,68,0
2,note_on,53,0,475
2,note_on,46,0,0
2,note_on,41,0,0
2,note_on,39,53,5
2,note_on,46,64,0
2,note_on,51,64,0
2,note_on,51,0,475
2,note_on,46,0,0
2,note_on,39,0,0
2,note_on,32,35,5
2,note_on,44,39,0
2,note_on,44,0,317
2,note_on,32,0,0
2,note_on,56,35,3
2,note_on,44,32,0
2,note_on,44,0,317
2,note_on,56,0,0
2,note_on,32,32,3
2,note_on,44,36,0
2,note_on,44,0,317
2,note_on,32,0,0
2,note_on,44,30,3
2,note_on,56,34,0
2,note_on,56,0,317
2,note_on,44,0,0
2,note_on,44,35,3
2,note_on,32,30,0
2,note_on,32,0,317
2,note_on,44,0,0
2,note_on,44,27,3
2,note_on,56,33,0
2,note_on,56,0,317
2,note_on,44,0,0
2,note_on,34,40,3
2,note_on,46,46,0
2,note_on,46,0,317
2,note_on,34,0,0
2,note_on,58,36,3
2,note_on,46,33,0
2,note_on,46,0,317
2,note_on,58,0,0
2,note_on,34,34,3
2,note_on,46,38,0
2,note_on,46,0,317
2,note_on,34,0,0
2,note_on,46,34,3
2,note_on,58,38,0
2,note_on,58,0,317
2,note_on,46,0,0
2,note_on,46,39,3
2,note_on,34,35,0
2,note_on,34,0,317
2,note_on,46,0,0
2,note_on,46,35,3
2,note_on,58,39,0
2,note_on,58,0,317
2,note_on,46,0,0
2,note_on,34,41,3
2,note_on,46,47,0
2,note_on,46,0,317
2,note_on,34,0,0
2,note_on,58,42,3
2,note_on,46,37,0
2,note_on,46,0,317
2,note_on,58,0,0
2,note_on,34,38,3
2,note_on,46,42,0
2,note_on,46,0,317
2,note_on,34,0,0
2,note_on,47,41,3
2,note_on,59,46,0
2,note_on,59,0,317
2,note_on,47,0,0
2,note_on,47,38,3
2,note_on,35,34,0
2,note_on,35,0,317
2,note_on,47,0,0
2,note_on,47,34,3
2,note_on,59,38,0
2,note_on,59,0,317
2,note_on,47,0,0
2,note_on,35,38,3
2,note_on,47,38,0
2,note_on,47,0,317
2,note_on,35,0,0
2,note_on,59,38,3
2,note_on,47,38,0
2,note_on,47,0,317
2,note_on,59,0,0
2,note_on,35,38,3
2,note_on,47,38,0
2,note_on,47,0,317
2,note_on,35,0,0
2,note_on,46,38,3
2,note_on,58,41,0
2,note_on,58,0,317
2,note_on,46,0,0
2,note_on,46,42,3
2,note_on,34,38,0
2,note_on,34,0,317
2,note_on,46,0,0
2,note_on,46,39,3
2,note_on,58,42,0
2,note_on,58,0,317
2,note_on,46,0,0
2,note_on,33,38,3
2,note_on,45,42,0
2,note_on,45,0,317
2,note_on,33,0,0
2,note_on,57,43,3
2,note_on,45,39,0
2,note_on,45,0,317
2,note_on,57,0,0
2,note_on,33,42,3
2,note_on,45,42,0
2,note_on,45,0,317
2,note_on,33,0,0
2,note_on,45,48,3
2,note_on,57,48,0
2,note_on,57,0,317
2,note_on,45,0,0
2,note_on,45,43,3
2,note_on,33,43,0
2,note_on,33,0,317
2,note_on,45,0,0
2,note_on,45,42,3
2,note_on,57,42,0
2,note_on,57,0,317
2,note_on,45,0,0
2,note_on,33,49,3
2,note_on,45,56,0
2,note_on,45,0,317
2,note_on,33,0,0
2,note_on,57,47,3
2,note_on,45,42,0
2,note_on,45,0,317
2,note_on,57,0,0
2,note_on,33,43,3
2,note_on,45,48,0
2,note_on,45,0,317
2,note_on,33,0,0
2,note_on,45,52,3
2,note_on,57,60,0
2,note_on,57,0,317
2,note_on,45,0,0
2,note_on,45,50,3
2,note_on,33,46,0
2,note_on,33,0,317
2,note_on,45,0,0
2,note_on,57,51,3
2,note_on,45,46,0
2,note_on,45,0,317
2,note_on,57,0,0
2,note_on,34,60,3
2,note_on,46,68,0
2,note_on,46,0,317
2,note_on,34,0,0
2,note_on,58,52,3
2,note_on,46,47,0
2,note_on,46,0,317
2,note_on,58,0,0
2,note_on,34,51,3
2,note_on,46,57,0
2,note_on,46,0,317
2,note_on,34,0,0
2,note_on,47,64,3
2,note_on,59,71,0
2,note_on,59,0,317
2,note_on,47,0,0
2,note_on,47,54,3
2,note_on,35,48,0
2,note_on,35,0,317
2,note_on,47,0,0
2,note_on,47,45,3
2,note_on,59,50,0
2,note_on,59,0,317
2,note_on,47,0,0
2,note_on,34,54,3
2,note_on,46,62,0
2,note_on,46,0,317
2,note_on,34,0,0
2,note_on,58,52,3
2,note_on,46,47,0
2,note_on,46,0,317
2,note_on,58,0,0
2,note_on,34,51,3
2,note_on,46,57,0
2,note_on,46,0,317
2,note_on,34,0,0
2,note_on,44,65,3
2,note_on,56,72,0
2,note_on,56,0,317
2,note_on,44,0,0
2,note_on,44,54,3
2,note_on,32,48,0
2,note_on,32,0,317
2,note_on,44,0,0
2,note_on,44,45,3
2,note_on,56,50,0
2,note_on,56,0,317
2,note_on,44,0,0
2,note_on,34,54,3
2,note_on,46,62,0
2,note_on,46,0,317
2,note_on,34,0,0
2,note_on,58,52,3
2,note_on,46,47,0
2,note_on,46,0,317
2,note_on,58,0,0
2,note_on,34,51,3
2,note_on,46,57,0
2,note_on,46,0,317
2,note_on,34,0,0
2,note_on,48,65,3
2,note_on,60,72,0
2,note_on,60,0,317
2,note_on,48,0,0
2,note_on,48,56,3
2,note_on,36,50,0
2,note_on,36,0,317
2,note_on,48,0,0
2,note_on,48,47,3
2,note_on,60,53,0
2,note_on,60,0,317
2,note_on,48,0,0
2,note_on,34,59,3
2,note_on,46,67,0
2,note_on,46,0,317
2,note_on,34,0,0
2,note_on,58,57,3
2,note_on,46,50,0
2,note_on,46,0,317
2,note_on,58,0,0
2,note_on,34,57,3
2,note_on,46,64,0
2,note_on,46,0,317
2,note_on,34,0,0
2,note_on,45,72,3
2,note_on,57,82,0
2,note_on,57,0,317
2,note_on,45,0,0
2,note_on,45,63,3
2,note_on,33,56,0
2,note_on,33,0,317
2,note_on,45,0,0
2,note_on,45,52,3
2,note_on,57,59,0
2,note_on,57,0,317
2,note_on,45,0,0
2,note_on,34,76,3
2,note_on,46,86,0
2,note_on,46,0,320
2,note_on,34,0,0
2,note_on,50,64,0
2,note_on,62,72,0
2,note_on,62,0,320
2,note_on,50,0,0
2,note_on,51,71,0
2,note_on,63,80,0
2,note_on,63,0,320
2,note_on,51,0,0
2,note_on,38,67,0
2,note_on,50,73,0
2,note_on,50,0,320
2,note_on,38,0,0
2,note_on,39,70,0
2,note_on,51,79,0
2,note_on,51,0,320
2,note_on,39,0,0
2,note_on,34,65,0
2,note_on,46,72,0
2,note_on,46,0,320
2,note_on,34,0,0
2,note_on,47,62,0
2,note_on,51,67,0
2,note_on,54,67,0
2,note_on,54,0,480
2,note_on,51,0,0
2,note_on,47,0,0
2,note_on,42,54,0
2,note_on,49,54,0
2,note_on,54,63,0
2,note_on,54,0,480
2,note_on,49,0,0
2,note_on,42,0,0
2,note_on,34,76,0
2,note_on,46,86,0
2,note_on,46,0,320
2,note_on,34,0,0
2,note_on,50,64,0
2,note_on,62,72,0
2,note_on,62,0,320
2,note_on,50,0,0
2,note_on,51,71,0
2,note_on,63,80,0
2,note_on,63,0,320
2,note_on,51,0,0
2,note_on,38,67,0
2,note_on,50,73,0
2,note_on,50,0,320
2,note_on,38,0,0
2,note_on,39,70,0
2,note_on,51,79,0
2,note_on,51,0,320
2,note_on,39,0,0
2,note_on,34,65,0
2,note_on,46,72,0
2,note_on,46,0,320
2,note_on,34,0,0
2,note_on,48,62,0
2,note_on,51,67,0
2,note_on,55,67,0
2,note_on,55,0,480
2,note_on,51,0,0
2,note_on,48,0,0
2,note_on,46,54,0
2,note_on,53,63,0
2,note_on,58,63,0
2,note_on,58,0,480
2,note_on,53,0,0
2,note_on,46,0,0
2,note_on,27,89,0
2,note_on,39,92,0
2,note_on,43,66,120
2,note_on,46,66,0
2,note_on,51,80,0
2,note_on,55,80,0
2,note_on,55,0,1680
2,note_on,39,0,0
2,note_on,43,0,0
2,note_on,27,0,0
2,note_on,51,0,0
2,note_on,46,0,0
2,note_on,27,80,0
2,note_on,39,91,0
2,note_on,41,63,120
2,note_on,46,63,0
2,note_on,50,63,0
2,note_on,53,75,0
2,note_on,53,0,1800
2,note_on,39,0,0
2,note_on,41,0,0
2,note_on,27,0,0
2,note_on,50,0,0
2,note_on,46,0,0
2,note_on,39,90,0
2,note_on,27,89,0
2,note_on,43,66,120
2,note_on,46,80,0
2,note_on,51,80,0
2,note_on,51,0,1920
2,note_on,43,0,0
2,note_on,39,0,0
2,note_on,27,0,0
2,note_on,46,0,0
2,note_on,36,63,0
2,note_on,39,63,0
2,note_on,43,75,0
2,note_on,48,75,0
2,note_on,48,0,960
2,note_on,36,0,0
2,note_on,39,0,0
2,note_on,43,0,0
2,note_on,39,61,0
2,note_on,43,61,0
2,note_on,48,70,0
2,note_on,51,70,0
2,note_on,51,0,960
2,note_on,39,0,0
2,note_on,43,0,0
2,note_on,48,0,0
2,note_on,38,61,0
2,note_on,41,61,0
2,note_on,46,70,0
2,note_on,50,70,0
2,note_on,50,0,1920
2,note_on,38,0,0
2,note_on,41,0,0
2,note_on,46,0,0
2,note_on,34,80,0
2,note_on,46,80,0
2,note_on,46,0,1800
2,note_on,34,0,0
2,note_on,53,82,0
2,note_on,56,82,0
2,note_on,56,0,120
2,note_on,53,0,0
2,note_on,29,77,0
2,note_on,41,77,0
2,note_on,41,0,1800
2,note_on,29,0,0
2,note_on,55,73,0
2,note_on,58,73,0
2,note_on,58,0,120
2,note_on,55,0,0
2,note_on,31,77,0
2,note_on,43,77,0
2,note_on,43,0,1800
2,note_on,31,0,0
2,note_on,51,73,0
2,note_on,58,73,0
2,note_on,58,0,120
2,note_on,51,0,0
2,note_on,27,77,0
2,note_on,39,86,0
2,note_on,39,0,960
2,note_on,27,0,0
2,note_on,55,67,0
2,note_on,58,67,0
2,note_on,58,0,960
2,note_on,55,0,0
2,note_on,27,77,0
2,note_on,39,86,0
2,note_on,39,0,960
2,note_on,27,0,0
2,note_on,55,67,0
2,note_on,58,67,0
2,note_on,58,0,960
2,note_on,55,0,0
2,note_on,27,70,0
2,note_on,27,0,120
2,note_on,39,62,0
2,note_on,39,0,120
2,note_on,27,70,0
2,note_on,27,0,120
2,note_on,39,59,0
2,note_on,39,0,120
2,note_on,27,70,0
2,note_on,27,0,120
2,note_on,39,63,0
2,note_on,39,0,120
2,note_on,27,71,0
2,note_on,27,0,120
2,note_on,39,62,0
2,note_on,39,0,120
2,note_on,27,70,0
2,note_on,27,0,120
2,note_on,39,62,0
2,note_on,39,0,120
2,note_on,27,71,0
2,note_on,27,0,120
2,note_on,39,64,0
2,note_on,39,0,120
2,note_on,27,73,0
2,note_on,27,0,120
2,note_on,39,65,0
2,note_on,39,0,120
2,note_on,27,76,0
2,note_on,27,0,120
2,note_on,39,66,0
2,note_on,39,0,120
2,note_on,27,79,0
2,note_on,27,0,120
2,note_on,39,70,0
2,note_on,39,0,120
2,note_on,27,81,0
2,note_on,27,0,120
2,note_on,39,72,0
2,note_on,39,0,120
2,note_on,27,83,0
2,note_on,27,0,120
2,note_on,39,77,0
2,note_on,39,0,120
2,note_on,27,86,0
2,note_on,27,0,120
2,note_on,39,80,0
2,note_on,39,0,120
2,note_on,27,88,0
2,note_on,27,0,120
2,note_on,39,80,0
2,note_on,39,0,120
2,note_on,27,91,0
2,note_on,27,0,120
2,note_on,39,84,0
2,note_on,39,0,120
2,note_on,27,99,0
2,note_on,27,0,120
2,note_on,39,89,0
2,note_on,39,0,120
2,note_on,27,103,0
2,note_on,27,0,120
2,note_on,39,92,0
2,note_on,39,0,120
2,note_on,27,96,0
2,note_on,39,104,0
2,note_on,39,0,1440
2,note_on,27,0,0
