Track,Message Type,Note,Velocity,Time
1,note_on,58,80,3780
1,note_on,58,0,60
1,note_on,65,88,0
1,note_on,65,0,480
1,note_on,64,80,360
1,note_on,64,0,60
1,note_on,65,80,0
1,note_on,65,0,60
1,note_on,64,92,0
1,note_on,64,0,1440
1,note_on,57,80,480
1,note_on,57,0,160
1,note_on,58,80,0
1,note_on,58,0,160
1,note_on,60,80,0
1,note_on,60,0,160
1,note_on,61,86,0
1,note_on,61,0,420
1,note_on,58,80,0
1,note_on,58,0,60
1,note_on,65,86,0
1,note_on,65,0,480
1,note_on,64,80,360
1,note_on,64,0,40
1,note_on,65,80,0
1,note_on,65,0,40
1,note_on,64,80,0
1,note_on,64,0,40
1,note_on,61,90,0
1,note_on,61,0,1440
1,note_on,57,82,480
1,note_on,57,0,240
1,note_on,58,80,0
1,note_on,58,0,240
1,note_on,60,80,0
1,note_on,60,0,240
1,note_on,61,80,0
1,note_on,61,0,240
1,note_on,63,80,0
1,note_on,63,0,720
1,note_on,65,83,0
1,note_on,65,0,240
1,note_on,66,87,0
1,note_on,66,0,240
1,note_on,69,88,240
1,note_on,69,0,240
1,note_on,70,93,240
1,note_on,70,0,960
1,note_on,68,88,0
1,note_on,68,0,480
1,note_on,66,85,0
1,note_on,66,0,480
1,note_on,69,88,0
1,note_on,69,0,320
1,note_on,66,85,0
1,note_on,66,0,320
1,note_on,65,80,0
1,note_on,65,0,300
1,note_on,65,87,20
1,note_on,65,0,840
1,note_on,69,80,0
1,note_on,69,0,120
1,note_on,65,86,0
1,note_on,65,0,480
1,note_on,57,82,480
1,note_on,57,0,240
1,note_on,58,80,0
1,note_on,58,0,240
1,note_on,60,80,0
1,note_on,60,0,240
1,note_on,61,80,0
1,note_on,61,0,240
1,note_on,63,80,0
1,note_on,63,0,720
1,note_on,65,83,0
1,note_on,65,0,240
1,note_on,66,87,0
1,note_on,66,0,240
1,note_on,69,88,240
1,note_on,69,0,240
1,note_on,70,93,240
1,note_on,70,0,960
1,note_on,69,88,0
1,note_on,69,0,480
1,note_on,66,85,0
1,note_on,66,0,480
1,note_on,68,88,0
1,note_on,68,0,320
1,note_on,66,85,0
1,note_on,66,0,320
1,note_on,65,80,0
1,note_on,65,0,300
1,note_on,65,87,20
1,note_on,65,0,2160
1,note_on,58,80,660
1,note_on,58,0,60
1,note_on,65,86,0
1,note_on,65,0,480
1,note_on,64,80,360
1,note_on,64,0,40
1,note_on,65,80,0
1,note_on,65,0,40
1,note_on,64,80,0
1,note_on,64,0,40
1,note_on,61,90,0
1,note_on,61,0,840
1,note_on,60,80,0
1,note_on,60,0,40
1,note_on,61,78,0
1,note_on,61,0,40
1,note_on,57,78,0
1,note_on,57,0,40
1,note_on,61,89,0
1,note_on,61,0,780
1,note_on,60,75,0
1,note_on,60,0,30
1,note_on,61,75,0
1,note_on,61,0,30
1,note_on,60,75,0
1,note_on,60,0,40
1,note_on,58,75,0
1,note_on,58,0,40
1,note_on,57,75,0
1,note_on,57,0,40
1,note_on,61,80,0
1,note_on,61,0,3600
1,note_on,81,52,180
1,note_on,81,0,54
1,note_on,69,52,6
1,note_on,66,52,0
1,note_on,81,60,0
1,note_on,81,0,144
1,note_on,81,58,16
1,note_on,81,0,144
1,note_on,81,58,16
1,note_on,81,0,90
1,note_on,81,50,10
1,note_on,83,51,30
1,note_on,81,0,20
1,note_on,81,54,10
1,note_on,83,0,20
1,note_on,81,0,400
1,note_on,81,52,0
1,note_on,81,0,54
1,note_on,81,60,6
1,note_on,81,0,144
1,note_on,81,57,16
1,note_on,81,0,144
1,note_on,81,57,16
1,note_on,81,0,90
1,note_on,81,48,10
1,note_on,83,52,30
1,note_on,81,0,20
1,note_on,81,56,10
1,note_on,83,0,20
1,note_on,81,0,400
1,note_on,80,49,0
1,note_on,80,0,54
1,note_on,66,0,6
1,note_on,69,0,0
1,note_on,64,52,0
1,note_on,68,52,0
1,note_on,80,57,0
1,note_on,80,0,144
1,note_on,80,55,16
1,note_on,80,0,144
1,note_on,80,55,16
1,note_on,80,0,90
1,note_on,80,49,10
1,note_on,81,52,30
1,note_on,80,0,20
1,note_on,80,55,10
1,note_on,81,0,20
1,note_on,80,0,400
1,note_on,78,49,0
1,note_on,78,0,60
1,note_on,68,0,0
1,note_on,64,0,0
1,note_on,66,49,0
1,note_on,62,49,0
1,note_on,78,57,0
1,note_on,78,0,160
1,note_on,78,54,0
1,note_on,78,0,160
1,note_on,78,54,0
1,note_on,78,0,100
1,note_on,78,47,0
1,note_on,79,50,30
1,note_on,78,0,20
1,note_on,78,56,10
1,note_on,79,0,20
1,note_on,78,0,400
1,note_on,80,49,0
1,note_on,80,0,54
1,note_on,62,0,6
1,note_on,66,0,0
1,note_on,80,57,0
1,note_on,64,49,0
1,note_on,68,49,0
1,note_on,80,0,144
1,note_on,80,55,16
1,note_on,80,0,144
1,note_on,80,55,16
1,note_on,80,0,90
1,note_on,80,49,10
1,note_on,81,49,30
1,note_on,80,0,20
1,note_on,80,55,10
1,note_on,81,0,20
1,note_on,80,0,400
1,note_on,73,49,0
1,note_on,73,0,54
1,note_on,68,0,6
1,note_on,64,0,0
1,note_on,61,49,0
1,note_on,73,54,0
1,note_on,64,49,0
1,note_on,73,0,144
1,note_on,73,51,16
1,note_on,73,0,144
1,note_on,73,51,16
1,note_on,73,0,90
1,note_on,73,47,10
1,note_on,74,46,30
1,note_on,73,0,20
1,note_on,73,53,10
1,note_on,74,0,20
1,note_on,73,0,400
1,note_on,73,47,0
1,note_on,73,0,54
1,note_on,73,54,6
1,note_on,73,0,144
1,note_on,73,51,16
1,note_on,73,0,144
1,note_on,73,51,16
1,note_on,73,0,90
1,note_on,73,47,10
1,note_on,74,47,30
1,note_on,73,0,20
1,note_on,73,55,10
1,note_on,74,0,20
1,note_on,73,0,400
1,note_on,73,40,0
1,note_on,73,0,54
1,note_on,73,47,6
1,note_on,73,0,144
1,note_on,73,47,16
1,note_on,73,0,144
1,note_on,73,47,16
1,note_on,73,0,90
1,note_on,73,39,10
1,note_on,74,40,30
1,note_on,74,0,0
1,note_on,73,0,20
1,note_on,64,0,10
1,note_on,61,0,0
1,note_on,73,47,0
1,note_on,73,0,420
1,note_on,81,52,0
1,note_on,81,0,54
1,note_on,66,52,6
1,note_on,69,52,0
1,note_on,81,60,0
1,note_on,81,0,144
1,note_on,81,58,16
1,note_on,81,0,144
1,note_on,81,58,16
1,note_on,81,0,90
1,note_on,81,50,10
1,note_on,83,47,30
1,note_on,81,0,20
1,note_on,81,51,10
1,note_on,83,0,20
1,note_on,81,0,400
1,note_on,81,52,0
1,note_on,81,0,54
1,note_on,81,60,6
1,note_on,81,0,144
1,note_on,81,57,16
1,note_on,81,0,144
1,note_on,81,57,16
1,note_on,81,0,90
1,note_on,81,50,10
1,note_on,83,51,30
1,note_on,81,0,20
1,note_on,81,56,10
1,note_on,83,0,20
1,note_on,81,0,400
1,note_on,80,49,0
1,note_on,80,0,54
1,note_on,69,0,6
1,note_on,66,0,0
1,note_on,64,52,0
1,note_on,68,52,0
1,note_on,80,57,0
1,note_on,80,0,144
1,note_on,80,55,16
1,note_on,80,0,144
1,note_on,80,55,16
1,note_on,80,0,90
1,note_on,80,49,10
1,note_on,81,52,30
1,note_on,80,0,20
1,note_on,80,58,10
1,note_on,81,0,20
1,note_on,80,0,400
1,note_on,78,49,0
1,note_on,78,0,54
1,note_on,68,0,6
1,note_on,64,0,0
1,note_on,66,49,0
1,note_on,62,49,0
1,note_on,78,57,0
1,note_on,78,0,144
1,note_on,78,54,16
1,note_on,78,0,144
1,note_on,78,54,16
1,note_on,78,0,90
1,note_on,78,47,10
1,note_on,79,50,30
1,note_on,78,0,20
1,note_on,78,56,10
1,note_on,79,0,20
1,note_on,78,0,400
1,note_on,80,49,0
1,note_on,80,0,54
1,note_on,62,0,6
1,note_on,66,0,0
1,note_on,80,57,0
1,note_on,68,49,0
1,note_on,64,49,0
1,note_on,80,0,144
1,note_on,80,55,16
1,note_on,80,0,144
1,note_on,80,55,16
1,note_on,80,0,90
1,note_on,80,49,10
1,note_on,81,49,30
1,note_on,80,0,20
1,note_on,80,57,10
1,note_on,81,0,20
1,note_on,80,0,400
1,note_on,73,49,0
1,note_on,73,0,54
1,note_on,64,0,6
1,note_on,68,0,0
1,note_on,61,49,0
1,note_on,64,49,0
1,note_on,73,54,0
1,note_on,73,0,144
1,note_on,73,51,16
1,note_on,73,0,144
1,note_on,73,51,16
1,note_on,73,0,90
1,note_on,73,47,10
1,note_on,74,46,30
1,note_on,73,0,20
1,note_on,73,51,10
1,note_on,74,0,20
1,note_on,73,0,400
1,note_on,73,47,0
1,note_on,73,0,54
1,note_on,73,54,6
1,note_on,73,0,144
1,note_on,73,51,16
1,note_on,73,0,144
1,note_on,73,51,16
1,note_on,73,0,90
1,note_on,73,47,10
1,note_on,74,47,30
1,note_on,73,0,20
1,note_on,73,51,10
1,note_on,74,0,20
1,note_on,73,0,400
1,note_on,73,40,0
1,note_on,73,0,54
1,note_on,73,47,6
1,note_on,73,0,144
1,note_on,73,47,16
1,note_on,73,0,144
1,note_on,73,47,16
1,note_on,73,0,90
1,note_on,73,39,10
1,note_on,74,40,30
1,note_on,73,0,20
1,note_on,61,0,10
1,note_on,64,0,0
1,note_on,73,47,0
1,note_on,74,0,20
1,note_on,73,0,400
1,note_on,78,52,0
1,note_on,78,0,54
1,note_on,78,54,6
1,note_on,62,46,0
1,note_on,66,46,0
1,note_on,78,0,144
1,note_on,78,52,16
1,note_on,78,0,144
1,note_on,78,52,16
1,note_on,78,0,90
1,note_on,78,45,10
1,note_on,80,45,30
1,note_on,78,0,20
1,note_on,78,52,10
1,note_on,80,0,20
1,note_on,78,0,400
1,note_on,78,46,0
1,note_on,78,0,54
1,note_on,78,54,6
1,note_on,78,0,144
1,note_on,78,51,16
1,note_on,78,0,144
1,note_on,78,51,16
1,note_on,78,0,90
1,note_on,78,46,10
1,note_on,80,46,30
1,note_on,78,0,20
1,note_on,78,52,10
1,note_on,80,0,20
1,note_on,78,0,400
1,note_on,76,44,0
1,note_on,76,0,54
1,note_on,66,0,6
1,note_on,62,0,0
1,note_on,76,51,0
1,note_on,64,46,0
1,note_on,61,46,0
1,note_on,76,0,144
1,note_on,76,49,16
1,note_on,76,0,144
1,note_on,76,49,16
1,note_on,76,0,90
1,note_on,76,44,10
1,note_on,78,46,30
1,note_on,76,0,20
1,note_on,76,52,10
1,note_on,78,0,20
1,note_on,76,0,400
1,note_on,74,44,0
1,note_on,74,0,54
1,note_on,61,0,6
1,note_on,64,0,0
1,note_on,62,44,0
1,note_on,74,51,0
1,note_on,59,44,0
1,note_on,74,0,144
1,note_on,74,48,16
1,note_on,74,0,144
1,note_on,74,48,16
1,note_on,74,0,90
1,note_on,74,42,10
1,note_on,76,45,30
1,note_on,74,0,20
1,note_on,74,50,10
1,note_on,76,0,20
1,note_on,74,0,400
1,note_on,78,44,0
1,note_on,78,0,54
1,note_on,59,0,6
1,note_on,62,0,0
1,note_on,62,44,0
1,note_on,66,44,0
1,note_on,78,51,0
1,note_on,78,0,144
1,note_on,78,49,16
1,note_on,78,0,144
1,note_on,78,49,16
1,note_on,78,0,90
1,note_on,78,44,10
1,note_on,80,44,30
1,note_on,78,0,20
1,note_on,78,51,10
1,note_on,80,0,20
1,note_on,78,0,400
1,note_on,73,44,0
1,note_on,73,0,54
1,note_on,66,0,6
1,note_on,62,0,0
1,note_on,61,44,0
1,note_on,57,44,0
1,note_on,73,48,0
1,note_on,73,0,144
1,note_on,73,45,16
1,note_on,73,0,144
1,note_on,73,45,16
1,note_on,73,0,90
1,note_on,73,42,10
1,note_on,74,41,30
1,note_on,73,0,20
1,note_on,73,47,10
1,note_on,74,0,20
1,note_on,73,0,400
1,note_on,73,42,0
1,note_on,73,0,54
1,note_on,73,48,6
1,note_on,73,0,144
1,note_on,73,45,16
1,note_on,73,0,144
1,note_on,73,45,16
1,note_on,73,0,90
1,note_on,73,42,10
1,note_on,74,42,30
1,note_on,73,0,20
1,note_on,73,48,10
1,note_on,74,0,20
1,note_on,73,0,400
1,note_on,73,36,0
1,note_on,73,0,54
1,note_on,73,42,6
1,note_on,73,0,144
1,note_on,73,42,16
1,note_on,73,0,144
1,note_on,73,42,16
1,note_on,73,0,90
1,note_on,73,35,10
1,note_on,74,36,30
1,note_on,73,0,20
1,note_on,61,0,10
1,note_on,57,0,0
1,note_on,73,42,0
1,note_on,74,0,20
1,note_on,73,0,400
1,note_on,78,52,0
1,note_on,78,0,54
1,note_on,62,46,6
1,note_on,78,54,0
1,note_on,66,46,0
1,note_on,78,0,144
1,note_on,78,52,16
1,note_on,78,0,144
1,note_on,78,52,16
1,note_on,78,0,90
1,note_on,78,45,10
1,note_on,80,45,30
1,note_on,78,0,20
1,note_on,78,51,10
1,note_on,80,0,20
1,note_on,78,0,400
1,note_on,78,46,0
1,note_on,78,0,54
1,note_on,78,54,6
1,note_on,78,0,144
1,note_on,78,51,16
1,note_on,78,0,144
1,note_on,78,51,16
1,note_on,78,0,90
1,note_on,78,46,10
1,note_on,80,46,30
1,note_on,78,0,20
1,note_on,78,52,10
1,note_on,80,0,20
1,note_on,78,0,400
1,note_on,76,44,0
1,note_on,76,0,54
1,note_on,66,0,6
1,note_on,62,0,0
1,note_on,76,51,0
1,note_on,64,46,0
1,note_on,61,46,0
1,note_on,76,0,144
1,note_on,76,49,16
1,note_on,76,0,144
1,note_on,76,49,16
1,note_on,76,0,90
1,note_on,76,44,10
1,note_on,78,46,30
1,note_on,76,0,20
1,note_on,76,52,10
1,note_on,78,0,20
1,note_on,76,0,400
1,note_on,74,44,0
1,note_on,74,0,54
1,note_on,61,0,6
1,note_on,64,0,0
1,note_on,62,44,0
1,note_on,74,51,0
1,note_on,59,44,0
1,note_on,74,0,144
1,note_on,74,48,16
1,note_on,74,0,144
1,note_on,74,48,16
1,note_on,74,0,90
1,note_on,74,42,10
1,note_on,76,45,30
1,note_on,74,0,20
1,note_on,74,50,10
1,note_on,76,0,20
1,note_on,74,0,400
1,note_on,78,44,0
1,note_on,78,0,54
1,note_on,59,0,6
1,note_on,62,0,0
1,note_on,62,44,0
1,note_on,66,44,0
1,note_on,78,51,0
1,note_on,78,0,144
1,note_on,78,49,16
1,note_on,78,0,144
1,note_on,78,49,16
1,note_on,78,0,90
1,note_on,78,44,10
1,note_on,80,44,30
1,note_on,78,0,20
1,note_on,78,49,10
1,note_on,80,0,20
1,note_on,78,0,400
1,note_on,73,44,0
1,note_on,73,0,54
1,note_on,66,0,6
1,note_on,62,0,0
1,note_on,57,44,0
1,note_on,61,44,0
1,note_on,73,48,0
1,note_on,73,0,144
1,note_on,73,45,16
1,note_on,73,0,144
1,note_on,73,45,16
1,note_on,73,0,90
1,note_on,73,42,10
1,note_on,74,41,30
1,note_on,73,0,20
1,note_on,73,47,10
1,note_on,74,0,20
1,note_on,73,0,400
1,note_on,73,42,0
1,note_on,73,0,54
1,note_on,73,48,6
1,note_on,73,0,144
1,note_on,73,45,16
1,note_on,73,0,144
1,note_on,73,45,16
1,note_on,73,0,90
1,note_on,73,42,10
1,note_on,74,42,30
1,note_on,73,0,20
1,note_on,73,49,10
1,note_on,74,0,20
1,note_on,73,0,400
1,note_on,73,36,0
1,note_on,73,0,54
1,note_on,73,42,6
1,note_on,73,0,144
1,note_on,73,42,16
1,note_on,73,0,144
1,note_on,73,42,16
1,note_on,73,0,90
1,note_on,73,35,10
1,note_on,74,36,30
1,note_on,73,0,20
1,note_on,57,0,10
1,note_on,61,0,0
1,note_on,73,42,0
1,note_on,74,0,20
1,note_on,73,0,460
1,note_on,72,69,0
1,note_on,72,0,480
1,note_on,75,68,0
1,note_on,75,0,120
1,note_on,76,67,0
1,note_on,76,0,120
1,note_on,80,73,0
1,note_on,80,0,120
1,note_on,81,70,0
1,note_on,81,0,120
1,note_on,80,75,0
1,note_on,80,0,480
1,note_on,76,72,0
1,note_on,76,0,120
1,note_on,75,69,0
1,note_on,75,0,120
1,note_on,73,72,0
1,note_on,73,0,120
1,note_on,72,71,0
1,note_on,72,0,120
1,note_on,73,77,0
1,note_on,73,0,351
1,note_on,73,75,9
1,note_on,73,0,108
1,note_on,73,73,12
1,note_on,73,0,144
1,note_on,73,71,16
1,note_on,73,0,144
1,note_on,73,70,16
1,note_on,73,0,144
1,note_on,73,73,16
1,note_on,73,0,350
1,note_on,73,66,10
1,note_on,73,0,108
1,note_on,73,66,12
1,note_on,73,0,144
1,note_on,73,66,16
1,note_on,73,0,144
1,note_on,73,70,16
1,note_on,73,0,144
1,note_on,72,73,16
1,note_on,72,0,480
1,note_on,75,71,0
1,note_on,75,0,120
1,note_on,76,70,0
1,note_on,76,0,120
1,note_on,80,76,0
1,note_on,80,0,120
1,note_on,81,73,0
1,note_on,81,0,120
1,note_on,80,78,0
1,note_on,80,0,480
1,note_on,76,75,0
1,note_on,76,0,120
1,note_on,75,72,0
1,note_on,75,0,120
1,note_on,73,75,0
1,note_on,73,0,120
1,note_on,72,74,0
1,note_on,72,0,120
1,note_on,73,80,0
1,note_on,73,0,349
1,note_on,73,78,11
1,note_on,73,0,108
1,note_on,73,76,12
1,note_on,73,0,144
1,note_on,73,74,16
1,note_on,73,0,144
1,note_on,73,73,16
1,note_on,73,0,144
1,note_on,73,73,16
1,note_on,73,0,350
1,note_on,73,66,10
1,note_on,73,0,108
1,note_on,73,76,12
1,note_on,73,0,144
1,note_on,73,74,16
1,note_on,73,0,144
1,note_on,73,80,16
1,note_on,73,0,144
1,note_on,73,92,16
1,note_on,61,78,0
1,note_on,61,0,350
1,note_on,73,0,0
1,note_on,61,67,10
1,note_on,73,79,0
1,note_on,73,0,108
1,note_on,61,0,0
1,note_on,61,67,12
1,note_on,73,79,0
1,note_on,73,0,144
1,note_on,61,0,0
1,note_on,61,67,16
1,note_on,73,79,0
1,note_on,73,0,144
1,note_on,61,0,0
1,note_on,61,67,16
1,note_on,73,79,0
1,note_on,73,0,144
1,note_on,61,0,0
1,note_on,61,76,16
1,note_on,73,90,0
1,note_on,73,0,350
1,note_on,61,0,0
1,note_on,73,73,10
1,note_on,61,62,0
1,note_on,61,0,108
1,note_on,73,0,0
1,note_on,61,62,12
1,note_on,73,73,0
1,note_on,73,0,144
1,note_on,61,0,0
1,note_on,73,73,16
1,note_on,61,62,0
1,note_on,61,0,144
1,note_on,73,0,0
1,note_on,61,62,16
1,note_on,73,73,0
1,note_on,73,0,144
1,note_on,61,0,0
1,note_on,69,78,16
1,note_on,81,92,0
1,note_on,81,0,350
1,note_on,69,0,0
1,note_on,80,78,10
1,note_on,68,66,0
1,note_on,68,0,108
1,note_on,80,0,0
1,note_on,68,66,12
1,note_on,80,78,0
1,note_on,80,0,144
1,note_on,68,0,0
1,note_on,80,78,16
1,note_on,68,66,0
1,note_on,68,0,144
1,note_on,80,0,0
1,note_on,68,66,16
1,note_on,80,78,0
1,note_on,80,0,144
1,note_on,68,0,0
1,note_on,66,72,16
1,note_on,78,85,0
1,note_on,78,0,350
1,note_on,66,0,0
1,note_on,80,73,10
1,note_on,68,62,0
1,note_on,68,0,108
1,note_on,80,0,0
1,note_on,68,62,12
1,note_on,80,73,0
1,note_on,80,0,144
1,note_on,68,0,0
1,note_on,80,73,16
1,note_on,68,62,0
1,note_on,68,0,144
1,note_on,80,0,0
1,note_on,68,62,16
1,note_on,80,73,0
1,note_on,80,0,144
1,note_on,68,0,0
1,note_on,61,78,16
1,note_on,73,92,0
1,note_on,73,0,350
1,note_on,61,0,0
1,note_on,73,79,10
1,note_on,61,67,0
1,note_on,61,0,108
1,note_on,73,0,0
1,note_on,61,67,12
1,note_on,73,79,0
1,note_on,73,0,144
1,note_on,61,0,0
1,note_on,73,79,16
1,note_on,61,67,0
1,note_on,61,0,144
1,note_on,73,0,0
1,note_on,73,79,16
1,note_on,61,67,0
1,note_on,61,0,144
1,note_on,73,0,0
1,note_on,61,76,16
1,note_on,73,90,0
1,note_on,73,0,350
1,note_on,61,0,0
1,note_on,73,73,10
1,note_on,61,62,0
1,note_on,61,0,108
1,note_on,73,0,0
1,note_on,61,62,12
1,note_on,73,73,0
1,note_on,73,0,144
1,note_on,61,0,0
1,note_on,61,62,16
1,note_on,73,73,0
1,note_on,73,0,144
1,note_on,61,0,0
1,note_on,73,73,16
1,note_on,61,62,0
1,note_on,61,0,144
1,note_on,73,0,0
1,note_on,61,78,16
1,note_on,73,92,0
1,note_on,73,0,350
1,note_on,61,0,0
1,note_on,73,79,10
1,note_on,61,67,0
1,note_on,61,0,108
1,note_on,73,0,0
1,note_on,61,67,12
1,note_on,73,79,0
1,note_on,73,0,144
1,note_on,61,0,0
1,note_on,61,67,16
1,note_on,73,79,0
1,note_on,73,0,144
1,note_on,61,0,0
1,note_on,73,79,16
1,note_on,61,67,0
1,note_on,61,0,144
1,note_on,73,0,0
1,note_on,61,76,16
1,note_on,73,90,0
1,note_on,73,0,350
1,note_on,61,0,0
1,note_on,73,73,10
1,note_on,61,62,0
1,note_on,61,0,108
1,note_on,73,0,0
1,note_on,61,62,12
1,note_on,73,73,0
1,note_on,73,0,144
1,note_on,61,0,0
1,note_on,61,62,16
1,note_on,73,73,0
1,note_on,73,0,144
1,note_on,61,0,0
1,note_on,73,73,16
1,note_on,61,62,0
1,note_on,61,0,144
1,note_on,73,0,0
1,note_on,69,78,16
1,note_on,81,92,0
1,note_on,81,0,350
1,note_on,69,0,10
1,note_on,80,78,0
1,note_on,68,66,0
1,note_on,68,0,108
1,note_on,80,0,0
1,note_on,68,66,12
1,note_on,80,78,0
1,note_on,80,0,144
1,note_on,68,0,0
1,note_on,68,66,16
1,note_on,80,78,0
1,note_on,80,0,144
1,note_on,68,0,0
1,note_on,68,66,16
1,note_on,80,78,0
1,note_on,80,0,144
1,note_on,68,0,0
1,note_on,66,72,16
1,note_on,78,85,0
1,note_on,78,0,360
1,note_on,66,0,0
1,note_on,68,62,0
1,note_on,80,73,0
1,note_on,80,0,108
1,note_on,68,0,0
1,note_on,80,73,12
1,note_on,68,62,0
1,note_on,68,0,144
1,note_on,80,0,0
1,note_on,68,62,16
1,note_on,80,73,0
1,note_on,80,0,144
1,note_on,68,0,0
1,note_on,80,73,16
1,note_on,68,62,0
1,note_on,68,0,144
1,note_on,80,0,0
1,note_on,61,78,16
1,note_on,73,92,0
1,note_on,73,0,350
1,note_on,61,0,0
1,note_on,61,67,10
1,note_on,73,79,0
1,note_on,73,0,108
1,note_on,61,0,0
1,note_on,73,79,12
1,note_on,61,67,0
1,note_on,61,0,144
1,note_on,73,0,0
1,note_on,61,67,16
1,note_on,73,79,0
1,note_on,73,0,144
1,note_on,61,0,0
1,note_on,73,79,16
1,note_on,61,67,0
1,note_on,61,0,144
1,note_on,73,0,0
1,note_on,61,76,16
1,note_on,73,90,0
1,note_on,73,0,350
1,note_on,61,0,0
1,note_on,61,58,10
1,note_on,73,69,0
1,note_on,73,0,108
1,note_on,61,0,0
1,note_on,73,69,12
1,note_on,61,58,0
1,note_on,61,0,144
1,note_on,73,0,0
1,note_on,61,58,16
1,note_on,73,69,0
1,note_on,73,0,144
1,note_on,61,0,0
1,note_on,73,69,16
1,note_on,61,58,0
1,note_on,61,0,144
1,note_on,73,0,0
1,note_on,61,69,16
1,note_on,73,82,0
1,note_on,73,0,350
1,note_on,61,0,0
1,note_on,61,63,10
1,note_on,73,75,0
1,note_on,73,0,108
1,note_on,61,0,0
1,note_on,73,75,12
1,note_on,61,63,0
1,note_on,61,0,144
1,note_on,73,0,0
1,note_on,61,63,16
1,note_on,73,75,0
1,note_on,73,0,144
1,note_on,61,0,0
1,note_on,73,75,16
1,note_on,61,63,0
1,note_on,61,0,144
1,note_on,73,0,0
1,note_on,61,70,16
1,note_on,73,83,0
1,note_on,73,0,350
1,note_on,61,0,0
1,note_on,61,62,10
1,note_on,73,73,0
1,note_on,73,0,108
1,note_on,61,0,0
1,note_on,61,62,12
1,note_on,73,73,0
1,note_on,73,0,144
1,note_on,61,0,0
1,note_on,73,73,16
1,note_on,61,62,0
1,note_on,61,0,144
1,note_on,73,0,0
1,note_on,61,62,16
1,note_on,73,73,0
1,note_on,73,0,144
1,note_on,61,0,0
1,note_on,73,88,16
1,note_on,61,74,0
1,note_on,61,0,350
1,note_on,73,0,0
1,note_on,61,67,10
1,note_on,73,79,0
1,note_on,73,0,108
1,note_on,61,0,0
1,note_on,61,67,12
1,note_on,73,79,0
1,note_on,73,0,144
1,note_on,61,0,0
1,note_on,73,79,16
1,note_on,61,67,0
1,note_on,61,0,144
1,note_on,73,0,0
1,note_on,61,67,16
1,note_on,73,79,0
1,note_on,73,0,144
1,note_on,61,0,0
1,note_on,73,90,16
1,note_on,61,76,0
1,note_on,61,0,350
1,note_on,73,0,0
1,note_on,61,66,10
1,note_on,73,78,0
1,note_on,73,0,108
1,note_on,61,0,0
1,note_on,61,66,12
1,note_on,73,78,0
1,note_on,73,0,144
1,note_on,61,0,0
1,note_on,73,78,16
1,note_on,61,66,0
1,note_on,61,0,144
1,note_on,73,0,0
1,note_on,61,65,16
1,note_on,73,77,0
1,note_on,73,0,144
1,note_on,61,0,0
1,note_on,73,88,16
1,note_on,61,74,0
1,note_on,61,0,350
1,note_on,73,0,0
1,note_on,61,68,10
1,note_on,73,80,0
1,note_on,73,0,108
1,note_on,61,0,0
1,note_on,61,68,12
1,note_on,73,80,0
1,note_on,73,0,144
1,note_on,61,0,0
1,note_on,73,80,16
1,note_on,61,68,0
1,note_on,61,0,144
1,note_on,73,0,0
1,note_on,61,67,16
1,note_on,73,79,0
1,note_on,73,0,144
1,note_on,61,0,0
1,note_on,81,92,16
1,note_on,69,78,0
1,note_on,69,0,360
1,note_on,81,0,0
1,note_on,80,78,0
1,note_on,68,66,0
1,note_on,68,0,108
1,note_on,80,0,0
1,note_on,68,66,12
1,note_on,80,78,0
1,note_on,80,0,144
1,note_on,68,0,0
1,note_on,80,78,16
1,note_on,68,66,0
1,note_on,68,0,144
1,note_on,80,0,0
1,note_on,68,66,16
1,note_on,80,78,0
1,note_on,80,0,144
1,note_on,68,0,0
1,note_on,66,72,16
1,note_on,78,85,0
1,note_on,78,0,360
1,note_on,66,0,0
1,note_on,80,73,0
1,note_on,68,62,0
1,note_on,68,0,108
1,note_on,80,0,0
1,note_on,68,62,12
1,note_on,80,73,0
1,note_on,80,0,144
1,note_on,68,0,0
1,note_on,80,73,16
1,note_on,68,62,0
1,note_on,68,0,144
1,note_on,80,0,0
1,note_on,68,62,16
1,note_on,80,73,0
1,note_on,80,0,144
1,note_on,68,0,0
1,note_on,61,76,16
1,note_on,73,90,0
1,note_on,73,0,350
1,note_on,61,0,0
1,note_on,73,73,10
1,note_on,61,62,0
1,note_on,61,0,108
1,note_on,73,0,0
1,note_on,61,62,12
1,note_on,73,73,0
1,note_on,73,0,144
1,note_on,61,0,0
1,note_on,73,73,16
1,note_on,61,62,0
1,note_on,61,0,144
1,note_on,73,0,0
1,note_on,61,62,16
1,note_on,73,73,0
1,note_on,73,0,144
1,note_on,61,0,0
1,note_on,61,78,16
1,note_on,73,92,0
1,note_on,73,0,350
1,note_on,61,0,0
1,note_on,73,79,10
1,note_on,61,67,0
1,note_on,61,0,108
1,note_on,73,0,0
1,note_on,61,67,12
1,note_on,73,79,0
1,note_on,73,0,144
1,note_on,61,0,0
1,note_on,73,79,16
1,note_on,61,67,0
1,note_on,61,0,144
1,note_on,73,0,0
1,note_on,61,67,16
1,note_on,73,79,0
1,note_on,73,0,144
1,note_on,61,0,0
1,note_on,61,76,16
1,note_on,73,90,0
1,note_on,73,0,350
1,note_on,61,0,0
1,note_on,61,62,10
1,note_on,73,73,0
1,note_on,73,0,108
1,note_on,61,0,0
1,note_on,61,62,12
1,note_on,73,73,0
1,note_on,73,0,144
1,note_on,61,0,0
1,note_on,61,62,16
1,note_on,73,73,0
1,note_on,73,0,144
1,note_on,61,0,0
1,note_on,73,73,16
1,note_on,61,62,0
1,note_on,61,0,144
1,note_on,73,0,0
1,note_on,61,74,16
1,note_on,73,88,0
1,note_on,73,0,350
1,note_on,61,0,0
1,note_on,73,79,10
1,note_on,61,67,0
1,note_on,61,0,108
1,note_on,73,0,0
1,note_on,61,67,12
1,note_on,73,79,0
1,note_on,73,0,144
1,note_on,61,0,0
1,note_on,61,67,16
1,note_on,73,79,0
1,note_on,73,0,144
1,note_on,61,0,0
1,note_on,73,79,16
1,note_on,61,67,0
1,note_on,61,0,144
1,note_on,73,0,0
1,note_on,61,76,16
1,note_on,73,90,0
1,note_on,73,0,350
1,note_on,61,0,0
1,note_on,73,82,10
1,note_on,61,69,0
1,note_on,61,0,108
1,note_on,73,0,0
1,note_on,61,68,12
1,note_on,73,81,0
1,note_on,73,0,144
1,note_on,61,0,0
1,note_on,61,68,16
1,note_on,73,81,0
1,note_on,73,0,144
1,note_on,61,0,0
1,note_on,73,81,16
1,note_on,61,68,0
1,note_on,61,0,144
1,note_on,73,0,0
1,note_on,61,80,16
1,note_on,73,95,0
1,note_on,73,0,350
1,note_on,61,0,0
1,note_on,73,78,10
1,note_on,61,66,0
1,note_on,61,0,108
1,note_on,73,0,0
1,note_on,61,67,12
1,note_on,73,79,0
1,note_on,73,0,144
1,note_on,61,0,0
1,note_on,61,69,16
1,note_on,73,82,0
1,note_on,73,0,144
1,note_on,61,0,0
1,note_on,73,84,16
1,note_on,61,71,0
1,note_on,61,0,144
1,note_on,73,0,0
1,note_on,61,80,16
1,note_on,65,80,0
1,note_on,73,95,0
1,note_on,69,80,0
1,note_on,69,0,480
1,note_on,61,0,0
1,note_on,65,0,0
1,note_on,73,0,0
1,note_on,65,54,1440
1,note_on,65,0,960
1,note_on,60,62,0
1,note_on,64,62,0
1,note_on,64,0,960
1,note_on,60,0,0
1,note_on,63,68,0
1,note_on,60,68,0
1,note_on,63,0,480
1,note_on,62,63,0
1,note_on,62,0,160
1,note_on,63,67,0
1,note_on,63,0,160
1,note_on,62,63,0
1,note_on,62,0,160
1,note_on,60,0,0
1,note_on,58,59,0
1,note_on,61,59,0
1,note_on,61,0,960
1,note_on,58,0,0
1,note_on,60,56,0
1,note_on,57,56,0
1,note_on,57,0,420
1,note_on,60,0,0
1,note_on,64,86,0
1,note_on,64,0,60
1,note_on,65,100,0
1,note_on,65,0,240
1,note_on,64,62,240
1,note_on,60,62,0
1,note_on,60,0,960
1,note_on,64,0,0
1,note_on,63,68,0
1,note_on,59,68,0
1,note_on,63,0,480
1,note_on,62,63,0
1,note_on,62,0,160
1,note_on,63,67,0
1,note_on,63,0,160
1,note_on,62,63,0
1,note_on,62,0,160
1,note_on,59,0,0
1,note_on,58,59,0
1,note_on,61,59,0
1,note_on,61,0,960
1,note_on,58,0,0
1,note_on,57,56,0
1,note_on,60,56,0
1,note_on,60,0,420
1,note_on,57,0,0
1,note_on,64,86,0
1,note_on,64,0,60
1,note_on,65,100,0
1,note_on,65,0,240
1,note_on,64,93,960
1,note_on,64,0,80
1,note_on,65,93,0
1,note_on,65,0,80
1,note_on,64,93,0
1,note_on,64,0,80
1,note_on,61,100,0
1,note_on,61,0,1440
1,note_on,84,100,960
1,note_on,72,90,0
1,note_on,72,0,160
1,note_on,84,0,0
1,note_on,85,96,0
1,note_on,73,86,0
1,note_on,73,0,160
1,note_on,85,0,0
1,note_on,70,85,0
1,note_on,82,95,0
1,note_on,82,0,144
1,note_on,70,0,0
1,note_on,70,90,16
1,note_on,82,100,0
1,note_on,82,0,2880
1,note_on,70,0,0
2,note_on,46,70,3780
2,note_on,46,0,60
2,note_on,53,77,0
2,note_on,53,0,480
2,note_on,52,70,360
2,note_on,52,0,60
2,note_on,53,70,0
2,note_on,53,0,60
2,note_on,52,80,0
2,note_on,52,0,1440
2,note_on,45,70,480
2,note_on,45,0,160
2,note_on,46,70,0
2,note_on,46,0,160
2,note_on,48,70,0
2,note_on,48,0,160
2,note_on,49,75,0
2,note_on,49,0,420
2,note_on,46,70,0
2,note_on,46,0,60
2,note_on,53,75,0
2,note_on,53,0,480
2,note_on,52,70,360
2,note_on,52,0,40
2,note_on,53,70,0
2,note_on,53,0,40
2,note_on,52,70,0
2,note_on,52,0,40
2,note_on,49,79,0
2,note_on,49,0,1440
2,note_on,45,72,480
2,note_on,45,0,240
2,note_on,46,70,0
2,note_on,46,0,240
2,note_on,48,70,0
2,note_on,48,0,240
2,note_on,49,70,0
2,note_on,49,0,240
2,note_on,51,70,0
2,note_on,51,0,720
2,note_on,53,73,0
2,note_on,53,0,240
2,note_on,54,76,0
2,note_on,54,0,240
2,note_on,57,77,240
2,note_on,57,0,240
2,note_on,58,81,240
2,note_on,58,0,960
2,note_on,56,77,0
2,note_on,56,0,480
2,note_on,54,74,0
2,note_on,54,0,480
2,note_on,57,77,0
2,note_on,57,0,320
2,note_on,54,74,0
2,note_on,54,0,320
2,note_on,53,70,0
2,note_on,53,0,300
2,note_on,53,76,20
2,note_on,53,0,840
2,note_on,57,70,0
2,note_on,57,0,120
2,note_on,53,75,0
2,note_on,53,0,480
2,note_on,45,72,480
2,note_on,45,0,240
2,note_on,46,70,0
2,note_on,46,0,240
2,note_on,48,70,0
2,note_on,48,0,240
2,note_on,49,70,0
2,note_on,49,0,240
2,note_on,51,70,0
2,note_on,51,0,720
2,note_on,53,73,0
2,note_on,53,0,240
2,note_on,54,76,0
2,note_on,54,0,240
2,note_on,57,77,240
2,note_on,57,0,240
2,note_on,58,81,240
2,note_on,58,0,960
2,note_on,57,77,0
2,note_on,57,0,480
2,note_on,54,74,0
2,note_on,54,0,480
2,note_on,56,77,0
2,note_on,56,0,320
2,note_on,54,74,0
2,note_on,54,0,320
2,note_on,53,70,0
2,note_on,53,0,300
2,note_on,53,76,20
2,note_on,53,0,2160
2,note_on,46,70,660
2,note_on,46,0,60
2,note_on,53,75,0
2,note_on,53,0,480
2,note_on,52,70,360
2,note_on,52,0,40
2,note_on,53,70,0
2,note_on,53,0,40
2,note_on,52,70,0
2,note_on,52,0,40
2,note_on,49,79,0
2,note_on,49,0,840
2,note_on,48,70,0
2,note_on,48,0,40
2,note_on,49,68,0
2,note_on,49,0,40
2,note_on,45,68,0
2,note_on,45,0,40
2,note_on,49,78,0
2,note_on,49,0,780
2,note_on,48,66,0
2,note_on,48,0,30
2,note_on,49,66,0
2,note_on,49,0,30
2,note_on,48,66,0
2,note_on,48,0,40
2,note_on,46,66,0
2,note_on,46,0,40
2,note_on,45,66,0
2,note_on,45,0,40
2,note_on,49,70,0
2,note_on,49,0,6240
2,note_on,49,42,3360
2,note_on,49,0,4320
2,note_on,49,39,3360
2,note_on,49,0,4320
2,note_on,49,37,3360
2,note_on,49,0,4320
2,note_on,49,38,3360
2,note_on,49,0,1920
2,note_on,60,56,0
2,note_on,57,56,0
2,note_on,64,66,0
2,note_on,64,0,960
2,note_on,57,0,0
2,note_on,60,0,0
2,note_on,64,74,0
2,note_on,60,62,0
2,note_on,52,62,0
2,note_on,56,62,0
2,note_on,56,0,960
2,note_on,64,0,0
2,note_on,60,0,0
2,note_on,52,0,0
2,note_on,61,67,0
2,note_on,56,56,0
2,note_on,49,56,0
2,note_on,52,56,0
2,note_on,52,0,480
2,note_on,61,0,0
2,note_on,56,0,0
2,note_on,49,0,0
2,note_on,60,62,1440
2,note_on,57,62,0
2,note_on,64,73,0
2,note_on,64,0,960
2,note_on,57,0,0
2,note_on,60,0,0
2,note_on,64,77,0
2,note_on,56,65,0
2,note_on,52,65,0
2,note_on,60,65,0
2,note_on,60,0,960
2,note_on,64,0,0
2,note_on,56,0,0
2,note_on,52,0,0
2,note_on,61,70,0
2,note_on,56,59,0
2,note_on,49,59,0
2,note_on,52,59,0
2,note_on,52,0,480
2,note_on,61,0,0
2,note_on,56,0,0
2,note_on,49,0,0
2,note_on,46,83,1200
2,note_on,34,83,0
2,note_on,34,0,240
2,note_on,46,0,0
2,note_on,53,94,0
2,note_on,41,79,0
2,note_on,41,0,1440
2,note_on,53,0,0
2,note_on,40,70,0
2,note_on,52,83,0
2,note_on,52,0,240
2,note_on,40,0,0
2,note_on,41,66,0
2,note_on,53,78,0
2,note_on,53,0,240
2,note_on,41,0,0
2,note_on,37,78,0
2,note_on,49,92,0
2,note_on,49,0,1920
2,note_on,37,0,0
2,note_on,52,94,0
2,note_on,40,79,0
2,note_on,40,0,480
2,note_on,52,0,0
2,note_on,46,83,1200
2,note_on,34,70,0
2,note_on,34,0,240
2,note_on,46,0,0
2,note_on,53,94,0
2,note_on,41,79,0
2,note_on,41,0,1440
2,note_on,53,0,0
2,note_on,52,83,0
2,note_on,40,70,0
2,note_on,40,0,160
2,note_on,52,0,0
2,note_on,53,78,0
2,note_on,41,66,0
2,note_on,41,0,160
2,note_on,53,0,0
2,note_on,40,66,0
2,note_on,52,78,0
2,note_on,52,0,160
2,note_on,40,0,0
2,note_on,49,92,0
2,note_on,37,78,0
2,note_on,37,0,1920
2,note_on,49,0,0
2,note_on,52,94,0
2,note_on,40,79,0
2,note_on,40,0,480
2,note_on,52,0,0
2,note_on,34,66,960
2,note_on,46,78,0
2,note_on,46,0,480
2,note_on,34,0,0
2,note_on,51,86,0
2,note_on,39,73,0
2,note_on,39,0,720
2,note_on,51,0,0
2,note_on,41,68,0
2,note_on,53,80,0
2,note_on,53,0,240
2,note_on,41,0,0
2,note_on,42,72,0
2,note_on,54,85,0
2,note_on,54,0,480
2,note_on,42,0,0
2,note_on,57,88,0
2,note_on,45,74,0
2,note_on,45,0,480
2,note_on,57,0,0
2,note_on,46,78,0
2,note_on,58,92,0
2,note_on,58,0,960
2,note_on,46,0,0
2,note_on,44,77,0
2,note_on,56,91,0
2,note_on,56,0,480
2,note_on,44,0,0
2,note_on,54,85,0
2,note_on,42,72,0
2,note_on,42,0,480
2,note_on,54,0,0
2,note_on,45,79,0
2,note_on,57,94,0
2,note_on,57,0,480
2,note_on,45,0,0
2,note_on,42,75,0
2,note_on,54,89,0
2,note_on,54,0,240
2,note_on,42,0,0
2,note_on,41,71,0
2,note_on,53,84,0
2,note_on,53,0,240
2,note_on,41,0,0
2,note_on,53,83,0
2,note_on,41,70,0
2,note_on,41,0,480
2,note_on,53,0,0
2,note_on,34,73,1920
2,note_on,46,86,0
2,note_on,46,0,480
2,note_on,34,0,0
2,note_on,51,94,0
2,note_on,39,79,0
2,note_on,39,0,720
2,note_on,51,0,0
2,note_on,41,72,0
2,note_on,53,85,0
2,note_on,53,0,240
2,note_on,41,0,0
2,note_on,42,74,0
2,note_on,54,88,0
2,note_on,54,0,480
2,note_on,42,0,0
2,note_on,45,78,0
2,note_on,57,92,0
2,note_on,57,0,480
2,note_on,45,0,0
2,note_on,46,79,0
2,note_on,58,94,0
2,note_on,58,0,960
2,note_on,46,0,0
2,note_on,57,94,0
2,note_on,45,79,0
2,note_on,45,0,480
2,note_on,57,0,0
2,note_on,42,76,0
2,note_on,54,90,0
2,note_on,54,0,480
2,note_on,42,0,0
2,note_on,44,86,0
2,note_on,56,102,0
2,note_on,56,0,480
2,note_on,44,0,0
2,note_on,42,84,0
2,note_on,54,99,0
2,note_on,54,0,240
2,note_on,42,0,0
2,note_on,41,79,0
2,note_on,53,93,0
2,note_on,53,0,240
2,note_on,41,0,0
2,note_on,53,84,0
2,note_on,57,101,0
2,note_on,57,0,480
2,note_on,53,0,0
2,note_on,41,49,1440
2,note_on,53,49,0
2,note_on,53,0,960
2,note_on,41,0,0
2,note_on,53,57,0
2,note_on,46,57,0
2,note_on,53,0,960
2,note_on,54,59,0
2,note_on,54,0,960
2,note_on,53,52,0
2,note_on,46,0,1380
2,note_on,40,71,0
2,note_on,40,0,60
2,note_on,53,0,0
2,note_on,41,80,0
2,note_on,41,0,240
2,note_on,46,57,240
2,note_on,53,57,0
2,note_on,53,0,960
2,note_on,54,59,0
2,note_on,54,0,960
2,note_on,53,52,0
2,note_on,46,0,1380
2,note_on,40,71,0
2,note_on,40,0,60
2,note_on,53,0,0
2,note_on,41,80,0
2,note_on,41,0,240
2,note_on,52,81,960
2,note_on,52,0,80
2,note_on,53,81,0
2,note_on,53,0,80
2,note_on,52,81,0
2,note_on,52,0,80
2,note_on,49,86,0
2,note_on,49,0,1440
2,note_on,36,72,960
2,note_on,48,80,0
2,note_on,48,0,160
2,note_on,36,0,0
2,note_on,37,68,0
2,note_on,49,76,0
2,note_on,49,0,160
2,note_on,37,0,0
2,note_on,46,77,0
2,note_on,34,69,0
2,note_on,34,0,144
2,note_on,46,0,0
2,note_on,46,81,16
2,note_on,34,72,0
2,note_on,34,0,2880
2,note_on,46,0,0
