Track,Message Type,Note,Velocity,Time
1,note_on,67,90,1
1,note_on,65,85,479
1,note_on,67,0,21
1,note_on,70,89,459
1,note_on,65,0,20
1,note_on,72,91,460
1,note_on,70,0,20
1,note_on,77,81,220
1,note_on,72,0,20
1,note_on,74,86,220
1,note_on,77,0,20
1,note_on,72,85,460
1,note_on,74,0,20
1,note_on,77,81,220
1,note_on,72,0,20
1,note_on,74,85,220
1,note_on,77,0,20
1,note_on,70,86,460
1,note_on,74,0,20
1,note_on,72,86,460
1,note_on,70,0,20
1,note_on,67,82,460
1,note_on,72,0,20
1,note_on,65,81,460
1,note_on,67,0,20
1,note_on,65,0,430
1,note_on,58,69,30
1,note_on,67,82,0
1,note_on,62,69,0
1,note_on,62,0,480
1,note_on,67,0,0
1,note_on,58,0,0
1,note_on,60,68,0
1,note_on,57,68,0
1,note_on,65,80,0
1,note_on,65,0,480
1,note_on,57,0,0
1,note_on,60,0,0
1,note_on,62,68,0
1,note_on,58,68,0
1,note_on,70,80,0
1,note_on,70,0,480
1,note_on,58,0,0
1,note_on,62,0,0
1,note_on,60,69,0
1,note_on,72,82,0
1,note_on,69,69,0
1,note_on,72,0,240
1,note_on,77,78,0
1,note_on,77,0,240
1,note_on,69,0,0
1,note_on,60,0,0
1,note_on,69,68,0
1,note_on,74,81,0
1,note_on,65,68,0
1,note_on,65,0,480
1,note_on,74,0,0
1,note_on,69,0,0
1,note_on,60,68,0
1,note_on,69,68,0
1,note_on,72,81,0
1,note_on,72,0,240
1,note_on,77,77,0
1,note_on,77,0,240
1,note_on,69,0,0
1,note_on,60,0,0
1,note_on,70,71,0
1,note_on,65,71,0
1,note_on,74,84,0
1,note_on,74,0,450
1,note_on,65,0,0
1,note_on,70,0,0
1,note_on,67,66,30
1,note_on,62,66,0
1,note_on,70,78,0
1,note_on,70,0,480
1,note_on,62,0,0
1,note_on,67,0,0
1,note_on,67,65,0
1,note_on,64,65,0
1,note_on,72,77,0
1,note_on,72,0,480
1,note_on,64,0,0
1,note_on,67,0,0
1,note_on,60,59,0
1,note_on,67,70,0
1,note_on,55,59,0
1,note_on,55,0,480
1,note_on,67,0,0
1,note_on,60,0,0
1,note_on,65,66,0
1,note_on,57,56,0
1,note_on,60,56,0
1,note_on,60,0,450
1,note_on,57,0,0
1,note_on,65,0,0
1,note_on,65,92,30
1,note_on,67,88,480
1,note_on,65,0,20
1,note_on,62,83,460
1,note_on,67,0,20
1,note_on,65,86,460
1,note_on,62,0,20
1,note_on,67,74,220
1,note_on,65,0,20
1,note_on,60,80,220
1,note_on,67,0,20
1,note_on,67,85,460
1,note_on,60,0,20
1,note_on,69,77,220
1,note_on,67,0,20
1,note_on,65,83,220
1,note_on,69,0,20
1,note_on,65,0,430
1,note_on,77,84,30
1,note_on,65,71,0
1,note_on,65,0,480
1,note_on,77,0,0
1,note_on,65,69,0
1,note_on,74,82,0
1,note_on,74,0,480
1,note_on,65,0,0
1,note_on,65,68,0
1,note_on,72,80,0
1,note_on,72,0,240
1,note_on,70,74,0
1,note_on,70,0,240
1,note_on,65,0,0
1,note_on,65,79,0
1,note_on,65,0,450
1,note_on,65,92,30
1,note_on,67,88,480
1,note_on,65,0,20
1,note_on,62,85,460
1,note_on,67,0,20
1,note_on,65,86,460
1,note_on,62,0,20
1,note_on,67,77,220
1,note_on,65,0,20
1,note_on,63,85,220
1,note_on,67,0,20
1,note_on,70,92,460
1,note_on,63,0,20
1,note_on,72,74,220
1,note_on,70,0,20
1,note_on,68,78,220
1,note_on,72,0,20
1,note_on,68,0,430
1,note_on,80,84,30
1,note_on,68,71,0
1,note_on,68,0,480
1,note_on,80,0,0
1,note_on,68,68,0
1,note_on,77,80,0
1,note_on,77,0,480
1,note_on,68,0,0
1,note_on,75,78,0
1,note_on,68,66,0
1,note_on,75,0,240
1,note_on,73,78,0
1,note_on,73,0,240
1,note_on,68,0,0
1,note_on,68,74,0
1,note_on,68,0,450
1,note_on,68,48,30
1,note_on,56,40,0
1,note_on,63,40,0
1,note_on,56,0,480
1,note_on,68,0,0
1,note_on,70,49,0
1,note_on,58,41,0
1,note_on,58,0,480
1,note_on,70,0,0
1,note_on,56,41,0
1,note_on,68,49,0
1,note_on,68,0,480
1,note_on,56,0,0
1,note_on,63,0,0
1,note_on,63,49,0
1,note_on,58,41,0
1,note_on,70,49,0
1,note_on,70,0,240
1,note_on,58,0,0
1,note_on,60,41,0
1,note_on,72,49,0
1,note_on,72,0,240
1,note_on,60,0,0
1,note_on,75,53,0
1,note_on,63,45,0
1,note_on,63,0,240
1,note_on,75,0,0
1,note_on,70,49,0
1,note_on,58,41,0
1,note_on,58,0,240
1,note_on,70,0,0
1,note_on,68,46,0
1,note_on,56,39,0
1,note_on,56,0,450
1,note_on,68,0,0
1,note_on,63,0,30
1,note_on,73,73,0
1,note_on,61,62,0
1,note_on,65,62,0
1,note_on,68,62,0
1,note_on,68,0,240
1,note_on,73,0,0
1,note_on,61,0,0
1,note_on,65,0,0
1,note_on,72,58,0
1,note_on,75,69,0
1,note_on,68,58,0
1,note_on,63,58,0
1,note_on,63,0,240
1,note_on,72,0,0
1,note_on,75,0,0
1,note_on,68,0,0
1,note_on,65,62,0
1,note_on,77,73,0
1,note_on,73,62,0
1,note_on,68,62,0
1,note_on,68,0,240
1,note_on,65,0,0
1,note_on,77,0,0
1,note_on,73,0,0
1,note_on,80,75,0
1,note_on,80,0,240
1,note_on,70,61,0
1,note_on,75,61,0
1,note_on,66,61,0
1,note_on,78,72,0
1,note_on,78,0,240
1,note_on,70,0,0
1,note_on,75,0,0
1,note_on,66,0,0
1,note_on,68,57,0
1,note_on,65,57,0
1,note_on,73,57,0
1,note_on,77,68,0
1,note_on,77,0,240
1,note_on,68,0,0
1,note_on,65,0,0
1,note_on,73,0,0
1,note_on,63,63,0
1,note_on,75,75,0
1,note_on,68,63,0
1,note_on,72,63,0
1,note_on,72,0,240
1,note_on,63,0,0
1,note_on,75,0,0
1,note_on,68,0,0
1,note_on,78,69,0
1,note_on,66,58,0
1,note_on,66,0,240
1,note_on,78,0,0
1,note_on,70,58,0
1,note_on,77,69,0
1,note_on,73,58,0
1,note_on,65,58,0
1,note_on,65,0,240
1,note_on,70,0,0
1,note_on,77,0,0
1,note_on,73,0,0
1,note_on,61,57,0
1,note_on,73,68,0
1,note_on,73,0,240
1,note_on,61,0,0
1,note_on,68,54,0
1,note_on,75,64,0
1,note_on,72,54,0
1,note_on,63,54,0
1,note_on,63,0,450
1,note_on,68,0,0
1,note_on,75,0,0
1,note_on,72,0,0
1,note_on,63,43,30
1,note_on,68,51,0
1,note_on,56,43,0
1,note_on,56,0,480
1,note_on,68,0,0
1,note_on,70,51,0
1,note_on,58,43,0
1,note_on,58,0,480
1,note_on,70,0,0
1,note_on,56,43,0
1,note_on,68,51,0
1,note_on,68,0,480
1,note_on,56,0,0
1,note_on,63,0,0
1,note_on,58,45,0
1,note_on,63,45,0
1,note_on,70,53,0
1,note_on,70,0,240
1,note_on,58,0,0
1,note_on,72,55,0
1,note_on,60,46,0
1,note_on,60,0,240
1,note_on,72,0,0
1,note_on,63,0,0
1,note_on,63,52,0
1,note_on,75,62,0
1,note_on,75,0,240
1,note_on,63,0,0
1,note_on,58,49,0
1,note_on,70,59,0
1,note_on,70,0,240
1,note_on,58,0,0
1,note_on,60,52,0
1,note_on,72,62,0
1,note_on,67,52,0
1,note_on,72,0,480
1,note_on,60,0,0
1,note_on,62,54,0
1,note_on,74,64,0
1,note_on,74,0,480
1,note_on,62,0,0
1,note_on,60,53,0
1,note_on,72,63,0
1,note_on,72,0,480
1,note_on,60,0,0
1,note_on,67,0,0
1,note_on,62,52,0
1,note_on,67,52,0
1,note_on,74,62,0
1,note_on,74,0,240
1,note_on,62,0,0
1,note_on,77,62,0
1,note_on,65,52,0
1,note_on,65,0,240
1,note_on,77,0,0
1,note_on,67,0,0
1,note_on,79,64,0
1,note_on,67,54,0
1,note_on,79,0,240
1,note_on,62,53,0
1,note_on,74,63,0
1,note_on,74,0,240
1,note_on,62,0,0
1,note_on,72,61,0
1,note_on,60,51,0
1,note_on,60,0,450
1,note_on,72,0,0
1,note_on,67,0,30
1,note_on,72,67,0
1,note_on,65,67,0
1,note_on,69,67,0
1,note_on,77,79,0
1,note_on,77,0,240
1,note_on,72,0,0
1,note_on,65,0,0
1,note_on,69,0,0
1,note_on,72,61,0
1,note_on,79,72,0
1,note_on,76,61,0
1,note_on,67,61,0
1,note_on,67,0,240
1,note_on,72,0,0
1,note_on,79,0,0
1,note_on,76,0,0
1,note_on,69,69,0
1,note_on,81,82,0
1,note_on,72,69,0
1,note_on,77,69,0
1,note_on,77,0,240
1,note_on,69,0,0
1,note_on,81,0,0
1,note_on,72,0,0
1,note_on,72,61,0
1,note_on,84,72,0
1,note_on,84,0,240
1,note_on,72,0,0
1,note_on,74,68,0
1,note_on,70,68,0
1,note_on,79,68,0
1,note_on,82,81,0
1,note_on,82,0,240
1,note_on,74,0,0
1,note_on,70,0,0
1,note_on,79,0,0
1,note_on,69,63,0
1,note_on,81,75,0
1,note_on,72,63,0
1,note_on,77,63,0
1,note_on,77,0,240
1,note_on,69,0,0
1,note_on,81,0,0
1,note_on,72,0,0
1,note_on,76,81,0
1,note_on,79,81,0
1,note_on,67,68,0
1,note_on,72,68,0
1,note_on,72,0,240
1,note_on,76,0,0
1,note_on,79,0,0
1,note_on,67,0,0
1,note_on,70,63,0
1,note_on,82,75,0
1,note_on,82,0,240
1,note_on,70,0,0
1,note_on,74,67,0
1,note_on,69,67,0
1,note_on,77,67,0
1,note_on,81,79,0
1,note_on,81,0,240
1,note_on,74,0,0
1,note_on,69,0,0
1,note_on,77,0,0
1,note_on,65,62,0
1,note_on,77,74,0
1,note_on,77,0,240
1,note_on,65,0,0
1,note_on,72,58,0
1,note_on,67,58,0
1,note_on,79,69,0
1,note_on,76,58,0
1,note_on,76,0,450
1,note_on,72,0,0
1,note_on,67,0,0
1,note_on,79,0,0
1,note_on,69,47,30
1,note_on,81,56,0
1,note_on,72,47,0
1,note_on,81,0,240
1,note_on,76,51,0
1,note_on,76,0,240
1,note_on,72,0,0
1,note_on,69,0,0
1,note_on,65,45,0
1,note_on,74,45,0
1,note_on,77,54,0
1,note_on,77,0,480
1,note_on,74,0,0
1,note_on,65,0,0
1,note_on,69,43,0
1,note_on,72,43,0
1,note_on,81,51,0
1,note_on,81,0,480
1,note_on,72,0,0
1,note_on,69,0,0
1,note_on,64,39,0
1,note_on,74,47,0
1,note_on,70,39,0
1,note_on,70,0,480
1,note_on,74,0,0
1,note_on,64,0,0
1,note_on,81,51,0
1,note_on,69,43,0
1,note_on,72,43,0
1,note_on,72,0,480
1,note_on,69,0,0
1,note_on,81,0,0
1,note_on,70,39,0
1,note_on,74,47,0
1,note_on,64,39,0
1,note_on,64,0,480
1,note_on,74,0,0
1,note_on,70,0,0
1,note_on,69,47,0
1,note_on,77,56,0
1,note_on,65,47,0
1,note_on,77,0,240
1,note_on,72,51,0
1,note_on,72,0,240
1,note_on,65,0,0
1,note_on,69,0,0
1,note_on,70,45,0
1,note_on,65,45,0
1,note_on,74,54,0
1,note_on,74,0,480
1,note_on,65,0,0
1,note_on,70,0,0
1,note_on,69,44,0
1,note_on,65,44,0
1,note_on,77,52,0
1,note_on,77,0,480
1,note_on,65,0,0
1,note_on,69,0,0
1,note_on,70,39,0
1,note_on,74,47,0
1,note_on,65,39,0
1,note_on,65,0,480
1,note_on,74,0,0
1,note_on,70,0,0
1,note_on,69,45,0
1,note_on,77,54,0
1,note_on,65,45,0
1,note_on,77,0,240
1,note_on,72,51,0
1,note_on,72,0,240
1,note_on,65,0,0
1,note_on,69,0,0
1,note_on,70,44,0
1,note_on,65,44,0
1,note_on,74,52,0
1,note_on,74,0,450
1,note_on,65,0,0
1,note_on,70,0,0
1,note_on,67,45,30
1,note_on,63,45,0
1,note_on,72,53,0
1,note_on,63,0,240
1,note_on,64,46,0
1,note_on,64,0,240
1,note_on,72,0,0
1,note_on,67,0,0
1,note_on,65,41,0
1,note_on,69,49,0
1,note_on,60,41,0
1,note_on,60,0,480
1,note_on,69,0,0
1,note_on,65,0,0
1,note_on,70,46,0
1,note_on,62,39,0
1,note_on,65,39,0
1,note_on,65,0,480
1,note_on,62,0,0
1,note_on,70,0,0
1,note_on,72,54,0
1,note_on,63,45,0
1,note_on,67,45,0
1,note_on,63,0,240
1,note_on,64,47,0
1,note_on,64,0,240
1,note_on,67,0,0
1,note_on,72,0,0
1,note_on,65,41,0
1,note_on,60,41,0
1,note_on,69,49,0
1,note_on,69,0,480
1,note_on,60,0,0
1,note_on,65,0,0
1,note_on,62,47,0
1,note_on,65,47,0
1,note_on,70,56,0
1,note_on,70,0,240
1,note_on,74,52,0
1,note_on,74,0,240
1,note_on,65,0,0
1,note_on,62,0,0
1,note_on,67,47,0
1,note_on,64,47,0
1,note_on,72,56,0
1,note_on,72,0,480
1,note_on,64,0,0
1,note_on,67,0,0
1,note_on,62,39,0
1,note_on,69,46,0
1,note_on,65,39,0
1,note_on,60,39,0
1,note_on,60,0,480
1,note_on,62,0,0
1,note_on,69,0,0
1,note_on,65,0,0
1,note_on,64,43,0
1,note_on,72,51,0
1,note_on,67,43,0
1,note_on,67,0,450
1,note_on,72,0,0
1,note_on,64,0,0
1,note_on,65,74,30
1,note_on,77,88,0
1,note_on,77,0,480
1,note_on,65,0,0
1,note_on,67,69,0
1,note_on,75,82,0
1,note_on,70,69,0
1,note_on,63,69,0
1,note_on,63,0,240
1,note_on,67,0,0
1,note_on,75,0,0
1,note_on,70,0,0
1,note_on,62,66,0
1,note_on,74,78,0
1,note_on,74,0,240
1,note_on,62,0,0
1,note_on,65,63,0
1,note_on,72,75,0
1,note_on,69,63,0
1,note_on,60,63,0
1,note_on,60,0,240
1,note_on,65,0,0
1,note_on,72,0,0
1,note_on,69,0,0
1,note_on,62,60,0
1,note_on,70,71,0
1,note_on,65,60,0
1,note_on,65,0,240
1,note_on,70,0,0
1,note_on,62,0,0
1,note_on,65,69,0
1,note_on,60,69,0
1,note_on,72,82,0
1,note_on,72,0,480
1,note_on,60,0,0
1,note_on,65,0,0
1,note_on,65,71,0
1,note_on,62,71,0
1,note_on,74,84,0
1,note_on,74,0,480
1,note_on,62,0,0
1,note_on,65,0,0
1,note_on,69,73,0
1,note_on,77,86,0
1,note_on,72,73,0
1,note_on,65,73,0
1,note_on,65,0,480
1,note_on,69,0,0
1,note_on,77,0,0
1,note_on,72,0,0
1,note_on,67,76,0
1,note_on,79,90,0
1,note_on,75,76,0
1,note_on,70,76,0
1,note_on,70,0,240
1,note_on,67,0,0
1,note_on,79,0,0
1,note_on,75,0,0
1,note_on,82,82,0
1,note_on,70,69,0
1,note_on,70,0,240
1,note_on,82,0,0
1,note_on,65,74,0
1,note_on,77,88,0
1,note_on,77,0,450
1,note_on,65,0,0
1,note_on,67,78,30
1,note_on,79,92,0
1,note_on,79,0,480
1,note_on,67,0,0
1,note_on,77,89,0
1,note_on,65,75,0
1,note_on,65,0,480
1,note_on,77,0,0
1,note_on,70,68,0
1,note_on,63,68,0
1,note_on,67,68,0
1,note_on,75,81,0
1,note_on,75,0,240
1,note_on,70,0,0
1,note_on,63,0,0
1,note_on,67,0,0
1,note_on,74,71,0
1,note_on,62,60,0
1,note_on,62,0,240
1,note_on,74,0,0
1,note_on,60,62,0
1,note_on,72,73,0
1,note_on,65,62,0
1,note_on,69,62,0
1,note_on,69,0,240
1,note_on,60,0,0
1,note_on,72,0,0
1,note_on,65,0,0
1,note_on,70,71,0
1,note_on,62,60,0
1,note_on,65,60,0
1,note_on,65,0,240
1,note_on,62,0,0
1,note_on,70,0,0
1,note_on,72,75,0
1,note_on,60,63,0
1,note_on,65,63,0
1,note_on,65,0,480
1,note_on,60,0,0
1,note_on,72,0,0
1,note_on,74,90,0
1,note_on,65,76,0
1,note_on,62,76,0
1,note_on,62,0,480
1,note_on,65,0,0
1,note_on,74,0,0
1,note_on,72,74,0
1,note_on,77,88,0
1,note_on,69,74,0
1,note_on,65,74,0
1,note_on,65,0,480
1,note_on,72,0,0
1,note_on,77,0,0
1,note_on,69,0,0
1,note_on,75,77,0
1,note_on,67,77,0
1,note_on,70,77,0
1,note_on,79,91,0
1,note_on,79,0,240
1,note_on,75,0,0
1,note_on,67,0,0
1,note_on,70,0,0
1,note_on,82,82,0
1,note_on,70,69,0
1,note_on,70,0,240
1,note_on,82,0,0
1,note_on,65,74,0
1,note_on,77,88,0
1,note_on,77,0,450
1,note_on,65,0,0
1,note_on,67,77,30
1,note_on,79,91,0
1,note_on,79,0,480
1,note_on,67,0,0
1,note_on,77,88,0
1,note_on,65,74,0
1,note_on,65,0,470
1,note_on,77,0,0
1,note_on,67,93,10
1,note_on,67,0,480
1,note_on,65,90,0
1,note_on,65,0,480
1,note_on,72,77,0
1,note_on,67,77,0
1,note_on,76,77,0
1,note_on,79,91,0
1,note_on,79,0,240
1,note_on,72,0,0
1,note_on,67,0,0
1,note_on,76,0,0
1,note_on,70,65,0
1,note_on,82,77,0
1,note_on,82,0,240
1,note_on,70,0,0
1,note_on,77,85,0
1,note_on,65,72,0
1,note_on,65,0,450
1,note_on,77,0,0
1,note_on,79,92,30
1,note_on,67,78,0
1,note_on,67,0,480
1,note_on,79,0,0
1,note_on,77,90,0
1,note_on,65,76,0
1,note_on,65,0,450
1,note_on,77,0,0
1,note_on,58,74,30
1,note_on,63,74,0
1,note_on,67,88,0
1,note_on,67,0,480
1,note_on,63,0,0
1,note_on,58,0,0
1,note_on,57,74,0
1,note_on,60,74,0
1,note_on,65,88,0
1,note_on,65,0,480
1,note_on,60,0,0
1,note_on,57,0,0
1,note_on,58,78,0
1,note_on,65,78,0
1,note_on,70,92,0
1,note_on,70,0,480
1,note_on,65,0,0
1,note_on,58,0,0
1,note_on,60,72,0
1,note_on,72,85,0
1,note_on,65,72,0
1,note_on,69,72,0
1,note_on,69,0,240
1,note_on,60,0,0
1,note_on,72,0,0
1,note_on,65,0,0
1,note_on,65,68,0
1,note_on,77,80,0
1,note_on,77,0,240
1,note_on,65,0,0
1,note_on,65,73,0
1,note_on,62,73,0
1,note_on,70,73,0
1,note_on,74,86,0
1,note_on,74,0,480
1,note_on,65,0,0
1,note_on,62,0,0
1,note_on,70,0,0
1,note_on,60,72,0
1,note_on,72,85,0
1,note_on,65,72,0
1,note_on,69,72,0
1,note_on,69,0,240
1,note_on,60,0,0
1,note_on,72,0,0
1,note_on,65,0,0
1,note_on,77,78,0
1,note_on,65,66,0
1,note_on,65,0,240
1,note_on,77,0,0
1,note_on,70,72,0
1,note_on,74,85,0
1,note_on,65,72,0
1,note_on,62,72,0
1,note_on,62,0,480
1,note_on,70,0,0
1,note_on,74,0,0
1,note_on,65,0,0
1,note_on,65,72,0
1,note_on,58,72,0
1,note_on,62,72,0
1,note_on,70,85,0
1,note_on,70,0,480
1,note_on,65,0,0
1,note_on,58,0,0
1,note_on,62,0,0
1,note_on,63,71,0
1,note_on,72,84,0
1,note_on,67,71,0
1,note_on,60,71,0
1,note_on,60,0,480
1,note_on,63,0,0
1,note_on,72,0,0
1,note_on,67,0,0
1,note_on,55,66,0
1,note_on,67,78,0
1,note_on,60,66,0
1,note_on,64,66,0
1,note_on,64,0,480
1,note_on,55,0,0
1,note_on,67,0,0
1,note_on,60,0,0
1,note_on,57,66,0
1,note_on,60,66,0
1,note_on,65,78,0
1,note_on,65,0,450
1,note_on,60,0,0
1,note_on,57,0,0
1,note_on,55,78,30
1,note_on,62,78,0
1,note_on,67,92,0
1,note_on,67,0,480
1,note_on,62,0,0
1,note_on,55,0,0
1,note_on,57,77,0
1,note_on,60,77,0
1,note_on,65,91,0
1,note_on,65,0,480
1,note_on,60,0,0
1,note_on,57,0,0
1,note_on,58,77,0
1,note_on,70,91,0
1,note_on,65,77,0
1,note_on,65,0,480
1,note_on,70,0,0
1,note_on,58,0,0
1,note_on,65,72,0
1,note_on,69,72,0
1,note_on,60,72,0
1,note_on,72,85,0
1,note_on,72,0,240
1,note_on,65,0,0
1,note_on,69,0,0
1,note_on,60,0,0
1,note_on,77,78,0
1,note_on,65,66,0
1,note_on,65,0,240
1,note_on,77,0,0
1,note_on,70,72,0
1,note_on,74,85,0
1,note_on,65,72,0
1,note_on,62,72,0
1,note_on,62,0,480
1,note_on,70,0,0
1,note_on,74,0,0
1,note_on,65,0,0
1,note_on,62,76,0
1,note_on,58,76,0
1,note_on,70,90,0
1,note_on,67,76,0
1,note_on,67,0,480
1,note_on,62,0,0
1,note_on,58,0,0
1,note_on,70,0,0
1,note_on,67,78,0
1,note_on,75,92,0
1,note_on,72,78,0
1,note_on,63,78,0
1,note_on,63,0,480
1,note_on,67,0,0
1,note_on,75,0,0
1,note_on,72,0,0
1,note_on,60,72,0
1,note_on,72,85,0
1,note_on,65,72,0
1,note_on,69,72,0
1,note_on,69,0,480
1,note_on,60,0,0
1,note_on,72,0,0
1,note_on,65,0,0
1,note_on,70,86,0
1,note_on,62,73,0
1,note_on,65,73,0
1,note_on,65,0,480
1,note_on,62,0,0
1,note_on,70,0,0
1,note_on,59,92,0
1,note_on,51,83,120
1,note_on,59,0,20
1,note_on,50,74,100
1,note_on,51,0,20
1,note_on,59,87,100
1,note_on,50,0,20
1,note_on,58,85,100
1,note_on,59,0,20
1,note_on,50,81,100
1,note_on,58,0,20
1,note_on,54,91,100
1,note_on,50,0,20
1,note_on,54,0,1300
1,note_on,59,55,120
1,note_on,51,49,120
1,note_on,59,0,20
1,note_on,50,44,100
1,note_on,51,0,20
1,note_on,59,52,100
1,note_on,50,0,20
1,note_on,58,50,100
1,note_on,59,0,20
1,note_on,50,44,100
1,note_on,58,0,20
1,note_on,54,50,100
1,note_on,50,0,20
1,note_on,54,0,1300
1,note_on,59,92,120
1,note_on,51,83,120
1,note_on,59,0,20
1,note_on,50,73,100
1,note_on,51,0,20
1,note_on,59,87,100
1,note_on,50,0,20
1,note_on,58,80,100
1,note_on,59,0,20
1,note_on,49,74,100
1,note_on,58,0,20
1,note_on,52,88,100
1,note_on,49,0,20
1,note_on,52,0,100
1,note_on,58,77,120
1,note_on,58,0,120
1,note_on,47,74,0
1,note_on,47,0,120
1,note_on,51,80,0
1,note_on,51,0,120
1,note_on,58,78,120
1,note_on,58,0,120
1,note_on,46,75,0
1,note_on,46,0,120
1,note_on,50,89,0
1,note_on,50,0,180
1,note_on,46,85,60
1,note_on,46,0,120
1,note_on,58,95,120
1,note_on,70,95,0
1,note_on,70,0,180
1,note_on,58,0,0
1,note_on,94,102,60
1,note_on,82,102,0
1,note_on,82,0,240
1,note_on,94,0,0
1,note_on,59,92,240
1,note_on,51,83,120
1,note_on,59,0,20
1,note_on,50,76,100
1,note_on,51,0,20
1,note_on,59,87,100
1,note_on,50,0,20
1,note_on,58,81,100
1,note_on,59,0,20
1,note_on,50,78,100
1,note_on,58,0,20
1,note_on,54,91,100
1,note_on,50,0,20
1,note_on,54,0,1300
1,note_on,59,92,120
1,note_on,51,83,120
1,note_on,59,0,20
1,note_on,50,75,100
1,note_on,51,0,20
1,note_on,59,85,100
1,note_on,50,0,20
1,note_on,58,83,100
1,note_on,59,0,20
1,note_on,49,75,100
1,note_on,58,0,20
1,note_on,52,88,100
1,note_on,49,0,20
1,note_on,52,0,100
1,note_on,58,77,120
1,note_on,58,0,120
1,note_on,47,74,0
1,note_on,47,0,120
1,note_on,51,80,0
1,note_on,51,0,120
1,note_on,58,78,120
1,note_on,58,0,120
1,note_on,46,75,0
1,note_on,46,0,120
1,note_on,50,87,0
1,note_on,50,0,180
1,note_on,46,85,60
1,note_on,46,0,120
1,note_on,58,99,120
1,note_on,70,99,0
1,note_on,70,0,180
1,note_on,58,0,0
1,note_on,82,94,60
1,note_on,70,94,0
1,note_on,70,0,180
1,note_on,82,0,0
1,note_on,94,102,60
1,note_on,82,102,0
1,note_on,82,0,240
1,note_on,94,0,0
1,note_on,89,79,720
1,note_on,82,67,0
1,note_on,78,67,0
1,note_on,78,0,180
1,note_on,82,0,0
1,note_on,89,0,0
1,note_on,87,72,60
1,note_on,82,61,0
1,note_on,78,61,0
1,note_on,78,0,840
1,note_on,82,0,0
1,note_on,87,0,0
1,note_on,85,75,360
1,note_on,78,63,0
1,note_on,75,63,0
1,note_on,75,0,180
1,note_on,78,0,0
1,note_on,85,0,0
1,note_on,75,60,60
1,note_on,78,60,0
1,note_on,84,71,0
1,note_on,84,0,360
1,note_on,78,0,0
1,note_on,75,0,0
1,note_on,71,62,120
1,note_on,75,62,0
1,note_on,80,74,0
1,note_on,80,0,180
1,note_on,75,0,0
1,note_on,71,0,0
1,note_on,71,59,60
1,note_on,75,59,0
1,note_on,78,70,0
1,note_on,78,0,360
1,note_on,75,0,0
1,note_on,71,0,0
1,note_on,66,58,120
1,note_on,70,58,0
1,note_on,77,69,0
1,note_on,77,0,180
1,note_on,70,0,0
1,note_on,66,0,0
1,note_on,66,56,60
1,note_on,70,56,0
1,note_on,75,67,0
1,note_on,75,0,840
1,note_on,70,0,0
1,note_on,66,0,0
1,note_on,63,56,360
1,note_on,66,56,0
1,note_on,73,66,0
1,note_on,73,0,180
1,note_on,66,0,0
1,note_on,63,0,0
1,note_on,63,51,60
1,note_on,66,51,0
1,note_on,72,60,0
1,note_on,72,0,360
1,note_on,66,0,0
1,note_on,63,0,0
1,note_on,59,51,120
1,note_on,63,51,0
1,note_on,68,61,0
1,note_on,68,0,180
1,note_on,63,0,0
1,note_on,59,0,0
1,note_on,59,46,60
1,note_on,63,46,0
1,note_on,66,55,0
1,note_on,66,0,360
1,note_on,63,0,0
1,note_on,59,0,0
1,note_on,59,72,300
1,note_on,59,0,60
1,note_on,58,100,0
1,note_on,58,0,120
1,note_on,47,69,60
1,note_on,47,0,60
1,note_on,46,94,0
1,note_on,46,0,120
1,note_on,89,64,840
1,note_on,82,54,0
1,note_on,78,54,0
1,note_on,78,0,180
1,note_on,82,0,0
1,note_on,89,0,0
1,note_on,87,59,60
1,note_on,82,50,0
1,note_on,78,50,0
1,note_on,78,0,840
1,note_on,82,0,0
1,note_on,87,0,0
1,note_on,85,62,360
1,note_on,78,52,0
1,note_on,75,52,0
1,note_on,75,0,180
1,note_on,78,0,0
1,note_on,85,0,0
1,note_on,75,49,60
1,note_on,78,49,0
1,note_on,84,58,0
1,note_on,84,0,360
1,note_on,78,0,0
1,note_on,75,0,0
1,note_on,71,51,120
1,note_on,75,51,0
1,note_on,80,61,0
1,note_on,80,0,180
1,note_on,75,0,0
1,note_on,71,0,0
1,note_on,71,48,60
1,note_on,75,48,0
1,note_on,78,57,0
1,note_on,78,0,360
1,note_on,75,0,0
1,note_on,71,0,0
1,note_on,66,47,120
1,note_on,70,47,0
1,note_on,77,56,0
1,note_on,77,0,180
1,note_on,70,0,0
1,note_on,66,0,0
1,note_on,66,45,60
1,note_on,70,45,0
1,note_on,75,54,0
1,note_on,75,0,840
1,note_on,70,0,0
1,note_on,66,0,0
1,note_on,63,45,360
1,note_on,66,45,0
1,note_on,73,54,0
1,note_on,73,0,180
1,note_on,66,0,0
1,note_on,63,0,0
1,note_on,63,41,60
1,note_on,66,41,0
1,note_on,72,49,0
1,note_on,72,0,360
1,note_on,66,0,0
1,note_on,63,0,0
1,note_on,59,42,120
1,note_on,63,42,0
1,note_on,68,50,0
1,note_on,68,0,180
1,note_on,63,0,0
1,note_on,59,0,0
1,note_on,59,38,60
1,note_on,63,38,0
1,note_on,66,45,0
1,note_on,66,0,360
1,note_on,63,0,0
1,note_on,59,0,0
1,note_on,59,66,300
1,note_on,59,0,60
1,note_on,58,90,0
1,note_on,58,0,120
1,note_on,47,63,60
1,note_on,47,0,60
1,note_on,46,84,0
1,note_on,46,0,120
1,note_on,59,92,840
1,note_on,51,83,120
1,note_on,59,0,20
1,note_on,50,75,100
1,note_on,51,0,20
1,note_on,59,86,100
1,note_on,50,0,20
1,note_on,58,82,100
1,note_on,59,0,20
1,note_on,50,76,100
1,note_on,58,0,20
1,note_on,54,91,100
1,note_on,50,0,20
1,note_on,54,0,400
1,note_on,47,80,0
1,note_on,47,0,60
1,note_on,46,105,0
1,note_on,46,0,180
1,note_on,59,92,780
1,note_on,51,83,120
1,note_on,59,0,20
1,note_on,50,76,100
1,note_on,51,0,20
1,note_on,59,84,100
1,note_on,50,0,20
1,note_on,58,82,100
1,note_on,59,0,20
1,note_on,49,73,100
1,note_on,58,0,20
1,note_on,52,88,100
1,note_on,49,0,20
1,note_on,52,0,100
1,note_on,58,77,120
1,note_on,58,0,120
1,note_on,47,74,0
1,note_on,47,0,120
1,note_on,51,80,0
1,note_on,51,0,120
1,note_on,58,78,120
1,note_on,58,0,120
1,note_on,46,75,0
1,note_on,46,0,120
1,note_on,50,81,0
1,note_on,50,0,240
1,note_on,46,85,0
1,note_on,46,0,120
1,note_on,59,78,300
1,note_on,59,0,60
1,note_on,58,102,0
1,note_on,58,0,120
1,note_on,47,84,60
1,note_on,47,0,60
1,note_on,46,104,0
1,note_on,46,0,120
1,note_on,47,109,120
1,note_on,47,0,720
1,note_on,46,94,0
1,note_on,46,0,240
1,note_on,51,58,480
1,note_on,51,0,960
1,note_on,57,47,0
1,note_on,69,56,0
1,note_on,69,0,960
1,note_on,57,0,0
1,note_on,51,58,0
1,note_on,51,0,960
1,note_on,58,47,0
1,note_on,70,56,0
1,note_on,70,0,960
1,note_on,58,0,0
1,note_on,51,58,0
1,note_on,51,0,960
1,note_on,63,51,0
1,note_on,75,60,0
1,note_on,75,0,480
1,note_on,63,0,0
1,note_on,62,50,0
1,note_on,74,59,0
1,note_on,74,0,480
1,note_on,62,0,0
1,note_on,64,51,0
1,note_on,76,61,0
1,note_on,76,0,960
1,note_on,64,0,0
1,note_on,63,47,0
1,note_on,75,56,0
1,note_on,75,0,960
1,note_on,63,0,0
1,note_on,51,58,0
1,note_on,51,0,480
1,note_on,63,51,0
1,note_on,75,60,0
1,note_on,75,0,480
1,note_on,63,0,0
1,note_on,62,47,0
1,note_on,74,56,0
1,note_on,74,0,480
1,note_on,62,0,0
1,note_on,66,51,0
1,note_on,78,60,0
1,note_on,78,0,480
1,note_on,66,0,0
1,note_on,65,48,0
1,note_on,77,57,0
1,note_on,77,0,480
1,note_on,65,0,0
1,note_on,58,44,0
1,note_on,70,52,0
1,note_on,70,0,480
1,note_on,58,0,0
1,note_on,65,47,0
1,note_on,77,56,0
1,note_on,77,0,960
1,note_on,65,0,0
1,note_on,66,50,0
1,note_on,78,59,0
1,note_on,78,0,480
1,note_on,66,0,0
1,note_on,65,42,0
1,note_on,77,50,0
1,note_on,77,0,480
1,note_on,65,0,0
1,note_on,58,45,0
1,note_on,70,54,0
1,note_on,70,0,480
1,note_on,58,0,0
1,note_on,66,38,0
1,note_on,78,45,0
1,note_on,78,0,480
1,note_on,66,0,0
1,note_on,59,92,0
1,note_on,51,83,120
1,note_on,59,0,20
1,note_on,50,76,100
1,note_on,51,0,20
1,note_on,59,87,100
1,note_on,50,0,20
1,note_on,58,85,100
1,note_on,59,0,20
1,note_on,50,81,100
1,note_on,58,0,20
1,note_on,54,91,100
1,note_on,50,0,20
1,note_on,54,0,220
1,note_on,51,58,480
1,note_on,51,0,960
1,note_on,57,47,0
1,note_on,69,56,0
1,note_on,69,0,960
1,note_on,57,0,0
1,note_on,51,58,0
1,note_on,51,0,960
1,note_on,58,47,0
1,note_on,70,56,0
1,note_on,70,0,960
1,note_on,58,0,0
1,note_on,51,58,0
1,note_on,51,0,960
1,note_on,65,51,0
1,note_on,77,60,0
1,note_on,77,0,480
1,note_on,65,0,0
1,note_on,64,50,0
1,note_on,76,59,0
1,note_on,76,0,480
1,note_on,64,0,0
1,note_on,68,51,0
1,note_on,80,61,0
1,note_on,80,0,960
1,note_on,68,0,0
1,note_on,67,45,0
1,note_on,79,54,0
1,note_on,79,0,960
1,note_on,67,0,0
1,note_on,51,58,0
1,note_on,51,0,480
1,note_on,65,51,0
1,note_on,77,60,0
1,note_on,77,0,480
1,note_on,65,0,0
1,note_on,64,47,0
1,note_on,76,70,0
1,note_on,76,0,480
1,note_on,64,0,0
1,note_on,68,51,0
1,note_on,80,60,0
1,note_on,80,0,480
1,note_on,68,0,0
1,note_on,67,48,0
1,note_on,79,57,0
1,note_on,79,0,480
1,note_on,67,0,0
1,note_on,61,44,0
1,note_on,73,52,0
1,note_on,73,0,480
1,note_on,61,0,0
1,note_on,67,47,0
1,note_on,79,56,0
1,note_on,79,0,960
1,note_on,67,0,0
1,note_on,68,50,0
1,note_on,80,59,0
1,note_on,80,0,480
1,note_on,68,0,0
1,note_on,67,42,0
1,note_on,79,50,0
1,note_on,79,0,480
1,note_on,67,0,0
1,note_on,61,45,0
1,note_on,73,54,0
1,note_on,73,0,480
1,note_on,61,0,0
1,note_on,67,38,0
1,note_on,79,45,0
1,note_on,79,0,480
1,note_on,67,0,0
1,note_on,64,92,0
1,note_on,56,83,120
1,note_on,64,0,20
1,note_on,55,79,100
1,note_on,56,0,20
1,note_on,64,87,100
1,note_on,55,0,20
1,note_on,63,85,100
1,note_on,64,0,20
1,note_on,55,81,100
1,note_on,63,0,20
1,note_on,59,91,100
1,note_on,55,0,20
1,note_on,59,0,220
1,note_on,56,58,480
1,note_on,56,0,960
1,note_on,62,47,0
1,note_on,74,56,0
1,note_on,74,0,960
1,note_on,62,0,0
1,note_on,56,58,0
1,note_on,56,0,960
1,note_on,63,47,0
1,note_on,75,56,0
1,note_on,75,0,960
1,note_on,63,0,0
1,note_on,71,87,0
1,note_on,63,78,120
1,note_on,71,0,20
1,note_on,62,75,100
1,note_on,63,0,20
1,note_on,71,82,100
1,note_on,62,0,20
1,note_on,70,80,100
1,note_on,71,0,20
1,note_on,63,76,100
1,note_on,70,0,20
1,note_on,66,86,100
1,note_on,63,0,20
1,note_on,66,0,220
1,note_on,63,72,420
1,note_on,75,85,0
1,note_on,75,0,60
1,note_on,63,0,0
1,note_on,75,84,0
1,note_on,87,99,0
1,note_on,87,0,960
1,note_on,75,0,0
1,note_on,74,75,0
1,note_on,86,89,0
1,note_on,86,0,480
1,note_on,74,0,0
1,note_on,78,68,0
1,note_on,90,80,0
1,note_on,90,0,480
1,note_on,78,0,0
1,note_on,77,79,0
1,note_on,89,93,0
1,note_on,89,0,480
1,note_on,77,0,0
1,note_on,70,67,0
1,note_on,82,79,0
1,note_on,82,0,480
1,note_on,70,0,0
1,note_on,76,74,0
1,note_on,88,88,0
1,note_on,88,0,960
1,note_on,76,0,0
1,note_on,75,79,0
1,note_on,87,94,0
1,note_on,87,0,960
1,note_on,75,0,0
1,note_on,74,78,0
1,note_on,86,92,0
1,note_on,86,0,480
1,note_on,74,0,0
1,note_on,68,66,0
1,note_on,80,78,0
1,note_on,80,0,480
1,note_on,68,0,0
1,note_on,73,78,0
1,note_on,85,92,0
1,note_on,85,0,480
1,note_on,73,0,0
1,note_on,66,65,0
1,note_on,78,77,0
1,note_on,78,0,480
1,note_on,66,0,0
1,note_on,72,71,0
1,note_on,84,84,0
1,note_on,84,0,960
1,note_on,72,0,0
1,note_on,71,76,0
1,note_on,83,90,0
1,note_on,83,0,960
1,note_on,71,0,0
1,note_on,70,70,0
1,note_on,82,87,0
1,note_on,82,0,480
1,note_on,70,0,0
1,note_on,63,60,0
1,note_on,75,71,0
1,note_on,75,0,480
1,note_on,63,0,0
1,note_on,69,67,0
1,note_on,81,79,0
1,note_on,81,0,960
1,note_on,69,0,0
1,note_on,68,66,0
1,note_on,80,78,0
1,note_on,80,0,480
1,note_on,68,0,0
1,note_on,62,58,0
1,note_on,74,69,0
1,note_on,74,0,420
1,note_on,62,0,0
1,note_on,63,66,0
1,note_on,75,78,0
1,note_on,75,0,60
1,note_on,63,0,0
1,note_on,75,76,0
1,note_on,87,90,0
1,note_on,87,0,960
1,note_on,75,0,0
1,note_on,74,71,0
1,note_on,86,84,0
1,note_on,86,0,960
1,note_on,74,0,0
1,note_on,73,72,0
1,note_on,85,85,0
1,note_on,85,0,960
1,note_on,73,0,0
1,note_on,72,67,0
1,note_on,84,82,0
1,note_on,84,0,960
1,note_on,72,0,0
1,note_on,71,68,0
1,note_on,83,81,0
1,note_on,83,0,960
1,note_on,71,0,0
1,note_on,70,62,0
1,note_on,82,74,0
1,note_on,82,0,960
1,note_on,70,0,0
1,note_on,69,63,0
1,note_on,81,75,0
1,note_on,81,0,960
1,note_on,69,0,0
1,note_on,68,59,0
1,note_on,80,70,0
1,note_on,80,0,960
1,note_on,68,0,0
1,note_on,67,59,0
1,note_on,79,70,0
1,note_on,79,0,960
1,note_on,67,0,0
1,note_on,66,56,0
1,note_on,78,67,0
1,note_on,78,0,960
1,note_on,66,0,0
1,note_on,65,54,0
1,note_on,77,64,0
1,note_on,77,0,960
1,note_on,65,0,0
1,note_on,64,51,0
1,note_on,76,60,0
1,note_on,76,0,480
1,note_on,64,0,0
1,note_on,89,60,3360
1,note_on,82,51,0
1,note_on,78,51,0
1,note_on,78,0,240
1,note_on,82,0,0
1,note_on,89,0,0
1,note_on,87,60,0
1,note_on,78,51,0
1,note_on,82,51,0
1,note_on,82,0,480
1,note_on,78,0,0
1,note_on,87,0,0
1,note_on,85,60,720
1,note_on,75,60,0
1,note_on,78,60,0
1,note_on,78,0,240
1,note_on,75,0,0
1,note_on,85,0,0
1,note_on,84,60,0
1,note_on,78,60,0
1,note_on,75,60,0
1,note_on,75,0,360
1,note_on,78,0,0
1,note_on,84,0,0
1,note_on,71,51,120
1,note_on,75,51,0
1,note_on,80,60,0
1,note_on,80,0,240
1,note_on,75,0,0
1,note_on,71,0,0
1,note_on,71,51,0
1,note_on,75,51,0
1,note_on,78,60,0
1,note_on,78,0,360
1,note_on,75,0,0
1,note_on,71,0,0
1,note_on,66,51,120
1,note_on,70,51,0
1,note_on,77,60,0
1,note_on,77,0,240
1,note_on,70,0,0
1,note_on,66,0,0
1,note_on,66,51,0
1,note_on,70,51,0
1,note_on,75,60,0
1,note_on,75,0,480
1,note_on,70,0,0
1,note_on,66,0,0
1,note_on,66,51,720
1,note_on,63,51,0
1,note_on,73,60,0
1,note_on,73,0,240
1,note_on,63,0,0
1,note_on,66,0,0
1,note_on,63,51,0
1,note_on,66,51,0
1,note_on,72,60,0
1,note_on,72,0,360
1,note_on,66,0,0
1,note_on,63,0,0
1,note_on,59,51,120
1,note_on,63,51,0
1,note_on,68,60,0
1,note_on,68,0,240
1,note_on,63,0,0
1,note_on,59,0,0
1,note_on,59,51,0
1,note_on,63,51,0
1,note_on,66,60,0
1,note_on,66,0,360
1,note_on,63,0,0
1,note_on,59,0,0
1,note_on,54,51,120
1,note_on,58,51,0
1,note_on,65,60,0
1,note_on,65,0,240
1,note_on,58,0,0
1,note_on,54,0,0
1,note_on,54,51,0
1,note_on,58,51,0
1,note_on,63,60,0
1,note_on,63,0,360
1,note_on,58,0,0
1,note_on,54,0,0
1,note_on,51,62,840
1,note_on,54,62,0
1,note_on,61,74,0
1,note_on,61,0,240
1,note_on,54,0,0
1,note_on,51,0,0
1,note_on,51,62,0
1,note_on,54,62,0
1,note_on,60,74,0
1,note_on,60,0,360
1,note_on,54,0,0
1,note_on,51,0,0
1,note_on,63,71,780
1,note_on,66,71,0
1,note_on,73,94,0
1,note_on,73,0,240
1,note_on,66,0,0
1,note_on,63,0,0
1,note_on,63,68,0
1,note_on,66,68,0
1,note_on,72,91,0
1,note_on,72,0,360
1,note_on,66,0,0
1,note_on,63,0,0
1,note_on,68,91,840
1,note_on,71,91,0
1,note_on,75,102,0
1,note_on,75,0,240
1,note_on,71,0,0
1,note_on,68,0,0
1,note_on,68,86,0
1,note_on,71,86,0
1,note_on,76,96,0
1,note_on,75,96,0
1,note_on,75,0,360
1,note_on,68,0,0
1,note_on,71,0,0
1,note_on,76,0,0
1,note_on,68,97,840
1,note_on,71,97,0
1,note_on,75,108,0
1,note_on,75,0,480
1,note_on,71,0,0
1,note_on,68,0,0
1,note_on,68,90,0
1,note_on,71,90,0
1,note_on,76,100,0
1,note_on,75,100,0
1,note_on,75,0,720
1,note_on,68,0,0
1,note_on,71,0,0
1,note_on,76,0,0
1,note_on,71,95,720
1,note_on,71,0,240
1,note_on,70,97,0
1,note_on,70,0,120
1,note_on,65,83,0
1,note_on,65,0,120
1,note_on,66,85,0
1,note_on,66,0,120
1,note_on,69,87,0
1,note_on,69,0,120
1,note_on,70,90,0
1,note_on,70,0,120
1,note_on,71,87,0
1,note_on,71,0,120
1,note_on,69,92,0
1,note_on,69,0,120
1,note_on,70,87,0
1,note_on,70,0,120
1,note_on,74,89,0
1,note_on,74,0,120
1,note_on,75,91,0
1,note_on,75,0,120
1,note_on,77,93,0
1,note_on,77,0,120
1,note_on,78,95,0
1,note_on,78,0,120
1,note_on,77,104,0
1,note_on,77,0,120
1,note_on,74,89,0
1,note_on,74,0,120
1,note_on,75,92,0
1,note_on,75,0,120
1,note_on,77,95,0
1,note_on,77,0,120
1,note_on,78,97,0
1,note_on,78,0,120
1,note_on,81,99,0
1,note_on,81,0,120
1,note_on,82,105,0
1,note_on,82,0,120
1,note_on,83,99,0
1,note_on,83,0,120
1,note_on,81,91,0
1,note_on,81,0,120
1,note_on,82,94,0
1,note_on,82,0,120
1,note_on,86,97,0
1,note_on,86,0,120
1,note_on,87,100,0
1,note_on,87,0,120
1,note_on,75,88,90
1,note_on,82,100,30
1,note_on,90,113,60
1,note_on,82,0,210
1,note_on,75,0,0
1,note_on,90,0,30
2,note_on,43,62,5280
2,note_on,55,74,0
2,note_on,55,0,480
2,note_on,43,0,0
2,note_on,45,58,0
2,note_on,53,69,0
2,note_on,53,0,480
2,note_on,45,0,0
2,note_on,43,58,0
2,note_on,55,69,0
2,note_on,55,0,480
2,note_on,43,0,0
2,note_on,41,56,0
2,note_on,53,66,0
2,note_on,53,0,480
2,note_on,41,0,0
2,note_on,38,51,0
2,note_on,50,60,0
2,note_on,50,0,480
2,note_on,38,0,0
2,note_on,41,58,0
2,note_on,53,69,0
2,note_on,53,0,480
2,note_on,41,0,0
2,note_on,46,56,0
2,note_on,58,67,0
2,note_on,58,0,480
2,note_on,46,0,0
2,note_on,43,53,0
2,note_on,55,63,0
2,note_on,55,0,480
2,note_on,43,0,0
2,note_on,36,56,0
2,note_on,48,56,0
2,note_on,48,0,480
2,note_on,36,0,0
2,note_on,40,49,0
2,note_on,52,58,0
2,note_on,52,0,480
2,note_on,40,0,0
2,note_on,41,47,0
2,note_on,53,56,0
2,note_on,53,0,450
2,note_on,41,0,0
2,note_on,53,73,3390
2,note_on,41,62,0
2,note_on,41,0,480
2,note_on,53,0,0
2,note_on,58,69,0
2,note_on,46,58,0
2,note_on,46,0,480
2,note_on,58,0,0
2,note_on,55,67,0
2,note_on,43,56,0
2,note_on,43,0,480
2,note_on,55,0,0
2,note_on,53,61,0
2,note_on,41,51,0
2,note_on,41,0,450
2,note_on,53,0,0
2,note_on,56,73,3390
2,note_on,44,62,0
2,note_on,44,0,480
2,note_on,56,0,0
2,note_on,61,68,0
2,note_on,49,57,0
2,note_on,49,0,480
2,note_on,61,0,0
2,note_on,58,67,0
2,note_on,46,56,0
2,note_on,46,0,480
2,note_on,58,0,0
2,note_on,56,64,0
2,note_on,44,54,0
2,note_on,44,0,450
2,note_on,56,0,0
2,note_on,42,37,30
2,note_on,30,31,0
2,note_on,30,0,960
2,note_on,42,0,0
2,note_on,29,28,0
2,note_on,41,34,0
2,note_on,41,0,480
2,note_on,29,0,0
2,note_on,30,31,0
2,note_on,42,37,0
2,note_on,42,0,480
2,note_on,30,0,0
2,note_on,30,28,0
2,note_on,42,34,0
2,note_on,42,0,480
2,note_on,30,0,0
2,note_on,42,28,0
2,note_on,54,33,0
2,note_on,54,0,450
2,note_on,42,0,0
2,note_on,41,46,30
2,note_on,53,55,0
2,note_on,53,0,240
2,note_on,41,0,0
2,note_on,51,50,0
2,note_on,39,42,0
2,note_on,39,0,240
2,note_on,51,0,0
2,note_on,37,46,0
2,note_on,49,55,0
2,note_on,49,0,480
2,note_on,37,0,0
2,note_on,39,47,0
2,note_on,51,56,0
2,note_on,51,0,240
2,note_on,39,0,0
2,note_on,41,43,0
2,note_on,53,51,0
2,note_on,53,0,240
2,note_on,41,0,0
2,note_on,56,56,0
2,note_on,44,47,0
2,note_on,44,0,480
2,note_on,56,0,0
2,note_on,58,46,0
2,note_on,46,39,0
2,note_on,46,0,480
2,note_on,58,0,0
2,note_on,44,37,0
2,note_on,56,44,0
2,note_on,56,0,450
2,note_on,44,0,0
2,note_on,30,29,30
2,note_on,42,35,0
2,note_on,42,0,960
2,note_on,30,0,0
2,note_on,29,31,0
2,note_on,41,37,0
2,note_on,41,0,480
2,note_on,29,0,0
2,note_on,30,31,0
2,note_on,42,38,0
2,note_on,42,0,480
2,note_on,30,0,0
2,note_on,42,37,0
2,note_on,54,44,0
2,note_on,54,0,240
2,note_on,42,0,0
2,note_on,46,41,240
2,note_on,34,34,0
2,note_on,34,0,960
2,note_on,46,0,0
2,note_on,45,40,0
2,note_on,33,34,0
2,note_on,33,0,480
2,note_on,45,0,0
2,note_on,46,42,0
2,note_on,34,35,0
2,note_on,34,0,480
2,note_on,46,0,0
2,note_on,46,41,0
2,note_on,34,34,0
2,note_on,34,0,480
2,note_on,46,0,0
2,note_on,58,41,0
2,note_on,46,34,0
2,note_on,46,0,450
2,note_on,58,0,0
2,note_on,57,62,30
2,note_on,45,52,0
2,note_on,45,0,240
2,note_on,57,0,0
2,note_on,55,56,0
2,note_on,43,47,0
2,note_on,43,0,240
2,note_on,55,0,0
2,note_on,41,51,0
2,note_on,53,61,0
2,note_on,53,0,480
2,note_on,41,0,0
2,note_on,55,61,0
2,note_on,43,51,0
2,note_on,43,0,240
2,note_on,55,0,0
2,note_on,45,47,0
2,note_on,57,56,0
2,note_on,57,0,240
2,note_on,45,0,0
2,note_on,60,62,0
2,note_on,48,52,0
2,note_on,48,0,480
2,note_on,60,0,0
2,note_on,50,51,0
2,note_on,62,60,0
2,note_on,62,0,480
2,note_on,50,0,0
2,note_on,48,49,0
2,note_on,60,58,0
2,note_on,60,0,450
2,note_on,48,0,0
2,note_on,57,43,30
2,note_on,45,36,0
2,note_on,45,0,480
2,note_on,57,0,0
2,note_on,46,33,0
2,note_on,58,39,0
2,note_on,58,0,480
2,note_on,46,0,0
2,note_on,53,43,0
2,note_on,41,36,0
2,note_on,41,0,480
2,note_on,53,0,0
2,note_on,55,37,0
2,note_on,43,31,0
2,note_on,43,0,480
2,note_on,55,0,0
2,note_on,53,42,0
2,note_on,41,35,0
2,note_on,41,0,480
2,note_on,53,0,0
2,note_on,55,37,0
2,note_on,43,31,0
2,note_on,43,0,480
2,note_on,55,0,0
2,note_on,50,44,0
2,note_on,38,37,0
2,note_on,38,0,480
2,note_on,50,0,0
2,note_on,55,41,0
2,note_on,43,34,0
2,note_on,43,0,480
2,note_on,55,0,0
2,note_on,50,44,0
2,note_on,38,37,0
2,note_on,38,0,480
2,note_on,50,0,0
2,note_on,55,35,0
2,note_on,43,29,0
2,note_on,43,0,480
2,note_on,55,0,0
2,note_on,50,44,0
2,note_on,38,37,0
2,note_on,38,0,480
2,note_on,50,0,0
2,note_on,55,40,0
2,note_on,43,34,0
2,note_on,43,0,450
2,note_on,55,0,0
2,note_on,48,43,30
2,note_on,36,36,0
2,note_on,36,0,480
2,note_on,48,0,0
2,note_on,41,34,0
2,note_on,53,41,0
2,note_on,53,0,480
2,note_on,41,0,0
2,note_on,43,29,0
2,note_on,55,35,0
2,note_on,55,0,480
2,note_on,43,0,0
2,note_on,48,42,0
2,note_on,36,35,0
2,note_on,36,0,480
2,note_on,48,0,0
2,note_on,41,34,0
2,note_on,53,40,0
2,note_on,53,0,480
2,note_on,41,0,0
2,note_on,55,41,0
2,note_on,43,34,0
2,note_on,43,0,480
2,note_on,55,0,0
2,note_on,48,42,0
2,note_on,36,35,0
2,note_on,36,0,480
2,note_on,48,0,0
2,note_on,41,35,0
2,note_on,41,0,480
2,note_on,48,39,0
2,note_on,36,33,0
2,note_on,36,0,450
2,note_on,48,0,0
2,note_on,41,67,30
2,note_on,29,56,0
2,note_on,29,0,480
2,note_on,41,0,0
2,note_on,43,67,0
2,note_on,31,56,0
2,note_on,31,0,480
2,note_on,43,0,0
2,note_on,45,62,0
2,note_on,33,52,0
2,note_on,33,0,240
2,note_on,45,0,0
2,note_on,46,56,0
2,note_on,34,47,0
2,note_on,34,0,240
2,note_on,46,0,0
2,note_on,45,64,0
2,note_on,33,54,0
2,note_on,33,0,480
2,note_on,45,0,0
2,note_on,34,56,0
2,note_on,46,66,0
2,note_on,46,0,480
2,note_on,34,0,0
2,note_on,45,66,0
2,note_on,33,56,0
2,note_on,33,0,480
2,note_on,45,0,0
2,note_on,43,63,0
2,note_on,31,53,0
2,note_on,31,0,480
2,note_on,43,0,0
2,note_on,29,56,0
2,note_on,41,66,0
2,note_on,41,0,450
2,note_on,29,0,0
2,note_on,43,67,30
2,note_on,31,56,0
2,note_on,31,0,480
2,note_on,43,0,0
2,note_on,41,67,0
2,note_on,29,56,0
2,note_on,29,0,480
2,note_on,41,0,0
2,note_on,31,53,0
2,note_on,43,63,0
2,note_on,43,0,480
2,note_on,31,0,0
2,note_on,45,62,0
2,note_on,33,52,0
2,note_on,33,0,240
2,note_on,45,0,0
2,note_on,46,55,0
2,note_on,34,46,0
2,note_on,34,0,240
2,note_on,46,0,0
2,note_on,45,62,0
2,note_on,33,52,0
2,note_on,33,0,480
2,note_on,45,0,0
2,note_on,34,57,0
2,note_on,46,68,0
2,note_on,46,0,480
2,note_on,34,0,0
2,note_on,33,57,0
2,note_on,45,68,0
2,note_on,45,0,480
2,note_on,33,0,0
2,note_on,31,58,0
2,note_on,43,69,0
2,note_on,43,0,480
2,note_on,31,0,0
2,note_on,29,56,0
2,note_on,41,66,0
2,note_on,41,0,450
2,note_on,29,0,0
2,note_on,43,69,30
2,note_on,31,58,0
2,note_on,31,0,480
2,note_on,43,0,0
2,note_on,29,56,0
2,note_on,41,66,0
2,note_on,41,0,470
2,note_on,29,0,0
2,note_on,55,69,10
2,note_on,55,0,480
2,note_on,53,68,0
2,note_on,53,0,480
2,note_on,36,56,0
2,note_on,48,67,0
2,note_on,48,0,480
2,note_on,36,0,0
2,note_on,29,51,0
2,note_on,41,61,0
2,note_on,41,0,450
2,note_on,29,0,0
2,note_on,31,52,30
2,note_on,43,62,0
2,note_on,43,0,480
2,note_on,31,0,0
2,note_on,29,56,0
2,note_on,41,67,0
2,note_on,41,0,450
2,note_on,29,0,0
2,note_on,39,56,30
2,note_on,51,67,0
2,note_on,51,0,480
2,note_on,39,0,0
2,note_on,41,56,0
2,note_on,53,67,0
2,note_on,53,0,480
2,note_on,41,0,0
2,note_on,38,56,0
2,note_on,50,66,0
2,note_on,50,0,480
2,note_on,38,0,0
2,note_on,36,57,0
2,note_on,48,68,0
2,note_on,48,0,480
2,note_on,36,0,0
2,note_on,46,62,0
2,note_on,34,52,0
2,note_on,34,0,480
2,note_on,46,0,0
2,note_on,45,68,0
2,note_on,33,57,0
2,note_on,33,0,480
2,note_on,45,0,0
2,note_on,43,62,0
2,note_on,31,52,0
2,note_on,31,0,480
2,note_on,43,0,0
2,note_on,55,62,0
2,note_on,43,52,0
2,note_on,43,0,480
2,note_on,55,0,0
2,note_on,48,64,0
2,note_on,36,54,0
2,note_on,36,0,480
2,note_on,48,0,0
2,note_on,40,49,0
2,note_on,52,58,0
2,note_on,52,0,480
2,note_on,40,0,0
2,note_on,53,57,0
2,note_on,41,48,0
2,note_on,41,0,450
2,note_on,53,0,0
2,note_on,46,69,30
2,note_on,34,58,0
2,note_on,34,0,480
2,note_on,46,0,0
2,note_on,45,66,0
2,note_on,33,56,0
2,note_on,33,0,480
2,note_on,45,0,0
2,note_on,43,67,0
2,note_on,31,56,0
2,note_on,31,0,480
2,note_on,43,0,0
2,note_on,41,68,0
2,note_on,29,57,0
2,note_on,29,0,480
2,note_on,41,0,0
2,note_on,46,64,0
2,note_on,34,54,0
2,note_on,34,0,480
2,note_on,46,0,0
2,note_on,55,68,0
2,note_on,43,57,0
2,note_on,43,0,480
2,note_on,55,0,0
2,note_on,48,64,0
2,note_on,36,54,0
2,note_on,36,0,480
2,note_on,48,0,0
2,note_on,53,60,0
2,note_on,41,51,0
2,note_on,41,0,480
2,note_on,53,0,0
2,note_on,58,62,0
2,note_on,46,52,0
2,note_on,46,0,480
2,note_on,58,0,0
2,note_on,47,80,0
2,note_on,39,75,120
2,note_on,47,0,20
2,note_on,38,70,100
2,note_on,39,0,20
2,note_on,47,76,100
2,note_on,38,0,20
2,note_on,46,74,100
2,note_on,47,0,20
2,note_on,38,70,100
2,note_on,46,0,20
2,note_on,42,80,100
2,note_on,38,0,20
2,note_on,42,0,1300
2,note_on,47,48,120
2,note_on,39,45,120
2,note_on,47,0,20
2,note_on,38,37,100
2,note_on,39,0,20
2,note_on,47,45,100
2,note_on,38,0,20
2,note_on,46,44,100
2,note_on,47,0,20
2,note_on,38,37,100
2,note_on,46,0,20
2,note_on,42,43,100
2,note_on,38,0,20
2,note_on,42,0,1300
2,note_on,47,80,120
2,note_on,39,75,120
2,note_on,47,0,20
2,note_on,38,65,100
2,note_on,39,0,20
2,note_on,47,76,100
2,note_on,38,0,20
2,note_on,46,72,100
2,note_on,47,0,20
2,note_on,37,63,100
2,note_on,46,0,20
2,note_on,40,80,100
2,note_on,37,0,20
2,note_on,40,0,100
2,note_on,46,69,120
2,note_on,46,0,120
2,note_on,35,63,0
2,note_on,35,0,120
2,note_on,39,69,0
2,note_on,39,0,120
2,note_on,46,70,120
2,note_on,46,0,120
2,note_on,34,67,0
2,note_on,34,0,120
2,note_on,38,72,0
2,note_on,38,0,180
2,note_on,34,73,60
2,note_on,34,0,120
2,note_on,46,91,120
2,note_on,46,0,180
2,note_on,70,94,60
2,note_on,70,0,240
2,note_on,47,80,240
2,note_on,39,75,120
2,note_on,47,0,20
2,note_on,38,66,100
2,note_on,39,0,20
2,note_on,47,76,100
2,note_on,38,0,20
2,note_on,46,73,100
2,note_on,47,0,20
2,note_on,38,70,100
2,note_on,46,0,20
2,note_on,42,80,100
2,note_on,38,0,20
2,note_on,42,0,1300
2,note_on,47,80,120
2,note_on,39,75,120
2,note_on,47,0,20
2,note_on,38,67,100
2,note_on,39,0,20
2,note_on,47,76,100
2,note_on,38,0,20
2,note_on,46,74,100
2,note_on,47,0,20
2,note_on,37,66,100
2,note_on,46,0,20
2,note_on,40,80,100
2,note_on,37,0,20
2,note_on,40,0,100
2,note_on,46,69,120
2,note_on,46,0,120
2,note_on,35,63,0
2,note_on,35,0,120
2,note_on,39,69,0
2,note_on,39,0,120
2,note_on,46,70,120
2,note_on,46,0,120
2,note_on,34,67,0
2,note_on,34,0,120
2,note_on,38,76,0
2,note_on,38,0,180
2,note_on,34,73,60
2,note_on,34,0,120
2,note_on,46,86,120
2,note_on,46,0,180
2,note_on,58,81,60
2,note_on,58,0,180
2,note_on,70,89,60
2,note_on,70,0,240
2,note_on,27,60,600
2,note_on,27,0,120
2,note_on,39,60,0
2,note_on,39,0,180
2,note_on,39,57,60
2,note_on,39,0,1200
2,note_on,45,61,0
2,note_on,45,0,720
2,note_on,54,55,0
2,note_on,54,0,600
2,note_on,27,49,0
2,note_on,27,0,120
2,note_on,39,55,0
2,note_on,39,0,180
2,note_on,39,53,60
2,note_on,39,0,840
2,note_on,45,56,360
2,note_on,45,0,720
2,note_on,54,53,0
2,note_on,54,0,720
2,note_on,47,59,180
2,note_on,47,0,60
2,note_on,46,88,0
2,note_on,46,0,120
2,note_on,35,53,60
2,note_on,35,0,60
2,note_on,34,84,0
2,note_on,34,0,120
2,note_on,27,49,720
2,note_on,27,0,120
2,note_on,39,49,0
2,note_on,39,0,180
2,note_on,39,46,60
2,note_on,39,0,1200
2,note_on,45,50,0
2,note_on,45,0,720
2,note_on,54,45,0
2,note_on,54,0,600
2,note_on,27,40,0
2,note_on,27,0,120
2,note_on,39,45,0
2,note_on,39,0,180
2,note_on,39,44,60
2,note_on,39,0,840
2,note_on,45,45,360
2,note_on,45,0,720
2,note_on,54,44,0
2,note_on,54,0,720
2,note_on,47,54,180
2,note_on,47,0,60
2,note_on,46,76,0
2,note_on,46,0,120
2,note_on,35,49,60
2,note_on,35,0,60
2,note_on,34,68,0
2,note_on,34,0,120
2,note_on,47,80,840
2,note_on,39,75,120
2,note_on,47,0,20
2,note_on,38,67,100
2,note_on,39,0,20
2,note_on,47,75,100
2,note_on,38,0,20
2,note_on,46,72,100
2,note_on,47,0,20
2,note_on,38,69,100
2,note_on,46,0,20
2,note_on,42,80,100
2,note_on,38,0,20
2,note_on,42,0,400
2,note_on,35,69,0
2,note_on,35,0,60
2,note_on,34,91,0
2,note_on,34,0,180
2,note_on,47,80,780
2,note_on,39,75,120
2,note_on,47,0,20
2,note_on,38,69,100
2,note_on,39,0,20
2,note_on,47,74,100
2,note_on,38,0,20
2,note_on,46,70,100
2,note_on,47,0,20
2,note_on,37,67,100
2,note_on,46,0,20
2,note_on,40,80,100
2,note_on,37,0,20
2,note_on,40,0,100
2,note_on,46,69,120
2,note_on,46,0,120
2,note_on,35,63,0
2,note_on,35,0,120
2,note_on,39,69,0
2,note_on,39,0,120
2,note_on,46,70,120
2,note_on,46,0,120
2,note_on,34,67,0
2,note_on,34,0,120
2,note_on,38,72,0
2,note_on,38,0,240
2,note_on,34,73,0
2,note_on,34,0,120
2,note_on,47,58,300
2,note_on,47,0,60
2,note_on,46,83,0
2,note_on,46,0,120
2,note_on,35,59,60
2,note_on,35,0,60
2,note_on,34,82,0
2,note_on,34,0,120
2,note_on,35,92,120
2,note_on,35,0,720
2,note_on,34,72,0
2,note_on,34,0,240
2,note_on,27,49,480
2,note_on,39,58,0
2,note_on,39,0,960
2,note_on,27,0,0
2,note_on,33,44,0
2,note_on,45,52,0
2,note_on,45,0,960
2,note_on,33,0,0
2,note_on,27,44,0
2,note_on,39,52,0
2,note_on,39,0,960
2,note_on,27,0,0
2,note_on,34,45,0
2,note_on,46,54,0
2,note_on,46,0,960
2,note_on,34,0,0
2,note_on,27,43,0
2,note_on,39,51,0
2,note_on,39,0,960
2,note_on,27,0,0
2,note_on,36,44,0
2,note_on,48,52,0
2,note_on,48,0,480
2,note_on,36,0,0
2,note_on,35,41,0
2,note_on,47,49,0
2,note_on,47,0,480
2,note_on,35,0,0
2,note_on,37,45,0
2,note_on,49,53,0
2,note_on,49,0,960
2,note_on,37,0,0
2,note_on,36,39,0
2,note_on,48,47,0
2,note_on,48,0,960
2,note_on,36,0,0
2,note_on,27,43,0
2,note_on,39,51,0
2,note_on,39,0,480
2,note_on,27,0,0
2,note_on,36,44,0
2,note_on,48,52,0
2,note_on,48,0,480
2,note_on,36,0,0
2,note_on,35,34,0
2,note_on,47,40,0
2,note_on,47,0,480
2,note_on,35,0,0
2,note_on,39,40,0
2,note_on,51,48,0
2,note_on,51,0,480
2,note_on,39,0,0
2,note_on,38,37,0
2,note_on,50,44,0
2,note_on,50,0,480
2,note_on,38,0,0
2,note_on,30,34,0
2,note_on,42,41,0
2,note_on,42,0,480
2,note_on,30,0,0
2,note_on,38,38,0
2,note_on,50,45,0
2,note_on,50,0,960
2,note_on,38,0,0
2,note_on,39,38,0
2,note_on,51,45,0
2,note_on,51,0,480
2,note_on,39,0,0
2,note_on,38,28,0
2,note_on,50,34,0
2,note_on,50,0,480
2,note_on,38,0,0
2,note_on,30,32,0
2,note_on,42,38,0
2,note_on,42,0,480
2,note_on,30,0,0
2,note_on,38,26,0
2,note_on,50,31,0
2,note_on,50,0,480
2,note_on,38,0,0
2,note_on,47,80,0
2,note_on,39,75,120
2,note_on,47,0,20
2,note_on,38,69,100
2,note_on,39,0,20
2,note_on,47,76,100
2,note_on,38,0,20
2,note_on,46,74,100
2,note_on,47,0,20
2,note_on,38,70,100
2,note_on,46,0,20
2,note_on,42,80,100
2,note_on,38,0,20
2,note_on,42,0,220
2,note_on,27,49,480
2,note_on,39,58,0
2,note_on,39,0,960
2,note_on,27,0,0
2,note_on,33,44,0
2,note_on,45,52,0
2,note_on,45,0,960
2,note_on,33,0,0
2,note_on,27,44,0
2,note_on,39,52,0
2,note_on,39,0,960
2,note_on,27,0,0
2,note_on,34,45,0
2,note_on,46,54,0
2,note_on,46,0,960
2,note_on,34,0,0
2,note_on,27,43,0
2,note_on,39,51,0
2,note_on,39,0,960
2,note_on,27,0,0
2,note_on,37,44,0
2,note_on,49,52,0
2,note_on,49,0,480
2,note_on,37,0,0
2,note_on,36,41,0
2,note_on,48,49,0
2,note_on,48,0,480
2,note_on,36,0,0
2,note_on,40,45,0
2,note_on,52,53,0
2,note_on,52,0,960
2,note_on,40,0,0
2,note_on,39,38,0
2,note_on,51,45,0
2,note_on,51,0,960
2,note_on,39,0,0
2,note_on,27,43,0
2,note_on,39,51,0
2,note_on,39,0,480
2,note_on,27,0,0
2,note_on,37,44,0
2,note_on,49,52,0
2,note_on,49,0,480
2,note_on,37,0,0
2,note_on,36,34,0
2,note_on,48,40,0
2,note_on,48,0,480
2,note_on,36,0,0
2,note_on,40,40,0
2,note_on,52,48,0
2,note_on,52,0,480
2,note_on,40,0,0
2,note_on,39,37,0
2,note_on,51,44,0
2,note_on,51,0,480
2,note_on,39,0,0
2,note_on,33,32,0
2,note_on,45,38,0
2,note_on,45,0,480
2,note_on,33,0,0
2,note_on,39,38,0
2,note_on,51,45,0
2,note_on,51,0,960
2,note_on,39,0,0
2,note_on,40,38,0
2,note_on,52,45,0
2,note_on,52,0,480
2,note_on,40,0,0
2,note_on,39,28,0
2,note_on,51,34,0
2,note_on,51,0,480
2,note_on,39,0,0
2,note_on,33,32,0
2,note_on,45,38,0
2,note_on,45,0,480
2,note_on,33,0,0
2,note_on,39,26,0
2,note_on,51,31,0
2,note_on,51,0,480
2,note_on,39,0,0
2,note_on,52,80,0
2,note_on,44,75,120
2,note_on,52,0,20
2,note_on,43,71,100
2,note_on,44,0,20
2,note_on,52,76,100
2,note_on,43,0,20
2,note_on,51,74,100
2,note_on,52,0,20
2,note_on,43,70,100
2,note_on,51,0,20
2,note_on,47,80,100
2,note_on,43,0,20
2,note_on,47,0,220
2,note_on,32,49,480
2,note_on,44,58,0
2,note_on,44,0,960
2,note_on,32,0,0
2,note_on,38,44,0
2,note_on,50,52,0
2,note_on,50,0,960
2,note_on,38,0,0
2,note_on,32,44,0
2,note_on,44,52,0
2,note_on,44,0,960
2,note_on,32,0,0
2,note_on,39,45,0
2,note_on,51,54,0
2,note_on,51,0,960
2,note_on,39,0,0
2,note_on,59,76,0
2,note_on,51,71,120
2,note_on,59,0,20
2,note_on,50,67,100
2,note_on,51,0,20
2,note_on,59,72,100
2,note_on,50,0,20
2,note_on,58,70,100
2,note_on,59,0,20
2,note_on,51,66,100
2,note_on,58,0,20
2,note_on,54,76,100
2,note_on,51,0,20
2,note_on,54,0,220
2,note_on,39,60,420
2,note_on,51,71,0
2,note_on,51,0,60
2,note_on,39,0,0
2,note_on,27,70,0
2,note_on,39,83,0
2,note_on,39,0,480
2,note_on,27,0,0
2,note_on,63,82,480
2,note_on,51,69,0
2,note_on,51,0,960
2,note_on,63,0,0
2,note_on,50,65,0
2,note_on,62,77,0
2,note_on,62,0,960
2,note_on,50,0,0
2,note_on,49,63,0
2,note_on,61,75,0
2,note_on,61,0,960
2,note_on,49,0,0
2,note_on,48,65,0
2,note_on,60,77,0
2,note_on,60,0,960
2,note_on,48,0,0
2,note_on,59,75,0
2,note_on,47,63,0
2,note_on,47,0,960
2,note_on,59,0,0
2,note_on,46,63,0
2,note_on,58,75,0
2,note_on,58,0,960
2,note_on,46,0,0
2,note_on,45,62,0
2,note_on,57,74,0
2,note_on,57,0,960
2,note_on,45,0,0
2,note_on,44,62,0
2,note_on,56,73,0
2,note_on,56,0,960
2,note_on,44,0,0
2,note_on,55,62,0
2,note_on,43,52,0
2,note_on,43,0,960
2,note_on,55,0,0
2,note_on,42,57,0
2,note_on,54,68,0
2,note_on,54,0,960
2,note_on,42,0,0
2,note_on,53,61,0
2,note_on,41,51,0
2,note_on,41,0,900
2,note_on,53,0,0
2,note_on,39,65,0
2,note_on,51,77,0
2,note_on,51,0,60
2,note_on,39,0,0
2,note_on,27,75,0
2,note_on,39,89,0
2,note_on,39,0,960
2,note_on,27,0,0
2,note_on,40,69,0
2,note_on,52,82,0
2,note_on,52,0,480
2,note_on,40,0,0
2,note_on,47,61,0
2,note_on,59,72,0
2,note_on,59,0,480
2,note_on,47,0,0
2,note_on,46,66,0
2,note_on,58,78,0
2,note_on,58,0,480
2,note_on,46,0,0
2,note_on,51,59,0
2,note_on,39,59,0
2,note_on,58,70,0
2,note_on,58,0,480
2,note_on,39,0,0
2,note_on,51,0,0
2,note_on,45,64,0
2,note_on,57,76,0
2,note_on,57,0,960
2,note_on,45,0,0
2,note_on,44,71,0
2,note_on,56,84,0
2,note_on,56,0,960
2,note_on,44,0,0
2,note_on,43,65,0
2,note_on,55,77,0
2,note_on,55,0,480
2,note_on,43,0,0
2,note_on,37,60,0
2,note_on,49,71,0
2,note_on,49,0,480
2,note_on,37,0,0
2,note_on,36,61,0
2,note_on,48,72,0
2,note_on,48,0,480
2,note_on,36,0,0
2,note_on,42,56,0
2,note_on,54,66,0
2,note_on,54,0,480
2,note_on,42,0,0
2,note_on,41,60,0
2,note_on,53,71,0
2,note_on,53,0,960
2,note_on,41,0,0
2,note_on,40,56,0
2,note_on,52,67,0
2,note_on,52,0,480
2,note_on,40,0,0
2,note_on,35,48,0
2,note_on,47,57,0
2,note_on,47,0,480
2,note_on,35,0,0
2,note_on,39,52,0
2,note_on,51,62,0
2,note_on,51,0,960
2,note_on,39,0,0
2,note_on,38,51,0
2,note_on,50,60,0
2,note_on,50,0,480
2,note_on,38,0,0
2,note_on,34,44,0
2,note_on,46,52,0
2,note_on,46,0,480
2,note_on,34,0,0
2,note_on,37,46,0
2,note_on,49,55,0
2,note_on,49,0,480
2,note_on,37,0,0
2,note_on,39,36,480
2,note_on,41,35,60
2,note_on,39,0,20
2,note_on,39,39,40
2,note_on,41,0,20
2,note_on,41,35,40
2,note_on,39,0,20
2,note_on,39,36,40
2,note_on,41,0,20
2,note_on,41,33,40
2,note_on,39,0,40
2,note_on,39,36,20
2,note_on,41,0,40
2,note_on,41,33,20
2,note_on,39,0,40
2,note_on,39,35,20
2,note_on,41,0,40
2,note_on,41,31,20
2,note_on,39,0,60
2,note_on,39,35,0
2,note_on,41,0,60
2,note_on,41,31,0
2,note_on,39,0,60
2,note_on,39,36,0
2,note_on,41,0,60
2,note_on,41,31,0
2,note_on,39,0,60
2,note_on,39,38,0
2,note_on,41,0,60
2,note_on,41,35,0
2,note_on,39,0,60
2,note_on,39,41,0
2,note_on,41,0,60
2,note_on,41,36,0
2,note_on,39,0,60
2,note_on,39,42,0
2,note_on,41,0,60
2,note_on,41,37,0
2,note_on,39,0,60
2,note_on,39,37,0
2,note_on,40,39,40
2,note_on,39,0,20
2,note_on,41,0,0
2,note_on,41,41,20
2,note_on,40,0,20
2,note_on,42,43,20
2,note_on,41,0,20
2,note_on,43,45,20
2,note_on,42,0,20
2,note_on,44,47,20
2,note_on,43,0,20
2,note_on,45,55,20
2,note_on,44,0,20
2,note_on,46,49,40
2,note_on,45,0,60
2,note_on,45,55,0
2,note_on,46,0,60
2,note_on,46,51,0
2,note_on,45,0,60
2,note_on,45,55,0
2,note_on,46,0,60
2,note_on,46,51,0
2,note_on,45,0,60
2,note_on,45,55,0
2,note_on,46,0,60
2,note_on,46,50,0
2,note_on,45,0,60
2,note_on,45,53,0
2,note_on,46,0,60
2,note_on,46,47,0
2,note_on,45,0,60
2,note_on,45,51,0
2,note_on,46,0,60
2,note_on,46,47,0
2,note_on,45,0,60
2,note_on,45,52,0
2,note_on,46,0,60
2,note_on,46,45,0
2,note_on,45,0,60
2,note_on,45,50,0
2,note_on,46,0,60
2,note_on,46,44,0
2,note_on,45,0,60
2,note_on,45,47,0
2,note_on,46,0,60
2,note_on,46,42,0
2,note_on,45,0,60
2,note_on,45,46,0
2,note_on,46,0,60
2,note_on,46,44,0
2,note_on,45,0,60
2,note_on,45,43,0
2,note_on,44,43,40
2,note_on,45,0,20
2,note_on,46,0,0
2,note_on,43,43,20
2,note_on,44,0,20
2,note_on,42,42,20
2,note_on,43,0,20
2,note_on,41,42,20
2,note_on,42,0,20
2,note_on,40,42,20
2,note_on,41,0,20
2,note_on,39,42,20
2,note_on,40,0,20
2,note_on,41,38,40
2,note_on,39,0,20
2,note_on,39,41,40
2,note_on,41,0,20
2,note_on,41,35,40
2,note_on,39,0,20
2,note_on,39,39,40
2,note_on,41,0,20
2,note_on,41,35,40
2,note_on,39,0,30
2,note_on,39,39,30
2,note_on,41,0,30
2,note_on,41,35,30
2,note_on,39,0,30
2,note_on,39,37,30
2,note_on,41,0,30
2,note_on,41,31,30
2,note_on,39,0,40
2,note_on,39,36,20
2,note_on,41,0,40
2,note_on,41,31,20
2,note_on,39,0,40
2,note_on,39,36,20
2,note_on,41,0,40
2,note_on,41,31,20
2,note_on,39,0,60
2,note_on,39,36,0
2,note_on,41,0,60
2,note_on,41,31,0
2,note_on,39,0,60
2,note_on,39,37,0
2,note_on,41,0,60
2,note_on,41,36,0
2,note_on,39,0,60
2,note_on,39,39,0
2,note_on,41,0,60
2,note_on,41,37,0
2,note_on,39,0,60
2,note_on,39,36,0
2,note_on,40,38,40
2,note_on,39,0,20
2,note_on,41,0,0
2,note_on,41,39,20
2,note_on,40,0,20
2,note_on,42,40,20
2,note_on,41,0,20
2,note_on,43,41,20
2,note_on,42,0,20
2,note_on,44,42,20
2,note_on,43,0,20
2,note_on,45,45,20
2,note_on,44,0,20
2,note_on,46,38,40
2,note_on,45,0,60
2,note_on,45,45,0
2,note_on,46,0,60
2,note_on,46,42,0
2,note_on,45,0,60
2,note_on,45,45,0
2,note_on,46,0,60
2,note_on,46,37,0
2,note_on,45,0,60
2,note_on,45,44,0
2,note_on,46,0,60
2,note_on,46,37,0
2,note_on,45,0,60
2,note_on,45,45,0
2,note_on,46,0,60
2,note_on,46,41,0
2,note_on,45,0,60
2,note_on,45,45,0
2,note_on,46,0,60
2,note_on,46,42,0
2,note_on,45,0,60
2,note_on,45,48,0
2,note_on,46,0,60
2,note_on,46,40,0
2,note_on,45,0,60
2,note_on,45,47,0
2,note_on,46,0,60
2,note_on,46,39,0
2,note_on,45,0,60
2,note_on,45,46,0
2,note_on,46,0,60
2,note_on,46,37,0
2,note_on,45,0,60
2,note_on,45,46,0
2,note_on,46,0,60
2,note_on,46,43,0
2,note_on,45,0,60
2,note_on,45,46,0
2,note_on,44,45,40
2,note_on,45,0,20
2,note_on,46,0,0
2,note_on,43,44,20
2,note_on,44,0,20
2,note_on,42,43,20
2,note_on,43,0,20
2,note_on,41,43,20
2,note_on,42,0,20
2,note_on,40,42,20
2,note_on,41,0,20
2,note_on,39,41,20
2,note_on,40,0,20
2,note_on,41,38,40
2,note_on,39,0,20
2,note_on,39,41,40
2,note_on,41,0,20
2,note_on,41,35,40
2,note_on,39,0,20
2,note_on,39,39,40
2,note_on,41,0,20
2,note_on,41,35,40
2,note_on,39,0,30
2,note_on,39,39,30
2,note_on,41,0,30
2,note_on,41,35,30
2,note_on,39,0,30
2,note_on,39,37,30
2,note_on,41,0,30
2,note_on,41,31,30
2,note_on,39,0,40
2,note_on,39,36,20
2,note_on,41,0,40
2,note_on,41,31,20
2,note_on,39,0,40
2,note_on,39,36,20
2,note_on,41,0,40
2,note_on,41,31,20
2,note_on,39,0,60
2,note_on,39,36,0
2,note_on,41,0,60
2,note_on,41,31,0
2,note_on,39,0,60
2,note_on,39,37,0
2,note_on,41,0,60
2,note_on,41,36,0
2,note_on,39,0,60
2,note_on,39,39,0
2,note_on,41,0,60
2,note_on,41,37,0
2,note_on,39,0,60
2,note_on,39,36,0
2,note_on,40,36,40
2,note_on,39,0,20
2,note_on,41,0,0
2,note_on,41,37,20
2,note_on,40,0,20
2,note_on,42,38,20
2,note_on,41,0,20
2,note_on,43,39,20
2,note_on,42,0,20
2,note_on,44,39,20
2,note_on,43,0,20
2,note_on,45,43,20
2,note_on,44,0,20
2,note_on,46,36,40
2,note_on,45,0,60
2,note_on,45,43,0
2,note_on,46,0,60
2,note_on,46,36,0
2,note_on,45,0,60
2,note_on,45,42,0
2,note_on,46,0,60
2,note_on,46,37,0
2,note_on,45,0,60
2,note_on,45,42,0
2,note_on,46,0,60
2,note_on,46,37,0
2,note_on,45,0,60
2,note_on,45,42,0
2,note_on,46,0,60
2,note_on,46,38,0
2,note_on,45,0,60
2,note_on,45,41,0
2,note_on,46,0,60
2,note_on,46,36,0
2,note_on,45,0,60
2,note_on,45,38,0
2,note_on,46,0,60
2,note_on,46,33,0
2,note_on,45,0,60
2,note_on,45,40,0
2,note_on,46,0,60
2,note_on,46,35,0
2,note_on,45,0,60
2,note_on,45,42,0
2,note_on,46,0,60
2,note_on,46,35,0
2,note_on,45,0,60
2,note_on,45,44,0
2,note_on,46,0,60
2,note_on,46,38,0
2,note_on,45,0,60
2,note_on,45,44,0
2,note_on,44,44,40
2,note_on,45,0,20
2,note_on,46,0,0
2,note_on,43,43,20
2,note_on,44,0,20
2,note_on,42,42,20
2,note_on,43,0,20
2,note_on,41,41,20
2,note_on,42,0,20
2,note_on,40,41,20
2,note_on,41,0,20
2,note_on,39,40,20
2,note_on,40,0,20
2,note_on,41,38,40
2,note_on,39,0,20
2,note_on,39,41,40
2,note_on,41,0,20
2,note_on,41,35,40
2,note_on,39,0,20
2,note_on,39,39,40
2,note_on,41,0,20
2,note_on,41,35,40
2,note_on,39,0,30
2,note_on,39,39,30
2,note_on,41,0,30
2,note_on,41,35,30
2,note_on,39,0,30
2,note_on,39,37,30
2,note_on,41,0,30
2,note_on,41,31,30
2,note_on,39,0,40
2,note_on,39,36,20
2,note_on,41,0,40
2,note_on,41,31,20
2,note_on,39,0,40
2,note_on,39,36,20
2,note_on,41,0,40
2,note_on,41,31,20
2,note_on,39,0,60
2,note_on,39,36,0
2,note_on,41,0,60
2,note_on,41,31,0
2,note_on,39,0,60
2,note_on,39,37,0
2,note_on,41,0,60
2,note_on,41,36,0
2,note_on,39,0,60
2,note_on,39,39,0
2,note_on,41,0,60
2,note_on,41,37,0
2,note_on,39,0,60
2,note_on,39,55,0
2,note_on,40,56,40
2,note_on,39,0,20
2,note_on,41,0,0
2,note_on,41,57,20
2,note_on,40,0,20
2,note_on,42,58,20
2,note_on,41,0,20
2,note_on,43,59,20
2,note_on,42,0,20
2,note_on,44,60,20
2,note_on,43,0,20
2,note_on,45,63,20
2,note_on,44,0,20
2,note_on,46,55,40
2,note_on,45,0,20
2,note_on,45,63,40
2,note_on,46,0,20
2,note_on,46,54,40
2,note_on,45,0,20
2,note_on,45,62,40
2,note_on,46,0,20
2,note_on,46,56,40
2,note_on,45,0,20
2,note_on,45,65,40
2,note_on,46,0,20
2,note_on,46,57,40
2,note_on,45,0,20
2,note_on,45,67,40
2,note_on,46,0,20
2,note_on,46,60,40
2,note_on,45,0,20
2,note_on,45,67,40
2,note_on,46,0,20
2,note_on,46,58,40
2,note_on,45,0,20
2,note_on,45,61,40
2,note_on,46,0,20
2,note_on,46,62,40
2,note_on,45,0,20
2,note_on,47,64,40
2,note_on,46,0,20
2,note_on,48,66,40
2,note_on,47,0,20
2,note_on,49,67,40
2,note_on,48,0,20
2,note_on,50,69,40
2,note_on,49,0,20
2,note_on,51,71,40
2,note_on,50,0,20
2,note_on,53,73,40
2,note_on,51,0,20
2,note_on,54,74,40
2,note_on,53,0,20
2,note_on,55,76,40
2,note_on,54,0,20
2,note_on,56,78,40
2,note_on,55,0,20
2,note_on,57,75,40
2,note_on,56,0,20
2,note_on,58,71,40
2,note_on,57,0,20
2,note_on,57,73,40
2,note_on,58,0,20
2,note_on,58,70,40
2,note_on,57,0,20
2,note_on,57,75,40
2,note_on,58,0,20
2,note_on,58,71,40
2,note_on,57,0,20
2,note_on,57,76,40
2,note_on,58,0,20
2,note_on,58,71,40
2,note_on,57,0,20
2,note_on,57,77,40
2,note_on,58,0,20
2,note_on,58,72,40
2,note_on,57,0,20
2,note_on,57,79,40
2,note_on,58,0,20
2,note_on,58,75,40
2,note_on,57,0,20
2,note_on,57,76,40
2,note_on,58,0,20
2,note_on,58,69,40
2,note_on,57,0,20
2,note_on,57,81,40
2,note_on,58,0,20
2,note_on,58,74,40
2,note_on,57,0,20
2,note_on,57,82,40
2,note_on,58,0,20
2,note_on,58,75,40
2,note_on,57,0,20
2,note_on,57,83,40
2,note_on,58,0,20
2,note_on,58,75,40
2,note_on,57,0,20
2,note_on,57,85,40
2,note_on,58,0,20
2,note_on,58,77,40
2,note_on,57,0,20
2,note_on,57,86,40
2,note_on,58,0,20
2,note_on,58,78,40
2,note_on,57,0,20
2,note_on,59,82,40
2,note_on,63,92,0
2,note_on,56,82,0
2,note_on,58,0,20
2,note_on,59,0,220
2,note_on,63,0,0
2,note_on,56,0,0
2,note_on,59,80,0
2,note_on,63,89,0
2,note_on,56,80,0
2,note_on,64,89,0
2,note_on,64,0,360
2,note_on,59,0,0
2,note_on,63,0,0
2,note_on,56,0,0
2,note_on,56,86,840
2,note_on,59,86,0
2,note_on,63,96,0
2,note_on,63,0,480
2,note_on,59,0,0
2,note_on,56,0,0
2,note_on,56,81,0
2,note_on,63,90,0
2,note_on,59,81,0
2,note_on,64,90,0
2,note_on,64,0,720
2,note_on,56,0,0
2,note_on,63,0,0
2,note_on,59,0,0
2,note_on,66,81,960
2,note_on,66,0,120
2,note_on,62,63,0
2,note_on,62,0,120
2,note_on,63,66,0
2,note_on,63,0,120
2,note_on,59,69,0
2,note_on,59,0,120
2,note_on,58,73,0
2,note_on,58,0,120
2,note_on,62,71,0
2,note_on,62,0,120
2,note_on,63,74,0
2,note_on,63,0,120
2,note_on,62,70,0
2,note_on,62,0,120
2,note_on,59,73,0
2,note_on,59,0,120
2,note_on,58,76,0
2,note_on,58,0,120
2,note_on,57,80,0
2,note_on,57,0,120
2,note_on,58,83,0
2,note_on,58,0,120
2,note_on,57,86,0
2,note_on,57,0,120
2,note_on,53,67,0
2,note_on,53,0,120
2,note_on,54,69,0
2,note_on,54,0,120
2,note_on,50,72,0
2,note_on,50,0,120
2,note_on,51,75,0
2,note_on,51,0,120
2,note_on,47,78,0
2,note_on,47,0,120
2,note_on,46,84,0
2,note_on,46,0,120
2,note_on,45,85,0
2,note_on,45,0,120
2,note_on,47,73,0
2,note_on,47,0,120
2,note_on,46,75,0
2,note_on,46,0,120
2,note_on,41,78,0
2,note_on,41,0,120
2,note_on,42,72,0
2,note_on,42,0,120
2,note_on,39,70,0
2,note_on,46,83,30
2,note_on,54,89,30
2,note_on,54,0,330
2,note_on,46,0,0
2,note_on,39,0,0
