Track,Message Type,Note,Velocity,Time
1,note_on,71,50,0
1,note_on,71,0,180
1,note_on,74,42,0
1,note_on,74,0,60
1,note_on,72,50,0
1,note_on,72,0,180
1,note_on,71,47,0
1,note_on,71,0,60
1,note_on,69,50,0
1,note_on,69,0,240
1,note_on,71,46,0
1,note_on,71,0,240
1,note_on,72,50,0
1,note_on,72,0,240
1,note_on,74,46,0
1,note_on,74,0,240
1,note_on,72,47,0
1,note_on,72,0,120
1,note_on,71,49,0
1,note_on,71,0,120
1,note_on,69,51,0
1,note_on,69,0,120
1,note_on,67,53,0
1,note_on,67,0,120
1,note_on,67,65,0
1,note_on,72,65,0
1,note_on,72,0,120
1,note_on,67,0,0
1,note_on,71,61,120
1,note_on,67,61,0
1,note_on,67,0,120
1,note_on,71,0,0
1,note_on,76,67,120
1,note_on,67,67,0
1,note_on,67,0,120
1,note_on,76,0,0
1,note_on,74,47,240
1,note_on,67,47,0
1,note_on,67,0,120
1,note_on,74,0,0
1,note_on,72,50,0
1,note_on,72,0,120
1,note_on,69,42,0
1,note_on,69,0,120
1,note_on,71,50,0
1,note_on,71,0,120
1,note_on,67,42,0
1,note_on,67,0,120
1,note_on,67,50,0
1,note_on,71,50,0
1,note_on,71,0,240
1,note_on,67,0,0
1,note_on,66,44,0
1,note_on,69,44,0
1,note_on,69,0,240
1,note_on,66,0,0
1,note_on,71,50,0
1,note_on,71,0,180
1,note_on,74,42,0
1,note_on,74,0,60
1,note_on,72,48,0
1,note_on,72,0,180
1,note_on,71,47,0
1,note_on,71,0,60
1,note_on,69,50,0
1,note_on,69,0,240
1,note_on,71,46,0
1,note_on,71,0,240
1,note_on,72,50,0
1,note_on,72,0,240
1,note_on,76,46,0
1,note_on,76,0,120
1,note_on,74,49,0
1,note_on,74,0,120
1,note_on,72,47,0
1,note_on,72,0,120
1,note_on,71,49,0
1,note_on,71,0,120
1,note_on,69,51,0
1,note_on,69,0,120
1,note_on,67,53,0
1,note_on,67,0,120
1,note_on,67,65,0
1,note_on,72,65,0
1,note_on,72,0,120
1,note_on,67,0,0
1,note_on,71,61,120
1,note_on,67,61,0
1,note_on,67,0,120
1,note_on,71,0,0
1,note_on,76,67,120
1,note_on,67,67,0
1,note_on,76,0,120
1,note_on,78,62,0
1,note_on,78,0,120
1,note_on,79,65,0
1,note_on,79,0,120
1,note_on,67,0,0
1,note_on,72,47,0
1,note_on,72,0,90
1,note_on,71,50,30
1,note_on,71,0,240
1,note_on,69,47,0
1,note_on,69,0,27
1,note_on,71,47,0
1,note_on,71,0,26
1,note_on,69,47,0
1,note_on,71,47,26
1,note_on,69,0,1
1,note_on,71,0,26
1,note_on,69,45,0
1,note_on,69,0,26
1,note_on,71,45,0
1,note_on,71,0,27
1,note_on,69,45,0
1,note_on,69,0,26
1,note_on,67,45,0
1,note_on,69,50,26
1,note_on,67,0,1
1,note_on,69,0,28
1,note_on,67,45,0
1,note_on,67,0,480
1,note_on,71,45,0
1,note_on,71,0,240
1,note_on,69,45,0
1,note_on,69,0,240
1,note_on,67,45,0
1,note_on,67,0,120
1,note_on,66,41,0
1,note_on,66,0,117
1,note_on,66,45,3
1,note_on,66,0,120
1,note_on,62,41,0
1,note_on,62,0,120
1,note_on,71,51,0
1,note_on,71,0,480
1,note_on,67,45,0
1,note_on,67,0,240
1,note_on,67,44,0
1,note_on,67,0,27
1,note_on,69,40,0
1,note_on,69,0,26
1,note_on,67,44,0
1,note_on,69,39,26
1,note_on,67,0,1
1,note_on,69,0,26
1,note_on,67,45,0
1,note_on,67,0,26
1,note_on,69,41,0
1,note_on,69,0,27
1,note_on,67,45,0
1,note_on,67,0,26
1,note_on,66,48,0
1,note_on,67,42,26
1,note_on,66,0,1
1,note_on,67,0,28
1,note_on,71,45,0
1,note_on,71,0,120
1,note_on,69,45,0
1,note_on,69,0,118
1,note_on,69,45,2
1,note_on,69,0,240
1,note_on,67,45,0
1,note_on,67,0,120
1,note_on,66,41,0
1,note_on,66,0,116
1,note_on,66,45,4
1,note_on,66,0,120
1,note_on,62,41,0
1,note_on,62,0,120
1,note_on,71,47,0
1,note_on,71,0,180
1,note_on,74,42,0
1,note_on,74,0,60
1,note_on,72,50,0
1,note_on,72,0,180
1,note_on,71,47,0
1,note_on,71,0,60
1,note_on,69,50,0
1,note_on,69,0,240
1,note_on,71,46,0
1,note_on,71,0,240
1,note_on,72,50,0
1,note_on,72,0,240
1,note_on,74,46,0
1,note_on,74,0,240
1,note_on,72,47,0
1,note_on,72,0,120
1,note_on,71,49,0
1,note_on,71,0,120
1,note_on,69,51,0
1,note_on,69,0,120
1,note_on,67,53,0
1,note_on,67,0,120
1,note_on,67,65,0
1,note_on,72,65,0
1,note_on,72,0,120
1,note_on,67,0,0
1,note_on,71,61,120
1,note_on,67,61,0
1,note_on,67,0,120
1,note_on,71,0,0
1,note_on,76,67,120
1,note_on,67,67,0
1,note_on,67,0,120
1,note_on,76,0,0
1,note_on,67,47,240
1,note_on,74,47,0
1,note_on,74,0,120
1,note_on,67,0,0
1,note_on,72,50,0
1,note_on,72,0,120
1,note_on,69,42,0
1,note_on,69,0,120
1,note_on,71,50,0
1,note_on,71,0,120
1,note_on,67,42,0
1,note_on,67,0,120
1,note_on,71,50,0
1,note_on,67,50,0
1,note_on,67,0,240
1,note_on,71,0,0
1,note_on,66,44,0
1,note_on,69,44,0
1,note_on,69,0,240
1,note_on,66,0,0
1,note_on,71,50,0
1,note_on,71,0,180
1,note_on,74,42,0
1,note_on,74,0,60
1,note_on,72,48,0
1,note_on,72,0,180
1,note_on,71,47,0
1,note_on,71,0,60
1,note_on,69,50,0
1,note_on,69,0,240
1,note_on,71,46,0
1,note_on,71,0,240
1,note_on,72,50,0
1,note_on,72,0,240
1,note_on,76,46,0
1,note_on,76,0,120
1,note_on,74,49,0
1,note_on,74,0,120
1,note_on,72,47,0
1,note_on,72,0,120
1,note_on,71,49,0
1,note_on,71,0,120
1,note_on,69,51,0
1,note_on,69,0,120
1,note_on,67,53,0
1,note_on,67,0,120
1,note_on,67,65,0
1,note_on,72,65,0
1,note_on,72,0,120
1,note_on,67,0,0
1,note_on,67,61,120
1,note_on,71,61,0
1,note_on,71,0,120
1,note_on,67,0,0
1,note_on,76,67,120
1,note_on,67,67,0
1,note_on,76,0,120
1,note_on,78,62,0
1,note_on,78,0,120
1,note_on,79,65,0
1,note_on,79,0,120
1,note_on,67,0,0
1,note_on,72,47,0
1,note_on,72,0,90
1,note_on,71,50,30
1,note_on,71,0,240
1,note_on,69,47,0
1,note_on,69,0,27
1,note_on,71,47,0
1,note_on,71,0,26
1,note_on,69,47,0
1,note_on,71,47,26
1,note_on,69,0,1
1,note_on,71,0,26
1,note_on,69,45,0
1,note_on,69,0,26
1,note_on,71,45,0
1,note_on,71,0,27
1,note_on,69,45,0
1,note_on,69,0,26
1,note_on,67,45,0
1,note_on,69,52,26
1,note_on,67,0,1
1,note_on,69,0,28
1,note_on,67,45,0
1,note_on,67,0,480
1,note_on,71,45,0
1,note_on,71,0,240
1,note_on,69,45,0
1,note_on,69,0,240
1,note_on,67,45,0
1,note_on,67,0,120
1,note_on,66,41,0
1,note_on,66,0,116
1,note_on,66,45,4
1,note_on,66,0,120
1,note_on,62,41,0
1,note_on,62,0,120
1,note_on,71,51,0
1,note_on,71,0,480
1,note_on,67,45,0
1,note_on,67,0,240
1,note_on,67,44,0
1,note_on,67,0,27
1,note_on,69,40,0
1,note_on,69,0,26
1,note_on,67,44,0
1,note_on,69,39,26
1,note_on,67,0,1
1,note_on,69,0,26
1,note_on,67,45,0
1,note_on,67,0,26
1,note_on,69,41,0
1,note_on,69,0,27
1,note_on,67,45,0
1,note_on,67,0,26
1,note_on,66,49,0
1,note_on,67,44,26
1,note_on,66,0,1
1,note_on,67,0,28
1,note_on,71,49,0
1,note_on,71,0,120
1,note_on,69,45,0
1,note_on,69,0,116
1,note_on,69,45,4
1,note_on,69,0,240
1,note_on,67,45,0
1,note_on,67,0,120
1,note_on,66,41,0
1,note_on,66,0,117
1,note_on,66,45,3
1,note_on,66,0,120
1,note_on,62,41,0
1,note_on,62,0,120
1,note_on,67,45,0
1,note_on,67,0,480
1,note_on,63,47,0
1,note_on,63,0,228
1,note_on,63,47,12
1,note_on,63,0,228
1,note_on,64,49,12
1,note_on,64,0,120
1,note_on,66,44,0
1,note_on,66,0,120
1,note_on,67,49,0
1,note_on,67,0,120
1,note_on,64,43,0
1,note_on,64,0,120
1,note_on,62,49,0
1,note_on,62,0,120
1,note_on,61,45,0
1,note_on,61,0,117
1,note_on,61,50,3
1,note_on,61,0,120
1,note_on,57,46,0
1,note_on,57,0,120
1,note_on,69,61,0
1,note_on,69,0,480
1,note_on,74,69,0
1,note_on,68,58,0
1,note_on,62,58,0
1,note_on,62,0,228
1,note_on,68,0,0
1,note_on,74,0,0
1,note_on,68,56,12
1,note_on,74,66,0
1,note_on,62,56,0
1,note_on,62,0,228
1,note_on,74,0,0
1,note_on,68,0,0
1,note_on,68,59,12
1,note_on,74,70,0
1,note_on,62,59,0
1,note_on,62,0,432
1,note_on,74,0,0
1,note_on,68,0,0
1,note_on,73,40,48
1,note_on,81,48,0
1,note_on,81,0,192
1,note_on,73,0,0
1,note_on,81,45,48
1,note_on,73,38,0
1,note_on,73,0,192
1,note_on,81,0,0
1,note_on,81,48,48
1,note_on,73,40,0
1,note_on,73,0,480
1,note_on,81,0,0
1,note_on,78,48,240
1,note_on,78,0,30
1,note_on,79,44,0
1,note_on,79,0,30
1,note_on,78,48,0
1,note_on,78,0,30
1,note_on,76,44,0
1,note_on,76,0,30
1,note_on,78,50,0
1,note_on,78,0,60
1,note_on,79,45,0
1,note_on,79,0,60
1,note_on,81,54,0
1,note_on,81,0,240
1,note_on,81,48,0
1,note_on,81,0,360
1,note_on,81,48,0
1,note_on,81,0,120
1,note_on,81,50,0
1,note_on,81,0,30
1,note_on,83,44,0
1,note_on,83,0,30
1,note_on,81,46,0
1,note_on,81,0,30
1,note_on,80,46,0
1,note_on,80,0,30
1,note_on,81,53,0
1,note_on,81,0,60
1,note_on,83,43,0
1,note_on,83,0,60
1,note_on,81,53,0
1,note_on,81,0,120
1,note_on,79,48,0
1,note_on,79,0,120
1,note_on,79,48,0
1,note_on,79,0,360
1,note_on,79,45,0
1,note_on,79,0,60
1,note_on,78,49,60
1,note_on,78,0,60
1,note_on,76,45,60
1,note_on,76,0,60
1,note_on,76,51,60
1,note_on,76,0,120
1,note_on,81,46,0
1,note_on,81,0,120
1,note_on,81,46,0
1,note_on,81,0,360
1,note_on,83,48,0
1,note_on,83,0,60
1,note_on,81,44,0
1,note_on,81,0,60
1,note_on,81,48,0
1,note_on,81,0,60
1,note_on,79,44,0
1,note_on,79,0,60
1,note_on,78,44,0
1,note_on,78,0,60
1,note_on,79,44,0
1,note_on,79,0,60
1,note_on,79,49,0
1,note_on,79,0,120
1,note_on,78,45,0
1,note_on,78,0,120
1,note_on,78,48,0
1,note_on,78,0,300
1,note_on,78,44,0
1,note_on,78,0,30
1,note_on,79,44,0
1,note_on,79,0,30
1,note_on,81,48,0
1,note_on,81,0,60
1,note_on,79,46,60
1,note_on,79,0,60
1,note_on,78,46,60
1,note_on,78,0,60
1,note_on,78,51,60
1,note_on,78,0,120
1,note_on,76,46,0
1,note_on,76,0,120
1,note_on,76,46,0
1,note_on,76,0,60
1,note_on,76,48,60
1,note_on,76,0,60
1,note_on,76,48,60
1,note_on,76,0,240
1,note_on,76,48,0
1,note_on,80,48,120
1,note_on,80,0,40
1,note_on,81,48,0
1,note_on,76,0,20
1,note_on,81,0,20
1,note_on,83,48,0
1,note_on,83,0,40
1,note_on,81,53,0
1,note_on,81,0,600
1,note_on,83,52,0
1,note_on,83,0,60
1,note_on,81,48,0
1,note_on,81,0,60
1,note_on,79,51,0
1,note_on,79,0,120
1,note_on,78,48,0
1,note_on,78,0,117
1,note_on,78,53,3
1,note_on,78,0,120
1,note_on,76,45,0
1,note_on,76,0,120
1,note_on,75,50,0
1,note_on,75,0,120
1,note_on,76,45,0
1,note_on,76,0,120
1,note_on,78,48,0
1,note_on,78,0,120
1,note_on,79,44,0
1,note_on,79,0,120
1,note_on,71,42,0
1,note_on,71,0,120
1,note_on,76,42,0
1,note_on,76,0,120
1,note_on,74,48,0
1,note_on,74,0,120
1,note_on,73,45,0
1,note_on,73,0,120
1,note_on,71,41,0
1,note_on,71,0,120
1,note_on,69,41,0
1,note_on,69,0,120
1,note_on,71,42,0
1,note_on,71,0,120
1,note_on,73,44,0
1,note_on,73,0,120
1,note_on,74,47,0
1,note_on,74,0,120
1,note_on,76,49,0
1,note_on,76,0,120
1,note_on,78,50,0
1,note_on,78,0,180
1,note_on,81,42,0
1,note_on,81,0,60
1,note_on,79,50,0
1,note_on,79,0,180
1,note_on,78,47,0
1,note_on,78,0,60
1,note_on,76,50,0
1,note_on,76,0,240
1,note_on,78,46,0
1,note_on,78,0,240
1,note_on,79,50,0
1,note_on,79,0,240
1,note_on,81,46,0
1,note_on,81,0,240
1,note_on,79,47,0
1,note_on,79,0,240
1,note_on,78,51,0
1,note_on,78,0,240
1,note_on,81,45,0
1,note_on,81,0,30
1,note_on,83,40,0
1,note_on,83,0,30
1,note_on,81,45,0
1,note_on,81,0,30
1,note_on,83,41,0
1,note_on,83,0,30
1,note_on,81,45,0
1,note_on,81,0,30
1,note_on,83,40,0
1,note_on,83,0,30
1,note_on,81,45,0
1,note_on,81,0,30
1,note_on,83,39,0
1,note_on,83,0,30
1,note_on,81,45,0
1,note_on,81,0,30
1,note_on,83,40,0
1,note_on,83,0,30
1,note_on,81,45,0
1,note_on,81,0,30
1,note_on,83,40,0
1,note_on,83,0,30
1,note_on,81,45,0
1,note_on,81,0,30
1,note_on,83,40,0
1,note_on,83,0,30
1,note_on,81,45,0
1,note_on,81,0,30
1,note_on,83,41,0
1,note_on,83,0,30
1,note_on,81,45,0
1,note_on,81,0,30
1,note_on,83,40,0
1,note_on,83,0,30
1,note_on,81,45,0
1,note_on,81,0,30
1,note_on,83,40,0
1,note_on,83,0,30
1,note_on,81,45,0
1,note_on,81,0,30
1,note_on,83,41,0
1,note_on,83,0,30
1,note_on,81,45,0
1,note_on,81,0,30
1,note_on,83,40,0
1,note_on,83,0,30
1,note_on,81,45,0
1,note_on,81,0,30
1,note_on,83,40,0
1,note_on,83,0,30
1,note_on,81,45,0
1,note_on,81,0,30
1,note_on,83,41,0
1,note_on,83,0,30
1,note_on,81,45,0
1,note_on,81,0,30
1,note_on,83,40,0
1,note_on,83,0,30
1,note_on,81,45,0
1,note_on,81,0,30
1,note_on,83,41,0
1,note_on,83,0,30
1,note_on,81,45,0
1,note_on,81,0,30
1,note_on,83,42,0
1,note_on,83,0,30
1,note_on,81,45,0
1,note_on,81,0,30
1,note_on,83,41,0
1,note_on,83,0,30
1,note_on,81,44,0
1,note_on,81,0,30
1,note_on,83,38,0
1,note_on,83,0,30
1,note_on,81,44,0
1,note_on,81,0,30
1,note_on,83,39,0
1,note_on,83,0,30
1,note_on,81,43,0
1,note_on,81,0,30
1,note_on,83,38,0
1,note_on,83,0,30
1,note_on,81,42,0
1,note_on,81,0,30
1,note_on,83,38,0
1,note_on,83,0,30
1,note_on,81,42,0
1,note_on,81,0,30
1,note_on,83,39,0
1,note_on,83,0,30
1,note_on,81,43,0
1,note_on,81,0,30
1,note_on,83,39,0
1,note_on,83,0,30
1,note_on,81,43,0
1,note_on,81,0,30
1,note_on,83,38,0
1,note_on,83,0,30
1,note_on,81,43,0
1,note_on,81,0,30
1,note_on,83,38,0
1,note_on,83,0,30
1,note_on,81,43,0
1,note_on,81,0,30
1,note_on,83,38,0
1,note_on,83,0,30
1,note_on,81,43,0
1,note_on,81,0,30
1,note_on,83,39,0
1,note_on,83,0,30
1,note_on,81,43,0
1,note_on,81,0,40
1,note_on,83,45,0
1,note_on,83,0,40
1,note_on,81,52,0
1,note_on,81,0,40
1,note_on,80,58,0
1,note_on,80,0,60
1,note_on,81,54,0
1,note_on,81,0,60
1,note_on,86,66,0
1,note_on,74,56,0
1,note_on,74,0,240
1,note_on,86,0,0
1,note_on,85,60,0
1,note_on,73,50,0
1,note_on,73,0,240
1,note_on,85,0,0
1,note_on,71,53,0
1,note_on,83,62,0
1,note_on,83,0,240
1,note_on,71,0,0
1,note_on,78,40,120
1,note_on,78,0,120
1,note_on,71,38,0
1,note_on,83,45,0
1,note_on,83,0,240
1,note_on,71,0,0
1,note_on,69,34,0
1,note_on,81,40,0
1,note_on,81,0,240
1,note_on,69,0,0
1,note_on,67,37,0
1,note_on,79,44,0
1,note_on,79,0,240
1,note_on,67,0,0
1,note_on,74,60,120
1,note_on,74,0,120
1,note_on,79,66,0
1,note_on,67,56,0
1,note_on,67,0,240
1,note_on,79,0,0
1,note_on,78,60,0
1,note_on,66,50,0
1,note_on,66,0,240
1,note_on,78,0,0
1,note_on,76,62,0
1,note_on,76,0,120
1,note_on,83,56,0
1,note_on,83,0,120
1,note_on,81,50,0
1,note_on,81,0,60
1,note_on,79,46,0
1,note_on,79,0,60
1,note_on,78,50,0
1,note_on,78,0,60
1,note_on,76,46,0
1,note_on,76,0,60
1,note_on,74,50,0
1,note_on,74,0,240
1,note_on,76,45,0
1,note_on,76,0,240
1,note_on,77,53,0
1,note_on,77,0,240
1,note_on,78,49,0
1,note_on,78,0,240
1,note_on,86,66,0
1,note_on,86,0,240
1,note_on,85,60,0
1,note_on,85,0,30
1,note_on,86,54,0
1,note_on,86,0,30
1,note_on,85,60,0
1,note_on,85,0,30
1,note_on,86,55,0
1,note_on,86,0,30
1,note_on,85,60,0
1,note_on,85,0,30
1,note_on,86,55,0
1,note_on,86,0,30
1,note_on,85,60,0
1,note_on,85,0,30
1,note_on,86,55,0
1,note_on,86,0,30
1,note_on,83,62,0
1,note_on,83,0,240
1,note_on,78,40,120
1,note_on,78,0,120
1,note_on,83,45,0
1,note_on,83,0,240
1,note_on,81,48,0
1,note_on,81,0,30
1,note_on,83,42,0
1,note_on,83,0,30
1,note_on,81,50,0
1,note_on,81,0,30
1,note_on,83,44,0
1,note_on,83,0,30
1,note_on,81,49,0
1,note_on,81,0,30
1,note_on,83,42,0
1,note_on,83,0,30
1,note_on,81,50,0
1,note_on,81,0,30
1,note_on,83,47,0
1,note_on,83,0,30
1,note_on,79,44,0
1,note_on,79,0,240
1,note_on,74,60,120
1,note_on,74,0,120
1,note_on,79,66,0
1,note_on,79,0,240
1,note_on,78,57,3
1,note_on,78,0,30
1,note_on,79,54,0
1,note_on,79,0,30
1,note_on,78,59,0
1,note_on,78,0,30
1,note_on,79,54,0
1,note_on,79,0,30
1,note_on,78,57,0
1,note_on,78,0,30
1,note_on,79,52,0
1,note_on,79,0,30
1,note_on,78,56,0
1,note_on,78,0,30
1,note_on,79,52,0
1,note_on,76,62,27
1,note_on,79,0,3
1,note_on,76,0,117
1,note_on,83,58,0
1,note_on,83,0,120
1,note_on,81,55,0
1,note_on,81,0,60
1,note_on,79,47,0
1,note_on,79,0,60
1,note_on,78,50,0
1,note_on,78,0,60
1,note_on,76,46,0
1,note_on,76,0,60
1,note_on,74,47,0
1,note_on,74,0,60
1,note_on,78,47,60
1,note_on,78,0,60
1,note_on,81,53,60
1,note_on,81,0,360
1,note_on,80,46,0
1,note_on,80,0,120
1,note_on,79,46,0
1,note_on,79,0,120
1,note_on,78,44,0
1,note_on,78,0,120
1,note_on,83,53,0
1,note_on,83,0,80
1,note_on,79,48,0
1,note_on,79,0,80
1,note_on,76,47,0
1,note_on,76,0,77
1,note_on,76,50,3
1,note_on,76,0,30
1,note_on,78,45,0
1,note_on,78,0,30
1,note_on,76,50,0
1,note_on,76,0,30
1,note_on,78,45,0
1,note_on,78,0,30
1,note_on,76,50,0
1,note_on,76,0,30
1,note_on,78,45,0
1,note_on,78,0,30
1,note_on,76,50,0
1,note_on,76,0,30
1,note_on,78,45,0
1,note_on,78,0,30
1,note_on,76,50,0
1,note_on,76,0,30
1,note_on,78,45,0
1,note_on,78,0,30
1,note_on,76,50,0
1,note_on,76,0,30
1,note_on,78,44,0
1,note_on,78,0,30
1,note_on,76,50,0
1,note_on,76,0,30
1,note_on,78,45,0
1,note_on,78,0,30
1,note_on,76,50,0
1,note_on,76,0,30
1,note_on,78,45,0
1,note_on,78,0,30
1,note_on,76,50,0
1,note_on,76,0,40
1,note_on,78,45,0
1,note_on,78,0,40
1,note_on,76,55,0
1,note_on,76,0,40
1,note_on,74,62,0
1,note_on,74,0,60
1,note_on,76,59,0
1,note_on,76,0,60
1,note_on,74,65,0
1,note_on,74,0,120
1,note_on,73,53,0
1,note_on,73,0,120
1,note_on,74,59,0
1,note_on,74,0,120
1,note_on,76,54,0
1,note_on,76,0,120
1,note_on,74,53,0
1,note_on,74,0,120
1,note_on,72,51,0
1,note_on,72,0,120
1,note_on,71,48,0
1,note_on,71,0,120
1,note_on,70,45,0
1,note_on,70,0,120
1,note_on,71,50,0
1,note_on,71,0,180
1,note_on,74,42,0
1,note_on,74,0,60
1,note_on,72,50,0
1,note_on,72,0,180
1,note_on,71,47,0
1,note_on,71,0,60
1,note_on,69,50,0
1,note_on,69,0,240
1,note_on,71,46,0
1,note_on,71,0,240
1,note_on,72,50,0
1,note_on,72,0,120
1,note_on,74,44,0
1,note_on,74,0,30
1,note_on,72,40,0
1,note_on,72,0,30
1,note_on,71,44,0
1,note_on,71,0,30
1,note_on,72,40,0
1,note_on,72,0,30
1,note_on,76,46,0
1,note_on,76,0,120
1,note_on,74,47,0
1,note_on,74,0,120
1,note_on,72,47,0
1,note_on,72,0,240
1,note_on,71,51,0
1,note_on,71,0,240
1,note_on,67,65,0
1,note_on,72,65,0
1,note_on,72,0,120
1,note_on,67,0,0
1,note_on,71,61,120
1,note_on,67,61,0
1,note_on,67,0,120
1,note_on,71,0,0
1,note_on,76,67,120
1,note_on,67,67,0
1,note_on,67,0,120
1,note_on,76,0,0
1,note_on,74,47,240
1,note_on,67,47,0
1,note_on,67,0,120
1,note_on,74,0,0
1,note_on,72,50,0
1,note_on,72,0,120
1,note_on,69,42,0
1,note_on,69,0,120
1,note_on,71,50,0
1,note_on,71,0,120
1,note_on,67,42,0
1,note_on,67,0,120
1,note_on,67,50,0
1,note_on,71,50,0
1,note_on,71,0,240
1,note_on,67,0,0
1,note_on,66,44,0
1,note_on,69,44,0
1,note_on,69,0,240
1,note_on,66,0,0
1,note_on,71,50,0
1,note_on,71,0,120
1,note_on,72,44,0
1,note_on,72,0,30
1,note_on,71,40,0
1,note_on,71,0,30
1,note_on,69,44,0
1,note_on,69,0,30
1,note_on,71,40,0
1,note_on,71,0,30
1,note_on,72,48,0
1,note_on,72,0,180
1,note_on,71,47,0
1,note_on,71,0,60
1,note_on,69,50,0
1,note_on,69,0,240
1,note_on,71,46,0
1,note_on,71,0,240
1,note_on,72,50,0
1,note_on,72,0,120
1,note_on,73,50,0
1,note_on,73,0,120
1,note_on,76,46,0
1,note_on,76,0,120
1,note_on,74,49,0
1,note_on,74,0,120
1,note_on,72,47,0
1,note_on,72,0,180
1,note_on,74,47,0
1,note_on,74,0,30
1,note_on,72,47,0
1,note_on,72,0,30
1,note_on,71,51,0
1,note_on,71,0,240
1,note_on,67,65,0
1,note_on,72,65,0
1,note_on,72,0,120
1,note_on,67,0,0
1,note_on,71,61,120
1,note_on,67,61,0
1,note_on,67,0,120
1,note_on,71,0,0
1,note_on,67,67,120
1,note_on,76,67,0
1,note_on,76,0,120
1,note_on,78,62,0
1,note_on,78,0,120
1,note_on,79,65,0
1,note_on,79,0,120
1,note_on,67,0,0
1,note_on,72,47,0
1,note_on,72,0,120
1,note_on,71,50,0
1,note_on,71,0,240
1,note_on,69,47,0
1,note_on,69,0,27
1,note_on,71,47,0
1,note_on,71,0,26
1,note_on,69,47,0
1,note_on,71,47,26
1,note_on,69,0,1
1,note_on,71,0,26
1,note_on,69,45,0
1,note_on,69,0,26
1,note_on,71,45,0
1,note_on,71,0,27
1,note_on,69,45,0
1,note_on,69,0,26
1,note_on,67,45,0
1,note_on,69,45,26
1,note_on,67,0,1
1,note_on,69,0,28
1,note_on,67,45,0
1,note_on,67,0,480
1,note_on,71,45,0
1,note_on,71,0,240
1,note_on,69,45,0
1,note_on,69,0,240
1,note_on,67,45,0
1,note_on,67,0,120
1,note_on,66,41,0
1,note_on,66,0,116
1,note_on,66,45,4
1,note_on,66,0,120
1,note_on,62,41,0
1,note_on,62,0,120
1,note_on,71,51,0
1,note_on,71,0,480
1,note_on,67,45,0
1,note_on,67,0,360
1,note_on,69,40,0
1,note_on,69,0,30
1,note_on,67,35,0
1,note_on,67,0,30
1,note_on,66,40,0
1,note_on,66,0,30
1,note_on,67,36,0
1,note_on,67,0,30
1,note_on,71,45,0
1,note_on,71,0,120
1,note_on,69,45,0
1,note_on,69,0,117
1,note_on,69,45,3
1,note_on,69,0,240
1,note_on,67,45,0
1,note_on,67,0,120
1,note_on,66,41,0
1,note_on,66,0,118
1,note_on,66,45,2
1,note_on,66,0,120
1,note_on,62,43,0
1,note_on,62,0,120
1,note_on,67,54,0
1,note_on,67,0,480
1,note_on,79,69,0
1,note_on,73,58,0
1,note_on,67,58,0
1,note_on,67,0,228
1,note_on,73,0,0
1,note_on,79,0,0
1,note_on,73,56,12
1,note_on,79,66,0
1,note_on,67,56,0
1,note_on,67,0,228
1,note_on,79,0,0
1,note_on,73,0,0
1,note_on,73,59,12
1,note_on,79,70,0
1,note_on,67,59,0
1,note_on,67,0,432
1,note_on,79,0,0
1,note_on,73,0,0
1,note_on,78,40,48
1,note_on,86,48,0
1,note_on,86,0,192
1,note_on,78,0,0
1,note_on,86,45,48
1,note_on,78,38,0
1,note_on,78,0,192
1,note_on,86,0,0
1,note_on,86,48,48
1,note_on,78,40,0
1,note_on,78,0,480
1,note_on,86,0,0
1,note_on,71,48,240
1,note_on,71,0,30
1,note_on,72,44,0
1,note_on,72,0,30
1,note_on,71,48,0
1,note_on,71,0,30
1,note_on,69,44,0
1,note_on,69,0,30
1,note_on,71,50,0
1,note_on,71,0,60
1,note_on,72,45,0
1,note_on,72,0,60
1,note_on,74,54,0
1,note_on,74,0,240
1,note_on,74,48,0
1,note_on,74,0,360
1,note_on,74,48,0
1,note_on,74,0,120
1,note_on,74,50,0
1,note_on,74,0,30
1,note_on,76,44,0
1,note_on,76,0,30
1,note_on,74,46,0
1,note_on,74,0,30
1,note_on,73,46,0
1,note_on,73,0,30
1,note_on,74,53,0
1,note_on,74,0,60
1,note_on,76,43,0
1,note_on,76,0,60
1,note_on,74,53,0
1,note_on,74,0,120
1,note_on,72,48,0
1,note_on,72,0,120
1,note_on,72,48,0
1,note_on,72,0,360
1,note_on,72,45,0
1,note_on,72,0,60
1,note_on,71,49,60
1,note_on,71,0,60
1,note_on,69,45,60
1,note_on,69,0,60
1,note_on,69,51,60
1,note_on,69,0,120
1,note_on,74,46,0
1,note_on,74,0,117
1,note_on,74,46,3
1,note_on,74,0,360
1,note_on,76,48,0
1,note_on,76,0,60
1,note_on,74,44,0
1,note_on,74,0,60
1,note_on,74,48,0
1,note_on,74,0,60
1,note_on,72,44,0
1,note_on,72,0,60
1,note_on,71,44,0
1,note_on,71,0,60
1,note_on,72,44,0
1,note_on,72,0,60
1,note_on,72,49,0
1,note_on,72,0,120
1,note_on,71,45,0
1,note_on,71,0,117
1,note_on,71,48,3
1,note_on,71,0,300
1,note_on,71,44,0
1,note_on,71,0,30
1,note_on,72,44,0
1,note_on,72,0,30
1,note_on,74,48,0
1,note_on,74,0,60
1,note_on,72,46,60
1,note_on,72,0,60
1,note_on,71,46,60
1,note_on,71,0,60
1,note_on,71,51,60
1,note_on,71,0,120
1,note_on,69,46,0
1,note_on,69,0,120
1,note_on,69,46,0
1,note_on,69,0,60
1,note_on,69,48,60
1,note_on,69,0,60
1,note_on,69,48,60
1,note_on,69,0,240
1,note_on,69,48,0
1,note_on,73,48,120
1,note_on,73,0,40
1,note_on,74,48,0
1,note_on,69,0,20
1,note_on,74,0,20
1,note_on,76,48,0
1,note_on,76,0,40
1,note_on,74,53,0
1,note_on,74,0,600
1,note_on,76,52,0
1,note_on,76,0,60
1,note_on,74,48,0
1,note_on,74,0,60
1,note_on,72,51,0
1,note_on,72,0,120
1,note_on,71,48,0
1,note_on,71,0,117
1,note_on,71,53,3
1,note_on,71,0,120
1,note_on,69,45,0
1,note_on,69,0,120
1,note_on,68,50,0
1,note_on,68,0,120
1,note_on,69,45,0
1,note_on,69,0,120
1,note_on,71,48,0
1,note_on,71,0,120
1,note_on,72,44,0
1,note_on,72,0,120
1,note_on,64,42,0
1,note_on,64,0,120
1,note_on,69,42,0
1,note_on,69,0,120
1,note_on,67,48,0
1,note_on,67,0,120
1,note_on,66,45,0
1,note_on,66,0,120
1,note_on,64,41,0
1,note_on,64,0,120
1,note_on,62,41,0
1,note_on,62,0,120
1,note_on,64,42,0
1,note_on,64,0,120
1,note_on,66,44,0
1,note_on,66,0,120
1,note_on,67,47,0
1,note_on,67,0,120
1,note_on,69,49,0
1,note_on,69,0,120
1,note_on,71,50,0
1,note_on,71,0,180
1,note_on,74,42,0
1,note_on,74,0,60
1,note_on,72,50,0
1,note_on,72,0,180
1,note_on,71,47,0
1,note_on,71,0,60
1,note_on,69,50,0
1,note_on,69,0,240
1,note_on,71,46,0
1,note_on,71,0,240
1,note_on,72,50,0
1,note_on,72,0,240
1,note_on,74,46,0
1,note_on,74,0,240
1,note_on,72,47,0
1,note_on,72,0,240
1,note_on,71,51,0
1,note_on,71,0,240
1,note_on,86,45,0
1,note_on,86,0,30
1,note_on,88,40,0
1,note_on,88,0,30
1,note_on,86,45,0
1,note_on,86,0,30
1,note_on,88,41,0
1,note_on,88,0,30
1,note_on,86,45,0
1,note_on,86,0,30
1,note_on,88,40,0
1,note_on,88,0,30
1,note_on,86,45,0
1,note_on,86,0,30
1,note_on,88,39,0
1,note_on,88,0,30
1,note_on,86,45,0
1,note_on,86,0,30
1,note_on,88,40,0
1,note_on,88,0,30
1,note_on,86,45,0
1,note_on,86,0,30
1,note_on,88,40,0
1,note_on,88,0,30
1,note_on,86,45,0
1,note_on,86,0,30
1,note_on,88,40,0
1,note_on,88,0,30
1,note_on,86,45,0
1,note_on,86,0,30
1,note_on,88,41,0
1,note_on,88,0,30
1,note_on,86,45,0
1,note_on,86,0,30
1,note_on,88,40,0
1,note_on,88,0,30
1,note_on,86,45,0
1,note_on,86,0,30
1,note_on,88,40,0
1,note_on,88,0,30
1,note_on,86,45,0
1,note_on,86,0,30
1,note_on,88,41,0
1,note_on,88,0,30
1,note_on,86,45,0
1,note_on,86,0,30
1,note_on,88,40,0
1,note_on,88,0,30
1,note_on,86,45,0
1,note_on,86,0,30
1,note_on,88,40,0
1,note_on,88,0,30
1,note_on,86,45,0
1,note_on,86,0,30
1,note_on,88,41,0
1,note_on,88,0,30
1,note_on,86,45,0
1,note_on,86,0,30
1,note_on,88,40,0
1,note_on,88,0,30
1,note_on,86,45,0
1,note_on,86,0,30
1,note_on,88,41,0
1,note_on,88,0,30
1,note_on,86,45,0
1,note_on,86,0,30
1,note_on,88,42,0
1,note_on,88,0,30
1,note_on,86,45,0
1,note_on,86,0,30
1,note_on,88,41,0
1,note_on,88,0,30
1,note_on,86,44,0
1,note_on,86,0,30
1,note_on,88,38,0
1,note_on,88,0,30
1,note_on,86,44,0
1,note_on,86,0,30
1,note_on,88,39,0
1,note_on,88,0,30
1,note_on,86,43,0
1,note_on,86,0,30
1,note_on,88,38,0
1,note_on,88,0,30
1,note_on,86,42,0
1,note_on,86,0,30
1,note_on,88,38,0
1,note_on,88,0,30
1,note_on,86,42,0
1,note_on,86,0,30
1,note_on,88,39,0
1,note_on,88,0,30
1,note_on,86,43,0
1,note_on,86,0,30
1,note_on,88,39,0
1,note_on,88,0,30
1,note_on,86,43,0
1,note_on,86,0,30
1,note_on,88,38,0
1,note_on,88,0,30
1,note_on,86,43,0
1,note_on,86,0,30
1,note_on,88,38,0
1,note_on,88,0,30
1,note_on,86,43,0
1,note_on,86,0,30
1,note_on,88,38,0
1,note_on,88,0,30
1,note_on,86,43,0
1,note_on,86,0,30
1,note_on,88,39,0
1,note_on,88,0,30
1,note_on,86,43,0
1,note_on,86,0,40
1,note_on,88,45,0
1,note_on,88,0,40
1,note_on,86,52,0
1,note_on,86,0,40
1,note_on,85,58,0
1,note_on,85,0,60
1,note_on,86,54,0
1,note_on,86,0,60
1,note_on,79,66,0
1,note_on,67,56,0
1,note_on,67,0,240
1,note_on,79,0,0
1,note_on,78,60,0
1,note_on,66,50,0
1,note_on,66,0,240
1,note_on,78,0,0
1,note_on,64,53,0
1,note_on,76,62,0
1,note_on,76,0,240
1,note_on,64,0,0
1,note_on,71,40,120
1,note_on,71,0,120
1,note_on,64,38,0
1,note_on,76,45,0
1,note_on,76,0,240
1,note_on,64,0,0
1,note_on,62,34,0
1,note_on,74,40,0
1,note_on,74,0,240
1,note_on,62,0,0
1,note_on,60,37,0
1,note_on,72,44,0
1,note_on,72,0,240
1,note_on,60,0,0
1,note_on,67,60,120
1,note_on,67,0,120
1,note_on,72,66,0
1,note_on,60,56,0
1,note_on,60,0,240
1,note_on,72,0,0
1,note_on,59,50,0
1,note_on,71,60,0
1,note_on,71,0,240
1,note_on,59,0,0
1,note_on,69,62,0
1,note_on,69,0,120
1,note_on,76,56,0
1,note_on,76,0,120
1,note_on,74,50,0
1,note_on,74,0,60
1,note_on,72,46,0
1,note_on,72,0,60
1,note_on,71,50,0
1,note_on,71,0,60
1,note_on,69,46,0
1,note_on,69,0,60
1,note_on,67,50,0
1,note_on,67,0,240
1,note_on,69,45,0
1,note_on,69,0,240
1,note_on,70,53,0
1,note_on,70,0,240
1,note_on,71,49,0
1,note_on,71,0,240
1,note_on,79,66,0
1,note_on,79,0,240
1,note_on,78,60,0
1,note_on,78,0,30
1,note_on,79,54,0
1,note_on,79,0,30
1,note_on,78,60,0
1,note_on,78,0,30
1,note_on,79,55,0
1,note_on,79,0,30
1,note_on,78,60,0
1,note_on,78,0,30
1,note_on,79,55,0
1,note_on,79,0,30
1,note_on,78,60,0
1,note_on,78,0,30
1,note_on,79,55,0
1,note_on,79,0,30
1,note_on,76,62,0
1,note_on,76,0,240
1,note_on,83,40,120
1,note_on,83,0,120
1,note_on,88,45,0
1,note_on,88,0,240
1,note_on,86,48,0
1,note_on,86,0,30
1,note_on,88,42,0
1,note_on,88,0,30
1,note_on,86,50,0
1,note_on,86,0,30
1,note_on,88,44,0
1,note_on,88,0,30
1,note_on,86,49,0
1,note_on,86,0,30
1,note_on,88,42,0
1,note_on,88,0,30
1,note_on,86,50,0
1,note_on,86,0,30
1,note_on,88,47,0
1,note_on,88,0,30
1,note_on,84,44,0
1,note_on,84,0,240
1,note_on,79,60,120
1,note_on,79,0,120
1,note_on,84,66,0
1,note_on,84,0,240
1,note_on,83,57,3
1,note_on,83,0,30
1,note_on,84,54,0
1,note_on,84,0,30
1,note_on,83,59,0
1,note_on,83,0,30
1,note_on,84,54,0
1,note_on,84,0,30
1,note_on,83,57,0
1,note_on,83,0,30
1,note_on,84,52,0
1,note_on,84,0,30
1,note_on,83,56,0
1,note_on,83,0,30
1,note_on,84,52,0
1,note_on,81,62,27
1,note_on,84,0,3
1,note_on,81,0,117
1,note_on,88,58,0
1,note_on,88,0,120
1,note_on,86,55,0
1,note_on,86,0,60
1,note_on,84,47,0
1,note_on,84,0,60
1,note_on,83,50,0
1,note_on,83,0,60
1,note_on,81,46,0
1,note_on,81,0,60
1,note_on,79,47,0
1,note_on,79,0,60
1,note_on,81,47,60
1,note_on,81,0,60
1,note_on,82,47,60
1,note_on,82,0,60
1,note_on,83,47,60
1,note_on,83,0,60
1,note_on,84,49,60
1,note_on,84,0,60
1,note_on,85,52,60
1,note_on,85,0,60
1,note_on,86,55,60
1,note_on,86,0,60
1,note_on,87,58,60
1,note_on,87,0,180
1,note_on,88,57,0
1,note_on,88,0,60
1,note_on,87,65,0
1,note_on,87,0,60
1,note_on,88,57,0
1,note_on,88,0,60
1,note_on,86,64,0
1,note_on,86,0,60
1,note_on,84,61,0
1,note_on,84,0,60
1,note_on,83,59,0
1,note_on,83,0,60
1,note_on,81,57,0
1,note_on,81,0,60
1,note_on,81,50,0
1,note_on,81,0,30
1,note_on,83,45,0
1,note_on,83,0,30
1,note_on,81,50,0
1,note_on,81,0,30
1,note_on,83,44,0
1,note_on,83,0,30
1,note_on,81,50,0
1,note_on,81,0,30
1,note_on,83,45,0
1,note_on,83,0,30
1,note_on,81,50,0
1,note_on,81,0,30
1,note_on,83,45,0
1,note_on,83,0,30
1,note_on,81,50,0
1,note_on,81,0,40
1,note_on,83,45,0
1,note_on,83,0,40
1,note_on,81,55,0
1,note_on,81,0,40
1,note_on,79,62,0
1,note_on,79,0,60
1,note_on,81,59,0
1,note_on,81,0,60
1,note_on,79,65,0
1,note_on,79,0,40
1,note_on,79,61,20
1,note_on,79,0,60
1,note_on,78,58,0
1,note_on,78,0,60
1,note_on,79,53,0
1,note_on,79,0,60
1,note_on,81,59,0
1,note_on,81,0,60
1,note_on,79,59,0
1,note_on,79,0,60
1,note_on,78,56,0
1,note_on,78,0,60
1,note_on,76,54,0
1,note_on,76,0,60
1,note_on,74,57,0
1,note_on,74,0,40
1,note_on,76,53,20
1,note_on,76,0,60
1,note_on,75,51,0
1,note_on,75,0,60
1,note_on,76,48,0
1,note_on,76,0,60
1,note_on,78,53,0
1,note_on,78,0,60
1,note_on,76,48,0
1,note_on,76,0,60
1,note_on,74,49,0
1,note_on,74,0,60
1,note_on,72,45,0
1,note_on,72,0,60
1,note_on,71,48,0
1,note_on,71,0,120
1,note_on,72,44,0
1,note_on,72,0,24
1,note_on,71,40,0
1,note_on,71,0,24
1,note_on,69,44,0
1,note_on,69,0,24
1,note_on,71,40,0
1,note_on,71,0,24
1,note_on,74,44,0
1,note_on,74,0,24
1,note_on,72,48,0
1,note_on,72,0,180
1,note_on,71,47,0
1,note_on,71,0,180
1,note_on,69,50,0
1,note_on,69,0,240
1,note_on,71,46,0
1,note_on,71,0,240
1,note_on,72,50,0
1,note_on,72,0,180
1,note_on,76,45,0
1,note_on,76,0,60
1,note_on,74,48,0
1,note_on,74,0,120
1,note_on,72,47,0
1,note_on,72,0,240
1,note_on,71,51,0
1,note_on,71,0,240
1,note_on,67,65,0
1,note_on,72,65,0
1,note_on,72,0,120
1,note_on,67,0,0
1,note_on,71,61,120
1,note_on,67,61,0
1,note_on,67,0,120
1,note_on,71,0,0
1,note_on,76,67,120
1,note_on,67,67,0
1,note_on,67,0,120
1,note_on,76,0,0
1,note_on,74,47,240
1,note_on,74,0,120
1,note_on,74,50,0
1,note_on,74,0,60
1,note_on,72,44,0
1,note_on,72,0,60
1,note_on,71,44,0
1,note_on,71,0,60
1,note_on,69,44,0
1,note_on,69,0,60
1,note_on,72,50,0
1,note_on,72,0,60
1,note_on,71,45,0
1,note_on,71,0,60
1,note_on,69,45,0
1,note_on,69,0,60
1,note_on,67,45,0
1,note_on,67,0,60
1,note_on,67,50,0
1,note_on,71,50,0
1,note_on,71,0,240
1,note_on,67,0,0
1,note_on,66,44,0
1,note_on,69,44,0
1,note_on,69,0,240
1,note_on,66,0,0
1,note_on,70,50,0
1,note_on,70,0,120
1,note_on,71,50,0
1,note_on,71,0,90
1,note_on,74,51,0
1,note_on,74,0,30
1,note_on,72,51,0
1,note_on,72,0,120
1,note_on,71,44,0
1,note_on,71,0,120
1,note_on,68,51,0
1,note_on,68,0,120
1,note_on,69,47,0
1,note_on,69,0,120
1,note_on,72,49,120
1,note_on,72,0,60
1,note_on,71,46,0
1,note_on,71,0,60
1,note_on,74,50,120
1,note_on,74,0,60
1,note_on,72,45,0
1,note_on,72,0,60
1,note_on,76,46,120
1,note_on,76,0,60
1,note_on,74,49,0
1,note_on,74,0,60
1,note_on,72,53,0
1,note_on,72,0,180
1,note_on,74,47,0
1,note_on,74,0,30
1,note_on,72,47,0
1,note_on,72,0,30
1,note_on,71,56,0
1,note_on,71,0,240
1,note_on,72,65,0
1,note_on,67,65,0
1,note_on,67,0,120
1,note_on,72,0,0
1,note_on,67,61,120
1,note_on,71,61,0
1,note_on,71,0,120
1,note_on,67,0,0
1,note_on,76,67,120
1,note_on,76,0,60
1,note_on,78,54,0
1,note_on,78,0,20
1,note_on,76,54,0
1,note_on,76,0,20
1,note_on,74,54,0
1,note_on,74,0,20
1,note_on,76,63,0
1,note_on,76,0,60
1,note_on,78,60,0
1,note_on,78,0,60
1,note_on,79,65,0
1,note_on,79,0,120
1,note_on,72,47,0
1,note_on,72,0,120
1,note_on,71,50,0
1,note_on,71,0,240
1,note_on,69,47,0
1,note_on,69,0,27
1,note_on,71,47,0
1,note_on,71,0,26
1,note_on,69,47,0
1,note_on,71,47,26
1,note_on,69,0,1
1,note_on,71,0,26
1,note_on,69,45,0
1,note_on,69,0,26
1,note_on,71,45,0
1,note_on,71,0,27
1,note_on,69,45,0
1,note_on,69,0,26
1,note_on,67,45,0
1,note_on,69,45,26
1,note_on,67,0,1
1,note_on,69,0,28
1,note_on,67,45,0
1,note_on,67,0,480
1,note_on,71,45,0
1,note_on,71,0,240
1,note_on,69,45,0
1,note_on,69,0,240
1,note_on,67,45,0
1,note_on,67,0,120
1,note_on,66,41,0
1,note_on,66,0,117
1,note_on,66,45,3
1,note_on,66,0,120
1,note_on,62,41,0
1,note_on,62,0,120
1,note_on,71,51,0
1,note_on,71,0,480
1,note_on,67,45,0
1,note_on,67,0,360
1,note_on,69,40,0
1,note_on,69,0,30
1,note_on,67,35,0
1,note_on,67,0,30
1,note_on,66,40,0
1,note_on,66,0,30
1,note_on,67,36,0
1,note_on,67,0,30
1,note_on,71,45,0
1,note_on,71,0,120
1,note_on,69,45,0
1,note_on,69,0,117
1,note_on,69,45,3
1,note_on,69,0,240
1,note_on,67,45,0
1,note_on,67,0,120
1,note_on,66,41,0
1,note_on,66,0,118
1,note_on,66,45,2
1,note_on,66,0,120
1,note_on,62,43,0
1,note_on,62,0,120
1,note_on,67,54,0
1,note_on,67,0,480
1,note_on,67,47,0
1,note_on,79,56,0
1,note_on,79,0,480
1,note_on,67,0,0
1,note_on,71,45,0
1,note_on,83,54,0
1,note_on,83,0,120
1,note_on,71,0,0
1,note_on,69,41,0
1,note_on,81,49,0
1,note_on,81,0,360
1,note_on,69,0,0
1,note_on,67,48,0
1,note_on,79,57,0
1,note_on,79,0,120
1,note_on,67,0,0
1,note_on,66,45,0
1,note_on,78,54,0
1,note_on,78,0,114
1,note_on,66,0,0
1,note_on,66,48,6
1,note_on,78,57,0
1,note_on,78,0,120
1,note_on,66,0,0
1,note_on,74,58,0
1,note_on,62,49,0
1,note_on,62,0,120
1,note_on,74,0,0
1,note_on,86,68,0
1,note_on,74,57,0
1,note_on,74,0,480
1,note_on,86,0,0
1,note_on,67,50,0
1,note_on,79,59,0
1,note_on,79,0,228
1,note_on,67,0,0
1,note_on,67,50,12
1,note_on,79,59,0
1,note_on,79,0,240
1,note_on,67,0,0
1,note_on,71,53,0
1,note_on,83,63,0
1,note_on,83,0,120
1,note_on,71,0,0
1,note_on,69,44,0
1,note_on,81,52,0
1,note_on,81,0,114
1,note_on,69,0,0
1,note_on,69,44,6
1,note_on,81,52,0
1,note_on,81,0,60
1,note_on,69,0,0
1,note_on,69,44,60
1,note_on,81,52,0
1,note_on,81,0,60
1,note_on,69,0,0
1,note_on,67,48,60
1,note_on,79,57,0
1,note_on,79,0,120
1,note_on,67,0,0
1,note_on,66,45,0
1,note_on,78,54,0
1,note_on,78,0,114
1,note_on,66,0,0
1,note_on,66,48,6
1,note_on,78,57,0
1,note_on,78,0,120
1,note_on,66,0,0
1,note_on,74,60,0
1,note_on,62,51,0
1,note_on,62,0,120
1,note_on,74,0,0
1,note_on,79,68,0
1,note_on,67,57,0
1,note_on,67,0,480
1,note_on,79,0,0
1,note_on,83,54,0
1,note_on,83,0,120
1,note_on,81,48,0
1,note_on,81,0,117
1,note_on,81,48,3
1,note_on,81,0,120
1,note_on,78,48,0
1,note_on,78,0,120
1,note_on,79,50,0
1,note_on,79,0,120
1,note_on,83,52,0
1,note_on,83,0,120
1,note_on,86,58,0
1,note_on,86,0,240
1,note_on,83,54,0
1,note_on,83,0,120
1,note_on,81,48,0
1,note_on,81,0,118
1,note_on,81,48,2
1,note_on,81,0,120
1,note_on,78,48,0
1,note_on,78,0,120
1,note_on,67,38,0
1,note_on,79,45,0
1,note_on,79,0,120
1,note_on,67,0,0
1,note_on,71,39,0
1,note_on,83,47,0
1,note_on,83,0,120
1,note_on,71,0,0
1,note_on,74,42,0
1,note_on,86,50,0
1,note_on,86,0,60
1,note_on,74,0,0
1,note_on,74,39,60
1,note_on,86,47,0
1,note_on,86,0,60
1,note_on,74,0,0
1,note_on,67,32,60
1,note_on,79,38,0
1,note_on,79,0,120
1,note_on,67,0,0
1,note_on,71,28,0
1,note_on,83,34,0
1,note_on,83,0,120
1,note_on,71,0,0
1,note_on,74,32,0
1,note_on,86,38,0
1,note_on,86,0,60
1,note_on,74,0,0
1,note_on,74,27,60
1,note_on,86,32,0
1,note_on,86,0,60
1,note_on,74,0,0
1,note_on,74,32,60
1,note_on,86,38,0
1,note_on,86,0,480
1,note_on,74,0,0
1,note_on,67,26,0
1,note_on,79,31,0
1,note_on,79,0,240
1,note_on,67,0,0
2,note_on,59,59,39360
2,note_on,62,59,0
2,note_on,62,0,240
2,note_on,59,0,0
2,note_on,57,42,0
2,note_on,60,42,0
2,note_on,60,0,240
2,note_on,57,0,0
2,note_on,55,44,0
2,note_on,59,44,0
2,note_on,64,53,0
2,note_on,64,0,480
2,note_on,59,0,0
2,note_on,55,0,0
2,note_on,66,40,0
2,note_on,57,40,0
2,note_on,66,0,240
2,note_on,61,38,0
2,note_on,61,0,240
2,note_on,57,0,0
2,note_on,61,40,0
2,note_on,50,40,0
2,note_on,61,0,240
2,note_on,62,38,0
2,note_on,62,0,240
2,note_on,50,0,0
2,note_on,66,53,0
2,note_on,69,53,0
2,note_on,69,0,240
2,note_on,66,0,0
2,note_on,64,37,0
2,note_on,67,37,0
2,note_on,70,45,0
2,note_on,70,0,240
2,note_on,67,0,0
2,note_on,64,0,0
2,note_on,71,47,0
2,note_on,62,39,0
2,note_on,66,47,0
2,note_on,66,0,240
2,note_on,62,0,0
2,note_on,71,0,0
2,note_on,62,29,240
2,note_on,66,35,0
2,note_on,66,0,240
2,note_on,62,0,0
2,note_on,60,29,0
2,note_on,62,29,0
2,note_on,66,35,0
2,note_on,66,0,240
2,note_on,62,0,0
2,note_on,60,0,0
2,note_on,67,35,0
2,note_on,59,29,0
2,note_on,62,35,0
2,note_on,62,0,240
2,note_on,59,0,0
2,note_on,67,0,0
2,note_on,59,59,240
2,note_on,62,59,0
2,note_on,62,0,240
2,note_on,59,0,0
2,note_on,57,42,0
2,note_on,60,42,0
2,note_on,60,0,240
2,note_on,57,0,0
2,note_on,55,44,0
2,note_on,59,44,0
2,note_on,64,53,0
2,note_on,64,0,480
2,note_on,59,0,0
2,note_on,55,0,0
2,note_on,62,34,0
2,note_on,66,40,0
2,note_on,57,34,0
2,note_on,57,0,240
2,note_on,66,0,0
2,note_on,62,0,0
2,note_on,62,28,240
2,note_on,66,33,0
2,note_on,57,28,0
2,note_on,57,0,240
2,note_on,66,0,0
2,note_on,62,0,0
2,note_on,57,28,240
2,note_on,62,28,0
2,note_on,64,34,0
2,note_on,64,0,240
2,note_on,62,0,0
2,note_on,57,0,0
2,note_on,61,28,240
2,note_on,57,28,0
2,note_on,67,34,0
2,note_on,67,0,240
2,note_on,57,0,0
2,note_on,61,0,0
2,note_on,62,28,240
2,note_on,66,34,0
2,note_on,66,0,480
2,note_on,62,0,0
2,note_on,55,39,480
2,note_on,62,39,0
2,note_on,55,0,240
2,note_on,57,35,0
2,note_on,57,0,180
2,note_on,55,30,0
2,note_on,55,0,60
2,note_on,54,32,0
2,note_on,54,0,240
2,note_on,55,32,0
2,note_on,55,0,240
2,note_on,62,0,0
2,note_on,57,38,0
2,note_on,62,38,0
2,note_on,57,0,240
2,note_on,60,40,0
2,note_on,60,0,120
2,note_on,59,36,0
2,note_on,59,0,120
2,note_on,57,47,0
2,note_on,57,0,240
2,note_on,55,51,0
2,note_on,55,0,240
2,note_on,62,0,0
2,note_on,52,49,0
2,note_on,64,49,0
2,note_on,64,0,120
2,note_on,52,0,0
2,note_on,50,44,120
2,note_on,62,44,0
2,note_on,62,0,120
2,note_on,50,0,0
2,note_on,60,51,120
2,note_on,48,51,0
2,note_on,48,0,120
2,note_on,60,0,0
2,note_on,59,37,240
2,note_on,59,0,120
2,note_on,54,40,0
2,note_on,54,0,240
2,note_on,55,35,0
2,note_on,55,0,240
2,note_on,50,39,0
2,note_on,50,0,480
2,note_on,62,39,0
2,note_on,55,39,0
2,note_on,55,0,240
2,note_on,57,35,0
2,note_on,57,0,180
2,note_on,55,30,0
2,note_on,55,0,60
2,note_on,54,32,0
2,note_on,54,0,240
2,note_on,56,32,0
2,note_on,56,0,240
2,note_on,62,0,0
2,note_on,62,38,0
2,note_on,57,38,0
2,note_on,57,0,240
2,note_on,54,33,0
2,note_on,54,0,240
2,note_on,55,39,0
2,note_on,55,0,480
2,note_on,62,0,0
2,note_on,52,49,0
2,note_on,64,49,0
2,note_on,64,0,120
2,note_on,52,0,0
2,note_on,50,44,120
2,note_on,62,44,0
2,note_on,62,0,120
2,note_on,50,0,0
2,note_on,60,51,120
2,note_on,48,51,0
2,note_on,48,0,240
2,note_on,60,0,0
2,note_on,64,37,120
2,note_on,60,37,0
2,note_on,60,0,120
2,note_on,64,0,0
2,note_on,62,40,0
2,note_on,67,40,0
2,note_on,67,0,240
2,note_on,66,35,0
2,note_on,66,0,240
2,note_on,62,0,0
2,note_on,55,39,0
2,note_on,59,28,120
2,note_on,59,0,120
2,note_on,62,32,0
2,note_on,62,0,120
2,note_on,59,27,0
2,note_on,59,0,120
2,note_on,55,0,0
2,note_on,48,39,0
2,note_on,52,27,120
2,note_on,52,0,120
2,note_on,57,32,0
2,note_on,57,0,120
2,note_on,52,28,0
2,note_on,52,0,120
2,note_on,48,0,0
2,note_on,50,39,0
2,note_on,60,29,120
2,note_on,60,0,120
2,note_on,57,32,0
2,note_on,57,0,120
2,note_on,60,29,0
2,note_on,60,0,120
2,note_on,50,0,0
2,note_on,55,39,0
2,note_on,59,29,120
2,note_on,59,0,120
2,note_on,62,32,0
2,note_on,62,0,120
2,note_on,59,29,0
2,note_on,59,0,120
2,note_on,55,0,0
2,note_on,52,39,0
2,note_on,55,29,120
2,note_on,55,0,120
2,note_on,59,32,0
2,note_on,59,0,120
2,note_on,55,30,0
2,note_on,55,0,120
2,note_on,52,0,0
2,note_on,48,39,0
2,note_on,52,29,120
2,note_on,52,0,120
2,note_on,57,32,0
2,note_on,57,0,120
2,note_on,52,29,0
2,note_on,52,0,120
2,note_on,48,0,0
2,note_on,50,39,0
2,note_on,60,30,120
2,note_on,60,0,120
2,note_on,57,32,0
2,note_on,57,0,120
2,note_on,60,29,0
2,note_on,60,0,120
2,note_on,50,0,0
3,note_on,55,39,0
3,note_on,62,39,0
3,note_on,55,0,480
3,note_on,54,32,0
3,note_on,54,0,240
3,note_on,55,32,0
3,note_on,55,0,240
3,note_on,62,0,0
3,note_on,57,38,0
3,note_on,62,38,0
3,note_on,57,0,240
3,note_on,54,33,0
3,note_on,54,0,240
3,note_on,55,39,0
3,note_on,55,0,480
3,note_on,62,0,0
3,note_on,52,49,0
3,note_on,64,49,0
3,note_on,64,0,120
3,note_on,52,0,0
3,note_on,50,44,120
3,note_on,62,44,0
3,note_on,62,0,120
3,note_on,50,0,0
3,note_on,60,51,120
3,note_on,48,51,0
3,note_on,48,0,120
3,note_on,60,0,0
3,note_on,59,37,240
3,note_on,59,0,120
3,note_on,54,40,0
3,note_on,54,0,206
3,note_on,55,35,0
3,note_on,55,0,180
3,note_on,50,39,0
3,note_on,50,0,469
3,note_on,55,39,0
3,note_on,62,39,0
3,note_on,55,0,480
3,note_on,54,32,0
3,note_on,54,0,240
3,note_on,55,32,0
3,note_on,55,0,240
3,note_on,62,0,0
3,note_on,62,38,0
3,note_on,57,38,0
3,note_on,57,0,240
3,note_on,54,33,0
3,note_on,54,0,240
3,note_on,55,39,0
3,note_on,55,0,480
3,note_on,62,0,0
3,note_on,52,49,0
3,note_on,64,49,0
3,note_on,64,0,120
3,note_on,52,0,0
3,note_on,62,44,120
3,note_on,50,44,0
3,note_on,50,0,120
3,note_on,62,0,0
3,note_on,48,51,120
3,note_on,60,51,0
3,note_on,60,0,240
3,note_on,48,0,0
3,note_on,60,37,120
3,note_on,64,37,0
3,note_on,64,0,90
3,note_on,60,0,0
3,note_on,67,40,30
3,note_on,62,40,0
3,note_on,67,0,240
3,note_on,66,35,0
3,note_on,66,0,220
3,note_on,62,0,0
3,note_on,55,39,0
3,note_on,59,28,85
3,note_on,59,0,120
3,note_on,62,32,0
3,note_on,62,0,120
3,note_on,59,27,0
3,note_on,59,0,120
3,note_on,55,0,0
3,note_on,48,39,0
3,note_on,52,27,7
3,note_on,52,0,120
3,note_on,57,32,0
3,note_on,57,0,120
3,note_on,52,28,0
3,note_on,52,0,120
3,note_on,48,0,0
3,note_on,50,39,0
3,note_on,60,29,35
3,note_on,60,0,120
3,note_on,57,32,0
3,note_on,57,0,120
3,note_on,60,29,0
3,note_on,60,0,120
3,note_on,50,0,0
3,note_on,55,39,0
3,note_on,59,29,72
3,note_on,59,0,120
3,note_on,62,32,0
3,note_on,62,0,120
3,note_on,59,29,0
3,note_on,59,0,120
3,note_on,55,0,0
3,note_on,52,39,0
3,note_on,55,29,57
3,note_on,55,0,120
3,note_on,59,32,0
3,note_on,59,0,120
3,note_on,55,30,0
3,note_on,55,0,120
3,note_on,52,0,0
3,note_on,48,39,0
3,note_on,52,29,72
3,note_on,52,0,120
3,note_on,57,32,0
3,note_on,57,0,120
3,note_on,52,29,0
3,note_on,52,0,120
3,note_on,48,0,0
3,note_on,50,39,0
3,note_on,60,30,63
3,note_on,60,0,120
3,note_on,57,32,0
3,note_on,57,0,120
3,note_on,60,29,0
3,note_on,60,0,120
3,note_on,50,0,0
3,note_on,55,39,0
3,note_on,62,39,0
3,note_on,55,0,480
3,note_on,54,32,0
3,note_on,54,0,240
3,note_on,55,32,0
3,note_on,55,0,240
3,note_on,62,0,0
3,note_on,62,38,0
3,note_on,57,38,0
3,note_on,57,0,240
3,note_on,54,33,0
3,note_on,54,0,240
3,note_on,55,39,0
3,note_on,55,0,480
3,note_on,62,0,0
3,note_on,64,49,0
3,note_on,52,49,0
3,note_on,52,0,120
3,note_on,64,0,0
3,note_on,50,44,120
3,note_on,62,44,0
3,note_on,62,0,120
3,note_on,50,0,0
3,note_on,60,51,120
3,note_on,48,51,0
3,note_on,48,0,120
3,note_on,60,0,0
3,note_on,59,37,240
3,note_on,59,0,120
3,note_on,54,40,0
3,note_on,54,0,206
3,note_on,55,35,0
3,note_on,55,0,180
3,note_on,50,39,0
3,note_on,50,0,469
3,note_on,62,39,0
3,note_on,55,39,0
3,note_on,55,0,480
3,note_on,54,32,0
3,note_on,54,0,240
3,note_on,55,32,0
3,note_on,55,0,240
3,note_on,62,0,0
3,note_on,57,38,0
3,note_on,62,38,0
3,note_on,57,0,240
3,note_on,54,33,0
3,note_on,54,0,240
3,note_on,55,39,0
3,note_on,55,0,480
3,note_on,62,0,0
3,note_on,64,49,0
3,note_on,52,49,0
3,note_on,52,0,120
3,note_on,64,0,0
3,note_on,62,44,120
3,note_on,50,44,0
3,note_on,50,0,120
3,note_on,62,0,0
3,note_on,48,51,120
3,note_on,60,51,0
3,note_on,60,0,240
3,note_on,48,0,0
3,note_on,64,37,120
3,note_on,60,37,0
3,note_on,60,0,90
3,note_on,64,0,0
3,note_on,62,40,30
3,note_on,67,40,0
3,note_on,67,0,240
3,note_on,66,35,0
3,note_on,66,0,220
3,note_on,62,0,0
3,note_on,55,39,0
3,note_on,59,28,85
3,note_on,59,0,120
3,note_on,62,32,0
3,note_on,62,0,120
3,note_on,59,27,0
3,note_on,59,0,120
3,note_on,55,0,0
3,note_on,48,39,0
3,note_on,52,27,7
3,note_on,52,0,120
3,note_on,57,32,0
3,note_on,57,0,120
3,note_on,52,28,0
3,note_on,52,0,120
3,note_on,48,0,0
3,note_on,50,39,0
3,note_on,60,29,35
3,note_on,60,0,120
3,note_on,57,32,0
3,note_on,57,0,120
3,note_on,60,29,0
3,note_on,60,0,120
3,note_on,50,0,0
3,note_on,55,39,0
3,note_on,59,29,72
3,note_on,59,0,120
3,note_on,62,32,0
3,note_on,62,0,120
3,note_on,59,29,0
3,note_on,59,0,120
3,note_on,55,0,0
3,note_on,52,39,0
3,note_on,55,29,57
3,note_on,55,0,120
3,note_on,59,32,0
3,note_on,59,0,120
3,note_on,55,30,0
3,note_on,55,0,120
3,note_on,52,0,0
3,note_on,48,39,0
3,note_on,52,29,72
3,note_on,52,0,120
3,note_on,57,32,0
3,note_on,57,0,120
3,note_on,52,29,0
3,note_on,52,0,120
3,note_on,48,0,0
3,note_on,50,39,0
3,note_on,60,30,63
3,note_on,60,0,120
3,note_on,57,32,0
3,note_on,57,0,120
3,note_on,60,29,0
3,note_on,60,0,120
3,note_on,50,0,0
3,note_on,59,39,0
3,note_on,55,33,0
3,note_on,55,0,480
3,note_on,59,0,0
3,note_on,57,38,0
3,note_on,54,32,0
3,note_on,47,32,0
3,note_on,47,0,228
3,note_on,54,0,0
3,note_on,57,0,0
3,note_on,47,32,12
3,note_on,57,38,0
3,note_on,54,32,0
3,note_on,54,0,228
3,note_on,57,0,0
3,note_on,47,0,0
3,note_on,55,41,12
3,note_on,52,34,0
3,note_on,52,0,480
3,note_on,55,0,0
3,note_on,55,37,0
3,note_on,45,31,0
3,note_on,52,31,0
3,note_on,52,0,240
3,note_on,45,0,0
3,note_on,55,0,0
3,note_on,55,42,0
3,note_on,52,35,0
3,note_on,45,35,0
3,note_on,45,0,240
3,note_on,52,0,0
3,note_on,55,0,0
3,note_on,50,37,0
3,note_on,54,44,0
3,note_on,54,0,480
3,note_on,50,0,0
3,note_on,47,51,0
3,note_on,59,61,0
3,note_on,59,0,148
3,note_on,47,0,0
3,note_on,47,48,12
3,note_on,59,57,0
3,note_on,59,0,228
3,note_on,47,0,0
3,note_on,47,51,12
3,note_on,59,61,0
3,note_on,59,0,58
3,note_on,47,0,0
3,note_on,64,37,48
3,note_on,57,31,0
3,note_on,57,0,192
3,note_on,64,0,0
3,note_on,64,35,48
3,note_on,57,29,0
3,note_on,57,0,192
3,note_on,64,0,0
3,note_on,57,31,48
3,note_on,64,37,0
3,note_on,64,0,480
3,note_on,57,0,0
3,note_on,62,34,233
3,note_on,62,0,61
3,note_on,66,29,0
3,note_on,66,0,120
3,note_on,69,29,0
3,note_on,69,0,120
3,note_on,66,29,0
3,note_on,66,0,120
3,note_on,62,34,0
3,note_on,62,0,99
3,note_on,66,30,0
3,note_on,66,0,120
3,note_on,69,30,0
3,note_on,69,0,120
3,note_on,66,30,0
3,note_on,66,0,120
3,note_on,62,34,0
3,note_on,62,0,67
3,note_on,64,31,0
3,note_on,64,0,120
3,note_on,71,31,0
3,note_on,71,0,120
3,note_on,64,31,0
3,note_on,64,0,120
3,note_on,62,34,0
3,note_on,62,0,120
3,note_on,64,30,0
3,note_on,64,0,120
3,note_on,71,30,0
3,note_on,71,0,120
3,note_on,64,30,0
3,note_on,64,0,120
3,note_on,61,34,0
3,note_on,61,0,109
3,note_on,64,31,0
3,note_on,64,0,120
3,note_on,69,31,0
3,note_on,69,0,120
3,note_on,64,31,0
3,note_on,64,0,120
3,note_on,59,34,0
3,note_on,59,0,70
3,note_on,62,31,0
3,note_on,62,0,120
3,note_on,67,31,0
3,note_on,67,0,120
3,note_on,62,28,0
3,note_on,62,0,120
3,note_on,58,31,0
3,note_on,58,0,69
3,note_on,61,32,0
3,note_on,61,0,120
3,note_on,64,32,0
3,note_on,64,0,120
3,note_on,58,32,0
3,note_on,58,0,120
3,note_on,59,34,0
3,note_on,59,0,63
3,note_on,66,32,0
3,note_on,66,0,12
3,note_on,57,32,0
3,note_on,57,0,120
3,note_on,62,32,0
3,note_on,62,0,120
3,note_on,56,34,0
3,note_on,56,0,113
3,note_on,59,27,0
3,note_on,59,0,120
3,note_on,62,31,0
3,note_on,62,0,120
3,note_on,59,28,0
3,note_on,59,0,120
3,note_on,56,34,0
3,note_on,56,0,57
3,note_on,59,29,0
3,note_on,59,0,120
3,note_on,62,32,0
3,note_on,62,0,120
3,note_on,59,29,0
3,note_on,59,0,120
3,note_on,55,34,0
3,note_on,55,0,81
3,note_on,61,26,0
3,note_on,61,0,120
3,note_on,64,29,0
3,note_on,64,0,120
3,note_on,55,25,0
3,note_on,55,0,120
3,note_on,54,34,0
3,note_on,54,0,74
3,note_on,62,26,0
3,note_on,62,0,120
3,note_on,59,29,0
3,note_on,59,0,120
3,note_on,57,26,0
3,note_on,57,0,120
3,note_on,59,33,0
3,note_on,55,33,0
3,note_on,55,0,720
3,note_on,59,0,0
3,note_on,64,32,0
3,note_on,56,32,0
3,note_on,56,0,240
3,note_on,64,0,0
3,note_on,64,35,0
3,note_on,57,35,0
3,note_on,57,0,480
3,note_on,64,0,0
3,note_on,74,36,480
3,note_on,74,0,116
3,note_on,69,29,0
3,note_on,69,0,120
3,note_on,74,33,0
3,note_on,74,0,92
3,note_on,69,29,0
3,note_on,69,0,120
3,note_on,73,36,0
3,note_on,73,0,72
3,note_on,69,28,0
3,note_on,69,0,120
3,note_on,74,32,0
3,note_on,74,0,84
3,note_on,69,28,0
3,note_on,69,0,120
3,note_on,76,36,0
3,note_on,76,0,40
3,note_on,69,28,0
3,note_on,69,0,120
3,note_on,73,31,0
3,note_on,73,0,74
3,note_on,69,28,0
3,note_on,69,0,120
3,note_on,74,36,0
3,note_on,74,0,23
3,note_on,69,29,0
3,note_on,69,0,120
3,note_on,74,33,0
3,note_on,74,0,45
3,note_on,69,29,0
3,note_on,69,0,120
3,note_on,62,38,0
3,note_on,66,45,0
3,note_on,66,0,199
3,note_on,62,0,0
3,note_on,64,38,0
3,note_on,67,45,0
3,note_on,67,0,148
3,note_on,64,0,0
3,note_on,62,35,0
3,note_on,66,42,0
3,note_on,66,0,60
3,note_on,62,0,0
3,note_on,61,38,0
3,note_on,64,45,0
3,note_on,64,0,196
3,note_on,61,0,0
3,note_on,62,34,0
3,note_on,66,41,0
3,note_on,66,0,186
3,note_on,62,0,0
3,note_on,64,38,0
3,note_on,67,45,0
3,note_on,67,0,191
3,note_on,64,0,0
3,note_on,66,34,0
3,note_on,69,41,0
3,note_on,69,0,200
3,note_on,66,0,0
3,note_on,64,35,0
3,note_on,67,42,0
3,note_on,67,0,197
3,note_on,64,0,0
3,note_on,62,38,0
3,note_on,66,45,0
3,note_on,66,0,17
3,note_on,62,0,0
3,note_on,66,59,0
3,note_on,69,59,0
3,note_on,69,0,240
3,note_on,66,0,0
3,note_on,64,42,0
3,note_on,67,42,0
3,note_on,70,51,0
3,note_on,70,0,240
3,note_on,67,0,0
3,note_on,64,0,0
3,note_on,62,44,0
3,note_on,66,53,0
3,note_on,66,0,240
3,note_on,62,0,0
3,note_on,62,29,240
3,note_on,66,35,0
3,note_on,66,0,240
3,note_on,62,0,0
3,note_on,60,29,0
3,note_on,62,29,0
3,note_on,66,35,0
3,note_on,66,0,240
3,note_on,62,0,0
3,note_on,60,0,0
3,note_on,59,29,0
3,note_on,62,35,0
3,note_on,62,0,240
3,note_on,59,0,0
3,note_on,63,51,480
3,note_on,63,0,240
3,note_on,63,51,711
3,note_on,63,0,240
3,note_on,55,40,187
3,note_on,54,35,229
3,note_on,55,0,7
3,note_on,54,0,233
3,note_on,59,38,423
3,note_on,55,38,0
3,note_on,55,0,478
3,note_on,59,0,0
3,note_on,51,51,0
3,note_on,63,61,0
3,note_on,63,0,148
3,note_on,51,0,0
3,note_on,51,48,12
3,note_on,63,57,0
3,note_on,63,0,228
3,note_on,51,0,0
3,note_on,51,51,12
3,note_on,63,61,0
3,note_on,63,0,58
3,note_on,51,0,0
3,note_on,69,37,48
3,note_on,62,31,0
3,note_on,62,0,192
3,note_on,69,0,0
3,note_on,69,35,48
3,note_on,62,29,0
3,note_on,62,0,192
3,note_on,69,0,0
3,note_on,62,31,48
3,note_on,69,37,0
3,note_on,69,0,480
3,note_on,62,0,0
3,note_on,55,34,233
3,note_on,55,0,61
3,note_on,59,29,0
3,note_on,59,0,120
3,note_on,62,29,0
3,note_on,62,0,120
3,note_on,59,29,0
3,note_on,59,0,120
3,note_on,55,34,0
3,note_on,55,0,99
3,note_on,59,30,0
3,note_on,59,0,120
3,note_on,62,30,0
3,note_on,62,0,120
3,note_on,59,30,0
3,note_on,59,0,120
3,note_on,55,34,0
3,note_on,55,0,67
3,note_on,57,31,0
3,note_on,57,0,120
3,note_on,64,31,0
3,note_on,64,0,120
3,note_on,57,31,0
3,note_on,57,0,120
3,note_on,55,34,0
3,note_on,55,0,120
3,note_on,57,30,0
3,note_on,57,0,120
3,note_on,64,30,0
3,note_on,64,0,120
3,note_on,57,30,0
3,note_on,57,0,120
3,note_on,54,34,0
3,note_on,54,0,109
3,note_on,57,31,0
3,note_on,57,0,120
3,note_on,62,31,0
3,note_on,62,0,120
3,note_on,57,31,0
3,note_on,57,0,120
3,note_on,52,34,0
3,note_on,52,0,70
3,note_on,57,31,0
3,note_on,57,0,120
3,note_on,60,31,0
3,note_on,60,0,120
3,note_on,57,28,0
3,note_on,57,0,120
3,note_on,51,31,0
3,note_on,51,0,69
3,note_on,54,32,0
3,note_on,54,0,120
3,note_on,57,32,0
3,note_on,57,0,120
3,note_on,51,32,0
3,note_on,51,0,120
3,note_on,52,34,0
3,note_on,52,0,63
3,note_on,59,32,0
3,note_on,59,0,12
3,note_on,50,32,0
3,note_on,50,0,120
3,note_on,55,32,0
3,note_on,55,0,120
3,note_on,49,34,0
3,note_on,49,0,113
3,note_on,52,27,0
3,note_on,52,0,120
3,note_on,55,31,0
3,note_on,55,0,120
3,note_on,52,28,0
3,note_on,52,0,120
3,note_on,49,34,0
3,note_on,49,0,57
3,note_on,52,29,0
3,note_on,52,0,120
3,note_on,55,32,0
3,note_on,55,0,120
3,note_on,52,29,0
3,note_on,52,0,120
3,note_on,48,34,0
3,note_on,48,0,81
3,note_on,54,26,0
3,note_on,54,0,120
3,note_on,57,29,0
3,note_on,57,0,120
3,note_on,48,25,0
3,note_on,48,0,120
3,note_on,47,34,0
3,note_on,47,0,74
3,note_on,55,26,0
3,note_on,55,0,120
3,note_on,52,29,0
3,note_on,52,0,120
3,note_on,50,26,0
3,note_on,50,0,120
3,note_on,52,33,0
3,note_on,48,33,0
3,note_on,48,0,720
3,note_on,52,0,0
3,note_on,57,32,0
3,note_on,49,32,0
3,note_on,49,0,240
3,note_on,57,0,0
3,note_on,57,35,0
3,note_on,50,35,0
3,note_on,50,0,480
3,note_on,57,0,0
3,note_on,67,36,480
3,note_on,67,0,116
3,note_on,62,29,0
3,note_on,62,0,120
3,note_on,67,33,0
3,note_on,67,0,92
3,note_on,62,29,0
3,note_on,62,0,120
3,note_on,66,36,0
3,note_on,66,0,72
3,note_on,62,28,0
3,note_on,62,0,120
3,note_on,67,32,0
3,note_on,67,0,84
3,note_on,62,28,0
3,note_on,62,0,120
3,note_on,69,36,0
3,note_on,69,0,40
3,note_on,62,28,0
3,note_on,62,0,120
3,note_on,66,31,0
3,note_on,66,0,74
3,note_on,62,28,0
3,note_on,62,0,120
3,note_on,67,36,0
3,note_on,67,0,23
3,note_on,62,29,0
3,note_on,62,0,120
3,note_on,67,33,0
3,note_on,67,0,45
3,note_on,62,29,0
3,note_on,62,0,120
3,note_on,55,38,0
3,note_on,59,45,0
3,note_on,59,0,139
3,note_on,55,0,0
3,note_on,62,37,0
3,note_on,62,0,60
3,note_on,57,38,0
3,note_on,60,45,0
3,note_on,60,0,148
3,note_on,57,0,0
3,note_on,55,35,0
3,note_on,59,42,0
3,note_on,59,0,60
3,note_on,55,0,0
3,note_on,54,38,0
3,note_on,57,45,0
3,note_on,57,0,196
3,note_on,54,0,0
3,note_on,55,34,0
3,note_on,59,41,0
3,note_on,59,0,186
3,note_on,55,0,0
3,note_on,57,38,0
3,note_on,60,45,0
3,note_on,60,0,191
3,note_on,57,0,0
3,note_on,59,34,0
3,note_on,62,41,0
3,note_on,62,0,200
3,note_on,59,0,0
3,note_on,57,35,0
3,note_on,60,42,0
3,note_on,60,0,197
3,note_on,57,0,0
3,note_on,55,38,0
3,note_on,59,45,0
3,note_on,59,0,17
3,note_on,55,0,0
3,note_on,59,59,0
3,note_on,62,59,0
3,note_on,62,0,240
3,note_on,59,0,0
3,note_on,57,42,0
3,note_on,60,42,0
3,note_on,63,51,0
3,note_on,63,0,240
3,note_on,60,0,0
3,note_on,57,0,0
3,note_on,55,44,0
3,note_on,59,53,0
3,note_on,59,0,240
3,note_on,55,0,0
3,note_on,55,29,240
3,note_on,59,35,0
3,note_on,59,0,240
3,note_on,55,0,0
3,note_on,53,29,0
3,note_on,55,29,0
3,note_on,59,35,0
3,note_on,59,0,240
3,note_on,55,0,0
3,note_on,53,0,0
3,note_on,52,29,0
3,note_on,55,35,0
3,note_on,55,0,240
3,note_on,52,0,0
3,note_on,52,59,240
3,note_on,55,59,0
3,note_on,55,0,240
3,note_on,52,0,0
3,note_on,50,42,0
3,note_on,53,42,0
3,note_on,56,51,0
3,note_on,56,0,240
3,note_on,53,0,0
3,note_on,50,0,0
3,note_on,48,44,0
3,note_on,52,44,0
3,note_on,57,53,0
3,note_on,57,0,480
3,note_on,52,0,0
3,note_on,48,0,0
3,note_on,59,40,0
3,note_on,50,40,0
3,note_on,59,0,240
3,note_on,54,38,0
3,note_on,54,0,238
3,note_on,50,0,2
3,note_on,54,40,0
3,note_on,43,40,0
3,note_on,54,0,240
3,note_on,55,38,0
3,note_on,55,0,240
3,note_on,43,0,0
3,note_on,59,53,0
3,note_on,62,53,0
3,note_on,62,0,240
3,note_on,59,0,0
3,note_on,57,37,0
3,note_on,60,37,0
3,note_on,63,45,0
3,note_on,63,0,240
3,note_on,60,0,0
3,note_on,57,0,0
3,note_on,64,47,0
3,note_on,55,39,0
3,note_on,59,47,0
3,note_on,59,0,240
3,note_on,55,0,0
3,note_on,64,0,0
3,note_on,67,29,240
3,note_on,71,35,0
3,note_on,71,0,240
3,note_on,67,0,0
3,note_on,65,29,0
3,note_on,67,29,0
3,note_on,71,35,0
3,note_on,71,0,237
3,note_on,67,0,0
3,note_on,65,0,0
3,note_on,72,35,0
3,note_on,64,29,0
3,note_on,67,35,0
3,note_on,67,0,231
3,note_on,64,0,0
3,note_on,72,0,0
3,note_on,64,59,240
3,note_on,67,59,0
3,note_on,67,0,240
3,note_on,64,0,0
3,note_on,62,42,0
3,note_on,65,42,0
3,note_on,68,51,0
3,note_on,68,0,240
3,note_on,65,0,0
3,note_on,62,0,0
3,note_on,60,44,0
3,note_on,64,44,0
3,note_on,69,53,0
3,note_on,69,0,480
3,note_on,64,0,0
3,note_on,60,0,0
3,note_on,67,34,0
3,note_on,71,40,0
3,note_on,62,34,0
3,note_on,62,0,240
3,note_on,71,0,0
3,note_on,67,0,0
3,note_on,67,32,240
3,note_on,71,37,0
3,note_on,62,32,0
3,note_on,62,0,240
3,note_on,71,0,0
3,note_on,67,0,0
3,note_on,62,32,240
3,note_on,67,32,0
3,note_on,72,37,0
3,note_on,72,0,240
3,note_on,67,0,0
3,note_on,62,0,0
3,note_on,66,28,240
3,note_on,62,28,0
3,note_on,72,34,0
3,note_on,72,0,240
3,note_on,62,0,0
3,note_on,66,0,0
3,note_on,67,28,240
3,note_on,71,34,0
3,note_on,71,0,480
3,note_on,67,0,0
3,note_on,62,32,480
3,note_on,55,39,0
3,note_on,55,0,240
3,note_on,57,35,0
3,note_on,57,0,180
3,note_on,55,30,0
3,note_on,55,0,60
3,note_on,62,0,0
3,note_on,62,32,0
3,note_on,54,36,0
3,note_on,54,0,240
3,note_on,55,32,0
3,note_on,55,0,240
3,note_on,62,0,0
3,note_on,62,38,0
3,note_on,57,40,0
3,note_on,57,0,240
3,note_on,54,33,0
3,note_on,54,0,240
3,note_on,62,0,0
3,note_on,62,38,0
3,note_on,55,39,0
3,note_on,55,0,480
3,note_on,62,0,0
3,note_on,52,49,0
3,note_on,64,49,0
3,note_on,64,0,120
3,note_on,52,0,0
3,note_on,50,44,120
3,note_on,62,44,0
3,note_on,62,0,120
3,note_on,50,0,0
3,note_on,60,51,120
3,note_on,48,51,0
3,note_on,48,0,120
3,note_on,60,0,0
3,note_on,59,37,240
3,note_on,59,0,120
3,note_on,62,38,0
3,note_on,54,40,0
3,note_on,54,0,240
3,note_on,55,35,0
3,note_on,55,0,240
3,note_on,62,0,0
3,note_on,62,38,0
3,note_on,50,39,0
3,note_on,50,0,480
3,note_on,62,0,0
3,note_on,62,39,0
3,note_on,55,39,0
3,note_on,55,0,240
3,note_on,57,35,0
3,note_on,57,0,120
3,note_on,55,30,0
3,note_on,55,0,120
3,note_on,62,0,0
3,note_on,62,30,0
3,note_on,54,36,0
3,note_on,54,0,240
3,note_on,62,0,0
3,note_on,62,30,0
3,note_on,55,32,0
3,note_on,55,0,240
3,note_on,62,0,0
3,note_on,62,38,0
3,note_on,57,40,0
3,note_on,57,0,240
3,note_on,62,0,0
3,note_on,62,30,0
3,note_on,54,33,0
3,note_on,54,0,240
3,note_on,62,0,0
3,note_on,62,38,0
3,note_on,55,39,0
3,note_on,55,0,480
3,note_on,62,0,0
3,note_on,52,49,0
3,note_on,64,49,0
3,note_on,64,0,120
3,note_on,52,0,0
3,note_on,50,44,120
3,note_on,62,44,0
3,note_on,62,0,120
3,note_on,50,0,0
3,note_on,60,51,120
3,note_on,48,51,0
3,note_on,48,0,240
3,note_on,60,0,0
3,note_on,64,37,120
3,note_on,60,37,0
3,note_on,60,0,120
3,note_on,64,0,0
3,note_on,62,40,0
3,note_on,67,40,0
3,note_on,67,0,240
3,note_on,66,35,0
3,note_on,66,0,220
3,note_on,62,0,0
3,note_on,55,39,0
3,note_on,59,28,85
3,note_on,59,0,120
3,note_on,62,32,0
3,note_on,62,0,120
3,note_on,59,27,0
3,note_on,59,0,120
3,note_on,55,0,0
3,note_on,48,39,0
3,note_on,52,27,7
3,note_on,52,0,120
3,note_on,57,32,0
3,note_on,57,0,120
3,note_on,52,28,0
3,note_on,52,0,120
3,note_on,48,0,0
3,note_on,50,39,0
3,note_on,60,29,35
3,note_on,60,0,120
3,note_on,57,32,0
3,note_on,57,0,120
3,note_on,60,29,0
3,note_on,60,0,120
3,note_on,50,0,0
3,note_on,55,39,0
3,note_on,59,29,72
3,note_on,59,0,120
3,note_on,62,32,0
3,note_on,62,0,120
3,note_on,59,29,0
3,note_on,59,0,120
3,note_on,55,0,0
3,note_on,52,39,0
3,note_on,55,29,57
3,note_on,55,0,120
3,note_on,59,32,0
3,note_on,59,0,120
3,note_on,55,30,0
3,note_on,55,0,120
3,note_on,52,0,0
3,note_on,48,39,0
3,note_on,52,29,72
3,note_on,52,0,120
3,note_on,57,32,0
3,note_on,57,0,120
3,note_on,52,29,0
3,note_on,52,0,120
3,note_on,48,0,0
3,note_on,50,39,0
3,note_on,60,30,63
3,note_on,60,0,120
3,note_on,57,32,0
3,note_on,57,0,120
3,note_on,60,29,0
3,note_on,60,0,120
3,note_on,50,0,0
3,note_on,43,45,0
3,note_on,55,37,118
3,note_on,55,0,120
3,note_on,59,37,0
3,note_on,59,0,120
3,note_on,62,37,0
3,note_on,62,0,120
3,note_on,43,0,0
3,note_on,40,49,0
3,note_on,52,39,108
3,note_on,52,0,113
3,note_on,55,39,0
3,note_on,55,0,120
3,note_on,59,39,0
3,note_on,59,0,120
3,note_on,40,0,0
3,note_on,36,48,0
3,note_on,48,38,14
3,note_on,48,0,120
3,note_on,52,38,0
3,note_on,52,0,120
3,note_on,57,38,0
3,note_on,57,0,120
3,note_on,36,0,0
3,note_on,38,50,0
3,note_on,50,42,35
3,note_on,50,0,120
3,note_on,57,42,0
3,note_on,57,0,120
3,note_on,60,42,0
3,note_on,60,0,120
3,note_on,38,0,0
3,note_on,35,56,0
3,note_on,47,42,49
3,note_on,47,0,120
3,note_on,50,46,0
3,note_on,50,0,120
3,note_on,55,42,0
3,note_on,55,0,120
3,note_on,35,0,0
3,note_on,40,52,0
3,note_on,52,41,21
3,note_on,52,0,120
3,note_on,55,41,0
3,note_on,55,0,120
3,note_on,59,41,0
3,note_on,59,0,120
3,note_on,40,0,0
3,note_on,36,48,0
3,note_on,48,38,42
3,note_on,48,0,120
3,note_on,52,38,0
3,note_on,52,0,120
3,note_on,57,38,0
3,note_on,57,0,120
3,note_on,36,0,0
3,note_on,38,50,0
3,note_on,50,38,35
3,note_on,50,0,120
3,note_on,57,42,0
3,note_on,57,0,120
3,note_on,60,37,0
3,note_on,60,0,120
3,note_on,38,0,0
3,note_on,55,52,0
3,note_on,55,0,31
3,note_on,62,34,0
3,note_on,59,28,0
3,note_on,59,0,114
3,note_on,62,0,0
3,note_on,62,34,6
3,note_on,59,28,0
3,note_on,59,0,114
3,note_on,62,0,0
3,note_on,62,34,6
3,note_on,59,28,0
3,note_on,59,0,114
3,note_on,62,0,0
3,note_on,50,36,6
3,note_on,50,0,57
3,note_on,62,30,0
3,note_on,60,25,0
3,note_on,60,0,114
3,note_on,62,0,0
3,note_on,62,30,6
3,note_on,60,25,0
3,note_on,60,0,114
3,note_on,62,0,0
3,note_on,62,30,6
3,note_on,60,25,0
3,note_on,60,0,114
3,note_on,62,0,0
3,note_on,55,37,6
3,note_on,55,0,50
3,note_on,62,29,0
3,note_on,59,24,0
3,note_on,59,0,114
3,note_on,62,0,0
3,note_on,62,29,6
3,note_on,59,24,0
3,note_on,59,0,114
3,note_on,62,0,0
3,note_on,62,29,6
3,note_on,59,24,0
3,note_on,59,0,114
3,note_on,62,0,0
3,note_on,50,36,6
3,note_on,50,0,50
3,note_on,62,30,0
3,note_on,60,25,0
3,note_on,60,0,114
3,note_on,62,0,0
3,note_on,62,30,6
3,note_on,60,25,0
3,note_on,60,0,114
3,note_on,62,0,0
3,note_on,62,30,6
3,note_on,60,25,0
3,note_on,60,0,114
3,note_on,62,0,0
3,note_on,62,33,6
3,note_on,59,28,0
3,note_on,55,28,0
3,note_on,55,0,169
3,note_on,59,0,0
3,note_on,62,0,0
3,note_on,50,28,0
3,note_on,54,28,0
3,note_on,60,34,0
3,note_on,60,0,223
3,note_on,54,0,0
3,note_on,50,0,0
3,note_on,59,29,0
3,note_on,55,24,0
3,note_on,55,0,141
3,note_on,59,0,0
3,note_on,50,24,0
3,note_on,54,24,0
3,note_on,60,29,0
3,note_on,60,0,235
3,note_on,54,0,0
3,note_on,50,0,0
3,note_on,55,23,0
3,note_on,59,28,0
3,note_on,59,0,564
3,note_on,55,0,0
