Track,Message Type,Note,Velocity,Time
1,note_on,70,59,1
1,note_on,67,59,0
1,note_on,68,55,479
1,note_on,65,55,0
1,note_on,67,0,1
1,note_on,70,0,0
1,note_on,63,53,239
1,note_on,67,53,0
1,note_on,68,0,20
1,note_on,65,0,0
1,note_on,68,54,220
1,note_on,72,54,0
1,note_on,63,0,20
1,note_on,67,0,0
1,note_on,67,52,220
1,note_on,70,52,0
1,note_on,68,0,20
1,note_on,72,0,0
1,note_on,67,0,200
1,note_on,70,0,0
1,note_on,70,59,20
1,note_on,67,59,0
1,note_on,67,0,480
1,note_on,70,0,0
1,note_on,65,53,0
1,note_on,68,53,0
1,note_on,68,0,480
1,note_on,65,0,0
1,note_on,63,51,0
1,note_on,67,51,0
1,note_on,67,0,480
1,note_on,63,0,0
1,note_on,64,65,0
1,note_on,64,0,480
1,note_on,65,55,0
1,note_on,65,0,240
1,note_on,72,55,0
1,note_on,72,0,240
1,note_on,70,53,0
1,note_on,70,0,120
1,note_on,68,51,0
1,note_on,68,0,120
1,note_on,67,53,0
1,note_on,67,0,120
1,note_on,65,52,0
1,note_on,65,0,120
1,note_on,55,59,0
1,note_on,63,59,0
1,note_on,63,0,480
1,note_on,55,0,0
1,note_on,53,53,0
1,note_on,62,53,0
1,note_on,62,0,120
1,note_on,53,0,0
1,note_on,58,47,60
1,note_on,58,0,60
1,note_on,62,51,0
1,note_on,62,0,60
1,note_on,60,49,0
1,note_on,60,0,60
1,note_on,63,52,0
1,note_on,63,0,60
1,note_on,62,51,0
1,note_on,62,0,60
1,note_on,65,53,0
1,note_on,65,0,60
1,note_on,63,51,0
1,note_on,63,0,60
1,note_on,67,54,0
1,note_on,67,0,60
1,note_on,65,54,0
1,note_on,65,0,60
1,note_on,68,57,0
1,note_on,68,0,60
1,note_on,67,54,0
1,note_on,67,0,60
1,note_on,70,59,0
1,note_on,70,0,60
1,note_on,68,56,0
1,note_on,68,0,60
1,note_on,72,60,0
1,note_on,72,0,60
1,note_on,67,61,0
1,note_on,70,61,0
1,note_on,70,0,300
1,note_on,72,53,0
1,note_on,72,0,60
1,note_on,70,50,0
1,note_on,70,0,60
1,note_on,67,0,0
1,note_on,68,53,0
1,note_on,68,0,120
1,note_on,67,51,0
1,note_on,67,0,120
1,note_on,65,53,0
1,note_on,65,0,120
1,note_on,63,52,0
1,note_on,63,0,120
1,note_on,79,62,0
1,note_on,79,0,120
1,note_on,74,54,0
1,note_on,74,0,120
1,note_on,75,58,0
1,note_on,75,0,120
1,note_on,72,52,0
1,note_on,72,0,120
1,note_on,70,56,0
1,note_on,70,0,480
1,note_on,68,50,0
1,note_on,68,0,52
1,note_on,70,48,0
1,note_on,70,0,51
1,note_on,68,50,0
1,note_on,68,0,52
1,note_on,70,48,0
1,note_on,70,0,52
1,note_on,68,50,0
1,note_on,68,0,51
1,note_on,70,49,0
1,note_on,70,0,52
1,note_on,68,49,0
1,note_on,67,57,50
1,note_on,68,0,1
1,note_on,67,0,59
1,note_on,68,55,0
1,note_on,68,0,60
1,note_on,67,60,0
1,note_on,67,0,60
1,note_on,75,65,60
1,note_on,75,0,120
1,note_on,74,62,0
1,note_on,74,0,120
1,note_on,73,59,0
1,note_on,73,0,120
1,note_on,71,57,0
1,note_on,74,53,90
1,note_on,74,0,30
1,note_on,71,0,0
1,note_on,72,61,0
1,note_on,70,53,90
1,note_on,70,0,30
1,note_on,72,0,0
1,note_on,68,57,0
1,note_on,67,47,90
1,note_on,67,0,30
1,note_on,68,0,0
1,note_on,65,55,0
1,note_on,65,0,120
1,note_on,63,51,0
1,note_on,63,0,720
1,note_on,67,50,0
1,note_on,62,50,0
1,note_on,67,0,120
1,note_on,65,47,0
1,note_on,65,0,120
1,note_on,62,0,0
1,note_on,63,46,0
1,note_on,63,0,480
1,note_on,67,49,240
1,note_on,70,49,0
1,note_on,70,0,240
1,note_on,67,0,0
1,note_on,67,52,0
1,note_on,70,52,0
1,note_on,70,0,240
1,note_on,67,0,0
1,note_on,67,46,0
1,note_on,70,46,0
1,note_on,70,0,240
1,note_on,67,0,0
1,note_on,68,57,0
1,note_on,75,57,0
1,note_on,75,0,240
1,note_on,74,50,0
1,note_on,74,0,480
1,note_on,68,0,0
1,note_on,82,54,0
1,note_on,80,51,120
1,note_on,82,0,24
1,note_on,80,0,96
1,note_on,79,54,0
1,note_on,77,52,120
1,note_on,79,0,24
1,note_on,75,52,96
1,note_on,77,0,24
1,note_on,74,49,96
1,note_on,75,0,24
1,note_on,74,0,96
1,note_on,77,54,0
1,note_on,77,0,40
1,note_on,75,52,0
1,note_on,75,0,320
1,note_on,74,45,0
1,note_on,74,0,60
1,note_on,72,44,0
1,note_on,72,0,60
1,note_on,70,45,0
1,note_on,70,0,240
1,note_on,67,45,0
1,note_on,70,45,0
1,note_on,70,0,240
1,note_on,67,0,0
1,note_on,67,50,0
1,note_on,70,50,0
1,note_on,70,0,240
1,note_on,67,0,0
1,note_on,70,45,0
1,note_on,67,45,0
1,note_on,67,0,240
1,note_on,70,0,0
1,note_on,68,56,0
1,note_on,75,56,0
1,note_on,75,0,240
1,note_on,74,46,0
1,note_on,74,0,480
1,note_on,68,0,0
1,note_on,82,53,0
1,note_on,80,50,120
1,note_on,82,0,24
1,note_on,80,0,96
1,note_on,79,53,0
1,note_on,77,50,120
1,note_on,79,0,24
1,note_on,75,52,96
1,note_on,77,0,24
1,note_on,74,50,96
1,note_on,75,0,24
1,note_on,74,0,96
1,note_on,75,53,0
1,note_on,75,0,120
1,note_on,77,43,0
1,note_on,77,0,40
1,note_on,75,43,0
1,note_on,75,0,40
1,note_on,74,43,0
1,note_on,74,0,40
1,note_on,75,43,0
1,note_on,75,0,60
1,note_on,77,44,0
1,note_on,77,0,60
1,note_on,79,45,0
1,note_on,79,0,60
1,note_on,75,44,0
1,note_on,75,0,60
1,note_on,70,43,0
1,note_on,70,0,120
1,note_on,70,48,120
1,note_on,67,48,0
1,note_on,67,0,240
1,note_on,70,0,0
1,note_on,65,45,0
1,note_on,68,45,0
1,note_on,68,0,240
1,note_on,65,0,0
1,note_on,63,49,0
1,note_on,67,49,0
1,note_on,67,0,240
1,note_on,63,0,0
1,note_on,63,53,0
1,note_on,70,53,0
1,note_on,70,0,360
1,note_on,67,39,0
1,note_on,67,0,120
1,note_on,63,0,0
1,note_on,62,35,0
1,note_on,65,35,0
1,note_on,65,0,480
1,note_on,62,0,0
1,note_on,65,67,420
1,note_on,65,0,60
1,note_on,77,72,0
1,note_on,77,0,720
1,note_on,75,70,0
1,note_on,75,0,60
1,note_on,74,62,0
1,note_on,74,0,60
1,note_on,72,65,0
1,note_on,72,0,60
1,note_on,70,63,0
1,note_on,70,0,60
1,note_on,69,71,0
1,note_on,69,0,240
1,note_on,70,70,0
1,note_on,70,0,240
1,note_on,72,67,0
1,note_on,69,67,0
1,note_on,69,0,240
1,note_on,72,0,0
1,note_on,75,65,0
1,note_on,70,65,0
1,note_on,75,0,60
1,note_on,74,62,0
1,note_on,74,0,60
1,note_on,72,65,0
1,note_on,72,0,60
1,note_on,74,61,0
1,note_on,74,0,60
1,note_on,70,0,0
1,note_on,72,65,0
1,note_on,75,65,0
1,note_on,75,0,240
1,note_on,72,0,0
1,note_on,65,49,0
1,note_on,65,0,240
1,note_on,65,53,0
1,note_on,65,0,240
1,note_on,65,50,0
1,note_on,65,0,240
1,note_on,75,72,0
1,note_on,75,0,720
1,note_on,77,69,0
1,note_on,77,0,60
1,note_on,75,63,0
1,note_on,75,0,60
1,note_on,74,69,0
1,note_on,74,0,60
1,note_on,72,63,0
1,note_on,72,0,60
1,note_on,70,73,0
1,note_on,70,0,240
1,note_on,69,70,0
1,note_on,72,70,0
1,note_on,72,0,240
1,note_on,69,0,0
1,note_on,74,71,0
1,note_on,70,71,0
1,note_on,70,0,240
1,note_on,74,0,0
1,note_on,77,67,0
1,note_on,72,67,0
1,note_on,77,0,60
1,note_on,75,67,0
1,note_on,75,0,60
1,note_on,74,67,0
1,note_on,74,0,60
1,note_on,75,64,0
1,note_on,75,0,60
1,note_on,72,0,0
1,note_on,74,72,0
1,note_on,77,72,0
1,note_on,77,0,120
1,note_on,74,0,0
1,note_on,80,76,840
1,note_on,80,0,720
1,note_on,79,67,0
1,note_on,79,0,60
1,note_on,77,63,0
1,note_on,77,0,60
1,note_on,75,67,0
1,note_on,75,0,60
1,note_on,74,64,0
1,note_on,74,0,60
1,note_on,75,72,0
1,note_on,75,0,240
1,note_on,77,74,0
1,note_on,77,0,120
1,note_on,78,80,120
1,note_on,78,0,720
1,note_on,80,72,0
1,note_on,80,0,120
1,note_on,79,69,0
1,note_on,79,0,120
1,note_on,77,70,0
1,note_on,77,0,120
1,note_on,75,67,0
1,note_on,75,0,120
1,note_on,74,67,0
1,note_on,74,0,120
1,note_on,72,64,0
1,note_on,72,0,120
1,note_on,77,75,0
1,note_on,77,0,80
1,note_on,76,71,0
1,note_on,76,0,80
1,note_on,77,73,0
1,note_on,77,0,80
1,note_on,79,75,0
1,note_on,79,0,80
1,note_on,67,67,0
1,note_on,67,0,80
1,note_on,75,69,0
1,note_on,75,0,80
1,note_on,70,75,0
1,note_on,70,0,480
1,note_on,69,62,0
1,note_on,74,68,0
1,note_on,74,0,120
1,note_on,72,60,0
1,note_on,72,0,120
1,note_on,70,66,0
1,note_on,70,0,120
1,note_on,72,59,0
1,note_on,72,0,120
1,note_on,69,0,0
1,note_on,70,60,0
1,note_on,70,0,480
1,note_on,70,75,240
1,note_on,77,75,0
1,note_on,77,0,240
1,note_on,70,0,0
1,note_on,77,59,0
1,note_on,72,80,0
1,note_on,72,0,240
1,note_on,77,0,0
1,note_on,74,76,0
1,note_on,77,76,0
1,note_on,77,0,240
1,note_on,74,0,0
1,note_on,77,80,0
1,note_on,75,63,0
1,note_on,77,0,300
1,note_on,79,69,0
1,note_on,79,0,60
1,note_on,77,67,0
1,note_on,77,0,60
1,note_on,76,70,0
1,note_on,76,0,60
1,note_on,77,76,0
1,note_on,77,0,120
1,note_on,75,0,120
1,note_on,69,75,0
1,note_on,77,75,0
1,note_on,77,0,240
1,note_on,69,0,0
1,note_on,70,76,0
1,note_on,79,76,0
1,note_on,79,0,240
1,note_on,70,0,0
1,note_on,72,75,0
1,note_on,81,75,0
1,note_on,81,0,240
1,note_on,72,0,0
1,note_on,82,86,0
1,note_on,70,86,0
1,note_on,82,0,300
1,note_on,84,75,0
1,note_on,84,0,60
1,note_on,86,76,0
1,note_on,86,0,60
1,note_on,82,72,0
1,note_on,82,0,60
1,note_on,77,78,0
1,note_on,77,0,120
1,note_on,70,0,120
1,note_on,74,54,0
1,note_on,77,54,0
1,note_on,77,0,240
1,note_on,74,0,0
1,note_on,72,54,0
1,note_on,75,54,0
1,note_on,75,0,240
1,note_on,72,0,0
1,note_on,70,54,0
1,note_on,74,54,0
1,note_on,74,0,240
1,note_on,70,0,0
1,note_on,72,57,0
1,note_on,72,0,300
1,note_on,74,52,0
1,note_on,74,0,60
1,note_on,75,54,0
1,note_on,75,0,60
1,note_on,72,52,0
1,note_on,72,0,60
1,note_on,79,59,0
1,note_on,79,0,120
1,note_on,67,49,120
1,note_on,75,49,0
1,note_on,75,0,240
1,note_on,67,0,0
1,note_on,65,52,0
1,note_on,70,52,0
1,note_on,70,0,240
1,note_on,65,0,0
1,note_on,69,49,0
1,note_on,72,49,0
1,note_on,72,0,240
1,note_on,69,0,0
1,note_on,72,54,0
1,note_on,69,54,0
1,note_on,72,0,360
1,note_on,73,50,0
1,note_on,73,0,120
1,note_on,69,0,0
1,note_on,70,45,0
1,note_on,74,45,0
1,note_on,74,0,240
1,note_on,70,0,0
1,note_on,70,74,0
1,note_on,77,74,0
1,note_on,77,0,240
1,note_on,70,0,0
1,note_on,72,80,0
1,note_on,77,59,0
1,note_on,77,0,240
1,note_on,72,0,0
1,note_on,77,75,0
1,note_on,74,75,0
1,note_on,74,0,240
1,note_on,77,0,0
1,note_on,75,83,0
1,note_on,77,83,0
1,note_on,77,0,300
1,note_on,79,69,0
1,note_on,79,0,60
1,note_on,77,71,0
1,note_on,77,0,60
1,note_on,76,67,0
1,note_on,76,0,60
1,note_on,77,77,0
1,note_on,77,0,120
1,note_on,75,0,120
1,note_on,69,76,0
1,note_on,77,76,0
1,note_on,77,0,240
1,note_on,69,0,0
1,note_on,79,81,0
1,note_on,70,81,0
1,note_on,70,0,240
1,note_on,79,0,0
1,note_on,72,76,0
1,note_on,81,76,0
1,note_on,81,0,240
1,note_on,72,0,0
1,note_on,82,86,0
1,note_on,70,86,0
1,note_on,82,0,300
1,note_on,84,67,0
1,note_on,84,0,60
1,note_on,86,70,0
1,note_on,86,0,60
1,note_on,82,66,0
1,note_on,82,0,60
1,note_on,77,63,0
1,note_on,77,0,120
1,note_on,70,0,120
1,note_on,74,54,0
1,note_on,77,54,0
1,note_on,77,0,240
1,note_on,74,0,0
1,note_on,72,54,0
1,note_on,75,54,0
1,note_on,75,0,240
1,note_on,72,0,0
1,note_on,70,54,0
1,note_on,74,54,0
1,note_on,74,0,240
1,note_on,70,0,0
1,note_on,71,45,0
1,note_on,71,0,60
1,note_on,72,45,0
1,note_on,72,0,60
1,note_on,74,46,0
1,note_on,74,0,60
1,note_on,72,45,0
1,note_on,72,0,60
1,note_on,75,50,0
1,note_on,75,0,60
1,note_on,74,47,0
1,note_on,74,0,60
1,note_on,77,52,0
1,note_on,77,0,60
1,note_on,75,50,0
1,note_on,75,0,60
1,note_on,79,60,0
1,note_on,79,0,480
1,note_on,77,54,0
1,note_on,77,0,240
1,note_on,69,50,180
1,note_on,69,0,60
1,note_on,70,51,0
1,note_on,70,0,480
1,note_on,80,66,240
1,note_on,80,0,240
1,note_on,79,70,0
1,note_on,79,0,240
1,note_on,81,73,0
1,note_on,81,0,240
1,note_on,84,76,0
1,note_on,84,0,240
1,note_on,82,71,0
1,note_on,82,0,240
1,note_on,68,69,240
1,note_on,68,0,240
1,note_on,67,69,0
1,note_on,67,0,240
1,note_on,63,63,0
1,note_on,69,63,0
1,note_on,69,0,240
1,note_on,63,0,0
1,note_on,72,54,0
1,note_on,63,54,0
1,note_on,63,0,480
1,note_on,72,0,0
1,note_on,70,42,0
1,note_on,62,42,0
1,note_on,62,0,240
1,note_on,70,0,0
1,note_on,62,47,0
1,note_on,65,47,0
1,note_on,65,0,240
1,note_on,62,0,0
1,note_on,63,52,0
1,note_on,67,52,0
1,note_on,67,0,240
1,note_on,63,0,0
1,note_on,65,55,0
1,note_on,68,55,0
1,note_on,68,0,240
1,note_on,65,0,0
1,note_on,70,59,1
1,note_on,67,59,0
1,note_on,68,55,479
1,note_on,65,55,0
1,note_on,67,0,1
1,note_on,70,0,0
1,note_on,63,53,239
1,note_on,67,53,0
1,note_on,68,0,20
1,note_on,65,0,0
1,note_on,68,54,220
1,note_on,72,54,0
1,note_on,63,0,20
1,note_on,67,0,0
1,note_on,67,52,220
1,note_on,70,52,0
1,note_on,68,0,20
1,note_on,72,0,0
1,note_on,67,0,200
1,note_on,70,0,0
1,note_on,70,59,20
1,note_on,67,59,0
1,note_on,67,0,480
1,note_on,70,0,0
1,note_on,65,53,0
1,note_on,68,53,0
1,note_on,68,0,480
1,note_on,65,0,0
1,note_on,63,51,0
1,note_on,67,51,0
1,note_on,67,0,480
1,note_on,63,0,0
1,note_on,64,65,0
1,note_on,64,0,480
1,note_on,65,55,0
1,note_on,65,0,240
1,note_on,72,55,0
1,note_on,72,0,240
1,note_on,70,53,0
1,note_on,70,0,120
1,note_on,68,51,0
1,note_on,68,0,120
1,note_on,67,53,0
1,note_on,67,0,120
1,note_on,65,52,0
1,note_on,65,0,120
1,note_on,55,59,0
1,note_on,63,59,0
1,note_on,63,0,480
1,note_on,55,0,0
1,note_on,53,53,0
1,note_on,62,53,0
1,note_on,62,0,120
1,note_on,53,0,0
1,note_on,58,47,60
1,note_on,58,0,60
1,note_on,62,51,0
1,note_on,62,0,60
1,note_on,60,49,0
1,note_on,60,0,60
1,note_on,63,52,0
1,note_on,63,0,60
1,note_on,62,51,0
1,note_on,62,0,60
1,note_on,65,53,0
1,note_on,65,0,60
1,note_on,63,51,0
1,note_on,63,0,60
1,note_on,67,54,0
1,note_on,67,0,60
1,note_on,65,54,0
1,note_on,65,0,60
1,note_on,68,57,0
1,note_on,68,0,60
1,note_on,67,54,0
1,note_on,67,0,60
1,note_on,70,59,0
1,note_on,70,0,60
1,note_on,68,56,0
1,note_on,68,0,60
1,note_on,72,60,0
1,note_on,72,0,60
1,note_on,67,61,0
1,note_on,70,61,0
1,note_on,70,0,300
1,note_on,72,53,0
1,note_on,72,0,60
1,note_on,70,50,0
1,note_on,70,0,60
1,note_on,67,0,0
1,note_on,68,53,0
1,note_on,68,0,120
1,note_on,67,51,0
1,note_on,67,0,120
1,note_on,65,53,0
1,note_on,65,0,120
1,note_on,63,52,0
1,note_on,63,0,120
1,note_on,79,62,0
1,note_on,79,0,120
1,note_on,74,54,0
1,note_on,74,0,120
1,note_on,75,58,0
1,note_on,75,0,120
1,note_on,72,52,0
1,note_on,72,0,120
1,note_on,70,56,0
1,note_on,70,0,480
1,note_on,68,50,0
1,note_on,68,0,52
1,note_on,70,48,0
1,note_on,70,0,51
1,note_on,68,50,0
1,note_on,68,0,52
1,note_on,70,48,0
1,note_on,70,0,52
1,note_on,68,50,0
1,note_on,68,0,51
1,note_on,70,49,0
1,note_on,70,0,52
1,note_on,68,49,0
1,note_on,67,57,50
1,note_on,68,0,1
1,note_on,67,0,59
1,note_on,68,55,0
1,note_on,68,0,60
1,note_on,67,60,0
1,note_on,67,0,60
1,note_on,75,65,60
1,note_on,75,0,120
1,note_on,74,62,0
1,note_on,74,0,120
1,note_on,73,59,0
1,note_on,73,0,120
1,note_on,71,57,0
1,note_on,74,53,90
1,note_on,74,0,30
1,note_on,71,0,0
1,note_on,72,61,0
1,note_on,70,53,90
1,note_on,70,0,30
1,note_on,72,0,0
1,note_on,68,57,0
1,note_on,67,47,90
1,note_on,67,0,30
1,note_on,68,0,0
1,note_on,65,55,0
1,note_on,65,0,120
1,note_on,63,51,0
1,note_on,63,0,720
1,note_on,67,50,0
1,note_on,62,50,0
1,note_on,67,0,120
1,note_on,65,47,0
1,note_on,65,0,120
1,note_on,62,0,0
1,note_on,63,46,0
1,note_on,63,0,480
1,note_on,67,49,240
1,note_on,70,49,0
1,note_on,70,0,240
1,note_on,67,0,0
1,note_on,67,52,0
1,note_on,70,52,0
1,note_on,70,0,240
1,note_on,67,0,0
1,note_on,67,46,0
1,note_on,70,46,0
1,note_on,70,0,240
1,note_on,67,0,0
1,note_on,68,57,0
1,note_on,75,57,0
1,note_on,75,0,240
1,note_on,74,50,0
1,note_on,74,0,480
1,note_on,68,0,0
1,note_on,82,54,0
1,note_on,80,51,120
1,note_on,82,0,24
1,note_on,80,0,96
1,note_on,79,54,0
1,note_on,77,52,120
1,note_on,79,0,24
1,note_on,75,52,96
1,note_on,77,0,24
1,note_on,74,49,96
1,note_on,75,0,24
1,note_on,74,0,96
1,note_on,77,54,0
1,note_on,77,0,40
1,note_on,75,52,0
1,note_on,75,0,320
1,note_on,74,45,0
1,note_on,74,0,60
1,note_on,72,44,0
1,note_on,72,0,60
1,note_on,70,45,0
1,note_on,70,0,240
1,note_on,67,45,0
1,note_on,70,45,0
1,note_on,70,0,240
1,note_on,67,0,0
1,note_on,67,50,0
1,note_on,70,50,0
1,note_on,70,0,240
1,note_on,67,0,0
1,note_on,70,45,0
1,note_on,67,45,0
1,note_on,67,0,240
1,note_on,70,0,0
1,note_on,68,56,0
1,note_on,75,56,0
1,note_on,75,0,240
1,note_on,74,46,0
1,note_on,74,0,480
1,note_on,68,0,0
1,note_on,82,53,0
1,note_on,80,50,120
1,note_on,82,0,24
1,note_on,80,0,96
1,note_on,79,53,0
1,note_on,77,50,120
1,note_on,79,0,24
1,note_on,75,52,96
1,note_on,77,0,24
1,note_on,74,50,96
1,note_on,75,0,24
1,note_on,74,0,96
1,note_on,75,53,0
1,note_on,75,0,120
1,note_on,77,43,0
1,note_on,77,0,40
1,note_on,75,43,0
1,note_on,75,0,40
1,note_on,74,43,0
1,note_on,74,0,40
1,note_on,75,43,0
1,note_on,75,0,60
1,note_on,77,44,0
1,note_on,77,0,60
1,note_on,79,45,0
1,note_on,79,0,60
1,note_on,75,44,0
1,note_on,75,0,60
1,note_on,70,43,0
1,note_on,70,0,120
1,note_on,70,48,120
1,note_on,67,48,0
1,note_on,67,0,240
1,note_on,70,0,0
1,note_on,65,45,0
1,note_on,68,45,0
1,note_on,68,0,240
1,note_on,65,0,0
1,note_on,63,49,0
1,note_on,67,49,0
1,note_on,67,0,240
1,note_on,63,0,0
1,note_on,63,53,0
1,note_on,70,53,0
1,note_on,70,0,360
1,note_on,67,39,0
1,note_on,67,0,120
1,note_on,63,0,0
1,note_on,62,35,0
1,note_on,65,35,0
1,note_on,65,0,480
1,note_on,62,0,0
1,note_on,65,67,420
1,note_on,65,0,60
1,note_on,77,72,0
1,note_on,77,0,720
1,note_on,75,70,0
1,note_on,75,0,60
1,note_on,74,62,0
1,note_on,74,0,60
1,note_on,72,65,0
1,note_on,72,0,60
1,note_on,70,63,0
1,note_on,70,0,60
1,note_on,69,71,0
1,note_on,69,0,240
1,note_on,70,70,0
1,note_on,70,0,240
1,note_on,72,67,0
1,note_on,69,67,0
1,note_on,69,0,240
1,note_on,72,0,0
1,note_on,75,65,0
1,note_on,70,65,0
1,note_on,75,0,60
1,note_on,74,62,0
1,note_on,74,0,60
1,note_on,72,65,0
1,note_on,72,0,60
1,note_on,74,61,0
1,note_on,74,0,60
1,note_on,70,0,0
1,note_on,72,65,0
1,note_on,75,65,0
1,note_on,75,0,240
1,note_on,72,0,0
1,note_on,65,49,0
1,note_on,65,0,240
1,note_on,65,53,0
1,note_on,65,0,240
1,note_on,65,50,0
1,note_on,65,0,240
1,note_on,75,72,0
1,note_on,75,0,720
1,note_on,77,69,0
1,note_on,77,0,60
1,note_on,75,63,0
1,note_on,75,0,60
1,note_on,74,69,0
1,note_on,74,0,60
1,note_on,72,63,0
1,note_on,72,0,60
1,note_on,70,73,0
1,note_on,70,0,240
1,note_on,69,70,0
1,note_on,72,70,0
1,note_on,72,0,240
1,note_on,69,0,0
1,note_on,74,71,0
1,note_on,70,71,0
1,note_on,70,0,240
1,note_on,74,0,0
1,note_on,77,67,0
1,note_on,72,67,0
1,note_on,77,0,60
1,note_on,75,67,0
1,note_on,75,0,60
1,note_on,74,67,0
1,note_on,74,0,60
1,note_on,75,64,0
1,note_on,75,0,60
1,note_on,72,0,0
1,note_on,74,72,0
1,note_on,77,72,0
1,note_on,77,0,120
1,note_on,74,0,0
1,note_on,80,76,840
1,note_on,80,0,720
1,note_on,79,67,0
1,note_on,79,0,60
1,note_on,77,63,0
1,note_on,77,0,60
1,note_on,75,67,0
1,note_on,75,0,60
1,note_on,74,64,0
1,note_on,74,0,60
1,note_on,75,72,0
1,note_on,75,0,240
1,note_on,77,74,0
1,note_on,77,0,120
1,note_on,78,80,120
1,note_on,78,0,720
1,note_on,80,72,0
1,note_on,80,0,120
1,note_on,79,69,0
1,note_on,79,0,120
1,note_on,77,70,0
1,note_on,77,0,120
1,note_on,75,67,0
1,note_on,75,0,120
1,note_on,74,67,0
1,note_on,74,0,120
1,note_on,72,64,0
1,note_on,72,0,120
1,note_on,77,75,0
1,note_on,77,0,80
1,note_on,76,71,0
1,note_on,76,0,80
1,note_on,77,73,0
1,note_on,77,0,80
1,note_on,79,75,0
1,note_on,79,0,80
1,note_on,67,67,0
1,note_on,67,0,80
1,note_on,75,69,0
1,note_on,75,0,80
1,note_on,70,75,0
1,note_on,70,0,480
1,note_on,69,62,0
1,note_on,74,68,0
1,note_on,74,0,120
1,note_on,72,60,0
1,note_on,72,0,120
1,note_on,70,66,0
1,note_on,70,0,120
1,note_on,72,59,0
1,note_on,72,0,120
1,note_on,69,0,0
1,note_on,70,60,0
1,note_on,70,0,480
1,note_on,70,75,240
1,note_on,77,75,0
1,note_on,77,0,240
1,note_on,70,0,0
1,note_on,77,59,0
1,note_on,72,80,0
1,note_on,72,0,240
1,note_on,77,0,0
1,note_on,74,76,0
1,note_on,77,76,0
1,note_on,77,0,240
1,note_on,74,0,0
1,note_on,77,80,0
1,note_on,75,63,0
1,note_on,77,0,300
1,note_on,79,69,0
1,note_on,79,0,60
1,note_on,77,67,0
1,note_on,77,0,60
1,note_on,76,70,0
1,note_on,76,0,60
1,note_on,77,76,0
1,note_on,77,0,120
1,note_on,75,0,120
1,note_on,69,75,0
1,note_on,77,75,0
1,note_on,77,0,240
1,note_on,69,0,0
1,note_on,70,76,0
1,note_on,79,76,0
1,note_on,79,0,240
1,note_on,70,0,0
1,note_on,72,75,0
1,note_on,81,75,0
1,note_on,81,0,240
1,note_on,72,0,0
1,note_on,82,86,0
1,note_on,70,86,0
1,note_on,82,0,300
1,note_on,84,75,0
1,note_on,84,0,60
1,note_on,86,76,0
1,note_on,86,0,60
1,note_on,82,72,0
1,note_on,82,0,60
1,note_on,77,78,0
1,note_on,77,0,120
1,note_on,70,0,120
1,note_on,74,54,0
1,note_on,77,54,0
1,note_on,77,0,240
1,note_on,74,0,0
1,note_on,72,54,0
1,note_on,75,54,0
1,note_on,75,0,240
1,note_on,72,0,0
1,note_on,70,54,0
1,note_on,74,54,0
1,note_on,74,0,240
1,note_on,70,0,0
1,note_on,72,57,0
1,note_on,72,0,300
1,note_on,74,52,0
1,note_on,74,0,60
1,note_on,75,54,0
1,note_on,75,0,60
1,note_on,72,52,0
1,note_on,72,0,60
1,note_on,79,59,0
1,note_on,79,0,120
1,note_on,67,49,120
1,note_on,75,49,0
1,note_on,75,0,240
1,note_on,67,0,0
1,note_on,65,52,0
1,note_on,70,52,0
1,note_on,70,0,240
1,note_on,65,0,0
1,note_on,69,49,0
1,note_on,72,49,0
1,note_on,72,0,240
1,note_on,69,0,0
1,note_on,72,54,0
1,note_on,69,54,0
1,note_on,72,0,360
1,note_on,73,50,0
1,note_on,73,0,120
1,note_on,69,0,0
1,note_on,70,45,0
1,note_on,74,45,0
1,note_on,74,0,240
1,note_on,70,0,0
1,note_on,70,74,0
1,note_on,77,74,0
1,note_on,77,0,240
1,note_on,70,0,0
1,note_on,72,80,0
1,note_on,77,59,0
1,note_on,77,0,240
1,note_on,72,0,0
1,note_on,77,75,0
1,note_on,74,75,0
1,note_on,74,0,240
1,note_on,77,0,0
1,note_on,75,83,0
1,note_on,77,83,0
1,note_on,77,0,300
1,note_on,79,69,0
1,note_on,79,0,60
1,note_on,77,71,0
1,note_on,77,0,60
1,note_on,76,67,0
1,note_on,76,0,60
1,note_on,77,77,0
1,note_on,77,0,120
1,note_on,75,0,120
1,note_on,69,76,0
1,note_on,77,76,0
1,note_on,77,0,240
1,note_on,69,0,0
1,note_on,79,81,0
1,note_on,70,81,0
1,note_on,70,0,240
1,note_on,79,0,0
1,note_on,72,76,0
1,note_on,81,76,0
1,note_on,81,0,240
1,note_on,72,0,0
1,note_on,82,86,0
1,note_on,70,86,0
1,note_on,82,0,300
1,note_on,84,67,0
1,note_on,84,0,60
1,note_on,86,70,0
1,note_on,86,0,60
1,note_on,82,66,0
1,note_on,82,0,60
1,note_on,77,63,0
1,note_on,77,0,120
1,note_on,70,0,120
1,note_on,74,54,0
1,note_on,77,54,0
1,note_on,77,0,240
1,note_on,74,0,0
1,note_on,72,54,0
1,note_on,75,54,0
1,note_on,75,0,240
1,note_on,72,0,0
1,note_on,70,54,0
1,note_on,74,54,0
1,note_on,74,0,240
1,note_on,70,0,0
1,note_on,71,45,0
1,note_on,71,0,60
1,note_on,72,45,0
1,note_on,72,0,60
1,note_on,74,46,0
1,note_on,74,0,60
1,note_on,72,45,0
1,note_on,72,0,60
1,note_on,75,50,0
1,note_on,75,0,60
1,note_on,74,47,0
1,note_on,74,0,60
1,note_on,77,52,0
1,note_on,77,0,60
1,note_on,75,50,0
1,note_on,75,0,60
1,note_on,79,60,0
1,note_on,79,0,480
1,note_on,77,54,0
1,note_on,77,0,240
1,note_on,69,50,180
1,note_on,69,0,60
1,note_on,70,51,0
1,note_on,70,0,480
1,note_on,80,66,240
1,note_on,80,0,240
1,note_on,79,70,0
1,note_on,79,0,240
1,note_on,81,73,0
1,note_on,81,0,240
1,note_on,84,76,0
1,note_on,84,0,240
1,note_on,82,71,0
1,note_on,82,0,240
1,note_on,68,69,240
1,note_on,68,0,240
1,note_on,67,69,0
1,note_on,67,0,240
1,note_on,63,63,0
1,note_on,69,63,0
1,note_on,69,0,240
1,note_on,63,0,0
1,note_on,72,54,0
1,note_on,63,54,0
1,note_on,63,0,480
1,note_on,72,0,0
1,note_on,70,42,0
1,note_on,62,42,0
1,note_on,62,0,240
1,note_on,70,0,0
1,note_on,62,47,0
1,note_on,65,47,0
1,note_on,65,0,240
1,note_on,62,0,0
1,note_on,63,52,0
1,note_on,67,52,0
1,note_on,67,0,240
1,note_on,63,0,0
1,note_on,65,55,0
1,note_on,68,55,0
1,note_on,68,0,240
1,note_on,65,0,0
1,note_on,66,67,0
1,note_on,69,67,0
1,note_on,69,0,480
1,note_on,66,0,0
1,note_on,67,62,0
1,note_on,70,62,0
1,note_on,70,0,240
1,note_on,67,0,0
1,note_on,70,54,0
1,note_on,73,54,0
1,note_on,73,0,240
1,note_on,70,0,0
1,note_on,64,56,0
1,note_on,67,56,0
1,note_on,67,0,240
1,note_on,64,0,0
1,note_on,68,51,0
1,note_on,72,51,0
1,note_on,72,0,240
1,note_on,68,0,0
1,note_on,67,55,0
1,note_on,70,55,0
1,note_on,70,0,480
1,note_on,67,0,0
1,note_on,65,52,0
1,note_on,68,52,0
1,note_on,68,0,240
1,note_on,65,0,0
1,note_on,77,54,0
1,note_on,77,0,216
1,note_on,77,54,24
1,note_on,77,0,216
1,note_on,77,54,24
1,note_on,77,0,216
1,note_on,78,62,24
1,note_on,78,0,480
1,note_on,79,56,0
1,note_on,79,0,240
1,note_on,82,63,0
1,note_on,82,0,480
1,note_on,76,57,0
1,note_on,76,0,240
1,note_on,79,64,0
1,note_on,79,0,480
1,note_on,77,60,0
1,note_on,77,0,240
1,note_on,80,59,960
1,note_on,80,0,240
1,note_on,79,61,0
1,note_on,79,0,120
1,note_on,77,59,0
1,note_on,77,0,120
1,note_on,75,57,0
1,note_on,75,0,120
1,note_on,73,57,0
1,note_on,73,0,120
1,note_on,72,59,0
1,note_on,72,0,120
1,note_on,73,62,0
1,note_on,73,0,120
1,note_on,77,66,0
1,note_on,77,0,120
1,note_on,73,60,0
1,note_on,73,0,120
1,note_on,62,57,0
1,note_on,68,57,0
1,note_on,72,57,0
1,note_on,72,0,480
1,note_on,71,47,0
1,note_on,71,0,960
1,note_on,68,0,0
1,note_on,62,0,0
1,note_on,63,53,240
1,note_on,72,53,0
1,note_on,72,0,240
1,note_on,71,56,0
1,note_on,71,0,120
1,note_on,72,58,0
1,note_on,72,0,120
1,note_on,63,0,0
1,note_on,63,50,0
1,note_on,74,59,0
1,note_on,74,0,120
1,note_on,72,56,0
1,note_on,72,0,120
1,note_on,71,56,0
1,note_on,71,0,120
1,note_on,72,59,0
1,note_on,72,0,120
1,note_on,63,0,0
1,note_on,63,61,0
1,note_on,75,61,0
1,note_on,75,0,120
1,note_on,74,60,0
1,note_on,74,0,120
1,note_on,71,66,0
1,note_on,71,0,480
1,note_on,63,0,0
1,note_on,63,60,0
1,note_on,72,60,0
1,note_on,72,0,960
1,note_on,63,0,0
1,note_on,63,62,240
1,note_on,72,62,0
1,note_on,72,0,216
1,note_on,63,0,0
1,note_on,63,64,24
1,note_on,72,64,0
1,note_on,72,0,216
1,note_on,63,0,0
1,note_on,63,67,24
1,note_on,72,67,0
1,note_on,72,0,216
1,note_on,63,0,0
1,note_on,63,70,24
1,note_on,72,70,0
1,note_on,72,0,216
1,note_on,63,0,0
1,note_on,63,72,24
1,note_on,72,72,0
1,note_on,72,0,216
1,note_on,63,0,0
1,note_on,73,74,24
1,note_on,63,74,0
1,note_on,73,0,300
1,note_on,72,62,0
1,note_on,72,0,60
1,note_on,70,57,0
1,note_on,70,0,60
1,note_on,68,54,0
1,note_on,68,0,60
1,note_on,67,66,0
1,note_on,67,0,240
1,note_on,63,0,0
1,note_on,79,67,0
1,note_on,79,0,240
1,note_on,80,67,0
1,note_on,80,0,240
1,note_on,72,65,0
1,note_on,72,0,360
1,note_on,70,56,0
1,note_on,70,0,120
1,note_on,73,60,0
1,note_on,73,0,120
1,note_on,77,55,0
1,note_on,77,0,120
1,note_on,68,63,0
1,note_on,68,0,720
1,note_on,67,55,0
1,note_on,72,55,0
1,note_on,72,0,120
1,note_on,70,55,0
1,note_on,70,0,120
1,note_on,67,0,0
1,note_on,68,46,0
1,note_on,68,0,480
1,note_on,68,46,240
1,note_on,72,46,0
1,note_on,72,0,240
1,note_on,68,0,0
1,note_on,68,49,0
1,note_on,72,49,0
1,note_on,72,0,240
1,note_on,68,0,0
1,note_on,68,46,0
1,note_on,72,46,0
1,note_on,72,0,240
1,note_on,68,0,0
1,note_on,70,58,0
1,note_on,72,58,0
1,note_on,77,58,0
1,note_on,77,0,240
1,note_on,76,46,0
1,note_on,76,0,480
1,note_on,72,0,0
1,note_on,70,0,0
1,note_on,70,47,0
1,note_on,72,47,0
1,note_on,72,0,240
1,note_on,70,0,0
1,note_on,70,51,0
1,note_on,72,51,0
1,note_on,72,0,240
1,note_on,70,0,0
1,note_on,70,47,0
1,note_on,72,47,0
1,note_on,72,0,240
1,note_on,70,0,0
1,note_on,79,59,0
1,note_on,68,59,0
1,note_on,72,59,0
1,note_on,79,0,240
1,note_on,77,51,0
1,note_on,77,0,480
1,note_on,72,0,0
1,note_on,68,0,0
1,note_on,68,51,0
1,note_on,72,51,0
1,note_on,72,0,240
1,note_on,68,0,0
1,note_on,68,54,0
1,note_on,72,54,0
1,note_on,72,0,240
1,note_on,68,0,0
1,note_on,68,49,0
1,note_on,72,49,0
1,note_on,72,0,240
1,note_on,68,0,0
1,note_on,80,64,0
1,note_on,68,64,0
1,note_on,72,64,0
1,note_on,80,0,240
1,note_on,78,60,0
1,note_on,78,0,480
1,note_on,72,0,0
1,note_on,68,0,0
1,note_on,68,50,0
1,note_on,72,50,0
1,note_on,72,0,216
1,note_on,68,0,0
1,note_on,68,55,24
1,note_on,72,55,0
1,note_on,72,0,216
1,note_on,68,0,0
1,note_on,68,51,24
1,note_on,72,51,0
1,note_on,72,0,216
1,note_on,68,0,0
1,note_on,78,61,24
1,note_on,68,61,0
1,note_on,73,61,0
1,note_on,78,0,240
1,note_on,76,56,0
1,note_on,76,0,480
1,note_on,73,0,0
1,note_on,68,0,0
1,note_on,68,59,0
1,note_on,76,59,0
1,note_on,76,0,240
1,note_on,68,0,0
1,note_on,68,64,0
1,note_on,76,64,0
1,note_on,76,0,240
1,note_on,68,0,0
1,note_on,68,59,0
1,note_on,75,59,0
1,note_on,75,0,240
1,note_on,68,0,0
1,note_on,68,65,0
1,note_on,75,65,0
1,note_on,75,0,360
1,note_on,77,52,0
1,note_on,77,0,60
1,note_on,75,49,0
1,note_on,75,0,60
1,note_on,74,52,0
1,note_on,74,0,240
1,note_on,68,0,0
1,note_on,62,45,0
1,note_on,68,45,0
1,note_on,68,0,240
1,note_on,62,0,0
1,note_on,62,47,0
1,note_on,68,47,0
1,note_on,68,0,240
1,note_on,62,0,0
1,note_on,62,45,0
1,note_on,68,45,0
1,note_on,68,0,240
1,note_on,62,0,0
1,note_on,62,47,0
1,note_on,68,47,0
1,note_on,68,0,480
1,note_on,62,0,0
1,note_on,74,39,240
1,note_on,80,39,0
1,note_on,80,0,216
1,note_on,74,0,0
1,note_on,74,39,24
1,note_on,80,39,0
1,note_on,80,0,216
1,note_on,74,0,0
1,note_on,74,39,24
1,note_on,80,39,0
1,note_on,80,0,216
1,note_on,74,0,0
1,note_on,74,43,24
1,note_on,80,43,0
1,note_on,80,0,240
1,note_on,82,34,0
1,note_on,82,0,30
1,note_on,80,36,0
1,note_on,80,0,30
1,note_on,79,39,0
1,note_on,79,0,30
1,note_on,80,41,0
1,note_on,80,0,30
1,note_on,82,40,0
1,note_on,82,0,60
1,note_on,84,37,0
1,note_on,84,0,60
1,note_on,74,0,0
1,note_on,82,43,0
1,note_on,82,0,120
1,note_on,80,40,0
1,note_on,80,0,120
1,note_on,79,44,0
1,note_on,79,0,120
1,note_on,77,44,0
1,note_on,77,0,120
1,note_on,75,46,0
1,note_on,75,0,120
1,note_on,74,44,0
1,note_on,74,0,120
1,note_on,72,44,0
1,note_on,72,0,120
1,note_on,70,44,0
1,note_on,70,0,110
1,note_on,70,46,1
1,note_on,67,46,0
1,note_on,72,46,359
1,note_on,70,0,1
1,note_on,72,0,59
1,note_on,70,46,0
1,note_on,70,0,60
1,note_on,65,44,0
1,note_on,68,44,0
1,note_on,67,0,1
1,note_on,68,0,239
1,note_on,65,0,0
1,note_on,63,42,0
1,note_on,67,42,0
1,note_on,67,0,240
1,note_on,63,0,0
1,note_on,68,43,0
1,note_on,72,43,0
1,note_on,72,0,240
1,note_on,68,0,0
1,note_on,67,41,0
1,note_on,70,41,0
1,note_on,70,0,230
1,note_on,67,0,0
1,note_on,70,45,10
1,note_on,67,45,0
1,note_on,70,0,360
1,note_on,72,42,0
1,note_on,72,0,60
1,note_on,70,42,0
1,note_on,70,0,60
1,note_on,67,0,0
1,note_on,68,47,0
1,note_on,68,0,480
1,note_on,67,47,0
1,note_on,67,0,600
1,note_on,64,44,0
1,note_on,64,0,120
1,note_on,65,45,0
1,note_on,65,0,120
1,note_on,67,46,0
1,note_on,67,0,120
1,note_on,68,49,0
1,note_on,68,0,120
1,note_on,69,51,0
1,note_on,69,0,120
1,note_on,70,52,0
1,note_on,70,0,120
1,note_on,71,54,0
1,note_on,71,0,120
1,note_on,74,56,0
1,note_on,74,0,60
1,note_on,72,54,0
1,note_on,72,0,60
1,note_on,71,52,0
1,note_on,71,0,60
1,note_on,72,54,0
1,note_on,72,0,60
1,note_on,70,52,0
1,note_on,70,0,60
1,note_on,68,49,0
1,note_on,68,0,60
1,note_on,67,51,0
1,note_on,67,0,60
1,note_on,65,50,0
1,note_on,65,0,60
1,note_on,55,54,0
1,note_on,63,54,0
1,note_on,63,0,480
1,note_on,55,0,0
1,note_on,53,47,0
1,note_on,62,47,0
1,note_on,62,0,60
1,note_on,53,0,0
1,note_on,58,49,0
1,note_on,58,0,60
1,note_on,57,50,0
1,note_on,57,0,60
1,note_on,58,51,0
1,note_on,58,0,60
1,note_on,59,52,0
1,note_on,59,0,60
1,note_on,60,53,0
1,note_on,60,0,60
1,note_on,61,54,0
1,note_on,61,0,60
1,note_on,62,54,0
1,note_on,62,0,60
1,note_on,63,55,0
1,note_on,63,0,60
1,note_on,64,56,0
1,note_on,64,0,60
1,note_on,65,57,0
1,note_on,65,0,60
1,note_on,66,59,0
1,note_on,66,0,60
1,note_on,67,60,0
1,note_on,67,0,60
1,note_on,68,61,0
1,note_on,68,0,60
1,note_on,69,62,0
1,note_on,69,0,60
1,note_on,70,63,0
1,note_on,70,0,50
1,note_on,67,63,10
1,note_on,70,63,0
1,note_on,70,0,360
1,note_on,72,57,0
1,note_on,72,0,60
1,note_on,70,53,0
1,note_on,70,0,60
1,note_on,67,0,0
1,note_on,68,55,0
1,note_on,68,0,60
1,note_on,67,54,0
1,note_on,67,0,60
1,note_on,72,56,0
1,note_on,72,0,60
1,note_on,70,53,0
1,note_on,70,0,60
1,note_on,75,57,0
1,note_on,75,0,60
1,note_on,74,55,0
1,note_on,74,0,60
1,note_on,77,61,0
1,note_on,77,0,60
1,note_on,75,55,0
1,note_on,75,0,60
1,note_on,80,63,0
1,note_on,80,0,60
1,note_on,79,59,0
1,note_on,79,0,60
1,note_on,78,61,0
1,note_on,78,0,60
1,note_on,79,61,0
1,note_on,79,0,60
1,note_on,77,61,0
1,note_on,77,0,60
1,note_on,75,59,0
1,note_on,75,0,60
1,note_on,74,57,0
1,note_on,74,0,60
1,note_on,72,55,0
1,note_on,72,0,60
1,note_on,70,60,0
1,note_on,70,0,240
1,note_on,69,63,0
1,note_on,69,0,480
1,note_on,68,63,0
1,note_on,68,0,360
1,note_on,67,66,0
1,note_on,67,0,120
1,note_on,75,68,0
1,note_on,75,0,120
1,note_on,73,64,0
1,note_on,73,0,120
1,note_on,71,67,0
1,note_on,71,0,120
1,note_on,72,64,0
1,note_on,72,0,120
1,note_on,74,69,0
1,note_on,74,0,120
1,note_on,75,64,0
1,note_on,75,0,110
1,note_on,75,70,10
1,note_on,75,0,240
1,note_on,70,66,0
1,note_on,70,0,360
1,note_on,72,54,0
1,note_on,72,0,60
1,note_on,70,50,0
1,note_on,70,0,50
1,note_on,70,53,10
1,note_on,70,0,60
1,note_on,68,45,0
1,note_on,68,0,60
1,note_on,67,51,0
1,note_on,67,0,60
1,note_on,65,45,0
1,note_on,65,0,60
1,note_on,63,46,0
1,note_on,63,0,480
1,note_on,67,46,240
1,note_on,70,46,0
1,note_on,70,0,240
1,note_on,67,0,0
1,note_on,67,50,0
1,note_on,70,50,0
1,note_on,70,0,240
1,note_on,67,0,0
1,note_on,67,46,0
1,note_on,70,46,0
1,note_on,70,0,240
1,note_on,67,0,0
1,note_on,68,54,0
1,note_on,75,54,0
1,note_on,75,0,240
1,note_on,74,46,0
1,note_on,74,0,480
1,note_on,68,0,0
1,note_on,82,50,0
1,note_on,82,0,120
1,note_on,80,47,0
1,note_on,80,0,120
1,note_on,79,52,0
1,note_on,79,0,120
1,note_on,77,47,0
1,note_on,77,0,120
1,note_on,75,49,0
1,note_on,75,0,120
1,note_on,74,45,0
1,note_on,74,0,120
1,note_on,77,54,0
1,note_on,77,0,40
1,note_on,75,52,0
1,note_on,75,0,300
1,note_on,74,49,20
1,note_on,74,0,60
1,note_on,72,45,0
1,note_on,72,0,60
1,note_on,70,50,0
1,note_on,70,0,230
1,note_on,67,49,10
1,note_on,70,49,0
1,note_on,70,0,216
1,note_on,67,0,0
1,note_on,67,53,24
1,note_on,70,53,0
1,note_on,70,0,216
1,note_on,67,0,0
1,note_on,67,49,24
1,note_on,70,49,0
1,note_on,70,0,216
1,note_on,67,0,0
1,note_on,68,62,24
1,note_on,75,62,0
1,note_on,75,0,120
1,note_on,74,55,0
1,note_on,74,0,120
1,note_on,68,0,0
1,note_on,84,60,0
1,note_on,84,0,480
1,note_on,82,50,0
1,note_on,82,0,60
1,note_on,80,49,0
1,note_on,80,0,60
1,note_on,84,52,0
1,note_on,84,0,60
1,note_on,80,49,0
1,note_on,80,0,60
1,note_on,79,51,0
1,note_on,79,0,60
1,note_on,77,49,0
1,note_on,77,0,60
1,note_on,80,51,0
1,note_on,80,0,60
1,note_on,77,49,0
1,note_on,77,0,60
1,note_on,75,51,0
1,note_on,75,0,60
1,note_on,74,49,0
1,note_on,74,0,60
1,note_on,77,52,0
1,note_on,77,0,60
1,note_on,74,49,0
1,note_on,74,0,60
1,note_on,75,54,0
1,note_on,75,0,60
1,note_on,77,52,0
1,note_on,77,0,60
1,note_on,75,52,0
1,note_on,75,0,60
1,note_on,74,52,0
1,note_on,74,0,60
1,note_on,75,50,0
1,note_on,75,0,40
1,note_on,76,47,0
1,note_on,76,0,40
1,note_on,77,50,0
1,note_on,77,0,40
1,note_on,78,53,0
1,note_on,78,0,60
1,note_on,79,54,0
1,note_on,79,0,60
1,note_on,70,50,0
1,note_on,70,0,240
1,note_on,67,45,0
1,note_on,70,45,0
1,note_on,70,0,240
1,note_on,67,0,0
1,note_on,65,47,0
1,note_on,68,47,0
1,note_on,68,0,240
1,note_on,65,0,0
1,note_on,63,51,0
1,note_on,67,51,0
1,note_on,67,0,230
1,note_on,63,0,0
1,note_on,63,58,10
1,note_on,70,58,0
1,note_on,70,0,120
1,note_on,69,49,0
1,note_on,69,0,120
1,note_on,70,53,0
1,note_on,70,0,120
1,note_on,67,42,0
1,note_on,67,0,120
1,note_on,63,0,0
1,note_on,62,38,0
1,note_on,65,38,0
1,note_on,65,0,480
1,note_on,62,0,0
1,note_on,70,67,420
1,note_on,70,0,60
1,note_on,82,73,0
1,note_on,82,0,720
1,note_on,80,70,0
1,note_on,80,0,60
1,note_on,79,66,0
1,note_on,79,0,60
1,note_on,77,70,0
1,note_on,77,0,60
1,note_on,75,64,0
1,note_on,75,0,60
1,note_on,74,74,0
1,note_on,74,0,240
1,note_on,75,72,0
1,note_on,75,0,240
1,note_on,74,67,0
1,note_on,77,67,0
1,note_on,77,0,240
1,note_on,74,0,0
1,note_on,80,69,0
1,note_on,75,69,0
1,note_on,80,0,60
1,note_on,79,65,0
1,note_on,79,0,60
1,note_on,77,66,0
1,note_on,77,0,60
1,note_on,79,65,0
1,note_on,79,0,60
1,note_on,75,0,0
1,note_on,77,70,0
1,note_on,80,70,0
1,note_on,80,0,240
1,note_on,77,0,0
1,note_on,70,57,0
1,note_on,70,0,216
1,note_on,70,59,24
1,note_on,70,0,216
1,note_on,70,59,24
1,note_on,70,0,216
1,note_on,80,72,24
1,note_on,80,0,720
1,note_on,82,69,0
1,note_on,82,0,60
1,note_on,80,65,0
1,note_on,80,0,60
1,note_on,79,69,0
1,note_on,79,0,60
1,note_on,77,64,0
1,note_on,77,0,60
1,note_on,75,73,0
1,note_on,75,0,240
1,note_on,74,70,0
1,note_on,77,70,0
1,note_on,77,0,240
1,note_on,74,0,0
1,note_on,75,71,0
1,note_on,79,71,0
1,note_on,79,0,240
1,note_on,75,0,0
1,note_on,82,67,0
1,note_on,77,67,0
1,note_on,82,0,60
1,note_on,80,63,0
1,note_on,80,0,60
1,note_on,79,67,0
1,note_on,79,0,60
1,note_on,80,64,0
1,note_on,80,0,60
1,note_on,77,0,0
1,note_on,79,72,0
1,note_on,82,72,0
1,note_on,82,0,120
1,note_on,79,0,0
1,note_on,73,83,840
1,note_on,73,0,600
1,note_on,75,62,0
1,note_on,75,0,30
1,note_on,73,58,0
1,note_on,73,0,30
1,note_on,72,62,0
1,note_on,72,0,30
1,note_on,73,59,0
1,note_on,73,0,30
1,note_on,75,67,0
1,note_on,75,0,120
1,note_on,77,67,0
1,note_on,77,0,120
1,note_on,75,67,0
1,note_on,75,0,120
1,note_on,73,60,0
1,note_on,73,0,120
1,note_on,72,67,0
1,note_on,72,0,120
1,note_on,71,61,0
1,note_on,71,0,110
1,note_on,71,70,10
1,note_on,71,0,600
1,note_on,72,67,0
1,note_on,72,0,120
1,note_on,75,69,0
1,note_on,75,0,120
1,note_on,74,69,0
1,note_on,74,0,120
1,note_on,77,69,0
1,note_on,77,0,120
1,note_on,75,64,0
1,note_on,75,0,120
1,note_on,74,68,0
1,note_on,74,0,120
1,note_on,72,61,0
1,note_on,72,0,120
1,note_on,70,59,0
1,note_on,71,60,80
1,note_on,70,0,20
1,note_on,72,62,60
1,note_on,71,0,20
1,note_on,73,66,60
1,note_on,72,0,20
1,note_on,74,68,60
1,note_on,73,0,20
1,note_on,75,69,60
1,note_on,74,0,20
1,note_on,75,0,60
1,note_on,75,60,0
1,note_on,75,0,60
1,note_on,63,73,0
1,note_on,63,0,420
1,note_on,67,59,0
1,note_on,62,59,0
1,note_on,67,0,120
1,note_on,65,64,0
1,note_on,65,0,120
1,note_on,63,64,0
1,note_on,63,0,120
1,note_on,65,59,0
1,note_on,65,0,120
1,note_on,62,0,0
1,note_on,63,55,0
1,note_on,63,0,480
1,note_on,63,75,240
1,note_on,70,75,0
1,note_on,70,0,216
1,note_on,63,0,0
1,note_on,65,80,24
1,note_on,70,59,0
1,note_on,70,0,216
1,note_on,65,0,0
1,note_on,67,75,24
1,note_on,70,75,0
1,note_on,70,0,216
1,note_on,67,0,0
1,note_on,70,80,24
1,note_on,68,63,0
1,note_on,70,0,300
1,note_on,72,76,0
1,note_on,72,0,60
1,note_on,70,70,0
1,note_on,70,0,60
1,note_on,69,69,0
1,note_on,69,0,60
1,note_on,70,79,0
1,note_on,70,0,120
1,note_on,68,0,120
1,note_on,62,74,0
1,note_on,70,74,0
1,note_on,70,0,240
1,note_on,62,0,0
1,note_on,63,76,0
1,note_on,72,76,0
1,note_on,72,0,240
1,note_on,63,0,0
1,note_on,65,72,0
1,note_on,74,72,0
1,note_on,74,0,240
1,note_on,65,0,0
1,note_on,75,81,0
1,note_on,63,81,0
1,note_on,75,0,300
1,note_on,77,70,0
1,note_on,77,0,60
1,note_on,79,72,0
1,note_on,79,0,60
1,note_on,75,66,0
1,note_on,75,0,60
1,note_on,70,69,0
1,note_on,70,0,120
1,note_on,63,0,120
1,note_on,67,52,0
1,note_on,70,52,0
1,note_on,70,0,240
1,note_on,67,0,0
1,note_on,65,54,0
1,note_on,68,54,0
1,note_on,68,0,240
1,note_on,65,0,0
1,note_on,63,52,0
1,note_on,67,52,0
1,note_on,67,0,240
1,note_on,63,0,0
1,note_on,65,57,0
1,note_on,65,0,300
1,note_on,67,50,0
1,note_on,67,0,60
1,note_on,68,52,0
1,note_on,68,0,60
1,note_on,65,50,0
1,note_on,65,0,60
1,note_on,72,56,0
1,note_on,72,0,120
1,note_on,60,46,120
1,note_on,65,46,0
1,note_on,65,0,240
1,note_on,60,0,0
1,note_on,58,49,0
1,note_on,63,49,0
1,note_on,63,0,240
1,note_on,58,0,0
1,note_on,62,46,0
1,note_on,65,46,0
1,note_on,65,0,230
1,note_on,62,0,0
1,note_on,62,54,10
1,note_on,65,54,0
1,note_on,65,0,360
1,note_on,66,50,0
1,note_on,66,0,120
1,note_on,62,0,0
1,note_on,63,45,0
1,note_on,67,45,0
1,note_on,67,0,240
1,note_on,63,0,0
1,note_on,75,76,0
1,note_on,82,76,0
1,note_on,82,0,216
1,note_on,75,0,0
1,note_on,77,77,24
1,note_on,82,77,0
1,note_on,82,0,216
1,note_on,77,0,0
1,note_on,79,76,24
1,note_on,82,76,0
1,note_on,82,0,216
1,note_on,79,0,0
1,note_on,82,81,24
1,note_on,80,81,0
1,note_on,82,0,300
1,note_on,84,73,0
1,note_on,84,0,60
1,note_on,82,69,0
1,note_on,82,0,60
1,note_on,81,70,0
1,note_on,81,0,60
1,note_on,82,78,0
1,note_on,82,0,120
1,note_on,80,0,120
1,note_on,74,76,0
1,note_on,82,76,0
1,note_on,82,0,240
1,note_on,74,0,0
1,note_on,75,80,0
1,note_on,84,80,0
1,note_on,84,0,240
1,note_on,75,0,0
1,note_on,77,75,0
1,note_on,86,75,0
1,note_on,86,0,240
1,note_on,77,0,0
1,note_on,87,86,0
1,note_on,75,86,0
1,note_on,87,0,300
1,note_on,86,68,0
1,note_on,86,0,60
1,note_on,87,70,0
1,note_on,87,0,60
1,note_on,82,66,0
1,note_on,82,0,60
1,note_on,79,61,0
1,note_on,79,0,120
1,note_on,75,0,120
1,note_on,79,54,0
1,note_on,82,54,0
1,note_on,82,0,240
1,note_on,79,0,0
1,note_on,77,54,0
1,note_on,80,54,0
1,note_on,80,0,240
1,note_on,77,0,0
1,note_on,75,54,0
1,note_on,79,54,0
1,note_on,79,0,240
1,note_on,75,0,0
1,note_on,76,51,0
1,note_on,76,0,60
1,note_on,77,50,0
1,note_on,77,0,60
1,note_on,79,56,0
1,note_on,79,0,60
1,note_on,77,55,0
1,note_on,77,0,60
1,note_on,80,59,0
1,note_on,80,0,60
1,note_on,79,58,0
1,note_on,79,0,60
1,note_on,82,62,0
1,note_on,82,0,60
1,note_on,80,60,0
1,note_on,80,0,60
1,note_on,84,66,0
1,note_on,84,0,480
1,note_on,82,59,0
1,note_on,82,0,240
1,note_on,74,53,180
1,note_on,74,0,60
1,note_on,75,56,0
1,note_on,75,0,480
1,note_on,85,69,240
1,note_on,85,0,240
1,note_on,84,72,0
1,note_on,84,0,240
1,note_on,86,75,0
1,note_on,86,0,240
1,note_on,89,81,0
1,note_on,89,0,240
1,note_on,87,78,0
1,note_on,87,0,240
1,note_on,73,72,240
1,note_on,73,0,240
1,note_on,72,74,0
1,note_on,72,0,240
1,note_on,68,69,0
1,note_on,74,69,0
1,note_on,74,0,240
1,note_on,68,0,0
1,note_on,77,59,0
1,note_on,68,59,0
1,note_on,68,0,480
1,note_on,77,0,0
1,note_on,67,52,0
1,note_on,75,52,0
1,note_on,75,0,240
1,note_on,67,0,0
1,note_on,62,47,0
1,note_on,65,47,0
1,note_on,65,0,240
1,note_on,62,0,0
1,note_on,63,52,0
1,note_on,67,52,0
1,note_on,67,0,240
1,note_on,63,0,0
1,note_on,65,54,0
1,note_on,68,54,0
1,note_on,68,0,240
1,note_on,65,0,0
1,note_on,66,67,0
1,note_on,69,67,0
1,note_on,69,0,480
1,note_on,66,0,0
1,note_on,67,62,0
1,note_on,70,62,0
1,note_on,70,0,240
1,note_on,67,0,0
1,note_on,70,54,0
1,note_on,73,54,0
1,note_on,73,0,240
1,note_on,70,0,0
1,note_on,64,56,0
1,note_on,67,56,0
1,note_on,67,0,240
1,note_on,64,0,0
1,note_on,68,51,0
1,note_on,72,51,0
1,note_on,72,0,240
1,note_on,68,0,0
1,note_on,67,55,0
1,note_on,70,55,0
1,note_on,70,0,480
1,note_on,67,0,0
1,note_on,65,52,0
1,note_on,68,52,0
1,note_on,68,0,240
1,note_on,65,0,0
1,note_on,77,54,0
1,note_on,77,0,216
1,note_on,77,54,24
1,note_on,77,0,216
1,note_on,77,54,24
1,note_on,77,0,216
1,note_on,78,62,24
1,note_on,78,0,480
1,note_on,79,56,0
1,note_on,79,0,240
1,note_on,82,63,0
1,note_on,82,0,480
1,note_on,76,57,0
1,note_on,76,0,240
1,note_on,79,64,0
1,note_on,79,0,480
1,note_on,77,60,0
1,note_on,77,0,240
1,note_on,80,59,960
1,note_on,80,0,240
1,note_on,79,61,0
1,note_on,79,0,120
1,note_on,77,59,0
1,note_on,77,0,120
1,note_on,75,57,0
1,note_on,75,0,120
1,note_on,73,57,0
1,note_on,73,0,120
1,note_on,72,59,0
1,note_on,72,0,120
1,note_on,73,62,0
1,note_on,73,0,120
1,note_on,77,66,0
1,note_on,77,0,120
1,note_on,73,60,0
1,note_on,73,0,120
1,note_on,62,57,0
1,note_on,68,57,0
1,note_on,72,57,0
1,note_on,72,0,480
1,note_on,71,47,0
1,note_on,71,0,960
1,note_on,68,0,0
1,note_on,62,0,0
1,note_on,63,53,240
1,note_on,72,53,0
1,note_on,72,0,240
1,note_on,71,56,0
1,note_on,71,0,120
1,note_on,72,58,0
1,note_on,72,0,120
1,note_on,63,0,0
1,note_on,63,50,0
1,note_on,74,59,0
1,note_on,74,0,120
1,note_on,72,56,0
1,note_on,72,0,120
1,note_on,71,56,0
1,note_on,71,0,120
1,note_on,72,59,0
1,note_on,72,0,120
1,note_on,63,0,0
1,note_on,63,61,0
1,note_on,75,61,0
1,note_on,75,0,120
1,note_on,74,60,0
1,note_on,74,0,120
1,note_on,71,66,0
1,note_on,71,0,480
1,note_on,63,0,0
1,note_on,63,60,0
1,note_on,72,60,0
1,note_on,72,0,960
1,note_on,63,0,0
1,note_on,63,62,240
1,note_on,72,62,0
1,note_on,72,0,216
1,note_on,63,0,0
1,note_on,63,64,24
1,note_on,72,64,0
1,note_on,72,0,216
1,note_on,63,0,0
1,note_on,63,67,24
1,note_on,72,67,0
1,note_on,72,0,216
1,note_on,63,0,0
1,note_on,63,70,24
1,note_on,72,70,0
1,note_on,72,0,216
1,note_on,63,0,0
1,note_on,63,72,24
1,note_on,72,72,0
1,note_on,72,0,216
1,note_on,63,0,0
1,note_on,73,74,24
1,note_on,63,74,0
1,note_on,73,0,300
1,note_on,72,62,0
1,note_on,72,0,60
1,note_on,70,57,0
1,note_on,70,0,60
1,note_on,68,54,0
1,note_on,68,0,60
1,note_on,67,66,0
1,note_on,67,0,240
1,note_on,63,0,0
1,note_on,79,67,0
1,note_on,79,0,240
1,note_on,80,67,0
1,note_on,80,0,240
1,note_on,72,65,0
1,note_on,72,0,360
1,note_on,70,56,0
1,note_on,70,0,120
1,note_on,73,60,0
1,note_on,73,0,120
1,note_on,77,55,0
1,note_on,77,0,120
1,note_on,68,63,0
1,note_on,68,0,720
1,note_on,67,55,0
1,note_on,72,55,0
1,note_on,72,0,120
1,note_on,70,55,0
1,note_on,70,0,120
1,note_on,67,0,0
1,note_on,68,46,0
1,note_on,68,0,480
1,note_on,68,46,240
1,note_on,72,46,0
1,note_on,72,0,240
1,note_on,68,0,0
1,note_on,68,49,0
1,note_on,72,49,0
1,note_on,72,0,240
1,note_on,68,0,0
1,note_on,68,46,0
1,note_on,72,46,0
1,note_on,72,0,240
1,note_on,68,0,0
1,note_on,70,58,0
1,note_on,72,58,0
1,note_on,77,58,0
1,note_on,77,0,240
1,note_on,76,46,0
1,note_on,76,0,480
1,note_on,72,0,0
1,note_on,70,0,0
1,note_on,70,47,0
1,note_on,72,47,0
1,note_on,72,0,240
1,note_on,70,0,0
1,note_on,70,51,0
1,note_on,72,51,0
1,note_on,72,0,240
1,note_on,70,0,0
1,note_on,70,47,0
1,note_on,72,47,0
1,note_on,72,0,240
1,note_on,70,0,0
1,note_on,79,59,0
1,note_on,68,59,0
1,note_on,72,59,0
1,note_on,79,0,240
1,note_on,77,51,0
1,note_on,77,0,480
1,note_on,72,0,0
1,note_on,68,0,0
1,note_on,68,51,0
1,note_on,72,51,0
1,note_on,72,0,240
1,note_on,68,0,0
1,note_on,68,54,0
1,note_on,72,54,0
1,note_on,72,0,240
1,note_on,68,0,0
1,note_on,68,49,0
1,note_on,72,49,0
1,note_on,72,0,240
1,note_on,68,0,0
1,note_on,80,64,0
1,note_on,68,64,0
1,note_on,72,64,0
1,note_on,80,0,240
1,note_on,78,60,0
1,note_on,78,0,480
1,note_on,72,0,0
1,note_on,68,0,0
1,note_on,68,50,0
1,note_on,72,50,0
1,note_on,72,0,216
1,note_on,68,0,0
1,note_on,68,55,24
1,note_on,72,55,0
1,note_on,72,0,216
1,note_on,68,0,0
1,note_on,68,51,24
1,note_on,72,51,0
1,note_on,72,0,216
1,note_on,68,0,0
1,note_on,78,61,24
1,note_on,68,61,0
1,note_on,73,61,0
1,note_on,78,0,240
1,note_on,76,56,0
1,note_on,76,0,480
1,note_on,73,0,0
1,note_on,68,0,0
1,note_on,68,59,0
1,note_on,76,59,0
1,note_on,76,0,240
1,note_on,68,0,0
1,note_on,68,64,0
1,note_on,76,64,0
1,note_on,76,0,240
1,note_on,68,0,0
1,note_on,68,59,0
1,note_on,75,59,0
1,note_on,75,0,240
1,note_on,68,0,0
1,note_on,68,65,0
1,note_on,75,65,0
1,note_on,75,0,360
1,note_on,77,52,0
1,note_on,77,0,60
1,note_on,75,49,0
1,note_on,75,0,60
1,note_on,74,52,0
1,note_on,74,0,240
1,note_on,68,0,0
1,note_on,62,45,0
1,note_on,68,45,0
1,note_on,68,0,240
1,note_on,62,0,0
1,note_on,62,47,0
1,note_on,68,47,0
1,note_on,68,0,240
1,note_on,62,0,0
1,note_on,62,45,0
1,note_on,68,45,0
1,note_on,68,0,240
1,note_on,62,0,0
1,note_on,62,47,0
1,note_on,68,47,0
1,note_on,68,0,480
1,note_on,62,0,0
1,note_on,74,39,240
1,note_on,80,39,0
1,note_on,80,0,216
1,note_on,74,0,0
1,note_on,74,39,24
1,note_on,80,39,0
1,note_on,80,0,216
1,note_on,74,0,0
1,note_on,74,39,24
1,note_on,80,39,0
1,note_on,80,0,216
1,note_on,74,0,0
1,note_on,74,43,24
1,note_on,80,43,0
1,note_on,80,0,240
1,note_on,82,34,0
1,note_on,82,0,30
1,note_on,80,36,0
1,note_on,80,0,30
1,note_on,79,39,0
1,note_on,79,0,30
1,note_on,80,41,0
1,note_on,80,0,30
1,note_on,82,40,0
1,note_on,82,0,60
1,note_on,84,37,0
1,note_on,84,0,60
1,note_on,74,0,0
1,note_on,82,43,0
1,note_on,82,0,120
1,note_on,80,40,0
1,note_on,80,0,120
1,note_on,79,44,0
1,note_on,79,0,120
1,note_on,77,44,0
1,note_on,77,0,120
1,note_on,75,46,0
1,note_on,75,0,120
1,note_on,74,44,0
1,note_on,74,0,120
1,note_on,72,44,0
1,note_on,72,0,120
1,note_on,70,44,0
1,note_on,70,0,110
1,note_on,70,46,1
1,note_on,67,46,0
1,note_on,72,46,359
1,note_on,70,0,1
1,note_on,72,0,59
1,note_on,70,46,0
1,note_on,70,0,60
1,note_on,65,44,0
1,note_on,68,44,0
1,note_on,67,0,1
1,note_on,68,0,239
1,note_on,65,0,0
1,note_on,63,42,0
1,note_on,67,42,0
1,note_on,67,0,240
1,note_on,63,0,0
1,note_on,68,43,0
1,note_on,72,43,0
1,note_on,72,0,240
1,note_on,68,0,0
1,note_on,67,41,0
1,note_on,70,41,0
1,note_on,70,0,230
1,note_on,67,0,0
1,note_on,70,45,10
1,note_on,67,45,0
1,note_on,70,0,360
1,note_on,72,42,0
1,note_on,72,0,60
1,note_on,70,42,0
1,note_on,70,0,60
1,note_on,67,0,0
1,note_on,68,47,0
1,note_on,68,0,480
1,note_on,67,47,0
1,note_on,67,0,600
1,note_on,64,44,0
1,note_on,64,0,120
1,note_on,65,45,0
1,note_on,65,0,120
1,note_on,67,46,0
1,note_on,67,0,120
1,note_on,68,49,0
1,note_on,68,0,120
1,note_on,69,51,0
1,note_on,69,0,120
1,note_on,70,52,0
1,note_on,70,0,120
1,note_on,71,54,0
1,note_on,71,0,120
1,note_on,74,56,0
1,note_on,74,0,60
1,note_on,72,54,0
1,note_on,72,0,60
1,note_on,71,52,0
1,note_on,71,0,60
1,note_on,72,54,0
1,note_on,72,0,60
1,note_on,70,52,0
1,note_on,70,0,60
1,note_on,68,49,0
1,note_on,68,0,60
1,note_on,67,51,0
1,note_on,67,0,60
1,note_on,65,50,0
1,note_on,65,0,60
1,note_on,55,54,0
1,note_on,63,54,0
1,note_on,63,0,480
1,note_on,55,0,0
1,note_on,53,47,0
1,note_on,62,47,0
1,note_on,62,0,60
1,note_on,53,0,0
1,note_on,58,49,0
1,note_on,58,0,60
1,note_on,57,50,0
1,note_on,57,0,60
1,note_on,58,51,0
1,note_on,58,0,60
1,note_on,59,52,0
1,note_on,59,0,60
1,note_on,60,53,0
1,note_on,60,0,60
1,note_on,61,54,0
1,note_on,61,0,60
1,note_on,62,54,0
1,note_on,62,0,60
1,note_on,63,55,0
1,note_on,63,0,60
1,note_on,64,56,0
1,note_on,64,0,60
1,note_on,65,57,0
1,note_on,65,0,60
1,note_on,66,59,0
1,note_on,66,0,60
1,note_on,67,60,0
1,note_on,67,0,60
1,note_on,68,61,0
1,note_on,68,0,60
1,note_on,69,62,0
1,note_on,69,0,60
1,note_on,70,63,0
1,note_on,70,0,50
1,note_on,67,63,10
1,note_on,70,63,0
1,note_on,70,0,360
1,note_on,72,57,0
1,note_on,72,0,60
1,note_on,70,53,0
1,note_on,70,0,60
1,note_on,67,0,0
1,note_on,68,55,0
1,note_on,68,0,60
1,note_on,67,54,0
1,note_on,67,0,60
1,note_on,72,56,0
1,note_on,72,0,60
1,note_on,70,53,0
1,note_on,70,0,60
1,note_on,75,57,0
1,note_on,75,0,60
1,note_on,74,55,0
1,note_on,74,0,60
1,note_on,77,61,0
1,note_on,77,0,60
1,note_on,75,55,0
1,note_on,75,0,60
1,note_on,80,63,0
1,note_on,80,0,60
1,note_on,79,59,0
1,note_on,79,0,60
1,note_on,78,61,0
1,note_on,78,0,60
1,note_on,79,61,0
1,note_on,79,0,60
1,note_on,77,61,0
1,note_on,77,0,60
1,note_on,75,59,0
1,note_on,75,0,60
1,note_on,74,57,0
1,note_on,74,0,60
1,note_on,72,55,0
1,note_on,72,0,60
1,note_on,70,60,0
1,note_on,70,0,240
1,note_on,69,63,0
1,note_on,69,0,480
1,note_on,68,63,0
1,note_on,68,0,360
1,note_on,67,66,0
1,note_on,67,0,120
1,note_on,75,68,0
1,note_on,75,0,120
1,note_on,73,64,0
1,note_on,73,0,120
1,note_on,71,67,0
1,note_on,71,0,120
1,note_on,72,64,0
1,note_on,72,0,120
1,note_on,74,69,0
1,note_on,74,0,120
1,note_on,75,64,0
1,note_on,75,0,110
1,note_on,75,70,10
1,note_on,75,0,240
1,note_on,70,66,0
1,note_on,70,0,360
1,note_on,72,54,0
1,note_on,72,0,60
1,note_on,70,50,0
1,note_on,70,0,50
1,note_on,70,53,10
1,note_on,70,0,60
1,note_on,68,45,0
1,note_on,68,0,60
1,note_on,67,51,0
1,note_on,67,0,60
1,note_on,65,45,0
1,note_on,65,0,60
1,note_on,63,46,0
1,note_on,63,0,480
1,note_on,67,46,240
1,note_on,70,46,0
1,note_on,70,0,240
1,note_on,67,0,0
1,note_on,67,50,0
1,note_on,70,50,0
1,note_on,70,0,240
1,note_on,67,0,0
1,note_on,67,46,0
1,note_on,70,46,0
1,note_on,70,0,240
1,note_on,67,0,0
1,note_on,68,54,0
1,note_on,75,54,0
1,note_on,75,0,240
1,note_on,74,46,0
1,note_on,74,0,480
1,note_on,68,0,0
1,note_on,82,50,0
1,note_on,82,0,120
1,note_on,80,47,0
1,note_on,80,0,120
1,note_on,79,52,0
1,note_on,79,0,120
1,note_on,77,47,0
1,note_on,77,0,120
1,note_on,75,49,0
1,note_on,75,0,120
1,note_on,74,45,0
1,note_on,74,0,120
1,note_on,77,54,0
1,note_on,77,0,40
1,note_on,75,52,0
1,note_on,75,0,300
1,note_on,74,49,20
1,note_on,74,0,60
1,note_on,72,45,0
1,note_on,72,0,60
1,note_on,70,50,0
1,note_on,70,0,230
1,note_on,67,49,10
1,note_on,70,49,0
1,note_on,70,0,216
1,note_on,67,0,0
1,note_on,67,53,24
1,note_on,70,53,0
1,note_on,70,0,216
1,note_on,67,0,0
1,note_on,67,49,24
1,note_on,70,49,0
1,note_on,70,0,216
1,note_on,67,0,0
1,note_on,68,62,24
1,note_on,75,62,0
1,note_on,75,0,120
1,note_on,74,55,0
1,note_on,74,0,120
1,note_on,68,0,0
1,note_on,84,60,0
1,note_on,84,0,480
1,note_on,82,50,0
1,note_on,82,0,60
1,note_on,80,49,0
1,note_on,80,0,60
1,note_on,84,52,0
1,note_on,84,0,60
1,note_on,80,49,0
1,note_on,80,0,60
1,note_on,79,51,0
1,note_on,79,0,60
1,note_on,77,49,0
1,note_on,77,0,60
1,note_on,80,51,0
1,note_on,80,0,60
1,note_on,77,49,0
1,note_on,77,0,60
1,note_on,75,51,0
1,note_on,75,0,60
1,note_on,74,49,0
1,note_on,74,0,60
1,note_on,77,52,0
1,note_on,77,0,60
1,note_on,74,49,0
1,note_on,74,0,60
1,note_on,75,54,0
1,note_on,75,0,60
1,note_on,77,52,0
1,note_on,77,0,60
1,note_on,75,52,0
1,note_on,75,0,60
1,note_on,74,52,0
1,note_on,74,0,60
1,note_on,75,50,0
1,note_on,75,0,40
1,note_on,76,47,0
1,note_on,76,0,40
1,note_on,77,50,0
1,note_on,77,0,40
1,note_on,78,53,0
1,note_on,78,0,60
1,note_on,79,54,0
1,note_on,79,0,60
1,note_on,70,50,0
1,note_on,70,0,240
1,note_on,67,45,0
1,note_on,70,45,0
1,note_on,70,0,240
1,note_on,67,0,0
1,note_on,65,47,0
1,note_on,68,47,0
1,note_on,68,0,240
1,note_on,65,0,0
1,note_on,63,51,0
1,note_on,67,51,0
1,note_on,67,0,230
1,note_on,63,0,0
1,note_on,63,58,10
1,note_on,70,58,0
1,note_on,70,0,120
1,note_on,69,49,0
1,note_on,69,0,120
1,note_on,70,53,0
1,note_on,70,0,120
1,note_on,67,42,0
1,note_on,67,0,120
1,note_on,63,0,0
1,note_on,62,38,0
1,note_on,65,38,0
1,note_on,65,0,480
1,note_on,62,0,0
1,note_on,70,67,420
1,note_on,70,0,60
1,note_on,82,73,0
1,note_on,82,0,720
1,note_on,80,70,0
1,note_on,80,0,60
1,note_on,79,66,0
1,note_on,79,0,60
1,note_on,77,70,0
1,note_on,77,0,60
1,note_on,75,64,0
1,note_on,75,0,60
1,note_on,74,74,0
1,note_on,74,0,240
1,note_on,75,72,0
1,note_on,75,0,240
1,note_on,74,67,0
1,note_on,77,67,0
1,note_on,77,0,240
1,note_on,74,0,0
1,note_on,80,69,0
1,note_on,75,69,0
1,note_on,80,0,60
1,note_on,79,65,0
1,note_on,79,0,60
1,note_on,77,66,0
1,note_on,77,0,60
1,note_on,79,65,0
1,note_on,79,0,60
1,note_on,75,0,0
1,note_on,77,70,0
1,note_on,80,70,0
1,note_on,80,0,240
1,note_on,77,0,0
1,note_on,70,57,0
1,note_on,70,0,216
1,note_on,70,59,24
1,note_on,70,0,216
1,note_on,70,59,24
1,note_on,70,0,216
1,note_on,80,72,24
1,note_on,80,0,720
1,note_on,82,69,0
1,note_on,82,0,60
1,note_on,80,65,0
1,note_on,80,0,60
1,note_on,79,69,0
1,note_on,79,0,60
1,note_on,77,64,0
1,note_on,77,0,60
1,note_on,75,73,0
1,note_on,75,0,240
1,note_on,74,70,0
1,note_on,77,70,0
1,note_on,77,0,240
1,note_on,74,0,0
1,note_on,75,71,0
1,note_on,79,71,0
1,note_on,79,0,240
1,note_on,75,0,0
1,note_on,82,67,0
1,note_on,77,67,0
1,note_on,82,0,60
1,note_on,80,63,0
1,note_on,80,0,60
1,note_on,79,67,0
1,note_on,79,0,60
1,note_on,80,64,0
1,note_on,80,0,60
1,note_on,77,0,0
1,note_on,79,72,0
1,note_on,82,72,0
1,note_on,82,0,120
1,note_on,79,0,0
1,note_on,73,83,840
1,note_on,73,0,600
1,note_on,75,62,0
1,note_on,75,0,30
1,note_on,73,58,0
1,note_on,73,0,30
1,note_on,72,62,0
1,note_on,72,0,30
1,note_on,73,59,0
1,note_on,73,0,30
1,note_on,75,67,0
1,note_on,75,0,120
1,note_on,77,67,0
1,note_on,77,0,120
1,note_on,75,67,0
1,note_on,75,0,120
1,note_on,73,60,0
1,note_on,73,0,120
1,note_on,72,67,0
1,note_on,72,0,120
1,note_on,71,61,0
1,note_on,71,0,110
1,note_on,71,70,10
1,note_on,71,0,600
1,note_on,72,67,0
1,note_on,72,0,120
1,note_on,75,69,0
1,note_on,75,0,120
1,note_on,74,69,0
1,note_on,74,0,120
1,note_on,77,69,0
1,note_on,77,0,120
1,note_on,75,64,0
1,note_on,75,0,120
1,note_on,74,68,0
1,note_on,74,0,120
1,note_on,72,61,0
1,note_on,72,0,120
1,note_on,70,59,0
1,note_on,71,60,80
1,note_on,70,0,20
1,note_on,72,62,60
1,note_on,71,0,20
1,note_on,73,66,60
1,note_on,72,0,20
1,note_on,74,68,60
1,note_on,73,0,20
1,note_on,75,69,60
1,note_on,74,0,20
1,note_on,75,0,60
1,note_on,75,60,0
1,note_on,75,0,60
1,note_on,63,73,0
1,note_on,63,0,420
1,note_on,67,59,0
1,note_on,62,59,0
1,note_on,67,0,120
1,note_on,65,64,0
1,note_on,65,0,120
1,note_on,63,64,0
1,note_on,63,0,120
1,note_on,65,59,0
1,note_on,65,0,120
1,note_on,62,0,0
1,note_on,63,55,0
1,note_on,63,0,480
1,note_on,63,75,240
1,note_on,70,75,0
1,note_on,70,0,216
1,note_on,63,0,0
1,note_on,65,80,24
1,note_on,70,59,0
1,note_on,70,0,216
1,note_on,65,0,0
1,note_on,67,75,24
1,note_on,70,75,0
1,note_on,70,0,216
1,note_on,67,0,0
1,note_on,70,80,24
1,note_on,68,63,0
1,note_on,70,0,300
1,note_on,72,76,0
1,note_on,72,0,60
1,note_on,70,70,0
1,note_on,70,0,60
1,note_on,69,69,0
1,note_on,69,0,60
1,note_on,70,79,0
1,note_on,70,0,120
1,note_on,68,0,120
1,note_on,62,74,0
1,note_on,70,74,0
1,note_on,70,0,240
1,note_on,62,0,0
1,note_on,63,76,0
1,note_on,72,76,0
1,note_on,72,0,240
1,note_on,63,0,0
1,note_on,65,72,0
1,note_on,74,72,0
1,note_on,74,0,240
1,note_on,65,0,0
1,note_on,75,81,0
1,note_on,63,81,0
1,note_on,75,0,300
1,note_on,77,70,0
1,note_on,77,0,60
1,note_on,79,72,0
1,note_on,79,0,60
1,note_on,75,66,0
1,note_on,75,0,60
1,note_on,70,69,0
1,note_on,70,0,120
1,note_on,63,0,120
1,note_on,67,52,0
1,note_on,70,52,0
1,note_on,70,0,240
1,note_on,67,0,0
1,note_on,65,54,0
1,note_on,68,54,0
1,note_on,68,0,240
1,note_on,65,0,0
1,note_on,63,52,0
1,note_on,67,52,0
1,note_on,67,0,240
1,note_on,63,0,0
1,note_on,65,57,0
1,note_on,65,0,300
1,note_on,67,50,0
1,note_on,67,0,60
1,note_on,68,52,0
1,note_on,68,0,60
1,note_on,65,50,0
1,note_on,65,0,60
1,note_on,72,56,0
1,note_on,72,0,120
1,note_on,60,46,120
1,note_on,65,46,0
1,note_on,65,0,240
1,note_on,60,0,0
1,note_on,58,49,0
1,note_on,63,49,0
1,note_on,63,0,240
1,note_on,58,0,0
1,note_on,62,46,0
1,note_on,65,46,0
1,note_on,65,0,230
1,note_on,62,0,0
1,note_on,62,54,10
1,note_on,65,54,0
1,note_on,65,0,360
1,note_on,66,50,0
1,note_on,66,0,120
1,note_on,62,0,0
1,note_on,63,45,0
1,note_on,67,45,0
1,note_on,67,0,240
1,note_on,63,0,0
1,note_on,75,76,0
1,note_on,82,76,0
1,note_on,82,0,216
1,note_on,75,0,0
1,note_on,77,77,24
1,note_on,82,77,0
1,note_on,82,0,216
1,note_on,77,0,0
1,note_on,79,76,24
1,note_on,82,76,0
1,note_on,82,0,216
1,note_on,79,0,0
1,note_on,82,81,24
1,note_on,80,81,0
1,note_on,82,0,300
1,note_on,84,73,0
1,note_on,84,0,60
1,note_on,82,69,0
1,note_on,82,0,60
1,note_on,81,70,0
1,note_on,81,0,60
1,note_on,82,78,0
1,note_on,82,0,120
1,note_on,80,0,120
1,note_on,74,76,0
1,note_on,82,76,0
1,note_on,82,0,240
1,note_on,74,0,0
1,note_on,75,80,0
1,note_on,84,80,0
1,note_on,84,0,240
1,note_on,75,0,0
1,note_on,77,75,0
1,note_on,86,75,0
1,note_on,86,0,240
1,note_on,77,0,0
1,note_on,87,86,0
1,note_on,75,86,0
1,note_on,87,0,300
1,note_on,86,68,0
1,note_on,86,0,60
1,note_on,87,70,0
1,note_on,87,0,60
1,note_on,82,66,0
1,note_on,82,0,60
1,note_on,79,61,0
1,note_on,79,0,120
1,note_on,75,0,120
1,note_on,79,54,0
1,note_on,82,54,0
1,note_on,82,0,240
1,note_on,79,0,0
1,note_on,77,54,0
1,note_on,80,54,0
1,note_on,80,0,240
1,note_on,77,0,0
1,note_on,75,54,0
1,note_on,79,54,0
1,note_on,79,0,240
1,note_on,75,0,0
1,note_on,76,51,0
1,note_on,76,0,60
1,note_on,77,50,0
1,note_on,77,0,60
1,note_on,79,56,0
1,note_on,79,0,60
1,note_on,77,55,0
1,note_on,77,0,60
1,note_on,80,59,0
1,note_on,80,0,60
1,note_on,79,58,0
1,note_on,79,0,60
1,note_on,82,62,0
1,note_on,82,0,60
1,note_on,80,60,0
1,note_on,80,0,60
1,note_on,84,66,0
1,note_on,84,0,480
1,note_on,82,59,0
1,note_on,82,0,240
1,note_on,74,53,180
1,note_on,74,0,60
1,note_on,75,56,0
1,note_on,75,0,480
1,note_on,85,69,240
1,note_on,85,0,240
1,note_on,84,72,0
1,note_on,84,0,240
1,note_on,86,75,0
1,note_on,86,0,240
1,note_on,89,81,0
1,note_on,89,0,240
1,note_on,87,78,0
1,note_on,87,0,240
1,note_on,73,72,240
1,note_on,73,0,240
1,note_on,72,74,0
1,note_on,72,0,240
1,note_on,68,69,0
1,note_on,74,69,0
1,note_on,74,0,240
1,note_on,68,0,0
1,note_on,77,54,0
1,note_on,68,54,0
1,note_on,68,0,480
1,note_on,77,0,0
1,note_on,67,42,0
1,note_on,75,42,0
1,note_on,75,0,240
1,note_on,67,0,0
1,note_on,62,41,0
1,note_on,65,41,0
1,note_on,65,0,240
1,note_on,62,0,0
1,note_on,63,46,0
1,note_on,67,46,0
1,note_on,67,0,240
1,note_on,63,0,0
1,note_on,65,45,0
1,note_on,68,45,0
1,note_on,68,0,240
1,note_on,65,0,0
1,note_on,62,34,0
1,note_on,65,37,0
1,note_on,68,37,0
1,note_on,68,0,960
1,note_on,65,0,0
1,note_on,62,0,0
1,note_on,63,36,0
1,note_on,67,36,0
1,note_on,67,0,240
1,note_on,63,0,0
2,note_on,51,51,1
2,note_on,51,0,960
2,note_on,51,50,479
2,note_on,51,0,480
2,note_on,53,46,0
2,note_on,53,0,480
2,note_on,55,45,0
2,note_on,55,0,480
2,note_on,58,55,0
2,note_on,61,55,0
2,note_on,61,0,480
2,note_on,58,0,0
2,note_on,60,51,0
2,note_on,56,51,0
2,note_on,56,0,480
2,note_on,60,0,0
2,note_on,45,47,480
2,note_on,45,0,120
2,note_on,46,50,0
2,note_on,46,0,120
2,note_on,48,53,0
2,note_on,48,0,120
2,note_on,46,51,0
2,note_on,46,0,110
2,note_on,46,49,10
2,note_on,46,0,480
2,note_on,39,53,480
2,note_on,51,53,0
2,note_on,51,0,480
2,note_on,39,0,0
2,note_on,51,49,480
2,note_on,60,49,0
2,note_on,60,0,480
2,note_on,51,0,0
2,note_on,60,53,0
2,note_on,53,53,0
2,note_on,53,0,480
2,note_on,60,0,0
2,note_on,58,50,0
2,note_on,62,50,0
2,note_on,62,0,480
2,note_on,58,0,0
2,note_on,60,49,0
2,note_on,63,49,0
2,note_on,63,0,240
2,note_on,60,0,0
2,note_on,44,54,240
2,note_on,56,54,0
2,note_on,56,0,480
2,note_on,44,0,0
2,note_on,46,50,0
2,note_on,55,50,0
2,note_on,55,0,480
2,note_on,56,40,0
2,note_on,56,0,480
2,note_on,46,0,0
2,note_on,51,32,0
2,note_on,51,0,120
2,note_on,55,32,0
2,note_on,55,0,120
2,note_on,58,30,0
2,note_on,58,0,120
2,note_on,55,27,0
2,note_on,55,0,120
2,note_on,51,33,0
2,note_on,51,0,120
2,note_on,55,29,0
2,note_on,55,0,120
2,note_on,58,31,0
2,note_on,58,0,120
2,note_on,55,29,0
2,note_on,55,0,120
2,note_on,51,33,0
2,note_on,51,0,120
2,note_on,55,29,0
2,note_on,55,0,120
2,note_on,58,31,0
2,note_on,58,0,120
2,note_on,55,29,0
2,note_on,55,0,120
2,note_on,51,36,0
2,note_on,51,0,120
2,note_on,53,27,0
2,note_on,53,0,120
2,note_on,56,30,0
2,note_on,56,0,120
2,note_on,53,27,0
2,note_on,53,0,120
2,note_on,51,32,0
2,note_on,51,0,120
2,note_on,53,27,0
2,note_on,53,0,120
2,note_on,56,30,0
2,note_on,56,0,120
2,note_on,53,27,0
2,note_on,53,0,120
2,note_on,51,32,0
2,note_on,51,0,120
2,note_on,53,27,0
2,note_on,53,0,120
2,note_on,56,30,0
2,note_on,56,0,120
2,note_on,53,27,0
2,note_on,53,0,120
2,note_on,51,33,0
2,note_on,51,0,120
2,note_on,55,27,0
2,note_on,55,0,120
2,note_on,58,30,0
2,note_on,58,0,120
2,note_on,55,27,0
2,note_on,55,0,120
2,note_on,51,29,0
2,note_on,51,0,120
2,note_on,55,27,0
2,note_on,55,0,120
2,note_on,58,30,0
2,note_on,58,0,120
2,note_on,55,27,0
2,note_on,55,0,120
2,note_on,51,29,0
2,note_on,51,0,120
2,note_on,55,27,0
2,note_on,55,0,120
2,note_on,58,30,0
2,note_on,58,0,120
2,note_on,55,27,0
2,note_on,55,0,120
2,note_on,51,35,0
2,note_on,51,0,120
2,note_on,53,29,0
2,note_on,53,0,120
2,note_on,56,30,0
2,note_on,56,0,120
2,note_on,53,29,0
2,note_on,53,0,120
2,note_on,51,32,0
2,note_on,51,0,120
2,note_on,53,27,0
2,note_on,53,0,120
2,note_on,56,27,0
2,note_on,56,0,120
2,note_on,53,27,0
2,note_on,53,0,120
2,note_on,51,32,0
2,note_on,51,0,120
2,note_on,53,27,0
2,note_on,53,0,120
2,note_on,56,27,0
2,note_on,56,0,120
2,note_on,53,27,0
2,note_on,53,0,120
2,note_on,55,27,0
2,note_on,51,27,0
2,note_on,51,0,480
2,note_on,55,0,0
2,note_on,58,32,240
2,note_on,55,32,0
2,note_on,55,0,240
2,note_on,58,0,0
2,note_on,56,34,0
2,note_on,60,34,0
2,note_on,60,0,240
2,note_on,56,0,0
2,note_on,57,35,0
2,note_on,60,35,0
2,note_on,60,0,240
2,note_on,57,0,0
2,note_on,58,37,0
2,note_on,58,0,480
2,note_on,58,46,240
2,note_on,58,0,240
2,note_on,53,46,0
2,note_on,53,0,240
2,note_on,50,46,0
2,note_on,50,0,240
2,note_on,46,53,0
2,note_on,46,0,240
2,note_on,50,45,0
2,note_on,50,0,240
2,note_on,53,47,0
2,note_on,53,0,240
2,note_on,58,45,0
2,note_on,58,0,240
2,note_on,65,51,0
2,note_on,63,51,0
2,note_on,63,0,240
2,note_on,62,47,0
2,note_on,62,0,240
2,note_on,65,0,0
2,note_on,63,51,0
2,note_on,60,51,0
2,note_on,60,0,240
2,note_on,63,0,0
2,note_on,62,47,0
2,note_on,58,47,0
2,note_on,58,0,240
2,note_on,62,0,0
2,note_on,60,47,0
2,note_on,57,47,0
2,note_on,57,0,240
2,note_on,60,0,0
2,note_on,53,45,960
2,note_on,53,0,240
2,note_on,57,45,0
2,note_on,57,0,240
2,note_on,60,45,0
2,note_on,60,0,240
2,note_on,62,50,0
2,note_on,62,0,240
2,note_on,63,45,0
2,note_on,65,45,0
2,note_on,63,0,240
2,note_on,62,51,0
2,note_on,62,0,240
2,note_on,65,0,0
2,note_on,60,45,0
2,note_on,63,45,0
2,note_on,63,0,240
2,note_on,60,0,0
2,note_on,62,50,0
2,note_on,58,50,0
2,note_on,58,0,240
2,note_on,62,0,0
2,note_on,46,54,0
2,note_on,46,0,216
2,note_on,46,57,24
2,note_on,46,0,216
2,note_on,46,54,24
2,note_on,46,0,216
2,note_on,50,54,264
2,note_on,50,0,240
2,note_on,53,56,0
2,note_on,53,0,240
2,note_on,56,52,0
2,note_on,56,0,240
2,note_on,55,56,0
2,note_on,55,0,240
2,note_on,50,53,0
2,note_on,50,0,120
2,note_on,58,53,360
2,note_on,51,53,0
2,note_on,51,0,240
2,note_on,58,0,0
2,note_on,58,53,0
2,note_on,51,53,0
2,note_on,51,0,240
2,note_on,58,0,0
2,note_on,59,55,0
2,note_on,51,55,0
2,note_on,51,0,240
2,note_on,59,0,0
2,note_on,51,55,0
2,note_on,60,55,0
2,note_on,60,0,240
2,note_on,51,0,0
2,note_on,57,53,0
2,note_on,51,53,0
2,note_on,51,0,240
2,note_on,57,0,0
2,note_on,58,54,0
2,note_on,50,54,0
2,note_on,50,0,240
2,note_on,58,0,0
2,note_on,51,50,0
2,note_on,58,50,0
2,note_on,58,0,240
2,note_on,51,0,0
2,note_on,53,50,0
2,note_on,62,50,0
2,note_on,62,0,240
2,note_on,53,0,0
2,note_on,62,46,0
2,note_on,53,46,0
2,note_on,53,0,240
2,note_on,62,0,0
2,note_on,63,42,0
2,note_on,53,42,0
2,note_on,53,0,240
2,note_on,63,0,0
2,note_on,63,42,0
2,note_on,53,42,0
2,note_on,53,0,240
2,note_on,63,0,0
2,note_on,62,45,0
2,note_on,58,45,0
2,note_on,58,0,120
2,note_on,62,0,0
2,note_on,58,50,0
2,note_on,58,0,120
2,note_on,62,54,0
2,note_on,62,0,120
2,note_on,65,57,0
2,note_on,65,0,120
2,note_on,63,63,0
2,note_on,63,0,120
2,note_on,65,54,0
2,note_on,65,0,120
2,note_on,62,63,0
2,note_on,62,0,120
2,note_on,65,54,0
2,note_on,65,0,120
2,note_on,60,63,0
2,note_on,60,0,120
2,note_on,65,56,0
2,note_on,65,0,120
2,note_on,58,63,0
2,note_on,58,0,120
2,note_on,65,55,0
2,note_on,65,0,120
2,note_on,57,63,0
2,note_on,57,0,120
2,note_on,60,53,0
2,note_on,60,0,120
2,note_on,63,56,0
2,note_on,63,0,120
2,note_on,62,53,0
2,note_on,62,0,120
2,note_on,60,61,0
2,note_on,60,0,120
2,note_on,58,54,0
2,note_on,58,0,120
2,note_on,57,56,0
2,note_on,57,0,120
2,note_on,55,54,0
2,note_on,55,0,120
2,note_on,53,56,0
2,note_on,53,0,120
2,note_on,55,54,0
2,note_on,55,0,120
2,note_on,51,56,0
2,note_on,51,0,120
2,note_on,53,54,0
2,note_on,53,0,120
2,note_on,50,61,0
2,note_on,50,0,120
2,note_on,53,52,0
2,note_on,53,0,120
2,note_on,58,54,0
2,note_on,58,0,120
2,note_on,53,51,0
2,note_on,53,0,120
2,note_on,62,57,0
2,note_on,62,0,120
2,note_on,58,41,120
2,note_on,62,41,0
2,note_on,62,0,240
2,note_on,58,0,0
2,note_on,60,43,0
2,note_on,63,43,0
2,note_on,63,0,240
2,note_on,60,0,0
2,note_on,65,39,0
2,note_on,62,39,0
2,note_on,62,0,240
2,note_on,65,0,0
2,note_on,67,46,0
2,note_on,63,46,0
2,note_on,63,0,480
2,note_on,67,0,0
2,note_on,60,41,240
2,note_on,51,41,0
2,note_on,51,0,240
2,note_on,60,0,0
2,note_on,62,43,0
2,note_on,53,43,0
2,note_on,62,0,240
2,note_on,63,42,0
2,note_on,63,0,240
2,note_on,53,0,0
2,note_on,63,45,0
2,note_on,58,45,0
2,note_on,63,0,480
2,note_on,62,35,0
2,note_on,62,0,120
2,note_on,58,0,0
2,note_on,58,51,0
2,note_on,58,0,120
2,note_on,62,54,0
2,note_on,62,0,120
2,note_on,65,51,0
2,note_on,65,0,120
2,note_on,63,57,0
2,note_on,63,0,120
2,note_on,62,54,0
2,note_on,62,0,120
2,note_on,60,55,0
2,note_on,60,0,120
2,note_on,58,53,0
2,note_on,58,0,120
2,note_on,57,63,0
2,note_on,57,0,120
2,note_on,60,54,0
2,note_on,60,0,120
2,note_on,63,56,0
2,note_on,63,0,120
2,note_on,62,54,0
2,note_on,62,0,120
2,note_on,60,61,0
2,note_on,60,0,120
2,note_on,58,54,0
2,note_on,58,0,120
2,note_on,57,56,0
2,note_on,57,0,120
2,note_on,55,54,0
2,note_on,55,0,120
2,note_on,53,56,0
2,note_on,53,0,120
2,note_on,55,54,0
2,note_on,55,0,120
2,note_on,51,56,0
2,note_on,51,0,120
2,note_on,53,54,0
2,note_on,53,0,120
2,note_on,50,61,0
2,note_on,50,0,120
2,note_on,53,46,0
2,note_on,53,0,120
2,note_on,58,51,0
2,note_on,58,0,120
2,note_on,53,45,0
2,note_on,53,0,120
2,note_on,62,50,0
2,note_on,62,0,120
2,note_on,58,41,120
2,note_on,62,41,0
2,note_on,62,0,240
2,note_on,58,0,0
2,note_on,60,43,0
2,note_on,63,43,0
2,note_on,63,0,240
2,note_on,60,0,0
2,note_on,65,42,0
2,note_on,62,42,0
2,note_on,62,0,240
2,note_on,65,0,0
2,note_on,63,43,0
2,note_on,67,43,0
2,note_on,67,0,480
2,note_on,63,0,0
2,note_on,57,43,480
2,note_on,63,43,0
2,note_on,53,43,0
2,note_on,57,0,240
2,note_on,60,43,0
2,note_on,60,0,240
2,note_on,53,0,0
2,note_on,63,0,0
2,note_on,58,43,0
2,note_on,58,0,120
2,note_on,62,39,0
2,note_on,62,0,120
2,note_on,65,40,0
2,note_on,65,0,120
2,note_on,62,42,0
2,note_on,62,0,120
2,note_on,58,46,0
2,note_on,58,0,120
2,note_on,62,44,0
2,note_on,62,0,120
2,note_on,65,45,0
2,note_on,65,0,120
2,note_on,62,46,0
2,note_on,62,0,120
2,note_on,63,53,0
2,note_on,63,0,120
2,note_on,60,50,0
2,note_on,60,0,120
2,note_on,65,51,0
2,note_on,65,0,120
2,note_on,63,53,0
2,note_on,63,0,120
2,note_on,62,56,0
2,note_on,62,0,120
2,note_on,65,51,0
2,note_on,65,0,120
2,note_on,62,53,0
2,note_on,62,0,120
2,note_on,60,50,0
2,note_on,60,0,120
2,note_on,58,64,0
2,note_on,58,0,120
2,note_on,56,56,0
2,note_on,56,0,120
2,note_on,53,59,0
2,note_on,53,0,120
2,note_on,50,56,0
2,note_on,50,0,120
2,note_on,51,64,0
2,note_on,51,0,120
2,note_on,48,59,0
2,note_on,48,0,120
2,note_on,53,64,0
2,note_on,53,0,120
2,note_on,41,54,0
2,note_on,41,0,120
2,note_on,46,46,0
2,note_on,46,0,720
2,note_on,56,42,0
2,note_on,56,0,240
2,note_on,55,45,0
2,note_on,55,0,240
2,note_on,53,49,0
2,note_on,53,0,240
2,note_on,51,51,1
2,note_on,51,0,960
2,note_on,51,50,479
2,note_on,51,0,480
2,note_on,53,46,0
2,note_on,53,0,480
2,note_on,55,45,0
2,note_on,55,0,480
2,note_on,58,55,0
2,note_on,61,55,0
2,note_on,61,0,480
2,note_on,58,0,0
2,note_on,60,51,0
2,note_on,56,51,0
2,note_on,56,0,480
2,note_on,60,0,0
2,note_on,45,47,480
2,note_on,45,0,120
2,note_on,46,50,0
2,note_on,46,0,120
2,note_on,48,53,0
2,note_on,48,0,120
2,note_on,46,51,0
2,note_on,46,0,110
2,note_on,46,49,10
2,note_on,46,0,480
2,note_on,39,53,480
2,note_on,51,53,0
2,note_on,51,0,480
2,note_on,39,0,0
2,note_on,51,49,480
2,note_on,60,49,0
2,note_on,60,0,480
2,note_on,51,0,0
2,note_on,60,53,0
2,note_on,53,53,0
2,note_on,53,0,480
2,note_on,60,0,0
2,note_on,58,50,0
2,note_on,62,50,0
2,note_on,62,0,480
2,note_on,58,0,0
2,note_on,60,49,0
2,note_on,63,49,0
2,note_on,63,0,240
2,note_on,60,0,0
2,note_on,44,54,240
2,note_on,56,54,0
2,note_on,56,0,480
2,note_on,44,0,0
2,note_on,46,50,0
2,note_on,55,50,0
2,note_on,55,0,480
2,note_on,56,40,0
2,note_on,56,0,480
2,note_on,46,0,0
2,note_on,51,32,0
2,note_on,51,0,120
2,note_on,55,32,0
2,note_on,55,0,120
2,note_on,58,30,0
2,note_on,58,0,120
2,note_on,55,27,0
2,note_on,55,0,120
2,note_on,51,33,0
2,note_on,51,0,120
2,note_on,55,29,0
2,note_on,55,0,120
2,note_on,58,31,0
2,note_on,58,0,120
2,note_on,55,29,0
2,note_on,55,0,120
2,note_on,51,33,0
2,note_on,51,0,120
2,note_on,55,29,0
2,note_on,55,0,120
2,note_on,58,31,0
2,note_on,58,0,120
2,note_on,55,29,0
2,note_on,55,0,120
2,note_on,51,36,0
2,note_on,51,0,120
2,note_on,53,27,0
2,note_on,53,0,120
2,note_on,56,30,0
2,note_on,56,0,120
2,note_on,53,27,0
2,note_on,53,0,120
2,note_on,51,32,0
2,note_on,51,0,120
2,note_on,53,27,0
2,note_on,53,0,120
2,note_on,56,30,0
2,note_on,56,0,120
2,note_on,53,27,0
2,note_on,53,0,120
2,note_on,51,32,0
2,note_on,51,0,120
2,note_on,53,27,0
2,note_on,53,0,120
2,note_on,56,30,0
2,note_on,56,0,120
2,note_on,53,27,0
2,note_on,53,0,120
2,note_on,51,33,0
2,note_on,51,0,120
2,note_on,55,27,0
2,note_on,55,0,120
2,note_on,58,30,0
2,note_on,58,0,120
2,note_on,55,27,0
2,note_on,55,0,120
2,note_on,51,29,0
2,note_on,51,0,120
2,note_on,55,27,0
2,note_on,55,0,120
2,note_on,58,30,0
2,note_on,58,0,120
2,note_on,55,27,0
2,note_on,55,0,120
2,note_on,51,29,0
2,note_on,51,0,120
2,note_on,55,27,0
2,note_on,55,0,120
2,note_on,58,30,0
2,note_on,58,0,120
2,note_on,55,27,0
2,note_on,55,0,120
2,note_on,51,35,0
2,note_on,51,0,120
2,note_on,53,29,0
2,note_on,53,0,120
2,note_on,56,30,0
2,note_on,56,0,120
2,note_on,53,29,0
2,note_on,53,0,120
2,note_on,51,32,0
2,note_on,51,0,120
2,note_on,53,27,0
2,note_on,53,0,120
2,note_on,56,27,0
2,note_on,56,0,120
2,note_on,53,27,0
2,note_on,53,0,120
2,note_on,51,32,0
2,note_on,51,0,120
2,note_on,53,27,0
2,note_on,53,0,120
2,note_on,56,27,0
2,note_on,56,0,120
2,note_on,53,27,0
2,note_on,53,0,120
2,note_on,55,27,0
2,note_on,51,27,0
2,note_on,51,0,480
2,note_on,55,0,0
2,note_on,58,32,240
2,note_on,55,32,0
2,note_on,55,0,240
2,note_on,58,0,0
2,note_on,56,34,0
2,note_on,60,34,0
2,note_on,60,0,240
2,note_on,56,0,0
2,note_on,57,35,0
2,note_on,60,35,0
2,note_on,60,0,240
2,note_on,57,0,0
2,note_on,58,37,0
2,note_on,58,0,480
2,note_on,58,46,240
2,note_on,58,0,240
2,note_on,53,46,0
2,note_on,53,0,240
2,note_on,50,46,0
2,note_on,50,0,240
2,note_on,46,53,0
2,note_on,46,0,240
2,note_on,50,45,0
2,note_on,50,0,240
2,note_on,53,47,0
2,note_on,53,0,240
2,note_on,58,45,0
2,note_on,58,0,240
2,note_on,65,51,0
2,note_on,63,51,0
2,note_on,63,0,240
2,note_on,62,47,0
2,note_on,62,0,240
2,note_on,65,0,0
2,note_on,63,51,0
2,note_on,60,51,0
2,note_on,60,0,240
2,note_on,63,0,0
2,note_on,62,47,0
2,note_on,58,47,0
2,note_on,58,0,240
2,note_on,62,0,0
2,note_on,60,47,0
2,note_on,57,47,0
2,note_on,57,0,240
2,note_on,60,0,0
2,note_on,53,45,960
2,note_on,53,0,240
2,note_on,57,45,0
2,note_on,57,0,240
2,note_on,60,45,0
2,note_on,60,0,240
2,note_on,62,50,0
2,note_on,62,0,240
2,note_on,63,45,0
2,note_on,65,45,0
2,note_on,63,0,240
2,note_on,62,51,0
2,note_on,62,0,240
2,note_on,65,0,0
2,note_on,60,45,0
2,note_on,63,45,0
2,note_on,63,0,240
2,note_on,60,0,0
2,note_on,62,50,0
2,note_on,58,50,0
2,note_on,58,0,240
2,note_on,62,0,0
2,note_on,46,54,0
2,note_on,46,0,216
2,note_on,46,57,24
2,note_on,46,0,216
2,note_on,46,54,24
2,note_on,46,0,216
2,note_on,50,54,264
2,note_on,50,0,240
2,note_on,53,56,0
2,note_on,53,0,240
2,note_on,56,52,0
2,note_on,56,0,240
2,note_on,55,56,0
2,note_on,55,0,240
2,note_on,50,53,0
2,note_on,50,0,120
2,note_on,58,53,360
2,note_on,51,53,0
2,note_on,51,0,240
2,note_on,58,0,0
2,note_on,58,53,0
2,note_on,51,53,0
2,note_on,51,0,240
2,note_on,58,0,0
2,note_on,59,55,0
2,note_on,51,55,0
2,note_on,51,0,240
2,note_on,59,0,0
2,note_on,51,55,0
2,note_on,60,55,0
2,note_on,60,0,240
2,note_on,51,0,0
2,note_on,57,53,0
2,note_on,51,53,0
2,note_on,51,0,240
2,note_on,57,0,0
2,note_on,58,54,0
2,note_on,50,54,0
2,note_on,50,0,240
2,note_on,58,0,0
2,note_on,51,50,0
2,note_on,58,50,0
2,note_on,58,0,240
2,note_on,51,0,0
2,note_on,53,50,0
2,note_on,62,50,0
2,note_on,62,0,240
2,note_on,53,0,0
2,note_on,62,46,0
2,note_on,53,46,0
2,note_on,53,0,240
2,note_on,62,0,0
2,note_on,63,42,0
2,note_on,53,42,0
2,note_on,53,0,240
2,note_on,63,0,0
2,note_on,63,42,0
2,note_on,53,42,0
2,note_on,53,0,240
2,note_on,63,0,0
2,note_on,62,45,0
2,note_on,58,45,0
2,note_on,58,0,120
2,note_on,62,0,0
2,note_on,58,50,0
2,note_on,58,0,120
2,note_on,62,54,0
2,note_on,62,0,120
2,note_on,65,57,0
2,note_on,65,0,120
2,note_on,63,63,0
2,note_on,63,0,120
2,note_on,65,54,0
2,note_on,65,0,120
2,note_on,62,63,0
2,note_on,62,0,120
2,note_on,65,54,0
2,note_on,65,0,120
2,note_on,60,63,0
2,note_on,60,0,120
2,note_on,65,56,0
2,note_on,65,0,120
2,note_on,58,63,0
2,note_on,58,0,120
2,note_on,65,55,0
2,note_on,65,0,120
2,note_on,57,63,0
2,note_on,57,0,120
2,note_on,60,53,0
2,note_on,60,0,120
2,note_on,63,56,0
2,note_on,63,0,120
2,note_on,62,53,0
2,note_on,62,0,120
2,note_on,60,61,0
2,note_on,60,0,120
2,note_on,58,54,0
2,note_on,58,0,120
2,note_on,57,56,0
2,note_on,57,0,120
2,note_on,55,54,0
2,note_on,55,0,120
2,note_on,53,56,0
2,note_on,53,0,120
2,note_on,55,54,0
2,note_on,55,0,120
2,note_on,51,56,0
2,note_on,51,0,120
2,note_on,53,54,0
2,note_on,53,0,120
2,note_on,50,61,0
2,note_on,50,0,120
2,note_on,53,52,0
2,note_on,53,0,120
2,note_on,58,54,0
2,note_on,58,0,120
2,note_on,53,51,0
2,note_on,53,0,120
2,note_on,62,57,0
2,note_on,62,0,120
2,note_on,58,41,120
2,note_on,62,41,0
2,note_on,62,0,240
2,note_on,58,0,0
2,note_on,60,43,0
2,note_on,63,43,0
2,note_on,63,0,240
2,note_on,60,0,0
2,note_on,65,39,0
2,note_on,62,39,0
2,note_on,62,0,240
2,note_on,65,0,0
2,note_on,67,46,0
2,note_on,63,46,0
2,note_on,63,0,480
2,note_on,67,0,0
2,note_on,60,41,240
2,note_on,51,41,0
2,note_on,51,0,240
2,note_on,60,0,0
2,note_on,62,43,0
2,note_on,53,43,0
2,note_on,62,0,240
2,note_on,63,42,0
2,note_on,63,0,240
2,note_on,53,0,0
2,note_on,63,45,0
2,note_on,58,45,0
2,note_on,63,0,480
2,note_on,62,35,0
2,note_on,62,0,120
2,note_on,58,0,0
2,note_on,58,51,0
2,note_on,58,0,120
2,note_on,62,54,0
2,note_on,62,0,120
2,note_on,65,51,0
2,note_on,65,0,120
2,note_on,63,57,0
2,note_on,63,0,120
2,note_on,62,54,0
2,note_on,62,0,120
2,note_on,60,55,0
2,note_on,60,0,120
2,note_on,58,53,0
2,note_on,58,0,120
2,note_on,57,63,0
2,note_on,57,0,120
2,note_on,60,54,0
2,note_on,60,0,120
2,note_on,63,56,0
2,note_on,63,0,120
2,note_on,62,54,0
2,note_on,62,0,120
2,note_on,60,61,0
2,note_on,60,0,120
2,note_on,58,54,0
2,note_on,58,0,120
2,note_on,57,56,0
2,note_on,57,0,120
2,note_on,55,54,0
2,note_on,55,0,120
2,note_on,53,56,0
2,note_on,53,0,120
2,note_on,55,54,0
2,note_on,55,0,120
2,note_on,51,56,0
2,note_on,51,0,120
2,note_on,53,54,0
2,note_on,53,0,120
2,note_on,50,61,0
2,note_on,50,0,120
2,note_on,53,46,0
2,note_on,53,0,120
2,note_on,58,51,0
2,note_on,58,0,120
2,note_on,53,45,0
2,note_on,53,0,120
2,note_on,62,50,0
2,note_on,62,0,120
2,note_on,58,41,120
2,note_on,62,41,0
2,note_on,62,0,240
2,note_on,58,0,0
2,note_on,60,43,0
2,note_on,63,43,0
2,note_on,63,0,240
2,note_on,60,0,0
2,note_on,65,42,0
2,note_on,62,42,0
2,note_on,62,0,240
2,note_on,65,0,0
2,note_on,63,43,0
2,note_on,67,43,0
2,note_on,67,0,480
2,note_on,63,0,0
2,note_on,57,43,480
2,note_on,63,43,0
2,note_on,53,43,0
2,note_on,57,0,240
2,note_on,60,43,0
2,note_on,60,0,240
2,note_on,53,0,0
2,note_on,63,0,0
2,note_on,58,43,0
2,note_on,58,0,120
2,note_on,62,39,0
2,note_on,62,0,120
2,note_on,65,40,0
2,note_on,65,0,120
2,note_on,62,42,0
2,note_on,62,0,120
2,note_on,58,46,0
2,note_on,58,0,120
2,note_on,62,44,0
2,note_on,62,0,120
2,note_on,65,45,0
2,note_on,65,0,120
2,note_on,62,46,0
2,note_on,62,0,120
2,note_on,63,53,0
2,note_on,63,0,120
2,note_on,60,50,0
2,note_on,60,0,120
2,note_on,65,51,0
2,note_on,65,0,120
2,note_on,63,53,0
2,note_on,63,0,120
2,note_on,62,56,0
2,note_on,62,0,120
2,note_on,65,51,0
2,note_on,65,0,120
2,note_on,62,53,0
2,note_on,62,0,120
2,note_on,60,50,0
2,note_on,60,0,120
2,note_on,58,64,0
2,note_on,58,0,120
2,note_on,56,56,0
2,note_on,56,0,120
2,note_on,53,59,0
2,note_on,53,0,120
2,note_on,50,56,0
2,note_on,50,0,120
2,note_on,51,64,0
2,note_on,51,0,120
2,note_on,48,59,0
2,note_on,48,0,120
2,note_on,53,64,0
2,note_on,53,0,120
2,note_on,41,54,0
2,note_on,41,0,120
2,note_on,46,46,0
2,note_on,46,0,720
2,note_on,56,42,0
2,note_on,56,0,240
2,note_on,55,45,0
2,note_on,55,0,240
2,note_on,53,49,0
2,note_on,53,0,240
2,note_on,52,56,0
2,note_on,52,0,960
2,note_on,48,46,0
2,note_on,48,0,480
2,note_on,49,53,0
2,note_on,49,0,960
2,note_on,60,43,0
2,note_on,56,43,0
2,note_on,56,0,480
2,note_on,60,0,0
2,note_on,58,43,0
2,note_on,61,43,0
2,note_on,61,0,480
2,note_on,58,0,0
2,note_on,60,43,480
2,note_on,70,43,0
2,note_on,70,0,480
2,note_on,60,0,0
2,note_on,65,43,0
2,note_on,70,43,0
2,note_on,70,0,480
2,note_on,68,36,0
2,note_on,68,0,240
2,note_on,65,0,0
2,note_on,41,45,0
2,note_on,41,0,216
2,note_on,41,46,24
2,note_on,41,0,216
2,note_on,41,44,24
2,note_on,41,0,216
2,note_on,41,52,24
2,note_on,41,0,1440
2,note_on,41,42,0
2,note_on,41,0,720
2,note_on,41,45,0
2,note_on,41,0,216
2,note_on,41,46,24
2,note_on,41,0,216
2,note_on,41,45,24
2,note_on,41,0,216
2,note_on,42,54,24
2,note_on,42,0,1440
2,note_on,43,49,0
2,note_on,43,0,720
2,note_on,43,48,0
2,note_on,43,0,216
2,note_on,43,50,24
2,note_on,43,0,216
2,note_on,43,47,24
2,note_on,43,0,216
2,note_on,44,55,24
2,note_on,44,0,960
2,note_on,45,62,0
2,note_on,45,0,480
2,note_on,46,62,0
2,note_on,46,0,480
2,note_on,49,48,0
2,note_on,49,0,480
2,note_on,48,54,0
2,note_on,48,0,480
2,note_on,49,44,0
2,note_on,49,0,480
2,note_on,51,43,0
2,note_on,60,43,0
2,note_on,60,0,480
2,note_on,51,0,0
2,note_on,51,36,0
2,note_on,61,36,0
2,note_on,61,0,480
2,note_on,51,0,0
2,note_on,56,33,0
2,note_on,56,0,120
2,note_on,60,26,0
2,note_on,60,0,120
2,note_on,63,27,0
2,note_on,63,0,120
2,note_on,60,25,0
2,note_on,60,0,120
2,note_on,56,30,0
2,note_on,56,0,120
2,note_on,60,26,0
2,note_on,60,0,120
2,note_on,63,29,0
2,note_on,63,0,120
2,note_on,60,26,0
2,note_on,60,0,120
2,note_on,56,33,0
2,note_on,56,0,120
2,note_on,60,27,0
2,note_on,60,0,120
2,note_on,63,29,0
2,note_on,63,0,120
2,note_on,60,27,0
2,note_on,60,0,120
2,note_on,55,36,0
2,note_on,55,0,120
2,note_on,58,26,0
2,note_on,58,0,120
2,note_on,60,27,0
2,note_on,60,0,120
2,note_on,58,26,0
2,note_on,58,0,120
2,note_on,55,32,0
2,note_on,55,0,120
2,note_on,58,26,0
2,note_on,58,0,120
2,note_on,60,27,0
2,note_on,60,0,120
2,note_on,58,25,0
2,note_on,58,0,120
2,note_on,55,32,0
2,note_on,55,0,120
2,note_on,58,27,0
2,note_on,58,0,120
2,note_on,60,27,0
2,note_on,60,0,120
2,note_on,58,25,0
2,note_on,58,0,120
2,note_on,53,36,0
2,note_on,53,0,120
2,note_on,56,27,0
2,note_on,56,0,120
2,note_on,60,30,0
2,note_on,60,0,120
2,note_on,56,27,0
2,note_on,56,0,120
2,note_on,53,32,0
2,note_on,53,0,120
2,note_on,56,26,0
2,note_on,56,0,120
2,note_on,60,27,0
2,note_on,60,0,120
2,note_on,56,26,0
2,note_on,56,0,120
2,note_on,53,32,0
2,note_on,53,0,120
2,note_on,56,27,0
2,note_on,56,0,120
2,note_on,60,29,0
2,note_on,60,0,120
2,note_on,56,27,0
2,note_on,56,0,120
2,note_on,51,36,0
2,note_on,51,0,120
2,note_on,54,30,0
2,note_on,54,0,120
2,note_on,56,32,0
2,note_on,56,0,120
2,note_on,54,29,0
2,note_on,54,0,120
2,note_on,51,36,0
2,note_on,51,0,120
2,note_on,54,29,0
2,note_on,54,0,120
2,note_on,56,32,0
2,note_on,56,0,120
2,note_on,54,29,0
2,note_on,54,0,120
2,note_on,51,35,0
2,note_on,51,0,120
2,note_on,54,29,0
2,note_on,54,0,120
2,note_on,56,31,0
2,note_on,56,0,120
2,note_on,54,27,0
2,note_on,54,0,120
2,note_on,49,40,0
2,note_on,49,0,120
2,note_on,52,34,0
2,note_on,52,0,120
2,note_on,56,36,0
2,note_on,56,0,120
2,note_on,52,33,0
2,note_on,52,0,120
2,note_on,49,40,0
2,note_on,49,0,120
2,note_on,52,33,0
2,note_on,52,0,120
2,note_on,56,36,0
2,note_on,56,0,120
2,note_on,52,33,0
2,note_on,52,0,120
2,note_on,47,39,0
2,note_on,47,0,120
2,note_on,51,34,0
2,note_on,51,0,120
2,note_on,56,36,0
2,note_on,56,0,120
2,note_on,51,33,0
2,note_on,51,0,120
2,note_on,46,36,0
2,note_on,53,36,0
2,note_on,53,0,720
2,note_on,46,0,0
2,note_on,46,29,0
2,note_on,53,29,0
2,note_on,53,0,240
2,note_on,46,0,0
2,note_on,46,32,0
2,note_on,53,32,0
2,note_on,53,0,240
2,note_on,46,0,0
2,note_on,46,29,0
2,note_on,53,29,0
2,note_on,53,0,240
2,note_on,46,0,0
2,note_on,46,32,0
2,note_on,53,32,0
2,note_on,53,0,480
2,note_on,46,0,0
2,note_on,65,27,240
2,note_on,58,27,0
2,note_on,58,0,216
2,note_on,65,0,0
2,note_on,65,27,24
2,note_on,58,27,0
2,note_on,58,0,216
2,note_on,65,0,0
2,note_on,65,27,24
2,note_on,58,27,0
2,note_on,58,0,216
2,note_on,65,0,0
2,note_on,58,31,24
2,note_on,65,31,0
2,note_on,65,0,480
2,note_on,58,0,0
2,note_on,51,39,1
2,note_on,51,0,960
2,note_on,51,37,479
2,note_on,51,0,120
2,note_on,55,33,0
2,note_on,55,0,120
2,note_on,58,36,0
2,note_on,58,0,120
2,note_on,51,33,0
2,note_on,51,0,120
2,note_on,53,40,0
2,note_on,53,0,120
2,note_on,56,32,0
2,note_on,56,0,120
2,note_on,62,35,0
2,note_on,62,0,120
2,note_on,53,33,0
2,note_on,53,0,120
2,note_on,55,40,0
2,note_on,55,0,120
2,note_on,58,32,0
2,note_on,58,0,120
2,note_on,63,36,0
2,note_on,63,0,120
2,note_on,55,33,0
2,note_on,55,0,120
2,note_on,56,41,0
2,note_on,60,41,0
2,note_on,60,0,1440
2,note_on,56,0,0
2,note_on,45,44,0
2,note_on,45,0,120
2,note_on,46,46,0
2,note_on,46,0,120
2,note_on,48,49,0
2,note_on,48,0,120
2,note_on,46,45,0
2,note_on,46,0,110
2,note_on,46,45,10
2,note_on,46,0,480
2,note_on,39,45,480
2,note_on,51,45,0
2,note_on,51,0,480
2,note_on,39,0,0
2,note_on,51,53,480
2,note_on,60,53,0
2,note_on,60,0,480
2,note_on,51,0,0
2,note_on,53,51,0
2,note_on,60,51,0
2,note_on,60,0,480
2,note_on,53,0,0
2,note_on,58,46,0
2,note_on,62,46,0
2,note_on,58,0,240
2,note_on,59,40,0
2,note_on,59,0,240
2,note_on,62,0,0
2,note_on,63,47,0
2,note_on,60,47,0
2,note_on,60,0,240
2,note_on,55,45,0
2,note_on,55,0,240
2,note_on,56,50,0
2,note_on,56,0,240
2,note_on,63,0,0
2,note_on,46,51,240
2,note_on,55,51,0
2,note_on,55,0,480
2,note_on,56,37,0
2,note_on,56,0,480
2,note_on,46,0,0
2,note_on,51,30,0
2,note_on,51,0,120
2,note_on,55,26,0
2,note_on,55,0,120
2,note_on,58,27,0
2,note_on,58,0,120
2,note_on,55,27,0
2,note_on,55,0,120
2,note_on,51,30,0
2,note_on,51,0,120
2,note_on,55,27,0
2,note_on,55,0,120
2,note_on,58,29,0
2,note_on,58,0,120
2,note_on,55,27,0
2,note_on,55,0,120
2,note_on,51,33,0
2,note_on,51,0,120
2,note_on,55,27,0
2,note_on,55,0,120
2,note_on,58,29,0
2,note_on,58,0,120
2,note_on,55,27,0
2,note_on,55,0,120
2,note_on,51,36,0
2,note_on,51,0,120
2,note_on,53,27,0
2,note_on,53,0,120
2,note_on,56,30,0
2,note_on,56,0,120
2,note_on,53,27,0
2,note_on,53,0,120
2,note_on,51,32,0
2,note_on,51,0,120
2,note_on,53,27,0
2,note_on,53,0,120
2,note_on,56,27,0
2,note_on,56,0,120
2,note_on,53,26,0
2,note_on,53,0,120
2,note_on,51,32,0
2,note_on,51,0,120
2,note_on,53,27,0
2,note_on,53,0,120
2,note_on,56,27,0
2,note_on,56,0,120
2,note_on,53,27,0
2,note_on,53,0,120
2,note_on,51,33,0
2,note_on,51,0,120
2,note_on,55,26,0
2,note_on,55,0,120
2,note_on,58,27,0
2,note_on,58,0,120
2,note_on,55,26,0
2,note_on,55,0,120
2,note_on,51,31,0
2,note_on,51,0,120
2,note_on,55,26,0
2,note_on,55,0,120
2,note_on,58,27,0
2,note_on,58,0,120
2,note_on,55,26,0
2,note_on,55,0,120
2,note_on,51,33,0
2,note_on,51,0,120
2,note_on,55,27,0
2,note_on,55,0,120
2,note_on,58,30,0
2,note_on,58,0,120
2,note_on,55,27,0
2,note_on,55,0,120
2,note_on,51,36,0
2,note_on,51,0,120
2,note_on,53,25,0
2,note_on,53,0,120
2,note_on,56,27,0
2,note_on,56,0,120
2,note_on,53,24,0
2,note_on,53,0,120
2,note_on,51,29,0
2,note_on,51,0,120
2,note_on,53,23,0
2,note_on,53,0,120
2,note_on,56,27,0
2,note_on,56,0,120
2,note_on,53,23,0
2,note_on,53,0,120
2,note_on,51,30,0
2,note_on,51,0,120
2,note_on,53,26,0
2,note_on,53,0,120
2,note_on,56,26,0
2,note_on,56,0,120
2,note_on,53,25,0
2,note_on,53,0,120
2,note_on,51,27,0
2,note_on,55,27,0
2,note_on,55,0,480
2,note_on,51,0,0
2,note_on,55,32,240
2,note_on,55,0,240
2,note_on,56,34,0
2,note_on,56,0,240
2,note_on,57,35,0
2,note_on,57,0,240
2,note_on,58,37,0
2,note_on,58,0,600
2,note_on,59,41,0
2,note_on,59,0,120
2,note_on,60,45,0
2,note_on,60,0,120
2,note_on,58,43,0
2,note_on,58,0,110
2,note_on,58,45,10
2,note_on,58,0,120
2,note_on,56,44,0
2,note_on,56,0,120
2,note_on,55,45,0
2,note_on,55,0,120
2,note_on,53,45,0
2,note_on,53,0,120
2,note_on,51,53,0
2,note_on,51,0,240
2,note_on,55,45,0
2,note_on,55,0,240
2,note_on,58,47,0
2,note_on,58,0,240
2,note_on,63,45,0
2,note_on,63,0,240
2,note_on,68,51,0
2,note_on,68,0,240
2,note_on,67,47,0
2,note_on,67,0,240
2,note_on,68,51,0
2,note_on,65,51,0
2,note_on,65,0,240
2,note_on,68,0,0
2,note_on,67,47,0
2,note_on,63,47,0
2,note_on,63,0,240
2,note_on,67,0,0
2,note_on,62,47,0
2,note_on,65,47,0
2,note_on,65,0,240
2,note_on,62,0,0
2,note_on,58,45,960
2,note_on,58,0,240
2,note_on,62,45,0
2,note_on,62,0,240
2,note_on,65,45,0
2,note_on,65,0,240
2,note_on,67,50,0
2,note_on,67,0,240
2,note_on,70,45,0
2,note_on,68,45,0
2,note_on,68,0,240
2,note_on,67,51,0
2,note_on,67,0,240
2,note_on,70,0,0
2,note_on,65,45,0
2,note_on,68,45,0
2,note_on,68,0,240
2,note_on,65,0,0
2,note_on,63,50,0
2,note_on,67,50,0
2,note_on,67,0,240
2,note_on,63,0,0
2,note_on,39,54,0
2,note_on,51,54,0
2,note_on,51,0,216
2,note_on,39,0,0
2,note_on,39,56,24
2,note_on,51,56,0
2,note_on,51,0,216
2,note_on,39,0,0
2,note_on,39,54,24
2,note_on,51,54,0
2,note_on,51,0,216
2,note_on,39,0,0
2,note_on,63,47,264
2,note_on,55,47,0
2,note_on,55,0,216
2,note_on,63,0,0
2,note_on,55,49,24
2,note_on,63,49,0
2,note_on,63,0,216
2,note_on,55,0,0
2,note_on,55,48,24
2,note_on,63,48,0
2,note_on,63,0,216
2,note_on,55,0,0
2,note_on,55,51,24
2,note_on,63,51,0
2,note_on,63,0,216
2,note_on,55,0,0
2,note_on,55,45,24
2,note_on,63,45,0
2,note_on,63,0,216
2,note_on,55,0,0
2,note_on,55,47,264
2,note_on,63,47,0
2,note_on,55,0,240
2,note_on,56,50,0
2,note_on,56,0,240
2,note_on,63,0,0
2,note_on,63,55,0
2,note_on,56,55,0
2,note_on,56,0,216
2,note_on,63,0,0
2,note_on,56,55,24
2,note_on,63,55,0
2,note_on,63,0,216
2,note_on,56,0,0
2,note_on,56,50,24
2,note_on,63,50,0
2,note_on,63,0,216
2,note_on,56,0,0
2,note_on,55,53,24
2,note_on,63,53,0
2,note_on,63,0,240
2,note_on,55,0,0
2,note_on,56,48,0
2,note_on,63,48,0
2,note_on,63,0,240
2,note_on,56,0,0
2,note_on,46,50,0
2,note_on,55,50,0
2,note_on,55,0,216
2,note_on,46,0,0
2,note_on,46,46,24
2,note_on,55,46,0
2,note_on,55,0,216
2,note_on,46,0,0
2,note_on,46,39,24
2,note_on,56,39,0
2,note_on,56,0,216
2,note_on,46,0,0
2,note_on,46,39,24
2,note_on,56,39,0
2,note_on,56,0,216
2,note_on,46,0,0
2,note_on,51,45,24
2,note_on,55,45,0
2,note_on,55,0,120
2,note_on,51,0,0
2,note_on,51,50,0
2,note_on,51,0,120
2,note_on,55,54,0
2,note_on,55,0,120
2,note_on,58,57,0
2,note_on,58,0,120
2,note_on,56,63,0
2,note_on,56,0,120
2,note_on,58,56,0
2,note_on,58,0,120
2,note_on,55,63,0
2,note_on,55,0,120
2,note_on,58,56,0
2,note_on,58,0,120
2,note_on,53,63,0
2,note_on,53,0,120
2,note_on,58,56,0
2,note_on,58,0,120
2,note_on,51,63,0
2,note_on,51,0,120
2,note_on,58,56,0
2,note_on,58,0,120
2,note_on,50,63,0
2,note_on,50,0,120
2,note_on,53,54,0
2,note_on,53,0,120
2,note_on,56,56,0
2,note_on,56,0,120
2,note_on,55,53,0
2,note_on,55,0,120
2,note_on,53,61,0
2,note_on,53,0,120
2,note_on,51,54,0
2,note_on,51,0,120
2,note_on,50,56,0
2,note_on,50,0,120
2,note_on,48,54,0
2,note_on,48,0,120
2,note_on,46,56,0
2,note_on,46,0,120
2,note_on,48,54,0
2,note_on,48,0,120
2,note_on,44,56,0
2,note_on,44,0,120
2,note_on,46,52,0
2,note_on,46,0,120
2,note_on,43,61,0
2,note_on,43,0,120
2,note_on,46,47,0
2,note_on,46,0,120
2,note_on,51,52,0
2,note_on,51,0,120
2,note_on,46,47,0
2,note_on,46,0,120
2,note_on,55,52,0
2,note_on,55,0,120
2,note_on,51,43,120
2,note_on,55,43,0
2,note_on,55,0,240
2,note_on,51,0,0
2,note_on,53,43,0
2,note_on,56,43,0
2,note_on,56,0,240
2,note_on,53,0,0
2,note_on,55,43,0
2,note_on,58,43,0
2,note_on,58,0,240
2,note_on,55,0,0
2,note_on,56,46,0
2,note_on,60,46,0
2,note_on,60,0,480
2,note_on,56,0,0
2,note_on,44,36,240
2,note_on,53,36,0
2,note_on,53,0,240
2,note_on,44,0,0
2,note_on,46,43,0
2,note_on,55,43,0
2,note_on,55,0,240
2,note_on,56,36,0
2,note_on,56,0,230
2,note_on,46,0,10
2,note_on,51,45,0
2,note_on,56,45,0
2,note_on,56,0,480
2,note_on,55,35,0
2,note_on,55,0,120
2,note_on,51,0,0
2,note_on,63,52,0
2,note_on,63,0,120
2,note_on,67,54,0
2,note_on,67,0,120
2,note_on,70,51,0
2,note_on,70,0,120
2,note_on,68,57,0
2,note_on,68,0,120
2,note_on,67,52,0
2,note_on,67,0,120
2,note_on,65,54,0
2,note_on,65,0,120
2,note_on,63,53,0
2,note_on,63,0,120
2,note_on,62,63,0
2,note_on,62,0,120
2,note_on,65,54,0
2,note_on,65,0,120
2,note_on,68,56,0
2,note_on,68,0,120
2,note_on,67,54,0
2,note_on,67,0,120
2,note_on,65,61,0
2,note_on,65,0,120
2,note_on,63,54,0
2,note_on,63,0,120
2,note_on,62,56,0
2,note_on,62,0,120
2,note_on,60,54,0
2,note_on,60,0,120
2,note_on,58,56,0
2,note_on,58,0,120
2,note_on,60,54,0
2,note_on,60,0,120
2,note_on,56,56,0
2,note_on,56,0,120
2,note_on,58,53,0
2,note_on,58,0,120
2,note_on,55,61,0
2,note_on,55,0,120
2,note_on,58,45,0
2,note_on,58,0,120
2,note_on,60,49,0
2,note_on,60,0,120
2,note_on,62,45,0
2,note_on,62,0,120
2,note_on,63,46,0
2,note_on,63,0,120
2,note_on,63,43,120
2,note_on,67,43,0
2,note_on,67,0,240
2,note_on,63,0,0
2,note_on,65,43,0
2,note_on,68,43,0
2,note_on,68,0,240
2,note_on,65,0,0
2,note_on,67,36,0
2,note_on,70,36,0
2,note_on,70,0,240
2,note_on,67,0,0
2,note_on,68,43,0
2,note_on,72,43,0
2,note_on,72,0,240
2,note_on,68,0,0
2,note_on,62,43,720
2,note_on,58,43,0
2,note_on,68,43,0
2,note_on,62,0,240
2,note_on,65,43,0
2,note_on,65,0,240
2,note_on,68,0,0
2,note_on,58,0,0
2,note_on,63,43,0
2,note_on,63,0,120
2,note_on,67,39,0
2,note_on,67,0,120
2,note_on,70,40,0
2,note_on,70,0,120
2,note_on,67,42,0
2,note_on,67,0,120
2,note_on,63,46,0
2,note_on,63,0,120
2,note_on,67,44,0
2,note_on,67,0,120
2,note_on,70,49,0
2,note_on,70,0,120
2,note_on,67,50,0
2,note_on,67,0,120
2,note_on,68,58,0
2,note_on,68,0,120
2,note_on,65,55,0
2,note_on,65,0,120
2,note_on,70,56,0
2,note_on,70,0,120
2,note_on,68,58,0
2,note_on,68,0,120
2,note_on,67,62,0
2,note_on,67,0,120
2,note_on,70,56,0
2,note_on,70,0,120
2,note_on,67,53,0
2,note_on,67,0,120
2,note_on,65,55,0
2,note_on,65,0,120
2,note_on,63,70,0
2,note_on,63,0,120
2,note_on,61,61,0
2,note_on,61,0,120
2,note_on,58,64,0
2,note_on,58,0,120
2,note_on,55,61,0
2,note_on,55,0,120
2,note_on,56,70,0
2,note_on,56,0,120
2,note_on,53,64,0
2,note_on,53,0,120
2,note_on,58,70,0
2,note_on,58,0,120
2,note_on,46,59,0
2,note_on,46,0,120
2,note_on,51,50,0
2,note_on,51,0,720
2,note_on,56,42,0
2,note_on,56,0,240
2,note_on,55,45,0
2,note_on,55,0,240
2,note_on,53,47,0
2,note_on,53,0,240
2,note_on,52,56,0
2,note_on,52,0,960
2,note_on,48,46,0
2,note_on,48,0,480
2,note_on,49,53,0
2,note_on,49,0,960
2,note_on,60,43,0
2,note_on,56,43,0
2,note_on,56,0,480
2,note_on,60,0,0
2,note_on,58,43,0
2,note_on,61,43,0
2,note_on,61,0,480
2,note_on,58,0,0
2,note_on,60,43,480
2,note_on,70,43,0
2,note_on,70,0,480
2,note_on,60,0,0
2,note_on,65,43,0
2,note_on,70,43,0
2,note_on,70,0,480
2,note_on,68,36,0
2,note_on,68,0,240
2,note_on,65,0,0
2,note_on,41,45,0
2,note_on,41,0,216
2,note_on,41,46,24
2,note_on,41,0,216
2,note_on,41,44,24
2,note_on,41,0,216
2,note_on,41,52,24
2,note_on,41,0,1440
2,note_on,41,42,0
2,note_on,41,0,720
2,note_on,41,45,0
2,note_on,41,0,216
2,note_on,41,46,24
2,note_on,41,0,216
2,note_on,41,45,24
2,note_on,41,0,216
2,note_on,42,54,24
2,note_on,42,0,1440
2,note_on,43,49,0
2,note_on,43,0,720
2,note_on,43,48,0
2,note_on,43,0,216
2,note_on,43,50,24
2,note_on,43,0,216
2,note_on,43,47,24
2,note_on,43,0,216
2,note_on,44,55,24
2,note_on,44,0,960
2,note_on,45,62,0
2,note_on,45,0,480
2,note_on,46,62,0
2,note_on,46,0,480
2,note_on,49,48,0
2,note_on,49,0,480
2,note_on,48,54,0
2,note_on,48,0,480
2,note_on,49,44,0
2,note_on,49,0,480
2,note_on,51,43,0
2,note_on,60,43,0
2,note_on,60,0,480
2,note_on,51,0,0
2,note_on,51,36,0
2,note_on,61,36,0
2,note_on,61,0,480
2,note_on,51,0,0
2,note_on,56,33,0
2,note_on,56,0,120
2,note_on,60,26,0
2,note_on,60,0,120
2,note_on,63,27,0
2,note_on,63,0,120
2,note_on,60,25,0
2,note_on,60,0,120
2,note_on,56,30,0
2,note_on,56,0,120
2,note_on,60,26,0
2,note_on,60,0,120
2,note_on,63,29,0
2,note_on,63,0,120
2,note_on,60,26,0
2,note_on,60,0,120
2,note_on,56,33,0
2,note_on,56,0,120
2,note_on,60,27,0
2,note_on,60,0,120
2,note_on,63,29,0
2,note_on,63,0,120
2,note_on,60,27,0
2,note_on,60,0,120
2,note_on,55,36,0
2,note_on,55,0,120
2,note_on,58,26,0
2,note_on,58,0,120
2,note_on,60,27,0
2,note_on,60,0,120
2,note_on,58,26,0
2,note_on,58,0,120
2,note_on,55,32,0
2,note_on,55,0,120
2,note_on,58,26,0
2,note_on,58,0,120
2,note_on,60,27,0
2,note_on,60,0,120
2,note_on,58,25,0
2,note_on,58,0,120
2,note_on,55,32,0
2,note_on,55,0,120
2,note_on,58,27,0
2,note_on,58,0,120
2,note_on,60,27,0
2,note_on,60,0,120
2,note_on,58,25,0
2,note_on,58,0,120
2,note_on,53,36,0
2,note_on,53,0,120
2,note_on,56,27,0
2,note_on,56,0,120
2,note_on,60,30,0
2,note_on,60,0,120
2,note_on,56,27,0
2,note_on,56,0,120
2,note_on,53,32,0
2,note_on,53,0,120
2,note_on,56,26,0
2,note_on,56,0,120
2,note_on,60,27,0
2,note_on,60,0,120
2,note_on,56,26,0
2,note_on,56,0,120
2,note_on,53,32,0
2,note_on,53,0,120
2,note_on,56,27,0
2,note_on,56,0,120
2,note_on,60,29,0
2,note_on,60,0,120
2,note_on,56,27,0
2,note_on,56,0,120
2,note_on,51,36,0
2,note_on,51,0,120
2,note_on,54,30,0
2,note_on,54,0,120
2,note_on,56,32,0
2,note_on,56,0,120
2,note_on,54,29,0
2,note_on,54,0,120
2,note_on,51,36,0
2,note_on,51,0,120
2,note_on,54,29,0
2,note_on,54,0,120
2,note_on,56,32,0
2,note_on,56,0,120
2,note_on,54,29,0
2,note_on,54,0,120
2,note_on,51,35,0
2,note_on,51,0,120
2,note_on,54,29,0
2,note_on,54,0,120
2,note_on,56,31,0
2,note_on,56,0,120
2,note_on,54,27,0
2,note_on,54,0,120
2,note_on,49,40,0
2,note_on,49,0,120
2,note_on,52,34,0
2,note_on,52,0,120
2,note_on,56,36,0
2,note_on,56,0,120
2,note_on,52,33,0
2,note_on,52,0,120
2,note_on,49,40,0
2,note_on,49,0,120
2,note_on,52,33,0
2,note_on,52,0,120
2,note_on,56,36,0
2,note_on,56,0,120
2,note_on,52,33,0
2,note_on,52,0,120
2,note_on,47,39,0
2,note_on,47,0,120
2,note_on,51,34,0
2,note_on,51,0,120
2,note_on,56,36,0
2,note_on,56,0,120
2,note_on,51,33,0
2,note_on,51,0,120
2,note_on,46,36,0
2,note_on,53,36,0
2,note_on,53,0,720
2,note_on,46,0,0
2,note_on,46,29,0
2,note_on,53,29,0
2,note_on,53,0,240
2,note_on,46,0,0
2,note_on,46,32,0
2,note_on,53,32,0
2,note_on,53,0,240
2,note_on,46,0,0
2,note_on,46,29,0
2,note_on,53,29,0
2,note_on,53,0,240
2,note_on,46,0,0
2,note_on,46,32,0
2,note_on,53,32,0
2,note_on,53,0,480
2,note_on,46,0,0
2,note_on,65,27,240
2,note_on,58,27,0
2,note_on,58,0,216
2,note_on,65,0,0
2,note_on,65,27,24
2,note_on,58,27,0
2,note_on,58,0,216
2,note_on,65,0,0
2,note_on,65,27,24
2,note_on,58,27,0
2,note_on,58,0,216
2,note_on,65,0,0
2,note_on,58,31,24
2,note_on,65,31,0
2,note_on,65,0,480
2,note_on,58,0,0
2,note_on,51,39,1
2,note_on,51,0,960
2,note_on,51,37,479
2,note_on,51,0,120
2,note_on,55,33,0
2,note_on,55,0,120
2,note_on,58,36,0
2,note_on,58,0,120
2,note_on,51,33,0
2,note_on,51,0,120
2,note_on,53,40,0
2,note_on,53,0,120
2,note_on,56,32,0
2,note_on,56,0,120
2,note_on,62,35,0
2,note_on,62,0,120
2,note_on,53,33,0
2,note_on,53,0,120
2,note_on,55,40,0
2,note_on,55,0,120
2,note_on,58,32,0
2,note_on,58,0,120
2,note_on,63,36,0
2,note_on,63,0,120
2,note_on,55,33,0
2,note_on,55,0,120
2,note_on,56,41,0
2,note_on,60,41,0
2,note_on,60,0,1440
2,note_on,56,0,0
2,note_on,45,44,0
2,note_on,45,0,120
2,note_on,46,46,0
2,note_on,46,0,120
2,note_on,48,49,0
2,note_on,48,0,120
2,note_on,46,45,0
2,note_on,46,0,110
2,note_on,46,45,10
2,note_on,46,0,480
2,note_on,39,45,480
2,note_on,51,45,0
2,note_on,51,0,480
2,note_on,39,0,0
2,note_on,51,53,480
2,note_on,60,53,0
2,note_on,60,0,480
2,note_on,51,0,0
2,note_on,53,51,0
2,note_on,60,51,0
2,note_on,60,0,480
2,note_on,53,0,0
2,note_on,58,46,0
2,note_on,62,46,0
2,note_on,58,0,240
2,note_on,59,40,0
2,note_on,59,0,240
2,note_on,62,0,0
2,note_on,63,47,0
2,note_on,60,47,0
2,note_on,60,0,240
2,note_on,55,45,0
2,note_on,55,0,240
2,note_on,56,50,0
2,note_on,56,0,240
2,note_on,63,0,0
2,note_on,46,51,240
2,note_on,55,51,0
2,note_on,55,0,480
2,note_on,56,37,0
2,note_on,56,0,480
2,note_on,46,0,0
2,note_on,51,30,0
2,note_on,51,0,120
2,note_on,55,26,0
2,note_on,55,0,120
2,note_on,58,27,0
2,note_on,58,0,120
2,note_on,55,27,0
2,note_on,55,0,120
2,note_on,51,30,0
2,note_on,51,0,120
2,note_on,55,27,0
2,note_on,55,0,120
2,note_on,58,29,0
2,note_on,58,0,120
2,note_on,55,27,0
2,note_on,55,0,120
2,note_on,51,33,0
2,note_on,51,0,120
2,note_on,55,27,0
2,note_on,55,0,120
2,note_on,58,29,0
2,note_on,58,0,120
2,note_on,55,27,0
2,note_on,55,0,120
2,note_on,51,36,0
2,note_on,51,0,120
2,note_on,53,27,0
2,note_on,53,0,120
2,note_on,56,30,0
2,note_on,56,0,120
2,note_on,53,27,0
2,note_on,53,0,120
2,note_on,51,32,0
2,note_on,51,0,120
2,note_on,53,27,0
2,note_on,53,0,120
2,note_on,56,27,0
2,note_on,56,0,120
2,note_on,53,26,0
2,note_on,53,0,120
2,note_on,51,32,0
2,note_on,51,0,120
2,note_on,53,27,0
2,note_on,53,0,120
2,note_on,56,27,0
2,note_on,56,0,120
2,note_on,53,27,0
2,note_on,53,0,120
2,note_on,51,33,0
2,note_on,51,0,120
2,note_on,55,26,0
2,note_on,55,0,120
2,note_on,58,27,0
2,note_on,58,0,120
2,note_on,55,26,0
2,note_on,55,0,120
2,note_on,51,31,0
2,note_on,51,0,120
2,note_on,55,26,0
2,note_on,55,0,120
2,note_on,58,27,0
2,note_on,58,0,120
2,note_on,55,26,0
2,note_on,55,0,120
2,note_on,51,33,0
2,note_on,51,0,120
2,note_on,55,27,0
2,note_on,55,0,120
2,note_on,58,30,0
2,note_on,58,0,120
2,note_on,55,27,0
2,note_on,55,0,120
2,note_on,51,36,0
2,note_on,51,0,120
2,note_on,53,25,0
2,note_on,53,0,120
2,note_on,56,27,0
2,note_on,56,0,120
2,note_on,53,24,0
2,note_on,53,0,120
2,note_on,51,29,0
2,note_on,51,0,120
2,note_on,53,23,0
2,note_on,53,0,120
2,note_on,56,27,0
2,note_on,56,0,120
2,note_on,53,23,0
2,note_on,53,0,120
2,note_on,51,30,0
2,note_on,51,0,120
2,note_on,53,26,0
2,note_on,53,0,120
2,note_on,56,26,0
2,note_on,56,0,120
2,note_on,53,25,0
2,note_on,53,0,120
2,note_on,51,27,0
2,note_on,55,27,0
2,note_on,55,0,480
2,note_on,51,0,0
2,note_on,55,32,240
2,note_on,55,0,240
2,note_on,56,34,0
2,note_on,56,0,240
2,note_on,57,35,0
2,note_on,57,0,240
2,note_on,58,37,0
2,note_on,58,0,600
2,note_on,59,41,0
2,note_on,59,0,120
2,note_on,60,45,0
2,note_on,60,0,120
2,note_on,58,43,0
2,note_on,58,0,110
2,note_on,58,45,10
2,note_on,58,0,120
2,note_on,56,44,0
2,note_on,56,0,120
2,note_on,55,45,0
2,note_on,55,0,120
2,note_on,53,45,0
2,note_on,53,0,120
2,note_on,51,53,0
2,note_on,51,0,240
2,note_on,55,45,0
2,note_on,55,0,240
2,note_on,58,47,0
2,note_on,58,0,240
2,note_on,63,45,0
2,note_on,63,0,240
2,note_on,68,51,0
2,note_on,68,0,240
2,note_on,67,47,0
2,note_on,67,0,240
2,note_on,68,51,0
2,note_on,65,51,0
2,note_on,65,0,240
2,note_on,68,0,0
2,note_on,67,47,0
2,note_on,63,47,0
2,note_on,63,0,240
2,note_on,67,0,0
2,note_on,62,47,0
2,note_on,65,47,0
2,note_on,65,0,240
2,note_on,62,0,0
2,note_on,58,45,960
2,note_on,58,0,240
2,note_on,62,45,0
2,note_on,62,0,240
2,note_on,65,45,0
2,note_on,65,0,240
2,note_on,67,50,0
2,note_on,67,0,240
2,note_on,70,45,0
2,note_on,68,45,0
2,note_on,68,0,240
2,note_on,67,51,0
2,note_on,67,0,240
2,note_on,70,0,0
2,note_on,65,45,0
2,note_on,68,45,0
2,note_on,68,0,240
2,note_on,65,0,0
2,note_on,63,50,0
2,note_on,67,50,0
2,note_on,67,0,240
2,note_on,63,0,0
2,note_on,39,54,0
2,note_on,51,54,0
2,note_on,51,0,216
2,note_on,39,0,0
2,note_on,39,56,24
2,note_on,51,56,0
2,note_on,51,0,216
2,note_on,39,0,0
2,note_on,39,54,24
2,note_on,51,54,0
2,note_on,51,0,216
2,note_on,39,0,0
2,note_on,63,47,264
2,note_on,55,47,0
2,note_on,55,0,216
2,note_on,63,0,0
2,note_on,55,49,24
2,note_on,63,49,0
2,note_on,63,0,216
2,note_on,55,0,0
2,note_on,55,48,24
2,note_on,63,48,0
2,note_on,63,0,216
2,note_on,55,0,0
2,note_on,55,51,24
2,note_on,63,51,0
2,note_on,63,0,216
2,note_on,55,0,0
2,note_on,55,45,24
2,note_on,63,45,0
2,note_on,63,0,216
2,note_on,55,0,0
2,note_on,55,47,264
2,note_on,63,47,0
2,note_on,55,0,240
2,note_on,56,50,0
2,note_on,56,0,240
2,note_on,63,0,0
2,note_on,63,55,0
2,note_on,56,55,0
2,note_on,56,0,216
2,note_on,63,0,0
2,note_on,56,55,24
2,note_on,63,55,0
2,note_on,63,0,216
2,note_on,56,0,0
2,note_on,56,50,24
2,note_on,63,50,0
2,note_on,63,0,216
2,note_on,56,0,0
2,note_on,55,53,24
2,note_on,63,53,0
2,note_on,63,0,240
2,note_on,55,0,0
2,note_on,56,48,0
2,note_on,63,48,0
2,note_on,63,0,240
2,note_on,56,0,0
2,note_on,46,50,0
2,note_on,55,50,0
2,note_on,55,0,216
2,note_on,46,0,0
2,note_on,46,46,24
2,note_on,55,46,0
2,note_on,55,0,216
2,note_on,46,0,0
2,note_on,46,39,24
2,note_on,56,39,0
2,note_on,56,0,216
2,note_on,46,0,0
2,note_on,46,39,24
2,note_on,56,39,0
2,note_on,56,0,216
2,note_on,46,0,0
2,note_on,51,45,24
2,note_on,55,45,0
2,note_on,55,0,120
2,note_on,51,0,0
2,note_on,51,50,0
2,note_on,51,0,120
2,note_on,55,54,0
2,note_on,55,0,120
2,note_on,58,57,0
2,note_on,58,0,120
2,note_on,56,63,0
2,note_on,56,0,120
2,note_on,58,56,0
2,note_on,58,0,120
2,note_on,55,63,0
2,note_on,55,0,120
2,note_on,58,56,0
2,note_on,58,0,120
2,note_on,53,63,0
2,note_on,53,0,120
2,note_on,58,56,0
2,note_on,58,0,120
2,note_on,51,63,0
2,note_on,51,0,120
2,note_on,58,56,0
2,note_on,58,0,120
2,note_on,50,63,0
2,note_on,50,0,120
2,note_on,53,54,0
2,note_on,53,0,120
2,note_on,56,56,0
2,note_on,56,0,120
2,note_on,55,53,0
2,note_on,55,0,120
2,note_on,53,61,0
2,note_on,53,0,120
2,note_on,51,54,0
2,note_on,51,0,120
2,note_on,50,56,0
2,note_on,50,0,120
2,note_on,48,54,0
2,note_on,48,0,120
2,note_on,46,56,0
2,note_on,46,0,120
2,note_on,48,54,0
2,note_on,48,0,120
2,note_on,44,56,0
2,note_on,44,0,120
2,note_on,46,52,0
2,note_on,46,0,120
2,note_on,43,61,0
2,note_on,43,0,120
2,note_on,46,47,0
2,note_on,46,0,120
2,note_on,51,52,0
2,note_on,51,0,120
2,note_on,46,47,0
2,note_on,46,0,120
2,note_on,55,52,0
2,note_on,55,0,120
2,note_on,51,43,120
2,note_on,55,43,0
2,note_on,55,0,240
2,note_on,51,0,0
2,note_on,53,43,0
2,note_on,56,43,0
2,note_on,56,0,240
2,note_on,53,0,0
2,note_on,55,43,0
2,note_on,58,43,0
2,note_on,58,0,240
2,note_on,55,0,0
2,note_on,56,46,0
2,note_on,60,46,0
2,note_on,60,0,480
2,note_on,56,0,0
2,note_on,44,36,240
2,note_on,53,36,0
2,note_on,53,0,240
2,note_on,44,0,0
2,note_on,46,43,0
2,note_on,55,43,0
2,note_on,55,0,240
2,note_on,56,36,0
2,note_on,56,0,230
2,note_on,46,0,10
2,note_on,51,45,0
2,note_on,56,45,0
2,note_on,56,0,480
2,note_on,55,35,0
2,note_on,55,0,120
2,note_on,51,0,0
2,note_on,63,52,0
2,note_on,63,0,120
2,note_on,67,54,0
2,note_on,67,0,120
2,note_on,70,51,0
2,note_on,70,0,120
2,note_on,68,57,0
2,note_on,68,0,120
2,note_on,67,52,0
2,note_on,67,0,120
2,note_on,65,54,0
2,note_on,65,0,120
2,note_on,63,53,0
2,note_on,63,0,120
2,note_on,62,63,0
2,note_on,62,0,120
2,note_on,65,54,0
2,note_on,65,0,120
2,note_on,68,56,0
2,note_on,68,0,120
2,note_on,67,54,0
2,note_on,67,0,120
2,note_on,65,61,0
2,note_on,65,0,120
2,note_on,63,54,0
2,note_on,63,0,120
2,note_on,62,56,0
2,note_on,62,0,120
2,note_on,60,54,0
2,note_on,60,0,120
2,note_on,58,56,0
2,note_on,58,0,120
2,note_on,60,54,0
2,note_on,60,0,120
2,note_on,56,56,0
2,note_on,56,0,120
2,note_on,58,53,0
2,note_on,58,0,120
2,note_on,55,61,0
2,note_on,55,0,120
2,note_on,58,45,0
2,note_on,58,0,120
2,note_on,60,49,0
2,note_on,60,0,120
2,note_on,62,45,0
2,note_on,62,0,120
2,note_on,63,46,0
2,note_on,63,0,120
2,note_on,63,43,120
2,note_on,67,43,0
2,note_on,67,0,240
2,note_on,63,0,0
2,note_on,65,43,0
2,note_on,68,43,0
2,note_on,68,0,240
2,note_on,65,0,0
2,note_on,67,36,0
2,note_on,70,36,0
2,note_on,70,0,240
2,note_on,67,0,0
2,note_on,68,43,0
2,note_on,72,43,0
2,note_on,72,0,240
2,note_on,68,0,0
2,note_on,62,43,720
2,note_on,58,43,0
2,note_on,68,43,0
2,note_on,62,0,240
2,note_on,65,43,0
2,note_on,65,0,240
2,note_on,68,0,0
2,note_on,58,0,0
2,note_on,63,43,0
2,note_on,63,0,120
2,note_on,67,39,0
2,note_on,67,0,120
2,note_on,70,40,0
2,note_on,70,0,120
2,note_on,67,42,0
2,note_on,67,0,120
2,note_on,63,46,0
2,note_on,63,0,120
2,note_on,67,44,0
2,note_on,67,0,120
2,note_on,70,49,0
2,note_on,70,0,120
2,note_on,67,50,0
2,note_on,67,0,120
2,note_on,68,58,0
2,note_on,68,0,120
2,note_on,65,55,0
2,note_on,65,0,120
2,note_on,70,56,0
2,note_on,70,0,120
2,note_on,68,58,0
2,note_on,68,0,120
2,note_on,67,62,0
2,note_on,67,0,120
2,note_on,70,56,0
2,note_on,70,0,120
2,note_on,67,53,0
2,note_on,67,0,120
2,note_on,65,55,0
2,note_on,65,0,120
2,note_on,63,70,0
2,note_on,63,0,120
2,note_on,61,61,0
2,note_on,61,0,120
2,note_on,58,64,0
2,note_on,58,0,120
2,note_on,55,61,0
2,note_on,55,0,120
2,note_on,56,70,0
2,note_on,56,0,120
2,note_on,53,64,0
2,note_on,53,0,120
2,note_on,58,70,0
2,note_on,58,0,120
2,note_on,46,59,0
2,note_on,46,0,120
2,note_on,51,46,0
2,note_on,51,0,720
2,note_on,46,36,480
2,note_on,46,0,240
2,note_on,39,27,0
2,note_on,51,31,0
2,note_on,51,0,1200
2,note_on,39,0,0
