Track,Message Type,Note,Velocity,Time
1,note_on,77,60,1
1,note_on,74,53,719
1,note_on,77,0,1
1,note_on,74,0,239
1,note_on,70,55,0
1,note_on,70,0,120
1,note_on,70,55,360
1,note_on,70,0,120
1,note_on,75,60,360
1,note_on,75,0,480
1,note_on,79,55,0
1,note_on,79,0,120
1,note_on,69,52,360
1,note_on,69,0,480
1,note_on,72,55,480
1,note_on,72,0,240
1,note_on,70,53,0
1,note_on,70,0,120
1,note_on,74,57,120
1,note_on,74,0,240
1,note_on,72,54,0
1,note_on,72,0,120
1,note_on,75,58,120
1,note_on,75,0,240
1,note_on,74,56,0
1,note_on,74,0,120
1,note_on,77,60,120
1,note_on,77,0,240
1,note_on,75,57,0
1,note_on,75,0,120
1,note_on,74,60,120
1,note_on,74,0,720
1,note_on,75,57,0
1,note_on,75,0,120
1,note_on,74,53,0
1,note_on,74,0,120
1,note_on,72,52,0
1,note_on,72,0,240
1,note_on,74,54,0
1,note_on,74,0,240
1,note_on,75,55,0
1,note_on,75,0,240
1,note_on,76,57,0
1,note_on,76,0,240
1,note_on,77,59,0
1,note_on,77,0,720
1,note_on,75,53,0
1,note_on,75,0,80
1,note_on,74,53,0
1,note_on,74,0,80
1,note_on,72,53,0
1,note_on,72,0,80
1,note_on,70,56,0
1,note_on,70,0,120
1,note_on,70,56,360
1,note_on,70,0,120
1,note_on,75,60,360
1,note_on,75,0,480
1,note_on,79,55,0
1,note_on,79,0,120
1,note_on,69,58,360
1,note_on,69,0,480
1,note_on,69,52,240
1,note_on,69,0,240
1,note_on,70,58,0
1,note_on,70,0,240
1,note_on,74,55,0
1,note_on,74,0,120
1,note_on,67,58,120
1,note_on,67,0,240
1,note_on,72,55,0
1,note_on,72,0,120
1,note_on,70,58,120
1,note_on,70,0,480
1,note_on,69,55,0
1,note_on,69,0,480
1,note_on,70,58,0
1,note_on,70,0,240
1,note_on,65,56,0
1,note_on,65,0,120
1,note_on,67,60,120
1,note_on,67,0,120
1,note_on,69,63,120
1,note_on,69,0,120
1,note_on,70,67,120
1,note_on,70,0,120
1,note_on,72,70,120
1,note_on,72,0,120
1,note_on,74,74,120
1,note_on,74,0,120
1,note_on,75,77,120
1,note_on,75,0,120
1,note_on,77,85,1
1,note_on,74,74,719
1,note_on,77,0,1
1,note_on,74,0,239
1,note_on,70,78,0
1,note_on,70,0,240
1,note_on,70,78,240
1,note_on,70,0,240
1,note_on,75,85,240
1,note_on,75,0,96
1,note_on,77,72,0
1,note_on,77,0,96
1,note_on,75,61,0
1,note_on,75,0,96
1,note_on,74,70,0
1,note_on,74,0,96
1,note_on,75,72,0
1,note_on,75,0,96
1,note_on,79,78,0
1,note_on,79,0,480
1,note_on,69,81,0
1,note_on,69,0,480
1,note_on,72,78,480
1,note_on,72,0,240
1,note_on,70,74,0
1,note_on,70,0,120
1,note_on,74,81,120
1,note_on,74,0,240
1,note_on,72,77,0
1,note_on,72,0,120
1,note_on,75,82,120
1,note_on,75,0,240
1,note_on,74,79,0
1,note_on,74,0,120
1,note_on,77,85,120
1,note_on,77,0,240
1,note_on,75,81,0
1,note_on,75,0,120
1,note_on,74,85,120
1,note_on,74,0,720
1,note_on,75,81,0
1,note_on,75,0,120
1,note_on,74,81,0
1,note_on,74,0,120
1,note_on,72,73,0
1,note_on,72,0,240
1,note_on,74,77,0
1,note_on,74,0,240
1,note_on,75,78,0
1,note_on,75,0,240
1,note_on,76,81,0
1,note_on,76,0,240
1,note_on,77,83,0
1,note_on,77,0,720
1,note_on,75,74,0
1,note_on,75,0,80
1,note_on,74,74,0
1,note_on,74,0,80
1,note_on,72,74,0
1,note_on,72,0,80
1,note_on,70,79,0
1,note_on,70,0,120
1,note_on,70,76,120
1,note_on,70,0,120
1,note_on,70,79,120
1,note_on,70,0,120
1,note_on,70,76,120
1,note_on,70,0,120
1,note_on,75,85,120
1,note_on,75,0,96
1,note_on,77,72,0
1,note_on,77,0,96
1,note_on,75,61,0
1,note_on,75,0,96
1,note_on,74,70,0
1,note_on,74,0,96
1,note_on,75,72,0
1,note_on,75,0,96
1,note_on,79,78,0
1,note_on,79,0,480
1,note_on,69,82,0
1,note_on,69,0,480
1,note_on,81,77,240
1,note_on,81,0,240
1,note_on,82,85,0
1,note_on,82,0,160
1,note_on,77,74,0
1,note_on,77,0,160
1,note_on,74,72,0
1,note_on,74,0,160
1,note_on,79,84,0
1,note_on,79,0,160
1,note_on,75,73,0
1,note_on,75,0,160
1,note_on,72,74,0
1,note_on,72,0,160
1,note_on,77,84,0
1,note_on,77,0,160
1,note_on,74,75,0
1,note_on,74,0,160
1,note_on,70,74,0
1,note_on,70,0,160
1,note_on,75,84,0
1,note_on,75,0,160
1,note_on,72,74,0
1,note_on,72,0,160
1,note_on,69,74,0
1,note_on,69,0,160
1,note_on,70,83,0
1,note_on,70,0,480
1,note_on,65,53,240
1,note_on,65,0,240
1,note_on,70,58,0
1,note_on,70,0,120
1,note_on,69,53,120
1,note_on,69,0,120
1,note_on,70,55,120
1,note_on,70,0,120
1,note_on,72,53,120
1,note_on,72,0,120
1,note_on,74,55,120
1,note_on,74,0,120
1,note_on,74,56,360
1,note_on,70,56,0
1,note_on,70,0,180
1,note_on,74,0,0
1,note_on,70,59,300
1,note_on,74,59,0
1,note_on,74,0,480
1,note_on,70,0,0
1,note_on,75,55,0
1,note_on,72,55,0
1,note_on,72,0,480
1,note_on,75,0,0
1,note_on,72,54,0
1,note_on,69,54,0
1,note_on,69,0,480
1,note_on,72,0,0
1,note_on,65,55,240
1,note_on,65,0,240
1,note_on,72,57,0
1,note_on,72,0,120
1,note_on,70,55,120
1,note_on,70,0,120
1,note_on,72,56,120
1,note_on,72,0,120
1,note_on,74,53,120
1,note_on,74,0,120
1,note_on,75,56,120
1,note_on,75,0,120
1,note_on,67,56,360
1,note_on,75,56,0
1,note_on,75,0,180
1,note_on,67,0,0
1,note_on,72,58,300
1,note_on,75,58,0
1,note_on,75,0,480
1,note_on,72,0,0
1,note_on,77,56,0
1,note_on,69,56,0
1,note_on,69,0,480
1,note_on,77,0,0
1,note_on,70,54,0
1,note_on,74,54,0
1,note_on,74,0,480
1,note_on,70,0,0
1,note_on,70,73,240
1,note_on,70,0,240
1,note_on,74,79,0
1,note_on,74,0,120
1,note_on,72,72,120
1,note_on,72,0,120
1,note_on,74,75,120
1,note_on,74,0,120
1,note_on,76,72,120
1,note_on,76,0,120
1,note_on,77,79,120
1,note_on,77,0,480
1,note_on,77,77,160
1,note_on,77,0,160
1,note_on,79,79,0
1,note_on,79,0,160
1,note_on,81,82,0
1,note_on,81,0,160
1,note_on,79,76,0
1,note_on,79,0,160
1,note_on,77,76,0
1,note_on,77,0,160
1,note_on,76,79,0
1,note_on,76,0,160
1,note_on,74,77,0
1,note_on,74,0,160
1,note_on,72,76,0
1,note_on,72,0,160
1,note_on,70,75,0
1,note_on,70,0,480
1,note_on,76,73,160
1,note_on,76,0,160
1,note_on,77,76,0
1,note_on,77,0,160
1,note_on,79,80,0
1,note_on,79,0,160
1,note_on,77,79,0
1,note_on,77,0,160
1,note_on,76,78,0
1,note_on,76,0,160
1,note_on,74,77,0
1,note_on,74,0,160
1,note_on,72,76,0
1,note_on,72,0,160
1,note_on,70,75,0
1,note_on,70,0,160
1,note_on,69,73,0
1,note_on,69,0,120
1,note_on,72,69,0
1,note_on,72,0,120
1,note_on,70,71,0
1,note_on,70,0,120
1,note_on,69,72,0
1,note_on,69,0,120
1,note_on,70,74,0
1,note_on,70,0,120
1,note_on,72,76,0
1,note_on,72,0,120
1,note_on,74,77,0
1,note_on,74,0,120
1,note_on,76,79,0
1,note_on,76,0,120
1,note_on,77,81,0
1,note_on,77,0,120
1,note_on,79,82,0
1,note_on,79,0,120
1,note_on,81,84,0
1,note_on,81,0,120
1,note_on,82,86,0
1,note_on,82,0,120
1,note_on,84,87,0
1,note_on,84,0,120
1,note_on,69,59,120
1,note_on,65,59,0
1,note_on,65,0,108
1,note_on,69,0,0
1,note_on,69,56,132
1,note_on,65,56,0
1,note_on,65,0,480
1,note_on,69,0,0
1,note_on,67,52,0
1,note_on,64,52,0
1,note_on,64,0,240
1,note_on,67,0,0
1,note_on,79,76,240
1,note_on,79,0,720
1,note_on,76,60,0
1,note_on,76,0,120
1,note_on,72,60,0
1,note_on,72,0,120
1,note_on,77,67,0
1,note_on,77,0,480
1,note_on,78,70,0
1,note_on,78,0,480
1,note_on,79,74,0
1,note_on,79,0,720
1,note_on,76,61,0
1,note_on,76,0,120
1,note_on,72,61,0
1,note_on,72,0,120
1,note_on,77,65,0
1,note_on,77,0,480
1,note_on,79,75,480
1,note_on,79,0,120
1,note_on,79,75,120
1,note_on,79,0,480
1,note_on,76,61,0
1,note_on,76,0,120
1,note_on,72,61,0
1,note_on,72,0,120
1,note_on,77,64,0
1,note_on,77,0,120
1,note_on,77,68,120
1,note_on,77,0,120
1,note_on,78,71,120
1,note_on,78,0,120
1,note_on,78,71,120
1,note_on,78,0,120
1,note_on,79,77,120
1,note_on,79,0,120
1,note_on,79,77,120
1,note_on,79,0,480
1,note_on,76,60,0
1,note_on,76,0,120
1,note_on,72,62,0
1,note_on,72,0,120
1,note_on,77,66,0
1,note_on,77,0,480
1,note_on,78,69,480
1,note_on,79,70,120
1,note_on,78,0,24
1,note_on,81,71,96
1,note_on,79,0,24
1,note_on,79,71,96
1,note_on,81,0,24
1,note_on,77,72,96
1,note_on,79,0,24
1,note_on,76,73,96
1,note_on,77,0,24
1,note_on,74,74,96
1,note_on,76,0,24
1,note_on,72,75,96
1,note_on,74,0,24
1,note_on,77,80,96
1,note_on,72,0,24
1,note_on,77,0,96
1,note_on,72,76,0
1,note_on,72,0,120
1,note_on,81,80,0
1,note_on,81,0,120
1,note_on,77,76,0
1,note_on,77,0,120
1,note_on,84,80,0
1,note_on,84,0,120
1,note_on,81,76,0
1,note_on,81,0,120
1,note_on,84,80,0
1,note_on,84,0,120
1,note_on,81,75,0
1,note_on,81,0,120
1,note_on,84,78,0
1,note_on,82,78,120
1,note_on,84,0,24
1,note_on,81,77,96
1,note_on,82,0,24
1,note_on,79,76,96
1,note_on,81,0,24
1,note_on,77,76,96
1,note_on,79,0,24
1,note_on,75,76,96
1,note_on,77,0,24
1,note_on,74,75,96
1,note_on,75,0,24
1,note_on,72,75,96
1,note_on,74,0,24
1,note_on,74,79,96
1,note_on,72,0,24
1,note_on,74,0,96
1,note_on,70,74,0
1,note_on,70,0,120
1,note_on,77,81,0
1,note_on,77,0,120
1,note_on,74,75,0
1,note_on,74,0,120
1,note_on,82,84,0
1,note_on,82,0,120
1,note_on,77,79,0
1,note_on,77,0,120
1,note_on,86,82,0
1,note_on,86,0,120
1,note_on,82,80,0
1,note_on,82,0,120
1,note_on,86,78,0
1,note_on,84,76,120
1,note_on,86,0,24
1,note_on,82,75,96
1,note_on,84,0,24
1,note_on,81,73,96
1,note_on,82,0,24
1,note_on,79,72,96
1,note_on,81,0,24
1,note_on,77,69,96
1,note_on,79,0,24
1,note_on,76,67,96
1,note_on,77,0,24
1,note_on,74,65,96
1,note_on,76,0,24
1,note_on,72,63,96
1,note_on,74,0,24
1,note_on,72,0,936
1,note_on,79,67,0
1,note_on,79,0,80
1,note_on,81,61,0
1,note_on,81,0,80
1,note_on,79,59,0
1,note_on,79,0,80
1,note_on,81,67,0
1,note_on,81,0,80
1,note_on,79,59,0
1,note_on,79,0,80
1,note_on,81,59,0
1,note_on,81,0,80
1,note_on,79,61,0
1,note_on,79,0,80
1,note_on,81,67,0
1,note_on,81,0,80
1,note_on,79,67,0
1,note_on,79,0,80
1,note_on,77,69,0
1,note_on,77,0,120
1,note_on,79,70,0
1,note_on,79,0,120
1,note_on,81,72,0
1,note_on,81,0,120
1,note_on,82,74,0
1,note_on,82,0,120
1,note_on,84,74,0
1,note_on,84,0,120
1,note_on,82,72,0
1,note_on,82,0,120
1,note_on,81,71,0
1,note_on,81,0,120
1,note_on,79,70,0
1,note_on,79,0,120
1,note_on,77,68,0
1,note_on,77,0,120
1,note_on,76,67,0
1,note_on,76,0,120
1,note_on,77,69,0
1,note_on,77,0,120
1,note_on,79,71,0
1,note_on,79,0,120
1,note_on,81,72,0
1,note_on,81,0,120
1,note_on,79,70,0
1,note_on,79,0,120
1,note_on,77,69,0
1,note_on,77,0,120
1,note_on,75,69,0
1,note_on,75,0,120
1,note_on,74,68,0
1,note_on,74,0,120
1,note_on,73,67,0
1,note_on,73,0,120
1,note_on,74,67,0
1,note_on,74,0,120
1,note_on,76,70,0
1,note_on,76,0,120
1,note_on,77,72,0
1,note_on,77,0,120
1,note_on,76,71,0
1,note_on,76,0,120
1,note_on,74,70,0
1,note_on,74,0,120
1,note_on,72,69,0
1,note_on,72,0,120
1,note_on,70,68,0
1,note_on,70,0,120
1,note_on,69,68,0
1,note_on,69,0,120
1,note_on,67,67,0
1,note_on,67,0,120
1,note_on,69,68,0
1,note_on,69,0,120
1,note_on,70,69,0
1,note_on,70,0,120
1,note_on,69,68,0
1,note_on,69,0,120
1,note_on,67,66,0
1,note_on,67,0,120
1,note_on,65,65,0
1,note_on,65,0,120
1,note_on,64,63,0
1,note_on,64,0,120
1,note_on,62,61,0
1,note_on,62,0,120
1,note_on,60,60,0
1,note_on,60,0,240
1,note_on,62,60,0
1,note_on,62,0,120
1,note_on,64,61,0
1,note_on,64,0,120
1,note_on,65,62,0
1,note_on,65,0,120
1,note_on,67,64,0
1,note_on,67,0,120
1,note_on,69,65,0
1,note_on,69,0,120
1,note_on,70,66,0
1,note_on,70,0,120
1,note_on,72,67,0
1,note_on,72,0,120
1,note_on,74,69,0
1,note_on,74,0,120
1,note_on,76,70,0
1,note_on,76,0,120
1,note_on,77,71,0
1,note_on,77,0,120
1,note_on,79,73,0
1,note_on,79,0,120
1,note_on,81,74,0
1,note_on,81,0,120
1,note_on,82,75,0
1,note_on,82,0,120
1,note_on,84,77,0
1,note_on,84,0,120
1,note_on,77,71,0
1,note_on,77,0,80
1,note_on,79,64,0
1,note_on,79,0,80
1,note_on,81,58,0
1,note_on,81,0,80
1,note_on,79,64,0
1,note_on,79,0,80
1,note_on,81,58,0
1,note_on,81,0,80
1,note_on,79,65,0
1,note_on,79,0,80
1,note_on,81,62,0
1,note_on,81,0,80
1,note_on,79,67,0
1,note_on,79,0,80
1,note_on,81,61,0
1,note_on,81,0,80
1,note_on,79,68,0
1,note_on,79,0,80
1,note_on,81,61,0
1,note_on,81,0,80
1,note_on,79,69,0
1,note_on,79,0,80
1,note_on,81,64,0
1,note_on,81,0,80
1,note_on,79,70,0
1,note_on,79,0,80
1,note_on,81,64,0
1,note_on,81,0,80
1,note_on,79,70,0
1,note_on,79,0,80
1,note_on,81,66,0
1,note_on,81,0,80
1,note_on,79,69,0
1,note_on,79,0,80
1,note_on,81,72,0
1,note_on,81,0,120
1,note_on,79,72,0
1,note_on,79,0,120
1,note_on,77,73,0
1,note_on,77,0,120
1,note_on,79,70,0
1,note_on,79,0,120
1,note_on,77,76,0
1,note_on,77,0,120
1,note_on,77,72,120
1,note_on,77,0,120
1,note_on,77,55,360
1,note_on,77,0,120
1,note_on,77,57,120
1,note_on,77,0,120
1,note_on,77,54,120
1,note_on,77,0,120
1,note_on,77,55,360
1,note_on,77,0,120
1,note_on,77,57,120
1,note_on,77,0,120
1,note_on,77,53,120
1,note_on,77,0,120
1,note_on,77,60,360
1,note_on,77,0,120
1,note_on,77,64,120
1,note_on,77,0,120
1,note_on,77,60,120
1,note_on,77,0,120
1,note_on,77,69,360
1,note_on,77,0,120
1,note_on,77,72,120
1,note_on,77,0,120
1,note_on,77,69,120
1,note_on,77,0,120
1,note_on,77,79,360
1,note_on,77,0,120
1,note_on,77,82,120
1,note_on,77,0,120
1,note_on,77,78,120
1,note_on,77,0,120
1,note_on,77,80,360
1,note_on,77,0,120
1,note_on,77,86,120
1,note_on,77,0,240
1,note_on,81,81,0
1,note_on,81,0,120
1,note_on,81,86,120
1,note_on,81,0,240
1,note_on,84,81,0
1,note_on,84,0,120
1,note_on,84,86,120
1,note_on,84,0,240
1,note_on,87,81,0
1,note_on,87,0,120
1,note_on,87,86,120
1,note_on,87,0,240
1,note_on,84,75,0
1,note_on,84,0,120
1,note_on,84,81,120
1,note_on,84,0,240
1,note_on,81,73,0
1,note_on,81,0,120
1,note_on,81,79,120
1,note_on,81,0,240
1,note_on,77,71,0
1,note_on,77,0,120
1,note_on,77,68,120
1,note_on,77,0,240
1,note_on,76,57,0
1,note_on,76,0,120
1,note_on,76,57,120
1,note_on,76,0,240
1,note_on,77,57,0
1,note_on,77,0,120
1,note_on,77,67,1
1,note_on,74,53,719
1,note_on,77,0,1
1,note_on,74,0,239
1,note_on,70,55,0
1,note_on,70,0,120
1,note_on,70,53,360
1,note_on,70,0,120
1,note_on,75,60,360
1,note_on,75,0,480
1,note_on,79,55,0
1,note_on,79,0,120
1,note_on,69,57,360
1,note_on,69,0,480
1,note_on,72,55,480
1,note_on,72,0,240
1,note_on,70,53,0
1,note_on,70,0,120
1,note_on,74,57,120
1,note_on,74,0,240
1,note_on,72,54,0
1,note_on,72,0,120
1,note_on,75,58,120
1,note_on,75,0,240
1,note_on,74,56,0
1,note_on,74,0,120
1,note_on,77,60,120
1,note_on,77,0,240
1,note_on,75,57,0
1,note_on,75,0,120
1,note_on,74,60,120
1,note_on,74,0,720
1,note_on,75,57,0
1,note_on,75,0,120
1,note_on,74,57,0
1,note_on,74,0,120
1,note_on,72,52,0
1,note_on,72,0,240
1,note_on,74,54,0
1,note_on,74,0,240
1,note_on,75,55,0
1,note_on,75,0,240
1,note_on,76,57,0
1,note_on,76,0,240
1,note_on,77,59,0
1,note_on,77,0,720
1,note_on,75,53,0
1,note_on,75,0,80
1,note_on,74,53,0
1,note_on,74,0,80
1,note_on,72,53,0
1,note_on,72,0,80
1,note_on,70,56,0
1,note_on,70,0,120
1,note_on,70,56,360
1,note_on,70,0,120
1,note_on,75,60,360
1,note_on,75,0,480
1,note_on,79,55,0
1,note_on,79,0,120
1,note_on,69,58,360
1,note_on,69,0,480
1,note_on,69,54,240
1,note_on,69,0,240
1,note_on,70,58,0
1,note_on,70,0,240
1,note_on,74,55,0
1,note_on,74,0,120
1,note_on,67,58,120
1,note_on,67,0,240
1,note_on,72,55,0
1,note_on,72,0,120
1,note_on,70,58,120
1,note_on,70,0,480
1,note_on,69,55,0
1,note_on,69,0,480
1,note_on,70,58,0
1,note_on,70,0,240
1,note_on,65,56,0
1,note_on,65,0,120
1,note_on,67,60,120
1,note_on,67,0,120
1,note_on,69,63,120
1,note_on,69,0,120
1,note_on,70,67,120
1,note_on,70,0,120
1,note_on,72,70,120
1,note_on,72,0,120
1,note_on,74,74,120
1,note_on,74,0,120
1,note_on,75,77,120
1,note_on,75,0,120
1,note_on,77,85,1
1,note_on,74,74,719
1,note_on,77,0,1
1,note_on,74,0,239
1,note_on,70,78,0
1,note_on,70,0,240
1,note_on,70,78,240
1,note_on,70,0,240
1,note_on,75,85,240
1,note_on,75,0,96
1,note_on,77,61,0
1,note_on,77,0,96
1,note_on,75,61,0
1,note_on,75,0,96
1,note_on,74,61,0
1,note_on,74,0,96
1,note_on,75,61,0
1,note_on,75,0,96
1,note_on,79,78,0
1,note_on,79,0,480
1,note_on,69,81,0
1,note_on,69,0,480
1,note_on,72,78,480
1,note_on,72,0,240
1,note_on,70,71,0
1,note_on,70,0,120
1,note_on,74,81,120
1,note_on,74,0,240
1,note_on,72,75,0
1,note_on,72,0,120
1,note_on,75,82,120
1,note_on,75,0,240
1,note_on,74,77,0
1,note_on,74,0,120
1,note_on,77,85,120
1,note_on,77,0,240
1,note_on,75,81,0
1,note_on,75,0,120
1,note_on,74,85,120
1,note_on,74,0,720
1,note_on,75,78,0
1,note_on,75,0,120
1,note_on,74,76,0
1,note_on,74,0,120
1,note_on,72,73,0
1,note_on,72,0,240
1,note_on,74,77,0
1,note_on,74,0,240
1,note_on,75,78,0
1,note_on,75,0,240
1,note_on,76,81,0
1,note_on,76,0,240
1,note_on,77,83,0
1,note_on,77,0,720
1,note_on,75,74,0
1,note_on,75,0,80
1,note_on,74,74,0
1,note_on,74,0,80
1,note_on,72,74,0
1,note_on,72,0,80
1,note_on,70,79,0
1,note_on,70,0,120
1,note_on,70,79,120
1,note_on,70,0,120
1,note_on,70,79,120
1,note_on,70,0,120
1,note_on,70,79,120
1,note_on,70,0,120
1,note_on,75,85,120
1,note_on,75,0,96
1,note_on,77,61,0
1,note_on,77,0,96
1,note_on,75,61,0
1,note_on,75,0,96
1,note_on,74,61,0
1,note_on,74,0,96
1,note_on,75,61,0
1,note_on,75,0,96
1,note_on,79,78,0
1,note_on,79,0,480
1,note_on,69,82,0
1,note_on,69,0,480
1,note_on,81,77,240
1,note_on,81,0,240
1,note_on,82,85,0
1,note_on,82,0,160
1,note_on,77,75,0
1,note_on,77,0,160
1,note_on,74,74,0
1,note_on,74,0,160
1,note_on,79,84,0
1,note_on,79,0,160
1,note_on,75,75,0
1,note_on,75,0,160
1,note_on,72,75,0
1,note_on,72,0,160
1,note_on,77,84,0
1,note_on,77,0,160
1,note_on,74,74,0
1,note_on,74,0,160
1,note_on,70,74,0
1,note_on,70,0,160
1,note_on,75,84,0
1,note_on,75,0,160
1,note_on,72,74,0
1,note_on,72,0,160
1,note_on,69,72,0
1,note_on,69,0,160
1,note_on,70,83,0
1,note_on,70,0,480
1,note_on,65,55,240
1,note_on,65,0,240
1,note_on,70,58,0
1,note_on,70,0,120
1,note_on,69,52,120
1,note_on,69,0,120
1,note_on,70,55,120
1,note_on,70,0,120
1,note_on,72,51,120
1,note_on,72,0,120
1,note_on,74,55,120
1,note_on,74,0,120
1,note_on,70,56,360
1,note_on,74,56,0
1,note_on,74,0,180
1,note_on,70,0,0
1,note_on,70,59,300
1,note_on,74,59,0
1,note_on,74,0,480
1,note_on,70,0,0
1,note_on,72,55,0
1,note_on,75,55,0
1,note_on,75,0,480
1,note_on,72,0,0
1,note_on,72,54,0
1,note_on,69,54,0
1,note_on,69,0,480
1,note_on,72,0,0
1,note_on,65,55,240
1,note_on,65,0,240
1,note_on,72,57,0
1,note_on,72,0,120
1,note_on,70,54,120
1,note_on,70,0,120
1,note_on,72,56,120
1,note_on,72,0,120
1,note_on,74,54,120
1,note_on,74,0,120
1,note_on,75,56,120
1,note_on,75,0,120
1,note_on,67,56,360
1,note_on,75,56,0
1,note_on,75,0,180
1,note_on,67,0,0
1,note_on,75,58,300
1,note_on,72,58,0
1,note_on,72,0,450
1,note_on,75,0,0
1,note_on,77,56,30
1,note_on,69,56,0
1,note_on,69,0,480
1,note_on,77,0,0
1,note_on,74,54,0
1,note_on,70,54,0
1,note_on,70,0,480
1,note_on,74,0,0
1,note_on,70,58,240
1,note_on,70,0,240
1,note_on,74,64,0
1,note_on,74,0,120
1,note_on,72,59,120
1,note_on,72,0,120
1,note_on,74,64,120
1,note_on,74,0,120
1,note_on,75,67,120
1,note_on,75,0,120
1,note_on,77,71,120
1,note_on,77,0,360
1,note_on,77,76,120
1,note_on,77,0,360
1,note_on,77,79,120
1,note_on,77,0,360
1,note_on,77,82,120
1,note_on,77,0,360
1,note_on,78,91,120
1,note_on,72,59,240
1,note_on,72,0,240
1,note_on,74,59,0
1,note_on,74,0,240
1,note_on,75,63,0
1,note_on,75,0,173
1,note_on,75,63,67
1,note_on,75,0,240
1,note_on,74,62,0
1,note_on,74,0,180
1,note_on,74,61,60
1,note_on,74,0,240
1,note_on,72,57,0
1,note_on,72,0,180
1,note_on,78,0,60
1,note_on,70,70,0
1,note_on,79,70,0
1,note_on,79,0,960
1,note_on,70,0,0
1,note_on,73,64,0
1,note_on,73,0,960
1,note_on,74,69,0
1,note_on,74,0,480
1,note_on,62,63,360
1,note_on,62,0,120
1,note_on,74,80,0
1,note_on,74,0,450
1,note_on,74,76,30
1,note_on,74,0,480
1,note_on,82,85,0
1,note_on,82,0,720
1,note_on,81,75,0
1,note_on,81,0,80
1,note_on,79,72,0
1,note_on,79,0,80
1,note_on,78,72,0
1,note_on,78,0,80
1,note_on,79,79,0
1,note_on,79,0,480
1,note_on,74,73,0
1,note_on,74,0,480
1,note_on,75,80,0
1,note_on,75,0,480
1,note_on,67,71,360
1,note_on,67,0,120
1,note_on,79,86,0
1,note_on,79,0,450
1,note_on,79,83,30
1,note_on,79,0,480
1,note_on,87,101,0
1,note_on,87,0,720
1,note_on,86,75,0
1,note_on,86,0,80
1,note_on,84,71,0
1,note_on,84,0,80
1,note_on,83,71,0
1,note_on,83,0,80
1,note_on,84,79,0
1,note_on,84,0,480
1,note_on,75,78,0
1,note_on,75,0,480
1,note_on,74,74,0
1,note_on,74,0,480
1,note_on,73,69,240
1,note_on,73,0,240
1,note_on,74,73,0
1,note_on,74,0,240
1,note_on,82,72,0
1,note_on,82,0,120
1,note_on,81,71,120
1,note_on,81,0,120
1,note_on,79,69,120
1,note_on,79,0,120
1,note_on,78,74,120
1,note_on,78,0,360
1,note_on,79,64,0
1,note_on,79,0,60
1,note_on,81,64,0
1,note_on,81,0,60
1,note_on,79,78,0
1,note_on,79,0,120
1,note_on,79,74,120
1,note_on,79,0,120
1,note_on,85,83,120
1,note_on,85,0,240
1,note_on,86,78,0
1,note_on,86,0,240
1,note_on,82,74,0
1,note_on,82,0,120
1,note_on,79,74,120
1,note_on,79,0,120
1,note_on,78,77,120
1,note_on,78,0,360
1,note_on,79,66,0
1,note_on,79,0,60
1,note_on,81,66,0
1,note_on,81,0,60
1,note_on,79,77,0
1,note_on,79,0,120
1,note_on,74,67,120
1,note_on,74,0,240
1,note_on,79,71,0
1,note_on,79,0,120
1,note_on,79,71,120
1,note_on,79,0,120
1,note_on,79,71,120
1,note_on,79,0,120
1,note_on,79,71,120
1,note_on,79,0,120
1,note_on,79,78,120
1,note_on,79,0,360
1,note_on,81,63,0
1,note_on,81,0,60
1,note_on,82,63,0
1,note_on,82,0,60
1,note_on,81,75,0
1,note_on,81,0,120
1,note_on,79,72,120
1,note_on,79,0,120
1,note_on,77,72,120
1,note_on,77,0,120
1,note_on,75,70,120
1,note_on,75,0,120
1,note_on,74,68,120
1,note_on,74,0,120
1,note_on,73,67,120
1,note_on,73,0,120
1,note_on,73,71,120
1,note_on,73,0,240
1,note_on,74,68,0
1,note_on,74,0,240
1,note_on,74,59,0
1,note_on,74,0,360
1,note_on,74,58,120
1,note_on,74,0,360
1,note_on,74,54,120
1,note_on,74,0,360
1,note_on,73,40,120
1,note_on,73,0,80
1,note_on,74,44,0
1,note_on,74,0,80
1,note_on,75,49,0
1,note_on,75,0,80
1,note_on,74,62,0
1,note_on,74,0,1680
1,note_on,77,72,0
1,note_on,77,0,1920
1,note_on,62,74,0
1,note_on,56,74,0
1,note_on,56,0,1920
1,note_on,62,0,0
1,note_on,55,74,0
1,note_on,63,74,0
1,note_on,55,0,480
1,note_on,63,0,840
1,note_on,58,45,0
1,note_on,58,0,120
1,note_on,62,49,0
1,note_on,62,0,360
1,note_on,58,46,0
1,note_on,58,0,120
1,note_on,63,52,0
1,note_on,63,0,360
1,note_on,58,49,0
1,note_on,58,0,120
1,note_on,65,51,0
1,note_on,65,0,360
1,note_on,58,51,0
1,note_on,58,0,120
1,note_on,67,53,0
1,note_on,67,0,360
1,note_on,58,54,0
1,note_on,58,0,120
1,note_on,68,56,0
1,note_on,68,0,360
1,note_on,58,54,0
1,note_on,58,0,120
1,note_on,65,57,0
1,note_on,65,0,1320
1,note_on,58,50,0
1,note_on,58,0,120
1,note_on,64,52,0
1,note_on,64,0,360
1,note_on,58,53,0
1,note_on,58,0,120
1,note_on,65,55,0
1,note_on,65,0,360
1,note_on,58,51,0
1,note_on,58,0,120
1,note_on,67,52,0
1,note_on,67,0,360
1,note_on,58,54,0
1,note_on,58,0,120
1,note_on,68,56,0
1,note_on,68,0,360
1,note_on,58,56,0
1,note_on,58,0,120
1,note_on,70,57,0
1,note_on,70,0,360
1,note_on,58,55,0
1,note_on,58,0,120
1,note_on,67,58,0
1,note_on,67,0,480
1,note_on,70,63,240
1,note_on,70,0,120
1,note_on,75,67,120
1,note_on,75,0,360
1,note_on,77,69,0
1,note_on,77,0,120
1,note_on,79,72,0
1,note_on,79,0,360
1,note_on,70,63,0
1,note_on,70,0,60
1,note_on,72,66,60
1,note_on,72,0,360
1,note_on,74,68,0
1,note_on,74,0,120
1,note_on,75,71,0
1,note_on,75,0,360
1,note_on,67,63,0
1,note_on,67,0,60
1,note_on,68,65,60
1,note_on,68,0,360
1,note_on,70,67,0
1,note_on,70,0,120
1,note_on,72,70,0
1,note_on,72,0,360
1,note_on,68,63,0
1,note_on,68,0,60
1,note_on,67,61,60
1,note_on,67,0,480
1,note_on,70,63,240
1,note_on,70,0,120
1,note_on,75,65,120
1,note_on,75,0,360
1,note_on,77,67,0
1,note_on,77,0,120
1,note_on,79,70,0
1,note_on,79,0,360
1,note_on,71,63,0
1,note_on,71,0,60
1,note_on,72,66,60
1,note_on,72,0,360
1,note_on,74,67,0
1,note_on,74,0,120
1,note_on,75,71,0
1,note_on,75,0,360
1,note_on,67,61,0
1,note_on,67,0,60
1,note_on,68,63,60
1,note_on,68,0,360
1,note_on,70,64,0
1,note_on,70,0,120
1,note_on,72,68,0
1,note_on,72,0,360
1,note_on,68,61,0
1,note_on,68,0,60
1,note_on,67,57,60
1,note_on,67,0,480
1,note_on,67,49,240
1,note_on,67,0,240
1,note_on,70,53,0
1,note_on,70,0,240
1,note_on,69,49,0
1,note_on,69,0,240
1,note_on,69,54,240
1,note_on,69,0,240
1,note_on,72,58,0
1,note_on,72,0,240
1,note_on,70,55,0
1,note_on,70,0,240
1,note_on,71,61,240
1,note_on,71,0,240
1,note_on,74,66,0
1,note_on,74,0,240
1,note_on,72,60,0
1,note_on,72,0,120
1,note_on,75,71,120
1,note_on,75,0,240
1,note_on,74,62,0
1,note_on,74,0,120
1,note_on,77,74,120
1,note_on,77,0,240
1,note_on,75,63,0
1,note_on,75,0,120
1,note_on,77,79,120
1,note_on,77,0,240
1,note_on,76,69,0
1,note_on,76,0,120
1,note_on,79,86,120
1,note_on,79,0,240
1,note_on,77,74,0
1,note_on,77,0,120
1,note_on,80,91,120
1,note_on,80,0,240
1,note_on,79,83,0
1,note_on,79,0,120
1,note_on,82,99,120
1,note_on,82,0,240
1,note_on,80,83,0
1,note_on,80,0,120
1,note_on,77,49,1320
1,note_on,77,0,240
1,note_on,79,52,0
1,note_on,79,0,360
1,note_on,75,49,0
1,note_on,75,0,120
1,note_on,72,53,0
1,note_on,72,0,360
1,note_on,77,49,0
1,note_on,77,0,120
1,note_on,75,53,0
1,note_on,75,0,480
1,note_on,74,49,0
1,note_on,74,0,480
1,note_on,82,97,0
1,note_on,82,0,240
1,note_on,80,87,0
1,note_on,80,0,240
1,note_on,77,48,1200
1,note_on,77,0,240
1,note_on,79,51,0
1,note_on,79,0,360
1,note_on,75,48,0
1,note_on,75,0,120
1,note_on,72,51,0
1,note_on,72,0,360
1,note_on,77,48,0
1,note_on,77,0,120
1,note_on,75,51,0
1,note_on,75,0,480
1,note_on,74,48,0
1,note_on,74,0,480
1,note_on,67,69,0
1,note_on,67,0,120
1,note_on,79,74,0
1,note_on,79,0,600
1,note_on,75,56,0
1,note_on,75,0,240
1,note_on,72,51,0
1,note_on,72,0,240
1,note_on,72,47,240
1,note_on,72,0,240
1,note_on,77,55,240
1,note_on,77,0,480
1,note_on,80,56,0
1,note_on,80,0,480
1,note_on,71,46,0
1,note_on,71,0,240
1,note_on,71,46,480
1,note_on,71,0,240
1,note_on,74,52,0
1,note_on,74,0,240
1,note_on,72,49,0
1,note_on,72,0,240
1,note_on,75,55,0
1,note_on,75,0,240
1,note_on,74,50,0
1,note_on,74,0,240
1,note_on,77,58,0
1,note_on,77,0,240
1,note_on,75,53,0
1,note_on,75,0,240
1,note_on,71,46,240
1,note_on,71,0,240
1,note_on,74,50,0
1,note_on,74,0,240
1,note_on,72,48,0
1,note_on,72,0,240
1,note_on,75,55,0
1,note_on,75,0,240
1,note_on,74,51,0
1,note_on,74,0,240
1,note_on,77,58,0
1,note_on,77,0,240
1,note_on,75,51,0
1,note_on,75,0,240
1,note_on,77,62,0
1,note_on,77,0,240
1,note_on,76,56,0
1,note_on,76,0,240
1,note_on,77,75,0
1,note_on,77,0,720
1,note_on,74,44,0
1,note_on,74,0,240
1,note_on,70,48,0
1,note_on,70,0,240
1,note_on,70,48,240
1,note_on,70,0,240
1,note_on,75,52,240
1,note_on,75,0,480
1,note_on,78,49,0
1,note_on,78,0,480
1,note_on,69,52,0
1,note_on,69,0,240
1,note_on,69,44,480
1,note_on,69,0,240
1,note_on,72,49,0
1,note_on,72,0,240
1,note_on,70,47,0
1,note_on,70,0,240
1,note_on,73,51,0
1,note_on,73,0,240
1,note_on,72,47,0
1,note_on,72,0,240
1,note_on,75,54,0
1,note_on,75,0,240
1,note_on,73,51,0
1,note_on,73,0,240
1,note_on,69,45,240
1,note_on,69,0,240
1,note_on,72,50,0
1,note_on,72,0,240
1,note_on,70,45,0
1,note_on,70,0,240
1,note_on,73,52,0
1,note_on,73,0,240
1,note_on,72,48,0
1,note_on,72,0,240
1,note_on,75,55,0
1,note_on,75,0,240
1,note_on,73,50,0
1,note_on,73,0,240
1,note_on,73,51,240
1,note_on,73,0,120
1,note_on,73,55,120
1,note_on,73,0,240
1,note_on,71,52,0
1,note_on,71,0,240
1,note_on,71,48,240
1,note_on,71,0,228
1,note_on,71,53,12
1,note_on,71,0,240
1,note_on,70,49,0
1,note_on,70,0,240
1,note_on,70,52,240
1,note_on,70,0,228
1,note_on,70,71,12
1,note_on,70,0,240
1,note_on,80,73,0
1,note_on,80,0,240
1,note_on,80,74,240
1,note_on,80,0,228
1,note_on,80,78,12
1,note_on,80,0,240
1,note_on,78,75,0
1,note_on,78,0,240
1,note_on,78,76,240
1,note_on,78,0,228
1,note_on,78,81,12
1,note_on,78,0,240
1,note_on,77,78,0
1,note_on,77,0,240
1,note_on,77,84,240
1,note_on,77,0,228
1,note_on,77,89,12
1,note_on,77,0,240
1,note_on,76,84,0
1,note_on,76,0,240
1,note_on,76,91,240
1,note_on,76,0,240
1,note_on,82,93,0
1,note_on,82,0,240
1,note_on,84,76,0
1,note_on,84,0,80
1,note_on,82,78,0
1,note_on,82,0,80
1,note_on,81,80,0
1,note_on,81,0,80
1,note_on,82,79,0
1,note_on,82,0,240
1,note_on,84,86,0
1,note_on,84,0,240
1,note_on,85,92,0
1,note_on,85,0,480
1,note_on,76,89,0
1,note_on,76,0,480
1,note_on,77,91,0
1,note_on,77,0,240
1,note_on,76,79,0
1,note_on,76,0,240
1,note_on,77,85,0
1,note_on,77,0,240
1,note_on,72,74,0
1,note_on,72,0,240
1,note_on,75,78,0
1,note_on,75,0,240
1,note_on,73,70,0
1,note_on,73,0,240
1,note_on,72,68,0
1,note_on,72,0,240
1,note_on,70,64,0
1,note_on,70,0,240
1,note_on,78,76,0
1,note_on,78,0,240
1,note_on,77,71,0
1,note_on,77,0,240
1,note_on,76,71,0
1,note_on,76,0,240
1,note_on,77,61,0
1,note_on,77,0,240
1,note_on,75,66,0
1,note_on,75,0,240
1,note_on,73,60,0
1,note_on,73,0,240
1,note_on,72,56,0
1,note_on,72,0,240
1,note_on,70,53,0
1,note_on,70,0,240
1,note_on,69,50,0
1,note_on,72,50,0
1,note_on,72,0,480
1,note_on,69,0,0
1,note_on,70,62,0
1,note_on,73,62,0
1,note_on,73,0,480
1,note_on,70,0,0
1,note_on,72,57,0
1,note_on,69,57,0
1,note_on,69,0,480
1,note_on,72,0,0
1,note_on,70,62,0
1,note_on,76,62,0
1,note_on,76,0,480
1,note_on,70,0,0
1,note_on,77,65,0
1,note_on,69,65,0
1,note_on,69,0,480
1,note_on,77,0,0
1,note_on,73,62,0
1,note_on,70,62,0
1,note_on,70,0,480
1,note_on,73,0,0
1,note_on,72,57,0
1,note_on,69,57,0
1,note_on,69,0,480
1,note_on,72,0,0
1,note_on,70,62,0
1,note_on,76,62,0
1,note_on,76,0,480
1,note_on,70,0,0
1,note_on,77,68,0
1,note_on,69,68,0
1,note_on,69,0,228
1,note_on,77,0,0
1,note_on,77,68,12
1,note_on,77,0,240
1,note_on,77,60,240
1,note_on,77,0,228
1,note_on,77,64,12
1,note_on,77,0,228
1,note_on,77,60,12
1,note_on,77,0,240
1,note_on,77,60,240
1,note_on,77,0,228
1,note_on,77,63,12
1,note_on,77,0,228
1,note_on,77,60,12
1,note_on,77,0,240
1,note_on,77,64,240
1,note_on,77,0,228
1,note_on,77,67,12
1,note_on,77,0,228
1,note_on,77,64,12
1,note_on,77,0,240
1,note_on,77,69,240
1,note_on,77,0,228
1,note_on,77,72,12
1,note_on,77,0,228
1,note_on,77,74,12
1,note_on,77,0,240
1,note_on,77,79,240
1,note_on,77,0,228
1,note_on,77,82,12
1,note_on,77,0,228
1,note_on,77,84,12
1,note_on,77,0,240
1,note_on,77,86,240
1,note_on,77,0,228
1,note_on,77,86,12
1,note_on,77,0,120
1,note_on,65,67,120
1,note_on,65,0,240
1,note_on,64,66,0
1,note_on,64,0,240
1,note_on,65,65,0
1,note_on,65,0,240
1,note_on,66,64,0
1,note_on,66,0,240
1,note_on,67,63,0
1,note_on,67,0,240
1,note_on,68,62,0
1,note_on,68,0,240
1,note_on,69,61,0
1,note_on,69,0,240
1,note_on,70,60,0
1,note_on,70,0,240
1,note_on,71,59,0
1,note_on,71,0,240
1,note_on,72,58,0
1,note_on,72,0,240
1,note_on,73,57,0
1,note_on,73,0,240
1,note_on,74,56,0
1,note_on,74,0,240
1,note_on,75,55,0
1,note_on,75,0,240
1,note_on,76,54,0
1,note_on,76,0,240
1,note_on,77,52,0
1,note_on,77,0,230
1,note_on,77,66,1
1,note_on,74,53,719
1,note_on,77,0,1
1,note_on,74,0,239
1,note_on,70,55,0
1,note_on,70,0,120
1,note_on,70,55,360
1,note_on,70,0,120
1,note_on,75,60,360
1,note_on,75,0,480
1,note_on,79,55,0
1,note_on,79,0,120
1,note_on,69,57,360
1,note_on,69,0,480
1,note_on,72,55,480
1,note_on,72,0,240
1,note_on,70,53,0
1,note_on,70,0,120
1,note_on,74,57,120
1,note_on,74,0,240
1,note_on,72,54,0
1,note_on,72,0,120
1,note_on,75,58,120
1,note_on,75,0,240
1,note_on,74,56,0
1,note_on,74,0,120
1,note_on,77,60,120
1,note_on,77,0,240
1,note_on,75,57,0
1,note_on,75,0,120
1,note_on,74,60,120
1,note_on,74,0,720
1,note_on,75,57,0
1,note_on,75,0,120
1,note_on,74,55,0
1,note_on,74,0,120
1,note_on,72,52,0
1,note_on,72,0,240
1,note_on,74,54,0
1,note_on,74,0,240
1,note_on,75,55,0
1,note_on,75,0,240
1,note_on,76,57,0
1,note_on,76,0,240
1,note_on,77,59,0
1,note_on,77,0,720
1,note_on,75,53,0
1,note_on,75,0,80
1,note_on,74,53,0
1,note_on,74,0,80
1,note_on,72,53,0
1,note_on,72,0,80
1,note_on,70,56,0
1,note_on,70,0,120
1,note_on,70,56,360
1,note_on,70,0,120
1,note_on,75,60,360
1,note_on,75,0,480
1,note_on,79,55,0
1,note_on,79,0,120
1,note_on,69,58,360
1,note_on,69,0,480
1,note_on,69,54,240
1,note_on,69,0,240
1,note_on,70,58,0
1,note_on,70,0,240
1,note_on,74,55,0
1,note_on,74,0,120
1,note_on,67,58,120
1,note_on,67,0,240
1,note_on,72,55,0
1,note_on,72,0,120
1,note_on,70,58,120
1,note_on,70,0,480
1,note_on,69,55,0
1,note_on,69,0,480
1,note_on,70,58,0
1,note_on,70,0,240
1,note_on,65,56,0
1,note_on,65,0,120
1,note_on,67,60,120
1,note_on,67,0,120
1,note_on,69,63,120
1,note_on,69,0,120
1,note_on,70,67,120
1,note_on,70,0,120
1,note_on,72,70,120
1,note_on,72,0,120
1,note_on,74,74,120
1,note_on,74,0,120
1,note_on,75,77,120
1,note_on,75,0,120
1,note_on,77,85,1
1,note_on,74,74,719
1,note_on,77,0,1
1,note_on,74,0,239
1,note_on,70,78,0
1,note_on,70,0,240
1,note_on,70,78,240
1,note_on,70,0,240
1,note_on,75,85,240
1,note_on,75,0,96
1,note_on,77,61,0
1,note_on,77,0,96
1,note_on,75,61,0
1,note_on,75,0,96
1,note_on,74,61,0
1,note_on,74,0,96
1,note_on,75,61,0
1,note_on,75,0,96
1,note_on,79,78,0
1,note_on,79,0,480
1,note_on,69,81,0
1,note_on,69,0,480
1,note_on,72,78,480
1,note_on,72,0,240
1,note_on,70,73,0
1,note_on,70,0,120
1,note_on,74,81,120
1,note_on,74,0,240
1,note_on,72,75,0
1,note_on,72,0,120
1,note_on,75,82,120
1,note_on,75,0,240
1,note_on,74,77,0
1,note_on,74,0,120
1,note_on,77,85,120
1,note_on,77,0,240
1,note_on,75,81,0
1,note_on,75,0,120
1,note_on,74,85,120
1,note_on,74,0,720
1,note_on,75,81,0
1,note_on,75,0,120
1,note_on,74,76,0
1,note_on,74,0,120
1,note_on,72,73,0
1,note_on,72,0,240
1,note_on,74,77,0
1,note_on,74,0,240
1,note_on,75,78,0
1,note_on,75,0,240
1,note_on,76,81,0
1,note_on,76,0,240
1,note_on,77,83,0
1,note_on,77,0,720
1,note_on,75,74,0
1,note_on,75,0,80
1,note_on,74,74,0
1,note_on,74,0,80
1,note_on,72,74,0
1,note_on,72,0,80
1,note_on,70,79,0
1,note_on,70,0,120
1,note_on,70,76,120
1,note_on,70,0,120
1,note_on,70,79,120
1,note_on,70,0,120
1,note_on,70,77,120
1,note_on,70,0,120
1,note_on,75,85,120
1,note_on,75,0,96
1,note_on,77,61,0
1,note_on,77,0,96
1,note_on,75,61,0
1,note_on,75,0,96
1,note_on,74,61,0
1,note_on,74,0,96
1,note_on,75,61,0
1,note_on,75,0,96
1,note_on,79,78,0
1,note_on,79,0,480
1,note_on,69,82,0
1,note_on,69,0,480
1,note_on,81,77,240
1,note_on,81,0,240
1,note_on,82,85,0
1,note_on,82,0,160
1,note_on,77,75,0
1,note_on,77,0,160
1,note_on,74,74,0
1,note_on,74,0,160
1,note_on,79,84,0
1,note_on,79,0,160
1,note_on,75,76,0
1,note_on,75,0,160
1,note_on,72,75,0
1,note_on,72,0,160
1,note_on,77,84,0
1,note_on,77,0,160
1,note_on,74,76,0
1,note_on,74,0,160
1,note_on,70,77,0
1,note_on,70,0,160
1,note_on,75,84,0
1,note_on,75,0,160
1,note_on,72,76,0
1,note_on,72,0,160
1,note_on,69,75,0
1,note_on,69,0,160
1,note_on,70,83,0
1,note_on,70,0,480
1,note_on,65,55,240
1,note_on,65,0,240
1,note_on,70,58,0
1,note_on,70,0,120
1,note_on,69,53,120
1,note_on,69,0,120
1,note_on,70,55,120
1,note_on,70,0,120
1,note_on,72,52,120
1,note_on,72,0,120
1,note_on,74,55,120
1,note_on,74,0,120
1,note_on,70,56,360
1,note_on,74,56,0
1,note_on,74,0,180
1,note_on,70,0,0
1,note_on,70,59,300
1,note_on,74,59,0
1,note_on,74,0,480
1,note_on,70,0,0
1,note_on,72,55,0
1,note_on,75,55,0
1,note_on,75,0,480
1,note_on,72,0,0
1,note_on,72,54,0
1,note_on,69,54,0
1,note_on,69,0,480
1,note_on,72,0,0
1,note_on,65,55,240
1,note_on,65,0,240
1,note_on,72,57,0
1,note_on,72,0,120
1,note_on,70,53,120
1,note_on,70,0,120
1,note_on,72,56,120
1,note_on,72,0,120
1,note_on,74,52,120
1,note_on,74,0,120
1,note_on,75,56,120
1,note_on,75,0,120
1,note_on,67,56,360
1,note_on,75,56,0
1,note_on,75,0,180
1,note_on,67,0,0
1,note_on,75,58,300
1,note_on,72,58,0
1,note_on,72,0,480
1,note_on,75,0,0
1,note_on,77,56,0
1,note_on,69,56,0
1,note_on,69,0,480
1,note_on,77,0,0
1,note_on,70,54,0
1,note_on,74,54,0
1,note_on,74,0,480
1,note_on,70,0,0
1,note_on,70,56,240
1,note_on,70,0,240
1,note_on,74,60,0
1,note_on,74,0,120
1,note_on,75,64,120
1,note_on,75,0,120
1,note_on,77,68,120
1,note_on,77,0,120
1,note_on,79,72,120
1,note_on,79,0,120
1,note_on,80,76,120
1,note_on,80,0,240
1,note_on,65,72,240
1,note_on,68,72,0
1,note_on,58,64,0
1,note_on,58,0,240
1,note_on,68,0,0
1,note_on,65,0,0
1,note_on,68,73,240
1,note_on,58,65,0
1,note_on,65,73,0
1,note_on,65,0,240
1,note_on,58,0,0
1,note_on,68,0,0
1,note_on,68,71,240
1,note_on,65,71,0
1,note_on,60,63,0
1,note_on,60,0,240
1,note_on,65,0,0
1,note_on,68,0,0
1,note_on,65,72,240
1,note_on,62,64,0
1,note_on,67,72,0
1,note_on,67,0,480
1,note_on,62,0,0
1,note_on,65,0,0
1,note_on,74,53,240
1,note_on,74,0,240
1,note_on,79,58,0
1,note_on,79,0,120
1,note_on,78,53,120
1,note_on,78,0,120
1,note_on,79,56,120
1,note_on,79,0,120
1,note_on,74,53,120
1,note_on,74,0,120
1,note_on,77,57,120
1,note_on,77,0,240
1,note_on,75,53,0
1,note_on,75,0,240
1,note_on,67,53,240
1,note_on,67,0,240
1,note_on,72,54,0
1,note_on,72,0,120
1,note_on,71,58,0
1,note_on,71,0,120
1,note_on,74,61,0
1,note_on,74,0,120
1,note_on,72,65,0
1,note_on,72,0,120
1,note_on,75,69,0
1,note_on,75,0,120
1,note_on,74,73,0
1,note_on,74,0,120
1,note_on,77,76,0
1,note_on,77,0,120
1,note_on,75,80,0
1,note_on,75,0,120
1,note_on,79,84,0
1,note_on,79,0,240
1,note_on,67,74,240
1,note_on,60,66,0
1,note_on,63,74,0
1,note_on,63,0,240
1,note_on,60,0,0
1,note_on,67,0,0
1,note_on,60,66,240
1,note_on,63,74,0
1,note_on,67,74,0
1,note_on,67,0,240
1,note_on,63,0,0
1,note_on,60,0,0
1,note_on,60,64,240
1,note_on,66,72,0
1,note_on,63,72,0
1,note_on,63,0,240
1,note_on,66,0,0
1,note_on,60,0,0
1,note_on,63,71,240
1,note_on,65,71,0
1,note_on,60,63,0
1,note_on,60,0,480
1,note_on,65,0,0
1,note_on,63,0,0
1,note_on,72,52,240
1,note_on,72,0,240
1,note_on,77,55,0
1,note_on,77,0,120
1,note_on,76,52,120
1,note_on,76,0,120
1,note_on,77,55,120
1,note_on,77,0,120
1,note_on,72,52,120
1,note_on,72,0,120
1,note_on,75,55,120
1,note_on,75,0,240
1,note_on,74,52,0
1,note_on,74,0,240
1,note_on,82,73,160
1,note_on,82,0,160
1,note_on,81,69,0
1,note_on,81,0,160
1,note_on,82,77,0
1,note_on,82,0,160
1,note_on,81,69,0
1,note_on,81,0,160
1,note_on,79,70,0
1,note_on,79,0,160
1,note_on,77,73,0
1,note_on,77,0,160
1,note_on,75,72,0
1,note_on,75,0,160
1,note_on,74,71,0
1,note_on,74,0,160
1,note_on,72,70,0
1,note_on,72,0,240
1,note_on,72,70,400
1,note_on,72,0,160
1,note_on,74,72,0
1,note_on,74,0,160
1,note_on,75,74,0
1,note_on,75,0,160
1,note_on,74,73,0
1,note_on,74,0,160
1,note_on,72,68,0
1,note_on,72,0,160
1,note_on,79,73,0
1,note_on,79,0,160
1,note_on,77,72,0
1,note_on,77,0,160
1,note_on,75,71,0
1,note_on,75,0,160
1,note_on,74,69,0
1,note_on,74,0,480
1,note_on,82,74,160
1,note_on,82,0,160
1,note_on,81,74,0
1,note_on,81,0,160
1,note_on,82,76,0
1,note_on,82,0,160
1,note_on,80,72,0
1,note_on,80,0,160
1,note_on,79,71,0
1,note_on,79,0,160
1,note_on,77,73,0
1,note_on,77,0,160
1,note_on,75,71,0
1,note_on,75,0,160
1,note_on,74,70,0
1,note_on,74,0,160
1,note_on,75,74,0
1,note_on,75,0,480
1,note_on,75,71,160
1,note_on,75,0,160
1,note_on,77,72,0
1,note_on,77,0,160
1,note_on,79,74,0
1,note_on,79,0,160
1,note_on,77,73,0
1,note_on,77,0,160
1,note_on,75,72,0
1,note_on,75,0,160
1,note_on,82,79,0
1,note_on,82,0,160
1,note_on,80,72,0
1,note_on,80,0,160
1,note_on,79,70,0
1,note_on,79,0,160
1,note_on,77,72,0
1,note_on,77,0,480
1,note_on,82,74,160
1,note_on,82,0,160
1,note_on,81,71,0
1,note_on,81,0,160
1,note_on,82,76,0
1,note_on,82,0,160
1,note_on,80,72,0
1,note_on,80,0,160
1,note_on,79,73,0
1,note_on,79,0,160
1,note_on,77,71,0
1,note_on,77,0,160
1,note_on,79,72,0
1,note_on,79,0,160
1,note_on,80,74,0
1,note_on,80,0,160
1,note_on,79,72,0
1,note_on,79,0,160
1,note_on,82,78,0
1,note_on,82,0,160
1,note_on,81,75,0
1,note_on,81,0,160
1,note_on,79,71,0
1,note_on,79,0,160
1,note_on,81,73,0
1,note_on,81,0,160
1,note_on,82,75,0
1,note_on,82,0,160
1,note_on,75,70,0
1,note_on,75,0,160
1,note_on,79,74,0
1,note_on,79,0,160
1,note_on,77,69,0
1,note_on,77,0,160
1,note_on,75,70,0
1,note_on,75,0,160
1,note_on,77,72,0
1,note_on,77,0,160
1,note_on,79,75,0
1,note_on,79,0,160
1,note_on,72,73,0
1,note_on,72,0,160
1,note_on,75,76,0
1,note_on,75,0,160
1,note_on,74,74,0
1,note_on,74,0,160
1,note_on,72,73,0
1,note_on,72,0,160
1,note_on,74,74,0
1,note_on,74,0,160
1,note_on,75,69,0
1,note_on,75,0,160
1,note_on,67,72,0
1,note_on,67,0,160
1,note_on,70,74,0
1,note_on,70,0,160
1,note_on,69,72,0
1,note_on,69,0,160
1,note_on,67,68,0
1,note_on,67,0,160
1,note_on,69,70,0
1,note_on,69,0,160
1,note_on,70,71,0
1,note_on,70,0,160
1,note_on,69,71,0
1,note_on,69,0,120
1,note_on,65,69,0
1,note_on,65,0,120
1,note_on,67,70,0
1,note_on,67,0,120
1,note_on,69,71,0
1,note_on,69,0,120
1,note_on,70,72,0
1,note_on,70,0,120
1,note_on,72,73,0
1,note_on,72,0,120
1,note_on,74,74,0
1,note_on,74,0,120
1,note_on,76,76,0
1,note_on,76,0,120
1,note_on,77,77,0
1,note_on,77,0,120
1,note_on,79,78,0
1,note_on,79,0,120
1,note_on,81,79,0
1,note_on,81,0,120
1,note_on,82,80,0
1,note_on,82,0,120
1,note_on,84,93,0
1,note_on,84,0,120
1,note_on,75,76,120
1,note_on,75,0,120
1,note_on,74,74,120
1,note_on,74,0,120
1,note_on,70,69,0
1,note_on,70,0,120
1,note_on,72,71,0
1,note_on,72,0,120
1,note_on,74,72,0
1,note_on,74,0,120
1,note_on,75,74,0
1,note_on,75,0,120
1,note_on,77,75,0
1,note_on,77,0,120
1,note_on,79,77,0
1,note_on,79,0,120
1,note_on,81,78,0
1,note_on,81,0,120
1,note_on,82,80,0
1,note_on,82,0,120
1,note_on,84,81,0
1,note_on,84,0,120
1,note_on,86,83,0
1,note_on,86,0,120
1,note_on,87,84,0
1,note_on,87,0,120
1,note_on,89,99,0
1,note_on,89,0,120
1,note_on,82,82,120
1,note_on,82,0,120
1,note_on,81,78,120
1,note_on,81,0,120
1,note_on,82,81,0
1,note_on,82,0,120
1,note_on,84,83,0
1,note_on,84,0,120
1,note_on,82,80,0
1,note_on,82,0,120
1,note_on,81,79,0
1,note_on,81,0,120
1,note_on,82,82,0
1,note_on,82,0,120
1,note_on,84,85,0
1,note_on,84,0,120
1,note_on,86,88,0
1,note_on,86,0,120
1,note_on,87,89,0
1,note_on,87,0,120
1,note_on,86,87,0
1,note_on,86,0,120
1,note_on,84,86,0
1,note_on,84,0,120
1,note_on,82,84,0
1,note_on,82,0,120
1,note_on,81,82,0
1,note_on,81,0,120
1,note_on,79,80,0
1,note_on,79,0,120
1,note_on,77,78,0
1,note_on,77,0,120
1,note_on,75,77,0
1,note_on,75,0,120
1,note_on,74,75,0
1,note_on,74,0,120
1,note_on,77,75,0
1,note_on,77,0,120
1,note_on,75,74,0
1,note_on,75,0,120
1,note_on,74,73,0
1,note_on,74,0,120
1,note_on,75,71,0
1,note_on,75,0,120
1,note_on,77,73,0
1,note_on,77,0,120
1,note_on,79,76,0
1,note_on,79,0,120
1,note_on,81,78,0
1,note_on,81,0,120
1,note_on,82,79,0
1,note_on,82,0,120
1,note_on,81,78,0
1,note_on,81,0,120
1,note_on,79,77,0
1,note_on,79,0,120
1,note_on,77,76,0
1,note_on,77,0,120
1,note_on,75,75,0
1,note_on,75,0,120
1,note_on,74,74,0
1,note_on,74,0,120
1,note_on,72,72,0
1,note_on,72,0,120
1,note_on,70,71,0
1,note_on,70,0,120
1,note_on,77,70,0
1,note_on,69,70,0
1,note_on,72,70,0
1,note_on,72,0,120
1,note_on,69,0,0
1,note_on,77,0,0
1,note_on,65,71,360
1,note_on,65,0,240
1,note_on,72,76,240
1,note_on,72,0,720
1,note_on,69,60,0
1,note_on,69,0,120
1,note_on,65,60,0
1,note_on,65,0,120
1,note_on,70,67,0
1,note_on,70,0,480
1,note_on,71,70,0
1,note_on,71,0,480
1,note_on,72,74,0
1,note_on,72,0,720
1,note_on,69,61,0
1,note_on,69,0,120
1,note_on,65,61,0
1,note_on,65,0,120
1,note_on,70,65,0
1,note_on,70,0,480
1,note_on,72,75,480
1,note_on,72,0,120
1,note_on,72,75,120
1,note_on,72,0,480
1,note_on,69,61,0
1,note_on,69,0,120
1,note_on,65,61,0
1,note_on,65,0,120
1,note_on,70,64,0
1,note_on,70,0,120
1,note_on,70,68,120
1,note_on,70,0,120
1,note_on,71,71,120
1,note_on,71,0,120
1,note_on,71,71,120
1,note_on,71,0,120
1,note_on,72,77,120
1,note_on,72,0,120
1,note_on,72,77,120
1,note_on,72,0,480
1,note_on,69,60,0
1,note_on,69,0,120
1,note_on,65,62,0
1,note_on,65,0,120
1,note_on,70,66,0
1,note_on,70,0,480
1,note_on,83,65,480
1,note_on,84,68,120
1,note_on,83,0,24
1,note_on,86,70,96
1,note_on,84,0,24
1,note_on,84,73,96
1,note_on,86,0,24
1,note_on,82,76,96
1,note_on,84,0,24
1,note_on,81,77,96
1,note_on,82,0,24
1,note_on,79,80,96
1,note_on,81,0,24
1,note_on,77,79,96
1,note_on,79,0,24
1,note_on,82,85,96
1,note_on,77,0,24
1,note_on,82,0,96
1,note_on,77,75,0
1,note_on,77,0,120
1,note_on,86,85,0
1,note_on,86,0,120
1,note_on,82,79,0
1,note_on,82,0,120
1,note_on,89,85,0
1,note_on,89,0,120
1,note_on,86,78,0
1,note_on,86,0,120
1,note_on,89,85,0
1,note_on,89,0,120
1,note_on,86,77,0
1,note_on,86,0,120
1,note_on,89,83,0
1,note_on,87,83,120
1,note_on,89,0,24
1,note_on,86,82,96
1,note_on,87,0,24
1,note_on,84,81,96
1,note_on,86,0,24
1,note_on,82,81,96
1,note_on,84,0,24
1,note_on,81,80,96
1,note_on,82,0,24
1,note_on,79,79,96
1,note_on,81,0,24
1,note_on,77,79,96
1,note_on,79,0,24
1,note_on,79,87,96
1,note_on,77,0,24
1,note_on,79,0,96
1,note_on,75,78,0
1,note_on,75,0,120
1,note_on,82,86,0
1,note_on,82,0,120
1,note_on,79,76,0
1,note_on,79,0,120
1,note_on,82,86,0
1,note_on,82,0,120
1,note_on,81,77,0
1,note_on,81,0,120
1,note_on,82,83,0
1,note_on,82,0,120
1,note_on,81,77,0
1,note_on,81,0,120
1,note_on,82,79,0
1,note_on,82,0,120
1,note_on,81,73,0
1,note_on,81,0,120
1,note_on,79,76,0
1,note_on,79,0,120
1,note_on,77,68,0
1,note_on,77,0,120
1,note_on,75,72,0
1,note_on,75,0,120
1,note_on,74,67,0
1,note_on,74,0,120
1,note_on,72,68,0
1,note_on,72,0,120
1,note_on,70,63,0
1,note_on,70,0,120
1,note_on,65,67,0
1,note_on,65,0,60
1,note_on,77,67,60
1,note_on,77,0,120
1,note_on,79,69,0
1,note_on,79,0,120
1,note_on,77,67,0
1,note_on,77,0,120
1,note_on,75,67,0
1,note_on,75,0,120
1,note_on,74,64,0
1,note_on,74,0,120
1,note_on,72,67,0
1,note_on,72,0,120
1,note_on,70,64,0
1,note_on,70,0,120
1,note_on,72,67,0
1,note_on,72,0,80
1,note_on,74,61,0
1,note_on,74,0,80
1,note_on,72,59,0
1,note_on,72,0,80
1,note_on,74,67,0
1,note_on,74,0,80
1,note_on,72,59,0
1,note_on,72,0,80
1,note_on,74,59,0
1,note_on,74,0,80
1,note_on,72,61,0
1,note_on,72,0,80
1,note_on,74,67,0
1,note_on,74,0,80
1,note_on,72,67,0
1,note_on,72,0,80
1,note_on,70,69,0
1,note_on,70,0,120
1,note_on,72,70,0
1,note_on,72,0,120
1,note_on,74,72,0
1,note_on,74,0,120
1,note_on,75,74,0
1,note_on,75,0,120
1,note_on,77,74,0
1,note_on,77,0,120
1,note_on,75,72,0
1,note_on,75,0,120
1,note_on,74,71,0
1,note_on,74,0,120
1,note_on,72,70,0
1,note_on,72,0,120
1,note_on,70,68,0
1,note_on,70,0,120
1,note_on,69,67,0
1,note_on,69,0,120
1,note_on,70,69,0
1,note_on,70,0,120
1,note_on,72,71,0
1,note_on,72,0,120
1,note_on,74,72,0
1,note_on,74,0,120
1,note_on,72,70,0
1,note_on,72,0,120
1,note_on,70,69,0
1,note_on,70,0,120
1,note_on,68,69,0
1,note_on,68,0,120
1,note_on,67,68,0
1,note_on,67,0,120
1,note_on,66,67,0
1,note_on,66,0,120
1,note_on,67,67,0
1,note_on,67,0,120
1,note_on,69,70,0
1,note_on,69,0,120
1,note_on,70,72,0
1,note_on,70,0,120
1,note_on,69,71,0
1,note_on,69,0,120
1,note_on,67,70,0
1,note_on,67,0,120
1,note_on,65,69,0
1,note_on,65,0,120
1,note_on,63,68,0
1,note_on,63,0,120
1,note_on,62,68,0
1,note_on,62,0,120
1,note_on,60,67,0
1,note_on,60,0,120
1,note_on,62,68,0
1,note_on,62,0,120
1,note_on,63,69,0
1,note_on,63,0,120
1,note_on,62,68,0
1,note_on,62,0,120
1,note_on,60,66,0
1,note_on,60,0,120
1,note_on,58,65,0
1,note_on,58,0,120
1,note_on,57,63,0
1,note_on,57,0,120
1,note_on,55,61,0
1,note_on,55,0,120
1,note_on,53,60,0
1,note_on,53,0,240
1,note_on,55,62,0
1,note_on,55,0,120
1,note_on,57,64,0
1,note_on,57,0,120
1,note_on,58,66,0
1,note_on,58,0,120
1,note_on,60,68,0
1,note_on,60,0,120
1,note_on,62,70,0
1,note_on,62,0,120
1,note_on,63,69,0
1,note_on,63,0,120
1,note_on,67,72,0
1,note_on,67,0,120
1,note_on,65,71,0
1,note_on,65,0,120
1,note_on,63,70,0
1,note_on,63,0,120
1,note_on,62,69,0
1,note_on,62,0,120
1,note_on,63,67,0
1,note_on,63,0,120
1,note_on,65,67,0
1,note_on,65,0,120
1,note_on,67,68,0
1,note_on,67,0,120
1,note_on,69,69,0
1,note_on,69,0,120
1,note_on,70,71,0
1,note_on,70,0,120
1,note_on,69,71,0
1,note_on,69,0,120
1,note_on,67,70,0
1,note_on,67,0,120
1,note_on,65,69,0
1,note_on,65,0,120
1,note_on,67,68,0
1,note_on,67,0,120
1,note_on,69,69,0
1,note_on,69,0,120
1,note_on,70,70,0
1,note_on,70,0,120
1,note_on,72,71,0
1,note_on,72,0,120
1,note_on,74,73,0
1,note_on,74,0,120
1,note_on,72,73,0
1,note_on,72,0,120
1,note_on,70,72,0
1,note_on,70,0,120
1,note_on,69,71,0
1,note_on,69,0,120
1,note_on,70,70,0
1,note_on,70,0,120
1,note_on,72,71,0
1,note_on,72,0,120
1,note_on,74,73,0
1,note_on,74,0,120
1,note_on,75,75,0
1,note_on,75,0,120
1,note_on,77,76,0
1,note_on,77,0,120
1,note_on,74,71,0
1,note_on,74,0,120
1,note_on,77,76,0
1,note_on,77,0,120
1,note_on,74,70,0
1,note_on,74,0,120
1,note_on,82,82,0
1,note_on,82,0,120
1,note_on,77,76,0
1,note_on,77,0,120
1,note_on,82,82,0
1,note_on,82,0,120
1,note_on,77,76,0
1,note_on,77,0,120
1,note_on,86,88,0
1,note_on,86,0,120
1,note_on,82,83,0
1,note_on,82,0,120
1,note_on,86,88,0
1,note_on,86,0,120
1,note_on,82,83,0
1,note_on,82,0,120
1,note_on,89,95,0
1,note_on,89,0,120
1,note_on,86,88,0
1,note_on,86,0,120
1,note_on,89,95,0
1,note_on,89,0,120
1,note_on,86,85,0
1,note_on,86,0,120
1,note_on,82,93,0
1,note_on,82,0,120
1,note_on,86,89,0
1,note_on,86,0,120
1,note_on,82,93,0
1,note_on,82,0,120
1,note_on,86,87,0
1,note_on,86,0,120
1,note_on,77,89,0
1,note_on,77,0,120
1,note_on,82,84,0
1,note_on,82,0,120
1,note_on,77,90,0
1,note_on,77,0,120
1,note_on,82,84,0
1,note_on,82,0,120
1,note_on,74,87,0
1,note_on,74,0,120
1,note_on,77,80,0
1,note_on,77,0,120
1,note_on,74,87,0
1,note_on,74,0,120
1,note_on,77,80,0
1,note_on,77,0,120
1,note_on,70,81,0
1,note_on,70,0,120
1,note_on,74,73,0
1,note_on,74,0,120
1,note_on,70,81,0
1,note_on,70,0,120
1,note_on,74,73,0
1,note_on,74,0,120
1,note_on,65,83,0
1,note_on,65,0,240
1,note_on,77,91,240
1,note_on,77,0,720
1,note_on,79,77,0
1,note_on,79,0,120
1,note_on,77,76,0
1,note_on,77,0,120
1,note_on,75,76,0
1,note_on,75,0,120
1,note_on,74,75,0
1,note_on,74,0,120
1,note_on,72,74,0
1,note_on,72,0,120
1,note_on,70,73,0
1,note_on,70,0,120
1,note_on,70,53,0
1,note_on,70,0,80
1,note_on,72,48,0
1,note_on,72,0,80
1,note_on,74,49,0
1,note_on,74,0,80
1,note_on,72,53,0
1,note_on,72,0,80
1,note_on,74,51,0
1,note_on,74,0,80
1,note_on,72,55,0
1,note_on,72,0,80
1,note_on,74,52,0
1,note_on,74,0,80
1,note_on,72,56,0
1,note_on,72,0,80
1,note_on,74,52,0
1,note_on,74,0,80
1,note_on,72,56,0
1,note_on,72,0,80
1,note_on,74,54,0
1,note_on,74,0,80
1,note_on,72,58,0
1,note_on,72,0,80
1,note_on,74,55,0
1,note_on,74,0,80
1,note_on,72,59,0
1,note_on,72,0,80
1,note_on,74,54,0
1,note_on,74,0,80
1,note_on,72,60,0
1,note_on,72,0,80
1,note_on,74,56,0
1,note_on,74,0,80
1,note_on,72,57,0
1,note_on,72,0,80
1,note_on,74,65,0
1,note_on,74,0,120
1,note_on,72,61,0
1,note_on,72,0,120
1,note_on,70,67,0
1,note_on,70,0,120
1,note_on,72,64,0
1,note_on,72,0,120
1,note_on,70,70,0
1,note_on,70,0,240
1,note_on,70,59,0
1,note_on,70,0,240
1,note_on,70,56,240
1,note_on,70,0,240
1,note_on,70,57,0
1,note_on,70,0,240
1,note_on,70,57,0
1,note_on,70,0,240
1,note_on,70,56,240
1,note_on,70,0,240
1,note_on,72,60,0
1,note_on,72,0,240
1,note_on,72,57,0
1,note_on,72,0,120
1,note_on,72,57,360
1,note_on,72,0,240
1,note_on,72,60,0
1,note_on,72,0,240
1,note_on,72,57,0
1,note_on,72,0,240
1,note_on,72,61,240
1,note_on,72,0,240
1,note_on,74,65,0
1,note_on,74,0,240
1,note_on,74,61,0
1,note_on,74,0,120
1,note_on,74,70,360
1,note_on,74,0,240
1,note_on,75,72,0
1,note_on,75,0,240
1,note_on,75,70,0
1,note_on,75,0,120
1,note_on,76,77,360
1,note_on,76,0,240
1,note_on,77,81,0
1,note_on,77,0,240
1,note_on,77,78,0
1,note_on,77,0,120
1,note_on,78,85,360
1,note_on,78,0,240
1,note_on,79,92,0
1,note_on,79,0,240
1,note_on,79,92,0
1,note_on,79,0,120
1,note_on,81,96,120
1,note_on,81,0,120
1,note_on,81,96,120
1,note_on,81,0,120
1,note_on,74,109,120
1,note_on,74,0,120
1,note_on,82,93,0
1,note_on,82,0,120
1,note_on,86,105,0
1,note_on,86,0,120
1,note_on,82,96,0
1,note_on,82,0,120
1,note_on,86,105,0
1,note_on,86,0,120
1,note_on,82,96,0
1,note_on,82,0,120
1,note_on,86,103,0
1,note_on,86,0,120
1,note_on,82,94,0
1,note_on,82,0,120
1,note_on,74,110,0
1,note_on,74,0,120
1,note_on,82,94,0
1,note_on,82,0,120
1,note_on,86,103,0
1,note_on,86,0,120
1,note_on,82,100,0
1,note_on,82,0,120
1,note_on,86,105,0
1,note_on,86,0,120
1,note_on,82,94,0
1,note_on,82,0,120
1,note_on,86,100,0
1,note_on,86,0,120
1,note_on,82,95,0
1,note_on,82,0,120
1,note_on,74,109,0
1,note_on,74,0,120
1,note_on,82,95,0
1,note_on,82,0,120
1,note_on,86,100,0
1,note_on,86,0,120
1,note_on,82,93,0
1,note_on,82,0,120
1,note_on,86,105,0
1,note_on,86,0,120
1,note_on,82,95,0
1,note_on,82,0,120
1,note_on,86,100,0
1,note_on,86,0,120
1,note_on,82,93,0
1,note_on,82,0,120
1,note_on,74,109,0
1,note_on,74,0,120
1,note_on,82,95,0
1,note_on,82,0,120
1,note_on,86,101,0
1,note_on,86,0,120
1,note_on,82,94,0
1,note_on,82,0,120
1,note_on,86,105,0
1,note_on,86,0,120
1,note_on,82,96,0
1,note_on,82,0,120
1,note_on,86,100,0
1,note_on,86,0,120
1,note_on,82,93,0
1,note_on,82,0,120
1,note_on,74,109,0
1,note_on,74,0,120
1,note_on,82,95,0
1,note_on,82,0,120
1,note_on,86,100,0
1,note_on,86,0,120
1,note_on,82,95,0
1,note_on,82,0,120
1,note_on,86,104,0
1,note_on,86,0,120
1,note_on,82,94,0
1,note_on,82,0,120
1,note_on,86,101,0
1,note_on,86,0,120
1,note_on,82,93,0
1,note_on,82,0,120
1,note_on,74,109,0
1,note_on,74,0,120
1,note_on,82,95,0
1,note_on,82,0,120
1,note_on,86,100,0
1,note_on,86,0,120
1,note_on,82,95,0
1,note_on,82,0,120
1,note_on,86,104,0
1,note_on,86,0,120
1,note_on,82,95,0
1,note_on,82,0,120
1,note_on,86,100,0
1,note_on,86,0,120
1,note_on,82,95,0
1,note_on,82,0,120
1,note_on,82,99,0
1,note_on,86,99,0
1,note_on,74,99,0
1,note_on,77,99,0
1,note_on,77,0,480
1,note_on,74,0,0
1,note_on,82,0,0
1,note_on,86,0,480
1,note_on,65,57,240
1,note_on,65,0,120
1,note_on,69,59,0
1,note_on,69,0,120
1,note_on,67,61,0
1,note_on,67,0,120
1,note_on,70,62,0
1,note_on,70,0,120
1,note_on,69,64,0
1,note_on,69,0,120
1,note_on,72,66,0
1,note_on,72,0,120
1,note_on,70,68,0
1,note_on,70,0,120
1,note_on,69,54,120
1,note_on,69,0,120
1,note_on,72,56,0
1,note_on,72,0,120
1,note_on,70,58,0
1,note_on,70,0,120
1,note_on,74,60,0
1,note_on,74,0,120
1,note_on,72,61,0
1,note_on,72,0,120
1,note_on,75,63,0
1,note_on,75,0,120
1,note_on,74,65,0
1,note_on,74,0,120
1,note_on,72,56,120
1,note_on,72,0,120
1,note_on,75,58,0
1,note_on,75,0,120
1,note_on,74,59,0
1,note_on,74,0,120
1,note_on,77,60,0
1,note_on,77,0,120
1,note_on,75,62,0
1,note_on,75,0,120
1,note_on,79,63,0
1,note_on,79,0,120
1,note_on,77,69,1
1,note_on,74,66,719
1,note_on,77,0,1
1,note_on,74,0,239
1,note_on,70,70,0
1,note_on,70,0,240
1,note_on,70,70,240
1,note_on,70,0,240
1,note_on,75,76,240
1,note_on,75,0,96
1,note_on,77,54,0
1,note_on,77,0,96
1,note_on,75,54,0
1,note_on,75,0,96
1,note_on,74,54,0
1,note_on,74,0,96
1,note_on,75,54,0
1,note_on,75,0,96
1,note_on,79,70,0
1,note_on,79,0,480
1,note_on,69,72,0
1,note_on,69,0,480
1,note_on,77,68,1
1,note_on,73,59,719
1,note_on,77,0,1
1,note_on,73,0,239
1,note_on,70,63,0
1,note_on,70,0,240
1,note_on,70,63,240
1,note_on,70,0,240
1,note_on,75,68,240
1,note_on,75,0,96
1,note_on,77,48,0
1,note_on,77,0,96
1,note_on,75,48,0
1,note_on,75,0,96
1,note_on,74,48,0
1,note_on,74,0,96
1,note_on,75,48,0
1,note_on,75,0,96
1,note_on,78,63,0
1,note_on,78,0,480
1,note_on,69,64,0
1,note_on,69,0,480
1,note_on,70,76,480
1,note_on,70,0,120
1,note_on,82,79,120
1,note_on,82,0,240
1,note_on,84,81,0
1,note_on,84,0,240
1,note_on,85,77,0
1,note_on,85,0,240
1,note_on,84,84,0
1,note_on,84,0,240
1,note_on,82,77,0
1,note_on,82,0,240
1,note_on,80,79,0
1,note_on,80,0,240
1,note_on,78,78,0
1,note_on,78,0,240
1,note_on,77,76,0
1,note_on,77,0,960
1,note_on,76,72,0
1,note_on,76,0,960
1,note_on,77,86,0
1,note_on,77,0,120
1,note_on,77,86,120
1,note_on,77,0,120
1,note_on,77,60,360
1,note_on,77,0,120
1,note_on,77,65,120
1,note_on,77,0,120
1,note_on,77,60,120
1,note_on,77,0,120
1,note_on,77,60,360
1,note_on,77,0,120
1,note_on,77,65,120
1,note_on,77,0,120
1,note_on,77,60,120
1,note_on,77,0,120
1,note_on,77,64,360
1,note_on,77,0,120
1,note_on,77,66,120
1,note_on,77,0,120
1,note_on,77,64,120
1,note_on,77,0,120
1,note_on,77,69,360
1,note_on,77,0,120
1,note_on,77,72,120
1,note_on,77,0,120
1,note_on,77,72,120
1,note_on,77,0,120
1,note_on,77,79,360
1,note_on,77,0,120
1,note_on,77,82,120
1,note_on,77,0,120
1,note_on,77,84,120
1,note_on,77,0,120
1,note_on,77,86,360
1,note_on,77,0,120
1,note_on,77,86,120
1,note_on,77,0,240
1,note_on,81,81,0
1,note_on,81,0,120
1,note_on,81,86,120
1,note_on,81,0,240
1,note_on,84,81,0
1,note_on,84,0,120
1,note_on,84,86,120
1,note_on,84,0,240
1,note_on,87,81,0
1,note_on,87,0,120
1,note_on,87,86,120
1,note_on,87,0,240
1,note_on,84,75,0
1,note_on,84,0,120
1,note_on,84,81,120
1,note_on,84,0,240
1,note_on,81,73,0
1,note_on,81,0,120
1,note_on,81,79,120
1,note_on,81,0,240
1,note_on,77,71,0
1,note_on,77,0,120
1,note_on,77,68,120
1,note_on,77,0,240
1,note_on,76,57,0
1,note_on,76,0,120
1,note_on,76,60,120
1,note_on,76,0,240
1,note_on,77,57,0
1,note_on,77,0,120
1,note_on,77,57,120
1,note_on,77,0,240
1,note_on,76,56,0
1,note_on,76,0,240
1,note_on,75,54,0
1,note_on,75,0,960
1,note_on,75,66,0
1,note_on,75,0,960
1,note_on,75,68,0
1,note_on,75,0,360
1,note_on,75,70,120
1,note_on,75,0,360
1,note_on,75,76,120
1,note_on,75,0,360
1,note_on,74,84,120
1,note_on,74,0,480
1,note_on,68,58,0
1,note_on,77,58,0
1,note_on,77,0,480
1,note_on,68,0,0
1,note_on,75,54,0
1,note_on,67,54,0
1,note_on,67,0,480
1,note_on,75,0,0
1,note_on,66,48,0
1,note_on,74,48,0
1,note_on,74,0,480
1,note_on,66,0,0
1,note_on,67,48,0
1,note_on,75,48,0
1,note_on,75,0,480
1,note_on,67,0,0
1,note_on,79,56,0
1,note_on,70,56,0
1,note_on,70,0,480
1,note_on,79,0,0
1,note_on,77,54,0
1,note_on,68,54,0
1,note_on,68,0,480
1,note_on,77,0,0
1,note_on,76,51,0
1,note_on,67,51,0
1,note_on,67,0,480
1,note_on,76,0,0
1,note_on,68,56,0
1,note_on,77,56,0
1,note_on,77,0,480
1,note_on,68,0,0
1,note_on,80,63,0
1,note_on,77,63,0
1,note_on,77,0,480
1,note_on,80,0,0
1,note_on,79,69,0
1,note_on,75,69,0
1,note_on,75,0,480
1,note_on,79,0,0
1,note_on,77,78,0
1,note_on,74,78,0
1,note_on,74,0,480
1,note_on,77,0,0
1,note_on,79,78,0
1,note_on,74,66,0
1,note_on,77,78,0
1,note_on,77,0,120
1,note_on,74,0,0
1,note_on,79,0,0
1,note_on,79,78,120
1,note_on,74,66,0
1,note_on,77,78,0
1,note_on,77,0,120
1,note_on,74,0,0
1,note_on,79,0,0
1,note_on,74,66,360
1,note_on,77,78,0
1,note_on,79,78,0
1,note_on,79,0,240
1,note_on,77,0,0
1,note_on,74,0,0
1,note_on,75,69,0
1,note_on,79,69,0
1,note_on,87,82,0
1,note_on,87,0,120
1,note_on,79,0,0
1,note_on,75,0,0
1,note_on,79,66,120
1,note_on,87,78,0
1,note_on,75,66,0
1,note_on,75,0,120
1,note_on,87,0,0
1,note_on,79,0,0
1,note_on,79,75,360
1,note_on,72,63,0
1,note_on,75,63,0
1,note_on,75,0,240
1,note_on,72,0,0
1,note_on,79,0,0
1,note_on,75,78,0
1,note_on,72,66,0
1,note_on,77,78,0
1,note_on,77,0,120
1,note_on,72,0,0
1,note_on,75,0,0
1,note_on,72,63,120
1,note_on,75,75,0
1,note_on,77,75,0
1,note_on,77,0,120
1,note_on,75,0,0
1,note_on,72,0,0
1,note_on,75,82,360
1,note_on,72,69,0
1,note_on,77,82,0
1,note_on,77,0,240
1,note_on,72,0,0
1,note_on,75,0,0
1,note_on,74,73,0
1,note_on,77,73,0
1,note_on,86,86,0
1,note_on,86,0,120
1,note_on,77,0,0
1,note_on,74,0,0
1,note_on,74,68,120
1,note_on,77,68,0
1,note_on,86,81,0
1,note_on,86,0,120
1,note_on,77,0,0
1,note_on,74,0,0
1,note_on,70,63,360
1,note_on,77,75,0
1,note_on,74,63,0
1,note_on,74,0,240
1,note_on,77,0,0
1,note_on,70,0,0
1,note_on,74,78,0
1,note_on,70,66,0
1,note_on,75,78,0
1,note_on,75,0,120
1,note_on,70,0,0
1,note_on,74,0,0
1,note_on,70,62,120
1,note_on,75,74,0
1,note_on,74,74,0
1,note_on,74,0,120
1,note_on,75,0,0
1,note_on,70,0,0
1,note_on,75,79,360
1,note_on,74,79,0
1,note_on,70,67,0
1,note_on,70,0,240
1,note_on,74,0,0
1,note_on,75,0,0
1,note_on,84,84,0
1,note_on,72,71,0
1,note_on,75,71,0
1,note_on,75,0,120
1,note_on,72,0,0
1,note_on,84,0,0
1,note_on,72,65,120
1,note_on,84,77,0
1,note_on,75,65,0
1,note_on,75,0,120
1,note_on,84,0,0
1,note_on,72,0,0
1,note_on,75,74,360
1,note_on,69,62,0
1,note_on,72,62,0
1,note_on,72,0,240
1,note_on,69,0,0
1,note_on,75,0,0
1,note_on,69,66,0
1,note_on,72,78,0
1,note_on,74,78,0
1,note_on,74,0,120
1,note_on,72,0,0
1,note_on,69,0,0
1,note_on,74,74,120
1,note_on,72,74,0
1,note_on,69,62,0
1,note_on,69,0,120
1,note_on,72,0,0
1,note_on,74,0,0
1,note_on,69,64,360
1,note_on,72,76,0
1,note_on,74,76,0
1,note_on,74,0,240
1,note_on,72,0,0
1,note_on,69,0,0
1,note_on,82,83,0
1,note_on,74,70,0
1,note_on,70,70,0
1,note_on,70,0,120
1,note_on,74,0,0
1,note_on,82,0,0
1,note_on,70,65,120
1,note_on,82,77,0
1,note_on,74,65,0
1,note_on,74,0,120
1,note_on,82,0,0
1,note_on,70,0,0
1,note_on,74,75,360
1,note_on,70,63,0
1,note_on,67,63,0
1,note_on,67,0,240
1,note_on,70,0,0
1,note_on,74,0,0
1,note_on,67,66,0
1,note_on,72,78,0
1,note_on,70,78,0
1,note_on,70,0,120
1,note_on,72,0,0
1,note_on,67,0,0
1,note_on,72,75,120
1,note_on,67,63,0
1,note_on,70,75,0
1,note_on,70,0,120
1,note_on,67,0,0
1,note_on,72,0,0
1,note_on,72,78,360
1,note_on,72,0,240
1,note_on,82,86,0
1,note_on,82,0,120
1,note_on,82,82,120
1,note_on,82,0,120
1,note_on,82,84,120
1,note_on,82,0,240
1,note_on,72,76,0
1,note_on,72,0,240
1,note_on,74,79,0
1,note_on,74,0,120
1,note_on,74,79,120
1,note_on,74,0,120
1,note_on,74,74,360
1,note_on,74,0,240
1,note_on,82,86,0
1,note_on,82,0,120
1,note_on,82,82,120
1,note_on,82,0,120
1,note_on,82,82,120
1,note_on,82,0,240
1,note_on,74,76,0
1,note_on,74,0,240
1,note_on,75,80,0
1,note_on,75,0,120
1,note_on,75,80,120
1,note_on,75,0,120
1,note_on,76,77,360
1,note_on,76,0,240
1,note_on,77,82,0
1,note_on,77,0,120
1,note_on,77,82,120
1,note_on,77,0,120
1,note_on,78,79,360
1,note_on,78,0,240
1,note_on,79,80,0
1,note_on,79,0,120
1,note_on,79,82,120
1,note_on,79,0,120
1,note_on,81,83,120
1,note_on,81,0,120
1,note_on,81,85,120
1,note_on,81,0,120
1,note_on,82,86,120
1,note_on,82,0,120
1,note_on,82,88,120
1,note_on,82,0,120
1,note_on,84,89,120
1,note_on,84,0,120
1,note_on,84,91,120
1,note_on,84,0,120
1,note_on,85,98,120
1,note_on,85,0,720
1,note_on,84,84,0
1,note_on,84,0,60
1,note_on,82,87,0
1,note_on,82,0,60
1,note_on,81,89,0
1,note_on,81,0,60
1,note_on,82,92,0
1,note_on,82,0,60
1,note_on,85,94,0
1,note_on,85,0,720
1,note_on,84,87,0
1,note_on,84,0,60
1,note_on,82,89,0
1,note_on,82,0,60
1,note_on,81,91,0
1,note_on,81,0,60
1,note_on,82,94,0
1,note_on,82,0,60
1,note_on,85,95,0
1,note_on,85,0,1080
1,note_on,82,87,0
1,note_on,82,0,120
1,note_on,79,86,0
1,note_on,79,0,120
1,note_on,76,84,0
1,note_on,76,0,120
1,note_on,73,83,0
1,note_on,73,0,120
1,note_on,70,82,0
1,note_on,70,0,120
1,note_on,67,81,0
1,note_on,67,0,120
1,note_on,64,79,0
1,note_on,64,0,120
1,note_on,62,74,2072
1,note_on,63,76,19
1,note_on,62,0,10
1,note_on,65,78,9
1,note_on,63,0,10
1,note_on,67,79,9
1,note_on,65,0,10
1,note_on,69,81,9
1,note_on,67,0,10
1,note_on,70,83,9
1,note_on,69,0,10
1,note_on,72,84,9
1,note_on,70,0,10
1,note_on,74,86,9
1,note_on,72,0,10
1,note_on,75,88,9
1,note_on,74,0,10
1,note_on,77,89,9
1,note_on,75,0,10
1,note_on,79,91,9
1,note_on,77,0,10
1,note_on,81,93,9
1,note_on,79,0,10
1,note_on,82,94,9
1,note_on,81,0,10
1,note_on,84,94,9
1,note_on,82,0,10
1,note_on,86,96,9
1,note_on,84,0,10
1,note_on,87,98,9
1,note_on,86,0,10
1,note_on,89,99,9
1,note_on,87,0,10
1,note_on,89,0,10
1,note_on,70,63,484
1,note_on,70,0,90
1,note_on,70,64,30
1,note_on,70,0,60
1,note_on,72,60,0
1,note_on,72,0,60
1,note_on,74,65,0
1,note_on,74,0,60
1,note_on,72,60,0
1,note_on,72,0,60
1,note_on,74,66,0
1,note_on,74,0,60
1,note_on,72,61,0
1,note_on,72,0,60
1,note_on,74,67,0
1,note_on,74,0,60
1,note_on,72,63,0
1,note_on,72,0,60
1,note_on,74,68,0
1,note_on,74,0,60
1,note_on,72,63,0
1,note_on,72,0,60
1,note_on,74,69,0
1,note_on,74,0,60
1,note_on,72,65,0
1,note_on,72,0,60
1,note_on,74,70,0
1,note_on,74,0,60
1,note_on,72,65,0
1,note_on,72,0,60
1,note_on,74,69,0
1,note_on,74,0,60
1,note_on,72,64,0
1,note_on,72,0,60
1,note_on,74,68,0
1,note_on,74,0,60
1,note_on,72,67,0
1,note_on,72,0,60
1,note_on,74,66,0
1,note_on,74,0,60
1,note_on,72,62,0
1,note_on,72,0,60
1,note_on,74,65,0
1,note_on,74,0,60
1,note_on,72,64,0
1,note_on,72,0,60
1,note_on,71,63,0
1,note_on,72,65,40
1,note_on,71,0,20
1,note_on,74,66,20
1,note_on,72,0,20
1,note_on,75,68,20
1,note_on,74,0,20
1,note_on,77,69,20
1,note_on,75,0,20
1,note_on,79,71,20
1,note_on,77,0,20
1,note_on,81,72,20
1,note_on,79,0,20
1,note_on,82,74,20
1,note_on,81,0,20
1,note_on,84,75,20
1,note_on,82,0,20
1,note_on,86,76,20
1,note_on,84,0,20
1,note_on,87,78,20
1,note_on,86,0,20
1,note_on,86,79,20
1,note_on,87,0,20
1,note_on,89,96,20
1,note_on,86,0,20
1,note_on,87,94,40
1,note_on,89,0,30
1,note_on,86,91,30
1,note_on,87,0,30
1,note_on,86,0,15
1,note_on,84,89,15
1,note_on,84,0,30
1,note_on,87,92,30
1,note_on,86,91,60
1,note_on,87,0,30
1,note_on,84,89,30
1,note_on,86,0,30
1,note_on,84,0,15
1,note_on,82,87,15
1,note_on,82,0,30
1,note_on,86,91,30
1,note_on,84,89,60
1,note_on,86,0,30
1,note_on,82,87,30
1,note_on,84,0,30
1,note_on,82,0,15
1,note_on,81,85,15
1,note_on,81,0,30
1,note_on,84,89,30
1,note_on,82,88,60
1,note_on,84,0,30
1,note_on,81,86,30
1,note_on,82,0,30
1,note_on,81,0,15
1,note_on,79,88,15
1,note_on,79,0,30
1,note_on,82,90,30
1,note_on,81,82,120
1,note_on,82,0,60
1,note_on,79,80,60
1,note_on,79,0,60
1,note_on,81,0,0
1,note_on,77,75,60
1,note_on,77,0,60
1,note_on,81,81,60
1,note_on,79,74,120
1,note_on,81,0,60
1,note_on,77,71,60
1,note_on,77,0,60
1,note_on,79,0,0
1,note_on,75,67,60
1,note_on,75,0,60
1,note_on,79,72,60
1,note_on,77,68,120
1,note_on,79,0,60
1,note_on,75,65,60
1,note_on,75,0,60
1,note_on,77,0,0
1,note_on,74,62,60
1,note_on,74,0,60
1,note_on,77,64,60
1,note_on,75,60,240
1,note_on,77,0,48
1,note_on,75,0,192
1,note_on,74,56,0
1,note_on,74,0,120
1,note_on,72,52,120
1,note_on,72,0,120
1,note_on,70,51,120
1,note_on,70,0,60
1,note_on,72,49,60
1,note_on,72,0,60
1,note_on,73,48,60
1,note_on,73,0,60
1,note_on,74,46,60
1,note_on,74,0,60
1,note_on,75,47,60
1,note_on,75,0,240
1,note_on,76,40,0
1,note_on,76,0,240
1,note_on,77,60,1
1,note_on,74,53,719
1,note_on,77,0,1
1,note_on,74,0,239
1,note_on,70,55,0
1,note_on,70,0,120
1,note_on,70,55,360
1,note_on,70,0,120
1,note_on,75,60,360
1,note_on,75,0,96
1,note_on,77,47,0
1,note_on,77,0,96
1,note_on,75,47,0
1,note_on,75,0,96
1,note_on,74,47,0
1,note_on,74,0,96
1,note_on,75,49,0
1,note_on,75,0,96
1,note_on,79,55,0
1,note_on,79,0,480
1,note_on,69,57,0
1,note_on,69,0,480
1,note_on,69,52,240
1,note_on,69,0,240
1,note_on,72,55,0
1,note_on,72,0,240
1,note_on,70,53,0
1,note_on,70,0,120
1,note_on,74,57,120
1,note_on,74,0,240
1,note_on,72,54,0
1,note_on,72,0,120
1,note_on,75,58,120
1,note_on,75,0,240
1,note_on,74,56,0
1,note_on,74,0,120
1,note_on,77,60,120
1,note_on,77,0,240
1,note_on,75,57,0
1,note_on,75,0,120
1,note_on,74,60,120
1,note_on,74,0,720
1,note_on,75,57,0
1,note_on,75,0,120
1,note_on,74,54,0
1,note_on,74,0,120
1,note_on,72,52,0
1,note_on,72,0,240
1,note_on,74,58,0
1,note_on,74,0,240
1,note_on,75,64,0
1,note_on,75,0,240
1,note_on,76,69,0
1,note_on,76,0,240
1,note_on,77,76,0
1,note_on,77,0,720
1,note_on,75,68,0
1,note_on,75,0,80
1,note_on,74,68,0
1,note_on,74,0,80
1,note_on,72,68,0
1,note_on,72,0,80
1,note_on,70,72,0
1,note_on,70,0,240
1,note_on,70,65,0
1,note_on,70,0,120
1,note_on,70,65,120
1,note_on,70,0,120
1,note_on,70,65,120
1,note_on,70,0,120
1,note_on,75,78,120
1,note_on,75,0,96
1,note_on,77,60,0
1,note_on,77,0,96
1,note_on,75,60,0
1,note_on,75,0,96
1,note_on,74,60,0
1,note_on,74,0,96
1,note_on,75,60,0
1,note_on,75,0,96
1,note_on,79,71,0
1,note_on,79,0,480
1,note_on,69,75,0
1,note_on,69,0,480
1,note_on,77,77,240
1,note_on,77,0,240
1,note_on,74,84,0
1,note_on,74,0,160
1,note_on,77,74,0
1,note_on,77,0,160
1,note_on,82,78,0
1,note_on,82,0,160
1,note_on,79,89,0
1,note_on,79,0,160
1,note_on,75,76,0
1,note_on,75,0,160
1,note_on,72,76,0
1,note_on,72,0,160
1,note_on,77,88,0
1,note_on,77,0,160
1,note_on,74,76,0
1,note_on,74,0,160
1,note_on,70,76,0
1,note_on,70,0,160
1,note_on,75,85,0
1,note_on,75,0,160
1,note_on,72,76,0
1,note_on,72,0,160
1,note_on,69,76,0
1,note_on,69,0,160
1,note_on,70,90,0
1,note_on,70,0,160
1,note_on,82,86,0
1,note_on,82,0,120
1,note_on,82,82,40
1,note_on,82,0,120
1,note_on,82,87,40
1,note_on,82,0,120
1,note_on,82,79,40
1,note_on,82,0,120
1,note_on,82,80,40
1,note_on,82,0,120
1,note_on,82,86,40
1,note_on,82,0,160
1,note_on,81,77,0
1,note_on,81,0,160
1,note_on,79,77,0
1,note_on,79,0,160
1,note_on,77,81,0
1,note_on,77,0,160
1,note_on,75,78,0
1,note_on,75,0,160
1,note_on,74,77,0
1,note_on,74,0,160
1,note_on,72,88,0
1,note_on,72,0,160
1,note_on,79,77,0
1,note_on,79,0,120
1,note_on,79,77,40
1,note_on,79,0,120
1,note_on,79,83,40
1,note_on,79,0,120
1,note_on,79,76,40
1,note_on,79,0,120
1,note_on,79,76,40
1,note_on,79,0,160
1,note_on,79,80,0
1,note_on,79,0,160
1,note_on,77,76,0
1,note_on,77,0,160
1,note_on,75,75,0
1,note_on,75,0,160
1,note_on,74,78,0
1,note_on,74,0,160
1,note_on,75,73,0
1,note_on,75,0,160
1,note_on,72,73,0
1,note_on,72,0,160
1,note_on,76,81,0
1,note_on,77,83,120
1,note_on,76,0,24
1,note_on,79,85,96
1,note_on,77,0,24
1,note_on,77,83,96
1,note_on,79,0,24
1,note_on,75,80,96
1,note_on,77,0,24
1,note_on,74,79,96
1,note_on,75,0,24
1,note_on,72,77,96
1,note_on,74,0,24
1,note_on,70,76,96
1,note_on,72,0,24
1,note_on,70,0,96
1,note_on,72,74,0
1,note_on,72,0,80
1,note_on,74,68,0
1,note_on,74,0,80
1,note_on,72,68,0
1,note_on,72,0,80
1,note_on,74,66,0
1,note_on,74,0,80
1,note_on,72,63,0
1,note_on,72,0,80
1,note_on,74,66,0
1,note_on,74,0,80
1,note_on,72,66,0
1,note_on,72,0,80
1,note_on,74,66,0
1,note_on,74,0,80
1,note_on,72,66,0
1,note_on,72,0,80
1,note_on,70,69,0
1,note_on,70,0,120
1,note_on,72,69,0
1,note_on,72,0,120
1,note_on,70,74,0
1,note_on,70,0,120
1,note_on,82,74,120
1,note_on,82,0,120
1,note_on,81,72,0
1,note_on,81,0,120
1,note_on,82,74,0
1,note_on,82,0,120
1,note_on,81,70,0
1,note_on,81,0,120
1,note_on,82,74,0
1,note_on,82,0,120
1,note_on,81,71,0
1,note_on,81,0,120
1,note_on,82,74,0
1,note_on,82,0,120
1,note_on,81,74,0
1,note_on,81,0,120
1,note_on,79,73,0
1,note_on,79,0,120
1,note_on,77,72,0
1,note_on,77,0,120
1,note_on,75,71,0
1,note_on,75,0,120
1,note_on,74,70,0
1,note_on,74,0,120
1,note_on,72,70,0
1,note_on,72,0,120
1,note_on,70,69,0
1,note_on,70,0,120
1,note_on,67,77,0
1,note_on,67,0,120
1,note_on,79,75,120
1,note_on,79,0,120
1,note_on,78,72,0
1,note_on,78,0,120
1,note_on,79,75,0
1,note_on,79,0,120
1,note_on,78,71,0
1,note_on,78,0,120
1,note_on,79,75,0
1,note_on,79,0,120
1,note_on,78,72,0
1,note_on,78,0,120
1,note_on,79,74,0
1,note_on,79,0,120
1,note_on,77,74,0
1,note_on,77,0,120
1,note_on,75,73,0
1,note_on,75,0,120
1,note_on,74,72,0
1,note_on,74,0,120
1,note_on,72,71,0
1,note_on,72,0,120
1,note_on,70,70,0
1,note_on,70,0,120
1,note_on,69,70,0
1,note_on,69,0,120
1,note_on,67,69,0
1,note_on,67,0,120
1,note_on,65,77,0
1,note_on,65,0,240
1,note_on,67,70,0
1,note_on,69,72,120
1,note_on,67,0,24
1,note_on,70,73,96
1,note_on,69,0,24
1,note_on,72,74,96
1,note_on,70,0,24
1,note_on,74,76,96
1,note_on,72,0,24
1,note_on,75,77,96
1,note_on,74,0,24
1,note_on,77,79,96
1,note_on,75,0,24
1,note_on,79,80,96
1,note_on,77,0,24
1,note_on,81,82,96
1,note_on,79,0,24
1,note_on,82,83,96
1,note_on,81,0,24
1,note_on,84,84,96
1,note_on,82,0,24
1,note_on,86,86,96
1,note_on,84,0,24
1,note_on,87,87,96
1,note_on,86,0,24
1,note_on,89,89,96
1,note_on,87,0,24
1,note_on,82,71,96
1,note_on,89,0,24
1,note_on,82,0,56
1,note_on,84,66,0
1,note_on,84,0,80
1,note_on,86,67,0
1,note_on,86,0,80
1,note_on,84,72,0
1,note_on,84,0,80
1,note_on,86,69,0
1,note_on,86,0,80
1,note_on,84,73,0
1,note_on,84,0,80
1,note_on,86,69,0
1,note_on,86,0,80
1,note_on,84,74,0
1,note_on,84,0,80
1,note_on,86,71,0
1,note_on,86,0,80
1,note_on,84,75,0
1,note_on,84,0,80
1,note_on,86,71,0
1,note_on,86,0,80
1,note_on,84,75,0
1,note_on,84,0,80
1,note_on,86,71,0
1,note_on,86,0,80
1,note_on,84,77,0
1,note_on,84,0,80
1,note_on,86,73,0
1,note_on,86,0,80
1,note_on,84,79,0
1,note_on,84,0,80
1,note_on,86,74,0
1,note_on,86,0,80
1,note_on,84,79,0
1,note_on,84,0,80
1,note_on,86,82,0
1,note_on,86,0,120
1,note_on,84,79,0
1,note_on,84,0,120
1,note_on,82,87,0
1,note_on,82,0,120
1,note_on,84,85,0
1,note_on,84,0,120
1,note_on,82,93,0
1,note_on,82,0,480
1,note_on,70,51,1200
1,note_on,70,0,240
1,note_on,80,54,0
1,note_on,80,0,720
1,note_on,77,52,0
1,note_on,77,0,240
1,note_on,74,50,0
1,note_on,74,0,240
1,note_on,74,51,240
1,note_on,74,0,240
1,note_on,75,56,240
1,note_on,75,0,240
1,note_on,77,57,240
1,note_on,77,0,240
1,note_on,79,61,240
1,note_on,79,0,240
1,note_on,79,53,480
1,note_on,79,0,240
1,note_on,77,57,0
1,note_on,75,57,240
1,note_on,77,0,24
1,note_on,74,56,216
1,note_on,75,0,24
1,note_on,72,56,216
1,note_on,74,0,24
1,note_on,70,55,216
1,note_on,72,0,24
1,note_on,69,55,216
1,note_on,70,0,24
1,note_on,75,62,216
1,note_on,69,0,24
1,note_on,69,58,216
1,note_on,75,0,24
1,note_on,69,0,216
1,note_on,70,58,0
1,note_on,70,0,120
1,note_on,72,60,120
1,note_on,72,0,120
1,note_on,74,61,120
1,note_on,74,0,120
1,note_on,75,63,120
1,note_on,75,0,120
1,note_on,76,65,120
1,note_on,76,0,120
1,note_on,77,67,120
1,note_on,77,0,120
1,note_on,78,69,120
1,note_on,78,0,120
1,note_on,79,71,120
1,note_on,79,0,120
1,note_on,80,73,120
1,note_on,80,0,720
1,note_on,79,58,0
1,note_on,79,0,80
1,note_on,77,58,0
1,note_on,77,0,80
1,note_on,75,58,0
1,note_on,75,0,80
1,note_on,74,63,0
1,note_on,74,0,120
1,note_on,74,60,120
1,note_on,74,0,120
1,note_on,74,64,120
1,note_on,74,0,120
1,note_on,74,60,120
1,note_on,74,0,120
1,note_on,75,66,120
1,note_on,75,0,480
1,note_on,77,59,0
1,note_on,77,0,80
1,note_on,79,59,0
1,note_on,79,0,80
1,note_on,77,60,0
1,note_on,77,0,80
1,note_on,79,60,0
1,note_on,79,0,60
1,note_on,77,60,20
1,note_on,75,59,40
1,note_on,77,0,20
1,note_on,75,0,40
1,note_on,77,63,0
1,note_on,77,0,60
1,note_on,79,66,0
1,note_on,79,0,480
1,note_on,79,55,240
1,note_on,79,0,240
1,note_on,77,59,0
1,note_on,75,58,240
1,note_on,77,0,24
1,note_on,74,57,216
1,note_on,75,0,24
1,note_on,72,57,216
1,note_on,74,0,24
1,note_on,70,56,216
1,note_on,72,0,24
1,note_on,69,56,216
1,note_on,70,0,24
1,note_on,75,60,216
1,note_on,69,0,24
1,note_on,69,57,216
1,note_on,75,0,24
1,note_on,70,61,216
1,note_on,69,0,24
1,note_on,70,0,456
1,note_on,74,53,240
1,note_on,74,0,240
1,note_on,77,56,0
1,note_on,77,0,240
1,note_on,75,54,0
1,note_on,75,0,240
1,note_on,72,54,0
1,note_on,72,0,240
1,note_on,69,54,0
1,note_on,69,0,240
1,note_on,70,57,0
1,note_on,70,0,480
1,note_on,74,50,240
1,note_on,74,0,120
1,note_on,70,48,0
1,note_on,70,0,120
1,note_on,77,54,0
1,note_on,77,0,240
1,note_on,75,51,0
1,note_on,75,0,240
1,note_on,72,51,0
1,note_on,72,0,240
1,note_on,69,49,0
1,note_on,69,0,240
1,note_on,70,55,0
1,note_on,70,0,480
1,note_on,77,91,240
1,note_on,77,0,240
1,note_on,81,96,0
1,note_on,72,81,0
1,note_on,75,81,0
1,note_on,77,96,0
1,note_on,77,0,240
1,note_on,81,0,0
1,note_on,72,0,0
1,note_on,75,0,0
1,note_on,72,81,240
1,note_on,75,81,0
1,note_on,77,96,0
1,note_on,81,96,0
1,note_on,81,0,240
1,note_on,72,0,0
1,note_on,75,0,0
1,note_on,77,0,0
1,note_on,74,84,240
1,note_on,77,99,0
1,note_on,70,84,0
1,note_on,82,99,0
1,note_on,82,0,240
1,note_on,74,0,0
1,note_on,77,0,0
1,note_on,70,0,0
2,note_on,58,42,480
2,note_on,58,0,480
2,note_on,62,48,0
2,note_on,62,0,120
2,note_on,67,47,360
2,note_on,67,0,120
2,note_on,60,52,360
2,note_on,60,0,480
2,note_on,63,47,0
2,note_on,63,0,120
2,note_on,65,48,360
2,note_on,65,0,480
2,note_on,63,46,0
2,note_on,63,0,480
2,note_on,62,53,0
2,note_on,62,0,480
2,note_on,57,47,0
2,note_on,57,0,480
2,note_on,58,51,0
2,note_on,58,0,480
2,note_on,51,51,0
2,note_on,60,51,0
2,note_on,60,0,480
2,note_on,51,0,0
2,note_on,58,52,0
2,note_on,53,52,0
2,note_on,58,0,960
2,note_on,57,47,0
2,note_on,57,0,480
2,note_on,53,0,0
2,note_on,58,39,960
2,note_on,58,0,480
2,note_on,62,47,0
2,note_on,62,0,120
2,note_on,67,46,360
2,note_on,67,0,120
2,note_on,60,51,360
2,note_on,60,0,480
2,note_on,63,45,0
2,note_on,63,0,120
2,note_on,65,48,360
2,note_on,65,0,480
2,note_on,63,43,0
2,note_on,63,0,480
2,note_on,62,51,0
2,note_on,62,0,480
2,note_on,51,47,0
2,note_on,63,47,0
2,note_on,63,0,480
2,note_on,51,0,0
2,note_on,62,50,0
2,note_on,53,50,0
2,note_on,62,0,480
2,note_on,60,48,0
2,note_on,60,0,480
2,note_on,53,0,0
2,note_on,58,51,0
2,note_on,58,0,480
2,note_on,58,64,0
2,note_on,58,0,240
2,note_on,65,54,0
2,note_on,65,0,240
2,note_on,62,59,0
2,note_on,62,0,240
2,note_on,65,54,0
2,note_on,65,0,240
2,note_on,55,63,0
2,note_on,55,0,240
2,note_on,62,56,0
2,note_on,62,0,240
2,note_on,58,59,0
2,note_on,58,0,240
2,note_on,62,55,0
2,note_on,62,0,240
2,note_on,51,64,0
2,note_on,51,0,240
2,note_on,60,54,0
2,note_on,60,0,240
2,note_on,55,59,0
2,note_on,55,0,240
2,note_on,60,55,0
2,note_on,60,0,240
2,note_on,53,64,0
2,note_on,53,0,240
2,note_on,63,54,0
2,note_on,63,0,240
2,note_on,60,60,0
2,note_on,60,0,240
2,note_on,63,56,0
2,note_on,63,0,240
2,note_on,62,66,0
2,note_on,62,0,480
2,note_on,62,60,0
2,note_on,57,60,0
2,note_on,57,0,480
2,note_on,58,64,0
2,note_on,58,0,480
2,note_on,62,0,0
2,note_on,51,64,0
2,note_on,60,64,0
2,note_on,60,0,480
2,note_on,51,0,0
2,note_on,58,65,0
2,note_on,53,65,0
2,note_on,58,0,960
2,note_on,57,60,0
2,note_on,57,0,480
2,note_on,53,0,0
2,note_on,58,65,480
2,note_on,58,0,240
2,note_on,65,55,0
2,note_on,65,0,240
2,note_on,62,60,0
2,note_on,62,0,240
2,note_on,65,55,0
2,note_on,65,0,240
2,note_on,55,64,0
2,note_on,55,0,120
2,note_on,62,57,120
2,note_on,62,0,120
2,note_on,58,60,120
2,note_on,58,0,120
2,note_on,62,57,120
2,note_on,62,0,120
2,note_on,51,64,120
2,note_on,51,0,240
2,note_on,60,55,0
2,note_on,60,0,240
2,note_on,55,59,0
2,note_on,55,0,240
2,note_on,60,55,0
2,note_on,60,0,240
2,note_on,53,64,0
2,note_on,53,0,240
2,note_on,63,55,0
2,note_on,63,0,240
2,note_on,60,59,0
2,note_on,60,0,240
2,note_on,63,55,0
2,note_on,63,0,240
2,note_on,58,59,0
2,note_on,50,59,0
2,note_on,50,0,480
2,note_on,51,55,0
2,note_on,51,0,480
2,note_on,58,0,0
2,note_on,62,59,0
2,note_on,53,59,0
2,note_on,62,0,480
2,note_on,63,56,0
2,note_on,63,0,480
2,note_on,53,0,0
2,note_on,58,59,0
2,note_on,62,59,0
2,note_on,62,0,480
2,note_on,58,0,0
2,note_on,46,64,0
2,note_on,46,0,480
2,note_on,58,48,1440
2,note_on,58,0,180
2,note_on,55,48,300
2,note_on,55,0,480
2,note_on,51,45,0
2,note_on,51,0,480
2,note_on,53,47,0
2,note_on,53,0,480
2,note_on,41,55,0
2,note_on,41,0,480
2,note_on,60,45,1440
2,note_on,60,0,180
2,note_on,57,45,300
2,note_on,57,0,480
2,note_on,53,42,0
2,note_on,53,0,480
2,note_on,58,46,0
2,note_on,58,0,480
2,note_on,46,65,0
2,note_on,46,0,480
2,note_on,57,53,1200
2,note_on,57,0,240
2,note_on,60,57,0
2,note_on,60,0,240
2,note_on,57,53,0
2,note_on,57,0,240
2,note_on,65,67,0
2,note_on,65,0,480
2,note_on,55,53,720
2,note_on,55,0,240
2,note_on,58,58,0
2,note_on,58,0,240
2,note_on,55,54,0
2,note_on,55,0,240
2,note_on,64,66,0
2,note_on,64,0,480
2,note_on,65,69,480
2,note_on,65,0,480
2,note_on,53,53,960
2,note_on,53,0,480
2,note_on,48,53,0
2,note_on,48,0,240
2,note_on,60,47,0
2,note_on,60,0,240
2,note_on,59,49,0
2,note_on,59,0,240
2,note_on,60,47,0
2,note_on,60,0,240
2,note_on,58,54,0
2,note_on,58,0,240
2,note_on,60,50,0
2,note_on,60,0,240
2,note_on,58,45,0
2,note_on,58,0,240
2,note_on,60,41,0
2,note_on,60,0,240
2,note_on,57,48,0
2,note_on,57,0,240
2,note_on,60,45,0
2,note_on,60,0,240
2,note_on,57,51,0
2,note_on,57,0,240
2,note_on,60,47,0
2,note_on,60,0,240
2,note_on,58,53,0
2,note_on,58,0,240
2,note_on,60,50,0
2,note_on,60,0,240
2,note_on,58,47,0
2,note_on,58,0,240
2,note_on,60,43,0
2,note_on,60,0,240
2,note_on,57,46,0
2,note_on,57,0,240
2,note_on,60,36,0
2,note_on,60,0,240
2,note_on,57,43,0
2,note_on,57,0,240
2,note_on,60,36,0
2,note_on,60,0,240
2,note_on,58,56,0
2,note_on,58,0,240
2,note_on,60,55,0
2,note_on,60,0,240
2,note_on,58,49,0
2,note_on,58,0,240
2,note_on,60,46,0
2,note_on,60,0,240
2,note_on,57,48,0
2,note_on,57,0,240
2,note_on,60,45,0
2,note_on,60,0,240
2,note_on,57,50,0
2,note_on,57,0,240
2,note_on,60,47,0
2,note_on,60,0,240
2,note_on,58,53,0
2,note_on,58,0,240
2,note_on,60,50,0
2,note_on,60,0,240
2,note_on,58,48,0
2,note_on,58,0,240
2,note_on,60,45,0
2,note_on,60,0,240
2,note_on,57,53,0
2,note_on,57,0,240
2,note_on,60,49,0
2,note_on,60,0,240
2,note_on,57,53,0
2,note_on,57,0,240
2,note_on,60,49,0
2,note_on,60,0,240
2,note_on,58,54,0
2,note_on,58,0,240
2,note_on,60,48,0
2,note_on,60,0,240
2,note_on,58,57,0
2,note_on,58,0,240
2,note_on,60,52,0
2,note_on,60,0,240
2,note_on,57,64,0
2,note_on,57,0,480
2,note_on,65,71,960
2,note_on,57,71,0
2,note_on,57,0,480
2,note_on,65,0,0
2,note_on,58,81,0
2,note_on,65,81,0
2,note_on,65,0,480
2,note_on,58,0,0
2,note_on,65,51,960
2,note_on,67,51,0
2,note_on,58,51,0
2,note_on,58,0,480
2,note_on,67,0,0
2,note_on,65,0,0
2,note_on,60,55,0
2,note_on,60,0,240
2,note_on,69,51,0
2,note_on,69,0,240
2,note_on,65,56,0
2,note_on,65,0,240
2,note_on,69,51,0
2,note_on,69,0,240
2,note_on,60,55,0
2,note_on,60,0,240
2,note_on,70,49,0
2,note_on,70,0,240
2,note_on,64,55,0
2,note_on,64,0,240
2,note_on,70,49,0
2,note_on,70,0,240
2,note_on,65,55,0
2,note_on,65,0,480
2,note_on,67,61,240
2,note_on,67,0,240
2,note_on,69,66,0
2,note_on,69,0,480
2,note_on,57,60,240
2,note_on,57,0,240
2,note_on,58,66,0
2,note_on,58,0,480
2,note_on,34,67,480
2,note_on,46,67,0
2,note_on,46,0,480
2,note_on,34,0,0
2,note_on,48,57,480
2,note_on,48,0,240
2,note_on,57,54,0
2,note_on,57,0,240
2,note_on,53,57,0
2,note_on,53,0,240
2,note_on,57,54,0
2,note_on,57,0,240
2,note_on,48,63,0
2,note_on,48,0,240
2,note_on,57,57,0
2,note_on,57,0,240
2,note_on,53,67,0
2,note_on,53,0,240
2,note_on,57,61,0
2,note_on,57,0,240
2,note_on,48,57,0
2,note_on,48,0,240
2,note_on,58,53,0
2,note_on,58,0,240
2,note_on,52,57,0
2,note_on,52,0,240
2,note_on,58,53,0
2,note_on,58,0,240
2,note_on,48,57,0
2,note_on,48,0,240
2,note_on,58,53,0
2,note_on,58,0,240
2,note_on,52,57,0
2,note_on,52,0,240
2,note_on,58,52,0
2,note_on,58,0,240
2,note_on,53,57,0
2,note_on,57,57,0
2,note_on,57,0,120
2,note_on,53,0,0
2,note_on,57,47,360
2,note_on,53,47,0
2,note_on,53,0,480
2,note_on,57,0,0
2,note_on,57,47,480
2,note_on,53,47,0
2,note_on,53,0,480
2,note_on,57,0,0
2,note_on,55,50,0
2,note_on,58,50,0
2,note_on,53,50,0
2,note_on,53,0,120
2,note_on,58,0,0
2,note_on,55,0,0
2,note_on,53,50,360
2,note_on,55,50,0
2,note_on,58,50,0
2,note_on,58,0,480
2,note_on,55,0,0
2,note_on,53,0,0
2,note_on,53,54,480
2,note_on,56,54,0
2,note_on,59,54,0
2,note_on,59,0,480
2,note_on,56,0,0
2,note_on,53,0,0
2,note_on,53,55,0
2,note_on,60,55,0
2,note_on,57,55,0
2,note_on,57,0,480
2,note_on,60,0,0
2,note_on,57,61,0
2,note_on,61,61,0
2,note_on,61,0,480
2,note_on,57,0,0
2,note_on,53,0,0
2,note_on,58,66,0
2,note_on,62,66,0
2,note_on,53,66,0
2,note_on,62,0,480
2,note_on,58,0,0
2,note_on,59,71,0
2,note_on,62,71,0
2,note_on,62,0,480
2,note_on,59,0,0
2,note_on,53,0,0
2,note_on,60,77,0
2,note_on,53,77,0
2,note_on,63,77,0
2,note_on,63,0,1920
2,note_on,53,0,0
2,note_on,60,0,0
2,note_on,58,45,480
2,note_on,58,0,480
2,note_on,62,48,0
2,note_on,62,0,120
2,note_on,67,46,360
2,note_on,67,0,120
2,note_on,60,52,360
2,note_on,60,0,480
2,note_on,63,46,0
2,note_on,63,0,120
2,note_on,65,48,360
2,note_on,65,0,480
2,note_on,63,46,0
2,note_on,63,0,480
2,note_on,62,53,0
2,note_on,62,0,480
2,note_on,57,47,0
2,note_on,57,0,480
2,note_on,58,51,0
2,note_on,58,0,480
2,note_on,60,49,0
2,note_on,51,49,0
2,note_on,51,0,480
2,note_on,60,0,0
2,note_on,53,52,0
2,note_on,58,52,0
2,note_on,58,0,960
2,note_on,57,47,0
2,note_on,57,0,480
2,note_on,53,0,0
2,note_on,58,41,960
2,note_on,58,0,480
2,note_on,62,47,0
2,note_on,62,0,120
2,note_on,67,45,360
2,note_on,67,0,120
2,note_on,60,51,360
2,note_on,60,0,480
2,note_on,63,47,0
2,note_on,63,0,120
2,note_on,65,48,360
2,note_on,65,0,480
2,note_on,63,45,0
2,note_on,63,0,480
2,note_on,62,51,0
2,note_on,62,0,480
2,note_on,63,47,0
2,note_on,51,47,0
2,note_on,51,0,480
2,note_on,63,0,0
2,note_on,53,50,0
2,note_on,62,50,0
2,note_on,62,0,480
2,note_on,60,48,0
2,note_on,60,0,480
2,note_on,53,0,0
2,note_on,58,51,0
2,note_on,58,0,480
2,note_on,58,64,0
2,note_on,58,0,240
2,note_on,65,54,0
2,note_on,65,0,240
2,note_on,62,59,0
2,note_on,62,0,240
2,note_on,65,54,0
2,note_on,65,0,240
2,note_on,55,63,0
2,note_on,55,0,240
2,note_on,62,55,0
2,note_on,62,0,240
2,note_on,58,59,0
2,note_on,58,0,240
2,note_on,62,55,0
2,note_on,62,0,240
2,note_on,51,64,0
2,note_on,51,0,240
2,note_on,60,56,0
2,note_on,60,0,240
2,note_on,55,59,0
2,note_on,55,0,240
2,note_on,60,55,0
2,note_on,60,0,240
2,note_on,53,64,0
2,note_on,53,0,240
2,note_on,63,56,0
2,note_on,63,0,240
2,note_on,60,60,0
2,note_on,60,0,240
2,note_on,63,56,0
2,note_on,63,0,240
2,note_on,62,66,0
2,note_on,62,0,480
2,note_on,62,57,0
2,note_on,57,57,0
2,note_on,57,0,480
2,note_on,58,64,0
2,note_on,58,0,480
2,note_on,62,0,0
2,note_on,51,64,0
2,note_on,60,64,0
2,note_on,60,0,480
2,note_on,51,0,0
2,note_on,58,65,0
2,note_on,53,65,0
2,note_on,58,0,960
2,note_on,57,60,0
2,note_on,57,0,480
2,note_on,53,0,0
2,note_on,58,65,480
2,note_on,58,0,240
2,note_on,65,55,0
2,note_on,65,0,240
2,note_on,62,60,0
2,note_on,62,0,240
2,note_on,65,55,0
2,note_on,65,0,240
2,note_on,55,64,0
2,note_on,55,0,120
2,note_on,62,56,120
2,note_on,62,0,120
2,note_on,58,60,120
2,note_on,58,0,120
2,note_on,62,55,120
2,note_on,62,0,120
2,note_on,51,64,120
2,note_on,51,0,240
2,note_on,60,55,0
2,note_on,60,0,240
2,note_on,55,59,0
2,note_on,55,0,240
2,note_on,60,55,0
2,note_on,60,0,240
2,note_on,53,64,0
2,note_on,53,0,240
2,note_on,63,55,0
2,note_on,63,0,240
2,note_on,60,59,0
2,note_on,60,0,240
2,note_on,63,54,0
2,note_on,63,0,240
2,note_on,50,59,0
2,note_on,58,59,0
2,note_on,50,0,480
2,note_on,51,56,0
2,note_on,51,0,480
2,note_on,58,0,0
2,note_on,53,59,0
2,note_on,62,59,0
2,note_on,62,0,480
2,note_on,63,56,0
2,note_on,63,0,480
2,note_on,53,0,0
2,note_on,62,59,0
2,note_on,58,59,0
2,note_on,58,0,480
2,note_on,62,0,0
2,note_on,46,63,0
2,note_on,46,0,480
2,note_on,58,46,1440
2,note_on,58,0,180
2,note_on,55,48,300
2,note_on,55,0,480
2,note_on,51,46,0
2,note_on,51,0,480
2,note_on,53,47,0
2,note_on,53,0,480
2,note_on,41,57,0
2,note_on,41,0,480
2,note_on,60,45,1440
2,note_on,60,0,180
2,note_on,57,45,300
2,note_on,57,0,480
2,note_on,53,42,0
2,note_on,53,0,480
2,note_on,58,46,0
2,note_on,58,0,480
2,note_on,46,58,0
2,note_on,46,0,480
2,note_on,62,53,1440
2,note_on,58,53,0
2,note_on,58,0,360
2,note_on,62,0,0
2,note_on,58,56,120
2,note_on,62,56,0
2,note_on,62,0,360
2,note_on,58,0,0
2,note_on,62,60,120
2,note_on,58,60,0
2,note_on,58,0,360
2,note_on,62,0,0
2,note_on,57,68,120
2,note_on,60,68,0
2,note_on,60,0,960
2,note_on,57,0,0
2,note_on,57,54,0
2,note_on,50,54,0
2,note_on,50,0,960
2,note_on,57,0,0
2,note_on,51,53,0
2,note_on,55,52,240
2,note_on,55,0,240
2,note_on,57,54,0
2,note_on,57,0,240
2,note_on,58,57,0
2,note_on,58,0,173
2,note_on,58,57,67
2,note_on,58,0,240
2,note_on,57,55,0
2,note_on,57,0,173
2,note_on,57,55,67
2,note_on,57,0,240
2,note_on,55,54,0
2,note_on,55,0,180
2,note_on,51,0,60
2,note_on,50,47,0
2,note_on,54,47,0
2,note_on,54,0,480
2,note_on,50,0,0
2,note_on,55,58,1440
2,note_on,55,0,240
2,note_on,58,50,0
2,note_on,58,0,240
2,note_on,62,54,0
2,note_on,62,0,240
2,note_on,58,50,0
2,note_on,58,0,240
2,note_on,55,54,0
2,note_on,55,0,240
2,note_on,58,47,0
2,note_on,58,0,240
2,note_on,62,50,0
2,note_on,62,0,240
2,note_on,58,47,0
2,note_on,58,0,240
2,note_on,55,58,0
2,note_on,55,0,240
2,note_on,60,51,0
2,note_on,60,0,240
2,note_on,63,54,0
2,note_on,63,0,240
2,note_on,60,51,0
2,note_on,60,0,240
2,note_on,55,53,0
2,note_on,55,0,240
2,note_on,60,49,0
2,note_on,60,0,240
2,note_on,63,51,0
2,note_on,63,0,240
2,note_on,60,48,0
2,note_on,60,0,240
2,note_on,53,58,0
2,note_on,53,0,240
2,note_on,60,51,0
2,note_on,60,0,240
2,note_on,63,54,0
2,note_on,63,0,240
2,note_on,60,51,0
2,note_on,60,0,240
2,note_on,55,56,0
2,note_on,55,0,240
2,note_on,60,50,0
2,note_on,60,0,240
2,note_on,63,52,0
2,note_on,63,0,240
2,note_on,60,49,0
2,note_on,60,0,240
2,note_on,55,53,0
2,note_on,55,0,240
2,note_on,58,50,0
2,note_on,58,0,240
2,note_on,62,50,0
2,note_on,62,0,240
2,note_on,60,50,1200
2,note_on,57,50,0
2,note_on,63,50,0
2,note_on,63,0,480
2,note_on,57,0,0
2,note_on,60,0,0
2,note_on,58,46,0
2,note_on,62,46,0
2,note_on,62,0,240
2,note_on,58,0,0
2,note_on,63,49,1200
2,note_on,57,49,0
2,note_on,60,49,0
2,note_on,60,0,480
2,note_on,57,0,0
2,note_on,63,0,0
2,note_on,58,45,0
2,note_on,62,45,0
2,note_on,62,0,240
2,note_on,58,0,0
2,note_on,51,53,1200
2,note_on,58,53,0
2,note_on,58,0,960
2,note_on,55,47,0
2,note_on,55,0,960
2,note_on,51,0,0
2,note_on,54,40,0
2,note_on,57,40,0
2,note_on,54,0,460
2,note_on,57,0,9
2,note_on,50,28,11
2,note_on,54,28,0
2,note_on,57,34,0
2,note_on,57,0,360
2,note_on,54,0,0
2,note_on,50,0,0
2,note_on,50,29,120
2,note_on,54,29,0
2,note_on,57,35,0
2,note_on,57,0,360
2,note_on,54,0,0
2,note_on,50,0,0
2,note_on,50,28,120
2,note_on,54,28,0
2,note_on,57,34,0
2,note_on,57,0,360
2,note_on,54,0,0
2,note_on,50,0,0
2,note_on,53,27,600
2,note_on,57,37,0
2,note_on,50,27,0
2,note_on,50,0,360
2,note_on,57,0,0
2,note_on,53,0,0
2,note_on,53,27,120
2,note_on,57,37,0
2,note_on,50,27,0
2,note_on,50,0,360
2,note_on,57,0,0
2,note_on,53,0,0
2,note_on,53,26,120
2,note_on,57,36,0
2,note_on,50,26,0
2,note_on,50,0,360
2,note_on,57,0,0
2,note_on,53,0,0
2,note_on,50,38,600
2,note_on,58,51,0
2,note_on,53,38,0
2,note_on,53,0,360
2,note_on,58,0,0
2,note_on,50,0,0
2,note_on,50,41,120
2,note_on,53,41,0
2,note_on,58,56,0
2,note_on,58,0,360
2,note_on,53,0,0
2,note_on,50,0,0
2,note_on,50,45,120
2,note_on,53,45,0
2,note_on,58,60,0
2,note_on,58,0,360
2,note_on,53,0,0
2,note_on,50,0,0
2,note_on,53,60,600
2,note_on,46,45,0
2,note_on,46,0,360
2,note_on,53,0,0
2,note_on,46,48,120
2,note_on,53,63,0
2,note_on,53,0,360
2,note_on,46,0,0
2,note_on,53,60,120
2,note_on,46,45,0
2,note_on,46,0,360
2,note_on,53,0,0
2,note_on,39,48,120
2,note_on,51,63,0
2,note_on,51,0,480
2,note_on,39,0,0
2,note_on,51,46,0
2,note_on,51,0,480
2,note_on,55,41,0
2,note_on,55,0,480
2,note_on,56,38,0
2,note_on,56,0,480
2,note_on,55,44,0
2,note_on,55,0,480
2,note_on,50,35,0
2,note_on,50,0,480
2,note_on,51,41,0
2,note_on,51,0,480
2,note_on,53,46,0
2,note_on,53,0,480
2,note_on,46,41,480
2,note_on,46,0,480
2,note_on,50,45,0
2,note_on,50,0,480
2,note_on,49,41,0
2,note_on,49,0,480
2,note_on,50,47,0
2,note_on,50,0,480
2,note_on,52,38,0
2,note_on,52,0,480
2,note_on,53,42,0
2,note_on,53,0,480
2,note_on,50,48,0
2,note_on,50,0,480
2,note_on,51,50,0
2,note_on,51,0,480
2,note_on,39,45,0
2,note_on,39,0,480
2,note_on,55,49,480
2,note_on,63,49,0
2,note_on,63,0,480
2,note_on,55,0,0
2,note_on,56,47,480
2,note_on,63,47,0
2,note_on,63,0,480
2,note_on,56,0,0
2,note_on,60,46,480
2,note_on,63,46,0
2,note_on,63,0,480
2,note_on,60,0,0
2,note_on,58,46,0
2,note_on,63,46,0
2,note_on,63,0,240
2,note_on,58,0,0
2,note_on,46,58,240
2,note_on,46,0,240
2,note_on,55,47,720
2,note_on,63,47,0
2,note_on,63,0,480
2,note_on,55,0,0
2,note_on,56,47,480
2,note_on,63,47,0
2,note_on,63,0,480
2,note_on,56,0,0
2,note_on,63,47,480
2,note_on,60,47,0
2,note_on,60,0,480
2,note_on,63,0,0
2,note_on,63,52,0
2,note_on,58,52,0
2,note_on,58,0,240
2,note_on,63,0,0
2,note_on,46,62,240
2,note_on,46,0,240
2,note_on,60,47,720
2,note_on,63,47,0
2,note_on,63,0,480
2,note_on,60,0,0
2,note_on,63,49,480
2,note_on,55,49,0
2,note_on,55,0,480
2,note_on,63,0,0
2,note_on,56,52,0
2,note_on,63,52,0
2,note_on,63,0,480
2,note_on,56,0,0
2,note_on,56,55,0
2,note_on,53,55,0
2,note_on,53,0,480
2,note_on,56,0,0
2,note_on,58,56,0
2,note_on,55,56,0
2,note_on,55,0,480
2,note_on,58,0,0
2,note_on,55,57,0
2,note_on,58,57,0
2,note_on,58,0,480
2,note_on,55,0,0
2,note_on,53,57,0
2,note_on,56,57,0
2,note_on,58,57,0
2,note_on,58,0,480
2,note_on,56,0,0
2,note_on,53,0,0
2,note_on,51,59,0
2,note_on,55,59,0
2,note_on,58,59,0
2,note_on,58,0,480
2,note_on,55,0,0
2,note_on,51,0,0
2,note_on,50,65,0
2,note_on,53,65,0
2,note_on,58,65,0
2,note_on,58,0,480
2,note_on,53,0,0
2,note_on,50,0,0
2,note_on,63,48,1440
2,note_on,70,48,0
2,note_on,70,0,480
2,note_on,63,0,0
2,note_on,68,47,0
2,note_on,56,47,0
2,note_on,56,0,480
2,note_on,68,0,0
2,note_on,58,48,0
2,note_on,67,48,0
2,note_on,67,0,480
2,note_on,65,45,0
2,note_on,65,0,480
2,note_on,58,0,0
2,note_on,50,68,0
2,note_on,53,68,0
2,note_on,58,68,0
2,note_on,58,0,480
2,note_on,53,0,0
2,note_on,50,0,0
2,note_on,63,46,1440
2,note_on,70,46,0
2,note_on,70,0,480
2,note_on,63,0,0
2,note_on,68,43,0
2,note_on,56,43,0
2,note_on,56,0,480
2,note_on,68,0,0
2,note_on,58,46,0
2,note_on,67,46,0
2,note_on,67,0,480
2,note_on,65,43,0
2,note_on,65,0,480
2,note_on,58,0,0
2,note_on,67,44,960
2,note_on,63,44,0
2,note_on,63,0,960
2,note_on,67,0,0
2,note_on,71,49,0
2,note_on,62,49,0
2,note_on,71,0,955
2,note_on,62,0,5
2,note_on,65,46,0
2,note_on,68,46,0
2,note_on,68,0,480
2,note_on,65,0,0
2,note_on,67,40,480
2,note_on,63,40,0
2,note_on,63,0,480
2,note_on,59,42,0
2,note_on,59,0,480
2,note_on,60,45,0
2,note_on,60,0,480
2,note_on,62,46,0
2,note_on,62,0,480
2,note_on,67,0,0
2,note_on,67,42,0
2,note_on,63,42,0
2,note_on,63,0,480
2,note_on,59,46,0
2,note_on,59,0,480
2,note_on,60,49,0
2,note_on,60,0,480
2,note_on,67,0,0
2,note_on,65,41,1440
2,note_on,62,41,0
2,note_on,62,0,960
2,note_on,65,0,0
2,note_on,69,49,0
2,note_on,60,49,0
2,note_on,69,0,955
2,note_on,60,0,5
2,note_on,66,40,0
2,note_on,63,40,0
2,note_on,63,0,480
2,note_on,66,0,0
2,note_on,61,42,480
2,note_on,65,42,0
2,note_on,61,0,480
2,note_on,57,44,0
2,note_on,57,0,480
2,note_on,58,47,0
2,note_on,58,0,480
2,note_on,60,42,0
2,note_on,60,0,480
2,note_on,65,0,0
2,note_on,61,43,0
2,note_on,65,43,0
2,note_on,61,0,480
2,note_on,57,46,0
2,note_on,57,0,480
2,note_on,58,48,0
2,note_on,58,0,480
2,note_on,65,0,0
2,note_on,58,44,0
2,note_on,65,44,0
2,note_on,65,0,480
2,note_on,58,0,0
2,note_on,65,49,480
2,note_on,56,49,0
2,note_on,56,0,480
2,note_on,65,0,0
2,note_on,54,49,480
2,note_on,61,49,0
2,note_on,61,0,480
2,note_on,54,0,0
2,note_on,53,49,480
2,note_on,62,49,0
2,note_on,62,0,480
2,note_on,53,0,0
2,note_on,63,58,480
2,note_on,51,58,0
2,note_on,51,0,480
2,note_on,63,0,0
2,note_on,53,66,480
2,note_on,61,66,0
2,note_on,61,0,480
2,note_on,53,0,0
2,note_on,61,71,480
2,note_on,54,71,0
2,note_on,54,0,480
2,note_on,61,0,0
2,note_on,64,71,0
2,note_on,54,71,0
2,note_on,64,0,960
2,note_on,58,76,0
2,note_on,58,0,960
2,note_on,54,0,0
2,note_on,57,74,0
2,note_on,53,74,0
2,note_on,57,0,960
2,note_on,58,65,0
2,note_on,58,0,960
2,note_on,53,0,0
2,note_on,57,59,0
2,note_on,53,59,0
2,note_on,57,0,960
2,note_on,58,47,0
2,note_on,58,0,960
2,note_on,53,0,0
2,note_on,65,47,0
2,note_on,65,0,228
2,note_on,65,47,12
2,note_on,65,0,240
2,note_on,65,45,240
2,note_on,65,0,228
2,note_on,65,47,12
2,note_on,65,0,228
2,note_on,65,47,12
2,note_on,65,0,240
2,note_on,65,44,240
2,note_on,65,0,228
2,note_on,65,47,12
2,note_on,65,0,228
2,note_on,65,47,12
2,note_on,65,0,240
2,note_on,65,44,240
2,note_on,65,0,228
2,note_on,65,47,12
2,note_on,65,0,228
2,note_on,65,47,12
2,note_on,65,0,240
2,note_on,65,47,240
2,note_on,65,0,228
2,note_on,53,53,12
2,note_on,65,53,0
2,note_on,65,0,471
2,note_on,53,0,0
2,note_on,53,50,9
2,note_on,57,50,0
2,note_on,57,0,480
2,note_on,53,0,0
2,note_on,53,50,480
2,note_on,57,50,0
2,note_on,57,0,480
2,note_on,53,0,0
2,note_on,53,53,0
2,note_on,55,53,0
2,note_on,58,53,0
2,note_on,58,0,471
2,note_on,55,0,0
2,note_on,53,0,0
2,note_on,53,50,9
2,note_on,58,50,0
2,note_on,55,50,0
2,note_on,55,0,480
2,note_on,58,0,0
2,note_on,53,0,0
2,note_on,53,54,480
2,note_on,59,54,0
2,note_on,56,54,0
2,note_on,56,0,480
2,note_on,59,0,0
2,note_on,53,0,0
2,note_on,53,55,0
2,note_on,60,55,0
2,note_on,57,55,0
2,note_on,57,0,480
2,note_on,60,0,0
2,note_on,57,61,0
2,note_on,61,61,0
2,note_on,61,0,480
2,note_on,57,0,0
2,note_on,53,0,0
2,note_on,53,66,0
2,note_on,62,66,0
2,note_on,58,66,0
2,note_on,58,0,480
2,note_on,62,0,0
2,note_on,59,71,0
2,note_on,62,71,0
2,note_on,62,0,480
2,note_on,59,0,0
2,note_on,53,0,0
2,note_on,63,77,0
2,note_on,60,77,0
2,note_on,53,77,0
2,note_on,53,0,1920
2,note_on,60,0,0
2,note_on,63,0,0
2,note_on,58,42,480
2,note_on,58,0,480
2,note_on,62,48,0
2,note_on,62,0,120
2,note_on,67,46,360
2,note_on,67,0,120
2,note_on,60,52,360
2,note_on,60,0,480
2,note_on,63,46,0
2,note_on,63,0,120
2,note_on,65,48,360
2,note_on,65,0,480
2,note_on,63,47,0
2,note_on,63,0,480
2,note_on,62,53,0
2,note_on,62,0,480
2,note_on,57,47,0
2,note_on,57,0,480
2,note_on,58,51,0
2,note_on,58,0,480
2,note_on,51,51,0
2,note_on,60,51,0
2,note_on,60,0,480
2,note_on,51,0,0
2,note_on,58,52,0
2,note_on,53,52,0
2,note_on,58,0,960
2,note_on,57,47,0
2,note_on,57,0,480
2,note_on,53,0,0
2,note_on,58,45,960
2,note_on,58,0,480
2,note_on,62,47,0
2,note_on,62,0,120
2,note_on,67,47,360
2,note_on,67,0,120
2,note_on,60,51,360
2,note_on,60,0,480
2,note_on,63,46,0
2,note_on,63,0,120
2,note_on,65,48,360
2,note_on,65,0,480
2,note_on,63,48,0
2,note_on,63,0,480
2,note_on,62,51,0
2,note_on,62,0,480
2,note_on,51,47,0
2,note_on,63,47,0
2,note_on,63,0,480
2,note_on,51,0,0
2,note_on,62,50,0
2,note_on,53,50,0
2,note_on,62,0,480
2,note_on,60,48,0
2,note_on,60,0,480
2,note_on,53,0,0
2,note_on,58,51,0
2,note_on,58,0,480
2,note_on,58,64,0
2,note_on,58,0,240
2,note_on,65,56,0
2,note_on,65,0,240
2,note_on,62,59,0
2,note_on,62,0,240
2,note_on,65,56,0
2,note_on,65,0,240
2,note_on,55,63,0
2,note_on,55,0,240
2,note_on,62,57,0
2,note_on,62,0,240
2,note_on,58,59,0
2,note_on,58,0,240
2,note_on,62,56,0
2,note_on,62,0,240
2,note_on,51,64,0
2,note_on,51,0,240
2,note_on,60,56,0
2,note_on,60,0,240
2,note_on,55,59,0
2,note_on,55,0,240
2,note_on,60,56,0
2,note_on,60,0,240
2,note_on,53,64,0
2,note_on,53,0,240
2,note_on,63,57,0
2,note_on,63,0,240
2,note_on,60,60,0
2,note_on,60,0,240
2,note_on,63,57,0
2,note_on,63,0,240
2,note_on,62,66,0
2,note_on,62,0,480
2,note_on,65,60,0
2,note_on,57,60,0
2,note_on,57,0,480
2,note_on,58,64,0
2,note_on,58,0,480
2,note_on,65,0,0
2,note_on,51,58,0
2,note_on,60,58,0
2,note_on,60,0,480
2,note_on,51,0,0
2,note_on,58,65,0
2,note_on,53,65,0
2,note_on,58,0,960
2,note_on,57,60,0
2,note_on,57,0,480
2,note_on,53,0,0
2,note_on,58,65,480
2,note_on,58,0,240
2,note_on,65,57,0
2,note_on,65,0,240
2,note_on,62,60,0
2,note_on,62,0,240
2,note_on,65,56,0
2,note_on,65,0,240
2,note_on,55,64,0
2,note_on,55,0,120
2,note_on,62,57,120
2,note_on,62,0,120
2,note_on,58,60,120
2,note_on,58,0,120
2,note_on,62,57,120
2,note_on,62,0,120
2,note_on,51,64,120
2,note_on,51,0,240
2,note_on,60,56,0
2,note_on,60,0,240
2,note_on,55,59,0
2,note_on,55,0,240
2,note_on,60,56,0
2,note_on,60,0,240
2,note_on,53,64,0
2,note_on,53,0,240
2,note_on,63,56,0
2,note_on,63,0,240
2,note_on,60,59,0
2,note_on,60,0,240
2,note_on,63,55,0
2,note_on,63,0,240
2,note_on,58,59,0
2,note_on,50,59,0
2,note_on,50,0,480
2,note_on,51,57,0
2,note_on,51,0,480
2,note_on,58,0,0
2,note_on,62,59,0
2,note_on,53,59,0
2,note_on,62,0,480
2,note_on,63,57,0
2,note_on,63,0,480
2,note_on,53,0,0
2,note_on,58,59,0
2,note_on,62,59,0
2,note_on,62,0,480
2,note_on,58,0,0
2,note_on,46,63,0
2,note_on,46,0,480
2,note_on,58,47,1440
2,note_on,58,0,180
2,note_on,55,48,300
2,note_on,55,0,480
2,note_on,51,46,0
2,note_on,51,0,480
2,note_on,53,47,0
2,note_on,53,0,480
2,note_on,41,57,0
2,note_on,41,0,480
2,note_on,60,45,1440
2,note_on,60,0,180
2,note_on,57,45,300
2,note_on,57,0,480
2,note_on,53,45,0
2,note_on,53,0,480
2,note_on,58,46,0
2,note_on,58,0,480
2,note_on,46,70,0
2,note_on,46,0,480
2,note_on,50,59,1440
2,note_on,38,53,0
2,note_on,38,0,240
2,note_on,50,0,0
2,note_on,38,57,240
2,note_on,50,64,0
2,note_on,50,0,240
2,note_on,38,0,0
2,note_on,48,58,240
2,note_on,36,52,0
2,note_on,36,0,240
2,note_on,48,0,0
2,note_on,47,57,240
2,note_on,35,51,0
2,note_on,35,0,480
2,note_on,47,0,0
2,note_on,59,66,0
2,note_on,59,0,480
2,note_on,67,47,480
2,note_on,58,47,0
2,note_on,58,0,480
2,note_on,67,0,0
2,note_on,60,48,0
2,note_on,67,48,0
2,note_on,67,0,480
2,note_on,60,0,0
2,note_on,48,55,0
2,note_on,48,0,480
2,note_on,36,52,1440
2,note_on,48,58,0
2,note_on,48,0,240
2,note_on,36,0,0
2,note_on,48,62,240
2,note_on,36,55,0
2,note_on,36,0,240
2,note_on,48,0,0
2,note_on,34,52,240
2,note_on,46,58,0
2,note_on,46,0,240
2,note_on,34,0,0
2,note_on,45,57,240
2,note_on,33,51,0
2,note_on,33,0,480
2,note_on,45,0,0
2,note_on,57,60,0
2,note_on,57,0,480
2,note_on,57,44,480
2,note_on,65,44,0
2,note_on,65,0,480
2,note_on,57,0,0
2,note_on,58,44,0
2,note_on,65,44,0
2,note_on,65,0,480
2,note_on,58,0,0
2,note_on,46,51,0
2,note_on,46,0,480
2,note_on,51,52,1200
2,note_on,51,0,240
2,note_on,58,55,0
2,note_on,58,0,240
2,note_on,55,51,0
2,note_on,55,0,240
2,note_on,60,60,0
2,note_on,60,0,480
2,note_on,53,57,720
2,note_on,53,0,240
2,note_on,58,60,0
2,note_on,58,0,240
2,note_on,56,54,0
2,note_on,56,0,240
2,note_on,62,68,0
2,note_on,62,0,480
2,note_on,55,54,720
2,note_on,55,0,240
2,note_on,63,58,0
2,note_on,63,0,240
2,note_on,58,54,0
2,note_on,58,0,240
2,note_on,67,65,0
2,note_on,67,0,480
2,note_on,50,55,720
2,note_on,50,0,240
2,note_on,58,58,0
2,note_on,58,0,240
2,note_on,53,55,0
2,note_on,53,0,240
2,note_on,62,64,0
2,note_on,62,0,480
2,note_on,51,73,480
2,note_on,55,70,960
2,note_on,55,0,960
2,note_on,60,74,0
2,note_on,60,0,960
2,note_on,51,0,0
2,note_on,60,70,0
2,note_on,52,70,0
2,note_on,52,0,960
2,note_on,60,0,0
2,note_on,53,65,0
2,note_on,53,0,240
2,note_on,60,60,0
2,note_on,60,0,240
2,note_on,57,68,0
2,note_on,57,0,240
2,note_on,60,66,0
2,note_on,60,0,240
2,note_on,53,69,0
2,note_on,53,0,240
2,note_on,60,65,0
2,note_on,60,0,240
2,note_on,57,71,0
2,note_on,57,0,120
2,note_on,60,66,120
2,note_on,60,0,120
2,note_on,53,65,120
2,note_on,53,0,240
2,note_on,62,58,0
2,note_on,62,0,240
2,note_on,58,66,0
2,note_on,58,0,240
2,note_on,62,62,0
2,note_on,62,0,240
2,note_on,53,69,0
2,note_on,53,0,240
2,note_on,62,64,0
2,note_on,62,0,240
2,note_on,58,71,0
2,note_on,58,0,120
2,note_on,62,66,120
2,note_on,62,0,120
2,note_on,53,71,120
2,note_on,53,0,240
2,note_on,63,67,0
2,note_on,63,0,240
2,note_on,60,71,0
2,note_on,60,0,240
2,note_on,63,66,0
2,note_on,63,0,240
2,note_on,53,75,0
2,note_on,53,0,240
2,note_on,60,71,0
2,note_on,60,0,240
2,note_on,57,73,0
2,note_on,57,0,240
2,note_on,60,66,0
2,note_on,60,0,240
2,note_on,53,69,0
2,note_on,53,0,240
2,note_on,62,65,0
2,note_on,62,0,240
2,note_on,58,67,0
2,note_on,58,0,240
2,note_on,62,63,0
2,note_on,62,0,240
2,note_on,53,68,0
2,note_on,53,0,240
2,note_on,62,63,0
2,note_on,62,0,240
2,note_on,58,65,0
2,note_on,58,0,240
2,note_on,62,56,0
2,note_on,62,0,240
2,note_on,57,60,0
2,note_on,60,60,0
2,note_on,53,60,0
2,note_on,53,0,120
2,note_on,60,0,0
2,note_on,57,0,0
2,note_on,51,54,840
2,note_on,51,0,240
2,note_on,53,50,0
2,note_on,53,0,240
2,note_on,51,45,0
2,note_on,51,0,240
2,note_on,53,41,0
2,note_on,53,0,240
2,note_on,50,48,0
2,note_on,50,0,240
2,note_on,53,45,0
2,note_on,53,0,240
2,note_on,50,51,0
2,note_on,50,0,240
2,note_on,53,47,0
2,note_on,53,0,240
2,note_on,51,53,0
2,note_on,51,0,240
2,note_on,53,50,0
2,note_on,53,0,240
2,note_on,51,47,0
2,note_on,51,0,240
2,note_on,53,43,0
2,note_on,53,0,240
2,note_on,50,46,0
2,note_on,50,0,240
2,note_on,53,38,0
2,note_on,53,0,240
2,note_on,50,44,0
2,note_on,50,0,240
2,note_on,53,42,0
2,note_on,53,0,240
2,note_on,51,56,0
2,note_on,51,0,240
2,note_on,53,55,0
2,note_on,53,0,240
2,note_on,51,49,0
2,note_on,51,0,240
2,note_on,53,46,0
2,note_on,53,0,240
2,note_on,50,48,0
2,note_on,50,0,240
2,note_on,53,45,0
2,note_on,53,0,240
2,note_on,50,50,0
2,note_on,50,0,240
2,note_on,53,47,0
2,note_on,53,0,240
2,note_on,51,53,0
2,note_on,51,0,240
2,note_on,53,50,0
2,note_on,53,0,240
2,note_on,51,48,0
2,note_on,51,0,240
2,note_on,53,45,0
2,note_on,53,0,240
2,note_on,50,53,0
2,note_on,50,0,240
2,note_on,65,49,0
2,note_on,65,0,240
2,note_on,62,53,0
2,note_on,62,0,240
2,note_on,65,49,0
2,note_on,65,0,240
2,note_on,63,54,0
2,note_on,63,0,240
2,note_on,65,48,0
2,note_on,65,0,240
2,note_on,63,57,0
2,note_on,63,0,240
2,note_on,65,52,0
2,note_on,65,0,240
2,note_on,62,64,0
2,note_on,62,0,480
2,note_on,58,75,960
2,note_on,50,75,0
2,note_on,50,0,480
2,note_on,58,0,0
2,note_on,51,85,0
2,note_on,58,85,0
2,note_on,58,0,480
2,note_on,51,0,0
2,note_on,58,57,960
2,note_on,60,57,0
2,note_on,51,57,0
2,note_on,51,0,480
2,note_on,60,0,0
2,note_on,58,0,0
2,note_on,53,61,0
2,note_on,53,0,240
2,note_on,62,57,0
2,note_on,62,0,240
2,note_on,58,62,0
2,note_on,58,0,240
2,note_on,62,57,0
2,note_on,62,0,240
2,note_on,53,61,0
2,note_on,53,0,240
2,note_on,63,55,0
2,note_on,63,0,240
2,note_on,57,61,0
2,note_on,57,0,240
2,note_on,63,55,0
2,note_on,63,0,240
2,note_on,58,61,0
2,note_on,58,0,480
2,note_on,60,69,240
2,note_on,60,0,240
2,note_on,62,74,0
2,note_on,62,0,480
2,note_on,38,64,240
2,note_on,50,64,0
2,note_on,50,0,240
2,note_on,38,0,0
2,note_on,39,69,0
2,note_on,51,69,0
2,note_on,51,0,480
2,note_on,39,0,0
2,note_on,41,88,1440
2,note_on,29,88,0
2,note_on,29,0,1920
2,note_on,41,0,0
2,note_on,41,70,0
2,note_on,50,70,0
2,note_on,46,70,0
2,note_on,46,0,480
2,note_on,50,0,0
2,note_on,41,0,0
2,note_on,46,71,480
2,note_on,50,71,0
2,note_on,41,71,0
2,note_on,41,0,480
2,note_on,50,0,0
2,note_on,46,0,0
2,note_on,58,81,480
2,note_on,53,81,0
2,note_on,62,81,0
2,note_on,62,0,480
2,note_on,53,0,0
2,note_on,58,0,0
2,note_on,53,57,3360
2,note_on,53,0,240
2,note_on,62,54,0
2,note_on,62,0,240
2,note_on,58,57,0
2,note_on,58,0,240
2,note_on,62,53,0
2,note_on,62,0,240
2,note_on,53,57,0
2,note_on,53,0,240
2,note_on,62,52,0
2,note_on,62,0,240
2,note_on,58,57,0
2,note_on,58,0,240
2,note_on,62,53,0
2,note_on,62,0,240
2,note_on,53,66,0
2,note_on,53,0,240
2,note_on,63,59,0
2,note_on,63,0,240
2,note_on,57,65,0
2,note_on,57,0,240
2,note_on,63,61,0
2,note_on,63,0,240
2,note_on,53,65,0
2,note_on,53,0,240
2,note_on,63,61,0
2,note_on,63,0,240
2,note_on,57,65,0
2,note_on,57,0,240
2,note_on,63,61,0
2,note_on,63,0,240
2,note_on,58,52,0
2,note_on,62,52,0
2,note_on,62,0,480
2,note_on,58,0,0
2,note_on,62,52,0
2,note_on,58,52,0
2,note_on,58,0,480
2,note_on,62,0,0
2,note_on,62,56,480
2,note_on,58,56,0
2,note_on,58,0,480
2,note_on,62,0,0
2,note_on,58,58,0
2,note_on,69,58,0
2,note_on,69,0,480
2,note_on,58,0,0
2,note_on,58,54,0
2,note_on,69,54,0
2,note_on,69,0,480
2,note_on,58,0,0
2,note_on,58,61,480
2,note_on,69,61,0
2,note_on,69,0,480
2,note_on,58,0,0
2,note_on,58,67,0
2,note_on,68,67,0
2,note_on,68,0,480
2,note_on,58,0,0
2,note_on,68,62,0
2,note_on,58,62,0
2,note_on,58,0,480
2,note_on,68,0,0
2,note_on,67,71,0
2,note_on,58,71,0
2,note_on,58,0,480
2,note_on,67,0,0
2,note_on,67,68,0
2,note_on,58,68,0
2,note_on,58,0,480
2,note_on,67,0,0
2,note_on,62,82,0
2,note_on,58,82,0
2,note_on,58,0,480
2,note_on,62,0,0
2,note_on,58,76,0
2,note_on,62,76,0
2,note_on,62,0,480
2,note_on,58,0,0
2,note_on,58,85,0
2,note_on,63,85,0
2,note_on,63,0,480
2,note_on,58,0,0
2,note_on,58,91,0
2,note_on,60,91,0
2,note_on,60,0,480
2,note_on,58,0,0
2,note_on,58,90,0
2,note_on,46,76,0
2,note_on,46,0,120
2,note_on,58,0,0
2,note_on,58,87,120
2,note_on,46,73,0
2,note_on,46,0,120
2,note_on,58,0,0
2,note_on,46,71,360
2,note_on,58,84,0
2,note_on,58,0,240
2,note_on,46,0,0
2,note_on,62,90,0
2,note_on,50,76,0
2,note_on,50,0,120
2,note_on,62,0,0
2,note_on,50,74,120
2,note_on,62,88,0
2,note_on,62,0,120
2,note_on,50,0,0
2,note_on,46,72,360
2,note_on,58,85,0
2,note_on,58,0,240
2,note_on,46,0,0
2,note_on,43,76,0
2,note_on,55,90,0
2,note_on,55,0,120
2,note_on,43,0,0
2,note_on,43,74,120
2,note_on,55,88,0
2,note_on,55,0,120
2,note_on,43,0,0
2,note_on,43,71,360
2,note_on,55,84,0
2,note_on,55,0,240
2,note_on,43,0,0
2,note_on,58,90,0
2,note_on,46,76,0
2,note_on,46,0,120
2,note_on,58,0,0
2,note_on,58,87,120
2,note_on,46,73,0
2,note_on,46,0,120
2,note_on,58,0,0
2,note_on,43,71,360
2,note_on,55,84,0
2,note_on,55,0,240
2,note_on,43,0,0
2,note_on,38,76,0
2,note_on,50,90,0
2,note_on,50,0,120
2,note_on,38,0,0
2,note_on,50,89,120
2,note_on,38,75,0
2,note_on,38,0,120
2,note_on,50,0,0
2,note_on,38,74,360
2,note_on,50,88,0
2,note_on,50,0,240
2,note_on,38,0,0
2,note_on,51,91,0
2,note_on,39,77,0
2,note_on,39,0,120
2,note_on,51,0,0
2,note_on,39,77,120
2,note_on,51,91,0
2,note_on,51,0,120
2,note_on,39,0,0
2,note_on,52,96,120
2,note_on,40,81,0
2,note_on,40,0,120
2,note_on,52,0,0
2,note_on,40,78,120
2,note_on,52,92,0
2,note_on,52,0,120
2,note_on,40,0,0
2,note_on,41,79,120
2,note_on,53,93,0
2,note_on,53,0,960
2,note_on,41,0,0
2,note_on,53,51,0
2,note_on,53,0,240
2,note_on,62,45,0
2,note_on,62,0,240
2,note_on,58,47,0
2,note_on,58,0,240
2,note_on,62,44,0
2,note_on,62,0,240
2,note_on,53,50,0
2,note_on,53,0,240
2,note_on,62,44,0
2,note_on,62,0,240
2,note_on,58,47,0
2,note_on,58,0,240
2,note_on,62,44,0
2,note_on,62,0,240
2,note_on,53,51,0
2,note_on,53,0,240
2,note_on,63,44,0
2,note_on,63,0,240
2,note_on,60,47,0
2,note_on,60,0,240
2,note_on,63,45,0
2,note_on,63,0,240
2,note_on,53,50,0
2,note_on,53,0,240
2,note_on,63,39,0
2,note_on,63,0,240
2,note_on,60,44,0
2,note_on,60,0,240
2,note_on,63,38,0
2,note_on,63,0,240
2,note_on,53,51,0
2,note_on,53,0,240
2,note_on,61,41,0
2,note_on,61,0,240
2,note_on,58,45,0
2,note_on,58,0,240
2,note_on,61,41,0
2,note_on,61,0,240
2,note_on,53,47,0
2,note_on,53,0,240
2,note_on,61,40,0
2,note_on,61,0,240
2,note_on,58,45,0
2,note_on,58,0,240
2,note_on,61,40,0
2,note_on,61,0,240
2,note_on,53,48,0
2,note_on,53,0,240
2,note_on,63,40,0
2,note_on,63,0,240
2,note_on,60,45,0
2,note_on,60,0,240
2,note_on,63,40,0
2,note_on,63,0,240
2,note_on,53,48,0
2,note_on,53,0,240
2,note_on,63,36,0
2,note_on,63,0,240
2,note_on,60,41,0
2,note_on,60,0,240
2,note_on,63,35,0
2,note_on,63,0,240
2,note_on,54,75,0
2,note_on,61,75,0
2,note_on,61,0,480
2,note_on,54,0,0
2,note_on,54,66,1440
2,note_on,58,63,240
2,note_on,58,0,240
2,note_on,60,66,0
2,note_on,60,0,240
2,note_on,61,70,0
2,note_on,61,0,105
2,note_on,61,70,135
2,note_on,61,0,240
2,note_on,60,65,0
2,note_on,60,0,105
2,note_on,60,69,135
2,note_on,60,0,240
2,note_on,58,66,0
2,note_on,58,0,120
2,note_on,54,0,120
2,note_on,57,67,0
2,note_on,53,47,0
2,note_on,53,0,120
2,note_on,57,0,0
2,note_on,57,50,360
2,note_on,53,35,0
2,note_on,53,0,480
2,note_on,57,0,0
2,note_on,53,35,480
2,note_on,57,50,0
2,note_on,57,0,480
2,note_on,53,0,0
2,note_on,53,38,0
2,note_on,58,53,0
2,note_on,55,38,0
2,note_on,55,0,120
2,note_on,58,0,0
2,note_on,53,0,0
2,note_on,55,35,360
2,note_on,58,50,0
2,note_on,53,35,0
2,note_on,53,0,480
2,note_on,58,0,0
2,note_on,55,0,0
2,note_on,56,54,480
2,note_on,59,54,0
2,note_on,53,38,0
2,note_on,53,0,480
2,note_on,59,0,0
2,note_on,56,0,0
2,note_on,57,39,0
2,note_on,60,55,0
2,note_on,53,39,0
2,note_on,60,0,480
2,note_on,57,0,0
2,note_on,57,43,0
2,note_on,61,61,0
2,note_on,61,0,480
2,note_on,57,0,0
2,note_on,53,0,0
2,note_on,58,47,0
2,note_on,62,66,0
2,note_on,53,47,0
2,note_on,62,0,480
2,note_on,58,0,0
2,note_on,59,51,0
2,note_on,62,71,0
2,note_on,62,0,480
2,note_on,59,0,0
2,note_on,53,0,0
2,note_on,63,77,0
2,note_on,53,55,0
2,note_on,60,55,0
2,note_on,60,0,1920
2,note_on,53,0,0
2,note_on,63,0,0
2,note_on,53,36,1920
2,note_on,53,0,240
2,note_on,57,36,0
2,note_on,57,0,108
2,note_on,57,42,132
2,note_on,57,0,240
2,note_on,60,42,0
2,note_on,60,0,108
2,note_on,60,50,132
2,note_on,60,0,240
2,note_on,63,48,0
2,note_on,63,0,108
2,note_on,63,56,132
2,note_on,63,0,240
2,note_on,60,51,0
2,note_on,60,0,120
2,note_on,60,55,120
2,note_on,60,0,240
2,note_on,57,53,0
2,note_on,57,0,108
2,note_on,57,55,132
2,note_on,57,0,240
2,note_on,53,51,0
2,note_on,53,0,240
2,note_on,54,56,0
2,note_on,54,0,240
2,note_on,55,59,0
2,note_on,55,0,240
2,note_on,56,62,0
2,note_on,56,0,240
2,note_on,57,65,0
2,note_on,57,0,240
2,note_on,58,69,0
2,note_on,58,0,120
2,note_on,58,46,120
2,note_on,58,0,120
2,note_on,58,46,360
2,note_on,58,0,120
2,note_on,58,48,120
2,note_on,58,0,120
2,note_on,58,46,120
2,note_on,58,0,120
2,note_on,58,46,360
2,note_on,58,0,120
2,note_on,58,49,120
2,note_on,58,0,120
2,note_on,58,46,120
2,note_on,58,0,120
2,note_on,58,46,360
2,note_on,58,0,120
2,note_on,58,49,120
2,note_on,58,0,120
2,note_on,58,46,120
2,note_on,58,0,120
2,note_on,58,45,360
2,note_on,58,0,120
2,note_on,58,48,120
2,note_on,58,0,120
2,note_on,58,51,120
2,note_on,58,0,120
2,note_on,58,57,360
2,note_on,58,0,120
2,note_on,58,60,120
2,note_on,58,0,120
2,note_on,58,64,120
2,note_on,58,0,120
2,note_on,58,70,360
2,note_on,58,0,120
2,note_on,59,66,120
2,note_on,59,0,480
2,note_on,47,56,0
2,note_on,59,66,0
2,note_on,59,0,480
2,note_on,47,0,0
2,note_on,60,71,0
2,note_on,48,60,0
2,note_on,48,0,480
2,note_on,60,0,0
2,note_on,58,66,0
2,note_on,46,56,0
2,note_on,46,0,480
2,note_on,58,0,0
2,note_on,45,61,0
2,note_on,57,72,0
2,note_on,57,0,480
2,note_on,45,0,0
2,note_on,57,66,0
2,note_on,45,56,0
2,note_on,45,0,480
2,note_on,57,0,0
2,note_on,46,58,0
2,note_on,58,69,0
2,note_on,58,0,480
2,note_on,46,0,0
2,note_on,57,66,0
2,note_on,45,56,0
2,note_on,45,0,480
2,note_on,57,0,0
2,note_on,55,70,0
2,note_on,43,59,0
2,note_on,43,0,480
2,note_on,55,0,0
2,note_on,43,56,0
2,note_on,55,66,0
2,note_on,55,0,480
2,note_on,43,0,0
2,note_on,57,69,0
2,note_on,45,58,0
2,note_on,45,0,480
2,note_on,57,0,0
2,note_on,43,56,0
2,note_on,55,66,0
2,note_on,55,0,480
2,note_on,43,0,0
2,note_on,54,68,0
2,note_on,42,57,0
2,note_on,42,0,480
2,note_on,54,0,0
2,note_on,54,66,0
2,note_on,42,56,0
2,note_on,42,0,480
2,note_on,54,0,0
2,note_on,43,59,0
2,note_on,55,70,0
2,note_on,55,0,480
2,note_on,43,0,0
2,note_on,53,66,0
2,note_on,41,56,0
2,note_on,41,0,480
2,note_on,53,0,0
2,note_on,39,62,0
2,note_on,51,73,0
2,note_on,51,0,240
2,note_on,39,0,0
2,note_on,55,65,0
2,note_on,55,0,240
2,note_on,58,65,0
2,note_on,58,0,240
2,note_on,55,65,0
2,note_on,55,0,240
2,note_on,51,71,0
2,note_on,51,0,240
2,note_on,55,65,0
2,note_on,55,0,240
2,note_on,58,65,0
2,note_on,58,0,240
2,note_on,55,60,0
2,note_on,55,0,240
2,note_on,53,69,0
2,note_on,53,0,240
2,note_on,56,60,0
2,note_on,56,0,240
2,note_on,58,65,0
2,note_on,58,0,240
2,note_on,56,60,0
2,note_on,56,0,240
2,note_on,53,69,0
2,note_on,53,0,240
2,note_on,56,61,0
2,note_on,56,0,240
2,note_on,58,65,0
2,note_on,58,0,240
2,note_on,56,61,0
2,note_on,56,0,240
2,note_on,55,71,0
2,note_on,55,0,240
2,note_on,58,64,0
2,note_on,58,0,240
2,note_on,63,68,0
2,note_on,63,0,240
2,note_on,58,65,0
2,note_on,58,0,240
2,note_on,50,78,0
2,note_on,50,0,240
2,note_on,56,66,0
2,note_on,56,0,240
2,note_on,58,71,0
2,note_on,58,0,240
2,note_on,56,69,0
2,note_on,56,0,240
2,note_on,51,79,0
2,note_on,51,0,240
2,note_on,63,72,0
2,note_on,63,0,240
2,note_on,48,82,0
2,note_on,48,0,240
2,note_on,60,73,0
2,note_on,60,0,240
2,note_on,50,83,0
2,note_on,50,0,240
2,note_on,62,76,0
2,note_on,62,0,240
2,note_on,45,84,0
2,note_on,45,0,240
2,note_on,57,78,0
2,note_on,57,0,240
2,note_on,46,90,0
2,note_on,58,90,0
2,note_on,58,0,960
2,note_on,46,0,0
2,note_on,42,89,0
2,note_on,54,89,0
2,note_on,54,0,960
2,note_on,42,0,0
2,note_on,40,89,0
2,note_on,52,89,0
2,note_on,52,0,960
2,note_on,40,0,0
2,note_on,61,69,960
2,note_on,61,0,120
2,note_on,58,71,0
2,note_on,58,0,120
2,note_on,55,74,0
2,note_on,55,0,120
2,note_on,52,77,0
2,note_on,52,0,120
2,note_on,49,80,0
2,note_on,49,0,120
2,note_on,46,82,0
2,note_on,46,0,120
2,note_on,43,85,0
2,note_on,43,0,120
2,note_on,40,88,0
2,note_on,40,0,120
2,note_on,41,108,0
2,note_on,53,108,0
2,note_on,41,0,960
2,note_on,53,0,19
2,note_on,57,66,0
2,note_on,55,67,19
2,note_on,57,0,10
2,note_on,53,69,9
2,note_on,55,0,10
2,note_on,55,70,9
2,note_on,53,0,10
2,note_on,57,71,9
2,note_on,55,0,10
2,note_on,58,72,9
2,note_on,57,0,10
2,note_on,60,74,9
2,note_on,58,0,10
2,note_on,60,0,19
2,note_on,60,54,1758
2,note_on,63,54,0
2,note_on,53,54,0
2,note_on,57,54,0
2,note_on,57,0,1440
2,note_on,60,0,0
2,note_on,63,0,0
2,note_on,53,0,0
2,note_on,58,42,480
2,note_on,58,0,480
2,note_on,62,48,0
2,note_on,62,0,120
2,note_on,67,46,360
2,note_on,67,0,120
2,note_on,60,52,360
2,note_on,60,0,480
2,note_on,63,47,0
2,note_on,63,0,480
2,note_on,65,48,0
2,note_on,65,0,480
2,note_on,63,45,0
2,note_on,63,0,480
2,note_on,62,53,0
2,note_on,62,0,480
2,note_on,65,47,0
2,note_on,57,47,0
2,note_on,57,0,480
2,note_on,58,51,0
2,note_on,58,0,480
2,note_on,65,0,0
2,note_on,51,48,0
2,note_on,60,48,0
2,note_on,60,0,480
2,note_on,51,0,0
2,note_on,58,52,0
2,note_on,53,52,0
2,note_on,58,0,960
2,note_on,57,47,0
2,note_on,57,0,480
2,note_on,53,0,0
2,note_on,46,62,480
2,note_on,46,0,120
2,note_on,58,50,120
2,note_on,58,0,240
2,note_on,62,53,0
2,note_on,62,0,240
2,note_on,58,50,0
2,note_on,58,0,240
2,note_on,43,62,0
2,note_on,43,0,120
2,note_on,55,52,120
2,note_on,55,0,120
2,note_on,58,54,120
2,note_on,58,0,120
2,note_on,55,52,120
2,note_on,55,0,120
2,note_on,36,64,120
2,note_on,36,0,120
2,note_on,48,51,120
2,note_on,48,0,240
2,note_on,51,54,0
2,note_on,51,0,240
2,note_on,48,52,0
2,note_on,48,0,240
2,note_on,41,64,0
2,note_on,41,0,120
2,note_on,53,53,120
2,note_on,53,0,240
2,note_on,57,54,0
2,note_on,57,0,240
2,note_on,53,54,0
2,note_on,53,0,240
2,note_on,58,63,0
2,note_on,58,0,480
2,note_on,51,54,0
2,note_on,51,0,480
2,note_on,53,57,0
2,note_on,53,0,480
2,note_on,41,54,0
2,note_on,41,0,480
2,note_on,50,69,0
2,note_on,58,69,0
2,note_on,58,0,480
2,note_on,50,0,0
2,note_on,50,63,960
2,note_on,58,63,0
2,note_on,58,0,480
2,note_on,50,0,0
2,note_on,58,68,0
2,note_on,51,68,0
2,note_on,51,0,480
2,note_on,58,0,0
2,note_on,51,64,960
2,note_on,57,64,0
2,note_on,57,0,480
2,note_on,51,0,0
2,note_on,50,69,0
2,note_on,58,69,0
2,note_on,50,0,480
2,note_on,55,59,0
2,note_on,55,0,480
2,note_on,51,66,0
2,note_on,51,0,480
2,note_on,58,0,0
2,note_on,57,59,0
2,note_on,53,59,0
2,note_on,53,0,480
2,note_on,57,0,0
2,note_on,50,64,0
2,note_on,58,64,0
2,note_on,58,0,480
2,note_on,50,0,0
2,note_on,58,54,960
2,note_on,50,54,0
2,note_on,50,0,480
2,note_on,58,0,0
2,note_on,58,58,0
2,note_on,51,58,0
2,note_on,51,0,480
2,note_on,58,0,0
2,note_on,51,55,960
2,note_on,60,55,0
2,note_on,60,0,480
2,note_on,51,0,0
2,note_on,53,64,0
2,note_on,53,0,240
2,note_on,62,57,0
2,note_on,62,0,240
2,note_on,58,64,0
2,note_on,58,0,240
2,note_on,62,58,0
2,note_on,62,0,240
2,note_on,53,64,0
2,note_on,53,0,240
2,note_on,62,58,0
2,note_on,62,0,240
2,note_on,58,64,0
2,note_on,58,0,240
2,note_on,62,58,0
2,note_on,62,0,240
2,note_on,53,64,0
2,note_on,53,0,240
2,note_on,63,64,0
2,note_on,63,0,240
2,note_on,57,67,0
2,note_on,57,0,240
2,note_on,63,64,0
2,note_on,63,0,240
2,note_on,53,70,0
2,note_on,53,0,240
2,note_on,63,64,0
2,note_on,63,0,240
2,note_on,57,71,0
2,note_on,57,0,240
2,note_on,63,66,0
2,note_on,63,0,240
2,note_on,62,66,0
2,note_on,62,0,240
2,note_on,58,49,0
2,note_on,58,0,240
2,note_on,62,41,0
2,note_on,62,0,240
2,note_on,58,34,0
2,note_on,58,0,240
2,note_on,62,40,0
2,note_on,62,0,240
2,note_on,58,35,0
2,note_on,58,0,240
2,note_on,62,40,0
2,note_on,62,0,240
2,note_on,58,35,0
2,note_on,58,0,240
2,note_on,65,43,0
2,note_on,65,0,240
2,note_on,58,39,0
2,note_on,58,0,240
2,note_on,65,44,0
2,note_on,65,0,240
2,note_on,58,38,0
2,note_on,58,0,240
2,note_on,68,44,0
2,note_on,68,0,240
2,note_on,58,38,0
2,note_on,58,0,240
2,note_on,68,44,0
2,note_on,68,0,240
2,note_on,58,38,0
2,note_on,58,0,240
2,note_on,67,44,0
2,note_on,67,0,240
2,note_on,58,42,0
2,note_on,58,0,240
2,note_on,62,47,0
2,note_on,62,0,240
2,note_on,58,44,0
2,note_on,58,0,240
2,note_on,63,50,0
2,note_on,63,0,240
2,note_on,58,46,0
2,note_on,58,0,240
2,note_on,63,44,0
2,note_on,63,0,240
2,note_on,58,44,0
2,note_on,58,0,240
2,note_on,60,43,0
2,note_on,60,0,240
2,note_on,58,38,0
2,note_on,58,0,240
2,note_on,60,41,0
2,note_on,60,0,240
2,note_on,58,40,0
2,note_on,58,0,240
2,note_on,60,48,0
2,note_on,60,0,240
2,note_on,58,43,0
2,note_on,58,0,240
2,note_on,60,43,0
2,note_on,60,0,240
2,note_on,58,39,0
2,note_on,58,0,240
2,note_on,58,45,0
2,note_on,62,45,0
2,note_on,62,0,480
2,note_on,58,0,0
2,note_on,65,42,1440
2,note_on,65,0,240
2,note_on,58,38,0
2,note_on,58,0,240
2,note_on,65,42,0
2,note_on,65,0,240
2,note_on,58,39,0
2,note_on,58,0,240
2,note_on,68,42,0
2,note_on,68,0,120
2,note_on,58,39,120
2,note_on,58,0,120
2,note_on,68,42,120
2,note_on,68,0,120
2,note_on,58,38,120
2,note_on,58,0,120
2,note_on,67,42,120
2,note_on,67,0,240
2,note_on,58,42,0
2,note_on,58,0,240
2,note_on,62,46,0
2,note_on,62,0,240
2,note_on,58,42,0
2,note_on,58,0,240
2,note_on,63,45,0
2,note_on,63,0,240
2,note_on,58,34,0
2,note_on,58,0,240
2,note_on,63,39,0
2,note_on,63,0,240
2,note_on,58,35,0
2,note_on,58,0,240
2,note_on,60,45,0
2,note_on,60,0,240
2,note_on,58,42,0
2,note_on,58,0,240
2,note_on,60,45,0
2,note_on,60,0,240
2,note_on,58,42,0
2,note_on,58,0,240
2,note_on,60,46,0
2,note_on,60,0,240
2,note_on,58,42,0
2,note_on,58,0,240
2,note_on,60,46,0
2,note_on,60,0,240
2,note_on,58,44,0
2,note_on,58,0,240
2,note_on,62,49,0
2,note_on,58,49,0
2,note_on,58,0,480
2,note_on,62,0,0
2,note_on,60,39,480
2,note_on,53,39,0
2,note_on,60,0,480
2,note_on,63,39,0
2,note_on,63,0,480
2,note_on,53,0,0
2,note_on,62,46,0
2,note_on,58,46,0
2,note_on,58,0,480
2,note_on,62,0,0
2,note_on,60,37,480
2,note_on,53,37,0
2,note_on,60,0,480
2,note_on,63,37,0
2,note_on,63,0,480
2,note_on,53,0,0
2,note_on,58,43,0
2,note_on,62,43,0
2,note_on,62,0,480
2,note_on,58,0,0
2,note_on,53,84,480
2,note_on,41,71,0
2,note_on,41,0,240
2,note_on,53,0,0
2,note_on,41,71,240
2,note_on,53,84,0
2,note_on,53,0,240
2,note_on,41,0,0
2,note_on,34,75,240
2,note_on,46,89,0
2,note_on,46,0,240
2,note_on,34,0,0
