Track,Message Type,Note,Velocity,Time
1,note_on,69,42,600
1,note_on,69,0,120
1,note_on,81,47,0
1,note_on,81,0,480
1,note_on,78,44,0
1,note_on,78,0,180
1,note_on,76,44,0
1,note_on,76,0,60
1,note_on,74,49,0
1,note_on,74,0,90
1,note_on,73,44,150
1,note_on,73,0,90
1,note_on,74,44,150
1,note_on,74,0,90
1,note_on,76,43,90
1,note_on,76,0,60
1,note_on,74,47,0
1,note_on,74,0,90
1,note_on,73,43,150
1,note_on,73,0,90
1,note_on,74,42,150
1,note_on,74,0,90
1,note_on,78,49,150
1,note_on,74,41,0
1,note_on,74,0,480
1,note_on,78,0,0
1,note_on,76,41,0
1,note_on,73,35,0
1,note_on,73,0,120
1,note_on,76,0,0
1,note_on,67,42,0
1,note_on,67,0,120
1,note_on,79,47,0
1,note_on,79,0,480
1,note_on,76,44,0
1,note_on,76,0,180
1,note_on,74,44,0
1,note_on,74,0,60
1,note_on,73,49,0
1,note_on,73,0,90
1,note_on,71,44,150
1,note_on,71,0,90
1,note_on,73,44,150
1,note_on,73,0,90
1,note_on,69,47,150
1,note_on,69,0,90
1,note_on,76,43,150
1,note_on,76,0,90
1,note_on,81,42,150
1,note_on,81,0,90
1,note_on,79,49,150
1,note_on,76,41,0
1,note_on,76,0,480
1,note_on,79,0,0
1,note_on,78,41,0
1,note_on,74,35,0
1,note_on,74,0,180
1,note_on,78,0,0
1,note_on,74,48,0
1,note_on,74,0,60
1,note_on,78,52,0
1,note_on,78,0,480
1,note_on,79,48,0
1,note_on,79,0,240
1,note_on,83,59,0
1,note_on,83,0,120
1,note_on,81,57,0
1,note_on,81,0,120
1,note_on,79,55,0
1,note_on,79,0,120
1,note_on,78,53,0
1,note_on,78,0,120
1,note_on,76,51,0
1,note_on,76,0,120
1,note_on,74,47,0
1,note_on,74,0,58
1,note_on,74,46,2
1,note_on,74,0,60
1,note_on,78,58,0
1,note_on,78,0,480
1,note_on,79,49,0
1,note_on,79,0,240
1,note_on,83,59,0
1,note_on,83,0,120
1,note_on,81,57,0
1,note_on,81,0,120
1,note_on,79,55,0
1,note_on,79,0,120
1,note_on,78,53,0
1,note_on,78,0,120
1,note_on,76,51,0
1,note_on,76,0,120
1,note_on,74,51,0
1,note_on,74,0,50
1,note_on,74,46,10
1,note_on,74,0,60
1,note_on,83,58,0
1,note_on,83,0,480
1,note_on,85,49,0
1,note_on,85,0,240
1,note_on,86,59,0
1,note_on,86,0,120
1,note_on,85,57,0
1,note_on,85,0,120
1,note_on,83,55,0
1,note_on,83,0,120
1,note_on,81,53,0
1,note_on,81,0,120
1,note_on,79,51,0
1,note_on,79,0,120
1,note_on,78,51,0
1,note_on,78,0,120
1,note_on,83,59,0
1,note_on,83,0,120
1,note_on,81,58,0
1,note_on,81,0,120
1,note_on,79,56,0
1,note_on,79,0,120
1,note_on,78,55,0
1,note_on,78,0,120
1,note_on,76,58,0
1,note_on,76,0,120
1,note_on,74,62,0
1,note_on,74,0,120
1,note_on,73,50,0
1,note_on,76,50,0
1,note_on,81,59,0
1,note_on,81,0,240
1,note_on,76,0,0
1,note_on,73,0,0
1,note_on,69,45,360
1,note_on,69,0,120
1,note_on,81,47,0
1,note_on,81,0,480
1,note_on,78,44,0
1,note_on,78,0,180
1,note_on,76,44,0
1,note_on,76,0,60
1,note_on,74,49,0
1,note_on,74,0,90
1,note_on,73,44,150
1,note_on,73,0,90
1,note_on,74,44,150
1,note_on,74,0,90
1,note_on,76,43,90
1,note_on,76,0,60
1,note_on,74,47,0
1,note_on,74,0,90
1,note_on,73,43,150
1,note_on,73,0,90
1,note_on,74,42,150
1,note_on,74,0,90
1,note_on,78,49,150
1,note_on,74,41,0
1,note_on,74,0,480
1,note_on,78,0,0
1,note_on,76,41,0
1,note_on,73,35,0
1,note_on,73,0,120
1,note_on,76,0,0
1,note_on,67,42,0
1,note_on,67,0,120
1,note_on,79,47,0
1,note_on,79,0,480
1,note_on,76,44,0
1,note_on,76,0,180
1,note_on,74,44,0
1,note_on,74,0,60
1,note_on,73,49,0
1,note_on,73,0,90
1,note_on,71,44,150
1,note_on,71,0,90
1,note_on,73,44,150
1,note_on,73,0,90
1,note_on,69,47,150
1,note_on,69,0,90
1,note_on,76,43,150
1,note_on,76,0,90
1,note_on,81,42,150
1,note_on,81,0,90
1,note_on,76,41,150
1,note_on,79,49,0
1,note_on,79,0,480
1,note_on,76,0,0
1,note_on,74,35,0
1,note_on,78,41,0
1,note_on,78,0,180
1,note_on,74,0,0
1,note_on,74,48,0
1,note_on,74,0,60
1,note_on,78,52,0
1,note_on,78,0,480
1,note_on,79,48,0
1,note_on,79,0,240
1,note_on,83,59,0
1,note_on,83,0,120
1,note_on,81,57,0
1,note_on,81,0,120
1,note_on,79,55,0
1,note_on,79,0,120
1,note_on,78,53,0
1,note_on,78,0,120
1,note_on,76,51,0
1,note_on,76,0,120
1,note_on,74,47,0
1,note_on,74,0,56
1,note_on,74,46,4
1,note_on,74,0,60
1,note_on,83,58,0
1,note_on,83,0,480
1,note_on,85,49,0
1,note_on,85,0,240
1,note_on,88,59,0
1,note_on,88,0,120
1,note_on,86,57,0
1,note_on,86,0,120
1,note_on,85,55,0
1,note_on,85,0,120
1,note_on,83,53,0
1,note_on,83,0,120
1,note_on,81,51,0
1,note_on,81,0,120
1,note_on,79,51,0
1,note_on,79,0,120
1,note_on,85,59,0
1,note_on,85,0,120
1,note_on,83,58,0
1,note_on,83,0,120
1,note_on,81,56,0
1,note_on,81,0,120
1,note_on,79,55,0
1,note_on,79,0,120
1,note_on,78,54,0
1,note_on,78,0,120
1,note_on,76,52,0
1,note_on,76,0,120
1,note_on,83,63,0
1,note_on,83,0,120
1,note_on,81,61,0
1,note_on,81,0,120
1,note_on,79,59,0
1,note_on,79,0,120
1,note_on,78,57,0
1,note_on,78,0,120
1,note_on,76,56,0
1,note_on,76,0,120
1,note_on,74,54,0
1,note_on,74,0,120
1,note_on,81,59,0
1,note_on,81,0,120
1,note_on,79,61,0
1,note_on,79,0,120
1,note_on,78,60,0
1,note_on,78,0,120
1,note_on,76,59,0
1,note_on,76,0,120
1,note_on,74,58,0
1,note_on,74,0,120
1,note_on,73,61,0
1,note_on,73,0,120
1,note_on,74,63,0
1,note_on,74,0,120
1,note_on,62,66,360
1,note_on,62,0,120
1,note_on,66,66,0
1,note_on,66,0,120
1,note_on,69,73,0
1,note_on,69,0,120
1,note_on,66,70,360
1,note_on,66,0,120
1,note_on,69,70,0
1,note_on,69,0,120
1,note_on,74,75,0
1,note_on,74,0,120
1,note_on,69,69,360
1,note_on,69,0,120
1,note_on,74,69,0
1,note_on,74,0,120
1,note_on,78,81,0
1,note_on,78,0,120
1,note_on,74,70,360
1,note_on,74,0,120
1,note_on,78,70,0
1,note_on,78,0,120
1,note_on,81,82,0
1,note_on,81,0,120
1,note_on,81,45,1320
1,note_on,81,0,600
1,note_on,83,42,0
1,note_on,83,0,120
1,note_on,74,47,0
1,note_on,74,0,480
1,note_on,73,47,28
1,note_on,74,55,212
1,note_on,73,0,28
1,note_on,74,0,152
1,note_on,86,54,60
1,note_on,86,0,120
1,note_on,85,52,120
1,note_on,85,0,120
1,note_on,83,50,120
1,note_on,83,0,120
1,note_on,81,49,120
1,note_on,81,0,120
1,note_on,80,47,120
1,note_on,80,0,120
1,note_on,81,45,120
1,note_on,81,0,300
1,note_on,83,35,0
1,note_on,83,0,60
1,note_on,81,35,0
1,note_on,81,0,60
1,note_on,80,35,0
1,note_on,80,0,60
1,note_on,81,45,0
1,note_on,81,0,120
1,note_on,83,42,0
1,note_on,83,0,120
1,note_on,74,47,0
1,note_on,74,0,480
1,note_on,73,47,28
1,note_on,74,55,212
1,note_on,73,0,28
1,note_on,74,0,152
1,note_on,86,54,60
1,note_on,86,0,120
1,note_on,85,52,120
1,note_on,85,0,120
1,note_on,83,50,120
1,note_on,83,0,120
1,note_on,81,49,120
1,note_on,81,0,120
1,note_on,80,47,120
1,note_on,80,0,120
1,note_on,81,45,120
1,note_on,81,0,300
1,note_on,83,35,0
1,note_on,83,0,60
1,note_on,81,35,0
1,note_on,81,0,60
1,note_on,80,35,0
1,note_on,80,0,60
1,note_on,81,45,0
1,note_on,81,0,120
1,note_on,83,42,0
1,note_on,83,0,120
1,note_on,74,47,0
1,note_on,74,0,480
1,note_on,73,47,28
1,note_on,74,52,212
1,note_on,73,0,28
1,note_on,74,0,212
1,note_on,62,35,480
1,note_on,54,29,0
1,note_on,59,29,0
1,note_on,59,0,720
1,note_on,54,0,0
1,note_on,62,0,0
1,note_on,59,32,0
1,note_on,64,38,0
1,note_on,62,32,0
1,note_on,62,0,720
1,note_on,64,0,0
1,note_on,59,0,0
1,note_on,64,33,0
1,note_on,69,39,0
1,note_on,61,33,0
1,note_on,61,0,720
1,note_on,69,0,0
1,note_on,64,0,0
1,note_on,57,29,0
1,note_on,62,29,0
1,note_on,66,35,0
1,note_on,66,0,240
1,note_on,62,0,0
1,note_on,57,0,0
1,note_on,62,61,720
1,note_on,62,0,90
1,note_on,62,62,150
1,note_on,62,0,90
1,note_on,64,40,30
1,note_on,64,0,40
1,note_on,62,40,0
1,note_on,62,0,40
1,note_on,61,40,1
1,note_on,62,69,39
1,note_on,61,0,1
1,note_on,62,0,479
1,note_on,62,60,0
1,note_on,62,0,90
1,note_on,64,40,30
1,note_on,64,0,40
1,note_on,62,40,0
1,note_on,62,0,40
1,note_on,61,40,1
1,note_on,62,64,39
1,note_on,61,0,1
1,note_on,62,0,479
1,note_on,62,59,0
1,note_on,62,0,90
1,note_on,61,66,150
1,note_on,61,0,480
1,note_on,76,54,120
1,note_on,76,0,120
1,note_on,81,63,0
1,note_on,81,0,960
1,note_on,85,45,0
1,note_on,85,0,90
1,note_on,83,43,150
1,note_on,83,0,90
1,note_on,81,41,150
1,note_on,81,0,90
1,note_on,80,39,150
1,note_on,80,0,90
1,note_on,78,37,150
1,note_on,78,0,90
1,note_on,76,35,150
1,note_on,76,0,720
1,note_on,74,35,0
1,note_on,74,0,240
1,note_on,59,61,0
1,note_on,59,0,90
1,note_on,59,62,150
1,note_on,59,0,90
1,note_on,61,40,30
1,note_on,61,0,40
1,note_on,59,40,0
1,note_on,59,0,40
1,note_on,58,40,1
1,note_on,59,69,39
1,note_on,58,0,1
1,note_on,59,0,479
1,note_on,59,60,0
1,note_on,59,0,90
1,note_on,59,40,30
1,note_on,59,0,40
1,note_on,57,40,0
1,note_on,57,0,40
1,note_on,56,40,1
1,note_on,57,64,39
1,note_on,56,0,1
1,note_on,57,0,479
1,note_on,57,59,0
1,note_on,57,0,90
1,note_on,56,66,150
1,note_on,56,0,240
1,note_on,76,54,360
1,note_on,76,0,120
1,note_on,86,63,0
1,note_on,86,0,840
1,note_on,85,53,0
1,note_on,85,0,120
1,note_on,83,53,0
1,note_on,83,0,120
1,note_on,81,52,0
1,note_on,81,0,120
1,note_on,80,51,0
1,note_on,80,0,120
1,note_on,78,51,0
1,note_on,78,0,120
1,note_on,76,54,0
1,note_on,76,0,120
1,note_on,78,49,0
1,note_on,78,0,120
1,note_on,76,50,0
1,note_on,76,0,120
1,note_on,74,49,0
1,note_on,74,0,120
1,note_on,73,48,0
1,note_on,73,0,120
1,note_on,71,47,0
1,note_on,71,0,120
1,note_on,73,47,0
1,note_on,73,0,120
1,note_on,76,47,0
1,note_on,76,0,120
1,note_on,78,48,0
1,note_on,78,0,120
1,note_on,80,50,0
1,note_on,80,0,120
1,note_on,81,52,0
1,note_on,81,0,120
1,note_on,83,53,0
1,note_on,83,0,120
1,note_on,85,55,0
1,note_on,85,0,120
1,note_on,86,57,0
1,note_on,86,0,120
1,note_on,88,61,0
1,note_on,88,0,120
1,note_on,85,57,0
1,note_on,85,0,120
1,note_on,83,57,0
1,note_on,83,0,120
1,note_on,81,53,0
1,note_on,81,0,120
1,note_on,86,62,0
1,note_on,86,0,120
1,note_on,85,60,0
1,note_on,85,0,120
1,note_on,83,58,0
1,note_on,83,0,120
1,note_on,81,57,0
1,note_on,81,0,120
1,note_on,80,55,0
1,note_on,80,0,120
1,note_on,78,53,0
1,note_on,78,0,120
1,note_on,76,59,0
1,note_on,76,0,120
1,note_on,78,58,0
1,note_on,78,0,120
1,note_on,76,56,0
1,note_on,76,0,120
1,note_on,74,55,0
1,note_on,74,0,120
1,note_on,73,53,0
1,note_on,73,0,120
1,note_on,71,52,0
1,note_on,71,0,120
1,note_on,73,48,0
1,note_on,73,0,120
1,note_on,76,50,0
1,note_on,76,0,120
1,note_on,78,51,0
1,note_on,78,0,120
1,note_on,80,52,0
1,note_on,80,0,120
1,note_on,81,54,0
1,note_on,81,0,120
1,note_on,83,55,0
1,note_on,83,0,120
1,note_on,85,56,0
1,note_on,85,0,120
1,note_on,86,58,0
1,note_on,86,0,120
1,note_on,88,60,0
1,note_on,88,0,120
1,note_on,85,52,0
1,note_on,85,0,120
1,note_on,83,51,0
1,note_on,83,0,120
1,note_on,81,51,0
1,note_on,81,0,120
1,note_on,86,63,0
1,note_on,86,0,120
1,note_on,85,59,0
1,note_on,85,0,120
1,note_on,83,59,0
1,note_on,83,0,120
1,note_on,81,58,0
1,note_on,81,0,120
1,note_on,80,56,0
1,note_on,80,0,120
1,note_on,78,54,0
1,note_on,78,0,120
1,note_on,76,60,0
1,note_on,76,0,120
1,note_on,78,58,0
1,note_on,78,0,120
1,note_on,76,56,0
1,note_on,76,0,120
1,note_on,74,55,0
1,note_on,74,0,120
1,note_on,73,54,0
1,note_on,73,0,120
1,note_on,71,52,0
1,note_on,71,0,120
1,note_on,73,56,0
1,note_on,73,0,120
1,note_on,76,50,0
1,note_on,76,0,120
1,note_on,78,52,0
1,note_on,78,0,120
1,note_on,80,53,0
1,note_on,80,0,120
1,note_on,81,55,0
1,note_on,81,0,120
1,note_on,83,57,0
1,note_on,83,0,120
1,note_on,85,62,0
1,note_on,85,0,120
1,note_on,83,57,0
1,note_on,83,0,120
1,note_on,81,56,0
1,note_on,81,0,120
1,note_on,80,54,0
1,note_on,80,0,120
1,note_on,78,53,0
1,note_on,78,0,120
1,note_on,76,52,0
1,note_on,76,0,120
1,note_on,78,60,0
1,note_on,78,0,120
1,note_on,76,59,0
1,note_on,76,0,120
1,note_on,74,57,0
1,note_on,74,0,120
1,note_on,73,56,0
1,note_on,73,0,120
1,note_on,71,55,0
1,note_on,71,0,120
1,note_on,69,53,0
1,note_on,69,0,120
1,note_on,74,52,0
1,note_on,74,0,120
1,note_on,73,54,0
1,note_on,73,0,120
1,note_on,71,57,0
1,note_on,71,0,120
1,note_on,69,60,0
1,note_on,69,0,120
1,note_on,68,64,0
1,note_on,68,0,120
1,note_on,66,67,0
1,note_on,66,0,120
1,note_on,64,70,0
1,note_on,64,0,90
1,note_on,68,52,150
1,note_on,76,62,0
1,note_on,71,52,0
1,note_on,71,0,90
1,note_on,76,0,0
1,note_on,68,0,0
1,note_on,71,52,150
1,note_on,68,52,0
1,note_on,76,62,0
1,note_on,76,0,90
1,note_on,68,0,0
1,note_on,71,0,0
1,note_on,71,56,150
1,note_on,76,67,0
1,note_on,68,56,0
1,note_on,68,0,90
1,note_on,76,0,0
1,note_on,71,0,0
1,note_on,73,50,630
1,note_on,64,42,0
1,note_on,64,0,720
1,note_on,73,0,0
1,note_on,62,39,0
1,note_on,71,47,0
1,note_on,71,0,240
1,note_on,73,44,0
1,note_on,73,0,240
1,note_on,71,44,0
1,note_on,71,0,240
1,note_on,62,0,0
1,note_on,61,42,0
1,note_on,69,50,0
1,note_on,69,0,1920
1,note_on,61,0,0
1,note_on,73,50,0
1,note_on,73,0,240
1,note_on,69,42,0
1,note_on,74,50,0
1,note_on,74,0,480
1,note_on,78,54,0
1,note_on,78,0,240
1,note_on,69,0,0
1,note_on,68,45,0
1,note_on,76,53,0
1,note_on,68,0,240
1,note_on,69,50,0
1,note_on,69,0,240
1,note_on,76,0,0
1,note_on,71,42,0
1,note_on,74,50,0
1,note_on,74,0,240
1,note_on,71,0,0
1,note_on,69,45,0
1,note_on,73,54,0
1,note_on,73,0,480
1,note_on,69,0,0
1,note_on,71,50,240
1,note_on,71,0,960
1,note_on,73,44,0
1,note_on,73,0,240
1,note_on,71,44,0
1,note_on,71,0,240
1,note_on,71,50,0
1,note_on,71,0,960
1,note_on,73,45,0
1,note_on,73,0,240
1,note_on,74,46,0
1,note_on,74,0,240
1,note_on,76,52,0
1,note_on,76,0,240
1,note_on,81,49,0
1,note_on,81,0,180
1,note_on,80,48,60
1,note_on,80,0,180
1,note_on,78,49,60
1,note_on,78,0,180
1,note_on,76,48,60
1,note_on,76,0,180
1,note_on,74,46,60
1,note_on,74,0,180
1,note_on,73,45,60
1,note_on,73,0,480
1,note_on,74,42,0
1,note_on,74,0,120
1,note_on,73,43,0
1,note_on,73,0,120
1,note_on,71,37,0
1,note_on,71,0,240
1,note_on,64,42,480
1,note_on,73,50,0
1,note_on,73,0,720
1,note_on,64,0,0
1,note_on,71,47,0
1,note_on,62,39,0
1,note_on,71,0,240
1,note_on,73,44,0
1,note_on,73,0,240
1,note_on,71,44,0
1,note_on,71,0,240
1,note_on,62,0,0
1,note_on,69,50,0
1,note_on,61,42,0
1,note_on,61,0,720
1,note_on,67,42,0
1,note_on,61,42,0
1,note_on,61,0,720
1,note_on,67,0,0
1,note_on,66,42,0
1,note_on,62,42,0
1,note_on,62,0,480
1,note_on,66,0,0
1,note_on,69,0,0
1,note_on,64,50,0
1,note_on,70,50,0
1,note_on,70,0,240
1,note_on,64,0,0
1,note_on,62,42,0
1,note_on,66,42,0
1,note_on,71,50,0
1,note_on,71,0,480
1,note_on,66,0,0
1,note_on,62,0,0
1,note_on,78,54,0
1,note_on,73,54,0
1,note_on,73,0,240
1,note_on,78,0,0
1,note_on,76,53,0
1,note_on,71,45,0
1,note_on,71,0,480
1,note_on,76,0,0
1,note_on,74,50,0
1,note_on,68,42,0
1,note_on,68,0,240
1,note_on,74,0,0
1,note_on,73,54,0
1,note_on,69,45,0
1,note_on,69,0,480
1,note_on,73,0,0
1,note_on,71,50,240
1,note_on,71,0,240
1,note_on,83,55,0
1,note_on,83,0,120
1,note_on,83,55,120
1,note_on,83,0,120
1,note_on,83,59,120
1,note_on,83,0,120
1,note_on,83,53,120
1,note_on,83,0,120
1,note_on,83,53,120
1,note_on,83,0,120
1,note_on,83,60,120
1,note_on,83,0,240
1,note_on,76,53,0
1,note_on,76,0,120
1,note_on,88,53,120
1,note_on,88,0,120
1,note_on,88,62,120
1,note_on,88,0,120
1,note_on,81,56,120
1,note_on,81,0,120
1,note_on,81,56,120
1,note_on,81,0,120
1,note_on,81,57,120
1,note_on,81,0,120
1,note_on,74,45,120
1,note_on,78,53,0
1,note_on,78,0,120
1,note_on,74,0,0
1,note_on,76,54,120
1,note_on,73,45,0
1,note_on,73,0,120
1,note_on,76,0,0
1,note_on,71,47,120
1,note_on,74,56,0
1,note_on,74,0,120
1,note_on,71,0,0
1,note_on,69,49,120
1,note_on,73,58,0
1,note_on,73,0,120
1,note_on,69,0,0
1,note_on,71,59,120
1,note_on,68,50,0
1,note_on,68,0,120
1,note_on,71,0,0
1,note_on,69,65,120
1,note_on,69,0,720
1,note_on,85,65,0
1,note_on,85,0,720
1,note_on,86,67,0
1,note_on,86,0,120
1,note_on,85,65,0
1,note_on,85,0,120
1,note_on,83,64,0
1,note_on,83,0,120
1,note_on,81,63,0
1,note_on,81,0,120
1,note_on,80,61,0
1,note_on,80,0,120
1,note_on,83,65,120
1,note_on,83,0,120
1,note_on,81,64,0
1,note_on,81,0,120
1,note_on,80,62,0
1,note_on,80,0,120
1,note_on,78,61,0
1,note_on,78,0,120
1,note_on,76,60,0
1,note_on,76,0,120
1,note_on,74,58,0
1,note_on,74,0,120
1,note_on,73,61,0
1,note_on,73,0,120
1,note_on,76,49,120
1,note_on,76,0,120
1,note_on,81,52,120
1,note_on,81,0,120
1,note_on,85,55,120
1,note_on,85,0,120
1,note_on,88,58,120
1,note_on,88,0,120
1,note_on,86,67,360
1,note_on,86,0,120
1,note_on,85,65,0
1,note_on,85,0,120
1,note_on,83,64,0
1,note_on,83,0,120
1,note_on,81,63,0
1,note_on,81,0,120
1,note_on,80,61,0
1,note_on,80,0,120
1,note_on,83,65,120
1,note_on,83,0,120
1,note_on,81,64,0
1,note_on,81,0,120
1,note_on,80,62,0
1,note_on,80,0,120
1,note_on,78,61,0
1,note_on,78,0,120
1,note_on,76,60,0
1,note_on,76,0,120
1,note_on,74,58,0
1,note_on,74,0,120
1,note_on,73,61,0
1,note_on,73,0,120
1,note_on,76,49,120
1,note_on,76,0,120
1,note_on,81,52,120
1,note_on,81,0,120
1,note_on,85,55,120
1,note_on,85,0,120
1,note_on,88,58,120
1,note_on,88,0,120
1,note_on,77,45,600
1,note_on,77,0,240
1,note_on,78,45,0
1,note_on,78,0,240
1,note_on,81,45,240
1,note_on,81,0,240
1,note_on,78,45,0
1,note_on,78,0,240
1,note_on,75,45,240
1,note_on,75,0,240
1,note_on,76,45,0
1,note_on,76,0,240
1,note_on,78,45,240
1,note_on,78,0,240
1,note_on,74,45,0
1,note_on,74,0,240
1,note_on,72,45,240
1,note_on,72,0,240
1,note_on,73,45,0
1,note_on,73,0,240
1,note_on,74,45,240
1,note_on,74,0,240
1,note_on,71,45,0
1,note_on,71,0,240
1,note_on,69,65,0
1,note_on,69,0,720
1,note_on,85,65,0
1,note_on,85,0,720
1,note_on,86,67,0
1,note_on,86,0,120
1,note_on,85,65,0
1,note_on,85,0,120
1,note_on,83,64,0
1,note_on,83,0,120
1,note_on,81,63,0
1,note_on,81,0,120
1,note_on,80,61,0
1,note_on,80,0,120
1,note_on,83,65,120
1,note_on,83,0,120
1,note_on,81,64,0
1,note_on,81,0,120
1,note_on,80,62,0
1,note_on,80,0,120
1,note_on,78,61,0
1,note_on,78,0,120
1,note_on,76,60,0
1,note_on,76,0,120
1,note_on,74,58,0
1,note_on,74,0,120
1,note_on,73,61,0
1,note_on,73,0,120
1,note_on,76,49,120
1,note_on,76,0,120
1,note_on,81,52,120
1,note_on,81,0,120
1,note_on,85,55,120
1,note_on,85,0,120
1,note_on,88,58,120
1,note_on,88,0,120
1,note_on,86,67,360
1,note_on,86,0,120
1,note_on,85,65,0
1,note_on,85,0,120
1,note_on,83,64,0
1,note_on,83,0,120
1,note_on,81,63,0
1,note_on,81,0,120
1,note_on,80,61,0
1,note_on,80,0,120
1,note_on,83,65,120
1,note_on,83,0,120
1,note_on,81,64,0
1,note_on,81,0,120
1,note_on,80,62,0
1,note_on,80,0,120
1,note_on,78,61,0
1,note_on,78,0,120
1,note_on,76,60,0
1,note_on,76,0,120
1,note_on,74,58,0
1,note_on,74,0,120
1,note_on,73,61,0
1,note_on,73,0,120
1,note_on,76,49,120
1,note_on,76,0,120
1,note_on,81,52,120
1,note_on,81,0,120
1,note_on,85,55,120
1,note_on,85,0,120
1,note_on,88,58,120
1,note_on,88,0,120
1,note_on,77,45,600
1,note_on,77,0,240
1,note_on,78,43,0
1,note_on,78,0,240
1,note_on,81,45,240
1,note_on,81,0,240
1,note_on,78,41,0
1,note_on,78,0,240
1,note_on,75,45,240
1,note_on,75,0,240
1,note_on,76,44,0
1,note_on,76,0,240
1,note_on,78,45,240
1,note_on,78,0,240
1,note_on,74,43,0
1,note_on,74,0,240
1,note_on,72,45,240
1,note_on,72,0,240
1,note_on,73,43,0
1,note_on,73,0,240
1,note_on,74,45,240
1,note_on,74,0,240
1,note_on,71,43,0
1,note_on,71,0,240
1,note_on,77,69,240
1,note_on,65,58,0
1,note_on,65,0,120
1,note_on,77,0,0
1,note_on,66,56,120
1,note_on,78,67,0
1,note_on,78,0,120
1,note_on,66,0,0
1,note_on,81,69,360
1,note_on,69,58,0
1,note_on,69,0,120
1,note_on,81,0,0
1,note_on,66,56,120
1,note_on,78,67,0
1,note_on,78,0,120
1,note_on,66,0,0
1,note_on,75,69,360
1,note_on,63,58,0
1,note_on,63,0,120
1,note_on,75,0,0
1,note_on,64,56,120
1,note_on,76,67,0
1,note_on,76,0,120
1,note_on,64,0,0
1,note_on,66,58,360
1,note_on,78,69,0
1,note_on,78,0,120
1,note_on,66,0,0
1,note_on,62,56,120
1,note_on,74,67,0
1,note_on,74,0,120
1,note_on,62,0,0
1,note_on,72,69,360
1,note_on,60,58,0
1,note_on,60,0,120
1,note_on,72,0,0
1,note_on,73,67,120
1,note_on,61,56,0
1,note_on,61,0,120
1,note_on,73,0,0
1,note_on,62,58,360
1,note_on,74,69,0
1,note_on,74,0,120
1,note_on,62,0,0
1,note_on,71,67,120
1,note_on,59,56,0
1,note_on,59,0,120
1,note_on,71,0,0
1,note_on,69,72,120
1,note_on,61,72,0
1,note_on,61,0,240
1,note_on,69,0,0
1,note_on,73,62,480
1,note_on,81,73,0
1,note_on,81,0,720
1,note_on,73,0,0
1,note_on,74,63,0
1,note_on,83,75,0
1,note_on,83,0,480
1,note_on,74,0,0
1,note_on,78,60,0
1,note_on,86,71,0
1,note_on,86,0,180
1,note_on,78,0,0
1,note_on,71,65,0
1,note_on,71,0,60
1,note_on,81,76,0
1,note_on,81,0,480
1,note_on,80,69,0
1,note_on,80,0,40
1,note_on,81,62,0
1,note_on,81,0,40
1,note_on,80,63,0
1,note_on,80,0,40
1,note_on,78,70,0
1,note_on,78,0,60
1,note_on,80,64,0
1,note_on,80,0,60
1,note_on,81,72,0
1,note_on,81,0,240
1,note_on,73,62,480
1,note_on,81,73,0
1,note_on,81,0,120
1,note_on,73,0,0
1,note_on,73,62,120
1,note_on,81,73,0
1,note_on,81,0,120
1,note_on,73,0,0
1,note_on,73,62,120
1,note_on,81,73,0
1,note_on,81,0,120
1,note_on,73,0,0
1,note_on,74,63,120
1,note_on,83,75,0
1,note_on,83,0,480
1,note_on,74,0,0
1,note_on,78,60,0
1,note_on,86,71,0
1,note_on,86,0,180
1,note_on,78,0,0
1,note_on,71,65,0
1,note_on,71,0,60
1,note_on,81,76,0
1,note_on,81,0,480
1,note_on,80,69,0
1,note_on,80,0,40
1,note_on,81,62,0
1,note_on,81,0,40
1,note_on,80,63,0
1,note_on,80,0,40
1,note_on,78,70,0
1,note_on,78,0,60
1,note_on,80,64,0
1,note_on,80,0,60
1,note_on,81,72,0
1,note_on,81,0,120
1,note_on,73,45,120
1,note_on,73,0,240
1,note_on,74,39,0
1,note_on,74,0,240
1,note_on,76,45,0
1,note_on,76,0,240
1,note_on,78,41,0
1,note_on,78,0,240
1,note_on,80,42,0
1,note_on,80,0,240
1,note_on,81,47,0
1,note_on,81,0,240
1,note_on,73,40,0
1,note_on,73,0,240
1,note_on,74,37,0
1,note_on,74,0,240
1,note_on,76,45,0
1,note_on,76,0,240
1,note_on,78,42,0
1,note_on,78,0,240
1,note_on,80,44,0
1,note_on,80,0,240
1,note_on,81,45,0
1,note_on,81,0,240
1,note_on,71,38,960
1,note_on,64,38,0
1,note_on,74,45,0
1,note_on,74,0,240
1,note_on,64,0,0
1,note_on,71,0,0
1,note_on,73,45,0
1,note_on,64,38,0
1,note_on,69,38,0
1,note_on,69,0,120
1,note_on,64,0,0
1,note_on,73,0,0
1,note_on,74,45,1080
1,note_on,71,38,0
1,note_on,64,38,0
1,note_on,64,0,120
1,note_on,71,0,0
1,note_on,74,0,0
1,note_on,72,43,360
1,note_on,72,0,240
1,note_on,73,40,0
1,note_on,73,0,240
1,note_on,73,46,240
1,note_on,73,0,240
1,note_on,74,45,0
1,note_on,74,0,240
1,note_on,75,65,240
1,note_on,75,0,240
1,note_on,76,61,0
1,note_on,76,0,240
1,note_on,77,74,240
1,note_on,77,0,240
1,note_on,78,70,0
1,note_on,78,0,240
1,note_on,78,77,240
1,note_on,78,0,240
1,note_on,79,75,0
1,note_on,79,0,240
1,note_on,69,42,1320
1,note_on,69,0,120
1,note_on,81,47,0
1,note_on,81,0,480
1,note_on,78,44,0
1,note_on,78,0,180
1,note_on,76,44,0
1,note_on,76,0,60
1,note_on,74,49,0
1,note_on,74,0,90
1,note_on,73,44,150
1,note_on,73,0,90
1,note_on,74,44,150
1,note_on,74,0,90
1,note_on,76,43,90
1,note_on,76,0,60
1,note_on,74,47,0
1,note_on,74,0,90
1,note_on,73,43,150
1,note_on,73,0,90
1,note_on,74,42,150
1,note_on,74,0,90
1,note_on,74,41,150
1,note_on,78,49,0
1,note_on,78,0,480
1,note_on,74,0,0
1,note_on,73,35,0
1,note_on,76,41,0
1,note_on,76,0,120
1,note_on,73,0,0
1,note_on,67,42,0
1,note_on,67,0,120
1,note_on,79,47,0
1,note_on,79,0,480
1,note_on,76,44,0
1,note_on,76,0,180
1,note_on,74,44,0
1,note_on,74,0,60
1,note_on,73,49,0
1,note_on,73,0,90
1,note_on,71,44,150
1,note_on,71,0,90
1,note_on,73,44,150
1,note_on,73,0,90
1,note_on,69,47,150
1,note_on,69,0,90
1,note_on,76,43,150
1,note_on,76,0,90
1,note_on,81,42,150
1,note_on,81,0,90
1,note_on,76,41,150
1,note_on,79,49,0
1,note_on,79,0,480
1,note_on,76,0,0
1,note_on,74,35,0
1,note_on,78,41,0
1,note_on,78,0,180
1,note_on,74,0,0
1,note_on,74,48,0
1,note_on,74,0,60
1,note_on,78,52,0
1,note_on,78,0,480
1,note_on,79,48,0
1,note_on,79,0,240
1,note_on,83,59,0
1,note_on,83,0,120
1,note_on,81,57,0
1,note_on,81,0,120
1,note_on,79,55,0
1,note_on,79,0,120
1,note_on,78,53,0
1,note_on,78,0,120
1,note_on,76,51,0
1,note_on,76,0,120
1,note_on,74,47,0
1,note_on,74,0,57
1,note_on,74,46,3
1,note_on,74,0,60
1,note_on,78,58,0
1,note_on,78,0,480
1,note_on,79,49,0
1,note_on,79,0,240
1,note_on,83,59,0
1,note_on,83,0,120
1,note_on,81,57,0
1,note_on,81,0,120
1,note_on,79,55,0
1,note_on,79,0,120
1,note_on,78,53,0
1,note_on,78,0,120
1,note_on,76,51,0
1,note_on,76,0,120
1,note_on,74,51,0
1,note_on,74,0,50
1,note_on,74,46,10
1,note_on,74,0,60
1,note_on,83,58,0
1,note_on,83,0,480
1,note_on,85,49,0
1,note_on,85,0,240
1,note_on,86,59,0
1,note_on,86,0,120
1,note_on,85,57,0
1,note_on,85,0,120
1,note_on,83,55,0
1,note_on,83,0,120
1,note_on,81,53,0
1,note_on,81,0,120
1,note_on,79,51,0
1,note_on,79,0,120
1,note_on,78,51,0
1,note_on,78,0,120
1,note_on,83,59,0
1,note_on,83,0,120
1,note_on,81,58,0
1,note_on,81,0,120
1,note_on,79,56,0
1,note_on,79,0,120
1,note_on,78,55,0
1,note_on,78,0,120
1,note_on,76,58,0
1,note_on,76,0,120
1,note_on,74,62,0
1,note_on,74,0,120
1,note_on,76,50,0
1,note_on,81,59,0
1,note_on,73,50,0
1,note_on,73,0,240
1,note_on,81,0,0
1,note_on,76,0,0
1,note_on,69,42,360
1,note_on,69,0,120
1,note_on,81,47,0
1,note_on,81,0,480
1,note_on,78,44,0
1,note_on,78,0,180
1,note_on,76,44,0
1,note_on,76,0,60
1,note_on,74,49,0
1,note_on,74,0,90
1,note_on,73,44,150
1,note_on,73,0,90
1,note_on,74,44,150
1,note_on,74,0,90
1,note_on,76,43,90
1,note_on,76,0,60
1,note_on,74,47,0
1,note_on,74,0,90
1,note_on,73,43,150
1,note_on,73,0,90
1,note_on,74,42,150
1,note_on,74,0,90
1,note_on,78,49,150
1,note_on,74,41,0
1,note_on,74,0,480
1,note_on,78,0,0
1,note_on,73,35,0
1,note_on,76,41,0
1,note_on,76,0,120
1,note_on,73,0,0
1,note_on,67,42,0
1,note_on,67,0,120
1,note_on,79,47,0
1,note_on,79,0,480
1,note_on,76,44,0
1,note_on,76,0,180
1,note_on,74,44,0
1,note_on,74,0,60
1,note_on,73,49,0
1,note_on,73,0,90
1,note_on,71,44,150
1,note_on,71,0,90
1,note_on,73,44,150
1,note_on,73,0,90
1,note_on,69,47,150
1,note_on,69,0,90
1,note_on,76,43,150
1,note_on,76,0,90
1,note_on,81,42,150
1,note_on,81,0,90
1,note_on,76,41,150
1,note_on,79,49,0
1,note_on,79,0,480
1,note_on,76,0,0
1,note_on,74,35,0
1,note_on,78,41,0
1,note_on,78,0,180
1,note_on,74,0,0
1,note_on,74,48,0
1,note_on,74,0,60
1,note_on,78,52,0
1,note_on,78,0,480
1,note_on,79,48,0
1,note_on,79,0,240
1,note_on,83,59,0
1,note_on,83,0,120
1,note_on,81,57,0
1,note_on,81,0,120
1,note_on,79,55,0
1,note_on,79,0,120
1,note_on,78,53,0
1,note_on,78,0,120
1,note_on,76,51,0
1,note_on,76,0,120
1,note_on,74,47,0
1,note_on,74,0,56
1,note_on,74,46,14
1,note_on,83,58,50
1,note_on,74,0,10
1,note_on,83,0,470
1,note_on,85,49,0
1,note_on,85,0,240
1,note_on,88,59,0
1,note_on,88,0,120
1,note_on,86,57,0
1,note_on,86,0,120
1,note_on,85,55,0
1,note_on,85,0,120
1,note_on,83,53,0
1,note_on,83,0,120
1,note_on,81,51,0
1,note_on,81,0,120
1,note_on,79,51,0
1,note_on,79,0,120
1,note_on,85,59,0
1,note_on,85,0,120
1,note_on,83,58,0
1,note_on,83,0,120
1,note_on,81,56,0
1,note_on,81,0,120
1,note_on,79,55,0
1,note_on,79,0,120
1,note_on,78,54,0
1,note_on,78,0,120
1,note_on,76,52,0
1,note_on,76,0,120
1,note_on,83,63,0
1,note_on,83,0,120
1,note_on,81,61,0
1,note_on,81,0,120
1,note_on,79,59,0
1,note_on,79,0,120
1,note_on,78,57,0
1,note_on,78,0,120
1,note_on,76,56,0
1,note_on,76,0,120
1,note_on,74,54,0
1,note_on,74,0,120
1,note_on,81,59,0
1,note_on,81,0,120
1,note_on,79,61,0
1,note_on,79,0,120
1,note_on,78,60,0
1,note_on,78,0,120
1,note_on,76,59,0
1,note_on,76,0,120
1,note_on,74,58,0
1,note_on,74,0,120
1,note_on,73,61,0
1,note_on,73,0,120
1,note_on,74,63,0
1,note_on,74,0,120
1,note_on,66,66,360
1,note_on,66,0,120
1,note_on,69,66,0
1,note_on,69,0,120
1,note_on,74,73,0
1,note_on,74,0,120
1,note_on,69,70,360
1,note_on,69,0,120
1,note_on,74,70,0
1,note_on,74,0,120
1,note_on,78,75,0
1,note_on,78,0,120
1,note_on,74,69,360
1,note_on,74,0,120
1,note_on,78,69,0
1,note_on,78,0,120
1,note_on,81,81,0
1,note_on,81,0,120
1,note_on,78,56,360
1,note_on,78,0,120
1,note_on,81,56,0
1,note_on,81,0,120
1,note_on,84,65,0
1,note_on,84,0,120
1,note_on,74,45,1320
1,note_on,74,0,600
1,note_on,76,42,0
1,note_on,76,0,120
1,note_on,67,47,0
1,note_on,67,0,480
1,note_on,66,47,28
1,note_on,67,55,212
1,note_on,66,0,28
1,note_on,67,0,152
1,note_on,79,54,60
1,note_on,79,0,120
1,note_on,78,52,120
1,note_on,78,0,120
1,note_on,76,50,120
1,note_on,76,0,120
1,note_on,74,49,120
1,note_on,74,0,120
1,note_on,73,47,120
1,note_on,73,0,120
1,note_on,74,45,120
1,note_on,74,0,300
1,note_on,76,35,0
1,note_on,76,0,60
1,note_on,74,35,0
1,note_on,74,0,60
1,note_on,73,35,0
1,note_on,73,0,60
1,note_on,74,45,0
1,note_on,74,0,120
1,note_on,76,42,0
1,note_on,76,0,120
1,note_on,67,47,0
1,note_on,67,0,480
1,note_on,66,47,28
1,note_on,67,55,212
1,note_on,66,0,28
1,note_on,67,0,152
1,note_on,79,54,60
1,note_on,79,0,120
1,note_on,78,52,120
1,note_on,78,0,120
1,note_on,76,50,120
1,note_on,76,0,120
1,note_on,74,49,120
1,note_on,74,0,120
1,note_on,73,47,120
1,note_on,73,0,120
1,note_on,74,45,120
1,note_on,74,0,300
1,note_on,76,35,0
1,note_on,76,0,60
1,note_on,74,35,0
1,note_on,74,0,60
1,note_on,73,35,0
1,note_on,73,0,60
1,note_on,74,45,0
1,note_on,74,0,120
1,note_on,76,42,0
1,note_on,76,0,120
1,note_on,67,47,0
1,note_on,67,0,480
1,note_on,66,47,0
1,note_on,66,0,240
1,note_on,67,52,0
1,note_on,67,0,240
1,note_on,64,29,480
1,note_on,59,29,0
1,note_on,67,35,0
1,note_on,67,0,720
1,note_on,59,0,0
1,note_on,64,0,0
1,note_on,64,32,0
1,note_on,69,38,0
1,note_on,67,32,0
1,note_on,67,0,720
1,note_on,69,0,0
1,note_on,64,0,0
1,note_on,66,33,0
1,note_on,69,33,0
1,note_on,74,39,0
1,note_on,74,0,720
1,note_on,69,0,0
1,note_on,66,0,0
1,note_on,62,29,0
1,note_on,71,35,0
1,note_on,67,29,0
1,note_on,67,0,240
1,note_on,71,0,0
1,note_on,62,0,0
1,note_on,64,52,480
1,note_on,55,43,0
1,note_on,60,43,0
1,note_on,60,0,720
1,note_on,55,0,0
1,note_on,64,0,0
1,note_on,66,57,0
1,note_on,60,48,0
1,note_on,64,48,0
1,note_on,64,0,720
1,note_on,60,0,0
1,note_on,66,0,0
1,note_on,66,49,0
1,note_on,63,49,0
1,note_on,71,58,0
1,note_on,71,0,720
1,note_on,63,0,0
1,note_on,66,0,0
1,note_on,64,43,0
1,note_on,67,52,0
1,note_on,59,43,0
1,note_on,59,0,240
1,note_on,67,0,0
1,note_on,64,0,0
1,note_on,59,29,480
1,note_on,54,29,0
1,note_on,62,35,0
1,note_on,62,0,720
1,note_on,54,0,0
1,note_on,59,0,0
1,note_on,64,38,0
1,note_on,59,32,0
1,note_on,62,32,0
1,note_on,62,0,720
1,note_on,59,0,0
1,note_on,64,0,0
1,note_on,61,33,0
1,note_on,64,33,0
1,note_on,69,39,0
1,note_on,69,0,720
1,note_on,64,0,0
1,note_on,61,0,0
1,note_on,66,35,0
1,note_on,57,29,0
1,note_on,62,29,0
1,note_on,62,0,240
1,note_on,57,0,0
1,note_on,66,0,0
1,note_on,73,52,480
1,note_on,64,43,0
1,note_on,67,43,0
1,note_on,67,0,720
1,note_on,64,0,0
1,note_on,73,0,0
1,note_on,62,48,0
1,note_on,74,57,0
1,note_on,66,48,0
1,note_on,66,0,720
1,note_on,74,0,0
1,note_on,62,0,0
1,note_on,77,60,0
1,note_on,71,51,0
1,note_on,71,0,720
1,note_on,77,0,0
1,note_on,70,45,0
1,note_on,78,54,0
1,note_on,73,45,0
1,note_on,73,0,240
1,note_on,78,0,0
1,note_on,70,0,0
1,note_on,78,52,1440
1,note_on,78,0,120
1,note_on,78,48,120
1,note_on,78,0,120
1,note_on,79,44,120
1,note_on,79,0,60
1,note_on,81,44,0
1,note_on,81,0,60
1,note_on,79,53,0
1,note_on,79,0,120
1,note_on,78,49,0
1,note_on,78,0,120
1,note_on,78,46,120
1,note_on,78,0,120
1,note_on,79,48,120
1,note_on,79,0,60
1,note_on,81,48,0
1,note_on,81,0,60
1,note_on,79,52,0
1,note_on,79,0,120
1,note_on,78,52,0
1,note_on,78,0,120
1,note_on,78,48,120
1,note_on,78,0,120
1,note_on,78,52,120
1,note_on,78,0,480
1,note_on,79,46,0
1,note_on,79,0,120
1,note_on,81,49,0
1,note_on,81,0,120
1,note_on,83,52,0
1,note_on,83,0,240
1,note_on,76,48,0
1,note_on,76,0,120
1,note_on,76,48,120
1,note_on,76,0,120
1,note_on,78,48,120
1,note_on,78,0,60
1,note_on,79,48,0
1,note_on,79,0,60
1,note_on,78,52,0
1,note_on,78,0,120
1,note_on,76,52,0
1,note_on,76,0,120
1,note_on,76,48,120
1,note_on,76,0,120
1,note_on,76,48,120
1,note_on,76,0,60
1,note_on,78,48,0
1,note_on,78,0,60
1,note_on,76,56,0
1,note_on,76,0,120
1,note_on,74,48,0
1,note_on,74,0,120
1,note_on,74,52,120
1,note_on,74,0,120
1,note_on,74,52,120
1,note_on,74,0,480
1,note_on,76,47,0
1,note_on,76,0,120
1,note_on,78,50,0
1,note_on,78,0,120
1,note_on,79,53,0
1,note_on,79,0,240
1,note_on,72,50,0
1,note_on,72,0,120
1,note_on,72,50,120
1,note_on,72,0,120
1,note_on,74,53,120
1,note_on,74,0,40
1,note_on,72,43,0
1,note_on,72,0,40
1,note_on,71,43,0
1,note_on,71,0,40
1,note_on,72,49,0
1,note_on,72,0,360
1,note_on,79,53,0
1,note_on,79,0,240
1,note_on,78,53,0
1,note_on,78,0,240
1,note_on,71,50,0
1,note_on,71,0,120
1,note_on,71,50,120
1,note_on,71,0,120
1,note_on,73,49,120
1,note_on,73,0,40
1,note_on,71,34,0
1,note_on,71,0,40
1,note_on,70,34,0
1,note_on,70,0,40
1,note_on,71,40,0
1,note_on,71,0,360
1,note_on,78,46,0
1,note_on,78,0,240
1,note_on,78,50,0
1,note_on,78,0,240
1,note_on,76,46,0
1,note_on,76,0,240
1,note_on,73,46,0
1,note_on,73,0,120
1,note_on,76,53,120
1,note_on,76,0,240
1,note_on,74,47,0
1,note_on,74,0,240
1,note_on,71,46,0
1,note_on,71,0,120
1,note_on,70,53,120
1,note_on,71,48,120
1,note_on,70,0,12
1,note_on,73,54,108
1,note_on,71,0,12
1,note_on,74,50,108
1,note_on,73,0,12
1,note_on,73,54,108
1,note_on,74,0,12
1,note_on,74,47,108
1,note_on,73,0,12
1,note_on,73,52,108
1,note_on,74,0,12
1,note_on,73,0,228
1,note_on,74,56,480
1,note_on,74,0,120
1,note_on,83,48,0
1,note_on,83,0,120
1,note_on,74,48,0
1,note_on,74,0,120
1,note_on,83,48,0
1,note_on,83,0,120
1,note_on,74,56,0
1,note_on,74,0,120
1,note_on,83,47,0
1,note_on,83,0,120
1,note_on,74,47,0
1,note_on,74,0,120
1,note_on,83,46,0
1,note_on,83,0,120
1,note_on,74,56,0
1,note_on,74,0,120
1,note_on,83,47,0
1,note_on,83,0,120
1,note_on,74,47,0
1,note_on,74,0,120
1,note_on,83,47,0
1,note_on,83,0,120
1,note_on,73,56,0
1,note_on,73,0,120
1,note_on,83,48,0
1,note_on,83,0,120
1,note_on,73,48,0
1,note_on,73,0,120
1,note_on,83,48,0
1,note_on,83,0,120
1,note_on,73,56,0
1,note_on,73,0,120
1,note_on,83,47,0
1,note_on,83,0,120
1,note_on,73,47,0
1,note_on,73,0,120
1,note_on,81,46,0
1,note_on,81,0,120
1,note_on,73,56,0
1,note_on,73,0,120
1,note_on,81,47,0
1,note_on,81,0,120
1,note_on,73,47,0
1,note_on,73,0,120
1,note_on,81,47,0
1,note_on,81,0,120
1,note_on,75,56,0
1,note_on,75,0,120
1,note_on,81,48,0
1,note_on,81,0,120
1,note_on,76,48,0
1,note_on,76,0,120
1,note_on,79,48,0
1,note_on,79,0,120
1,note_on,76,56,0
1,note_on,76,0,120
1,note_on,79,47,0
1,note_on,79,0,120
1,note_on,71,47,0
1,note_on,71,0,120
1,note_on,79,46,0
1,note_on,79,0,120
1,note_on,71,56,0
1,note_on,71,0,120
1,note_on,79,47,0
1,note_on,79,0,120
1,note_on,73,47,0
1,note_on,73,0,120
1,note_on,79,47,0
1,note_on,79,0,120
1,note_on,69,56,0
1,note_on,69,0,120
1,note_on,79,48,0
1,note_on,79,0,120
1,note_on,69,48,0
1,note_on,69,0,120
1,note_on,79,48,0
1,note_on,79,0,120
1,note_on,69,56,0
1,note_on,69,0,120
1,note_on,79,47,0
1,note_on,79,0,120
1,note_on,69,47,0
1,note_on,69,0,120
1,note_on,78,46,0
1,note_on,78,0,120
1,note_on,69,56,0
1,note_on,69,0,120
1,note_on,78,47,0
1,note_on,78,0,120
1,note_on,69,47,0
1,note_on,69,0,120
1,note_on,78,47,0
1,note_on,78,0,120
1,note_on,71,56,0
1,note_on,71,0,120
1,note_on,78,48,0
1,note_on,78,0,120
1,note_on,71,48,0
1,note_on,71,0,120
1,note_on,76,48,0
1,note_on,76,0,120
1,note_on,71,56,0
1,note_on,71,0,120
1,note_on,75,47,0
1,note_on,75,0,120
1,note_on,76,47,0
1,note_on,76,0,120
1,note_on,83,46,0
1,note_on,83,0,120
1,note_on,76,56,0
1,note_on,76,0,120
1,note_on,81,47,0
1,note_on,81,0,120
1,note_on,76,47,0
1,note_on,76,0,120
1,note_on,80,47,0
1,note_on,80,0,120
1,note_on,76,56,0
1,note_on,76,0,120
1,note_on,81,48,0
1,note_on,81,0,120
1,note_on,74,48,0
1,note_on,74,0,120
1,note_on,81,48,0
1,note_on,81,0,120
1,note_on,73,56,0
1,note_on,73,0,120
1,note_on,81,47,0
1,note_on,81,0,120
1,note_on,79,47,0
1,note_on,79,0,120
1,note_on,82,46,0
1,note_on,82,0,120
1,note_on,78,56,0
1,note_on,78,0,120
1,note_on,83,47,0
1,note_on,83,0,120
1,note_on,76,47,0
1,note_on,76,0,120
1,note_on,85,47,0
1,note_on,85,0,120
1,note_on,74,56,0
1,note_on,74,0,120
1,note_on,85,48,0
1,note_on,85,0,120
1,note_on,74,48,0
1,note_on,74,0,120
1,note_on,85,48,0
1,note_on,85,0,120
1,note_on,74,56,0
1,note_on,74,0,120
1,note_on,83,47,0
1,note_on,83,0,120
1,note_on,73,47,0
1,note_on,73,0,120
1,note_on,83,46,0
1,note_on,83,0,120
1,note_on,73,56,0
1,note_on,73,0,120
1,note_on,83,47,0
1,note_on,83,0,120
1,note_on,73,47,0
1,note_on,73,0,120
1,note_on,81,47,0
1,note_on,81,0,120
1,note_on,71,56,0
1,note_on,71,0,120
1,note_on,81,48,0
1,note_on,81,0,120
1,note_on,71,48,0
1,note_on,71,0,120
1,note_on,81,48,0
1,note_on,81,0,120
1,note_on,71,56,0
1,note_on,71,0,120
1,note_on,79,47,0
1,note_on,79,0,120
1,note_on,69,47,0
1,note_on,69,0,120
1,note_on,79,46,0
1,note_on,79,0,120
1,note_on,69,56,0
1,note_on,69,0,120
1,note_on,79,47,0
1,note_on,79,0,120
1,note_on,69,47,0
1,note_on,69,0,120
1,note_on,78,47,0
1,note_on,78,0,120
1,note_on,67,56,0
1,note_on,67,0,120
1,note_on,78,48,0
1,note_on,78,0,120
1,note_on,67,48,0
1,note_on,67,0,120
1,note_on,78,48,0
1,note_on,78,0,120
1,note_on,67,56,0
1,note_on,67,0,120
1,note_on,76,47,0
1,note_on,76,0,120
1,note_on,66,47,0
1,note_on,66,0,120
1,note_on,76,46,0
1,note_on,76,0,120
1,note_on,66,56,0
1,note_on,66,0,120
1,note_on,76,47,0
1,note_on,76,0,120
1,note_on,66,47,0
1,note_on,66,0,120
1,note_on,74,47,0
1,note_on,74,0,120
1,note_on,64,56,0
1,note_on,64,0,120
1,note_on,74,48,0
1,note_on,74,0,120
1,note_on,64,48,0
1,note_on,64,0,120
1,note_on,74,48,0
1,note_on,74,0,120
1,note_on,64,56,0
1,note_on,64,0,120
1,note_on,72,47,0
1,note_on,72,0,120
1,note_on,62,47,0
1,note_on,62,0,120
1,note_on,72,46,0
1,note_on,72,0,120
1,note_on,62,56,0
1,note_on,62,0,120
1,note_on,72,47,0
1,note_on,72,0,120
1,note_on,62,47,0
1,note_on,62,0,120
1,note_on,71,47,0
1,note_on,71,0,120
1,note_on,64,53,0
1,note_on,64,0,120
1,note_on,71,44,0
1,note_on,71,0,120
1,note_on,69,45,0
1,note_on,69,0,120
1,note_on,68,45,0
1,note_on,68,0,120
1,note_on,69,46,0
1,note_on,69,0,120
1,note_on,71,47,0
1,note_on,71,0,120
1,note_on,72,49,0
1,note_on,72,0,120
1,note_on,74,51,0
1,note_on,74,0,120
1,note_on,76,51,0
1,note_on,76,0,120
1,note_on,72,50,0
1,note_on,72,0,120
1,note_on,71,49,0
1,note_on,71,0,120
1,note_on,69,48,0
1,note_on,69,0,120
1,note_on,59,55,0
1,note_on,67,55,0
1,note_on,67,0,720
1,note_on,59,0,0
1,note_on,66,47,0
1,note_on,57,47,0
1,note_on,57,0,240
1,note_on,66,0,0
1,note_on,74,48,720
1,note_on,74,0,120
1,note_on,74,49,120
1,note_on,74,0,120
1,note_on,74,51,120
1,note_on,74,0,120
1,note_on,74,52,120
1,note_on,74,0,120
1,note_on,74,54,120
1,note_on,74,0,120
1,note_on,74,56,120
1,note_on,74,0,720
1,note_on,66,52,0
1,note_on,66,0,240
1,note_on,67,50,720
1,note_on,67,0,120
1,note_on,71,51,120
1,note_on,71,0,120
1,note_on,74,53,120
1,note_on,74,0,120
1,note_on,79,54,120
1,note_on,79,0,120
1,note_on,83,56,120
1,note_on,83,0,120
1,note_on,86,57,120
1,note_on,86,0,720
1,note_on,84,55,0
1,note_on,84,0,240
1,note_on,83,52,720
1,note_on,83,0,120
1,note_on,84,54,0
1,note_on,84,0,120
1,note_on,86,55,0
1,note_on,86,0,120
1,note_on,83,51,0
1,note_on,83,0,120
1,note_on,79,55,0
1,note_on,79,0,120
1,note_on,79,53,120
1,note_on,79,0,120
1,note_on,81,55,0
1,note_on,81,0,120
1,note_on,83,58,0
1,note_on,83,0,120
1,note_on,79,52,0
1,note_on,79,0,120
1,note_on,76,55,0
1,note_on,76,0,120
1,note_on,76,51,120
1,note_on,76,0,120
1,note_on,78,54,0
1,note_on,78,0,120
1,note_on,79,56,0
1,note_on,79,0,120
1,note_on,76,51,0
1,note_on,76,0,120
1,note_on,73,55,0
1,note_on,73,0,120
1,note_on,73,51,120
1,note_on,73,0,120
1,note_on,74,53,0
1,note_on,74,0,120
1,note_on,76,56,0
1,note_on,76,0,120
1,note_on,73,52,0
1,note_on,73,0,120
1,note_on,74,54,0
1,note_on,74,0,240
1,note_on,76,56,0
1,note_on,76,0,240
1,note_on,78,58,0
1,note_on,78,0,240
1,note_on,79,61,0
1,note_on,79,0,240
1,note_on,76,58,0
1,note_on,76,0,120
1,note_on,72,54,120
1,note_on,72,0,120
1,note_on,67,55,120
1,note_on,71,55,0
1,note_on,71,0,720
1,note_on,67,0,0
1,note_on,66,50,0
1,note_on,69,50,0
1,note_on,69,0,240
1,note_on,66,0,0
1,note_on,74,48,720
1,note_on,74,0,120
1,note_on,74,49,120
1,note_on,74,0,120
1,note_on,76,51,120
1,note_on,76,0,60
1,note_on,78,51,0
1,note_on,78,0,60
1,note_on,76,51,0
1,note_on,76,0,120
1,note_on,74,52,0
1,note_on,74,0,120
1,note_on,74,54,120
1,note_on,74,0,120
1,note_on,74,56,120
1,note_on,74,0,720
1,note_on,66,52,0
1,note_on,66,0,240
1,note_on,67,50,600
1,note_on,67,0,120
1,note_on,71,52,0
1,note_on,71,0,120
1,note_on,67,52,0
1,note_on,67,0,120
1,note_on,74,53,0
1,note_on,74,0,120
1,note_on,71,54,0
1,note_on,71,0,120
1,note_on,79,55,0
1,note_on,79,0,120
1,note_on,74,56,0
1,note_on,74,0,120
1,note_on,83,57,0
1,note_on,83,0,120
1,note_on,79,58,0
1,note_on,79,0,120
1,note_on,86,59,0
1,note_on,86,0,120
1,note_on,83,60,0
1,note_on,83,0,120
1,note_on,86,66,0
1,note_on,86,0,600
1,note_on,85,57,0
1,note_on,85,0,120
1,note_on,84,64,0
1,note_on,84,0,240
1,note_on,83,52,720
1,note_on,83,0,120
1,note_on,84,54,0
1,note_on,84,0,120
1,note_on,86,55,0
1,note_on,86,0,120
1,note_on,83,51,0
1,note_on,83,0,120
1,note_on,79,55,0
1,note_on,79,0,120
1,note_on,79,53,120
1,note_on,79,0,120
1,note_on,81,55,0
1,note_on,81,0,120
1,note_on,83,58,0
1,note_on,83,0,120
1,note_on,79,52,0
1,note_on,79,0,120
1,note_on,76,55,0
1,note_on,76,0,120
1,note_on,76,51,120
1,note_on,76,0,120
1,note_on,78,54,0
1,note_on,78,0,120
1,note_on,79,56,0
1,note_on,79,0,120
1,note_on,76,51,0
1,note_on,76,0,120
1,note_on,73,55,0
1,note_on,73,0,120
1,note_on,73,51,120
1,note_on,73,0,120
1,note_on,74,53,0
1,note_on,74,0,120
1,note_on,76,56,0
1,note_on,76,0,120
1,note_on,73,52,0
1,note_on,73,0,120
1,note_on,74,54,0
1,note_on,74,0,240
1,note_on,73,56,0
1,note_on,73,0,240
1,note_on,72,58,0
1,note_on,72,0,240
1,note_on,71,61,0
1,note_on,71,0,240
1,note_on,72,58,0
1,note_on,72,0,240
1,note_on,69,55,0
1,note_on,69,0,40
1,note_on,71,50,0
1,note_on,71,0,40
1,note_on,69,51,0
1,note_on,69,0,40
1,note_on,67,54,0
1,note_on,67,0,60
1,note_on,69,49,0
1,note_on,69,0,60
1,note_on,67,55,0
1,note_on,67,0,120
1,note_on,59,66,360
1,note_on,59,0,120
1,note_on,62,66,0
1,note_on,62,0,120
1,note_on,67,73,0
1,note_on,67,0,120
1,note_on,62,70,360
1,note_on,62,0,120
1,note_on,67,70,0
1,note_on,67,0,120
1,note_on,71,75,0
1,note_on,71,0,120
1,note_on,67,69,360
1,note_on,67,0,120
1,note_on,71,69,0
1,note_on,71,0,120
1,note_on,74,81,0
1,note_on,74,0,120
1,note_on,71,70,360
1,note_on,71,0,120
1,note_on,74,70,0
1,note_on,74,0,120
1,note_on,79,82,0
1,note_on,79,0,120
1,note_on,83,45,1320
1,note_on,83,0,600
1,note_on,84,42,0
1,note_on,84,0,120
1,note_on,76,47,0
1,note_on,76,0,480
1,note_on,75,47,0
1,note_on,75,0,240
1,note_on,76,55,0
1,note_on,76,0,180
1,note_on,88,54,60
1,note_on,88,0,120
1,note_on,86,52,120
1,note_on,86,0,120
1,note_on,84,50,120
1,note_on,84,0,120
1,note_on,83,49,120
1,note_on,83,0,120
1,note_on,82,47,120
1,note_on,82,0,120
1,note_on,83,45,120
1,note_on,83,0,300
1,note_on,84,35,0
1,note_on,84,0,60
1,note_on,83,35,0
1,note_on,83,0,60
1,note_on,82,35,0
1,note_on,82,0,60
1,note_on,83,45,0
1,note_on,83,0,120
1,note_on,84,42,0
1,note_on,84,0,120
1,note_on,76,47,0
1,note_on,76,0,480
1,note_on,75,47,28
1,note_on,76,55,212
1,note_on,75,0,28
1,note_on,76,0,152
1,note_on,88,54,60
1,note_on,88,0,120
1,note_on,86,52,120
1,note_on,86,0,120
1,note_on,84,50,120
1,note_on,84,0,120
1,note_on,83,49,120
1,note_on,83,0,120
1,note_on,82,47,120
1,note_on,82,0,120
1,note_on,81,45,120
1,note_on,81,0,300
1,note_on,83,35,0
1,note_on,83,0,60
1,note_on,81,35,0
1,note_on,81,0,60
1,note_on,80,35,0
1,note_on,80,0,60
1,note_on,81,45,0
1,note_on,81,0,120
1,note_on,83,42,0
1,note_on,83,0,120
1,note_on,74,47,0
1,note_on,74,0,480
1,note_on,73,47,28
1,note_on,74,55,212
1,note_on,73,0,28
1,note_on,74,0,152
1,note_on,86,54,60
1,note_on,86,0,120
1,note_on,85,52,120
1,note_on,85,0,120
1,note_on,83,50,120
1,note_on,83,0,120
1,note_on,81,49,120
1,note_on,81,0,120
1,note_on,80,47,120
1,note_on,80,0,120
1,note_on,81,45,120
1,note_on,81,0,300
1,note_on,83,35,0
1,note_on,83,0,60
1,note_on,81,35,0
1,note_on,81,0,60
1,note_on,80,35,0
1,note_on,80,0,60
1,note_on,81,45,0
1,note_on,81,0,120
1,note_on,83,42,0
1,note_on,83,0,120
1,note_on,74,47,0
1,note_on,74,0,480
1,note_on,73,47,28
1,note_on,74,55,212
1,note_on,73,0,28
1,note_on,74,0,152
1,note_on,78,54,60
1,note_on,78,0,120
1,note_on,76,52,120
1,note_on,76,0,120
1,note_on,74,50,120
1,note_on,74,0,120
1,note_on,73,49,120
1,note_on,73,0,120
1,note_on,71,47,120
1,note_on,71,0,120
1,note_on,76,45,120
1,note_on,76,0,300
1,note_on,78,35,0
1,note_on,78,0,60
1,note_on,76,35,0
1,note_on,76,0,60
1,note_on,75,35,0
1,note_on,75,0,60
1,note_on,76,45,0
1,note_on,76,0,120
1,note_on,78,42,0
1,note_on,78,0,120
1,note_on,69,47,0
1,note_on,69,0,480
1,note_on,68,47,0
1,note_on,68,0,240
1,note_on,69,55,0
1,note_on,69,0,180
1,note_on,81,54,60
1,note_on,81,0,120
1,note_on,80,52,120
1,note_on,80,0,120
1,note_on,78,50,120
1,note_on,78,0,120
1,note_on,76,49,120
1,note_on,76,0,120
1,note_on,75,47,120
1,note_on,75,0,120
1,note_on,76,45,120
1,note_on,76,0,300
1,note_on,78,35,0
1,note_on,78,0,60
1,note_on,76,35,0
1,note_on,76,0,60
1,note_on,75,35,0
1,note_on,75,0,60
1,note_on,76,45,0
1,note_on,76,0,120
1,note_on,78,42,0
1,note_on,78,0,120
1,note_on,69,47,0
1,note_on,69,0,480
1,note_on,68,47,0
1,note_on,68,0,240
1,note_on,69,36,0
1,note_on,69,0,120
1,note_on,64,28,0
1,note_on,64,0,120
1,note_on,61,28,0
1,note_on,61,0,120
1,note_on,64,28,0
1,note_on,64,0,120
1,note_on,69,28,0
1,note_on,69,0,120
1,note_on,64,28,0
1,note_on,64,0,120
1,note_on,69,36,0
1,note_on,69,0,120
1,note_on,64,27,0
1,note_on,64,0,120
1,note_on,61,27,0
1,note_on,61,0,120
1,note_on,64,27,0
1,note_on,64,0,120
1,note_on,69,28,0
1,note_on,69,0,120
1,note_on,64,28,0
1,note_on,64,0,120
1,note_on,71,38,0
1,note_on,71,0,120
1,note_on,64,30,0
1,note_on,64,0,120
1,note_on,62,31,0
1,note_on,62,0,120
1,note_on,64,32,0
1,note_on,64,0,120
1,note_on,71,33,0
1,note_on,71,0,120
1,note_on,64,35,0
1,note_on,64,0,120
1,note_on,71,46,0
1,note_on,71,0,120
1,note_on,64,35,0
1,note_on,64,0,120
1,note_on,62,36,0
1,note_on,62,0,120
1,note_on,64,36,0
1,note_on,64,0,120
1,note_on,71,38,0
1,note_on,71,0,120
1,note_on,64,39,0
1,note_on,64,0,120
1,note_on,73,52,0
1,note_on,73,0,120
1,note_on,67,41,0
1,note_on,67,0,120
1,note_on,64,42,0
1,note_on,64,0,120
1,note_on,67,44,0
1,note_on,67,0,120
1,note_on,73,45,0
1,note_on,73,0,120
1,note_on,64,45,0
1,note_on,64,0,120
1,note_on,74,60,0
1,note_on,74,0,120
1,note_on,69,49,0
1,note_on,69,0,120
1,note_on,66,50,0
1,note_on,66,0,120
1,note_on,69,51,0
1,note_on,69,0,120
1,note_on,74,53,0
1,note_on,74,0,120
1,note_on,69,54,0
1,note_on,69,0,120
1,note_on,76,69,0
1,note_on,76,0,120
1,note_on,73,58,0
1,note_on,73,0,120
1,note_on,69,59,0
1,note_on,69,0,120
1,note_on,73,61,0
1,note_on,73,0,120
1,note_on,76,63,0
1,note_on,76,0,120
1,note_on,73,65,0
1,note_on,73,0,120
1,note_on,78,77,0
1,note_on,78,0,120
1,note_on,74,66,0
1,note_on,74,0,120
1,note_on,69,68,0
1,note_on,69,0,120
1,note_on,74,70,0
1,note_on,74,0,120
1,note_on,78,72,0
1,note_on,78,0,120
1,note_on,74,73,0
1,note_on,74,0,120
1,note_on,79,75,0
1,note_on,76,63,0
1,note_on,69,63,0
1,note_on,73,63,0
1,note_on,73,0,1440
1,note_on,79,0,0
1,note_on,76,0,0
1,note_on,69,0,0
1,note_on,79,74,0
1,note_on,79,0,360
1,note_on,76,69,0
1,note_on,76,0,120
1,note_on,85,76,0
1,note_on,85,0,360
1,note_on,79,69,0
1,note_on,79,0,120
1,note_on,88,77,0
1,note_on,88,0,720
1,note_on,86,64,0
1,note_on,86,0,240
1,note_on,85,66,0
1,note_on,83,63,240
1,note_on,85,0,12
1,note_on,81,63,228
1,note_on,83,0,12
1,note_on,80,60,228
1,note_on,81,0,12
1,note_on,81,57,228
1,note_on,80,0,12
1,note_on,82,53,108
1,note_on,81,0,12
1,note_on,83,53,108
1,note_on,82,0,12
1,note_on,81,54,108
1,note_on,83,0,12
1,note_on,79,54,108
1,note_on,81,0,12
1,note_on,78,57,108
1,note_on,79,0,12
1,note_on,81,60,108
1,note_on,78,0,12
1,note_on,79,57,108
1,note_on,81,0,12
1,note_on,83,60,108
1,note_on,79,0,12
1,note_on,81,57,108
1,note_on,83,0,12
1,note_on,79,58,108
1,note_on,81,0,12
1,note_on,78,58,108
1,note_on,79,0,12
1,note_on,76,62,108
1,note_on,78,0,12
1,note_on,78,58,108
1,note_on,76,0,12
1,note_on,79,58,108
1,note_on,78,0,12
1,note_on,78,59,108
1,note_on,79,0,12
1,note_on,81,64,108
1,note_on,78,0,12
1,note_on,79,61,108
1,note_on,81,0,12
1,note_on,78,63,108
1,note_on,79,0,12
1,note_on,76,60,108
1,note_on,78,0,12
1,note_on,74,63,108
1,note_on,76,0,12
1,note_on,73,62,108
1,note_on,74,0,12
1,note_on,71,62,108
1,note_on,73,0,12
1,note_on,69,63,108
1,note_on,71,0,12
1,note_on,67,62,108
1,note_on,69,0,12
1,note_on,67,0,48
1,note_on,69,53,0
1,note_on,69,0,60
1,note_on,67,62,0
1,note_on,67,0,60
1,note_on,69,53,0
1,note_on,69,0,60
1,note_on,67,63,0
1,note_on,67,0,60
1,note_on,69,53,0
1,note_on,69,0,60
1,note_on,67,61,0
1,note_on,67,0,60
1,note_on,69,53,0
1,note_on,69,0,60
1,note_on,67,62,0
1,note_on,67,0,60
1,note_on,69,53,0
1,note_on,69,0,60
1,note_on,67,65,0
1,note_on,67,0,60
1,note_on,69,57,0
1,note_on,69,0,60
1,note_on,67,68,0
1,note_on,67,0,60
1,note_on,69,60,0
1,note_on,69,0,60
1,note_on,67,66,0
1,note_on,67,0,60
1,note_on,69,57,0
1,note_on,69,0,60
1,note_on,67,66,0
1,note_on,67,0,80
1,note_on,69,60,0
1,note_on,69,0,80
1,note_on,67,68,0
1,note_on,67,0,80
1,note_on,66,59,0
1,note_on,66,0,120
1,note_on,67,63,0
1,note_on,67,0,120
1,note_on,68,64,0
1,note_on,68,0,60
1,note_on,69,64,0
1,note_on,69,0,60
1,note_on,70,63,0
1,note_on,70,0,60
1,note_on,71,62,0
1,note_on,71,0,60
1,note_on,72,61,0
1,note_on,72,0,60
1,note_on,73,60,0
1,note_on,73,0,60
1,note_on,74,59,0
1,note_on,74,0,60
1,note_on,75,58,0
1,note_on,75,0,60
1,note_on,76,57,0
1,note_on,76,0,60
1,note_on,77,56,0
1,note_on,77,0,60
1,note_on,78,55,0
1,note_on,78,0,60
1,note_on,79,54,0
1,note_on,79,0,60
1,note_on,80,53,0
1,note_on,80,0,80
1,note_on,81,53,0
1,note_on,81,0,80
1,note_on,82,52,0
1,note_on,82,0,80
1,note_on,83,50,0
1,note_on,83,0,240
1,note_on,81,56,240
1,note_on,81,0,60
1,note_on,79,51,0
1,note_on,79,0,180
1,note_on,78,53,240
1,note_on,78,0,60
1,note_on,76,47,0
1,note_on,76,0,180
1,note_on,78,53,240
1,note_on,78,0,120
1,note_on,79,43,0
1,note_on,79,0,30
1,note_on,78,43,0
1,note_on,78,0,30
1,note_on,76,43,0
1,note_on,76,0,30
1,note_on,78,43,0
1,note_on,78,0,30
1,note_on,81,55,0
1,note_on,81,0,180
1,note_on,79,50,0
1,note_on,79,0,57
1,note_on,79,54,3
1,note_on,79,0,120
1,note_on,81,41,0
1,note_on,81,0,30
1,note_on,79,41,0
1,note_on,79,0,30
1,note_on,78,41,0
1,note_on,78,0,30
1,note_on,79,41,0
1,note_on,79,0,30
1,note_on,80,53,0
1,note_on,80,0,240
1,note_on,83,50,0
1,note_on,83,0,240
1,note_on,81,41,0
1,note_on,81,0,120
1,note_on,69,40,0
1,note_on,69,0,120
1,note_on,81,45,0
1,note_on,81,0,480
1,note_on,78,42,0
1,note_on,78,0,180
1,note_on,76,42,0
1,note_on,76,0,60
1,note_on,74,46,0
1,note_on,74,0,90
1,note_on,73,42,150
1,note_on,73,0,90
1,note_on,74,42,150
1,note_on,74,0,90
1,note_on,76,41,90
1,note_on,76,0,60
1,note_on,74,45,0
1,note_on,74,0,90
1,note_on,73,41,150
1,note_on,73,0,90
1,note_on,74,40,150
1,note_on,74,0,90
1,note_on,74,39,150
1,note_on,78,46,0
1,note_on,78,0,480
1,note_on,74,0,0
1,note_on,73,33,0
1,note_on,76,39,0
1,note_on,76,0,120
1,note_on,73,0,0
1,note_on,67,40,0
1,note_on,67,0,120
1,note_on,79,45,0
1,note_on,79,0,480
1,note_on,76,42,0
1,note_on,76,0,180
1,note_on,74,42,0
1,note_on,74,0,60
1,note_on,73,46,0
1,note_on,73,0,90
1,note_on,71,42,150
1,note_on,71,0,90
1,note_on,73,42,150
1,note_on,73,0,90
1,note_on,69,45,150
1,note_on,69,0,90
1,note_on,76,41,150
1,note_on,76,0,90
1,note_on,81,40,150
1,note_on,81,0,90
1,note_on,79,46,150
1,note_on,76,39,0
1,note_on,76,0,480
1,note_on,79,0,0
1,note_on,74,33,0
1,note_on,78,39,0
1,note_on,74,0,177
1,note_on,78,0,3
1,note_on,74,48,0
1,note_on,74,0,60
1,note_on,78,52,0
1,note_on,78,0,480
1,note_on,79,48,0
1,note_on,79,0,240
1,note_on,83,59,0
1,note_on,83,0,120
1,note_on,81,57,0
1,note_on,81,0,120
1,note_on,79,55,0
1,note_on,79,0,120
1,note_on,78,53,0
1,note_on,78,0,120
1,note_on,76,51,0
1,note_on,76,0,120
1,note_on,74,47,0
1,note_on,74,0,57
1,note_on,74,46,3
1,note_on,74,0,60
1,note_on,78,58,0
1,note_on,78,0,480
1,note_on,79,49,0
1,note_on,79,0,240
1,note_on,83,59,0
1,note_on,83,0,120
1,note_on,81,57,0
1,note_on,81,0,120
1,note_on,79,55,0
1,note_on,79,0,120
1,note_on,78,53,0
1,note_on,78,0,120
1,note_on,76,51,0
1,note_on,76,0,120
1,note_on,74,51,0
1,note_on,74,0,50
1,note_on,74,46,10
1,note_on,74,0,60
1,note_on,83,58,0
1,note_on,83,0,480
1,note_on,85,49,0
1,note_on,85,0,240
1,note_on,86,59,0
1,note_on,86,0,120
1,note_on,85,57,0
1,note_on,85,0,120
1,note_on,83,55,0
1,note_on,83,0,120
1,note_on,81,53,0
1,note_on,81,0,120
1,note_on,79,51,0
1,note_on,79,0,120
1,note_on,78,51,0
1,note_on,78,0,120
1,note_on,83,59,0
1,note_on,83,0,120
1,note_on,81,58,0
1,note_on,81,0,120
1,note_on,79,56,0
1,note_on,79,0,120
1,note_on,78,55,0
1,note_on,78,0,120
1,note_on,76,58,0
1,note_on,76,0,120
1,note_on,74,62,0
1,note_on,74,0,120
1,note_on,81,59,0
1,note_on,76,50,0
1,note_on,73,50,0
1,note_on,73,0,240
1,note_on,76,0,0
1,note_on,81,0,0
1,note_on,57,40,360
1,note_on,57,0,120
1,note_on,69,45,0
1,note_on,69,0,480
1,note_on,66,42,0
1,note_on,66,0,180
1,note_on,64,42,0
1,note_on,64,0,60
1,note_on,62,46,0
1,note_on,62,0,90
1,note_on,61,42,150
1,note_on,61,0,90
1,note_on,62,42,150
1,note_on,62,0,90
1,note_on,64,41,90
1,note_on,64,0,60
1,note_on,62,45,0
1,note_on,62,0,90
1,note_on,61,41,150
1,note_on,61,0,90
1,note_on,62,40,150
1,note_on,62,0,90
1,note_on,62,39,150
1,note_on,66,46,0
1,note_on,66,0,480
1,note_on,62,0,0
1,note_on,61,33,0
1,note_on,64,39,0
1,note_on,64,0,120
1,note_on,61,0,0
1,note_on,55,40,0
1,note_on,55,0,120
1,note_on,67,45,0
1,note_on,67,0,480
1,note_on,64,42,0
1,note_on,64,0,180
1,note_on,62,42,0
1,note_on,62,0,60
1,note_on,61,46,0
1,note_on,61,0,90
1,note_on,59,42,150
1,note_on,59,0,90
1,note_on,61,42,150
1,note_on,61,0,90
1,note_on,57,45,150
1,note_on,57,0,90
1,note_on,64,41,150
1,note_on,64,0,90
1,note_on,69,40,150
1,note_on,69,0,90
1,note_on,67,46,150
1,note_on,64,39,0
1,note_on,64,0,480
1,note_on,67,0,0
1,note_on,62,33,0
1,note_on,66,39,0
1,note_on,66,0,180
1,note_on,62,0,0
1,note_on,74,48,0
1,note_on,74,0,60
1,note_on,78,52,0
1,note_on,78,0,480
1,note_on,79,48,0
1,note_on,79,0,240
1,note_on,83,59,0
1,note_on,83,0,120
1,note_on,81,57,0
1,note_on,81,0,120
1,note_on,79,55,0
1,note_on,79,0,120
1,note_on,78,53,0
1,note_on,78,0,120
1,note_on,76,51,0
1,note_on,76,0,120
1,note_on,74,47,0
1,note_on,74,0,60
1,note_on,79,46,0
1,note_on,79,0,60
1,note_on,83,58,0
1,note_on,83,0,480
1,note_on,85,49,0
1,note_on,85,0,240
1,note_on,88,59,0
1,note_on,88,0,120
1,note_on,86,57,0
1,note_on,86,0,120
1,note_on,85,55,0
1,note_on,85,0,120
1,note_on,83,53,0
1,note_on,83,0,120
1,note_on,81,51,0
1,note_on,81,0,120
1,note_on,79,51,0
1,note_on,79,0,120
1,note_on,85,59,0
1,note_on,85,0,120
1,note_on,83,58,0
1,note_on,83,0,120
1,note_on,81,56,0
1,note_on,81,0,120
1,note_on,79,55,0
1,note_on,79,0,120
1,note_on,78,54,0
1,note_on,78,0,120
1,note_on,76,52,0
1,note_on,76,0,120
1,note_on,83,63,0
1,note_on,83,0,120
1,note_on,81,61,0
1,note_on,81,0,120
1,note_on,79,59,0
1,note_on,79,0,120
1,note_on,78,57,0
1,note_on,78,0,120
1,note_on,76,56,0
1,note_on,76,0,120
1,note_on,74,54,0
1,note_on,74,0,120
1,note_on,81,59,0
1,note_on,81,0,120
1,note_on,79,61,0
1,note_on,79,0,120
1,note_on,78,60,0
1,note_on,78,0,120
1,note_on,76,59,0
1,note_on,76,0,120
1,note_on,74,58,0
1,note_on,74,0,120
1,note_on,73,61,0
1,note_on,73,0,120
1,note_on,74,63,0
1,note_on,74,0,120
1,note_on,62,61,840
1,note_on,62,0,90
1,note_on,62,62,150
1,note_on,62,0,90
1,note_on,64,40,30
1,note_on,64,0,40
1,note_on,62,40,0
1,note_on,62,0,40
1,note_on,61,40,1
1,note_on,62,69,39
1,note_on,61,0,1
1,note_on,62,0,479
1,note_on,62,60,0
1,note_on,62,0,90
1,note_on,64,40,30
1,note_on,64,0,40
1,note_on,62,40,0
1,note_on,62,0,40
1,note_on,61,40,1
1,note_on,62,64,39
1,note_on,61,0,1
1,note_on,62,0,479
1,note_on,62,59,0
1,note_on,62,0,90
1,note_on,60,66,150
1,note_on,60,0,480
1,note_on,69,54,120
1,note_on,69,0,120
1,note_on,81,63,0
1,note_on,81,0,960
1,note_on,84,45,0
1,note_on,84,0,90
1,note_on,83,43,150
1,note_on,83,0,90
1,note_on,81,41,150
1,note_on,81,0,90
1,note_on,79,39,150
1,note_on,79,0,90
1,note_on,78,37,150
1,note_on,78,0,90
1,note_on,81,35,150
1,note_on,81,0,720
1,note_on,79,35,0
1,note_on,79,0,240
1,note_on,59,61,0
1,note_on,59,0,90
1,note_on,59,62,150
1,note_on,59,0,90
1,note_on,59,40,30
1,note_on,59,0,40
1,note_on,57,40,0
1,note_on,57,0,40
1,note_on,56,40,0
1,note_on,56,0,40
1,note_on,57,69,0
1,note_on,57,0,480
1,note_on,57,60,0
1,note_on,57,0,90
1,note_on,57,40,30
1,note_on,57,0,40
1,note_on,55,40,0
1,note_on,55,0,40
1,note_on,54,40,0
1,note_on,54,0,40
1,note_on,55,64,0
1,note_on,55,0,480
1,note_on,55,59,0
1,note_on,55,0,90
1,note_on,54,66,150
1,note_on,54,0,480
1,note_on,74,54,120
1,note_on,74,0,120
1,note_on,84,63,0
1,note_on,84,0,840
1,note_on,83,53,0
1,note_on,83,0,120
1,note_on,81,53,0
1,note_on,81,0,120
1,note_on,79,52,0
1,note_on,79,0,120
1,note_on,78,51,0
1,note_on,78,0,120
1,note_on,76,51,0
1,note_on,76,0,120
1,note_on,74,54,0
1,note_on,74,0,120
1,note_on,76,49,0
1,note_on,76,0,120
1,note_on,74,50,0
1,note_on,74,0,120
1,note_on,72,49,0
1,note_on,72,0,120
1,note_on,71,48,0
1,note_on,71,0,120
1,note_on,69,47,0
1,note_on,69,0,120
1,note_on,71,47,0
1,note_on,71,0,120
1,note_on,74,47,0
1,note_on,74,0,120
1,note_on,76,48,0
1,note_on,76,0,120
1,note_on,78,50,0
1,note_on,78,0,120
1,note_on,79,52,0
1,note_on,79,0,120
1,note_on,81,53,0
1,note_on,81,0,120
1,note_on,83,55,0
1,note_on,83,0,120
1,note_on,84,57,0
1,note_on,84,0,120
1,note_on,86,61,0
1,note_on,86,0,120
1,note_on,83,57,0
1,note_on,83,0,120
1,note_on,81,57,0
1,note_on,81,0,120
1,note_on,79,53,0
1,note_on,79,0,120
1,note_on,84,62,0
1,note_on,84,0,120
1,note_on,83,60,0
1,note_on,83,0,120
1,note_on,81,58,0
1,note_on,81,0,120
1,note_on,79,57,0
1,note_on,79,0,120
1,note_on,78,55,0
1,note_on,78,0,120
1,note_on,76,53,0
1,note_on,76,0,120
1,note_on,74,59,0
1,note_on,74,0,120
1,note_on,76,58,0
1,note_on,76,0,120
1,note_on,74,56,0
1,note_on,74,0,120
1,note_on,72,55,0
1,note_on,72,0,120
1,note_on,71,53,0
1,note_on,71,0,120
1,note_on,69,52,0
1,note_on,69,0,120
1,note_on,71,48,0
1,note_on,71,0,120
1,note_on,74,50,0
1,note_on,74,0,120
1,note_on,76,51,0
1,note_on,76,0,120
1,note_on,78,52,0
1,note_on,78,0,120
1,note_on,79,54,0
1,note_on,79,0,120
1,note_on,81,55,0
1,note_on,81,0,120
1,note_on,83,56,0
1,note_on,83,0,120
1,note_on,84,58,0
1,note_on,84,0,120
1,note_on,86,60,0
1,note_on,86,0,120
1,note_on,83,52,0
1,note_on,83,0,120
1,note_on,81,51,0
1,note_on,81,0,120
1,note_on,79,47,0
1,note_on,79,0,120
1,note_on,81,53,0
1,note_on,81,0,120
1,note_on,79,51,0
1,note_on,79,0,120
1,note_on,78,51,0
1,note_on,78,0,120
1,note_on,76,50,0
1,note_on,76,0,120
1,note_on,75,49,0
1,note_on,75,0,120
1,note_on,72,48,0
1,note_on,72,0,120
1,note_on,71,52,0
1,note_on,71,0,120
1,note_on,72,52,0
1,note_on,72,0,120
1,note_on,71,51,0
1,note_on,71,0,120
1,note_on,69,51,0
1,note_on,69,0,120
1,note_on,67,50,0
1,note_on,67,0,120
1,note_on,66,50,0
1,note_on,66,0,120
1,note_on,67,56,0
1,note_on,67,0,120
1,note_on,71,50,0
1,note_on,71,0,120
1,note_on,73,52,0
1,note_on,73,0,120
1,note_on,75,53,0
1,note_on,75,0,120
1,note_on,76,55,0
1,note_on,76,0,120
1,note_on,78,57,0
1,note_on,78,0,120
1,note_on,79,62,0
1,note_on,79,0,120
1,note_on,81,57,0
1,note_on,81,0,120
1,note_on,83,56,0
1,note_on,83,0,120
1,note_on,79,54,0
1,note_on,79,0,120
1,note_on,78,53,0
1,note_on,78,0,120
1,note_on,76,52,0
1,note_on,76,0,120
1,note_on,79,63,0
1,note_on,79,0,120
1,note_on,78,61,0
1,note_on,78,0,120
1,note_on,76,59,0
1,note_on,76,0,120
1,note_on,74,58,0
1,note_on,74,0,120
1,note_on,73,56,0
1,note_on,73,0,120
1,note_on,71,54,0
1,note_on,71,0,120
1,note_on,69,60,0
1,note_on,69,0,120
1,note_on,71,58,0
1,note_on,71,0,120
1,note_on,69,56,0
1,note_on,69,0,120
1,note_on,67,55,0
1,note_on,67,0,120
1,note_on,66,54,0
1,note_on,66,0,120
1,note_on,64,52,0
1,note_on,64,0,120
1,note_on,66,56,0
1,note_on,66,0,120
1,note_on,69,50,0
1,note_on,69,0,120
1,note_on,71,52,0
1,note_on,71,0,120
1,note_on,73,53,0
1,note_on,73,0,120
1,note_on,74,55,0
1,note_on,74,0,120
1,note_on,76,57,0
1,note_on,76,0,120
1,note_on,78,62,0
1,note_on,78,0,120
1,note_on,79,57,0
1,note_on,79,0,120
1,note_on,81,56,0
1,note_on,81,0,120
1,note_on,83,54,0
1,note_on,83,0,120
1,note_on,85,53,0
1,note_on,85,0,120
1,note_on,86,52,0
1,note_on,86,0,120
1,note_on,83,60,0
1,note_on,83,0,120
1,note_on,81,59,0
1,note_on,81,0,120
1,note_on,79,57,0
1,note_on,79,0,120
1,note_on,78,56,0
1,note_on,78,0,120
1,note_on,76,55,0
1,note_on,76,0,120
1,note_on,74,53,0
1,note_on,74,0,120
1,note_on,79,52,0
1,note_on,79,0,120
1,note_on,78,54,0
1,note_on,78,0,120
1,note_on,76,57,0
1,note_on,76,0,120
1,note_on,74,60,0
1,note_on,74,0,120
1,note_on,73,64,0
1,note_on,73,0,120
1,note_on,71,67,0
1,note_on,71,0,120
1,note_on,69,70,0
1,note_on,69,0,90
1,note_on,76,52,150
1,note_on,73,52,0
1,note_on,81,62,0
1,note_on,81,0,90
1,note_on,73,0,0
1,note_on,76,0,0
1,note_on,73,52,150
1,note_on,76,52,0
1,note_on,81,62,0
1,note_on,81,0,90
1,note_on,76,0,0
1,note_on,73,0,0
1,note_on,76,56,150
1,note_on,81,67,0
1,note_on,73,56,0
1,note_on,73,0,90
1,note_on,81,0,0
1,note_on,76,0,0
1,note_on,69,42,630
1,note_on,78,50,0
1,note_on,78,0,720
1,note_on,69,0,0
1,note_on,67,39,0
1,note_on,76,47,0
1,note_on,76,0,240
1,note_on,78,44,0
1,note_on,78,0,240
1,note_on,76,44,0
1,note_on,76,0,240
1,note_on,67,0,0
1,note_on,66,42,0
1,note_on,74,50,0
1,note_on,74,0,1920
1,note_on,66,0,0
1,note_on,78,50,0
1,note_on,78,0,240
1,note_on,79,50,0
1,note_on,74,42,0
1,note_on,79,0,480
1,note_on,83,54,0
1,note_on,83,0,240
1,note_on,74,0,0
1,note_on,73,45,0
1,note_on,81,53,0
1,note_on,73,0,240
1,note_on,74,50,0
1,note_on,74,0,240
1,note_on,81,0,0
1,note_on,79,50,0
1,note_on,76,42,0
1,note_on,76,0,240
1,note_on,79,0,0
1,note_on,78,54,0
1,note_on,74,45,0
1,note_on,74,0,480
1,note_on,78,0,0
1,note_on,76,50,240
1,note_on,76,0,960
1,note_on,78,44,0
1,note_on,78,0,240
1,note_on,76,44,0
1,note_on,76,0,240
1,note_on,76,50,0
1,note_on,76,0,960
1,note_on,78,45,0
1,note_on,78,0,240
1,note_on,79,46,0
1,note_on,79,0,240
1,note_on,81,52,0
1,note_on,81,0,240
1,note_on,86,49,0
1,note_on,86,0,180
1,note_on,85,48,60
1,note_on,85,0,180
1,note_on,83,49,60
1,note_on,83,0,180
1,note_on,81,48,60
1,note_on,81,0,180
1,note_on,79,46,60
1,note_on,79,0,180
1,note_on,78,45,60
1,note_on,78,0,480
1,note_on,79,42,0
1,note_on,79,0,120
1,note_on,78,43,0
1,note_on,78,0,120
1,note_on,76,37,0
1,note_on,76,0,240
1,note_on,69,42,480
1,note_on,78,50,0
1,note_on,78,0,720
1,note_on,69,0,0
1,note_on,76,47,0
1,note_on,67,39,0
1,note_on,76,0,240
1,note_on,78,44,0
1,note_on,78,0,240
1,note_on,76,44,0
1,note_on,76,0,240
1,note_on,67,0,0
1,note_on,66,42,0
1,note_on,74,50,0
1,note_on,66,0,720
1,note_on,66,42,0
1,note_on,72,42,0
1,note_on,72,0,720
1,note_on,66,0,0
1,note_on,71,42,0
1,note_on,67,42,0
1,note_on,67,0,480
1,note_on,71,0,0
1,note_on,74,0,0
1,note_on,75,50,0
1,note_on,69,50,0
1,note_on,71,50,0
1,note_on,71,0,240
1,note_on,69,0,0
1,note_on,75,0,0
1,note_on,76,50,0
1,note_on,67,42,0
1,note_on,71,42,0
1,note_on,71,0,480
1,note_on,67,0,0
1,note_on,76,0,0
1,note_on,78,54,0
1,note_on,83,54,0
1,note_on,83,0,240
1,note_on,78,0,0
1,note_on,76,45,0
1,note_on,81,53,0
1,note_on,81,0,480
1,note_on,76,0,0
1,note_on,73,42,0
1,note_on,79,50,0
1,note_on,79,0,240
1,note_on,73,0,0
1,note_on,78,54,0
1,note_on,74,45,0
1,note_on,74,0,480
1,note_on,78,0,0
1,note_on,76,50,240
1,note_on,76,0,240
1,note_on,88,55,0
1,note_on,88,0,120
1,note_on,88,55,120
1,note_on,88,0,120
1,note_on,88,59,120
1,note_on,88,0,120
1,note_on,88,53,120
1,note_on,88,0,120
1,note_on,88,53,120
1,note_on,88,0,120
1,note_on,88,60,120
1,note_on,88,0,240
1,note_on,81,53,0
1,note_on,81,0,120
1,note_on,81,53,120
1,note_on,81,0,120
1,note_on,81,62,120
1,note_on,81,0,120
1,note_on,86,56,120
1,note_on,86,0,120
1,note_on,86,56,120
1,note_on,86,0,120
1,note_on,86,57,120
1,note_on,86,0,120
1,note_on,83,53,120
1,note_on,79,45,0
1,note_on,79,0,120
1,note_on,83,0,0
1,note_on,78,45,120
1,note_on,81,54,0
1,note_on,81,0,120
1,note_on,78,0,0
1,note_on,76,47,120
1,note_on,79,56,0
1,note_on,79,0,120
1,note_on,76,0,0
1,note_on,74,49,120
1,note_on,78,58,0
1,note_on,78,0,120
1,note_on,74,0,0
1,note_on,73,50,120
1,note_on,76,59,0
1,note_on,76,0,120
1,note_on,73,0,0
1,note_on,74,65,120
1,note_on,74,0,720
1,note_on,78,65,0
1,note_on,78,0,720
1,note_on,79,67,0
1,note_on,79,0,120
1,note_on,78,65,0
1,note_on,78,0,120
1,note_on,76,64,0
1,note_on,76,0,120
1,note_on,74,63,0
1,note_on,74,0,120
1,note_on,73,61,0
1,note_on,73,0,120
1,note_on,76,65,120
1,note_on,76,0,120
1,note_on,74,64,0
1,note_on,74,0,120
1,note_on,73,62,0
1,note_on,73,0,120
1,note_on,71,61,0
1,note_on,71,0,120
1,note_on,69,60,0
1,note_on,69,0,120
1,note_on,67,58,0
1,note_on,67,0,120
1,note_on,66,61,0
1,note_on,66,0,120
1,note_on,69,49,120
1,note_on,69,0,120
1,note_on,74,52,120
1,note_on,74,0,120
1,note_on,78,55,120
1,note_on,78,0,120
1,note_on,81,58,120
1,note_on,81,0,120
1,note_on,79,67,360
1,note_on,79,0,120
1,note_on,78,65,0
1,note_on,78,0,120
1,note_on,76,64,0
1,note_on,76,0,120
1,note_on,74,63,0
1,note_on,74,0,120
1,note_on,73,61,0
1,note_on,73,0,120
1,note_on,76,65,120
1,note_on,76,0,120
1,note_on,74,64,0
1,note_on,74,0,120
1,note_on,73,62,0
1,note_on,73,0,120
1,note_on,71,61,0
1,note_on,71,0,120
1,note_on,69,60,0
1,note_on,69,0,120
1,note_on,67,58,0
1,note_on,67,0,120
1,note_on,66,61,0
1,note_on,66,0,120
1,note_on,69,49,120
1,note_on,69,0,120
1,note_on,74,52,120
1,note_on,74,0,120
1,note_on,78,55,120
1,note_on,78,0,120
1,note_on,81,58,120
1,note_on,81,0,120
1,note_on,82,45,600
1,note_on,82,0,240
1,note_on,83,45,0
1,note_on,83,0,240
1,note_on,86,45,240
1,note_on,86,0,240
1,note_on,83,45,0
1,note_on,83,0,240
1,note_on,80,45,240
1,note_on,80,0,240
1,note_on,81,45,0
1,note_on,81,0,240
1,note_on,83,45,240
1,note_on,83,0,240
1,note_on,79,45,0
1,note_on,79,0,240
1,note_on,77,45,240
1,note_on,77,0,240
1,note_on,78,45,0
1,note_on,78,0,240
1,note_on,79,45,240
1,note_on,79,0,240
1,note_on,76,45,0
1,note_on,76,0,240
1,note_on,74,65,0
1,note_on,74,0,720
1,note_on,78,65,0
1,note_on,78,0,720
1,note_on,79,67,0
1,note_on,79,0,120
1,note_on,78,65,0
1,note_on,78,0,120
1,note_on,76,64,0
1,note_on,76,0,120
1,note_on,74,63,0
1,note_on,74,0,120
1,note_on,73,61,0
1,note_on,73,0,120
1,note_on,76,65,120
1,note_on,76,0,120
1,note_on,74,64,0
1,note_on,74,0,120
1,note_on,73,62,0
1,note_on,73,0,120
1,note_on,71,61,0
1,note_on,71,0,120
1,note_on,69,60,0
1,note_on,69,0,120
1,note_on,67,58,0
1,note_on,67,0,120
1,note_on,66,61,0
1,note_on,66,0,120
1,note_on,69,49,120
1,note_on,69,0,120
1,note_on,74,52,120
1,note_on,74,0,120
1,note_on,78,55,120
1,note_on,78,0,120
1,note_on,81,58,120
1,note_on,81,0,120
1,note_on,79,67,360
1,note_on,79,0,120
1,note_on,78,65,0
1,note_on,78,0,120
1,note_on,76,64,0
1,note_on,76,0,120
1,note_on,74,63,0
1,note_on,74,0,120
1,note_on,73,61,0
1,note_on,73,0,120
1,note_on,76,65,120
1,note_on,76,0,120
1,note_on,74,64,0
1,note_on,74,0,120
1,note_on,73,62,0
1,note_on,73,0,120
1,note_on,71,61,0
1,note_on,71,0,120
1,note_on,69,60,0
1,note_on,69,0,120
1,note_on,67,58,0
1,note_on,67,0,120
1,note_on,66,61,0
1,note_on,66,0,120
1,note_on,69,49,120
1,note_on,69,0,120
1,note_on,74,52,120
1,note_on,74,0,120
1,note_on,78,55,120
1,note_on,78,0,120
1,note_on,81,58,120
1,note_on,81,0,120
1,note_on,82,45,600
1,note_on,82,0,240
1,note_on,83,43,0
1,note_on,83,0,240
1,note_on,86,45,240
1,note_on,86,0,240
1,note_on,83,41,0
1,note_on,83,0,240
1,note_on,80,45,240
1,note_on,80,0,240
1,note_on,81,44,0
1,note_on,81,0,240
1,note_on,83,45,240
1,note_on,83,0,240
1,note_on,79,43,0
1,note_on,79,0,240
1,note_on,77,45,240
1,note_on,77,0,240
1,note_on,78,43,0
1,note_on,78,0,240
1,note_on,79,45,240
1,note_on,79,0,240
1,note_on,76,43,0
1,note_on,76,0,240
1,note_on,70,58,240
1,note_on,82,69,0
1,note_on,82,0,120
1,note_on,70,0,0
1,note_on,83,67,120
1,note_on,71,56,0
1,note_on,71,0,120
1,note_on,83,0,0
1,note_on,74,58,360
1,note_on,86,69,0
1,note_on,86,0,120
1,note_on,74,0,0
1,note_on,71,56,120
1,note_on,83,67,0
1,note_on,83,0,120
1,note_on,71,0,0
1,note_on,68,58,360
1,note_on,80,69,0
1,note_on,80,0,120
1,note_on,68,0,0
1,note_on,69,56,120
1,note_on,81,67,0
1,note_on,81,0,120
1,note_on,69,0,0
1,note_on,71,58,360
1,note_on,83,69,0
1,note_on,83,0,120
1,note_on,71,0,0
1,note_on,79,67,120
1,note_on,67,56,0
1,note_on,67,0,120
1,note_on,79,0,0
1,note_on,77,69,360
1,note_on,65,58,0
1,note_on,65,0,120
1,note_on,77,0,0
1,note_on,78,67,120
1,note_on,66,56,0
1,note_on,66,0,120
1,note_on,78,0,0
1,note_on,67,58,360
1,note_on,79,69,0
1,note_on,79,0,120
1,note_on,67,0,0
1,note_on,64,56,120
1,note_on,76,67,0
1,note_on,76,0,120
1,note_on,64,0,0
1,note_on,74,72,120
1,note_on,66,72,0
1,note_on,66,0,240
1,note_on,74,0,0
1,note_on,74,73,480
1,note_on,66,62,0
1,note_on,66,0,720
1,note_on,74,0,0
1,note_on,67,63,0
1,note_on,76,75,0
1,note_on,76,0,480
1,note_on,67,0,0
1,note_on,71,60,0
1,note_on,79,71,0
1,note_on,79,0,180
1,note_on,71,0,0
1,note_on,64,65,0
1,note_on,64,0,60
1,note_on,74,76,0
1,note_on,74,0,480
1,note_on,73,69,0
1,note_on,73,0,40
1,note_on,74,62,0
1,note_on,74,0,40
1,note_on,73,63,0
1,note_on,73,0,40
1,note_on,71,70,0
1,note_on,71,0,60
1,note_on,73,64,0
1,note_on,73,0,60
1,note_on,74,72,0
1,note_on,74,0,240
1,note_on,74,73,480
1,note_on,66,62,0
1,note_on,66,0,120
1,note_on,74,0,0
1,note_on,74,73,120
1,note_on,66,62,0
1,note_on,66,0,120
1,note_on,74,0,0
1,note_on,66,62,120
1,note_on,74,73,0
1,note_on,74,0,120
1,note_on,66,0,0
1,note_on,76,75,120
1,note_on,67,63,0
1,note_on,67,0,480
1,note_on,76,0,0
1,note_on,79,71,0
1,note_on,71,60,0
1,note_on,71,0,180
1,note_on,79,0,0
1,note_on,64,65,0
1,note_on,64,0,60
1,note_on,74,76,0
1,note_on,74,0,480
1,note_on,73,69,0
1,note_on,73,0,40
1,note_on,74,62,0
1,note_on,74,0,40
1,note_on,73,63,0
1,note_on,73,0,40
1,note_on,71,70,0
1,note_on,71,0,60
1,note_on,73,64,0
1,note_on,73,0,60
1,note_on,74,72,0
1,note_on,74,0,240
1,note_on,66,45,0
1,note_on,66,0,240
1,note_on,69,39,0
1,note_on,69,0,240
1,note_on,71,45,0
1,note_on,71,0,240
1,note_on,73,41,0
1,note_on,73,0,240
1,note_on,74,42,0
1,note_on,74,0,240
1,note_on,76,47,0
1,note_on,76,0,240
1,note_on,69,40,0
1,note_on,69,0,240
1,note_on,71,37,0
1,note_on,71,0,240
1,note_on,73,46,0
1,note_on,73,0,240
1,note_on,74,44,0
1,note_on,74,0,240
1,note_on,76,47,0
1,note_on,76,0,240
1,note_on,78,49,0
1,note_on,78,0,240
1,note_on,66,37,0
1,note_on,69,44,0
1,note_on,69,0,240
1,note_on,66,0,0
1,note_on,73,41,0
1,note_on,69,34,0
1,note_on,69,0,240
1,note_on,73,0,0
1,note_on,74,52,0
1,note_on,71,44,0
1,note_on,71,0,240
1,note_on,74,0,0
1,note_on,76,50,0
1,note_on,73,42,0
1,note_on,73,0,240
1,note_on,76,0,0
1,note_on,78,54,0
1,note_on,74,45,0
1,note_on,74,0,240
1,note_on,78,0,0
1,note_on,76,48,0
1,note_on,79,57,0
1,note_on,79,0,240
1,note_on,76,0,0
1,note_on,69,45,0
1,note_on,73,52,0
1,note_on,73,0,240
1,note_on,69,0,0
1,note_on,74,50,0
1,note_on,71,42,0
1,note_on,71,0,240
1,note_on,74,0,0
1,note_on,76,62,0
1,note_on,73,53,0
1,note_on,73,0,240
1,note_on,76,0,0
1,note_on,78,59,0
1,note_on,74,50,0
1,note_on,74,0,240
1,note_on,78,0,0
1,note_on,79,65,0
1,note_on,76,54,0
1,note_on,76,0,240
1,note_on,79,0,0
1,note_on,78,58,0
1,note_on,81,69,0
1,note_on,81,0,240
1,note_on,78,0,0
1,note_on,69,45,360
1,note_on,69,0,120
1,note_on,81,50,0
1,note_on,81,0,480
1,note_on,78,47,0
1,note_on,78,0,180
1,note_on,76,47,0
1,note_on,76,0,60
1,note_on,74,52,0
1,note_on,74,0,90
1,note_on,73,47,150
1,note_on,73,0,90
1,note_on,74,47,150
1,note_on,74,0,90
1,note_on,76,46,90
1,note_on,76,0,60
1,note_on,74,50,0
1,note_on,74,0,90
1,note_on,73,46,150
1,note_on,73,0,90
1,note_on,74,45,150
1,note_on,74,0,90
1,note_on,78,52,150
1,note_on,74,44,0
1,note_on,74,0,480
1,note_on,78,0,0
1,note_on,73,37,0
1,note_on,76,44,0
1,note_on,76,0,120
1,note_on,73,0,0
1,note_on,67,45,0
1,note_on,67,0,120
1,note_on,79,50,0
1,note_on,79,0,480
1,note_on,76,47,0
1,note_on,76,0,180
1,note_on,74,47,0
1,note_on,74,0,60
1,note_on,73,52,0
1,note_on,73,0,90
1,note_on,71,47,150
1,note_on,71,0,90
1,note_on,73,47,150
1,note_on,73,0,90
1,note_on,69,50,150
1,note_on,69,0,90
1,note_on,76,46,150
1,note_on,76,0,90
1,note_on,81,45,150
1,note_on,81,0,90
1,note_on,79,52,150
1,note_on,76,44,0
1,note_on,76,0,480
1,note_on,79,0,0
1,note_on,74,37,0
1,note_on,78,44,0
1,note_on,78,0,180
1,note_on,74,0,0
1,note_on,74,48,0
1,note_on,74,0,60
1,note_on,78,52,0
1,note_on,78,0,480
1,note_on,79,48,0
1,note_on,79,0,240
1,note_on,83,59,0
1,note_on,83,0,120
1,note_on,81,57,0
1,note_on,81,0,120
1,note_on,79,55,0
1,note_on,79,0,120
1,note_on,78,53,0
1,note_on,78,0,120
1,note_on,76,51,0
1,note_on,76,0,120
1,note_on,74,47,0
1,note_on,74,0,60
1,note_on,79,46,0
1,note_on,79,0,60
1,note_on,83,58,0
1,note_on,83,0,480
1,note_on,85,49,0
1,note_on,85,0,240
1,note_on,88,59,0
1,note_on,88,0,120
1,note_on,86,57,0
1,note_on,86,0,120
1,note_on,85,55,0
1,note_on,85,0,120
1,note_on,83,53,0
1,note_on,83,0,120
1,note_on,81,51,0
1,note_on,81,0,120
1,note_on,79,51,0
1,note_on,79,0,120
1,note_on,85,59,0
1,note_on,85,0,120
1,note_on,83,58,0
1,note_on,83,0,120
1,note_on,81,56,0
1,note_on,81,0,120
1,note_on,79,55,0
1,note_on,79,0,120
1,note_on,78,58,0
1,note_on,78,0,120
1,note_on,76,62,0
1,note_on,76,0,120
1,note_on,83,63,0
1,note_on,83,0,120
1,note_on,81,61,0
1,note_on,81,0,120
1,note_on,79,59,0
1,note_on,79,0,120
1,note_on,78,57,0
1,note_on,78,0,120
1,note_on,76,56,0
1,note_on,76,0,120
1,note_on,74,54,0
1,note_on,74,0,120
1,note_on,81,59,0
1,note_on,81,0,120
1,note_on,79,61,0
1,note_on,79,0,120
1,note_on,78,60,0
1,note_on,78,0,120
1,note_on,76,59,0
1,note_on,76,0,120
1,note_on,74,58,0
1,note_on,74,0,120
1,note_on,73,61,0
1,note_on,73,0,120
1,note_on,74,63,0
1,note_on,74,0,120
1,note_on,62,66,360
1,note_on,62,0,120
1,note_on,66,66,0
1,note_on,66,0,120
1,note_on,69,73,0
1,note_on,69,0,120
1,note_on,66,70,360
1,note_on,66,0,120
1,note_on,69,70,0
1,note_on,69,0,120
1,note_on,74,75,0
1,note_on,74,0,120
1,note_on,69,69,360
1,note_on,69,0,120
1,note_on,74,69,0
1,note_on,74,0,120
1,note_on,78,81,0
1,note_on,78,0,120
1,note_on,74,70,360
1,note_on,74,0,120
1,note_on,78,70,0
1,note_on,78,0,120
1,note_on,81,82,0
1,note_on,81,0,120
1,note_on,81,45,1320
1,note_on,81,0,600
1,note_on,83,42,0
1,note_on,83,0,120
1,note_on,74,47,0
1,note_on,74,0,480
1,note_on,73,47,28
1,note_on,74,55,212
1,note_on,73,0,28
1,note_on,74,0,152
1,note_on,86,54,60
1,note_on,86,0,120
1,note_on,85,52,120
1,note_on,85,0,120
1,note_on,83,50,120
1,note_on,83,0,120
1,note_on,81,49,120
1,note_on,81,0,120
1,note_on,80,47,120
1,note_on,80,0,120
1,note_on,81,45,120
1,note_on,81,0,300
1,note_on,83,35,0
1,note_on,83,0,60
1,note_on,81,35,0
1,note_on,81,0,60
1,note_on,80,35,0
1,note_on,80,0,60
1,note_on,81,45,0
1,note_on,81,0,120
1,note_on,83,42,0
1,note_on,83,0,120
1,note_on,74,47,0
1,note_on,74,0,480
1,note_on,73,47,28
1,note_on,74,55,212
1,note_on,73,0,28
1,note_on,74,0,152
1,note_on,86,54,60
1,note_on,86,0,120
1,note_on,85,52,120
1,note_on,85,0,120
1,note_on,83,50,120
1,note_on,83,0,120
1,note_on,81,49,120
1,note_on,81,0,120
1,note_on,80,47,120
1,note_on,80,0,120
1,note_on,81,45,120
1,note_on,81,0,300
1,note_on,83,35,0
1,note_on,83,0,60
1,note_on,81,35,0
1,note_on,81,0,60
1,note_on,80,35,0
1,note_on,80,0,60
1,note_on,81,45,0
1,note_on,81,0,120
1,note_on,83,42,0
1,note_on,83,0,120
1,note_on,74,47,0
1,note_on,74,0,480
1,note_on,73,47,28
1,note_on,74,52,212
1,note_on,73,0,28
1,note_on,74,0,212
1,note_on,59,29,480
1,note_on,62,35,0
1,note_on,54,29,0
1,note_on,54,0,720
1,note_on,62,0,0
1,note_on,59,0,0
1,note_on,59,32,0
1,note_on,64,38,0
1,note_on,62,32,0
1,note_on,62,0,720
1,note_on,64,0,0
1,note_on,59,0,0
1,note_on,69,39,0
1,note_on,64,33,0
1,note_on,61,33,0
1,note_on,61,0,720
1,note_on,64,0,0
1,note_on,69,0,0
1,note_on,66,35,0
1,note_on,57,29,0
1,note_on,62,29,0
1,note_on,62,0,240
1,note_on,57,0,0
1,note_on,66,0,0
1,note_on,83,52,480
1,note_on,78,44,0
1,note_on,78,0,120
1,note_on,83,0,0
1,note_on,86,47,0
1,note_on,86,0,120
1,note_on,83,52,0
1,note_on,78,44,0
1,note_on,78,0,120
1,note_on,83,0,0
1,note_on,86,47,0
1,note_on,86,0,120
1,note_on,78,45,0
1,note_on,83,53,0
1,note_on,83,0,120
1,note_on,78,0,0
1,note_on,86,49,0
1,note_on,86,0,120
1,note_on,83,59,0
1,note_on,76,50,0
1,note_on,76,0,120
1,note_on,83,0,0
1,note_on,86,53,0
1,note_on,86,0,120
1,note_on,76,51,0
1,note_on,83,62,0
1,note_on,83,0,120
1,note_on,76,0,0
1,note_on,86,57,0
1,note_on,86,0,120
1,note_on,83,64,0
1,note_on,76,53,0
1,note_on,76,0,120
1,note_on,83,0,0
1,note_on,86,59,0
1,note_on,86,0,120
1,note_on,79,68,0
1,note_on,76,57,0
1,note_on,76,0,120
1,note_on,79,0,0
1,note_on,85,62,0
1,note_on,85,0,120
1,note_on,76,60,0
1,note_on,79,71,0
1,note_on,79,0,120
1,note_on,76,0,0
1,note_on,85,64,0
1,note_on,85,0,120
1,note_on,76,62,0
1,note_on,79,73,0
1,note_on,79,0,120
1,note_on,76,0,0
1,note_on,85,68,0
1,note_on,85,0,120
1,note_on,86,88,0
1,note_on,81,73,0
1,note_on,78,73,0
1,note_on,74,73,0
1,note_on,74,0,120
1,note_on,86,0,0
1,note_on,81,0,0
1,note_on,78,0,0
1,note_on,78,72,600
1,note_on,74,72,0
1,note_on,69,72,0
1,note_on,81,85,0
1,note_on,81,0,120
1,note_on,78,0,0
1,note_on,74,0,0
1,note_on,69,0,0
1,note_on,78,85,600
1,note_on,74,72,0
1,note_on,69,72,0
1,note_on,69,0,120
1,note_on,74,0,0
1,note_on,78,0,0
2,note_on,62,27,1440
2,note_on,66,33,0
2,note_on,66,0,720
2,note_on,62,0,0
2,note_on,59,27,0
2,note_on,68,33,0
2,note_on,68,0,720
2,note_on,59,0,0
2,note_on,57,27,0
2,note_on,69,33,0
2,note_on,69,0,720
2,note_on,57,0,0
2,note_on,64,33,720
2,note_on,57,27,0
2,note_on,57,0,720
2,note_on,64,0,0
2,note_on,61,27,0
2,note_on,64,33,0
2,note_on,64,0,720
2,note_on,61,0,0
2,note_on,62,27,0
2,note_on,69,33,0
2,note_on,69,0,720
2,note_on,62,0,0
2,note_on,50,51,0
2,note_on,50,0,240
2,note_on,62,45,0
2,note_on,62,0,120
2,note_on,64,48,120
2,note_on,64,0,120
2,note_on,66,52,120
2,note_on,66,0,240
2,note_on,50,50,480
2,note_on,50,0,240
2,note_on,62,44,0
2,note_on,62,0,120
2,note_on,64,48,120
2,note_on,64,0,120
2,note_on,66,53,120
2,note_on,66,0,240
2,note_on,55,50,480
2,note_on,55,0,240
2,note_on,67,44,0
2,note_on,67,0,120
2,note_on,64,48,120
2,note_on,64,0,120
2,note_on,54,45,120
2,note_on,66,53,0
2,note_on,66,0,240
2,note_on,54,0,0
2,note_on,67,53,480
2,note_on,55,45,0
2,note_on,55,0,240
2,note_on,67,0,0
2,note_on,69,53,480
2,note_on,57,45,0
2,note_on,57,0,240
2,note_on,69,0,0
2,note_on,66,33,1200
2,note_on,62,27,0
2,note_on,62,0,720
2,note_on,66,0,0
2,note_on,59,27,0
2,note_on,68,33,0
2,note_on,68,0,720
2,note_on,59,0,0
2,note_on,69,33,0
2,note_on,57,27,0
2,note_on,57,0,720
2,note_on,69,0,0
2,note_on,64,33,720
2,note_on,57,27,0
2,note_on,57,0,720
2,note_on,64,0,0
2,note_on,64,33,0
2,note_on,61,27,0
2,note_on,61,0,720
2,note_on,64,0,0
2,note_on,62,27,0
2,note_on,69,33,0
2,note_on,69,0,720
2,note_on,62,0,0
2,note_on,50,51,0
2,note_on,50,0,240
2,note_on,62,45,0
2,note_on,62,0,120
2,note_on,64,48,120
2,note_on,64,0,120
2,note_on,66,52,120
2,note_on,66,0,240
2,note_on,43,50,480
2,note_on,43,0,240
2,note_on,55,44,0
2,note_on,55,0,120
2,note_on,59,48,120
2,note_on,59,0,120
2,note_on,59,53,120
2,note_on,59,0,240
2,note_on,64,53,480
2,note_on,59,45,0
2,note_on,55,45,10
2,note_on,59,0,110
2,note_on,64,0,0
2,note_on,55,0,10
2,note_on,62,45,590
2,note_on,57,45,0
2,note_on,66,53,10
2,note_on,57,0,110
2,note_on,62,0,0
2,note_on,66,0,10
2,note_on,64,45,590
2,note_on,57,45,0
2,note_on,67,53,10
2,note_on,57,0,110
2,note_on,64,0,0
2,note_on,67,0,10
2,note_on,66,53,590
2,note_on,62,45,0
2,note_on,62,0,120
2,note_on,66,0,0
2,note_on,38,45,360
2,note_on,38,0,120
2,note_on,42,45,0
2,note_on,42,0,120
2,note_on,45,52,0
2,note_on,45,0,120
2,note_on,42,48,360
2,note_on,42,0,120
2,note_on,45,48,0
2,note_on,45,0,120
2,note_on,50,57,0
2,note_on,50,0,120
2,note_on,45,51,360
2,note_on,45,0,120
2,note_on,50,51,0
2,note_on,50,0,120
2,note_on,54,57,0
2,note_on,54,0,120
2,note_on,50,48,360
2,note_on,50,0,120
2,note_on,54,48,0
2,note_on,54,0,120
2,note_on,57,57,0
2,note_on,57,0,120
2,note_on,57,29,1320
2,note_on,66,35,0
2,note_on,62,29,0
2,note_on,62,0,720
2,note_on,66,0,0
2,note_on,64,27,0
2,note_on,67,32,0
2,note_on,67,0,720
2,note_on,64,0,0
2,note_on,62,29,0
2,note_on,66,35,0
2,note_on,66,0,240
2,note_on,62,0,0
2,note_on,57,0,0
2,note_on,57,29,1200
2,note_on,62,29,0
2,note_on,66,35,0
2,note_on,66,0,720
2,note_on,62,0,0
2,note_on,67,32,0
2,note_on,64,27,0
2,note_on,64,0,720
2,note_on,67,0,0
2,note_on,62,29,0
2,note_on,66,35,0
2,note_on,66,0,240
2,note_on,62,0,0
2,note_on,57,0,0
2,note_on,57,29,1200
2,note_on,62,29,0
2,note_on,66,35,0
2,note_on,66,0,720
2,note_on,62,0,0
2,note_on,67,32,0
2,note_on,64,27,0
2,note_on,64,0,720
2,note_on,67,0,0
2,note_on,57,0,0
2,note_on,62,24,0
2,note_on,66,32,0
2,note_on,66,0,240
2,note_on,62,0,0
2,note_on,47,35,480
2,note_on,47,0,720
2,note_on,43,37,0
2,note_on,43,0,720
2,note_on,45,39,0
2,note_on,45,0,720
2,note_on,38,35,0
2,note_on,38,0,240
2,note_on,38,44,720
2,note_on,50,44,0
2,note_on,50,0,90
2,note_on,38,0,0
2,note_on,38,44,150
2,note_on,50,44,0
2,note_on,50,0,90
2,note_on,38,0,0
2,note_on,50,52,150
2,note_on,38,52,0
2,note_on,38,0,480
2,note_on,50,0,0
2,note_on,50,44,0
2,note_on,38,44,0
2,note_on,38,0,90
2,note_on,50,0,0
2,note_on,50,44,150
2,note_on,38,44,0
2,note_on,38,0,480
2,note_on,50,0,0
2,note_on,38,44,0
2,note_on,50,44,0
2,note_on,50,0,90
2,note_on,38,0,0
2,note_on,49,52,150
2,note_on,37,52,0
2,note_on,37,0,480
2,note_on,49,0,0
2,note_on,61,25,960
2,note_on,69,30,0
2,note_on,69,0,90
2,note_on,61,0,0
2,note_on,69,30,150
2,note_on,61,25,0
2,note_on,61,0,90
2,note_on,69,0,0
2,note_on,61,25,150
2,note_on,69,30,0
2,note_on,69,0,90
2,note_on,61,0,0
2,note_on,61,25,150
2,note_on,69,30,0
2,note_on,69,0,90
2,note_on,61,0,0
2,note_on,69,30,150
2,note_on,61,25,0
2,note_on,61,0,90
2,note_on,69,0,0
2,note_on,69,30,150
2,note_on,61,25,0
2,note_on,61,0,90
2,note_on,69,0,0
2,note_on,69,35,150
2,note_on,59,29,0
2,note_on,59,0,960
2,note_on,69,0,0
2,note_on,47,44,0
2,note_on,35,44,0
2,note_on,35,0,90
2,note_on,47,0,0
2,note_on,47,44,150
2,note_on,35,44,0
2,note_on,35,0,90
2,note_on,47,0,0
2,note_on,35,52,150
2,note_on,47,52,0
2,note_on,47,0,480
2,note_on,35,0,0
2,note_on,35,44,0
2,note_on,47,44,0
2,note_on,47,0,90
2,note_on,35,0,0
2,note_on,33,44,150
2,note_on,45,44,0
2,note_on,45,0,480
2,note_on,33,0,0
2,note_on,33,44,0
2,note_on,45,44,0
2,note_on,45,0,90
2,note_on,33,0,0
2,note_on,44,52,150
2,note_on,32,52,0
2,note_on,32,0,240
2,note_on,44,0,0
2,note_on,56,40,1200
2,note_on,59,30,240
2,note_on,59,0,240
2,note_on,64,26,0
2,note_on,64,0,240
2,note_on,56,0,0
2,note_on,56,40,0
2,note_on,59,30,240
2,note_on,59,0,240
2,note_on,64,27,0
2,note_on,64,0,240
2,note_on,56,0,0
2,note_on,57,40,0
2,note_on,61,33,240
2,note_on,61,0,240
2,note_on,64,36,0
2,note_on,64,0,240
2,note_on,57,0,0
2,note_on,57,40,0
2,note_on,61,33,240
2,note_on,61,0,240
2,note_on,64,33,0
2,note_on,64,0,240
2,note_on,57,0,0
2,note_on,56,40,0
2,note_on,59,34,240
2,note_on,59,0,240
2,note_on,64,31,0
2,note_on,64,0,240
2,note_on,56,0,0
2,note_on,56,40,0
2,note_on,59,33,240
2,note_on,59,0,240
2,note_on,64,28,0
2,note_on,64,0,240
2,note_on,56,0,0
2,note_on,57,40,0
2,note_on,61,34,240
2,note_on,61,0,240
2,note_on,64,37,0
2,note_on,64,0,240
2,note_on,57,0,0
2,note_on,57,40,0
2,note_on,61,34,240
2,note_on,61,0,240
2,note_on,64,34,0
2,note_on,64,0,240
2,note_on,57,0,0
2,note_on,56,40,0
2,note_on,59,33,240
2,note_on,59,0,240
2,note_on,64,30,0
2,note_on,64,0,240
2,note_on,56,0,0
2,note_on,56,40,0
2,note_on,59,34,240
2,note_on,59,0,240
2,note_on,64,32,0
2,note_on,64,0,240
2,note_on,56,0,0
2,note_on,57,46,0
2,note_on,57,0,480
2,note_on,49,42,240
2,note_on,57,42,0
2,note_on,57,0,480
2,note_on,49,0,0
2,note_on,57,46,240
2,note_on,50,46,0
2,note_on,50,0,480
2,note_on,57,0,0
2,note_on,62,45,240
2,note_on,62,0,120
2,note_on,61,42,0
2,note_on,61,0,120
2,note_on,59,43,0
2,note_on,59,0,120
2,note_on,57,46,0
2,note_on,57,0,120
2,note_on,56,48,0
2,note_on,56,0,120
2,note_on,54,51,0
2,note_on,54,0,120
2,note_on,52,54,0
2,note_on,52,0,90
2,note_on,52,50,150
2,note_on,52,0,90
2,note_on,52,50,150
2,note_on,52,0,90
2,note_on,52,54,150
2,note_on,52,0,90
2,note_on,57,41,2070
2,note_on,57,0,720
2,note_on,56,46,0
2,note_on,56,0,240
2,note_on,57,44,0
2,note_on,57,0,240
2,note_on,56,44,0
2,note_on,56,0,240
2,note_on,54,51,0
2,note_on,54,0,1200
2,note_on,50,36,0
2,note_on,50,0,240
2,note_on,52,41,0
2,note_on,52,0,240
2,note_on,54,37,0
2,note_on,54,0,240
2,note_on,56,37,0
2,note_on,56,0,240
2,note_on,57,42,0
2,note_on,57,0,240
2,note_on,59,38,0
2,note_on,59,0,240
2,note_on,61,38,0
2,note_on,61,0,240
2,note_on,62,42,0
2,note_on,66,35,0
2,note_on,69,35,0
2,note_on,62,0,720
2,note_on,63,42,0
2,note_on,63,0,720
2,note_on,69,0,0
2,note_on,66,0,0
2,note_on,64,42,0
2,note_on,68,35,0
2,note_on,68,0,720
2,note_on,64,0,0
2,note_on,64,35,0
2,note_on,62,42,0
2,note_on,68,35,0
2,note_on,68,0,720
2,note_on,62,0,0
2,note_on,64,0,0
2,note_on,64,29,0
2,note_on,69,35,0
2,note_on,61,29,0
2,note_on,61,0,240
2,note_on,69,0,0
2,note_on,64,0,0
2,note_on,62,35,480
2,note_on,62,0,480
2,note_on,57,31,0
2,note_on,54,26,0
2,note_on,54,0,240
2,note_on,57,0,0
2,note_on,57,36,0
2,note_on,52,30,0
2,note_on,57,0,720
2,note_on,56,32,0
2,note_on,56,0,240
2,note_on,52,0,0
2,note_on,54,41,1920
2,note_on,54,0,720
2,note_on,52,46,0
2,note_on,52,0,240
2,note_on,54,44,0
2,note_on,54,0,240
2,note_on,52,44,0
2,note_on,52,0,240
2,note_on,50,51,0
2,note_on,50,0,480
2,note_on,49,36,0
2,note_on,49,0,240
2,note_on,47,51,0
2,note_on,47,0,480
2,note_on,45,36,0
2,note_on,45,0,240
2,note_on,44,41,0
2,note_on,44,0,480
2,note_on,40,37,0
2,note_on,40,0,240
2,note_on,45,42,0
2,note_on,45,0,240
2,note_on,47,38,0
2,note_on,47,0,240
2,note_on,49,38,0
2,note_on,49,0,240
2,note_on,57,35,0
2,note_on,50,42,0
2,note_on,54,35,0
2,note_on,50,0,720
2,note_on,51,42,0
2,note_on,51,0,720
2,note_on,54,0,0
2,note_on,57,0,0
2,note_on,56,35,0
2,note_on,52,42,0
2,note_on,50,42,0
2,note_on,50,0,720
2,note_on,52,0,0
2,note_on,56,0,0
2,note_on,55,35,0
2,note_on,49,42,0
2,note_on,52,35,0
2,note_on,52,0,720
2,note_on,49,0,0
2,note_on,55,0,0
2,note_on,50,35,0
2,note_on,54,42,0
2,note_on,54,0,120
2,note_on,50,0,0
2,note_on,52,47,600
2,note_on,52,0,120
2,note_on,57,60,600
2,note_on,57,0,120
2,note_on,64,44,0
2,note_on,64,0,120
2,note_on,61,44,0
2,note_on,61,0,120
2,note_on,64,44,0
2,note_on,64,0,120
2,note_on,61,44,0
2,note_on,61,0,120
2,note_on,64,44,0
2,note_on,64,0,120
2,note_on,57,55,0
2,note_on,57,0,120
2,note_on,64,48,0
2,note_on,64,0,120
2,note_on,61,45,0
2,note_on,61,0,120
2,note_on,64,43,0
2,note_on,64,0,120
2,note_on,61,43,0
2,note_on,61,0,120
2,note_on,64,43,0
2,note_on,64,0,120
2,note_on,59,60,0
2,note_on,59,0,120
2,note_on,64,44,0
2,note_on,64,0,120
2,note_on,62,44,0
2,note_on,62,0,120
2,note_on,64,44,0
2,note_on,64,0,120
2,note_on,62,44,0
2,note_on,62,0,120
2,note_on,64,44,0
2,note_on,64,0,120
2,note_on,56,55,0
2,note_on,56,0,120
2,note_on,64,42,0
2,note_on,64,0,120
2,note_on,59,42,0
2,note_on,59,0,120
2,note_on,64,42,0
2,note_on,64,0,120
2,note_on,59,42,0
2,note_on,59,0,120
2,note_on,64,42,0
2,note_on,64,0,120
2,note_on,57,51,0
2,note_on,57,0,120
2,note_on,64,39,0
2,note_on,64,0,120
2,note_on,61,39,0
2,note_on,61,0,120
2,note_on,64,39,0
2,note_on,64,0,120
2,note_on,61,39,0
2,note_on,61,0,120
2,note_on,64,39,0
2,note_on,64,0,120
2,note_on,57,50,0
2,note_on,57,0,120
2,note_on,64,40,0
2,note_on,64,0,120
2,note_on,61,40,0
2,note_on,61,0,120
2,note_on,64,40,0
2,note_on,64,0,120
2,note_on,61,40,0
2,note_on,61,0,120
2,note_on,64,40,0
2,note_on,64,0,120
2,note_on,59,60,0
2,note_on,59,0,120
2,note_on,64,44,0
2,note_on,64,0,120
2,note_on,62,44,0
2,note_on,62,0,120
2,note_on,64,44,0
2,note_on,64,0,120
2,note_on,62,44,0
2,note_on,62,0,120
2,note_on,64,44,0
2,note_on,64,0,120
2,note_on,56,55,0
2,note_on,56,0,120
2,note_on,64,42,0
2,note_on,64,0,120
2,note_on,59,42,0
2,note_on,59,0,120
2,note_on,64,42,0
2,note_on,64,0,120
2,note_on,59,42,0
2,note_on,59,0,120
2,note_on,64,42,0
2,note_on,64,0,120
2,note_on,57,51,0
2,note_on,57,0,120
2,note_on,64,39,0
2,note_on,64,0,120
2,note_on,61,39,0
2,note_on,61,0,120
2,note_on,64,39,0
2,note_on,64,0,120
2,note_on,61,39,0
2,note_on,61,0,120
2,note_on,64,39,0
2,note_on,64,0,120
2,note_on,57,50,0
2,note_on,57,0,120
2,note_on,64,40,0
2,note_on,64,0,120
2,note_on,61,40,0
2,note_on,61,0,120
2,note_on,64,40,0
2,note_on,64,0,120
2,note_on,61,40,0
2,note_on,61,0,120
2,note_on,64,40,0
2,note_on,64,0,120
2,note_on,62,45,0
2,note_on,62,0,120
2,note_on,62,34,600
2,note_on,69,40,0
2,note_on,69,0,120
2,note_on,62,0,0
2,note_on,69,40,600
2,note_on,61,34,0
2,note_on,61,0,120
2,note_on,69,0,0
2,note_on,69,40,600
2,note_on,62,34,0
2,note_on,62,0,120
2,note_on,69,0,0
2,note_on,69,40,600
2,note_on,64,34,0
2,note_on,64,0,120
2,note_on,69,0,0
2,note_on,68,40,600
2,note_on,64,34,0
2,note_on,64,0,120
2,note_on,68,0,0
2,note_on,57,60,600
2,note_on,57,0,120
2,note_on,64,44,0
2,note_on,64,0,120
2,note_on,61,44,0
2,note_on,61,0,120
2,note_on,64,44,0
2,note_on,64,0,120
2,note_on,61,44,0
2,note_on,61,0,120
2,note_on,64,44,0
2,note_on,64,0,120
2,note_on,57,55,0
2,note_on,57,0,120
2,note_on,64,48,0
2,note_on,64,0,120
2,note_on,61,45,0
2,note_on,61,0,120
2,note_on,64,43,0
2,note_on,64,0,120
2,note_on,61,43,0
2,note_on,61,0,120
2,note_on,64,43,0
2,note_on,64,0,120
2,note_on,59,60,0
2,note_on,59,0,120
2,note_on,64,44,0
2,note_on,64,0,120
2,note_on,62,44,0
2,note_on,62,0,120
2,note_on,64,44,0
2,note_on,64,0,120
2,note_on,62,44,0
2,note_on,62,0,120
2,note_on,64,44,0
2,note_on,64,0,120
2,note_on,56,55,0
2,note_on,56,0,120
2,note_on,64,42,0
2,note_on,64,0,120
2,note_on,59,42,0
2,note_on,59,0,120
2,note_on,64,42,0
2,note_on,64,0,120
2,note_on,59,42,0
2,note_on,59,0,120
2,note_on,64,42,0
2,note_on,64,0,120
2,note_on,57,51,0
2,note_on,57,0,120
2,note_on,64,39,0
2,note_on,64,0,120
2,note_on,61,39,0
2,note_on,61,0,120
2,note_on,64,39,0
2,note_on,64,0,120
2,note_on,61,39,0
2,note_on,61,0,120
2,note_on,64,39,0
2,note_on,64,0,120
2,note_on,57,50,0
2,note_on,57,0,120
2,note_on,64,40,0
2,note_on,64,0,120
2,note_on,61,40,0
2,note_on,61,0,120
2,note_on,64,40,0
2,note_on,64,0,120
2,note_on,61,40,0
2,note_on,61,0,120
2,note_on,64,40,0
2,note_on,64,0,120
2,note_on,59,60,0
2,note_on,59,0,120
2,note_on,64,44,0
2,note_on,64,0,120
2,note_on,62,44,0
2,note_on,62,0,120
2,note_on,64,44,0
2,note_on,64,0,120
2,note_on,62,44,0
2,note_on,62,0,120
2,note_on,64,44,0
2,note_on,64,0,120
2,note_on,56,55,0
2,note_on,56,0,120
2,note_on,64,42,0
2,note_on,64,0,120
2,note_on,59,42,0
2,note_on,59,0,120
2,note_on,64,42,0
2,note_on,64,0,120
2,note_on,59,42,0
2,note_on,59,0,120
2,note_on,64,42,0
2,note_on,64,0,120
2,note_on,57,51,0
2,note_on,57,0,120
2,note_on,64,39,0
2,note_on,64,0,120
2,note_on,61,39,0
2,note_on,61,0,120
2,note_on,64,39,0
2,note_on,64,0,120
2,note_on,61,39,0
2,note_on,61,0,120
2,note_on,64,39,0
2,note_on,64,0,120
2,note_on,57,50,0
2,note_on,57,0,120
2,note_on,64,40,0
2,note_on,64,0,120
2,note_on,61,40,0
2,note_on,61,0,120
2,note_on,64,40,0
2,note_on,64,0,120
2,note_on,61,40,0
2,note_on,61,0,120
2,note_on,64,40,0
2,note_on,64,0,120
2,note_on,62,45,0
2,note_on,62,0,120
2,note_on,62,34,600
2,note_on,69,40,0
2,note_on,69,0,120
2,note_on,62,0,0
2,note_on,61,34,600
2,note_on,69,40,0
2,note_on,69,0,120
2,note_on,61,0,0
2,note_on,69,40,600
2,note_on,62,34,0
2,note_on,62,0,120
2,note_on,69,0,0
2,note_on,69,40,600
2,note_on,64,34,0
2,note_on,64,0,120
2,note_on,69,0,0
2,note_on,68,40,600
2,note_on,64,34,0
2,note_on,64,0,120
2,note_on,68,0,0
2,note_on,50,55,600
2,note_on,57,63,0
2,note_on,57,0,120
2,note_on,50,0,0
2,note_on,57,57,600
2,note_on,50,48,0
2,note_on,50,0,120
2,note_on,57,0,0
2,note_on,49,48,600
2,note_on,57,57,0
2,note_on,57,0,120
2,note_on,49,0,0
2,note_on,50,48,600
2,note_on,57,57,0
2,note_on,57,0,120
2,note_on,50,0,0
2,note_on,57,57,600
2,note_on,52,48,0
2,note_on,52,0,120
2,note_on,57,0,0
2,note_on,52,48,600
2,note_on,56,57,0
2,note_on,56,0,120
2,note_on,52,0,0
2,note_on,45,67,600
2,note_on,45,0,120
2,note_on,57,44,0
2,note_on,57,0,120
2,note_on,56,48,0
2,note_on,56,0,120
2,note_on,57,44,0
2,note_on,57,0,120
2,note_on,56,48,0
2,note_on,56,0,120
2,note_on,57,44,0
2,note_on,57,0,120
2,note_on,42,62,0
2,note_on,42,0,120
2,note_on,54,43,0
2,note_on,54,0,120
2,note_on,53,47,0
2,note_on,53,0,120
2,note_on,54,43,0
2,note_on,54,0,120
2,note_on,53,47,0
2,note_on,53,0,120
2,note_on,54,43,0
2,note_on,54,0,120
2,note_on,38,67,0
2,note_on,38,0,120
2,note_on,50,46,0
2,note_on,50,0,120
2,note_on,49,50,0
2,note_on,49,0,120
2,note_on,50,46,0
2,note_on,50,0,120
2,note_on,49,51,0
2,note_on,49,0,120
2,note_on,50,46,0
2,note_on,50,0,120
2,note_on,40,55,0
2,note_on,40,0,120
2,note_on,52,46,0
2,note_on,52,0,120
2,note_on,51,49,0
2,note_on,51,0,120
2,note_on,52,46,0
2,note_on,52,0,120
2,note_on,51,50,0
2,note_on,51,0,120
2,note_on,52,46,0
2,note_on,52,0,120
2,note_on,45,67,0
2,note_on,45,0,120
2,note_on,57,44,0
2,note_on,57,0,120
2,note_on,56,48,0
2,note_on,56,0,120
2,note_on,57,44,0
2,note_on,57,0,120
2,note_on,56,48,0
2,note_on,56,0,120
2,note_on,57,44,0
2,note_on,57,0,120
2,note_on,42,62,0
2,note_on,42,0,120
2,note_on,54,43,0
2,note_on,54,0,120
2,note_on,53,47,0
2,note_on,53,0,120
2,note_on,54,43,0
2,note_on,54,0,120
2,note_on,53,47,0
2,note_on,53,0,120
2,note_on,54,43,0
2,note_on,54,0,120
2,note_on,38,67,0
2,note_on,38,0,120
2,note_on,50,46,0
2,note_on,50,0,120
2,note_on,49,50,0
2,note_on,49,0,120
2,note_on,50,46,0
2,note_on,50,0,120
2,note_on,49,51,0
2,note_on,49,0,120
2,note_on,50,46,0
2,note_on,50,0,120
2,note_on,40,55,0
2,note_on,40,0,120
2,note_on,52,46,0
2,note_on,52,0,120
2,note_on,51,49,0
2,note_on,51,0,120
2,note_on,52,46,0
2,note_on,52,0,120
2,note_on,51,50,0
2,note_on,51,0,120
2,note_on,52,46,0
2,note_on,52,0,120
2,note_on,45,67,0
2,note_on,45,0,120
2,note_on,62,38,1080
2,note_on,59,32,0
2,note_on,52,32,0
2,note_on,52,0,240
2,note_on,59,0,0
2,note_on,62,0,0
2,note_on,57,32,0
2,note_on,61,38,0
2,note_on,61,0,120
2,note_on,57,0,0
2,note_on,62,38,1080
2,note_on,52,32,0
2,note_on,59,32,0
2,note_on,59,0,240
2,note_on,52,0,0
2,note_on,62,0,0
2,note_on,57,32,0
2,note_on,61,38,0
2,note_on,61,0,120
2,note_on,57,0,0
2,note_on,49,39,120
2,note_on,49,0,240
2,note_on,50,40,0
2,note_on,50,0,240
2,note_on,52,42,0
2,note_on,52,0,240
2,note_on,54,39,0
2,note_on,54,0,240
2,note_on,56,43,0
2,note_on,56,0,240
2,note_on,57,46,0
2,note_on,57,0,240
2,note_on,49,41,0
2,note_on,49,0,240
2,note_on,50,41,0
2,note_on,50,0,240
2,note_on,52,45,0
2,note_on,52,0,240
2,note_on,54,41,0
2,note_on,54,0,240
2,note_on,56,45,0
2,note_on,56,0,240
2,note_on,57,40,0
2,note_on,57,0,120
2,note_on,57,35,600
2,note_on,59,41,0
2,note_on,59,0,120
2,note_on,57,0,0
2,note_on,57,41,600
2,note_on,61,49,0
2,note_on,61,0,120
2,note_on,57,0,0
2,note_on,62,53,600
2,note_on,57,44,0
2,note_on,57,0,120
2,note_on,62,0,0
2,note_on,57,50,600
2,note_on,64,60,0
2,note_on,64,0,120
2,note_on,57,0,0
2,note_on,66,33,2760
2,note_on,62,27,0
2,note_on,62,0,720
2,note_on,66,0,0
2,note_on,59,27,0
2,note_on,68,33,0
2,note_on,68,0,720
2,note_on,59,0,0
2,note_on,69,33,0
2,note_on,57,27,0
2,note_on,57,0,720
2,note_on,69,0,0
2,note_on,64,33,720
2,note_on,57,27,0
2,note_on,57,0,720
2,note_on,64,0,0
2,note_on,64,33,0
2,note_on,61,27,0
2,note_on,61,0,720
2,note_on,64,0,0
2,note_on,69,33,0
2,note_on,62,27,0
2,note_on,62,0,720
2,note_on,69,0,0
2,note_on,50,51,0
2,note_on,50,0,240
2,note_on,62,45,0
2,note_on,62,0,120
2,note_on,64,48,120
2,note_on,64,0,120
2,note_on,66,52,120
2,note_on,66,0,240
2,note_on,50,50,480
2,note_on,50,0,240
2,note_on,62,44,0
2,note_on,62,0,120
2,note_on,64,48,120
2,note_on,64,0,120
2,note_on,66,53,120
2,note_on,66,0,240
2,note_on,55,50,480
2,note_on,55,0,240
2,note_on,67,44,0
2,note_on,67,0,120
2,note_on,64,48,120
2,note_on,64,0,120
2,note_on,66,53,120
2,note_on,54,45,0
2,note_on,54,0,240
2,note_on,66,0,0
2,note_on,67,53,480
2,note_on,55,45,0
2,note_on,55,0,240
2,note_on,67,0,0
2,note_on,69,53,480
2,note_on,57,45,0
2,note_on,57,0,240
2,note_on,69,0,0
2,note_on,66,33,1200
2,note_on,62,27,0
2,note_on,62,0,720
2,note_on,66,0,0
2,note_on,59,27,0
2,note_on,68,33,0
2,note_on,68,0,720
2,note_on,59,0,0
2,note_on,69,33,0
2,note_on,57,27,0
2,note_on,57,0,720
2,note_on,69,0,0
2,note_on,64,33,720
2,note_on,57,27,0
2,note_on,57,0,720
2,note_on,64,0,0
2,note_on,61,27,0
2,note_on,64,33,0
2,note_on,64,0,720
2,note_on,61,0,0
2,note_on,62,27,0
2,note_on,69,33,0
2,note_on,69,0,720
2,note_on,62,0,0
2,note_on,50,51,0
2,note_on,50,0,240
2,note_on,62,45,0
2,note_on,62,0,120
2,note_on,64,48,120
2,note_on,64,0,120
2,note_on,66,52,120
2,note_on,66,0,240
2,note_on,43,50,480
2,note_on,43,0,240
2,note_on,55,44,0
2,note_on,55,0,120
2,note_on,59,48,120
2,note_on,59,0,120
2,note_on,59,53,120
2,note_on,59,0,240
2,note_on,59,45,480
2,note_on,64,53,0
2,note_on,55,45,10
2,note_on,64,0,110
2,note_on,59,0,0
2,note_on,55,0,10
2,note_on,57,45,590
2,note_on,62,45,0
2,note_on,66,53,10
2,note_on,62,0,110
2,note_on,57,0,0
2,note_on,66,0,10
2,note_on,64,45,590
2,note_on,57,45,0
2,note_on,67,53,10
2,note_on,57,0,110
2,note_on,64,0,0
2,note_on,67,0,10
2,note_on,66,53,590
2,note_on,62,45,0
2,note_on,62,0,120
2,note_on,66,0,0
2,note_on,42,45,360
2,note_on,42,0,120
2,note_on,45,45,0
2,note_on,45,0,120
2,note_on,50,52,0
2,note_on,50,0,120
2,note_on,45,48,360
2,note_on,45,0,120
2,note_on,50,48,0
2,note_on,50,0,120
2,note_on,54,57,0
2,note_on,54,0,120
2,note_on,50,51,360
2,note_on,50,0,120
2,note_on,54,51,0
2,note_on,54,0,120
2,note_on,57,57,0
2,note_on,57,0,120
2,note_on,54,44,360
2,note_on,54,0,120
2,note_on,57,44,0
2,note_on,57,0,120
2,note_on,60,53,0
2,note_on,60,0,120
2,note_on,59,35,1320
2,note_on,50,29,0
2,note_on,55,29,0
2,note_on,55,0,720
2,note_on,59,0,0
2,note_on,57,27,0
2,note_on,60,32,0
2,note_on,60,0,720
2,note_on,57,0,0
2,note_on,55,29,0
2,note_on,59,35,0
2,note_on,59,0,240
2,note_on,55,0,0
2,note_on,50,0,0
2,note_on,59,35,1200
2,note_on,55,29,0
2,note_on,50,29,0
2,note_on,55,0,720
2,note_on,59,0,0
2,note_on,57,27,0
2,note_on,60,32,0
2,note_on,60,0,720
2,note_on,57,0,0
2,note_on,55,29,0
2,note_on,59,35,0
2,note_on,59,0,240
2,note_on,55,0,0
2,note_on,50,0,0
2,note_on,50,29,1200
2,note_on,59,35,0
2,note_on,55,29,0
2,note_on,55,0,720
2,note_on,59,0,0
2,note_on,60,32,0
2,note_on,57,27,0
2,note_on,57,0,720
2,note_on,60,0,0
2,note_on,50,0,0
2,note_on,55,24,0
2,note_on,59,32,0
2,note_on,59,0,240
2,note_on,55,0,0
2,note_on,52,35,480
2,note_on,52,0,720
2,note_on,48,37,0
2,note_on,48,0,720
2,note_on,50,39,0
2,note_on,50,0,720
2,note_on,43,35,0
2,note_on,43,0,240
2,note_on,36,43,480
2,note_on,48,52,0
2,note_on,48,0,720
2,note_on,36,0,0
2,note_on,33,46,0
2,note_on,45,55,0
2,note_on,45,0,720
2,note_on,33,0,0
2,note_on,47,58,0
2,note_on,35,49,0
2,note_on,35,0,720
2,note_on,47,0,0
2,note_on,40,52,0
2,note_on,40,0,240
2,note_on,47,35,480
2,note_on,47,0,720
2,note_on,43,37,0
2,note_on,43,0,720
2,note_on,45,39,0
2,note_on,45,0,720
2,note_on,38,35,0
2,note_on,38,0,240
2,note_on,58,52,480
2,note_on,46,43,0
2,note_on,46,0,720
2,note_on,58,0,0
2,note_on,47,46,0
2,note_on,59,55,0
2,note_on,59,0,720
2,note_on,47,0,0
2,note_on,55,58,0
2,note_on,43,49,0
2,note_on,43,0,720
2,note_on,55,0,0
2,note_on,54,52,0
2,note_on,42,48,0
2,note_on,42,0,120
2,note_on,54,0,0
2,note_on,55,52,120
2,note_on,55,0,120
2,note_on,54,52,120
2,note_on,54,0,120
2,note_on,52,52,120
2,note_on,52,0,120
2,note_on,50,52,120
2,note_on,50,0,120
2,note_on,49,52,120
2,note_on,49,0,120
2,note_on,47,52,120
2,note_on,47,0,240
2,note_on,71,40,480
2,note_on,71,0,120
2,note_on,74,30,0
2,note_on,74,0,120
2,note_on,71,33,0
2,note_on,71,0,120
2,note_on,74,30,0
2,note_on,74,0,120
2,note_on,71,33,0
2,note_on,71,0,120
2,note_on,74,30,0
2,note_on,74,0,120
2,note_on,70,40,0
2,note_on,70,0,120
2,note_on,73,30,0
2,note_on,73,0,120
2,note_on,70,33,0
2,note_on,70,0,120
2,note_on,73,30,0
2,note_on,73,0,120
2,note_on,70,33,0
2,note_on,70,0,120
2,note_on,73,31,0
2,note_on,73,0,120
2,note_on,69,40,0
2,note_on,69,0,120
2,note_on,73,29,0
2,note_on,73,0,120
2,note_on,69,32,0
2,note_on,69,0,120
2,note_on,73,30,0
2,note_on,73,0,120
2,note_on,69,32,0
2,note_on,69,0,120
2,note_on,73,30,0
2,note_on,73,0,120
2,note_on,68,40,0
2,note_on,68,0,120
2,note_on,71,31,0
2,note_on,71,0,120
2,note_on,68,33,0
2,note_on,68,0,120
2,note_on,71,29,0
2,note_on,71,0,120
2,note_on,68,33,0
2,note_on,68,0,120
2,note_on,71,31,0
2,note_on,71,0,120
2,note_on,67,40,0
2,note_on,67,0,120
2,note_on,71,31,0
2,note_on,71,0,120
2,note_on,67,34,0
2,note_on,67,0,120
2,note_on,71,31,0
2,note_on,71,0,120
2,note_on,67,34,0
2,note_on,67,0,120
2,note_on,71,30,0
2,note_on,71,0,120
2,note_on,66,45,0
2,note_on,66,0,120
2,note_on,71,32,0
2,note_on,71,0,120
2,note_on,66,35,0
2,note_on,66,0,120
2,note_on,71,32,0
2,note_on,71,0,120
2,note_on,66,35,0
2,note_on,66,0,120
2,note_on,71,33,0
2,note_on,71,0,120
2,note_on,66,46,0
2,note_on,66,0,120
2,note_on,69,33,0
2,note_on,69,0,120
2,note_on,66,35,0
2,note_on,66,0,120
2,note_on,69,33,0
2,note_on,69,0,120
2,note_on,66,35,0
2,note_on,66,0,120
2,note_on,69,32,0
2,note_on,69,0,120
2,note_on,64,40,0
2,note_on,64,0,120
2,note_on,67,33,0
2,note_on,67,0,120
2,note_on,64,35,0
2,note_on,64,0,120
2,note_on,67,33,0
2,note_on,67,0,120
2,note_on,64,35,0
2,note_on,64,0,120
2,note_on,67,33,0
2,note_on,67,0,120
2,note_on,64,40,0
2,note_on,64,0,120
2,note_on,67,32,0
2,note_on,67,0,120
2,note_on,64,35,0
2,note_on,64,0,120
2,note_on,67,32,0
2,note_on,67,0,120
2,note_on,64,35,0
2,note_on,64,0,120
2,note_on,67,33,0
2,note_on,67,0,120
2,note_on,62,40,0
2,note_on,62,0,120
2,note_on,66,33,0
2,note_on,66,0,120
2,note_on,62,35,0
2,note_on,62,0,120
2,note_on,66,33,0
2,note_on,66,0,120
2,note_on,62,35,0
2,note_on,62,0,120
2,note_on,66,33,0
2,note_on,66,0,120
2,note_on,62,35,0
2,note_on,62,0,120
2,note_on,66,29,0
2,note_on,66,0,120
2,note_on,62,29,0
2,note_on,62,0,120
2,note_on,66,27,0
2,note_on,66,0,120
2,note_on,62,29,0
2,note_on,62,0,120
2,note_on,66,28,0
2,note_on,66,0,120
2,note_on,58,39,0
2,note_on,58,0,120
2,note_on,66,30,0
2,note_on,66,0,120
2,note_on,58,35,0
2,note_on,58,0,120
2,note_on,66,29,0
2,note_on,66,0,120
2,note_on,58,36,0
2,note_on,58,0,120
2,note_on,66,33,0
2,note_on,66,0,120
2,note_on,59,40,0
2,note_on,59,0,120
2,note_on,66,33,0
2,note_on,66,0,120
2,note_on,59,35,0
2,note_on,59,0,120
2,note_on,66,33,0
2,note_on,66,0,120
2,note_on,59,35,0
2,note_on,59,0,120
2,note_on,66,33,0
2,note_on,66,0,120
2,note_on,54,33,0
2,note_on,54,0,240
2,note_on,54,44,480
2,note_on,55,46,120
2,note_on,54,0,12
2,note_on,54,47,108
2,note_on,55,0,12
2,note_on,52,49,108
2,note_on,54,0,12
2,note_on,50,51,108
2,note_on,52,0,12
2,note_on,49,52,108
2,note_on,50,0,12
2,note_on,47,58,108
2,note_on,49,0,12
2,note_on,47,0,228
2,note_on,66,52,0
2,note_on,66,0,120
2,note_on,66,48,120
2,note_on,66,0,120
2,note_on,67,44,120
2,note_on,67,0,60
2,note_on,69,44,0
2,note_on,69,0,60
2,note_on,67,53,0
2,note_on,67,0,120
2,note_on,66,49,0
2,note_on,66,0,120
2,note_on,66,46,120
2,note_on,66,0,120
2,note_on,67,48,120
2,note_on,67,0,60
2,note_on,69,48,0
2,note_on,69,0,60
2,note_on,67,52,0
2,note_on,67,0,120
2,note_on,66,52,0
2,note_on,66,0,120
2,note_on,66,48,120
2,note_on,66,0,120
2,note_on,66,52,120
2,note_on,66,0,480
2,note_on,67,46,0
2,note_on,67,0,120
2,note_on,69,49,0
2,note_on,69,0,120
2,note_on,71,52,0
2,note_on,71,0,240
2,note_on,64,48,0
2,note_on,64,0,120
2,note_on,64,48,120
2,note_on,64,0,120
2,note_on,66,48,120
2,note_on,66,0,60
2,note_on,67,48,0
2,note_on,67,0,60
2,note_on,66,52,0
2,note_on,66,0,120
2,note_on,64,52,0
2,note_on,64,0,120
2,note_on,64,48,120
2,note_on,64,0,120
2,note_on,64,48,120
2,note_on,64,0,60
2,note_on,66,48,0
2,note_on,66,0,60
2,note_on,64,56,0
2,note_on,64,0,120
2,note_on,62,48,0
2,note_on,62,0,120
2,note_on,62,52,120
2,note_on,62,0,120
2,note_on,62,52,120
2,note_on,62,0,480
2,note_on,64,47,0
2,note_on,64,0,120
2,note_on,66,50,0
2,note_on,66,0,120
2,note_on,67,53,0
2,note_on,67,0,240
2,note_on,55,50,0
2,note_on,55,0,120
2,note_on,55,50,120
2,note_on,55,0,120
2,note_on,55,49,120
2,note_on,55,0,480
2,note_on,57,47,0
2,note_on,57,0,120
2,note_on,59,50,0
2,note_on,59,0,120
2,note_on,61,53,0
2,note_on,61,0,240
2,note_on,54,47,0
2,note_on,54,0,120
2,note_on,54,47,120
2,note_on,54,0,120
2,note_on,54,49,120
2,note_on,54,0,480
2,note_on,56,47,0
2,note_on,56,0,120
2,note_on,58,50,0
2,note_on,58,0,120
2,note_on,59,58,0
2,note_on,59,0,240
2,note_on,54,49,0
2,note_on,54,0,240
2,note_on,55,49,0
2,note_on,55,0,120
2,note_on,52,53,120
2,note_on,52,0,120
2,note_on,49,49,120
2,note_on,49,0,120
2,note_on,66,49,120
2,note_on,66,0,120
2,note_on,63,53,120
2,note_on,63,0,240
2,note_on,59,49,0
2,note_on,59,0,240
2,note_on,64,49,0
2,note_on,64,0,120
2,note_on,61,53,120
2,note_on,61,0,120
2,note_on,57,49,120
2,note_on,57,0,120
2,note_on,50,49,120
2,note_on,50,0,120
2,note_on,47,54,120
2,note_on,47,0,240
2,note_on,43,50,0
2,note_on,43,0,120
2,note_on,49,50,120
2,note_on,49,0,120
2,note_on,46,53,120
2,note_on,46,0,120
2,note_on,42,49,120
2,note_on,42,0,120
2,note_on,59,49,120
2,note_on,59,0,120
2,note_on,56,53,120
2,note_on,56,0,240
2,note_on,52,49,0
2,note_on,52,0,120
2,note_on,57,49,120
2,note_on,57,0,120
2,note_on,54,53,120
2,note_on,54,0,240
2,note_on,50,50,0
2,note_on,50,0,120
2,note_on,55,50,120
2,note_on,55,0,120
2,note_on,36,59,120
2,note_on,48,59,0
2,note_on,48,0,1440
2,note_on,36,0,0
2,note_on,50,47,240
2,note_on,50,0,120
2,note_on,50,47,120
2,note_on,50,0,120
2,note_on,50,53,120
2,note_on,50,0,120
2,note_on,52,47,0
2,note_on,52,0,120
2,note_on,50,53,0
2,note_on,50,0,120
2,note_on,48,51,0
2,note_on,48,0,120
2,note_on,47,50,0
2,note_on,47,0,120
2,note_on,45,48,0
2,note_on,45,0,120
2,note_on,43,47,0
2,note_on,43,0,240
2,note_on,60,25,1440
2,note_on,57,25,0
2,note_on,62,30,0
2,note_on,62,0,120
2,note_on,57,0,0
2,note_on,60,0,0
2,note_on,57,25,120
2,note_on,62,30,0
2,note_on,60,25,0
2,note_on,60,0,120
2,note_on,62,0,0
2,note_on,57,0,0
2,note_on,57,28,120
2,note_on,60,28,0
2,note_on,62,34,0
2,note_on,62,0,120
2,note_on,60,0,0
2,note_on,57,0,0
2,note_on,57,25,120
2,note_on,60,25,0
2,note_on,62,30,0
2,note_on,62,0,120
2,note_on,60,0,0
2,note_on,57,0,0
2,note_on,62,29,120
2,note_on,57,25,0
2,note_on,60,25,0
2,note_on,60,0,120
2,note_on,57,0,0
2,note_on,62,0,0
2,note_on,59,34,120
2,note_on,62,41,0
2,note_on,62,0,240
2,note_on,59,0,0
2,note_on,62,33,1440
2,note_on,54,28,0
2,note_on,57,28,0
2,note_on,57,0,120
2,note_on,54,0,0
2,note_on,62,0,0
2,note_on,54,27,120
2,note_on,57,27,0
2,note_on,62,32,0
2,note_on,62,0,120
2,note_on,57,0,0
2,note_on,54,0,0
2,note_on,57,30,120
2,note_on,62,36,0
2,note_on,54,30,0
2,note_on,54,0,120
2,note_on,62,0,0
2,note_on,57,0,0
2,note_on,57,26,120
2,note_on,62,31,0
2,note_on,54,26,0
2,note_on,54,0,120
2,note_on,62,0,0
2,note_on,57,0,0
2,note_on,62,31,120
2,note_on,57,25,0
2,note_on,54,25,0
2,note_on,54,0,120
2,note_on,57,0,0
2,note_on,62,0,0
2,note_on,62,42,120
2,note_on,55,35,0
2,note_on,55,0,120
2,note_on,62,0,0
2,note_on,59,35,600
2,note_on,62,42,0
2,note_on,62,0,120
2,note_on,59,0,0
2,note_on,67,42,600
2,note_on,60,35,0
2,note_on,60,0,120
2,note_on,67,0,0
2,note_on,67,42,600
2,note_on,64,35,0
2,note_on,64,0,120
2,note_on,67,0,0
2,note_on,62,38,600
2,note_on,62,0,240
2,note_on,61,40,0
2,note_on,61,0,240
2,note_on,60,42,0
2,note_on,60,0,240
2,note_on,59,44,0
2,note_on,59,0,240
2,note_on,60,43,0
2,note_on,60,0,240
2,note_on,64,39,0
2,note_on,64,0,240
2,note_on,62,41,240
2,note_on,62,0,120
2,note_on,62,41,120
2,note_on,62,0,120
2,note_on,62,38,120
2,note_on,62,0,120
2,note_on,64,40,0
2,note_on,64,0,120
2,note_on,62,42,0
2,note_on,62,0,120
2,note_on,60,44,0
2,note_on,60,0,120
2,note_on,59,42,0
2,note_on,59,0,120
2,note_on,57,40,0
2,note_on,57,0,120
2,note_on,55,47,0
2,note_on,55,0,240
2,note_on,60,25,1440
2,note_on,57,25,0
2,note_on,62,30,0
2,note_on,62,0,120
2,note_on,57,0,0
2,note_on,60,0,0
2,note_on,62,30,120
2,note_on,60,25,0
2,note_on,57,25,0
2,note_on,57,0,120
2,note_on,60,0,0
2,note_on,62,0,0
2,note_on,60,28,120
2,note_on,57,28,0
2,note_on,62,34,0
2,note_on,62,0,120
2,note_on,57,0,0
2,note_on,60,0,0
2,note_on,62,30,120
2,note_on,60,25,0
2,note_on,57,25,0
2,note_on,57,0,120
2,note_on,60,0,0
2,note_on,62,0,0
2,note_on,62,29,120
2,note_on,60,25,0
2,note_on,57,25,0
2,note_on,57,0,120
2,note_on,60,0,0
2,note_on,62,0,0
2,note_on,59,34,120
2,note_on,62,41,0
2,note_on,62,0,240
2,note_on,59,0,0
2,note_on,54,28,1440
2,note_on,57,28,0
2,note_on,62,33,0
2,note_on,62,0,120
2,note_on,57,0,0
2,note_on,54,0,0
2,note_on,54,27,120
2,note_on,57,27,0
2,note_on,62,32,0
2,note_on,62,0,120
2,note_on,57,0,0
2,note_on,54,0,0
2,note_on,62,36,120
2,note_on,57,30,0
2,note_on,54,30,0
2,note_on,54,0,120
2,note_on,57,0,0
2,note_on,62,0,0
2,note_on,62,31,120
2,note_on,57,26,0
2,note_on,54,26,0
2,note_on,54,0,120
2,note_on,57,0,0
2,note_on,62,0,0
2,note_on,62,31,120
2,note_on,54,25,0
2,note_on,57,25,0
2,note_on,57,0,120
2,note_on,54,0,0
2,note_on,62,0,0
2,note_on,55,35,120
2,note_on,62,42,0
2,note_on,62,0,120
2,note_on,55,0,0
2,note_on,59,35,600
2,note_on,62,42,0
2,note_on,62,0,120
2,note_on,59,0,0
2,note_on,60,35,600
2,note_on,67,42,0
2,note_on,67,0,120
2,note_on,60,0,0
2,note_on,64,35,600
2,note_on,67,42,0
2,note_on,67,0,120
2,note_on,64,0,0
2,note_on,50,38,600
2,note_on,62,38,0
2,note_on,62,0,1440
2,note_on,50,0,0
2,note_on,55,46,0
2,note_on,55,0,120
2,note_on,47,45,360
2,note_on,47,0,120
2,note_on,50,45,0
2,note_on,50,0,120
2,note_on,55,52,0
2,note_on,55,0,120
2,note_on,50,48,360
2,note_on,50,0,120
2,note_on,55,48,0
2,note_on,55,0,120
2,note_on,59,57,0
2,note_on,59,0,120
2,note_on,55,51,360
2,note_on,55,0,120
2,note_on,59,51,0
2,note_on,59,0,120
2,note_on,62,57,0
2,note_on,62,0,120
2,note_on,59,48,360
2,note_on,59,0,120
2,note_on,62,48,0
2,note_on,62,0,120
2,note_on,67,57,0
2,note_on,67,0,120
2,note_on,66,27,2040
2,note_on,69,32,0
2,note_on,59,29,0
2,note_on,59,0,720
2,note_on,69,0,0
2,note_on,66,0,0
2,note_on,67,35,0
2,note_on,64,29,0
2,note_on,64,0,240
2,note_on,67,0,0
2,note_on,69,32,1920
2,note_on,66,27,0
2,note_on,59,29,0
2,note_on,59,0,720
2,note_on,66,0,0
2,note_on,69,0,0
2,note_on,64,29,0
2,note_on,67,35,0
2,note_on,67,0,240
2,note_on,64,0,0
2,note_on,57,29,1920
2,note_on,64,27,0
2,note_on,67,32,0
2,note_on,67,0,720
2,note_on,64,0,0
2,note_on,57,0,0
2,note_on,66,35,0
2,note_on,62,29,0
2,note_on,62,0,240
2,note_on,66,0,0
2,note_on,64,27,1920
2,note_on,57,29,0
2,note_on,67,32,0
2,note_on,67,0,720
2,note_on,57,0,0
2,note_on,64,0,0
2,note_on,62,29,0
2,note_on,66,35,0
2,note_on,66,0,240
2,note_on,62,0,0
2,note_on,59,27,1920
2,note_on,52,29,0
2,note_on,62,32,0
2,note_on,62,0,720
2,note_on,52,0,0
2,note_on,59,0,0
2,note_on,57,29,0
2,note_on,61,35,0
2,note_on,61,0,240
2,note_on,57,0,0
2,note_on,62,32,1920
2,note_on,52,29,0
2,note_on,59,27,0
2,note_on,59,0,720
2,note_on,52,0,0
2,note_on,62,0,0
2,note_on,57,30,0
2,note_on,45,25,0
2,note_on,45,0,228
2,note_on,57,0,0
2,note_on,45,20,12
2,note_on,57,24,0
2,note_on,57,0,228
2,note_on,45,0,0
2,note_on,45,20,12
2,note_on,57,24,0
2,note_on,57,0,228
2,note_on,45,0,0
2,note_on,45,25,12
2,note_on,57,30,0
2,note_on,57,0,228
2,note_on,45,0,0
2,note_on,57,23,12
2,note_on,45,19,0
2,note_on,45,0,228
2,note_on,57,0,0
2,note_on,57,23,12
2,note_on,45,19,0
2,note_on,45,0,228
2,note_on,57,0,0
2,note_on,56,32,12
2,note_on,45,27,0
2,note_on,45,0,228
2,note_on,56,0,0
2,note_on,56,27,12
2,note_on,45,23,0
2,note_on,45,0,228
2,note_on,56,0,0
2,note_on,45,23,12
2,note_on,56,28,0
2,note_on,56,0,228
2,note_on,45,0,0
2,note_on,56,38,12
2,note_on,45,32,0
2,note_on,45,0,228
2,note_on,56,0,0
2,note_on,45,24,12
2,note_on,56,30,0
2,note_on,56,0,228
2,note_on,45,0,0
2,note_on,56,32,12
2,note_on,45,27,0
2,note_on,45,0,228
2,note_on,56,0,0
2,note_on,55,44,12
2,note_on,45,37,0
2,note_on,45,0,228
2,note_on,55,0,0
2,note_on,45,30,12
2,note_on,55,36,0
2,note_on,55,0,228
2,note_on,45,0,0
2,note_on,45,32,12
2,note_on,55,38,0
2,note_on,55,0,228
2,note_on,45,0,0
2,note_on,45,42,12
2,note_on,54,50,0
2,note_on,54,0,228
2,note_on,45,0,0
2,note_on,45,33,12
2,note_on,54,40,0
2,note_on,54,0,228
2,note_on,45,0,0
2,note_on,54,42,12
2,note_on,45,35,0
2,note_on,45,0,228
2,note_on,54,0,0
2,note_on,52,57,12
2,note_on,45,48,0
2,note_on,45,0,228
2,note_on,52,0,0
2,note_on,45,42,12
2,note_on,52,50,0
2,note_on,52,0,228
2,note_on,45,0,0
2,note_on,45,45,12
2,note_on,52,54,0
2,note_on,52,0,228
2,note_on,45,0,0
2,note_on,50,64,12
2,note_on,45,53,0
2,note_on,45,0,228
2,note_on,50,0,0
2,note_on,50,56,12
2,note_on,45,47,0
2,note_on,45,0,228
2,note_on,50,0,0
2,note_on,50,59,12
2,note_on,45,49,0
2,note_on,45,0,228
2,note_on,50,0,0
2,note_on,57,58,12
2,note_on,52,49,0
2,note_on,49,49,0
2,note_on,45,49,0
2,note_on,45,0,1440
2,note_on,57,0,0
2,note_on,52,0,0
2,note_on,49,0,0
2,note_on,62,26,11760
2,note_on,66,31,0
2,note_on,66,0,720
2,note_on,62,0,0
2,note_on,68,31,0
2,note_on,59,26,0
2,note_on,59,0,720
2,note_on,68,0,0
2,note_on,69,31,0
2,note_on,57,26,0
2,note_on,57,0,720
2,note_on,69,0,0
2,note_on,64,31,720
2,note_on,57,26,0
2,note_on,57,0,720
2,note_on,64,0,0
2,note_on,61,26,0
2,note_on,64,31,0
2,note_on,64,0,720
2,note_on,61,0,0
2,note_on,62,26,0
2,note_on,69,31,0
2,note_on,69,0,720
2,note_on,62,0,0
2,note_on,50,51,0
2,note_on,50,0,240
2,note_on,62,45,0
2,note_on,62,0,120
2,note_on,64,48,120
2,note_on,64,0,120
2,note_on,66,52,120
2,note_on,66,0,240
2,note_on,50,50,480
2,note_on,50,0,240
2,note_on,62,44,0
2,note_on,62,0,120
2,note_on,64,48,120
2,note_on,64,0,120
2,note_on,66,53,120
2,note_on,66,0,240
2,note_on,55,50,480
2,note_on,55,0,240
2,note_on,67,44,0
2,note_on,67,0,120
2,note_on,64,48,120
2,note_on,64,0,120
2,note_on,54,45,120
2,note_on,66,53,0
2,note_on,66,0,240
2,note_on,54,0,0
2,note_on,67,53,480
2,note_on,55,45,0
2,note_on,55,0,240
2,note_on,67,0,0
2,note_on,57,45,480
2,note_on,69,53,0
2,note_on,69,0,240
2,note_on,57,0,0
2,note_on,50,26,1200
2,note_on,54,31,0
2,note_on,54,0,720
2,note_on,50,0,0
2,note_on,56,31,0
2,note_on,47,26,0
2,note_on,47,0,720
2,note_on,56,0,0
2,note_on,45,26,0
2,note_on,57,31,0
2,note_on,57,0,720
2,note_on,45,0,0
2,note_on,52,31,720
2,note_on,45,26,0
2,note_on,45,0,720
2,note_on,52,0,0
2,note_on,52,31,0
2,note_on,49,26,0
2,note_on,49,0,720
2,note_on,52,0,0
2,note_on,57,31,0
2,note_on,50,26,0
2,note_on,50,0,720
2,note_on,57,0,0
2,note_on,50,51,0
2,note_on,50,0,240
2,note_on,62,45,0
2,note_on,62,0,120
2,note_on,64,48,120
2,note_on,64,0,120
2,note_on,66,52,120
2,note_on,66,0,240
2,note_on,43,50,480
2,note_on,43,0,240
2,note_on,55,44,0
2,note_on,55,0,120
2,note_on,57,48,120
2,note_on,57,0,120
2,note_on,59,53,120
2,note_on,59,0,240
2,note_on,64,53,480
2,note_on,59,45,0
2,note_on,55,45,10
2,note_on,59,0,110
2,note_on,64,0,0
2,note_on,55,0,10
2,note_on,66,53,590
2,note_on,62,45,0
2,note_on,57,45,0
2,note_on,57,0,120
2,note_on,62,0,0
2,note_on,66,0,0
2,note_on,67,53,600
2,note_on,64,45,0
2,note_on,57,45,0
2,note_on,57,0,120
2,note_on,64,0,0
2,note_on,67,0,0
2,note_on,66,53,600
2,note_on,62,45,0
2,note_on,62,0,120
2,note_on,66,0,0
2,note_on,38,44,840
2,note_on,50,44,0
2,note_on,50,0,90
2,note_on,38,0,0
2,note_on,50,44,150
2,note_on,38,44,0
2,note_on,38,0,90
2,note_on,50,0,0
2,note_on,50,52,150
2,note_on,38,52,0
2,note_on,38,0,480
2,note_on,50,0,0
2,note_on,38,44,0
2,note_on,50,44,0
2,note_on,50,0,90
2,note_on,38,0,0
2,note_on,38,44,150
2,note_on,50,44,0
2,note_on,50,0,480
2,note_on,38,0,0
2,note_on,50,44,0
2,note_on,38,44,0
2,note_on,38,0,90
2,note_on,50,0,0
2,note_on,36,52,150
2,note_on,48,52,0
2,note_on,48,0,480
2,note_on,36,0,0
2,note_on,74,30,960
2,note_on,72,25,0
2,note_on,72,0,90
2,note_on,74,0,0
2,note_on,74,30,150
2,note_on,72,25,0
2,note_on,72,0,90
2,note_on,74,0,0
2,note_on,72,25,150
2,note_on,74,30,0
2,note_on,74,0,90
2,note_on,72,0,0
2,note_on,72,25,150
2,note_on,74,30,0
2,note_on,74,0,90
2,note_on,72,0,0
2,note_on,72,25,150
2,note_on,74,30,0
2,note_on,74,0,90
2,note_on,72,0,0
2,note_on,74,30,150
2,note_on,72,25,0
2,note_on,72,0,90
2,note_on,74,0,0
2,note_on,74,35,150
2,note_on,71,29,0
2,note_on,71,0,960
2,note_on,74,0,0
2,note_on,35,44,0
2,note_on,47,44,0
2,note_on,47,0,90
2,note_on,35,0,0
2,note_on,35,44,150
2,note_on,47,44,0
2,note_on,47,0,90
2,note_on,35,0,0
2,note_on,33,52,150
2,note_on,45,52,0
2,note_on,45,0,480
2,note_on,33,0,0
2,note_on,45,44,0
2,note_on,33,44,0
2,note_on,33,0,90
2,note_on,45,0,0
2,note_on,31,44,150
2,note_on,43,44,0
2,note_on,43,0,480
2,note_on,31,0,0
2,note_on,31,44,0
2,note_on,43,44,0
2,note_on,43,0,90
2,note_on,31,0,0
2,note_on,42,52,150
2,note_on,30,52,0
2,note_on,30,0,480
2,note_on,42,0,0
2,note_on,54,40,960
2,note_on,57,30,240
2,note_on,57,0,240
2,note_on,62,26,0
2,note_on,62,0,240
2,note_on,54,0,0
2,note_on,54,40,0
2,note_on,57,30,240
2,note_on,57,0,240
2,note_on,62,27,0
2,note_on,62,0,240
2,note_on,54,0,0
2,note_on,55,40,0
2,note_on,59,33,240
2,note_on,59,0,240
2,note_on,62,36,0
2,note_on,62,0,240
2,note_on,55,0,0
2,note_on,55,40,0
2,note_on,59,33,240
2,note_on,59,0,240
2,note_on,62,33,0
2,note_on,62,0,240
2,note_on,55,0,0
2,note_on,54,40,0
2,note_on,57,34,240
2,note_on,57,0,240
2,note_on,62,31,0
2,note_on,62,0,240
2,note_on,54,0,0
2,note_on,54,40,0
2,note_on,57,33,240
2,note_on,57,0,240
2,note_on,62,28,0
2,note_on,62,0,240
2,note_on,54,0,0
2,note_on,55,40,0
2,note_on,59,34,240
2,note_on,59,0,240
2,note_on,62,37,0
2,note_on,62,0,240
2,note_on,55,0,0
2,note_on,55,40,0
2,note_on,59,34,240
2,note_on,59,0,240
2,note_on,62,34,0
2,note_on,62,0,240
2,note_on,55,0,0
2,note_on,51,40,0
2,note_on,54,33,240
2,note_on,54,0,240
2,note_on,59,30,0
2,note_on,59,0,240
2,note_on,51,0,0
2,note_on,51,40,0
2,note_on,54,34,240
2,note_on,54,0,240
2,note_on,59,32,0
2,note_on,59,0,240
2,note_on,51,0,0
2,note_on,52,40,0
2,note_on,55,33,240
2,note_on,55,0,240
2,note_on,59,30,0
2,note_on,59,0,240
2,note_on,52,0,0
2,note_on,52,40,0
2,note_on,55,34,240
2,note_on,55,0,240
2,note_on,59,32,0
2,note_on,59,0,240
2,note_on,52,0,0
2,note_on,49,40,0
2,note_on,52,33,240
2,note_on,52,0,240
2,note_on,57,30,0
2,note_on,57,0,240
2,note_on,49,0,0
2,note_on,49,40,0
2,note_on,52,34,240
2,note_on,52,0,240
2,note_on,57,32,0
2,note_on,57,0,240
2,note_on,49,0,0
2,note_on,50,40,0
2,note_on,54,33,240
2,note_on,54,0,240
2,note_on,57,30,0
2,note_on,57,0,240
2,note_on,50,0,0
2,note_on,50,40,0
2,note_on,54,34,240
2,note_on,54,0,240
2,note_on,57,32,0
2,note_on,57,0,240
2,note_on,50,0,0
2,note_on,55,46,0
2,note_on,55,0,480
2,note_on,67,45,240
2,note_on,67,0,120
2,note_on,66,42,0
2,note_on,66,0,120
2,note_on,64,43,0
2,note_on,64,0,120
2,note_on,62,46,0
2,note_on,62,0,120
2,note_on,61,48,0
2,note_on,61,0,120
2,note_on,59,51,0
2,note_on,59,0,120
2,note_on,57,54,0
2,note_on,57,0,90
2,note_on,45,42,150
2,note_on,57,50,0
2,note_on,57,0,90
2,note_on,45,0,0
2,note_on,45,42,150
2,note_on,57,50,0
2,note_on,57,0,90
2,note_on,45,0,0
2,note_on,45,45,150
2,note_on,57,54,0
2,note_on,57,0,90
2,note_on,45,0,0
2,note_on,62,41,2070
2,note_on,62,0,720
2,note_on,61,46,0
2,note_on,61,0,240
2,note_on,62,44,0
2,note_on,62,0,240
2,note_on,61,44,0
2,note_on,61,0,240
2,note_on,59,51,0
2,note_on,59,0,1200
2,note_on,55,36,0
2,note_on,55,0,240
2,note_on,57,41,0
2,note_on,57,0,240
2,note_on,59,37,0
2,note_on,59,0,240
2,note_on,61,37,0
2,note_on,61,0,240
2,note_on,62,42,0
2,note_on,62,0,240
2,note_on,64,38,0
2,note_on,64,0,240
2,note_on,66,38,0
2,note_on,66,0,240
2,note_on,67,42,0
2,note_on,71,35,0
2,note_on,74,35,0
2,note_on,67,0,720
2,note_on,68,42,0
2,note_on,68,0,720
2,note_on,74,0,0
2,note_on,71,0,0
2,note_on,73,35,0
2,note_on,69,42,0
2,note_on,69,0,720
2,note_on,73,0,0
2,note_on,69,35,0
2,note_on,73,35,0
2,note_on,67,42,0
2,note_on,67,0,720
2,note_on,73,0,0
2,note_on,69,0,0
2,note_on,74,35,0
2,note_on,69,29,0
2,note_on,66,29,0
2,note_on,66,0,240
2,note_on,69,0,0
2,note_on,74,0,0
2,note_on,67,35,480
2,note_on,67,0,480
2,note_on,62,31,0
2,note_on,59,26,0
2,note_on,59,0,240
2,note_on,62,0,0
2,note_on,62,36,0
2,note_on,57,30,0
2,note_on,62,0,720
2,note_on,61,32,0
2,note_on,61,0,240
2,note_on,57,0,0
2,note_on,59,41,1920
2,note_on,59,0,720
2,note_on,57,46,0
2,note_on,57,0,240
2,note_on,59,44,0
2,note_on,59,0,240
2,note_on,57,44,0
2,note_on,57,0,240
2,note_on,55,51,0
2,note_on,55,0,480
2,note_on,54,36,0
2,note_on,54,0,240
2,note_on,52,51,0
2,note_on,52,0,480
2,note_on,50,36,0
2,note_on,50,0,240
2,note_on,49,41,0
2,note_on,49,0,480
2,note_on,45,37,0
2,note_on,45,0,240
2,note_on,50,42,0
2,note_on,50,0,240
2,note_on,52,38,0
2,note_on,52,0,240
2,note_on,54,38,0
2,note_on,54,0,240
2,note_on,59,35,0
2,note_on,55,42,0
2,note_on,62,35,0
2,note_on,55,0,720
2,note_on,56,42,0
2,note_on,56,0,720
2,note_on,62,0,0
2,note_on,59,0,0
2,note_on,61,35,0
2,note_on,55,42,0
2,note_on,57,42,0
2,note_on,57,0,720
2,note_on,55,0,0
2,note_on,61,0,0
2,note_on,60,35,0
2,note_on,57,35,0
2,note_on,54,42,0
2,note_on,54,0,720
2,note_on,57,0,0
2,note_on,60,0,0
2,note_on,59,42,0
2,note_on,55,35,0
2,note_on,55,0,120
2,note_on,59,0,0
2,note_on,57,47,600
2,note_on,57,0,120
2,note_on,50,60,600
2,note_on,50,0,120
2,note_on,57,44,0
2,note_on,57,0,120
2,note_on,54,44,0
2,note_on,54,0,120
2,note_on,57,44,0
2,note_on,57,0,120
2,note_on,54,44,0
2,note_on,54,0,120
2,note_on,57,44,0
2,note_on,57,0,120
2,note_on,50,55,0
2,note_on,50,0,120
2,note_on,57,48,0
2,note_on,57,0,120
2,note_on,54,45,0
2,note_on,54,0,120
2,note_on,57,43,0
2,note_on,57,0,120
2,note_on,54,43,0
2,note_on,54,0,120
2,note_on,57,43,0
2,note_on,57,0,120
2,note_on,52,60,0
2,note_on,52,0,120
2,note_on,57,44,0
2,note_on,57,0,120
2,note_on,55,44,0
2,note_on,55,0,120
2,note_on,57,44,0
2,note_on,57,0,120
2,note_on,55,44,0
2,note_on,55,0,120
2,note_on,57,44,0
2,note_on,57,0,120
2,note_on,49,55,0
2,note_on,49,0,120
2,note_on,57,42,0
2,note_on,57,0,120
2,note_on,52,42,0
2,note_on,52,0,120
2,note_on,57,42,0
2,note_on,57,0,120
2,note_on,52,42,0
2,note_on,52,0,120
2,note_on,57,42,0
2,note_on,57,0,120
2,note_on,50,51,0
2,note_on,50,0,120
2,note_on,57,39,0
2,note_on,57,0,120
2,note_on,54,39,0
2,note_on,54,0,120
2,note_on,57,39,0
2,note_on,57,0,120
2,note_on,54,39,0
2,note_on,54,0,120
2,note_on,57,39,0
2,note_on,57,0,120
2,note_on,50,50,0
2,note_on,50,0,120
2,note_on,57,40,0
2,note_on,57,0,120
2,note_on,54,40,0
2,note_on,54,0,120
2,note_on,57,40,0
2,note_on,57,0,120
2,note_on,54,40,0
2,note_on,54,0,120
2,note_on,57,40,0
2,note_on,57,0,120
2,note_on,52,60,0
2,note_on,52,0,120
2,note_on,57,44,0
2,note_on,57,0,120
2,note_on,55,44,0
2,note_on,55,0,120
2,note_on,57,44,0
2,note_on,57,0,120
2,note_on,55,44,0
2,note_on,55,0,120
2,note_on,57,44,0
2,note_on,57,0,120
2,note_on,49,55,0
2,note_on,49,0,120
2,note_on,57,42,0
2,note_on,57,0,120
2,note_on,52,42,0
2,note_on,52,0,120
2,note_on,57,42,0
2,note_on,57,0,120
2,note_on,52,42,0
2,note_on,52,0,120
2,note_on,57,42,0
2,note_on,57,0,120
2,note_on,50,51,0
2,note_on,50,0,120
2,note_on,57,39,0
2,note_on,57,0,120
2,note_on,54,39,0
2,note_on,54,0,120
2,note_on,57,39,0
2,note_on,57,0,120
2,note_on,54,39,0
2,note_on,54,0,120
2,note_on,57,39,0
2,note_on,57,0,120
2,note_on,50,50,0
2,note_on,50,0,120
2,note_on,57,40,0
2,note_on,57,0,120
2,note_on,54,40,0
2,note_on,54,0,120
2,note_on,57,40,0
2,note_on,57,0,120
2,note_on,54,40,0
2,note_on,54,0,120
2,note_on,57,40,0
2,note_on,57,0,120
2,note_on,55,45,0
2,note_on,55,0,120
2,note_on,67,34,600
2,note_on,74,40,0
2,note_on,74,0,120
2,note_on,67,0,0
2,note_on,66,34,600
2,note_on,74,40,0
2,note_on,74,0,120
2,note_on,66,0,0
2,note_on,74,40,600
2,note_on,67,34,0
2,note_on,67,0,120
2,note_on,74,0,0
2,note_on,69,34,600
2,note_on,74,40,0
2,note_on,74,0,120
2,note_on,69,0,0
2,note_on,69,34,600
2,note_on,73,40,0
2,note_on,73,0,120
2,note_on,69,0,0
2,note_on,50,60,600
2,note_on,50,0,120
2,note_on,57,44,0
2,note_on,57,0,120
2,note_on,54,44,0
2,note_on,54,0,120
2,note_on,57,44,0
2,note_on,57,0,120
2,note_on,54,44,0
2,note_on,54,0,120
2,note_on,57,44,0
2,note_on,57,0,120
2,note_on,50,55,0
2,note_on,50,0,120
2,note_on,57,48,0
2,note_on,57,0,120
2,note_on,54,45,0
2,note_on,54,0,120
2,note_on,57,43,0
2,note_on,57,0,120
2,note_on,54,43,0
2,note_on,54,0,120
2,note_on,57,43,0
2,note_on,57,0,120
2,note_on,52,60,0
2,note_on,52,0,120
2,note_on,57,44,0
2,note_on,57,0,120
2,note_on,55,44,0
2,note_on,55,0,120
2,note_on,57,44,0
2,note_on,57,0,120
2,note_on,55,44,0
2,note_on,55,0,120
2,note_on,57,44,0
2,note_on,57,0,120
2,note_on,49,55,0
2,note_on,49,0,120
2,note_on,57,42,0
2,note_on,57,0,120
2,note_on,52,42,0
2,note_on,52,0,120
2,note_on,57,42,0
2,note_on,57,0,120
2,note_on,52,42,0
2,note_on,52,0,120
2,note_on,57,42,0
2,note_on,57,0,120
2,note_on,50,51,0
2,note_on,50,0,120
2,note_on,57,39,0
2,note_on,57,0,120
2,note_on,54,39,0
2,note_on,54,0,120
2,note_on,57,39,0
2,note_on,57,0,120
2,note_on,54,39,0
2,note_on,54,0,120
2,note_on,57,39,0
2,note_on,57,0,120
2,note_on,50,50,0
2,note_on,50,0,120
2,note_on,57,40,0
2,note_on,57,0,120
2,note_on,54,40,0
2,note_on,54,0,120
2,note_on,57,40,0
2,note_on,57,0,120
2,note_on,54,40,0
2,note_on,54,0,120
2,note_on,57,40,0
2,note_on,57,0,120
2,note_on,52,60,0
2,note_on,52,0,120
2,note_on,57,44,0
2,note_on,57,0,120
2,note_on,55,44,0
2,note_on,55,0,120
2,note_on,57,44,0
2,note_on,57,0,120
2,note_on,55,44,0
2,note_on,55,0,120
2,note_on,57,44,0
2,note_on,57,0,120
2,note_on,49,55,0
2,note_on,49,0,120
2,note_on,57,42,0
2,note_on,57,0,120
2,note_on,52,42,0
2,note_on,52,0,120
2,note_on,57,42,0
2,note_on,57,0,120
2,note_on,52,42,0
2,note_on,52,0,120
2,note_on,57,42,0
2,note_on,57,0,120
2,note_on,50,51,0
2,note_on,50,0,120
2,note_on,57,39,0
2,note_on,57,0,120
2,note_on,54,39,0
2,note_on,54,0,120
2,note_on,57,39,0
2,note_on,57,0,120
2,note_on,54,39,0
2,note_on,54,0,120
2,note_on,57,39,0
2,note_on,57,0,120
2,note_on,50,50,0
2,note_on,50,0,120
2,note_on,57,40,0
2,note_on,57,0,120
2,note_on,54,40,0
2,note_on,54,0,120
2,note_on,57,40,0
2,note_on,57,0,120
2,note_on,54,40,0
2,note_on,54,0,120
2,note_on,57,40,0
2,note_on,57,0,120
2,note_on,55,45,0
2,note_on,55,0,120
2,note_on,74,40,600
2,note_on,67,34,0
2,note_on,67,0,120
2,note_on,74,0,0
2,note_on,74,40,600
2,note_on,66,34,0
2,note_on,66,0,120
2,note_on,74,0,0
2,note_on,74,40,600
2,note_on,67,34,0
2,note_on,67,0,120
2,note_on,74,0,0
2,note_on,74,40,600
2,note_on,69,34,0
2,note_on,69,0,120
2,note_on,74,0,0
2,note_on,73,40,600
2,note_on,69,34,0
2,note_on,69,0,120
2,note_on,73,0,0
2,note_on,55,55,600
2,note_on,62,63,0
2,note_on,62,0,120
2,note_on,55,0,0
2,note_on,62,57,600
2,note_on,55,48,0
2,note_on,55,0,120
2,note_on,62,0,0
2,note_on,62,57,600
2,note_on,54,48,0
2,note_on,54,0,120
2,note_on,62,0,0
2,note_on,55,48,600
2,note_on,62,57,0
2,note_on,62,0,120
2,note_on,55,0,0
2,note_on,62,57,600
2,note_on,57,48,0
2,note_on,57,0,120
2,note_on,62,0,0
2,note_on,57,48,600
2,note_on,61,57,0
2,note_on,61,0,120
2,note_on,57,0,0
2,note_on,50,67,600
2,note_on,50,0,120
2,note_on,62,44,0
2,note_on,62,0,120
2,note_on,61,48,0
2,note_on,61,0,120
2,note_on,62,44,0
2,note_on,62,0,120
2,note_on,61,48,0
2,note_on,61,0,120
2,note_on,62,44,0
2,note_on,62,0,120
2,note_on,47,62,0
2,note_on,47,0,120
2,note_on,59,43,0
2,note_on,59,0,120
2,note_on,58,47,0
2,note_on,58,0,120
2,note_on,59,43,0
2,note_on,59,0,120
2,note_on,58,47,0
2,note_on,58,0,120
2,note_on,59,43,0
2,note_on,59,0,120
2,note_on,43,67,0
2,note_on,43,0,120
2,note_on,55,46,0
2,note_on,55,0,120
2,note_on,54,50,0
2,note_on,54,0,120
2,note_on,55,46,0
2,note_on,55,0,120
2,note_on,54,51,0
2,note_on,54,0,120
2,note_on,55,46,0
2,note_on,55,0,120
2,note_on,45,55,0
2,note_on,45,0,120
2,note_on,57,46,0
2,note_on,57,0,120
2,note_on,56,49,0
2,note_on,56,0,120
2,note_on,57,46,0
2,note_on,57,0,120
2,note_on,56,50,0
2,note_on,56,0,120
2,note_on,57,46,0
2,note_on,57,0,120
2,note_on,50,67,0
2,note_on,50,0,120
2,note_on,62,44,0
2,note_on,62,0,120
2,note_on,61,48,0
2,note_on,61,0,120
2,note_on,62,44,0
2,note_on,62,0,120
2,note_on,61,48,0
2,note_on,61,0,120
2,note_on,62,44,0
2,note_on,62,0,120
2,note_on,47,62,0
2,note_on,47,0,120
2,note_on,59,43,0
2,note_on,59,0,120
2,note_on,58,47,0
2,note_on,58,0,120
2,note_on,59,43,0
2,note_on,59,0,120
2,note_on,58,47,0
2,note_on,58,0,120
2,note_on,59,43,0
2,note_on,59,0,120
2,note_on,43,67,0
2,note_on,43,0,120
2,note_on,55,46,0
2,note_on,55,0,120
2,note_on,54,50,0
2,note_on,54,0,120
2,note_on,55,46,0
2,note_on,55,0,120
2,note_on,54,51,0
2,note_on,54,0,120
2,note_on,55,46,0
2,note_on,55,0,120
2,note_on,45,55,0
2,note_on,45,0,120
2,note_on,57,46,0
2,note_on,57,0,120
2,note_on,56,49,0
2,note_on,56,0,120
2,note_on,57,46,0
2,note_on,57,0,120
2,note_on,56,50,0
2,note_on,56,0,120
2,note_on,57,46,0
2,note_on,57,0,120
2,note_on,61,38,1440
2,note_on,57,32,0
2,note_on,57,0,240
2,note_on,61,0,0
2,note_on,62,41,1200
2,note_on,50,34,0
2,note_on,50,0,240
2,note_on,62,0,0
2,note_on,57,41,1200
2,note_on,64,48,0
2,note_on,61,41,0
2,note_on,61,0,240
2,note_on,64,0,0
2,note_on,57,0,0
2,note_on,66,58,1200
2,note_on,62,48,0
2,note_on,62,0,240
2,note_on,66,0,0
2,note_on,62,29,1200
2,note_on,66,35,0
2,note_on,66,0,720
2,note_on,62,0,0
2,note_on,68,35,0
2,note_on,59,29,0
2,note_on,59,0,720
2,note_on,68,0,0
2,note_on,69,35,0
2,note_on,57,29,0
2,note_on,57,0,720
2,note_on,69,0,0
2,note_on,64,35,720
2,note_on,57,29,0
2,note_on,57,0,720
2,note_on,64,0,0
2,note_on,61,29,0
2,note_on,64,35,0
2,note_on,64,0,720
2,note_on,61,0,0
2,note_on,62,29,0
2,note_on,69,35,0
2,note_on,69,0,720
2,note_on,62,0,0
2,note_on,50,51,0
2,note_on,50,0,240
2,note_on,62,45,0
2,note_on,62,0,120
2,note_on,64,48,120
2,note_on,64,0,120
2,note_on,66,52,120
2,note_on,66,0,240
2,note_on,55,50,480
2,note_on,55,0,240
2,note_on,67,44,0
2,note_on,67,0,120
2,note_on,69,48,120
2,note_on,69,0,120
2,note_on,71,53,120
2,note_on,71,0,240
2,note_on,59,45,480
2,note_on,64,53,0
2,note_on,55,45,0
2,note_on,55,0,240
2,note_on,64,0,0
2,note_on,59,0,0
2,note_on,62,45,480
2,note_on,57,45,0
2,note_on,66,53,10
2,note_on,57,0,110
2,note_on,62,0,0
2,note_on,66,0,10
2,note_on,64,45,590
2,note_on,57,45,0
2,note_on,67,53,10
2,note_on,57,0,110
2,note_on,64,0,0
2,note_on,67,0,10
2,note_on,66,53,590
2,note_on,62,45,0
2,note_on,62,0,120
2,note_on,66,0,0
2,note_on,38,45,360
2,note_on,38,0,120
2,note_on,42,45,0
2,note_on,42,0,120
2,note_on,45,52,0
2,note_on,45,0,120
2,note_on,42,48,360
2,note_on,42,0,120
2,note_on,45,48,0
2,note_on,45,0,120
2,note_on,50,57,0
2,note_on,50,0,120
2,note_on,45,51,360
2,note_on,45,0,120
2,note_on,50,51,0
2,note_on,50,0,120
2,note_on,54,57,0
2,note_on,54,0,120
2,note_on,50,48,360
2,note_on,50,0,120
2,note_on,54,48,0
2,note_on,54,0,120
2,note_on,57,57,0
2,note_on,57,0,120
2,note_on,57,29,1320
2,note_on,66,35,0
2,note_on,62,29,0
2,note_on,62,0,720
2,note_on,66,0,0
2,note_on,64,27,0
2,note_on,67,32,0
2,note_on,67,0,720
2,note_on,64,0,0
2,note_on,62,29,0
2,note_on,66,35,0
2,note_on,66,0,240
2,note_on,62,0,0
2,note_on,57,0,0
2,note_on,57,29,1200
2,note_on,62,29,0
2,note_on,66,35,0
2,note_on,66,0,720
2,note_on,62,0,0
2,note_on,67,32,0
2,note_on,64,27,0
2,note_on,64,0,720
2,note_on,67,0,0
2,note_on,62,29,0
2,note_on,66,35,0
2,note_on,66,0,240
2,note_on,62,0,0
2,note_on,57,0,0
2,note_on,57,29,1200
2,note_on,62,29,0
2,note_on,66,35,0
2,note_on,66,0,720
2,note_on,62,0,0
2,note_on,67,32,0
2,note_on,64,27,0
2,note_on,64,0,720
2,note_on,67,0,0
2,note_on,57,0,0
2,note_on,62,24,0
2,note_on,66,32,0
2,note_on,66,0,240
2,note_on,62,0,0
2,note_on,47,35,480
2,note_on,47,0,720
2,note_on,43,37,0
2,note_on,43,0,720
2,note_on,45,39,0
2,note_on,45,0,720
2,note_on,38,35,0
2,note_on,38,0,240
2,note_on,47,50,480
2,note_on,59,60,0
2,note_on,59,0,120
2,note_on,47,0,0
2,note_on,47,45,120
2,note_on,59,53,0
2,note_on,59,0,120
2,note_on,47,0,0
2,note_on,47,46,120
2,note_on,59,55,0
2,note_on,59,0,120
2,note_on,47,0,0
2,note_on,43,59,120
2,note_on,55,71,0
2,note_on,55,0,120
2,note_on,43,0,0
2,note_on,43,52,120
2,note_on,55,63,0
2,note_on,55,0,120
2,note_on,43,0,0
2,note_on,43,55,120
2,note_on,55,66,0
2,note_on,55,0,120
2,note_on,43,0,0
2,note_on,45,67,120
2,note_on,57,80,0
2,note_on,57,0,120
2,note_on,45,0,0
2,note_on,45,61,120
2,note_on,57,72,0
2,note_on,57,0,120
2,note_on,45,0,0
2,note_on,45,62,120
2,note_on,57,74,0
2,note_on,57,0,120
2,note_on,45,0,0
2,note_on,38,78,120
2,note_on,50,93,0
2,note_on,50,0,120
2,note_on,38,0,0
2,note_on,38,72,600
2,note_on,45,72,0
2,note_on,42,72,0
2,note_on,50,85,0
2,note_on,50,0,120
2,note_on,38,0,0
2,note_on,45,0,0
2,note_on,42,0,0
2,note_on,38,72,600
2,note_on,42,72,0
2,note_on,45,72,0
2,note_on,50,85,0
2,note_on,50,0,120
2,note_on,38,0,0
2,note_on,42,0,0
2,note_on,45,0,0
