Track,Message Type,Note,Velocity,Time
1,note_on,76,60,1
1,note_on,76,0,359
1,note_on,77,54,0
1,note_on,77,0,60
1,note_on,79,54,0
1,note_on,79,0,60
1,note_on,72,60,0
1,note_on,72,0,240
1,note_on,71,49,0
1,note_on,74,49,0
1,note_on,74,0,240
1,note_on,71,0,0
1,note_on,71,53,0
1,note_on,74,53,0
1,note_on,74,0,180
1,note_on,77,48,0
1,note_on,77,0,60
1,note_on,71,0,0
1,note_on,76,53,0
1,note_on,72,53,0
1,note_on,72,0,240
1,note_on,76,0,0
1,note_on,71,50,0
1,note_on,74,50,0
1,note_on,74,0,480
1,note_on,71,0,0
1,note_on,76,60,0
1,note_on,76,0,360
1,note_on,77,56,0
1,note_on,77,0,60
1,note_on,79,56,0
1,note_on,79,0,60
1,note_on,72,61,0
1,note_on,72,0,240
1,note_on,74,49,0
1,note_on,71,49,0
1,note_on,71,0,120
1,note_on,74,0,0
1,note_on,74,54,120
1,note_on,77,54,0
1,note_on,77,0,240
1,note_on,74,0,0
1,note_on,76,49,0
1,note_on,72,49,0
1,note_on,76,0,48
1,note_on,77,49,0
1,note_on,77,0,48
1,note_on,76,49,0
1,note_on,76,0,48
1,note_on,77,49,0
1,note_on,77,0,48
1,note_on,76,49,0
1,note_on,76,0,48
1,note_on,72,0,0
1,note_on,71,52,0
1,note_on,74,52,0
1,note_on,74,0,480
1,note_on,71,0,0
1,note_on,77,64,0
1,note_on,77,0,360
1,note_on,79,60,0
1,note_on,79,0,60
1,note_on,77,60,0
1,note_on,77,0,60
1,note_on,76,64,0
1,note_on,76,0,240
1,note_on,76,62,0
1,note_on,76,0,120
1,note_on,81,69,120
1,note_on,81,0,360
1,note_on,83,63,0
1,note_on,83,0,60
1,note_on,84,63,0
1,note_on,84,0,60
1,note_on,79,69,0
1,note_on,79,0,240
1,note_on,79,69,0
1,note_on,79,0,120
1,note_on,79,68,120
1,note_on,79,0,120
1,note_on,77,63,0
1,note_on,77,0,90
1,note_on,77,64,30
1,note_on,77,0,120
1,note_on,74,63,0
1,note_on,74,0,90
1,note_on,77,69,30
1,note_on,77,0,120
1,note_on,76,64,0
1,note_on,76,0,90
1,note_on,76,66,30
1,note_on,76,0,120
1,note_on,72,64,0
1,note_on,72,0,90
1,note_on,73,64,30
1,note_on,73,0,120
1,note_on,74,60,0
1,note_on,74,0,120
1,note_on,76,64,0
1,note_on,76,0,120
1,note_on,74,62,0
1,note_on,74,0,120
1,note_on,72,63,0
1,note_on,72,0,120
1,note_on,71,61,0
1,note_on,71,0,120
1,note_on,69,61,0
1,note_on,69,0,120
1,note_on,67,60,0
1,note_on,67,0,120
1,note_on,76,70,0
1,note_on,76,0,360
1,note_on,77,64,0
1,note_on,77,0,60
1,note_on,79,64,0
1,note_on,79,0,60
1,note_on,72,70,0
1,note_on,72,0,240
1,note_on,74,60,0
1,note_on,71,60,0
1,note_on,71,0,240
1,note_on,74,0,0
1,note_on,74,63,0
1,note_on,71,63,0
1,note_on,74,0,180
1,note_on,77,57,0
1,note_on,77,0,60
1,note_on,71,0,0
1,note_on,72,63,0
1,note_on,76,63,0
1,note_on,76,0,240
1,note_on,72,0,0
1,note_on,71,61,0
1,note_on,74,61,0
1,note_on,74,0,480
1,note_on,71,0,0
1,note_on,76,70,0
1,note_on,76,0,360
1,note_on,77,67,0
1,note_on,77,0,60
1,note_on,79,67,0
1,note_on,79,0,60
1,note_on,72,71,0
1,note_on,72,0,240
1,note_on,74,60,0
1,note_on,71,60,0
1,note_on,71,0,120
1,note_on,74,0,0
1,note_on,77,64,120
1,note_on,74,64,0
1,note_on,74,0,240
1,note_on,77,0,0
1,note_on,72,60,0
1,note_on,76,60,0
1,note_on,76,0,48
1,note_on,77,60,0
1,note_on,77,0,48
1,note_on,76,60,0
1,note_on,76,0,48
1,note_on,77,60,0
1,note_on,77,0,48
1,note_on,76,60,0
1,note_on,76,0,48
1,note_on,72,0,0
1,note_on,71,62,0
1,note_on,74,62,0
1,note_on,74,0,480
1,note_on,71,0,0
1,note_on,77,77,0
1,note_on,77,0,360
1,note_on,79,70,0
1,note_on,79,0,60
1,note_on,77,70,0
1,note_on,77,0,60
1,note_on,76,77,0
1,note_on,76,0,240
1,note_on,76,74,0
1,note_on,76,0,120
1,note_on,81,78,120
1,note_on,81,0,360
1,note_on,83,71,0
1,note_on,83,0,60
1,note_on,84,69,0
1,note_on,84,0,60
1,note_on,79,79,0
1,note_on,79,0,240
1,note_on,79,77,0
1,note_on,79,0,120
1,note_on,80,77,120
1,note_on,80,0,120
1,note_on,81,74,0
1,note_on,81,0,120
1,note_on,77,75,0
1,note_on,77,0,120
1,note_on,74,72,0
1,note_on,74,0,120
1,note_on,72,75,0
1,note_on,72,0,240
1,note_on,71,71,0
1,note_on,71,0,240
1,note_on,72,75,0
1,note_on,72,0,80
1,note_on,67,69,0
1,note_on,67,0,80
1,note_on,76,66,0
1,note_on,76,0,80
1,note_on,72,75,0
1,note_on,72,0,80
1,note_on,79,69,0
1,note_on,79,0,80
1,note_on,76,66,0
1,note_on,76,0,80
1,note_on,84,73,0
1,note_on,84,0,80
1,note_on,83,66,0
1,note_on,83,0,80
1,note_on,81,65,0
1,note_on,81,0,80
1,note_on,79,70,0
1,note_on,79,0,80
1,note_on,77,67,0
1,note_on,77,0,80
1,note_on,76,65,0
1,note_on,76,0,80
1,note_on,73,63,0
1,note_on,73,0,80
1,note_on,74,60,0
1,note_on,74,0,80
1,note_on,77,60,0
1,note_on,77,0,80
1,note_on,81,62,0
1,note_on,81,0,80
1,note_on,77,57,0
1,note_on,77,0,80
1,note_on,74,57,0
1,note_on,74,0,80
1,note_on,79,61,0
1,note_on,79,0,80
1,note_on,76,57,0
1,note_on,76,0,80
1,note_on,72,57,0
1,note_on,72,0,80
1,note_on,77,61,0
1,note_on,77,0,80
1,note_on,74,55,0
1,note_on,74,0,80
1,note_on,71,55,0
1,note_on,71,0,80
1,note_on,72,75,0
1,note_on,72,0,80
1,note_on,67,69,0
1,note_on,67,0,80
1,note_on,76,67,0
1,note_on,76,0,80
1,note_on,72,75,0
1,note_on,72,0,80
1,note_on,79,69,0
1,note_on,79,0,80
1,note_on,76,67,0
1,note_on,76,0,80
1,note_on,84,73,0
1,note_on,84,0,80
1,note_on,83,66,0
1,note_on,83,0,80
1,note_on,81,64,0
1,note_on,81,0,80
1,note_on,79,70,0
1,note_on,79,0,80
1,note_on,77,67,0
1,note_on,77,0,80
1,note_on,76,65,0
1,note_on,76,0,80
1,note_on,73,63,0
1,note_on,73,0,80
1,note_on,74,60,0
1,note_on,74,0,80
1,note_on,77,59,0
1,note_on,77,0,80
1,note_on,81,62,0
1,note_on,81,0,80
1,note_on,77,57,0
1,note_on,77,0,80
1,note_on,74,55,0
1,note_on,74,0,80
1,note_on,79,61,0
1,note_on,79,0,80
1,note_on,76,57,0
1,note_on,76,0,80
1,note_on,72,54,0
1,note_on,72,0,80
1,note_on,77,61,0
1,note_on,77,0,80
1,note_on,74,55,0
1,note_on,74,0,80
1,note_on,71,55,0
1,note_on,71,0,80
1,note_on,72,52,0
1,note_on,72,0,60
1,note_on,67,50,180
1,note_on,67,0,60
1,note_on,60,50,180
1,note_on,60,0,480
1,note_on,76,50,0
1,note_on,76,0,480
1,note_on,77,46,0
1,note_on,77,0,60
1,note_on,76,46,0
1,note_on,76,0,60
1,note_on,74,46,0
1,note_on,74,0,60
1,note_on,76,46,0
1,note_on,76,0,60
1,note_on,79,50,0
1,note_on,79,0,120
1,note_on,77,46,0
1,note_on,77,0,120
1,note_on,76,51,0
1,note_on,76,0,120
1,note_on,74,49,0
1,note_on,74,0,120
1,note_on,72,49,0
1,note_on,72,0,120
1,note_on,71,49,0
1,note_on,71,0,120
1,note_on,72,52,0
1,note_on,72,0,60
1,note_on,73,55,180
1,note_on,73,0,60
1,note_on,74,56,180
1,note_on,74,0,60
1,note_on,75,60,180
1,note_on,75,0,60
1,note_on,76,63,180
1,note_on,76,0,60
1,note_on,79,62,180
1,note_on,79,0,120
1,note_on,77,57,0
1,note_on,77,0,120
1,note_on,76,62,0
1,note_on,76,0,360
1,note_on,77,55,0
1,note_on,77,0,60
1,note_on,76,55,0
1,note_on,76,0,60
1,note_on,74,56,0
1,note_on,74,0,240
1,note_on,77,58,240
1,note_on,77,0,480
1,note_on,79,48,0
1,note_on,79,0,60
1,note_on,77,49,0
1,note_on,77,0,60
1,note_on,76,49,0
1,note_on,76,0,60
1,note_on,77,49,0
1,note_on,77,0,60
1,note_on,81,55,0
1,note_on,81,0,120
1,note_on,79,52,0
1,note_on,79,0,120
1,note_on,77,52,0
1,note_on,77,0,120
1,note_on,76,50,0
1,note_on,76,0,120
1,note_on,74,50,0
1,note_on,74,0,120
1,note_on,72,50,0
1,note_on,72,0,120
1,note_on,71,49,0
1,note_on,71,0,120
1,note_on,72,50,0
1,note_on,72,0,60
1,note_on,74,51,60
1,note_on,74,0,60
1,note_on,76,53,60
1,note_on,76,0,60
1,note_on,77,54,60
1,note_on,77,0,60
1,note_on,79,55,60
1,note_on,79,0,60
1,note_on,81,56,60
1,note_on,81,0,60
1,note_on,83,58,60
1,note_on,83,0,60
1,note_on,84,60,60
1,note_on,84,0,60
1,note_on,86,61,60
1,note_on,86,0,60
1,note_on,88,62,60
1,note_on,88,0,60
1,note_on,89,63,60
1,note_on,89,0,60
1,note_on,87,79,60
1,note_on,87,0,480
1,note_on,88,75,0
1,note_on,88,0,240
1,note_on,76,64,240
1,note_on,76,0,320
1,note_on,81,60,0
1,note_on,81,0,80
1,note_on,84,60,0
1,note_on,84,0,80
1,note_on,88,60,0
1,note_on,88,0,80
1,note_on,84,58,0
1,note_on,84,0,80
1,note_on,81,58,0
1,note_on,81,0,80
1,note_on,84,60,0
1,note_on,84,0,80
1,note_on,81,58,0
1,note_on,81,0,80
1,note_on,76,58,0
1,note_on,76,0,80
1,note_on,74,64,0
1,note_on,74,0,320
1,note_on,79,60,0
1,note_on,79,0,80
1,note_on,83,60,0
1,note_on,83,0,80
1,note_on,86,60,0
1,note_on,86,0,80
1,note_on,83,59,0
1,note_on,83,0,80
1,note_on,79,59,0
1,note_on,79,0,80
1,note_on,83,60,0
1,note_on,83,0,80
1,note_on,79,58,0
1,note_on,79,0,80
1,note_on,74,58,0
1,note_on,74,0,80
1,note_on,74,60,80
1,note_on,74,0,80
1,note_on,81,60,0
1,note_on,81,0,80
1,note_on,84,60,0
1,note_on,84,0,80
1,note_on,81,58,0
1,note_on,81,0,80
1,note_on,74,60,0
1,note_on,74,0,80
1,note_on,74,60,80
1,note_on,74,0,80
1,note_on,79,60,0
1,note_on,79,0,80
1,note_on,83,60,0
1,note_on,83,0,80
1,note_on,79,59,0
1,note_on,79,0,80
1,note_on,74,60,0
1,note_on,74,0,80
1,note_on,81,68,0
1,note_on,81,0,180
1,note_on,78,63,0
1,note_on,78,0,60
1,note_on,74,60,0
1,note_on,74,0,240
1,note_on,67,43,420
1,note_on,67,0,60
1,note_on,79,64,0
1,note_on,79,0,600
1,note_on,78,50,0
1,note_on,78,0,120
1,note_on,76,50,0
1,note_on,76,0,120
1,note_on,74,50,0
1,note_on,74,0,116
1,note_on,74,53,4
1,note_on,74,0,120
1,note_on,72,49,0
1,note_on,72,0,120
1,note_on,71,50,0
1,note_on,71,0,120
1,note_on,69,47,0
1,note_on,69,0,120
1,note_on,74,54,0
1,note_on,74,0,60
1,note_on,72,51,180
1,note_on,72,0,60
1,note_on,70,53,180
1,note_on,70,0,240
1,note_on,71,51,0
1,note_on,71,0,240
1,note_on,67,43,1380
1,note_on,67,0,60
1,note_on,79,64,0
1,note_on,79,0,600
1,note_on,78,50,0
1,note_on,78,0,120
1,note_on,76,50,0
1,note_on,76,0,120
1,note_on,74,48,0
1,note_on,74,0,115
1,note_on,74,53,5
1,note_on,74,0,120
1,note_on,72,47,0
1,note_on,72,0,120
1,note_on,71,50,0
1,note_on,71,0,120
1,note_on,69,50,0
1,note_on,69,0,120
1,note_on,74,54,0
1,note_on,74,0,60
1,note_on,72,51,180
1,note_on,72,0,60
1,note_on,71,54,180
1,note_on,71,0,240
1,note_on,76,52,240
1,note_on,76,0,60
1,note_on,78,55,0
1,note_on,78,0,60
1,note_on,76,53,0
1,note_on,76,0,60
1,note_on,78,62,0
1,note_on,78,0,60
1,note_on,79,62,0
1,note_on,79,0,120
1,note_on,79,60,0
1,note_on,79,0,60
1,note_on,79,60,60
1,note_on,79,0,240
1,note_on,81,52,240
1,note_on,81,0,60
1,note_on,83,55,0
1,note_on,83,0,60
1,note_on,81,52,0
1,note_on,81,0,60
1,note_on,83,62,0
1,note_on,83,0,60
1,note_on,84,62,0
1,note_on,84,0,120
1,note_on,84,60,0
1,note_on,84,0,60
1,note_on,84,60,60
1,note_on,84,0,240
1,note_on,84,51,240
1,note_on,84,0,60
1,note_on,86,54,0
1,note_on,86,0,60
1,note_on,84,51,0
1,note_on,84,0,60
1,note_on,86,63,0
1,note_on,86,0,60
1,note_on,88,63,0
1,note_on,88,0,120
1,note_on,88,60,0
1,note_on,88,0,60
1,note_on,88,60,60
1,note_on,88,0,120
1,note_on,86,61,0
1,note_on,86,0,120
1,note_on,84,56,0
1,note_on,84,0,60
1,note_on,83,56,60
1,note_on,83,0,60
1,note_on,81,56,60
1,note_on,81,0,60
1,note_on,86,56,180
1,note_on,86,0,60
1,note_on,84,62,180
1,note_on,84,0,240
1,note_on,83,58,0
1,note_on,83,0,240
1,note_on,76,51,0
1,note_on,76,0,60
1,note_on,78,54,0
1,note_on,78,0,60
1,note_on,76,51,0
1,note_on,76,0,60
1,note_on,78,64,0
1,note_on,78,0,60
1,note_on,79,64,0
1,note_on,79,0,120
1,note_on,79,60,0
1,note_on,79,0,60
1,note_on,79,60,60
1,note_on,79,0,240
1,note_on,81,50,240
1,note_on,81,0,60
1,note_on,83,54,0
1,note_on,83,0,60
1,note_on,81,51,0
1,note_on,81,0,60
1,note_on,83,66,0
1,note_on,83,0,60
1,note_on,84,66,0
1,note_on,84,0,120
1,note_on,84,60,0
1,note_on,84,0,60
1,note_on,84,60,60
1,note_on,84,0,240
1,note_on,84,50,240
1,note_on,84,0,60
1,note_on,86,54,0
1,note_on,86,0,60
1,note_on,84,51,0
1,note_on,84,0,60
1,note_on,86,64,0
1,note_on,86,0,60
1,note_on,88,64,0
1,note_on,88,0,120
1,note_on,88,61,0
1,note_on,88,0,60
1,note_on,88,62,60
1,note_on,88,0,120
1,note_on,86,61,0
1,note_on,86,0,120
1,note_on,84,61,0
1,note_on,84,0,60
1,note_on,83,61,60
1,note_on,83,0,60
1,note_on,83,62,60
1,note_on,83,0,120
1,note_on,81,61,0
1,note_on,81,0,120
1,note_on,79,61,0
1,note_on,79,0,60
1,note_on,78,61,60
1,note_on,78,0,60
1,note_on,86,84,60
1,note_on,86,0,320
1,note_on,83,61,0
1,note_on,83,0,80
1,note_on,79,61,0
1,note_on,79,0,80
1,note_on,78,63,0
1,note_on,78,0,80
1,note_on,81,63,0
1,note_on,81,0,80
1,note_on,74,61,0
1,note_on,74,0,80
1,note_on,79,63,0
1,note_on,79,0,80
1,note_on,83,61,0
1,note_on,83,0,80
1,note_on,74,61,0
1,note_on,74,0,80
1,note_on,81,70,0
1,note_on,81,0,320
1,note_on,78,58,0
1,note_on,78,0,80
1,note_on,74,59,0
1,note_on,74,0,80
1,note_on,73,61,0
1,note_on,73,0,80
1,note_on,74,57,0
1,note_on,74,0,80
1,note_on,69,57,0
1,note_on,69,0,80
1,note_on,72,60,0
1,note_on,72,0,80
1,note_on,74,57,0
1,note_on,74,0,80
1,note_on,69,57,0
1,note_on,69,0,80
1,note_on,86,77,0
1,note_on,86,0,320
1,note_on,83,61,0
1,note_on,83,0,80
1,note_on,79,61,0
1,note_on,79,0,80
1,note_on,78,63,0
1,note_on,78,0,80
1,note_on,81,63,0
1,note_on,81,0,80
1,note_on,74,61,0
1,note_on,74,0,80
1,note_on,79,63,0
1,note_on,79,0,80
1,note_on,83,61,0
1,note_on,83,0,80
1,note_on,74,61,0
1,note_on,74,0,80
1,note_on,81,71,0
1,note_on,81,0,320
1,note_on,78,55,0
1,note_on,78,0,80
1,note_on,74,55,0
1,note_on,74,0,80
1,note_on,73,57,0
1,note_on,73,0,80
1,note_on,74,54,0
1,note_on,74,0,80
1,note_on,69,54,0
1,note_on,69,0,80
1,note_on,72,55,0
1,note_on,72,0,80
1,note_on,74,53,0
1,note_on,74,0,80
1,note_on,69,53,0
1,note_on,69,0,80
1,note_on,71,53,0
1,note_on,71,0,80
1,note_on,67,54,0
1,note_on,67,0,80
1,note_on,71,56,0
1,note_on,71,0,80
1,note_on,74,57,0
1,note_on,74,0,80
1,note_on,71,58,0
1,note_on,71,0,80
1,note_on,74,61,0
1,note_on,74,0,80
1,note_on,79,61,0
1,note_on,79,0,80
1,note_on,74,63,0
1,note_on,74,0,80
1,note_on,79,64,0
1,note_on,79,0,80
1,note_on,83,64,0
1,note_on,83,0,80
1,note_on,79,67,0
1,note_on,79,0,80
1,note_on,83,68,0
1,note_on,83,0,80
1,note_on,86,69,0
1,note_on,86,0,80
1,note_on,83,70,0
1,note_on,83,0,80
1,note_on,86,73,0
1,note_on,86,0,80
1,note_on,89,73,0
1,note_on,89,0,80
1,note_on,86,70,0
1,note_on,86,0,80
1,note_on,83,68,0
1,note_on,83,0,80
1,note_on,79,66,0
1,note_on,79,0,80
1,note_on,77,64,0
1,note_on,77,0,80
1,note_on,74,61,0
1,note_on,74,0,80
1,note_on,71,60,0
1,note_on,71,0,80
1,note_on,67,56,0
1,note_on,67,0,80
1,note_on,65,54,0
1,note_on,65,0,80
1,note_on,64,51,0
1,note_on,64,0,60
1,note_on,76,48,60
1,note_on,76,0,120
1,note_on,75,48,0
1,note_on,75,0,120
1,note_on,76,48,0
1,note_on,76,0,120
1,note_on,75,49,0
1,note_on,75,0,120
1,note_on,76,49,0
1,note_on,76,0,120
1,note_on,75,49,0
1,note_on,75,0,120
1,note_on,76,49,0
1,note_on,76,0,120
1,note_on,67,53,0
1,note_on,67,0,720
1,note_on,71,49,0
1,note_on,66,49,0
1,note_on,71,0,120
1,note_on,69,49,0
1,note_on,69,0,120
1,note_on,66,0,0
1,note_on,67,54,80
1,note_on,67,0,80
1,note_on,71,56,0
1,note_on,71,0,80
1,note_on,74,57,0
1,note_on,74,0,80
1,note_on,71,58,0
1,note_on,71,0,80
1,note_on,74,61,0
1,note_on,74,0,80
1,note_on,79,61,0
1,note_on,79,0,80
1,note_on,74,63,0
1,note_on,74,0,80
1,note_on,79,64,0
1,note_on,79,0,80
1,note_on,83,64,0
1,note_on,83,0,80
1,note_on,79,67,0
1,note_on,79,0,80
1,note_on,83,68,0
1,note_on,83,0,80
1,note_on,86,69,0
1,note_on,86,0,80
1,note_on,83,70,0
1,note_on,83,0,80
1,note_on,86,73,0
1,note_on,86,0,80
1,note_on,89,73,0
1,note_on,89,0,80
1,note_on,86,70,0
1,note_on,86,0,80
1,note_on,83,68,0
1,note_on,83,0,80
1,note_on,79,66,0
1,note_on,79,0,80
1,note_on,77,64,0
1,note_on,77,0,80
1,note_on,74,61,0
1,note_on,74,0,80
1,note_on,71,60,0
1,note_on,71,0,80
1,note_on,67,56,0
1,note_on,67,0,80
1,note_on,65,54,0
1,note_on,65,0,80
1,note_on,64,51,0
1,note_on,64,0,60
1,note_on,76,48,60
1,note_on,76,0,120
1,note_on,75,48,0
1,note_on,75,0,120
1,note_on,76,46,0
1,note_on,76,0,120
1,note_on,75,49,0
1,note_on,75,0,120
1,note_on,76,47,0
1,note_on,76,0,120
1,note_on,75,49,0
1,note_on,75,0,120
1,note_on,76,47,0
1,note_on,76,0,120
1,note_on,79,54,120
1,note_on,79,0,120
1,note_on,78,58,0
1,note_on,78,0,120
1,note_on,79,55,0
1,note_on,79,0,120
1,note_on,78,61,0
1,note_on,78,0,120
1,note_on,79,59,0
1,note_on,79,0,120
1,note_on,78,61,0
1,note_on,78,0,120
1,note_on,79,64,0
1,note_on,79,0,115
1,note_on,79,62,5
1,note_on,79,0,120
1,note_on,74,51,0
1,note_on,74,0,110
1,note_on,74,54,10
1,note_on,74,0,60
1,note_on,74,51,60
1,note_on,74,0,60
1,note_on,76,57,60
1,note_on,76,0,120
1,note_on,74,53,0
1,note_on,74,0,110
1,note_on,72,52,10
1,note_on,72,0,60
1,note_on,71,51,60
1,note_on,71,0,60
1,note_on,71,49,60
1,note_on,71,0,240
1,note_on,69,48,240
1,note_on,69,0,60
1,note_on,71,45,0
1,note_on,71,0,60
1,note_on,69,48,0
1,note_on,69,0,60
1,note_on,71,45,0
1,note_on,71,0,60
1,note_on,69,48,0
1,note_on,69,0,40
1,note_on,71,46,0
1,note_on,71,0,40
1,note_on,69,46,1
1,note_on,67,51,39
1,note_on,69,0,1
1,note_on,67,0,59
1,note_on,69,48,0
1,note_on,69,0,60
1,note_on,67,50,0
1,note_on,67,0,240
1,note_on,74,50,240
1,note_on,74,0,330
1,note_on,78,48,0
1,note_on,78,0,30
1,note_on,76,48,0
1,note_on,76,0,60
1,note_on,74,48,0
1,note_on,74,0,60
1,note_on,86,57,0
1,note_on,86,0,60
1,note_on,84,56,180
1,note_on,84,0,60
1,note_on,83,54,180
1,note_on,83,0,60
1,note_on,81,51,180
1,note_on,81,0,60
1,note_on,79,55,180
1,note_on,79,0,480
1,note_on,74,50,0
1,note_on,74,0,330
1,note_on,78,48,0
1,note_on,78,0,30
1,note_on,76,48,0
1,note_on,76,0,60
1,note_on,74,48,0
1,note_on,74,0,60
1,note_on,86,56,0
1,note_on,86,0,60
1,note_on,84,53,180
1,note_on,84,0,60
1,note_on,83,52,180
1,note_on,83,0,60
1,note_on,81,49,180
1,note_on,81,0,60
1,note_on,79,53,180
1,note_on,79,0,240
1,note_on,74,56,200
1,note_on,74,0,40
1,note_on,86,70,0
1,note_on,86,0,360
1,note_on,84,52,0
1,note_on,84,0,40
1,note_on,83,51,0
1,note_on,83,0,40
1,note_on,81,48,0
1,note_on,81,0,40
1,note_on,79,53,0
1,note_on,79,0,240
1,note_on,74,56,200
1,note_on,74,0,40
1,note_on,86,71,0
1,note_on,86,0,360
1,note_on,84,53,0
1,note_on,84,0,40
1,note_on,83,51,0
1,note_on,83,0,40
1,note_on,81,49,0
1,note_on,81,0,40
1,note_on,79,53,0
1,note_on,79,0,240
1,note_on,62,42,0
1,note_on,62,0,180
1,note_on,67,41,0
1,note_on,67,0,60
1,note_on,71,43,0
1,note_on,71,0,120
1,note_on,69,36,120
1,note_on,60,36,0
1,note_on,60,0,240
1,note_on,69,0,0
1,note_on,60,36,0
1,note_on,69,36,0
1,note_on,69,0,480
1,note_on,60,0,0
1,note_on,67,37,0
1,note_on,59,37,0
1,note_on,59,0,240
1,note_on,67,0,0
1,note_on,76,60,1
1,note_on,76,0,359
1,note_on,77,54,0
1,note_on,77,0,60
1,note_on,79,54,0
1,note_on,79,0,60
1,note_on,72,60,0
1,note_on,72,0,240
1,note_on,71,49,0
1,note_on,74,49,0
1,note_on,74,0,240
1,note_on,71,0,0
1,note_on,71,53,0
1,note_on,74,53,0
1,note_on,74,0,180
1,note_on,77,48,0
1,note_on,77,0,60
1,note_on,71,0,0
1,note_on,76,53,0
1,note_on,72,53,0
1,note_on,72,0,240
1,note_on,76,0,0
1,note_on,71,50,0
1,note_on,74,50,0
1,note_on,74,0,480
1,note_on,71,0,0
1,note_on,76,60,0
1,note_on,76,0,360
1,note_on,77,56,0
1,note_on,77,0,60
1,note_on,79,56,0
1,note_on,79,0,60
1,note_on,72,61,0
1,note_on,72,0,240
1,note_on,74,49,0
1,note_on,71,49,0
1,note_on,71,0,120
1,note_on,74,0,0
1,note_on,74,54,120
1,note_on,77,54,0
1,note_on,77,0,240
1,note_on,74,0,0
1,note_on,76,49,0
1,note_on,72,49,0
1,note_on,76,0,48
1,note_on,77,49,0
1,note_on,77,0,48
1,note_on,76,49,0
1,note_on,76,0,48
1,note_on,77,49,0
1,note_on,77,0,48
1,note_on,76,49,0
1,note_on,76,0,48
1,note_on,72,0,0
1,note_on,71,52,0
1,note_on,74,52,0
1,note_on,74,0,480
1,note_on,71,0,0
1,note_on,77,64,0
1,note_on,77,0,360
1,note_on,79,60,0
1,note_on,79,0,60
1,note_on,77,60,0
1,note_on,77,0,60
1,note_on,76,64,0
1,note_on,76,0,240
1,note_on,76,62,0
1,note_on,76,0,120
1,note_on,81,69,120
1,note_on,81,0,360
1,note_on,83,63,0
1,note_on,83,0,60
1,note_on,84,63,0
1,note_on,84,0,60
1,note_on,79,69,0
1,note_on,79,0,240
1,note_on,79,69,0
1,note_on,79,0,120
1,note_on,79,68,120
1,note_on,79,0,120
1,note_on,77,63,0
1,note_on,77,0,90
1,note_on,77,64,30
1,note_on,77,0,120
1,note_on,74,63,0
1,note_on,74,0,90
1,note_on,77,69,30
1,note_on,77,0,120
1,note_on,76,64,0
1,note_on,76,0,90
1,note_on,76,66,30
1,note_on,76,0,120
1,note_on,72,64,0
1,note_on,72,0,90
1,note_on,73,64,30
1,note_on,73,0,120
1,note_on,74,60,0
1,note_on,74,0,120
1,note_on,76,64,0
1,note_on,76,0,120
1,note_on,74,62,0
1,note_on,74,0,120
1,note_on,72,63,0
1,note_on,72,0,120
1,note_on,71,61,0
1,note_on,71,0,120
1,note_on,69,61,0
1,note_on,69,0,120
1,note_on,67,60,0
1,note_on,67,0,120
1,note_on,76,70,0
1,note_on,76,0,360
1,note_on,77,64,0
1,note_on,77,0,60
1,note_on,79,64,0
1,note_on,79,0,60
1,note_on,72,70,0
1,note_on,72,0,240
1,note_on,74,60,0
1,note_on,71,60,0
1,note_on,71,0,240
1,note_on,74,0,0
1,note_on,74,63,0
1,note_on,71,63,0
1,note_on,74,0,180
1,note_on,77,57,0
1,note_on,77,0,60
1,note_on,71,0,0
1,note_on,72,63,0
1,note_on,76,63,0
1,note_on,76,0,240
1,note_on,72,0,0
1,note_on,71,61,0
1,note_on,74,61,0
1,note_on,74,0,480
1,note_on,71,0,0
1,note_on,76,70,0
1,note_on,76,0,360
1,note_on,77,67,0
1,note_on,77,0,60
1,note_on,79,67,0
1,note_on,79,0,60
1,note_on,72,71,0
1,note_on,72,0,240
1,note_on,74,60,0
1,note_on,71,60,0
1,note_on,71,0,120
1,note_on,74,0,0
1,note_on,77,64,120
1,note_on,74,64,0
1,note_on,74,0,240
1,note_on,77,0,0
1,note_on,72,60,0
1,note_on,76,60,0
1,note_on,76,0,48
1,note_on,77,60,0
1,note_on,77,0,48
1,note_on,76,60,0
1,note_on,76,0,48
1,note_on,77,60,0
1,note_on,77,0,48
1,note_on,76,60,0
1,note_on,76,0,48
1,note_on,72,0,0
1,note_on,71,62,0
1,note_on,74,62,0
1,note_on,74,0,480
1,note_on,71,0,0
1,note_on,77,77,0
1,note_on,77,0,360
1,note_on,79,70,0
1,note_on,79,0,60
1,note_on,77,70,0
1,note_on,77,0,60
1,note_on,76,77,0
1,note_on,76,0,240
1,note_on,76,74,0
1,note_on,76,0,120
1,note_on,81,78,120
1,note_on,81,0,360
1,note_on,83,71,0
1,note_on,83,0,60
1,note_on,84,69,0
1,note_on,84,0,60
1,note_on,79,79,0
1,note_on,79,0,240
1,note_on,79,77,0
1,note_on,79,0,120
1,note_on,80,77,120
1,note_on,80,0,120
1,note_on,81,74,0
1,note_on,81,0,120
1,note_on,77,75,0
1,note_on,77,0,120
1,note_on,74,72,0
1,note_on,74,0,120
1,note_on,72,75,0
1,note_on,72,0,240
1,note_on,71,71,0
1,note_on,71,0,240
1,note_on,72,75,0
1,note_on,72,0,80
1,note_on,67,69,0
1,note_on,67,0,80
1,note_on,76,66,0
1,note_on,76,0,80
1,note_on,72,75,0
1,note_on,72,0,80
1,note_on,79,69,0
1,note_on,79,0,80
1,note_on,76,66,0
1,note_on,76,0,80
1,note_on,84,73,0
1,note_on,84,0,80
1,note_on,83,66,0
1,note_on,83,0,80
1,note_on,81,65,0
1,note_on,81,0,80
1,note_on,79,70,0
1,note_on,79,0,80
1,note_on,77,67,0
1,note_on,77,0,80
1,note_on,76,65,0
1,note_on,76,0,80
1,note_on,73,63,0
1,note_on,73,0,80
1,note_on,74,60,0
1,note_on,74,0,80
1,note_on,77,60,0
1,note_on,77,0,80
1,note_on,81,62,0
1,note_on,81,0,80
1,note_on,77,57,0
1,note_on,77,0,80
1,note_on,74,57,0
1,note_on,74,0,80
1,note_on,79,61,0
1,note_on,79,0,80
1,note_on,76,57,0
1,note_on,76,0,80
1,note_on,72,57,0
1,note_on,72,0,80
1,note_on,77,61,0
1,note_on,77,0,80
1,note_on,74,55,0
1,note_on,74,0,80
1,note_on,71,55,0
1,note_on,71,0,80
1,note_on,72,75,0
1,note_on,72,0,80
1,note_on,67,69,0
1,note_on,67,0,80
1,note_on,76,67,0
1,note_on,76,0,80
1,note_on,72,75,0
1,note_on,72,0,80
1,note_on,79,69,0
1,note_on,79,0,80
1,note_on,76,67,0
1,note_on,76,0,80
1,note_on,84,73,0
1,note_on,84,0,80
1,note_on,83,66,0
1,note_on,83,0,80
1,note_on,81,64,0
1,note_on,81,0,80
1,note_on,79,70,0
1,note_on,79,0,80
1,note_on,77,67,0
1,note_on,77,0,80
1,note_on,76,65,0
1,note_on,76,0,80
1,note_on,73,63,0
1,note_on,73,0,80
1,note_on,74,60,0
1,note_on,74,0,80
1,note_on,77,59,0
1,note_on,77,0,80
1,note_on,81,62,0
1,note_on,81,0,80
1,note_on,77,57,0
1,note_on,77,0,80
1,note_on,74,55,0
1,note_on,74,0,80
1,note_on,79,61,0
1,note_on,79,0,80
1,note_on,76,57,0
1,note_on,76,0,80
1,note_on,72,54,0
1,note_on,72,0,80
1,note_on,77,61,0
1,note_on,77,0,80
1,note_on,74,55,0
1,note_on,74,0,80
1,note_on,71,55,0
1,note_on,71,0,80
1,note_on,72,52,0
1,note_on,72,0,60
1,note_on,67,50,180
1,note_on,67,0,60
1,note_on,60,50,180
1,note_on,60,0,480
1,note_on,76,50,0
1,note_on,76,0,480
1,note_on,77,46,0
1,note_on,77,0,60
1,note_on,76,46,0
1,note_on,76,0,60
1,note_on,74,46,0
1,note_on,74,0,60
1,note_on,76,46,0
1,note_on,76,0,60
1,note_on,79,50,0
1,note_on,79,0,120
1,note_on,77,46,0
1,note_on,77,0,120
1,note_on,76,51,0
1,note_on,76,0,120
1,note_on,74,49,0
1,note_on,74,0,120
1,note_on,72,49,0
1,note_on,72,0,120
1,note_on,71,49,0
1,note_on,71,0,120
1,note_on,72,52,0
1,note_on,72,0,60
1,note_on,73,55,180
1,note_on,73,0,60
1,note_on,74,56,180
1,note_on,74,0,60
1,note_on,75,60,180
1,note_on,75,0,60
1,note_on,76,63,180
1,note_on,76,0,60
1,note_on,79,62,180
1,note_on,79,0,120
1,note_on,77,57,0
1,note_on,77,0,120
1,note_on,76,62,0
1,note_on,76,0,360
1,note_on,77,55,0
1,note_on,77,0,60
1,note_on,76,55,0
1,note_on,76,0,60
1,note_on,74,56,0
1,note_on,74,0,240
1,note_on,77,58,240
1,note_on,77,0,480
1,note_on,79,48,0
1,note_on,79,0,60
1,note_on,77,49,0
1,note_on,77,0,60
1,note_on,76,49,0
1,note_on,76,0,60
1,note_on,77,49,0
1,note_on,77,0,60
1,note_on,81,55,0
1,note_on,81,0,120
1,note_on,79,52,0
1,note_on,79,0,120
1,note_on,77,52,0
1,note_on,77,0,120
1,note_on,76,50,0
1,note_on,76,0,120
1,note_on,74,50,0
1,note_on,74,0,120
1,note_on,72,50,0
1,note_on,72,0,120
1,note_on,71,49,0
1,note_on,71,0,120
1,note_on,72,50,0
1,note_on,72,0,60
1,note_on,74,51,60
1,note_on,74,0,60
1,note_on,76,53,60
1,note_on,76,0,60
1,note_on,77,54,60
1,note_on,77,0,60
1,note_on,79,55,60
1,note_on,79,0,60
1,note_on,81,56,60
1,note_on,81,0,60
1,note_on,83,58,60
1,note_on,83,0,60
1,note_on,84,60,60
1,note_on,84,0,60
1,note_on,86,61,60
1,note_on,86,0,60
1,note_on,88,62,60
1,note_on,88,0,60
1,note_on,89,63,60
1,note_on,89,0,60
1,note_on,87,79,60
1,note_on,87,0,480
1,note_on,88,75,0
1,note_on,88,0,240
1,note_on,76,64,240
1,note_on,76,0,320
1,note_on,81,60,0
1,note_on,81,0,80
1,note_on,84,60,0
1,note_on,84,0,80
1,note_on,88,60,0
1,note_on,88,0,80
1,note_on,84,58,0
1,note_on,84,0,80
1,note_on,81,58,0
1,note_on,81,0,80
1,note_on,84,60,0
1,note_on,84,0,80
1,note_on,81,58,0
1,note_on,81,0,80
1,note_on,76,58,0
1,note_on,76,0,80
1,note_on,74,64,0
1,note_on,74,0,320
1,note_on,79,60,0
1,note_on,79,0,80
1,note_on,83,60,0
1,note_on,83,0,80
1,note_on,86,60,0
1,note_on,86,0,80
1,note_on,83,59,0
1,note_on,83,0,80
1,note_on,79,59,0
1,note_on,79,0,80
1,note_on,83,60,0
1,note_on,83,0,80
1,note_on,79,58,0
1,note_on,79,0,80
1,note_on,74,58,0
1,note_on,74,0,80
1,note_on,74,60,80
1,note_on,74,0,80
1,note_on,81,60,0
1,note_on,81,0,80
1,note_on,84,60,0
1,note_on,84,0,80
1,note_on,81,58,0
1,note_on,81,0,80
1,note_on,74,60,0
1,note_on,74,0,80
1,note_on,74,60,80
1,note_on,74,0,80
1,note_on,79,60,0
1,note_on,79,0,80
1,note_on,83,60,0
1,note_on,83,0,80
1,note_on,79,59,0
1,note_on,79,0,80
1,note_on,74,60,0
1,note_on,74,0,80
1,note_on,81,68,0
1,note_on,81,0,180
1,note_on,78,63,0
1,note_on,78,0,60
1,note_on,74,60,0
1,note_on,74,0,240
1,note_on,67,43,420
1,note_on,67,0,60
1,note_on,79,64,0
1,note_on,79,0,600
1,note_on,78,50,0
1,note_on,78,0,120
1,note_on,76,50,0
1,note_on,76,0,120
1,note_on,74,50,0
1,note_on,74,0,116
1,note_on,74,53,4
1,note_on,74,0,120
1,note_on,72,49,0
1,note_on,72,0,120
1,note_on,71,50,0
1,note_on,71,0,120
1,note_on,69,47,0
1,note_on,69,0,120
1,note_on,74,54,0
1,note_on,74,0,60
1,note_on,72,51,180
1,note_on,72,0,60
1,note_on,70,53,180
1,note_on,70,0,240
1,note_on,71,51,0
1,note_on,71,0,240
1,note_on,67,43,1380
1,note_on,67,0,60
1,note_on,79,64,0
1,note_on,79,0,600
1,note_on,78,50,0
1,note_on,78,0,120
1,note_on,76,50,0
1,note_on,76,0,120
1,note_on,74,48,0
1,note_on,74,0,115
1,note_on,74,53,5
1,note_on,74,0,120
1,note_on,72,47,0
1,note_on,72,0,120
1,note_on,71,50,0
1,note_on,71,0,120
1,note_on,69,50,0
1,note_on,69,0,120
1,note_on,74,54,0
1,note_on,74,0,60
1,note_on,72,51,180
1,note_on,72,0,60
1,note_on,71,54,180
1,note_on,71,0,240
1,note_on,76,52,240
1,note_on,76,0,60
1,note_on,78,55,0
1,note_on,78,0,60
1,note_on,76,53,0
1,note_on,76,0,60
1,note_on,78,62,0
1,note_on,78,0,60
1,note_on,79,62,0
1,note_on,79,0,120
1,note_on,79,60,0
1,note_on,79,0,60
1,note_on,79,60,60
1,note_on,79,0,240
1,note_on,81,52,240
1,note_on,81,0,60
1,note_on,83,55,0
1,note_on,83,0,60
1,note_on,81,52,0
1,note_on,81,0,60
1,note_on,83,62,0
1,note_on,83,0,60
1,note_on,84,62,0
1,note_on,84,0,120
1,note_on,84,60,0
1,note_on,84,0,60
1,note_on,84,60,60
1,note_on,84,0,240
1,note_on,84,51,240
1,note_on,84,0,60
1,note_on,86,54,0
1,note_on,86,0,60
1,note_on,84,51,0
1,note_on,84,0,60
1,note_on,86,63,0
1,note_on,86,0,60
1,note_on,88,63,0
1,note_on,88,0,120
1,note_on,88,60,0
1,note_on,88,0,60
1,note_on,88,60,60
1,note_on,88,0,120
1,note_on,86,61,0
1,note_on,86,0,120
1,note_on,84,56,0
1,note_on,84,0,60
1,note_on,83,56,60
1,note_on,83,0,60
1,note_on,81,56,60
1,note_on,81,0,60
1,note_on,86,56,180
1,note_on,86,0,60
1,note_on,84,62,180
1,note_on,84,0,240
1,note_on,83,58,0
1,note_on,83,0,240
1,note_on,76,51,0
1,note_on,76,0,60
1,note_on,78,54,0
1,note_on,78,0,60
1,note_on,76,51,0
1,note_on,76,0,60
1,note_on,78,64,0
1,note_on,78,0,60
1,note_on,79,64,0
1,note_on,79,0,120
1,note_on,79,60,0
1,note_on,79,0,60
1,note_on,79,60,60
1,note_on,79,0,240
1,note_on,81,50,240
1,note_on,81,0,60
1,note_on,83,54,0
1,note_on,83,0,60
1,note_on,81,51,0
1,note_on,81,0,60
1,note_on,83,66,0
1,note_on,83,0,60
1,note_on,84,66,0
1,note_on,84,0,120
1,note_on,84,60,0
1,note_on,84,0,60
1,note_on,84,60,60
1,note_on,84,0,240
1,note_on,84,50,240
1,note_on,84,0,60
1,note_on,86,54,0
1,note_on,86,0,60
1,note_on,84,51,0
1,note_on,84,0,60
1,note_on,86,64,0
1,note_on,86,0,60
1,note_on,88,64,0
1,note_on,88,0,120
1,note_on,88,61,0
1,note_on,88,0,60
1,note_on,88,62,60
1,note_on,88,0,120
1,note_on,86,61,0
1,note_on,86,0,120
1,note_on,84,61,0
1,note_on,84,0,60
1,note_on,83,61,60
1,note_on,83,0,60
1,note_on,83,62,60
1,note_on,83,0,120
1,note_on,81,61,0
1,note_on,81,0,120
1,note_on,79,61,0
1,note_on,79,0,60
1,note_on,78,61,60
1,note_on,78,0,60
1,note_on,86,84,60
1,note_on,86,0,320
1,note_on,83,61,0
1,note_on,83,0,80
1,note_on,79,61,0
1,note_on,79,0,80
1,note_on,78,63,0
1,note_on,78,0,80
1,note_on,81,63,0
1,note_on,81,0,80
1,note_on,74,61,0
1,note_on,74,0,80
1,note_on,79,63,0
1,note_on,79,0,80
1,note_on,83,61,0
1,note_on,83,0,80
1,note_on,74,61,0
1,note_on,74,0,80
1,note_on,81,70,0
1,note_on,81,0,320
1,note_on,78,58,0
1,note_on,78,0,80
1,note_on,74,59,0
1,note_on,74,0,80
1,note_on,73,61,0
1,note_on,73,0,80
1,note_on,74,57,0
1,note_on,74,0,80
1,note_on,69,57,0
1,note_on,69,0,80
1,note_on,72,60,0
1,note_on,72,0,80
1,note_on,74,57,0
1,note_on,74,0,80
1,note_on,69,57,0
1,note_on,69,0,80
1,note_on,86,77,0
1,note_on,86,0,320
1,note_on,83,61,0
1,note_on,83,0,80
1,note_on,79,61,0
1,note_on,79,0,80
1,note_on,78,63,0
1,note_on,78,0,80
1,note_on,81,63,0
1,note_on,81,0,80
1,note_on,74,61,0
1,note_on,74,0,80
1,note_on,79,63,0
1,note_on,79,0,80
1,note_on,83,61,0
1,note_on,83,0,80
1,note_on,74,61,0
1,note_on,74,0,80
1,note_on,81,71,0
1,note_on,81,0,320
1,note_on,78,55,0
1,note_on,78,0,80
1,note_on,74,55,0
1,note_on,74,0,80
1,note_on,73,57,0
1,note_on,73,0,80
1,note_on,74,54,0
1,note_on,74,0,80
1,note_on,69,54,0
1,note_on,69,0,80
1,note_on,72,55,0
1,note_on,72,0,80
1,note_on,74,53,0
1,note_on,74,0,80
1,note_on,69,53,0
1,note_on,69,0,80
1,note_on,71,53,0
1,note_on,71,0,80
1,note_on,67,54,0
1,note_on,67,0,80
1,note_on,71,56,0
1,note_on,71,0,80
1,note_on,74,57,0
1,note_on,74,0,80
1,note_on,71,58,0
1,note_on,71,0,80
1,note_on,74,61,0
1,note_on,74,0,80
1,note_on,79,61,0
1,note_on,79,0,80
1,note_on,74,63,0
1,note_on,74,0,80
1,note_on,79,64,0
1,note_on,79,0,80
1,note_on,83,64,0
1,note_on,83,0,80
1,note_on,79,67,0
1,note_on,79,0,80
1,note_on,83,68,0
1,note_on,83,0,80
1,note_on,86,69,0
1,note_on,86,0,80
1,note_on,83,70,0
1,note_on,83,0,80
1,note_on,86,73,0
1,note_on,86,0,80
1,note_on,89,73,0
1,note_on,89,0,80
1,note_on,86,70,0
1,note_on,86,0,80
1,note_on,83,68,0
1,note_on,83,0,80
1,note_on,79,66,0
1,note_on,79,0,80
1,note_on,77,64,0
1,note_on,77,0,80
1,note_on,74,61,0
1,note_on,74,0,80
1,note_on,71,60,0
1,note_on,71,0,80
1,note_on,67,56,0
1,note_on,67,0,80
1,note_on,65,54,0
1,note_on,65,0,80
1,note_on,64,51,0
1,note_on,64,0,60
1,note_on,76,48,60
1,note_on,76,0,120
1,note_on,75,48,0
1,note_on,75,0,120
1,note_on,76,48,0
1,note_on,76,0,120
1,note_on,75,49,0
1,note_on,75,0,120
1,note_on,76,49,0
1,note_on,76,0,120
1,note_on,75,49,0
1,note_on,75,0,120
1,note_on,76,49,0
1,note_on,76,0,120
1,note_on,67,53,0
1,note_on,67,0,720
1,note_on,71,49,0
1,note_on,66,49,0
1,note_on,71,0,120
1,note_on,69,49,0
1,note_on,69,0,120
1,note_on,66,0,0
1,note_on,67,54,80
1,note_on,67,0,80
1,note_on,71,56,0
1,note_on,71,0,80
1,note_on,74,57,0
1,note_on,74,0,80
1,note_on,71,58,0
1,note_on,71,0,80
1,note_on,74,61,0
1,note_on,74,0,80
1,note_on,79,61,0
1,note_on,79,0,80
1,note_on,74,63,0
1,note_on,74,0,80
1,note_on,79,64,0
1,note_on,79,0,80
1,note_on,83,64,0
1,note_on,83,0,80
1,note_on,79,67,0
1,note_on,79,0,80
1,note_on,83,68,0
1,note_on,83,0,80
1,note_on,86,69,0
1,note_on,86,0,80
1,note_on,83,70,0
1,note_on,83,0,80
1,note_on,86,73,0
1,note_on,86,0,80
1,note_on,89,73,0
1,note_on,89,0,80
1,note_on,86,70,0
1,note_on,86,0,80
1,note_on,83,68,0
1,note_on,83,0,80
1,note_on,79,66,0
1,note_on,79,0,80
1,note_on,77,64,0
1,note_on,77,0,80
1,note_on,74,61,0
1,note_on,74,0,80
1,note_on,71,60,0
1,note_on,71,0,80
1,note_on,67,56,0
1,note_on,67,0,80
1,note_on,65,54,0
1,note_on,65,0,80
1,note_on,64,51,0
1,note_on,64,0,60
1,note_on,76,48,60
1,note_on,76,0,120
1,note_on,75,48,0
1,note_on,75,0,120
1,note_on,76,46,0
1,note_on,76,0,120
1,note_on,75,49,0
1,note_on,75,0,120
1,note_on,76,47,0
1,note_on,76,0,120
1,note_on,75,49,0
1,note_on,75,0,120
1,note_on,76,47,0
1,note_on,76,0,120
1,note_on,79,54,120
1,note_on,79,0,120
1,note_on,78,58,0
1,note_on,78,0,120
1,note_on,79,55,0
1,note_on,79,0,120
1,note_on,78,61,0
1,note_on,78,0,120
1,note_on,79,59,0
1,note_on,79,0,120
1,note_on,78,61,0
1,note_on,78,0,120
1,note_on,79,64,0
1,note_on,79,0,115
1,note_on,79,62,5
1,note_on,79,0,120
1,note_on,74,51,0
1,note_on,74,0,110
1,note_on,74,54,10
1,note_on,74,0,60
1,note_on,74,51,60
1,note_on,74,0,60
1,note_on,76,57,60
1,note_on,76,0,120
1,note_on,74,53,0
1,note_on,74,0,110
1,note_on,72,52,10
1,note_on,72,0,60
1,note_on,71,51,60
1,note_on,71,0,60
1,note_on,71,49,60
1,note_on,71,0,240
1,note_on,69,48,240
1,note_on,69,0,60
1,note_on,71,45,0
1,note_on,71,0,60
1,note_on,69,48,0
1,note_on,69,0,60
1,note_on,71,45,0
1,note_on,71,0,60
1,note_on,69,48,0
1,note_on,69,0,40
1,note_on,71,46,0
1,note_on,71,0,40
1,note_on,69,46,1
1,note_on,67,51,39
1,note_on,69,0,1
1,note_on,67,0,59
1,note_on,69,48,0
1,note_on,69,0,60
1,note_on,67,50,0
1,note_on,67,0,240
1,note_on,74,50,240
1,note_on,74,0,330
1,note_on,78,48,0
1,note_on,78,0,30
1,note_on,76,48,0
1,note_on,76,0,60
1,note_on,74,48,0
1,note_on,74,0,60
1,note_on,86,57,0
1,note_on,86,0,60
1,note_on,84,56,180
1,note_on,84,0,60
1,note_on,83,54,180
1,note_on,83,0,60
1,note_on,81,51,180
1,note_on,81,0,60
1,note_on,79,55,180
1,note_on,79,0,480
1,note_on,74,50,0
1,note_on,74,0,330
1,note_on,78,48,0
1,note_on,78,0,30
1,note_on,76,48,0
1,note_on,76,0,60
1,note_on,74,48,0
1,note_on,74,0,60
1,note_on,86,56,0
1,note_on,86,0,60
1,note_on,84,53,180
1,note_on,84,0,60
1,note_on,83,52,180
1,note_on,83,0,60
1,note_on,81,49,180
1,note_on,81,0,60
1,note_on,79,53,180
1,note_on,79,0,240
1,note_on,74,56,200
1,note_on,74,0,40
1,note_on,86,70,0
1,note_on,86,0,360
1,note_on,84,52,0
1,note_on,84,0,40
1,note_on,83,51,0
1,note_on,83,0,40
1,note_on,81,48,0
1,note_on,81,0,40
1,note_on,79,53,0
1,note_on,79,0,240
1,note_on,74,56,200
1,note_on,74,0,40
1,note_on,86,71,0
1,note_on,86,0,360
1,note_on,84,53,0
1,note_on,84,0,40
1,note_on,83,51,0
1,note_on,83,0,40
1,note_on,81,49,0
1,note_on,81,0,40
1,note_on,79,53,0
1,note_on,79,0,240
1,note_on,62,42,0
1,note_on,62,0,180
1,note_on,67,41,0
1,note_on,67,0,60
1,note_on,71,43,0
1,note_on,71,0,120
1,note_on,69,36,120
1,note_on,60,36,0
1,note_on,60,0,240
1,note_on,69,0,0
1,note_on,60,36,0
1,note_on,69,36,0
1,note_on,69,0,480
1,note_on,60,0,0
1,note_on,67,37,0
1,note_on,59,37,0
1,note_on,59,0,240
1,note_on,67,0,0
1,note_on,74,47,0
1,note_on,74,0,240
1,note_on,71,43,0
1,note_on,71,0,120
1,note_on,71,43,120
1,note_on,71,0,120
1,note_on,71,36,120
1,note_on,71,0,24
1,note_on,72,36,0
1,note_on,72,0,24
1,note_on,71,36,0
1,note_on,71,0,24
1,note_on,72,36,0
1,note_on,72,0,24
1,note_on,71,36,0
1,note_on,71,0,24
1,note_on,69,41,0
1,note_on,69,0,60
1,note_on,71,41,0
1,note_on,71,0,60
1,note_on,74,49,0
1,note_on,74,0,240
1,note_on,72,43,0
1,note_on,72,0,60
1,note_on,69,43,180
1,note_on,69,0,480
1,note_on,72,51,0
1,note_on,72,0,240
1,note_on,71,44,0
1,note_on,71,0,60
1,note_on,74,53,180
1,note_on,74,0,240
1,note_on,72,43,0
1,note_on,72,0,60
1,note_on,76,60,180
1,note_on,76,0,480
1,note_on,74,49,0
1,note_on,74,0,240
1,note_on,74,60,240
1,note_on,74,0,240
1,note_on,67,50,0
1,note_on,67,0,120
1,note_on,67,50,120
1,note_on,67,0,240
1,note_on,68,42,0
1,note_on,68,0,24
1,note_on,69,42,0
1,note_on,69,0,24
1,note_on,68,42,0
1,note_on,68,0,24
1,note_on,69,42,0
1,note_on,69,0,24
1,note_on,68,42,0
1,note_on,68,0,24
1,note_on,66,43,0
1,note_on,66,0,60
1,note_on,68,43,0
1,note_on,68,0,60
1,note_on,69,50,0
1,note_on,69,0,240
1,note_on,72,50,0
1,note_on,72,0,60
1,note_on,76,60,180
1,note_on,76,0,480
1,note_on,74,48,0
1,note_on,74,0,240
1,note_on,67,43,0
1,note_on,67,0,60
1,note_on,72,47,180
1,note_on,72,0,240
1,note_on,66,43,0
1,note_on,66,0,60
1,note_on,69,43,180
1,note_on,69,0,480
1,note_on,67,41,0
1,note_on,67,0,240
1,note_on,74,47,240
1,note_on,74,0,240
1,note_on,71,43,0
1,note_on,71,0,120
1,note_on,71,43,120
1,note_on,71,0,120
1,note_on,71,36,120
1,note_on,71,0,24
1,note_on,72,36,0
1,note_on,72,0,24
1,note_on,71,36,0
1,note_on,71,0,24
1,note_on,72,36,0
1,note_on,72,0,24
1,note_on,71,36,0
1,note_on,71,0,24
1,note_on,69,41,0
1,note_on,69,0,60
1,note_on,71,41,0
1,note_on,71,0,60
1,note_on,74,49,0
1,note_on,74,0,240
1,note_on,72,43,0
1,note_on,72,0,60
1,note_on,69,43,180
1,note_on,69,0,480
1,note_on,72,51,0
1,note_on,72,0,240
1,note_on,71,44,0
1,note_on,71,0,60
1,note_on,74,53,180
1,note_on,74,0,240
1,note_on,72,43,0
1,note_on,72,0,60
1,note_on,76,60,180
1,note_on,76,0,480
1,note_on,74,49,0
1,note_on,74,0,240
1,note_on,74,54,240
1,note_on,74,0,240
1,note_on,72,47,0
1,note_on,72,0,60
1,note_on,76,55,180
1,note_on,76,0,240
1,note_on,74,43,0
1,note_on,74,0,60
1,note_on,77,61,180
1,note_on,77,0,480
1,note_on,76,51,0
1,note_on,76,0,240
1,note_on,76,56,240
1,note_on,76,0,240
1,note_on,74,49,0
1,note_on,74,0,60
1,note_on,77,57,180
1,note_on,77,0,240
1,note_on,76,47,0
1,note_on,76,0,60
1,note_on,79,64,180
1,note_on,79,0,480
1,note_on,77,54,0
1,note_on,77,0,240
1,note_on,76,56,240
1,note_on,76,0,360
1,note_on,77,53,0
1,note_on,77,0,60
1,note_on,79,53,0
1,note_on,79,0,60
1,note_on,77,56,0
1,note_on,77,0,240
1,note_on,76,56,0
1,note_on,76,0,120
1,note_on,74,55,120
1,note_on,74,0,480
1,note_on,79,64,240
1,note_on,79,0,120
1,note_on,77,63,120
1,note_on,77,0,240
1,note_on,75,44,0
1,note_on,75,0,240
1,note_on,72,43,240
1,note_on,72,0,120
1,note_on,71,50,120
1,note_on,71,0,240
1,note_on,74,47,0
1,note_on,74,0,240
1,note_on,79,64,240
1,note_on,79,0,120
1,note_on,77,47,360
1,note_on,77,0,120
1,note_on,75,47,0
1,note_on,75,0,120
1,note_on,74,43,240
1,note_on,74,0,120
1,note_on,72,43,0
1,note_on,72,0,120
1,note_on,71,51,0
1,note_on,71,0,240
1,note_on,74,43,0
1,note_on,74,0,240
1,note_on,79,61,120
1,note_on,79,0,120
1,note_on,78,62,0
1,note_on,78,0,120
1,note_on,79,61,0
1,note_on,79,0,120
1,note_on,75,57,120
1,note_on,75,0,120
1,note_on,74,60,0
1,note_on,74,0,120
1,note_on,75,58,0
1,note_on,75,0,120
1,note_on,72,55,120
1,note_on,72,0,120
1,note_on,71,57,0
1,note_on,71,0,120
1,note_on,72,56,0
1,note_on,72,0,120
1,note_on,71,64,0
1,note_on,71,0,240
1,note_on,74,56,0
1,note_on,74,0,60
1,note_on,71,62,180
1,note_on,71,0,240
1,note_on,74,56,0
1,note_on,74,0,60
1,note_on,71,62,180
1,note_on,71,0,240
1,note_on,74,54,0
1,note_on,74,0,60
1,note_on,74,37,660
1,note_on,74,0,240
1,note_on,77,34,0
1,note_on,77,0,60
1,note_on,74,37,180
1,note_on,74,0,240
1,note_on,77,34,0
1,note_on,77,0,60
1,note_on,74,37,180
1,note_on,74,0,240
1,note_on,77,35,0
1,note_on,77,0,60
1,note_on,76,60,1
1,note_on,76,0,359
1,note_on,77,54,0
1,note_on,77,0,60
1,note_on,79,54,0
1,note_on,79,0,60
1,note_on,72,60,0
1,note_on,72,0,240
1,note_on,71,49,0
1,note_on,74,49,0
1,note_on,74,0,240
1,note_on,71,0,0
1,note_on,71,53,0
1,note_on,74,53,0
1,note_on,74,0,180
1,note_on,77,48,0
1,note_on,77,0,60
1,note_on,71,0,0
1,note_on,76,53,0
1,note_on,72,53,0
1,note_on,72,0,240
1,note_on,76,0,0
1,note_on,71,50,0
1,note_on,74,50,0
1,note_on,74,0,480
1,note_on,71,0,0
1,note_on,76,60,0
1,note_on,76,0,360
1,note_on,77,56,0
1,note_on,77,0,60
1,note_on,79,56,0
1,note_on,79,0,60
1,note_on,72,61,0
1,note_on,72,0,240
1,note_on,74,49,0
1,note_on,71,49,0
1,note_on,71,0,120
1,note_on,74,0,0
1,note_on,74,54,120
1,note_on,77,54,0
1,note_on,77,0,240
1,note_on,74,0,0
1,note_on,76,49,0
1,note_on,72,49,0
1,note_on,76,0,48
1,note_on,77,49,0
1,note_on,77,0,48
1,note_on,76,49,0
1,note_on,76,0,48
1,note_on,77,49,0
1,note_on,77,0,48
1,note_on,76,49,0
1,note_on,76,0,48
1,note_on,72,0,0
1,note_on,71,52,0
1,note_on,74,52,0
1,note_on,74,0,480
1,note_on,71,0,0
1,note_on,77,64,0
1,note_on,77,0,360
1,note_on,79,60,0
1,note_on,79,0,60
1,note_on,77,60,0
1,note_on,77,0,60
1,note_on,76,64,0
1,note_on,76,0,240
1,note_on,76,62,0
1,note_on,76,0,120
1,note_on,81,69,120
1,note_on,81,0,360
1,note_on,83,63,0
1,note_on,83,0,60
1,note_on,84,63,0
1,note_on,84,0,60
1,note_on,79,69,0
1,note_on,79,0,240
1,note_on,79,69,0
1,note_on,79,0,120
1,note_on,79,68,120
1,note_on,79,0,120
1,note_on,77,63,0
1,note_on,77,0,90
1,note_on,77,64,30
1,note_on,77,0,120
1,note_on,74,63,0
1,note_on,74,0,90
1,note_on,77,69,30
1,note_on,77,0,120
1,note_on,76,64,0
1,note_on,76,0,90
1,note_on,76,66,30
1,note_on,76,0,120
1,note_on,72,64,0
1,note_on,72,0,90
1,note_on,73,64,30
1,note_on,73,0,120
1,note_on,74,60,0
1,note_on,74,0,120
1,note_on,76,64,0
1,note_on,76,0,120
1,note_on,74,62,0
1,note_on,74,0,120
1,note_on,72,63,0
1,note_on,72,0,120
1,note_on,71,61,0
1,note_on,71,0,120
1,note_on,69,61,0
1,note_on,69,0,120
1,note_on,67,60,0
1,note_on,67,0,120
1,note_on,76,70,0
1,note_on,76,0,360
1,note_on,77,64,0
1,note_on,77,0,60
1,note_on,79,64,0
1,note_on,79,0,60
1,note_on,72,70,0
1,note_on,72,0,240
1,note_on,74,60,0
1,note_on,71,60,0
1,note_on,71,0,240
1,note_on,74,0,0
1,note_on,74,63,0
1,note_on,71,63,0
1,note_on,74,0,180
1,note_on,77,57,0
1,note_on,77,0,60
1,note_on,71,0,0
1,note_on,72,63,0
1,note_on,76,63,0
1,note_on,76,0,240
1,note_on,72,0,0
1,note_on,71,61,0
1,note_on,74,61,0
1,note_on,74,0,480
1,note_on,71,0,0
1,note_on,76,70,0
1,note_on,76,0,360
1,note_on,77,67,0
1,note_on,77,0,60
1,note_on,79,67,0
1,note_on,79,0,60
1,note_on,72,71,0
1,note_on,72,0,240
1,note_on,74,60,0
1,note_on,71,60,0
1,note_on,71,0,120
1,note_on,74,0,0
1,note_on,77,64,120
1,note_on,74,64,0
1,note_on,74,0,240
1,note_on,77,0,0
1,note_on,72,60,0
1,note_on,76,60,0
1,note_on,76,0,48
1,note_on,77,60,0
1,note_on,77,0,48
1,note_on,76,60,0
1,note_on,76,0,48
1,note_on,77,60,0
1,note_on,77,0,48
1,note_on,76,60,0
1,note_on,76,0,48
1,note_on,72,0,0
1,note_on,71,62,0
1,note_on,74,62,0
1,note_on,74,0,480
1,note_on,71,0,0
1,note_on,77,77,0
1,note_on,77,0,360
1,note_on,79,70,0
1,note_on,79,0,60
1,note_on,77,70,0
1,note_on,77,0,60
1,note_on,76,77,0
1,note_on,76,0,240
1,note_on,76,74,0
1,note_on,76,0,120
1,note_on,81,78,120
1,note_on,81,0,360
1,note_on,83,71,0
1,note_on,83,0,60
1,note_on,84,69,0
1,note_on,84,0,60
1,note_on,79,79,0
1,note_on,79,0,240
1,note_on,79,77,0
1,note_on,79,0,120
1,note_on,80,77,120
1,note_on,80,0,120
1,note_on,81,74,0
1,note_on,81,0,120
1,note_on,77,75,0
1,note_on,77,0,120
1,note_on,74,72,0
1,note_on,74,0,120
1,note_on,72,75,0
1,note_on,72,0,240
1,note_on,71,71,0
1,note_on,71,0,240
1,note_on,72,75,0
1,note_on,72,0,80
1,note_on,67,69,0
1,note_on,67,0,80
1,note_on,76,66,0
1,note_on,76,0,80
1,note_on,72,75,0
1,note_on,72,0,80
1,note_on,79,69,0
1,note_on,79,0,80
1,note_on,76,66,0
1,note_on,76,0,80
1,note_on,84,73,0
1,note_on,84,0,80
1,note_on,83,66,0
1,note_on,83,0,80
1,note_on,81,65,0
1,note_on,81,0,80
1,note_on,79,70,0
1,note_on,79,0,80
1,note_on,77,67,0
1,note_on,77,0,80
1,note_on,76,65,0
1,note_on,76,0,80
1,note_on,73,63,0
1,note_on,73,0,80
1,note_on,74,60,0
1,note_on,74,0,80
1,note_on,77,60,0
1,note_on,77,0,80
1,note_on,81,62,0
1,note_on,81,0,80
1,note_on,77,57,0
1,note_on,77,0,80
1,note_on,74,57,0
1,note_on,74,0,80
1,note_on,79,61,0
1,note_on,79,0,80
1,note_on,76,57,0
1,note_on,76,0,80
1,note_on,72,57,0
1,note_on,72,0,80
1,note_on,77,61,0
1,note_on,77,0,80
1,note_on,74,55,0
1,note_on,74,0,80
1,note_on,71,55,0
1,note_on,71,0,80
1,note_on,72,75,0
1,note_on,72,0,80
1,note_on,67,69,0
1,note_on,67,0,80
1,note_on,76,67,0
1,note_on,76,0,80
1,note_on,72,75,0
1,note_on,72,0,80
1,note_on,79,69,0
1,note_on,79,0,80
1,note_on,76,67,0
1,note_on,76,0,80
1,note_on,84,73,0
1,note_on,84,0,80
1,note_on,83,66,0
1,note_on,83,0,80
1,note_on,81,64,0
1,note_on,81,0,80
1,note_on,79,70,0
1,note_on,79,0,80
1,note_on,77,67,0
1,note_on,77,0,80
1,note_on,76,65,0
1,note_on,76,0,80
1,note_on,73,63,0
1,note_on,73,0,80
1,note_on,74,60,0
1,note_on,74,0,80
1,note_on,77,59,0
1,note_on,77,0,80
1,note_on,81,62,0
1,note_on,81,0,80
1,note_on,77,57,0
1,note_on,77,0,80
1,note_on,74,55,0
1,note_on,74,0,80
1,note_on,79,61,0
1,note_on,79,0,80
1,note_on,76,57,0
1,note_on,76,0,80
1,note_on,72,54,0
1,note_on,72,0,80
1,note_on,77,61,0
1,note_on,77,0,80
1,note_on,74,55,0
1,note_on,74,0,80
1,note_on,71,55,0
1,note_on,71,0,80
1,note_on,72,52,0
1,note_on,72,0,60
1,note_on,67,50,180
1,note_on,67,0,60
1,note_on,60,50,180
1,note_on,60,0,480
1,note_on,76,50,0
1,note_on,76,0,480
1,note_on,77,46,0
1,note_on,77,0,60
1,note_on,76,46,0
1,note_on,76,0,60
1,note_on,74,46,0
1,note_on,74,0,60
1,note_on,76,46,0
1,note_on,76,0,60
1,note_on,79,50,0
1,note_on,79,0,120
1,note_on,77,46,0
1,note_on,77,0,120
1,note_on,76,51,0
1,note_on,76,0,120
1,note_on,74,49,0
1,note_on,74,0,120
1,note_on,72,49,0
1,note_on,72,0,120
1,note_on,71,49,0
1,note_on,71,0,120
1,note_on,72,52,0
1,note_on,72,0,60
1,note_on,73,55,180
1,note_on,73,0,60
1,note_on,74,56,180
1,note_on,74,0,60
1,note_on,75,60,180
1,note_on,75,0,60
1,note_on,76,63,180
1,note_on,76,0,60
1,note_on,79,62,180
1,note_on,79,0,120
1,note_on,77,57,0
1,note_on,77,0,120
1,note_on,76,62,0
1,note_on,76,0,360
1,note_on,77,55,0
1,note_on,77,0,60
1,note_on,76,55,0
1,note_on,76,0,60
1,note_on,74,56,0
1,note_on,74,0,240
1,note_on,77,58,240
1,note_on,77,0,480
1,note_on,79,48,0
1,note_on,79,0,60
1,note_on,77,49,0
1,note_on,77,0,60
1,note_on,76,49,0
1,note_on,76,0,60
1,note_on,77,49,0
1,note_on,77,0,60
1,note_on,81,55,0
1,note_on,81,0,120
1,note_on,79,52,0
1,note_on,79,0,120
1,note_on,77,52,0
1,note_on,77,0,120
1,note_on,76,50,0
1,note_on,76,0,120
1,note_on,74,50,0
1,note_on,74,0,120
1,note_on,72,50,0
1,note_on,72,0,120
1,note_on,71,49,0
1,note_on,71,0,120
1,note_on,72,50,0
1,note_on,72,0,60
1,note_on,74,51,60
1,note_on,74,0,60
1,note_on,76,53,60
1,note_on,76,0,60
1,note_on,77,54,60
1,note_on,77,0,60
1,note_on,79,55,60
1,note_on,79,0,60
1,note_on,81,56,60
1,note_on,81,0,60
1,note_on,83,58,60
1,note_on,83,0,60
1,note_on,84,60,60
1,note_on,84,0,60
1,note_on,86,61,60
1,note_on,86,0,60
1,note_on,88,62,60
1,note_on,88,0,60
1,note_on,89,63,60
1,note_on,89,0,60
1,note_on,87,79,60
1,note_on,87,0,480
1,note_on,88,75,0
1,note_on,88,0,240
1,note_on,70,64,240
1,note_on,70,0,320
1,note_on,76,60,0
1,note_on,76,0,80
1,note_on,79,60,0
1,note_on,79,0,80
1,note_on,82,60,0
1,note_on,82,0,80
1,note_on,79,58,0
1,note_on,79,0,80
1,note_on,76,58,0
1,note_on,76,0,80
1,note_on,79,60,0
1,note_on,79,0,80
1,note_on,76,58,0
1,note_on,76,0,80
1,note_on,70,58,0
1,note_on,70,0,80
1,note_on,69,64,0
1,note_on,69,0,320
1,note_on,72,60,0
1,note_on,72,0,80
1,note_on,77,58,0
1,note_on,77,0,80
1,note_on,81,60,0
1,note_on,81,0,80
1,note_on,77,59,0
1,note_on,77,0,80
1,note_on,72,59,0
1,note_on,72,0,80
1,note_on,77,60,0
1,note_on,77,0,80
1,note_on,72,59,0
1,note_on,72,0,80
1,note_on,69,59,0
1,note_on,69,0,80
1,note_on,67,64,0
1,note_on,67,0,320
1,note_on,73,60,0
1,note_on,73,0,80
1,note_on,76,58,0
1,note_on,76,0,80
1,note_on,79,60,0
1,note_on,79,0,80
1,note_on,76,58,0
1,note_on,76,0,80
1,note_on,73,58,0
1,note_on,73,0,80
1,note_on,76,60,0
1,note_on,76,0,80
1,note_on,73,58,0
1,note_on,73,0,80
1,note_on,67,58,0
1,note_on,67,0,80
1,note_on,66,64,0
1,note_on,66,0,320
1,note_on,69,60,0
1,note_on,69,0,80
1,note_on,74,57,0
1,note_on,74,0,80
1,note_on,78,60,0
1,note_on,78,0,80
1,note_on,74,58,0
1,note_on,74,0,80
1,note_on,69,58,0
1,note_on,69,0,80
1,note_on,74,60,0
1,note_on,74,0,80
1,note_on,69,58,0
1,note_on,69,0,80
1,note_on,66,58,0
1,note_on,66,0,80
1,note_on,65,64,0
1,note_on,65,0,320
1,note_on,71,60,0
1,note_on,71,0,80
1,note_on,74,58,0
1,note_on,74,0,80
1,note_on,77,60,0
1,note_on,77,0,80
1,note_on,74,58,0
1,note_on,74,0,80
1,note_on,71,58,0
1,note_on,71,0,80
1,note_on,74,60,0
1,note_on,74,0,80
1,note_on,71,58,0
1,note_on,71,0,80
1,note_on,65,59,0
1,note_on,65,0,80
1,note_on,64,64,0
1,note_on,64,0,320
1,note_on,67,60,0
1,note_on,67,0,80
1,note_on,72,60,0
1,note_on,72,0,80
1,note_on,76,60,0
1,note_on,76,0,80
1,note_on,72,58,0
1,note_on,72,0,80
1,note_on,67,58,0
1,note_on,67,0,80
1,note_on,72,60,0
1,note_on,72,0,80
1,note_on,67,57,0
1,note_on,67,0,80
1,note_on,64,57,0
1,note_on,64,0,80
1,note_on,62,60,80
1,note_on,62,0,80
1,note_on,69,58,0
1,note_on,69,0,80
1,note_on,74,58,0
1,note_on,74,0,80
1,note_on,69,60,0
1,note_on,69,0,80
1,note_on,62,58,0
1,note_on,62,0,80
1,note_on,62,60,80
1,note_on,62,0,80
1,note_on,69,57,0
1,note_on,69,0,80
1,note_on,72,60,0
1,note_on,72,0,80
1,note_on,69,58,0
1,note_on,69,0,80
1,note_on,62,58,0
1,note_on,62,0,80
1,note_on,71,63,0
1,note_on,71,0,240
1,note_on,79,62,360
1,note_on,79,0,60
1,note_on,81,64,60
1,note_on,81,0,60
1,note_on,83,68,60
1,note_on,83,0,60
1,note_on,84,64,60
1,note_on,84,0,600
1,note_on,83,50,0
1,note_on,83,0,120
1,note_on,81,51,0
1,note_on,81,0,120
1,note_on,79,50,0
1,note_on,79,0,115
1,note_on,79,53,5
1,note_on,79,0,120
1,note_on,77,50,0
1,note_on,77,0,120
1,note_on,76,51,0
1,note_on,76,0,120
1,note_on,74,50,0
1,note_on,74,0,120
1,note_on,79,54,0
1,note_on,79,0,60
1,note_on,77,51,180
1,note_on,77,0,60
1,note_on,75,53,180
1,note_on,75,0,240
1,note_on,76,51,0
1,note_on,76,0,240
1,note_on,79,54,840
1,note_on,79,0,60
1,note_on,80,57,60
1,note_on,80,0,60
1,note_on,81,61,60
1,note_on,81,0,60
1,note_on,82,64,60
1,note_on,82,0,60
1,note_on,83,67,60
1,note_on,83,0,60
1,note_on,84,73,60
1,note_on,84,0,600
1,note_on,83,48,0
1,note_on,83,0,120
1,note_on,81,50,0
1,note_on,81,0,120
1,note_on,79,47,0
1,note_on,79,0,116
1,note_on,79,53,4
1,note_on,79,0,120
1,note_on,77,47,0
1,note_on,77,0,120
1,note_on,76,50,0
1,note_on,76,0,120
1,note_on,74,48,0
1,note_on,74,0,120
1,note_on,79,54,0
1,note_on,79,0,60
1,note_on,77,51,180
1,note_on,77,0,60
1,note_on,76,51,180
1,note_on,76,0,240
1,note_on,81,63,240
1,note_on,81,0,60
1,note_on,83,56,0
1,note_on,83,0,60
1,note_on,81,62,0
1,note_on,81,0,60
1,note_on,83,61,0
1,note_on,83,0,60
1,note_on,84,68,0
1,note_on,84,0,120
1,note_on,84,66,0
1,note_on,84,0,60
1,note_on,84,64,60
1,note_on,84,0,240
1,note_on,86,68,240
1,note_on,86,0,60
1,note_on,88,59,0
1,note_on,88,0,60
1,note_on,86,65,0
1,note_on,86,0,60
1,note_on,88,68,0
1,note_on,88,0,60
1,note_on,89,68,0
1,note_on,89,0,120
1,note_on,89,64,0
1,note_on,89,0,60
1,note_on,89,64,60
1,note_on,89,0,240
1,note_on,77,62,240
1,note_on,77,0,60
1,note_on,79,54,0
1,note_on,79,0,60
1,note_on,77,59,0
1,note_on,77,0,60
1,note_on,79,56,0
1,note_on,79,0,60
1,note_on,81,66,0
1,note_on,81,0,120
1,note_on,81,60,0
1,note_on,81,0,60
1,note_on,81,60,60
1,note_on,81,0,120
1,note_on,79,61,0
1,note_on,79,0,120
1,note_on,77,56,0
1,note_on,77,0,60
1,note_on,76,56,60
1,note_on,76,0,60
1,note_on,74,56,60
1,note_on,74,0,120
1,note_on,79,56,120
1,note_on,79,0,120
1,note_on,77,62,120
1,note_on,77,0,240
1,note_on,76,58,0
1,note_on,76,0,240
1,note_on,69,57,0
1,note_on,69,0,60
1,note_on,71,60,0
1,note_on,71,0,60
1,note_on,69,57,0
1,note_on,69,0,60
1,note_on,71,61,0
1,note_on,71,0,60
1,note_on,72,66,0
1,note_on,72,0,120
1,note_on,72,60,0
1,note_on,72,0,60
1,note_on,72,60,60
1,note_on,72,0,240
1,note_on,74,57,240
1,note_on,74,0,60
1,note_on,76,60,0
1,note_on,76,0,60
1,note_on,74,57,0
1,note_on,74,0,60
1,note_on,76,64,0
1,note_on,76,0,60
1,note_on,77,66,0
1,note_on,77,0,120
1,note_on,77,60,0
1,note_on,77,0,60
1,note_on,77,60,60
1,note_on,77,0,240
1,note_on,77,57,240
1,note_on,77,0,60
1,note_on,79,60,0
1,note_on,79,0,60
1,note_on,77,57,0
1,note_on,77,0,60
1,note_on,79,68,0
1,note_on,79,0,60
1,note_on,81,64,0
1,note_on,81,0,120
1,note_on,81,61,0
1,note_on,81,0,60
1,note_on,81,62,60
1,note_on,81,0,120
1,note_on,79,61,0
1,note_on,79,0,120
1,note_on,77,61,0
1,note_on,77,0,60
1,note_on,76,61,60
1,note_on,76,0,60
1,note_on,76,62,60
1,note_on,76,0,120
1,note_on,74,60,0
1,note_on,74,0,120
1,note_on,72,61,0
1,note_on,72,0,60
1,note_on,71,59,60
1,note_on,71,0,60
1,note_on,79,78,60
1,note_on,79,0,320
1,note_on,76,61,0
1,note_on,76,0,80
1,note_on,72,61,0
1,note_on,72,0,80
1,note_on,71,63,0
1,note_on,71,0,80
1,note_on,74,63,0
1,note_on,74,0,80
1,note_on,67,61,0
1,note_on,67,0,80
1,note_on,72,63,0
1,note_on,72,0,80
1,note_on,76,61,0
1,note_on,76,0,80
1,note_on,67,59,0
1,note_on,67,0,80
1,note_on,74,77,0
1,note_on,74,0,320
1,note_on,71,55,0
1,note_on,71,0,80
1,note_on,67,52,0
1,note_on,67,0,80
1,note_on,66,57,0
1,note_on,66,0,80
1,note_on,67,54,0
1,note_on,67,0,80
1,note_on,62,54,0
1,note_on,62,0,80
1,note_on,65,55,0
1,note_on,65,0,80
1,note_on,67,53,0
1,note_on,67,0,80
1,note_on,62,53,0
1,note_on,62,0,80
1,note_on,79,75,0
1,note_on,79,0,320
1,note_on,76,61,0
1,note_on,76,0,80
1,note_on,72,60,0
1,note_on,72,0,80
1,note_on,71,63,0
1,note_on,71,0,80
1,note_on,74,63,0
1,note_on,74,0,80
1,note_on,67,61,0
1,note_on,67,0,80
1,note_on,72,63,0
1,note_on,72,0,80
1,note_on,76,61,0
1,note_on,76,0,80
1,note_on,67,61,0
1,note_on,67,0,80
1,note_on,74,77,0
1,note_on,74,0,320
1,note_on,71,55,0
1,note_on,71,0,80
1,note_on,67,55,0
1,note_on,67,0,80
1,note_on,66,57,0
1,note_on,66,0,80
1,note_on,67,54,0
1,note_on,67,0,80
1,note_on,62,54,0
1,note_on,62,0,80
1,note_on,65,55,0
1,note_on,65,0,80
1,note_on,67,53,0
1,note_on,67,0,80
1,note_on,62,53,0
1,note_on,62,0,80
1,note_on,64,53,0
1,note_on,64,0,80
1,note_on,60,54,0
1,note_on,60,0,80
1,note_on,64,56,0
1,note_on,64,0,80
1,note_on,67,57,0
1,note_on,67,0,80
1,note_on,64,58,0
1,note_on,64,0,80
1,note_on,67,61,0
1,note_on,67,0,80
1,note_on,72,61,0
1,note_on,72,0,80
1,note_on,67,63,0
1,note_on,67,0,80
1,note_on,72,64,0
1,note_on,72,0,80
1,note_on,76,64,0
1,note_on,76,0,80
1,note_on,72,67,0
1,note_on,72,0,80
1,note_on,76,68,0
1,note_on,76,0,80
1,note_on,79,69,0
1,note_on,79,0,80
1,note_on,76,70,0
1,note_on,76,0,80
1,note_on,79,73,0
1,note_on,79,0,80
1,note_on,82,73,0
1,note_on,82,0,80
1,note_on,79,70,0
1,note_on,79,0,80
1,note_on,76,68,0
1,note_on,76,0,80
1,note_on,72,66,0
1,note_on,72,0,80
1,note_on,70,64,0
1,note_on,70,0,80
1,note_on,67,61,0
1,note_on,67,0,80
1,note_on,72,60,0
1,note_on,72,0,80
1,note_on,70,56,0
1,note_on,70,0,80
1,note_on,68,54,0
1,note_on,68,0,80
1,note_on,69,51,0
1,note_on,69,0,60
1,note_on,81,52,60
1,note_on,81,0,120
1,note_on,80,51,0
1,note_on,80,0,120
1,note_on,81,48,0
1,note_on,81,0,120
1,note_on,80,52,0
1,note_on,80,0,120
1,note_on,81,49,0
1,note_on,81,0,120
1,note_on,80,52,0
1,note_on,80,0,120
1,note_on,81,49,0
1,note_on,81,0,120
1,note_on,72,53,0
1,note_on,72,0,480
1,note_on,74,46,0
1,note_on,74,0,60
1,note_on,72,45,0
1,note_on,72,0,60
1,note_on,71,46,0
1,note_on,71,0,60
1,note_on,72,49,0
1,note_on,72,0,60
1,note_on,76,44,0
1,note_on,71,44,0
1,note_on,76,0,120
1,note_on,74,49,0
1,note_on,74,0,120
1,note_on,71,0,0
1,note_on,72,54,0
1,note_on,72,0,80
1,note_on,67,54,0
1,note_on,67,0,80
1,note_on,72,56,0
1,note_on,72,0,80
1,note_on,76,57,0
1,note_on,76,0,80
1,note_on,72,58,0
1,note_on,72,0,80
1,note_on,76,61,0
1,note_on,76,0,80
1,note_on,79,61,0
1,note_on,79,0,80
1,note_on,76,63,0
1,note_on,76,0,80
1,note_on,79,64,0
1,note_on,79,0,80
1,note_on,84,64,0
1,note_on,84,0,80
1,note_on,86,67,0
1,note_on,86,0,80
1,note_on,84,68,0
1,note_on,84,0,80
1,note_on,82,69,0
1,note_on,82,0,80
1,note_on,81,70,0
1,note_on,81,0,80
1,note_on,79,73,0
1,note_on,79,0,80
1,note_on,77,73,0
1,note_on,77,0,80
1,note_on,76,70,0
1,note_on,76,0,80
1,note_on,74,68,0
1,note_on,74,0,80
1,note_on,72,66,0
1,note_on,72,0,80
1,note_on,74,64,0
1,note_on,74,0,80
1,note_on,72,61,0
1,note_on,72,0,80
1,note_on,70,60,0
1,note_on,70,0,80
1,note_on,69,56,0
1,note_on,69,0,80
1,note_on,68,54,0
1,note_on,68,0,80
1,note_on,69,51,0
1,note_on,69,0,60
1,note_on,81,48,60
1,note_on,81,0,120
1,note_on,80,51,0
1,note_on,80,0,120
1,note_on,81,48,0
1,note_on,81,0,120
1,note_on,80,52,0
1,note_on,80,0,120
1,note_on,81,49,0
1,note_on,81,0,120
1,note_on,80,51,0
1,note_on,80,0,120
1,note_on,81,49,0
1,note_on,81,0,120
1,note_on,84,60,120
1,note_on,84,0,120
1,note_on,83,60,0
1,note_on,83,0,120
1,note_on,84,57,0
1,note_on,84,0,120
1,note_on,83,60,0
1,note_on,83,0,120
1,note_on,84,61,0
1,note_on,84,0,120
1,note_on,83,63,0
1,note_on,83,0,120
1,note_on,84,66,0
1,note_on,84,0,110
1,note_on,84,68,10
1,note_on,84,0,120
1,note_on,79,60,0
1,note_on,79,0,110
1,note_on,79,60,10
1,note_on,79,0,60
1,note_on,79,60,60
1,note_on,79,0,60
1,note_on,81,62,60
1,note_on,81,0,120
1,note_on,79,58,0
1,note_on,79,0,120
1,note_on,77,57,0
1,note_on,77,0,60
1,note_on,76,56,60
1,note_on,76,0,60
1,note_on,76,54,60
1,note_on,76,0,240
1,note_on,74,48,240
1,note_on,74,0,60
1,note_on,76,45,0
1,note_on,76,0,60
1,note_on,74,48,0
1,note_on,74,0,60
1,note_on,76,45,0
1,note_on,76,0,60
1,note_on,74,48,0
1,note_on,74,0,40
1,note_on,76,46,0
1,note_on,76,0,40
1,note_on,74,46,1
1,note_on,72,51,39
1,note_on,74,0,1
1,note_on,72,0,59
1,note_on,74,48,0
1,note_on,74,0,60
1,note_on,72,55,0
1,note_on,72,0,240
1,note_on,67,50,240
1,note_on,67,0,330
1,note_on,71,48,0
1,note_on,71,0,30
1,note_on,69,48,0
1,note_on,69,0,60
1,note_on,67,48,0
1,note_on,67,0,60
1,note_on,79,57,0
1,note_on,79,0,60
1,note_on,77,56,180
1,note_on,77,0,60
1,note_on,76,54,180
1,note_on,76,0,60
1,note_on,74,51,180
1,note_on,74,0,60
1,note_on,72,55,180
1,note_on,72,0,480
1,note_on,67,50,0
1,note_on,67,0,330
1,note_on,71,48,0
1,note_on,71,0,30
1,note_on,69,48,0
1,note_on,69,0,60
1,note_on,67,48,0
1,note_on,67,0,60
1,note_on,79,56,0
1,note_on,79,0,60
1,note_on,77,53,180
1,note_on,77,0,60
1,note_on,76,52,180
1,note_on,76,0,60
1,note_on,74,49,180
1,note_on,74,0,60
1,note_on,72,53,180
1,note_on,72,0,240
1,note_on,67,56,200
1,note_on,67,0,40
1,note_on,79,66,0
1,note_on,79,0,360
1,note_on,77,56,0
1,note_on,77,0,40
1,note_on,76,56,0
1,note_on,76,0,40
1,note_on,74,52,0
1,note_on,74,0,40
1,note_on,72,53,0
1,note_on,72,0,240
1,note_on,67,56,200
1,note_on,67,0,40
1,note_on,79,66,0
1,note_on,79,0,360
1,note_on,81,60,0
1,note_on,81,0,60
1,note_on,83,55,0
1,note_on,83,0,60
1,note_on,84,67,0
1,note_on,84,0,240
1,note_on,79,69,240
1,note_on,79,0,80
1,note_on,81,63,0
1,note_on,81,0,80
1,note_on,79,63,0
1,note_on,79,0,80
1,note_on,77,65,0
1,note_on,77,0,80
1,note_on,76,63,0
1,note_on,76,0,80
1,note_on,74,59,0
1,note_on,74,0,80
1,note_on,72,60,0
1,note_on,72,0,240
1,note_on,78,72,240
1,note_on,78,0,80
1,note_on,79,65,0
1,note_on,79,0,80
1,note_on,80,66,0
1,note_on,80,0,80
1,note_on,81,69,0
1,note_on,81,0,80
1,note_on,82,67,0
1,note_on,82,0,80
1,note_on,83,65,0
1,note_on,83,0,80
1,note_on,84,60,0
1,note_on,84,0,240
1,note_on,67,42,0
1,note_on,67,0,180
1,note_on,72,42,0
1,note_on,72,0,60
1,note_on,76,44,0
1,note_on,76,0,60
1,note_on,65,41,180
1,note_on,74,41,0
1,note_on,74,0,60
1,note_on,65,0,0
1,note_on,65,42,180
1,note_on,74,42,0
1,note_on,74,0,480
1,note_on,65,0,0
1,note_on,64,36,0
1,note_on,72,36,0
1,note_on,72,0,240
1,note_on,64,0,0
1,note_on,81,79,240
1,note_on,77,66,0
1,note_on,74,66,0
1,note_on,69,66,0
1,note_on,69,0,120
1,note_on,81,0,0
1,note_on,77,0,0
1,note_on,74,0,0
1,note_on,62,66,360
1,note_on,65,66,0
1,note_on,67,66,0
1,note_on,71,79,0
1,note_on,71,0,120
1,note_on,62,0,0
1,note_on,65,0,0
1,note_on,67,0,0
1,note_on,67,66,360
1,note_on,60,66,0
1,note_on,64,66,0
1,note_on,72,79,0
1,note_on,72,0,120
1,note_on,67,0,0
1,note_on,60,0,0
1,note_on,64,0,0
1,note_on,74,47,0
1,note_on,74,0,240
1,note_on,71,43,0
1,note_on,71,0,120
1,note_on,71,43,120
1,note_on,71,0,120
1,note_on,71,36,120
1,note_on,71,0,24
1,note_on,72,36,0
1,note_on,72,0,24
1,note_on,71,36,0
1,note_on,71,0,24
1,note_on,72,36,0
1,note_on,72,0,24
1,note_on,71,36,0
1,note_on,71,0,24
1,note_on,69,41,0
1,note_on,69,0,60
1,note_on,71,41,0
1,note_on,71,0,60
1,note_on,74,49,0
1,note_on,74,0,240
1,note_on,72,43,0
1,note_on,72,0,60
1,note_on,69,43,180
1,note_on,69,0,480
1,note_on,72,51,0
1,note_on,72,0,240
1,note_on,71,44,0
1,note_on,71,0,60
1,note_on,74,53,180
1,note_on,74,0,240
1,note_on,72,43,0
1,note_on,72,0,60
1,note_on,76,60,180
1,note_on,76,0,480
1,note_on,74,49,0
1,note_on,74,0,240
1,note_on,74,60,240
1,note_on,74,0,240
1,note_on,67,50,0
1,note_on,67,0,120
1,note_on,67,50,120
1,note_on,67,0,240
1,note_on,68,42,0
1,note_on,68,0,24
1,note_on,69,42,0
1,note_on,69,0,24
1,note_on,68,42,0
1,note_on,68,0,24
1,note_on,69,42,0
1,note_on,69,0,24
1,note_on,68,42,0
1,note_on,68,0,24
1,note_on,66,43,0
1,note_on,66,0,60
1,note_on,68,43,0
1,note_on,68,0,60
1,note_on,69,50,0
1,note_on,69,0,240
1,note_on,72,50,0
1,note_on,72,0,60
1,note_on,76,60,180
1,note_on,76,0,480
1,note_on,74,48,0
1,note_on,74,0,240
1,note_on,67,43,0
1,note_on,67,0,60
1,note_on,72,47,180
1,note_on,72,0,240
1,note_on,66,43,0
1,note_on,66,0,60
1,note_on,69,43,180
1,note_on,69,0,480
1,note_on,67,41,0
1,note_on,67,0,240
1,note_on,74,47,240
1,note_on,74,0,240
1,note_on,71,43,0
1,note_on,71,0,120
1,note_on,71,43,120
1,note_on,71,0,120
1,note_on,71,36,120
1,note_on,71,0,24
1,note_on,72,36,0
1,note_on,72,0,24
1,note_on,71,36,0
1,note_on,71,0,24
1,note_on,72,36,0
1,note_on,72,0,24
1,note_on,71,36,0
1,note_on,71,0,24
1,note_on,69,41,0
1,note_on,69,0,60
1,note_on,71,41,0
1,note_on,71,0,60
1,note_on,74,49,0
1,note_on,74,0,240
1,note_on,72,43,0
1,note_on,72,0,60
1,note_on,69,43,180
1,note_on,69,0,480
1,note_on,72,51,0
1,note_on,72,0,240
1,note_on,71,44,0
1,note_on,71,0,60
1,note_on,74,53,180
1,note_on,74,0,240
1,note_on,72,43,0
1,note_on,72,0,60
1,note_on,76,60,180
1,note_on,76,0,480
1,note_on,74,49,0
1,note_on,74,0,240
1,note_on,74,54,240
1,note_on,74,0,240
1,note_on,72,47,0
1,note_on,72,0,60
1,note_on,76,55,180
1,note_on,76,0,240
1,note_on,74,43,0
1,note_on,74,0,60
1,note_on,77,61,180
1,note_on,77,0,480
1,note_on,76,51,0
1,note_on,76,0,240
1,note_on,76,56,240
1,note_on,76,0,240
1,note_on,74,49,0
1,note_on,74,0,60
1,note_on,77,57,180
1,note_on,77,0,240
1,note_on,76,47,0
1,note_on,76,0,60
1,note_on,79,64,180
1,note_on,79,0,480
1,note_on,77,54,0
1,note_on,77,0,240
1,note_on,76,56,240
1,note_on,76,0,360
1,note_on,77,53,0
1,note_on,77,0,60
1,note_on,79,53,0
1,note_on,79,0,60
1,note_on,77,56,0
1,note_on,77,0,240
1,note_on,76,56,0
1,note_on,76,0,120
1,note_on,74,55,120
1,note_on,74,0,480
1,note_on,79,64,240
1,note_on,79,0,120
1,note_on,77,63,120
1,note_on,77,0,240
1,note_on,75,44,0
1,note_on,75,0,240
1,note_on,72,43,240
1,note_on,72,0,120
1,note_on,71,50,120
1,note_on,71,0,240
1,note_on,74,47,0
1,note_on,74,0,240
1,note_on,79,64,240
1,note_on,79,0,120
1,note_on,77,47,360
1,note_on,77,0,120
1,note_on,75,47,0
1,note_on,75,0,120
1,note_on,74,43,240
1,note_on,74,0,120
1,note_on,72,43,0
1,note_on,72,0,120
1,note_on,71,51,0
1,note_on,71,0,240
1,note_on,74,43,0
1,note_on,74,0,240
1,note_on,79,61,120
1,note_on,79,0,120
1,note_on,78,62,0
1,note_on,78,0,120
1,note_on,79,61,0
1,note_on,79,0,120
1,note_on,75,57,120
1,note_on,75,0,120
1,note_on,74,60,0
1,note_on,74,0,120
1,note_on,75,58,0
1,note_on,75,0,120
1,note_on,72,55,120
1,note_on,72,0,120
1,note_on,71,57,0
1,note_on,71,0,120
1,note_on,72,56,0
1,note_on,72,0,120
1,note_on,71,64,0
1,note_on,71,0,240
1,note_on,74,56,0
1,note_on,74,0,60
1,note_on,71,62,180
1,note_on,71,0,240
1,note_on,74,56,0
1,note_on,74,0,60
1,note_on,71,62,180
1,note_on,71,0,240
1,note_on,74,54,0
1,note_on,74,0,60
1,note_on,74,37,660
1,note_on,74,0,240
1,note_on,77,34,0
1,note_on,77,0,60
1,note_on,74,37,180
1,note_on,74,0,240
1,note_on,77,34,0
1,note_on,77,0,60
1,note_on,74,37,180
1,note_on,74,0,240
1,note_on,77,35,0
1,note_on,77,0,60
1,note_on,76,60,1
1,note_on,76,0,359
1,note_on,77,54,0
1,note_on,77,0,60
1,note_on,79,54,0
1,note_on,79,0,60
1,note_on,72,60,0
1,note_on,72,0,240
1,note_on,74,49,0
1,note_on,71,49,0
1,note_on,71,0,240
1,note_on,74,0,0
1,note_on,71,53,0
1,note_on,74,53,0
1,note_on,74,0,180
1,note_on,77,48,0
1,note_on,77,0,60
1,note_on,71,0,0
1,note_on,76,53,0
1,note_on,72,53,0
1,note_on,72,0,240
1,note_on,76,0,0
1,note_on,71,50,0
1,note_on,74,50,0
1,note_on,74,0,480
1,note_on,71,0,0
1,note_on,76,60,0
1,note_on,76,0,360
1,note_on,77,56,0
1,note_on,77,0,60
1,note_on,79,56,0
1,note_on,79,0,60
1,note_on,72,61,0
1,note_on,72,0,240
1,note_on,74,49,0
1,note_on,71,49,0
1,note_on,71,0,120
1,note_on,74,0,0
1,note_on,77,54,120
1,note_on,74,54,0
1,note_on,74,0,240
1,note_on,77,0,0
1,note_on,76,49,0
1,note_on,72,49,0
1,note_on,76,0,48
1,note_on,77,49,0
1,note_on,77,0,48
1,note_on,76,49,0
1,note_on,76,0,48
1,note_on,77,49,0
1,note_on,77,0,48
1,note_on,76,49,0
1,note_on,76,0,48
1,note_on,72,0,0
1,note_on,71,52,0
1,note_on,74,52,0
1,note_on,74,0,480
1,note_on,71,0,0
1,note_on,77,64,0
1,note_on,77,0,360
1,note_on,79,60,0
1,note_on,79,0,60
1,note_on,77,60,0
1,note_on,77,0,60
1,note_on,76,64,0
1,note_on,76,0,240
1,note_on,76,62,0
1,note_on,76,0,120
1,note_on,81,69,120
1,note_on,81,0,360
1,note_on,83,63,0
1,note_on,83,0,60
1,note_on,84,63,0
1,note_on,84,0,60
1,note_on,79,69,0
1,note_on,79,0,240
1,note_on,79,69,0
1,note_on,79,0,120
1,note_on,79,68,120
1,note_on,79,0,120
1,note_on,77,63,0
1,note_on,77,0,90
1,note_on,77,64,30
1,note_on,77,0,120
1,note_on,74,63,0
1,note_on,74,0,90
1,note_on,77,69,30
1,note_on,77,0,120
1,note_on,76,64,0
1,note_on,76,0,90
1,note_on,76,66,30
1,note_on,76,0,120
1,note_on,72,64,0
1,note_on,72,0,90
1,note_on,73,64,30
1,note_on,73,0,120
1,note_on,74,60,0
1,note_on,74,0,120
1,note_on,76,64,0
1,note_on,76,0,120
1,note_on,74,62,0
1,note_on,74,0,120
1,note_on,72,63,0
1,note_on,72,0,120
1,note_on,71,61,0
1,note_on,71,0,120
1,note_on,69,61,0
1,note_on,69,0,120
1,note_on,67,60,0
1,note_on,67,0,120
1,note_on,76,70,0
1,note_on,76,0,360
1,note_on,77,64,0
1,note_on,77,0,60
1,note_on,79,64,0
1,note_on,79,0,60
1,note_on,72,70,0
1,note_on,72,0,240
1,note_on,71,60,0
1,note_on,74,60,0
1,note_on,74,0,240
1,note_on,71,0,0
1,note_on,74,63,0
1,note_on,71,63,0
1,note_on,74,0,180
1,note_on,77,57,0
1,note_on,77,0,60
1,note_on,71,0,0
1,note_on,72,63,0
1,note_on,76,63,0
1,note_on,76,0,240
1,note_on,72,0,0
1,note_on,71,61,0
1,note_on,74,61,0
1,note_on,74,0,480
1,note_on,71,0,0
1,note_on,76,70,0
1,note_on,76,0,360
1,note_on,77,67,0
1,note_on,77,0,60
1,note_on,79,67,0
1,note_on,79,0,60
1,note_on,72,71,0
1,note_on,72,0,240
1,note_on,74,60,0
1,note_on,71,60,0
1,note_on,71,0,120
1,note_on,74,0,0
1,note_on,74,64,120
1,note_on,77,64,0
1,note_on,77,0,240
1,note_on,74,0,0
1,note_on,72,60,0
1,note_on,76,60,0
1,note_on,76,0,48
1,note_on,77,60,0
1,note_on,77,0,48
1,note_on,76,60,0
1,note_on,76,0,48
1,note_on,77,60,0
1,note_on,77,0,48
1,note_on,76,60,0
1,note_on,76,0,48
1,note_on,72,0,0
1,note_on,71,62,0
1,note_on,74,62,0
1,note_on,74,0,480
1,note_on,71,0,0
1,note_on,77,77,0
1,note_on,77,0,360
1,note_on,79,70,0
1,note_on,79,0,60
1,note_on,77,70,0
1,note_on,77,0,60
1,note_on,76,77,0
1,note_on,76,0,240
1,note_on,76,74,0
1,note_on,76,0,120
1,note_on,81,78,120
1,note_on,81,0,360
1,note_on,83,71,0
1,note_on,83,0,60
1,note_on,84,69,0
1,note_on,84,0,60
1,note_on,79,79,0
1,note_on,79,0,240
1,note_on,79,77,0
1,note_on,79,0,120
1,note_on,80,77,120
1,note_on,80,0,120
1,note_on,81,74,0
1,note_on,81,0,120
1,note_on,77,75,0
1,note_on,77,0,120
1,note_on,74,72,0
1,note_on,74,0,120
1,note_on,72,75,0
1,note_on,72,0,240
1,note_on,71,71,0
1,note_on,71,0,240
1,note_on,72,75,0
1,note_on,72,0,80
1,note_on,67,69,0
1,note_on,67,0,80
1,note_on,76,66,0
1,note_on,76,0,80
1,note_on,72,75,0
1,note_on,72,0,80
1,note_on,79,69,0
1,note_on,79,0,80
1,note_on,76,66,0
1,note_on,76,0,80
1,note_on,84,73,0
1,note_on,84,0,80
1,note_on,83,66,0
1,note_on,83,0,80
1,note_on,81,65,0
1,note_on,81,0,80
1,note_on,79,70,0
1,note_on,79,0,80
1,note_on,77,67,0
1,note_on,77,0,80
1,note_on,76,65,0
1,note_on,76,0,80
1,note_on,73,63,0
1,note_on,73,0,80
1,note_on,74,60,0
1,note_on,74,0,80
1,note_on,77,60,0
1,note_on,77,0,80
1,note_on,81,62,0
1,note_on,81,0,80
1,note_on,77,57,0
1,note_on,77,0,80
1,note_on,74,57,0
1,note_on,74,0,80
1,note_on,79,61,0
1,note_on,79,0,80
1,note_on,76,57,0
1,note_on,76,0,80
1,note_on,72,57,0
1,note_on,72,0,80
1,note_on,77,61,0
1,note_on,77,0,80
1,note_on,74,55,0
1,note_on,74,0,80
1,note_on,71,55,0
1,note_on,71,0,80
1,note_on,72,75,0
1,note_on,72,0,80
1,note_on,67,69,0
1,note_on,67,0,80
1,note_on,76,67,0
1,note_on,76,0,80
1,note_on,72,75,0
1,note_on,72,0,80
1,note_on,79,69,0
1,note_on,79,0,80
1,note_on,76,67,0
1,note_on,76,0,80
1,note_on,84,73,0
1,note_on,84,0,80
1,note_on,83,66,0
1,note_on,83,0,80
1,note_on,81,64,0
1,note_on,81,0,80
1,note_on,79,70,0
1,note_on,79,0,80
1,note_on,77,67,0
1,note_on,77,0,80
1,note_on,76,65,0
1,note_on,76,0,80
1,note_on,73,63,0
1,note_on,73,0,80
1,note_on,74,60,0
1,note_on,74,0,80
1,note_on,77,59,0
1,note_on,77,0,80
1,note_on,81,62,0
1,note_on,81,0,80
1,note_on,77,57,0
1,note_on,77,0,80
1,note_on,74,55,0
1,note_on,74,0,80
1,note_on,79,61,0
1,note_on,79,0,80
1,note_on,76,57,0
1,note_on,76,0,80
1,note_on,72,54,0
1,note_on,72,0,80
1,note_on,77,61,0
1,note_on,77,0,80
1,note_on,74,55,0
1,note_on,74,0,80
1,note_on,71,55,0
1,note_on,71,0,80
1,note_on,72,52,0
1,note_on,72,0,60
1,note_on,67,50,180
1,note_on,67,0,60
1,note_on,60,50,180
1,note_on,60,0,480
1,note_on,76,50,0
1,note_on,76,0,480
1,note_on,77,46,0
1,note_on,77,0,60
1,note_on,76,46,0
1,note_on,76,0,60
1,note_on,74,46,0
1,note_on,74,0,60
1,note_on,76,46,0
1,note_on,76,0,60
1,note_on,79,50,0
1,note_on,79,0,120
1,note_on,77,46,0
1,note_on,77,0,120
1,note_on,76,51,0
1,note_on,76,0,120
1,note_on,74,49,0
1,note_on,74,0,120
1,note_on,72,49,0
1,note_on,72,0,120
1,note_on,71,49,0
1,note_on,71,0,120
1,note_on,72,52,0
1,note_on,72,0,60
1,note_on,73,55,180
1,note_on,73,0,60
1,note_on,74,56,180
1,note_on,74,0,60
1,note_on,75,60,180
1,note_on,75,0,60
1,note_on,76,63,180
1,note_on,76,0,60
1,note_on,79,62,180
1,note_on,79,0,120
1,note_on,77,57,0
1,note_on,77,0,120
1,note_on,76,62,0
1,note_on,76,0,360
1,note_on,77,55,0
1,note_on,77,0,60
1,note_on,76,55,0
1,note_on,76,0,60
1,note_on,74,56,0
1,note_on,74,0,240
1,note_on,77,58,240
1,note_on,77,0,480
1,note_on,79,48,0
1,note_on,79,0,60
1,note_on,77,49,0
1,note_on,77,0,60
1,note_on,76,49,0
1,note_on,76,0,60
1,note_on,77,49,0
1,note_on,77,0,60
1,note_on,81,55,0
1,note_on,81,0,120
1,note_on,79,52,0
1,note_on,79,0,120
1,note_on,77,52,0
1,note_on,77,0,120
1,note_on,76,50,0
1,note_on,76,0,120
1,note_on,74,50,0
1,note_on,74,0,120
1,note_on,72,50,0
1,note_on,72,0,120
1,note_on,71,49,0
1,note_on,71,0,120
1,note_on,72,50,0
1,note_on,72,0,60
1,note_on,74,51,60
1,note_on,74,0,60
1,note_on,76,53,60
1,note_on,76,0,60
1,note_on,77,54,60
1,note_on,77,0,60
1,note_on,79,55,60
1,note_on,79,0,60
1,note_on,81,56,60
1,note_on,81,0,60
1,note_on,83,58,60
1,note_on,83,0,60
1,note_on,84,60,60
1,note_on,84,0,60
1,note_on,86,61,60
1,note_on,86,0,60
1,note_on,88,62,60
1,note_on,88,0,60
1,note_on,89,63,60
1,note_on,89,0,60
1,note_on,87,79,60
1,note_on,87,0,480
1,note_on,88,75,0
1,note_on,88,0,240
1,note_on,70,64,240
1,note_on,70,0,320
1,note_on,76,60,0
1,note_on,76,0,80
1,note_on,79,60,0
1,note_on,79,0,80
1,note_on,82,60,0
1,note_on,82,0,80
1,note_on,79,58,0
1,note_on,79,0,80
1,note_on,76,58,0
1,note_on,76,0,80
1,note_on,79,60,0
1,note_on,79,0,80
1,note_on,76,58,0
1,note_on,76,0,80
1,note_on,70,58,0
1,note_on,70,0,80
1,note_on,69,64,0
1,note_on,69,0,320
1,note_on,72,60,0
1,note_on,72,0,80
1,note_on,77,58,0
1,note_on,77,0,80
1,note_on,81,60,0
1,note_on,81,0,80
1,note_on,77,59,0
1,note_on,77,0,80
1,note_on,72,59,0
1,note_on,72,0,80
1,note_on,77,60,0
1,note_on,77,0,80
1,note_on,72,59,0
1,note_on,72,0,80
1,note_on,69,59,0
1,note_on,69,0,80
1,note_on,67,64,0
1,note_on,67,0,320
1,note_on,73,60,0
1,note_on,73,0,80
1,note_on,76,58,0
1,note_on,76,0,80
1,note_on,79,60,0
1,note_on,79,0,80
1,note_on,76,58,0
1,note_on,76,0,80
1,note_on,73,58,0
1,note_on,73,0,80
1,note_on,76,60,0
1,note_on,76,0,80
1,note_on,73,58,0
1,note_on,73,0,80
1,note_on,67,58,0
1,note_on,67,0,80
1,note_on,66,64,0
1,note_on,66,0,320
1,note_on,69,60,0
1,note_on,69,0,80
1,note_on,74,57,0
1,note_on,74,0,80
1,note_on,78,60,0
1,note_on,78,0,80
1,note_on,74,58,0
1,note_on,74,0,80
1,note_on,69,58,0
1,note_on,69,0,80
1,note_on,74,60,0
1,note_on,74,0,80
1,note_on,69,58,0
1,note_on,69,0,80
1,note_on,66,58,0
1,note_on,66,0,80
1,note_on,65,64,0
1,note_on,65,0,320
1,note_on,71,60,0
1,note_on,71,0,80
1,note_on,74,58,0
1,note_on,74,0,80
1,note_on,77,60,0
1,note_on,77,0,80
1,note_on,74,58,0
1,note_on,74,0,80
1,note_on,71,58,0
1,note_on,71,0,80
1,note_on,74,60,0
1,note_on,74,0,80
1,note_on,71,58,0
1,note_on,71,0,80
1,note_on,65,59,0
1,note_on,65,0,80
1,note_on,64,64,0
1,note_on,64,0,320
1,note_on,67,60,0
1,note_on,67,0,80
1,note_on,72,60,0
1,note_on,72,0,80
1,note_on,76,60,0
1,note_on,76,0,80
1,note_on,72,58,0
1,note_on,72,0,80
1,note_on,67,58,0
1,note_on,67,0,80
1,note_on,72,60,0
1,note_on,72,0,80
1,note_on,67,57,0
1,note_on,67,0,80
1,note_on,64,57,0
1,note_on,64,0,80
1,note_on,62,60,80
1,note_on,62,0,80
1,note_on,69,58,0
1,note_on,69,0,80
1,note_on,74,58,0
1,note_on,74,0,80
1,note_on,69,60,0
1,note_on,69,0,80
1,note_on,62,58,0
1,note_on,62,0,80
1,note_on,62,60,80
1,note_on,62,0,80
1,note_on,69,57,0
1,note_on,69,0,80
1,note_on,72,60,0
1,note_on,72,0,80
1,note_on,69,58,0
1,note_on,69,0,80
1,note_on,62,58,0
1,note_on,62,0,80
1,note_on,71,63,0
1,note_on,71,0,240
1,note_on,79,62,360
1,note_on,79,0,60
1,note_on,81,64,60
1,note_on,81,0,60
1,note_on,83,68,60
1,note_on,83,0,60
1,note_on,84,64,60
1,note_on,84,0,600
1,note_on,83,50,0
1,note_on,83,0,120
1,note_on,81,51,0
1,note_on,81,0,120
1,note_on,79,50,0
1,note_on,79,0,115
1,note_on,79,53,5
1,note_on,79,0,120
1,note_on,77,50,0
1,note_on,77,0,120
1,note_on,76,51,0
1,note_on,76,0,120
1,note_on,74,50,0
1,note_on,74,0,120
1,note_on,79,54,0
1,note_on,79,0,60
1,note_on,77,51,180
1,note_on,77,0,60
1,note_on,75,53,180
1,note_on,75,0,240
1,note_on,76,51,0
1,note_on,76,0,240
1,note_on,79,54,840
1,note_on,79,0,60
1,note_on,80,57,60
1,note_on,80,0,60
1,note_on,81,61,60
1,note_on,81,0,60
1,note_on,82,64,60
1,note_on,82,0,60
1,note_on,83,67,60
1,note_on,83,0,60
1,note_on,84,73,60
1,note_on,84,0,600
1,note_on,83,48,0
1,note_on,83,0,120
1,note_on,81,50,0
1,note_on,81,0,120
1,note_on,79,47,0
1,note_on,79,0,116
1,note_on,79,53,4
1,note_on,79,0,120
1,note_on,77,47,0
1,note_on,77,0,120
1,note_on,76,50,0
1,note_on,76,0,120
1,note_on,74,48,0
1,note_on,74,0,120
1,note_on,79,54,0
1,note_on,79,0,60
1,note_on,77,51,180
1,note_on,77,0,60
1,note_on,76,51,180
1,note_on,76,0,240
1,note_on,81,63,240
1,note_on,81,0,60
1,note_on,83,56,0
1,note_on,83,0,60
1,note_on,81,62,0
1,note_on,81,0,60
1,note_on,83,61,0
1,note_on,83,0,60
1,note_on,84,68,0
1,note_on,84,0,120
1,note_on,84,66,0
1,note_on,84,0,60
1,note_on,84,64,60
1,note_on,84,0,240
1,note_on,86,68,240
1,note_on,86,0,60
1,note_on,88,59,0
1,note_on,88,0,60
1,note_on,86,65,0
1,note_on,86,0,60
1,note_on,88,68,0
1,note_on,88,0,60
1,note_on,89,68,0
1,note_on,89,0,120
1,note_on,89,64,0
1,note_on,89,0,60
1,note_on,89,64,60
1,note_on,89,0,240
1,note_on,77,62,240
1,note_on,77,0,60
1,note_on,79,54,0
1,note_on,79,0,60
1,note_on,77,59,0
1,note_on,77,0,60
1,note_on,79,56,0
1,note_on,79,0,60
1,note_on,81,66,0
1,note_on,81,0,120
1,note_on,81,60,0
1,note_on,81,0,60
1,note_on,81,60,60
1,note_on,81,0,120
1,note_on,79,61,0
1,note_on,79,0,120
1,note_on,77,56,0
1,note_on,77,0,60
1,note_on,76,56,60
1,note_on,76,0,60
1,note_on,74,56,60
1,note_on,74,0,120
1,note_on,79,56,120
1,note_on,79,0,120
1,note_on,77,62,120
1,note_on,77,0,240
1,note_on,76,58,0
1,note_on,76,0,240
1,note_on,69,57,0
1,note_on,69,0,60
1,note_on,71,60,0
1,note_on,71,0,60
1,note_on,69,57,0
1,note_on,69,0,60
1,note_on,71,61,0
1,note_on,71,0,60
1,note_on,72,66,0
1,note_on,72,0,120
1,note_on,72,60,0
1,note_on,72,0,60
1,note_on,72,60,60
1,note_on,72,0,240
1,note_on,74,57,240
1,note_on,74,0,60
1,note_on,76,60,0
1,note_on,76,0,60
1,note_on,74,57,0
1,note_on,74,0,60
1,note_on,76,64,0
1,note_on,76,0,60
1,note_on,77,66,0
1,note_on,77,0,120
1,note_on,77,60,0
1,note_on,77,0,60
1,note_on,77,60,60
1,note_on,77,0,240
1,note_on,77,57,240
1,note_on,77,0,60
1,note_on,79,60,0
1,note_on,79,0,60
1,note_on,77,57,0
1,note_on,77,0,60
1,note_on,79,68,0
1,note_on,79,0,60
1,note_on,81,64,0
1,note_on,81,0,120
1,note_on,81,61,0
1,note_on,81,0,60
1,note_on,81,62,60
1,note_on,81,0,120
1,note_on,79,61,0
1,note_on,79,0,120
1,note_on,77,61,0
1,note_on,77,0,60
1,note_on,76,61,60
1,note_on,76,0,60
1,note_on,76,62,60
1,note_on,76,0,120
1,note_on,74,60,0
1,note_on,74,0,120
1,note_on,72,61,0
1,note_on,72,0,60
1,note_on,71,59,60
1,note_on,71,0,60
1,note_on,79,78,60
1,note_on,79,0,320
1,note_on,76,61,0
1,note_on,76,0,80
1,note_on,72,61,0
1,note_on,72,0,80
1,note_on,71,63,0
1,note_on,71,0,80
1,note_on,74,63,0
1,note_on,74,0,80
1,note_on,67,61,0
1,note_on,67,0,80
1,note_on,72,63,0
1,note_on,72,0,80
1,note_on,76,61,0
1,note_on,76,0,80
1,note_on,67,59,0
1,note_on,67,0,80
1,note_on,74,77,0
1,note_on,74,0,320
1,note_on,71,55,0
1,note_on,71,0,80
1,note_on,67,52,0
1,note_on,67,0,80
1,note_on,66,57,0
1,note_on,66,0,80
1,note_on,67,54,0
1,note_on,67,0,80
1,note_on,62,54,0
1,note_on,62,0,80
1,note_on,65,55,0
1,note_on,65,0,80
1,note_on,67,53,0
1,note_on,67,0,80
1,note_on,62,53,0
1,note_on,62,0,80
1,note_on,79,75,0
1,note_on,79,0,320
1,note_on,76,61,0
1,note_on,76,0,80
1,note_on,72,60,0
1,note_on,72,0,80
1,note_on,71,63,0
1,note_on,71,0,80
1,note_on,74,63,0
1,note_on,74,0,80
1,note_on,67,61,0
1,note_on,67,0,80
1,note_on,72,63,0
1,note_on,72,0,80
1,note_on,76,61,0
1,note_on,76,0,80
1,note_on,67,61,0
1,note_on,67,0,80
1,note_on,74,77,0
1,note_on,74,0,320
1,note_on,71,55,0
1,note_on,71,0,80
1,note_on,67,55,0
1,note_on,67,0,80
1,note_on,66,57,0
1,note_on,66,0,80
1,note_on,67,54,0
1,note_on,67,0,80
1,note_on,62,54,0
1,note_on,62,0,80
1,note_on,65,55,0
1,note_on,65,0,80
1,note_on,67,53,0
1,note_on,67,0,80
1,note_on,62,53,0
1,note_on,62,0,80
1,note_on,64,53,0
1,note_on,64,0,80
1,note_on,60,54,0
1,note_on,60,0,80
1,note_on,64,56,0
1,note_on,64,0,80
1,note_on,67,57,0
1,note_on,67,0,80
1,note_on,64,58,0
1,note_on,64,0,80
1,note_on,67,61,0
1,note_on,67,0,80
1,note_on,72,61,0
1,note_on,72,0,80
1,note_on,67,63,0
1,note_on,67,0,80
1,note_on,72,64,0
1,note_on,72,0,80
1,note_on,76,64,0
1,note_on,76,0,80
1,note_on,72,67,0
1,note_on,72,0,80
1,note_on,76,68,0
1,note_on,76,0,80
1,note_on,79,69,0
1,note_on,79,0,80
1,note_on,76,70,0
1,note_on,76,0,80
1,note_on,79,73,0
1,note_on,79,0,80
1,note_on,82,73,0
1,note_on,82,0,80
1,note_on,79,70,0
1,note_on,79,0,80
1,note_on,76,68,0
1,note_on,76,0,80
1,note_on,72,66,0
1,note_on,72,0,80
1,note_on,70,64,0
1,note_on,70,0,80
1,note_on,67,61,0
1,note_on,67,0,80
1,note_on,72,60,0
1,note_on,72,0,80
1,note_on,70,56,0
1,note_on,70,0,80
1,note_on,68,54,0
1,note_on,68,0,80
1,note_on,69,51,0
1,note_on,69,0,60
1,note_on,81,52,60
1,note_on,81,0,120
1,note_on,80,51,0
1,note_on,80,0,120
1,note_on,81,48,0
1,note_on,81,0,120
1,note_on,80,52,0
1,note_on,80,0,120
1,note_on,81,49,0
1,note_on,81,0,120
1,note_on,80,52,0
1,note_on,80,0,120
1,note_on,81,49,0
1,note_on,81,0,120
1,note_on,72,53,0
1,note_on,72,0,480
1,note_on,74,46,0
1,note_on,74,0,60
1,note_on,72,45,0
1,note_on,72,0,60
1,note_on,71,46,0
1,note_on,71,0,60
1,note_on,72,49,0
1,note_on,72,0,60
1,note_on,71,44,0
1,note_on,76,44,0
1,note_on,76,0,120
1,note_on,74,49,0
1,note_on,74,0,120
1,note_on,71,0,0
1,note_on,72,54,0
1,note_on,72,0,80
1,note_on,67,54,0
1,note_on,67,0,80
1,note_on,72,56,0
1,note_on,72,0,80
1,note_on,76,57,0
1,note_on,76,0,80
1,note_on,72,58,0
1,note_on,72,0,80
1,note_on,76,61,0
1,note_on,76,0,80
1,note_on,79,61,0
1,note_on,79,0,80
1,note_on,76,63,0
1,note_on,76,0,80
1,note_on,79,64,0
1,note_on,79,0,80
1,note_on,84,64,0
1,note_on,84,0,80
1,note_on,86,67,0
1,note_on,86,0,80
1,note_on,84,68,0
1,note_on,84,0,80
1,note_on,82,69,0
1,note_on,82,0,80
1,note_on,81,70,0
1,note_on,81,0,80
1,note_on,79,73,0
1,note_on,79,0,80
1,note_on,77,73,0
1,note_on,77,0,80
1,note_on,76,70,0
1,note_on,76,0,80
1,note_on,74,68,0
1,note_on,74,0,80
1,note_on,72,66,0
1,note_on,72,0,80
1,note_on,74,64,0
1,note_on,74,0,80
1,note_on,72,61,0
1,note_on,72,0,80
1,note_on,70,60,0
1,note_on,70,0,80
1,note_on,69,56,0
1,note_on,69,0,80
1,note_on,68,54,0
1,note_on,68,0,80
1,note_on,69,51,0
1,note_on,69,0,60
1,note_on,81,48,60
1,note_on,81,0,120
1,note_on,80,51,0
1,note_on,80,0,120
1,note_on,81,48,0
1,note_on,81,0,120
1,note_on,80,52,0
1,note_on,80,0,120
1,note_on,81,49,0
1,note_on,81,0,120
1,note_on,80,51,0
1,note_on,80,0,120
1,note_on,81,49,0
1,note_on,81,0,120
1,note_on,84,60,120
1,note_on,84,0,120
1,note_on,83,60,0
1,note_on,83,0,120
1,note_on,84,57,0
1,note_on,84,0,120
1,note_on,83,60,0
1,note_on,83,0,120
1,note_on,84,61,0
1,note_on,84,0,120
1,note_on,83,63,0
1,note_on,83,0,120
1,note_on,84,66,0
1,note_on,84,0,110
1,note_on,84,68,10
1,note_on,84,0,120
1,note_on,79,60,0
1,note_on,79,0,110
1,note_on,79,60,10
1,note_on,79,0,60
1,note_on,79,60,60
1,note_on,79,0,60
1,note_on,81,62,60
1,note_on,81,0,120
1,note_on,79,58,0
1,note_on,79,0,120
1,note_on,77,57,0
1,note_on,77,0,60
1,note_on,76,56,60
1,note_on,76,0,60
1,note_on,76,54,60
1,note_on,76,0,240
1,note_on,74,48,240
1,note_on,74,0,60
1,note_on,76,45,0
1,note_on,76,0,60
1,note_on,74,48,0
1,note_on,74,0,60
1,note_on,76,45,0
1,note_on,76,0,60
1,note_on,74,48,0
1,note_on,74,0,40
1,note_on,76,46,0
1,note_on,76,0,40
1,note_on,74,46,1
1,note_on,72,51,39
1,note_on,74,0,1
1,note_on,72,0,59
1,note_on,74,48,0
1,note_on,74,0,60
1,note_on,72,55,0
1,note_on,72,0,240
1,note_on,67,50,240
1,note_on,67,0,330
1,note_on,71,48,0
1,note_on,71,0,30
1,note_on,69,48,0
1,note_on,69,0,60
1,note_on,67,48,0
1,note_on,67,0,60
1,note_on,79,57,0
1,note_on,79,0,60
1,note_on,77,56,180
1,note_on,77,0,60
1,note_on,76,54,180
1,note_on,76,0,60
1,note_on,74,51,180
1,note_on,74,0,60
1,note_on,72,55,180
1,note_on,72,0,480
1,note_on,67,50,0
1,note_on,67,0,330
1,note_on,71,48,0
1,note_on,71,0,30
1,note_on,69,48,0
1,note_on,69,0,60
1,note_on,67,48,0
1,note_on,67,0,60
1,note_on,79,56,0
1,note_on,79,0,60
1,note_on,77,53,180
1,note_on,77,0,60
1,note_on,76,52,180
1,note_on,76,0,60
1,note_on,74,49,180
1,note_on,74,0,60
1,note_on,72,53,180
1,note_on,72,0,240
1,note_on,67,56,200
1,note_on,67,0,40
1,note_on,79,66,0
1,note_on,79,0,360
1,note_on,77,56,0
1,note_on,77,0,40
1,note_on,76,56,0
1,note_on,76,0,40
1,note_on,74,52,0
1,note_on,74,0,40
1,note_on,72,53,0
1,note_on,72,0,240
1,note_on,67,56,200
1,note_on,67,0,40
1,note_on,79,66,0
1,note_on,79,0,360
1,note_on,81,60,0
1,note_on,81,0,60
1,note_on,83,55,0
1,note_on,83,0,60
1,note_on,84,67,0
1,note_on,84,0,240
1,note_on,79,69,240
1,note_on,79,0,80
1,note_on,81,63,0
1,note_on,81,0,80
1,note_on,79,63,0
1,note_on,79,0,80
1,note_on,77,65,0
1,note_on,77,0,80
1,note_on,76,63,0
1,note_on,76,0,80
1,note_on,74,59,0
1,note_on,74,0,80
1,note_on,72,60,0
1,note_on,72,0,240
1,note_on,78,72,240
1,note_on,78,0,80
1,note_on,79,65,0
1,note_on,79,0,80
1,note_on,80,66,0
1,note_on,80,0,80
1,note_on,81,69,0
1,note_on,81,0,80
1,note_on,82,67,0
1,note_on,82,0,80
1,note_on,83,65,0
1,note_on,83,0,80
1,note_on,84,60,0
1,note_on,84,0,240
1,note_on,67,42,0
1,note_on,67,0,180
1,note_on,72,42,0
1,note_on,72,0,60
1,note_on,76,44,0
1,note_on,76,0,60
1,note_on,65,41,180
1,note_on,74,41,0
1,note_on,74,0,60
1,note_on,65,0,0
1,note_on,65,42,180
1,note_on,74,42,0
1,note_on,74,0,480
1,note_on,65,0,0
1,note_on,64,36,0
1,note_on,72,36,0
1,note_on,72,0,240
1,note_on,64,0,0
1,note_on,81,82,240
1,note_on,77,69,0
1,note_on,74,69,0
1,note_on,69,69,0
1,note_on,69,0,120
1,note_on,81,0,0
1,note_on,77,0,0
1,note_on,74,0,0
1,note_on,62,69,360
1,note_on,65,69,0
1,note_on,67,69,0
1,note_on,71,82,0
1,note_on,71,0,120
1,note_on,62,0,0
1,note_on,65,0,0
1,note_on,67,0,0
1,note_on,67,69,360
1,note_on,60,69,0
1,note_on,64,69,0
1,note_on,72,82,0
1,note_on,72,0,120
1,note_on,67,0,0
1,note_on,60,0,0
1,note_on,64,0,0
2,note_on,48,40,240
2,note_on,48,0,240
2,note_on,52,40,0
2,note_on,52,0,240
2,note_on,55,40,0
2,note_on,55,0,240
2,note_on,60,43,0
2,note_on,60,0,240
2,note_on,48,40,0
2,note_on,48,0,240
2,note_on,55,43,0
2,note_on,55,0,240
2,note_on,43,40,0
2,note_on,43,0,240
2,note_on,48,40,240
2,note_on,48,0,240
2,note_on,52,40,0
2,note_on,52,0,240
2,note_on,55,43,0
2,note_on,55,0,240
2,note_on,60,44,0
2,note_on,60,0,240
2,note_on,48,41,0
2,note_on,48,0,240
2,note_on,55,43,0
2,note_on,55,0,240
2,note_on,43,41,0
2,note_on,43,0,240
2,note_on,57,47,0
2,note_on,57,0,240
2,note_on,60,46,0
2,note_on,60,0,240
2,note_on,55,49,0
2,note_on,55,0,240
2,note_on,60,45,0
2,note_on,60,0,240
2,note_on,53,49,0
2,note_on,53,0,240
2,note_on,60,47,0
2,note_on,60,0,240
2,note_on,52,50,0
2,note_on,52,0,240
2,note_on,60,46,0
2,note_on,60,0,240
2,note_on,67,43,240
2,note_on,59,43,0
2,note_on,59,0,240
2,note_on,67,0,0
2,note_on,67,43,240
2,note_on,60,43,0
2,note_on,60,0,240
2,note_on,67,0,0
2,note_on,59,44,0
2,note_on,55,44,0
2,note_on,55,0,480
2,note_on,59,0,0
2,note_on,36,64,480
2,note_on,36,0,120
2,note_on,40,56,0
2,note_on,40,0,120
2,note_on,43,57,0
2,note_on,43,0,120
2,note_on,48,56,0
2,note_on,48,0,120
2,note_on,40,60,0
2,note_on,40,0,120
2,note_on,52,57,0
2,note_on,52,0,120
2,note_on,43,60,0
2,note_on,43,0,120
2,note_on,55,57,0
2,note_on,55,0,120
2,note_on,48,60,0
2,note_on,48,0,120
2,note_on,52,55,0
2,note_on,52,0,120
2,note_on,55,57,0
2,note_on,55,0,120
2,note_on,60,56,0
2,note_on,60,0,120
2,note_on,43,60,0
2,note_on,43,0,120
2,note_on,47,57,0
2,note_on,47,0,120
2,note_on,50,59,0
2,note_on,50,0,120
2,note_on,55,57,0
2,note_on,55,0,120
2,note_on,36,60,0
2,note_on,36,0,120
2,note_on,40,56,0
2,note_on,40,0,120
2,note_on,43,57,0
2,note_on,43,0,120
2,note_on,48,55,0
2,note_on,48,0,120
2,note_on,40,60,0
2,note_on,40,0,120
2,note_on,52,57,0
2,note_on,52,0,120
2,note_on,43,58,0
2,note_on,43,0,120
2,note_on,55,57,0
2,note_on,55,0,120
2,note_on,48,60,0
2,note_on,48,0,120
2,note_on,52,55,0
2,note_on,52,0,120
2,note_on,55,57,0
2,note_on,55,0,120
2,note_on,60,56,0
2,note_on,60,0,120
2,note_on,43,62,0
2,note_on,43,0,120
2,note_on,47,56,0
2,note_on,47,0,120
2,note_on,50,57,0
2,note_on,50,0,120
2,note_on,55,56,0
2,note_on,55,0,120
2,note_on,57,53,0
2,note_on,57,0,120
2,note_on,60,49,0
2,note_on,60,0,120
2,note_on,57,53,0
2,note_on,57,0,120
2,note_on,60,49,0
2,note_on,60,0,120
2,note_on,55,53,0
2,note_on,55,0,120
2,note_on,60,50,0
2,note_on,60,0,120
2,note_on,55,53,0
2,note_on,55,0,120
2,note_on,60,50,0
2,note_on,60,0,120
2,note_on,53,57,0
2,note_on,53,0,120
2,note_on,60,53,0
2,note_on,60,0,120
2,note_on,53,57,0
2,note_on,53,0,120
2,note_on,60,53,0
2,note_on,60,0,120
2,note_on,52,57,0
2,note_on,52,0,120
2,note_on,60,53,0
2,note_on,60,0,120
2,note_on,52,57,0
2,note_on,52,0,120
2,note_on,60,52,0
2,note_on,60,0,120
2,note_on,62,49,240
2,note_on,53,49,0
2,note_on,53,0,120
2,note_on,62,0,0
2,note_on,64,49,120
2,note_on,55,49,0
2,note_on,64,0,240
2,note_on,62,49,0
2,note_on,62,0,240
2,note_on,55,0,0
2,note_on,64,49,0
2,note_on,60,49,0
2,note_on,60,0,480
2,note_on,64,0,0
2,note_on,62,38,720
2,note_on,53,38,0
2,note_on,57,38,0
2,note_on,57,0,240
2,note_on,53,0,0
2,note_on,62,0,0
2,note_on,60,38,0
2,note_on,64,38,0
2,note_on,55,38,0
2,note_on,64,0,240
2,note_on,60,0,0
2,note_on,65,44,0
2,note_on,62,44,0
2,note_on,62,0,240
2,note_on,65,0,0
2,note_on,55,0,0
2,note_on,60,49,0
2,note_on,64,49,0
2,note_on,64,0,480
2,note_on,60,0,0
2,note_on,57,38,720
2,note_on,62,38,0
2,note_on,53,38,0
2,note_on,53,0,240
2,note_on,62,0,0
2,note_on,57,0,0
2,note_on,60,38,0
2,note_on,55,38,0
2,note_on,64,38,0
2,note_on,64,0,240
2,note_on,60,0,0
2,note_on,65,40,0
2,note_on,62,40,0
2,note_on,62,0,240
2,note_on,65,0,0
2,note_on,55,0,0
2,note_on,60,38,0
2,note_on,64,38,0
2,note_on,64,0,60
2,note_on,60,0,0
2,note_on,55,38,180
2,note_on,55,0,60
2,note_on,36,38,180
2,note_on,48,38,0
2,note_on,48,0,480
2,note_on,36,0,0
2,note_on,60,37,0
2,note_on,60,0,120
2,note_on,67,30,0
2,note_on,67,0,120
2,note_on,66,33,0
2,note_on,66,0,120
2,note_on,67,30,0
2,note_on,67,0,120
2,note_on,60,37,0
2,note_on,60,0,120
2,note_on,67,30,0
2,note_on,67,0,120
2,note_on,62,33,0
2,note_on,62,0,120
2,note_on,67,30,0
2,note_on,67,0,120
2,note_on,64,37,0
2,note_on,64,0,120
2,note_on,67,30,0
2,note_on,67,0,120
2,note_on,65,33,0
2,note_on,65,0,120
2,note_on,67,30,0
2,note_on,67,0,120
2,note_on,64,37,0
2,note_on,64,0,120
2,note_on,67,30,0
2,note_on,67,0,120
2,note_on,58,33,0
2,note_on,58,0,120
2,note_on,67,31,0
2,note_on,67,0,120
2,note_on,59,38,0
2,note_on,59,0,120
2,note_on,67,31,0
2,note_on,67,0,120
2,note_on,59,35,0
2,note_on,59,0,120
2,note_on,67,32,0
2,note_on,67,0,120
2,note_on,60,41,0
2,note_on,60,0,120
2,note_on,67,33,0
2,note_on,67,0,120
2,note_on,62,37,0
2,note_on,62,0,120
2,note_on,67,33,0
2,note_on,67,0,120
2,note_on,60,40,0
2,note_on,60,0,120
2,note_on,67,30,0
2,note_on,67,0,120
2,note_on,66,33,0
2,note_on,66,0,120
2,note_on,67,30,0
2,note_on,67,0,120
2,note_on,59,37,0
2,note_on,59,0,120
2,note_on,67,31,0
2,note_on,67,0,120
2,note_on,66,33,0
2,note_on,66,0,120
2,note_on,67,32,0
2,note_on,67,0,120
2,note_on,59,37,0
2,note_on,59,0,120
2,note_on,67,31,0
2,note_on,67,0,120
2,note_on,66,33,0
2,note_on,66,0,120
2,note_on,67,31,0
2,note_on,67,0,120
2,note_on,59,37,0
2,note_on,59,0,120
2,note_on,67,31,0
2,note_on,67,0,120
2,note_on,60,33,0
2,note_on,60,0,120
2,note_on,67,31,0
2,note_on,67,0,120
2,note_on,62,37,0
2,note_on,62,0,120
2,note_on,67,31,0
2,note_on,67,0,120
2,note_on,64,33,0
2,note_on,64,0,120
2,note_on,67,31,0
2,note_on,67,0,120
2,note_on,65,37,0
2,note_on,65,0,120
2,note_on,67,32,0
2,note_on,67,0,120
2,note_on,62,34,0
2,note_on,62,0,120
2,note_on,67,31,0
2,note_on,67,0,120
2,note_on,59,40,0
2,note_on,59,0,120
2,note_on,67,31,0
2,note_on,67,0,120
2,note_on,62,34,0
2,note_on,62,0,120
2,note_on,67,31,0
2,note_on,67,0,120
2,note_on,59,46,0
2,note_on,59,0,120
2,note_on,67,35,0
2,note_on,67,0,120
2,note_on,55,37,0
2,note_on,55,0,120
2,note_on,67,35,0
2,note_on,67,0,120
2,note_on,60,44,0
2,note_on,60,0,120
2,note_on,67,37,0
2,note_on,67,0,120
2,note_on,65,40,0
2,note_on,65,0,120
2,note_on,67,37,0
2,note_on,67,0,120
2,note_on,60,44,0
2,note_on,60,0,120
2,note_on,67,37,0
2,note_on,67,0,120
2,note_on,64,40,0
2,note_on,64,0,120
2,note_on,67,37,0
2,note_on,67,0,120
2,note_on,60,48,0
2,note_on,60,0,80
2,note_on,64,43,0
2,note_on,64,0,80
2,note_on,67,43,0
2,note_on,67,0,80
2,note_on,72,46,0
2,note_on,72,0,240
2,note_on,59,48,480
2,note_on,59,0,80
2,note_on,62,43,0
2,note_on,62,0,80
2,note_on,67,43,0
2,note_on,67,0,80
2,note_on,71,48,0
2,note_on,71,0,240
2,note_on,57,50,480
2,note_on,62,50,0
2,note_on,54,50,0
2,note_on,54,0,240
2,note_on,62,0,0
2,note_on,57,0,0
2,note_on,59,52,240
2,note_on,55,52,0
2,note_on,62,52,0
2,note_on,62,0,240
2,note_on,55,0,0
2,note_on,59,0,0
2,note_on,50,57,240
2,note_on,50,0,120
2,note_on,62,39,0
2,note_on,62,0,120
2,note_on,61,40,0
2,note_on,61,0,120
2,note_on,62,41,0
2,note_on,62,0,120
2,note_on,61,44,0
2,note_on,61,0,120
2,note_on,62,45,0
2,note_on,62,0,120
2,note_on,60,47,0
2,note_on,60,0,120
2,note_on,62,49,0
2,note_on,62,0,120
2,note_on,59,49,0
2,note_on,59,0,120
2,note_on,62,44,0
2,note_on,62,0,120
2,note_on,55,35,0
2,note_on,55,0,120
2,note_on,62,30,0
2,note_on,62,0,120
2,note_on,59,37,0
2,note_on,59,0,120
2,note_on,62,32,0
2,note_on,62,0,120
2,note_on,55,35,0
2,note_on,55,0,120
2,note_on,62,34,0
2,note_on,62,0,120
2,note_on,57,37,0
2,note_on,57,0,120
2,note_on,62,34,0
2,note_on,62,0,120
2,note_on,55,37,0
2,note_on,55,0,120
2,note_on,62,34,0
2,note_on,62,0,120
2,note_on,54,37,0
2,note_on,54,0,120
2,note_on,62,34,0
2,note_on,62,0,120
2,note_on,50,37,0
2,note_on,50,0,120
2,note_on,62,34,0
2,note_on,62,0,120
2,note_on,55,38,0
2,note_on,55,0,120
2,note_on,62,34,0
2,note_on,62,0,120
2,note_on,61,34,0
2,note_on,61,0,120
2,note_on,62,34,0
2,note_on,62,0,120
2,note_on,61,39,0
2,note_on,61,0,120
2,note_on,62,41,0
2,note_on,62,0,120
2,note_on,64,44,0
2,note_on,64,0,120
2,note_on,62,41,0
2,note_on,62,0,120
2,note_on,60,49,0
2,note_on,60,0,120
2,note_on,62,47,0
2,note_on,62,0,120
2,note_on,59,49,0
2,note_on,59,0,120
2,note_on,62,47,0
2,note_on,62,0,120
2,note_on,60,49,0
2,note_on,60,0,120
2,note_on,62,47,0
2,note_on,62,0,120
2,note_on,57,49,0
2,note_on,57,0,120
2,note_on,62,47,0
2,note_on,62,0,120
2,note_on,59,49,0
2,note_on,59,0,120
2,note_on,62,42,0
2,note_on,62,0,120
2,note_on,55,35,0
2,note_on,55,0,120
2,note_on,62,30,0
2,note_on,62,0,120
2,note_on,59,37,0
2,note_on,59,0,120
2,note_on,62,30,0
2,note_on,62,0,120
2,note_on,55,35,0
2,note_on,55,0,120
2,note_on,62,30,0
2,note_on,62,0,120
2,note_on,57,37,0
2,note_on,57,0,120
2,note_on,62,34,0
2,note_on,62,0,120
2,note_on,55,37,0
2,note_on,55,0,120
2,note_on,62,34,0
2,note_on,62,0,120
2,note_on,54,37,0
2,note_on,54,0,120
2,note_on,62,34,0
2,note_on,62,0,120
2,note_on,50,37,0
2,note_on,50,0,120
2,note_on,62,34,0
2,note_on,62,0,120
2,note_on,55,37,0
2,note_on,55,0,120
2,note_on,62,34,0
2,note_on,62,0,120
2,note_on,59,37,0
2,note_on,59,0,120
2,note_on,62,34,0
2,note_on,62,0,120
2,note_on,55,37,0
2,note_on,55,0,120
2,note_on,64,29,0
2,note_on,64,0,120
2,note_on,60,32,0
2,note_on,60,0,120
2,note_on,64,29,0
2,note_on,64,0,120
2,note_on,55,32,0
2,note_on,55,0,120
2,note_on,62,30,0
2,note_on,62,0,120
2,note_on,59,32,0
2,note_on,59,0,120
2,note_on,62,31,0
2,note_on,62,0,120
2,note_on,53,32,0
2,note_on,53,0,120
2,note_on,60,30,0
2,note_on,60,0,120
2,note_on,57,32,0
2,note_on,57,0,120
2,note_on,60,30,0
2,note_on,60,0,120
2,note_on,52,32,0
2,note_on,52,0,120
2,note_on,60,30,0
2,note_on,60,0,120
2,note_on,55,32,0
2,note_on,55,0,120
2,note_on,60,30,0
2,note_on,60,0,120
2,note_on,48,40,0
2,note_on,48,0,120
2,note_on,55,34,0
2,note_on,55,0,120
2,note_on,52,40,0
2,note_on,52,0,120
2,note_on,55,33,0
2,note_on,55,0,120
2,note_on,50,39,0
2,note_on,50,0,120
2,note_on,59,34,0
2,note_on,59,0,120
2,note_on,55,39,0
2,note_on,55,0,120
2,note_on,59,34,0
2,note_on,59,0,120
2,note_on,50,39,0
2,note_on,50,0,120
2,note_on,60,34,0
2,note_on,60,0,120
2,note_on,54,38,0
2,note_on,54,0,120
2,note_on,60,33,0
2,note_on,60,0,120
2,note_on,55,40,0
2,note_on,55,0,120
2,note_on,62,35,0
2,note_on,62,0,120
2,note_on,59,40,0
2,note_on,59,0,120
2,note_on,62,34,0
2,note_on,62,0,120
2,note_on,55,32,0
2,note_on,55,0,120
2,note_on,64,30,0
2,note_on,64,0,120
2,note_on,60,32,0
2,note_on,60,0,120
2,note_on,64,30,0
2,note_on,64,0,120
2,note_on,55,32,0
2,note_on,55,0,120
2,note_on,62,30,0
2,note_on,62,0,120
2,note_on,59,32,0
2,note_on,59,0,120
2,note_on,62,30,0
2,note_on,62,0,120
2,note_on,53,32,0
2,note_on,53,0,120
2,note_on,60,29,0
2,note_on,60,0,120
2,note_on,57,32,0
2,note_on,57,0,120
2,note_on,60,29,0
2,note_on,60,0,120
2,note_on,52,34,0
2,note_on,52,0,120
2,note_on,60,30,0
2,note_on,60,0,120
2,note_on,55,33,0
2,note_on,55,0,120
2,note_on,60,29,0
2,note_on,60,0,120
2,note_on,48,41,0
2,note_on,48,0,120
2,note_on,55,38,0
2,note_on,55,0,120
2,note_on,52,40,0
2,note_on,52,0,120
2,note_on,55,37,0
2,note_on,55,0,120
2,note_on,50,40,0
2,note_on,50,0,120
2,note_on,59,37,0
2,note_on,59,0,120
2,note_on,55,39,0
2,note_on,55,0,120
2,note_on,59,32,0
2,note_on,59,0,120
2,note_on,50,38,0
2,note_on,50,0,120
2,note_on,60,33,0
2,note_on,60,0,120
2,note_on,57,38,0
2,note_on,57,0,120
2,note_on,60,32,0
2,note_on,60,0,120
2,note_on,59,38,240
2,note_on,55,38,0
2,note_on,55,0,240
2,note_on,59,0,0
2,note_on,57,44,0
2,note_on,60,44,0
2,note_on,60,0,240
2,note_on,57,0,0
2,note_on,59,49,0
2,note_on,62,49,0
2,note_on,62,0,240
2,note_on,59,0,0
2,note_on,54,37,240
2,note_on,50,37,0
2,note_on,50,0,240
2,note_on,54,0,0
2,note_on,55,40,0
2,note_on,52,40,0
2,note_on,52,0,240
2,note_on,55,0,0
2,note_on,57,44,0
2,note_on,54,44,0
2,note_on,54,0,240
2,note_on,57,0,0
2,note_on,55,38,240
2,note_on,59,38,0
2,note_on,59,0,240
2,note_on,55,0,0
2,note_on,57,44,0
2,note_on,60,44,0
2,note_on,60,0,240
2,note_on,57,0,0
2,note_on,62,49,0
2,note_on,59,49,0
2,note_on,59,0,240
2,note_on,62,0,0
2,note_on,50,37,240
2,note_on,54,37,0
2,note_on,54,0,240
2,note_on,50,0,0
2,note_on,55,40,0
2,note_on,52,40,0
2,note_on,52,0,240
2,note_on,55,0,0
2,note_on,57,44,0
2,note_on,54,44,0
2,note_on,54,0,240
2,note_on,57,0,0
2,note_on,55,44,0
2,note_on,55,0,480
2,note_on,43,44,480
2,note_on,55,44,0
2,note_on,50,44,0
2,note_on,47,44,0
2,note_on,47,0,960
2,note_on,50,0,0
2,note_on,43,0,0
2,note_on,48,38,0
2,note_on,48,0,480
2,note_on,55,0,0
2,note_on,49,37,720
2,note_on,58,37,0
2,note_on,58,0,240
2,note_on,49,0,0
2,note_on,50,40,0
2,note_on,59,40,0
2,note_on,59,0,240
2,note_on,50,0,0
2,note_on,60,44,0
2,note_on,60,0,240
2,note_on,55,44,0
2,note_on,59,44,0
2,note_on,59,0,480
2,note_on,55,0,0
2,note_on,43,44,480
2,note_on,55,44,0
2,note_on,50,44,0
2,note_on,47,44,0
2,note_on,47,0,960
2,note_on,50,0,0
2,note_on,43,0,0
2,note_on,48,38,0
2,note_on,48,0,480
2,note_on,55,0,0
2,note_on,58,41,480
2,note_on,49,41,0
2,note_on,49,0,480
2,note_on,58,0,0
2,note_on,50,48,480
2,note_on,50,0,120
2,note_on,59,40,0
2,note_on,59,0,120
2,note_on,55,41,0
2,note_on,55,0,120
2,note_on,59,39,0
2,note_on,59,0,120
2,note_on,50,48,0
2,note_on,50,0,120
2,note_on,59,40,0
2,note_on,59,0,120
2,note_on,55,41,0
2,note_on,55,0,120
2,note_on,59,40,0
2,note_on,59,0,120
2,note_on,50,43,0
2,note_on,50,0,120
2,note_on,62,37,0
2,note_on,62,0,120
2,note_on,55,38,0
2,note_on,55,0,120
2,note_on,62,36,0
2,note_on,62,0,120
2,note_on,50,39,0
2,note_on,50,0,120
2,note_on,60,30,0
2,note_on,60,0,120
2,note_on,54,32,0
2,note_on,54,0,120
2,note_on,60,30,0
2,note_on,60,0,120
2,note_on,55,35,0
2,note_on,55,0,120
2,note_on,59,30,0
2,note_on,59,0,120
2,note_on,67,32,0
2,note_on,67,0,120
2,note_on,59,30,0
2,note_on,59,0,120
2,note_on,55,35,0
2,note_on,55,0,120
2,note_on,59,30,0
2,note_on,59,0,120
2,note_on,67,32,0
2,note_on,67,0,120
2,note_on,59,30,0
2,note_on,59,0,120
2,note_on,55,35,0
2,note_on,55,0,120
2,note_on,57,30,0
2,note_on,57,0,120
2,note_on,66,32,0
2,note_on,66,0,120
2,note_on,57,30,0
2,note_on,57,0,120
2,note_on,55,35,0
2,note_on,55,0,120
2,note_on,60,30,0
2,note_on,60,0,120
2,note_on,66,32,0
2,note_on,66,0,120
2,note_on,60,30,0
2,note_on,60,0,120
2,note_on,55,35,0
2,note_on,55,0,120
2,note_on,59,30,0
2,note_on,59,0,120
2,note_on,67,32,0
2,note_on,67,0,120
2,note_on,59,31,0
2,note_on,59,0,120
2,note_on,55,35,0
2,note_on,55,0,120
2,note_on,59,30,0
2,note_on,59,0,120
2,note_on,67,32,0
2,note_on,67,0,120
2,note_on,59,30,0
2,note_on,59,0,120
2,note_on,55,35,0
2,note_on,55,0,120
2,note_on,57,30,0
2,note_on,57,0,120
2,note_on,66,32,0
2,note_on,66,0,120
2,note_on,57,30,0
2,note_on,57,0,120
2,note_on,55,35,0
2,note_on,55,0,120
2,note_on,60,30,0
2,note_on,60,0,120
2,note_on,66,32,0
2,note_on,66,0,120
2,note_on,60,30,0
2,note_on,60,0,120
2,note_on,55,35,0
2,note_on,55,0,120
2,note_on,59,30,0
2,note_on,59,0,120
2,note_on,67,32,0
2,note_on,67,0,120
2,note_on,59,30,0
2,note_on,59,0,120
2,note_on,55,35,0
2,note_on,55,0,120
2,note_on,60,30,0
2,note_on,60,0,120
2,note_on,66,32,0
2,note_on,66,0,120
2,note_on,60,30,0
2,note_on,60,0,120
2,note_on,55,35,0
2,note_on,55,0,120
2,note_on,59,30,0
2,note_on,59,0,120
2,note_on,67,32,0
2,note_on,67,0,120
2,note_on,59,30,0
2,note_on,59,0,120
2,note_on,55,35,0
2,note_on,55,0,120
2,note_on,60,30,0
2,note_on,60,0,120
2,note_on,66,32,0
2,note_on,66,0,120
2,note_on,60,30,0
2,note_on,60,0,120
2,note_on,67,31,0
2,note_on,59,31,0
2,note_on,55,31,0
2,note_on,55,0,240
2,note_on,59,0,0
2,note_on,67,0,0
2,note_on,50,30,480
2,note_on,50,0,240
2,note_on,55,33,0
2,note_on,55,0,240
2,note_on,50,32,0
2,note_on,50,0,240
2,note_on,43,33,0
2,note_on,43,0,240
2,note_on,48,40,240
2,note_on,48,0,240
2,note_on,52,40,0
2,note_on,52,0,240
2,note_on,55,40,0
2,note_on,55,0,240
2,note_on,60,43,0
2,note_on,60,0,240
2,note_on,48,40,0
2,note_on,48,0,240
2,note_on,55,43,0
2,note_on,55,0,240
2,note_on,43,40,0
2,note_on,43,0,240
2,note_on,48,40,240
2,note_on,48,0,240
2,note_on,52,40,0
2,note_on,52,0,240
2,note_on,55,43,0
2,note_on,55,0,240
2,note_on,60,44,0
2,note_on,60,0,240
2,note_on,48,41,0
2,note_on,48,0,240
2,note_on,55,43,0
2,note_on,55,0,240
2,note_on,43,41,0
2,note_on,43,0,240
2,note_on,57,47,0
2,note_on,57,0,240
2,note_on,60,46,0
2,note_on,60,0,240
2,note_on,55,49,0
2,note_on,55,0,240
2,note_on,60,45,0
2,note_on,60,0,240
2,note_on,53,49,0
2,note_on,53,0,240
2,note_on,60,47,0
2,note_on,60,0,240
2,note_on,52,50,0
2,note_on,52,0,240
2,note_on,60,46,0
2,note_on,60,0,240
2,note_on,67,43,240
2,note_on,59,43,0
2,note_on,59,0,240
2,note_on,67,0,0
2,note_on,67,43,240
2,note_on,60,43,0
2,note_on,60,0,240
2,note_on,67,0,0
2,note_on,59,44,0
2,note_on,55,44,0
2,note_on,55,0,480
2,note_on,59,0,0
2,note_on,36,64,480
2,note_on,36,0,120
2,note_on,40,56,0
2,note_on,40,0,120
2,note_on,43,57,0
2,note_on,43,0,120
2,note_on,48,56,0
2,note_on,48,0,120
2,note_on,40,60,0
2,note_on,40,0,120
2,note_on,52,57,0
2,note_on,52,0,120
2,note_on,43,60,0
2,note_on,43,0,120
2,note_on,55,57,0
2,note_on,55,0,120
2,note_on,48,60,0
2,note_on,48,0,120
2,note_on,52,55,0
2,note_on,52,0,120
2,note_on,55,57,0
2,note_on,55,0,120
2,note_on,60,56,0
2,note_on,60,0,120
2,note_on,43,60,0
2,note_on,43,0,120
2,note_on,47,57,0
2,note_on,47,0,120
2,note_on,50,59,0
2,note_on,50,0,120
2,note_on,55,57,0
2,note_on,55,0,120
2,note_on,36,60,0
2,note_on,36,0,120
2,note_on,40,56,0
2,note_on,40,0,120
2,note_on,43,57,0
2,note_on,43,0,120
2,note_on,48,55,0
2,note_on,48,0,120
2,note_on,40,60,0
2,note_on,40,0,120
2,note_on,52,57,0
2,note_on,52,0,120
2,note_on,43,58,0
2,note_on,43,0,120
2,note_on,55,57,0
2,note_on,55,0,120
2,note_on,48,60,0
2,note_on,48,0,120
2,note_on,52,55,0
2,note_on,52,0,120
2,note_on,55,57,0
2,note_on,55,0,120
2,note_on,60,56,0
2,note_on,60,0,120
2,note_on,43,62,0
2,note_on,43,0,120
2,note_on,47,56,0
2,note_on,47,0,120
2,note_on,50,57,0
2,note_on,50,0,120
2,note_on,55,56,0
2,note_on,55,0,120
2,note_on,57,53,0
2,note_on,57,0,120
2,note_on,60,49,0
2,note_on,60,0,120
2,note_on,57,53,0
2,note_on,57,0,120
2,note_on,60,49,0
2,note_on,60,0,120
2,note_on,55,53,0
2,note_on,55,0,120
2,note_on,60,50,0
2,note_on,60,0,120
2,note_on,55,53,0
2,note_on,55,0,120
2,note_on,60,50,0
2,note_on,60,0,120
2,note_on,53,57,0
2,note_on,53,0,120
2,note_on,60,53,0
2,note_on,60,0,120
2,note_on,53,57,0
2,note_on,53,0,120
2,note_on,60,53,0
2,note_on,60,0,120
2,note_on,52,57,0
2,note_on,52,0,120
2,note_on,60,53,0
2,note_on,60,0,120
2,note_on,52,57,0
2,note_on,52,0,120
2,note_on,60,52,0
2,note_on,60,0,120
2,note_on,62,49,240
2,note_on,53,49,0
2,note_on,53,0,120
2,note_on,62,0,0
2,note_on,64,49,120
2,note_on,55,49,0
2,note_on,64,0,240
2,note_on,62,49,0
2,note_on,62,0,240
2,note_on,55,0,0
2,note_on,64,49,0
2,note_on,60,49,0
2,note_on,60,0,480
2,note_on,64,0,0
2,note_on,62,38,720
2,note_on,53,38,0
2,note_on,57,38,0
2,note_on,57,0,240
2,note_on,53,0,0
2,note_on,62,0,0
2,note_on,60,38,0
2,note_on,64,38,0
2,note_on,55,38,0
2,note_on,64,0,240
2,note_on,60,0,0
2,note_on,65,44,0
2,note_on,62,44,0
2,note_on,62,0,240
2,note_on,65,0,0
2,note_on,55,0,0
2,note_on,60,49,0
2,note_on,64,49,0
2,note_on,64,0,480
2,note_on,60,0,0
2,note_on,57,38,720
2,note_on,62,38,0
2,note_on,53,38,0
2,note_on,53,0,240
2,note_on,62,0,0
2,note_on,57,0,0
2,note_on,60,38,0
2,note_on,55,38,0
2,note_on,64,38,0
2,note_on,64,0,240
2,note_on,60,0,0
2,note_on,65,40,0
2,note_on,62,40,0
2,note_on,62,0,240
2,note_on,65,0,0
2,note_on,55,0,0
2,note_on,60,38,0
2,note_on,64,38,0
2,note_on,64,0,60
2,note_on,60,0,0
2,note_on,55,38,180
2,note_on,55,0,60
2,note_on,36,38,180
2,note_on,48,38,0
2,note_on,48,0,480
2,note_on,36,0,0
2,note_on,60,37,0
2,note_on,60,0,120
2,note_on,67,30,0
2,note_on,67,0,120
2,note_on,66,33,0
2,note_on,66,0,120
2,note_on,67,30,0
2,note_on,67,0,120
2,note_on,60,37,0
2,note_on,60,0,120
2,note_on,67,30,0
2,note_on,67,0,120
2,note_on,62,33,0
2,note_on,62,0,120
2,note_on,67,30,0
2,note_on,67,0,120
2,note_on,64,37,0
2,note_on,64,0,120
2,note_on,67,30,0
2,note_on,67,0,120
2,note_on,65,33,0
2,note_on,65,0,120
2,note_on,67,30,0
2,note_on,67,0,120
2,note_on,64,37,0
2,note_on,64,0,120
2,note_on,67,30,0
2,note_on,67,0,120
2,note_on,58,33,0
2,note_on,58,0,120
2,note_on,67,31,0
2,note_on,67,0,120
2,note_on,59,38,0
2,note_on,59,0,120
2,note_on,67,31,0
2,note_on,67,0,120
2,note_on,59,35,0
2,note_on,59,0,120
2,note_on,67,32,0
2,note_on,67,0,120
2,note_on,60,41,0
2,note_on,60,0,120
2,note_on,67,33,0
2,note_on,67,0,120
2,note_on,62,37,0
2,note_on,62,0,120
2,note_on,67,33,0
2,note_on,67,0,120
2,note_on,60,40,0
2,note_on,60,0,120
2,note_on,67,30,0
2,note_on,67,0,120
2,note_on,66,33,0
2,note_on,66,0,120
2,note_on,67,30,0
2,note_on,67,0,120
2,note_on,59,37,0
2,note_on,59,0,120
2,note_on,67,31,0
2,note_on,67,0,120
2,note_on,66,33,0
2,note_on,66,0,120
2,note_on,67,32,0
2,note_on,67,0,120
2,note_on,59,37,0
2,note_on,59,0,120
2,note_on,67,31,0
2,note_on,67,0,120
2,note_on,66,33,0
2,note_on,66,0,120
2,note_on,67,31,0
2,note_on,67,0,120
2,note_on,59,37,0
2,note_on,59,0,120
2,note_on,67,31,0
2,note_on,67,0,120
2,note_on,60,33,0
2,note_on,60,0,120
2,note_on,67,31,0
2,note_on,67,0,120
2,note_on,62,37,0
2,note_on,62,0,120
2,note_on,67,31,0
2,note_on,67,0,120
2,note_on,64,33,0
2,note_on,64,0,120
2,note_on,67,31,0
2,note_on,67,0,120
2,note_on,65,37,0
2,note_on,65,0,120
2,note_on,67,32,0
2,note_on,67,0,120
2,note_on,62,34,0
2,note_on,62,0,120
2,note_on,67,31,0
2,note_on,67,0,120
2,note_on,59,40,0
2,note_on,59,0,120
2,note_on,67,31,0
2,note_on,67,0,120
2,note_on,62,34,0
2,note_on,62,0,120
2,note_on,67,31,0
2,note_on,67,0,120
2,note_on,59,46,0
2,note_on,59,0,120
2,note_on,67,35,0
2,note_on,67,0,120
2,note_on,55,37,0
2,note_on,55,0,120
2,note_on,67,35,0
2,note_on,67,0,120
2,note_on,60,44,0
2,note_on,60,0,120
2,note_on,67,37,0
2,note_on,67,0,120
2,note_on,65,40,0
2,note_on,65,0,120
2,note_on,67,37,0
2,note_on,67,0,120
2,note_on,60,44,0
2,note_on,60,0,120
2,note_on,67,37,0
2,note_on,67,0,120
2,note_on,64,40,0
2,note_on,64,0,120
2,note_on,67,37,0
2,note_on,67,0,120
2,note_on,60,48,0
2,note_on,60,0,80
2,note_on,64,43,0
2,note_on,64,0,80
2,note_on,67,43,0
2,note_on,67,0,80
2,note_on,72,46,0
2,note_on,72,0,240
2,note_on,59,48,480
2,note_on,59,0,80
2,note_on,62,43,0
2,note_on,62,0,80
2,note_on,67,43,0
2,note_on,67,0,80
2,note_on,71,48,0
2,note_on,71,0,240
2,note_on,57,50,480
2,note_on,62,50,0
2,note_on,54,50,0
2,note_on,54,0,240
2,note_on,62,0,0
2,note_on,57,0,0
2,note_on,59,52,240
2,note_on,55,52,0
2,note_on,62,52,0
2,note_on,62,0,240
2,note_on,55,0,0
2,note_on,59,0,0
2,note_on,50,57,240
2,note_on,50,0,120
2,note_on,62,39,0
2,note_on,62,0,120
2,note_on,61,40,0
2,note_on,61,0,120
2,note_on,62,41,0
2,note_on,62,0,120
2,note_on,61,44,0
2,note_on,61,0,120
2,note_on,62,45,0
2,note_on,62,0,120
2,note_on,60,47,0
2,note_on,60,0,120
2,note_on,62,49,0
2,note_on,62,0,120
2,note_on,59,49,0
2,note_on,59,0,120
2,note_on,62,44,0
2,note_on,62,0,120
2,note_on,55,35,0
2,note_on,55,0,120
2,note_on,62,30,0
2,note_on,62,0,120
2,note_on,59,37,0
2,note_on,59,0,120
2,note_on,62,32,0
2,note_on,62,0,120
2,note_on,55,35,0
2,note_on,55,0,120
2,note_on,62,34,0
2,note_on,62,0,120
2,note_on,57,37,0
2,note_on,57,0,120
2,note_on,62,34,0
2,note_on,62,0,120
2,note_on,55,37,0
2,note_on,55,0,120
2,note_on,62,34,0
2,note_on,62,0,120
2,note_on,54,37,0
2,note_on,54,0,120
2,note_on,62,34,0
2,note_on,62,0,120
2,note_on,50,37,0
2,note_on,50,0,120
2,note_on,62,34,0
2,note_on,62,0,120
2,note_on,55,38,0
2,note_on,55,0,120
2,note_on,62,34,0
2,note_on,62,0,120
2,note_on,61,34,0
2,note_on,61,0,120
2,note_on,62,34,0
2,note_on,62,0,120
2,note_on,61,39,0
2,note_on,61,0,120
2,note_on,62,41,0
2,note_on,62,0,120
2,note_on,64,44,0
2,note_on,64,0,120
2,note_on,62,41,0
2,note_on,62,0,120
2,note_on,60,49,0
2,note_on,60,0,120
2,note_on,62,47,0
2,note_on,62,0,120
2,note_on,59,49,0
2,note_on,59,0,120
2,note_on,62,47,0
2,note_on,62,0,120
2,note_on,60,49,0
2,note_on,60,0,120
2,note_on,62,47,0
2,note_on,62,0,120
2,note_on,57,49,0
2,note_on,57,0,120
2,note_on,62,47,0
2,note_on,62,0,120
2,note_on,59,49,0
2,note_on,59,0,120
2,note_on,62,42,0
2,note_on,62,0,120
2,note_on,55,35,0
2,note_on,55,0,120
2,note_on,62,30,0
2,note_on,62,0,120
2,note_on,59,37,0
2,note_on,59,0,120
2,note_on,62,30,0
2,note_on,62,0,120
2,note_on,55,35,0
2,note_on,55,0,120
2,note_on,62,30,0
2,note_on,62,0,120
2,note_on,57,37,0
2,note_on,57,0,120
2,note_on,62,34,0
2,note_on,62,0,120
2,note_on,55,37,0
2,note_on,55,0,120
2,note_on,62,34,0
2,note_on,62,0,120
2,note_on,54,37,0
2,note_on,54,0,120
2,note_on,62,34,0
2,note_on,62,0,120
2,note_on,50,37,0
2,note_on,50,0,120
2,note_on,62,34,0
2,note_on,62,0,120
2,note_on,55,37,0
2,note_on,55,0,120
2,note_on,62,34,0
2,note_on,62,0,120
2,note_on,59,37,0
2,note_on,59,0,120
2,note_on,62,34,0
2,note_on,62,0,120
2,note_on,55,37,0
2,note_on,55,0,120
2,note_on,64,29,0
2,note_on,64,0,120
2,note_on,60,32,0
2,note_on,60,0,120
2,note_on,64,29,0
2,note_on,64,0,120
2,note_on,55,32,0
2,note_on,55,0,120
2,note_on,62,30,0
2,note_on,62,0,120
2,note_on,59,32,0
2,note_on,59,0,120
2,note_on,62,31,0
2,note_on,62,0,120
2,note_on,53,32,0
2,note_on,53,0,120
2,note_on,60,30,0
2,note_on,60,0,120
2,note_on,57,32,0
2,note_on,57,0,120
2,note_on,60,30,0
2,note_on,60,0,120
2,note_on,52,32,0
2,note_on,52,0,120
2,note_on,60,30,0
2,note_on,60,0,120
2,note_on,55,32,0
2,note_on,55,0,120
2,note_on,60,30,0
2,note_on,60,0,120
2,note_on,48,40,0
2,note_on,48,0,120
2,note_on,55,34,0
2,note_on,55,0,120
2,note_on,52,40,0
2,note_on,52,0,120
2,note_on,55,33,0
2,note_on,55,0,120
2,note_on,50,39,0
2,note_on,50,0,120
2,note_on,59,34,0
2,note_on,59,0,120
2,note_on,55,39,0
2,note_on,55,0,120
2,note_on,59,34,0
2,note_on,59,0,120
2,note_on,50,39,0
2,note_on,50,0,120
2,note_on,60,34,0
2,note_on,60,0,120
2,note_on,54,38,0
2,note_on,54,0,120
2,note_on,60,33,0
2,note_on,60,0,120
2,note_on,55,40,0
2,note_on,55,0,120
2,note_on,62,35,0
2,note_on,62,0,120
2,note_on,59,40,0
2,note_on,59,0,120
2,note_on,62,34,0
2,note_on,62,0,120
2,note_on,55,32,0
2,note_on,55,0,120
2,note_on,64,30,0
2,note_on,64,0,120
2,note_on,60,32,0
2,note_on,60,0,120
2,note_on,64,30,0
2,note_on,64,0,120
2,note_on,55,32,0
2,note_on,55,0,120
2,note_on,62,30,0
2,note_on,62,0,120
2,note_on,59,32,0
2,note_on,59,0,120
2,note_on,62,30,0
2,note_on,62,0,120
2,note_on,53,32,0
2,note_on,53,0,120
2,note_on,60,29,0
2,note_on,60,0,120
2,note_on,57,32,0
2,note_on,57,0,120
2,note_on,60,29,0
2,note_on,60,0,120
2,note_on,52,34,0
2,note_on,52,0,120
2,note_on,60,30,0
2,note_on,60,0,120
2,note_on,55,33,0
2,note_on,55,0,120
2,note_on,60,29,0
2,note_on,60,0,120
2,note_on,48,41,0
2,note_on,48,0,120
2,note_on,55,38,0
2,note_on,55,0,120
2,note_on,52,40,0
2,note_on,52,0,120
2,note_on,55,37,0
2,note_on,55,0,120
2,note_on,50,40,0
2,note_on,50,0,120
2,note_on,59,37,0
2,note_on,59,0,120
2,note_on,55,39,0
2,note_on,55,0,120
2,note_on,59,32,0
2,note_on,59,0,120
2,note_on,50,38,0
2,note_on,50,0,120
2,note_on,60,33,0
2,note_on,60,0,120
2,note_on,57,38,0
2,note_on,57,0,120
2,note_on,60,32,0
2,note_on,60,0,120
2,note_on,59,38,240
2,note_on,55,38,0
2,note_on,55,0,240
2,note_on,59,0,0
2,note_on,57,44,0
2,note_on,60,44,0
2,note_on,60,0,240
2,note_on,57,0,0
2,note_on,59,49,0
2,note_on,62,49,0
2,note_on,62,0,240
2,note_on,59,0,0
2,note_on,54,37,240
2,note_on,50,37,0
2,note_on,50,0,240
2,note_on,54,0,0
2,note_on,55,40,0
2,note_on,52,40,0
2,note_on,52,0,240
2,note_on,55,0,0
2,note_on,57,44,0
2,note_on,54,44,0
2,note_on,54,0,240
2,note_on,57,0,0
2,note_on,55,38,240
2,note_on,59,38,0
2,note_on,59,0,240
2,note_on,55,0,0
2,note_on,57,44,0
2,note_on,60,44,0
2,note_on,60,0,240
2,note_on,57,0,0
2,note_on,62,49,0
2,note_on,59,49,0
2,note_on,59,0,240
2,note_on,62,0,0
2,note_on,50,37,240
2,note_on,54,37,0
2,note_on,54,0,240
2,note_on,50,0,0
2,note_on,55,40,0
2,note_on,52,40,0
2,note_on,52,0,240
2,note_on,55,0,0
2,note_on,57,44,0
2,note_on,54,44,0
2,note_on,54,0,240
2,note_on,57,0,0
2,note_on,55,44,0
2,note_on,55,0,480
2,note_on,43,44,480
2,note_on,55,44,0
2,note_on,50,44,0
2,note_on,47,44,0
2,note_on,47,0,960
2,note_on,50,0,0
2,note_on,43,0,0
2,note_on,48,38,0
2,note_on,48,0,480
2,note_on,55,0,0
2,note_on,49,37,720
2,note_on,58,37,0
2,note_on,58,0,240
2,note_on,49,0,0
2,note_on,50,40,0
2,note_on,59,40,0
2,note_on,59,0,240
2,note_on,50,0,0
2,note_on,60,44,0
2,note_on,60,0,240
2,note_on,55,44,0
2,note_on,59,44,0
2,note_on,59,0,480
2,note_on,55,0,0
2,note_on,43,44,480
2,note_on,55,44,0
2,note_on,50,44,0
2,note_on,47,44,0
2,note_on,47,0,960
2,note_on,50,0,0
2,note_on,43,0,0
2,note_on,48,38,0
2,note_on,48,0,480
2,note_on,55,0,0
2,note_on,58,41,480
2,note_on,49,41,0
2,note_on,49,0,480
2,note_on,58,0,0
2,note_on,50,48,480
2,note_on,50,0,120
2,note_on,59,40,0
2,note_on,59,0,120
2,note_on,55,41,0
2,note_on,55,0,120
2,note_on,59,39,0
2,note_on,59,0,120
2,note_on,50,48,0
2,note_on,50,0,120
2,note_on,59,40,0
2,note_on,59,0,120
2,note_on,55,41,0
2,note_on,55,0,120
2,note_on,59,40,0
2,note_on,59,0,120
2,note_on,50,43,0
2,note_on,50,0,120
2,note_on,62,37,0
2,note_on,62,0,120
2,note_on,55,38,0
2,note_on,55,0,120
2,note_on,62,36,0
2,note_on,62,0,120
2,note_on,50,39,0
2,note_on,50,0,120
2,note_on,60,30,0
2,note_on,60,0,120
2,note_on,54,32,0
2,note_on,54,0,120
2,note_on,60,30,0
2,note_on,60,0,120
2,note_on,55,35,0
2,note_on,55,0,120
2,note_on,59,30,0
2,note_on,59,0,120
2,note_on,67,32,0
2,note_on,67,0,120
2,note_on,59,30,0
2,note_on,59,0,120
2,note_on,55,35,0
2,note_on,55,0,120
2,note_on,59,30,0
2,note_on,59,0,120
2,note_on,67,32,0
2,note_on,67,0,120
2,note_on,59,30,0
2,note_on,59,0,120
2,note_on,55,35,0
2,note_on,55,0,120
2,note_on,57,30,0
2,note_on,57,0,120
2,note_on,66,32,0
2,note_on,66,0,120
2,note_on,57,30,0
2,note_on,57,0,120
2,note_on,55,35,0
2,note_on,55,0,120
2,note_on,60,30,0
2,note_on,60,0,120
2,note_on,66,32,0
2,note_on,66,0,120
2,note_on,60,30,0
2,note_on,60,0,120
2,note_on,55,35,0
2,note_on,55,0,120
2,note_on,59,30,0
2,note_on,59,0,120
2,note_on,67,32,0
2,note_on,67,0,120
2,note_on,59,31,0
2,note_on,59,0,120
2,note_on,55,35,0
2,note_on,55,0,120
2,note_on,59,30,0
2,note_on,59,0,120
2,note_on,67,32,0
2,note_on,67,0,120
2,note_on,59,30,0
2,note_on,59,0,120
2,note_on,55,35,0
2,note_on,55,0,120
2,note_on,57,30,0
2,note_on,57,0,120
2,note_on,66,32,0
2,note_on,66,0,120
2,note_on,57,30,0
2,note_on,57,0,120
2,note_on,55,35,0
2,note_on,55,0,120
2,note_on,60,30,0
2,note_on,60,0,120
2,note_on,66,32,0
2,note_on,66,0,120
2,note_on,60,30,0
2,note_on,60,0,120
2,note_on,55,35,0
2,note_on,55,0,120
2,note_on,59,30,0
2,note_on,59,0,120
2,note_on,67,32,0
2,note_on,67,0,120
2,note_on,59,30,0
2,note_on,59,0,120
2,note_on,55,35,0
2,note_on,55,0,120
2,note_on,60,30,0
2,note_on,60,0,120
2,note_on,66,32,0
2,note_on,66,0,120
2,note_on,60,30,0
2,note_on,60,0,120
2,note_on,55,35,0
2,note_on,55,0,120
2,note_on,59,30,0
2,note_on,59,0,120
2,note_on,67,32,0
2,note_on,67,0,120
2,note_on,59,30,0
2,note_on,59,0,120
2,note_on,55,35,0
2,note_on,55,0,120
2,note_on,60,30,0
2,note_on,60,0,120
2,note_on,66,32,0
2,note_on,66,0,120
2,note_on,60,30,0
2,note_on,60,0,120
2,note_on,67,31,0
2,note_on,59,31,0
2,note_on,55,31,0
2,note_on,55,0,240
2,note_on,59,0,0
2,note_on,67,0,0
2,note_on,50,30,480
2,note_on,50,0,240
2,note_on,55,33,0
2,note_on,55,0,240
2,note_on,50,32,0
2,note_on,50,0,240
2,note_on,43,33,0
2,note_on,43,0,240
2,note_on,62,39,240
2,note_on,59,39,0
2,note_on,59,0,240
2,note_on,55,38,0
2,note_on,55,0,120
2,note_on,62,0,120
2,note_on,62,40,0
2,note_on,55,40,0
2,note_on,55,0,120
2,note_on,62,0,0
2,note_on,62,38,120
2,note_on,55,38,0
2,note_on,55,0,240
2,note_on,62,0,0
2,note_on,59,40,0
2,note_on,62,40,0
2,note_on,59,0,240
2,note_on,57,38,0
2,note_on,57,0,60
2,note_on,62,0,180
2,note_on,54,38,0
2,note_on,62,38,0
2,note_on,62,0,480
2,note_on,54,0,0
2,note_on,62,41,0
2,note_on,57,41,0
2,note_on,57,0,240
2,note_on,55,38,0
2,note_on,55,0,60
2,note_on,62,0,180
2,note_on,62,40,0
2,note_on,59,40,0
2,note_on,59,0,240
2,note_on,57,38,0
2,note_on,57,0,60
2,note_on,62,0,180
2,note_on,62,50,0
2,note_on,60,50,0
2,note_on,60,0,480
2,note_on,59,40,0
2,note_on,59,0,240
2,note_on,62,0,0
2,note_on,47,38,720
2,note_on,50,38,0
2,note_on,50,0,480
2,note_on,47,0,0
2,note_on,48,38,0
2,note_on,52,38,0
2,note_on,52,0,480
2,note_on,48,0,0
2,note_on,49,40,0
2,note_on,55,40,0
2,note_on,55,0,480
2,note_on,49,0,0
2,note_on,50,34,0
2,note_on,59,34,0
2,note_on,59,0,480
2,note_on,57,34,0
2,note_on,57,0,480
2,note_on,50,0,0
2,note_on,60,39,0
2,note_on,55,39,0
2,note_on,60,0,480
2,note_on,59,35,0
2,note_on,59,0,240
2,note_on,55,0,0
2,note_on,59,38,240
2,note_on,59,0,120
2,note_on,62,30,0
2,note_on,62,0,120
2,note_on,55,35,0
2,note_on,55,0,120
2,note_on,62,30,0
2,note_on,62,0,120
2,note_on,55,38,0
2,note_on,55,0,120
2,note_on,62,32,0
2,note_on,62,0,120
2,note_on,56,37,0
2,note_on,56,0,120
2,note_on,62,32,0
2,note_on,62,0,120
2,note_on,57,40,0
2,note_on,57,0,120
2,note_on,62,31,0
2,note_on,62,0,120
2,note_on,55,35,0
2,note_on,55,0,120
2,note_on,62,30,0
2,note_on,62,0,120
2,note_on,54,38,0
2,note_on,54,0,120
2,note_on,62,35,0
2,note_on,62,0,120
2,note_on,50,38,0
2,note_on,50,0,120
2,note_on,62,34,0
2,note_on,62,0,120
2,note_on,55,38,0
2,note_on,55,0,120
2,note_on,67,34,0
2,note_on,67,0,120
2,note_on,59,38,0
2,note_on,59,0,120
2,note_on,67,33,0
2,note_on,67,0,120
2,note_on,57,40,0
2,note_on,57,0,120
2,note_on,67,38,0
2,note_on,67,0,120
2,note_on,60,40,0
2,note_on,60,0,120
2,note_on,67,38,0
2,note_on,67,0,120
2,note_on,60,47,0
2,note_on,60,0,120
2,note_on,67,38,0
2,note_on,67,0,120
2,note_on,64,40,0
2,note_on,64,0,120
2,note_on,67,38,0
2,note_on,67,0,120
2,note_on,59,40,0
2,note_on,59,0,120
2,note_on,67,33,0
2,note_on,67,0,120
2,note_on,62,38,0
2,note_on,62,0,120
2,note_on,67,34,0
2,note_on,67,0,120
2,note_on,57,39,0
2,note_on,57,0,120
2,note_on,67,35,0
2,note_on,67,0,120
2,note_on,60,39,0
2,note_on,60,0,120
2,note_on,67,34,0
2,note_on,67,0,120
2,note_on,59,41,0
2,note_on,59,0,120
2,note_on,67,37,0
2,note_on,67,0,120
2,note_on,62,40,0
2,note_on,62,0,120
2,note_on,67,37,0
2,note_on,67,0,120
2,note_on,62,50,0
2,note_on,62,0,120
2,note_on,67,38,0
2,note_on,67,0,120
2,note_on,65,41,0
2,note_on,65,0,120
2,note_on,67,38,0
2,note_on,67,0,120
2,note_on,60,41,0
2,note_on,60,0,120
2,note_on,67,37,0
2,note_on,67,0,120
2,note_on,64,39,0
2,note_on,64,0,120
2,note_on,67,37,0
2,note_on,67,0,120
2,note_on,59,40,0
2,note_on,59,0,120
2,note_on,67,38,0
2,note_on,67,0,120
2,note_on,62,40,0
2,note_on,62,0,120
2,note_on,67,37,0
2,note_on,67,0,120
2,note_on,60,45,0
2,note_on,60,0,120
2,note_on,67,40,0
2,note_on,67,0,120
2,note_on,64,45,0
2,note_on,64,0,120
2,note_on,67,40,0
2,note_on,67,0,120
2,note_on,64,52,0
2,note_on,64,0,120
2,note_on,67,41,0
2,note_on,67,0,120
2,note_on,66,45,0
2,note_on,66,0,120
2,note_on,67,40,0
2,note_on,67,0,120
2,note_on,62,45,0
2,note_on,62,0,120
2,note_on,67,38,0
2,note_on,67,0,120
2,note_on,66,40,0
2,note_on,66,0,120
2,note_on,67,38,0
2,note_on,67,0,120
2,note_on,60,40,0
2,note_on,60,0,120
2,note_on,67,35,0
2,note_on,67,0,120
2,note_on,66,37,0
2,note_on,66,0,120
2,note_on,67,35,0
2,note_on,67,0,120
2,note_on,59,40,0
2,note_on,59,0,120
2,note_on,67,35,0
2,note_on,67,0,120
2,note_on,60,37,0
2,note_on,60,0,120
2,note_on,67,34,0
2,note_on,67,0,120
2,note_on,55,37,0
2,note_on,55,0,120
2,note_on,67,30,0
2,note_on,67,0,120
2,note_on,59,33,0
2,note_on,59,0,120
2,note_on,67,30,0
2,note_on,67,0,120
2,note_on,55,38,0
2,note_on,55,0,120
2,note_on,67,33,0
2,note_on,67,0,120
2,note_on,59,31,0
2,note_on,59,0,120
2,note_on,67,31,0
2,note_on,67,0,120
2,note_on,55,34,0
2,note_on,55,0,120
2,note_on,67,29,0
2,note_on,67,0,120
2,note_on,60,31,0
2,note_on,60,0,120
2,note_on,67,30,0
2,note_on,67,0,120
2,note_on,55,33,0
2,note_on,55,0,120
2,note_on,67,30,0
2,note_on,67,0,120
2,note_on,63,31,0
2,note_on,63,0,120
2,note_on,67,29,0
2,note_on,67,0,120
2,note_on,55,32,0
2,note_on,55,0,120
2,note_on,67,30,0
2,note_on,67,0,120
2,note_on,62,32,0
2,note_on,62,0,120
2,note_on,67,30,0
2,note_on,67,0,120
2,note_on,55,37,0
2,note_on,55,0,120
2,note_on,67,30,0
2,note_on,67,0,120
2,note_on,59,32,0
2,note_on,59,0,120
2,note_on,67,30,0
2,note_on,67,0,120
2,note_on,55,35,0
2,note_on,55,0,120
2,note_on,67,30,0
2,note_on,67,0,120
2,note_on,60,32,0
2,note_on,60,0,120
2,note_on,67,30,0
2,note_on,67,0,120
2,note_on,55,37,0
2,note_on,55,0,120
2,note_on,67,30,0
2,note_on,67,0,120
2,note_on,63,33,0
2,note_on,63,0,120
2,note_on,67,30,0
2,note_on,67,0,120
2,note_on,55,35,0
2,note_on,55,0,120
2,note_on,67,30,0
2,note_on,67,0,120
2,note_on,62,32,0
2,note_on,62,0,120
2,note_on,67,30,0
2,note_on,67,0,120
2,note_on,55,45,0
2,note_on,55,0,120
2,note_on,67,35,0
2,note_on,67,0,120
2,note_on,59,38,0
2,note_on,59,0,120
2,note_on,67,36,0
2,note_on,67,0,120
2,note_on,56,45,0
2,note_on,56,0,120
2,note_on,67,30,0
2,note_on,67,0,120
2,note_on,60,33,0
2,note_on,60,0,120
2,note_on,67,30,0
2,note_on,67,0,120
2,note_on,56,45,0
2,note_on,56,0,120
2,note_on,66,33,0
2,note_on,66,0,120
2,note_on,60,33,0
2,note_on,60,0,120
2,note_on,66,33,0
2,note_on,66,0,120
2,note_on,55,45,0
2,note_on,67,45,0
2,note_on,67,0,240
2,note_on,55,0,0
2,note_on,55,43,240
2,note_on,67,43,0
2,note_on,67,0,240
2,note_on,55,0,0
2,note_on,55,44,240
2,note_on,67,44,0
2,note_on,67,0,240
2,note_on,55,0,0
2,note_on,55,24,720
2,note_on,59,24,0
2,note_on,62,24,0
2,note_on,65,24,0
2,note_on,65,0,240
2,note_on,55,0,0
2,note_on,59,0,0
2,note_on,62,0,0
2,note_on,55,24,240
2,note_on,59,24,0
2,note_on,62,24,0
2,note_on,65,24,0
2,note_on,65,0,240
2,note_on,55,0,0
2,note_on,59,0,0
2,note_on,62,0,0
2,note_on,55,24,240
2,note_on,59,24,0
2,note_on,62,24,0
2,note_on,65,24,0
2,note_on,65,0,240
2,note_on,55,0,0
2,note_on,59,0,0
2,note_on,62,0,0
2,note_on,48,40,240
2,note_on,48,0,240
2,note_on,52,40,0
2,note_on,52,0,240
2,note_on,55,40,0
2,note_on,55,0,240
2,note_on,60,43,0
2,note_on,60,0,240
2,note_on,48,40,0
2,note_on,48,0,240
2,note_on,55,43,0
2,note_on,55,0,240
2,note_on,43,40,0
2,note_on,43,0,240
2,note_on,48,40,240
2,note_on,48,0,240
2,note_on,52,40,0
2,note_on,52,0,240
2,note_on,55,43,0
2,note_on,55,0,240
2,note_on,60,44,0
2,note_on,60,0,240
2,note_on,48,41,0
2,note_on,48,0,240
2,note_on,55,43,0
2,note_on,55,0,240
2,note_on,43,41,0
2,note_on,43,0,240
2,note_on,57,47,0
2,note_on,57,0,240
2,note_on,60,46,0
2,note_on,60,0,240
2,note_on,55,49,0
2,note_on,55,0,240
2,note_on,60,45,0
2,note_on,60,0,240
2,note_on,53,49,0
2,note_on,53,0,240
2,note_on,60,47,0
2,note_on,60,0,240
2,note_on,52,50,0
2,note_on,52,0,240
2,note_on,60,46,0
2,note_on,60,0,240
2,note_on,67,43,240
2,note_on,59,43,0
2,note_on,59,0,240
2,note_on,67,0,0
2,note_on,67,43,240
2,note_on,60,43,0
2,note_on,60,0,240
2,note_on,67,0,0
2,note_on,59,44,0
2,note_on,55,44,0
2,note_on,55,0,480
2,note_on,59,0,0
2,note_on,36,64,480
2,note_on,36,0,120
2,note_on,40,56,0
2,note_on,40,0,120
2,note_on,43,57,0
2,note_on,43,0,120
2,note_on,48,56,0
2,note_on,48,0,120
2,note_on,40,60,0
2,note_on,40,0,120
2,note_on,52,57,0
2,note_on,52,0,120
2,note_on,43,60,0
2,note_on,43,0,120
2,note_on,55,57,0
2,note_on,55,0,120
2,note_on,48,60,0
2,note_on,48,0,120
2,note_on,52,55,0
2,note_on,52,0,120
2,note_on,55,57,0
2,note_on,55,0,120
2,note_on,60,56,0
2,note_on,60,0,120
2,note_on,43,60,0
2,note_on,43,0,120
2,note_on,47,57,0
2,note_on,47,0,120
2,note_on,50,59,0
2,note_on,50,0,120
2,note_on,55,57,0
2,note_on,55,0,120
2,note_on,36,60,0
2,note_on,36,0,120
2,note_on,40,56,0
2,note_on,40,0,120
2,note_on,43,57,0
2,note_on,43,0,120
2,note_on,48,55,0
2,note_on,48,0,120
2,note_on,40,60,0
2,note_on,40,0,120
2,note_on,52,57,0
2,note_on,52,0,120
2,note_on,43,58,0
2,note_on,43,0,120
2,note_on,55,57,0
2,note_on,55,0,120
2,note_on,48,60,0
2,note_on,48,0,120
2,note_on,52,55,0
2,note_on,52,0,120
2,note_on,55,57,0
2,note_on,55,0,120
2,note_on,60,56,0
2,note_on,60,0,120
2,note_on,43,62,0
2,note_on,43,0,120
2,note_on,47,56,0
2,note_on,47,0,120
2,note_on,50,57,0
2,note_on,50,0,120
2,note_on,55,56,0
2,note_on,55,0,120
2,note_on,57,53,0
2,note_on,57,0,120
2,note_on,60,49,0
2,note_on,60,0,120
2,note_on,57,53,0
2,note_on,57,0,120
2,note_on,60,49,0
2,note_on,60,0,120
2,note_on,55,53,0
2,note_on,55,0,120
2,note_on,60,50,0
2,note_on,60,0,120
2,note_on,55,53,0
2,note_on,55,0,120
2,note_on,60,50,0
2,note_on,60,0,120
2,note_on,53,57,0
2,note_on,53,0,120
2,note_on,60,53,0
2,note_on,60,0,120
2,note_on,53,57,0
2,note_on,53,0,120
2,note_on,60,53,0
2,note_on,60,0,120
2,note_on,52,57,0
2,note_on,52,0,120
2,note_on,60,53,0
2,note_on,60,0,120
2,note_on,52,57,0
2,note_on,52,0,120
2,note_on,60,52,0
2,note_on,60,0,120
2,note_on,62,49,240
2,note_on,53,49,0
2,note_on,53,0,120
2,note_on,62,0,0
2,note_on,64,49,120
2,note_on,55,49,0
2,note_on,64,0,240
2,note_on,62,49,0
2,note_on,62,0,240
2,note_on,55,0,0
2,note_on,64,49,0
2,note_on,60,49,0
2,note_on,60,0,480
2,note_on,64,0,0
2,note_on,62,38,720
2,note_on,53,38,0
2,note_on,57,38,0
2,note_on,57,0,240
2,note_on,53,0,0
2,note_on,62,0,0
2,note_on,60,38,0
2,note_on,64,38,0
2,note_on,55,38,0
2,note_on,64,0,240
2,note_on,60,0,0
2,note_on,65,44,0
2,note_on,62,44,0
2,note_on,62,0,240
2,note_on,65,0,0
2,note_on,55,0,0
2,note_on,60,49,0
2,note_on,64,49,0
2,note_on,64,0,480
2,note_on,60,0,0
2,note_on,57,38,720
2,note_on,62,38,0
2,note_on,53,38,0
2,note_on,53,0,240
2,note_on,62,0,0
2,note_on,57,0,0
2,note_on,60,38,0
2,note_on,55,38,0
2,note_on,64,38,0
2,note_on,64,0,240
2,note_on,60,0,0
2,note_on,65,40,0
2,note_on,62,40,0
2,note_on,62,0,240
2,note_on,65,0,0
2,note_on,55,0,0
2,note_on,60,38,0
2,note_on,64,38,0
2,note_on,64,0,60
2,note_on,60,0,0
2,note_on,55,38,180
2,note_on,55,0,60
2,note_on,36,38,180
2,note_on,48,38,0
2,note_on,48,0,480
2,note_on,36,0,0
2,note_on,60,37,0
2,note_on,60,0,120
2,note_on,67,30,0
2,note_on,67,0,120
2,note_on,66,33,0
2,note_on,66,0,120
2,note_on,67,30,0
2,note_on,67,0,120
2,note_on,60,37,0
2,note_on,60,0,120
2,note_on,67,30,0
2,note_on,67,0,120
2,note_on,62,33,0
2,note_on,62,0,120
2,note_on,67,30,0
2,note_on,67,0,120
2,note_on,64,37,0
2,note_on,64,0,120
2,note_on,67,30,0
2,note_on,67,0,120
2,note_on,65,33,0
2,note_on,65,0,120
2,note_on,67,30,0
2,note_on,67,0,120
2,note_on,64,37,0
2,note_on,64,0,120
2,note_on,67,30,0
2,note_on,67,0,120
2,note_on,58,33,0
2,note_on,58,0,120
2,note_on,67,31,0
2,note_on,67,0,120
2,note_on,59,38,0
2,note_on,59,0,120
2,note_on,67,31,0
2,note_on,67,0,120
2,note_on,59,35,0
2,note_on,59,0,120
2,note_on,67,32,0
2,note_on,67,0,120
2,note_on,60,41,0
2,note_on,60,0,120
2,note_on,67,33,0
2,note_on,67,0,120
2,note_on,62,37,0
2,note_on,62,0,120
2,note_on,67,33,0
2,note_on,67,0,120
2,note_on,60,40,0
2,note_on,60,0,120
2,note_on,67,30,0
2,note_on,67,0,120
2,note_on,66,33,0
2,note_on,66,0,120
2,note_on,67,30,0
2,note_on,67,0,120
2,note_on,59,37,0
2,note_on,59,0,120
2,note_on,67,31,0
2,note_on,67,0,120
2,note_on,66,33,0
2,note_on,66,0,120
2,note_on,67,32,0
2,note_on,67,0,120
2,note_on,59,37,0
2,note_on,59,0,120
2,note_on,67,31,0
2,note_on,67,0,120
2,note_on,66,33,0
2,note_on,66,0,120
2,note_on,67,31,0
2,note_on,67,0,120
2,note_on,59,37,0
2,note_on,59,0,120
2,note_on,67,31,0
2,note_on,67,0,120
2,note_on,60,33,0
2,note_on,60,0,120
2,note_on,67,31,0
2,note_on,67,0,120
2,note_on,62,37,0
2,note_on,62,0,120
2,note_on,67,31,0
2,note_on,67,0,120
2,note_on,64,33,0
2,note_on,64,0,120
2,note_on,67,31,0
2,note_on,67,0,120
2,note_on,65,37,0
2,note_on,65,0,120
2,note_on,67,32,0
2,note_on,67,0,120
2,note_on,62,34,0
2,note_on,62,0,120
2,note_on,67,31,0
2,note_on,67,0,120
2,note_on,59,40,0
2,note_on,59,0,120
2,note_on,67,31,0
2,note_on,67,0,120
2,note_on,62,34,0
2,note_on,62,0,120
2,note_on,67,31,0
2,note_on,67,0,120
2,note_on,59,46,0
2,note_on,59,0,120
2,note_on,67,35,0
2,note_on,67,0,120
2,note_on,55,37,0
2,note_on,55,0,120
2,note_on,67,35,0
2,note_on,67,0,120
2,note_on,60,44,0
2,note_on,60,0,120
2,note_on,67,37,0
2,note_on,67,0,120
2,note_on,65,40,0
2,note_on,65,0,120
2,note_on,67,37,0
2,note_on,67,0,120
2,note_on,60,44,0
2,note_on,60,0,120
2,note_on,67,37,0
2,note_on,67,0,120
2,note_on,64,40,0
2,note_on,64,0,120
2,note_on,67,37,0
2,note_on,67,0,120
2,note_on,48,48,0
2,note_on,48,0,80
2,note_on,52,43,0
2,note_on,52,0,80
2,note_on,55,41,0
2,note_on,55,0,80
2,note_on,60,46,0
2,note_on,60,0,240
2,note_on,41,48,480
2,note_on,41,0,80
2,note_on,45,43,0
2,note_on,45,0,80
2,note_on,48,41,0
2,note_on,48,0,80
2,note_on,53,48,0
2,note_on,53,0,240
2,note_on,45,48,480
2,note_on,45,0,80
2,note_on,49,43,0
2,note_on,49,0,80
2,note_on,52,40,0
2,note_on,52,0,80
2,note_on,57,48,0
2,note_on,57,0,240
2,note_on,50,48,480
2,note_on,50,0,80
2,note_on,54,43,0
2,note_on,54,0,80
2,note_on,57,40,0
2,note_on,57,0,80
2,note_on,62,48,0
2,note_on,62,0,240
2,note_on,47,48,480
2,note_on,47,0,80
2,note_on,50,43,0
2,note_on,50,0,80
2,note_on,55,40,0
2,note_on,55,0,80
2,note_on,59,48,0
2,note_on,59,0,240
2,note_on,48,48,480
2,note_on,48,0,80
2,note_on,52,43,0
2,note_on,52,0,80
2,note_on,55,40,0
2,note_on,55,0,80
2,note_on,60,48,0
2,note_on,60,0,240
2,note_on,53,50,480
2,note_on,57,50,0
2,note_on,57,0,240
2,note_on,53,0,0
2,note_on,57,52,240
2,note_on,54,52,0
2,note_on,54,0,240
2,note_on,57,0,0
2,note_on,55,57,240
2,note_on,55,0,60
2,note_on,67,40,60
2,note_on,67,0,120
2,note_on,66,44,0
2,note_on,66,0,120
2,note_on,67,40,0
2,note_on,67,0,120
2,note_on,66,44,0
2,note_on,66,0,120
2,note_on,67,41,0
2,note_on,67,0,120
2,note_on,65,44,0
2,note_on,65,0,120
2,note_on,67,40,0
2,note_on,67,0,120
2,note_on,64,49,0
2,note_on,64,0,120
2,note_on,67,40,0
2,note_on,67,0,120
2,note_on,60,35,0
2,note_on,60,0,120
2,note_on,67,30,0
2,note_on,67,0,120
2,note_on,64,37,0
2,note_on,64,0,120
2,note_on,67,31,0
2,note_on,67,0,120
2,note_on,60,35,0
2,note_on,60,0,120
2,note_on,67,31,0
2,note_on,67,0,120
2,note_on,62,37,0
2,note_on,62,0,120
2,note_on,67,34,0
2,note_on,67,0,120
2,note_on,60,37,0
2,note_on,60,0,120
2,note_on,67,34,0
2,note_on,67,0,120
2,note_on,59,37,0
2,note_on,59,0,120
2,note_on,67,34,0
2,note_on,67,0,120
2,note_on,55,37,0
2,note_on,55,0,120
2,note_on,67,34,0
2,note_on,67,0,120
2,note_on,60,38,0
2,note_on,60,0,120
2,note_on,67,31,0
2,note_on,67,0,120
2,note_on,66,34,0
2,note_on,66,0,120
2,note_on,67,31,0
2,note_on,67,0,120
2,note_on,66,39,0
2,note_on,66,0,120
2,note_on,67,41,0
2,note_on,67,0,120
2,note_on,69,44,0
2,note_on,69,0,120
2,note_on,67,41,0
2,note_on,67,0,120
2,note_on,65,49,0
2,note_on,65,0,120
2,note_on,67,47,0
2,note_on,67,0,120
2,note_on,64,49,0
2,note_on,64,0,120
2,note_on,67,45,0
2,note_on,67,0,120
2,note_on,65,49,0
2,note_on,65,0,120
2,note_on,67,46,0
2,note_on,67,0,120
2,note_on,62,49,0
2,note_on,62,0,120
2,note_on,67,46,0
2,note_on,67,0,120
2,note_on,64,49,0
2,note_on,64,0,120
2,note_on,67,41,0
2,note_on,67,0,120
2,note_on,60,35,0
2,note_on,60,0,120
2,note_on,67,31,0
2,note_on,67,0,120
2,note_on,64,37,0
2,note_on,64,0,120
2,note_on,67,31,0
2,note_on,67,0,120
2,note_on,60,35,0
2,note_on,60,0,120
2,note_on,67,31,0
2,note_on,67,0,120
2,note_on,62,37,0
2,note_on,62,0,120
2,note_on,67,34,0
2,note_on,67,0,120
2,note_on,60,37,0
2,note_on,60,0,120
2,note_on,67,34,0
2,note_on,67,0,120
2,note_on,59,37,0
2,note_on,59,0,120
2,note_on,67,34,0
2,note_on,67,0,120
2,note_on,55,37,0
2,note_on,55,0,120
2,note_on,67,34,0
2,note_on,67,0,120
2,note_on,60,34,0
2,note_on,60,0,120
2,note_on,67,32,0
2,note_on,67,0,120
2,note_on,64,32,0
2,note_on,64,0,120
2,note_on,67,32,0
2,note_on,67,0,120
2,note_on,60,37,0
2,note_on,60,0,120
2,note_on,69,29,0
2,note_on,69,0,120
2,note_on,65,32,0
2,note_on,65,0,120
2,note_on,69,29,0
2,note_on,69,0,120
2,note_on,60,32,0
2,note_on,60,0,120
2,note_on,67,30,0
2,note_on,67,0,120
2,note_on,64,32,0
2,note_on,64,0,120
2,note_on,67,31,0
2,note_on,67,0,120
2,note_on,58,32,0
2,note_on,58,0,120
2,note_on,65,30,0
2,note_on,65,0,120
2,note_on,62,32,0
2,note_on,62,0,120
2,note_on,65,30,0
2,note_on,65,0,120
2,note_on,57,32,0
2,note_on,57,0,120
2,note_on,65,30,0
2,note_on,65,0,120
2,note_on,60,32,0
2,note_on,60,0,120
2,note_on,65,30,0
2,note_on,65,0,120
2,note_on,53,40,0
2,note_on,53,0,120
2,note_on,62,34,0
2,note_on,62,0,120
2,note_on,57,40,0
2,note_on,57,0,120
2,note_on,62,33,0
2,note_on,62,0,120
2,note_on,55,39,0
2,note_on,55,0,120
2,note_on,64,34,0
2,note_on,64,0,120
2,note_on,60,39,0
2,note_on,60,0,120
2,note_on,64,34,0
2,note_on,64,0,120
2,note_on,55,39,0
2,note_on,55,0,120
2,note_on,65,34,0
2,note_on,65,0,120
2,note_on,59,38,0
2,note_on,59,0,120
2,note_on,65,33,0
2,note_on,65,0,120
2,note_on,48,40,0
2,note_on,48,0,120
2,note_on,55,35,0
2,note_on,55,0,120
2,note_on,52,40,0
2,note_on,52,0,120
2,note_on,55,34,0
2,note_on,55,0,120
2,note_on,48,32,0
2,note_on,48,0,120
2,note_on,57,30,0
2,note_on,57,0,120
2,note_on,53,32,0
2,note_on,53,0,120
2,note_on,57,30,0
2,note_on,57,0,120
2,note_on,48,32,0
2,note_on,48,0,120
2,note_on,55,30,0
2,note_on,55,0,120
2,note_on,52,32,0
2,note_on,52,0,120
2,note_on,55,30,0
2,note_on,55,0,120
2,note_on,46,32,0
2,note_on,46,0,120
2,note_on,53,29,0
2,note_on,53,0,120
2,note_on,50,32,0
2,note_on,50,0,120
2,note_on,53,29,0
2,note_on,53,0,120
2,note_on,45,34,0
2,note_on,45,0,120
2,note_on,53,30,0
2,note_on,53,0,120
2,note_on,48,33,0
2,note_on,48,0,120
2,note_on,53,29,0
2,note_on,53,0,120
2,note_on,41,41,0
2,note_on,41,0,120
2,note_on,50,38,0
2,note_on,50,0,120
2,note_on,45,40,0
2,note_on,45,0,120
2,note_on,50,37,0
2,note_on,50,0,120
2,note_on,43,40,0
2,note_on,43,0,120
2,note_on,52,37,0
2,note_on,52,0,120
2,note_on,48,39,0
2,note_on,48,0,120
2,note_on,52,32,0
2,note_on,52,0,120
2,note_on,43,38,0
2,note_on,43,0,120
2,note_on,53,33,0
2,note_on,53,0,120
2,note_on,50,38,0
2,note_on,50,0,120
2,note_on,53,32,0
2,note_on,53,0,120
2,note_on,48,38,240
2,note_on,52,38,0
2,note_on,52,0,240
2,note_on,48,0,0
2,note_on,50,44,0
2,note_on,53,44,0
2,note_on,53,0,240
2,note_on,50,0,0
2,note_on,55,49,0
2,note_on,52,49,0
2,note_on,52,0,240
2,note_on,55,0,0
2,note_on,43,37,240
2,note_on,47,37,0
2,note_on,47,0,240
2,note_on,43,0,0
2,note_on,45,40,0
2,note_on,48,40,0
2,note_on,48,0,240
2,note_on,45,0,0
2,note_on,47,44,0
2,note_on,50,44,0
2,note_on,50,0,240
2,note_on,47,0,0
2,note_on,48,38,240
2,note_on,52,38,0
2,note_on,52,0,240
2,note_on,48,0,0
2,note_on,50,44,0
2,note_on,53,44,0
2,note_on,53,0,240
2,note_on,50,0,0
2,note_on,55,49,0
2,note_on,52,49,0
2,note_on,52,0,240
2,note_on,55,0,0
2,note_on,43,37,240
2,note_on,47,37,0
2,note_on,47,0,240
2,note_on,43,0,0
2,note_on,45,40,0
2,note_on,48,40,0
2,note_on,48,0,240
2,note_on,45,0,0
2,note_on,47,44,0
2,note_on,50,44,0
2,note_on,50,0,240
2,note_on,47,0,0
2,note_on,48,44,0
2,note_on,48,0,480
2,note_on,55,44,480
2,note_on,60,44,0
2,note_on,52,44,0
2,note_on,55,0,720
2,note_on,58,44,0
2,note_on,58,0,240
2,note_on,52,0,0
2,note_on,53,38,0
2,note_on,53,0,480
2,note_on,60,0,0
2,note_on,54,37,720
2,note_on,63,37,0
2,note_on,63,0,240
2,note_on,54,0,0
2,note_on,55,40,0
2,note_on,64,40,0
2,note_on,64,0,240
2,note_on,55,0,0
2,note_on,65,44,0
2,note_on,65,0,240
2,note_on,64,44,0
2,note_on,60,44,0
2,note_on,60,0,480
2,note_on,64,0,0
2,note_on,55,44,480
2,note_on,60,44,0
2,note_on,52,44,0
2,note_on,55,0,720
2,note_on,58,44,0
2,note_on,58,0,240
2,note_on,52,0,0
2,note_on,57,38,0
2,note_on,53,38,0
2,note_on,53,0,480
2,note_on,57,0,0
2,note_on,60,0,0
2,note_on,54,41,480
2,note_on,63,41,0
2,note_on,63,0,480
2,note_on,54,0,0
2,note_on,55,48,480
2,note_on,55,0,120
2,note_on,64,39,0
2,note_on,64,0,120
2,note_on,60,41,0
2,note_on,60,0,120
2,note_on,64,39,0
2,note_on,64,0,120
2,note_on,55,48,0
2,note_on,55,0,120
2,note_on,64,38,0
2,note_on,64,0,120
2,note_on,60,41,0
2,note_on,60,0,120
2,note_on,64,39,0
2,note_on,64,0,120
2,note_on,55,43,0
2,note_on,55,0,120
2,note_on,67,36,0
2,note_on,67,0,120
2,note_on,60,38,0
2,note_on,60,0,120
2,note_on,67,35,0
2,note_on,67,0,120
2,note_on,55,39,0
2,note_on,55,0,120
2,note_on,65,30,0
2,note_on,65,0,120
2,note_on,59,32,0
2,note_on,59,0,120
2,note_on,65,30,0
2,note_on,65,0,120
2,note_on,48,35,0
2,note_on,48,0,120
2,note_on,52,30,0
2,note_on,52,0,120
2,note_on,60,32,0
2,note_on,60,0,120
2,note_on,52,30,0
2,note_on,52,0,120
2,note_on,48,35,0
2,note_on,48,0,120
2,note_on,52,30,0
2,note_on,52,0,120
2,note_on,60,32,0
2,note_on,60,0,120
2,note_on,52,30,0
2,note_on,52,0,120
2,note_on,48,35,0
2,note_on,48,0,120
2,note_on,50,30,0
2,note_on,50,0,120
2,note_on,59,32,0
2,note_on,59,0,120
2,note_on,50,30,0
2,note_on,50,0,120
2,note_on,48,35,0
2,note_on,48,0,120
2,note_on,53,30,0
2,note_on,53,0,120
2,note_on,59,32,0
2,note_on,59,0,120
2,note_on,53,30,0
2,note_on,53,0,120
2,note_on,48,35,0
2,note_on,48,0,120
2,note_on,52,30,0
2,note_on,52,0,120
2,note_on,60,32,0
2,note_on,60,0,120
2,note_on,52,30,0
2,note_on,52,0,120
2,note_on,48,35,0
2,note_on,48,0,120
2,note_on,52,30,0
2,note_on,52,0,120
2,note_on,60,32,0
2,note_on,60,0,120
2,note_on,52,30,0
2,note_on,52,0,120
2,note_on,48,35,0
2,note_on,48,0,120
2,note_on,50,30,0
2,note_on,50,0,120
2,note_on,59,32,0
2,note_on,59,0,120
2,note_on,50,30,0
2,note_on,50,0,120
2,note_on,48,35,0
2,note_on,48,0,120
2,note_on,53,30,0
2,note_on,53,0,120
2,note_on,59,32,0
2,note_on,59,0,120
2,note_on,53,30,0
2,note_on,53,0,120
2,note_on,48,35,0
2,note_on,48,0,120
2,note_on,52,30,0
2,note_on,52,0,120
2,note_on,60,32,0
2,note_on,60,0,120
2,note_on,52,30,0
2,note_on,52,0,120
2,note_on,48,35,0
2,note_on,48,0,120
2,note_on,53,30,0
2,note_on,53,0,120
2,note_on,59,32,0
2,note_on,59,0,120
2,note_on,53,30,0
2,note_on,53,0,120
2,note_on,48,35,0
2,note_on,48,0,120
2,note_on,52,30,0
2,note_on,52,0,120
2,note_on,60,32,0
2,note_on,60,0,120
2,note_on,52,30,0
2,note_on,52,0,120
2,note_on,48,35,0
2,note_on,48,0,120
2,note_on,53,30,0
2,note_on,53,0,120
2,note_on,59,32,0
2,note_on,59,0,120
2,note_on,53,30,0
2,note_on,53,0,120
2,note_on,48,35,0
2,note_on,48,0,120
2,note_on,52,30,0
2,note_on,52,0,120
2,note_on,60,32,0
2,note_on,60,0,120
2,note_on,52,31,0
2,note_on,52,0,120
2,note_on,48,41,0
2,note_on,48,0,120
2,note_on,53,35,0
2,note_on,53,0,120
2,note_on,59,35,0
2,note_on,59,0,120
2,note_on,53,32,0
2,note_on,53,0,120
2,note_on,48,35,0
2,note_on,48,0,120
2,note_on,52,30,0
2,note_on,52,0,120
2,note_on,60,32,0
2,note_on,60,0,120
2,note_on,52,30,0
2,note_on,52,0,120
2,note_on,48,41,0
2,note_on,48,0,120
2,note_on,53,35,0
2,note_on,53,0,120
2,note_on,59,32,0
2,note_on,59,0,120
2,note_on,53,30,0
2,note_on,53,0,120
2,note_on,48,35,0
2,note_on,52,35,0
2,note_on,52,0,480
2,note_on,48,0,0
2,note_on,56,33,240
2,note_on,56,0,60
2,note_on,57,33,180
2,note_on,57,0,720
2,note_on,41,50,240
2,note_on,53,59,0
2,note_on,53,0,120
2,note_on,41,0,0
2,note_on,43,50,360
2,note_on,55,59,0
2,note_on,55,0,120
2,note_on,43,0,0
2,note_on,36,47,360
2,note_on,40,47,0
2,note_on,43,47,0
2,note_on,48,57,0
2,note_on,48,0,120
2,note_on,36,0,0
2,note_on,40,0,0
2,note_on,43,0,0
2,note_on,62,39,840
2,note_on,59,39,0
2,note_on,59,0,240
2,note_on,55,38,0
2,note_on,55,0,120
2,note_on,62,0,120
2,note_on,62,40,0
2,note_on,55,40,0
2,note_on,55,0,120
2,note_on,62,0,0
2,note_on,62,38,120
2,note_on,55,38,0
2,note_on,55,0,240
2,note_on,62,0,0
2,note_on,62,40,0
2,note_on,59,40,0
2,note_on,59,0,240
2,note_on,57,38,0
2,note_on,57,0,60
2,note_on,62,0,180
2,note_on,54,38,0
2,note_on,62,38,0
2,note_on,62,0,480
2,note_on,54,0,0
2,note_on,57,41,0
2,note_on,62,41,0
2,note_on,57,0,240
2,note_on,55,38,0
2,note_on,55,0,60
2,note_on,62,0,180
2,note_on,62,40,0
2,note_on,59,40,0
2,note_on,59,0,240
2,note_on,57,38,0
2,note_on,57,0,60
2,note_on,62,0,180
2,note_on,60,50,0
2,note_on,62,50,0
2,note_on,60,0,480
2,note_on,59,40,0
2,note_on,59,0,240
2,note_on,62,0,0
2,note_on,47,38,720
2,note_on,50,38,0
2,note_on,50,0,480
2,note_on,47,0,0
2,note_on,52,38,0
2,note_on,48,38,0
2,note_on,48,0,480
2,note_on,52,0,0
2,note_on,49,40,0
2,note_on,55,40,0
2,note_on,55,0,480
2,note_on,49,0,0
2,note_on,59,34,0
2,note_on,50,34,0
2,note_on,59,0,480
2,note_on,57,34,0
2,note_on,57,0,480
2,note_on,50,0,0
2,note_on,60,39,0
2,note_on,55,39,0
2,note_on,60,0,480
2,note_on,59,35,0
2,note_on,59,0,240
2,note_on,55,0,0
2,note_on,59,38,240
2,note_on,59,0,120
2,note_on,62,30,0
2,note_on,62,0,120
2,note_on,55,35,0
2,note_on,55,0,120
2,note_on,62,30,0
2,note_on,62,0,120
2,note_on,55,38,0
2,note_on,55,0,120
2,note_on,62,32,0
2,note_on,62,0,120
2,note_on,56,37,0
2,note_on,56,0,120
2,note_on,62,32,0
2,note_on,62,0,120
2,note_on,57,40,0
2,note_on,57,0,120
2,note_on,62,31,0
2,note_on,62,0,120
2,note_on,55,35,0
2,note_on,55,0,120
2,note_on,62,30,0
2,note_on,62,0,120
2,note_on,54,38,0
2,note_on,54,0,120
2,note_on,62,35,0
2,note_on,62,0,120
2,note_on,50,38,0
2,note_on,50,0,120
2,note_on,62,34,0
2,note_on,62,0,120
2,note_on,55,38,0
2,note_on,55,0,120
2,note_on,67,34,0
2,note_on,67,0,120
2,note_on,59,38,0
2,note_on,59,0,120
2,note_on,67,33,0
2,note_on,67,0,120
2,note_on,57,40,0
2,note_on,57,0,120
2,note_on,67,38,0
2,note_on,67,0,120
2,note_on,60,40,0
2,note_on,60,0,120
2,note_on,67,38,0
2,note_on,67,0,120
2,note_on,60,47,0
2,note_on,60,0,120
2,note_on,67,38,0
2,note_on,67,0,120
2,note_on,64,40,0
2,note_on,64,0,120
2,note_on,67,38,0
2,note_on,67,0,120
2,note_on,59,40,0
2,note_on,59,0,120
2,note_on,67,33,0
2,note_on,67,0,120
2,note_on,62,38,0
2,note_on,62,0,120
2,note_on,67,34,0
2,note_on,67,0,120
2,note_on,57,39,0
2,note_on,57,0,120
2,note_on,67,35,0
2,note_on,67,0,120
2,note_on,60,39,0
2,note_on,60,0,120
2,note_on,67,34,0
2,note_on,67,0,120
2,note_on,59,41,0
2,note_on,59,0,120
2,note_on,67,37,0
2,note_on,67,0,120
2,note_on,62,40,0
2,note_on,62,0,120
2,note_on,67,37,0
2,note_on,67,0,120
2,note_on,62,50,0
2,note_on,62,0,120
2,note_on,67,38,0
2,note_on,67,0,120
2,note_on,65,41,0
2,note_on,65,0,120
2,note_on,67,38,0
2,note_on,67,0,120
2,note_on,60,41,0
2,note_on,60,0,120
2,note_on,67,37,0
2,note_on,67,0,120
2,note_on,64,39,0
2,note_on,64,0,120
2,note_on,67,37,0
2,note_on,67,0,120
2,note_on,59,40,0
2,note_on,59,0,120
2,note_on,67,38,0
2,note_on,67,0,120
2,note_on,62,40,0
2,note_on,62,0,120
2,note_on,67,37,0
2,note_on,67,0,120
2,note_on,60,45,0
2,note_on,60,0,120
2,note_on,67,40,0
2,note_on,67,0,120
2,note_on,64,45,0
2,note_on,64,0,120
2,note_on,67,40,0
2,note_on,67,0,120
2,note_on,64,52,0
2,note_on,64,0,120
2,note_on,67,41,0
2,note_on,67,0,120
2,note_on,66,45,0
2,note_on,66,0,120
2,note_on,67,40,0
2,note_on,67,0,120
2,note_on,62,45,0
2,note_on,62,0,120
2,note_on,67,38,0
2,note_on,67,0,120
2,note_on,66,40,0
2,note_on,66,0,120
2,note_on,67,38,0
2,note_on,67,0,120
2,note_on,60,40,0
2,note_on,60,0,120
2,note_on,67,35,0
2,note_on,67,0,120
2,note_on,66,37,0
2,note_on,66,0,120
2,note_on,67,35,0
2,note_on,67,0,120
2,note_on,59,40,0
2,note_on,59,0,120
2,note_on,67,35,0
2,note_on,67,0,120
2,note_on,60,37,0
2,note_on,60,0,120
2,note_on,67,34,0
2,note_on,67,0,120
2,note_on,55,37,0
2,note_on,55,0,120
2,note_on,67,30,0
2,note_on,67,0,120
2,note_on,59,33,0
2,note_on,59,0,120
2,note_on,67,30,0
2,note_on,67,0,120
2,note_on,55,38,0
2,note_on,55,0,120
2,note_on,67,33,0
2,note_on,67,0,120
2,note_on,59,31,0
2,note_on,59,0,120
2,note_on,67,31,0
2,note_on,67,0,120
2,note_on,55,34,0
2,note_on,55,0,120
2,note_on,67,29,0
2,note_on,67,0,120
2,note_on,60,31,0
2,note_on,60,0,120
2,note_on,67,30,0
2,note_on,67,0,120
2,note_on,55,33,0
2,note_on,55,0,120
2,note_on,67,30,0
2,note_on,67,0,120
2,note_on,63,31,0
2,note_on,63,0,120
2,note_on,67,29,0
2,note_on,67,0,120
2,note_on,55,32,0
2,note_on,55,0,120
2,note_on,67,30,0
2,note_on,67,0,120
2,note_on,62,32,0
2,note_on,62,0,120
2,note_on,67,30,0
2,note_on,67,0,120
2,note_on,55,37,0
2,note_on,55,0,120
2,note_on,67,30,0
2,note_on,67,0,120
2,note_on,59,32,0
2,note_on,59,0,120
2,note_on,67,30,0
2,note_on,67,0,120
2,note_on,55,35,0
2,note_on,55,0,120
2,note_on,67,30,0
2,note_on,67,0,120
2,note_on,60,32,0
2,note_on,60,0,120
2,note_on,67,30,0
2,note_on,67,0,120
2,note_on,55,37,0
2,note_on,55,0,120
2,note_on,67,30,0
2,note_on,67,0,120
2,note_on,63,33,0
2,note_on,63,0,120
2,note_on,67,30,0
2,note_on,67,0,120
2,note_on,55,35,0
2,note_on,55,0,120
2,note_on,67,30,0
2,note_on,67,0,120
2,note_on,62,32,0
2,note_on,62,0,120
2,note_on,67,30,0
2,note_on,67,0,120
2,note_on,55,45,0
2,note_on,55,0,120
2,note_on,67,35,0
2,note_on,67,0,120
2,note_on,59,38,0
2,note_on,59,0,120
2,note_on,67,36,0
2,note_on,67,0,120
2,note_on,56,45,0
2,note_on,56,0,120
2,note_on,67,30,0
2,note_on,67,0,120
2,note_on,60,33,0
2,note_on,60,0,120
2,note_on,67,30,0
2,note_on,67,0,120
2,note_on,56,45,0
2,note_on,56,0,120
2,note_on,66,33,0
2,note_on,66,0,120
2,note_on,60,33,0
2,note_on,60,0,120
2,note_on,66,33,0
2,note_on,66,0,120
2,note_on,67,45,0
2,note_on,55,45,0
2,note_on,55,0,240
2,note_on,67,0,0
2,note_on,55,43,240
2,note_on,67,43,0
2,note_on,67,0,240
2,note_on,55,0,0
2,note_on,55,44,240
2,note_on,67,44,0
2,note_on,67,0,240
2,note_on,55,0,0
2,note_on,59,24,720
2,note_on,55,24,0
2,note_on,62,24,0
2,note_on,65,24,0
2,note_on,65,0,240
2,note_on,59,0,0
2,note_on,55,0,0
2,note_on,62,0,0
2,note_on,65,24,240
2,note_on,62,24,0
2,note_on,55,24,0
2,note_on,59,24,0
2,note_on,59,0,240
2,note_on,65,0,0
2,note_on,62,0,0
2,note_on,55,0,0
2,note_on,55,24,240
2,note_on,59,24,0
2,note_on,62,24,0
2,note_on,65,24,0
2,note_on,65,0,240
2,note_on,55,0,0
2,note_on,59,0,0
2,note_on,62,0,0
2,note_on,48,40,240
2,note_on,48,0,240
2,note_on,52,40,0
2,note_on,52,0,240
2,note_on,55,40,0
2,note_on,55,0,240
2,note_on,60,43,0
2,note_on,60,0,240
2,note_on,48,40,0
2,note_on,48,0,240
2,note_on,55,43,0
2,note_on,55,0,240
2,note_on,43,40,0
2,note_on,43,0,240
2,note_on,48,40,240
2,note_on,48,0,240
2,note_on,52,40,0
2,note_on,52,0,240
2,note_on,55,43,0
2,note_on,55,0,240
2,note_on,60,44,0
2,note_on,60,0,240
2,note_on,48,41,0
2,note_on,48,0,240
2,note_on,55,43,0
2,note_on,55,0,240
2,note_on,43,41,0
2,note_on,43,0,240
2,note_on,57,47,0
2,note_on,57,0,240
2,note_on,60,46,0
2,note_on,60,0,240
2,note_on,55,49,0
2,note_on,55,0,240
2,note_on,60,45,0
2,note_on,60,0,240
2,note_on,53,49,0
2,note_on,53,0,240
2,note_on,60,47,0
2,note_on,60,0,240
2,note_on,52,50,0
2,note_on,52,0,240
2,note_on,60,46,0
2,note_on,60,0,240
2,note_on,67,43,240
2,note_on,59,43,0
2,note_on,59,0,240
2,note_on,67,0,0
2,note_on,60,43,240
2,note_on,67,43,0
2,note_on,67,0,240
2,note_on,60,0,0
2,note_on,55,44,0
2,note_on,59,44,0
2,note_on,59,0,480
2,note_on,55,0,0
2,note_on,36,64,480
2,note_on,36,0,120
2,note_on,40,56,0
2,note_on,40,0,120
2,note_on,43,57,0
2,note_on,43,0,120
2,note_on,48,56,0
2,note_on,48,0,120
2,note_on,40,60,0
2,note_on,40,0,120
2,note_on,52,57,0
2,note_on,52,0,120
2,note_on,43,60,0
2,note_on,43,0,120
2,note_on,55,57,0
2,note_on,55,0,120
2,note_on,48,60,0
2,note_on,48,0,120
2,note_on,52,55,0
2,note_on,52,0,120
2,note_on,55,57,0
2,note_on,55,0,120
2,note_on,60,56,0
2,note_on,60,0,120
2,note_on,43,60,0
2,note_on,43,0,120
2,note_on,47,57,0
2,note_on,47,0,120
2,note_on,50,59,0
2,note_on,50,0,120
2,note_on,55,57,0
2,note_on,55,0,120
2,note_on,36,60,0
2,note_on,36,0,120
2,note_on,40,56,0
2,note_on,40,0,120
2,note_on,43,57,0
2,note_on,43,0,120
2,note_on,48,55,0
2,note_on,48,0,120
2,note_on,40,60,0
2,note_on,40,0,120
2,note_on,52,57,0
2,note_on,52,0,120
2,note_on,43,58,0
2,note_on,43,0,120
2,note_on,55,57,0
2,note_on,55,0,120
2,note_on,48,60,0
2,note_on,48,0,120
2,note_on,52,55,0
2,note_on,52,0,120
2,note_on,55,57,0
2,note_on,55,0,120
2,note_on,60,56,0
2,note_on,60,0,120
2,note_on,43,62,0
2,note_on,43,0,120
2,note_on,47,56,0
2,note_on,47,0,120
2,note_on,50,57,0
2,note_on,50,0,120
2,note_on,55,56,0
2,note_on,55,0,120
2,note_on,57,53,0
2,note_on,57,0,120
2,note_on,60,49,0
2,note_on,60,0,120
2,note_on,57,53,0
2,note_on,57,0,120
2,note_on,60,49,0
2,note_on,60,0,120
2,note_on,55,53,0
2,note_on,55,0,120
2,note_on,60,50,0
2,note_on,60,0,120
2,note_on,55,53,0
2,note_on,55,0,120
2,note_on,60,50,0
2,note_on,60,0,120
2,note_on,53,57,0
2,note_on,53,0,120
2,note_on,60,53,0
2,note_on,60,0,120
2,note_on,53,57,0
2,note_on,53,0,120
2,note_on,60,53,0
2,note_on,60,0,120
2,note_on,52,57,0
2,note_on,52,0,120
2,note_on,60,53,0
2,note_on,60,0,120
2,note_on,52,57,0
2,note_on,52,0,120
2,note_on,60,52,0
2,note_on,60,0,120
2,note_on,62,49,240
2,note_on,53,49,0
2,note_on,53,0,120
2,note_on,62,0,0
2,note_on,55,49,120
2,note_on,64,49,0
2,note_on,64,0,240
2,note_on,62,49,0
2,note_on,62,0,240
2,note_on,55,0,0
2,note_on,64,49,0
2,note_on,60,49,0
2,note_on,60,0,480
2,note_on,64,0,0
2,note_on,53,38,720
2,note_on,57,38,0
2,note_on,62,38,0
2,note_on,62,0,240
2,note_on,57,0,0
2,note_on,53,0,0
2,note_on,55,38,0
2,note_on,60,38,0
2,note_on,64,38,0
2,note_on,64,0,240
2,note_on,60,0,0
2,note_on,62,44,0
2,note_on,65,44,0
2,note_on,65,0,240
2,note_on,62,0,0
2,note_on,55,0,0
2,note_on,60,49,0
2,note_on,64,49,0
2,note_on,64,0,480
2,note_on,60,0,0
2,note_on,57,38,720
2,note_on,53,38,0
2,note_on,62,38,0
2,note_on,62,0,240
2,note_on,53,0,0
2,note_on,57,0,0
2,note_on,60,38,0
2,note_on,55,38,0
2,note_on,64,38,0
2,note_on,64,0,240
2,note_on,60,0,0
2,note_on,62,40,0
2,note_on,65,40,0
2,note_on,65,0,240
2,note_on,62,0,0
2,note_on,55,0,0
2,note_on,60,38,0
2,note_on,64,38,0
2,note_on,64,0,60
2,note_on,60,0,0
2,note_on,55,38,180
2,note_on,55,0,60
2,note_on,48,38,180
2,note_on,36,38,0
2,note_on,36,0,480
2,note_on,48,0,0
2,note_on,60,37,0
2,note_on,60,0,120
2,note_on,67,30,0
2,note_on,67,0,120
2,note_on,66,33,0
2,note_on,66,0,120
2,note_on,67,30,0
2,note_on,67,0,120
2,note_on,60,37,0
2,note_on,60,0,120
2,note_on,67,30,0
2,note_on,67,0,120
2,note_on,62,33,0
2,note_on,62,0,120
2,note_on,67,30,0
2,note_on,67,0,120
2,note_on,64,37,0
2,note_on,64,0,120
2,note_on,67,30,0
2,note_on,67,0,120
2,note_on,65,33,0
2,note_on,65,0,120
2,note_on,67,30,0
2,note_on,67,0,120
2,note_on,64,37,0
2,note_on,64,0,120
2,note_on,67,30,0
2,note_on,67,0,120
2,note_on,58,33,0
2,note_on,58,0,120
2,note_on,67,31,0
2,note_on,67,0,120
2,note_on,59,38,0
2,note_on,59,0,120
2,note_on,67,31,0
2,note_on,67,0,120
2,note_on,59,35,0
2,note_on,59,0,120
2,note_on,67,32,0
2,note_on,67,0,120
2,note_on,60,41,0
2,note_on,60,0,120
2,note_on,67,33,0
2,note_on,67,0,120
2,note_on,62,37,0
2,note_on,62,0,120
2,note_on,67,33,0
2,note_on,67,0,120
2,note_on,60,40,0
2,note_on,60,0,120
2,note_on,67,30,0
2,note_on,67,0,120
2,note_on,66,33,0
2,note_on,66,0,120
2,note_on,67,30,0
2,note_on,67,0,120
2,note_on,59,37,0
2,note_on,59,0,120
2,note_on,67,31,0
2,note_on,67,0,120
2,note_on,66,33,0
2,note_on,66,0,120
2,note_on,67,32,0
2,note_on,67,0,120
2,note_on,59,37,0
2,note_on,59,0,120
2,note_on,67,31,0
2,note_on,67,0,120
2,note_on,66,33,0
2,note_on,66,0,120
2,note_on,67,31,0
2,note_on,67,0,120
2,note_on,59,37,0
2,note_on,59,0,120
2,note_on,67,31,0
2,note_on,67,0,120
2,note_on,60,33,0
2,note_on,60,0,120
2,note_on,67,31,0
2,note_on,67,0,120
2,note_on,62,37,0
2,note_on,62,0,120
2,note_on,67,31,0
2,note_on,67,0,120
2,note_on,64,33,0
2,note_on,64,0,120
2,note_on,67,31,0
2,note_on,67,0,120
2,note_on,65,37,0
2,note_on,65,0,120
2,note_on,67,32,0
2,note_on,67,0,120
2,note_on,62,34,0
2,note_on,62,0,120
2,note_on,67,31,0
2,note_on,67,0,120
2,note_on,59,40,0
2,note_on,59,0,120
2,note_on,67,31,0
2,note_on,67,0,120
2,note_on,62,34,0
2,note_on,62,0,120
2,note_on,67,31,0
2,note_on,67,0,120
2,note_on,59,46,0
2,note_on,59,0,120
2,note_on,67,35,0
2,note_on,67,0,120
2,note_on,55,37,0
2,note_on,55,0,120
2,note_on,67,35,0
2,note_on,67,0,120
2,note_on,60,44,0
2,note_on,60,0,120
2,note_on,67,37,0
2,note_on,67,0,120
2,note_on,65,40,0
2,note_on,65,0,120
2,note_on,67,37,0
2,note_on,67,0,120
2,note_on,60,44,0
2,note_on,60,0,120
2,note_on,67,37,0
2,note_on,67,0,120
2,note_on,64,40,0
2,note_on,64,0,120
2,note_on,67,37,0
2,note_on,67,0,120
2,note_on,48,48,0
2,note_on,48,0,80
2,note_on,52,43,0
2,note_on,52,0,80
2,note_on,55,41,0
2,note_on,55,0,80
2,note_on,60,46,0
2,note_on,60,0,240
2,note_on,41,48,480
2,note_on,41,0,80
2,note_on,45,43,0
2,note_on,45,0,80
2,note_on,48,41,0
2,note_on,48,0,80
2,note_on,53,48,0
2,note_on,53,0,240
2,note_on,45,48,480
2,note_on,45,0,80
2,note_on,49,43,0
2,note_on,49,0,80
2,note_on,52,40,0
2,note_on,52,0,80
2,note_on,57,48,0
2,note_on,57,0,240
2,note_on,50,48,480
2,note_on,50,0,80
2,note_on,54,43,0
2,note_on,54,0,80
2,note_on,57,40,0
2,note_on,57,0,80
2,note_on,62,48,0
2,note_on,62,0,240
2,note_on,47,48,480
2,note_on,47,0,80
2,note_on,50,43,0
2,note_on,50,0,80
2,note_on,55,40,0
2,note_on,55,0,80
2,note_on,59,48,0
2,note_on,59,0,240
2,note_on,48,48,480
2,note_on,48,0,80
2,note_on,52,43,0
2,note_on,52,0,80
2,note_on,55,40,0
2,note_on,55,0,80
2,note_on,60,48,0
2,note_on,60,0,240
2,note_on,53,50,480
2,note_on,57,50,0
2,note_on,57,0,240
2,note_on,53,0,0
2,note_on,57,52,240
2,note_on,54,52,0
2,note_on,54,0,240
2,note_on,57,0,0
2,note_on,55,57,240
2,note_on,55,0,60
2,note_on,67,40,60
2,note_on,67,0,120
2,note_on,66,44,0
2,note_on,66,0,120
2,note_on,67,40,0
2,note_on,67,0,120
2,note_on,66,44,0
2,note_on,66,0,120
2,note_on,67,41,0
2,note_on,67,0,120
2,note_on,65,44,0
2,note_on,65,0,120
2,note_on,67,40,0
2,note_on,67,0,120
2,note_on,64,49,0
2,note_on,64,0,120
2,note_on,67,40,0
2,note_on,67,0,120
2,note_on,60,35,0
2,note_on,60,0,120
2,note_on,67,30,0
2,note_on,67,0,120
2,note_on,64,37,0
2,note_on,64,0,120
2,note_on,67,31,0
2,note_on,67,0,120
2,note_on,60,35,0
2,note_on,60,0,120
2,note_on,67,31,0
2,note_on,67,0,120
2,note_on,62,37,0
2,note_on,62,0,120
2,note_on,67,34,0
2,note_on,67,0,120
2,note_on,60,37,0
2,note_on,60,0,120
2,note_on,67,34,0
2,note_on,67,0,120
2,note_on,59,37,0
2,note_on,59,0,120
2,note_on,67,34,0
2,note_on,67,0,120
2,note_on,55,37,0
2,note_on,55,0,120
2,note_on,67,34,0
2,note_on,67,0,120
2,note_on,60,38,0
2,note_on,60,0,120
2,note_on,67,31,0
2,note_on,67,0,120
2,note_on,66,34,0
2,note_on,66,0,120
2,note_on,67,31,0
2,note_on,67,0,120
2,note_on,66,39,0
2,note_on,66,0,120
2,note_on,67,41,0
2,note_on,67,0,120
2,note_on,69,44,0
2,note_on,69,0,120
2,note_on,67,41,0
2,note_on,67,0,120
2,note_on,65,49,0
2,note_on,65,0,120
2,note_on,67,47,0
2,note_on,67,0,120
2,note_on,64,49,0
2,note_on,64,0,120
2,note_on,67,45,0
2,note_on,67,0,120
2,note_on,65,49,0
2,note_on,65,0,120
2,note_on,67,46,0
2,note_on,67,0,120
2,note_on,62,49,0
2,note_on,62,0,120
2,note_on,67,46,0
2,note_on,67,0,120
2,note_on,64,49,0
2,note_on,64,0,120
2,note_on,67,41,0
2,note_on,67,0,120
2,note_on,60,35,0
2,note_on,60,0,120
2,note_on,67,31,0
2,note_on,67,0,120
2,note_on,64,37,0
2,note_on,64,0,120
2,note_on,67,31,0
2,note_on,67,0,120
2,note_on,60,35,0
2,note_on,60,0,120
2,note_on,67,31,0
2,note_on,67,0,120
2,note_on,62,37,0
2,note_on,62,0,120
2,note_on,67,34,0
2,note_on,67,0,120
2,note_on,60,37,0
2,note_on,60,0,120
2,note_on,67,34,0
2,note_on,67,0,120
2,note_on,59,37,0
2,note_on,59,0,120
2,note_on,67,34,0
2,note_on,67,0,120
2,note_on,55,37,0
2,note_on,55,0,120
2,note_on,67,34,0
2,note_on,67,0,120
2,note_on,60,34,0
2,note_on,60,0,120
2,note_on,67,32,0
2,note_on,67,0,120
2,note_on,64,32,0
2,note_on,64,0,120
2,note_on,67,32,0
2,note_on,67,0,120
2,note_on,60,37,0
2,note_on,60,0,120
2,note_on,69,29,0
2,note_on,69,0,120
2,note_on,65,32,0
2,note_on,65,0,120
2,note_on,69,29,0
2,note_on,69,0,120
2,note_on,60,32,0
2,note_on,60,0,120
2,note_on,67,30,0
2,note_on,67,0,120
2,note_on,64,32,0
2,note_on,64,0,120
2,note_on,67,31,0
2,note_on,67,0,120
2,note_on,58,32,0
2,note_on,58,0,120
2,note_on,65,30,0
2,note_on,65,0,120
2,note_on,62,32,0
2,note_on,62,0,120
2,note_on,65,30,0
2,note_on,65,0,120
2,note_on,57,32,0
2,note_on,57,0,120
2,note_on,65,30,0
2,note_on,65,0,120
2,note_on,60,32,0
2,note_on,60,0,120
2,note_on,65,30,0
2,note_on,65,0,120
2,note_on,53,40,0
2,note_on,53,0,120
2,note_on,62,34,0
2,note_on,62,0,120
2,note_on,57,40,0
2,note_on,57,0,120
2,note_on,62,33,0
2,note_on,62,0,120
2,note_on,55,39,0
2,note_on,55,0,120
2,note_on,64,34,0
2,note_on,64,0,120
2,note_on,60,39,0
2,note_on,60,0,120
2,note_on,64,34,0
2,note_on,64,0,120
2,note_on,55,39,0
2,note_on,55,0,120
2,note_on,65,34,0
2,note_on,65,0,120
2,note_on,59,38,0
2,note_on,59,0,120
2,note_on,65,33,0
2,note_on,65,0,120
2,note_on,48,40,0
2,note_on,48,0,120
2,note_on,55,35,0
2,note_on,55,0,120
2,note_on,52,40,0
2,note_on,52,0,120
2,note_on,55,34,0
2,note_on,55,0,120
2,note_on,48,32,0
2,note_on,48,0,120
2,note_on,57,30,0
2,note_on,57,0,120
2,note_on,53,32,0
2,note_on,53,0,120
2,note_on,57,30,0
2,note_on,57,0,120
2,note_on,48,32,0
2,note_on,48,0,120
2,note_on,55,30,0
2,note_on,55,0,120
2,note_on,52,32,0
2,note_on,52,0,120
2,note_on,55,30,0
2,note_on,55,0,120
2,note_on,46,32,0
2,note_on,46,0,120
2,note_on,53,29,0
2,note_on,53,0,120
2,note_on,50,32,0
2,note_on,50,0,120
2,note_on,53,29,0
2,note_on,53,0,120
2,note_on,45,34,0
2,note_on,45,0,120
2,note_on,53,30,0
2,note_on,53,0,120
2,note_on,48,33,0
2,note_on,48,0,120
2,note_on,53,29,0
2,note_on,53,0,120
2,note_on,41,41,0
2,note_on,41,0,120
2,note_on,50,38,0
2,note_on,50,0,120
2,note_on,45,40,0
2,note_on,45,0,120
2,note_on,50,37,0
2,note_on,50,0,120
2,note_on,43,40,0
2,note_on,43,0,120
2,note_on,52,37,0
2,note_on,52,0,120
2,note_on,48,39,0
2,note_on,48,0,120
2,note_on,52,32,0
2,note_on,52,0,120
2,note_on,43,38,0
2,note_on,43,0,120
2,note_on,53,33,0
2,note_on,53,0,120
2,note_on,50,38,0
2,note_on,50,0,120
2,note_on,53,32,0
2,note_on,53,0,120
2,note_on,48,38,240
2,note_on,52,38,0
2,note_on,52,0,240
2,note_on,48,0,0
2,note_on,50,44,0
2,note_on,53,44,0
2,note_on,53,0,240
2,note_on,50,0,0
2,note_on,55,49,0
2,note_on,52,49,0
2,note_on,52,0,240
2,note_on,55,0,0
2,note_on,43,37,240
2,note_on,47,37,0
2,note_on,47,0,240
2,note_on,43,0,0
2,note_on,45,40,0
2,note_on,48,40,0
2,note_on,48,0,240
2,note_on,45,0,0
2,note_on,47,44,0
2,note_on,50,44,0
2,note_on,50,0,240
2,note_on,47,0,0
2,note_on,48,38,240
2,note_on,52,38,0
2,note_on,52,0,240
2,note_on,48,0,0
2,note_on,50,44,0
2,note_on,53,44,0
2,note_on,53,0,240
2,note_on,50,0,0
2,note_on,55,49,0
2,note_on,52,49,0
2,note_on,52,0,240
2,note_on,55,0,0
2,note_on,43,37,240
2,note_on,47,37,0
2,note_on,47,0,240
2,note_on,43,0,0
2,note_on,45,40,0
2,note_on,48,40,0
2,note_on,48,0,240
2,note_on,45,0,0
2,note_on,47,44,0
2,note_on,50,44,0
2,note_on,50,0,240
2,note_on,47,0,0
2,note_on,48,44,0
2,note_on,48,0,480
2,note_on,55,44,480
2,note_on,60,44,0
2,note_on,52,44,0
2,note_on,55,0,720
2,note_on,58,44,0
2,note_on,58,0,240
2,note_on,52,0,0
2,note_on,53,38,0
2,note_on,53,0,480
2,note_on,60,0,0
2,note_on,54,37,720
2,note_on,63,37,0
2,note_on,63,0,240
2,note_on,54,0,0
2,note_on,55,40,0
2,note_on,64,40,0
2,note_on,64,0,240
2,note_on,55,0,0
2,note_on,65,44,0
2,note_on,65,0,240
2,note_on,64,44,0
2,note_on,60,44,0
2,note_on,60,0,480
2,note_on,64,0,0
2,note_on,55,44,480
2,note_on,60,44,0
2,note_on,52,44,0
2,note_on,55,0,720
2,note_on,58,44,0
2,note_on,58,0,240
2,note_on,52,0,0
2,note_on,57,38,0
2,note_on,53,38,0
2,note_on,53,0,480
2,note_on,57,0,0
2,note_on,60,0,0
2,note_on,54,41,480
2,note_on,63,41,0
2,note_on,63,0,480
2,note_on,54,0,0
2,note_on,55,48,480
2,note_on,55,0,120
2,note_on,64,39,0
2,note_on,64,0,120
2,note_on,60,41,0
2,note_on,60,0,120
2,note_on,64,39,0
2,note_on,64,0,120
2,note_on,55,48,0
2,note_on,55,0,120
2,note_on,64,38,0
2,note_on,64,0,120
2,note_on,60,41,0
2,note_on,60,0,120
2,note_on,64,39,0
2,note_on,64,0,120
2,note_on,55,43,0
2,note_on,55,0,120
2,note_on,67,36,0
2,note_on,67,0,120
2,note_on,60,38,0
2,note_on,60,0,120
2,note_on,67,35,0
2,note_on,67,0,120
2,note_on,55,39,0
2,note_on,55,0,120
2,note_on,65,30,0
2,note_on,65,0,120
2,note_on,59,32,0
2,note_on,59,0,120
2,note_on,65,30,0
2,note_on,65,0,120
2,note_on,48,35,0
2,note_on,48,0,120
2,note_on,52,30,0
2,note_on,52,0,120
2,note_on,60,32,0
2,note_on,60,0,120
2,note_on,52,30,0
2,note_on,52,0,120
2,note_on,48,35,0
2,note_on,48,0,120
2,note_on,52,30,0
2,note_on,52,0,120
2,note_on,60,32,0
2,note_on,60,0,120
2,note_on,52,30,0
2,note_on,52,0,120
2,note_on,48,35,0
2,note_on,48,0,120
2,note_on,50,30,0
2,note_on,50,0,120
2,note_on,59,32,0
2,note_on,59,0,120
2,note_on,50,30,0
2,note_on,50,0,120
2,note_on,48,35,0
2,note_on,48,0,120
2,note_on,53,30,0
2,note_on,53,0,120
2,note_on,59,32,0
2,note_on,59,0,120
2,note_on,53,30,0
2,note_on,53,0,120
2,note_on,48,35,0
2,note_on,48,0,120
2,note_on,52,30,0
2,note_on,52,0,120
2,note_on,60,32,0
2,note_on,60,0,120
2,note_on,52,30,0
2,note_on,52,0,120
2,note_on,48,35,0
2,note_on,48,0,120
2,note_on,52,30,0
2,note_on,52,0,120
2,note_on,60,32,0
2,note_on,60,0,120
2,note_on,52,30,0
2,note_on,52,0,120
2,note_on,48,35,0
2,note_on,48,0,120
2,note_on,50,30,0
2,note_on,50,0,120
2,note_on,59,32,0
2,note_on,59,0,120
2,note_on,50,30,0
2,note_on,50,0,120
2,note_on,48,35,0
2,note_on,48,0,120
2,note_on,53,30,0
2,note_on,53,0,120
2,note_on,59,32,0
2,note_on,59,0,120
2,note_on,53,30,0
2,note_on,53,0,120
2,note_on,48,35,0
2,note_on,48,0,120
2,note_on,52,30,0
2,note_on,52,0,120
2,note_on,60,32,0
2,note_on,60,0,120
2,note_on,52,30,0
2,note_on,52,0,120
2,note_on,48,35,0
2,note_on,48,0,120
2,note_on,53,30,0
2,note_on,53,0,120
2,note_on,59,32,0
2,note_on,59,0,120
2,note_on,53,30,0
2,note_on,53,0,120
2,note_on,48,35,0
2,note_on,48,0,120
2,note_on,52,30,0
2,note_on,52,0,120
2,note_on,60,32,0
2,note_on,60,0,120
2,note_on,52,30,0
2,note_on,52,0,120
2,note_on,48,35,0
2,note_on,48,0,120
2,note_on,53,30,0
2,note_on,53,0,120
2,note_on,59,32,0
2,note_on,59,0,120
2,note_on,53,30,0
2,note_on,53,0,120
2,note_on,48,35,0
2,note_on,48,0,120
2,note_on,52,30,0
2,note_on,52,0,120
2,note_on,60,32,0
2,note_on,60,0,120
2,note_on,52,31,0
2,note_on,52,0,120
2,note_on,48,41,0
2,note_on,48,0,120
2,note_on,53,35,0
2,note_on,53,0,120
2,note_on,59,35,0
2,note_on,59,0,120
2,note_on,53,32,0
2,note_on,53,0,120
2,note_on,48,35,0
2,note_on,48,0,120
2,note_on,52,30,0
2,note_on,52,0,120
2,note_on,60,32,0
2,note_on,60,0,120
2,note_on,52,30,0
2,note_on,52,0,120
2,note_on,48,41,0
2,note_on,48,0,120
2,note_on,53,35,0
2,note_on,53,0,120
2,note_on,59,32,0
2,note_on,59,0,120
2,note_on,53,30,0
2,note_on,53,0,120
2,note_on,48,35,0
2,note_on,52,35,0
2,note_on,52,0,480
2,note_on,48,0,0
2,note_on,56,33,240
2,note_on,56,0,60
2,note_on,57,33,180
2,note_on,57,0,720
2,note_on,41,52,240
2,note_on,53,61,0
2,note_on,53,0,120
2,note_on,41,0,0
2,note_on,43,52,360
2,note_on,55,61,0
2,note_on,55,0,120
2,note_on,43,0,0
2,note_on,36,49,360
2,note_on,40,49,0
2,note_on,43,49,0
2,note_on,48,59,0
2,note_on,48,0,120
2,note_on,36,0,0
2,note_on,40,0,0
2,note_on,43,0,0
