Track,Message Type,Note,Velocity,Time
1,note_on,65,50,0
1,note_on,65,0,960
1,note_on,69,47,0
1,note_on,69,0,480
1,note_on,72,52,0
1,note_on,72,0,960
1,note_on,69,46,0
1,note_on,69,0,480
1,note_on,70,50,0
1,note_on,70,0,960
1,note_on,79,47,0
1,note_on,79,0,480
1,note_on,77,47,0
1,note_on,77,0,240
1,note_on,76,44,0
1,note_on,76,0,240
1,note_on,76,44,0
1,note_on,76,0,480
1,note_on,77,50,480
1,note_on,77,0,480
1,note_on,69,46,0
1,note_on,69,0,480
1,note_on,74,46,0
1,note_on,74,0,480
1,note_on,67,50,0
1,note_on,67,0,480
1,note_on,72,54,0
1,note_on,72,0,720
1,note_on,69,45,0
1,note_on,69,0,240
1,note_on,65,50,0
1,note_on,67,50,1440
1,note_on,65,0,480
1,note_on,64,42,0
1,note_on,64,0,60
1,note_on,65,37,0
1,note_on,65,0,60
1,note_on,64,48,0
1,note_on,64,0,120
1,note_on,62,48,0
1,note_on,62,0,240
1,note_on,64,50,0
1,note_on,64,0,480
1,note_on,67,0,0
1,note_on,69,48,0
1,note_on,65,48,0
1,note_on,69,0,480
1,note_on,70,52,0
1,note_on,70,0,480
1,note_on,74,55,0
1,note_on,74,0,480
1,note_on,74,58,0
1,note_on,74,0,240
1,note_on,72,57,0
1,note_on,72,0,240
1,note_on,65,0,0
1,note_on,70,56,0
1,note_on,70,0,240
1,note_on,69,54,0
1,note_on,69,0,240
1,note_on,67,53,0
1,note_on,67,0,240
1,note_on,65,51,0
1,note_on,65,0,240
1,note_on,67,54,0
1,note_on,67,0,480
1,note_on,70,50,0
1,note_on,70,0,120
1,note_on,58,54,360
1,note_on,64,54,0
1,note_on,64,0,480
1,note_on,58,0,0
1,note_on,65,56,0
1,note_on,57,56,0
1,note_on,57,0,480
1,note_on,65,0,0
1,note_on,84,50,480
1,note_on,84,0,360
1,note_on,82,44,0
1,note_on,82,0,120
1,note_on,81,50,0
1,note_on,81,0,120
1,note_on,81,50,360
1,note_on,81,0,120
1,note_on,81,47,360
1,note_on,81,0,360
1,note_on,79,42,0
1,note_on,79,0,120
1,note_on,77,48,0
1,note_on,77,0,120
1,note_on,77,44,360
1,note_on,77,0,120
1,note_on,77,44,360
1,note_on,77,0,480
1,note_on,76,46,0
1,note_on,79,46,0
1,note_on,79,0,120
1,note_on,76,0,0
1,note_on,76,44,360
1,note_on,79,44,0
1,note_on,79,0,120
1,note_on,76,0,0
1,note_on,79,44,360
1,note_on,76,44,0
1,note_on,76,0,120
1,note_on,79,0,0
1,note_on,76,50,360
1,note_on,79,50,0
1,note_on,79,0,480
1,note_on,76,0,0
1,note_on,81,44,0
1,note_on,77,44,0
1,note_on,77,0,480
1,note_on,81,0,0
1,note_on,84,50,0
1,note_on,84,0,120
1,note_on,86,44,0
1,note_on,86,0,120
1,note_on,84,44,0
1,note_on,84,0,120
1,note_on,82,44,0
1,note_on,82,0,120
1,note_on,81,50,0
1,note_on,81,0,120
1,note_on,81,50,360
1,note_on,81,0,120
1,note_on,81,47,360
1,note_on,81,0,120
1,note_on,82,42,0
1,note_on,82,0,120
1,note_on,81,42,0
1,note_on,81,0,120
1,note_on,79,42,0
1,note_on,79,0,120
1,note_on,77,48,0
1,note_on,77,0,120
1,note_on,77,44,360
1,note_on,77,0,120
1,note_on,77,44,360
1,note_on,77,0,120
1,note_on,79,49,360
1,note_on,79,0,480
1,note_on,82,44,0
1,note_on,82,0,120
1,note_on,76,44,360
1,note_on,70,35,0
1,note_on,70,0,480
1,note_on,76,0,0
1,note_on,69,38,0
1,note_on,77,48,0
1,note_on,77,0,480
1,note_on,69,0,0
1,note_on,84,44,480
1,note_on,84,0,480
1,note_on,77,48,0
1,note_on,77,0,480
1,note_on,72,39,480
1,note_on,72,0,480
1,note_on,65,43,0
1,note_on,65,0,480
1,note_on,61,80,480
1,note_on,61,0,480
1,note_on,62,85,0
1,note_on,62,0,720
1,note_on,65,78,0
1,note_on,65,0,120
1,note_on,69,81,0
1,note_on,69,0,120
1,note_on,74,84,0
1,note_on,74,0,120
1,note_on,69,79,120
1,note_on,69,0,120
1,note_on,74,82,0
1,note_on,74,0,120
1,note_on,77,86,0
1,note_on,77,0,120
1,note_on,74,79,120
1,note_on,74,0,120
1,note_on,77,82,0
1,note_on,77,0,120
1,note_on,81,87,0
1,note_on,81,0,120
1,note_on,81,80,120
1,note_on,81,0,240
1,note_on,77,80,0
1,note_on,77,0,240
1,note_on,74,80,0
1,note_on,74,0,120
1,note_on,73,70,0
1,note_on,73,0,40
1,note_on,76,70,0
1,note_on,76,0,40
1,note_on,79,70,0
1,note_on,79,0,40
1,note_on,82,90,0
1,note_on,82,0,720
1,note_on,81,71,0
1,note_on,79,68,120
1,note_on,81,0,12
1,note_on,77,68,108
1,note_on,79,0,12
1,note_on,76,68,108
1,note_on,77,0,12
1,note_on,74,69,108
1,note_on,76,0,12
1,note_on,73,72,108
1,note_on,74,0,12
1,note_on,82,90,108
1,note_on,73,0,12
1,note_on,82,0,708
1,note_on,81,71,0
1,note_on,79,68,120
1,note_on,81,0,12
1,note_on,77,68,108
1,note_on,79,0,12
1,note_on,76,68,108
1,note_on,77,0,12
1,note_on,74,69,108
1,note_on,76,0,12
1,note_on,73,72,108
1,note_on,74,0,12
1,note_on,74,88,108
1,note_on,73,0,12
1,note_on,74,0,708
1,note_on,65,70,0
1,note_on,65,0,120
1,note_on,69,72,0
1,note_on,69,0,120
1,note_on,74,84,0
1,note_on,74,0,120
1,note_on,69,71,120
1,note_on,69,0,120
1,note_on,74,73,0
1,note_on,74,0,120
1,note_on,77,86,0
1,note_on,77,0,120
1,note_on,74,71,120
1,note_on,74,0,120
1,note_on,77,73,0
1,note_on,77,0,120
1,note_on,81,87,0
1,note_on,81,0,120
1,note_on,81,80,120
1,note_on,81,0,240
1,note_on,77,80,0
1,note_on,77,0,240
1,note_on,74,80,0
1,note_on,74,0,240
1,note_on,74,75,0
1,note_on,80,90,0
1,note_on,77,75,0
1,note_on,71,75,0
1,note_on,71,0,720
1,note_on,74,0,0
1,note_on,80,0,0
1,note_on,77,0,0
1,note_on,79,71,0
1,note_on,77,68,120
1,note_on,79,0,12
1,note_on,75,68,108
1,note_on,77,0,12
1,note_on,74,68,108
1,note_on,75,0,12
1,note_on,72,69,108
1,note_on,74,0,12
1,note_on,71,72,108
1,note_on,72,0,12
1,note_on,80,90,108
1,note_on,71,0,12
1,note_on,80,0,708
1,note_on,79,71,0
1,note_on,77,68,120
1,note_on,79,0,12
1,note_on,75,68,108
1,note_on,77,0,12
1,note_on,74,68,108
1,note_on,75,0,12
1,note_on,72,69,108
1,note_on,74,0,12
1,note_on,71,72,108
1,note_on,72,0,12
1,note_on,72,88,108
1,note_on,71,0,12
1,note_on,72,0,588
1,note_on,67,69,0
1,note_on,67,0,120
1,note_on,72,74,0
1,note_on,72,0,120
1,note_on,67,70,0
1,note_on,67,0,120
1,note_on,75,74,0
1,note_on,75,0,120
1,note_on,72,71,0
1,note_on,72,0,120
1,note_on,75,75,0
1,note_on,75,0,120
1,note_on,72,70,0
1,note_on,72,0,120
1,note_on,79,74,0
1,note_on,79,0,120
1,note_on,75,71,0
1,note_on,75,0,120
1,note_on,79,74,0
1,note_on,79,0,120
1,note_on,75,71,0
1,note_on,75,0,120
1,note_on,84,91,0
1,note_on,84,0,240
1,note_on,72,88,720
1,note_on,72,0,600
1,note_on,68,69,0
1,note_on,68,0,120
1,note_on,72,74,0
1,note_on,72,0,120
1,note_on,68,70,0
1,note_on,68,0,120
1,note_on,75,74,0
1,note_on,75,0,120
1,note_on,72,71,0
1,note_on,72,0,120
1,note_on,75,75,0
1,note_on,75,0,120
1,note_on,72,70,0
1,note_on,72,0,120
1,note_on,80,74,0
1,note_on,80,0,120
1,note_on,75,71,0
1,note_on,75,0,120
1,note_on,80,74,0
1,note_on,80,0,120
1,note_on,75,71,0
1,note_on,75,0,120
1,note_on,84,91,0
1,note_on,84,0,240
1,note_on,72,88,720
1,note_on,72,0,600
1,note_on,66,69,0
1,note_on,66,0,120
1,note_on,72,74,0
1,note_on,72,0,120
1,note_on,66,70,0
1,note_on,66,0,120
1,note_on,75,74,0
1,note_on,75,0,120
1,note_on,72,71,0
1,note_on,72,0,120
1,note_on,75,75,0
1,note_on,75,0,120
1,note_on,72,70,0
1,note_on,72,0,120
1,note_on,78,74,0
1,note_on,78,0,120
1,note_on,75,71,0
1,note_on,75,0,120
1,note_on,78,74,0
1,note_on,78,0,120
1,note_on,75,71,0
1,note_on,75,0,120
1,note_on,84,91,0
1,note_on,84,0,480
1,note_on,78,81,0
1,note_on,78,0,360
1,note_on,67,70,0
1,note_on,67,0,40
1,note_on,71,70,0
1,note_on,71,0,40
1,note_on,74,70,0
1,note_on,74,0,40
1,note_on,79,90,0
1,note_on,79,0,960
1,note_on,77,72,0
1,note_on,75,72,120
1,note_on,77,0,10
1,note_on,74,73,110
1,note_on,75,0,10
1,note_on,72,76,110
1,note_on,74,0,10
1,note_on,72,0,110
1,note_on,79,90,0
1,note_on,79,0,960
1,note_on,77,72,0
1,note_on,75,72,120
1,note_on,77,0,10
1,note_on,74,73,110
1,note_on,75,0,10
1,note_on,72,76,110
1,note_on,74,0,10
1,note_on,72,0,110
1,note_on,79,90,0
1,note_on,79,0,720
1,note_on,80,79,0
1,note_on,79,78,120
1,note_on,80,0,10
1,note_on,77,76,110
1,note_on,79,0,10
1,note_on,75,75,110
1,note_on,77,0,10
1,note_on,74,74,110
1,note_on,75,0,10
1,note_on,72,72,110
1,note_on,74,0,10
1,note_on,79,79,110
1,note_on,72,0,10
1,note_on,79,0,110
1,note_on,67,72,360
1,note_on,67,0,120
1,note_on,67,41,780
1,note_on,67,0,60
1,note_on,76,45,0
1,note_on,76,0,120
1,note_on,76,43,360
1,note_on,76,0,120
1,note_on,76,43,360
1,note_on,76,0,120
1,note_on,71,42,300
1,note_on,71,0,60
1,note_on,79,45,0
1,note_on,79,0,720
1,note_on,77,41,0
1,note_on,77,0,240
1,note_on,74,41,0
1,note_on,74,0,480
1,note_on,64,45,0
1,note_on,74,45,0
1,note_on,74,0,240
1,note_on,72,41,0
1,note_on,72,0,240
1,note_on,64,0,0
1,note_on,72,45,0
1,note_on,67,45,0
1,note_on,67,0,720
1,note_on,72,0,0
1,note_on,71,45,0
1,note_on,74,45,0
1,note_on,74,0,240
1,note_on,71,0,0
1,note_on,74,49,0
1,note_on,71,49,0
1,note_on,71,0,960
1,note_on,74,0,0
1,note_on,72,45,0
1,note_on,76,45,0
1,note_on,76,0,480
1,note_on,72,0,0
1,note_on,77,45,0
1,note_on,77,0,720
1,note_on,79,46,0
1,note_on,79,0,60
1,note_on,77,42,0
1,note_on,77,0,60
1,note_on,76,42,0
1,note_on,76,0,60
1,note_on,77,45,0
1,note_on,77,0,40
1,note_on,79,49,20
1,note_on,79,0,240
1,note_on,81,47,0
1,note_on,81,0,236
1,note_on,81,55,4
1,note_on,81,0,240
1,note_on,79,49,0
1,note_on,79,0,240
1,note_on,78,52,0
1,note_on,78,0,240
1,note_on,79,45,0
1,note_on,79,0,240
1,note_on,77,50,0
1,note_on,77,0,240
1,note_on,74,45,0
1,note_on,74,0,240
1,note_on,75,49,0
1,note_on,75,0,240
1,note_on,76,45,0
1,note_on,76,0,240
1,note_on,77,50,0
1,note_on,77,0,240
1,note_on,76,45,0
1,note_on,76,0,240
1,note_on,79,49,0
1,note_on,79,0,240
1,note_on,77,45,0
1,note_on,77,0,240
1,note_on,76,52,0
1,note_on,76,0,240
1,note_on,74,45,0
1,note_on,74,0,240
1,note_on,72,48,0
1,note_on,72,0,240
1,note_on,71,45,0
1,note_on,71,0,240
1,note_on,69,46,0
1,note_on,69,0,240
1,note_on,67,45,0
1,note_on,67,0,240
1,note_on,75,49,0
1,note_on,75,0,240
1,note_on,76,42,0
1,note_on,76,0,240
1,note_on,75,49,0
1,note_on,75,0,240
1,note_on,76,41,0
1,note_on,76,0,240
1,note_on,75,52,0
1,note_on,75,0,240
1,note_on,76,48,0
1,note_on,76,0,240
1,note_on,78,58,0
1,note_on,78,0,240
1,note_on,79,53,0
1,note_on,79,0,240
1,note_on,78,58,0
1,note_on,78,0,240
1,note_on,79,46,0
1,note_on,79,0,240
1,note_on,77,46,0
1,note_on,77,0,240
1,note_on,74,37,0
1,note_on,74,0,240
1,note_on,74,45,0
1,note_on,74,0,240
1,note_on,72,41,0
1,note_on,72,0,240
1,note_on,74,45,0
1,note_on,67,41,0
1,note_on,74,0,240
1,note_on,72,41,0
1,note_on,72,0,240
1,note_on,67,0,0
1,note_on,71,41,0
1,note_on,76,45,0
1,note_on,76,0,240
1,note_on,74,45,0
1,note_on,74,0,240
1,note_on,71,0,0
1,note_on,71,49,0
1,note_on,74,49,0
1,note_on,74,0,720
1,note_on,75,49,0
1,note_on,75,0,240
1,note_on,71,0,0
1,note_on,76,45,0
1,note_on,72,45,0
1,note_on,72,0,480
1,note_on,76,0,0
1,note_on,77,45,0
1,note_on,77,0,720
1,note_on,79,46,0
1,note_on,79,0,60
1,note_on,77,42,0
1,note_on,77,0,60
1,note_on,76,42,0
1,note_on,76,0,60
1,note_on,77,45,0
1,note_on,77,0,40
1,note_on,79,49,20
1,note_on,79,0,240
1,note_on,81,47,0
1,note_on,81,0,240
1,note_on,81,55,0
1,note_on,81,0,240
1,note_on,79,49,0
1,note_on,79,0,240
1,note_on,78,52,0
1,note_on,78,0,240
1,note_on,79,45,0
1,note_on,79,0,240
1,note_on,77,50,0
1,note_on,77,0,240
1,note_on,74,45,0
1,note_on,74,0,240
1,note_on,75,49,0
1,note_on,75,0,240
1,note_on,76,45,0
1,note_on,76,0,240
1,note_on,79,50,0
1,note_on,79,0,240
1,note_on,77,45,0
1,note_on,77,0,240
1,note_on,74,49,0
1,note_on,74,0,240
1,note_on,71,45,0
1,note_on,71,0,240
1,note_on,72,52,0
1,note_on,72,0,240
1,note_on,67,34,0
1,note_on,67,0,240
1,note_on,67,34,240
1,note_on,67,0,120
1,note_on,67,34,360
1,note_on,67,0,120
1,note_on,65,34,120
1,note_on,67,40,0
1,note_on,67,0,120
1,note_on,65,0,0
1,note_on,67,33,120
1,note_on,65,28,0
1,note_on,65,0,120
1,note_on,67,0,0
1,note_on,65,28,360
1,note_on,67,33,0
1,note_on,67,0,120
1,note_on,65,0,0
1,note_on,67,33,360
1,note_on,65,28,0
1,note_on,65,0,120
1,note_on,67,0,0
1,note_on,63,34,120
1,note_on,67,40,0
1,note_on,67,0,120
1,note_on,63,0,0
1,note_on,63,28,120
1,note_on,67,34,0
1,note_on,67,0,120
1,note_on,63,0,0
1,note_on,63,28,360
1,note_on,67,34,0
1,note_on,67,0,120
1,note_on,63,0,0
1,note_on,67,34,360
1,note_on,63,28,0
1,note_on,63,0,120
1,note_on,67,0,0
1,note_on,67,40,120
1,note_on,65,34,0
1,note_on,65,0,120
1,note_on,67,0,0
1,note_on,67,33,120
1,note_on,65,28,0
1,note_on,65,0,120
1,note_on,67,0,0
1,note_on,67,33,360
1,note_on,65,28,0
1,note_on,65,0,120
1,note_on,67,0,0
1,note_on,65,28,360
1,note_on,67,33,0
1,note_on,67,0,120
1,note_on,65,0,0
1,note_on,67,63,120
1,note_on,63,63,0
1,note_on,63,0,120
1,note_on,67,0,0
1,note_on,63,50,120
1,note_on,67,50,0
1,note_on,67,0,120
1,note_on,63,0,0
1,note_on,67,33,360
1,note_on,63,33,0
1,note_on,63,0,120
1,note_on,67,0,0
1,note_on,67,33,360
1,note_on,63,33,0
1,note_on,63,0,120
1,note_on,67,0,0
1,note_on,68,63,120
1,note_on,63,63,0
1,note_on,63,0,120
1,note_on,68,0,0
1,note_on,63,50,120
1,note_on,68,50,0
1,note_on,68,0,120
1,note_on,63,0,0
1,note_on,63,33,360
1,note_on,68,33,0
1,note_on,68,0,120
1,note_on,63,0,0
1,note_on,68,33,360
1,note_on,63,33,0
1,note_on,63,0,120
1,note_on,68,0,0
1,note_on,62,63,120
1,note_on,68,63,0
1,note_on,68,0,120
1,note_on,62,0,0
1,note_on,68,50,120
1,note_on,62,50,0
1,note_on,62,0,120
1,note_on,68,0,0
1,note_on,68,33,360
1,note_on,62,33,0
1,note_on,62,0,120
1,note_on,68,0,0
1,note_on,62,33,360
1,note_on,68,33,0
1,note_on,68,0,120
1,note_on,62,0,0
1,note_on,62,63,120
1,note_on,67,63,0
1,note_on,67,0,120
1,note_on,62,0,0
1,note_on,67,50,120
1,note_on,62,50,0
1,note_on,62,0,120
1,note_on,67,0,0
1,note_on,62,33,360
1,note_on,67,33,0
1,note_on,67,0,120
1,note_on,62,0,0
1,note_on,67,33,360
1,note_on,62,33,0
1,note_on,62,0,120
1,note_on,67,0,0
1,note_on,60,63,120
1,note_on,67,63,0
1,note_on,67,0,120
1,note_on,60,0,0
1,note_on,60,50,120
1,note_on,67,50,0
1,note_on,67,0,120
1,note_on,60,0,0
1,note_on,60,33,360
1,note_on,67,33,0
1,note_on,67,0,120
1,note_on,60,0,0
1,note_on,60,63,120
1,note_on,65,63,0
1,note_on,65,0,120
1,note_on,60,0,0
1,note_on,65,50,120
1,note_on,60,50,0
1,note_on,60,0,120
1,note_on,65,0,0
1,note_on,60,33,360
1,note_on,65,33,0
1,note_on,65,0,120
1,note_on,60,0,0
1,note_on,65,63,120
1,note_on,59,63,0
1,note_on,59,0,120
1,note_on,65,0,0
1,note_on,59,50,120
1,note_on,65,50,0
1,note_on,65,0,120
1,note_on,59,0,0
1,note_on,59,33,360
1,note_on,65,33,0
1,note_on,65,0,120
1,note_on,59,0,0
1,note_on,63,33,360
1,note_on,60,33,0
1,note_on,60,0,120
1,note_on,63,0,0
1,note_on,63,33,360
1,note_on,60,33,0
1,note_on,60,0,120
1,note_on,63,0,0
1,note_on,60,33,360
1,note_on,63,33,0
1,note_on,63,0,120
1,note_on,60,0,0
1,note_on,59,32,120
1,note_on,62,38,0
1,note_on,62,0,240
1,note_on,59,0,0
1,note_on,63,31,0
1,note_on,67,37,0
1,note_on,65,33,240
1,note_on,62,28,0
1,note_on,67,0,10
1,note_on,63,0,0
1,note_on,60,26,230
1,note_on,63,31,0
1,note_on,65,0,10
1,note_on,62,0,0
1,note_on,59,28,230
1,note_on,62,33,0
1,note_on,60,0,10
1,note_on,63,0,0
1,note_on,63,30,230
1,note_on,60,25,0
1,note_on,59,0,10
1,note_on,62,0,0
1,note_on,59,32,230
1,note_on,62,38,0
1,note_on,63,0,10
1,note_on,60,0,0
1,note_on,59,0,230
1,note_on,62,0,0
1,note_on,67,37,0
1,note_on,63,31,0
1,note_on,62,28,240
1,note_on,65,33,0
1,note_on,63,0,10
1,note_on,67,0,0
1,note_on,60,26,230
1,note_on,63,31,0
1,note_on,62,0,10
1,note_on,65,0,0
1,note_on,62,33,230
1,note_on,59,28,0
1,note_on,60,0,10
1,note_on,63,0,0
1,note_on,60,25,230
1,note_on,63,30,0
1,note_on,62,0,10
1,note_on,59,0,0
1,note_on,62,37,230
1,note_on,59,31,0
1,note_on,60,0,10
1,note_on,63,0,0
1,note_on,63,32,230
1,note_on,60,27,0
1,note_on,62,0,10
1,note_on,59,0,0
1,note_on,59,31,230
1,note_on,62,37,0
1,note_on,63,0,10
1,note_on,60,0,0
1,note_on,60,28,230
1,note_on,63,34,0
1,note_on,59,0,10
1,note_on,62,0,0
1,note_on,62,37,230
1,note_on,59,31,0
1,note_on,60,0,10
1,note_on,63,0,0
1,note_on,63,34,230
1,note_on,60,28,0
1,note_on,62,0,10
1,note_on,59,0,0
1,note_on,59,31,230
1,note_on,62,37,0
1,note_on,63,0,10
1,note_on,60,0,0
1,note_on,59,0,230
1,note_on,62,0,0
1,note_on,61,33,0
1,note_on,58,33,0
1,note_on,59,35,240
1,note_on,62,35,0
1,note_on,58,0,10
1,note_on,61,0,0
1,note_on,64,36,230
1,note_on,61,36,0
1,note_on,59,0,10
1,note_on,62,0,0
1,note_on,65,38,230
1,note_on,62,38,0
1,note_on,64,0,10
1,note_on,61,0,0
1,note_on,67,40,230
1,note_on,64,40,0
1,note_on,65,0,10
1,note_on,62,0,0
1,note_on,69,42,230
1,note_on,65,35,0
1,note_on,67,0,10
1,note_on,64,0,0
1,note_on,69,0,470
1,note_on,65,0,0
1,note_on,60,34,0
1,note_on,65,34,0
1,note_on,69,40,0
1,note_on,69,0,480
1,note_on,65,0,0
1,note_on,60,0,0
1,note_on,65,34,0
1,note_on,69,40,0
1,note_on,60,34,0
1,note_on,60,0,480
1,note_on,69,0,0
1,note_on,65,0,0
1,note_on,69,42,0
1,note_on,60,35,0
1,note_on,65,35,0
1,note_on,65,0,960
1,note_on,69,0,0
1,note_on,64,28,0
1,note_on,67,34,0
1,note_on,67,0,480
1,note_on,64,0,0
1,note_on,60,0,0
1,note_on,59,35,0
1,note_on,62,35,0
1,note_on,67,42,0
1,note_on,67,0,240
1,note_on,65,38,0
1,note_on,65,0,240
1,note_on,62,0,0
1,note_on,59,0,0
1,note_on,65,42,0
1,note_on,59,35,0
1,note_on,62,35,0
1,note_on,62,0,480
1,note_on,59,0,0
1,note_on,65,0,0
1,note_on,65,38,0
1,note_on,62,32,0
1,note_on,59,32,0
1,note_on,59,0,480
1,note_on,62,0,0
1,note_on,65,0,0
1,note_on,59,35,0
1,note_on,62,35,0
1,note_on,65,42,0
1,note_on,65,0,960
1,note_on,62,0,0
1,note_on,59,0,0
1,note_on,64,39,0
1,note_on,60,33,0
1,note_on,60,0,480
1,note_on,64,0,0
1,note_on,67,42,0
1,note_on,64,35,0
1,note_on,64,0,240
1,note_on,67,0,0
1,note_on,65,37,0
1,note_on,62,31,0
1,note_on,62,0,240
1,note_on,65,0,0
1,note_on,60,35,0
1,note_on,64,42,0
1,note_on,64,0,480
1,note_on,60,0,0
1,note_on,59,30,0
1,note_on,62,36,0
1,note_on,62,0,480
1,note_on,59,0,0
1,note_on,60,35,0
1,note_on,64,42,0
1,note_on,64,0,240
1,note_on,60,0,0
1,note_on,72,35,0
1,note_on,72,0,220
1,note_on,74,37,20
1,note_on,74,0,220
1,note_on,76,38,20
1,note_on,76,0,220
1,note_on,77,40,20
1,note_on,77,0,220
1,note_on,79,41,20
1,note_on,79,0,220
1,note_on,81,46,20
1,note_on,81,0,480
1,note_on,81,44,0
1,note_on,81,0,480
1,note_on,81,44,0
1,note_on,81,0,480
1,note_on,81,46,0
1,note_on,81,0,720
1,note_on,83,39,0
1,note_on,83,0,120
1,note_on,81,39,0
1,note_on,81,0,120
1,note_on,79,46,0
1,note_on,79,0,480
1,note_on,79,46,0
1,note_on,71,35,0
1,note_on,79,0,240
1,note_on,77,41,0
1,note_on,77,0,240
1,note_on,71,0,0
1,note_on,71,35,0
1,note_on,77,46,0
1,note_on,77,0,480
1,note_on,71,0,0
1,note_on,77,41,0
1,note_on,71,32,0
1,note_on,71,0,480
1,note_on,77,0,0
1,note_on,71,35,0
1,note_on,77,46,0
1,note_on,77,0,960
1,note_on,71,0,0
1,note_on,76,42,0
1,note_on,72,33,0
1,note_on,72,0,480
1,note_on,76,0,0
1,note_on,79,46,0
1,note_on,76,35,0
1,note_on,76,0,240
1,note_on,79,0,0
1,note_on,77,40,0
1,note_on,74,31,0
1,note_on,74,0,240
1,note_on,77,0,0
1,note_on,76,46,0
1,note_on,72,35,0
1,note_on,72,0,480
1,note_on,76,0,0
1,note_on,71,30,0
1,note_on,74,39,0
1,note_on,74,0,480
1,note_on,71,0,0
1,note_on,79,63,0
1,note_on,76,63,0
1,note_on,76,0,120
1,note_on,79,0,0
1,note_on,79,50,120
1,note_on,76,50,0
1,note_on,76,0,120
1,note_on,79,0,0
1,note_on,74,33,360
1,note_on,77,33,0
1,note_on,77,0,120
1,note_on,74,0,0
1,note_on,72,33,360
1,note_on,76,33,0
1,note_on,76,0,120
1,note_on,72,0,0
1,note_on,74,33,360
1,note_on,65,33,0
1,note_on,65,0,120
1,note_on,74,0,0
1,note_on,72,33,360
1,note_on,64,33,0
1,note_on,64,0,120
1,note_on,72,0,0
1,note_on,62,33,360
1,note_on,71,33,0
1,note_on,71,0,120
1,note_on,62,0,0
1,note_on,76,72,240
1,note_on,76,0,120
1,note_on,79,75,0
1,note_on,79,0,120
1,note_on,76,72,0
1,note_on,76,0,120
1,note_on,74,70,120
1,note_on,74,0,120
1,note_on,77,75,0
1,note_on,77,0,120
1,note_on,74,70,0
1,note_on,74,0,120
1,note_on,72,72,120
1,note_on,72,0,120
1,note_on,76,75,0
1,note_on,76,0,120
1,note_on,72,71,0
1,note_on,72,0,120
1,note_on,65,71,120
1,note_on,65,0,120
1,note_on,74,75,0
1,note_on,74,0,120
1,note_on,65,71,0
1,note_on,65,0,120
1,note_on,64,71,120
1,note_on,64,0,120
1,note_on,72,75,0
1,note_on,72,0,120
1,note_on,64,71,0
1,note_on,64,0,120
1,note_on,62,71,120
1,note_on,62,0,120
1,note_on,71,75,0
1,note_on,71,0,120
1,note_on,62,71,0
1,note_on,62,0,120
1,note_on,64,75,0
1,note_on,67,75,0
1,note_on,72,75,0
1,note_on,72,0,480
1,note_on,67,0,0
1,note_on,64,0,0
1,note_on,76,70,480
1,note_on,76,0,60
1,note_on,77,65,0
1,note_on,77,0,60
1,note_on,76,70,0
1,note_on,76,0,60
1,note_on,77,66,0
1,note_on,77,0,60
1,note_on,76,70,0
1,note_on,76,0,40
1,note_on,77,66,0
1,note_on,77,0,40
1,note_on,76,66,0
1,note_on,76,0,40
1,note_on,74,70,0
1,note_on,74,0,60
1,note_on,72,66,0
1,note_on,72,0,60
1,note_on,79,75,0
1,note_on,79,0,960
1,note_on,83,70,0
1,note_on,83,0,60
1,note_on,84,66,0
1,note_on,84,0,60
1,note_on,83,70,0
1,note_on,83,0,60
1,note_on,84,66,0
1,note_on,84,0,60
1,note_on,83,70,0
1,note_on,83,0,40
1,note_on,84,65,0
1,note_on,84,0,40
1,note_on,83,66,0
1,note_on,83,0,40
1,note_on,81,70,0
1,note_on,81,0,60
1,note_on,79,65,0
1,note_on,79,0,60
1,note_on,84,75,0
1,note_on,84,0,960
1,note_on,76,70,0
1,note_on,77,65,60
1,note_on,76,0,0
1,note_on,77,0,60
1,note_on,76,70,0
1,note_on,76,0,60
1,note_on,77,66,0
1,note_on,77,0,60
1,note_on,76,70,0
1,note_on,76,0,40
1,note_on,77,66,0
1,note_on,77,0,40
1,note_on,76,66,0
1,note_on,76,0,40
1,note_on,74,70,0
1,note_on,74,0,60
1,note_on,72,66,0
1,note_on,72,0,60
1,note_on,79,75,0
1,note_on,79,0,240
1,note_on,79,75,240
1,note_on,79,0,240
1,note_on,83,70,240
1,note_on,83,0,60
1,note_on,84,66,0
1,note_on,84,0,60
1,note_on,83,70,0
1,note_on,83,0,60
1,note_on,84,66,0
1,note_on,84,0,60
1,note_on,83,70,0
1,note_on,83,0,40
1,note_on,84,65,0
1,note_on,84,0,40
1,note_on,83,66,0
1,note_on,83,0,40
1,note_on,81,70,0
1,note_on,81,0,60
1,note_on,79,65,0
1,note_on,79,0,60
1,note_on,84,75,0
1,note_on,84,0,120
1,note_on,88,88,360
1,note_on,88,0,720
1,note_on,80,75,0
1,note_on,80,0,240
1,note_on,81,75,0
1,note_on,81,0,120
1,note_on,84,89,360
1,note_on,84,0,720
1,note_on,76,75,0
1,note_on,76,0,240
1,note_on,77,70,0
1,note_on,77,0,60
1,note_on,79,65,0
1,note_on,79,0,60
1,note_on,77,70,0
1,note_on,77,0,60
1,note_on,79,66,0
1,note_on,79,0,60
1,note_on,77,70,0
1,note_on,77,0,40
1,note_on,79,66,0
1,note_on,79,0,40
1,note_on,77,66,0
1,note_on,77,0,40
1,note_on,76,70,0
1,note_on,76,0,60
1,note_on,74,66,0
1,note_on,74,0,60
1,note_on,79,84,0
1,note_on,79,0,120
1,note_on,79,72,360
1,note_on,74,72,0
1,note_on,83,86,0
1,note_on,83,0,120
1,note_on,74,0,0
1,note_on,79,0,0
1,note_on,84,86,360
1,note_on,76,72,0
1,note_on,79,72,0
1,note_on,79,0,120
1,note_on,76,0,0
1,note_on,84,0,0
1,note_on,60,79,360
1,note_on,60,0,120
1,note_on,65,50,0
1,note_on,65,0,960
1,note_on,69,47,0
1,note_on,69,0,480
1,note_on,72,52,0
1,note_on,72,0,960
1,note_on,69,46,0
1,note_on,69,0,480
1,note_on,70,50,0
1,note_on,70,0,960
1,note_on,79,47,0
1,note_on,79,0,480
1,note_on,77,47,0
1,note_on,77,0,240
1,note_on,76,44,0
1,note_on,76,0,237
1,note_on,76,44,3
1,note_on,76,0,480
1,note_on,77,50,480
1,note_on,77,0,480
1,note_on,69,46,0
1,note_on,69,0,480
1,note_on,74,46,0
1,note_on,74,0,480
1,note_on,67,50,0
1,note_on,67,0,480
1,note_on,72,54,0
1,note_on,72,0,720
1,note_on,69,45,0
1,note_on,69,0,240
1,note_on,65,50,0
1,note_on,67,50,1440
1,note_on,65,0,480
1,note_on,64,42,0
1,note_on,64,0,60
1,note_on,65,37,0
1,note_on,65,0,60
1,note_on,64,48,0
1,note_on,64,0,120
1,note_on,62,48,0
1,note_on,62,0,240
1,note_on,64,50,0
1,note_on,64,0,480
1,note_on,67,0,0
1,note_on,69,48,0
1,note_on,65,48,0
1,note_on,69,0,480
1,note_on,70,52,0
1,note_on,70,0,480
1,note_on,74,55,0
1,note_on,74,0,477
1,note_on,74,58,3
1,note_on,74,0,240
1,note_on,72,57,0
1,note_on,72,0,240
1,note_on,65,0,0
1,note_on,70,56,0
1,note_on,70,0,240
1,note_on,69,54,0
1,note_on,69,0,240
1,note_on,67,53,0
1,note_on,67,0,240
1,note_on,65,51,0
1,note_on,65,0,240
1,note_on,67,54,0
1,note_on,67,0,480
1,note_on,70,50,0
1,note_on,70,0,120
1,note_on,64,54,360
1,note_on,58,54,0
1,note_on,58,0,480
1,note_on,64,0,0
1,note_on,65,56,0
1,note_on,57,56,0
1,note_on,57,0,480
1,note_on,65,0,0
1,note_on,84,50,480
1,note_on,84,0,360
1,note_on,82,44,0
1,note_on,82,0,120
1,note_on,81,50,0
1,note_on,81,0,120
1,note_on,81,50,360
1,note_on,81,0,120
1,note_on,81,47,360
1,note_on,81,0,360
1,note_on,79,42,0
1,note_on,79,0,120
1,note_on,77,48,0
1,note_on,77,0,120
1,note_on,77,44,360
1,note_on,77,0,120
1,note_on,77,44,360
1,note_on,77,0,480
1,note_on,76,46,0
1,note_on,79,46,0
1,note_on,79,0,120
1,note_on,76,0,0
1,note_on,79,44,360
1,note_on,76,44,0
1,note_on,76,0,120
1,note_on,79,0,0
1,note_on,79,44,360
1,note_on,76,44,0
1,note_on,76,0,120
1,note_on,79,0,0
1,note_on,79,50,360
1,note_on,76,50,0
1,note_on,76,0,480
1,note_on,79,0,0
1,note_on,81,44,0
1,note_on,77,44,0
1,note_on,77,0,480
1,note_on,81,0,0
1,note_on,84,50,0
1,note_on,84,0,120
1,note_on,86,44,0
1,note_on,86,0,120
1,note_on,84,44,0
1,note_on,84,0,120
1,note_on,82,44,0
1,note_on,82,0,120
1,note_on,81,50,0
1,note_on,81,0,120
1,note_on,81,50,360
1,note_on,81,0,120
1,note_on,81,47,360
1,note_on,81,0,120
1,note_on,82,42,0
1,note_on,82,0,120
1,note_on,81,42,0
1,note_on,81,0,120
1,note_on,79,42,0
1,note_on,79,0,120
1,note_on,77,48,0
1,note_on,77,0,120
1,note_on,77,44,360
1,note_on,77,0,120
1,note_on,77,44,360
1,note_on,77,0,120
1,note_on,79,49,360
1,note_on,79,0,480
1,note_on,82,44,0
1,note_on,82,0,120
1,note_on,70,35,360
1,note_on,76,44,0
1,note_on,76,0,480
1,note_on,70,0,0
1,note_on,77,48,0
1,note_on,69,38,0
1,note_on,69,0,480
1,note_on,77,0,0
1,note_on,84,44,480
1,note_on,84,0,480
1,note_on,77,48,0
1,note_on,77,0,480
1,note_on,72,39,480
1,note_on,72,0,480
1,note_on,65,43,0
1,note_on,65,0,480
1,note_on,61,80,480
1,note_on,61,0,480
1,note_on,62,85,0
1,note_on,62,0,720
1,note_on,65,70,0
1,note_on,65,0,120
1,note_on,69,72,0
1,note_on,69,0,120
1,note_on,74,84,0
1,note_on,74,0,120
1,note_on,69,71,120
1,note_on,69,0,120
1,note_on,74,73,0
1,note_on,74,0,120
1,note_on,77,86,0
1,note_on,77,0,120
1,note_on,74,71,120
1,note_on,74,0,120
1,note_on,77,73,0
1,note_on,77,0,120
1,note_on,81,87,0
1,note_on,81,0,120
1,note_on,81,80,120
1,note_on,81,0,240
1,note_on,77,80,0
1,note_on,77,0,240
1,note_on,74,80,0
1,note_on,74,0,120
1,note_on,73,70,0
1,note_on,73,0,40
1,note_on,76,70,0
1,note_on,76,0,40
1,note_on,79,70,0
1,note_on,79,0,40
1,note_on,82,90,0
1,note_on,82,0,720
1,note_on,81,71,0
1,note_on,79,68,120
1,note_on,81,0,12
1,note_on,77,68,108
1,note_on,79,0,12
1,note_on,76,68,108
1,note_on,77,0,12
1,note_on,74,69,108
1,note_on,76,0,12
1,note_on,73,72,108
1,note_on,74,0,12
1,note_on,82,90,108
1,note_on,73,0,12
1,note_on,82,0,708
1,note_on,81,71,0
1,note_on,79,68,120
1,note_on,81,0,12
1,note_on,77,68,108
1,note_on,79,0,12
1,note_on,76,68,108
1,note_on,77,0,12
1,note_on,74,69,108
1,note_on,76,0,12
1,note_on,73,72,108
1,note_on,74,0,12
1,note_on,74,88,108
1,note_on,73,0,12
1,note_on,74,0,708
1,note_on,65,70,0
1,note_on,65,0,120
1,note_on,69,72,0
1,note_on,69,0,120
1,note_on,74,84,0
1,note_on,74,0,120
1,note_on,69,71,120
1,note_on,69,0,120
1,note_on,74,73,0
1,note_on,74,0,120
1,note_on,77,86,0
1,note_on,77,0,120
1,note_on,74,71,120
1,note_on,74,0,120
1,note_on,77,73,0
1,note_on,77,0,120
1,note_on,81,87,0
1,note_on,81,0,120
1,note_on,81,80,120
1,note_on,81,0,240
1,note_on,77,80,0
1,note_on,77,0,240
1,note_on,74,80,0
1,note_on,74,0,240
1,note_on,71,75,0
1,note_on,80,90,0
1,note_on,74,75,0
1,note_on,77,75,0
1,note_on,77,0,720
1,note_on,71,0,0
1,note_on,80,0,0
1,note_on,74,0,0
1,note_on,79,71,0
1,note_on,77,68,120
1,note_on,79,0,12
1,note_on,75,68,108
1,note_on,77,0,12
1,note_on,74,68,108
1,note_on,75,0,12
1,note_on,72,69,108
1,note_on,74,0,12
1,note_on,71,72,108
1,note_on,72,0,12
1,note_on,80,90,108
1,note_on,71,0,12
1,note_on,80,0,708
1,note_on,79,71,0
1,note_on,77,68,120
1,note_on,79,0,12
1,note_on,75,68,108
1,note_on,77,0,12
1,note_on,74,68,108
1,note_on,75,0,12
1,note_on,72,69,108
1,note_on,74,0,12
1,note_on,71,72,108
1,note_on,72,0,12
1,note_on,72,88,108
1,note_on,71,0,12
1,note_on,72,0,588
1,note_on,67,69,0
1,note_on,67,0,120
1,note_on,72,74,0
1,note_on,72,0,120
1,note_on,67,70,0
1,note_on,67,0,120
1,note_on,75,74,0
1,note_on,75,0,120
1,note_on,72,71,0
1,note_on,72,0,120
1,note_on,75,75,0
1,note_on,75,0,120
1,note_on,72,70,0
1,note_on,72,0,120
1,note_on,79,74,0
1,note_on,79,0,120
1,note_on,75,71,0
1,note_on,75,0,120
1,note_on,79,74,0
1,note_on,79,0,120
1,note_on,75,71,0
1,note_on,75,0,120
1,note_on,84,91,0
1,note_on,84,0,240
1,note_on,72,88,720
1,note_on,72,0,600
1,note_on,68,69,0
1,note_on,68,0,120
1,note_on,72,74,0
1,note_on,72,0,120
1,note_on,68,70,0
1,note_on,68,0,120
1,note_on,75,74,0
1,note_on,75,0,120
1,note_on,72,71,0
1,note_on,72,0,120
1,note_on,75,75,0
1,note_on,75,0,120
1,note_on,72,70,0
1,note_on,72,0,120
1,note_on,80,74,0
1,note_on,80,0,120
1,note_on,75,71,0
1,note_on,75,0,120
1,note_on,80,74,0
1,note_on,80,0,120
1,note_on,75,71,0
1,note_on,75,0,120
1,note_on,84,91,0
1,note_on,84,0,240
1,note_on,72,88,720
1,note_on,72,0,600
1,note_on,66,69,0
1,note_on,66,0,120
1,note_on,72,74,0
1,note_on,72,0,120
1,note_on,66,70,0
1,note_on,66,0,120
1,note_on,75,74,0
1,note_on,75,0,120
1,note_on,72,71,0
1,note_on,72,0,120
1,note_on,75,75,0
1,note_on,75,0,120
1,note_on,72,70,0
1,note_on,72,0,120
1,note_on,78,74,0
1,note_on,78,0,120
1,note_on,75,71,0
1,note_on,75,0,120
1,note_on,78,74,0
1,note_on,78,0,120
1,note_on,75,71,0
1,note_on,75,0,120
1,note_on,84,91,0
1,note_on,84,0,480
1,note_on,78,81,0
1,note_on,78,0,360
1,note_on,67,70,0
1,note_on,67,0,40
1,note_on,71,70,0
1,note_on,71,0,40
1,note_on,74,70,0
1,note_on,74,0,40
1,note_on,79,90,0
1,note_on,79,0,960
1,note_on,77,72,0
1,note_on,75,72,120
1,note_on,77,0,10
1,note_on,74,73,110
1,note_on,75,0,10
1,note_on,72,76,110
1,note_on,74,0,10
1,note_on,72,0,110
1,note_on,79,90,0
1,note_on,79,0,960
1,note_on,77,72,0
1,note_on,75,72,120
1,note_on,77,0,10
1,note_on,74,73,110
1,note_on,75,0,10
1,note_on,72,76,110
1,note_on,74,0,10
1,note_on,72,0,110
1,note_on,79,90,0
1,note_on,79,0,720
1,note_on,80,79,0
1,note_on,79,78,120
1,note_on,80,0,10
1,note_on,77,76,110
1,note_on,79,0,10
1,note_on,75,75,110
1,note_on,77,0,10
1,note_on,74,74,110
1,note_on,75,0,10
1,note_on,72,72,110
1,note_on,74,0,10
1,note_on,79,79,110
1,note_on,72,0,10
1,note_on,79,0,110
1,note_on,67,72,360
1,note_on,67,0,120
1,note_on,67,41,780
1,note_on,67,0,60
1,note_on,76,45,0
1,note_on,76,0,120
1,note_on,76,43,360
1,note_on,76,0,120
1,note_on,76,43,360
1,note_on,76,0,120
1,note_on,71,42,300
1,note_on,71,0,60
1,note_on,79,45,0
1,note_on,79,0,720
1,note_on,77,41,0
1,note_on,77,0,240
1,note_on,74,41,0
1,note_on,74,0,480
1,note_on,64,45,0
1,note_on,74,45,0
1,note_on,74,0,240
1,note_on,72,41,0
1,note_on,72,0,238
1,note_on,64,0,2
1,note_on,72,45,0
1,note_on,67,45,0
1,note_on,67,0,720
1,note_on,72,0,0
1,note_on,71,45,0
1,note_on,74,45,0
1,note_on,74,0,240
1,note_on,71,0,0
1,note_on,71,49,0
1,note_on,74,49,0
1,note_on,74,0,960
1,note_on,71,0,0
1,note_on,72,45,0
1,note_on,76,45,0
1,note_on,76,0,480
1,note_on,72,0,0
1,note_on,77,45,0
1,note_on,77,0,720
1,note_on,79,46,0
1,note_on,79,0,60
1,note_on,77,42,0
1,note_on,77,0,60
1,note_on,76,42,0
1,note_on,76,0,60
1,note_on,77,45,0
1,note_on,77,0,40
1,note_on,79,49,20
1,note_on,79,0,240
1,note_on,81,47,0
1,note_on,81,0,240
1,note_on,81,55,0
1,note_on,81,0,240
1,note_on,79,49,0
1,note_on,79,0,240
1,note_on,78,52,0
1,note_on,78,0,240
1,note_on,79,45,0
1,note_on,79,0,240
1,note_on,77,50,0
1,note_on,77,0,240
1,note_on,74,45,0
1,note_on,74,0,240
1,note_on,75,49,0
1,note_on,75,0,240
1,note_on,76,45,0
1,note_on,76,0,240
1,note_on,77,50,0
1,note_on,77,0,240
1,note_on,76,45,0
1,note_on,76,0,240
1,note_on,79,49,0
1,note_on,79,0,240
1,note_on,77,45,0
1,note_on,77,0,240
1,note_on,76,52,0
1,note_on,76,0,240
1,note_on,74,45,0
1,note_on,74,0,240
1,note_on,72,48,0
1,note_on,72,0,240
1,note_on,71,45,0
1,note_on,71,0,240
1,note_on,69,46,0
1,note_on,69,0,240
1,note_on,67,45,0
1,note_on,67,0,240
1,note_on,75,49,0
1,note_on,75,0,240
1,note_on,76,42,0
1,note_on,76,0,240
1,note_on,75,49,0
1,note_on,75,0,240
1,note_on,76,41,0
1,note_on,76,0,240
1,note_on,75,52,0
1,note_on,75,0,240
1,note_on,76,48,0
1,note_on,76,0,240
1,note_on,78,58,0
1,note_on,78,0,240
1,note_on,79,53,0
1,note_on,79,0,240
1,note_on,78,58,0
1,note_on,78,0,240
1,note_on,79,46,0
1,note_on,79,0,240
1,note_on,77,46,0
1,note_on,77,0,240
1,note_on,74,37,0
1,note_on,74,0,240
1,note_on,74,45,0
1,note_on,74,0,240
1,note_on,72,41,0
1,note_on,72,0,240
1,note_on,67,41,0
1,note_on,74,45,0
1,note_on,74,0,240
1,note_on,72,41,0
1,note_on,72,0,240
1,note_on,67,0,0
1,note_on,76,45,0
1,note_on,71,41,0
1,note_on,76,0,240
1,note_on,74,45,0
1,note_on,74,0,240
1,note_on,71,0,0
1,note_on,71,49,0
1,note_on,74,49,0
1,note_on,74,0,720
1,note_on,75,49,0
1,note_on,75,0,240
1,note_on,71,0,0
1,note_on,72,45,0
1,note_on,76,45,0
1,note_on,76,0,480
1,note_on,72,0,0
1,note_on,77,45,0
1,note_on,77,0,720
1,note_on,79,46,0
1,note_on,79,0,60
1,note_on,77,42,0
1,note_on,77,0,60
1,note_on,76,42,0
1,note_on,76,0,60
1,note_on,77,45,0
1,note_on,77,0,40
1,note_on,79,49,20
1,note_on,79,0,240
1,note_on,81,47,0
1,note_on,81,0,240
1,note_on,81,55,0
1,note_on,81,0,240
1,note_on,79,49,0
1,note_on,79,0,240
1,note_on,78,52,0
1,note_on,78,0,240
1,note_on,79,45,0
1,note_on,79,0,240
1,note_on,77,50,0
1,note_on,77,0,240
1,note_on,74,45,0
1,note_on,74,0,240
1,note_on,75,49,0
1,note_on,75,0,240
1,note_on,76,45,0
1,note_on,76,0,240
1,note_on,79,50,0
1,note_on,79,0,240
1,note_on,77,45,0
1,note_on,77,0,240
1,note_on,74,49,0
1,note_on,74,0,240
1,note_on,71,45,0
1,note_on,71,0,240
1,note_on,72,52,0
1,note_on,72,0,240
1,note_on,67,34,0
1,note_on,67,0,240
1,note_on,67,34,240
1,note_on,67,0,120
1,note_on,67,34,360
1,note_on,67,0,120
1,note_on,67,40,120
1,note_on,65,34,0
1,note_on,65,0,120
1,note_on,67,0,0
1,note_on,67,33,120
1,note_on,65,28,0
1,note_on,65,0,120
1,note_on,67,0,0
1,note_on,65,28,360
1,note_on,67,33,0
1,note_on,67,0,120
1,note_on,65,0,0
1,note_on,67,33,360
1,note_on,65,28,0
1,note_on,65,0,120
1,note_on,67,0,0
1,note_on,67,40,120
1,note_on,63,34,0
1,note_on,63,0,120
1,note_on,67,0,0
1,note_on,67,34,120
1,note_on,63,28,0
1,note_on,63,0,120
1,note_on,67,0,0
1,note_on,63,28,360
1,note_on,67,34,0
1,note_on,67,0,120
1,note_on,63,0,0
1,note_on,63,28,360
1,note_on,67,34,0
1,note_on,67,0,120
1,note_on,63,0,0
1,note_on,67,40,120
1,note_on,65,34,0
1,note_on,65,0,120
1,note_on,67,0,0
1,note_on,65,28,120
1,note_on,67,33,0
1,note_on,67,0,120
1,note_on,65,0,0
1,note_on,67,33,360
1,note_on,65,28,0
1,note_on,65,0,120
1,note_on,67,0,0
1,note_on,67,33,360
1,note_on,65,28,0
1,note_on,65,0,120
1,note_on,67,0,0
1,note_on,67,63,120
1,note_on,63,63,0
1,note_on,63,0,120
1,note_on,67,0,0
1,note_on,67,50,120
1,note_on,63,50,0
1,note_on,63,0,120
1,note_on,67,0,0
1,note_on,67,33,360
1,note_on,63,33,0
1,note_on,63,0,120
1,note_on,67,0,0
1,note_on,63,33,360
1,note_on,67,33,0
1,note_on,67,0,120
1,note_on,63,0,0
1,note_on,68,63,120
1,note_on,63,63,0
1,note_on,63,0,120
1,note_on,68,0,0
1,note_on,63,50,120
1,note_on,68,50,0
1,note_on,68,0,120
1,note_on,63,0,0
1,note_on,68,33,360
1,note_on,63,33,0
1,note_on,63,0,120
1,note_on,68,0,0
1,note_on,63,33,360
1,note_on,68,33,0
1,note_on,68,0,120
1,note_on,63,0,0
1,note_on,62,63,120
1,note_on,68,63,0
1,note_on,68,0,120
1,note_on,62,0,0
1,note_on,62,50,120
1,note_on,68,50,0
1,note_on,68,0,120
1,note_on,62,0,0
1,note_on,68,33,360
1,note_on,62,33,0
1,note_on,62,0,120
1,note_on,68,0,0
1,note_on,68,33,360
1,note_on,62,33,0
1,note_on,62,0,120
1,note_on,68,0,0
1,note_on,62,63,120
1,note_on,67,63,0
1,note_on,67,0,120
1,note_on,62,0,0
1,note_on,62,50,120
1,note_on,67,50,0
1,note_on,67,0,120
1,note_on,62,0,0
1,note_on,67,33,360
1,note_on,62,33,0
1,note_on,62,0,120
1,note_on,67,0,0
1,note_on,62,33,360
1,note_on,67,33,0
1,note_on,67,0,120
1,note_on,62,0,0
1,note_on,67,63,120
1,note_on,60,63,0
1,note_on,60,0,120
1,note_on,67,0,0
1,note_on,67,50,120
1,note_on,60,50,0
1,note_on,60,0,120
1,note_on,67,0,0
1,note_on,67,33,360
1,note_on,60,33,0
1,note_on,60,0,120
1,note_on,67,0,0
1,note_on,65,63,120
1,note_on,60,63,0
1,note_on,60,0,120
1,note_on,65,0,0
1,note_on,60,50,120
1,note_on,65,50,0
1,note_on,65,0,120
1,note_on,60,0,0
1,note_on,60,33,360
1,note_on,65,33,0
1,note_on,65,0,120
1,note_on,60,0,0
1,note_on,59,63,120
1,note_on,65,63,0
1,note_on,65,0,120
1,note_on,59,0,0
1,note_on,65,50,120
1,note_on,59,50,0
1,note_on,59,0,120
1,note_on,65,0,0
1,note_on,65,33,360
1,note_on,59,33,0
1,note_on,59,0,120
1,note_on,65,0,0
1,note_on,60,33,360
1,note_on,63,33,0
1,note_on,63,0,120
1,note_on,60,0,0
1,note_on,60,33,360
1,note_on,63,33,0
1,note_on,63,0,120
1,note_on,60,0,0
1,note_on,63,33,360
1,note_on,60,33,0
1,note_on,60,0,120
1,note_on,63,0,0
1,note_on,59,32,120
1,note_on,62,38,0
1,note_on,62,0,240
1,note_on,59,0,0
1,note_on,67,37,0
1,note_on,63,31,0
1,note_on,65,33,240
1,note_on,62,28,0
1,note_on,63,0,10
1,note_on,67,0,0
1,note_on,63,31,230
1,note_on,60,26,0
1,note_on,65,0,10
1,note_on,62,0,0
1,note_on,62,33,230
1,note_on,59,28,0
1,note_on,63,0,10
1,note_on,60,0,0
1,note_on,60,25,230
1,note_on,63,30,0
1,note_on,62,0,10
1,note_on,59,0,0
1,note_on,59,32,230
1,note_on,62,38,0
1,note_on,60,0,10
1,note_on,63,0,0
1,note_on,59,0,230
1,note_on,62,0,0
1,note_on,67,37,0
1,note_on,63,31,0
1,note_on,62,28,240
1,note_on,65,33,0
1,note_on,63,0,10
1,note_on,67,0,0
1,note_on,63,31,230
1,note_on,60,26,0
1,note_on,62,0,10
1,note_on,65,0,0
1,note_on,59,28,230
1,note_on,62,33,0
1,note_on,63,0,10
1,note_on,60,0,0
1,note_on,60,25,230
1,note_on,63,30,0
1,note_on,59,0,10
1,note_on,62,0,0
1,note_on,59,31,230
1,note_on,62,37,0
1,note_on,60,0,10
1,note_on,63,0,0
1,note_on,60,27,230
1,note_on,63,32,0
1,note_on,59,0,10
1,note_on,62,0,0
1,note_on,59,31,230
1,note_on,62,37,0
1,note_on,60,0,10
1,note_on,63,0,0
1,note_on,60,28,230
1,note_on,63,34,0
1,note_on,59,0,10
1,note_on,62,0,0
1,note_on,59,31,230
1,note_on,62,37,0
1,note_on,60,0,10
1,note_on,63,0,0
1,note_on,63,34,230
1,note_on,60,28,0
1,note_on,59,0,10
1,note_on,62,0,0
1,note_on,62,37,230
1,note_on,59,31,0
1,note_on,63,0,10
1,note_on,60,0,0
1,note_on,62,0,230
1,note_on,59,0,0
1,note_on,58,33,0
1,note_on,61,33,0
1,note_on,59,35,240
1,note_on,62,35,0
1,note_on,61,0,10
1,note_on,58,0,0
1,note_on,64,36,230
1,note_on,61,36,0
1,note_on,59,0,10
1,note_on,62,0,0
1,note_on,62,38,230
1,note_on,65,38,0
1,note_on,64,0,10
1,note_on,61,0,0
1,note_on,67,40,230
1,note_on,64,40,0
1,note_on,62,0,10
1,note_on,65,0,0
1,note_on,69,42,230
1,note_on,65,35,0
1,note_on,67,0,10
1,note_on,64,0,0
1,note_on,69,0,470
1,note_on,65,0,0
1,note_on,60,34,0
1,note_on,65,34,0
1,note_on,69,40,0
1,note_on,69,0,480
1,note_on,65,0,0
1,note_on,60,0,0
1,note_on,65,34,0
1,note_on,69,40,0
1,note_on,60,34,0
1,note_on,60,0,480
1,note_on,69,0,0
1,note_on,65,0,0
1,note_on,65,35,0
1,note_on,69,42,0
1,note_on,60,35,0
1,note_on,69,0,960
1,note_on,65,0,0
1,note_on,67,34,0
1,note_on,64,28,0
1,note_on,64,0,480
1,note_on,67,0,0
1,note_on,60,0,0
1,note_on,62,35,0
1,note_on,59,35,0
1,note_on,67,42,0
1,note_on,67,0,240
1,note_on,65,38,0
1,note_on,65,0,240
1,note_on,59,0,0
1,note_on,62,0,0
1,note_on,62,35,0
1,note_on,59,35,0
1,note_on,65,42,0
1,note_on,65,0,480
1,note_on,59,0,0
1,note_on,62,0,0
1,note_on,62,32,0
1,note_on,59,32,0
1,note_on,65,38,0
1,note_on,65,0,480
1,note_on,59,0,0
1,note_on,62,0,0
1,note_on,65,42,0
1,note_on,62,35,0
1,note_on,59,35,0
1,note_on,59,0,960
1,note_on,62,0,0
1,note_on,65,0,0
1,note_on,64,39,0
1,note_on,60,33,0
1,note_on,60,0,480
1,note_on,64,0,0
1,note_on,64,35,0
1,note_on,67,42,0
1,note_on,67,0,240
1,note_on,64,0,0
1,note_on,65,37,0
1,note_on,62,31,0
1,note_on,62,0,240
1,note_on,65,0,0
1,note_on,60,35,0
1,note_on,64,42,0
1,note_on,64,0,480
1,note_on,60,0,0
1,note_on,59,30,0
1,note_on,62,36,0
1,note_on,62,0,480
1,note_on,59,0,0
1,note_on,60,35,0
1,note_on,64,42,0
1,note_on,64,0,240
1,note_on,60,0,0
1,note_on,72,35,0
1,note_on,72,0,220
1,note_on,74,37,20
1,note_on,74,0,220
1,note_on,76,38,20
1,note_on,76,0,220
1,note_on,77,40,20
1,note_on,77,0,220
1,note_on,79,41,20
1,note_on,79,0,220
1,note_on,81,46,20
1,note_on,81,0,480
1,note_on,81,44,0
1,note_on,81,0,480
1,note_on,81,44,0
1,note_on,81,0,480
1,note_on,81,46,0
1,note_on,81,0,720
1,note_on,83,39,0
1,note_on,83,0,120
1,note_on,81,39,0
1,note_on,81,0,120
1,note_on,79,46,0
1,note_on,79,0,480
1,note_on,79,46,0
1,note_on,71,35,0
1,note_on,79,0,240
1,note_on,77,41,0
1,note_on,77,0,240
1,note_on,71,0,0
1,note_on,77,46,0
1,note_on,71,35,0
1,note_on,71,0,480
1,note_on,77,0,0
1,note_on,77,41,0
1,note_on,71,32,0
1,note_on,71,0,480
1,note_on,77,0,0
1,note_on,77,46,0
1,note_on,71,35,0
1,note_on,71,0,960
1,note_on,77,0,0
1,note_on,72,33,0
1,note_on,76,42,0
1,note_on,76,0,480
1,note_on,72,0,0
1,note_on,76,35,0
1,note_on,79,46,0
1,note_on,79,0,240
1,note_on,76,0,0
1,note_on,77,40,0
1,note_on,74,31,0
1,note_on,74,0,240
1,note_on,77,0,0
1,note_on,76,46,0
1,note_on,72,35,0
1,note_on,72,0,480
1,note_on,76,0,0
1,note_on,74,39,0
1,note_on,71,30,0
1,note_on,71,0,480
1,note_on,74,0,0
1,note_on,76,63,0
1,note_on,79,63,0
1,note_on,79,0,120
1,note_on,76,0,0
1,note_on,79,50,120
1,note_on,76,50,0
1,note_on,76,0,120
1,note_on,79,0,0
1,note_on,77,33,360
1,note_on,74,33,0
1,note_on,74,0,120
1,note_on,77,0,0
1,note_on,72,33,360
1,note_on,76,33,0
1,note_on,76,0,120
1,note_on,72,0,0
1,note_on,65,33,360
1,note_on,74,33,0
1,note_on,74,0,120
1,note_on,65,0,0
1,note_on,72,33,360
1,note_on,64,33,0
1,note_on,64,0,120
1,note_on,72,0,0
1,note_on,71,33,360
1,note_on,62,33,0
1,note_on,62,0,120
1,note_on,71,0,0
1,note_on,76,72,240
1,note_on,76,0,120
1,note_on,79,75,0
1,note_on,79,0,120
1,note_on,76,72,0
1,note_on,76,0,120
1,note_on,74,70,120
1,note_on,74,0,120
1,note_on,77,75,0
1,note_on,77,0,120
1,note_on,74,70,0
1,note_on,74,0,120
1,note_on,72,72,120
1,note_on,72,0,120
1,note_on,76,75,0
1,note_on,76,0,120
1,note_on,72,71,0
1,note_on,72,0,120
1,note_on,65,71,120
1,note_on,65,0,120
1,note_on,74,75,0
1,note_on,74,0,120
1,note_on,65,71,0
1,note_on,65,0,120
1,note_on,64,71,120
1,note_on,64,0,120
1,note_on,72,75,0
1,note_on,72,0,120
1,note_on,64,71,0
1,note_on,64,0,120
1,note_on,62,71,120
1,note_on,62,0,120
1,note_on,71,75,0
1,note_on,71,0,120
1,note_on,62,71,0
1,note_on,62,0,120
1,note_on,64,75,0
1,note_on,67,75,0
1,note_on,72,75,0
1,note_on,72,0,480
1,note_on,67,0,0
1,note_on,64,0,0
1,note_on,76,70,480
1,note_on,76,0,60
1,note_on,77,65,0
1,note_on,77,0,60
1,note_on,76,70,0
1,note_on,76,0,60
1,note_on,77,66,0
1,note_on,77,0,60
1,note_on,76,70,0
1,note_on,76,0,40
1,note_on,77,66,0
1,note_on,77,0,40
1,note_on,76,66,0
1,note_on,76,0,40
1,note_on,74,70,0
1,note_on,74,0,60
1,note_on,72,66,0
1,note_on,72,0,60
1,note_on,79,75,0
1,note_on,79,0,960
1,note_on,83,70,0
1,note_on,83,0,60
1,note_on,84,66,0
1,note_on,84,0,60
1,note_on,83,70,0
1,note_on,83,0,60
1,note_on,84,66,0
1,note_on,84,0,60
1,note_on,83,70,0
1,note_on,83,0,40
1,note_on,84,65,0
1,note_on,84,0,40
1,note_on,83,66,0
1,note_on,83,0,40
1,note_on,81,70,0
1,note_on,81,0,60
1,note_on,79,65,0
1,note_on,79,0,60
1,note_on,84,75,0
1,note_on,84,0,960
1,note_on,76,70,0
1,note_on,77,65,60
1,note_on,76,0,0
1,note_on,77,0,60
1,note_on,76,70,0
1,note_on,76,0,60
1,note_on,77,66,0
1,note_on,77,0,60
1,note_on,76,70,0
1,note_on,76,0,40
1,note_on,77,66,0
1,note_on,77,0,40
1,note_on,76,66,0
1,note_on,76,0,40
1,note_on,74,70,0
1,note_on,74,0,60
1,note_on,72,66,0
1,note_on,72,0,60
1,note_on,79,75,0
1,note_on,79,0,240
1,note_on,79,75,240
1,note_on,79,0,240
1,note_on,83,70,240
1,note_on,83,0,60
1,note_on,84,66,0
1,note_on,84,0,60
1,note_on,83,70,0
1,note_on,83,0,60
1,note_on,84,66,0
1,note_on,84,0,60
1,note_on,83,70,0
1,note_on,83,0,40
1,note_on,84,65,0
1,note_on,84,0,40
1,note_on,83,66,0
1,note_on,83,0,40
1,note_on,81,70,0
1,note_on,81,0,60
1,note_on,79,65,0
1,note_on,79,0,60
1,note_on,84,75,0
1,note_on,84,0,120
1,note_on,88,88,360
1,note_on,88,0,720
1,note_on,80,75,0
1,note_on,80,0,240
1,note_on,81,75,0
1,note_on,81,0,120
1,note_on,84,89,360
1,note_on,84,0,720
1,note_on,76,75,0
1,note_on,76,0,240
1,note_on,77,70,0
1,note_on,77,0,60
1,note_on,79,65,0
1,note_on,79,0,60
1,note_on,77,70,0
1,note_on,77,0,60
1,note_on,79,66,0
1,note_on,79,0,60
1,note_on,77,70,0
1,note_on,77,0,40
1,note_on,79,66,0
1,note_on,79,0,40
1,note_on,77,66,0
1,note_on,77,0,40
1,note_on,76,70,0
1,note_on,76,0,60
1,note_on,74,66,0
1,note_on,74,0,60
1,note_on,79,84,0
1,note_on,79,0,120
1,note_on,83,86,360
1,note_on,79,72,0
1,note_on,74,72,0
1,note_on,74,0,120
1,note_on,79,0,0
1,note_on,83,0,0
1,note_on,79,72,360
1,note_on,76,72,0
1,note_on,84,86,0
1,note_on,84,0,120
1,note_on,76,0,0
1,note_on,79,0,0
1,note_on,60,79,360
1,note_on,60,0,120
1,note_on,67,50,840
1,note_on,72,46,480
1,note_on,72,0,480
1,note_on,76,46,0
1,note_on,76,0,480
1,note_on,67,0,0
1,note_on,67,45,0
1,note_on,76,53,0
1,note_on,72,48,0
1,note_on,72,0,960
1,note_on,76,0,0
1,note_on,71,43,0
1,note_on,74,43,0
1,note_on,74,0,480
1,note_on,71,0,0
1,note_on,67,0,0
1,note_on,79,50,0
1,note_on,79,0,480
1,note_on,72,46,0
1,note_on,67,40,0
1,note_on,72,0,480
1,note_on,76,46,0
1,note_on,76,0,480
1,note_on,67,0,0
1,note_on,67,45,0
1,note_on,72,48,0
1,note_on,76,53,0
1,note_on,76,0,960
1,note_on,72,0,0
1,note_on,74,43,0
1,note_on,71,43,0
1,note_on,71,0,480
1,note_on,74,0,0
1,note_on,67,0,0
1,note_on,69,50,0
1,note_on,69,0,480
1,note_on,74,50,0
1,note_on,74,0,480
1,note_on,77,50,0
1,note_on,77,0,480
1,note_on,76,50,0
1,note_on,76,0,480
1,note_on,74,50,0
1,note_on,74,0,480
1,note_on,81,50,0
1,note_on,81,0,960
1,note_on,79,50,0
1,note_on,79,0,480
1,note_on,71,50,0
1,note_on,71,0,480
1,note_on,72,50,0
1,note_on,72,0,240
1,note_on,67,50,0
1,note_on,67,0,240
1,note_on,64,50,0
1,note_on,64,0,240
1,note_on,67,50,0
1,note_on,67,0,240
1,note_on,65,50,0
1,note_on,65,0,240
1,note_on,62,50,0
1,note_on,62,0,240
1,note_on,60,50,0
1,note_on,60,0,360
1,note_on,55,43,0
1,note_on,55,0,120
1,note_on,60,46,0
1,note_on,60,0,480
1,note_on,64,48,0
1,note_on,64,0,480
1,note_on,60,50,0
1,note_on,64,55,0
1,note_on,64,0,960
1,note_on,60,0,0
1,note_on,62,43,0
1,note_on,59,43,0
1,note_on,59,0,480
1,note_on,62,0,0
1,note_on,67,50,0
1,note_on,67,0,480
1,note_on,55,40,0
1,note_on,60,46,0
1,note_on,60,0,480
1,note_on,64,48,0
1,note_on,64,0,480
1,note_on,55,0,0
1,note_on,60,50,0
1,note_on,64,55,0
1,note_on,64,0,960
1,note_on,60,0,0
1,note_on,59,43,0
1,note_on,62,43,0
1,note_on,62,0,480
1,note_on,59,0,0
1,note_on,57,50,0
1,note_on,57,0,480
1,note_on,62,50,0
1,note_on,62,0,480
1,note_on,65,50,0
1,note_on,65,0,480
1,note_on,64,50,0
1,note_on,64,0,480
1,note_on,62,50,0
1,note_on,62,0,480
1,note_on,69,50,0
1,note_on,69,0,960
1,note_on,67,50,0
1,note_on,67,0,480
1,note_on,59,50,0
1,note_on,59,0,480
1,note_on,60,52,0
1,note_on,60,0,240
1,note_on,67,34,0
1,note_on,67,0,240
1,note_on,67,34,240
1,note_on,67,0,120
1,note_on,67,34,360
1,note_on,67,0,120
1,note_on,65,34,120
1,note_on,67,40,0
1,note_on,67,0,120
1,note_on,65,0,0
1,note_on,65,28,120
1,note_on,67,33,0
1,note_on,67,0,120
1,note_on,65,0,0
1,note_on,65,28,360
1,note_on,67,33,0
1,note_on,67,0,120
1,note_on,65,0,0
1,note_on,67,33,360
1,note_on,65,28,0
1,note_on,65,0,120
1,note_on,67,0,0
1,note_on,67,40,120
1,note_on,63,34,0
1,note_on,63,0,120
1,note_on,67,0,0
1,note_on,67,34,120
1,note_on,63,28,0
1,note_on,63,0,120
1,note_on,67,0,0
1,note_on,67,34,360
1,note_on,63,28,0
1,note_on,63,0,120
1,note_on,67,0,0
1,note_on,67,34,360
1,note_on,63,28,0
1,note_on,63,0,120
1,note_on,67,0,0
1,note_on,65,34,120
1,note_on,67,40,0
1,note_on,67,0,120
1,note_on,65,0,0
1,note_on,65,28,120
1,note_on,67,33,0
1,note_on,67,0,120
1,note_on,65,0,0
1,note_on,65,28,360
1,note_on,67,33,0
1,note_on,67,0,120
1,note_on,65,0,0
1,note_on,65,23,360
1,note_on,67,33,0
1,note_on,67,0,120
1,note_on,65,0,0
1,note_on,63,53,120
1,note_on,67,63,0
1,note_on,67,0,120
1,note_on,63,0,0
1,note_on,67,50,120
1,note_on,63,42,0
1,note_on,63,0,120
1,note_on,67,0,0
1,note_on,67,33,360
1,note_on,63,28,0
1,note_on,63,0,120
1,note_on,67,0,0
1,note_on,63,28,360
1,note_on,67,33,0
1,note_on,67,0,120
1,note_on,63,0,0
1,note_on,63,53,120
1,note_on,60,53,0
1,note_on,66,63,0
1,note_on,66,0,120
1,note_on,60,0,0
1,note_on,63,0,0
1,note_on,63,42,120
1,note_on,60,42,0
1,note_on,66,50,0
1,note_on,66,0,120
1,note_on,60,0,0
1,note_on,63,0,0
1,note_on,66,33,360
1,note_on,63,28,0
1,note_on,60,28,0
1,note_on,60,0,120
1,note_on,63,0,0
1,note_on,66,0,0
1,note_on,60,28,360
1,note_on,63,28,0
1,note_on,66,33,0
1,note_on,66,0,120
1,note_on,63,0,0
1,note_on,60,0,0
1,note_on,62,53,120
1,note_on,67,63,0
1,note_on,67,0,120
1,note_on,62,0,0
1,note_on,67,50,120
1,note_on,62,42,0
1,note_on,62,0,120
1,note_on,67,0,0
1,note_on,67,33,360
1,note_on,62,28,0
1,note_on,62,0,120
1,note_on,67,0,0
1,note_on,62,28,360
1,note_on,67,33,0
1,note_on,67,0,120
1,note_on,62,0,0
1,note_on,69,53,120
1,note_on,62,53,0
1,note_on,72,63,0
1,note_on,72,0,120
1,note_on,62,0,0
1,note_on,69,0,0
1,note_on,62,42,120
1,note_on,72,50,0
1,note_on,69,42,0
1,note_on,69,0,120
1,note_on,72,0,0
1,note_on,62,0,0
1,note_on,69,28,360
1,note_on,72,33,0
1,note_on,62,28,0
1,note_on,62,0,120
1,note_on,72,0,0
1,note_on,69,0,0
1,note_on,72,33,360
1,note_on,62,28,0
1,note_on,69,28,0
1,note_on,69,0,120
1,note_on,62,0,0
1,note_on,72,0,0
1,note_on,70,63,120
1,note_on,67,53,0
1,note_on,62,53,0
1,note_on,62,0,120
1,note_on,67,0,0
1,note_on,70,0,0
1,note_on,62,42,120
1,note_on,67,42,0
1,note_on,70,50,0
1,note_on,70,0,120
1,note_on,67,0,0
1,note_on,62,0,0
1,note_on,62,28,360
1,note_on,70,33,0
1,note_on,67,28,0
1,note_on,67,0,120
1,note_on,70,0,0
1,note_on,62,0,0
1,note_on,62,28,360
1,note_on,70,33,0
1,note_on,67,28,0
1,note_on,67,0,120
1,note_on,70,0,0
1,note_on,62,0,0
1,note_on,70,53,120
1,note_on,67,53,0
1,note_on,73,63,0
1,note_on,73,0,120
1,note_on,67,0,0
1,note_on,70,0,0
1,note_on,70,42,120
1,note_on,73,50,0
1,note_on,67,42,0
1,note_on,67,0,120
1,note_on,73,0,0
1,note_on,70,0,0
1,note_on,67,28,360
1,note_on,70,28,0
1,note_on,73,33,0
1,note_on,73,0,120
1,note_on,70,0,0
1,note_on,67,0,0
1,note_on,73,33,360
1,note_on,70,28,0
1,note_on,67,28,0
1,note_on,67,0,120
1,note_on,70,0,0
1,note_on,73,0,0
1,note_on,74,63,120
1,note_on,69,53,0
1,note_on,69,0,120
1,note_on,74,0,0
1,note_on,69,42,120
1,note_on,74,50,0
1,note_on,74,0,120
1,note_on,69,0,0
1,note_on,69,28,360
1,note_on,74,33,0
1,note_on,74,0,120
1,note_on,69,0,0
1,note_on,69,28,360
1,note_on,74,33,0
1,note_on,74,0,120
1,note_on,69,0,0
1,note_on,76,53,120
1,note_on,69,53,0
1,note_on,79,63,0
1,note_on,79,0,120
1,note_on,69,0,0
1,note_on,76,0,0
1,note_on,79,50,120
1,note_on,69,42,0
1,note_on,76,42,0
1,note_on,76,0,120
1,note_on,69,0,0
1,note_on,79,0,0
1,note_on,79,33,360
1,note_on,76,28,0
1,note_on,69,28,0
1,note_on,69,0,120
1,note_on,76,0,0
1,note_on,79,0,0
1,note_on,76,28,360
1,note_on,79,33,0
1,note_on,69,28,0
1,note_on,69,0,120
1,note_on,79,0,0
1,note_on,76,0,0
1,note_on,74,53,120
1,note_on,77,63,0
1,note_on,69,53,0
1,note_on,69,0,120
1,note_on,77,0,0
1,note_on,74,0,0
1,note_on,69,42,120
1,note_on,77,50,0
1,note_on,74,42,0
1,note_on,74,0,120
1,note_on,77,0,0
1,note_on,69,0,0
1,note_on,77,33,360
1,note_on,74,28,0
1,note_on,69,28,0
1,note_on,69,0,120
1,note_on,74,0,0
1,note_on,77,0,0
1,note_on,74,28,360
1,note_on,77,33,0
1,note_on,69,28,0
1,note_on,69,0,120
1,note_on,77,0,0
1,note_on,74,0,0
1,note_on,80,65,120
1,note_on,74,53,0
1,note_on,74,0,120
1,note_on,80,0,0
1,note_on,80,54,120
1,note_on,74,42,0
1,note_on,74,0,120
1,note_on,80,0,0
1,note_on,80,33,360
1,note_on,74,28,0
1,note_on,74,0,120
1,note_on,80,0,0
1,note_on,74,28,360
1,note_on,80,33,0
1,note_on,80,0,120
1,note_on,74,0,0
1,note_on,81,38,120
1,note_on,73,32,0
1,note_on,73,0,240
1,note_on,81,0,0
1,note_on,81,37,0
1,note_on,77,31,0
1,note_on,76,28,240
1,note_on,79,33,0
1,note_on,77,0,10
1,note_on,81,0,0
1,note_on,77,31,230
1,note_on,74,26,0
1,note_on,76,0,10
1,note_on,79,0,0
1,note_on,73,28,230
1,note_on,76,33,0
1,note_on,77,0,10
1,note_on,74,0,0
1,note_on,77,30,230
1,note_on,74,25,0
1,note_on,73,0,10
1,note_on,76,0,0
1,note_on,73,32,230
1,note_on,76,38,0
1,note_on,77,0,10
1,note_on,74,0,0
1,note_on,73,0,230
1,note_on,76,0,0
1,note_on,69,37,0
1,note_on,65,31,0
1,note_on,67,33,240
1,note_on,64,28,0
1,note_on,65,0,10
1,note_on,69,0,0
1,note_on,62,26,230
1,note_on,65,31,0
1,note_on,67,0,10
1,note_on,64,0,0
1,note_on,64,33,230
1,note_on,61,28,0
1,note_on,62,0,10
1,note_on,65,0,0
1,note_on,65,30,230
1,note_on,62,25,0
1,note_on,64,0,10
1,note_on,61,0,0
1,note_on,61,31,230
1,note_on,64,37,0
1,note_on,65,0,10
1,note_on,62,0,0
1,note_on,65,32,230
1,note_on,62,27,0
1,note_on,61,0,10
1,note_on,64,0,0
1,note_on,61,31,230
1,note_on,64,37,0
1,note_on,65,0,10
1,note_on,62,0,0
1,note_on,65,34,230
1,note_on,62,28,0
1,note_on,61,0,10
1,note_on,64,0,0
1,note_on,61,31,230
1,note_on,64,37,0
1,note_on,65,0,10
1,note_on,62,0,0
1,note_on,62,28,230
1,note_on,65,34,0
1,note_on,61,0,10
1,note_on,64,0,0
1,note_on,62,0,230
1,note_on,65,0,0
1,note_on,64,37,0
1,note_on,61,31,0
1,note_on,61,0,480
1,note_on,64,0,0
1,note_on,60,24,960
1,note_on,64,29,0
1,note_on,65,25,240
1,note_on,62,21,0
1,note_on,64,0,10
1,note_on,60,0,0
1,note_on,64,29,230
1,note_on,60,24,0
1,note_on,65,0,10
1,note_on,62,0,0
1,note_on,62,22,230
1,note_on,65,27,0
1,note_on,64,0,10
1,note_on,60,0,0
1,note_on,64,29,230
1,note_on,60,24,0
1,note_on,62,0,10
1,note_on,65,0,0
1,note_on,65,27,230
1,note_on,62,22,0
1,note_on,64,0,10
1,note_on,60,0,0
1,note_on,60,31,230
1,note_on,64,29,0
1,note_on,65,0,10
1,note_on,62,0,0
1,note_on,60,0,470
1,note_on,64,0,0
1,note_on,58,49,960
1,note_on,60,49,0
1,note_on,64,59,0
1,note_on,65,51,240
1,note_on,64,0,10
1,note_on,64,59,230
1,note_on,65,0,10
1,note_on,65,55,230
1,note_on,64,0,10
1,note_on,64,59,230
1,note_on,65,0,10
1,note_on,65,55,230
1,note_on,64,0,10
1,note_on,64,59,230
1,note_on,65,0,10
1,note_on,58,0,470
1,note_on,60,0,0
1,note_on,64,0,0
1,note_on,76,31,960
1,note_on,82,37,0
1,note_on,81,32,240
1,note_on,82,0,10
1,note_on,82,37,230
1,note_on,81,0,10
1,note_on,81,34,230
1,note_on,82,0,10
1,note_on,82,37,230
1,note_on,81,0,10
1,note_on,81,34,230
1,note_on,82,0,10
1,note_on,81,0,230
1,note_on,82,37,0
1,note_on,82,0,480
1,note_on,76,0,0
1,note_on,65,50,960
1,note_on,65,0,960
1,note_on,69,47,0
1,note_on,69,0,480
1,note_on,72,52,0
1,note_on,72,0,960
1,note_on,69,46,0
1,note_on,69,0,480
1,note_on,70,50,0
1,note_on,70,0,960
1,note_on,79,47,0
1,note_on,79,0,480
1,note_on,77,47,0
1,note_on,77,0,240
1,note_on,76,44,0
1,note_on,76,0,237
1,note_on,76,44,3
1,note_on,76,0,480
1,note_on,77,50,480
1,note_on,77,0,480
1,note_on,69,46,0
1,note_on,69,0,480
1,note_on,74,46,0
1,note_on,74,0,480
1,note_on,67,50,0
1,note_on,67,0,480
1,note_on,72,54,0
1,note_on,72,0,720
1,note_on,69,45,0
1,note_on,69,0,240
1,note_on,65,50,0
1,note_on,67,50,1440
1,note_on,65,0,480
1,note_on,64,42,0
1,note_on,64,0,60
1,note_on,65,37,0
1,note_on,65,0,60
1,note_on,64,48,0
1,note_on,64,0,120
1,note_on,62,48,0
1,note_on,62,0,240
1,note_on,64,50,0
1,note_on,64,0,480
1,note_on,67,0,0
1,note_on,69,48,0
1,note_on,65,48,0
1,note_on,69,0,480
1,note_on,70,52,0
1,note_on,70,0,480
1,note_on,74,55,0
1,note_on,74,0,476
1,note_on,74,58,4
1,note_on,74,0,240
1,note_on,72,57,0
1,note_on,72,0,240
1,note_on,65,0,0
1,note_on,70,56,0
1,note_on,70,0,240
1,note_on,69,54,0
1,note_on,69,0,240
1,note_on,67,53,0
1,note_on,67,0,240
1,note_on,65,51,0
1,note_on,65,0,240
1,note_on,67,54,0
1,note_on,67,0,480
1,note_on,70,50,0
1,note_on,70,0,120
1,note_on,58,54,360
1,note_on,64,54,0
1,note_on,64,0,480
1,note_on,58,0,0
1,note_on,65,56,0
1,note_on,57,56,0
1,note_on,57,0,480
1,note_on,65,0,0
1,note_on,84,50,480
1,note_on,84,0,360
1,note_on,82,44,0
1,note_on,82,0,120
1,note_on,81,50,0
1,note_on,81,0,120
1,note_on,81,50,360
1,note_on,81,0,120
1,note_on,81,47,360
1,note_on,81,0,360
1,note_on,79,42,0
1,note_on,79,0,120
1,note_on,77,48,0
1,note_on,77,0,120
1,note_on,77,44,360
1,note_on,77,0,120
1,note_on,77,44,360
1,note_on,77,0,480
1,note_on,76,46,0
1,note_on,79,46,0
1,note_on,79,0,120
1,note_on,76,0,0
1,note_on,76,44,360
1,note_on,79,44,0
1,note_on,79,0,120
1,note_on,76,0,0
1,note_on,79,44,360
1,note_on,76,44,0
1,note_on,76,0,120
1,note_on,79,0,0
1,note_on,76,50,360
1,note_on,79,50,0
1,note_on,79,0,480
1,note_on,76,0,0
1,note_on,81,44,0
1,note_on,77,44,0
1,note_on,77,0,480
1,note_on,81,0,0
1,note_on,84,50,0
1,note_on,84,0,120
1,note_on,86,44,0
1,note_on,86,0,120
1,note_on,84,44,0
1,note_on,84,0,120
1,note_on,82,44,0
1,note_on,82,0,120
1,note_on,81,50,0
1,note_on,81,0,120
1,note_on,81,50,360
1,note_on,81,0,120
1,note_on,81,47,360
1,note_on,81,0,120
1,note_on,82,42,0
1,note_on,82,0,120
1,note_on,81,42,0
1,note_on,81,0,120
1,note_on,79,42,0
1,note_on,79,0,120
1,note_on,77,48,0
1,note_on,77,0,120
1,note_on,77,44,360
1,note_on,77,0,120
1,note_on,77,44,360
1,note_on,77,0,120
1,note_on,79,49,360
1,note_on,79,0,480
1,note_on,82,44,0
1,note_on,82,0,120
1,note_on,76,44,360
1,note_on,70,35,0
1,note_on,70,0,480
1,note_on,76,0,0
1,note_on,69,38,0
1,note_on,77,48,0
1,note_on,77,0,480
1,note_on,69,0,0
1,note_on,84,44,480
1,note_on,84,0,480
1,note_on,77,48,0
1,note_on,77,0,480
1,note_on,72,39,480
1,note_on,72,0,480
1,note_on,65,43,0
1,note_on,65,0,480
1,note_on,61,80,480
1,note_on,61,0,480
1,note_on,62,85,0
1,note_on,62,0,720
1,note_on,65,70,0
1,note_on,65,0,120
1,note_on,69,72,0
1,note_on,69,0,120
1,note_on,74,84,0
1,note_on,74,0,120
1,note_on,69,71,120
1,note_on,69,0,120
1,note_on,74,73,0
1,note_on,74,0,120
1,note_on,77,86,0
1,note_on,77,0,120
1,note_on,74,71,120
1,note_on,74,0,120
1,note_on,77,73,0
1,note_on,77,0,120
1,note_on,81,87,0
1,note_on,81,0,120
1,note_on,81,80,120
1,note_on,81,0,240
1,note_on,77,80,0
1,note_on,77,0,240
1,note_on,74,80,0
1,note_on,74,0,120
1,note_on,73,70,0
1,note_on,73,0,40
1,note_on,76,70,0
1,note_on,76,0,40
1,note_on,79,70,0
1,note_on,79,0,40
1,note_on,82,90,0
1,note_on,82,0,720
1,note_on,81,71,0
1,note_on,79,68,120
1,note_on,81,0,12
1,note_on,77,68,108
1,note_on,79,0,12
1,note_on,76,68,108
1,note_on,77,0,12
1,note_on,74,69,108
1,note_on,76,0,12
1,note_on,73,72,108
1,note_on,74,0,12
1,note_on,82,90,108
1,note_on,73,0,12
1,note_on,82,0,708
1,note_on,81,71,0
1,note_on,79,68,120
1,note_on,81,0,12
1,note_on,77,68,108
1,note_on,79,0,12
1,note_on,76,68,108
1,note_on,77,0,12
1,note_on,74,69,108
1,note_on,76,0,12
1,note_on,73,72,108
1,note_on,74,0,12
1,note_on,74,88,108
1,note_on,73,0,12
1,note_on,74,0,708
1,note_on,65,70,0
1,note_on,65,0,120
1,note_on,69,72,0
1,note_on,69,0,120
1,note_on,74,84,0
1,note_on,74,0,120
1,note_on,69,71,120
1,note_on,69,0,120
1,note_on,74,73,0
1,note_on,74,0,120
1,note_on,77,86,0
1,note_on,77,0,120
1,note_on,74,71,120
1,note_on,74,0,120
1,note_on,77,73,0
1,note_on,77,0,120
1,note_on,81,87,0
1,note_on,81,0,120
1,note_on,81,80,120
1,note_on,81,0,240
1,note_on,77,80,0
1,note_on,77,0,240
1,note_on,74,80,0
1,note_on,74,0,240
1,note_on,74,75,0
1,note_on,80,90,0
1,note_on,77,75,0
1,note_on,71,75,0
1,note_on,71,0,720
1,note_on,74,0,0
1,note_on,80,0,0
1,note_on,77,0,0
1,note_on,79,71,0
1,note_on,77,68,120
1,note_on,79,0,12
1,note_on,75,68,108
1,note_on,77,0,12
1,note_on,74,68,108
1,note_on,75,0,12
1,note_on,72,69,108
1,note_on,74,0,12
1,note_on,71,72,108
1,note_on,72,0,12
1,note_on,80,90,108
1,note_on,71,0,12
1,note_on,80,0,708
1,note_on,79,71,0
1,note_on,77,68,120
1,note_on,79,0,12
1,note_on,75,68,108
1,note_on,77,0,12
1,note_on,74,68,108
1,note_on,75,0,12
1,note_on,72,69,108
1,note_on,74,0,12
1,note_on,71,72,108
1,note_on,72,0,12
1,note_on,72,88,108
1,note_on,71,0,12
1,note_on,72,0,708
1,note_on,63,70,0
1,note_on,63,0,120
1,note_on,67,72,0
1,note_on,67,0,120
1,note_on,72,84,0
1,note_on,72,0,120
1,note_on,67,71,120
1,note_on,67,0,120
1,note_on,72,73,0
1,note_on,72,0,120
1,note_on,75,86,0
1,note_on,75,0,120
1,note_on,72,71,120
1,note_on,72,0,120
1,note_on,75,73,0
1,note_on,75,0,120
1,note_on,79,87,0
1,note_on,79,0,120
1,note_on,79,80,120
1,note_on,79,0,240
1,note_on,75,80,0
1,note_on,75,0,240
1,note_on,72,80,0
1,note_on,72,0,240
1,note_on,72,75,0
1,note_on,78,90,0
1,note_on,75,75,0
1,note_on,69,75,0
1,note_on,69,0,720
1,note_on,72,0,0
1,note_on,78,0,0
1,note_on,75,0,0
1,note_on,77,71,0
1,note_on,75,68,120
1,note_on,77,0,12
1,note_on,73,68,108
1,note_on,75,0,12
1,note_on,72,68,108
1,note_on,73,0,12
1,note_on,70,69,108
1,note_on,72,0,12
1,note_on,69,72,108
1,note_on,70,0,12
1,note_on,78,90,108
1,note_on,69,0,12
1,note_on,78,0,708
1,note_on,77,71,0
1,note_on,75,68,120
1,note_on,77,0,12
1,note_on,73,68,108
1,note_on,75,0,12
1,note_on,72,68,108
1,note_on,73,0,12
1,note_on,70,69,108
1,note_on,72,0,12
1,note_on,69,72,108
1,note_on,70,0,12
1,note_on,70,88,108
1,note_on,69,0,12
1,note_on,70,0,588
1,note_on,65,69,0
1,note_on,65,0,120
1,note_on,70,74,0
1,note_on,70,0,120
1,note_on,65,70,0
1,note_on,65,0,120
1,note_on,73,74,0
1,note_on,73,0,120
1,note_on,70,71,0
1,note_on,70,0,120
1,note_on,73,75,0
1,note_on,73,0,120
1,note_on,70,70,0
1,note_on,70,0,120
1,note_on,77,74,0
1,note_on,77,0,120
1,note_on,73,71,0
1,note_on,73,0,120
1,note_on,77,74,0
1,note_on,77,0,120
1,note_on,73,71,0
1,note_on,73,0,120
1,note_on,82,91,0
1,note_on,82,0,480
1,note_on,69,88,480
1,note_on,69,0,600
1,note_on,65,69,0
1,note_on,65,0,120
1,note_on,69,74,0
1,note_on,69,0,120
1,note_on,65,70,0
1,note_on,65,0,120
1,note_on,72,74,0
1,note_on,72,0,120
1,note_on,69,71,0
1,note_on,69,0,120
1,note_on,72,75,0
1,note_on,72,0,120
1,note_on,69,70,0
1,note_on,69,0,120
1,note_on,77,74,0
1,note_on,77,0,120
1,note_on,72,71,0
1,note_on,72,0,120
1,note_on,77,74,0
1,note_on,77,0,120
1,note_on,72,71,0
1,note_on,72,0,120
1,note_on,81,91,0
1,note_on,81,0,480
1,note_on,68,88,480
1,note_on,68,0,600
1,note_on,65,69,0
1,note_on,65,0,120
1,note_on,68,74,0
1,note_on,68,0,120
1,note_on,65,70,0
1,note_on,65,0,120
1,note_on,74,74,0
1,note_on,74,0,120
1,note_on,68,71,0
1,note_on,68,0,120
1,note_on,74,75,0
1,note_on,74,0,120
1,note_on,68,70,0
1,note_on,68,0,120
1,note_on,77,74,0
1,note_on,77,0,120
1,note_on,74,71,0
1,note_on,74,0,120
1,note_on,77,74,0
1,note_on,77,0,120
1,note_on,74,71,0
1,note_on,74,0,120
1,note_on,80,91,0
1,note_on,80,0,480
1,note_on,77,81,0
1,note_on,77,0,360
1,note_on,72,70,0
1,note_on,72,0,40
1,note_on,76,70,0
1,note_on,76,0,40
1,note_on,79,70,0
1,note_on,79,0,40
1,note_on,84,90,0
1,note_on,84,0,960
1,note_on,82,72,0
1,note_on,80,72,120
1,note_on,82,0,10
1,note_on,79,73,110
1,note_on,80,0,10
1,note_on,77,76,110
1,note_on,79,0,10
1,note_on,77,0,110
1,note_on,84,90,0
1,note_on,84,0,960
1,note_on,82,72,0
1,note_on,80,72,120
1,note_on,82,0,10
1,note_on,79,73,110
1,note_on,80,0,10
1,note_on,77,76,110
1,note_on,79,0,10
1,note_on,77,0,110
1,note_on,72,90,0
1,note_on,72,0,720
1,note_on,73,79,0
1,note_on,72,78,120
1,note_on,73,0,10
1,note_on,70,76,110
1,note_on,72,0,10
1,note_on,68,75,110
1,note_on,70,0,10
1,note_on,67,74,110
1,note_on,68,0,10
1,note_on,65,72,110
1,note_on,67,0,10
1,note_on,72,79,110
1,note_on,65,0,10
1,note_on,72,0,110
1,note_on,60,72,360
1,note_on,60,0,120
1,note_on,60,41,780
1,note_on,60,0,60
1,note_on,69,45,0
1,note_on,69,0,120
1,note_on,69,43,360
1,note_on,69,0,120
1,note_on,69,43,360
1,note_on,69,0,120
1,note_on,64,42,300
1,note_on,64,0,60
1,note_on,72,45,0
1,note_on,72,0,720
1,note_on,70,41,0
1,note_on,70,0,240
1,note_on,67,41,0
1,note_on,67,0,480
1,note_on,57,45,0
1,note_on,67,45,0
1,note_on,67,0,240
1,note_on,65,41,0
1,note_on,65,0,240
1,note_on,57,0,0
1,note_on,65,45,0
1,note_on,60,45,0
1,note_on,60,0,720
1,note_on,65,0,0
1,note_on,64,45,0
1,note_on,67,45,0
1,note_on,67,0,240
1,note_on,64,0,0
1,note_on,67,49,0
1,note_on,64,49,0
1,note_on,64,0,960
1,note_on,67,0,0
1,note_on,65,45,0
1,note_on,69,45,0
1,note_on,69,0,480
1,note_on,65,0,0
1,note_on,70,45,0
1,note_on,70,0,720
1,note_on,72,46,0
1,note_on,72,0,60
1,note_on,70,42,0
1,note_on,70,0,60
1,note_on,69,42,0
1,note_on,69,0,60
1,note_on,70,45,0
1,note_on,70,0,40
1,note_on,72,49,20
1,note_on,72,0,240
1,note_on,74,47,0
1,note_on,74,0,240
1,note_on,74,55,0
1,note_on,74,0,240
1,note_on,72,49,0
1,note_on,72,0,240
1,note_on,71,52,0
1,note_on,71,0,240
1,note_on,72,45,0
1,note_on,72,0,240
1,note_on,70,50,0
1,note_on,70,0,240
1,note_on,67,45,0
1,note_on,67,0,240
1,note_on,68,49,0
1,note_on,68,0,240
1,note_on,69,45,0
1,note_on,69,0,240
1,note_on,70,50,0
1,note_on,70,0,240
1,note_on,69,45,0
1,note_on,69,0,240
1,note_on,72,49,0
1,note_on,72,0,240
1,note_on,70,45,0
1,note_on,70,0,240
1,note_on,69,52,0
1,note_on,69,0,240
1,note_on,67,45,0
1,note_on,67,0,240
1,note_on,65,48,0
1,note_on,65,0,240
1,note_on,64,45,0
1,note_on,64,0,240
1,note_on,62,46,0
1,note_on,62,0,240
1,note_on,60,45,0
1,note_on,60,0,240
1,note_on,68,39,0
1,note_on,80,49,0
1,note_on,80,0,240
1,note_on,68,0,0
1,note_on,69,33,0
1,note_on,81,42,0
1,note_on,81,0,240
1,note_on,69,0,0
1,note_on,68,39,0
1,note_on,80,49,0
1,note_on,80,0,240
1,note_on,68,0,0
1,note_on,69,32,0
1,note_on,81,41,0
1,note_on,81,0,240
1,note_on,69,0,0
1,note_on,68,41,0
1,note_on,80,52,0
1,note_on,80,0,240
1,note_on,68,0,0
1,note_on,69,38,0
1,note_on,81,48,0
1,note_on,81,0,240
1,note_on,69,0,0
1,note_on,71,46,0
1,note_on,83,58,0
1,note_on,83,0,240
1,note_on,71,0,0
1,note_on,72,42,0
1,note_on,84,53,0
1,note_on,84,0,240
1,note_on,72,0,0
1,note_on,71,46,0
1,note_on,83,58,0
1,note_on,83,0,240
1,note_on,71,0,0
1,note_on,72,36,0
1,note_on,84,46,0
1,note_on,84,0,240
1,note_on,72,0,0
1,note_on,82,49,0
1,note_on,82,0,240
1,note_on,79,39,0
1,note_on,79,0,240
1,note_on,79,45,0
1,note_on,79,0,240
1,note_on,77,41,0
1,note_on,77,0,240
1,note_on,79,45,0
1,note_on,72,41,0
1,note_on,79,0,240
1,note_on,77,41,0
1,note_on,77,0,240
1,note_on,72,0,0
1,note_on,76,41,0
1,note_on,81,45,0
1,note_on,81,0,240
1,note_on,79,45,0
1,note_on,79,0,240
1,note_on,76,0,0
1,note_on,76,49,0
1,note_on,79,49,0
1,note_on,79,0,720
1,note_on,80,49,0
1,note_on,80,0,240
1,note_on,76,0,0
1,note_on,81,45,0
1,note_on,77,45,0
1,note_on,77,0,480
1,note_on,81,0,0
1,note_on,82,49,0
1,note_on,82,0,720
1,note_on,84,50,0
1,note_on,84,0,60
1,note_on,82,46,0
1,note_on,82,0,60
1,note_on,81,46,0
1,note_on,81,0,60
1,note_on,82,49,0
1,note_on,82,0,40
1,note_on,84,53,20
1,note_on,84,0,240
1,note_on,86,51,0
1,note_on,86,0,240
1,note_on,86,60,0
1,note_on,86,0,240
1,note_on,84,53,0
1,note_on,84,0,240
1,note_on,83,57,0
1,note_on,83,0,240
1,note_on,84,49,0
1,note_on,84,0,240
1,note_on,82,55,0
1,note_on,82,0,240
1,note_on,79,49,0
1,note_on,79,0,240
1,note_on,80,53,0
1,note_on,80,0,240
1,note_on,81,49,0
1,note_on,81,0,240
1,note_on,84,55,0
1,note_on,84,0,240
1,note_on,82,49,0
1,note_on,82,0,240
1,note_on,79,53,0
1,note_on,79,0,240
1,note_on,76,49,0
1,note_on,76,0,240
1,note_on,77,54,0
1,note_on,77,0,240
1,note_on,72,35,0
1,note_on,72,0,240
1,note_on,72,35,240
1,note_on,72,0,120
1,note_on,72,35,360
1,note_on,72,0,120
1,note_on,70,35,120
1,note_on,72,42,0
1,note_on,72,0,120
1,note_on,70,0,0
1,note_on,72,34,120
1,note_on,70,29,0
1,note_on,70,0,120
1,note_on,72,0,0
1,note_on,70,29,360
1,note_on,72,34,0
1,note_on,72,0,120
1,note_on,70,0,0
1,note_on,72,34,360
1,note_on,70,29,0
1,note_on,70,0,120
1,note_on,72,0,0
1,note_on,68,35,120
1,note_on,72,42,0
1,note_on,72,0,120
1,note_on,68,0,0
1,note_on,68,29,120
1,note_on,72,35,0
1,note_on,72,0,120
1,note_on,68,0,0
1,note_on,68,29,360
1,note_on,72,35,0
1,note_on,72,0,120
1,note_on,68,0,0
1,note_on,72,35,360
1,note_on,68,29,0
1,note_on,68,0,120
1,note_on,72,0,0
1,note_on,72,42,120
1,note_on,70,35,0
1,note_on,70,0,120
1,note_on,72,0,0
1,note_on,72,34,120
1,note_on,70,29,0
1,note_on,70,0,120
1,note_on,72,0,0
1,note_on,72,34,360
1,note_on,70,29,0
1,note_on,70,0,120
1,note_on,72,0,0
1,note_on,70,29,360
1,note_on,72,34,0
1,note_on,72,0,120
1,note_on,70,0,0
1,note_on,72,63,120
1,note_on,68,63,0
1,note_on,68,0,120
1,note_on,72,0,0
1,note_on,68,50,120
1,note_on,72,50,0
1,note_on,72,0,120
1,note_on,68,0,0
1,note_on,72,33,360
1,note_on,68,33,0
1,note_on,68,0,120
1,note_on,72,0,0
1,note_on,72,33,360
1,note_on,68,33,0
1,note_on,68,0,120
1,note_on,72,0,0
1,note_on,73,63,120
1,note_on,68,63,0
1,note_on,68,0,120
1,note_on,73,0,0
1,note_on,68,50,120
1,note_on,73,50,0
1,note_on,73,0,120
1,note_on,68,0,0
1,note_on,68,33,360
1,note_on,73,33,0
1,note_on,73,0,120
1,note_on,68,0,0
1,note_on,73,33,360
1,note_on,68,33,0
1,note_on,68,0,120
1,note_on,73,0,0
1,note_on,67,63,120
1,note_on,73,63,0
1,note_on,73,0,120
1,note_on,67,0,0
1,note_on,73,50,120
1,note_on,67,50,0
1,note_on,67,0,120
1,note_on,73,0,0
1,note_on,73,33,360
1,note_on,67,33,0
1,note_on,67,0,120
1,note_on,73,0,0
1,note_on,67,33,360
1,note_on,73,33,0
1,note_on,73,0,120
1,note_on,67,0,0
1,note_on,67,63,120
1,note_on,72,63,0
1,note_on,72,0,120
1,note_on,67,0,0
1,note_on,72,50,120
1,note_on,67,50,0
1,note_on,67,0,120
1,note_on,72,0,0
1,note_on,67,33,360
1,note_on,72,33,0
1,note_on,72,0,120
1,note_on,67,0,0
1,note_on,72,33,360
1,note_on,67,33,0
1,note_on,67,0,120
1,note_on,72,0,0
1,note_on,65,63,120
1,note_on,72,63,0
1,note_on,72,0,120
1,note_on,65,0,0
1,note_on,65,50,120
1,note_on,72,50,0
1,note_on,72,0,120
1,note_on,65,0,0
1,note_on,65,33,360
1,note_on,72,33,0
1,note_on,72,0,120
1,note_on,65,0,0
1,note_on,65,63,120
1,note_on,70,63,0
1,note_on,70,0,120
1,note_on,65,0,0
1,note_on,70,50,120
1,note_on,65,50,0
1,note_on,65,0,120
1,note_on,70,0,0
1,note_on,65,33,360
1,note_on,70,33,0
1,note_on,70,0,120
1,note_on,65,0,0
1,note_on,70,63,120
1,note_on,64,63,0
1,note_on,64,0,120
1,note_on,70,0,0
1,note_on,64,50,120
1,note_on,70,50,0
1,note_on,70,0,120
1,note_on,64,0,0
1,note_on,64,33,360
1,note_on,70,33,0
1,note_on,70,0,120
1,note_on,64,0,0
1,note_on,68,33,360
1,note_on,65,33,0
1,note_on,65,0,120
1,note_on,68,0,0
1,note_on,68,33,360
1,note_on,65,33,0
1,note_on,65,0,120
1,note_on,68,0,0
1,note_on,65,33,360
1,note_on,68,33,0
1,note_on,68,0,120
1,note_on,65,0,0
1,note_on,64,32,120
1,note_on,67,38,0
1,note_on,67,0,240
1,note_on,64,0,0
1,note_on,68,31,0
1,note_on,72,37,0
1,note_on,70,33,240
1,note_on,67,28,0
1,note_on,72,0,10
1,note_on,68,0,0
1,note_on,65,26,230
1,note_on,68,31,0
1,note_on,70,0,10
1,note_on,67,0,0
1,note_on,64,28,230
1,note_on,67,33,0
1,note_on,65,0,10
1,note_on,68,0,0
1,note_on,68,30,230
1,note_on,65,25,0
1,note_on,64,0,10
1,note_on,67,0,0
1,note_on,64,32,230
1,note_on,67,38,0
1,note_on,68,0,10
1,note_on,65,0,0
1,note_on,64,0,230
1,note_on,67,0,0
1,note_on,72,37,0
1,note_on,68,31,0
1,note_on,67,28,240
1,note_on,70,33,0
1,note_on,68,0,10
1,note_on,72,0,0
1,note_on,65,26,230
1,note_on,68,31,0
1,note_on,67,0,10
1,note_on,70,0,0
1,note_on,67,33,230
1,note_on,64,28,0
1,note_on,65,0,10
1,note_on,68,0,0
1,note_on,65,25,230
1,note_on,68,30,0
1,note_on,67,0,10
1,note_on,64,0,0
1,note_on,67,37,230
1,note_on,64,31,0
1,note_on,65,0,10
1,note_on,68,0,0
1,note_on,68,32,230
1,note_on,65,27,0
1,note_on,67,0,10
1,note_on,64,0,0
1,note_on,64,31,230
1,note_on,67,37,0
1,note_on,68,0,10
1,note_on,65,0,0
1,note_on,65,28,230
1,note_on,68,34,0
1,note_on,64,0,10
1,note_on,67,0,0
1,note_on,67,37,230
1,note_on,64,31,0
1,note_on,65,0,10
1,note_on,68,0,0
1,note_on,68,34,230
1,note_on,65,28,0
1,note_on,67,0,10
1,note_on,64,0,0
1,note_on,64,31,230
1,note_on,67,37,0
1,note_on,68,0,10
1,note_on,65,0,0
1,note_on,64,0,230
1,note_on,67,0,0
1,note_on,66,33,0
1,note_on,63,33,0
1,note_on,64,35,240
1,note_on,67,35,0
1,note_on,63,0,10
1,note_on,66,0,0
1,note_on,69,36,230
1,note_on,66,36,0
1,note_on,64,0,10
1,note_on,67,0,0
1,note_on,70,38,230
1,note_on,67,38,0
1,note_on,69,0,10
1,note_on,66,0,0
1,note_on,72,40,230
1,note_on,69,40,0
1,note_on,70,0,10
1,note_on,67,0,0
1,note_on,74,42,230
1,note_on,70,35,0
1,note_on,72,0,10
1,note_on,69,0,0
1,note_on,74,0,470
1,note_on,70,0,0
1,note_on,65,34,0
1,note_on,70,34,0
1,note_on,74,40,0
1,note_on,74,0,480
1,note_on,70,0,0
1,note_on,65,0,0
1,note_on,70,34,0
1,note_on,74,40,0
1,note_on,65,34,0
1,note_on,65,0,480
1,note_on,74,0,0
1,note_on,70,0,0
1,note_on,74,42,0
1,note_on,65,35,0
1,note_on,70,35,0
1,note_on,70,0,960
1,note_on,74,0,0
1,note_on,69,28,0
1,note_on,72,34,0
1,note_on,72,0,480
1,note_on,69,0,0
1,note_on,65,0,0
1,note_on,64,35,0
1,note_on,67,35,0
1,note_on,72,42,0
1,note_on,72,0,240
1,note_on,70,38,0
1,note_on,70,0,240
1,note_on,67,0,0
1,note_on,64,0,0
1,note_on,70,42,0
1,note_on,64,35,0
1,note_on,67,35,0
1,note_on,67,0,480
1,note_on,64,0,0
1,note_on,70,0,0
1,note_on,70,38,0
1,note_on,67,32,0
1,note_on,64,32,0
1,note_on,64,0,480
1,note_on,67,0,0
1,note_on,70,0,0
1,note_on,64,35,0
1,note_on,67,35,0
1,note_on,70,42,0
1,note_on,70,0,960
1,note_on,67,0,0
1,note_on,64,0,0
1,note_on,69,39,0
1,note_on,65,33,0
1,note_on,65,0,480
1,note_on,69,0,0
1,note_on,72,42,0
1,note_on,69,35,0
1,note_on,69,0,240
1,note_on,72,0,0
1,note_on,70,37,0
1,note_on,67,31,0
1,note_on,67,0,240
1,note_on,70,0,0
1,note_on,65,35,0
1,note_on,69,42,0
1,note_on,69,0,480
1,note_on,65,0,0
1,note_on,64,30,0
1,note_on,67,36,0
1,note_on,67,0,480
1,note_on,64,0,0
1,note_on,65,35,0
1,note_on,69,42,0
1,note_on,69,0,240
1,note_on,65,0,0
1,note_on,77,35,0
1,note_on,77,0,220
1,note_on,79,37,20
1,note_on,79,0,220
1,note_on,81,38,20
1,note_on,81,0,220
1,note_on,82,40,20
1,note_on,82,0,220
1,note_on,84,41,20
1,note_on,84,0,220
1,note_on,86,46,20
1,note_on,86,0,480
1,note_on,86,44,0
1,note_on,86,0,480
1,note_on,86,44,0
1,note_on,86,0,480
1,note_on,86,46,0
1,note_on,86,0,720
1,note_on,88,39,0
1,note_on,88,0,120
1,note_on,86,39,0
1,note_on,86,0,120
1,note_on,84,46,0
1,note_on,84,0,480
1,note_on,84,46,0
1,note_on,76,35,0
1,note_on,84,0,240
1,note_on,82,41,0
1,note_on,82,0,240
1,note_on,76,0,0
1,note_on,76,35,0
1,note_on,82,46,0
1,note_on,82,0,480
1,note_on,76,0,0
1,note_on,82,41,0
1,note_on,76,32,0
1,note_on,76,0,480
1,note_on,82,0,0
1,note_on,76,35,0
1,note_on,82,46,0
1,note_on,82,0,960
1,note_on,76,0,0
1,note_on,81,42,0
1,note_on,77,33,0
1,note_on,77,0,480
1,note_on,81,0,0
1,note_on,84,46,0
1,note_on,81,35,0
1,note_on,81,0,240
1,note_on,84,0,0
1,note_on,82,40,0
1,note_on,79,31,0
1,note_on,79,0,240
1,note_on,82,0,0
1,note_on,81,46,0
1,note_on,77,35,0
1,note_on,77,0,480
1,note_on,81,0,0
1,note_on,76,30,0
1,note_on,79,39,0
1,note_on,79,0,480
1,note_on,76,0,0
1,note_on,84,63,0
1,note_on,81,63,0
1,note_on,81,0,120
1,note_on,84,0,0
1,note_on,84,50,120
1,note_on,81,50,0
1,note_on,81,0,120
1,note_on,84,0,0
1,note_on,79,33,360
1,note_on,82,33,0
1,note_on,82,0,120
1,note_on,79,0,0
1,note_on,77,33,360
1,note_on,81,33,0
1,note_on,81,0,120
1,note_on,77,0,0
1,note_on,79,33,360
1,note_on,70,33,0
1,note_on,70,0,120
1,note_on,79,0,0
1,note_on,77,33,360
1,note_on,69,33,0
1,note_on,69,0,120
1,note_on,77,0,0
1,note_on,67,33,360
1,note_on,76,33,0
1,note_on,76,0,120
1,note_on,67,0,0
1,note_on,81,72,240
1,note_on,81,0,120
1,note_on,84,75,0
1,note_on,84,0,120
1,note_on,81,72,0
1,note_on,81,0,120
1,note_on,79,70,120
1,note_on,79,0,120
1,note_on,82,75,0
1,note_on,82,0,120
1,note_on,79,70,0
1,note_on,79,0,120
1,note_on,77,72,120
1,note_on,77,0,120
1,note_on,81,75,0
1,note_on,81,0,120
1,note_on,77,71,0
1,note_on,77,0,120
1,note_on,70,71,120
1,note_on,70,0,120
1,note_on,79,75,0
1,note_on,79,0,120
1,note_on,70,71,0
1,note_on,70,0,120
1,note_on,69,71,120
1,note_on,69,0,120
1,note_on,77,75,0
1,note_on,77,0,120
1,note_on,69,71,0
1,note_on,69,0,120
1,note_on,67,71,120
1,note_on,67,0,120
1,note_on,76,75,0
1,note_on,76,0,120
1,note_on,67,71,0
1,note_on,67,0,120
1,note_on,69,75,0
1,note_on,72,75,0
1,note_on,77,75,0
1,note_on,77,0,480
1,note_on,72,0,0
1,note_on,69,0,0
1,note_on,69,70,480
1,note_on,69,0,60
1,note_on,70,65,0
1,note_on,70,0,60
1,note_on,69,70,0
1,note_on,69,0,60
1,note_on,70,66,0
1,note_on,70,0,60
1,note_on,69,70,0
1,note_on,69,0,40
1,note_on,70,66,0
1,note_on,70,0,40
1,note_on,69,66,0
1,note_on,69,0,40
1,note_on,67,70,0
1,note_on,67,0,60
1,note_on,65,66,0
1,note_on,65,0,60
1,note_on,72,75,0
1,note_on,72,0,960
1,note_on,76,70,0
1,note_on,76,0,60
1,note_on,77,66,0
1,note_on,77,0,60
1,note_on,76,70,0
1,note_on,76,0,60
1,note_on,77,66,0
1,note_on,77,0,60
1,note_on,76,70,0
1,note_on,76,0,40
1,note_on,77,65,0
1,note_on,77,0,40
1,note_on,76,66,0
1,note_on,76,0,40
1,note_on,74,70,0
1,note_on,74,0,60
1,note_on,72,65,0
1,note_on,72,0,60
1,note_on,77,75,0
1,note_on,77,0,960
1,note_on,81,70,0
1,note_on,82,65,60
1,note_on,81,0,0
1,note_on,82,0,60
1,note_on,81,70,0
1,note_on,81,0,60
1,note_on,82,66,0
1,note_on,82,0,60
1,note_on,81,70,0
1,note_on,81,0,40
1,note_on,82,66,0
1,note_on,82,0,40
1,note_on,81,66,0
1,note_on,81,0,40
1,note_on,79,70,0
1,note_on,79,0,60
1,note_on,77,66,0
1,note_on,77,0,60
1,note_on,84,75,0
1,note_on,84,0,240
1,note_on,84,75,240
1,note_on,84,0,240
1,note_on,88,70,240
1,note_on,88,0,60
1,note_on,89,66,0
1,note_on,89,0,60
1,note_on,88,70,0
1,note_on,88,0,60
1,note_on,89,66,0
1,note_on,89,0,60
1,note_on,88,70,0
1,note_on,88,0,40
1,note_on,89,65,0
1,note_on,89,0,40
1,note_on,88,66,0
1,note_on,88,0,40
1,note_on,86,70,0
1,note_on,86,0,60
1,note_on,84,65,0
1,note_on,84,0,60
1,note_on,89,75,0
1,note_on,89,0,120
1,note_on,81,88,360
1,note_on,81,0,720
1,note_on,73,75,0
1,note_on,73,0,240
1,note_on,74,75,0
1,note_on,74,0,120
1,note_on,77,89,360
1,note_on,77,0,720
1,note_on,69,75,0
1,note_on,69,0,240
1,note_on,70,70,0
1,note_on,70,0,60
1,note_on,72,65,0
1,note_on,72,0,60
1,note_on,70,70,0
1,note_on,70,0,60
1,note_on,72,66,0
1,note_on,72,0,60
1,note_on,70,70,0
1,note_on,70,0,40
1,note_on,72,66,0
1,note_on,72,0,40
1,note_on,70,66,0
1,note_on,70,0,40
1,note_on,69,70,0
1,note_on,69,0,60
1,note_on,67,66,0
1,note_on,67,0,60
1,note_on,72,84,0
1,note_on,72,0,120
1,note_on,72,72,360
1,note_on,67,72,0
1,note_on,76,86,0
1,note_on,76,0,120
1,note_on,67,0,0
1,note_on,72,0,0
1,note_on,77,86,360
1,note_on,69,72,0
1,note_on,72,72,0
1,note_on,72,0,120
1,note_on,69,0,0
1,note_on,77,0,0
1,note_on,65,79,360
1,note_on,65,0,120
1,note_on,67,50,840
1,note_on,72,46,480
1,note_on,72,0,480
1,note_on,76,46,0
1,note_on,76,0,480
1,note_on,67,0,0
1,note_on,67,45,0
1,note_on,76,53,0
1,note_on,72,48,0
1,note_on,72,0,960
1,note_on,76,0,0
1,note_on,71,43,0
1,note_on,74,43,0
1,note_on,74,0,480
1,note_on,71,0,0
1,note_on,67,0,0
1,note_on,79,50,0
1,note_on,79,0,480
1,note_on,72,46,0
1,note_on,67,40,0
1,note_on,72,0,480
1,note_on,76,46,0
1,note_on,76,0,480
1,note_on,67,0,0
1,note_on,67,45,0
1,note_on,72,48,0
1,note_on,76,53,0
1,note_on,76,0,960
1,note_on,72,0,0
1,note_on,74,43,0
1,note_on,71,43,0
1,note_on,71,0,480
1,note_on,74,0,0
1,note_on,67,0,0
1,note_on,69,50,0
1,note_on,69,0,480
1,note_on,74,50,0
1,note_on,74,0,480
1,note_on,77,50,0
1,note_on,77,0,480
1,note_on,76,50,0
1,note_on,76,0,480
1,note_on,74,50,0
1,note_on,74,0,480
1,note_on,81,50,0
1,note_on,81,0,960
1,note_on,79,50,0
1,note_on,79,0,480
1,note_on,71,50,0
1,note_on,71,0,480
1,note_on,72,50,0
1,note_on,72,0,240
1,note_on,67,50,0
1,note_on,67,0,240
1,note_on,64,50,0
1,note_on,64,0,240
1,note_on,67,50,0
1,note_on,67,0,240
1,note_on,65,50,0
1,note_on,65,0,240
1,note_on,62,50,0
1,note_on,62,0,240
1,note_on,60,50,0
1,note_on,60,0,360
1,note_on,55,43,0
1,note_on,55,0,120
1,note_on,60,46,0
1,note_on,60,0,480
1,note_on,64,48,0
1,note_on,64,0,480
1,note_on,60,50,0
1,note_on,64,55,0
1,note_on,64,0,960
1,note_on,60,0,0
1,note_on,62,43,0
1,note_on,59,43,0
1,note_on,59,0,480
1,note_on,62,0,0
1,note_on,67,50,0
1,note_on,67,0,480
1,note_on,55,40,0
1,note_on,60,46,0
1,note_on,60,0,480
1,note_on,64,48,0
1,note_on,64,0,480
1,note_on,55,0,0
1,note_on,60,50,0
1,note_on,64,55,0
1,note_on,64,0,960
1,note_on,60,0,0
1,note_on,59,43,0
1,note_on,62,43,0
1,note_on,62,0,480
1,note_on,59,0,0
1,note_on,57,50,0
1,note_on,57,0,480
1,note_on,62,50,0
1,note_on,62,0,480
1,note_on,65,50,0
1,note_on,65,0,480
1,note_on,64,50,0
1,note_on,64,0,480
1,note_on,62,50,0
1,note_on,62,0,480
1,note_on,69,50,0
1,note_on,69,0,960
1,note_on,67,50,0
1,note_on,67,0,480
1,note_on,59,50,0
1,note_on,59,0,480
1,note_on,60,52,0
1,note_on,60,0,240
1,note_on,67,34,0
1,note_on,67,0,240
1,note_on,67,34,240
1,note_on,67,0,120
1,note_on,67,34,360
1,note_on,67,0,120
1,note_on,65,34,120
1,note_on,67,40,0
1,note_on,67,0,120
1,note_on,65,0,0
1,note_on,65,28,120
1,note_on,67,33,0
1,note_on,67,0,120
1,note_on,65,0,0
1,note_on,65,28,360
1,note_on,67,33,0
1,note_on,67,0,120
1,note_on,65,0,0
1,note_on,67,33,360
1,note_on,65,28,0
1,note_on,65,0,120
1,note_on,67,0,0
1,note_on,67,40,120
1,note_on,63,34,0
1,note_on,63,0,120
1,note_on,67,0,0
1,note_on,67,34,120
1,note_on,63,28,0
1,note_on,63,0,120
1,note_on,67,0,0
1,note_on,67,34,360
1,note_on,63,28,0
1,note_on,63,0,120
1,note_on,67,0,0
1,note_on,67,34,360
1,note_on,63,28,0
1,note_on,63,0,120
1,note_on,67,0,0
1,note_on,65,34,120
1,note_on,67,40,0
1,note_on,67,0,120
1,note_on,65,0,0
1,note_on,65,28,120
1,note_on,67,33,0
1,note_on,67,0,120
1,note_on,65,0,0
1,note_on,65,28,360
1,note_on,67,33,0
1,note_on,67,0,120
1,note_on,65,0,0
1,note_on,65,23,360
1,note_on,67,33,0
1,note_on,67,0,120
1,note_on,65,0,0
1,note_on,63,53,120
1,note_on,67,63,0
1,note_on,67,0,120
1,note_on,63,0,0
1,note_on,67,50,120
1,note_on,63,42,0
1,note_on,63,0,120
1,note_on,67,0,0
1,note_on,67,33,360
1,note_on,63,28,0
1,note_on,63,0,120
1,note_on,67,0,0
1,note_on,63,28,360
1,note_on,67,33,0
1,note_on,67,0,120
1,note_on,63,0,0
1,note_on,63,53,120
1,note_on,60,53,0
1,note_on,66,63,0
1,note_on,66,0,120
1,note_on,60,0,0
1,note_on,63,0,0
1,note_on,63,42,120
1,note_on,60,42,0
1,note_on,66,50,0
1,note_on,66,0,120
1,note_on,60,0,0
1,note_on,63,0,0
1,note_on,66,33,360
1,note_on,63,28,0
1,note_on,60,28,0
1,note_on,60,0,120
1,note_on,63,0,0
1,note_on,66,0,0
1,note_on,60,28,360
1,note_on,63,28,0
1,note_on,66,33,0
1,note_on,66,0,120
1,note_on,63,0,0
1,note_on,60,0,0
1,note_on,62,53,120
1,note_on,67,63,0
1,note_on,67,0,120
1,note_on,62,0,0
1,note_on,67,50,120
1,note_on,62,42,0
1,note_on,62,0,120
1,note_on,67,0,0
1,note_on,67,33,360
1,note_on,62,28,0
1,note_on,62,0,120
1,note_on,67,0,0
1,note_on,62,28,360
1,note_on,67,33,0
1,note_on,67,0,120
1,note_on,62,0,0
1,note_on,69,53,120
1,note_on,62,53,0
1,note_on,72,63,0
1,note_on,72,0,120
1,note_on,62,0,0
1,note_on,69,0,0
1,note_on,62,42,120
1,note_on,72,50,0
1,note_on,69,42,0
1,note_on,69,0,120
1,note_on,72,0,0
1,note_on,62,0,0
1,note_on,69,28,360
1,note_on,72,33,0
1,note_on,62,28,0
1,note_on,62,0,120
1,note_on,72,0,0
1,note_on,69,0,0
1,note_on,72,33,360
1,note_on,62,28,0
1,note_on,69,28,0
1,note_on,69,0,120
1,note_on,62,0,0
1,note_on,72,0,0
1,note_on,70,63,120
1,note_on,67,53,0
1,note_on,62,53,0
1,note_on,62,0,120
1,note_on,67,0,0
1,note_on,70,0,0
1,note_on,62,42,120
1,note_on,67,42,0
1,note_on,70,50,0
1,note_on,70,0,120
1,note_on,67,0,0
1,note_on,62,0,0
1,note_on,62,28,360
1,note_on,70,33,0
1,note_on,67,28,0
1,note_on,67,0,120
1,note_on,70,0,0
1,note_on,62,0,0
1,note_on,62,28,360
1,note_on,70,33,0
1,note_on,67,28,0
1,note_on,67,0,120
1,note_on,70,0,0
1,note_on,62,0,0
1,note_on,70,53,120
1,note_on,67,53,0
1,note_on,73,63,0
1,note_on,73,0,120
1,note_on,67,0,0
1,note_on,70,0,0
1,note_on,70,42,120
1,note_on,73,50,0
1,note_on,67,42,0
1,note_on,67,0,120
1,note_on,73,0,0
1,note_on,70,0,0
1,note_on,67,28,360
1,note_on,70,28,0
1,note_on,73,33,0
1,note_on,73,0,120
1,note_on,70,0,0
1,note_on,67,0,0
1,note_on,73,33,360
1,note_on,70,28,0
1,note_on,67,28,0
1,note_on,67,0,120
1,note_on,70,0,0
1,note_on,73,0,0
1,note_on,74,63,120
1,note_on,69,53,0
1,note_on,69,0,120
1,note_on,74,0,0
1,note_on,69,42,120
1,note_on,74,50,0
1,note_on,74,0,120
1,note_on,69,0,0
1,note_on,69,28,360
1,note_on,74,33,0
1,note_on,74,0,120
1,note_on,69,0,0
1,note_on,69,28,360
1,note_on,74,33,0
1,note_on,74,0,120
1,note_on,69,0,0
1,note_on,76,53,120
1,note_on,69,53,0
1,note_on,79,63,0
1,note_on,79,0,120
1,note_on,69,0,0
1,note_on,76,0,0
1,note_on,79,50,120
1,note_on,69,42,0
1,note_on,76,42,0
1,note_on,76,0,120
1,note_on,69,0,0
1,note_on,79,0,0
1,note_on,79,33,360
1,note_on,76,28,0
1,note_on,69,28,0
1,note_on,69,0,120
1,note_on,76,0,0
1,note_on,79,0,0
1,note_on,76,28,360
1,note_on,79,33,0
1,note_on,69,28,0
1,note_on,69,0,120
1,note_on,79,0,0
1,note_on,76,0,0
1,note_on,74,53,120
1,note_on,77,63,0
1,note_on,69,53,0
1,note_on,69,0,120
1,note_on,77,0,0
1,note_on,74,0,0
1,note_on,69,42,120
1,note_on,77,50,0
1,note_on,74,42,0
1,note_on,74,0,120
1,note_on,77,0,0
1,note_on,69,0,0
1,note_on,77,33,360
1,note_on,74,28,0
1,note_on,69,28,0
1,note_on,69,0,120
1,note_on,74,0,0
1,note_on,77,0,0
1,note_on,74,28,360
1,note_on,77,33,0
1,note_on,69,28,0
1,note_on,69,0,120
1,note_on,77,0,0
1,note_on,74,0,0
1,note_on,80,65,120
1,note_on,74,53,0
1,note_on,74,0,120
1,note_on,80,0,0
1,note_on,80,54,120
1,note_on,74,42,0
1,note_on,74,0,120
1,note_on,80,0,0
1,note_on,80,33,360
1,note_on,74,28,0
1,note_on,74,0,120
1,note_on,80,0,0
1,note_on,74,28,360
1,note_on,80,33,0
1,note_on,80,0,120
1,note_on,74,0,0
1,note_on,81,38,120
1,note_on,73,32,0
1,note_on,73,0,235
1,note_on,81,0,0
1,note_on,81,37,5
1,note_on,77,31,0
1,note_on,76,28,240
1,note_on,79,33,0
1,note_on,77,0,10
1,note_on,81,0,0
1,note_on,77,31,230
1,note_on,74,26,0
1,note_on,76,0,10
1,note_on,79,0,0
1,note_on,73,28,230
1,note_on,76,33,0
1,note_on,77,0,10
1,note_on,74,0,0
1,note_on,77,30,230
1,note_on,74,25,0
1,note_on,73,0,10
1,note_on,76,0,0
1,note_on,73,32,230
1,note_on,76,38,0
1,note_on,77,0,10
1,note_on,74,0,0
1,note_on,73,0,230
1,note_on,76,0,0
1,note_on,69,37,0
1,note_on,65,31,0
1,note_on,67,33,240
1,note_on,64,28,0
1,note_on,65,0,10
1,note_on,69,0,0
1,note_on,62,26,230
1,note_on,65,31,0
1,note_on,67,0,10
1,note_on,64,0,0
1,note_on,64,33,230
1,note_on,61,28,0
1,note_on,62,0,10
1,note_on,65,0,0
1,note_on,65,30,230
1,note_on,62,25,0
1,note_on,64,0,10
1,note_on,61,0,0
1,note_on,61,31,230
1,note_on,64,37,0
1,note_on,65,0,10
1,note_on,62,0,0
1,note_on,65,32,230
1,note_on,62,27,0
1,note_on,61,0,10
1,note_on,64,0,0
1,note_on,61,31,230
1,note_on,64,37,0
1,note_on,65,0,10
1,note_on,62,0,0
1,note_on,65,34,230
1,note_on,62,28,0
1,note_on,61,0,10
1,note_on,64,0,0
1,note_on,61,31,230
1,note_on,64,37,0
1,note_on,65,0,10
1,note_on,62,0,0
1,note_on,62,28,230
1,note_on,65,34,0
1,note_on,61,0,10
1,note_on,64,0,0
1,note_on,62,0,230
1,note_on,65,0,0
1,note_on,64,37,0
1,note_on,61,31,0
1,note_on,61,0,480
1,note_on,64,0,0
1,note_on,60,24,960
1,note_on,64,29,0
1,note_on,65,25,240
1,note_on,62,21,0
1,note_on,64,0,10
1,note_on,60,0,0
1,note_on,64,29,230
1,note_on,60,24,0
1,note_on,65,0,10
1,note_on,62,0,0
1,note_on,62,22,230
1,note_on,65,27,0
1,note_on,64,0,10
1,note_on,60,0,0
1,note_on,64,29,230
1,note_on,60,24,0
1,note_on,62,0,10
1,note_on,65,0,0
1,note_on,65,27,230
1,note_on,62,22,0
1,note_on,64,0,10
1,note_on,60,0,0
1,note_on,60,31,230
1,note_on,64,29,0
1,note_on,65,0,10
1,note_on,62,0,0
1,note_on,60,0,470
1,note_on,64,0,0
1,note_on,58,49,960
1,note_on,60,49,0
1,note_on,64,59,0
1,note_on,65,51,240
1,note_on,64,0,10
1,note_on,64,59,230
1,note_on,65,0,10
1,note_on,65,55,230
1,note_on,64,0,10
1,note_on,64,59,230
1,note_on,65,0,10
1,note_on,65,55,230
1,note_on,64,0,10
1,note_on,64,59,230
1,note_on,65,0,10
1,note_on,58,0,470
1,note_on,60,0,0
1,note_on,64,0,0
1,note_on,76,31,960
1,note_on,82,37,0
1,note_on,81,32,240
1,note_on,82,0,10
1,note_on,82,37,230
1,note_on,81,0,10
1,note_on,81,34,230
1,note_on,82,0,10
1,note_on,82,37,230
1,note_on,81,0,10
1,note_on,81,34,230
1,note_on,82,0,10
1,note_on,81,0,230
1,note_on,82,37,0
1,note_on,82,0,480
1,note_on,76,0,0
1,note_on,65,50,960
1,note_on,65,0,960
1,note_on,69,47,0
1,note_on,69,0,480
1,note_on,72,52,0
1,note_on,72,0,960
1,note_on,69,46,0
1,note_on,69,0,480
1,note_on,70,50,0
1,note_on,70,0,960
1,note_on,79,47,0
1,note_on,79,0,480
1,note_on,77,47,0
1,note_on,77,0,240
1,note_on,76,44,0
1,note_on,76,0,240
1,note_on,76,44,0
1,note_on,76,0,480
1,note_on,77,50,480
1,note_on,77,0,480
1,note_on,69,46,0
1,note_on,69,0,480
1,note_on,74,46,0
1,note_on,74,0,480
1,note_on,67,50,0
1,note_on,67,0,480
1,note_on,72,54,0
1,note_on,72,0,720
1,note_on,69,45,0
1,note_on,69,0,240
1,note_on,65,50,0
1,note_on,67,50,1440
1,note_on,65,0,480
1,note_on,64,42,0
1,note_on,64,0,60
1,note_on,65,37,0
1,note_on,65,0,60
1,note_on,64,48,0
1,note_on,64,0,120
1,note_on,62,48,0
1,note_on,62,0,240
1,note_on,64,50,0
1,note_on,64,0,480
1,note_on,67,0,0
1,note_on,69,48,0
1,note_on,65,48,0
1,note_on,69,0,480
1,note_on,70,52,0
1,note_on,70,0,480
1,note_on,74,55,0
1,note_on,74,0,480
1,note_on,74,58,0
1,note_on,74,0,240
1,note_on,72,57,0
1,note_on,72,0,240
1,note_on,65,0,0
1,note_on,70,56,0
1,note_on,70,0,240
1,note_on,69,54,0
1,note_on,69,0,240
1,note_on,67,53,0
1,note_on,67,0,240
1,note_on,65,51,0
1,note_on,65,0,240
1,note_on,67,54,0
1,note_on,67,0,480
1,note_on,70,50,0
1,note_on,70,0,120
1,note_on,58,54,360
1,note_on,64,54,0
1,note_on,64,0,480
1,note_on,58,0,0
1,note_on,65,56,0
1,note_on,57,56,0
1,note_on,57,0,480
1,note_on,65,0,0
1,note_on,84,50,480
1,note_on,84,0,360
1,note_on,82,44,0
1,note_on,82,0,120
1,note_on,81,50,0
1,note_on,81,0,120
1,note_on,81,50,360
1,note_on,81,0,120
1,note_on,81,47,360
1,note_on,81,0,360
1,note_on,79,42,0
1,note_on,79,0,120
1,note_on,77,48,0
1,note_on,77,0,120
1,note_on,77,44,360
1,note_on,77,0,120
1,note_on,77,44,360
1,note_on,77,0,480
1,note_on,76,46,0
1,note_on,79,46,0
1,note_on,79,0,120
1,note_on,76,0,0
1,note_on,76,44,360
1,note_on,79,44,0
1,note_on,79,0,120
1,note_on,76,0,0
1,note_on,79,44,360
1,note_on,76,44,0
1,note_on,76,0,120
1,note_on,79,0,0
1,note_on,76,50,360
1,note_on,79,50,0
1,note_on,79,0,480
1,note_on,76,0,0
1,note_on,81,44,0
1,note_on,77,44,0
1,note_on,77,0,480
1,note_on,81,0,0
1,note_on,84,50,0
1,note_on,84,0,120
1,note_on,86,44,0
1,note_on,86,0,120
1,note_on,84,44,0
1,note_on,84,0,120
1,note_on,82,44,0
1,note_on,82,0,120
1,note_on,81,50,0
1,note_on,81,0,120
1,note_on,81,50,360
1,note_on,81,0,120
1,note_on,81,47,360
1,note_on,81,0,120
1,note_on,82,42,0
1,note_on,82,0,120
1,note_on,81,42,0
1,note_on,81,0,120
1,note_on,79,42,0
1,note_on,79,0,120
1,note_on,77,48,0
1,note_on,77,0,120
1,note_on,77,44,360
1,note_on,77,0,120
1,note_on,77,44,360
1,note_on,77,0,120
1,note_on,79,49,360
1,note_on,79,0,480
1,note_on,82,44,0
1,note_on,82,0,120
1,note_on,76,44,360
1,note_on,70,35,0
1,note_on,70,0,480
1,note_on,76,0,0
1,note_on,69,38,0
1,note_on,77,48,0
1,note_on,77,0,480
1,note_on,69,0,0
1,note_on,84,44,480
1,note_on,84,0,480
1,note_on,77,48,0
1,note_on,77,0,480
1,note_on,72,39,480
1,note_on,72,0,480
1,note_on,65,43,0
1,note_on,65,0,480
1,note_on,61,80,480
1,note_on,61,0,480
1,note_on,62,85,0
1,note_on,62,0,720
1,note_on,65,70,0
1,note_on,65,0,120
1,note_on,69,72,0
1,note_on,69,0,120
1,note_on,74,84,0
1,note_on,74,0,120
1,note_on,69,71,120
1,note_on,69,0,120
1,note_on,74,73,0
1,note_on,74,0,120
1,note_on,77,86,0
1,note_on,77,0,120
1,note_on,74,71,120
1,note_on,74,0,120
1,note_on,77,73,0
1,note_on,77,0,120
1,note_on,81,87,0
1,note_on,81,0,120
1,note_on,81,80,120
1,note_on,81,0,240
1,note_on,77,80,0
1,note_on,77,0,240
1,note_on,74,80,0
1,note_on,74,0,120
1,note_on,73,70,0
1,note_on,73,0,40
1,note_on,76,70,0
1,note_on,76,0,40
1,note_on,79,70,0
1,note_on,79,0,40
1,note_on,82,90,0
1,note_on,82,0,720
1,note_on,81,71,0
1,note_on,79,68,120
1,note_on,81,0,12
1,note_on,77,68,108
1,note_on,79,0,12
1,note_on,76,68,108
1,note_on,77,0,12
1,note_on,74,69,108
1,note_on,76,0,12
1,note_on,73,72,108
1,note_on,74,0,12
1,note_on,82,90,108
1,note_on,73,0,12
1,note_on,82,0,708
1,note_on,81,71,0
1,note_on,79,68,120
1,note_on,81,0,12
1,note_on,77,68,108
1,note_on,79,0,12
1,note_on,76,68,108
1,note_on,77,0,12
1,note_on,74,69,108
1,note_on,76,0,12
1,note_on,73,72,108
1,note_on,74,0,12
1,note_on,74,88,108
1,note_on,73,0,12
1,note_on,74,0,708
1,note_on,65,70,0
1,note_on,65,0,120
1,note_on,69,72,0
1,note_on,69,0,120
1,note_on,74,84,0
1,note_on,74,0,120
1,note_on,69,71,120
1,note_on,69,0,120
1,note_on,74,73,0
1,note_on,74,0,120
1,note_on,77,86,0
1,note_on,77,0,120
1,note_on,74,71,120
1,note_on,74,0,120
1,note_on,77,73,0
1,note_on,77,0,120
1,note_on,81,87,0
1,note_on,81,0,120
1,note_on,81,80,120
1,note_on,81,0,240
1,note_on,77,80,0
1,note_on,77,0,240
1,note_on,74,80,0
1,note_on,74,0,240
1,note_on,74,75,0
1,note_on,80,90,0
1,note_on,77,75,0
1,note_on,71,75,0
1,note_on,71,0,720
1,note_on,74,0,0
1,note_on,80,0,0
1,note_on,77,0,0
1,note_on,79,71,0
1,note_on,77,68,120
1,note_on,79,0,12
1,note_on,75,68,108
1,note_on,77,0,12
1,note_on,74,68,108
1,note_on,75,0,12
1,note_on,72,69,108
1,note_on,74,0,12
1,note_on,71,72,108
1,note_on,72,0,12
1,note_on,80,90,108
1,note_on,71,0,12
1,note_on,80,0,708
1,note_on,79,71,0
1,note_on,77,68,120
1,note_on,79,0,12
1,note_on,75,68,108
1,note_on,77,0,12
1,note_on,74,68,108
1,note_on,75,0,12
1,note_on,72,69,108
1,note_on,74,0,12
1,note_on,71,72,108
1,note_on,72,0,12
1,note_on,72,88,108
1,note_on,71,0,12
1,note_on,72,0,708
1,note_on,63,70,0
1,note_on,63,0,120
1,note_on,67,72,0
1,note_on,67,0,120
1,note_on,72,84,0
1,note_on,72,0,120
1,note_on,67,71,120
1,note_on,67,0,120
1,note_on,72,73,0
1,note_on,72,0,120
1,note_on,75,86,0
1,note_on,75,0,120
1,note_on,72,71,120
1,note_on,72,0,120
1,note_on,75,73,0
1,note_on,75,0,120
1,note_on,79,87,0
1,note_on,79,0,120
1,note_on,79,80,120
1,note_on,79,0,240
1,note_on,75,80,0
1,note_on,75,0,240
1,note_on,72,80,0
1,note_on,72,0,240
1,note_on,72,75,0
1,note_on,78,90,0
1,note_on,75,75,0
1,note_on,69,75,0
1,note_on,69,0,720
1,note_on,72,0,0
1,note_on,78,0,0
1,note_on,75,0,0
1,note_on,77,71,0
1,note_on,75,68,120
1,note_on,77,0,12
1,note_on,73,68,108
1,note_on,75,0,12
1,note_on,72,68,108
1,note_on,73,0,12
1,note_on,70,69,108
1,note_on,72,0,12
1,note_on,69,72,108
1,note_on,70,0,12
1,note_on,78,90,108
1,note_on,69,0,12
1,note_on,78,0,708
1,note_on,77,71,0
1,note_on,75,68,120
1,note_on,77,0,12
1,note_on,73,68,108
1,note_on,75,0,12
1,note_on,72,68,108
1,note_on,73,0,12
1,note_on,70,69,108
1,note_on,72,0,12
1,note_on,69,72,108
1,note_on,70,0,12
1,note_on,70,88,108
1,note_on,69,0,12
1,note_on,70,0,588
1,note_on,65,69,0
1,note_on,65,0,120
1,note_on,70,74,0
1,note_on,70,0,120
1,note_on,65,70,0
1,note_on,65,0,120
1,note_on,73,74,0
1,note_on,73,0,120
1,note_on,70,71,0
1,note_on,70,0,120
1,note_on,73,75,0
1,note_on,73,0,120
1,note_on,70,70,0
1,note_on,70,0,120
1,note_on,77,74,0
1,note_on,77,0,120
1,note_on,73,71,0
1,note_on,73,0,120
1,note_on,77,74,0
1,note_on,77,0,120
1,note_on,73,71,0
1,note_on,73,0,120
1,note_on,82,91,0
1,note_on,82,0,480
1,note_on,69,88,480
1,note_on,69,0,600
1,note_on,65,69,0
1,note_on,65,0,120
1,note_on,69,74,0
1,note_on,69,0,120
1,note_on,65,70,0
1,note_on,65,0,120
1,note_on,72,74,0
1,note_on,72,0,120
1,note_on,69,71,0
1,note_on,69,0,120
1,note_on,72,75,0
1,note_on,72,0,120
1,note_on,69,70,0
1,note_on,69,0,120
1,note_on,77,74,0
1,note_on,77,0,120
1,note_on,72,71,0
1,note_on,72,0,120
1,note_on,77,74,0
1,note_on,77,0,120
1,note_on,72,71,0
1,note_on,72,0,120
1,note_on,81,91,0
1,note_on,81,0,480
1,note_on,68,88,480
1,note_on,68,0,600
1,note_on,65,69,0
1,note_on,65,0,120
1,note_on,68,74,0
1,note_on,68,0,120
1,note_on,65,70,0
1,note_on,65,0,120
1,note_on,74,74,0
1,note_on,74,0,120
1,note_on,68,71,0
1,note_on,68,0,120
1,note_on,74,75,0
1,note_on,74,0,120
1,note_on,68,70,0
1,note_on,68,0,120
1,note_on,77,74,0
1,note_on,77,0,120
1,note_on,74,71,0
1,note_on,74,0,120
1,note_on,77,74,0
1,note_on,77,0,120
1,note_on,74,71,0
1,note_on,74,0,120
1,note_on,80,91,0
1,note_on,80,0,480
1,note_on,77,81,0
1,note_on,77,0,360
1,note_on,72,70,0
1,note_on,72,0,40
1,note_on,76,70,0
1,note_on,76,0,40
1,note_on,79,70,0
1,note_on,79,0,40
1,note_on,84,90,0
1,note_on,84,0,960
1,note_on,82,72,0
1,note_on,80,72,120
1,note_on,82,0,10
1,note_on,79,73,110
1,note_on,80,0,10
1,note_on,77,76,110
1,note_on,79,0,10
1,note_on,77,0,110
1,note_on,84,90,0
1,note_on,84,0,960
1,note_on,82,72,0
1,note_on,80,72,120
1,note_on,82,0,10
1,note_on,79,73,110
1,note_on,80,0,10
1,note_on,77,76,110
1,note_on,79,0,10
1,note_on,77,0,110
1,note_on,72,90,0
1,note_on,72,0,720
1,note_on,73,79,0
1,note_on,72,78,120
1,note_on,73,0,10
1,note_on,70,76,110
1,note_on,72,0,10
1,note_on,68,75,110
1,note_on,70,0,10
1,note_on,67,74,110
1,note_on,68,0,10
1,note_on,65,72,110
1,note_on,67,0,10
1,note_on,72,79,110
1,note_on,65,0,10
1,note_on,72,0,110
1,note_on,60,72,360
1,note_on,60,0,120
1,note_on,60,41,780
1,note_on,60,0,60
1,note_on,69,45,0
1,note_on,69,0,120
1,note_on,69,43,360
1,note_on,69,0,120
1,note_on,69,43,360
1,note_on,69,0,120
1,note_on,64,42,300
1,note_on,64,0,60
1,note_on,72,45,0
1,note_on,72,0,720
1,note_on,70,41,0
1,note_on,70,0,240
1,note_on,67,41,0
1,note_on,67,0,480
1,note_on,57,45,0
1,note_on,67,45,0
1,note_on,67,0,240
1,note_on,65,41,0
1,note_on,65,0,240
1,note_on,57,0,0
1,note_on,65,45,0
1,note_on,60,45,0
1,note_on,60,0,720
1,note_on,65,0,0
1,note_on,64,45,0
1,note_on,67,45,0
1,note_on,67,0,240
1,note_on,64,0,0
1,note_on,67,49,0
1,note_on,64,49,0
1,note_on,64,0,960
1,note_on,67,0,0
1,note_on,65,45,0
1,note_on,69,45,0
1,note_on,69,0,480
1,note_on,65,0,0
1,note_on,70,45,0
1,note_on,70,0,720
1,note_on,72,46,0
1,note_on,72,0,60
1,note_on,70,42,0
1,note_on,70,0,60
1,note_on,69,42,0
1,note_on,69,0,60
1,note_on,70,45,0
1,note_on,70,0,40
1,note_on,72,49,20
1,note_on,72,0,240
1,note_on,74,47,0
1,note_on,74,0,240
1,note_on,74,55,0
1,note_on,74,0,240
1,note_on,72,49,0
1,note_on,72,0,240
1,note_on,71,52,0
1,note_on,71,0,240
1,note_on,72,45,0
1,note_on,72,0,240
1,note_on,70,50,0
1,note_on,70,0,240
1,note_on,67,45,0
1,note_on,67,0,240
1,note_on,68,49,0
1,note_on,68,0,240
1,note_on,69,45,0
1,note_on,69,0,240
1,note_on,70,50,0
1,note_on,70,0,240
1,note_on,69,45,0
1,note_on,69,0,240
1,note_on,72,49,0
1,note_on,72,0,240
1,note_on,70,45,0
1,note_on,70,0,240
1,note_on,69,52,0
1,note_on,69,0,240
1,note_on,67,45,0
1,note_on,67,0,240
1,note_on,65,48,0
1,note_on,65,0,240
1,note_on,64,45,0
1,note_on,64,0,240
1,note_on,62,46,0
1,note_on,62,0,240
1,note_on,60,45,0
1,note_on,60,0,240
1,note_on,68,39,0
1,note_on,80,49,0
1,note_on,80,0,240
1,note_on,68,0,0
1,note_on,69,33,0
1,note_on,81,42,0
1,note_on,81,0,240
1,note_on,69,0,0
1,note_on,68,39,0
1,note_on,80,49,0
1,note_on,80,0,240
1,note_on,68,0,0
1,note_on,69,32,0
1,note_on,81,41,0
1,note_on,81,0,240
1,note_on,69,0,0
1,note_on,68,41,0
1,note_on,80,52,0
1,note_on,80,0,240
1,note_on,68,0,0
1,note_on,69,38,0
1,note_on,81,48,0
1,note_on,81,0,240
1,note_on,69,0,0
1,note_on,71,46,0
1,note_on,83,58,0
1,note_on,83,0,240
1,note_on,71,0,0
1,note_on,72,42,0
1,note_on,84,53,0
1,note_on,84,0,240
1,note_on,72,0,0
1,note_on,71,46,0
1,note_on,83,58,0
1,note_on,83,0,240
1,note_on,71,0,0
1,note_on,72,36,0
1,note_on,84,46,0
1,note_on,84,0,240
1,note_on,72,0,0
1,note_on,82,49,0
1,note_on,82,0,240
1,note_on,79,39,0
1,note_on,79,0,240
1,note_on,79,45,0
1,note_on,79,0,240
1,note_on,77,41,0
1,note_on,77,0,240
1,note_on,79,45,0
1,note_on,72,41,0
1,note_on,79,0,240
1,note_on,77,41,0
1,note_on,77,0,240
1,note_on,72,0,0
1,note_on,76,41,0
1,note_on,81,45,0
1,note_on,81,0,240
1,note_on,79,45,0
1,note_on,79,0,240
1,note_on,76,0,0
1,note_on,76,49,0
1,note_on,79,49,0
1,note_on,79,0,720
1,note_on,80,49,0
1,note_on,80,0,240
1,note_on,76,0,0
1,note_on,81,45,0
1,note_on,77,45,0
1,note_on,77,0,480
1,note_on,81,0,0
1,note_on,82,49,0
1,note_on,82,0,720
1,note_on,84,50,0
1,note_on,84,0,60
1,note_on,82,46,0
1,note_on,82,0,60
1,note_on,81,46,0
1,note_on,81,0,60
1,note_on,82,49,0
1,note_on,82,0,40
1,note_on,84,53,20
1,note_on,84,0,240
1,note_on,86,51,0
1,note_on,86,0,240
1,note_on,86,60,0
1,note_on,86,0,240
1,note_on,84,53,0
1,note_on,84,0,240
1,note_on,83,57,0
1,note_on,83,0,240
1,note_on,84,49,0
1,note_on,84,0,240
1,note_on,82,55,0
1,note_on,82,0,240
1,note_on,79,49,0
1,note_on,79,0,240
1,note_on,80,53,0
1,note_on,80,0,240
1,note_on,81,49,0
1,note_on,81,0,240
1,note_on,84,55,0
1,note_on,84,0,240
1,note_on,82,49,0
1,note_on,82,0,240
1,note_on,79,53,0
1,note_on,79,0,240
1,note_on,76,49,0
1,note_on,76,0,240
1,note_on,77,54,0
1,note_on,77,0,240
1,note_on,72,35,0
1,note_on,72,0,240
1,note_on,72,35,240
1,note_on,72,0,120
1,note_on,72,35,360
1,note_on,72,0,120
1,note_on,70,35,120
1,note_on,72,42,0
1,note_on,72,0,120
1,note_on,70,0,0
1,note_on,72,34,120
1,note_on,70,29,0
1,note_on,70,0,120
1,note_on,72,0,0
1,note_on,70,29,360
1,note_on,72,34,0
1,note_on,72,0,120
1,note_on,70,0,0
1,note_on,72,34,360
1,note_on,70,29,0
1,note_on,70,0,120
1,note_on,72,0,0
1,note_on,68,35,120
1,note_on,72,42,0
1,note_on,72,0,120
1,note_on,68,0,0
1,note_on,68,29,120
1,note_on,72,35,0
1,note_on,72,0,120
1,note_on,68,0,0
1,note_on,68,29,360
1,note_on,72,35,0
1,note_on,72,0,120
1,note_on,68,0,0
1,note_on,72,35,360
1,note_on,68,29,0
1,note_on,68,0,120
1,note_on,72,0,0
1,note_on,72,42,120
1,note_on,70,35,0
1,note_on,70,0,120
1,note_on,72,0,0
1,note_on,72,34,120
1,note_on,70,29,0
1,note_on,70,0,120
1,note_on,72,0,0
1,note_on,72,34,360
1,note_on,70,29,0
1,note_on,70,0,120
1,note_on,72,0,0
1,note_on,70,29,360
1,note_on,72,34,0
1,note_on,72,0,120
1,note_on,70,0,0
1,note_on,72,63,120
1,note_on,68,63,0
1,note_on,68,0,120
1,note_on,72,0,0
1,note_on,68,50,120
1,note_on,72,50,0
1,note_on,72,0,120
1,note_on,68,0,0
1,note_on,72,33,360
1,note_on,68,33,0
1,note_on,68,0,120
1,note_on,72,0,0
1,note_on,72,33,360
1,note_on,68,33,0
1,note_on,68,0,120
1,note_on,72,0,0
1,note_on,73,63,120
1,note_on,68,63,0
1,note_on,68,0,120
1,note_on,73,0,0
1,note_on,68,50,120
1,note_on,73,50,0
1,note_on,73,0,120
1,note_on,68,0,0
1,note_on,68,33,360
1,note_on,73,33,0
1,note_on,73,0,120
1,note_on,68,0,0
1,note_on,73,33,360
1,note_on,68,33,0
1,note_on,68,0,120
1,note_on,73,0,0
1,note_on,67,63,120
1,note_on,73,63,0
1,note_on,73,0,120
1,note_on,67,0,0
1,note_on,73,50,120
1,note_on,67,50,0
1,note_on,67,0,120
1,note_on,73,0,0
1,note_on,73,33,360
1,note_on,67,33,0
1,note_on,67,0,120
1,note_on,73,0,0
1,note_on,67,33,360
1,note_on,73,33,0
1,note_on,73,0,120
1,note_on,67,0,0
1,note_on,67,63,120
1,note_on,72,63,0
1,note_on,72,0,120
1,note_on,67,0,0
1,note_on,72,50,120
1,note_on,67,50,0
1,note_on,67,0,120
1,note_on,72,0,0
1,note_on,67,33,360
1,note_on,72,33,0
1,note_on,72,0,120
1,note_on,67,0,0
1,note_on,72,33,360
1,note_on,67,33,0
1,note_on,67,0,120
1,note_on,72,0,0
1,note_on,65,63,120
1,note_on,72,63,0
1,note_on,72,0,120
1,note_on,65,0,0
1,note_on,65,50,120
1,note_on,72,50,0
1,note_on,72,0,120
1,note_on,65,0,0
1,note_on,65,33,360
1,note_on,72,33,0
1,note_on,72,0,120
1,note_on,65,0,0
1,note_on,65,63,120
1,note_on,70,63,0
1,note_on,70,0,120
1,note_on,65,0,0
1,note_on,70,50,120
1,note_on,65,50,0
1,note_on,65,0,120
1,note_on,70,0,0
1,note_on,65,33,360
1,note_on,70,33,0
1,note_on,70,0,120
1,note_on,65,0,0
1,note_on,70,63,120
1,note_on,64,63,0
1,note_on,64,0,120
1,note_on,70,0,0
1,note_on,64,50,120
1,note_on,70,50,0
1,note_on,70,0,120
1,note_on,64,0,0
1,note_on,64,33,360
1,note_on,70,33,0
1,note_on,70,0,120
1,note_on,64,0,0
1,note_on,68,33,360
1,note_on,65,33,0
1,note_on,65,0,120
1,note_on,68,0,0
1,note_on,68,33,360
1,note_on,65,33,0
1,note_on,65,0,120
1,note_on,68,0,0
1,note_on,65,33,360
1,note_on,68,33,0
1,note_on,68,0,120
1,note_on,65,0,0
1,note_on,64,32,120
1,note_on,67,38,0
1,note_on,67,0,240
1,note_on,64,0,0
1,note_on,68,31,0
1,note_on,72,37,0
1,note_on,70,33,240
1,note_on,67,28,0
1,note_on,72,0,10
1,note_on,68,0,0
1,note_on,65,26,230
1,note_on,68,31,0
1,note_on,70,0,10
1,note_on,67,0,0
1,note_on,64,28,230
1,note_on,67,33,0
1,note_on,65,0,10
1,note_on,68,0,0
1,note_on,68,30,230
1,note_on,65,25,0
1,note_on,64,0,10
1,note_on,67,0,0
1,note_on,64,32,230
1,note_on,67,38,0
1,note_on,68,0,10
1,note_on,65,0,0
1,note_on,64,0,230
1,note_on,67,0,0
1,note_on,72,37,0
1,note_on,68,31,0
1,note_on,67,28,240
1,note_on,70,33,0
1,note_on,68,0,10
1,note_on,72,0,0
1,note_on,65,26,230
1,note_on,68,31,0
1,note_on,67,0,10
1,note_on,70,0,0
1,note_on,67,33,230
1,note_on,64,28,0
1,note_on,65,0,10
1,note_on,68,0,0
1,note_on,65,25,230
1,note_on,68,30,0
1,note_on,67,0,10
1,note_on,64,0,0
1,note_on,67,37,230
1,note_on,64,31,0
1,note_on,65,0,10
1,note_on,68,0,0
1,note_on,68,32,230
1,note_on,65,27,0
1,note_on,67,0,10
1,note_on,64,0,0
1,note_on,64,31,230
1,note_on,67,37,0
1,note_on,68,0,10
1,note_on,65,0,0
1,note_on,65,28,230
1,note_on,68,34,0
1,note_on,64,0,10
1,note_on,67,0,0
1,note_on,67,37,230
1,note_on,64,31,0
1,note_on,65,0,10
1,note_on,68,0,0
1,note_on,68,34,230
1,note_on,65,28,0
1,note_on,67,0,10
1,note_on,64,0,0
1,note_on,64,31,230
1,note_on,67,37,0
1,note_on,68,0,10
1,note_on,65,0,0
1,note_on,64,0,230
1,note_on,67,0,0
1,note_on,66,33,0
1,note_on,63,33,0
1,note_on,64,35,240
1,note_on,67,35,0
1,note_on,63,0,10
1,note_on,66,0,0
1,note_on,69,36,230
1,note_on,66,36,0
1,note_on,64,0,10
1,note_on,67,0,0
1,note_on,70,38,230
1,note_on,67,38,0
1,note_on,69,0,10
1,note_on,66,0,0
1,note_on,72,40,230
1,note_on,69,40,0
1,note_on,70,0,10
1,note_on,67,0,0
1,note_on,74,42,230
1,note_on,70,35,0
1,note_on,72,0,10
1,note_on,69,0,0
1,note_on,74,0,470
1,note_on,70,0,0
1,note_on,65,34,0
1,note_on,70,34,0
1,note_on,74,40,0
1,note_on,74,0,480
1,note_on,70,0,0
1,note_on,65,0,0
1,note_on,70,34,0
1,note_on,74,40,0
1,note_on,65,34,0
1,note_on,65,0,480
1,note_on,74,0,0
1,note_on,70,0,0
1,note_on,74,42,0
1,note_on,65,35,0
1,note_on,70,35,0
1,note_on,70,0,960
1,note_on,74,0,0
1,note_on,69,28,0
1,note_on,72,34,0
1,note_on,72,0,480
1,note_on,69,0,0
1,note_on,65,0,0
1,note_on,64,35,0
1,note_on,67,35,0
1,note_on,72,42,0
1,note_on,72,0,240
1,note_on,70,38,0
1,note_on,70,0,240
1,note_on,67,0,0
1,note_on,64,0,0
1,note_on,70,42,0
1,note_on,64,35,0
1,note_on,67,35,0
1,note_on,67,0,480
1,note_on,64,0,0
1,note_on,70,0,0
1,note_on,70,38,0
1,note_on,67,32,0
1,note_on,64,32,0
1,note_on,64,0,480
1,note_on,67,0,0
1,note_on,70,0,0
1,note_on,64,35,0
1,note_on,67,35,0
1,note_on,70,42,0
1,note_on,70,0,960
1,note_on,67,0,0
1,note_on,64,0,0
1,note_on,69,39,0
1,note_on,65,33,0
1,note_on,65,0,480
1,note_on,69,0,0
1,note_on,72,42,0
1,note_on,69,35,0
1,note_on,69,0,240
1,note_on,72,0,0
1,note_on,70,37,0
1,note_on,67,31,0
1,note_on,67,0,240
1,note_on,70,0,0
1,note_on,65,35,0
1,note_on,69,42,0
1,note_on,69,0,480
1,note_on,65,0,0
1,note_on,64,30,0
1,note_on,67,36,0
1,note_on,67,0,480
1,note_on,64,0,0
1,note_on,65,35,0
1,note_on,69,42,0
1,note_on,69,0,240
1,note_on,65,0,0
1,note_on,77,35,0
1,note_on,77,0,220
1,note_on,79,37,20
1,note_on,79,0,220
1,note_on,81,38,20
1,note_on,81,0,220
1,note_on,82,40,20
1,note_on,82,0,220
1,note_on,84,41,20
1,note_on,84,0,220
1,note_on,86,46,20
1,note_on,86,0,480
1,note_on,86,44,0
1,note_on,86,0,480
1,note_on,86,44,0
1,note_on,86,0,480
1,note_on,86,46,0
1,note_on,86,0,720
1,note_on,88,39,0
1,note_on,88,0,120
1,note_on,86,39,0
1,note_on,86,0,120
1,note_on,84,46,0
1,note_on,84,0,480
1,note_on,84,46,0
1,note_on,76,35,0
1,note_on,84,0,240
1,note_on,82,41,0
1,note_on,82,0,240
1,note_on,76,0,0
1,note_on,76,35,0
1,note_on,82,46,0
1,note_on,82,0,480
1,note_on,76,0,0
1,note_on,82,41,0
1,note_on,76,32,0
1,note_on,76,0,480
1,note_on,82,0,0
1,note_on,76,35,0
1,note_on,82,46,0
1,note_on,82,0,960
1,note_on,76,0,0
1,note_on,81,42,0
1,note_on,77,33,0
1,note_on,77,0,480
1,note_on,81,0,0
1,note_on,84,46,0
1,note_on,81,35,0
1,note_on,81,0,240
1,note_on,84,0,0
1,note_on,82,40,0
1,note_on,79,31,0
1,note_on,79,0,240
1,note_on,82,0,0
1,note_on,81,46,0
1,note_on,77,35,0
1,note_on,77,0,480
1,note_on,81,0,0
1,note_on,76,30,0
1,note_on,79,39,0
1,note_on,79,0,480
1,note_on,76,0,0
1,note_on,84,63,0
1,note_on,81,63,0
1,note_on,81,0,120
1,note_on,84,0,0
1,note_on,84,50,120
1,note_on,81,50,0
1,note_on,81,0,120
1,note_on,84,0,0
1,note_on,79,33,360
1,note_on,82,33,0
1,note_on,82,0,120
1,note_on,79,0,0
1,note_on,77,33,360
1,note_on,81,33,0
1,note_on,81,0,120
1,note_on,77,0,0
1,note_on,79,33,360
1,note_on,70,33,0
1,note_on,70,0,120
1,note_on,79,0,0
1,note_on,77,33,360
1,note_on,69,33,0
1,note_on,69,0,120
1,note_on,77,0,0
1,note_on,67,33,360
1,note_on,76,33,0
1,note_on,76,0,120
1,note_on,67,0,0
1,note_on,81,72,240
1,note_on,81,0,120
1,note_on,84,75,0
1,note_on,84,0,120
1,note_on,81,72,0
1,note_on,81,0,120
1,note_on,79,70,120
1,note_on,79,0,120
1,note_on,82,75,0
1,note_on,82,0,120
1,note_on,79,70,0
1,note_on,79,0,120
1,note_on,77,72,120
1,note_on,77,0,120
1,note_on,81,75,0
1,note_on,81,0,120
1,note_on,77,71,0
1,note_on,77,0,120
1,note_on,70,71,120
1,note_on,70,0,120
1,note_on,79,75,0
1,note_on,79,0,120
1,note_on,70,71,0
1,note_on,70,0,120
1,note_on,69,71,120
1,note_on,69,0,120
1,note_on,77,75,0
1,note_on,77,0,120
1,note_on,69,71,0
1,note_on,69,0,120
1,note_on,67,71,120
1,note_on,67,0,120
1,note_on,76,75,0
1,note_on,76,0,120
1,note_on,67,71,0
1,note_on,67,0,120
1,note_on,69,75,0
1,note_on,72,75,0
1,note_on,77,75,0
1,note_on,77,0,480
1,note_on,72,0,0
1,note_on,69,0,0
1,note_on,69,70,480
1,note_on,69,0,60
1,note_on,70,65,0
1,note_on,70,0,60
1,note_on,69,70,0
1,note_on,69,0,60
1,note_on,70,66,0
1,note_on,70,0,60
1,note_on,69,70,0
1,note_on,69,0,40
1,note_on,70,66,0
1,note_on,70,0,40
1,note_on,69,66,0
1,note_on,69,0,40
1,note_on,67,70,0
1,note_on,67,0,60
1,note_on,65,66,0
1,note_on,65,0,60
1,note_on,72,75,0
1,note_on,72,0,960
1,note_on,76,70,0
1,note_on,76,0,60
1,note_on,77,66,0
1,note_on,77,0,60
1,note_on,76,70,0
1,note_on,76,0,60
1,note_on,77,66,0
1,note_on,77,0,60
1,note_on,76,70,0
1,note_on,76,0,40
1,note_on,77,65,0
1,note_on,77,0,40
1,note_on,76,66,0
1,note_on,76,0,40
1,note_on,74,70,0
1,note_on,74,0,60
1,note_on,72,65,0
1,note_on,72,0,60
1,note_on,77,75,0
1,note_on,81,70,960
1,note_on,77,0,0
1,note_on,81,0,60
1,note_on,82,65,0
1,note_on,82,0,60
1,note_on,81,70,0
1,note_on,81,0,60
1,note_on,82,66,0
1,note_on,82,0,60
1,note_on,81,70,0
1,note_on,81,0,40
1,note_on,82,66,0
1,note_on,82,0,40
1,note_on,81,66,0
1,note_on,81,0,40
1,note_on,79,70,0
1,note_on,79,0,60
1,note_on,77,66,0
1,note_on,77,0,60
1,note_on,84,75,0
1,note_on,84,0,240
1,note_on,84,75,240
1,note_on,84,0,240
1,note_on,88,70,240
1,note_on,88,0,60
1,note_on,89,66,0
1,note_on,89,0,60
1,note_on,88,70,0
1,note_on,88,0,60
1,note_on,89,66,0
1,note_on,89,0,60
1,note_on,88,70,0
1,note_on,88,0,40
1,note_on,89,65,0
1,note_on,89,0,40
1,note_on,88,66,0
1,note_on,88,0,40
1,note_on,86,70,0
1,note_on,86,0,60
1,note_on,84,65,0
1,note_on,84,0,60
1,note_on,89,75,0
1,note_on,89,0,120
1,note_on,81,88,360
1,note_on,81,0,720
1,note_on,73,75,0
1,note_on,73,0,240
1,note_on,74,75,0
1,note_on,74,0,120
1,note_on,77,89,360
1,note_on,77,0,720
1,note_on,69,75,0
1,note_on,69,0,240
1,note_on,70,70,0
1,note_on,70,0,60
1,note_on,72,65,0
1,note_on,72,0,60
1,note_on,70,70,0
1,note_on,70,0,60
1,note_on,72,66,0
1,note_on,72,0,60
1,note_on,70,70,0
1,note_on,70,0,40
1,note_on,72,66,0
1,note_on,72,0,40
1,note_on,70,66,0
1,note_on,70,0,40
1,note_on,69,70,0
1,note_on,69,0,60
1,note_on,67,66,0
1,note_on,67,0,60
1,note_on,72,84,0
1,note_on,72,0,120
1,note_on,72,72,360
1,note_on,67,72,0
1,note_on,76,86,0
1,note_on,76,0,120
1,note_on,67,0,0
1,note_on,72,0,0
1,note_on,77,86,360
1,note_on,69,72,0
1,note_on,72,72,0
1,note_on,72,0,120
1,note_on,69,0,0
1,note_on,77,0,0
1,note_on,65,79,360
1,note_on,65,0,120
2,note_on,53,40,0
2,note_on,53,0,240
2,note_on,57,30,0
2,note_on,57,0,240
2,note_on,60,33,0
2,note_on,60,0,240
2,note_on,57,30,0
2,note_on,57,0,240
2,note_on,60,34,0
2,note_on,60,0,240
2,note_on,57,30,0
2,note_on,57,0,240
2,note_on,53,40,0
2,note_on,53,0,240
2,note_on,60,29,0
2,note_on,60,0,240
2,note_on,63,31,0
2,note_on,63,0,240
2,note_on,60,27,0
2,note_on,60,0,240
2,note_on,63,31,0
2,note_on,63,0,240
2,note_on,60,28,0
2,note_on,60,0,240
2,note_on,53,40,0
2,note_on,53,0,240
2,note_on,58,30,0
2,note_on,58,0,240
2,note_on,62,33,0
2,note_on,62,0,240
2,note_on,58,30,0
2,note_on,58,0,240
2,note_on,62,33,0
2,note_on,62,0,240
2,note_on,58,30,0
2,note_on,58,0,240
2,note_on,53,40,0
2,note_on,53,0,240
2,note_on,55,23,0
2,note_on,55,0,240
2,note_on,58,28,0
2,note_on,58,0,240
2,note_on,55,24,0
2,note_on,55,0,240
2,note_on,58,29,0
2,note_on,58,0,240
2,note_on,55,24,0
2,note_on,55,0,240
2,note_on,53,30,0
2,note_on,57,30,0
2,note_on,57,0,480
2,note_on,53,0,0
2,note_on,53,47,2400
2,note_on,53,0,480
2,note_on,45,44,0
2,note_on,45,0,480
2,note_on,50,48,0
2,note_on,50,0,480
2,note_on,43,48,0
2,note_on,43,0,480
2,note_on,48,49,0
2,note_on,48,0,720
2,note_on,45,47,0
2,note_on,45,0,240
2,note_on,41,52,0
2,note_on,41,0,480
2,note_on,50,40,0
2,note_on,50,0,480
2,note_on,46,44,0
2,note_on,46,0,480
2,note_on,45,47,0
2,note_on,45,0,480
2,note_on,50,40,480
2,note_on,50,0,480
2,note_on,46,40,0
2,note_on,46,0,480
2,note_on,48,41,480
2,note_on,48,0,480
2,note_on,41,43,0
2,note_on,41,0,480
2,note_on,72,40,480
2,note_on,69,32,0
2,note_on,69,0,360
2,note_on,72,0,0
2,note_on,67,28,0
2,note_on,70,35,0
2,note_on,70,0,120
2,note_on,67,0,0
2,note_on,69,40,0
2,note_on,65,32,0
2,note_on,65,0,120
2,note_on,69,0,0
2,note_on,65,32,360
2,note_on,69,40,0
2,note_on,69,0,120
2,note_on,65,0,0
2,note_on,65,29,360
2,note_on,69,37,0
2,note_on,69,0,360
2,note_on,65,0,0
2,note_on,67,33,0
2,note_on,60,26,0
2,note_on,60,0,120
2,note_on,67,0,0
2,note_on,65,38,0
2,note_on,57,30,0
2,note_on,57,0,120
2,note_on,65,0,0
2,note_on,65,35,360
2,note_on,57,28,0
2,note_on,57,0,120
2,note_on,65,0,0
2,note_on,65,35,360
2,note_on,57,28,0
2,note_on,57,0,480
2,note_on,65,0,0
2,note_on,60,28,0
2,note_on,67,36,0
2,note_on,67,0,120
2,note_on,60,0,0
2,note_on,67,35,360
2,note_on,60,28,0
2,note_on,60,0,120
2,note_on,67,0,0
2,note_on,60,28,360
2,note_on,67,35,0
2,note_on,67,0,120
2,note_on,60,0,0
2,note_on,67,40,360
2,note_on,60,32,0
2,note_on,60,0,480
2,note_on,67,0,0
2,note_on,69,35,0
2,note_on,65,28,0
2,note_on,65,0,480
2,note_on,69,0,0
2,note_on,72,40,0
2,note_on,69,32,0
2,note_on,69,0,360
2,note_on,72,0,0
2,note_on,70,35,0
2,note_on,67,28,0
2,note_on,67,0,120
2,note_on,70,0,0
2,note_on,65,32,0
2,note_on,69,40,0
2,note_on,69,0,120
2,note_on,65,0,0
2,note_on,65,32,360
2,note_on,69,40,0
2,note_on,69,0,120
2,note_on,65,0,0
2,note_on,69,37,360
2,note_on,65,29,0
2,note_on,65,0,360
2,note_on,69,0,0
2,note_on,67,33,0
2,note_on,60,26,0
2,note_on,60,0,120
2,note_on,67,0,0
2,note_on,65,38,0
2,note_on,57,30,0
2,note_on,57,0,120
2,note_on,65,0,0
2,note_on,57,28,360
2,note_on,65,35,0
2,note_on,65,0,120
2,note_on,57,0,0
2,note_on,57,28,360
2,note_on,65,35,0
2,note_on,65,0,120
2,note_on,57,0,0
2,note_on,67,37,360
2,note_on,60,29,0
2,note_on,60,0,480
2,note_on,67,0,0
2,note_on,60,28,480
2,note_on,67,35,0
2,note_on,67,0,480
2,note_on,60,0,0
2,note_on,65,39,0
2,note_on,65,0,480
2,note_on,70,35,480
2,note_on,60,28,0
2,note_on,64,28,0
2,note_on,64,0,480
2,note_on,60,0,0
2,note_on,70,0,0
2,note_on,69,39,0
2,note_on,65,31,0
2,note_on,65,0,480
2,note_on,69,0,0
2,note_on,58,31,480
2,note_on,52,25,0
2,note_on,48,25,0
2,note_on,48,0,480
2,note_on,52,0,0
2,note_on,58,0,0
2,note_on,53,27,0
2,note_on,57,35,0
2,note_on,57,0,480
2,note_on,53,0,0
2,note_on,37,51,480
2,note_on,49,60,0
2,note_on,49,0,480
2,note_on,37,0,0
2,note_on,50,66,0
2,note_on,38,56,0
2,note_on,38,0,240
2,note_on,50,0,0
2,note_on,53,60,0
2,note_on,53,0,240
2,note_on,57,60,0
2,note_on,57,0,240
2,note_on,53,60,0
2,note_on,53,0,240
2,note_on,57,63,0
2,note_on,57,0,240
2,note_on,53,60,0
2,note_on,53,0,240
2,note_on,50,65,0
2,note_on,50,0,240
2,note_on,53,60,0
2,note_on,53,0,240
2,note_on,57,63,0
2,note_on,57,0,240
2,note_on,53,60,0
2,note_on,53,0,240
2,note_on,57,60,0
2,note_on,57,0,240
2,note_on,53,62,0
2,note_on,53,0,240
2,note_on,40,60,0
2,note_on,52,71,0
2,note_on,52,0,120
2,note_on,40,0,0
2,note_on,55,60,360
2,note_on,52,60,0
2,note_on,58,60,0
2,note_on,61,71,0
2,note_on,61,0,120
2,note_on,55,0,0
2,note_on,52,0,0
2,note_on,58,0,0
2,note_on,52,71,840
2,note_on,40,60,0
2,note_on,40,0,120
2,note_on,52,0,0
2,note_on,61,71,360
2,note_on,52,60,0
2,note_on,55,60,0
2,note_on,58,60,0
2,note_on,58,0,120
2,note_on,61,0,0
2,note_on,52,0,0
2,note_on,55,0,0
2,note_on,53,66,840
2,note_on,53,0,240
2,note_on,57,60,0
2,note_on,57,0,240
2,note_on,62,60,0
2,note_on,62,0,240
2,note_on,57,60,0
2,note_on,57,0,240
2,note_on,62,63,0
2,note_on,62,0,240
2,note_on,57,60,0
2,note_on,57,0,240
2,note_on,53,65,0
2,note_on,53,0,240
2,note_on,57,60,0
2,note_on,57,0,240
2,note_on,62,63,0
2,note_on,62,0,240
2,note_on,57,60,0
2,note_on,57,0,240
2,note_on,62,60,0
2,note_on,62,0,240
2,note_on,57,62,0
2,note_on,57,0,240
2,note_on,38,60,0
2,note_on,50,71,0
2,note_on,50,0,120
2,note_on,38,0,0
2,note_on,56,60,360
2,note_on,50,60,0
2,note_on,59,71,0
2,note_on,53,60,0
2,note_on,53,0,120
2,note_on,56,0,0
2,note_on,50,0,0
2,note_on,59,0,0
2,note_on,38,60,840
2,note_on,50,71,0
2,note_on,50,0,120
2,note_on,38,0,0
2,note_on,53,60,360
2,note_on,59,71,0
2,note_on,56,60,0
2,note_on,50,60,0
2,note_on,50,0,120
2,note_on,53,0,0
2,note_on,59,0,0
2,note_on,56,0,0
2,note_on,51,66,840
2,note_on,51,0,240
2,note_on,55,60,0
2,note_on,55,0,240
2,note_on,60,60,0
2,note_on,60,0,240
2,note_on,55,60,0
2,note_on,55,0,240
2,note_on,60,63,0
2,note_on,60,0,240
2,note_on,55,60,0
2,note_on,55,0,240
2,note_on,51,66,0
2,note_on,51,0,240
2,note_on,55,60,0
2,note_on,55,0,240
2,note_on,60,60,0
2,note_on,60,0,240
2,note_on,55,60,0
2,note_on,55,0,240
2,note_on,60,63,0
2,note_on,60,0,240
2,note_on,55,60,0
2,note_on,55,0,240
2,note_on,48,66,0
2,note_on,48,0,240
2,note_on,51,60,0
2,note_on,51,0,240
2,note_on,56,60,0
2,note_on,56,0,240
2,note_on,51,60,0
2,note_on,51,0,240
2,note_on,56,63,0
2,note_on,56,0,240
2,note_on,51,60,0
2,note_on,51,0,240
2,note_on,48,66,0
2,note_on,48,0,240
2,note_on,51,60,0
2,note_on,51,0,240
2,note_on,56,60,0
2,note_on,56,0,240
2,note_on,51,60,0
2,note_on,51,0,240
2,note_on,56,63,0
2,note_on,56,0,240
2,note_on,51,60,0
2,note_on,51,0,240
2,note_on,44,66,0
2,note_on,44,0,240
2,note_on,48,60,0
2,note_on,48,0,240
2,note_on,51,60,0
2,note_on,51,0,240
2,note_on,48,60,0
2,note_on,48,0,240
2,note_on,51,63,0
2,note_on,51,0,240
2,note_on,48,60,0
2,note_on,48,0,240
2,note_on,44,66,0
2,note_on,44,0,240
2,note_on,48,60,0
2,note_on,48,0,240
2,note_on,51,60,0
2,note_on,51,0,240
2,note_on,48,60,0
2,note_on,48,0,240
2,note_on,51,63,0
2,note_on,51,0,240
2,note_on,48,60,0
2,note_on,48,0,120
2,note_on,43,66,120
2,note_on,43,0,240
2,note_on,47,60,0
2,note_on,47,0,240
2,note_on,50,60,0
2,note_on,50,0,240
2,note_on,55,60,0
2,note_on,55,0,240
2,note_on,48,63,0
2,note_on,48,0,240
2,note_on,51,60,0
2,note_on,51,0,240
2,note_on,43,66,0
2,note_on,43,0,240
2,note_on,47,60,0
2,note_on,47,0,240
2,note_on,50,60,0
2,note_on,50,0,240
2,note_on,55,60,0
2,note_on,55,0,240
2,note_on,48,63,0
2,note_on,48,0,240
2,note_on,51,60,0
2,note_on,51,0,240
2,note_on,43,72,0
2,note_on,55,72,12
2,note_on,43,0,708
2,note_on,56,63,0
2,note_on,55,0,12
2,note_on,55,62,108
2,note_on,56,0,10
2,note_on,53,60,110
2,note_on,55,0,10
2,note_on,51,60,110
2,note_on,53,0,10
2,note_on,50,59,110
2,note_on,51,0,10
2,note_on,48,57,110
2,note_on,50,0,10
2,note_on,55,63,110
2,note_on,48,0,10
2,note_on,55,0,110
2,note_on,43,57,360
2,note_on,43,0,120
2,note_on,48,35,660
2,note_on,48,0,60
2,note_on,55,35,0
2,note_on,55,0,60
2,note_on,60,35,60
2,note_on,60,0,480
2,note_on,55,34,780
2,note_on,55,0,60
2,note_on,62,34,0
2,note_on,62,0,60
2,note_on,65,35,60
2,note_on,65,0,480
2,note_on,48,35,960
2,note_on,48,0,480
2,note_on,52,31,0
2,note_on,52,0,480
2,note_on,55,31,0
2,note_on,55,0,480
2,note_on,60,35,0
2,note_on,60,0,480
2,note_on,48,31,0
2,note_on,48,0,480
2,note_on,57,35,480
2,note_on,60,33,480
2,note_on,65,33,0
2,note_on,65,0,480
2,note_on,60,0,0
2,note_on,57,0,0
2,note_on,59,38,480
2,note_on,67,35,480
2,note_on,62,35,0
2,note_on,62,0,480
2,note_on,67,0,0
2,note_on,59,0,0
2,note_on,60,41,480
2,note_on,60,0,480
2,note_on,57,37,0
2,note_on,60,37,0
2,note_on,60,0,480
2,note_on,57,0,0
2,note_on,53,35,0
2,note_on,62,35,0
2,note_on,62,0,480
2,note_on,53,0,0
2,note_on,55,41,0
2,note_on,59,41,0
2,note_on,59,0,480
2,note_on,55,0,0
2,note_on,60,39,960
2,note_on,60,0,160
2,note_on,64,31,0
2,note_on,64,0,160
2,note_on,67,31,0
2,note_on,67,0,160
2,note_on,60,39,0
2,note_on,60,0,160
2,note_on,64,32,0
2,note_on,64,0,160
2,note_on,67,32,0
2,note_on,67,0,160
2,note_on,60,40,0
2,note_on,60,0,160
2,note_on,64,32,0
2,note_on,64,0,160
2,note_on,67,32,0
2,note_on,67,0,160
2,note_on,59,43,0
2,note_on,59,0,160
2,note_on,62,36,0
2,note_on,62,0,160
2,note_on,67,35,0
2,note_on,67,0,160
2,note_on,59,40,0
2,note_on,59,0,160
2,note_on,62,33,0
2,note_on,62,0,160
2,note_on,67,29,0
2,note_on,67,0,160
2,note_on,59,37,0
2,note_on,59,0,160
2,note_on,65,29,0
2,note_on,65,0,160
2,note_on,67,29,0
2,note_on,67,0,160
2,note_on,60,29,0
2,note_on,64,35,0
2,note_on,64,0,480
2,note_on,60,0,0
2,note_on,52,31,0
2,note_on,52,0,480
2,note_on,55,31,0
2,note_on,55,0,480
2,note_on,60,35,0
2,note_on,60,0,480
2,note_on,55,31,0
2,note_on,55,0,480
2,note_on,48,31,0
2,note_on,48,0,480
2,note_on,57,35,0
2,note_on,57,0,240
2,note_on,60,31,0
2,note_on,60,0,240
2,note_on,65,32,0
2,note_on,65,0,240
2,note_on,60,33,0
2,note_on,60,0,240
2,note_on,57,35,0
2,note_on,57,0,240
2,note_on,60,38,0
2,note_on,60,0,240
2,note_on,59,40,0
2,note_on,59,0,240
2,note_on,62,35,0
2,note_on,62,0,240
2,note_on,67,42,0
2,note_on,67,0,240
2,note_on,62,35,0
2,note_on,62,0,240
2,note_on,59,35,0
2,note_on,59,0,240
2,note_on,62,34,0
2,note_on,62,0,240
2,note_on,60,41,0
2,note_on,60,0,480
2,note_on,53,37,0
2,note_on,62,37,0
2,note_on,62,0,480
2,note_on,53,0,0
2,note_on,55,35,0
2,note_on,65,35,0
2,note_on,65,0,480
2,note_on,55,0,0
2,note_on,64,37,0
2,note_on,60,32,0
2,note_on,60,0,480
2,note_on,64,0,0
2,note_on,64,40,0
2,note_on,64,0,480
2,note_on,60,37,0
2,note_on,60,0,480
2,note_on,62,40,0
2,note_on,62,0,480
2,note_on,59,38,0
2,note_on,59,0,480
2,note_on,55,38,0
2,note_on,55,0,480
2,note_on,48,40,0
2,note_on,48,0,480
2,note_on,51,40,0
2,note_on,51,0,480
2,note_on,48,37,0
2,note_on,48,0,480
2,note_on,50,40,0
2,note_on,50,0,480
2,note_on,47,38,0
2,note_on,47,0,480
2,note_on,43,38,0
2,note_on,43,0,480
2,note_on,36,58,0
2,note_on,48,69,0
2,note_on,48,0,480
2,note_on,36,0,0
2,note_on,51,40,0
2,note_on,51,0,480
2,note_on,55,40,0
2,note_on,55,0,480
2,note_on,53,69,0
2,note_on,41,58,0
2,note_on,41,0,480
2,note_on,53,0,0
2,note_on,56,40,0
2,note_on,56,0,480
2,note_on,60,40,0
2,note_on,60,0,480
2,note_on,46,69,0
2,note_on,34,58,0
2,note_on,34,0,480
2,note_on,46,0,0
2,note_on,50,40,0
2,note_on,50,0,480
2,note_on,53,40,0
2,note_on,53,0,480
2,note_on,39,58,0
2,note_on,51,69,0
2,note_on,51,0,480
2,note_on,39,0,0
2,note_on,55,40,0
2,note_on,55,0,480
2,note_on,58,40,0
2,note_on,58,0,480
2,note_on,32,58,0
2,note_on,44,69,0
2,note_on,44,0,480
2,note_on,32,0,0
2,note_on,56,40,0
2,note_on,56,0,480
2,note_on,50,69,0
2,note_on,38,58,0
2,note_on,38,0,480
2,note_on,50,0,0
2,note_on,62,40,0
2,note_on,62,0,480
2,note_on,31,58,0
2,note_on,43,69,0
2,note_on,43,0,480
2,note_on,31,0,0
2,note_on,55,40,0
2,note_on,55,0,480
2,note_on,56,45,0
2,note_on,56,0,480
2,note_on,55,39,0
2,note_on,55,0,480
2,note_on,54,39,0
2,note_on,54,0,480
2,note_on,55,44,0
2,note_on,55,0,480
2,note_on,54,41,720
2,note_on,54,0,240
2,note_on,55,44,0
2,note_on,55,0,480
2,note_on,54,32,720
2,note_on,55,39,240
2,note_on,54,0,10
2,note_on,54,35,230
2,note_on,55,0,10
2,note_on,55,39,230
2,note_on,54,0,10
2,note_on,54,31,230
2,note_on,55,0,10
2,note_on,55,39,230
2,note_on,54,0,10
2,note_on,54,32,230
2,note_on,55,0,10
2,note_on,55,38,230
2,note_on,54,0,10
2,note_on,55,0,470
2,note_on,53,33,960
2,note_on,53,0,480
2,note_on,53,31,0
2,note_on,53,0,480
2,note_on,53,31,0
2,note_on,53,0,480
2,note_on,53,33,0
2,note_on,53,0,960
2,note_on,48,31,0
2,note_on,48,0,480
2,note_on,43,33,0
2,note_on,43,0,480
2,note_on,43,30,0
2,note_on,43,0,480
2,note_on,43,30,0
2,note_on,43,0,480
2,note_on,43,33,0
2,note_on,43,0,960
2,note_on,45,30,0
2,note_on,45,0,480
2,note_on,41,33,0
2,note_on,41,0,480
2,note_on,43,32,0
2,note_on,43,0,480
2,note_on,43,32,0
2,note_on,43,0,480
2,note_on,48,33,0
2,note_on,48,0,480
2,note_on,60,28,960
2,note_on,65,33,0
2,note_on,65,0,480
2,note_on,60,0,0
2,note_on,60,26,0
2,note_on,65,31,0
2,note_on,65,0,480
2,note_on,60,0,0
2,note_on,65,31,0
2,note_on,60,26,0
2,note_on,60,0,480
2,note_on,65,0,0
2,note_on,65,33,0
2,note_on,60,28,0
2,note_on,65,0,960
2,note_on,64,31,0
2,note_on,64,0,480
2,note_on,60,0,0
2,note_on,55,28,0
2,note_on,62,33,0
2,note_on,62,0,480
2,note_on,55,0,0
2,note_on,62,30,0
2,note_on,55,25,0
2,note_on,55,0,480
2,note_on,62,0,0
2,note_on,62,30,0
2,note_on,55,25,0
2,note_on,55,0,480
2,note_on,62,0,0
2,note_on,55,28,0
2,note_on,62,33,0
2,note_on,62,0,960
2,note_on,55,0,0
2,note_on,60,30,0
2,note_on,57,25,0
2,note_on,57,0,480
2,note_on,60,0,0
2,note_on,53,33,0
2,note_on,53,0,480
2,note_on,55,32,0
2,note_on,55,0,480
2,note_on,53,32,0
2,note_on,53,0,480
2,note_on,40,58,0
2,note_on,52,69,0
2,note_on,52,0,240
2,note_on,40,0,0
2,note_on,56,40,240
2,note_on,56,0,120
2,note_on,57,40,360
2,note_on,57,0,120
2,note_on,53,40,360
2,note_on,53,0,120
2,note_on,55,40,360
2,note_on,55,0,120
2,note_on,53,40,360
2,note_on,53,0,120
2,note_on,40,75,360
2,note_on,52,75,0
2,note_on,52,0,120
2,note_on,40,0,0
2,note_on,44,73,360
2,note_on,56,73,0
2,note_on,56,0,120
2,note_on,44,0,0
2,note_on,57,73,360
2,note_on,45,73,0
2,note_on,45,0,120
2,note_on,57,0,0
2,note_on,41,75,360
2,note_on,53,75,0
2,note_on,53,0,120
2,note_on,41,0,0
2,note_on,55,73,360
2,note_on,43,73,0
2,note_on,43,0,120
2,note_on,55,0,0
2,note_on,55,73,360
2,note_on,43,73,0
2,note_on,43,0,120
2,note_on,55,0,0
2,note_on,48,64,360
2,note_on,48,0,120
2,note_on,52,59,0
2,note_on,52,0,120
2,note_on,55,59,0
2,note_on,55,0,120
2,note_on,60,59,0
2,note_on,60,0,120
2,note_on,48,63,0
2,note_on,48,0,120
2,note_on,52,58,0
2,note_on,52,0,120
2,note_on,55,58,0
2,note_on,55,0,120
2,note_on,60,58,0
2,note_on,60,0,120
2,note_on,48,63,0
2,note_on,48,0,120
2,note_on,52,57,0
2,note_on,52,0,120
2,note_on,55,58,0
2,note_on,55,0,120
2,note_on,60,58,0
2,note_on,60,0,120
2,note_on,48,63,0
2,note_on,48,0,120
2,note_on,52,58,0
2,note_on,52,0,120
2,note_on,55,59,0
2,note_on,55,0,120
2,note_on,60,59,0
2,note_on,60,0,120
2,note_on,48,63,0
2,note_on,48,0,120
2,note_on,52,57,0
2,note_on,52,0,120
2,note_on,55,57,0
2,note_on,55,0,120
2,note_on,60,57,0
2,note_on,60,0,120
2,note_on,48,63,0
2,note_on,48,0,120
2,note_on,53,57,0
2,note_on,53,0,120
2,note_on,55,57,0
2,note_on,55,0,120
2,note_on,62,57,0
2,note_on,62,0,120
2,note_on,48,63,0
2,note_on,48,0,120
2,note_on,52,57,0
2,note_on,52,0,120
2,note_on,55,57,0
2,note_on,55,0,120
2,note_on,60,57,0
2,note_on,60,0,120
2,note_on,48,63,0
2,note_on,48,0,120
2,note_on,52,57,0
2,note_on,52,0,120
2,note_on,55,57,0
2,note_on,55,0,120
2,note_on,60,57,0
2,note_on,60,0,120
2,note_on,48,63,0
2,note_on,52,57,120
2,note_on,48,0,0
2,note_on,52,0,120
2,note_on,55,58,0
2,note_on,55,0,120
2,note_on,60,58,0
2,note_on,60,0,120
2,note_on,48,63,0
2,note_on,52,58,120
2,note_on,48,0,0
2,note_on,52,0,120
2,note_on,55,59,0
2,note_on,55,0,120
2,note_on,60,59,0
2,note_on,60,0,120
2,note_on,48,63,0
2,note_on,48,0,120
2,note_on,52,57,0
2,note_on,52,0,120
2,note_on,55,57,0
2,note_on,55,0,120
2,note_on,60,57,0
2,note_on,60,0,120
2,note_on,48,63,0
2,note_on,48,0,120
2,note_on,53,57,0
2,note_on,53,0,120
2,note_on,55,57,0
2,note_on,55,0,120
2,note_on,62,57,0
2,note_on,62,0,120
2,note_on,60,63,0
2,note_on,48,63,0
2,note_on,52,63,0
2,note_on,55,63,0
2,note_on,55,0,120
2,note_on,60,0,0
2,note_on,48,0,0
2,note_on,52,0,0
2,note_on,64,69,360
2,note_on,52,58,0
2,note_on,52,0,720
2,note_on,64,0,0
2,note_on,56,63,0
2,note_on,44,63,0
2,note_on,44,0,240
2,note_on,56,0,0
2,note_on,57,63,0
2,note_on,45,63,0
2,note_on,45,0,120
2,note_on,57,0,0
2,note_on,60,71,360
2,note_on,48,60,0
2,note_on,48,0,720
2,note_on,60,0,0
2,note_on,52,63,0
2,note_on,52,0,240
2,note_on,53,56,0
2,note_on,53,0,60
2,note_on,55,52,0
2,note_on,55,0,60
2,note_on,53,56,0
2,note_on,53,0,60
2,note_on,55,52,0
2,note_on,55,0,60
2,note_on,53,56,0
2,note_on,53,0,40
2,note_on,55,52,0
2,note_on,55,0,40
2,note_on,53,52,0
2,note_on,53,0,40
2,note_on,52,56,0
2,note_on,52,0,60
2,note_on,50,52,0
2,note_on,50,0,60
2,note_on,55,63,0
2,note_on,55,0,120
2,note_on,55,67,360
2,note_on,43,56,0
2,note_on,43,0,120
2,note_on,55,0,0
2,note_on,48,60,360
2,note_on,60,72,0
2,note_on,60,0,120
2,note_on,48,0,0
2,note_on,48,69,360
2,note_on,36,58,0
2,note_on,36,0,120
2,note_on,48,0,0
2,note_on,53,40,840
2,note_on,53,0,240
2,note_on,57,30,0
2,note_on,57,0,240
2,note_on,60,33,0
2,note_on,60,0,240
2,note_on,57,30,0
2,note_on,57,0,240
2,note_on,60,34,0
2,note_on,60,0,240
2,note_on,57,30,0
2,note_on,57,0,240
2,note_on,53,40,0
2,note_on,53,0,240
2,note_on,60,29,0
2,note_on,60,0,240
2,note_on,63,31,0
2,note_on,63,0,240
2,note_on,60,27,0
2,note_on,60,0,240
2,note_on,63,31,0
2,note_on,63,0,240
2,note_on,60,28,0
2,note_on,60,0,240
2,note_on,53,40,0
2,note_on,53,0,240
2,note_on,58,30,0
2,note_on,58,0,240
2,note_on,62,33,0
2,note_on,62,0,240
2,note_on,58,30,0
2,note_on,58,0,240
2,note_on,62,33,0
2,note_on,62,0,240
2,note_on,58,30,0
2,note_on,58,0,240
2,note_on,53,40,0
2,note_on,53,0,240
2,note_on,55,23,0
2,note_on,55,0,240
2,note_on,58,28,0
2,note_on,58,0,240
2,note_on,55,24,0
2,note_on,55,0,240
2,note_on,58,29,0
2,note_on,58,0,240
2,note_on,55,24,0
2,note_on,55,0,240
2,note_on,57,30,0
2,note_on,53,30,0
2,note_on,53,0,480
2,note_on,57,0,0
2,note_on,53,47,2400
2,note_on,53,0,480
2,note_on,45,44,0
2,note_on,45,0,480
2,note_on,50,48,0
2,note_on,50,0,480
2,note_on,43,48,0
2,note_on,43,0,480
2,note_on,48,49,0
2,note_on,48,0,720
2,note_on,45,47,0
2,note_on,45,0,240
2,note_on,41,52,0
2,note_on,41,0,480
2,note_on,50,40,0
2,note_on,50,0,480
2,note_on,46,44,0
2,note_on,46,0,480
2,note_on,45,47,0
2,note_on,45,0,480
2,note_on,50,40,480
2,note_on,50,0,480
2,note_on,46,40,0
2,note_on,46,0,480
2,note_on,48,41,480
2,note_on,48,0,480
2,note_on,41,43,0
2,note_on,41,0,480
2,note_on,69,32,480
2,note_on,72,40,0
2,note_on,72,0,360
2,note_on,69,0,0
2,note_on,67,28,0
2,note_on,70,35,0
2,note_on,70,0,120
2,note_on,67,0,0
2,note_on,69,40,0
2,note_on,65,32,0
2,note_on,65,0,120
2,note_on,69,0,0
2,note_on,69,40,360
2,note_on,65,32,0
2,note_on,65,0,120
2,note_on,69,0,0
2,note_on,65,29,360
2,note_on,69,37,0
2,note_on,69,0,360
2,note_on,65,0,0
2,note_on,60,26,0
2,note_on,67,33,0
2,note_on,67,0,120
2,note_on,60,0,0
2,note_on,65,38,0
2,note_on,57,30,0
2,note_on,57,0,120
2,note_on,65,0,0
2,note_on,57,28,360
2,note_on,65,35,0
2,note_on,65,0,120
2,note_on,57,0,0
2,note_on,57,28,360
2,note_on,65,35,0
2,note_on,65,0,480
2,note_on,57,0,0
2,note_on,67,36,0
2,note_on,60,28,0
2,note_on,60,0,120
2,note_on,67,0,0
2,note_on,67,35,360
2,note_on,60,28,0
2,note_on,60,0,120
2,note_on,67,0,0
2,note_on,60,28,360
2,note_on,67,35,0
2,note_on,67,0,120
2,note_on,60,0,0
2,note_on,60,32,360
2,note_on,67,40,0
2,note_on,67,0,480
2,note_on,60,0,0
2,note_on,69,35,0
2,note_on,65,28,0
2,note_on,65,0,480
2,note_on,69,0,0
2,note_on,69,32,0
2,note_on,72,40,0
2,note_on,72,0,360
2,note_on,69,0,0
2,note_on,67,28,0
2,note_on,70,35,0
2,note_on,70,0,120
2,note_on,67,0,0
2,note_on,65,32,0
2,note_on,69,40,0
2,note_on,69,0,120
2,note_on,65,0,0
2,note_on,65,32,360
2,note_on,69,40,0
2,note_on,69,0,120
2,note_on,65,0,0
2,note_on,65,29,360
2,note_on,69,37,0
2,note_on,69,0,360
2,note_on,65,0,0
2,note_on,60,26,0
2,note_on,67,33,0
2,note_on,67,0,120
2,note_on,60,0,0
2,note_on,57,30,0
2,note_on,65,38,0
2,note_on,65,0,120
2,note_on,57,0,0
2,note_on,65,35,360
2,note_on,57,28,0
2,note_on,57,0,120
2,note_on,65,0,0
2,note_on,57,28,360
2,note_on,65,35,0
2,note_on,65,0,120
2,note_on,57,0,0
2,note_on,67,37,360
2,note_on,60,29,0
2,note_on,60,0,480
2,note_on,67,0,0
2,note_on,60,28,480
2,note_on,67,35,0
2,note_on,67,0,480
2,note_on,60,0,0
2,note_on,65,39,0
2,note_on,65,0,480
2,note_on,64,28,480
2,note_on,60,28,0
2,note_on,70,35,0
2,note_on,70,0,480
2,note_on,60,0,0
2,note_on,64,0,0
2,note_on,69,39,0
2,note_on,65,31,0
2,note_on,65,0,480
2,note_on,69,0,0
2,note_on,58,31,480
2,note_on,52,25,0
2,note_on,48,25,0
2,note_on,48,0,480
2,note_on,52,0,0
2,note_on,58,0,0
2,note_on,53,27,0
2,note_on,57,35,0
2,note_on,57,0,480
2,note_on,53,0,0
2,note_on,37,51,480
2,note_on,49,60,0
2,note_on,49,0,480
2,note_on,37,0,0
2,note_on,50,66,0
2,note_on,38,56,0
2,note_on,38,0,240
2,note_on,50,0,0
2,note_on,53,60,0
2,note_on,53,0,240
2,note_on,57,60,0
2,note_on,57,0,240
2,note_on,53,60,0
2,note_on,53,0,240
2,note_on,57,63,0
2,note_on,57,0,240
2,note_on,53,60,0
2,note_on,53,0,240
2,note_on,50,65,0
2,note_on,50,0,240
2,note_on,53,60,0
2,note_on,53,0,240
2,note_on,57,63,0
2,note_on,57,0,240
2,note_on,53,60,0
2,note_on,53,0,240
2,note_on,57,60,0
2,note_on,57,0,240
2,note_on,53,62,0
2,note_on,53,0,240
2,note_on,52,71,0
2,note_on,40,60,0
2,note_on,40,0,120
2,note_on,52,0,0
2,note_on,55,60,360
2,note_on,52,60,0
2,note_on,58,60,0
2,note_on,61,71,0
2,note_on,61,0,120
2,note_on,55,0,0
2,note_on,52,0,0
2,note_on,58,0,0
2,note_on,52,71,840
2,note_on,40,60,0
2,note_on,40,0,120
2,note_on,52,0,0
2,note_on,58,60,360
2,note_on,61,71,0
2,note_on,52,60,0
2,note_on,55,60,0
2,note_on,55,0,120
2,note_on,58,0,0
2,note_on,61,0,0
2,note_on,52,0,0
2,note_on,53,66,840
2,note_on,53,0,240
2,note_on,57,60,0
2,note_on,57,0,240
2,note_on,62,60,0
2,note_on,62,0,240
2,note_on,57,60,0
2,note_on,57,0,240
2,note_on,62,63,0
2,note_on,62,0,240
2,note_on,57,60,0
2,note_on,57,0,240
2,note_on,53,65,0
2,note_on,53,0,240
2,note_on,57,60,0
2,note_on,57,0,240
2,note_on,62,63,0
2,note_on,62,0,240
2,note_on,57,60,0
2,note_on,57,0,240
2,note_on,62,60,0
2,note_on,62,0,240
2,note_on,57,62,0
2,note_on,57,0,240
2,note_on,38,60,0
2,note_on,50,71,0
2,note_on,50,0,120
2,note_on,38,0,0
2,note_on,59,71,360
2,note_on,56,60,0
2,note_on,50,60,0
2,note_on,53,60,0
2,note_on,53,0,120
2,note_on,59,0,0
2,note_on,56,0,0
2,note_on,50,0,0
2,note_on,38,60,840
2,note_on,50,71,0
2,note_on,50,0,120
2,note_on,38,0,0
2,note_on,53,60,360
2,note_on,50,60,0
2,note_on,59,71,0
2,note_on,56,60,0
2,note_on,56,0,120
2,note_on,53,0,0
2,note_on,50,0,0
2,note_on,59,0,0
2,note_on,51,66,840
2,note_on,51,0,240
2,note_on,55,60,0
2,note_on,55,0,240
2,note_on,60,60,0
2,note_on,60,0,240
2,note_on,55,60,0
2,note_on,55,0,240
2,note_on,60,63,0
2,note_on,60,0,240
2,note_on,55,60,0
2,note_on,55,0,240
2,note_on,51,66,0
2,note_on,51,0,240
2,note_on,55,60,0
2,note_on,55,0,240
2,note_on,60,60,0
2,note_on,60,0,240
2,note_on,55,60,0
2,note_on,55,0,240
2,note_on,60,63,0
2,note_on,60,0,240
2,note_on,55,60,0
2,note_on,55,0,240
2,note_on,48,66,0
2,note_on,48,0,240
2,note_on,51,60,0
2,note_on,51,0,240
2,note_on,56,60,0
2,note_on,56,0,240
2,note_on,51,60,0
2,note_on,51,0,240
2,note_on,56,63,0
2,note_on,56,0,240
2,note_on,51,60,0
2,note_on,51,0,240
2,note_on,48,66,0
2,note_on,48,0,240
2,note_on,51,60,0
2,note_on,51,0,240
2,note_on,56,60,0
2,note_on,56,0,240
2,note_on,51,60,0
2,note_on,51,0,240
2,note_on,56,63,0
2,note_on,56,0,240
2,note_on,51,60,0
2,note_on,51,0,240
2,note_on,44,66,0
2,note_on,44,0,240
2,note_on,48,60,0
2,note_on,48,0,240
2,note_on,51,60,0
2,note_on,51,0,240
2,note_on,48,60,0
2,note_on,48,0,240
2,note_on,51,63,0
2,note_on,51,0,240
2,note_on,48,60,0
2,note_on,48,0,240
2,note_on,44,66,0
2,note_on,44,0,240
2,note_on,48,60,0
2,note_on,48,0,240
2,note_on,51,60,0
2,note_on,51,0,240
2,note_on,48,60,0
2,note_on,48,0,240
2,note_on,51,63,0
2,note_on,51,0,240
2,note_on,48,60,0
2,note_on,48,0,120
2,note_on,43,66,120
2,note_on,43,0,240
2,note_on,47,60,0
2,note_on,47,0,240
2,note_on,50,60,0
2,note_on,50,0,240
2,note_on,55,60,0
2,note_on,55,0,240
2,note_on,48,63,0
2,note_on,48,0,240
2,note_on,51,60,0
2,note_on,51,0,240
2,note_on,43,66,0
2,note_on,43,0,240
2,note_on,47,60,0
2,note_on,47,0,240
2,note_on,50,60,0
2,note_on,50,0,240
2,note_on,55,60,0
2,note_on,55,0,240
2,note_on,48,63,0
2,note_on,48,0,240
2,note_on,51,60,0
2,note_on,51,0,240
2,note_on,43,72,0
2,note_on,55,72,12
2,note_on,43,0,708
2,note_on,56,63,0
2,note_on,55,0,12
2,note_on,55,62,108
2,note_on,56,0,10
2,note_on,53,60,110
2,note_on,55,0,10
2,note_on,51,60,110
2,note_on,53,0,10
2,note_on,50,59,110
2,note_on,51,0,10
2,note_on,48,57,110
2,note_on,50,0,10
2,note_on,55,63,110
2,note_on,48,0,10
2,note_on,55,0,110
2,note_on,43,57,360
2,note_on,43,0,120
2,note_on,48,35,660
2,note_on,48,0,60
2,note_on,55,35,0
2,note_on,55,0,60
2,note_on,60,35,60
2,note_on,60,0,480
2,note_on,55,34,780
2,note_on,55,0,60
2,note_on,62,34,0
2,note_on,62,0,60
2,note_on,65,35,60
2,note_on,65,0,480
2,note_on,48,35,960
2,note_on,48,0,480
2,note_on,52,31,0
2,note_on,52,0,480
2,note_on,55,31,0
2,note_on,55,0,480
2,note_on,60,35,0
2,note_on,60,0,480
2,note_on,48,31,0
2,note_on,48,0,480
2,note_on,57,35,480
2,note_on,65,33,480
2,note_on,60,33,0
2,note_on,60,0,480
2,note_on,65,0,0
2,note_on,57,0,0
2,note_on,59,38,480
2,note_on,62,35,480
2,note_on,67,35,0
2,note_on,67,0,480
2,note_on,62,0,0
2,note_on,59,0,0
2,note_on,60,41,480
2,note_on,60,0,480
2,note_on,57,37,0
2,note_on,60,37,0
2,note_on,60,0,480
2,note_on,57,0,0
2,note_on,62,35,0
2,note_on,53,35,0
2,note_on,53,0,480
2,note_on,62,0,0
2,note_on,55,41,0
2,note_on,59,41,0
2,note_on,59,0,480
2,note_on,55,0,0
2,note_on,60,39,960
2,note_on,60,0,160
2,note_on,64,31,0
2,note_on,64,0,160
2,note_on,67,31,0
2,note_on,67,0,160
2,note_on,60,39,0
2,note_on,60,0,160
2,note_on,64,32,0
2,note_on,64,0,160
2,note_on,67,32,0
2,note_on,67,0,160
2,note_on,60,40,0
2,note_on,60,0,160
2,note_on,64,32,0
2,note_on,64,0,160
2,note_on,67,32,0
2,note_on,67,0,160
2,note_on,59,43,0
2,note_on,59,0,160
2,note_on,62,36,0
2,note_on,62,0,160
2,note_on,67,35,0
2,note_on,67,0,160
2,note_on,59,40,0
2,note_on,59,0,160
2,note_on,62,33,0
2,note_on,62,0,160
2,note_on,67,29,0
2,note_on,67,0,160
2,note_on,59,37,0
2,note_on,59,0,160
2,note_on,65,29,0
2,note_on,65,0,160
2,note_on,67,29,0
2,note_on,67,0,160
2,note_on,64,35,0
2,note_on,60,29,0
2,note_on,60,0,480
2,note_on,64,0,0
2,note_on,52,31,0
2,note_on,52,0,480
2,note_on,55,31,0
2,note_on,55,0,480
2,note_on,60,35,0
2,note_on,60,0,480
2,note_on,55,31,0
2,note_on,55,0,480
2,note_on,48,31,0
2,note_on,48,0,480
2,note_on,57,35,0
2,note_on,57,0,240
2,note_on,60,31,0
2,note_on,60,0,240
2,note_on,65,32,0
2,note_on,65,0,240
2,note_on,60,33,0
2,note_on,60,0,240
2,note_on,57,35,0
2,note_on,57,0,240
2,note_on,60,38,0
2,note_on,60,0,240
2,note_on,59,40,0
2,note_on,59,0,240
2,note_on,62,35,0
2,note_on,62,0,240
2,note_on,67,42,0
2,note_on,67,0,240
2,note_on,62,35,0
2,note_on,62,0,240
2,note_on,59,35,0
2,note_on,59,0,240
2,note_on,62,34,0
2,note_on,62,0,240
2,note_on,60,41,0
2,note_on,60,0,480
2,note_on,62,37,0
2,note_on,53,37,0
2,note_on,53,0,480
2,note_on,62,0,0
2,note_on,55,35,0
2,note_on,65,35,0
2,note_on,65,0,480
2,note_on,55,0,0
2,note_on,64,37,0
2,note_on,60,32,0
2,note_on,60,0,480
2,note_on,64,0,0
2,note_on,64,40,0
2,note_on,64,0,480
2,note_on,60,37,0
2,note_on,60,0,480
2,note_on,62,40,0
2,note_on,62,0,480
2,note_on,59,38,0
2,note_on,59,0,480
2,note_on,55,38,0
2,note_on,55,0,480
2,note_on,48,40,0
2,note_on,48,0,480
2,note_on,51,40,0
2,note_on,51,0,480
2,note_on,48,37,0
2,note_on,48,0,480
2,note_on,50,40,0
2,note_on,50,0,480
2,note_on,47,38,0
2,note_on,47,0,480
2,note_on,43,38,0
2,note_on,43,0,480
2,note_on,48,69,0
2,note_on,36,58,0
2,note_on,36,0,480
2,note_on,48,0,0
2,note_on,51,40,0
2,note_on,51,0,480
2,note_on,55,40,0
2,note_on,55,0,480
2,note_on,41,58,0
2,note_on,53,69,0
2,note_on,53,0,480
2,note_on,41,0,0
2,note_on,56,40,0
2,note_on,56,0,480
2,note_on,60,40,0
2,note_on,60,0,480
2,note_on,34,58,0
2,note_on,46,69,0
2,note_on,46,0,480
2,note_on,34,0,0
2,note_on,50,40,0
2,note_on,50,0,480
2,note_on,53,40,0
2,note_on,53,0,480
2,note_on,51,69,0
2,note_on,39,58,0
2,note_on,39,0,480
2,note_on,51,0,0
2,note_on,55,40,0
2,note_on,55,0,480
2,note_on,58,40,0
2,note_on,58,0,480
2,note_on,44,69,0
2,note_on,32,58,0
2,note_on,32,0,480
2,note_on,44,0,0
2,note_on,56,40,0
2,note_on,56,0,480
2,note_on,38,58,0
2,note_on,50,69,0
2,note_on,50,0,480
2,note_on,38,0,0
2,note_on,62,40,0
2,note_on,62,0,480
2,note_on,43,69,0
2,note_on,31,58,0
2,note_on,31,0,480
2,note_on,43,0,0
2,note_on,55,40,0
2,note_on,55,0,480
2,note_on,56,45,0
2,note_on,56,0,480
2,note_on,55,39,0
2,note_on,55,0,480
2,note_on,54,39,0
2,note_on,54,0,480
2,note_on,55,44,0
2,note_on,55,0,480
2,note_on,54,41,720
2,note_on,54,0,240
2,note_on,55,44,0
2,note_on,55,0,480
2,note_on,54,32,720
2,note_on,55,39,240
2,note_on,54,0,10
2,note_on,54,35,230
2,note_on,55,0,10
2,note_on,55,39,230
2,note_on,54,0,10
2,note_on,54,31,230
2,note_on,55,0,10
2,note_on,55,39,230
2,note_on,54,0,10
2,note_on,54,32,230
2,note_on,55,0,10
2,note_on,55,38,230
2,note_on,54,0,10
2,note_on,55,0,470
2,note_on,53,33,960
2,note_on,53,0,480
2,note_on,53,31,0
2,note_on,53,0,480
2,note_on,53,31,0
2,note_on,53,0,480
2,note_on,53,33,0
2,note_on,53,0,960
2,note_on,48,31,0
2,note_on,48,0,480
2,note_on,43,33,0
2,note_on,43,0,480
2,note_on,43,30,0
2,note_on,43,0,480
2,note_on,43,30,0
2,note_on,43,0,480
2,note_on,43,33,0
2,note_on,43,0,960
2,note_on,45,30,0
2,note_on,45,0,480
2,note_on,41,33,0
2,note_on,41,0,480
2,note_on,43,32,0
2,note_on,43,0,480
2,note_on,43,32,0
2,note_on,43,0,480
2,note_on,48,33,0
2,note_on,48,0,480
2,note_on,60,28,960
2,note_on,65,33,0
2,note_on,65,0,480
2,note_on,60,0,0
2,note_on,60,26,0
2,note_on,65,31,0
2,note_on,65,0,480
2,note_on,60,0,0
2,note_on,65,31,0
2,note_on,60,26,0
2,note_on,60,0,480
2,note_on,65,0,0
2,note_on,60,28,0
2,note_on,65,33,0
2,note_on,65,0,960
2,note_on,64,31,0
2,note_on,64,0,480
2,note_on,60,0,0
2,note_on,55,28,0
2,note_on,62,33,0
2,note_on,62,0,480
2,note_on,55,0,0
2,note_on,55,25,0
2,note_on,62,30,0
2,note_on,62,0,480
2,note_on,55,0,0
2,note_on,55,25,0
2,note_on,62,30,0
2,note_on,62,0,480
2,note_on,55,0,0
2,note_on,55,28,0
2,note_on,62,33,0
2,note_on,62,0,960
2,note_on,55,0,0
2,note_on,60,30,0
2,note_on,57,25,0
2,note_on,57,0,480
2,note_on,60,0,0
2,note_on,53,33,0
2,note_on,53,0,480
2,note_on,55,32,0
2,note_on,55,0,480
2,note_on,53,32,0
2,note_on,53,0,480
2,note_on,40,58,0
2,note_on,52,69,0
2,note_on,52,0,240
2,note_on,40,0,0
2,note_on,56,40,240
2,note_on,56,0,120
2,note_on,57,40,360
2,note_on,57,0,120
2,note_on,53,40,360
2,note_on,53,0,120
2,note_on,55,40,360
2,note_on,55,0,120
2,note_on,53,40,360
2,note_on,53,0,120
2,note_on,40,75,360
2,note_on,52,75,0
2,note_on,52,0,120
2,note_on,40,0,0
2,note_on,44,73,360
2,note_on,56,73,0
2,note_on,56,0,120
2,note_on,44,0,0
2,note_on,57,73,360
2,note_on,45,73,0
2,note_on,45,0,120
2,note_on,57,0,0
2,note_on,41,75,360
2,note_on,53,75,0
2,note_on,53,0,120
2,note_on,41,0,0
2,note_on,55,73,360
2,note_on,43,73,0
2,note_on,43,0,120
2,note_on,55,0,0
2,note_on,55,73,360
2,note_on,43,73,0
2,note_on,43,0,120
2,note_on,55,0,0
2,note_on,48,64,360
2,note_on,48,0,120
2,note_on,52,59,0
2,note_on,52,0,120
2,note_on,55,59,0
2,note_on,55,0,120
2,note_on,60,59,0
2,note_on,60,0,120
2,note_on,48,63,0
2,note_on,48,0,120
2,note_on,52,58,0
2,note_on,52,0,120
2,note_on,55,58,0
2,note_on,55,0,120
2,note_on,60,58,0
2,note_on,60,0,120
2,note_on,48,63,0
2,note_on,48,0,120
2,note_on,52,57,0
2,note_on,52,0,120
2,note_on,55,58,0
2,note_on,55,0,120
2,note_on,60,58,0
2,note_on,60,0,120
2,note_on,48,63,0
2,note_on,48,0,120
2,note_on,52,58,0
2,note_on,52,0,120
2,note_on,55,59,0
2,note_on,55,0,120
2,note_on,60,59,0
2,note_on,60,0,120
2,note_on,48,63,0
2,note_on,48,0,120
2,note_on,52,57,0
2,note_on,52,0,120
2,note_on,55,57,0
2,note_on,55,0,120
2,note_on,60,57,0
2,note_on,60,0,120
2,note_on,48,63,0
2,note_on,48,0,120
2,note_on,53,57,0
2,note_on,53,0,120
2,note_on,55,57,0
2,note_on,55,0,120
2,note_on,62,57,0
2,note_on,62,0,120
2,note_on,48,63,0
2,note_on,48,0,120
2,note_on,52,57,0
2,note_on,52,0,120
2,note_on,55,57,0
2,note_on,55,0,120
2,note_on,60,57,0
2,note_on,60,0,120
2,note_on,48,63,0
2,note_on,48,0,120
2,note_on,52,57,0
2,note_on,52,0,120
2,note_on,55,57,0
2,note_on,55,0,120
2,note_on,60,57,0
2,note_on,48,63,120
2,note_on,60,0,0
2,note_on,48,0,120
2,note_on,52,57,0
2,note_on,52,0,120
2,note_on,55,58,0
2,note_on,55,0,120
2,note_on,60,58,0
2,note_on,60,0,120
2,note_on,48,63,0
2,note_on,52,58,120
2,note_on,48,0,0
2,note_on,52,0,120
2,note_on,55,59,0
2,note_on,55,0,120
2,note_on,60,59,0
2,note_on,60,0,120
2,note_on,48,63,0
2,note_on,48,0,120
2,note_on,52,57,0
2,note_on,52,0,120
2,note_on,55,57,0
2,note_on,55,0,120
2,note_on,60,57,0
2,note_on,60,0,120
2,note_on,48,63,0
2,note_on,48,0,120
2,note_on,53,57,0
2,note_on,53,0,120
2,note_on,55,57,0
2,note_on,55,0,120
2,note_on,62,57,0
2,note_on,62,0,120
2,note_on,52,63,0
2,note_on,48,63,0
2,note_on,55,63,0
2,note_on,60,63,0
2,note_on,60,0,120
2,note_on,52,0,0
2,note_on,48,0,0
2,note_on,55,0,0
2,note_on,52,58,360
2,note_on,64,69,0
2,note_on,64,0,720
2,note_on,52,0,0
2,note_on,56,63,0
2,note_on,44,63,0
2,note_on,44,0,240
2,note_on,56,0,0
2,note_on,45,63,0
2,note_on,57,63,0
2,note_on,57,0,120
2,note_on,45,0,0
2,note_on,60,71,360
2,note_on,48,60,0
2,note_on,48,0,720
2,note_on,60,0,0
2,note_on,52,63,0
2,note_on,52,0,240
2,note_on,53,56,0
2,note_on,53,0,60
2,note_on,55,52,0
2,note_on,55,0,60
2,note_on,53,56,0
2,note_on,53,0,60
2,note_on,55,52,0
2,note_on,55,0,60
2,note_on,53,56,0
2,note_on,53,0,40
2,note_on,55,52,0
2,note_on,55,0,40
2,note_on,53,52,0
2,note_on,53,0,40
2,note_on,52,56,0
2,note_on,52,0,60
2,note_on,50,52,0
2,note_on,50,0,60
2,note_on,55,63,0
2,note_on,55,0,120
2,note_on,43,56,360
2,note_on,55,67,0
2,note_on,55,0,120
2,note_on,43,0,0
2,note_on,60,72,360
2,note_on,48,60,0
2,note_on,48,0,120
2,note_on,60,0,0
2,note_on,48,69,360
2,note_on,36,58,0
2,note_on,36,0,120
2,note_on,48,0,0
2,note_on,52,46,1320
2,note_on,52,0,480
2,note_on,48,42,0
2,note_on,48,0,480
2,note_on,55,46,0
2,note_on,55,0,1440
2,note_on,52,46,480
2,note_on,52,0,480
2,note_on,48,42,0
2,note_on,48,0,480
2,note_on,55,46,0
2,note_on,55,0,1440
2,note_on,62,35,0
2,note_on,53,29,0
2,note_on,57,29,0
2,note_on,57,0,480
2,note_on,53,0,0
2,note_on,62,0,0
2,note_on,62,35,960
2,note_on,53,29,0
2,note_on,57,29,0
2,note_on,57,0,480
2,note_on,53,0,0
2,note_on,62,0,0
2,note_on,62,27,960
2,note_on,55,27,0
2,note_on,65,32,0
2,note_on,65,0,1440
2,note_on,55,0,0
2,note_on,62,0,0
2,note_on,64,42,0
2,note_on,60,35,0
2,note_on,60,0,480
2,note_on,64,0,0
2,note_on,52,46,1440
2,note_on,52,0,480
2,note_on,48,44,0
2,note_on,48,0,480
2,note_on,43,48,0
2,note_on,55,47,0
2,note_on,55,0,1440
2,note_on,43,0,0
2,note_on,52,46,480
2,note_on,52,0,480
2,note_on,48,44,0
2,note_on,48,0,480
2,note_on,43,48,0
2,note_on,55,47,0
2,note_on,55,0,1440
2,note_on,43,0,0
2,note_on,45,29,0
2,note_on,41,29,0
2,note_on,50,35,0
2,note_on,50,0,480
2,note_on,41,0,0
2,note_on,45,0,0
2,note_on,45,29,960
2,note_on,41,29,0
2,note_on,50,35,0
2,note_on,50,0,480
2,note_on,41,0,0
2,note_on,45,0,0
2,note_on,53,36,960
2,note_on,50,30,0
2,note_on,43,30,0
2,note_on,43,0,480
2,note_on,50,0,0
2,note_on,53,0,0
2,note_on,48,32,960
2,note_on,52,37,0
2,note_on,52,0,480
2,note_on,48,0,0
2,note_on,64,40,0
2,note_on,64,0,480
2,note_on,60,37,0
2,note_on,60,0,480
2,note_on,62,40,0
2,note_on,62,0,480
2,note_on,59,38,0
2,note_on,59,0,480
2,note_on,55,38,0
2,note_on,55,0,480
2,note_on,48,40,0
2,note_on,48,0,480
2,note_on,51,40,0
2,note_on,51,0,480
2,note_on,48,37,0
2,note_on,48,0,480
2,note_on,50,40,0
2,note_on,50,0,480
2,note_on,47,38,0
2,note_on,47,0,480
2,note_on,43,38,0
2,note_on,43,0,480
2,note_on,48,69,0
2,note_on,36,58,0
2,note_on,36,0,480
2,note_on,48,0,0
2,note_on,60,40,0
2,note_on,60,0,480
2,note_on,48,40,0
2,note_on,48,0,480
2,note_on,45,69,0
2,note_on,33,58,0
2,note_on,33,0,480
2,note_on,45,0,0
2,note_on,57,40,0
2,note_on,57,0,480
2,note_on,45,40,0
2,note_on,45,0,480
2,note_on,34,58,0
2,note_on,46,69,0
2,note_on,46,0,480
2,note_on,34,0,0
2,note_on,58,40,0
2,note_on,58,0,480
2,note_on,46,40,0
2,note_on,46,0,480
2,note_on,30,58,0
2,note_on,42,69,0
2,note_on,42,0,480
2,note_on,30,0,0
2,note_on,54,40,0
2,note_on,54,0,480
2,note_on,42,40,0
2,note_on,42,0,480
2,note_on,43,69,0
2,note_on,31,58,0
2,note_on,31,0,480
2,note_on,43,0,0
2,note_on,55,40,0
2,note_on,55,0,480
2,note_on,43,40,0
2,note_on,43,0,480
2,note_on,40,58,0
2,note_on,52,69,0
2,note_on,52,0,480
2,note_on,40,0,0
2,note_on,64,40,0
2,note_on,64,0,480
2,note_on,52,40,0
2,note_on,52,0,480
2,note_on,41,58,0
2,note_on,53,69,0
2,note_on,53,0,480
2,note_on,41,0,0
2,note_on,65,40,0
2,note_on,65,0,480
2,note_on,53,40,0
2,note_on,53,0,480
2,note_on,37,58,0
2,note_on,49,69,0
2,note_on,49,0,480
2,note_on,37,0,0
2,note_on,61,40,0
2,note_on,61,0,480
2,note_on,49,40,0
2,note_on,49,0,480
2,note_on,50,69,0
2,note_on,38,58,0
2,note_on,38,0,480
2,note_on,50,0,0
2,note_on,62,40,0
2,note_on,62,0,480
2,note_on,50,40,0
2,note_on,50,0,480
2,note_on,46,69,0
2,note_on,34,58,0
2,note_on,34,0,480
2,note_on,46,0,0
2,note_on,58,40,0
2,note_on,58,0,480
2,note_on,46,40,0
2,note_on,46,0,480
2,note_on,45,44,0
2,note_on,45,0,480
2,note_on,68,38,720
2,note_on,68,0,240
2,note_on,69,41,0
2,note_on,69,0,480
2,note_on,56,32,720
2,note_on,57,39,240
2,note_on,56,0,10
2,note_on,56,35,230
2,note_on,57,0,10
2,note_on,57,39,230
2,note_on,56,0,10
2,note_on,56,31,230
2,note_on,57,0,10
2,note_on,57,39,230
2,note_on,56,0,10
2,note_on,56,32,230
2,note_on,57,0,10
2,note_on,57,39,230
2,note_on,56,0,10
2,note_on,57,0,470
2,note_on,57,31,960
2,note_on,56,28,240
2,note_on,57,0,10
2,note_on,57,31,230
2,note_on,56,0,10
2,note_on,56,24,230
2,note_on,57,0,10
2,note_on,57,31,230
2,note_on,56,0,10
2,note_on,56,25,230
2,note_on,57,0,10
2,note_on,57,31,230
2,note_on,56,0,10
2,note_on,57,0,470
2,note_on,55,63,960
2,note_on,57,57,240
2,note_on,55,0,10
2,note_on,55,63,230
2,note_on,57,0,10
2,note_on,57,49,230
2,note_on,55,0,10
2,note_on,55,63,230
2,note_on,57,0,10
2,note_on,57,51,230
2,note_on,55,0,10
2,note_on,55,63,230
2,note_on,57,0,10
2,note_on,55,0,470
2,note_on,60,29,960
2,note_on,67,39,0
2,note_on,66,35,240
2,note_on,67,0,10
2,note_on,67,39,230
2,note_on,66,0,10
2,note_on,66,31,230
2,note_on,67,0,10
2,note_on,67,39,230
2,note_on,66,0,10
2,note_on,66,32,230
2,note_on,67,0,10
2,note_on,67,39,230
2,note_on,66,0,10
2,note_on,67,0,470
2,note_on,60,0,0
2,note_on,53,40,960
2,note_on,53,0,240
2,note_on,57,30,0
2,note_on,57,0,240
2,note_on,60,33,0
2,note_on,60,0,240
2,note_on,57,30,0
2,note_on,57,0,240
2,note_on,60,34,0
2,note_on,60,0,240
2,note_on,57,30,0
2,note_on,57,0,240
2,note_on,53,40,0
2,note_on,53,0,240
2,note_on,60,29,0
2,note_on,60,0,240
2,note_on,63,31,0
2,note_on,63,0,240
2,note_on,60,27,0
2,note_on,60,0,240
2,note_on,63,31,0
2,note_on,63,0,240
2,note_on,60,28,0
2,note_on,60,0,240
2,note_on,53,40,0
2,note_on,53,0,240
2,note_on,58,30,0
2,note_on,58,0,240
2,note_on,62,33,0
2,note_on,62,0,240
2,note_on,58,30,0
2,note_on,58,0,240
2,note_on,62,33,0
2,note_on,62,0,240
2,note_on,58,30,0
2,note_on,58,0,240
2,note_on,53,40,0
2,note_on,53,0,240
2,note_on,55,23,0
2,note_on,55,0,240
2,note_on,58,28,0
2,note_on,58,0,240
2,note_on,55,24,0
2,note_on,55,0,240
2,note_on,58,29,0
2,note_on,58,0,240
2,note_on,55,24,0
2,note_on,55,0,240
2,note_on,53,30,0
2,note_on,57,30,0
2,note_on,57,0,480
2,note_on,53,0,0
2,note_on,53,47,2400
2,note_on,53,0,480
2,note_on,45,44,0
2,note_on,45,0,480
2,note_on,50,48,0
2,note_on,50,0,480
2,note_on,43,48,0
2,note_on,43,0,480
2,note_on,48,49,0
2,note_on,48,0,720
2,note_on,45,47,0
2,note_on,45,0,240
2,note_on,41,52,0
2,note_on,41,0,480
2,note_on,50,40,0
2,note_on,50,0,480
2,note_on,46,44,0
2,note_on,46,0,480
2,note_on,45,47,0
2,note_on,45,0,480
2,note_on,50,40,480
2,note_on,50,0,480
2,note_on,46,40,0
2,note_on,46,0,480
2,note_on,48,41,480
2,note_on,48,0,480
2,note_on,41,43,0
2,note_on,41,0,480
2,note_on,72,40,480
2,note_on,69,32,0
2,note_on,69,0,360
2,note_on,72,0,0
2,note_on,67,28,0
2,note_on,70,35,0
2,note_on,70,0,120
2,note_on,67,0,0
2,note_on,69,40,0
2,note_on,65,32,0
2,note_on,65,0,120
2,note_on,69,0,0
2,note_on,65,32,360
2,note_on,69,40,0
2,note_on,69,0,120
2,note_on,65,0,0
2,note_on,65,29,360
2,note_on,69,37,0
2,note_on,69,0,360
2,note_on,65,0,0
2,note_on,67,33,0
2,note_on,60,26,0
2,note_on,60,0,120
2,note_on,67,0,0
2,note_on,65,38,0
2,note_on,57,30,0
2,note_on,57,0,120
2,note_on,65,0,0
2,note_on,65,35,360
2,note_on,57,28,0
2,note_on,57,0,120
2,note_on,65,0,0
2,note_on,65,35,360
2,note_on,57,28,0
2,note_on,57,0,480
2,note_on,65,0,0
2,note_on,60,28,0
2,note_on,67,36,0
2,note_on,67,0,120
2,note_on,60,0,0
2,note_on,67,35,360
2,note_on,60,28,0
2,note_on,60,0,120
2,note_on,67,0,0
2,note_on,60,28,360
2,note_on,67,35,0
2,note_on,67,0,120
2,note_on,60,0,0
2,note_on,67,40,360
2,note_on,60,32,0
2,note_on,60,0,480
2,note_on,67,0,0
2,note_on,69,35,0
2,note_on,65,28,0
2,note_on,65,0,480
2,note_on,69,0,0
2,note_on,72,40,0
2,note_on,69,32,0
2,note_on,69,0,360
2,note_on,72,0,0
2,note_on,70,35,0
2,note_on,67,28,0
2,note_on,67,0,120
2,note_on,70,0,0
2,note_on,65,32,0
2,note_on,69,40,0
2,note_on,69,0,120
2,note_on,65,0,0
2,note_on,65,32,360
2,note_on,69,40,0
2,note_on,69,0,120
2,note_on,65,0,0
2,note_on,69,37,360
2,note_on,65,29,0
2,note_on,65,0,360
2,note_on,69,0,0
2,note_on,67,33,0
2,note_on,60,26,0
2,note_on,60,0,120
2,note_on,67,0,0
2,note_on,65,38,0
2,note_on,57,30,0
2,note_on,57,0,120
2,note_on,65,0,0
2,note_on,57,28,360
2,note_on,65,35,0
2,note_on,65,0,120
2,note_on,57,0,0
2,note_on,57,28,360
2,note_on,65,35,0
2,note_on,65,0,120
2,note_on,57,0,0
2,note_on,67,37,360
2,note_on,60,29,0
2,note_on,60,0,480
2,note_on,67,0,0
2,note_on,60,28,480
2,note_on,67,35,0
2,note_on,67,0,480
2,note_on,60,0,0
2,note_on,65,39,0
2,note_on,65,0,480
2,note_on,70,35,480
2,note_on,60,28,0
2,note_on,64,28,0
2,note_on,64,0,480
2,note_on,60,0,0
2,note_on,70,0,0
2,note_on,69,39,0
2,note_on,65,31,0
2,note_on,65,0,480
2,note_on,69,0,0
2,note_on,58,31,480
2,note_on,52,25,0
2,note_on,48,25,0
2,note_on,48,0,480
2,note_on,52,0,0
2,note_on,58,0,0
2,note_on,53,27,0
2,note_on,57,35,0
2,note_on,57,0,480
2,note_on,53,0,0
2,note_on,37,51,480
2,note_on,49,60,0
2,note_on,49,0,480
2,note_on,37,0,0
2,note_on,50,66,0
2,note_on,38,56,0
2,note_on,38,0,240
2,note_on,50,0,0
2,note_on,53,60,0
2,note_on,53,0,240
2,note_on,57,60,0
2,note_on,57,0,240
2,note_on,53,60,0
2,note_on,53,0,240
2,note_on,57,63,0
2,note_on,57,0,240
2,note_on,53,60,0
2,note_on,53,0,240
2,note_on,50,65,0
2,note_on,50,0,240
2,note_on,53,60,0
2,note_on,53,0,240
2,note_on,57,63,0
2,note_on,57,0,240
2,note_on,53,60,0
2,note_on,53,0,240
2,note_on,57,60,0
2,note_on,57,0,240
2,note_on,53,62,0
2,note_on,53,0,240
2,note_on,40,60,0
2,note_on,52,71,0
2,note_on,52,0,120
2,note_on,40,0,0
2,note_on,55,60,360
2,note_on,52,60,0
2,note_on,58,60,0
2,note_on,61,71,0
2,note_on,61,0,120
2,note_on,55,0,0
2,note_on,52,0,0
2,note_on,58,0,0
2,note_on,52,71,840
2,note_on,40,60,0
2,note_on,40,0,120
2,note_on,52,0,0
2,note_on,61,71,360
2,note_on,52,60,0
2,note_on,55,60,0
2,note_on,58,60,0
2,note_on,58,0,120
2,note_on,61,0,0
2,note_on,52,0,0
2,note_on,55,0,0
2,note_on,53,66,840
2,note_on,53,0,240
2,note_on,57,60,0
2,note_on,57,0,240
2,note_on,62,60,0
2,note_on,62,0,240
2,note_on,57,60,0
2,note_on,57,0,240
2,note_on,62,63,0
2,note_on,62,0,240
2,note_on,57,60,0
2,note_on,57,0,240
2,note_on,53,65,0
2,note_on,53,0,240
2,note_on,57,60,0
2,note_on,57,0,240
2,note_on,62,63,0
2,note_on,62,0,240
2,note_on,57,60,0
2,note_on,57,0,240
2,note_on,62,60,0
2,note_on,62,0,240
2,note_on,57,62,0
2,note_on,57,0,240
2,note_on,38,60,0
2,note_on,50,71,0
2,note_on,50,0,120
2,note_on,38,0,0
2,note_on,56,60,360
2,note_on,50,60,0
2,note_on,59,71,0
2,note_on,53,60,0
2,note_on,53,0,120
2,note_on,56,0,0
2,note_on,50,0,0
2,note_on,59,0,0
2,note_on,38,60,840
2,note_on,50,71,0
2,note_on,50,0,120
2,note_on,38,0,0
2,note_on,53,60,360
2,note_on,59,71,0
2,note_on,56,60,0
2,note_on,50,60,0
2,note_on,50,0,120
2,note_on,53,0,0
2,note_on,59,0,0
2,note_on,56,0,0
2,note_on,51,66,840
2,note_on,51,0,240
2,note_on,55,60,0
2,note_on,55,0,240
2,note_on,60,60,0
2,note_on,60,0,240
2,note_on,55,60,0
2,note_on,55,0,240
2,note_on,60,63,0
2,note_on,60,0,240
2,note_on,55,60,0
2,note_on,55,0,240
2,note_on,51,65,0
2,note_on,51,0,240
2,note_on,55,60,0
2,note_on,55,0,240
2,note_on,60,63,0
2,note_on,60,0,240
2,note_on,55,60,0
2,note_on,55,0,240
2,note_on,60,60,0
2,note_on,60,0,240
2,note_on,55,62,0
2,note_on,55,0,240
2,note_on,39,71,0
2,note_on,39,0,120
2,note_on,57,60,360
2,note_on,54,60,0
2,note_on,60,71,0
2,note_on,51,60,0
2,note_on,51,0,120
2,note_on,57,0,0
2,note_on,54,0,0
2,note_on,60,0,0
2,note_on,39,71,840
2,note_on,39,0,120
2,note_on,51,60,360
2,note_on,60,71,0
2,note_on,57,60,0
2,note_on,54,60,0
2,note_on,54,0,120
2,note_on,51,0,0
2,note_on,60,0,0
2,note_on,57,0,0
2,note_on,49,66,840
2,note_on,49,0,240
2,note_on,53,60,0
2,note_on,53,0,240
2,note_on,58,60,0
2,note_on,58,0,240
2,note_on,53,60,0
2,note_on,53,0,240
2,note_on,58,63,0
2,note_on,58,0,240
2,note_on,53,60,0
2,note_on,53,0,240
2,note_on,49,66,0
2,note_on,49,0,240
2,note_on,53,60,0
2,note_on,53,0,240
2,note_on,58,60,0
2,note_on,58,0,240
2,note_on,53,60,0
2,note_on,53,0,240
2,note_on,58,63,0
2,note_on,58,0,240
2,note_on,53,60,0
2,note_on,53,0,240
2,note_on,48,66,0
2,note_on,48,0,240
2,note_on,53,60,0
2,note_on,53,0,240
2,note_on,57,60,0
2,note_on,57,0,240
2,note_on,53,60,0
2,note_on,53,0,240
2,note_on,57,63,0
2,note_on,57,0,240
2,note_on,53,60,0
2,note_on,53,0,240
2,note_on,48,66,0
2,note_on,48,0,240
2,note_on,53,60,0
2,note_on,53,0,240
2,note_on,57,60,0
2,note_on,57,0,240
2,note_on,53,60,0
2,note_on,53,0,240
2,note_on,57,63,0
2,note_on,57,0,240
2,note_on,53,60,0
2,note_on,53,0,240
2,note_on,47,66,0
2,note_on,47,0,240
2,note_on,53,60,0
2,note_on,53,0,240
2,note_on,56,60,0
2,note_on,56,0,240
2,note_on,53,60,0
2,note_on,53,0,240
2,note_on,56,63,0
2,note_on,56,0,240
2,note_on,53,60,0
2,note_on,53,0,240
2,note_on,47,66,0
2,note_on,47,0,240
2,note_on,53,60,0
2,note_on,53,0,240
2,note_on,56,60,0
2,note_on,56,0,240
2,note_on,53,60,0
2,note_on,53,0,240
2,note_on,56,63,0
2,note_on,56,0,240
2,note_on,53,60,0
2,note_on,53,0,240
2,note_on,48,66,0
2,note_on,48,0,240
2,note_on,52,60,0
2,note_on,52,0,240
2,note_on,55,60,0
2,note_on,55,0,240
2,note_on,60,60,0
2,note_on,60,0,240
2,note_on,53,63,0
2,note_on,53,0,240
2,note_on,56,60,0
2,note_on,56,0,240
2,note_on,48,66,0
2,note_on,48,0,240
2,note_on,52,60,0
2,note_on,52,0,240
2,note_on,55,60,0
2,note_on,55,0,240
2,note_on,60,60,0
2,note_on,60,0,240
2,note_on,53,63,0
2,note_on,53,0,240
2,note_on,56,60,0
2,note_on,56,0,240
2,note_on,60,72,0
2,note_on,60,0,720
2,note_on,61,63,0
2,note_on,60,62,120
2,note_on,61,0,10
2,note_on,58,60,110
2,note_on,60,0,10
2,note_on,56,60,110
2,note_on,58,0,10
2,note_on,55,59,110
2,note_on,56,0,10
2,note_on,53,57,110
2,note_on,55,0,10
2,note_on,60,63,110
2,note_on,53,0,10
2,note_on,60,0,110
2,note_on,48,57,360
2,note_on,36,48,0
2,note_on,36,0,120
2,note_on,48,0,0
2,note_on,41,35,660
2,note_on,41,0,60
2,note_on,48,35,0
2,note_on,48,0,60
2,note_on,53,35,60
2,note_on,53,0,480
2,note_on,48,34,780
2,note_on,48,0,60
2,note_on,55,34,0
2,note_on,55,0,60
2,note_on,58,35,60
2,note_on,58,0,480
2,note_on,41,35,960
2,note_on,41,0,480
2,note_on,45,31,0
2,note_on,45,0,480
2,note_on,48,31,0
2,note_on,48,0,480
2,note_on,53,35,0
2,note_on,53,0,480
2,note_on,41,31,0
2,note_on,41,0,480
2,note_on,50,35,480
2,note_on,53,33,480
2,note_on,58,33,0
2,note_on,58,0,480
2,note_on,53,0,0
2,note_on,50,0,0
2,note_on,52,38,480
2,note_on,60,35,480
2,note_on,55,35,0
2,note_on,55,0,480
2,note_on,60,0,0
2,note_on,52,0,0
2,note_on,53,41,480
2,note_on,53,0,480
2,note_on,50,31,0
2,note_on,53,37,0
2,note_on,53,0,480
2,note_on,50,0,0
2,note_on,46,29,0
2,note_on,55,35,0
2,note_on,55,0,480
2,note_on,46,0,0
2,note_on,48,34,0
2,note_on,52,41,0
2,note_on,52,0,480
2,note_on,48,0,0
2,note_on,53,39,960
2,note_on,53,0,160
2,note_on,57,31,0
2,note_on,57,0,160
2,note_on,60,31,0
2,note_on,60,0,160
2,note_on,53,39,0
2,note_on,53,0,160
2,note_on,57,32,0
2,note_on,57,0,160
2,note_on,60,32,0
2,note_on,60,0,160
2,note_on,53,40,0
2,note_on,53,0,160
2,note_on,57,32,0
2,note_on,57,0,160
2,note_on,60,32,0
2,note_on,60,0,160
2,note_on,52,43,0
2,note_on,52,0,160
2,note_on,55,36,0
2,note_on,55,0,160
2,note_on,60,35,0
2,note_on,60,0,160
2,note_on,52,40,0
2,note_on,52,0,160
2,note_on,55,33,0
2,note_on,55,0,160
2,note_on,60,29,0
2,note_on,60,0,160
2,note_on,52,37,0
2,note_on,52,0,160
2,note_on,58,29,0
2,note_on,58,0,160
2,note_on,60,29,0
2,note_on,60,0,160
2,note_on,53,29,0
2,note_on,57,35,0
2,note_on,57,0,480
2,note_on,53,0,0
2,note_on,57,31,0
2,note_on,57,0,480
2,note_on,60,31,0
2,note_on,60,0,480
2,note_on,65,35,0
2,note_on,65,0,480
2,note_on,60,31,0
2,note_on,60,0,480
2,note_on,53,31,0
2,note_on,53,0,480
2,note_on,62,35,0
2,note_on,62,0,240
2,note_on,65,31,0
2,note_on,65,0,240
2,note_on,70,32,0
2,note_on,70,0,240
2,note_on,65,33,0
2,note_on,65,0,240
2,note_on,62,35,0
2,note_on,62,0,240
2,note_on,65,38,0
2,note_on,65,0,240
2,note_on,64,40,0
2,note_on,64,0,240
2,note_on,67,35,0
2,note_on,67,0,240
2,note_on,72,42,0
2,note_on,72,0,240
2,note_on,67,35,0
2,note_on,67,0,240
2,note_on,64,35,0
2,note_on,64,0,240
2,note_on,67,34,0
2,note_on,67,0,240
2,note_on,65,41,0
2,note_on,65,0,480
2,note_on,58,37,0
2,note_on,67,37,0
2,note_on,67,0,480
2,note_on,58,0,0
2,note_on,60,35,0
2,note_on,70,35,0
2,note_on,70,0,480
2,note_on,60,0,0
2,note_on,69,37,0
2,note_on,65,32,0
2,note_on,65,0,480
2,note_on,69,0,0
2,note_on,69,40,0
2,note_on,69,0,480
2,note_on,65,37,0
2,note_on,65,0,480
2,note_on,67,40,0
2,note_on,67,0,480
2,note_on,64,38,0
2,note_on,64,0,480
2,note_on,60,38,0
2,note_on,60,0,480
2,note_on,53,40,0
2,note_on,53,0,480
2,note_on,56,40,0
2,note_on,56,0,480
2,note_on,53,37,0
2,note_on,53,0,480
2,note_on,55,40,0
2,note_on,55,0,480
2,note_on,52,38,0
2,note_on,52,0,480
2,note_on,48,38,0
2,note_on,48,0,480
2,note_on,41,58,0
2,note_on,53,69,0
2,note_on,53,0,480
2,note_on,41,0,0
2,note_on,56,40,0
2,note_on,56,0,480
2,note_on,60,40,0
2,note_on,60,0,480
2,note_on,58,69,0
2,note_on,46,58,0
2,note_on,46,0,480
2,note_on,58,0,0
2,note_on,61,40,0
2,note_on,61,0,480
2,note_on,65,40,0
2,note_on,65,0,480
2,note_on,51,69,0
2,note_on,39,58,0
2,note_on,39,0,480
2,note_on,51,0,0
2,note_on,55,40,0
2,note_on,55,0,480
2,note_on,58,40,0
2,note_on,58,0,480
2,note_on,44,58,0
2,note_on,56,69,0
2,note_on,56,0,480
2,note_on,44,0,0
2,note_on,60,40,0
2,note_on,60,0,480
2,note_on,63,40,0
2,note_on,63,0,480
2,note_on,37,58,0
2,note_on,49,69,0
2,note_on,49,0,480
2,note_on,37,0,0
2,note_on,61,40,0
2,note_on,61,0,480
2,note_on,55,69,0
2,note_on,43,58,0
2,note_on,43,0,480
2,note_on,55,0,0
2,note_on,67,40,0
2,note_on,67,0,480
2,note_on,36,58,0
2,note_on,48,69,0
2,note_on,48,0,480
2,note_on,36,0,0
2,note_on,60,40,0
2,note_on,60,0,480
2,note_on,61,45,0
2,note_on,61,0,480
2,note_on,60,39,0
2,note_on,60,0,480
2,note_on,59,39,0
2,note_on,59,0,480
2,note_on,60,44,0
2,note_on,60,0,480
2,note_on,59,41,720
2,note_on,59,0,240
2,note_on,60,44,0
2,note_on,60,0,480
2,note_on,59,32,720
2,note_on,60,39,240
2,note_on,59,0,10
2,note_on,59,35,230
2,note_on,60,0,10
2,note_on,60,39,230
2,note_on,59,0,10
2,note_on,59,31,230
2,note_on,60,0,10
2,note_on,60,39,230
2,note_on,59,0,10
2,note_on,59,32,230
2,note_on,60,0,10
2,note_on,60,38,230
2,note_on,59,0,10
2,note_on,60,0,470
2,note_on,58,33,960
2,note_on,58,0,480
2,note_on,58,31,0
2,note_on,58,0,480
2,note_on,58,31,0
2,note_on,58,0,480
2,note_on,58,33,0
2,note_on,58,0,960
2,note_on,53,31,0
2,note_on,53,0,480
2,note_on,48,33,0
2,note_on,48,0,480
2,note_on,48,30,0
2,note_on,48,0,480
2,note_on,48,30,0
2,note_on,48,0,480
2,note_on,48,33,0
2,note_on,48,0,960
2,note_on,50,30,0
2,note_on,50,0,480
2,note_on,46,33,0
2,note_on,46,0,480
2,note_on,48,32,0
2,note_on,48,0,480
2,note_on,48,32,0
2,note_on,48,0,480
2,note_on,53,33,0
2,note_on,53,0,480
2,note_on,65,28,960
2,note_on,70,33,0
2,note_on,70,0,480
2,note_on,65,0,0
2,note_on,65,26,0
2,note_on,70,31,0
2,note_on,70,0,480
2,note_on,65,0,0
2,note_on,70,31,0
2,note_on,65,26,0
2,note_on,65,0,480
2,note_on,70,0,0
2,note_on,70,33,0
2,note_on,65,28,0
2,note_on,70,0,960
2,note_on,69,31,0
2,note_on,69,0,480
2,note_on,65,0,0
2,note_on,60,28,0
2,note_on,67,33,0
2,note_on,67,0,480
2,note_on,60,0,0
2,note_on,67,30,0
2,note_on,60,25,0
2,note_on,60,0,480
2,note_on,67,0,0
2,note_on,67,30,0
2,note_on,60,25,0
2,note_on,60,0,480
2,note_on,67,0,0
2,note_on,60,28,0
2,note_on,67,33,0
2,note_on,67,0,960
2,note_on,60,0,0
2,note_on,65,30,0
2,note_on,62,25,0
2,note_on,62,0,480
2,note_on,65,0,0
2,note_on,58,33,0
2,note_on,58,0,480
2,note_on,60,32,0
2,note_on,60,0,480
2,note_on,58,32,0
2,note_on,58,0,480
2,note_on,45,58,0
2,note_on,57,69,0
2,note_on,57,0,240
2,note_on,45,0,0
2,note_on,61,40,240
2,note_on,61,0,120
2,note_on,62,40,360
2,note_on,62,0,120
2,note_on,58,40,360
2,note_on,58,0,120
2,note_on,60,40,360
2,note_on,60,0,120
2,note_on,58,40,360
2,note_on,58,0,120
2,note_on,45,75,360
2,note_on,57,75,0
2,note_on,57,0,120
2,note_on,45,0,0
2,note_on,49,73,360
2,note_on,61,73,0
2,note_on,61,0,120
2,note_on,49,0,0
2,note_on,62,73,360
2,note_on,50,73,0
2,note_on,50,0,120
2,note_on,62,0,0
2,note_on,46,75,360
2,note_on,58,75,0
2,note_on,58,0,120
2,note_on,46,0,0
2,note_on,60,73,360
2,note_on,48,73,0
2,note_on,48,0,120
2,note_on,60,0,0
2,note_on,48,73,360
2,note_on,36,73,0
2,note_on,36,0,120
2,note_on,48,0,0
2,note_on,41,64,360
2,note_on,41,0,120
2,note_on,45,59,0
2,note_on,45,0,120
2,note_on,48,59,0
2,note_on,48,0,120
2,note_on,53,59,0
2,note_on,53,0,120
2,note_on,41,63,0
2,note_on,41,0,120
2,note_on,45,58,0
2,note_on,45,0,120
2,note_on,48,58,0
2,note_on,48,0,120
2,note_on,53,58,0
2,note_on,53,0,120
2,note_on,41,63,0
2,note_on,41,0,120
2,note_on,45,57,0
2,note_on,45,0,120
2,note_on,48,58,0
2,note_on,48,0,120
2,note_on,53,58,0
2,note_on,53,0,120
2,note_on,41,63,0
2,note_on,41,0,120
2,note_on,45,58,0
2,note_on,45,0,120
2,note_on,48,59,0
2,note_on,48,0,120
2,note_on,53,59,0
2,note_on,53,0,120
2,note_on,41,63,0
2,note_on,41,0,120
2,note_on,45,57,0
2,note_on,45,0,120
2,note_on,48,57,0
2,note_on,48,0,120
2,note_on,53,57,0
2,note_on,53,0,120
2,note_on,41,63,0
2,note_on,41,0,120
2,note_on,46,57,0
2,note_on,46,0,120
2,note_on,48,57,0
2,note_on,48,0,120
2,note_on,55,57,0
2,note_on,55,0,120
2,note_on,41,63,0
2,note_on,41,0,120
2,note_on,45,57,0
2,note_on,45,0,120
2,note_on,48,57,0
2,note_on,48,0,120
2,note_on,53,57,0
2,note_on,53,0,120
2,note_on,41,63,0
2,note_on,41,0,120
2,note_on,45,57,0
2,note_on,45,0,120
2,note_on,48,57,0
2,note_on,48,0,120
2,note_on,53,57,0
2,note_on,53,0,120
2,note_on,41,63,0
2,note_on,45,57,120
2,note_on,41,0,0
2,note_on,45,0,120
2,note_on,48,58,0
2,note_on,48,0,120
2,note_on,53,58,0
2,note_on,53,0,120
2,note_on,41,63,0
2,note_on,45,58,120
2,note_on,41,0,0
2,note_on,45,0,120
2,note_on,48,59,0
2,note_on,48,0,120
2,note_on,53,59,0
2,note_on,53,0,120
2,note_on,41,63,0
2,note_on,41,0,120
2,note_on,45,57,0
2,note_on,45,0,120
2,note_on,48,57,0
2,note_on,48,0,120
2,note_on,53,57,0
2,note_on,53,0,120
2,note_on,41,63,0
2,note_on,41,0,120
2,note_on,46,57,0
2,note_on,46,0,120
2,note_on,48,57,0
2,note_on,48,0,120
2,note_on,55,57,0
2,note_on,55,0,120
2,note_on,65,63,0
2,note_on,53,63,0
2,note_on,57,63,0
2,note_on,60,63,0
2,note_on,60,0,120
2,note_on,65,0,0
2,note_on,53,0,0
2,note_on,57,0,0
2,note_on,57,69,360
2,note_on,45,58,0
2,note_on,45,0,720
2,note_on,57,0,0
2,note_on,61,63,0
2,note_on,49,63,0
2,note_on,49,0,240
2,note_on,61,0,0
2,note_on,62,63,0
2,note_on,50,63,0
2,note_on,50,0,120
2,note_on,62,0,0
2,note_on,65,71,360
2,note_on,53,60,0
2,note_on,53,0,720
2,note_on,65,0,0
2,note_on,57,63,0
2,note_on,57,0,240
2,note_on,58,56,0
2,note_on,58,0,60
2,note_on,60,52,0
2,note_on,60,0,60
2,note_on,58,56,0
2,note_on,58,0,60
2,note_on,60,52,0
2,note_on,60,0,60
2,note_on,58,56,0
2,note_on,58,0,40
2,note_on,60,52,0
2,note_on,60,0,40
2,note_on,58,52,0
2,note_on,58,0,40
2,note_on,57,56,0
2,note_on,57,0,60
2,note_on,55,52,0
2,note_on,55,0,60
2,note_on,60,63,0
2,note_on,60,0,120
2,note_on,60,67,360
2,note_on,48,56,0
2,note_on,48,0,120
2,note_on,60,0,0
2,note_on,53,60,360
2,note_on,65,72,0
2,note_on,65,0,120
2,note_on,53,0,0
2,note_on,53,69,360
2,note_on,41,58,0
2,note_on,41,0,120
2,note_on,53,0,0
2,note_on,52,46,1320
2,note_on,52,0,480
2,note_on,48,42,0
2,note_on,48,0,480
2,note_on,55,46,0
2,note_on,55,0,1440
2,note_on,52,46,480
2,note_on,52,0,480
2,note_on,48,42,0
2,note_on,48,0,480
2,note_on,55,46,0
2,note_on,55,0,1440
2,note_on,62,35,0
2,note_on,53,29,0
2,note_on,57,29,0
2,note_on,57,0,480
2,note_on,53,0,0
2,note_on,62,0,0
2,note_on,62,35,960
2,note_on,53,29,0
2,note_on,57,29,0
2,note_on,57,0,480
2,note_on,53,0,0
2,note_on,62,0,0
2,note_on,62,27,960
2,note_on,55,27,0
2,note_on,65,32,0
2,note_on,65,0,1440
2,note_on,55,0,0
2,note_on,62,0,0
2,note_on,64,42,0
2,note_on,60,35,0
2,note_on,60,0,480
2,note_on,64,0,0
2,note_on,52,46,1440
2,note_on,52,0,480
2,note_on,48,44,0
2,note_on,48,0,480
2,note_on,43,48,0
2,note_on,55,47,0
2,note_on,55,0,1440
2,note_on,43,0,0
2,note_on,52,46,480
2,note_on,52,0,480
2,note_on,48,44,0
2,note_on,48,0,480
2,note_on,43,48,0
2,note_on,55,47,0
2,note_on,55,0,1440
2,note_on,43,0,0
2,note_on,45,29,0
2,note_on,41,29,0
2,note_on,50,35,0
2,note_on,50,0,480
2,note_on,41,0,0
2,note_on,45,0,0
2,note_on,45,29,960
2,note_on,41,29,0
2,note_on,50,35,0
2,note_on,50,0,480
2,note_on,41,0,0
2,note_on,45,0,0
2,note_on,53,36,960
2,note_on,50,30,0
2,note_on,43,30,0
2,note_on,43,0,480
2,note_on,50,0,0
2,note_on,53,0,0
2,note_on,48,32,960
2,note_on,52,37,0
2,note_on,52,0,480
2,note_on,48,0,0
2,note_on,64,40,0
2,note_on,64,0,480
2,note_on,60,37,0
2,note_on,60,0,480
2,note_on,62,40,0
2,note_on,62,0,480
2,note_on,59,38,0
2,note_on,59,0,480
2,note_on,55,38,0
2,note_on,55,0,480
2,note_on,48,40,0
2,note_on,48,0,480
2,note_on,51,40,0
2,note_on,51,0,480
2,note_on,48,37,0
2,note_on,48,0,480
2,note_on,50,40,0
2,note_on,50,0,480
2,note_on,47,38,0
2,note_on,47,0,480
2,note_on,43,38,0
2,note_on,43,0,480
2,note_on,48,69,0
2,note_on,36,58,0
2,note_on,36,0,480
2,note_on,48,0,0
2,note_on,60,40,0
2,note_on,60,0,480
2,note_on,48,40,0
2,note_on,48,0,480
2,note_on,45,69,0
2,note_on,33,58,0
2,note_on,33,0,480
2,note_on,45,0,0
2,note_on,57,40,0
2,note_on,57,0,480
2,note_on,45,40,0
2,note_on,45,0,480
2,note_on,34,58,0
2,note_on,46,69,0
2,note_on,46,0,480
2,note_on,34,0,0
2,note_on,58,40,0
2,note_on,58,0,480
2,note_on,46,40,0
2,note_on,46,0,480
2,note_on,30,58,0
2,note_on,42,69,0
2,note_on,42,0,480
2,note_on,30,0,0
2,note_on,54,40,0
2,note_on,54,0,480
2,note_on,42,40,0
2,note_on,42,0,480
2,note_on,43,69,0
2,note_on,31,58,0
2,note_on,31,0,480
2,note_on,43,0,0
2,note_on,55,40,0
2,note_on,55,0,480
2,note_on,43,40,0
2,note_on,43,0,480
2,note_on,40,58,0
2,note_on,52,69,0
2,note_on,52,0,480
2,note_on,40,0,0
2,note_on,64,40,0
2,note_on,64,0,480
2,note_on,52,40,0
2,note_on,52,0,480
2,note_on,41,58,0
2,note_on,53,69,0
2,note_on,53,0,480
2,note_on,41,0,0
2,note_on,65,40,0
2,note_on,65,0,480
2,note_on,53,40,0
2,note_on,53,0,480
2,note_on,37,58,0
2,note_on,49,69,0
2,note_on,49,0,480
2,note_on,37,0,0
2,note_on,61,40,0
2,note_on,61,0,480
2,note_on,49,40,0
2,note_on,49,0,480
2,note_on,50,69,0
2,note_on,38,58,0
2,note_on,38,0,480
2,note_on,50,0,0
2,note_on,62,40,0
2,note_on,62,0,480
2,note_on,50,40,0
2,note_on,50,0,480
2,note_on,46,69,0
2,note_on,34,58,0
2,note_on,34,0,480
2,note_on,46,0,0
2,note_on,58,40,0
2,note_on,58,0,480
2,note_on,46,40,0
2,note_on,46,0,480
2,note_on,45,44,0
2,note_on,45,0,480
2,note_on,68,38,720
2,note_on,68,0,240
2,note_on,69,41,0
2,note_on,69,0,480
2,note_on,56,32,720
2,note_on,57,39,240
2,note_on,56,0,10
2,note_on,56,35,230
2,note_on,57,0,10
2,note_on,57,39,230
2,note_on,56,0,10
2,note_on,56,31,230
2,note_on,57,0,10
2,note_on,57,39,230
2,note_on,56,0,10
2,note_on,56,32,230
2,note_on,57,0,10
2,note_on,57,39,230
2,note_on,56,0,10
2,note_on,57,0,470
2,note_on,57,31,960
2,note_on,56,28,240
2,note_on,57,0,10
2,note_on,57,31,230
2,note_on,56,0,10
2,note_on,56,24,230
2,note_on,57,0,10
2,note_on,57,31,230
2,note_on,56,0,10
2,note_on,56,25,230
2,note_on,57,0,10
2,note_on,57,31,230
2,note_on,56,0,10
2,note_on,57,0,470
2,note_on,55,63,960
2,note_on,57,57,240
2,note_on,55,0,10
2,note_on,55,63,230
2,note_on,57,0,10
2,note_on,57,49,230
2,note_on,55,0,10
2,note_on,55,63,230
2,note_on,57,0,10
2,note_on,57,51,230
2,note_on,55,0,10
2,note_on,55,63,230
2,note_on,57,0,10
2,note_on,55,0,470
2,note_on,60,29,960
2,note_on,67,39,0
2,note_on,66,35,240
2,note_on,67,0,10
2,note_on,67,39,230
2,note_on,66,0,10
2,note_on,66,31,230
2,note_on,67,0,10
2,note_on,67,39,230
2,note_on,66,0,10
2,note_on,66,32,230
2,note_on,67,0,10
2,note_on,67,39,230
2,note_on,66,0,10
2,note_on,67,0,470
2,note_on,60,0,0
2,note_on,53,40,960
2,note_on,53,0,240
2,note_on,57,30,0
2,note_on,57,0,240
2,note_on,60,33,0
2,note_on,60,0,240
2,note_on,57,30,0
2,note_on,57,0,240
2,note_on,60,34,0
2,note_on,60,0,240
2,note_on,57,30,0
2,note_on,57,0,240
2,note_on,53,40,0
2,note_on,53,0,240
2,note_on,60,29,0
2,note_on,60,0,240
2,note_on,63,31,0
2,note_on,63,0,240
2,note_on,60,27,0
2,note_on,60,0,240
2,note_on,63,31,0
2,note_on,63,0,240
2,note_on,60,28,0
2,note_on,60,0,240
2,note_on,53,40,0
2,note_on,53,0,240
2,note_on,58,30,0
2,note_on,58,0,240
2,note_on,62,33,0
2,note_on,62,0,240
2,note_on,58,30,0
2,note_on,58,0,240
2,note_on,62,33,0
2,note_on,62,0,240
2,note_on,58,30,0
2,note_on,58,0,240
2,note_on,53,40,0
2,note_on,53,0,240
2,note_on,55,23,0
2,note_on,55,0,240
2,note_on,58,28,0
2,note_on,58,0,240
2,note_on,55,24,0
2,note_on,55,0,240
2,note_on,58,29,0
2,note_on,58,0,240
2,note_on,55,24,0
2,note_on,55,0,240
2,note_on,53,30,0
2,note_on,57,30,0
2,note_on,57,0,480
2,note_on,53,0,0
2,note_on,53,47,2400
2,note_on,53,0,480
2,note_on,45,44,0
2,note_on,45,0,480
2,note_on,50,48,0
2,note_on,50,0,480
2,note_on,43,48,0
2,note_on,43,0,480
2,note_on,48,49,0
2,note_on,48,0,720
2,note_on,45,47,0
2,note_on,45,0,240
2,note_on,41,52,0
2,note_on,41,0,480
2,note_on,50,40,0
2,note_on,50,0,480
2,note_on,46,44,0
2,note_on,46,0,480
2,note_on,45,47,0
2,note_on,45,0,480
2,note_on,50,40,480
2,note_on,50,0,480
2,note_on,46,40,0
2,note_on,46,0,480
2,note_on,48,41,480
2,note_on,48,0,480
2,note_on,41,43,0
2,note_on,41,0,480
2,note_on,72,40,480
2,note_on,69,32,0
2,note_on,69,0,360
2,note_on,72,0,0
2,note_on,67,28,0
2,note_on,70,35,0
2,note_on,70,0,120
2,note_on,67,0,0
2,note_on,69,40,0
2,note_on,65,32,0
2,note_on,65,0,120
2,note_on,69,0,0
2,note_on,65,32,360
2,note_on,69,40,0
2,note_on,69,0,120
2,note_on,65,0,0
2,note_on,65,29,360
2,note_on,69,37,0
2,note_on,69,0,360
2,note_on,65,0,0
2,note_on,67,33,0
2,note_on,60,26,0
2,note_on,60,0,120
2,note_on,67,0,0
2,note_on,65,38,0
2,note_on,57,30,0
2,note_on,57,0,120
2,note_on,65,0,0
2,note_on,65,35,360
2,note_on,57,28,0
2,note_on,57,0,120
2,note_on,65,0,0
2,note_on,65,35,360
2,note_on,57,28,0
2,note_on,57,0,480
2,note_on,65,0,0
2,note_on,60,28,0
2,note_on,67,36,0
2,note_on,67,0,120
2,note_on,60,0,0
2,note_on,67,35,360
2,note_on,60,28,0
2,note_on,60,0,120
2,note_on,67,0,0
2,note_on,60,28,360
2,note_on,67,35,0
2,note_on,67,0,120
2,note_on,60,0,0
2,note_on,67,40,360
2,note_on,60,32,0
2,note_on,60,0,480
2,note_on,67,0,0
2,note_on,69,35,0
2,note_on,65,28,0
2,note_on,65,0,480
2,note_on,69,0,0
2,note_on,72,40,0
2,note_on,69,32,0
2,note_on,69,0,360
2,note_on,72,0,0
2,note_on,70,35,0
2,note_on,67,28,0
2,note_on,67,0,120
2,note_on,70,0,0
2,note_on,65,32,0
2,note_on,69,40,0
2,note_on,69,0,120
2,note_on,65,0,0
2,note_on,65,32,360
2,note_on,69,40,0
2,note_on,69,0,120
2,note_on,65,0,0
2,note_on,69,37,360
2,note_on,65,29,0
2,note_on,65,0,360
2,note_on,69,0,0
2,note_on,67,33,0
2,note_on,60,26,0
2,note_on,60,0,120
2,note_on,67,0,0
2,note_on,65,38,0
2,note_on,57,30,0
2,note_on,57,0,120
2,note_on,65,0,0
2,note_on,57,28,360
2,note_on,65,35,0
2,note_on,65,0,120
2,note_on,57,0,0
2,note_on,57,28,360
2,note_on,65,35,0
2,note_on,65,0,120
2,note_on,57,0,0
2,note_on,67,37,360
2,note_on,60,29,0
2,note_on,60,0,480
2,note_on,67,0,0
2,note_on,60,28,480
2,note_on,67,35,0
2,note_on,67,0,480
2,note_on,60,0,0
2,note_on,65,39,0
2,note_on,65,0,480
2,note_on,70,35,480
2,note_on,60,28,0
2,note_on,64,28,0
2,note_on,64,0,480
2,note_on,60,0,0
2,note_on,70,0,0
2,note_on,69,39,0
2,note_on,65,31,0
2,note_on,65,0,480
2,note_on,69,0,0
2,note_on,58,31,480
2,note_on,52,25,0
2,note_on,48,25,0
2,note_on,48,0,480
2,note_on,52,0,0
2,note_on,58,0,0
2,note_on,53,27,0
2,note_on,57,35,0
2,note_on,57,0,480
2,note_on,53,0,0
2,note_on,37,51,480
2,note_on,49,60,0
2,note_on,49,0,480
2,note_on,37,0,0
2,note_on,50,66,0
2,note_on,38,56,0
2,note_on,38,0,240
2,note_on,50,0,0
2,note_on,53,60,0
2,note_on,53,0,240
2,note_on,57,60,0
2,note_on,57,0,240
2,note_on,53,60,0
2,note_on,53,0,240
2,note_on,57,63,0
2,note_on,57,0,240
2,note_on,53,60,0
2,note_on,53,0,240
2,note_on,50,65,0
2,note_on,50,0,240
2,note_on,53,60,0
2,note_on,53,0,240
2,note_on,57,63,0
2,note_on,57,0,240
2,note_on,53,60,0
2,note_on,53,0,240
2,note_on,57,60,0
2,note_on,57,0,240
2,note_on,53,62,0
2,note_on,53,0,240
2,note_on,40,60,0
2,note_on,52,71,0
2,note_on,52,0,120
2,note_on,40,0,0
2,note_on,55,60,360
2,note_on,52,60,0
2,note_on,58,60,0
2,note_on,61,71,0
2,note_on,61,0,120
2,note_on,55,0,0
2,note_on,52,0,0
2,note_on,58,0,0
2,note_on,52,71,840
2,note_on,40,60,0
2,note_on,40,0,120
2,note_on,52,0,0
2,note_on,61,71,360
2,note_on,52,60,0
2,note_on,55,60,0
2,note_on,58,60,0
2,note_on,58,0,120
2,note_on,61,0,0
2,note_on,52,0,0
2,note_on,55,0,0
2,note_on,53,66,840
2,note_on,53,0,240
2,note_on,57,60,0
2,note_on,57,0,240
2,note_on,62,60,0
2,note_on,62,0,240
2,note_on,57,60,0
2,note_on,57,0,240
2,note_on,62,63,0
2,note_on,62,0,240
2,note_on,57,60,0
2,note_on,57,0,240
2,note_on,53,65,0
2,note_on,53,0,240
2,note_on,57,60,0
2,note_on,57,0,240
2,note_on,62,63,0
2,note_on,62,0,240
2,note_on,57,60,0
2,note_on,57,0,240
2,note_on,62,60,0
2,note_on,62,0,240
2,note_on,57,62,0
2,note_on,57,0,240
2,note_on,38,60,0
2,note_on,50,71,0
2,note_on,50,0,120
2,note_on,38,0,0
2,note_on,56,60,360
2,note_on,50,60,0
2,note_on,59,71,0
2,note_on,53,60,0
2,note_on,53,0,120
2,note_on,56,0,0
2,note_on,50,0,0
2,note_on,59,0,0
2,note_on,38,60,840
2,note_on,50,71,0
2,note_on,50,0,120
2,note_on,38,0,0
2,note_on,53,60,360
2,note_on,59,71,0
2,note_on,56,60,0
2,note_on,50,60,0
2,note_on,50,0,120
2,note_on,53,0,0
2,note_on,59,0,0
2,note_on,56,0,0
2,note_on,51,66,840
2,note_on,51,0,240
2,note_on,55,60,0
2,note_on,55,0,240
2,note_on,60,60,0
2,note_on,60,0,240
2,note_on,55,60,0
2,note_on,55,0,240
2,note_on,60,63,0
2,note_on,60,0,240
2,note_on,55,60,0
2,note_on,55,0,240
2,note_on,51,65,0
2,note_on,51,0,240
2,note_on,55,60,0
2,note_on,55,0,240
2,note_on,60,63,0
2,note_on,60,0,240
2,note_on,55,60,0
2,note_on,55,0,240
2,note_on,60,60,0
2,note_on,60,0,240
2,note_on,55,62,0
2,note_on,55,0,240
2,note_on,39,71,0
2,note_on,39,0,120
2,note_on,57,60,360
2,note_on,54,60,0
2,note_on,60,71,0
2,note_on,51,60,0
2,note_on,51,0,120
2,note_on,57,0,0
2,note_on,54,0,0
2,note_on,60,0,0
2,note_on,39,71,840
2,note_on,39,0,120
2,note_on,51,60,360
2,note_on,60,71,0
2,note_on,57,60,0
2,note_on,54,60,0
2,note_on,54,0,120
2,note_on,51,0,0
2,note_on,60,0,0
2,note_on,57,0,0
2,note_on,49,66,840
2,note_on,49,0,240
2,note_on,53,60,0
2,note_on,53,0,240
2,note_on,58,60,0
2,note_on,58,0,240
2,note_on,53,60,0
2,note_on,53,0,240
2,note_on,58,63,0
2,note_on,58,0,240
2,note_on,53,60,0
2,note_on,53,0,240
2,note_on,49,66,0
2,note_on,49,0,240
2,note_on,53,60,0
2,note_on,53,0,240
2,note_on,58,60,0
2,note_on,58,0,240
2,note_on,53,60,0
2,note_on,53,0,240
2,note_on,58,63,0
2,note_on,58,0,240
2,note_on,53,60,0
2,note_on,53,0,240
2,note_on,48,66,0
2,note_on,48,0,240
2,note_on,53,60,0
2,note_on,53,0,240
2,note_on,57,60,0
2,note_on,57,0,240
2,note_on,53,60,0
2,note_on,53,0,240
2,note_on,57,63,0
2,note_on,57,0,240
2,note_on,53,60,0
2,note_on,53,0,240
2,note_on,48,66,0
2,note_on,48,0,240
2,note_on,53,60,0
2,note_on,53,0,240
2,note_on,57,60,0
2,note_on,57,0,240
2,note_on,53,60,0
2,note_on,53,0,240
2,note_on,57,63,0
2,note_on,57,0,240
2,note_on,53,60,0
2,note_on,53,0,240
2,note_on,47,66,0
2,note_on,47,0,240
2,note_on,53,60,0
2,note_on,53,0,240
2,note_on,56,60,0
2,note_on,56,0,240
2,note_on,53,60,0
2,note_on,53,0,240
2,note_on,56,63,0
2,note_on,56,0,240
2,note_on,53,60,0
2,note_on,53,0,240
2,note_on,47,66,0
2,note_on,47,0,240
2,note_on,53,60,0
2,note_on,53,0,240
2,note_on,56,60,0
2,note_on,56,0,240
2,note_on,53,60,0
2,note_on,53,0,240
2,note_on,56,63,0
2,note_on,56,0,240
2,note_on,53,60,0
2,note_on,53,0,240
2,note_on,48,66,0
2,note_on,48,0,240
2,note_on,52,60,0
2,note_on,52,0,240
2,note_on,55,60,0
2,note_on,55,0,240
2,note_on,60,60,0
2,note_on,60,0,240
2,note_on,53,63,0
2,note_on,53,0,240
2,note_on,56,60,0
2,note_on,56,0,240
2,note_on,48,66,0
2,note_on,48,0,240
2,note_on,52,60,0
2,note_on,52,0,240
2,note_on,55,60,0
2,note_on,55,0,240
2,note_on,60,60,0
2,note_on,60,0,240
2,note_on,53,63,0
2,note_on,53,0,240
2,note_on,56,60,0
2,note_on,56,0,240
2,note_on,60,72,0
2,note_on,60,0,720
2,note_on,61,63,0
2,note_on,60,62,120
2,note_on,61,0,10
2,note_on,58,60,110
2,note_on,60,0,10
2,note_on,56,60,110
2,note_on,58,0,10
2,note_on,55,59,110
2,note_on,56,0,10
2,note_on,53,57,110
2,note_on,55,0,10
2,note_on,60,63,110
2,note_on,53,0,10
2,note_on,60,0,110
2,note_on,48,57,360
2,note_on,36,48,0
2,note_on,36,0,120
2,note_on,48,0,0
2,note_on,41,35,660
2,note_on,41,0,60
2,note_on,48,35,0
2,note_on,48,0,60
2,note_on,53,35,60
2,note_on,53,0,480
2,note_on,48,34,780
2,note_on,48,0,60
2,note_on,55,34,0
2,note_on,55,0,60
2,note_on,58,35,60
2,note_on,58,0,480
2,note_on,41,35,960
2,note_on,41,0,480
2,note_on,45,31,0
2,note_on,45,0,480
2,note_on,48,31,0
2,note_on,48,0,480
2,note_on,53,35,0
2,note_on,53,0,480
2,note_on,41,31,0
2,note_on,41,0,480
2,note_on,50,35,480
2,note_on,53,33,480
2,note_on,58,33,0
2,note_on,58,0,480
2,note_on,53,0,0
2,note_on,50,0,0
2,note_on,52,38,480
2,note_on,60,35,480
2,note_on,55,35,0
2,note_on,55,0,480
2,note_on,60,0,0
2,note_on,52,0,0
2,note_on,53,41,480
2,note_on,53,0,480
2,note_on,50,31,0
2,note_on,53,37,0
2,note_on,53,0,480
2,note_on,50,0,0
2,note_on,46,29,0
2,note_on,55,35,0
2,note_on,55,0,480
2,note_on,46,0,0
2,note_on,48,34,0
2,note_on,52,41,0
2,note_on,52,0,480
2,note_on,48,0,0
2,note_on,53,39,960
2,note_on,53,0,160
2,note_on,57,31,0
2,note_on,57,0,160
2,note_on,60,31,0
2,note_on,60,0,160
2,note_on,53,39,0
2,note_on,53,0,160
2,note_on,57,32,0
2,note_on,57,0,160
2,note_on,60,32,0
2,note_on,60,0,160
2,note_on,53,40,0
2,note_on,53,0,160
2,note_on,57,32,0
2,note_on,57,0,160
2,note_on,60,32,0
2,note_on,60,0,160
2,note_on,52,43,0
2,note_on,52,0,160
2,note_on,55,36,0
2,note_on,55,0,160
2,note_on,60,35,0
2,note_on,60,0,160
2,note_on,52,40,0
2,note_on,52,0,160
2,note_on,55,33,0
2,note_on,55,0,160
2,note_on,60,29,0
2,note_on,60,0,160
2,note_on,52,37,0
2,note_on,52,0,160
2,note_on,58,29,0
2,note_on,58,0,160
2,note_on,60,29,0
2,note_on,60,0,160
2,note_on,53,29,0
2,note_on,57,35,0
2,note_on,57,0,480
2,note_on,53,0,0
2,note_on,57,31,0
2,note_on,57,0,480
2,note_on,60,31,0
2,note_on,60,0,480
2,note_on,65,35,0
2,note_on,65,0,480
2,note_on,60,31,0
2,note_on,60,0,480
2,note_on,53,31,0
2,note_on,53,0,480
2,note_on,62,35,0
2,note_on,62,0,240
2,note_on,65,31,0
2,note_on,65,0,240
2,note_on,70,32,0
2,note_on,70,0,240
2,note_on,65,33,0
2,note_on,65,0,240
2,note_on,62,35,0
2,note_on,62,0,240
2,note_on,65,38,0
2,note_on,65,0,240
2,note_on,64,40,0
2,note_on,64,0,240
2,note_on,67,35,0
2,note_on,67,0,240
2,note_on,72,42,0
2,note_on,72,0,240
2,note_on,67,35,0
2,note_on,67,0,240
2,note_on,64,35,0
2,note_on,64,0,240
2,note_on,67,34,0
2,note_on,67,0,240
2,note_on,65,41,0
2,note_on,65,0,480
2,note_on,58,37,0
2,note_on,67,37,0
2,note_on,67,0,480
2,note_on,58,0,0
2,note_on,60,35,0
2,note_on,70,35,0
2,note_on,70,0,480
2,note_on,60,0,0
2,note_on,69,37,0
2,note_on,65,32,0
2,note_on,65,0,480
2,note_on,69,0,0
2,note_on,69,40,0
2,note_on,69,0,480
2,note_on,65,37,0
2,note_on,65,0,480
2,note_on,67,40,0
2,note_on,67,0,480
2,note_on,64,38,0
2,note_on,64,0,480
2,note_on,60,38,0
2,note_on,60,0,480
2,note_on,53,40,0
2,note_on,53,0,480
2,note_on,56,40,0
2,note_on,56,0,480
2,note_on,53,37,0
2,note_on,53,0,480
2,note_on,55,40,0
2,note_on,55,0,480
2,note_on,52,38,0
2,note_on,52,0,480
2,note_on,48,38,0
2,note_on,48,0,480
2,note_on,41,58,0
2,note_on,53,69,0
2,note_on,53,0,480
2,note_on,41,0,0
2,note_on,56,40,0
2,note_on,56,0,480
2,note_on,60,40,0
2,note_on,60,0,480
2,note_on,58,69,0
2,note_on,46,58,0
2,note_on,46,0,480
2,note_on,58,0,0
2,note_on,61,40,0
2,note_on,61,0,480
2,note_on,65,40,0
2,note_on,65,0,480
2,note_on,51,69,0
2,note_on,39,58,0
2,note_on,39,0,480
2,note_on,51,0,0
2,note_on,55,40,0
2,note_on,55,0,480
2,note_on,58,40,0
2,note_on,58,0,480
2,note_on,44,58,0
2,note_on,56,69,0
2,note_on,56,0,480
2,note_on,44,0,0
2,note_on,60,40,0
2,note_on,60,0,480
2,note_on,63,40,0
2,note_on,63,0,480
2,note_on,37,58,0
2,note_on,49,69,0
2,note_on,49,0,480
2,note_on,37,0,0
2,note_on,61,40,0
2,note_on,61,0,480
2,note_on,55,69,0
2,note_on,43,58,0
2,note_on,43,0,480
2,note_on,55,0,0
2,note_on,67,40,0
2,note_on,67,0,480
2,note_on,36,58,0
2,note_on,48,69,0
2,note_on,48,0,480
2,note_on,36,0,0
2,note_on,60,40,0
2,note_on,60,0,480
2,note_on,61,45,0
2,note_on,61,0,480
2,note_on,60,39,0
2,note_on,60,0,480
2,note_on,59,39,0
2,note_on,59,0,480
2,note_on,60,44,0
2,note_on,60,0,480
2,note_on,59,41,720
2,note_on,59,0,240
2,note_on,60,44,0
2,note_on,60,0,480
2,note_on,59,32,720
2,note_on,60,39,240
2,note_on,59,0,10
2,note_on,59,35,230
2,note_on,60,0,10
2,note_on,60,39,230
2,note_on,59,0,10
2,note_on,59,31,230
2,note_on,60,0,10
2,note_on,60,39,230
2,note_on,59,0,10
2,note_on,59,32,230
2,note_on,60,0,10
2,note_on,60,38,230
2,note_on,59,0,10
2,note_on,60,0,470
2,note_on,58,33,960
2,note_on,58,0,480
2,note_on,58,31,0
2,note_on,58,0,480
2,note_on,58,31,0
2,note_on,58,0,480
2,note_on,58,33,0
2,note_on,58,0,960
2,note_on,53,31,0
2,note_on,53,0,480
2,note_on,48,33,0
2,note_on,48,0,480
2,note_on,48,30,0
2,note_on,48,0,480
2,note_on,48,30,0
2,note_on,48,0,480
2,note_on,48,33,0
2,note_on,48,0,960
2,note_on,50,30,0
2,note_on,50,0,480
2,note_on,46,33,0
2,note_on,46,0,480
2,note_on,48,32,0
2,note_on,48,0,480
2,note_on,48,32,0
2,note_on,48,0,480
2,note_on,53,33,0
2,note_on,53,0,480
2,note_on,65,28,960
2,note_on,70,33,0
2,note_on,70,0,480
2,note_on,65,0,0
2,note_on,65,26,0
2,note_on,70,31,0
2,note_on,70,0,480
2,note_on,65,0,0
2,note_on,70,31,0
2,note_on,65,26,0
2,note_on,65,0,480
2,note_on,70,0,0
2,note_on,70,33,0
2,note_on,65,28,0
2,note_on,70,0,960
2,note_on,69,31,0
2,note_on,69,0,480
2,note_on,65,0,0
2,note_on,60,28,0
2,note_on,67,33,0
2,note_on,67,0,480
2,note_on,60,0,0
2,note_on,67,30,0
2,note_on,60,25,0
2,note_on,60,0,480
2,note_on,67,0,0
2,note_on,67,30,0
2,note_on,60,25,0
2,note_on,60,0,480
2,note_on,67,0,0
2,note_on,60,28,0
2,note_on,67,33,0
2,note_on,67,0,960
2,note_on,60,0,0
2,note_on,65,30,0
2,note_on,62,25,0
2,note_on,62,0,480
2,note_on,65,0,0
2,note_on,58,33,0
2,note_on,58,0,480
2,note_on,60,32,0
2,note_on,60,0,480
2,note_on,58,32,0
2,note_on,58,0,480
2,note_on,45,58,0
2,note_on,57,69,0
2,note_on,57,0,240
2,note_on,45,0,0
2,note_on,61,40,240
2,note_on,61,0,120
2,note_on,62,40,360
2,note_on,62,0,120
2,note_on,58,40,360
2,note_on,58,0,120
2,note_on,60,40,360
2,note_on,60,0,120
2,note_on,58,40,360
2,note_on,58,0,120
2,note_on,45,75,360
2,note_on,57,75,0
2,note_on,57,0,120
2,note_on,45,0,0
2,note_on,49,73,360
2,note_on,61,73,0
2,note_on,61,0,120
2,note_on,49,0,0
2,note_on,62,73,360
2,note_on,50,73,0
2,note_on,50,0,120
2,note_on,62,0,0
2,note_on,46,75,360
2,note_on,58,75,0
2,note_on,58,0,120
2,note_on,46,0,0
2,note_on,60,73,360
2,note_on,48,73,0
2,note_on,48,0,120
2,note_on,60,0,0
2,note_on,48,73,360
2,note_on,36,73,0
2,note_on,36,0,120
2,note_on,48,0,0
2,note_on,41,64,360
2,note_on,41,0,120
2,note_on,45,59,0
2,note_on,45,0,120
2,note_on,48,59,0
2,note_on,48,0,120
2,note_on,53,59,0
2,note_on,53,0,120
2,note_on,41,63,0
2,note_on,41,0,120
2,note_on,45,58,0
2,note_on,45,0,120
2,note_on,48,58,0
2,note_on,48,0,120
2,note_on,53,58,0
2,note_on,53,0,120
2,note_on,41,63,0
2,note_on,41,0,120
2,note_on,45,57,0
2,note_on,45,0,120
2,note_on,48,58,0
2,note_on,48,0,120
2,note_on,53,58,0
2,note_on,53,0,120
2,note_on,41,63,0
2,note_on,41,0,120
2,note_on,45,58,0
2,note_on,45,0,120
2,note_on,48,59,0
2,note_on,48,0,120
2,note_on,53,59,0
2,note_on,53,0,120
2,note_on,41,63,0
2,note_on,41,0,120
2,note_on,45,57,0
2,note_on,45,0,120
2,note_on,48,57,0
2,note_on,48,0,120
2,note_on,53,57,0
2,note_on,53,0,120
2,note_on,41,63,0
2,note_on,41,0,120
2,note_on,46,57,0
2,note_on,46,0,120
2,note_on,48,57,0
2,note_on,48,0,120
2,note_on,55,57,0
2,note_on,55,0,120
2,note_on,41,63,0
2,note_on,41,0,120
2,note_on,45,57,0
2,note_on,45,0,120
2,note_on,48,57,0
2,note_on,48,0,120
2,note_on,53,57,0
2,note_on,53,0,120
2,note_on,41,63,0
2,note_on,41,0,120
2,note_on,45,57,0
2,note_on,45,0,120
2,note_on,48,57,0
2,note_on,48,0,120
2,note_on,53,57,0
2,note_on,41,63,120
2,note_on,53,0,0
2,note_on,41,0,120
2,note_on,45,57,0
2,note_on,45,0,120
2,note_on,48,58,0
2,note_on,48,0,120
2,note_on,53,58,0
2,note_on,53,0,120
2,note_on,41,63,0
2,note_on,45,58,120
2,note_on,41,0,0
2,note_on,45,0,120
2,note_on,48,59,0
2,note_on,48,0,120
2,note_on,53,59,0
2,note_on,53,0,120
2,note_on,41,63,0
2,note_on,41,0,120
2,note_on,45,57,0
2,note_on,45,0,120
2,note_on,48,57,0
2,note_on,48,0,120
2,note_on,53,57,0
2,note_on,53,0,120
2,note_on,41,63,0
2,note_on,41,0,120
2,note_on,46,57,0
2,note_on,46,0,120
2,note_on,48,57,0
2,note_on,48,0,120
2,note_on,55,57,0
2,note_on,55,0,120
2,note_on,65,63,0
2,note_on,53,63,0
2,note_on,57,63,0
2,note_on,60,63,0
2,note_on,60,0,120
2,note_on,65,0,0
2,note_on,53,0,0
2,note_on,57,0,0
2,note_on,57,69,360
2,note_on,45,58,0
2,note_on,45,0,720
2,note_on,57,0,0
2,note_on,61,63,0
2,note_on,49,63,0
2,note_on,49,0,240
2,note_on,61,0,0
2,note_on,62,63,0
2,note_on,50,63,0
2,note_on,50,0,120
2,note_on,62,0,0
2,note_on,65,71,360
2,note_on,53,60,0
2,note_on,53,0,720
2,note_on,65,0,0
2,note_on,57,63,0
2,note_on,57,0,240
2,note_on,58,56,0
2,note_on,58,0,60
2,note_on,60,52,0
2,note_on,60,0,60
2,note_on,58,56,0
2,note_on,58,0,60
2,note_on,60,52,0
2,note_on,60,0,60
2,note_on,58,56,0
2,note_on,58,0,40
2,note_on,60,52,0
2,note_on,60,0,40
2,note_on,58,52,0
2,note_on,58,0,40
2,note_on,57,56,0
2,note_on,57,0,60
2,note_on,55,52,0
2,note_on,55,0,60
2,note_on,60,63,0
2,note_on,60,0,120
2,note_on,60,67,360
2,note_on,48,56,0
2,note_on,48,0,120
2,note_on,60,0,0
2,note_on,53,60,360
2,note_on,65,72,0
2,note_on,65,0,120
2,note_on,53,0,0
2,note_on,53,69,360
2,note_on,41,58,0
2,note_on,41,0,120
2,note_on,53,0,0
