Track,Message Type,Note,Velocity,Time
1,note_on,71,66,480
1,note_on,71,0,120
1,note_on,69,64,0
1,note_on,69,0,120
1,note_on,68,64,0
1,note_on,68,0,120
1,note_on,69,64,0
1,note_on,69,0,120
1,note_on,72,71,0
1,note_on,72,0,120
1,note_on,74,66,360
1,note_on,74,0,120
1,note_on,72,63,0
1,note_on,72,0,120
1,note_on,71,63,0
1,note_on,71,0,120
1,note_on,72,63,0
1,note_on,72,0,120
1,note_on,76,72,0
1,note_on,76,0,120
1,note_on,77,66,360
1,note_on,77,0,120
1,note_on,76,63,0
1,note_on,76,0,120
1,note_on,75,63,0
1,note_on,75,0,120
1,note_on,76,63,0
1,note_on,76,0,120
1,note_on,83,70,0
1,note_on,83,0,120
1,note_on,81,64,0
1,note_on,81,0,120
1,note_on,80,64,0
1,note_on,80,0,120
1,note_on,81,64,0
1,note_on,81,0,120
1,note_on,83,69,0
1,note_on,83,0,120
1,note_on,81,64,0
1,note_on,81,0,120
1,note_on,80,64,0
1,note_on,80,0,120
1,note_on,81,64,0
1,note_on,81,0,120
1,note_on,84,72,0
1,note_on,84,0,480
1,note_on,81,68,0
1,note_on,81,0,120
1,note_on,84,65,120
1,note_on,84,0,120
1,note_on,79,63,60
1,note_on,79,0,30
1,note_on,81,63,0
1,note_on,81,0,30
1,note_on,83,80,0
1,note_on,83,0,120
1,note_on,78,54,120
1,note_on,81,64,0
1,note_on,81,0,120
1,note_on,78,0,0
1,note_on,76,58,120
1,note_on,79,69,0
1,note_on,79,0,120
1,note_on,76,0,0
1,note_on,78,54,120
1,note_on,81,64,0
1,note_on,81,0,120
1,note_on,78,0,0
1,note_on,79,65,60
1,note_on,79,0,30
1,note_on,81,65,0
1,note_on,81,0,30
1,note_on,83,82,0
1,note_on,83,0,120
1,note_on,78,56,120
1,note_on,81,66,0
1,note_on,81,0,120
1,note_on,78,0,0
1,note_on,76,58,120
1,note_on,79,69,0
1,note_on,79,0,120
1,note_on,76,0,0
1,note_on,78,55,120
1,note_on,81,65,0
1,note_on,81,0,120
1,note_on,78,0,0
1,note_on,79,64,60
1,note_on,79,0,30
1,note_on,81,64,0
1,note_on,83,79,30
1,note_on,81,0,30
1,note_on,83,0,90
1,note_on,78,57,120
1,note_on,81,68,0
1,note_on,81,0,120
1,note_on,78,0,0
1,note_on,76,58,120
1,note_on,79,69,0
1,note_on,79,0,120
1,note_on,76,0,0
1,note_on,75,56,120
1,note_on,78,66,0
1,note_on,78,0,120
1,note_on,75,0,0
1,note_on,76,69,120
1,note_on,76,0,450
1,note_on,71,66,30
1,note_on,71,0,120
1,note_on,69,64,0
1,note_on,69,0,120
1,note_on,68,64,0
1,note_on,68,0,120
1,note_on,69,64,0
1,note_on,69,0,120
1,note_on,72,71,0
1,note_on,72,0,120
1,note_on,74,66,360
1,note_on,74,0,120
1,note_on,72,63,0
1,note_on,72,0,120
1,note_on,71,63,0
1,note_on,71,0,120
1,note_on,72,63,0
1,note_on,72,0,120
1,note_on,76,72,0
1,note_on,76,0,120
1,note_on,77,66,360
1,note_on,77,0,120
1,note_on,76,63,0
1,note_on,76,0,120
1,note_on,75,63,0
1,note_on,75,0,120
1,note_on,76,63,0
1,note_on,76,0,120
1,note_on,83,70,0
1,note_on,83,0,120
1,note_on,81,64,0
1,note_on,81,0,120
1,note_on,80,64,0
1,note_on,80,0,120
1,note_on,81,64,0
1,note_on,81,0,120
1,note_on,83,69,0
1,note_on,83,0,120
1,note_on,81,64,0
1,note_on,81,0,120
1,note_on,80,64,0
1,note_on,80,0,120
1,note_on,81,64,0
1,note_on,81,0,120
1,note_on,84,72,0
1,note_on,84,0,480
1,note_on,81,68,0
1,note_on,81,0,120
1,note_on,84,65,120
1,note_on,84,0,120
1,note_on,79,63,60
1,note_on,79,0,30
1,note_on,81,63,0
1,note_on,81,0,30
1,note_on,83,80,0
1,note_on,83,0,120
1,note_on,78,54,120
1,note_on,81,64,0
1,note_on,81,0,120
1,note_on,78,0,0
1,note_on,76,58,120
1,note_on,79,69,0
1,note_on,79,0,120
1,note_on,76,0,0
1,note_on,78,54,120
1,note_on,81,64,0
1,note_on,81,0,120
1,note_on,78,0,0
1,note_on,79,65,60
1,note_on,79,0,30
1,note_on,81,65,0
1,note_on,81,0,30
1,note_on,83,82,0
1,note_on,83,0,120
1,note_on,78,56,120
1,note_on,81,66,0
1,note_on,81,0,120
1,note_on,78,0,0
1,note_on,76,58,120
1,note_on,79,69,0
1,note_on,79,0,120
1,note_on,76,0,0
1,note_on,78,55,120
1,note_on,81,65,0
1,note_on,81,0,120
1,note_on,78,0,0
1,note_on,79,64,60
1,note_on,79,0,30
1,note_on,81,64,0
1,note_on,83,79,30
1,note_on,81,0,30
1,note_on,83,0,90
1,note_on,78,57,120
1,note_on,81,68,0
1,note_on,81,0,120
1,note_on,78,0,0
1,note_on,76,58,120
1,note_on,79,69,0
1,note_on,79,0,120
1,note_on,76,0,0
1,note_on,75,56,120
1,note_on,78,66,0
1,note_on,78,0,120
1,note_on,75,0,0
1,note_on,76,69,120
1,note_on,76,0,450
1,note_on,72,56,30
1,note_on,76,56,0
1,note_on,76,0,120
1,note_on,72,0,0
1,note_on,74,56,120
1,note_on,77,56,0
1,note_on,77,0,120
1,note_on,74,0,0
1,note_on,76,66,120
1,note_on,79,66,0
1,note_on,79,0,120
1,note_on,76,0,0
1,note_on,76,57,120
1,note_on,79,57,0
1,note_on,79,0,120
1,note_on,76,0,0
1,note_on,81,64,120
1,note_on,81,0,120
1,note_on,79,57,0
1,note_on,79,0,120
1,note_on,77,57,0
1,note_on,77,0,120
1,note_on,76,57,0
1,note_on,76,0,120
1,note_on,74,65,0
1,note_on,71,65,0
1,note_on,71,0,240
1,note_on,67,59,0
1,note_on,67,0,240
1,note_on,74,0,0
1,note_on,72,56,0
1,note_on,76,56,0
1,note_on,76,0,120
1,note_on,72,0,0
1,note_on,74,56,120
1,note_on,77,56,0
1,note_on,77,0,120
1,note_on,74,0,0
1,note_on,76,66,120
1,note_on,79,66,0
1,note_on,79,0,120
1,note_on,76,0,0
1,note_on,76,57,120
1,note_on,79,57,0
1,note_on,79,0,120
1,note_on,76,0,0
1,note_on,81,64,120
1,note_on,81,0,120
1,note_on,79,57,0
1,note_on,79,0,120
1,note_on,77,57,0
1,note_on,77,0,120
1,note_on,76,57,0
1,note_on,76,0,120
1,note_on,74,65,0
1,note_on,71,65,0
1,note_on,71,0,480
1,note_on,74,0,0
1,note_on,69,56,0
1,note_on,72,56,0
1,note_on,72,0,120
1,note_on,69,0,0
1,note_on,71,56,120
1,note_on,74,56,0
1,note_on,74,0,120
1,note_on,71,0,0
1,note_on,72,66,120
1,note_on,76,66,0
1,note_on,76,0,120
1,note_on,72,0,0
1,note_on,72,57,120
1,note_on,76,57,0
1,note_on,76,0,120
1,note_on,72,0,0
1,note_on,77,64,120
1,note_on,77,0,120
1,note_on,76,57,0
1,note_on,76,0,120
1,note_on,74,57,0
1,note_on,74,0,120
1,note_on,72,57,0
1,note_on,72,0,120
1,note_on,71,65,0
1,note_on,68,65,0
1,note_on,68,0,240
1,note_on,64,59,0
1,note_on,64,0,240
1,note_on,71,0,0
1,note_on,69,56,0
1,note_on,72,56,0
1,note_on,72,0,120
1,note_on,69,0,0
1,note_on,71,56,120
1,note_on,74,56,0
1,note_on,74,0,120
1,note_on,71,0,0
1,note_on,72,66,120
1,note_on,76,66,0
1,note_on,76,0,120
1,note_on,72,0,0
1,note_on,72,57,120
1,note_on,76,57,0
1,note_on,76,0,120
1,note_on,72,0,0
1,note_on,77,64,120
1,note_on,77,0,120
1,note_on,76,57,0
1,note_on,76,0,120
1,note_on,74,57,0
1,note_on,74,0,120
1,note_on,72,57,0
1,note_on,72,0,120
1,note_on,71,65,0
1,note_on,68,65,0
1,note_on,68,0,480
1,note_on,71,0,0
1,note_on,71,56,0
1,note_on,71,0,120
1,note_on,69,56,0
1,note_on,69,0,120
1,note_on,68,56,0
1,note_on,68,0,120
1,note_on,69,56,0
1,note_on,69,0,120
1,note_on,72,59,0
1,note_on,72,0,120
1,note_on,74,62,360
1,note_on,74,0,120
1,note_on,72,57,0
1,note_on,72,0,120
1,note_on,71,57,0
1,note_on,71,0,120
1,note_on,72,57,0
1,note_on,72,0,120
1,note_on,76,66,0
1,note_on,76,0,120
1,note_on,77,63,360
1,note_on,77,0,120
1,note_on,76,58,0
1,note_on,76,0,120
1,note_on,75,58,0
1,note_on,75,0,120
1,note_on,76,58,0
1,note_on,76,0,120
1,note_on,83,70,0
1,note_on,83,0,120
1,note_on,81,63,0
1,note_on,81,0,120
1,note_on,80,63,0
1,note_on,80,0,120
1,note_on,81,63,0
1,note_on,81,0,120
1,note_on,83,71,0
1,note_on,83,0,120
1,note_on,81,64,0
1,note_on,81,0,120
1,note_on,80,64,0
1,note_on,80,0,120
1,note_on,81,64,0
1,note_on,81,0,120
1,note_on,84,76,0
1,note_on,84,0,480
1,note_on,81,62,0
1,note_on,81,0,120
1,note_on,83,62,120
1,note_on,83,0,120
1,note_on,84,70,120
1,note_on,84,0,120
1,note_on,83,62,120
1,note_on,83,0,120
1,note_on,81,62,120
1,note_on,81,0,120
1,note_on,80,62,120
1,note_on,80,0,120
1,note_on,81,71,120
1,note_on,81,0,120
1,note_on,76,64,120
1,note_on,76,0,120
1,note_on,77,64,124
1,note_on,77,0,120
1,note_on,74,64,116
1,note_on,74,0,120
1,note_on,72,74,120
1,note_on,72,0,480
1,note_on,71,64,0
1,note_on,71,0,60
1,note_on,72,57,0
1,note_on,72,0,60
1,note_on,71,57,0
1,note_on,71,0,60
1,note_on,72,57,0
1,note_on,72,0,60
1,note_on,71,57,0
1,note_on,71,0,4
1,note_on,72,57,36
1,note_on,72,0,40
1,note_on,71,57,0
1,note_on,71,0,40
1,note_on,69,64,0
1,note_on,69,0,60
1,note_on,71,57,0
1,note_on,71,0,60
1,note_on,69,65,0
1,note_on,69,0,450
1,note_on,72,56,30
1,note_on,76,56,0
1,note_on,76,0,120
1,note_on,72,0,0
1,note_on,74,56,120
1,note_on,77,56,0
1,note_on,77,0,120
1,note_on,74,0,0
1,note_on,76,66,120
1,note_on,79,66,0
1,note_on,79,0,120
1,note_on,76,0,0
1,note_on,76,57,120
1,note_on,79,57,0
1,note_on,79,0,120
1,note_on,76,0,0
1,note_on,81,64,120
1,note_on,81,0,120
1,note_on,79,57,0
1,note_on,79,0,120
1,note_on,77,57,0
1,note_on,77,0,120
1,note_on,76,57,0
1,note_on,76,0,120
1,note_on,74,65,0
1,note_on,71,65,0
1,note_on,71,0,240
1,note_on,67,59,0
1,note_on,67,0,240
1,note_on,74,0,0
1,note_on,72,56,0
1,note_on,76,56,0
1,note_on,76,0,120
1,note_on,72,0,0
1,note_on,74,56,120
1,note_on,77,56,0
1,note_on,77,0,120
1,note_on,74,0,0
1,note_on,76,66,120
1,note_on,79,66,0
1,note_on,79,0,120
1,note_on,76,0,0
1,note_on,76,57,120
1,note_on,79,57,0
1,note_on,79,0,120
1,note_on,76,0,0
1,note_on,81,64,120
1,note_on,81,0,120
1,note_on,79,57,0
1,note_on,79,0,120
1,note_on,77,57,0
1,note_on,77,0,120
1,note_on,76,57,0
1,note_on,76,0,120
1,note_on,74,65,0
1,note_on,71,65,0
1,note_on,71,0,480
1,note_on,74,0,0
1,note_on,69,56,0
1,note_on,72,56,0
1,note_on,72,0,120
1,note_on,69,0,0
1,note_on,71,56,120
1,note_on,74,56,0
1,note_on,74,0,120
1,note_on,71,0,0
1,note_on,72,66,120
1,note_on,76,66,0
1,note_on,76,0,120
1,note_on,72,0,0
1,note_on,72,57,120
1,note_on,76,57,0
1,note_on,76,0,120
1,note_on,72,0,0
1,note_on,77,64,120
1,note_on,77,0,120
1,note_on,76,57,0
1,note_on,76,0,120
1,note_on,74,57,0
1,note_on,74,0,120
1,note_on,72,57,0
1,note_on,72,0,120
1,note_on,71,65,0
1,note_on,68,65,0
1,note_on,68,0,240
1,note_on,64,59,0
1,note_on,64,0,240
1,note_on,71,0,0
1,note_on,69,56,0
1,note_on,72,56,0
1,note_on,72,0,120
1,note_on,69,0,0
1,note_on,71,56,120
1,note_on,74,56,0
1,note_on,74,0,120
1,note_on,71,0,0
1,note_on,72,66,120
1,note_on,76,66,0
1,note_on,76,0,120
1,note_on,72,0,0
1,note_on,72,57,120
1,note_on,76,57,0
1,note_on,76,0,120
1,note_on,72,0,0
1,note_on,77,64,120
1,note_on,77,0,120
1,note_on,76,57,0
1,note_on,76,0,120
1,note_on,74,57,0
1,note_on,74,0,120
1,note_on,72,57,0
1,note_on,72,0,120
1,note_on,71,65,0
1,note_on,68,65,0
1,note_on,68,0,480
1,note_on,71,0,0
1,note_on,71,56,0
1,note_on,71,0,120
1,note_on,69,56,0
1,note_on,69,0,120
1,note_on,68,56,0
1,note_on,68,0,120
1,note_on,69,56,0
1,note_on,69,0,120
1,note_on,72,59,0
1,note_on,72,0,120
1,note_on,74,62,360
1,note_on,74,0,120
1,note_on,72,57,0
1,note_on,72,0,120
1,note_on,71,57,0
1,note_on,71,0,120
1,note_on,72,57,0
1,note_on,72,0,120
1,note_on,76,66,0
1,note_on,76,0,120
1,note_on,77,63,360
1,note_on,77,0,120
1,note_on,76,58,0
1,note_on,76,0,120
1,note_on,75,58,0
1,note_on,75,0,120
1,note_on,76,58,0
1,note_on,76,0,120
1,note_on,83,70,0
1,note_on,83,0,120
1,note_on,81,63,0
1,note_on,81,0,120
1,note_on,80,63,0
1,note_on,80,0,120
1,note_on,81,63,0
1,note_on,81,0,120
1,note_on,83,71,0
1,note_on,83,0,120
1,note_on,81,64,0
1,note_on,81,0,120
1,note_on,80,64,0
1,note_on,80,0,120
1,note_on,81,64,0
1,note_on,81,0,120
1,note_on,84,76,0
1,note_on,84,0,480
1,note_on,81,62,0
1,note_on,81,0,120
1,note_on,83,62,120
1,note_on,83,0,120
1,note_on,84,70,120
1,note_on,84,0,120
1,note_on,83,62,120
1,note_on,83,0,120
1,note_on,81,62,120
1,note_on,81,0,120
1,note_on,80,62,120
1,note_on,80,0,120
1,note_on,81,71,120
1,note_on,81,0,120
1,note_on,76,64,120
1,note_on,76,0,120
1,note_on,77,64,124
1,note_on,77,0,120
1,note_on,74,64,116
1,note_on,74,0,120
1,note_on,72,74,120
1,note_on,72,0,480
1,note_on,71,64,0
1,note_on,71,0,60
1,note_on,72,57,0
1,note_on,72,0,60
1,note_on,71,57,0
1,note_on,71,0,60
1,note_on,72,57,0
1,note_on,72,0,60
1,note_on,71,57,0
1,note_on,71,0,4
1,note_on,72,57,36
1,note_on,72,0,40
1,note_on,71,57,0
1,note_on,71,0,40
1,note_on,69,64,0
1,note_on,69,0,60
1,note_on,71,57,0
1,note_on,71,0,60
1,note_on,69,65,0
1,note_on,69,0,450
1,note_on,69,73,30
1,note_on,81,84,0
1,note_on,81,0,120
1,note_on,69,0,0
1,note_on,71,73,120
1,note_on,83,84,0
1,note_on,83,0,120
1,note_on,71,0,0
1,note_on,73,78,120
1,note_on,85,90,0
1,note_on,85,0,480
1,note_on,73,0,0
1,note_on,69,73,0
1,note_on,81,84,0
1,note_on,81,0,120
1,note_on,69,0,0
1,note_on,71,73,120
1,note_on,83,84,0
1,note_on,83,0,120
1,note_on,71,0,0
1,note_on,73,79,120
1,note_on,85,91,0
1,note_on,85,0,120
1,note_on,73,0,0
1,note_on,71,72,120
1,note_on,83,82,0
1,note_on,83,0,120
1,note_on,71,0,0
1,note_on,69,77,120
1,note_on,81,89,0
1,note_on,81,0,120
1,note_on,69,0,0
1,note_on,68,73,120
1,note_on,80,84,0
1,note_on,80,0,120
1,note_on,68,0,0
1,note_on,66,80,120
1,note_on,78,92,0
1,note_on,78,0,120
1,note_on,66,0,0
1,note_on,68,69,120
1,note_on,80,78,0
1,note_on,80,0,120
1,note_on,68,0,0
1,note_on,69,75,120
1,note_on,81,86,0
1,note_on,81,0,120
1,note_on,69,0,0
1,note_on,71,70,120
1,note_on,83,80,0
1,note_on,83,0,120
1,note_on,71,0,0
1,note_on,68,78,120
1,note_on,80,90,0
1,note_on,80,0,240
1,note_on,68,0,0
1,note_on,64,73,0
1,note_on,76,84,0
1,note_on,76,0,120
1,note_on,64,0,0
1,note_on,69,73,120
1,note_on,81,84,0
1,note_on,81,0,120
1,note_on,69,0,0
1,note_on,71,73,120
1,note_on,83,84,0
1,note_on,83,0,120
1,note_on,71,0,0
1,note_on,73,78,120
1,note_on,85,90,0
1,note_on,85,0,480
1,note_on,73,0,0
1,note_on,69,73,0
1,note_on,81,84,0
1,note_on,81,0,120
1,note_on,69,0,0
1,note_on,71,73,120
1,note_on,83,84,0
1,note_on,83,0,120
1,note_on,71,0,0
1,note_on,73,79,120
1,note_on,85,91,0
1,note_on,85,0,120
1,note_on,73,0,0
1,note_on,71,72,120
1,note_on,83,82,0
1,note_on,83,0,120
1,note_on,71,0,0
1,note_on,69,77,120
1,note_on,81,89,0
1,note_on,81,0,120
1,note_on,69,0,0
1,note_on,68,73,120
1,note_on,80,84,0
1,note_on,80,0,120
1,note_on,68,0,0
1,note_on,66,80,120
1,note_on,78,92,0
1,note_on,78,0,120
1,note_on,66,0,0
1,note_on,71,69,120
1,note_on,83,78,0
1,note_on,83,0,120
1,note_on,71,0,0
1,note_on,68,75,120
1,note_on,80,86,0
1,note_on,80,0,120
1,note_on,68,0,0
1,note_on,64,70,120
1,note_on,76,80,0
1,note_on,76,0,120
1,note_on,64,0,0
1,note_on,69,78,120
1,note_on,81,90,0
1,note_on,81,0,450
1,note_on,69,0,0
1,note_on,69,73,30
1,note_on,81,84,0
1,note_on,81,0,120
1,note_on,69,0,0
1,note_on,71,73,120
1,note_on,83,84,0
1,note_on,83,0,120
1,note_on,71,0,0
1,note_on,73,78,120
1,note_on,85,90,0
1,note_on,85,0,480
1,note_on,73,0,0
1,note_on,69,73,0
1,note_on,81,84,0
1,note_on,81,0,120
1,note_on,69,0,0
1,note_on,71,73,120
1,note_on,83,84,0
1,note_on,83,0,120
1,note_on,71,0,0
1,note_on,73,79,120
1,note_on,85,91,0
1,note_on,85,0,120
1,note_on,73,0,0
1,note_on,71,72,120
1,note_on,83,82,0
1,note_on,83,0,120
1,note_on,71,0,0
1,note_on,69,77,120
1,note_on,81,89,0
1,note_on,81,0,120
1,note_on,69,0,0
1,note_on,68,73,120
1,note_on,80,84,0
1,note_on,80,0,120
1,note_on,68,0,0
1,note_on,66,80,120
1,note_on,78,92,0
1,note_on,78,0,120
1,note_on,66,0,0
1,note_on,68,69,120
1,note_on,80,78,0
1,note_on,80,0,120
1,note_on,68,0,0
1,note_on,69,75,120
1,note_on,81,86,0
1,note_on,81,0,120
1,note_on,69,0,0
1,note_on,71,70,120
1,note_on,83,80,0
1,note_on,83,0,120
1,note_on,71,0,0
1,note_on,68,78,120
1,note_on,80,90,0
1,note_on,80,0,240
1,note_on,68,0,0
1,note_on,64,73,0
1,note_on,76,84,0
1,note_on,76,0,120
1,note_on,64,0,0
1,note_on,69,73,120
1,note_on,81,84,0
1,note_on,81,0,120
1,note_on,69,0,0
1,note_on,71,73,120
1,note_on,83,84,0
1,note_on,83,0,120
1,note_on,71,0,0
1,note_on,73,78,120
1,note_on,85,90,0
1,note_on,85,0,480
1,note_on,73,0,0
1,note_on,69,73,0
1,note_on,81,84,0
1,note_on,81,0,120
1,note_on,69,0,0
1,note_on,71,73,120
1,note_on,83,84,0
1,note_on,83,0,120
1,note_on,71,0,0
1,note_on,73,79,120
1,note_on,85,91,0
1,note_on,85,0,120
1,note_on,73,0,0
1,note_on,71,72,120
1,note_on,83,82,0
1,note_on,83,0,120
1,note_on,71,0,0
1,note_on,69,77,120
1,note_on,81,89,0
1,note_on,81,0,120
1,note_on,69,0,0
1,note_on,68,73,120
1,note_on,80,84,0
1,note_on,80,0,120
1,note_on,68,0,0
1,note_on,66,80,120
1,note_on,78,92,0
1,note_on,78,0,120
1,note_on,66,0,0
1,note_on,71,69,120
1,note_on,83,78,0
1,note_on,83,0,120
1,note_on,71,0,0
1,note_on,68,75,120
1,note_on,80,86,0
1,note_on,80,0,120
1,note_on,68,0,0
1,note_on,64,70,120
1,note_on,76,80,0
1,note_on,76,0,120
1,note_on,64,0,0
1,note_on,69,78,120
1,note_on,81,90,0
1,note_on,81,0,450
1,note_on,69,0,0
1,note_on,85,60,30
1,note_on,86,52,120
1,note_on,85,0,12
1,note_on,85,52,108
1,note_on,86,0,12
1,note_on,83,52,108
1,note_on,85,0,12
1,note_on,81,58,108
1,note_on,83,0,12
1,note_on,83,50,108
1,note_on,81,0,12
1,note_on,81,50,108
1,note_on,83,0,12
1,note_on,80,50,108
1,note_on,81,0,12
1,note_on,78,56,108
1,note_on,80,0,12
1,note_on,81,50,108
1,note_on,78,0,12
1,note_on,80,46,108
1,note_on,81,0,12
1,note_on,78,46,108
1,note_on,80,0,12
1,note_on,77,58,108
1,note_on,78,0,12
1,note_on,78,47,108
1,note_on,77,0,12
1,note_on,80,49,108
1,note_on,78,0,12
1,note_on,77,46,108
1,note_on,80,0,12
1,note_on,73,56,108
1,note_on,77,0,12
1,note_on,75,47,108
1,note_on,73,0,12
1,note_on,77,50,108
1,note_on,75,0,12
1,note_on,73,47,108
1,note_on,77,0,12
1,note_on,78,56,108
1,note_on,73,0,12
1,note_on,77,47,108
1,note_on,78,0,12
1,note_on,78,51,108
1,note_on,77,0,12
1,note_on,80,48,108
1,note_on,78,0,12
1,note_on,81,58,108
1,note_on,80,0,12
1,note_on,80,54,108
1,note_on,81,0,12
1,note_on,81,56,108
1,note_on,80,0,12
1,note_on,83,59,108
1,note_on,81,0,12
1,note_on,85,68,108
1,note_on,83,0,12
1,note_on,84,62,108
1,note_on,85,0,12
1,note_on,85,66,108
1,note_on,84,0,12
1,note_on,84,59,108
1,note_on,85,0,12
1,note_on,84,0,108
1,note_on,85,61,0
1,note_on,86,55,120
1,note_on,85,0,12
1,note_on,85,55,108
1,note_on,86,0,12
1,note_on,83,55,108
1,note_on,85,0,12
1,note_on,81,58,108
1,note_on,83,0,12
1,note_on,83,47,108
1,note_on,81,0,12
1,note_on,81,53,108
1,note_on,83,0,12
1,note_on,80,47,108
1,note_on,81,0,12
1,note_on,78,54,108
1,note_on,80,0,12
1,note_on,81,47,108
1,note_on,78,0,12
1,note_on,80,50,108
1,note_on,81,0,12
1,note_on,78,46,108
1,note_on,80,0,12
1,note_on,76,56,108
1,note_on,78,0,12
1,note_on,78,47,108
1,note_on,76,0,12
1,note_on,80,50,108
1,note_on,78,0,12
1,note_on,76,47,108
1,note_on,80,0,12
1,note_on,73,54,108
1,note_on,76,0,12
1,note_on,75,47,108
1,note_on,73,0,12
1,note_on,76,53,108
1,note_on,75,0,12
1,note_on,73,47,108
1,note_on,76,0,12
1,note_on,75,53,108
1,note_on,73,0,12
1,note_on,76,47,108
1,note_on,75,0,12
1,note_on,78,51,108
1,note_on,76,0,12
1,note_on,75,47,108
1,note_on,78,0,12
1,note_on,72,50,108
1,note_on,75,0,12
1,note_on,73,47,108
1,note_on,72,0,12
1,note_on,75,50,108
1,note_on,73,0,12
1,note_on,72,46,108
1,note_on,75,0,12
1,note_on,73,52,108
1,note_on,72,0,12
1,note_on,73,0,438
1,note_on,85,60,30
1,note_on,86,52,120
1,note_on,85,0,12
1,note_on,85,52,108
1,note_on,86,0,12
1,note_on,83,52,108
1,note_on,85,0,12
1,note_on,81,58,108
1,note_on,83,0,12
1,note_on,83,50,108
1,note_on,81,0,12
1,note_on,81,50,108
1,note_on,83,0,12
1,note_on,80,50,108
1,note_on,81,0,12
1,note_on,78,56,108
1,note_on,80,0,12
1,note_on,81,50,108
1,note_on,78,0,12
1,note_on,80,46,108
1,note_on,81,0,12
1,note_on,78,46,108
1,note_on,80,0,12
1,note_on,77,58,108
1,note_on,78,0,12
1,note_on,78,47,108
1,note_on,77,0,12
1,note_on,80,49,108
1,note_on,78,0,12
1,note_on,77,46,108
1,note_on,80,0,12
1,note_on,73,56,108
1,note_on,77,0,12
1,note_on,75,47,108
1,note_on,73,0,12
1,note_on,77,50,108
1,note_on,75,0,12
1,note_on,73,47,108
1,note_on,77,0,12
1,note_on,78,56,108
1,note_on,73,0,12
1,note_on,77,47,108
1,note_on,78,0,12
1,note_on,78,51,108
1,note_on,77,0,12
1,note_on,80,48,108
1,note_on,78,0,12
1,note_on,81,58,108
1,note_on,80,0,12
1,note_on,80,54,108
1,note_on,81,0,12
1,note_on,81,56,108
1,note_on,80,0,12
1,note_on,83,59,108
1,note_on,81,0,12
1,note_on,85,68,108
1,note_on,83,0,12
1,note_on,84,62,108
1,note_on,85,0,12
1,note_on,85,66,108
1,note_on,84,0,12
1,note_on,84,59,108
1,note_on,85,0,12
1,note_on,84,0,108
1,note_on,85,64,0
1,note_on,86,57,120
1,note_on,85,0,12
1,note_on,85,57,108
1,note_on,86,0,12
1,note_on,83,57,108
1,note_on,85,0,12
1,note_on,81,60,108
1,note_on,83,0,12
1,note_on,83,51,108
1,note_on,81,0,12
1,note_on,81,55,108
1,note_on,83,0,12
1,note_on,80,47,108
1,note_on,81,0,12
1,note_on,78,54,108
1,note_on,80,0,12
1,note_on,81,47,108
1,note_on,78,0,12
1,note_on,80,50,108
1,note_on,81,0,12
1,note_on,78,46,108
1,note_on,80,0,12
1,note_on,76,53,108
1,note_on,78,0,12
1,note_on,78,47,108
1,note_on,76,0,12
1,note_on,80,50,108
1,note_on,78,0,12
1,note_on,76,47,108
1,note_on,80,0,12
1,note_on,73,54,108
1,note_on,76,0,12
1,note_on,75,47,108
1,note_on,73,0,12
1,note_on,76,53,108
1,note_on,75,0,12
1,note_on,73,47,108
1,note_on,76,0,12
1,note_on,75,53,108
1,note_on,73,0,12
1,note_on,76,47,108
1,note_on,75,0,12
1,note_on,78,51,108
1,note_on,76,0,12
1,note_on,75,47,108
1,note_on,78,0,12
1,note_on,72,50,108
1,note_on,75,0,12
1,note_on,73,47,108
1,note_on,72,0,12
1,note_on,75,50,108
1,note_on,73,0,12
1,note_on,72,46,108
1,note_on,75,0,12
1,note_on,73,52,108
1,note_on,72,0,12
1,note_on,73,0,438
1,note_on,76,69,30
1,note_on,74,59,120
1,note_on,76,0,12
1,note_on,73,59,108
1,note_on,74,0,12
1,note_on,71,59,108
1,note_on,73,0,12
1,note_on,69,66,108
1,note_on,71,0,12
1,note_on,71,57,108
1,note_on,69,0,12
1,note_on,73,57,108
1,note_on,71,0,12
1,note_on,74,57,108
1,note_on,73,0,12
1,note_on,76,64,108
1,note_on,74,0,12
1,note_on,78,57,108
1,note_on,76,0,12
1,note_on,80,56,108
1,note_on,78,0,12
1,note_on,81,56,108
1,note_on,80,0,12
1,note_on,81,0,103
1,note_on,81,66,5
1,note_on,80,60,120
1,note_on,81,0,12
1,note_on,78,60,108
1,note_on,80,0,12
1,note_on,76,57,108
1,note_on,78,0,12
1,note_on,76,0,103
1,note_on,76,64,5
1,note_on,74,59,120
1,note_on,76,0,12
1,note_on,73,59,108
1,note_on,74,0,12
1,note_on,71,59,108
1,note_on,73,0,12
1,note_on,69,64,108
1,note_on,71,0,12
1,note_on,71,54,108
1,note_on,69,0,12
1,note_on,73,57,108
1,note_on,71,0,12
1,note_on,74,54,108
1,note_on,73,0,12
1,note_on,76,64,108
1,note_on,74,0,12
1,note_on,78,58,108
1,note_on,76,0,12
1,note_on,80,60,108
1,note_on,78,0,12
1,note_on,81,63,108
1,note_on,80,0,12
1,note_on,81,0,108
1,note_on,82,75,0
1,note_on,82,0,240
1,note_on,83,69,0
1,note_on,83,0,132
1,note_on,76,69,108
1,note_on,74,59,120
1,note_on,76,0,12
1,note_on,73,59,108
1,note_on,74,0,12
1,note_on,71,59,108
1,note_on,73,0,12
1,note_on,69,66,108
1,note_on,71,0,12
1,note_on,71,57,108
1,note_on,69,0,12
1,note_on,73,57,108
1,note_on,71,0,12
1,note_on,74,57,108
1,note_on,73,0,12
1,note_on,76,64,108
1,note_on,74,0,12
1,note_on,78,57,108
1,note_on,76,0,12
1,note_on,80,56,108
1,note_on,78,0,12
1,note_on,81,56,108
1,note_on,80,0,12
1,note_on,81,0,103
1,note_on,81,66,5
1,note_on,80,57,120
1,note_on,81,0,12
1,note_on,78,60,108
1,note_on,80,0,12
1,note_on,76,57,108
1,note_on,78,0,12
1,note_on,76,0,103
1,note_on,76,64,5
1,note_on,74,59,120
1,note_on,76,0,12
1,note_on,73,59,108
1,note_on,74,0,12
1,note_on,71,59,108
1,note_on,73,0,12
1,note_on,73,64,108
1,note_on,71,0,12
1,note_on,76,54,108
1,note_on,73,0,12
1,note_on,69,57,108
1,note_on,76,0,12
1,note_on,73,54,108
1,note_on,69,0,12
1,note_on,71,64,108
1,note_on,73,0,12
1,note_on,74,58,108
1,note_on,71,0,12
1,note_on,68,60,108
1,note_on,74,0,12
1,note_on,71,55,108
1,note_on,68,0,12
1,note_on,71,0,108
1,note_on,69,66,0
1,note_on,69,0,360
1,note_on,85,60,120
1,note_on,86,52,120
1,note_on,85,0,12
1,note_on,85,52,108
1,note_on,86,0,12
1,note_on,83,52,108
1,note_on,85,0,12
1,note_on,81,58,108
1,note_on,83,0,12
1,note_on,83,50,108
1,note_on,81,0,12
1,note_on,81,50,108
1,note_on,83,0,12
1,note_on,80,50,108
1,note_on,81,0,12
1,note_on,78,56,108
1,note_on,80,0,12
1,note_on,81,50,108
1,note_on,78,0,12
1,note_on,80,46,108
1,note_on,81,0,12
1,note_on,78,46,108
1,note_on,80,0,12
1,note_on,77,58,108
1,note_on,78,0,12
1,note_on,78,47,108
1,note_on,77,0,12
1,note_on,80,49,108
1,note_on,78,0,12
1,note_on,77,46,108
1,note_on,80,0,12
1,note_on,73,56,108
1,note_on,77,0,12
1,note_on,75,47,108
1,note_on,73,0,12
1,note_on,77,50,108
1,note_on,75,0,12
1,note_on,73,47,108
1,note_on,77,0,12
1,note_on,78,56,108
1,note_on,73,0,12
1,note_on,77,47,108
1,note_on,78,0,12
1,note_on,78,50,108
1,note_on,77,0,12
1,note_on,80,47,108
1,note_on,78,0,12
1,note_on,81,56,108
1,note_on,80,0,12
1,note_on,80,51,108
1,note_on,81,0,12
1,note_on,81,53,108
1,note_on,80,0,12
1,note_on,83,55,108
1,note_on,81,0,12
1,note_on,85,62,108
1,note_on,83,0,12
1,note_on,84,57,108
1,note_on,85,0,12
1,note_on,85,60,108
1,note_on,84,0,12
1,note_on,84,54,108
1,note_on,85,0,12
1,note_on,84,0,108
1,note_on,85,62,0
1,note_on,86,56,120
1,note_on,85,0,12
1,note_on,85,65,108
1,note_on,86,0,12
1,note_on,82,60,108
1,note_on,85,0,12
1,note_on,86,69,108
1,note_on,82,0,12
1,note_on,85,63,108
1,note_on,86,0,12
1,note_on,86,69,108
1,note_on,85,0,12
1,note_on,85,64,108
1,note_on,86,0,12
1,note_on,86,68,108
1,note_on,85,0,12
1,note_on,85,66,108
1,note_on,86,0,12
1,note_on,86,72,108
1,note_on,85,0,12
1,note_on,85,68,108
1,note_on,86,0,12
1,note_on,86,70,108
1,note_on,85,0,12
1,note_on,85,69,108
1,note_on,86,0,12
1,note_on,83,67,108
1,note_on,85,0,12
1,note_on,81,66,108
1,note_on,83,0,12
1,note_on,80,64,108
1,note_on,81,0,12
1,note_on,81,61,108
1,note_on,80,0,12
1,note_on,83,64,108
1,note_on,81,0,12
1,note_on,80,61,108
1,note_on,83,0,12
1,note_on,81,57,108
1,note_on,80,0,12
1,note_on,83,49,108
1,note_on,81,0,12
1,note_on,85,55,108
1,note_on,83,0,12
1,note_on,78,50,108
1,note_on,85,0,12
1,note_on,77,53,108
1,note_on,78,0,12
1,note_on,78,47,108
1,note_on,77,0,12
1,note_on,80,54,108
1,note_on,78,0,12
1,note_on,77,47,108
1,note_on,80,0,12
1,note_on,78,54,108
1,note_on,77,0,12
1,note_on,78,0,438
1,note_on,76,69,30
1,note_on,74,59,120
1,note_on,76,0,12
1,note_on,73,59,108
1,note_on,74,0,12
1,note_on,71,59,108
1,note_on,73,0,12
1,note_on,69,66,108
1,note_on,71,0,12
1,note_on,71,57,108
1,note_on,69,0,12
1,note_on,73,57,108
1,note_on,71,0,12
1,note_on,74,57,108
1,note_on,73,0,12
1,note_on,76,64,108
1,note_on,74,0,12
1,note_on,78,57,108
1,note_on,76,0,12
1,note_on,80,56,108
1,note_on,78,0,12
1,note_on,81,56,108
1,note_on,80,0,12
1,note_on,81,0,103
1,note_on,81,66,5
1,note_on,80,60,120
1,note_on,81,0,12
1,note_on,78,60,108
1,note_on,80,0,12
1,note_on,76,57,108
1,note_on,78,0,12
1,note_on,76,0,103
1,note_on,76,64,5
1,note_on,74,59,120
1,note_on,76,0,12
1,note_on,73,59,108
1,note_on,74,0,12
1,note_on,71,59,108
1,note_on,73,0,12
1,note_on,69,64,108
1,note_on,71,0,12
1,note_on,71,54,108
1,note_on,69,0,12
1,note_on,73,57,108
1,note_on,71,0,12
1,note_on,74,54,108
1,note_on,73,0,12
1,note_on,76,64,108
1,note_on,74,0,12
1,note_on,78,58,108
1,note_on,76,0,12
1,note_on,80,60,108
1,note_on,78,0,12
1,note_on,81,63,108
1,note_on,80,0,12
1,note_on,81,0,108
1,note_on,82,75,0
1,note_on,82,0,240
1,note_on,83,69,0
1,note_on,83,0,132
1,note_on,76,69,108
1,note_on,74,59,120
1,note_on,76,0,12
1,note_on,73,59,108
1,note_on,74,0,12
1,note_on,71,59,108
1,note_on,73,0,12
1,note_on,69,66,108
1,note_on,71,0,12
1,note_on,71,57,108
1,note_on,69,0,12
1,note_on,73,57,108
1,note_on,71,0,12
1,note_on,74,57,108
1,note_on,73,0,12
1,note_on,76,64,108
1,note_on,74,0,12
1,note_on,78,57,108
1,note_on,76,0,12
1,note_on,80,56,108
1,note_on,78,0,12
1,note_on,81,56,108
1,note_on,80,0,12
1,note_on,81,0,103
1,note_on,81,66,5
1,note_on,80,57,120
1,note_on,81,0,12
1,note_on,78,60,108
1,note_on,80,0,12
1,note_on,76,57,108
1,note_on,78,0,12
1,note_on,76,0,103
1,note_on,76,64,5
1,note_on,74,59,120
1,note_on,76,0,12
1,note_on,73,59,108
1,note_on,74,0,12
1,note_on,71,59,108
1,note_on,73,0,12
1,note_on,73,64,108
1,note_on,71,0,12
1,note_on,76,54,108
1,note_on,73,0,12
1,note_on,69,57,108
1,note_on,76,0,12
1,note_on,73,54,108
1,note_on,69,0,12
1,note_on,71,64,108
1,note_on,73,0,12
1,note_on,74,58,108
1,note_on,71,0,12
1,note_on,68,60,108
1,note_on,74,0,12
1,note_on,71,55,108
1,note_on,68,0,12
1,note_on,71,0,108
1,note_on,69,66,0
1,note_on,69,0,360
1,note_on,85,60,120
1,note_on,86,52,120
1,note_on,85,0,12
1,note_on,85,52,108
1,note_on,86,0,12
1,note_on,83,52,108
1,note_on,85,0,12
1,note_on,81,58,108
1,note_on,83,0,12
1,note_on,83,50,108
1,note_on,81,0,12
1,note_on,81,50,108
1,note_on,83,0,12
1,note_on,80,50,108
1,note_on,81,0,12
1,note_on,78,56,108
1,note_on,80,0,12
1,note_on,81,50,108
1,note_on,78,0,12
1,note_on,80,46,108
1,note_on,81,0,12
1,note_on,78,46,108
1,note_on,80,0,12
1,note_on,77,58,108
1,note_on,78,0,12
1,note_on,78,47,108
1,note_on,77,0,12
1,note_on,80,49,108
1,note_on,78,0,12
1,note_on,77,46,108
1,note_on,80,0,12
1,note_on,73,56,108
1,note_on,77,0,12
1,note_on,75,47,108
1,note_on,73,0,12
1,note_on,77,50,108
1,note_on,75,0,12
1,note_on,73,47,108
1,note_on,77,0,12
1,note_on,78,56,108
1,note_on,73,0,12
1,note_on,77,47,108
1,note_on,78,0,12
1,note_on,78,50,108
1,note_on,77,0,12
1,note_on,80,47,108
1,note_on,78,0,12
1,note_on,81,56,108
1,note_on,80,0,12
1,note_on,80,51,108
1,note_on,81,0,12
1,note_on,81,53,108
1,note_on,80,0,12
1,note_on,83,55,108
1,note_on,81,0,12
1,note_on,85,62,108
1,note_on,83,0,12
1,note_on,84,57,108
1,note_on,85,0,12
1,note_on,85,60,108
1,note_on,84,0,12
1,note_on,84,54,108
1,note_on,85,0,12
1,note_on,84,0,108
1,note_on,85,62,0
1,note_on,86,56,120
1,note_on,85,0,12
1,note_on,85,65,108
1,note_on,86,0,12
1,note_on,82,60,108
1,note_on,85,0,12
1,note_on,86,69,108
1,note_on,82,0,12
1,note_on,85,63,108
1,note_on,86,0,12
1,note_on,86,69,108
1,note_on,85,0,12
1,note_on,85,64,108
1,note_on,86,0,12
1,note_on,86,68,108
1,note_on,85,0,12
1,note_on,85,66,108
1,note_on,86,0,12
1,note_on,86,72,108
1,note_on,85,0,12
1,note_on,85,68,108
1,note_on,86,0,12
1,note_on,86,70,108
1,note_on,85,0,12
1,note_on,85,69,108
1,note_on,86,0,12
1,note_on,83,67,108
1,note_on,85,0,12
1,note_on,81,66,108
1,note_on,83,0,12
1,note_on,80,64,108
1,note_on,81,0,12
1,note_on,81,61,108
1,note_on,80,0,12
1,note_on,83,64,108
1,note_on,81,0,12
1,note_on,80,61,108
1,note_on,83,0,12
1,note_on,81,57,108
1,note_on,80,0,12
1,note_on,83,49,108
1,note_on,81,0,12
1,note_on,85,55,108
1,note_on,83,0,12
1,note_on,78,50,108
1,note_on,85,0,12
1,note_on,77,53,108
1,note_on,78,0,12
1,note_on,78,47,108
1,note_on,77,0,12
1,note_on,80,54,108
1,note_on,78,0,12
1,note_on,77,47,108
1,note_on,80,0,12
1,note_on,78,54,108
1,note_on,77,0,12
1,note_on,78,0,438
1,note_on,69,73,30
1,note_on,81,84,0
1,note_on,81,0,120
1,note_on,69,0,0
1,note_on,71,73,120
1,note_on,83,84,0
1,note_on,83,0,120
1,note_on,71,0,0
1,note_on,73,78,120
1,note_on,85,90,0
1,note_on,85,0,480
1,note_on,73,0,0
1,note_on,69,73,0
1,note_on,81,84,0
1,note_on,81,0,120
1,note_on,69,0,0
1,note_on,71,73,120
1,note_on,83,84,0
1,note_on,83,0,120
1,note_on,71,0,0
1,note_on,73,79,120
1,note_on,85,91,0
1,note_on,85,0,120
1,note_on,73,0,0
1,note_on,71,72,120
1,note_on,83,82,0
1,note_on,83,0,120
1,note_on,71,0,0
1,note_on,69,77,120
1,note_on,81,89,0
1,note_on,81,0,120
1,note_on,69,0,0
1,note_on,68,73,120
1,note_on,80,84,0
1,note_on,80,0,120
1,note_on,68,0,0
1,note_on,66,80,120
1,note_on,78,92,0
1,note_on,78,0,120
1,note_on,66,0,0
1,note_on,68,69,120
1,note_on,80,78,0
1,note_on,80,0,120
1,note_on,68,0,0
1,note_on,69,75,120
1,note_on,81,86,0
1,note_on,81,0,120
1,note_on,69,0,0
1,note_on,71,70,120
1,note_on,83,80,0
1,note_on,83,0,120
1,note_on,71,0,0
1,note_on,68,78,120
1,note_on,80,90,0
1,note_on,80,0,240
1,note_on,68,0,0
1,note_on,64,73,0
1,note_on,76,84,0
1,note_on,76,0,120
1,note_on,64,0,0
1,note_on,69,73,120
1,note_on,81,84,0
1,note_on,81,0,120
1,note_on,69,0,0
1,note_on,71,73,120
1,note_on,83,84,0
1,note_on,83,0,120
1,note_on,71,0,0
1,note_on,73,78,120
1,note_on,85,90,0
1,note_on,85,0,480
1,note_on,73,0,0
1,note_on,69,73,0
1,note_on,81,84,0
1,note_on,81,0,120
1,note_on,69,0,0
1,note_on,71,73,120
1,note_on,83,84,0
1,note_on,83,0,120
1,note_on,71,0,0
1,note_on,73,79,120
1,note_on,85,91,0
1,note_on,85,0,120
1,note_on,73,0,0
1,note_on,71,72,120
1,note_on,83,82,0
1,note_on,83,0,120
1,note_on,71,0,0
1,note_on,69,77,120
1,note_on,81,89,0
1,note_on,81,0,120
1,note_on,69,0,0
1,note_on,68,73,120
1,note_on,80,84,0
1,note_on,80,0,120
1,note_on,68,0,0
1,note_on,66,80,120
1,note_on,78,92,0
1,note_on,78,0,120
1,note_on,66,0,0
1,note_on,71,69,120
1,note_on,83,78,0
1,note_on,83,0,120
1,note_on,71,0,0
1,note_on,68,75,120
1,note_on,80,86,0
1,note_on,80,0,120
1,note_on,68,0,0
1,note_on,64,70,120
1,note_on,76,80,0
1,note_on,76,0,120
1,note_on,64,0,0
1,note_on,69,78,120
1,note_on,81,90,0
1,note_on,81,0,450
1,note_on,69,0,0
1,note_on,69,73,30
1,note_on,81,84,0
1,note_on,81,0,120
1,note_on,69,0,0
1,note_on,71,73,120
1,note_on,83,84,0
1,note_on,83,0,120
1,note_on,71,0,0
1,note_on,73,78,120
1,note_on,85,90,0
1,note_on,85,0,480
1,note_on,73,0,0
1,note_on,69,73,0
1,note_on,81,84,0
1,note_on,81,0,120
1,note_on,69,0,0
1,note_on,71,73,120
1,note_on,83,84,0
1,note_on,83,0,120
1,note_on,71,0,0
1,note_on,73,79,120
1,note_on,85,91,0
1,note_on,85,0,120
1,note_on,73,0,0
1,note_on,71,72,120
1,note_on,83,82,0
1,note_on,83,0,120
1,note_on,71,0,0
1,note_on,69,77,120
1,note_on,81,89,0
1,note_on,81,0,120
1,note_on,69,0,0
1,note_on,68,73,120
1,note_on,80,84,0
1,note_on,80,0,120
1,note_on,68,0,0
1,note_on,66,80,120
1,note_on,78,92,0
1,note_on,78,0,120
1,note_on,66,0,0
1,note_on,68,69,120
1,note_on,80,78,0
1,note_on,80,0,120
1,note_on,68,0,0
1,note_on,69,75,120
1,note_on,81,86,0
1,note_on,81,0,120
1,note_on,69,0,0
1,note_on,71,70,120
1,note_on,83,80,0
1,note_on,83,0,120
1,note_on,71,0,0
1,note_on,68,78,120
1,note_on,80,90,0
1,note_on,80,0,240
1,note_on,68,0,0
1,note_on,64,73,0
1,note_on,76,84,0
1,note_on,76,0,120
1,note_on,64,0,0
1,note_on,69,73,120
1,note_on,81,84,0
1,note_on,81,0,120
1,note_on,69,0,0
1,note_on,71,73,120
1,note_on,83,84,0
1,note_on,83,0,120
1,note_on,71,0,0
1,note_on,73,78,120
1,note_on,85,90,0
1,note_on,85,0,480
1,note_on,73,0,0
1,note_on,69,73,0
1,note_on,81,84,0
1,note_on,81,0,120
1,note_on,69,0,0
1,note_on,71,73,120
1,note_on,83,84,0
1,note_on,83,0,120
1,note_on,71,0,0
1,note_on,73,79,120
1,note_on,85,91,0
1,note_on,85,0,120
1,note_on,73,0,0
1,note_on,71,72,120
1,note_on,83,82,0
1,note_on,83,0,120
1,note_on,71,0,0
1,note_on,69,77,120
1,note_on,81,89,0
1,note_on,81,0,120
1,note_on,69,0,0
1,note_on,68,73,120
1,note_on,80,84,0
1,note_on,80,0,120
1,note_on,68,0,0
1,note_on,66,80,120
1,note_on,78,92,0
1,note_on,78,0,120
1,note_on,66,0,0
1,note_on,71,69,120
1,note_on,83,78,0
1,note_on,83,0,120
1,note_on,71,0,0
1,note_on,68,75,120
1,note_on,80,86,0
1,note_on,80,0,120
1,note_on,68,0,0
1,note_on,64,70,120
1,note_on,76,80,0
1,note_on,76,0,120
1,note_on,64,0,0
1,note_on,69,78,120
1,note_on,81,90,0
1,note_on,81,0,450
1,note_on,69,0,0
1,note_on,71,66,30
1,note_on,71,0,120
1,note_on,69,64,0
1,note_on,69,0,120
1,note_on,68,64,0
1,note_on,68,0,120
1,note_on,69,64,0
1,note_on,69,0,120
1,note_on,72,71,0
1,note_on,72,0,120
1,note_on,74,66,360
1,note_on,74,0,120
1,note_on,72,63,0
1,note_on,72,0,120
1,note_on,71,63,0
1,note_on,71,0,120
1,note_on,72,63,0
1,note_on,72,0,120
1,note_on,76,72,0
1,note_on,76,0,120
1,note_on,77,66,360
1,note_on,77,0,120
1,note_on,76,63,0
1,note_on,76,0,120
1,note_on,75,63,0
1,note_on,75,0,120
1,note_on,76,63,0
1,note_on,76,0,120
1,note_on,83,70,0
1,note_on,83,0,120
1,note_on,81,64,0
1,note_on,81,0,120
1,note_on,80,64,0
1,note_on,80,0,120
1,note_on,81,64,0
1,note_on,81,0,120
1,note_on,83,69,0
1,note_on,83,0,120
1,note_on,81,64,0
1,note_on,81,0,120
1,note_on,80,64,0
1,note_on,80,0,120
1,note_on,81,64,0
1,note_on,81,0,120
1,note_on,84,72,0
1,note_on,84,0,480
1,note_on,81,68,0
1,note_on,81,0,120
1,note_on,84,65,120
1,note_on,84,0,120
1,note_on,79,63,60
1,note_on,79,0,30
1,note_on,81,63,0
1,note_on,81,0,30
1,note_on,83,80,0
1,note_on,83,0,120
1,note_on,78,54,120
1,note_on,81,64,0
1,note_on,81,0,120
1,note_on,78,0,0
1,note_on,76,58,120
1,note_on,79,69,0
1,note_on,79,0,120
1,note_on,76,0,0
1,note_on,78,54,120
1,note_on,81,64,0
1,note_on,81,0,120
1,note_on,78,0,0
1,note_on,79,65,60
1,note_on,79,0,30
1,note_on,81,65,0
1,note_on,81,0,30
1,note_on,83,82,0
1,note_on,83,0,120
1,note_on,78,56,120
1,note_on,81,66,0
1,note_on,81,0,120
1,note_on,78,0,0
1,note_on,76,58,120
1,note_on,79,69,0
1,note_on,79,0,120
1,note_on,76,0,0
1,note_on,78,55,120
1,note_on,81,65,0
1,note_on,81,0,120
1,note_on,78,0,0
1,note_on,79,64,60
1,note_on,79,0,30
1,note_on,81,64,0
1,note_on,83,79,30
1,note_on,81,0,30
1,note_on,83,0,90
1,note_on,78,57,120
1,note_on,81,68,0
1,note_on,81,0,120
1,note_on,78,0,0
1,note_on,76,58,120
1,note_on,79,69,0
1,note_on,79,0,120
1,note_on,76,0,0
1,note_on,75,56,120
1,note_on,78,66,0
1,note_on,78,0,120
1,note_on,75,0,0
1,note_on,76,69,120
1,note_on,76,0,450
1,note_on,71,66,30
1,note_on,71,0,120
1,note_on,69,64,0
1,note_on,69,0,120
1,note_on,68,64,0
1,note_on,68,0,120
1,note_on,69,64,0
1,note_on,69,0,120
1,note_on,72,71,0
1,note_on,72,0,120
1,note_on,74,66,360
1,note_on,74,0,120
1,note_on,72,63,0
1,note_on,72,0,120
1,note_on,71,63,0
1,note_on,71,0,120
1,note_on,72,63,0
1,note_on,72,0,120
1,note_on,76,72,0
1,note_on,76,0,120
1,note_on,77,66,360
1,note_on,77,0,120
1,note_on,76,63,0
1,note_on,76,0,120
1,note_on,75,63,0
1,note_on,75,0,120
1,note_on,76,63,0
1,note_on,76,0,120
1,note_on,83,70,0
1,note_on,83,0,120
1,note_on,81,64,0
1,note_on,81,0,120
1,note_on,80,64,0
1,note_on,80,0,120
1,note_on,81,64,0
1,note_on,81,0,120
1,note_on,83,69,0
1,note_on,83,0,120
1,note_on,81,64,0
1,note_on,81,0,120
1,note_on,80,64,0
1,note_on,80,0,120
1,note_on,81,64,0
1,note_on,81,0,120
1,note_on,84,72,0
1,note_on,84,0,480
1,note_on,81,68,0
1,note_on,81,0,120
1,note_on,84,65,120
1,note_on,84,0,120
1,note_on,79,63,60
1,note_on,79,0,30
1,note_on,81,63,0
1,note_on,81,0,30
1,note_on,83,80,0
1,note_on,83,0,120
1,note_on,78,54,120
1,note_on,81,64,0
1,note_on,81,0,120
1,note_on,78,0,0
1,note_on,76,58,120
1,note_on,79,69,0
1,note_on,79,0,120
1,note_on,76,0,0
1,note_on,78,54,120
1,note_on,81,64,0
1,note_on,81,0,120
1,note_on,78,0,0
1,note_on,79,65,60
1,note_on,79,0,30
1,note_on,81,65,0
1,note_on,81,0,30
1,note_on,83,82,0
1,note_on,83,0,120
1,note_on,78,56,120
1,note_on,81,66,0
1,note_on,81,0,120
1,note_on,78,0,0
1,note_on,76,58,120
1,note_on,79,69,0
1,note_on,79,0,120
1,note_on,76,0,0
1,note_on,78,55,120
1,note_on,81,65,0
1,note_on,81,0,120
1,note_on,78,0,0
1,note_on,79,64,60
1,note_on,79,0,30
1,note_on,81,64,0
1,note_on,83,79,30
1,note_on,81,0,30
1,note_on,83,0,90
1,note_on,78,57,120
1,note_on,81,68,0
1,note_on,81,0,120
1,note_on,78,0,0
1,note_on,76,58,120
1,note_on,79,69,0
1,note_on,79,0,120
1,note_on,76,0,0
1,note_on,75,56,120
1,note_on,78,66,0
1,note_on,78,0,120
1,note_on,75,0,0
1,note_on,76,69,120
1,note_on,76,0,450
1,note_on,72,56,30
1,note_on,76,56,0
1,note_on,76,0,120
1,note_on,72,0,0
1,note_on,74,56,120
1,note_on,77,56,0
1,note_on,77,0,120
1,note_on,74,0,0
1,note_on,76,66,120
1,note_on,79,66,0
1,note_on,79,0,120
1,note_on,76,0,0
1,note_on,76,57,120
1,note_on,79,57,0
1,note_on,79,0,120
1,note_on,76,0,0
1,note_on,81,64,120
1,note_on,81,0,120
1,note_on,79,57,0
1,note_on,79,0,120
1,note_on,77,57,0
1,note_on,77,0,120
1,note_on,76,57,0
1,note_on,76,0,120
1,note_on,74,65,0
1,note_on,71,65,0
1,note_on,71,0,240
1,note_on,67,59,0
1,note_on,67,0,240
1,note_on,74,0,0
1,note_on,72,56,0
1,note_on,76,56,0
1,note_on,76,0,120
1,note_on,72,0,0
1,note_on,74,56,120
1,note_on,77,56,0
1,note_on,77,0,120
1,note_on,74,0,0
1,note_on,76,66,120
1,note_on,79,66,0
1,note_on,79,0,120
1,note_on,76,0,0
1,note_on,76,57,120
1,note_on,79,57,0
1,note_on,79,0,120
1,note_on,76,0,0
1,note_on,81,64,120
1,note_on,81,0,120
1,note_on,79,57,0
1,note_on,79,0,120
1,note_on,77,57,0
1,note_on,77,0,120
1,note_on,76,57,0
1,note_on,76,0,120
1,note_on,74,65,0
1,note_on,71,65,0
1,note_on,71,0,480
1,note_on,74,0,0
1,note_on,69,56,0
1,note_on,72,56,0
1,note_on,72,0,120
1,note_on,69,0,0
1,note_on,71,56,120
1,note_on,74,56,0
1,note_on,74,0,120
1,note_on,71,0,0
1,note_on,72,66,120
1,note_on,76,66,0
1,note_on,76,0,120
1,note_on,72,0,0
1,note_on,72,57,120
1,note_on,76,57,0
1,note_on,76,0,120
1,note_on,72,0,0
1,note_on,77,64,120
1,note_on,77,0,120
1,note_on,76,57,0
1,note_on,76,0,120
1,note_on,74,57,0
1,note_on,74,0,120
1,note_on,72,57,0
1,note_on,72,0,120
1,note_on,71,65,0
1,note_on,68,65,0
1,note_on,68,0,240
1,note_on,64,59,0
1,note_on,64,0,240
1,note_on,71,0,0
1,note_on,69,56,0
1,note_on,72,56,0
1,note_on,72,0,120
1,note_on,69,0,0
1,note_on,71,56,120
1,note_on,74,56,0
1,note_on,74,0,120
1,note_on,71,0,0
1,note_on,72,66,120
1,note_on,76,66,0
1,note_on,76,0,120
1,note_on,72,0,0
1,note_on,72,57,120
1,note_on,76,57,0
1,note_on,76,0,120
1,note_on,72,0,0
1,note_on,77,64,120
1,note_on,77,0,120
1,note_on,76,57,0
1,note_on,76,0,120
1,note_on,74,57,0
1,note_on,74,0,120
1,note_on,72,57,0
1,note_on,72,0,120
1,note_on,71,65,0
1,note_on,68,65,0
1,note_on,68,0,480
1,note_on,71,0,0
1,note_on,71,56,0
1,note_on,71,0,120
1,note_on,69,56,0
1,note_on,69,0,120
1,note_on,68,56,0
1,note_on,68,0,120
1,note_on,69,56,0
1,note_on,69,0,120
1,note_on,72,59,0
1,note_on,72,0,120
1,note_on,74,62,360
1,note_on,74,0,120
1,note_on,72,57,0
1,note_on,72,0,120
1,note_on,71,57,0
1,note_on,71,0,120
1,note_on,72,57,0
1,note_on,72,0,120
1,note_on,76,66,0
1,note_on,76,0,120
1,note_on,77,63,360
1,note_on,77,0,120
1,note_on,76,58,0
1,note_on,76,0,120
1,note_on,75,58,0
1,note_on,75,0,120
1,note_on,76,58,0
1,note_on,76,0,120
1,note_on,83,70,0
1,note_on,83,0,120
1,note_on,81,63,0
1,note_on,81,0,120
1,note_on,80,63,0
1,note_on,80,0,120
1,note_on,81,63,0
1,note_on,81,0,120
1,note_on,83,71,0
1,note_on,83,0,120
1,note_on,81,64,0
1,note_on,81,0,120
1,note_on,80,64,0
1,note_on,80,0,120
1,note_on,81,64,0
1,note_on,81,0,120
1,note_on,84,76,0
1,note_on,84,0,480
1,note_on,81,62,0
1,note_on,81,0,120
1,note_on,83,62,120
1,note_on,83,0,120
1,note_on,84,70,120
1,note_on,84,0,120
1,note_on,83,62,120
1,note_on,83,0,120
1,note_on,81,62,120
1,note_on,81,0,120
1,note_on,80,62,120
1,note_on,80,0,120
1,note_on,81,71,120
1,note_on,81,0,120
1,note_on,76,64,120
1,note_on,76,0,120
1,note_on,77,64,124
1,note_on,77,0,120
1,note_on,74,64,116
1,note_on,74,0,120
1,note_on,72,74,120
1,note_on,72,0,480
1,note_on,71,64,0
1,note_on,71,0,60
1,note_on,72,57,0
1,note_on,72,0,60
1,note_on,71,57,0
1,note_on,71,0,60
1,note_on,72,57,0
1,note_on,72,0,60
1,note_on,71,57,0
1,note_on,71,0,4
1,note_on,72,57,36
1,note_on,72,0,40
1,note_on,71,57,0
1,note_on,71,0,40
1,note_on,69,64,0
1,note_on,69,0,60
1,note_on,71,57,0
1,note_on,71,0,60
1,note_on,69,65,0
1,note_on,69,0,450
1,note_on,72,56,30
1,note_on,76,56,0
1,note_on,76,0,120
1,note_on,72,0,0
1,note_on,74,56,120
1,note_on,77,56,0
1,note_on,77,0,120
1,note_on,74,0,0
1,note_on,76,66,120
1,note_on,79,66,0
1,note_on,79,0,120
1,note_on,76,0,0
1,note_on,76,57,120
1,note_on,79,57,0
1,note_on,79,0,120
1,note_on,76,0,0
1,note_on,81,64,120
1,note_on,81,0,120
1,note_on,79,57,0
1,note_on,79,0,120
1,note_on,77,57,0
1,note_on,77,0,120
1,note_on,76,57,0
1,note_on,76,0,120
1,note_on,74,65,0
1,note_on,71,65,0
1,note_on,71,0,240
1,note_on,67,59,0
1,note_on,67,0,240
1,note_on,74,0,0
1,note_on,72,56,0
1,note_on,76,56,0
1,note_on,76,0,120
1,note_on,72,0,0
1,note_on,74,56,120
1,note_on,77,56,0
1,note_on,77,0,120
1,note_on,74,0,0
1,note_on,76,66,120
1,note_on,79,66,0
1,note_on,79,0,120
1,note_on,76,0,0
1,note_on,76,57,120
1,note_on,79,57,0
1,note_on,79,0,120
1,note_on,76,0,0
1,note_on,81,64,120
1,note_on,81,0,120
1,note_on,79,57,0
1,note_on,79,0,120
1,note_on,77,57,0
1,note_on,77,0,120
1,note_on,76,57,0
1,note_on,76,0,120
1,note_on,74,65,0
1,note_on,71,65,0
1,note_on,71,0,480
1,note_on,74,0,0
1,note_on,69,56,0
1,note_on,72,56,0
1,note_on,72,0,120
1,note_on,69,0,0
1,note_on,71,56,120
1,note_on,74,56,0
1,note_on,74,0,120
1,note_on,71,0,0
1,note_on,72,66,120
1,note_on,76,66,0
1,note_on,76,0,120
1,note_on,72,0,0
1,note_on,72,57,120
1,note_on,76,57,0
1,note_on,76,0,120
1,note_on,72,0,0
1,note_on,77,64,120
1,note_on,77,0,120
1,note_on,76,57,0
1,note_on,76,0,120
1,note_on,74,57,0
1,note_on,74,0,120
1,note_on,72,57,0
1,note_on,72,0,120
1,note_on,71,65,0
1,note_on,68,65,0
1,note_on,68,0,240
1,note_on,64,59,0
1,note_on,64,0,240
1,note_on,71,0,0
1,note_on,69,56,0
1,note_on,72,56,0
1,note_on,72,0,120
1,note_on,69,0,0
1,note_on,71,56,120
1,note_on,74,56,0
1,note_on,74,0,120
1,note_on,71,0,0
1,note_on,72,66,120
1,note_on,76,66,0
1,note_on,76,0,120
1,note_on,72,0,0
1,note_on,72,57,120
1,note_on,76,57,0
1,note_on,76,0,120
1,note_on,72,0,0
1,note_on,77,64,120
1,note_on,77,0,120
1,note_on,76,57,0
1,note_on,76,0,120
1,note_on,74,57,0
1,note_on,74,0,120
1,note_on,72,57,0
1,note_on,72,0,120
1,note_on,71,65,0
1,note_on,68,65,0
1,note_on,68,0,480
1,note_on,71,0,0
1,note_on,71,56,0
1,note_on,71,0,120
1,note_on,69,56,0
1,note_on,69,0,120
1,note_on,68,56,0
1,note_on,68,0,120
1,note_on,69,56,0
1,note_on,69,0,120
1,note_on,72,59,0
1,note_on,72,0,120
1,note_on,74,62,360
1,note_on,74,0,120
1,note_on,72,57,0
1,note_on,72,0,120
1,note_on,71,57,0
1,note_on,71,0,120
1,note_on,72,57,0
1,note_on,72,0,120
1,note_on,76,66,0
1,note_on,76,0,120
1,note_on,77,63,360
1,note_on,77,0,120
1,note_on,76,58,0
1,note_on,76,0,120
1,note_on,75,58,0
1,note_on,75,0,120
1,note_on,76,58,0
1,note_on,76,0,120
1,note_on,83,70,0
1,note_on,83,0,120
1,note_on,81,63,0
1,note_on,81,0,120
1,note_on,80,63,0
1,note_on,80,0,120
1,note_on,81,63,0
1,note_on,81,0,120
1,note_on,83,71,0
1,note_on,83,0,120
1,note_on,81,64,0
1,note_on,81,0,120
1,note_on,80,64,0
1,note_on,80,0,120
1,note_on,81,64,0
1,note_on,81,0,120
1,note_on,84,76,0
1,note_on,84,0,480
1,note_on,81,62,0
1,note_on,81,0,120
1,note_on,83,62,120
1,note_on,83,0,120
1,note_on,84,70,120
1,note_on,84,0,120
1,note_on,83,62,120
1,note_on,83,0,120
1,note_on,81,62,120
1,note_on,81,0,120
1,note_on,80,62,120
1,note_on,80,0,120
1,note_on,81,71,120
1,note_on,81,0,120
1,note_on,76,64,120
1,note_on,76,0,120
1,note_on,77,64,124
1,note_on,77,0,120
1,note_on,74,64,116
1,note_on,74,0,120
1,note_on,72,74,120
1,note_on,72,0,480
1,note_on,71,64,0
1,note_on,71,0,60
1,note_on,72,57,0
1,note_on,72,0,60
1,note_on,71,57,0
1,note_on,71,0,60
1,note_on,72,57,0
1,note_on,72,0,60
1,note_on,71,57,0
1,note_on,71,0,4
1,note_on,72,57,36
1,note_on,72,0,40
1,note_on,71,57,0
1,note_on,71,0,40
1,note_on,69,64,0
1,note_on,69,0,60
1,note_on,71,57,0
1,note_on,71,0,60
1,note_on,69,65,0
1,note_on,69,0,450
1,note_on,69,82,30
1,note_on,69,0,120
1,note_on,81,79,0
1,note_on,81,0,120
1,note_on,71,83,0
1,note_on,71,0,120
1,note_on,83,80,0
1,note_on,83,0,120
1,note_on,73,89,0
1,note_on,73,0,120
1,note_on,85,84,0
1,note_on,85,0,120
1,note_on,69,85,240
1,note_on,69,0,120
1,note_on,81,73,0
1,note_on,81,0,120
1,note_on,71,84,0
1,note_on,71,0,120
1,note_on,83,72,0
1,note_on,83,0,120
1,note_on,73,90,0
1,note_on,73,0,120
1,note_on,85,75,0
1,note_on,85,0,120
1,note_on,71,84,0
1,note_on,71,0,120
1,note_on,83,73,0
1,note_on,83,0,120
1,note_on,69,87,0
1,note_on,69,0,120
1,note_on,81,74,0
1,note_on,81,0,120
1,note_on,68,83,0
1,note_on,68,0,120
1,note_on,80,76,0
1,note_on,80,0,120
1,note_on,66,88,0
1,note_on,66,0,120
1,note_on,78,75,0
1,note_on,78,0,120
1,note_on,68,83,0
1,note_on,68,0,120
1,note_on,80,69,0
1,note_on,80,0,120
1,note_on,69,79,0
1,note_on,69,0,120
1,note_on,81,71,0
1,note_on,81,0,120
1,note_on,71,81,0
1,note_on,71,0,120
1,note_on,83,73,0
1,note_on,83,0,120
1,note_on,68,86,0
1,note_on,68,0,120
1,note_on,80,73,0
1,note_on,80,0,120
1,note_on,64,81,0
1,note_on,64,0,120
1,note_on,76,72,0
1,note_on,76,0,120
1,note_on,69,83,0
1,note_on,69,0,120
1,note_on,81,73,0
1,note_on,81,0,120
1,note_on,71,82,0
1,note_on,71,0,120
1,note_on,83,73,0
1,note_on,83,0,120
1,note_on,73,89,0
1,note_on,73,0,120
1,note_on,85,77,0
1,note_on,85,0,120
1,note_on,69,85,240
1,note_on,69,0,120
1,note_on,81,76,0
1,note_on,81,0,120
1,note_on,71,84,0
1,note_on,71,0,120
1,note_on,83,77,0
1,note_on,83,0,120
1,note_on,73,92,0
1,note_on,73,0,120
1,note_on,85,77,0
1,note_on,85,0,120
1,note_on,71,84,0
1,note_on,71,0,120
1,note_on,83,75,0
1,note_on,83,0,120
1,note_on,69,88,0
1,note_on,69,0,120
1,note_on,81,77,0
1,note_on,81,0,120
1,note_on,68,84,0
1,note_on,68,0,120
1,note_on,80,75,0
1,note_on,80,0,120
1,note_on,66,91,0
1,note_on,66,0,120
1,note_on,78,79,0
1,note_on,78,0,120
1,note_on,71,82,0
1,note_on,71,0,120
1,note_on,83,72,0
1,note_on,83,0,120
1,note_on,68,86,0
1,note_on,68,0,120
1,note_on,80,75,0
1,note_on,80,0,120
1,note_on,64,80,0
1,note_on,64,0,120
1,note_on,76,74,0
1,note_on,76,0,120
1,note_on,69,78,0
1,note_on,81,90,0
1,note_on,81,0,450
1,note_on,69,0,0
1,note_on,69,82,30
1,note_on,69,0,120
1,note_on,81,79,0
1,note_on,81,0,120
1,note_on,71,83,0
1,note_on,71,0,120
1,note_on,83,80,0
1,note_on,83,0,120
1,note_on,73,89,0
1,note_on,73,0,120
1,note_on,85,84,0
1,note_on,85,0,120
1,note_on,69,85,240
1,note_on,69,0,120
1,note_on,81,73,0
1,note_on,81,0,120
1,note_on,71,84,0
1,note_on,71,0,120
1,note_on,83,72,0
1,note_on,83,0,120
1,note_on,73,90,0
1,note_on,73,0,120
1,note_on,85,75,0
1,note_on,85,0,120
1,note_on,71,84,0
1,note_on,71,0,120
1,note_on,83,73,0
1,note_on,83,0,120
1,note_on,69,87,0
1,note_on,69,0,120
1,note_on,81,74,0
1,note_on,81,0,120
1,note_on,68,83,0
1,note_on,68,0,120
1,note_on,80,76,0
1,note_on,80,0,120
1,note_on,66,88,0
1,note_on,66,0,120
1,note_on,78,75,0
1,note_on,78,0,120
1,note_on,68,83,0
1,note_on,68,0,120
1,note_on,80,69,0
1,note_on,80,0,120
1,note_on,69,79,0
1,note_on,69,0,120
1,note_on,81,71,0
1,note_on,81,0,120
1,note_on,71,81,0
1,note_on,71,0,120
1,note_on,83,73,0
1,note_on,83,0,120
1,note_on,68,86,0
1,note_on,68,0,120
1,note_on,80,73,0
1,note_on,80,0,120
1,note_on,64,81,0
1,note_on,64,0,120
1,note_on,76,72,0
1,note_on,76,0,120
1,note_on,69,83,0
1,note_on,69,0,120
1,note_on,81,73,0
1,note_on,81,0,120
1,note_on,71,82,0
1,note_on,71,0,120
1,note_on,83,73,0
1,note_on,83,0,120
1,note_on,73,89,0
1,note_on,73,0,120
1,note_on,85,77,0
1,note_on,85,0,120
1,note_on,69,85,240
1,note_on,69,0,120
1,note_on,81,76,0
1,note_on,81,0,120
1,note_on,71,84,0
1,note_on,71,0,120
1,note_on,83,77,0
1,note_on,83,0,120
1,note_on,73,92,0
1,note_on,73,0,120
1,note_on,85,77,0
1,note_on,85,0,120
1,note_on,71,84,0
1,note_on,71,0,120
1,note_on,83,75,0
1,note_on,83,0,120
1,note_on,69,88,0
1,note_on,69,0,120
1,note_on,81,77,0
1,note_on,81,0,120
1,note_on,68,84,0
1,note_on,68,0,120
1,note_on,80,75,0
1,note_on,80,0,120
1,note_on,66,91,0
1,note_on,66,0,120
1,note_on,78,79,0
1,note_on,78,0,120
1,note_on,71,82,0
1,note_on,71,0,120
1,note_on,83,72,0
1,note_on,83,0,120
1,note_on,68,86,0
1,note_on,68,0,120
1,note_on,80,75,0
1,note_on,80,0,120
1,note_on,64,80,0
1,note_on,64,0,120
1,note_on,76,74,0
1,note_on,76,0,120
1,note_on,69,78,0
1,note_on,81,90,0
1,note_on,81,0,480
1,note_on,69,0,0
1,note_on,85,90,0
1,note_on,73,78,0
1,note_on,85,0,360
1,note_on,85,90,0
1,note_on,85,0,90
1,note_on,73,74,0
1,note_on,76,77,10
1,note_on,81,80,10
1,note_on,73,0,10
1,note_on,85,90,0
1,note_on,73,0,480
1,note_on,81,0,0
1,note_on,76,0,0
1,note_on,73,74,450
1,note_on,76,77,10
1,note_on,81,80,10
1,note_on,85,0,10
1,note_on,85,90,0
1,note_on,73,0,480
1,note_on,81,0,0
1,note_on,76,0,0
1,note_on,85,0,480
1,note_on,86,90,0
1,note_on,86,0,120
1,note_on,85,87,0
1,note_on,85,0,120
1,note_on,83,86,0
1,note_on,83,0,60
1,note_on,85,86,60
1,note_on,85,0,60
1,note_on,86,90,60
1,note_on,86,0,120
1,note_on,85,84,0
1,note_on,85,0,120
1,note_on,83,84,0
1,note_on,83,0,60
1,note_on,85,85,60
1,note_on,85,0,60
1,note_on,78,80,60
1,note_on,81,80,0
1,note_on,86,90,0
1,note_on,86,76,930
1,note_on,86,0,30
1,note_on,78,0,0
1,note_on,81,0,0
1,note_on,86,0,0
1,note_on,76,76,0
1,note_on,81,76,0
1,note_on,85,90,0
1,note_on,85,0,60
1,note_on,81,0,0
1,note_on,76,0,0
1,note_on,86,76,150
1,note_on,86,0,30
1,note_on,76,72,0
1,note_on,81,72,0
1,note_on,85,85,0
1,note_on,85,0,60
1,note_on,81,0,0
1,note_on,76,0,0
1,note_on,86,76,150
1,note_on,86,0,30
1,note_on,76,72,0
1,note_on,81,72,0
1,note_on,85,85,0
1,note_on,85,0,60
1,note_on,81,0,0
1,note_on,76,0,0
1,note_on,86,76,150
1,note_on,86,0,30
1,note_on,76,72,0
1,note_on,81,72,0
1,note_on,85,85,0
1,note_on,85,0,60
1,note_on,81,0,0
1,note_on,76,0,0
1,note_on,76,80,180
1,note_on,80,80,0
1,note_on,83,90,0
1,note_on,83,0,840
1,note_on,88,103,0
1,note_on,88,0,90
1,note_on,73,74,0
1,note_on,76,77,10
1,note_on,81,80,10
1,note_on,80,0,10
1,note_on,76,0,0
1,note_on,85,90,0
1,note_on,76,0,480
1,note_on,81,0,0
1,note_on,73,0,0
1,note_on,73,74,450
1,note_on,76,77,10
1,note_on,81,80,10
1,note_on,85,0,10
1,note_on,85,90,0
1,note_on,73,0,480
1,note_on,81,0,0
1,note_on,76,0,0
1,note_on,85,0,480
1,note_on,86,90,0
1,note_on,86,0,120
1,note_on,85,87,0
1,note_on,85,0,120
1,note_on,83,86,0
1,note_on,83,0,60
1,note_on,85,86,60
1,note_on,85,0,60
1,note_on,86,90,60
1,note_on,86,0,120
1,note_on,85,84,0
1,note_on,85,0,120
1,note_on,83,84,0
1,note_on,83,0,60
1,note_on,85,85,60
1,note_on,85,0,60
1,note_on,78,80,60
1,note_on,81,80,0
1,note_on,86,90,0
1,note_on,86,76,930
1,note_on,86,0,30
1,note_on,78,0,0
1,note_on,81,0,0
1,note_on,86,0,0
1,note_on,76,76,0
1,note_on,81,76,0
1,note_on,85,90,0
1,note_on,85,76,930
1,note_on,85,0,30
1,note_on,76,0,0
1,note_on,81,0,0
1,note_on,85,0,0
1,note_on,76,76,0
1,note_on,80,76,0
1,note_on,83,90,0
1,note_on,83,0,60
1,note_on,80,0,0
1,note_on,76,0,0
1,note_on,85,76,150
1,note_on,85,0,30
1,note_on,76,72,0
1,note_on,80,72,0
1,note_on,83,85,0
1,note_on,83,0,60
1,note_on,80,0,0
1,note_on,76,0,0
1,note_on,85,76,150
1,note_on,85,0,30
1,note_on,76,72,0
1,note_on,80,72,0
1,note_on,83,85,0
1,note_on,83,0,60
1,note_on,80,0,0
1,note_on,76,0,0
1,note_on,85,76,150
1,note_on,85,0,30
1,note_on,76,72,0
1,note_on,80,72,0
1,note_on,83,85,0
1,note_on,83,0,60
1,note_on,80,0,0
1,note_on,76,0,0
1,note_on,81,90,180
1,note_on,81,0,420
1,note_on,76,55,0
1,note_on,76,0,30
1,note_on,81,60,0
1,note_on,81,0,30
1,note_on,85,67,0
1,note_on,85,0,360
1,note_on,85,63,0
1,note_on,85,0,60
1,note_on,76,55,0
1,note_on,76,0,30
1,note_on,81,60,0
1,note_on,81,0,30
1,note_on,85,70,0
1,note_on,85,0,900
1,note_on,76,55,0
1,note_on,76,0,30
1,note_on,81,60,0
1,note_on,81,0,30
1,note_on,85,69,0
1,note_on,85,0,960
1,note_on,86,69,0
1,note_on,86,0,120
1,note_on,85,60,0
1,note_on,85,0,120
1,note_on,83,60,0
1,note_on,83,0,60
1,note_on,85,60,60
1,note_on,85,0,60
1,note_on,86,68,60
1,note_on,86,0,120
1,note_on,85,61,0
1,note_on,85,0,120
1,note_on,83,61,0
1,note_on,83,0,60
1,note_on,85,61,60
1,note_on,85,0,60
1,note_on,86,67,60
1,note_on,86,59,930
1,note_on,86,0,30
1,note_on,86,0,0
1,note_on,85,71,0
1,note_on,85,0,60
1,note_on,86,56,150
1,note_on,86,0,30
1,note_on,85,64,0
1,note_on,85,0,60
1,note_on,86,57,150
1,note_on,86,0,30
1,note_on,85,65,0
1,note_on,85,0,60
1,note_on,86,59,150
1,note_on,86,0,30
1,note_on,85,66,0
1,note_on,85,0,60
1,note_on,83,67,180
1,note_on,83,0,840
1,note_on,88,94,0
1,note_on,88,0,90
1,note_on,73,74,0
1,note_on,76,77,10
1,note_on,81,80,10
1,note_on,85,90,10
1,note_on,81,0,480
1,note_on,73,0,0
1,note_on,76,0,0
1,note_on,73,74,450
1,note_on,76,77,10
1,note_on,81,80,10
1,note_on,85,0,10
1,note_on,85,90,0
1,note_on,73,0,480
1,note_on,81,0,0
1,note_on,76,0,0
1,note_on,85,0,480
1,note_on,86,90,0
1,note_on,86,0,120
1,note_on,85,87,0
1,note_on,85,0,120
1,note_on,83,86,0
1,note_on,83,0,60
1,note_on,85,86,60
1,note_on,85,0,60
1,note_on,86,90,60
1,note_on,86,0,120
1,note_on,85,84,0
1,note_on,85,0,120
1,note_on,83,84,0
1,note_on,83,0,60
1,note_on,85,85,60
1,note_on,85,0,60
1,note_on,78,80,60
1,note_on,81,80,0
1,note_on,86,90,0
1,note_on,86,76,930
1,note_on,86,0,30
1,note_on,78,0,0
1,note_on,81,0,0
1,note_on,86,0,0
1,note_on,76,76,0
1,note_on,81,76,0
1,note_on,85,90,0
1,note_on,85,76,930
1,note_on,85,0,30
1,note_on,76,0,0
1,note_on,81,0,0
1,note_on,85,0,0
1,note_on,76,76,0
1,note_on,80,76,0
1,note_on,83,90,0
1,note_on,83,0,60
1,note_on,80,0,0
1,note_on,76,0,0
1,note_on,85,76,150
1,note_on,85,0,30
1,note_on,76,72,0
1,note_on,80,72,0
1,note_on,83,85,0
1,note_on,83,0,60
1,note_on,80,0,0
1,note_on,76,0,0
1,note_on,85,76,150
1,note_on,85,0,30
1,note_on,76,72,0
1,note_on,80,72,0
1,note_on,83,85,0
1,note_on,83,0,60
1,note_on,80,0,0
1,note_on,76,0,0
1,note_on,85,76,150
1,note_on,85,0,30
1,note_on,76,72,0
1,note_on,80,72,0
1,note_on,83,85,0
1,note_on,83,0,60
1,note_on,80,0,0
1,note_on,76,0,0
1,note_on,69,90,180
1,note_on,73,90,0
1,note_on,76,90,0
1,note_on,81,90,0
1,note_on,81,0,720
1,note_on,69,0,0
1,note_on,73,0,0
1,note_on,76,0,0
1,note_on,73,73,0
1,note_on,85,87,0
1,note_on,85,0,60
1,note_on,73,0,0
1,note_on,69,90,180
1,note_on,81,90,0
1,note_on,81,0,720
1,note_on,69,0,0
1,note_on,73,73,0
1,note_on,85,87,0
1,note_on,85,0,60
1,note_on,73,0,0
1,note_on,69,90,180
1,note_on,81,90,0
1,note_on,81,0,720
1,note_on,69,0,0
1,note_on,73,73,0
1,note_on,85,87,0
1,note_on,85,0,60
1,note_on,73,0,0
1,note_on,69,82,180
1,note_on,81,97,0
1,note_on,81,0,120
1,note_on,69,0,0
1,note_on,73,78,120
1,note_on,85,92,0
1,note_on,85,0,120
1,note_on,73,0,0
1,note_on,69,83,120
1,note_on,81,99,0
1,note_on,81,0,120
1,note_on,69,0,0
1,note_on,73,79,120
1,note_on,85,93,0
1,note_on,85,0,120
1,note_on,73,0,0
1,note_on,69,90,120
1,note_on,81,108,0
1,note_on,81,0,480
1,note_on,69,0,0
1,note_on,69,82,0
1,note_on,73,82,0
1,note_on,76,82,0
1,note_on,81,97,0
1,note_on,81,0,480
1,note_on,69,0,0
1,note_on,73,0,0
1,note_on,76,0,0
1,note_on,69,86,0
1,note_on,73,86,0
1,note_on,76,86,0
1,note_on,81,103,0
1,note_on,81,0,480
1,note_on,69,0,0
1,note_on,73,0,0
1,note_on,76,0,0
2,note_on,57,57,960
2,note_on,57,0,120
2,note_on,64,52,120
2,note_on,60,43,0
2,note_on,60,0,120
2,note_on,64,0,0
2,note_on,60,43,120
2,note_on,64,52,0
2,note_on,64,0,120
2,note_on,60,0,0
2,note_on,60,42,120
2,note_on,64,51,0
2,note_on,64,0,120
2,note_on,60,0,0
2,note_on,57,57,120
2,note_on,57,0,120
2,note_on,64,52,120
2,note_on,60,43,0
2,note_on,60,0,120
2,note_on,64,0,0
2,note_on,64,52,120
2,note_on,60,43,0
2,note_on,60,0,120
2,note_on,64,0,0
2,note_on,64,52,120
2,note_on,60,43,0
2,note_on,60,0,120
2,note_on,64,0,0
2,note_on,57,57,120
2,note_on,57,0,120
2,note_on,64,50,120
2,note_on,60,42,0
2,note_on,60,0,120
2,note_on,64,0,0
2,note_on,57,57,120
2,note_on,57,0,120
2,note_on,64,52,120
2,note_on,60,43,0
2,note_on,60,0,120
2,note_on,64,0,0
2,note_on,57,57,120
2,note_on,57,0,120
2,note_on,64,50,120
2,note_on,60,42,0
2,note_on,60,0,120
2,note_on,64,0,0
2,note_on,64,50,120
2,note_on,60,42,0
2,note_on,60,0,120
2,note_on,64,0,0
2,note_on,64,50,120
2,note_on,60,42,0
2,note_on,60,0,120
2,note_on,64,0,0
2,note_on,52,65,120
2,note_on,52,0,120
2,note_on,64,53,120
2,note_on,59,44,0
2,note_on,59,0,120
2,note_on,64,0,0
2,note_on,64,53,120
2,note_on,59,44,0
2,note_on,59,0,120
2,note_on,64,0,0
2,note_on,64,53,120
2,note_on,59,44,0
2,note_on,59,0,120
2,note_on,64,0,0
2,note_on,52,66,120
2,note_on,52,0,120
2,note_on,64,52,120
2,note_on,59,43,0
2,note_on,59,0,120
2,note_on,64,0,0
2,note_on,64,52,120
2,note_on,59,43,0
2,note_on,59,0,120
2,note_on,64,0,0
2,note_on,64,52,120
2,note_on,59,43,0
2,note_on,59,0,120
2,note_on,64,0,0
2,note_on,52,67,120
2,note_on,52,0,120
2,note_on,64,52,120
2,note_on,59,43,0
2,note_on,59,0,120
2,note_on,64,0,0
2,note_on,47,52,120
2,note_on,47,0,120
2,note_on,59,52,120
2,note_on,59,0,120
2,note_on,52,57,120
2,note_on,52,0,450
2,note_on,57,57,510
2,note_on,57,0,120
2,note_on,64,52,120
2,note_on,60,43,0
2,note_on,60,0,120
2,note_on,64,0,0
2,note_on,60,43,120
2,note_on,64,52,0
2,note_on,64,0,120
2,note_on,60,0,0
2,note_on,60,42,120
2,note_on,64,51,0
2,note_on,64,0,120
2,note_on,60,0,0
2,note_on,57,57,120
2,note_on,57,0,120
2,note_on,64,52,120
2,note_on,60,43,0
2,note_on,60,0,120
2,note_on,64,0,0
2,note_on,64,52,120
2,note_on,60,43,0
2,note_on,60,0,120
2,note_on,64,0,0
2,note_on,64,52,120
2,note_on,60,43,0
2,note_on,60,0,120
2,note_on,64,0,0
2,note_on,57,57,120
2,note_on,57,0,120
2,note_on,64,50,120
2,note_on,60,42,0
2,note_on,60,0,120
2,note_on,64,0,0
2,note_on,57,57,120
2,note_on,57,0,120
2,note_on,64,52,120
2,note_on,60,43,0
2,note_on,60,0,120
2,note_on,64,0,0
2,note_on,57,57,120
2,note_on,57,0,120
2,note_on,64,50,120
2,note_on,60,42,0
2,note_on,60,0,120
2,note_on,64,0,0
2,note_on,64,50,120
2,note_on,60,42,0
2,note_on,60,0,120
2,note_on,64,0,0
2,note_on,64,50,120
2,note_on,60,42,0
2,note_on,60,0,120
2,note_on,64,0,0
2,note_on,52,65,120
2,note_on,52,0,120
2,note_on,64,53,120
2,note_on,59,44,0
2,note_on,59,0,120
2,note_on,64,0,0
2,note_on,64,53,120
2,note_on,59,44,0
2,note_on,59,0,120
2,note_on,64,0,0
2,note_on,64,53,120
2,note_on,59,44,0
2,note_on,59,0,120
2,note_on,64,0,0
2,note_on,52,66,120
2,note_on,52,0,120
2,note_on,64,52,120
2,note_on,59,43,0
2,note_on,59,0,120
2,note_on,64,0,0
2,note_on,64,52,120
2,note_on,59,43,0
2,note_on,59,0,120
2,note_on,64,0,0
2,note_on,64,52,120
2,note_on,59,43,0
2,note_on,59,0,120
2,note_on,64,0,0
2,note_on,52,67,120
2,note_on,52,0,120
2,note_on,64,52,120
2,note_on,59,43,0
2,note_on,59,0,120
2,note_on,64,0,0
2,note_on,47,52,120
2,note_on,47,0,120
2,note_on,59,52,120
2,note_on,59,0,120
2,note_on,52,57,120
2,note_on,52,0,450
2,note_on,48,59,510
2,note_on,48,0,120
2,note_on,60,53,120
2,note_on,60,0,120
2,note_on,52,59,120
2,note_on,52,0,120
2,note_on,64,57,120
2,note_on,64,0,120
2,note_on,55,60,120
2,note_on,55,0,480
2,note_on,48,59,480
2,note_on,48,0,120
2,note_on,60,53,120
2,note_on,60,0,120
2,note_on,52,59,120
2,note_on,52,0,120
2,note_on,64,57,120
2,note_on,64,0,120
2,note_on,55,60,120
2,note_on,55,0,480
2,note_on,45,59,480
2,note_on,45,0,120
2,note_on,57,53,120
2,note_on,57,0,120
2,note_on,48,59,120
2,note_on,48,0,120
2,note_on,60,57,120
2,note_on,60,0,120
2,note_on,52,60,120
2,note_on,52,0,480
2,note_on,45,59,480
2,note_on,45,0,120
2,note_on,57,53,120
2,note_on,57,0,120
2,note_on,48,59,120
2,note_on,48,0,120
2,note_on,60,57,120
2,note_on,60,0,120
2,note_on,52,60,120
2,note_on,52,0,480
2,note_on,57,53,480
2,note_on,57,0,120
2,note_on,64,47,120
2,note_on,60,47,0
2,note_on,60,0,120
2,note_on,64,0,0
2,note_on,60,47,120
2,note_on,64,47,0
2,note_on,64,0,120
2,note_on,60,0,0
2,note_on,60,47,120
2,note_on,64,47,0
2,note_on,64,0,120
2,note_on,60,0,0
2,note_on,57,54,120
2,note_on,57,0,120
2,note_on,64,48,120
2,note_on,60,48,0
2,note_on,60,0,120
2,note_on,64,0,0
2,note_on,64,48,120
2,note_on,60,48,0
2,note_on,60,0,120
2,note_on,64,0,0
2,note_on,64,48,120
2,note_on,60,48,0
2,note_on,60,0,120
2,note_on,64,0,0
2,note_on,57,56,120
2,note_on,57,0,120
2,note_on,64,49,120
2,note_on,60,49,0
2,note_on,60,0,120
2,note_on,64,0,0
2,note_on,57,57,120
2,note_on,57,0,120
2,note_on,64,52,120
2,note_on,60,43,0
2,note_on,60,0,120
2,note_on,64,0,0
2,note_on,53,57,120
2,note_on,53,0,120
2,note_on,63,51,120
2,note_on,57,51,0
2,note_on,57,0,120
2,note_on,63,0,0
2,note_on,63,43,120
2,note_on,57,43,0
2,note_on,57,0,120
2,note_on,63,0,0
2,note_on,63,39,120
2,note_on,57,39,0
2,note_on,57,0,120
2,note_on,63,0,0
2,note_on,52,46,120
2,note_on,52,0,120
2,note_on,64,42,120
2,note_on,57,42,0
2,note_on,57,0,120
2,note_on,64,0,0
2,note_on,50,42,120
2,note_on,50,0,120
2,note_on,59,42,120
2,note_on,53,42,0
2,note_on,53,0,120
2,note_on,59,0,0
2,note_on,48,47,120
2,note_on,48,0,120
2,note_on,57,39,120
2,note_on,52,39,0
2,note_on,52,0,120
2,note_on,57,0,0
2,note_on,50,41,120
2,note_on,50,0,120
2,note_on,59,41,120
2,note_on,53,41,0
2,note_on,53,0,120
2,note_on,59,0,0
2,note_on,52,48,120
2,note_on,57,48,0
2,note_on,57,0,120
2,note_on,52,0,0
2,note_on,57,41,120
2,note_on,52,41,0
2,note_on,52,0,120
2,note_on,57,0,0
2,note_on,52,41,115
2,note_on,56,41,5
2,note_on,52,0,115
2,note_on,56,0,5
2,note_on,52,41,120
2,note_on,56,41,0
2,note_on,56,0,120
2,note_on,52,0,0
2,note_on,45,46,120
2,note_on,57,46,0
2,note_on,57,0,450
2,note_on,45,0,30
2,note_on,48,59,480
2,note_on,48,0,120
2,note_on,60,53,120
2,note_on,60,0,120
2,note_on,52,59,120
2,note_on,52,0,120
2,note_on,64,57,120
2,note_on,64,0,120
2,note_on,55,60,120
2,note_on,55,0,480
2,note_on,48,59,480
2,note_on,48,0,120
2,note_on,60,53,120
2,note_on,60,0,120
2,note_on,52,59,120
2,note_on,52,0,120
2,note_on,64,57,120
2,note_on,64,0,120
2,note_on,55,60,120
2,note_on,55,0,480
2,note_on,45,59,480
2,note_on,45,0,120
2,note_on,57,53,120
2,note_on,57,0,120
2,note_on,48,59,120
2,note_on,48,0,120
2,note_on,60,57,120
2,note_on,60,0,120
2,note_on,52,60,120
2,note_on,52,0,480
2,note_on,45,59,480
2,note_on,45,0,120
2,note_on,57,53,120
2,note_on,57,0,120
2,note_on,48,59,120
2,note_on,48,0,120
2,note_on,60,57,120
2,note_on,60,0,120
2,note_on,52,60,120
2,note_on,52,0,480
2,note_on,57,53,480
2,note_on,57,0,120
2,note_on,64,47,120
2,note_on,60,47,0
2,note_on,60,0,120
2,note_on,64,0,0
2,note_on,60,47,120
2,note_on,64,47,0
2,note_on,64,0,120
2,note_on,60,0,0
2,note_on,60,47,120
2,note_on,64,47,0
2,note_on,64,0,120
2,note_on,60,0,0
2,note_on,57,54,120
2,note_on,57,0,120
2,note_on,64,48,120
2,note_on,60,48,0
2,note_on,60,0,120
2,note_on,64,0,0
2,note_on,64,48,120
2,note_on,60,48,0
2,note_on,60,0,120
2,note_on,64,0,0
2,note_on,64,48,120
2,note_on,60,48,0
2,note_on,60,0,120
2,note_on,64,0,0
2,note_on,57,56,120
2,note_on,57,0,120
2,note_on,64,49,120
2,note_on,60,49,0
2,note_on,60,0,120
2,note_on,64,0,0
2,note_on,57,57,120
2,note_on,57,0,120
2,note_on,64,52,120
2,note_on,60,43,0
2,note_on,60,0,120
2,note_on,64,0,0
2,note_on,53,57,120
2,note_on,53,0,120
2,note_on,63,51,120
2,note_on,57,51,0
2,note_on,57,0,120
2,note_on,63,0,0
2,note_on,63,43,120
2,note_on,57,43,0
2,note_on,57,0,120
2,note_on,63,0,0
2,note_on,63,39,120
2,note_on,57,39,0
2,note_on,57,0,120
2,note_on,63,0,0
2,note_on,52,46,120
2,note_on,52,0,120
2,note_on,64,42,120
2,note_on,57,42,0
2,note_on,57,0,120
2,note_on,64,0,0
2,note_on,50,42,120
2,note_on,50,0,120
2,note_on,59,42,120
2,note_on,53,42,0
2,note_on,53,0,120
2,note_on,59,0,0
2,note_on,48,47,120
2,note_on,48,0,120
2,note_on,57,39,120
2,note_on,52,39,0
2,note_on,52,0,120
2,note_on,57,0,0
2,note_on,50,41,120
2,note_on,50,0,120
2,note_on,59,41,120
2,note_on,53,41,0
2,note_on,53,0,120
2,note_on,59,0,0
2,note_on,52,48,120
2,note_on,57,48,0
2,note_on,57,0,120
2,note_on,52,0,0
2,note_on,57,41,120
2,note_on,52,41,0
2,note_on,52,0,120
2,note_on,57,0,0
2,note_on,52,41,115
2,note_on,56,41,5
2,note_on,52,0,115
2,note_on,56,0,5
2,note_on,52,41,120
2,note_on,56,41,0
2,note_on,56,0,120
2,note_on,52,0,0
2,note_on,45,46,120
2,note_on,57,46,0
2,note_on,57,0,450
2,note_on,45,0,30
2,note_on,45,64,360
2,note_on,45,0,40
2,note_on,49,64,0
2,note_on,49,0,40
2,note_on,52,64,0
2,note_on,52,0,40
2,note_on,57,73,0
2,note_on,57,0,120
2,note_on,57,69,120
2,note_on,57,0,120
2,note_on,57,69,120
2,note_on,57,0,120
2,note_on,57,69,120
2,note_on,57,0,120
2,note_on,45,60,0
2,note_on,45,0,40
2,note_on,49,60,0
2,note_on,49,0,40
2,note_on,52,60,0
2,note_on,52,0,40
2,note_on,57,72,0
2,note_on,57,0,120
2,note_on,57,64,120
2,note_on,57,0,120
2,note_on,57,65,120
2,note_on,57,0,120
2,note_on,57,67,120
2,note_on,57,0,120
2,note_on,38,63,0
2,note_on,38,0,40
2,note_on,42,63,0
2,note_on,42,0,40
2,note_on,45,63,0
2,note_on,45,0,40
2,note_on,50,73,0
2,note_on,50,0,120
2,note_on,50,69,120
2,note_on,50,0,120
2,note_on,39,63,0
2,note_on,39,0,40
2,note_on,42,63,0
2,note_on,42,0,40
2,note_on,45,63,0
2,note_on,45,0,40
2,note_on,51,73,0
2,note_on,51,0,120
2,note_on,51,71,120
2,note_on,51,0,120
2,note_on,40,63,0
2,note_on,40,0,40
2,note_on,44,63,0
2,note_on,44,0,40
2,note_on,47,63,0
2,note_on,47,0,40
2,note_on,52,73,0
2,note_on,52,0,240
2,note_on,52,73,0
2,note_on,52,0,120
2,note_on,45,64,480
2,note_on,45,0,40
2,note_on,49,64,0
2,note_on,49,0,40
2,note_on,52,64,0
2,note_on,52,0,40
2,note_on,57,73,0
2,note_on,57,0,120
2,note_on,57,69,120
2,note_on,57,0,120
2,note_on,57,69,120
2,note_on,57,0,120
2,note_on,57,69,120
2,note_on,57,0,120
2,note_on,45,60,0
2,note_on,45,0,40
2,note_on,49,60,0
2,note_on,49,0,40
2,note_on,52,60,0
2,note_on,52,0,40
2,note_on,57,72,0
2,note_on,57,0,120
2,note_on,57,64,120
2,note_on,57,0,120
2,note_on,57,65,120
2,note_on,57,0,120
2,note_on,57,67,120
2,note_on,57,0,120
2,note_on,38,63,0
2,note_on,38,0,40
2,note_on,42,63,0
2,note_on,42,0,40
2,note_on,45,63,0
2,note_on,45,0,40
2,note_on,50,73,0
2,note_on,50,0,120
2,note_on,50,69,120
2,note_on,50,0,120
2,note_on,40,63,0
2,note_on,40,0,40
2,note_on,44,63,0
2,note_on,44,0,40
2,note_on,47,63,0
2,note_on,47,0,40
2,note_on,52,73,0
2,note_on,52,0,120
2,note_on,52,71,120
2,note_on,52,0,120
2,note_on,45,73,120
2,note_on,45,0,450
2,note_on,45,64,390
2,note_on,45,0,40
2,note_on,49,64,0
2,note_on,49,0,40
2,note_on,52,64,0
2,note_on,52,0,40
2,note_on,57,73,0
2,note_on,57,0,120
2,note_on,57,69,120
2,note_on,57,0,120
2,note_on,57,69,120
2,note_on,57,0,120
2,note_on,57,69,120
2,note_on,57,0,120
2,note_on,45,60,0
2,note_on,45,0,40
2,note_on,49,60,0
2,note_on,49,0,40
2,note_on,52,60,0
2,note_on,52,0,40
2,note_on,57,72,0
2,note_on,57,0,120
2,note_on,57,64,120
2,note_on,57,0,120
2,note_on,57,65,120
2,note_on,57,0,120
2,note_on,57,67,120
2,note_on,57,0,120
2,note_on,38,63,0
2,note_on,38,0,40
2,note_on,42,63,0
2,note_on,42,0,40
2,note_on,45,63,0
2,note_on,45,0,40
2,note_on,50,73,0
2,note_on,50,0,120
2,note_on,50,69,120
2,note_on,50,0,120
2,note_on,39,63,0
2,note_on,39,0,40
2,note_on,42,63,0
2,note_on,42,0,40
2,note_on,45,63,0
2,note_on,45,0,40
2,note_on,51,73,0
2,note_on,51,0,120
2,note_on,51,71,120
2,note_on,51,0,120
2,note_on,40,63,0
2,note_on,40,0,40
2,note_on,44,63,0
2,note_on,44,0,40
2,note_on,47,63,0
2,note_on,47,0,40
2,note_on,52,73,0
2,note_on,52,0,240
2,note_on,52,73,0
2,note_on,52,0,120
2,note_on,45,64,480
2,note_on,45,0,40
2,note_on,49,64,0
2,note_on,49,0,40
2,note_on,52,64,0
2,note_on,52,0,40
2,note_on,57,73,0
2,note_on,57,0,120
2,note_on,57,69,120
2,note_on,57,0,120
2,note_on,57,69,120
2,note_on,57,0,120
2,note_on,57,69,120
2,note_on,57,0,120
2,note_on,45,60,0
2,note_on,45,0,40
2,note_on,49,60,0
2,note_on,49,0,40
2,note_on,52,60,0
2,note_on,52,0,40
2,note_on,57,72,0
2,note_on,57,0,120
2,note_on,57,64,120
2,note_on,57,0,120
2,note_on,57,65,120
2,note_on,57,0,120
2,note_on,57,67,120
2,note_on,57,0,120
2,note_on,38,63,0
2,note_on,38,0,40
2,note_on,42,63,0
2,note_on,42,0,40
2,note_on,45,63,0
2,note_on,45,0,40
2,note_on,50,73,0
2,note_on,50,0,120
2,note_on,50,69,120
2,note_on,50,0,120
2,note_on,40,63,0
2,note_on,40,0,40
2,note_on,44,63,0
2,note_on,44,0,40
2,note_on,47,63,0
2,note_on,47,0,40
2,note_on,52,73,0
2,note_on,52,0,120
2,note_on,52,71,120
2,note_on,52,0,120
2,note_on,45,73,120
2,note_on,45,0,450
2,note_on,54,50,510
2,note_on,54,0,120
2,note_on,61,37,120
2,note_on,57,31,0
2,note_on,57,0,120
2,note_on,61,0,0
2,note_on,61,37,120
2,note_on,57,31,0
2,note_on,57,0,120
2,note_on,61,0,0
2,note_on,61,37,120
2,note_on,57,31,0
2,note_on,57,0,120
2,note_on,61,0,0
2,note_on,56,50,120
2,note_on,56,0,120
2,note_on,61,36,120
2,note_on,59,30,0
2,note_on,59,0,120
2,note_on,61,0,0
2,note_on,61,36,120
2,note_on,59,30,0
2,note_on,59,0,120
2,note_on,61,0,0
2,note_on,61,36,120
2,note_on,59,30,0
2,note_on,59,0,120
2,note_on,61,0,0
2,note_on,54,50,120
2,note_on,54,0,120
2,note_on,61,36,120
2,note_on,57,30,0
2,note_on,57,0,120
2,note_on,61,0,0
2,note_on,61,37,120
2,note_on,57,31,0
2,note_on,57,0,120
2,note_on,61,0,0
2,note_on,61,38,120
2,note_on,57,32,0
2,note_on,57,0,120
2,note_on,61,0,0
2,note_on,53,55,120
2,note_on,53,0,120
2,note_on,61,38,120
2,note_on,56,31,0
2,note_on,56,0,120
2,note_on,61,0,0
2,note_on,61,38,120
2,note_on,56,31,0
2,note_on,56,0,120
2,note_on,61,0,0
2,note_on,61,38,120
2,note_on,56,31,0
2,note_on,56,0,120
2,note_on,61,0,0
2,note_on,54,50,120
2,note_on,54,0,120
2,note_on,61,36,120
2,note_on,57,30,0
2,note_on,57,0,120
2,note_on,61,0,0
2,note_on,61,36,120
2,note_on,57,30,0
2,note_on,57,0,120
2,note_on,61,0,0
2,note_on,61,36,120
2,note_on,57,30,0
2,note_on,57,0,120
2,note_on,61,0,0
2,note_on,56,50,120
2,note_on,56,0,120
2,note_on,64,36,120
2,note_on,61,30,0
2,note_on,61,0,120
2,note_on,64,0,0
2,note_on,64,36,120
2,note_on,61,30,0
2,note_on,61,0,120
2,note_on,64,0,0
2,note_on,64,36,120
2,note_on,61,30,0
2,note_on,61,0,120
2,note_on,64,0,0
2,note_on,56,50,120
2,note_on,56,0,120
2,note_on,66,37,120
2,note_on,63,31,0
2,note_on,63,0,120
2,note_on,66,0,0
2,note_on,63,31,120
2,note_on,66,37,0
2,note_on,66,0,120
2,note_on,63,0,0
2,note_on,63,31,120
2,note_on,66,37,0
2,note_on,66,0,120
2,note_on,63,0,0
2,note_on,64,50,120
2,note_on,61,42,0
2,note_on,61,0,450
2,note_on,64,0,0
2,note_on,54,50,510
2,note_on,54,0,120
2,note_on,61,37,120
2,note_on,57,31,0
2,note_on,57,0,120
2,note_on,61,0,0
2,note_on,61,37,120
2,note_on,57,31,0
2,note_on,57,0,120
2,note_on,61,0,0
2,note_on,61,37,120
2,note_on,57,31,0
2,note_on,57,0,120
2,note_on,61,0,0
2,note_on,56,50,120
2,note_on,56,0,120
2,note_on,61,36,120
2,note_on,59,30,0
2,note_on,59,0,120
2,note_on,61,0,0
2,note_on,61,36,120
2,note_on,59,30,0
2,note_on,59,0,120
2,note_on,61,0,0
2,note_on,61,36,120
2,note_on,59,30,0
2,note_on,59,0,120
2,note_on,61,0,0
2,note_on,54,50,120
2,note_on,54,0,120
2,note_on,61,36,120
2,note_on,57,30,0
2,note_on,57,0,120
2,note_on,61,0,0
2,note_on,61,37,120
2,note_on,57,31,0
2,note_on,57,0,120
2,note_on,61,0,0
2,note_on,61,38,120
2,note_on,57,32,0
2,note_on,57,0,120
2,note_on,61,0,0
2,note_on,53,55,120
2,note_on,53,0,120
2,note_on,61,38,120
2,note_on,56,31,0
2,note_on,56,0,120
2,note_on,61,0,0
2,note_on,61,38,120
2,note_on,56,31,0
2,note_on,56,0,120
2,note_on,61,0,0
2,note_on,61,38,120
2,note_on,56,31,0
2,note_on,56,0,120
2,note_on,61,0,0
2,note_on,54,50,120
2,note_on,54,0,120
2,note_on,61,36,120
2,note_on,57,30,0
2,note_on,57,0,120
2,note_on,61,0,0
2,note_on,61,36,120
2,note_on,57,30,0
2,note_on,57,0,120
2,note_on,61,0,0
2,note_on,61,36,120
2,note_on,57,30,0
2,note_on,57,0,120
2,note_on,61,0,0
2,note_on,56,50,120
2,note_on,56,0,120
2,note_on,64,36,120
2,note_on,61,30,0
2,note_on,61,0,120
2,note_on,64,0,0
2,note_on,64,36,120
2,note_on,61,30,0
2,note_on,61,0,120
2,note_on,64,0,0
2,note_on,64,36,120
2,note_on,61,30,0
2,note_on,61,0,120
2,note_on,64,0,0
2,note_on,56,50,120
2,note_on,56,0,120
2,note_on,66,37,120
2,note_on,63,31,0
2,note_on,63,0,120
2,note_on,66,0,0
2,note_on,63,31,120
2,note_on,66,37,0
2,note_on,66,0,120
2,note_on,63,0,0
2,note_on,63,31,120
2,note_on,66,37,0
2,note_on,66,0,120
2,note_on,63,0,0
2,note_on,64,50,120
2,note_on,61,42,0
2,note_on,61,0,450
2,note_on,64,0,0
2,note_on,57,57,510
2,note_on,57,0,120
2,note_on,64,43,120
2,note_on,61,36,0
2,note_on,61,0,120
2,note_on,64,0,0
2,note_on,64,43,120
2,note_on,61,36,0
2,note_on,61,0,120
2,note_on,64,0,0
2,note_on,64,43,120
2,note_on,61,36,0
2,note_on,61,0,120
2,note_on,64,0,0
2,note_on,59,57,120
2,note_on,59,0,120
2,note_on,64,42,120
2,note_on,62,35,0
2,note_on,62,0,120
2,note_on,64,0,0
2,note_on,56,57,120
2,note_on,56,0,120
2,note_on,64,42,120
2,note_on,62,35,0
2,note_on,62,0,120
2,note_on,64,0,0
2,note_on,57,57,120
2,note_on,57,0,120
2,note_on,64,41,120
2,note_on,61,35,0
2,note_on,61,0,120
2,note_on,64,0,0
2,note_on,64,41,120
2,note_on,61,35,0
2,note_on,61,0,120
2,note_on,64,0,0
2,note_on,64,41,120
2,note_on,61,35,0
2,note_on,61,0,120
2,note_on,64,0,0
2,note_on,52,57,120
2,note_on,52,0,240
2,note_on,62,39,0
2,note_on,56,33,0
2,note_on,56,0,120
2,note_on,62,0,0
2,note_on,56,33,120
2,note_on,62,39,0
2,note_on,62,0,120
2,note_on,56,0,0
2,note_on,56,33,120
2,note_on,62,39,0
2,note_on,62,0,120
2,note_on,56,0,0
2,note_on,57,57,120
2,note_on,57,0,120
2,note_on,64,43,120
2,note_on,61,36,0
2,note_on,61,0,120
2,note_on,64,0,0
2,note_on,64,43,120
2,note_on,61,36,0
2,note_on,61,0,120
2,note_on,64,0,0
2,note_on,64,43,120
2,note_on,61,36,0
2,note_on,61,0,120
2,note_on,64,0,0
2,note_on,59,57,120
2,note_on,59,0,120
2,note_on,64,42,120
2,note_on,62,35,0
2,note_on,62,0,120
2,note_on,64,0,0
2,note_on,56,57,120
2,note_on,56,0,120
2,note_on,64,42,120
2,note_on,62,35,0
2,note_on,62,0,120
2,note_on,64,0,0
2,note_on,57,57,120
2,note_on,57,0,120
2,note_on,54,46,120
2,note_on,54,0,120
2,note_on,50,46,120
2,note_on,50,0,120
2,note_on,52,46,120
2,note_on,52,0,120
2,note_on,45,57,120
2,note_on,45,0,240
2,note_on,57,44,0
2,note_on,57,0,120
2,note_on,52,50,600
2,note_on,52,0,120
2,note_on,61,42,120
2,note_on,57,35,0
2,note_on,57,0,120
2,note_on,61,0,0
2,note_on,61,42,120
2,note_on,57,35,0
2,note_on,57,0,120
2,note_on,61,0,0
2,note_on,61,42,120
2,note_on,57,35,0
2,note_on,57,0,120
2,note_on,61,0,0
2,note_on,56,50,120
2,note_on,56,0,120
2,note_on,61,41,120
2,note_on,59,34,0
2,note_on,59,0,120
2,note_on,61,0,0
2,note_on,61,41,120
2,note_on,59,34,0
2,note_on,59,0,120
2,note_on,61,0,0
2,note_on,61,41,120
2,note_on,59,34,0
2,note_on,59,0,120
2,note_on,61,0,0
2,note_on,54,50,120
2,note_on,54,0,120
2,note_on,61,40,120
2,note_on,57,34,0
2,note_on,57,0,120
2,note_on,61,0,0
2,note_on,61,40,120
2,note_on,57,34,0
2,note_on,57,0,120
2,note_on,61,0,0
2,note_on,61,40,120
2,note_on,57,34,0
2,note_on,57,0,120
2,note_on,61,0,0
2,note_on,49,50,120
2,note_on,49,0,120
2,note_on,61,49,120
2,note_on,56,41,0
2,note_on,56,0,120
2,note_on,61,0,0
2,note_on,61,48,120
2,note_on,55,40,0
2,note_on,55,0,120
2,note_on,61,0,0
2,note_on,61,48,120
2,note_on,54,40,0
2,note_on,54,0,120
2,note_on,61,0,0
2,note_on,47,59,120
2,note_on,47,0,120
2,note_on,59,53,120
2,note_on,54,45,0
2,note_on,54,0,120
2,note_on,59,0,0
2,note_on,59,56,120
2,note_on,54,47,0
2,note_on,54,0,120
2,note_on,59,0,0
2,note_on,59,54,120
2,note_on,54,45,0
2,note_on,54,0,120
2,note_on,59,0,0
2,note_on,47,65,120
2,note_on,47,0,120
2,note_on,59,54,120
2,note_on,56,45,0
2,note_on,56,0,120
2,note_on,59,0,0
2,note_on,59,60,120
2,note_on,56,51,0
2,note_on,56,0,120
2,note_on,59,0,0
2,note_on,59,54,120
2,note_on,56,45,0
2,note_on,56,0,120
2,note_on,59,0,0
2,note_on,49,58,120
2,note_on,49,0,120
2,note_on,57,47,120
2,note_on,54,39,0
2,note_on,54,0,120
2,note_on,57,0,0
2,note_on,49,55,120
2,note_on,49,0,120
2,note_on,56,41,120
2,note_on,59,49,0
2,note_on,59,0,120
2,note_on,56,0,0
2,note_on,57,46,120
2,note_on,54,39,0
2,note_on,54,0,450
2,note_on,57,0,0
2,note_on,57,57,510
2,note_on,57,0,120
2,note_on,64,43,120
2,note_on,61,36,0
2,note_on,61,0,120
2,note_on,64,0,0
2,note_on,64,43,120
2,note_on,61,36,0
2,note_on,61,0,120
2,note_on,64,0,0
2,note_on,64,43,120
2,note_on,61,36,0
2,note_on,61,0,120
2,note_on,64,0,0
2,note_on,59,57,120
2,note_on,59,0,120
2,note_on,64,42,120
2,note_on,62,35,0
2,note_on,62,0,120
2,note_on,64,0,0
2,note_on,56,57,120
2,note_on,56,0,120
2,note_on,64,42,120
2,note_on,62,35,0
2,note_on,62,0,120
2,note_on,64,0,0
2,note_on,57,57,120
2,note_on,57,0,120
2,note_on,64,41,120
2,note_on,61,35,0
2,note_on,61,0,120
2,note_on,64,0,0
2,note_on,64,41,120
2,note_on,61,35,0
2,note_on,61,0,120
2,note_on,64,0,0
2,note_on,64,41,120
2,note_on,61,35,0
2,note_on,61,0,120
2,note_on,64,0,0
2,note_on,52,57,120
2,note_on,52,0,240
2,note_on,62,39,0
2,note_on,56,33,0
2,note_on,56,0,120
2,note_on,62,0,0
2,note_on,56,33,120
2,note_on,62,39,0
2,note_on,62,0,120
2,note_on,56,0,0
2,note_on,56,33,120
2,note_on,62,39,0
2,note_on,62,0,120
2,note_on,56,0,0
2,note_on,57,57,120
2,note_on,57,0,120
2,note_on,64,43,120
2,note_on,61,36,0
2,note_on,61,0,120
2,note_on,64,0,0
2,note_on,64,43,120
2,note_on,61,36,0
2,note_on,61,0,120
2,note_on,64,0,0
2,note_on,64,43,120
2,note_on,61,36,0
2,note_on,61,0,120
2,note_on,64,0,0
2,note_on,59,57,120
2,note_on,59,0,120
2,note_on,64,42,120
2,note_on,62,35,0
2,note_on,62,0,120
2,note_on,64,0,0
2,note_on,56,57,120
2,note_on,56,0,120
2,note_on,64,42,120
2,note_on,62,35,0
2,note_on,62,0,120
2,note_on,64,0,0
2,note_on,57,57,120
2,note_on,57,0,120
2,note_on,54,46,120
2,note_on,54,0,120
2,note_on,50,46,120
2,note_on,50,0,120
2,note_on,52,46,120
2,note_on,52,0,120
2,note_on,45,57,120
2,note_on,45,0,240
2,note_on,57,44,0
2,note_on,57,0,120
2,note_on,52,50,600
2,note_on,52,0,120
2,note_on,61,42,120
2,note_on,57,35,0
2,note_on,57,0,120
2,note_on,61,0,0
2,note_on,61,42,120
2,note_on,57,35,0
2,note_on,57,0,120
2,note_on,61,0,0
2,note_on,61,42,120
2,note_on,57,35,0
2,note_on,57,0,120
2,note_on,61,0,0
2,note_on,56,50,120
2,note_on,56,0,120
2,note_on,61,41,120
2,note_on,59,34,0
2,note_on,59,0,120
2,note_on,61,0,0
2,note_on,61,41,120
2,note_on,59,34,0
2,note_on,59,0,120
2,note_on,61,0,0
2,note_on,61,41,120
2,note_on,59,34,0
2,note_on,59,0,120
2,note_on,61,0,0
2,note_on,54,50,120
2,note_on,54,0,120
2,note_on,61,40,120
2,note_on,57,34,0
2,note_on,57,0,120
2,note_on,61,0,0
2,note_on,61,40,120
2,note_on,57,34,0
2,note_on,57,0,120
2,note_on,61,0,0
2,note_on,61,40,120
2,note_on,57,34,0
2,note_on,57,0,120
2,note_on,61,0,0
2,note_on,49,50,120
2,note_on,49,0,120
2,note_on,61,49,120
2,note_on,56,41,0
2,note_on,56,0,120
2,note_on,61,0,0
2,note_on,61,48,120
2,note_on,55,40,0
2,note_on,55,0,120
2,note_on,61,0,0
2,note_on,61,48,120
2,note_on,54,40,0
2,note_on,54,0,120
2,note_on,61,0,0
2,note_on,47,59,120
2,note_on,47,0,120
2,note_on,59,53,120
2,note_on,54,45,0
2,note_on,54,0,120
2,note_on,59,0,0
2,note_on,59,56,120
2,note_on,54,47,0
2,note_on,54,0,120
2,note_on,59,0,0
2,note_on,59,54,120
2,note_on,54,45,0
2,note_on,54,0,120
2,note_on,59,0,0
2,note_on,47,65,120
2,note_on,47,0,120
2,note_on,59,54,120
2,note_on,56,45,0
2,note_on,56,0,120
2,note_on,59,0,0
2,note_on,59,60,120
2,note_on,56,51,0
2,note_on,56,0,120
2,note_on,59,0,0
2,note_on,59,54,120
2,note_on,56,45,0
2,note_on,56,0,120
2,note_on,59,0,0
2,note_on,49,58,120
2,note_on,49,0,120
2,note_on,57,47,120
2,note_on,54,39,0
2,note_on,54,0,120
2,note_on,57,0,0
2,note_on,49,55,120
2,note_on,49,0,120
2,note_on,56,41,120
2,note_on,59,49,0
2,note_on,59,0,120
2,note_on,56,0,0
2,note_on,57,46,120
2,note_on,54,39,0
2,note_on,54,0,450
2,note_on,57,0,0
2,note_on,45,64,390
2,note_on,45,0,40
2,note_on,49,64,0
2,note_on,49,0,40
2,note_on,52,64,0
2,note_on,52,0,40
2,note_on,57,73,0
2,note_on,57,0,120
2,note_on,57,69,120
2,note_on,57,0,120
2,note_on,57,69,120
2,note_on,57,0,120
2,note_on,57,69,120
2,note_on,57,0,120
2,note_on,45,60,0
2,note_on,45,0,40
2,note_on,49,60,0
2,note_on,49,0,40
2,note_on,52,60,0
2,note_on,52,0,40
2,note_on,57,72,0
2,note_on,57,0,120
2,note_on,57,64,120
2,note_on,57,0,120
2,note_on,57,65,120
2,note_on,57,0,120
2,note_on,57,67,120
2,note_on,57,0,120
2,note_on,38,63,0
2,note_on,38,0,40
2,note_on,42,63,0
2,note_on,42,0,40
2,note_on,45,63,0
2,note_on,45,0,40
2,note_on,50,73,0
2,note_on,50,0,120
2,note_on,50,69,120
2,note_on,50,0,120
2,note_on,39,63,0
2,note_on,39,0,40
2,note_on,42,63,0
2,note_on,42,0,40
2,note_on,45,63,0
2,note_on,45,0,40
2,note_on,51,73,0
2,note_on,51,0,120
2,note_on,51,71,120
2,note_on,51,0,120
2,note_on,40,63,0
2,note_on,40,0,40
2,note_on,44,63,0
2,note_on,44,0,40
2,note_on,47,63,0
2,note_on,47,0,40
2,note_on,52,73,0
2,note_on,52,0,240
2,note_on,52,73,0
2,note_on,52,0,120
2,note_on,45,64,480
2,note_on,45,0,40
2,note_on,49,64,0
2,note_on,49,0,40
2,note_on,52,64,0
2,note_on,52,0,40
2,note_on,57,73,0
2,note_on,57,0,120
2,note_on,57,69,120
2,note_on,57,0,120
2,note_on,57,69,120
2,note_on,57,0,120
2,note_on,57,69,120
2,note_on,57,0,120
2,note_on,45,60,0
2,note_on,45,0,40
2,note_on,49,60,0
2,note_on,49,0,40
2,note_on,52,60,0
2,note_on,52,0,40
2,note_on,57,72,0
2,note_on,57,0,120
2,note_on,57,64,120
2,note_on,57,0,120
2,note_on,57,65,120
2,note_on,57,0,120
2,note_on,57,67,120
2,note_on,57,0,120
2,note_on,38,63,0
2,note_on,38,0,40
2,note_on,42,63,0
2,note_on,42,0,40
2,note_on,45,63,0
2,note_on,45,0,40
2,note_on,50,73,0
2,note_on,50,0,120
2,note_on,50,69,120
2,note_on,50,0,120
2,note_on,40,63,0
2,note_on,40,0,40
2,note_on,44,63,0
2,note_on,44,0,40
2,note_on,47,63,0
2,note_on,47,0,40
2,note_on,52,73,0
2,note_on,52,0,120
2,note_on,52,71,120
2,note_on,52,0,120
2,note_on,45,73,120
2,note_on,45,0,450
2,note_on,45,64,390
2,note_on,45,0,40
2,note_on,49,64,0
2,note_on,49,0,40
2,note_on,52,64,0
2,note_on,52,0,40
2,note_on,57,73,0
2,note_on,57,0,120
2,note_on,57,69,120
2,note_on,57,0,120
2,note_on,57,69,120
2,note_on,57,0,120
2,note_on,57,69,120
2,note_on,57,0,120
2,note_on,45,60,0
2,note_on,45,0,40
2,note_on,49,60,0
2,note_on,49,0,40
2,note_on,52,60,0
2,note_on,52,0,40
2,note_on,57,72,0
2,note_on,57,0,120
2,note_on,57,64,120
2,note_on,57,0,120
2,note_on,57,65,120
2,note_on,57,0,120
2,note_on,57,67,120
2,note_on,57,0,120
2,note_on,38,63,0
2,note_on,38,0,40
2,note_on,42,63,0
2,note_on,42,0,40
2,note_on,45,63,0
2,note_on,45,0,40
2,note_on,50,73,0
2,note_on,50,0,120
2,note_on,50,69,120
2,note_on,50,0,120
2,note_on,39,63,0
2,note_on,39,0,40
2,note_on,42,63,0
2,note_on,42,0,40
2,note_on,45,63,0
2,note_on,45,0,40
2,note_on,51,73,0
2,note_on,51,0,120
2,note_on,51,71,120
2,note_on,51,0,120
2,note_on,40,63,0
2,note_on,40,0,40
2,note_on,44,63,0
2,note_on,44,0,40
2,note_on,47,63,0
2,note_on,47,0,40
2,note_on,52,73,0
2,note_on,52,0,240
2,note_on,52,73,0
2,note_on,52,0,120
2,note_on,45,64,480
2,note_on,45,0,40
2,note_on,49,64,0
2,note_on,49,0,40
2,note_on,52,64,0
2,note_on,52,0,40
2,note_on,57,73,0
2,note_on,57,0,120
2,note_on,57,69,120
2,note_on,57,0,120
2,note_on,57,69,120
2,note_on,57,0,120
2,note_on,57,69,120
2,note_on,57,0,120
2,note_on,45,60,0
2,note_on,45,0,40
2,note_on,49,60,0
2,note_on,49,0,40
2,note_on,52,60,0
2,note_on,52,0,40
2,note_on,57,72,0
2,note_on,57,0,120
2,note_on,57,64,120
2,note_on,57,0,120
2,note_on,57,65,120
2,note_on,57,0,120
2,note_on,57,67,120
2,note_on,57,0,120
2,note_on,38,63,0
2,note_on,38,0,40
2,note_on,42,63,0
2,note_on,42,0,40
2,note_on,45,63,0
2,note_on,45,0,40
2,note_on,50,73,0
2,note_on,50,0,120
2,note_on,50,69,120
2,note_on,50,0,120
2,note_on,40,63,0
2,note_on,40,0,40
2,note_on,44,63,0
2,note_on,44,0,40
2,note_on,47,63,0
2,note_on,47,0,40
2,note_on,52,73,0
2,note_on,52,0,120
2,note_on,52,71,120
2,note_on,52,0,120
2,note_on,45,73,120
2,note_on,45,0,450
2,note_on,57,57,510
2,note_on,57,0,120
2,note_on,64,52,120
2,note_on,60,43,0
2,note_on,60,0,120
2,note_on,64,0,0
2,note_on,60,43,120
2,note_on,64,52,0
2,note_on,64,0,120
2,note_on,60,0,0
2,note_on,60,42,120
2,note_on,64,51,0
2,note_on,64,0,120
2,note_on,60,0,0
2,note_on,57,57,120
2,note_on,57,0,120
2,note_on,64,52,120
2,note_on,60,43,0
2,note_on,60,0,120
2,note_on,64,0,0
2,note_on,64,52,120
2,note_on,60,43,0
2,note_on,60,0,120
2,note_on,64,0,0
2,note_on,64,52,120
2,note_on,60,43,0
2,note_on,60,0,120
2,note_on,64,0,0
2,note_on,57,57,120
2,note_on,57,0,120
2,note_on,64,50,120
2,note_on,60,42,0
2,note_on,60,0,120
2,note_on,64,0,0
2,note_on,57,57,120
2,note_on,57,0,120
2,note_on,64,52,120
2,note_on,60,43,0
2,note_on,60,0,120
2,note_on,64,0,0
2,note_on,57,57,120
2,note_on,57,0,120
2,note_on,64,50,120
2,note_on,60,42,0
2,note_on,60,0,120
2,note_on,64,0,0
2,note_on,64,50,120
2,note_on,60,42,0
2,note_on,60,0,120
2,note_on,64,0,0
2,note_on,64,50,120
2,note_on,60,42,0
2,note_on,60,0,120
2,note_on,64,0,0
2,note_on,52,65,120
2,note_on,52,0,120
2,note_on,64,53,120
2,note_on,59,44,0
2,note_on,59,0,120
2,note_on,64,0,0
2,note_on,64,53,120
2,note_on,59,44,0
2,note_on,59,0,120
2,note_on,64,0,0
2,note_on,64,53,120
2,note_on,59,44,0
2,note_on,59,0,120
2,note_on,64,0,0
2,note_on,52,66,120
2,note_on,52,0,120
2,note_on,64,52,120
2,note_on,59,43,0
2,note_on,59,0,120
2,note_on,64,0,0
2,note_on,64,52,120
2,note_on,59,43,0
2,note_on,59,0,120
2,note_on,64,0,0
2,note_on,64,52,120
2,note_on,59,43,0
2,note_on,59,0,120
2,note_on,64,0,0
2,note_on,52,67,120
2,note_on,52,0,120
2,note_on,64,52,120
2,note_on,59,43,0
2,note_on,59,0,120
2,note_on,64,0,0
2,note_on,47,52,120
2,note_on,47,0,120
2,note_on,59,52,120
2,note_on,59,0,120
2,note_on,52,57,120
2,note_on,52,0,450
2,note_on,57,57,510
2,note_on,57,0,120
2,note_on,64,52,120
2,note_on,60,43,0
2,note_on,60,0,120
2,note_on,64,0,0
2,note_on,60,43,120
2,note_on,64,52,0
2,note_on,64,0,120
2,note_on,60,0,0
2,note_on,60,42,120
2,note_on,64,51,0
2,note_on,64,0,120
2,note_on,60,0,0
2,note_on,57,57,120
2,note_on,57,0,120
2,note_on,64,52,120
2,note_on,60,43,0
2,note_on,60,0,120
2,note_on,64,0,0
2,note_on,64,52,120
2,note_on,60,43,0
2,note_on,60,0,120
2,note_on,64,0,0
2,note_on,64,52,120
2,note_on,60,43,0
2,note_on,60,0,120
2,note_on,64,0,0
2,note_on,57,57,120
2,note_on,57,0,120
2,note_on,64,50,120
2,note_on,60,42,0
2,note_on,60,0,120
2,note_on,64,0,0
2,note_on,57,57,120
2,note_on,57,0,120
2,note_on,64,52,120
2,note_on,60,43,0
2,note_on,60,0,120
2,note_on,64,0,0
2,note_on,57,57,120
2,note_on,57,0,120
2,note_on,64,50,120
2,note_on,60,42,0
2,note_on,60,0,120
2,note_on,64,0,0
2,note_on,64,50,120
2,note_on,60,42,0
2,note_on,60,0,120
2,note_on,64,0,0
2,note_on,64,50,120
2,note_on,60,42,0
2,note_on,60,0,120
2,note_on,64,0,0
2,note_on,52,65,120
2,note_on,52,0,120
2,note_on,64,53,120
2,note_on,59,44,0
2,note_on,59,0,120
2,note_on,64,0,0
2,note_on,64,53,120
2,note_on,59,44,0
2,note_on,59,0,120
2,note_on,64,0,0
2,note_on,64,53,120
2,note_on,59,44,0
2,note_on,59,0,120
2,note_on,64,0,0
2,note_on,52,66,120
2,note_on,52,0,120
2,note_on,64,52,120
2,note_on,59,43,0
2,note_on,59,0,120
2,note_on,64,0,0
2,note_on,64,52,120
2,note_on,59,43,0
2,note_on,59,0,120
2,note_on,64,0,0
2,note_on,64,52,120
2,note_on,59,43,0
2,note_on,59,0,120
2,note_on,64,0,0
2,note_on,52,67,120
2,note_on,52,0,120
2,note_on,64,52,120
2,note_on,59,43,0
2,note_on,59,0,120
2,note_on,64,0,0
2,note_on,47,52,120
2,note_on,47,0,120
2,note_on,59,52,120
2,note_on,59,0,120
2,note_on,52,57,120
2,note_on,52,0,450
2,note_on,48,59,510
2,note_on,48,0,120
2,note_on,60,53,120
2,note_on,60,0,120
2,note_on,52,59,120
2,note_on,52,0,120
2,note_on,64,57,120
2,note_on,64,0,120
2,note_on,55,60,120
2,note_on,55,0,480
2,note_on,48,59,480
2,note_on,48,0,120
2,note_on,60,53,120
2,note_on,60,0,120
2,note_on,52,59,120
2,note_on,52,0,120
2,note_on,64,57,120
2,note_on,64,0,120
2,note_on,55,60,120
2,note_on,55,0,480
2,note_on,45,59,480
2,note_on,45,0,120
2,note_on,57,53,120
2,note_on,57,0,120
2,note_on,48,59,120
2,note_on,48,0,120
2,note_on,60,57,120
2,note_on,60,0,120
2,note_on,52,60,120
2,note_on,52,0,480
2,note_on,45,59,480
2,note_on,45,0,120
2,note_on,57,53,120
2,note_on,57,0,120
2,note_on,48,59,120
2,note_on,48,0,120
2,note_on,60,57,120
2,note_on,60,0,120
2,note_on,52,60,120
2,note_on,52,0,480
2,note_on,57,53,480
2,note_on,57,0,120
2,note_on,64,47,120
2,note_on,60,47,0
2,note_on,60,0,120
2,note_on,64,0,0
2,note_on,60,47,120
2,note_on,64,47,0
2,note_on,64,0,120
2,note_on,60,0,0
2,note_on,60,47,120
2,note_on,64,47,0
2,note_on,64,0,120
2,note_on,60,0,0
2,note_on,57,54,120
2,note_on,57,0,120
2,note_on,64,48,120
2,note_on,60,48,0
2,note_on,60,0,120
2,note_on,64,0,0
2,note_on,64,48,120
2,note_on,60,48,0
2,note_on,60,0,120
2,note_on,64,0,0
2,note_on,64,48,120
2,note_on,60,48,0
2,note_on,60,0,120
2,note_on,64,0,0
2,note_on,57,56,120
2,note_on,57,0,120
2,note_on,64,49,120
2,note_on,60,49,0
2,note_on,60,0,120
2,note_on,64,0,0
2,note_on,57,57,120
2,note_on,57,0,120
2,note_on,64,52,120
2,note_on,60,43,0
2,note_on,60,0,120
2,note_on,64,0,0
2,note_on,53,57,120
2,note_on,53,0,120
2,note_on,63,51,120
2,note_on,57,51,0
2,note_on,57,0,120
2,note_on,63,0,0
2,note_on,63,43,120
2,note_on,57,43,0
2,note_on,57,0,120
2,note_on,63,0,0
2,note_on,63,39,120
2,note_on,57,39,0
2,note_on,57,0,120
2,note_on,63,0,0
2,note_on,52,46,120
2,note_on,52,0,120
2,note_on,64,42,120
2,note_on,57,42,0
2,note_on,57,0,120
2,note_on,64,0,0
2,note_on,50,42,120
2,note_on,50,0,120
2,note_on,59,42,120
2,note_on,53,42,0
2,note_on,53,0,120
2,note_on,59,0,0
2,note_on,48,47,120
2,note_on,48,0,120
2,note_on,57,39,120
2,note_on,52,39,0
2,note_on,52,0,120
2,note_on,57,0,0
2,note_on,50,41,120
2,note_on,50,0,120
2,note_on,59,41,120
2,note_on,53,41,0
2,note_on,53,0,120
2,note_on,59,0,0
2,note_on,52,48,120
2,note_on,57,48,0
2,note_on,57,0,120
2,note_on,52,0,0
2,note_on,57,41,120
2,note_on,52,41,0
2,note_on,52,0,120
2,note_on,57,0,0
2,note_on,52,41,115
2,note_on,56,41,5
2,note_on,52,0,115
2,note_on,56,0,5
2,note_on,52,41,120
2,note_on,56,41,0
2,note_on,56,0,120
2,note_on,52,0,0
2,note_on,45,46,120
2,note_on,57,46,0
2,note_on,57,0,450
2,note_on,45,0,30
2,note_on,48,59,480
2,note_on,48,0,120
2,note_on,60,53,120
2,note_on,60,0,120
2,note_on,52,59,120
2,note_on,52,0,120
2,note_on,64,57,120
2,note_on,64,0,120
2,note_on,55,60,120
2,note_on,55,0,480
2,note_on,48,59,480
2,note_on,48,0,120
2,note_on,60,53,120
2,note_on,60,0,120
2,note_on,52,59,120
2,note_on,52,0,120
2,note_on,64,57,120
2,note_on,64,0,120
2,note_on,55,60,120
2,note_on,55,0,480
2,note_on,45,59,480
2,note_on,45,0,120
2,note_on,57,53,120
2,note_on,57,0,120
2,note_on,48,59,120
2,note_on,48,0,120
2,note_on,60,57,120
2,note_on,60,0,120
2,note_on,52,60,120
2,note_on,52,0,480
2,note_on,45,59,480
2,note_on,45,0,120
2,note_on,57,53,120
2,note_on,57,0,120
2,note_on,48,59,120
2,note_on,48,0,120
2,note_on,60,57,120
2,note_on,60,0,120
2,note_on,52,60,120
2,note_on,52,0,480
2,note_on,57,53,480
2,note_on,57,0,120
2,note_on,64,47,120
2,note_on,60,47,0
2,note_on,60,0,120
2,note_on,64,0,0
2,note_on,60,47,120
2,note_on,64,47,0
2,note_on,64,0,120
2,note_on,60,0,0
2,note_on,60,47,120
2,note_on,64,47,0
2,note_on,64,0,120
2,note_on,60,0,0
2,note_on,57,54,120
2,note_on,57,0,120
2,note_on,64,48,120
2,note_on,60,48,0
2,note_on,60,0,120
2,note_on,64,0,0
2,note_on,64,48,120
2,note_on,60,48,0
2,note_on,60,0,120
2,note_on,64,0,0
2,note_on,64,48,120
2,note_on,60,48,0
2,note_on,60,0,120
2,note_on,64,0,0
2,note_on,57,56,120
2,note_on,57,0,120
2,note_on,64,49,120
2,note_on,60,49,0
2,note_on,60,0,120
2,note_on,64,0,0
2,note_on,57,57,120
2,note_on,57,0,120
2,note_on,64,52,120
2,note_on,60,43,0
2,note_on,60,0,120
2,note_on,64,0,0
2,note_on,57,57,120
2,note_on,57,0,120
2,note_on,63,51,120
2,note_on,57,51,0
2,note_on,57,0,120
2,note_on,63,0,0
2,note_on,63,43,120
2,note_on,57,43,0
2,note_on,57,0,120
2,note_on,63,0,0
2,note_on,63,39,120
2,note_on,57,39,0
2,note_on,57,0,120
2,note_on,63,0,0
2,note_on,52,46,120
2,note_on,52,0,120
2,note_on,64,42,120
2,note_on,57,42,0
2,note_on,57,0,120
2,note_on,64,0,0
2,note_on,50,42,120
2,note_on,50,0,120
2,note_on,59,42,120
2,note_on,53,42,0
2,note_on,53,0,120
2,note_on,59,0,0
2,note_on,48,47,120
2,note_on,48,0,120
2,note_on,57,39,120
2,note_on,52,39,0
2,note_on,52,0,120
2,note_on,57,0,0
2,note_on,50,41,120
2,note_on,50,0,120
2,note_on,59,41,120
2,note_on,53,41,0
2,note_on,53,0,120
2,note_on,59,0,0
2,note_on,52,48,120
2,note_on,57,48,0
2,note_on,57,0,120
2,note_on,52,0,0
2,note_on,57,41,120
2,note_on,52,41,0
2,note_on,52,0,120
2,note_on,57,0,0
2,note_on,52,41,115
2,note_on,56,41,5
2,note_on,52,0,115
2,note_on,56,0,5
2,note_on,52,41,120
2,note_on,56,41,0
2,note_on,56,0,120
2,note_on,52,0,0
2,note_on,45,46,120
2,note_on,57,46,0
2,note_on,57,0,450
2,note_on,45,0,30
2,note_on,45,64,360
2,note_on,45,0,40
2,note_on,49,70,0
2,note_on,49,0,40
2,note_on,52,76,0
2,note_on,52,0,40
2,note_on,57,87,0
2,note_on,57,0,120
2,note_on,57,69,120
2,note_on,57,0,120
2,note_on,57,69,120
2,note_on,57,0,120
2,note_on,57,69,120
2,note_on,57,0,120
2,note_on,45,65,0
2,note_on,45,0,40
2,note_on,49,69,0
2,note_on,49,0,40
2,note_on,52,73,0
2,note_on,52,0,40
2,note_on,57,85,0
2,note_on,57,0,120
2,note_on,57,64,120
2,note_on,57,0,120
2,note_on,57,65,120
2,note_on,57,0,120
2,note_on,57,67,120
2,note_on,57,0,120
2,note_on,38,66,0
2,note_on,38,0,40
2,note_on,42,71,0
2,note_on,42,0,40
2,note_on,45,77,0
2,note_on,45,0,40
2,note_on,50,85,0
2,note_on,50,0,120
2,note_on,50,69,120
2,note_on,50,0,120
2,note_on,39,68,0
2,note_on,39,0,40
2,note_on,42,72,0
2,note_on,42,0,40
2,note_on,45,75,0
2,note_on,45,0,40
2,note_on,51,85,0
2,note_on,51,0,120
2,note_on,51,71,120
2,note_on,51,0,120
2,note_on,40,64,0
2,note_on,40,0,40
2,note_on,44,69,0
2,note_on,44,0,40
2,note_on,47,74,0
2,note_on,47,0,40
2,note_on,52,85,0
2,note_on,52,0,240
2,note_on,52,73,0
2,note_on,52,0,120
2,note_on,45,67,480
2,note_on,45,0,40
2,note_on,49,71,0
2,note_on,49,0,40
2,note_on,52,76,0
2,note_on,52,0,40
2,note_on,57,84,0
2,note_on,57,0,120
2,note_on,57,69,120
2,note_on,57,0,120
2,note_on,57,69,120
2,note_on,57,0,120
2,note_on,57,69,120
2,note_on,57,0,120
2,note_on,45,61,0
2,note_on,45,0,40
2,note_on,49,66,0
2,note_on,49,0,40
2,note_on,52,72,0
2,note_on,52,0,40
2,note_on,57,87,0
2,note_on,57,0,120
2,note_on,57,64,120
2,note_on,57,0,120
2,note_on,57,65,120
2,note_on,57,0,120
2,note_on,57,67,120
2,note_on,57,0,120
2,note_on,38,68,0
2,note_on,38,0,40
2,note_on,42,72,0
2,note_on,42,0,40
2,note_on,45,76,0
2,note_on,45,0,40
2,note_on,50,83,0
2,note_on,50,0,120
2,note_on,50,69,120
2,note_on,50,0,120
2,note_on,40,67,0
2,note_on,40,0,40
2,note_on,44,72,0
2,note_on,44,0,40
2,note_on,47,78,0
2,note_on,47,0,40
2,note_on,52,82,0
2,note_on,52,0,120
2,note_on,52,71,120
2,note_on,52,0,120
2,note_on,45,84,120
2,note_on,45,0,450
2,note_on,45,64,390
2,note_on,45,0,40
2,note_on,49,70,0
2,note_on,49,0,40
2,note_on,52,76,0
2,note_on,52,0,40
2,note_on,57,87,0
2,note_on,57,0,120
2,note_on,57,69,120
2,note_on,57,0,120
2,note_on,57,69,120
2,note_on,57,0,120
2,note_on,57,69,120
2,note_on,57,0,120
2,note_on,45,65,0
2,note_on,45,0,40
2,note_on,49,69,0
2,note_on,49,0,40
2,note_on,52,73,0
2,note_on,52,0,40
2,note_on,57,85,0
2,note_on,57,0,120
2,note_on,57,64,120
2,note_on,57,0,120
2,note_on,57,65,120
2,note_on,57,0,120
2,note_on,57,67,120
2,note_on,57,0,120
2,note_on,38,66,0
2,note_on,38,0,40
2,note_on,42,71,0
2,note_on,42,0,40
2,note_on,45,77,0
2,note_on,45,0,40
2,note_on,50,85,0
2,note_on,50,0,120
2,note_on,50,69,120
2,note_on,50,0,120
2,note_on,39,68,0
2,note_on,39,0,40
2,note_on,42,72,0
2,note_on,42,0,40
2,note_on,45,75,0
2,note_on,45,0,40
2,note_on,51,85,0
2,note_on,51,0,120
2,note_on,51,71,120
2,note_on,51,0,120
2,note_on,40,64,0
2,note_on,40,0,40
2,note_on,44,69,0
2,note_on,44,0,40
2,note_on,47,74,0
2,note_on,47,0,40
2,note_on,52,85,0
2,note_on,52,0,240
2,note_on,52,73,0
2,note_on,52,0,120
2,note_on,45,67,480
2,note_on,45,0,40
2,note_on,49,71,0
2,note_on,49,0,40
2,note_on,52,76,0
2,note_on,52,0,40
2,note_on,57,84,0
2,note_on,57,0,120
2,note_on,57,69,120
2,note_on,57,0,120
2,note_on,57,69,120
2,note_on,57,0,120
2,note_on,57,69,120
2,note_on,57,0,120
2,note_on,45,61,0
2,note_on,45,0,40
2,note_on,49,66,0
2,note_on,49,0,40
2,note_on,52,72,0
2,note_on,52,0,40
2,note_on,57,87,0
2,note_on,57,0,120
2,note_on,57,64,120
2,note_on,57,0,120
2,note_on,57,65,120
2,note_on,57,0,120
2,note_on,57,67,120
2,note_on,57,0,120
2,note_on,38,68,0
2,note_on,38,0,40
2,note_on,42,72,0
2,note_on,42,0,40
2,note_on,45,76,0
2,note_on,45,0,40
2,note_on,50,83,0
2,note_on,50,0,120
2,note_on,50,69,120
2,note_on,50,0,120
2,note_on,40,67,0
2,note_on,40,0,40
2,note_on,44,72,0
2,note_on,44,0,40
2,note_on,47,78,0
2,note_on,47,0,40
2,note_on,52,82,0
2,note_on,52,0,120
2,note_on,52,71,120
2,note_on,52,0,120
2,note_on,45,61,0
2,note_on,45,0,40
2,note_on,49,66,0
2,note_on,49,0,40
2,note_on,52,72,0
2,note_on,52,0,40
2,note_on,57,87,0
2,note_on,57,0,120
2,note_on,57,64,120
2,note_on,57,0,120
2,note_on,57,65,120
2,note_on,57,0,120
2,note_on,57,64,120
2,note_on,57,0,120
2,note_on,45,61,0
2,note_on,45,0,40
2,note_on,49,66,0
2,note_on,49,0,40
2,note_on,52,72,0
2,note_on,52,0,40
2,note_on,57,87,0
2,note_on,57,0,120
2,note_on,57,68,120
2,note_on,57,0,120
2,note_on,57,68,120
2,note_on,57,0,120
2,note_on,57,68,120
2,note_on,57,0,120
2,note_on,45,61,0
2,note_on,45,0,40
2,note_on,49,66,0
2,note_on,49,0,40
2,note_on,52,72,0
2,note_on,52,0,40
2,note_on,57,87,0
2,note_on,57,0,120
2,note_on,57,68,120
2,note_on,57,0,120
2,note_on,57,68,120
2,note_on,57,0,120
2,note_on,57,68,120
2,note_on,57,0,120
2,note_on,45,61,0
2,note_on,45,0,40
2,note_on,49,66,0
2,note_on,49,0,40
2,note_on,52,72,0
2,note_on,52,0,40
2,note_on,57,87,0
2,note_on,57,0,120
2,note_on,57,67,120
2,note_on,57,0,120
2,note_on,57,67,120
2,note_on,57,0,120
2,note_on,57,67,120
2,note_on,57,0,120
2,note_on,38,61,0
2,note_on,38,0,40
2,note_on,42,66,0
2,note_on,42,0,40
2,note_on,45,72,0
2,note_on,45,0,40
2,note_on,50,87,0
2,note_on,50,0,120
2,note_on,50,67,120
2,note_on,50,0,120
2,note_on,50,67,120
2,note_on,50,0,120
2,note_on,50,67,113
2,note_on,50,0,120
2,note_on,45,61,7
2,note_on,45,0,40
2,note_on,49,66,0
2,note_on,49,0,40
2,note_on,52,72,0
2,note_on,52,0,40
2,note_on,57,87,0
2,note_on,57,0,60
2,note_on,57,67,180
2,note_on,57,0,60
2,note_on,57,67,180
2,note_on,57,0,60
2,note_on,57,67,180
2,note_on,57,0,60
2,note_on,40,61,60
2,note_on,40,0,40
2,note_on,44,66,0
2,note_on,44,0,40
2,note_on,47,72,0
2,note_on,47,0,40
2,note_on,52,87,0
2,note_on,52,0,120
2,note_on,52,66,120
2,note_on,52,0,120
2,note_on,52,66,120
2,note_on,52,0,120
2,note_on,52,66,120
2,note_on,52,0,120
2,note_on,45,61,0
2,note_on,45,0,40
2,note_on,49,66,0
2,note_on,49,0,40
2,note_on,52,72,0
2,note_on,52,0,40
2,note_on,57,87,0
2,note_on,57,0,120
2,note_on,57,68,120
2,note_on,57,0,120
2,note_on,57,68,120
2,note_on,57,0,120
2,note_on,57,68,120
2,note_on,57,0,120
2,note_on,45,61,0
2,note_on,45,0,40
2,note_on,49,66,0
2,note_on,49,0,40
2,note_on,52,72,0
2,note_on,52,0,40
2,note_on,57,87,0
2,note_on,57,0,120
2,note_on,57,66,120
2,note_on,57,0,120
2,note_on,57,66,120
2,note_on,57,0,120
2,note_on,57,66,120
2,note_on,57,0,120
2,note_on,45,61,0
2,note_on,45,0,40
2,note_on,49,66,0
2,note_on,49,0,40
2,note_on,52,72,0
2,note_on,52,0,40
2,note_on,57,87,0
2,note_on,57,0,120
2,note_on,57,66,120
2,note_on,57,0,120
2,note_on,57,66,120
2,note_on,57,0,120
2,note_on,57,66,120
2,note_on,57,0,120
2,note_on,38,61,0
2,note_on,38,0,40
2,note_on,42,66,0
2,note_on,42,0,40
2,note_on,45,72,0
2,note_on,45,0,40
2,note_on,50,87,0
2,note_on,50,0,120
2,note_on,50,66,120
2,note_on,50,0,120
2,note_on,50,66,120
2,note_on,50,0,120
2,note_on,50,66,113
2,note_on,50,0,120
2,note_on,45,61,7
2,note_on,45,0,40
2,note_on,49,66,0
2,note_on,49,0,40
2,note_on,52,72,0
2,note_on,52,0,40
2,note_on,57,87,0
2,note_on,57,0,120
2,note_on,57,66,120
2,note_on,57,0,120
2,note_on,57,66,120
2,note_on,57,0,120
2,note_on,57,66,120
2,note_on,57,0,120
2,note_on,40,61,0
2,note_on,40,0,40
2,note_on,44,66,0
2,note_on,44,0,40
2,note_on,47,72,0
2,note_on,47,0,40
2,note_on,52,87,0
2,note_on,52,0,60
2,note_on,52,66,180
2,note_on,52,0,60
2,note_on,52,65,180
2,note_on,52,0,60
2,note_on,52,65,180
2,note_on,52,0,60
2,note_on,57,64,180
2,note_on,57,0,120
2,note_on,64,54,0
2,note_on,64,0,120
2,note_on,61,54,0
2,note_on,61,0,120
2,note_on,64,54,0
2,note_on,64,0,120
2,note_on,57,40,0
2,note_on,57,0,120
2,note_on,64,31,0
2,note_on,64,0,120
2,note_on,61,31,0
2,note_on,61,0,120
2,note_on,64,31,0
2,note_on,64,0,120
2,note_on,57,40,0
2,note_on,57,0,120
2,note_on,64,31,0
2,note_on,64,0,120
2,note_on,61,31,0
2,note_on,61,0,120
2,note_on,64,31,0
2,note_on,64,0,120
2,note_on,57,40,0
2,note_on,57,0,120
2,note_on,64,31,0
2,note_on,64,0,120
2,note_on,61,31,0
2,note_on,61,0,120
2,note_on,64,31,0
2,note_on,64,0,120
2,note_on,57,40,0
2,note_on,57,0,120
2,note_on,64,31,0
2,note_on,64,0,120
2,note_on,61,31,0
2,note_on,61,0,120
2,note_on,64,31,0
2,note_on,64,0,120
2,note_on,57,40,0
2,note_on,57,0,120
2,note_on,64,31,0
2,note_on,64,0,120
2,note_on,61,31,0
2,note_on,61,0,120
2,note_on,64,31,0
2,note_on,64,0,120
2,note_on,57,40,0
2,note_on,57,0,120
2,note_on,64,31,0
2,note_on,64,0,120
2,note_on,61,31,0
2,note_on,61,0,120
2,note_on,64,31,0
2,note_on,64,0,120
2,note_on,57,40,0
2,note_on,57,0,120
2,note_on,64,31,0
2,note_on,64,0,120
2,note_on,61,31,0
2,note_on,61,0,120
2,note_on,64,31,0
2,note_on,64,0,120
2,note_on,57,40,0
2,note_on,57,0,120
2,note_on,66,31,0
2,note_on,66,0,120
2,note_on,62,31,0
2,note_on,62,0,120
2,note_on,66,31,0
2,note_on,66,0,120
2,note_on,57,40,0
2,note_on,57,0,120
2,note_on,66,31,0
2,note_on,66,0,120
2,note_on,62,31,0
2,note_on,62,0,120
2,note_on,66,31,0
2,note_on,66,0,120
2,note_on,57,40,0
2,note_on,57,0,120
2,note_on,64,31,0
2,note_on,64,0,120
2,note_on,61,31,0
2,note_on,61,0,120
2,note_on,64,31,0
2,note_on,64,0,120
2,note_on,57,40,0
2,note_on,57,0,120
2,note_on,64,31,0
2,note_on,64,0,120
2,note_on,61,31,0
2,note_on,61,0,120
2,note_on,64,31,0
2,note_on,64,0,120
2,note_on,52,40,0
2,note_on,52,0,120
2,note_on,64,31,0
2,note_on,64,0,120
2,note_on,59,31,0
2,note_on,59,0,120
2,note_on,64,31,0
2,note_on,64,0,120
2,note_on,52,40,0
2,note_on,52,0,120
2,note_on,64,31,0
2,note_on,64,0,120
2,note_on,59,31,0
2,note_on,59,0,120
2,note_on,64,31,0
2,note_on,64,0,60
2,note_on,45,61,0
2,note_on,45,0,20
2,note_on,49,61,0
2,note_on,49,0,20
2,note_on,52,61,0
2,note_on,52,0,20
2,note_on,57,87,0
2,note_on,57,0,120
2,note_on,57,67,120
2,note_on,57,0,120
2,note_on,57,67,120
2,note_on,57,0,120
2,note_on,57,64,120
2,note_on,57,0,120
2,note_on,45,61,0
2,note_on,45,0,40
2,note_on,49,66,0
2,note_on,49,0,40
2,note_on,52,72,0
2,note_on,52,0,40
2,note_on,57,87,0
2,note_on,57,0,120
2,note_on,57,66,120
2,note_on,57,0,120
2,note_on,57,66,120
2,note_on,57,0,120
2,note_on,57,66,120
2,note_on,57,0,120
2,note_on,45,61,0
2,note_on,45,0,40
2,note_on,49,66,0
2,note_on,49,0,40
2,note_on,52,72,0
2,note_on,52,0,40
2,note_on,57,87,0
2,note_on,57,0,120
2,note_on,57,67,120
2,note_on,57,0,120
2,note_on,57,67,120
2,note_on,57,0,120
2,note_on,57,67,120
2,note_on,57,0,120
2,note_on,38,61,0
2,note_on,38,0,40
2,note_on,42,66,0
2,note_on,42,0,40
2,note_on,45,72,0
2,note_on,45,0,40
2,note_on,50,87,0
2,note_on,50,0,120
2,note_on,50,68,120
2,note_on,50,0,120
2,note_on,50,68,120
2,note_on,50,0,120
2,note_on,50,68,113
2,note_on,50,0,120
2,note_on,45,61,7
2,note_on,45,0,40
2,note_on,49,66,0
2,note_on,49,0,40
2,note_on,52,72,0
2,note_on,52,0,40
2,note_on,57,87,0
2,note_on,57,0,120
2,note_on,57,67,120
2,note_on,57,0,120
2,note_on,57,67,120
2,note_on,57,0,120
2,note_on,57,67,120
2,note_on,57,0,120
2,note_on,40,61,0
2,note_on,40,0,40
2,note_on,44,66,0
2,note_on,44,0,40
2,note_on,47,72,0
2,note_on,47,0,40
2,note_on,52,87,0
2,note_on,52,0,60
2,note_on,52,67,180
2,note_on,52,0,60
2,note_on,52,67,180
2,note_on,52,0,60
2,note_on,52,67,180
2,note_on,52,0,60
2,note_on,45,61,60
2,note_on,45,0,40
2,note_on,49,66,0
2,note_on,49,0,40
2,note_on,52,72,0
2,note_on,52,0,40
2,note_on,57,87,0
2,note_on,57,0,120
2,note_on,57,67,120
2,note_on,57,0,120
2,note_on,57,67,120
2,note_on,57,0,120
2,note_on,57,67,120
2,note_on,57,0,120
2,note_on,45,61,0
2,note_on,45,0,40
2,note_on,49,66,0
2,note_on,49,0,40
2,note_on,52,72,0
2,note_on,52,0,40
2,note_on,57,87,0
2,note_on,57,0,120
2,note_on,57,66,120
2,note_on,57,0,120
2,note_on,57,66,120
2,note_on,57,0,120
2,note_on,57,66,120
2,note_on,57,0,120
2,note_on,45,61,0
2,note_on,45,0,40
2,note_on,49,66,0
2,note_on,49,0,40
2,note_on,52,72,0
2,note_on,52,0,40
2,note_on,57,87,0
2,note_on,57,0,120
2,note_on,57,67,120
2,note_on,57,0,120
2,note_on,57,67,120
2,note_on,57,0,120
2,note_on,57,67,120
2,note_on,57,0,120
2,note_on,45,61,0
2,note_on,45,0,40
2,note_on,49,66,0
2,note_on,49,0,40
2,note_on,52,72,0
2,note_on,52,0,40
2,note_on,57,95,0
2,note_on,57,0,120
2,note_on,57,70,120
2,note_on,57,0,120
2,note_on,45,67,0
2,note_on,45,0,40
2,note_on,49,72,0
2,note_on,49,0,40
2,note_on,52,79,0
2,note_on,52,0,40
2,note_on,57,95,0
2,note_on,57,0,120
2,note_on,57,70,120
2,note_on,57,0,120
2,note_on,45,88,120
2,note_on,45,0,480
2,note_on,57,88,0
2,note_on,57,0,480
2,note_on,45,74,0
2,note_on,49,74,0
2,note_on,52,74,0
2,note_on,57,88,0
2,note_on,57,0,480
2,note_on,45,0,0
2,note_on,49,0,0
2,note_on,52,0,0
