Track,Message Type,Note,Velocity,Time
1,note_on,84,66,120
1,note_on,83,68,120
1,note_on,84,0,12
1,note_on,84,69,108
1,note_on,83,0,12
1,note_on,89,70,108
1,note_on,84,0,12
1,note_on,84,63,108
1,note_on,89,0,12
1,note_on,82,70,108
1,note_on,84,0,12
1,note_on,81,66,108
1,note_on,82,0,12
1,note_on,80,64,108
1,note_on,81,0,12
1,note_on,81,64,108
1,note_on,80,0,12
1,note_on,84,70,108
1,note_on,81,0,12
1,note_on,81,64,108
1,note_on,84,0,12
1,note_on,79,70,108
1,note_on,81,0,12
1,note_on,77,64,108
1,note_on,79,0,12
1,note_on,76,64,108
1,note_on,77,0,12
1,note_on,77,64,108
1,note_on,76,0,12
1,note_on,81,70,108
1,note_on,77,0,12
1,note_on,77,65,108
1,note_on,81,0,12
1,note_on,74,70,108
1,note_on,77,0,12
1,note_on,72,65,108
1,note_on,74,0,12
1,note_on,71,65,108
1,note_on,72,0,12
1,note_on,72,65,108
1,note_on,71,0,12
1,note_on,77,70,108
1,note_on,72,0,12
1,note_on,72,65,108
1,note_on,77,0,12
1,note_on,70,70,108
1,note_on,72,0,12
1,note_on,69,66,108
1,note_on,70,0,12
1,note_on,68,66,108
1,note_on,69,0,12
1,note_on,69,66,108
1,note_on,68,0,12
1,note_on,72,70,108
1,note_on,69,0,12
1,note_on,69,64,108
1,note_on,72,0,12
1,note_on,65,70,108
1,note_on,69,0,12
1,note_on,65,0,108
1,note_on,77,64,0
1,note_on,77,0,120
1,note_on,64,70,0
1,note_on,64,0,120
1,note_on,77,64,0
1,note_on,77,0,120
1,note_on,65,70,0
1,note_on,65,0,120
1,note_on,77,64,0
1,note_on,77,0,120
1,note_on,67,70,0
1,note_on,67,0,120
1,note_on,77,64,0
1,note_on,77,0,120
1,note_on,65,65,0
1,note_on,65,0,120
1,note_on,77,58,0
1,note_on,77,0,120
1,note_on,67,67,0
1,note_on,67,0,120
1,note_on,77,61,0
1,note_on,77,0,120
1,note_on,69,70,0
1,note_on,69,0,120
1,note_on,77,60,0
1,note_on,77,0,120
1,note_on,67,66,0
1,note_on,67,0,120
1,note_on,77,62,0
1,note_on,77,0,120
1,note_on,69,67,0
1,note_on,69,0,120
1,note_on,77,62,0
1,note_on,77,0,120
1,note_on,70,74,0
1,note_on,70,0,120
1,note_on,77,61,0
1,note_on,77,0,120
1,note_on,70,65,0
1,note_on,70,0,120
1,note_on,77,61,0
1,note_on,77,0,120
1,note_on,69,65,0
1,note_on,69,0,120
1,note_on,77,60,0
1,note_on,77,0,120
1,note_on,70,70,0
1,note_on,70,0,120
1,note_on,77,60,0
1,note_on,77,0,120
1,note_on,70,65,0
1,note_on,70,0,120
1,note_on,77,60,0
1,note_on,77,0,120
1,note_on,69,65,0
1,note_on,69,0,120
1,note_on,77,54,0
1,note_on,77,0,120
1,note_on,68,49,0
1,note_on,68,0,120
1,note_on,77,41,0
1,note_on,77,0,120
1,note_on,68,49,0
1,note_on,68,0,120
1,note_on,77,42,0
1,note_on,77,0,120
1,note_on,68,49,0
1,note_on,68,0,120
1,note_on,77,40,0
1,note_on,77,0,120
1,note_on,67,48,0
1,note_on,76,48,0
1,note_on,76,0,240
1,note_on,67,0,0
1,note_on,84,66,120
1,note_on,83,68,120
1,note_on,84,0,12
1,note_on,84,69,108
1,note_on,83,0,12
1,note_on,89,70,108
1,note_on,84,0,12
1,note_on,84,63,108
1,note_on,89,0,12
1,note_on,82,70,108
1,note_on,84,0,12
1,note_on,81,66,108
1,note_on,82,0,12
1,note_on,80,64,108
1,note_on,81,0,12
1,note_on,81,64,108
1,note_on,80,0,12
1,note_on,84,70,108
1,note_on,81,0,12
1,note_on,81,64,108
1,note_on,84,0,12
1,note_on,79,70,108
1,note_on,81,0,12
1,note_on,77,64,108
1,note_on,79,0,12
1,note_on,76,64,108
1,note_on,77,0,12
1,note_on,77,64,108
1,note_on,76,0,12
1,note_on,81,70,108
1,note_on,77,0,12
1,note_on,77,65,108
1,note_on,81,0,12
1,note_on,74,70,108
1,note_on,77,0,12
1,note_on,72,65,108
1,note_on,74,0,12
1,note_on,71,65,108
1,note_on,72,0,12
1,note_on,72,65,108
1,note_on,71,0,12
1,note_on,77,70,108
1,note_on,72,0,12
1,note_on,72,65,108
1,note_on,77,0,12
1,note_on,70,70,108
1,note_on,72,0,12
1,note_on,69,66,108
1,note_on,70,0,12
1,note_on,68,66,108
1,note_on,69,0,12
1,note_on,69,66,108
1,note_on,68,0,12
1,note_on,72,70,108
1,note_on,69,0,12
1,note_on,69,64,108
1,note_on,72,0,12
1,note_on,65,70,108
1,note_on,69,0,12
1,note_on,65,0,108
1,note_on,77,64,0
1,note_on,77,0,120
1,note_on,64,70,0
1,note_on,64,0,120
1,note_on,77,64,0
1,note_on,77,0,120
1,note_on,65,70,0
1,note_on,65,0,120
1,note_on,77,64,0
1,note_on,77,0,120
1,note_on,67,70,0
1,note_on,67,0,120
1,note_on,77,64,0
1,note_on,77,0,120
1,note_on,65,65,0
1,note_on,65,0,120
1,note_on,77,58,0
1,note_on,77,0,120
1,note_on,67,67,0
1,note_on,67,0,120
1,note_on,77,61,0
1,note_on,77,0,120
1,note_on,69,70,0
1,note_on,69,0,120
1,note_on,77,60,0
1,note_on,77,0,120
1,note_on,67,66,0
1,note_on,67,0,120
1,note_on,77,62,0
1,note_on,77,0,120
1,note_on,69,67,0
1,note_on,69,0,120
1,note_on,77,62,0
1,note_on,77,0,120
1,note_on,70,74,0
1,note_on,70,0,120
1,note_on,77,61,0
1,note_on,77,0,120
1,note_on,70,65,0
1,note_on,70,0,120
1,note_on,77,61,0
1,note_on,77,0,120
1,note_on,69,65,0
1,note_on,69,0,120
1,note_on,77,60,0
1,note_on,77,0,120
1,note_on,70,70,0
1,note_on,70,0,120
1,note_on,77,60,0
1,note_on,77,0,120
1,note_on,70,65,0
1,note_on,70,0,120
1,note_on,77,60,0
1,note_on,77,0,120
1,note_on,69,65,0
1,note_on,69,0,120
1,note_on,77,46,0
1,note_on,77,0,120
1,note_on,68,42,0
1,note_on,68,0,120
1,note_on,77,37,0
1,note_on,77,0,120
1,note_on,67,42,480
1,note_on,67,0,120
1,note_on,76,36,0
1,note_on,76,0,120
1,note_on,66,42,480
1,note_on,66,0,120
1,note_on,75,35,0
1,note_on,75,0,120
1,note_on,62,58,720
1,note_on,62,0,120
1,note_on,67,59,0
1,note_on,67,0,120
1,note_on,70,60,0
1,note_on,70,0,120
1,note_on,74,61,0
1,note_on,74,0,120
1,note_on,72,62,0
1,note_on,70,62,120
1,note_on,72,0,12
1,note_on,69,60,108
1,note_on,70,0,12
1,note_on,67,59,108
1,note_on,69,0,12
1,note_on,65,57,108
1,note_on,67,0,12
1,note_on,64,55,108
1,note_on,65,0,12
1,note_on,65,58,108
1,note_on,64,0,12
1,note_on,65,0,108
1,note_on,60,49,120
1,note_on,60,0,240
1,note_on,60,49,0
1,note_on,60,0,180
1,note_on,64,41,0
1,note_on,64,0,60
1,note_on,70,49,0
1,note_on,70,0,960
1,note_on,69,43,0
1,note_on,69,0,120
1,note_on,67,43,120
1,note_on,67,0,120
1,note_on,67,49,120
1,note_on,67,0,240
1,note_on,65,45,0
1,note_on,65,0,480
1,note_on,65,45,0
1,note_on,65,0,660
1,note_on,64,41,0
1,note_on,64,0,60
1,note_on,70,49,0
1,note_on,70,0,960
1,note_on,69,43,0
1,note_on,69,0,120
1,note_on,67,43,120
1,note_on,67,0,120
1,note_on,71,51,120
1,note_on,71,0,720
1,note_on,72,45,0
1,note_on,72,0,240
1,note_on,64,41,420
1,note_on,64,0,60
1,note_on,70,49,0
1,note_on,70,0,960
1,note_on,69,43,0
1,note_on,69,0,120
1,note_on,67,43,120
1,note_on,67,0,120
1,note_on,65,54,120
1,note_on,65,0,480
1,note_on,69,60,0
1,note_on,69,0,720
1,note_on,72,60,0
1,note_on,72,0,720
1,note_on,70,58,0
1,note_on,70,0,720
1,note_on,67,50,0
1,note_on,67,0,240
1,note_on,65,56,0
1,note_on,65,0,240
1,note_on,57,71,240
1,note_on,57,0,240
1,note_on,58,78,0
1,note_on,58,0,120
1,note_on,67,73,120
1,note_on,67,0,120
1,note_on,59,72,120
1,note_on,59,0,120
1,note_on,60,78,120
1,note_on,60,0,120
1,note_on,69,73,120
1,note_on,69,0,120
1,note_on,61,73,120
1,note_on,61,0,120
1,note_on,62,78,120
1,note_on,62,0,120
1,note_on,70,72,120
1,note_on,70,0,120
1,note_on,64,72,120
1,note_on,64,0,120
1,note_on,82,68,120
1,note_on,82,0,960
1,note_on,81,62,0
1,note_on,81,0,120
1,note_on,79,61,0
1,note_on,79,0,120
1,note_on,77,59,0
1,note_on,77,0,120
1,note_on,76,57,0
1,note_on,76,0,120
1,note_on,77,56,0
1,note_on,77,0,120
1,note_on,79,49,120
1,note_on,79,0,120
1,note_on,81,54,120
1,note_on,81,0,120
1,note_on,69,46,120
1,note_on,72,46,0
1,note_on,72,0,480
1,note_on,69,0,0
1,note_on,70,40,0
1,note_on,67,40,0
1,note_on,67,0,240
1,note_on,70,0,0
1,note_on,70,46,0
1,note_on,67,46,0
1,note_on,67,0,720
1,note_on,70,0,0
1,note_on,65,41,0
1,note_on,69,41,0
1,note_on,69,0,240
1,note_on,65,0,0
1,note_on,57,71,960
1,note_on,57,0,240
1,note_on,58,78,0
1,note_on,58,0,120
1,note_on,67,73,120
1,note_on,67,0,120
1,note_on,59,72,120
1,note_on,59,0,120
1,note_on,60,78,120
1,note_on,60,0,120
1,note_on,69,73,120
1,note_on,69,0,120
1,note_on,61,73,120
1,note_on,61,0,120
1,note_on,62,78,120
1,note_on,62,0,120
1,note_on,70,72,120
1,note_on,70,0,120
1,note_on,64,72,120
1,note_on,64,0,120
1,note_on,82,68,120
1,note_on,82,0,960
1,note_on,81,62,0
1,note_on,81,0,120
1,note_on,79,61,0
1,note_on,79,0,120
1,note_on,77,59,0
1,note_on,77,0,120
1,note_on,76,57,0
1,note_on,76,0,120
1,note_on,77,56,0
1,note_on,77,0,60
1,note_on,79,49,0
1,note_on,79,0,60
1,note_on,81,49,0
1,note_on,81,0,60
1,note_on,74,47,540
1,note_on,74,0,60
1,note_on,76,41,0
1,note_on,76,0,60
1,note_on,77,41,0
1,note_on,77,0,60
1,note_on,65,44,540
1,note_on,65,0,600
1,note_on,69,39,0
1,note_on,69,0,120
1,note_on,67,44,0
1,note_on,64,36,0
1,note_on,64,0,480
1,note_on,67,0,0
1,note_on,65,41,0
1,note_on,65,0,240
1,note_on,65,41,0
1,note_on,69,39,480
1,note_on,69,0,240
1,note_on,65,0,0
1,note_on,72,44,0
1,note_on,64,37,0
1,note_on,72,0,240
1,note_on,70,39,0
1,note_on,70,0,240
1,note_on,67,39,0
1,note_on,67,0,240
1,note_on,64,0,0
1,note_on,65,44,0
1,note_on,60,40,240
1,note_on,60,0,237
1,note_on,69,40,3
1,note_on,69,0,240
1,note_on,65,0,0
1,note_on,72,44,0
1,note_on,64,37,0
1,note_on,72,0,240
1,note_on,70,40,0
1,note_on,70,0,240
1,note_on,67,40,0
1,note_on,67,0,240
1,note_on,64,0,0
1,note_on,65,44,0
1,note_on,65,0,240
1,note_on,60,41,0
1,note_on,60,0,237
1,note_on,69,41,3
1,note_on,69,0,240
1,note_on,65,44,0
1,note_on,65,0,240
1,note_on,60,40,0
1,note_on,60,0,236
1,note_on,69,40,4
1,note_on,69,0,240
1,note_on,58,36,0
1,note_on,67,42,0
1,note_on,67,0,720
1,note_on,58,0,0
1,note_on,65,36,0
1,note_on,57,31,0
1,note_on,57,0,240
1,note_on,65,0,0
1,note_on,69,68,480
1,note_on,81,80,0
1,note_on,81,0,720
1,note_on,69,0,0
1,note_on,79,77,0
1,note_on,69,65,0
1,note_on,69,0,720
1,note_on,79,0,0
1,note_on,77,78,0
1,note_on,69,66,0
1,note_on,69,0,720
1,note_on,77,0,0
1,note_on,69,65,0
1,note_on,76,76,0
1,note_on,76,0,720
1,note_on,69,0,0
1,note_on,69,67,0
1,note_on,74,79,0
1,note_on,74,0,720
1,note_on,69,0,0
1,note_on,67,65,0
1,note_on,73,76,0
1,note_on,69,65,0
1,note_on,69,0,720
1,note_on,73,0,0
1,note_on,67,0,0
1,note_on,74,65,0
1,note_on,74,0,120
1,note_on,69,54,0
1,note_on,69,0,120
1,note_on,65,54,0
1,note_on,65,0,120
1,note_on,69,54,0
1,note_on,69,0,120
1,note_on,74,65,0
1,note_on,74,0,120
1,note_on,69,54,0
1,note_on,69,0,120
1,note_on,76,65,0
1,note_on,76,0,120
1,note_on,69,54,0
1,note_on,69,0,120
1,note_on,67,54,0
1,note_on,67,0,120
1,note_on,69,54,0
1,note_on,69,0,120
1,note_on,76,65,0
1,note_on,76,0,120
1,note_on,69,55,0
1,note_on,69,0,120
1,note_on,77,65,0
1,note_on,77,0,120
1,note_on,74,55,0
1,note_on,74,0,120
1,note_on,69,55,0
1,note_on,69,0,120
1,note_on,74,55,0
1,note_on,74,0,120
1,note_on,77,65,0
1,note_on,77,0,120
1,note_on,74,55,0
1,note_on,74,0,120
1,note_on,78,65,0
1,note_on,78,0,120
1,note_on,74,55,0
1,note_on,74,0,120
1,note_on,69,55,0
1,note_on,69,0,120
1,note_on,74,55,0
1,note_on,74,0,120
1,note_on,78,65,0
1,note_on,78,0,120
1,note_on,74,56,0
1,note_on,74,0,120
1,note_on,79,65,0
1,note_on,79,0,480
1,note_on,81,59,0
1,note_on,81,0,120
1,note_on,79,59,0
1,note_on,79,0,120
1,note_on,77,65,0
1,note_on,77,0,480
1,note_on,79,57,0
1,note_on,79,0,120
1,note_on,77,57,0
1,note_on,77,0,120
1,note_on,76,65,0
1,note_on,76,0,480
1,note_on,77,57,0
1,note_on,77,0,120
1,note_on,76,57,0
1,note_on,76,0,120
1,note_on,74,65,0
1,note_on,74,0,480
1,note_on,76,59,0
1,note_on,76,0,120
1,note_on,74,59,0
1,note_on,74,0,120
1,note_on,72,65,0
1,note_on,72,0,480
1,note_on,74,59,0
1,note_on,74,0,120
1,note_on,72,59,0
1,note_on,72,0,120
1,note_on,71,65,0
1,note_on,71,0,480
1,note_on,72,56,0
1,note_on,72,0,120
1,note_on,71,56,0
1,note_on,71,0,120
1,note_on,74,62,0
1,note_on,72,54,120
1,note_on,74,0,12
1,note_on,71,54,108
1,note_on,72,0,12
1,note_on,72,54,108
1,note_on,71,0,12
1,note_on,71,53,108
1,note_on,72,0,12
1,note_on,72,55,108
1,note_on,71,0,12
1,note_on,76,59,108
1,note_on,72,0,12
1,note_on,74,55,108
1,note_on,76,0,12
1,note_on,73,55,108
1,note_on,74,0,12
1,note_on,74,55,108
1,note_on,73,0,12
1,note_on,73,55,108
1,note_on,74,0,12
1,note_on,74,55,108
1,note_on,73,0,12
1,note_on,76,59,108
1,note_on,74,0,12
1,note_on,74,54,108
1,note_on,76,0,12
1,note_on,72,54,108
1,note_on,74,0,12
1,note_on,74,54,108
1,note_on,72,0,12
1,note_on,76,54,108
1,note_on,74,0,12
1,note_on,77,54,108
1,note_on,76,0,12
1,note_on,79,59,108
1,note_on,77,0,12
1,note_on,77,55,108
1,note_on,79,0,12
1,note_on,76,55,108
1,note_on,77,0,12
1,note_on,77,55,108
1,note_on,76,0,12
1,note_on,79,55,108
1,note_on,77,0,12
1,note_on,80,55,108
1,note_on,79,0,12
1,note_on,81,59,108
1,note_on,80,0,12
1,note_on,81,0,108
1,note_on,82,55,0
1,note_on,81,55,120
1,note_on,82,0,12
1,note_on,79,55,108
1,note_on,81,0,12
1,note_on,77,55,108
1,note_on,79,0,12
1,note_on,76,54,108
1,note_on,77,0,12
1,note_on,74,59,108
1,note_on,76,0,12
1,note_on,74,0,108
1,note_on,85,54,0
1,note_on,86,63,120
1,note_on,85,0,12
1,note_on,84,62,108
1,note_on,86,0,12
1,note_on,83,60,108
1,note_on,84,0,12
1,note_on,81,59,108
1,note_on,83,0,12
1,note_on,79,59,108
1,note_on,81,0,12
1,note_on,79,0,108
1,note_on,81,60,0
1,note_on,81,0,120
1,note_on,79,60,0
1,note_on,79,0,120
1,note_on,77,60,0
1,note_on,77,0,120
1,note_on,76,60,0
1,note_on,76,0,120
1,note_on,74,59,0
1,note_on,74,0,120
1,note_on,72,59,0
1,note_on,72,0,120
1,note_on,83,56,0
1,note_on,84,63,120
1,note_on,83,0,12
1,note_on,83,62,108
1,note_on,84,0,12
1,note_on,81,60,108
1,note_on,83,0,12
1,note_on,79,59,108
1,note_on,81,0,12
1,note_on,77,56,108
1,note_on,79,0,12
1,note_on,77,0,108
1,note_on,85,61,0
1,note_on,85,0,120
1,note_on,86,68,0
1,note_on,86,0,120
1,note_on,83,63,0
1,note_on,83,0,120
1,note_on,79,63,0
1,note_on,79,0,120
1,note_on,77,63,0
1,note_on,77,0,120
1,note_on,76,60,0
1,note_on,76,0,120
1,note_on,83,53,0
1,note_on,84,59,120
1,note_on,83,0,12
1,note_on,79,54,108
1,note_on,84,0,12
1,note_on,77,54,108
1,note_on,79,0,12
1,note_on,76,54,108
1,note_on,77,0,12
1,note_on,74,59,108
1,note_on,76,0,12
1,note_on,74,0,108
1,note_on,76,58,0
1,note_on,74,62,120
1,note_on,76,0,12
1,note_on,72,61,108
1,note_on,74,0,12
1,note_on,71,60,108
1,note_on,72,0,12
1,note_on,69,59,108
1,note_on,71,0,12
1,note_on,67,57,108
1,note_on,69,0,12
1,note_on,67,0,120
1,note_on,75,49,588
1,note_on,75,0,960
1,note_on,74,43,0
1,note_on,74,0,120
1,note_on,72,43,120
1,note_on,72,0,120
1,note_on,78,49,120
1,note_on,78,0,480
1,note_on,79,43,0
1,note_on,79,0,240
1,note_on,74,43,0
1,note_on,74,0,480
1,note_on,80,58,240
1,note_on,80,0,960
1,note_on,79,49,0
1,note_on,79,0,120
1,note_on,77,49,120
1,note_on,77,0,120
1,note_on,75,60,120
1,note_on,75,0,240
1,note_on,77,42,0
1,note_on,77,0,80
1,note_on,75,42,0
1,note_on,75,0,80
1,note_on,74,42,0
1,note_on,74,0,80
1,note_on,75,51,0
1,note_on,75,0,120
1,note_on,77,44,0
1,note_on,77,0,120
1,note_on,79,51,0
1,note_on,79,0,480
1,note_on,84,66,240
1,note_on,84,0,720
1,note_on,82,54,0
1,note_on,82,0,480
1,note_on,84,50,0
1,note_on,84,0,240
1,note_on,82,57,0
1,note_on,82,0,480
1,note_on,80,52,0
1,note_on,80,0,240
1,note_on,79,55,0
1,note_on,79,0,720
1,note_on,77,59,0
1,note_on,77,0,480
1,note_on,75,53,0
1,note_on,75,0,240
1,note_on,74,57,0
1,note_on,74,0,480
1,note_on,72,47,0
1,note_on,72,0,240
1,note_on,75,53,0
1,note_on,75,0,720
1,note_on,74,45,0
1,note_on,74,0,240
1,note_on,75,49,480
1,note_on,75,0,960
1,note_on,74,43,0
1,note_on,74,0,120
1,note_on,72,43,120
1,note_on,72,0,120
1,note_on,78,49,120
1,note_on,78,0,480
1,note_on,79,43,0
1,note_on,79,0,240
1,note_on,74,43,0
1,note_on,74,0,480
1,note_on,80,58,240
1,note_on,80,0,960
1,note_on,79,49,0
1,note_on,79,0,120
1,note_on,77,49,120
1,note_on,77,0,120
1,note_on,76,60,120
1,note_on,76,0,240
1,note_on,77,51,240
1,note_on,77,0,120
1,note_on,79,44,0
1,note_on,79,0,120
1,note_on,77,51,0
1,note_on,77,0,480
1,note_on,87,71,240
1,note_on,87,0,720
1,note_on,86,58,240
1,note_on,86,0,120
1,note_on,84,58,120
1,note_on,84,0,120
1,note_on,83,66,120
1,note_on,83,0,720
1,note_on,84,68,0
1,note_on,84,0,480
1,note_on,80,46,0
1,note_on,80,0,240
1,note_on,72,55,0
1,note_on,72,0,660
1,note_on,75,40,0
1,note_on,75,0,60
1,note_on,74,51,0
1,note_on,71,51,0
1,note_on,71,0,720
1,note_on,74,0,0
1,note_on,72,74,0
1,note_on,72,0,120
1,note_on,79,62,0
1,note_on,79,0,120
1,note_on,78,62,0
1,note_on,78,0,120
1,note_on,79,62,0
1,note_on,79,0,120
1,note_on,81,69,0
1,note_on,81,0,120
1,note_on,79,62,0
1,note_on,79,0,120
1,note_on,77,65,0
1,note_on,77,0,120
1,note_on,79,60,0
1,note_on,79,0,120
1,note_on,77,65,0
1,note_on,77,0,120
1,note_on,79,59,0
1,note_on,79,0,120
1,note_on,77,65,0
1,note_on,77,0,120
1,note_on,79,59,0
1,note_on,79,0,120
1,note_on,76,74,0
1,note_on,76,0,120
1,note_on,79,62,0
1,note_on,79,0,120
1,note_on,78,62,0
1,note_on,78,0,120
1,note_on,79,62,0
1,note_on,79,0,120
1,note_on,84,74,0
1,note_on,84,0,120
1,note_on,79,62,0
1,note_on,79,0,120
1,note_on,77,65,0
1,note_on,77,0,120
1,note_on,79,60,0
1,note_on,79,0,120
1,note_on,77,65,0
1,note_on,77,0,120
1,note_on,79,59,0
1,note_on,79,0,120
1,note_on,77,65,0
1,note_on,77,0,120
1,note_on,79,59,0
1,note_on,79,0,120
1,note_on,76,74,0
1,note_on,76,0,120
1,note_on,79,62,0
1,note_on,79,0,120
1,note_on,78,62,0
1,note_on,78,0,120
1,note_on,79,62,0
1,note_on,79,0,120
1,note_on,84,72,0
1,note_on,84,0,120
1,note_on,79,62,0
1,note_on,79,0,120
1,note_on,77,65,0
1,note_on,77,0,120
1,note_on,79,60,0
1,note_on,79,0,120
1,note_on,77,65,0
1,note_on,77,0,120
1,note_on,79,59,0
1,note_on,79,0,120
1,note_on,77,65,0
1,note_on,77,0,120
1,note_on,79,59,0
1,note_on,79,0,120
1,note_on,76,74,0
1,note_on,76,0,120
1,note_on,79,62,0
1,note_on,79,0,120
1,note_on,84,71,0
1,note_on,84,0,120
1,note_on,76,60,0
1,note_on,76,0,120
1,note_on,74,70,0
1,note_on,74,0,120
1,note_on,83,62,0
1,note_on,83,0,120
1,note_on,72,70,0
1,note_on,72,0,120
1,note_on,81,62,0
1,note_on,81,0,120
1,note_on,71,69,0
1,note_on,71,0,120
1,note_on,79,60,0
1,note_on,79,0,120
1,note_on,69,67,0
1,note_on,69,0,120
1,note_on,77,58,0
1,note_on,77,0,120
1,note_on,67,69,0
1,note_on,67,0,120
1,note_on,76,62,0
1,note_on,76,0,120
1,note_on,65,67,0
1,note_on,65,0,120
1,note_on,74,59,0
1,note_on,74,0,120
1,note_on,64,66,0
1,note_on,64,0,120
1,note_on,72,56,0
1,note_on,72,0,120
1,note_on,62,62,0
1,note_on,62,0,120
1,note_on,71,54,0
1,note_on,71,0,120
1,note_on,60,63,0
1,note_on,60,0,120
1,note_on,69,55,0
1,note_on,69,0,120
1,note_on,59,62,0
1,note_on,59,0,120
1,note_on,67,51,0
1,note_on,67,0,120
1,note_on,57,45,0
1,note_on,66,55,0
1,note_on,66,0,720
1,note_on,57,0,0
1,note_on,56,45,0
1,note_on,65,55,0
1,note_on,65,0,720
1,note_on,56,0,0
1,note_on,68,45,0
1,note_on,77,55,0
1,note_on,77,0,720
1,note_on,68,0,0
1,note_on,62,45,0
1,note_on,71,55,0
1,note_on,71,0,720
1,note_on,62,0,0
1,note_on,79,49,240
1,note_on,79,0,120
1,note_on,79,49,120
1,note_on,79,0,120
1,note_on,81,49,360
1,note_on,81,0,120
1,note_on,81,49,120
1,note_on,81,0,120
1,note_on,67,39,120
1,note_on,72,47,0
1,note_on,72,0,660
1,note_on,67,0,0
1,note_on,76,40,0
1,note_on,76,0,60
1,note_on,71,37,0
1,note_on,74,44,0
1,note_on,74,0,720
1,note_on,71,0,0
1,note_on,72,74,0
1,note_on,72,0,120
1,note_on,79,62,0
1,note_on,79,0,120
1,note_on,78,62,0
1,note_on,78,0,120
1,note_on,79,62,0
1,note_on,79,0,120
1,note_on,81,68,0
1,note_on,81,0,120
1,note_on,79,62,0
1,note_on,79,0,120
1,note_on,77,65,0
1,note_on,77,0,120
1,note_on,79,60,0
1,note_on,79,0,120
1,note_on,77,65,0
1,note_on,77,0,120
1,note_on,79,59,0
1,note_on,79,0,120
1,note_on,77,65,0
1,note_on,77,0,120
1,note_on,79,59,0
1,note_on,79,0,120
1,note_on,76,74,0
1,note_on,76,0,120
1,note_on,79,62,0
1,note_on,79,0,120
1,note_on,78,62,0
1,note_on,78,0,120
1,note_on,79,62,0
1,note_on,79,0,120
1,note_on,84,74,0
1,note_on,84,0,120
1,note_on,79,62,0
1,note_on,79,0,120
1,note_on,77,65,0
1,note_on,77,0,120
1,note_on,79,60,0
1,note_on,79,0,120
1,note_on,77,65,0
1,note_on,77,0,120
1,note_on,79,59,0
1,note_on,79,0,120
1,note_on,77,65,0
1,note_on,77,0,120
1,note_on,79,59,0
1,note_on,79,0,120
1,note_on,76,74,0
1,note_on,76,0,120
1,note_on,79,62,0
1,note_on,79,0,120
1,note_on,78,62,0
1,note_on,78,0,120
1,note_on,79,62,0
1,note_on,79,0,120
1,note_on,84,72,0
1,note_on,84,0,120
1,note_on,79,62,0
1,note_on,79,0,120
1,note_on,77,65,0
1,note_on,77,0,120
1,note_on,79,60,0
1,note_on,79,0,120
1,note_on,77,65,0
1,note_on,77,0,120
1,note_on,79,59,0
1,note_on,79,0,120
1,note_on,77,65,0
1,note_on,77,0,120
1,note_on,79,59,0
1,note_on,79,0,120
1,note_on,76,74,0
1,note_on,76,0,120
1,note_on,79,62,0
1,note_on,79,0,120
1,note_on,84,71,0
1,note_on,84,0,120
1,note_on,76,60,0
1,note_on,76,0,120
1,note_on,74,70,0
1,note_on,74,0,120
1,note_on,83,62,0
1,note_on,83,0,120
1,note_on,72,70,0
1,note_on,72,0,120
1,note_on,81,62,0
1,note_on,81,0,120
1,note_on,71,69,0
1,note_on,71,0,120
1,note_on,79,60,0
1,note_on,79,0,120
1,note_on,69,67,0
1,note_on,69,0,120
1,note_on,77,58,0
1,note_on,77,0,120
1,note_on,67,69,0
1,note_on,67,0,120
1,note_on,76,62,0
1,note_on,76,0,120
1,note_on,65,67,0
1,note_on,65,0,120
1,note_on,74,59,0
1,note_on,74,0,120
1,note_on,64,66,0
1,note_on,64,0,120
1,note_on,72,56,0
1,note_on,72,0,120
1,note_on,62,64,0
1,note_on,62,0,120
1,note_on,71,55,0
1,note_on,71,0,120
1,note_on,60,63,0
1,note_on,60,0,120
1,note_on,69,55,0
1,note_on,69,0,120
1,note_on,59,62,0
1,note_on,59,0,120
1,note_on,67,51,0
1,note_on,67,0,120
1,note_on,66,55,0
1,note_on,57,45,0
1,note_on,57,0,720
1,note_on,66,0,0
1,note_on,56,45,0
1,note_on,65,55,0
1,note_on,65,0,720
1,note_on,56,0,0
1,note_on,77,55,0
1,note_on,68,45,0
1,note_on,68,0,720
1,note_on,77,0,0
1,note_on,62,45,0
1,note_on,71,55,0
1,note_on,71,0,720
1,note_on,62,0,0
1,note_on,79,49,240
1,note_on,79,0,120
1,note_on,79,49,120
1,note_on,79,0,120
1,note_on,81,49,360
1,note_on,81,0,120
1,note_on,81,49,120
1,note_on,81,0,120
1,note_on,67,39,120
1,note_on,72,47,0
1,note_on,72,0,720
1,note_on,71,37,0
1,note_on,71,0,720
1,note_on,67,0,0
1,note_on,78,71,0
1,note_on,78,0,120
1,note_on,79,55,0
1,note_on,78,55,120
1,note_on,79,0,12
1,note_on,79,55,108
1,note_on,78,0,12
1,note_on,78,55,108
1,note_on,79,0,12
1,note_on,79,55,108
1,note_on,78,0,12
1,note_on,79,0,108
1,note_on,80,62,0
1,note_on,81,55,120
1,note_on,80,0,12
1,note_on,80,55,108
1,note_on,81,0,12
1,note_on,81,55,108
1,note_on,80,0,12
1,note_on,83,59,108
1,note_on,81,0,12
1,note_on,84,55,108
1,note_on,83,0,12
1,note_on,84,0,108
1,note_on,72,47,0
1,note_on,72,0,660
1,note_on,76,37,0
1,note_on,76,0,60
1,note_on,74,43,0
1,note_on,71,43,0
1,note_on,71,0,480
1,note_on,74,0,120
1,note_on,72,37,0
1,note_on,72,0,115
1,note_on,72,71,5
1,note_on,76,64,120
1,note_on,72,0,12
1,note_on,79,67,108
1,note_on,76,0,12
1,note_on,84,68,108
1,note_on,79,0,12
1,note_on,83,69,108
1,note_on,84,0,12
1,note_on,81,69,108
1,note_on,83,0,12
1,note_on,79,71,108
1,note_on,81,0,12
1,note_on,81,67,108
1,note_on,79,0,12
1,note_on,79,67,108
1,note_on,81,0,12
1,note_on,77,67,108
1,note_on,79,0,12
1,note_on,76,67,108
1,note_on,77,0,12
1,note_on,74,67,108
1,note_on,76,0,12
1,note_on,74,0,108
1,note_on,72,71,0
1,note_on,76,64,120
1,note_on,72,0,12
1,note_on,74,64,108
1,note_on,76,0,12
1,note_on,72,68,108
1,note_on,74,0,12
1,note_on,71,64,108
1,note_on,72,0,12
1,note_on,69,64,108
1,note_on,71,0,12
1,note_on,67,69,108
1,note_on,69,0,12
1,note_on,69,63,108
1,note_on,67,0,12
1,note_on,67,63,108
1,note_on,69,0,12
1,note_on,65,63,108
1,note_on,67,0,12
1,note_on,64,63,108
1,note_on,65,0,12
1,note_on,62,63,108
1,note_on,64,0,12
1,note_on,62,0,108
1,note_on,60,71,0
1,note_on,64,63,120
1,note_on,60,0,12
1,note_on,62,63,108
1,note_on,64,0,12
1,note_on,60,63,108
1,note_on,62,0,12
1,note_on,59,63,108
1,note_on,60,0,12
1,note_on,57,64,108
1,note_on,59,0,12
1,note_on,55,71,108
1,note_on,57,0,12
1,note_on,57,64,108
1,note_on,55,0,12
1,note_on,55,64,108
1,note_on,57,0,12
1,note_on,53,64,108
1,note_on,55,0,12
1,note_on,52,64,108
1,note_on,53,0,12
1,note_on,50,64,108
1,note_on,52,0,12
1,note_on,50,0,108
1,note_on,48,81,0
1,note_on,48,0,120
1,note_on,52,70,120
1,note_on,52,0,120
1,note_on,55,70,120
1,note_on,55,0,120
1,note_on,60,78,120
1,note_on,60,0,120
1,note_on,64,70,120
1,note_on,64,0,120
1,note_on,67,70,120
1,note_on,67,0,120
1,note_on,72,88,120
1,note_on,72,0,240
1,note_on,76,69,480
1,note_on,79,82,0
1,note_on,72,69,0
1,note_on,67,69,0
1,note_on,67,0,480
1,note_on,76,0,0
1,note_on,79,0,0
1,note_on,72,0,0
1,note_on,79,74,240
1,note_on,76,74,0
1,note_on,84,86,0
1,note_on,72,72,0
1,note_on,72,0,480
1,note_on,79,0,0
1,note_on,76,0,0
1,note_on,84,0,0
1,note_on,84,66,120
1,note_on,83,68,120
1,note_on,84,0,12
1,note_on,84,69,108
1,note_on,83,0,12
1,note_on,89,70,108
1,note_on,84,0,12
1,note_on,84,63,108
1,note_on,89,0,12
1,note_on,82,70,108
1,note_on,84,0,12
1,note_on,81,66,108
1,note_on,82,0,12
1,note_on,80,64,108
1,note_on,81,0,12
1,note_on,81,64,108
1,note_on,80,0,12
1,note_on,84,70,108
1,note_on,81,0,12
1,note_on,81,64,108
1,note_on,84,0,12
1,note_on,79,70,108
1,note_on,81,0,12
1,note_on,77,64,108
1,note_on,79,0,12
1,note_on,76,64,108
1,note_on,77,0,12
1,note_on,77,64,108
1,note_on,76,0,12
1,note_on,81,70,108
1,note_on,77,0,12
1,note_on,77,65,108
1,note_on,81,0,12
1,note_on,74,70,108
1,note_on,77,0,12
1,note_on,72,65,108
1,note_on,74,0,12
1,note_on,71,65,108
1,note_on,72,0,12
1,note_on,72,65,108
1,note_on,71,0,12
1,note_on,77,70,108
1,note_on,72,0,12
1,note_on,72,65,108
1,note_on,77,0,12
1,note_on,70,70,108
1,note_on,72,0,12
1,note_on,69,66,108
1,note_on,70,0,12
1,note_on,68,66,108
1,note_on,69,0,12
1,note_on,69,66,108
1,note_on,68,0,12
1,note_on,72,70,108
1,note_on,69,0,12
1,note_on,69,64,108
1,note_on,72,0,12
1,note_on,65,70,108
1,note_on,69,0,12
1,note_on,65,0,108
1,note_on,77,64,0
1,note_on,77,0,120
1,note_on,64,70,0
1,note_on,64,0,120
1,note_on,77,64,0
1,note_on,77,0,120
1,note_on,65,70,0
1,note_on,65,0,120
1,note_on,77,64,0
1,note_on,77,0,120
1,note_on,67,70,0
1,note_on,67,0,120
1,note_on,77,64,0
1,note_on,77,0,120
1,note_on,65,65,0
1,note_on,65,0,120
1,note_on,77,58,0
1,note_on,77,0,120
1,note_on,67,67,0
1,note_on,67,0,120
1,note_on,77,61,0
1,note_on,77,0,120
1,note_on,69,70,0
1,note_on,69,0,120
1,note_on,77,60,0
1,note_on,77,0,120
1,note_on,67,66,0
1,note_on,67,0,120
1,note_on,77,62,0
1,note_on,77,0,120
1,note_on,69,67,0
1,note_on,69,0,120
1,note_on,77,62,0
1,note_on,77,0,120
1,note_on,70,74,0
1,note_on,70,0,120
1,note_on,77,61,0
1,note_on,77,0,120
1,note_on,70,65,0
1,note_on,70,0,120
1,note_on,77,61,0
1,note_on,77,0,120
1,note_on,69,65,0
1,note_on,69,0,120
1,note_on,77,60,0
1,note_on,77,0,120
1,note_on,70,70,0
1,note_on,70,0,120
1,note_on,77,60,0
1,note_on,77,0,120
1,note_on,70,65,0
1,note_on,70,0,120
1,note_on,77,60,0
1,note_on,77,0,120
1,note_on,69,65,0
1,note_on,69,0,120
1,note_on,77,54,0
1,note_on,77,0,120
1,note_on,68,49,0
1,note_on,68,0,120
1,note_on,77,41,0
1,note_on,77,0,120
1,note_on,68,49,0
1,note_on,68,0,120
1,note_on,77,42,0
1,note_on,77,0,120
1,note_on,68,49,0
1,note_on,68,0,120
1,note_on,77,40,0
1,note_on,77,0,120
1,note_on,67,48,0
1,note_on,76,48,0
1,note_on,76,0,240
1,note_on,67,0,0
1,note_on,84,66,120
1,note_on,83,68,120
1,note_on,84,0,12
1,note_on,84,69,108
1,note_on,83,0,12
1,note_on,89,70,108
1,note_on,84,0,12
1,note_on,84,63,108
1,note_on,89,0,12
1,note_on,82,70,108
1,note_on,84,0,12
1,note_on,81,66,108
1,note_on,82,0,12
1,note_on,80,64,108
1,note_on,81,0,12
1,note_on,81,64,108
1,note_on,80,0,12
1,note_on,84,70,108
1,note_on,81,0,12
1,note_on,81,64,108
1,note_on,84,0,12
1,note_on,79,70,108
1,note_on,81,0,12
1,note_on,77,64,108
1,note_on,79,0,12
1,note_on,76,64,108
1,note_on,77,0,12
1,note_on,77,64,108
1,note_on,76,0,12
1,note_on,81,70,108
1,note_on,77,0,12
1,note_on,77,65,108
1,note_on,81,0,12
1,note_on,74,70,108
1,note_on,77,0,12
1,note_on,72,65,108
1,note_on,74,0,12
1,note_on,71,65,108
1,note_on,72,0,12
1,note_on,72,65,108
1,note_on,71,0,12
1,note_on,77,70,108
1,note_on,72,0,12
1,note_on,72,65,108
1,note_on,77,0,12
1,note_on,70,70,108
1,note_on,72,0,12
1,note_on,69,66,108
1,note_on,70,0,12
1,note_on,68,66,108
1,note_on,69,0,12
1,note_on,69,66,108
1,note_on,68,0,12
1,note_on,72,70,108
1,note_on,69,0,12
1,note_on,69,64,108
1,note_on,72,0,12
1,note_on,65,70,108
1,note_on,69,0,12
1,note_on,65,0,108
1,note_on,77,64,0
1,note_on,77,0,120
1,note_on,64,70,0
1,note_on,64,0,120
1,note_on,77,64,0
1,note_on,77,0,120
1,note_on,65,70,0
1,note_on,65,0,120
1,note_on,77,64,0
1,note_on,77,0,120
1,note_on,67,70,0
1,note_on,67,0,120
1,note_on,77,64,0
1,note_on,77,0,120
1,note_on,65,65,0
1,note_on,65,0,120
1,note_on,77,58,0
1,note_on,77,0,120
1,note_on,67,67,0
1,note_on,67,0,120
1,note_on,77,61,0
1,note_on,77,0,120
1,note_on,69,70,0
1,note_on,69,0,120
1,note_on,77,60,0
1,note_on,77,0,120
1,note_on,67,66,0
1,note_on,67,0,120
1,note_on,77,62,0
1,note_on,77,0,120
1,note_on,69,67,0
1,note_on,69,0,120
1,note_on,77,62,0
1,note_on,77,0,120
1,note_on,70,74,0
1,note_on,70,0,120
1,note_on,77,61,0
1,note_on,77,0,120
1,note_on,70,65,0
1,note_on,70,0,120
1,note_on,77,61,0
1,note_on,77,0,120
1,note_on,69,65,0
1,note_on,69,0,120
1,note_on,77,60,0
1,note_on,77,0,120
1,note_on,70,70,0
1,note_on,70,0,120
1,note_on,77,60,0
1,note_on,77,0,120
1,note_on,70,65,0
1,note_on,70,0,120
1,note_on,77,60,0
1,note_on,77,0,120
1,note_on,69,65,0
1,note_on,69,0,120
1,note_on,77,46,0
1,note_on,77,0,120
1,note_on,68,45,0
1,note_on,68,0,120
1,note_on,77,36,0
1,note_on,77,0,120
1,note_on,67,42,480
1,note_on,67,0,120
1,note_on,76,34,0
1,note_on,76,0,120
1,note_on,66,44,480
1,note_on,66,0,120
1,note_on,75,35,0
1,note_on,75,0,120
1,note_on,62,58,720
1,note_on,62,0,120
1,note_on,67,59,0
1,note_on,67,0,120
1,note_on,70,60,0
1,note_on,70,0,120
1,note_on,74,61,0
1,note_on,74,0,120
1,note_on,72,62,0
1,note_on,70,62,120
1,note_on,72,0,12
1,note_on,69,60,108
1,note_on,70,0,12
1,note_on,67,59,108
1,note_on,69,0,12
1,note_on,65,57,108
1,note_on,67,0,12
1,note_on,64,55,108
1,note_on,65,0,12
1,note_on,65,58,108
1,note_on,64,0,12
1,note_on,65,0,108
1,note_on,60,49,120
1,note_on,60,0,240
1,note_on,60,49,0
1,note_on,60,0,180
1,note_on,64,41,0
1,note_on,64,0,60
1,note_on,70,49,0
1,note_on,70,0,960
1,note_on,69,43,0
1,note_on,69,0,120
1,note_on,67,43,120
1,note_on,67,0,120
1,note_on,67,49,120
1,note_on,67,0,240
1,note_on,65,45,0
1,note_on,65,0,480
1,note_on,65,45,0
1,note_on,65,0,660
1,note_on,64,41,0
1,note_on,64,0,60
1,note_on,70,49,0
1,note_on,70,0,960
1,note_on,69,43,0
1,note_on,69,0,120
1,note_on,67,43,120
1,note_on,67,0,120
1,note_on,71,51,120
1,note_on,71,0,720
1,note_on,72,45,0
1,note_on,72,0,240
1,note_on,64,41,420
1,note_on,64,0,60
1,note_on,70,49,0
1,note_on,70,0,960
1,note_on,69,43,0
1,note_on,69,0,120
1,note_on,67,43,120
1,note_on,67,0,120
1,note_on,65,54,120
1,note_on,65,0,480
1,note_on,69,60,0
1,note_on,69,0,720
1,note_on,72,60,0
1,note_on,72,0,720
1,note_on,70,58,0
1,note_on,70,0,720
1,note_on,67,50,0
1,note_on,67,0,240
1,note_on,65,56,0
1,note_on,65,0,240
1,note_on,57,71,240
1,note_on,57,0,240
1,note_on,58,78,0
1,note_on,58,0,120
1,note_on,67,73,120
1,note_on,67,0,120
1,note_on,59,72,120
1,note_on,59,0,120
1,note_on,60,78,120
1,note_on,60,0,120
1,note_on,69,73,120
1,note_on,69,0,120
1,note_on,61,73,120
1,note_on,61,0,120
1,note_on,62,78,120
1,note_on,62,0,120
1,note_on,70,72,120
1,note_on,70,0,120
1,note_on,64,72,120
1,note_on,64,0,120
1,note_on,82,68,120
1,note_on,82,0,960
1,note_on,81,62,0
1,note_on,81,0,120
1,note_on,79,61,0
1,note_on,79,0,120
1,note_on,77,59,0
1,note_on,77,0,120
1,note_on,76,57,0
1,note_on,76,0,120
1,note_on,77,56,0
1,note_on,77,0,120
1,note_on,79,49,120
1,note_on,79,0,120
1,note_on,81,54,120
1,note_on,81,0,120
1,note_on,72,46,120
1,note_on,69,46,0
1,note_on,69,0,480
1,note_on,72,0,0
1,note_on,70,40,0
1,note_on,67,40,0
1,note_on,67,0,240
1,note_on,70,0,0
1,note_on,70,46,0
1,note_on,67,46,0
1,note_on,67,0,720
1,note_on,70,0,0
1,note_on,69,41,0
1,note_on,65,41,0
1,note_on,65,0,240
1,note_on,69,0,0
1,note_on,57,71,960
1,note_on,57,0,240
1,note_on,58,78,0
1,note_on,58,0,120
1,note_on,67,73,120
1,note_on,67,0,120
1,note_on,59,72,120
1,note_on,59,0,120
1,note_on,60,78,120
1,note_on,60,0,120
1,note_on,69,73,120
1,note_on,69,0,120
1,note_on,61,73,120
1,note_on,61,0,120
1,note_on,62,78,120
1,note_on,62,0,120
1,note_on,70,72,120
1,note_on,70,0,120
1,note_on,64,72,120
1,note_on,64,0,120
1,note_on,82,68,120
1,note_on,82,0,960
1,note_on,81,62,0
1,note_on,81,0,120
1,note_on,79,61,0
1,note_on,79,0,120
1,note_on,77,59,0
1,note_on,77,0,120
1,note_on,76,57,0
1,note_on,76,0,120
1,note_on,77,56,0
1,note_on,77,0,60
1,note_on,79,49,0
1,note_on,79,0,60
1,note_on,81,49,0
1,note_on,81,0,60
1,note_on,74,46,540
1,note_on,74,0,60
1,note_on,76,38,0
1,note_on,76,0,60
1,note_on,77,38,0
1,note_on,77,0,60
1,note_on,65,44,540
1,note_on,65,0,600
1,note_on,69,39,0
1,note_on,69,0,120
1,note_on,64,36,0
1,note_on,67,44,0
1,note_on,67,0,480
1,note_on,64,0,0
1,note_on,65,41,0
1,note_on,65,0,240
1,note_on,65,41,0
1,note_on,69,39,480
1,note_on,69,0,240
1,note_on,65,0,0
1,note_on,64,37,0
1,note_on,72,44,0
1,note_on,72,0,240
1,note_on,70,39,0
1,note_on,70,0,240
1,note_on,67,39,0
1,note_on,67,0,240
1,note_on,64,0,0
1,note_on,65,44,0
1,note_on,60,40,240
1,note_on,60,0,237
1,note_on,69,40,3
1,note_on,69,0,240
1,note_on,65,0,0
1,note_on,72,44,0
1,note_on,64,37,0
1,note_on,72,0,240
1,note_on,70,40,0
1,note_on,70,0,240
1,note_on,67,40,0
1,note_on,67,0,240
1,note_on,64,0,0
1,note_on,65,44,0
1,note_on,65,0,240
1,note_on,60,41,0
1,note_on,60,0,236
1,note_on,69,41,4
1,note_on,69,0,240
1,note_on,65,44,0
1,note_on,65,0,240
1,note_on,60,40,0
1,note_on,60,0,236
1,note_on,69,40,4
1,note_on,69,0,240
1,note_on,58,36,0
1,note_on,67,42,0
1,note_on,67,0,720
1,note_on,58,0,0
1,note_on,57,31,0
1,note_on,65,36,0
1,note_on,65,0,240
1,note_on,57,0,0
1,note_on,81,80,480
1,note_on,69,68,0
1,note_on,69,0,720
1,note_on,81,0,0
1,note_on,79,77,0
1,note_on,69,65,0
1,note_on,69,0,720
1,note_on,79,0,0
1,note_on,69,66,0
1,note_on,77,78,0
1,note_on,77,0,720
1,note_on,69,0,0
1,note_on,76,76,0
1,note_on,69,65,0
1,note_on,69,0,720
1,note_on,76,0,0
1,note_on,74,79,0
1,note_on,69,67,0
1,note_on,69,0,720
1,note_on,74,0,0
1,note_on,69,65,0
1,note_on,73,76,0
1,note_on,67,65,0
1,note_on,67,0,720
1,note_on,73,0,0
1,note_on,69,0,0
1,note_on,74,65,0
1,note_on,74,0,120
1,note_on,69,54,0
1,note_on,69,0,120
1,note_on,65,54,0
1,note_on,65,0,120
1,note_on,69,54,0
1,note_on,69,0,120
1,note_on,74,65,0
1,note_on,74,0,120
1,note_on,69,54,0
1,note_on,69,0,120
1,note_on,76,65,0
1,note_on,76,0,120
1,note_on,69,54,0
1,note_on,69,0,120
1,note_on,67,54,0
1,note_on,67,0,120
1,note_on,69,54,0
1,note_on,69,0,120
1,note_on,76,65,0
1,note_on,76,0,120
1,note_on,69,55,0
1,note_on,69,0,120
1,note_on,77,65,0
1,note_on,77,0,120
1,note_on,74,55,0
1,note_on,74,0,120
1,note_on,69,55,0
1,note_on,69,0,120
1,note_on,74,55,0
1,note_on,74,0,120
1,note_on,77,65,0
1,note_on,77,0,120
1,note_on,74,55,0
1,note_on,74,0,120
1,note_on,78,65,0
1,note_on,78,0,120
1,note_on,74,55,0
1,note_on,74,0,120
1,note_on,69,55,0
1,note_on,69,0,120
1,note_on,74,55,0
1,note_on,74,0,120
1,note_on,78,65,0
1,note_on,78,0,120
1,note_on,74,56,0
1,note_on,74,0,120
1,note_on,79,65,0
1,note_on,79,0,480
1,note_on,81,59,0
1,note_on,81,0,120
1,note_on,79,59,0
1,note_on,79,0,120
1,note_on,77,65,0
1,note_on,77,0,480
1,note_on,79,57,0
1,note_on,79,0,120
1,note_on,77,57,0
1,note_on,77,0,120
1,note_on,76,65,0
1,note_on,76,0,480
1,note_on,77,57,0
1,note_on,77,0,120
1,note_on,76,57,0
1,note_on,76,0,120
1,note_on,74,65,0
1,note_on,74,0,480
1,note_on,76,59,0
1,note_on,76,0,120
1,note_on,74,59,0
1,note_on,74,0,120
1,note_on,72,65,0
1,note_on,72,0,480
1,note_on,74,59,0
1,note_on,74,0,120
1,note_on,72,59,0
1,note_on,72,0,120
1,note_on,71,65,0
1,note_on,71,0,480
1,note_on,72,56,0
1,note_on,72,0,120
1,note_on,71,56,0
1,note_on,71,0,120
1,note_on,74,62,0
1,note_on,72,54,120
1,note_on,74,0,12
1,note_on,71,54,108
1,note_on,72,0,12
1,note_on,72,54,108
1,note_on,71,0,12
1,note_on,71,53,108
1,note_on,72,0,12
1,note_on,72,55,108
1,note_on,71,0,12
1,note_on,76,59,108
1,note_on,72,0,12
1,note_on,74,55,108
1,note_on,76,0,12
1,note_on,73,55,108
1,note_on,74,0,12
1,note_on,74,55,108
1,note_on,73,0,12
1,note_on,73,55,108
1,note_on,74,0,12
1,note_on,74,55,108
1,note_on,73,0,12
1,note_on,76,59,108
1,note_on,74,0,12
1,note_on,74,54,108
1,note_on,76,0,12
1,note_on,72,54,108
1,note_on,74,0,12
1,note_on,74,54,108
1,note_on,72,0,12
1,note_on,76,54,108
1,note_on,74,0,12
1,note_on,77,54,108
1,note_on,76,0,12
1,note_on,79,59,108
1,note_on,77,0,12
1,note_on,77,55,108
1,note_on,79,0,12
1,note_on,76,55,108
1,note_on,77,0,12
1,note_on,77,55,108
1,note_on,76,0,12
1,note_on,79,55,108
1,note_on,77,0,12
1,note_on,80,55,108
1,note_on,79,0,12
1,note_on,81,59,108
1,note_on,80,0,12
1,note_on,81,0,108
1,note_on,82,55,0
1,note_on,81,55,120
1,note_on,82,0,12
1,note_on,79,55,108
1,note_on,81,0,12
1,note_on,77,55,108
1,note_on,79,0,12
1,note_on,76,54,108
1,note_on,77,0,12
1,note_on,74,59,108
1,note_on,76,0,12
1,note_on,74,0,108
1,note_on,85,54,0
1,note_on,86,63,120
1,note_on,85,0,12
1,note_on,84,62,108
1,note_on,86,0,12
1,note_on,83,60,108
1,note_on,84,0,12
1,note_on,81,59,108
1,note_on,83,0,12
1,note_on,79,59,108
1,note_on,81,0,12
1,note_on,79,0,108
1,note_on,81,60,0
1,note_on,81,0,120
1,note_on,79,60,0
1,note_on,79,0,120
1,note_on,77,60,0
1,note_on,77,0,120
1,note_on,76,60,0
1,note_on,76,0,120
1,note_on,74,59,0
1,note_on,74,0,120
1,note_on,72,59,0
1,note_on,72,0,120
1,note_on,83,56,0
1,note_on,84,63,120
1,note_on,83,0,12
1,note_on,83,62,108
1,note_on,84,0,12
1,note_on,81,60,108
1,note_on,83,0,12
1,note_on,79,59,108
1,note_on,81,0,12
1,note_on,77,56,108
1,note_on,79,0,12
1,note_on,77,0,108
1,note_on,85,61,0
1,note_on,85,0,120
1,note_on,86,68,0
1,note_on,86,0,120
1,note_on,83,63,0
1,note_on,83,0,120
1,note_on,79,63,0
1,note_on,79,0,120
1,note_on,77,63,0
1,note_on,77,0,120
1,note_on,76,60,0
1,note_on,76,0,120
1,note_on,83,53,0
1,note_on,84,59,120
1,note_on,83,0,12
1,note_on,79,54,108
1,note_on,84,0,12
1,note_on,77,54,108
1,note_on,79,0,12
1,note_on,76,54,108
1,note_on,77,0,12
1,note_on,74,59,108
1,note_on,76,0,12
1,note_on,74,0,108
1,note_on,76,58,0
1,note_on,74,62,120
1,note_on,76,0,12
1,note_on,72,61,108
1,note_on,74,0,12
1,note_on,71,60,108
1,note_on,72,0,12
1,note_on,69,59,108
1,note_on,71,0,12
1,note_on,67,57,108
1,note_on,69,0,12
1,note_on,67,0,120
1,note_on,75,49,588
1,note_on,75,0,960
1,note_on,74,43,0
1,note_on,74,0,120
1,note_on,72,43,120
1,note_on,72,0,120
1,note_on,78,49,120
1,note_on,78,0,480
1,note_on,79,43,0
1,note_on,79,0,240
1,note_on,74,43,0
1,note_on,74,0,480
1,note_on,80,58,240
1,note_on,80,0,960
1,note_on,79,49,0
1,note_on,79,0,120
1,note_on,77,49,120
1,note_on,77,0,120
1,note_on,75,60,120
1,note_on,75,0,240
1,note_on,77,42,0
1,note_on,77,0,80
1,note_on,75,42,0
1,note_on,75,0,80
1,note_on,74,42,0
1,note_on,74,0,80
1,note_on,75,51,0
1,note_on,75,0,120
1,note_on,77,44,0
1,note_on,77,0,120
1,note_on,79,51,0
1,note_on,79,0,480
1,note_on,84,66,240
1,note_on,84,0,720
1,note_on,82,54,0
1,note_on,82,0,480
1,note_on,84,50,0
1,note_on,84,0,240
1,note_on,82,57,0
1,note_on,82,0,480
1,note_on,80,52,0
1,note_on,80,0,240
1,note_on,79,55,0
1,note_on,79,0,720
1,note_on,77,59,0
1,note_on,77,0,480
1,note_on,75,53,0
1,note_on,75,0,240
1,note_on,74,57,0
1,note_on,74,0,480
1,note_on,72,47,0
1,note_on,72,0,240
1,note_on,75,53,0
1,note_on,75,0,720
1,note_on,74,45,0
1,note_on,74,0,240
1,note_on,75,49,480
1,note_on,75,0,960
1,note_on,74,43,0
1,note_on,74,0,120
1,note_on,72,43,120
1,note_on,72,0,120
1,note_on,78,49,120
1,note_on,78,0,480
1,note_on,79,43,0
1,note_on,79,0,240
1,note_on,74,43,0
1,note_on,74,0,480
1,note_on,80,58,240
1,note_on,80,0,960
1,note_on,79,49,0
1,note_on,79,0,120
1,note_on,77,49,120
1,note_on,77,0,120
1,note_on,76,60,120
1,note_on,76,0,240
1,note_on,77,51,240
1,note_on,77,0,120
1,note_on,79,44,0
1,note_on,79,0,120
1,note_on,77,51,0
1,note_on,77,0,480
1,note_on,87,71,240
1,note_on,87,0,720
1,note_on,86,58,240
1,note_on,86,0,120
1,note_on,84,58,120
1,note_on,84,0,120
1,note_on,83,66,120
1,note_on,83,0,720
1,note_on,84,68,0
1,note_on,84,0,480
1,note_on,80,46,0
1,note_on,80,0,240
1,note_on,72,55,0
1,note_on,72,0,660
1,note_on,75,40,0
1,note_on,75,0,60
1,note_on,74,51,0
1,note_on,71,51,0
1,note_on,71,0,720
1,note_on,74,0,0
1,note_on,72,74,0
1,note_on,72,0,120
1,note_on,79,62,0
1,note_on,79,0,120
1,note_on,78,62,0
1,note_on,78,0,120
1,note_on,79,62,0
1,note_on,79,0,120
1,note_on,81,69,0
1,note_on,81,0,120
1,note_on,79,62,0
1,note_on,79,0,120
1,note_on,77,65,0
1,note_on,77,0,120
1,note_on,79,60,0
1,note_on,79,0,120
1,note_on,77,65,0
1,note_on,77,0,120
1,note_on,79,59,0
1,note_on,79,0,120
1,note_on,77,65,0
1,note_on,77,0,120
1,note_on,79,59,0
1,note_on,79,0,120
1,note_on,76,74,0
1,note_on,76,0,120
1,note_on,79,62,0
1,note_on,79,0,120
1,note_on,78,62,0
1,note_on,78,0,120
1,note_on,79,62,0
1,note_on,79,0,120
1,note_on,84,74,0
1,note_on,84,0,120
1,note_on,79,62,0
1,note_on,79,0,120
1,note_on,77,65,0
1,note_on,77,0,120
1,note_on,79,60,0
1,note_on,79,0,120
1,note_on,77,65,0
1,note_on,77,0,120
1,note_on,79,59,0
1,note_on,79,0,120
1,note_on,77,65,0
1,note_on,77,0,120
1,note_on,79,59,0
1,note_on,79,0,120
1,note_on,76,74,0
1,note_on,76,0,120
1,note_on,79,62,0
1,note_on,79,0,120
1,note_on,78,62,0
1,note_on,78,0,120
1,note_on,79,62,0
1,note_on,79,0,120
1,note_on,84,72,0
1,note_on,84,0,120
1,note_on,79,62,0
1,note_on,79,0,120
1,note_on,77,65,0
1,note_on,77,0,120
1,note_on,79,60,0
1,note_on,79,0,120
1,note_on,77,65,0
1,note_on,77,0,120
1,note_on,79,59,0
1,note_on,79,0,120
1,note_on,77,65,0
1,note_on,77,0,120
1,note_on,79,59,0
1,note_on,79,0,120
1,note_on,76,74,0
1,note_on,76,0,120
1,note_on,79,62,0
1,note_on,79,0,120
1,note_on,84,71,0
1,note_on,84,0,120
1,note_on,76,60,0
1,note_on,76,0,120
1,note_on,74,70,0
1,note_on,74,0,120
1,note_on,83,62,0
1,note_on,83,0,120
1,note_on,72,70,0
1,note_on,72,0,120
1,note_on,81,62,0
1,note_on,81,0,120
1,note_on,71,69,0
1,note_on,71,0,120
1,note_on,79,60,0
1,note_on,79,0,120
1,note_on,69,67,0
1,note_on,69,0,120
1,note_on,77,58,0
1,note_on,77,0,120
1,note_on,67,69,0
1,note_on,67,0,120
1,note_on,76,62,0
1,note_on,76,0,120
1,note_on,65,67,0
1,note_on,65,0,120
1,note_on,74,59,0
1,note_on,74,0,120
1,note_on,64,66,0
1,note_on,64,0,120
1,note_on,72,56,0
1,note_on,72,0,120
1,note_on,62,62,0
1,note_on,62,0,120
1,note_on,71,54,0
1,note_on,71,0,120
1,note_on,60,63,0
1,note_on,60,0,120
1,note_on,69,55,0
1,note_on,69,0,120
1,note_on,59,62,0
1,note_on,59,0,120
1,note_on,67,51,0
1,note_on,67,0,120
1,note_on,57,45,0
1,note_on,66,55,0
1,note_on,66,0,720
1,note_on,57,0,0
1,note_on,56,45,0
1,note_on,65,55,0
1,note_on,65,0,720
1,note_on,56,0,0
1,note_on,68,45,0
1,note_on,77,55,0
1,note_on,77,0,720
1,note_on,68,0,0
1,note_on,62,45,0
1,note_on,71,55,0
1,note_on,71,0,720
1,note_on,62,0,0
1,note_on,79,49,240
1,note_on,79,0,120
1,note_on,79,49,120
1,note_on,79,0,120
1,note_on,81,49,360
1,note_on,81,0,120
1,note_on,81,49,120
1,note_on,81,0,120
1,note_on,67,39,120
1,note_on,72,47,0
1,note_on,72,0,660
1,note_on,67,0,0
1,note_on,76,40,0
1,note_on,76,0,60
1,note_on,74,44,0
1,note_on,71,37,0
1,note_on,71,0,720
1,note_on,74,0,0
1,note_on,72,74,0
1,note_on,72,0,120
1,note_on,79,62,0
1,note_on,79,0,120
1,note_on,78,62,0
1,note_on,78,0,120
1,note_on,79,62,0
1,note_on,79,0,120
1,note_on,81,68,0
1,note_on,81,0,120
1,note_on,79,62,0
1,note_on,79,0,120
1,note_on,77,65,0
1,note_on,77,0,120
1,note_on,79,60,0
1,note_on,79,0,120
1,note_on,77,65,0
1,note_on,77,0,120
1,note_on,79,59,0
1,note_on,79,0,120
1,note_on,77,65,0
1,note_on,77,0,120
1,note_on,79,59,0
1,note_on,79,0,120
1,note_on,76,74,0
1,note_on,76,0,120
1,note_on,79,62,0
1,note_on,79,0,120
1,note_on,78,62,0
1,note_on,78,0,120
1,note_on,79,62,0
1,note_on,79,0,120
1,note_on,84,74,0
1,note_on,84,0,120
1,note_on,79,62,0
1,note_on,79,0,120
1,note_on,77,65,0
1,note_on,77,0,120
1,note_on,79,60,0
1,note_on,79,0,120
1,note_on,77,65,0
1,note_on,77,0,120
1,note_on,79,59,0
1,note_on,79,0,120
1,note_on,77,65,0
1,note_on,77,0,120
1,note_on,79,59,0
1,note_on,79,0,120
1,note_on,76,74,0
1,note_on,76,0,120
1,note_on,79,62,0
1,note_on,79,0,120
1,note_on,78,62,0
1,note_on,78,0,120
1,note_on,79,62,0
1,note_on,79,0,120
1,note_on,84,72,0
1,note_on,84,0,120
1,note_on,79,62,0
1,note_on,79,0,120
1,note_on,77,65,0
1,note_on,77,0,120
1,note_on,79,60,0
1,note_on,79,0,120
1,note_on,77,65,0
1,note_on,77,0,120
1,note_on,79,59,0
1,note_on,79,0,120
1,note_on,77,65,0
1,note_on,77,0,120
1,note_on,79,59,0
1,note_on,79,0,120
1,note_on,76,74,0
1,note_on,76,0,120
1,note_on,79,62,0
1,note_on,79,0,120
1,note_on,84,71,0
1,note_on,84,0,120
1,note_on,76,60,0
1,note_on,76,0,120
1,note_on,74,70,0
1,note_on,74,0,120
1,note_on,83,62,0
1,note_on,83,0,120
1,note_on,72,70,0
1,note_on,72,0,120
1,note_on,81,62,0
1,note_on,81,0,120
1,note_on,71,69,0
1,note_on,71,0,120
1,note_on,79,60,0
1,note_on,79,0,120
1,note_on,69,67,0
1,note_on,69,0,120
1,note_on,77,58,0
1,note_on,77,0,120
1,note_on,67,69,0
1,note_on,67,0,120
1,note_on,76,62,0
1,note_on,76,0,120
1,note_on,65,67,0
1,note_on,65,0,120
1,note_on,74,59,0
1,note_on,74,0,120
1,note_on,64,66,0
1,note_on,64,0,120
1,note_on,72,56,0
1,note_on,72,0,120
1,note_on,62,64,0
1,note_on,62,0,120
1,note_on,71,55,0
1,note_on,71,0,120
1,note_on,60,63,0
1,note_on,60,0,120
1,note_on,69,55,0
1,note_on,69,0,120
1,note_on,59,62,0
1,note_on,59,0,120
1,note_on,67,51,0
1,note_on,67,0,120
1,note_on,57,45,0
1,note_on,66,55,0
1,note_on,66,0,720
1,note_on,57,0,0
1,note_on,65,55,0
1,note_on,56,45,0
1,note_on,56,0,720
1,note_on,65,0,0
1,note_on,68,45,0
1,note_on,77,55,0
1,note_on,77,0,720
1,note_on,68,0,0
1,note_on,62,45,0
1,note_on,71,55,0
1,note_on,71,0,720
1,note_on,62,0,0
1,note_on,79,49,240
1,note_on,79,0,120
1,note_on,79,49,120
1,note_on,79,0,120
1,note_on,81,49,360
1,note_on,81,0,120
1,note_on,81,49,120
1,note_on,81,0,120
1,note_on,67,39,120
1,note_on,72,47,0
1,note_on,72,0,720
1,note_on,71,37,0
1,note_on,71,0,720
1,note_on,67,0,0
1,note_on,78,71,0
1,note_on,78,0,120
1,note_on,79,55,0
1,note_on,78,55,120
1,note_on,79,0,12
1,note_on,79,55,108
1,note_on,78,0,12
1,note_on,78,55,108
1,note_on,79,0,12
1,note_on,79,55,108
1,note_on,78,0,12
1,note_on,79,0,108
1,note_on,80,62,0
1,note_on,81,55,120
1,note_on,80,0,12
1,note_on,80,55,108
1,note_on,81,0,12
1,note_on,81,55,108
1,note_on,80,0,12
1,note_on,83,59,108
1,note_on,81,0,12
1,note_on,84,55,108
1,note_on,83,0,12
1,note_on,84,0,108
1,note_on,72,47,0
1,note_on,72,0,660
1,note_on,76,37,0
1,note_on,76,0,60
1,note_on,74,43,0
1,note_on,71,43,0
1,note_on,71,0,480
1,note_on,74,0,120
1,note_on,72,37,0
1,note_on,72,0,120
1,note_on,72,71,0
1,note_on,76,64,120
1,note_on,72,0,12
1,note_on,79,67,108
1,note_on,76,0,12
1,note_on,84,68,108
1,note_on,79,0,12
1,note_on,83,69,108
1,note_on,84,0,12
1,note_on,81,69,108
1,note_on,83,0,12
1,note_on,79,71,108
1,note_on,81,0,12
1,note_on,81,67,108
1,note_on,79,0,12
1,note_on,79,67,108
1,note_on,81,0,12
1,note_on,77,67,108
1,note_on,79,0,12
1,note_on,76,67,108
1,note_on,77,0,12
1,note_on,74,67,108
1,note_on,76,0,12
1,note_on,74,0,108
1,note_on,72,71,0
1,note_on,76,64,120
1,note_on,72,0,12
1,note_on,74,64,108
1,note_on,76,0,12
1,note_on,72,68,108
1,note_on,74,0,12
1,note_on,71,64,108
1,note_on,72,0,12
1,note_on,69,64,108
1,note_on,71,0,12
1,note_on,67,69,108
1,note_on,69,0,12
1,note_on,69,63,108
1,note_on,67,0,12
1,note_on,67,63,108
1,note_on,69,0,12
1,note_on,65,63,108
1,note_on,67,0,12
1,note_on,64,63,108
1,note_on,65,0,12
1,note_on,62,63,108
1,note_on,64,0,12
1,note_on,62,0,108
1,note_on,60,71,0
1,note_on,64,63,120
1,note_on,60,0,12
1,note_on,62,63,108
1,note_on,64,0,12
1,note_on,60,63,108
1,note_on,62,0,12
1,note_on,59,63,108
1,note_on,60,0,12
1,note_on,57,64,108
1,note_on,59,0,12
1,note_on,55,71,108
1,note_on,57,0,12
1,note_on,57,64,108
1,note_on,55,0,12
1,note_on,55,64,108
1,note_on,57,0,12
1,note_on,53,64,108
1,note_on,55,0,12
1,note_on,52,64,108
1,note_on,53,0,12
1,note_on,50,64,108
1,note_on,52,0,12
1,note_on,50,0,108
1,note_on,48,81,0
1,note_on,48,0,120
1,note_on,52,70,120
1,note_on,52,0,120
1,note_on,55,70,120
1,note_on,55,0,120
1,note_on,60,78,120
1,note_on,60,0,120
1,note_on,64,70,120
1,note_on,64,0,120
1,note_on,67,70,120
1,note_on,67,0,120
1,note_on,72,88,120
1,note_on,72,0,240
1,note_on,67,69,480
1,note_on,72,69,0
1,note_on,79,82,0
1,note_on,76,69,0
1,note_on,76,0,480
1,note_on,67,0,0
1,note_on,72,0,0
1,note_on,79,0,0
1,note_on,79,74,240
1,note_on,76,74,0
1,note_on,84,86,0
1,note_on,72,72,0
1,note_on,72,0,480
1,note_on,79,0,0
1,note_on,76,0,0
1,note_on,84,0,0
1,note_on,79,66,120
1,note_on,78,68,120
1,note_on,79,0,12
1,note_on,79,69,108
1,note_on,78,0,12
1,note_on,84,70,108
1,note_on,79,0,12
1,note_on,79,63,108
1,note_on,84,0,12
1,note_on,77,70,108
1,note_on,79,0,12
1,note_on,75,66,108
1,note_on,77,0,12
1,note_on,74,64,108
1,note_on,75,0,12
1,note_on,75,64,108
1,note_on,74,0,12
1,note_on,79,70,108
1,note_on,75,0,12
1,note_on,75,64,108
1,note_on,79,0,12
1,note_on,74,70,108
1,note_on,75,0,12
1,note_on,72,64,108
1,note_on,74,0,12
1,note_on,71,64,108
1,note_on,72,0,12
1,note_on,72,64,108
1,note_on,71,0,12
1,note_on,75,70,108
1,note_on,72,0,12
1,note_on,72,65,108
1,note_on,75,0,12
1,note_on,68,70,108
1,note_on,72,0,12
1,note_on,67,65,108
1,note_on,68,0,12
1,note_on,66,65,108
1,note_on,67,0,12
1,note_on,67,65,108
1,note_on,66,0,12
1,note_on,72,70,108
1,note_on,67,0,12
1,note_on,67,65,108
1,note_on,72,0,12
1,note_on,65,70,108
1,note_on,67,0,12
1,note_on,63,66,108
1,note_on,65,0,12
1,note_on,62,66,108
1,note_on,63,0,12
1,note_on,63,66,108
1,note_on,62,0,12
1,note_on,67,70,108
1,note_on,63,0,12
1,note_on,63,64,108
1,note_on,67,0,12
1,note_on,60,70,108
1,note_on,63,0,12
1,note_on,60,0,108
1,note_on,72,64,0
1,note_on,72,0,120
1,note_on,59,70,0
1,note_on,59,0,120
1,note_on,72,64,0
1,note_on,72,0,120
1,note_on,60,70,0
1,note_on,60,0,120
1,note_on,72,64,0
1,note_on,72,0,120
1,note_on,62,70,0
1,note_on,62,0,120
1,note_on,72,64,0
1,note_on,72,0,120
1,note_on,60,65,0
1,note_on,60,0,120
1,note_on,72,58,0
1,note_on,72,0,120
1,note_on,62,67,0
1,note_on,62,0,120
1,note_on,72,61,0
1,note_on,72,0,120
1,note_on,64,70,0
1,note_on,64,0,120
1,note_on,72,60,0
1,note_on,72,0,120
1,note_on,62,66,0
1,note_on,62,0,120
1,note_on,72,62,0
1,note_on,72,0,120
1,note_on,64,67,0
1,note_on,64,0,120
1,note_on,72,62,0
1,note_on,72,0,120
1,note_on,65,74,0
1,note_on,65,0,120
1,note_on,72,61,0
1,note_on,72,0,120
1,note_on,65,65,0
1,note_on,65,0,120
1,note_on,72,61,0
1,note_on,72,0,120
1,note_on,63,65,0
1,note_on,63,0,120
1,note_on,72,60,0
1,note_on,72,0,120
1,note_on,65,70,0
1,note_on,65,0,120
1,note_on,72,60,0
1,note_on,72,0,120
1,note_on,65,65,0
1,note_on,65,0,120
1,note_on,72,60,0
1,note_on,72,0,120
1,note_on,63,65,0
1,note_on,63,0,120
1,note_on,72,54,0
1,note_on,72,0,120
1,note_on,62,49,0
1,note_on,72,43,120
1,note_on,72,0,120
1,note_on,63,52,0
1,note_on,62,0,10
1,note_on,72,45,110
1,note_on,72,0,120
1,note_on,63,0,0
1,note_on,62,55,0
1,note_on,72,52,120
1,note_on,72,0,120
1,note_on,63,59,0
1,note_on,62,0,10
1,note_on,72,59,110
1,note_on,72,0,120
1,note_on,63,0,0
1,note_on,65,66,0
1,note_on,72,55,120
1,note_on,72,0,120
1,note_on,63,52,0
1,note_on,65,0,10
1,note_on,72,43,110
1,note_on,72,0,120
1,note_on,63,0,0
1,note_on,62,50,0
1,note_on,72,44,120
1,note_on,72,0,120
1,note_on,63,54,0
1,note_on,62,0,10
1,note_on,72,49,110
1,note_on,72,0,120
1,note_on,63,0,0
1,note_on,62,57,0
1,note_on,72,53,120
1,note_on,72,0,120
1,note_on,63,59,0
1,note_on,62,0,10
1,note_on,72,55,110
1,note_on,72,0,120
1,note_on,63,0,0
1,note_on,65,64,0
1,note_on,72,54,120
1,note_on,72,0,120
1,note_on,63,56,0
1,note_on,65,0,10
1,note_on,72,43,110
1,note_on,72,0,120
1,note_on,63,0,0
1,note_on,62,60,0
1,note_on,62,0,90
1,note_on,66,51,510
1,note_on,66,0,120
1,note_on,72,55,0
1,note_on,72,0,90
1,note_on,62,48,30
1,note_on,62,0,120
1,note_on,66,51,0
1,note_on,66,0,120
1,note_on,69,53,0
1,note_on,69,0,120
1,note_on,72,56,0
1,note_on,72,0,90
1,note_on,78,53,30
1,note_on,78,0,120
1,note_on,84,62,0
1,note_on,84,0,120
1,note_on,82,61,0
1,note_on,82,0,120
1,note_on,81,60,0
1,note_on,81,0,120
1,note_on,79,59,0
1,note_on,79,0,120
1,note_on,78,58,0
1,note_on,78,0,120
1,note_on,79,55,0
1,note_on,79,0,120
1,note_on,78,59,0
1,note_on,78,0,120
1,note_on,79,55,0
1,note_on,79,0,120
1,note_on,78,58,0
1,note_on,78,0,120
1,note_on,75,57,0
1,note_on,75,0,120
1,note_on,74,56,0
1,note_on,74,0,120
1,note_on,72,55,0
1,note_on,72,0,120
1,note_on,71,49,0
1,note_on,77,43,120
1,note_on,77,0,120
1,note_on,72,52,0
1,note_on,71,0,10
1,note_on,77,45,110
1,note_on,77,0,120
1,note_on,72,0,0
1,note_on,71,55,0
1,note_on,77,52,120
1,note_on,77,0,120
1,note_on,72,62,0
1,note_on,71,0,10
1,note_on,77,60,110
1,note_on,77,0,120
1,note_on,72,0,0
1,note_on,73,67,0
1,note_on,77,55,120
1,note_on,77,0,120
1,note_on,72,52,0
1,note_on,73,0,10
1,note_on,77,43,110
1,note_on,77,0,120
1,note_on,72,0,0
1,note_on,71,50,0
1,note_on,77,44,120
1,note_on,77,0,120
1,note_on,72,54,0
1,note_on,71,0,10
1,note_on,77,49,110
1,note_on,77,0,120
1,note_on,72,0,0
1,note_on,71,57,0
1,note_on,77,53,120
1,note_on,77,0,120
1,note_on,72,63,0
1,note_on,71,0,10
1,note_on,77,55,110
1,note_on,77,0,120
1,note_on,72,0,0
1,note_on,73,68,0
1,note_on,77,54,120
1,note_on,77,0,120
1,note_on,72,56,0
1,note_on,73,0,10
1,note_on,77,43,110
1,note_on,77,0,120
1,note_on,72,0,0
1,note_on,71,60,0
1,note_on,71,0,90
1,note_on,71,51,510
1,note_on,71,0,120
1,note_on,77,55,0
1,note_on,77,0,90
1,note_on,67,48,30
1,note_on,67,0,120
1,note_on,71,51,0
1,note_on,71,0,120
1,note_on,74,53,0
1,note_on,74,0,120
1,note_on,77,56,0
1,note_on,77,0,90
1,note_on,83,53,30
1,note_on,83,0,120
1,note_on,89,62,0
1,note_on,89,0,120
1,note_on,87,61,0
1,note_on,87,0,120
1,note_on,86,60,0
1,note_on,86,0,120
1,note_on,84,59,0
1,note_on,84,0,120
1,note_on,83,58,0
1,note_on,83,0,120
1,note_on,80,55,0
1,note_on,80,0,120
1,note_on,79,59,0
1,note_on,79,0,120
1,note_on,78,55,0
1,note_on,78,0,120
1,note_on,79,58,0
1,note_on,79,0,120
1,note_on,80,57,0
1,note_on,80,0,120
1,note_on,79,56,0
1,note_on,79,0,120
1,note_on,77,55,0
1,note_on,77,0,120
1,note_on,76,49,0
1,note_on,67,43,120
1,note_on,67,0,120
1,note_on,77,52,0
1,note_on,76,0,10
1,note_on,67,45,110
1,note_on,67,0,120
1,note_on,77,0,0
1,note_on,76,55,0
1,note_on,67,52,120
1,note_on,67,0,120
1,note_on,77,59,0
1,note_on,76,0,10
1,note_on,67,53,110
1,note_on,67,0,120
1,note_on,77,0,0
1,note_on,76,59,0
1,note_on,67,55,120
1,note_on,67,0,120
1,note_on,77,52,0
1,note_on,76,0,10
1,note_on,67,43,110
1,note_on,67,0,120
1,note_on,77,0,0
1,note_on,76,50,0
1,note_on,67,44,120
1,note_on,67,0,120
1,note_on,77,54,0
1,note_on,76,0,10
1,note_on,67,49,110
1,note_on,67,0,120
1,note_on,77,0,0
1,note_on,76,57,0
1,note_on,67,53,120
1,note_on,67,0,120
1,note_on,77,61,0
1,note_on,76,0,10
1,note_on,67,55,110
1,note_on,67,0,120
1,note_on,77,0,0
1,note_on,76,60,0
1,note_on,67,50,120
1,note_on,67,0,120
1,note_on,77,56,0
1,note_on,76,0,10
1,note_on,67,43,110
1,note_on,67,0,120
1,note_on,77,0,0
1,note_on,76,60,0
1,note_on,76,0,90
1,note_on,64,51,510
1,note_on,64,0,120
1,note_on,70,55,0
1,note_on,70,0,90
1,note_on,60,48,30
1,note_on,60,0,120
1,note_on,64,51,0
1,note_on,64,0,120
1,note_on,67,53,0
1,note_on,67,0,120
1,note_on,70,56,0
1,note_on,70,0,90
1,note_on,76,53,30
1,note_on,76,0,120
1,note_on,82,62,0
1,note_on,82,0,120
1,note_on,81,61,0
1,note_on,81,0,120
1,note_on,79,60,0
1,note_on,79,0,120
1,note_on,77,59,0
1,note_on,77,0,120
1,note_on,76,58,0
1,note_on,76,0,120
1,note_on,74,55,0
1,note_on,74,0,120
1,note_on,72,59,0
1,note_on,72,0,120
1,note_on,74,55,0
1,note_on,74,0,120
1,note_on,72,58,0
1,note_on,72,0,120
1,note_on,70,57,0
1,note_on,70,0,120
1,note_on,69,56,0
1,note_on,69,0,120
1,note_on,67,55,0
1,note_on,67,0,120
1,note_on,65,49,0
1,note_on,75,43,120
1,note_on,75,0,120
1,note_on,66,52,0
1,note_on,65,0,10
1,note_on,75,45,110
1,note_on,75,0,120
1,note_on,66,0,0
1,note_on,65,55,0
1,note_on,75,52,120
1,note_on,75,0,120
1,note_on,66,62,0
1,note_on,65,0,10
1,note_on,75,56,110
1,note_on,75,0,120
1,note_on,66,0,0
1,note_on,68,65,0
1,note_on,75,55,120
1,note_on,75,0,120
1,note_on,66,52,0
1,note_on,68,0,10
1,note_on,75,43,110
1,note_on,75,0,120
1,note_on,66,0,0
1,note_on,65,50,0
1,note_on,75,44,120
1,note_on,75,0,120
1,note_on,66,54,0
1,note_on,65,0,10
1,note_on,75,49,110
1,note_on,75,0,120
1,note_on,66,0,0
1,note_on,65,57,0
1,note_on,75,53,120
1,note_on,75,0,120
1,note_on,66,63,0
1,note_on,65,0,10
1,note_on,75,55,110
1,note_on,75,0,120
1,note_on,66,0,0
1,note_on,68,66,0
1,note_on,75,54,120
1,note_on,75,0,120
1,note_on,66,56,0
1,note_on,68,0,10
1,note_on,75,43,110
1,note_on,75,0,120
1,note_on,66,0,0
1,note_on,65,60,0
1,note_on,65,0,90
1,note_on,69,51,510
1,note_on,69,0,120
1,note_on,75,55,0
1,note_on,75,0,90
1,note_on,65,48,30
1,note_on,65,0,120
1,note_on,69,51,0
1,note_on,69,0,120
1,note_on,72,53,0
1,note_on,72,0,120
1,note_on,75,56,0
1,note_on,75,0,90
1,note_on,81,53,30
1,note_on,81,0,120
1,note_on,87,62,0
1,note_on,87,0,120
1,note_on,86,61,0
1,note_on,86,0,120
1,note_on,84,60,0
1,note_on,84,0,120
1,note_on,82,59,0
1,note_on,82,0,120
1,note_on,81,58,0
1,note_on,81,0,120
1,note_on,79,55,0
1,note_on,79,0,120
1,note_on,77,59,0
1,note_on,77,0,120
1,note_on,79,55,0
1,note_on,79,0,120
1,note_on,77,56,0
1,note_on,77,0,120
1,note_on,75,54,0
1,note_on,75,0,120
1,note_on,74,52,0
1,note_on,74,0,120
1,note_on,72,50,0
1,note_on,72,0,120
1,note_on,74,54,0
1,note_on,74,0,240
1,note_on,74,42,240
1,note_on,74,0,240
1,note_on,72,46,0
1,note_on,72,0,240
1,note_on,72,45,240
1,note_on,72,0,240
1,note_on,75,52,0
1,note_on,75,0,1200
1,note_on,74,42,0
1,note_on,74,0,240
1,note_on,75,46,0
1,note_on,75,0,240
1,note_on,75,42,240
1,note_on,75,0,240
1,note_on,74,43,0
1,note_on,74,0,240
1,note_on,74,43,240
1,note_on,74,0,240
1,note_on,79,52,0
1,note_on,79,0,1200
1,note_on,77,44,0
1,note_on,77,0,240
1,note_on,77,47,0
1,note_on,77,0,240
1,note_on,76,44,0
1,note_on,76,0,240
1,note_on,72,48,0
1,note_on,72,0,480
1,note_on,74,45,0
1,note_on,74,0,240
1,note_on,75,45,0
1,note_on,75,0,236
1,note_on,75,45,4
1,note_on,75,0,240
1,note_on,74,42,0
1,note_on,74,0,240
1,note_on,70,46,0
1,note_on,70,0,480
1,note_on,72,46,0
1,note_on,72,0,240
1,note_on,73,51,0
1,note_on,73,0,480
1,note_on,72,51,0
1,note_on,72,0,240
1,note_on,73,55,0
1,note_on,73,0,480
1,note_on,72,50,0
1,note_on,72,0,240
1,note_on,70,51,0
1,note_on,70,0,240
1,note_on,69,57,0
1,note_on,69,0,720
1,note_on,72,55,0
1,note_on,72,0,240
1,note_on,74,75,480
1,note_on,74,0,120
1,note_on,70,57,0
1,note_on,70,0,120
1,note_on,65,57,0
1,note_on,65,0,120
1,note_on,70,57,0
1,note_on,70,0,120
1,note_on,74,57,0
1,note_on,74,0,120
1,note_on,70,57,0
1,note_on,70,0,120
1,note_on,72,73,0
1,note_on,72,0,120
1,note_on,69,56,0
1,note_on,69,0,120
1,note_on,65,56,0
1,note_on,65,0,120
1,note_on,69,56,0
1,note_on,69,0,120
1,note_on,72,56,0
1,note_on,72,0,120
1,note_on,69,56,0
1,note_on,69,0,120
1,note_on,75,76,0
1,note_on,75,0,120
1,note_on,70,55,0
1,note_on,70,0,120
1,note_on,67,55,0
1,note_on,67,0,120
1,note_on,70,55,0
1,note_on,70,0,120
1,note_on,75,60,0
1,note_on,75,0,120
1,note_on,70,53,0
1,note_on,70,0,120
1,note_on,75,59,0
1,note_on,75,0,120
1,note_on,70,52,0
1,note_on,70,0,120
1,note_on,75,60,0
1,note_on,75,0,120
1,note_on,70,48,0
1,note_on,70,0,120
1,note_on,74,74,0
1,note_on,74,0,120
1,note_on,69,51,0
1,note_on,69,0,120
1,note_on,75,78,0
1,note_on,75,0,120
1,note_on,70,53,0
1,note_on,70,0,120
1,note_on,67,54,0
1,note_on,67,0,120
1,note_on,70,54,0
1,note_on,70,0,120
1,note_on,75,60,0
1,note_on,75,0,120
1,note_on,70,54,0
1,note_on,70,0,120
1,note_on,74,64,0
1,note_on,74,0,120
1,note_on,69,52,0
1,note_on,69,0,120
1,note_on,65,53,0
1,note_on,65,0,120
1,note_on,69,53,0
1,note_on,69,0,120
1,note_on,74,73,0
1,note_on,74,0,120
1,note_on,69,57,0
1,note_on,69,0,120
1,note_on,79,75,0
1,note_on,79,0,120
1,note_on,70,52,0
1,note_on,70,0,120
1,note_on,67,52,0
1,note_on,67,0,120
1,note_on,70,52,0
1,note_on,70,0,120
1,note_on,79,61,0
1,note_on,79,0,120
1,note_on,70,51,0
1,note_on,70,0,120
1,note_on,79,63,0
1,note_on,79,0,120
1,note_on,70,52,0
1,note_on,70,0,120
1,note_on,79,65,0
1,note_on,79,0,120
1,note_on,70,53,0
1,note_on,70,0,120
1,note_on,77,51,0
1,note_on,77,0,120
1,note_on,70,45,0
1,note_on,70,0,120
1,note_on,67,51,360
1,note_on,67,0,120
1,note_on,70,44,0
1,note_on,70,0,120
1,note_on,76,44,0
1,note_on,76,0,120
1,note_on,69,51,360
1,note_on,69,0,120
1,note_on,72,46,0
1,note_on,72,0,120
1,note_on,75,46,0
1,note_on,75,0,120
1,note_on,67,51,360
1,note_on,67,0,120
1,note_on,70,44,0
1,note_on,70,0,120
1,note_on,74,44,0
1,note_on,74,0,120
1,note_on,63,57,360
1,note_on,63,0,120
1,note_on,67,48,0
1,note_on,67,0,120
1,note_on,72,49,0
1,note_on,72,0,120
1,note_on,62,56,360
1,note_on,62,0,120
1,note_on,65,48,0
1,note_on,65,0,120
1,note_on,70,48,0
1,note_on,70,0,120
1,note_on,63,59,360
1,note_on,63,0,120
1,note_on,65,52,0
1,note_on,65,0,120
1,note_on,69,52,0
1,note_on,69,0,120
1,note_on,62,51,2400
1,note_on,62,0,240
1,note_on,65,56,0
1,note_on,65,0,240
1,note_on,66,57,0
1,note_on,66,0,240
1,note_on,69,58,0
1,note_on,69,0,240
1,note_on,72,60,0
1,note_on,72,0,240
1,note_on,75,61,0
1,note_on,75,0,240
1,note_on,78,63,0
1,note_on,78,0,240
1,note_on,81,64,0
1,note_on,81,0,240
1,note_on,84,66,0
1,note_on,84,0,240
1,note_on,81,64,0
1,note_on,81,0,240
1,note_on,78,62,0
1,note_on,78,0,240
1,note_on,75,60,0
1,note_on,75,0,240
1,note_on,74,58,0
1,note_on,74,0,240
1,note_on,66,57,0
1,note_on,66,0,240
1,note_on,69,55,0
1,note_on,69,0,240
1,note_on,67,45,0
1,note_on,67,0,240
1,note_on,73,45,0
1,note_on,73,0,240
1,note_on,74,50,0
1,note_on,74,0,240
1,note_on,78,47,0
1,note_on,78,0,240
1,note_on,79,47,0
1,note_on,79,0,240
1,note_on,85,52,0
1,note_on,85,0,240
1,note_on,86,45,0
1,note_on,86,0,240
1,note_on,81,41,0
1,note_on,81,0,240
1,note_on,82,49,0
1,note_on,82,0,240
1,note_on,78,43,0
1,note_on,78,0,240
1,note_on,79,43,0
1,note_on,79,0,240
1,note_on,77,39,240
1,note_on,77,0,240
1,note_on,76,35,0
1,note_on,76,0,240
1,note_on,76,35,240
1,note_on,76,0,240
1,note_on,85,41,0
1,note_on,85,0,240
1,note_on,85,41,240
1,note_on,85,0,240
1,note_on,84,43,0
1,note_on,84,0,240
1,note_on,84,43,240
1,note_on,84,0,240
1,note_on,76,41,0
1,note_on,76,0,240
1,note_on,76,56,240
1,note_on,76,0,240
1,note_on,77,53,0
1,note_on,77,0,240
1,note_on,84,63,0
1,note_on,84,0,240
1,note_on,79,56,0
1,note_on,79,0,240
1,note_on,82,56,0
1,note_on,82,0,240
1,note_on,80,63,0
1,note_on,80,0,240
1,note_on,76,56,0
1,note_on,76,0,240
1,note_on,79,56,0
1,note_on,79,0,240
1,note_on,77,60,0
1,note_on,77,0,240
1,note_on,75,52,0
1,note_on,75,0,240
1,note_on,73,52,0
1,note_on,73,0,240
1,note_on,72,51,0
1,note_on,72,0,720
1,note_on,71,45,0
1,note_on,71,0,720
1,note_on,77,50,0
1,note_on,77,0,720
1,note_on,71,45,0
1,note_on,71,0,720
1,note_on,64,55,240
1,note_on,72,66,0
1,note_on,67,55,0
1,note_on,67,0,240
1,note_on,72,0,0
1,note_on,64,0,0
1,note_on,71,60,0
1,note_on,65,60,0
1,note_on,74,73,0
1,note_on,74,0,120
1,note_on,65,0,0
1,note_on,71,0,0
1,note_on,74,66,360
1,note_on,65,55,0
1,note_on,71,55,0
1,note_on,71,0,240
1,note_on,65,0,0
1,note_on,74,0,0
1,note_on,70,61,0
1,note_on,67,61,0
1,note_on,76,74,0
1,note_on,76,0,120
1,note_on,67,0,0
1,note_on,70,0,0
1,note_on,67,55,360
1,note_on,76,66,0
1,note_on,70,55,0
1,note_on,70,0,240
1,note_on,76,0,0
1,note_on,67,0,0
1,note_on,72,60,0
1,note_on,69,60,0
1,note_on,77,72,0
1,note_on,77,0,120
1,note_on,69,0,0
1,note_on,72,0,0
1,note_on,78,66,360
1,note_on,72,55,0
1,note_on,69,55,0
1,note_on,69,0,240
1,note_on,72,0,0
1,note_on,78,0,0
1,note_on,79,71,0
1,note_on,76,59,0
1,note_on,70,59,0
1,note_on,70,0,120
1,note_on,76,0,0
1,note_on,79,0,0
1,note_on,76,55,360
1,note_on,70,55,0
1,note_on,79,66,0
1,note_on,79,0,240
1,note_on,70,0,0
1,note_on,76,0,0
1,note_on,81,73,0
1,note_on,72,60,0
1,note_on,77,60,0
1,note_on,77,0,120
1,note_on,72,0,0
1,note_on,81,0,0
1,note_on,78,55,360
1,note_on,72,55,0
1,note_on,81,66,0
1,note_on,81,0,240
1,note_on,72,0,0
1,note_on,78,0,0
1,note_on,76,58,0
1,note_on,82,70,0
1,note_on,79,58,0
1,note_on,79,0,120
1,note_on,82,0,0
1,note_on,76,0,0
1,note_on,79,71,120
1,note_on,76,71,0
1,note_on,82,86,0
1,note_on,76,0,1440
1,note_on,79,0,0
1,note_on,82,0,120
1,note_on,84,63,0
1,note_on,86,66,120
1,note_on,84,0,12
1,note_on,84,65,108
1,note_on,86,0,12
1,note_on,82,63,108
1,note_on,84,0,12
1,note_on,81,62,108
1,note_on,82,0,12
1,note_on,79,62,108
1,note_on,81,0,12
1,note_on,81,64,108
1,note_on,79,0,12
1,note_on,82,67,108
1,note_on,81,0,12
1,note_on,81,66,108
1,note_on,82,0,12
1,note_on,79,64,108
1,note_on,81,0,12
1,note_on,77,62,108
1,note_on,79,0,12
1,note_on,76,63,108
1,note_on,77,0,12
1,note_on,77,63,108
1,note_on,76,0,12
1,note_on,79,64,108
1,note_on,77,0,12
1,note_on,77,64,108
1,note_on,79,0,12
1,note_on,76,62,108
1,note_on,77,0,12
1,note_on,74,60,108
1,note_on,76,0,12
1,note_on,72,62,108
1,note_on,74,0,12
1,note_on,73,62,108
1,note_on,72,0,12
1,note_on,74,64,108
1,note_on,73,0,12
1,note_on,72,63,108
1,note_on,74,0,12
1,note_on,70,61,108
1,note_on,72,0,12
1,note_on,69,60,108
1,note_on,70,0,12
1,note_on,67,59,108
1,note_on,69,0,12
1,note_on,69,61,108
1,note_on,67,0,12
1,note_on,70,64,108
1,note_on,69,0,12
1,note_on,69,63,108
1,note_on,70,0,12
1,note_on,67,61,108
1,note_on,69,0,12
1,note_on,65,60,108
1,note_on,67,0,12
1,note_on,64,60,108
1,note_on,65,0,12
1,note_on,65,62,108
1,note_on,64,0,12
1,note_on,67,63,108
1,note_on,65,0,12
1,note_on,65,62,108
1,note_on,67,0,12
1,note_on,64,60,108
1,note_on,65,0,12
1,note_on,62,59,108
1,note_on,64,0,12
1,note_on,62,0,108
1,note_on,84,66,120
1,note_on,83,68,120
1,note_on,84,0,12
1,note_on,84,69,108
1,note_on,83,0,12
1,note_on,89,70,108
1,note_on,84,0,12
1,note_on,84,63,108
1,note_on,89,0,12
1,note_on,82,70,108
1,note_on,84,0,12
1,note_on,81,66,108
1,note_on,82,0,12
1,note_on,80,64,108
1,note_on,81,0,12
1,note_on,81,64,108
1,note_on,80,0,12
1,note_on,84,70,108
1,note_on,81,0,12
1,note_on,81,64,108
1,note_on,84,0,12
1,note_on,79,70,108
1,note_on,81,0,12
1,note_on,77,64,108
1,note_on,79,0,12
1,note_on,76,64,108
1,note_on,77,0,12
1,note_on,77,64,108
1,note_on,76,0,12
1,note_on,81,70,108
1,note_on,77,0,12
1,note_on,77,65,108
1,note_on,81,0,12
1,note_on,74,70,108
1,note_on,77,0,12
1,note_on,72,65,108
1,note_on,74,0,12
1,note_on,71,65,108
1,note_on,72,0,12
1,note_on,72,65,108
1,note_on,71,0,12
1,note_on,77,70,108
1,note_on,72,0,12
1,note_on,72,65,108
1,note_on,77,0,12
1,note_on,70,70,108
1,note_on,72,0,12
1,note_on,69,66,108
1,note_on,70,0,12
1,note_on,68,66,108
1,note_on,69,0,12
1,note_on,69,66,108
1,note_on,68,0,12
1,note_on,72,70,108
1,note_on,69,0,12
1,note_on,69,64,108
1,note_on,72,0,12
1,note_on,65,70,108
1,note_on,69,0,12
1,note_on,65,0,108
1,note_on,77,64,0
1,note_on,77,0,120
1,note_on,64,70,0
1,note_on,64,0,120
1,note_on,77,64,0
1,note_on,77,0,120
1,note_on,65,70,0
1,note_on,65,0,120
1,note_on,77,64,0
1,note_on,77,0,120
1,note_on,67,70,0
1,note_on,67,0,120
1,note_on,77,64,0
1,note_on,77,0,120
1,note_on,65,65,0
1,note_on,65,0,120
1,note_on,77,58,0
1,note_on,77,0,120
1,note_on,67,67,0
1,note_on,67,0,120
1,note_on,77,61,0
1,note_on,77,0,120
1,note_on,69,70,0
1,note_on,69,0,120
1,note_on,77,60,0
1,note_on,77,0,120
1,note_on,67,66,0
1,note_on,67,0,120
1,note_on,77,62,0
1,note_on,77,0,120
1,note_on,69,67,0
1,note_on,69,0,120
1,note_on,77,62,0
1,note_on,77,0,120
1,note_on,70,74,0
1,note_on,70,0,120
1,note_on,77,61,0
1,note_on,77,0,120
1,note_on,70,65,0
1,note_on,70,0,120
1,note_on,77,61,0
1,note_on,77,0,120
1,note_on,69,65,0
1,note_on,69,0,120
1,note_on,77,60,0
1,note_on,77,0,120
1,note_on,70,70,0
1,note_on,70,0,120
1,note_on,77,60,0
1,note_on,77,0,120
1,note_on,70,65,0
1,note_on,70,0,120
1,note_on,77,60,0
1,note_on,77,0,120
1,note_on,69,65,0
1,note_on,69,0,120
1,note_on,77,54,0
1,note_on,77,0,120
1,note_on,68,49,0
1,note_on,68,0,120
1,note_on,77,41,0
1,note_on,77,0,120
1,note_on,68,49,0
1,note_on,68,0,120
1,note_on,77,42,0
1,note_on,77,0,120
1,note_on,68,49,0
1,note_on,68,0,120
1,note_on,77,40,0
1,note_on,77,0,120
1,note_on,67,48,0
1,note_on,76,48,0
1,note_on,76,0,240
1,note_on,67,0,0
1,note_on,84,66,120
1,note_on,83,68,120
1,note_on,84,0,12
1,note_on,84,69,108
1,note_on,83,0,12
1,note_on,89,70,108
1,note_on,84,0,12
1,note_on,84,63,108
1,note_on,89,0,12
1,note_on,82,70,108
1,note_on,84,0,12
1,note_on,81,66,108
1,note_on,82,0,12
1,note_on,80,64,108
1,note_on,81,0,12
1,note_on,81,64,108
1,note_on,80,0,12
1,note_on,84,70,108
1,note_on,81,0,12
1,note_on,81,64,108
1,note_on,84,0,12
1,note_on,79,70,108
1,note_on,81,0,12
1,note_on,77,64,108
1,note_on,79,0,12
1,note_on,76,64,108
1,note_on,77,0,12
1,note_on,77,64,108
1,note_on,76,0,12
1,note_on,81,70,108
1,note_on,77,0,12
1,note_on,77,65,108
1,note_on,81,0,12
1,note_on,74,70,108
1,note_on,77,0,12
1,note_on,72,65,108
1,note_on,74,0,12
1,note_on,71,65,108
1,note_on,72,0,12
1,note_on,72,65,108
1,note_on,71,0,12
1,note_on,77,70,108
1,note_on,72,0,12
1,note_on,72,65,108
1,note_on,77,0,12
1,note_on,70,70,108
1,note_on,72,0,12
1,note_on,69,66,108
1,note_on,70,0,12
1,note_on,68,66,108
1,note_on,69,0,12
1,note_on,69,66,108
1,note_on,68,0,12
1,note_on,72,70,108
1,note_on,69,0,12
1,note_on,69,64,108
1,note_on,72,0,12
1,note_on,65,70,108
1,note_on,69,0,12
1,note_on,65,0,108
1,note_on,77,64,0
1,note_on,77,0,120
1,note_on,64,70,0
1,note_on,64,0,120
1,note_on,77,64,0
1,note_on,77,0,120
1,note_on,65,70,0
1,note_on,65,0,120
1,note_on,77,64,0
1,note_on,77,0,120
1,note_on,67,70,0
1,note_on,67,0,120
1,note_on,77,64,0
1,note_on,77,0,120
1,note_on,65,65,0
1,note_on,65,0,120
1,note_on,77,58,0
1,note_on,77,0,120
1,note_on,67,67,0
1,note_on,67,0,120
1,note_on,77,61,0
1,note_on,77,0,120
1,note_on,69,70,0
1,note_on,69,0,120
1,note_on,77,60,0
1,note_on,77,0,120
1,note_on,67,66,0
1,note_on,67,0,120
1,note_on,77,62,0
1,note_on,77,0,120
1,note_on,69,67,0
1,note_on,69,0,120
1,note_on,77,62,0
1,note_on,77,0,120
1,note_on,70,74,0
1,note_on,70,0,120
1,note_on,77,61,0
1,note_on,77,0,120
1,note_on,70,65,0
1,note_on,70,0,120
1,note_on,77,61,0
1,note_on,77,0,120
1,note_on,69,65,0
1,note_on,69,0,120
1,note_on,77,60,0
1,note_on,77,0,120
1,note_on,70,70,0
1,note_on,70,0,120
1,note_on,77,60,0
1,note_on,77,0,120
1,note_on,70,65,0
1,note_on,70,0,120
1,note_on,77,60,0
1,note_on,77,0,120
1,note_on,69,65,0
1,note_on,69,0,120
1,note_on,77,46,0
1,note_on,77,0,120
1,note_on,68,44,0
1,note_on,68,0,120
1,note_on,77,36,0
1,note_on,77,0,120
1,note_on,67,42,480
1,note_on,67,0,120
1,note_on,76,34,0
1,note_on,76,0,120
1,note_on,66,43,480
1,note_on,66,0,120
1,note_on,75,36,0
1,note_on,75,0,120
1,note_on,62,58,720
1,note_on,62,0,120
1,note_on,67,59,0
1,note_on,67,0,120
1,note_on,70,60,0
1,note_on,70,0,120
1,note_on,74,61,0
1,note_on,74,0,120
1,note_on,72,62,0
1,note_on,70,62,120
1,note_on,72,0,12
1,note_on,69,60,108
1,note_on,70,0,12
1,note_on,67,59,108
1,note_on,69,0,12
1,note_on,65,57,108
1,note_on,67,0,12
1,note_on,64,55,108
1,note_on,65,0,12
1,note_on,65,58,108
1,note_on,64,0,12
1,note_on,65,0,108
1,note_on,60,49,120
1,note_on,60,0,240
1,note_on,60,49,0
1,note_on,60,0,180
1,note_on,64,41,0
1,note_on,64,0,60
1,note_on,70,49,0
1,note_on,70,0,960
1,note_on,69,43,0
1,note_on,69,0,120
1,note_on,67,43,120
1,note_on,67,0,120
1,note_on,67,49,120
1,note_on,67,0,240
1,note_on,65,45,0
1,note_on,65,0,480
1,note_on,65,45,0
1,note_on,65,0,660
1,note_on,64,41,0
1,note_on,64,0,60
1,note_on,70,49,0
1,note_on,70,0,960
1,note_on,69,43,0
1,note_on,69,0,120
1,note_on,67,43,120
1,note_on,67,0,120
1,note_on,71,51,120
1,note_on,71,0,720
1,note_on,72,45,0
1,note_on,72,0,240
1,note_on,64,41,420
1,note_on,64,0,60
1,note_on,70,49,0
1,note_on,70,0,960
1,note_on,69,43,0
1,note_on,69,0,120
1,note_on,67,43,120
1,note_on,67,0,120
1,note_on,65,54,120
1,note_on,65,0,480
1,note_on,69,60,0
1,note_on,69,0,720
1,note_on,72,60,0
1,note_on,72,0,720
1,note_on,70,58,0
1,note_on,70,0,720
1,note_on,67,50,0
1,note_on,67,0,240
1,note_on,65,56,0
1,note_on,65,0,240
1,note_on,73,69,480
1,note_on,85,82,0
1,note_on,85,0,720
1,note_on,73,0,0
1,note_on,74,74,0
1,note_on,86,88,0
1,note_on,86,0,720
1,note_on,74,0,0
1,note_on,84,84,0
1,note_on,74,71,0
1,note_on,74,0,720
1,note_on,84,0,0
1,note_on,74,72,0
1,note_on,82,85,0
1,note_on,82,0,720
1,note_on,74,0,0
1,note_on,74,65,0
1,note_on,81,76,0
1,note_on,81,0,720
1,note_on,74,0,0
1,note_on,79,79,0
1,note_on,74,67,0
1,note_on,74,0,720
1,note_on,79,0,0
1,note_on,72,65,0
1,note_on,78,76,0
1,note_on,74,65,0
1,note_on,74,0,720
1,note_on,78,0,0
1,note_on,72,0,0
1,note_on,79,65,0
1,note_on,79,0,120
1,note_on,74,54,0
1,note_on,74,0,120
1,note_on,70,54,0
1,note_on,70,0,120
1,note_on,74,54,0
1,note_on,74,0,120
1,note_on,79,65,0
1,note_on,79,0,120
1,note_on,74,54,0
1,note_on,74,0,120
1,note_on,81,65,0
1,note_on,81,0,120
1,note_on,74,54,0
1,note_on,74,0,120
1,note_on,72,54,0
1,note_on,72,0,120
1,note_on,74,54,0
1,note_on,74,0,120
1,note_on,81,65,0
1,note_on,81,0,120
1,note_on,74,55,0
1,note_on,74,0,120
1,note_on,82,65,0
1,note_on,82,0,120
1,note_on,79,55,0
1,note_on,79,0,120
1,note_on,74,55,0
1,note_on,74,0,120
1,note_on,79,55,0
1,note_on,79,0,120
1,note_on,82,65,0
1,note_on,82,0,120
1,note_on,79,55,0
1,note_on,79,0,120
1,note_on,83,65,0
1,note_on,83,0,120
1,note_on,79,55,0
1,note_on,79,0,120
1,note_on,74,55,0
1,note_on,74,0,120
1,note_on,79,55,0
1,note_on,79,0,120
1,note_on,83,65,0
1,note_on,83,0,120
1,note_on,79,56,0
1,note_on,79,0,120
1,note_on,84,65,0
1,note_on,84,0,480
1,note_on,86,59,0
1,note_on,86,0,120
1,note_on,84,59,0
1,note_on,84,0,120
1,note_on,82,65,0
1,note_on,82,0,480
1,note_on,84,57,0
1,note_on,84,0,120
1,note_on,82,57,0
1,note_on,82,0,120
1,note_on,81,65,0
1,note_on,81,0,480
1,note_on,82,57,0
1,note_on,82,0,120
1,note_on,81,57,0
1,note_on,81,0,120
1,note_on,79,65,0
1,note_on,79,0,480
1,note_on,81,59,0
1,note_on,81,0,120
1,note_on,79,59,0
1,note_on,79,0,120
1,note_on,77,65,0
1,note_on,77,0,480
1,note_on,79,59,0
1,note_on,79,0,120
1,note_on,77,59,0
1,note_on,77,0,120
1,note_on,76,65,0
1,note_on,76,0,480
1,note_on,77,56,0
1,note_on,77,0,120
1,note_on,76,56,0
1,note_on,76,0,120
1,note_on,79,62,0
1,note_on,77,54,120
1,note_on,79,0,12
1,note_on,76,54,108
1,note_on,77,0,12
1,note_on,77,54,108
1,note_on,76,0,12
1,note_on,76,53,108
1,note_on,77,0,12
1,note_on,77,55,108
1,note_on,76,0,12
1,note_on,81,59,108
1,note_on,77,0,12
1,note_on,79,55,108
1,note_on,81,0,12
1,note_on,78,55,108
1,note_on,79,0,12
1,note_on,79,55,108
1,note_on,78,0,12
1,note_on,78,55,108
1,note_on,79,0,12
1,note_on,79,55,108
1,note_on,78,0,12
1,note_on,81,59,108
1,note_on,79,0,12
1,note_on,79,54,108
1,note_on,81,0,12
1,note_on,77,54,108
1,note_on,79,0,12
1,note_on,79,54,108
1,note_on,77,0,12
1,note_on,81,54,108
1,note_on,79,0,12
1,note_on,82,54,108
1,note_on,81,0,12
1,note_on,84,59,108
1,note_on,82,0,12
1,note_on,82,55,108
1,note_on,84,0,12
1,note_on,81,55,108
1,note_on,82,0,12
1,note_on,82,55,108
1,note_on,81,0,12
1,note_on,84,55,108
1,note_on,82,0,12
1,note_on,85,55,108
1,note_on,84,0,12
1,note_on,86,59,108
1,note_on,85,0,12
1,note_on,86,0,108
1,note_on,74,55,0
1,note_on,86,55,120
1,note_on,74,0,12
1,note_on,84,55,108
1,note_on,86,0,12
1,note_on,82,55,108
1,note_on,84,0,12
1,note_on,81,54,108
1,note_on,82,0,12
1,note_on,79,59,108
1,note_on,81,0,12
1,note_on,79,0,108
1,note_on,78,54,0
1,note_on,79,63,120
1,note_on,78,0,12
1,note_on,81,62,108
1,note_on,79,0,12
1,note_on,82,60,108
1,note_on,81,0,12
1,note_on,83,59,108
1,note_on,82,0,12
1,note_on,84,59,108
1,note_on,83,0,12
1,note_on,84,0,108
1,note_on,72,60,0
1,note_on,72,0,120
1,note_on,84,60,0
1,note_on,84,0,120
1,note_on,82,60,0
1,note_on,82,0,120
1,note_on,81,60,0
1,note_on,81,0,120
1,note_on,79,59,0
1,note_on,79,0,120
1,note_on,77,59,0
1,note_on,77,0,120
1,note_on,76,56,0
1,note_on,77,63,120
1,note_on,76,0,12
1,note_on,79,62,108
1,note_on,77,0,12
1,note_on,80,60,108
1,note_on,79,0,12
1,note_on,81,59,108
1,note_on,80,0,12
1,note_on,81,0,108
1,note_on,82,59,0
1,note_on,82,0,120
1,note_on,84,60,0
1,note_on,84,0,120
1,note_on,82,60,0
1,note_on,82,0,120
1,note_on,81,60,0
1,note_on,81,0,120
1,note_on,79,60,0
1,note_on,79,0,120
1,note_on,77,59,0
1,note_on,77,0,120
1,note_on,76,59,0
1,note_on,76,0,120
1,note_on,77,56,0
1,note_on,76,63,120
1,note_on,77,0,12
1,note_on,74,62,108
1,note_on,76,0,12
1,note_on,72,60,108
1,note_on,74,0,12
1,note_on,70,59,108
1,note_on,72,0,12
1,note_on,69,56,108
1,note_on,70,0,12
1,note_on,69,0,108
1,note_on,72,61,0
1,note_on,72,0,120
1,note_on,77,68,0
1,note_on,77,0,120
1,note_on,79,62,0
1,note_on,79,0,120
1,note_on,77,63,0
1,note_on,77,0,120
1,note_on,76,63,0
1,note_on,76,0,120
1,note_on,74,60,0
1,note_on,74,0,120
1,note_on,72,53,0
1,note_on,70,59,120
1,note_on,72,0,12
1,note_on,69,54,108
1,note_on,70,0,12
1,note_on,67,54,108
1,note_on,69,0,12
1,note_on,65,54,108
1,note_on,67,0,12
1,note_on,64,59,108
1,note_on,65,0,12
1,note_on,64,0,108
1,note_on,65,58,0
1,note_on,67,62,120
1,note_on,65,0,12
1,note_on,65,61,108
1,note_on,67,0,12
1,note_on,64,60,108
1,note_on,65,0,12
1,note_on,62,59,108
1,note_on,64,0,12
1,note_on,60,57,108
1,note_on,62,0,12
1,note_on,60,0,120
1,note_on,68,49,588
1,note_on,68,0,960
1,note_on,67,43,0
1,note_on,67,0,120
1,note_on,65,43,120
1,note_on,65,0,120
1,note_on,71,49,120
1,note_on,71,0,480
1,note_on,72,43,0
1,note_on,72,0,240
1,note_on,67,43,0
1,note_on,67,0,480
1,note_on,73,58,240
1,note_on,73,0,960
1,note_on,72,49,0
1,note_on,72,0,120
1,note_on,70,49,120
1,note_on,70,0,120
1,note_on,68,60,120
1,note_on,68,0,240
1,note_on,70,42,0
1,note_on,70,0,80
1,note_on,68,42,0
1,note_on,68,0,80
1,note_on,67,42,0
1,note_on,67,0,80
1,note_on,68,51,0
1,note_on,68,0,120
1,note_on,70,44,0
1,note_on,70,0,120
1,note_on,72,51,0
1,note_on,72,0,480
1,note_on,77,66,240
1,note_on,77,0,720
1,note_on,75,54,0
1,note_on,75,0,480
1,note_on,77,50,0
1,note_on,77,0,240
1,note_on,75,57,0
1,note_on,75,0,480
1,note_on,73,52,0
1,note_on,73,0,240
1,note_on,72,55,0
1,note_on,72,0,720
1,note_on,70,59,0
1,note_on,70,0,480
1,note_on,68,53,0
1,note_on,68,0,240
1,note_on,67,57,0
1,note_on,67,0,480
1,note_on,65,47,0
1,note_on,65,0,240
1,note_on,68,53,0
1,note_on,68,0,720
1,note_on,67,45,0
1,note_on,67,0,240
1,note_on,80,49,480
1,note_on,68,41,0
1,note_on,68,0,960
1,note_on,80,0,0
1,note_on,67,36,0
1,note_on,79,43,0
1,note_on,79,0,120
1,note_on,67,0,0
1,note_on,77,43,120
1,note_on,65,36,0
1,note_on,65,0,120
1,note_on,77,0,0
1,note_on,71,41,120
1,note_on,83,49,0
1,note_on,83,0,480
1,note_on,71,0,0
1,note_on,84,43,0
1,note_on,72,36,0
1,note_on,72,0,240
1,note_on,84,0,0
1,note_on,67,36,0
1,note_on,79,43,0
1,note_on,79,0,480
1,note_on,67,0,0
1,note_on,73,49,240
1,note_on,85,58,0
1,note_on,85,0,960
1,note_on,73,0,0
1,note_on,72,41,0
1,note_on,84,49,0
1,note_on,84,0,120
1,note_on,72,0,0
1,note_on,82,49,120
1,note_on,70,41,0
1,note_on,70,0,120
1,note_on,82,0,0
1,note_on,81,60,120
1,note_on,69,51,0
1,note_on,69,0,480
1,note_on,81,0,0
1,note_on,84,51,0
1,note_on,72,43,0
1,note_on,72,0,240
1,note_on,84,0,0
1,note_on,82,51,0
1,note_on,70,43,0
1,note_on,70,0,480
1,note_on,82,0,0
1,note_on,83,71,240
1,note_on,71,56,0
1,note_on,71,0,720
1,note_on,83,0,0
1,note_on,72,56,0
1,note_on,84,71,0
1,note_on,84,0,720
1,note_on,72,0,0
1,note_on,85,69,0
1,note_on,73,54,0
1,note_on,73,0,720
1,note_on,85,0,0
1,note_on,72,56,0
1,note_on,84,71,0
1,note_on,84,0,240
1,note_on,72,0,0
1,note_on,89,53,360
1,note_on,89,0,120
1,note_on,72,51,0
1,note_on,77,64,0
1,note_on,77,0,660
1,note_on,80,40,0
1,note_on,80,0,60
1,note_on,72,0,0
1,note_on,76,51,0
1,note_on,79,51,0
1,note_on,79,0,720
1,note_on,76,0,0
1,note_on,77,74,0
1,note_on,77,0,120
1,note_on,72,62,0
1,note_on,72,0,120
1,note_on,71,62,0
1,note_on,71,0,120
1,note_on,72,62,0
1,note_on,72,0,120
1,note_on,74,69,0
1,note_on,74,0,120
1,note_on,72,62,0
1,note_on,72,0,120
1,note_on,70,65,0
1,note_on,70,0,120
1,note_on,72,60,0
1,note_on,72,0,120
1,note_on,70,65,0
1,note_on,70,0,120
1,note_on,72,59,0
1,note_on,72,0,120
1,note_on,70,65,0
1,note_on,70,0,120
1,note_on,72,59,0
1,note_on,72,0,120
1,note_on,69,74,0
1,note_on,69,0,120
1,note_on,72,62,0
1,note_on,72,0,120
1,note_on,71,62,0
1,note_on,71,0,120
1,note_on,72,62,0
1,note_on,72,0,120
1,note_on,77,74,0
1,note_on,77,0,120
1,note_on,72,62,0
1,note_on,72,0,120
1,note_on,70,65,0
1,note_on,70,0,120
1,note_on,72,60,0
1,note_on,72,0,120
1,note_on,70,65,0
1,note_on,70,0,120
1,note_on,72,59,0
1,note_on,72,0,120
1,note_on,70,65,0
1,note_on,70,0,120
1,note_on,72,59,0
1,note_on,72,0,120
1,note_on,69,74,0
1,note_on,69,0,120
1,note_on,84,62,0
1,note_on,84,0,120
1,note_on,83,62,0
1,note_on,83,0,120
1,note_on,84,62,0
1,note_on,84,0,120
1,note_on,86,72,0
1,note_on,86,0,120
1,note_on,84,62,0
1,note_on,84,0,120
1,note_on,82,65,0
1,note_on,82,0,120
1,note_on,84,60,0
1,note_on,84,0,120
1,note_on,82,65,0
1,note_on,82,0,120
1,note_on,84,59,0
1,note_on,84,0,120
1,note_on,82,65,0
1,note_on,82,0,120
1,note_on,84,59,0
1,note_on,84,0,120
1,note_on,81,74,0
1,note_on,81,0,120
1,note_on,84,62,0
1,note_on,84,0,120
1,note_on,83,62,0
1,note_on,83,0,120
1,note_on,84,62,0
1,note_on,84,0,120
1,note_on,89,69,0
1,note_on,89,0,120
1,note_on,84,62,0
1,note_on,84,0,120
1,note_on,82,65,0
1,note_on,82,0,120
1,note_on,84,60,0
1,note_on,84,0,120
1,note_on,82,65,0
1,note_on,82,0,120
1,note_on,84,59,0
1,note_on,84,0,120
1,note_on,82,65,0
1,note_on,82,0,120
1,note_on,84,59,0
1,note_on,84,0,120
1,note_on,81,74,0
1,note_on,81,0,120
1,note_on,84,62,0
1,note_on,84,0,120
1,note_on,89,71,0
1,note_on,89,0,120
1,note_on,81,60,0
1,note_on,81,0,120
1,note_on,79,70,0
1,note_on,79,0,120
1,note_on,88,62,0
1,note_on,88,0,120
1,note_on,77,70,0
1,note_on,77,0,120
1,note_on,86,62,0
1,note_on,86,0,120
1,note_on,76,69,0
1,note_on,76,0,120
1,note_on,84,60,0
1,note_on,84,0,120
1,note_on,74,67,0
1,note_on,74,0,120
1,note_on,82,58,0
1,note_on,82,0,120
1,note_on,72,69,0
1,note_on,72,0,120
1,note_on,81,62,0
1,note_on,81,0,120
1,note_on,70,67,0
1,note_on,70,0,120
1,note_on,79,59,0
1,note_on,79,0,120
1,note_on,69,66,0
1,note_on,69,0,120
1,note_on,77,56,0
1,note_on,77,0,120
1,note_on,67,62,0
1,note_on,67,0,120
1,note_on,76,54,0
1,note_on,76,0,120
1,note_on,65,63,0
1,note_on,65,0,120
1,note_on,74,55,0
1,note_on,74,0,120
1,note_on,64,62,0
1,note_on,64,0,120
1,note_on,72,51,0
1,note_on,72,0,120
1,note_on,71,55,0
1,note_on,62,45,0
1,note_on,62,0,720
1,note_on,71,0,0
1,note_on,70,55,0
1,note_on,61,45,0
1,note_on,61,0,720
1,note_on,70,0,0
1,note_on,82,55,0
1,note_on,73,45,0
1,note_on,73,0,720
1,note_on,82,0,0
1,note_on,76,55,0
1,note_on,67,45,0
1,note_on,67,0,720
1,note_on,76,0,0
1,note_on,84,49,240
1,note_on,84,0,120
1,note_on,84,49,120
1,note_on,84,0,120
1,note_on,86,49,360
1,note_on,86,0,120
1,note_on,86,49,120
1,note_on,86,0,120
1,note_on,72,39,120
1,note_on,77,47,0
1,note_on,77,0,660
1,note_on,72,0,0
1,note_on,81,40,0
1,note_on,81,0,60
1,note_on,79,44,0
1,note_on,76,37,0
1,note_on,76,0,720
1,note_on,79,0,0
1,note_on,77,74,0
1,note_on,77,0,120
1,note_on,72,62,0
1,note_on,72,0,120
1,note_on,71,62,0
1,note_on,71,0,120
1,note_on,72,62,0
1,note_on,72,0,120
1,note_on,74,68,0
1,note_on,74,0,120
1,note_on,72,62,0
1,note_on,72,0,120
1,note_on,70,65,0
1,note_on,70,0,120
1,note_on,72,60,0
1,note_on,72,0,120
1,note_on,70,65,0
1,note_on,70,0,120
1,note_on,72,59,0
1,note_on,72,0,120
1,note_on,70,65,0
1,note_on,70,0,120
1,note_on,72,59,0
1,note_on,72,0,120
1,note_on,69,74,0
1,note_on,69,0,120
1,note_on,72,62,0
1,note_on,72,0,120
1,note_on,71,62,0
1,note_on,71,0,120
1,note_on,72,62,0
1,note_on,72,0,120
1,note_on,77,74,0
1,note_on,77,0,120
1,note_on,72,62,0
1,note_on,72,0,120
1,note_on,70,65,0
1,note_on,70,0,120
1,note_on,72,60,0
1,note_on,72,0,120
1,note_on,70,65,0
1,note_on,70,0,120
1,note_on,72,59,0
1,note_on,72,0,120
1,note_on,70,65,0
1,note_on,70,0,120
1,note_on,72,59,0
1,note_on,72,0,120
1,note_on,69,74,0
1,note_on,69,0,120
1,note_on,84,62,0
1,note_on,84,0,120
1,note_on,83,62,0
1,note_on,83,0,120
1,note_on,84,62,0
1,note_on,84,0,120
1,note_on,86,72,0
1,note_on,86,0,120
1,note_on,84,62,0
1,note_on,84,0,120
1,note_on,82,65,0
1,note_on,82,0,120
1,note_on,84,60,0
1,note_on,84,0,120
1,note_on,82,65,0
1,note_on,82,0,120
1,note_on,84,59,0
1,note_on,84,0,120
1,note_on,82,65,0
1,note_on,82,0,120
1,note_on,84,59,0
1,note_on,84,0,120
1,note_on,81,74,0
1,note_on,81,0,120
1,note_on,84,62,0
1,note_on,84,0,120
1,note_on,83,62,0
1,note_on,83,0,120
1,note_on,84,62,0
1,note_on,84,0,120
1,note_on,89,72,0
1,note_on,89,0,120
1,note_on,84,62,0
1,note_on,84,0,120
1,note_on,82,65,0
1,note_on,82,0,120
1,note_on,84,60,0
1,note_on,84,0,120
1,note_on,82,65,0
1,note_on,82,0,120
1,note_on,84,59,0
1,note_on,84,0,120
1,note_on,82,65,0
1,note_on,82,0,120
1,note_on,84,59,0
1,note_on,84,0,120
1,note_on,81,74,0
1,note_on,81,0,120
1,note_on,84,62,0
1,note_on,84,0,120
1,note_on,89,71,0
1,note_on,89,0,120
1,note_on,81,60,0
1,note_on,81,0,120
1,note_on,79,70,0
1,note_on,79,0,120
1,note_on,88,62,0
1,note_on,88,0,120
1,note_on,77,70,0
1,note_on,77,0,120
1,note_on,86,62,0
1,note_on,86,0,120
1,note_on,76,69,0
1,note_on,76,0,120
1,note_on,84,60,0
1,note_on,84,0,120
1,note_on,74,67,0
1,note_on,74,0,120
1,note_on,82,58,0
1,note_on,82,0,120
1,note_on,72,69,0
1,note_on,72,0,120
1,note_on,81,62,0
1,note_on,81,0,120
1,note_on,70,67,0
1,note_on,70,0,120
1,note_on,79,59,0
1,note_on,79,0,120
1,note_on,69,66,0
1,note_on,69,0,120
1,note_on,77,56,0
1,note_on,77,0,120
1,note_on,67,64,0
1,note_on,67,0,120
1,note_on,76,55,0
1,note_on,76,0,120
1,note_on,65,63,0
1,note_on,65,0,120
1,note_on,74,55,0
1,note_on,74,0,120
1,note_on,64,62,0
1,note_on,64,0,120
1,note_on,72,51,0
1,note_on,72,0,120
1,note_on,71,55,0
1,note_on,62,45,0
1,note_on,62,0,720
1,note_on,71,0,0
1,note_on,70,55,0
1,note_on,61,45,0
1,note_on,61,0,720
1,note_on,70,0,0
1,note_on,82,55,0
1,note_on,73,45,0
1,note_on,73,0,720
1,note_on,82,0,0
1,note_on,76,55,0
1,note_on,67,45,0
1,note_on,67,0,720
1,note_on,76,0,0
1,note_on,84,49,240
1,note_on,84,0,120
1,note_on,84,49,120
1,note_on,84,0,120
1,note_on,86,49,360
1,note_on,86,0,120
1,note_on,86,49,120
1,note_on,86,0,120
1,note_on,72,39,120
1,note_on,77,47,0
1,note_on,77,0,720
1,note_on,76,37,0
1,note_on,76,0,720
1,note_on,72,0,0
1,note_on,83,71,0
1,note_on,83,0,120
1,note_on,84,55,0
1,note_on,83,55,120
1,note_on,84,0,12
1,note_on,84,55,108
1,note_on,83,0,12
1,note_on,83,55,108
1,note_on,84,0,12
1,note_on,84,55,108
1,note_on,83,0,12
1,note_on,84,0,108
1,note_on,85,62,0
1,note_on,86,55,120
1,note_on,85,0,12
1,note_on,85,55,108
1,note_on,86,0,12
1,note_on,86,55,108
1,note_on,85,0,12
1,note_on,88,59,108
1,note_on,86,0,12
1,note_on,89,54,108
1,note_on,88,0,12
1,note_on,89,0,108
1,note_on,72,39,0
1,note_on,77,47,0
1,note_on,77,0,660
1,note_on,81,37,0
1,note_on,81,0,60
1,note_on,72,0,0
1,note_on,79,43,0
1,note_on,76,43,0
1,note_on,76,0,480
1,note_on,79,0,120
1,note_on,77,37,0
1,note_on,77,0,120
1,note_on,77,71,0
1,note_on,81,64,120
1,note_on,77,0,12
1,note_on,84,67,108
1,note_on,81,0,12
1,note_on,89,68,108
1,note_on,84,0,12
1,note_on,88,69,108
1,note_on,89,0,12
1,note_on,86,69,108
1,note_on,88,0,12
1,note_on,84,71,108
1,note_on,86,0,12
1,note_on,86,67,108
1,note_on,84,0,12
1,note_on,84,67,108
1,note_on,86,0,12
1,note_on,82,67,108
1,note_on,84,0,12
1,note_on,81,67,108
1,note_on,82,0,12
1,note_on,79,67,108
1,note_on,81,0,12
1,note_on,79,0,108
1,note_on,77,71,0
1,note_on,81,64,120
1,note_on,77,0,12
1,note_on,79,64,108
1,note_on,81,0,12
1,note_on,77,68,108
1,note_on,79,0,12
1,note_on,76,64,108
1,note_on,77,0,12
1,note_on,74,64,108
1,note_on,76,0,12
1,note_on,72,69,108
1,note_on,74,0,12
1,note_on,74,63,108
1,note_on,72,0,12
1,note_on,72,63,108
1,note_on,74,0,12
1,note_on,70,63,108
1,note_on,72,0,12
1,note_on,69,63,108
1,note_on,70,0,12
1,note_on,67,63,108
1,note_on,69,0,12
1,note_on,67,0,108
1,note_on,65,71,0
1,note_on,69,63,120
1,note_on,65,0,12
1,note_on,67,63,108
1,note_on,69,0,12
1,note_on,65,63,108
1,note_on,67,0,12
1,note_on,64,63,108
1,note_on,65,0,12
1,note_on,62,64,108
1,note_on,64,0,12
1,note_on,60,71,108
1,note_on,62,0,12
1,note_on,62,64,108
1,note_on,60,0,12
1,note_on,60,64,108
1,note_on,62,0,12
1,note_on,58,64,108
1,note_on,60,0,12
1,note_on,57,64,108
1,note_on,58,0,12
1,note_on,55,64,108
1,note_on,57,0,12
1,note_on,55,0,108
1,note_on,53,81,0
1,note_on,53,0,120
1,note_on,57,70,120
1,note_on,57,0,120
1,note_on,60,70,120
1,note_on,60,0,120
1,note_on,65,78,120
1,note_on,65,0,120
1,note_on,69,70,120
1,note_on,69,0,120
1,note_on,72,70,120
1,note_on,72,0,120
1,note_on,77,88,120
1,note_on,77,0,240
1,note_on,81,75,480
1,note_on,84,90,0
1,note_on,72,75,0
1,note_on,72,0,480
1,note_on,84,0,0
1,note_on,81,0,0
1,note_on,87,94,240
1,note_on,77,79,0
1,note_on,84,81,0
1,note_on,84,0,480
1,note_on,77,0,0
1,note_on,87,0,0
1,note_on,86,86,960
1,note_on,77,74,0
1,note_on,82,74,0
1,note_on,82,0,480
1,note_on,77,0,0
1,note_on,86,0,0
1,note_on,80,74,960
1,note_on,86,86,0
1,note_on,89,74,0
1,note_on,77,74,0
1,note_on,77,0,480
1,note_on,80,0,0
1,note_on,86,0,0
1,note_on,89,0,0
1,note_on,60,39,960
1,note_on,65,47,0
1,note_on,65,0,1320
1,note_on,69,47,0
1,note_on,69,0,120
1,note_on,60,0,0
1,note_on,60,42,0
1,note_on,67,50,0
1,note_on,64,42,0
1,note_on,67,0,1200
1,note_on,65,41,0
1,note_on,65,0,240
1,note_on,64,0,0
1,note_on,65,46,0
1,note_on,65,0,240
1,note_on,60,0,0
1,note_on,57,71,240
1,note_on,57,0,240
1,note_on,58,78,0
1,note_on,58,0,120
1,note_on,67,73,120
1,note_on,67,0,120
1,note_on,59,72,120
1,note_on,59,0,120
1,note_on,60,78,120
1,note_on,60,0,120
1,note_on,69,73,120
1,note_on,69,0,120
1,note_on,61,73,120
1,note_on,61,0,120
1,note_on,62,78,120
1,note_on,62,0,120
1,note_on,70,72,120
1,note_on,70,0,120
1,note_on,64,72,120
1,note_on,64,0,120
1,note_on,82,68,120
1,note_on,82,0,960
1,note_on,81,62,0
1,note_on,81,0,120
1,note_on,79,61,0
1,note_on,79,0,120
1,note_on,77,59,0
1,note_on,77,0,120
1,note_on,76,57,0
1,note_on,76,0,120
1,note_on,77,56,0
1,note_on,77,0,120
1,note_on,79,49,120
1,note_on,79,0,120
1,note_on,81,54,120
1,note_on,81,0,120
1,note_on,69,46,120
1,note_on,72,46,0
1,note_on,72,0,480
1,note_on,69,0,0
1,note_on,70,40,0
1,note_on,67,40,0
1,note_on,67,0,240
1,note_on,70,0,0
1,note_on,70,46,0
1,note_on,67,46,0
1,note_on,67,0,720
1,note_on,70,0,0
1,note_on,65,41,0
1,note_on,69,41,0
1,note_on,69,0,240
1,note_on,65,0,0
1,note_on,57,71,960
1,note_on,57,0,240
1,note_on,58,78,0
1,note_on,58,0,120
1,note_on,67,73,120
1,note_on,67,0,120
1,note_on,59,72,120
1,note_on,59,0,120
1,note_on,60,78,120
1,note_on,60,0,120
1,note_on,69,73,120
1,note_on,69,0,120
1,note_on,61,73,120
1,note_on,61,0,120
1,note_on,62,78,120
1,note_on,62,0,120
1,note_on,70,72,120
1,note_on,70,0,120
1,note_on,64,72,120
1,note_on,64,0,120
1,note_on,82,68,120
1,note_on,82,0,960
1,note_on,81,62,0
1,note_on,81,0,120
1,note_on,79,61,0
1,note_on,79,0,120
1,note_on,77,59,0
1,note_on,77,0,120
1,note_on,76,57,0
1,note_on,76,0,120
1,note_on,77,56,0
1,note_on,77,0,60
1,note_on,79,49,0
1,note_on,79,0,60
1,note_on,81,49,0
1,note_on,81,0,60
1,note_on,74,46,540
1,note_on,74,0,60
1,note_on,76,39,0
1,note_on,76,0,60
1,note_on,77,39,0
1,note_on,77,0,60
1,note_on,60,37,540
1,note_on,65,44,0
1,note_on,65,0,600
1,note_on,69,39,0
1,note_on,69,0,120
1,note_on,67,44,0
1,note_on,64,36,0
1,note_on,64,0,480
1,note_on,67,0,0
1,note_on,65,41,0
1,note_on,65,0,240
1,note_on,60,0,0
1,note_on,65,41,0
1,note_on,69,39,480
1,note_on,69,0,240
1,note_on,65,0,0
1,note_on,64,37,0
1,note_on,72,44,0
1,note_on,72,0,240
1,note_on,70,39,0
1,note_on,70,0,240
1,note_on,67,39,0
1,note_on,67,0,240
1,note_on,64,0,0
1,note_on,65,44,0
1,note_on,60,40,240
1,note_on,60,0,236
1,note_on,69,40,4
1,note_on,69,0,240
1,note_on,65,0,0
1,note_on,64,37,0
1,note_on,72,44,0
1,note_on,72,0,240
1,note_on,70,40,0
1,note_on,70,0,240
1,note_on,67,40,0
1,note_on,67,0,240
1,note_on,64,0,0
1,note_on,65,44,0
1,note_on,65,0,240
1,note_on,60,41,0
1,note_on,60,0,236
1,note_on,69,41,4
1,note_on,69,0,240
1,note_on,65,44,0
1,note_on,65,0,240
1,note_on,60,40,0
1,note_on,60,0,237
1,note_on,69,40,3
1,note_on,69,0,240
1,note_on,67,42,0
1,note_on,58,36,0
1,note_on,58,0,720
1,note_on,67,0,0
1,note_on,65,36,0
1,note_on,57,31,0
1,note_on,57,0,240
1,note_on,65,0,0
1,note_on,79,66,120
1,note_on,78,68,120
1,note_on,79,0,12
1,note_on,79,69,108
1,note_on,78,0,12
1,note_on,84,70,108
1,note_on,79,0,12
1,note_on,79,63,108
1,note_on,84,0,12
1,note_on,77,70,108
1,note_on,79,0,12
1,note_on,75,66,108
1,note_on,77,0,12
1,note_on,74,64,108
1,note_on,75,0,12
1,note_on,75,64,108
1,note_on,74,0,12
1,note_on,79,70,108
1,note_on,75,0,12
1,note_on,75,64,108
1,note_on,79,0,12
1,note_on,74,70,108
1,note_on,75,0,12
1,note_on,72,64,108
1,note_on,74,0,12
1,note_on,71,64,108
1,note_on,72,0,12
1,note_on,72,64,108
1,note_on,71,0,12
1,note_on,75,70,108
1,note_on,72,0,12
1,note_on,72,65,108
1,note_on,75,0,12
1,note_on,68,70,108
1,note_on,72,0,12
1,note_on,67,65,108
1,note_on,68,0,12
1,note_on,66,65,108
1,note_on,67,0,12
1,note_on,67,65,108
1,note_on,66,0,12
1,note_on,72,70,108
1,note_on,67,0,12
1,note_on,67,65,108
1,note_on,72,0,12
1,note_on,65,70,108
1,note_on,67,0,12
1,note_on,63,66,108
1,note_on,65,0,12
1,note_on,62,66,108
1,note_on,63,0,12
1,note_on,63,66,108
1,note_on,62,0,12
1,note_on,67,70,108
1,note_on,63,0,12
1,note_on,63,64,108
1,note_on,67,0,12
1,note_on,60,70,108
1,note_on,63,0,12
1,note_on,60,0,108
1,note_on,72,64,0
1,note_on,72,0,120
1,note_on,59,70,0
1,note_on,59,0,120
1,note_on,72,64,0
1,note_on,72,0,120
1,note_on,60,70,0
1,note_on,60,0,120
1,note_on,72,64,0
1,note_on,72,0,120
1,note_on,62,70,0
1,note_on,62,0,120
1,note_on,72,64,0
1,note_on,72,0,120
1,note_on,60,65,0
1,note_on,60,0,120
1,note_on,72,58,0
1,note_on,72,0,120
1,note_on,62,67,0
1,note_on,62,0,120
1,note_on,72,61,0
1,note_on,72,0,120
1,note_on,64,70,0
1,note_on,64,0,120
1,note_on,72,60,0
1,note_on,72,0,120
1,note_on,62,66,0
1,note_on,62,0,120
1,note_on,72,62,0
1,note_on,72,0,120
1,note_on,64,67,0
1,note_on,64,0,120
1,note_on,72,62,0
1,note_on,72,0,120
1,note_on,65,74,0
1,note_on,65,0,120
1,note_on,72,61,0
1,note_on,72,0,120
1,note_on,65,65,0
1,note_on,65,0,120
1,note_on,72,61,0
1,note_on,72,0,120
1,note_on,63,65,0
1,note_on,63,0,120
1,note_on,72,60,0
1,note_on,72,0,120
1,note_on,65,70,0
1,note_on,65,0,120
1,note_on,72,60,0
1,note_on,72,0,120
1,note_on,65,65,0
1,note_on,65,0,120
1,note_on,72,60,0
1,note_on,72,0,120
1,note_on,63,65,0
1,note_on,63,0,120
1,note_on,72,54,0
1,note_on,72,0,120
1,note_on,62,49,0
1,note_on,72,43,120
1,note_on,72,0,120
1,note_on,63,52,0
1,note_on,62,0,10
1,note_on,72,45,110
1,note_on,72,0,120
1,note_on,63,0,0
1,note_on,62,55,0
1,note_on,72,52,120
1,note_on,72,0,120
1,note_on,63,59,0
1,note_on,62,0,10
1,note_on,72,59,110
1,note_on,72,0,120
1,note_on,63,0,0
1,note_on,65,66,0
1,note_on,72,55,120
1,note_on,72,0,120
1,note_on,63,52,0
1,note_on,65,0,10
1,note_on,72,43,110
1,note_on,72,0,120
1,note_on,63,0,0
1,note_on,62,50,0
1,note_on,72,44,120
1,note_on,72,0,120
1,note_on,63,54,0
1,note_on,62,0,10
1,note_on,72,49,110
1,note_on,72,0,120
1,note_on,63,0,0
1,note_on,62,57,0
1,note_on,72,53,120
1,note_on,72,0,120
1,note_on,63,59,0
1,note_on,62,0,10
1,note_on,72,55,110
1,note_on,72,0,120
1,note_on,63,0,0
1,note_on,65,64,0
1,note_on,72,54,120
1,note_on,72,0,120
1,note_on,63,56,0
1,note_on,65,0,10
1,note_on,72,43,110
1,note_on,72,0,120
1,note_on,63,0,0
1,note_on,62,60,0
1,note_on,62,0,90
1,note_on,66,51,510
1,note_on,66,0,120
1,note_on,72,55,0
1,note_on,72,0,90
1,note_on,62,48,30
1,note_on,62,0,120
1,note_on,66,51,0
1,note_on,66,0,120
1,note_on,69,53,0
1,note_on,69,0,120
1,note_on,72,56,0
1,note_on,72,0,90
1,note_on,78,53,30
1,note_on,78,0,120
1,note_on,84,62,0
1,note_on,84,0,120
1,note_on,82,61,0
1,note_on,82,0,120
1,note_on,81,60,0
1,note_on,81,0,120
1,note_on,79,59,0
1,note_on,79,0,120
1,note_on,78,58,0
1,note_on,78,0,120
1,note_on,79,55,0
1,note_on,79,0,120
1,note_on,78,59,0
1,note_on,78,0,120
1,note_on,79,55,0
1,note_on,79,0,120
1,note_on,78,58,0
1,note_on,78,0,120
1,note_on,75,57,0
1,note_on,75,0,120
1,note_on,74,56,0
1,note_on,74,0,120
1,note_on,72,55,0
1,note_on,72,0,120
1,note_on,71,49,0
1,note_on,77,43,120
1,note_on,77,0,120
1,note_on,72,52,0
1,note_on,71,0,10
1,note_on,77,45,110
1,note_on,77,0,120
1,note_on,72,0,0
1,note_on,71,55,0
1,note_on,77,52,120
1,note_on,77,0,120
1,note_on,72,62,0
1,note_on,71,0,10
1,note_on,77,60,110
1,note_on,77,0,120
1,note_on,72,0,0
1,note_on,73,67,0
1,note_on,77,55,120
1,note_on,77,0,120
1,note_on,72,52,0
1,note_on,73,0,10
1,note_on,77,43,110
1,note_on,77,0,120
1,note_on,72,0,0
1,note_on,71,50,0
1,note_on,77,44,120
1,note_on,77,0,120
1,note_on,72,54,0
1,note_on,71,0,10
1,note_on,77,49,110
1,note_on,77,0,120
1,note_on,72,0,0
1,note_on,71,57,0
1,note_on,77,53,120
1,note_on,77,0,120
1,note_on,72,63,0
1,note_on,71,0,10
1,note_on,77,55,110
1,note_on,77,0,120
1,note_on,72,0,0
1,note_on,73,68,0
1,note_on,77,54,120
1,note_on,77,0,120
1,note_on,72,56,0
1,note_on,73,0,10
1,note_on,77,43,110
1,note_on,77,0,120
1,note_on,72,0,0
1,note_on,71,60,0
1,note_on,71,0,90
1,note_on,71,51,510
1,note_on,71,0,120
1,note_on,77,55,0
1,note_on,77,0,90
1,note_on,67,48,30
1,note_on,67,0,120
1,note_on,71,51,0
1,note_on,71,0,120
1,note_on,74,53,0
1,note_on,74,0,120
1,note_on,77,56,0
1,note_on,77,0,90
1,note_on,83,53,30
1,note_on,83,0,120
1,note_on,89,62,0
1,note_on,89,0,120
1,note_on,87,61,0
1,note_on,87,0,120
1,note_on,86,60,0
1,note_on,86,0,120
1,note_on,84,59,0
1,note_on,84,0,120
1,note_on,83,58,0
1,note_on,83,0,120
1,note_on,80,55,0
1,note_on,80,0,120
1,note_on,79,59,0
1,note_on,79,0,120
1,note_on,78,55,0
1,note_on,78,0,120
1,note_on,79,58,0
1,note_on,79,0,120
1,note_on,80,57,0
1,note_on,80,0,120
1,note_on,79,56,0
1,note_on,79,0,120
1,note_on,77,55,0
1,note_on,77,0,120
1,note_on,76,49,0
1,note_on,67,43,120
1,note_on,67,0,120
1,note_on,77,52,0
1,note_on,76,0,10
1,note_on,67,45,110
1,note_on,67,0,120
1,note_on,77,0,0
1,note_on,76,55,0
1,note_on,67,52,120
1,note_on,67,0,120
1,note_on,77,59,0
1,note_on,76,0,10
1,note_on,67,53,110
1,note_on,67,0,120
1,note_on,77,0,0
1,note_on,76,59,0
1,note_on,67,55,120
1,note_on,67,0,120
1,note_on,77,52,0
1,note_on,76,0,10
1,note_on,67,43,110
1,note_on,67,0,120
1,note_on,77,0,0
1,note_on,76,50,0
1,note_on,67,44,120
1,note_on,67,0,120
1,note_on,77,54,0
1,note_on,76,0,10
1,note_on,67,49,110
1,note_on,67,0,120
1,note_on,77,0,0
1,note_on,76,57,0
1,note_on,67,53,120
1,note_on,67,0,120
1,note_on,77,61,0
1,note_on,76,0,10
1,note_on,67,55,110
1,note_on,67,0,120
1,note_on,77,0,0
1,note_on,76,60,0
1,note_on,67,50,120
1,note_on,67,0,120
1,note_on,77,56,0
1,note_on,76,0,10
1,note_on,67,43,110
1,note_on,67,0,120
1,note_on,77,0,0
1,note_on,76,60,0
1,note_on,76,0,90
1,note_on,64,51,510
1,note_on,64,0,120
1,note_on,70,55,0
1,note_on,70,0,90
1,note_on,60,48,30
1,note_on,60,0,120
1,note_on,64,51,0
1,note_on,64,0,120
1,note_on,67,53,0
1,note_on,67,0,120
1,note_on,70,56,0
1,note_on,70,0,90
1,note_on,76,53,30
1,note_on,76,0,120
1,note_on,82,62,0
1,note_on,82,0,120
1,note_on,81,61,0
1,note_on,81,0,120
1,note_on,79,60,0
1,note_on,79,0,120
1,note_on,77,59,0
1,note_on,77,0,120
1,note_on,76,58,0
1,note_on,76,0,120
1,note_on,74,55,0
1,note_on,74,0,120
1,note_on,72,59,0
1,note_on,72,0,120
1,note_on,74,55,0
1,note_on,74,0,120
1,note_on,72,58,0
1,note_on,72,0,120
1,note_on,70,57,0
1,note_on,70,0,120
1,note_on,69,56,0
1,note_on,69,0,120
1,note_on,67,55,0
1,note_on,67,0,120
1,note_on,65,49,0
1,note_on,75,43,120
1,note_on,75,0,120
1,note_on,66,52,0
1,note_on,65,0,10
1,note_on,75,45,110
1,note_on,75,0,120
1,note_on,66,0,0
1,note_on,65,55,0
1,note_on,75,52,120
1,note_on,75,0,120
1,note_on,66,62,0
1,note_on,65,0,10
1,note_on,75,56,110
1,note_on,75,0,120
1,note_on,66,0,0
1,note_on,68,65,0
1,note_on,75,55,120
1,note_on,75,0,120
1,note_on,66,52,0
1,note_on,68,0,10
1,note_on,75,43,110
1,note_on,75,0,120
1,note_on,66,0,0
1,note_on,65,50,0
1,note_on,75,44,120
1,note_on,75,0,120
1,note_on,66,54,0
1,note_on,65,0,10
1,note_on,75,49,110
1,note_on,75,0,120
1,note_on,66,0,0
1,note_on,65,57,0
1,note_on,75,53,120
1,note_on,75,0,120
1,note_on,66,63,0
1,note_on,65,0,10
1,note_on,75,55,110
1,note_on,75,0,120
1,note_on,66,0,0
1,note_on,68,66,0
1,note_on,75,54,120
1,note_on,75,0,120
1,note_on,66,56,0
1,note_on,68,0,10
1,note_on,75,43,110
1,note_on,75,0,120
1,note_on,66,0,0
1,note_on,65,60,0
1,note_on,65,0,90
1,note_on,69,51,510
1,note_on,69,0,120
1,note_on,75,55,0
1,note_on,75,0,90
1,note_on,65,48,30
1,note_on,65,0,120
1,note_on,69,51,0
1,note_on,69,0,120
1,note_on,72,53,0
1,note_on,72,0,120
1,note_on,75,56,0
1,note_on,75,0,90
1,note_on,81,53,30
1,note_on,81,0,120
1,note_on,87,62,0
1,note_on,87,0,120
1,note_on,86,61,0
1,note_on,86,0,120
1,note_on,84,60,0
1,note_on,84,0,120
1,note_on,82,59,0
1,note_on,82,0,120
1,note_on,81,58,0
1,note_on,81,0,120
1,note_on,79,55,0
1,note_on,79,0,120
1,note_on,77,59,0
1,note_on,77,0,120
1,note_on,79,55,0
1,note_on,79,0,120
1,note_on,77,56,0
1,note_on,77,0,120
1,note_on,75,54,0
1,note_on,75,0,120
1,note_on,74,52,0
1,note_on,74,0,120
1,note_on,72,50,0
1,note_on,72,0,120
1,note_on,74,54,0
1,note_on,74,0,240
1,note_on,74,42,240
1,note_on,74,0,240
1,note_on,72,46,0
1,note_on,72,0,240
1,note_on,72,45,240
1,note_on,72,0,240
1,note_on,75,52,0
1,note_on,75,0,1200
1,note_on,74,42,0
1,note_on,74,0,240
1,note_on,75,46,0
1,note_on,75,0,240
1,note_on,75,42,240
1,note_on,75,0,240
1,note_on,74,43,0
1,note_on,74,0,240
1,note_on,74,43,240
1,note_on,74,0,240
1,note_on,79,52,0
1,note_on,79,0,1200
1,note_on,77,44,0
1,note_on,77,0,240
1,note_on,77,47,0
1,note_on,77,0,240
1,note_on,76,44,0
1,note_on,76,0,240
1,note_on,72,48,0
1,note_on,72,0,480
1,note_on,74,45,0
1,note_on,74,0,240
1,note_on,75,45,0
1,note_on,75,0,236
1,note_on,75,45,4
1,note_on,75,0,240
1,note_on,74,42,0
1,note_on,74,0,240
1,note_on,70,46,0
1,note_on,70,0,480
1,note_on,72,46,0
1,note_on,72,0,240
1,note_on,73,51,0
1,note_on,73,0,480
1,note_on,72,51,0
1,note_on,72,0,240
1,note_on,73,55,0
1,note_on,73,0,480
1,note_on,72,50,0
1,note_on,72,0,240
1,note_on,70,51,0
1,note_on,70,0,240
1,note_on,69,57,0
1,note_on,69,0,720
1,note_on,72,55,0
1,note_on,72,0,240
1,note_on,74,75,480
1,note_on,74,0,120
1,note_on,70,57,0
1,note_on,70,0,120
1,note_on,65,57,0
1,note_on,65,0,120
1,note_on,70,57,0
1,note_on,70,0,120
1,note_on,74,57,0
1,note_on,74,0,120
1,note_on,70,57,0
1,note_on,70,0,120
1,note_on,72,73,0
1,note_on,72,0,120
1,note_on,69,56,0
1,note_on,69,0,120
1,note_on,65,56,0
1,note_on,65,0,120
1,note_on,69,56,0
1,note_on,69,0,120
1,note_on,72,56,0
1,note_on,72,0,120
1,note_on,69,56,0
1,note_on,69,0,120
1,note_on,75,76,0
1,note_on,75,0,120
1,note_on,70,55,0
1,note_on,70,0,120
1,note_on,67,55,0
1,note_on,67,0,120
1,note_on,70,55,0
1,note_on,70,0,120
1,note_on,75,60,0
1,note_on,75,0,120
1,note_on,70,53,0
1,note_on,70,0,120
1,note_on,75,59,0
1,note_on,75,0,120
1,note_on,70,52,0
1,note_on,70,0,120
1,note_on,75,60,0
1,note_on,75,0,120
1,note_on,70,48,0
1,note_on,70,0,120
1,note_on,74,74,0
1,note_on,74,0,120
1,note_on,69,51,0
1,note_on,69,0,120
1,note_on,75,78,0
1,note_on,75,0,120
1,note_on,70,53,0
1,note_on,70,0,120
1,note_on,67,54,0
1,note_on,67,0,120
1,note_on,70,54,0
1,note_on,70,0,120
1,note_on,75,60,0
1,note_on,75,0,120
1,note_on,70,54,0
1,note_on,70,0,120
1,note_on,74,64,0
1,note_on,74,0,120
1,note_on,69,52,0
1,note_on,69,0,120
1,note_on,65,53,0
1,note_on,65,0,120
1,note_on,69,53,0
1,note_on,69,0,120
1,note_on,74,73,0
1,note_on,74,0,120
1,note_on,69,57,0
1,note_on,69,0,120
1,note_on,79,75,0
1,note_on,79,0,120
1,note_on,70,52,0
1,note_on,70,0,120
1,note_on,67,52,0
1,note_on,67,0,120
1,note_on,70,52,0
1,note_on,70,0,120
1,note_on,79,61,0
1,note_on,79,0,120
1,note_on,70,51,0
1,note_on,70,0,120
1,note_on,79,63,0
1,note_on,79,0,120
1,note_on,70,52,0
1,note_on,70,0,120
1,note_on,79,65,0
1,note_on,79,0,120
1,note_on,70,53,0
1,note_on,70,0,120
1,note_on,77,51,0
1,note_on,77,0,120
1,note_on,70,45,0
1,note_on,70,0,120
1,note_on,67,51,360
1,note_on,67,0,120
1,note_on,70,44,0
1,note_on,70,0,120
1,note_on,76,44,0
1,note_on,76,0,120
1,note_on,69,51,360
1,note_on,69,0,120
1,note_on,72,46,0
1,note_on,72,0,120
1,note_on,75,46,0
1,note_on,75,0,120
1,note_on,67,51,360
1,note_on,67,0,120
1,note_on,70,44,0
1,note_on,70,0,120
1,note_on,74,44,0
1,note_on,74,0,120
1,note_on,63,57,360
1,note_on,63,0,120
1,note_on,67,48,0
1,note_on,67,0,120
1,note_on,72,49,0
1,note_on,72,0,120
1,note_on,62,56,360
1,note_on,62,0,120
1,note_on,65,48,0
1,note_on,65,0,120
1,note_on,70,48,0
1,note_on,70,0,120
1,note_on,63,59,360
1,note_on,63,0,120
1,note_on,65,52,0
1,note_on,65,0,120
1,note_on,69,52,0
1,note_on,69,0,120
1,note_on,62,51,2400
1,note_on,62,0,240
1,note_on,65,56,0
1,note_on,65,0,240
1,note_on,66,57,0
1,note_on,66,0,240
1,note_on,69,58,0
1,note_on,69,0,240
1,note_on,72,60,0
1,note_on,72,0,240
1,note_on,75,61,0
1,note_on,75,0,240
1,note_on,78,63,0
1,note_on,78,0,240
1,note_on,81,64,0
1,note_on,81,0,240
1,note_on,84,66,0
1,note_on,84,0,240
1,note_on,81,64,0
1,note_on,81,0,240
1,note_on,78,62,0
1,note_on,78,0,240
1,note_on,75,60,0
1,note_on,75,0,240
1,note_on,74,58,0
1,note_on,74,0,240
1,note_on,66,57,0
1,note_on,66,0,240
1,note_on,69,55,0
1,note_on,69,0,240
1,note_on,67,45,0
1,note_on,67,0,240
1,note_on,73,45,0
1,note_on,73,0,240
1,note_on,74,50,0
1,note_on,74,0,240
1,note_on,78,47,0
1,note_on,78,0,240
1,note_on,79,47,0
1,note_on,79,0,240
1,note_on,85,52,0
1,note_on,85,0,240
1,note_on,86,45,0
1,note_on,86,0,240
1,note_on,81,41,0
1,note_on,81,0,240
1,note_on,82,49,0
1,note_on,82,0,240
1,note_on,78,43,0
1,note_on,78,0,240
1,note_on,79,43,0
1,note_on,79,0,240
1,note_on,77,39,240
1,note_on,77,0,240
1,note_on,76,35,0
1,note_on,76,0,240
1,note_on,76,35,240
1,note_on,76,0,240
1,note_on,85,41,0
1,note_on,85,0,240
1,note_on,85,41,240
1,note_on,85,0,240
1,note_on,84,43,0
1,note_on,84,0,240
1,note_on,84,43,240
1,note_on,84,0,240
1,note_on,76,41,0
1,note_on,76,0,240
1,note_on,76,56,240
1,note_on,76,0,240
1,note_on,77,53,0
1,note_on,77,0,240
1,note_on,84,63,0
1,note_on,84,0,240
1,note_on,79,56,0
1,note_on,79,0,240
1,note_on,82,56,0
1,note_on,82,0,240
1,note_on,80,63,0
1,note_on,80,0,240
1,note_on,76,56,0
1,note_on,76,0,240
1,note_on,79,56,0
1,note_on,79,0,240
1,note_on,77,60,0
1,note_on,77,0,240
1,note_on,75,52,0
1,note_on,75,0,240
1,note_on,73,52,0
1,note_on,73,0,240
1,note_on,72,51,0
1,note_on,72,0,720
1,note_on,71,45,0
1,note_on,71,0,720
1,note_on,77,50,0
1,note_on,77,0,720
1,note_on,71,45,0
1,note_on,71,0,720
1,note_on,64,55,240
1,note_on,72,66,0
1,note_on,67,55,0
1,note_on,67,0,240
1,note_on,72,0,0
1,note_on,64,0,0
1,note_on,71,60,0
1,note_on,65,60,0
1,note_on,74,73,0
1,note_on,74,0,120
1,note_on,65,0,0
1,note_on,71,0,0
1,note_on,74,66,360
1,note_on,65,55,0
1,note_on,71,55,0
1,note_on,71,0,240
1,note_on,65,0,0
1,note_on,74,0,0
1,note_on,70,61,0
1,note_on,67,61,0
1,note_on,76,74,0
1,note_on,76,0,120
1,note_on,67,0,0
1,note_on,70,0,0
1,note_on,67,55,360
1,note_on,76,66,0
1,note_on,70,55,0
1,note_on,70,0,240
1,note_on,76,0,0
1,note_on,67,0,0
1,note_on,72,60,0
1,note_on,69,60,0
1,note_on,77,72,0
1,note_on,77,0,120
1,note_on,69,0,0
1,note_on,72,0,0
1,note_on,78,66,360
1,note_on,72,55,0
1,note_on,69,55,0
1,note_on,69,0,240
1,note_on,72,0,0
1,note_on,78,0,0
1,note_on,79,71,0
1,note_on,76,59,0
1,note_on,70,59,0
1,note_on,70,0,120
1,note_on,76,0,0
1,note_on,79,0,0
1,note_on,76,55,360
1,note_on,70,55,0
1,note_on,79,66,0
1,note_on,79,0,240
1,note_on,70,0,0
1,note_on,76,0,0
1,note_on,81,73,0
1,note_on,72,60,0
1,note_on,77,60,0
1,note_on,77,0,120
1,note_on,72,0,0
1,note_on,81,0,0
1,note_on,78,55,360
1,note_on,72,55,0
1,note_on,81,66,0
1,note_on,81,0,240
1,note_on,72,0,0
1,note_on,78,0,0
1,note_on,76,58,0
1,note_on,82,70,0
1,note_on,79,58,0
1,note_on,79,0,120
1,note_on,82,0,0
1,note_on,76,0,0
1,note_on,79,71,120
1,note_on,76,71,0
1,note_on,82,86,0
1,note_on,76,0,1440
1,note_on,79,0,0
1,note_on,82,0,120
1,note_on,84,63,0
1,note_on,86,66,120
1,note_on,84,0,12
1,note_on,84,65,108
1,note_on,86,0,12
1,note_on,82,63,108
1,note_on,84,0,12
1,note_on,81,62,108
1,note_on,82,0,12
1,note_on,79,62,108
1,note_on,81,0,12
1,note_on,81,64,108
1,note_on,79,0,12
1,note_on,82,67,108
1,note_on,81,0,12
1,note_on,81,66,108
1,note_on,82,0,12
1,note_on,79,64,108
1,note_on,81,0,12
1,note_on,77,62,108
1,note_on,79,0,12
1,note_on,76,63,108
1,note_on,77,0,12
1,note_on,77,63,108
1,note_on,76,0,12
1,note_on,79,64,108
1,note_on,77,0,12
1,note_on,77,64,108
1,note_on,79,0,12
1,note_on,76,62,108
1,note_on,77,0,12
1,note_on,74,60,108
1,note_on,76,0,12
1,note_on,72,62,108
1,note_on,74,0,12
1,note_on,73,62,108
1,note_on,72,0,12
1,note_on,74,64,108
1,note_on,73,0,12
1,note_on,72,63,108
1,note_on,74,0,12
1,note_on,70,61,108
1,note_on,72,0,12
1,note_on,69,60,108
1,note_on,70,0,12
1,note_on,67,59,108
1,note_on,69,0,12
1,note_on,69,61,108
1,note_on,67,0,12
1,note_on,70,64,108
1,note_on,69,0,12
1,note_on,69,63,108
1,note_on,70,0,12
1,note_on,67,61,108
1,note_on,69,0,12
1,note_on,65,60,108
1,note_on,67,0,12
1,note_on,64,60,108
1,note_on,65,0,12
1,note_on,65,62,108
1,note_on,64,0,12
1,note_on,67,63,108
1,note_on,65,0,12
1,note_on,65,62,108
1,note_on,67,0,12
1,note_on,64,60,108
1,note_on,65,0,12
1,note_on,62,59,108
1,note_on,64,0,12
1,note_on,62,0,108
1,note_on,84,66,120
1,note_on,83,68,120
1,note_on,84,0,12
1,note_on,84,69,108
1,note_on,83,0,12
1,note_on,89,70,108
1,note_on,84,0,12
1,note_on,84,63,108
1,note_on,89,0,12
1,note_on,82,70,108
1,note_on,84,0,12
1,note_on,81,66,108
1,note_on,82,0,12
1,note_on,80,64,108
1,note_on,81,0,12
1,note_on,81,64,108
1,note_on,80,0,12
1,note_on,84,70,108
1,note_on,81,0,12
1,note_on,81,64,108
1,note_on,84,0,12
1,note_on,79,70,108
1,note_on,81,0,12
1,note_on,77,64,108
1,note_on,79,0,12
1,note_on,76,64,108
1,note_on,77,0,12
1,note_on,77,64,108
1,note_on,76,0,12
1,note_on,81,70,108
1,note_on,77,0,12
1,note_on,77,65,108
1,note_on,81,0,12
1,note_on,74,70,108
1,note_on,77,0,12
1,note_on,72,65,108
1,note_on,74,0,12
1,note_on,71,65,108
1,note_on,72,0,12
1,note_on,72,65,108
1,note_on,71,0,12
1,note_on,77,70,108
1,note_on,72,0,12
1,note_on,72,65,108
1,note_on,77,0,12
1,note_on,70,70,108
1,note_on,72,0,12
1,note_on,69,66,108
1,note_on,70,0,12
1,note_on,68,66,108
1,note_on,69,0,12
1,note_on,69,66,108
1,note_on,68,0,12
1,note_on,72,70,108
1,note_on,69,0,12
1,note_on,69,64,108
1,note_on,72,0,12
1,note_on,65,70,108
1,note_on,69,0,12
1,note_on,65,0,108
1,note_on,77,64,0
1,note_on,77,0,120
1,note_on,64,70,0
1,note_on,64,0,120
1,note_on,77,64,0
1,note_on,77,0,120
1,note_on,65,70,0
1,note_on,65,0,120
1,note_on,77,64,0
1,note_on,77,0,120
1,note_on,67,70,0
1,note_on,67,0,120
1,note_on,77,64,0
1,note_on,77,0,120
1,note_on,65,65,0
1,note_on,65,0,120
1,note_on,77,58,0
1,note_on,77,0,120
1,note_on,67,67,0
1,note_on,67,0,120
1,note_on,77,61,0
1,note_on,77,0,120
1,note_on,69,70,0
1,note_on,69,0,120
1,note_on,77,60,0
1,note_on,77,0,120
1,note_on,67,66,0
1,note_on,67,0,120
1,note_on,77,62,0
1,note_on,77,0,120
1,note_on,69,67,0
1,note_on,69,0,120
1,note_on,77,62,0
1,note_on,77,0,120
1,note_on,70,74,0
1,note_on,70,0,120
1,note_on,77,61,0
1,note_on,77,0,120
1,note_on,70,65,0
1,note_on,70,0,120
1,note_on,77,61,0
1,note_on,77,0,120
1,note_on,69,65,0
1,note_on,69,0,120
1,note_on,77,60,0
1,note_on,77,0,120
1,note_on,70,70,0
1,note_on,70,0,120
1,note_on,77,60,0
1,note_on,77,0,120
1,note_on,70,65,0
1,note_on,70,0,120
1,note_on,77,60,0
1,note_on,77,0,120
1,note_on,69,65,0
1,note_on,69,0,120
1,note_on,77,54,0
1,note_on,77,0,120
1,note_on,68,49,0
1,note_on,68,0,120
1,note_on,77,41,0
1,note_on,77,0,120
1,note_on,68,49,0
1,note_on,68,0,120
1,note_on,77,42,0
1,note_on,77,0,120
1,note_on,68,49,0
1,note_on,68,0,120
1,note_on,77,40,0
1,note_on,77,0,120
1,note_on,67,48,0
1,note_on,76,48,0
1,note_on,76,0,240
1,note_on,67,0,0
1,note_on,84,66,120
1,note_on,83,68,120
1,note_on,84,0,12
1,note_on,84,69,108
1,note_on,83,0,12
1,note_on,89,70,108
1,note_on,84,0,12
1,note_on,84,63,108
1,note_on,89,0,12
1,note_on,82,70,108
1,note_on,84,0,12
1,note_on,81,66,108
1,note_on,82,0,12
1,note_on,80,64,108
1,note_on,81,0,12
1,note_on,81,64,108
1,note_on,80,0,12
1,note_on,84,70,108
1,note_on,81,0,12
1,note_on,81,64,108
1,note_on,84,0,12
1,note_on,79,70,108
1,note_on,81,0,12
1,note_on,77,64,108
1,note_on,79,0,12
1,note_on,76,64,108
1,note_on,77,0,12
1,note_on,77,64,108
1,note_on,76,0,12
1,note_on,81,70,108
1,note_on,77,0,12
1,note_on,77,65,108
1,note_on,81,0,12
1,note_on,74,70,108
1,note_on,77,0,12
1,note_on,72,65,108
1,note_on,74,0,12
1,note_on,71,65,108
1,note_on,72,0,12
1,note_on,72,65,108
1,note_on,71,0,12
1,note_on,77,70,108
1,note_on,72,0,12
1,note_on,72,65,108
1,note_on,77,0,12
1,note_on,70,70,108
1,note_on,72,0,12
1,note_on,69,66,108
1,note_on,70,0,12
1,note_on,68,66,108
1,note_on,69,0,12
1,note_on,69,66,108
1,note_on,68,0,12
1,note_on,72,70,108
1,note_on,69,0,12
1,note_on,69,64,108
1,note_on,72,0,12
1,note_on,65,70,108
1,note_on,69,0,12
1,note_on,65,0,108
1,note_on,77,64,0
1,note_on,77,0,120
1,note_on,64,70,0
1,note_on,64,0,120
1,note_on,77,64,0
1,note_on,77,0,120
1,note_on,65,70,0
1,note_on,65,0,120
1,note_on,77,64,0
1,note_on,77,0,120
1,note_on,67,70,0
1,note_on,67,0,120
1,note_on,77,64,0
1,note_on,77,0,120
1,note_on,65,65,0
1,note_on,65,0,120
1,note_on,77,58,0
1,note_on,77,0,120
1,note_on,67,67,0
1,note_on,67,0,120
1,note_on,77,61,0
1,note_on,77,0,120
1,note_on,69,70,0
1,note_on,69,0,120
1,note_on,77,60,0
1,note_on,77,0,120
1,note_on,67,66,0
1,note_on,67,0,120
1,note_on,77,62,0
1,note_on,77,0,120
1,note_on,69,67,0
1,note_on,69,0,120
1,note_on,77,62,0
1,note_on,77,0,120
1,note_on,70,74,0
1,note_on,70,0,120
1,note_on,77,61,0
1,note_on,77,0,120
1,note_on,70,65,0
1,note_on,70,0,120
1,note_on,77,61,0
1,note_on,77,0,120
1,note_on,69,65,0
1,note_on,69,0,120
1,note_on,77,60,0
1,note_on,77,0,120
1,note_on,70,70,0
1,note_on,70,0,120
1,note_on,77,60,0
1,note_on,77,0,120
1,note_on,70,65,0
1,note_on,70,0,120
1,note_on,77,60,0
1,note_on,77,0,120
1,note_on,69,65,0
1,note_on,69,0,120
1,note_on,77,46,0
1,note_on,77,0,120
1,note_on,68,44,0
1,note_on,68,0,120
1,note_on,77,36,0
1,note_on,77,0,120
1,note_on,67,42,480
1,note_on,67,0,120
1,note_on,76,34,0
1,note_on,76,0,120
1,note_on,66,43,480
1,note_on,66,0,120
1,note_on,75,36,0
1,note_on,75,0,120
1,note_on,62,58,720
1,note_on,62,0,120
1,note_on,67,59,0
1,note_on,67,0,120
1,note_on,70,60,0
1,note_on,70,0,120
1,note_on,74,61,0
1,note_on,74,0,120
1,note_on,72,62,0
1,note_on,70,62,120
1,note_on,72,0,12
1,note_on,69,60,108
1,note_on,70,0,12
1,note_on,67,59,108
1,note_on,69,0,12
1,note_on,65,57,108
1,note_on,67,0,12
1,note_on,64,55,108
1,note_on,65,0,12
1,note_on,65,58,108
1,note_on,64,0,12
1,note_on,65,0,108
1,note_on,60,49,120
1,note_on,60,0,240
1,note_on,60,49,0
1,note_on,60,0,180
1,note_on,64,41,0
1,note_on,64,0,60
1,note_on,70,49,0
1,note_on,70,0,960
1,note_on,69,43,0
1,note_on,69,0,120
1,note_on,67,43,120
1,note_on,67,0,120
1,note_on,67,49,120
1,note_on,67,0,240
1,note_on,65,45,0
1,note_on,65,0,480
1,note_on,65,45,0
1,note_on,65,0,660
1,note_on,64,41,0
1,note_on,64,0,60
1,note_on,70,49,0
1,note_on,70,0,960
1,note_on,69,43,0
1,note_on,69,0,120
1,note_on,67,43,120
1,note_on,67,0,120
1,note_on,71,51,120
1,note_on,71,0,720
1,note_on,72,45,0
1,note_on,72,0,240
1,note_on,64,41,420
1,note_on,64,0,60
1,note_on,70,49,0
1,note_on,70,0,960
1,note_on,69,43,0
1,note_on,69,0,120
1,note_on,67,43,120
1,note_on,67,0,120
1,note_on,65,54,120
1,note_on,65,0,480
1,note_on,69,60,0
1,note_on,69,0,720
1,note_on,72,60,0
1,note_on,72,0,720
1,note_on,70,58,0
1,note_on,70,0,720
1,note_on,67,50,0
1,note_on,67,0,240
1,note_on,65,56,0
1,note_on,65,0,240
1,note_on,73,69,480
1,note_on,85,82,0
1,note_on,85,0,720
1,note_on,73,0,0
1,note_on,74,74,0
1,note_on,86,88,0
1,note_on,86,0,720
1,note_on,74,0,0
1,note_on,84,84,0
1,note_on,74,71,0
1,note_on,74,0,720
1,note_on,84,0,0
1,note_on,74,72,0
1,note_on,82,85,0
1,note_on,82,0,720
1,note_on,74,0,0
1,note_on,74,65,0
1,note_on,81,76,0
1,note_on,81,0,720
1,note_on,74,0,0
1,note_on,79,79,0
1,note_on,74,67,0
1,note_on,74,0,720
1,note_on,79,0,0
1,note_on,72,65,0
1,note_on,78,76,0
1,note_on,74,65,0
1,note_on,74,0,720
1,note_on,78,0,0
1,note_on,72,0,0
1,note_on,79,65,0
1,note_on,79,0,120
1,note_on,74,54,0
1,note_on,74,0,120
1,note_on,70,54,0
1,note_on,70,0,120
1,note_on,74,54,0
1,note_on,74,0,120
1,note_on,79,65,0
1,note_on,79,0,120
1,note_on,74,54,0
1,note_on,74,0,120
1,note_on,81,65,0
1,note_on,81,0,120
1,note_on,74,54,0
1,note_on,74,0,120
1,note_on,72,54,0
1,note_on,72,0,120
1,note_on,74,54,0
1,note_on,74,0,120
1,note_on,81,65,0
1,note_on,81,0,120
1,note_on,74,55,0
1,note_on,74,0,120
1,note_on,82,65,0
1,note_on,82,0,120
1,note_on,79,55,0
1,note_on,79,0,120
1,note_on,74,55,0
1,note_on,74,0,120
1,note_on,79,55,0
1,note_on,79,0,120
1,note_on,82,65,0
1,note_on,82,0,120
1,note_on,79,55,0
1,note_on,79,0,120
1,note_on,83,65,0
1,note_on,83,0,120
1,note_on,79,55,0
1,note_on,79,0,120
1,note_on,74,55,0
1,note_on,74,0,120
1,note_on,79,55,0
1,note_on,79,0,120
1,note_on,83,65,0
1,note_on,83,0,120
1,note_on,79,56,0
1,note_on,79,0,120
1,note_on,84,65,0
1,note_on,84,0,480
1,note_on,86,59,0
1,note_on,86,0,120
1,note_on,84,59,0
1,note_on,84,0,120
1,note_on,82,65,0
1,note_on,82,0,480
1,note_on,84,57,0
1,note_on,84,0,120
1,note_on,82,57,0
1,note_on,82,0,120
1,note_on,81,65,0
1,note_on,81,0,480
1,note_on,82,57,0
1,note_on,82,0,120
1,note_on,81,57,0
1,note_on,81,0,120
1,note_on,79,65,0
1,note_on,79,0,480
1,note_on,81,59,0
1,note_on,81,0,120
1,note_on,79,59,0
1,note_on,79,0,120
1,note_on,77,65,0
1,note_on,77,0,480
1,note_on,79,59,0
1,note_on,79,0,120
1,note_on,77,59,0
1,note_on,77,0,120
1,note_on,76,65,0
1,note_on,76,0,480
1,note_on,77,56,0
1,note_on,77,0,120
1,note_on,76,56,0
1,note_on,76,0,120
1,note_on,79,62,0
1,note_on,77,54,120
1,note_on,79,0,12
1,note_on,76,54,108
1,note_on,77,0,12
1,note_on,77,54,108
1,note_on,76,0,12
1,note_on,76,53,108
1,note_on,77,0,12
1,note_on,77,55,108
1,note_on,76,0,12
1,note_on,81,59,108
1,note_on,77,0,12
1,note_on,79,55,108
1,note_on,81,0,12
1,note_on,78,55,108
1,note_on,79,0,12
1,note_on,79,55,108
1,note_on,78,0,12
1,note_on,78,55,108
1,note_on,79,0,12
1,note_on,79,55,108
1,note_on,78,0,12
1,note_on,81,59,108
1,note_on,79,0,12
1,note_on,79,54,108
1,note_on,81,0,12
1,note_on,77,54,108
1,note_on,79,0,12
1,note_on,79,54,108
1,note_on,77,0,12
1,note_on,81,54,108
1,note_on,79,0,12
1,note_on,82,54,108
1,note_on,81,0,12
1,note_on,84,59,108
1,note_on,82,0,12
1,note_on,82,55,108
1,note_on,84,0,12
1,note_on,81,55,108
1,note_on,82,0,12
1,note_on,82,55,108
1,note_on,81,0,12
1,note_on,84,55,108
1,note_on,82,0,12
1,note_on,85,55,108
1,note_on,84,0,12
1,note_on,86,59,108
1,note_on,85,0,12
1,note_on,86,0,108
1,note_on,74,55,0
1,note_on,86,55,120
1,note_on,74,0,12
1,note_on,84,55,108
1,note_on,86,0,12
1,note_on,82,55,108
1,note_on,84,0,12
1,note_on,81,54,108
1,note_on,82,0,12
1,note_on,79,59,108
1,note_on,81,0,12
1,note_on,79,0,108
1,note_on,78,54,0
1,note_on,79,63,120
1,note_on,78,0,12
1,note_on,81,62,108
1,note_on,79,0,12
1,note_on,82,60,108
1,note_on,81,0,12
1,note_on,83,59,108
1,note_on,82,0,12
1,note_on,84,59,108
1,note_on,83,0,12
1,note_on,84,0,108
1,note_on,72,60,0
1,note_on,72,0,120
1,note_on,84,60,0
1,note_on,84,0,120
1,note_on,82,60,0
1,note_on,82,0,120
1,note_on,81,60,0
1,note_on,81,0,120
1,note_on,79,59,0
1,note_on,79,0,120
1,note_on,77,59,0
1,note_on,77,0,120
1,note_on,76,56,0
1,note_on,77,63,120
1,note_on,76,0,12
1,note_on,79,62,108
1,note_on,77,0,12
1,note_on,80,60,108
1,note_on,79,0,12
1,note_on,81,59,108
1,note_on,80,0,12
1,note_on,81,0,108
1,note_on,82,59,0
1,note_on,82,0,120
1,note_on,84,60,0
1,note_on,84,0,120
1,note_on,82,60,0
1,note_on,82,0,120
1,note_on,81,60,0
1,note_on,81,0,120
1,note_on,79,60,0
1,note_on,79,0,120
1,note_on,77,59,0
1,note_on,77,0,120
1,note_on,76,59,0
1,note_on,76,0,120
1,note_on,77,56,0
1,note_on,76,63,120
1,note_on,77,0,12
1,note_on,74,62,108
1,note_on,76,0,12
1,note_on,72,60,108
1,note_on,74,0,12
1,note_on,70,59,108
1,note_on,72,0,12
1,note_on,69,56,108
1,note_on,70,0,12
1,note_on,69,0,108
1,note_on,72,61,0
1,note_on,72,0,120
1,note_on,77,68,0
1,note_on,77,0,120
1,note_on,79,62,0
1,note_on,79,0,120
1,note_on,77,63,0
1,note_on,77,0,120
1,note_on,76,63,0
1,note_on,76,0,120
1,note_on,74,60,0
1,note_on,74,0,120
1,note_on,72,53,0
1,note_on,70,59,120
1,note_on,72,0,12
1,note_on,69,54,108
1,note_on,70,0,12
1,note_on,67,54,108
1,note_on,69,0,12
1,note_on,65,54,108
1,note_on,67,0,12
1,note_on,64,59,108
1,note_on,65,0,12
1,note_on,64,0,108
1,note_on,65,58,0
1,note_on,67,62,120
1,note_on,65,0,12
1,note_on,65,61,108
1,note_on,67,0,12
1,note_on,64,60,108
1,note_on,65,0,12
1,note_on,62,59,108
1,note_on,64,0,12
1,note_on,60,57,108
1,note_on,62,0,12
1,note_on,60,0,120
1,note_on,68,49,588
1,note_on,68,0,960
1,note_on,67,43,0
1,note_on,67,0,120
1,note_on,65,43,120
1,note_on,65,0,120
1,note_on,71,49,120
1,note_on,71,0,480
1,note_on,72,43,0
1,note_on,72,0,240
1,note_on,67,43,0
1,note_on,67,0,480
1,note_on,73,58,240
1,note_on,73,0,960
1,note_on,72,49,0
1,note_on,72,0,120
1,note_on,70,49,120
1,note_on,70,0,120
1,note_on,68,60,120
1,note_on,68,0,240
1,note_on,70,42,0
1,note_on,70,0,80
1,note_on,68,42,0
1,note_on,68,0,80
1,note_on,67,42,0
1,note_on,67,0,80
1,note_on,68,51,0
1,note_on,68,0,120
1,note_on,70,44,0
1,note_on,70,0,120
1,note_on,72,51,0
1,note_on,72,0,480
1,note_on,77,66,240
1,note_on,77,0,720
1,note_on,75,54,0
1,note_on,75,0,480
1,note_on,77,50,0
1,note_on,77,0,240
1,note_on,75,57,0
1,note_on,75,0,480
1,note_on,73,52,0
1,note_on,73,0,240
1,note_on,72,55,0
1,note_on,72,0,720
1,note_on,70,59,0
1,note_on,70,0,480
1,note_on,68,53,0
1,note_on,68,0,240
1,note_on,67,57,0
1,note_on,67,0,480
1,note_on,65,47,0
1,note_on,65,0,240
1,note_on,68,53,0
1,note_on,68,0,720
1,note_on,67,45,0
1,note_on,67,0,240
1,note_on,80,49,480
1,note_on,68,41,0
1,note_on,68,0,960
1,note_on,80,0,0
1,note_on,67,36,0
1,note_on,79,43,0
1,note_on,79,0,120
1,note_on,67,0,0
1,note_on,77,43,120
1,note_on,65,36,0
1,note_on,65,0,120
1,note_on,77,0,0
1,note_on,71,41,120
1,note_on,83,49,0
1,note_on,83,0,480
1,note_on,71,0,0
1,note_on,84,43,0
1,note_on,72,36,0
1,note_on,72,0,240
1,note_on,84,0,0
1,note_on,67,36,0
1,note_on,79,43,0
1,note_on,79,0,480
1,note_on,67,0,0
1,note_on,73,49,240
1,note_on,85,58,0
1,note_on,85,0,960
1,note_on,73,0,0
1,note_on,72,41,0
1,note_on,84,49,0
1,note_on,84,0,120
1,note_on,72,0,0
1,note_on,82,49,120
1,note_on,70,41,0
1,note_on,70,0,120
1,note_on,82,0,0
1,note_on,81,60,120
1,note_on,69,51,0
1,note_on,69,0,480
1,note_on,81,0,0
1,note_on,84,51,0
1,note_on,72,43,0
1,note_on,72,0,240
1,note_on,84,0,0
1,note_on,82,51,0
1,note_on,70,43,0
1,note_on,70,0,480
1,note_on,82,0,0
1,note_on,83,71,240
1,note_on,71,56,0
1,note_on,71,0,720
1,note_on,83,0,0
1,note_on,72,56,0
1,note_on,84,71,0
1,note_on,84,0,720
1,note_on,72,0,0
1,note_on,85,69,0
1,note_on,73,54,0
1,note_on,73,0,720
1,note_on,85,0,0
1,note_on,72,56,0
1,note_on,84,71,0
1,note_on,84,0,240
1,note_on,72,0,0
1,note_on,89,53,360
1,note_on,89,0,120
1,note_on,72,51,0
1,note_on,77,64,0
1,note_on,77,0,660
1,note_on,80,40,0
1,note_on,80,0,60
1,note_on,72,0,0
1,note_on,76,51,0
1,note_on,79,51,0
1,note_on,79,0,720
1,note_on,76,0,0
1,note_on,77,74,0
1,note_on,77,0,120
1,note_on,72,62,0
1,note_on,72,0,120
1,note_on,71,62,0
1,note_on,71,0,120
1,note_on,72,62,0
1,note_on,72,0,120
1,note_on,74,69,0
1,note_on,74,0,120
1,note_on,72,62,0
1,note_on,72,0,120
1,note_on,70,65,0
1,note_on,70,0,120
1,note_on,72,60,0
1,note_on,72,0,120
1,note_on,70,65,0
1,note_on,70,0,120
1,note_on,72,59,0
1,note_on,72,0,120
1,note_on,70,65,0
1,note_on,70,0,120
1,note_on,72,59,0
1,note_on,72,0,120
1,note_on,69,74,0
1,note_on,69,0,120
1,note_on,72,62,0
1,note_on,72,0,120
1,note_on,71,62,0
1,note_on,71,0,120
1,note_on,72,62,0
1,note_on,72,0,120
1,note_on,77,74,0
1,note_on,77,0,120
1,note_on,72,62,0
1,note_on,72,0,120
1,note_on,70,65,0
1,note_on,70,0,120
1,note_on,72,60,0
1,note_on,72,0,120
1,note_on,70,65,0
1,note_on,70,0,120
1,note_on,72,59,0
1,note_on,72,0,120
1,note_on,70,65,0
1,note_on,70,0,120
1,note_on,72,59,0
1,note_on,72,0,120
1,note_on,69,74,0
1,note_on,69,0,120
1,note_on,84,62,0
1,note_on,84,0,120
1,note_on,83,62,0
1,note_on,83,0,120
1,note_on,84,62,0
1,note_on,84,0,120
1,note_on,86,72,0
1,note_on,86,0,120
1,note_on,84,62,0
1,note_on,84,0,120
1,note_on,82,65,0
1,note_on,82,0,120
1,note_on,84,60,0
1,note_on,84,0,120
1,note_on,82,65,0
1,note_on,82,0,120
1,note_on,84,59,0
1,note_on,84,0,120
1,note_on,82,65,0
1,note_on,82,0,120
1,note_on,84,59,0
1,note_on,84,0,120
1,note_on,81,74,0
1,note_on,81,0,120
1,note_on,84,62,0
1,note_on,84,0,120
1,note_on,83,62,0
1,note_on,83,0,120
1,note_on,84,62,0
1,note_on,84,0,120
1,note_on,89,69,0
1,note_on,89,0,120
1,note_on,84,62,0
1,note_on,84,0,120
1,note_on,82,65,0
1,note_on,82,0,120
1,note_on,84,60,0
1,note_on,84,0,120
1,note_on,82,65,0
1,note_on,82,0,120
1,note_on,84,59,0
1,note_on,84,0,120
1,note_on,82,65,0
1,note_on,82,0,120
1,note_on,84,59,0
1,note_on,84,0,120
1,note_on,81,74,0
1,note_on,81,0,120
1,note_on,84,62,0
1,note_on,84,0,120
1,note_on,89,71,0
1,note_on,89,0,120
1,note_on,81,60,0
1,note_on,81,0,120
1,note_on,79,70,0
1,note_on,79,0,120
1,note_on,88,62,0
1,note_on,88,0,120
1,note_on,77,70,0
1,note_on,77,0,120
1,note_on,86,62,0
1,note_on,86,0,120
1,note_on,76,69,0
1,note_on,76,0,120
1,note_on,84,60,0
1,note_on,84,0,120
1,note_on,74,67,0
1,note_on,74,0,120
1,note_on,82,58,0
1,note_on,82,0,120
1,note_on,72,69,0
1,note_on,72,0,120
1,note_on,81,62,0
1,note_on,81,0,120
1,note_on,70,67,0
1,note_on,70,0,120
1,note_on,79,59,0
1,note_on,79,0,120
1,note_on,69,66,0
1,note_on,69,0,120
1,note_on,77,56,0
1,note_on,77,0,120
1,note_on,67,62,0
1,note_on,67,0,120
1,note_on,76,54,0
1,note_on,76,0,120
1,note_on,65,63,0
1,note_on,65,0,120
1,note_on,74,55,0
1,note_on,74,0,120
1,note_on,64,62,0
1,note_on,64,0,120
1,note_on,72,51,0
1,note_on,72,0,120
1,note_on,71,55,0
1,note_on,62,45,0
1,note_on,62,0,720
1,note_on,71,0,0
1,note_on,70,55,0
1,note_on,61,45,0
1,note_on,61,0,720
1,note_on,70,0,0
1,note_on,82,55,0
1,note_on,73,45,0
1,note_on,73,0,720
1,note_on,82,0,0
1,note_on,76,55,0
1,note_on,67,45,0
1,note_on,67,0,720
1,note_on,76,0,0
1,note_on,84,49,240
1,note_on,84,0,120
1,note_on,84,49,120
1,note_on,84,0,120
1,note_on,86,49,360
1,note_on,86,0,120
1,note_on,86,49,120
1,note_on,86,0,120
1,note_on,72,39,120
1,note_on,77,47,0
1,note_on,77,0,660
1,note_on,72,0,0
1,note_on,81,40,0
1,note_on,81,0,60
1,note_on,79,44,0
1,note_on,76,37,0
1,note_on,76,0,720
1,note_on,79,0,0
1,note_on,77,74,0
1,note_on,77,0,120
1,note_on,72,62,0
1,note_on,72,0,120
1,note_on,71,62,0
1,note_on,71,0,120
1,note_on,72,62,0
1,note_on,72,0,120
1,note_on,74,68,0
1,note_on,74,0,120
1,note_on,72,62,0
1,note_on,72,0,120
1,note_on,70,65,0
1,note_on,70,0,120
1,note_on,72,60,0
1,note_on,72,0,120
1,note_on,70,65,0
1,note_on,70,0,120
1,note_on,72,59,0
1,note_on,72,0,120
1,note_on,70,65,0
1,note_on,70,0,120
1,note_on,72,59,0
1,note_on,72,0,120
1,note_on,69,74,0
1,note_on,69,0,120
1,note_on,72,62,0
1,note_on,72,0,120
1,note_on,71,62,0
1,note_on,71,0,120
1,note_on,72,62,0
1,note_on,72,0,120
1,note_on,77,74,0
1,note_on,77,0,120
1,note_on,72,62,0
1,note_on,72,0,120
1,note_on,70,65,0
1,note_on,70,0,120
1,note_on,72,60,0
1,note_on,72,0,120
1,note_on,70,65,0
1,note_on,70,0,120
1,note_on,72,59,0
1,note_on,72,0,120
1,note_on,70,65,0
1,note_on,70,0,120
1,note_on,72,59,0
1,note_on,72,0,120
1,note_on,69,74,0
1,note_on,69,0,120
1,note_on,84,62,0
1,note_on,84,0,120
1,note_on,83,62,0
1,note_on,83,0,120
1,note_on,84,62,0
1,note_on,84,0,120
1,note_on,86,72,0
1,note_on,86,0,120
1,note_on,84,62,0
1,note_on,84,0,120
1,note_on,82,65,0
1,note_on,82,0,120
1,note_on,84,60,0
1,note_on,84,0,120
1,note_on,82,65,0
1,note_on,82,0,120
1,note_on,84,59,0
1,note_on,84,0,120
1,note_on,82,65,0
1,note_on,82,0,120
1,note_on,84,59,0
1,note_on,84,0,120
1,note_on,81,74,0
1,note_on,81,0,120
1,note_on,84,62,0
1,note_on,84,0,120
1,note_on,83,62,0
1,note_on,83,0,120
1,note_on,84,62,0
1,note_on,84,0,120
1,note_on,89,72,0
1,note_on,89,0,120
1,note_on,84,62,0
1,note_on,84,0,120
1,note_on,82,65,0
1,note_on,82,0,120
1,note_on,84,60,0
1,note_on,84,0,120
1,note_on,82,65,0
1,note_on,82,0,120
1,note_on,84,59,0
1,note_on,84,0,120
1,note_on,82,65,0
1,note_on,82,0,120
1,note_on,84,59,0
1,note_on,84,0,120
1,note_on,81,74,0
1,note_on,81,0,120
1,note_on,84,62,0
1,note_on,84,0,120
1,note_on,89,71,0
1,note_on,89,0,120
1,note_on,81,60,0
1,note_on,81,0,120
1,note_on,79,70,0
1,note_on,79,0,120
1,note_on,88,62,0
1,note_on,88,0,120
1,note_on,77,70,0
1,note_on,77,0,120
1,note_on,86,62,0
1,note_on,86,0,120
1,note_on,76,69,0
1,note_on,76,0,120
1,note_on,84,60,0
1,note_on,84,0,120
1,note_on,74,67,0
1,note_on,74,0,120
1,note_on,82,58,0
1,note_on,82,0,120
1,note_on,72,69,0
1,note_on,72,0,120
1,note_on,81,62,0
1,note_on,81,0,120
1,note_on,70,67,0
1,note_on,70,0,120
1,note_on,79,59,0
1,note_on,79,0,120
1,note_on,69,66,0
1,note_on,69,0,120
1,note_on,77,56,0
1,note_on,77,0,120
1,note_on,67,64,0
1,note_on,67,0,120
1,note_on,76,55,0
1,note_on,76,0,120
1,note_on,65,63,0
1,note_on,65,0,120
1,note_on,74,55,0
1,note_on,74,0,120
1,note_on,64,62,0
1,note_on,64,0,120
1,note_on,72,51,0
1,note_on,72,0,120
1,note_on,71,55,0
1,note_on,62,45,0
1,note_on,62,0,720
1,note_on,71,0,0
1,note_on,70,55,0
1,note_on,61,45,0
1,note_on,61,0,720
1,note_on,70,0,0
1,note_on,82,55,0
1,note_on,73,45,0
1,note_on,73,0,720
1,note_on,82,0,0
1,note_on,76,55,0
1,note_on,67,45,0
1,note_on,67,0,720
1,note_on,76,0,0
1,note_on,84,49,240
1,note_on,84,0,120
1,note_on,84,49,120
1,note_on,84,0,120
1,note_on,86,49,360
1,note_on,86,0,120
1,note_on,86,49,120
1,note_on,86,0,120
1,note_on,72,39,120
1,note_on,77,47,0
1,note_on,77,0,720
1,note_on,76,37,0
1,note_on,76,0,720
1,note_on,72,0,0
1,note_on,83,71,0
1,note_on,83,0,120
1,note_on,84,55,0
1,note_on,83,55,120
1,note_on,84,0,12
1,note_on,84,55,108
1,note_on,83,0,12
1,note_on,83,55,108
1,note_on,84,0,12
1,note_on,84,55,108
1,note_on,83,0,12
1,note_on,84,0,108
1,note_on,85,62,0
1,note_on,86,55,120
1,note_on,85,0,12
1,note_on,85,55,108
1,note_on,86,0,12
1,note_on,86,55,108
1,note_on,85,0,12
1,note_on,88,59,108
1,note_on,86,0,12
1,note_on,89,54,108
1,note_on,88,0,12
1,note_on,89,0,108
1,note_on,72,39,0
1,note_on,77,47,0
1,note_on,77,0,660
1,note_on,81,37,0
1,note_on,81,0,60
1,note_on,72,0,0
1,note_on,79,43,0
1,note_on,76,43,0
1,note_on,76,0,480
1,note_on,79,0,120
1,note_on,77,37,0
1,note_on,77,0,120
1,note_on,77,71,0
1,note_on,81,64,120
1,note_on,77,0,12
1,note_on,84,67,108
1,note_on,81,0,12
1,note_on,89,68,108
1,note_on,84,0,12
1,note_on,88,69,108
1,note_on,89,0,12
1,note_on,86,69,108
1,note_on,88,0,12
1,note_on,84,71,108
1,note_on,86,0,12
1,note_on,86,67,108
1,note_on,84,0,12
1,note_on,84,67,108
1,note_on,86,0,12
1,note_on,82,67,108
1,note_on,84,0,12
1,note_on,81,67,108
1,note_on,82,0,12
1,note_on,79,67,108
1,note_on,81,0,12
1,note_on,79,0,108
1,note_on,77,71,0
1,note_on,81,64,120
1,note_on,77,0,12
1,note_on,79,64,108
1,note_on,81,0,12
1,note_on,77,68,108
1,note_on,79,0,12
1,note_on,76,64,108
1,note_on,77,0,12
1,note_on,74,64,108
1,note_on,76,0,12
1,note_on,72,69,108
1,note_on,74,0,12
1,note_on,74,63,108
1,note_on,72,0,12
1,note_on,72,63,108
1,note_on,74,0,12
1,note_on,70,63,108
1,note_on,72,0,12
1,note_on,69,63,108
1,note_on,70,0,12
1,note_on,67,63,108
1,note_on,69,0,12
1,note_on,67,0,108
1,note_on,65,71,0
1,note_on,69,63,120
1,note_on,65,0,12
1,note_on,67,63,108
1,note_on,69,0,12
1,note_on,65,63,108
1,note_on,67,0,12
1,note_on,64,63,108
1,note_on,65,0,12
1,note_on,62,64,108
1,note_on,64,0,12
1,note_on,60,71,108
1,note_on,62,0,12
1,note_on,62,64,108
1,note_on,60,0,12
1,note_on,60,64,108
1,note_on,62,0,12
1,note_on,58,64,108
1,note_on,60,0,12
1,note_on,57,64,108
1,note_on,58,0,12
1,note_on,55,64,108
1,note_on,57,0,12
1,note_on,55,0,108
1,note_on,53,81,0
1,note_on,53,0,120
1,note_on,57,70,120
1,note_on,57,0,120
1,note_on,60,70,120
1,note_on,60,0,120
1,note_on,65,78,120
1,note_on,65,0,120
1,note_on,69,70,120
1,note_on,69,0,120
1,note_on,72,70,120
1,note_on,72,0,120
1,note_on,77,88,120
1,note_on,77,0,240
1,note_on,81,75,480
1,note_on,84,90,0
1,note_on,72,75,0
1,note_on,72,0,480
1,note_on,84,0,0
1,note_on,81,0,0
1,note_on,87,94,240
1,note_on,77,79,0
1,note_on,84,81,0
1,note_on,84,0,480
1,note_on,77,0,0
1,note_on,87,0,0
1,note_on,86,86,960
1,note_on,77,74,0
1,note_on,82,74,0
1,note_on,82,0,480
1,note_on,77,0,0
1,note_on,86,0,0
1,note_on,80,74,960
1,note_on,86,86,0
1,note_on,89,74,0
1,note_on,77,74,0
1,note_on,77,0,480
1,note_on,80,0,0
1,note_on,86,0,0
1,note_on,89,0,0
1,note_on,60,39,960
1,note_on,65,47,0
1,note_on,65,0,1320
1,note_on,69,47,0
1,note_on,69,0,120
1,note_on,60,0,0
1,note_on,60,42,0
1,note_on,67,50,0
1,note_on,64,42,0
1,note_on,67,0,1200
1,note_on,65,41,0
1,note_on,65,0,240
1,note_on,64,0,0
1,note_on,65,46,0
1,note_on,65,0,240
1,note_on,60,0,0
1,note_on,57,71,240
1,note_on,57,0,240
1,note_on,58,78,0
1,note_on,58,0,120
1,note_on,67,73,120
1,note_on,67,0,120
1,note_on,59,72,120
1,note_on,59,0,120
1,note_on,60,78,120
1,note_on,60,0,120
1,note_on,69,73,120
1,note_on,69,0,120
1,note_on,61,73,120
1,note_on,61,0,120
1,note_on,62,78,120
1,note_on,62,0,120
1,note_on,70,72,120
1,note_on,70,0,120
1,note_on,64,72,120
1,note_on,64,0,120
1,note_on,82,68,120
1,note_on,82,0,960
1,note_on,81,62,0
1,note_on,81,0,120
1,note_on,79,61,0
1,note_on,79,0,120
1,note_on,77,59,0
1,note_on,77,0,120
1,note_on,76,57,0
1,note_on,76,0,120
1,note_on,77,56,0
1,note_on,77,0,120
1,note_on,79,49,120
1,note_on,79,0,120
1,note_on,81,54,120
1,note_on,81,0,120
1,note_on,69,46,120
1,note_on,72,46,0
1,note_on,72,0,480
1,note_on,69,0,0
1,note_on,70,40,0
1,note_on,67,40,0
1,note_on,67,0,240
1,note_on,70,0,0
1,note_on,70,46,0
1,note_on,67,46,0
1,note_on,67,0,720
1,note_on,70,0,0
1,note_on,65,41,0
1,note_on,69,41,0
1,note_on,69,0,240
1,note_on,65,0,0
1,note_on,57,71,960
1,note_on,57,0,240
1,note_on,58,78,0
1,note_on,58,0,120
1,note_on,67,73,120
1,note_on,67,0,120
1,note_on,59,72,120
1,note_on,59,0,120
1,note_on,60,78,120
1,note_on,60,0,120
1,note_on,69,73,120
1,note_on,69,0,120
1,note_on,61,73,120
1,note_on,61,0,120
1,note_on,62,78,120
1,note_on,62,0,120
1,note_on,70,72,120
1,note_on,70,0,120
1,note_on,64,72,120
1,note_on,64,0,120
1,note_on,82,68,120
1,note_on,82,0,960
1,note_on,81,62,0
1,note_on,81,0,120
1,note_on,79,61,0
1,note_on,79,0,120
1,note_on,77,59,0
1,note_on,77,0,120
1,note_on,76,57,0
1,note_on,76,0,120
1,note_on,77,56,0
1,note_on,77,0,60
1,note_on,79,49,0
1,note_on,79,0,60
1,note_on,81,49,0
1,note_on,81,0,60
1,note_on,74,46,540
1,note_on,74,0,60
1,note_on,76,39,0
1,note_on,76,0,60
1,note_on,77,39,0
1,note_on,77,0,60
1,note_on,60,37,540
1,note_on,65,44,0
1,note_on,65,0,600
1,note_on,69,39,0
1,note_on,69,0,120
1,note_on,67,44,0
1,note_on,64,36,0
1,note_on,64,0,480
1,note_on,67,0,0
1,note_on,65,41,0
1,note_on,65,0,240
1,note_on,60,0,0
1,note_on,65,41,0
1,note_on,69,39,480
1,note_on,69,0,240
1,note_on,65,0,0
1,note_on,64,37,0
1,note_on,72,44,0
1,note_on,72,0,240
1,note_on,70,39,0
1,note_on,70,0,240
1,note_on,67,39,0
1,note_on,67,0,240
1,note_on,64,0,0
1,note_on,65,44,0
1,note_on,60,40,240
1,note_on,60,0,236
1,note_on,69,40,4
1,note_on,69,0,240
1,note_on,65,0,0
1,note_on,64,37,0
1,note_on,72,44,0
1,note_on,72,0,240
1,note_on,70,40,0
1,note_on,70,0,240
1,note_on,67,40,0
1,note_on,67,0,240
1,note_on,64,0,0
1,note_on,65,44,0
1,note_on,65,0,240
1,note_on,60,41,0
1,note_on,60,0,236
1,note_on,69,41,4
1,note_on,69,0,240
1,note_on,65,44,0
1,note_on,65,0,240
1,note_on,60,40,0
1,note_on,60,0,237
1,note_on,69,40,3
1,note_on,69,0,240
1,note_on,67,42,0
1,note_on,58,36,0
1,note_on,58,0,720
1,note_on,67,0,0
1,note_on,65,36,0
1,note_on,57,31,0
1,note_on,57,0,240
1,note_on,65,0,0
2,note_on,53,70,0
2,note_on,45,59,0
2,note_on,48,59,0
2,note_on,41,59,0
2,note_on,41,0,480
2,note_on,53,0,0
2,note_on,45,0,0
2,note_on,48,0,0
2,note_on,57,70,3120
2,note_on,57,0,120
2,note_on,55,66,120
2,note_on,55,0,120
2,note_on,57,66,120
2,note_on,57,0,120
2,note_on,58,70,120
2,note_on,58,0,120
2,note_on,57,67,120
2,note_on,57,0,120
2,note_on,58,67,120
2,note_on,58,0,120
2,note_on,60,70,120
2,note_on,60,0,120
2,note_on,58,67,120
2,note_on,58,0,120
2,note_on,60,67,120
2,note_on,60,0,120
2,note_on,61,74,120
2,note_on,61,0,480
2,note_on,60,67,0
2,note_on,60,0,120
2,note_on,61,74,120
2,note_on,61,0,480
2,note_on,60,66,0
2,note_on,60,0,120
2,note_on,59,47,120
2,note_on,59,0,120
2,note_on,59,47,120
2,note_on,59,0,120
2,note_on,59,47,120
2,note_on,59,0,120
2,note_on,60,50,120
2,note_on,60,0,240
2,note_on,45,59,480
2,note_on,48,59,0
2,note_on,53,70,0
2,note_on,41,59,0
2,note_on,41,0,480
2,note_on,45,0,0
2,note_on,48,0,0
2,note_on,53,0,0
2,note_on,57,70,3120
2,note_on,57,0,120
2,note_on,55,66,120
2,note_on,55,0,120
2,note_on,57,66,120
2,note_on,57,0,120
2,note_on,58,70,120
2,note_on,58,0,120
2,note_on,57,67,120
2,note_on,57,0,120
2,note_on,58,67,120
2,note_on,58,0,120
2,note_on,60,70,120
2,note_on,60,0,120
2,note_on,58,67,120
2,note_on,58,0,120
2,note_on,60,67,120
2,note_on,60,0,120
2,note_on,61,74,120
2,note_on,61,0,480
2,note_on,60,67,0
2,note_on,60,0,120
2,note_on,61,74,120
2,note_on,61,0,480
2,note_on,60,66,0
2,note_on,60,0,120
2,note_on,59,35,120
2,note_on,59,0,120
2,note_on,58,34,600
2,note_on,58,0,120
2,note_on,57,34,600
2,note_on,57,0,120
2,note_on,46,58,600
2,note_on,46,0,120
2,note_on,58,61,0
2,note_on,58,0,120
2,note_on,52,36,480
2,note_on,58,57,0
2,note_on,48,36,0
2,note_on,48,0,720
2,note_on,58,0,0
2,note_on,52,0,0
2,note_on,53,32,0
2,note_on,57,51,0
2,note_on,57,0,240
2,note_on,53,0,0
2,note_on,48,41,480
2,note_on,48,0,240
2,note_on,60,31,0
2,note_on,58,24,0
2,note_on,58,0,120
2,note_on,60,0,0
2,note_on,60,31,120
2,note_on,58,24,0
2,note_on,58,0,120
2,note_on,60,0,0
2,note_on,58,24,120
2,note_on,60,31,0
2,note_on,60,0,120
2,note_on,58,0,0
2,note_on,58,24,120
2,note_on,60,31,0
2,note_on,60,0,120
2,note_on,58,0,0
2,note_on,58,24,120
2,note_on,60,31,0
2,note_on,60,0,120
2,note_on,58,0,0
2,note_on,53,41,120
2,note_on,53,0,240
2,note_on,57,24,0
2,note_on,60,31,0
2,note_on,60,0,120
2,note_on,57,0,0
2,note_on,57,24,120
2,note_on,60,31,0
2,note_on,60,0,120
2,note_on,57,0,0
2,note_on,60,31,120
2,note_on,57,24,0
2,note_on,57,0,120
2,note_on,60,0,0
2,note_on,60,31,120
2,note_on,57,24,0
2,note_on,57,0,120
2,note_on,60,0,0
2,note_on,60,31,120
2,note_on,57,24,0
2,note_on,57,0,120
2,note_on,60,0,0
2,note_on,48,41,120
2,note_on,48,0,240
2,note_on,55,24,0
2,note_on,60,31,0
2,note_on,60,0,120
2,note_on,55,0,0
2,note_on,55,24,120
2,note_on,60,31,0
2,note_on,60,0,120
2,note_on,55,0,0
2,note_on,60,31,120
2,note_on,55,24,0
2,note_on,55,0,120
2,note_on,60,0,0
2,note_on,55,24,120
2,note_on,60,31,0
2,note_on,60,0,120
2,note_on,55,0,0
2,note_on,55,24,120
2,note_on,60,31,0
2,note_on,60,0,120
2,note_on,55,0,0
2,note_on,53,41,120
2,note_on,53,0,240
2,note_on,57,24,0
2,note_on,60,31,0
2,note_on,60,0,120
2,note_on,57,0,0
2,note_on,60,31,120
2,note_on,57,24,0
2,note_on,57,0,120
2,note_on,60,0,0
2,note_on,57,24,120
2,note_on,60,31,0
2,note_on,60,0,120
2,note_on,57,0,0
2,note_on,57,24,120
2,note_on,60,31,0
2,note_on,60,0,120
2,note_on,57,0,0
2,note_on,60,31,120
2,note_on,57,24,0
2,note_on,57,0,120
2,note_on,60,0,0
2,note_on,48,41,120
2,note_on,48,0,240
2,note_on,58,24,0
2,note_on,60,31,0
2,note_on,60,0,120
2,note_on,58,0,0
2,note_on,60,31,120
2,note_on,58,24,0
2,note_on,58,0,120
2,note_on,60,0,0
2,note_on,60,31,120
2,note_on,58,24,0
2,note_on,58,0,120
2,note_on,60,0,0
2,note_on,60,31,120
2,note_on,58,24,0
2,note_on,58,0,120
2,note_on,60,0,0
2,note_on,60,31,120
2,note_on,58,24,0
2,note_on,58,0,120
2,note_on,60,0,0
2,note_on,53,41,120
2,note_on,53,0,240
2,note_on,60,31,0
2,note_on,57,24,0
2,note_on,57,0,120
2,note_on,60,0,0
2,note_on,57,24,120
2,note_on,60,31,0
2,note_on,60,0,120
2,note_on,57,0,0
2,note_on,60,31,120
2,note_on,57,24,0
2,note_on,57,0,120
2,note_on,60,0,0
2,note_on,57,24,120
2,note_on,60,31,0
2,note_on,60,0,120
2,note_on,57,0,0
2,note_on,60,31,120
2,note_on,57,24,0
2,note_on,57,0,120
2,note_on,60,0,0
2,note_on,48,41,120
2,note_on,48,0,240
2,note_on,55,24,0
2,note_on,60,31,0
2,note_on,60,0,120
2,note_on,55,0,0
2,note_on,55,24,120
2,note_on,60,31,0
2,note_on,60,0,120
2,note_on,55,0,0
2,note_on,60,31,120
2,note_on,58,24,0
2,note_on,58,0,120
2,note_on,60,0,0
2,note_on,58,24,120
2,note_on,60,31,0
2,note_on,60,0,120
2,note_on,58,0,0
2,note_on,58,24,120
2,note_on,60,31,0
2,note_on,60,0,120
2,note_on,58,0,0
2,note_on,53,32,120
2,note_on,57,32,0
2,note_on,60,41,0
2,note_on,60,0,240
2,note_on,57,0,0
2,note_on,53,0,0
2,note_on,45,60,240
2,note_on,45,0,240
2,note_on,46,66,0
2,note_on,46,0,120
2,note_on,55,61,120
2,note_on,55,0,120
2,note_on,47,61,120
2,note_on,47,0,120
2,note_on,48,66,120
2,note_on,48,0,120
2,note_on,57,61,120
2,note_on,57,0,120
2,note_on,49,61,120
2,note_on,49,0,120
2,note_on,50,66,120
2,note_on,50,0,120
2,note_on,58,61,120
2,note_on,58,0,120
2,note_on,52,61,120
2,note_on,52,0,120
2,note_on,58,28,840
2,note_on,60,28,0
2,note_on,67,34,0
2,note_on,64,28,0
2,note_on,64,0,720
2,note_on,58,0,0
2,note_on,60,0,0
2,note_on,67,0,0
2,note_on,60,41,0
2,note_on,57,41,0
2,note_on,65,49,0
2,note_on,65,0,240
2,note_on,57,0,0
2,note_on,60,0,0
2,note_on,60,42,480
2,note_on,60,0,480
2,note_on,61,42,0
2,note_on,61,0,240
2,note_on,62,47,0
2,note_on,62,0,960
2,note_on,45,60,960
2,note_on,45,0,240
2,note_on,46,66,0
2,note_on,46,0,120
2,note_on,55,61,120
2,note_on,55,0,120
2,note_on,47,61,120
2,note_on,47,0,120
2,note_on,48,66,120
2,note_on,48,0,120
2,note_on,57,61,120
2,note_on,57,0,120
2,note_on,49,61,120
2,note_on,49,0,120
2,note_on,50,66,120
2,note_on,50,0,120
2,note_on,58,61,120
2,note_on,58,0,120
2,note_on,52,61,120
2,note_on,52,0,120
2,note_on,58,28,840
2,note_on,60,28,0
2,note_on,67,34,0
2,note_on,64,28,0
2,note_on,64,0,720
2,note_on,58,0,0
2,note_on,60,0,0
2,note_on,67,0,0
2,note_on,57,41,0
2,note_on,60,41,0
2,note_on,65,49,0
2,note_on,65,0,240
2,note_on,60,0,0
2,note_on,57,0,0
2,note_on,62,33,480
2,note_on,65,42,0
2,note_on,58,33,0
2,note_on,58,0,240
2,note_on,65,0,0
2,note_on,62,0,0
2,note_on,48,27,480
2,note_on,57,32,0
2,note_on,57,0,720
2,note_on,58,28,0
2,note_on,58,0,720
2,note_on,48,0,0
2,note_on,53,28,0
2,note_on,57,24,240
2,note_on,57,0,240
2,note_on,60,24,0
2,note_on,60,0,240
2,note_on,53,0,0
2,note_on,53,28,0
2,note_on,55,26,240
2,note_on,55,0,240
2,note_on,58,26,0
2,note_on,58,0,240
2,note_on,53,0,0
2,note_on,53,28,0
2,note_on,57,24,240
2,note_on,57,0,240
2,note_on,60,24,0
2,note_on,60,0,240
2,note_on,53,0,0
2,note_on,53,28,0
2,note_on,55,24,240
2,note_on,55,0,240
2,note_on,58,24,0
2,note_on,58,0,240
2,note_on,53,0,0
2,note_on,53,28,0
2,note_on,57,24,240
2,note_on,57,0,240
2,note_on,60,24,0
2,note_on,60,0,240
2,note_on,53,0,0
2,note_on,53,28,0
2,note_on,57,24,240
2,note_on,57,0,240
2,note_on,60,24,0
2,note_on,60,0,240
2,note_on,53,0,0
2,note_on,53,28,0
2,note_on,41,23,0
2,note_on,41,0,960
2,note_on,53,0,0
2,note_on,45,63,1920
2,note_on,57,74,0
2,note_on,57,0,720
2,note_on,45,0,0
2,note_on,55,74,0
2,note_on,43,63,0
2,note_on,43,0,720
2,note_on,55,0,0
2,note_on,53,74,0
2,note_on,41,63,0
2,note_on,41,0,720
2,note_on,53,0,0
2,note_on,40,63,0
2,note_on,52,74,0
2,note_on,52,0,720
2,note_on,40,0,0
2,note_on,50,59,0
2,note_on,50,0,240
2,note_on,53,54,0
2,note_on,53,0,240
2,note_on,57,54,0
2,note_on,57,0,240
2,note_on,49,59,0
2,note_on,49,0,240
2,note_on,52,54,0
2,note_on,52,0,240
2,note_on,57,54,0
2,note_on,57,0,240
2,note_on,50,59,0
2,note_on,50,0,240
2,note_on,53,54,0
2,note_on,53,0,240
2,note_on,57,54,0
2,note_on,57,0,240
2,note_on,48,59,0
2,note_on,48,0,240
2,note_on,54,53,0
2,note_on,54,0,240
2,note_on,57,53,0
2,note_on,57,0,240
2,note_on,47,58,0
2,note_on,47,0,480
2,note_on,67,54,960
2,note_on,67,0,720
2,note_on,65,44,0
2,note_on,67,52,0
2,note_on,67,0,720
2,note_on,65,0,0
2,note_on,64,40,0
2,note_on,67,47,0
2,note_on,67,0,720
2,note_on,64,0,0
2,note_on,67,46,0
2,note_on,65,39,0
2,note_on,62,39,0
2,note_on,62,0,720
2,note_on,65,0,0
2,note_on,67,0,0
2,note_on,60,44,0
2,note_on,60,0,120
2,note_on,64,37,120
2,note_on,64,0,120
2,note_on,67,37,120
2,note_on,67,0,120
2,note_on,59,43,120
2,note_on,59,0,120
2,note_on,65,37,120
2,note_on,65,0,120
2,note_on,67,37,120
2,note_on,67,0,120
2,note_on,60,46,120
2,note_on,64,46,0
2,note_on,67,46,0
2,note_on,67,0,240
2,note_on,64,0,0
2,note_on,60,0,0
2,note_on,53,41,1200
2,note_on,53,0,120
2,note_on,65,35,120
2,note_on,65,0,120
2,note_on,47,43,360
2,note_on,47,0,120
2,note_on,59,38,120
2,note_on,59,0,120
2,note_on,52,44,360
2,note_on,52,0,120
2,note_on,64,40,120
2,note_on,64,0,120
2,note_on,45,43,360
2,note_on,45,0,120
2,note_on,57,40,120
2,note_on,57,0,120
2,note_on,50,48,360
2,note_on,50,0,120
2,note_on,59,43,360
2,note_on,59,0,120
2,note_on,60,49,120
2,note_on,60,0,120
2,note_on,48,40,360
2,note_on,48,0,120
2,note_on,55,47,120
2,note_on,55,0,120
2,note_on,69,57,720
2,note_on,67,56,120
2,note_on,69,0,12
2,note_on,65,55,108
2,note_on,67,0,12
2,note_on,64,52,108
2,note_on,65,0,12
2,note_on,62,51,108
2,note_on,64,0,12
2,note_on,62,0,108
2,note_on,60,41,0
2,note_on,60,0,240
2,note_on,63,31,0
2,note_on,63,0,240
2,note_on,67,31,0
2,note_on,67,0,240
2,note_on,60,37,0
2,note_on,60,0,240
2,note_on,63,31,0
2,note_on,63,0,240
2,note_on,67,31,0
2,note_on,67,0,240
2,note_on,59,41,0
2,note_on,59,0,240
2,note_on,62,31,0
2,note_on,62,0,240
2,note_on,67,31,0
2,note_on,67,0,240
2,note_on,59,36,0
2,note_on,59,0,240
2,note_on,62,31,0
2,note_on,62,0,240
2,note_on,67,31,0
2,note_on,67,0,240
2,note_on,59,41,0
2,note_on,59,0,240
2,note_on,62,31,0
2,note_on,62,0,240
2,note_on,65,31,0
2,note_on,65,0,240
2,note_on,59,37,0
2,note_on,59,0,240
2,note_on,62,31,0
2,note_on,62,0,240
2,note_on,67,31,0
2,note_on,67,0,240
2,note_on,60,41,0
2,note_on,60,0,240
2,note_on,63,31,0
2,note_on,63,0,240
2,note_on,67,31,0
2,note_on,67,0,240
2,note_on,60,36,0
2,note_on,60,0,240
2,note_on,63,31,0
2,note_on,63,0,240
2,note_on,67,31,0
2,note_on,67,0,240
2,note_on,63,47,0
2,note_on,63,0,240
2,note_on,67,36,0
2,note_on,67,0,240
2,note_on,72,36,0
2,note_on,72,0,240
2,note_on,62,44,0
2,note_on,62,0,240
2,note_on,65,32,0
2,note_on,65,0,240
2,note_on,70,33,0
2,note_on,70,0,240
2,note_on,60,48,0
2,note_on,60,0,240
2,note_on,63,36,0
2,note_on,63,0,240
2,note_on,68,36,0
2,note_on,68,0,240
2,note_on,58,45,0
2,note_on,58,0,240
2,note_on,62,31,0
2,note_on,62,0,240
2,note_on,67,31,0
2,note_on,67,0,240
2,note_on,56,46,0
2,note_on,56,0,240
2,note_on,60,35,0
2,note_on,60,0,240
2,note_on,65,35,0
2,note_on,65,0,240
2,note_on,56,43,0
2,note_on,56,0,240
2,note_on,60,36,0
2,note_on,60,0,240
2,note_on,66,34,0
2,note_on,66,0,240
2,note_on,55,43,0
2,note_on,55,0,240
2,note_on,60,29,0
2,note_on,60,0,240
2,note_on,67,30,0
2,note_on,67,0,240
2,note_on,55,39,0
2,note_on,55,0,240
2,note_on,59,27,0
2,note_on,59,0,240
2,note_on,67,27,0
2,note_on,67,0,240
2,note_on,60,41,0
2,note_on,60,0,240
2,note_on,63,31,0
2,note_on,63,0,240
2,note_on,67,31,0
2,note_on,67,0,240
2,note_on,60,37,0
2,note_on,60,0,240
2,note_on,63,31,0
2,note_on,63,0,240
2,note_on,67,31,0
2,note_on,67,0,240
2,note_on,59,41,0
2,note_on,59,0,240
2,note_on,62,31,0
2,note_on,62,0,240
2,note_on,67,31,0
2,note_on,67,0,240
2,note_on,59,36,0
2,note_on,59,0,240
2,note_on,62,31,0
2,note_on,62,0,240
2,note_on,67,31,0
2,note_on,67,0,240
2,note_on,59,41,0
2,note_on,59,0,240
2,note_on,62,31,0
2,note_on,62,0,240
2,note_on,65,31,0
2,note_on,65,0,240
2,note_on,59,37,0
2,note_on,59,0,240
2,note_on,62,31,0
2,note_on,62,0,240
2,note_on,67,31,0
2,note_on,67,0,240
2,note_on,58,41,0
2,note_on,58,0,240
2,note_on,61,31,0
2,note_on,61,0,240
2,note_on,67,31,0
2,note_on,67,0,240
2,note_on,57,36,0
2,note_on,57,0,240
2,note_on,60,31,0
2,note_on,60,0,240
2,note_on,65,31,0
2,note_on,65,0,240
2,note_on,56,52,0
2,note_on,56,0,240
2,note_on,60,41,0
2,note_on,60,0,240
2,note_on,66,41,0
2,note_on,66,0,240
2,note_on,55,51,0
2,note_on,55,0,240
2,note_on,60,36,0
2,note_on,60,0,240
2,note_on,67,36,0
2,note_on,67,0,240
2,note_on,53,56,0
2,note_on,53,0,240
2,note_on,56,36,0
2,note_on,56,0,240
2,note_on,62,36,0
2,note_on,62,0,240
2,note_on,51,45,0
2,note_on,51,0,240
2,note_on,60,31,0
2,note_on,60,0,240
2,note_on,53,31,0
2,note_on,53,0,240
2,note_on,55,45,0
2,note_on,55,0,240
2,note_on,60,30,0
2,note_on,60,0,240
2,note_on,63,30,0
2,note_on,63,0,240
2,note_on,55,38,0
2,note_on,55,0,240
2,note_on,62,31,0
2,note_on,62,0,240
2,note_on,65,31,0
2,note_on,65,0,240
2,note_on,60,67,0
2,note_on,64,67,0
2,note_on,64,0,480
2,note_on,60,0,0
2,note_on,62,67,240
2,note_on,62,0,120
2,note_on,59,62,120
2,note_on,59,0,120
2,note_on,55,62,120
2,note_on,55,0,120
2,note_on,60,67,120
2,note_on,60,0,480
2,note_on,62,67,240
2,note_on,62,0,120
2,note_on,59,62,120
2,note_on,59,0,120
2,note_on,55,62,120
2,note_on,55,0,120
2,note_on,60,67,120
2,note_on,60,0,480
2,note_on,62,67,240
2,note_on,62,0,120
2,note_on,59,62,120
2,note_on,59,0,120
2,note_on,55,62,120
2,note_on,55,0,120
2,note_on,60,67,120
2,note_on,60,0,480
2,note_on,45,46,2640
2,note_on,48,49,240
2,note_on,45,0,24
2,note_on,51,51,216
2,note_on,48,0,24
2,note_on,50,46,216
2,note_on,51,0,24
2,note_on,48,46,216
2,note_on,50,0,24
2,note_on,48,0,456
2,note_on,47,45,0
2,note_on,50,46,240
2,note_on,47,0,24
2,note_on,56,51,216
2,note_on,50,0,24
2,note_on,55,46,216
2,note_on,56,0,24
2,note_on,53,46,216
2,note_on,55,0,24
2,note_on,52,36,216
2,note_on,53,0,24
2,note_on,52,0,216
2,note_on,53,40,480
2,note_on,53,0,240
2,note_on,55,34,480
2,note_on,64,40,0
2,note_on,64,0,720
2,note_on,65,40,0
2,note_on,65,0,720
2,note_on,55,0,0
2,note_on,64,67,0
2,note_on,60,67,0
2,note_on,60,0,480
2,note_on,64,0,0
2,note_on,62,67,240
2,note_on,62,0,120
2,note_on,59,62,120
2,note_on,59,0,120
2,note_on,55,62,120
2,note_on,55,0,120
2,note_on,60,67,120
2,note_on,60,0,480
2,note_on,62,67,240
2,note_on,62,0,120
2,note_on,59,62,120
2,note_on,59,0,120
2,note_on,55,62,120
2,note_on,55,0,120
2,note_on,60,67,120
2,note_on,60,0,480
2,note_on,62,67,240
2,note_on,62,0,120
2,note_on,59,62,120
2,note_on,59,0,120
2,note_on,55,62,120
2,note_on,55,0,120
2,note_on,60,67,120
2,note_on,60,0,480
2,note_on,45,46,2640
2,note_on,48,49,240
2,note_on,45,0,24
2,note_on,51,51,216
2,note_on,48,0,24
2,note_on,50,46,216
2,note_on,51,0,24
2,note_on,48,46,216
2,note_on,50,0,24
2,note_on,48,0,456
2,note_on,47,45,0
2,note_on,50,46,240
2,note_on,47,0,24
2,note_on,56,51,216
2,note_on,50,0,24
2,note_on,55,46,216
2,note_on,56,0,24
2,note_on,53,46,216
2,note_on,55,0,24
2,note_on,52,36,216
2,note_on,53,0,24
2,note_on,52,0,216
2,note_on,53,40,480
2,note_on,53,0,240
2,note_on,55,34,480
2,note_on,64,40,0
2,note_on,64,0,720
2,note_on,55,0,0
2,note_on,62,40,0
2,note_on,53,32,0
2,note_on,53,0,720
2,note_on,62,0,0
2,note_on,52,64,0
2,note_on,52,0,240
2,note_on,55,53,0
2,note_on,55,0,240
2,note_on,60,53,0
2,note_on,60,0,240
2,note_on,53,61,0
2,note_on,53,0,240
2,note_on,57,53,0
2,note_on,57,0,240
2,note_on,62,50,0
2,note_on,62,0,240
2,note_on,55,38,0
2,note_on,55,0,240
2,note_on,60,34,0
2,note_on,60,0,240
2,note_on,64,34,0
2,note_on,64,0,240
2,note_on,55,39,0
2,note_on,55,0,240
2,note_on,62,33,0
2,note_on,62,0,240
2,note_on,65,33,0
2,note_on,65,0,240
2,note_on,64,66,0
2,note_on,60,56,0
2,note_on,60,0,480
2,note_on,64,0,0
2,note_on,59,66,240
2,note_on,65,66,0
2,note_on,55,56,0
2,note_on,55,0,480
2,note_on,65,0,0
2,note_on,59,0,0
2,note_on,60,56,240
2,note_on,64,66,0
2,note_on,64,0,480
2,note_on,60,0,0
2,note_on,59,56,240
2,note_on,55,56,0
2,note_on,65,66,0
2,note_on,65,0,480
2,note_on,55,0,0
2,note_on,59,0,0
2,note_on,52,66,240
2,note_on,48,56,0
2,note_on,48,0,480
2,note_on,52,0,0
2,note_on,43,56,240
2,note_on,53,66,0
2,note_on,47,56,0
2,note_on,47,0,480
2,note_on,53,0,0
2,note_on,43,0,0
2,note_on,36,70,240
2,note_on,36,0,120
2,note_on,40,63,120
2,note_on,40,0,120
2,note_on,43,63,120
2,note_on,43,0,120
2,note_on,48,70,120
2,note_on,48,0,120
2,note_on,52,64,120
2,note_on,52,0,120
2,note_on,55,64,120
2,note_on,55,0,120
2,note_on,60,74,120
2,note_on,60,0,240
2,note_on,52,62,480
2,note_on,48,62,0
2,note_on,55,62,0
2,note_on,60,74,0
2,note_on,60,0,480
2,note_on,52,0,0
2,note_on,48,0,0
2,note_on,55,0,0
2,note_on,48,62,240
2,note_on,60,74,0
2,note_on,55,62,0
2,note_on,52,62,0
2,note_on,52,0,480
2,note_on,48,0,0
2,note_on,60,0,0
2,note_on,55,0,0
2,note_on,53,70,960
2,note_on,48,59,0
2,note_on,41,59,0
2,note_on,45,59,0
2,note_on,45,0,480
2,note_on,53,0,0
2,note_on,48,0,0
2,note_on,41,0,0
2,note_on,57,70,3120
2,note_on,57,0,120
2,note_on,55,66,120
2,note_on,55,0,120
2,note_on,57,66,120
2,note_on,57,0,120
2,note_on,58,70,120
2,note_on,58,0,120
2,note_on,57,67,120
2,note_on,57,0,120
2,note_on,58,67,120
2,note_on,58,0,120
2,note_on,60,70,120
2,note_on,60,0,120
2,note_on,58,67,120
2,note_on,58,0,120
2,note_on,60,67,120
2,note_on,60,0,120
2,note_on,61,74,120
2,note_on,61,0,480
2,note_on,60,67,0
2,note_on,60,0,120
2,note_on,61,74,120
2,note_on,61,0,480
2,note_on,60,66,0
2,note_on,60,0,120
2,note_on,59,47,120
2,note_on,59,0,120
2,note_on,59,47,120
2,note_on,59,0,120
2,note_on,59,47,120
2,note_on,59,0,120
2,note_on,60,50,120
2,note_on,60,0,240
2,note_on,45,59,480
2,note_on,53,70,0
2,note_on,41,59,0
2,note_on,48,59,0
2,note_on,48,0,480
2,note_on,45,0,0
2,note_on,53,0,0
2,note_on,41,0,0
2,note_on,57,70,3120
2,note_on,57,0,120
2,note_on,55,66,120
2,note_on,55,0,120
2,note_on,57,66,120
2,note_on,57,0,120
2,note_on,58,70,120
2,note_on,58,0,120
2,note_on,57,67,120
2,note_on,57,0,120
2,note_on,58,67,120
2,note_on,58,0,120
2,note_on,60,70,120
2,note_on,60,0,120
2,note_on,58,67,120
2,note_on,58,0,120
2,note_on,60,67,120
2,note_on,60,0,120
2,note_on,61,74,120
2,note_on,61,0,480
2,note_on,60,67,0
2,note_on,60,0,120
2,note_on,61,74,120
2,note_on,61,0,480
2,note_on,60,66,0
2,note_on,60,0,120
2,note_on,59,37,120
2,note_on,59,0,120
2,note_on,58,37,600
2,note_on,58,0,120
2,note_on,57,37,600
2,note_on,57,0,120
2,note_on,46,58,600
2,note_on,46,0,120
2,note_on,58,61,0
2,note_on,58,0,120
2,note_on,52,45,480
2,note_on,48,45,0
2,note_on,58,57,0
2,note_on,58,0,720
2,note_on,48,0,0
2,note_on,52,0,0
2,note_on,57,51,0
2,note_on,53,40,0
2,note_on,53,0,240
2,note_on,57,0,0
2,note_on,48,41,480
2,note_on,48,0,240
2,note_on,60,31,0
2,note_on,58,24,0
2,note_on,58,0,120
2,note_on,60,0,0
2,note_on,60,31,120
2,note_on,58,24,0
2,note_on,58,0,120
2,note_on,60,0,0
2,note_on,60,31,120
2,note_on,58,24,0
2,note_on,58,0,120
2,note_on,60,0,0
2,note_on,60,31,120
2,note_on,58,24,0
2,note_on,58,0,120
2,note_on,60,0,0
2,note_on,60,31,120
2,note_on,58,24,0
2,note_on,58,0,120
2,note_on,60,0,0
2,note_on,53,41,120
2,note_on,53,0,240
2,note_on,60,31,0
2,note_on,57,24,0
2,note_on,57,0,120
2,note_on,60,0,0
2,note_on,60,31,120
2,note_on,57,24,0
2,note_on,57,0,120
2,note_on,60,0,0
2,note_on,57,24,120
2,note_on,60,31,0
2,note_on,60,0,120
2,note_on,57,0,0
2,note_on,57,24,120
2,note_on,60,31,0
2,note_on,60,0,120
2,note_on,57,0,0
2,note_on,57,24,120
2,note_on,60,31,0
2,note_on,60,0,120
2,note_on,57,0,0
2,note_on,48,41,120
2,note_on,48,0,240
2,note_on,55,24,0
2,note_on,60,31,0
2,note_on,60,0,120
2,note_on,55,0,0
2,note_on,55,24,120
2,note_on,60,31,0
2,note_on,60,0,120
2,note_on,55,0,0
2,note_on,55,24,120
2,note_on,60,31,0
2,note_on,60,0,120
2,note_on,55,0,0
2,note_on,60,31,120
2,note_on,55,24,0
2,note_on,55,0,120
2,note_on,60,0,0
2,note_on,55,24,120
2,note_on,60,31,0
2,note_on,60,0,120
2,note_on,55,0,0
2,note_on,53,41,120
2,note_on,53,0,240
2,note_on,60,31,0
2,note_on,57,24,0
2,note_on,57,0,120
2,note_on,60,0,0
2,note_on,57,24,120
2,note_on,60,31,0
2,note_on,60,0,120
2,note_on,57,0,0
2,note_on,60,31,120
2,note_on,57,24,0
2,note_on,57,0,120
2,note_on,60,0,0
2,note_on,57,24,120
2,note_on,60,31,0
2,note_on,60,0,120
2,note_on,57,0,0
2,note_on,60,31,120
2,note_on,57,24,0
2,note_on,57,0,120
2,note_on,60,0,0
2,note_on,48,41,120
2,note_on,48,0,240
2,note_on,58,24,0
2,note_on,60,31,0
2,note_on,60,0,120
2,note_on,58,0,0
2,note_on,60,31,120
2,note_on,58,24,0
2,note_on,58,0,120
2,note_on,60,0,0
2,note_on,60,31,120
2,note_on,58,24,0
2,note_on,58,0,120
2,note_on,60,0,0
2,note_on,60,31,120
2,note_on,58,24,0
2,note_on,58,0,120
2,note_on,60,0,0
2,note_on,60,31,120
2,note_on,58,24,0
2,note_on,58,0,120
2,note_on,60,0,0
2,note_on,53,41,120
2,note_on,53,0,240
2,note_on,60,31,0
2,note_on,57,24,0
2,note_on,57,0,120
2,note_on,60,0,0
2,note_on,57,24,120
2,note_on,60,31,0
2,note_on,60,0,120
2,note_on,57,0,0
2,note_on,60,31,120
2,note_on,57,24,0
2,note_on,57,0,120
2,note_on,60,0,0
2,note_on,57,24,120
2,note_on,60,31,0
2,note_on,60,0,120
2,note_on,57,0,0
2,note_on,60,31,120
2,note_on,57,24,0
2,note_on,57,0,120
2,note_on,60,0,0
2,note_on,48,41,120
2,note_on,48,0,240
2,note_on,55,24,0
2,note_on,60,31,0
2,note_on,60,0,120
2,note_on,55,0,0
2,note_on,60,31,120
2,note_on,55,24,0
2,note_on,55,0,120
2,note_on,60,0,0
2,note_on,60,31,120
2,note_on,58,24,0
2,note_on,58,0,120
2,note_on,60,0,0
2,note_on,60,31,120
2,note_on,58,24,0
2,note_on,58,0,120
2,note_on,60,0,0
2,note_on,58,24,120
2,note_on,60,31,0
2,note_on,60,0,120
2,note_on,58,0,0
2,note_on,57,32,120
2,note_on,60,41,0
2,note_on,53,32,0
2,note_on,53,0,240
2,note_on,60,0,0
2,note_on,57,0,0
2,note_on,45,60,240
2,note_on,45,0,240
2,note_on,46,66,0
2,note_on,46,0,120
2,note_on,55,61,120
2,note_on,55,0,120
2,note_on,47,61,120
2,note_on,47,0,120
2,note_on,48,66,120
2,note_on,48,0,120
2,note_on,57,61,120
2,note_on,57,0,120
2,note_on,49,61,120
2,note_on,49,0,120
2,note_on,50,66,120
2,note_on,50,0,120
2,note_on,58,61,120
2,note_on,58,0,120
2,note_on,52,61,120
2,note_on,52,0,120
2,note_on,60,28,840
2,note_on,58,28,0
2,note_on,67,34,0
2,note_on,64,28,0
2,note_on,64,0,720
2,note_on,60,0,0
2,note_on,58,0,0
2,note_on,67,0,0
2,note_on,57,41,0
2,note_on,65,49,0
2,note_on,60,41,0
2,note_on,60,0,240
2,note_on,65,0,0
2,note_on,57,0,0
2,note_on,60,42,480
2,note_on,60,0,480
2,note_on,61,42,0
2,note_on,61,0,240
2,note_on,62,47,0
2,note_on,62,0,960
2,note_on,45,60,960
2,note_on,45,0,240
2,note_on,46,66,0
2,note_on,46,0,120
2,note_on,55,61,120
2,note_on,55,0,120
2,note_on,47,61,120
2,note_on,47,0,120
2,note_on,48,66,120
2,note_on,48,0,120
2,note_on,57,61,120
2,note_on,57,0,120
2,note_on,49,61,120
2,note_on,49,0,120
2,note_on,50,66,120
2,note_on,50,0,120
2,note_on,58,61,120
2,note_on,58,0,120
2,note_on,52,61,120
2,note_on,52,0,120
2,note_on,60,28,840
2,note_on,58,28,0
2,note_on,64,28,0
2,note_on,67,34,0
2,note_on,67,0,720
2,note_on,60,0,0
2,note_on,58,0,0
2,note_on,64,0,0
2,note_on,60,41,0
2,note_on,57,41,0
2,note_on,65,49,0
2,note_on,65,0,240
2,note_on,57,0,0
2,note_on,60,0,0
2,note_on,62,32,480
2,note_on,58,32,0
2,note_on,65,40,0
2,note_on,65,0,240
2,note_on,58,0,0
2,note_on,62,0,0
2,note_on,57,32,480
2,note_on,48,27,0
2,note_on,57,0,720
2,note_on,58,28,0
2,note_on,58,0,720
2,note_on,48,0,0
2,note_on,53,28,0
2,note_on,57,24,240
2,note_on,57,0,240
2,note_on,60,24,0
2,note_on,60,0,240
2,note_on,53,0,0
2,note_on,53,28,0
2,note_on,55,26,240
2,note_on,55,0,240
2,note_on,58,26,0
2,note_on,58,0,240
2,note_on,53,0,0
2,note_on,53,28,0
2,note_on,57,24,240
2,note_on,57,0,240
2,note_on,60,24,0
2,note_on,60,0,240
2,note_on,53,0,0
2,note_on,53,28,0
2,note_on,55,24,240
2,note_on,55,0,240
2,note_on,58,24,0
2,note_on,58,0,240
2,note_on,53,0,0
2,note_on,53,28,0
2,note_on,57,24,240
2,note_on,57,0,240
2,note_on,60,24,0
2,note_on,60,0,240
2,note_on,53,0,0
2,note_on,53,28,0
2,note_on,57,24,240
2,note_on,57,0,240
2,note_on,60,24,0
2,note_on,60,0,240
2,note_on,53,0,0
2,note_on,53,28,0
2,note_on,41,23,0
2,note_on,41,0,960
2,note_on,53,0,0
2,note_on,45,63,1920
2,note_on,57,74,0
2,note_on,57,0,720
2,note_on,45,0,0
2,note_on,55,74,0
2,note_on,43,63,0
2,note_on,43,0,720
2,note_on,55,0,0
2,note_on,53,74,0
2,note_on,41,63,0
2,note_on,41,0,720
2,note_on,53,0,0
2,note_on,52,74,0
2,note_on,40,63,0
2,note_on,40,0,720
2,note_on,52,0,0
2,note_on,50,59,0
2,note_on,50,0,240
2,note_on,53,54,0
2,note_on,53,0,240
2,note_on,57,54,0
2,note_on,57,0,240
2,note_on,49,59,0
2,note_on,49,0,240
2,note_on,52,54,0
2,note_on,52,0,240
2,note_on,57,54,0
2,note_on,57,0,240
2,note_on,50,59,0
2,note_on,50,0,240
2,note_on,53,54,0
2,note_on,53,0,240
2,note_on,57,54,0
2,note_on,57,0,240
2,note_on,48,59,0
2,note_on,48,0,240
2,note_on,54,53,0
2,note_on,54,0,240
2,note_on,57,53,0
2,note_on,57,0,240
2,note_on,47,58,0
2,note_on,47,0,480
2,note_on,67,54,960
2,note_on,67,0,720
2,note_on,67,52,0
2,note_on,65,44,0
2,note_on,65,0,720
2,note_on,67,0,0
2,note_on,67,47,0
2,note_on,64,40,0
2,note_on,64,0,720
2,note_on,67,0,0
2,note_on,65,39,0
2,note_on,62,39,0
2,note_on,67,46,0
2,note_on,67,0,720
2,note_on,62,0,0
2,note_on,65,0,0
2,note_on,60,44,0
2,note_on,60,0,120
2,note_on,64,37,120
2,note_on,64,0,120
2,note_on,67,37,120
2,note_on,67,0,120
2,note_on,59,43,120
2,note_on,59,0,120
2,note_on,65,37,120
2,note_on,65,0,120
2,note_on,67,37,120
2,note_on,67,0,120
2,note_on,67,46,120
2,note_on,60,46,0
2,note_on,64,46,0
2,note_on,64,0,240
2,note_on,60,0,0
2,note_on,67,0,0
2,note_on,53,41,1200
2,note_on,53,0,120
2,note_on,65,35,120
2,note_on,65,0,120
2,note_on,47,43,360
2,note_on,47,0,120
2,note_on,59,38,120
2,note_on,59,0,120
2,note_on,52,44,360
2,note_on,52,0,120
2,note_on,64,40,120
2,note_on,64,0,120
2,note_on,45,43,360
2,note_on,45,0,120
2,note_on,57,40,120
2,note_on,57,0,120
2,note_on,50,48,360
2,note_on,50,0,120
2,note_on,59,43,360
2,note_on,59,0,120
2,note_on,60,49,120
2,note_on,60,0,120
2,note_on,48,40,360
2,note_on,48,0,120
2,note_on,55,47,120
2,note_on,55,0,120
2,note_on,69,57,720
2,note_on,67,56,120
2,note_on,69,0,12
2,note_on,65,55,108
2,note_on,67,0,12
2,note_on,64,52,108
2,note_on,65,0,12
2,note_on,62,51,108
2,note_on,64,0,12
2,note_on,62,0,108
2,note_on,60,41,0
2,note_on,60,0,240
2,note_on,63,31,0
2,note_on,63,0,240
2,note_on,67,31,0
2,note_on,67,0,240
2,note_on,60,37,0
2,note_on,60,0,240
2,note_on,63,31,0
2,note_on,63,0,240
2,note_on,67,31,0
2,note_on,67,0,240
2,note_on,59,41,0
2,note_on,59,0,240
2,note_on,62,31,0
2,note_on,62,0,240
2,note_on,67,31,0
2,note_on,67,0,240
2,note_on,59,36,0
2,note_on,59,0,240
2,note_on,62,31,0
2,note_on,62,0,240
2,note_on,67,31,0
2,note_on,67,0,240
2,note_on,59,41,0
2,note_on,59,0,240
2,note_on,62,31,0
2,note_on,62,0,240
2,note_on,65,31,0
2,note_on,65,0,240
2,note_on,59,37,0
2,note_on,59,0,240
2,note_on,62,31,0
2,note_on,62,0,240
2,note_on,67,31,0
2,note_on,67,0,240
2,note_on,60,41,0
2,note_on,60,0,240
2,note_on,63,31,0
2,note_on,63,0,240
2,note_on,67,31,0
2,note_on,67,0,240
2,note_on,60,36,0
2,note_on,60,0,240
2,note_on,63,31,0
2,note_on,63,0,240
2,note_on,67,31,0
2,note_on,67,0,240
2,note_on,63,47,0
2,note_on,63,0,240
2,note_on,67,36,0
2,note_on,67,0,240
2,note_on,72,36,0
2,note_on,72,0,240
2,note_on,62,44,0
2,note_on,62,0,240
2,note_on,65,32,0
2,note_on,65,0,240
2,note_on,70,33,0
2,note_on,70,0,240
2,note_on,60,48,0
2,note_on,60,0,240
2,note_on,63,36,0
2,note_on,63,0,240
2,note_on,68,36,0
2,note_on,68,0,240
2,note_on,58,45,0
2,note_on,58,0,240
2,note_on,62,31,0
2,note_on,62,0,240
2,note_on,67,31,0
2,note_on,67,0,240
2,note_on,56,46,0
2,note_on,56,0,240
2,note_on,60,35,0
2,note_on,60,0,240
2,note_on,65,35,0
2,note_on,65,0,240
2,note_on,56,43,0
2,note_on,56,0,240
2,note_on,60,36,0
2,note_on,60,0,240
2,note_on,66,34,0
2,note_on,66,0,240
2,note_on,55,43,0
2,note_on,55,0,240
2,note_on,60,29,0
2,note_on,60,0,240
2,note_on,67,30,0
2,note_on,67,0,240
2,note_on,55,39,0
2,note_on,55,0,240
2,note_on,59,27,0
2,note_on,59,0,240
2,note_on,67,27,0
2,note_on,67,0,240
2,note_on,60,41,0
2,note_on,60,0,240
2,note_on,63,31,0
2,note_on,63,0,240
2,note_on,67,31,0
2,note_on,67,0,240
2,note_on,60,37,0
2,note_on,60,0,240
2,note_on,63,31,0
2,note_on,63,0,240
2,note_on,67,31,0
2,note_on,67,0,240
2,note_on,59,41,0
2,note_on,59,0,240
2,note_on,62,31,0
2,note_on,62,0,240
2,note_on,67,31,0
2,note_on,67,0,240
2,note_on,59,36,0
2,note_on,59,0,240
2,note_on,62,31,0
2,note_on,62,0,240
2,note_on,67,31,0
2,note_on,67,0,240
2,note_on,59,41,0
2,note_on,59,0,240
2,note_on,62,31,0
2,note_on,62,0,240
2,note_on,65,31,0
2,note_on,65,0,240
2,note_on,59,37,0
2,note_on,59,0,240
2,note_on,62,31,0
2,note_on,62,0,240
2,note_on,67,31,0
2,note_on,67,0,240
2,note_on,58,41,0
2,note_on,58,0,240
2,note_on,61,31,0
2,note_on,61,0,240
2,note_on,67,31,0
2,note_on,67,0,240
2,note_on,57,36,0
2,note_on,57,0,240
2,note_on,60,31,0
2,note_on,60,0,240
2,note_on,65,31,0
2,note_on,65,0,240
2,note_on,56,52,0
2,note_on,56,0,240
2,note_on,60,41,0
2,note_on,60,0,240
2,note_on,66,41,0
2,note_on,66,0,240
2,note_on,55,51,0
2,note_on,55,0,240
2,note_on,60,36,0
2,note_on,60,0,240
2,note_on,67,36,0
2,note_on,67,0,240
2,note_on,53,56,0
2,note_on,53,0,240
2,note_on,56,36,0
2,note_on,56,0,240
2,note_on,62,36,0
2,note_on,62,0,240
2,note_on,51,45,0
2,note_on,51,0,240
2,note_on,60,31,0
2,note_on,60,0,240
2,note_on,53,31,0
2,note_on,53,0,240
2,note_on,55,45,0
2,note_on,55,0,240
2,note_on,60,30,0
2,note_on,60,0,240
2,note_on,63,30,0
2,note_on,63,0,240
2,note_on,55,38,0
2,note_on,55,0,240
2,note_on,62,31,0
2,note_on,62,0,240
2,note_on,65,31,0
2,note_on,65,0,240
2,note_on,64,67,0
2,note_on,60,67,0
2,note_on,60,0,480
2,note_on,64,0,0
2,note_on,62,67,240
2,note_on,62,0,120
2,note_on,59,62,120
2,note_on,59,0,120
2,note_on,55,62,120
2,note_on,55,0,120
2,note_on,60,67,120
2,note_on,60,0,480
2,note_on,62,67,240
2,note_on,62,0,120
2,note_on,59,62,120
2,note_on,59,0,120
2,note_on,55,62,120
2,note_on,55,0,120
2,note_on,60,67,120
2,note_on,60,0,480
2,note_on,62,67,240
2,note_on,62,0,120
2,note_on,59,62,120
2,note_on,59,0,120
2,note_on,55,62,120
2,note_on,55,0,120
2,note_on,60,67,120
2,note_on,60,0,480
2,note_on,45,46,2640
2,note_on,48,49,240
2,note_on,45,0,24
2,note_on,51,51,216
2,note_on,48,0,24
2,note_on,50,46,216
2,note_on,51,0,24
2,note_on,48,46,216
2,note_on,50,0,24
2,note_on,48,0,456
2,note_on,47,45,0
2,note_on,50,46,240
2,note_on,47,0,24
2,note_on,56,51,216
2,note_on,50,0,24
2,note_on,55,46,216
2,note_on,56,0,24
2,note_on,53,46,216
2,note_on,55,0,24
2,note_on,52,36,216
2,note_on,53,0,24
2,note_on,52,0,216
2,note_on,53,40,480
2,note_on,53,0,240
2,note_on,55,34,480
2,note_on,64,40,0
2,note_on,64,0,720
2,note_on,65,40,0
2,note_on,65,0,720
2,note_on,55,0,0
2,note_on,64,67,0
2,note_on,60,67,0
2,note_on,60,0,480
2,note_on,64,0,0
2,note_on,62,67,240
2,note_on,62,0,120
2,note_on,59,62,120
2,note_on,59,0,120
2,note_on,55,62,120
2,note_on,55,0,120
2,note_on,60,67,120
2,note_on,60,0,480
2,note_on,62,67,240
2,note_on,62,0,120
2,note_on,59,62,120
2,note_on,59,0,120
2,note_on,55,62,120
2,note_on,55,0,120
2,note_on,60,67,120
2,note_on,60,0,480
2,note_on,62,67,240
2,note_on,62,0,120
2,note_on,59,62,120
2,note_on,59,0,120
2,note_on,55,62,120
2,note_on,55,0,120
2,note_on,60,67,120
2,note_on,60,0,480
2,note_on,45,46,2640
2,note_on,48,49,240
2,note_on,45,0,24
2,note_on,51,51,216
2,note_on,48,0,24
2,note_on,50,46,216
2,note_on,51,0,24
2,note_on,48,46,216
2,note_on,50,0,24
2,note_on,48,0,456
2,note_on,47,45,0
2,note_on,50,46,240
2,note_on,47,0,24
2,note_on,56,51,216
2,note_on,50,0,24
2,note_on,55,46,216
2,note_on,56,0,24
2,note_on,53,46,216
2,note_on,55,0,24
2,note_on,52,36,216
2,note_on,53,0,24
2,note_on,52,0,216
2,note_on,53,40,480
2,note_on,53,0,240
2,note_on,55,34,480
2,note_on,64,40,0
2,note_on,64,0,720
2,note_on,55,0,0
2,note_on,62,40,0
2,note_on,53,32,0
2,note_on,53,0,720
2,note_on,62,0,0
2,note_on,52,64,0
2,note_on,52,0,240
2,note_on,55,53,0
2,note_on,55,0,240
2,note_on,60,53,0
2,note_on,60,0,240
2,note_on,53,61,0
2,note_on,53,0,240
2,note_on,57,53,0
2,note_on,57,0,240
2,note_on,62,50,0
2,note_on,62,0,240
2,note_on,55,38,0
2,note_on,55,0,240
2,note_on,60,34,0
2,note_on,60,0,240
2,note_on,64,34,0
2,note_on,64,0,240
2,note_on,55,39,0
2,note_on,55,0,240
2,note_on,62,33,0
2,note_on,62,0,240
2,note_on,65,33,0
2,note_on,65,0,240
2,note_on,60,56,0
2,note_on,64,66,0
2,note_on,64,0,480
2,note_on,60,0,0
2,note_on,55,56,240
2,note_on,59,66,0
2,note_on,65,66,0
2,note_on,65,0,480
2,note_on,59,0,0
2,note_on,55,0,0
2,note_on,64,66,240
2,note_on,60,56,0
2,note_on,60,0,480
2,note_on,64,0,0
2,note_on,65,66,240
2,note_on,59,56,0
2,note_on,55,56,0
2,note_on,55,0,480
2,note_on,59,0,0
2,note_on,65,0,0
2,note_on,52,66,240
2,note_on,48,56,0
2,note_on,48,0,480
2,note_on,52,0,0
2,note_on,43,56,240
2,note_on,47,56,0
2,note_on,53,66,0
2,note_on,53,0,480
2,note_on,47,0,0
2,note_on,43,0,0
2,note_on,36,70,240
2,note_on,36,0,120
2,note_on,40,63,120
2,note_on,40,0,120
2,note_on,43,63,120
2,note_on,43,0,120
2,note_on,48,70,120
2,note_on,48,0,120
2,note_on,52,64,120
2,note_on,52,0,120
2,note_on,55,64,120
2,note_on,55,0,120
2,note_on,60,74,120
2,note_on,60,0,240
2,note_on,52,62,480
2,note_on,60,74,0
2,note_on,48,62,0
2,note_on,55,62,0
2,note_on,55,0,480
2,note_on,52,0,0
2,note_on,60,0,0
2,note_on,48,0,0
2,note_on,48,62,240
2,note_on,52,62,0
2,note_on,60,74,0
2,note_on,55,62,0
2,note_on,55,0,480
2,note_on,48,0,0
2,note_on,52,0,0
2,note_on,60,0,0
2,note_on,48,70,960
2,note_on,39,59,0
2,note_on,43,59,0
2,note_on,36,59,0
2,note_on,36,0,480
2,note_on,48,0,0
2,note_on,39,0,0
2,note_on,43,0,0
2,note_on,51,70,3120
2,note_on,51,0,120
2,note_on,50,66,120
2,note_on,50,0,120
2,note_on,51,66,120
2,note_on,51,0,120
2,note_on,53,70,120
2,note_on,53,0,120
2,note_on,51,67,120
2,note_on,51,0,120
2,note_on,53,67,120
2,note_on,53,0,120
2,note_on,55,70,120
2,note_on,55,0,120
2,note_on,53,67,120
2,note_on,53,0,120
2,note_on,55,67,120
2,note_on,55,0,120
2,note_on,56,74,120
2,note_on,56,0,480
2,note_on,55,67,0
2,note_on,55,0,120
2,note_on,56,74,120
2,note_on,56,0,480
2,note_on,55,66,0
2,note_on,55,0,120
2,note_on,54,44,120
2,note_on,55,38,240
2,note_on,54,0,10
2,note_on,55,0,230
2,note_on,54,55,0
2,note_on,55,60,240
2,note_on,54,0,10
2,note_on,55,0,230
2,note_on,56,63,0
2,note_on,55,47,240
2,note_on,56,0,10
2,note_on,55,0,230
2,note_on,54,47,0
2,note_on,55,42,240
2,note_on,54,0,10
2,note_on,55,0,230
2,note_on,54,59,0
2,note_on,55,53,240
2,note_on,54,0,10
2,note_on,55,0,230
2,note_on,56,64,0
2,note_on,55,41,240
2,note_on,56,0,10
2,note_on,55,0,230
2,note_on,54,42,120
2,note_on,54,0,120
2,note_on,57,44,0
2,note_on,57,0,120
2,note_on,60,46,0
2,note_on,60,0,120
2,note_on,62,48,0
2,note_on,62,0,120
2,note_on,55,44,2280
2,note_on,56,38,240
2,note_on,55,0,10
2,note_on,56,0,230
2,note_on,55,55,0
2,note_on,56,55,240
2,note_on,55,0,10
2,note_on,56,0,230
2,note_on,58,63,0
2,note_on,56,47,240
2,note_on,58,0,10
2,note_on,56,0,230
2,note_on,55,47,0
2,note_on,56,42,240
2,note_on,55,0,10
2,note_on,56,0,230
2,note_on,55,59,0
2,note_on,56,53,240
2,note_on,55,0,10
2,note_on,56,0,230
2,note_on,58,64,0
2,note_on,56,41,240
2,note_on,58,0,10
2,note_on,56,0,230
2,note_on,55,42,120
2,note_on,55,0,120
2,note_on,59,44,0
2,note_on,59,0,120
2,note_on,62,46,0
2,note_on,62,0,120
2,note_on,65,48,0
2,note_on,65,0,120
2,note_on,60,44,2280
2,note_on,59,38,240
2,note_on,60,0,10
2,note_on,59,0,230
2,note_on,60,45,0
2,note_on,61,54,240
2,note_on,60,0,10
2,note_on,61,0,230
2,note_on,60,49,0
2,note_on,59,44,240
2,note_on,60,0,10
2,note_on,59,0,230
2,note_on,60,47,0
2,note_on,59,42,240
2,note_on,60,0,10
2,note_on,59,0,230
2,note_on,60,48,0
2,note_on,61,51,240
2,note_on,60,0,10
2,note_on,61,0,230
2,note_on,60,46,0
2,note_on,59,41,240
2,note_on,60,0,10
2,note_on,59,0,230
2,note_on,48,42,120
2,note_on,48,0,120
2,note_on,52,44,0
2,note_on,52,0,120
2,note_on,55,46,0
2,note_on,55,0,120
2,note_on,58,48,0
2,note_on,58,0,120
2,note_on,57,44,2280
2,note_on,58,38,240
2,note_on,57,0,10
2,note_on,58,0,230
2,note_on,57,55,0
2,note_on,58,55,240
2,note_on,57,0,10
2,note_on,58,0,230
2,note_on,59,63,0
2,note_on,58,47,240
2,note_on,59,0,10
2,note_on,58,0,230
2,note_on,57,47,0
2,note_on,58,42,240
2,note_on,57,0,10
2,note_on,58,0,230
2,note_on,57,59,0
2,note_on,58,53,240
2,note_on,57,0,10
2,note_on,58,0,230
2,note_on,59,64,0
2,note_on,58,41,240
2,note_on,59,0,10
2,note_on,58,0,230
2,note_on,57,42,120
2,note_on,57,0,120
2,note_on,60,44,0
2,note_on,60,0,120
2,note_on,63,46,0
2,note_on,63,0,120
2,note_on,65,48,0
2,note_on,65,0,120
2,note_on,58,29,2280
2,note_on,58,0,240
2,note_on,62,25,0
2,note_on,62,0,240
2,note_on,65,25,0
2,note_on,65,0,240
2,note_on,57,30,0
2,note_on,57,0,240
2,note_on,60,26,0
2,note_on,60,0,240
2,note_on,65,26,0
2,note_on,65,0,240
2,note_on,55,30,0
2,note_on,55,0,240
2,note_on,58,27,0
2,note_on,58,0,240
2,note_on,63,27,0
2,note_on,63,0,240
2,note_on,54,29,0
2,note_on,54,0,240
2,note_on,57,25,0
2,note_on,57,0,240
2,note_on,62,25,0
2,note_on,62,0,240
2,note_on,55,32,0
2,note_on,55,0,240
2,note_on,58,25,0
2,note_on,58,0,240
2,note_on,63,25,0
2,note_on,63,0,240
2,note_on,53,31,0
2,note_on,53,0,240
2,note_on,57,27,0
2,note_on,57,0,240
2,note_on,62,27,0
2,note_on,62,0,240
2,note_on,51,37,0
2,note_on,51,0,240
2,note_on,55,32,0
2,note_on,55,0,240
2,note_on,60,32,0
2,note_on,60,0,240
2,note_on,50,34,0
2,note_on,50,0,240
2,note_on,53,28,0
2,note_on,53,0,240
2,note_on,58,24,0
2,note_on,58,0,240
2,note_on,48,32,0
2,note_on,48,0,240
2,note_on,55,27,0
2,note_on,55,0,240
2,note_on,58,27,0
2,note_on,58,0,240
2,note_on,53,33,0
2,note_on,53,0,240
2,note_on,57,29,0
2,note_on,57,0,240
2,note_on,60,29,0
2,note_on,60,0,240
2,note_on,46,36,0
2,note_on,46,0,240
2,note_on,53,31,0
2,note_on,53,0,240
2,note_on,58,29,0
2,note_on,58,0,240
2,note_on,54,33,0
2,note_on,54,0,240
2,note_on,58,33,0
2,note_on,58,0,240
2,note_on,61,33,0
2,note_on,61,0,240
2,note_on,51,39,0
2,note_on,51,0,240
2,note_on,54,35,0
2,note_on,54,0,240
2,note_on,58,36,0
2,note_on,58,0,240
2,note_on,52,45,0
2,note_on,52,0,240
2,note_on,55,38,0
2,note_on,55,0,240
2,note_on,61,39,0
2,note_on,61,0,240
2,note_on,53,47,0
2,note_on,53,0,240
2,note_on,57,40,0
2,note_on,57,0,240
2,note_on,60,40,0
2,note_on,60,0,240
2,note_on,53,48,0
2,note_on,53,0,240
2,note_on,51,42,0
2,note_on,51,0,240
2,note_on,48,43,0
2,note_on,48,0,240
2,note_on,58,58,0
2,note_on,46,49,0
2,note_on,46,0,480
2,note_on,58,0,0
2,note_on,45,49,240
2,note_on,57,58,0
2,note_on,57,0,480
2,note_on,45,0,0
2,note_on,43,49,240
2,note_on,55,58,0
2,note_on,55,0,1200
2,note_on,43,0,0
2,note_on,54,57,0
2,note_on,42,48,0
2,note_on,42,0,240
2,note_on,54,0,0
2,note_on,55,57,0
2,note_on,43,48,0
2,note_on,43,0,480
2,note_on,55,0,0
2,note_on,41,48,240
2,note_on,53,57,0
2,note_on,53,0,480
2,note_on,41,0,0
2,note_on,51,47,240
2,note_on,39,39,0
2,note_on,39,0,1200
2,note_on,51,0,0
2,note_on,38,35,0
2,note_on,50,42,0
2,note_on,50,0,240
2,note_on,38,0,0
2,note_on,48,51,0
2,note_on,48,0,120
2,note_on,55,44,0
2,note_on,55,0,120
2,note_on,58,44,0
2,note_on,58,0,120
2,note_on,54,51,360
2,note_on,54,0,120
2,note_on,57,42,0
2,note_on,57,0,120
2,note_on,60,44,0
2,note_on,60,0,120
2,note_on,55,51,360
2,note_on,55,0,120
2,note_on,58,42,0
2,note_on,58,0,120
2,note_on,62,42,0
2,note_on,62,0,120
2,note_on,51,57,360
2,note_on,51,0,120
2,note_on,55,49,0
2,note_on,55,0,120
2,note_on,60,49,0
2,note_on,60,0,120
2,note_on,41,63,360
2,note_on,41,0,120
2,note_on,50,56,0
2,note_on,50,0,120
2,note_on,53,56,0
2,note_on,53,0,120
2,note_on,41,70,360
2,note_on,41,0,120
2,note_on,48,61,0
2,note_on,48,0,120
2,note_on,53,61,0
2,note_on,53,0,120
2,note_on,34,72,360
2,note_on,34,0,960
2,note_on,38,42,0
2,note_on,38,0,240
2,note_on,41,44,0
2,note_on,41,0,240
2,note_on,46,46,0
2,note_on,50,48,240
2,note_on,50,0,240
2,note_on,53,50,0
2,note_on,53,0,240
2,note_on,58,52,0
2,note_on,58,0,240
2,note_on,46,0,480
2,note_on,45,45,0
2,note_on,48,45,0
2,note_on,51,45,0
2,note_on,51,0,1440
2,note_on,54,45,0
2,note_on,54,0,1440
2,note_on,48,0,0
2,note_on,45,0,0
2,note_on,55,45,0
2,note_on,50,45,0
2,note_on,46,45,0
2,note_on,46,0,2880
2,note_on,50,0,0
2,note_on,55,0,0
2,note_on,61,33,0
2,note_on,58,26,0
2,note_on,58,0,480
2,note_on,61,0,0
2,note_on,61,33,240
2,note_on,58,26,0
2,note_on,58,0,480
2,note_on,61,0,0
2,note_on,58,26,240
2,note_on,60,33,0
2,note_on,60,0,480
2,note_on,58,0,0
2,note_on,60,33,240
2,note_on,58,26,0
2,note_on,58,0,480
2,note_on,60,0,0
2,note_on,44,50,240
2,note_on,56,60,0
2,note_on,56,0,2880
2,note_on,44,0,0
2,note_on,62,45,0
2,note_on,64,41,240
2,note_on,64,0,240
2,note_on,65,41,0
2,note_on,65,0,240
2,note_on,68,45,0
2,note_on,68,0,240
2,note_on,64,41,0
2,note_on,64,0,240
2,note_on,65,41,0
2,note_on,65,0,240
2,note_on,62,0,0
2,note_on,61,45,0
2,note_on,68,54,0
2,note_on,68,0,240
2,note_on,64,42,0
2,note_on,64,0,240
2,note_on,65,42,0
2,note_on,65,0,240
2,note_on,68,52,0
2,note_on,68,0,240
2,note_on,67,47,0
2,note_on,67,0,240
2,note_on,65,52,0
2,note_on,65,0,240
2,note_on,61,0,0
2,note_on,48,49,0
2,note_on,60,58,0
2,note_on,60,0,480
2,note_on,48,0,0
2,note_on,60,58,240
2,note_on,48,49,0
2,note_on,48,0,480
2,note_on,60,0,0
2,note_on,48,49,240
2,note_on,60,57,0
2,note_on,60,0,480
2,note_on,48,0,0
2,note_on,60,57,240
2,note_on,48,49,0
2,note_on,48,0,480
2,note_on,60,0,0
2,note_on,48,49,240
2,note_on,60,57,0
2,note_on,60,0,480
2,note_on,48,0,0
2,note_on,60,56,240
2,note_on,48,48,0
2,note_on,48,0,480
2,note_on,60,0,0
2,note_on,36,72,240
2,note_on,36,0,120
2,note_on,40,60,120
2,note_on,40,0,120
2,note_on,43,60,120
2,note_on,43,0,120
2,note_on,48,69,120
2,note_on,48,0,120
2,note_on,52,60,120
2,note_on,52,0,120
2,note_on,55,60,120
2,note_on,55,0,120
2,note_on,60,69,120
2,note_on,60,0,240
2,note_on,60,59,4080
2,note_on,61,60,120
2,note_on,60,0,12
2,note_on,62,62,108
2,note_on,61,0,12
2,note_on,60,63,108
2,note_on,62,0,12
2,note_on,58,62,108
2,note_on,60,0,12
2,note_on,57,60,108
2,note_on,58,0,12
2,note_on,55,59,108
2,note_on,57,0,12
2,note_on,57,61,108
2,note_on,55,0,12
2,note_on,58,62,108
2,note_on,57,0,12
2,note_on,57,61,108
2,note_on,58,0,12
2,note_on,55,59,108
2,note_on,57,0,12
2,note_on,53,57,108
2,note_on,55,0,12
2,note_on,52,58,108
2,note_on,53,0,12
2,note_on,53,60,108
2,note_on,52,0,12
2,note_on,55,62,108
2,note_on,53,0,12
2,note_on,53,61,108
2,note_on,55,0,12
2,note_on,52,61,108
2,note_on,53,0,12
2,note_on,50,60,108
2,note_on,52,0,12
2,note_on,48,59,108
2,note_on,50,0,12
2,note_on,50,60,108
2,note_on,48,0,12
2,note_on,48,61,108
2,note_on,50,0,12
2,note_on,46,61,108
2,note_on,48,0,12
2,note_on,45,60,108
2,note_on,46,0,12
2,note_on,43,58,108
2,note_on,45,0,12
2,note_on,43,0,108
2,note_on,53,70,0
2,note_on,45,59,0
2,note_on,48,59,0
2,note_on,41,59,0
2,note_on,41,0,480
2,note_on,53,0,0
2,note_on,45,0,0
2,note_on,48,0,0
2,note_on,57,70,3120
2,note_on,57,0,120
2,note_on,55,66,120
2,note_on,55,0,120
2,note_on,57,66,120
2,note_on,57,0,120
2,note_on,58,70,120
2,note_on,58,0,120
2,note_on,57,67,120
2,note_on,57,0,120
2,note_on,58,67,120
2,note_on,58,0,120
2,note_on,60,70,120
2,note_on,60,0,120
2,note_on,58,67,120
2,note_on,58,0,120
2,note_on,60,67,120
2,note_on,60,0,120
2,note_on,61,74,120
2,note_on,61,0,480
2,note_on,60,67,0
2,note_on,60,0,120
2,note_on,61,74,120
2,note_on,61,0,480
2,note_on,60,66,0
2,note_on,60,0,120
2,note_on,59,47,120
2,note_on,59,0,120
2,note_on,59,47,120
2,note_on,59,0,120
2,note_on,59,47,120
2,note_on,59,0,120
2,note_on,60,50,120
2,note_on,60,0,240
2,note_on,45,59,480
2,note_on,48,59,0
2,note_on,53,70,0
2,note_on,41,59,0
2,note_on,41,0,480
2,note_on,45,0,0
2,note_on,48,0,0
2,note_on,53,0,0
2,note_on,57,70,3120
2,note_on,57,0,120
2,note_on,55,66,120
2,note_on,55,0,120
2,note_on,57,66,120
2,note_on,57,0,120
2,note_on,58,70,120
2,note_on,58,0,120
2,note_on,57,67,120
2,note_on,57,0,120
2,note_on,58,67,120
2,note_on,58,0,120
2,note_on,60,70,120
2,note_on,60,0,120
2,note_on,58,67,120
2,note_on,58,0,120
2,note_on,60,67,120
2,note_on,60,0,120
2,note_on,61,74,120
2,note_on,61,0,480
2,note_on,60,67,0
2,note_on,60,0,120
2,note_on,61,74,120
2,note_on,61,0,480
2,note_on,60,66,0
2,note_on,60,0,120
2,note_on,59,36,120
2,note_on,59,0,120
2,note_on,58,36,600
2,note_on,58,0,120
2,note_on,57,35,600
2,note_on,57,0,120
2,note_on,46,58,600
2,note_on,46,0,120
2,note_on,58,61,0
2,note_on,58,0,120
2,note_on,52,45,480
2,note_on,58,57,0
2,note_on,48,45,0
2,note_on,48,0,720
2,note_on,58,0,0
2,note_on,52,0,0
2,note_on,53,40,0
2,note_on,57,51,0
2,note_on,57,0,240
2,note_on,53,0,0
2,note_on,48,41,480
2,note_on,48,0,240
2,note_on,60,31,0
2,note_on,58,24,0
2,note_on,58,0,120
2,note_on,60,0,0
2,note_on,60,31,120
2,note_on,58,24,0
2,note_on,58,0,120
2,note_on,60,0,0
2,note_on,60,31,120
2,note_on,58,24,0
2,note_on,58,0,120
2,note_on,60,0,0
2,note_on,60,31,120
2,note_on,58,24,0
2,note_on,58,0,120
2,note_on,60,0,0
2,note_on,60,31,120
2,note_on,58,24,0
2,note_on,58,0,120
2,note_on,60,0,0
2,note_on,53,41,120
2,note_on,53,0,240
2,note_on,57,24,0
2,note_on,60,31,0
2,note_on,60,0,120
2,note_on,57,0,0
2,note_on,57,24,120
2,note_on,60,31,0
2,note_on,60,0,120
2,note_on,57,0,0
2,note_on,60,31,120
2,note_on,57,24,0
2,note_on,57,0,120
2,note_on,60,0,0
2,note_on,60,31,120
2,note_on,57,24,0
2,note_on,57,0,120
2,note_on,60,0,0
2,note_on,60,31,120
2,note_on,57,24,0
2,note_on,57,0,120
2,note_on,60,0,0
2,note_on,48,41,120
2,note_on,48,0,240
2,note_on,55,24,0
2,note_on,60,31,0
2,note_on,60,0,120
2,note_on,55,0,0
2,note_on,55,24,120
2,note_on,60,31,0
2,note_on,60,0,120
2,note_on,55,0,0
2,note_on,55,24,120
2,note_on,60,31,0
2,note_on,60,0,120
2,note_on,55,0,0
2,note_on,55,24,120
2,note_on,60,31,0
2,note_on,60,0,120
2,note_on,55,0,0
2,note_on,55,24,120
2,note_on,60,31,0
2,note_on,60,0,120
2,note_on,55,0,0
2,note_on,53,41,120
2,note_on,53,0,240
2,note_on,57,24,0
2,note_on,60,31,0
2,note_on,60,0,120
2,note_on,57,0,0
2,note_on,57,24,120
2,note_on,60,31,0
2,note_on,60,0,120
2,note_on,57,0,0
2,note_on,57,24,120
2,note_on,60,31,0
2,note_on,60,0,120
2,note_on,57,0,0
2,note_on,57,24,120
2,note_on,60,31,0
2,note_on,60,0,120
2,note_on,57,0,0
2,note_on,57,24,120
2,note_on,60,31,0
2,note_on,60,0,120
2,note_on,57,0,0
2,note_on,48,41,120
2,note_on,48,0,240
2,note_on,60,31,0
2,note_on,58,24,0
2,note_on,58,0,120
2,note_on,60,0,0
2,note_on,60,31,120
2,note_on,58,24,0
2,note_on,58,0,120
2,note_on,60,0,0
2,note_on,60,31,120
2,note_on,58,24,0
2,note_on,58,0,120
2,note_on,60,0,0
2,note_on,60,31,120
2,note_on,58,24,0
2,note_on,58,0,120
2,note_on,60,0,0
2,note_on,58,24,120
2,note_on,60,31,0
2,note_on,60,0,120
2,note_on,58,0,0
2,note_on,53,41,120
2,note_on,53,0,240
2,note_on,57,24,0
2,note_on,60,31,0
2,note_on,60,0,120
2,note_on,57,0,0
2,note_on,57,24,120
2,note_on,60,31,0
2,note_on,60,0,120
2,note_on,57,0,0
2,note_on,60,31,120
2,note_on,57,24,0
2,note_on,57,0,120
2,note_on,60,0,0
2,note_on,60,31,120
2,note_on,57,24,0
2,note_on,57,0,120
2,note_on,60,0,0
2,note_on,60,31,120
2,note_on,57,24,0
2,note_on,57,0,120
2,note_on,60,0,0
2,note_on,48,41,120
2,note_on,48,0,240
2,note_on,55,24,0
2,note_on,60,31,0
2,note_on,60,0,120
2,note_on,55,0,0
2,note_on,60,31,120
2,note_on,55,24,0
2,note_on,55,0,120
2,note_on,60,0,0
2,note_on,58,24,120
2,note_on,60,31,0
2,note_on,60,0,120
2,note_on,58,0,0
2,note_on,60,31,120
2,note_on,58,24,0
2,note_on,58,0,120
2,note_on,60,0,0
2,note_on,58,24,120
2,note_on,60,31,0
2,note_on,60,0,120
2,note_on,58,0,0
2,note_on,60,41,120
2,note_on,53,32,0
2,note_on,57,32,0
2,note_on,57,0,240
2,note_on,53,0,0
2,note_on,60,0,0
2,note_on,51,52,480
2,note_on,55,52,0
2,note_on,61,62,0
2,note_on,61,0,720
2,note_on,55,0,0
2,note_on,51,0,0
2,note_on,62,68,0
2,note_on,54,57,0
2,note_on,50,57,0
2,note_on,50,0,720
2,note_on,54,0,0
2,note_on,62,0,0
2,note_on,50,63,720
2,note_on,62,74,0
2,note_on,62,0,720
2,note_on,50,0,0
2,note_on,48,63,0
2,note_on,60,74,0
2,note_on,60,0,720
2,note_on,48,0,0
2,note_on,46,63,0
2,note_on,58,74,0
2,note_on,58,0,720
2,note_on,46,0,0
2,note_on,45,63,0
2,note_on,57,74,0
2,note_on,57,0,720
2,note_on,45,0,0
2,note_on,55,59,0
2,note_on,55,0,240
2,note_on,58,54,0
2,note_on,58,0,240
2,note_on,62,54,0
2,note_on,62,0,240
2,note_on,54,59,0
2,note_on,54,0,240
2,note_on,57,54,0
2,note_on,57,0,240
2,note_on,62,54,0
2,note_on,62,0,240
2,note_on,55,59,0
2,note_on,55,0,240
2,note_on,58,54,0
2,note_on,58,0,240
2,note_on,62,54,0
2,note_on,62,0,240
2,note_on,53,59,0
2,note_on,53,0,240
2,note_on,59,53,0
2,note_on,59,0,240
2,note_on,62,53,0
2,note_on,62,0,240
2,note_on,52,58,0
2,note_on,52,0,480
2,note_on,72,54,960
2,note_on,72,0,720
2,note_on,70,44,0
2,note_on,72,52,0
2,note_on,72,0,720
2,note_on,70,0,0
2,note_on,72,47,0
2,note_on,69,40,0
2,note_on,69,0,720
2,note_on,72,0,0
2,note_on,70,39,0
2,note_on,72,46,0
2,note_on,67,39,0
2,note_on,67,0,720
2,note_on,72,0,0
2,note_on,70,0,0
2,note_on,65,44,0
2,note_on,65,0,120
2,note_on,69,37,120
2,note_on,69,0,120
2,note_on,72,37,120
2,note_on,72,0,120
2,note_on,64,43,120
2,note_on,64,0,120
2,note_on,67,37,120
2,note_on,67,0,120
2,note_on,72,37,120
2,note_on,72,0,120
2,note_on,69,46,120
2,note_on,72,46,0
2,note_on,65,46,0
2,note_on,65,0,240
2,note_on,72,0,0
2,note_on,69,0,0
2,note_on,46,49,1200
2,note_on,46,0,120
2,note_on,58,40,120
2,note_on,58,0,120
2,note_on,52,48,360
2,note_on,52,0,120
2,note_on,64,43,120
2,note_on,64,0,120
2,note_on,45,50,360
2,note_on,45,0,120
2,note_on,57,43,120
2,note_on,57,0,120
2,note_on,50,47,360
2,note_on,50,0,120
2,note_on,62,40,120
2,note_on,62,0,120
2,note_on,43,45,360
2,note_on,43,0,120
2,note_on,45,47,120
2,note_on,45,0,120
2,note_on,46,49,120
2,note_on,46,0,120
2,note_on,48,51,120
2,note_on,48,0,120
2,note_on,50,53,120
2,note_on,50,0,120
2,note_on,52,55,120
2,note_on,52,0,120
2,note_on,53,57,120
2,note_on,53,0,120
2,note_on,45,49,360
2,note_on,45,0,120
2,note_on,46,59,120
2,note_on,46,0,120
2,note_on,47,50,360
2,note_on,47,0,120
2,note_on,48,56,120
2,note_on,48,0,120
2,note_on,62,57,720
2,note_on,60,56,120
2,note_on,62,0,12
2,note_on,58,55,108
2,note_on,60,0,12
2,note_on,57,52,108
2,note_on,58,0,12
2,note_on,55,51,108
2,note_on,57,0,12
2,note_on,55,0,108
2,note_on,53,41,0
2,note_on,53,0,240
2,note_on,56,31,0
2,note_on,56,0,240
2,note_on,60,31,0
2,note_on,60,0,240
2,note_on,53,37,0
2,note_on,53,0,240
2,note_on,56,31,0
2,note_on,56,0,240
2,note_on,60,31,0
2,note_on,60,0,240
2,note_on,52,41,0
2,note_on,52,0,240
2,note_on,55,31,0
2,note_on,55,0,240
2,note_on,60,31,0
2,note_on,60,0,240
2,note_on,52,36,0
2,note_on,52,0,240
2,note_on,55,31,0
2,note_on,55,0,240
2,note_on,60,31,0
2,note_on,60,0,240
2,note_on,52,41,0
2,note_on,52,0,240
2,note_on,55,31,0
2,note_on,55,0,240
2,note_on,58,31,0
2,note_on,58,0,240
2,note_on,52,37,0
2,note_on,52,0,240
2,note_on,55,31,0
2,note_on,55,0,240
2,note_on,60,31,0
2,note_on,60,0,240
2,note_on,53,41,0
2,note_on,53,0,240
2,note_on,56,31,0
2,note_on,56,0,240
2,note_on,60,31,0
2,note_on,60,0,240
2,note_on,53,36,0
2,note_on,53,0,240
2,note_on,56,31,0
2,note_on,56,0,240
2,note_on,60,31,0
2,note_on,60,0,240
2,note_on,56,47,0
2,note_on,56,0,240
2,note_on,60,36,0
2,note_on,60,0,240
2,note_on,65,36,0
2,note_on,65,0,240
2,note_on,55,44,0
2,note_on,55,0,240
2,note_on,58,32,0
2,note_on,58,0,240
2,note_on,63,33,0
2,note_on,63,0,240
2,note_on,53,48,0
2,note_on,53,0,240
2,note_on,56,36,0
2,note_on,56,0,240
2,note_on,61,36,0
2,note_on,61,0,240
2,note_on,51,45,0
2,note_on,51,0,240
2,note_on,55,31,0
2,note_on,55,0,240
2,note_on,60,31,0
2,note_on,60,0,240
2,note_on,49,46,0
2,note_on,49,0,240
2,note_on,53,35,0
2,note_on,53,0,240
2,note_on,58,35,0
2,note_on,58,0,240
2,note_on,49,43,0
2,note_on,49,0,240
2,note_on,53,36,0
2,note_on,53,0,240
2,note_on,59,34,0
2,note_on,59,0,240
2,note_on,48,43,0
2,note_on,48,0,240
2,note_on,53,29,0
2,note_on,53,0,240
2,note_on,60,30,0
2,note_on,60,0,240
2,note_on,48,39,0
2,note_on,48,0,240
2,note_on,52,27,0
2,note_on,52,0,240
2,note_on,60,27,0
2,note_on,60,0,240
2,note_on,53,41,0
2,note_on,53,0,240
2,note_on,56,31,0
2,note_on,56,0,240
2,note_on,60,31,0
2,note_on,60,0,240
2,note_on,53,37,0
2,note_on,53,0,240
2,note_on,56,31,0
2,note_on,56,0,240
2,note_on,60,31,0
2,note_on,60,0,240
2,note_on,52,41,0
2,note_on,52,0,240
2,note_on,55,31,0
2,note_on,55,0,240
2,note_on,60,31,0
2,note_on,60,0,240
2,note_on,52,36,0
2,note_on,52,0,240
2,note_on,55,31,0
2,note_on,55,0,240
2,note_on,60,31,0
2,note_on,60,0,240
2,note_on,52,41,0
2,note_on,52,0,240
2,note_on,55,31,0
2,note_on,55,0,240
2,note_on,58,31,0
2,note_on,58,0,240
2,note_on,52,37,0
2,note_on,52,0,240
2,note_on,55,31,0
2,note_on,55,0,240
2,note_on,60,31,0
2,note_on,60,0,240
2,note_on,51,41,4
2,note_on,54,31,236
2,note_on,51,0,4
2,note_on,54,0,236
2,note_on,57,31,0
2,note_on,57,0,240
2,note_on,50,36,0
2,note_on,50,0,240
2,note_on,53,31,0
2,note_on,53,0,240
2,note_on,58,31,0
2,note_on,58,0,240
2,note_on,49,57,0
2,note_on,49,0,240
2,note_on,53,46,0
2,note_on,53,0,240
2,note_on,56,47,0
2,note_on,56,0,240
2,note_on,48,55,0
2,note_on,48,0,240
2,note_on,53,46,0
2,note_on,53,0,240
2,note_on,56,46,0
2,note_on,56,0,240
2,note_on,46,59,0
2,note_on,46,0,240
2,note_on,52,39,0
2,note_on,52,0,240
2,note_on,55,39,0
2,note_on,55,0,240
2,note_on,44,45,0
2,note_on,44,0,240
2,note_on,48,31,0
2,note_on,48,0,240
2,note_on,53,31,0
2,note_on,53,0,240
2,note_on,48,45,0
2,note_on,48,0,240
2,note_on,53,30,0
2,note_on,53,0,240
2,note_on,56,30,0
2,note_on,56,0,240
2,note_on,48,38,0
2,note_on,48,0,240
2,note_on,55,31,0
2,note_on,55,0,240
2,note_on,58,31,0
2,note_on,58,0,240
2,note_on,53,67,0
2,note_on,57,67,0
2,note_on,57,0,480
2,note_on,53,0,0
2,note_on,55,67,240
2,note_on,55,0,120
2,note_on,52,62,120
2,note_on,52,0,120
2,note_on,48,62,120
2,note_on,48,0,120
2,note_on,53,67,120
2,note_on,53,0,480
2,note_on,55,67,240
2,note_on,55,0,120
2,note_on,52,62,120
2,note_on,52,0,120
2,note_on,48,62,120
2,note_on,48,0,120
2,note_on,53,67,120
2,note_on,53,0,480
2,note_on,67,67,240
2,note_on,67,0,120
2,note_on,64,62,120
2,note_on,64,0,120
2,note_on,60,62,120
2,note_on,60,0,120
2,note_on,65,67,120
2,note_on,65,0,480
2,note_on,67,67,240
2,note_on,67,0,120
2,note_on,64,62,120
2,note_on,64,0,120
2,note_on,60,62,120
2,note_on,60,0,120
2,note_on,65,67,120
2,note_on,65,0,480
2,note_on,50,49,2640
2,note_on,53,52,240
2,note_on,50,0,24
2,note_on,56,54,216
2,note_on,53,0,24
2,note_on,55,49,216
2,note_on,56,0,24
2,note_on,53,49,216
2,note_on,55,0,24
2,note_on,53,0,456
2,note_on,52,47,0
2,note_on,55,49,240
2,note_on,52,0,24
2,note_on,61,54,216
2,note_on,55,0,24
2,note_on,60,49,216
2,note_on,61,0,24
2,note_on,58,49,216
2,note_on,60,0,24
2,note_on,57,38,216
2,note_on,58,0,24
2,note_on,57,0,216
2,note_on,58,40,480
2,note_on,58,0,240
2,note_on,69,40,480
2,note_on,60,34,0
2,note_on,69,0,720
2,note_on,70,40,0
2,note_on,70,0,720
2,note_on,60,0,0
2,note_on,69,67,0
2,note_on,65,67,0
2,note_on,65,0,480
2,note_on,69,0,0
2,note_on,55,67,240
2,note_on,55,0,120
2,note_on,52,62,120
2,note_on,52,0,120
2,note_on,48,62,120
2,note_on,48,0,120
2,note_on,53,67,120
2,note_on,53,0,480
2,note_on,55,67,240
2,note_on,55,0,120
2,note_on,52,62,120
2,note_on,52,0,120
2,note_on,48,62,120
2,note_on,48,0,120
2,note_on,53,67,120
2,note_on,53,0,480
2,note_on,67,67,240
2,note_on,67,0,120
2,note_on,64,62,120
2,note_on,64,0,120
2,note_on,60,62,120
2,note_on,60,0,120
2,note_on,65,67,120
2,note_on,65,0,480
2,note_on,67,67,240
2,note_on,67,0,120
2,note_on,64,62,120
2,note_on,64,0,120
2,note_on,60,62,120
2,note_on,60,0,120
2,note_on,65,67,120
2,note_on,65,0,480
2,note_on,50,49,2640
2,note_on,53,52,240
2,note_on,50,0,24
2,note_on,56,54,216
2,note_on,53,0,24
2,note_on,55,49,216
2,note_on,56,0,24
2,note_on,53,49,216
2,note_on,55,0,24
2,note_on,53,0,456
2,note_on,52,47,0
2,note_on,55,49,240
2,note_on,52,0,24
2,note_on,61,54,216
2,note_on,55,0,24
2,note_on,60,49,216
2,note_on,61,0,24
2,note_on,58,49,216
2,note_on,60,0,24
2,note_on,57,38,216
2,note_on,58,0,24
2,note_on,57,0,216
2,note_on,58,40,480
2,note_on,58,0,240
2,note_on,60,34,480
2,note_on,69,40,0
2,note_on,69,0,720
2,note_on,60,0,0
2,note_on,58,32,0
2,note_on,67,40,0
2,note_on,67,0,720
2,note_on,58,0,0
2,note_on,57,64,0
2,note_on,57,0,240
2,note_on,60,53,0
2,note_on,60,0,240
2,note_on,65,53,0
2,note_on,65,0,240
2,note_on,58,61,0
2,note_on,58,0,240
2,note_on,62,53,0
2,note_on,62,0,240
2,note_on,67,50,0
2,note_on,67,0,240
2,note_on,60,38,0
2,note_on,60,0,240
2,note_on,65,34,0
2,note_on,65,0,240
2,note_on,69,34,0
2,note_on,69,0,240
2,note_on,60,39,0
2,note_on,60,0,240
2,note_on,67,33,0
2,note_on,67,0,240
2,note_on,70,33,0
2,note_on,70,0,240
2,note_on,69,66,0
2,note_on,65,56,0
2,note_on,65,0,480
2,note_on,69,0,0
2,note_on,70,66,240
2,note_on,60,56,0
2,note_on,64,66,0
2,note_on,64,0,480
2,note_on,60,0,0
2,note_on,70,0,0
2,note_on,65,56,240
2,note_on,69,66,0
2,note_on,69,0,480
2,note_on,65,0,0
2,note_on,70,66,240
2,note_on,60,56,0
2,note_on,64,56,0
2,note_on,64,0,480
2,note_on,60,0,0
2,note_on,70,0,0
2,note_on,57,66,240
2,note_on,53,56,0
2,note_on,53,0,480
2,note_on,57,0,0
2,note_on,48,56,240
2,note_on,52,56,0
2,note_on,58,66,0
2,note_on,58,0,480
2,note_on,52,0,0
2,note_on,48,0,0
2,note_on,41,70,240
2,note_on,41,0,120
2,note_on,45,63,120
2,note_on,45,0,120
2,note_on,48,63,120
2,note_on,48,0,120
2,note_on,53,70,120
2,note_on,53,0,120
2,note_on,57,64,120
2,note_on,57,0,120
2,note_on,60,64,120
2,note_on,60,0,120
2,note_on,65,74,120
2,note_on,65,0,240
2,note_on,65,74,480
2,note_on,53,62,0
2,note_on,53,0,480
2,note_on,65,0,0
2,note_on,45,62,240
2,note_on,57,74,0
2,note_on,57,0,480
2,note_on,45,0,0
2,note_on,46,62,960
2,note_on,58,74,0
2,note_on,58,0,480
2,note_on,46,0,0
2,note_on,47,62,960
2,note_on,59,74,0
2,note_on,59,0,480
2,note_on,47,0,0
2,note_on,57,42,960
2,note_on,48,35,0
2,note_on,48,0,1440
2,note_on,57,0,0
2,note_on,58,42,0
2,note_on,48,35,0
2,note_on,48,0,1440
2,note_on,58,0,0
2,note_on,57,42,0
2,note_on,53,35,0
2,note_on,53,0,240
2,note_on,57,0,0
2,note_on,45,60,240
2,note_on,45,0,240
2,note_on,46,66,0
2,note_on,46,0,120
2,note_on,55,61,120
2,note_on,55,0,120
2,note_on,47,61,120
2,note_on,47,0,120
2,note_on,48,66,120
2,note_on,48,0,120
2,note_on,57,61,120
2,note_on,57,0,120
2,note_on,49,61,120
2,note_on,49,0,120
2,note_on,50,66,120
2,note_on,50,0,120
2,note_on,58,61,120
2,note_on,58,0,120
2,note_on,52,61,120
2,note_on,52,0,120
2,note_on,58,28,840
2,note_on,60,28,0
2,note_on,67,34,0
2,note_on,64,28,0
2,note_on,64,0,720
2,note_on,58,0,0
2,note_on,60,0,0
2,note_on,67,0,0
2,note_on,60,41,0
2,note_on,57,41,0
2,note_on,65,49,0
2,note_on,65,0,240
2,note_on,57,0,0
2,note_on,60,0,0
2,note_on,60,42,480
2,note_on,60,0,480
2,note_on,61,42,0
2,note_on,61,0,240
2,note_on,62,47,0
2,note_on,62,0,960
2,note_on,45,60,960
2,note_on,45,0,240
2,note_on,46,66,0
2,note_on,46,0,120
2,note_on,55,61,120
2,note_on,55,0,120
2,note_on,47,61,120
2,note_on,47,0,120
2,note_on,48,66,120
2,note_on,48,0,120
2,note_on,57,61,120
2,note_on,57,0,120
2,note_on,49,61,120
2,note_on,49,0,120
2,note_on,50,66,120
2,note_on,50,0,120
2,note_on,58,61,120
2,note_on,58,0,120
2,note_on,52,61,120
2,note_on,52,0,120
2,note_on,58,28,840
2,note_on,60,28,0
2,note_on,64,28,0
2,note_on,67,34,0
2,note_on,67,0,720
2,note_on,58,0,0
2,note_on,60,0,0
2,note_on,64,0,0
2,note_on,57,41,0
2,note_on,65,49,0
2,note_on,60,41,0
2,note_on,60,0,240
2,note_on,65,0,0
2,note_on,57,0,0
2,note_on,58,32,480
2,note_on,62,32,0
2,note_on,65,41,0
2,note_on,65,0,240
2,note_on,62,0,0
2,note_on,58,0,0
2,note_on,57,32,480
2,note_on,48,27,0
2,note_on,57,0,720
2,note_on,58,28,0
2,note_on,58,0,720
2,note_on,48,0,0
2,note_on,53,28,0
2,note_on,57,24,240
2,note_on,57,0,240
2,note_on,60,24,0
2,note_on,60,0,240
2,note_on,53,0,0
2,note_on,53,28,0
2,note_on,55,26,240
2,note_on,55,0,240
2,note_on,58,26,0
2,note_on,58,0,240
2,note_on,53,0,0
2,note_on,53,28,0
2,note_on,57,24,240
2,note_on,57,0,240
2,note_on,60,24,0
2,note_on,60,0,240
2,note_on,53,0,0
2,note_on,53,28,0
2,note_on,55,24,240
2,note_on,55,0,240
2,note_on,58,24,0
2,note_on,58,0,240
2,note_on,53,0,0
2,note_on,53,28,0
2,note_on,57,24,240
2,note_on,57,0,240
2,note_on,60,24,0
2,note_on,60,0,240
2,note_on,53,0,0
2,note_on,53,28,0
2,note_on,57,24,240
2,note_on,57,0,240
2,note_on,60,24,0
2,note_on,60,0,240
2,note_on,53,0,0
2,note_on,53,28,0
2,note_on,41,23,0
2,note_on,41,0,960
2,note_on,53,0,0
2,note_on,48,70,480
2,note_on,39,59,0
2,note_on,43,59,0
2,note_on,36,59,0
2,note_on,36,0,480
2,note_on,48,0,0
2,note_on,39,0,0
2,note_on,43,0,0
2,note_on,51,70,3120
2,note_on,51,0,120
2,note_on,50,66,120
2,note_on,50,0,120
2,note_on,51,66,120
2,note_on,51,0,120
2,note_on,53,70,120
2,note_on,53,0,120
2,note_on,51,67,120
2,note_on,51,0,120
2,note_on,53,67,120
2,note_on,53,0,120
2,note_on,55,70,120
2,note_on,55,0,120
2,note_on,53,67,120
2,note_on,53,0,120
2,note_on,55,67,120
2,note_on,55,0,120
2,note_on,56,74,120
2,note_on,56,0,480
2,note_on,55,67,0
2,note_on,55,0,120
2,note_on,56,74,120
2,note_on,56,0,480
2,note_on,55,66,0
2,note_on,55,0,120
2,note_on,54,44,120
2,note_on,55,38,240
2,note_on,54,0,10
2,note_on,55,0,230
2,note_on,54,55,0
2,note_on,55,60,240
2,note_on,54,0,10
2,note_on,55,0,230
2,note_on,56,63,0
2,note_on,55,47,240
2,note_on,56,0,10
2,note_on,55,0,230
2,note_on,54,47,0
2,note_on,55,42,240
2,note_on,54,0,10
2,note_on,55,0,230
2,note_on,54,59,0
2,note_on,55,53,240
2,note_on,54,0,10
2,note_on,55,0,230
2,note_on,56,64,0
2,note_on,55,41,240
2,note_on,56,0,10
2,note_on,55,0,230
2,note_on,54,42,120
2,note_on,54,0,120
2,note_on,57,44,0
2,note_on,57,0,120
2,note_on,60,46,0
2,note_on,60,0,120
2,note_on,62,48,0
2,note_on,62,0,120
2,note_on,55,44,2280
2,note_on,56,38,240
2,note_on,55,0,10
2,note_on,56,0,230
2,note_on,55,55,0
2,note_on,56,55,240
2,note_on,55,0,10
2,note_on,56,0,230
2,note_on,58,63,0
2,note_on,56,47,240
2,note_on,58,0,10
2,note_on,56,0,230
2,note_on,55,47,0
2,note_on,56,42,240
2,note_on,55,0,10
2,note_on,56,0,230
2,note_on,55,59,0
2,note_on,56,53,240
2,note_on,55,0,10
2,note_on,56,0,230
2,note_on,58,64,0
2,note_on,56,41,240
2,note_on,58,0,10
2,note_on,56,0,230
2,note_on,55,42,120
2,note_on,55,0,120
2,note_on,59,44,0
2,note_on,59,0,120
2,note_on,62,46,0
2,note_on,62,0,120
2,note_on,65,48,0
2,note_on,65,0,120
2,note_on,60,44,2280
2,note_on,59,38,240
2,note_on,60,0,10
2,note_on,59,0,230
2,note_on,60,45,0
2,note_on,61,54,240
2,note_on,60,0,10
2,note_on,61,0,230
2,note_on,60,49,0
2,note_on,59,44,240
2,note_on,60,0,10
2,note_on,59,0,230
2,note_on,60,47,0
2,note_on,59,42,240
2,note_on,60,0,10
2,note_on,59,0,230
2,note_on,60,48,0
2,note_on,61,51,240
2,note_on,60,0,10
2,note_on,61,0,230
2,note_on,60,46,0
2,note_on,59,41,240
2,note_on,60,0,10
2,note_on,59,0,230
2,note_on,48,42,120
2,note_on,48,0,120
2,note_on,52,44,0
2,note_on,52,0,120
2,note_on,55,46,0
2,note_on,55,0,120
2,note_on,58,48,0
2,note_on,58,0,120
2,note_on,57,44,2280
2,note_on,58,38,240
2,note_on,57,0,10
2,note_on,58,0,230
2,note_on,57,55,0
2,note_on,58,55,240
2,note_on,57,0,10
2,note_on,58,0,230
2,note_on,59,63,0
2,note_on,58,47,240
2,note_on,59,0,10
2,note_on,58,0,230
2,note_on,57,47,0
2,note_on,58,42,240
2,note_on,57,0,10
2,note_on,58,0,230
2,note_on,57,59,0
2,note_on,58,53,240
2,note_on,57,0,10
2,note_on,58,0,230
2,note_on,59,64,0
2,note_on,58,41,240
2,note_on,59,0,10
2,note_on,58,0,230
2,note_on,57,42,120
2,note_on,57,0,120
2,note_on,60,44,0
2,note_on,60,0,120
2,note_on,63,46,0
2,note_on,63,0,120
2,note_on,65,48,0
2,note_on,65,0,120
2,note_on,58,29,2280
2,note_on,58,0,240
2,note_on,62,25,0
2,note_on,62,0,240
2,note_on,65,25,0
2,note_on,65,0,240
2,note_on,57,30,0
2,note_on,57,0,240
2,note_on,60,26,0
2,note_on,60,0,240
2,note_on,65,26,0
2,note_on,65,0,240
2,note_on,55,30,0
2,note_on,55,0,240
2,note_on,58,27,0
2,note_on,58,0,240
2,note_on,63,27,0
2,note_on,63,0,240
2,note_on,54,29,0
2,note_on,54,0,240
2,note_on,57,25,0
2,note_on,57,0,240
2,note_on,62,25,0
2,note_on,62,0,240
2,note_on,55,32,0
2,note_on,55,0,240
2,note_on,58,25,0
2,note_on,58,0,240
2,note_on,63,25,0
2,note_on,63,0,240
2,note_on,53,31,0
2,note_on,53,0,240
2,note_on,57,27,0
2,note_on,57,0,240
2,note_on,62,27,0
2,note_on,62,0,240
2,note_on,51,37,0
2,note_on,51,0,240
2,note_on,55,32,0
2,note_on,55,0,240
2,note_on,60,32,0
2,note_on,60,0,240
2,note_on,50,34,0
2,note_on,50,0,240
2,note_on,53,28,0
2,note_on,53,0,240
2,note_on,58,24,0
2,note_on,58,0,240
2,note_on,48,32,0
2,note_on,48,0,240
2,note_on,55,27,0
2,note_on,55,0,240
2,note_on,58,27,0
2,note_on,58,0,240
2,note_on,53,33,0
2,note_on,53,0,240
2,note_on,57,29,0
2,note_on,57,0,240
2,note_on,60,29,0
2,note_on,60,0,240
2,note_on,46,36,0
2,note_on,46,0,240
2,note_on,53,31,0
2,note_on,53,0,240
2,note_on,58,29,0
2,note_on,58,0,240
2,note_on,54,33,0
2,note_on,54,0,240
2,note_on,58,33,0
2,note_on,58,0,240
2,note_on,61,33,0
2,note_on,61,0,240
2,note_on,51,39,0
2,note_on,51,0,240
2,note_on,54,35,0
2,note_on,54,0,240
2,note_on,58,36,0
2,note_on,58,0,240
2,note_on,52,45,0
2,note_on,52,0,240
2,note_on,55,38,0
2,note_on,55,0,240
2,note_on,61,39,0
2,note_on,61,0,240
2,note_on,53,47,0
2,note_on,53,0,240
2,note_on,57,40,0
2,note_on,57,0,240
2,note_on,60,40,0
2,note_on,60,0,240
2,note_on,53,48,0
2,note_on,53,0,240
2,note_on,51,42,0
2,note_on,51,0,240
2,note_on,48,43,0
2,note_on,48,0,240
2,note_on,58,58,0
2,note_on,46,49,0
2,note_on,46,0,480
2,note_on,58,0,0
2,note_on,45,49,240
2,note_on,57,58,0
2,note_on,57,0,480
2,note_on,45,0,0
2,note_on,43,49,240
2,note_on,55,58,0
2,note_on,55,0,1200
2,note_on,43,0,0
2,note_on,54,57,0
2,note_on,42,48,0
2,note_on,42,0,240
2,note_on,54,0,0
2,note_on,55,57,0
2,note_on,43,48,0
2,note_on,43,0,480
2,note_on,55,0,0
2,note_on,41,48,240
2,note_on,53,57,0
2,note_on,53,0,480
2,note_on,41,0,0
2,note_on,51,47,240
2,note_on,39,39,0
2,note_on,39,0,1200
2,note_on,51,0,0
2,note_on,38,35,0
2,note_on,50,42,0
2,note_on,50,0,240
2,note_on,38,0,0
2,note_on,48,51,0
2,note_on,48,0,120
2,note_on,55,44,0
2,note_on,55,0,120
2,note_on,58,44,0
2,note_on,58,0,120
2,note_on,54,51,360
2,note_on,54,0,120
2,note_on,57,42,0
2,note_on,57,0,120
2,note_on,60,44,0
2,note_on,60,0,120
2,note_on,55,51,360
2,note_on,55,0,120
2,note_on,58,42,0
2,note_on,58,0,120
2,note_on,62,42,0
2,note_on,62,0,120
2,note_on,51,57,360
2,note_on,51,0,120
2,note_on,55,49,0
2,note_on,55,0,120
2,note_on,60,49,0
2,note_on,60,0,120
2,note_on,41,63,360
2,note_on,41,0,120
2,note_on,50,56,0
2,note_on,50,0,120
2,note_on,53,56,0
2,note_on,53,0,120
2,note_on,41,70,360
2,note_on,41,0,120
2,note_on,48,61,0
2,note_on,48,0,120
2,note_on,53,61,0
2,note_on,53,0,120
2,note_on,34,72,360
2,note_on,34,0,960
2,note_on,38,42,0
2,note_on,38,0,240
2,note_on,41,44,0
2,note_on,41,0,240
2,note_on,46,46,0
2,note_on,50,48,240
2,note_on,50,0,240
2,note_on,53,50,0
2,note_on,53,0,240
2,note_on,58,52,0
2,note_on,58,0,240
2,note_on,46,0,480
2,note_on,45,45,0
2,note_on,48,45,0
2,note_on,51,45,0
2,note_on,51,0,1440
2,note_on,54,45,0
2,note_on,54,0,1440
2,note_on,48,0,0
2,note_on,45,0,0
2,note_on,55,45,0
2,note_on,50,45,0
2,note_on,46,45,0
2,note_on,46,0,2880
2,note_on,50,0,0
2,note_on,55,0,0
2,note_on,61,33,0
2,note_on,58,26,0
2,note_on,58,0,480
2,note_on,61,0,0
2,note_on,61,33,240
2,note_on,58,26,0
2,note_on,58,0,480
2,note_on,61,0,0
2,note_on,58,26,240
2,note_on,60,33,0
2,note_on,60,0,480
2,note_on,58,0,0
2,note_on,60,33,240
2,note_on,58,26,0
2,note_on,58,0,480
2,note_on,60,0,0
2,note_on,44,50,240
2,note_on,56,60,0
2,note_on,56,0,2880
2,note_on,44,0,0
2,note_on,62,45,0
2,note_on,64,41,240
2,note_on,64,0,240
2,note_on,65,41,0
2,note_on,65,0,240
2,note_on,68,45,0
2,note_on,68,0,240
2,note_on,64,41,0
2,note_on,64,0,240
2,note_on,65,41,0
2,note_on,65,0,240
2,note_on,62,0,0
2,note_on,61,45,0
2,note_on,68,54,0
2,note_on,68,0,240
2,note_on,64,42,0
2,note_on,64,0,240
2,note_on,65,42,0
2,note_on,65,0,240
2,note_on,68,52,0
2,note_on,68,0,240
2,note_on,67,47,0
2,note_on,67,0,240
2,note_on,65,52,0
2,note_on,65,0,240
2,note_on,61,0,0
2,note_on,48,49,0
2,note_on,60,58,0
2,note_on,60,0,480
2,note_on,48,0,0
2,note_on,60,58,240
2,note_on,48,49,0
2,note_on,48,0,480
2,note_on,60,0,0
2,note_on,48,49,240
2,note_on,60,57,0
2,note_on,60,0,480
2,note_on,48,0,0
2,note_on,60,57,240
2,note_on,48,49,0
2,note_on,48,0,480
2,note_on,60,0,0
2,note_on,48,49,240
2,note_on,60,57,0
2,note_on,60,0,480
2,note_on,48,0,0
2,note_on,60,56,240
2,note_on,48,48,0
2,note_on,48,0,480
2,note_on,60,0,0
2,note_on,36,72,240
2,note_on,36,0,120
2,note_on,40,60,120
2,note_on,40,0,120
2,note_on,43,60,120
2,note_on,43,0,120
2,note_on,48,69,120
2,note_on,48,0,120
2,note_on,52,60,120
2,note_on,52,0,120
2,note_on,55,60,120
2,note_on,55,0,120
2,note_on,60,69,120
2,note_on,60,0,240
2,note_on,60,59,4080
2,note_on,61,60,120
2,note_on,60,0,12
2,note_on,62,62,108
2,note_on,61,0,12
2,note_on,60,63,108
2,note_on,62,0,12
2,note_on,58,62,108
2,note_on,60,0,12
2,note_on,57,60,108
2,note_on,58,0,12
2,note_on,55,59,108
2,note_on,57,0,12
2,note_on,57,61,108
2,note_on,55,0,12
2,note_on,58,62,108
2,note_on,57,0,12
2,note_on,57,61,108
2,note_on,58,0,12
2,note_on,55,59,108
2,note_on,57,0,12
2,note_on,53,57,108
2,note_on,55,0,12
2,note_on,52,58,108
2,note_on,53,0,12
2,note_on,53,60,108
2,note_on,52,0,12
2,note_on,55,62,108
2,note_on,53,0,12
2,note_on,53,61,108
2,note_on,55,0,12
2,note_on,52,61,108
2,note_on,53,0,12
2,note_on,50,60,108
2,note_on,52,0,12
2,note_on,48,59,108
2,note_on,50,0,12
2,note_on,50,60,108
2,note_on,48,0,12
2,note_on,48,61,108
2,note_on,50,0,12
2,note_on,46,61,108
2,note_on,48,0,12
2,note_on,45,60,108
2,note_on,46,0,12
2,note_on,43,58,108
2,note_on,45,0,12
2,note_on,43,0,108
2,note_on,53,70,0
2,note_on,45,59,0
2,note_on,48,59,0
2,note_on,41,59,0
2,note_on,41,0,480
2,note_on,53,0,0
2,note_on,45,0,0
2,note_on,48,0,0
2,note_on,57,70,3120
2,note_on,57,0,120
2,note_on,55,66,120
2,note_on,55,0,120
2,note_on,57,66,120
2,note_on,57,0,120
2,note_on,58,70,120
2,note_on,58,0,120
2,note_on,57,67,120
2,note_on,57,0,120
2,note_on,58,67,120
2,note_on,58,0,120
2,note_on,60,70,120
2,note_on,60,0,120
2,note_on,58,67,120
2,note_on,58,0,120
2,note_on,60,67,120
2,note_on,60,0,120
2,note_on,61,74,120
2,note_on,61,0,480
2,note_on,60,67,0
2,note_on,60,0,120
2,note_on,61,74,120
2,note_on,61,0,480
2,note_on,60,66,0
2,note_on,60,0,120
2,note_on,59,47,120
2,note_on,59,0,120
2,note_on,59,47,120
2,note_on,59,0,120
2,note_on,59,47,120
2,note_on,59,0,120
2,note_on,60,50,120
2,note_on,60,0,240
2,note_on,45,59,480
2,note_on,48,59,0
2,note_on,53,70,0
2,note_on,41,59,0
2,note_on,41,0,480
2,note_on,45,0,0
2,note_on,48,0,0
2,note_on,53,0,0
2,note_on,57,70,3120
2,note_on,57,0,120
2,note_on,55,66,120
2,note_on,55,0,120
2,note_on,57,66,120
2,note_on,57,0,120
2,note_on,58,70,120
2,note_on,58,0,120
2,note_on,57,67,120
2,note_on,57,0,120
2,note_on,58,67,120
2,note_on,58,0,120
2,note_on,60,70,120
2,note_on,60,0,120
2,note_on,58,67,120
2,note_on,58,0,120
2,note_on,60,67,120
2,note_on,60,0,120
2,note_on,61,74,120
2,note_on,61,0,480
2,note_on,60,67,0
2,note_on,60,0,120
2,note_on,61,74,120
2,note_on,61,0,480
2,note_on,60,66,0
2,note_on,60,0,120
2,note_on,59,36,120
2,note_on,59,0,120
2,note_on,58,36,600
2,note_on,58,0,120
2,note_on,57,35,600
2,note_on,57,0,120
2,note_on,46,58,600
2,note_on,46,0,120
2,note_on,58,61,0
2,note_on,58,0,120
2,note_on,52,45,480
2,note_on,58,57,0
2,note_on,48,45,0
2,note_on,48,0,720
2,note_on,58,0,0
2,note_on,52,0,0
2,note_on,53,40,0
2,note_on,57,51,0
2,note_on,57,0,240
2,note_on,53,0,0
2,note_on,48,41,480
2,note_on,48,0,240
2,note_on,60,31,0
2,note_on,58,24,0
2,note_on,58,0,120
2,note_on,60,0,0
2,note_on,60,31,120
2,note_on,58,24,0
2,note_on,58,0,120
2,note_on,60,0,0
2,note_on,60,31,120
2,note_on,58,24,0
2,note_on,58,0,120
2,note_on,60,0,0
2,note_on,60,31,120
2,note_on,58,24,0
2,note_on,58,0,120
2,note_on,60,0,0
2,note_on,60,31,120
2,note_on,58,24,0
2,note_on,58,0,120
2,note_on,60,0,0
2,note_on,53,41,120
2,note_on,53,0,240
2,note_on,57,24,0
2,note_on,60,31,0
2,note_on,60,0,120
2,note_on,57,0,0
2,note_on,57,24,120
2,note_on,60,31,0
2,note_on,60,0,120
2,note_on,57,0,0
2,note_on,60,31,120
2,note_on,57,24,0
2,note_on,57,0,120
2,note_on,60,0,0
2,note_on,60,31,120
2,note_on,57,24,0
2,note_on,57,0,120
2,note_on,60,0,0
2,note_on,60,31,120
2,note_on,57,24,0
2,note_on,57,0,120
2,note_on,60,0,0
2,note_on,48,41,120
2,note_on,48,0,240
2,note_on,55,24,0
2,note_on,60,31,0
2,note_on,60,0,120
2,note_on,55,0,0
2,note_on,55,24,120
2,note_on,60,31,0
2,note_on,60,0,120
2,note_on,55,0,0
2,note_on,55,24,120
2,note_on,60,31,0
2,note_on,60,0,120
2,note_on,55,0,0
2,note_on,55,24,120
2,note_on,60,31,0
2,note_on,60,0,120
2,note_on,55,0,0
2,note_on,55,24,120
2,note_on,60,31,0
2,note_on,60,0,120
2,note_on,55,0,0
2,note_on,53,41,120
2,note_on,53,0,240
2,note_on,57,24,0
2,note_on,60,31,0
2,note_on,60,0,120
2,note_on,57,0,0
2,note_on,57,24,120
2,note_on,60,31,0
2,note_on,60,0,120
2,note_on,57,0,0
2,note_on,57,24,120
2,note_on,60,31,0
2,note_on,60,0,120
2,note_on,57,0,0
2,note_on,57,24,120
2,note_on,60,31,0
2,note_on,60,0,120
2,note_on,57,0,0
2,note_on,57,24,120
2,note_on,60,31,0
2,note_on,60,0,120
2,note_on,57,0,0
2,note_on,48,41,120
2,note_on,48,0,240
2,note_on,60,31,0
2,note_on,58,24,0
2,note_on,58,0,120
2,note_on,60,0,0
2,note_on,60,31,120
2,note_on,58,24,0
2,note_on,58,0,120
2,note_on,60,0,0
2,note_on,60,31,120
2,note_on,58,24,0
2,note_on,58,0,120
2,note_on,60,0,0
2,note_on,60,31,120
2,note_on,58,24,0
2,note_on,58,0,120
2,note_on,60,0,0
2,note_on,58,24,120
2,note_on,60,31,0
2,note_on,60,0,120
2,note_on,58,0,0
2,note_on,53,41,120
2,note_on,53,0,240
2,note_on,57,24,0
2,note_on,60,31,0
2,note_on,60,0,120
2,note_on,57,0,0
2,note_on,57,24,120
2,note_on,60,31,0
2,note_on,60,0,120
2,note_on,57,0,0
2,note_on,60,31,120
2,note_on,57,24,0
2,note_on,57,0,120
2,note_on,60,0,0
2,note_on,60,31,120
2,note_on,57,24,0
2,note_on,57,0,120
2,note_on,60,0,0
2,note_on,60,31,120
2,note_on,57,24,0
2,note_on,57,0,120
2,note_on,60,0,0
2,note_on,48,41,120
2,note_on,48,0,240
2,note_on,55,24,0
2,note_on,60,31,0
2,note_on,60,0,120
2,note_on,55,0,0
2,note_on,60,31,120
2,note_on,55,24,0
2,note_on,55,0,120
2,note_on,60,0,0
2,note_on,58,24,120
2,note_on,60,31,0
2,note_on,60,0,120
2,note_on,58,0,0
2,note_on,60,31,120
2,note_on,58,24,0
2,note_on,58,0,120
2,note_on,60,0,0
2,note_on,58,24,120
2,note_on,60,31,0
2,note_on,60,0,120
2,note_on,58,0,0
2,note_on,60,41,120
2,note_on,53,32,0
2,note_on,57,32,0
2,note_on,57,0,240
2,note_on,53,0,0
2,note_on,60,0,0
2,note_on,51,52,480
2,note_on,55,52,0
2,note_on,61,62,0
2,note_on,61,0,720
2,note_on,55,0,0
2,note_on,51,0,0
2,note_on,62,68,0
2,note_on,54,57,0
2,note_on,50,57,0
2,note_on,50,0,720
2,note_on,54,0,0
2,note_on,62,0,0
2,note_on,50,63,720
2,note_on,62,74,0
2,note_on,62,0,720
2,note_on,50,0,0
2,note_on,48,63,0
2,note_on,60,74,0
2,note_on,60,0,720
2,note_on,48,0,0
2,note_on,46,63,0
2,note_on,58,74,0
2,note_on,58,0,720
2,note_on,46,0,0
2,note_on,45,63,0
2,note_on,57,74,0
2,note_on,57,0,720
2,note_on,45,0,0
2,note_on,55,59,0
2,note_on,55,0,240
2,note_on,58,54,0
2,note_on,58,0,240
2,note_on,62,54,0
2,note_on,62,0,240
2,note_on,54,59,0
2,note_on,54,0,240
2,note_on,57,54,0
2,note_on,57,0,240
2,note_on,62,54,0
2,note_on,62,0,240
2,note_on,55,59,0
2,note_on,55,0,240
2,note_on,58,54,0
2,note_on,58,0,240
2,note_on,62,54,0
2,note_on,62,0,240
2,note_on,53,59,0
2,note_on,53,0,240
2,note_on,59,53,0
2,note_on,59,0,240
2,note_on,62,53,0
2,note_on,62,0,240
2,note_on,52,58,0
2,note_on,52,0,480
2,note_on,72,54,960
2,note_on,72,0,720
2,note_on,70,44,0
2,note_on,72,52,0
2,note_on,72,0,720
2,note_on,70,0,0
2,note_on,72,47,0
2,note_on,69,40,0
2,note_on,69,0,720
2,note_on,72,0,0
2,note_on,70,39,0
2,note_on,72,46,0
2,note_on,67,39,0
2,note_on,67,0,720
2,note_on,72,0,0
2,note_on,70,0,0
2,note_on,65,44,0
2,note_on,65,0,120
2,note_on,69,37,120
2,note_on,69,0,120
2,note_on,72,37,120
2,note_on,72,0,120
2,note_on,64,43,120
2,note_on,64,0,120
2,note_on,67,37,120
2,note_on,67,0,120
2,note_on,72,37,120
2,note_on,72,0,120
2,note_on,69,46,120
2,note_on,72,46,0
2,note_on,65,46,0
2,note_on,65,0,240
2,note_on,72,0,0
2,note_on,69,0,0
2,note_on,46,49,1200
2,note_on,46,0,120
2,note_on,58,40,120
2,note_on,58,0,120
2,note_on,52,48,360
2,note_on,52,0,120
2,note_on,64,43,120
2,note_on,64,0,120
2,note_on,45,50,360
2,note_on,45,0,120
2,note_on,57,43,120
2,note_on,57,0,120
2,note_on,50,47,360
2,note_on,50,0,120
2,note_on,62,40,120
2,note_on,62,0,120
2,note_on,43,45,360
2,note_on,43,0,120
2,note_on,45,47,120
2,note_on,45,0,120
2,note_on,46,49,120
2,note_on,46,0,120
2,note_on,48,51,120
2,note_on,48,0,120
2,note_on,50,53,120
2,note_on,50,0,120
2,note_on,52,55,120
2,note_on,52,0,120
2,note_on,53,57,120
2,note_on,53,0,120
2,note_on,45,49,360
2,note_on,45,0,120
2,note_on,46,59,120
2,note_on,46,0,120
2,note_on,47,50,360
2,note_on,47,0,120
2,note_on,48,56,120
2,note_on,48,0,120
2,note_on,62,57,720
2,note_on,60,56,120
2,note_on,62,0,12
2,note_on,58,55,108
2,note_on,60,0,12
2,note_on,57,52,108
2,note_on,58,0,12
2,note_on,55,51,108
2,note_on,57,0,12
2,note_on,55,0,108
2,note_on,53,41,0
2,note_on,53,0,240
2,note_on,56,31,0
2,note_on,56,0,240
2,note_on,60,31,0
2,note_on,60,0,240
2,note_on,53,37,0
2,note_on,53,0,240
2,note_on,56,31,0
2,note_on,56,0,240
2,note_on,60,31,0
2,note_on,60,0,240
2,note_on,52,41,0
2,note_on,52,0,240
2,note_on,55,31,0
2,note_on,55,0,240
2,note_on,60,31,0
2,note_on,60,0,240
2,note_on,52,36,0
2,note_on,52,0,240
2,note_on,55,31,0
2,note_on,55,0,240
2,note_on,60,31,0
2,note_on,60,0,240
2,note_on,52,41,0
2,note_on,52,0,240
2,note_on,55,31,0
2,note_on,55,0,240
2,note_on,58,31,0
2,note_on,58,0,240
2,note_on,52,37,0
2,note_on,52,0,240
2,note_on,55,31,0
2,note_on,55,0,240
2,note_on,60,31,0
2,note_on,60,0,240
2,note_on,53,41,0
2,note_on,53,0,240
2,note_on,56,31,0
2,note_on,56,0,240
2,note_on,60,31,0
2,note_on,60,0,240
2,note_on,53,36,0
2,note_on,53,0,240
2,note_on,56,31,0
2,note_on,56,0,240
2,note_on,60,31,0
2,note_on,60,0,240
2,note_on,56,47,0
2,note_on,56,0,240
2,note_on,60,36,0
2,note_on,60,0,240
2,note_on,65,36,0
2,note_on,65,0,240
2,note_on,55,44,0
2,note_on,55,0,240
2,note_on,58,32,0
2,note_on,58,0,240
2,note_on,63,33,0
2,note_on,63,0,240
2,note_on,53,48,0
2,note_on,53,0,240
2,note_on,56,36,0
2,note_on,56,0,240
2,note_on,61,36,0
2,note_on,61,0,240
2,note_on,51,45,0
2,note_on,51,0,240
2,note_on,55,31,0
2,note_on,55,0,240
2,note_on,60,31,0
2,note_on,60,0,240
2,note_on,49,46,0
2,note_on,49,0,240
2,note_on,53,35,0
2,note_on,53,0,240
2,note_on,58,35,0
2,note_on,58,0,240
2,note_on,49,43,0
2,note_on,49,0,240
2,note_on,53,36,0
2,note_on,53,0,240
2,note_on,59,34,0
2,note_on,59,0,240
2,note_on,48,43,0
2,note_on,48,0,240
2,note_on,53,29,0
2,note_on,53,0,240
2,note_on,60,30,0
2,note_on,60,0,240
2,note_on,48,39,0
2,note_on,48,0,240
2,note_on,52,27,0
2,note_on,52,0,240
2,note_on,60,27,0
2,note_on,60,0,240
2,note_on,53,41,0
2,note_on,53,0,240
2,note_on,56,31,0
2,note_on,56,0,240
2,note_on,60,31,0
2,note_on,60,0,240
2,note_on,53,37,0
2,note_on,53,0,240
2,note_on,56,31,0
2,note_on,56,0,240
2,note_on,60,31,0
2,note_on,60,0,240
2,note_on,52,41,0
2,note_on,52,0,240
2,note_on,55,31,0
2,note_on,55,0,240
2,note_on,60,31,0
2,note_on,60,0,240
2,note_on,52,36,0
2,note_on,52,0,240
2,note_on,55,31,0
2,note_on,55,0,240
2,note_on,60,31,0
2,note_on,60,0,240
2,note_on,52,41,0
2,note_on,52,0,240
2,note_on,55,31,0
2,note_on,55,0,240
2,note_on,58,31,0
2,note_on,58,0,240
2,note_on,52,37,0
2,note_on,52,0,240
2,note_on,55,31,0
2,note_on,55,0,240
2,note_on,60,31,0
2,note_on,60,0,240
2,note_on,51,41,4
2,note_on,54,31,236
2,note_on,51,0,4
2,note_on,54,0,236
2,note_on,57,31,0
2,note_on,57,0,240
2,note_on,50,36,0
2,note_on,50,0,240
2,note_on,53,31,0
2,note_on,53,0,240
2,note_on,58,31,0
2,note_on,58,0,240
2,note_on,49,57,0
2,note_on,49,0,240
2,note_on,53,46,0
2,note_on,53,0,240
2,note_on,56,47,0
2,note_on,56,0,240
2,note_on,48,55,0
2,note_on,48,0,240
2,note_on,53,46,0
2,note_on,53,0,240
2,note_on,56,46,0
2,note_on,56,0,240
2,note_on,46,59,0
2,note_on,46,0,240
2,note_on,52,39,0
2,note_on,52,0,240
2,note_on,55,39,0
2,note_on,55,0,240
2,note_on,44,45,0
2,note_on,44,0,240
2,note_on,48,31,0
2,note_on,48,0,240
2,note_on,53,31,0
2,note_on,53,0,240
2,note_on,48,45,0
2,note_on,48,0,240
2,note_on,53,30,0
2,note_on,53,0,240
2,note_on,56,30,0
2,note_on,56,0,240
2,note_on,48,38,0
2,note_on,48,0,240
2,note_on,55,31,0
2,note_on,55,0,240
2,note_on,58,31,0
2,note_on,58,0,240
2,note_on,53,67,0
2,note_on,57,67,0
2,note_on,57,0,480
2,note_on,53,0,0
2,note_on,55,67,240
2,note_on,55,0,120
2,note_on,52,62,120
2,note_on,52,0,120
2,note_on,48,62,120
2,note_on,48,0,120
2,note_on,53,67,120
2,note_on,53,0,480
2,note_on,55,67,240
2,note_on,55,0,120
2,note_on,52,62,120
2,note_on,52,0,120
2,note_on,48,62,120
2,note_on,48,0,120
2,note_on,53,67,120
2,note_on,53,0,480
2,note_on,67,67,240
2,note_on,67,0,120
2,note_on,64,62,120
2,note_on,64,0,120
2,note_on,60,62,120
2,note_on,60,0,120
2,note_on,65,67,120
2,note_on,65,0,480
2,note_on,67,67,240
2,note_on,67,0,120
2,note_on,64,62,120
2,note_on,64,0,120
2,note_on,60,62,120
2,note_on,60,0,120
2,note_on,65,67,120
2,note_on,65,0,480
2,note_on,50,49,2640
2,note_on,53,52,240
2,note_on,50,0,24
2,note_on,56,54,216
2,note_on,53,0,24
2,note_on,55,49,216
2,note_on,56,0,24
2,note_on,53,49,216
2,note_on,55,0,24
2,note_on,53,0,456
2,note_on,52,47,0
2,note_on,55,49,240
2,note_on,52,0,24
2,note_on,61,54,216
2,note_on,55,0,24
2,note_on,60,49,216
2,note_on,61,0,24
2,note_on,58,49,216
2,note_on,60,0,24
2,note_on,57,38,216
2,note_on,58,0,24
2,note_on,57,0,216
2,note_on,58,40,480
2,note_on,58,0,240
2,note_on,69,40,480
2,note_on,60,34,0
2,note_on,69,0,720
2,note_on,70,40,0
2,note_on,70,0,720
2,note_on,60,0,0
2,note_on,69,67,0
2,note_on,65,67,0
2,note_on,65,0,480
2,note_on,69,0,0
2,note_on,55,67,240
2,note_on,55,0,120
2,note_on,52,62,120
2,note_on,52,0,120
2,note_on,48,62,120
2,note_on,48,0,120
2,note_on,53,67,120
2,note_on,53,0,480
2,note_on,55,67,240
2,note_on,55,0,120
2,note_on,52,62,120
2,note_on,52,0,120
2,note_on,48,62,120
2,note_on,48,0,120
2,note_on,53,67,120
2,note_on,53,0,480
2,note_on,67,67,240
2,note_on,67,0,120
2,note_on,64,62,120
2,note_on,64,0,120
2,note_on,60,62,120
2,note_on,60,0,120
2,note_on,65,67,120
2,note_on,65,0,480
2,note_on,67,67,240
2,note_on,67,0,120
2,note_on,64,62,120
2,note_on,64,0,120
2,note_on,60,62,120
2,note_on,60,0,120
2,note_on,65,67,120
2,note_on,65,0,480
2,note_on,50,49,2640
2,note_on,53,52,240
2,note_on,50,0,24
2,note_on,56,54,216
2,note_on,53,0,24
2,note_on,55,49,216
2,note_on,56,0,24
2,note_on,53,49,216
2,note_on,55,0,24
2,note_on,53,0,456
2,note_on,52,47,0
2,note_on,55,49,240
2,note_on,52,0,24
2,note_on,61,54,216
2,note_on,55,0,24
2,note_on,60,49,216
2,note_on,61,0,24
2,note_on,58,49,216
2,note_on,60,0,24
2,note_on,57,38,216
2,note_on,58,0,24
2,note_on,57,0,216
2,note_on,58,40,480
2,note_on,58,0,240
2,note_on,60,34,480
2,note_on,69,40,0
2,note_on,69,0,720
2,note_on,60,0,0
2,note_on,58,32,0
2,note_on,67,40,0
2,note_on,67,0,720
2,note_on,58,0,0
2,note_on,57,64,0
2,note_on,57,0,240
2,note_on,60,53,0
2,note_on,60,0,240
2,note_on,65,53,0
2,note_on,65,0,240
2,note_on,58,61,0
2,note_on,58,0,240
2,note_on,62,53,0
2,note_on,62,0,240
2,note_on,67,50,0
2,note_on,67,0,240
2,note_on,60,38,0
2,note_on,60,0,240
2,note_on,65,34,0
2,note_on,65,0,240
2,note_on,69,34,0
2,note_on,69,0,240
2,note_on,60,39,0
2,note_on,60,0,240
2,note_on,67,33,0
2,note_on,67,0,240
2,note_on,70,33,0
2,note_on,70,0,240
2,note_on,69,66,0
2,note_on,65,56,0
2,note_on,65,0,480
2,note_on,69,0,0
2,note_on,70,66,240
2,note_on,60,56,0
2,note_on,64,66,0
2,note_on,64,0,480
2,note_on,60,0,0
2,note_on,70,0,0
2,note_on,65,56,240
2,note_on,69,66,0
2,note_on,69,0,480
2,note_on,65,0,0
2,note_on,70,66,240
2,note_on,60,56,0
2,note_on,64,56,0
2,note_on,64,0,480
2,note_on,60,0,0
2,note_on,70,0,0
2,note_on,57,66,240
2,note_on,53,56,0
2,note_on,53,0,480
2,note_on,57,0,0
2,note_on,48,56,240
2,note_on,52,56,0
2,note_on,58,66,0
2,note_on,58,0,480
2,note_on,52,0,0
2,note_on,48,0,0
2,note_on,41,70,240
2,note_on,41,0,120
2,note_on,45,63,120
2,note_on,45,0,120
2,note_on,48,63,120
2,note_on,48,0,120
2,note_on,53,70,120
2,note_on,53,0,120
2,note_on,57,64,120
2,note_on,57,0,120
2,note_on,60,64,120
2,note_on,60,0,120
2,note_on,65,74,120
2,note_on,65,0,240
2,note_on,65,74,480
2,note_on,53,62,0
2,note_on,53,0,480
2,note_on,65,0,0
2,note_on,45,62,240
2,note_on,57,74,0
2,note_on,57,0,480
2,note_on,45,0,0
2,note_on,46,62,960
2,note_on,58,74,0
2,note_on,58,0,480
2,note_on,46,0,0
2,note_on,47,62,960
2,note_on,59,74,0
2,note_on,59,0,480
2,note_on,47,0,0
2,note_on,57,42,960
2,note_on,48,35,0
2,note_on,48,0,1440
2,note_on,57,0,0
2,note_on,58,42,0
2,note_on,48,35,0
2,note_on,48,0,1440
2,note_on,58,0,0
2,note_on,57,42,0
2,note_on,53,35,0
2,note_on,53,0,240
2,note_on,57,0,0
2,note_on,45,60,240
2,note_on,45,0,240
2,note_on,46,66,0
2,note_on,46,0,120
2,note_on,55,61,120
2,note_on,55,0,120
2,note_on,47,61,120
2,note_on,47,0,120
2,note_on,48,66,120
2,note_on,48,0,120
2,note_on,57,61,120
2,note_on,57,0,120
2,note_on,49,61,120
2,note_on,49,0,120
2,note_on,50,66,120
2,note_on,50,0,120
2,note_on,58,61,120
2,note_on,58,0,120
2,note_on,52,61,120
2,note_on,52,0,120
2,note_on,58,28,840
2,note_on,60,28,0
2,note_on,67,34,0
2,note_on,64,28,0
2,note_on,64,0,720
2,note_on,58,0,0
2,note_on,60,0,0
2,note_on,67,0,0
2,note_on,60,41,0
2,note_on,57,41,0
2,note_on,65,49,0
2,note_on,65,0,240
2,note_on,57,0,0
2,note_on,60,0,0
2,note_on,60,42,480
2,note_on,60,0,480
2,note_on,61,42,0
2,note_on,61,0,240
2,note_on,62,47,0
2,note_on,62,0,960
2,note_on,45,60,960
2,note_on,45,0,240
2,note_on,46,66,0
2,note_on,46,0,120
2,note_on,55,61,120
2,note_on,55,0,120
2,note_on,47,61,120
2,note_on,47,0,120
2,note_on,48,66,120
2,note_on,48,0,120
2,note_on,57,61,120
2,note_on,57,0,120
2,note_on,49,61,120
2,note_on,49,0,120
2,note_on,50,66,120
2,note_on,50,0,120
2,note_on,58,61,120
2,note_on,58,0,120
2,note_on,52,61,120
2,note_on,52,0,120
2,note_on,58,28,840
2,note_on,60,28,0
2,note_on,64,28,0
2,note_on,67,34,0
2,note_on,67,0,720
2,note_on,58,0,0
2,note_on,60,0,0
2,note_on,64,0,0
2,note_on,57,41,0
2,note_on,65,49,0
2,note_on,60,41,0
2,note_on,60,0,240
2,note_on,65,0,0
2,note_on,57,0,0
2,note_on,58,32,480
2,note_on,62,32,0
2,note_on,65,41,0
2,note_on,65,0,240
2,note_on,62,0,0
2,note_on,58,0,0
2,note_on,57,32,480
2,note_on,48,27,0
2,note_on,57,0,720
2,note_on,58,28,0
2,note_on,58,0,720
2,note_on,48,0,0
2,note_on,53,28,0
2,note_on,57,24,240
2,note_on,57,0,240
2,note_on,60,24,0
2,note_on,60,0,240
2,note_on,53,0,0
2,note_on,53,28,0
2,note_on,55,26,240
2,note_on,55,0,240
2,note_on,58,26,0
2,note_on,58,0,240
2,note_on,53,0,0
2,note_on,53,28,0
2,note_on,57,24,240
2,note_on,57,0,240
2,note_on,60,24,0
2,note_on,60,0,240
2,note_on,53,0,0
2,note_on,53,28,0
2,note_on,55,24,240
2,note_on,55,0,240
2,note_on,58,24,0
2,note_on,58,0,240
2,note_on,53,0,0
2,note_on,53,28,0
2,note_on,57,24,240
2,note_on,57,0,240
2,note_on,60,24,0
2,note_on,60,0,240
2,note_on,53,0,0
2,note_on,53,28,0
2,note_on,57,24,240
2,note_on,57,0,240
2,note_on,60,24,0
2,note_on,60,0,240
2,note_on,53,0,0
2,note_on,53,28,0
2,note_on,41,23,0
2,note_on,41,0,960
2,note_on,53,0,0
