Track,Message Type,Note,Velocity,Time
1,note_on,79,57,0
1,note_on,79,0,120
1,note_on,77,56,0
1,note_on,77,0,120
1,note_on,75,54,0
1,note_on,75,0,120
1,note_on,74,52,0
1,note_on,74,0,120
1,note_on,72,60,0
1,note_on,72,0,240
1,note_on,70,54,0
1,note_on,70,0,230
1,note_on,70,51,10
1,note_on,70,0,720
1,note_on,74,57,0
1,note_on,74,0,240
1,note_on,79,60,0
1,note_on,79,0,240
1,note_on,74,55,0
1,note_on,74,0,240
1,note_on,77,60,0
1,note_on,77,0,480
1,note_on,75,56,0
1,note_on,75,0,720
1,note_on,77,60,0
1,note_on,77,0,120
1,note_on,79,56,0
1,note_on,79,0,120
1,note_on,77,61,0
1,note_on,77,0,120
1,note_on,75,54,0
1,note_on,75,0,120
1,note_on,74,58,0
1,note_on,74,0,120
1,note_on,72,53,0
1,note_on,72,0,120
1,note_on,70,66,0
1,note_on,70,0,480
1,note_on,69,57,0
1,note_on,69,0,713
1,note_on,69,62,7
1,note_on,69,0,240
1,note_on,70,65,0
1,note_on,70,0,240
1,note_on,72,61,0
1,note_on,72,0,230
1,note_on,69,52,10
1,note_on,72,61,0
1,note_on,72,0,480
1,note_on,69,0,0
1,note_on,70,49,0
1,note_on,74,58,0
1,note_on,74,0,480
1,note_on,70,0,0
1,note_on,77,64,240
1,note_on,77,0,120
1,note_on,76,63,0
1,note_on,76,0,120
1,note_on,79,66,0
1,note_on,79,0,120
1,note_on,77,63,0
1,note_on,77,0,120
1,note_on,75,63,0
1,note_on,75,0,120
1,note_on,74,61,0
1,note_on,74,0,110
1,note_on,74,68,10
1,note_on,74,0,240
1,note_on,72,61,0
1,note_on,72,0,480
1,note_on,70,61,0
1,note_on,70,0,240
1,note_on,74,67,0
1,note_on,74,0,240
1,note_on,72,62,0
1,note_on,72,0,480
1,note_on,69,64,0
1,note_on,69,0,240
1,note_on,70,68,0
1,note_on,70,0,120
1,note_on,72,59,0
1,note_on,72,0,120
1,note_on,70,62,0
1,note_on,70,0,120
1,note_on,69,58,0
1,note_on,69,0,120
1,note_on,70,66,0
1,note_on,70,0,120
1,note_on,72,60,0
1,note_on,72,0,120
1,note_on,74,63,0
1,note_on,74,0,120
1,note_on,75,61,0
1,note_on,75,0,120
1,note_on,76,69,0
1,note_on,76,0,120
1,note_on,77,65,0
1,note_on,77,0,120
1,note_on,76,69,0
1,note_on,76,0,120
1,note_on,77,65,0
1,note_on,77,0,120
1,note_on,79,69,0
1,note_on,79,0,120
1,note_on,77,67,0
1,note_on,77,0,120
1,note_on,75,66,0
1,note_on,75,0,120
1,note_on,74,65,0
1,note_on,74,0,110
1,note_on,74,72,10
1,note_on,74,0,240
1,note_on,72,54,0
1,note_on,72,0,230
1,note_on,72,56,10
1,note_on,72,0,240
1,note_on,70,54,0
1,note_on,70,0,240
1,note_on,74,65,0
1,note_on,74,0,240
1,note_on,72,54,0
1,note_on,72,0,230
1,note_on,72,57,10
1,note_on,72,0,240
1,note_on,69,53,0
1,note_on,69,0,240
1,note_on,70,66,0
1,note_on,70,0,240
1,note_on,72,57,0
1,note_on,72,0,120
1,note_on,74,58,0
1,note_on,74,0,120
1,note_on,75,59,0
1,note_on,75,0,120
1,note_on,77,60,0
1,note_on,77,0,120
1,note_on,79,61,0
1,note_on,79,0,120
1,note_on,81,64,0
1,note_on,81,0,120
1,note_on,82,66,0
1,note_on,82,0,120
1,note_on,84,67,0
1,note_on,84,0,120
1,note_on,86,68,0
1,note_on,86,0,120
1,note_on,87,69,0
1,note_on,87,0,120
1,note_on,89,76,0
1,note_on,89,0,120
1,note_on,89,75,120
1,note_on,89,0,120
1,note_on,77,76,120
1,note_on,89,76,0
1,note_on,89,0,240
1,note_on,87,74,0
1,note_on,87,0,480
1,note_on,86,73,0
1,note_on,86,0,240
1,note_on,86,75,0
1,note_on,86,0,240
1,note_on,77,0,0
1,note_on,75,64,0
1,note_on,84,64,0
1,note_on,84,0,120
1,note_on,75,0,0
1,note_on,74,72,120
1,note_on,82,72,0
1,note_on,82,0,120
1,note_on,74,0,0
1,note_on,72,64,120
1,note_on,81,64,0
1,note_on,81,0,120
1,note_on,72,0,0
1,note_on,82,76,120
1,note_on,74,76,0
1,note_on,74,0,240
1,note_on,82,0,0
1,note_on,70,72,240
1,note_on,70,0,240
1,note_on,67,52,720
1,note_on,67,0,120
1,note_on,65,49,0
1,note_on,65,0,120
1,note_on,63,52,0
1,note_on,63,0,120
1,note_on,62,50,0
1,note_on,62,0,120
1,note_on,60,56,0
1,note_on,60,0,240
1,note_on,58,53,0
1,note_on,58,0,230
1,note_on,58,53,10
1,note_on,58,0,720
1,note_on,70,63,0
1,note_on,70,0,240
1,note_on,69,58,0
1,note_on,69,0,240
1,note_on,67,56,0
1,note_on,67,0,240
1,note_on,65,64,0
1,note_on,65,0,480
1,note_on,64,51,0
1,note_on,64,0,600
1,note_on,67,52,0
1,note_on,67,0,120
1,note_on,65,56,0
1,note_on,65,0,120
1,note_on,69,52,0
1,note_on,69,0,120
1,note_on,67,56,0
1,note_on,67,0,120
1,note_on,70,53,0
1,note_on,70,0,120
1,note_on,69,56,0
1,note_on,69,0,120
1,note_on,72,53,0
1,note_on,72,0,120
1,note_on,70,56,0
1,note_on,70,0,120
1,note_on,67,58,0
1,note_on,67,0,120
1,note_on,76,61,0
1,note_on,76,0,120
1,note_on,72,62,0
1,note_on,72,0,120
1,note_on,79,64,0
1,note_on,79,0,120
1,note_on,76,67,0
1,note_on,76,0,120
1,note_on,82,70,0
1,note_on,82,0,120
1,note_on,81,69,0
1,note_on,81,0,120
1,note_on,82,71,0
1,note_on,82,0,120
1,note_on,81,67,0
1,note_on,81,0,120
1,note_on,79,69,0
1,note_on,79,0,120
1,note_on,77,65,0
1,note_on,77,0,120
1,note_on,76,66,0
1,note_on,76,0,120
1,note_on,74,65,0
1,note_on,74,0,120
1,note_on,72,64,0
1,note_on,72,0,120
1,note_on,70,63,0
1,note_on,70,0,110
1,note_on,70,69,10
1,note_on,70,0,120
1,note_on,69,56,0
1,note_on,69,0,120
1,note_on,74,64,0
1,note_on,74,0,120
1,note_on,72,54,0
1,note_on,72,0,110
1,note_on,72,54,10
1,note_on,72,0,480
1,note_on,86,69,480
1,note_on,86,0,120
1,note_on,84,66,0
1,note_on,84,0,120
1,note_on,82,69,0
1,note_on,82,0,120
1,note_on,81,66,0
1,note_on,81,0,120
1,note_on,79,72,0
1,note_on,79,0,720
1,note_on,76,63,0
1,note_on,76,0,240
1,note_on,77,66,0
1,note_on,77,0,60
1,note_on,84,70,60
1,note_on,83,70,120
1,note_on,84,0,24
1,note_on,84,67,96
1,note_on,83,0,24
1,note_on,86,73,96
1,note_on,84,0,24
1,note_on,84,68,96
1,note_on,86,0,24
1,note_on,82,71,96
1,note_on,84,0,24
1,note_on,81,68,96
1,note_on,82,0,24
1,note_on,79,81,96
1,note_on,81,0,24
1,note_on,79,0,96
1,note_on,79,75,120
1,note_on,79,0,480
1,note_on,76,64,0
1,note_on,76,0,240
1,note_on,77,63,0
1,note_on,77,0,60
1,note_on,84,70,60
1,note_on,83,69,120
1,note_on,84,0,24
1,note_on,84,68,96
1,note_on,83,0,24
1,note_on,86,75,96
1,note_on,84,0,24
1,note_on,84,69,96
1,note_on,86,0,24
1,note_on,82,71,96
1,note_on,84,0,24
1,note_on,81,67,96
1,note_on,82,0,12
1,note_on,81,0,108
1,note_on,81,73,0
1,note_on,81,0,240
1,note_on,79,70,0
1,note_on,79,0,240
1,note_on,79,72,240
1,note_on,79,0,230
1,note_on,79,78,10
1,note_on,79,0,240
1,note_on,77,72,0
1,note_on,77,0,240
1,note_on,77,72,240
1,note_on,77,0,240
1,note_on,76,73,0
1,note_on,76,0,120
1,note_on,77,66,0
1,note_on,77,0,120
1,note_on,76,68,0
1,note_on,76,0,120
1,note_on,72,65,0
1,note_on,72,0,120
1,note_on,77,75,0
1,note_on,77,0,120
1,note_on,79,68,0
1,note_on,79,0,120
1,note_on,77,68,0
1,note_on,77,0,120
1,note_on,72,65,0
1,note_on,72,0,120
1,note_on,79,80,0
1,note_on,79,0,120
1,note_on,81,68,0
1,note_on,81,0,120
1,note_on,79,72,0
1,note_on,79,0,120
1,note_on,72,67,0
1,note_on,72,0,120
1,note_on,81,81,0
1,note_on,81,0,120
1,note_on,82,74,0
1,note_on,82,0,120
1,note_on,81,76,0
1,note_on,81,0,120
1,note_on,72,69,0
1,note_on,72,0,120
1,note_on,82,85,0
1,note_on,82,0,120
1,note_on,82,83,120
1,note_on,82,0,120
1,note_on,79,77,360
1,note_on,79,0,120
1,note_on,82,81,120
1,note_on,82,0,240
1,note_on,81,71,0
1,note_on,81,0,120
1,note_on,79,76,120
1,note_on,79,0,120
1,note_on,77,73,120
1,note_on,77,0,120
1,note_on,76,78,120
1,note_on,76,0,120
1,note_on,72,72,0
1,note_on,72,0,120
1,note_on,83,72,0
1,note_on,83,0,120
1,note_on,84,68,0
1,note_on,84,0,120
1,note_on,77,80,0
1,note_on,77,0,120
1,note_on,72,73,0
1,note_on,72,0,120
1,note_on,83,73,0
1,note_on,83,0,120
1,note_on,84,69,0
1,note_on,84,0,120
1,note_on,79,81,0
1,note_on,79,0,120
1,note_on,72,76,0
1,note_on,72,0,120
1,note_on,83,76,0
1,note_on,83,0,120
1,note_on,84,73,0
1,note_on,84,0,120
1,note_on,81,84,0
1,note_on,81,0,120
1,note_on,72,76,0
1,note_on,72,0,120
1,note_on,83,76,0
1,note_on,83,0,120
1,note_on,84,75,0
1,note_on,84,0,120
1,note_on,82,89,0
1,note_on,82,0,120
1,note_on,82,84,120
1,note_on,82,0,120
1,note_on,79,69,360
1,note_on,79,0,60
1,note_on,81,66,0
1,note_on,81,0,60
1,note_on,79,69,0
1,note_on,79,0,60
1,note_on,81,67,0
1,note_on,81,0,60
1,note_on,82,79,0
1,note_on,82,0,240
1,note_on,81,76,0
1,note_on,81,0,120
1,note_on,79,76,120
1,note_on,79,0,120
1,note_on,77,75,120
1,note_on,77,0,120
1,note_on,76,79,120
1,note_on,76,0,120
1,note_on,84,71,0
1,note_on,84,0,120
1,note_on,79,72,0
1,note_on,79,0,120
1,note_on,76,70,0
1,note_on,76,0,120
1,note_on,72,76,0
1,note_on,72,0,120
1,note_on,67,69,0
1,note_on,67,0,120
1,note_on,64,71,0
1,note_on,64,0,120
1,note_on,60,70,0
1,note_on,60,0,120
1,note_on,69,70,960
1,note_on,65,70,0
1,note_on,60,70,0
1,note_on,72,70,0
1,note_on,72,0,720
1,note_on,69,0,0
1,note_on,65,0,0
1,note_on,60,0,0
1,note_on,74,48,0
1,note_on,74,0,120
1,note_on,72,48,0
1,note_on,72,0,120
1,note_on,70,52,0
1,note_on,70,0,120
1,note_on,69,48,120
1,note_on,69,0,120
1,note_on,67,48,120
1,note_on,67,0,120
1,note_on,65,48,120
1,note_on,65,0,120
1,note_on,65,54,120
1,note_on,74,50,230
1,note_on,65,0,10
1,note_on,74,0,230
1,note_on,65,72,10
1,note_on,74,72,0
1,note_on,74,0,720
1,note_on,65,0,0
1,note_on,72,53,0
1,note_on,72,0,240
1,note_on,76,56,0
1,note_on,76,0,240
1,note_on,77,53,0
1,note_on,77,0,240
1,note_on,77,61,0
1,note_on,77,0,240
1,note_on,67,53,0
1,note_on,67,0,480
1,note_on,69,53,0
1,note_on,69,0,240
1,note_on,77,61,0
1,note_on,77,0,240
1,note_on,67,53,0
1,note_on,67,0,480
1,note_on,69,53,0
1,note_on,69,0,240
1,note_on,72,58,0
1,note_on,72,0,480
1,note_on,70,52,0
1,note_on,70,0,60
1,note_on,72,48,0
1,note_on,72,0,60
1,note_on,70,52,0
1,note_on,70,0,60
1,note_on,72,48,0
1,note_on,72,0,60
1,note_on,70,52,0
1,note_on,70,0,40
1,note_on,72,48,0
1,note_on,72,0,40
1,note_on,70,48,0
1,note_on,70,0,40
1,note_on,69,52,0
1,note_on,69,0,60
1,note_on,70,49,0
1,note_on,70,0,60
1,note_on,69,57,0
1,note_on,69,0,120
1,note_on,69,53,120
1,note_on,69,0,240
1,note_on,70,56,0
1,note_on,70,0,240
1,note_on,72,53,0
1,note_on,72,0,240
1,note_on,73,65,0
1,note_on,73,0,240
1,note_on,74,54,0
1,note_on,74,0,480
1,note_on,72,54,0
1,note_on,72,0,120
1,note_on,70,50,0
1,note_on,70,0,120
1,note_on,69,54,0
1,note_on,69,0,240
1,note_on,67,53,0
1,note_on,67,0,240
1,note_on,69,54,0
1,note_on,69,0,240
1,note_on,70,52,0
1,note_on,70,0,240
1,note_on,74,63,0
1,note_on,74,0,240
1,note_on,72,53,0
1,note_on,72,0,480
1,note_on,70,54,0
1,note_on,70,0,120
1,note_on,69,52,0
1,note_on,69,0,120
1,note_on,67,56,0
1,note_on,67,0,240
1,note_on,65,54,0
1,note_on,65,0,240
1,note_on,67,54,0
1,note_on,67,0,240
1,note_on,69,54,0
1,note_on,69,0,240
1,note_on,72,63,0
1,note_on,72,0,240
1,note_on,70,51,0
1,note_on,70,0,480
1,note_on,67,51,0
1,note_on,67,0,240
1,note_on,70,62,0
1,note_on,70,0,240
1,note_on,69,52,0
1,note_on,69,0,480
1,note_on,65,52,0
1,note_on,65,0,240
1,note_on,64,61,0
1,note_on,64,0,120
1,note_on,65,53,0
1,note_on,65,0,120
1,note_on,67,53,0
1,note_on,67,0,120
1,note_on,69,50,0
1,note_on,69,0,120
1,note_on,71,59,0
1,note_on,71,0,120
1,note_on,72,54,0
1,note_on,72,0,120
1,note_on,71,54,0
1,note_on,71,0,120
1,note_on,72,51,0
1,note_on,72,0,120
1,note_on,60,56,0
1,note_on,60,0,480
1,note_on,72,71,480
1,note_on,69,71,0
1,note_on,69,0,720
1,note_on,72,0,0
1,note_on,74,51,0
1,note_on,74,0,120
1,note_on,72,51,0
1,note_on,72,0,120
1,note_on,70,57,0
1,note_on,70,0,120
1,note_on,69,50,120
1,note_on,69,0,120
1,note_on,67,50,120
1,note_on,67,0,120
1,note_on,65,50,120
1,note_on,65,0,120
1,note_on,65,54,120
1,note_on,65,0,240
1,note_on,74,50,0
1,note_on,74,0,230
1,note_on,74,71,10
1,note_on,65,71,0
1,note_on,65,0,720
1,note_on,74,0,0
1,note_on,72,53,0
1,note_on,72,0,240
1,note_on,76,66,0
1,note_on,76,0,240
1,note_on,77,63,0
1,note_on,77,0,480
1,note_on,67,53,0
1,note_on,67,0,240
1,note_on,69,53,0
1,note_on,69,0,240
1,note_on,77,69,0
1,note_on,77,0,480
1,note_on,67,53,0
1,note_on,67,0,240
1,note_on,69,53,0
1,note_on,69,0,240
1,note_on,77,69,0
1,note_on,77,0,120
1,note_on,72,54,120
1,note_on,72,0,480
1,note_on,71,53,0
1,note_on,71,0,240
1,note_on,70,53,0
1,note_on,70,0,240
1,note_on,69,48,0
1,note_on,69,0,120
1,note_on,69,54,120
1,note_on,69,0,240
1,note_on,70,60,0
1,note_on,70,0,240
1,note_on,72,64,0
1,note_on,72,0,240
1,note_on,73,75,0
1,note_on,73,0,60
1,note_on,74,70,0
1,note_on,74,0,660
1,note_on,76,70,0
1,note_on,76,0,120
1,note_on,78,67,0
1,note_on,78,0,120
1,note_on,79,70,0
1,note_on,79,0,120
1,note_on,81,67,0
1,note_on,81,0,120
1,note_on,82,70,0
1,note_on,82,0,120
1,note_on,81,67,0
1,note_on,81,0,120
1,note_on,79,70,0
1,note_on,79,0,120
1,note_on,81,67,0
1,note_on,81,0,120
1,note_on,77,70,0
1,note_on,77,0,120
1,note_on,79,67,0
1,note_on,79,0,120
1,note_on,76,71,0
1,note_on,76,0,120
1,note_on,77,66,0
1,note_on,77,0,120
1,note_on,74,71,0
1,note_on,74,0,120
1,note_on,76,67,0
1,note_on,76,0,120
1,note_on,72,70,0
1,note_on,72,0,120
1,note_on,74,65,0
1,note_on,74,0,120
1,note_on,70,68,0
1,note_on,70,0,120
1,note_on,72,61,0
1,note_on,72,0,120
1,note_on,69,66,0
1,note_on,69,0,120
1,note_on,70,64,0
1,note_on,70,0,120
1,note_on,72,68,0
1,note_on,72,0,120
1,note_on,74,64,0
1,note_on,74,0,120
1,note_on,76,71,0
1,note_on,76,0,120
1,note_on,77,68,0
1,note_on,77,0,120
1,note_on,76,71,0
1,note_on,76,0,120
1,note_on,77,68,0
1,note_on,77,0,120
1,note_on,79,72,0
1,note_on,79,0,120
1,note_on,77,70,0
1,note_on,77,0,120
1,note_on,76,69,0
1,note_on,76,0,120
1,note_on,74,67,0
1,note_on,74,0,120
1,note_on,76,72,0
1,note_on,76,0,120
1,note_on,74,70,0
1,note_on,74,0,120
1,note_on,72,69,0
1,note_on,72,0,120
1,note_on,70,67,0
1,note_on,70,0,120
1,note_on,69,71,0
1,note_on,69,0,480
1,note_on,67,58,0
1,note_on,64,58,0
1,note_on,67,0,60
1,note_on,69,51,0
1,note_on,69,0,60
1,note_on,67,58,0
1,note_on,67,0,60
1,note_on,69,52,0
1,note_on,69,0,60
1,note_on,67,58,0
1,note_on,67,0,40
1,note_on,69,53,0
1,note_on,69,0,40
1,note_on,67,53,0
1,note_on,67,0,40
1,note_on,65,66,0
1,note_on,65,0,60
1,note_on,67,62,0
1,note_on,67,0,60
1,note_on,64,0,0
1,note_on,65,75,0
1,note_on,65,0,480
1,note_on,82,96,0
1,note_on,82,0,240
1,note_on,79,62,0
1,note_on,79,0,120
1,note_on,76,66,120
1,note_on,76,0,120
1,note_on,76,62,120
1,note_on,76,0,120
1,note_on,82,96,120
1,note_on,82,0,240
1,note_on,79,59,0
1,note_on,79,0,120
1,note_on,76,63,120
1,note_on,76,0,120
1,note_on,76,60,120
1,note_on,76,0,120
1,note_on,77,62,120
1,note_on,77,0,120
1,note_on,79,63,120
1,note_on,79,0,120
1,note_on,81,64,120
1,note_on,81,0,120
1,note_on,82,66,120
1,note_on,82,0,120
1,note_on,83,93,120
1,note_on,83,0,240
1,note_on,84,75,0
1,note_on,84,0,240
1,note_on,83,93,0
1,note_on,83,0,240
1,note_on,84,75,0
1,note_on,84,0,240
1,note_on,82,95,0
1,note_on,82,0,240
1,note_on,79,62,0
1,note_on,79,0,120
1,note_on,76,67,120
1,note_on,76,0,120
1,note_on,76,62,120
1,note_on,76,0,120
1,note_on,82,97,120
1,note_on,82,0,240
1,note_on,79,59,0
1,note_on,79,0,120
1,note_on,76,65,120
1,note_on,76,0,120
1,note_on,76,60,120
1,note_on,76,0,120
1,note_on,77,62,120
1,note_on,77,0,120
1,note_on,79,63,120
1,note_on,79,0,120
1,note_on,81,64,120
1,note_on,81,0,120
1,note_on,82,66,120
1,note_on,82,0,120
1,note_on,83,93,120
1,note_on,83,0,240
1,note_on,84,75,0
1,note_on,84,0,240
1,note_on,83,93,0
1,note_on,83,0,240
1,note_on,84,75,0
1,note_on,84,0,240
1,note_on,74,78,0
1,note_on,86,78,0
1,note_on,86,0,960
1,note_on,74,0,0
1,note_on,76,64,0
1,note_on,64,64,0
1,note_on,64,0,960
1,note_on,76,0,0
1,note_on,70,71,0
1,note_on,82,71,0
1,note_on,82,0,960
1,note_on,70,0,0
1,note_on,69,66,0
1,note_on,81,66,0
1,note_on,81,0,960
1,note_on,69,0,0
1,note_on,81,75,0
1,note_on,81,0,120
1,note_on,79,68,0
1,note_on,79,0,120
1,note_on,82,72,0
1,note_on,82,0,120
1,note_on,81,68,0
1,note_on,81,0,120
1,note_on,84,72,0
1,note_on,84,0,120
1,note_on,82,71,0
1,note_on,82,0,120
1,note_on,81,71,0
1,note_on,81,0,120
1,note_on,79,69,0
1,note_on,79,0,120
1,note_on,77,72,0
1,note_on,77,0,480
1,note_on,76,63,0
1,note_on,76,0,480
1,note_on,77,45,240
1,note_on,77,0,240
1,note_on,76,49,0
1,note_on,76,0,240
1,note_on,77,45,0
1,note_on,77,0,240
1,note_on,75,45,240
1,note_on,75,0,240
1,note_on,74,50,0
1,note_on,74,0,240
1,note_on,75,46,0
1,note_on,75,0,240
1,note_on,74,54,240
1,note_on,74,0,240
1,note_on,86,67,0
1,note_on,86,0,240
1,note_on,86,63,0
1,note_on,86,0,120
1,note_on,86,61,360
1,note_on,86,0,240
1,note_on,74,51,0
1,note_on,74,0,240
1,note_on,74,47,0
1,note_on,74,0,120
1,note_on,72,49,360
1,note_on,72,0,240
1,note_on,84,62,0
1,note_on,84,0,240
1,note_on,84,57,0
1,note_on,84,0,120
1,note_on,84,56,360
1,note_on,84,0,240
1,note_on,72,48,0
1,note_on,72,0,240
1,note_on,72,45,0
1,note_on,72,0,120
1,note_on,73,46,120
1,note_on,73,0,240
1,note_on,74,50,0
1,note_on,74,0,240
1,note_on,76,54,0
1,note_on,76,0,240
1,note_on,77,49,0
1,note_on,77,0,240
1,note_on,65,45,0
1,note_on,65,0,480
1,note_on,64,42,0
1,note_on,69,42,0
1,note_on,69,0,240
1,note_on,67,42,0
1,note_on,67,0,240
1,note_on,64,0,0
1,note_on,65,45,0
1,note_on,65,0,120
1,note_on,65,47,120
1,note_on,65,0,120
1,note_on,69,45,0
1,note_on,69,0,120
1,note_on,67,47,0
1,note_on,67,0,120
1,note_on,70,45,0
1,note_on,70,0,120
1,note_on,69,47,0
1,note_on,69,0,120
1,note_on,72,45,0
1,note_on,72,0,120
1,note_on,70,48,0
1,note_on,70,0,120
1,note_on,65,52,120
1,note_on,65,0,120
1,note_on,69,48,0
1,note_on,69,0,120
1,note_on,67,52,0
1,note_on,67,0,120
1,note_on,70,48,0
1,note_on,70,0,120
1,note_on,69,52,0
1,note_on,69,0,120
1,note_on,72,48,0
1,note_on,72,0,120
1,note_on,70,52,0
1,note_on,70,0,120
1,note_on,65,48,120
1,note_on,65,0,120
1,note_on,69,50,0
1,note_on,69,0,120
1,note_on,67,52,0
1,note_on,67,0,120
1,note_on,70,53,0
1,note_on,70,0,120
1,note_on,69,54,0
1,note_on,69,0,120
1,note_on,72,57,0
1,note_on,72,0,120
1,note_on,70,58,0
1,note_on,70,0,120
1,note_on,74,60,0
1,note_on,74,0,120
1,note_on,72,61,0
1,note_on,72,0,120
1,note_on,75,63,0
1,note_on,75,0,120
1,note_on,74,64,0
1,note_on,74,0,120
1,note_on,77,65,0
1,note_on,77,0,120
1,note_on,76,67,0
1,note_on,76,0,120
1,note_on,79,69,0
1,note_on,79,0,120
1,note_on,77,70,0
1,note_on,77,0,120
1,note_on,79,72,0
1,note_on,79,0,120
1,note_on,81,75,0
1,note_on,81,0,120
1,note_on,79,75,0
1,note_on,79,0,120
1,note_on,77,73,0
1,note_on,77,0,120
1,note_on,75,72,0
1,note_on,75,0,120
1,note_on,74,71,0
1,note_on,74,0,120
1,note_on,73,70,0
1,note_on,73,0,120
1,note_on,74,72,0
1,note_on,74,0,120
1,note_on,72,69,0
1,note_on,72,0,120
1,note_on,70,71,0
1,note_on,70,0,120
1,note_on,69,68,0
1,note_on,69,0,120
1,note_on,67,70,0
1,note_on,67,0,120
1,note_on,65,67,0
1,note_on,65,0,120
1,note_on,64,69,0
1,note_on,64,0,120
1,note_on,62,65,0
1,note_on,62,0,120
1,note_on,60,68,0
1,note_on,60,0,120
1,note_on,65,65,0
1,note_on,65,0,120
1,note_on,69,68,0
1,note_on,69,0,120
1,note_on,72,65,0
1,note_on,72,0,120
1,note_on,77,72,0
1,note_on,77,0,120
1,note_on,65,59,120
1,note_on,69,59,0
1,note_on,69,0,120
1,note_on,65,0,0
1,note_on,69,64,120
1,note_on,72,64,0
1,note_on,72,0,240
1,note_on,69,0,0
1,note_on,70,60,0
1,note_on,67,60,0
1,note_on,67,0,120
1,note_on,70,0,0
1,note_on,69,61,120
1,note_on,65,61,0
1,note_on,65,0,120
1,note_on,69,0,0
1,note_on,64,58,120
1,note_on,67,58,0
1,note_on,67,0,120
1,note_on,64,0,0
1,note_on,65,61,120
1,note_on,65,0,120
1,note_on,77,47,120
1,note_on,77,0,120
1,note_on,81,45,0
1,note_on,81,0,120
1,note_on,79,47,0
1,note_on,79,0,120
1,note_on,82,45,0
1,note_on,82,0,120
1,note_on,81,47,0
1,note_on,81,0,120
1,note_on,84,45,0
1,note_on,84,0,120
1,note_on,82,48,0
1,note_on,82,0,120
1,note_on,77,54,120
1,note_on,77,0,120
1,note_on,81,50,0
1,note_on,81,0,120
1,note_on,79,54,0
1,note_on,79,0,120
1,note_on,82,51,0
1,note_on,82,0,120
1,note_on,81,54,0
1,note_on,81,0,120
1,note_on,84,50,0
1,note_on,84,0,120
1,note_on,82,54,0
1,note_on,82,0,120
1,note_on,77,55,120
1,note_on,77,0,120
1,note_on,81,56,0
1,note_on,81,0,120
1,note_on,79,58,0
1,note_on,79,0,120
1,note_on,82,59,0
1,note_on,82,0,120
1,note_on,81,61,0
1,note_on,81,0,120
1,note_on,84,63,0
1,note_on,84,0,120
1,note_on,82,64,0
1,note_on,82,0,120
1,note_on,77,67,0
1,note_on,77,0,120
1,note_on,84,68,0
1,note_on,84,0,120
1,note_on,77,69,0
1,note_on,77,0,120
1,note_on,86,70,0
1,note_on,86,0,120
1,note_on,77,72,0
1,note_on,77,0,120
1,note_on,88,74,0
1,note_on,88,0,120
1,note_on,77,75,0
1,note_on,77,0,120
1,note_on,89,78,0
1,note_on,89,0,120
1,note_on,88,78,0
1,note_on,88,0,120
1,note_on,86,77,0
1,note_on,86,0,120
1,note_on,84,75,0
1,note_on,84,0,120
1,note_on,82,74,0
1,note_on,82,0,120
1,note_on,81,73,0
1,note_on,81,0,120
1,note_on,79,72,0
1,note_on,79,0,120
1,note_on,77,71,0
1,note_on,77,0,120
1,note_on,86,79,0
1,note_on,86,0,120
1,note_on,84,75,0
1,note_on,84,0,120
1,note_on,82,78,0
1,note_on,82,0,120
1,note_on,81,77,0
1,note_on,81,0,120
1,note_on,79,75,0
1,note_on,79,0,120
1,note_on,77,71,0
1,note_on,77,0,120
1,note_on,76,73,0
1,note_on,76,0,120
1,note_on,74,70,0
1,note_on,74,0,120
1,note_on,72,78,0
1,note_on,72,0,240
1,note_on,84,75,0
1,note_on,84,0,120
1,note_on,84,78,120
1,note_on,84,0,120
1,note_on,84,77,120
1,note_on,84,0,120
1,note_on,84,75,120
1,note_on,84,0,120
1,note_on,81,72,0
1,note_on,81,0,120
1,note_on,77,70,0
1,note_on,77,0,120
1,note_on,72,70,0
1,note_on,72,0,120
1,note_on,77,75,0
1,note_on,77,0,120
1,note_on,72,73,0
1,note_on,72,0,120
1,note_on,69,70,0
1,note_on,69,0,120
1,note_on,65,70,0
1,note_on,65,0,120
1,note_on,67,51,0
1,note_on,67,0,80
1,note_on,69,46,0
1,note_on,69,0,80
1,note_on,67,51,0
1,note_on,67,0,80
1,note_on,69,46,0
1,note_on,69,0,80
1,note_on,67,51,0
1,note_on,67,0,80
1,note_on,69,46,0
1,note_on,69,0,80
1,note_on,67,51,0
1,note_on,67,0,80
1,note_on,69,46,0
1,note_on,69,0,80
1,note_on,67,51,0
1,note_on,67,0,80
1,note_on,69,46,0
1,note_on,69,0,80
1,note_on,67,51,0
1,note_on,67,0,80
1,note_on,69,46,0
1,note_on,69,0,80
1,note_on,67,51,0
1,note_on,67,0,80
1,note_on,69,46,0
1,note_on,69,0,80
1,note_on,67,51,0
1,note_on,67,0,80
1,note_on,69,48,0
1,note_on,69,0,80
1,note_on,67,51,0
1,note_on,67,0,80
1,note_on,69,47,0
1,note_on,69,0,80
1,note_on,67,51,0
1,note_on,67,0,60
1,note_on,69,48,0
1,note_on,69,0,60
1,note_on,67,51,0
1,note_on,67,0,60
1,note_on,69,47,0
1,note_on,69,0,60
1,note_on,67,51,0
1,note_on,67,0,40
1,note_on,69,48,0
1,note_on,69,0,40
1,note_on,67,48,0
1,note_on,67,0,40
1,note_on,65,62,0
1,note_on,65,0,60
1,note_on,67,58,0
1,note_on,67,0,60
1,note_on,65,71,0
1,note_on,65,0,230
1,note_on,77,54,10
1,note_on,77,0,240
1,note_on,77,53,240
1,note_on,77,0,240
1,note_on,76,51,0
1,note_on,76,0,240
1,note_on,77,58,0
1,note_on,77,0,240
1,note_on,79,60,0
1,note_on,79,0,240
1,note_on,81,66,0
1,note_on,81,0,240
1,note_on,82,70,0
1,note_on,82,0,120
1,note_on,84,68,0
1,note_on,84,0,120
1,note_on,86,72,0
1,note_on,86,0,120
1,note_on,84,67,0
1,note_on,84,0,120
1,note_on,82,70,0
1,note_on,82,0,120
1,note_on,80,67,0
1,note_on,80,0,120
1,note_on,79,68,0
1,note_on,79,0,120
1,note_on,77,65,0
1,note_on,77,0,120
1,note_on,76,67,0
1,note_on,76,0,120
1,note_on,77,68,0
1,note_on,77,0,120
1,note_on,79,69,0
1,note_on,79,0,120
1,note_on,77,68,0
1,note_on,77,0,120
1,note_on,76,67,0
1,note_on,76,0,120
1,note_on,74,65,0
1,note_on,74,0,120
1,note_on,72,64,0
1,note_on,72,0,120
1,note_on,70,63,0
1,note_on,70,0,120
1,note_on,69,62,0
1,note_on,69,0,120
1,note_on,69,49,120
1,note_on,69,0,120
1,note_on,65,53,360
1,note_on,65,0,240
1,note_on,64,49,0
1,note_on,64,0,240
1,note_on,65,49,0
1,note_on,65,0,240
1,note_on,67,49,0
1,note_on,67,0,240
1,note_on,69,49,0
1,note_on,69,0,240
1,note_on,70,52,0
1,note_on,70,0,120
1,note_on,72,52,120
1,note_on,72,0,60
1,note_on,70,49,0
1,note_on,70,0,60
1,note_on,69,52,0
1,note_on,69,0,60
1,note_on,70,49,0
1,note_on,70,0,60
1,note_on,72,58,0
1,note_on,72,0,240
1,note_on,74,59,0
1,note_on,74,0,230
1,note_on,70,50,10
1,note_on,74,50,0
1,note_on,74,0,240
1,note_on,70,0,0
1,note_on,72,46,0
1,note_on,69,46,0
1,note_on,69,0,240
1,note_on,72,0,0
1,note_on,58,33,240
1,note_on,64,33,0
1,note_on,64,0,240
1,note_on,58,0,0
1,note_on,58,45,0
1,note_on,67,45,0
1,note_on,67,0,960
1,note_on,58,0,0
1,note_on,57,34,0
1,note_on,65,34,0
1,note_on,65,0,360
1,note_on,57,0,0
1,note_on,79,57,0
1,note_on,79,0,120
1,note_on,77,56,0
1,note_on,77,0,120
1,note_on,75,54,0
1,note_on,75,0,120
1,note_on,74,52,0
1,note_on,74,0,120
1,note_on,72,60,0
1,note_on,72,0,240
1,note_on,70,54,0
1,note_on,70,0,230
1,note_on,70,51,10
1,note_on,70,0,720
1,note_on,74,57,0
1,note_on,74,0,240
1,note_on,79,60,0
1,note_on,79,0,240
1,note_on,74,55,0
1,note_on,74,0,240
1,note_on,77,60,0
1,note_on,77,0,480
1,note_on,75,56,0
1,note_on,75,0,720
1,note_on,77,60,0
1,note_on,77,0,120
1,note_on,79,56,0
1,note_on,79,0,120
1,note_on,77,61,0
1,note_on,77,0,120
1,note_on,75,54,0
1,note_on,75,0,120
1,note_on,74,58,0
1,note_on,74,0,120
1,note_on,72,53,0
1,note_on,72,0,120
1,note_on,70,66,0
1,note_on,70,0,480
1,note_on,69,57,0
1,note_on,69,0,713
1,note_on,69,62,7
1,note_on,69,0,240
1,note_on,70,65,0
1,note_on,70,0,240
1,note_on,72,61,0
1,note_on,72,0,230
1,note_on,69,52,10
1,note_on,72,61,0
1,note_on,72,0,480
1,note_on,69,0,0
1,note_on,70,49,0
1,note_on,74,58,0
1,note_on,74,0,480
1,note_on,70,0,0
1,note_on,77,64,240
1,note_on,77,0,120
1,note_on,76,63,0
1,note_on,76,0,120
1,note_on,79,66,0
1,note_on,79,0,120
1,note_on,77,63,0
1,note_on,77,0,120
1,note_on,75,63,0
1,note_on,75,0,120
1,note_on,74,61,0
1,note_on,74,0,110
1,note_on,74,68,10
1,note_on,74,0,240
1,note_on,72,61,0
1,note_on,72,0,480
1,note_on,70,61,0
1,note_on,70,0,240
1,note_on,74,67,0
1,note_on,74,0,240
1,note_on,72,62,0
1,note_on,72,0,480
1,note_on,69,64,0
1,note_on,69,0,240
1,note_on,70,68,0
1,note_on,70,0,120
1,note_on,72,59,0
1,note_on,72,0,120
1,note_on,70,62,0
1,note_on,70,0,120
1,note_on,69,58,0
1,note_on,69,0,120
1,note_on,70,66,0
1,note_on,70,0,120
1,note_on,72,60,0
1,note_on,72,0,120
1,note_on,74,63,0
1,note_on,74,0,120
1,note_on,75,61,0
1,note_on,75,0,120
1,note_on,76,69,0
1,note_on,76,0,120
1,note_on,77,65,0
1,note_on,77,0,120
1,note_on,76,69,0
1,note_on,76,0,120
1,note_on,77,65,0
1,note_on,77,0,120
1,note_on,79,69,0
1,note_on,79,0,120
1,note_on,77,67,0
1,note_on,77,0,120
1,note_on,75,66,0
1,note_on,75,0,120
1,note_on,74,65,0
1,note_on,74,0,110
1,note_on,74,72,10
1,note_on,74,0,240
1,note_on,72,54,0
1,note_on,72,0,230
1,note_on,72,56,10
1,note_on,72,0,240
1,note_on,70,54,0
1,note_on,70,0,240
1,note_on,74,65,0
1,note_on,74,0,240
1,note_on,72,54,0
1,note_on,72,0,230
1,note_on,72,57,10
1,note_on,72,0,240
1,note_on,69,53,0
1,note_on,69,0,240
1,note_on,70,66,0
1,note_on,70,0,240
1,note_on,72,57,0
1,note_on,72,0,120
1,note_on,74,58,0
1,note_on,74,0,120
1,note_on,75,59,0
1,note_on,75,0,120
1,note_on,77,60,0
1,note_on,77,0,120
1,note_on,79,61,0
1,note_on,79,0,120
1,note_on,81,64,0
1,note_on,81,0,120
1,note_on,82,66,0
1,note_on,82,0,120
1,note_on,84,67,0
1,note_on,84,0,120
1,note_on,86,68,0
1,note_on,86,0,120
1,note_on,87,69,0
1,note_on,87,0,120
1,note_on,89,76,0
1,note_on,89,0,120
1,note_on,89,75,120
1,note_on,89,0,120
1,note_on,77,76,120
1,note_on,89,76,0
1,note_on,89,0,240
1,note_on,87,74,0
1,note_on,87,0,480
1,note_on,86,73,0
1,note_on,86,0,240
1,note_on,86,75,0
1,note_on,86,0,240
1,note_on,77,0,0
1,note_on,75,64,0
1,note_on,84,64,0
1,note_on,84,0,120
1,note_on,75,0,0
1,note_on,74,72,120
1,note_on,82,72,0
1,note_on,82,0,120
1,note_on,74,0,0
1,note_on,72,64,120
1,note_on,81,64,0
1,note_on,81,0,120
1,note_on,72,0,0
1,note_on,82,76,120
1,note_on,74,76,0
1,note_on,74,0,240
1,note_on,82,0,0
1,note_on,70,72,240
1,note_on,70,0,240
1,note_on,67,52,720
1,note_on,67,0,120
1,note_on,65,49,0
1,note_on,65,0,120
1,note_on,63,52,0
1,note_on,63,0,120
1,note_on,62,50,0
1,note_on,62,0,120
1,note_on,60,56,0
1,note_on,60,0,240
1,note_on,58,53,0
1,note_on,58,0,230
1,note_on,58,53,10
1,note_on,58,0,720
1,note_on,70,63,0
1,note_on,70,0,240
1,note_on,69,58,0
1,note_on,69,0,240
1,note_on,67,56,0
1,note_on,67,0,240
1,note_on,65,64,0
1,note_on,65,0,480
1,note_on,64,51,0
1,note_on,64,0,600
1,note_on,67,52,0
1,note_on,67,0,120
1,note_on,65,56,0
1,note_on,65,0,120
1,note_on,69,52,0
1,note_on,69,0,120
1,note_on,67,56,0
1,note_on,67,0,120
1,note_on,70,53,0
1,note_on,70,0,120
1,note_on,69,56,0
1,note_on,69,0,120
1,note_on,72,53,0
1,note_on,72,0,120
1,note_on,70,56,0
1,note_on,70,0,120
1,note_on,67,58,0
1,note_on,67,0,120
1,note_on,76,61,0
1,note_on,76,0,120
1,note_on,72,62,0
1,note_on,72,0,120
1,note_on,79,64,0
1,note_on,79,0,120
1,note_on,76,67,0
1,note_on,76,0,120
1,note_on,82,70,0
1,note_on,82,0,120
1,note_on,81,69,0
1,note_on,81,0,120
1,note_on,82,71,0
1,note_on,82,0,120
1,note_on,81,67,0
1,note_on,81,0,120
1,note_on,79,69,0
1,note_on,79,0,120
1,note_on,77,65,0
1,note_on,77,0,120
1,note_on,76,66,0
1,note_on,76,0,120
1,note_on,74,65,0
1,note_on,74,0,120
1,note_on,72,64,0
1,note_on,72,0,120
1,note_on,70,63,0
1,note_on,70,0,110
1,note_on,70,69,10
1,note_on,70,0,120
1,note_on,69,56,0
1,note_on,69,0,120
1,note_on,74,64,0
1,note_on,74,0,120
1,note_on,72,54,0
1,note_on,72,0,110
1,note_on,72,54,10
1,note_on,72,0,480
1,note_on,86,69,480
1,note_on,86,0,120
1,note_on,84,66,0
1,note_on,84,0,120
1,note_on,82,69,0
1,note_on,82,0,120
1,note_on,81,66,0
1,note_on,81,0,120
1,note_on,79,72,0
1,note_on,79,0,720
1,note_on,76,63,0
1,note_on,76,0,240
1,note_on,77,66,0
1,note_on,77,0,60
1,note_on,84,70,60
1,note_on,83,70,120
1,note_on,84,0,24
1,note_on,84,67,96
1,note_on,83,0,24
1,note_on,86,73,96
1,note_on,84,0,24
1,note_on,84,68,96
1,note_on,86,0,24
1,note_on,82,71,96
1,note_on,84,0,24
1,note_on,81,68,96
1,note_on,82,0,24
1,note_on,79,81,96
1,note_on,81,0,24
1,note_on,79,0,96
1,note_on,79,75,120
1,note_on,79,0,480
1,note_on,76,64,0
1,note_on,76,0,240
1,note_on,77,63,0
1,note_on,77,0,60
1,note_on,84,70,60
1,note_on,83,69,120
1,note_on,84,0,24
1,note_on,84,68,96
1,note_on,83,0,24
1,note_on,86,75,96
1,note_on,84,0,24
1,note_on,84,69,96
1,note_on,86,0,24
1,note_on,82,71,96
1,note_on,84,0,24
1,note_on,81,67,96
1,note_on,82,0,12
1,note_on,81,0,98
1,note_on,81,73,10
1,note_on,81,0,240
1,note_on,79,70,0
1,note_on,79,0,240
1,note_on,79,72,240
1,note_on,79,0,230
1,note_on,79,78,10
1,note_on,79,0,240
1,note_on,77,72,0
1,note_on,77,0,240
1,note_on,77,72,240
1,note_on,77,0,240
1,note_on,76,73,0
1,note_on,76,0,120
1,note_on,77,66,0
1,note_on,77,0,120
1,note_on,76,68,0
1,note_on,76,0,120
1,note_on,72,65,0
1,note_on,72,0,120
1,note_on,77,75,0
1,note_on,77,0,120
1,note_on,79,68,0
1,note_on,79,0,120
1,note_on,77,68,0
1,note_on,77,0,120
1,note_on,72,65,0
1,note_on,72,0,120
1,note_on,79,80,0
1,note_on,79,0,120
1,note_on,81,68,0
1,note_on,81,0,120
1,note_on,79,72,0
1,note_on,79,0,120
1,note_on,72,67,0
1,note_on,72,0,120
1,note_on,81,81,0
1,note_on,81,0,120
1,note_on,82,74,0
1,note_on,82,0,120
1,note_on,81,76,0
1,note_on,81,0,120
1,note_on,72,69,0
1,note_on,72,0,120
1,note_on,82,85,0
1,note_on,82,0,120
1,note_on,82,83,120
1,note_on,82,0,120
1,note_on,79,77,360
1,note_on,79,0,120
1,note_on,82,81,120
1,note_on,82,0,240
1,note_on,81,71,0
1,note_on,81,0,120
1,note_on,79,76,120
1,note_on,79,0,120
1,note_on,77,73,120
1,note_on,77,0,120
1,note_on,76,78,120
1,note_on,76,0,120
1,note_on,72,72,0
1,note_on,72,0,120
1,note_on,83,72,0
1,note_on,83,0,120
1,note_on,84,68,0
1,note_on,84,0,120
1,note_on,77,80,0
1,note_on,77,0,120
1,note_on,72,73,0
1,note_on,72,0,120
1,note_on,83,73,0
1,note_on,83,0,120
1,note_on,84,69,0
1,note_on,84,0,120
1,note_on,79,81,0
1,note_on,79,0,120
1,note_on,72,76,0
1,note_on,72,0,120
1,note_on,83,76,0
1,note_on,83,0,120
1,note_on,84,73,0
1,note_on,84,0,120
1,note_on,81,84,0
1,note_on,81,0,120
1,note_on,72,76,0
1,note_on,72,0,120
1,note_on,83,76,0
1,note_on,83,0,120
1,note_on,84,75,0
1,note_on,84,0,120
1,note_on,82,89,0
1,note_on,82,0,120
1,note_on,82,84,120
1,note_on,82,0,120
1,note_on,79,69,360
1,note_on,79,0,60
1,note_on,81,66,0
1,note_on,81,0,60
1,note_on,79,69,0
1,note_on,79,0,60
1,note_on,81,67,0
1,note_on,81,0,60
1,note_on,82,79,0
1,note_on,82,0,240
1,note_on,81,76,0
1,note_on,81,0,120
1,note_on,79,76,120
1,note_on,79,0,120
1,note_on,77,75,120
1,note_on,77,0,120
1,note_on,76,79,120
1,note_on,76,0,120
1,note_on,84,71,0
1,note_on,84,0,120
1,note_on,79,72,0
1,note_on,79,0,120
1,note_on,76,70,0
1,note_on,76,0,120
1,note_on,72,76,0
1,note_on,72,0,120
1,note_on,67,69,0
1,note_on,67,0,120
1,note_on,64,71,0
1,note_on,64,0,120
1,note_on,60,70,0
1,note_on,60,0,120
1,note_on,69,70,960
1,note_on,65,70,0
1,note_on,60,70,0
1,note_on,72,70,0
1,note_on,72,0,720
1,note_on,69,0,0
1,note_on,65,0,0
1,note_on,60,0,0
1,note_on,74,48,0
1,note_on,74,0,120
1,note_on,72,48,0
1,note_on,72,0,120
1,note_on,70,52,0
1,note_on,70,0,120
1,note_on,69,48,120
1,note_on,69,0,120
1,note_on,67,48,120
1,note_on,67,0,120
1,note_on,65,48,120
1,note_on,65,0,120
1,note_on,65,54,120
1,note_on,74,50,230
1,note_on,65,0,10
1,note_on,74,0,230
1,note_on,65,72,10
1,note_on,74,72,0
1,note_on,74,0,720
1,note_on,65,0,0
1,note_on,72,53,0
1,note_on,72,0,240
1,note_on,76,56,0
1,note_on,76,0,240
1,note_on,77,53,0
1,note_on,77,0,240
1,note_on,77,61,0
1,note_on,77,0,240
1,note_on,67,53,0
1,note_on,67,0,480
1,note_on,69,53,0
1,note_on,69,0,240
1,note_on,77,61,0
1,note_on,77,0,240
1,note_on,67,53,0
1,note_on,67,0,480
1,note_on,69,53,0
1,note_on,69,0,240
1,note_on,72,58,0
1,note_on,72,0,480
1,note_on,70,52,0
1,note_on,70,0,60
1,note_on,72,48,0
1,note_on,72,0,60
1,note_on,70,52,0
1,note_on,70,0,60
1,note_on,72,48,0
1,note_on,72,0,60
1,note_on,70,52,0
1,note_on,70,0,40
1,note_on,72,48,0
1,note_on,72,0,40
1,note_on,70,48,0
1,note_on,70,0,40
1,note_on,69,52,0
1,note_on,69,0,60
1,note_on,70,49,0
1,note_on,70,0,60
1,note_on,69,57,0
1,note_on,69,0,120
1,note_on,69,53,120
1,note_on,69,0,240
1,note_on,70,56,0
1,note_on,70,0,240
1,note_on,72,53,0
1,note_on,72,0,240
1,note_on,73,65,0
1,note_on,73,0,240
1,note_on,74,54,0
1,note_on,74,0,480
1,note_on,72,54,0
1,note_on,72,0,120
1,note_on,70,50,0
1,note_on,70,0,120
1,note_on,69,54,0
1,note_on,69,0,240
1,note_on,67,53,0
1,note_on,67,0,240
1,note_on,69,54,0
1,note_on,69,0,240
1,note_on,70,52,0
1,note_on,70,0,240
1,note_on,74,63,0
1,note_on,74,0,240
1,note_on,72,53,0
1,note_on,72,0,480
1,note_on,70,54,0
1,note_on,70,0,120
1,note_on,69,52,0
1,note_on,69,0,120
1,note_on,67,56,0
1,note_on,67,0,240
1,note_on,65,54,0
1,note_on,65,0,240
1,note_on,67,54,0
1,note_on,67,0,240
1,note_on,69,54,0
1,note_on,69,0,240
1,note_on,72,63,0
1,note_on,72,0,240
1,note_on,70,51,0
1,note_on,70,0,480
1,note_on,67,51,0
1,note_on,67,0,240
1,note_on,70,62,0
1,note_on,70,0,240
1,note_on,69,52,0
1,note_on,69,0,480
1,note_on,65,52,0
1,note_on,65,0,240
1,note_on,64,61,0
1,note_on,64,0,120
1,note_on,65,53,0
1,note_on,65,0,120
1,note_on,67,53,0
1,note_on,67,0,120
1,note_on,69,50,0
1,note_on,69,0,120
1,note_on,71,59,0
1,note_on,71,0,120
1,note_on,72,54,0
1,note_on,72,0,120
1,note_on,71,54,0
1,note_on,71,0,120
1,note_on,72,51,0
1,note_on,72,0,120
1,note_on,60,56,0
1,note_on,60,0,480
1,note_on,72,71,480
1,note_on,69,71,0
1,note_on,69,0,720
1,note_on,72,0,0
1,note_on,74,51,0
1,note_on,74,0,120
1,note_on,72,51,0
1,note_on,72,0,120
1,note_on,70,57,0
1,note_on,70,0,120
1,note_on,69,50,120
1,note_on,69,0,120
1,note_on,67,50,120
1,note_on,67,0,120
1,note_on,65,50,120
1,note_on,65,0,120
1,note_on,65,54,120
1,note_on,65,0,240
1,note_on,74,50,0
1,note_on,74,0,230
1,note_on,74,71,10
1,note_on,65,71,0
1,note_on,65,0,720
1,note_on,74,0,0
1,note_on,72,53,0
1,note_on,72,0,240
1,note_on,76,66,0
1,note_on,76,0,240
1,note_on,77,63,0
1,note_on,77,0,480
1,note_on,67,53,0
1,note_on,67,0,240
1,note_on,69,53,0
1,note_on,69,0,240
1,note_on,77,69,0
1,note_on,77,0,480
1,note_on,67,53,0
1,note_on,67,0,240
1,note_on,69,53,0
1,note_on,69,0,240
1,note_on,77,69,0
1,note_on,77,0,120
1,note_on,72,54,120
1,note_on,72,0,480
1,note_on,71,53,0
1,note_on,71,0,240
1,note_on,70,53,0
1,note_on,70,0,240
1,note_on,69,48,0
1,note_on,69,0,120
1,note_on,69,54,120
1,note_on,69,0,240
1,note_on,70,60,0
1,note_on,70,0,240
1,note_on,72,64,0
1,note_on,72,0,240
1,note_on,73,75,0
1,note_on,73,0,60
1,note_on,74,70,0
1,note_on,74,0,660
1,note_on,76,70,0
1,note_on,76,0,120
1,note_on,78,67,0
1,note_on,78,0,120
1,note_on,79,70,0
1,note_on,79,0,120
1,note_on,81,67,0
1,note_on,81,0,120
1,note_on,82,70,0
1,note_on,82,0,120
1,note_on,81,67,0
1,note_on,81,0,120
1,note_on,79,70,0
1,note_on,79,0,120
1,note_on,81,67,0
1,note_on,81,0,120
1,note_on,77,70,0
1,note_on,77,0,120
1,note_on,79,67,0
1,note_on,79,0,120
1,note_on,76,71,0
1,note_on,76,0,120
1,note_on,77,66,0
1,note_on,77,0,120
1,note_on,74,71,0
1,note_on,74,0,120
1,note_on,76,67,0
1,note_on,76,0,120
1,note_on,72,70,0
1,note_on,72,0,120
1,note_on,74,65,0
1,note_on,74,0,120
1,note_on,70,68,0
1,note_on,70,0,120
1,note_on,72,61,0
1,note_on,72,0,120
1,note_on,69,66,0
1,note_on,69,0,120
1,note_on,70,64,0
1,note_on,70,0,120
1,note_on,72,68,0
1,note_on,72,0,120
1,note_on,74,64,0
1,note_on,74,0,120
1,note_on,76,71,0
1,note_on,76,0,120
1,note_on,77,68,0
1,note_on,77,0,120
1,note_on,76,71,0
1,note_on,76,0,120
1,note_on,77,68,0
1,note_on,77,0,120
1,note_on,79,72,0
1,note_on,79,0,120
1,note_on,77,70,0
1,note_on,77,0,120
1,note_on,76,69,0
1,note_on,76,0,120
1,note_on,74,67,0
1,note_on,74,0,120
1,note_on,76,72,0
1,note_on,76,0,120
1,note_on,74,70,0
1,note_on,74,0,120
1,note_on,72,69,0
1,note_on,72,0,120
1,note_on,70,67,0
1,note_on,70,0,120
1,note_on,69,71,0
1,note_on,69,0,480
1,note_on,67,58,0
1,note_on,64,58,0
1,note_on,67,0,60
1,note_on,69,51,0
1,note_on,69,0,60
1,note_on,67,58,0
1,note_on,67,0,60
1,note_on,69,52,0
1,note_on,69,0,60
1,note_on,67,58,0
1,note_on,67,0,40
1,note_on,69,53,0
1,note_on,69,0,40
1,note_on,67,53,0
1,note_on,67,0,40
1,note_on,65,66,0
1,note_on,65,0,60
1,note_on,67,62,0
1,note_on,67,0,60
1,note_on,64,0,0
1,note_on,65,75,0
1,note_on,65,0,480
1,note_on,82,96,0
1,note_on,82,0,240
1,note_on,79,62,0
1,note_on,79,0,120
1,note_on,76,66,120
1,note_on,76,0,120
1,note_on,76,62,120
1,note_on,76,0,120
1,note_on,82,96,120
1,note_on,82,0,240
1,note_on,79,59,0
1,note_on,79,0,120
1,note_on,76,63,120
1,note_on,76,0,120
1,note_on,76,60,120
1,note_on,76,0,120
1,note_on,77,62,120
1,note_on,77,0,120
1,note_on,79,63,120
1,note_on,79,0,120
1,note_on,81,64,120
1,note_on,81,0,120
1,note_on,82,66,120
1,note_on,82,0,120
1,note_on,83,93,120
1,note_on,83,0,240
1,note_on,84,75,0
1,note_on,84,0,240
1,note_on,83,93,0
1,note_on,83,0,240
1,note_on,84,75,0
1,note_on,84,0,240
1,note_on,82,95,0
1,note_on,82,0,240
1,note_on,79,62,0
1,note_on,79,0,120
1,note_on,76,67,120
1,note_on,76,0,120
1,note_on,76,62,120
1,note_on,76,0,120
1,note_on,82,97,120
1,note_on,82,0,240
1,note_on,79,59,0
1,note_on,79,0,120
1,note_on,76,65,120
1,note_on,76,0,120
1,note_on,76,60,120
1,note_on,76,0,120
1,note_on,77,62,120
1,note_on,77,0,120
1,note_on,79,63,120
1,note_on,79,0,120
1,note_on,81,64,120
1,note_on,81,0,120
1,note_on,82,66,120
1,note_on,82,0,120
1,note_on,83,93,120
1,note_on,83,0,240
1,note_on,84,75,0
1,note_on,84,0,240
1,note_on,83,93,0
1,note_on,83,0,240
1,note_on,84,75,0
1,note_on,84,0,240
1,note_on,74,78,0
1,note_on,86,78,0
1,note_on,86,0,960
1,note_on,74,0,0
1,note_on,76,64,0
1,note_on,64,64,0
1,note_on,64,0,960
1,note_on,76,0,0
1,note_on,70,71,0
1,note_on,82,71,0
1,note_on,82,0,960
1,note_on,70,0,0
1,note_on,69,66,0
1,note_on,81,66,0
1,note_on,81,0,960
1,note_on,69,0,0
1,note_on,81,75,0
1,note_on,81,0,120
1,note_on,79,68,0
1,note_on,79,0,120
1,note_on,82,72,0
1,note_on,82,0,120
1,note_on,81,68,0
1,note_on,81,0,120
1,note_on,84,72,0
1,note_on,84,0,120
1,note_on,82,71,0
1,note_on,82,0,120
1,note_on,81,71,0
1,note_on,81,0,120
1,note_on,79,69,0
1,note_on,79,0,120
1,note_on,77,72,0
1,note_on,77,0,480
1,note_on,76,63,0
1,note_on,76,0,480
1,note_on,77,45,240
1,note_on,77,0,240
1,note_on,76,49,0
1,note_on,76,0,240
1,note_on,77,45,0
1,note_on,77,0,240
1,note_on,75,45,240
1,note_on,75,0,240
1,note_on,74,50,0
1,note_on,74,0,240
1,note_on,75,46,0
1,note_on,75,0,240
1,note_on,74,54,240
1,note_on,74,0,240
1,note_on,86,67,0
1,note_on,86,0,240
1,note_on,86,63,0
1,note_on,86,0,120
1,note_on,86,61,360
1,note_on,86,0,240
1,note_on,74,51,0
1,note_on,74,0,240
1,note_on,74,47,0
1,note_on,74,0,120
1,note_on,72,49,360
1,note_on,72,0,240
1,note_on,84,62,0
1,note_on,84,0,240
1,note_on,84,57,0
1,note_on,84,0,120
1,note_on,84,56,360
1,note_on,84,0,240
1,note_on,72,48,0
1,note_on,72,0,240
1,note_on,72,45,0
1,note_on,72,0,120
1,note_on,73,46,120
1,note_on,73,0,240
1,note_on,74,50,0
1,note_on,74,0,240
1,note_on,76,54,0
1,note_on,76,0,240
1,note_on,77,49,0
1,note_on,77,0,240
1,note_on,65,45,0
1,note_on,65,0,480
1,note_on,64,42,0
1,note_on,69,42,0
1,note_on,69,0,240
1,note_on,67,42,0
1,note_on,67,0,240
1,note_on,64,0,0
1,note_on,65,45,0
1,note_on,65,0,120
1,note_on,65,47,120
1,note_on,65,0,120
1,note_on,69,45,0
1,note_on,69,0,120
1,note_on,67,47,0
1,note_on,67,0,120
1,note_on,70,45,0
1,note_on,70,0,120
1,note_on,69,47,0
1,note_on,69,0,120
1,note_on,72,45,0
1,note_on,72,0,120
1,note_on,70,48,0
1,note_on,70,0,120
1,note_on,65,52,120
1,note_on,65,0,120
1,note_on,69,48,0
1,note_on,69,0,120
1,note_on,67,52,0
1,note_on,67,0,120
1,note_on,70,48,0
1,note_on,70,0,120
1,note_on,69,52,0
1,note_on,69,0,120
1,note_on,72,48,0
1,note_on,72,0,120
1,note_on,70,52,0
1,note_on,70,0,120
1,note_on,65,48,120
1,note_on,65,0,120
1,note_on,69,50,0
1,note_on,69,0,120
1,note_on,67,52,0
1,note_on,67,0,120
1,note_on,70,53,0
1,note_on,70,0,120
1,note_on,69,54,0
1,note_on,69,0,120
1,note_on,72,57,0
1,note_on,72,0,120
1,note_on,70,58,0
1,note_on,70,0,120
1,note_on,74,60,0
1,note_on,74,0,120
1,note_on,72,61,0
1,note_on,72,0,120
1,note_on,75,63,0
1,note_on,75,0,120
1,note_on,74,64,0
1,note_on,74,0,120
1,note_on,77,65,0
1,note_on,77,0,120
1,note_on,76,67,0
1,note_on,76,0,120
1,note_on,79,69,0
1,note_on,79,0,120
1,note_on,77,70,0
1,note_on,77,0,120
1,note_on,79,72,0
1,note_on,79,0,120
1,note_on,81,75,0
1,note_on,81,0,120
1,note_on,79,75,0
1,note_on,79,0,120
1,note_on,77,73,0
1,note_on,77,0,120
1,note_on,75,72,0
1,note_on,75,0,120
1,note_on,74,71,0
1,note_on,74,0,120
1,note_on,73,70,0
1,note_on,73,0,120
1,note_on,74,72,0
1,note_on,74,0,120
1,note_on,72,69,0
1,note_on,72,0,120
1,note_on,70,71,0
1,note_on,70,0,120
1,note_on,69,68,0
1,note_on,69,0,120
1,note_on,67,70,0
1,note_on,67,0,120
1,note_on,65,67,0
1,note_on,65,0,120
1,note_on,64,69,0
1,note_on,64,0,120
1,note_on,62,65,0
1,note_on,62,0,120
1,note_on,60,68,0
1,note_on,60,0,120
1,note_on,65,65,0
1,note_on,65,0,120
1,note_on,69,68,0
1,note_on,69,0,120
1,note_on,72,65,0
1,note_on,72,0,120
1,note_on,77,72,0
1,note_on,77,0,120
1,note_on,65,59,120
1,note_on,69,59,0
1,note_on,69,0,120
1,note_on,65,0,0
1,note_on,69,64,120
1,note_on,72,64,0
1,note_on,72,0,240
1,note_on,69,0,0
1,note_on,70,60,0
1,note_on,67,60,0
1,note_on,67,0,120
1,note_on,70,0,0
1,note_on,69,61,120
1,note_on,65,61,0
1,note_on,65,0,120
1,note_on,69,0,0
1,note_on,64,58,120
1,note_on,67,58,0
1,note_on,67,0,120
1,note_on,64,0,0
1,note_on,65,61,120
1,note_on,65,0,120
1,note_on,77,47,120
1,note_on,77,0,120
1,note_on,81,45,0
1,note_on,81,0,120
1,note_on,79,47,0
1,note_on,79,0,120
1,note_on,82,45,0
1,note_on,82,0,120
1,note_on,81,47,0
1,note_on,81,0,120
1,note_on,84,45,0
1,note_on,84,0,120
1,note_on,82,48,0
1,note_on,82,0,120
1,note_on,77,54,120
1,note_on,77,0,120
1,note_on,81,50,0
1,note_on,81,0,120
1,note_on,79,54,0
1,note_on,79,0,120
1,note_on,82,51,0
1,note_on,82,0,120
1,note_on,81,54,0
1,note_on,81,0,120
1,note_on,84,50,0
1,note_on,84,0,120
1,note_on,82,54,0
1,note_on,82,0,120
1,note_on,77,55,120
1,note_on,77,0,120
1,note_on,81,56,0
1,note_on,81,0,120
1,note_on,79,58,0
1,note_on,79,0,120
1,note_on,82,59,0
1,note_on,82,0,120
1,note_on,81,61,0
1,note_on,81,0,120
1,note_on,84,63,0
1,note_on,84,0,120
1,note_on,82,64,0
1,note_on,82,0,120
1,note_on,77,67,0
1,note_on,77,0,120
1,note_on,84,68,0
1,note_on,84,0,120
1,note_on,77,69,0
1,note_on,77,0,120
1,note_on,86,70,0
1,note_on,86,0,120
1,note_on,77,72,0
1,note_on,77,0,120
1,note_on,88,74,0
1,note_on,88,0,120
1,note_on,77,75,0
1,note_on,77,0,120
1,note_on,89,78,0
1,note_on,89,0,120
1,note_on,88,78,0
1,note_on,88,0,120
1,note_on,86,77,0
1,note_on,86,0,120
1,note_on,84,75,0
1,note_on,84,0,120
1,note_on,82,74,0
1,note_on,82,0,120
1,note_on,81,73,0
1,note_on,81,0,120
1,note_on,79,72,0
1,note_on,79,0,120
1,note_on,77,71,0
1,note_on,77,0,120
1,note_on,86,79,0
1,note_on,86,0,120
1,note_on,84,75,0
1,note_on,84,0,120
1,note_on,82,78,0
1,note_on,82,0,120
1,note_on,81,77,0
1,note_on,81,0,120
1,note_on,79,75,0
1,note_on,79,0,120
1,note_on,77,71,0
1,note_on,77,0,120
1,note_on,76,73,0
1,note_on,76,0,120
1,note_on,74,70,0
1,note_on,74,0,120
1,note_on,72,78,0
1,note_on,72,0,240
1,note_on,84,75,0
1,note_on,84,0,120
1,note_on,84,78,120
1,note_on,84,0,120
1,note_on,84,77,120
1,note_on,84,0,120
1,note_on,84,75,120
1,note_on,84,0,120
1,note_on,81,72,0
1,note_on,81,0,120
1,note_on,77,70,0
1,note_on,77,0,120
1,note_on,72,70,0
1,note_on,72,0,120
1,note_on,77,75,0
1,note_on,77,0,120
1,note_on,72,73,0
1,note_on,72,0,120
1,note_on,69,70,0
1,note_on,69,0,120
1,note_on,65,70,0
1,note_on,65,0,120
1,note_on,67,51,0
1,note_on,67,0,80
1,note_on,69,46,0
1,note_on,69,0,80
1,note_on,67,51,0
1,note_on,67,0,80
1,note_on,69,46,0
1,note_on,69,0,80
1,note_on,67,51,0
1,note_on,67,0,80
1,note_on,69,46,0
1,note_on,69,0,80
1,note_on,67,51,0
1,note_on,67,0,80
1,note_on,69,46,0
1,note_on,69,0,80
1,note_on,67,51,0
1,note_on,67,0,80
1,note_on,69,46,0
1,note_on,69,0,80
1,note_on,67,51,0
1,note_on,67,0,80
1,note_on,69,46,0
1,note_on,69,0,80
1,note_on,67,51,0
1,note_on,67,0,80
1,note_on,69,46,0
1,note_on,69,0,80
1,note_on,67,51,0
1,note_on,67,0,80
1,note_on,69,48,0
1,note_on,69,0,80
1,note_on,67,51,0
1,note_on,67,0,80
1,note_on,69,47,0
1,note_on,69,0,80
1,note_on,67,51,0
1,note_on,67,0,60
1,note_on,69,48,0
1,note_on,69,0,60
1,note_on,67,51,0
1,note_on,67,0,60
1,note_on,69,47,0
1,note_on,69,0,60
1,note_on,67,51,0
1,note_on,67,0,40
1,note_on,69,48,0
1,note_on,69,0,40
1,note_on,67,48,0
1,note_on,67,0,40
1,note_on,65,62,0
1,note_on,65,0,60
1,note_on,67,58,0
1,note_on,67,0,60
1,note_on,65,71,0
1,note_on,65,0,230
1,note_on,77,54,10
1,note_on,77,0,240
1,note_on,77,53,240
1,note_on,77,0,240
1,note_on,76,51,0
1,note_on,76,0,240
1,note_on,77,58,0
1,note_on,77,0,240
1,note_on,79,60,0
1,note_on,79,0,240
1,note_on,81,66,0
1,note_on,81,0,240
1,note_on,82,70,0
1,note_on,82,0,120
1,note_on,84,68,0
1,note_on,84,0,120
1,note_on,86,72,0
1,note_on,86,0,120
1,note_on,84,67,0
1,note_on,84,0,120
1,note_on,82,70,0
1,note_on,82,0,120
1,note_on,80,67,0
1,note_on,80,0,120
1,note_on,79,68,0
1,note_on,79,0,120
1,note_on,77,65,0
1,note_on,77,0,120
1,note_on,76,67,0
1,note_on,76,0,120
1,note_on,77,68,0
1,note_on,77,0,120
1,note_on,79,69,0
1,note_on,79,0,120
1,note_on,77,68,0
1,note_on,77,0,120
1,note_on,76,67,0
1,note_on,76,0,120
1,note_on,74,65,0
1,note_on,74,0,120
1,note_on,72,64,0
1,note_on,72,0,120
1,note_on,70,63,0
1,note_on,70,0,120
1,note_on,69,62,0
1,note_on,69,0,120
1,note_on,69,49,120
1,note_on,69,0,120
1,note_on,65,53,360
1,note_on,65,0,240
1,note_on,64,49,0
1,note_on,64,0,240
1,note_on,65,49,0
1,note_on,65,0,240
1,note_on,67,49,0
1,note_on,67,0,240
1,note_on,69,49,0
1,note_on,69,0,240
1,note_on,70,52,0
1,note_on,70,0,120
1,note_on,72,52,120
1,note_on,72,0,60
1,note_on,70,49,0
1,note_on,70,0,60
1,note_on,69,52,0
1,note_on,69,0,60
1,note_on,70,49,0
1,note_on,70,0,60
1,note_on,72,58,0
1,note_on,72,0,240
1,note_on,74,59,0
1,note_on,74,0,230
1,note_on,70,50,10
1,note_on,74,50,0
1,note_on,74,0,240
1,note_on,70,0,0
1,note_on,72,46,0
1,note_on,69,46,0
1,note_on,69,0,240
1,note_on,72,0,0
1,note_on,58,33,240
1,note_on,64,33,0
1,note_on,64,0,240
1,note_on,58,0,0
1,note_on,58,45,0
1,note_on,67,45,0
1,note_on,67,0,960
1,note_on,58,0,0
1,note_on,57,34,0
1,note_on,65,34,0
1,note_on,65,0,360
1,note_on,57,0,0
1,note_on,74,57,0
1,note_on,74,0,120
1,note_on,72,56,0
1,note_on,72,0,120
1,note_on,70,54,0
1,note_on,70,0,120
1,note_on,69,52,0
1,note_on,69,0,120
1,note_on,67,60,0
1,note_on,67,0,240
1,note_on,65,47,0
1,note_on,65,0,230
1,note_on,65,47,10
1,note_on,65,0,720
1,note_on,77,52,0
1,note_on,77,0,240
1,note_on,79,57,0
1,note_on,79,0,240
1,note_on,81,61,0
1,note_on,76,55,180
1,note_on,76,0,60
1,note_on,81,0,0
1,note_on,82,69,0
1,note_on,82,0,360
1,note_on,79,64,0
1,note_on,79,0,120
1,note_on,76,56,0
1,note_on,76,0,480
1,note_on,72,48,480
1,note_on,72,0,120
1,note_on,70,48,0
1,note_on,70,0,120
1,note_on,69,48,0
1,note_on,69,0,120
1,note_on,67,46,0
1,note_on,67,0,120
1,note_on,65,53,0
1,note_on,65,0,240
1,note_on,64,47,0
1,note_on,64,0,230
1,note_on,64,47,10
1,note_on,64,0,720
1,note_on,79,53,0
1,note_on,79,0,240
1,note_on,81,58,0
1,note_on,81,0,240
1,note_on,82,63,0
1,note_on,78,52,180
1,note_on,78,0,60
1,note_on,82,0,0
1,note_on,84,68,0
1,note_on,84,0,360
1,note_on,81,65,0
1,note_on,81,0,120
1,note_on,78,57,0
1,note_on,78,0,480
1,note_on,81,60,240
1,note_on,81,0,240
1,note_on,82,64,0
1,note_on,82,0,240
1,note_on,84,69,0
1,note_on,79,66,180
1,note_on,79,0,60
1,note_on,84,0,0
1,note_on,86,84,0
1,note_on,86,0,360
1,note_on,82,77,0
1,note_on,82,0,120
1,note_on,79,72,0
1,note_on,79,0,240
1,note_on,76,71,180
1,note_on,76,0,60
1,note_on,82,85,0
1,note_on,82,0,360
1,note_on,79,76,0
1,note_on,79,0,120
1,note_on,76,72,0
1,note_on,76,0,240
1,note_on,71,68,180
1,note_on,71,0,60
1,note_on,77,79,0
1,note_on,77,0,360
1,note_on,74,73,0
1,note_on,74,0,120
1,note_on,71,69,0
1,note_on,71,0,480
1,note_on,71,68,240
1,note_on,71,0,230
1,note_on,71,69,10
1,note_on,71,0,230
1,note_on,71,67,10
1,note_on,71,0,230
1,note_on,72,76,10
1,note_on,72,0,120
1,note_on,81,69,0
1,note_on,81,0,120
1,note_on,77,72,0
1,note_on,77,0,120
1,note_on,72,70,0
1,note_on,72,0,120
1,note_on,69,76,0
1,note_on,69,0,120
1,note_on,77,70,0
1,note_on,77,0,120
1,note_on,72,72,0
1,note_on,72,0,120
1,note_on,69,67,0
1,note_on,69,0,113
1,note_on,69,61,7
1,note_on,72,72,0
1,note_on,72,0,240
1,note_on,69,0,0
1,note_on,67,53,0
1,note_on,70,63,0
1,note_on,70,0,240
1,note_on,67,0,0
1,note_on,65,51,0
1,note_on,69,61,0
1,note_on,69,0,120
1,note_on,65,0,0
1,note_on,64,49,120
1,note_on,67,58,0
1,note_on,67,0,120
1,note_on,64,0,0
1,note_on,65,54,120
1,note_on,65,0,480
1,note_on,65,54,600
1,note_on,65,0,120
1,note_on,67,58,0
1,note_on,67,0,120
1,note_on,68,61,0
1,note_on,68,0,120
1,note_on,70,63,0
1,note_on,70,0,120
1,note_on,72,65,0
1,note_on,72,0,120
1,note_on,74,68,0
1,note_on,74,0,120
1,note_on,76,71,0
1,note_on,76,0,120
1,note_on,77,75,0
1,note_on,77,0,120
1,note_on,72,71,0
1,note_on,72,0,120
1,note_on,80,75,0
1,note_on,80,0,120
1,note_on,79,72,0
1,note_on,79,0,120
1,note_on,77,75,0
1,note_on,77,0,120
1,note_on,72,71,0
1,note_on,72,0,120
1,note_on,80,72,0
1,note_on,80,0,120
1,note_on,79,70,0
1,note_on,79,0,120
1,note_on,77,72,0
1,note_on,79,67,120
1,note_on,77,0,24
1,note_on,75,71,96
1,note_on,79,0,24
1,note_on,77,64,96
1,note_on,75,0,24
1,note_on,74,70,96
1,note_on,77,0,24
1,note_on,75,63,96
1,note_on,74,0,24
1,note_on,72,68,96
1,note_on,75,0,24
1,note_on,74,64,96
1,note_on,72,0,24
1,note_on,71,67,96
1,note_on,74,0,24
1,note_on,71,0,216
1,note_on,89,90,0
1,note_on,89,0,480
1,note_on,87,89,0
1,note_on,87,0,480
1,note_on,86,88,0
1,note_on,86,0,480
1,note_on,84,87,0
1,note_on,84,0,480
1,note_on,83,84,0
1,note_on,83,0,480
1,note_on,80,78,0
1,note_on,80,0,480
1,note_on,79,83,0
1,note_on,79,0,480
1,note_on,77,78,0
1,note_on,77,0,230
1,note_on,77,80,10
1,note_on,77,0,240
1,note_on,76,77,0
1,note_on,76,0,240
1,note_on,75,67,0
1,note_on,75,0,480
1,note_on,75,65,120
1,note_on,74,68,120
1,note_on,75,0,24
1,note_on,75,66,96
1,note_on,74,0,24
1,note_on,77,68,96
1,note_on,75,0,24
1,note_on,75,66,96
1,note_on,77,0,24
1,note_on,74,68,96
1,note_on,75,0,24
1,note_on,75,65,96
1,note_on,74,0,24
1,note_on,78,77,96
1,note_on,75,0,24
1,note_on,78,0,336
1,note_on,75,69,0
1,note_on,75,0,110
1,note_on,75,65,10
1,note_on,75,0,60
1,note_on,77,62,0
1,note_on,77,0,60
1,note_on,75,65,0
1,note_on,75,0,60
1,note_on,77,63,0
1,note_on,77,0,60
1,note_on,75,66,0
1,note_on,75,0,40
1,note_on,77,64,0
1,note_on,77,0,40
1,note_on,75,64,0
1,note_on,75,0,40
1,note_on,74,71,0
1,note_on,74,0,60
1,note_on,75,69,0
1,note_on,75,0,60
1,note_on,82,78,0
1,note_on,82,0,360
1,note_on,75,68,0
1,note_on,75,0,110
1,note_on,75,64,10
1,note_on,75,0,60
1,note_on,77,62,0
1,note_on,77,0,60
1,note_on,75,64,0
1,note_on,75,0,60
1,note_on,77,62,0
1,note_on,77,0,60
1,note_on,75,64,0
1,note_on,75,0,40
1,note_on,77,63,0
1,note_on,77,0,40
1,note_on,75,63,0
1,note_on,75,0,40
1,note_on,74,71,0
1,note_on,74,0,60
1,note_on,75,68,0
1,note_on,75,0,60
1,note_on,81,81,0
1,note_on,81,0,120
1,note_on,84,85,120
1,note_on,84,0,120
1,note_on,87,89,120
1,note_on,87,0,600
1,note_on,89,71,0
1,note_on,86,77,120
1,note_on,89,0,24
1,note_on,87,71,96
1,note_on,86,0,24
1,note_on,84,77,96
1,note_on,87,0,24
1,note_on,86,71,96
1,note_on,84,0,24
1,note_on,82,77,96
1,note_on,86,0,24
1,note_on,84,71,96
1,note_on,82,0,24
1,note_on,81,72,96
1,note_on,84,0,24
1,note_on,82,73,96
1,note_on,81,0,24
1,note_on,84,77,96
1,note_on,82,0,24
1,note_on,82,72,96
1,note_on,84,0,24
1,note_on,81,71,96
1,note_on,82,0,24
1,note_on,82,72,96
1,note_on,81,0,24
1,note_on,84,73,96
1,note_on,82,0,24
1,note_on,86,70,96
1,note_on,84,0,24
1,note_on,87,75,96
1,note_on,86,0,24
1,note_on,86,70,96
1,note_on,87,0,24
1,note_on,84,72,96
1,note_on,86,0,24
1,note_on,82,72,96
1,note_on,84,0,24
1,note_on,81,71,96
1,note_on,82,0,24
1,note_on,79,70,96
1,note_on,81,0,24
1,note_on,77,69,96
1,note_on,79,0,24
1,note_on,75,68,96
1,note_on,77,0,24
1,note_on,75,0,85
1,note_on,75,68,11
1,note_on,75,0,60
1,note_on,77,64,0
1,note_on,77,0,60
1,note_on,75,65,0
1,note_on,75,0,40
1,note_on,77,63,0
1,note_on,77,0,40
1,note_on,75,63,0
1,note_on,75,0,40
1,note_on,74,68,0
1,note_on,74,0,240
1,note_on,74,68,0
1,note_on,74,0,720
1,note_on,74,72,0
1,note_on,74,0,240
1,note_on,86,81,0
1,note_on,86,0,240
1,note_on,84,77,0
1,note_on,84,0,480
1,note_on,82,78,0
1,note_on,82,0,480
1,note_on,81,77,0
1,note_on,81,0,360
1,note_on,79,70,0
1,note_on,82,73,120
1,note_on,79,0,24
1,note_on,81,70,96
1,note_on,82,0,24
1,note_on,84,73,96
1,note_on,81,0,24
1,note_on,82,69,96
1,note_on,84,0,24
1,note_on,81,73,96
1,note_on,82,0,24
1,note_on,79,67,96
1,note_on,81,0,24
1,note_on,78,71,96
1,note_on,79,0,24
1,note_on,78,0,36
1,note_on,74,58,60
1,note_on,74,0,120
1,note_on,86,57,0
1,note_on,86,0,120
1,note_on,85,57,0
1,note_on,85,0,120
1,note_on,86,56,0
1,note_on,86,0,120
1,note_on,85,56,0
1,note_on,85,0,120
1,note_on,86,57,0
1,note_on,86,0,120
1,note_on,85,58,0
1,note_on,85,0,120
1,note_on,86,59,0
1,note_on,86,0,120
1,note_on,87,59,0
1,note_on,87,0,120
1,note_on,84,60,0
1,note_on,84,0,120
1,note_on,86,58,0
1,note_on,86,0,120
1,note_on,82,62,0
1,note_on,82,0,120
1,note_on,84,60,0
1,note_on,84,0,120
1,note_on,81,63,0
1,note_on,81,0,120
1,note_on,82,61,0
1,note_on,82,0,120
1,note_on,79,64,0
1,note_on,81,63,120
1,note_on,79,0,24
1,note_on,77,66,96
1,note_on,81,0,24
1,note_on,79,63,96
1,note_on,77,0,24
1,note_on,75,67,96
1,note_on,79,0,24
1,note_on,77,62,96
1,note_on,75,0,24
1,note_on,74,69,96
1,note_on,77,0,24
1,note_on,75,64,96
1,note_on,74,0,24
1,note_on,73,70,96
1,note_on,75,0,24
1,note_on,73,0,96
1,note_on,82,69,120
1,note_on,82,0,240
1,note_on,81,70,0
1,note_on,81,0,240
1,note_on,79,68,0
1,note_on,79,0,240
1,note_on,78,71,0
1,note_on,78,0,60
1,note_on,73,52,60
1,note_on,73,0,120
1,note_on,74,57,0
1,note_on,74,0,120
1,note_on,73,52,0
1,note_on,73,0,120
1,note_on,74,57,0
1,note_on,74,0,120
1,note_on,73,53,0
1,note_on,73,0,120
1,note_on,74,57,0
1,note_on,74,0,120
1,note_on,73,53,0
1,note_on,73,0,120
1,note_on,74,54,0
1,note_on,74,0,120
1,note_on,75,51,0
1,note_on,75,0,120
1,note_on,72,53,0
1,note_on,72,0,120
1,note_on,74,49,0
1,note_on,74,0,120
1,note_on,70,52,0
1,note_on,70,0,120
1,note_on,72,49,0
1,note_on,72,0,120
1,note_on,69,50,0
1,note_on,69,0,120
1,note_on,70,46,0
1,note_on,70,0,120
1,note_on,67,48,0
1,note_on,69,46,120
1,note_on,67,0,24
1,note_on,65,46,96
1,note_on,69,0,24
1,note_on,67,45,96
1,note_on,65,0,24
1,note_on,63,45,96
1,note_on,67,0,24
1,note_on,65,44,96
1,note_on,63,0,24
1,note_on,62,43,96
1,note_on,65,0,24
1,note_on,63,42,96
1,note_on,62,0,24
1,note_on,61,41,96
1,note_on,63,0,24
1,note_on,61,0,96
1,note_on,67,41,120
1,note_on,67,0,240
1,note_on,70,45,0
1,note_on,70,0,240
1,note_on,61,42,0
1,note_on,61,0,240
1,note_on,62,39,0
1,note_on,62,0,120
1,note_on,74,46,120
1,note_on,74,0,120
1,note_on,74,49,360
1,note_on,74,0,240
1,note_on,74,46,240
1,note_on,74,0,240
1,note_on,74,48,240
1,note_on,74,0,240
1,note_on,74,43,240
1,note_on,74,0,240
1,note_on,73,46,0
1,note_on,73,0,240
1,note_on,74,49,0
1,note_on,74,0,240
1,note_on,73,53,0
1,note_on,73,0,240
1,note_on,74,56,0
1,note_on,74,0,240
1,note_on,73,60,0
1,note_on,73,0,240
1,note_on,74,63,0
1,note_on,74,0,240
1,note_on,77,66,0
1,note_on,77,0,480
1,note_on,75,64,0
1,note_on,75,0,480
1,note_on,75,53,120
1,note_on,75,0,120
1,note_on,74,56,0
1,note_on,74,0,120
1,note_on,75,53,0
1,note_on,75,0,120
1,note_on,77,56,0
1,note_on,77,0,120
1,note_on,75,54,0
1,note_on,75,0,120
1,note_on,74,56,0
1,note_on,74,0,120
1,note_on,75,53,0
1,note_on,75,0,120
1,note_on,82,70,0
1,note_on,82,0,480
1,note_on,81,66,0
1,note_on,81,0,480
1,note_on,81,61,120
1,note_on,81,0,120
1,note_on,79,63,0
1,note_on,79,0,120
1,note_on,81,61,0
1,note_on,81,0,120
1,note_on,82,63,0
1,note_on,82,0,120
1,note_on,81,61,0
1,note_on,81,0,120
1,note_on,79,63,0
1,note_on,79,0,120
1,note_on,81,61,0
1,note_on,81,0,120
1,note_on,89,77,0
1,note_on,89,0,480
1,note_on,87,75,0
1,note_on,87,0,480
1,note_on,87,66,120
1,note_on,87,0,120
1,note_on,86,68,0
1,note_on,86,0,120
1,note_on,87,65,0
1,note_on,87,0,120
1,note_on,89,68,0
1,note_on,89,0,120
1,note_on,87,65,0
1,note_on,87,0,120
1,note_on,85,68,0
1,note_on,85,0,120
1,note_on,84,65,0
1,note_on,84,0,120
1,note_on,82,77,0
1,note_on,82,0,480
1,note_on,81,69,0
1,note_on,81,0,480
1,note_on,87,67,120
1,note_on,86,69,120
1,note_on,87,0,24
1,note_on,87,66,96
1,note_on,86,0,24
1,note_on,89,70,96
1,note_on,87,0,24
1,note_on,87,67,96
1,note_on,89,0,24
1,note_on,85,68,96
1,note_on,87,0,24
1,note_on,84,67,96
1,note_on,85,0,24
1,note_on,84,0,96
1,note_on,82,66,0
1,note_on,81,65,120
1,note_on,82,0,24
1,note_on,87,69,96
1,note_on,81,0,24
1,note_on,86,66,96
1,note_on,87,0,24
1,note_on,89,71,96
1,note_on,86,0,24
1,note_on,87,68,96
1,note_on,89,0,24
1,note_on,85,69,96
1,note_on,87,0,24
1,note_on,84,67,96
1,note_on,85,0,24
1,note_on,82,66,96
1,note_on,84,0,24
1,note_on,81,65,96
1,note_on,82,0,24
1,note_on,87,70,96
1,note_on,81,0,24
1,note_on,86,67,96
1,note_on,87,0,24
1,note_on,89,71,96
1,note_on,86,0,24
1,note_on,87,68,96
1,note_on,89,0,24
1,note_on,85,70,96
1,note_on,87,0,24
1,note_on,84,69,96
1,note_on,85,0,24
1,note_on,84,0,96
1,note_on,82,68,0
1,note_on,81,67,120
1,note_on,82,0,24
1,note_on,84,68,96
1,note_on,81,0,24
1,note_on,83,64,96
1,note_on,84,0,24
1,note_on,86,68,96
1,note_on,83,0,24
1,note_on,84,67,96
1,note_on,86,0,24
1,note_on,82,65,96
1,note_on,84,0,24
1,note_on,81,63,96
1,note_on,82,0,24
1,note_on,79,63,96
1,note_on,81,0,24
1,note_on,77,61,96
1,note_on,79,0,24
1,note_on,79,59,96
1,note_on,77,0,24
1,note_on,78,58,96
1,note_on,79,0,24
1,note_on,81,59,96
1,note_on,78,0,24
1,note_on,79,57,96
1,note_on,81,0,24
1,note_on,77,56,96
1,note_on,79,0,24
1,note_on,75,54,96
1,note_on,77,0,24
1,note_on,75,0,96
1,note_on,74,52,0
1,note_on,74,0,240
1,note_on,72,52,0
1,note_on,72,0,240
1,note_on,74,54,0
1,note_on,74,0,120
1,note_on,75,56,120
1,note_on,75,0,120
1,note_on,76,58,120
1,note_on,76,0,120
1,note_on,77,61,120
1,note_on,77,0,120
1,note_on,79,57,0
1,note_on,79,0,120
1,note_on,77,56,0
1,note_on,77,0,120
1,note_on,75,54,0
1,note_on,75,0,120
1,note_on,74,52,0
1,note_on,74,0,120
1,note_on,72,60,0
1,note_on,72,0,240
1,note_on,70,54,0
1,note_on,70,0,230
1,note_on,70,51,10
1,note_on,70,0,720
1,note_on,74,57,0
1,note_on,74,0,240
1,note_on,79,60,0
1,note_on,79,0,240
1,note_on,74,55,0
1,note_on,74,0,240
1,note_on,77,60,0
1,note_on,77,0,480
1,note_on,75,56,0
1,note_on,75,0,720
1,note_on,77,60,0
1,note_on,77,0,120
1,note_on,79,56,0
1,note_on,79,0,120
1,note_on,77,61,0
1,note_on,77,0,120
1,note_on,75,54,0
1,note_on,75,0,120
1,note_on,74,58,0
1,note_on,74,0,120
1,note_on,72,53,0
1,note_on,72,0,120
1,note_on,70,66,0
1,note_on,70,0,480
1,note_on,69,57,0
1,note_on,69,0,713
1,note_on,69,62,7
1,note_on,69,0,240
1,note_on,70,65,0
1,note_on,70,0,240
1,note_on,72,61,0
1,note_on,72,0,230
1,note_on,69,52,10
1,note_on,72,61,0
1,note_on,72,0,480
1,note_on,69,0,0
1,note_on,70,49,0
1,note_on,74,58,0
1,note_on,74,0,480
1,note_on,70,0,0
1,note_on,77,64,240
1,note_on,77,0,120
1,note_on,76,63,0
1,note_on,76,0,120
1,note_on,79,66,0
1,note_on,79,0,120
1,note_on,77,63,0
1,note_on,77,0,120
1,note_on,75,63,0
1,note_on,75,0,120
1,note_on,74,61,0
1,note_on,74,0,110
1,note_on,74,68,10
1,note_on,74,0,240
1,note_on,72,61,0
1,note_on,72,0,480
1,note_on,70,61,0
1,note_on,70,0,240
1,note_on,74,67,0
1,note_on,74,0,240
1,note_on,72,62,0
1,note_on,72,0,480
1,note_on,69,64,0
1,note_on,69,0,240
1,note_on,70,68,0
1,note_on,70,0,120
1,note_on,72,59,0
1,note_on,72,0,120
1,note_on,70,62,0
1,note_on,70,0,120
1,note_on,69,58,0
1,note_on,69,0,120
1,note_on,70,66,0
1,note_on,70,0,120
1,note_on,72,60,0
1,note_on,72,0,120
1,note_on,74,63,0
1,note_on,74,0,120
1,note_on,75,61,0
1,note_on,75,0,120
1,note_on,76,69,0
1,note_on,76,0,120
1,note_on,77,65,0
1,note_on,77,0,120
1,note_on,76,69,0
1,note_on,76,0,120
1,note_on,77,65,0
1,note_on,77,0,120
1,note_on,79,69,0
1,note_on,79,0,120
1,note_on,77,67,0
1,note_on,77,0,120
1,note_on,75,66,0
1,note_on,75,0,120
1,note_on,74,65,0
1,note_on,74,0,110
1,note_on,74,72,10
1,note_on,74,0,240
1,note_on,72,54,0
1,note_on,72,0,230
1,note_on,72,56,10
1,note_on,72,0,240
1,note_on,70,54,0
1,note_on,70,0,240
1,note_on,74,65,0
1,note_on,74,0,240
1,note_on,72,54,0
1,note_on,72,0,230
1,note_on,72,57,10
1,note_on,72,0,240
1,note_on,69,53,0
1,note_on,69,0,240
1,note_on,70,66,0
1,note_on,70,0,240
1,note_on,72,57,0
1,note_on,72,0,120
1,note_on,74,58,0
1,note_on,74,0,120
1,note_on,75,59,0
1,note_on,75,0,120
1,note_on,77,60,0
1,note_on,77,0,120
1,note_on,79,61,0
1,note_on,79,0,120
1,note_on,81,64,0
1,note_on,81,0,120
1,note_on,82,66,0
1,note_on,82,0,120
1,note_on,84,67,0
1,note_on,84,0,120
1,note_on,86,68,0
1,note_on,86,0,120
1,note_on,87,69,0
1,note_on,87,0,120
1,note_on,89,76,0
1,note_on,89,0,120
1,note_on,89,75,120
1,note_on,89,0,120
1,note_on,77,76,120
1,note_on,89,76,0
1,note_on,89,0,240
1,note_on,87,74,0
1,note_on,87,0,480
1,note_on,86,73,0
1,note_on,86,0,240
1,note_on,86,75,0
1,note_on,86,0,240
1,note_on,77,0,0
1,note_on,75,64,0
1,note_on,84,64,0
1,note_on,84,0,120
1,note_on,75,0,0
1,note_on,74,72,120
1,note_on,82,72,0
1,note_on,82,0,120
1,note_on,74,0,0
1,note_on,72,64,120
1,note_on,81,64,0
1,note_on,81,0,120
1,note_on,72,0,0
1,note_on,82,76,120
1,note_on,74,76,0
1,note_on,74,0,240
1,note_on,82,0,0
1,note_on,70,72,240
1,note_on,70,0,240
1,note_on,67,52,720
1,note_on,67,0,120
1,note_on,65,48,0
1,note_on,65,0,120
1,note_on,63,52,0
1,note_on,63,0,120
1,note_on,62,48,0
1,note_on,62,0,120
1,note_on,60,56,0
1,note_on,60,0,240
1,note_on,58,53,0
1,note_on,58,0,240
1,note_on,58,53,0
1,note_on,58,0,720
1,note_on,70,54,0
1,note_on,70,0,120
1,note_on,70,54,120
1,note_on,70,0,240
1,note_on,72,51,0
1,note_on,72,0,240
1,note_on,70,61,0
1,note_on,70,0,240
1,note_on,69,53,0
1,note_on,69,0,240
1,note_on,68,51,0
1,note_on,68,0,710
1,note_on,68,58,10
1,note_on,68,0,230
1,note_on,68,65,10
1,note_on,68,0,230
1,note_on,68,72,10
1,note_on,68,0,240
1,note_on,80,78,0
1,note_on,80,0,120
1,note_on,82,71,0
1,note_on,82,0,120
1,note_on,79,78,0
1,note_on,79,0,120
1,note_on,80,70,0
1,note_on,80,0,120
1,note_on,77,79,0
1,note_on,77,0,120
1,note_on,79,69,0
1,note_on,79,0,120
1,note_on,75,77,0
1,note_on,75,0,120
1,note_on,77,70,0
1,note_on,77,0,120
1,note_on,74,79,0
1,note_on,74,0,120
1,note_on,75,70,0
1,note_on,75,0,120
1,note_on,72,75,0
1,note_on,72,0,120
1,note_on,74,69,0
1,note_on,74,0,120
1,note_on,70,76,0
1,note_on,70,0,120
1,note_on,72,70,0
1,note_on,72,0,120
1,note_on,68,72,0
1,note_on,68,0,120
1,note_on,70,67,0
1,note_on,70,0,120
1,note_on,68,72,0
1,note_on,68,0,240
1,note_on,67,67,0
1,note_on,67,0,230
1,note_on,67,59,10
1,note_on,67,0,720
1,note_on,79,54,0
1,note_on,79,0,120
1,note_on,79,60,120
1,note_on,79,0,240
1,note_on,77,54,0
1,note_on,77,0,230
1,note_on,77,63,10
1,note_on,77,0,240
1,note_on,76,54,0
1,note_on,76,0,230
1,note_on,76,54,10
1,note_on,76,0,720
1,note_on,85,59,0
1,note_on,85,0,120
1,note_on,85,61,120
1,note_on,85,0,240
1,note_on,76,56,0
1,note_on,76,0,240
1,note_on,79,61,0
1,note_on,79,0,240
1,note_on,77,54,0
1,note_on,77,0,230
1,note_on,77,54,10
1,note_on,77,0,720
1,note_on,78,52,0
1,note_on,78,0,240
1,note_on,79,54,0
1,note_on,79,0,240
1,note_on,75,52,0
1,note_on,75,0,240
1,note_on,73,57,0
1,note_on,73,0,240
1,note_on,74,52,0
1,note_on,74,0,230
1,note_on,74,52,10
1,note_on,74,0,480
1,note_on,77,54,240
1,note_on,77,0,240
1,note_on,79,61,0
1,note_on,79,0,120
1,note_on,77,57,0
1,note_on,77,0,120
1,note_on,75,61,0
1,note_on,75,0,120
1,note_on,74,56,0
1,note_on,74,0,120
1,note_on,72,61,0
1,note_on,72,0,720
1,note_on,69,52,0
1,note_on,69,0,240
1,note_on,70,52,0
1,note_on,70,0,60
1,note_on,77,56,60
1,note_on,76,56,120
1,note_on,77,0,24
1,note_on,77,52,96
1,note_on,76,0,24
1,note_on,79,63,96
1,note_on,77,0,24
1,note_on,77,54,96
1,note_on,79,0,24
1,note_on,75,59,96
1,note_on,77,0,24
1,note_on,74,53,96
1,note_on,75,0,24
1,note_on,72,63,96
1,note_on,74,0,24
1,note_on,72,0,96
1,note_on,72,63,120
1,note_on,72,0,480
1,note_on,69,54,0
1,note_on,69,0,240
1,note_on,70,54,0
1,note_on,70,0,60
1,note_on,77,51,60
1,note_on,76,56,120
1,note_on,77,0,24
1,note_on,77,53,96
1,note_on,76,0,24
1,note_on,79,62,96
1,note_on,77,0,24
1,note_on,77,53,96
1,note_on,79,0,24
1,note_on,75,57,96
1,note_on,77,0,24
1,note_on,74,54,96
1,note_on,75,0,24
1,note_on,74,0,86
1,note_on,74,63,10
1,note_on,74,0,240
1,note_on,72,60,0
1,note_on,72,0,240
1,note_on,72,59,240
1,note_on,72,0,240
1,note_on,72,63,0
1,note_on,72,0,240
1,note_on,70,59,0
1,note_on,70,0,240
1,note_on,70,52,240
1,note_on,70,0,240
1,note_on,69,64,0
1,note_on,69,0,120
1,note_on,70,58,0
1,note_on,70,0,120
1,note_on,69,62,0
1,note_on,69,0,120
1,note_on,65,58,0
1,note_on,65,0,120
1,note_on,70,69,0
1,note_on,70,0,120
1,note_on,72,62,0
1,note_on,72,0,120
1,note_on,70,67,0
1,note_on,70,0,120
1,note_on,65,59,0
1,note_on,65,0,120
1,note_on,72,70,0
1,note_on,72,0,120
1,note_on,74,64,0
1,note_on,74,0,120
1,note_on,72,69,0
1,note_on,72,0,120
1,note_on,65,63,0
1,note_on,65,0,120
1,note_on,74,77,0
1,note_on,74,0,120
1,note_on,75,67,0
1,note_on,75,0,120
1,note_on,74,72,0
1,note_on,74,0,120
1,note_on,65,67,0
1,note_on,65,0,120
1,note_on,75,78,0
1,note_on,75,0,120
1,note_on,75,78,120
1,note_on,75,0,120
1,note_on,72,73,360
1,note_on,72,0,120
1,note_on,75,79,120
1,note_on,75,0,240
1,note_on,74,72,0
1,note_on,74,0,120
1,note_on,72,74,120
1,note_on,72,0,120
1,note_on,70,71,120
1,note_on,70,0,120
1,note_on,69,67,120
1,note_on,69,0,120
1,note_on,65,59,0
1,note_on,65,0,120
1,note_on,76,61,0
1,note_on,76,0,120
1,note_on,77,59,0
1,note_on,77,0,120
1,note_on,70,70,0
1,note_on,70,0,120
1,note_on,65,59,0
1,note_on,65,0,120
1,note_on,76,66,0
1,note_on,76,0,120
1,note_on,77,61,0
1,note_on,77,0,120
1,note_on,72,74,0
1,note_on,72,0,120
1,note_on,65,64,0
1,note_on,65,0,120
1,note_on,76,69,0
1,note_on,76,0,120
1,note_on,77,62,0
1,note_on,77,0,120
1,note_on,74,79,0
1,note_on,74,0,120
1,note_on,65,69,0
1,note_on,65,0,120
1,note_on,76,73,0
1,note_on,76,0,120
1,note_on,77,69,0
1,note_on,77,0,120
1,note_on,75,79,0
1,note_on,75,0,120
1,note_on,75,79,120
1,note_on,75,0,120
1,note_on,72,57,360
1,note_on,74,52,57
1,note_on,72,0,3
1,note_on,74,0,57
1,note_on,72,57,3
1,note_on,72,0,60
1,note_on,74,52,0
1,note_on,74,0,60
1,note_on,75,72,0
1,note_on,75,0,240
1,note_on,74,71,0
1,note_on,74,0,120
1,note_on,72,71,120
1,note_on,72,0,120
1,note_on,70,68,120
1,note_on,70,0,120
1,note_on,69,78,120
1,note_on,69,0,120
1,note_on,77,69,0
1,note_on,77,0,120
1,note_on,72,73,0
1,note_on,72,0,120
1,note_on,69,70,0
1,note_on,69,0,120
1,note_on,65,77,0
1,note_on,65,0,120
1,note_on,60,69,0
1,note_on,60,0,120
1,note_on,57,70,0
1,note_on,57,0,120
1,note_on,53,67,0
1,note_on,53,0,120
1,note_on,53,72,960
1,note_on,58,72,0
1,note_on,62,72,0
1,note_on,65,72,0
1,note_on,65,0,720
1,note_on,53,0,0
1,note_on,58,0,0
1,note_on,62,0,0
1,note_on,67,48,0
1,note_on,67,0,120
1,note_on,65,45,0
1,note_on,65,0,120
1,note_on,63,52,0
1,note_on,63,0,120
1,note_on,62,48,120
1,note_on,62,0,120
1,note_on,60,52,120
1,note_on,60,0,120
1,note_on,58,48,120
1,note_on,58,0,120
1,note_on,58,54,120
1,note_on,58,0,240
1,note_on,67,49,0
1,note_on,67,0,230
1,note_on,58,72,10
1,note_on,67,72,0
1,note_on,67,0,720
1,note_on,58,0,0
1,note_on,65,53,0
1,note_on,65,0,240
1,note_on,69,53,0
1,note_on,69,0,240
1,note_on,70,52,0
1,note_on,70,0,230
1,note_on,70,61,10
1,note_on,70,0,240
1,note_on,60,53,0
1,note_on,60,0,480
1,note_on,62,53,0
1,note_on,62,0,240
1,note_on,70,61,0
1,note_on,70,0,240
1,note_on,60,51,0
1,note_on,60,0,480
1,note_on,62,53,0
1,note_on,62,0,240
1,note_on,65,58,0
1,note_on,65,0,480
1,note_on,63,52,0
1,note_on,63,0,60
1,note_on,65,47,0
1,note_on,65,0,60
1,note_on,63,52,0
1,note_on,63,0,60
1,note_on,65,49,0
1,note_on,65,0,60
1,note_on,63,52,0
1,note_on,63,0,40
1,note_on,65,49,0
1,note_on,65,0,40
1,note_on,63,49,0
1,note_on,63,0,40
1,note_on,62,52,0
1,note_on,62,0,60
1,note_on,63,48,0
1,note_on,63,0,60
1,note_on,62,57,0
1,note_on,62,0,120
1,note_on,62,51,120
1,note_on,62,0,240
1,note_on,63,53,0
1,note_on,63,0,240
1,note_on,65,51,0
1,note_on,65,0,240
1,note_on,66,65,0
1,note_on,66,0,240
1,note_on,67,54,0
1,note_on,67,0,480
1,note_on,65,53,0
1,note_on,65,0,120
1,note_on,63,50,0
1,note_on,63,0,120
1,note_on,62,54,0
1,note_on,62,0,240
1,note_on,60,51,0
1,note_on,60,0,240
1,note_on,62,52,0
1,note_on,62,0,240
1,note_on,63,51,0
1,note_on,63,0,240
1,note_on,67,63,0
1,note_on,67,0,240
1,note_on,65,53,0
1,note_on,65,0,480
1,note_on,63,54,0
1,note_on,63,0,120
1,note_on,62,49,0
1,note_on,62,0,120
1,note_on,60,56,0
1,note_on,60,0,240
1,note_on,58,52,0
1,note_on,58,0,240
1,note_on,60,54,0
1,note_on,60,0,240
1,note_on,62,50,0
1,note_on,62,0,240
1,note_on,65,63,0
1,note_on,65,0,240
1,note_on,63,51,0
1,note_on,63,0,480
1,note_on,60,51,0
1,note_on,60,0,240
1,note_on,63,62,0
1,note_on,63,0,240
1,note_on,62,52,0
1,note_on,62,0,480
1,note_on,58,52,0
1,note_on,58,0,240
1,note_on,57,48,0
1,note_on,58,49,120
1,note_on,57,0,24
1,note_on,59,50,96
1,note_on,58,0,24
1,note_on,60,51,96
1,note_on,59,0,24
1,note_on,61,52,96
1,note_on,60,0,24
1,note_on,62,53,96
1,note_on,61,0,24
1,note_on,63,54,96
1,note_on,62,0,24
1,note_on,64,54,96
1,note_on,63,0,24
1,note_on,65,56,96
1,note_on,64,0,24
1,note_on,65,0,456
1,note_on,65,73,480
1,note_on,70,73,0
1,note_on,74,73,0
1,note_on,77,73,0
1,note_on,77,0,720
1,note_on,65,0,0
1,note_on,70,0,0
1,note_on,74,0,0
1,note_on,79,51,0
1,note_on,79,0,120
1,note_on,77,49,0
1,note_on,77,0,120
1,note_on,75,57,0
1,note_on,75,0,120
1,note_on,74,50,120
1,note_on,74,0,120
1,note_on,72,50,120
1,note_on,72,0,120
1,note_on,70,47,120
1,note_on,70,0,120
1,note_on,70,53,120
1,note_on,70,0,240
1,note_on,79,50,0
1,note_on,79,0,230
1,note_on,70,64,10
1,note_on,79,71,0
1,note_on,79,0,720
1,note_on,70,0,0
1,note_on,77,53,0
1,note_on,77,0,240
1,note_on,81,66,0
1,note_on,81,0,240
1,note_on,82,63,0
1,note_on,82,0,480
1,note_on,72,53,0
1,note_on,72,0,240
1,note_on,74,53,0
1,note_on,74,0,240
1,note_on,82,68,0
1,note_on,82,0,480
1,note_on,72,53,0
1,note_on,72,0,240
1,note_on,74,53,0
1,note_on,74,0,240
1,note_on,82,67,0
1,note_on,82,0,120
1,note_on,77,54,120
1,note_on,77,0,480
1,note_on,76,53,0
1,note_on,76,0,240
1,note_on,75,53,0
1,note_on,75,0,240
1,note_on,74,48,0
1,note_on,74,0,120
1,note_on,74,54,120
1,note_on,74,0,240
1,note_on,75,60,0
1,note_on,75,0,240
1,note_on,77,64,0
1,note_on,77,0,240
1,note_on,79,70,0
1,note_on,79,0,720
1,note_on,81,70,0
1,note_on,81,0,120
1,note_on,83,67,0
1,note_on,83,0,120
1,note_on,84,70,0
1,note_on,84,0,120
1,note_on,86,67,0
1,note_on,86,0,120
1,note_on,87,70,0
1,note_on,87,0,120
1,note_on,86,66,0
1,note_on,86,0,120
1,note_on,84,70,0
1,note_on,84,0,120
1,note_on,86,67,0
1,note_on,86,0,120
1,note_on,82,70,0
1,note_on,82,0,120
1,note_on,84,67,0
1,note_on,84,0,120
1,note_on,81,69,0
1,note_on,81,0,120
1,note_on,82,66,0
1,note_on,82,0,120
1,note_on,79,69,0
1,note_on,79,0,120
1,note_on,81,64,0
1,note_on,81,0,120
1,note_on,77,71,0
1,note_on,77,0,120
1,note_on,79,67,0
1,note_on,79,0,120
1,note_on,75,71,0
1,note_on,75,0,120
1,note_on,77,67,0
1,note_on,77,0,120
1,note_on,74,68,0
1,note_on,74,0,120
1,note_on,75,64,0
1,note_on,75,0,120
1,note_on,77,68,0
1,note_on,77,0,120
1,note_on,79,65,0
1,note_on,79,0,120
1,note_on,81,70,0
1,note_on,81,0,120
1,note_on,82,66,0
1,note_on,82,0,120
1,note_on,81,69,0
1,note_on,81,0,120
1,note_on,82,65,0
1,note_on,82,0,120
1,note_on,84,72,0
1,note_on,84,0,120
1,note_on,82,70,0
1,note_on,82,0,120
1,note_on,81,69,0
1,note_on,81,0,120
1,note_on,79,67,0
1,note_on,79,0,120
1,note_on,81,72,0
1,note_on,81,0,120
1,note_on,79,70,0
1,note_on,79,0,120
1,note_on,77,69,0
1,note_on,77,0,120
1,note_on,75,67,0
1,note_on,75,0,120
1,note_on,74,71,0
1,note_on,74,0,480
1,note_on,72,58,0
1,note_on,69,58,0
1,note_on,72,0,60
1,note_on,74,54,0
1,note_on,74,0,60
1,note_on,72,58,0
1,note_on,72,0,60
1,note_on,74,53,0
1,note_on,74,0,60
1,note_on,72,58,0
1,note_on,72,0,40
1,note_on,74,54,0
1,note_on,74,0,40
1,note_on,72,54,0
1,note_on,72,0,40
1,note_on,70,66,0
1,note_on,70,0,60
1,note_on,72,62,0
1,note_on,72,0,60
1,note_on,69,0,0
1,note_on,70,75,0
1,note_on,70,0,480
1,note_on,75,85,0
1,note_on,75,0,240
1,note_on,72,56,0
1,note_on,72,0,120
1,note_on,69,62,120
1,note_on,69,0,120
1,note_on,69,56,120
1,note_on,69,0,120
1,note_on,75,85,120
1,note_on,75,0,240
1,note_on,72,54,0
1,note_on,72,0,120
1,note_on,69,60,120
1,note_on,69,0,120
1,note_on,69,54,120
1,note_on,69,0,120
1,note_on,70,62,120
1,note_on,70,0,120
1,note_on,72,63,120
1,note_on,72,0,120
1,note_on,74,64,120
1,note_on,74,0,120
1,note_on,75,66,120
1,note_on,75,0,120
1,note_on,76,88,120
1,note_on,76,0,240
1,note_on,77,75,0
1,note_on,77,0,240
1,note_on,76,87,0
1,note_on,76,0,240
1,note_on,77,75,0
1,note_on,77,0,240
1,note_on,87,97,0
1,note_on,75,82,0
1,note_on,75,0,240
1,note_on,87,0,0
1,note_on,84,57,0
1,note_on,72,48,0
1,note_on,72,0,120
1,note_on,84,0,0
1,note_on,81,62,120
1,note_on,69,52,0
1,note_on,69,0,120
1,note_on,81,0,0
1,note_on,81,56,120
1,note_on,69,47,0
1,note_on,69,0,120
1,note_on,81,0,0
1,note_on,87,97,120
1,note_on,75,82,0
1,note_on,75,0,240
1,note_on,87,0,0
1,note_on,84,54,0
1,note_on,72,45,0
1,note_on,72,0,120
1,note_on,84,0,0
1,note_on,81,60,120
1,note_on,69,51,0
1,note_on,69,0,120
1,note_on,81,0,0
1,note_on,81,54,120
1,note_on,69,45,0
1,note_on,69,0,120
1,note_on,81,0,0
1,note_on,82,62,120
1,note_on,70,52,0
1,note_on,70,0,120
1,note_on,82,0,0
1,note_on,84,63,120
1,note_on,72,53,0
1,note_on,72,0,120
1,note_on,84,0,0
1,note_on,86,64,120
1,note_on,74,54,0
1,note_on,74,0,120
1,note_on,86,0,0
1,note_on,87,66,120
1,note_on,75,56,0
1,note_on,75,0,120
1,note_on,87,0,0
1,note_on,88,90,120
1,note_on,76,76,0
1,note_on,76,0,240
1,note_on,88,0,0
1,note_on,89,75,0
1,note_on,77,63,0
1,note_on,77,0,240
1,note_on,89,0,0
1,note_on,88,91,0
1,note_on,76,77,0
1,note_on,76,0,240
1,note_on,88,0,0
1,note_on,89,75,0
1,note_on,77,63,0
1,note_on,77,0,240
1,note_on,89,0,0
1,note_on,67,56,0
1,note_on,79,66,0
1,note_on,79,0,960
1,note_on,67,0,0
1,note_on,57,45,0
1,note_on,69,54,0
1,note_on,69,0,960
1,note_on,57,0,0
1,note_on,75,65,0
1,note_on,87,77,0
1,note_on,87,0,960
1,note_on,75,0,0
1,note_on,74,57,0
1,note_on,86,68,0
1,note_on,86,0,960
1,note_on,74,0,0
1,note_on,86,75,0
1,note_on,84,68,120
1,note_on,86,0,24
1,note_on,87,72,96
1,note_on,84,0,24
1,note_on,86,67,96
1,note_on,87,0,24
1,note_on,89,75,96
1,note_on,86,0,24
1,note_on,87,71,96
1,note_on,89,0,24
1,note_on,86,72,96
1,note_on,87,0,24
1,note_on,84,68,96
1,note_on,86,0,24
1,note_on,82,75,96
1,note_on,84,0,24
1,note_on,82,0,456
1,note_on,81,63,0
1,note_on,81,0,480
1,note_on,82,47,240
1,note_on,82,0,240
1,note_on,81,50,0
1,note_on,81,0,240
1,note_on,82,47,0
1,note_on,82,0,240
1,note_on,80,46,240
1,note_on,80,0,240
1,note_on,79,51,0
1,note_on,79,0,240
1,note_on,80,46,0
1,note_on,80,0,240
1,note_on,79,44,240
1,note_on,79,0,240
1,note_on,78,48,0
1,note_on,78,0,240
1,note_on,79,45,0
1,note_on,79,0,240
1,note_on,79,44,240
1,note_on,79,0,240
1,note_on,91,51,0
1,note_on,91,0,240
1,note_on,91,48,0
1,note_on,91,0,120
1,note_on,91,50,360
1,note_on,91,0,240
1,note_on,77,44,0
1,note_on,77,0,240
1,note_on,77,44,0
1,note_on,77,0,120
1,note_on,77,46,360
1,note_on,77,0,240
1,note_on,86,51,0
1,note_on,86,0,240
1,note_on,86,48,0
1,note_on,86,0,120
1,note_on,86,49,360
1,note_on,86,0,240
1,note_on,75,45,0
1,note_on,75,0,240
1,note_on,75,45,0
1,note_on,75,0,120
1,note_on,75,44,360
1,note_on,75,0,240
1,note_on,84,50,0
1,note_on,84,0,240
1,note_on,84,47,0
1,note_on,84,0,120
1,note_on,84,48,360
1,note_on,84,0,240
1,note_on,74,44,0
1,note_on,74,0,240
1,note_on,74,44,0
1,note_on,74,0,120
1,note_on,74,44,360
1,note_on,74,0,240
1,note_on,82,49,0
1,note_on,82,0,240
1,note_on,82,46,0
1,note_on,82,0,120
1,note_on,82,54,120
1,note_on,82,0,240
1,note_on,72,44,0
1,note_on,72,0,120
1,note_on,82,63,600
1,note_on,82,0,240
1,note_on,74,52,0
1,note_on,74,0,120
1,note_on,82,69,600
1,note_on,82,0,240
1,note_on,75,54,0
1,note_on,75,0,120
1,note_on,82,81,600
1,note_on,82,0,240
1,note_on,76,67,0
1,note_on,76,0,120
1,note_on,82,89,600
1,note_on,82,0,240
1,note_on,77,83,0
1,note_on,77,0,120
1,note_on,82,89,120
1,note_on,82,0,240
1,note_on,78,83,0
1,note_on,78,0,120
1,note_on,82,89,120
1,note_on,82,0,240
1,note_on,79,85,0
1,note_on,79,0,240
1,note_on,87,89,0
1,note_on,87,0,240
1,note_on,81,85,0
1,note_on,81,0,240
1,note_on,86,82,0
1,note_on,86,0,48
1,note_on,87,81,0
1,note_on,87,0,48
1,note_on,86,85,0
1,note_on,86,0,48
1,note_on,87,78,0
1,note_on,87,0,48
1,note_on,86,78,0
1,note_on,86,0,48
1,note_on,89,94,0
1,note_on,89,0,240
1,note_on,82,81,0
1,note_on,82,0,48
1,note_on,84,76,0
1,note_on,84,0,48
1,note_on,82,81,0
1,note_on,82,0,48
1,note_on,84,75,0
1,note_on,84,0,48
1,note_on,82,75,0
1,note_on,82,0,48
1,note_on,86,92,0
1,note_on,86,0,240
1,note_on,79,75,0
1,note_on,79,0,48
1,note_on,81,69,0
1,note_on,81,0,48
1,note_on,79,75,0
1,note_on,79,0,48
1,note_on,81,71,0
1,note_on,81,0,48
1,note_on,79,71,4
1,note_on,79,0,44
1,note_on,82,88,0
1,note_on,82,0,240
1,note_on,72,71,0
1,note_on,72,0,48
1,note_on,74,66,0
1,note_on,74,0,48
1,note_on,72,71,0
1,note_on,72,0,48
1,note_on,74,67,0
1,note_on,74,0,48
1,note_on,72,67,0
1,note_on,72,0,48
1,note_on,75,79,0
1,note_on,75,0,240
1,note_on,65,74,0
1,note_on,65,0,60
1,note_on,77,76,60
1,note_on,79,78,120
1,note_on,77,0,24
1,note_on,77,76,96
1,note_on,79,0,24
1,note_on,75,76,96
1,note_on,77,0,24
1,note_on,74,71,96
1,note_on,75,0,24
1,note_on,72,72,96
1,note_on,74,0,24
1,note_on,70,70,96
1,note_on,72,0,24
1,note_on,72,54,96
1,note_on,70,0,24
1,note_on,72,0,36
1,note_on,74,50,0
1,note_on,74,0,60
1,note_on,72,54,0
1,note_on,72,0,60
1,note_on,74,49,0
1,note_on,74,0,60
1,note_on,72,54,0
1,note_on,72,0,60
1,note_on,74,49,0
1,note_on,74,0,60
1,note_on,72,54,0
1,note_on,72,0,60
1,note_on,74,49,0
1,note_on,74,0,60
1,note_on,72,54,0
1,note_on,72,0,60
1,note_on,74,49,0
1,note_on,74,0,60
1,note_on,72,54,0
1,note_on,72,0,60
1,note_on,74,51,0
1,note_on,74,0,60
1,note_on,72,54,0
1,note_on,72,0,40
1,note_on,74,50,0
1,note_on,74,0,40
1,note_on,72,50,0
1,note_on,72,0,40
1,note_on,70,66,0
1,note_on,70,0,60
1,note_on,72,62,0
1,note_on,72,0,60
1,note_on,70,70,0
1,note_on,70,0,120
1,note_on,58,47,120
1,note_on,58,0,120
1,note_on,62,45,0
1,note_on,62,0,120
1,note_on,60,47,0
1,note_on,60,0,120
1,note_on,63,45,0
1,note_on,63,0,120
1,note_on,62,47,0
1,note_on,62,0,120
1,note_on,65,45,0
1,note_on,65,0,120
1,note_on,63,48,0
1,note_on,63,0,120
1,note_on,58,52,120
1,note_on,58,0,120
1,note_on,62,48,0
1,note_on,62,0,120
1,note_on,60,52,0
1,note_on,60,0,120
1,note_on,63,48,0
1,note_on,63,0,120
1,note_on,62,52,0
1,note_on,62,0,120
1,note_on,65,48,0
1,note_on,65,0,120
1,note_on,63,52,0
1,note_on,63,0,120
1,note_on,58,52,120
1,note_on,58,0,120
1,note_on,62,55,0
1,note_on,62,0,120
1,note_on,60,57,0
1,note_on,60,0,120
1,note_on,63,58,0
1,note_on,63,0,120
1,note_on,62,59,0
1,note_on,62,0,120
1,note_on,65,62,0
1,note_on,65,0,120
1,note_on,63,63,0
1,note_on,63,0,120
1,note_on,67,66,0
1,note_on,67,0,120
1,note_on,65,67,0
1,note_on,65,0,120
1,note_on,68,69,0
1,note_on,68,0,120
1,note_on,67,70,0
1,note_on,67,0,120
1,note_on,70,71,0
1,note_on,70,0,120
1,note_on,69,73,0
1,note_on,69,0,120
1,note_on,72,75,0
1,note_on,72,0,120
1,note_on,70,77,0
1,note_on,70,0,120
1,note_on,72,79,0
1,note_on,72,0,120
1,note_on,74,82,0
1,note_on,74,0,120
1,note_on,72,82,0
1,note_on,72,0,120
1,note_on,70,80,0
1,note_on,70,0,120
1,note_on,68,79,0
1,note_on,68,0,120
1,note_on,67,78,0
1,note_on,67,0,120
1,note_on,66,77,0
1,note_on,66,0,120
1,note_on,67,78,0
1,note_on,67,0,120
1,note_on,72,79,0
1,note_on,72,0,120
1,note_on,75,80,0
1,note_on,75,0,120
1,note_on,74,79,0
1,note_on,74,0,120
1,note_on,72,79,0
1,note_on,72,0,120
1,note_on,70,78,0
1,note_on,70,0,120
1,note_on,69,75,0
1,note_on,69,0,120
1,note_on,67,74,0
1,note_on,67,0,120
1,note_on,65,75,0
1,note_on,65,0,120
1,note_on,70,79,0
1,note_on,70,0,120
1,note_on,74,82,0
1,note_on,74,0,120
1,note_on,77,88,0
1,note_on,77,0,120
1,note_on,82,94,0
1,note_on,82,0,120
1,note_on,70,64,120
1,note_on,74,64,0
1,note_on,74,0,120
1,note_on,70,0,0
1,note_on,74,70,120
1,note_on,77,70,0
1,note_on,77,0,240
1,note_on,74,0,0
1,note_on,72,66,0
1,note_on,75,66,0
1,note_on,75,0,120
1,note_on,72,0,0
1,note_on,70,67,120
1,note_on,74,67,0
1,note_on,74,0,120
1,note_on,70,0,0
1,note_on,69,67,120
1,note_on,72,67,0
1,note_on,72,0,120
1,note_on,69,0,0
1,note_on,70,67,120
1,note_on,70,0,120
1,note_on,70,47,120
1,note_on,70,0,120
1,note_on,74,45,0
1,note_on,74,0,120
1,note_on,72,47,0
1,note_on,72,0,120
1,note_on,75,45,0
1,note_on,75,0,120
1,note_on,74,47,0
1,note_on,74,0,120
1,note_on,77,45,0
1,note_on,77,0,120
1,note_on,75,48,0
1,note_on,75,0,120
1,note_on,82,62,120
1,note_on,82,0,120
1,note_on,86,58,0
1,note_on,86,0,120
1,note_on,84,62,0
1,note_on,84,0,120
1,note_on,87,59,0
1,note_on,87,0,120
1,note_on,86,62,0
1,note_on,86,0,120
1,note_on,89,58,0
1,note_on,89,0,120
1,note_on,87,68,0
1,note_on,87,0,120
1,note_on,70,55,120
1,note_on,70,0,120
1,note_on,74,56,0
1,note_on,74,0,120
1,note_on,72,58,0
1,note_on,72,0,120
1,note_on,75,59,0
1,note_on,75,0,120
1,note_on,74,61,0
1,note_on,74,0,120
1,note_on,77,63,0
1,note_on,77,0,120
1,note_on,75,64,0
1,note_on,75,0,120
1,note_on,70,67,0
1,note_on,70,0,120
1,note_on,77,68,0
1,note_on,77,0,120
1,note_on,70,69,0
1,note_on,70,0,120
1,note_on,79,70,0
1,note_on,79,0,120
1,note_on,70,72,0
1,note_on,70,0,120
1,note_on,81,74,0
1,note_on,81,0,120
1,note_on,70,75,0
1,note_on,70,0,120
1,note_on,82,78,0
1,note_on,82,0,120
1,note_on,84,78,0
1,note_on,84,0,120
1,note_on,86,77,0
1,note_on,86,0,120
1,note_on,84,75,0
1,note_on,84,0,120
1,note_on,82,74,0
1,note_on,82,0,120
1,note_on,80,73,0
1,note_on,80,0,120
1,note_on,79,72,0
1,note_on,79,0,120
1,note_on,78,71,0
1,note_on,78,0,120
1,note_on,79,79,0
1,note_on,79,0,120
1,note_on,77,79,0
1,note_on,77,0,120
1,note_on,75,78,0
1,note_on,75,0,120
1,note_on,74,77,0
1,note_on,74,0,120
1,note_on,72,75,0
1,note_on,72,0,120
1,note_on,70,74,0
1,note_on,70,0,120
1,note_on,69,73,0
1,note_on,69,0,120
1,note_on,67,73,0
1,note_on,67,0,120
1,note_on,65,82,0
1,note_on,65,0,240
1,note_on,89,82,0
1,note_on,89,0,120
1,note_on,89,82,120
1,note_on,89,0,120
1,note_on,89,82,120
1,note_on,89,0,120
1,note_on,89,81,120
1,note_on,89,0,120
1,note_on,86,76,0
1,note_on,86,0,120
1,note_on,82,71,0
1,note_on,82,0,120
1,note_on,77,69,0
1,note_on,77,0,120
1,note_on,82,81,0
1,note_on,82,0,120
1,note_on,77,75,0
1,note_on,77,0,120
1,note_on,74,71,0
1,note_on,74,0,120
1,note_on,70,69,0
1,note_on,70,0,120
1,note_on,72,51,0
1,note_on,72,0,80
1,note_on,74,46,0
1,note_on,74,0,80
1,note_on,72,51,0
1,note_on,72,0,80
1,note_on,74,46,0
1,note_on,74,0,80
1,note_on,72,51,0
1,note_on,72,0,80
1,note_on,74,46,0
1,note_on,74,0,80
1,note_on,72,51,0
1,note_on,72,0,80
1,note_on,74,46,0
1,note_on,74,0,80
1,note_on,72,51,0
1,note_on,72,0,80
1,note_on,74,46,0
1,note_on,74,0,80
1,note_on,72,51,0
1,note_on,72,0,80
1,note_on,74,46,0
1,note_on,74,0,80
1,note_on,72,51,0
1,note_on,72,0,80
1,note_on,74,46,0
1,note_on,74,0,80
1,note_on,72,51,0
1,note_on,72,0,80
1,note_on,74,48,0
1,note_on,74,0,80
1,note_on,72,51,0
1,note_on,72,0,80
1,note_on,74,47,0
1,note_on,74,0,80
1,note_on,72,51,0
1,note_on,72,0,60
1,note_on,74,48,0
1,note_on,74,0,60
1,note_on,72,51,0
1,note_on,72,0,60
1,note_on,74,47,0
1,note_on,74,0,60
1,note_on,72,51,0
1,note_on,72,0,40
1,note_on,74,48,0
1,note_on,74,0,40
1,note_on,72,48,0
1,note_on,72,0,40
1,note_on,70,62,0
1,note_on,70,0,60
1,note_on,72,58,0
1,note_on,72,0,60
1,note_on,70,69,0
1,note_on,70,0,236
1,note_on,82,54,4
1,note_on,82,0,240
1,note_on,82,58,240
1,note_on,82,0,240
1,note_on,81,56,0
1,note_on,81,0,240
1,note_on,82,61,0
1,note_on,82,0,240
1,note_on,84,68,0
1,note_on,84,0,240
1,note_on,86,72,0
1,note_on,86,0,240
1,note_on,87,79,0
1,note_on,87,0,120
1,note_on,86,73,0
1,note_on,86,0,120
1,note_on,87,76,0
1,note_on,87,0,120
1,note_on,86,70,0
1,note_on,86,0,120
1,note_on,87,75,0
1,note_on,87,0,120
1,note_on,85,67,0
1,note_on,85,0,120
1,note_on,84,69,0
1,note_on,84,0,120
1,note_on,82,65,0
1,note_on,82,0,120
1,note_on,81,67,0
1,note_on,81,0,120
1,note_on,82,70,0
1,note_on,82,0,120
1,note_on,84,72,0
1,note_on,84,0,120
1,note_on,82,67,0
1,note_on,82,0,120
1,note_on,81,69,0
1,note_on,81,0,120
1,note_on,79,66,0
1,note_on,79,0,120
1,note_on,77,66,0
1,note_on,77,0,120
1,note_on,75,65,0
1,note_on,75,0,120
1,note_on,74,63,0
1,note_on,74,0,120
1,note_on,74,49,120
1,note_on,74,0,120
1,note_on,70,53,360
1,note_on,70,0,240
1,note_on,69,49,0
1,note_on,69,0,240
1,note_on,70,49,0
1,note_on,70,0,240
1,note_on,72,49,0
1,note_on,72,0,240
1,note_on,74,49,0
1,note_on,74,0,240
1,note_on,75,52,0
1,note_on,75,0,120
1,note_on,77,52,120
1,note_on,77,0,60
1,note_on,75,49,0
1,note_on,75,0,60
1,note_on,74,52,0
1,note_on,74,0,60
1,note_on,75,48,0
1,note_on,75,0,60
1,note_on,77,54,0
1,note_on,77,0,240
1,note_on,79,61,0
1,note_on,79,0,230
1,note_on,75,49,10
1,note_on,79,49,0
1,note_on,79,0,240
1,note_on,75,0,0
1,note_on,74,42,0
1,note_on,77,42,0
1,note_on,77,0,240
1,note_on,74,0,0
1,note_on,63,30,240
1,note_on,69,30,0
1,note_on,69,0,240
1,note_on,63,0,0
1,note_on,63,45,0
1,note_on,72,45,0
1,note_on,72,0,960
1,note_on,63,0,0
1,note_on,62,32,0
1,note_on,70,32,0
1,note_on,70,0,360
1,note_on,62,0,0
1,note_on,74,57,0
1,note_on,74,0,120
1,note_on,72,56,0
1,note_on,72,0,120
1,note_on,70,54,0
1,note_on,70,0,120
1,note_on,69,52,0
1,note_on,69,0,120
1,note_on,67,60,0
1,note_on,67,0,240
1,note_on,65,47,0
1,note_on,65,0,230
1,note_on,65,47,10
1,note_on,65,0,720
1,note_on,77,52,0
1,note_on,77,0,240
1,note_on,79,57,0
1,note_on,79,0,240
1,note_on,81,61,0
1,note_on,76,55,180
1,note_on,76,0,60
1,note_on,81,0,0
1,note_on,82,69,0
1,note_on,82,0,360
1,note_on,79,64,0
1,note_on,79,0,120
1,note_on,76,56,0
1,note_on,76,0,480
1,note_on,72,48,480
1,note_on,72,0,120
1,note_on,70,48,0
1,note_on,70,0,120
1,note_on,69,48,0
1,note_on,69,0,120
1,note_on,67,46,0
1,note_on,67,0,120
1,note_on,65,53,0
1,note_on,65,0,240
1,note_on,64,47,0
1,note_on,64,0,230
1,note_on,64,47,10
1,note_on,64,0,720
1,note_on,79,53,0
1,note_on,79,0,240
1,note_on,81,58,0
1,note_on,81,0,240
1,note_on,82,63,0
1,note_on,78,52,180
1,note_on,78,0,60
1,note_on,82,0,0
1,note_on,84,68,0
1,note_on,84,0,360
1,note_on,81,65,0
1,note_on,81,0,120
1,note_on,78,57,0
1,note_on,78,0,480
1,note_on,81,60,240
1,note_on,81,0,240
1,note_on,82,64,0
1,note_on,82,0,240
1,note_on,84,69,0
1,note_on,79,66,180
1,note_on,79,0,60
1,note_on,84,0,0
1,note_on,86,84,0
1,note_on,86,0,360
1,note_on,82,77,0
1,note_on,82,0,120
1,note_on,79,72,0
1,note_on,79,0,240
1,note_on,76,71,180
1,note_on,76,0,60
1,note_on,82,85,0
1,note_on,82,0,360
1,note_on,79,76,0
1,note_on,79,0,120
1,note_on,76,72,0
1,note_on,76,0,240
1,note_on,71,68,180
1,note_on,71,0,60
1,note_on,77,79,0
1,note_on,77,0,360
1,note_on,74,73,0
1,note_on,74,0,120
1,note_on,71,69,0
1,note_on,71,0,480
1,note_on,71,68,240
1,note_on,71,0,230
1,note_on,71,69,10
1,note_on,71,0,230
1,note_on,71,67,10
1,note_on,71,0,230
1,note_on,72,76,10
1,note_on,72,0,120
1,note_on,81,69,0
1,note_on,81,0,120
1,note_on,77,72,0
1,note_on,77,0,120
1,note_on,72,70,0
1,note_on,72,0,120
1,note_on,69,76,0
1,note_on,69,0,120
1,note_on,77,70,0
1,note_on,77,0,120
1,note_on,72,72,0
1,note_on,72,0,120
1,note_on,69,67,0
1,note_on,69,0,113
1,note_on,69,61,7
1,note_on,72,72,0
1,note_on,72,0,240
1,note_on,69,0,0
1,note_on,67,53,0
1,note_on,70,63,0
1,note_on,70,0,240
1,note_on,67,0,0
1,note_on,65,51,0
1,note_on,69,61,0
1,note_on,69,0,120
1,note_on,65,0,0
1,note_on,64,49,120
1,note_on,67,58,0
1,note_on,67,0,120
1,note_on,64,0,0
1,note_on,65,54,120
1,note_on,65,0,480
1,note_on,65,54,600
1,note_on,65,0,120
1,note_on,67,58,0
1,note_on,67,0,120
1,note_on,68,61,0
1,note_on,68,0,120
1,note_on,70,63,0
1,note_on,70,0,120
1,note_on,72,65,0
1,note_on,72,0,120
1,note_on,74,68,0
1,note_on,74,0,120
1,note_on,76,71,0
1,note_on,76,0,120
1,note_on,77,75,0
1,note_on,77,0,120
1,note_on,72,71,0
1,note_on,72,0,120
1,note_on,80,75,0
1,note_on,80,0,120
1,note_on,79,72,0
1,note_on,79,0,120
1,note_on,77,75,0
1,note_on,77,0,120
1,note_on,72,71,0
1,note_on,72,0,120
1,note_on,80,72,0
1,note_on,80,0,120
1,note_on,79,70,0
1,note_on,79,0,120
1,note_on,77,72,0
1,note_on,79,67,120
1,note_on,77,0,24
1,note_on,75,71,96
1,note_on,79,0,24
1,note_on,77,64,96
1,note_on,75,0,24
1,note_on,74,70,96
1,note_on,77,0,24
1,note_on,75,63,96
1,note_on,74,0,24
1,note_on,72,68,96
1,note_on,75,0,24
1,note_on,74,64,96
1,note_on,72,0,24
1,note_on,71,67,96
1,note_on,74,0,24
1,note_on,71,0,216
1,note_on,89,90,0
1,note_on,89,0,480
1,note_on,87,89,0
1,note_on,87,0,480
1,note_on,86,88,0
1,note_on,86,0,480
1,note_on,84,87,0
1,note_on,84,0,480
1,note_on,83,84,0
1,note_on,83,0,480
1,note_on,80,78,0
1,note_on,80,0,480
1,note_on,79,83,0
1,note_on,79,0,480
1,note_on,77,78,0
1,note_on,77,0,230
1,note_on,77,80,10
1,note_on,77,0,240
1,note_on,76,77,0
1,note_on,76,0,240
1,note_on,75,67,0
1,note_on,75,0,480
1,note_on,75,65,120
1,note_on,74,68,120
1,note_on,75,0,24
1,note_on,75,66,96
1,note_on,74,0,24
1,note_on,77,68,96
1,note_on,75,0,24
1,note_on,75,66,96
1,note_on,77,0,24
1,note_on,74,68,96
1,note_on,75,0,24
1,note_on,75,65,96
1,note_on,74,0,24
1,note_on,78,77,96
1,note_on,75,0,24
1,note_on,78,0,336
1,note_on,75,69,0
1,note_on,75,0,110
1,note_on,75,65,10
1,note_on,75,0,60
1,note_on,77,62,0
1,note_on,77,0,60
1,note_on,75,65,0
1,note_on,75,0,60
1,note_on,77,63,0
1,note_on,77,0,60
1,note_on,75,66,0
1,note_on,75,0,40
1,note_on,77,64,0
1,note_on,77,0,40
1,note_on,75,64,0
1,note_on,75,0,40
1,note_on,74,71,0
1,note_on,74,0,60
1,note_on,75,69,0
1,note_on,75,0,60
1,note_on,82,78,0
1,note_on,82,0,360
1,note_on,75,68,0
1,note_on,75,0,110
1,note_on,75,64,10
1,note_on,75,0,60
1,note_on,77,62,0
1,note_on,77,0,60
1,note_on,75,64,0
1,note_on,75,0,60
1,note_on,77,62,0
1,note_on,77,0,60
1,note_on,75,64,0
1,note_on,75,0,40
1,note_on,77,63,0
1,note_on,77,0,40
1,note_on,75,63,0
1,note_on,75,0,40
1,note_on,74,71,0
1,note_on,74,0,60
1,note_on,75,68,0
1,note_on,75,0,60
1,note_on,81,81,0
1,note_on,81,0,120
1,note_on,84,85,120
1,note_on,84,0,120
1,note_on,87,89,120
1,note_on,87,0,600
1,note_on,89,71,0
1,note_on,86,77,120
1,note_on,89,0,24
1,note_on,87,71,96
1,note_on,86,0,24
1,note_on,84,77,96
1,note_on,87,0,24
1,note_on,86,71,96
1,note_on,84,0,24
1,note_on,82,77,96
1,note_on,86,0,24
1,note_on,84,71,96
1,note_on,82,0,24
1,note_on,81,72,96
1,note_on,84,0,24
1,note_on,82,73,96
1,note_on,81,0,24
1,note_on,84,77,96
1,note_on,82,0,24
1,note_on,82,72,96
1,note_on,84,0,24
1,note_on,81,71,96
1,note_on,82,0,24
1,note_on,82,72,96
1,note_on,81,0,24
1,note_on,84,73,96
1,note_on,82,0,24
1,note_on,86,70,96
1,note_on,84,0,24
1,note_on,87,75,96
1,note_on,86,0,24
1,note_on,86,70,96
1,note_on,87,0,24
1,note_on,84,72,96
1,note_on,86,0,24
1,note_on,82,72,96
1,note_on,84,0,24
1,note_on,81,71,96
1,note_on,82,0,24
1,note_on,79,70,96
1,note_on,81,0,24
1,note_on,77,69,96
1,note_on,79,0,24
1,note_on,75,68,96
1,note_on,77,0,24
1,note_on,75,0,85
1,note_on,75,68,11
1,note_on,75,0,60
1,note_on,77,64,0
1,note_on,77,0,60
1,note_on,75,65,0
1,note_on,75,0,40
1,note_on,77,63,0
1,note_on,77,0,40
1,note_on,75,63,0
1,note_on,75,0,40
1,note_on,74,68,0
1,note_on,74,0,240
1,note_on,74,68,0
1,note_on,74,0,720
1,note_on,74,72,0
1,note_on,74,0,240
1,note_on,86,81,0
1,note_on,86,0,240
1,note_on,84,77,0
1,note_on,84,0,480
1,note_on,82,78,0
1,note_on,82,0,480
1,note_on,81,77,0
1,note_on,81,0,360
1,note_on,79,70,0
1,note_on,82,73,120
1,note_on,79,0,24
1,note_on,81,70,96
1,note_on,82,0,24
1,note_on,84,73,96
1,note_on,81,0,24
1,note_on,82,69,96
1,note_on,84,0,24
1,note_on,81,73,96
1,note_on,82,0,24
1,note_on,79,67,96
1,note_on,81,0,24
1,note_on,78,71,96
1,note_on,79,0,24
1,note_on,78,0,36
1,note_on,74,58,60
1,note_on,74,0,120
1,note_on,86,57,0
1,note_on,86,0,120
1,note_on,85,57,0
1,note_on,85,0,120
1,note_on,86,56,0
1,note_on,86,0,120
1,note_on,85,56,0
1,note_on,85,0,120
1,note_on,86,57,0
1,note_on,86,0,120
1,note_on,85,58,0
1,note_on,85,0,120
1,note_on,86,59,0
1,note_on,86,0,120
1,note_on,87,59,0
1,note_on,87,0,120
1,note_on,84,60,0
1,note_on,84,0,120
1,note_on,86,58,0
1,note_on,86,0,120
1,note_on,82,62,0
1,note_on,82,0,120
1,note_on,84,60,0
1,note_on,84,0,120
1,note_on,81,63,0
1,note_on,81,0,120
1,note_on,82,61,0
1,note_on,82,0,120
1,note_on,79,64,0
1,note_on,81,63,120
1,note_on,79,0,24
1,note_on,77,66,96
1,note_on,81,0,24
1,note_on,79,63,96
1,note_on,77,0,24
1,note_on,75,67,96
1,note_on,79,0,24
1,note_on,77,62,96
1,note_on,75,0,24
1,note_on,74,69,96
1,note_on,77,0,24
1,note_on,75,64,96
1,note_on,74,0,24
1,note_on,73,70,96
1,note_on,75,0,24
1,note_on,73,0,96
1,note_on,82,69,120
1,note_on,82,0,240
1,note_on,81,70,0
1,note_on,81,0,240
1,note_on,79,68,0
1,note_on,79,0,240
1,note_on,78,71,0
1,note_on,78,0,60
1,note_on,73,52,60
1,note_on,73,0,120
1,note_on,74,57,0
1,note_on,74,0,120
1,note_on,73,52,0
1,note_on,73,0,120
1,note_on,74,57,0
1,note_on,74,0,120
1,note_on,73,53,0
1,note_on,73,0,120
1,note_on,74,57,0
1,note_on,74,0,120
1,note_on,73,53,0
1,note_on,73,0,120
1,note_on,74,54,0
1,note_on,74,0,120
1,note_on,75,51,0
1,note_on,75,0,120
1,note_on,72,53,0
1,note_on,72,0,120
1,note_on,74,49,0
1,note_on,74,0,120
1,note_on,70,52,0
1,note_on,70,0,120
1,note_on,72,49,0
1,note_on,72,0,120
1,note_on,69,50,0
1,note_on,69,0,120
1,note_on,70,46,0
1,note_on,70,0,120
1,note_on,67,48,0
1,note_on,69,46,120
1,note_on,67,0,24
1,note_on,65,46,96
1,note_on,69,0,24
1,note_on,67,45,96
1,note_on,65,0,24
1,note_on,63,45,96
1,note_on,67,0,24
1,note_on,65,44,96
1,note_on,63,0,24
1,note_on,62,43,96
1,note_on,65,0,24
1,note_on,63,42,96
1,note_on,62,0,24
1,note_on,61,41,96
1,note_on,63,0,24
1,note_on,61,0,96
1,note_on,67,41,120
1,note_on,67,0,240
1,note_on,70,45,0
1,note_on,70,0,240
1,note_on,61,42,0
1,note_on,61,0,240
1,note_on,62,39,0
1,note_on,62,0,120
1,note_on,74,46,120
1,note_on,74,0,120
1,note_on,74,49,360
1,note_on,74,0,240
1,note_on,74,46,240
1,note_on,74,0,240
1,note_on,74,48,240
1,note_on,74,0,240
1,note_on,74,43,240
1,note_on,74,0,240
1,note_on,73,46,0
1,note_on,73,0,240
1,note_on,74,49,0
1,note_on,74,0,240
1,note_on,73,53,0
1,note_on,73,0,240
1,note_on,74,56,0
1,note_on,74,0,240
1,note_on,73,60,0
1,note_on,73,0,240
1,note_on,74,63,0
1,note_on,74,0,240
1,note_on,77,66,0
1,note_on,77,0,480
1,note_on,75,64,0
1,note_on,75,0,480
1,note_on,75,53,120
1,note_on,75,0,120
1,note_on,74,56,0
1,note_on,74,0,120
1,note_on,75,53,0
1,note_on,75,0,120
1,note_on,77,56,0
1,note_on,77,0,120
1,note_on,75,54,0
1,note_on,75,0,120
1,note_on,74,56,0
1,note_on,74,0,120
1,note_on,75,53,0
1,note_on,75,0,120
1,note_on,82,70,0
1,note_on,82,0,480
1,note_on,81,66,0
1,note_on,81,0,480
1,note_on,81,61,120
1,note_on,81,0,120
1,note_on,79,63,0
1,note_on,79,0,120
1,note_on,81,61,0
1,note_on,81,0,120
1,note_on,82,63,0
1,note_on,82,0,120
1,note_on,81,61,0
1,note_on,81,0,120
1,note_on,79,63,0
1,note_on,79,0,120
1,note_on,81,61,0
1,note_on,81,0,120
1,note_on,89,77,0
1,note_on,89,0,480
1,note_on,87,75,0
1,note_on,87,0,480
1,note_on,87,66,120
1,note_on,87,0,120
1,note_on,86,68,0
1,note_on,86,0,120
1,note_on,87,65,0
1,note_on,87,0,120
1,note_on,89,68,0
1,note_on,89,0,120
1,note_on,87,65,0
1,note_on,87,0,120
1,note_on,85,68,0
1,note_on,85,0,120
1,note_on,84,65,0
1,note_on,84,0,120
1,note_on,82,77,0
1,note_on,82,0,480
1,note_on,81,69,0
1,note_on,81,0,480
1,note_on,87,67,120
1,note_on,86,69,120
1,note_on,87,0,24
1,note_on,87,66,96
1,note_on,86,0,24
1,note_on,89,70,96
1,note_on,87,0,24
1,note_on,87,67,96
1,note_on,89,0,24
1,note_on,85,68,96
1,note_on,87,0,24
1,note_on,84,67,96
1,note_on,85,0,24
1,note_on,84,0,96
1,note_on,82,66,0
1,note_on,81,65,120
1,note_on,82,0,24
1,note_on,87,69,96
1,note_on,81,0,24
1,note_on,86,66,96
1,note_on,87,0,24
1,note_on,89,71,96
1,note_on,86,0,24
1,note_on,87,68,96
1,note_on,89,0,24
1,note_on,85,69,96
1,note_on,87,0,24
1,note_on,84,67,96
1,note_on,85,0,24
1,note_on,82,66,96
1,note_on,84,0,24
1,note_on,81,65,96
1,note_on,82,0,24
1,note_on,87,70,96
1,note_on,81,0,24
1,note_on,86,67,96
1,note_on,87,0,24
1,note_on,89,71,96
1,note_on,86,0,24
1,note_on,87,68,96
1,note_on,89,0,24
1,note_on,85,70,96
1,note_on,87,0,24
1,note_on,84,69,96
1,note_on,85,0,24
1,note_on,84,0,96
1,note_on,82,68,0
1,note_on,81,67,120
1,note_on,82,0,24
1,note_on,84,68,96
1,note_on,81,0,24
1,note_on,83,64,96
1,note_on,84,0,24
1,note_on,86,68,96
1,note_on,83,0,24
1,note_on,84,67,96
1,note_on,86,0,24
1,note_on,82,65,96
1,note_on,84,0,24
1,note_on,81,63,96
1,note_on,82,0,24
1,note_on,79,63,96
1,note_on,81,0,24
1,note_on,77,61,96
1,note_on,79,0,24
1,note_on,79,59,96
1,note_on,77,0,24
1,note_on,78,58,96
1,note_on,79,0,24
1,note_on,81,59,96
1,note_on,78,0,24
1,note_on,79,57,96
1,note_on,81,0,24
1,note_on,77,56,96
1,note_on,79,0,24
1,note_on,75,54,96
1,note_on,77,0,24
1,note_on,75,0,96
1,note_on,74,52,0
1,note_on,74,0,240
1,note_on,72,52,0
1,note_on,72,0,240
1,note_on,74,54,0
1,note_on,74,0,120
1,note_on,75,56,120
1,note_on,75,0,120
1,note_on,76,58,120
1,note_on,76,0,120
1,note_on,77,61,120
1,note_on,77,0,120
1,note_on,79,57,0
1,note_on,79,0,120
1,note_on,77,56,0
1,note_on,77,0,120
1,note_on,75,54,0
1,note_on,75,0,120
1,note_on,74,52,0
1,note_on,74,0,120
1,note_on,72,60,0
1,note_on,72,0,240
1,note_on,70,54,0
1,note_on,70,0,230
1,note_on,70,51,10
1,note_on,70,0,720
1,note_on,74,57,0
1,note_on,74,0,240
1,note_on,79,60,0
1,note_on,79,0,240
1,note_on,74,55,0
1,note_on,74,0,240
1,note_on,77,60,0
1,note_on,77,0,480
1,note_on,75,56,0
1,note_on,75,0,720
1,note_on,77,60,0
1,note_on,77,0,120
1,note_on,79,56,0
1,note_on,79,0,120
1,note_on,77,61,0
1,note_on,77,0,120
1,note_on,75,54,0
1,note_on,75,0,120
1,note_on,74,58,0
1,note_on,74,0,120
1,note_on,72,53,0
1,note_on,72,0,120
1,note_on,70,66,0
1,note_on,70,0,480
1,note_on,69,57,0
1,note_on,69,0,713
1,note_on,69,62,7
1,note_on,69,0,240
1,note_on,70,65,0
1,note_on,70,0,240
1,note_on,72,61,0
1,note_on,72,0,230
1,note_on,69,52,10
1,note_on,72,61,0
1,note_on,72,0,480
1,note_on,69,0,0
1,note_on,70,49,0
1,note_on,74,58,0
1,note_on,74,0,480
1,note_on,70,0,0
1,note_on,77,64,240
1,note_on,77,0,120
1,note_on,76,63,0
1,note_on,76,0,120
1,note_on,79,66,0
1,note_on,79,0,120
1,note_on,77,63,0
1,note_on,77,0,120
1,note_on,75,63,0
1,note_on,75,0,120
1,note_on,74,61,0
1,note_on,74,0,110
1,note_on,74,68,10
1,note_on,74,0,240
1,note_on,72,61,0
1,note_on,72,0,480
1,note_on,70,61,0
1,note_on,70,0,240
1,note_on,74,67,0
1,note_on,74,0,240
1,note_on,72,62,0
1,note_on,72,0,480
1,note_on,69,64,0
1,note_on,69,0,240
1,note_on,70,68,0
1,note_on,70,0,120
1,note_on,72,59,0
1,note_on,72,0,120
1,note_on,70,62,0
1,note_on,70,0,120
1,note_on,69,58,0
1,note_on,69,0,120
1,note_on,70,66,0
1,note_on,70,0,120
1,note_on,72,60,0
1,note_on,72,0,120
1,note_on,74,63,0
1,note_on,74,0,120
1,note_on,75,61,0
1,note_on,75,0,120
1,note_on,76,69,0
1,note_on,76,0,120
1,note_on,77,65,0
1,note_on,77,0,120
1,note_on,76,69,0
1,note_on,76,0,120
1,note_on,77,65,0
1,note_on,77,0,120
1,note_on,79,69,0
1,note_on,79,0,120
1,note_on,77,67,0
1,note_on,77,0,120
1,note_on,75,66,0
1,note_on,75,0,120
1,note_on,74,65,0
1,note_on,74,0,110
1,note_on,74,72,10
1,note_on,74,0,240
1,note_on,72,54,0
1,note_on,72,0,230
1,note_on,72,56,10
1,note_on,72,0,240
1,note_on,70,54,0
1,note_on,70,0,240
1,note_on,74,65,0
1,note_on,74,0,240
1,note_on,72,54,0
1,note_on,72,0,230
1,note_on,72,57,10
1,note_on,72,0,240
1,note_on,69,53,0
1,note_on,69,0,240
1,note_on,70,66,0
1,note_on,70,0,240
1,note_on,72,57,0
1,note_on,72,0,120
1,note_on,74,58,0
1,note_on,74,0,120
1,note_on,75,59,0
1,note_on,75,0,120
1,note_on,77,60,0
1,note_on,77,0,120
1,note_on,79,61,0
1,note_on,79,0,120
1,note_on,81,64,0
1,note_on,81,0,120
1,note_on,82,66,0
1,note_on,82,0,120
1,note_on,84,67,0
1,note_on,84,0,120
1,note_on,86,68,0
1,note_on,86,0,120
1,note_on,87,69,0
1,note_on,87,0,120
1,note_on,89,76,0
1,note_on,89,0,120
1,note_on,89,75,120
1,note_on,89,0,120
1,note_on,77,76,120
1,note_on,89,76,0
1,note_on,89,0,240
1,note_on,87,74,0
1,note_on,87,0,480
1,note_on,86,73,0
1,note_on,86,0,240
1,note_on,86,75,0
1,note_on,86,0,240
1,note_on,77,0,0
1,note_on,75,64,0
1,note_on,84,64,0
1,note_on,84,0,120
1,note_on,75,0,0
1,note_on,74,72,120
1,note_on,82,72,0
1,note_on,82,0,120
1,note_on,74,0,0
1,note_on,72,64,120
1,note_on,81,64,0
1,note_on,81,0,120
1,note_on,72,0,0
1,note_on,82,76,120
1,note_on,74,76,0
1,note_on,74,0,240
1,note_on,82,0,0
1,note_on,70,72,240
1,note_on,70,0,240
1,note_on,67,52,720
1,note_on,67,0,120
1,note_on,65,48,0
1,note_on,65,0,120
1,note_on,63,52,0
1,note_on,63,0,120
1,note_on,62,48,0
1,note_on,62,0,120
1,note_on,60,56,0
1,note_on,60,0,240
1,note_on,58,53,0
1,note_on,58,0,240
1,note_on,58,53,0
1,note_on,58,0,720
1,note_on,70,54,0
1,note_on,70,0,120
1,note_on,70,54,120
1,note_on,70,0,240
1,note_on,72,51,0
1,note_on,72,0,240
1,note_on,70,61,0
1,note_on,70,0,240
1,note_on,69,53,0
1,note_on,69,0,240
1,note_on,68,51,0
1,note_on,68,0,710
1,note_on,68,58,10
1,note_on,68,0,230
1,note_on,68,65,10
1,note_on,68,0,230
1,note_on,68,72,10
1,note_on,68,0,240
1,note_on,80,78,0
1,note_on,80,0,120
1,note_on,82,71,0
1,note_on,82,0,120
1,note_on,79,78,0
1,note_on,79,0,120
1,note_on,80,70,0
1,note_on,80,0,120
1,note_on,77,79,0
1,note_on,77,0,120
1,note_on,79,69,0
1,note_on,79,0,120
1,note_on,75,77,0
1,note_on,75,0,120
1,note_on,77,70,0
1,note_on,77,0,120
1,note_on,74,79,0
1,note_on,74,0,120
1,note_on,75,70,0
1,note_on,75,0,120
1,note_on,72,75,0
1,note_on,72,0,120
1,note_on,74,69,0
1,note_on,74,0,120
1,note_on,70,76,0
1,note_on,70,0,120
1,note_on,72,70,0
1,note_on,72,0,120
1,note_on,68,72,0
1,note_on,68,0,120
1,note_on,70,67,0
1,note_on,70,0,120
1,note_on,68,72,0
1,note_on,68,0,240
1,note_on,67,67,0
1,note_on,67,0,230
1,note_on,67,59,10
1,note_on,67,0,720
1,note_on,79,54,0
1,note_on,79,0,120
1,note_on,79,60,120
1,note_on,79,0,240
1,note_on,77,54,0
1,note_on,77,0,230
1,note_on,77,63,10
1,note_on,77,0,240
1,note_on,76,54,0
1,note_on,76,0,230
1,note_on,76,54,10
1,note_on,76,0,720
1,note_on,85,59,0
1,note_on,85,0,120
1,note_on,85,61,120
1,note_on,85,0,240
1,note_on,76,56,0
1,note_on,76,0,240
1,note_on,79,61,0
1,note_on,79,0,240
1,note_on,77,54,0
1,note_on,77,0,230
1,note_on,77,54,10
1,note_on,77,0,720
1,note_on,78,52,0
1,note_on,78,0,240
1,note_on,79,54,0
1,note_on,79,0,240
1,note_on,75,52,0
1,note_on,75,0,240
1,note_on,73,57,0
1,note_on,73,0,240
1,note_on,74,52,0
1,note_on,74,0,230
1,note_on,74,52,10
1,note_on,74,0,480
1,note_on,77,54,240
1,note_on,77,0,240
1,note_on,79,61,0
1,note_on,79,0,120
1,note_on,77,57,0
1,note_on,77,0,120
1,note_on,75,61,0
1,note_on,75,0,120
1,note_on,74,56,0
1,note_on,74,0,120
1,note_on,72,61,0
1,note_on,72,0,720
1,note_on,69,52,0
1,note_on,69,0,240
1,note_on,70,52,0
1,note_on,70,0,60
1,note_on,77,56,60
1,note_on,76,56,120
1,note_on,77,0,24
1,note_on,77,52,96
1,note_on,76,0,24
1,note_on,79,63,96
1,note_on,77,0,24
1,note_on,77,54,96
1,note_on,79,0,24
1,note_on,75,59,96
1,note_on,77,0,24
1,note_on,74,53,96
1,note_on,75,0,24
1,note_on,72,63,96
1,note_on,74,0,24
1,note_on,72,0,96
1,note_on,72,63,120
1,note_on,72,0,480
1,note_on,69,54,0
1,note_on,69,0,240
1,note_on,70,54,0
1,note_on,70,0,60
1,note_on,77,51,60
1,note_on,76,56,120
1,note_on,77,0,24
1,note_on,77,53,96
1,note_on,76,0,24
1,note_on,79,62,96
1,note_on,77,0,24
1,note_on,77,53,96
1,note_on,79,0,24
1,note_on,75,57,96
1,note_on,77,0,24
1,note_on,74,54,96
1,note_on,75,0,24
1,note_on,74,0,86
1,note_on,74,63,10
1,note_on,74,0,240
1,note_on,72,60,0
1,note_on,72,0,240
1,note_on,72,59,240
1,note_on,72,0,240
1,note_on,72,63,0
1,note_on,72,0,240
1,note_on,70,59,0
1,note_on,70,0,240
1,note_on,70,52,240
1,note_on,70,0,240
1,note_on,69,64,0
1,note_on,69,0,120
1,note_on,70,58,0
1,note_on,70,0,120
1,note_on,69,62,0
1,note_on,69,0,120
1,note_on,65,58,0
1,note_on,65,0,120
1,note_on,70,69,0
1,note_on,70,0,120
1,note_on,72,62,0
1,note_on,72,0,120
1,note_on,70,67,0
1,note_on,70,0,120
1,note_on,65,59,0
1,note_on,65,0,120
1,note_on,72,70,0
1,note_on,72,0,120
1,note_on,74,64,0
1,note_on,74,0,120
1,note_on,72,69,0
1,note_on,72,0,120
1,note_on,65,63,0
1,note_on,65,0,120
1,note_on,74,77,0
1,note_on,74,0,120
1,note_on,75,67,0
1,note_on,75,0,120
1,note_on,74,72,0
1,note_on,74,0,120
1,note_on,65,67,0
1,note_on,65,0,120
1,note_on,75,78,0
1,note_on,75,0,120
1,note_on,75,78,120
1,note_on,75,0,120
1,note_on,72,73,360
1,note_on,72,0,120
1,note_on,75,79,120
1,note_on,75,0,240
1,note_on,74,72,0
1,note_on,74,0,120
1,note_on,72,74,120
1,note_on,72,0,120
1,note_on,70,71,120
1,note_on,70,0,120
1,note_on,69,67,120
1,note_on,69,0,120
1,note_on,65,59,0
1,note_on,65,0,120
1,note_on,76,61,0
1,note_on,76,0,120
1,note_on,77,59,0
1,note_on,77,0,120
1,note_on,70,70,0
1,note_on,70,0,120
1,note_on,65,59,0
1,note_on,65,0,120
1,note_on,76,66,0
1,note_on,76,0,120
1,note_on,77,61,0
1,note_on,77,0,120
1,note_on,72,74,0
1,note_on,72,0,120
1,note_on,65,64,0
1,note_on,65,0,120
1,note_on,76,69,0
1,note_on,76,0,120
1,note_on,77,62,0
1,note_on,77,0,120
1,note_on,74,79,0
1,note_on,74,0,120
1,note_on,65,69,0
1,note_on,65,0,120
1,note_on,76,73,0
1,note_on,76,0,120
1,note_on,77,69,0
1,note_on,77,0,120
1,note_on,75,79,0
1,note_on,75,0,120
1,note_on,75,79,120
1,note_on,75,0,120
1,note_on,72,57,360
1,note_on,74,52,57
1,note_on,72,0,3
1,note_on,74,0,57
1,note_on,72,57,3
1,note_on,72,0,60
1,note_on,74,52,0
1,note_on,74,0,60
1,note_on,75,72,0
1,note_on,75,0,240
1,note_on,74,71,0
1,note_on,74,0,120
1,note_on,72,71,120
1,note_on,72,0,120
1,note_on,70,68,120
1,note_on,70,0,120
1,note_on,69,78,120
1,note_on,69,0,120
1,note_on,77,69,0
1,note_on,77,0,120
1,note_on,72,73,0
1,note_on,72,0,120
1,note_on,69,70,0
1,note_on,69,0,120
1,note_on,65,77,0
1,note_on,65,0,120
1,note_on,60,69,0
1,note_on,60,0,120
1,note_on,57,70,0
1,note_on,57,0,120
1,note_on,53,67,0
1,note_on,53,0,120
1,note_on,53,72,960
1,note_on,58,72,0
1,note_on,62,72,0
1,note_on,65,72,0
1,note_on,65,0,720
1,note_on,53,0,0
1,note_on,58,0,0
1,note_on,62,0,0
1,note_on,67,48,0
1,note_on,67,0,120
1,note_on,65,45,0
1,note_on,65,0,120
1,note_on,63,52,0
1,note_on,63,0,120
1,note_on,62,48,120
1,note_on,62,0,120
1,note_on,60,52,120
1,note_on,60,0,120
1,note_on,58,48,120
1,note_on,58,0,120
1,note_on,58,54,120
1,note_on,58,0,240
1,note_on,67,49,0
1,note_on,67,0,230
1,note_on,58,72,10
1,note_on,67,72,0
1,note_on,67,0,720
1,note_on,58,0,0
1,note_on,65,53,0
1,note_on,65,0,240
1,note_on,69,53,0
1,note_on,69,0,240
1,note_on,70,52,0
1,note_on,70,0,230
1,note_on,70,61,10
1,note_on,70,0,240
1,note_on,60,53,0
1,note_on,60,0,480
1,note_on,62,53,0
1,note_on,62,0,240
1,note_on,70,61,0
1,note_on,70,0,240
1,note_on,60,51,0
1,note_on,60,0,480
1,note_on,62,53,0
1,note_on,62,0,240
1,note_on,65,58,0
1,note_on,65,0,480
1,note_on,63,52,0
1,note_on,63,0,60
1,note_on,65,47,0
1,note_on,65,0,60
1,note_on,63,52,0
1,note_on,63,0,60
1,note_on,65,49,0
1,note_on,65,0,60
1,note_on,63,52,0
1,note_on,63,0,40
1,note_on,65,49,0
1,note_on,65,0,40
1,note_on,63,49,0
1,note_on,63,0,40
1,note_on,62,52,0
1,note_on,62,0,60
1,note_on,63,48,0
1,note_on,63,0,60
1,note_on,62,57,0
1,note_on,62,0,120
1,note_on,62,51,120
1,note_on,62,0,240
1,note_on,63,53,0
1,note_on,63,0,240
1,note_on,65,51,0
1,note_on,65,0,240
1,note_on,66,65,0
1,note_on,66,0,240
1,note_on,67,54,0
1,note_on,67,0,480
1,note_on,65,53,0
1,note_on,65,0,120
1,note_on,63,50,0
1,note_on,63,0,120
1,note_on,62,54,0
1,note_on,62,0,240
1,note_on,60,51,0
1,note_on,60,0,240
1,note_on,62,52,0
1,note_on,62,0,240
1,note_on,63,51,0
1,note_on,63,0,240
1,note_on,67,63,0
1,note_on,67,0,240
1,note_on,65,53,0
1,note_on,65,0,480
1,note_on,63,54,0
1,note_on,63,0,120
1,note_on,62,49,0
1,note_on,62,0,120
1,note_on,60,56,0
1,note_on,60,0,240
1,note_on,58,52,0
1,note_on,58,0,240
1,note_on,60,54,0
1,note_on,60,0,240
1,note_on,62,50,0
1,note_on,62,0,240
1,note_on,65,63,0
1,note_on,65,0,240
1,note_on,63,51,0
1,note_on,63,0,480
1,note_on,60,51,0
1,note_on,60,0,240
1,note_on,63,62,0
1,note_on,63,0,240
1,note_on,62,52,0
1,note_on,62,0,480
1,note_on,58,52,0
1,note_on,58,0,240
1,note_on,57,48,0
1,note_on,58,49,120
1,note_on,57,0,24
1,note_on,59,50,96
1,note_on,58,0,24
1,note_on,60,51,96
1,note_on,59,0,24
1,note_on,61,52,96
1,note_on,60,0,24
1,note_on,62,53,96
1,note_on,61,0,24
1,note_on,63,54,96
1,note_on,62,0,24
1,note_on,64,54,96
1,note_on,63,0,24
1,note_on,65,56,96
1,note_on,64,0,24
1,note_on,65,0,456
1,note_on,65,73,480
1,note_on,70,73,0
1,note_on,74,73,0
1,note_on,77,73,0
1,note_on,77,0,720
1,note_on,65,0,0
1,note_on,70,0,0
1,note_on,74,0,0
1,note_on,79,51,0
1,note_on,79,0,120
1,note_on,77,49,0
1,note_on,77,0,120
1,note_on,75,57,0
1,note_on,75,0,120
1,note_on,74,50,120
1,note_on,74,0,120
1,note_on,72,50,120
1,note_on,72,0,120
1,note_on,70,47,120
1,note_on,70,0,120
1,note_on,70,53,120
1,note_on,70,0,240
1,note_on,79,50,0
1,note_on,79,0,230
1,note_on,70,64,10
1,note_on,79,71,0
1,note_on,79,0,720
1,note_on,70,0,0
1,note_on,77,53,0
1,note_on,77,0,240
1,note_on,81,66,0
1,note_on,81,0,240
1,note_on,82,63,0
1,note_on,82,0,480
1,note_on,72,53,0
1,note_on,72,0,240
1,note_on,74,53,0
1,note_on,74,0,240
1,note_on,82,68,0
1,note_on,82,0,480
1,note_on,72,53,0
1,note_on,72,0,240
1,note_on,74,53,0
1,note_on,74,0,240
1,note_on,82,67,0
1,note_on,82,0,120
1,note_on,77,54,120
1,note_on,77,0,480
1,note_on,76,53,0
1,note_on,76,0,240
1,note_on,75,53,0
1,note_on,75,0,240
1,note_on,74,48,0
1,note_on,74,0,120
1,note_on,74,54,120
1,note_on,74,0,240
1,note_on,75,60,0
1,note_on,75,0,240
1,note_on,77,64,0
1,note_on,77,0,240
1,note_on,79,70,0
1,note_on,79,0,720
1,note_on,81,70,0
1,note_on,81,0,120
1,note_on,83,67,0
1,note_on,83,0,120
1,note_on,84,70,0
1,note_on,84,0,120
1,note_on,86,67,0
1,note_on,86,0,120
1,note_on,87,70,0
1,note_on,87,0,120
1,note_on,86,66,0
1,note_on,86,0,120
1,note_on,84,70,0
1,note_on,84,0,120
1,note_on,86,67,0
1,note_on,86,0,120
1,note_on,82,70,0
1,note_on,82,0,120
1,note_on,84,67,0
1,note_on,84,0,120
1,note_on,81,69,0
1,note_on,81,0,120
1,note_on,82,66,0
1,note_on,82,0,120
1,note_on,79,69,0
1,note_on,79,0,120
1,note_on,81,64,0
1,note_on,81,0,120
1,note_on,77,71,0
1,note_on,77,0,120
1,note_on,79,67,0
1,note_on,79,0,120
1,note_on,75,71,0
1,note_on,75,0,120
1,note_on,77,67,0
1,note_on,77,0,120
1,note_on,74,68,0
1,note_on,74,0,120
1,note_on,75,64,0
1,note_on,75,0,120
1,note_on,77,68,0
1,note_on,77,0,120
1,note_on,79,65,0
1,note_on,79,0,120
1,note_on,81,70,0
1,note_on,81,0,120
1,note_on,82,66,0
1,note_on,82,0,120
1,note_on,81,69,0
1,note_on,81,0,120
1,note_on,82,65,0
1,note_on,82,0,120
1,note_on,84,72,0
1,note_on,84,0,120
1,note_on,82,70,0
1,note_on,82,0,120
1,note_on,81,69,0
1,note_on,81,0,120
1,note_on,79,67,0
1,note_on,79,0,120
1,note_on,81,72,0
1,note_on,81,0,120
1,note_on,79,70,0
1,note_on,79,0,120
1,note_on,77,69,0
1,note_on,77,0,120
1,note_on,75,67,0
1,note_on,75,0,120
1,note_on,74,71,0
1,note_on,74,0,480
1,note_on,72,58,0
1,note_on,69,58,0
1,note_on,72,0,60
1,note_on,74,54,0
1,note_on,74,0,60
1,note_on,72,58,0
1,note_on,72,0,60
1,note_on,74,53,0
1,note_on,74,0,60
1,note_on,72,58,0
1,note_on,72,0,40
1,note_on,74,54,0
1,note_on,74,0,40
1,note_on,72,54,0
1,note_on,72,0,40
1,note_on,70,66,0
1,note_on,70,0,60
1,note_on,72,62,0
1,note_on,72,0,60
1,note_on,69,0,0
1,note_on,70,75,0
1,note_on,70,0,480
1,note_on,75,85,0
1,note_on,75,0,240
1,note_on,72,56,0
1,note_on,72,0,120
1,note_on,69,62,120
1,note_on,69,0,120
1,note_on,69,56,120
1,note_on,69,0,120
1,note_on,75,85,120
1,note_on,75,0,240
1,note_on,72,54,0
1,note_on,72,0,120
1,note_on,69,60,120
1,note_on,69,0,120
1,note_on,69,54,120
1,note_on,69,0,120
1,note_on,70,62,120
1,note_on,70,0,120
1,note_on,72,63,120
1,note_on,72,0,120
1,note_on,74,64,120
1,note_on,74,0,120
1,note_on,75,66,120
1,note_on,75,0,120
1,note_on,76,88,120
1,note_on,76,0,240
1,note_on,77,75,0
1,note_on,77,0,240
1,note_on,76,87,0
1,note_on,76,0,240
1,note_on,77,75,0
1,note_on,77,0,240
1,note_on,87,97,0
1,note_on,75,82,0
1,note_on,75,0,240
1,note_on,87,0,0
1,note_on,84,57,0
1,note_on,72,48,0
1,note_on,72,0,120
1,note_on,84,0,0
1,note_on,81,62,120
1,note_on,69,52,0
1,note_on,69,0,120
1,note_on,81,0,0
1,note_on,81,56,120
1,note_on,69,47,0
1,note_on,69,0,120
1,note_on,81,0,0
1,note_on,87,97,120
1,note_on,75,82,0
1,note_on,75,0,240
1,note_on,87,0,0
1,note_on,84,54,0
1,note_on,72,45,0
1,note_on,72,0,120
1,note_on,84,0,0
1,note_on,81,60,120
1,note_on,69,51,0
1,note_on,69,0,120
1,note_on,81,0,0
1,note_on,81,54,120
1,note_on,69,45,0
1,note_on,69,0,120
1,note_on,81,0,0
1,note_on,82,62,120
1,note_on,70,52,0
1,note_on,70,0,120
1,note_on,82,0,0
1,note_on,84,63,120
1,note_on,72,53,0
1,note_on,72,0,120
1,note_on,84,0,0
1,note_on,86,64,120
1,note_on,74,54,0
1,note_on,74,0,120
1,note_on,86,0,0
1,note_on,87,66,120
1,note_on,75,56,0
1,note_on,75,0,120
1,note_on,87,0,0
1,note_on,88,90,120
1,note_on,76,76,0
1,note_on,76,0,240
1,note_on,88,0,0
1,note_on,89,75,0
1,note_on,77,63,0
1,note_on,77,0,240
1,note_on,89,0,0
1,note_on,88,91,0
1,note_on,76,77,0
1,note_on,76,0,240
1,note_on,88,0,0
1,note_on,89,75,0
1,note_on,77,63,0
1,note_on,77,0,240
1,note_on,89,0,0
1,note_on,67,56,0
1,note_on,79,66,0
1,note_on,79,0,960
1,note_on,67,0,0
1,note_on,57,45,0
1,note_on,69,54,0
1,note_on,69,0,960
1,note_on,57,0,0
1,note_on,75,65,0
1,note_on,87,77,0
1,note_on,87,0,960
1,note_on,75,0,0
1,note_on,74,57,0
1,note_on,86,68,0
1,note_on,86,0,960
1,note_on,74,0,0
1,note_on,86,75,0
1,note_on,84,68,120
1,note_on,86,0,24
1,note_on,87,72,96
1,note_on,84,0,24
1,note_on,86,67,96
1,note_on,87,0,24
1,note_on,89,75,96
1,note_on,86,0,24
1,note_on,87,71,96
1,note_on,89,0,24
1,note_on,86,72,96
1,note_on,87,0,24
1,note_on,84,68,96
1,note_on,86,0,24
1,note_on,82,75,96
1,note_on,84,0,24
1,note_on,82,0,456
1,note_on,81,63,0
1,note_on,81,0,480
1,note_on,82,47,240
1,note_on,82,0,240
1,note_on,81,50,0
1,note_on,81,0,240
1,note_on,82,47,0
1,note_on,82,0,240
1,note_on,80,46,240
1,note_on,80,0,240
1,note_on,79,51,0
1,note_on,79,0,240
1,note_on,80,46,0
1,note_on,80,0,240
1,note_on,79,44,240
1,note_on,79,0,240
1,note_on,78,48,0
1,note_on,78,0,240
1,note_on,79,45,0
1,note_on,79,0,240
1,note_on,79,44,240
1,note_on,79,0,240
1,note_on,91,51,0
1,note_on,91,0,240
1,note_on,91,48,0
1,note_on,91,0,120
1,note_on,91,50,360
1,note_on,91,0,240
1,note_on,77,44,0
1,note_on,77,0,240
1,note_on,77,44,0
1,note_on,77,0,120
1,note_on,77,46,360
1,note_on,77,0,240
1,note_on,86,51,0
1,note_on,86,0,240
1,note_on,86,48,0
1,note_on,86,0,120
1,note_on,86,49,360
1,note_on,86,0,240
1,note_on,75,45,0
1,note_on,75,0,240
1,note_on,75,45,0
1,note_on,75,0,120
1,note_on,75,44,360
1,note_on,75,0,240
1,note_on,84,50,0
1,note_on,84,0,240
1,note_on,84,47,0
1,note_on,84,0,120
1,note_on,84,48,360
1,note_on,84,0,240
1,note_on,74,44,0
1,note_on,74,0,240
1,note_on,74,44,0
1,note_on,74,0,120
1,note_on,74,44,360
1,note_on,74,0,240
1,note_on,82,49,0
1,note_on,82,0,240
1,note_on,82,46,0
1,note_on,82,0,120
1,note_on,82,54,120
1,note_on,82,0,240
1,note_on,72,44,0
1,note_on,72,0,120
1,note_on,82,63,600
1,note_on,82,0,240
1,note_on,74,52,0
1,note_on,74,0,120
1,note_on,82,69,600
1,note_on,82,0,240
1,note_on,75,54,0
1,note_on,75,0,120
1,note_on,82,81,600
1,note_on,82,0,240
1,note_on,76,67,0
1,note_on,76,0,120
1,note_on,82,89,600
1,note_on,82,0,240
1,note_on,77,83,0
1,note_on,77,0,120
1,note_on,82,89,120
1,note_on,82,0,240
1,note_on,78,83,0
1,note_on,78,0,120
1,note_on,82,89,120
1,note_on,82,0,240
1,note_on,79,85,0
1,note_on,79,0,240
1,note_on,87,89,0
1,note_on,87,0,240
1,note_on,81,85,0
1,note_on,81,0,240
1,note_on,86,82,0
1,note_on,86,0,48
1,note_on,87,81,0
1,note_on,87,0,48
1,note_on,86,85,0
1,note_on,86,0,48
1,note_on,87,78,0
1,note_on,87,0,48
1,note_on,86,78,0
1,note_on,86,0,48
1,note_on,89,94,0
1,note_on,89,0,240
1,note_on,82,81,0
1,note_on,82,0,48
1,note_on,84,76,0
1,note_on,84,0,48
1,note_on,82,81,0
1,note_on,82,0,48
1,note_on,84,75,0
1,note_on,84,0,48
1,note_on,82,75,0
1,note_on,82,0,48
1,note_on,86,92,0
1,note_on,86,0,240
1,note_on,79,75,0
1,note_on,79,0,48
1,note_on,81,69,0
1,note_on,81,0,48
1,note_on,79,75,0
1,note_on,79,0,48
1,note_on,81,71,0
1,note_on,81,0,48
1,note_on,79,71,4
1,note_on,79,0,44
1,note_on,82,88,0
1,note_on,82,0,240
1,note_on,72,71,0
1,note_on,72,0,48
1,note_on,74,66,0
1,note_on,74,0,48
1,note_on,72,71,0
1,note_on,72,0,48
1,note_on,74,67,0
1,note_on,74,0,48
1,note_on,72,67,0
1,note_on,72,0,48
1,note_on,75,79,0
1,note_on,75,0,240
1,note_on,65,74,0
1,note_on,65,0,60
1,note_on,77,76,60
1,note_on,79,78,120
1,note_on,77,0,24
1,note_on,77,76,96
1,note_on,79,0,24
1,note_on,75,76,96
1,note_on,77,0,24
1,note_on,74,71,96
1,note_on,75,0,24
1,note_on,72,72,96
1,note_on,74,0,24
1,note_on,70,70,96
1,note_on,72,0,24
1,note_on,72,54,96
1,note_on,70,0,24
1,note_on,72,0,36
1,note_on,74,50,0
1,note_on,74,0,60
1,note_on,72,54,0
1,note_on,72,0,60
1,note_on,74,49,0
1,note_on,74,0,60
1,note_on,72,54,0
1,note_on,72,0,60
1,note_on,74,49,0
1,note_on,74,0,60
1,note_on,72,54,0
1,note_on,72,0,60
1,note_on,74,49,0
1,note_on,74,0,60
1,note_on,72,54,0
1,note_on,72,0,60
1,note_on,74,49,0
1,note_on,74,0,60
1,note_on,72,54,0
1,note_on,72,0,60
1,note_on,74,51,0
1,note_on,74,0,60
1,note_on,72,54,0
1,note_on,72,0,40
1,note_on,74,50,0
1,note_on,74,0,40
1,note_on,72,50,0
1,note_on,72,0,40
1,note_on,70,66,0
1,note_on,70,0,60
1,note_on,72,62,0
1,note_on,72,0,60
1,note_on,70,70,0
1,note_on,70,0,120
1,note_on,58,47,120
1,note_on,58,0,120
1,note_on,62,45,0
1,note_on,62,0,120
1,note_on,60,47,0
1,note_on,60,0,120
1,note_on,63,45,0
1,note_on,63,0,120
1,note_on,62,47,0
1,note_on,62,0,120
1,note_on,65,45,0
1,note_on,65,0,120
1,note_on,63,48,0
1,note_on,63,0,120
1,note_on,58,52,120
1,note_on,58,0,120
1,note_on,62,48,0
1,note_on,62,0,120
1,note_on,60,52,0
1,note_on,60,0,120
1,note_on,63,48,0
1,note_on,63,0,120
1,note_on,62,52,0
1,note_on,62,0,120
1,note_on,65,48,0
1,note_on,65,0,120
1,note_on,63,52,0
1,note_on,63,0,120
1,note_on,58,52,120
1,note_on,58,0,120
1,note_on,62,55,0
1,note_on,62,0,120
1,note_on,60,57,0
1,note_on,60,0,120
1,note_on,63,58,0
1,note_on,63,0,120
1,note_on,62,59,0
1,note_on,62,0,120
1,note_on,65,62,0
1,note_on,65,0,120
1,note_on,63,63,0
1,note_on,63,0,120
1,note_on,67,66,0
1,note_on,67,0,120
1,note_on,65,67,0
1,note_on,65,0,120
1,note_on,68,69,0
1,note_on,68,0,120
1,note_on,67,70,0
1,note_on,67,0,120
1,note_on,70,71,0
1,note_on,70,0,120
1,note_on,69,73,0
1,note_on,69,0,120
1,note_on,72,75,0
1,note_on,72,0,120
1,note_on,70,77,0
1,note_on,70,0,120
1,note_on,72,79,0
1,note_on,72,0,120
1,note_on,74,82,0
1,note_on,74,0,120
1,note_on,72,82,0
1,note_on,72,0,120
1,note_on,70,80,0
1,note_on,70,0,120
1,note_on,68,79,0
1,note_on,68,0,120
1,note_on,67,78,0
1,note_on,67,0,120
1,note_on,66,77,0
1,note_on,66,0,120
1,note_on,67,78,0
1,note_on,67,0,120
1,note_on,72,79,0
1,note_on,72,0,120
1,note_on,75,80,0
1,note_on,75,0,120
1,note_on,74,79,0
1,note_on,74,0,120
1,note_on,72,79,0
1,note_on,72,0,120
1,note_on,70,78,0
1,note_on,70,0,120
1,note_on,69,75,0
1,note_on,69,0,120
1,note_on,67,74,0
1,note_on,67,0,120
1,note_on,65,75,0
1,note_on,65,0,120
1,note_on,70,79,0
1,note_on,70,0,120
1,note_on,74,82,0
1,note_on,74,0,120
1,note_on,77,88,0
1,note_on,77,0,120
1,note_on,82,94,0
1,note_on,82,0,120
1,note_on,70,64,120
1,note_on,74,64,0
1,note_on,74,0,120
1,note_on,70,0,0
1,note_on,74,70,120
1,note_on,77,70,0
1,note_on,77,0,240
1,note_on,74,0,0
1,note_on,72,66,0
1,note_on,75,66,0
1,note_on,75,0,120
1,note_on,72,0,0
1,note_on,70,67,120
1,note_on,74,67,0
1,note_on,74,0,120
1,note_on,70,0,0
1,note_on,69,67,120
1,note_on,72,67,0
1,note_on,72,0,120
1,note_on,69,0,0
1,note_on,70,67,120
1,note_on,70,0,120
1,note_on,70,47,120
1,note_on,70,0,120
1,note_on,74,45,0
1,note_on,74,0,120
1,note_on,72,47,0
1,note_on,72,0,120
1,note_on,75,45,0
1,note_on,75,0,120
1,note_on,74,47,0
1,note_on,74,0,120
1,note_on,77,45,0
1,note_on,77,0,120
1,note_on,75,48,0
1,note_on,75,0,120
1,note_on,82,62,120
1,note_on,82,0,120
1,note_on,86,58,0
1,note_on,86,0,120
1,note_on,84,62,0
1,note_on,84,0,120
1,note_on,87,59,0
1,note_on,87,0,120
1,note_on,86,62,0
1,note_on,86,0,120
1,note_on,89,58,0
1,note_on,89,0,120
1,note_on,87,68,0
1,note_on,87,0,120
1,note_on,70,55,120
1,note_on,70,0,120
1,note_on,74,56,0
1,note_on,74,0,120
1,note_on,72,58,0
1,note_on,72,0,120
1,note_on,75,59,0
1,note_on,75,0,120
1,note_on,74,61,0
1,note_on,74,0,120
1,note_on,77,63,0
1,note_on,77,0,120
1,note_on,75,64,0
1,note_on,75,0,120
1,note_on,70,67,0
1,note_on,70,0,120
1,note_on,77,68,0
1,note_on,77,0,120
1,note_on,70,69,0
1,note_on,70,0,120
1,note_on,79,70,0
1,note_on,79,0,120
1,note_on,70,72,0
1,note_on,70,0,120
1,note_on,81,74,0
1,note_on,81,0,120
1,note_on,70,75,0
1,note_on,70,0,120
1,note_on,82,78,0
1,note_on,82,0,120
1,note_on,84,78,0
1,note_on,84,0,120
1,note_on,86,77,0
1,note_on,86,0,120
1,note_on,84,75,0
1,note_on,84,0,120
1,note_on,82,74,0
1,note_on,82,0,120
1,note_on,80,73,0
1,note_on,80,0,120
1,note_on,79,72,0
1,note_on,79,0,120
1,note_on,78,71,0
1,note_on,78,0,120
1,note_on,79,79,0
1,note_on,79,0,120
1,note_on,77,79,0
1,note_on,77,0,120
1,note_on,75,78,0
1,note_on,75,0,120
1,note_on,74,77,0
1,note_on,74,0,120
1,note_on,72,75,0
1,note_on,72,0,120
1,note_on,70,74,0
1,note_on,70,0,120
1,note_on,69,73,0
1,note_on,69,0,120
1,note_on,67,73,0
1,note_on,67,0,120
1,note_on,65,82,0
1,note_on,65,0,240
1,note_on,89,82,0
1,note_on,89,0,120
1,note_on,89,82,120
1,note_on,89,0,120
1,note_on,89,82,120
1,note_on,89,0,120
1,note_on,89,81,120
1,note_on,89,0,120
1,note_on,86,76,0
1,note_on,86,0,120
1,note_on,82,71,0
1,note_on,82,0,120
1,note_on,77,69,0
1,note_on,77,0,120
1,note_on,82,81,0
1,note_on,82,0,120
1,note_on,77,75,0
1,note_on,77,0,120
1,note_on,74,71,0
1,note_on,74,0,120
1,note_on,70,69,0
1,note_on,70,0,120
1,note_on,72,51,0
1,note_on,72,0,80
1,note_on,74,46,0
1,note_on,74,0,80
1,note_on,72,51,0
1,note_on,72,0,80
1,note_on,74,46,0
1,note_on,74,0,80
1,note_on,72,51,0
1,note_on,72,0,80
1,note_on,74,46,0
1,note_on,74,0,80
1,note_on,72,51,0
1,note_on,72,0,80
1,note_on,74,46,0
1,note_on,74,0,80
1,note_on,72,51,0
1,note_on,72,0,80
1,note_on,74,46,0
1,note_on,74,0,80
1,note_on,72,51,0
1,note_on,72,0,80
1,note_on,74,46,0
1,note_on,74,0,80
1,note_on,72,51,0
1,note_on,72,0,80
1,note_on,74,46,0
1,note_on,74,0,80
1,note_on,72,51,0
1,note_on,72,0,80
1,note_on,74,48,0
1,note_on,74,0,80
1,note_on,72,51,0
1,note_on,72,0,80
1,note_on,74,47,0
1,note_on,74,0,80
1,note_on,72,51,0
1,note_on,72,0,60
1,note_on,74,48,0
1,note_on,74,0,60
1,note_on,72,51,0
1,note_on,72,0,60
1,note_on,74,47,0
1,note_on,74,0,60
1,note_on,72,51,0
1,note_on,72,0,40
1,note_on,74,48,0
1,note_on,74,0,40
1,note_on,72,48,0
1,note_on,72,0,40
1,note_on,70,62,0
1,note_on,70,0,60
1,note_on,72,58,0
1,note_on,72,0,60
1,note_on,70,69,0
1,note_on,70,0,236
1,note_on,82,54,4
1,note_on,82,0,240
1,note_on,82,58,240
1,note_on,82,0,240
1,note_on,81,56,0
1,note_on,81,0,240
1,note_on,82,61,0
1,note_on,82,0,240
1,note_on,84,68,0
1,note_on,84,0,240
1,note_on,86,72,0
1,note_on,86,0,240
1,note_on,87,79,0
1,note_on,87,0,120
1,note_on,86,73,0
1,note_on,86,0,120
1,note_on,87,76,0
1,note_on,87,0,120
1,note_on,86,70,0
1,note_on,86,0,120
1,note_on,87,75,0
1,note_on,87,0,120
1,note_on,85,67,0
1,note_on,85,0,120
1,note_on,84,69,0
1,note_on,84,0,120
1,note_on,82,65,0
1,note_on,82,0,120
1,note_on,81,67,0
1,note_on,81,0,120
1,note_on,82,70,0
1,note_on,82,0,120
1,note_on,84,72,0
1,note_on,84,0,120
1,note_on,82,67,0
1,note_on,82,0,120
1,note_on,81,69,0
1,note_on,81,0,120
1,note_on,79,66,0
1,note_on,79,0,120
1,note_on,77,66,0
1,note_on,77,0,120
1,note_on,75,65,0
1,note_on,75,0,120
1,note_on,74,63,0
1,note_on,74,0,120
1,note_on,74,49,120
1,note_on,74,0,120
1,note_on,70,53,360
1,note_on,70,0,240
1,note_on,69,49,0
1,note_on,69,0,240
1,note_on,70,49,0
1,note_on,70,0,240
1,note_on,72,49,0
1,note_on,72,0,240
1,note_on,74,49,0
1,note_on,74,0,240
1,note_on,75,52,0
1,note_on,75,0,120
1,note_on,77,52,120
1,note_on,77,0,60
1,note_on,75,49,0
1,note_on,75,0,60
1,note_on,74,52,0
1,note_on,74,0,60
1,note_on,75,48,0
1,note_on,75,0,60
1,note_on,77,54,0
1,note_on,77,0,240
1,note_on,79,61,0
1,note_on,79,0,230
1,note_on,75,49,10
1,note_on,79,49,0
1,note_on,79,0,240
1,note_on,75,0,0
1,note_on,74,42,0
1,note_on,77,42,0
1,note_on,77,0,240
1,note_on,74,0,0
1,note_on,63,30,240
1,note_on,69,30,0
1,note_on,69,0,240
1,note_on,63,0,0
1,note_on,63,45,0
1,note_on,72,45,0
1,note_on,72,0,960
1,note_on,63,0,0
1,note_on,62,32,0
1,note_on,70,32,0
1,note_on,70,0,360
1,note_on,62,0,0
2,note_on,58,37,720
2,note_on,58,0,240
2,note_on,62,37,0
2,note_on,62,0,240
2,note_on,65,33,0
2,note_on,65,0,240
2,note_on,62,36,0
2,note_on,62,0,240
2,note_on,58,33,0
2,note_on,58,0,240
2,note_on,62,41,0
2,note_on,62,0,240
2,note_on,67,38,0
2,note_on,67,0,240
2,note_on,60,34,240
2,note_on,60,0,240
2,note_on,63,39,0
2,note_on,63,0,240
2,note_on,67,36,0
2,note_on,67,0,240
2,note_on,63,44,0
2,note_on,63,0,240
2,note_on,60,37,0
2,note_on,60,0,240
2,note_on,63,38,0
2,note_on,63,0,240
2,note_on,67,34,0
2,note_on,67,0,240
2,note_on,53,35,240
2,note_on,53,0,240
2,note_on,60,35,0
2,note_on,60,0,240
2,note_on,63,34,0
2,note_on,63,0,240
2,note_on,60,47,0
2,note_on,60,0,240
2,note_on,53,36,0
2,note_on,53,0,240
2,note_on,60,43,0
2,note_on,60,0,240
2,note_on,63,36,0
2,note_on,63,0,240
2,note_on,58,42,240
2,note_on,58,0,240
2,note_on,62,42,0
2,note_on,62,0,240
2,note_on,65,36,0
2,note_on,65,0,240
2,note_on,62,45,0
2,note_on,62,0,240
2,note_on,58,42,0
2,note_on,58,0,240
2,note_on,62,42,0
2,note_on,62,0,240
2,note_on,65,39,0
2,note_on,65,0,240
2,note_on,63,45,0
2,note_on,63,0,240
2,note_on,67,37,0
2,note_on,67,0,240
2,note_on,62,40,0
2,note_on,62,0,240
2,note_on,65,35,0
2,note_on,65,0,240
2,note_on,63,45,0
2,note_on,63,0,240
2,note_on,67,35,0
2,note_on,67,0,240
2,note_on,60,38,0
2,note_on,60,0,240
2,note_on,63,32,0
2,note_on,63,0,240
2,note_on,62,42,0
2,note_on,65,42,0
2,note_on,65,0,480
2,note_on,62,0,0
2,note_on,63,47,1440
2,note_on,63,0,240
2,note_on,67,36,0
2,note_on,67,0,240
2,note_on,62,40,0
2,note_on,62,0,240
2,note_on,65,33,0
2,note_on,65,0,240
2,note_on,63,47,0
2,note_on,63,0,240
2,note_on,67,37,0
2,note_on,67,0,240
2,note_on,60,39,0
2,note_on,60,0,240
2,note_on,63,32,0
2,note_on,63,0,240
2,note_on,65,47,0
2,note_on,62,47,0
2,note_on,62,0,480
2,note_on,65,0,0
2,note_on,57,61,1440
2,note_on,57,0,480
2,note_on,58,55,0
2,note_on,58,0,480
2,note_on,51,63,0
2,note_on,51,0,480
2,note_on,53,57,0
2,note_on,53,0,480
2,note_on,46,52,240
2,note_on,46,0,120
2,note_on,50,55,120
2,note_on,50,0,120
2,note_on,53,50,120
2,note_on,53,0,120
2,note_on,58,61,120
2,note_on,58,0,480
2,note_on,46,34,720
2,note_on,46,0,240
2,note_on,50,37,0
2,note_on,50,0,240
2,note_on,53,35,0
2,note_on,53,0,240
2,note_on,50,43,0
2,note_on,50,0,240
2,note_on,46,39,0
2,note_on,46,0,240
2,note_on,50,39,0
2,note_on,50,0,240
2,note_on,55,35,0
2,note_on,55,0,240
2,note_on,48,36,240
2,note_on,48,0,240
2,note_on,55,39,0
2,note_on,55,0,240
2,note_on,58,35,0
2,note_on,58,0,240
2,note_on,55,42,0
2,note_on,55,0,240
2,note_on,48,34,0
2,note_on,48,0,240
2,note_on,55,38,0
2,note_on,55,0,240
2,note_on,58,34,0
2,note_on,58,0,240
2,note_on,52,39,240
2,note_on,52,0,240
2,note_on,55,43,0
2,note_on,55,0,240
2,note_on,60,46,0
2,note_on,60,0,240
2,note_on,55,49,0
2,note_on,55,0,240
2,note_on,52,47,0
2,note_on,52,0,240
2,note_on,55,50,0
2,note_on,55,0,240
2,note_on,60,54,0
2,note_on,60,0,240
2,note_on,53,42,240
2,note_on,53,0,240
2,note_on,57,41,0
2,note_on,57,0,240
2,note_on,60,34,0
2,note_on,60,0,240
2,note_on,57,37,0
2,note_on,57,0,240
2,note_on,53,34,0
2,note_on,53,0,240
2,note_on,57,36,0
2,note_on,57,0,240
2,note_on,60,32,0
2,note_on,60,0,240
2,note_on,58,47,0
2,note_on,58,0,240
2,note_on,60,32,0
2,note_on,60,0,240
2,note_on,58,37,0
2,note_on,58,0,240
2,note_on,60,31,0
2,note_on,60,0,240
2,note_on,57,50,0
2,note_on,57,0,240
2,note_on,60,41,0
2,note_on,60,0,240
2,note_on,57,44,0
2,note_on,57,0,240
2,note_on,60,41,0
2,note_on,60,0,240
2,note_on,58,49,0
2,note_on,58,0,240
2,note_on,60,36,0
2,note_on,60,0,240
2,note_on,58,42,0
2,note_on,58,0,240
2,note_on,60,36,0
2,note_on,60,0,240
2,note_on,57,53,0
2,note_on,57,0,240
2,note_on,60,45,0
2,note_on,60,0,240
2,note_on,57,46,0
2,note_on,57,0,240
2,note_on,60,44,0
2,note_on,60,0,240
2,note_on,58,51,0
2,note_on,58,0,240
2,note_on,62,46,0
2,note_on,62,0,240
2,note_on,58,51,0
2,note_on,58,0,240
2,note_on,62,46,0
2,note_on,62,0,240
2,note_on,59,50,0
2,note_on,59,0,240
2,note_on,62,46,0
2,note_on,62,0,240
2,note_on,59,52,0
2,note_on,59,0,240
2,note_on,62,48,0
2,note_on,62,0,240
2,note_on,60,59,0
2,note_on,60,0,480
2,note_on,62,61,0
2,note_on,62,0,480
2,note_on,64,63,0
2,note_on,64,0,480
2,note_on,65,65,0
2,note_on,65,0,480
2,note_on,67,65,0
2,note_on,67,0,240
2,note_on,72,53,0
2,note_on,72,0,240
2,note_on,64,60,0
2,note_on,64,0,240
2,note_on,72,53,0
2,note_on,72,0,240
2,note_on,65,59,0
2,note_on,65,0,240
2,note_on,72,50,0
2,note_on,72,0,240
2,note_on,62,56,0
2,note_on,62,0,240
2,note_on,72,52,0
2,note_on,72,0,240
2,note_on,60,60,0
2,note_on,60,0,480
2,note_on,62,62,0
2,note_on,62,0,480
2,note_on,64,65,0
2,note_on,64,0,480
2,note_on,65,68,0
2,note_on,65,0,480
2,note_on,67,66,0
2,note_on,67,0,120
2,note_on,72,44,0
2,note_on,72,0,120
2,note_on,71,47,0
2,note_on,71,0,120
2,note_on,72,44,0
2,note_on,72,0,120
2,note_on,64,57,0
2,note_on,64,0,120
2,note_on,72,45,0
2,note_on,72,0,120
2,note_on,71,48,0
2,note_on,71,0,120
2,note_on,72,44,0
2,note_on,72,0,120
2,note_on,65,57,0
2,note_on,65,0,120
2,note_on,72,44,0
2,note_on,72,0,120
2,note_on,71,46,0
2,note_on,71,0,120
2,note_on,72,44,0
2,note_on,72,0,120
2,note_on,62,56,0
2,note_on,62,0,120
2,note_on,71,45,0
2,note_on,71,0,120
2,note_on,69,45,0
2,note_on,69,0,120
2,note_on,71,43,0
2,note_on,71,0,120
2,note_on,72,56,0
2,note_on,60,56,0
2,note_on,60,0,475
2,note_on,72,0,0
2,note_on,48,73,485
2,note_on,36,73,0
2,note_on,36,0,240
2,note_on,48,0,0
2,note_on,41,66,720
2,note_on,53,66,0
2,note_on,53,0,960
2,note_on,41,0,0
2,note_on,58,68,1440
2,note_on,46,68,0
2,note_on,46,0,960
2,note_on,58,0,0
2,note_on,57,44,0
2,note_on,57,0,480
2,note_on,59,38,0
2,note_on,62,38,0
2,note_on,62,0,480
2,note_on,59,0,0
2,note_on,60,38,0
2,note_on,60,0,480
2,note_on,62,38,0
2,note_on,59,38,0
2,note_on,59,0,480
2,note_on,62,0,0
2,note_on,60,40,0
2,note_on,60,0,480
2,note_on,62,39,0
2,note_on,62,0,480
2,note_on,64,35,0
2,note_on,64,0,480
2,note_on,65,35,0
2,note_on,65,0,480
2,note_on,46,45,720
2,note_on,46,0,240
2,note_on,50,46,0
2,note_on,50,0,240
2,note_on,55,45,0
2,note_on,55,0,240
2,note_on,58,52,0
2,note_on,58,0,480
2,note_on,45,44,720
2,note_on,45,0,240
2,note_on,48,44,0
2,note_on,48,0,240
2,note_on,53,42,0
2,note_on,53,0,240
2,note_on,57,52,0
2,note_on,57,0,480
2,note_on,55,44,480
2,note_on,55,0,480
2,note_on,52,41,0
2,note_on,52,0,480
2,note_on,53,43,0
2,note_on,53,0,480
2,note_on,50,42,0
2,note_on,50,0,480
2,note_on,48,44,0
2,note_on,48,0,480
2,note_on,48,53,480
2,note_on,48,0,120
2,note_on,50,49,0
2,note_on,50,0,120
2,note_on,46,54,0
2,note_on,46,0,120
2,note_on,48,49,0
2,note_on,48,0,120
2,note_on,45,54,0
2,note_on,45,0,120
2,note_on,46,49,0
2,note_on,46,0,120
2,note_on,43,56,0
2,note_on,43,0,120
2,note_on,45,49,0
2,note_on,45,0,120
2,note_on,41,66,0
2,note_on,41,0,480
2,note_on,53,46,0
2,note_on,53,0,480
2,note_on,46,59,1440
2,note_on,58,59,0
2,note_on,58,0,960
2,note_on,46,0,0
2,note_on,57,43,0
2,note_on,57,0,480
2,note_on,59,43,0
2,note_on,62,43,0
2,note_on,62,0,480
2,note_on,59,0,0
2,note_on,60,43,0
2,note_on,60,0,480
2,note_on,62,43,0
2,note_on,59,43,0
2,note_on,59,0,480
2,note_on,62,0,0
2,note_on,60,43,0
2,note_on,60,0,480
2,note_on,65,43,0
2,note_on,62,43,0
2,note_on,62,0,480
2,note_on,65,0,0
2,note_on,67,43,0
2,note_on,64,43,0
2,note_on,64,0,480
2,note_on,67,0,0
2,note_on,65,46,0
2,note_on,65,0,480
2,note_on,50,54,720
2,note_on,50,0,240
2,note_on,62,61,0
2,note_on,62,0,120
2,note_on,60,53,120
2,note_on,60,0,120
2,note_on,58,60,120
2,note_on,58,0,120
2,note_on,46,53,120
2,note_on,46,0,240
2,note_on,58,61,0
2,note_on,58,0,120
2,note_on,57,53,120
2,note_on,57,0,120
2,note_on,55,57,120
2,note_on,55,0,240
2,note_on,53,53,0
2,note_on,53,0,240
2,note_on,52,53,0
2,note_on,52,0,240
2,note_on,48,53,0
2,note_on,48,0,240
2,note_on,53,60,0
2,note_on,53,0,480
2,note_on,45,56,0
2,note_on,45,0,480
2,note_on,46,59,0
2,note_on,46,0,480
2,note_on,58,53,0
2,note_on,58,0,480
2,note_on,60,54,0
2,note_on,60,0,480
2,note_on,48,53,0
2,note_on,48,0,480
2,note_on,53,53,0
2,note_on,53,0,120
2,note_on,60,46,0
2,note_on,60,0,120
2,note_on,59,49,0
2,note_on,59,0,120
2,note_on,60,46,0
2,note_on,60,0,120
2,note_on,62,53,0
2,note_on,62,0,120
2,note_on,60,46,0
2,note_on,60,0,120
2,note_on,59,49,0
2,note_on,59,0,120
2,note_on,60,46,0
2,note_on,60,0,120
2,note_on,58,53,0
2,note_on,58,0,120
2,note_on,60,50,0
2,note_on,60,0,120
2,note_on,57,53,0
2,note_on,57,0,120
2,note_on,60,49,0
2,note_on,60,0,120
2,note_on,55,53,0
2,note_on,55,0,120
2,note_on,60,50,0
2,note_on,60,0,120
2,note_on,53,53,0
2,note_on,53,0,120
2,note_on,60,50,0
2,note_on,60,0,120
2,note_on,52,48,0
2,note_on,52,0,120
2,note_on,60,42,0
2,note_on,60,0,120
2,note_on,55,42,0
2,note_on,55,0,120
2,note_on,60,40,0
2,note_on,60,0,120
2,note_on,58,48,0
2,note_on,58,0,120
2,note_on,60,42,0
2,note_on,60,0,120
2,note_on,58,42,0
2,note_on,58,0,120
2,note_on,60,41,0
2,note_on,60,0,120
2,note_on,52,47,0
2,note_on,52,0,120
2,note_on,60,43,0
2,note_on,60,0,120
2,note_on,55,43,0
2,note_on,55,0,120
2,note_on,60,42,0
2,note_on,60,0,120
2,note_on,58,48,0
2,note_on,58,0,120
2,note_on,60,42,0
2,note_on,60,0,120
2,note_on,58,42,0
2,note_on,58,0,120
2,note_on,60,42,0
2,note_on,60,0,120
2,note_on,57,44,0
2,note_on,57,0,120
2,note_on,60,45,0
2,note_on,60,0,120
2,note_on,52,45,0
2,note_on,52,0,120
2,note_on,60,45,0
2,note_on,60,0,120
2,note_on,53,46,0
2,note_on,53,0,120
2,note_on,60,47,0
2,note_on,60,0,120
2,note_on,55,48,0
2,note_on,55,0,120
2,note_on,60,49,0
2,note_on,60,0,120
2,note_on,56,53,0
2,note_on,56,0,120
2,note_on,60,48,0
2,note_on,60,0,120
2,note_on,57,53,0
2,note_on,57,0,120
2,note_on,60,46,0
2,note_on,60,0,120
2,note_on,56,53,0
2,note_on,56,0,120
2,note_on,60,46,0
2,note_on,60,0,120
2,note_on,57,53,0
2,note_on,57,0,120
2,note_on,60,47,0
2,note_on,60,0,120
2,note_on,52,48,0
2,note_on,52,0,120
2,note_on,60,38,0
2,note_on,60,0,120
2,note_on,55,42,0
2,note_on,55,0,120
2,note_on,60,39,0
2,note_on,60,0,120
2,note_on,58,48,0
2,note_on,58,0,120
2,note_on,60,39,0
2,note_on,60,0,120
2,note_on,58,42,0
2,note_on,58,0,120
2,note_on,60,40,0
2,note_on,60,0,120
2,note_on,52,47,0
2,note_on,52,0,120
2,note_on,60,41,0
2,note_on,60,0,120
2,note_on,55,43,0
2,note_on,55,0,120
2,note_on,60,40,0
2,note_on,60,0,120
2,note_on,58,48,0
2,note_on,58,0,120
2,note_on,60,38,0
2,note_on,60,0,120
2,note_on,58,42,0
2,note_on,58,0,120
2,note_on,60,40,0
2,note_on,60,0,120
2,note_on,57,44,0
2,note_on,57,0,120
2,note_on,60,43,0
2,note_on,60,0,120
2,note_on,52,45,0
2,note_on,52,0,120
2,note_on,60,45,0
2,note_on,60,0,120
2,note_on,53,46,0
2,note_on,53,0,120
2,note_on,60,45,0
2,note_on,60,0,120
2,note_on,55,48,0
2,note_on,55,0,120
2,note_on,60,47,0
2,note_on,60,0,120
2,note_on,56,53,0
2,note_on,56,0,120
2,note_on,60,48,0
2,note_on,60,0,120
2,note_on,57,53,0
2,note_on,57,0,120
2,note_on,60,46,0
2,note_on,60,0,120
2,note_on,56,53,0
2,note_on,56,0,120
2,note_on,60,46,0
2,note_on,60,0,120
2,note_on,57,53,0
2,note_on,57,0,120
2,note_on,60,47,0
2,note_on,60,0,120
2,note_on,58,36,240
2,note_on,58,0,240
2,note_on,57,38,0
2,note_on,57,0,240
2,note_on,58,36,0
2,note_on,58,0,240
2,note_on,60,34,240
2,note_on,60,0,240
2,note_on,59,38,0
2,note_on,59,0,240
2,note_on,60,33,0
2,note_on,60,0,240
2,note_on,61,34,240
2,note_on,61,0,240
2,note_on,59,36,0
2,note_on,59,0,240
2,note_on,61,34,0
2,note_on,61,0,240
2,note_on,62,38,240
2,note_on,62,0,240
2,note_on,61,40,0
2,note_on,61,0,240
2,note_on,62,38,0
2,note_on,62,0,240
2,note_on,58,54,480
2,note_on,67,54,0
2,note_on,67,0,480
2,note_on,58,0,0
2,note_on,60,54,0
2,note_on,69,54,0
2,note_on,69,0,480
2,note_on,70,45,0
2,note_on,70,0,480
2,note_on,60,0,0
2,note_on,69,40,0
2,note_on,65,34,0
2,note_on,65,0,960
2,note_on,69,0,0
2,note_on,69,36,0
2,note_on,65,30,0
2,note_on,65,0,960
2,note_on,69,0,0
2,note_on,54,30,0
2,note_on,57,30,0
2,note_on,60,36,0
2,note_on,60,0,960
2,note_on,57,0,0
2,note_on,54,0,0
2,note_on,55,30,0
2,note_on,58,36,0
2,note_on,58,0,960
2,note_on,55,0,0
2,note_on,52,29,0
2,note_on,58,35,0
2,note_on,55,29,0
2,note_on,55,0,960
2,note_on,58,0,0
2,note_on,52,0,0
2,note_on,57,35,0
2,note_on,53,29,0
2,note_on,53,0,960
2,note_on,57,0,0
2,note_on,55,32,480
2,note_on,47,32,0
2,note_on,47,0,480
2,note_on,55,0,0
2,note_on,57,36,0
2,note_on,48,36,0
2,note_on,57,0,480
2,note_on,58,35,0
2,note_on,58,0,480
2,note_on,48,0,0
2,note_on,57,43,0
2,note_on,53,43,0
2,note_on,53,0,120
2,note_on,57,0,0
2,note_on,64,35,360
2,note_on,64,0,240
2,note_on,63,35,0
2,note_on,63,0,240
2,note_on,62,43,0
2,note_on,53,43,0
2,note_on,53,0,120
2,note_on,62,0,0
2,note_on,64,35,360
2,note_on,64,0,240
2,note_on,63,35,0
2,note_on,63,0,240
2,note_on,62,42,0
2,note_on,53,42,0
2,note_on,53,0,120
2,note_on,62,0,0
2,note_on,64,43,360
2,note_on,64,0,240
2,note_on,63,43,0
2,note_on,63,0,240
2,note_on,62,47,0
2,note_on,62,0,240
2,note_on,57,44,0
2,note_on,57,0,240
2,note_on,58,46,0
2,note_on,58,0,240
2,note_on,55,44,0
2,note_on,55,0,240
2,note_on,57,52,0
2,note_on,57,0,480
2,note_on,58,49,480
2,note_on,58,0,480
2,note_on,48,48,480
2,note_on,48,0,240
2,note_on,53,44,0
2,note_on,53,0,240
2,note_on,57,44,0
2,note_on,57,0,120
2,note_on,53,41,120
2,note_on,53,0,240
2,note_on,48,49,0
2,note_on,48,0,240
2,note_on,55,43,0
2,note_on,55,0,120
2,note_on,58,45,120
2,note_on,58,0,120
2,note_on,55,43,120
2,note_on,55,0,120
2,note_on,57,51,120
2,note_on,53,51,0
2,note_on,53,0,120
2,note_on,57,0,0
2,note_on,65,35,120
2,note_on,65,0,240
2,note_on,64,35,0
2,note_on,64,0,240
2,note_on,63,32,0
2,note_on,63,0,240
2,note_on,53,43,0
2,note_on,62,43,0
2,note_on,62,0,120
2,note_on,53,0,0
2,note_on,65,32,120
2,note_on,65,0,240
2,note_on,64,35,0
2,note_on,64,0,240
2,note_on,63,33,0
2,note_on,63,0,240
2,note_on,53,42,0
2,note_on,62,42,0
2,note_on,62,0,120
2,note_on,53,0,0
2,note_on,65,35,120
2,note_on,65,0,240
2,note_on,64,43,0
2,note_on,64,0,240
2,note_on,63,43,0
2,note_on,63,0,240
2,note_on,62,47,0
2,note_on,62,0,240
2,note_on,57,44,0
2,note_on,57,0,240
2,note_on,58,46,0
2,note_on,58,0,240
2,note_on,55,44,0
2,note_on,55,0,240
2,note_on,57,62,0
2,note_on,45,62,0
2,note_on,45,0,480
2,note_on,57,0,0
2,note_on,46,63,480
2,note_on,58,63,0
2,note_on,58,0,480
2,note_on,46,0,0
2,note_on,48,48,480
2,note_on,48,0,120
2,note_on,57,40,0
2,note_on,57,0,120
2,note_on,53,44,0
2,note_on,53,0,120
2,note_on,57,41,0
2,note_on,57,0,120
2,note_on,48,48,0
2,note_on,48,0,120
2,note_on,57,40,0
2,note_on,57,0,120
2,note_on,53,44,0
2,note_on,53,0,120
2,note_on,57,40,0
2,note_on,57,0,120
2,note_on,48,48,0
2,note_on,48,0,120
2,note_on,57,42,0
2,note_on,57,0,120
2,note_on,53,46,0
2,note_on,53,0,120
2,note_on,57,42,0
2,note_on,57,0,120
2,note_on,48,48,0
2,note_on,48,0,120
2,note_on,57,43,0
2,note_on,57,0,120
2,note_on,53,46,0
2,note_on,53,0,120
2,note_on,57,43,0
2,note_on,57,0,120
2,note_on,48,48,0
2,note_on,48,0,120
2,note_on,58,40,0
2,note_on,58,0,120
2,note_on,52,43,0
2,note_on,52,0,120
2,note_on,58,40,0
2,note_on,58,0,120
2,note_on,48,48,0
2,note_on,48,0,120
2,note_on,58,42,0
2,note_on,58,0,120
2,note_on,52,43,0
2,note_on,52,0,120
2,note_on,58,42,0
2,note_on,58,0,120
2,note_on,48,48,0
2,note_on,48,0,120
2,note_on,58,41,0
2,note_on,58,0,120
2,note_on,52,43,0
2,note_on,52,0,120
2,note_on,58,41,0
2,note_on,58,0,120
2,note_on,48,48,0
2,note_on,48,0,120
2,note_on,58,42,0
2,note_on,58,0,120
2,note_on,52,45,0
2,note_on,52,0,120
2,note_on,58,42,0
2,note_on,58,0,120
2,note_on,53,51,0
2,note_on,53,0,240
2,note_on,65,44,0
2,note_on,65,0,240
2,note_on,64,44,0
2,note_on,64,0,240
2,note_on,65,44,0
2,note_on,65,0,240
2,note_on,67,45,0
2,note_on,67,0,240
2,note_on,65,48,0
2,note_on,65,0,240
2,note_on,64,51,0
2,note_on,64,0,240
2,note_on,63,54,0
2,note_on,63,0,240
2,note_on,62,59,0
2,note_on,62,0,240
2,note_on,53,45,0
2,note_on,53,0,240
2,note_on,61,53,0
2,note_on,61,0,240
2,note_on,53,45,0
2,note_on,53,0,240
2,note_on,60,52,0
2,note_on,60,0,240
2,note_on,53,44,0
2,note_on,53,0,240
2,note_on,64,50,0
2,note_on,64,0,240
2,note_on,53,44,0
2,note_on,53,0,240
2,note_on,65,53,0
2,note_on,65,0,120
2,note_on,53,41,120
2,note_on,53,0,240
2,note_on,52,41,0
2,note_on,52,0,240
2,note_on,53,41,0
2,note_on,53,0,240
2,note_on,55,45,0
2,note_on,55,0,240
2,note_on,53,43,0
2,note_on,53,0,240
2,note_on,52,43,0
2,note_on,52,0,240
2,note_on,51,43,0
2,note_on,51,0,240
2,note_on,50,45,0
2,note_on,50,0,480
2,note_on,46,35,0
2,note_on,46,0,480
2,note_on,48,35,0
2,note_on,48,0,480
2,note_on,48,35,0
2,note_on,48,0,480
2,note_on,53,37,0
2,note_on,53,0,480
2,note_on,48,28,0
2,note_on,48,0,480
2,note_on,41,28,0
2,note_on,41,0,360
2,note_on,58,37,720
2,note_on,58,0,240
2,note_on,62,37,0
2,note_on,62,0,240
2,note_on,65,33,0
2,note_on,65,0,240
2,note_on,62,36,0
2,note_on,62,0,240
2,note_on,58,33,0
2,note_on,58,0,240
2,note_on,62,41,0
2,note_on,62,0,240
2,note_on,67,38,0
2,note_on,67,0,240
2,note_on,60,34,240
2,note_on,60,0,240
2,note_on,63,39,0
2,note_on,63,0,240
2,note_on,67,36,0
2,note_on,67,0,240
2,note_on,63,44,0
2,note_on,63,0,240
2,note_on,60,37,0
2,note_on,60,0,240
2,note_on,63,38,0
2,note_on,63,0,240
2,note_on,67,34,0
2,note_on,67,0,240
2,note_on,53,35,240
2,note_on,53,0,240
2,note_on,60,35,0
2,note_on,60,0,240
2,note_on,63,34,0
2,note_on,63,0,240
2,note_on,60,47,0
2,note_on,60,0,240
2,note_on,53,36,0
2,note_on,53,0,240
2,note_on,60,43,0
2,note_on,60,0,240
2,note_on,63,36,0
2,note_on,63,0,240
2,note_on,58,42,240
2,note_on,58,0,240
2,note_on,62,42,0
2,note_on,62,0,240
2,note_on,65,36,0
2,note_on,65,0,240
2,note_on,62,45,0
2,note_on,62,0,240
2,note_on,58,42,0
2,note_on,58,0,240
2,note_on,62,42,0
2,note_on,62,0,240
2,note_on,65,39,0
2,note_on,65,0,240
2,note_on,63,45,0
2,note_on,63,0,240
2,note_on,67,37,0
2,note_on,67,0,240
2,note_on,62,40,0
2,note_on,62,0,240
2,note_on,65,35,0
2,note_on,65,0,240
2,note_on,63,45,0
2,note_on,63,0,240
2,note_on,67,35,0
2,note_on,67,0,240
2,note_on,60,38,0
2,note_on,60,0,240
2,note_on,63,32,0
2,note_on,63,0,240
2,note_on,62,42,0
2,note_on,65,42,0
2,note_on,65,0,480
2,note_on,62,0,0
2,note_on,63,47,1440
2,note_on,63,0,240
2,note_on,67,36,0
2,note_on,67,0,240
2,note_on,62,40,0
2,note_on,62,0,240
2,note_on,65,33,0
2,note_on,65,0,240
2,note_on,63,47,0
2,note_on,63,0,240
2,note_on,67,37,0
2,note_on,67,0,240
2,note_on,60,39,0
2,note_on,60,0,240
2,note_on,63,32,0
2,note_on,63,0,240
2,note_on,65,47,0
2,note_on,62,47,0
2,note_on,62,0,480
2,note_on,65,0,0
2,note_on,57,61,1440
2,note_on,57,0,480
2,note_on,58,55,0
2,note_on,58,0,480
2,note_on,51,63,0
2,note_on,51,0,480
2,note_on,53,57,0
2,note_on,53,0,480
2,note_on,46,52,240
2,note_on,46,0,120
2,note_on,50,55,120
2,note_on,50,0,120
2,note_on,53,50,120
2,note_on,53,0,120
2,note_on,58,61,120
2,note_on,58,0,480
2,note_on,46,34,720
2,note_on,46,0,240
2,note_on,50,37,0
2,note_on,50,0,240
2,note_on,53,35,0
2,note_on,53,0,240
2,note_on,50,43,0
2,note_on,50,0,240
2,note_on,46,39,0
2,note_on,46,0,240
2,note_on,50,39,0
2,note_on,50,0,240
2,note_on,55,35,0
2,note_on,55,0,240
2,note_on,48,36,240
2,note_on,48,0,240
2,note_on,55,39,0
2,note_on,55,0,240
2,note_on,58,35,0
2,note_on,58,0,240
2,note_on,55,42,0
2,note_on,55,0,240
2,note_on,48,34,0
2,note_on,48,0,240
2,note_on,55,38,0
2,note_on,55,0,240
2,note_on,58,34,0
2,note_on,58,0,240
2,note_on,52,39,240
2,note_on,52,0,240
2,note_on,55,43,0
2,note_on,55,0,240
2,note_on,60,46,0
2,note_on,60,0,240
2,note_on,55,49,0
2,note_on,55,0,240
2,note_on,52,47,0
2,note_on,52,0,240
2,note_on,55,50,0
2,note_on,55,0,240
2,note_on,60,54,0
2,note_on,60,0,240
2,note_on,53,42,240
2,note_on,53,0,240
2,note_on,57,41,0
2,note_on,57,0,240
2,note_on,60,34,0
2,note_on,60,0,240
2,note_on,57,37,0
2,note_on,57,0,240
2,note_on,53,34,0
2,note_on,53,0,240
2,note_on,57,36,0
2,note_on,57,0,240
2,note_on,60,32,0
2,note_on,60,0,240
2,note_on,58,47,0
2,note_on,58,0,240
2,note_on,60,32,0
2,note_on,60,0,240
2,note_on,58,37,0
2,note_on,58,0,240
2,note_on,60,31,0
2,note_on,60,0,240
2,note_on,57,50,0
2,note_on,57,0,240
2,note_on,60,41,0
2,note_on,60,0,240
2,note_on,57,44,0
2,note_on,57,0,240
2,note_on,60,41,0
2,note_on,60,0,240
2,note_on,58,49,0
2,note_on,58,0,240
2,note_on,60,36,0
2,note_on,60,0,240
2,note_on,58,42,0
2,note_on,58,0,240
2,note_on,60,36,0
2,note_on,60,0,240
2,note_on,57,53,0
2,note_on,57,0,240
2,note_on,60,45,0
2,note_on,60,0,240
2,note_on,57,46,0
2,note_on,57,0,240
2,note_on,60,44,0
2,note_on,60,0,240
2,note_on,58,51,0
2,note_on,58,0,240
2,note_on,62,46,0
2,note_on,62,0,240
2,note_on,58,51,0
2,note_on,58,0,240
2,note_on,62,46,0
2,note_on,62,0,240
2,note_on,59,50,0
2,note_on,59,0,240
2,note_on,62,46,0
2,note_on,62,0,240
2,note_on,59,52,0
2,note_on,59,0,240
2,note_on,62,48,0
2,note_on,62,0,240
2,note_on,60,59,0
2,note_on,60,0,480
2,note_on,62,61,0
2,note_on,62,0,480
2,note_on,64,63,0
2,note_on,64,0,480
2,note_on,65,65,0
2,note_on,65,0,480
2,note_on,67,65,0
2,note_on,67,0,240
2,note_on,72,53,0
2,note_on,72,0,240
2,note_on,64,60,0
2,note_on,64,0,240
2,note_on,72,53,0
2,note_on,72,0,240
2,note_on,65,59,0
2,note_on,65,0,240
2,note_on,72,50,0
2,note_on,72,0,240
2,note_on,62,56,0
2,note_on,62,0,240
2,note_on,72,52,0
2,note_on,72,0,240
2,note_on,60,60,0
2,note_on,60,0,480
2,note_on,62,62,0
2,note_on,62,0,480
2,note_on,64,65,0
2,note_on,64,0,480
2,note_on,65,68,0
2,note_on,65,0,480
2,note_on,67,66,0
2,note_on,67,0,120
2,note_on,72,44,0
2,note_on,72,0,120
2,note_on,71,47,0
2,note_on,71,0,120
2,note_on,72,44,0
2,note_on,72,0,120
2,note_on,64,57,0
2,note_on,64,0,120
2,note_on,72,45,0
2,note_on,72,0,120
2,note_on,71,48,0
2,note_on,71,0,120
2,note_on,72,44,0
2,note_on,72,0,120
2,note_on,65,57,0
2,note_on,65,0,120
2,note_on,72,44,0
2,note_on,72,0,120
2,note_on,71,46,0
2,note_on,71,0,120
2,note_on,72,44,0
2,note_on,72,0,120
2,note_on,62,56,0
2,note_on,62,0,120
2,note_on,71,45,0
2,note_on,71,0,120
2,note_on,69,45,0
2,note_on,69,0,120
2,note_on,71,43,0
2,note_on,71,0,120
2,note_on,72,56,0
2,note_on,60,56,0
2,note_on,60,0,475
2,note_on,72,0,0
2,note_on,48,73,485
2,note_on,36,73,0
2,note_on,36,0,240
2,note_on,48,0,0
2,note_on,41,66,720
2,note_on,53,66,0
2,note_on,53,0,960
2,note_on,41,0,0
2,note_on,58,68,1440
2,note_on,46,68,0
2,note_on,46,0,960
2,note_on,58,0,0
2,note_on,57,44,0
2,note_on,57,0,480
2,note_on,59,38,0
2,note_on,62,38,0
2,note_on,62,0,480
2,note_on,59,0,0
2,note_on,60,38,0
2,note_on,60,0,480
2,note_on,62,38,0
2,note_on,59,38,0
2,note_on,59,0,480
2,note_on,62,0,0
2,note_on,60,40,0
2,note_on,60,0,480
2,note_on,62,39,0
2,note_on,62,0,480
2,note_on,64,35,0
2,note_on,64,0,480
2,note_on,65,35,0
2,note_on,65,0,480
2,note_on,46,45,720
2,note_on,46,0,240
2,note_on,50,46,0
2,note_on,50,0,240
2,note_on,55,45,0
2,note_on,55,0,240
2,note_on,58,52,0
2,note_on,58,0,480
2,note_on,45,44,720
2,note_on,45,0,240
2,note_on,48,44,0
2,note_on,48,0,240
2,note_on,53,42,0
2,note_on,53,0,240
2,note_on,57,52,0
2,note_on,57,0,480
2,note_on,55,44,480
2,note_on,55,0,480
2,note_on,52,41,0
2,note_on,52,0,480
2,note_on,53,43,0
2,note_on,53,0,480
2,note_on,50,42,0
2,note_on,50,0,480
2,note_on,48,44,0
2,note_on,48,0,480
2,note_on,48,53,480
2,note_on,48,0,120
2,note_on,50,49,0
2,note_on,50,0,120
2,note_on,46,54,0
2,note_on,46,0,120
2,note_on,48,49,0
2,note_on,48,0,120
2,note_on,45,54,0
2,note_on,45,0,120
2,note_on,46,49,0
2,note_on,46,0,120
2,note_on,43,56,0
2,note_on,43,0,120
2,note_on,45,49,0
2,note_on,45,0,120
2,note_on,41,66,0
2,note_on,41,0,480
2,note_on,53,46,0
2,note_on,53,0,480
2,note_on,46,59,1440
2,note_on,58,59,0
2,note_on,58,0,960
2,note_on,46,0,0
2,note_on,57,43,0
2,note_on,57,0,480
2,note_on,59,43,0
2,note_on,62,43,0
2,note_on,62,0,480
2,note_on,59,0,0
2,note_on,60,43,0
2,note_on,60,0,480
2,note_on,62,43,0
2,note_on,59,43,0
2,note_on,59,0,480
2,note_on,62,0,0
2,note_on,60,43,0
2,note_on,60,0,480
2,note_on,65,43,0
2,note_on,62,43,0
2,note_on,62,0,480
2,note_on,65,0,0
2,note_on,67,43,0
2,note_on,64,43,0
2,note_on,64,0,480
2,note_on,67,0,0
2,note_on,65,46,0
2,note_on,65,0,480
2,note_on,50,54,720
2,note_on,50,0,240
2,note_on,62,61,0
2,note_on,62,0,120
2,note_on,60,53,120
2,note_on,60,0,120
2,note_on,58,60,120
2,note_on,58,0,120
2,note_on,46,53,120
2,note_on,46,0,240
2,note_on,58,61,0
2,note_on,58,0,120
2,note_on,57,53,120
2,note_on,57,0,120
2,note_on,55,57,120
2,note_on,55,0,240
2,note_on,53,53,0
2,note_on,53,0,240
2,note_on,52,53,0
2,note_on,52,0,240
2,note_on,48,53,0
2,note_on,48,0,240
2,note_on,53,60,0
2,note_on,53,0,480
2,note_on,45,56,0
2,note_on,45,0,480
2,note_on,46,59,0
2,note_on,46,0,480
2,note_on,58,53,0
2,note_on,58,0,480
2,note_on,60,54,0
2,note_on,60,0,480
2,note_on,48,53,0
2,note_on,48,0,480
2,note_on,53,53,0
2,note_on,53,0,120
2,note_on,60,46,0
2,note_on,60,0,120
2,note_on,59,49,0
2,note_on,59,0,120
2,note_on,60,46,0
2,note_on,60,0,120
2,note_on,62,53,0
2,note_on,62,0,120
2,note_on,60,46,0
2,note_on,60,0,120
2,note_on,59,49,0
2,note_on,59,0,120
2,note_on,60,46,0
2,note_on,60,0,120
2,note_on,58,53,0
2,note_on,58,0,120
2,note_on,60,50,0
2,note_on,60,0,120
2,note_on,57,53,0
2,note_on,57,0,120
2,note_on,60,49,0
2,note_on,60,0,120
2,note_on,55,53,0
2,note_on,55,0,120
2,note_on,60,50,0
2,note_on,60,0,120
2,note_on,53,53,0
2,note_on,53,0,120
2,note_on,60,50,0
2,note_on,60,0,120
2,note_on,52,48,0
2,note_on,52,0,120
2,note_on,60,42,0
2,note_on,60,0,120
2,note_on,55,42,0
2,note_on,55,0,120
2,note_on,60,40,0
2,note_on,60,0,120
2,note_on,58,48,0
2,note_on,58,0,120
2,note_on,60,42,0
2,note_on,60,0,120
2,note_on,58,42,0
2,note_on,58,0,120
2,note_on,60,41,0
2,note_on,60,0,120
2,note_on,52,47,0
2,note_on,52,0,120
2,note_on,60,43,0
2,note_on,60,0,120
2,note_on,55,43,0
2,note_on,55,0,120
2,note_on,60,42,0
2,note_on,60,0,120
2,note_on,58,48,0
2,note_on,58,0,120
2,note_on,60,42,0
2,note_on,60,0,120
2,note_on,58,42,0
2,note_on,58,0,120
2,note_on,60,42,0
2,note_on,60,0,120
2,note_on,57,44,0
2,note_on,57,0,120
2,note_on,60,45,0
2,note_on,60,0,120
2,note_on,52,45,0
2,note_on,52,0,120
2,note_on,60,45,0
2,note_on,60,0,120
2,note_on,53,46,0
2,note_on,53,0,120
2,note_on,60,47,0
2,note_on,60,0,120
2,note_on,55,48,0
2,note_on,55,0,120
2,note_on,60,49,0
2,note_on,60,0,120
2,note_on,56,53,0
2,note_on,56,0,120
2,note_on,60,48,0
2,note_on,60,0,120
2,note_on,57,53,0
2,note_on,57,0,120
2,note_on,60,46,0
2,note_on,60,0,120
2,note_on,56,53,0
2,note_on,56,0,120
2,note_on,60,46,0
2,note_on,60,0,120
2,note_on,57,53,0
2,note_on,57,0,120
2,note_on,60,47,0
2,note_on,60,0,120
2,note_on,52,48,0
2,note_on,52,0,120
2,note_on,60,38,0
2,note_on,60,0,120
2,note_on,55,42,0
2,note_on,55,0,120
2,note_on,60,39,0
2,note_on,60,0,120
2,note_on,58,48,0
2,note_on,58,0,120
2,note_on,60,39,0
2,note_on,60,0,120
2,note_on,58,42,0
2,note_on,58,0,120
2,note_on,60,40,0
2,note_on,60,0,120
2,note_on,52,47,0
2,note_on,52,0,120
2,note_on,60,41,0
2,note_on,60,0,120
2,note_on,55,43,0
2,note_on,55,0,120
2,note_on,60,40,0
2,note_on,60,0,120
2,note_on,58,48,0
2,note_on,58,0,120
2,note_on,60,38,0
2,note_on,60,0,120
2,note_on,58,42,0
2,note_on,58,0,120
2,note_on,60,40,0
2,note_on,60,0,120
2,note_on,57,44,0
2,note_on,57,0,120
2,note_on,60,43,0
2,note_on,60,0,120
2,note_on,52,45,0
2,note_on,52,0,120
2,note_on,60,45,0
2,note_on,60,0,120
2,note_on,53,46,0
2,note_on,53,0,120
2,note_on,60,45,0
2,note_on,60,0,120
2,note_on,55,48,0
2,note_on,55,0,120
2,note_on,60,47,0
2,note_on,60,0,120
2,note_on,56,53,0
2,note_on,56,0,120
2,note_on,60,48,0
2,note_on,60,0,120
2,note_on,57,53,0
2,note_on,57,0,120
2,note_on,60,46,0
2,note_on,60,0,120
2,note_on,56,53,0
2,note_on,56,0,120
2,note_on,60,46,0
2,note_on,60,0,120
2,note_on,57,53,0
2,note_on,57,0,120
2,note_on,60,47,0
2,note_on,60,0,120
2,note_on,58,36,240
2,note_on,58,0,240
2,note_on,57,38,0
2,note_on,57,0,240
2,note_on,58,36,0
2,note_on,58,0,240
2,note_on,60,34,240
2,note_on,60,0,240
2,note_on,59,38,0
2,note_on,59,0,240
2,note_on,60,33,0
2,note_on,60,0,240
2,note_on,61,34,240
2,note_on,61,0,240
2,note_on,59,36,0
2,note_on,59,0,240
2,note_on,61,34,0
2,note_on,61,0,240
2,note_on,62,38,240
2,note_on,62,0,240
2,note_on,61,40,0
2,note_on,61,0,240
2,note_on,62,38,0
2,note_on,62,0,240
2,note_on,58,54,480
2,note_on,67,54,0
2,note_on,67,0,480
2,note_on,58,0,0
2,note_on,60,54,0
2,note_on,69,54,0
2,note_on,69,0,480
2,note_on,70,45,0
2,note_on,70,0,480
2,note_on,60,0,0
2,note_on,69,40,0
2,note_on,65,34,0
2,note_on,65,0,960
2,note_on,69,0,0
2,note_on,69,36,0
2,note_on,65,30,0
2,note_on,65,0,960
2,note_on,69,0,0
2,note_on,54,30,0
2,note_on,57,30,0
2,note_on,60,36,0
2,note_on,60,0,960
2,note_on,57,0,0
2,note_on,54,0,0
2,note_on,55,30,0
2,note_on,58,36,0
2,note_on,58,0,960
2,note_on,55,0,0
2,note_on,52,29,0
2,note_on,58,35,0
2,note_on,55,29,0
2,note_on,55,0,960
2,note_on,58,0,0
2,note_on,52,0,0
2,note_on,57,35,0
2,note_on,53,29,0
2,note_on,53,0,960
2,note_on,57,0,0
2,note_on,55,32,480
2,note_on,47,32,0
2,note_on,47,0,480
2,note_on,55,0,0
2,note_on,57,36,0
2,note_on,48,36,0
2,note_on,57,0,480
2,note_on,58,35,0
2,note_on,58,0,480
2,note_on,48,0,0
2,note_on,57,43,0
2,note_on,53,43,0
2,note_on,53,0,120
2,note_on,57,0,0
2,note_on,64,35,360
2,note_on,64,0,240
2,note_on,63,35,0
2,note_on,63,0,240
2,note_on,62,43,0
2,note_on,53,43,0
2,note_on,53,0,120
2,note_on,62,0,0
2,note_on,64,35,360
2,note_on,64,0,240
2,note_on,63,35,0
2,note_on,63,0,240
2,note_on,62,42,0
2,note_on,53,42,0
2,note_on,53,0,120
2,note_on,62,0,0
2,note_on,64,43,360
2,note_on,64,0,240
2,note_on,63,43,0
2,note_on,63,0,240
2,note_on,62,47,0
2,note_on,62,0,240
2,note_on,57,44,0
2,note_on,57,0,240
2,note_on,58,46,0
2,note_on,58,0,240
2,note_on,55,44,0
2,note_on,55,0,240
2,note_on,57,52,0
2,note_on,57,0,480
2,note_on,58,49,480
2,note_on,58,0,480
2,note_on,48,48,480
2,note_on,48,0,240
2,note_on,53,44,0
2,note_on,53,0,240
2,note_on,57,44,0
2,note_on,57,0,120
2,note_on,53,41,120
2,note_on,53,0,240
2,note_on,48,49,0
2,note_on,48,0,240
2,note_on,55,43,0
2,note_on,55,0,120
2,note_on,58,45,120
2,note_on,58,0,120
2,note_on,55,43,120
2,note_on,55,0,120
2,note_on,57,51,120
2,note_on,53,51,0
2,note_on,53,0,120
2,note_on,57,0,0
2,note_on,65,35,120
2,note_on,65,0,240
2,note_on,64,35,0
2,note_on,64,0,240
2,note_on,63,32,0
2,note_on,63,0,240
2,note_on,53,43,0
2,note_on,62,43,0
2,note_on,62,0,120
2,note_on,53,0,0
2,note_on,65,32,120
2,note_on,65,0,240
2,note_on,64,35,0
2,note_on,64,0,240
2,note_on,63,33,0
2,note_on,63,0,240
2,note_on,53,42,0
2,note_on,62,42,0
2,note_on,62,0,120
2,note_on,53,0,0
2,note_on,65,35,120
2,note_on,65,0,240
2,note_on,64,43,0
2,note_on,64,0,240
2,note_on,63,43,0
2,note_on,63,0,240
2,note_on,62,47,0
2,note_on,62,0,240
2,note_on,57,44,0
2,note_on,57,0,240
2,note_on,58,46,0
2,note_on,58,0,240
2,note_on,55,44,0
2,note_on,55,0,240
2,note_on,57,62,0
2,note_on,45,62,0
2,note_on,45,0,480
2,note_on,57,0,0
2,note_on,46,63,480
2,note_on,58,63,0
2,note_on,58,0,480
2,note_on,46,0,0
2,note_on,48,48,480
2,note_on,48,0,120
2,note_on,57,40,0
2,note_on,57,0,120
2,note_on,53,44,0
2,note_on,53,0,120
2,note_on,57,41,0
2,note_on,57,0,120
2,note_on,48,48,0
2,note_on,48,0,120
2,note_on,57,40,0
2,note_on,57,0,120
2,note_on,53,44,0
2,note_on,53,0,120
2,note_on,57,40,0
2,note_on,57,0,120
2,note_on,48,48,0
2,note_on,48,0,120
2,note_on,57,42,0
2,note_on,57,0,120
2,note_on,53,46,0
2,note_on,53,0,120
2,note_on,57,42,0
2,note_on,57,0,120
2,note_on,48,48,0
2,note_on,48,0,120
2,note_on,57,43,0
2,note_on,57,0,120
2,note_on,53,46,0
2,note_on,53,0,120
2,note_on,57,43,0
2,note_on,57,0,120
2,note_on,48,48,0
2,note_on,48,0,120
2,note_on,58,40,0
2,note_on,58,0,120
2,note_on,52,43,0
2,note_on,52,0,120
2,note_on,58,40,0
2,note_on,58,0,120
2,note_on,48,48,0
2,note_on,48,0,120
2,note_on,58,42,0
2,note_on,58,0,120
2,note_on,52,43,0
2,note_on,52,0,120
2,note_on,58,42,0
2,note_on,58,0,120
2,note_on,48,48,0
2,note_on,48,0,120
2,note_on,58,41,0
2,note_on,58,0,120
2,note_on,52,43,0
2,note_on,52,0,120
2,note_on,58,41,0
2,note_on,58,0,120
2,note_on,48,48,0
2,note_on,48,0,120
2,note_on,58,42,0
2,note_on,58,0,120
2,note_on,52,45,0
2,note_on,52,0,120
2,note_on,58,42,0
2,note_on,58,0,120
2,note_on,53,51,0
2,note_on,53,0,240
2,note_on,65,44,0
2,note_on,65,0,240
2,note_on,64,44,0
2,note_on,64,0,240
2,note_on,65,44,0
2,note_on,65,0,240
2,note_on,67,45,0
2,note_on,67,0,240
2,note_on,65,48,0
2,note_on,65,0,240
2,note_on,64,51,0
2,note_on,64,0,240
2,note_on,63,54,0
2,note_on,63,0,240
2,note_on,62,59,0
2,note_on,62,0,240
2,note_on,53,45,0
2,note_on,53,0,240
2,note_on,61,53,0
2,note_on,61,0,240
2,note_on,53,45,0
2,note_on,53,0,240
2,note_on,60,52,0
2,note_on,60,0,240
2,note_on,53,44,0
2,note_on,53,0,240
2,note_on,64,50,0
2,note_on,64,0,240
2,note_on,53,44,0
2,note_on,53,0,240
2,note_on,65,53,0
2,note_on,65,0,120
2,note_on,53,41,120
2,note_on,53,0,240
2,note_on,52,41,0
2,note_on,52,0,240
2,note_on,53,41,0
2,note_on,53,0,240
2,note_on,55,45,0
2,note_on,55,0,240
2,note_on,53,43,0
2,note_on,53,0,240
2,note_on,52,43,0
2,note_on,52,0,240
2,note_on,51,43,0
2,note_on,51,0,240
2,note_on,50,45,0
2,note_on,50,0,480
2,note_on,46,35,0
2,note_on,46,0,480
2,note_on,48,35,0
2,note_on,48,0,480
2,note_on,48,35,0
2,note_on,48,0,480
2,note_on,53,37,0
2,note_on,53,0,480
2,note_on,48,28,0
2,note_on,48,0,480
2,note_on,41,28,0
2,note_on,41,0,360
2,note_on,41,33,720
2,note_on,41,0,240
2,note_on,45,35,0
2,note_on,45,0,240
2,note_on,48,33,0
2,note_on,48,0,240
2,note_on,45,38,0
2,note_on,45,0,240
2,note_on,41,32,0
2,note_on,41,0,240
2,note_on,45,34,0
2,note_on,45,0,240
2,note_on,48,32,0
2,note_on,48,0,240
2,note_on,55,32,240
2,note_on,55,0,240
2,note_on,58,35,0
2,note_on,58,0,240
2,note_on,64,33,0
2,note_on,64,0,240
2,note_on,58,34,0
2,note_on,58,0,240
2,note_on,55,30,0
2,note_on,55,0,240
2,note_on,58,34,0
2,note_on,58,0,240
2,note_on,64,30,0
2,note_on,64,0,240
2,note_on,43,32,240
2,note_on,43,0,240
2,note_on,46,35,0
2,note_on,46,0,240
2,note_on,52,32,0
2,note_on,52,0,240
2,note_on,46,39,0
2,note_on,46,0,240
2,note_on,43,33,0
2,note_on,43,0,240
2,note_on,46,35,0
2,note_on,46,0,240
2,note_on,52,33,0
2,note_on,52,0,240
2,note_on,57,33,240
2,note_on,57,0,240
2,note_on,60,35,0
2,note_on,60,0,240
2,note_on,63,34,0
2,note_on,63,0,240
2,note_on,60,37,0
2,note_on,60,0,240
2,note_on,57,32,0
2,note_on,57,0,240
2,note_on,60,34,0
2,note_on,60,0,240
2,note_on,63,34,0
2,note_on,63,0,240
2,note_on,46,41,240
2,note_on,46,0,240
2,note_on,50,47,0
2,note_on,50,0,240
2,note_on,55,44,0
2,note_on,55,0,240
2,note_on,48,46,240
2,note_on,48,0,240
2,note_on,55,49,0
2,note_on,55,0,240
2,note_on,58,46,0
2,note_on,58,0,240
2,note_on,50,48,240
2,note_on,50,0,240
2,note_on,53,50,0
2,note_on,53,0,240
2,note_on,56,45,0
2,note_on,56,0,240
2,note_on,53,52,0
2,note_on,53,0,240
2,note_on,50,49,0
2,note_on,50,0,240
2,note_on,53,53,0
2,note_on,53,0,240
2,note_on,56,50,0
2,note_on,56,0,240
2,note_on,48,63,0
2,note_on,57,63,0
2,note_on,57,0,960
2,note_on,48,0,0
2,note_on,60,48,0
2,note_on,60,0,480
2,note_on,48,45,0
2,note_on,48,0,480
2,note_on,53,41,0
2,note_on,53,0,120
2,note_on,60,34,0
2,note_on,60,0,120
2,note_on,56,37,0
2,note_on,56,0,120
2,note_on,60,34,0
2,note_on,60,0,120
2,note_on,53,41,0
2,note_on,60,34,120
2,note_on,53,0,24
2,note_on,56,37,96
2,note_on,60,0,24
2,note_on,60,34,96
2,note_on,56,0,24
2,note_on,53,46,96
2,note_on,60,0,24
2,note_on,60,36,96
2,note_on,53,0,24
2,note_on,56,41,96
2,note_on,60,0,24
2,note_on,60,37,96
2,note_on,56,0,24
2,note_on,53,49,96
2,note_on,60,0,24
2,note_on,60,39,96
2,note_on,53,0,24
2,note_on,56,44,96
2,note_on,60,0,24
2,note_on,60,39,96
2,note_on,56,0,24
2,note_on,53,49,96
2,note_on,60,0,24
2,note_on,60,43,96
2,note_on,53,0,24
2,note_on,56,45,96
2,note_on,60,0,24
2,note_on,60,43,96
2,note_on,56,0,24
2,note_on,53,49,96
2,note_on,60,0,24
2,note_on,60,43,96
2,note_on,53,0,24
2,note_on,56,45,96
2,note_on,60,0,24
2,note_on,60,43,96
2,note_on,56,0,24
2,note_on,53,48,96
2,note_on,60,0,24
2,note_on,62,39,96
2,note_on,53,0,24
2,note_on,56,45,96
2,note_on,62,0,24
2,note_on,62,40,96
2,note_on,56,0,24
2,note_on,53,47,96
2,note_on,62,0,24
2,note_on,62,40,96
2,note_on,53,0,24
2,note_on,56,45,96
2,note_on,62,0,24
2,note_on,62,40,96
2,note_on,56,0,24
2,note_on,55,54,96
2,note_on,62,0,24
2,note_on,55,0,96
2,note_on,65,46,0
2,note_on,65,0,120
2,note_on,62,48,0
2,note_on,62,0,120
2,note_on,65,45,0
2,note_on,65,0,120
2,note_on,55,54,0
2,note_on,55,0,120
2,note_on,65,45,0
2,note_on,65,0,120
2,note_on,62,48,0
2,note_on,62,0,120
2,note_on,65,45,0
2,note_on,65,0,120
2,note_on,55,54,0
2,note_on,55,0,120
2,note_on,65,46,0
2,note_on,65,0,120
2,note_on,62,48,0
2,note_on,62,0,120
2,note_on,65,45,0
2,note_on,65,0,120
2,note_on,55,52,0
2,note_on,55,0,120
2,note_on,65,45,0
2,note_on,65,0,120
2,note_on,62,48,0
2,note_on,62,0,120
2,note_on,65,45,0
2,note_on,65,0,120
2,note_on,55,53,0
2,note_on,55,0,120
2,note_on,65,45,0
2,note_on,65,0,120
2,note_on,62,48,0
2,note_on,62,0,120
2,note_on,65,45,0
2,note_on,65,0,120
2,note_on,55,53,0
2,note_on,55,0,120
2,note_on,65,45,0
2,note_on,65,0,120
2,note_on,62,48,0
2,note_on,62,0,120
2,note_on,65,45,0
2,note_on,65,0,120
2,note_on,55,53,0
2,note_on,55,0,120
2,note_on,62,46,0
2,note_on,62,0,120
2,note_on,59,48,0
2,note_on,59,0,120
2,note_on,62,45,0
2,note_on,62,0,120
2,note_on,55,53,0
2,note_on,55,0,120
2,note_on,62,45,0
2,note_on,62,0,120
2,note_on,59,48,0
2,note_on,59,0,120
2,note_on,62,45,0
2,note_on,62,0,120
2,note_on,55,48,0
2,note_on,55,0,120
2,note_on,64,39,0
2,note_on,64,0,120
2,note_on,60,44,0
2,note_on,60,0,120
2,note_on,64,39,0
2,note_on,64,0,120
2,note_on,55,48,0
2,note_on,55,0,120
2,note_on,63,41,0
2,note_on,63,0,120
2,note_on,60,44,0
2,note_on,60,0,120
2,note_on,63,41,0
2,note_on,63,0,120
2,note_on,55,48,0
2,note_on,63,40,120
2,note_on,55,0,24
2,note_on,60,44,96
2,note_on,63,0,24
2,note_on,63,38,96
2,note_on,60,0,24
2,note_on,55,48,96
2,note_on,63,0,24
2,note_on,63,40,96
2,note_on,55,0,24
2,note_on,60,45,96
2,note_on,63,0,24
2,note_on,63,40,96
2,note_on,60,0,24
2,note_on,54,54,96
2,note_on,63,0,24
2,note_on,54,0,96
2,note_on,63,40,0
2,note_on,63,0,120
2,note_on,58,44,0
2,note_on,58,0,120
2,note_on,63,41,0
2,note_on,63,0,120
2,note_on,54,49,0
2,note_on,54,0,120
2,note_on,63,42,0
2,note_on,63,0,120
2,note_on,58,45,0
2,note_on,58,0,120
2,note_on,63,40,0
2,note_on,63,0,120
2,note_on,54,54,0
2,note_on,54,0,120
2,note_on,63,42,0
2,note_on,63,0,120
2,note_on,58,45,0
2,note_on,58,0,120
2,note_on,63,42,0
2,note_on,63,0,120
2,note_on,54,48,0
2,note_on,54,0,120
2,note_on,63,40,0
2,note_on,63,0,120
2,note_on,58,45,0
2,note_on,58,0,120
2,note_on,63,40,0
2,note_on,63,0,120
2,note_on,53,49,0
2,note_on,53,0,120
2,note_on,63,40,0
2,note_on,63,0,120
2,note_on,60,45,0
2,note_on,60,0,120
2,note_on,63,41,0
2,note_on,63,0,120
2,note_on,53,50,0
2,note_on,53,0,120
2,note_on,63,42,0
2,note_on,63,0,120
2,note_on,60,45,0
2,note_on,60,0,120
2,note_on,63,40,0
2,note_on,63,0,120
2,note_on,53,50,0
2,note_on,63,43,120
2,note_on,53,0,24
2,note_on,60,48,96
2,note_on,63,0,24
2,note_on,63,43,96
2,note_on,60,0,24
2,note_on,53,54,96
2,note_on,63,0,24
2,note_on,63,45,96
2,note_on,53,0,24
2,note_on,60,48,96
2,note_on,63,0,24
2,note_on,63,45,96
2,note_on,60,0,24
2,note_on,53,54,96
2,note_on,63,0,24
2,note_on,63,45,96
2,note_on,53,0,24
2,note_on,60,48,96
2,note_on,63,0,24
2,note_on,63,44,96
2,note_on,60,0,24
2,note_on,53,54,96
2,note_on,63,0,24
2,note_on,63,45,96
2,note_on,53,0,24
2,note_on,60,48,96
2,note_on,63,0,24
2,note_on,63,44,96
2,note_on,60,0,24
2,note_on,53,52,96
2,note_on,63,0,24
2,note_on,60,44,96
2,note_on,53,0,24
2,note_on,57,48,96
2,note_on,60,0,24
2,note_on,60,44,96
2,note_on,57,0,24
2,note_on,53,53,96
2,note_on,60,0,24
2,note_on,60,44,96
2,note_on,53,0,24
2,note_on,57,47,96
2,note_on,60,0,24
2,note_on,60,44,96
2,note_on,57,0,24
2,note_on,54,44,96
2,note_on,60,0,24
2,note_on,54,0,96
2,note_on,60,39,0
2,note_on,60,0,120
2,note_on,57,40,0
2,note_on,60,35,120
2,note_on,57,0,24
2,note_on,54,44,96
2,note_on,60,0,24
2,note_on,54,0,96
2,note_on,60,33,0
2,note_on,60,0,120
2,note_on,57,39,0
2,note_on,57,0,120
2,note_on,60,34,0
2,note_on,60,0,120
2,note_on,54,44,0
2,note_on,54,0,120
2,note_on,60,33,0
2,note_on,60,0,120
2,note_on,57,39,0
2,note_on,57,0,120
2,note_on,60,33,0
2,note_on,60,0,120
2,note_on,54,44,0
2,note_on,54,0,120
2,note_on,62,35,0
2,note_on,62,0,120
2,note_on,57,39,0
2,note_on,57,0,120
2,note_on,62,34,0
2,note_on,62,0,120
2,note_on,55,48,0
2,note_on,55,0,120
2,note_on,62,39,0
2,note_on,62,0,120
2,note_on,58,44,0
2,note_on,58,0,120
2,note_on,62,39,0
2,note_on,62,0,120
2,note_on,53,48,0
2,note_on,53,0,120
2,note_on,62,38,0
2,note_on,62,0,120
2,note_on,57,44,0
2,note_on,57,0,120
2,note_on,62,38,0
2,note_on,62,0,120
2,note_on,52,48,0
2,note_on,62,38,120
2,note_on,52,0,24
2,note_on,55,44,96
2,note_on,62,0,24
2,note_on,62,37,96
2,note_on,55,0,24
2,note_on,51,48,96
2,note_on,62,0,24
2,note_on,61,38,96
2,note_on,51,0,24
2,note_on,55,44,96
2,note_on,61,0,24
2,note_on,61,39,96
2,note_on,55,0,24
2,note_on,50,38,96
2,note_on,62,38,0
2,note_on,61,0,24
2,note_on,62,0,456
2,note_on,50,0,0
2,note_on,62,45,960
2,note_on,66,45,0
2,note_on,66,0,480
2,note_on,62,0,0
2,note_on,63,45,0
2,note_on,67,45,0
2,note_on,67,0,480
2,note_on,63,0,0
2,note_on,51,54,960
2,note_on,61,54,0
2,note_on,61,0,480
2,note_on,51,0,0
2,note_on,50,49,0
2,note_on,62,49,0
2,note_on,62,0,480
2,note_on,50,0,0
2,note_on,50,45,960
2,note_on,60,45,0
2,note_on,60,0,480
2,note_on,50,0,0
2,note_on,51,42,0
2,note_on,58,42,0
2,note_on,58,0,480
2,note_on,51,0,0
2,note_on,51,32,960
2,note_on,55,32,0
2,note_on,55,0,480
2,note_on,51,0,0
2,note_on,50,24,0
2,note_on,54,24,0
2,note_on,54,0,240
2,note_on,50,0,0
2,note_on,50,27,240
2,note_on,55,27,0
2,note_on,58,27,0
2,note_on,58,0,240
2,note_on,55,0,0
2,note_on,50,0,0
2,note_on,50,28,240
2,note_on,54,28,0
2,note_on,57,28,0
2,note_on,57,0,240
2,note_on,54,0,0
2,note_on,50,0,0
2,note_on,50,32,240
2,note_on,55,32,0
2,note_on,58,32,0
2,note_on,58,0,240
2,note_on,55,0,0
2,note_on,50,0,0
2,note_on,50,34,240
2,note_on,54,34,0
2,note_on,57,34,0
2,note_on,57,0,480
2,note_on,54,0,0
2,note_on,50,0,0
2,note_on,60,30,1680
2,note_on,65,30,0
2,note_on,69,34,0
2,note_on,69,0,240
2,note_on,65,0,0
2,note_on,60,0,0
2,note_on,60,33,0
2,note_on,65,33,0
2,note_on,69,37,0
2,note_on,69,0,240
2,note_on,65,0,0
2,note_on,60,0,0
2,note_on,60,36,0
2,note_on,65,36,0
2,note_on,69,40,0
2,note_on,69,0,240
2,note_on,65,0,0
2,note_on,60,0,0
2,note_on,60,39,0
2,note_on,65,39,0
2,note_on,69,44,0
2,note_on,69,0,480
2,note_on,65,0,0
2,note_on,60,0,0
2,note_on,65,32,720
2,note_on,72,32,0
2,note_on,75,36,0
2,note_on,75,0,240
2,note_on,72,0,0
2,note_on,65,0,0
2,note_on,65,36,0
2,note_on,72,36,0
2,note_on,75,40,0
2,note_on,75,0,240
2,note_on,72,0,0
2,note_on,65,0,0
2,note_on,65,39,0
2,note_on,72,39,0
2,note_on,75,44,0
2,note_on,75,0,240
2,note_on,72,0,0
2,note_on,65,0,0
2,note_on,65,42,0
2,note_on,72,42,0
2,note_on,75,47,0
2,note_on,75,0,480
2,note_on,72,0,0
2,note_on,65,0,0
2,note_on,65,47,720
2,note_on,65,0,240
2,note_on,72,45,0
2,note_on,72,0,240
2,note_on,75,45,0
2,note_on,75,0,240
2,note_on,66,47,0
2,note_on,66,0,960
2,note_on,65,38,240
2,note_on,65,0,240
2,note_on,72,41,0
2,note_on,72,0,240
2,note_on,75,37,0
2,note_on,75,0,240
2,note_on,66,49,0
2,note_on,66,0,960
2,note_on,65,46,0
2,note_on,65,0,240
2,note_on,66,52,240
2,note_on,72,52,0
2,note_on,75,52,0
2,note_on,66,0,480
2,note_on,65,49,0
2,note_on,65,0,480
2,note_on,75,0,0
2,note_on,72,0,0
2,note_on,72,53,0
2,note_on,75,53,0
2,note_on,66,53,0
2,note_on,66,0,480
2,note_on,65,50,0
2,note_on,65,0,480
2,note_on,75,0,0
2,note_on,72,0,0
2,note_on,58,37,720
2,note_on,58,0,240
2,note_on,62,37,0
2,note_on,62,0,240
2,note_on,65,33,0
2,note_on,65,0,240
2,note_on,62,36,0
2,note_on,62,0,240
2,note_on,58,33,0
2,note_on,58,0,240
2,note_on,62,41,0
2,note_on,62,0,240
2,note_on,67,38,0
2,note_on,67,0,240
2,note_on,60,34,240
2,note_on,60,0,240
2,note_on,63,39,0
2,note_on,63,0,240
2,note_on,67,36,0
2,note_on,67,0,240
2,note_on,63,44,0
2,note_on,63,0,240
2,note_on,60,37,0
2,note_on,60,0,240
2,note_on,63,38,0
2,note_on,63,0,240
2,note_on,67,34,0
2,note_on,67,0,240
2,note_on,53,35,240
2,note_on,53,0,240
2,note_on,60,35,0
2,note_on,60,0,240
2,note_on,63,34,0
2,note_on,63,0,240
2,note_on,60,47,0
2,note_on,60,0,240
2,note_on,53,36,0
2,note_on,53,0,240
2,note_on,60,43,0
2,note_on,60,0,240
2,note_on,63,36,0
2,note_on,63,0,240
2,note_on,58,42,240
2,note_on,58,0,240
2,note_on,62,42,0
2,note_on,62,0,240
2,note_on,65,36,0
2,note_on,65,0,240
2,note_on,62,45,0
2,note_on,62,0,240
2,note_on,58,42,0
2,note_on,58,0,240
2,note_on,62,42,0
2,note_on,62,0,240
2,note_on,65,39,0
2,note_on,65,0,240
2,note_on,63,45,0
2,note_on,63,0,240
2,note_on,67,37,0
2,note_on,67,0,240
2,note_on,62,40,0
2,note_on,62,0,240
2,note_on,65,35,0
2,note_on,65,0,240
2,note_on,63,45,0
2,note_on,63,0,240
2,note_on,67,35,0
2,note_on,67,0,240
2,note_on,60,38,0
2,note_on,60,0,240
2,note_on,63,32,0
2,note_on,63,0,240
2,note_on,62,42,0
2,note_on,65,42,0
2,note_on,65,0,480
2,note_on,62,0,0
2,note_on,63,47,1440
2,note_on,63,0,240
2,note_on,67,36,0
2,note_on,67,0,240
2,note_on,62,40,0
2,note_on,62,0,240
2,note_on,65,33,0
2,note_on,65,0,240
2,note_on,63,47,0
2,note_on,63,0,240
2,note_on,67,37,0
2,note_on,67,0,240
2,note_on,60,39,0
2,note_on,60,0,240
2,note_on,63,32,0
2,note_on,63,0,240
2,note_on,65,47,0
2,note_on,62,47,0
2,note_on,62,0,480
2,note_on,65,0,0
2,note_on,57,61,1440
2,note_on,57,0,480
2,note_on,58,55,0
2,note_on,58,0,480
2,note_on,51,63,0
2,note_on,51,0,480
2,note_on,53,57,0
2,note_on,53,0,480
2,note_on,46,52,240
2,note_on,46,0,120
2,note_on,50,55,120
2,note_on,50,0,120
2,note_on,53,50,120
2,note_on,53,0,120
2,note_on,58,61,120
2,note_on,58,0,480
2,note_on,46,34,720
2,note_on,46,0,240
2,note_on,50,37,0
2,note_on,50,0,240
2,note_on,53,34,0
2,note_on,53,0,240
2,note_on,50,43,0
2,note_on,50,0,240
2,note_on,46,35,0
2,note_on,46,0,240
2,note_on,50,39,0
2,note_on,50,0,240
2,note_on,53,39,0
2,note_on,53,0,240
2,note_on,46,37,240
2,note_on,46,0,240
2,note_on,50,41,0
2,note_on,50,0,240
2,note_on,53,37,0
2,note_on,53,0,240
2,note_on,50,43,0
2,note_on,50,0,240
2,note_on,46,38,0
2,note_on,46,0,240
2,note_on,50,38,0
2,note_on,50,0,240
2,note_on,53,34,0
2,note_on,53,0,240
2,note_on,46,47,240
2,note_on,46,0,240
2,note_on,50,47,0
2,note_on,50,0,240
2,note_on,53,45,0
2,note_on,53,0,240
2,note_on,56,53,0
2,note_on,56,0,240
2,note_on,53,45,0
2,note_on,53,0,240
2,note_on,50,48,0
2,note_on,50,0,240
2,note_on,46,45,0
2,note_on,46,0,240
2,note_on,47,36,240
2,note_on,47,0,240
2,note_on,50,36,0
2,note_on,50,0,240
2,note_on,53,36,0
2,note_on,53,0,240
2,note_on,55,41,0
2,note_on,55,0,240
2,note_on,53,33,0
2,note_on,53,0,240
2,note_on,50,34,0
2,note_on,50,0,240
2,note_on,47,32,0
2,note_on,47,0,240
2,note_on,58,33,240
2,note_on,58,0,240
2,note_on,61,36,0
2,note_on,61,0,240
2,note_on,64,32,0
2,note_on,64,0,240
2,note_on,67,40,0
2,note_on,67,0,480
2,note_on,57,34,720
2,note_on,57,0,240
2,note_on,60,34,0
2,note_on,60,0,240
2,note_on,65,32,0
2,note_on,65,0,240
2,note_on,69,39,0
2,note_on,69,0,480
2,note_on,58,32,720
2,note_on,58,0,240
2,note_on,62,34,0
2,note_on,62,0,240
2,note_on,65,30,0
2,note_on,65,0,240
2,note_on,70,38,0
2,note_on,70,0,480
2,note_on,63,42,480
2,note_on,63,0,240
2,note_on,67,38,0
2,note_on,67,0,240
2,note_on,63,42,0
2,note_on,63,0,240
2,note_on,65,38,0
2,note_on,65,0,240
2,note_on,62,41,0
2,note_on,62,0,240
2,note_on,65,38,0
2,note_on,65,0,240
2,note_on,62,41,0
2,note_on,62,0,240
2,note_on,65,38,0
2,note_on,65,0,240
2,note_on,63,41,0
2,note_on,63,0,240
2,note_on,65,38,0
2,note_on,65,0,240
2,note_on,63,41,0
2,note_on,63,0,240
2,note_on,65,38,0
2,note_on,65,0,240
2,note_on,62,41,0
2,note_on,62,0,240
2,note_on,65,38,0
2,note_on,65,0,240
2,note_on,62,41,0
2,note_on,62,0,240
2,note_on,65,38,0
2,note_on,65,0,240
2,note_on,63,41,0
2,note_on,63,0,240
2,note_on,67,38,0
2,note_on,67,0,240
2,note_on,63,41,0
2,note_on,63,0,240
2,note_on,67,38,0
2,note_on,67,0,240
2,note_on,64,41,0
2,note_on,64,0,240
2,note_on,67,38,0
2,note_on,67,0,240
2,note_on,64,41,0
2,note_on,64,0,240
2,note_on,67,38,0
2,note_on,67,0,240
2,note_on,53,41,0
2,note_on,53,0,480
2,note_on,55,47,0
2,note_on,55,0,480
2,note_on,57,52,0
2,note_on,57,0,480
2,note_on,58,58,0
2,note_on,58,0,480
2,note_on,60,64,0
2,note_on,60,0,240
2,note_on,65,45,0
2,note_on,65,0,240
2,note_on,57,51,0
2,note_on,57,0,240
2,note_on,65,46,0
2,note_on,65,0,240
2,note_on,58,52,0
2,note_on,58,0,240
2,note_on,65,46,0
2,note_on,65,0,240
2,note_on,55,52,0
2,note_on,55,0,240
2,note_on,65,46,0
2,note_on,65,0,240
2,note_on,53,40,0
2,note_on,53,0,480
2,note_on,55,46,0
2,note_on,55,0,480
2,note_on,57,51,0
2,note_on,57,0,480
2,note_on,58,58,0
2,note_on,58,0,480
2,note_on,60,64,0
2,note_on,60,0,120
2,note_on,65,45,0
2,note_on,65,0,120
2,note_on,64,49,0
2,note_on,64,0,120
2,note_on,65,45,0
2,note_on,65,0,120
2,note_on,57,56,0
2,note_on,57,0,120
2,note_on,65,46,0
2,note_on,65,0,120
2,note_on,64,49,0
2,note_on,64,0,120
2,note_on,65,46,0
2,note_on,65,0,120
2,note_on,58,56,0
2,note_on,58,0,120
2,note_on,65,46,0
2,note_on,65,0,120
2,note_on,64,49,0
2,note_on,64,0,120
2,note_on,65,47,0
2,note_on,65,0,120
2,note_on,55,57,0
2,note_on,55,0,120
2,note_on,64,45,0
2,note_on,64,0,120
2,note_on,62,49,0
2,note_on,62,0,120
2,note_on,64,46,0
2,note_on,64,0,120
2,note_on,53,59,0
2,note_on,65,59,0
2,note_on,65,0,475
2,note_on,53,0,0
2,note_on,29,75,485
2,note_on,41,75,0
2,note_on,41,0,240
2,note_on,29,0,0
2,note_on,34,58,720
2,note_on,46,58,0
2,note_on,46,0,960
2,note_on,34,0,0
2,note_on,39,57,1440
2,note_on,51,57,0
2,note_on,51,0,960
2,note_on,39,0,0
2,note_on,50,44,0
2,note_on,50,0,480
2,note_on,52,38,0
2,note_on,55,38,0
2,note_on,55,0,480
2,note_on,52,0,0
2,note_on,53,38,0
2,note_on,53,0,480
2,note_on,55,38,0
2,note_on,52,38,0
2,note_on,52,0,480
2,note_on,55,0,0
2,note_on,53,40,0
2,note_on,53,0,480
2,note_on,55,39,0
2,note_on,55,0,480
2,note_on,57,35,0
2,note_on,57,0,480
2,note_on,58,35,0
2,note_on,58,0,480
2,note_on,39,46,720
2,note_on,39,0,240
2,note_on,43,46,0
2,note_on,43,0,240
2,note_on,48,45,0
2,note_on,48,0,240
2,note_on,51,52,0
2,note_on,51,0,480
2,note_on,38,44,720
2,note_on,38,0,240
2,note_on,41,44,0
2,note_on,41,0,240
2,note_on,46,43,0
2,note_on,46,0,240
2,note_on,50,52,0
2,note_on,50,0,480
2,note_on,48,44,480
2,note_on,48,0,480
2,note_on,45,41,0
2,note_on,45,0,480
2,note_on,46,43,0
2,note_on,46,0,480
2,note_on,43,42,0
2,note_on,43,0,480
2,note_on,41,44,0
2,note_on,41,0,480
2,note_on,53,53,480
2,note_on,53,0,120
2,note_on,55,49,0
2,note_on,55,0,120
2,note_on,51,54,0
2,note_on,51,0,120
2,note_on,53,49,0
2,note_on,53,0,120
2,note_on,50,54,0
2,note_on,50,0,120
2,note_on,51,49,0
2,note_on,51,0,120
2,note_on,48,56,0
2,note_on,48,0,120
2,note_on,50,49,0
2,note_on,50,0,120
2,note_on,46,69,0
2,note_on,46,0,480
2,note_on,58,58,0
2,note_on,58,0,480
2,note_on,51,59,1440
2,note_on,63,59,0
2,note_on,63,0,960
2,note_on,51,0,0
2,note_on,62,43,0
2,note_on,62,0,480
2,note_on,64,43,0
2,note_on,67,43,0
2,note_on,67,0,480
2,note_on,64,0,0
2,note_on,65,43,0
2,note_on,65,0,480
2,note_on,64,43,0
2,note_on,67,43,0
2,note_on,67,0,480
2,note_on,64,0,0
2,note_on,65,41,0
2,note_on,65,0,480
2,note_on,67,43,0
2,note_on,70,43,0
2,note_on,70,0,480
2,note_on,67,0,0
2,note_on,69,43,0
2,note_on,72,43,0
2,note_on,72,0,480
2,note_on,69,0,0
2,note_on,70,46,0
2,note_on,70,0,480
2,note_on,55,54,720
2,note_on,55,0,240
2,note_on,67,61,0
2,note_on,67,0,120
2,note_on,65,53,120
2,note_on,65,0,120
2,note_on,63,60,120
2,note_on,63,0,120
2,note_on,51,53,120
2,note_on,51,0,240
2,note_on,63,61,0
2,note_on,63,0,120
2,note_on,62,53,120
2,note_on,62,0,120
2,note_on,60,57,120
2,note_on,60,0,240
2,note_on,58,53,0
2,note_on,58,0,240
2,note_on,57,53,0
2,note_on,57,0,240
2,note_on,53,53,0
2,note_on,53,0,240
2,note_on,58,60,0
2,note_on,58,0,480
2,note_on,50,54,0
2,note_on,50,0,480
2,note_on,51,59,0
2,note_on,51,0,480
2,note_on,63,53,0
2,note_on,63,0,480
2,note_on,65,54,0
2,note_on,65,0,480
2,note_on,53,53,0
2,note_on,53,0,480
2,note_on,58,53,0
2,note_on,58,0,120
2,note_on,65,46,0
2,note_on,65,0,120
2,note_on,64,49,0
2,note_on,64,0,120
2,note_on,65,46,0
2,note_on,65,0,120
2,note_on,67,53,0
2,note_on,67,0,120
2,note_on,65,47,0
2,note_on,65,0,120
2,note_on,64,49,0
2,note_on,64,0,120
2,note_on,65,46,0
2,note_on,65,0,120
2,note_on,63,53,0
2,note_on,63,0,120
2,note_on,65,51,0
2,note_on,65,0,120
2,note_on,62,53,0
2,note_on,62,0,120
2,note_on,65,49,0
2,note_on,65,0,120
2,note_on,60,53,0
2,note_on,60,0,120
2,note_on,65,50,0
2,note_on,65,0,120
2,note_on,58,53,0
2,note_on,58,0,120
2,note_on,65,50,0
2,note_on,65,0,120
2,note_on,57,48,0
2,note_on,57,0,120
2,note_on,65,40,0
2,note_on,65,0,120
2,note_on,60,42,0
2,note_on,60,0,120
2,note_on,65,38,0
2,note_on,65,0,120
2,note_on,63,48,0
2,note_on,63,0,120
2,note_on,65,40,0
2,note_on,65,0,120
2,note_on,63,42,0
2,note_on,63,0,120
2,note_on,65,39,0
2,note_on,65,0,120
2,note_on,57,47,0
2,note_on,57,0,120
2,note_on,65,40,0
2,note_on,65,0,120
2,note_on,60,43,0
2,note_on,60,0,120
2,note_on,65,40,0
2,note_on,65,0,120
2,note_on,63,48,0
2,note_on,63,0,120
2,note_on,65,42,0
2,note_on,65,0,120
2,note_on,63,42,0
2,note_on,63,0,120
2,note_on,65,42,0
2,note_on,65,0,120
2,note_on,62,44,0
2,note_on,62,0,120
2,note_on,65,45,0
2,note_on,65,0,120
2,note_on,57,45,0
2,note_on,57,0,120
2,note_on,65,45,0
2,note_on,65,0,120
2,note_on,58,46,0
2,note_on,58,0,120
2,note_on,65,47,0
2,note_on,65,0,120
2,note_on,60,48,0
2,note_on,60,0,120
2,note_on,65,49,0
2,note_on,65,0,120
2,note_on,61,53,0
2,note_on,61,0,120
2,note_on,65,48,0
2,note_on,65,0,120
2,note_on,62,53,0
2,note_on,62,0,120
2,note_on,65,46,0
2,note_on,65,0,120
2,note_on,61,53,0
2,note_on,61,0,120
2,note_on,65,46,0
2,note_on,65,0,120
2,note_on,62,53,0
2,note_on,62,0,120
2,note_on,65,47,0
2,note_on,65,0,120
2,note_on,57,48,0
2,note_on,57,0,120
2,note_on,65,39,0
2,note_on,65,0,120
2,note_on,60,42,0
2,note_on,60,0,120
2,note_on,65,39,0
2,note_on,65,0,120
2,note_on,63,48,0
2,note_on,63,0,120
2,note_on,65,40,0
2,note_on,65,0,120
2,note_on,63,42,0
2,note_on,63,0,120
2,note_on,65,39,0
2,note_on,65,0,120
2,note_on,57,47,0
2,note_on,57,0,120
2,note_on,65,39,0
2,note_on,65,0,120
2,note_on,60,43,0
2,note_on,60,0,120
2,note_on,65,39,0
2,note_on,65,0,120
2,note_on,63,48,0
2,note_on,63,0,120
2,note_on,65,42,0
2,note_on,65,0,120
2,note_on,63,42,0
2,note_on,63,0,120
2,note_on,65,42,0
2,note_on,65,0,120
2,note_on,62,44,0
2,note_on,62,0,120
2,note_on,65,45,0
2,note_on,65,0,120
2,note_on,57,45,0
2,note_on,57,0,120
2,note_on,65,45,0
2,note_on,65,0,120
2,note_on,58,46,0
2,note_on,58,0,120
2,note_on,65,47,0
2,note_on,65,0,120
2,note_on,60,48,0
2,note_on,60,0,120
2,note_on,65,49,0
2,note_on,65,0,120
2,note_on,61,53,0
2,note_on,61,0,120
2,note_on,65,48,0
2,note_on,65,0,120
2,note_on,62,53,0
2,note_on,62,0,120
2,note_on,65,46,0
2,note_on,65,0,120
2,note_on,61,53,0
2,note_on,61,0,120
2,note_on,65,46,0
2,note_on,65,0,120
2,note_on,62,53,0
2,note_on,62,0,120
2,note_on,65,47,0
2,note_on,65,0,120
2,note_on,51,38,240
2,note_on,51,0,240
2,note_on,50,40,0
2,note_on,50,0,240
2,note_on,51,38,0
2,note_on,51,0,240
2,note_on,53,38,240
2,note_on,53,0,240
2,note_on,52,40,0
2,note_on,52,0,240
2,note_on,53,38,0
2,note_on,53,0,240
2,note_on,54,38,240
2,note_on,54,0,240
2,note_on,52,42,0
2,note_on,52,0,240
2,note_on,54,38,0
2,note_on,54,0,240
2,note_on,55,40,240
2,note_on,55,0,240
2,note_on,54,42,0
2,note_on,54,0,240
2,note_on,55,39,0
2,note_on,55,0,240
2,note_on,63,54,480
2,note_on,72,54,0
2,note_on,72,0,480
2,note_on,63,0,0
2,note_on,65,54,0
2,note_on,74,54,0
2,note_on,74,0,480
2,note_on,75,45,0
2,note_on,75,0,480
2,note_on,65,0,0
2,note_on,70,34,0
2,note_on,74,41,0
2,note_on,74,0,960
2,note_on,70,0,0
2,note_on,70,28,0
2,note_on,74,34,0
2,note_on,74,0,960
2,note_on,70,0,0
2,note_on,71,29,0
2,note_on,74,29,0
2,note_on,77,35,0
2,note_on,77,0,960
2,note_on,74,0,0
2,note_on,71,0,0
2,note_on,72,28,0
2,note_on,75,34,0
2,note_on,75,0,960
2,note_on,72,0,0
2,note_on,69,29,0
2,note_on,72,29,0
2,note_on,75,35,0
2,note_on,75,0,960
2,note_on,72,0,0
2,note_on,69,0,0
2,note_on,70,28,0
2,note_on,74,33,0
2,note_on,74,0,960
2,note_on,70,0,0
2,note_on,67,29,0
2,note_on,70,29,0
2,note_on,74,35,0
2,note_on,74,0,960
2,note_on,70,0,0
2,note_on,67,0,0
2,note_on,69,28,0
2,note_on,72,33,0
2,note_on,72,0,960
2,note_on,69,0,0
2,note_on,66,28,0
2,note_on,69,28,0
2,note_on,72,33,0
2,note_on,72,0,960
2,note_on,69,0,0
2,note_on,66,0,0
2,note_on,67,28,0
2,note_on,70,34,0
2,note_on,70,0,960
2,note_on,67,0,0
2,note_on,64,30,240
2,note_on,70,36,0
2,note_on,70,0,239
2,note_on,64,0,0
2,note_on,64,35,1
2,note_on,70,42,0
2,note_on,70,0,239
2,note_on,64,0,1
2,note_on,64,32,0
2,note_on,70,38,0
2,note_on,70,0,240
2,note_on,64,0,0
2,note_on,65,34,240
2,note_on,70,41,0
2,note_on,70,0,240
2,note_on,65,0,0
2,note_on,65,39,0
2,note_on,70,46,0
2,note_on,70,0,240
2,note_on,65,0,0
2,note_on,65,37,0
2,note_on,70,44,0
2,note_on,70,0,240
2,note_on,65,0,0
2,note_on,67,39,240
2,note_on,70,46,0
2,note_on,70,0,240
2,note_on,67,0,0
2,note_on,67,45,0
2,note_on,70,53,0
2,note_on,70,0,240
2,note_on,67,0,0
2,note_on,67,42,0
2,note_on,70,50,0
2,note_on,70,0,240
2,note_on,67,0,0
2,note_on,66,53,240
2,note_on,70,63,0
2,note_on,70,0,240
2,note_on,66,0,0
2,note_on,66,58,0
2,note_on,70,69,0
2,note_on,70,0,240
2,note_on,66,0,0
2,note_on,66,54,0
2,note_on,70,64,0
2,note_on,70,0,240
2,note_on,66,0,0
2,note_on,65,53,0
2,note_on,70,63,0
2,note_on,70,0,480
2,note_on,65,0,0
2,note_on,62,53,0
2,note_on,70,63,0
2,note_on,70,0,480
2,note_on,62,0,0
2,note_on,63,53,0
2,note_on,70,63,0
2,note_on,70,0,480
2,note_on,63,0,0
2,note_on,60,53,0
2,note_on,65,63,0
2,note_on,65,0,480
2,note_on,60,0,0
2,note_on,58,51,0
2,note_on,65,60,0
2,note_on,65,0,480
2,note_on,58,0,0
2,note_on,50,43,0
2,note_on,53,51,0
2,note_on,53,0,480
2,note_on,50,0,0
2,note_on,51,42,0
2,note_on,58,50,0
2,note_on,58,0,480
2,note_on,51,0,0
2,note_on,51,39,0
2,note_on,55,46,0
2,note_on,55,0,480
2,note_on,51,0,0
2,note_on,58,46,480
2,note_on,50,46,0
2,note_on,50,0,480
2,note_on,51,46,0
2,note_on,51,0,480
2,note_on,58,0,0
2,note_on,57,46,0
2,note_on,53,46,0
2,note_on,53,0,480
2,note_on,57,0,0
2,note_on,46,52,0
2,note_on,58,52,0
2,note_on,58,0,120
2,note_on,46,0,0
2,note_on,57,35,360
2,note_on,57,0,240
2,note_on,56,33,0
2,note_on,56,0,240
2,note_on,46,43,0
2,note_on,55,43,0
2,note_on,55,0,120
2,note_on,46,0,0
2,note_on,57,35,360
2,note_on,57,0,240
2,note_on,56,33,0
2,note_on,56,0,240
2,note_on,46,42,0
2,note_on,55,42,0
2,note_on,55,0,120
2,note_on,46,0,0
2,note_on,57,47,360
2,note_on,57,0,240
2,note_on,56,47,0
2,note_on,56,0,240
2,note_on,55,51,0
2,note_on,55,0,240
2,note_on,50,50,0
2,note_on,50,0,240
2,note_on,51,50,0
2,note_on,51,0,240
2,note_on,48,50,0
2,note_on,48,0,240
2,note_on,50,57,0
2,note_on,50,0,480
2,note_on,51,53,480
2,note_on,51,0,480
2,note_on,53,52,480
2,note_on,53,0,240
2,note_on,58,48,0
2,note_on,58,0,240
2,note_on,62,48,0
2,note_on,62,0,240
2,note_on,58,48,0
2,note_on,58,0,240
2,note_on,53,53,0
2,note_on,53,0,240
2,note_on,60,49,0
2,note_on,60,0,240
2,note_on,63,49,0
2,note_on,63,0,240
2,note_on,60,48,0
2,note_on,60,0,240
2,note_on,58,56,0
2,note_on,62,56,0
2,note_on,62,0,120
2,note_on,58,0,0
2,note_on,69,35,360
2,note_on,69,0,240
2,note_on,68,35,0
2,note_on,68,0,240
2,note_on,58,43,0
2,note_on,67,43,0
2,note_on,67,0,120
2,note_on,58,0,0
2,note_on,70,35,120
2,note_on,70,0,240
2,note_on,69,35,0
2,note_on,69,0,240
2,note_on,68,35,0
2,note_on,68,0,240
2,note_on,58,46,0
2,note_on,67,46,0
2,note_on,67,0,120
2,note_on,58,0,0
2,note_on,70,38,120
2,note_on,70,0,240
2,note_on,69,47,0
2,note_on,69,0,240
2,note_on,68,47,0
2,note_on,68,0,240
2,note_on,67,51,0
2,note_on,67,0,240
2,note_on,62,49,0
2,note_on,62,0,240
2,note_on,63,50,0
2,note_on,63,0,240
2,note_on,60,50,0
2,note_on,60,0,240
2,note_on,50,68,0
2,note_on,62,68,0
2,note_on,62,0,480
2,note_on,50,0,0
2,note_on,63,69,480
2,note_on,51,69,0
2,note_on,51,0,480
2,note_on,63,0,0
2,note_on,53,48,480
2,note_on,53,0,120
2,note_on,62,41,0
2,note_on,62,0,120
2,note_on,58,44,0
2,note_on,58,0,120
2,note_on,62,39,0
2,note_on,62,0,120
2,note_on,53,48,0
2,note_on,53,0,120
2,note_on,62,40,0
2,note_on,62,0,120
2,note_on,58,44,0
2,note_on,58,0,120
2,note_on,62,41,0
2,note_on,62,0,120
2,note_on,53,48,0
2,note_on,53,0,120
2,note_on,62,42,0
2,note_on,62,0,120
2,note_on,58,46,0
2,note_on,58,0,120
2,note_on,62,42,0
2,note_on,62,0,120
2,note_on,53,48,0
2,note_on,53,0,120
2,note_on,62,44,0
2,note_on,62,0,120
2,note_on,58,46,0
2,note_on,58,0,120
2,note_on,62,43,0
2,note_on,62,0,120
2,note_on,53,48,0
2,note_on,53,0,120
2,note_on,63,40,0
2,note_on,63,0,120
2,note_on,57,43,0
2,note_on,57,0,120
2,note_on,63,40,0
2,note_on,63,0,120
2,note_on,53,48,0
2,note_on,53,0,120
2,note_on,63,39,0
2,note_on,63,0,120
2,note_on,57,43,0
2,note_on,57,0,120
2,note_on,63,39,0
2,note_on,63,0,120
2,note_on,53,48,0
2,note_on,53,0,120
2,note_on,63,39,0
2,note_on,63,0,120
2,note_on,57,43,0
2,note_on,57,0,120
2,note_on,63,38,0
2,note_on,63,0,120
2,note_on,53,48,0
2,note_on,53,0,120
2,note_on,63,42,0
2,note_on,63,0,120
2,note_on,57,45,0
2,note_on,57,0,120
2,note_on,63,40,0
2,note_on,63,0,120
2,note_on,58,51,0
2,note_on,58,0,240
2,note_on,70,44,0
2,note_on,70,0,240
2,note_on,69,44,0
2,note_on,69,0,240
2,note_on,70,48,0
2,note_on,70,0,240
2,note_on,72,49,0
2,note_on,72,0,240
2,note_on,70,52,0
2,note_on,70,0,240
2,note_on,69,56,0
2,note_on,69,0,240
2,note_on,68,59,0
2,note_on,68,0,240
2,note_on,67,64,0
2,note_on,67,0,240
2,note_on,58,49,0
2,note_on,58,0,240
2,note_on,66,58,0
2,note_on,66,0,240
2,note_on,58,49,0
2,note_on,58,0,240
2,note_on,65,57,0
2,note_on,65,0,240
2,note_on,58,48,0
2,note_on,58,0,240
2,note_on,69,55,0
2,note_on,69,0,240
2,note_on,58,48,0
2,note_on,58,0,240
2,note_on,70,53,0
2,note_on,70,0,120
2,note_on,58,41,120
2,note_on,58,0,240
2,note_on,57,41,0
2,note_on,57,0,240
2,note_on,58,37,0
2,note_on,58,0,240
2,note_on,60,45,0
2,note_on,60,0,240
2,note_on,58,43,0
2,note_on,58,0,240
2,note_on,57,43,0
2,note_on,57,0,240
2,note_on,56,38,0
2,note_on,56,0,240
2,note_on,55,45,0
2,note_on,55,0,480
2,note_on,51,35,0
2,note_on,51,0,480
2,note_on,53,35,0
2,note_on,53,0,480
2,note_on,53,35,0
2,note_on,53,0,480
2,note_on,58,37,0
2,note_on,58,0,480
2,note_on,53,28,0
2,note_on,53,0,480
2,note_on,46,28,0
2,note_on,46,0,360
2,note_on,41,33,720
2,note_on,41,0,240
2,note_on,45,35,0
2,note_on,45,0,240
2,note_on,48,33,0
2,note_on,48,0,240
2,note_on,45,38,0
2,note_on,45,0,240
2,note_on,41,32,0
2,note_on,41,0,240
2,note_on,45,34,0
2,note_on,45,0,240
2,note_on,48,32,0
2,note_on,48,0,240
2,note_on,55,32,240
2,note_on,55,0,240
2,note_on,58,35,0
2,note_on,58,0,240
2,note_on,64,33,0
2,note_on,64,0,240
2,note_on,58,34,0
2,note_on,58,0,240
2,note_on,55,30,0
2,note_on,55,0,240
2,note_on,58,34,0
2,note_on,58,0,240
2,note_on,64,30,0
2,note_on,64,0,240
2,note_on,43,32,240
2,note_on,43,0,240
2,note_on,46,35,0
2,note_on,46,0,240
2,note_on,52,32,0
2,note_on,52,0,240
2,note_on,46,39,0
2,note_on,46,0,240
2,note_on,43,33,0
2,note_on,43,0,240
2,note_on,46,35,0
2,note_on,46,0,240
2,note_on,52,33,0
2,note_on,52,0,240
2,note_on,57,33,240
2,note_on,57,0,240
2,note_on,60,35,0
2,note_on,60,0,240
2,note_on,63,34,0
2,note_on,63,0,240
2,note_on,60,37,0
2,note_on,60,0,240
2,note_on,57,32,0
2,note_on,57,0,240
2,note_on,60,34,0
2,note_on,60,0,240
2,note_on,63,34,0
2,note_on,63,0,240
2,note_on,46,41,240
2,note_on,46,0,240
2,note_on,50,47,0
2,note_on,50,0,240
2,note_on,55,44,0
2,note_on,55,0,240
2,note_on,48,46,240
2,note_on,48,0,240
2,note_on,55,49,0
2,note_on,55,0,240
2,note_on,58,46,0
2,note_on,58,0,240
2,note_on,50,48,240
2,note_on,50,0,240
2,note_on,53,50,0
2,note_on,53,0,240
2,note_on,56,45,0
2,note_on,56,0,240
2,note_on,53,52,0
2,note_on,53,0,240
2,note_on,50,49,0
2,note_on,50,0,240
2,note_on,53,53,0
2,note_on,53,0,240
2,note_on,56,50,0
2,note_on,56,0,240
2,note_on,48,63,0
2,note_on,57,63,0
2,note_on,57,0,960
2,note_on,48,0,0
2,note_on,60,48,0
2,note_on,60,0,480
2,note_on,48,45,0
2,note_on,48,0,480
2,note_on,53,41,0
2,note_on,53,0,120
2,note_on,60,34,0
2,note_on,60,0,120
2,note_on,56,37,0
2,note_on,56,0,120
2,note_on,60,34,0
2,note_on,60,0,120
2,note_on,53,41,0
2,note_on,60,34,120
2,note_on,53,0,24
2,note_on,56,37,96
2,note_on,60,0,24
2,note_on,60,34,96
2,note_on,56,0,24
2,note_on,53,46,96
2,note_on,60,0,24
2,note_on,60,36,96
2,note_on,53,0,24
2,note_on,56,41,96
2,note_on,60,0,24
2,note_on,60,37,96
2,note_on,56,0,24
2,note_on,53,49,96
2,note_on,60,0,24
2,note_on,60,39,96
2,note_on,53,0,24
2,note_on,56,44,96
2,note_on,60,0,24
2,note_on,60,39,96
2,note_on,56,0,24
2,note_on,53,49,96
2,note_on,60,0,24
2,note_on,60,43,96
2,note_on,53,0,24
2,note_on,56,45,96
2,note_on,60,0,24
2,note_on,60,43,96
2,note_on,56,0,24
2,note_on,53,49,96
2,note_on,60,0,24
2,note_on,60,43,96
2,note_on,53,0,24
2,note_on,56,45,96
2,note_on,60,0,24
2,note_on,60,43,96
2,note_on,56,0,24
2,note_on,53,48,96
2,note_on,60,0,24
2,note_on,62,39,96
2,note_on,53,0,24
2,note_on,56,45,96
2,note_on,62,0,24
2,note_on,62,40,96
2,note_on,56,0,24
2,note_on,53,47,96
2,note_on,62,0,24
2,note_on,62,40,96
2,note_on,53,0,24
2,note_on,56,45,96
2,note_on,62,0,24
2,note_on,62,40,96
2,note_on,56,0,24
2,note_on,55,54,96
2,note_on,62,0,24
2,note_on,55,0,96
2,note_on,65,46,0
2,note_on,65,0,120
2,note_on,62,48,0
2,note_on,62,0,120
2,note_on,65,45,0
2,note_on,65,0,120
2,note_on,55,54,0
2,note_on,55,0,120
2,note_on,65,45,0
2,note_on,65,0,120
2,note_on,62,48,0
2,note_on,62,0,120
2,note_on,65,45,0
2,note_on,65,0,120
2,note_on,55,54,0
2,note_on,55,0,120
2,note_on,65,46,0
2,note_on,65,0,120
2,note_on,62,48,0
2,note_on,62,0,120
2,note_on,65,45,0
2,note_on,65,0,120
2,note_on,55,52,0
2,note_on,55,0,120
2,note_on,65,45,0
2,note_on,65,0,120
2,note_on,62,48,0
2,note_on,62,0,120
2,note_on,65,45,0
2,note_on,65,0,120
2,note_on,55,53,0
2,note_on,55,0,120
2,note_on,65,45,0
2,note_on,65,0,120
2,note_on,62,48,0
2,note_on,62,0,120
2,note_on,65,45,0
2,note_on,65,0,120
2,note_on,55,53,0
2,note_on,55,0,120
2,note_on,65,45,0
2,note_on,65,0,120
2,note_on,62,48,0
2,note_on,62,0,120
2,note_on,65,45,0
2,note_on,65,0,120
2,note_on,55,53,0
2,note_on,55,0,120
2,note_on,62,46,0
2,note_on,62,0,120
2,note_on,59,48,0
2,note_on,59,0,120
2,note_on,62,45,0
2,note_on,62,0,120
2,note_on,55,53,0
2,note_on,55,0,120
2,note_on,62,45,0
2,note_on,62,0,120
2,note_on,59,48,0
2,note_on,59,0,120
2,note_on,62,45,0
2,note_on,62,0,120
2,note_on,55,48,0
2,note_on,55,0,120
2,note_on,64,39,0
2,note_on,64,0,120
2,note_on,60,44,0
2,note_on,60,0,120
2,note_on,64,39,0
2,note_on,64,0,120
2,note_on,55,48,0
2,note_on,55,0,120
2,note_on,63,41,0
2,note_on,63,0,120
2,note_on,60,44,0
2,note_on,60,0,120
2,note_on,63,41,0
2,note_on,63,0,120
2,note_on,55,48,0
2,note_on,63,40,120
2,note_on,55,0,24
2,note_on,60,44,96
2,note_on,63,0,24
2,note_on,63,38,96
2,note_on,60,0,24
2,note_on,55,48,96
2,note_on,63,0,24
2,note_on,63,40,96
2,note_on,55,0,24
2,note_on,60,45,96
2,note_on,63,0,24
2,note_on,63,40,96
2,note_on,60,0,24
2,note_on,54,54,96
2,note_on,63,0,24
2,note_on,54,0,96
2,note_on,63,40,0
2,note_on,63,0,120
2,note_on,58,44,0
2,note_on,58,0,120
2,note_on,63,41,0
2,note_on,63,0,120
2,note_on,54,49,0
2,note_on,54,0,120
2,note_on,63,42,0
2,note_on,63,0,120
2,note_on,58,45,0
2,note_on,58,0,120
2,note_on,63,40,0
2,note_on,63,0,120
2,note_on,54,54,0
2,note_on,54,0,120
2,note_on,63,42,0
2,note_on,63,0,120
2,note_on,58,45,0
2,note_on,58,0,120
2,note_on,63,42,0
2,note_on,63,0,120
2,note_on,54,48,0
2,note_on,54,0,120
2,note_on,63,40,0
2,note_on,63,0,120
2,note_on,58,45,0
2,note_on,58,0,120
2,note_on,63,40,0
2,note_on,63,0,120
2,note_on,53,49,0
2,note_on,53,0,120
2,note_on,63,40,0
2,note_on,63,0,120
2,note_on,60,45,0
2,note_on,60,0,120
2,note_on,63,41,0
2,note_on,63,0,120
2,note_on,53,50,0
2,note_on,53,0,120
2,note_on,63,42,0
2,note_on,63,0,120
2,note_on,60,45,0
2,note_on,60,0,120
2,note_on,63,40,0
2,note_on,63,0,120
2,note_on,53,50,0
2,note_on,63,43,120
2,note_on,53,0,24
2,note_on,60,48,96
2,note_on,63,0,24
2,note_on,63,43,96
2,note_on,60,0,24
2,note_on,53,54,96
2,note_on,63,0,24
2,note_on,63,45,96
2,note_on,53,0,24
2,note_on,60,48,96
2,note_on,63,0,24
2,note_on,63,45,96
2,note_on,60,0,24
2,note_on,53,54,96
2,note_on,63,0,24
2,note_on,63,45,96
2,note_on,53,0,24
2,note_on,60,48,96
2,note_on,63,0,24
2,note_on,63,44,96
2,note_on,60,0,24
2,note_on,53,54,96
2,note_on,63,0,24
2,note_on,63,45,96
2,note_on,53,0,24
2,note_on,60,48,96
2,note_on,63,0,24
2,note_on,63,44,96
2,note_on,60,0,24
2,note_on,53,52,96
2,note_on,63,0,24
2,note_on,60,44,96
2,note_on,53,0,24
2,note_on,57,48,96
2,note_on,60,0,24
2,note_on,60,44,96
2,note_on,57,0,24
2,note_on,53,53,96
2,note_on,60,0,24
2,note_on,60,44,96
2,note_on,53,0,24
2,note_on,57,47,96
2,note_on,60,0,24
2,note_on,60,44,96
2,note_on,57,0,24
2,note_on,54,44,96
2,note_on,60,0,24
2,note_on,54,0,96
2,note_on,60,39,0
2,note_on,60,0,120
2,note_on,57,40,0
2,note_on,60,35,120
2,note_on,57,0,24
2,note_on,54,44,96
2,note_on,60,0,24
2,note_on,54,0,96
2,note_on,60,33,0
2,note_on,60,0,120
2,note_on,57,39,0
2,note_on,57,0,120
2,note_on,60,34,0
2,note_on,60,0,120
2,note_on,54,44,0
2,note_on,54,0,120
2,note_on,60,33,0
2,note_on,60,0,120
2,note_on,57,39,0
2,note_on,57,0,120
2,note_on,60,33,0
2,note_on,60,0,120
2,note_on,54,44,0
2,note_on,54,0,120
2,note_on,62,35,0
2,note_on,62,0,120
2,note_on,57,39,0
2,note_on,57,0,120
2,note_on,62,34,0
2,note_on,62,0,120
2,note_on,55,48,0
2,note_on,55,0,120
2,note_on,62,39,0
2,note_on,62,0,120
2,note_on,58,44,0
2,note_on,58,0,120
2,note_on,62,39,0
2,note_on,62,0,120
2,note_on,53,48,0
2,note_on,53,0,120
2,note_on,62,38,0
2,note_on,62,0,120
2,note_on,57,44,0
2,note_on,57,0,120
2,note_on,62,38,0
2,note_on,62,0,120
2,note_on,52,48,0
2,note_on,62,38,120
2,note_on,52,0,24
2,note_on,55,44,96
2,note_on,62,0,24
2,note_on,62,37,96
2,note_on,55,0,24
2,note_on,51,48,96
2,note_on,62,0,24
2,note_on,61,38,96
2,note_on,51,0,24
2,note_on,55,44,96
2,note_on,61,0,24
2,note_on,61,39,96
2,note_on,55,0,24
2,note_on,50,38,96
2,note_on,62,38,0
2,note_on,61,0,24
2,note_on,62,0,456
2,note_on,50,0,0
2,note_on,62,45,960
2,note_on,66,45,0
2,note_on,66,0,480
2,note_on,62,0,0
2,note_on,63,45,0
2,note_on,67,45,0
2,note_on,67,0,480
2,note_on,63,0,0
2,note_on,51,54,960
2,note_on,61,54,0
2,note_on,61,0,480
2,note_on,51,0,0
2,note_on,50,49,0
2,note_on,62,49,0
2,note_on,62,0,480
2,note_on,50,0,0
2,note_on,50,45,960
2,note_on,60,45,0
2,note_on,60,0,480
2,note_on,50,0,0
2,note_on,51,42,0
2,note_on,58,42,0
2,note_on,58,0,480
2,note_on,51,0,0
2,note_on,51,32,960
2,note_on,55,32,0
2,note_on,55,0,480
2,note_on,51,0,0
2,note_on,50,24,0
2,note_on,54,24,0
2,note_on,54,0,240
2,note_on,50,0,0
2,note_on,50,27,240
2,note_on,55,27,0
2,note_on,58,27,0
2,note_on,58,0,240
2,note_on,55,0,0
2,note_on,50,0,0
2,note_on,50,28,240
2,note_on,54,28,0
2,note_on,57,28,0
2,note_on,57,0,240
2,note_on,54,0,0
2,note_on,50,0,0
2,note_on,50,32,240
2,note_on,55,32,0
2,note_on,58,32,0
2,note_on,58,0,240
2,note_on,55,0,0
2,note_on,50,0,0
2,note_on,50,34,240
2,note_on,54,34,0
2,note_on,57,34,0
2,note_on,57,0,480
2,note_on,54,0,0
2,note_on,50,0,0
2,note_on,60,30,1680
2,note_on,65,30,0
2,note_on,69,34,0
2,note_on,69,0,240
2,note_on,65,0,0
2,note_on,60,0,0
2,note_on,60,33,0
2,note_on,65,33,0
2,note_on,69,37,0
2,note_on,69,0,240
2,note_on,65,0,0
2,note_on,60,0,0
2,note_on,60,36,0
2,note_on,65,36,0
2,note_on,69,40,0
2,note_on,69,0,240
2,note_on,65,0,0
2,note_on,60,0,0
2,note_on,60,39,0
2,note_on,65,39,0
2,note_on,69,44,0
2,note_on,69,0,480
2,note_on,65,0,0
2,note_on,60,0,0
2,note_on,65,32,720
2,note_on,72,32,0
2,note_on,75,36,0
2,note_on,75,0,240
2,note_on,72,0,0
2,note_on,65,0,0
2,note_on,65,36,0
2,note_on,72,36,0
2,note_on,75,40,0
2,note_on,75,0,240
2,note_on,72,0,0
2,note_on,65,0,0
2,note_on,65,39,0
2,note_on,72,39,0
2,note_on,75,44,0
2,note_on,75,0,240
2,note_on,72,0,0
2,note_on,65,0,0
2,note_on,65,42,0
2,note_on,72,42,0
2,note_on,75,47,0
2,note_on,75,0,480
2,note_on,72,0,0
2,note_on,65,0,0
2,note_on,65,47,720
2,note_on,65,0,240
2,note_on,72,45,0
2,note_on,72,0,240
2,note_on,75,45,0
2,note_on,75,0,240
2,note_on,66,47,0
2,note_on,66,0,960
2,note_on,65,38,240
2,note_on,65,0,240
2,note_on,72,41,0
2,note_on,72,0,240
2,note_on,75,37,0
2,note_on,75,0,240
2,note_on,66,49,0
2,note_on,66,0,960
2,note_on,65,46,0
2,note_on,65,0,240
2,note_on,66,52,240
2,note_on,72,52,0
2,note_on,75,52,0
2,note_on,66,0,480
2,note_on,65,49,0
2,note_on,65,0,480
2,note_on,75,0,0
2,note_on,72,0,0
2,note_on,72,53,0
2,note_on,75,53,0
2,note_on,66,53,0
2,note_on,66,0,480
2,note_on,65,50,0
2,note_on,65,0,480
2,note_on,75,0,0
2,note_on,72,0,0
2,note_on,58,37,720
2,note_on,58,0,240
2,note_on,62,37,0
2,note_on,62,0,240
2,note_on,65,33,0
2,note_on,65,0,240
2,note_on,62,36,0
2,note_on,62,0,240
2,note_on,58,33,0
2,note_on,58,0,240
2,note_on,62,41,0
2,note_on,62,0,240
2,note_on,67,38,0
2,note_on,67,0,240
2,note_on,60,34,240
2,note_on,60,0,240
2,note_on,63,39,0
2,note_on,63,0,240
2,note_on,67,36,0
2,note_on,67,0,240
2,note_on,63,44,0
2,note_on,63,0,240
2,note_on,60,37,0
2,note_on,60,0,240
2,note_on,63,38,0
2,note_on,63,0,240
2,note_on,67,34,0
2,note_on,67,0,240
2,note_on,53,35,240
2,note_on,53,0,240
2,note_on,60,35,0
2,note_on,60,0,240
2,note_on,63,34,0
2,note_on,63,0,240
2,note_on,60,47,0
2,note_on,60,0,240
2,note_on,53,36,0
2,note_on,53,0,240
2,note_on,60,43,0
2,note_on,60,0,240
2,note_on,63,36,0
2,note_on,63,0,240
2,note_on,58,42,240
2,note_on,58,0,240
2,note_on,62,42,0
2,note_on,62,0,240
2,note_on,65,36,0
2,note_on,65,0,240
2,note_on,62,45,0
2,note_on,62,0,240
2,note_on,58,42,0
2,note_on,58,0,240
2,note_on,62,42,0
2,note_on,62,0,240
2,note_on,65,39,0
2,note_on,65,0,240
2,note_on,63,45,0
2,note_on,63,0,240
2,note_on,67,37,0
2,note_on,67,0,240
2,note_on,62,40,0
2,note_on,62,0,240
2,note_on,65,35,0
2,note_on,65,0,240
2,note_on,63,45,0
2,note_on,63,0,240
2,note_on,67,35,0
2,note_on,67,0,240
2,note_on,60,38,0
2,note_on,60,0,240
2,note_on,63,32,0
2,note_on,63,0,240
2,note_on,62,42,0
2,note_on,65,42,0
2,note_on,65,0,480
2,note_on,62,0,0
2,note_on,63,47,1440
2,note_on,63,0,240
2,note_on,67,36,0
2,note_on,67,0,240
2,note_on,62,40,0
2,note_on,62,0,240
2,note_on,65,33,0
2,note_on,65,0,240
2,note_on,63,47,0
2,note_on,63,0,240
2,note_on,67,37,0
2,note_on,67,0,240
2,note_on,60,39,0
2,note_on,60,0,240
2,note_on,63,32,0
2,note_on,63,0,240
2,note_on,65,47,0
2,note_on,62,47,0
2,note_on,62,0,480
2,note_on,65,0,0
2,note_on,57,61,1440
2,note_on,57,0,480
2,note_on,58,55,0
2,note_on,58,0,480
2,note_on,51,63,0
2,note_on,51,0,480
2,note_on,53,57,0
2,note_on,53,0,480
2,note_on,46,52,240
2,note_on,46,0,120
2,note_on,50,55,120
2,note_on,50,0,120
2,note_on,53,50,120
2,note_on,53,0,120
2,note_on,58,61,120
2,note_on,58,0,480
2,note_on,46,34,720
2,note_on,46,0,240
2,note_on,50,37,0
2,note_on,50,0,240
2,note_on,53,34,0
2,note_on,53,0,240
2,note_on,50,43,0
2,note_on,50,0,240
2,note_on,46,35,0
2,note_on,46,0,240
2,note_on,50,39,0
2,note_on,50,0,240
2,note_on,53,39,0
2,note_on,53,0,240
2,note_on,46,37,240
2,note_on,46,0,240
2,note_on,50,41,0
2,note_on,50,0,240
2,note_on,53,37,0
2,note_on,53,0,240
2,note_on,50,43,0
2,note_on,50,0,240
2,note_on,46,38,0
2,note_on,46,0,240
2,note_on,50,38,0
2,note_on,50,0,240
2,note_on,53,34,0
2,note_on,53,0,240
2,note_on,46,47,240
2,note_on,46,0,240
2,note_on,50,47,0
2,note_on,50,0,240
2,note_on,53,45,0
2,note_on,53,0,240
2,note_on,56,53,0
2,note_on,56,0,240
2,note_on,53,45,0
2,note_on,53,0,240
2,note_on,50,48,0
2,note_on,50,0,240
2,note_on,46,45,0
2,note_on,46,0,240
2,note_on,47,36,240
2,note_on,47,0,240
2,note_on,50,36,0
2,note_on,50,0,240
2,note_on,53,36,0
2,note_on,53,0,240
2,note_on,55,41,0
2,note_on,55,0,240
2,note_on,53,33,0
2,note_on,53,0,240
2,note_on,50,34,0
2,note_on,50,0,240
2,note_on,47,32,0
2,note_on,47,0,240
2,note_on,58,33,240
2,note_on,58,0,240
2,note_on,61,36,0
2,note_on,61,0,240
2,note_on,64,32,0
2,note_on,64,0,240
2,note_on,67,40,0
2,note_on,67,0,480
2,note_on,57,34,720
2,note_on,57,0,240
2,note_on,60,34,0
2,note_on,60,0,240
2,note_on,65,32,0
2,note_on,65,0,240
2,note_on,69,39,0
2,note_on,69,0,480
2,note_on,58,32,720
2,note_on,58,0,240
2,note_on,62,34,0
2,note_on,62,0,240
2,note_on,65,30,0
2,note_on,65,0,240
2,note_on,70,38,0
2,note_on,70,0,480
2,note_on,63,42,480
2,note_on,63,0,240
2,note_on,67,38,0
2,note_on,67,0,240
2,note_on,63,42,0
2,note_on,63,0,240
2,note_on,65,38,0
2,note_on,65,0,240
2,note_on,62,41,0
2,note_on,62,0,240
2,note_on,65,38,0
2,note_on,65,0,240
2,note_on,62,41,0
2,note_on,62,0,240
2,note_on,65,38,0
2,note_on,65,0,240
2,note_on,63,41,0
2,note_on,63,0,240
2,note_on,65,38,0
2,note_on,65,0,240
2,note_on,63,41,0
2,note_on,63,0,240
2,note_on,65,38,0
2,note_on,65,0,240
2,note_on,62,41,0
2,note_on,62,0,240
2,note_on,65,38,0
2,note_on,65,0,240
2,note_on,62,41,0
2,note_on,62,0,240
2,note_on,65,38,0
2,note_on,65,0,240
2,note_on,63,41,0
2,note_on,63,0,240
2,note_on,67,38,0
2,note_on,67,0,240
2,note_on,63,41,0
2,note_on,63,0,240
2,note_on,67,38,0
2,note_on,67,0,240
2,note_on,64,41,0
2,note_on,64,0,240
2,note_on,67,38,0
2,note_on,67,0,240
2,note_on,64,41,0
2,note_on,64,0,240
2,note_on,67,38,0
2,note_on,67,0,240
2,note_on,53,41,0
2,note_on,53,0,480
2,note_on,55,47,0
2,note_on,55,0,480
2,note_on,57,52,0
2,note_on,57,0,480
2,note_on,58,58,0
2,note_on,58,0,480
2,note_on,60,64,0
2,note_on,60,0,240
2,note_on,65,45,0
2,note_on,65,0,240
2,note_on,57,51,0
2,note_on,57,0,240
2,note_on,65,46,0
2,note_on,65,0,240
2,note_on,58,52,0
2,note_on,58,0,240
2,note_on,65,46,0
2,note_on,65,0,240
2,note_on,55,52,0
2,note_on,55,0,240
2,note_on,65,46,0
2,note_on,65,0,240
2,note_on,53,40,0
2,note_on,53,0,480
2,note_on,55,46,0
2,note_on,55,0,480
2,note_on,57,51,0
2,note_on,57,0,480
2,note_on,58,58,0
2,note_on,58,0,480
2,note_on,60,64,0
2,note_on,60,0,120
2,note_on,65,45,0
2,note_on,65,0,120
2,note_on,64,49,0
2,note_on,64,0,120
2,note_on,65,45,0
2,note_on,65,0,120
2,note_on,57,56,0
2,note_on,57,0,120
2,note_on,65,46,0
2,note_on,65,0,120
2,note_on,64,49,0
2,note_on,64,0,120
2,note_on,65,46,0
2,note_on,65,0,120
2,note_on,58,56,0
2,note_on,58,0,120
2,note_on,65,46,0
2,note_on,65,0,120
2,note_on,64,49,0
2,note_on,64,0,120
2,note_on,65,47,0
2,note_on,65,0,120
2,note_on,55,57,0
2,note_on,55,0,120
2,note_on,64,45,0
2,note_on,64,0,120
2,note_on,62,49,0
2,note_on,62,0,120
2,note_on,64,46,0
2,note_on,64,0,120
2,note_on,53,59,0
2,note_on,65,59,0
2,note_on,65,0,475
2,note_on,53,0,0
2,note_on,29,75,485
2,note_on,41,75,0
2,note_on,41,0,240
2,note_on,29,0,0
2,note_on,34,58,720
2,note_on,46,58,0
2,note_on,46,0,960
2,note_on,34,0,0
2,note_on,39,57,1440
2,note_on,51,57,0
2,note_on,51,0,960
2,note_on,39,0,0
2,note_on,50,44,0
2,note_on,50,0,480
2,note_on,52,38,0
2,note_on,55,38,0
2,note_on,55,0,480
2,note_on,52,0,0
2,note_on,53,38,0
2,note_on,53,0,480
2,note_on,55,38,0
2,note_on,52,38,0
2,note_on,52,0,480
2,note_on,55,0,0
2,note_on,53,40,0
2,note_on,53,0,480
2,note_on,55,39,0
2,note_on,55,0,480
2,note_on,57,35,0
2,note_on,57,0,480
2,note_on,58,35,0
2,note_on,58,0,480
2,note_on,39,46,720
2,note_on,39,0,240
2,note_on,43,46,0
2,note_on,43,0,240
2,note_on,48,45,0
2,note_on,48,0,240
2,note_on,51,52,0
2,note_on,51,0,480
2,note_on,38,44,720
2,note_on,38,0,240
2,note_on,41,44,0
2,note_on,41,0,240
2,note_on,46,43,0
2,note_on,46,0,240
2,note_on,50,52,0
2,note_on,50,0,480
2,note_on,48,44,480
2,note_on,48,0,480
2,note_on,45,41,0
2,note_on,45,0,480
2,note_on,46,43,0
2,note_on,46,0,480
2,note_on,43,42,0
2,note_on,43,0,480
2,note_on,41,44,0
2,note_on,41,0,480
2,note_on,53,53,480
2,note_on,53,0,120
2,note_on,55,49,0
2,note_on,55,0,120
2,note_on,51,54,0
2,note_on,51,0,120
2,note_on,53,49,0
2,note_on,53,0,120
2,note_on,50,54,0
2,note_on,50,0,120
2,note_on,51,49,0
2,note_on,51,0,120
2,note_on,48,56,0
2,note_on,48,0,120
2,note_on,50,49,0
2,note_on,50,0,120
2,note_on,46,69,0
2,note_on,46,0,480
2,note_on,58,58,0
2,note_on,58,0,480
2,note_on,51,59,1440
2,note_on,63,59,0
2,note_on,63,0,960
2,note_on,51,0,0
2,note_on,62,43,0
2,note_on,62,0,480
2,note_on,64,43,0
2,note_on,67,43,0
2,note_on,67,0,480
2,note_on,64,0,0
2,note_on,65,43,0
2,note_on,65,0,480
2,note_on,64,43,0
2,note_on,67,43,0
2,note_on,67,0,480
2,note_on,64,0,0
2,note_on,65,41,0
2,note_on,65,0,480
2,note_on,67,43,0
2,note_on,70,43,0
2,note_on,70,0,480
2,note_on,67,0,0
2,note_on,69,43,0
2,note_on,72,43,0
2,note_on,72,0,480
2,note_on,69,0,0
2,note_on,70,46,0
2,note_on,70,0,480
2,note_on,55,54,720
2,note_on,55,0,240
2,note_on,67,61,0
2,note_on,67,0,120
2,note_on,65,53,120
2,note_on,65,0,120
2,note_on,63,60,120
2,note_on,63,0,120
2,note_on,51,53,120
2,note_on,51,0,240
2,note_on,63,61,0
2,note_on,63,0,120
2,note_on,62,53,120
2,note_on,62,0,120
2,note_on,60,57,120
2,note_on,60,0,240
2,note_on,58,53,0
2,note_on,58,0,240
2,note_on,57,53,0
2,note_on,57,0,240
2,note_on,53,53,0
2,note_on,53,0,240
2,note_on,58,60,0
2,note_on,58,0,480
2,note_on,50,54,0
2,note_on,50,0,480
2,note_on,51,59,0
2,note_on,51,0,480
2,note_on,63,53,0
2,note_on,63,0,480
2,note_on,65,54,0
2,note_on,65,0,480
2,note_on,53,53,0
2,note_on,53,0,480
2,note_on,58,53,0
2,note_on,58,0,120
2,note_on,65,46,0
2,note_on,65,0,120
2,note_on,64,49,0
2,note_on,64,0,120
2,note_on,65,46,0
2,note_on,65,0,120
2,note_on,67,53,0
2,note_on,67,0,120
2,note_on,65,47,0
2,note_on,65,0,120
2,note_on,64,49,0
2,note_on,64,0,120
2,note_on,65,46,0
2,note_on,65,0,120
2,note_on,63,53,0
2,note_on,63,0,120
2,note_on,65,51,0
2,note_on,65,0,120
2,note_on,62,53,0
2,note_on,62,0,120
2,note_on,65,49,0
2,note_on,65,0,120
2,note_on,60,53,0
2,note_on,60,0,120
2,note_on,65,50,0
2,note_on,65,0,120
2,note_on,58,53,0
2,note_on,58,0,120
2,note_on,65,50,0
2,note_on,65,0,120
2,note_on,57,48,0
2,note_on,57,0,120
2,note_on,65,40,0
2,note_on,65,0,120
2,note_on,60,42,0
2,note_on,60,0,120
2,note_on,65,38,0
2,note_on,65,0,120
2,note_on,63,48,0
2,note_on,63,0,120
2,note_on,65,40,0
2,note_on,65,0,120
2,note_on,63,42,0
2,note_on,63,0,120
2,note_on,65,39,0
2,note_on,65,0,120
2,note_on,57,47,0
2,note_on,57,0,120
2,note_on,65,40,0
2,note_on,65,0,120
2,note_on,60,43,0
2,note_on,60,0,120
2,note_on,65,40,0
2,note_on,65,0,120
2,note_on,63,48,0
2,note_on,63,0,120
2,note_on,65,42,0
2,note_on,65,0,120
2,note_on,63,42,0
2,note_on,63,0,120
2,note_on,65,42,0
2,note_on,65,0,120
2,note_on,62,44,0
2,note_on,62,0,120
2,note_on,65,45,0
2,note_on,65,0,120
2,note_on,57,45,0
2,note_on,57,0,120
2,note_on,65,45,0
2,note_on,65,0,120
2,note_on,58,46,0
2,note_on,58,0,120
2,note_on,65,47,0
2,note_on,65,0,120
2,note_on,60,48,0
2,note_on,60,0,120
2,note_on,65,49,0
2,note_on,65,0,120
2,note_on,61,53,0
2,note_on,61,0,120
2,note_on,65,48,0
2,note_on,65,0,120
2,note_on,62,53,0
2,note_on,62,0,120
2,note_on,65,46,0
2,note_on,65,0,120
2,note_on,61,53,0
2,note_on,61,0,120
2,note_on,65,46,0
2,note_on,65,0,120
2,note_on,62,53,0
2,note_on,62,0,120
2,note_on,65,47,0
2,note_on,65,0,120
2,note_on,57,48,0
2,note_on,57,0,120
2,note_on,65,39,0
2,note_on,65,0,120
2,note_on,60,42,0
2,note_on,60,0,120
2,note_on,65,39,0
2,note_on,65,0,120
2,note_on,63,48,0
2,note_on,63,0,120
2,note_on,65,40,0
2,note_on,65,0,120
2,note_on,63,42,0
2,note_on,63,0,120
2,note_on,65,39,0
2,note_on,65,0,120
2,note_on,57,47,0
2,note_on,57,0,120
2,note_on,65,39,0
2,note_on,65,0,120
2,note_on,60,43,0
2,note_on,60,0,120
2,note_on,65,39,0
2,note_on,65,0,120
2,note_on,63,48,0
2,note_on,63,0,120
2,note_on,65,42,0
2,note_on,65,0,120
2,note_on,63,42,0
2,note_on,63,0,120
2,note_on,65,42,0
2,note_on,65,0,120
2,note_on,62,44,0
2,note_on,62,0,120
2,note_on,65,45,0
2,note_on,65,0,120
2,note_on,57,45,0
2,note_on,57,0,120
2,note_on,65,45,0
2,note_on,65,0,120
2,note_on,58,46,0
2,note_on,58,0,120
2,note_on,65,47,0
2,note_on,65,0,120
2,note_on,60,48,0
2,note_on,60,0,120
2,note_on,65,49,0
2,note_on,65,0,120
2,note_on,61,53,0
2,note_on,61,0,120
2,note_on,65,48,0
2,note_on,65,0,120
2,note_on,62,53,0
2,note_on,62,0,120
2,note_on,65,46,0
2,note_on,65,0,120
2,note_on,61,53,0
2,note_on,61,0,120
2,note_on,65,46,0
2,note_on,65,0,120
2,note_on,62,53,0
2,note_on,62,0,120
2,note_on,65,47,0
2,note_on,65,0,120
2,note_on,51,38,240
2,note_on,51,0,240
2,note_on,50,40,0
2,note_on,50,0,240
2,note_on,51,38,0
2,note_on,51,0,240
2,note_on,53,38,240
2,note_on,53,0,240
2,note_on,52,40,0
2,note_on,52,0,240
2,note_on,53,38,0
2,note_on,53,0,240
2,note_on,54,38,240
2,note_on,54,0,240
2,note_on,52,42,0
2,note_on,52,0,240
2,note_on,54,38,0
2,note_on,54,0,240
2,note_on,55,40,240
2,note_on,55,0,240
2,note_on,54,42,0
2,note_on,54,0,240
2,note_on,55,39,0
2,note_on,55,0,240
2,note_on,63,54,480
2,note_on,72,54,0
2,note_on,72,0,480
2,note_on,63,0,0
2,note_on,65,54,0
2,note_on,74,54,0
2,note_on,74,0,480
2,note_on,75,45,0
2,note_on,75,0,480
2,note_on,65,0,0
2,note_on,70,34,0
2,note_on,74,41,0
2,note_on,74,0,960
2,note_on,70,0,0
2,note_on,70,28,0
2,note_on,74,34,0
2,note_on,74,0,960
2,note_on,70,0,0
2,note_on,71,29,0
2,note_on,74,29,0
2,note_on,77,35,0
2,note_on,77,0,960
2,note_on,74,0,0
2,note_on,71,0,0
2,note_on,72,28,0
2,note_on,75,34,0
2,note_on,75,0,960
2,note_on,72,0,0
2,note_on,69,29,0
2,note_on,72,29,0
2,note_on,75,35,0
2,note_on,75,0,960
2,note_on,72,0,0
2,note_on,69,0,0
2,note_on,70,28,0
2,note_on,74,33,0
2,note_on,74,0,960
2,note_on,70,0,0
2,note_on,67,29,0
2,note_on,70,29,0
2,note_on,74,35,0
2,note_on,74,0,960
2,note_on,70,0,0
2,note_on,67,0,0
2,note_on,69,28,0
2,note_on,72,33,0
2,note_on,72,0,960
2,note_on,69,0,0
2,note_on,66,28,0
2,note_on,69,28,0
2,note_on,72,33,0
2,note_on,72,0,960
2,note_on,69,0,0
2,note_on,66,0,0
2,note_on,67,28,0
2,note_on,70,34,0
2,note_on,70,0,960
2,note_on,67,0,0
2,note_on,64,30,240
2,note_on,70,36,0
2,note_on,70,0,239
2,note_on,64,0,0
2,note_on,64,35,1
2,note_on,70,42,0
2,note_on,70,0,239
2,note_on,64,0,1
2,note_on,64,32,0
2,note_on,70,38,0
2,note_on,70,0,240
2,note_on,64,0,0
2,note_on,65,34,240
2,note_on,70,41,0
2,note_on,70,0,240
2,note_on,65,0,0
2,note_on,65,39,0
2,note_on,70,46,0
2,note_on,70,0,240
2,note_on,65,0,0
2,note_on,65,37,0
2,note_on,70,44,0
2,note_on,70,0,240
2,note_on,65,0,0
2,note_on,67,39,240
2,note_on,70,46,0
2,note_on,70,0,240
2,note_on,67,0,0
2,note_on,67,45,0
2,note_on,70,53,0
2,note_on,70,0,240
2,note_on,67,0,0
2,note_on,67,42,0
2,note_on,70,50,0
2,note_on,70,0,240
2,note_on,67,0,0
2,note_on,66,53,240
2,note_on,70,63,0
2,note_on,70,0,240
2,note_on,66,0,0
2,note_on,66,58,0
2,note_on,70,69,0
2,note_on,70,0,240
2,note_on,66,0,0
2,note_on,66,54,0
2,note_on,70,64,0
2,note_on,70,0,240
2,note_on,66,0,0
2,note_on,65,53,0
2,note_on,70,63,0
2,note_on,70,0,480
2,note_on,65,0,0
2,note_on,62,53,0
2,note_on,70,63,0
2,note_on,70,0,480
2,note_on,62,0,0
2,note_on,63,53,0
2,note_on,70,63,0
2,note_on,70,0,480
2,note_on,63,0,0
2,note_on,60,53,0
2,note_on,65,63,0
2,note_on,65,0,480
2,note_on,60,0,0
2,note_on,58,51,0
2,note_on,65,60,0
2,note_on,65,0,480
2,note_on,58,0,0
2,note_on,50,43,0
2,note_on,53,51,0
2,note_on,53,0,480
2,note_on,50,0,0
2,note_on,51,42,0
2,note_on,58,50,0
2,note_on,58,0,480
2,note_on,51,0,0
2,note_on,51,39,0
2,note_on,55,46,0
2,note_on,55,0,480
2,note_on,51,0,0
2,note_on,58,46,480
2,note_on,50,46,0
2,note_on,50,0,480
2,note_on,51,46,0
2,note_on,51,0,480
2,note_on,58,0,0
2,note_on,57,46,0
2,note_on,53,46,0
2,note_on,53,0,480
2,note_on,57,0,0
2,note_on,46,52,0
2,note_on,58,52,0
2,note_on,58,0,120
2,note_on,46,0,0
2,note_on,57,35,360
2,note_on,57,0,240
2,note_on,56,33,0
2,note_on,56,0,240
2,note_on,46,43,0
2,note_on,55,43,0
2,note_on,55,0,120
2,note_on,46,0,0
2,note_on,57,35,360
2,note_on,57,0,240
2,note_on,56,33,0
2,note_on,56,0,240
2,note_on,46,42,0
2,note_on,55,42,0
2,note_on,55,0,120
2,note_on,46,0,0
2,note_on,57,47,360
2,note_on,57,0,240
2,note_on,56,47,0
2,note_on,56,0,240
2,note_on,55,51,0
2,note_on,55,0,240
2,note_on,50,50,0
2,note_on,50,0,240
2,note_on,51,50,0
2,note_on,51,0,240
2,note_on,48,50,0
2,note_on,48,0,240
2,note_on,50,57,0
2,note_on,50,0,480
2,note_on,51,53,480
2,note_on,51,0,480
2,note_on,53,52,480
2,note_on,53,0,240
2,note_on,58,48,0
2,note_on,58,0,240
2,note_on,62,48,0
2,note_on,62,0,240
2,note_on,58,48,0
2,note_on,58,0,240
2,note_on,53,53,0
2,note_on,53,0,240
2,note_on,60,49,0
2,note_on,60,0,240
2,note_on,63,49,0
2,note_on,63,0,240
2,note_on,60,48,0
2,note_on,60,0,240
2,note_on,58,56,0
2,note_on,62,56,0
2,note_on,62,0,120
2,note_on,58,0,0
2,note_on,69,35,360
2,note_on,69,0,240
2,note_on,68,35,0
2,note_on,68,0,240
2,note_on,58,43,0
2,note_on,67,43,0
2,note_on,67,0,120
2,note_on,58,0,0
2,note_on,70,35,120
2,note_on,70,0,240
2,note_on,69,35,0
2,note_on,69,0,240
2,note_on,68,35,0
2,note_on,68,0,240
2,note_on,58,46,0
2,note_on,67,46,0
2,note_on,67,0,120
2,note_on,58,0,0
2,note_on,70,38,120
2,note_on,70,0,240
2,note_on,69,47,0
2,note_on,69,0,240
2,note_on,68,47,0
2,note_on,68,0,240
2,note_on,67,51,0
2,note_on,67,0,240
2,note_on,62,49,0
2,note_on,62,0,240
2,note_on,63,50,0
2,note_on,63,0,240
2,note_on,60,50,0
2,note_on,60,0,240
2,note_on,50,68,0
2,note_on,62,68,0
2,note_on,62,0,480
2,note_on,50,0,0
2,note_on,63,69,480
2,note_on,51,69,0
2,note_on,51,0,480
2,note_on,63,0,0
2,note_on,53,48,480
2,note_on,53,0,120
2,note_on,62,41,0
2,note_on,62,0,120
2,note_on,58,44,0
2,note_on,58,0,120
2,note_on,62,39,0
2,note_on,62,0,120
2,note_on,53,48,0
2,note_on,53,0,120
2,note_on,62,40,0
2,note_on,62,0,120
2,note_on,58,44,0
2,note_on,58,0,120
2,note_on,62,41,0
2,note_on,62,0,120
2,note_on,53,48,0
2,note_on,53,0,120
2,note_on,62,42,0
2,note_on,62,0,120
2,note_on,58,46,0
2,note_on,58,0,120
2,note_on,62,42,0
2,note_on,62,0,120
2,note_on,53,48,0
2,note_on,53,0,120
2,note_on,62,44,0
2,note_on,62,0,120
2,note_on,58,46,0
2,note_on,58,0,120
2,note_on,62,43,0
2,note_on,62,0,120
2,note_on,53,48,0
2,note_on,53,0,120
2,note_on,63,40,0
2,note_on,63,0,120
2,note_on,57,43,0
2,note_on,57,0,120
2,note_on,63,40,0
2,note_on,63,0,120
2,note_on,53,48,0
2,note_on,53,0,120
2,note_on,63,39,0
2,note_on,63,0,120
2,note_on,57,43,0
2,note_on,57,0,120
2,note_on,63,39,0
2,note_on,63,0,120
2,note_on,53,48,0
2,note_on,53,0,120
2,note_on,63,39,0
2,note_on,63,0,120
2,note_on,57,43,0
2,note_on,57,0,120
2,note_on,63,38,0
2,note_on,63,0,120
2,note_on,53,48,0
2,note_on,53,0,120
2,note_on,63,42,0
2,note_on,63,0,120
2,note_on,57,45,0
2,note_on,57,0,120
2,note_on,63,40,0
2,note_on,63,0,120
2,note_on,58,51,0
2,note_on,58,0,240
2,note_on,70,44,0
2,note_on,70,0,240
2,note_on,69,44,0
2,note_on,69,0,240
2,note_on,70,48,0
2,note_on,70,0,240
2,note_on,72,49,0
2,note_on,72,0,240
2,note_on,70,52,0
2,note_on,70,0,240
2,note_on,69,56,0
2,note_on,69,0,240
2,note_on,68,59,0
2,note_on,68,0,240
2,note_on,67,64,0
2,note_on,67,0,240
2,note_on,58,49,0
2,note_on,58,0,240
2,note_on,66,58,0
2,note_on,66,0,240
2,note_on,58,49,0
2,note_on,58,0,240
2,note_on,65,57,0
2,note_on,65,0,240
2,note_on,58,48,0
2,note_on,58,0,240
2,note_on,69,55,0
2,note_on,69,0,240
2,note_on,58,48,0
2,note_on,58,0,240
2,note_on,70,53,0
2,note_on,70,0,120
2,note_on,58,41,120
2,note_on,58,0,240
2,note_on,57,41,0
2,note_on,57,0,240
2,note_on,58,37,0
2,note_on,58,0,240
2,note_on,60,45,0
2,note_on,60,0,240
2,note_on,58,43,0
2,note_on,58,0,240
2,note_on,57,43,0
2,note_on,57,0,240
2,note_on,56,38,0
2,note_on,56,0,240
2,note_on,55,45,0
2,note_on,55,0,480
2,note_on,51,35,0
2,note_on,51,0,480
2,note_on,53,35,0
2,note_on,53,0,480
2,note_on,53,35,0
2,note_on,53,0,480
2,note_on,58,37,0
2,note_on,58,0,480
2,note_on,53,28,0
2,note_on,53,0,480
2,note_on,46,28,0
2,note_on,46,0,360
