Track,Message Type,Note,Velocity,Time
1,note_on,79,79,1
1,note_on,79,0,119
1,note_on,79,71,120
1,note_on,79,0,360
1,note_on,77,71,0
1,note_on,77,0,60
1,note_on,76,69,0
1,note_on,76,0,57
1,note_on,76,70,3
1,note_on,76,0,60
1,note_on,74,64,0
1,note_on,74,0,60
1,note_on,72,67,0
1,note_on,72,0,60
1,note_on,71,66,0
1,note_on,71,0,60
1,note_on,72,47,0
1,note_on,74,49,40
1,note_on,72,0,5
1,note_on,72,55,35
1,note_on,74,0,5
1,note_on,74,52,35
1,note_on,72,0,5
1,note_on,72,57,35
1,note_on,74,0,5
1,note_on,74,51,35
1,note_on,72,0,5
1,note_on,72,59,35
1,note_on,74,0,5
1,note_on,74,56,35
1,note_on,72,0,5
1,note_on,72,63,35
1,note_on,74,0,5
1,note_on,74,62,35
1,note_on,72,0,20
1,note_on,74,0,40
1,note_on,76,63,0
1,note_on,76,0,60
1,note_on,67,69,0
1,note_on,67,0,240
1,note_on,79,77,240
1,note_on,79,0,60
1,note_on,79,73,60
1,note_on,79,0,60
1,note_on,79,69,60
1,note_on,79,0,360
1,note_on,77,64,0
1,note_on,77,0,60
1,note_on,76,61,0
1,note_on,76,0,57
1,note_on,76,64,3
1,note_on,76,0,60
1,note_on,74,60,0
1,note_on,74,0,60
1,note_on,72,61,0
1,note_on,72,0,60
1,note_on,71,60,0
1,note_on,71,0,60
1,note_on,72,47,0
1,note_on,74,49,40
1,note_on,72,0,5
1,note_on,72,55,35
1,note_on,74,0,5
1,note_on,74,52,35
1,note_on,72,0,5
1,note_on,72,57,35
1,note_on,74,0,5
1,note_on,74,51,35
1,note_on,72,0,5
1,note_on,72,59,35
1,note_on,74,0,5
1,note_on,74,56,35
1,note_on,72,0,5
1,note_on,72,63,35
1,note_on,74,0,5
1,note_on,74,62,35
1,note_on,72,0,20
1,note_on,74,0,40
1,note_on,76,63,0
1,note_on,76,0,60
1,note_on,67,62,0
1,note_on,67,0,240
1,note_on,69,54,240
1,note_on,69,0,60
1,note_on,72,53,60
1,note_on,72,0,60
1,note_on,77,54,60
1,note_on,77,0,60
1,note_on,81,52,60
1,note_on,81,0,60
1,note_on,84,58,60
1,note_on,84,0,120
1,note_on,67,56,360
1,note_on,67,0,60
1,note_on,72,54,60
1,note_on,72,0,60
1,note_on,76,56,60
1,note_on,76,0,60
1,note_on,79,53,60
1,note_on,79,0,60
1,note_on,84,61,60
1,note_on,84,0,120
1,note_on,67,63,300
1,note_on,67,0,60
1,note_on,79,83,0
1,note_on,79,0,720
1,note_on,77,60,0
1,note_on,77,0,40
1,note_on,79,68,0
1,note_on,79,0,40
1,note_on,77,68,0
1,note_on,77,0,40
1,note_on,76,76,0
1,note_on,76,0,60
1,note_on,77,71,0
1,note_on,77,0,60
1,note_on,75,78,0
1,note_on,75,0,240
1,note_on,76,76,0
1,note_on,76,0,240
1,note_on,69,57,480
1,note_on,69,0,120
1,note_on,72,57,0
1,note_on,72,0,60
1,note_on,69,52,0
1,note_on,69,0,60
1,note_on,77,57,0
1,note_on,77,0,60
1,note_on,72,51,0
1,note_on,72,0,60
1,note_on,81,55,0
1,note_on,81,0,60
1,note_on,77,50,0
1,note_on,77,0,60
1,note_on,84,63,0
1,note_on,84,0,120
1,note_on,67,59,360
1,note_on,67,0,120
1,note_on,72,59,0
1,note_on,72,0,60
1,note_on,67,53,0
1,note_on,67,0,60
1,note_on,76,59,0
1,note_on,76,0,60
1,note_on,72,52,0
1,note_on,72,0,60
1,note_on,79,57,0
1,note_on,79,0,60
1,note_on,76,50,0
1,note_on,76,0,60
1,note_on,84,63,0
1,note_on,84,0,120
1,note_on,81,85,360
1,note_on,81,0,120
1,note_on,79,74,0
1,note_on,79,0,120
1,note_on,77,79,0
1,note_on,77,0,60
1,note_on,76,73,60
1,note_on,76,0,60
1,note_on,76,85,60
1,note_on,76,0,120
1,note_on,74,73,0
1,note_on,74,0,120
1,note_on,72,79,0
1,note_on,72,0,60
1,note_on,71,73,60
1,note_on,71,0,60
1,note_on,72,82,60
1,note_on,67,69,60
1,note_on,72,0,12
1,note_on,69,70,48
1,note_on,67,0,12
1,note_on,71,68,48
1,note_on,69,0,12
1,note_on,72,73,48
1,note_on,71,0,12
1,note_on,74,72,48
1,note_on,72,0,12
1,note_on,76,76,48
1,note_on,74,0,12
1,note_on,77,74,48
1,note_on,76,0,12
1,note_on,79,77,48
1,note_on,77,0,12
1,note_on,81,72,48
1,note_on,79,0,12
1,note_on,83,77,48
1,note_on,81,0,12
1,note_on,84,71,48
1,note_on,83,0,12
1,note_on,84,0,48
1,note_on,79,75,0
1,note_on,79,0,60
1,note_on,79,72,60
1,note_on,79,0,60
1,note_on,79,54,120
1,note_on,79,0,60
1,note_on,81,54,0
1,note_on,81,0,60
1,note_on,79,51,0
1,note_on,79,0,60
1,note_on,77,54,60
1,note_on,77,0,60
1,note_on,79,54,0
1,note_on,79,0,60
1,note_on,77,51,0
1,note_on,77,0,60
1,note_on,76,54,60
1,note_on,76,0,60
1,note_on,77,54,0
1,note_on,77,0,60
1,note_on,76,50,0
1,note_on,76,0,60
1,note_on,74,54,60
1,note_on,74,0,60
1,note_on,76,54,0
1,note_on,76,0,60
1,note_on,74,53,0
1,note_on,74,0,60
1,note_on,72,79,0
1,note_on,67,72,60
1,note_on,72,0,12
1,note_on,69,76,48
1,note_on,67,0,12
1,note_on,71,73,48
1,note_on,69,0,12
1,note_on,72,79,48
1,note_on,71,0,12
1,note_on,74,75,48
1,note_on,72,0,12
1,note_on,76,80,48
1,note_on,74,0,12
1,note_on,77,74,48
1,note_on,76,0,12
1,note_on,79,78,48
1,note_on,77,0,12
1,note_on,81,74,48
1,note_on,79,0,12
1,note_on,83,79,48
1,note_on,81,0,12
1,note_on,84,72,48
1,note_on,83,0,12
1,note_on,84,0,48
1,note_on,79,75,0
1,note_on,79,0,60
1,note_on,79,72,60
1,note_on,79,0,60
1,note_on,79,54,120
1,note_on,79,0,60
1,note_on,81,54,0
1,note_on,81,0,60
1,note_on,79,51,0
1,note_on,79,0,60
1,note_on,77,54,60
1,note_on,77,0,60
1,note_on,79,54,0
1,note_on,79,0,60
1,note_on,77,50,0
1,note_on,77,0,60
1,note_on,76,54,60
1,note_on,76,0,60
1,note_on,77,54,0
1,note_on,77,0,60
1,note_on,76,51,0
1,note_on,76,0,60
1,note_on,74,54,60
1,note_on,74,0,60
1,note_on,76,54,0
1,note_on,76,0,60
1,note_on,74,51,0
1,note_on,74,0,60
1,note_on,72,81,0
1,note_on,72,0,360
1,note_on,74,73,0
1,note_on,74,0,60
1,note_on,76,68,0
1,note_on,76,0,60
1,note_on,77,82,0
1,note_on,77,0,60
1,note_on,77,79,60
1,note_on,77,0,240
1,note_on,79,76,0
1,note_on,79,0,60
1,note_on,81,71,0
1,note_on,81,0,60
1,note_on,79,83,0
1,note_on,79,0,120
1,note_on,76,78,0
1,note_on,76,0,120
1,note_on,84,81,0
1,note_on,84,0,60
1,note_on,84,79,60
1,note_on,84,0,60
1,note_on,86,78,60
1,note_on,86,0,60
1,note_on,84,71,0
1,note_on,84,0,60
1,note_on,83,74,0
1,note_on,83,0,60
1,note_on,81,68,0
1,note_on,81,0,57
1,note_on,81,69,3
1,note_on,81,0,60
1,note_on,79,63,0
1,note_on,79,0,60
1,note_on,77,67,0
1,note_on,77,0,60
1,note_on,76,64,0
1,note_on,76,0,60
1,note_on,79,68,0
1,note_on,79,0,360
1,note_on,76,67,0
1,note_on,76,0,120
1,note_on,74,61,0
1,note_on,74,0,240
1,note_on,73,60,240
1,note_on,73,0,120
1,note_on,74,56,0
1,note_on,74,0,120
1,note_on,72,55,0
1,note_on,72,0,60
1,note_on,71,52,0
1,note_on,71,0,60
1,note_on,69,55,0
1,note_on,69,0,60
1,note_on,67,53,0
1,note_on,67,0,60
1,note_on,73,61,0
1,note_on,73,0,120
1,note_on,74,59,0
1,note_on,74,0,120
1,note_on,72,55,0
1,note_on,72,0,60
1,note_on,71,52,0
1,note_on,71,0,60
1,note_on,69,55,0
1,note_on,69,0,60
1,note_on,67,53,0
1,note_on,67,0,60
1,note_on,75,64,0
1,note_on,75,0,120
1,note_on,76,60,0
1,note_on,76,0,120
1,note_on,76,63,0
1,note_on,76,0,60
1,note_on,76,57,60
1,note_on,76,0,60
1,note_on,76,63,60
1,note_on,76,0,240
1,note_on,69,64,180
1,note_on,69,0,60
1,note_on,81,82,0
1,note_on,81,0,360
1,note_on,79,72,0
1,note_on,79,0,40
1,note_on,78,69,0
1,note_on,78,0,40
1,note_on,76,66,0
1,note_on,76,0,40
1,note_on,74,80,0
1,note_on,74,0,120
1,note_on,86,75,0
1,note_on,86,0,60
1,note_on,86,78,60
1,note_on,86,0,60
1,note_on,86,74,60
1,note_on,86,0,60
1,note_on,86,85,60
1,note_on,86,0,300
1,note_on,83,70,0
1,note_on,83,0,60
1,note_on,86,73,0
1,note_on,86,0,60
1,note_on,83,70,0
1,note_on,83,0,60
1,note_on,79,72,0
1,note_on,79,0,240
1,note_on,73,60,240
1,note_on,73,0,120
1,note_on,74,58,0
1,note_on,74,0,120
1,note_on,72,54,0
1,note_on,72,0,60
1,note_on,71,51,0
1,note_on,71,0,60
1,note_on,69,54,0
1,note_on,69,0,60
1,note_on,67,52,0
1,note_on,67,0,60
1,note_on,73,54,0
1,note_on,73,0,60
1,note_on,74,53,0
1,note_on,74,0,60
1,note_on,76,55,0
1,note_on,76,0,60
1,note_on,74,57,0
1,note_on,74,0,60
1,note_on,72,56,0
1,note_on,72,0,60
1,note_on,71,55,0
1,note_on,71,0,60
1,note_on,69,54,0
1,note_on,69,0,60
1,note_on,67,54,0
1,note_on,67,0,60
1,note_on,75,64,0
1,note_on,75,0,120
1,note_on,76,63,0
1,note_on,76,0,117
1,note_on,76,63,3
1,note_on,76,0,60
1,note_on,76,60,60
1,note_on,76,0,60
1,note_on,76,63,60
1,note_on,76,0,240
1,note_on,81,77,240
1,note_on,83,71,60
1,note_on,81,0,12
1,note_on,84,77,48
1,note_on,83,0,12
1,note_on,83,72,48
1,note_on,84,0,12
1,note_on,81,78,48
1,note_on,83,0,12
1,note_on,79,74,48
1,note_on,81,0,12
1,note_on,78,78,48
1,note_on,79,0,12
1,note_on,76,73,48
1,note_on,78,0,12
1,note_on,74,73,48
1,note_on,76,0,12
1,note_on,78,75,48
1,note_on,74,0,12
1,note_on,81,77,48
1,note_on,78,0,12
1,note_on,79,72,48
1,note_on,81,0,12
1,note_on,78,75,48
1,note_on,79,0,12
1,note_on,76,72,48
1,note_on,78,0,12
1,note_on,74,74,48
1,note_on,76,0,12
1,note_on,72,67,48
1,note_on,74,0,12
1,note_on,71,78,48
1,note_on,72,0,12
1,note_on,71,0,108
1,note_on,72,67,120
1,note_on,72,0,30
1,note_on,74,63,0
1,note_on,74,0,30
1,note_on,72,67,0
1,note_on,72,0,30
1,note_on,74,63,0
1,note_on,74,0,30
1,note_on,72,67,0
1,note_on,72,0,30
1,note_on,71,76,10
1,note_on,71,0,40
1,note_on,72,72,0
1,note_on,72,0,40
1,note_on,74,81,0
1,note_on,74,0,120
1,note_on,76,53,280
1,note_on,76,0,40
1,note_on,78,53,0
1,note_on,78,0,40
1,note_on,79,61,0
1,note_on,79,0,240
1,note_on,79,56,0
1,note_on,79,0,180
1,note_on,79,54,0
1,note_on,79,0,60
1,note_on,79,56,0
1,note_on,79,0,240
1,note_on,78,55,0
1,note_on,78,0,60
1,note_on,76,52,0
1,note_on,76,0,60
1,note_on,74,53,0
1,note_on,74,0,60
1,note_on,72,51,0
1,note_on,72,0,60
1,note_on,71,77,0
1,note_on,71,0,120
1,note_on,72,67,120
1,note_on,72,0,30
1,note_on,74,63,0
1,note_on,74,0,30
1,note_on,72,67,0
1,note_on,72,0,30
1,note_on,74,63,0
1,note_on,74,0,30
1,note_on,72,67,0
1,note_on,72,0,30
1,note_on,71,76,10
1,note_on,71,0,40
1,note_on,72,72,0
1,note_on,72,0,40
1,note_on,74,82,0
1,note_on,74,0,120
1,note_on,76,53,280
1,note_on,76,0,40
1,note_on,78,51,0
1,note_on,78,0,40
1,note_on,79,61,0
1,note_on,79,0,240
1,note_on,79,55,0
1,note_on,79,0,180
1,note_on,79,54,0
1,note_on,79,0,60
1,note_on,79,55,0
1,note_on,79,0,240
1,note_on,78,54,0
1,note_on,78,0,60
1,note_on,76,53,0
1,note_on,76,0,60
1,note_on,74,54,0
1,note_on,74,0,60
1,note_on,72,50,0
1,note_on,72,0,60
1,note_on,71,79,0
1,note_on,71,0,60
1,note_on,79,70,60
1,note_on,81,72,60
1,note_on,79,0,12
1,note_on,83,76,48
1,note_on,81,0,12
1,note_on,81,72,48
1,note_on,83,0,12
1,note_on,79,77,48
1,note_on,81,0,12
1,note_on,78,72,48
1,note_on,79,0,12
1,note_on,76,77,48
1,note_on,78,0,12
1,note_on,74,72,48
1,note_on,76,0,12
1,note_on,72,77,48
1,note_on,74,0,12
1,note_on,71,72,48
1,note_on,72,0,12
1,note_on,69,74,48
1,note_on,71,0,12
1,note_on,67,72,48
1,note_on,69,0,12
1,note_on,66,75,48
1,note_on,67,0,12
1,note_on,64,69,48
1,note_on,66,0,12
1,note_on,62,81,48
1,note_on,64,0,12
1,note_on,62,0,108
1,note_on,60,89,120
1,note_on,60,0,480
1,note_on,59,72,0
1,note_on,59,0,240
1,note_on,57,55,120
1,note_on,57,0,60
1,note_on,60,55,60
1,note_on,60,0,60
1,note_on,64,53,60
1,note_on,64,0,60
1,note_on,68,55,60
1,note_on,68,0,120
1,note_on,69,53,0
1,note_on,69,0,120
1,note_on,72,55,0
1,note_on,72,0,120
1,note_on,76,54,0
1,note_on,76,0,120
1,note_on,76,63,0
1,note_on,76,0,120
1,note_on,67,55,0
1,note_on,67,0,110
1,note_on,67,55,10
1,note_on,67,0,480
1,note_on,71,56,0
1,note_on,66,56,0
1,note_on,71,0,120
1,note_on,69,54,0
1,note_on,69,0,120
1,note_on,66,0,0
1,note_on,67,54,0
1,note_on,67,0,240
1,note_on,74,75,240
1,note_on,74,0,120
1,note_on,71,67,0
1,note_on,71,0,120
1,note_on,79,54,0
1,note_on,79,0,120
1,note_on,78,53,0
1,note_on,78,0,60
1,note_on,76,51,60
1,note_on,76,0,60
1,note_on,74,49,60
1,note_on,74,0,60
1,note_on,72,48,60
1,note_on,72,0,60
1,note_on,71,50,60
1,note_on,71,0,60
1,note_on,69,53,60
1,note_on,69,0,120
1,note_on,71,54,120
1,note_on,71,0,120
1,note_on,74,58,120
1,note_on,74,0,120
1,note_on,73,54,0
1,note_on,73,0,120
1,note_on,72,51,0
1,note_on,72,0,120
1,note_on,71,51,120
1,note_on,71,0,120
1,note_on,72,54,0
1,note_on,72,0,120
1,note_on,74,57,0
1,note_on,74,0,120
1,note_on,75,59,0
1,note_on,75,0,60
1,note_on,76,49,60
1,note_on,76,0,36
1,note_on,78,51,0
1,note_on,78,0,36
1,note_on,76,54,0
1,note_on,76,0,36
1,note_on,78,56,0
1,note_on,78,0,36
1,note_on,76,58,0
1,note_on,76,0,36
1,note_on,78,62,0
1,note_on,78,0,60
1,note_on,79,68,0
1,note_on,79,0,60
1,note_on,78,64,60
1,note_on,78,0,60
1,note_on,76,63,60
1,note_on,76,0,60
1,note_on,74,59,60
1,note_on,74,0,60
1,note_on,72,60,60
1,note_on,72,0,60
1,note_on,71,56,60
1,note_on,71,0,60
1,note_on,74,64,60
1,note_on,74,0,180
1,note_on,71,59,0
1,note_on,71,0,60
1,note_on,69,55,0
1,note_on,69,0,120
1,note_on,74,86,120
1,note_on,74,0,180
1,note_on,76,81,0
1,note_on,76,0,30
1,note_on,78,78,0
1,note_on,78,0,30
1,note_on,79,86,0
1,note_on,79,0,120
1,note_on,78,62,0
1,note_on,78,0,60
1,note_on,76,62,60
1,note_on,76,0,60
1,note_on,74,58,60
1,note_on,74,0,60
1,note_on,72,62,60
1,note_on,72,0,60
1,note_on,71,57,60
1,note_on,71,0,60
1,note_on,69,63,60
1,note_on,69,0,120
1,note_on,71,70,120
1,note_on,71,0,120
1,note_on,72,72,120
1,note_on,72,0,120
1,note_on,73,78,120
1,note_on,73,0,120
1,note_on,74,83,120
1,note_on,74,0,120
1,note_on,75,83,120
1,note_on,75,0,120
1,note_on,76,87,120
1,note_on,76,0,180
1,note_on,64,82,0
1,note_on,64,0,60
1,note_on,72,72,0
1,note_on,72,0,180
1,note_on,69,72,0
1,note_on,69,0,60
1,note_on,67,69,0
1,note_on,71,57,210
1,note_on,71,0,30
1,note_on,67,0,0
1,note_on,69,63,0
1,note_on,66,63,0
1,note_on,66,0,240
1,note_on,69,0,0
1,note_on,67,71,0
1,note_on,67,0,240
1,note_on,79,74,60
1,note_on,79,0,60
1,note_on,81,77,0
1,note_on,81,0,60
1,note_on,79,73,0
1,note_on,79,0,60
1,note_on,76,78,0
1,note_on,76,0,60
1,note_on,79,74,0
1,note_on,79,0,60
1,note_on,81,77,0
1,note_on,81,0,60
1,note_on,79,74,0
1,note_on,79,0,60
1,note_on,84,81,0
1,note_on,84,0,60
1,note_on,79,76,0
1,note_on,79,0,60
1,note_on,76,78,0
1,note_on,76,0,60
1,note_on,72,73,0
1,note_on,72,0,60
1,note_on,79,83,0
1,note_on,79,0,60
1,note_on,79,81,60
1,note_on,79,0,60
1,note_on,79,73,120
1,note_on,79,0,60
1,note_on,81,77,0
1,note_on,81,0,60
1,note_on,79,73,0
1,note_on,79,0,60
1,note_on,76,78,0
1,note_on,76,0,60
1,note_on,79,74,0
1,note_on,79,0,60
1,note_on,81,76,0
1,note_on,81,0,60
1,note_on,79,74,0
1,note_on,79,0,60
1,note_on,84,81,0
1,note_on,84,0,60
1,note_on,79,75,0
1,note_on,79,0,60
1,note_on,76,77,0
1,note_on,76,0,60
1,note_on,72,73,0
1,note_on,72,0,60
1,note_on,79,84,0
1,note_on,79,0,60
1,note_on,79,82,60
1,note_on,79,0,60
1,note_on,74,55,120
1,note_on,74,0,60
1,note_on,78,55,0
1,note_on,78,0,60
1,note_on,74,53,0
1,note_on,74,0,60
1,note_on,79,59,0
1,note_on,79,0,60
1,note_on,79,59,60
1,note_on,79,0,60
1,note_on,74,54,120
1,note_on,74,0,60
1,note_on,78,54,0
1,note_on,78,0,60
1,note_on,74,52,0
1,note_on,74,0,60
1,note_on,79,59,0
1,note_on,79,0,60
1,note_on,79,59,60
1,note_on,79,0,60
1,note_on,74,67,120
1,note_on,74,0,60
1,note_on,81,71,0
1,note_on,81,0,60
1,note_on,74,69,0
1,note_on,74,0,60
1,note_on,83,75,0
1,note_on,83,0,60
1,note_on,74,73,0
1,note_on,74,0,60
1,note_on,83,79,0
1,note_on,83,0,60
1,note_on,74,76,0
1,note_on,74,0,60
1,note_on,84,83,0
1,note_on,84,0,60
1,note_on,74,81,0
1,note_on,74,0,60
1,note_on,84,88,0
1,note_on,84,0,60
1,note_on,74,84,0
1,note_on,74,0,60
1,note_on,86,91,0
1,note_on,86,0,120
1,note_on,83,79,0
1,note_on,83,0,120
1,note_on,79,84,0
1,note_on,79,0,120
1,note_on,83,73,0
1,note_on,83,0,120
1,note_on,74,78,0
1,note_on,74,0,120
1,note_on,79,70,0
1,note_on,79,0,120
1,note_on,71,72,0
1,note_on,71,0,120
1,note_on,74,68,0
1,note_on,74,0,120
1,note_on,69,60,0
1,note_on,69,0,120
1,note_on,76,63,0
1,note_on,76,0,120
1,note_on,74,63,0
1,note_on,74,0,60
1,note_on,72,60,0
1,note_on,72,0,60
1,note_on,71,63,0
1,note_on,71,0,60
1,note_on,69,60,0
1,note_on,69,0,60
1,note_on,67,63,0
1,note_on,67,0,240
1,note_on,66,60,0
1,note_on,66,0,32
1,note_on,67,63,0
1,note_on,67,0,32
1,note_on,66,60,0
1,note_on,66,0,32
1,note_on,67,63,0
1,note_on,67,0,32
1,note_on,66,63,0
1,note_on,66,0,32
1,note_on,64,63,0
1,note_on,64,0,40
1,note_on,66,60,0
1,note_on,66,0,40
1,note_on,67,77,0
1,note_on,67,0,240
1,note_on,79,74,60
1,note_on,79,0,60
1,note_on,81,77,0
1,note_on,81,0,60
1,note_on,79,75,0
1,note_on,79,0,60
1,note_on,76,81,0
1,note_on,76,0,60
1,note_on,79,75,0
1,note_on,79,0,60
1,note_on,81,79,0
1,note_on,81,0,60
1,note_on,79,75,0
1,note_on,79,0,60
1,note_on,84,81,0
1,note_on,84,0,60
1,note_on,79,78,0
1,note_on,79,0,60
1,note_on,76,79,0
1,note_on,76,0,60
1,note_on,72,75,0
1,note_on,72,0,60
1,note_on,79,84,0
1,note_on,79,0,60
1,note_on,79,81,60
1,note_on,79,0,60
1,note_on,79,75,120
1,note_on,79,0,60
1,note_on,81,77,0
1,note_on,81,0,60
1,note_on,79,73,0
1,note_on,79,0,60
1,note_on,76,81,0
1,note_on,76,0,60
1,note_on,79,75,0
1,note_on,79,0,60
1,note_on,81,78,0
1,note_on,81,0,60
1,note_on,79,77,0
1,note_on,79,0,60
1,note_on,84,81,0
1,note_on,84,0,60
1,note_on,79,76,0
1,note_on,79,0,60
1,note_on,76,78,0
1,note_on,76,0,60
1,note_on,72,75,0
1,note_on,72,0,60
1,note_on,79,84,0
1,note_on,79,0,60
1,note_on,79,82,60
1,note_on,79,0,60
1,note_on,74,54,120
1,note_on,74,0,60
1,note_on,78,54,0
1,note_on,78,0,60
1,note_on,74,50,0
1,note_on,74,0,60
1,note_on,79,56,0
1,note_on,79,0,60
1,note_on,79,57,60
1,note_on,79,0,60
1,note_on,74,54,120
1,note_on,74,0,60
1,note_on,78,54,0
1,note_on,78,0,60
1,note_on,74,50,0
1,note_on,74,0,60
1,note_on,79,57,0
1,note_on,79,0,60
1,note_on,79,57,60
1,note_on,79,0,60
1,note_on,74,67,120
1,note_on,74,0,60
1,note_on,81,71,0
1,note_on,81,0,60
1,note_on,74,66,0
1,note_on,74,0,60
1,note_on,83,75,0
1,note_on,83,0,60
1,note_on,74,73,0
1,note_on,74,0,60
1,note_on,83,81,0
1,note_on,83,0,60
1,note_on,74,77,0
1,note_on,74,0,60
1,note_on,84,84,0
1,note_on,84,0,60
1,note_on,74,82,0
1,note_on,74,0,60
1,note_on,84,90,0
1,note_on,84,0,60
1,note_on,74,85,0
1,note_on,74,0,60
1,note_on,86,94,0
1,note_on,86,0,60
1,note_on,83,85,0
1,note_on,83,0,60
1,note_on,86,89,0
1,note_on,86,0,60
1,note_on,83,83,0
1,note_on,83,0,60
1,note_on,79,87,0
1,note_on,79,0,60
1,note_on,83,81,0
1,note_on,83,0,60
1,note_on,79,85,0
1,note_on,79,0,60
1,note_on,83,81,0
1,note_on,83,0,60
1,note_on,74,86,0
1,note_on,74,0,60
1,note_on,79,80,0
1,note_on,79,0,60
1,note_on,74,81,0
1,note_on,74,0,60
1,note_on,79,74,0
1,note_on,79,0,60
1,note_on,71,73,0
1,note_on,71,0,60
1,note_on,74,68,0
1,note_on,74,0,60
1,note_on,71,68,0
1,note_on,71,0,60
1,note_on,74,63,0
1,note_on,74,0,60
1,note_on,69,54,0
1,note_on,69,0,60
1,note_on,76,51,0
1,note_on,76,0,60
1,note_on,75,54,0
1,note_on,75,0,60
1,note_on,76,52,0
1,note_on,76,0,60
1,note_on,74,54,0
1,note_on,74,0,60
1,note_on,72,51,0
1,note_on,72,0,60
1,note_on,71,54,0
1,note_on,71,0,60
1,note_on,69,52,0
1,note_on,69,0,60
1,note_on,67,63,0
1,note_on,67,0,240
1,note_on,66,60,0
1,note_on,66,0,32
1,note_on,67,63,0
1,note_on,67,0,32
1,note_on,66,60,0
1,note_on,66,0,32
1,note_on,67,63,0
1,note_on,67,0,32
1,note_on,66,63,0
1,note_on,66,0,32
1,note_on,64,63,0
1,note_on,64,0,40
1,note_on,66,60,0
1,note_on,66,0,40
1,note_on,67,86,0
1,note_on,67,0,180
1,note_on,62,81,0
1,note_on,62,0,60
1,note_on,71,86,0
1,note_on,71,0,180
1,note_on,67,81,0
1,note_on,67,0,60
1,note_on,74,87,0
1,note_on,74,0,120
1,note_on,81,54,120
1,note_on,79,51,60
1,note_on,81,0,12
1,note_on,78,54,48
1,note_on,79,0,12
1,note_on,76,52,48
1,note_on,78,0,12
1,note_on,74,57,48
1,note_on,76,0,12
1,note_on,74,0,108
1,note_on,76,54,120
1,note_on,74,51,60
1,note_on,76,0,12
1,note_on,72,54,48
1,note_on,74,0,12
1,note_on,71,51,48
1,note_on,72,0,12
1,note_on,69,57,48
1,note_on,71,0,12
1,note_on,69,0,108
1,note_on,74,56,120
1,note_on,72,56,60
1,note_on,74,0,12
1,note_on,71,56,48
1,note_on,72,0,12
1,note_on,69,53,48
1,note_on,71,0,12
1,note_on,67,84,48
1,note_on,69,0,12
1,note_on,67,0,48
1,note_on,62,80,0
1,note_on,62,0,60
1,note_on,67,84,0
1,note_on,67,0,60
1,note_on,62,80,0
1,note_on,62,0,60
1,note_on,71,84,0
1,note_on,71,0,60
1,note_on,67,80,0
1,note_on,67,0,60
1,note_on,71,84,0
1,note_on,71,0,60
1,note_on,67,80,0
1,note_on,67,0,60
1,note_on,74,84,0
1,note_on,74,0,120
1,note_on,81,55,120
1,note_on,79,52,60
1,note_on,81,0,12
1,note_on,78,55,48
1,note_on,79,0,12
1,note_on,76,52,48
1,note_on,78,0,12
1,note_on,74,58,48
1,note_on,76,0,12
1,note_on,74,0,48
1,note_on,74,58,60
1,note_on,74,0,60
1,note_on,76,54,60
1,note_on,74,51,60
1,note_on,76,0,12
1,note_on,72,54,48
1,note_on,74,0,12
1,note_on,71,50,48
1,note_on,72,0,12
1,note_on,69,57,48
1,note_on,71,0,12
1,note_on,69,0,48
1,note_on,69,57,60
1,note_on,69,0,60
1,note_on,74,55,60
1,note_on,72,53,60
1,note_on,74,0,12
1,note_on,71,55,48
1,note_on,72,0,12
1,note_on,69,52,48
1,note_on,71,0,12
1,note_on,67,58,48
1,note_on,69,0,12
1,note_on,67,0,228
1,note_on,71,54,0
1,note_on,62,54,0
1,note_on,62,0,120
1,note_on,71,0,0
1,note_on,67,56,120
1,note_on,59,56,0
1,note_on,59,0,120
1,note_on,67,0,0
1,note_on,79,79,1
1,note_on,79,0,119
1,note_on,79,71,120
1,note_on,79,0,360
1,note_on,77,71,0
1,note_on,77,0,60
1,note_on,76,69,0
1,note_on,76,0,57
1,note_on,76,70,3
1,note_on,76,0,60
1,note_on,74,64,0
1,note_on,74,0,60
1,note_on,72,67,0
1,note_on,72,0,60
1,note_on,71,66,0
1,note_on,71,0,60
1,note_on,72,47,0
1,note_on,74,49,40
1,note_on,72,0,5
1,note_on,72,55,35
1,note_on,74,0,5
1,note_on,74,52,35
1,note_on,72,0,5
1,note_on,72,57,35
1,note_on,74,0,5
1,note_on,74,51,35
1,note_on,72,0,5
1,note_on,72,59,35
1,note_on,74,0,5
1,note_on,74,56,35
1,note_on,72,0,5
1,note_on,72,63,35
1,note_on,74,0,5
1,note_on,74,62,35
1,note_on,72,0,20
1,note_on,74,0,40
1,note_on,76,63,0
1,note_on,76,0,60
1,note_on,67,69,0
1,note_on,67,0,240
1,note_on,79,77,240
1,note_on,79,0,60
1,note_on,79,73,60
1,note_on,79,0,60
1,note_on,79,69,60
1,note_on,79,0,360
1,note_on,77,64,0
1,note_on,77,0,60
1,note_on,76,61,0
1,note_on,76,0,57
1,note_on,76,64,3
1,note_on,76,0,60
1,note_on,74,60,0
1,note_on,74,0,60
1,note_on,72,61,0
1,note_on,72,0,60
1,note_on,71,60,0
1,note_on,71,0,60
1,note_on,72,47,0
1,note_on,74,49,40
1,note_on,72,0,5
1,note_on,72,55,35
1,note_on,74,0,5
1,note_on,74,52,35
1,note_on,72,0,5
1,note_on,72,57,35
1,note_on,74,0,5
1,note_on,74,51,35
1,note_on,72,0,5
1,note_on,72,59,35
1,note_on,74,0,5
1,note_on,74,56,35
1,note_on,72,0,5
1,note_on,72,63,35
1,note_on,74,0,5
1,note_on,74,62,35
1,note_on,72,0,20
1,note_on,74,0,40
1,note_on,76,63,0
1,note_on,76,0,60
1,note_on,67,62,0
1,note_on,67,0,240
1,note_on,69,54,240
1,note_on,69,0,60
1,note_on,72,53,60
1,note_on,72,0,60
1,note_on,77,54,60
1,note_on,77,0,60
1,note_on,81,52,60
1,note_on,81,0,60
1,note_on,84,58,60
1,note_on,84,0,120
1,note_on,67,56,360
1,note_on,67,0,60
1,note_on,72,54,60
1,note_on,72,0,60
1,note_on,76,56,60
1,note_on,76,0,60
1,note_on,79,53,60
1,note_on,79,0,60
1,note_on,84,61,60
1,note_on,84,0,120
1,note_on,67,63,300
1,note_on,67,0,60
1,note_on,79,83,0
1,note_on,79,0,720
1,note_on,77,60,0
1,note_on,77,0,40
1,note_on,79,68,0
1,note_on,79,0,40
1,note_on,77,68,0
1,note_on,77,0,40
1,note_on,76,76,0
1,note_on,76,0,60
1,note_on,77,71,0
1,note_on,77,0,60
1,note_on,75,78,0
1,note_on,75,0,240
1,note_on,76,76,0
1,note_on,76,0,240
1,note_on,69,57,480
1,note_on,69,0,120
1,note_on,72,57,0
1,note_on,72,0,60
1,note_on,69,52,0
1,note_on,69,0,60
1,note_on,77,57,0
1,note_on,77,0,60
1,note_on,72,51,0
1,note_on,72,0,60
1,note_on,81,55,0
1,note_on,81,0,60
1,note_on,77,50,0
1,note_on,77,0,60
1,note_on,84,63,0
1,note_on,84,0,120
1,note_on,67,59,360
1,note_on,67,0,120
1,note_on,72,59,0
1,note_on,72,0,60
1,note_on,67,53,0
1,note_on,67,0,60
1,note_on,76,59,0
1,note_on,76,0,60
1,note_on,72,52,0
1,note_on,72,0,60
1,note_on,79,57,0
1,note_on,79,0,60
1,note_on,76,50,0
1,note_on,76,0,60
1,note_on,84,63,0
1,note_on,84,0,120
1,note_on,81,85,360
1,note_on,81,0,120
1,note_on,79,74,0
1,note_on,79,0,120
1,note_on,77,79,0
1,note_on,77,0,60
1,note_on,76,73,60
1,note_on,76,0,60
1,note_on,76,85,60
1,note_on,76,0,120
1,note_on,74,73,0
1,note_on,74,0,120
1,note_on,72,79,0
1,note_on,72,0,60
1,note_on,71,73,60
1,note_on,71,0,60
1,note_on,72,82,60
1,note_on,67,69,60
1,note_on,72,0,12
1,note_on,69,70,48
1,note_on,67,0,12
1,note_on,71,68,48
1,note_on,69,0,12
1,note_on,72,73,48
1,note_on,71,0,12
1,note_on,74,72,48
1,note_on,72,0,12
1,note_on,76,76,48
1,note_on,74,0,12
1,note_on,77,74,48
1,note_on,76,0,12
1,note_on,79,77,48
1,note_on,77,0,12
1,note_on,81,72,48
1,note_on,79,0,12
1,note_on,83,77,48
1,note_on,81,0,12
1,note_on,84,71,48
1,note_on,83,0,12
1,note_on,84,0,48
1,note_on,79,75,0
1,note_on,79,0,60
1,note_on,79,72,60
1,note_on,79,0,60
1,note_on,79,54,120
1,note_on,79,0,60
1,note_on,81,54,0
1,note_on,81,0,60
1,note_on,79,51,0
1,note_on,79,0,60
1,note_on,77,54,60
1,note_on,77,0,60
1,note_on,79,54,0
1,note_on,79,0,60
1,note_on,77,51,0
1,note_on,77,0,60
1,note_on,76,54,60
1,note_on,76,0,60
1,note_on,77,54,0
1,note_on,77,0,60
1,note_on,76,50,0
1,note_on,76,0,60
1,note_on,74,54,60
1,note_on,74,0,60
1,note_on,76,54,0
1,note_on,76,0,60
1,note_on,74,53,0
1,note_on,74,0,60
1,note_on,72,79,0
1,note_on,67,72,60
1,note_on,72,0,12
1,note_on,69,76,48
1,note_on,67,0,12
1,note_on,71,73,48
1,note_on,69,0,12
1,note_on,72,79,48
1,note_on,71,0,12
1,note_on,74,75,48
1,note_on,72,0,12
1,note_on,76,80,48
1,note_on,74,0,12
1,note_on,77,74,48
1,note_on,76,0,12
1,note_on,79,78,48
1,note_on,77,0,12
1,note_on,81,74,48
1,note_on,79,0,12
1,note_on,83,79,48
1,note_on,81,0,12
1,note_on,84,72,48
1,note_on,83,0,12
1,note_on,84,0,48
1,note_on,79,75,0
1,note_on,79,0,60
1,note_on,79,72,60
1,note_on,79,0,60
1,note_on,79,54,120
1,note_on,79,0,60
1,note_on,81,54,0
1,note_on,81,0,60
1,note_on,79,51,0
1,note_on,79,0,60
1,note_on,77,54,60
1,note_on,77,0,60
1,note_on,79,54,0
1,note_on,79,0,60
1,note_on,77,50,0
1,note_on,77,0,60
1,note_on,76,54,60
1,note_on,76,0,60
1,note_on,77,54,0
1,note_on,77,0,60
1,note_on,76,51,0
1,note_on,76,0,60
1,note_on,74,54,60
1,note_on,74,0,60
1,note_on,76,54,0
1,note_on,76,0,60
1,note_on,74,51,0
1,note_on,74,0,60
1,note_on,72,81,0
1,note_on,72,0,360
1,note_on,74,73,0
1,note_on,74,0,60
1,note_on,76,68,0
1,note_on,76,0,60
1,note_on,77,82,0
1,note_on,77,0,60
1,note_on,77,79,60
1,note_on,77,0,240
1,note_on,79,76,0
1,note_on,79,0,60
1,note_on,81,71,0
1,note_on,81,0,60
1,note_on,79,83,0
1,note_on,79,0,120
1,note_on,76,78,0
1,note_on,76,0,120
1,note_on,84,81,0
1,note_on,84,0,60
1,note_on,84,79,60
1,note_on,84,0,60
1,note_on,86,78,60
1,note_on,86,0,60
1,note_on,84,71,0
1,note_on,84,0,60
1,note_on,83,74,0
1,note_on,83,0,60
1,note_on,81,68,0
1,note_on,81,0,57
1,note_on,81,69,3
1,note_on,81,0,60
1,note_on,79,63,0
1,note_on,79,0,60
1,note_on,77,67,0
1,note_on,77,0,60
1,note_on,76,64,0
1,note_on,76,0,60
1,note_on,79,68,0
1,note_on,79,0,360
1,note_on,76,67,0
1,note_on,76,0,120
1,note_on,74,61,0
1,note_on,74,0,240
1,note_on,73,60,240
1,note_on,73,0,120
1,note_on,74,56,0
1,note_on,74,0,120
1,note_on,72,55,0
1,note_on,72,0,60
1,note_on,71,52,0
1,note_on,71,0,60
1,note_on,69,55,0
1,note_on,69,0,60
1,note_on,67,53,0
1,note_on,67,0,60
1,note_on,73,61,0
1,note_on,73,0,120
1,note_on,74,59,0
1,note_on,74,0,120
1,note_on,72,55,0
1,note_on,72,0,60
1,note_on,71,52,0
1,note_on,71,0,60
1,note_on,69,55,0
1,note_on,69,0,60
1,note_on,67,53,0
1,note_on,67,0,60
1,note_on,75,64,0
1,note_on,75,0,120
1,note_on,76,60,0
1,note_on,76,0,120
1,note_on,76,63,0
1,note_on,76,0,60
1,note_on,76,57,60
1,note_on,76,0,60
1,note_on,76,63,60
1,note_on,76,0,240
1,note_on,69,64,180
1,note_on,69,0,60
1,note_on,81,82,0
1,note_on,81,0,360
1,note_on,79,72,0
1,note_on,79,0,40
1,note_on,78,69,0
1,note_on,78,0,40
1,note_on,76,66,0
1,note_on,76,0,40
1,note_on,74,80,0
1,note_on,74,0,120
1,note_on,86,75,0
1,note_on,86,0,60
1,note_on,86,78,60
1,note_on,86,0,60
1,note_on,86,74,60
1,note_on,86,0,60
1,note_on,86,85,60
1,note_on,86,0,300
1,note_on,83,70,0
1,note_on,83,0,60
1,note_on,86,73,0
1,note_on,86,0,60
1,note_on,83,70,0
1,note_on,83,0,60
1,note_on,79,72,0
1,note_on,79,0,240
1,note_on,73,60,240
1,note_on,73,0,120
1,note_on,74,58,0
1,note_on,74,0,120
1,note_on,72,54,0
1,note_on,72,0,60
1,note_on,71,51,0
1,note_on,71,0,60
1,note_on,69,54,0
1,note_on,69,0,60
1,note_on,67,52,0
1,note_on,67,0,60
1,note_on,73,54,0
1,note_on,73,0,60
1,note_on,74,53,0
1,note_on,74,0,60
1,note_on,76,55,0
1,note_on,76,0,60
1,note_on,74,57,0
1,note_on,74,0,60
1,note_on,72,56,0
1,note_on,72,0,60
1,note_on,71,55,0
1,note_on,71,0,60
1,note_on,69,54,0
1,note_on,69,0,60
1,note_on,67,54,0
1,note_on,67,0,60
1,note_on,75,64,0
1,note_on,75,0,120
1,note_on,76,63,0
1,note_on,76,0,117
1,note_on,76,63,3
1,note_on,76,0,60
1,note_on,76,60,60
1,note_on,76,0,60
1,note_on,76,63,60
1,note_on,76,0,240
1,note_on,81,77,240
1,note_on,83,71,60
1,note_on,81,0,12
1,note_on,84,77,48
1,note_on,83,0,12
1,note_on,83,72,48
1,note_on,84,0,12
1,note_on,81,78,48
1,note_on,83,0,12
1,note_on,79,74,48
1,note_on,81,0,12
1,note_on,78,78,48
1,note_on,79,0,12
1,note_on,76,73,48
1,note_on,78,0,12
1,note_on,74,73,48
1,note_on,76,0,12
1,note_on,78,75,48
1,note_on,74,0,12
1,note_on,81,77,48
1,note_on,78,0,12
1,note_on,79,72,48
1,note_on,81,0,12
1,note_on,78,75,48
1,note_on,79,0,12
1,note_on,76,72,48
1,note_on,78,0,12
1,note_on,74,74,48
1,note_on,76,0,12
1,note_on,72,67,48
1,note_on,74,0,12
1,note_on,71,78,48
1,note_on,72,0,12
1,note_on,71,0,108
1,note_on,72,67,120
1,note_on,72,0,30
1,note_on,74,63,0
1,note_on,74,0,30
1,note_on,72,67,0
1,note_on,72,0,30
1,note_on,74,63,0
1,note_on,74,0,30
1,note_on,72,67,0
1,note_on,72,0,30
1,note_on,71,76,10
1,note_on,71,0,40
1,note_on,72,72,0
1,note_on,72,0,40
1,note_on,74,81,0
1,note_on,74,0,120
1,note_on,76,53,280
1,note_on,76,0,40
1,note_on,78,53,0
1,note_on,78,0,40
1,note_on,79,61,0
1,note_on,79,0,240
1,note_on,79,56,0
1,note_on,79,0,180
1,note_on,79,54,0
1,note_on,79,0,60
1,note_on,79,56,0
1,note_on,79,0,240
1,note_on,78,55,0
1,note_on,78,0,60
1,note_on,76,52,0
1,note_on,76,0,60
1,note_on,74,53,0
1,note_on,74,0,60
1,note_on,72,51,0
1,note_on,72,0,60
1,note_on,71,77,0
1,note_on,71,0,120
1,note_on,72,67,120
1,note_on,72,0,30
1,note_on,74,63,0
1,note_on,74,0,30
1,note_on,72,67,0
1,note_on,72,0,30
1,note_on,74,63,0
1,note_on,74,0,30
1,note_on,72,67,0
1,note_on,72,0,30
1,note_on,71,76,10
1,note_on,71,0,40
1,note_on,72,72,0
1,note_on,72,0,40
1,note_on,74,82,0
1,note_on,74,0,120
1,note_on,76,53,280
1,note_on,76,0,40
1,note_on,78,51,0
1,note_on,78,0,40
1,note_on,79,61,0
1,note_on,79,0,240
1,note_on,79,55,0
1,note_on,79,0,180
1,note_on,79,54,0
1,note_on,79,0,60
1,note_on,79,55,0
1,note_on,79,0,240
1,note_on,78,54,0
1,note_on,78,0,60
1,note_on,76,53,0
1,note_on,76,0,60
1,note_on,74,54,0
1,note_on,74,0,60
1,note_on,72,50,0
1,note_on,72,0,60
1,note_on,71,79,0
1,note_on,71,0,60
1,note_on,79,70,60
1,note_on,81,72,60
1,note_on,79,0,12
1,note_on,83,76,48
1,note_on,81,0,12
1,note_on,81,72,48
1,note_on,83,0,12
1,note_on,79,77,48
1,note_on,81,0,12
1,note_on,78,72,48
1,note_on,79,0,12
1,note_on,76,77,48
1,note_on,78,0,12
1,note_on,74,72,48
1,note_on,76,0,12
1,note_on,72,77,48
1,note_on,74,0,12
1,note_on,71,72,48
1,note_on,72,0,12
1,note_on,69,74,48
1,note_on,71,0,12
1,note_on,67,72,48
1,note_on,69,0,12
1,note_on,66,75,48
1,note_on,67,0,12
1,note_on,64,69,48
1,note_on,66,0,12
1,note_on,62,81,48
1,note_on,64,0,12
1,note_on,62,0,108
1,note_on,60,89,120
1,note_on,60,0,480
1,note_on,59,72,0
1,note_on,59,0,240
1,note_on,57,55,120
1,note_on,57,0,60
1,note_on,60,55,60
1,note_on,60,0,60
1,note_on,64,53,60
1,note_on,64,0,60
1,note_on,68,55,60
1,note_on,68,0,120
1,note_on,69,53,0
1,note_on,69,0,120
1,note_on,72,55,0
1,note_on,72,0,120
1,note_on,76,54,0
1,note_on,76,0,120
1,note_on,76,63,0
1,note_on,76,0,120
1,note_on,67,55,0
1,note_on,67,0,110
1,note_on,67,55,10
1,note_on,67,0,480
1,note_on,71,56,0
1,note_on,66,56,0
1,note_on,71,0,120
1,note_on,69,54,0
1,note_on,69,0,120
1,note_on,66,0,0
1,note_on,67,54,0
1,note_on,67,0,240
1,note_on,74,75,240
1,note_on,74,0,120
1,note_on,71,67,0
1,note_on,71,0,120
1,note_on,79,54,0
1,note_on,79,0,120
1,note_on,78,53,0
1,note_on,78,0,60
1,note_on,76,51,60
1,note_on,76,0,60
1,note_on,74,49,60
1,note_on,74,0,60
1,note_on,72,48,60
1,note_on,72,0,60
1,note_on,71,50,60
1,note_on,71,0,60
1,note_on,69,53,60
1,note_on,69,0,120
1,note_on,71,54,120
1,note_on,71,0,120
1,note_on,74,58,120
1,note_on,74,0,120
1,note_on,73,54,0
1,note_on,73,0,120
1,note_on,72,51,0
1,note_on,72,0,120
1,note_on,71,51,120
1,note_on,71,0,120
1,note_on,72,54,0
1,note_on,72,0,120
1,note_on,74,57,0
1,note_on,74,0,120
1,note_on,75,59,0
1,note_on,75,0,60
1,note_on,76,49,60
1,note_on,76,0,36
1,note_on,78,51,0
1,note_on,78,0,36
1,note_on,76,54,0
1,note_on,76,0,36
1,note_on,78,56,0
1,note_on,78,0,36
1,note_on,76,58,0
1,note_on,76,0,36
1,note_on,78,62,0
1,note_on,78,0,60
1,note_on,79,68,0
1,note_on,79,0,60
1,note_on,78,64,60
1,note_on,78,0,60
1,note_on,76,63,60
1,note_on,76,0,60
1,note_on,74,59,60
1,note_on,74,0,60
1,note_on,72,60,60
1,note_on,72,0,60
1,note_on,71,56,60
1,note_on,71,0,60
1,note_on,74,64,60
1,note_on,74,0,180
1,note_on,71,59,0
1,note_on,71,0,60
1,note_on,69,55,0
1,note_on,69,0,120
1,note_on,74,86,120
1,note_on,74,0,180
1,note_on,76,81,0
1,note_on,76,0,30
1,note_on,78,78,0
1,note_on,78,0,30
1,note_on,79,86,0
1,note_on,79,0,120
1,note_on,78,62,0
1,note_on,78,0,60
1,note_on,76,62,60
1,note_on,76,0,60
1,note_on,74,58,60
1,note_on,74,0,60
1,note_on,72,62,60
1,note_on,72,0,60
1,note_on,71,57,60
1,note_on,71,0,60
1,note_on,69,63,60
1,note_on,69,0,120
1,note_on,71,70,120
1,note_on,71,0,120
1,note_on,72,72,120
1,note_on,72,0,120
1,note_on,73,78,120
1,note_on,73,0,120
1,note_on,74,83,120
1,note_on,74,0,120
1,note_on,75,83,120
1,note_on,75,0,120
1,note_on,76,87,120
1,note_on,76,0,180
1,note_on,64,82,0
1,note_on,64,0,60
1,note_on,72,72,0
1,note_on,72,0,180
1,note_on,69,72,0
1,note_on,69,0,60
1,note_on,67,69,0
1,note_on,71,57,210
1,note_on,71,0,30
1,note_on,67,0,0
1,note_on,69,63,0
1,note_on,66,63,0
1,note_on,66,0,240
1,note_on,69,0,0
1,note_on,67,71,0
1,note_on,67,0,240
1,note_on,79,74,60
1,note_on,79,0,60
1,note_on,81,77,0
1,note_on,81,0,60
1,note_on,79,73,0
1,note_on,79,0,60
1,note_on,76,78,0
1,note_on,76,0,60
1,note_on,79,74,0
1,note_on,79,0,60
1,note_on,81,77,0
1,note_on,81,0,60
1,note_on,79,74,0
1,note_on,79,0,60
1,note_on,84,81,0
1,note_on,84,0,60
1,note_on,79,76,0
1,note_on,79,0,60
1,note_on,76,78,0
1,note_on,76,0,60
1,note_on,72,73,0
1,note_on,72,0,60
1,note_on,79,83,0
1,note_on,79,0,60
1,note_on,79,81,60
1,note_on,79,0,60
1,note_on,79,73,120
1,note_on,79,0,60
1,note_on,81,77,0
1,note_on,81,0,60
1,note_on,79,73,0
1,note_on,79,0,60
1,note_on,76,78,0
1,note_on,76,0,60
1,note_on,79,74,0
1,note_on,79,0,60
1,note_on,81,76,0
1,note_on,81,0,60
1,note_on,79,74,0
1,note_on,79,0,60
1,note_on,84,81,0
1,note_on,84,0,60
1,note_on,79,75,0
1,note_on,79,0,60
1,note_on,76,77,0
1,note_on,76,0,60
1,note_on,72,73,0
1,note_on,72,0,60
1,note_on,79,84,0
1,note_on,79,0,60
1,note_on,79,82,60
1,note_on,79,0,60
1,note_on,74,55,120
1,note_on,74,0,60
1,note_on,78,55,0
1,note_on,78,0,60
1,note_on,74,53,0
1,note_on,74,0,60
1,note_on,79,59,0
1,note_on,79,0,60
1,note_on,79,59,60
1,note_on,79,0,60
1,note_on,74,54,120
1,note_on,74,0,60
1,note_on,78,54,0
1,note_on,78,0,60
1,note_on,74,52,0
1,note_on,74,0,60
1,note_on,79,59,0
1,note_on,79,0,60
1,note_on,79,59,60
1,note_on,79,0,60
1,note_on,74,67,120
1,note_on,74,0,60
1,note_on,81,71,0
1,note_on,81,0,60
1,note_on,74,69,0
1,note_on,74,0,60
1,note_on,83,75,0
1,note_on,83,0,60
1,note_on,74,73,0
1,note_on,74,0,60
1,note_on,83,79,0
1,note_on,83,0,60
1,note_on,74,76,0
1,note_on,74,0,60
1,note_on,84,83,0
1,note_on,84,0,60
1,note_on,74,81,0
1,note_on,74,0,60
1,note_on,84,88,0
1,note_on,84,0,60
1,note_on,74,84,0
1,note_on,74,0,60
1,note_on,86,91,0
1,note_on,86,0,120
1,note_on,83,79,0
1,note_on,83,0,120
1,note_on,79,84,0
1,note_on,79,0,120
1,note_on,83,73,0
1,note_on,83,0,120
1,note_on,74,78,0
1,note_on,74,0,120
1,note_on,79,70,0
1,note_on,79,0,120
1,note_on,71,72,0
1,note_on,71,0,120
1,note_on,74,68,0
1,note_on,74,0,120
1,note_on,69,60,0
1,note_on,69,0,120
1,note_on,76,63,0
1,note_on,76,0,120
1,note_on,74,63,0
1,note_on,74,0,60
1,note_on,72,60,0
1,note_on,72,0,60
1,note_on,71,63,0
1,note_on,71,0,60
1,note_on,69,60,0
1,note_on,69,0,60
1,note_on,67,63,0
1,note_on,67,0,240
1,note_on,66,60,0
1,note_on,66,0,32
1,note_on,67,63,0
1,note_on,67,0,32
1,note_on,66,60,0
1,note_on,66,0,32
1,note_on,67,63,0
1,note_on,67,0,32
1,note_on,66,63,0
1,note_on,66,0,32
1,note_on,64,63,0
1,note_on,64,0,40
1,note_on,66,60,0
1,note_on,66,0,40
1,note_on,67,77,0
1,note_on,67,0,240
1,note_on,79,74,60
1,note_on,79,0,60
1,note_on,81,77,0
1,note_on,81,0,60
1,note_on,79,75,0
1,note_on,79,0,60
1,note_on,76,81,0
1,note_on,76,0,60
1,note_on,79,75,0
1,note_on,79,0,60
1,note_on,81,79,0
1,note_on,81,0,60
1,note_on,79,75,0
1,note_on,79,0,60
1,note_on,84,81,0
1,note_on,84,0,60
1,note_on,79,78,0
1,note_on,79,0,60
1,note_on,76,79,0
1,note_on,76,0,60
1,note_on,72,75,0
1,note_on,72,0,60
1,note_on,79,84,0
1,note_on,79,0,60
1,note_on,79,81,60
1,note_on,79,0,60
1,note_on,79,75,120
1,note_on,79,0,60
1,note_on,81,77,0
1,note_on,81,0,60
1,note_on,79,73,0
1,note_on,79,0,60
1,note_on,76,81,0
1,note_on,76,0,60
1,note_on,79,75,0
1,note_on,79,0,60
1,note_on,81,78,0
1,note_on,81,0,60
1,note_on,79,77,0
1,note_on,79,0,60
1,note_on,84,81,0
1,note_on,84,0,60
1,note_on,79,76,0
1,note_on,79,0,60
1,note_on,76,78,0
1,note_on,76,0,60
1,note_on,72,75,0
1,note_on,72,0,60
1,note_on,79,84,0
1,note_on,79,0,60
1,note_on,79,82,60
1,note_on,79,0,60
1,note_on,74,54,120
1,note_on,74,0,60
1,note_on,78,54,0
1,note_on,78,0,60
1,note_on,74,50,0
1,note_on,74,0,60
1,note_on,79,56,0
1,note_on,79,0,60
1,note_on,79,57,60
1,note_on,79,0,60
1,note_on,74,54,120
1,note_on,74,0,60
1,note_on,78,54,0
1,note_on,78,0,60
1,note_on,74,50,0
1,note_on,74,0,60
1,note_on,79,57,0
1,note_on,79,0,60
1,note_on,79,57,60
1,note_on,79,0,60
1,note_on,74,67,120
1,note_on,74,0,60
1,note_on,81,71,0
1,note_on,81,0,60
1,note_on,74,66,0
1,note_on,74,0,60
1,note_on,83,75,0
1,note_on,83,0,60
1,note_on,74,73,0
1,note_on,74,0,60
1,note_on,83,81,0
1,note_on,83,0,60
1,note_on,74,77,0
1,note_on,74,0,60
1,note_on,84,84,0
1,note_on,84,0,60
1,note_on,74,82,0
1,note_on,74,0,60
1,note_on,84,90,0
1,note_on,84,0,60
1,note_on,74,85,0
1,note_on,74,0,60
1,note_on,86,94,0
1,note_on,86,0,60
1,note_on,83,85,0
1,note_on,83,0,60
1,note_on,86,89,0
1,note_on,86,0,60
1,note_on,83,83,0
1,note_on,83,0,60
1,note_on,79,87,0
1,note_on,79,0,60
1,note_on,83,81,0
1,note_on,83,0,60
1,note_on,79,85,0
1,note_on,79,0,60
1,note_on,83,81,0
1,note_on,83,0,60
1,note_on,74,86,0
1,note_on,74,0,60
1,note_on,79,80,0
1,note_on,79,0,60
1,note_on,74,81,0
1,note_on,74,0,60
1,note_on,79,74,0
1,note_on,79,0,60
1,note_on,71,73,0
1,note_on,71,0,60
1,note_on,74,68,0
1,note_on,74,0,60
1,note_on,71,68,0
1,note_on,71,0,60
1,note_on,74,63,0
1,note_on,74,0,60
1,note_on,69,54,0
1,note_on,69,0,60
1,note_on,76,51,0
1,note_on,76,0,60
1,note_on,75,54,0
1,note_on,75,0,60
1,note_on,76,52,0
1,note_on,76,0,60
1,note_on,74,54,0
1,note_on,74,0,60
1,note_on,72,51,0
1,note_on,72,0,60
1,note_on,71,54,0
1,note_on,71,0,60
1,note_on,69,52,0
1,note_on,69,0,60
1,note_on,67,63,0
1,note_on,67,0,240
1,note_on,66,60,0
1,note_on,66,0,32
1,note_on,67,63,0
1,note_on,67,0,32
1,note_on,66,60,0
1,note_on,66,0,32
1,note_on,67,63,0
1,note_on,67,0,32
1,note_on,66,63,0
1,note_on,66,0,32
1,note_on,64,63,0
1,note_on,64,0,40
1,note_on,66,60,0
1,note_on,66,0,40
1,note_on,67,86,0
1,note_on,67,0,180
1,note_on,62,81,0
1,note_on,62,0,60
1,note_on,71,86,0
1,note_on,71,0,180
1,note_on,67,81,0
1,note_on,67,0,60
1,note_on,74,87,0
1,note_on,74,0,120
1,note_on,81,54,120
1,note_on,79,51,60
1,note_on,81,0,12
1,note_on,78,54,48
1,note_on,79,0,12
1,note_on,76,52,48
1,note_on,78,0,12
1,note_on,74,57,48
1,note_on,76,0,12
1,note_on,74,0,108
1,note_on,76,54,120
1,note_on,74,51,60
1,note_on,76,0,12
1,note_on,72,54,48
1,note_on,74,0,12
1,note_on,71,51,48
1,note_on,72,0,12
1,note_on,69,57,48
1,note_on,71,0,12
1,note_on,69,0,108
1,note_on,74,56,120
1,note_on,72,56,60
1,note_on,74,0,12
1,note_on,71,56,48
1,note_on,72,0,12
1,note_on,69,53,48
1,note_on,71,0,12
1,note_on,67,84,48
1,note_on,69,0,12
1,note_on,67,0,48
1,note_on,62,80,0
1,note_on,62,0,60
1,note_on,67,84,0
1,note_on,67,0,60
1,note_on,62,80,0
1,note_on,62,0,60
1,note_on,71,84,0
1,note_on,71,0,60
1,note_on,67,80,0
1,note_on,67,0,60
1,note_on,71,84,0
1,note_on,71,0,60
1,note_on,67,80,0
1,note_on,67,0,60
1,note_on,74,84,0
1,note_on,74,0,120
1,note_on,81,55,120
1,note_on,79,52,60
1,note_on,81,0,12
1,note_on,78,55,48
1,note_on,79,0,12
1,note_on,76,52,48
1,note_on,78,0,12
1,note_on,74,58,48
1,note_on,76,0,12
1,note_on,74,0,48
1,note_on,74,58,60
1,note_on,74,0,60
1,note_on,76,54,60
1,note_on,74,51,60
1,note_on,76,0,12
1,note_on,72,54,48
1,note_on,74,0,12
1,note_on,71,50,48
1,note_on,72,0,12
1,note_on,69,57,48
1,note_on,71,0,12
1,note_on,69,0,48
1,note_on,69,57,60
1,note_on,69,0,60
1,note_on,74,55,60
1,note_on,72,53,60
1,note_on,74,0,12
1,note_on,71,55,48
1,note_on,72,0,12
1,note_on,69,52,48
1,note_on,71,0,12
1,note_on,67,58,48
1,note_on,69,0,12
1,note_on,67,0,228
1,note_on,71,54,0
1,note_on,62,54,0
1,note_on,62,0,120
1,note_on,71,0,0
1,note_on,67,56,120
1,note_on,59,56,0
1,note_on,59,0,120
1,note_on,67,0,0
1,note_on,74,51,360
1,note_on,74,0,360
1,note_on,75,53,0
1,note_on,75,0,120
1,note_on,76,54,0
1,note_on,76,0,120
1,note_on,78,55,0
1,note_on,78,0,120
1,note_on,79,56,0
1,note_on,79,0,120
1,note_on,71,53,0
1,note_on,71,0,120
1,note_on,74,54,0
1,note_on,74,0,120
1,note_on,72,53,0
1,note_on,72,0,120
1,note_on,71,51,120
1,note_on,71,0,120
1,note_on,72,54,0
1,note_on,72,0,120
1,note_on,74,55,0
1,note_on,74,0,120
1,note_on,76,56,0
1,note_on,76,0,120
1,note_on,68,50,0
1,note_on,68,0,120
1,note_on,71,54,0
1,note_on,71,0,120
1,note_on,69,51,0
1,note_on,69,0,120
1,note_on,68,51,120
1,note_on,68,0,120
1,note_on,69,54,0
1,note_on,69,0,120
1,note_on,71,54,0
1,note_on,71,0,120
1,note_on,72,56,0
1,note_on,72,0,120
1,note_on,66,50,0
1,note_on,66,0,120
1,note_on,69,54,0
1,note_on,69,0,120
1,note_on,67,51,0
1,note_on,67,0,120
1,note_on,76,72,0
1,note_on,76,0,120
1,note_on,66,54,0
1,note_on,66,0,120
1,note_on,69,56,0
1,note_on,69,0,120
1,note_on,67,51,0
1,note_on,67,0,120
1,note_on,76,72,0
1,note_on,76,0,120
1,note_on,66,51,0
1,note_on,66,0,120
1,note_on,69,55,0
1,note_on,69,0,120
1,note_on,67,50,0
1,note_on,67,0,120
1,note_on,75,71,0
1,note_on,75,0,120
1,note_on,66,51,0
1,note_on,66,0,120
1,note_on,69,55,0
1,note_on,69,0,120
1,note_on,67,51,0
1,note_on,67,0,120
1,note_on,75,67,0
1,note_on,75,0,120
1,note_on,66,49,0
1,note_on,66,0,120
1,note_on,67,72,0
1,note_on,67,0,120
1,note_on,69,64,0
1,note_on,71,65,60
1,note_on,69,0,12
1,note_on,72,67,48
1,note_on,71,0,12
1,note_on,74,68,48
1,note_on,72,0,12
1,note_on,76,69,48
1,note_on,74,0,12
1,note_on,78,71,48
1,note_on,76,0,12
1,note_on,79,72,48
1,note_on,78,0,12
1,note_on,81,70,48
1,note_on,79,0,12
1,note_on,83,74,48
1,note_on,81,0,12
1,note_on,78,72,48
1,note_on,83,0,12
1,note_on,79,73,48
1,note_on,78,0,12
1,note_on,74,69,48
1,note_on,79,0,12
1,note_on,76,71,48
1,note_on,74,0,12
1,note_on,71,68,48
1,note_on,76,0,12
1,note_on,74,81,48
1,note_on,71,0,12
1,note_on,74,0,468
1,note_on,72,62,0
1,note_on,74,56,40
1,note_on,72,0,5
1,note_on,72,58,35
1,note_on,74,0,5
1,note_on,74,56,35
1,note_on,72,0,5
1,note_on,72,57,35
1,note_on,74,0,5
1,note_on,74,53,35
1,note_on,72,0,5
1,note_on,72,59,35
1,note_on,74,0,5
1,note_on,74,56,35
1,note_on,72,0,5
1,note_on,72,63,35
1,note_on,74,0,5
1,note_on,71,61,35
1,note_on,72,0,20
1,note_on,71,0,40
1,note_on,72,59,0
1,note_on,72,0,60
1,note_on,71,66,0
1,note_on,71,0,480
1,note_on,69,38,90
1,note_on,69,0,30
1,note_on,67,48,0
1,note_on,67,0,60
1,note_on,66,44,0
1,note_on,66,0,60
1,note_on,67,51,0
1,note_on,67,0,30
1,note_on,71,51,90
1,note_on,71,0,30
1,note_on,76,55,90
1,note_on,76,0,240
1,note_on,74,51,0
1,note_on,74,0,240
1,note_on,72,37,90
1,note_on,72,0,30
1,note_on,71,48,0
1,note_on,71,0,60
1,note_on,69,45,0
1,note_on,69,0,60
1,note_on,71,54,0
1,note_on,71,0,30
1,note_on,74,54,90
1,note_on,74,0,30
1,note_on,79,64,90
1,note_on,79,0,240
1,note_on,77,56,0
1,note_on,77,0,240
1,note_on,76,54,90
1,note_on,76,0,30
1,note_on,74,67,0
1,note_on,74,0,60
1,note_on,73,61,0
1,note_on,73,0,60
1,note_on,74,71,0
1,note_on,74,0,30
1,note_on,77,74,90
1,note_on,77,0,30
1,note_on,84,75,90
1,note_on,84,0,120
1,note_on,83,71,0
1,note_on,83,0,240
1,note_on,86,81,0
1,note_on,86,0,240
1,note_on,80,73,0
1,note_on,80,0,240
1,note_on,83,81,0
1,note_on,83,0,240
1,note_on,74,78,0
1,note_on,74,0,240
1,note_on,77,84,0
1,note_on,77,0,240
1,note_on,76,81,0
1,note_on,76,0,240
1,note_on,74,72,0
1,note_on,74,0,120
1,note_on,72,61,0
1,note_on,72,0,570
1,note_on,74,46,0
1,note_on,74,0,30
1,note_on,72,54,0
1,note_on,72,0,60
1,note_on,71,48,0
1,note_on,71,0,60
1,note_on,72,54,0
1,note_on,72,0,120
1,note_on,74,53,0
1,note_on,74,0,60
1,note_on,72,56,60
1,note_on,72,0,480
1,note_on,70,62,0
1,note_on,72,56,40
1,note_on,70,0,5
1,note_on,70,58,35
1,note_on,72,0,5
1,note_on,72,56,35
1,note_on,70,0,5
1,note_on,70,57,35
1,note_on,72,0,5
1,note_on,72,53,35
1,note_on,70,0,5
1,note_on,70,59,35
1,note_on,72,0,5
1,note_on,72,56,35
1,note_on,70,0,5
1,note_on,70,63,35
1,note_on,72,0,5
1,note_on,69,61,35
1,note_on,70,0,20
1,note_on,69,0,40
1,note_on,70,59,0
1,note_on,70,0,60
1,note_on,69,68,0
1,note_on,69,0,120
1,note_on,72,71,0
1,note_on,72,0,240
1,note_on,77,76,0
1,note_on,77,0,240
1,note_on,81,77,0
1,note_on,81,0,240
1,note_on,82,78,0
1,note_on,82,0,120
1,note_on,81,83,0
1,note_on,81,0,480
1,note_on,79,77,0
1,note_on,79,0,240
1,note_on,79,70,240
1,note_on,79,0,360
1,note_on,78,61,0
1,note_on,78,0,120
1,note_on,77,57,0
1,note_on,77,0,120
1,note_on,77,61,360
1,note_on,77,0,360
1,note_on,76,55,0
1,note_on,76,0,120
1,note_on,75,54,0
1,note_on,75,0,120
1,note_on,75,63,360
1,note_on,75,0,120
1,note_on,74,60,0
1,note_on,74,0,120
1,note_on,74,57,0
1,note_on,74,0,60
1,note_on,74,60,60
1,note_on,74,0,60
1,note_on,74,60,60
1,note_on,74,0,240
1,note_on,74,60,0
1,note_on,74,0,240
1,note_on,74,62,0
1,note_on,74,0,210
1,note_on,77,64,0
1,note_on,77,0,30
1,note_on,75,72,0
1,note_on,75,0,450
1,note_on,74,57,0
1,note_on,74,0,30
1,note_on,72,63,0
1,note_on,72,0,240
1,note_on,71,54,0
1,note_on,71,0,120
1,note_on,79,54,0
1,note_on,79,0,120
1,note_on,79,56,120
1,note_on,79,0,120
1,note_on,78,57,120
1,note_on,78,0,120
1,note_on,77,60,120
1,note_on,77,0,120
1,note_on,77,64,0
1,note_on,77,0,120
1,note_on,76,61,0
1,note_on,76,0,120
1,note_on,75,59,120
1,note_on,75,0,120
1,note_on,74,56,120
1,note_on,74,0,120
1,note_on,72,54,120
1,note_on,72,0,120
1,note_on,72,60,0
1,note_on,72,0,120
1,note_on,71,54,0
1,note_on,71,0,120
1,note_on,79,56,60
1,note_on,79,0,60
1,note_on,81,60,0
1,note_on,81,0,60
1,note_on,79,55,0
1,note_on,79,0,60
1,note_on,78,61,60
1,note_on,78,0,60
1,note_on,79,66,0
1,note_on,79,0,60
1,note_on,78,60,0
1,note_on,78,0,60
1,note_on,77,63,60
1,note_on,77,0,60
1,note_on,79,70,0
1,note_on,79,0,60
1,note_on,77,65,0
1,note_on,77,0,60
1,note_on,76,73,60
1,note_on,76,0,60
1,note_on,77,76,0
1,note_on,77,0,60
1,note_on,76,71,0
1,note_on,76,0,60
1,note_on,75,73,60
1,note_on,75,0,60
1,note_on,77,80,0
1,note_on,77,0,60
1,note_on,75,73,0
1,note_on,75,0,60
1,note_on,74,79,60
1,note_on,74,0,60
1,note_on,75,83,0
1,note_on,75,0,60
1,note_on,74,79,0
1,note_on,74,0,60
1,note_on,72,82,60
1,note_on,72,0,60
1,note_on,74,87,0
1,note_on,74,0,60
1,note_on,72,86,0
1,note_on,72,0,60
1,note_on,71,88,0
1,note_on,71,0,60
1,note_on,72,71,30
1,note_on,72,0,30
1,note_on,71,75,0
1,note_on,71,0,60
1,note_on,69,75,0
1,note_on,69,0,60
1,note_on,71,79,0
1,note_on,71,0,120
1,note_on,72,76,0
1,note_on,72,0,60
1,note_on,74,79,60
1,note_on,74,0,60
1,note_on,76,68,30
1,note_on,76,0,30
1,note_on,74,72,0
1,note_on,74,0,60
1,note_on,73,72,0
1,note_on,73,0,60
1,note_on,74,79,0
1,note_on,74,0,120
1,note_on,76,79,0
1,note_on,76,0,60
1,note_on,77,73,60
1,note_on,77,0,240
1,note_on,79,54,60
1,note_on,79,0,60
1,note_on,76,56,0
1,note_on,76,0,60
1,note_on,79,54,0
1,note_on,79,0,60
1,note_on,77,54,0
1,note_on,77,0,240
1,note_on,79,53,60
1,note_on,79,0,60
1,note_on,76,56,0
1,note_on,76,0,60
1,note_on,79,53,0
1,note_on,79,0,60
1,note_on,77,53,0
1,note_on,77,0,240
1,note_on,79,55,60
1,note_on,79,0,60
1,note_on,76,57,0
1,note_on,76,0,60
1,note_on,79,61,0
1,note_on,79,0,60
1,note_on,77,63,0
1,note_on,77,0,60
1,note_on,79,66,0
1,note_on,79,0,60
1,note_on,76,70,0
1,note_on,76,0,60
1,note_on,79,68,0
1,note_on,79,0,60
1,note_on,77,75,0
1,note_on,77,0,60
1,note_on,79,73,0
1,note_on,79,0,60
1,note_on,76,81,0
1,note_on,76,0,60
1,note_on,79,79,0
1,note_on,79,0,60
1,note_on,77,86,0
1,note_on,77,0,120
1,note_on,76,72,0
1,note_on,76,0,60
1,note_on,74,77,60
1,note_on,74,0,60
1,note_on,72,72,60
1,note_on,72,0,60
1,note_on,71,60,60
1,note_on,71,0,60
1,note_on,72,62,60
1,note_on,72,0,60
1,note_on,74,59,60
1,note_on,74,0,60
1,note_on,76,56,60
1,note_on,76,0,60
1,note_on,77,62,60
1,note_on,77,0,60
1,note_on,76,57,60
1,note_on,76,0,60
1,note_on,74,61,60
1,note_on,74,0,60
1,note_on,76,64,60
1,note_on,76,0,60
1,note_on,77,67,60
1,note_on,77,0,60
1,note_on,76,71,60
1,note_on,76,0,60
1,note_on,77,73,60
1,note_on,77,0,60
1,note_on,78,77,60
1,note_on,78,0,60
1,note_on,79,86,0
1,note_on,79,0,120
1,note_on,79,82,120
1,note_on,79,0,360
1,note_on,77,71,0
1,note_on,77,0,60
1,note_on,76,69,0
1,note_on,76,0,60
1,note_on,76,70,0
1,note_on,76,0,56
1,note_on,74,66,4
1,note_on,74,0,60
1,note_on,72,67,0
1,note_on,72,0,60
1,note_on,71,66,0
1,note_on,71,0,60
1,note_on,72,47,0
1,note_on,74,49,40
1,note_on,72,0,5
1,note_on,72,55,35
1,note_on,74,0,5
1,note_on,74,52,35
1,note_on,72,0,5
1,note_on,72,57,35
1,note_on,74,0,5
1,note_on,74,51,35
1,note_on,72,0,5
1,note_on,72,59,35
1,note_on,74,0,5
1,note_on,74,56,35
1,note_on,72,0,5
1,note_on,72,63,35
1,note_on,74,0,5
1,note_on,74,62,35
1,note_on,72,0,20
1,note_on,74,0,40
1,note_on,76,63,0
1,note_on,76,0,60
1,note_on,67,71,0
1,note_on,67,0,240
1,note_on,79,86,240
1,note_on,79,0,60
1,note_on,79,78,60
1,note_on,79,0,60
1,note_on,79,76,60
1,note_on,79,0,360
1,note_on,77,64,0
1,note_on,77,0,60
1,note_on,76,61,0
1,note_on,76,0,56
1,note_on,76,64,4
1,note_on,76,0,60
1,note_on,74,61,0
1,note_on,74,0,60
1,note_on,72,61,0
1,note_on,72,0,60
1,note_on,71,60,0
1,note_on,71,0,60
1,note_on,72,47,0
1,note_on,74,49,40
1,note_on,72,0,5
1,note_on,72,55,35
1,note_on,74,0,5
1,note_on,74,52,35
1,note_on,72,0,5
1,note_on,72,57,35
1,note_on,74,0,5
1,note_on,74,51,35
1,note_on,72,0,5
1,note_on,72,59,35
1,note_on,74,0,5
1,note_on,74,56,35
1,note_on,72,0,5
1,note_on,72,63,35
1,note_on,74,0,5
1,note_on,74,62,35
1,note_on,72,0,20
1,note_on,74,0,40
1,note_on,76,63,0
1,note_on,76,0,60
1,note_on,67,65,0
1,note_on,67,0,240
1,note_on,69,56,240
1,note_on,69,0,60
1,note_on,72,54,60
1,note_on,72,0,60
1,note_on,77,56,60
1,note_on,77,0,60
1,note_on,81,54,60
1,note_on,81,0,60
1,note_on,84,66,60
1,note_on,84,0,60
1,note_on,89,70,60
1,note_on,89,0,120
1,note_on,67,58,240
1,note_on,67,0,60
1,note_on,72,56,60
1,note_on,72,0,60
1,note_on,76,58,60
1,note_on,76,0,60
1,note_on,79,55,60
1,note_on,79,0,60
1,note_on,84,66,60
1,note_on,84,0,60
1,note_on,88,74,60
1,note_on,88,0,120
1,note_on,67,63,180
1,note_on,67,0,60
1,note_on,79,84,0
1,note_on,79,0,720
1,note_on,77,60,0
1,note_on,77,0,40
1,note_on,79,68,0
1,note_on,79,0,40
1,note_on,77,68,0
1,note_on,77,0,40
1,note_on,76,76,0
1,note_on,76,0,60
1,note_on,77,71,0
1,note_on,77,0,60
1,note_on,75,78,0
1,note_on,75,0,240
1,note_on,76,75,0
1,note_on,76,0,240
1,note_on,69,61,480
1,note_on,69,0,60
1,note_on,72,57,0
1,note_on,72,0,60
1,note_on,74,61,0
1,note_on,74,0,60
1,note_on,76,56,0
1,note_on,76,0,60
1,note_on,77,61,0
1,note_on,77,0,60
1,note_on,79,58,0
1,note_on,79,0,60
1,note_on,81,61,0
1,note_on,81,0,60
1,note_on,83,57,0
1,note_on,83,0,60
1,note_on,84,72,0
1,note_on,84,0,120
1,note_on,67,63,360
1,note_on,67,0,60
1,note_on,72,58,0
1,note_on,72,0,60
1,note_on,74,63,0
1,note_on,74,0,60
1,note_on,76,56,0
1,note_on,76,0,60
1,note_on,77,63,0
1,note_on,77,0,60
1,note_on,79,58,0
1,note_on,79,0,60
1,note_on,81,63,0
1,note_on,81,0,60
1,note_on,83,58,0
1,note_on,83,0,60
1,note_on,84,72,0
1,note_on,84,0,120
1,note_on,81,85,360
1,note_on,81,0,120
1,note_on,79,79,0
1,note_on,79,0,120
1,note_on,77,82,0
1,note_on,77,0,60
1,note_on,76,78,60
1,note_on,76,0,60
1,note_on,76,85,60
1,note_on,76,0,120
1,note_on,74,74,0
1,note_on,74,0,120
1,note_on,72,77,0
1,note_on,72,0,60
1,note_on,71,76,60
1,note_on,71,0,60
1,note_on,72,77,60
1,note_on,67,68,60
1,note_on,72,0,12
1,note_on,69,72,48
1,note_on,67,0,12
1,note_on,71,70,48
1,note_on,69,0,12
1,note_on,72,75,48
1,note_on,71,0,12
1,note_on,74,73,48
1,note_on,72,0,12
1,note_on,76,78,48
1,note_on,74,0,12
1,note_on,77,76,48
1,note_on,76,0,12
1,note_on,79,80,48
1,note_on,77,0,12
1,note_on,81,77,48
1,note_on,79,0,12
1,note_on,83,78,48
1,note_on,81,0,12
1,note_on,84,75,48
1,note_on,83,0,12
1,note_on,79,81,48
1,note_on,84,0,12
1,note_on,79,0,48
1,note_on,79,79,60
1,note_on,79,0,60
1,note_on,79,54,120
1,note_on,79,0,60
1,note_on,81,57,0
1,note_on,81,0,60
1,note_on,79,54,0
1,note_on,79,0,60
1,note_on,77,54,60
1,note_on,77,0,60
1,note_on,79,57,0
1,note_on,79,0,60
1,note_on,77,54,0
1,note_on,77,0,60
1,note_on,76,54,60
1,note_on,76,0,60
1,note_on,77,56,0
1,note_on,77,0,60
1,note_on,76,54,0
1,note_on,76,0,60
1,note_on,74,54,60
1,note_on,74,0,60
1,note_on,76,56,0
1,note_on,76,0,60
1,note_on,74,54,0
1,note_on,74,0,60
1,note_on,72,83,0
1,note_on,67,76,60
1,note_on,72,0,12
1,note_on,69,79,48
1,note_on,67,0,12
1,note_on,71,75,48
1,note_on,69,0,12
1,note_on,72,81,48
1,note_on,71,0,12
1,note_on,74,79,48
1,note_on,72,0,12
1,note_on,76,82,48
1,note_on,74,0,12
1,note_on,77,78,48
1,note_on,76,0,12
1,note_on,79,81,48
1,note_on,77,0,12
1,note_on,81,76,48
1,note_on,79,0,12
1,note_on,83,80,48
1,note_on,81,0,12
1,note_on,84,75,48
1,note_on,83,0,12
1,note_on,79,82,48
1,note_on,84,0,12
1,note_on,79,0,48
1,note_on,79,80,60
1,note_on,79,0,60
1,note_on,79,54,120
1,note_on,79,0,60
1,note_on,81,56,0
1,note_on,81,0,60
1,note_on,79,54,0
1,note_on,79,0,60
1,note_on,77,54,60
1,note_on,77,0,60
1,note_on,79,56,0
1,note_on,79,0,60
1,note_on,77,54,0
1,note_on,77,0,60
1,note_on,76,54,60
1,note_on,76,0,60
1,note_on,77,56,0
1,note_on,77,0,60
1,note_on,76,54,0
1,note_on,76,0,60
1,note_on,74,54,60
1,note_on,74,0,60
1,note_on,76,54,0
1,note_on,76,0,60
1,note_on,74,54,0
1,note_on,74,0,60
1,note_on,72,81,0
1,note_on,72,0,60
1,note_on,72,81,60
1,note_on,72,0,240
1,note_on,74,73,0
1,note_on,74,0,60
1,note_on,76,70,0
1,note_on,76,0,60
1,note_on,77,82,0
1,note_on,77,0,60
1,note_on,77,79,60
1,note_on,77,0,240
1,note_on,79,76,0
1,note_on,79,0,60
1,note_on,81,76,0
1,note_on,81,0,60
1,note_on,79,83,0
1,note_on,79,0,120
1,note_on,76,80,0
1,note_on,76,0,120
1,note_on,84,83,0
1,note_on,84,0,60
1,note_on,84,80,60
1,note_on,84,0,60
1,note_on,86,84,60
1,note_on,84,76,60
1,note_on,86,0,12
1,note_on,83,78,48
1,note_on,84,0,12
1,note_on,81,73,48
1,note_on,83,0,12
1,note_on,81,0,44
1,note_on,81,73,4
1,note_on,79,66,60
1,note_on,81,0,12
1,note_on,77,68,48
1,note_on,79,0,12
1,note_on,76,64,48
1,note_on,77,0,12
1,note_on,76,0,48
1,note_on,79,68,0
1,note_on,79,0,360
1,note_on,76,69,0
1,note_on,76,0,120
1,note_on,74,67,0
1,note_on,74,0,240
1,note_on,73,60,240
1,note_on,73,0,120
1,note_on,74,56,0
1,note_on,74,0,120
1,note_on,72,55,0
1,note_on,72,0,60
1,note_on,71,52,0
1,note_on,71,0,60
1,note_on,69,55,0
1,note_on,69,0,60
1,note_on,67,53,0
1,note_on,67,0,60
1,note_on,73,61,0
1,note_on,73,0,120
1,note_on,74,59,0
1,note_on,74,0,120
1,note_on,72,55,0
1,note_on,72,0,60
1,note_on,71,54,0
1,note_on,71,0,60
1,note_on,69,55,0
1,note_on,69,0,60
1,note_on,67,53,0
1,note_on,67,0,60
1,note_on,75,64,0
1,note_on,75,0,120
1,note_on,76,61,0
1,note_on,76,0,120
1,note_on,76,63,0
1,note_on,76,0,60
1,note_on,76,59,60
1,note_on,76,0,60
1,note_on,76,63,60
1,note_on,76,0,240
1,note_on,69,60,180
1,note_on,69,0,60
1,note_on,81,87,0
1,note_on,81,0,360
1,note_on,79,76,0
1,note_on,79,0,40
1,note_on,78,72,0
1,note_on,78,0,40
1,note_on,76,76,0
1,note_on,76,0,40
1,note_on,74,84,0
1,note_on,74,0,120
1,note_on,86,82,0
1,note_on,86,0,60
1,note_on,86,82,60
1,note_on,86,0,60
1,note_on,86,79,60
1,note_on,86,0,60
1,note_on,86,90,60
1,note_on,86,0,300
1,note_on,83,74,0
1,note_on,83,0,60
1,note_on,86,77,0
1,note_on,86,0,60
1,note_on,83,76,0
1,note_on,83,0,60
1,note_on,79,77,0
1,note_on,79,0,120
1,note_on,71,54,0
1,note_on,74,54,0
1,note_on,74,0,120
1,note_on,71,0,0
1,note_on,76,54,0
1,note_on,72,54,0
1,note_on,72,0,120
1,note_on,76,0,0
1,note_on,77,50,0
1,note_on,74,50,0
1,note_on,74,0,120
1,note_on,77,0,0
1,note_on,78,60,0
1,note_on,78,0,120
1,note_on,79,58,0
1,note_on,79,0,120
1,note_on,77,54,0
1,note_on,77,0,60
1,note_on,76,51,0
1,note_on,76,0,60
1,note_on,74,54,0
1,note_on,74,0,60
1,note_on,72,52,0
1,note_on,72,0,60
1,note_on,78,54,0
1,note_on,78,0,60
1,note_on,79,53,0
1,note_on,79,0,60
1,note_on,81,55,0
1,note_on,81,0,60
1,note_on,79,57,0
1,note_on,79,0,60
1,note_on,77,56,0
1,note_on,77,0,60
1,note_on,76,55,0
1,note_on,76,0,60
1,note_on,74,54,0
1,note_on,74,0,60
1,note_on,72,54,0
1,note_on,72,0,60
1,note_on,80,62,0
1,note_on,80,0,120
1,note_on,81,56,0
1,note_on,81,0,120
1,note_on,81,60,0
1,note_on,81,0,60
1,note_on,81,56,60
1,note_on,81,0,60
1,note_on,81,63,60
1,note_on,81,0,240
1,note_on,86,81,240
1,note_on,88,77,60
1,note_on,86,0,12
1,note_on,89,81,48
1,note_on,88,0,12
1,note_on,88,77,48
1,note_on,89,0,12
1,note_on,86,79,48
1,note_on,88,0,12
1,note_on,84,73,48
1,note_on,86,0,12
1,note_on,83,77,48
1,note_on,84,0,12
1,note_on,81,75,48
1,note_on,83,0,12
1,note_on,79,78,48
1,note_on,81,0,12
1,note_on,83,73,48
1,note_on,79,0,12
1,note_on,86,81,48
1,note_on,83,0,12
1,note_on,84,74,48
1,note_on,86,0,12
1,note_on,83,81,48
1,note_on,84,0,12
1,note_on,81,75,48
1,note_on,83,0,12
1,note_on,79,81,48
1,note_on,81,0,12
1,note_on,77,76,48
1,note_on,79,0,12
1,note_on,76,86,48
1,note_on,77,0,12
1,note_on,76,0,108
1,note_on,79,71,120
1,note_on,79,0,30
1,note_on,77,66,0
1,note_on,77,0,30
1,note_on,79,71,0
1,note_on,79,0,30
1,note_on,77,67,0
1,note_on,77,0,30
1,note_on,76,81,0
1,note_on,76,0,60
1,note_on,77,79,0
1,note_on,77,0,60
1,note_on,79,89,0
1,note_on,79,0,120
1,note_on,81,53,280
1,note_on,81,0,40
1,note_on,83,49,0
1,note_on,83,0,40
1,note_on,84,61,0
1,note_on,84,0,237
1,note_on,84,56,3
1,note_on,84,0,177
1,note_on,84,54,3
1,note_on,84,0,57
1,note_on,84,56,3
1,note_on,84,0,240
1,note_on,83,55,0
1,note_on,83,0,60
1,note_on,81,50,0
1,note_on,81,0,60
1,note_on,79,53,0
1,note_on,79,0,60
1,note_on,77,51,0
1,note_on,77,0,60
1,note_on,76,78,0
1,note_on,76,0,120
1,note_on,77,67,120
1,note_on,77,0,30
1,note_on,79,63,0
1,note_on,79,0,30
1,note_on,77,67,0
1,note_on,77,0,30
1,note_on,79,63,0
1,note_on,79,0,30
1,note_on,77,67,0
1,note_on,77,0,30
1,note_on,76,76,10
1,note_on,76,0,40
1,note_on,77,72,0
1,note_on,77,0,40
1,note_on,79,87,0
1,note_on,79,0,120
1,note_on,81,53,280
1,note_on,81,0,40
1,note_on,83,48,0
1,note_on,83,0,40
1,note_on,84,61,0
1,note_on,84,0,237
1,note_on,84,55,3
1,note_on,84,0,177
1,note_on,84,52,3
1,note_on,84,0,57
1,note_on,84,55,3
1,note_on,84,0,240
1,note_on,83,54,0
1,note_on,83,0,60
1,note_on,81,52,0
1,note_on,81,0,60
1,note_on,79,54,0
1,note_on,79,0,60
1,note_on,77,53,0
1,note_on,77,0,60
1,note_on,76,83,0
1,note_on,76,0,60
1,note_on,84,78,60
1,note_on,86,78,60
1,note_on,84,0,12
1,note_on,88,81,48
1,note_on,86,0,12
1,note_on,86,78,48
1,note_on,88,0,12
1,note_on,84,81,48
1,note_on,86,0,12
1,note_on,83,78,48
1,note_on,84,0,12
1,note_on,81,81,48
1,note_on,83,0,12
1,note_on,79,78,48
1,note_on,81,0,12
1,note_on,77,81,48
1,note_on,79,0,12
1,note_on,76,76,48
1,note_on,77,0,12
1,note_on,74,81,48
1,note_on,76,0,12
1,note_on,72,76,48
1,note_on,74,0,12
1,note_on,71,81,48
1,note_on,72,0,12
1,note_on,69,73,48
1,note_on,71,0,12
1,note_on,67,85,48
1,note_on,69,0,12
1,note_on,67,0,108
1,note_on,65,90,120
1,note_on,65,0,480
1,note_on,64,76,0
1,note_on,64,0,240
1,note_on,62,55,120
1,note_on,62,0,60
1,note_on,65,54,60
1,note_on,65,0,60
1,note_on,69,53,60
1,note_on,69,0,60
1,note_on,73,55,60
1,note_on,73,0,120
1,note_on,74,54,0
1,note_on,74,0,120
1,note_on,77,55,0
1,note_on,77,0,120
1,note_on,81,53,0
1,note_on,81,0,120
1,note_on,81,61,0
1,note_on,81,0,120
1,note_on,72,55,0
1,note_on,72,0,117
1,note_on,72,54,3
1,note_on,72,0,480
1,note_on,71,56,0
1,note_on,76,56,0
1,note_on,76,0,120
1,note_on,74,54,0
1,note_on,74,0,120
1,note_on,71,0,0
1,note_on,72,54,0
1,note_on,72,0,240
1,note_on,79,76,240
1,note_on,79,0,120
1,note_on,76,72,0
1,note_on,76,0,120
1,note_on,84,57,0
1,note_on,84,0,120
1,note_on,83,53,0
1,note_on,83,0,60
1,note_on,81,51,60
1,note_on,81,0,60
1,note_on,79,49,60
1,note_on,79,0,60
1,note_on,77,54,60
1,note_on,77,0,60
1,note_on,76,50,60
1,note_on,76,0,60
1,note_on,74,53,60
1,note_on,74,0,120
1,note_on,76,54,120
1,note_on,76,0,120
1,note_on,79,58,120
1,note_on,79,0,120
1,note_on,78,54,0
1,note_on,78,0,120
1,note_on,77,54,0
1,note_on,77,0,120
1,note_on,76,51,120
1,note_on,76,0,120
1,note_on,77,54,0
1,note_on,77,0,120
1,note_on,79,57,0
1,note_on,79,0,120
1,note_on,80,59,0
1,note_on,80,0,60
1,note_on,81,49,60
1,note_on,81,0,36
1,note_on,83,51,0
1,note_on,83,0,36
1,note_on,81,54,0
1,note_on,81,0,36
1,note_on,83,56,0
1,note_on,83,0,36
1,note_on,81,58,0
1,note_on,81,0,36
1,note_on,83,62,0
1,note_on,83,0,60
1,note_on,84,68,0
1,note_on,84,0,60
1,note_on,83,61,60
1,note_on,83,0,60
1,note_on,81,62,60
1,note_on,81,0,60
1,note_on,79,57,60
1,note_on,79,0,60
1,note_on,77,60,60
1,note_on,77,0,60
1,note_on,76,57,60
1,note_on,76,0,60
1,note_on,79,64,60
1,note_on,79,0,180
1,note_on,76,61,0
1,note_on,76,0,60
1,note_on,74,61,0
1,note_on,74,0,120
1,note_on,79,86,120
1,note_on,79,0,180
1,note_on,81,81,0
1,note_on,81,0,30
1,note_on,83,76,0
1,note_on,83,0,30
1,note_on,84,85,0
1,note_on,84,0,120
1,note_on,83,62,0
1,note_on,83,0,60
1,note_on,81,62,60
1,note_on,81,0,60
1,note_on,79,60,60
1,note_on,79,0,60
1,note_on,77,62,60
1,note_on,77,0,60
1,note_on,76,59,60
1,note_on,76,0,60
1,note_on,74,63,60
1,note_on,74,0,120
1,note_on,76,70,120
1,note_on,76,0,120
1,note_on,77,72,120
1,note_on,77,0,120
1,note_on,78,78,120
1,note_on,78,0,120
1,note_on,79,79,120
1,note_on,79,0,120
1,note_on,80,82,120
1,note_on,80,0,120
1,note_on,81,85,120
1,note_on,81,0,180
1,note_on,69,79,0
1,note_on,69,0,60
1,note_on,77,84,0
1,note_on,77,0,180
1,note_on,74,81,0
1,note_on,74,0,60
1,note_on,72,77,0
1,note_on,76,64,210
1,note_on,76,0,30
1,note_on,72,0,0
1,note_on,74,71,0
1,note_on,71,71,0
1,note_on,71,0,240
1,note_on,74,0,0
1,note_on,72,71,0
1,note_on,72,0,240
1,note_on,72,64,60
1,note_on,72,0,60
1,note_on,74,65,0
1,note_on,74,0,60
1,note_on,76,66,0
1,note_on,76,0,60
1,note_on,77,68,0
1,note_on,77,0,30
1,note_on,79,68,0
1,note_on,79,0,30
1,note_on,77,59,0
1,note_on,77,0,30
1,note_on,76,70,0
1,note_on,77,71,30
1,note_on,76,0,30
1,note_on,77,0,30
1,note_on,79,72,0
1,note_on,79,0,60
1,note_on,81,66,0
1,note_on,81,0,25
1,note_on,83,65,5
1,note_on,83,0,25
1,note_on,81,70,5
1,note_on,79,75,30
1,note_on,81,0,30
1,note_on,81,76,0
1,note_on,79,0,30
1,note_on,81,0,30
1,note_on,83,78,0
1,note_on,83,0,60
1,note_on,84,87,0
1,note_on,84,0,60
1,note_on,84,84,60
1,note_on,84,0,60
1,note_on,72,63,120
1,note_on,72,0,60
1,note_on,74,65,0
1,note_on,74,0,60
1,note_on,76,66,0
1,note_on,76,0,60
1,note_on,77,68,0
1,note_on,77,0,30
1,note_on,79,68,0
1,note_on,79,0,30
1,note_on,77,59,0
1,note_on,77,0,30
1,note_on,76,70,0
1,note_on,77,71,30
1,note_on,76,0,30
1,note_on,77,0,30
1,note_on,79,72,0
1,note_on,79,0,60
1,note_on,81,66,0
1,note_on,81,0,25
1,note_on,83,65,5
1,note_on,83,0,25
1,note_on,81,70,5
1,note_on,79,75,30
1,note_on,81,0,30
1,note_on,81,76,0
1,note_on,79,0,30
1,note_on,81,0,30
1,note_on,83,78,0
1,note_on,83,0,60
1,note_on,84,88,0
1,note_on,84,0,60
1,note_on,84,86,60
1,note_on,84,0,60
1,note_on,79,55,120
1,note_on,79,0,60
1,note_on,83,58,0
1,note_on,83,0,60
1,note_on,79,55,0
1,note_on,79,0,60
1,note_on,84,59,0
1,note_on,84,0,60
1,note_on,84,59,60
1,note_on,84,0,60
1,note_on,79,54,120
1,note_on,79,0,60
1,note_on,83,57,0
1,note_on,83,0,60
1,note_on,79,54,0
1,note_on,79,0,60
1,note_on,84,59,0
1,note_on,84,0,60
1,note_on,84,66,60
1,note_on,84,0,60
1,note_on,79,67,120
1,note_on,79,0,60
1,note_on,83,71,0
1,note_on,83,0,60
1,note_on,79,68,0
1,note_on,79,0,60
1,note_on,84,75,0
1,note_on,84,0,60
1,note_on,79,72,0
1,note_on,79,0,60
1,note_on,84,79,0
1,note_on,84,0,60
1,note_on,79,75,0
1,note_on,79,0,60
1,note_on,86,83,0
1,note_on,86,0,60
1,note_on,79,81,0
1,note_on,79,0,60
1,note_on,86,88,0
1,note_on,86,0,60
1,note_on,79,83,0
1,note_on,79,0,60
1,note_on,88,91,0
1,note_on,88,0,120
1,note_on,84,80,0
1,note_on,84,0,120
1,note_on,79,82,0
1,note_on,79,0,120
1,note_on,84,79,0
1,note_on,84,0,120
1,note_on,76,78,0
1,note_on,76,0,120
1,note_on,79,71,0
1,note_on,79,0,120
1,note_on,72,72,0
1,note_on,72,0,120
1,note_on,76,69,0
1,note_on,76,0,120
1,note_on,69,60,0
1,note_on,69,0,120
1,note_on,81,60,0
1,note_on,81,0,120
1,note_on,79,63,0
1,note_on,79,0,60
1,note_on,77,58,0
1,note_on,77,0,60
1,note_on,76,63,0
1,note_on,76,0,60
1,note_on,74,58,0
1,note_on,74,0,60
1,note_on,72,63,0
1,note_on,72,0,240
1,note_on,71,60,0
1,note_on,71,0,32
1,note_on,72,63,0
1,note_on,72,0,32
1,note_on,71,60,0
1,note_on,71,0,32
1,note_on,72,63,0
1,note_on,72,0,32
1,note_on,71,63,0
1,note_on,71,0,32
1,note_on,69,63,0
1,note_on,69,0,40
1,note_on,71,60,0
1,note_on,71,0,40
1,note_on,72,71,0
1,note_on,72,0,240
1,note_on,72,64,60
1,note_on,72,0,60
1,note_on,74,65,0
1,note_on,74,0,60
1,note_on,76,66,0
1,note_on,76,0,60
1,note_on,77,68,0
1,note_on,77,0,30
1,note_on,79,68,0
1,note_on,79,0,30
1,note_on,77,59,0
1,note_on,77,0,30
1,note_on,76,70,0
1,note_on,77,71,30
1,note_on,76,0,30
1,note_on,77,0,30
1,note_on,79,72,0
1,note_on,79,0,60
1,note_on,81,66,0
1,note_on,81,0,25
1,note_on,83,65,5
1,note_on,83,0,25
1,note_on,81,70,5
1,note_on,79,75,30
1,note_on,81,0,30
1,note_on,81,76,0
1,note_on,79,0,30
1,note_on,81,0,30
1,note_on,83,78,0
1,note_on,83,0,60
1,note_on,84,84,0
1,note_on,84,0,60
1,note_on,84,81,60
1,note_on,84,0,60
1,note_on,72,63,120
1,note_on,72,0,60
1,note_on,74,65,0
1,note_on,74,0,60
1,note_on,76,66,0
1,note_on,76,0,60
1,note_on,77,68,0
1,note_on,77,0,30
1,note_on,79,68,0
1,note_on,79,0,30
1,note_on,77,59,0
1,note_on,77,0,30
1,note_on,76,70,0
1,note_on,77,71,30
1,note_on,76,0,30
1,note_on,77,0,30
1,note_on,79,72,0
1,note_on,79,0,60
1,note_on,81,66,0
1,note_on,81,0,25
1,note_on,83,65,5
1,note_on,83,0,25
1,note_on,81,70,5
1,note_on,79,75,30
1,note_on,81,0,30
1,note_on,81,76,0
1,note_on,79,0,30
1,note_on,81,0,30
1,note_on,83,78,0
1,note_on,83,0,60
1,note_on,84,84,0
1,note_on,84,0,60
1,note_on,84,80,60
1,note_on,84,0,60
1,note_on,79,55,120
1,note_on,79,0,60
1,note_on,83,59,0
1,note_on,83,0,60
1,note_on,79,55,0
1,note_on,79,0,60
1,note_on,84,59,0
1,note_on,84,0,60
1,note_on,84,59,60
1,note_on,84,0,60
1,note_on,79,54,120
1,note_on,79,0,60
1,note_on,83,56,0
1,note_on,83,0,60
1,note_on,79,54,0
1,note_on,79,0,60
1,note_on,84,59,0
1,note_on,84,0,60
1,note_on,84,59,60
1,note_on,84,0,60
1,note_on,79,67,120
1,note_on,79,0,60
1,note_on,83,71,0
1,note_on,83,0,60
1,note_on,79,68,0
1,note_on,79,0,60
1,note_on,84,75,0
1,note_on,84,0,60
1,note_on,79,73,0
1,note_on,79,0,60
1,note_on,84,79,0
1,note_on,84,0,60
1,note_on,79,77,0
1,note_on,79,0,60
1,note_on,86,83,0
1,note_on,86,0,60
1,note_on,79,81,0
1,note_on,79,0,60
1,note_on,86,88,0
1,note_on,86,0,60
1,note_on,79,82,0
1,note_on,79,0,60
1,note_on,88,88,0
1,note_on,88,0,60
1,note_on,84,78,0
1,note_on,84,0,60
1,note_on,88,84,0
1,note_on,88,0,60
1,note_on,84,80,0
1,note_on,84,0,60
1,note_on,79,82,0
1,note_on,79,0,60
1,note_on,84,74,0
1,note_on,84,0,60
1,note_on,79,79,0
1,note_on,79,0,60
1,note_on,84,71,0
1,note_on,84,0,60
1,note_on,76,78,0
1,note_on,76,0,60
1,note_on,79,71,0
1,note_on,79,0,60
1,note_on,76,76,0
1,note_on,76,0,60
1,note_on,79,71,0
1,note_on,79,0,60
1,note_on,72,72,0
1,note_on,72,0,60
1,note_on,76,67,0
1,note_on,76,0,60
1,note_on,72,71,0
1,note_on,72,0,60
1,note_on,76,63,0
1,note_on,76,0,60
1,note_on,69,60,0
1,note_on,69,0,120
1,note_on,81,63,0
1,note_on,81,0,120
1,note_on,79,63,0
1,note_on,79,0,60
1,note_on,77,58,0
1,note_on,77,0,60
1,note_on,76,63,0
1,note_on,76,0,60
1,note_on,74,60,0
1,note_on,74,0,60
1,note_on,72,63,0
1,note_on,72,0,240
1,note_on,71,60,0
1,note_on,71,0,32
1,note_on,72,63,0
1,note_on,72,0,32
1,note_on,71,60,0
1,note_on,71,0,32
1,note_on,72,63,0
1,note_on,72,0,32
1,note_on,71,63,0
1,note_on,71,0,32
1,note_on,69,63,0
1,note_on,69,0,40
1,note_on,71,60,0
1,note_on,71,0,40
1,note_on,72,82,0
1,note_on,72,0,180
1,note_on,67,78,0
1,note_on,67,0,60
1,note_on,76,82,0
1,note_on,76,0,180
1,note_on,72,76,0
1,note_on,72,0,60
1,note_on,79,81,0
1,note_on,79,0,120
1,note_on,86,54,120
1,note_on,84,50,60
1,note_on,86,0,12
1,note_on,83,54,48
1,note_on,84,0,12
1,note_on,81,49,48
1,note_on,83,0,12
1,note_on,79,57,48
1,note_on,81,0,12
1,note_on,79,0,108
1,note_on,81,54,120
1,note_on,79,50,60
1,note_on,81,0,12
1,note_on,77,54,48
1,note_on,79,0,12
1,note_on,76,50,48
1,note_on,77,0,12
1,note_on,74,57,48
1,note_on,76,0,12
1,note_on,74,0,108
1,note_on,79,56,120
1,note_on,77,53,60
1,note_on,79,0,12
1,note_on,76,56,48
1,note_on,77,0,12
1,note_on,74,52,48
1,note_on,76,0,12
1,note_on,72,81,48
1,note_on,74,0,12
1,note_on,72,0,48
1,note_on,67,75,0
1,note_on,67,0,60
1,note_on,72,82,0
1,note_on,72,0,60
1,note_on,67,78,0
1,note_on,67,0,60
1,note_on,76,82,0
1,note_on,76,0,60
1,note_on,72,78,0
1,note_on,72,0,60
1,note_on,76,82,0
1,note_on,76,0,60
1,note_on,72,76,0
1,note_on,72,0,60
1,note_on,79,82,0
1,note_on,79,0,120
1,note_on,86,55,120
1,note_on,84,53,60
1,note_on,86,0,12
1,note_on,83,55,48
1,note_on,84,0,12
1,note_on,81,53,48
1,note_on,83,0,12
1,note_on,79,58,48
1,note_on,81,0,12
1,note_on,79,0,48
1,note_on,79,58,60
1,note_on,79,0,60
1,note_on,81,54,60
1,note_on,79,50,60
1,note_on,81,0,12
1,note_on,77,54,48
1,note_on,79,0,12
1,note_on,76,50,48
1,note_on,77,0,12
1,note_on,74,57,48
1,note_on,76,0,12
1,note_on,74,0,48
1,note_on,74,57,60
1,note_on,74,0,60
1,note_on,79,55,60
1,note_on,77,51,60
1,note_on,79,0,12
1,note_on,76,55,48
1,note_on,77,0,12
1,note_on,74,51,48
1,note_on,76,0,12
1,note_on,72,62,48
1,note_on,74,0,12
1,note_on,72,0,228
1,note_on,80,57,120
1,note_on,80,0,120
1,note_on,81,62,0
1,note_on,81,0,120
1,note_on,83,64,0
1,note_on,83,0,120
1,note_on,84,70,0
1,note_on,84,0,120
1,note_on,76,62,0
1,note_on,76,0,120
1,note_on,79,66,0
1,note_on,79,0,120
1,note_on,77,62,0
1,note_on,77,0,120
1,note_on,76,55,120
1,note_on,76,0,120
1,note_on,77,60,0
1,note_on,77,0,120
1,note_on,79,62,0
1,note_on,79,0,120
1,note_on,81,65,0
1,note_on,81,0,120
1,note_on,73,57,0
1,note_on,73,0,120
1,note_on,76,63,0
1,note_on,76,0,120
1,note_on,74,57,0
1,note_on,74,0,120
1,note_on,73,49,120
1,note_on,73,0,120
1,note_on,74,52,0
1,note_on,74,0,120
1,note_on,76,54,0
1,note_on,76,0,120
1,note_on,77,57,0
1,note_on,77,0,120
1,note_on,71,49,0
1,note_on,71,0,120
1,note_on,74,50,0
1,note_on,74,0,120
1,note_on,72,49,0
1,note_on,72,0,120
1,note_on,81,70,0
1,note_on,81,0,120
1,note_on,71,49,0
1,note_on,71,0,120
1,note_on,74,51,0
1,note_on,74,0,120
1,note_on,72,49,0
1,note_on,72,0,120
1,note_on,81,70,0
1,note_on,81,0,120
1,note_on,71,49,0
1,note_on,71,0,120
1,note_on,74,49,120
1,note_on,74,0,60
1,note_on,72,43,0
1,note_on,72,0,60
1,note_on,80,57,120
1,note_on,80,0,60
1,note_on,71,43,0
1,note_on,71,0,60
1,note_on,74,51,120
1,note_on,74,0,60
1,note_on,72,43,0
1,note_on,72,0,60
1,note_on,80,55,120
1,note_on,80,0,60
1,note_on,71,41,0
1,note_on,71,0,60
1,note_on,71,54,0
1,note_on,74,54,0
1,note_on,67,45,0
1,note_on,65,45,0
1,note_on,65,0,480
1,note_on,71,0,0
1,note_on,74,0,0
1,note_on,67,0,0
1,note_on,72,40,0
1,note_on,64,34,0
1,note_on,67,34,0
1,note_on,67,0,240
1,note_on,64,0,0
1,note_on,72,0,0
1,note_on,74,51,240
1,note_on,74,0,360
1,note_on,75,53,0
1,note_on,75,0,120
1,note_on,76,54,0
1,note_on,76,0,120
1,note_on,78,55,0
1,note_on,78,0,120
1,note_on,79,56,0
1,note_on,79,0,120
1,note_on,71,53,0
1,note_on,71,0,120
1,note_on,74,54,0
1,note_on,74,0,120
1,note_on,72,53,0
1,note_on,72,0,120
1,note_on,71,51,120
1,note_on,71,0,120
1,note_on,72,54,0
1,note_on,72,0,120
1,note_on,74,55,0
1,note_on,74,0,120
1,note_on,76,56,0
1,note_on,76,0,120
1,note_on,68,50,0
1,note_on,68,0,120
1,note_on,71,54,0
1,note_on,71,0,120
1,note_on,69,51,0
1,note_on,69,0,120
1,note_on,68,51,120
1,note_on,68,0,120
1,note_on,69,54,0
1,note_on,69,0,120
1,note_on,71,54,0
1,note_on,71,0,120
1,note_on,72,56,0
1,note_on,72,0,120
1,note_on,66,50,0
1,note_on,66,0,120
1,note_on,69,54,0
1,note_on,69,0,120
1,note_on,67,51,0
1,note_on,67,0,120
1,note_on,76,72,0
1,note_on,76,0,120
1,note_on,66,54,0
1,note_on,66,0,120
1,note_on,69,56,0
1,note_on,69,0,120
1,note_on,67,51,0
1,note_on,67,0,120
1,note_on,76,72,0
1,note_on,76,0,120
1,note_on,66,51,0
1,note_on,66,0,120
1,note_on,69,55,0
1,note_on,69,0,120
1,note_on,67,50,0
1,note_on,67,0,120
1,note_on,75,71,0
1,note_on,75,0,120
1,note_on,66,51,0
1,note_on,66,0,120
1,note_on,69,55,0
1,note_on,69,0,120
1,note_on,67,51,0
1,note_on,67,0,120
1,note_on,75,67,0
1,note_on,75,0,120
1,note_on,66,49,0
1,note_on,66,0,120
1,note_on,67,72,0
1,note_on,67,0,120
1,note_on,69,64,0
1,note_on,71,65,60
1,note_on,69,0,12
1,note_on,72,67,48
1,note_on,71,0,12
1,note_on,74,68,48
1,note_on,72,0,12
1,note_on,76,69,48
1,note_on,74,0,12
1,note_on,78,71,48
1,note_on,76,0,12
1,note_on,79,72,48
1,note_on,78,0,12
1,note_on,81,70,48
1,note_on,79,0,12
1,note_on,83,74,48
1,note_on,81,0,12
1,note_on,78,72,48
1,note_on,83,0,12
1,note_on,79,73,48
1,note_on,78,0,12
1,note_on,74,69,48
1,note_on,79,0,12
1,note_on,76,71,48
1,note_on,74,0,12
1,note_on,71,68,48
1,note_on,76,0,12
1,note_on,74,81,48
1,note_on,71,0,12
1,note_on,74,0,468
1,note_on,72,62,0
1,note_on,74,56,40
1,note_on,72,0,5
1,note_on,72,58,35
1,note_on,74,0,5
1,note_on,74,56,35
1,note_on,72,0,5
1,note_on,72,57,35
1,note_on,74,0,5
1,note_on,74,53,35
1,note_on,72,0,5
1,note_on,72,59,35
1,note_on,74,0,5
1,note_on,74,56,35
1,note_on,72,0,5
1,note_on,72,63,35
1,note_on,74,0,5
1,note_on,71,61,35
1,note_on,72,0,20
1,note_on,71,0,40
1,note_on,72,59,0
1,note_on,72,0,60
1,note_on,71,66,0
1,note_on,71,0,480
1,note_on,69,38,90
1,note_on,69,0,30
1,note_on,67,48,0
1,note_on,67,0,60
1,note_on,66,44,0
1,note_on,66,0,60
1,note_on,67,51,0
1,note_on,67,0,30
1,note_on,71,51,90
1,note_on,71,0,30
1,note_on,76,55,90
1,note_on,76,0,240
1,note_on,74,51,0
1,note_on,74,0,240
1,note_on,72,37,90
1,note_on,72,0,30
1,note_on,71,48,0
1,note_on,71,0,60
1,note_on,69,45,0
1,note_on,69,0,60
1,note_on,71,54,0
1,note_on,71,0,30
1,note_on,74,54,90
1,note_on,74,0,30
1,note_on,79,64,90
1,note_on,79,0,240
1,note_on,77,56,0
1,note_on,77,0,240
1,note_on,76,54,90
1,note_on,76,0,30
1,note_on,74,67,0
1,note_on,74,0,60
1,note_on,73,61,0
1,note_on,73,0,60
1,note_on,74,71,0
1,note_on,74,0,30
1,note_on,77,74,90
1,note_on,77,0,30
1,note_on,84,75,90
1,note_on,84,0,120
1,note_on,83,71,0
1,note_on,83,0,240
1,note_on,86,81,0
1,note_on,86,0,240
1,note_on,80,73,0
1,note_on,80,0,240
1,note_on,83,81,0
1,note_on,83,0,240
1,note_on,74,78,0
1,note_on,74,0,240
1,note_on,77,84,0
1,note_on,77,0,240
1,note_on,76,81,0
1,note_on,76,0,240
1,note_on,74,72,0
1,note_on,74,0,120
1,note_on,72,61,0
1,note_on,72,0,570
1,note_on,74,46,0
1,note_on,74,0,30
1,note_on,72,54,0
1,note_on,72,0,60
1,note_on,71,48,0
1,note_on,71,0,60
1,note_on,72,54,0
1,note_on,72,0,120
1,note_on,74,53,0
1,note_on,74,0,60
1,note_on,72,56,60
1,note_on,72,0,480
1,note_on,70,62,0
1,note_on,72,56,40
1,note_on,70,0,5
1,note_on,70,58,35
1,note_on,72,0,5
1,note_on,72,56,35
1,note_on,70,0,5
1,note_on,70,57,35
1,note_on,72,0,5
1,note_on,72,53,35
1,note_on,70,0,5
1,note_on,70,59,35
1,note_on,72,0,5
1,note_on,72,56,35
1,note_on,70,0,5
1,note_on,70,63,35
1,note_on,72,0,5
1,note_on,69,61,35
1,note_on,70,0,20
1,note_on,69,0,40
1,note_on,70,59,0
1,note_on,70,0,60
1,note_on,69,68,0
1,note_on,69,0,120
1,note_on,72,71,0
1,note_on,72,0,240
1,note_on,77,76,0
1,note_on,77,0,240
1,note_on,81,77,0
1,note_on,81,0,240
1,note_on,82,78,0
1,note_on,82,0,120
1,note_on,81,83,0
1,note_on,81,0,480
1,note_on,79,77,0
1,note_on,79,0,240
1,note_on,79,70,240
1,note_on,79,0,360
1,note_on,78,61,0
1,note_on,78,0,120
1,note_on,77,57,0
1,note_on,77,0,120
1,note_on,77,61,360
1,note_on,77,0,360
1,note_on,76,55,0
1,note_on,76,0,120
1,note_on,75,54,0
1,note_on,75,0,120
1,note_on,75,63,360
1,note_on,75,0,120
1,note_on,74,60,0
1,note_on,74,0,120
1,note_on,74,57,0
1,note_on,74,0,60
1,note_on,74,60,60
1,note_on,74,0,60
1,note_on,74,60,60
1,note_on,74,0,240
1,note_on,74,60,0
1,note_on,74,0,240
1,note_on,74,62,0
1,note_on,74,0,210
1,note_on,77,64,0
1,note_on,77,0,30
1,note_on,75,72,0
1,note_on,75,0,450
1,note_on,74,57,0
1,note_on,74,0,30
1,note_on,72,63,0
1,note_on,72,0,240
1,note_on,71,54,0
1,note_on,71,0,120
1,note_on,79,54,0
1,note_on,79,0,120
1,note_on,79,56,120
1,note_on,79,0,120
1,note_on,78,57,120
1,note_on,78,0,120
1,note_on,77,60,120
1,note_on,77,0,120
1,note_on,77,64,0
1,note_on,77,0,120
1,note_on,76,61,0
1,note_on,76,0,120
1,note_on,75,59,120
1,note_on,75,0,120
1,note_on,74,56,120
1,note_on,74,0,120
1,note_on,72,54,120
1,note_on,72,0,120
1,note_on,72,60,0
1,note_on,72,0,120
1,note_on,71,54,0
1,note_on,71,0,120
1,note_on,79,56,60
1,note_on,79,0,60
1,note_on,81,60,0
1,note_on,81,0,60
1,note_on,79,55,0
1,note_on,79,0,60
1,note_on,78,61,60
1,note_on,78,0,60
1,note_on,79,66,0
1,note_on,79,0,60
1,note_on,78,60,0
1,note_on,78,0,60
1,note_on,77,63,60
1,note_on,77,0,60
1,note_on,79,70,0
1,note_on,79,0,60
1,note_on,77,65,0
1,note_on,77,0,60
1,note_on,76,73,60
1,note_on,76,0,60
1,note_on,77,76,0
1,note_on,77,0,60
1,note_on,76,71,0
1,note_on,76,0,60
1,note_on,75,73,60
1,note_on,75,0,60
1,note_on,77,80,0
1,note_on,77,0,60
1,note_on,75,73,0
1,note_on,75,0,60
1,note_on,74,79,60
1,note_on,74,0,60
1,note_on,75,83,0
1,note_on,75,0,60
1,note_on,74,79,0
1,note_on,74,0,60
1,note_on,72,82,60
1,note_on,72,0,60
1,note_on,74,87,0
1,note_on,74,0,60
1,note_on,72,86,0
1,note_on,72,0,60
1,note_on,71,88,0
1,note_on,71,0,60
1,note_on,72,71,30
1,note_on,72,0,30
1,note_on,71,75,0
1,note_on,71,0,60
1,note_on,69,75,0
1,note_on,69,0,60
1,note_on,71,79,0
1,note_on,71,0,120
1,note_on,72,76,0
1,note_on,72,0,60
1,note_on,74,79,60
1,note_on,74,0,60
1,note_on,76,68,30
1,note_on,76,0,30
1,note_on,74,72,0
1,note_on,74,0,60
1,note_on,73,72,0
1,note_on,73,0,60
1,note_on,74,79,0
1,note_on,74,0,120
1,note_on,76,79,0
1,note_on,76,0,60
1,note_on,77,73,60
1,note_on,77,0,240
1,note_on,79,54,60
1,note_on,79,0,60
1,note_on,76,56,0
1,note_on,76,0,60
1,note_on,79,54,0
1,note_on,79,0,60
1,note_on,77,54,0
1,note_on,77,0,240
1,note_on,79,53,60
1,note_on,79,0,60
1,note_on,76,56,0
1,note_on,76,0,60
1,note_on,79,53,0
1,note_on,79,0,60
1,note_on,77,53,0
1,note_on,77,0,240
1,note_on,79,55,60
1,note_on,79,0,60
1,note_on,76,57,0
1,note_on,76,0,60
1,note_on,79,61,0
1,note_on,79,0,60
1,note_on,77,63,0
1,note_on,77,0,60
1,note_on,79,66,0
1,note_on,79,0,60
1,note_on,76,70,0
1,note_on,76,0,60
1,note_on,79,68,0
1,note_on,79,0,60
1,note_on,77,75,0
1,note_on,77,0,60
1,note_on,79,73,0
1,note_on,79,0,60
1,note_on,76,81,0
1,note_on,76,0,60
1,note_on,79,79,0
1,note_on,79,0,60
1,note_on,77,86,0
1,note_on,77,0,120
1,note_on,76,72,0
1,note_on,76,0,60
1,note_on,74,77,60
1,note_on,74,0,60
1,note_on,72,72,60
1,note_on,72,0,60
1,note_on,71,60,60
1,note_on,71,0,60
1,note_on,72,62,60
1,note_on,72,0,60
1,note_on,74,59,60
1,note_on,74,0,60
1,note_on,76,56,60
1,note_on,76,0,60
1,note_on,77,62,60
1,note_on,77,0,60
1,note_on,76,57,60
1,note_on,76,0,60
1,note_on,74,61,60
1,note_on,74,0,60
1,note_on,76,64,60
1,note_on,76,0,60
1,note_on,77,67,60
1,note_on,77,0,60
1,note_on,76,71,60
1,note_on,76,0,60
1,note_on,77,73,60
1,note_on,77,0,60
1,note_on,78,77,60
1,note_on,78,0,60
1,note_on,79,86,0
1,note_on,79,0,120
1,note_on,79,82,120
1,note_on,79,0,360
1,note_on,77,71,0
1,note_on,77,0,60
1,note_on,76,69,0
1,note_on,76,0,60
1,note_on,76,70,0
1,note_on,76,0,56
1,note_on,74,66,4
1,note_on,74,0,60
1,note_on,72,67,0
1,note_on,72,0,60
1,note_on,71,66,0
1,note_on,71,0,60
1,note_on,72,47,0
1,note_on,74,49,40
1,note_on,72,0,5
1,note_on,72,55,35
1,note_on,74,0,5
1,note_on,74,52,35
1,note_on,72,0,5
1,note_on,72,57,35
1,note_on,74,0,5
1,note_on,74,51,35
1,note_on,72,0,5
1,note_on,72,59,35
1,note_on,74,0,5
1,note_on,74,56,35
1,note_on,72,0,5
1,note_on,72,63,35
1,note_on,74,0,5
1,note_on,74,62,35
1,note_on,72,0,20
1,note_on,74,0,40
1,note_on,76,63,0
1,note_on,76,0,60
1,note_on,67,71,0
1,note_on,67,0,240
1,note_on,79,86,240
1,note_on,79,0,60
1,note_on,79,78,60
1,note_on,79,0,60
1,note_on,79,76,60
1,note_on,79,0,360
1,note_on,77,64,0
1,note_on,77,0,60
1,note_on,76,61,0
1,note_on,76,0,56
1,note_on,76,64,4
1,note_on,76,0,60
1,note_on,74,61,0
1,note_on,74,0,60
1,note_on,72,61,0
1,note_on,72,0,60
1,note_on,71,60,0
1,note_on,71,0,60
1,note_on,72,47,0
1,note_on,74,49,40
1,note_on,72,0,5
1,note_on,72,55,35
1,note_on,74,0,5
1,note_on,74,52,35
1,note_on,72,0,5
1,note_on,72,57,35
1,note_on,74,0,5
1,note_on,74,51,35
1,note_on,72,0,5
1,note_on,72,59,35
1,note_on,74,0,5
1,note_on,74,56,35
1,note_on,72,0,5
1,note_on,72,63,35
1,note_on,74,0,5
1,note_on,74,62,35
1,note_on,72,0,20
1,note_on,74,0,40
1,note_on,76,63,0
1,note_on,76,0,60
1,note_on,67,65,0
1,note_on,67,0,240
1,note_on,69,56,240
1,note_on,69,0,60
1,note_on,72,54,60
1,note_on,72,0,60
1,note_on,77,56,60
1,note_on,77,0,60
1,note_on,81,54,60
1,note_on,81,0,60
1,note_on,84,66,60
1,note_on,84,0,60
1,note_on,89,70,60
1,note_on,89,0,60
1,note_on,67,58,300
1,note_on,67,0,60
1,note_on,72,56,60
1,note_on,72,0,60
1,note_on,76,58,60
1,note_on,76,0,60
1,note_on,79,55,60
1,note_on,79,0,60
1,note_on,84,66,60
1,note_on,84,0,60
1,note_on,88,74,60
1,note_on,88,0,60
1,note_on,67,63,240
1,note_on,67,0,60
1,note_on,79,84,0
1,note_on,79,0,720
1,note_on,77,60,0
1,note_on,77,0,40
1,note_on,79,68,0
1,note_on,79,0,40
1,note_on,77,68,0
1,note_on,77,0,40
1,note_on,76,76,0
1,note_on,76,0,60
1,note_on,77,71,0
1,note_on,77,0,60
1,note_on,75,78,0
1,note_on,75,0,240
1,note_on,76,75,0
1,note_on,76,0,240
1,note_on,69,61,480
1,note_on,69,0,60
1,note_on,72,57,0
1,note_on,72,0,60
1,note_on,74,61,0
1,note_on,74,0,60
1,note_on,76,56,0
1,note_on,76,0,60
1,note_on,77,61,0
1,note_on,77,0,60
1,note_on,79,58,0
1,note_on,79,0,60
1,note_on,81,61,0
1,note_on,81,0,60
1,note_on,83,57,0
1,note_on,83,0,60
1,note_on,84,72,0
1,note_on,84,0,120
1,note_on,67,63,360
1,note_on,67,0,60
1,note_on,72,58,0
1,note_on,72,0,60
1,note_on,74,63,0
1,note_on,74,0,60
1,note_on,76,56,0
1,note_on,76,0,60
1,note_on,77,63,0
1,note_on,77,0,60
1,note_on,79,58,0
1,note_on,79,0,60
1,note_on,81,63,0
1,note_on,81,0,60
1,note_on,83,58,0
1,note_on,83,0,60
1,note_on,84,72,0
1,note_on,84,0,120
1,note_on,81,85,360
1,note_on,81,0,120
1,note_on,79,79,0
1,note_on,79,0,120
1,note_on,77,82,0
1,note_on,77,0,60
1,note_on,76,78,60
1,note_on,76,0,60
1,note_on,76,85,60
1,note_on,76,0,120
1,note_on,74,74,0
1,note_on,74,0,120
1,note_on,72,77,0
1,note_on,72,0,60
1,note_on,71,76,60
1,note_on,71,0,60
1,note_on,72,77,60
1,note_on,67,68,60
1,note_on,72,0,12
1,note_on,69,72,48
1,note_on,67,0,12
1,note_on,71,70,48
1,note_on,69,0,12
1,note_on,72,75,48
1,note_on,71,0,12
1,note_on,74,73,48
1,note_on,72,0,12
1,note_on,76,78,48
1,note_on,74,0,12
1,note_on,77,76,48
1,note_on,76,0,12
1,note_on,79,80,48
1,note_on,77,0,12
1,note_on,81,77,48
1,note_on,79,0,12
1,note_on,83,78,48
1,note_on,81,0,12
1,note_on,84,75,48
1,note_on,83,0,12
1,note_on,79,81,48
1,note_on,84,0,12
1,note_on,79,0,48
1,note_on,79,79,60
1,note_on,79,0,60
1,note_on,79,54,120
1,note_on,79,0,60
1,note_on,81,57,0
1,note_on,81,0,60
1,note_on,79,54,0
1,note_on,79,0,60
1,note_on,77,54,60
1,note_on,77,0,60
1,note_on,79,57,0
1,note_on,79,0,60
1,note_on,77,54,0
1,note_on,77,0,60
1,note_on,76,54,60
1,note_on,76,0,60
1,note_on,77,56,0
1,note_on,77,0,60
1,note_on,76,54,0
1,note_on,76,0,60
1,note_on,74,54,60
1,note_on,74,0,60
1,note_on,76,56,0
1,note_on,76,0,60
1,note_on,74,54,0
1,note_on,74,0,60
1,note_on,72,83,0
1,note_on,67,76,60
1,note_on,72,0,12
1,note_on,69,79,48
1,note_on,67,0,12
1,note_on,71,75,48
1,note_on,69,0,12
1,note_on,72,81,48
1,note_on,71,0,12
1,note_on,74,79,48
1,note_on,72,0,12
1,note_on,76,82,48
1,note_on,74,0,12
1,note_on,77,78,48
1,note_on,76,0,12
1,note_on,79,81,48
1,note_on,77,0,12
1,note_on,81,76,48
1,note_on,79,0,12
1,note_on,83,80,48
1,note_on,81,0,12
1,note_on,84,75,48
1,note_on,83,0,12
1,note_on,79,82,48
1,note_on,84,0,12
1,note_on,79,0,48
1,note_on,79,80,60
1,note_on,79,0,60
1,note_on,79,54,120
1,note_on,79,0,60
1,note_on,81,56,0
1,note_on,81,0,60
1,note_on,79,54,0
1,note_on,79,0,60
1,note_on,77,54,60
1,note_on,77,0,60
1,note_on,79,56,0
1,note_on,79,0,60
1,note_on,77,54,0
1,note_on,77,0,60
1,note_on,76,54,60
1,note_on,76,0,60
1,note_on,77,56,0
1,note_on,77,0,60
1,note_on,76,54,0
1,note_on,76,0,60
1,note_on,74,54,60
1,note_on,74,0,60
1,note_on,76,54,0
1,note_on,76,0,60
1,note_on,74,54,0
1,note_on,74,0,60
1,note_on,72,81,0
1,note_on,72,0,60
1,note_on,72,81,60
1,note_on,72,0,240
1,note_on,74,73,0
1,note_on,74,0,60
1,note_on,76,70,0
1,note_on,76,0,60
1,note_on,77,82,0
1,note_on,77,0,60
1,note_on,77,79,60
1,note_on,77,0,240
1,note_on,79,76,0
1,note_on,79,0,60
1,note_on,81,76,0
1,note_on,81,0,60
1,note_on,79,83,0
1,note_on,79,0,120
1,note_on,76,80,0
1,note_on,76,0,120
1,note_on,84,83,0
1,note_on,84,0,60
1,note_on,84,80,60
1,note_on,84,0,60
1,note_on,86,84,60
1,note_on,84,76,60
1,note_on,86,0,12
1,note_on,83,78,48
1,note_on,84,0,12
1,note_on,81,73,48
1,note_on,83,0,12
1,note_on,81,0,44
1,note_on,81,73,4
1,note_on,79,66,60
1,note_on,81,0,12
1,note_on,77,68,48
1,note_on,79,0,12
1,note_on,76,64,48
1,note_on,77,0,12
1,note_on,76,0,48
1,note_on,79,68,0
1,note_on,79,0,360
1,note_on,76,69,0
1,note_on,76,0,120
1,note_on,74,67,0
1,note_on,74,0,240
1,note_on,73,60,240
1,note_on,73,0,120
1,note_on,74,56,0
1,note_on,74,0,120
1,note_on,72,55,0
1,note_on,72,0,60
1,note_on,71,52,0
1,note_on,71,0,60
1,note_on,69,55,0
1,note_on,69,0,60
1,note_on,67,53,0
1,note_on,67,0,60
1,note_on,73,61,0
1,note_on,73,0,120
1,note_on,74,59,0
1,note_on,74,0,120
1,note_on,72,55,0
1,note_on,72,0,60
1,note_on,71,54,0
1,note_on,71,0,60
1,note_on,69,55,0
1,note_on,69,0,60
1,note_on,67,53,0
1,note_on,67,0,60
1,note_on,75,64,0
1,note_on,75,0,120
1,note_on,76,61,0
1,note_on,76,0,120
1,note_on,76,63,0
1,note_on,76,0,60
1,note_on,76,59,60
1,note_on,76,0,60
1,note_on,76,63,60
1,note_on,76,0,240
1,note_on,69,60,180
1,note_on,69,0,60
1,note_on,81,87,0
1,note_on,81,0,360
1,note_on,79,76,0
1,note_on,79,0,40
1,note_on,78,72,0
1,note_on,78,0,40
1,note_on,76,76,0
1,note_on,76,0,40
1,note_on,74,84,0
1,note_on,74,0,120
1,note_on,86,82,0
1,note_on,86,0,60
1,note_on,86,82,60
1,note_on,86,0,60
1,note_on,86,79,60
1,note_on,86,0,60
1,note_on,86,90,60
1,note_on,86,0,300
1,note_on,83,74,0
1,note_on,83,0,60
1,note_on,86,77,0
1,note_on,86,0,60
1,note_on,83,76,0
1,note_on,83,0,60
1,note_on,79,77,0
1,note_on,79,0,120
1,note_on,71,54,0
1,note_on,74,54,0
1,note_on,74,0,120
1,note_on,71,0,0
1,note_on,76,54,0
1,note_on,72,54,0
1,note_on,72,0,120
1,note_on,76,0,0
1,note_on,77,50,0
1,note_on,74,50,0
1,note_on,74,0,120
1,note_on,77,0,0
1,note_on,78,60,0
1,note_on,78,0,120
1,note_on,79,58,0
1,note_on,79,0,120
1,note_on,77,54,0
1,note_on,77,0,60
1,note_on,76,51,0
1,note_on,76,0,60
1,note_on,74,54,0
1,note_on,74,0,60
1,note_on,72,52,0
1,note_on,72,0,60
1,note_on,78,54,0
1,note_on,78,0,60
1,note_on,79,53,0
1,note_on,79,0,60
1,note_on,81,55,0
1,note_on,81,0,60
1,note_on,79,57,0
1,note_on,79,0,60
1,note_on,77,56,0
1,note_on,77,0,60
1,note_on,76,55,0
1,note_on,76,0,60
1,note_on,74,54,0
1,note_on,74,0,60
1,note_on,72,54,0
1,note_on,72,0,60
1,note_on,80,62,0
1,note_on,80,0,120
1,note_on,81,56,0
1,note_on,81,0,120
1,note_on,81,60,0
1,note_on,81,0,60
1,note_on,81,56,60
1,note_on,81,0,60
1,note_on,81,63,60
1,note_on,81,0,240
1,note_on,86,81,240
1,note_on,88,77,60
1,note_on,86,0,12
1,note_on,89,81,48
1,note_on,88,0,12
1,note_on,88,77,48
1,note_on,89,0,12
1,note_on,86,79,48
1,note_on,88,0,12
1,note_on,84,73,48
1,note_on,86,0,12
1,note_on,83,77,48
1,note_on,84,0,12
1,note_on,81,75,48
1,note_on,83,0,12
1,note_on,79,78,48
1,note_on,81,0,12
1,note_on,83,73,48
1,note_on,79,0,12
1,note_on,86,81,48
1,note_on,83,0,12
1,note_on,84,74,48
1,note_on,86,0,12
1,note_on,83,81,48
1,note_on,84,0,12
1,note_on,81,75,48
1,note_on,83,0,12
1,note_on,79,81,48
1,note_on,81,0,12
1,note_on,77,76,48
1,note_on,79,0,12
1,note_on,76,86,48
1,note_on,77,0,12
1,note_on,76,0,108
1,note_on,79,71,120
1,note_on,79,0,30
1,note_on,77,66,0
1,note_on,77,0,30
1,note_on,79,71,0
1,note_on,79,0,30
1,note_on,77,67,0
1,note_on,77,0,30
1,note_on,76,81,0
1,note_on,76,0,60
1,note_on,77,79,0
1,note_on,77,0,60
1,note_on,79,89,0
1,note_on,79,0,120
1,note_on,81,53,280
1,note_on,81,0,40
1,note_on,83,49,0
1,note_on,83,0,40
1,note_on,84,61,0
1,note_on,84,0,237
1,note_on,84,56,3
1,note_on,84,0,177
1,note_on,84,54,3
1,note_on,84,0,57
1,note_on,84,56,3
1,note_on,84,0,240
1,note_on,83,55,0
1,note_on,83,0,60
1,note_on,81,50,0
1,note_on,81,0,60
1,note_on,79,53,0
1,note_on,79,0,60
1,note_on,77,51,0
1,note_on,77,0,60
1,note_on,76,78,0
1,note_on,76,0,120
1,note_on,77,67,120
1,note_on,77,0,30
1,note_on,79,63,0
1,note_on,79,0,30
1,note_on,77,67,0
1,note_on,77,0,30
1,note_on,79,63,0
1,note_on,79,0,30
1,note_on,77,67,0
1,note_on,77,0,30
1,note_on,76,76,10
1,note_on,76,0,40
1,note_on,77,72,0
1,note_on,77,0,40
1,note_on,79,87,0
1,note_on,79,0,120
1,note_on,81,53,280
1,note_on,81,0,40
1,note_on,83,48,0
1,note_on,83,0,40
1,note_on,84,61,0
1,note_on,84,0,237
1,note_on,84,55,3
1,note_on,84,0,177
1,note_on,84,52,3
1,note_on,84,0,57
1,note_on,84,55,3
1,note_on,84,0,240
1,note_on,83,54,0
1,note_on,83,0,60
1,note_on,81,52,0
1,note_on,81,0,60
1,note_on,79,54,0
1,note_on,79,0,60
1,note_on,77,53,0
1,note_on,77,0,60
1,note_on,76,83,0
1,note_on,76,0,60
1,note_on,84,78,60
1,note_on,86,78,60
1,note_on,84,0,12
1,note_on,88,81,48
1,note_on,86,0,12
1,note_on,86,78,48
1,note_on,88,0,12
1,note_on,84,81,48
1,note_on,86,0,12
1,note_on,83,78,48
1,note_on,84,0,12
1,note_on,81,81,48
1,note_on,83,0,12
1,note_on,79,78,48
1,note_on,81,0,12
1,note_on,77,81,48
1,note_on,79,0,12
1,note_on,76,76,48
1,note_on,77,0,12
1,note_on,74,81,48
1,note_on,76,0,12
1,note_on,72,76,48
1,note_on,74,0,12
1,note_on,71,81,48
1,note_on,72,0,12
1,note_on,69,73,48
1,note_on,71,0,12
1,note_on,67,85,48
1,note_on,69,0,12
1,note_on,67,0,108
1,note_on,65,90,120
1,note_on,65,0,480
1,note_on,64,76,0
1,note_on,64,0,240
1,note_on,62,55,120
1,note_on,62,0,60
1,note_on,65,54,60
1,note_on,65,0,60
1,note_on,69,53,60
1,note_on,69,0,60
1,note_on,73,55,60
1,note_on,73,0,120
1,note_on,74,54,0
1,note_on,74,0,120
1,note_on,77,55,0
1,note_on,77,0,120
1,note_on,81,53,0
1,note_on,81,0,120
1,note_on,81,61,0
1,note_on,81,0,120
1,note_on,72,55,0
1,note_on,72,0,117
1,note_on,72,54,3
1,note_on,72,0,480
1,note_on,71,56,0
1,note_on,76,56,0
1,note_on,76,0,120
1,note_on,74,54,0
1,note_on,74,0,120
1,note_on,71,0,0
1,note_on,72,54,0
1,note_on,72,0,240
1,note_on,79,76,240
1,note_on,79,0,120
1,note_on,76,72,0
1,note_on,76,0,120
1,note_on,84,57,0
1,note_on,84,0,120
1,note_on,83,53,0
1,note_on,83,0,60
1,note_on,81,51,60
1,note_on,81,0,60
1,note_on,79,49,60
1,note_on,79,0,60
1,note_on,77,54,60
1,note_on,77,0,60
1,note_on,76,50,60
1,note_on,76,0,60
1,note_on,74,53,60
1,note_on,74,0,120
1,note_on,76,54,120
1,note_on,76,0,120
1,note_on,79,58,120
1,note_on,79,0,120
1,note_on,78,54,0
1,note_on,78,0,120
1,note_on,77,54,0
1,note_on,77,0,120
1,note_on,76,51,120
1,note_on,76,0,120
1,note_on,77,54,0
1,note_on,77,0,120
1,note_on,79,57,0
1,note_on,79,0,120
1,note_on,80,59,0
1,note_on,80,0,60
1,note_on,81,49,60
1,note_on,81,0,36
1,note_on,83,51,0
1,note_on,83,0,36
1,note_on,81,54,0
1,note_on,81,0,36
1,note_on,83,56,0
1,note_on,83,0,36
1,note_on,81,58,0
1,note_on,81,0,36
1,note_on,83,62,0
1,note_on,83,0,60
1,note_on,84,68,0
1,note_on,84,0,60
1,note_on,83,61,60
1,note_on,83,0,60
1,note_on,81,62,60
1,note_on,81,0,60
1,note_on,79,57,60
1,note_on,79,0,60
1,note_on,77,60,60
1,note_on,77,0,60
1,note_on,76,57,60
1,note_on,76,0,60
1,note_on,79,64,60
1,note_on,79,0,180
1,note_on,76,61,0
1,note_on,76,0,60
1,note_on,74,61,0
1,note_on,74,0,120
1,note_on,79,86,120
1,note_on,79,0,180
1,note_on,81,81,0
1,note_on,81,0,30
1,note_on,83,76,0
1,note_on,83,0,30
1,note_on,84,85,0
1,note_on,84,0,120
1,note_on,83,62,0
1,note_on,83,0,60
1,note_on,81,62,60
1,note_on,81,0,60
1,note_on,79,60,60
1,note_on,79,0,60
1,note_on,77,62,60
1,note_on,77,0,60
1,note_on,76,59,60
1,note_on,76,0,60
1,note_on,74,63,60
1,note_on,74,0,120
1,note_on,76,70,120
1,note_on,76,0,120
1,note_on,77,72,120
1,note_on,77,0,120
1,note_on,78,78,120
1,note_on,78,0,120
1,note_on,79,79,120
1,note_on,79,0,120
1,note_on,80,82,120
1,note_on,80,0,120
1,note_on,81,85,120
1,note_on,81,0,180
1,note_on,69,79,0
1,note_on,69,0,60
1,note_on,77,84,0
1,note_on,77,0,180
1,note_on,74,81,0
1,note_on,74,0,60
1,note_on,72,77,0
1,note_on,76,64,210
1,note_on,76,0,30
1,note_on,72,0,0
1,note_on,74,71,0
1,note_on,71,71,0
1,note_on,71,0,240
1,note_on,74,0,0
1,note_on,72,71,0
1,note_on,72,0,240
1,note_on,72,64,60
1,note_on,72,0,60
1,note_on,74,65,0
1,note_on,74,0,60
1,note_on,76,66,0
1,note_on,76,0,60
1,note_on,77,68,0
1,note_on,77,0,30
1,note_on,79,68,0
1,note_on,79,0,30
1,note_on,77,59,0
1,note_on,77,0,30
1,note_on,76,70,0
1,note_on,77,71,30
1,note_on,76,0,30
1,note_on,77,0,30
1,note_on,79,72,0
1,note_on,79,0,60
1,note_on,81,66,0
1,note_on,81,0,25
1,note_on,83,65,5
1,note_on,83,0,25
1,note_on,81,70,5
1,note_on,79,75,30
1,note_on,81,0,30
1,note_on,81,76,0
1,note_on,79,0,30
1,note_on,81,0,30
1,note_on,83,78,0
1,note_on,83,0,60
1,note_on,84,87,0
1,note_on,84,0,60
1,note_on,84,84,60
1,note_on,84,0,60
1,note_on,72,63,120
1,note_on,72,0,60
1,note_on,74,65,0
1,note_on,74,0,60
1,note_on,76,66,0
1,note_on,76,0,60
1,note_on,77,68,0
1,note_on,77,0,30
1,note_on,79,68,0
1,note_on,79,0,30
1,note_on,77,59,0
1,note_on,77,0,30
1,note_on,76,70,0
1,note_on,77,71,30
1,note_on,76,0,30
1,note_on,77,0,30
1,note_on,79,72,0
1,note_on,79,0,60
1,note_on,81,66,0
1,note_on,81,0,25
1,note_on,83,65,5
1,note_on,83,0,25
1,note_on,81,70,5
1,note_on,79,75,30
1,note_on,81,0,30
1,note_on,81,76,0
1,note_on,79,0,30
1,note_on,81,0,30
1,note_on,83,78,0
1,note_on,83,0,60
1,note_on,84,88,0
1,note_on,84,0,60
1,note_on,84,86,60
1,note_on,84,0,60
1,note_on,79,55,120
1,note_on,79,0,60
1,note_on,83,58,0
1,note_on,83,0,60
1,note_on,79,55,0
1,note_on,79,0,60
1,note_on,84,59,0
1,note_on,84,0,60
1,note_on,84,59,60
1,note_on,84,0,60
1,note_on,79,54,120
1,note_on,79,0,60
1,note_on,83,57,0
1,note_on,83,0,60
1,note_on,79,54,0
1,note_on,79,0,60
1,note_on,84,59,0
1,note_on,84,0,60
1,note_on,84,66,60
1,note_on,84,0,60
1,note_on,79,67,120
1,note_on,79,0,60
1,note_on,83,71,0
1,note_on,83,0,60
1,note_on,79,68,0
1,note_on,79,0,60
1,note_on,84,75,0
1,note_on,84,0,60
1,note_on,79,72,0
1,note_on,79,0,60
1,note_on,84,79,0
1,note_on,84,0,60
1,note_on,79,75,0
1,note_on,79,0,60
1,note_on,86,83,0
1,note_on,86,0,60
1,note_on,79,81,0
1,note_on,79,0,60
1,note_on,86,88,0
1,note_on,86,0,60
1,note_on,79,83,0
1,note_on,79,0,60
1,note_on,88,91,0
1,note_on,88,0,120
1,note_on,84,80,0
1,note_on,84,0,120
1,note_on,79,82,0
1,note_on,79,0,120
1,note_on,84,79,0
1,note_on,84,0,120
1,note_on,76,78,0
1,note_on,76,0,120
1,note_on,79,71,0
1,note_on,79,0,120
1,note_on,72,72,0
1,note_on,72,0,120
1,note_on,76,69,0
1,note_on,76,0,120
1,note_on,69,60,0
1,note_on,69,0,120
1,note_on,81,60,0
1,note_on,81,0,120
1,note_on,79,63,0
1,note_on,79,0,60
1,note_on,77,58,0
1,note_on,77,0,60
1,note_on,76,63,0
1,note_on,76,0,60
1,note_on,74,58,0
1,note_on,74,0,60
1,note_on,72,63,0
1,note_on,72,0,240
1,note_on,71,60,0
1,note_on,71,0,32
1,note_on,72,63,0
1,note_on,72,0,32
1,note_on,71,60,0
1,note_on,71,0,32
1,note_on,72,63,0
1,note_on,72,0,32
1,note_on,71,63,0
1,note_on,71,0,32
1,note_on,69,63,0
1,note_on,69,0,40
1,note_on,71,60,0
1,note_on,71,0,40
1,note_on,72,71,0
1,note_on,72,0,240
1,note_on,72,64,60
1,note_on,72,0,60
1,note_on,74,65,0
1,note_on,74,0,60
1,note_on,76,66,0
1,note_on,76,0,60
1,note_on,77,68,0
1,note_on,77,0,30
1,note_on,79,68,0
1,note_on,79,0,30
1,note_on,77,59,0
1,note_on,77,0,30
1,note_on,76,70,0
1,note_on,77,71,30
1,note_on,76,0,30
1,note_on,77,0,30
1,note_on,79,72,0
1,note_on,79,0,60
1,note_on,81,66,0
1,note_on,81,0,25
1,note_on,83,65,5
1,note_on,83,0,25
1,note_on,81,70,5
1,note_on,79,75,30
1,note_on,81,0,30
1,note_on,81,76,0
1,note_on,79,0,30
1,note_on,81,0,30
1,note_on,83,78,0
1,note_on,83,0,60
1,note_on,84,84,0
1,note_on,84,0,60
1,note_on,84,81,60
1,note_on,84,0,60
1,note_on,72,63,120
1,note_on,72,0,60
1,note_on,74,65,0
1,note_on,74,0,60
1,note_on,76,66,0
1,note_on,76,0,60
1,note_on,77,68,0
1,note_on,77,0,30
1,note_on,79,68,0
1,note_on,79,0,30
1,note_on,77,59,0
1,note_on,77,0,30
1,note_on,76,70,0
1,note_on,77,71,30
1,note_on,76,0,30
1,note_on,77,0,30
1,note_on,79,72,0
1,note_on,79,0,60
1,note_on,81,66,0
1,note_on,81,0,25
1,note_on,83,65,5
1,note_on,83,0,25
1,note_on,81,70,5
1,note_on,79,75,30
1,note_on,81,0,30
1,note_on,81,76,0
1,note_on,79,0,30
1,note_on,81,0,30
1,note_on,83,78,0
1,note_on,83,0,60
1,note_on,84,84,0
1,note_on,84,0,60
1,note_on,84,80,60
1,note_on,84,0,60
1,note_on,79,55,120
1,note_on,79,0,60
1,note_on,83,59,0
1,note_on,83,0,60
1,note_on,79,55,0
1,note_on,79,0,60
1,note_on,84,59,0
1,note_on,84,0,60
1,note_on,84,59,60
1,note_on,84,0,60
1,note_on,79,54,120
1,note_on,79,0,60
1,note_on,83,56,0
1,note_on,83,0,60
1,note_on,79,54,0
1,note_on,79,0,60
1,note_on,84,59,0
1,note_on,84,0,60
1,note_on,84,59,60
1,note_on,84,0,60
1,note_on,79,67,120
1,note_on,79,0,60
1,note_on,83,71,0
1,note_on,83,0,60
1,note_on,79,68,0
1,note_on,79,0,60
1,note_on,84,75,0
1,note_on,84,0,60
1,note_on,79,73,0
1,note_on,79,0,60
1,note_on,84,79,0
1,note_on,84,0,60
1,note_on,79,77,0
1,note_on,79,0,60
1,note_on,86,83,0
1,note_on,86,0,60
1,note_on,79,81,0
1,note_on,79,0,60
1,note_on,86,88,0
1,note_on,86,0,60
1,note_on,79,82,0
1,note_on,79,0,60
1,note_on,88,88,0
1,note_on,88,0,60
1,note_on,84,78,0
1,note_on,84,0,60
1,note_on,88,84,0
1,note_on,88,0,60
1,note_on,84,80,0
1,note_on,84,0,60
1,note_on,79,82,0
1,note_on,79,0,60
1,note_on,84,74,0
1,note_on,84,0,60
1,note_on,79,79,0
1,note_on,79,0,60
1,note_on,84,71,0
1,note_on,84,0,60
1,note_on,76,78,0
1,note_on,76,0,60
1,note_on,79,71,0
1,note_on,79,0,60
1,note_on,76,76,0
1,note_on,76,0,60
1,note_on,79,71,0
1,note_on,79,0,60
1,note_on,72,72,0
1,note_on,72,0,60
1,note_on,76,67,0
1,note_on,76,0,60
1,note_on,72,71,0
1,note_on,72,0,60
1,note_on,76,63,0
1,note_on,76,0,60
1,note_on,69,60,0
1,note_on,69,0,120
1,note_on,81,63,0
1,note_on,81,0,120
1,note_on,79,63,0
1,note_on,79,0,60
1,note_on,77,58,0
1,note_on,77,0,60
1,note_on,76,63,0
1,note_on,76,0,60
1,note_on,74,60,0
1,note_on,74,0,60
1,note_on,72,63,0
1,note_on,72,0,240
1,note_on,71,60,0
1,note_on,71,0,32
1,note_on,72,63,0
1,note_on,72,0,32
1,note_on,71,60,0
1,note_on,71,0,32
1,note_on,72,63,0
1,note_on,72,0,32
1,note_on,71,63,0
1,note_on,71,0,32
1,note_on,69,63,0
1,note_on,69,0,40
1,note_on,71,60,0
1,note_on,71,0,40
1,note_on,72,82,0
1,note_on,72,0,180
1,note_on,67,78,0
1,note_on,67,0,60
1,note_on,76,82,0
1,note_on,76,0,180
1,note_on,72,76,0
1,note_on,72,0,60
1,note_on,79,81,0
1,note_on,79,0,120
1,note_on,86,54,120
1,note_on,84,50,60
1,note_on,86,0,12
1,note_on,83,54,48
1,note_on,84,0,12
1,note_on,81,49,48
1,note_on,83,0,12
1,note_on,79,57,48
1,note_on,81,0,12
1,note_on,79,0,108
1,note_on,81,54,120
1,note_on,79,50,60
1,note_on,81,0,12
1,note_on,77,54,48
1,note_on,79,0,12
1,note_on,76,50,48
1,note_on,77,0,12
1,note_on,74,57,48
1,note_on,76,0,12
1,note_on,74,0,108
1,note_on,79,56,120
1,note_on,77,53,60
1,note_on,79,0,12
1,note_on,76,56,48
1,note_on,77,0,12
1,note_on,74,52,48
1,note_on,76,0,12
1,note_on,72,81,48
1,note_on,74,0,12
1,note_on,72,0,48
1,note_on,67,75,0
1,note_on,67,0,60
1,note_on,72,82,0
1,note_on,72,0,60
1,note_on,67,78,0
1,note_on,67,0,60
1,note_on,76,82,0
1,note_on,76,0,60
1,note_on,72,78,0
1,note_on,72,0,60
1,note_on,76,82,0
1,note_on,76,0,60
1,note_on,72,76,0
1,note_on,72,0,60
1,note_on,79,82,0
1,note_on,79,0,120
1,note_on,86,55,120
1,note_on,84,53,60
1,note_on,86,0,12
1,note_on,83,55,48
1,note_on,84,0,12
1,note_on,81,53,48
1,note_on,83,0,12
1,note_on,79,58,48
1,note_on,81,0,12
1,note_on,79,0,48
1,note_on,79,58,60
1,note_on,79,0,60
1,note_on,81,54,60
1,note_on,79,50,60
1,note_on,81,0,12
1,note_on,77,54,48
1,note_on,79,0,12
1,note_on,76,50,48
1,note_on,77,0,12
1,note_on,74,57,48
1,note_on,76,0,12
1,note_on,74,0,48
1,note_on,74,57,60
1,note_on,74,0,60
1,note_on,79,55,60
1,note_on,77,51,60
1,note_on,79,0,12
1,note_on,76,55,48
1,note_on,77,0,12
1,note_on,74,51,48
1,note_on,76,0,12
1,note_on,72,62,48
1,note_on,74,0,12
1,note_on,72,0,228
1,note_on,80,57,120
1,note_on,80,0,120
1,note_on,81,62,0
1,note_on,81,0,120
1,note_on,83,64,0
1,note_on,83,0,120
1,note_on,84,70,0
1,note_on,84,0,120
1,note_on,76,62,0
1,note_on,76,0,120
1,note_on,79,66,0
1,note_on,79,0,120
1,note_on,77,62,0
1,note_on,77,0,120
1,note_on,76,55,120
1,note_on,76,0,120
1,note_on,77,60,0
1,note_on,77,0,120
1,note_on,79,62,0
1,note_on,79,0,120
1,note_on,81,65,0
1,note_on,81,0,120
1,note_on,73,57,0
1,note_on,73,0,120
1,note_on,76,63,0
1,note_on,76,0,120
1,note_on,74,57,0
1,note_on,74,0,120
1,note_on,73,49,120
1,note_on,73,0,120
1,note_on,74,52,0
1,note_on,74,0,120
1,note_on,76,54,0
1,note_on,76,0,120
1,note_on,77,57,0
1,note_on,77,0,120
1,note_on,71,49,0
1,note_on,71,0,120
1,note_on,74,50,0
1,note_on,74,0,120
1,note_on,72,49,0
1,note_on,72,0,120
1,note_on,81,70,0
1,note_on,81,0,120
1,note_on,71,49,0
1,note_on,71,0,120
1,note_on,74,51,0
1,note_on,74,0,120
1,note_on,72,49,0
1,note_on,72,0,120
1,note_on,81,70,0
1,note_on,81,0,120
1,note_on,71,49,0
1,note_on,71,0,120
1,note_on,74,49,120
1,note_on,74,0,60
1,note_on,72,43,0
1,note_on,72,0,60
1,note_on,80,57,120
1,note_on,80,0,60
1,note_on,71,43,0
1,note_on,71,0,60
1,note_on,74,51,120
1,note_on,74,0,60
1,note_on,72,43,0
1,note_on,72,0,60
1,note_on,80,55,120
1,note_on,80,0,60
1,note_on,71,41,0
1,note_on,71,0,60
1,note_on,71,54,0
1,note_on,74,54,0
1,note_on,67,45,0
1,note_on,65,45,0
1,note_on,65,0,480
1,note_on,71,0,0
1,note_on,74,0,0
1,note_on,67,0,0
1,note_on,72,40,0
1,note_on,64,34,0
1,note_on,67,34,0
1,note_on,67,0,240
1,note_on,64,0,0
1,note_on,72,0,0
2,note_on,64,50,1
2,note_on,64,0,119
2,note_on,60,36,0
2,note_on,60,0,120
2,note_on,64,43,0
2,note_on,64,0,120
2,note_on,60,38,0
2,note_on,60,0,120
2,note_on,64,51,0
2,note_on,64,0,120
2,note_on,60,40,0
2,note_on,60,0,120
2,note_on,64,45,0
2,note_on,64,0,120
2,note_on,60,43,0
2,note_on,60,0,120
2,note_on,64,51,0
2,note_on,64,0,120
2,note_on,60,45,0
2,note_on,60,0,120
2,note_on,64,51,0
2,note_on,64,0,120
2,note_on,60,40,0
2,note_on,60,0,120
2,note_on,64,42,0
2,note_on,64,0,120
2,note_on,60,28,0
2,note_on,60,0,120
2,note_on,64,33,0
2,note_on,64,0,120
2,note_on,60,27,0
2,note_on,60,0,120
2,note_on,64,51,0
2,note_on,64,0,120
2,note_on,60,36,0
2,note_on,60,0,120
2,note_on,64,43,0
2,note_on,64,0,120
2,note_on,60,36,0
2,note_on,60,0,120
2,note_on,64,43,0
2,note_on,64,0,120
2,note_on,60,36,0
2,note_on,60,0,120
2,note_on,65,40,0
2,note_on,65,0,120
2,note_on,60,36,0
2,note_on,60,0,120
2,note_on,64,38,0
2,note_on,64,0,120
2,note_on,60,34,0
2,note_on,60,0,120
2,note_on,64,39,0
2,note_on,64,0,120
2,note_on,60,33,0
2,note_on,60,0,120
2,note_on,64,34,0
2,note_on,64,0,120
2,note_on,60,27,0
2,note_on,60,0,120
2,note_on,64,31,0
2,note_on,64,0,120
2,note_on,60,27,0
2,note_on,60,0,120
2,note_on,65,34,0
2,note_on,65,0,120
2,note_on,60,29,0
2,note_on,60,0,120
2,note_on,65,34,0
2,note_on,65,0,120
2,note_on,60,30,0
2,note_on,60,0,120
2,note_on,65,34,0
2,note_on,65,0,120
2,note_on,60,26,0
2,note_on,60,0,120
2,note_on,65,31,0
2,note_on,65,0,120
2,note_on,60,26,0
2,note_on,60,0,120
2,note_on,64,36,0
2,note_on,64,0,120
2,note_on,60,32,0
2,note_on,60,0,120
2,note_on,64,36,0
2,note_on,64,0,120
2,note_on,60,30,0
2,note_on,60,0,120
2,note_on,64,36,0
2,note_on,64,0,120
2,note_on,60,26,0
2,note_on,60,0,120
2,note_on,64,32,0
2,note_on,64,0,120
2,note_on,60,27,0
2,note_on,60,0,120
2,note_on,60,57,0
2,note_on,64,57,0
2,note_on,60,0,120
2,note_on,55,50,0
2,note_on,55,0,120
2,note_on,64,0,0
2,note_on,60,57,0
2,note_on,64,57,0
2,note_on,60,0,120
2,note_on,55,50,0
2,note_on,55,0,120
2,note_on,64,0,0
2,note_on,62,54,0
2,note_on,59,54,0
2,note_on,59,0,120
2,note_on,55,46,0
2,note_on,55,0,120
2,note_on,62,0,0
2,note_on,62,50,0
2,note_on,59,50,0
2,note_on,59,0,120
2,note_on,55,46,0
2,note_on,55,0,120
2,note_on,62,0,0
2,note_on,60,48,0
2,note_on,60,0,120
2,note_on,48,43,0
2,note_on,48,0,120
2,note_on,52,48,0
2,note_on,52,0,120
2,note_on,55,43,0
2,note_on,55,0,120
2,note_on,60,57,0
2,note_on,60,0,120
2,note_on,64,47,0
2,note_on,64,0,120
2,note_on,67,52,0
2,note_on,67,0,120
2,note_on,64,46,0
2,note_on,64,0,120
2,note_on,65,37,0
2,note_on,65,0,120
2,note_on,60,28,0
2,note_on,60,0,120
2,note_on,65,37,0
2,note_on,65,0,120
2,note_on,60,29,0
2,note_on,60,0,120
2,note_on,65,37,0
2,note_on,65,0,120
2,note_on,60,29,0
2,note_on,60,0,120
2,note_on,65,33,0
2,note_on,65,0,120
2,note_on,60,29,0
2,note_on,60,0,120
2,note_on,64,37,0
2,note_on,64,0,120
2,note_on,60,29,0
2,note_on,60,0,120
2,note_on,64,37,0
2,note_on,64,0,120
2,note_on,60,28,0
2,note_on,60,0,120
2,note_on,64,37,0
2,note_on,64,0,120
2,note_on,60,27,0
2,note_on,60,0,120
2,note_on,64,32,0
2,note_on,64,0,120
2,note_on,60,29,0
2,note_on,60,0,120
2,note_on,64,48,0
2,note_on,60,48,0
2,note_on,60,0,120
2,note_on,55,42,0
2,note_on,55,0,120
2,note_on,64,0,0
2,note_on,64,45,0
2,note_on,60,45,0
2,note_on,60,0,120
2,note_on,55,40,0
2,note_on,55,0,120
2,note_on,64,0,0
2,note_on,62,48,0
2,note_on,65,48,0
2,note_on,62,0,120
2,note_on,55,42,0
2,note_on,55,0,120
2,note_on,65,0,0
2,note_on,65,45,0
2,note_on,62,45,0
2,note_on,62,0,120
2,note_on,55,40,0
2,note_on,55,0,120
2,note_on,65,0,0
2,note_on,60,56,0
2,note_on,64,56,0
2,note_on,64,0,480
2,note_on,60,0,0
2,note_on,55,45,480
2,note_on,64,45,0
2,note_on,64,0,240
2,note_on,55,0,0
2,note_on,55,41,0
2,note_on,62,41,0
2,note_on,62,0,240
2,note_on,55,0,0
2,note_on,60,46,0
2,note_on,55,46,0
2,note_on,55,0,240
2,note_on,60,0,0
2,note_on,59,41,0
2,note_on,55,41,0
2,note_on,55,0,240
2,note_on,59,0,0
2,note_on,60,58,0
2,note_on,60,0,480
2,note_on,64,48,480
2,note_on,55,48,0
2,note_on,55,0,240
2,note_on,64,0,0
2,note_on,55,45,0
2,note_on,62,45,0
2,note_on,62,0,240
2,note_on,55,0,0
2,note_on,60,47,0
2,note_on,55,47,0
2,note_on,55,0,240
2,note_on,60,0,0
2,note_on,59,45,0
2,note_on,55,45,0
2,note_on,55,0,240
2,note_on,59,0,0
2,note_on,48,58,0
2,note_on,48,0,60
2,note_on,60,64,60
2,note_on,60,0,120
2,note_on,59,56,0
2,note_on,59,0,120
2,note_on,58,56,0
2,note_on,58,0,120
2,note_on,57,59,0
2,note_on,57,0,60
2,note_on,57,57,60
2,note_on,57,0,120
2,note_on,55,57,0
2,note_on,55,0,120
2,note_on,53,54,0
2,note_on,53,0,120
2,note_on,52,57,0
2,note_on,52,0,120
2,note_on,48,57,120
2,note_on,48,0,120
2,note_on,48,48,360
2,note_on,60,48,0
2,note_on,60,0,240
2,note_on,48,0,0
2,note_on,55,48,0
2,note_on,64,48,0
2,note_on,64,0,360
2,note_on,60,54,0
2,note_on,60,0,120
2,note_on,55,0,0
2,note_on,59,48,0
2,note_on,43,65,120
2,note_on,43,0,120
2,note_on,59,0,0
2,note_on,47,72,0
2,note_on,47,0,120
2,note_on,50,69,0
2,note_on,50,0,120
2,note_on,55,45,0
2,note_on,55,0,120
2,note_on,59,43,0
2,note_on,59,0,120
2,note_on,62,41,0
2,note_on,62,0,120
2,note_on,55,45,120
2,note_on,55,0,120
2,note_on,59,43,0
2,note_on,59,0,120
2,note_on,62,41,0
2,note_on,62,0,120
2,note_on,55,44,120
2,note_on,55,0,120
2,note_on,60,40,0
2,note_on,60,0,120
2,note_on,64,43,0
2,note_on,64,0,120
2,note_on,60,40,0
2,note_on,60,0,120
2,note_on,55,44,0
2,note_on,55,0,120
2,note_on,60,40,0
2,note_on,60,0,120
2,note_on,64,43,0
2,note_on,64,0,120
2,note_on,60,40,0
2,note_on,60,0,120
2,note_on,54,57,0
2,note_on,54,0,120
2,note_on,57,54,0
2,note_on,57,0,120
2,note_on,60,49,0
2,note_on,60,0,120
2,note_on,54,57,120
2,note_on,54,0,120
2,note_on,57,54,0
2,note_on,57,0,120
2,note_on,60,51,0
2,note_on,60,0,120
2,note_on,55,57,120
2,note_on,55,0,120
2,note_on,59,51,0
2,note_on,59,0,120
2,note_on,62,53,0
2,note_on,62,0,60
2,note_on,62,50,60
2,note_on,62,0,60
2,note_on,55,57,60
2,note_on,55,0,120
2,note_on,59,39,0
2,note_on,59,0,120
2,note_on,62,42,0
2,note_on,62,0,60
2,note_on,62,37,60
2,note_on,62,0,60
2,note_on,55,44,60
2,note_on,55,0,120
2,note_on,59,41,0
2,note_on,59,0,120
2,note_on,62,41,0
2,note_on,62,0,120
2,note_on,55,44,120
2,note_on,55,0,120
2,note_on,59,41,0
2,note_on,59,0,120
2,note_on,62,41,0
2,note_on,62,0,120
2,note_on,55,43,120
2,note_on,55,0,120
2,note_on,60,40,0
2,note_on,60,0,120
2,note_on,64,40,0
2,note_on,64,0,120
2,note_on,60,40,0
2,note_on,60,0,120
2,note_on,55,45,0
2,note_on,55,0,120
2,note_on,60,38,0
2,note_on,60,0,120
2,note_on,64,42,0
2,note_on,64,0,120
2,note_on,60,40,0
2,note_on,60,0,120
2,note_on,54,52,0
2,note_on,60,52,0
2,note_on,62,62,0
2,note_on,57,52,0
2,note_on,57,0,960
2,note_on,54,0,0
2,note_on,60,0,0
2,note_on,62,0,0
2,note_on,55,61,0
2,note_on,55,0,80
2,note_on,59,54,0
2,note_on,59,0,80
2,note_on,67,51,0
2,note_on,67,0,80
2,note_on,57,61,0
2,note_on,57,0,80
2,note_on,60,53,0
2,note_on,60,0,80
2,note_on,67,50,0
2,note_on,67,0,80
2,note_on,59,61,0
2,note_on,59,0,80
2,note_on,62,57,0
2,note_on,62,0,80
2,note_on,67,49,0
2,note_on,67,0,80
2,note_on,55,61,0
2,note_on,55,0,80
2,note_on,59,48,0
2,note_on,59,0,80
2,note_on,67,45,0
2,note_on,67,0,80
2,note_on,60,43,0
2,note_on,60,0,80
2,note_on,64,40,0
2,note_on,64,0,80
2,note_on,67,37,0
2,note_on,67,0,80
2,note_on,60,43,0
2,note_on,60,0,80
2,note_on,64,40,0
2,note_on,64,0,80
2,note_on,67,38,0
2,note_on,67,0,80
2,note_on,60,43,0
2,note_on,60,0,80
2,note_on,64,40,0
2,note_on,64,0,80
2,note_on,67,38,0
2,note_on,67,0,80
2,note_on,60,43,0
2,note_on,60,0,80
2,note_on,64,41,0
2,note_on,64,0,80
2,note_on,67,39,0
2,note_on,67,0,80
2,note_on,55,57,0
2,note_on,55,0,80
2,note_on,59,50,0
2,note_on,59,0,80
2,note_on,67,50,0
2,note_on,67,0,80
2,note_on,57,57,0
2,note_on,57,0,80
2,note_on,60,51,0
2,note_on,60,0,80
2,note_on,67,48,0
2,note_on,67,0,80
2,note_on,59,57,0
2,note_on,59,0,80
2,note_on,62,52,0
2,note_on,62,0,80
2,note_on,67,46,0
2,note_on,67,0,80
2,note_on,55,57,0
2,note_on,55,0,80
2,note_on,59,50,0
2,note_on,59,0,80
2,note_on,67,47,0
2,note_on,67,0,80
2,note_on,60,38,0
2,note_on,60,0,80
2,note_on,64,36,0
2,note_on,64,0,80
2,note_on,67,36,0
2,note_on,67,0,80
2,note_on,60,38,0
2,note_on,60,0,80
2,note_on,64,36,0
2,note_on,64,0,80
2,note_on,67,36,0
2,note_on,67,0,80
2,note_on,60,45,0
2,note_on,60,0,80
2,note_on,64,43,0
2,note_on,64,0,80
2,note_on,67,40,0
2,note_on,67,0,80
2,note_on,60,45,0
2,note_on,60,0,80
2,note_on,64,44,0
2,note_on,64,0,80
2,note_on,67,41,0
2,note_on,67,0,80
2,note_on,55,61,0
2,note_on,55,0,120
2,note_on,48,61,360
2,note_on,48,0,120
2,note_on,50,63,360
2,note_on,50,0,120
2,note_on,54,53,120
2,note_on,51,53,0
2,note_on,57,63,0
2,note_on,57,0,480
2,note_on,51,0,0
2,note_on,54,0,0
2,note_on,52,40,0
2,note_on,55,48,0
2,note_on,55,0,240
2,note_on,52,0,0
2,note_on,48,36,0
2,note_on,52,43,0
2,note_on,52,0,240
2,note_on,48,0,0
2,note_on,50,44,960
2,note_on,59,44,0
2,note_on,59,0,240
2,note_on,60,44,0
2,note_on,60,0,480
2,note_on,50,0,0
2,note_on,55,46,0
2,note_on,59,46,0
2,note_on,55,0,120
2,note_on,59,0,120
2,note_on,43,44,0
2,note_on,43,0,120
2,note_on,54,40,1800
2,note_on,62,40,0
2,note_on,54,0,240
2,note_on,55,43,0
2,note_on,55,0,240
2,note_on,62,0,0
2,note_on,48,43,240
2,note_on,55,43,0
2,note_on,55,0,480
2,note_on,48,0,0
2,note_on,52,43,240
2,note_on,49,43,0
2,note_on,49,0,240
2,note_on,52,0,0
2,note_on,50,43,0
2,note_on,55,43,0
2,note_on,55,0,240
2,note_on,54,41,0
2,note_on,54,0,240
2,note_on,50,0,0
2,note_on,62,77,0
2,note_on,62,0,180
2,note_on,64,70,0
2,note_on,64,0,30
2,note_on,66,66,0
2,note_on,66,0,30
2,note_on,67,71,0
2,note_on,67,0,120
2,note_on,66,56,0
2,note_on,66,0,60
2,note_on,64,56,60
2,note_on,64,0,60
2,note_on,62,52,60
2,note_on,62,0,60
2,note_on,60,56,60
2,note_on,60,0,60
2,note_on,59,52,60
2,note_on,59,0,60
2,note_on,57,57,60
2,note_on,57,0,120
2,note_on,59,62,120
2,note_on,59,0,120
2,note_on,60,67,120
2,note_on,60,0,120
2,note_on,61,65,120
2,note_on,61,0,120
2,note_on,62,70,120
2,note_on,62,0,120
2,note_on,63,66,120
2,note_on,63,0,120
2,note_on,64,72,120
2,note_on,64,0,170
2,note_on,48,43,70
2,note_on,57,43,0
2,note_on,57,0,240
2,note_on,48,0,0
2,note_on,50,43,0
2,note_on,59,43,0
2,note_on,59,0,240
2,note_on,60,43,0
2,note_on,60,0,240
2,note_on,50,0,0
2,note_on,55,60,0
2,note_on,55,0,120
2,note_on,59,50,0
2,note_on,59,0,120
2,note_on,62,54,0
2,note_on,62,0,120
2,note_on,59,48,0
2,note_on,59,0,120
2,note_on,55,56,0
2,note_on,55,0,120
2,note_on,60,45,0
2,note_on,60,0,120
2,note_on,64,49,0
2,note_on,64,0,120
2,note_on,60,47,0
2,note_on,60,0,120
2,note_on,55,56,0
2,note_on,55,0,120
2,note_on,59,50,0
2,note_on,59,0,120
2,note_on,62,54,0
2,note_on,62,0,120
2,note_on,59,47,0
2,note_on,59,0,120
2,note_on,55,56,0
2,note_on,55,0,120
2,note_on,60,50,0
2,note_on,60,0,120
2,note_on,64,54,0
2,note_on,64,0,120
2,note_on,60,49,0
2,note_on,60,0,120
2,note_on,59,56,0
2,note_on,62,56,0
2,note_on,55,56,0
2,note_on,55,0,240
2,note_on,62,0,0
2,note_on,59,0,0
2,note_on,72,41,0
2,note_on,72,0,240
2,note_on,71,44,0
2,note_on,71,0,240
2,note_on,72,43,0
2,note_on,72,0,240
2,note_on,71,45,0
2,note_on,71,0,240
2,note_on,66,52,0
2,note_on,66,0,60
2,note_on,66,54,60
2,note_on,66,0,60
2,note_on,67,57,60
2,note_on,67,0,60
2,note_on,67,60,60
2,note_on,67,0,60
2,note_on,69,62,60
2,note_on,69,0,60
2,note_on,69,65,60
2,note_on,69,0,60
2,note_on,71,67,60
2,note_on,71,0,240
2,note_on,48,44,960
2,note_on,57,44,0
2,note_on,52,44,0
2,note_on,52,0,240
2,note_on,57,0,0
2,note_on,48,0,0
2,note_on,50,44,0
2,note_on,55,44,0
2,note_on,59,44,0
2,note_on,59,0,240
2,note_on,55,0,0
2,note_on,60,44,0
2,note_on,57,44,0
2,note_on,57,0,240
2,note_on,60,0,0
2,note_on,50,0,0
2,note_on,55,51,0
2,note_on,55,0,120
2,note_on,59,46,0
2,note_on,59,0,120
2,note_on,62,54,0
2,note_on,62,0,120
2,note_on,59,49,0
2,note_on,59,0,120
2,note_on,55,54,0
2,note_on,55,0,120
2,note_on,60,50,0
2,note_on,60,0,120
2,note_on,64,54,0
2,note_on,64,0,120
2,note_on,60,50,0
2,note_on,60,0,120
2,note_on,55,58,0
2,note_on,55,0,120
2,note_on,59,50,0
2,note_on,59,0,120
2,note_on,62,54,0
2,note_on,62,0,120
2,note_on,59,54,0
2,note_on,59,0,120
2,note_on,55,54,0
2,note_on,55,0,120
2,note_on,60,50,0
2,note_on,60,0,120
2,note_on,64,54,0
2,note_on,64,0,120
2,note_on,60,50,0
2,note_on,60,0,120
2,note_on,59,58,0
2,note_on,62,58,0
2,note_on,55,58,0
2,note_on,55,0,240
2,note_on,62,0,0
2,note_on,59,0,0
2,note_on,72,43,0
2,note_on,72,0,240
2,note_on,71,45,0
2,note_on,71,0,240
2,note_on,72,43,0
2,note_on,72,0,240
2,note_on,71,45,0
2,note_on,71,0,240
2,note_on,66,48,0
2,note_on,66,0,60
2,note_on,66,51,60
2,note_on,66,0,60
2,note_on,67,54,60
2,note_on,67,0,60
2,note_on,67,57,60
2,note_on,67,0,60
2,note_on,69,61,60
2,note_on,69,0,60
2,note_on,69,64,60
2,note_on,69,0,60
2,note_on,71,67,60
2,note_on,71,0,240
2,note_on,57,44,960
2,note_on,48,44,0
2,note_on,52,44,0
2,note_on,52,0,240
2,note_on,48,0,0
2,note_on,57,0,0
2,note_on,50,44,0
2,note_on,59,44,0
2,note_on,55,44,0
2,note_on,55,0,240
2,note_on,59,0,0
2,note_on,57,44,0
2,note_on,60,44,0
2,note_on,60,0,240
2,note_on,57,0,0
2,note_on,50,0,0
2,note_on,55,78,0
2,note_on,55,0,180
2,note_on,50,72,0
2,note_on,50,0,60
2,note_on,59,78,0
2,note_on,59,0,180
2,note_on,55,72,0
2,note_on,55,0,60
2,note_on,62,77,0
2,note_on,62,0,120
2,note_on,55,41,360
2,note_on,59,41,0
2,note_on,50,41,0
2,note_on,50,0,120
2,note_on,59,0,0
2,note_on,55,0,0
2,note_on,50,41,360
2,note_on,54,41,0
2,note_on,60,41,0
2,note_on,60,0,120
2,note_on,54,0,0
2,note_on,50,0,0
2,note_on,55,72,360
2,note_on,55,0,60
2,note_on,50,67,0
2,note_on,50,0,60
2,note_on,55,72,0
2,note_on,55,0,60
2,note_on,50,67,0
2,note_on,50,0,60
2,note_on,59,72,0
2,note_on,59,0,60
2,note_on,55,67,0
2,note_on,55,0,60
2,note_on,59,72,0
2,note_on,59,0,60
2,note_on,55,66,0
2,note_on,55,0,60
2,note_on,62,72,0
2,note_on,62,0,120
2,note_on,59,45,360
2,note_on,50,45,0
2,note_on,55,45,0
2,note_on,55,0,120
2,note_on,50,0,0
2,note_on,59,0,0
2,note_on,54,45,360
2,note_on,60,45,0
2,note_on,50,45,0
2,note_on,50,0,120
2,note_on,60,0,0
2,note_on,54,0,0
2,note_on,59,46,360
2,note_on,55,46,0
2,note_on,55,0,240
2,note_on,59,0,0
2,note_on,55,46,0
2,note_on,55,0,120
2,note_on,43,46,120
2,note_on,43,0,120
2,note_on,64,50,1
2,note_on,64,0,119
2,note_on,60,36,0
2,note_on,60,0,120
2,note_on,64,43,0
2,note_on,64,0,120
2,note_on,60,38,0
2,note_on,60,0,120
2,note_on,64,51,0
2,note_on,64,0,120
2,note_on,60,40,0
2,note_on,60,0,120
2,note_on,64,45,0
2,note_on,64,0,120
2,note_on,60,43,0
2,note_on,60,0,120
2,note_on,64,51,0
2,note_on,64,0,120
2,note_on,60,45,0
2,note_on,60,0,120
2,note_on,64,51,0
2,note_on,64,0,120
2,note_on,60,40,0
2,note_on,60,0,120
2,note_on,64,42,0
2,note_on,64,0,120
2,note_on,60,28,0
2,note_on,60,0,120
2,note_on,64,33,0
2,note_on,64,0,120
2,note_on,60,27,0
2,note_on,60,0,120
2,note_on,64,51,0
2,note_on,64,0,120
2,note_on,60,36,0
2,note_on,60,0,120
2,note_on,64,43,0
2,note_on,64,0,120
2,note_on,60,36,0
2,note_on,60,0,120
2,note_on,64,43,0
2,note_on,64,0,120
2,note_on,60,36,0
2,note_on,60,0,120
2,note_on,65,40,0
2,note_on,65,0,120
2,note_on,60,36,0
2,note_on,60,0,120
2,note_on,64,38,0
2,note_on,64,0,120
2,note_on,60,34,0
2,note_on,60,0,120
2,note_on,64,39,0
2,note_on,64,0,120
2,note_on,60,33,0
2,note_on,60,0,120
2,note_on,64,34,0
2,note_on,64,0,120
2,note_on,60,27,0
2,note_on,60,0,120
2,note_on,64,31,0
2,note_on,64,0,120
2,note_on,60,27,0
2,note_on,60,0,120
2,note_on,65,34,0
2,note_on,65,0,120
2,note_on,60,29,0
2,note_on,60,0,120
2,note_on,65,34,0
2,note_on,65,0,120
2,note_on,60,30,0
2,note_on,60,0,120
2,note_on,65,34,0
2,note_on,65,0,120
2,note_on,60,26,0
2,note_on,60,0,120
2,note_on,65,31,0
2,note_on,65,0,120
2,note_on,60,26,0
2,note_on,60,0,120
2,note_on,64,36,0
2,note_on,64,0,120
2,note_on,60,32,0
2,note_on,60,0,120
2,note_on,64,36,0
2,note_on,64,0,120
2,note_on,60,30,0
2,note_on,60,0,120
2,note_on,64,36,0
2,note_on,64,0,120
2,note_on,60,26,0
2,note_on,60,0,120
2,note_on,64,32,0
2,note_on,64,0,120
2,note_on,60,27,0
2,note_on,60,0,120
2,note_on,60,57,0
2,note_on,64,57,0
2,note_on,60,0,120
2,note_on,55,50,0
2,note_on,55,0,120
2,note_on,64,0,0
2,note_on,60,57,0
2,note_on,64,57,0
2,note_on,60,0,120
2,note_on,55,50,0
2,note_on,55,0,120
2,note_on,64,0,0
2,note_on,62,54,0
2,note_on,59,54,0
2,note_on,59,0,120
2,note_on,55,46,0
2,note_on,55,0,120
2,note_on,62,0,0
2,note_on,62,50,0
2,note_on,59,50,0
2,note_on,59,0,120
2,note_on,55,46,0
2,note_on,55,0,120
2,note_on,62,0,0
2,note_on,60,48,0
2,note_on,60,0,120
2,note_on,48,43,0
2,note_on,48,0,120
2,note_on,52,48,0
2,note_on,52,0,120
2,note_on,55,43,0
2,note_on,55,0,120
2,note_on,60,57,0
2,note_on,60,0,120
2,note_on,64,47,0
2,note_on,64,0,120
2,note_on,67,52,0
2,note_on,67,0,120
2,note_on,64,46,0
2,note_on,64,0,120
2,note_on,65,37,0
2,note_on,65,0,120
2,note_on,60,28,0
2,note_on,60,0,120
2,note_on,65,37,0
2,note_on,65,0,120
2,note_on,60,29,0
2,note_on,60,0,120
2,note_on,65,37,0
2,note_on,65,0,120
2,note_on,60,29,0
2,note_on,60,0,120
2,note_on,65,33,0
2,note_on,65,0,120
2,note_on,60,29,0
2,note_on,60,0,120
2,note_on,64,37,0
2,note_on,64,0,120
2,note_on,60,29,0
2,note_on,60,0,120
2,note_on,64,37,0
2,note_on,64,0,120
2,note_on,60,28,0
2,note_on,60,0,120
2,note_on,64,37,0
2,note_on,64,0,120
2,note_on,60,27,0
2,note_on,60,0,120
2,note_on,64,32,0
2,note_on,64,0,120
2,note_on,60,29,0
2,note_on,60,0,120
2,note_on,64,48,0
2,note_on,60,48,0
2,note_on,60,0,120
2,note_on,55,42,0
2,note_on,55,0,120
2,note_on,64,0,0
2,note_on,64,45,0
2,note_on,60,45,0
2,note_on,60,0,120
2,note_on,55,40,0
2,note_on,55,0,120
2,note_on,64,0,0
2,note_on,62,48,0
2,note_on,65,48,0
2,note_on,62,0,120
2,note_on,55,42,0
2,note_on,55,0,120
2,note_on,65,0,0
2,note_on,65,45,0
2,note_on,62,45,0
2,note_on,62,0,120
2,note_on,55,40,0
2,note_on,55,0,120
2,note_on,65,0,0
2,note_on,60,56,0
2,note_on,64,56,0
2,note_on,64,0,480
2,note_on,60,0,0
2,note_on,55,45,480
2,note_on,64,45,0
2,note_on,64,0,240
2,note_on,55,0,0
2,note_on,55,41,0
2,note_on,62,41,0
2,note_on,62,0,240
2,note_on,55,0,0
2,note_on,60,46,0
2,note_on,55,46,0
2,note_on,55,0,240
2,note_on,60,0,0
2,note_on,59,41,0
2,note_on,55,41,0
2,note_on,55,0,240
2,note_on,59,0,0
2,note_on,60,58,0
2,note_on,60,0,480
2,note_on,64,48,480
2,note_on,55,48,0
2,note_on,55,0,240
2,note_on,64,0,0
2,note_on,55,45,0
2,note_on,62,45,0
2,note_on,62,0,240
2,note_on,55,0,0
2,note_on,60,47,0
2,note_on,55,47,0
2,note_on,55,0,240
2,note_on,60,0,0
2,note_on,59,45,0
2,note_on,55,45,0
2,note_on,55,0,240
2,note_on,59,0,0
2,note_on,48,58,0
2,note_on,48,0,60
2,note_on,60,64,60
2,note_on,60,0,120
2,note_on,59,56,0
2,note_on,59,0,120
2,note_on,58,56,0
2,note_on,58,0,120
2,note_on,57,59,0
2,note_on,57,0,60
2,note_on,57,57,60
2,note_on,57,0,120
2,note_on,55,57,0
2,note_on,55,0,120
2,note_on,53,54,0
2,note_on,53,0,120
2,note_on,52,57,0
2,note_on,52,0,120
2,note_on,48,57,120
2,note_on,48,0,120
2,note_on,48,48,360
2,note_on,60,48,0
2,note_on,60,0,240
2,note_on,48,0,0
2,note_on,55,48,0
2,note_on,64,48,0
2,note_on,64,0,360
2,note_on,60,54,0
2,note_on,60,0,120
2,note_on,55,0,0
2,note_on,59,48,0
2,note_on,43,65,120
2,note_on,43,0,120
2,note_on,59,0,0
2,note_on,47,72,0
2,note_on,47,0,120
2,note_on,50,69,0
2,note_on,50,0,120
2,note_on,55,45,0
2,note_on,55,0,120
2,note_on,59,43,0
2,note_on,59,0,120
2,note_on,62,41,0
2,note_on,62,0,120
2,note_on,55,45,120
2,note_on,55,0,120
2,note_on,59,43,0
2,note_on,59,0,120
2,note_on,62,41,0
2,note_on,62,0,120
2,note_on,55,44,120
2,note_on,55,0,120
2,note_on,60,40,0
2,note_on,60,0,120
2,note_on,64,43,0
2,note_on,64,0,120
2,note_on,60,40,0
2,note_on,60,0,120
2,note_on,55,44,0
2,note_on,55,0,120
2,note_on,60,40,0
2,note_on,60,0,120
2,note_on,64,43,0
2,note_on,64,0,120
2,note_on,60,40,0
2,note_on,60,0,120
2,note_on,54,57,0
2,note_on,54,0,120
2,note_on,57,54,0
2,note_on,57,0,120
2,note_on,60,49,0
2,note_on,60,0,120
2,note_on,54,57,120
2,note_on,54,0,120
2,note_on,57,54,0
2,note_on,57,0,120
2,note_on,60,51,0
2,note_on,60,0,120
2,note_on,55,57,120
2,note_on,55,0,120
2,note_on,59,51,0
2,note_on,59,0,120
2,note_on,62,53,0
2,note_on,62,0,60
2,note_on,62,50,60
2,note_on,62,0,60
2,note_on,55,57,60
2,note_on,55,0,120
2,note_on,59,39,0
2,note_on,59,0,120
2,note_on,62,42,0
2,note_on,62,0,60
2,note_on,62,37,60
2,note_on,62,0,60
2,note_on,55,44,60
2,note_on,55,0,120
2,note_on,59,41,0
2,note_on,59,0,120
2,note_on,62,41,0
2,note_on,62,0,120
2,note_on,55,44,120
2,note_on,55,0,120
2,note_on,59,41,0
2,note_on,59,0,120
2,note_on,62,41,0
2,note_on,62,0,120
2,note_on,55,43,120
2,note_on,55,0,120
2,note_on,60,40,0
2,note_on,60,0,120
2,note_on,64,40,0
2,note_on,64,0,120
2,note_on,60,40,0
2,note_on,60,0,120
2,note_on,55,45,0
2,note_on,55,0,120
2,note_on,60,38,0
2,note_on,60,0,120
2,note_on,64,42,0
2,note_on,64,0,120
2,note_on,60,40,0
2,note_on,60,0,120
2,note_on,54,52,0
2,note_on,60,52,0
2,note_on,62,62,0
2,note_on,57,52,0
2,note_on,57,0,960
2,note_on,54,0,0
2,note_on,60,0,0
2,note_on,62,0,0
2,note_on,55,61,0
2,note_on,55,0,80
2,note_on,59,54,0
2,note_on,59,0,80
2,note_on,67,51,0
2,note_on,67,0,80
2,note_on,57,61,0
2,note_on,57,0,80
2,note_on,60,53,0
2,note_on,60,0,80
2,note_on,67,50,0
2,note_on,67,0,80
2,note_on,59,61,0
2,note_on,59,0,80
2,note_on,62,57,0
2,note_on,62,0,80
2,note_on,67,49,0
2,note_on,67,0,80
2,note_on,55,61,0
2,note_on,55,0,80
2,note_on,59,48,0
2,note_on,59,0,80
2,note_on,67,45,0
2,note_on,67,0,80
2,note_on,60,43,0
2,note_on,60,0,80
2,note_on,64,40,0
2,note_on,64,0,80
2,note_on,67,37,0
2,note_on,67,0,80
2,note_on,60,43,0
2,note_on,60,0,80
2,note_on,64,40,0
2,note_on,64,0,80
2,note_on,67,38,0
2,note_on,67,0,80
2,note_on,60,43,0
2,note_on,60,0,80
2,note_on,64,40,0
2,note_on,64,0,80
2,note_on,67,38,0
2,note_on,67,0,80
2,note_on,60,43,0
2,note_on,60,0,80
2,note_on,64,41,0
2,note_on,64,0,80
2,note_on,67,39,0
2,note_on,67,0,80
2,note_on,55,57,0
2,note_on,55,0,80
2,note_on,59,50,0
2,note_on,59,0,80
2,note_on,67,50,0
2,note_on,67,0,80
2,note_on,57,57,0
2,note_on,57,0,80
2,note_on,60,51,0
2,note_on,60,0,80
2,note_on,67,48,0
2,note_on,67,0,80
2,note_on,59,57,0
2,note_on,59,0,80
2,note_on,62,52,0
2,note_on,62,0,80
2,note_on,67,46,0
2,note_on,67,0,80
2,note_on,55,57,0
2,note_on,55,0,80
2,note_on,59,50,0
2,note_on,59,0,80
2,note_on,67,47,0
2,note_on,67,0,80
2,note_on,60,38,0
2,note_on,60,0,80
2,note_on,64,36,0
2,note_on,64,0,80
2,note_on,67,36,0
2,note_on,67,0,80
2,note_on,60,38,0
2,note_on,60,0,80
2,note_on,64,36,0
2,note_on,64,0,80
2,note_on,67,36,0
2,note_on,67,0,80
2,note_on,60,45,0
2,note_on,60,0,80
2,note_on,64,43,0
2,note_on,64,0,80
2,note_on,67,40,0
2,note_on,67,0,80
2,note_on,60,45,0
2,note_on,60,0,80
2,note_on,64,44,0
2,note_on,64,0,80
2,note_on,67,41,0
2,note_on,67,0,80
2,note_on,55,61,0
2,note_on,55,0,120
2,note_on,48,61,360
2,note_on,48,0,120
2,note_on,50,63,360
2,note_on,50,0,120
2,note_on,54,53,120
2,note_on,51,53,0
2,note_on,57,63,0
2,note_on,57,0,480
2,note_on,51,0,0
2,note_on,54,0,0
2,note_on,52,40,0
2,note_on,55,48,0
2,note_on,55,0,240
2,note_on,52,0,0
2,note_on,48,36,0
2,note_on,52,43,0
2,note_on,52,0,240
2,note_on,48,0,0
2,note_on,50,44,960
2,note_on,59,44,0
2,note_on,59,0,240
2,note_on,60,44,0
2,note_on,60,0,480
2,note_on,50,0,0
2,note_on,55,46,0
2,note_on,59,46,0
2,note_on,55,0,120
2,note_on,59,0,120
2,note_on,43,44,0
2,note_on,43,0,120
2,note_on,54,40,1800
2,note_on,62,40,0
2,note_on,54,0,240
2,note_on,55,43,0
2,note_on,55,0,240
2,note_on,62,0,0
2,note_on,48,43,240
2,note_on,55,43,0
2,note_on,55,0,480
2,note_on,48,0,0
2,note_on,52,43,240
2,note_on,49,43,0
2,note_on,49,0,240
2,note_on,52,0,0
2,note_on,50,43,0
2,note_on,55,43,0
2,note_on,55,0,240
2,note_on,54,41,0
2,note_on,54,0,240
2,note_on,50,0,0
2,note_on,62,77,0
2,note_on,62,0,180
2,note_on,64,70,0
2,note_on,64,0,30
2,note_on,66,66,0
2,note_on,66,0,30
2,note_on,67,71,0
2,note_on,67,0,120
2,note_on,66,56,0
2,note_on,66,0,60
2,note_on,64,56,60
2,note_on,64,0,60
2,note_on,62,52,60
2,note_on,62,0,60
2,note_on,60,56,60
2,note_on,60,0,60
2,note_on,59,52,60
2,note_on,59,0,60
2,note_on,57,57,60
2,note_on,57,0,120
2,note_on,59,62,120
2,note_on,59,0,120
2,note_on,60,67,120
2,note_on,60,0,120
2,note_on,61,65,120
2,note_on,61,0,120
2,note_on,62,70,120
2,note_on,62,0,120
2,note_on,63,66,120
2,note_on,63,0,120
2,note_on,64,72,120
2,note_on,64,0,170
2,note_on,48,43,70
2,note_on,57,43,0
2,note_on,57,0,240
2,note_on,48,0,0
2,note_on,50,43,0
2,note_on,59,43,0
2,note_on,59,0,240
2,note_on,60,43,0
2,note_on,60,0,240
2,note_on,50,0,0
2,note_on,55,60,0
2,note_on,55,0,120
2,note_on,59,50,0
2,note_on,59,0,120
2,note_on,62,54,0
2,note_on,62,0,120
2,note_on,59,48,0
2,note_on,59,0,120
2,note_on,55,56,0
2,note_on,55,0,120
2,note_on,60,45,0
2,note_on,60,0,120
2,note_on,64,49,0
2,note_on,64,0,120
2,note_on,60,47,0
2,note_on,60,0,120
2,note_on,55,56,0
2,note_on,55,0,120
2,note_on,59,50,0
2,note_on,59,0,120
2,note_on,62,54,0
2,note_on,62,0,120
2,note_on,59,47,0
2,note_on,59,0,120
2,note_on,55,56,0
2,note_on,55,0,120
2,note_on,60,50,0
2,note_on,60,0,120
2,note_on,64,54,0
2,note_on,64,0,120
2,note_on,60,49,0
2,note_on,60,0,120
2,note_on,59,56,0
2,note_on,62,56,0
2,note_on,55,56,0
2,note_on,55,0,240
2,note_on,62,0,0
2,note_on,59,0,0
2,note_on,72,41,0
2,note_on,72,0,240
2,note_on,71,44,0
2,note_on,71,0,240
2,note_on,72,43,0
2,note_on,72,0,240
2,note_on,71,45,0
2,note_on,71,0,240
2,note_on,66,52,0
2,note_on,66,0,60
2,note_on,66,54,60
2,note_on,66,0,60
2,note_on,67,57,60
2,note_on,67,0,60
2,note_on,67,60,60
2,note_on,67,0,60
2,note_on,69,62,60
2,note_on,69,0,60
2,note_on,69,65,60
2,note_on,69,0,60
2,note_on,71,67,60
2,note_on,71,0,240
2,note_on,48,44,960
2,note_on,57,44,0
2,note_on,52,44,0
2,note_on,52,0,240
2,note_on,57,0,0
2,note_on,48,0,0
2,note_on,50,44,0
2,note_on,55,44,0
2,note_on,59,44,0
2,note_on,59,0,240
2,note_on,55,0,0
2,note_on,60,44,0
2,note_on,57,44,0
2,note_on,57,0,240
2,note_on,60,0,0
2,note_on,50,0,0
2,note_on,55,51,0
2,note_on,55,0,120
2,note_on,59,46,0
2,note_on,59,0,120
2,note_on,62,54,0
2,note_on,62,0,120
2,note_on,59,49,0
2,note_on,59,0,120
2,note_on,55,54,0
2,note_on,55,0,120
2,note_on,60,50,0
2,note_on,60,0,120
2,note_on,64,54,0
2,note_on,64,0,120
2,note_on,60,50,0
2,note_on,60,0,120
2,note_on,55,58,0
2,note_on,55,0,120
2,note_on,59,50,0
2,note_on,59,0,120
2,note_on,62,54,0
2,note_on,62,0,120
2,note_on,59,54,0
2,note_on,59,0,120
2,note_on,55,54,0
2,note_on,55,0,120
2,note_on,60,50,0
2,note_on,60,0,120
2,note_on,64,54,0
2,note_on,64,0,120
2,note_on,60,50,0
2,note_on,60,0,120
2,note_on,59,58,0
2,note_on,62,58,0
2,note_on,55,58,0
2,note_on,55,0,240
2,note_on,62,0,0
2,note_on,59,0,0
2,note_on,72,43,0
2,note_on,72,0,240
2,note_on,71,45,0
2,note_on,71,0,240
2,note_on,72,43,0
2,note_on,72,0,240
2,note_on,71,45,0
2,note_on,71,0,240
2,note_on,66,48,0
2,note_on,66,0,60
2,note_on,66,51,60
2,note_on,66,0,60
2,note_on,67,54,60
2,note_on,67,0,60
2,note_on,67,57,60
2,note_on,67,0,60
2,note_on,69,61,60
2,note_on,69,0,60
2,note_on,69,64,60
2,note_on,69,0,60
2,note_on,71,67,60
2,note_on,71,0,240
2,note_on,57,44,960
2,note_on,48,44,0
2,note_on,52,44,0
2,note_on,52,0,240
2,note_on,48,0,0
2,note_on,57,0,0
2,note_on,50,44,0
2,note_on,59,44,0
2,note_on,55,44,0
2,note_on,55,0,240
2,note_on,59,0,0
2,note_on,57,44,0
2,note_on,60,44,0
2,note_on,60,0,240
2,note_on,57,0,0
2,note_on,50,0,0
2,note_on,55,78,0
2,note_on,55,0,180
2,note_on,50,72,0
2,note_on,50,0,60
2,note_on,59,78,0
2,note_on,59,0,180
2,note_on,55,72,0
2,note_on,55,0,60
2,note_on,62,77,0
2,note_on,62,0,120
2,note_on,55,41,360
2,note_on,59,41,0
2,note_on,50,41,0
2,note_on,50,0,120
2,note_on,59,0,0
2,note_on,55,0,0
2,note_on,50,41,360
2,note_on,54,41,0
2,note_on,60,41,0
2,note_on,60,0,120
2,note_on,54,0,0
2,note_on,50,0,0
2,note_on,55,72,360
2,note_on,55,0,60
2,note_on,50,67,0
2,note_on,50,0,60
2,note_on,55,72,0
2,note_on,55,0,60
2,note_on,50,67,0
2,note_on,50,0,60
2,note_on,59,72,0
2,note_on,59,0,60
2,note_on,55,67,0
2,note_on,55,0,60
2,note_on,59,72,0
2,note_on,59,0,60
2,note_on,55,66,0
2,note_on,55,0,60
2,note_on,62,72,0
2,note_on,62,0,120
2,note_on,59,45,360
2,note_on,50,45,0
2,note_on,55,45,0
2,note_on,55,0,120
2,note_on,50,0,0
2,note_on,59,0,0
2,note_on,54,45,360
2,note_on,60,45,0
2,note_on,50,45,0
2,note_on,50,0,120
2,note_on,60,0,0
2,note_on,54,0,0
2,note_on,59,46,360
2,note_on,55,46,0
2,note_on,55,0,240
2,note_on,59,0,0
2,note_on,55,46,0
2,note_on,55,0,120
2,note_on,43,46,120
2,note_on,43,0,120
2,note_on,67,40,360
2,note_on,67,0,120
2,note_on,71,36,0
2,note_on,71,0,120
2,note_on,67,36,0
2,note_on,67,0,120
2,note_on,71,31,0
2,note_on,71,0,120
2,note_on,67,40,0
2,note_on,67,0,120
2,note_on,71,36,0
2,note_on,71,0,120
2,note_on,65,40,0
2,note_on,65,0,120
2,note_on,68,36,0
2,note_on,68,0,120
2,note_on,64,40,0
2,note_on,64,0,120
2,note_on,67,36,0
2,note_on,67,0,120
2,note_on,64,38,0
2,note_on,64,0,120
2,note_on,67,32,0
2,note_on,67,0,120
2,note_on,64,40,0
2,note_on,64,0,120
2,note_on,67,36,0
2,note_on,67,0,120
2,note_on,62,40,0
2,note_on,62,0,120
2,note_on,65,36,0
2,note_on,65,0,120
2,note_on,60,40,0
2,note_on,60,0,120
2,note_on,64,35,0
2,note_on,64,0,120
2,note_on,60,40,0
2,note_on,60,0,120
2,note_on,64,35,0
2,note_on,64,0,120
2,note_on,60,40,0
2,note_on,60,0,120
2,note_on,64,35,0
2,note_on,64,0,120
2,note_on,60,40,0
2,note_on,60,0,120
2,note_on,63,35,0
2,note_on,63,0,120
2,note_on,59,38,0
2,note_on,59,0,120
2,note_on,62,35,0
2,note_on,62,0,120
2,note_on,60,38,0
2,note_on,60,0,120
2,note_on,62,35,0
2,note_on,62,0,120
2,note_on,59,38,0
2,note_on,59,0,120
2,note_on,62,35,0
2,note_on,62,0,120
2,note_on,60,38,0
2,note_on,60,0,120
2,note_on,62,35,0
2,note_on,62,0,120
2,note_on,59,38,0
2,note_on,59,0,120
2,note_on,62,35,0
2,note_on,62,0,120
2,note_on,60,38,0
2,note_on,60,0,120
2,note_on,63,35,0
2,note_on,63,0,120
2,note_on,59,38,0
2,note_on,59,0,120
2,note_on,62,36,0
2,note_on,62,0,120
2,note_on,60,38,0
2,note_on,60,0,120
2,note_on,63,35,0
2,note_on,63,0,120
2,note_on,59,43,0
2,note_on,62,43,0
2,note_on,62,0,480
2,note_on,59,0,0
2,note_on,50,54,480
2,note_on,50,0,120
2,note_on,59,50,0
2,note_on,59,0,120
2,note_on,55,54,0
2,note_on,55,0,120
2,note_on,59,50,0
2,note_on,59,0,120
2,note_on,50,54,0
2,note_on,50,0,120
2,note_on,57,49,0
2,note_on,57,0,120
2,note_on,54,54,0
2,note_on,54,0,120
2,note_on,57,50,0
2,note_on,57,0,120
2,note_on,55,46,0
2,note_on,55,0,120
2,note_on,59,43,0
2,note_on,59,0,120
2,note_on,62,45,0
2,note_on,62,0,120
2,note_on,59,40,0
2,note_on,59,0,120
2,note_on,55,50,0
2,note_on,55,0,240
2,note_on,55,40,240
2,note_on,55,0,120
2,note_on,59,32,0
2,note_on,59,0,120
2,note_on,62,36,0
2,note_on,62,0,120
2,note_on,59,31,0
2,note_on,59,0,120
2,note_on,55,40,0
2,note_on,55,0,240
2,note_on,55,40,240
2,note_on,55,0,120
2,note_on,59,36,0
2,note_on,59,0,120
2,note_on,62,40,0
2,note_on,62,0,120
2,note_on,59,38,0
2,note_on,59,0,120
2,note_on,55,44,0
2,note_on,55,0,240
2,note_on,56,64,240
2,note_on,56,0,240
2,note_on,59,64,0
2,note_on,59,0,240
2,note_on,62,69,0
2,note_on,62,0,240
2,note_on,65,65,0
2,note_on,65,0,240
2,note_on,59,69,0
2,note_on,59,0,240
2,note_on,57,63,0
2,note_on,57,0,240
2,note_on,56,67,0
2,note_on,56,0,240
2,note_on,64,63,0
2,note_on,64,0,240
2,note_on,57,38,0
2,note_on,57,0,120
2,note_on,60,35,0
2,note_on,60,0,120
2,note_on,64,35,0
2,note_on,64,0,120
2,note_on,60,35,0
2,note_on,60,0,120
2,note_on,57,38,0
2,note_on,57,0,120
2,note_on,60,35,0
2,note_on,60,0,120
2,note_on,65,35,0
2,note_on,65,0,120
2,note_on,60,35,0
2,note_on,60,0,120
2,note_on,55,38,0
2,note_on,55,0,120
2,note_on,62,35,0
2,note_on,62,0,120
2,note_on,65,35,0
2,note_on,65,0,120
2,note_on,62,35,0
2,note_on,62,0,120
2,note_on,55,43,0
2,note_on,55,0,120
2,note_on,60,39,0
2,note_on,60,0,120
2,note_on,64,39,0
2,note_on,64,0,120
2,note_on,60,39,0
2,note_on,60,0,120
2,note_on,53,48,0
2,note_on,53,0,120
2,note_on,60,39,0
2,note_on,60,0,120
2,note_on,65,54,0
2,note_on,65,0,120
2,note_on,60,43,0
2,note_on,60,0,120
2,note_on,53,54,0
2,note_on,53,0,120
2,note_on,57,48,0
2,note_on,57,0,120
2,note_on,62,59,0
2,note_on,62,0,120
2,note_on,57,51,0
2,note_on,57,0,120
2,note_on,52,59,0
2,note_on,52,0,120
2,note_on,57,46,0
2,note_on,57,0,120
2,note_on,61,51,0
2,note_on,61,0,120
2,note_on,57,45,0
2,note_on,57,0,120
2,note_on,52,56,0
2,note_on,52,0,120
2,note_on,57,45,0
2,note_on,57,0,120
2,note_on,61,50,0
2,note_on,61,0,120
2,note_on,57,45,0
2,note_on,57,0,120
2,note_on,50,36,0
2,note_on,50,0,120
2,note_on,57,32,0
2,note_on,57,0,120
2,note_on,60,32,0
2,note_on,60,0,120
2,note_on,57,32,0
2,note_on,57,0,120
2,note_on,50,36,0
2,note_on,50,0,120
2,note_on,55,33,0
2,note_on,55,0,120
2,note_on,59,33,0
2,note_on,59,0,120
2,note_on,55,33,0
2,note_on,55,0,120
2,note_on,48,38,0
2,note_on,48,0,120
2,note_on,55,36,0
2,note_on,55,0,120
2,note_on,60,36,0
2,note_on,60,0,120
2,note_on,55,36,0
2,note_on,55,0,120
2,note_on,48,38,0
2,note_on,48,0,120
2,note_on,55,34,0
2,note_on,55,0,120
2,note_on,60,34,0
2,note_on,60,0,120
2,note_on,55,34,0
2,note_on,55,0,120
2,note_on,53,43,0
2,note_on,53,0,120
2,note_on,56,38,0
2,note_on,56,0,120
2,note_on,60,38,0
2,note_on,60,0,120
2,note_on,56,38,0
2,note_on,56,0,120
2,note_on,53,43,0
2,note_on,53,0,120
2,note_on,56,38,0
2,note_on,56,0,120
2,note_on,60,38,0
2,note_on,60,0,120
2,note_on,56,38,0
2,note_on,56,0,120
2,note_on,54,43,0
2,note_on,54,0,120
2,note_on,57,45,0
2,note_on,57,0,120
2,note_on,60,48,0
2,note_on,60,0,120
2,note_on,57,45,0
2,note_on,57,0,120
2,note_on,54,43,0
2,note_on,54,0,120
2,note_on,57,39,0
2,note_on,57,0,120
2,note_on,60,39,0
2,note_on,60,0,120
2,note_on,57,39,0
2,note_on,57,0,120
2,note_on,55,39,0
2,note_on,55,0,228
2,note_on,55,41,12
2,note_on,55,0,228
2,note_on,57,45,12
2,note_on,55,45,0
2,note_on,55,0,228
2,note_on,57,0,0
2,note_on,59,46,12
2,note_on,55,46,0
2,note_on,55,0,228
2,note_on,59,0,0
2,note_on,60,50,12
2,note_on,55,50,0
2,note_on,55,0,228
2,note_on,60,0,0
2,note_on,67,48,12
2,note_on,55,48,0
2,note_on,55,0,228
2,note_on,67,0,0
2,note_on,65,46,12
2,note_on,55,46,0
2,note_on,55,0,228
2,note_on,65,0,0
2,note_on,63,44,12
2,note_on,55,44,0
2,note_on,55,0,228
2,note_on,63,0,0
2,note_on,62,45,12
2,note_on,55,45,0
2,note_on,55,0,228
2,note_on,62,0,0
2,note_on,59,48,12
2,note_on,55,48,0
2,note_on,55,0,228
2,note_on,59,0,0
2,note_on,57,51,12
2,note_on,55,51,0
2,note_on,55,0,228
2,note_on,57,0,0
2,note_on,59,54,12
2,note_on,55,54,0
2,note_on,55,0,228
2,note_on,59,0,0
2,note_on,60,57,12
2,note_on,55,57,0
2,note_on,55,0,228
2,note_on,60,0,0
2,note_on,67,61,12
2,note_on,55,61,0
2,note_on,55,0,228
2,note_on,67,0,0
2,note_on,65,64,12
2,note_on,55,64,0
2,note_on,55,0,228
2,note_on,65,0,0
2,note_on,63,67,12
2,note_on,54,67,0
2,note_on,54,0,228
2,note_on,63,0,0
2,note_on,55,71,12
2,note_on,62,71,0
2,note_on,62,0,240
2,note_on,55,0,0
2,note_on,62,38,720
2,note_on,55,38,0
2,note_on,55,0,240
2,note_on,62,0,0
2,note_on,61,38,120
2,note_on,61,0,120
2,note_on,62,38,0
2,note_on,55,38,0
2,note_on,55,0,240
2,note_on,62,0,0
2,note_on,61,38,120
2,note_on,61,0,120
2,note_on,62,38,0
2,note_on,55,38,0
2,note_on,55,0,240
2,note_on,62,0,0
2,note_on,61,40,120
2,note_on,61,0,120
2,note_on,55,45,0
2,note_on,62,45,0
2,note_on,62,0,120
2,note_on,61,49,0
2,note_on,61,0,120
2,note_on,55,0,0
2,note_on,55,54,0
2,note_on,62,54,0
2,note_on,62,0,120
2,note_on,61,59,0
2,note_on,61,0,120
2,note_on,55,0,0
2,note_on,62,63,0
2,note_on,55,63,0
2,note_on,55,0,480
2,note_on,62,0,0
2,note_on,57,54,120
2,note_on,57,0,60
2,note_on,59,54,60
2,note_on,59,0,60
2,note_on,60,54,60
2,note_on,60,0,60
2,note_on,62,52,60
2,note_on,62,0,60
2,note_on,60,55,60
2,note_on,60,0,60
2,note_on,59,59,60
2,note_on,59,0,60
2,note_on,60,62,60
2,note_on,60,0,60
2,note_on,62,65,60
2,note_on,62,0,60
2,note_on,61,67,60
2,note_on,61,0,60
2,note_on,62,71,60
2,note_on,62,0,60
2,note_on,63,73,60
2,note_on,63,0,60
2,note_on,64,50,60
2,note_on,64,0,120
2,note_on,60,45,0
2,note_on,60,0,120
2,note_on,64,51,0
2,note_on,64,0,120
2,note_on,60,45,0
2,note_on,60,0,120
2,note_on,64,51,0
2,note_on,64,0,120
2,note_on,60,40,0
2,note_on,60,0,120
2,note_on,64,45,0
2,note_on,64,0,120
2,note_on,60,43,0
2,note_on,60,0,120
2,note_on,64,51,0
2,note_on,64,0,120
2,note_on,60,45,0
2,note_on,60,0,120
2,note_on,64,51,0
2,note_on,64,0,120
2,note_on,60,40,0
2,note_on,60,0,120
2,note_on,64,46,0
2,note_on,64,0,120
2,note_on,60,31,0
2,note_on,60,0,120
2,note_on,64,35,0
2,note_on,64,0,120
2,note_on,60,31,0
2,note_on,60,0,120
2,note_on,64,51,0
2,note_on,64,0,120
2,note_on,60,36,0
2,note_on,60,0,120
2,note_on,64,43,0
2,note_on,64,0,120
2,note_on,60,36,0
2,note_on,60,0,120
2,note_on,64,43,0
2,note_on,64,0,120
2,note_on,60,36,0
2,note_on,60,0,120
2,note_on,65,40,0
2,note_on,65,0,120
2,note_on,60,36,0
2,note_on,60,0,120
2,note_on,64,38,0
2,note_on,64,0,120
2,note_on,60,34,0
2,note_on,60,0,120
2,note_on,64,39,0
2,note_on,64,0,120
2,note_on,60,33,0
2,note_on,60,0,120
2,note_on,64,38,0
2,note_on,64,0,120
2,note_on,60,30,0
2,note_on,60,0,120
2,note_on,64,33,0
2,note_on,64,0,120
2,note_on,60,29,0
2,note_on,60,0,120
2,note_on,65,34,0
2,note_on,65,0,120
2,note_on,60,29,0
2,note_on,60,0,120
2,note_on,65,34,0
2,note_on,65,0,120
2,note_on,60,30,0
2,note_on,60,0,120
2,note_on,65,34,0
2,note_on,65,0,120
2,note_on,60,30,0
2,note_on,60,0,120
2,note_on,65,34,0
2,note_on,65,0,120
2,note_on,60,30,0
2,note_on,60,0,120
2,note_on,64,36,0
2,note_on,64,0,120
2,note_on,60,32,0
2,note_on,60,0,120
2,note_on,64,36,0
2,note_on,64,0,120
2,note_on,60,30,0
2,note_on,60,0,120
2,note_on,64,36,0
2,note_on,64,0,120
2,note_on,60,30,0
2,note_on,60,0,120
2,note_on,64,36,0
2,note_on,64,0,120
2,note_on,60,30,0
2,note_on,60,0,120
2,note_on,64,57,0
2,note_on,60,57,0
2,note_on,60,0,120
2,note_on,55,50,0
2,note_on,55,0,120
2,note_on,64,0,0
2,note_on,64,57,0
2,note_on,60,57,0
2,note_on,60,0,120
2,note_on,55,50,0
2,note_on,55,0,120
2,note_on,64,0,0
2,note_on,62,54,0
2,note_on,59,54,0
2,note_on,59,0,120
2,note_on,55,46,0
2,note_on,55,0,120
2,note_on,62,0,0
2,note_on,62,51,0
2,note_on,59,51,0
2,note_on,59,0,120
2,note_on,55,44,0
2,note_on,55,0,120
2,note_on,62,0,0
2,note_on,60,48,0
2,note_on,60,0,120
2,note_on,48,45,0
2,note_on,48,0,120
2,note_on,52,48,0
2,note_on,52,0,120
2,note_on,55,45,0
2,note_on,55,0,120
2,note_on,60,57,0
2,note_on,60,0,120
2,note_on,64,48,0
2,note_on,64,0,120
2,note_on,67,52,0
2,note_on,67,0,120
2,note_on,64,48,0
2,note_on,64,0,120
2,note_on,65,37,0
2,note_on,65,0,120
2,note_on,60,28,0
2,note_on,60,0,120
2,note_on,65,37,0
2,note_on,65,0,120
2,note_on,60,29,0
2,note_on,60,0,120
2,note_on,65,37,0
2,note_on,65,0,120
2,note_on,60,27,0
2,note_on,60,0,120
2,note_on,65,32,0
2,note_on,65,0,120
2,note_on,60,29,0
2,note_on,60,0,120
2,note_on,64,37,0
2,note_on,64,0,120
2,note_on,60,29,0
2,note_on,60,0,120
2,note_on,64,37,0
2,note_on,64,0,120
2,note_on,60,28,0
2,note_on,60,0,120
2,note_on,64,37,0
2,note_on,64,0,120
2,note_on,60,27,0
2,note_on,60,0,120
2,note_on,64,33,0
2,note_on,64,0,120
2,note_on,60,29,0
2,note_on,60,0,120
2,note_on,64,51,0
2,note_on,60,51,0
2,note_on,60,0,120
2,note_on,55,45,0
2,note_on,55,0,120
2,note_on,64,0,0
2,note_on,64,51,0
2,note_on,60,51,0
2,note_on,60,0,120
2,note_on,55,45,0
2,note_on,55,0,120
2,note_on,64,0,0
2,note_on,65,51,0
2,note_on,62,51,0
2,note_on,62,0,120
2,note_on,55,43,0
2,note_on,55,0,120
2,note_on,65,0,0
2,note_on,65,48,0
2,note_on,62,48,0
2,note_on,62,0,120
2,note_on,55,45,0
2,note_on,55,0,120
2,note_on,65,0,0
2,note_on,64,56,0
2,note_on,60,56,0
2,note_on,60,0,480
2,note_on,64,0,0
2,note_on,64,46,480
2,note_on,55,46,0
2,note_on,55,0,240
2,note_on,64,0,0
2,note_on,62,40,0
2,note_on,55,40,0
2,note_on,55,0,240
2,note_on,62,0,0
2,note_on,60,46,0
2,note_on,55,46,0
2,note_on,55,0,240
2,note_on,60,0,0
2,note_on,59,42,0
2,note_on,55,42,0
2,note_on,55,0,240
2,note_on,59,0,0
2,note_on,60,58,0
2,note_on,60,0,480
2,note_on,64,46,480
2,note_on,55,46,0
2,note_on,55,0,240
2,note_on,64,0,0
2,note_on,62,42,0
2,note_on,55,42,0
2,note_on,55,0,240
2,note_on,62,0,0
2,note_on,60,45,0
2,note_on,55,45,0
2,note_on,55,0,240
2,note_on,60,0,0
2,note_on,59,45,0
2,note_on,55,45,0
2,note_on,55,0,240
2,note_on,59,0,0
2,note_on,48,62,0
2,note_on,48,0,60
2,note_on,60,68,60
2,note_on,60,0,120
2,note_on,59,59,0
2,note_on,59,0,120
2,note_on,58,59,0
2,note_on,58,0,120
2,note_on,57,63,0
2,note_on,57,0,60
2,note_on,57,67,60
2,note_on,57,0,120
2,note_on,55,61,0
2,note_on,55,0,120
2,note_on,53,61,0
2,note_on,53,0,120
2,note_on,52,60,0
2,note_on,52,0,120
2,note_on,48,60,120
2,note_on,48,0,120
2,note_on,60,51,360
2,note_on,48,51,0
2,note_on,48,0,240
2,note_on,60,0,0
2,note_on,64,51,0
2,note_on,55,51,0
2,note_on,64,0,360
2,note_on,60,54,0
2,note_on,60,0,120
2,note_on,55,0,0
2,note_on,59,54,0
2,note_on,43,71,120
2,note_on,43,0,120
2,note_on,59,0,0
2,note_on,47,72,0
2,note_on,47,0,120
2,note_on,50,69,0
2,note_on,50,0,120
2,note_on,55,45,0
2,note_on,55,0,120
2,note_on,59,42,0
2,note_on,59,0,120
2,note_on,62,40,0
2,note_on,62,0,120
2,note_on,55,45,120
2,note_on,55,0,120
2,note_on,59,43,0
2,note_on,59,0,120
2,note_on,62,41,0
2,note_on,62,0,120
2,note_on,55,44,120
2,note_on,55,0,120
2,note_on,60,40,0
2,note_on,60,0,120
2,note_on,64,43,0
2,note_on,64,0,120
2,note_on,60,41,0
2,note_on,60,0,120
2,note_on,55,44,0
2,note_on,55,0,120
2,note_on,60,40,0
2,note_on,60,0,120
2,note_on,64,43,0
2,note_on,64,0,120
2,note_on,60,40,0
2,note_on,60,0,120
2,note_on,54,57,0
2,note_on,54,0,120
2,note_on,57,51,0
2,note_on,57,0,120
2,note_on,60,54,0
2,note_on,60,0,120
2,note_on,54,57,120
2,note_on,54,0,120
2,note_on,57,51,0
2,note_on,57,0,120
2,note_on,60,54,0
2,note_on,60,0,120
2,note_on,53,57,120
2,note_on,53,0,120
2,note_on,57,52,0
2,note_on,57,0,120
2,note_on,59,57,0
2,note_on,59,0,120
2,note_on,62,52,0
2,note_on,62,0,120
2,note_on,65,62,0
2,note_on,65,0,240
2,note_on,64,43,0
2,note_on,64,0,120
2,note_on,62,45,0
2,note_on,62,0,120
2,note_on,60,44,0
2,note_on,60,0,120
2,note_on,64,39,0
2,note_on,64,0,120
2,note_on,67,41,0
2,note_on,67,0,120
2,note_on,60,44,120
2,note_on,60,0,120
2,note_on,64,39,0
2,note_on,64,0,120
2,note_on,67,41,0
2,note_on,67,0,120
2,note_on,60,43,120
2,note_on,60,0,120
2,note_on,65,37,0
2,note_on,65,0,120
2,note_on,69,40,0
2,note_on,69,0,120
2,note_on,65,38,0
2,note_on,65,0,120
2,note_on,60,45,0
2,note_on,60,0,120
2,note_on,65,39,0
2,note_on,65,0,120
2,note_on,69,41,0
2,note_on,69,0,120
2,note_on,65,40,0
2,note_on,65,0,120
2,note_on,59,62,0
2,note_on,62,62,0
2,note_on,65,62,0
2,note_on,67,62,0
2,note_on,67,0,960
2,note_on,59,0,0
2,note_on,62,0,0
2,note_on,65,0,0
2,note_on,60,61,0
2,note_on,60,0,80
2,note_on,64,57,0
2,note_on,64,0,80
2,note_on,72,53,0
2,note_on,72,0,80
2,note_on,62,61,0
2,note_on,62,0,80
2,note_on,65,57,0
2,note_on,65,0,80
2,note_on,72,53,0
2,note_on,72,0,80
2,note_on,64,61,0
2,note_on,64,0,80
2,note_on,67,57,0
2,note_on,67,0,80
2,note_on,72,53,0
2,note_on,72,0,80
2,note_on,60,61,0
2,note_on,60,0,80
2,note_on,64,48,0
2,note_on,64,0,80
2,note_on,72,48,0
2,note_on,72,0,80
2,note_on,65,43,0
2,note_on,65,0,80
2,note_on,69,40,0
2,note_on,69,0,80
2,note_on,72,38,0
2,note_on,72,0,80
2,note_on,65,43,0
2,note_on,65,0,80
2,note_on,69,40,0
2,note_on,69,0,80
2,note_on,72,39,0
2,note_on,72,0,80
2,note_on,65,43,0
2,note_on,65,0,80
2,note_on,69,41,0
2,note_on,69,0,80
2,note_on,72,40,0
2,note_on,72,0,80
2,note_on,65,43,0
2,note_on,65,0,80
2,note_on,69,41,0
2,note_on,69,0,80
2,note_on,72,40,0
2,note_on,72,0,80
2,note_on,60,57,0
2,note_on,60,0,80
2,note_on,64,55,0
2,note_on,64,0,80
2,note_on,72,50,0
2,note_on,72,0,80
2,note_on,62,57,0
2,note_on,62,0,80
2,note_on,65,54,0
2,note_on,65,0,80
2,note_on,72,51,0
2,note_on,72,0,80
2,note_on,64,57,0
2,note_on,64,0,80
2,note_on,67,54,0
2,note_on,67,0,80
2,note_on,72,51,0
2,note_on,72,0,80
2,note_on,60,57,0
2,note_on,60,0,80
2,note_on,64,54,0
2,note_on,64,0,80
2,note_on,72,49,0
2,note_on,72,0,80
2,note_on,65,38,0
2,note_on,65,0,80
2,note_on,69,36,0
2,note_on,69,0,80
2,note_on,72,36,0
2,note_on,72,0,80
2,note_on,65,38,0
2,note_on,65,0,80
2,note_on,69,36,0
2,note_on,69,0,80
2,note_on,72,36,0
2,note_on,72,0,80
2,note_on,65,43,0
2,note_on,65,0,80
2,note_on,69,39,0
2,note_on,69,0,80
2,note_on,72,39,0
2,note_on,72,0,80
2,note_on,65,43,0
2,note_on,65,0,80
2,note_on,69,40,0
2,note_on,69,0,80
2,note_on,72,40,0
2,note_on,72,0,80
2,note_on,60,64,0
2,note_on,60,0,120
2,note_on,53,64,360
2,note_on,53,0,120
2,note_on,55,60,360
2,note_on,55,0,120
2,note_on,59,59,120
2,note_on,62,59,0
2,note_on,56,59,0
2,note_on,56,0,480
2,note_on,62,0,0
2,note_on,59,0,0
2,note_on,57,51,0
2,note_on,60,51,0
2,note_on,60,0,240
2,note_on,57,0,0
2,note_on,53,43,0
2,note_on,57,43,0
2,note_on,57,0,240
2,note_on,53,0,0
2,note_on,55,44,960
2,note_on,64,44,0
2,note_on,64,0,240
2,note_on,65,44,0
2,note_on,65,0,480
2,note_on,55,0,0
2,note_on,64,46,0
2,note_on,60,46,0
2,note_on,60,0,120
2,note_on,64,0,120
2,note_on,48,44,0
2,note_on,48,0,120
2,note_on,67,43,1800
2,note_on,59,43,0
2,note_on,59,0,240
2,note_on,60,43,0
2,note_on,60,0,240
2,note_on,67,0,0
2,note_on,53,43,240
2,note_on,60,43,0
2,note_on,60,0,480
2,note_on,53,0,0
2,note_on,54,40,240
2,note_on,57,40,0
2,note_on,57,0,240
2,note_on,54,0,0
2,note_on,60,43,0
2,note_on,55,43,0
2,note_on,60,0,240
2,note_on,59,40,0
2,note_on,59,0,240
2,note_on,55,0,0
2,note_on,67,77,0
2,note_on,67,0,180
2,note_on,69,68,0
2,note_on,69,0,30
2,note_on,71,63,0
2,note_on,71,0,30
2,note_on,72,69,0
2,note_on,72,0,120
2,note_on,71,56,0
2,note_on,71,0,60
2,note_on,69,56,60
2,note_on,69,0,60
2,note_on,67,52,60
2,note_on,67,0,60
2,note_on,65,56,60
2,note_on,65,0,60
2,note_on,64,52,60
2,note_on,64,0,60
2,note_on,62,57,60
2,note_on,62,0,120
2,note_on,64,62,120
2,note_on,64,0,120
2,note_on,65,67,120
2,note_on,65,0,120
2,note_on,66,69,120
2,note_on,66,0,120
2,note_on,67,70,120
2,note_on,67,0,120
2,note_on,68,72,120
2,note_on,68,0,120
2,note_on,69,77,120
2,note_on,69,0,240
2,note_on,53,48,0
2,note_on,62,48,0
2,note_on,62,0,240
2,note_on,53,0,0
2,note_on,55,48,0
2,note_on,64,48,0
2,note_on,64,0,240
2,note_on,65,48,0
2,note_on,65,0,240
2,note_on,55,0,0
2,note_on,60,60,0
2,note_on,60,0,120
2,note_on,64,52,0
2,note_on,64,0,120
2,note_on,67,57,0
2,note_on,67,0,120
2,note_on,64,53,0
2,note_on,64,0,120
2,note_on,60,60,0
2,note_on,60,0,120
2,note_on,65,53,0
2,note_on,65,0,120
2,note_on,69,57,0
2,note_on,69,0,120
2,note_on,65,51,0
2,note_on,65,0,120
2,note_on,60,60,0
2,note_on,60,0,120
2,note_on,64,47,0
2,note_on,64,0,120
2,note_on,67,54,0
2,note_on,67,0,120
2,note_on,64,49,0
2,note_on,64,0,120
2,note_on,60,60,0
2,note_on,60,0,120
2,note_on,65,53,0
2,note_on,65,0,120
2,note_on,69,57,0
2,note_on,69,0,120
2,note_on,65,52,0
2,note_on,65,0,120
2,note_on,67,58,0
2,note_on,64,58,0
2,note_on,60,58,0
2,note_on,60,0,240
2,note_on,64,0,0
2,note_on,67,0,0
2,note_on,67,46,0
2,note_on,65,46,0
2,note_on,65,0,240
2,note_on,64,44,0
2,note_on,64,0,240
2,note_on,67,0,0
2,note_on,67,43,0
2,note_on,65,43,0
2,note_on,65,0,240
2,note_on,64,45,0
2,note_on,64,0,240
2,note_on,67,0,0
2,note_on,65,52,0
2,note_on,67,52,0
2,note_on,67,0,120
2,note_on,65,0,0
2,note_on,65,52,0
2,note_on,67,54,0
2,note_on,67,0,120
2,note_on,65,0,0
2,note_on,64,52,0
2,note_on,67,57,0
2,note_on,67,0,120
2,note_on,64,0,0
2,note_on,64,52,0
2,note_on,67,60,0
2,note_on,67,0,120
2,note_on,64,0,0
2,note_on,59,52,0
2,note_on,67,62,0
2,note_on,67,0,120
2,note_on,59,0,0
2,note_on,59,52,0
2,note_on,67,65,0
2,note_on,67,0,120
2,note_on,59,0,0
2,note_on,60,67,0
2,note_on,67,67,0
2,note_on,67,0,240
2,note_on,60,0,0
2,note_on,53,44,960
2,note_on,57,44,0
2,note_on,62,44,0
2,note_on,62,0,240
2,note_on,57,0,0
2,note_on,53,0,0
2,note_on,55,44,0
2,note_on,64,44,0
2,note_on,60,44,0
2,note_on,60,0,240
2,note_on,64,0,0
2,note_on,62,43,0
2,note_on,65,43,0
2,note_on,65,0,240
2,note_on,62,0,0
2,note_on,55,0,0
2,note_on,60,60,0
2,note_on,60,0,120
2,note_on,64,52,0
2,note_on,64,0,120
2,note_on,67,57,0
2,note_on,67,0,120
2,note_on,64,52,0
2,note_on,64,0,120
2,note_on,60,60,0
2,note_on,60,0,120
2,note_on,65,53,0
2,note_on,65,0,120
2,note_on,69,57,0
2,note_on,69,0,120
2,note_on,65,57,0
2,note_on,65,0,120
2,note_on,60,60,0
2,note_on,60,0,120
2,note_on,64,52,0
2,note_on,64,0,120
2,note_on,67,57,0
2,note_on,67,0,120
2,note_on,64,51,0
2,note_on,64,0,120
2,note_on,60,60,0
2,note_on,60,0,120
2,note_on,65,53,0
2,note_on,65,0,120
2,note_on,69,57,0
2,note_on,69,0,120
2,note_on,65,51,0
2,note_on,65,0,120
2,note_on,67,60,0
2,note_on,64,60,0
2,note_on,60,60,0
2,note_on,60,0,240
2,note_on,64,0,0
2,note_on,67,0,0
2,note_on,67,46,0
2,note_on,65,46,0
2,note_on,65,0,240
2,note_on,64,44,0
2,note_on,64,0,240
2,note_on,67,0,0
2,note_on,67,42,0
2,note_on,65,42,0
2,note_on,65,0,240
2,note_on,64,45,0
2,note_on,64,0,240
2,note_on,67,0,0
2,note_on,65,52,0
2,note_on,67,52,0
2,note_on,67,0,114
2,note_on,65,0,0
2,note_on,65,52,6
2,note_on,67,54,0
2,note_on,67,0,114
2,note_on,65,0,0
2,note_on,64,52,6
2,note_on,67,57,0
2,note_on,67,0,114
2,note_on,64,0,0
2,note_on,64,52,6
2,note_on,67,60,0
2,note_on,67,0,114
2,note_on,64,0,0
2,note_on,59,52,6
2,note_on,67,62,0
2,note_on,67,0,114
2,note_on,59,0,0
2,note_on,59,52,6
2,note_on,67,65,0
2,note_on,67,0,114
2,note_on,59,0,0
2,note_on,60,67,6
2,note_on,67,67,0
2,note_on,67,0,240
2,note_on,60,0,0
2,note_on,53,44,960
2,note_on,57,44,0
2,note_on,62,44,0
2,note_on,62,0,240
2,note_on,57,0,0
2,note_on,53,0,0
2,note_on,55,44,0
2,note_on,64,44,0
2,note_on,60,44,0
2,note_on,60,0,240
2,note_on,64,0,0
2,note_on,62,41,0
2,note_on,65,41,0
2,note_on,65,0,240
2,note_on,62,0,0
2,note_on,55,0,0
2,note_on,60,78,0
2,note_on,60,0,180
2,note_on,55,71,0
2,note_on,55,0,60
2,note_on,64,76,0
2,note_on,64,0,180
2,note_on,60,68,0
2,note_on,60,0,60
2,note_on,67,74,0
2,note_on,67,0,120
2,note_on,55,41,360
2,note_on,60,41,0
2,note_on,64,41,0
2,note_on,64,0,120
2,note_on,60,0,0
2,note_on,55,0,0
2,note_on,55,41,360
2,note_on,65,41,0
2,note_on,59,41,0
2,note_on,59,0,120
2,note_on,65,0,0
2,note_on,55,0,0
2,note_on,60,70,360
2,note_on,60,0,60
2,note_on,55,65,0
2,note_on,55,0,60
2,note_on,60,70,0
2,note_on,60,0,60
2,note_on,55,65,0
2,note_on,55,0,60
2,note_on,64,70,0
2,note_on,64,0,60
2,note_on,60,64,0
2,note_on,60,0,60
2,note_on,64,71,0
2,note_on,64,0,60
2,note_on,60,65,0
2,note_on,60,0,60
2,note_on,67,71,0
2,note_on,67,0,120
2,note_on,55,45,360
2,note_on,64,45,0
2,note_on,60,45,0
2,note_on,60,0,120
2,note_on,64,0,0
2,note_on,55,0,0
2,note_on,59,45,360
2,note_on,55,45,0
2,note_on,65,45,0
2,note_on,65,0,120
2,note_on,55,0,0
2,note_on,59,0,0
2,note_on,64,51,360
2,note_on,64,0,120
2,note_on,60,41,0
2,note_on,60,0,120
2,note_on,64,51,0
2,note_on,64,0,120
2,note_on,60,41,0
2,note_on,60,0,120
2,note_on,65,51,0
2,note_on,65,0,120
2,note_on,60,41,0
2,note_on,60,0,120
2,note_on,67,51,0
2,note_on,67,0,120
2,note_on,60,41,0
2,note_on,60,0,120
2,note_on,69,51,0
2,note_on,69,0,120
2,note_on,60,43,0
2,note_on,60,0,120
2,note_on,70,51,0
2,note_on,70,0,120
2,note_on,60,43,0
2,note_on,60,0,120
2,note_on,69,51,0
2,note_on,69,0,120
2,note_on,60,43,0
2,note_on,60,0,120
2,note_on,67,51,0
2,note_on,67,0,120
2,note_on,60,43,0
2,note_on,60,0,120
2,note_on,65,51,0
2,note_on,65,0,120
2,note_on,60,43,0
2,note_on,60,0,120
2,note_on,64,51,0
2,note_on,64,0,120
2,note_on,60,35,0
2,note_on,60,0,120
2,note_on,65,40,0
2,note_on,65,0,120
2,note_on,60,37,0
2,note_on,60,0,120
2,note_on,62,40,0
2,note_on,62,0,120
2,note_on,60,36,0
2,note_on,60,0,120
2,note_on,64,39,0
2,note_on,64,0,120
2,note_on,60,36,0
2,note_on,60,0,120
2,note_on,65,40,0
2,note_on,65,0,120
2,note_on,60,34,0
2,note_on,60,0,120
2,note_on,64,40,0
2,note_on,64,0,120
2,note_on,60,38,0
2,note_on,60,0,120
2,note_on,65,41,0
2,note_on,65,0,120
2,note_on,60,34,0
2,note_on,60,0,120
2,note_on,64,41,0
2,note_on,64,0,120
2,note_on,60,37,0
2,note_on,60,0,120
2,note_on,65,40,0
2,note_on,65,0,120
2,note_on,60,33,0
2,note_on,60,0,120
2,note_on,64,41,0
2,note_on,64,0,120
2,note_on,60,37,0
2,note_on,60,0,120
2,note_on,65,41,0
2,note_on,65,0,120
2,note_on,60,35,0
2,note_on,60,0,120
2,note_on,48,33,0
2,note_on,60,39,0
2,note_on,60,0,720
2,note_on,48,0,0
2,note_on,67,40,240
2,note_on,67,0,120
2,note_on,71,36,0
2,note_on,71,0,120
2,note_on,67,36,0
2,note_on,67,0,120
2,note_on,71,31,0
2,note_on,71,0,120
2,note_on,67,40,0
2,note_on,67,0,120
2,note_on,71,36,0
2,note_on,71,0,120
2,note_on,65,40,0
2,note_on,65,0,120
2,note_on,68,36,0
2,note_on,68,0,120
2,note_on,64,40,0
2,note_on,64,0,120
2,note_on,67,36,0
2,note_on,67,0,120
2,note_on,64,38,0
2,note_on,64,0,120
2,note_on,67,32,0
2,note_on,67,0,120
2,note_on,64,40,0
2,note_on,64,0,120
2,note_on,67,36,0
2,note_on,67,0,120
2,note_on,62,40,0
2,note_on,62,0,120
2,note_on,65,36,0
2,note_on,65,0,120
2,note_on,60,40,0
2,note_on,60,0,120
2,note_on,64,35,0
2,note_on,64,0,120
2,note_on,60,40,0
2,note_on,60,0,120
2,note_on,64,35,0
2,note_on,64,0,120
2,note_on,60,40,0
2,note_on,60,0,120
2,note_on,64,35,0
2,note_on,64,0,120
2,note_on,60,40,0
2,note_on,60,0,120
2,note_on,63,35,0
2,note_on,63,0,120
2,note_on,59,38,0
2,note_on,59,0,120
2,note_on,62,35,0
2,note_on,62,0,120
2,note_on,60,38,0
2,note_on,60,0,120
2,note_on,62,35,0
2,note_on,62,0,120
2,note_on,59,38,0
2,note_on,59,0,120
2,note_on,62,35,0
2,note_on,62,0,120
2,note_on,60,38,0
2,note_on,60,0,120
2,note_on,62,35,0
2,note_on,62,0,120
2,note_on,59,38,0
2,note_on,59,0,120
2,note_on,62,35,0
2,note_on,62,0,120
2,note_on,60,38,0
2,note_on,60,0,120
2,note_on,63,35,0
2,note_on,63,0,120
2,note_on,59,38,0
2,note_on,59,0,120
2,note_on,62,36,0
2,note_on,62,0,120
2,note_on,60,38,0
2,note_on,60,0,120
2,note_on,63,35,0
2,note_on,63,0,120
2,note_on,59,43,0
2,note_on,62,43,0
2,note_on,62,0,480
2,note_on,59,0,0
2,note_on,50,54,480
2,note_on,50,0,120
2,note_on,59,50,0
2,note_on,59,0,120
2,note_on,55,54,0
2,note_on,55,0,120
2,note_on,59,50,0
2,note_on,59,0,120
2,note_on,50,54,0
2,note_on,50,0,120
2,note_on,57,49,0
2,note_on,57,0,120
2,note_on,54,54,0
2,note_on,54,0,120
2,note_on,57,50,0
2,note_on,57,0,120
2,note_on,55,46,0
2,note_on,55,0,120
2,note_on,59,43,0
2,note_on,59,0,120
2,note_on,62,45,0
2,note_on,62,0,120
2,note_on,59,40,0
2,note_on,59,0,120
2,note_on,55,50,0
2,note_on,55,0,240
2,note_on,55,40,240
2,note_on,55,0,120
2,note_on,59,32,0
2,note_on,59,0,120
2,note_on,62,36,0
2,note_on,62,0,120
2,note_on,59,31,0
2,note_on,59,0,120
2,note_on,55,40,0
2,note_on,55,0,240
2,note_on,55,40,240
2,note_on,55,0,120
2,note_on,59,36,0
2,note_on,59,0,120
2,note_on,62,40,0
2,note_on,62,0,120
2,note_on,59,38,0
2,note_on,59,0,120
2,note_on,55,44,0
2,note_on,55,0,240
2,note_on,56,64,240
2,note_on,56,0,240
2,note_on,59,64,0
2,note_on,59,0,240
2,note_on,62,69,0
2,note_on,62,0,240
2,note_on,65,65,0
2,note_on,65,0,240
2,note_on,59,69,0
2,note_on,59,0,240
2,note_on,57,63,0
2,note_on,57,0,240
2,note_on,56,67,0
2,note_on,56,0,240
2,note_on,64,63,0
2,note_on,64,0,240
2,note_on,57,38,0
2,note_on,57,0,120
2,note_on,60,35,0
2,note_on,60,0,120
2,note_on,64,35,0
2,note_on,64,0,120
2,note_on,60,35,0
2,note_on,60,0,120
2,note_on,57,38,0
2,note_on,57,0,120
2,note_on,60,35,0
2,note_on,60,0,120
2,note_on,65,35,0
2,note_on,65,0,120
2,note_on,60,35,0
2,note_on,60,0,120
2,note_on,55,38,0
2,note_on,55,0,120
2,note_on,62,35,0
2,note_on,62,0,120
2,note_on,65,35,0
2,note_on,65,0,120
2,note_on,62,35,0
2,note_on,62,0,120
2,note_on,55,43,0
2,note_on,55,0,120
2,note_on,60,39,0
2,note_on,60,0,120
2,note_on,64,39,0
2,note_on,64,0,120
2,note_on,60,39,0
2,note_on,60,0,120
2,note_on,53,48,0
2,note_on,53,0,120
2,note_on,60,39,0
2,note_on,60,0,120
2,note_on,65,54,0
2,note_on,65,0,120
2,note_on,60,43,0
2,note_on,60,0,120
2,note_on,53,54,0
2,note_on,53,0,120
2,note_on,57,48,0
2,note_on,57,0,120
2,note_on,62,59,0
2,note_on,62,0,120
2,note_on,57,51,0
2,note_on,57,0,120
2,note_on,52,59,0
2,note_on,52,0,120
2,note_on,57,46,0
2,note_on,57,0,120
2,note_on,61,51,0
2,note_on,61,0,120
2,note_on,57,45,0
2,note_on,57,0,120
2,note_on,52,56,0
2,note_on,52,0,120
2,note_on,57,45,0
2,note_on,57,0,120
2,note_on,61,50,0
2,note_on,61,0,120
2,note_on,57,45,0
2,note_on,57,0,120
2,note_on,50,36,0
2,note_on,50,0,120
2,note_on,57,32,0
2,note_on,57,0,120
2,note_on,60,32,0
2,note_on,60,0,120
2,note_on,57,32,0
2,note_on,57,0,120
2,note_on,50,36,0
2,note_on,50,0,120
2,note_on,55,33,0
2,note_on,55,0,120
2,note_on,59,33,0
2,note_on,59,0,120
2,note_on,55,33,0
2,note_on,55,0,120
2,note_on,48,38,0
2,note_on,48,0,120
2,note_on,55,36,0
2,note_on,55,0,120
2,note_on,60,36,0
2,note_on,60,0,120
2,note_on,55,36,0
2,note_on,55,0,120
2,note_on,48,38,0
2,note_on,48,0,120
2,note_on,55,34,0
2,note_on,55,0,120
2,note_on,60,34,0
2,note_on,60,0,120
2,note_on,55,34,0
2,note_on,55,0,120
2,note_on,53,43,0
2,note_on,53,0,120
2,note_on,56,38,0
2,note_on,56,0,120
2,note_on,60,38,0
2,note_on,60,0,120
2,note_on,56,38,0
2,note_on,56,0,120
2,note_on,53,43,0
2,note_on,53,0,120
2,note_on,56,38,0
2,note_on,56,0,120
2,note_on,60,38,0
2,note_on,60,0,120
2,note_on,56,38,0
2,note_on,56,0,120
2,note_on,54,43,0
2,note_on,54,0,120
2,note_on,57,45,0
2,note_on,57,0,120
2,note_on,60,48,0
2,note_on,60,0,120
2,note_on,57,45,0
2,note_on,57,0,120
2,note_on,54,43,0
2,note_on,54,0,120
2,note_on,57,39,0
2,note_on,57,0,120
2,note_on,60,39,0
2,note_on,60,0,120
2,note_on,57,39,0
2,note_on,57,0,120
2,note_on,55,39,0
2,note_on,55,0,228
2,note_on,55,41,12
2,note_on,55,0,228
2,note_on,57,45,12
2,note_on,55,45,0
2,note_on,55,0,228
2,note_on,57,0,0
2,note_on,59,46,12
2,note_on,55,46,0
2,note_on,55,0,228
2,note_on,59,0,0
2,note_on,60,50,12
2,note_on,55,50,0
2,note_on,55,0,228
2,note_on,60,0,0
2,note_on,67,48,12
2,note_on,55,48,0
2,note_on,55,0,228
2,note_on,67,0,0
2,note_on,65,46,12
2,note_on,55,46,0
2,note_on,55,0,228
2,note_on,65,0,0
2,note_on,63,44,12
2,note_on,55,44,0
2,note_on,55,0,228
2,note_on,63,0,0
2,note_on,62,45,12
2,note_on,55,45,0
2,note_on,55,0,228
2,note_on,62,0,0
2,note_on,59,48,12
2,note_on,55,48,0
2,note_on,55,0,228
2,note_on,59,0,0
2,note_on,57,51,12
2,note_on,55,51,0
2,note_on,55,0,228
2,note_on,57,0,0
2,note_on,59,54,12
2,note_on,55,54,0
2,note_on,55,0,228
2,note_on,59,0,0
2,note_on,60,57,12
2,note_on,55,57,0
2,note_on,55,0,228
2,note_on,60,0,0
2,note_on,67,61,12
2,note_on,55,61,0
2,note_on,55,0,228
2,note_on,67,0,0
2,note_on,65,64,12
2,note_on,55,64,0
2,note_on,55,0,228
2,note_on,65,0,0
2,note_on,63,67,12
2,note_on,54,67,0
2,note_on,54,0,228
2,note_on,63,0,0
2,note_on,55,71,12
2,note_on,62,71,0
2,note_on,62,0,240
2,note_on,55,0,0
2,note_on,62,38,720
2,note_on,55,38,0
2,note_on,55,0,240
2,note_on,62,0,0
2,note_on,61,38,120
2,note_on,61,0,120
2,note_on,62,38,0
2,note_on,55,38,0
2,note_on,55,0,240
2,note_on,62,0,0
2,note_on,61,38,120
2,note_on,61,0,120
2,note_on,62,38,0
2,note_on,55,38,0
2,note_on,55,0,240
2,note_on,62,0,0
2,note_on,61,40,120
2,note_on,61,0,120
2,note_on,55,45,0
2,note_on,62,45,0
2,note_on,62,0,120
2,note_on,61,49,0
2,note_on,61,0,120
2,note_on,55,0,0
2,note_on,55,54,0
2,note_on,62,54,0
2,note_on,62,0,120
2,note_on,61,59,0
2,note_on,61,0,120
2,note_on,55,0,0
2,note_on,62,63,0
2,note_on,55,63,0
2,note_on,55,0,480
2,note_on,62,0,0
2,note_on,57,54,120
2,note_on,57,0,60
2,note_on,59,54,60
2,note_on,59,0,60
2,note_on,60,54,60
2,note_on,60,0,60
2,note_on,62,52,60
2,note_on,62,0,60
2,note_on,60,55,60
2,note_on,60,0,60
2,note_on,59,59,60
2,note_on,59,0,60
2,note_on,60,62,60
2,note_on,60,0,60
2,note_on,62,65,60
2,note_on,62,0,60
2,note_on,61,67,60
2,note_on,61,0,60
2,note_on,62,71,60
2,note_on,62,0,60
2,note_on,63,73,60
2,note_on,63,0,60
2,note_on,64,50,60
2,note_on,64,0,120
2,note_on,60,45,0
2,note_on,60,0,120
2,note_on,64,51,0
2,note_on,64,0,120
2,note_on,60,45,0
2,note_on,60,0,120
2,note_on,64,51,0
2,note_on,64,0,120
2,note_on,60,40,0
2,note_on,60,0,120
2,note_on,64,45,0
2,note_on,64,0,120
2,note_on,60,43,0
2,note_on,60,0,120
2,note_on,64,51,0
2,note_on,64,0,120
2,note_on,60,45,0
2,note_on,60,0,120
2,note_on,64,51,0
2,note_on,64,0,120
2,note_on,60,40,0
2,note_on,60,0,120
2,note_on,64,46,0
2,note_on,64,0,120
2,note_on,60,31,0
2,note_on,60,0,120
2,note_on,64,35,0
2,note_on,64,0,120
2,note_on,60,31,0
2,note_on,60,0,120
2,note_on,64,51,0
2,note_on,64,0,120
2,note_on,60,36,0
2,note_on,60,0,120
2,note_on,64,43,0
2,note_on,64,0,120
2,note_on,60,36,0
2,note_on,60,0,120
2,note_on,64,43,0
2,note_on,64,0,120
2,note_on,60,36,0
2,note_on,60,0,120
2,note_on,65,40,0
2,note_on,65,0,120
2,note_on,60,36,0
2,note_on,60,0,120
2,note_on,64,38,0
2,note_on,64,0,120
2,note_on,60,34,0
2,note_on,60,0,120
2,note_on,64,39,0
2,note_on,64,0,120
2,note_on,60,33,0
2,note_on,60,0,120
2,note_on,64,38,0
2,note_on,64,0,120
2,note_on,60,30,0
2,note_on,60,0,120
2,note_on,64,33,0
2,note_on,64,0,120
2,note_on,60,29,0
2,note_on,60,0,120
2,note_on,65,34,0
2,note_on,65,0,120
2,note_on,60,29,0
2,note_on,60,0,120
2,note_on,65,34,0
2,note_on,65,0,120
2,note_on,60,30,0
2,note_on,60,0,120
2,note_on,65,34,0
2,note_on,65,0,120
2,note_on,60,30,0
2,note_on,60,0,120
2,note_on,65,34,0
2,note_on,65,0,120
2,note_on,60,30,0
2,note_on,60,0,120
2,note_on,64,36,0
2,note_on,64,0,120
2,note_on,60,32,0
2,note_on,60,0,120
2,note_on,64,36,0
2,note_on,64,0,120
2,note_on,60,30,0
2,note_on,60,0,120
2,note_on,64,36,0
2,note_on,64,0,120
2,note_on,60,30,0
2,note_on,60,0,120
2,note_on,64,36,0
2,note_on,64,0,120
2,note_on,60,30,0
2,note_on,60,0,120
2,note_on,64,57,0
2,note_on,60,57,0
2,note_on,60,0,120
2,note_on,55,50,0
2,note_on,55,0,120
2,note_on,64,0,0
2,note_on,64,57,0
2,note_on,60,57,0
2,note_on,60,0,120
2,note_on,55,50,0
2,note_on,55,0,120
2,note_on,64,0,0
2,note_on,62,54,0
2,note_on,59,54,0
2,note_on,59,0,120
2,note_on,55,46,0
2,note_on,55,0,120
2,note_on,62,0,0
2,note_on,62,51,0
2,note_on,59,51,0
2,note_on,59,0,120
2,note_on,55,44,0
2,note_on,55,0,120
2,note_on,62,0,0
2,note_on,60,48,0
2,note_on,60,0,120
2,note_on,48,45,0
2,note_on,48,0,120
2,note_on,52,48,0
2,note_on,52,0,120
2,note_on,55,45,0
2,note_on,55,0,120
2,note_on,60,57,0
2,note_on,60,0,120
2,note_on,64,48,0
2,note_on,64,0,120
2,note_on,67,52,0
2,note_on,67,0,120
2,note_on,64,48,0
2,note_on,64,0,120
2,note_on,65,37,0
2,note_on,65,0,120
2,note_on,60,28,0
2,note_on,60,0,120
2,note_on,65,37,0
2,note_on,65,0,120
2,note_on,60,29,0
2,note_on,60,0,120
2,note_on,65,37,0
2,note_on,65,0,120
2,note_on,60,27,0
2,note_on,60,0,120
2,note_on,65,32,0
2,note_on,65,0,120
2,note_on,60,29,0
2,note_on,60,0,120
2,note_on,64,37,0
2,note_on,64,0,120
2,note_on,60,29,0
2,note_on,60,0,120
2,note_on,64,37,0
2,note_on,64,0,120
2,note_on,60,28,0
2,note_on,60,0,120
2,note_on,64,37,0
2,note_on,64,0,120
2,note_on,60,27,0
2,note_on,60,0,120
2,note_on,64,33,0
2,note_on,64,0,120
2,note_on,60,29,0
2,note_on,60,0,120
2,note_on,64,51,0
2,note_on,60,51,0
2,note_on,60,0,120
2,note_on,55,45,0
2,note_on,55,0,120
2,note_on,64,0,0
2,note_on,64,51,0
2,note_on,60,51,0
2,note_on,60,0,120
2,note_on,55,45,0
2,note_on,55,0,120
2,note_on,64,0,0
2,note_on,65,51,0
2,note_on,62,51,0
2,note_on,62,0,120
2,note_on,55,43,0
2,note_on,55,0,120
2,note_on,65,0,0
2,note_on,65,48,0
2,note_on,62,48,0
2,note_on,62,0,120
2,note_on,55,45,0
2,note_on,55,0,120
2,note_on,65,0,0
2,note_on,64,56,0
2,note_on,60,56,0
2,note_on,60,0,480
2,note_on,64,0,0
2,note_on,64,46,480
2,note_on,55,46,0
2,note_on,55,0,240
2,note_on,64,0,0
2,note_on,62,40,0
2,note_on,55,40,0
2,note_on,55,0,240
2,note_on,62,0,0
2,note_on,60,46,0
2,note_on,55,46,0
2,note_on,55,0,240
2,note_on,60,0,0
2,note_on,59,42,0
2,note_on,55,42,0
2,note_on,55,0,240
2,note_on,59,0,0
2,note_on,60,58,0
2,note_on,60,0,480
2,note_on,64,46,480
2,note_on,55,46,0
2,note_on,55,0,240
2,note_on,64,0,0
2,note_on,62,42,0
2,note_on,55,42,0
2,note_on,55,0,240
2,note_on,62,0,0
2,note_on,60,45,0
2,note_on,55,45,0
2,note_on,55,0,240
2,note_on,60,0,0
2,note_on,59,45,0
2,note_on,55,45,0
2,note_on,55,0,240
2,note_on,59,0,0
2,note_on,48,62,0
2,note_on,48,0,60
2,note_on,60,68,60
2,note_on,60,0,120
2,note_on,59,59,0
2,note_on,59,0,120
2,note_on,58,59,0
2,note_on,58,0,120
2,note_on,57,63,0
2,note_on,57,0,60
2,note_on,57,67,60
2,note_on,57,0,120
2,note_on,55,61,0
2,note_on,55,0,120
2,note_on,53,61,0
2,note_on,53,0,120
2,note_on,52,60,0
2,note_on,52,0,120
2,note_on,48,60,120
2,note_on,48,0,120
2,note_on,60,51,360
2,note_on,48,51,0
2,note_on,48,0,240
2,note_on,60,0,0
2,note_on,64,51,0
2,note_on,55,51,0
2,note_on,64,0,360
2,note_on,60,54,0
2,note_on,60,0,120
2,note_on,55,0,0
2,note_on,59,54,0
2,note_on,43,71,120
2,note_on,43,0,120
2,note_on,59,0,0
2,note_on,47,72,0
2,note_on,47,0,120
2,note_on,50,69,0
2,note_on,50,0,120
2,note_on,55,45,0
2,note_on,55,0,120
2,note_on,59,42,0
2,note_on,59,0,120
2,note_on,62,40,0
2,note_on,62,0,120
2,note_on,55,45,120
2,note_on,55,0,120
2,note_on,59,43,0
2,note_on,59,0,120
2,note_on,62,41,0
2,note_on,62,0,120
2,note_on,55,44,120
2,note_on,55,0,120
2,note_on,60,40,0
2,note_on,60,0,120
2,note_on,64,43,0
2,note_on,64,0,120
2,note_on,60,41,0
2,note_on,60,0,120
2,note_on,55,44,0
2,note_on,55,0,120
2,note_on,60,40,0
2,note_on,60,0,120
2,note_on,64,43,0
2,note_on,64,0,120
2,note_on,60,40,0
2,note_on,60,0,120
2,note_on,54,57,0
2,note_on,54,0,120
2,note_on,57,51,0
2,note_on,57,0,120
2,note_on,60,54,0
2,note_on,60,0,120
2,note_on,54,57,120
2,note_on,54,0,120
2,note_on,57,51,0
2,note_on,57,0,120
2,note_on,60,54,0
2,note_on,60,0,120
2,note_on,53,57,120
2,note_on,53,0,120
2,note_on,57,52,0
2,note_on,57,0,120
2,note_on,59,57,0
2,note_on,59,0,120
2,note_on,62,52,0
2,note_on,62,0,120
2,note_on,65,62,0
2,note_on,65,0,240
2,note_on,64,43,0
2,note_on,64,0,120
2,note_on,62,45,0
2,note_on,62,0,120
2,note_on,60,44,0
2,note_on,60,0,120
2,note_on,64,39,0
2,note_on,64,0,120
2,note_on,67,41,0
2,note_on,67,0,120
2,note_on,60,44,120
2,note_on,60,0,120
2,note_on,64,39,0
2,note_on,64,0,120
2,note_on,67,41,0
2,note_on,67,0,120
2,note_on,60,43,120
2,note_on,60,0,120
2,note_on,65,37,0
2,note_on,65,0,120
2,note_on,69,40,0
2,note_on,69,0,120
2,note_on,65,38,0
2,note_on,65,0,120
2,note_on,60,45,0
2,note_on,60,0,120
2,note_on,65,39,0
2,note_on,65,0,120
2,note_on,69,41,0
2,note_on,69,0,120
2,note_on,65,40,0
2,note_on,65,0,120
2,note_on,59,62,0
2,note_on,62,62,0
2,note_on,65,62,0
2,note_on,67,62,0
2,note_on,67,0,960
2,note_on,59,0,0
2,note_on,62,0,0
2,note_on,65,0,0
2,note_on,60,61,0
2,note_on,60,0,80
2,note_on,64,57,0
2,note_on,64,0,80
2,note_on,72,53,0
2,note_on,72,0,80
2,note_on,62,61,0
2,note_on,62,0,80
2,note_on,65,57,0
2,note_on,65,0,80
2,note_on,72,53,0
2,note_on,72,0,80
2,note_on,64,61,0
2,note_on,64,0,80
2,note_on,67,57,0
2,note_on,67,0,80
2,note_on,72,53,0
2,note_on,72,0,80
2,note_on,60,61,0
2,note_on,60,0,80
2,note_on,64,48,0
2,note_on,64,0,80
2,note_on,72,48,0
2,note_on,72,0,80
2,note_on,65,43,0
2,note_on,65,0,80
2,note_on,69,40,0
2,note_on,69,0,80
2,note_on,72,38,0
2,note_on,72,0,80
2,note_on,65,43,0
2,note_on,65,0,80
2,note_on,69,40,0
2,note_on,69,0,80
2,note_on,72,39,0
2,note_on,72,0,80
2,note_on,65,43,0
2,note_on,65,0,80
2,note_on,69,41,0
2,note_on,69,0,80
2,note_on,72,40,0
2,note_on,72,0,80
2,note_on,65,43,0
2,note_on,65,0,80
2,note_on,69,41,0
2,note_on,69,0,80
2,note_on,72,40,0
2,note_on,72,0,80
2,note_on,60,57,0
2,note_on,60,0,80
2,note_on,64,55,0
2,note_on,64,0,80
2,note_on,72,50,0
2,note_on,72,0,80
2,note_on,62,57,0
2,note_on,62,0,80
2,note_on,65,54,0
2,note_on,65,0,80
2,note_on,72,51,0
2,note_on,72,0,80
2,note_on,64,57,0
2,note_on,64,0,80
2,note_on,67,54,0
2,note_on,67,0,80
2,note_on,72,51,0
2,note_on,72,0,80
2,note_on,60,57,0
2,note_on,60,0,80
2,note_on,64,54,0
2,note_on,64,0,80
2,note_on,72,49,0
2,note_on,72,0,80
2,note_on,65,38,0
2,note_on,65,0,80
2,note_on,69,36,0
2,note_on,69,0,80
2,note_on,72,36,0
2,note_on,72,0,80
2,note_on,65,38,0
2,note_on,65,0,80
2,note_on,69,36,0
2,note_on,69,0,80
2,note_on,72,36,0
2,note_on,72,0,80
2,note_on,65,43,0
2,note_on,65,0,80
2,note_on,69,39,0
2,note_on,69,0,80
2,note_on,72,39,0
2,note_on,72,0,80
2,note_on,65,43,0
2,note_on,65,0,80
2,note_on,69,40,0
2,note_on,69,0,80
2,note_on,72,40,0
2,note_on,72,0,80
2,note_on,60,64,0
2,note_on,60,0,120
2,note_on,53,64,360
2,note_on,53,0,120
2,note_on,55,60,360
2,note_on,55,0,120
2,note_on,59,59,120
2,note_on,62,59,0
2,note_on,56,59,0
2,note_on,56,0,480
2,note_on,62,0,0
2,note_on,59,0,0
2,note_on,57,51,0
2,note_on,60,51,0
2,note_on,60,0,240
2,note_on,57,0,0
2,note_on,53,43,0
2,note_on,57,43,0
2,note_on,57,0,240
2,note_on,53,0,0
2,note_on,55,44,960
2,note_on,64,44,0
2,note_on,64,0,240
2,note_on,65,44,0
2,note_on,65,0,480
2,note_on,55,0,0
2,note_on,64,46,0
2,note_on,60,46,0
2,note_on,60,0,120
2,note_on,64,0,120
2,note_on,48,44,0
2,note_on,48,0,120
2,note_on,67,43,1800
2,note_on,59,43,0
2,note_on,59,0,240
2,note_on,60,43,0
2,note_on,60,0,240
2,note_on,67,0,0
2,note_on,53,43,240
2,note_on,60,43,0
2,note_on,60,0,480
2,note_on,53,0,0
2,note_on,54,40,240
2,note_on,57,40,0
2,note_on,57,0,240
2,note_on,54,0,0
2,note_on,60,43,0
2,note_on,55,43,0
2,note_on,60,0,240
2,note_on,59,40,0
2,note_on,59,0,240
2,note_on,55,0,0
2,note_on,67,77,0
2,note_on,67,0,180
2,note_on,69,68,0
2,note_on,69,0,30
2,note_on,71,63,0
2,note_on,71,0,30
2,note_on,72,69,0
2,note_on,72,0,120
2,note_on,71,56,0
2,note_on,71,0,60
2,note_on,69,56,60
2,note_on,69,0,60
2,note_on,67,52,60
2,note_on,67,0,60
2,note_on,65,56,60
2,note_on,65,0,60
2,note_on,64,52,60
2,note_on,64,0,60
2,note_on,62,57,60
2,note_on,62,0,120
2,note_on,64,62,120
2,note_on,64,0,120
2,note_on,65,67,120
2,note_on,65,0,120
2,note_on,66,69,120
2,note_on,66,0,120
2,note_on,67,70,120
2,note_on,67,0,120
2,note_on,68,72,120
2,note_on,68,0,120
2,note_on,69,77,120
2,note_on,69,0,240
2,note_on,53,48,0
2,note_on,62,48,0
2,note_on,62,0,240
2,note_on,53,0,0
2,note_on,55,48,0
2,note_on,64,48,0
2,note_on,64,0,240
2,note_on,65,48,0
2,note_on,65,0,240
2,note_on,55,0,0
2,note_on,60,60,0
2,note_on,60,0,120
2,note_on,64,52,0
2,note_on,64,0,120
2,note_on,67,57,0
2,note_on,67,0,120
2,note_on,64,53,0
2,note_on,64,0,120
2,note_on,60,60,0
2,note_on,60,0,120
2,note_on,65,53,0
2,note_on,65,0,120
2,note_on,69,57,0
2,note_on,69,0,120
2,note_on,65,51,0
2,note_on,65,0,120
2,note_on,60,60,0
2,note_on,60,0,120
2,note_on,64,47,0
2,note_on,64,0,120
2,note_on,67,54,0
2,note_on,67,0,120
2,note_on,64,49,0
2,note_on,64,0,120
2,note_on,60,60,0
2,note_on,60,0,120
2,note_on,65,53,0
2,note_on,65,0,120
2,note_on,69,57,0
2,note_on,69,0,120
2,note_on,65,52,0
2,note_on,65,0,120
2,note_on,67,58,0
2,note_on,64,58,0
2,note_on,60,58,0
2,note_on,60,0,240
2,note_on,64,0,0
2,note_on,67,0,0
2,note_on,67,46,0
2,note_on,65,46,0
2,note_on,65,0,240
2,note_on,64,44,0
2,note_on,64,0,240
2,note_on,67,0,0
2,note_on,67,43,0
2,note_on,65,43,0
2,note_on,65,0,240
2,note_on,64,45,0
2,note_on,64,0,240
2,note_on,67,0,0
2,note_on,65,52,0
2,note_on,67,52,0
2,note_on,67,0,120
2,note_on,65,0,0
2,note_on,65,52,0
2,note_on,67,54,0
2,note_on,67,0,120
2,note_on,65,0,0
2,note_on,64,52,0
2,note_on,67,57,0
2,note_on,67,0,120
2,note_on,64,0,0
2,note_on,64,52,0
2,note_on,67,60,0
2,note_on,67,0,120
2,note_on,64,0,0
2,note_on,59,52,0
2,note_on,67,62,0
2,note_on,67,0,120
2,note_on,59,0,0
2,note_on,59,52,0
2,note_on,67,65,0
2,note_on,67,0,120
2,note_on,59,0,0
2,note_on,60,67,0
2,note_on,67,67,0
2,note_on,67,0,240
2,note_on,60,0,0
2,note_on,53,44,960
2,note_on,57,44,0
2,note_on,62,44,0
2,note_on,62,0,240
2,note_on,57,0,0
2,note_on,53,0,0
2,note_on,55,44,0
2,note_on,64,44,0
2,note_on,60,44,0
2,note_on,60,0,240
2,note_on,64,0,0
2,note_on,62,43,0
2,note_on,65,43,0
2,note_on,65,0,240
2,note_on,62,0,0
2,note_on,55,0,0
2,note_on,60,60,0
2,note_on,60,0,120
2,note_on,64,52,0
2,note_on,64,0,120
2,note_on,67,57,0
2,note_on,67,0,120
2,note_on,64,52,0
2,note_on,64,0,120
2,note_on,60,60,0
2,note_on,60,0,120
2,note_on,65,53,0
2,note_on,65,0,120
2,note_on,69,57,0
2,note_on,69,0,120
2,note_on,65,57,0
2,note_on,65,0,120
2,note_on,60,60,0
2,note_on,60,0,120
2,note_on,64,52,0
2,note_on,64,0,120
2,note_on,67,57,0
2,note_on,67,0,120
2,note_on,64,51,0
2,note_on,64,0,120
2,note_on,60,60,0
2,note_on,60,0,120
2,note_on,65,53,0
2,note_on,65,0,120
2,note_on,69,57,0
2,note_on,69,0,120
2,note_on,65,51,0
2,note_on,65,0,120
2,note_on,67,60,0
2,note_on,64,60,0
2,note_on,60,60,0
2,note_on,60,0,240
2,note_on,64,0,0
2,note_on,67,0,0
2,note_on,67,46,0
2,note_on,65,46,0
2,note_on,65,0,240
2,note_on,64,44,0
2,note_on,64,0,240
2,note_on,67,0,0
2,note_on,67,42,0
2,note_on,65,42,0
2,note_on,65,0,240
2,note_on,64,45,0
2,note_on,64,0,240
2,note_on,67,0,0
2,note_on,65,52,0
2,note_on,67,52,0
2,note_on,67,0,114
2,note_on,65,0,0
2,note_on,65,52,6
2,note_on,67,54,0
2,note_on,67,0,114
2,note_on,65,0,0
2,note_on,64,52,6
2,note_on,67,57,0
2,note_on,67,0,114
2,note_on,64,0,0
2,note_on,64,52,6
2,note_on,67,60,0
2,note_on,67,0,114
2,note_on,64,0,0
2,note_on,59,52,6
2,note_on,67,62,0
2,note_on,67,0,114
2,note_on,59,0,0
2,note_on,59,52,6
2,note_on,67,65,0
2,note_on,67,0,114
2,note_on,59,0,0
2,note_on,60,67,6
2,note_on,67,67,0
2,note_on,67,0,240
2,note_on,60,0,0
2,note_on,53,44,960
2,note_on,57,44,0
2,note_on,62,44,0
2,note_on,62,0,240
2,note_on,57,0,0
2,note_on,53,0,0
2,note_on,55,44,0
2,note_on,64,44,0
2,note_on,60,44,0
2,note_on,60,0,240
2,note_on,64,0,0
2,note_on,62,41,0
2,note_on,65,41,0
2,note_on,65,0,240
2,note_on,62,0,0
2,note_on,55,0,0
2,note_on,60,78,0
2,note_on,60,0,180
2,note_on,55,71,0
2,note_on,55,0,60
2,note_on,64,76,0
2,note_on,64,0,180
2,note_on,60,68,0
2,note_on,60,0,60
2,note_on,67,74,0
2,note_on,67,0,120
2,note_on,55,41,360
2,note_on,60,41,0
2,note_on,64,41,0
2,note_on,64,0,120
2,note_on,60,0,0
2,note_on,55,0,0
2,note_on,55,41,360
2,note_on,65,41,0
2,note_on,59,41,0
2,note_on,59,0,120
2,note_on,65,0,0
2,note_on,55,0,0
2,note_on,60,70,360
2,note_on,60,0,60
2,note_on,55,65,0
2,note_on,55,0,60
2,note_on,60,70,0
2,note_on,60,0,60
2,note_on,55,65,0
2,note_on,55,0,60
2,note_on,64,70,0
2,note_on,64,0,60
2,note_on,60,64,0
2,note_on,60,0,60
2,note_on,64,71,0
2,note_on,64,0,60
2,note_on,60,65,0
2,note_on,60,0,60
2,note_on,67,71,0
2,note_on,67,0,120
2,note_on,55,45,360
2,note_on,64,45,0
2,note_on,60,45,0
2,note_on,60,0,120
2,note_on,64,0,0
2,note_on,55,0,0
2,note_on,59,45,360
2,note_on,55,45,0
2,note_on,65,45,0
2,note_on,65,0,120
2,note_on,55,0,0
2,note_on,59,0,0
2,note_on,64,51,360
2,note_on,64,0,120
2,note_on,60,41,0
2,note_on,60,0,120
2,note_on,64,51,0
2,note_on,64,0,120
2,note_on,60,41,0
2,note_on,60,0,120
2,note_on,65,51,0
2,note_on,65,0,120
2,note_on,60,41,0
2,note_on,60,0,120
2,note_on,67,51,0
2,note_on,67,0,120
2,note_on,60,41,0
2,note_on,60,0,120
2,note_on,69,51,0
2,note_on,69,0,120
2,note_on,60,43,0
2,note_on,60,0,120
2,note_on,70,51,0
2,note_on,70,0,120
2,note_on,60,43,0
2,note_on,60,0,120
2,note_on,69,51,0
2,note_on,69,0,120
2,note_on,60,43,0
2,note_on,60,0,120
2,note_on,67,51,0
2,note_on,67,0,120
2,note_on,60,43,0
2,note_on,60,0,120
2,note_on,65,51,0
2,note_on,65,0,120
2,note_on,60,43,0
2,note_on,60,0,120
2,note_on,64,51,0
2,note_on,64,0,120
2,note_on,60,35,0
2,note_on,60,0,120
2,note_on,65,40,0
2,note_on,65,0,120
2,note_on,60,37,0
2,note_on,60,0,120
2,note_on,62,40,0
2,note_on,62,0,120
2,note_on,60,36,0
2,note_on,60,0,120
2,note_on,64,39,0
2,note_on,64,0,120
2,note_on,60,36,0
2,note_on,60,0,120
2,note_on,65,40,0
2,note_on,65,0,120
2,note_on,60,34,0
2,note_on,60,0,120
2,note_on,64,40,0
2,note_on,64,0,120
2,note_on,60,38,0
2,note_on,60,0,120
2,note_on,65,41,0
2,note_on,65,0,120
2,note_on,60,34,0
2,note_on,60,0,120
2,note_on,64,41,0
2,note_on,64,0,120
2,note_on,60,37,0
2,note_on,60,0,120
2,note_on,65,40,0
2,note_on,65,0,120
2,note_on,60,33,0
2,note_on,60,0,120
2,note_on,64,41,0
2,note_on,64,0,120
2,note_on,60,37,0
2,note_on,60,0,120
2,note_on,65,41,0
2,note_on,65,0,120
2,note_on,60,35,0
2,note_on,60,0,120
2,note_on,48,33,0
2,note_on,60,39,0
2,note_on,60,0,720
2,note_on,48,0,0
