Track,Message Type,Note,Velocity,Time
1,note_on,73,50,0
1,note_on,73,0,360
1,note_on,74,43,0
1,note_on,74,0,120
1,note_on,73,43,0
1,note_on,73,0,240
1,note_on,76,48,0
1,note_on,76,0,480
1,note_on,76,42,0
1,note_on,76,0,216
1,note_on,71,50,0
1,note_on,71,0,360
1,note_on,73,45,0
1,note_on,73,0,120
1,note_on,71,45,0
1,note_on,71,0,240
1,note_on,74,49,0
1,note_on,74,0,480
1,note_on,74,45,0
1,note_on,74,0,216
1,note_on,69,53,24
1,note_on,69,0,480
1,note_on,69,46,0
1,note_on,69,0,240
1,note_on,71,50,0
1,note_on,71,0,480
1,note_on,71,46,0
1,note_on,71,0,240
1,note_on,73,53,0
1,note_on,73,0,480
1,note_on,71,35,0
1,note_on,76,49,0
1,note_on,76,0,120
1,note_on,74,47,0
1,note_on,74,0,120
1,note_on,71,0,0
1,note_on,73,53,0
1,note_on,69,45,0
1,note_on,69,0,480
1,note_on,73,0,0
1,note_on,71,49,0
1,note_on,68,41,0
1,note_on,68,0,216
1,note_on,71,0,0
1,note_on,73,50,0
1,note_on,73,0,360
1,note_on,74,43,0
1,note_on,74,0,120
1,note_on,73,43,0
1,note_on,73,0,240
1,note_on,76,48,0
1,note_on,76,0,480
1,note_on,76,42,0
1,note_on,76,0,216
1,note_on,71,50,0
1,note_on,71,0,360
1,note_on,73,45,0
1,note_on,73,0,120
1,note_on,71,45,0
1,note_on,71,0,240
1,note_on,74,49,0
1,note_on,74,0,480
1,note_on,74,45,0
1,note_on,74,0,216
1,note_on,69,55,24
1,note_on,69,0,480
1,note_on,71,63,0
1,note_on,71,0,240
1,note_on,73,68,0
1,note_on,73,0,480
1,note_on,71,56,0
1,note_on,74,67,0
1,note_on,66,56,0
1,note_on,66,0,240
1,note_on,74,0,0
1,note_on,71,0,0
1,note_on,64,47,0
1,note_on,73,56,0
1,note_on,69,47,0
1,note_on,69,0,480
1,note_on,73,0,0
1,note_on,64,0,0
1,note_on,68,34,0
1,note_on,62,34,0
1,note_on,71,40,0
1,note_on,64,34,0
1,note_on,64,0,240
1,note_on,68,0,0
1,note_on,62,0,0
1,note_on,71,0,0
1,note_on,69,38,0
1,note_on,64,32,0
1,note_on,61,32,0
1,note_on,61,0,480
1,note_on,64,0,0
1,note_on,69,0,0
1,note_on,73,42,240
1,note_on,73,0,360
1,note_on,74,36,0
1,note_on,74,0,120
1,note_on,73,36,0
1,note_on,73,0,240
1,note_on,76,40,0
1,note_on,76,0,480
1,note_on,76,35,0
1,note_on,76,0,216
1,note_on,71,42,0
1,note_on,71,0,360
1,note_on,73,38,0
1,note_on,73,0,120
1,note_on,71,38,0
1,note_on,71,0,240
1,note_on,74,41,0
1,note_on,74,0,480
1,note_on,74,38,0
1,note_on,74,0,216
1,note_on,69,45,24
1,note_on,69,0,480
1,note_on,69,39,0
1,note_on,69,0,240
1,note_on,71,42,0
1,note_on,71,0,480
1,note_on,71,39,0
1,note_on,71,0,240
1,note_on,73,45,0
1,note_on,73,0,480
1,note_on,71,29,0
1,note_on,76,41,0
1,note_on,76,0,120
1,note_on,74,39,0
1,note_on,74,0,120
1,note_on,71,0,0
1,note_on,73,45,0
1,note_on,69,38,0
1,note_on,69,0,480
1,note_on,73,0,0
1,note_on,71,41,0
1,note_on,68,34,0
1,note_on,68,0,216
1,note_on,71,0,0
1,note_on,73,50,24
1,note_on,73,0,360
1,note_on,74,43,0
1,note_on,74,0,120
1,note_on,73,43,0
1,note_on,73,0,240
1,note_on,76,48,0
1,note_on,76,0,480
1,note_on,76,42,0
1,note_on,76,0,216
1,note_on,71,50,0
1,note_on,71,0,360
1,note_on,73,45,0
1,note_on,73,0,120
1,note_on,71,45,0
1,note_on,71,0,240
1,note_on,74,49,0
1,note_on,74,0,480
1,note_on,74,45,0
1,note_on,74,0,216
1,note_on,69,55,24
1,note_on,69,0,480
1,note_on,71,63,0
1,note_on,71,0,240
1,note_on,73,68,0
1,note_on,73,0,480
1,note_on,66,56,0
1,note_on,74,67,0
1,note_on,71,56,0
1,note_on,71,0,240
1,note_on,74,0,0
1,note_on,66,0,0
1,note_on,73,56,0
1,note_on,64,47,0
1,note_on,69,47,0
1,note_on,69,0,480
1,note_on,64,0,0
1,note_on,73,0,0
1,note_on,64,34,0
1,note_on,68,34,0
1,note_on,62,34,0
1,note_on,71,40,0
1,note_on,71,0,240
1,note_on,64,0,0
1,note_on,68,0,0
1,note_on,62,0,0
1,note_on,69,38,0
1,note_on,64,32,0
1,note_on,61,32,0
1,note_on,61,0,480
1,note_on,64,0,0
1,note_on,69,0,0
1,note_on,76,50,0
1,note_on,76,0,360
1,note_on,78,45,0
1,note_on,78,0,120
1,note_on,76,46,0
1,note_on,76,0,240
1,note_on,78,53,0
1,note_on,78,0,480
1,note_on,78,42,0
1,note_on,78,0,150
1,note_on,78,49,30
1,note_on,78,0,30
1,note_on,80,53,0
1,note_on,80,0,30
1,note_on,81,57,0
1,note_on,81,0,360
1,note_on,80,47,0
1,note_on,80,0,120
1,note_on,78,50,0
1,note_on,78,0,240
1,note_on,78,53,0
1,note_on,78,0,240
1,note_on,76,45,0
1,note_on,76,0,240
1,note_on,76,42,0
1,note_on,76,0,120
1,note_on,76,59,120
1,note_on,76,0,240
1,note_on,73,50,0
1,note_on,73,0,240
1,note_on,69,49,0
1,note_on,69,0,60
1,note_on,76,61,180
1,note_on,76,0,240
1,note_on,74,53,0
1,note_on,74,0,240
1,note_on,71,48,0
1,note_on,71,0,60
1,note_on,76,62,180
1,note_on,76,0,240
1,note_on,73,51,0
1,note_on,73,0,240
1,note_on,69,45,0
1,note_on,69,0,220
1,note_on,69,44,20
1,note_on,73,44,0
1,note_on,73,0,480
1,note_on,69,0,0
1,note_on,68,37,0
1,note_on,71,37,0
1,note_on,71,0,216
1,note_on,68,0,0
1,note_on,73,50,24
1,note_on,73,0,360
1,note_on,74,43,0
1,note_on,74,0,120
1,note_on,73,43,0
1,note_on,73,0,240
1,note_on,76,48,0
1,note_on,76,0,480
1,note_on,76,42,0
1,note_on,76,0,216
1,note_on,71,50,0
1,note_on,71,0,360
1,note_on,73,45,0
1,note_on,73,0,120
1,note_on,71,45,0
1,note_on,71,0,240
1,note_on,74,49,0
1,note_on,74,0,480
1,note_on,74,45,0
1,note_on,74,0,216
1,note_on,69,55,24
1,note_on,69,0,480
1,note_on,71,63,0
1,note_on,71,0,240
1,note_on,73,68,0
1,note_on,73,0,480
1,note_on,71,56,0
1,note_on,66,56,0
1,note_on,74,67,0
1,note_on,74,0,240
1,note_on,66,0,0
1,note_on,71,0,0
1,note_on,64,47,0
1,note_on,73,56,0
1,note_on,69,47,0
1,note_on,69,0,480
1,note_on,73,0,0
1,note_on,64,0,0
1,note_on,68,42,0
1,note_on,71,50,0
1,note_on,64,42,0
1,note_on,64,0,240
1,note_on,71,0,0
1,note_on,68,0,0
1,note_on,71,47,0
1,note_on,64,40,0
1,note_on,68,40,0
1,note_on,68,0,480
1,note_on,71,0,0
1,note_on,73,47,0
1,note_on,69,47,0
1,note_on,69,0,240
1,note_on,73,0,0
1,note_on,64,0,0
1,note_on,73,75,0
1,note_on,69,63,0
1,note_on,64,63,0
1,note_on,64,0,480
1,note_on,69,0,0
1,note_on,73,0,0
1,note_on,74,75,0
1,note_on,68,63,0
1,note_on,64,63,0
1,note_on,64,0,240
1,note_on,68,0,0
1,note_on,74,0,0
1,note_on,64,68,0
1,note_on,76,80,0
1,note_on,69,68,0
1,note_on,69,0,480
1,note_on,76,0,0
1,note_on,64,0,0
1,note_on,78,56,0
1,note_on,78,0,120
1,note_on,80,44,0
1,note_on,80,0,60
1,note_on,81,46,0
1,note_on,81,0,60
1,note_on,69,53,0
1,note_on,69,0,480
1,note_on,68,34,0
1,note_on,73,41,0
1,note_on,73,0,120
1,note_on,71,39,0
1,note_on,71,0,120
1,note_on,68,0,0
1,note_on,69,39,0
1,note_on,69,0,480
1,note_on,76,50,0
1,note_on,76,0,360
1,note_on,78,45,0
1,note_on,78,0,120
1,note_on,76,46,0
1,note_on,76,0,240
1,note_on,78,53,0
1,note_on,78,0,480
1,note_on,78,42,0
1,note_on,78,0,150
1,note_on,78,49,30
1,note_on,78,0,30
1,note_on,80,53,0
1,note_on,80,0,30
1,note_on,81,57,0
1,note_on,81,0,360
1,note_on,80,47,0
1,note_on,80,0,120
1,note_on,78,50,0
1,note_on,78,0,240
1,note_on,78,53,0
1,note_on,78,0,240
1,note_on,76,45,0
1,note_on,76,0,240
1,note_on,76,42,0
1,note_on,76,0,120
1,note_on,76,59,120
1,note_on,76,0,240
1,note_on,73,50,0
1,note_on,73,0,240
1,note_on,69,49,0
1,note_on,69,0,60
1,note_on,76,61,180
1,note_on,76,0,240
1,note_on,74,53,0
1,note_on,74,0,240
1,note_on,71,48,0
1,note_on,71,0,60
1,note_on,76,62,180
1,note_on,76,0,240
1,note_on,73,51,0
1,note_on,73,0,240
1,note_on,69,45,0
1,note_on,69,0,220
1,note_on,69,44,20
1,note_on,73,44,0
1,note_on,73,0,480
1,note_on,69,0,0
1,note_on,71,37,0
1,note_on,68,37,0
1,note_on,68,0,216
1,note_on,71,0,0
1,note_on,73,42,0
1,note_on,73,0,360
1,note_on,74,36,0
1,note_on,74,0,120
1,note_on,73,36,0
1,note_on,73,0,240
1,note_on,76,40,0
1,note_on,76,0,480
1,note_on,76,35,0
1,note_on,76,0,216
1,note_on,71,42,24
1,note_on,71,0,360
1,note_on,73,38,0
1,note_on,73,0,120
1,note_on,71,38,0
1,note_on,71,0,240
1,note_on,74,41,0
1,note_on,74,0,480
1,note_on,74,38,0
1,note_on,74,0,216
1,note_on,69,55,24
1,note_on,69,0,480
1,note_on,71,63,0
1,note_on,71,0,240
1,note_on,73,68,0
1,note_on,73,0,480
1,note_on,74,67,0
1,note_on,71,56,0
1,note_on,66,56,0
1,note_on,66,0,240
1,note_on,71,0,0
1,note_on,74,0,0
1,note_on,69,54,0
1,note_on,73,64,0
1,note_on,64,54,0
1,note_on,64,0,480
1,note_on,73,0,0
1,note_on,69,0,0
1,note_on,68,48,0
1,note_on,64,48,0
1,note_on,71,57,0
1,note_on,71,0,240
1,note_on,64,0,0
1,note_on,68,0,0
1,note_on,71,61,0
1,note_on,68,51,0
1,note_on,64,46,0
1,note_on,68,0,480
1,note_on,71,0,0
1,note_on,73,54,0
1,note_on,69,54,0
1,note_on,69,0,240
1,note_on,73,0,0
1,note_on,64,0,0
1,note_on,64,63,0
1,note_on,73,75,0
1,note_on,69,63,0
1,note_on,69,0,480
1,note_on,73,0,0
1,note_on,64,0,0
1,note_on,74,75,0
1,note_on,64,63,0
1,note_on,68,63,0
1,note_on,68,0,240
1,note_on,64,0,0
1,note_on,74,0,0
1,note_on,64,68,0
1,note_on,69,68,0
1,note_on,76,80,0
1,note_on,76,0,480
1,note_on,69,0,0
1,note_on,64,0,0
1,note_on,78,56,0
1,note_on,78,0,120
1,note_on,80,44,0
1,note_on,80,0,60
1,note_on,81,46,0
1,note_on,81,0,60
1,note_on,69,51,0
1,note_on,69,0,480
1,note_on,68,30,0
1,note_on,73,36,0
1,note_on,73,0,120
1,note_on,71,35,0
1,note_on,71,0,120
1,note_on,68,0,0
1,note_on,69,35,0
1,note_on,69,0,480
1,note_on,72,50,1680
1,note_on,72,0,120
1,note_on,73,46,0
1,note_on,73,0,96
1,note_on,73,45,144
1,note_on,73,0,120
1,note_on,72,45,0
1,note_on,72,0,120
1,note_on,73,46,0
1,note_on,73,0,120
1,note_on,75,50,0
1,note_on,75,0,120
1,note_on,76,46,0
1,note_on,76,0,96
1,note_on,76,47,144
1,note_on,76,0,120
1,note_on,78,50,0
1,note_on,78,0,120
1,note_on,76,48,0
1,note_on,76,0,120
1,note_on,76,50,0
1,note_on,76,0,120
1,note_on,71,47,0
1,note_on,71,0,96
1,note_on,71,48,144
1,note_on,71,0,120
1,note_on,70,49,0
1,note_on,70,0,120
1,note_on,71,50,0
1,note_on,71,0,120
1,note_on,73,51,0
1,note_on,73,0,120
1,note_on,74,48,0
1,note_on,74,0,96
1,note_on,74,49,144
1,note_on,74,0,120
1,note_on,76,52,0
1,note_on,76,0,120
1,note_on,74,50,0
1,note_on,74,0,90
1,note_on,74,53,30
1,note_on,74,0,120
1,note_on,69,47,0
1,note_on,69,0,96
1,note_on,69,51,144
1,note_on,69,0,120
1,note_on,68,52,0
1,note_on,68,0,120
1,note_on,69,52,0
1,note_on,69,0,120
1,note_on,70,57,0
1,note_on,70,0,120
1,note_on,71,50,0
1,note_on,71,0,96
1,note_on,71,52,144
1,note_on,71,0,120
1,note_on,70,52,0
1,note_on,70,0,120
1,note_on,71,52,0
1,note_on,71,0,120
1,note_on,72,61,0
1,note_on,72,0,120
1,note_on,73,56,0
1,note_on,73,0,120
1,note_on,72,62,0
1,note_on,72,0,120
1,note_on,73,54,0
1,note_on,73,0,120
1,note_on,76,62,0
1,note_on,76,0,120
1,note_on,74,53,0
1,note_on,74,0,120
1,note_on,73,56,0
1,note_on,73,0,120
1,note_on,71,58,0
1,note_on,71,0,120
1,note_on,69,61,0
1,note_on,69,0,120
1,note_on,68,64,0
1,note_on,68,0,120
1,note_on,66,66,0
1,note_on,66,0,120
1,note_on,64,69,0
1,note_on,64,0,120
1,note_on,73,77,0
1,note_on,69,64,0
1,note_on,64,64,0
1,note_on,64,0,480
1,note_on,69,0,0
1,note_on,73,0,0
1,note_on,74,77,0
1,note_on,71,64,0
1,note_on,71,0,240
1,note_on,74,0,0
1,note_on,75,82,0
1,note_on,72,69,0
1,note_on,72,0,240
1,note_on,75,0,0
1,note_on,73,66,0
1,note_on,76,78,0
1,note_on,76,0,240
1,note_on,73,0,0
1,note_on,73,77,120
1,note_on,69,64,0
1,note_on,69,0,120
1,note_on,73,0,0
1,note_on,64,69,0
1,note_on,71,82,0
1,note_on,68,69,0
1,note_on,68,0,240
1,note_on,71,0,0
1,note_on,64,0,0
1,note_on,71,77,0
1,note_on,64,64,0
1,note_on,68,64,0
1,note_on,68,0,240
1,note_on,64,0,0
1,note_on,71,0,0
1,note_on,69,68,0
1,note_on,73,80,0
1,note_on,64,68,0
1,note_on,64,0,240
1,note_on,73,0,0
1,note_on,69,0,0
1,note_on,70,69,0
1,note_on,73,82,0
1,note_on,64,69,0
1,note_on,73,0,240
1,note_on,70,0,0
1,note_on,71,68,0
1,note_on,74,80,0
1,note_on,74,0,240
1,note_on,71,0,0
1,note_on,64,0,0
1,note_on,68,59,120
1,note_on,71,70,0
1,note_on,71,0,120
1,note_on,68,0,0
1,note_on,69,76,0
1,note_on,69,0,120
1,note_on,69,70,120
1,note_on,69,0,120
1,note_on,71,70,120
1,note_on,71,0,40
1,note_on,73,68,0
1,note_on,73,0,40
1,note_on,71,68,0
1,note_on,71,0,40
1,note_on,69,70,0
1,note_on,69,0,60
1,note_on,71,70,0
1,note_on,71,0,60
1,note_on,73,77,0
1,note_on,73,0,120
1,note_on,73,70,120
1,note_on,73,0,120
1,note_on,71,62,120
1,note_on,66,62,0
1,note_on,74,73,0
1,note_on,74,0,240
1,note_on,66,0,0
1,note_on,71,0,0
1,note_on,69,64,0
1,note_on,64,64,0
1,note_on,73,76,0
1,note_on,73,0,240
1,note_on,64,0,0
1,note_on,69,0,0
1,note_on,69,62,0
1,note_on,73,74,0
1,note_on,64,62,0
1,note_on,64,0,240
1,note_on,73,0,0
1,note_on,69,0,0
1,note_on,71,72,0
1,note_on,62,61,0
1,note_on,68,61,0
1,note_on,64,61,0
1,note_on,64,0,240
1,note_on,71,0,0
1,note_on,62,0,0
1,note_on,68,0,0
1,note_on,69,76,0
1,note_on,61,64,0
1,note_on,64,64,0
1,note_on,64,0,240
1,note_on,61,0,0
1,note_on,69,0,0
1,note_on,72,50,480
1,note_on,72,0,120
1,note_on,73,46,0
1,note_on,73,0,96
1,note_on,73,45,144
1,note_on,73,0,120
1,note_on,72,45,0
1,note_on,72,0,120
1,note_on,73,46,0
1,note_on,73,0,120
1,note_on,75,50,0
1,note_on,75,0,120
1,note_on,76,46,0
1,note_on,76,0,96
1,note_on,76,47,144
1,note_on,76,0,120
1,note_on,78,50,0
1,note_on,78,0,120
1,note_on,76,48,0
1,note_on,76,0,120
1,note_on,76,50,0
1,note_on,76,0,120
1,note_on,71,47,0
1,note_on,71,0,96
1,note_on,71,48,144
1,note_on,71,0,120
1,note_on,70,49,0
1,note_on,70,0,120
1,note_on,71,50,0
1,note_on,71,0,120
1,note_on,73,51,0
1,note_on,73,0,120
1,note_on,74,48,0
1,note_on,74,0,96
1,note_on,74,49,144
1,note_on,74,0,120
1,note_on,76,52,0
1,note_on,76,0,120
1,note_on,74,50,0
1,note_on,74,0,90
1,note_on,74,53,30
1,note_on,74,0,120
1,note_on,69,47,0
1,note_on,69,0,96
1,note_on,69,51,144
1,note_on,69,0,120
1,note_on,68,52,0
1,note_on,68,0,120
1,note_on,69,52,0
1,note_on,69,0,120
1,note_on,70,57,0
1,note_on,70,0,120
1,note_on,71,50,0
1,note_on,71,0,96
1,note_on,71,52,144
1,note_on,71,0,120
1,note_on,70,52,0
1,note_on,70,0,120
1,note_on,71,52,0
1,note_on,71,0,120
1,note_on,72,61,0
1,note_on,72,0,120
1,note_on,73,56,0
1,note_on,73,0,120
1,note_on,72,62,0
1,note_on,72,0,120
1,note_on,73,54,0
1,note_on,73,0,120
1,note_on,76,62,0
1,note_on,76,0,120
1,note_on,74,53,0
1,note_on,74,0,120
1,note_on,73,56,0
1,note_on,73,0,120
1,note_on,71,58,0
1,note_on,71,0,120
1,note_on,69,61,0
1,note_on,69,0,120
1,note_on,68,64,0
1,note_on,68,0,120
1,note_on,66,66,0
1,note_on,66,0,120
1,note_on,64,69,0
1,note_on,64,0,120
1,note_on,64,64,0
1,note_on,73,77,0
1,note_on,69,64,0
1,note_on,69,0,480
1,note_on,73,0,0
1,note_on,64,0,0
1,note_on,71,64,0
1,note_on,74,77,0
1,note_on,74,0,240
1,note_on,71,0,0
1,note_on,75,82,0
1,note_on,72,69,0
1,note_on,72,0,240
1,note_on,75,0,0
1,note_on,73,66,0
1,note_on,76,78,0
1,note_on,76,0,240
1,note_on,73,0,0
1,note_on,69,64,120
1,note_on,73,77,0
1,note_on,73,0,120
1,note_on,69,0,0
1,note_on,68,69,0
1,note_on,71,82,0
1,note_on,64,69,0
1,note_on,64,0,240
1,note_on,71,0,0
1,note_on,68,0,0
1,note_on,71,77,0
1,note_on,64,64,0
1,note_on,68,64,0
1,note_on,68,0,240
1,note_on,64,0,0
1,note_on,71,0,0
1,note_on,64,68,0
1,note_on,69,68,0
1,note_on,73,80,0
1,note_on,73,0,240
1,note_on,69,0,0
1,note_on,64,0,0
1,note_on,64,69,0
1,note_on,73,82,0
1,note_on,70,69,0
1,note_on,70,0,240
1,note_on,73,0,0
1,note_on,74,80,0
1,note_on,71,68,0
1,note_on,71,0,240
1,note_on,74,0,0
1,note_on,64,0,0
1,note_on,68,59,120
1,note_on,71,70,0
1,note_on,71,0,120
1,note_on,68,0,0
1,note_on,69,76,0
1,note_on,69,0,120
1,note_on,69,70,120
1,note_on,69,0,120
1,note_on,71,70,120
1,note_on,71,0,40
1,note_on,73,68,0
1,note_on,73,0,40
1,note_on,71,68,0
1,note_on,71,0,40
1,note_on,69,70,0
1,note_on,69,0,60
1,note_on,71,70,0
1,note_on,71,0,60
1,note_on,73,77,0
1,note_on,73,0,120
1,note_on,73,70,120
1,note_on,73,0,120
1,note_on,74,73,120
1,note_on,71,62,0
1,note_on,66,62,0
1,note_on,66,0,240
1,note_on,71,0,0
1,note_on,74,0,0
1,note_on,73,76,0
1,note_on,69,64,0
1,note_on,64,64,0
1,note_on,64,0,240
1,note_on,69,0,0
1,note_on,73,0,0
1,note_on,64,62,0
1,note_on,73,74,0
1,note_on,69,62,0
1,note_on,69,0,240
1,note_on,73,0,0
1,note_on,64,0,0
1,note_on,62,61,0
1,note_on,64,61,0
1,note_on,68,61,0
1,note_on,71,72,0
1,note_on,71,0,240
1,note_on,62,0,0
1,note_on,64,0,0
1,note_on,68,0,0
1,note_on,61,64,0
1,note_on,64,64,0
1,note_on,69,76,0
1,note_on,69,0,240
1,note_on,64,0,0
1,note_on,61,0,0
1,note_on,75,50,480
1,note_on,75,0,120
1,note_on,76,46,0
1,note_on,76,0,96
1,note_on,76,45,144
1,note_on,76,0,120
1,note_on,75,45,0
1,note_on,75,0,120
1,note_on,76,46,0
1,note_on,76,0,120
1,note_on,77,50,0
1,note_on,77,0,120
1,note_on,78,46,0
1,note_on,78,0,96
1,note_on,78,47,144
1,note_on,78,0,120
1,note_on,77,50,0
1,note_on,77,0,120
1,note_on,78,48,0
1,note_on,78,0,120
1,note_on,80,55,0
1,note_on,80,0,120
1,note_on,81,47,0
1,note_on,81,0,96
1,note_on,79,55,24
1,note_on,79,0,120
1,note_on,80,48,0
1,note_on,80,0,96
1,note_on,77,55,24
1,note_on,77,0,120
1,note_on,78,47,0
1,note_on,78,0,96
1,note_on,75,55,24
1,note_on,75,0,120
1,note_on,76,46,0
1,note_on,76,0,96
1,note_on,76,55,144
1,note_on,76,0,108
1,note_on,76,57,12
1,note_on,76,0,108
1,note_on,76,58,12
1,note_on,76,0,108
1,note_on,76,72,12
1,note_on,76,0,120
1,note_on,73,64,0
1,note_on,73,0,120
1,note_on,69,59,0
1,note_on,69,0,120
1,note_on,76,57,0
1,note_on,76,0,108
1,note_on,76,59,12
1,note_on,76,0,108
1,note_on,76,61,12
1,note_on,76,0,108
1,note_on,76,70,12
1,note_on,76,0,120
1,note_on,74,62,0
1,note_on,74,0,120
1,note_on,68,58,0
1,note_on,68,0,120
1,note_on,76,59,0
1,note_on,76,0,108
1,note_on,76,62,12
1,note_on,76,0,108
1,note_on,76,64,12
1,note_on,76,0,108
1,note_on,76,69,12
1,note_on,76,0,120
1,note_on,73,63,0
1,note_on,73,0,120
1,note_on,69,48,0
1,note_on,69,0,120
1,note_on,76,52,0
1,note_on,76,0,120
1,note_on,73,51,0
1,note_on,73,0,120
1,note_on,69,49,0
1,note_on,69,0,120
1,note_on,73,51,0
1,note_on,69,43,0
1,note_on,69,0,480
1,note_on,73,0,0
1,note_on,71,47,0
1,note_on,68,39,0
1,note_on,68,0,240
1,note_on,71,0,0
1,note_on,72,50,0
1,note_on,72,0,120
1,note_on,73,46,0
1,note_on,73,0,96
1,note_on,73,45,144
1,note_on,73,0,120
1,note_on,72,45,0
1,note_on,72,0,120
1,note_on,73,46,0
1,note_on,73,0,120
1,note_on,75,50,0
1,note_on,75,0,120
1,note_on,76,46,0
1,note_on,76,0,96
1,note_on,76,47,144
1,note_on,76,0,120
1,note_on,78,50,0
1,note_on,78,0,120
1,note_on,76,48,0
1,note_on,76,0,90
1,note_on,76,50,30
1,note_on,76,0,120
1,note_on,71,47,0
1,note_on,71,0,96
1,note_on,71,48,144
1,note_on,71,0,120
1,note_on,70,49,0
1,note_on,70,0,120
1,note_on,71,50,0
1,note_on,71,0,120
1,note_on,73,51,0
1,note_on,73,0,120
1,note_on,74,48,0
1,note_on,74,0,96
1,note_on,74,49,144
1,note_on,74,0,120
1,note_on,76,52,0
1,note_on,76,0,120
1,note_on,74,50,0
1,note_on,74,0,90
1,note_on,74,53,30
1,note_on,74,0,120
1,note_on,69,47,0
1,note_on,69,0,96
1,note_on,69,51,144
1,note_on,69,0,120
1,note_on,73,52,0
1,note_on,73,0,120
1,note_on,71,52,0
1,note_on,71,0,120
1,note_on,74,57,0
1,note_on,74,0,120
1,note_on,73,50,0
1,note_on,73,0,96
1,note_on,73,52,144
1,note_on,73,0,120
1,note_on,76,57,0
1,note_on,76,0,120
1,note_on,74,54,0
1,note_on,74,0,120
1,note_on,72,60,0
1,note_on,72,0,120
1,note_on,73,54,0
1,note_on,73,0,96
1,note_on,73,55,144
1,note_on,73,0,120
1,note_on,74,59,0
1,note_on,74,0,120
1,note_on,71,54,0
1,note_on,71,0,120
1,note_on,71,60,0
1,note_on,68,48,0
1,note_on,71,0,360
1,note_on,72,59,0
1,note_on,72,0,120
1,note_on,68,0,0
1,note_on,69,51,0
1,note_on,73,64,0
1,note_on,73,0,240
1,note_on,69,0,0
1,note_on,73,76,0
1,note_on,69,64,0
1,note_on,64,64,0
1,note_on,64,0,180
1,note_on,69,0,0
1,note_on,73,0,0
1,note_on,73,76,60
1,note_on,69,64,0
1,note_on,64,64,0
1,note_on,64,0,180
1,note_on,69,0,0
1,note_on,73,0,0
1,note_on,64,60,60
1,note_on,74,71,0
1,note_on,68,60,0
1,note_on,68,0,180
1,note_on,74,0,0
1,note_on,64,0,0
1,note_on,64,63,60
1,note_on,69,63,0
1,note_on,76,75,0
1,note_on,76,0,180
1,note_on,69,0,0
1,note_on,64,0,0
1,note_on,76,68,60
1,note_on,69,57,0
1,note_on,69,0,180
1,note_on,76,0,0
1,note_on,78,72,60
1,note_on,69,61,0
1,note_on,69,0,120
1,note_on,78,0,0
1,note_on,80,68,0
1,note_on,80,0,60
1,note_on,81,68,0
1,note_on,81,0,60
1,note_on,69,76,0
1,note_on,61,64,0
1,note_on,64,64,0
1,note_on,64,0,240
1,note_on,61,0,0
1,note_on,69,0,0
1,note_on,64,62,0
1,note_on,61,62,0
1,note_on,69,74,0
1,note_on,69,0,240
1,note_on,61,0,0
1,note_on,64,0,0
1,note_on,64,61,0
1,note_on,68,61,0
1,note_on,71,72,0
1,note_on,62,61,0
1,note_on,62,0,240
1,note_on,64,0,0
1,note_on,68,0,0
1,note_on,71,0,0
1,note_on,64,64,0
1,note_on,69,76,0
1,note_on,61,64,0
1,note_on,61,0,240
1,note_on,69,0,0
1,note_on,64,0,0
1,note_on,75,50,480
1,note_on,75,0,120
1,note_on,76,46,0
1,note_on,76,0,96
1,note_on,76,45,144
1,note_on,76,0,120
1,note_on,75,45,0
1,note_on,75,0,120
1,note_on,76,46,0
1,note_on,76,0,120
1,note_on,77,50,0
1,note_on,77,0,120
1,note_on,78,46,0
1,note_on,78,0,96
1,note_on,78,47,144
1,note_on,78,0,120
1,note_on,77,50,0
1,note_on,77,0,120
1,note_on,78,48,0
1,note_on,78,0,120
1,note_on,80,55,0
1,note_on,80,0,120
1,note_on,81,47,0
1,note_on,81,0,96
1,note_on,79,55,24
1,note_on,79,0,120
1,note_on,80,48,0
1,note_on,80,0,96
1,note_on,77,55,24
1,note_on,77,0,120
1,note_on,78,47,0
1,note_on,78,0,96
1,note_on,75,55,24
1,note_on,75,0,120
1,note_on,76,46,0
1,note_on,76,0,96
1,note_on,76,55,144
1,note_on,76,0,108
1,note_on,76,57,12
1,note_on,76,0,108
1,note_on,76,58,12
1,note_on,76,0,108
1,note_on,76,72,12
1,note_on,76,0,120
1,note_on,73,64,0
1,note_on,73,0,120
1,note_on,69,59,0
1,note_on,69,0,120
1,note_on,76,57,0
1,note_on,76,0,108
1,note_on,76,59,12
1,note_on,76,0,108
1,note_on,76,61,12
1,note_on,76,0,108
1,note_on,76,70,12
1,note_on,76,0,120
1,note_on,74,62,0
1,note_on,74,0,120
1,note_on,68,58,0
1,note_on,68,0,120
1,note_on,76,59,0
1,note_on,76,0,108
1,note_on,76,62,12
1,note_on,76,0,108
1,note_on,76,64,12
1,note_on,76,0,108
1,note_on,76,69,12
1,note_on,76,0,120
1,note_on,73,63,0
1,note_on,73,0,120
1,note_on,69,48,0
1,note_on,69,0,120
1,note_on,76,52,0
1,note_on,76,0,120
1,note_on,73,51,0
1,note_on,73,0,120
1,note_on,69,49,0
1,note_on,69,0,120
1,note_on,73,51,0
1,note_on,69,43,0
1,note_on,69,0,480
1,note_on,73,0,0
1,note_on,71,47,0
1,note_on,68,39,0
1,note_on,68,0,240
1,note_on,71,0,0
1,note_on,72,50,0
1,note_on,72,0,120
1,note_on,73,46,0
1,note_on,73,0,96
1,note_on,73,45,144
1,note_on,73,0,120
1,note_on,72,45,0
1,note_on,72,0,120
1,note_on,73,46,0
1,note_on,73,0,120
1,note_on,75,50,0
1,note_on,75,0,120
1,note_on,76,46,0
1,note_on,76,0,96
1,note_on,76,47,144
1,note_on,76,0,120
1,note_on,78,50,0
1,note_on,78,0,120
1,note_on,76,48,0
1,note_on,76,0,90
1,note_on,76,50,30
1,note_on,76,0,120
1,note_on,71,47,0
1,note_on,71,0,96
1,note_on,71,48,144
1,note_on,71,0,120
1,note_on,70,49,0
1,note_on,70,0,120
1,note_on,71,50,0
1,note_on,71,0,120
1,note_on,73,51,0
1,note_on,73,0,120
1,note_on,74,48,0
1,note_on,74,0,96
1,note_on,74,49,144
1,note_on,74,0,120
1,note_on,76,52,0
1,note_on,76,0,120
1,note_on,74,50,0
1,note_on,74,0,90
1,note_on,74,53,30
1,note_on,74,0,120
1,note_on,69,47,0
1,note_on,69,0,96
1,note_on,69,51,144
1,note_on,69,0,120
1,note_on,73,52,0
1,note_on,73,0,120
1,note_on,71,52,0
1,note_on,71,0,120
1,note_on,74,57,0
1,note_on,74,0,120
1,note_on,73,50,0
1,note_on,73,0,96
1,note_on,73,52,144
1,note_on,73,0,120
1,note_on,76,57,0
1,note_on,76,0,120
1,note_on,74,54,0
1,note_on,74,0,120
1,note_on,72,60,0
1,note_on,72,0,120
1,note_on,73,54,0
1,note_on,73,0,96
1,note_on,73,55,144
1,note_on,73,0,120
1,note_on,74,59,0
1,note_on,74,0,120
1,note_on,71,54,0
1,note_on,71,0,120
1,note_on,71,60,0
1,note_on,68,48,0
1,note_on,71,0,360
1,note_on,72,59,0
1,note_on,72,0,120
1,note_on,68,0,0
1,note_on,69,51,0
1,note_on,73,64,0
1,note_on,73,0,240
1,note_on,69,0,0
1,note_on,73,76,0
1,note_on,64,64,0
1,note_on,69,64,0
1,note_on,69,0,180
1,note_on,64,0,0
1,note_on,73,0,0
1,note_on,69,64,60
1,note_on,64,64,0
1,note_on,73,76,0
1,note_on,73,0,180
1,note_on,64,0,0
1,note_on,69,0,0
1,note_on,74,71,60
1,note_on,64,60,0
1,note_on,68,60,0
1,note_on,68,0,180
1,note_on,64,0,0
1,note_on,74,0,0
1,note_on,69,63,60
1,note_on,76,75,0
1,note_on,64,63,0
1,note_on,64,0,180
1,note_on,76,0,0
1,note_on,69,0,0
1,note_on,76,68,60
1,note_on,69,57,0
1,note_on,69,0,180
1,note_on,76,0,0
1,note_on,78,72,60
1,note_on,69,61,0
1,note_on,69,0,120
1,note_on,78,0,0
1,note_on,80,68,0
1,note_on,80,0,60
1,note_on,81,68,0
1,note_on,81,0,60
1,note_on,69,76,0
1,note_on,64,64,0
1,note_on,61,64,0
1,note_on,61,0,240
1,note_on,64,0,0
1,note_on,69,0,0
1,note_on,64,62,0
1,note_on,69,74,0
1,note_on,61,62,0
1,note_on,61,0,240
1,note_on,69,0,0
1,note_on,64,0,0
1,note_on,64,61,0
1,note_on,71,72,0
1,note_on,68,61,0
1,note_on,62,61,0
1,note_on,62,0,240
1,note_on,64,0,0
1,note_on,71,0,0
1,note_on,68,0,0
1,note_on,69,76,0
1,note_on,64,64,0
1,note_on,61,64,0
1,note_on,61,0,240
1,note_on,64,0,0
1,note_on,69,0,0
1,note_on,73,53,1920
1,note_on,73,0,60
1,note_on,73,49,180
1,note_on,73,0,60
1,note_on,74,49,180
1,note_on,74,0,40
1,note_on,76,47,0
1,note_on,76,0,40
1,note_on,74,47,0
1,note_on,74,0,40
1,note_on,73,49,0
1,note_on,73,0,60
1,note_on,74,49,0
1,note_on,74,0,60
1,note_on,76,53,0
1,note_on,76,0,240
1,note_on,78,53,240
1,note_on,76,52,60
1,note_on,78,0,6
1,note_on,74,51,54
1,note_on,76,0,6
1,note_on,73,49,54
1,note_on,74,0,6
1,note_on,71,53,54
1,note_on,73,0,6
1,note_on,71,0,54
1,note_on,71,49,180
1,note_on,71,0,60
1,note_on,73,49,180
1,note_on,73,0,40
1,note_on,74,47,0
1,note_on,74,0,40
1,note_on,73,47,0
1,note_on,73,0,40
1,note_on,71,49,0
1,note_on,71,0,60
1,note_on,73,49,0
1,note_on,73,0,60
1,note_on,74,53,0
1,note_on,74,0,240
1,note_on,76,53,240
1,note_on,74,52,60
1,note_on,76,0,6
1,note_on,73,51,54
1,note_on,74,0,6
1,note_on,71,49,54
1,note_on,73,0,6
1,note_on,69,53,54
1,note_on,71,0,6
1,note_on,69,0,54
1,note_on,69,49,180
1,note_on,69,0,60
1,note_on,69,49,180
1,note_on,69,0,40
1,note_on,71,47,0
1,note_on,71,0,40
1,note_on,69,47,0
1,note_on,69,0,40
1,note_on,68,49,0
1,note_on,68,0,60
1,note_on,69,49,0
1,note_on,69,0,60
1,note_on,71,53,0
1,note_on,71,0,60
1,note_on,71,49,180
1,note_on,71,0,60
1,note_on,71,49,180
1,note_on,71,0,40
1,note_on,73,47,0
1,note_on,73,0,40
1,note_on,71,47,0
1,note_on,71,0,40
1,note_on,69,49,0
1,note_on,69,0,60
1,note_on,71,49,0
1,note_on,71,0,60
1,note_on,73,58,0
1,note_on,73,0,60
1,note_on,73,54,180
1,note_on,73,0,60
1,note_on,71,61,180
1,note_on,76,61,0
1,note_on,76,0,60
1,note_on,74,51,0
1,note_on,74,0,180
1,note_on,71,0,0
1,note_on,69,55,0
1,note_on,73,55,0
1,note_on,73,0,480
1,note_on,69,0,0
1,note_on,71,53,0
1,note_on,68,53,0
1,note_on,68,0,240
1,note_on,71,0,0
1,note_on,73,74,0
1,note_on,69,53,80
1,note_on,73,0,16
1,note_on,64,53,64
1,note_on,69,0,16
1,note_on,64,0,64
1,note_on,73,72,0
1,note_on,69,53,80
1,note_on,73,0,16
1,note_on,64,53,64
1,note_on,69,0,16
1,note_on,64,0,64
1,note_on,74,71,0
1,note_on,71,53,80
1,note_on,74,0,16
1,note_on,64,53,64
1,note_on,71,0,16
1,note_on,64,0,64
1,note_on,76,70,0
1,note_on,73,53,80
1,note_on,76,0,16
1,note_on,64,53,64
1,note_on,73,0,16
1,note_on,64,0,64
1,note_on,76,71,0
1,note_on,73,53,80
1,note_on,76,0,16
1,note_on,64,53,64
1,note_on,73,0,16
1,note_on,64,0,64
1,note_on,78,68,0
1,note_on,78,0,60
1,note_on,76,66,0
1,note_on,76,0,60
1,note_on,74,64,0
1,note_on,74,0,60
1,note_on,73,62,0
1,note_on,73,0,60
1,note_on,71,74,0
1,note_on,68,53,80
1,note_on,71,0,16
1,note_on,64,53,64
1,note_on,68,0,16
1,note_on,64,0,64
1,note_on,71,72,0
1,note_on,68,53,80
1,note_on,71,0,16
1,note_on,64,53,64
1,note_on,68,0,16
1,note_on,64,0,64
1,note_on,73,71,0
1,note_on,69,53,80
1,note_on,73,0,16
1,note_on,64,53,64
1,note_on,69,0,16
1,note_on,64,0,64
1,note_on,74,70,0
1,note_on,71,53,80
1,note_on,74,0,16
1,note_on,64,53,64
1,note_on,71,0,16
1,note_on,64,0,64
1,note_on,74,71,0
1,note_on,71,53,80
1,note_on,74,0,16
1,note_on,64,53,64
1,note_on,71,0,16
1,note_on,64,0,64
1,note_on,76,68,0
1,note_on,76,0,60
1,note_on,74,66,0
1,note_on,74,0,60
1,note_on,73,64,0
1,note_on,73,0,60
1,note_on,71,62,0
1,note_on,71,0,60
1,note_on,69,74,0
1,note_on,64,53,80
1,note_on,69,0,16
1,note_on,61,53,64
1,note_on,64,0,16
1,note_on,61,0,64
1,note_on,69,72,0
1,note_on,64,53,80
1,note_on,69,0,16
1,note_on,61,53,64
1,note_on,64,0,16
1,note_on,61,0,64
1,note_on,71,71,0
1,note_on,64,53,80
1,note_on,71,0,16
1,note_on,62,53,64
1,note_on,64,0,16
1,note_on,62,0,64
1,note_on,73,74,0
1,note_on,69,53,80
1,note_on,73,0,16
1,note_on,64,53,64
1,note_on,69,0,16
1,note_on,64,0,64
1,note_on,73,72,0
1,note_on,69,53,80
1,note_on,73,0,16
1,note_on,64,53,64
1,note_on,69,0,16
1,note_on,64,0,64
1,note_on,74,71,0
1,note_on,71,53,80
1,note_on,74,0,16
1,note_on,66,53,64
1,note_on,71,0,16
1,note_on,66,0,64
1,note_on,73,74,0
1,note_on,69,53,80
1,note_on,73,0,16
1,note_on,64,53,64
1,note_on,69,0,16
1,note_on,64,0,64
1,note_on,73,72,0
1,note_on,69,53,80
1,note_on,73,0,16
1,note_on,64,53,64
1,note_on,69,0,16
1,note_on,64,0,64
1,note_on,71,71,0
1,note_on,68,53,80
1,note_on,71,0,16
1,note_on,62,53,64
1,note_on,68,0,16
1,note_on,62,0,64
1,note_on,69,74,0
1,note_on,64,53,80
1,note_on,69,0,16
1,note_on,61,53,64
1,note_on,64,0,16
1,note_on,57,72,64
1,note_on,61,0,16
1,note_on,57,0,104
1,note_on,73,53,360
1,note_on,73,0,60
1,note_on,73,49,180
1,note_on,73,0,60
1,note_on,74,49,180
1,note_on,74,0,40
1,note_on,76,47,0
1,note_on,76,0,40
1,note_on,74,47,0
1,note_on,74,0,40
1,note_on,73,49,0
1,note_on,73,0,60
1,note_on,74,49,0
1,note_on,74,0,60
1,note_on,76,53,0
1,note_on,76,0,240
1,note_on,78,53,240
1,note_on,76,52,60
1,note_on,78,0,6
1,note_on,74,51,54
1,note_on,76,0,6
1,note_on,73,49,54
1,note_on,74,0,6
1,note_on,71,53,54
1,note_on,73,0,6
1,note_on,71,0,54
1,note_on,71,49,180
1,note_on,71,0,60
1,note_on,73,49,180
1,note_on,73,0,40
1,note_on,74,47,0
1,note_on,74,0,40
1,note_on,73,47,0
1,note_on,73,0,40
1,note_on,71,49,0
1,note_on,71,0,60
1,note_on,73,49,0
1,note_on,73,0,60
1,note_on,74,53,0
1,note_on,74,0,240
1,note_on,76,53,240
1,note_on,74,52,60
1,note_on,76,0,6
1,note_on,73,51,54
1,note_on,74,0,6
1,note_on,71,49,54
1,note_on,73,0,6
1,note_on,69,53,54
1,note_on,71,0,6
1,note_on,69,0,54
1,note_on,69,49,180
1,note_on,69,0,60
1,note_on,69,49,180
1,note_on,69,0,40
1,note_on,71,47,0
1,note_on,71,0,40
1,note_on,69,47,0
1,note_on,69,0,40
1,note_on,68,49,0
1,note_on,68,0,60
1,note_on,69,49,0
1,note_on,69,0,60
1,note_on,71,53,0
1,note_on,71,0,60
1,note_on,71,49,180
1,note_on,71,0,60
1,note_on,71,49,180
1,note_on,71,0,40
1,note_on,73,47,0
1,note_on,73,0,40
1,note_on,71,47,0
1,note_on,71,0,40
1,note_on,69,49,0
1,note_on,69,0,60
1,note_on,71,49,0
1,note_on,71,0,60
1,note_on,73,58,0
1,note_on,73,0,60
1,note_on,73,54,180
1,note_on,73,0,60
1,note_on,71,61,180
1,note_on,76,61,0
1,note_on,76,0,60
1,note_on,74,51,0
1,note_on,74,0,180
1,note_on,71,0,0
1,note_on,69,55,0
1,note_on,73,55,0
1,note_on,73,0,480
1,note_on,69,0,0
1,note_on,71,53,0
1,note_on,68,53,0
1,note_on,68,0,240
1,note_on,71,0,0
1,note_on,73,74,0
1,note_on,69,53,80
1,note_on,73,0,16
1,note_on,64,53,64
1,note_on,69,0,16
1,note_on,64,0,64
1,note_on,73,72,0
1,note_on,69,53,80
1,note_on,73,0,16
1,note_on,64,53,64
1,note_on,69,0,16
1,note_on,64,0,64
1,note_on,74,71,0
1,note_on,71,53,80
1,note_on,74,0,16
1,note_on,64,53,63
1,note_on,71,0,17
1,note_on,64,0,63
1,note_on,76,70,1
1,note_on,73,53,80
1,note_on,76,0,16
1,note_on,64,53,64
1,note_on,73,0,16
1,note_on,64,0,64
1,note_on,76,71,0
1,note_on,73,53,80
1,note_on,76,0,16
1,note_on,64,53,64
1,note_on,73,0,16
1,note_on,64,0,64
1,note_on,78,68,0
1,note_on,78,0,60
1,note_on,76,66,0
1,note_on,76,0,60
1,note_on,74,64,0
1,note_on,74,0,60
1,note_on,73,62,0
1,note_on,73,0,60
1,note_on,71,74,0
1,note_on,68,53,80
1,note_on,71,0,16
1,note_on,64,53,64
1,note_on,68,0,16
1,note_on,64,0,64
1,note_on,71,72,0
1,note_on,68,53,80
1,note_on,71,0,16
1,note_on,64,53,64
1,note_on,68,0,16
1,note_on,64,0,64
1,note_on,73,71,0
1,note_on,69,53,80
1,note_on,73,0,16
1,note_on,64,53,64
1,note_on,69,0,16
1,note_on,64,0,64
1,note_on,74,70,0
1,note_on,71,53,80
1,note_on,74,0,16
1,note_on,64,53,64
1,note_on,71,0,16
1,note_on,64,0,64
1,note_on,74,71,0
1,note_on,71,53,80
1,note_on,74,0,16
1,note_on,64,53,64
1,note_on,71,0,16
1,note_on,64,0,64
1,note_on,76,68,0
1,note_on,76,0,60
1,note_on,74,66,0
1,note_on,74,0,60
1,note_on,73,64,0
1,note_on,73,0,60
1,note_on,71,62,0
1,note_on,71,0,60
1,note_on,69,74,0
1,note_on,64,53,80
1,note_on,69,0,16
1,note_on,61,53,64
1,note_on,64,0,16
1,note_on,61,0,64
1,note_on,69,72,0
1,note_on,64,53,80
1,note_on,69,0,16
1,note_on,61,53,64
1,note_on,64,0,16
1,note_on,61,0,64
1,note_on,71,71,0
1,note_on,64,53,80
1,note_on,71,0,16
1,note_on,62,53,64
1,note_on,64,0,16
1,note_on,62,0,64
1,note_on,73,74,0
1,note_on,69,53,80
1,note_on,73,0,16
1,note_on,64,53,64
1,note_on,69,0,16
1,note_on,64,0,64
1,note_on,73,72,0
1,note_on,69,53,80
1,note_on,73,0,16
1,note_on,64,53,64
1,note_on,69,0,16
1,note_on,64,0,64
1,note_on,74,71,0
1,note_on,71,53,80
1,note_on,74,0,16
1,note_on,66,53,64
1,note_on,71,0,16
1,note_on,66,0,64
1,note_on,73,74,0
1,note_on,69,53,80
1,note_on,73,0,16
1,note_on,64,53,64
1,note_on,69,0,16
1,note_on,64,0,64
1,note_on,73,72,0
1,note_on,69,53,80
1,note_on,73,0,16
1,note_on,64,53,64
1,note_on,69,0,16
1,note_on,64,0,64
1,note_on,71,71,0
1,note_on,68,53,80
1,note_on,71,0,16
1,note_on,62,53,64
1,note_on,68,0,16
1,note_on,62,0,64
1,note_on,69,74,0
1,note_on,64,53,80
1,note_on,69,0,16
1,note_on,61,53,64
1,note_on,64,0,16
1,note_on,57,72,64
1,note_on,61,0,16
1,note_on,57,0,104
1,note_on,76,50,360
1,note_on,76,0,60
1,note_on,74,48,180
1,note_on,74,0,60
1,note_on,76,50,180
1,note_on,76,0,60
1,note_on,78,50,180
1,note_on,78,0,120
1,note_on,78,50,360
1,note_on,78,0,20
1,note_on,80,44,0
1,note_on,80,0,20
1,note_on,78,44,0
1,note_on,78,0,20
1,note_on,76,50,0
1,note_on,76,0,60
1,note_on,78,49,0
1,note_on,78,0,60
1,note_on,80,49,0
1,note_on,80,0,60
1,note_on,81,56,0
1,note_on,81,0,120
1,note_on,80,52,120
1,note_on,80,0,60
1,note_on,78,50,180
1,note_on,78,0,60
1,note_on,76,50,180
1,note_on,76,0,120
1,note_on,73,50,360
1,note_on,73,0,20
1,note_on,74,44,0
1,note_on,74,0,20
1,note_on,73,44,0
1,note_on,73,0,20
1,note_on,71,50,0
1,note_on,71,0,60
1,note_on,73,51,0
1,note_on,73,0,60
1,note_on,74,55,0
1,note_on,74,0,60
1,note_on,76,60,0
1,note_on,76,0,240
1,note_on,73,58,0
1,note_on,73,0,60
1,note_on,69,58,360
1,note_on,69,0,60
1,note_on,76,65,0
1,note_on,76,0,240
1,note_on,74,59,0
1,note_on,74,0,60
1,note_on,71,66,360
1,note_on,71,0,60
1,note_on,76,73,0
1,note_on,76,0,240
1,note_on,73,66,0
1,note_on,73,0,240
1,note_on,69,50,0
1,note_on,69,0,60
1,note_on,73,50,180
1,note_on,69,50,0
1,note_on,69,0,480
1,note_on,73,0,0
1,note_on,71,46,0
1,note_on,68,46,0
1,note_on,68,0,240
1,note_on,71,0,0
1,note_on,73,53,0
1,note_on,73,0,60
1,note_on,73,49,180
1,note_on,73,0,60
1,note_on,74,49,180
1,note_on,74,0,40
1,note_on,76,47,0
1,note_on,76,0,40
1,note_on,74,47,0
1,note_on,74,0,40
1,note_on,73,49,0
1,note_on,73,0,60
1,note_on,74,49,0
1,note_on,74,0,60
1,note_on,76,53,0
1,note_on,76,0,240
1,note_on,78,53,240
1,note_on,76,52,60
1,note_on,78,0,6
1,note_on,74,51,54
1,note_on,76,0,6
1,note_on,73,49,54
1,note_on,74,0,6
1,note_on,71,53,54
1,note_on,73,0,6
1,note_on,71,0,54
1,note_on,71,49,180
1,note_on,71,0,60
1,note_on,73,49,180
1,note_on,73,0,40
1,note_on,74,47,0
1,note_on,74,0,40
1,note_on,73,47,0
1,note_on,73,0,40
1,note_on,71,49,0
1,note_on,71,0,60
1,note_on,73,49,0
1,note_on,73,0,60
1,note_on,74,53,0
1,note_on,74,0,240
1,note_on,76,53,240
1,note_on,74,52,60
1,note_on,76,0,6
1,note_on,73,51,54
1,note_on,74,0,6
1,note_on,71,49,54
1,note_on,73,0,6
1,note_on,69,53,54
1,note_on,71,0,6
1,note_on,69,0,54
1,note_on,69,49,180
1,note_on,69,0,60
1,note_on,71,49,180
1,note_on,71,0,40
1,note_on,73,47,0
1,note_on,73,0,40
1,note_on,71,47,0
1,note_on,71,0,40
1,note_on,69,49,0
1,note_on,69,0,60
1,note_on,71,49,0
1,note_on,71,0,60
1,note_on,73,53,0
1,note_on,73,0,60
1,note_on,73,49,180
1,note_on,73,0,60
1,note_on,74,49,180
1,note_on,74,0,40
1,note_on,76,47,0
1,note_on,76,0,40
1,note_on,74,47,0
1,note_on,74,0,40
1,note_on,73,49,0
1,note_on,73,0,60
1,note_on,74,49,0
1,note_on,74,0,60
1,note_on,73,53,0
1,note_on,73,0,60
1,note_on,73,49,180
1,note_on,73,0,60
1,note_on,71,49,180
1,note_on,71,0,40
1,note_on,73,47,0
1,note_on,73,0,40
1,note_on,71,47,0
1,note_on,71,0,40
1,note_on,69,49,0
1,note_on,69,0,60
1,note_on,71,49,0
1,note_on,71,0,60
1,note_on,71,53,0
1,note_on,68,45,0
1,note_on,71,0,240
1,note_on,72,55,0
1,note_on,72,0,240
1,note_on,68,0,0
1,note_on,69,47,0
1,note_on,73,56,0
1,note_on,73,0,240
1,note_on,69,0,0
1,note_on,73,74,0
1,note_on,69,53,80
1,note_on,73,0,16
1,note_on,64,53,64
1,note_on,69,0,16
1,note_on,64,0,64
1,note_on,73,72,0
1,note_on,69,53,80
1,note_on,73,0,16
1,note_on,64,53,64
1,note_on,69,0,16
1,note_on,64,0,64
1,note_on,74,71,0
1,note_on,68,53,80
1,note_on,74,0,16
1,note_on,64,53,64
1,note_on,68,0,16
1,note_on,64,0,64
1,note_on,76,74,0
1,note_on,73,53,80
1,note_on,76,0,16
1,note_on,69,53,64
1,note_on,73,0,16
1,note_on,69,0,64
1,note_on,76,72,0
1,note_on,73,53,80
1,note_on,76,0,16
1,note_on,69,53,64
1,note_on,73,0,16
1,note_on,69,0,64
1,note_on,78,71,0
1,note_on,71,53,80
1,note_on,78,0,16
1,note_on,69,53,64
1,note_on,71,0,16
1,note_on,69,0,64
1,note_on,73,74,0
1,note_on,69,53,80
1,note_on,73,0,16
1,note_on,64,53,64
1,note_on,69,0,16
1,note_on,64,0,64
1,note_on,73,72,0
1,note_on,69,53,80
1,note_on,73,0,16
1,note_on,64,53,64
1,note_on,69,0,16
1,note_on,64,0,64
1,note_on,71,71,0
1,note_on,68,53,80
1,note_on,71,0,16
1,note_on,62,53,64
1,note_on,68,0,16
1,note_on,62,0,64
1,note_on,69,74,0
1,note_on,64,53,80
1,note_on,69,0,16
1,note_on,61,53,64
1,note_on,64,0,16
1,note_on,57,72,64
1,note_on,61,0,16
1,note_on,57,0,104
1,note_on,76,50,360
1,note_on,76,0,60
1,note_on,74,48,180
1,note_on,74,0,60
1,note_on,76,50,180
1,note_on,76,0,60
1,note_on,78,50,180
1,note_on,78,0,120
1,note_on,78,50,360
1,note_on,78,0,20
1,note_on,80,44,0
1,note_on,80,0,20
1,note_on,78,44,0
1,note_on,78,0,20
1,note_on,76,50,0
1,note_on,76,0,60
1,note_on,78,49,0
1,note_on,78,0,60
1,note_on,80,49,0
1,note_on,80,0,60
1,note_on,81,56,0
1,note_on,81,0,120
1,note_on,80,52,120
1,note_on,80,0,60
1,note_on,78,50,180
1,note_on,78,0,60
1,note_on,76,50,180
1,note_on,76,0,120
1,note_on,73,50,360
1,note_on,73,0,20
1,note_on,74,44,0
1,note_on,74,0,20
1,note_on,73,44,0
1,note_on,73,0,20
1,note_on,71,50,0
1,note_on,71,0,60
1,note_on,73,51,0
1,note_on,73,0,60
1,note_on,74,55,0
1,note_on,74,0,60
1,note_on,76,60,0
1,note_on,76,0,240
1,note_on,73,58,0
1,note_on,73,0,60
1,note_on,69,58,360
1,note_on,69,0,60
1,note_on,76,65,0
1,note_on,76,0,240
1,note_on,74,59,0
1,note_on,74,0,60
1,note_on,71,66,360
1,note_on,71,0,60
1,note_on,76,73,0
1,note_on,76,0,240
1,note_on,73,66,0
1,note_on,73,0,240
1,note_on,69,50,0
1,note_on,69,0,60
1,note_on,69,50,180
1,note_on,73,50,0
1,note_on,73,0,480
1,note_on,69,0,0
1,note_on,71,46,0
1,note_on,68,46,0
1,note_on,68,0,240
1,note_on,71,0,0
1,note_on,73,53,0
1,note_on,73,0,60
1,note_on,73,49,180
1,note_on,73,0,60
1,note_on,74,49,180
1,note_on,74,0,40
1,note_on,76,47,0
1,note_on,76,0,40
1,note_on,74,47,0
1,note_on,74,0,40
1,note_on,73,49,0
1,note_on,73,0,60
1,note_on,74,49,0
1,note_on,74,0,60
1,note_on,76,53,0
1,note_on,76,0,240
1,note_on,78,53,240
1,note_on,76,52,60
1,note_on,78,0,6
1,note_on,74,51,54
1,note_on,76,0,6
1,note_on,73,49,54
1,note_on,74,0,6
1,note_on,71,53,54
1,note_on,73,0,6
1,note_on,71,0,54
1,note_on,71,49,180
1,note_on,71,0,60
1,note_on,73,49,180
1,note_on,73,0,40
1,note_on,74,47,0
1,note_on,74,0,40
1,note_on,73,47,0
1,note_on,73,0,40
1,note_on,71,49,0
1,note_on,71,0,60
1,note_on,73,49,0
1,note_on,73,0,60
1,note_on,74,53,0
1,note_on,74,0,240
1,note_on,76,53,240
1,note_on,74,52,60
1,note_on,76,0,6
1,note_on,73,51,54
1,note_on,74,0,6
1,note_on,71,49,54
1,note_on,73,0,6
1,note_on,69,53,54
1,note_on,71,0,6
1,note_on,69,0,54
1,note_on,69,49,180
1,note_on,69,0,60
1,note_on,71,49,180
1,note_on,71,0,40
1,note_on,73,47,0
1,note_on,73,0,40
1,note_on,71,47,0
1,note_on,71,0,40
1,note_on,69,49,0
1,note_on,69,0,60
1,note_on,71,49,0
1,note_on,71,0,60
1,note_on,73,53,0
1,note_on,73,0,60
1,note_on,73,49,180
1,note_on,73,0,60
1,note_on,74,49,180
1,note_on,74,0,40
1,note_on,76,47,0
1,note_on,76,0,40
1,note_on,74,47,0
1,note_on,74,0,40
1,note_on,73,49,0
1,note_on,73,0,60
1,note_on,74,49,0
1,note_on,74,0,60
1,note_on,73,53,0
1,note_on,73,0,60
1,note_on,73,49,180
1,note_on,73,0,60
1,note_on,71,49,180
1,note_on,71,0,40
1,note_on,73,47,0
1,note_on,73,0,40
1,note_on,71,47,0
1,note_on,71,0,40
1,note_on,69,49,0
1,note_on,69,0,60
1,note_on,71,49,0
1,note_on,71,0,60
1,note_on,71,53,0
1,note_on,68,45,0
1,note_on,71,0,240
1,note_on,72,55,0
1,note_on,72,0,240
1,note_on,68,0,0
1,note_on,73,56,0
1,note_on,69,47,0
1,note_on,69,0,240
1,note_on,73,0,0
1,note_on,73,74,0
1,note_on,69,53,80
1,note_on,73,0,16
1,note_on,64,53,64
1,note_on,69,0,16
1,note_on,64,0,64
1,note_on,73,72,0
1,note_on,69,53,80
1,note_on,73,0,16
1,note_on,64,53,64
1,note_on,69,0,16
1,note_on,64,0,64
1,note_on,74,71,0
1,note_on,68,53,80
1,note_on,74,0,16
1,note_on,64,53,64
1,note_on,68,0,16
1,note_on,64,0,64
1,note_on,76,74,0
1,note_on,73,53,80
1,note_on,76,0,16
1,note_on,69,53,64
1,note_on,73,0,16
1,note_on,69,0,64
1,note_on,76,72,0
1,note_on,73,53,80
1,note_on,76,0,16
1,note_on,69,53,64
1,note_on,73,0,16
1,note_on,69,0,64
1,note_on,78,71,0
1,note_on,71,53,80
1,note_on,78,0,16
1,note_on,69,53,64
1,note_on,71,0,16
1,note_on,69,0,64
1,note_on,73,74,0
1,note_on,69,53,80
1,note_on,73,0,16
1,note_on,64,53,64
1,note_on,69,0,16
1,note_on,64,0,64
1,note_on,73,72,0
1,note_on,69,53,80
1,note_on,73,0,16
1,note_on,64,53,64
1,note_on,69,0,16
1,note_on,64,0,64
1,note_on,71,71,0
1,note_on,68,53,80
1,note_on,71,0,16
1,note_on,62,53,64
1,note_on,68,0,16
1,note_on,62,0,64
1,note_on,69,74,0
1,note_on,64,53,80
1,note_on,69,0,16
1,note_on,61,53,64
1,note_on,64,0,16
1,note_on,57,72,64
1,note_on,61,0,16
1,note_on,57,0,104
1,note_on,72,50,1800
1,note_on,72,0,120
1,note_on,71,47,0
1,note_on,71,0,120
1,note_on,69,50,0
1,note_on,69,0,120
1,note_on,71,46,0
1,note_on,71,0,120
1,note_on,72,47,0
1,note_on,72,0,120
1,note_on,74,48,0
1,note_on,74,0,120
1,note_on,76,50,0
1,note_on,76,0,120
1,note_on,75,46,0
1,note_on,75,0,120
1,note_on,77,55,0
1,note_on,77,0,120
1,note_on,76,53,0
1,note_on,76,0,120
1,note_on,74,51,0
1,note_on,74,0,120
1,note_on,72,48,0
1,note_on,72,0,120
1,note_on,71,50,0
1,note_on,71,0,120
1,note_on,69,47,0
1,note_on,69,0,120
1,note_on,68,50,0
1,note_on,68,0,120
1,note_on,69,46,0
1,note_on,69,0,120
1,note_on,71,47,0
1,note_on,71,0,120
1,note_on,72,48,0
1,note_on,72,0,120
1,note_on,74,50,0
1,note_on,74,0,120
1,note_on,73,46,0
1,note_on,73,0,120
1,note_on,76,54,0
1,note_on,76,0,120
1,note_on,74,52,0
1,note_on,74,0,120
1,note_on,72,51,0
1,note_on,72,0,120
1,note_on,71,49,0
1,note_on,71,0,120
1,note_on,69,50,0
1,note_on,69,0,120
1,note_on,76,47,0
1,note_on,76,0,120
1,note_on,75,50,0
1,note_on,75,0,120
1,note_on,76,46,0
1,note_on,76,0,120
1,note_on,72,47,0
1,note_on,72,0,120
1,note_on,69,48,0
1,note_on,69,0,120
1,note_on,68,50,0
1,note_on,68,0,120
1,note_on,76,46,0
1,note_on,76,0,120
1,note_on,77,55,0
1,note_on,77,0,120
1,note_on,76,53,0
1,note_on,76,0,120
1,note_on,74,51,0
1,note_on,74,0,120
1,note_on,71,48,0
1,note_on,71,0,115
1,note_on,71,50,5
1,note_on,71,0,120
1,note_on,69,47,0
1,note_on,69,0,120
1,note_on,68,50,0
1,note_on,68,0,120
1,note_on,69,46,0
1,note_on,69,0,120
1,note_on,71,47,0
1,note_on,71,0,120
1,note_on,72,48,0
1,note_on,72,0,111
1,note_on,72,41,9
1,note_on,69,41,0
1,note_on,69,0,480
1,note_on,72,0,0
1,note_on,68,41,0
1,note_on,71,41,0
1,note_on,71,0,240
1,note_on,68,0,0
1,note_on,84,53,0
1,note_on,72,44,0
1,note_on,72,0,120
1,note_on,84,0,0
1,note_on,71,40,0
1,note_on,83,48,0
1,note_on,83,0,120
1,note_on,71,0,0
1,note_on,69,46,0
1,note_on,81,55,0
1,note_on,81,0,120
1,note_on,69,0,0
1,note_on,71,44,0
1,note_on,83,52,0
1,note_on,83,0,120
1,note_on,71,0,0
1,note_on,72,47,0
1,note_on,84,55,0
1,note_on,84,0,120
1,note_on,72,0,0
1,note_on,86,52,0
1,note_on,74,43,0
1,note_on,74,0,120
1,note_on,86,0,0
1,note_on,76,53,0
1,note_on,88,63,0
1,note_on,88,0,120
1,note_on,76,0,0
1,note_on,87,58,0
1,note_on,75,43,0
1,note_on,75,0,120
1,note_on,87,0,0
1,note_on,77,53,0
1,note_on,89,63,0
1,note_on,89,0,120
1,note_on,77,0,0
1,note_on,88,60,0
1,note_on,76,50,0
1,note_on,76,0,120
1,note_on,88,0,0
1,note_on,86,64,0
1,note_on,74,54,0
1,note_on,74,0,120
1,note_on,86,0,0
1,note_on,72,48,0
1,note_on,84,57,0
1,note_on,84,0,120
1,note_on,72,0,0
1,note_on,83,66,0
1,note_on,71,56,0
1,note_on,71,0,120
1,note_on,83,0,0
1,note_on,81,58,0
1,note_on,69,49,0
1,note_on,69,0,120
1,note_on,81,0,0
1,note_on,68,54,0
1,note_on,80,64,0
1,note_on,80,0,120
1,note_on,68,0,0
1,note_on,81,58,0
1,note_on,69,49,0
1,note_on,69,0,120
1,note_on,81,0,0
1,note_on,83,64,0
1,note_on,71,54,0
1,note_on,71,0,120
1,note_on,83,0,0
1,note_on,84,60,0
1,note_on,72,51,0
1,note_on,72,0,120
1,note_on,84,0,0
1,note_on,74,49,0
1,note_on,86,66,0
1,note_on,86,0,120
1,note_on,74,0,0
1,note_on,85,60,0
1,note_on,73,45,0
1,note_on,73,0,120
1,note_on,85,0,0
1,note_on,76,60,0
1,note_on,88,71,0
1,note_on,88,0,120
1,note_on,76,0,0
1,note_on,86,68,0
1,note_on,74,57,0
1,note_on,74,0,120
1,note_on,86,0,0
1,note_on,84,65,0
1,note_on,72,55,0
1,note_on,72,0,120
1,note_on,84,0,0
1,note_on,83,62,0
1,note_on,71,52,0
1,note_on,71,0,120
1,note_on,83,0,0
1,note_on,69,55,0
1,note_on,81,65,0
1,note_on,81,0,120
1,note_on,69,0,0
1,note_on,68,51,0
1,note_on,80,60,0
1,note_on,80,0,120
1,note_on,68,0,0
1,note_on,81,66,0
1,note_on,69,56,0
1,note_on,69,0,120
1,note_on,81,0,0
1,note_on,84,60,0
1,note_on,72,51,0
1,note_on,72,0,120
1,note_on,84,0,0
1,note_on,71,53,0
1,note_on,83,63,0
1,note_on,83,0,120
1,note_on,71,0,0
1,note_on,86,63,0
1,note_on,74,53,0
1,note_on,74,0,120
1,note_on,86,0,0
1,note_on,72,56,0
1,note_on,84,66,0
1,note_on,84,0,120
1,note_on,72,0,0
1,note_on,83,60,0
1,note_on,71,51,0
1,note_on,71,0,120
1,note_on,83,0,0
1,note_on,72,60,0
1,note_on,84,71,0
1,note_on,84,0,120
1,note_on,72,0,0
1,note_on,88,67,0
1,note_on,76,56,0
1,note_on,76,0,120
1,note_on,88,0,0
1,note_on,74,55,0
1,note_on,86,65,0
1,note_on,86,0,120
1,note_on,74,0,0
1,note_on,89,65,0
1,note_on,77,55,0
1,note_on,77,0,120
1,note_on,89,0,0
1,note_on,88,67,0
1,note_on,76,56,0
1,note_on,76,0,120
1,note_on,88,0,0
1,note_on,87,59,0
1,note_on,75,50,0
1,note_on,75,0,120
1,note_on,87,0,0
1,note_on,76,56,0
1,note_on,88,66,0
1,note_on,88,0,120
1,note_on,76,0,0
1,note_on,76,60,0
1,note_on,64,51,0
1,note_on,64,0,120
1,note_on,76,0,0
1,note_on,66,53,0
1,note_on,78,63,0
1,note_on,78,0,120
1,note_on,66,0,0
1,note_on,80,63,0
1,note_on,68,53,0
1,note_on,68,0,120
1,note_on,80,0,0
1,note_on,69,53,0
1,note_on,81,63,0
1,note_on,81,0,480
1,note_on,69,0,0
1,note_on,72,50,240
1,note_on,72,0,120
1,note_on,71,47,0
1,note_on,71,0,120
1,note_on,69,50,0
1,note_on,69,0,120
1,note_on,71,46,0
1,note_on,71,0,120
1,note_on,72,47,0
1,note_on,72,0,120
1,note_on,74,48,0
1,note_on,74,0,120
1,note_on,76,50,0
1,note_on,76,0,120
1,note_on,75,46,0
1,note_on,75,0,120
1,note_on,77,55,0
1,note_on,77,0,120
1,note_on,76,53,0
1,note_on,76,0,120
1,note_on,74,51,0
1,note_on,74,0,120
1,note_on,72,48,0
1,note_on,72,0,120
1,note_on,71,50,0
1,note_on,71,0,120
1,note_on,69,47,0
1,note_on,69,0,120
1,note_on,68,50,0
1,note_on,68,0,120
1,note_on,69,46,0
1,note_on,69,0,120
1,note_on,71,47,0
1,note_on,71,0,120
1,note_on,72,48,0
1,note_on,72,0,120
1,note_on,74,50,0
1,note_on,74,0,120
1,note_on,73,46,0
1,note_on,73,0,120
1,note_on,76,54,0
1,note_on,76,0,120
1,note_on,74,52,0
1,note_on,74,0,120
1,note_on,72,51,0
1,note_on,72,0,120
1,note_on,71,49,0
1,note_on,71,0,120
1,note_on,69,50,0
1,note_on,69,0,120
1,note_on,76,47,0
1,note_on,76,0,120
1,note_on,75,50,0
1,note_on,75,0,120
1,note_on,76,46,0
1,note_on,76,0,120
1,note_on,72,47,0
1,note_on,72,0,120
1,note_on,69,48,0
1,note_on,69,0,120
1,note_on,68,50,0
1,note_on,68,0,120
1,note_on,76,46,0
1,note_on,76,0,120
1,note_on,77,55,0
1,note_on,77,0,120
1,note_on,76,53,0
1,note_on,76,0,120
1,note_on,74,51,0
1,note_on,74,0,120
1,note_on,71,48,0
1,note_on,71,0,109
1,note_on,71,50,11
1,note_on,71,0,120
1,note_on,69,47,0
1,note_on,69,0,120
1,note_on,68,50,0
1,note_on,68,0,120
1,note_on,69,46,0
1,note_on,69,0,120
1,note_on,71,47,0
1,note_on,71,0,120
1,note_on,72,48,0
1,note_on,72,0,110
1,note_on,72,41,10
1,note_on,69,41,0
1,note_on,69,0,480
1,note_on,72,0,0
1,note_on,68,41,0
1,note_on,71,41,0
1,note_on,71,0,240
1,note_on,68,0,0
1,note_on,84,53,0
1,note_on,72,44,0
1,note_on,72,0,120
1,note_on,84,0,0
1,note_on,83,48,0
1,note_on,71,40,0
1,note_on,71,0,120
1,note_on,83,0,0
1,note_on,69,46,0
1,note_on,81,55,0
1,note_on,81,0,120
1,note_on,69,0,0
1,note_on,71,44,0
1,note_on,83,52,0
1,note_on,83,0,120
1,note_on,71,0,0
1,note_on,72,47,0
1,note_on,84,55,0
1,note_on,84,0,120
1,note_on,72,0,0
1,note_on,86,52,0
1,note_on,74,43,0
1,note_on,74,0,120
1,note_on,86,0,0
1,note_on,88,63,0
1,note_on,76,53,0
1,note_on,76,0,120
1,note_on,88,0,0
1,note_on,75,43,0
1,note_on,87,58,0
1,note_on,87,0,120
1,note_on,75,0,0
1,note_on,89,63,0
1,note_on,77,53,0
1,note_on,77,0,120
1,note_on,89,0,0
1,note_on,88,60,0
1,note_on,76,50,0
1,note_on,76,0,120
1,note_on,88,0,0
1,note_on,86,64,0
1,note_on,74,54,0
1,note_on,74,0,120
1,note_on,86,0,0
1,note_on,72,48,0
1,note_on,84,57,0
1,note_on,84,0,120
1,note_on,72,0,0
1,note_on,83,66,0
1,note_on,71,56,0
1,note_on,71,0,120
1,note_on,83,0,0
1,note_on,69,49,0
1,note_on,81,58,0
1,note_on,81,0,120
1,note_on,69,0,0
1,note_on,68,54,0
1,note_on,80,64,0
1,note_on,80,0,120
1,note_on,68,0,0
1,note_on,69,49,0
1,note_on,81,58,0
1,note_on,81,0,120
1,note_on,69,0,0
1,note_on,71,54,0
1,note_on,83,64,0
1,note_on,83,0,120
1,note_on,71,0,0
1,note_on,84,60,0
1,note_on,72,51,0
1,note_on,72,0,120
1,note_on,84,0,0
1,note_on,74,49,0
1,note_on,86,66,0
1,note_on,86,0,120
1,note_on,74,0,0
1,note_on,85,60,0
1,note_on,73,45,0
1,note_on,73,0,120
1,note_on,85,0,0
1,note_on,88,71,0
1,note_on,76,60,0
1,note_on,76,0,120
1,note_on,88,0,0
1,note_on,74,57,0
1,note_on,86,68,0
1,note_on,86,0,120
1,note_on,74,0,0
1,note_on,84,65,0
1,note_on,72,55,0
1,note_on,72,0,120
1,note_on,84,0,0
1,note_on,71,52,0
1,note_on,83,62,0
1,note_on,83,0,120
1,note_on,71,0,0
1,note_on,81,65,0
1,note_on,69,55,0
1,note_on,69,0,120
1,note_on,81,0,0
1,note_on,68,51,0
1,note_on,80,60,0
1,note_on,80,0,120
1,note_on,68,0,0
1,note_on,81,66,0
1,note_on,69,56,0
1,note_on,69,0,120
1,note_on,81,0,0
1,note_on,72,51,0
1,note_on,84,60,0
1,note_on,84,0,120
1,note_on,72,0,0
1,note_on,71,53,0
1,note_on,83,63,0
1,note_on,83,0,120
1,note_on,71,0,0
1,note_on,86,63,0
1,note_on,74,53,0
1,note_on,74,0,120
1,note_on,86,0,0
1,note_on,72,56,0
1,note_on,84,66,0
1,note_on,84,0,120
1,note_on,72,0,0
1,note_on,71,51,0
1,note_on,83,60,0
1,note_on,83,0,120
1,note_on,71,0,0
1,note_on,72,60,0
1,note_on,84,71,0
1,note_on,84,0,120
1,note_on,72,0,0
1,note_on,88,67,0
1,note_on,76,56,0
1,note_on,76,0,120
1,note_on,88,0,0
1,note_on,86,65,0
1,note_on,74,55,0
1,note_on,74,0,120
1,note_on,86,0,0
1,note_on,77,55,0
1,note_on,89,65,0
1,note_on,89,0,120
1,note_on,77,0,0
1,note_on,88,67,0
1,note_on,76,56,0
1,note_on,76,0,120
1,note_on,88,0,0
1,note_on,87,59,0
1,note_on,75,50,0
1,note_on,75,0,120
1,note_on,87,0,0
1,note_on,88,66,0
1,note_on,76,56,0
1,note_on,76,0,120
1,note_on,88,0,0
1,note_on,76,60,0
1,note_on,64,51,0
1,note_on,64,0,120
1,note_on,76,0,0
1,note_on,66,53,0
1,note_on,78,63,0
1,note_on,78,0,120
1,note_on,66,0,0
1,note_on,80,63,0
1,note_on,68,53,0
1,note_on,68,0,120
1,note_on,80,0,0
1,note_on,69,53,0
1,note_on,81,63,0
1,note_on,81,0,480
1,note_on,69,0,0
1,note_on,69,50,240
1,note_on,69,0,120
1,note_on,68,46,0
1,note_on,68,0,120
1,note_on,69,50,0
1,note_on,69,0,120
1,note_on,81,55,0
1,note_on,81,0,120
1,note_on,80,54,0
1,note_on,80,0,120
1,note_on,79,53,0
1,note_on,79,0,108
1,note_on,79,50,12
1,note_on,79,0,120
1,note_on,77,48,0
1,note_on,77,0,120
1,note_on,76,48,0
1,note_on,76,0,120
1,note_on,77,48,0
1,note_on,77,0,120
1,note_on,76,50,0
1,note_on,76,0,120
1,note_on,77,48,0
1,note_on,77,0,120
1,note_on,81,50,0
1,note_on,81,0,120
1,note_on,80,45,0
1,note_on,80,0,120
1,note_on,81,50,0
1,note_on,81,0,120
1,note_on,80,45,0
1,note_on,80,0,120
1,note_on,81,50,0
1,note_on,81,0,120
1,note_on,77,46,0
1,note_on,77,0,108
1,note_on,77,50,12
1,note_on,77,0,120
1,note_on,76,47,0
1,note_on,76,0,120
1,note_on,75,47,0
1,note_on,75,0,120
1,note_on,76,47,0
1,note_on,76,0,120
1,note_on,75,50,0
1,note_on,75,0,120
1,note_on,76,45,0
1,note_on,76,0,108
1,note_on,76,50,12
1,note_on,76,0,120
1,note_on,74,46,0
1,note_on,74,0,120
1,note_on,72,46,0
1,note_on,72,0,120
1,note_on,71,46,0
1,note_on,71,0,120
1,note_on,69,44,0
1,note_on,69,0,120
1,note_on,76,50,0
1,note_on,76,0,120
1,note_on,77,47,0
1,note_on,77,0,120
1,note_on,74,47,0
1,note_on,74,0,120
1,note_on,71,47,0
1,note_on,71,0,120
1,note_on,69,47,0
1,note_on,69,0,120
1,note_on,68,50,0
1,note_on,68,0,120
1,note_on,71,47,0
1,note_on,71,0,108
1,note_on,71,50,12
1,note_on,71,0,120
1,note_on,69,43,0
1,note_on,69,0,120
1,note_on,72,55,0
1,note_on,72,0,120
1,note_on,71,49,0
1,note_on,71,0,120
1,note_on,74,58,0
1,note_on,74,0,120
1,note_on,72,51,0
1,note_on,72,0,120
1,note_on,71,54,0
1,note_on,71,0,40
1,note_on,72,56,0
1,note_on,72,0,40
1,note_on,74,58,0
1,note_on,74,0,40
1,note_on,69,55,0
1,note_on,72,65,0
1,note_on,72,0,360
1,note_on,69,0,0
1,note_on,68,36,0
1,note_on,71,51,0
1,note_on,71,0,180
1,note_on,68,0,0
1,note_on,72,50,60
1,note_on,72,0,120
1,note_on,71,47,0
1,note_on,71,0,120
1,note_on,69,50,0
1,note_on,69,0,120
1,note_on,71,46,0
1,note_on,71,0,120
1,note_on,72,47,0
1,note_on,72,0,120
1,note_on,74,48,0
1,note_on,74,0,120
1,note_on,76,50,0
1,note_on,76,0,120
1,note_on,75,46,0
1,note_on,75,0,120
1,note_on,77,55,0
1,note_on,77,0,120
1,note_on,76,53,0
1,note_on,76,0,120
1,note_on,74,51,0
1,note_on,74,0,120
1,note_on,72,48,0
1,note_on,72,0,120
1,note_on,71,50,0
1,note_on,71,0,120
1,note_on,69,47,0
1,note_on,69,0,120
1,note_on,68,50,0
1,note_on,68,0,120
1,note_on,69,46,0
1,note_on,69,0,120
1,note_on,71,47,0
1,note_on,71,0,120
1,note_on,72,48,0
1,note_on,72,0,120
1,note_on,74,50,0
1,note_on,74,0,120
1,note_on,73,46,0
1,note_on,73,0,120
1,note_on,76,54,0
1,note_on,76,0,120
1,note_on,74,52,0
1,note_on,74,0,120
1,note_on,72,51,0
1,note_on,72,0,120
1,note_on,71,49,0
1,note_on,71,0,120
1,note_on,69,50,0
1,note_on,69,0,120
1,note_on,68,47,0
1,note_on,68,0,120
1,note_on,69,50,0
1,note_on,69,0,120
1,note_on,72,46,0
1,note_on,72,0,120
1,note_on,71,52,0
1,note_on,71,0,120
1,note_on,74,48,0
1,note_on,74,0,120
1,note_on,72,56,0
1,note_on,72,0,120
1,note_on,71,50,0
1,note_on,71,0,120
1,note_on,72,54,0
1,note_on,72,0,120
1,note_on,76,50,0
1,note_on,76,0,120
1,note_on,74,55,0
1,note_on,74,0,120
1,note_on,77,48,0
1,note_on,77,0,120
1,note_on,76,60,0
1,note_on,76,0,120
1,note_on,75,54,0
1,note_on,75,0,120
1,note_on,76,56,0
1,note_on,76,0,120
1,note_on,64,43,0
1,note_on,64,0,120
1,note_on,66,43,0
1,note_on,66,0,120
1,note_on,68,46,0
1,note_on,68,0,120
1,note_on,69,51,0
1,note_on,69,0,120
1,note_on,68,44,0
1,note_on,68,0,120
1,note_on,69,50,0
1,note_on,69,0,120
1,note_on,64,45,0
1,note_on,64,0,120
1,note_on,60,49,0
1,note_on,60,0,120
1,note_on,64,46,0
1,note_on,64,0,120
1,note_on,69,55,0
1,note_on,81,65,0
1,note_on,81,0,120
1,note_on,69,0,0
1,note_on,80,60,0
1,note_on,68,51,0
1,note_on,68,0,120
1,note_on,80,0,0
1,note_on,81,66,0
1,note_on,69,56,0
1,note_on,69,0,120
1,note_on,81,0,0
1,note_on,72,51,0
1,note_on,84,60,0
1,note_on,84,0,120
1,note_on,72,0,0
1,note_on,83,63,0
1,note_on,71,53,0
1,note_on,71,0,120
1,note_on,83,0,0
1,note_on,86,63,0
1,note_on,74,53,0
1,note_on,74,0,120
1,note_on,86,0,0
1,note_on,72,56,0
1,note_on,84,66,0
1,note_on,84,0,120
1,note_on,72,0,0
1,note_on,71,51,0
1,note_on,83,60,0
1,note_on,83,0,120
1,note_on,71,0,0
1,note_on,84,71,0
1,note_on,72,60,0
1,note_on,72,0,120
1,note_on,84,0,0
1,note_on,88,67,0
1,note_on,76,56,0
1,note_on,76,0,120
1,note_on,88,0,0
1,note_on,74,55,0
1,note_on,86,65,0
1,note_on,86,0,120
1,note_on,74,0,0
1,note_on,77,55,0
1,note_on,89,65,0
1,note_on,89,0,120
1,note_on,77,0,0
1,note_on,76,56,0
1,note_on,88,67,0
1,note_on,88,0,120
1,note_on,76,0,0
1,note_on,87,59,0
1,note_on,75,50,0
1,note_on,75,0,120
1,note_on,87,0,0
1,note_on,76,56,0
1,note_on,88,66,0
1,note_on,88,0,120
1,note_on,76,0,0
1,note_on,64,51,0
1,note_on,76,60,0
1,note_on,76,0,120
1,note_on,64,0,0
1,note_on,78,63,0
1,note_on,66,53,0
1,note_on,66,0,120
1,note_on,78,0,0
1,note_on,80,63,0
1,note_on,68,53,0
1,note_on,68,0,120
1,note_on,80,0,0
1,note_on,81,63,0
1,note_on,69,53,0
1,note_on,69,0,480
1,note_on,81,0,0
1,note_on,69,50,240
1,note_on,69,0,120
1,note_on,68,46,0
1,note_on,68,0,120
1,note_on,69,50,0
1,note_on,69,0,120
1,note_on,81,55,0
1,note_on,81,0,120
1,note_on,80,54,0
1,note_on,80,0,120
1,note_on,79,53,0
1,note_on,79,0,108
1,note_on,79,50,12
1,note_on,79,0,120
1,note_on,77,48,0
1,note_on,77,0,120
1,note_on,76,48,0
1,note_on,76,0,120
1,note_on,77,48,0
1,note_on,77,0,120
1,note_on,76,50,0
1,note_on,76,0,120
1,note_on,77,48,0
1,note_on,77,0,120
1,note_on,81,50,0
1,note_on,81,0,120
1,note_on,80,45,0
1,note_on,80,0,120
1,note_on,81,50,0
1,note_on,81,0,120
1,note_on,80,45,0
1,note_on,80,0,120
1,note_on,81,50,0
1,note_on,81,0,120
1,note_on,77,46,0
1,note_on,77,0,108
1,note_on,77,50,12
1,note_on,77,0,120
1,note_on,76,47,0
1,note_on,76,0,120
1,note_on,75,47,0
1,note_on,75,0,120
1,note_on,76,47,0
1,note_on,76,0,120
1,note_on,75,50,0
1,note_on,75,0,120
1,note_on,76,45,0
1,note_on,76,0,108
1,note_on,76,50,12
1,note_on,76,0,120
1,note_on,74,46,0
1,note_on,74,0,120
1,note_on,72,46,0
1,note_on,72,0,120
1,note_on,71,46,0
1,note_on,71,0,120
1,note_on,69,44,0
1,note_on,69,0,120
1,note_on,76,50,0
1,note_on,76,0,120
1,note_on,77,47,0
1,note_on,77,0,120
1,note_on,74,47,0
1,note_on,74,0,120
1,note_on,71,47,0
1,note_on,71,0,120
1,note_on,69,47,0
1,note_on,69,0,120
1,note_on,68,50,0
1,note_on,68,0,120
1,note_on,71,47,0
1,note_on,71,0,108
1,note_on,71,50,12
1,note_on,71,0,120
1,note_on,69,43,0
1,note_on,69,0,120
1,note_on,72,55,0
1,note_on,72,0,120
1,note_on,71,49,0
1,note_on,71,0,120
1,note_on,74,58,0
1,note_on,74,0,120
1,note_on,72,51,0
1,note_on,72,0,120
1,note_on,71,54,0
1,note_on,71,0,40
1,note_on,72,56,0
1,note_on,72,0,40
1,note_on,74,58,0
1,note_on,74,0,40
1,note_on,72,65,0
1,note_on,69,55,0
1,note_on,69,0,360
1,note_on,72,0,0
1,note_on,68,36,0
1,note_on,71,51,0
1,note_on,71,0,180
1,note_on,68,0,0
1,note_on,72,50,60
1,note_on,72,0,120
1,note_on,71,47,0
1,note_on,71,0,120
1,note_on,69,50,0
1,note_on,69,0,120
1,note_on,71,46,0
1,note_on,71,0,120
1,note_on,72,47,0
1,note_on,72,0,120
1,note_on,74,48,0
1,note_on,74,0,120
1,note_on,76,50,0
1,note_on,76,0,120
1,note_on,75,46,0
1,note_on,75,0,120
1,note_on,77,55,0
1,note_on,77,0,120
1,note_on,76,53,0
1,note_on,76,0,120
1,note_on,74,51,0
1,note_on,74,0,120
1,note_on,72,48,0
1,note_on,72,0,120
1,note_on,71,50,0
1,note_on,71,0,120
1,note_on,69,47,0
1,note_on,69,0,120
1,note_on,68,50,0
1,note_on,68,0,120
1,note_on,69,46,0
1,note_on,69,0,120
1,note_on,71,47,0
1,note_on,71,0,120
1,note_on,72,48,0
1,note_on,72,0,120
1,note_on,74,50,0
1,note_on,74,0,120
1,note_on,73,46,0
1,note_on,73,0,120
1,note_on,76,54,0
1,note_on,76,0,120
1,note_on,74,52,0
1,note_on,74,0,120
1,note_on,72,51,0
1,note_on,72,0,120
1,note_on,71,49,0
1,note_on,71,0,120
1,note_on,69,50,0
1,note_on,69,0,120
1,note_on,68,47,0
1,note_on,68,0,120
1,note_on,69,50,0
1,note_on,69,0,120
1,note_on,72,46,0
1,note_on,72,0,120
1,note_on,71,52,0
1,note_on,71,0,120
1,note_on,74,48,0
1,note_on,74,0,120
1,note_on,72,56,0
1,note_on,72,0,120
1,note_on,71,50,0
1,note_on,71,0,120
1,note_on,72,54,0
1,note_on,72,0,120
1,note_on,76,50,0
1,note_on,76,0,120
1,note_on,74,55,0
1,note_on,74,0,120
1,note_on,77,48,0
1,note_on,77,0,120
1,note_on,76,60,0
1,note_on,76,0,120
1,note_on,75,54,0
1,note_on,75,0,120
1,note_on,76,56,0
1,note_on,76,0,120
1,note_on,64,43,0
1,note_on,64,0,120
1,note_on,66,43,0
1,note_on,66,0,120
1,note_on,68,46,0
1,note_on,68,0,120
1,note_on,69,51,0
1,note_on,69,0,120
1,note_on,68,44,0
1,note_on,68,0,120
1,note_on,69,50,0
1,note_on,69,0,120
1,note_on,64,45,0
1,note_on,64,0,120
1,note_on,60,49,0
1,note_on,60,0,120
1,note_on,64,46,0
1,note_on,64,0,120
1,note_on,69,55,0
1,note_on,81,65,0
1,note_on,81,0,120
1,note_on,69,0,0
1,note_on,80,60,0
1,note_on,68,51,0
1,note_on,68,0,120
1,note_on,80,0,0
1,note_on,81,66,0
1,note_on,69,56,0
1,note_on,69,0,120
1,note_on,81,0,0
1,note_on,84,60,0
1,note_on,72,51,0
1,note_on,72,0,120
1,note_on,84,0,0
1,note_on,71,53,0
1,note_on,83,63,0
1,note_on,83,0,120
1,note_on,71,0,0
1,note_on,86,63,0
1,note_on,74,53,0
1,note_on,74,0,120
1,note_on,86,0,0
1,note_on,84,66,0
1,note_on,72,56,0
1,note_on,72,0,120
1,note_on,84,0,0
1,note_on,83,60,0
1,note_on,71,51,0
1,note_on,71,0,120
1,note_on,83,0,0
1,note_on,84,71,0
1,note_on,72,60,0
1,note_on,72,0,120
1,note_on,84,0,0
1,note_on,76,56,0
1,note_on,88,67,0
1,note_on,88,0,120
1,note_on,76,0,0
1,note_on,74,55,0
1,note_on,86,65,0
1,note_on,86,0,120
1,note_on,74,0,0
1,note_on,77,55,0
1,note_on,89,65,0
1,note_on,89,0,120
1,note_on,77,0,0
1,note_on,88,67,0
1,note_on,76,56,0
1,note_on,76,0,120
1,note_on,88,0,0
1,note_on,87,59,0
1,note_on,75,50,0
1,note_on,75,0,120
1,note_on,87,0,0
1,note_on,88,66,0
1,note_on,76,56,0
1,note_on,76,0,120
1,note_on,88,0,0
1,note_on,64,51,0
1,note_on,76,60,0
1,note_on,76,0,120
1,note_on,64,0,0
1,note_on,66,53,0
1,note_on,78,63,0
1,note_on,78,0,120
1,note_on,66,0,0
1,note_on,80,63,0
1,note_on,68,53,0
1,note_on,68,0,120
1,note_on,80,0,0
1,note_on,81,63,0
1,note_on,69,53,0
1,note_on,69,0,480
1,note_on,81,0,0
1,note_on,73,50,1680
1,note_on,69,50,0
1,note_on,69,0,120
1,note_on,73,0,0
1,note_on,64,50,0
1,note_on,64,0,120
1,note_on,69,44,0
1,note_on,73,44,0
1,note_on,85,52,0
1,note_on,81,52,0
1,note_on,73,0,120
1,note_on,69,0,0
1,note_on,64,49,0
1,note_on,64,0,120
1,note_on,85,0,0
1,note_on,81,0,0
1,note_on,74,45,0
1,note_on,86,53,0
1,note_on,83,53,0
1,note_on,71,45,0
1,note_on,71,0,120
1,note_on,74,0,0
1,note_on,64,50,0
1,note_on,64,0,120
1,note_on,83,0,0
1,note_on,86,0,0
1,note_on,88,55,0
1,note_on,85,55,0
1,note_on,76,46,0
1,note_on,73,46,0
1,note_on,73,0,120
1,note_on,76,0,0
1,note_on,64,50,0
1,note_on,64,0,120
1,note_on,85,0,0
1,note_on,88,0,0
1,note_on,74,45,0
1,note_on,86,53,0
1,note_on,83,53,0
1,note_on,71,45,0
1,note_on,71,0,120
1,note_on,74,0,0
1,note_on,64,49,0
1,note_on,64,0,120
1,note_on,83,0,0
1,note_on,86,0,0
1,note_on,73,44,0
1,note_on,81,52,0
1,note_on,85,52,0
1,note_on,69,44,0
1,note_on,69,0,120
1,note_on,73,0,0
1,note_on,64,48,0
1,note_on,64,0,120
1,note_on,85,0,0
1,note_on,81,0,0
1,note_on,68,50,0
1,note_on,71,50,0
1,note_on,71,0,120
1,note_on,68,0,0
1,note_on,64,50,0
1,note_on,64,0,120
1,note_on,83,52,0
1,note_on,68,44,0
1,note_on,71,44,0
1,note_on,80,52,0
1,note_on,71,0,120
1,note_on,68,0,0
1,note_on,64,49,0
1,note_on,64,0,120
1,note_on,83,0,0
1,note_on,80,0,0
1,note_on,81,53,0
1,note_on,73,45,0
1,note_on,69,45,0
1,note_on,85,53,0
1,note_on,69,0,120
1,note_on,73,0,0
1,note_on,64,50,0
1,note_on,64,0,120
1,note_on,81,0,0
1,note_on,85,0,0
1,note_on,74,46,0
1,note_on,71,46,0
1,note_on,83,55,0
1,note_on,86,55,0
1,note_on,71,0,120
1,note_on,74,0,0
1,note_on,64,50,0
1,note_on,64,0,120
1,note_on,83,0,0
1,note_on,86,0,0
1,note_on,81,53,0
1,note_on,85,53,0
1,note_on,69,45,0
1,note_on,73,45,0
1,note_on,73,0,120
1,note_on,69,0,0
1,note_on,64,49,0
1,note_on,64,0,120
1,note_on,85,0,0
1,note_on,81,0,0
1,note_on,68,44,0
1,note_on,83,52,0
1,note_on,71,44,0
1,note_on,80,52,0
1,note_on,71,0,120
1,note_on,68,0,0
1,note_on,64,48,0
1,note_on,64,0,120
1,note_on,83,0,0
1,note_on,80,0,0
1,note_on,64,54,0
1,note_on,69,54,0
1,note_on,69,0,120
1,note_on,64,0,0
1,note_on,61,50,0
1,note_on,61,0,120
1,note_on,69,45,0
1,note_on,81,54,0
1,note_on,64,45,0
1,note_on,64,0,120
1,note_on,69,0,0
1,note_on,61,50,0
1,note_on,61,0,120
1,note_on,81,0,0
1,note_on,69,54,0
1,note_on,64,54,0
1,note_on,64,0,120
1,note_on,69,0,0
1,note_on,61,50,0
1,note_on,61,0,120
1,note_on,68,55,0
1,note_on,71,55,0
1,note_on,71,0,120
1,note_on,68,0,0
1,note_on,64,51,0
1,note_on,64,0,120
1,note_on,83,56,0
1,note_on,71,47,0
1,note_on,68,47,0
1,note_on,68,0,120
1,note_on,71,0,0
1,note_on,64,51,0
1,note_on,64,0,120
1,note_on,83,0,0
1,note_on,71,50,0
1,note_on,68,50,0
1,note_on,68,0,120
1,note_on,71,0,0
1,note_on,64,48,0
1,note_on,64,0,120
1,note_on,69,46,0
1,note_on,73,46,0
1,note_on,85,55,0
1,note_on,81,55,0
1,note_on,73,0,120
1,note_on,69,0,0
1,note_on,64,50,0
1,note_on,64,0,120
1,note_on,85,0,0
1,note_on,81,0,0
1,note_on,86,53,0
1,note_on,83,53,0
1,note_on,74,45,0
1,note_on,71,45,0
1,note_on,71,0,120
1,note_on,74,0,0
1,note_on,64,49,0
1,note_on,64,0,120
1,note_on,83,0,0
1,note_on,86,0,0
1,note_on,85,52,0
1,note_on,73,44,0
1,note_on,69,44,0
1,note_on,81,52,0
1,note_on,69,0,120
1,note_on,73,0,0
1,note_on,64,48,0
1,note_on,64,0,120
1,note_on,85,0,0
1,note_on,81,0,0
1,note_on,83,52,0
1,note_on,68,44,0
1,note_on,71,44,0
1,note_on,80,52,0
1,note_on,71,0,120
1,note_on,68,0,0
1,note_on,64,49,0
1,note_on,64,0,120
1,note_on,83,0,0
1,note_on,80,0,0
1,note_on,75,56,0
1,note_on,75,0,120
1,note_on,76,53,0
1,note_on,76,0,120
1,note_on,75,56,0
1,note_on,75,0,120
1,note_on,76,53,0
1,note_on,76,0,120
1,note_on,69,60,0
1,note_on,73,60,0
1,note_on,73,0,120
1,note_on,69,0,0
1,note_on,64,60,0
1,note_on,64,0,120
1,note_on,85,68,0
1,note_on,69,52,0
1,note_on,73,52,0
1,note_on,81,57,0
1,note_on,73,0,120
1,note_on,69,0,0
1,note_on,64,58,0
1,note_on,64,0,120
1,note_on,85,0,0
1,note_on,81,0,0
1,note_on,86,69,0
1,note_on,74,54,0
1,note_on,71,54,0
1,note_on,83,58,0
1,note_on,71,0,120
1,note_on,74,0,0
1,note_on,64,60,0
1,note_on,64,0,120
1,note_on,86,0,0
1,note_on,83,0,0
1,note_on,85,61,0
1,note_on,88,72,0
1,note_on,73,55,0
1,note_on,76,55,0
1,note_on,76,0,120
1,note_on,73,0,0
1,note_on,64,60,0
1,note_on,64,0,120
1,note_on,88,0,0
1,note_on,85,0,0
1,note_on,71,54,0
1,note_on,74,54,0
1,note_on,83,58,0
1,note_on,86,69,0
1,note_on,74,0,120
1,note_on,71,0,0
1,note_on,64,58,0
1,note_on,64,0,120
1,note_on,83,0,0
1,note_on,86,0,0
1,note_on,81,57,0
1,note_on,85,68,0
1,note_on,73,52,0
1,note_on,69,52,0
1,note_on,69,0,120
1,note_on,73,0,0
1,note_on,64,57,0
1,note_on,64,0,120
1,note_on,85,0,0
1,note_on,81,0,0
1,note_on,68,60,0
1,note_on,71,60,0
1,note_on,71,0,120
1,note_on,68,0,0
1,note_on,64,60,0
1,note_on,64,0,120
1,note_on,71,52,0
1,note_on,80,57,0
1,note_on,83,68,0
1,note_on,68,52,0
1,note_on,68,0,120
1,note_on,71,0,0
1,note_on,64,58,0
1,note_on,64,0,120
1,note_on,83,0,0
1,note_on,80,0,0
1,note_on,85,69,0
1,note_on,81,58,0
1,note_on,73,54,0
1,note_on,69,54,0
1,note_on,69,0,120
1,note_on,73,0,0
1,note_on,64,60,0
1,note_on,64,0,120
1,note_on,81,0,0
1,note_on,85,0,0
1,note_on,74,55,0
1,note_on,71,55,0
1,note_on,83,61,0
1,note_on,86,72,0
1,note_on,71,0,120
1,note_on,74,0,0
1,note_on,64,60,0
1,note_on,64,0,120
1,note_on,83,0,0
1,note_on,86,0,0
1,note_on,69,54,0
1,note_on,73,54,0
1,note_on,85,69,0
1,note_on,81,58,0
1,note_on,73,0,120
1,note_on,69,0,0
1,note_on,64,58,0
1,note_on,64,0,120
1,note_on,85,0,0
1,note_on,81,0,0
1,note_on,68,52,0
1,note_on,83,68,0
1,note_on,80,57,0
1,note_on,71,52,0
1,note_on,71,0,120
1,note_on,68,0,0
1,note_on,64,57,0
1,note_on,64,0,120
1,note_on,80,0,0
1,note_on,83,0,0
1,note_on,69,64,0
1,note_on,64,64,0
1,note_on,64,0,120
1,note_on,69,0,0
1,note_on,61,60,0
1,note_on,61,0,120
1,note_on,81,70,0
1,note_on,64,54,0
1,note_on,69,54,0
1,note_on,73,59,0
1,note_on,69,0,120
1,note_on,64,0,0
1,note_on,61,60,0
1,note_on,61,0,120
1,note_on,81,0,0
1,note_on,73,0,0
1,note_on,83,70,0
1,note_on,71,64,0
1,note_on,68,64,0
1,note_on,76,59,0
1,note_on,68,0,120
1,note_on,71,0,0
1,note_on,64,60,0
1,note_on,64,0,120
1,note_on,83,0,0
1,note_on,76,0,0
1,note_on,81,61,0
1,note_on,85,73,0
1,note_on,73,66,0
1,note_on,69,66,0
1,note_on,69,0,120
1,note_on,73,0,0
1,note_on,64,61,0
1,note_on,64,0,120
1,note_on,85,0,0
1,note_on,81,0,0
1,note_on,73,56,0
1,note_on,69,56,0
1,note_on,69,0,120
1,note_on,73,0,0
1,note_on,66,61,0
1,note_on,66,0,120
1,note_on,71,60,0
1,note_on,74,60,0
1,note_on,74,0,120
1,note_on,71,0,0
1,note_on,66,57,0
1,note_on,66,0,120
1,note_on,73,60,0
1,note_on,69,60,0
1,note_on,69,0,120
1,note_on,73,0,0
1,note_on,64,66,0
1,note_on,64,0,120
1,note_on,69,47,0
1,note_on,81,50,0
1,note_on,85,60,0
1,note_on,73,47,0
1,note_on,73,0,120
1,note_on,69,0,0
1,note_on,64,50,0
1,note_on,64,0,120
1,note_on,85,0,0
1,note_on,81,0,0
1,note_on,83,59,0
1,note_on,71,45,0
1,note_on,68,45,0
1,note_on,80,49,0
1,note_on,68,0,120
1,note_on,71,0,0
1,note_on,64,49,0
1,note_on,64,0,120
1,note_on,83,0,0
1,note_on,80,0,0
1,note_on,81,53,0
1,note_on,69,53,0
1,note_on,69,0,120
1,note_on,64,48,0
1,note_on,64,0,120
1,note_on,81,0,0
1,note_on,61,50,0
1,note_on,61,0,120
1,note_on,64,41,0
1,note_on,64,0,120
1,note_on,69,48,0
1,note_on,69,0,120
1,note_on,73,50,120
1,note_on,69,50,0
1,note_on,69,0,120
1,note_on,73,0,0
1,note_on,64,50,0
1,note_on,64,0,120
1,note_on,73,44,0
1,note_on,85,52,0
1,note_on,81,52,0
1,note_on,69,44,0
1,note_on,69,0,120
1,note_on,73,0,0
1,note_on,64,49,0
1,note_on,64,0,120
1,note_on,81,0,0
1,note_on,85,0,0
1,note_on,83,53,0
1,note_on,86,53,0
1,note_on,71,45,0
1,note_on,74,45,0
1,note_on,74,0,120
1,note_on,71,0,0
1,note_on,64,50,0
1,note_on,64,0,120
1,note_on,86,0,0
1,note_on,83,0,0
1,note_on,76,46,0
1,note_on,88,55,0
1,note_on,73,46,0
1,note_on,85,55,0
1,note_on,73,0,120
1,note_on,76,0,0
1,note_on,64,50,0
1,note_on,64,0,120
1,note_on,88,0,0
1,note_on,85,0,0
1,note_on,83,53,0
1,note_on,74,45,0
1,note_on,86,53,0
1,note_on,71,45,0
1,note_on,71,0,120
1,note_on,74,0,0
1,note_on,64,49,0
1,note_on,64,0,120
1,note_on,86,0,0
1,note_on,83,0,0
1,note_on,69,44,0
1,note_on,73,44,0
1,note_on,81,52,0
1,note_on,85,52,0
1,note_on,73,0,120
1,note_on,69,0,0
1,note_on,64,48,0
1,note_on,64,0,120
1,note_on,81,0,0
1,note_on,85,0,0
1,note_on,68,50,0
1,note_on,71,50,0
1,note_on,71,0,120
1,note_on,68,0,0
1,note_on,64,50,0
1,note_on,64,0,120
1,note_on,80,52,0
1,note_on,71,44,0
1,note_on,83,52,0
1,note_on,68,44,0
1,note_on,68,0,120
1,note_on,71,0,0
1,note_on,64,49,0
1,note_on,64,0,120
1,note_on,83,0,0
1,note_on,80,0,0
1,note_on,69,45,0
1,note_on,81,53,0
1,note_on,85,53,0
1,note_on,73,45,0
1,note_on,73,0,120
1,note_on,69,0,0
1,note_on,64,50,0
1,note_on,64,0,120
1,note_on,85,0,0
1,note_on,81,0,0
1,note_on,74,46,0
1,note_on,71,46,0
1,note_on,86,55,0
1,note_on,83,55,0
1,note_on,71,0,120
1,note_on,74,0,0
1,note_on,64,50,0
1,note_on,64,0,120
1,note_on,86,0,0
1,note_on,83,0,0
1,note_on,85,53,0
1,note_on,69,45,0
1,note_on,73,45,0
1,note_on,81,53,0
1,note_on,73,0,120
1,note_on,69,0,0
1,note_on,64,49,0
1,note_on,64,0,120
1,note_on,85,0,0
1,note_on,81,0,0
1,note_on,83,52,0
1,note_on,71,44,0
1,note_on,80,52,0
1,note_on,68,44,0
1,note_on,68,0,120
1,note_on,71,0,0
1,note_on,64,48,0
1,note_on,64,0,120
1,note_on,80,0,0
1,note_on,83,0,0
1,note_on,64,54,0
1,note_on,69,54,0
1,note_on,69,0,120
1,note_on,64,0,0
1,note_on,61,50,0
1,note_on,61,0,120
1,note_on,64,45,0
1,note_on,69,45,0
1,note_on,81,54,0
1,note_on,69,0,120
1,note_on,64,0,0
1,note_on,61,50,0
1,note_on,61,0,120
1,note_on,81,0,0
1,note_on,64,54,0
1,note_on,69,54,0
1,note_on,69,0,120
1,note_on,64,0,0
1,note_on,61,50,0
1,note_on,61,0,120
1,note_on,71,55,0
1,note_on,68,55,0
1,note_on,68,0,120
1,note_on,71,0,0
1,note_on,64,51,0
1,note_on,64,0,120
1,note_on,68,47,0
1,note_on,83,56,0
1,note_on,71,47,0
1,note_on,71,0,120
1,note_on,68,0,0
1,note_on,64,51,0
1,note_on,64,0,120
1,note_on,83,0,0
1,note_on,71,50,0
1,note_on,68,50,0
1,note_on,68,0,120
1,note_on,71,0,0
1,note_on,64,48,0
1,note_on,64,0,120
1,note_on,73,46,0
1,note_on,69,46,0
1,note_on,85,55,0
1,note_on,81,55,0
1,note_on,69,0,120
1,note_on,73,0,0
1,note_on,64,50,0
1,note_on,64,0,120
1,note_on,85,0,0
1,note_on,81,0,0
1,note_on,86,53,0
1,note_on,74,45,0
1,note_on,83,53,0
1,note_on,71,45,0
1,note_on,71,0,120
1,note_on,74,0,0
1,note_on,64,49,0
1,note_on,64,0,120
1,note_on,83,0,0
1,note_on,86,0,0
1,note_on,85,52,0
1,note_on,69,44,0
1,note_on,73,44,0
1,note_on,81,52,0
1,note_on,73,0,120
1,note_on,69,0,0
1,note_on,64,48,0
1,note_on,64,0,120
1,note_on,85,0,0
1,note_on,81,0,0
1,note_on,68,44,0
1,note_on,80,52,0
1,note_on,83,52,0
1,note_on,71,44,0
1,note_on,71,0,120
1,note_on,68,0,0
1,note_on,64,49,0
1,note_on,64,0,120
1,note_on,83,0,0
1,note_on,80,0,0
1,note_on,75,56,0
1,note_on,75,0,120
1,note_on,76,53,0
1,note_on,76,0,120
1,note_on,75,56,0
1,note_on,75,0,120
1,note_on,76,53,0
1,note_on,76,0,120
1,note_on,69,60,0
1,note_on,73,60,0
1,note_on,73,0,120
1,note_on,69,0,0
1,note_on,64,60,0
1,note_on,64,0,120
1,note_on,81,57,0
1,note_on,73,52,0
1,note_on,85,68,0
1,note_on,69,52,0
1,note_on,69,0,120
1,note_on,73,0,0
1,note_on,64,58,0
1,note_on,64,0,120
1,note_on,85,0,0
1,note_on,81,0,0
1,note_on,74,54,0
1,note_on,86,69,0
1,note_on,83,58,0
1,note_on,71,54,0
1,note_on,71,0,120
1,note_on,74,0,0
1,note_on,64,60,0
1,note_on,64,0,120
1,note_on,83,0,0
1,note_on,86,0,0
1,note_on,73,55,0
1,note_on,76,55,0
1,note_on,85,61,0
1,note_on,88,72,0
1,note_on,76,0,120
1,note_on,73,0,0
1,note_on,64,60,0
1,note_on,64,0,120
1,note_on,85,0,0
1,note_on,88,0,0
1,note_on,86,69,0
1,note_on,71,54,0
1,note_on,83,58,0
1,note_on,74,54,0
1,note_on,74,0,120
1,note_on,71,0,0
1,note_on,64,58,0
1,note_on,64,0,120
1,note_on,83,0,0
1,note_on,86,0,0
1,note_on,81,57,0
1,note_on,73,52,0
1,note_on,85,68,0
1,note_on,69,52,0
1,note_on,69,0,120
1,note_on,73,0,0
1,note_on,64,57,0
1,note_on,64,0,120
1,note_on,85,0,0
1,note_on,81,0,0
1,note_on,68,60,0
1,note_on,71,60,0
1,note_on,71,0,120
1,note_on,68,0,0
1,note_on,64,60,0
1,note_on,64,0,120
1,note_on,71,52,0
1,note_on,80,57,0
1,note_on,68,52,0
1,note_on,83,68,0
1,note_on,68,0,120
1,note_on,71,0,0
1,note_on,64,58,0
1,note_on,64,0,120
1,note_on,80,0,0
1,note_on,83,0,0
1,note_on,69,54,0
1,note_on,73,54,0
1,note_on,81,58,0
1,note_on,85,69,0
1,note_on,73,0,120
1,note_on,69,0,0
1,note_on,64,60,0
1,note_on,64,0,120
1,note_on,81,0,0
1,note_on,85,0,0
1,note_on,71,55,0
1,note_on,83,61,0
1,note_on,86,72,0
1,note_on,74,55,0
1,note_on,74,0,120
1,note_on,71,0,0
1,note_on,64,60,0
1,note_on,64,0,120
1,note_on,86,0,0
1,note_on,83,0,0
1,note_on,73,54,0
1,note_on,85,69,0
1,note_on,81,58,0
1,note_on,69,54,0
1,note_on,69,0,120
1,note_on,73,0,0
1,note_on,64,58,0
1,note_on,64,0,120
1,note_on,81,0,0
1,note_on,85,0,0
1,note_on,71,52,0
1,note_on,83,68,0
1,note_on,80,57,0
1,note_on,68,52,0
1,note_on,68,0,120
1,note_on,71,0,0
1,note_on,64,57,0
1,note_on,64,0,120
1,note_on,80,0,0
1,note_on,83,0,0
1,note_on,69,64,0
1,note_on,64,64,0
1,note_on,64,0,120
1,note_on,69,0,0
1,note_on,61,60,0
1,note_on,61,0,120
1,note_on,81,70,0
1,note_on,64,54,0
1,note_on,69,54,0
1,note_on,73,59,0
1,note_on,69,0,120
1,note_on,64,0,0
1,note_on,61,60,0
1,note_on,61,0,120
1,note_on,81,0,0
1,note_on,73,0,0
1,note_on,68,64,0
1,note_on,76,59,0
1,note_on,71,64,0
1,note_on,83,70,0
1,note_on,71,0,120
1,note_on,68,0,0
1,note_on,64,60,0
1,note_on,64,0,120
1,note_on,76,0,0
1,note_on,83,0,0
1,note_on,69,66,0
1,note_on,85,73,0
1,note_on,73,66,0
1,note_on,81,61,0
1,note_on,73,0,120
1,note_on,69,0,0
1,note_on,64,61,0
1,note_on,64,0,120
1,note_on,85,0,0
1,note_on,81,0,0
1,note_on,73,56,0
1,note_on,69,56,0
1,note_on,69,0,120
1,note_on,73,0,0
1,note_on,66,61,0
1,note_on,66,0,120
1,note_on,71,60,0
1,note_on,74,60,0
1,note_on,74,0,120
1,note_on,71,0,0
1,note_on,66,57,0
1,note_on,66,0,120
1,note_on,69,60,0
1,note_on,73,60,0
1,note_on,73,0,120
1,note_on,69,0,0
1,note_on,64,66,0
1,note_on,64,0,120
1,note_on,85,60,0
1,note_on,81,50,0
1,note_on,69,47,0
1,note_on,73,47,0
1,note_on,73,0,120
1,note_on,69,0,0
1,note_on,64,50,0
1,note_on,64,0,120
1,note_on,81,0,0
1,note_on,85,0,0
1,note_on,80,49,0
1,note_on,71,45,0
1,note_on,83,59,0
1,note_on,68,45,0
1,note_on,68,0,120
1,note_on,71,0,0
1,note_on,64,49,0
1,note_on,64,0,120
1,note_on,83,0,0
1,note_on,80,0,0
1,note_on,69,53,0
1,note_on,81,53,0
1,note_on,69,0,120
1,note_on,64,48,0
1,note_on,64,0,120
1,note_on,81,0,0
1,note_on,61,50,0
1,note_on,61,0,120
1,note_on,64,41,0
1,note_on,64,0,120
1,note_on,69,48,0
1,note_on,69,0,120
1,note_on,76,54,120
1,note_on,76,0,360
1,note_on,78,54,0
1,note_on,78,0,60
1,note_on,76,50,0
1,note_on,76,0,60
1,note_on,74,55,0
1,note_on,74,0,60
1,note_on,73,54,0
1,note_on,73,0,60
1,note_on,71,53,0
1,note_on,71,0,60
1,note_on,69,52,0
1,note_on,69,0,60
1,note_on,77,57,0
1,note_on,77,0,120
1,note_on,78,54,0
1,note_on,78,0,114
1,note_on,78,54,6
1,note_on,78,0,120
1,note_on,81,58,360
1,note_on,81,0,120
1,note_on,80,55,0
1,note_on,80,0,120
1,note_on,83,58,0
1,note_on,83,0,120
1,note_on,81,58,0
1,note_on,81,0,120
1,note_on,80,59,0
1,note_on,80,0,120
1,note_on,78,60,0
1,note_on,78,0,120
1,note_on,75,62,0
1,note_on,75,0,120
1,note_on,76,57,0
1,note_on,76,0,112
1,note_on,76,57,8
1,note_on,76,0,120
1,note_on,76,63,360
1,note_on,76,0,360
1,note_on,78,55,0
1,note_on,78,0,60
1,note_on,76,50,0
1,note_on,76,0,60
1,note_on,74,58,0
1,note_on,74,0,60
1,note_on,73,56,0
1,note_on,73,0,60
1,note_on,71,54,0
1,note_on,71,0,60
1,note_on,69,53,0
1,note_on,69,0,60
1,note_on,76,63,0
1,note_on,76,0,120
1,note_on,74,63,0
1,note_on,74,0,240
1,note_on,78,55,0
1,note_on,78,0,60
1,note_on,76,50,0
1,note_on,76,0,60
1,note_on,74,58,0
1,note_on,74,0,60
1,note_on,73,56,0
1,note_on,73,0,60
1,note_on,71,54,0
1,note_on,71,0,60
1,note_on,69,53,0
1,note_on,69,0,60
1,note_on,69,62,0
1,note_on,69,0,240
1,note_on,68,58,0
1,note_on,68,0,240
1,note_on,63,50,0
1,note_on,69,59,0
1,note_on,69,0,240
1,note_on,63,0,0
1,note_on,64,53,0
1,note_on,69,53,0
1,note_on,73,63,0
1,note_on,73,0,480
1,note_on,69,0,0
1,note_on,71,47,0
1,note_on,68,39,0
1,note_on,68,0,240
1,note_on,71,0,0
1,note_on,64,0,0
1,note_on,73,49,0
1,note_on,69,49,0
1,note_on,69,0,120
1,note_on,73,0,0
1,note_on,64,49,0
1,note_on,64,0,120
1,note_on,85,56,0
1,note_on,73,43,0
1,note_on,69,43,0
1,note_on,81,47,0
1,note_on,69,0,120
1,note_on,73,0,0
1,note_on,64,48,0
1,note_on,64,0,120
1,note_on,85,0,0
1,note_on,81,0,0
1,note_on,83,48,0
1,note_on,71,44,0
1,note_on,86,57,0
1,note_on,74,44,0
1,note_on,74,0,120
1,note_on,71,0,0
1,note_on,64,49,0
1,note_on,64,0,120
1,note_on,86,0,0
1,note_on,83,0,0
1,note_on,76,45,0
1,note_on,85,50,0
1,note_on,88,59,0
1,note_on,73,45,0
1,note_on,73,0,120
1,note_on,76,0,0
1,note_on,64,49,0
1,note_on,64,0,120
1,note_on,88,0,0
1,note_on,85,0,0
1,note_on,83,48,0
1,note_on,86,57,0
1,note_on,71,44,0
1,note_on,74,44,0
1,note_on,74,0,120
1,note_on,71,0,0
1,note_on,64,48,0
1,note_on,64,0,120
1,note_on,86,0,0
1,note_on,83,0,0
1,note_on,81,47,0
1,note_on,69,43,0
1,note_on,85,56,0
1,note_on,73,43,0
1,note_on,73,0,120
1,note_on,69,0,0
1,note_on,64,47,0
1,note_on,64,0,120
1,note_on,85,0,0
1,note_on,81,0,0
1,note_on,71,49,0
1,note_on,68,49,0
1,note_on,68,0,120
1,note_on,71,0,0
1,note_on,64,49,0
1,note_on,64,0,120
1,note_on,83,56,0
1,note_on,71,43,0
1,note_on,80,47,0
1,note_on,68,43,0
1,note_on,68,0,120
1,note_on,71,0,0
1,note_on,64,48,0
1,note_on,64,0,120
1,note_on,80,0,0
1,note_on,83,0,0
1,note_on,69,44,0
1,note_on,85,57,0
1,note_on,81,48,0
1,note_on,73,44,0
1,note_on,73,0,120
1,note_on,69,0,0
1,note_on,64,49,0
1,note_on,64,0,120
1,note_on,81,0,0
1,note_on,85,0,0
1,note_on,86,59,0
1,note_on,83,50,0
1,note_on,71,45,0
1,note_on,74,45,0
1,note_on,74,0,120
1,note_on,71,0,0
1,note_on,64,49,0
1,note_on,64,0,120
1,note_on,83,0,0
1,note_on,86,0,0
1,note_on,73,44,0
1,note_on,81,48,0
1,note_on,85,57,0
1,note_on,69,44,0
1,note_on,69,0,120
1,note_on,73,0,0
1,note_on,64,48,0
1,note_on,64,0,120
1,note_on,85,0,0
1,note_on,81,0,0
1,note_on,68,43,0
1,note_on,71,43,0
1,note_on,80,47,0
1,note_on,83,56,0
1,note_on,71,0,120
1,note_on,68,0,0
1,note_on,64,47,0
1,note_on,64,0,120
1,note_on,80,0,0
1,note_on,83,0,0
1,note_on,69,53,0
1,note_on,64,53,0
1,note_on,64,0,120
1,note_on,69,0,0
1,note_on,61,49,0
1,note_on,61,0,120
1,note_on,81,58,0
1,note_on,73,48,0
1,note_on,69,44,0
1,note_on,64,44,0
1,note_on,64,0,120
1,note_on,69,0,0
1,note_on,61,49,0
1,note_on,61,0,120
1,note_on,73,0,0
1,note_on,81,0,0
1,note_on,76,48,0
1,note_on,71,53,0
1,note_on,83,58,0
1,note_on,68,53,0
1,note_on,68,0,120
1,note_on,71,0,0
1,note_on,64,49,0
1,note_on,64,0,120
1,note_on,83,0,0
1,note_on,76,0,0
1,note_on,73,54,0
1,note_on,85,60,0
1,note_on,81,50,0
1,note_on,69,54,0
1,note_on,69,0,120
1,note_on,73,0,0
1,note_on,64,50,0
1,note_on,64,0,120
1,note_on,81,0,0
1,note_on,85,0,0
1,note_on,73,46,0
1,note_on,69,46,0
1,note_on,69,0,120
1,note_on,73,0,0
1,note_on,66,50,0
1,note_on,66,0,120
1,note_on,71,49,0
1,note_on,74,49,0
1,note_on,74,0,120
1,note_on,71,0,0
1,note_on,66,47,0
1,note_on,66,0,120
1,note_on,73,49,0
1,note_on,69,49,0
1,note_on,69,0,120
1,note_on,73,0,0
1,note_on,64,54,0
1,note_on,64,0,120
1,note_on,85,49,0
1,note_on,69,39,0
1,note_on,81,41,0
1,note_on,73,39,0
1,note_on,73,0,120
1,note_on,69,0,0
1,note_on,64,44,0
1,note_on,64,0,120
1,note_on,81,0,0
1,note_on,85,0,0
1,note_on,68,37,0
1,note_on,80,40,0
1,note_on,83,48,0
1,note_on,71,37,0
1,note_on,71,0,120
1,note_on,68,0,0
1,note_on,64,40,0
1,note_on,64,0,120
1,note_on,83,0,0
1,note_on,80,0,0
1,note_on,83,49,0
1,note_on,71,44,0
1,note_on,80,49,0
1,note_on,68,44,0
1,note_on,68,0,120
1,note_on,71,0,0
1,note_on,64,46,0
1,note_on,64,0,120
1,note_on,83,0,0
1,note_on,68,42,0
1,note_on,72,43,0
1,note_on,84,49,0
1,note_on,72,0,120
1,note_on,68,0,0
1,note_on,64,45,0
1,note_on,64,0,120
1,note_on,80,0,0
1,note_on,84,0,0
1,note_on,85,49,0
1,note_on,81,49,0
1,note_on,69,42,0
1,note_on,73,42,0
1,note_on,64,42,109
1,note_on,73,0,11
1,note_on,69,0,0
1,note_on,64,0,109
1,note_on,81,0,11
1,note_on,85,0,0
1,note_on,73,60,0
1,note_on,69,60,0
1,note_on,69,0,120
1,note_on,73,0,0
1,note_on,64,56,0
1,note_on,64,0,120
1,note_on,73,50,0
1,note_on,85,66,0
1,note_on,69,50,0
1,note_on,81,55,0
1,note_on,69,0,120
1,note_on,73,0,0
1,note_on,64,56,0
1,note_on,64,0,120
1,note_on,85,0,0
1,note_on,81,0,0
1,note_on,71,60,0
1,note_on,83,55,0
1,note_on,86,66,0
1,note_on,74,60,0
1,note_on,74,0,120
1,note_on,71,0,0
1,note_on,64,56,0
1,note_on,64,0,120
1,note_on,86,0,0
1,note_on,83,0,0
1,note_on,88,69,0
1,note_on,73,62,0
1,note_on,85,57,0
1,note_on,76,62,0
1,note_on,76,0,120
1,note_on,73,0,0
1,note_on,69,57,0
1,note_on,69,0,120
1,note_on,85,0,0
1,note_on,88,0,0
1,note_on,76,52,0
1,note_on,73,52,0
1,note_on,73,0,120
1,note_on,76,0,0
1,note_on,69,57,0
1,note_on,69,0,120
1,note_on,78,56,0
1,note_on,74,56,0
1,note_on,74,0,120
1,note_on,78,0,0
1,note_on,69,54,0
1,note_on,69,0,120
1,note_on,73,56,0
1,note_on,69,56,0
1,note_on,69,0,120
1,note_on,73,0,0
1,note_on,64,62,0
1,note_on,64,0,120
1,note_on,69,55,0
1,note_on,85,71,0
1,note_on,73,55,0
1,note_on,81,59,0
1,note_on,73,0,120
1,note_on,69,0,0
1,note_on,64,59,0
1,note_on,64,0,120
1,note_on,85,0,0
1,note_on,81,0,0
1,note_on,68,54,0
1,note_on,80,58,0
1,note_on,83,70,0
1,note_on,71,54,0
1,note_on,71,0,120
1,note_on,68,0,0
1,note_on,64,58,0
1,note_on,64,0,120
1,note_on,83,0,0
1,note_on,80,0,0
1,note_on,69,63,0
1,note_on,81,63,0
1,note_on,69,0,120
1,note_on,64,56,0
1,note_on,64,0,120
1,note_on,81,0,0
1,note_on,61,59,0
1,note_on,61,0,120
1,note_on,64,49,0
1,note_on,64,0,120
1,note_on,69,57,0
1,note_on,69,0,120
1,note_on,76,54,120
1,note_on,76,0,360
1,note_on,78,54,0
1,note_on,78,0,60
1,note_on,76,50,0
1,note_on,76,0,60
1,note_on,74,55,0
1,note_on,74,0,60
1,note_on,73,54,0
1,note_on,73,0,60
1,note_on,71,53,0
1,note_on,71,0,60
1,note_on,69,52,0
1,note_on,69,0,60
1,note_on,77,57,0
1,note_on,77,0,120
1,note_on,78,54,0
1,note_on,78,0,111
1,note_on,78,54,9
1,note_on,78,0,120
1,note_on,81,58,360
1,note_on,81,0,120
1,note_on,80,55,0
1,note_on,80,0,120
1,note_on,83,58,0
1,note_on,83,0,120
1,note_on,81,58,0
1,note_on,81,0,120
1,note_on,80,59,0
1,note_on,80,0,120
1,note_on,78,60,0
1,note_on,78,0,120
1,note_on,75,62,0
1,note_on,75,0,120
1,note_on,76,57,0
1,note_on,76,0,112
1,note_on,76,57,8
1,note_on,76,0,120
1,note_on,76,63,360
1,note_on,76,0,360
1,note_on,78,55,0
1,note_on,78,0,60
1,note_on,76,50,0
1,note_on,76,0,60
1,note_on,74,58,0
1,note_on,74,0,60
1,note_on,73,56,0
1,note_on,73,0,60
1,note_on,71,54,0
1,note_on,71,0,60
1,note_on,69,53,0
1,note_on,69,0,60
1,note_on,76,63,0
1,note_on,76,0,120
1,note_on,74,63,0
1,note_on,74,0,240
1,note_on,78,55,0
1,note_on,78,0,60
1,note_on,76,50,0
1,note_on,76,0,60
1,note_on,74,58,0
1,note_on,74,0,60
1,note_on,73,56,0
1,note_on,73,0,60
1,note_on,71,54,0
1,note_on,71,0,60
1,note_on,69,53,0
1,note_on,69,0,60
1,note_on,69,62,0
1,note_on,69,0,240
1,note_on,68,58,0
1,note_on,68,0,240
1,note_on,63,50,0
1,note_on,69,59,0
1,note_on,69,0,240
1,note_on,63,0,0
1,note_on,73,63,0
1,note_on,64,53,0
1,note_on,69,53,0
1,note_on,69,0,480
1,note_on,73,0,0
1,note_on,71,47,0
1,note_on,68,39,0
1,note_on,68,0,240
1,note_on,71,0,0
1,note_on,64,0,0
1,note_on,73,49,0
1,note_on,69,49,0
1,note_on,69,0,120
1,note_on,73,0,0
1,note_on,64,49,0
1,note_on,64,0,120
1,note_on,85,56,0
1,note_on,73,43,0
1,note_on,81,47,0
1,note_on,69,43,0
1,note_on,69,0,120
1,note_on,73,0,0
1,note_on,64,48,0
1,note_on,64,0,120
1,note_on,81,0,0
1,note_on,85,0,0
1,note_on,86,57,0
1,note_on,83,48,0
1,note_on,74,44,0
1,note_on,71,44,0
1,note_on,71,0,120
1,note_on,74,0,0
1,note_on,64,49,0
1,note_on,64,0,120
1,note_on,83,0,0
1,note_on,86,0,0
1,note_on,88,59,0
1,note_on,85,50,0
1,note_on,76,45,0
1,note_on,73,45,0
1,note_on,73,0,120
1,note_on,76,0,0
1,note_on,64,49,0
1,note_on,64,0,120
1,note_on,85,0,0
1,note_on,88,0,0
1,note_on,74,44,0
1,note_on,71,44,0
1,note_on,83,48,0
1,note_on,86,57,0
1,note_on,71,0,120
1,note_on,74,0,0
1,note_on,64,48,0
1,note_on,64,0,120
1,note_on,83,0,0
1,note_on,86,0,0
1,note_on,73,43,0
1,note_on,85,56,0
1,note_on,69,43,0
1,note_on,81,47,0
1,note_on,69,0,120
1,note_on,73,0,0
1,note_on,64,47,0
1,note_on,64,0,120
1,note_on,85,0,0
1,note_on,81,0,0
1,note_on,68,49,0
1,note_on,71,49,0
1,note_on,71,0,120
1,note_on,68,0,0
1,note_on,64,49,0
1,note_on,64,0,120
1,note_on,83,56,0
1,note_on,68,43,0
1,note_on,80,47,0
1,note_on,71,43,0
1,note_on,71,0,120
1,note_on,68,0,0
1,note_on,64,48,0
1,note_on,64,0,120
1,note_on,80,0,0
1,note_on,83,0,0
1,note_on,69,44,0
1,note_on,81,48,0
1,note_on,85,57,0
1,note_on,73,44,0
1,note_on,73,0,120
1,note_on,69,0,0
1,note_on,64,49,0
1,note_on,64,0,120
1,note_on,85,0,0
1,note_on,81,0,0
1,note_on,83,50,0
1,note_on,74,45,0
1,note_on,86,59,0
1,note_on,71,45,0
1,note_on,71,0,120
1,note_on,74,0,0
1,note_on,64,49,0
1,note_on,64,0,120
1,note_on,86,0,0
1,note_on,83,0,0
1,note_on,85,57,0
1,note_on,81,48,0
1,note_on,69,44,0
1,note_on,73,44,0
1,note_on,73,0,120
1,note_on,69,0,0
1,note_on,64,48,0
1,note_on,64,0,120
1,note_on,81,0,0
1,note_on,85,0,0
1,note_on,80,47,0
1,note_on,71,43,0
1,note_on,68,43,0
1,note_on,83,56,0
1,note_on,68,0,120
1,note_on,71,0,0
1,note_on,64,47,0
1,note_on,64,0,120
1,note_on,80,0,0
1,note_on,83,0,0
1,note_on,64,53,0
1,note_on,69,53,0
1,note_on,69,0,120
1,note_on,64,0,0
1,note_on,61,49,0
1,note_on,61,0,120
1,note_on,69,44,0
1,note_on,81,58,0
1,note_on,73,48,0
1,note_on,64,44,0
1,note_on,64,0,120
1,note_on,69,0,0
1,note_on,61,49,0
1,note_on,61,0,120
1,note_on,73,0,0
1,note_on,81,0,0
1,note_on,68,53,0
1,note_on,71,53,0
1,note_on,76,48,0
1,note_on,83,58,0
1,note_on,71,0,120
1,note_on,68,0,0
1,note_on,64,49,0
1,note_on,64,0,120
1,note_on,76,0,0
1,note_on,83,0,0
1,note_on,69,54,0
1,note_on,85,60,0
1,note_on,73,54,0
1,note_on,81,50,0
1,note_on,73,0,120
1,note_on,69,0,0
1,note_on,64,50,0
1,note_on,64,0,120
1,note_on,85,0,0
1,note_on,81,0,0
1,note_on,69,46,0
1,note_on,73,46,0
1,note_on,73,0,120
1,note_on,69,0,0
1,note_on,66,50,0
1,note_on,66,0,120
1,note_on,71,49,0
1,note_on,74,49,0
1,note_on,74,0,120
1,note_on,71,0,0
1,note_on,66,47,0
1,note_on,66,0,120
1,note_on,73,49,0
1,note_on,69,49,0
1,note_on,69,0,120
1,note_on,73,0,0
1,note_on,64,54,0
1,note_on,64,0,120
1,note_on,81,41,0
1,note_on,69,39,0
1,note_on,73,39,0
1,note_on,85,49,0
1,note_on,73,0,120
1,note_on,69,0,0
1,note_on,64,44,0
1,note_on,64,0,120
1,note_on,81,0,0
1,note_on,85,0,0
1,note_on,80,40,0
1,note_on,71,37,0
1,note_on,68,37,0
1,note_on,83,48,0
1,note_on,68,0,120
1,note_on,71,0,0
1,note_on,64,40,0
1,note_on,64,0,120
1,note_on,80,0,0
1,note_on,83,0,0
1,note_on,68,44,0
1,note_on,71,44,0
1,note_on,83,49,0
1,note_on,80,49,0
1,note_on,71,0,120
1,note_on,68,0,0
1,note_on,64,46,0
1,note_on,64,0,120
1,note_on,83,0,0
1,note_on,84,49,0
1,note_on,68,42,0
1,note_on,72,43,0
1,note_on,72,0,120
1,note_on,68,0,0
1,note_on,64,45,0
1,note_on,64,0,120
1,note_on,84,0,0
1,note_on,80,0,0
1,note_on,73,42,0
1,note_on,85,49,0
1,note_on,69,42,0
1,note_on,81,49,0
1,note_on,64,42,109
1,note_on,69,0,11
1,note_on,73,0,0
1,note_on,64,0,109
1,note_on,81,0,11
1,note_on,85,0,0
1,note_on,73,60,0
1,note_on,69,60,0
1,note_on,69,0,120
1,note_on,73,0,0
1,note_on,64,56,0
1,note_on,64,0,120
1,note_on,85,66,0
1,note_on,73,50,0
1,note_on,69,50,0
1,note_on,81,55,0
1,note_on,69,0,120
1,note_on,73,0,0
1,note_on,64,56,0
1,note_on,64,0,120
1,note_on,85,0,0
1,note_on,81,0,0
1,note_on,86,66,0
1,note_on,74,60,0
1,note_on,83,55,0
1,note_on,71,60,0
1,note_on,71,0,120
1,note_on,74,0,0
1,note_on,64,56,0
1,note_on,64,0,120
1,note_on,83,0,0
1,note_on,86,0,0
1,note_on,88,69,0
1,note_on,76,62,0
1,note_on,85,57,0
1,note_on,73,62,0
1,note_on,73,0,120
1,note_on,76,0,0
1,note_on,69,57,0
1,note_on,69,0,120
1,note_on,85,0,0
1,note_on,88,0,0
1,note_on,73,52,0
1,note_on,76,52,0
1,note_on,76,0,120
1,note_on,73,0,0
1,note_on,69,57,0
1,note_on,69,0,120
1,note_on,74,56,0
1,note_on,78,56,0
1,note_on,78,0,120
1,note_on,74,0,0
1,note_on,69,54,0
1,note_on,69,0,120
1,note_on,73,56,0
1,note_on,69,56,0
1,note_on,69,0,120
1,note_on,73,0,0
1,note_on,64,62,0
1,note_on,64,0,120
1,note_on,85,71,0
1,note_on,69,55,0
1,note_on,81,59,0
1,note_on,73,55,0
1,note_on,73,0,120
1,note_on,69,0,0
1,note_on,64,59,0
1,note_on,64,0,120
1,note_on,81,0,0
1,note_on,85,0,0
1,note_on,71,54,0
1,note_on,80,58,0
1,note_on,68,54,0
1,note_on,83,70,0
1,note_on,68,0,120
1,note_on,71,0,0
1,note_on,64,58,0
1,note_on,64,0,120
1,note_on,80,0,0
1,note_on,83,0,0
1,note_on,69,63,0
1,note_on,81,63,0
1,note_on,69,0,120
1,note_on,64,56,0
1,note_on,64,0,120
1,note_on,81,0,0
1,note_on,61,59,0
1,note_on,61,0,120
1,note_on,64,49,0
1,note_on,64,0,120
1,note_on,69,57,0
1,note_on,69,0,120
1,note_on,73,50,1560
1,note_on,73,0,480
1,note_on,73,50,0
1,note_on,73,0,720
1,note_on,74,53,0
1,note_on,74,0,240
1,note_on,78,56,0
1,note_on,78,0,240
1,note_on,76,50,0
1,note_on,76,0,240
1,note_on,76,50,240
1,note_on,76,0,240
1,note_on,78,54,0
1,note_on,78,0,120
1,note_on,76,50,0
1,note_on,76,0,120
1,note_on,74,50,0
1,note_on,74,0,120
1,note_on,73,50,0
1,note_on,73,0,111
1,note_on,73,54,9
1,note_on,73,0,240
1,note_on,71,50,0
1,note_on,71,0,234
1,note_on,71,50,6
1,note_on,71,0,720
1,note_on,73,54,0
1,note_on,73,0,240
1,note_on,76,57,0
1,note_on,76,0,240
1,note_on,74,53,0
1,note_on,74,0,240
1,note_on,74,50,240
1,note_on,74,0,240
1,note_on,76,56,0
1,note_on,76,0,120
1,note_on,74,50,0
1,note_on,74,0,120
1,note_on,73,50,0
1,note_on,73,0,120
1,note_on,71,50,0
1,note_on,71,0,112
1,note_on,71,57,8
1,note_on,71,0,240
1,note_on,69,53,0
1,note_on,69,0,240
1,note_on,69,53,120
1,note_on,69,0,120
1,note_on,68,56,0
1,note_on,68,0,120
1,note_on,69,53,0
1,note_on,69,0,120
1,note_on,71,58,0
1,note_on,71,0,120
1,note_on,69,55,0
1,note_on,69,0,120
1,note_on,74,62,0
1,note_on,74,0,120
1,note_on,73,58,0
1,note_on,73,0,120
1,note_on,70,63,0
1,note_on,70,0,240
1,note_on,71,58,0
1,note_on,71,0,240
1,note_on,71,49,120
1,note_on,71,0,120
1,note_on,70,53,0
1,note_on,70,0,120
1,note_on,71,49,0
1,note_on,71,0,120
1,note_on,73,53,0
1,note_on,73,0,120
1,note_on,71,49,0
1,note_on,71,0,120
1,note_on,76,53,0
1,note_on,76,0,120
1,note_on,74,49,0
1,note_on,74,0,120
1,note_on,74,53,0
1,note_on,74,0,120
1,note_on,73,45,0
1,note_on,73,0,120
1,note_on,72,49,0
1,note_on,72,0,120
1,note_on,73,46,0
1,note_on,73,0,120
1,note_on,74,55,0
1,note_on,74,0,120
1,note_on,73,46,0
1,note_on,73,0,120
1,note_on,72,50,0
1,note_on,72,0,120
1,note_on,73,47,0
1,note_on,73,0,120
1,note_on,76,59,0
1,note_on,76,0,120
1,note_on,74,51,0
1,note_on,74,0,120
1,note_on,73,53,0
1,note_on,73,0,120
1,note_on,74,51,0
1,note_on,74,0,120
1,note_on,73,62,0
1,note_on,73,0,120
1,note_on,71,52,0
1,note_on,71,0,120
1,note_on,70,53,0
1,note_on,70,0,120
1,note_on,71,49,0
1,note_on,71,0,120
1,note_on,69,63,0
1,note_on,69,0,120
1,note_on,68,50,0
1,note_on,68,0,120
1,note_on,67,54,0
1,note_on,67,0,120
1,note_on,68,51,0
1,note_on,68,0,120
1,note_on,66,64,0
1,note_on,66,0,120
1,note_on,64,54,0
1,note_on,64,0,120
1,note_on,63,56,0
1,note_on,63,0,120
1,note_on,64,54,0
1,note_on,64,0,120
1,note_on,73,71,0
1,note_on,69,71,0
1,note_on,69,0,240
1,note_on,73,0,0
1,note_on,69,65,0
1,note_on,73,65,0
1,note_on,73,0,480
1,note_on,69,0,0
1,note_on,73,50,0
1,note_on,70,50,0
1,note_on,70,0,240
1,note_on,73,0,0
1,note_on,74,50,0
1,note_on,71,50,0
1,note_on,71,0,240
1,note_on,74,0,0
1,note_on,72,50,0
1,note_on,75,50,0
1,note_on,75,0,240
1,note_on,72,0,0
1,note_on,73,53,0
1,note_on,76,53,0
1,note_on,76,0,120
1,note_on,73,0,0
1,note_on,69,49,0
1,note_on,69,0,63
1,note_on,71,50,57
1,note_on,71,0,63
1,note_on,73,51,57
1,note_on,73,0,63
1,note_on,74,52,57
1,note_on,74,0,63
1,note_on,76,53,57
1,note_on,76,0,63
1,note_on,78,54,57
1,note_on,78,0,63
1,note_on,80,55,57
1,note_on,80,0,63
1,note_on,81,56,57
1,note_on,81,0,120
1,note_on,83,57,0
1,note_on,83,0,120
1,note_on,85,58,0
1,note_on,85,0,120
1,note_on,69,71,120
1,note_on,73,71,0
1,note_on,73,0,120
1,note_on,69,0,0
1,note_on,71,63,0
1,note_on,68,62,0
1,note_on,68,0,108
1,note_on,71,0,0
1,note_on,68,65,12
1,note_on,71,65,0
1,note_on,71,0,480
1,note_on,68,0,0
1,note_on,71,50,0
1,note_on,68,50,0
1,note_on,68,0,240
1,note_on,71,0,0
1,note_on,69,50,0
1,note_on,72,50,0
1,note_on,72,0,240
1,note_on,69,0,0
1,note_on,73,50,0
1,note_on,70,50,0
1,note_on,70,0,240
1,note_on,73,0,0
1,note_on,71,53,0
1,note_on,74,53,0
1,note_on,74,0,120
1,note_on,71,0,0
1,note_on,71,49,0
1,note_on,71,0,63
1,note_on,73,50,57
1,note_on,73,0,63
1,note_on,74,51,57
1,note_on,74,0,63
1,note_on,76,52,57
1,note_on,76,0,63
1,note_on,78,53,57
1,note_on,78,0,63
1,note_on,80,54,57
1,note_on,80,0,63
1,note_on,81,55,57
1,note_on,81,0,63
1,note_on,83,56,57
1,note_on,83,0,120
1,note_on,85,57,0
1,note_on,85,0,120
1,note_on,86,58,0
1,note_on,86,0,120
1,note_on,71,57,120
1,note_on,71,0,120
1,note_on,69,53,0
1,note_on,69,0,108
1,note_on,69,53,12
1,note_on,69,0,360
1,note_on,69,53,0
1,note_on,69,0,120
1,note_on,74,56,0
1,note_on,74,0,120
1,note_on,73,53,0
1,note_on,73,0,120
1,note_on,70,55,0
1,note_on,70,0,120
1,note_on,71,52,0
1,note_on,71,0,120
1,note_on,76,52,0
1,note_on,76,0,120
1,note_on,74,53,0
1,note_on,74,0,120
1,note_on,72,58,0
1,note_on,72,0,120
1,note_on,73,53,0
1,note_on,73,0,120
1,note_on,81,54,0
1,note_on,81,0,90
1,note_on,81,55,30
1,note_on,81,0,90
1,note_on,81,57,30
1,note_on,81,0,90
1,note_on,81,55,30
1,note_on,81,0,90
1,note_on,81,55,30
1,note_on,81,0,90
1,note_on,81,55,30
1,note_on,81,0,90
1,note_on,81,58,30
1,note_on,81,0,120
1,note_on,78,52,0
1,note_on,78,0,120
1,note_on,74,54,0
1,note_on,74,0,120
1,note_on,71,52,0
1,note_on,71,0,120
1,note_on,76,59,0
1,note_on,76,0,120
1,note_on,78,54,0
1,note_on,78,0,40
1,note_on,76,54,0
1,note_on,76,0,40
1,note_on,75,54,0
1,note_on,75,0,40
1,note_on,76,59,0
1,note_on,76,0,120
1,note_on,78,56,0
1,note_on,78,0,120
1,note_on,69,58,0
1,note_on,69,0,720
1,note_on,68,53,0
1,note_on,73,53,0
1,note_on,73,0,120
1,note_on,71,50,0
1,note_on,71,0,120
1,note_on,68,0,0
1,note_on,64,45,0
1,note_on,71,53,0
1,note_on,68,45,0
1,note_on,68,0,480
1,note_on,71,0,0
1,note_on,69,44,0
1,note_on,69,0,240
1,note_on,64,43,180
1,note_on,64,0,60
1,note_on,64,0,0
1,note_on,66,46,0
1,note_on,66,0,60
1,note_on,69,42,0
1,note_on,69,0,60
1,note_on,68,46,0
1,note_on,68,0,60
1,note_on,71,44,0
1,note_on,71,0,60
1,note_on,69,44,0
1,note_on,69,0,60
1,note_on,73,40,0
1,note_on,73,0,60
1,note_on,71,44,0
1,note_on,71,0,60
1,note_on,74,41,0
1,note_on,74,0,60
1,note_on,73,50,0
1,note_on,73,0,480
1,note_on,73,50,0
1,note_on,73,0,720
1,note_on,74,53,0
1,note_on,74,0,240
1,note_on,78,56,0
1,note_on,78,0,240
1,note_on,76,50,0
1,note_on,76,0,240
1,note_on,76,50,240
1,note_on,76,0,240
1,note_on,78,54,0
1,note_on,78,0,120
1,note_on,76,50,0
1,note_on,76,0,120
1,note_on,74,50,0
1,note_on,74,0,120
1,note_on,73,50,0
1,note_on,73,0,108
1,note_on,73,54,12
1,note_on,73,0,240
1,note_on,71,50,0
1,note_on,71,0,232
1,note_on,71,50,8
1,note_on,71,0,720
1,note_on,73,54,0
1,note_on,73,0,240
1,note_on,76,57,0
1,note_on,76,0,240
1,note_on,74,53,0
1,note_on,74,0,240
1,note_on,74,50,240
1,note_on,74,0,240
1,note_on,76,56,0
1,note_on,76,0,120
1,note_on,74,50,0
1,note_on,74,0,120
1,note_on,73,50,0
1,note_on,73,0,120
1,note_on,71,50,0
1,note_on,71,0,108
1,note_on,71,57,12
1,note_on,71,0,240
1,note_on,69,53,0
1,note_on,69,0,240
1,note_on,69,53,120
1,note_on,69,0,120
1,note_on,68,56,0
1,note_on,68,0,120
1,note_on,69,53,0
1,note_on,69,0,120
1,note_on,71,58,0
1,note_on,71,0,120
1,note_on,69,55,0
1,note_on,69,0,120
1,note_on,74,62,0
1,note_on,74,0,120
1,note_on,73,58,0
1,note_on,73,0,120
1,note_on,70,63,0
1,note_on,70,0,240
1,note_on,71,58,0
1,note_on,71,0,240
1,note_on,71,49,120
1,note_on,71,0,120
1,note_on,70,53,0
1,note_on,70,0,120
1,note_on,71,49,0
1,note_on,71,0,120
1,note_on,73,53,0
1,note_on,73,0,120
1,note_on,71,49,0
1,note_on,71,0,120
1,note_on,76,53,0
1,note_on,76,0,120
1,note_on,74,49,0
1,note_on,74,0,108
1,note_on,74,53,12
1,note_on,74,0,120
1,note_on,73,49,0
1,note_on,73,0,120
1,note_on,72,49,0
1,note_on,72,0,120
1,note_on,73,49,0
1,note_on,73,0,120
1,note_on,74,55,0
1,note_on,74,0,120
1,note_on,73,50,0
1,note_on,73,0,120
1,note_on,72,50,0
1,note_on,72,0,120
1,note_on,73,50,0
1,note_on,73,0,120
1,note_on,76,59,0
1,note_on,76,0,120
1,note_on,74,53,0
1,note_on,74,0,120
1,note_on,73,53,0
1,note_on,73,0,120
1,note_on,74,53,0
1,note_on,74,0,120
1,note_on,73,62,0
1,note_on,73,0,120
1,note_on,71,53,0
1,note_on,71,0,120
1,note_on,70,53,0
1,note_on,70,0,120
1,note_on,71,53,0
1,note_on,71,0,120
1,note_on,69,63,0
1,note_on,69,0,120
1,note_on,68,54,0
1,note_on,68,0,120
1,note_on,67,54,0
1,note_on,67,0,120
1,note_on,68,54,0
1,note_on,68,0,120
1,note_on,66,64,0
1,note_on,66,0,120
1,note_on,64,56,0
1,note_on,64,0,120
1,note_on,63,56,0
1,note_on,63,0,120
1,note_on,64,56,0
1,note_on,64,0,120
1,note_on,73,71,0
1,note_on,69,71,0
1,note_on,69,0,240
1,note_on,73,0,0
1,note_on,73,65,0
1,note_on,69,65,0
1,note_on,69,0,480
1,note_on,73,0,0
1,note_on,70,50,0
1,note_on,73,50,0
1,note_on,73,0,240
1,note_on,70,0,0
1,note_on,71,50,0
1,note_on,74,50,0
1,note_on,74,0,240
1,note_on,71,0,0
1,note_on,72,50,0
1,note_on,75,50,0
1,note_on,75,0,240
1,note_on,72,0,0
1,note_on,73,53,0
1,note_on,76,53,0
1,note_on,76,0,120
1,note_on,73,0,0
1,note_on,69,49,0
1,note_on,69,0,63
1,note_on,71,50,57
1,note_on,71,0,63
1,note_on,73,51,57
1,note_on,73,0,63
1,note_on,74,52,57
1,note_on,74,0,63
1,note_on,76,53,57
1,note_on,76,0,63
1,note_on,78,54,57
1,note_on,78,0,63
1,note_on,80,55,57
1,note_on,80,0,63
1,note_on,81,56,57
1,note_on,81,0,120
1,note_on,83,57,0
1,note_on,83,0,120
1,note_on,85,58,0
1,note_on,85,0,120
1,note_on,73,71,120
1,note_on,69,71,0
1,note_on,69,0,120
1,note_on,73,0,0
1,note_on,68,62,0
1,note_on,71,63,0
1,note_on,71,0,108
1,note_on,68,0,0
1,note_on,71,65,12
1,note_on,68,65,0
1,note_on,68,0,480
1,note_on,71,0,0
1,note_on,71,50,0
1,note_on,68,50,0
1,note_on,68,0,240
1,note_on,71,0,0
1,note_on,72,50,0
1,note_on,69,50,0
1,note_on,69,0,240
1,note_on,72,0,0
1,note_on,70,50,0
1,note_on,73,50,0
1,note_on,73,0,240
1,note_on,70,0,0
1,note_on,71,53,0
1,note_on,74,53,0
1,note_on,74,0,120
1,note_on,71,0,0
1,note_on,71,49,0
1,note_on,71,0,63
1,note_on,73,50,57
1,note_on,73,0,63
1,note_on,74,51,57
1,note_on,74,0,63
1,note_on,76,52,57
1,note_on,76,0,63
1,note_on,78,53,57
1,note_on,78,0,63
1,note_on,80,54,57
1,note_on,80,0,63
1,note_on,81,55,57
1,note_on,81,0,63
1,note_on,83,56,57
1,note_on,83,0,120
1,note_on,85,57,0
1,note_on,85,0,120
1,note_on,86,58,0
1,note_on,86,0,120
1,note_on,71,57,120
1,note_on,71,0,120
1,note_on,69,53,0
1,note_on,69,0,120
1,note_on,69,53,0
1,note_on,69,0,360
1,note_on,69,53,0
1,note_on,69,0,120
1,note_on,74,56,0
1,note_on,74,0,120
1,note_on,73,53,0
1,note_on,73,0,120
1,note_on,70,55,0
1,note_on,70,0,120
1,note_on,71,52,0
1,note_on,71,0,120
1,note_on,76,52,0
1,note_on,76,0,120
1,note_on,74,53,0
1,note_on,74,0,120
1,note_on,72,58,0
1,note_on,72,0,120
1,note_on,73,53,0
1,note_on,73,0,120
1,note_on,81,54,0
1,note_on,81,0,90
1,note_on,81,55,30
1,note_on,81,0,90
1,note_on,81,57,30
1,note_on,81,0,90
1,note_on,81,55,30
1,note_on,81,0,90
1,note_on,81,55,30
1,note_on,81,0,90
1,note_on,81,55,30
1,note_on,81,0,90
1,note_on,81,58,30
1,note_on,81,0,120
1,note_on,78,56,0
1,note_on,78,0,120
1,note_on,74,54,0
1,note_on,74,0,120
1,note_on,71,49,0
1,note_on,71,0,120
1,note_on,76,59,0
1,note_on,76,0,120
1,note_on,78,54,0
1,note_on,78,0,40
1,note_on,76,54,0
1,note_on,76,0,40
1,note_on,75,54,0
1,note_on,75,0,40
1,note_on,76,59,0
1,note_on,76,0,120
1,note_on,78,56,0
1,note_on,78,0,120
1,note_on,69,58,0
1,note_on,69,0,720
1,note_on,73,53,0
1,note_on,68,53,0
1,note_on,73,0,120
1,note_on,71,50,0
1,note_on,71,0,120
1,note_on,68,0,0
1,note_on,64,45,0
1,note_on,68,45,0
1,note_on,71,53,0
1,note_on,71,0,480
1,note_on,68,0,0
1,note_on,69,46,0
1,note_on,69,0,120
1,note_on,71,43,0
1,note_on,71,0,40
1,note_on,69,45,0
1,note_on,69,0,40
1,note_on,68,46,0
1,note_on,68,0,40
1,note_on,69,52,0
1,note_on,69,0,120
1,note_on,71,54,0
1,note_on,71,0,120
1,note_on,64,0,0
1,note_on,73,55,0
1,note_on,73,0,120
1,note_on,74,40,0
1,note_on,74,0,40
1,note_on,73,40,0
1,note_on,73,0,40
1,note_on,71,40,0
1,note_on,71,0,40
1,note_on,73,51,0
1,note_on,73,0,120
1,note_on,74,52,0
1,note_on,74,0,120
1,note_on,76,57,0
1,note_on,76,0,360
1,note_on,78,47,0
1,note_on,78,0,60
1,note_on,76,47,0
1,note_on,76,0,60
1,note_on,74,58,0
1,note_on,74,0,240
1,note_on,73,53,0
1,note_on,73,0,240
1,note_on,71,57,0
1,note_on,71,0,240
1,note_on,69,52,0
1,note_on,69,0,240
1,note_on,69,64,0
1,note_on,69,0,360
1,note_on,78,57,0
1,note_on,78,0,120
1,note_on,78,61,0
1,note_on,78,0,480
1,note_on,62,68,0
1,note_on,62,0,540
1,note_on,66,44,0
1,note_on,66,0,60
1,note_on,64,45,0
1,note_on,64,0,60
1,note_on,62,46,0
1,note_on,62,0,60
1,note_on,64,47,0
1,note_on,64,0,60
1,note_on,66,48,0
1,note_on,66,0,60
1,note_on,67,49,0
1,note_on,67,0,60
1,note_on,69,50,0
1,note_on,69,0,60
1,note_on,71,51,0
1,note_on,71,0,60
1,note_on,73,52,0
1,note_on,73,0,60
1,note_on,74,53,0
1,note_on,74,0,60
1,note_on,76,54,0
1,note_on,76,0,60
1,note_on,78,55,0
1,note_on,78,0,80
1,note_on,79,56,0
1,note_on,79,0,60
1,note_on,81,57,20
1,note_on,81,0,60
1,note_on,83,62,20
1,note_on,83,0,90
1,note_on,85,68,30
1,note_on,85,0,90
1,note_on,86,75,30
1,note_on,86,0,180
1,note_on,78,61,0
1,note_on,78,0,60
1,note_on,81,68,0
1,note_on,81,0,360
1,note_on,78,60,0
1,note_on,78,0,120
1,note_on,76,65,0
1,note_on,76,0,216
1,note_on,76,57,24
1,note_on,76,0,216
1,note_on,76,57,24
1,note_on,76,0,216
1,note_on,76,57,24
1,note_on,76,0,216
1,note_on,78,59,24
1,note_on,78,0,120
1,note_on,76,47,0
1,note_on,76,0,120
1,note_on,73,47,0
1,note_on,73,0,120
1,note_on,71,47,0
1,note_on,71,0,120
1,note_on,69,53,0
1,note_on,69,0,240
1,note_on,76,47,0
1,note_on,76,0,216
1,note_on,76,47,24
1,note_on,76,0,216
1,note_on,76,47,24
1,note_on,76,0,216
1,note_on,78,58,24
1,note_on,78,0,120
1,note_on,76,48,0
1,note_on,76,0,120
1,note_on,74,48,0
1,note_on,74,0,120
1,note_on,71,48,0
1,note_on,71,0,120
1,note_on,68,52,0
1,note_on,68,0,240
1,note_on,76,49,0
1,note_on,76,0,216
1,note_on,76,51,24
1,note_on,76,0,216
1,note_on,76,53,24
1,note_on,76,0,216
1,note_on,78,65,24
1,note_on,78,0,120
1,note_on,76,55,0
1,note_on,76,0,120
1,note_on,73,58,0
1,note_on,73,0,120
1,note_on,69,55,0
1,note_on,69,0,120
1,note_on,78,68,0
1,note_on,78,0,120
1,note_on,76,57,0
1,note_on,76,0,120
1,note_on,74,59,0
1,note_on,74,0,120
1,note_on,71,57,0
1,note_on,71,0,120
1,note_on,78,70,0
1,note_on,78,0,120
1,note_on,76,57,0
1,note_on,76,0,120
1,note_on,73,60,0
1,note_on,73,0,120
1,note_on,69,57,0
1,note_on,69,0,120
1,note_on,73,71,0
1,note_on,73,0,480
1,note_on,71,61,0
1,note_on,71,0,120
1,note_on,64,43,0
1,note_on,64,0,120
1,note_on,76,53,0
1,note_on,76,0,120
1,note_on,64,43,0
1,note_on,64,0,120
1,note_on,75,51,0
1,note_on,75,0,120
1,note_on,64,43,0
1,note_on,64,0,120
1,note_on,74,52,0
1,note_on,74,0,120
1,note_on,64,42,0
1,note_on,64,0,120
1,note_on,73,55,0
1,note_on,73,0,480
1,note_on,73,51,0
1,note_on,73,0,600
1,note_on,74,48,0
1,note_on,74,0,40
1,note_on,73,47,0
1,note_on,73,0,40
1,note_on,71,47,0
1,note_on,71,0,40
1,note_on,73,47,0
1,note_on,73,0,120
1,note_on,74,51,0
1,note_on,74,0,120
1,note_on,78,54,0
1,note_on,78,0,240
1,note_on,76,51,0
1,note_on,76,0,120
1,note_on,87,62,120
1,note_on,87,0,240
1,note_on,88,57,0
1,note_on,88,0,120
1,note_on,76,51,60
1,note_on,76,0,60
1,note_on,78,57,0
1,note_on,78,0,120
1,note_on,76,51,0
1,note_on,76,0,120
1,note_on,74,51,0
1,note_on,74,0,120
1,note_on,73,51,0
1,note_on,73,0,120
1,note_on,73,55,0
1,note_on,73,0,240
1,note_on,71,55,0
1,note_on,71,0,480
1,note_on,71,51,0
1,note_on,73,47,360
1,note_on,73,0,40
1,note_on,71,47,0
1,note_on,71,0,40
1,note_on,70,47,0
1,note_on,70,0,40
1,note_on,71,0,0
1,note_on,71,51,0
1,note_on,71,0,120
1,note_on,73,51,0
1,note_on,73,0,120
1,note_on,76,54,0
1,note_on,76,0,240
1,note_on,74,51,0
1,note_on,74,0,120
1,note_on,85,60,120
1,note_on,85,0,240
1,note_on,86,57,0
1,note_on,86,0,120
1,note_on,74,51,60
1,note_on,74,0,60
1,note_on,76,57,0
1,note_on,76,0,120
1,note_on,74,51,0
1,note_on,74,0,120
1,note_on,73,51,0
1,note_on,73,0,120
1,note_on,71,51,0
1,note_on,71,0,112
1,note_on,71,57,8
1,note_on,71,0,240
1,note_on,69,54,0
1,note_on,69,0,360
1,note_on,69,57,0
1,note_on,69,0,120
1,note_on,74,61,0
1,note_on,74,0,120
1,note_on,73,57,0
1,note_on,73,0,120
1,note_on,70,61,0
1,note_on,70,0,120
1,note_on,71,57,0
1,note_on,71,0,120
1,note_on,76,57,0
1,note_on,76,0,120
1,note_on,74,57,0
1,note_on,74,0,120
1,note_on,72,60,0
1,note_on,72,0,120
1,note_on,73,57,0
1,note_on,73,0,120
1,note_on,81,60,0
1,note_on,81,0,108
1,note_on,81,61,12
1,note_on,81,0,108
1,note_on,81,62,12
1,note_on,81,0,108
1,note_on,81,64,12
1,note_on,81,0,108
1,note_on,81,66,12
1,note_on,81,0,108
1,note_on,81,68,12
1,note_on,81,0,108
1,note_on,81,69,12
1,note_on,81,0,120
1,note_on,78,59,0
1,note_on,78,0,120
1,note_on,74,62,0
1,note_on,74,0,120
1,note_on,71,59,0
1,note_on,71,0,120
1,note_on,76,64,0
1,note_on,76,0,120
1,note_on,78,59,0
1,note_on,78,0,40
1,note_on,76,59,0
1,note_on,76,0,40
1,note_on,75,59,0
1,note_on,75,0,40
1,note_on,76,64,0
1,note_on,76,0,120
1,note_on,78,61,0
1,note_on,78,0,120
1,note_on,69,66,0
1,note_on,69,0,720
1,note_on,71,45,0
1,note_on,68,45,0
1,note_on,68,0,228
1,note_on,71,0,0
1,note_on,68,52,12
1,note_on,71,52,0
1,note_on,71,0,720
1,note_on,72,51,0
1,note_on,72,0,240
1,note_on,68,0,0
1,note_on,73,51,0
1,note_on,69,51,0
1,note_on,69,0,420
1,note_on,73,0,0
1,note_on,64,61,0
1,note_on,64,0,30
1,note_on,69,62,0
1,note_on,69,0,30
1,note_on,73,68,0
1,note_on,73,0,560
1,note_on,76,63,0
1,note_on,76,0,80
1,note_on,74,63,0
1,note_on,74,0,80
1,note_on,73,66,0
1,note_on,73,0,80
1,note_on,74,62,0
1,note_on,74,0,80
1,note_on,76,62,0
1,note_on,76,0,80
1,note_on,74,66,0
1,note_on,74,0,80
1,note_on,78,62,0
1,note_on,78,0,80
1,note_on,76,62,0
1,note_on,76,0,80
1,note_on,74,66,0
1,note_on,74,0,80
1,note_on,76,63,0
1,note_on,76,0,80
1,note_on,78,63,0
1,note_on,78,0,80
1,note_on,76,62,0
1,note_on,76,0,60
1,note_on,69,63,0
1,note_on,69,0,60
1,note_on,71,64,0
1,note_on,71,0,60
1,note_on,73,65,0
1,note_on,73,0,60
1,note_on,74,65,0
1,note_on,74,0,60
1,note_on,76,65,0
1,note_on,76,0,60
1,note_on,78,66,0
1,note_on,78,0,60
1,note_on,80,67,0
1,note_on,80,0,60
1,note_on,81,68,0
1,note_on,81,0,60
1,note_on,83,69,0
1,note_on,83,0,60
1,note_on,85,70,0
1,note_on,85,0,60
1,note_on,83,71,0
1,note_on,83,0,60
1,note_on,81,71,0
1,note_on,81,0,60
1,note_on,80,70,0
1,note_on,80,0,60
1,note_on,78,70,0
1,note_on,78,0,60
1,note_on,77,69,0
1,note_on,77,0,60
1,note_on,78,68,0
1,note_on,78,0,60
1,note_on,80,67,0
1,note_on,80,0,60
1,note_on,81,65,0
1,note_on,81,0,60
1,note_on,80,64,0
1,note_on,80,0,60
1,note_on,83,62,0
1,note_on,83,0,60
1,note_on,81,61,0
1,note_on,81,0,60
1,note_on,80,59,0
1,note_on,80,0,60
1,note_on,78,58,0
1,note_on,78,0,60
1,note_on,76,62,0
1,note_on,76,0,60
1,note_on,88,52,60
1,note_on,88,0,120
1,note_on,85,52,0
1,note_on,85,0,120
1,note_on,81,60,0
1,note_on,81,0,120
1,note_on,76,52,0
1,note_on,76,0,60
1,note_on,81,52,60
1,note_on,81,0,120
1,note_on,76,51,0
1,note_on,76,0,120
1,note_on,73,51,0
1,note_on,73,0,120
1,note_on,76,57,0
1,note_on,76,0,120
1,note_on,74,51,0
1,note_on,74,0,120
1,note_on,73,51,0
1,note_on,73,0,120
1,note_on,71,51,0
1,note_on,71,0,113
1,note_on,68,51,7
1,note_on,71,58,0
1,note_on,71,0,480
1,note_on,68,0,0
1,note_on,69,52,0
1,note_on,69,0,80
1,note_on,64,45,0
1,note_on,64,0,60
1,note_on,66,45,20
1,note_on,66,0,60
1,note_on,67,50,20
1,note_on,67,0,60
1,note_on,68,47,20
1,note_on,68,0,60
1,note_on,69,47,20
1,note_on,69,0,60
1,note_on,70,49,20
1,note_on,70,0,60
1,note_on,71,44,20
1,note_on,71,0,60
1,note_on,72,44,20
1,note_on,72,0,60
1,note_on,73,48,20
1,note_on,73,0,60
1,note_on,74,44,20
1,note_on,74,0,60
1,note_on,75,44,20
1,note_on,75,0,60
1,note_on,76,57,20
1,note_on,76,0,360
1,note_on,78,47,0
1,note_on,78,0,60
1,note_on,76,47,0
1,note_on,76,0,60
1,note_on,74,58,0
1,note_on,74,0,240
1,note_on,73,53,0
1,note_on,73,0,240
1,note_on,71,57,0
1,note_on,71,0,240
1,note_on,69,52,0
1,note_on,69,0,240
1,note_on,69,61,0
1,note_on,69,0,360
1,note_on,78,55,0
1,note_on,78,0,109
1,note_on,78,59,11
1,note_on,78,0,480
1,note_on,62,68,0
1,note_on,62,0,540
1,note_on,66,44,0
1,note_on,66,0,60
1,note_on,64,45,0
1,note_on,64,0,60
1,note_on,62,46,0
1,note_on,62,0,60
1,note_on,64,47,0
1,note_on,64,0,60
1,note_on,66,48,0
1,note_on,66,0,60
1,note_on,67,49,0
1,note_on,67,0,60
1,note_on,69,50,0
1,note_on,69,0,60
1,note_on,71,51,0
1,note_on,71,0,60
1,note_on,73,52,0
1,note_on,73,0,60
1,note_on,74,53,0
1,note_on,74,0,60
1,note_on,76,54,0
1,note_on,76,0,60
1,note_on,78,55,0
1,note_on,78,0,80
1,note_on,79,56,0
1,note_on,79,0,80
1,note_on,81,57,0
1,note_on,81,0,80
1,note_on,83,62,0
1,note_on,83,0,120
1,note_on,85,68,0
1,note_on,85,0,120
1,note_on,86,75,0
1,note_on,86,0,180
1,note_on,78,61,0
1,note_on,78,0,60
1,note_on,81,68,0
1,note_on,81,0,360
1,note_on,78,60,0
1,note_on,78,0,120
1,note_on,76,65,0
1,note_on,76,0,228
1,note_on,76,57,12
1,note_on,76,0,228
1,note_on,76,57,12
1,note_on,76,0,228
1,note_on,76,57,12
1,note_on,76,0,228
1,note_on,78,60,12
1,note_on,78,0,120
1,note_on,76,50,0
1,note_on,76,0,120
1,note_on,73,50,0
1,note_on,73,0,120
1,note_on,71,50,0
1,note_on,71,0,120
1,note_on,69,55,0
1,note_on,69,0,240
1,note_on,76,46,0
1,note_on,76,0,228
1,note_on,76,46,12
1,note_on,76,0,228
1,note_on,76,46,12
1,note_on,76,0,228
1,note_on,78,61,12
1,note_on,78,0,120
1,note_on,76,51,0
1,note_on,76,0,120
1,note_on,74,51,0
1,note_on,74,0,120
1,note_on,71,51,0
1,note_on,71,0,120
1,note_on,68,54,0
1,note_on,68,0,240
1,note_on,76,52,0
1,note_on,76,0,228
1,note_on,76,53,12
1,note_on,76,0,228
1,note_on,76,55,12
1,note_on,76,0,228
1,note_on,78,65,12
1,note_on,78,0,120
1,note_on,76,55,0
1,note_on,76,0,120
1,note_on,73,58,0
1,note_on,73,0,120
1,note_on,69,54,0
1,note_on,69,0,120
1,note_on,78,68,0
1,note_on,78,0,120
1,note_on,76,56,0
1,note_on,76,0,120
1,note_on,74,59,0
1,note_on,74,0,120
1,note_on,71,54,0
1,note_on,71,0,120
1,note_on,78,70,0
1,note_on,78,0,120
1,note_on,76,56,0
1,note_on,76,0,120
1,note_on,73,60,0
1,note_on,73,0,120
1,note_on,69,55,0
1,note_on,69,0,120
1,note_on,73,71,0
1,note_on,73,0,480
1,note_on,71,61,0
1,note_on,71,0,120
1,note_on,64,44,0
1,note_on,64,0,120
1,note_on,76,53,0
1,note_on,76,0,120
1,note_on,64,40,0
1,note_on,64,0,120
1,note_on,75,51,0
1,note_on,75,0,120
1,note_on,64,39,0
1,note_on,64,0,120
1,note_on,74,52,0
1,note_on,74,0,120
1,note_on,64,40,0
1,note_on,64,0,120
1,note_on,73,55,0
1,note_on,73,0,480
1,note_on,73,51,0
1,note_on,73,0,600
1,note_on,74,48,0
1,note_on,74,0,40
1,note_on,73,47,0
1,note_on,73,0,40
1,note_on,71,47,0
1,note_on,71,0,40
1,note_on,73,47,0
1,note_on,73,0,120
1,note_on,74,51,0
1,note_on,74,0,120
1,note_on,78,54,0
1,note_on,78,0,240
1,note_on,76,51,0
1,note_on,76,0,120
1,note_on,87,61,120
1,note_on,87,0,240
1,note_on,88,57,0
1,note_on,88,0,120
1,note_on,76,51,60
1,note_on,76,0,60
1,note_on,78,57,0
1,note_on,78,0,120
1,note_on,76,51,0
1,note_on,76,0,120
1,note_on,74,51,0
1,note_on,74,0,120
1,note_on,73,51,0
1,note_on,73,0,112
1,note_on,73,55,8
1,note_on,73,0,240
1,note_on,71,55,0
1,note_on,71,0,480
1,note_on,71,51,0
1,note_on,73,47,360
1,note_on,73,0,40
1,note_on,71,47,0
1,note_on,71,0,40
1,note_on,70,47,0
1,note_on,70,0,40
1,note_on,71,0,0
1,note_on,71,51,0
1,note_on,71,0,120
1,note_on,73,51,0
1,note_on,73,0,120
1,note_on,76,54,0
1,note_on,76,0,240
1,note_on,74,51,0
1,note_on,74,0,120
1,note_on,85,60,120
1,note_on,85,0,240
1,note_on,86,57,0
1,note_on,86,0,120
1,note_on,74,51,60
1,note_on,74,0,60
1,note_on,76,57,0
1,note_on,76,0,120
1,note_on,74,51,0
1,note_on,74,0,120
1,note_on,73,51,0
1,note_on,73,0,120
1,note_on,71,51,0
1,note_on,71,0,108
1,note_on,71,57,12
1,note_on,71,0,240
1,note_on,69,54,0
1,note_on,69,0,360
1,note_on,69,57,0
1,note_on,69,0,120
1,note_on,74,61,0
1,note_on,74,0,120
1,note_on,73,57,0
1,note_on,73,0,120
1,note_on,70,61,0
1,note_on,70,0,120
1,note_on,71,57,0
1,note_on,71,0,120
1,note_on,76,57,0
1,note_on,76,0,120
1,note_on,74,57,0
1,note_on,74,0,120
1,note_on,72,60,0
1,note_on,72,0,120
1,note_on,73,57,0
1,note_on,73,0,120
1,note_on,81,60,0
1,note_on,81,0,108
1,note_on,81,61,12
1,note_on,81,0,108
1,note_on,81,62,12
1,note_on,81,0,108
1,note_on,81,64,12
1,note_on,81,0,108
1,note_on,81,66,12
1,note_on,81,0,108
1,note_on,81,68,12
1,note_on,81,0,108
1,note_on,81,69,12
1,note_on,81,0,120
1,note_on,78,57,0
1,note_on,78,0,120
1,note_on,74,62,0
1,note_on,74,0,120
1,note_on,71,55,0
1,note_on,71,0,120
1,note_on,76,64,0
1,note_on,76,0,120
1,note_on,78,59,0
1,note_on,78,0,40
1,note_on,76,59,0
1,note_on,76,0,40
1,note_on,75,59,0
1,note_on,75,0,40
1,note_on,76,64,0
1,note_on,76,0,120
1,note_on,78,61,0
1,note_on,78,0,120
1,note_on,69,66,0
1,note_on,69,0,720
1,note_on,68,45,0
1,note_on,71,45,0
1,note_on,71,0,228
1,note_on,68,0,0
1,note_on,71,52,12
1,note_on,68,52,0
1,note_on,71,0,720
1,note_on,72,51,0
1,note_on,72,0,240
1,note_on,68,0,0
1,note_on,69,51,0
1,note_on,73,51,0
1,note_on,73,0,420
1,note_on,69,0,0
1,note_on,64,61,0
1,note_on,64,0,30
1,note_on,69,62,0
1,note_on,69,0,30
1,note_on,73,68,0
1,note_on,73,0,560
1,note_on,76,63,0
1,note_on,76,0,80
1,note_on,74,63,0
1,note_on,74,0,80
1,note_on,73,66,0
1,note_on,73,0,80
1,note_on,74,62,0
1,note_on,74,0,80
1,note_on,76,62,0
1,note_on,76,0,80
1,note_on,74,66,0
1,note_on,74,0,80
1,note_on,78,62,0
1,note_on,78,0,80
1,note_on,76,62,0
1,note_on,76,0,80
1,note_on,74,66,0
1,note_on,74,0,80
1,note_on,76,63,0
1,note_on,76,0,80
1,note_on,78,63,0
1,note_on,78,0,80
1,note_on,76,62,0
1,note_on,76,0,60
1,note_on,69,63,0
1,note_on,69,0,60
1,note_on,71,64,0
1,note_on,71,0,60
1,note_on,73,65,0
1,note_on,73,0,60
1,note_on,74,65,0
1,note_on,74,0,60
1,note_on,76,65,0
1,note_on,76,0,60
1,note_on,78,66,0
1,note_on,78,0,60
1,note_on,80,67,0
1,note_on,80,0,60
1,note_on,81,68,0
1,note_on,81,0,60
1,note_on,83,69,0
1,note_on,83,0,60
1,note_on,85,70,0
1,note_on,85,0,60
1,note_on,83,71,0
1,note_on,83,0,60
1,note_on,81,71,0
1,note_on,81,0,60
1,note_on,80,70,0
1,note_on,80,0,60
1,note_on,78,70,0
1,note_on,78,0,60
1,note_on,77,69,0
1,note_on,77,0,60
1,note_on,78,68,0
1,note_on,78,0,60
1,note_on,80,67,0
1,note_on,80,0,60
1,note_on,81,65,0
1,note_on,81,0,60
1,note_on,80,64,0
1,note_on,80,0,60
1,note_on,83,62,0
1,note_on,83,0,60
1,note_on,81,61,0
1,note_on,81,0,60
1,note_on,80,59,0
1,note_on,80,0,60
1,note_on,78,58,0
1,note_on,78,0,60
1,note_on,76,62,0
1,note_on,76,0,60
1,note_on,88,52,60
1,note_on,88,0,120
1,note_on,85,52,0
1,note_on,85,0,120
1,note_on,81,60,0
1,note_on,81,0,120
1,note_on,76,52,0
1,note_on,76,0,60
1,note_on,81,52,60
1,note_on,81,0,120
1,note_on,76,51,0
1,note_on,76,0,120
1,note_on,73,51,0
1,note_on,73,0,120
1,note_on,76,57,0
1,note_on,76,0,120
1,note_on,74,47,0
1,note_on,74,0,120
1,note_on,73,51,0
1,note_on,73,0,120
1,note_on,71,46,0
1,note_on,71,0,114
1,note_on,64,32,6
1,note_on,68,36,0
1,note_on,71,41,0
1,note_on,71,0,480
1,note_on,68,0,0
1,note_on,64,0,0
1,note_on,69,34,0
1,note_on,69,0,480
1,note_on,73,50,3360
1,note_on,73,0,60
1,note_on,74,47,150
1,note_on,74,0,30
1,note_on,73,47,0
1,note_on,73,0,120
1,note_on,71,52,0
1,note_on,71,0,120
1,note_on,73,47,0
1,note_on,73,0,60
1,note_on,74,51,180
1,note_on,74,0,60
1,note_on,78,53,180
1,note_on,78,0,240
1,note_on,76,46,0
1,note_on,76,0,240
1,note_on,74,51,0
1,note_on,74,0,60
1,note_on,73,49,180
1,note_on,73,0,60
1,note_on,71,50,180
1,note_on,71,0,60
1,note_on,73,46,150
1,note_on,73,0,30
1,note_on,71,46,0
1,note_on,71,0,120
1,note_on,70,50,0
1,note_on,70,0,120
1,note_on,71,46,0
1,note_on,71,0,60
1,note_on,73,47,180
1,note_on,73,0,60
1,note_on,76,50,180
1,note_on,76,0,240
1,note_on,74,47,0
1,note_on,74,0,240
1,note_on,73,47,0
1,note_on,73,0,60
1,note_on,71,47,180
1,note_on,71,0,60
1,note_on,68,53,180
1,note_on,68,0,240
1,note_on,69,50,0
1,note_on,69,0,60
1,note_on,70,50,420
1,note_on,70,0,60
1,note_on,71,50,420
1,note_on,71,0,60
1,note_on,72,50,420
1,note_on,72,0,60
1,note_on,74,41,150
1,note_on,74,0,30
1,note_on,73,54,0
1,note_on,73,0,60
1,note_on,73,50,180
1,note_on,73,0,60
1,note_on,76,41,150
1,note_on,76,0,30
1,note_on,74,50,0
1,note_on,74,0,60
1,note_on,74,50,180
1,note_on,74,0,60
1,note_on,73,55,180
1,note_on,73,0,480
1,note_on,71,50,0
1,note_on,71,0,240
1,note_on,73,78,240
1,note_on,73,0,120
1,note_on,69,63,0
1,note_on,69,0,120
1,note_on,64,63,0
1,note_on,64,0,120
1,note_on,69,63,0
1,note_on,69,0,120
1,note_on,73,78,0
1,note_on,73,0,120
1,note_on,69,64,0
1,note_on,69,0,120
1,note_on,74,78,0
1,note_on,74,0,120
1,note_on,71,64,0
1,note_on,71,0,120
1,note_on,76,79,0
1,note_on,76,0,120
1,note_on,73,66,0
1,note_on,73,0,120
1,note_on,76,81,0
1,note_on,76,0,120
1,note_on,73,68,0
1,note_on,73,0,120
1,note_on,78,84,0
1,note_on,78,0,120
1,note_on,76,82,0
1,note_on,76,0,120
1,note_on,74,80,0
1,note_on,74,0,120
1,note_on,73,79,0
1,note_on,73,0,120
1,note_on,71,77,0
1,note_on,71,0,120
1,note_on,68,64,0
1,note_on,68,0,120
1,note_on,64,64,0
1,note_on,64,0,120
1,note_on,68,64,0
1,note_on,68,0,120
1,note_on,71,78,0
1,note_on,71,0,120
1,note_on,68,63,0
1,note_on,68,0,120
1,note_on,73,79,0
1,note_on,73,0,120
1,note_on,69,63,0
1,note_on,69,0,120
1,note_on,74,80,0
1,note_on,74,0,120
1,note_on,71,64,0
1,note_on,71,0,120
1,note_on,74,80,0
1,note_on,74,0,120
1,note_on,71,69,0
1,note_on,71,0,120
1,note_on,76,84,0
1,note_on,76,0,120
1,note_on,74,84,0
1,note_on,74,0,120
1,note_on,73,81,0
1,note_on,73,0,120
1,note_on,71,79,0
1,note_on,71,0,120
1,note_on,69,82,0
1,note_on,69,0,120
1,note_on,73,66,0
1,note_on,73,0,120
1,note_on,71,66,0
1,note_on,71,0,120
1,note_on,69,66,0
1,note_on,69,0,120
1,note_on,71,85,0
1,note_on,71,0,120
1,note_on,74,66,0
1,note_on,74,0,120
1,note_on,73,66,0
1,note_on,73,0,120
1,note_on,71,66,0
1,note_on,71,0,120
1,note_on,73,82,0
1,note_on,73,0,120
1,note_on,76,69,0
1,note_on,76,0,120
1,note_on,81,74,0
1,note_on,81,0,120
1,note_on,76,69,0
1,note_on,76,0,120
1,note_on,78,83,0
1,note_on,78,0,120
1,note_on,81,71,0
1,note_on,81,0,120
1,note_on,74,71,0
1,note_on,74,0,120
1,note_on,78,71,0
1,note_on,78,0,120
1,note_on,73,84,0
1,note_on,73,0,120
1,note_on,76,69,0
1,note_on,76,0,120
1,note_on,69,80,0
1,note_on,69,0,120
1,note_on,73,69,0
1,note_on,73,0,120
1,note_on,71,81,0
1,note_on,71,0,120
1,note_on,74,69,0
1,note_on,74,0,120
1,note_on,68,81,0
1,note_on,68,0,120
1,note_on,71,69,0
1,note_on,71,0,120
1,note_on,69,79,0
1,note_on,69,0,120
1,note_on,64,69,0
1,note_on,64,0,120
1,note_on,61,69,0
1,note_on,61,0,120
1,note_on,64,69,0
1,note_on,64,0,120
1,note_on,69,82,0
1,note_on,69,0,420
1,note_on,73,50,60
1,note_on,73,0,60
1,note_on,74,47,150
1,note_on,74,0,30
1,note_on,73,47,0
1,note_on,73,0,120
1,note_on,71,52,0
1,note_on,71,0,120
1,note_on,73,47,0
1,note_on,73,0,60
1,note_on,74,51,180
1,note_on,74,0,60
1,note_on,78,53,180
1,note_on,78,0,240
1,note_on,76,46,0
1,note_on,76,0,240
1,note_on,74,51,0
1,note_on,74,0,60
1,note_on,73,49,180
1,note_on,73,0,60
1,note_on,71,50,180
1,note_on,71,0,60
1,note_on,73,46,150
1,note_on,73,0,30
1,note_on,71,46,0
1,note_on,71,0,120
1,note_on,70,50,0
1,note_on,70,0,120
1,note_on,71,46,0
1,note_on,71,0,60
1,note_on,73,47,180
1,note_on,73,0,60
1,note_on,76,50,180
1,note_on,76,0,240
1,note_on,74,47,0
1,note_on,74,0,240
1,note_on,73,47,0
1,note_on,73,0,60
1,note_on,71,47,180
1,note_on,71,0,60
1,note_on,68,53,180
1,note_on,68,0,240
1,note_on,69,50,0
1,note_on,69,0,60
1,note_on,70,50,420
1,note_on,70,0,60
1,note_on,71,50,420
1,note_on,71,0,60
1,note_on,72,50,420
1,note_on,72,0,60
1,note_on,74,41,150
1,note_on,74,0,30
1,note_on,73,54,0
1,note_on,73,0,60
1,note_on,73,50,180
1,note_on,73,0,60
1,note_on,76,41,150
1,note_on,76,0,30
1,note_on,74,50,0
1,note_on,74,0,60
1,note_on,74,50,180
1,note_on,74,0,60
1,note_on,73,55,180
1,note_on,73,0,480
1,note_on,71,50,0
1,note_on,71,0,240
1,note_on,73,78,240
1,note_on,73,0,120
1,note_on,69,63,0
1,note_on,69,0,120
1,note_on,64,63,0
1,note_on,64,0,120
1,note_on,69,63,0
1,note_on,69,0,120
1,note_on,73,78,0
1,note_on,73,0,120
1,note_on,69,64,0
1,note_on,69,0,120
1,note_on,74,78,0
1,note_on,74,0,120
1,note_on,71,64,0
1,note_on,71,0,120
1,note_on,76,79,0
1,note_on,76,0,120
1,note_on,73,66,0
1,note_on,73,0,120
1,note_on,76,81,0
1,note_on,76,0,120
1,note_on,73,68,0
1,note_on,73,0,120
1,note_on,78,84,0
1,note_on,78,0,120
1,note_on,76,82,0
1,note_on,76,0,120
1,note_on,74,80,0
1,note_on,74,0,120
1,note_on,73,79,0
1,note_on,73,0,120
1,note_on,71,77,0
1,note_on,71,0,120
1,note_on,68,64,0
1,note_on,68,0,120
1,note_on,64,64,0
1,note_on,64,0,120
1,note_on,68,64,0
1,note_on,68,0,120
1,note_on,71,78,0
1,note_on,71,0,120
1,note_on,68,63,0
1,note_on,68,0,120
1,note_on,73,79,0
1,note_on,73,0,120
1,note_on,69,63,0
1,note_on,69,0,120
1,note_on,74,80,0
1,note_on,74,0,120
1,note_on,71,64,0
1,note_on,71,0,120
1,note_on,74,80,0
1,note_on,74,0,120
1,note_on,71,69,0
1,note_on,71,0,120
1,note_on,76,84,0
1,note_on,76,0,120
1,note_on,74,84,0
1,note_on,74,0,120
1,note_on,73,81,0
1,note_on,73,0,120
1,note_on,71,79,0
1,note_on,71,0,120
1,note_on,69,82,0
1,note_on,69,0,120
1,note_on,73,66,0
1,note_on,73,0,120
1,note_on,71,66,0
1,note_on,71,0,120
1,note_on,69,66,0
1,note_on,69,0,120
1,note_on,71,85,0
1,note_on,71,0,120
1,note_on,74,66,0
1,note_on,74,0,120
1,note_on,73,66,0
1,note_on,73,0,120
1,note_on,71,66,0
1,note_on,71,0,120
1,note_on,73,82,0
1,note_on,73,0,120
1,note_on,76,69,0
1,note_on,76,0,120
1,note_on,81,74,0
1,note_on,81,0,120
1,note_on,76,69,0
1,note_on,76,0,120
1,note_on,78,83,0
1,note_on,78,0,120
1,note_on,81,71,0
1,note_on,81,0,120
1,note_on,74,71,0
1,note_on,74,0,120
1,note_on,78,71,0
1,note_on,78,0,120
1,note_on,73,84,0
1,note_on,73,0,120
1,note_on,76,69,0
1,note_on,76,0,120
1,note_on,69,80,0
1,note_on,69,0,120
1,note_on,73,69,0
1,note_on,73,0,120
1,note_on,71,81,0
1,note_on,71,0,120
1,note_on,74,69,0
1,note_on,74,0,120
1,note_on,68,81,0
1,note_on,68,0,120
1,note_on,71,69,0
1,note_on,71,0,120
1,note_on,69,79,0
1,note_on,69,0,120
1,note_on,64,69,0
1,note_on,64,0,120
1,note_on,61,69,0
1,note_on,61,0,120
1,note_on,64,69,0
1,note_on,64,0,120
1,note_on,69,82,0
1,note_on,69,0,480
1,note_on,69,55,0
1,note_on,69,0,120
1,note_on,71,49,0
1,note_on,71,0,120
1,note_on,73,50,0
1,note_on,73,0,120
1,note_on,74,50,0
1,note_on,74,0,120
1,note_on,76,51,0
1,note_on,76,0,120
1,note_on,78,52,0
1,note_on,78,0,120
1,note_on,80,53,0
1,note_on,80,0,120
1,note_on,81,54,0
1,note_on,81,0,120
1,note_on,80,56,0
1,note_on,80,0,120
1,note_on,78,50,0
1,note_on,78,0,120
1,note_on,77,52,0
1,note_on,77,0,120
1,note_on,78,50,0
1,note_on,78,0,120
1,note_on,77,52,0
1,note_on,77,0,120
1,note_on,78,50,0
1,note_on,78,0,120
1,note_on,77,52,0
1,note_on,77,0,120
1,note_on,78,50,0
1,note_on,78,0,120
1,note_on,81,55,0
1,note_on,81,0,120
1,note_on,80,51,0
1,note_on,80,0,120
1,note_on,81,55,0
1,note_on,81,0,120
1,note_on,80,51,0
1,note_on,80,0,120
1,note_on,83,54,0
1,note_on,83,0,120
1,note_on,81,55,0
1,note_on,81,0,120
1,note_on,80,56,0
1,note_on,80,0,120
1,note_on,78,58,0
1,note_on,78,0,120
1,note_on,78,59,0
1,note_on,78,0,120
1,note_on,76,54,0
1,note_on,76,0,120
1,note_on,75,58,0
1,note_on,75,0,120
1,note_on,76,52,0
1,note_on,76,0,120
1,note_on,75,54,0
1,note_on,75,0,120
1,note_on,76,50,0
1,note_on,76,0,120
1,note_on,75,55,0
1,note_on,75,0,120
1,note_on,76,51,0
1,note_on,76,0,120
1,note_on,76,74,0
1,note_on,76,0,120
1,note_on,81,72,0
1,note_on,81,0,120
1,note_on,85,75,0
1,note_on,85,0,120
1,note_on,83,71,0
1,note_on,83,0,120
1,note_on,81,74,0
1,note_on,81,0,120
1,note_on,80,74,0
1,note_on,80,0,120
1,note_on,78,73,0
1,note_on,78,0,120
1,note_on,76,72,0
1,note_on,76,0,120
1,note_on,74,74,0
1,note_on,74,0,120
1,note_on,80,69,0
1,note_on,80,0,120
1,note_on,83,77,0
1,note_on,83,0,120
1,note_on,81,73,0
1,note_on,81,0,120
1,note_on,80,76,0
1,note_on,80,0,120
1,note_on,78,74,0
1,note_on,78,0,120
1,note_on,76,73,0
1,note_on,76,0,120
1,note_on,74,71,0
1,note_on,74,0,120
1,note_on,73,73,0
1,note_on,76,70,120
1,note_on,73,0,12
1,note_on,81,73,108
1,note_on,76,0,12
1,note_on,80,70,108
1,note_on,81,0,12
1,note_on,78,73,108
1,note_on,80,0,12
1,note_on,76,71,108
1,note_on,78,0,12
1,note_on,74,73,108
1,note_on,76,0,12
1,note_on,73,70,108
1,note_on,74,0,12
1,note_on,71,72,108
1,note_on,73,0,12
1,note_on,69,68,108
1,note_on,71,0,12
1,note_on,68,66,108
1,note_on,69,0,12
1,note_on,66,64,108
1,note_on,68,0,12
1,note_on,64,61,108
1,note_on,66,0,12
1,note_on,64,0,108
1,note_on,73,50,360
1,note_on,73,0,60
1,note_on,74,47,150
1,note_on,74,0,30
1,note_on,73,47,0
1,note_on,73,0,120
1,note_on,71,52,0
1,note_on,71,0,120
1,note_on,73,47,0
1,note_on,73,0,60
1,note_on,74,51,180
1,note_on,74,0,60
1,note_on,78,53,180
1,note_on,78,0,240
1,note_on,76,46,0
1,note_on,76,0,240
1,note_on,74,51,0
1,note_on,74,0,60
1,note_on,73,49,180
1,note_on,73,0,60
1,note_on,71,50,180
1,note_on,71,0,60
1,note_on,73,46,150
1,note_on,73,0,30
1,note_on,71,46,0
1,note_on,71,0,120
1,note_on,70,50,0
1,note_on,70,0,120
1,note_on,71,46,0
1,note_on,71,0,60
1,note_on,73,47,180
1,note_on,73,0,60
1,note_on,76,50,180
1,note_on,76,0,240
1,note_on,74,47,0
1,note_on,74,0,240
1,note_on,73,47,0
1,note_on,73,0,60
1,note_on,71,47,180
1,note_on,71,0,60
1,note_on,68,53,180
1,note_on,68,0,240
1,note_on,69,50,0
1,note_on,69,0,60
1,note_on,71,50,420
1,note_on,71,0,60
1,note_on,72,40,390
1,note_on,72,0,30
1,note_on,73,50,0
1,note_on,73,0,60
1,note_on,76,40,390
1,note_on,76,0,30
1,note_on,74,50,0
1,note_on,74,0,60
1,note_on,74,40,390
1,note_on,74,0,30
1,note_on,73,50,0
1,note_on,73,0,60
1,note_on,73,40,390
1,note_on,73,0,30
1,note_on,71,50,0
1,note_on,71,0,60
1,note_on,71,51,180
1,note_on,68,43,0
1,note_on,71,0,240
1,note_on,72,51,0
1,note_on,72,0,240
1,note_on,68,0,0
1,note_on,69,40,0
1,note_on,73,48,0
1,note_on,73,0,240
1,note_on,69,0,0
1,note_on,73,82,240
1,note_on,73,0,120
1,note_on,69,66,0
1,note_on,69,0,120
1,note_on,76,81,0
1,note_on,76,0,120
1,note_on,73,66,0
1,note_on,73,0,120
1,note_on,74,85,0
1,note_on,74,0,120
1,note_on,71,66,0
1,note_on,71,0,120
1,note_on,78,79,0
1,note_on,78,0,120
1,note_on,74,66,0
1,note_on,74,0,120
1,note_on,76,82,0
1,note_on,76,0,120
1,note_on,73,69,0
1,note_on,73,0,120
1,note_on,81,74,0
1,note_on,81,0,120
1,note_on,76,69,0
1,note_on,76,0,120
1,note_on,80,83,0
1,note_on,80,0,120
1,note_on,78,71,0
1,note_on,78,0,120
1,note_on,76,71,0
1,note_on,76,0,120
1,note_on,74,71,0
1,note_on,74,0,120
1,note_on,73,84,0
1,note_on,73,0,120
1,note_on,76,69,0
1,note_on,76,0,120
1,note_on,69,80,0
1,note_on,69,0,120
1,note_on,73,69,0
1,note_on,73,0,120
1,note_on,71,81,0
1,note_on,71,0,120
1,note_on,74,69,0
1,note_on,74,0,120
1,note_on,68,81,0
1,note_on,68,0,120
1,note_on,71,69,0
1,note_on,71,0,120
1,note_on,69,79,0
1,note_on,69,0,120
1,note_on,64,69,0
1,note_on,64,0,120
1,note_on,61,69,0
1,note_on,61,0,120
1,note_on,64,69,0
1,note_on,64,0,120
1,note_on,69,82,0
1,note_on,69,0,420
1,note_on,69,55,60
1,note_on,69,0,120
1,note_on,71,49,0
1,note_on,71,0,120
1,note_on,73,50,0
1,note_on,73,0,120
1,note_on,74,50,0
1,note_on,74,0,120
1,note_on,76,51,0
1,note_on,76,0,120
1,note_on,78,52,0
1,note_on,78,0,120
1,note_on,80,53,0
1,note_on,80,0,120
1,note_on,81,54,0
1,note_on,81,0,120
1,note_on,80,56,0
1,note_on,80,0,120
1,note_on,78,50,0
1,note_on,78,0,120
1,note_on,77,52,0
1,note_on,77,0,120
1,note_on,78,50,0
1,note_on,78,0,120
1,note_on,77,52,0
1,note_on,77,0,120
1,note_on,78,50,0
1,note_on,78,0,120
1,note_on,77,52,0
1,note_on,77,0,120
1,note_on,78,50,0
1,note_on,78,0,120
1,note_on,81,55,0
1,note_on,81,0,120
1,note_on,80,51,0
1,note_on,80,0,120
1,note_on,81,55,0
1,note_on,81,0,120
1,note_on,80,51,0
1,note_on,80,0,120
1,note_on,83,54,0
1,note_on,83,0,120
1,note_on,81,55,0
1,note_on,81,0,120
1,note_on,80,56,0
1,note_on,80,0,120
1,note_on,78,58,0
1,note_on,78,0,120
1,note_on,78,59,0
1,note_on,78,0,120
1,note_on,76,54,0
1,note_on,76,0,120
1,note_on,75,58,0
1,note_on,75,0,120
1,note_on,76,52,0
1,note_on,76,0,120
1,note_on,75,54,0
1,note_on,75,0,120
1,note_on,76,50,0
1,note_on,76,0,120
1,note_on,75,55,0
1,note_on,75,0,120
1,note_on,76,51,0
1,note_on,76,0,120
1,note_on,76,74,0
1,note_on,76,0,120
1,note_on,81,72,0
1,note_on,81,0,120
1,note_on,85,75,0
1,note_on,85,0,120
1,note_on,83,71,0
1,note_on,83,0,120
1,note_on,81,74,0
1,note_on,81,0,120
1,note_on,80,74,0
1,note_on,80,0,120
1,note_on,78,73,0
1,note_on,78,0,120
1,note_on,76,72,0
1,note_on,76,0,120
1,note_on,74,74,0
1,note_on,74,0,120
1,note_on,80,69,0
1,note_on,80,0,120
1,note_on,83,77,0
1,note_on,83,0,120
1,note_on,81,73,0
1,note_on,81,0,120
1,note_on,80,76,0
1,note_on,80,0,120
1,note_on,78,74,0
1,note_on,78,0,120
1,note_on,76,73,0
1,note_on,76,0,120
1,note_on,74,71,0
1,note_on,74,0,120
1,note_on,73,73,0
1,note_on,76,70,120
1,note_on,73,0,12
1,note_on,81,73,108
1,note_on,76,0,12
1,note_on,80,70,108
1,note_on,81,0,12
1,note_on,78,73,108
1,note_on,80,0,12
1,note_on,76,71,108
1,note_on,78,0,12
1,note_on,74,73,108
1,note_on,76,0,12
1,note_on,73,70,108
1,note_on,74,0,12
1,note_on,71,72,108
1,note_on,73,0,12
1,note_on,69,68,108
1,note_on,71,0,12
1,note_on,68,66,108
1,note_on,69,0,12
1,note_on,66,64,108
1,note_on,68,0,12
1,note_on,64,61,108
1,note_on,66,0,12
1,note_on,64,0,108
1,note_on,73,50,360
1,note_on,73,0,60
1,note_on,74,47,150
1,note_on,74,0,30
1,note_on,73,47,0
1,note_on,73,0,120
1,note_on,71,52,0
1,note_on,71,0,120
1,note_on,73,47,0
1,note_on,73,0,60
1,note_on,74,51,180
1,note_on,74,0,60
1,note_on,78,53,180
1,note_on,78,0,240
1,note_on,76,46,0
1,note_on,76,0,240
1,note_on,74,51,0
1,note_on,74,0,60
1,note_on,73,49,180
1,note_on,73,0,60
1,note_on,71,50,180
1,note_on,71,0,60
1,note_on,73,46,150
1,note_on,73,0,30
1,note_on,71,46,0
1,note_on,71,0,120
1,note_on,70,50,0
1,note_on,70,0,120
1,note_on,71,46,0
1,note_on,71,0,60
1,note_on,73,47,180
1,note_on,73,0,60
1,note_on,76,50,180
1,note_on,76,0,240
1,note_on,74,47,0
1,note_on,74,0,240
1,note_on,73,47,0
1,note_on,73,0,60
1,note_on,71,47,180
1,note_on,71,0,60
1,note_on,68,53,180
1,note_on,68,0,240
1,note_on,69,50,0
1,note_on,69,0,60
1,note_on,71,50,420
1,note_on,71,0,60
1,note_on,72,40,390
1,note_on,72,0,30
1,note_on,73,50,0
1,note_on,73,0,60
1,note_on,76,40,390
1,note_on,76,0,30
1,note_on,74,50,0
1,note_on,74,0,60
1,note_on,74,40,390
1,note_on,74,0,30
1,note_on,73,50,0
1,note_on,73,0,60
1,note_on,73,40,390
1,note_on,73,0,30
1,note_on,71,50,0
1,note_on,71,0,60
1,note_on,71,51,180
1,note_on,68,43,0
1,note_on,71,0,240
1,note_on,72,51,0
1,note_on,72,0,240
1,note_on,68,0,0
1,note_on,69,40,0
1,note_on,73,48,0
1,note_on,73,0,240
1,note_on,69,0,0
1,note_on,73,82,240
1,note_on,73,0,120
1,note_on,69,66,0
1,note_on,69,0,120
1,note_on,76,81,0
1,note_on,76,0,120
1,note_on,73,66,0
1,note_on,73,0,120
1,note_on,74,85,0
1,note_on,74,0,120
1,note_on,71,66,0
1,note_on,71,0,120
1,note_on,78,79,0
1,note_on,78,0,120
1,note_on,74,66,0
1,note_on,74,0,120
1,note_on,76,82,0
1,note_on,76,0,120
1,note_on,73,69,0
1,note_on,73,0,120
1,note_on,81,74,0
1,note_on,81,0,120
1,note_on,76,69,0
1,note_on,76,0,120
1,note_on,80,83,0
1,note_on,80,0,120
1,note_on,78,71,0
1,note_on,78,0,120
1,note_on,76,71,0
1,note_on,76,0,120
1,note_on,74,71,0
1,note_on,74,0,120
1,note_on,73,84,0
1,note_on,73,0,120
1,note_on,76,69,0
1,note_on,76,0,120
1,note_on,69,80,0
1,note_on,69,0,120
1,note_on,73,69,0
1,note_on,73,0,120
1,note_on,71,81,0
1,note_on,71,0,120
1,note_on,74,69,0
1,note_on,74,0,120
1,note_on,68,81,0
1,note_on,68,0,120
1,note_on,71,69,0
1,note_on,71,0,110
1,note_on,69,51,10
1,note_on,69,0,120
1,note_on,71,49,0
1,note_on,71,0,120
1,note_on,73,50,0
1,note_on,73,0,120
1,note_on,74,51,0
1,note_on,74,0,120
1,note_on,76,52,0
1,note_on,76,0,120
1,note_on,78,53,0
1,note_on,78,0,120
1,note_on,80,54,0
1,note_on,80,0,120
1,note_on,81,55,0
1,note_on,81,0,100
1,note_on,80,55,20
1,note_on,80,0,120
1,note_on,78,51,0
1,note_on,78,0,120
1,note_on,77,55,0
1,note_on,77,0,120
1,note_on,78,51,0
1,note_on,78,0,120
1,note_on,83,48,0
1,note_on,83,0,120
1,note_on,81,50,0
1,note_on,81,0,120
1,note_on,80,52,0
1,note_on,80,0,60
1,note_on,78,54,60
1,note_on,78,0,60
1,note_on,78,56,60
1,note_on,78,0,120
1,note_on,76,47,0
1,note_on,76,0,120
1,note_on,75,54,0
1,note_on,75,0,120
1,note_on,76,47,0
1,note_on,76,0,120
1,note_on,69,52,0
1,note_on,69,0,120
1,note_on,73,46,0
1,note_on,73,0,120
1,note_on,76,52,0
1,note_on,76,0,120
1,note_on,81,46,0
1,note_on,81,0,120
1,note_on,80,55,0
1,note_on,80,0,120
1,note_on,78,51,0
1,note_on,78,0,120
1,note_on,77,55,0
1,note_on,77,0,120
1,note_on,78,51,0
1,note_on,78,0,120
1,note_on,83,48,0
1,note_on,83,0,120
1,note_on,81,50,0
1,note_on,81,0,120
1,note_on,80,52,0
1,note_on,80,0,60
1,note_on,78,54,60
1,note_on,78,0,60
1,note_on,76,52,60
1,note_on,76,0,356
1,note_on,76,52,4
1,note_on,76,0,60
1,note_on,78,38,0
1,note_on,78,0,20
1,note_on,76,37,0
1,note_on,76,0,20
1,note_on,75,37,0
1,note_on,75,0,20
1,note_on,76,52,0
1,note_on,76,0,480
1,note_on,74,52,360
1,note_on,74,0,60
1,note_on,76,35,0
1,note_on,76,0,20
1,note_on,74,35,0
1,note_on,74,0,20
1,note_on,73,35,0
1,note_on,73,0,20
1,note_on,74,52,0
1,note_on,74,0,480
1,note_on,73,52,360
1,note_on,73,0,60
1,note_on,74,36,0
1,note_on,74,0,20
1,note_on,73,36,0
1,note_on,73,0,20
1,note_on,71,36,0
1,note_on,71,0,20
1,note_on,73,52,0
1,note_on,73,0,480
1,note_on,71,52,360
1,note_on,71,0,60
1,note_on,73,35,0
1,note_on,73,0,20
1,note_on,71,35,0
1,note_on,71,0,20
1,note_on,69,35,0
1,note_on,69,0,20
1,note_on,71,52,0
1,note_on,71,0,480
1,note_on,76,60,120
1,note_on,76,0,120
1,note_on,75,71,0
1,note_on,75,0,120
1,note_on,76,64,0
1,note_on,76,0,120
1,note_on,78,71,0
1,note_on,78,0,120
1,note_on,76,64,0
1,note_on,76,0,120
1,note_on,75,64,0
1,note_on,75,0,120
1,note_on,76,64,0
1,note_on,76,0,120
1,note_on,74,60,120
1,note_on,74,0,120
1,note_on,73,71,0
1,note_on,73,0,120
1,note_on,74,64,0
1,note_on,74,0,120
1,note_on,76,71,0
1,note_on,76,0,120
1,note_on,74,64,0
1,note_on,74,0,120
1,note_on,73,64,0
1,note_on,73,0,120
1,note_on,74,64,0
1,note_on,74,0,120
1,note_on,73,60,120
1,note_on,73,0,120
1,note_on,72,71,0
1,note_on,72,0,120
1,note_on,73,64,0
1,note_on,73,0,120
1,note_on,74,71,0
1,note_on,74,0,120
1,note_on,73,64,0
1,note_on,73,0,120
1,note_on,72,64,0
1,note_on,72,0,120
1,note_on,73,64,0
1,note_on,73,0,120
1,note_on,71,60,120
1,note_on,71,0,120
1,note_on,70,71,0
1,note_on,70,0,120
1,note_on,71,64,0
1,note_on,71,0,120
1,note_on,73,71,0
1,note_on,73,0,120
1,note_on,71,64,0
1,note_on,71,0,120
1,note_on,70,64,0
1,note_on,70,0,120
1,note_on,71,64,0
1,note_on,71,0,120
1,note_on,69,73,0
1,note_on,69,0,120
1,note_on,73,50,120
1,note_on,73,0,120
1,note_on,69,49,0
1,note_on,69,0,120
1,note_on,76,55,0
1,note_on,76,0,120
1,note_on,74,48,0
1,note_on,74,0,120
1,note_on,71,48,0
1,note_on,71,0,60
1,note_on,68,47,60
1,note_on,68,0,60
1,note_on,69,60,60
1,note_on,69,0,480
1,note_on,68,67,0
1,note_on,71,67,0
1,note_on,76,80,0
1,note_on,76,0,120
1,note_on,71,0,0
1,note_on,68,0,0
1,note_on,69,73,360
1,note_on,73,73,0
1,note_on,76,73,0
1,note_on,81,86,0
1,note_on,81,0,120
1,note_on,69,0,0
1,note_on,73,0,0
1,note_on,76,0,0
1,note_on,73,52,120
1,note_on,69,50,120
1,note_on,73,0,10
1,note_on,69,0,110
1,note_on,76,57,0
1,note_on,76,0,120
1,note_on,74,50,0
1,note_on,74,0,120
1,note_on,71,50,0
1,note_on,71,0,60
1,note_on,68,50,60
1,note_on,68,0,60
1,note_on,69,62,60
1,note_on,69,0,120
1,note_on,68,70,360
1,note_on,71,70,0
1,note_on,76,82,0
1,note_on,76,0,120
1,note_on,71,0,0
1,note_on,68,0,0
1,note_on,69,75,360
1,note_on,73,75,0
1,note_on,76,75,0
1,note_on,81,89,0
1,note_on,81,0,120
1,note_on,69,0,0
1,note_on,73,0,0
1,note_on,76,0,0
2,note_on,57,45,0
2,note_on,64,38,0
2,note_on,57,0,360
2,note_on,59,35,0
2,note_on,59,0,120
2,note_on,64,0,0
2,note_on,57,35,0
2,note_on,64,29,0
2,note_on,64,0,240
2,note_on,57,0,0
2,note_on,64,29,0
2,note_on,61,39,0
2,note_on,61,0,480
2,note_on,64,0,0
2,note_on,61,32,0
2,note_on,64,23,0
2,note_on,64,0,216
2,note_on,61,0,0
2,note_on,56,45,24
2,note_on,64,38,0
2,note_on,56,0,360
2,note_on,57,38,0
2,note_on,57,0,120
2,note_on,64,0,0
2,note_on,56,38,0
2,note_on,64,32,0
2,note_on,64,0,240
2,note_on,56,0,0
2,note_on,64,36,0
2,note_on,59,38,0
2,note_on,59,0,480
2,note_on,64,0,0
2,note_on,64,28,0
2,note_on,59,31,0
2,note_on,59,0,216
2,note_on,64,0,0
2,note_on,54,43,24
2,note_on,64,36,0
2,note_on,64,0,480
2,note_on,54,0,0
2,note_on,64,32,0
2,note_on,54,38,0
2,note_on,54,0,240
2,note_on,64,0,0
2,note_on,56,46,0
2,note_on,64,39,0
2,note_on,64,0,480
2,note_on,56,0,0
2,note_on,56,41,0
2,note_on,64,34,0
2,note_on,64,0,240
2,note_on,56,0,0
2,note_on,64,38,0
2,note_on,57,45,0
2,note_on,57,0,480
2,note_on,64,0,0
2,note_on,50,38,0
2,note_on,50,0,240
2,note_on,52,45,0
2,note_on,52,0,720
2,note_on,64,38,0
2,note_on,57,45,0
2,note_on,57,0,360
2,note_on,59,35,0
2,note_on,59,0,120
2,note_on,64,0,0
2,note_on,64,29,0
2,note_on,57,35,0
2,note_on,57,0,240
2,note_on,64,0,0
2,note_on,61,39,0
2,note_on,64,29,0
2,note_on,64,0,480
2,note_on,61,0,0
2,note_on,64,23,0
2,note_on,61,32,0
2,note_on,61,0,216
2,note_on,64,0,0
2,note_on,56,45,24
2,note_on,64,38,0
2,note_on,56,0,360
2,note_on,57,38,0
2,note_on,57,0,120
2,note_on,64,0,0
2,note_on,64,32,0
2,note_on,56,38,0
2,note_on,56,0,240
2,note_on,64,0,0
2,note_on,59,40,0
2,note_on,64,36,0
2,note_on,64,0,480
2,note_on,59,0,0
2,note_on,64,28,0
2,note_on,59,31,0
2,note_on,59,0,216
2,note_on,64,0,0
2,note_on,64,37,24
2,note_on,54,45,0
2,note_on,54,0,480
2,note_on,64,0,0
2,note_on,56,49,0
2,note_on,64,49,0
2,note_on,64,0,240
2,note_on,56,0,0
2,note_on,57,55,0
2,note_on,64,55,0
2,note_on,64,0,480
2,note_on,57,0,0
2,note_on,50,55,0
2,note_on,50,0,240
2,note_on,52,46,0
2,note_on,52,0,480
2,note_on,40,36,0
2,note_on,40,0,240
2,note_on,45,34,0
2,note_on,45,0,480
2,note_on,57,38,240
2,note_on,64,32,0
2,note_on,57,0,360
2,note_on,59,29,0
2,note_on,59,0,120
2,note_on,64,0,0
2,note_on,57,29,0
2,note_on,64,24,0
2,note_on,64,0,240
2,note_on,57,0,0
2,note_on,64,29,0
2,note_on,61,33,0
2,note_on,61,0,480
2,note_on,64,0,0
2,note_on,64,23,0
2,note_on,61,26,0
2,note_on,61,0,216
2,note_on,64,0,0
2,note_on,64,32,24
2,note_on,56,38,0
2,note_on,56,0,360
2,note_on,57,32,0
2,note_on,57,0,120
2,note_on,64,0,0
2,note_on,64,27,0
2,note_on,56,32,0
2,note_on,56,0,240
2,note_on,64,0,0
2,note_on,59,32,0
2,note_on,64,30,0
2,note_on,64,0,480
2,note_on,59,0,0
2,note_on,64,23,0
2,note_on,59,26,0
2,note_on,59,0,216
2,note_on,64,0,0
2,note_on,64,30,24
2,note_on,54,36,0
2,note_on,54,0,480
2,note_on,64,0,0
2,note_on,54,32,0
2,note_on,64,27,0
2,note_on,64,0,240
2,note_on,54,0,0
2,note_on,64,33,0
2,note_on,56,39,0
2,note_on,56,0,480
2,note_on,64,0,0
2,note_on,64,28,0
2,note_on,56,34,0
2,note_on,56,0,240
2,note_on,64,0,0
2,note_on,57,38,0
2,note_on,64,32,0
2,note_on,64,0,480
2,note_on,57,0,0
2,note_on,50,32,0
2,note_on,50,0,240
2,note_on,52,38,0
2,note_on,52,0,720
2,note_on,57,45,0
2,note_on,64,38,0
2,note_on,57,0,360
2,note_on,59,35,0
2,note_on,59,0,120
2,note_on,64,0,0
2,note_on,64,29,0
2,note_on,57,35,0
2,note_on,57,0,240
2,note_on,64,0,0
2,note_on,61,39,0
2,note_on,64,35,0
2,note_on,64,0,480
2,note_on,61,0,0
2,note_on,61,32,0
2,note_on,64,28,0
2,note_on,64,0,216
2,note_on,61,0,0
2,note_on,64,38,24
2,note_on,56,45,0
2,note_on,56,0,360
2,note_on,57,38,0
2,note_on,57,0,120
2,note_on,64,0,0
2,note_on,64,32,0
2,note_on,56,38,0
2,note_on,56,0,240
2,note_on,64,0,0
2,note_on,59,40,0
2,note_on,64,36,0
2,note_on,64,0,480
2,note_on,59,0,0
2,note_on,59,31,0
2,note_on,64,28,0
2,note_on,64,0,216
2,note_on,59,0,0
2,note_on,64,37,24
2,note_on,54,45,0
2,note_on,54,0,480
2,note_on,64,0,0
2,note_on,64,49,0
2,note_on,56,49,0
2,note_on,56,0,240
2,note_on,64,0,0
2,note_on,57,55,0
2,note_on,64,55,0
2,note_on,64,0,480
2,note_on,57,0,0
2,note_on,50,55,0
2,note_on,50,0,240
2,note_on,52,46,0
2,note_on,52,0,480
2,note_on,40,36,0
2,note_on,40,0,240
2,note_on,45,34,0
2,note_on,45,0,480
2,note_on,57,39,240
2,note_on,57,0,240
2,note_on,61,33,0
2,note_on,61,0,240
2,note_on,64,34,0
2,note_on,64,0,240
2,note_on,57,37,0
2,note_on,57,0,240
2,note_on,62,32,0
2,note_on,62,0,240
2,note_on,66,32,0
2,note_on,66,0,240
2,note_on,57,39,0
2,note_on,57,0,240
2,note_on,62,33,0
2,note_on,62,0,240
2,note_on,66,34,0
2,note_on,66,0,240
2,note_on,57,37,0
2,note_on,57,0,240
2,note_on,61,32,0
2,note_on,61,0,240
2,note_on,64,32,0
2,note_on,64,0,120
2,note_on,61,51,120
2,note_on,57,51,0
2,note_on,57,0,480
2,note_on,61,0,0
2,note_on,56,43,240
2,note_on,62,43,0
2,note_on,62,0,480
2,note_on,56,0,0
2,note_on,61,50,240
2,note_on,57,50,0
2,note_on,57,0,480
2,note_on,61,0,0
2,note_on,54,48,0
2,note_on,63,48,0
2,note_on,63,0,220
2,note_on,54,0,0
2,note_on,64,40,20
2,note_on,52,40,0
2,note_on,52,0,696
2,note_on,64,0,0
2,note_on,57,45,24
2,note_on,64,38,0
2,note_on,57,0,360
2,note_on,59,35,0
2,note_on,59,0,120
2,note_on,64,0,0
2,note_on,57,35,0
2,note_on,64,29,0
2,note_on,64,0,240
2,note_on,57,0,0
2,note_on,64,35,0
2,note_on,61,39,0
2,note_on,61,0,480
2,note_on,64,0,0
2,note_on,64,28,0
2,note_on,61,32,0
2,note_on,61,0,216
2,note_on,64,0,0
2,note_on,64,38,24
2,note_on,56,45,0
2,note_on,56,0,360
2,note_on,57,38,0
2,note_on,57,0,120
2,note_on,64,0,0
2,note_on,56,38,0
2,note_on,64,32,0
2,note_on,64,0,240
2,note_on,56,0,0
2,note_on,59,40,0
2,note_on,64,36,0
2,note_on,64,0,480
2,note_on,59,0,0
2,note_on,64,28,0
2,note_on,59,31,0
2,note_on,59,0,216
2,note_on,64,0,0
2,note_on,64,37,24
2,note_on,54,45,0
2,note_on,54,0,480
2,note_on,64,0,0
2,note_on,56,49,0
2,note_on,64,49,0
2,note_on,64,0,240
2,note_on,56,0,0
2,note_on,57,55,0
2,note_on,64,55,0
2,note_on,64,0,480
2,note_on,57,0,0
2,note_on,50,55,0
2,note_on,50,0,240
2,note_on,52,46,0
2,note_on,52,0,480
2,note_on,40,45,0
2,note_on,40,0,240
2,note_on,45,42,0
2,note_on,45,0,720
2,note_on,57,57,0
2,note_on,45,48,0
2,note_on,45,0,480
2,note_on,57,0,0
2,note_on,47,53,0
2,note_on,59,63,0
2,note_on,59,0,240
2,note_on,47,0,0
2,note_on,49,57,0
2,note_on,61,69,0
2,note_on,61,0,480
2,note_on,49,0,0
2,note_on,62,38,0
2,note_on,50,32,0
2,note_on,50,0,240
2,note_on,62,0,0
2,note_on,52,34,0
2,note_on,61,41,0
2,note_on,61,0,480
2,note_on,52,0,0
2,note_on,62,40,0
2,note_on,52,34,0
2,note_on,52,0,240
2,note_on,62,0,0
2,note_on,61,40,0
2,note_on,57,34,0
2,note_on,57,0,480
2,note_on,61,0,0
2,note_on,57,39,240
2,note_on,57,0,240
2,note_on,61,33,0
2,note_on,61,0,240
2,note_on,64,34,0
2,note_on,64,0,240
2,note_on,57,37,0
2,note_on,57,0,240
2,note_on,62,32,0
2,note_on,62,0,240
2,note_on,66,32,0
2,note_on,66,0,240
2,note_on,57,39,0
2,note_on,57,0,240
2,note_on,62,33,0
2,note_on,62,0,240
2,note_on,66,34,0
2,note_on,66,0,240
2,note_on,57,37,0
2,note_on,57,0,240
2,note_on,61,32,0
2,note_on,61,0,240
2,note_on,64,32,0
2,note_on,64,0,120
2,note_on,57,51,120
2,note_on,61,51,0
2,note_on,61,0,480
2,note_on,57,0,0
2,note_on,62,43,240
2,note_on,56,43,0
2,note_on,56,0,480
2,note_on,62,0,0
2,note_on,57,50,240
2,note_on,61,50,0
2,note_on,61,0,480
2,note_on,57,0,0
2,note_on,63,48,0
2,note_on,54,48,0
2,note_on,54,0,220
2,note_on,63,0,0
2,note_on,52,40,20
2,note_on,64,40,0
2,note_on,64,0,696
2,note_on,52,0,0
2,note_on,64,32,24
2,note_on,57,38,0
2,note_on,57,0,360
2,note_on,59,29,0
2,note_on,59,0,120
2,note_on,64,0,0
2,note_on,64,24,0
2,note_on,57,29,0
2,note_on,57,0,240
2,note_on,64,0,0
2,note_on,61,33,0
2,note_on,64,29,0
2,note_on,64,0,480
2,note_on,61,0,0
2,note_on,61,26,0
2,note_on,64,23,0
2,note_on,64,0,216
2,note_on,61,0,0
2,note_on,56,38,24
2,note_on,64,32,0
2,note_on,56,0,360
2,note_on,57,32,0
2,note_on,57,0,120
2,note_on,64,0,0
2,note_on,56,32,0
2,note_on,64,27,0
2,note_on,64,0,240
2,note_on,56,0,0
2,note_on,59,34,0
2,note_on,64,30,0
2,note_on,64,0,480
2,note_on,59,0,0
2,note_on,59,26,0
2,note_on,64,23,0
2,note_on,64,0,216
2,note_on,59,0,0
2,note_on,64,37,24
2,note_on,54,45,0
2,note_on,54,0,480
2,note_on,64,0,0
2,note_on,64,49,0
2,note_on,56,49,0
2,note_on,56,0,240
2,note_on,64,0,0
2,note_on,64,55,0
2,note_on,57,55,0
2,note_on,57,0,480
2,note_on,64,0,0
2,note_on,50,55,0
2,note_on,50,0,240
2,note_on,52,52,0
2,note_on,52,0,480
2,note_on,40,51,0
2,note_on,40,0,240
2,note_on,45,48,0
2,note_on,45,0,720
2,note_on,57,57,0
2,note_on,45,48,0
2,note_on,45,0,480
2,note_on,57,0,0
2,note_on,47,53,0
2,note_on,59,63,0
2,note_on,59,0,240
2,note_on,47,0,0
2,note_on,49,57,0
2,note_on,61,69,0
2,note_on,61,0,480
2,note_on,49,0,0
2,note_on,62,38,0
2,note_on,50,32,0
2,note_on,50,0,240
2,note_on,62,0,0
2,note_on,52,32,0
2,note_on,61,39,0
2,note_on,61,0,480
2,note_on,52,0,0
2,note_on,52,30,0
2,note_on,62,36,0
2,note_on,62,0,240
2,note_on,52,0,0
2,note_on,61,36,0
2,note_on,57,30,0
2,note_on,57,0,480
2,note_on,61,0,0
2,note_on,64,39,1920
2,note_on,57,30,0
2,note_on,57,0,90
2,note_on,64,0,0
2,note_on,61,30,630
2,note_on,64,39,0
2,note_on,64,0,90
2,note_on,61,0,0
2,note_on,56,30,630
2,note_on,64,39,0
2,note_on,64,0,90
2,note_on,56,0,0
2,note_on,59,30,630
2,note_on,64,39,0
2,note_on,64,0,90
2,note_on,59,0,0
2,note_on,54,34,630
2,note_on,64,45,0
2,note_on,64,0,90
2,note_on,54,0,0
2,note_on,64,46,630
2,note_on,56,35,0
2,note_on,56,0,90
2,note_on,64,0,0
2,note_on,64,42,390
2,note_on,57,33,0
2,note_on,57,0,480
2,note_on,64,0,0
2,note_on,54,39,0
2,note_on,50,33,0
2,note_on,50,0,240
2,note_on,54,0,0
2,note_on,52,33,0
2,note_on,56,42,0
2,note_on,56,0,480
2,note_on,52,0,0
2,note_on,45,65,240
2,note_on,45,0,120
2,note_on,57,59,0
2,note_on,57,0,90
2,note_on,57,59,30
2,note_on,57,0,90
2,note_on,57,59,30
2,note_on,57,0,90
2,note_on,57,59,30
2,note_on,57,0,90
2,note_on,57,59,30
2,note_on,57,0,90
2,note_on,45,65,30
2,note_on,45,0,120
2,note_on,57,59,0
2,note_on,57,0,90
2,note_on,57,59,30
2,note_on,57,0,90
2,note_on,57,58,30
2,note_on,57,0,90
2,note_on,57,58,30
2,note_on,57,0,90
2,note_on,57,58,30
2,note_on,57,0,90
2,note_on,40,65,30
2,note_on,40,0,120
2,note_on,52,57,0
2,note_on,52,0,90
2,note_on,52,57,30
2,note_on,52,0,90
2,note_on,52,57,30
2,note_on,52,0,90
2,note_on,52,57,30
2,note_on,52,0,90
2,note_on,52,57,30
2,note_on,52,0,90
2,note_on,40,65,30
2,note_on,40,0,120
2,note_on,52,58,0
2,note_on,52,0,90
2,note_on,52,58,30
2,note_on,52,0,90
2,note_on,52,58,30
2,note_on,52,0,90
2,note_on,52,58,30
2,note_on,52,0,90
2,note_on,52,58,30
2,note_on,52,0,90
2,note_on,42,65,30
2,note_on,42,0,120
2,note_on,54,57,0
2,note_on,54,0,90
2,note_on,54,57,30
2,note_on,54,0,90
2,note_on,54,57,30
2,note_on,54,0,90
2,note_on,44,65,30
2,note_on,44,0,120
2,note_on,56,57,0
2,note_on,56,0,120
2,note_on,45,65,0
2,note_on,45,0,120
2,note_on,57,58,0
2,note_on,57,0,90
2,note_on,57,58,30
2,note_on,57,0,90
2,note_on,57,59,30
2,note_on,57,0,90
2,note_on,38,65,30
2,note_on,38,0,120
2,note_on,50,59,0
2,note_on,50,0,120
2,note_on,40,65,0
2,note_on,40,0,120
2,note_on,52,58,0
2,note_on,52,0,90
2,note_on,52,58,30
2,note_on,52,0,90
2,note_on,52,58,30
2,note_on,52,0,90
2,note_on,40,65,30
2,note_on,40,0,120
2,note_on,52,56,0
2,note_on,52,0,120
2,note_on,33,75,0
2,note_on,33,0,240
2,note_on,45,67,0
2,note_on,45,0,240
2,note_on,57,30,480
2,note_on,64,39,0
2,note_on,64,0,90
2,note_on,57,0,0
2,note_on,61,30,630
2,note_on,64,39,0
2,note_on,64,0,90
2,note_on,61,0,0
2,note_on,56,30,630
2,note_on,64,39,0
2,note_on,64,0,90
2,note_on,56,0,0
2,note_on,59,30,630
2,note_on,64,39,0
2,note_on,64,0,90
2,note_on,59,0,0
2,note_on,54,34,630
2,note_on,64,45,0
2,note_on,64,0,90
2,note_on,54,0,0
2,note_on,64,46,630
2,note_on,56,35,0
2,note_on,56,0,90
2,note_on,64,0,0
2,note_on,64,42,390
2,note_on,57,33,0
2,note_on,57,0,480
2,note_on,64,0,0
2,note_on,54,39,0
2,note_on,50,33,0
2,note_on,50,0,240
2,note_on,54,0,0
2,note_on,56,42,0
2,note_on,52,33,0
2,note_on,52,0,480
2,note_on,56,0,0
2,note_on,45,65,240
2,note_on,45,0,120
2,note_on,57,59,0
2,note_on,57,0,90
2,note_on,57,59,30
2,note_on,57,0,90
2,note_on,57,59,30
2,note_on,57,0,90
2,note_on,57,59,30
2,note_on,57,0,90
2,note_on,57,59,30
2,note_on,57,0,90
2,note_on,45,65,30
2,note_on,45,0,120
2,note_on,57,59,0
2,note_on,57,0,90
2,note_on,57,59,30
2,note_on,57,0,90
2,note_on,57,58,30
2,note_on,57,0,90
2,note_on,57,58,30
2,note_on,57,0,90
2,note_on,57,58,30
2,note_on,57,0,90
2,note_on,40,65,30
2,note_on,40,0,120
2,note_on,52,57,0
2,note_on,52,0,90
2,note_on,52,57,30
2,note_on,52,0,90
2,note_on,52,57,30
2,note_on,52,0,90
2,note_on,52,57,30
2,note_on,52,0,90
2,note_on,52,57,30
2,note_on,52,0,90
2,note_on,40,65,30
2,note_on,40,0,120
2,note_on,52,58,0
2,note_on,52,0,90
2,note_on,52,58,30
2,note_on,52,0,90
2,note_on,52,58,30
2,note_on,52,0,90
2,note_on,52,58,30
2,note_on,52,0,90
2,note_on,52,58,30
2,note_on,52,0,90
2,note_on,42,65,30
2,note_on,42,0,120
2,note_on,54,57,0
2,note_on,54,0,90
2,note_on,54,57,30
2,note_on,54,0,90
2,note_on,54,57,30
2,note_on,54,0,90
2,note_on,44,65,30
2,note_on,44,0,120
2,note_on,56,57,0
2,note_on,56,0,120
2,note_on,45,65,0
2,note_on,45,0,120
2,note_on,57,58,0
2,note_on,57,0,90
2,note_on,57,58,30
2,note_on,57,0,90
2,note_on,57,59,30
2,note_on,57,0,90
2,note_on,38,65,30
2,note_on,38,0,120
2,note_on,50,59,0
2,note_on,50,0,120
2,note_on,40,65,0
2,note_on,40,0,120
2,note_on,52,58,0
2,note_on,52,0,90
2,note_on,52,58,30
2,note_on,52,0,90
2,note_on,52,58,30
2,note_on,52,0,90
2,note_on,40,65,30
2,note_on,40,0,120
2,note_on,52,56,0
2,note_on,52,0,120
2,note_on,33,75,0
2,note_on,33,0,240
2,note_on,45,67,0
2,note_on,45,0,240
2,note_on,61,39,480
2,note_on,57,30,0
2,note_on,57,0,90
2,note_on,61,0,0
2,note_on,57,30,630
2,note_on,62,39,0
2,note_on,62,0,90
2,note_on,57,0,0
2,note_on,66,31,390
2,note_on,57,26,0
2,note_on,57,0,90
2,note_on,66,0,0
2,note_on,57,24,150
2,note_on,64,29,0
2,note_on,64,0,90
2,note_on,57,0,0
2,note_on,57,24,150
2,note_on,62,29,0
2,note_on,62,0,90
2,note_on,57,0,0
2,note_on,61,37,390
2,note_on,57,31,0
2,note_on,57,0,90
2,note_on,61,0,0
2,note_on,57,46,390
2,note_on,64,55,0
2,note_on,61,46,0
2,note_on,61,0,720
2,note_on,64,0,0
2,note_on,57,0,0
2,note_on,64,51,0
2,note_on,59,43,0
2,note_on,62,43,0
2,note_on,62,0,720
2,note_on,59,0,0
2,note_on,64,0,0
2,note_on,64,59,0
2,note_on,61,50,0
2,note_on,61,0,480
2,note_on,64,0,0
2,note_on,57,26,0
2,note_on,54,26,0
2,note_on,63,31,0
2,note_on,63,0,240
2,note_on,54,0,0
2,note_on,57,0,0
2,note_on,64,40,0
2,note_on,52,34,0
2,note_on,52,0,720
2,note_on,64,0,0
2,note_on,57,30,240
2,note_on,64,39,0
2,note_on,64,0,90
2,note_on,57,0,0
2,note_on,64,39,630
2,note_on,61,30,0
2,note_on,61,0,90
2,note_on,64,0,0
2,note_on,64,44,630
2,note_on,56,34,0
2,note_on,56,0,90
2,note_on,64,0,0
2,note_on,64,44,630
2,note_on,59,34,0
2,note_on,59,0,90
2,note_on,64,0,0
2,note_on,54,45,630
2,note_on,64,53,0
2,note_on,64,0,240
2,note_on,54,0,0
2,note_on,56,43,0
2,note_on,64,51,0
2,note_on,64,0,240
2,note_on,56,0,0
2,note_on,56,45,240
2,note_on,64,53,0
2,note_on,64,0,240
2,note_on,56,0,0
2,note_on,59,52,0
2,note_on,50,44,0
2,note_on,50,0,240
2,note_on,59,0,0
2,note_on,57,57,240
2,note_on,52,48,0
2,note_on,52,0,240
2,note_on,57,0,0
2,note_on,56,51,0
2,note_on,52,43,0
2,note_on,52,0,240
2,note_on,56,0,0
2,note_on,57,61,0
2,note_on,57,0,240
2,note_on,52,55,0
2,note_on,52,0,240
2,note_on,45,55,0
2,note_on,45,0,240
2,note_on,33,71,0
2,note_on,33,0,120
2,note_on,45,60,0
2,note_on,45,0,90
2,note_on,45,60,30
2,note_on,45,0,90
2,note_on,45,60,30
2,note_on,45,0,90
2,note_on,35,67,30
2,note_on,35,0,120
2,note_on,47,59,0
2,note_on,47,0,120
2,note_on,37,66,0
2,note_on,37,0,120
2,note_on,49,59,0
2,note_on,49,0,90
2,note_on,49,57,30
2,note_on,49,0,90
2,note_on,49,57,30
2,note_on,49,0,90
2,note_on,38,68,30
2,note_on,38,0,120
2,note_on,50,62,0
2,note_on,50,0,120
2,note_on,40,69,0
2,note_on,40,0,120
2,note_on,52,55,0
2,note_on,52,0,90
2,note_on,52,55,30
2,note_on,52,0,90
2,note_on,52,55,30
2,note_on,52,0,90
2,note_on,40,64,30
2,note_on,40,0,120
2,note_on,52,55,0
2,note_on,52,0,120
2,note_on,33,73,0
2,note_on,33,0,240
2,note_on,45,67,0
2,note_on,45,0,240
2,note_on,57,30,480
2,note_on,61,39,0
2,note_on,61,0,90
2,note_on,57,0,0
2,note_on,62,39,630
2,note_on,57,30,0
2,note_on,57,0,90
2,note_on,62,0,0
2,note_on,57,26,390
2,note_on,66,31,0
2,note_on,66,0,90
2,note_on,57,0,0
2,note_on,57,24,150
2,note_on,64,29,0
2,note_on,64,0,90
2,note_on,57,0,0
2,note_on,62,29,150
2,note_on,57,24,0
2,note_on,57,0,90
2,note_on,62,0,0
2,note_on,61,37,390
2,note_on,57,31,0
2,note_on,57,0,90
2,note_on,61,0,0
2,note_on,64,55,390
2,note_on,61,46,0
2,note_on,57,46,0
2,note_on,57,0,720
2,note_on,61,0,0
2,note_on,64,0,0
2,note_on,59,43,0
2,note_on,64,51,0
2,note_on,62,43,0
2,note_on,62,0,720
2,note_on,64,0,0
2,note_on,59,0,0
2,note_on,61,50,0
2,note_on,64,59,0
2,note_on,64,0,480
2,note_on,61,0,0
2,note_on,54,26,0
2,note_on,63,31,0
2,note_on,57,26,0
2,note_on,57,0,240
2,note_on,63,0,0
2,note_on,54,0,0
2,note_on,52,34,0
2,note_on,64,40,0
2,note_on,64,0,720
2,note_on,52,0,0
2,note_on,57,30,240
2,note_on,64,39,0
2,note_on,64,0,90
2,note_on,57,0,0
2,note_on,64,39,630
2,note_on,61,30,0
2,note_on,61,0,90
2,note_on,64,0,0
2,note_on,64,44,630
2,note_on,56,34,0
2,note_on,56,0,90
2,note_on,64,0,0
2,note_on,59,34,630
2,note_on,64,44,0
2,note_on,64,0,90
2,note_on,59,0,0
2,note_on,64,53,630
2,note_on,54,45,0
2,note_on,54,0,240
2,note_on,64,0,0
2,note_on,56,43,0
2,note_on,64,51,0
2,note_on,64,0,240
2,note_on,56,0,0
2,note_on,56,45,240
2,note_on,64,53,0
2,note_on,64,0,240
2,note_on,56,0,0
2,note_on,50,44,0
2,note_on,59,52,0
2,note_on,59,0,240
2,note_on,50,0,0
2,note_on,57,57,240
2,note_on,52,48,0
2,note_on,52,0,240
2,note_on,57,0,0
2,note_on,56,51,0
2,note_on,52,43,0
2,note_on,52,0,240
2,note_on,56,0,0
2,note_on,57,61,0
2,note_on,57,0,240
2,note_on,52,55,0
2,note_on,52,0,240
2,note_on,45,55,0
2,note_on,45,0,240
2,note_on,33,71,0
2,note_on,33,0,120
2,note_on,45,60,0
2,note_on,45,0,90
2,note_on,45,60,30
2,note_on,45,0,90
2,note_on,45,60,30
2,note_on,45,0,90
2,note_on,35,67,30
2,note_on,35,0,120
2,note_on,47,59,0
2,note_on,47,0,120
2,note_on,37,66,0
2,note_on,37,0,120
2,note_on,49,59,0
2,note_on,49,0,90
2,note_on,49,57,30
2,note_on,49,0,90
2,note_on,49,57,30
2,note_on,49,0,90
2,note_on,38,68,30
2,note_on,38,0,120
2,note_on,50,62,0
2,note_on,50,0,120
2,note_on,40,69,0
2,note_on,40,0,120
2,note_on,52,55,0
2,note_on,52,0,90
2,note_on,52,55,30
2,note_on,52,0,90
2,note_on,52,55,30
2,note_on,52,0,90
2,note_on,40,64,30
2,note_on,40,0,120
2,note_on,52,55,0
2,note_on,52,0,120
2,note_on,33,73,0
2,note_on,33,0,240
2,note_on,45,67,0
2,note_on,45,0,240
2,note_on,57,44,1680
2,note_on,63,31,80
2,note_on,57,0,16
2,note_on,64,31,64
2,note_on,63,0,16
2,note_on,64,0,64
2,note_on,57,40,0
2,note_on,63,30,80
2,note_on,57,0,16
2,note_on,64,30,64
2,note_on,63,0,16
2,note_on,64,0,64
2,note_on,59,40,0
2,note_on,63,30,80
2,note_on,59,0,16
2,note_on,64,30,64
2,note_on,63,0,16
2,note_on,64,0,64
2,note_on,61,41,0
2,note_on,63,29,80
2,note_on,61,0,16
2,note_on,64,29,64
2,note_on,63,0,16
2,note_on,64,0,64
2,note_on,61,40,0
2,note_on,63,31,80
2,note_on,61,0,16
2,note_on,64,31,64
2,note_on,63,0,16
2,note_on,64,0,64
2,note_on,57,40,0
2,note_on,63,36,80
2,note_on,57,0,16
2,note_on,64,36,64
2,note_on,63,0,16
2,note_on,64,0,64
2,note_on,56,44,0
2,note_on,63,31,80
2,note_on,56,0,16
2,note_on,64,31,64
2,note_on,63,0,16
2,note_on,64,0,64
2,note_on,56,40,0
2,note_on,63,33,80
2,note_on,56,0,16
2,note_on,64,33,64
2,note_on,63,0,16
2,note_on,64,0,64
2,note_on,57,40,0
2,note_on,63,34,80
2,note_on,57,0,16
2,note_on,64,34,64
2,note_on,63,0,16
2,note_on,64,0,64
2,note_on,59,45,0
2,note_on,63,34,80
2,note_on,59,0,16
2,note_on,64,34,64
2,note_on,63,0,16
2,note_on,64,0,64
2,note_on,59,38,0
2,note_on,63,31,80
2,note_on,59,0,16
2,note_on,64,31,64
2,note_on,63,0,16
2,note_on,64,0,64
2,note_on,56,40,0
2,note_on,63,36,80
2,note_on,56,0,16
2,note_on,64,36,64
2,note_on,63,0,16
2,note_on,64,0,64
2,note_on,54,44,0
2,note_on,63,33,80
2,note_on,54,0,16
2,note_on,64,33,64
2,note_on,63,0,16
2,note_on,64,0,64
2,note_on,54,40,0
2,note_on,63,35,80
2,note_on,54,0,16
2,note_on,64,35,64
2,note_on,63,0,16
2,note_on,64,0,64
2,note_on,54,40,0
2,note_on,63,35,80
2,note_on,54,0,16
2,note_on,64,36,64
2,note_on,63,0,16
2,note_on,64,0,64
2,note_on,56,44,0
2,note_on,62,35,80
2,note_on,56,0,16
2,note_on,64,35,64
2,note_on,62,0,16
2,note_on,64,0,64
2,note_on,56,40,0
2,note_on,62,35,80
2,note_on,56,0,16
2,note_on,64,35,64
2,note_on,62,0,16
2,note_on,64,0,64
2,note_on,56,40,0
2,note_on,62,34,80
2,note_on,56,0,16
2,note_on,64,34,64
2,note_on,62,0,16
2,note_on,64,0,64
2,note_on,57,44,0
2,note_on,61,34,80
2,note_on,57,0,16
2,note_on,64,34,64
2,note_on,61,0,16
2,note_on,64,0,64
2,note_on,57,40,0
2,note_on,61,33,80
2,note_on,57,0,16
2,note_on,64,33,64
2,note_on,61,0,16
2,note_on,64,0,64
2,note_on,50,42,0
2,note_on,54,37,80
2,note_on,50,0,16
2,note_on,59,37,64
2,note_on,54,0,16
2,note_on,59,0,64
2,note_on,52,44,0
2,note_on,57,40,80
2,note_on,52,0,16
2,note_on,61,40,64
2,note_on,57,0,16
2,note_on,61,0,64
2,note_on,52,44,0
2,note_on,57,42,80
2,note_on,52,0,16
2,note_on,61,44,64
2,note_on,57,0,16
2,note_on,61,0,64
2,note_on,52,48,0
2,note_on,56,41,80
2,note_on,52,0,16
2,note_on,59,42,64
2,note_on,56,0,16
2,note_on,59,0,64
2,note_on,45,74,0
2,note_on,45,0,120
2,note_on,56,67,90
2,note_on,56,0,30
2,note_on,57,74,0
2,note_on,57,0,120
2,note_on,45,74,360
2,note_on,45,0,120
2,note_on,56,67,90
2,note_on,56,0,30
2,note_on,57,72,0
2,note_on,57,0,120
2,note_on,40,74,360
2,note_on,40,0,120
2,note_on,51,67,60
2,note_on,51,0,30
2,note_on,52,74,30
2,note_on,52,0,120
2,note_on,40,74,360
2,note_on,40,0,120
2,note_on,51,67,60
2,note_on,51,0,30
2,note_on,52,72,30
2,note_on,52,0,120
2,note_on,40,74,360
2,note_on,40,0,120
2,note_on,53,59,60
2,note_on,53,0,30
2,note_on,54,68,30
2,note_on,54,0,120
2,note_on,55,62,60
2,note_on,55,0,60
2,note_on,56,70,0
2,note_on,56,0,120
2,note_on,45,74,120
2,note_on,45,0,120
2,note_on,56,63,60
2,note_on,56,0,30
2,note_on,57,67,30
2,note_on,57,0,120
2,note_on,49,63,60
2,note_on,49,0,60
2,note_on,50,69,0
2,note_on,50,0,120
2,note_on,40,74,120
2,note_on,40,0,120
2,note_on,51,62,60
2,note_on,51,0,30
2,note_on,52,67,30
2,note_on,52,0,120
2,note_on,51,61,60
2,note_on,51,0,60
2,note_on,52,68,0
2,note_on,52,0,120
2,note_on,33,74,120
2,note_on,33,0,120
2,note_on,44,61,60
2,note_on,44,0,30
2,note_on,45,67,30
2,note_on,45,0,120
2,note_on,57,44,360
2,note_on,63,33,80
2,note_on,57,0,16
2,note_on,64,33,64
2,note_on,63,0,16
2,note_on,64,0,64
2,note_on,57,40,0
2,note_on,63,32,80
2,note_on,57,0,16
2,note_on,64,32,64
2,note_on,63,0,16
2,note_on,64,0,64
2,note_on,59,40,0
2,note_on,63,32,80
2,note_on,59,0,16
2,note_on,64,32,64
2,note_on,63,0,16
2,note_on,64,0,64
2,note_on,61,41,0
2,note_on,63,30,80
2,note_on,61,0,16
2,note_on,64,30,64
2,note_on,63,0,16
2,note_on,64,0,64
2,note_on,61,40,0
2,note_on,63,28,80
2,note_on,61,0,16
2,note_on,64,28,64
2,note_on,63,0,16
2,note_on,64,0,64
2,note_on,57,40,0
2,note_on,63,34,80
2,note_on,57,0,16
2,note_on,64,36,64
2,note_on,63,0,16
2,note_on,64,0,64
2,note_on,56,44,0
2,note_on,63,33,80
2,note_on,56,0,16
2,note_on,64,33,64
2,note_on,63,0,16
2,note_on,64,0,64
2,note_on,56,40,0
2,note_on,63,33,80
2,note_on,56,0,16
2,note_on,64,33,64
2,note_on,63,0,16
2,note_on,64,0,64
2,note_on,57,40,0
2,note_on,63,33,80
2,note_on,57,0,16
2,note_on,64,33,64
2,note_on,63,0,16
2,note_on,64,0,64
2,note_on,59,45,0
2,note_on,63,34,80
2,note_on,59,0,16
2,note_on,64,34,64
2,note_on,63,0,16
2,note_on,64,0,64
2,note_on,59,38,0
2,note_on,63,30,80
2,note_on,59,0,16
2,note_on,64,31,64
2,note_on,63,0,16
2,note_on,64,0,64
2,note_on,56,40,0
2,note_on,63,36,80
2,note_on,56,0,16
2,note_on,64,36,64
2,note_on,63,0,16
2,note_on,64,0,64
2,note_on,54,44,0
2,note_on,63,35,80
2,note_on,54,0,16
2,note_on,64,35,64
2,note_on,63,0,16
2,note_on,64,0,64
2,note_on,54,40,0
2,note_on,63,32,80
2,note_on,54,0,16
2,note_on,64,32,64
2,note_on,63,0,16
2,note_on,64,0,64
2,note_on,54,40,0
2,note_on,63,32,80
2,note_on,54,0,16
2,note_on,64,32,64
2,note_on,63,0,16
2,note_on,64,0,64
2,note_on,56,44,0
2,note_on,62,34,80
2,note_on,56,0,16
2,note_on,64,34,64
2,note_on,62,0,16
2,note_on,64,0,64
2,note_on,56,40,0
2,note_on,62,32,80
2,note_on,56,0,16
2,note_on,64,32,64
2,note_on,62,0,16
2,note_on,64,0,64
2,note_on,56,40,0
2,note_on,62,32,80
2,note_on,56,0,16
2,note_on,64,32,64
2,note_on,62,0,16
2,note_on,64,0,64
2,note_on,57,44,0
2,note_on,61,35,80
2,note_on,57,0,16
2,note_on,64,33,64
2,note_on,61,0,16
2,note_on,64,0,64
2,note_on,57,40,0
2,note_on,61,35,80
2,note_on,57,0,16
2,note_on,64,35,64
2,note_on,61,0,16
2,note_on,64,0,64
2,note_on,50,42,0
2,note_on,54,37,80
2,note_on,50,0,16
2,note_on,59,37,64
2,note_on,54,0,16
2,note_on,59,0,64
2,note_on,52,44,0
2,note_on,57,40,80
2,note_on,52,0,16
2,note_on,61,40,64
2,note_on,57,0,16
2,note_on,61,0,64
2,note_on,52,44,0
2,note_on,57,42,80
2,note_on,52,0,16
2,note_on,61,44,64
2,note_on,57,0,16
2,note_on,61,0,64
2,note_on,52,48,0
2,note_on,56,41,80
2,note_on,52,0,16
2,note_on,59,42,63
2,note_on,56,0,17
2,note_on,59,0,63
2,note_on,45,74,1
2,note_on,45,0,120
2,note_on,56,67,90
2,note_on,56,0,30
2,note_on,57,74,0
2,note_on,57,0,120
2,note_on,45,74,360
2,note_on,45,0,120
2,note_on,56,67,90
2,note_on,56,0,30
2,note_on,57,72,0
2,note_on,57,0,120
2,note_on,40,74,360
2,note_on,40,0,120
2,note_on,51,67,60
2,note_on,51,0,30
2,note_on,52,74,30
2,note_on,52,0,120
2,note_on,40,74,360
2,note_on,40,0,120
2,note_on,51,67,60
2,note_on,51,0,30
2,note_on,52,72,30
2,note_on,52,0,120
2,note_on,40,74,360
2,note_on,40,0,120
2,note_on,53,59,60
2,note_on,53,0,30
2,note_on,54,68,30
2,note_on,54,0,120
2,note_on,55,62,60
2,note_on,55,0,60
2,note_on,56,70,0
2,note_on,56,0,120
2,note_on,45,74,120
2,note_on,45,0,120
2,note_on,56,63,60
2,note_on,56,0,30
2,note_on,57,67,30
2,note_on,57,0,120
2,note_on,49,63,60
2,note_on,49,0,60
2,note_on,50,69,0
2,note_on,50,0,120
2,note_on,40,74,120
2,note_on,40,0,120
2,note_on,51,62,60
2,note_on,51,0,30
2,note_on,52,67,30
2,note_on,52,0,120
2,note_on,51,61,60
2,note_on,51,0,60
2,note_on,52,68,0
2,note_on,52,0,120
2,note_on,33,74,120
2,note_on,33,0,120
2,note_on,44,61,60
2,note_on,44,0,30
2,note_on,45,67,30
2,note_on,45,0,120
2,note_on,57,37,360
2,note_on,61,30,80
2,note_on,57,0,16
2,note_on,64,29,65
2,note_on,61,0,15
2,note_on,57,38,64
2,note_on,64,0,1
2,note_on,59,30,79
2,note_on,57,0,16
2,note_on,62,30,64
2,note_on,59,0,16
2,note_on,62,0,64
2,note_on,57,38,0
2,note_on,61,30,80
2,note_on,57,0,16
2,note_on,64,30,64
2,note_on,61,0,16
2,note_on,64,0,64
2,note_on,57,38,0
2,note_on,62,28,80
2,note_on,57,0,16
2,note_on,66,28,64
2,note_on,62,0,16
2,note_on,66,0,64
2,note_on,57,35,0
2,note_on,62,28,80
2,note_on,57,0,16
2,note_on,66,28,64
2,note_on,62,0,16
2,note_on,66,0,64
2,note_on,57,38,0
2,note_on,62,32,80
2,note_on,57,0,16
2,note_on,66,32,64
2,note_on,62,0,16
2,note_on,66,0,64
2,note_on,57,37,0
2,note_on,66,33,80
2,note_on,57,0,16
2,note_on,69,33,64
2,note_on,66,0,16
2,note_on,69,0,64
2,note_on,57,38,0
2,note_on,64,33,80
2,note_on,57,0,16
2,note_on,68,33,64
2,note_on,64,0,16
2,note_on,68,0,64
2,note_on,57,38,0
2,note_on,62,34,80
2,note_on,57,0,16
2,note_on,66,31,64
2,note_on,62,0,16
2,note_on,66,0,64
2,note_on,57,36,0
2,note_on,61,27,80
2,note_on,57,0,16
2,note_on,64,27,64
2,note_on,61,0,16
2,note_on,64,0,64
2,note_on,57,35,0
2,note_on,61,28,80
2,note_on,57,0,16
2,note_on,64,28,64
2,note_on,61,0,16
2,note_on,64,0,64
2,note_on,57,38,0
2,note_on,61,33,80
2,note_on,57,0,16
2,note_on,64,33,64
2,note_on,61,0,16
2,note_on,64,0,64
2,note_on,57,42,0
2,note_on,61,34,80
2,note_on,57,0,16
2,note_on,64,34,64
2,note_on,61,0,16
2,note_on,64,0,64
2,note_on,57,38,0
2,note_on,61,33,80
2,note_on,57,0,16
2,note_on,64,33,64
2,note_on,61,0,16
2,note_on,64,0,64
2,note_on,57,38,0
2,note_on,61,34,80
2,note_on,57,0,16
2,note_on,64,35,64
2,note_on,61,0,16
2,note_on,64,0,64
2,note_on,59,41,0
2,note_on,62,36,80
2,note_on,59,0,16
2,note_on,64,37,64
2,note_on,62,0,16
2,note_on,64,0,64
2,note_on,59,44,0
2,note_on,62,37,80
2,note_on,59,0,16
2,note_on,64,39,64
2,note_on,62,0,16
2,note_on,64,0,64
2,note_on,59,46,0
2,note_on,62,41,80
2,note_on,59,0,16
2,note_on,64,42,64
2,note_on,62,0,16
2,note_on,64,0,64
2,note_on,57,47,0
2,note_on,61,40,80
2,note_on,57,0,16
2,note_on,64,40,64
2,note_on,61,0,16
2,note_on,64,0,64
2,note_on,57,47,0
2,note_on,61,38,80
2,note_on,57,0,16
2,note_on,64,33,64
2,note_on,61,0,16
2,note_on,64,0,64
2,note_on,54,38,0
2,note_on,57,29,80
2,note_on,54,0,16
2,note_on,63,29,64
2,note_on,57,0,16
2,note_on,63,0,64
2,note_on,52,23,0
2,note_on,64,29,0
2,note_on,64,0,720
2,note_on,52,0,0
2,note_on,57,44,0
2,note_on,63,34,80
2,note_on,57,0,16
2,note_on,64,34,64
2,note_on,63,0,16
2,note_on,64,0,64
2,note_on,57,40,0
2,note_on,63,31,80
2,note_on,57,0,16
2,note_on,64,31,64
2,note_on,63,0,16
2,note_on,64,0,64
2,note_on,59,40,0
2,note_on,63,32,80
2,note_on,59,0,16
2,note_on,64,32,64
2,note_on,63,0,16
2,note_on,64,0,64
2,note_on,61,41,0
2,note_on,63,31,80
2,note_on,61,0,16
2,note_on,64,31,64
2,note_on,63,0,16
2,note_on,64,0,64
2,note_on,61,40,0
2,note_on,63,30,80
2,note_on,61,0,16
2,note_on,64,30,64
2,note_on,63,0,16
2,note_on,64,0,64
2,note_on,57,40,0
2,note_on,63,35,80
2,note_on,57,0,16
2,note_on,64,35,64
2,note_on,63,0,16
2,note_on,64,0,64
2,note_on,56,44,0
2,note_on,63,31,80
2,note_on,56,0,16
2,note_on,64,32,64
2,note_on,63,0,16
2,note_on,64,0,64
2,note_on,56,40,0
2,note_on,63,35,80
2,note_on,56,0,16
2,note_on,64,35,64
2,note_on,63,0,16
2,note_on,64,0,64
2,note_on,57,40,0
2,note_on,63,33,80
2,note_on,57,0,16
2,note_on,64,35,64
2,note_on,63,0,16
2,note_on,64,0,64
2,note_on,59,45,0
2,note_on,63,34,80
2,note_on,59,0,16
2,note_on,64,34,64
2,note_on,63,0,16
2,note_on,64,0,64
2,note_on,59,38,0
2,note_on,63,28,80
2,note_on,59,0,16
2,note_on,64,28,64
2,note_on,63,0,16
2,note_on,64,0,64
2,note_on,56,40,0
2,note_on,63,35,80
2,note_on,56,0,16
2,note_on,64,35,64
2,note_on,63,0,16
2,note_on,64,0,64
2,note_on,54,44,0
2,note_on,63,35,80
2,note_on,54,0,16
2,note_on,64,35,64
2,note_on,63,0,16
2,note_on,64,0,64
2,note_on,54,40,0
2,note_on,63,35,80
2,note_on,54,0,16
2,note_on,64,34,64
2,note_on,63,0,16
2,note_on,64,0,64
2,note_on,54,40,0
2,note_on,62,35,80
2,note_on,54,0,16
2,note_on,64,35,64
2,note_on,62,0,16
2,note_on,64,0,64
2,note_on,57,44,0
2,note_on,61,35,80
2,note_on,57,0,16
2,note_on,64,33,64
2,note_on,61,0,16
2,note_on,64,0,64
2,note_on,57,40,0
2,note_on,61,33,80
2,note_on,57,0,16
2,note_on,64,33,64
2,note_on,61,0,16
2,note_on,64,0,64
2,note_on,50,40,0
2,note_on,54,33,80
2,note_on,50,0,16
2,note_on,59,33,64
2,note_on,54,0,16
2,note_on,59,0,64
2,note_on,52,44,0
2,note_on,57,35,80
2,note_on,52,0,16
2,note_on,61,33,64
2,note_on,57,0,16
2,note_on,61,0,64
2,note_on,52,40,0
2,note_on,57,35,80
2,note_on,52,0,16
2,note_on,61,35,64
2,note_on,57,0,16
2,note_on,61,0,64
2,note_on,52,40,0
2,note_on,56,35,80
2,note_on,52,0,16
2,note_on,62,35,64
2,note_on,56,0,16
2,note_on,62,0,64
2,note_on,62,40,0
2,note_on,57,34,0
2,note_on,64,34,0
2,note_on,62,0,480
2,note_on,61,45,0
2,note_on,61,0,240
2,note_on,64,0,0
2,note_on,57,0,0
2,note_on,45,74,0
2,note_on,45,0,120
2,note_on,56,59,60
2,note_on,56,0,30
2,note_on,57,68,30
2,note_on,57,0,120
2,note_on,58,62,60
2,note_on,58,0,60
2,note_on,59,70,0
2,note_on,59,0,120
2,note_on,52,74,120
2,note_on,52,0,120
2,note_on,60,63,60
2,note_on,60,0,30
2,note_on,61,67,30
2,note_on,61,0,120
2,note_on,61,63,60
2,note_on,61,0,60
2,note_on,62,69,0
2,note_on,62,0,120
2,note_on,40,74,120
2,note_on,40,0,120
2,note_on,51,62,60
2,note_on,51,0,30
2,note_on,52,67,30
2,note_on,52,0,120
2,note_on,51,61,60
2,note_on,51,0,60
2,note_on,52,68,0
2,note_on,52,0,120
2,note_on,33,74,120
2,note_on,33,0,120
2,note_on,44,61,60
2,note_on,44,0,30
2,note_on,45,67,30
2,note_on,45,0,120
2,note_on,57,37,360
2,note_on,61,31,80
2,note_on,57,0,16
2,note_on,64,32,65
2,note_on,61,0,15
2,note_on,57,38,64
2,note_on,64,0,1
2,note_on,59,30,79
2,note_on,57,0,16
2,note_on,62,30,64
2,note_on,59,0,16
2,note_on,62,0,64
2,note_on,57,38,0
2,note_on,61,30,80
2,note_on,57,0,16
2,note_on,64,30,64
2,note_on,61,0,16
2,note_on,64,0,64
2,note_on,57,38,0
2,note_on,62,27,80
2,note_on,57,0,16
2,note_on,66,27,64
2,note_on,62,0,16
2,note_on,66,0,64
2,note_on,57,35,0
2,note_on,62,28,80
2,note_on,57,0,16
2,note_on,66,26,64
2,note_on,62,0,16
2,note_on,66,0,64
2,note_on,57,38,0
2,note_on,62,32,80
2,note_on,57,0,16
2,note_on,66,32,64
2,note_on,62,0,16
2,note_on,66,0,64
2,note_on,57,37,0
2,note_on,66,31,80
2,note_on,57,0,16
2,note_on,69,32,64
2,note_on,66,0,16
2,note_on,69,0,64
2,note_on,57,38,0
2,note_on,64,30,80
2,note_on,57,0,16
2,note_on,68,30,64
2,note_on,64,0,16
2,note_on,68,0,64
2,note_on,57,38,0
2,note_on,62,34,80
2,note_on,57,0,16
2,note_on,66,31,64
2,note_on,62,0,16
2,note_on,66,0,64
2,note_on,57,36,0
2,note_on,61,27,80
2,note_on,57,0,16
2,note_on,64,27,64
2,note_on,61,0,16
2,note_on,64,0,64
2,note_on,57,35,0
2,note_on,61,28,80
2,note_on,57,0,16
2,note_on,64,28,64
2,note_on,61,0,16
2,note_on,64,0,64
2,note_on,57,38,0
2,note_on,61,32,80
2,note_on,57,0,16
2,note_on,64,32,64
2,note_on,61,0,16
2,note_on,64,0,64
2,note_on,57,42,0
2,note_on,61,33,80
2,note_on,57,0,16
2,note_on,64,33,64
2,note_on,61,0,16
2,note_on,64,0,64
2,note_on,57,38,0
2,note_on,61,33,80
2,note_on,57,0,16
2,note_on,64,31,64
2,note_on,61,0,16
2,note_on,64,0,64
2,note_on,57,38,0
2,note_on,61,34,80
2,note_on,57,0,16
2,note_on,64,35,64
2,note_on,61,0,16
2,note_on,64,0,64
2,note_on,59,41,0
2,note_on,62,36,80
2,note_on,59,0,16
2,note_on,64,37,64
2,note_on,62,0,16
2,note_on,64,0,64
2,note_on,59,44,0
2,note_on,62,37,80
2,note_on,59,0,16
2,note_on,64,39,64
2,note_on,62,0,16
2,note_on,64,0,64
2,note_on,59,46,0
2,note_on,62,41,80
2,note_on,59,0,16
2,note_on,64,42,64
2,note_on,62,0,16
2,note_on,64,0,64
2,note_on,57,47,0
2,note_on,61,40,80
2,note_on,57,0,16
2,note_on,64,40,64
2,note_on,61,0,16
2,note_on,64,0,64
2,note_on,57,47,0
2,note_on,61,38,80
2,note_on,57,0,16
2,note_on,64,33,64
2,note_on,61,0,16
2,note_on,64,0,64
2,note_on,54,38,0
2,note_on,57,29,80
2,note_on,54,0,16
2,note_on,63,29,64
2,note_on,57,0,16
2,note_on,63,0,64
2,note_on,52,23,0
2,note_on,64,29,0
2,note_on,64,0,720
2,note_on,52,0,0
2,note_on,57,44,0
2,note_on,63,32,80
2,note_on,57,0,16
2,note_on,64,32,64
2,note_on,63,0,16
2,note_on,64,0,64
2,note_on,57,40,0
2,note_on,63,32,80
2,note_on,57,0,16
2,note_on,64,32,64
2,note_on,63,0,16
2,note_on,64,0,64
2,note_on,59,40,0
2,note_on,63,34,80
2,note_on,59,0,16
2,note_on,64,34,64
2,note_on,63,0,16
2,note_on,64,0,64
2,note_on,61,41,0
2,note_on,63,31,80
2,note_on,61,0,16
2,note_on,64,31,64
2,note_on,63,0,16
2,note_on,64,0,64
2,note_on,61,40,0
2,note_on,63,30,80
2,note_on,61,0,16
2,note_on,64,30,64
2,note_on,63,0,16
2,note_on,64,0,64
2,note_on,57,40,0
2,note_on,63,36,80
2,note_on,57,0,16
2,note_on,64,36,64
2,note_on,63,0,16
2,note_on,64,0,64
2,note_on,56,44,0
2,note_on,63,33,80
2,note_on,56,0,16
2,note_on,64,33,64
2,note_on,63,0,16
2,note_on,64,0,64
2,note_on,56,40,0
2,note_on,63,33,80
2,note_on,56,0,16
2,note_on,64,33,64
2,note_on,63,0,16
2,note_on,64,0,64
2,note_on,57,40,0
2,note_on,63,33,80
2,note_on,57,0,16
2,note_on,64,33,64
2,note_on,63,0,16
2,note_on,64,0,64
2,note_on,59,45,0
2,note_on,63,33,80
2,note_on,59,0,16
2,note_on,64,33,64
2,note_on,63,0,16
2,note_on,64,0,64
2,note_on,59,38,0
2,note_on,63,29,80
2,note_on,59,0,16
2,note_on,64,29,64
2,note_on,63,0,16
2,note_on,64,0,64
2,note_on,56,40,0
2,note_on,63,35,80
2,note_on,56,0,16
2,note_on,64,36,64
2,note_on,63,0,16
2,note_on,64,0,64
2,note_on,54,44,0
2,note_on,63,34,80
2,note_on,54,0,16
2,note_on,64,34,64
2,note_on,63,0,16
2,note_on,64,0,64
2,note_on,54,40,0
2,note_on,63,33,80
2,note_on,54,0,16
2,note_on,64,33,64
2,note_on,63,0,16
2,note_on,64,0,64
2,note_on,54,40,0
2,note_on,62,33,80
2,note_on,54,0,16
2,note_on,64,33,64
2,note_on,62,0,16
2,note_on,64,0,64
2,note_on,57,44,0
2,note_on,61,35,80
2,note_on,57,0,16
2,note_on,64,33,64
2,note_on,61,0,16
2,note_on,64,0,64
2,note_on,57,40,0
2,note_on,61,33,80
2,note_on,57,0,16
2,note_on,64,33,64
2,note_on,61,0,16
2,note_on,64,0,64
2,note_on,50,40,0
2,note_on,54,31,80
2,note_on,50,0,16
2,note_on,59,31,64
2,note_on,54,0,16
2,note_on,59,0,64
2,note_on,52,44,0
2,note_on,57,33,80
2,note_on,52,0,16
2,note_on,61,33,64
2,note_on,57,0,16
2,note_on,61,0,64
2,note_on,52,40,0
2,note_on,57,35,80
2,note_on,52,0,16
2,note_on,61,35,64
2,note_on,57,0,16
2,note_on,61,0,64
2,note_on,52,40,0
2,note_on,56,35,80
2,note_on,52,0,16
2,note_on,62,35,64
2,note_on,56,0,16
2,note_on,62,0,64
2,note_on,62,40,0
2,note_on,64,34,0
2,note_on,57,34,0
2,note_on,62,0,480
2,note_on,61,45,0
2,note_on,61,0,240
2,note_on,57,0,0
2,note_on,64,0,0
2,note_on,45,74,0
2,note_on,45,0,120
2,note_on,56,59,60
2,note_on,56,0,30
2,note_on,57,68,30
2,note_on,57,0,120
2,note_on,58,62,60
2,note_on,58,0,60
2,note_on,59,70,0
2,note_on,59,0,120
2,note_on,52,74,120
2,note_on,52,0,120
2,note_on,60,63,60
2,note_on,60,0,30
2,note_on,61,67,30
2,note_on,61,0,120
2,note_on,61,63,60
2,note_on,61,0,60
2,note_on,62,69,0
2,note_on,62,0,120
2,note_on,40,74,120
2,note_on,40,0,120
2,note_on,51,62,60
2,note_on,51,0,30
2,note_on,52,67,30
2,note_on,52,0,120
2,note_on,51,61,60
2,note_on,51,0,60
2,note_on,52,68,0
2,note_on,52,0,120
2,note_on,33,74,120
2,note_on,33,0,120
2,note_on,44,61,60
2,note_on,44,0,30
2,note_on,45,67,30
2,note_on,45,0,120
2,note_on,57,43,1800
2,note_on,57,0,120
2,note_on,64,34,0
2,note_on,64,0,120
2,note_on,60,40,0
2,note_on,60,0,120
2,note_on,64,35,0
2,note_on,64,0,120
2,note_on,57,41,0
2,note_on,57,0,120
2,note_on,64,34,0
2,note_on,64,0,120
2,note_on,57,42,0
2,note_on,57,0,120
2,note_on,64,36,0
2,note_on,64,0,120
2,note_on,60,41,0
2,note_on,60,0,120
2,note_on,64,36,0
2,note_on,64,0,120
2,note_on,57,41,0
2,note_on,57,0,120
2,note_on,64,36,0
2,note_on,64,0,120
2,note_on,52,43,0
2,note_on,52,0,120
2,note_on,64,34,0
2,note_on,64,0,120
2,note_on,59,40,0
2,note_on,59,0,120
2,note_on,64,35,0
2,note_on,64,0,120
2,note_on,52,41,0
2,note_on,52,0,120
2,note_on,64,34,0
2,note_on,64,0,120
2,note_on,52,42,0
2,note_on,52,0,120
2,note_on,64,36,0
2,note_on,64,0,120
2,note_on,59,41,0
2,note_on,59,0,120
2,note_on,64,36,0
2,note_on,64,0,120
2,note_on,52,41,0
2,note_on,52,0,120
2,note_on,64,36,0
2,note_on,64,0,120
2,note_on,57,43,0
2,note_on,57,0,120
2,note_on,64,34,0
2,note_on,64,0,120
2,note_on,60,40,0
2,note_on,60,0,120
2,note_on,64,35,0
2,note_on,64,0,120
2,note_on,57,41,0
2,note_on,57,0,120
2,note_on,64,34,0
2,note_on,64,0,120
2,note_on,59,42,0
2,note_on,59,0,120
2,note_on,64,36,0
2,note_on,64,0,120
2,note_on,62,41,0
2,note_on,62,0,120
2,note_on,64,36,0
2,note_on,64,0,120
2,note_on,59,41,0
2,note_on,59,0,120
2,note_on,64,36,0
2,note_on,64,0,120
2,note_on,60,43,0
2,note_on,60,0,120
2,note_on,64,34,0
2,note_on,64,0,120
2,note_on,59,40,0
2,note_on,59,0,120
2,note_on,64,35,0
2,note_on,64,0,120
2,note_on,57,41,0
2,note_on,57,0,120
2,note_on,64,34,0
2,note_on,64,0,120
2,note_on,52,42,0
2,note_on,52,0,120
2,note_on,64,36,0
2,note_on,64,0,120
2,note_on,63,41,0
2,note_on,63,0,120
2,note_on,64,36,0
2,note_on,64,0,120
2,note_on,52,41,0
2,note_on,52,0,120
2,note_on,64,36,0
2,note_on,64,0,120
2,note_on,57,41,0
2,note_on,57,0,120
2,note_on,64,33,0
2,note_on,64,0,120
2,note_on,60,39,0
2,note_on,60,0,120
2,note_on,64,36,0
2,note_on,64,0,120
2,note_on,57,43,0
2,note_on,57,0,120
2,note_on,64,36,0
2,note_on,64,0,120
2,note_on,57,46,0
2,note_on,57,0,120
2,note_on,64,39,0
2,note_on,64,0,120
2,note_on,60,46,0
2,note_on,60,0,120
2,note_on,64,40,0
2,note_on,64,0,120
2,note_on,57,46,0
2,note_on,57,0,120
2,note_on,64,40,0
2,note_on,64,0,120
2,note_on,52,49,0
2,note_on,52,0,120
2,note_on,64,39,0
2,note_on,64,0,120
2,note_on,59,46,0
2,note_on,59,0,120
2,note_on,64,40,0
2,note_on,64,0,120
2,note_on,52,47,0
2,note_on,52,0,120
2,note_on,64,39,0
2,note_on,64,0,120
2,note_on,52,48,0
2,note_on,52,0,120
2,note_on,64,41,0
2,note_on,64,0,120
2,note_on,59,47,0
2,note_on,59,0,120
2,note_on,64,41,0
2,note_on,64,0,120
2,note_on,52,47,0
2,note_on,52,0,120
2,note_on,64,41,0
2,note_on,64,0,120
2,note_on,57,49,0
2,note_on,57,0,120
2,note_on,64,39,0
2,note_on,64,0,120
2,note_on,60,46,0
2,note_on,60,0,120
2,note_on,64,40,0
2,note_on,64,0,120
2,note_on,56,47,0
2,note_on,56,0,120
2,note_on,64,39,0
2,note_on,64,0,120
2,note_on,57,48,0
2,note_on,57,0,120
2,note_on,64,41,0
2,note_on,64,0,120
2,note_on,60,47,0
2,note_on,60,0,120
2,note_on,64,41,0
2,note_on,64,0,120
2,note_on,53,47,0
2,note_on,53,0,120
2,note_on,62,41,0
2,note_on,62,0,120
2,note_on,52,49,0
2,note_on,52,0,120
2,note_on,60,39,0
2,note_on,60,0,120
2,note_on,57,46,0
2,note_on,57,0,120
2,note_on,60,40,0
2,note_on,60,0,120
2,note_on,52,47,0
2,note_on,52,0,120
2,note_on,59,39,0
2,note_on,59,0,120
2,note_on,45,54,0
2,note_on,45,0,30
2,note_on,48,52,90
2,note_on,48,0,30
2,note_on,52,57,90
2,note_on,52,0,30
2,note_on,57,54,90
2,note_on,57,0,30
2,note_on,45,60,90
2,note_on,45,0,60
2,note_on,57,43,180
2,note_on,57,0,120
2,note_on,64,34,0
2,note_on,64,0,120
2,note_on,60,40,0
2,note_on,60,0,120
2,note_on,64,35,0
2,note_on,64,0,120
2,note_on,57,41,0
2,note_on,57,0,120
2,note_on,64,34,0
2,note_on,64,0,120
2,note_on,57,42,0
2,note_on,57,0,120
2,note_on,64,36,0
2,note_on,64,0,120
2,note_on,60,41,0
2,note_on,60,0,120
2,note_on,64,36,0
2,note_on,64,0,120
2,note_on,57,41,0
2,note_on,57,0,120
2,note_on,64,36,0
2,note_on,64,0,120
2,note_on,52,43,0
2,note_on,52,0,120
2,note_on,64,34,0
2,note_on,64,0,120
2,note_on,59,40,0
2,note_on,59,0,120
2,note_on,64,35,0
2,note_on,64,0,120
2,note_on,52,41,0
2,note_on,52,0,120
2,note_on,64,34,0
2,note_on,64,0,120
2,note_on,52,42,0
2,note_on,52,0,120
2,note_on,64,36,0
2,note_on,64,0,120
2,note_on,59,41,0
2,note_on,59,0,120
2,note_on,64,36,0
2,note_on,64,0,120
2,note_on,52,41,0
2,note_on,52,0,120
2,note_on,64,36,0
2,note_on,64,0,120
2,note_on,57,43,0
2,note_on,57,0,120
2,note_on,64,34,0
2,note_on,64,0,120
2,note_on,60,40,0
2,note_on,60,0,120
2,note_on,64,35,0
2,note_on,64,0,120
2,note_on,57,41,0
2,note_on,57,0,120
2,note_on,64,34,0
2,note_on,64,0,120
2,note_on,59,42,0
2,note_on,59,0,120
2,note_on,64,36,0
2,note_on,64,0,120
2,note_on,62,41,0
2,note_on,62,0,120
2,note_on,64,36,0
2,note_on,64,0,120
2,note_on,59,41,0
2,note_on,59,0,120
2,note_on,64,36,0
2,note_on,64,0,120
2,note_on,60,43,0
2,note_on,60,0,120
2,note_on,64,34,0
2,note_on,64,0,120
2,note_on,59,40,0
2,note_on,59,0,120
2,note_on,64,35,0
2,note_on,64,0,120
2,note_on,57,41,0
2,note_on,57,0,120
2,note_on,64,34,0
2,note_on,64,0,120
2,note_on,52,42,0
2,note_on,52,0,120
2,note_on,64,36,0
2,note_on,64,0,120
2,note_on,63,41,0
2,note_on,63,0,120
2,note_on,64,36,0
2,note_on,64,0,120
2,note_on,52,41,0
2,note_on,52,0,120
2,note_on,64,36,0
2,note_on,64,0,120
2,note_on,57,41,0
2,note_on,57,0,120
2,note_on,64,33,0
2,note_on,64,0,120
2,note_on,60,39,0
2,note_on,60,0,120
2,note_on,64,36,0
2,note_on,64,0,120
2,note_on,57,43,0
2,note_on,57,0,120
2,note_on,64,36,0
2,note_on,64,0,120
2,note_on,57,46,0
2,note_on,57,0,120
2,note_on,64,39,0
2,note_on,64,0,120
2,note_on,60,46,0
2,note_on,60,0,120
2,note_on,64,40,0
2,note_on,64,0,120
2,note_on,57,46,0
2,note_on,57,0,120
2,note_on,64,40,0
2,note_on,64,0,120
2,note_on,52,49,0
2,note_on,52,0,120
2,note_on,64,39,0
2,note_on,64,0,120
2,note_on,59,46,0
2,note_on,59,0,120
2,note_on,64,40,0
2,note_on,64,0,120
2,note_on,52,47,0
2,note_on,52,0,120
2,note_on,64,39,0
2,note_on,64,0,120
2,note_on,52,48,0
2,note_on,52,0,120
2,note_on,64,41,0
2,note_on,64,0,120
2,note_on,59,47,0
2,note_on,59,0,120
2,note_on,64,41,0
2,note_on,64,0,120
2,note_on,52,47,0
2,note_on,52,0,120
2,note_on,64,41,0
2,note_on,64,0,120
2,note_on,57,49,0
2,note_on,57,0,120
2,note_on,64,39,0
2,note_on,64,0,120
2,note_on,60,46,0
2,note_on,60,0,120
2,note_on,64,40,0
2,note_on,64,0,120
2,note_on,56,47,0
2,note_on,56,0,120
2,note_on,64,39,0
2,note_on,64,0,120
2,note_on,57,48,0
2,note_on,57,0,120
2,note_on,64,41,0
2,note_on,64,0,120
2,note_on,60,47,0
2,note_on,60,0,120
2,note_on,64,41,0
2,note_on,64,0,120
2,note_on,53,47,0
2,note_on,53,0,120
2,note_on,62,41,0
2,note_on,62,0,120
2,note_on,52,49,0
2,note_on,52,0,120
2,note_on,60,39,0
2,note_on,60,0,120
2,note_on,57,46,0
2,note_on,57,0,120
2,note_on,60,40,0
2,note_on,60,0,120
2,note_on,52,47,0
2,note_on,52,0,120
2,note_on,59,39,0
2,note_on,59,0,120
2,note_on,45,54,0
2,note_on,45,0,30
2,note_on,48,52,90
2,note_on,48,0,30
2,note_on,52,57,90
2,note_on,52,0,30
2,note_on,57,54,90
2,note_on,57,0,30
2,note_on,45,60,90
2,note_on,45,0,60
2,note_on,57,37,180
2,note_on,60,44,0
2,note_on,60,0,480
2,note_on,61,44,0
2,note_on,61,0,240
2,note_on,57,0,0
2,note_on,57,37,0
2,note_on,62,44,0
2,note_on,62,0,720
2,note_on,57,0,0
2,note_on,57,34,0
2,note_on,65,41,0
2,note_on,65,0,120
2,note_on,64,39,0
2,note_on,64,0,120
2,note_on,65,41,0
2,note_on,65,0,120
2,note_on,64,37,0
2,note_on,64,0,120
2,note_on,65,41,0
2,note_on,65,0,120
2,note_on,62,38,0
2,note_on,62,0,108
2,note_on,57,0,12
2,note_on,57,34,0
2,note_on,62,41,0
2,note_on,62,0,120
2,note_on,60,37,0
2,note_on,60,0,120
2,note_on,59,41,0
2,note_on,59,0,120
2,note_on,60,38,0
2,note_on,60,0,120
2,note_on,59,41,0
2,note_on,59,0,120
2,note_on,60,38,0
2,note_on,60,0,108
2,note_on,57,0,12
2,note_on,60,41,0
2,note_on,57,34,0
2,note_on,60,0,120
2,note_on,62,39,0
2,note_on,62,0,120
2,note_on,64,39,0
2,note_on,64,0,120
2,note_on,62,41,0
2,note_on,62,0,120
2,note_on,60,39,0
2,note_on,60,0,240
2,note_on,57,0,0
2,note_on,59,34,0
2,note_on,56,28,0
2,note_on,56,0,120
2,note_on,59,0,0
2,note_on,57,30,0
2,note_on,60,36,0
2,note_on,60,0,120
2,note_on,57,0,0
2,note_on,59,31,0
2,note_on,62,37,0
2,note_on,62,0,120
2,note_on,59,0,0
2,note_on,64,38,0
2,note_on,60,32,0
2,note_on,60,0,120
2,note_on,64,0,0
2,note_on,62,34,0
2,note_on,65,40,0
2,note_on,65,0,240
2,note_on,62,0,0
2,note_on,64,38,0
2,note_on,60,32,0
2,note_on,60,0,240
2,note_on,64,0,0
2,note_on,56,34,0
2,note_on,64,41,0
2,note_on,64,0,240
2,note_on,56,0,0
2,note_on,57,37,0
2,note_on,64,44,0
2,note_on,64,0,240
2,note_on,57,0,0
2,note_on,51,49,120
2,note_on,51,0,360
2,note_on,52,33,0
2,note_on,52,0,180
2,note_on,57,43,60
2,note_on,57,0,120
2,note_on,64,34,0
2,note_on,64,0,120
2,note_on,60,40,0
2,note_on,60,0,120
2,note_on,64,35,0
2,note_on,64,0,120
2,note_on,57,41,0
2,note_on,57,0,120
2,note_on,64,34,0
2,note_on,64,0,120
2,note_on,57,42,0
2,note_on,57,0,120
2,note_on,64,36,0
2,note_on,64,0,120
2,note_on,60,41,0
2,note_on,60,0,120
2,note_on,64,36,0
2,note_on,64,0,120
2,note_on,57,41,0
2,note_on,57,0,120
2,note_on,64,36,0
2,note_on,64,0,120
2,note_on,52,43,0
2,note_on,52,0,120
2,note_on,64,34,0
2,note_on,64,0,120
2,note_on,59,40,0
2,note_on,59,0,120
2,note_on,64,35,0
2,note_on,64,0,120
2,note_on,52,41,0
2,note_on,52,0,120
2,note_on,64,34,0
2,note_on,64,0,120
2,note_on,52,42,0
2,note_on,52,0,120
2,note_on,64,36,0
2,note_on,64,0,120
2,note_on,59,41,0
2,note_on,59,0,120
2,note_on,64,36,0
2,note_on,64,0,120
2,note_on,52,41,0
2,note_on,52,0,120
2,note_on,64,36,0
2,note_on,64,0,120
2,note_on,57,43,0
2,note_on,57,0,120
2,note_on,64,34,0
2,note_on,64,0,120
2,note_on,60,40,0
2,note_on,60,0,120
2,note_on,64,35,0
2,note_on,64,0,120
2,note_on,56,41,0
2,note_on,56,0,120
2,note_on,64,34,0
2,note_on,64,0,120
2,note_on,57,42,0
2,note_on,57,0,120
2,note_on,64,36,0
2,note_on,64,0,120
2,note_on,60,41,0
2,note_on,60,0,120
2,note_on,64,36,0
2,note_on,64,0,120
2,note_on,53,41,0
2,note_on,53,0,120
2,note_on,62,36,0
2,note_on,62,0,120
2,note_on,52,43,0
2,note_on,52,0,120
2,note_on,60,34,0
2,note_on,60,0,120
2,note_on,57,40,0
2,note_on,57,0,120
2,note_on,60,35,0
2,note_on,60,0,120
2,note_on,52,41,0
2,note_on,52,0,120
2,note_on,59,34,0
2,note_on,59,0,120
2,note_on,57,46,0
2,note_on,45,43,0
2,note_on,45,0,480
2,note_on,57,0,0
2,note_on,45,49,240
2,note_on,45,0,120
2,note_on,52,39,0
2,note_on,52,0,120
2,note_on,48,46,0
2,note_on,48,0,120
2,note_on,52,40,0
2,note_on,52,0,120
2,note_on,44,47,0
2,note_on,44,0,120
2,note_on,52,39,0
2,note_on,52,0,120
2,note_on,45,48,0
2,note_on,45,0,120
2,note_on,52,41,0
2,note_on,52,0,120
2,note_on,48,47,0
2,note_on,48,0,120
2,note_on,52,41,0
2,note_on,52,0,120
2,note_on,41,47,0
2,note_on,41,0,120
2,note_on,50,41,0
2,note_on,50,0,120
2,note_on,40,49,0
2,note_on,40,0,120
2,note_on,48,39,0
2,note_on,48,0,120
2,note_on,45,46,0
2,note_on,45,0,120
2,note_on,48,40,0
2,note_on,48,0,120
2,note_on,40,47,0
2,note_on,40,0,120
2,note_on,47,39,0
2,note_on,47,0,120
2,note_on,33,54,0
2,note_on,33,0,30
2,note_on,36,52,90
2,note_on,36,0,30
2,note_on,40,57,90
2,note_on,40,0,30
2,note_on,45,54,90
2,note_on,45,0,30
2,note_on,33,60,90
2,note_on,33,0,60
2,note_on,57,37,180
2,note_on,60,44,0
2,note_on,60,0,480
2,note_on,61,44,0
2,note_on,61,0,240
2,note_on,57,0,0
2,note_on,57,37,0
2,note_on,62,44,0
2,note_on,62,0,720
2,note_on,57,0,0
2,note_on,65,41,0
2,note_on,57,34,0
2,note_on,65,0,120
2,note_on,64,39,0
2,note_on,64,0,120
2,note_on,65,41,0
2,note_on,65,0,120
2,note_on,64,37,0
2,note_on,64,0,120
2,note_on,65,41,0
2,note_on,65,0,120
2,note_on,62,38,0
2,note_on,62,0,108
2,note_on,57,0,12
2,note_on,62,41,0
2,note_on,57,34,0
2,note_on,62,0,120
2,note_on,60,37,0
2,note_on,60,0,120
2,note_on,59,41,0
2,note_on,59,0,120
2,note_on,60,38,0
2,note_on,60,0,120
2,note_on,59,41,0
2,note_on,59,0,120
2,note_on,60,38,0
2,note_on,60,0,108
2,note_on,57,0,12
2,note_on,57,34,0
2,note_on,60,41,0
2,note_on,60,0,120
2,note_on,62,39,0
2,note_on,62,0,120
2,note_on,64,39,0
2,note_on,64,0,120
2,note_on,62,41,0
2,note_on,62,0,120
2,note_on,60,39,0
2,note_on,60,0,240
2,note_on,57,0,0
2,note_on,59,34,0
2,note_on,56,28,0
2,note_on,56,0,120
2,note_on,59,0,0
2,note_on,57,30,0
2,note_on,60,36,0
2,note_on,60,0,120
2,note_on,57,0,0
2,note_on,59,31,0
2,note_on,62,37,0
2,note_on,62,0,120
2,note_on,59,0,0
2,note_on,60,32,0
2,note_on,64,38,0
2,note_on,64,0,120
2,note_on,60,0,0
2,note_on,62,34,0
2,note_on,65,40,0
2,note_on,65,0,240
2,note_on,62,0,0
2,note_on,60,32,0
2,note_on,64,38,0
2,note_on,64,0,240
2,note_on,60,0,0
2,note_on,56,34,0
2,note_on,64,41,0
2,note_on,64,0,240
2,note_on,56,0,0
2,note_on,64,44,0
2,note_on,57,37,0
2,note_on,57,0,240
2,note_on,64,0,0
2,note_on,51,49,120
2,note_on,51,0,360
2,note_on,52,33,0
2,note_on,52,0,180
2,note_on,57,43,60
2,note_on,57,0,120
2,note_on,64,34,0
2,note_on,64,0,120
2,note_on,60,40,0
2,note_on,60,0,120
2,note_on,64,35,0
2,note_on,64,0,120
2,note_on,57,41,0
2,note_on,57,0,120
2,note_on,64,34,0
2,note_on,64,0,120
2,note_on,57,42,0
2,note_on,57,0,120
2,note_on,64,36,0
2,note_on,64,0,120
2,note_on,60,41,0
2,note_on,60,0,120
2,note_on,64,36,0
2,note_on,64,0,120
2,note_on,57,41,0
2,note_on,57,0,120
2,note_on,64,36,0
2,note_on,64,0,120
2,note_on,52,43,0
2,note_on,52,0,120
2,note_on,64,34,0
2,note_on,64,0,120
2,note_on,59,40,0
2,note_on,59,0,120
2,note_on,64,35,0
2,note_on,64,0,120
2,note_on,52,41,0
2,note_on,52,0,120
2,note_on,64,34,0
2,note_on,64,0,120
2,note_on,52,42,0
2,note_on,52,0,120
2,note_on,64,36,0
2,note_on,64,0,120
2,note_on,59,41,0
2,note_on,59,0,120
2,note_on,64,36,0
2,note_on,64,0,120
2,note_on,52,41,0
2,note_on,52,0,120
2,note_on,64,36,0
2,note_on,64,0,120
2,note_on,57,43,0
2,note_on,57,0,120
2,note_on,64,34,0
2,note_on,64,0,120
2,note_on,60,40,0
2,note_on,60,0,120
2,note_on,64,35,0
2,note_on,64,0,120
2,note_on,56,41,0
2,note_on,56,0,120
2,note_on,64,34,0
2,note_on,64,0,120
2,note_on,57,42,0
2,note_on,57,0,120
2,note_on,64,36,0
2,note_on,64,0,120
2,note_on,60,41,0
2,note_on,60,0,120
2,note_on,64,36,0
2,note_on,64,0,120
2,note_on,53,41,0
2,note_on,53,0,120
2,note_on,62,36,0
2,note_on,62,0,120
2,note_on,52,43,0
2,note_on,52,0,120
2,note_on,60,34,0
2,note_on,60,0,120
2,note_on,57,40,0
2,note_on,57,0,120
2,note_on,60,35,0
2,note_on,60,0,120
2,note_on,52,41,0
2,note_on,52,0,120
2,note_on,59,34,0
2,note_on,59,0,120
2,note_on,57,46,0
2,note_on,45,43,0
2,note_on,45,0,480
2,note_on,57,0,0
2,note_on,45,49,240
2,note_on,45,0,120
2,note_on,52,39,0
2,note_on,52,0,120
2,note_on,48,46,0
2,note_on,48,0,120
2,note_on,52,40,0
2,note_on,52,0,120
2,note_on,44,47,0
2,note_on,44,0,120
2,note_on,52,39,0
2,note_on,52,0,120
2,note_on,45,48,0
2,note_on,45,0,120
2,note_on,52,41,0
2,note_on,52,0,120
2,note_on,48,47,0
2,note_on,48,0,120
2,note_on,52,41,0
2,note_on,52,0,120
2,note_on,41,47,0
2,note_on,41,0,120
2,note_on,50,41,0
2,note_on,50,0,120
2,note_on,40,49,0
2,note_on,40,0,120
2,note_on,48,39,0
2,note_on,48,0,120
2,note_on,45,46,0
2,note_on,45,0,120
2,note_on,48,40,0
2,note_on,48,0,120
2,note_on,40,47,0
2,note_on,40,0,120
2,note_on,47,39,0
2,note_on,47,0,120
2,note_on,33,52,0
2,note_on,33,0,30
2,note_on,36,49,90
2,note_on,36,0,30
2,note_on,40,56,90
2,note_on,40,0,30
2,note_on,45,51,90
2,note_on,45,0,30
2,note_on,33,58,90
2,note_on,33,0,60
2,note_on,45,39,1620
2,note_on,57,47,0
2,note_on,57,0,240
2,note_on,45,0,0
2,note_on,40,39,1200
2,note_on,52,47,0
2,note_on,52,0,240
2,note_on,40,0,0
2,note_on,45,44,1200
2,note_on,57,52,0
2,note_on,57,0,240
2,note_on,45,0,0
2,note_on,57,47,240
2,note_on,45,39,0
2,note_on,45,0,240
2,note_on,57,0,0
2,note_on,40,43,0
2,note_on,52,51,0
2,note_on,52,0,240
2,note_on,40,0,0
2,note_on,40,39,240
2,note_on,52,47,0
2,note_on,52,0,240
2,note_on,40,0,0
2,note_on,64,48,960
2,note_on,64,0,120
2,note_on,52,43,120
2,note_on,52,0,120
2,note_on,45,65,120
2,note_on,57,80,0
2,note_on,57,0,240
2,note_on,45,0,0
2,note_on,40,65,1200
2,note_on,52,80,0
2,note_on,52,0,240
2,note_on,40,0,0
2,note_on,45,65,1200
2,note_on,57,77,0
2,note_on,57,0,240
2,note_on,45,0,0
2,note_on,42,63,720
2,note_on,54,76,0
2,note_on,54,0,240
2,note_on,42,0,0
2,note_on,50,70,0
2,note_on,38,57,0
2,note_on,38,0,240
2,note_on,50,0,0
2,note_on,52,84,0
2,note_on,40,71,0
2,note_on,40,0,240
2,note_on,52,0,0
2,note_on,57,49,720
2,note_on,57,0,120
2,note_on,45,44,120
2,note_on,45,0,120
2,note_on,45,39,120
2,note_on,57,47,0
2,note_on,57,0,240
2,note_on,45,0,0
2,note_on,40,39,1200
2,note_on,52,47,0
2,note_on,52,0,240
2,note_on,40,0,0
2,note_on,57,52,1200
2,note_on,45,44,0
2,note_on,45,0,240
2,note_on,57,0,0
2,note_on,57,47,240
2,note_on,45,39,0
2,note_on,45,0,240
2,note_on,57,0,0
2,note_on,52,51,0
2,note_on,40,43,0
2,note_on,40,0,240
2,note_on,52,0,0
2,note_on,40,39,240
2,note_on,52,47,0
2,note_on,52,0,240
2,note_on,40,0,0
2,note_on,64,48,960
2,note_on,64,0,120
2,note_on,52,43,120
2,note_on,52,0,120
2,note_on,45,65,120
2,note_on,57,80,0
2,note_on,57,0,240
2,note_on,45,0,0
2,note_on,52,80,1200
2,note_on,40,65,0
2,note_on,40,0,240
2,note_on,52,0,0
2,note_on,57,77,1200
2,note_on,45,65,0
2,note_on,45,0,240
2,note_on,57,0,0
2,note_on,42,63,720
2,note_on,54,76,0
2,note_on,54,0,240
2,note_on,42,0,0
2,note_on,38,57,0
2,note_on,50,70,0
2,note_on,50,0,240
2,note_on,38,0,0
2,note_on,52,84,0
2,note_on,40,71,0
2,note_on,40,0,240
2,note_on,52,0,0
2,note_on,57,49,720
2,note_on,57,0,120
2,note_on,45,44,120
2,note_on,45,0,120
2,note_on,57,42,120
2,note_on,57,0,120
2,note_on,61,31,0
2,note_on,61,0,120
2,note_on,64,34,0
2,note_on,64,0,120
2,note_on,61,32,0
2,note_on,61,0,120
2,note_on,64,34,0
2,note_on,64,0,120
2,note_on,61,30,0
2,note_on,61,0,120
2,note_on,57,40,0
2,note_on,57,0,120
2,note_on,62,30,0
2,note_on,62,0,120
2,note_on,66,33,0
2,note_on,66,0,120
2,note_on,62,31,0
2,note_on,62,0,120
2,note_on,66,33,0
2,note_on,66,0,120
2,note_on,62,32,0
2,note_on,62,0,120
2,note_on,57,40,0
2,note_on,57,0,120
2,note_on,62,31,0
2,note_on,62,0,120
2,note_on,66,34,0
2,note_on,66,0,120
2,note_on,62,34,0
2,note_on,62,0,120
2,note_on,66,39,0
2,note_on,66,0,120
2,note_on,62,33,0
2,note_on,62,0,120
2,note_on,57,43,0
2,note_on,57,0,120
2,note_on,61,33,0
2,note_on,61,0,120
2,note_on,64,33,0
2,note_on,64,0,120
2,note_on,61,31,0
2,note_on,61,0,120
2,note_on,64,33,0
2,note_on,64,0,120
2,note_on,61,31,0
2,note_on,61,0,120
2,note_on,45,52,0
2,note_on,49,52,0
2,note_on,49,0,120
2,note_on,45,0,0
2,note_on,61,45,120
2,note_on,57,45,0
2,note_on,57,0,120
2,note_on,61,0,0
2,note_on,47,52,360
2,note_on,50,52,0
2,note_on,50,0,120
2,note_on,47,0,0
2,note_on,59,45,120
2,note_on,62,45,0
2,note_on,62,0,120
2,note_on,59,0,0
2,note_on,61,37,360
2,note_on,64,43,0
2,note_on,64,0,240
2,note_on,61,0,0
2,note_on,62,42,0
2,note_on,59,35,0
2,note_on,59,0,240
2,note_on,62,0,0
2,note_on,57,36,0
2,note_on,61,43,0
2,note_on,61,0,240
2,note_on,57,0,0
2,note_on,52,42,0
2,note_on,57,42,0
2,note_on,61,50,0
2,note_on,61,0,480
2,note_on,57,0,0
2,note_on,59,38,0
2,note_on,56,32,0
2,note_on,56,0,240
2,note_on,59,0,0
2,note_on,52,0,0
2,note_on,57,66,0
2,note_on,45,53,0
2,note_on,45,0,240
2,note_on,57,0,0
2,note_on,52,66,1200
2,note_on,40,53,0
2,note_on,40,0,240
2,note_on,52,0,0
2,note_on,45,53,1200
2,note_on,57,63,0
2,note_on,57,0,240
2,note_on,45,0,0
2,note_on,54,63,720
2,note_on,42,52,0
2,note_on,42,0,240
2,note_on,54,0,0
2,note_on,50,58,0
2,note_on,38,47,0
2,note_on,38,0,240
2,note_on,50,0,0
2,note_on,40,58,0
2,note_on,52,69,0
2,note_on,52,0,240
2,note_on,40,0,0
2,note_on,45,60,1200
2,note_on,57,72,0
2,note_on,57,0,240
2,note_on,45,0,0
2,note_on,45,59,720
2,note_on,57,72,0
2,note_on,57,0,240
2,note_on,45,0,0
2,note_on,38,54,0
2,note_on,50,66,0
2,note_on,50,0,240
2,note_on,38,0,0
2,note_on,52,79,0
2,note_on,40,66,0
2,note_on,40,0,240
2,note_on,52,0,0
2,note_on,57,58,720
2,note_on,57,0,120
2,note_on,45,52,120
2,note_on,45,0,120
2,note_on,57,42,120
2,note_on,57,0,120
2,note_on,61,31,0
2,note_on,61,0,120
2,note_on,64,34,0
2,note_on,64,0,120
2,note_on,61,32,0
2,note_on,61,0,120
2,note_on,64,34,0
2,note_on,64,0,120
2,note_on,61,30,0
2,note_on,61,0,120
2,note_on,57,40,0
2,note_on,57,0,120
2,note_on,62,30,0
2,note_on,62,0,120
2,note_on,66,33,0
2,note_on,66,0,120
2,note_on,62,31,0
2,note_on,62,0,120
2,note_on,66,33,0
2,note_on,66,0,120
2,note_on,62,32,0
2,note_on,62,0,120
2,note_on,57,40,0
2,note_on,57,0,120
2,note_on,62,31,0
2,note_on,62,0,120
2,note_on,66,34,0
2,note_on,66,0,120
2,note_on,62,34,0
2,note_on,62,0,120
2,note_on,66,39,0
2,note_on,66,0,120
2,note_on,62,33,0
2,note_on,62,0,120
2,note_on,57,43,0
2,note_on,57,0,120
2,note_on,61,33,0
2,note_on,61,0,120
2,note_on,64,33,0
2,note_on,64,0,120
2,note_on,61,31,0
2,note_on,61,0,120
2,note_on,64,33,0
2,note_on,64,0,120
2,note_on,61,31,0
2,note_on,61,0,120
2,note_on,49,52,0
2,note_on,45,52,0
2,note_on,45,0,120
2,note_on,49,0,0
2,note_on,61,45,120
2,note_on,57,45,0
2,note_on,57,0,120
2,note_on,61,0,0
2,note_on,50,52,360
2,note_on,47,52,0
2,note_on,47,0,120
2,note_on,50,0,0
2,note_on,62,45,120
2,note_on,59,45,0
2,note_on,59,0,120
2,note_on,62,0,0
2,note_on,61,37,360
2,note_on,64,43,0
2,note_on,64,0,240
2,note_on,61,0,0
2,note_on,59,35,0
2,note_on,62,42,0
2,note_on,62,0,240
2,note_on,59,0,0
2,note_on,61,43,0
2,note_on,57,36,0
2,note_on,57,0,240
2,note_on,61,0,0
2,note_on,52,42,0
2,note_on,61,50,0
2,note_on,57,42,0
2,note_on,57,0,480
2,note_on,61,0,0
2,note_on,59,38,0
2,note_on,56,32,0
2,note_on,56,0,240
2,note_on,59,0,0
2,note_on,52,0,0
2,note_on,57,66,0
2,note_on,45,53,0
2,note_on,45,0,240
2,note_on,57,0,0
2,note_on,40,53,1200
2,note_on,52,66,0
2,note_on,52,0,240
2,note_on,40,0,0
2,note_on,57,63,1200
2,note_on,45,53,0
2,note_on,45,0,240
2,note_on,57,0,0
2,note_on,42,52,720
2,note_on,54,63,0
2,note_on,54,0,240
2,note_on,42,0,0
2,note_on,38,47,0
2,note_on,50,58,0
2,note_on,50,0,240
2,note_on,38,0,0
2,note_on,52,69,0
2,note_on,40,58,0
2,note_on,40,0,240
2,note_on,52,0,0
2,note_on,45,60,1200
2,note_on,57,72,0
2,note_on,57,0,240
2,note_on,45,0,0
2,note_on,45,59,720
2,note_on,57,72,0
2,note_on,57,0,240
2,note_on,45,0,0
2,note_on,50,66,0
2,note_on,38,54,0
2,note_on,38,0,240
2,note_on,50,0,0
2,note_on,52,79,0
2,note_on,40,66,0
2,note_on,40,0,240
2,note_on,52,0,0
2,note_on,57,58,720
2,note_on,57,0,120
2,note_on,45,52,120
2,note_on,45,0,120
2,note_on,57,43,1560
2,note_on,57,0,120
2,note_on,64,26,0
2,note_on,64,0,120
2,note_on,61,30,0
2,note_on,61,0,120
2,note_on,64,21,0
2,note_on,64,0,120
2,note_on,57,36,0
2,note_on,57,0,120
2,note_on,64,29,0
2,note_on,64,0,120
2,note_on,61,30,0
2,note_on,61,0,120
2,note_on,64,28,0
2,note_on,64,0,120
2,note_on,57,38,0
2,note_on,57,0,120
2,note_on,64,31,0
2,note_on,64,0,120
2,note_on,59,33,0
2,note_on,59,0,120
2,note_on,64,35,0
2,note_on,64,0,120
2,note_on,61,41,0
2,note_on,61,0,120
2,note_on,64,30,0
2,note_on,64,0,120
2,note_on,57,30,0
2,note_on,57,0,120
2,note_on,64,30,0
2,note_on,64,0,120
2,note_on,61,36,0
2,note_on,61,0,120
2,note_on,64,25,0
2,note_on,64,0,120
2,note_on,57,29,0
2,note_on,57,0,120
2,note_on,64,27,0
2,note_on,64,0,120
2,note_on,61,36,0
2,note_on,61,0,120
2,note_on,64,30,0
2,note_on,64,0,120
2,note_on,57,30,0
2,note_on,57,0,120
2,note_on,64,24,0
2,note_on,64,0,120
2,note_on,56,38,0
2,note_on,56,0,120
2,note_on,64,23,0
2,note_on,64,0,120
2,note_on,63,25,0
2,note_on,63,0,120
2,note_on,64,23,0
2,note_on,64,0,120
2,note_on,56,36,0
2,note_on,56,0,120
2,note_on,64,25,0
2,note_on,64,0,120
2,note_on,63,28,0
2,note_on,63,0,120
2,note_on,64,25,0
2,note_on,64,0,120
2,note_on,56,41,0
2,note_on,56,0,120
2,note_on,64,29,0
2,note_on,64,0,120
2,note_on,57,32,0
2,note_on,57,0,120
2,note_on,64,29,0
2,note_on,64,0,120
2,note_on,58,40,0
2,note_on,58,0,120
2,note_on,64,28,0
2,note_on,64,0,120
2,note_on,63,31,0
2,note_on,63,0,120
2,note_on,64,29,0
2,note_on,64,0,120
2,note_on,59,36,0
2,note_on,59,0,120
2,note_on,64,25,0
2,note_on,64,0,120
2,note_on,63,29,0
2,note_on,63,0,120
2,note_on,64,26,0
2,note_on,64,0,120
2,note_on,56,36,0
2,note_on,56,0,120
2,note_on,64,28,0
2,note_on,64,0,120
2,note_on,52,30,0
2,note_on,52,0,120
2,note_on,64,28,0
2,note_on,64,0,120
2,note_on,54,38,0
2,note_on,54,0,120
2,note_on,64,28,0
2,note_on,64,0,120
2,note_on,63,30,0
2,note_on,63,0,120
2,note_on,64,26,0
2,note_on,64,0,120
2,note_on,54,40,0
2,note_on,54,0,480
2,note_on,56,43,480
2,note_on,56,0,120
2,note_on,64,34,0
2,note_on,64,0,120
2,note_on,63,34,0
2,note_on,63,0,120
2,note_on,64,34,0
2,note_on,64,0,120
2,note_on,56,47,0
2,note_on,56,0,480
2,note_on,64,47,480
2,note_on,57,39,0
2,note_on,57,0,480
2,note_on,64,0,0
2,note_on,54,40,0
2,note_on,57,48,0
2,note_on,57,0,480
2,note_on,54,0,0
2,note_on,50,43,0
2,note_on,59,51,0
2,note_on,59,0,480
2,note_on,50,0,0
2,note_on,56,52,0
2,note_on,52,44,0
2,note_on,52,0,480
2,note_on,56,0,0
2,note_on,45,64,960
2,note_on,45,0,120
2,note_on,57,48,0
2,note_on,57,0,90
2,note_on,57,51,30
2,note_on,57,0,90
2,note_on,57,49,30
2,note_on,57,0,90
2,note_on,57,50,30
2,note_on,57,0,90
2,note_on,57,35,30
2,note_on,57,0,90
2,note_on,57,38,30
2,note_on,57,0,90
2,note_on,57,37,30
2,note_on,57,0,90
2,note_on,57,42,30
2,note_on,57,0,90
2,note_on,57,37,30
2,note_on,57,0,90
2,note_on,57,40,30
2,note_on,57,0,90
2,note_on,57,37,30
2,note_on,57,0,90
2,note_on,57,47,30
2,note_on,57,0,480
2,note_on,40,64,960
2,note_on,40,0,120
2,note_on,52,46,0
2,note_on,52,0,90
2,note_on,52,51,30
2,note_on,52,0,90
2,note_on,52,47,30
2,note_on,52,0,90
2,note_on,52,50,30
2,note_on,52,0,90
2,note_on,52,36,30
2,note_on,52,0,90
2,note_on,52,40,30
2,note_on,52,0,90
2,note_on,52,36,30
2,note_on,52,0,90
2,note_on,52,42,30
2,note_on,52,0,90
2,note_on,52,35,30
2,note_on,52,0,90
2,note_on,52,38,30
2,note_on,52,0,90
2,note_on,52,38,30
2,note_on,52,0,90
2,note_on,52,47,30
2,note_on,52,0,480
2,note_on,64,40,1440
2,note_on,54,40,0
2,note_on,54,0,480
2,note_on,64,0,0
2,note_on,56,40,0
2,note_on,64,40,0
2,note_on,64,0,480
2,note_on,56,0,0
2,note_on,57,40,0
2,note_on,64,40,0
2,note_on,64,0,480
2,note_on,57,0,0
2,note_on,59,47,480
2,note_on,50,39,0
2,note_on,54,39,0
2,note_on,54,0,480
2,note_on,50,0,0
2,note_on,59,0,0
2,note_on,52,39,0
2,note_on,57,39,0
2,note_on,61,47,0
2,note_on,61,0,960
2,note_on,57,0,0
2,note_on,62,40,0
2,note_on,59,30,0
2,note_on,59,0,480
2,note_on,62,0,0
2,note_on,52,0,0
2,note_on,57,28,0
2,note_on,62,34,0
2,note_on,62,0,480
2,note_on,61,30,0
2,note_on,61,0,480
2,note_on,57,0,0
2,note_on,57,43,480
2,note_on,57,0,120
2,note_on,64,26,0
2,note_on,64,0,120
2,note_on,61,30,0
2,note_on,61,0,120
2,note_on,64,25,0
2,note_on,64,0,120
2,note_on,57,42,0
2,note_on,57,0,120
2,note_on,64,29,0
2,note_on,64,0,120
2,note_on,61,32,0
2,note_on,61,0,120
2,note_on,64,29,0
2,note_on,64,0,120
2,note_on,57,43,0
2,note_on,57,0,120
2,note_on,64,31,0
2,note_on,64,0,120
2,note_on,59,33,0
2,note_on,59,0,120
2,note_on,64,30,0
2,note_on,64,0,120
2,note_on,61,42,0
2,note_on,61,0,120
2,note_on,64,29,0
2,note_on,64,0,120
2,note_on,57,31,0
2,note_on,57,0,120
2,note_on,64,28,0
2,note_on,64,0,120
2,note_on,61,36,0
2,note_on,61,0,120
2,note_on,64,26,0
2,note_on,64,0,120
2,note_on,57,29,0
2,note_on,57,0,120
2,note_on,64,26,0
2,note_on,64,0,120
2,note_on,61,36,0
2,note_on,61,0,120
2,note_on,64,28,0
2,note_on,64,0,120
2,note_on,57,30,0
2,note_on,57,0,120
2,note_on,64,26,0
2,note_on,64,0,120
2,note_on,56,38,0
2,note_on,56,0,120
2,note_on,64,22,0
2,note_on,64,0,120
2,note_on,63,27,0
2,note_on,63,0,120
2,note_on,64,23,0
2,note_on,64,0,120
2,note_on,56,36,0
2,note_on,56,0,120
2,note_on,64,26,0
2,note_on,64,0,120
2,note_on,63,30,0
2,note_on,63,0,120
2,note_on,64,29,0
2,note_on,64,0,120
2,note_on,56,39,0
2,note_on,56,0,120
2,note_on,64,31,0
2,note_on,64,0,120
2,note_on,57,33,0
2,note_on,57,0,120
2,note_on,64,38,0
2,note_on,64,0,120
2,note_on,58,42,0
2,note_on,58,0,120
2,note_on,64,28,0
2,note_on,64,0,120
2,note_on,63,31,0
2,note_on,63,0,120
2,note_on,64,28,0
2,note_on,64,0,120
2,note_on,59,36,0
2,note_on,59,0,120
2,note_on,64,27,0
2,note_on,64,0,120
2,note_on,63,29,0
2,note_on,63,0,120
2,note_on,64,27,0
2,note_on,64,0,120
2,note_on,56,36,0
2,note_on,56,0,120
2,note_on,64,28,0
2,note_on,64,0,120
2,note_on,52,30,0
2,note_on,52,0,120
2,note_on,64,28,0
2,note_on,64,0,120
2,note_on,54,38,0
2,note_on,54,0,120
2,note_on,64,29,0
2,note_on,64,0,120
2,note_on,63,30,0
2,note_on,63,0,120
2,note_on,64,28,0
2,note_on,64,0,120
2,note_on,54,40,0
2,note_on,54,0,480
2,note_on,56,43,480
2,note_on,56,0,120
2,note_on,64,32,0
2,note_on,64,0,120
2,note_on,63,34,0
2,note_on,63,0,120
2,note_on,64,30,0
2,note_on,64,0,120
2,note_on,56,47,0
2,note_on,56,0,480
2,note_on,57,35,480
2,note_on,64,42,0
2,note_on,64,0,480
2,note_on,57,0,0
2,note_on,57,43,0
2,note_on,54,36,0
2,note_on,54,0,480
2,note_on,57,0,0
2,note_on,59,45,0
2,note_on,50,38,0
2,note_on,50,0,480
2,note_on,59,0,0
2,note_on,52,39,0
2,note_on,56,46,0
2,note_on,56,0,480
2,note_on,52,0,0
2,note_on,45,64,960
2,note_on,45,0,120
2,note_on,57,47,0
2,note_on,57,0,90
2,note_on,57,51,30
2,note_on,57,0,90
2,note_on,57,46,30
2,note_on,57,0,90
2,note_on,57,50,30
2,note_on,57,0,90
2,note_on,57,32,30
2,note_on,57,0,90
2,note_on,57,37,30
2,note_on,57,0,90
2,note_on,57,33,30
2,note_on,57,0,90
2,note_on,57,42,30
2,note_on,57,0,90
2,note_on,57,35,30
2,note_on,57,0,90
2,note_on,57,39,30
2,note_on,57,0,90
2,note_on,57,34,30
2,note_on,57,0,90
2,note_on,57,47,30
2,note_on,57,0,480
2,note_on,40,64,960
2,note_on,40,0,120
2,note_on,52,46,0
2,note_on,52,0,90
2,note_on,52,51,30
2,note_on,52,0,90
2,note_on,52,46,30
2,note_on,52,0,90
2,note_on,52,50,30
2,note_on,52,0,90
2,note_on,52,34,30
2,note_on,52,0,90
2,note_on,52,38,30
2,note_on,52,0,90
2,note_on,52,34,30
2,note_on,52,0,90
2,note_on,52,42,30
2,note_on,52,0,90
2,note_on,52,34,30
2,note_on,52,0,90
2,note_on,52,38,30
2,note_on,52,0,90
2,note_on,52,35,30
2,note_on,52,0,90
2,note_on,52,47,30
2,note_on,52,0,480
2,note_on,64,43,1440
2,note_on,54,43,0
2,note_on,54,0,480
2,note_on,64,0,0
2,note_on,64,43,0
2,note_on,56,43,0
2,note_on,56,0,480
2,note_on,64,0,0
2,note_on,64,43,0
2,note_on,57,43,0
2,note_on,57,0,480
2,note_on,64,0,0
2,note_on,50,39,480
2,note_on,59,47,0
2,note_on,54,39,0
2,note_on,54,0,480
2,note_on,59,0,0
2,note_on,50,0,0
2,note_on,52,39,0
2,note_on,57,39,0
2,note_on,61,47,0
2,note_on,61,0,960
2,note_on,57,0,0
2,note_on,62,40,0
2,note_on,59,30,0
2,note_on,59,0,480
2,note_on,62,0,0
2,note_on,52,0,0
2,note_on,57,28,0
2,note_on,62,34,0
2,note_on,62,0,480
2,note_on,61,33,0
2,note_on,61,0,480
2,note_on,57,0,0
2,note_on,57,43,480
2,note_on,57,0,120
2,note_on,69,32,0
2,note_on,69,0,120
2,note_on,61,37,0
2,note_on,61,0,120
2,note_on,69,32,0
2,note_on,69,0,120
2,note_on,57,45,0
2,note_on,57,0,120
2,note_on,68,34,0
2,note_on,68,0,120
2,note_on,59,37,0
2,note_on,59,0,120
2,note_on,68,34,0
2,note_on,68,0,120
2,note_on,57,47,0
2,note_on,57,0,120
2,note_on,67,36,0
2,note_on,67,0,120
2,note_on,61,42,0
2,note_on,61,0,120
2,note_on,67,38,0
2,note_on,67,0,120
2,note_on,57,50,0
2,note_on,57,0,120
2,note_on,66,43,0
2,note_on,66,0,120
2,note_on,62,46,0
2,note_on,62,0,120
2,note_on,66,43,0
2,note_on,66,0,120
2,note_on,54,54,0
2,note_on,54,0,120
2,note_on,62,44,0
2,note_on,62,0,120
2,note_on,57,47,0
2,note_on,57,0,120
2,note_on,62,44,0
2,note_on,62,0,118
2,note_on,50,51,2
2,note_on,50,0,120
2,note_on,57,43,0
2,note_on,57,0,120
2,note_on,54,46,0
2,note_on,54,0,120
2,note_on,57,43,0
2,note_on,57,0,120
2,note_on,45,56,0
2,note_on,45,0,120
2,note_on,54,46,0
2,note_on,54,0,120
2,note_on,50,49,0
2,note_on,50,0,120
2,note_on,54,47,0
2,note_on,54,0,120
2,note_on,45,60,0
2,note_on,45,0,120
2,note_on,54,52,0
2,note_on,54,0,120
2,note_on,50,55,0
2,note_on,50,0,120
2,note_on,54,58,0
2,note_on,54,0,120
2,note_on,45,70,0
2,note_on,45,0,120
2,note_on,54,57,0
2,note_on,54,0,120
2,note_on,50,61,0
2,note_on,50,0,120
2,note_on,54,59,0
2,note_on,54,0,120
2,note_on,45,70,0
2,note_on,50,70,0
2,note_on,50,0,480
2,note_on,45,0,0
2,note_on,45,53,0
2,note_on,49,53,0
2,note_on,49,0,480
2,note_on,45,0,0
2,note_on,61,43,480
2,note_on,57,43,0
2,note_on,64,51,0
2,note_on,64,0,1440
2,note_on,57,0,0
2,note_on,61,0,0
2,note_on,59,43,0
2,note_on,64,51,0
2,note_on,62,43,0
2,note_on,62,0,1440
2,note_on,64,0,0
2,note_on,59,0,0
2,note_on,64,54,0
2,note_on,57,45,0
2,note_on,61,45,0
2,note_on,61,0,480
2,note_on,57,0,0
2,note_on,64,0,0
2,note_on,56,45,0
2,note_on,59,45,0
2,note_on,64,53,0
2,note_on,64,0,480
2,note_on,59,0,0
2,note_on,56,0,0
2,note_on,57,45,0
2,note_on,64,53,0
2,note_on,61,45,0
2,note_on,61,0,480
2,note_on,64,0,0
2,note_on,57,0,0
2,note_on,61,57,0
2,note_on,52,43,0
2,note_on,57,48,0
2,note_on,57,0,480
2,note_on,61,0,0
2,note_on,56,43,0
2,note_on,59,51,0
2,note_on,59,0,480
2,note_on,56,0,0
2,note_on,52,0,0
2,note_on,57,37,480
2,note_on,57,0,120
2,note_on,64,28,0
2,note_on,64,0,120
2,note_on,61,33,0
2,note_on,61,0,120
2,note_on,64,28,0
2,note_on,64,0,120
2,note_on,57,42,0
2,note_on,57,0,120
2,note_on,64,31,0
2,note_on,64,0,120
2,note_on,61,37,0
2,note_on,61,0,120
2,note_on,64,33,0
2,note_on,64,0,120
2,note_on,57,42,0
2,note_on,57,0,120
2,note_on,64,32,0
2,note_on,64,0,120
2,note_on,59,37,0
2,note_on,59,0,120
2,note_on,64,32,0
2,note_on,64,0,120
2,note_on,61,44,0
2,note_on,61,0,120
2,note_on,64,28,0
2,note_on,64,0,120
2,note_on,57,31,0
2,note_on,57,0,120
2,note_on,64,27,0
2,note_on,64,0,120
2,note_on,61,34,0
2,note_on,61,0,120
2,note_on,64,22,0
2,note_on,64,0,120
2,note_on,57,28,0
2,note_on,57,0,120
2,note_on,64,23,0
2,note_on,64,0,120
2,note_on,61,37,0
2,note_on,61,0,120
2,note_on,64,28,0
2,note_on,64,0,120
2,note_on,57,32,0
2,note_on,57,0,120
2,note_on,64,28,0
2,note_on,64,0,120
2,note_on,56,37,0
2,note_on,56,0,120
2,note_on,64,29,0
2,note_on,64,0,120
2,note_on,63,33,0
2,note_on,63,0,120
2,note_on,64,30,0
2,note_on,64,0,120
2,note_on,56,37,0
2,note_on,56,0,120
2,note_on,64,31,0
2,note_on,64,0,120
2,note_on,63,33,0
2,note_on,63,0,120
2,note_on,64,30,0
2,note_on,64,0,120
2,note_on,56,37,0
2,note_on,56,0,120
2,note_on,64,30,0
2,note_on,64,0,120
2,note_on,57,33,0
2,note_on,57,0,120
2,note_on,64,30,0
2,note_on,64,0,120
2,note_on,59,37,0
2,note_on,59,0,120
2,note_on,64,29,0
2,note_on,64,0,120
2,note_on,63,31,0
2,note_on,63,0,120
2,note_on,64,28,0
2,note_on,64,0,120
2,note_on,56,34,0
2,note_on,56,0,120
2,note_on,64,25,0
2,note_on,64,0,120
2,note_on,59,28,0
2,note_on,59,0,120
2,note_on,64,26,0
2,note_on,64,0,120
2,note_on,52,40,0
2,note_on,52,0,120
2,note_on,64,30,0
2,note_on,64,0,120
2,note_on,56,33,0
2,note_on,56,0,120
2,note_on,64,30,0
2,note_on,64,0,120
2,note_on,54,39,0
2,note_on,54,0,120
2,note_on,64,28,0
2,note_on,64,0,120
2,note_on,63,31,0
2,note_on,63,0,120
2,note_on,64,27,0
2,note_on,64,0,120
2,note_on,54,42,0
2,note_on,54,0,120
2,note_on,64,32,0
2,note_on,64,0,120
2,note_on,63,36,0
2,note_on,63,0,120
2,note_on,64,34,0
2,note_on,64,0,120
2,note_on,56,42,0
2,note_on,56,0,120
2,note_on,64,35,0
2,note_on,64,0,120
2,note_on,63,36,0
2,note_on,63,0,120
2,note_on,64,34,0
2,note_on,64,0,120
2,note_on,57,42,0
2,note_on,57,0,480
2,note_on,50,37,480
2,note_on,54,43,0
2,note_on,59,51,0
2,note_on,59,0,480
2,note_on,54,0,0
2,note_on,50,0,0
2,note_on,52,44,0
2,note_on,57,44,0
2,note_on,61,54,0
2,note_on,61,0,960
2,note_on,57,0,0
2,note_on,62,46,0
2,note_on,59,34,0
2,note_on,59,0,480
2,note_on,62,0,0
2,note_on,52,0,0
2,note_on,62,33,0
2,note_on,57,33,0
2,note_on,64,39,0
2,note_on,62,0,960
2,note_on,61,39,0
2,note_on,61,0,480
2,note_on,64,0,0
2,note_on,57,0,0
2,note_on,45,61,0
2,note_on,45,0,120
2,note_on,49,50,0
2,note_on,49,0,120
2,note_on,52,54,0
2,note_on,52,0,120
2,note_on,57,50,0
2,note_on,57,0,120
2,note_on,45,61,0
2,note_on,45,0,120
2,note_on,49,50,0
2,note_on,49,0,120
2,note_on,52,54,0
2,note_on,52,0,120
2,note_on,57,50,0
2,note_on,57,0,120
2,note_on,47,61,0
2,note_on,47,0,120
2,note_on,50,52,0
2,note_on,50,0,120
2,note_on,56,56,0
2,note_on,56,0,120
2,note_on,59,52,0
2,note_on,59,0,120
2,note_on,49,51,0
2,note_on,57,61,0
2,note_on,57,0,960
2,note_on,49,0,0
2,note_on,50,56,0
2,note_on,57,66,0
2,note_on,57,0,480
2,note_on,50,0,0
2,note_on,52,35,0
2,note_on,61,42,0
2,note_on,61,0,480
2,note_on,52,0,0
2,note_on,52,35,0
2,note_on,61,42,0
2,note_on,61,0,480
2,note_on,52,0,0
2,note_on,52,31,0
2,note_on,56,31,0
2,note_on,62,37,0
2,note_on,62,0,480
2,note_on,56,0,0
2,note_on,52,0,0
2,note_on,57,34,0
2,note_on,62,41,0
2,note_on,62,0,480
2,note_on,61,41,0
2,note_on,61,0,480
2,note_on,57,0,0
2,note_on,57,39,480
2,note_on,57,0,120
2,note_on,69,29,0
2,note_on,69,0,120
2,note_on,61,36,0
2,note_on,61,0,120
2,note_on,69,32,0
2,note_on,69,0,120
2,note_on,57,45,0
2,note_on,57,0,120
2,note_on,68,34,0
2,note_on,68,0,120
2,note_on,59,37,0
2,note_on,59,0,120
2,note_on,68,34,0
2,note_on,68,0,120
2,note_on,57,47,0
2,note_on,57,0,120
2,note_on,67,36,0
2,note_on,67,0,120
2,note_on,61,42,0
2,note_on,61,0,120
2,note_on,67,38,0
2,note_on,67,0,120
2,note_on,57,48,0
2,note_on,57,0,120
2,note_on,66,41,0
2,note_on,66,0,120
2,note_on,62,44,0
2,note_on,62,0,120
2,note_on,66,41,0
2,note_on,66,0,120
2,note_on,54,52,0
2,note_on,54,0,120
2,note_on,62,41,0
2,note_on,62,0,120
2,note_on,57,45,0
2,note_on,57,0,120
2,note_on,62,41,0
2,note_on,62,0,118
2,note_on,50,51,2
2,note_on,50,0,120
2,note_on,57,43,0
2,note_on,57,0,120
2,note_on,54,46,0
2,note_on,54,0,120
2,note_on,57,43,0
2,note_on,57,0,120
2,note_on,45,56,0
2,note_on,45,0,120
2,note_on,54,47,0
2,note_on,54,0,120
2,note_on,50,49,0
2,note_on,50,0,120
2,note_on,54,47,0
2,note_on,54,0,120
2,note_on,45,60,0
2,note_on,45,0,120
2,note_on,54,52,0
2,note_on,54,0,120
2,note_on,50,55,0
2,note_on,50,0,120
2,note_on,54,58,0
2,note_on,54,0,120
2,note_on,45,70,0
2,note_on,45,0,120
2,note_on,54,59,0
2,note_on,54,0,120
2,note_on,50,61,0
2,note_on,50,0,120
2,note_on,54,57,0
2,note_on,54,0,120
2,note_on,45,70,0
2,note_on,50,70,0
2,note_on,50,0,480
2,note_on,45,0,0
2,note_on,45,53,0
2,note_on,49,53,0
2,note_on,49,0,480
2,note_on,45,0,0
2,note_on,61,43,480
2,note_on,57,43,0
2,note_on,64,51,0
2,note_on,64,0,1440
2,note_on,57,0,0
2,note_on,61,0,0
2,note_on,59,43,0
2,note_on,64,51,0
2,note_on,62,43,0
2,note_on,62,0,1440
2,note_on,64,0,0
2,note_on,59,0,0
2,note_on,64,54,0
2,note_on,57,45,0
2,note_on,61,45,0
2,note_on,61,0,480
2,note_on,57,0,0
2,note_on,64,0,0
2,note_on,56,45,0
2,note_on,59,45,0
2,note_on,64,53,0
2,note_on,64,0,480
2,note_on,59,0,0
2,note_on,56,0,0
2,note_on,57,45,0
2,note_on,64,53,0
2,note_on,61,45,0
2,note_on,61,0,480
2,note_on,64,0,0
2,note_on,57,0,0
2,note_on,61,57,0
2,note_on,52,43,0
2,note_on,57,48,0
2,note_on,57,0,480
2,note_on,61,0,0
2,note_on,56,43,0
2,note_on,59,51,0
2,note_on,59,0,480
2,note_on,56,0,0
2,note_on,52,0,0
2,note_on,57,37,480
2,note_on,57,0,120
2,note_on,64,29,0
2,note_on,64,0,120
2,note_on,61,33,0
2,note_on,61,0,120
2,note_on,64,28,0
2,note_on,64,0,120
2,note_on,57,42,0
2,note_on,57,0,120
2,note_on,64,33,0
2,note_on,64,0,120
2,note_on,61,37,0
2,note_on,61,0,120
2,note_on,64,28,0
2,note_on,64,0,120
2,note_on,57,42,0
2,note_on,57,0,120
2,note_on,64,30,0
2,note_on,64,0,120
2,note_on,59,37,0
2,note_on,59,0,120
2,note_on,64,30,0
2,note_on,64,0,120
2,note_on,61,44,0
2,note_on,61,0,120
2,note_on,64,27,0
2,note_on,64,0,120
2,note_on,57,31,0
2,note_on,57,0,120
2,note_on,64,27,0
2,note_on,64,0,120
2,note_on,61,34,0
2,note_on,61,0,120
2,note_on,64,26,0
2,note_on,64,0,120
2,note_on,57,28,0
2,note_on,57,0,120
2,note_on,64,26,0
2,note_on,64,0,120
2,note_on,61,37,0
2,note_on,61,0,120
2,note_on,64,29,0
2,note_on,64,0,120
2,note_on,57,32,0
2,note_on,57,0,120
2,note_on,64,28,0
2,note_on,64,0,120
2,note_on,56,37,0
2,note_on,56,0,120
2,note_on,64,30,0
2,note_on,64,0,120
2,note_on,63,33,0
2,note_on,63,0,120
2,note_on,64,29,0
2,note_on,64,0,120
2,note_on,56,37,0
2,note_on,56,0,120
2,note_on,64,30,0
2,note_on,64,0,120
2,note_on,63,33,0
2,note_on,63,0,120
2,note_on,64,28,0
2,note_on,64,0,120
2,note_on,56,37,0
2,note_on,56,0,120
2,note_on,64,30,0
2,note_on,64,0,120
2,note_on,57,33,0
2,note_on,57,0,120
2,note_on,64,28,0
2,note_on,64,0,120
2,note_on,59,37,0
2,note_on,59,0,120
2,note_on,64,28,0
2,note_on,64,0,120
2,note_on,63,31,0
2,note_on,63,0,120
2,note_on,64,27,0
2,note_on,64,0,120
2,note_on,56,34,0
2,note_on,56,0,120
2,note_on,64,25,0
2,note_on,64,0,120
2,note_on,59,28,0
2,note_on,59,0,120
2,note_on,64,25,0
2,note_on,64,0,120
2,note_on,52,40,0
2,note_on,52,0,120
2,note_on,64,30,0
2,note_on,64,0,120
2,note_on,56,33,0
2,note_on,56,0,120
2,note_on,64,29,0
2,note_on,64,0,120
2,note_on,54,39,0
2,note_on,54,0,120
2,note_on,64,28,0
2,note_on,64,0,120
2,note_on,63,31,0
2,note_on,63,0,120
2,note_on,64,30,0
2,note_on,64,0,120
2,note_on,54,42,0
2,note_on,54,0,120
2,note_on,64,34,0
2,note_on,64,0,120
2,note_on,63,36,0
2,note_on,63,0,120
2,note_on,64,33,0
2,note_on,64,0,120
2,note_on,56,42,0
2,note_on,56,0,120
2,note_on,64,33,0
2,note_on,64,0,120
2,note_on,63,36,0
2,note_on,63,0,120
2,note_on,64,34,0
2,note_on,64,0,120
2,note_on,57,42,0
2,note_on,57,0,480
2,note_on,50,37,480
2,note_on,54,43,0
2,note_on,59,51,0
2,note_on,59,0,480
2,note_on,54,0,0
2,note_on,50,0,0
2,note_on,52,44,0
2,note_on,57,44,0
2,note_on,61,54,0
2,note_on,61,0,960
2,note_on,57,0,0
2,note_on,62,46,0
2,note_on,59,34,0
2,note_on,59,0,480
2,note_on,62,0,0
2,note_on,52,0,0
2,note_on,62,33,0
2,note_on,57,33,0
2,note_on,64,39,0
2,note_on,62,0,960
2,note_on,61,39,0
2,note_on,61,0,480
2,note_on,64,0,0
2,note_on,57,0,0
2,note_on,45,61,0
2,note_on,45,0,120
2,note_on,49,51,0
2,note_on,49,0,120
2,note_on,52,54,0
2,note_on,52,0,120
2,note_on,57,51,0
2,note_on,57,0,120
2,note_on,45,61,0
2,note_on,45,0,120
2,note_on,49,51,0
2,note_on,49,0,120
2,note_on,52,54,0
2,note_on,52,0,120
2,note_on,57,51,0
2,note_on,57,0,120
2,note_on,47,61,0
2,note_on,47,0,120
2,note_on,50,52,0
2,note_on,50,0,120
2,note_on,56,56,0
2,note_on,56,0,120
2,note_on,59,51,0
2,note_on,59,0,120
2,note_on,49,51,0
2,note_on,57,61,0
2,note_on,57,0,960
2,note_on,49,0,0
2,note_on,50,56,0
2,note_on,57,66,0
2,note_on,57,0,480
2,note_on,50,0,0
2,note_on,52,35,0
2,note_on,61,42,0
2,note_on,61,0,480
2,note_on,52,0,0
2,note_on,52,35,0
2,note_on,61,42,0
2,note_on,61,0,480
2,note_on,52,0,0
2,note_on,52,31,0
2,note_on,56,31,0
2,note_on,62,37,0
2,note_on,62,0,480
2,note_on,56,0,0
2,note_on,52,0,0
2,note_on,57,24,0
2,note_on,62,28,0
2,note_on,62,0,480
2,note_on,61,22,0
2,note_on,61,0,480
2,note_on,57,0,0
2,note_on,57,41,3360
2,note_on,57,0,240
2,note_on,64,32,0
2,note_on,64,0,240
2,note_on,59,37,0
2,note_on,59,0,240
2,note_on,64,32,0
2,note_on,64,0,240
2,note_on,61,42,0
2,note_on,61,0,240
2,note_on,64,33,0
2,note_on,64,0,240
2,note_on,57,36,0
2,note_on,57,0,240
2,note_on,64,33,0
2,note_on,64,0,240
2,note_on,56,42,0
2,note_on,56,0,240
2,note_on,64,33,0
2,note_on,64,0,240
2,note_on,57,36,0
2,note_on,57,0,240
2,note_on,64,33,0
2,note_on,64,0,240
2,note_on,59,42,0
2,note_on,59,0,240
2,note_on,64,31,0
2,note_on,64,0,240
2,note_on,62,35,0
2,note_on,62,0,240
2,note_on,64,31,0
2,note_on,64,0,240
2,note_on,61,40,0
2,note_on,61,0,240
2,note_on,64,31,0
2,note_on,64,0,240
2,note_on,61,34,0
2,note_on,61,0,240
2,note_on,64,31,0
2,note_on,64,0,240
2,note_on,56,39,0
2,note_on,56,0,240
2,note_on,64,31,0
2,note_on,64,0,240
2,note_on,56,33,0
2,note_on,56,0,240
2,note_on,64,31,0
2,note_on,64,0,240
2,note_on,57,40,0
2,note_on,57,0,240
2,note_on,64,31,0
2,note_on,64,0,240
2,note_on,59,34,0
2,note_on,59,0,240
2,note_on,64,31,0
2,note_on,64,0,240
2,note_on,57,38,0
2,note_on,52,31,0
2,note_on,57,0,480
2,note_on,56,41,0
2,note_on,56,0,240
2,note_on,52,0,0
2,note_on,33,64,150
2,note_on,37,70,30
2,note_on,40,75,30
2,note_on,45,80,30
2,note_on,45,0,240
2,note_on,33,0,0
2,note_on,37,0,0
2,note_on,40,0,0
2,note_on,57,58,630
2,note_on,61,62,30
2,note_on,64,68,30
2,note_on,69,71,30
2,note_on,69,0,240
2,note_on,57,0,0
2,note_on,61,0,0
2,note_on,64,0,0
2,note_on,40,70,630
2,note_on,44,72,30
2,note_on,47,77,30
2,note_on,52,80,30
2,note_on,52,0,240
2,note_on,40,0,0
2,note_on,44,0,0
2,note_on,47,0,0
2,note_on,52,58,630
2,note_on,56,68,30
2,note_on,59,62,30
2,note_on,64,71,30
2,note_on,64,0,240
2,note_on,52,0,0
2,note_on,56,0,0
2,note_on,59,0,0
2,note_on,42,80,720
2,note_on,42,0,60
2,note_on,54,73,180
2,note_on,54,0,60
2,note_on,44,80,180
2,note_on,44,0,60
2,note_on,56,73,180
2,note_on,56,0,60
2,note_on,57,75,180
2,note_on,57,0,60
2,note_on,61,77,180
2,note_on,61,0,60
2,note_on,62,83,180
2,note_on,62,0,60
2,note_on,56,78,180
2,note_on,56,0,60
2,note_on,57,84,180
2,note_on,57,0,60
2,note_on,54,77,180
2,note_on,54,0,60
2,note_on,50,80,180
2,note_on,50,0,60
2,note_on,52,79,180
2,note_on,52,0,60
2,note_on,45,75,180
2,note_on,45,0,480
2,note_on,33,61,0
2,note_on,37,61,0
2,note_on,40,78,0
2,note_on,40,0,420
2,note_on,37,0,0
2,note_on,33,0,0
2,note_on,57,41,60
2,note_on,57,0,240
2,note_on,64,32,0
2,note_on,64,0,240
2,note_on,59,37,0
2,note_on,59,0,240
2,note_on,64,32,0
2,note_on,64,0,240
2,note_on,61,42,0
2,note_on,61,0,240
2,note_on,64,33,0
2,note_on,64,0,240
2,note_on,57,36,0
2,note_on,57,0,240
2,note_on,64,33,0
2,note_on,64,0,240
2,note_on,56,42,0
2,note_on,56,0,240
2,note_on,64,33,0
2,note_on,64,0,240
2,note_on,57,36,0
2,note_on,57,0,240
2,note_on,64,33,0
2,note_on,64,0,240
2,note_on,59,42,0
2,note_on,59,0,240
2,note_on,64,31,0
2,note_on,64,0,240
2,note_on,62,35,0
2,note_on,62,0,240
2,note_on,64,31,0
2,note_on,64,0,240
2,note_on,61,40,0
2,note_on,61,0,240
2,note_on,64,31,0
2,note_on,64,0,240
2,note_on,61,34,0
2,note_on,61,0,240
2,note_on,64,31,0
2,note_on,64,0,240
2,note_on,56,39,0
2,note_on,56,0,240
2,note_on,64,31,0
2,note_on,64,0,240
2,note_on,56,33,0
2,note_on,56,0,240
2,note_on,64,31,0
2,note_on,64,0,240
2,note_on,57,40,0
2,note_on,57,0,240
2,note_on,64,31,0
2,note_on,64,0,240
2,note_on,59,34,0
2,note_on,59,0,240
2,note_on,64,31,0
2,note_on,64,0,240
2,note_on,57,38,0
2,note_on,52,31,0
2,note_on,57,0,480
2,note_on,56,41,0
2,note_on,56,0,240
2,note_on,52,0,0
2,note_on,33,59,150
2,note_on,37,70,30
2,note_on,40,75,30
2,note_on,45,80,30
2,note_on,45,0,240
2,note_on,33,0,0
2,note_on,37,0,0
2,note_on,40,0,0
2,note_on,57,58,630
2,note_on,61,62,30
2,note_on,64,68,30
2,note_on,69,71,30
2,note_on,69,0,240
2,note_on,57,0,0
2,note_on,61,0,0
2,note_on,64,0,0
2,note_on,40,70,630
2,note_on,44,72,30
2,note_on,47,77,30
2,note_on,52,80,30
2,note_on,52,0,240
2,note_on,40,0,0
2,note_on,44,0,0
2,note_on,47,0,0
2,note_on,52,58,630
2,note_on,56,68,30
2,note_on,59,62,30
2,note_on,64,71,30
2,note_on,64,0,240
2,note_on,52,0,0
2,note_on,56,0,0
2,note_on,59,0,0
2,note_on,42,80,720
2,note_on,42,0,60
2,note_on,54,73,180
2,note_on,54,0,60
2,note_on,44,80,180
2,note_on,44,0,60
2,note_on,56,73,180
2,note_on,56,0,60
2,note_on,57,75,180
2,note_on,57,0,60
2,note_on,61,77,180
2,note_on,61,0,60
2,note_on,62,83,180
2,note_on,62,0,60
2,note_on,56,78,180
2,note_on,56,0,60
2,note_on,57,84,180
2,note_on,57,0,60
2,note_on,54,77,180
2,note_on,54,0,60
2,note_on,50,80,180
2,note_on,50,0,60
2,note_on,52,79,180
2,note_on,52,0,60
2,note_on,45,75,180
2,note_on,45,0,480
2,note_on,33,61,0
2,note_on,37,61,0
2,note_on,40,78,0
2,note_on,40,0,480
2,note_on,37,0,0
2,note_on,33,0,0
2,note_on,57,40,0
2,note_on,57,0,240
2,note_on,64,36,0
2,note_on,64,0,240
2,note_on,61,36,0
2,note_on,61,0,240
2,note_on,64,36,0
2,note_on,64,0,240
2,note_on,57,43,0
2,note_on,57,0,240
2,note_on,66,35,0
2,note_on,66,0,240
2,note_on,62,35,0
2,note_on,62,0,240
2,note_on,66,35,0
2,note_on,66,0,240
2,note_on,57,43,0
2,note_on,57,0,240
2,note_on,66,35,0
2,note_on,66,0,240
2,note_on,62,37,0
2,note_on,62,0,240
2,note_on,66,39,0
2,note_on,66,0,240
2,note_on,57,44,0
2,note_on,57,0,240
2,note_on,64,35,0
2,note_on,64,0,240
2,note_on,61,35,0
2,note_on,61,0,240
2,note_on,64,35,0
2,note_on,45,55,150
2,note_on,49,59,30
2,note_on,52,65,30
2,note_on,64,0,30
2,note_on,57,68,0
2,note_on,57,0,240
2,note_on,52,0,0
2,note_on,49,0,0
2,note_on,45,0,0
2,note_on,47,55,630
2,note_on,50,59,30
2,note_on,56,65,30
2,note_on,59,68,30
2,note_on,59,0,240
2,note_on,47,0,0
2,note_on,50,0,0
2,note_on,56,0,0
2,note_on,49,59,630
2,note_on,52,61,30
2,note_on,57,66,30
2,note_on,61,68,30
2,note_on,57,0,230
2,note_on,49,0,10
2,note_on,52,0,0
2,note_on,61,0,0
2,note_on,50,59,150
2,note_on,54,61,30
2,note_on,59,66,30
2,note_on,62,68,30
2,note_on,59,0,230
2,note_on,50,0,10
2,note_on,54,0,0
2,note_on,62,0,0
2,note_on,52,55,150
2,note_on,56,65,30
2,note_on,59,59,30
2,note_on,64,68,30
2,note_on,64,0,240
2,note_on,52,0,0
2,note_on,56,0,0
2,note_on,59,0,0
2,note_on,62,47,360
2,note_on,62,0,120
2,note_on,61,44,0
2,note_on,61,0,120
2,note_on,59,41,0
2,note_on,59,0,120
2,note_on,57,41,0
2,note_on,57,0,240
2,note_on,64,32,0
2,note_on,64,0,240
2,note_on,59,37,0
2,note_on,59,0,240
2,note_on,64,32,0
2,note_on,64,0,240
2,note_on,61,42,0
2,note_on,61,0,240
2,note_on,64,33,0
2,note_on,64,0,240
2,note_on,57,36,0
2,note_on,57,0,240
2,note_on,64,33,0
2,note_on,64,0,240
2,note_on,56,42,0
2,note_on,56,0,240
2,note_on,64,33,0
2,note_on,64,0,240
2,note_on,57,36,0
2,note_on,57,0,240
2,note_on,64,33,0
2,note_on,64,0,240
2,note_on,59,42,0
2,note_on,59,0,240
2,note_on,64,31,0
2,note_on,64,0,240
2,note_on,56,35,0
2,note_on,56,0,240
2,note_on,64,31,0
2,note_on,64,0,240
2,note_on,54,40,0
2,note_on,54,0,240
2,note_on,64,31,0
2,note_on,64,0,240
2,note_on,56,34,0
2,note_on,56,0,240
2,note_on,64,31,0
2,note_on,64,0,240
2,note_on,57,39,0
2,note_on,57,0,240
2,note_on,64,31,0
2,note_on,64,0,240
2,note_on,50,33,0
2,note_on,50,0,240
2,note_on,59,31,0
2,note_on,59,0,240
2,note_on,52,40,0
2,note_on,52,0,240
2,note_on,57,31,0
2,note_on,57,0,240
2,note_on,52,34,0
2,note_on,52,0,240
2,note_on,56,31,0
2,note_on,56,0,240
2,note_on,64,32,0
2,note_on,62,38,0
2,note_on,57,26,0
2,note_on,62,0,480
2,note_on,61,31,0
2,note_on,61,0,240
2,note_on,57,0,0
2,note_on,64,0,0
2,note_on,45,66,240
2,note_on,45,0,120
2,note_on,49,56,0
2,note_on,49,0,120
2,note_on,52,55,0
2,note_on,52,0,120
2,note_on,57,55,0
2,note_on,57,0,120
2,note_on,47,66,0
2,note_on,47,0,120
2,note_on,50,56,0
2,note_on,50,0,120
2,note_on,56,56,0
2,note_on,56,0,120
2,note_on,59,56,0
2,note_on,59,0,120
2,note_on,49,66,0
2,note_on,49,0,120
2,note_on,52,55,0
2,note_on,52,0,120
2,note_on,57,55,0
2,note_on,57,0,120
2,note_on,61,55,0
2,note_on,61,0,120
2,note_on,50,66,0
2,note_on,50,0,120
2,note_on,54,53,0
2,note_on,54,0,120
2,note_on,59,53,0
2,note_on,59,0,120
2,note_on,62,53,0
2,note_on,62,0,120
2,note_on,52,66,0
2,note_on,52,0,120
2,note_on,57,56,0
2,note_on,57,0,120
2,note_on,61,55,0
2,note_on,61,0,120
2,note_on,64,55,0
2,note_on,64,0,120
2,note_on,40,67,0
2,note_on,40,0,120
2,note_on,44,56,0
2,note_on,44,0,120
2,note_on,47,56,0
2,note_on,47,0,120
2,note_on,52,56,0
2,note_on,52,0,120
2,note_on,45,68,0
2,note_on,45,0,120
2,note_on,49,57,0
2,note_on,49,0,120
2,note_on,52,57,0
2,note_on,52,0,120
2,note_on,57,57,0
2,note_on,57,0,120
2,note_on,45,67,0
2,note_on,45,0,420
2,note_on,57,40,60
2,note_on,57,0,240
2,note_on,64,36,0
2,note_on,64,0,240
2,note_on,61,36,0
2,note_on,61,0,240
2,note_on,64,36,0
2,note_on,64,0,240
2,note_on,57,43,0
2,note_on,57,0,240
2,note_on,66,35,0
2,note_on,66,0,240
2,note_on,62,35,0
2,note_on,62,0,240
2,note_on,66,35,0
2,note_on,66,0,240
2,note_on,57,43,0
2,note_on,57,0,240
2,note_on,66,35,0
2,note_on,66,0,240
2,note_on,62,37,0
2,note_on,62,0,240
2,note_on,66,39,0
2,note_on,66,0,240
2,note_on,57,44,0
2,note_on,57,0,240
2,note_on,64,35,0
2,note_on,64,0,240
2,note_on,61,35,0
2,note_on,61,0,240
2,note_on,64,35,0
2,note_on,45,55,150
2,note_on,49,59,30
2,note_on,52,65,30
2,note_on,64,0,30
2,note_on,57,68,0
2,note_on,57,0,240
2,note_on,52,0,0
2,note_on,49,0,0
2,note_on,45,0,0
2,note_on,47,55,630
2,note_on,50,59,30
2,note_on,56,65,30
2,note_on,59,68,30
2,note_on,59,0,240
2,note_on,47,0,0
2,note_on,50,0,0
2,note_on,56,0,0
2,note_on,49,53,630
2,note_on,52,56,30
2,note_on,57,59,30
2,note_on,61,63,30
2,note_on,57,0,230
2,note_on,49,0,10
2,note_on,52,0,0
2,note_on,61,0,0
2,note_on,50,55,150
2,note_on,54,58,30
2,note_on,59,60,30
2,note_on,62,64,30
2,note_on,59,0,230
2,note_on,50,0,10
2,note_on,54,0,0
2,note_on,62,0,0
2,note_on,52,56,150
2,note_on,56,59,30
2,note_on,59,63,30
2,note_on,64,66,30
2,note_on,64,0,240
2,note_on,52,0,0
2,note_on,56,0,0
2,note_on,59,0,0
2,note_on,62,47,360
2,note_on,62,0,120
2,note_on,61,44,0
2,note_on,61,0,120
2,note_on,59,41,0
2,note_on,59,0,120
2,note_on,57,41,0
2,note_on,57,0,240
2,note_on,64,32,0
2,note_on,64,0,240
2,note_on,59,37,0
2,note_on,59,0,240
2,note_on,64,32,0
2,note_on,64,0,240
2,note_on,61,42,0
2,note_on,61,0,240
2,note_on,64,33,0
2,note_on,64,0,240
2,note_on,57,36,0
2,note_on,57,0,240
2,note_on,64,33,0
2,note_on,64,0,240
2,note_on,56,42,0
2,note_on,56,0,240
2,note_on,64,33,0
2,note_on,64,0,240
2,note_on,57,36,0
2,note_on,57,0,240
2,note_on,64,33,0
2,note_on,64,0,240
2,note_on,59,42,0
2,note_on,59,0,240
2,note_on,64,31,0
2,note_on,64,0,240
2,note_on,56,35,0
2,note_on,56,0,240
2,note_on,64,31,0
2,note_on,64,0,240
2,note_on,54,40,0
2,note_on,54,0,240
2,note_on,64,31,0
2,note_on,64,0,240
2,note_on,56,34,0
2,note_on,56,0,240
2,note_on,64,31,0
2,note_on,64,0,240
2,note_on,57,39,0
2,note_on,57,0,240
2,note_on,64,31,0
2,note_on,64,0,240
2,note_on,50,33,0
2,note_on,50,0,240
2,note_on,59,31,0
2,note_on,59,0,240
2,note_on,52,40,0
2,note_on,52,0,240
2,note_on,57,31,0
2,note_on,57,0,240
2,note_on,52,34,0
2,note_on,52,0,240
2,note_on,56,31,0
2,note_on,56,0,240
2,note_on,64,32,0
2,note_on,62,38,0
2,note_on,57,26,0
2,note_on,62,0,480
2,note_on,61,31,0
2,note_on,61,0,240
2,note_on,57,0,0
2,note_on,64,0,0
2,note_on,45,66,240
2,note_on,45,0,120
2,note_on,49,56,0
2,note_on,49,0,120
2,note_on,52,55,0
2,note_on,52,0,120
2,note_on,57,55,0
2,note_on,57,0,120
2,note_on,47,66,0
2,note_on,47,0,120
2,note_on,50,56,0
2,note_on,50,0,120
2,note_on,56,56,0
2,note_on,56,0,120
2,note_on,59,56,0
2,note_on,59,0,120
2,note_on,49,66,0
2,note_on,49,0,120
2,note_on,52,55,0
2,note_on,52,0,120
2,note_on,57,55,0
2,note_on,57,0,120
2,note_on,61,55,0
2,note_on,61,0,120
2,note_on,50,66,0
2,note_on,50,0,120
2,note_on,54,53,0
2,note_on,54,0,120
2,note_on,59,53,0
2,note_on,59,0,120
2,note_on,62,53,0
2,note_on,62,0,120
2,note_on,52,66,0
2,note_on,52,0,120
2,note_on,57,56,0
2,note_on,57,0,120
2,note_on,61,55,0
2,note_on,61,0,120
2,note_on,64,55,0
2,note_on,64,0,120
2,note_on,52,67,0
2,note_on,52,0,120
2,note_on,56,56,0
2,note_on,56,0,120
2,note_on,59,56,0
2,note_on,59,0,120
2,note_on,62,56,0
2,note_on,62,0,110
2,note_on,57,36,10
2,note_on,61,43,0
2,note_on,61,0,240
2,note_on,57,0,0
2,note_on,61,30,0
2,note_on,64,36,0
2,note_on,64,0,228
2,note_on,61,0,0
2,note_on,61,30,12
2,note_on,64,36,0
2,note_on,64,0,228
2,note_on,61,0,0
2,note_on,61,28,12
2,note_on,64,34,0
2,note_on,64,0,220
2,note_on,61,0,0
2,note_on,57,41,20
2,note_on,57,0,240
2,note_on,62,28,0
2,note_on,66,33,0
2,note_on,66,0,228
2,note_on,62,0,0
2,note_on,62,28,12
2,note_on,66,33,0
2,note_on,66,0,228
2,note_on,62,0,0
2,note_on,62,28,12
2,note_on,66,33,0
2,note_on,66,0,240
2,note_on,62,0,0
2,note_on,57,37,0
2,note_on,57,0,240
2,note_on,61,27,0
2,note_on,64,32,0
2,note_on,64,0,228
2,note_on,61,0,0
2,note_on,61,27,12
2,note_on,64,32,0
2,note_on,64,0,228
2,note_on,61,0,0
2,note_on,61,27,12
2,note_on,64,32,0
2,note_on,64,0,240
2,note_on,61,0,0
2,note_on,57,41,0
2,note_on,57,0,240
2,note_on,62,28,0
2,note_on,66,33,0
2,note_on,66,0,228
2,note_on,62,0,0
2,note_on,62,28,12
2,note_on,66,33,0
2,note_on,66,0,228
2,note_on,62,0,0
2,note_on,62,28,12
2,note_on,66,33,0
2,note_on,66,0,240
2,note_on,62,0,0
2,note_on,57,41,0
2,note_on,61,41,0
2,note_on,64,41,0
2,note_on,64,0,240
2,note_on,61,0,0
2,note_on,57,0,0
2,note_on,50,41,720
2,note_on,59,41,0
2,note_on,59,0,240
2,note_on,50,0,0
2,note_on,52,41,720
2,note_on,57,41,0
2,note_on,57,0,240
2,note_on,52,0,0
2,note_on,50,41,720
2,note_on,56,41,0
2,note_on,56,0,240
2,note_on,50,0,0
2,note_on,49,63,720
2,note_on,57,63,0
2,note_on,57,0,240
2,note_on,49,0,0
2,note_on,50,63,720
2,note_on,59,63,0
2,note_on,59,0,240
2,note_on,50,0,0
2,note_on,52,63,720
2,note_on,57,63,0
2,note_on,57,0,240
2,note_on,52,0,0
2,note_on,52,63,720
2,note_on,56,63,0
2,note_on,56,0,240
2,note_on,52,0,0
2,note_on,57,63,720
2,note_on,57,0,480
2,note_on,52,61,960
2,note_on,56,61,0
2,note_on,59,61,0
2,note_on,64,73,0
2,note_on,64,0,120
2,note_on,52,0,0
2,note_on,56,0,0
2,note_on,59,0,0
2,note_on,45,67,360
2,note_on,49,67,0
2,note_on,52,67,0
2,note_on,57,79,0
2,note_on,57,0,120
2,note_on,45,0,0
2,note_on,49,0,0
2,note_on,52,0,0
2,note_on,52,63,1320
2,note_on,56,63,0
2,note_on,59,63,0
2,note_on,64,75,0
2,note_on,64,0,120
2,note_on,52,0,0
2,note_on,56,0,0
2,note_on,59,0,0
2,note_on,45,70,360
2,note_on,49,70,0
2,note_on,52,70,0
2,note_on,57,82,0
2,note_on,57,0,120
2,note_on,45,0,0
2,note_on,49,0,0
2,note_on,52,0,0
