Track,Message Type,Note,Velocity,Time
1,note_on,69,60,0
1,note_on,74,73,0
1,note_on,66,60,0
1,note_on,66,0,480
1,note_on,74,0,0
1,note_on,69,0,0
1,note_on,79,66,480
1,note_on,78,55,120
1,note_on,79,0,12
1,note_on,76,54,108
1,note_on,78,0,12
1,note_on,78,54,108
1,note_on,76,0,12
1,note_on,81,65,108
1,note_on,78,0,12
1,note_on,79,55,108
1,note_on,81,0,12
1,note_on,78,55,108
1,note_on,79,0,12
1,note_on,79,55,108
1,note_on,78,0,12
1,note_on,81,62,108
1,note_on,79,0,12
1,note_on,81,0,468
1,note_on,81,50,480
1,note_on,81,0,60
1,note_on,83,45,180
1,note_on,83,0,60
1,note_on,85,45,180
1,note_on,85,0,60
1,note_on,86,45,180
1,note_on,86,0,60
1,note_on,81,54,180
1,note_on,81,0,480
1,note_on,78,45,0
1,note_on,78,0,480
1,note_on,81,50,0
1,note_on,81,0,120
1,note_on,79,44,0
1,note_on,79,0,120
1,note_on,78,44,0
1,note_on,78,0,120
1,note_on,79,44,0
1,note_on,79,0,120
1,note_on,81,49,0
1,note_on,81,0,60
1,note_on,79,46,180
1,note_on,79,0,60
1,note_on,77,54,180
1,note_on,77,0,240
1,note_on,78,45,0
1,note_on,78,0,240
1,note_on,79,66,480
1,note_on,78,55,120
1,note_on,79,0,12
1,note_on,76,54,108
1,note_on,78,0,12
1,note_on,78,54,108
1,note_on,76,0,12
1,note_on,81,65,108
1,note_on,78,0,12
1,note_on,79,55,108
1,note_on,81,0,12
1,note_on,78,55,108
1,note_on,79,0,12
1,note_on,79,55,108
1,note_on,78,0,12
1,note_on,81,62,108
1,note_on,79,0,12
1,note_on,81,0,468
1,note_on,81,50,480
1,note_on,81,0,60
1,note_on,83,45,180
1,note_on,83,0,60
1,note_on,85,45,180
1,note_on,85,0,60
1,note_on,86,45,180
1,note_on,86,0,60
1,note_on,81,54,180
1,note_on,81,0,480
1,note_on,78,45,0
1,note_on,78,0,480
1,note_on,81,50,0
1,note_on,81,0,120
1,note_on,79,44,0
1,note_on,79,0,120
1,note_on,78,44,0
1,note_on,78,0,120
1,note_on,79,44,0
1,note_on,79,0,120
1,note_on,81,50,0
1,note_on,81,0,120
1,note_on,79,44,0
1,note_on,79,0,120
1,note_on,78,44,0
1,note_on,78,0,120
1,note_on,76,44,0
1,note_on,76,0,120
1,note_on,74,50,0
1,note_on,74,0,120
1,note_on,69,42,360
1,note_on,69,0,120
1,note_on,78,47,360
1,note_on,79,43,80
1,note_on,78,0,8
1,note_on,78,48,72
1,note_on,79,0,8
1,note_on,79,43,72
1,note_on,78,0,8
1,note_on,78,48,71
1,note_on,79,0,9
1,note_on,79,44,71
1,note_on,78,0,8
1,note_on,78,48,72
1,note_on,79,0,8
1,note_on,79,44,72
1,note_on,78,0,8
1,note_on,78,44,72
1,note_on,79,0,8
1,note_on,76,48,73
1,note_on,78,0,7
1,note_on,74,44,113
1,note_on,76,0,12
1,note_on,73,50,108
1,note_on,74,0,12
1,note_on,73,0,108
1,note_on,69,42,360
1,note_on,69,0,120
1,note_on,76,50,360
1,note_on,76,0,120
1,note_on,76,50,840
1,note_on,76,0,120
1,note_on,69,42,360
1,note_on,69,0,120
1,note_on,79,47,360
1,note_on,81,43,80
1,note_on,79,0,8
1,note_on,79,48,72
1,note_on,81,0,8
1,note_on,81,43,72
1,note_on,79,0,8
1,note_on,79,48,71
1,note_on,81,0,9
1,note_on,81,44,71
1,note_on,79,0,8
1,note_on,79,48,72
1,note_on,81,0,8
1,note_on,81,44,72
1,note_on,79,0,8
1,note_on,79,44,72
1,note_on,81,0,8
1,note_on,78,48,73
1,note_on,79,0,7
1,note_on,76,44,113
1,note_on,78,0,12
1,note_on,74,50,108
1,note_on,76,0,12
1,note_on,74,0,108
1,note_on,69,42,360
1,note_on,69,0,120
1,note_on,78,50,360
1,note_on,78,0,120
1,note_on,78,54,840
1,note_on,78,0,120
1,note_on,74,47,0
1,note_on,76,48,120
1,note_on,74,0,12
1,note_on,78,49,108
1,note_on,76,0,12
1,note_on,79,50,108
1,note_on,78,0,12
1,note_on,81,51,108
1,note_on,79,0,12
1,note_on,83,52,108
1,note_on,81,0,12
1,note_on,85,53,108
1,note_on,83,0,12
1,note_on,86,55,108
1,note_on,85,0,12
1,note_on,85,56,108
1,note_on,86,0,12
1,note_on,83,56,108
1,note_on,85,0,12
1,note_on,81,56,108
1,note_on,83,0,12
1,note_on,79,56,108
1,note_on,81,0,12
1,note_on,78,55,108
1,note_on,79,0,12
1,note_on,76,50,108
1,note_on,78,0,12
1,note_on,74,49,108
1,note_on,76,0,12
1,note_on,76,51,108
1,note_on,74,0,12
1,note_on,78,48,108
1,note_on,76,0,12
1,note_on,76,45,108
1,note_on,78,0,12
1,note_on,75,43,108
1,note_on,76,0,12
1,note_on,76,45,108
1,note_on,75,0,12
1,note_on,78,47,108
1,note_on,76,0,12
1,note_on,79,49,108
1,note_on,78,0,12
1,note_on,81,51,108
1,note_on,79,0,12
1,note_on,83,53,108
1,note_on,81,0,12
1,note_on,81,54,108
1,note_on,83,0,12
1,note_on,79,53,108
1,note_on,81,0,12
1,note_on,78,51,108
1,note_on,79,0,12
1,note_on,76,49,108
1,note_on,78,0,12
1,note_on,74,48,108
1,note_on,76,0,12
1,note_on,73,46,108
1,note_on,74,0,12
1,note_on,71,44,108
1,note_on,73,0,12
1,note_on,73,50,108
1,note_on,71,0,12
1,note_on,74,42,108
1,note_on,73,0,12
1,note_on,73,42,108
1,note_on,74,0,12
1,note_on,69,40,108
1,note_on,73,0,12
1,note_on,74,47,108
1,note_on,69,0,12
1,note_on,74,0,108
1,note_on,79,55,360
1,note_on,81,46,120
1,note_on,79,0,12
1,note_on,79,46,108
1,note_on,81,0,12
1,note_on,76,46,108
1,note_on,79,0,12
1,note_on,79,56,108
1,note_on,76,0,12
1,note_on,78,47,108
1,note_on,79,0,12
1,note_on,76,48,108
1,note_on,78,0,12
1,note_on,74,48,108
1,note_on,76,0,12
1,note_on,73,57,108
1,note_on,74,0,12
1,note_on,74,44,108
1,note_on,73,0,12
1,note_on,73,44,108
1,note_on,74,0,12
1,note_on,69,44,108
1,note_on,73,0,12
1,note_on,74,57,108
1,note_on,69,0,12
1,note_on,74,0,108
1,note_on,79,65,360
1,note_on,81,54,120
1,note_on,79,0,12
1,note_on,79,54,108
1,note_on,81,0,12
1,note_on,76,56,108
1,note_on,79,0,12
1,note_on,79,69,108
1,note_on,76,0,12
1,note_on,78,56,108
1,note_on,79,0,12
1,note_on,76,56,108
1,note_on,78,0,12
1,note_on,74,59,108
1,note_on,76,0,12
1,note_on,73,79,108
1,note_on,74,0,12
1,note_on,73,0,108
1,note_on,76,63,0
1,note_on,76,0,120
1,note_on,73,63,0
1,note_on,73,0,120
1,note_on,69,63,0
1,note_on,69,0,120
1,note_on,78,74,0
1,note_on,78,0,120
1,note_on,81,64,0
1,note_on,81,0,120
1,note_on,78,64,0
1,note_on,78,0,120
1,note_on,74,64,0
1,note_on,74,0,120
1,note_on,73,77,0
1,note_on,73,0,120
1,note_on,76,64,0
1,note_on,76,0,120
1,note_on,73,64,0
1,note_on,73,0,120
1,note_on,69,64,0
1,note_on,69,0,120
1,note_on,78,77,0
1,note_on,78,0,120
1,note_on,81,64,0
1,note_on,81,0,120
1,note_on,78,64,0
1,note_on,78,0,120
1,note_on,74,64,0
1,note_on,74,0,120
1,note_on,73,69,0
1,note_on,76,84,0
1,note_on,76,0,90
1,note_on,73,0,0
1,note_on,81,74,150
1,note_on,73,60,0
1,note_on,76,60,0
1,note_on,76,0,90
1,note_on,73,0,0
1,note_on,81,0,0
1,note_on,76,60,150
1,note_on,73,60,0
1,note_on,81,74,0
1,note_on,81,0,90
1,note_on,73,0,0
1,note_on,76,0,0
1,note_on,76,60,150
1,note_on,73,60,0
1,note_on,81,74,0
1,note_on,81,0,90
1,note_on,73,0,0
1,note_on,76,0,0
1,note_on,73,60,150
1,note_on,81,74,0
1,note_on,76,60,0
1,note_on,76,0,420
1,note_on,81,0,0
1,note_on,73,0,0
1,note_on,74,41,0
1,note_on,74,0,60
1,note_on,73,42,0
1,note_on,73,0,120
1,note_on,71,40,0
1,note_on,71,0,120
1,note_on,73,40,0
1,note_on,73,0,120
1,note_on,74,40,0
1,note_on,74,0,120
1,note_on,75,45,0
1,note_on,75,0,240
1,note_on,76,42,0
1,note_on,76,0,240
1,note_on,76,40,240
1,note_on,76,0,240
1,note_on,81,46,0
1,note_on,81,0,240
1,note_on,80,42,0
1,note_on,80,0,240
1,note_on,78,44,0
1,note_on,78,0,240
1,note_on,76,42,0
1,note_on,76,0,240
1,note_on,73,48,0
1,note_on,73,0,240
1,note_on,74,42,0
1,note_on,74,0,240
1,note_on,74,40,240
1,note_on,74,0,240
1,note_on,76,45,0
1,note_on,76,0,240
1,note_on,74,42,0
1,note_on,74,0,240
1,note_on,73,45,0
1,note_on,73,0,240
1,note_on,71,42,0
1,note_on,71,0,240
1,note_on,68,48,0
1,note_on,68,0,240
1,note_on,69,44,0
1,note_on,69,0,240
1,note_on,71,45,240
1,note_on,71,0,240
1,note_on,72,50,0
1,note_on,72,0,240
1,note_on,73,46,0
1,note_on,73,0,240
1,note_on,76,42,180
1,note_on,76,0,60
1,note_on,74,47,0
1,note_on,74,0,240
1,note_on,73,51,0
1,note_on,73,0,720
1,note_on,74,44,0
1,note_on,74,0,120
1,note_on,73,42,0
1,note_on,73,0,120
1,note_on,71,47,0
1,note_on,71,0,240
1,note_on,73,42,0
1,note_on,73,0,120
1,note_on,74,44,120
1,note_on,74,0,120
1,note_on,75,47,120
1,note_on,75,0,120
1,note_on,75,43,120
1,note_on,75,0,240
1,note_on,76,42,0
1,note_on,76,0,240
1,note_on,78,40,240
1,note_on,78,0,60
1,note_on,76,37,0
1,note_on,76,0,60
1,note_on,75,37,0
1,note_on,75,0,60
1,note_on,76,37,0
1,note_on,76,0,60
1,note_on,81,46,0
1,note_on,81,0,120
1,note_on,80,42,120
1,note_on,80,0,120
1,note_on,78,44,120
1,note_on,78,0,120
1,note_on,76,42,120
1,note_on,76,0,120
1,note_on,73,48,120
1,note_on,73,0,240
1,note_on,74,42,0
1,note_on,74,0,240
1,note_on,76,40,240
1,note_on,76,0,60
1,note_on,74,37,0
1,note_on,74,0,60
1,note_on,73,37,0
1,note_on,73,0,60
1,note_on,74,37,0
1,note_on,74,0,60
1,note_on,76,45,0
1,note_on,76,0,120
1,note_on,74,42,120
1,note_on,74,0,120
1,note_on,73,45,120
1,note_on,73,0,120
1,note_on,71,42,120
1,note_on,71,0,120
1,note_on,73,45,120
1,note_on,73,0,360
1,note_on,76,42,0
1,note_on,76,0,120
1,note_on,66,45,0
1,note_on,66,0,360
1,note_on,71,41,0
1,note_on,71,0,120
1,note_on,69,45,0
1,note_on,69,0,480
1,note_on,68,43,0
1,note_on,68,0,60
1,note_on,69,39,0
1,note_on,69,0,60
1,note_on,68,43,0
1,note_on,68,0,60
1,note_on,69,40,0
1,note_on,69,0,60
1,note_on,68,43,0
1,note_on,68,0,80
1,note_on,66,40,0
1,note_on,66,0,80
1,note_on,68,40,0
1,note_on,68,0,80
1,note_on,69,46,0
1,note_on,69,0,120
1,note_on,76,44,0
1,note_on,76,0,120
1,note_on,75,47,0
1,note_on,75,0,120
1,note_on,76,43,0
1,note_on,76,0,120
1,note_on,78,50,0
1,note_on,78,0,120
1,note_on,76,47,0
1,note_on,76,0,120
1,note_on,75,51,0
1,note_on,75,0,120
1,note_on,76,51,0
1,note_on,76,0,120
1,note_on,74,59,0
1,note_on,74,0,120
1,note_on,76,50,0
1,note_on,76,0,120
1,note_on,74,52,0
1,note_on,74,0,120
1,note_on,76,50,0
1,note_on,76,0,120
1,note_on,74,62,0
1,note_on,74,0,120
1,note_on,76,49,0
1,note_on,76,0,120
1,note_on,74,52,0
1,note_on,74,0,120
1,note_on,76,49,0
1,note_on,76,0,120
1,note_on,73,50,0
1,note_on,73,0,120
1,note_on,76,44,0
1,note_on,76,0,120
1,note_on,75,47,0
1,note_on,75,0,120
1,note_on,76,43,0
1,note_on,76,0,120
1,note_on,78,50,0
1,note_on,78,0,120
1,note_on,76,47,0
1,note_on,76,0,120
1,note_on,75,51,0
1,note_on,75,0,120
1,note_on,76,51,0
1,note_on,76,0,120
1,note_on,74,59,0
1,note_on,74,0,120
1,note_on,76,50,0
1,note_on,76,0,120
1,note_on,74,52,0
1,note_on,74,0,120
1,note_on,76,50,0
1,note_on,76,0,120
1,note_on,74,62,0
1,note_on,74,0,120
1,note_on,76,49,0
1,note_on,76,0,120
1,note_on,74,52,0
1,note_on,74,0,120
1,note_on,76,49,0
1,note_on,76,0,120
1,note_on,69,41,0
1,note_on,69,0,480
1,note_on,81,57,240
1,note_on,81,0,120
1,note_on,83,63,120
1,note_on,83,0,120
1,note_on,81,58,120
1,note_on,81,0,120
1,note_on,80,63,120
1,note_on,80,0,120
1,note_on,76,58,120
1,note_on,76,0,120
1,note_on,81,60,120
1,note_on,81,0,480
1,note_on,45,57,240
1,note_on,45,0,120
1,note_on,47,63,120
1,note_on,47,0,120
1,note_on,45,58,120
1,note_on,45,0,120
1,note_on,44,60,120
1,note_on,44,0,120
1,note_on,40,58,120
1,note_on,40,0,120
1,note_on,45,60,120
1,note_on,45,0,480
1,note_on,76,50,0
1,note_on,76,0,480
1,note_on,74,47,0
1,note_on,74,0,480
1,note_on,73,46,0
1,note_on,73,0,480
1,note_on,78,50,0
1,note_on,78,0,360
1,note_on,80,45,0
1,note_on,80,0,40
1,note_on,78,45,0
1,note_on,78,0,40
1,note_on,76,45,1
1,note_on,78,50,39
1,note_on,76,0,1
1,note_on,78,0,119
1,note_on,80,47,120
1,note_on,80,0,120
1,note_on,83,50,120
1,note_on,83,0,240
1,note_on,81,45,0
1,note_on,81,0,240
1,note_on,80,47,0
1,note_on,80,0,240
1,note_on,78,45,0
1,note_on,78,0,240
1,note_on,76,50,0
1,note_on,76,0,240
1,note_on,76,60,240
1,note_on,76,0,480
1,note_on,74,60,0
1,note_on,74,0,480
1,note_on,73,59,0
1,note_on,73,0,480
1,note_on,71,68,0
1,note_on,71,0,360
1,note_on,78,53,0
1,note_on,78,0,120
1,note_on,76,60,0
1,note_on,76,0,120
1,note_on,74,58,0
1,note_on,74,0,120
1,note_on,73,58,0
1,note_on,73,0,120
1,note_on,71,58,0
1,note_on,71,0,120
1,note_on,69,63,0
1,note_on,69,0,480
1,note_on,71,55,0
1,note_on,71,0,60
1,note_on,73,49,0
1,note_on,73,0,60
1,note_on,71,56,0
1,note_on,71,0,60
1,note_on,73,50,0
1,note_on,73,0,60
1,note_on,71,56,0
1,note_on,71,0,80
1,note_on,69,48,0
1,note_on,69,0,80
1,note_on,71,48,0
1,note_on,71,0,80
1,note_on,69,66,0
1,note_on,69,0,240
1,note_on,76,50,240
1,note_on,76,0,480
1,note_on,74,47,0
1,note_on,74,0,480
1,note_on,73,46,0
1,note_on,73,0,480
1,note_on,78,50,0
1,note_on,78,0,360
1,note_on,80,45,0
1,note_on,80,0,40
1,note_on,78,45,0
1,note_on,78,0,40
1,note_on,76,45,1
1,note_on,78,50,39
1,note_on,76,0,1
1,note_on,78,0,119
1,note_on,80,47,120
1,note_on,80,0,120
1,note_on,83,50,120
1,note_on,83,0,240
1,note_on,81,45,0
1,note_on,81,0,240
1,note_on,80,47,0
1,note_on,80,0,240
1,note_on,78,45,0
1,note_on,78,0,240
1,note_on,76,50,0
1,note_on,76,0,240
1,note_on,76,60,240
1,note_on,76,0,480
1,note_on,74,60,0
1,note_on,74,0,480
1,note_on,73,59,0
1,note_on,73,0,480
1,note_on,71,68,0
1,note_on,71,0,360
1,note_on,78,53,0
1,note_on,78,0,120
1,note_on,76,60,0
1,note_on,76,0,120
1,note_on,74,58,0
1,note_on,74,0,120
1,note_on,73,58,0
1,note_on,73,0,120
1,note_on,71,58,0
1,note_on,71,0,120
1,note_on,69,63,0
1,note_on,69,0,480
1,note_on,71,55,0
1,note_on,71,0,60
1,note_on,73,49,0
1,note_on,73,0,60
1,note_on,71,56,0
1,note_on,71,0,60
1,note_on,73,50,0
1,note_on,73,0,60
1,note_on,71,56,0
1,note_on,71,0,80
1,note_on,69,48,0
1,note_on,69,0,80
1,note_on,71,48,0
1,note_on,71,0,80
1,note_on,69,66,0
1,note_on,69,0,120
1,note_on,64,59,0
1,note_on,64,0,120
1,note_on,69,66,0
1,note_on,69,0,120
1,note_on,73,58,0
1,note_on,73,0,120
1,note_on,76,66,0
1,note_on,76,0,120
1,note_on,73,60,0
1,note_on,73,0,120
1,note_on,74,66,0
1,note_on,74,0,120
1,note_on,71,59,0
1,note_on,71,0,120
1,note_on,69,66,0
1,note_on,69,0,120
1,note_on,64,59,0
1,note_on,64,0,120
1,note_on,69,66,0
1,note_on,69,0,120
1,note_on,73,58,0
1,note_on,73,0,120
1,note_on,76,66,0
1,note_on,76,0,120
1,note_on,73,60,0
1,note_on,73,0,120
1,note_on,74,66,0
1,note_on,74,0,120
1,note_on,71,59,0
1,note_on,71,0,120
1,note_on,69,75,0
1,note_on,69,0,240
1,note_on,80,75,240
1,note_on,71,64,0
1,note_on,74,64,0
1,note_on,74,0,240
1,note_on,71,0,0
1,note_on,80,0,0
1,note_on,81,75,240
1,note_on,73,64,0
1,note_on,69,64,0
1,note_on,69,0,240
1,note_on,73,0,0
1,note_on,81,0,0
1,note_on,66,39,720
1,note_on,74,47,0
1,note_on,74,0,240
1,note_on,66,0,0
1,note_on,64,36,0
1,note_on,73,43,0
1,note_on,73,0,120
1,note_on,64,0,0
1,note_on,73,47,120
1,note_on,64,39,0
1,note_on,64,0,240
1,note_on,73,0,0
1,note_on,62,35,0
1,note_on,71,42,0
1,note_on,71,0,120
1,note_on,62,0,0
1,note_on,71,47,120
1,note_on,62,39,0
1,note_on,62,0,240
1,note_on,71,0,0
1,note_on,61,34,0
1,note_on,69,41,0
1,note_on,69,0,120
1,note_on,61,0,0
1,note_on,61,39,120
1,note_on,69,47,0
1,note_on,69,0,240
1,note_on,61,0,0
1,note_on,68,41,0
1,note_on,59,34,0
1,note_on,59,0,120
1,note_on,68,0,0
1,note_on,62,45,120
1,note_on,59,37,0
1,note_on,68,54,0
1,note_on,68,0,960
1,note_on,59,0,0
1,note_on,62,0,0
1,note_on,61,35,0
1,note_on,69,42,0
1,note_on,69,0,480
1,note_on,61,0,0
1,note_on,66,60,480
1,note_on,69,60,0
1,note_on,74,73,0
1,note_on,74,0,480
1,note_on,69,0,0
1,note_on,66,0,0
1,note_on,79,66,480
1,note_on,78,55,120
1,note_on,79,0,12
1,note_on,76,54,108
1,note_on,78,0,12
1,note_on,78,54,108
1,note_on,76,0,12
1,note_on,81,65,108
1,note_on,78,0,12
1,note_on,79,55,108
1,note_on,81,0,12
1,note_on,78,55,108
1,note_on,79,0,12
1,note_on,79,55,108
1,note_on,78,0,12
1,note_on,81,62,108
1,note_on,79,0,12
1,note_on,81,0,468
1,note_on,81,50,480
1,note_on,81,0,60
1,note_on,83,45,180
1,note_on,83,0,60
1,note_on,85,45,180
1,note_on,85,0,60
1,note_on,86,45,180
1,note_on,86,0,60
1,note_on,81,54,180
1,note_on,81,0,480
1,note_on,78,45,0
1,note_on,78,0,480
1,note_on,81,50,0
1,note_on,81,0,120
1,note_on,79,44,0
1,note_on,79,0,120
1,note_on,78,44,0
1,note_on,78,0,120
1,note_on,79,44,0
1,note_on,79,0,120
1,note_on,81,49,0
1,note_on,81,0,60
1,note_on,79,46,180
1,note_on,79,0,60
1,note_on,77,54,180
1,note_on,77,0,240
1,note_on,78,45,0
1,note_on,78,0,240
1,note_on,79,66,480
1,note_on,78,55,120
1,note_on,79,0,12
1,note_on,76,54,108
1,note_on,78,0,12
1,note_on,78,54,108
1,note_on,76,0,12
1,note_on,81,65,108
1,note_on,78,0,12
1,note_on,79,55,108
1,note_on,81,0,12
1,note_on,78,55,108
1,note_on,79,0,12
1,note_on,79,55,108
1,note_on,78,0,12
1,note_on,81,62,108
1,note_on,79,0,12
1,note_on,81,0,468
1,note_on,81,50,480
1,note_on,81,0,60
1,note_on,83,45,180
1,note_on,83,0,60
1,note_on,85,45,180
1,note_on,85,0,60
1,note_on,86,45,180
1,note_on,86,0,60
1,note_on,81,54,180
1,note_on,81,0,480
1,note_on,78,45,0
1,note_on,78,0,480
1,note_on,81,50,0
1,note_on,81,0,120
1,note_on,79,44,0
1,note_on,79,0,120
1,note_on,78,44,0
1,note_on,78,0,120
1,note_on,79,44,0
1,note_on,79,0,120
1,note_on,81,50,0
1,note_on,81,0,120
1,note_on,79,44,0
1,note_on,79,0,120
1,note_on,78,44,0
1,note_on,78,0,120
1,note_on,76,44,0
1,note_on,76,0,120
1,note_on,74,50,0
1,note_on,74,0,120
1,note_on,69,42,360
1,note_on,69,0,120
1,note_on,78,47,360
1,note_on,79,43,80
1,note_on,78,0,8
1,note_on,78,48,72
1,note_on,79,0,8
1,note_on,79,43,72
1,note_on,78,0,8
1,note_on,78,48,71
1,note_on,79,0,9
1,note_on,79,44,71
1,note_on,78,0,8
1,note_on,78,48,72
1,note_on,79,0,8
1,note_on,79,44,72
1,note_on,78,0,8
1,note_on,78,44,72
1,note_on,79,0,8
1,note_on,76,48,73
1,note_on,78,0,7
1,note_on,74,44,113
1,note_on,76,0,12
1,note_on,73,50,108
1,note_on,74,0,12
1,note_on,73,0,108
1,note_on,69,42,360
1,note_on,69,0,120
1,note_on,76,50,360
1,note_on,76,0,120
1,note_on,76,50,840
1,note_on,76,0,120
1,note_on,69,42,360
1,note_on,69,0,120
1,note_on,79,47,360
1,note_on,81,43,80
1,note_on,79,0,8
1,note_on,79,48,72
1,note_on,81,0,8
1,note_on,81,43,72
1,note_on,79,0,8
1,note_on,79,48,71
1,note_on,81,0,9
1,note_on,81,44,71
1,note_on,79,0,8
1,note_on,79,48,72
1,note_on,81,0,8
1,note_on,81,44,72
1,note_on,79,0,8
1,note_on,79,44,72
1,note_on,81,0,8
1,note_on,78,48,73
1,note_on,79,0,7
1,note_on,76,44,113
1,note_on,78,0,12
1,note_on,74,50,108
1,note_on,76,0,12
1,note_on,74,0,108
1,note_on,69,42,360
1,note_on,69,0,120
1,note_on,78,50,360
1,note_on,78,0,120
1,note_on,78,54,840
1,note_on,78,0,120
1,note_on,74,47,0
1,note_on,76,48,120
1,note_on,74,0,12
1,note_on,78,49,108
1,note_on,76,0,12
1,note_on,79,50,108
1,note_on,78,0,12
1,note_on,81,51,108
1,note_on,79,0,12
1,note_on,83,52,108
1,note_on,81,0,12
1,note_on,85,53,108
1,note_on,83,0,12
1,note_on,86,55,108
1,note_on,85,0,12
1,note_on,85,56,108
1,note_on,86,0,12
1,note_on,83,56,108
1,note_on,85,0,12
1,note_on,81,56,108
1,note_on,83,0,12
1,note_on,79,56,108
1,note_on,81,0,12
1,note_on,78,55,108
1,note_on,79,0,12
1,note_on,76,50,108
1,note_on,78,0,12
1,note_on,74,49,108
1,note_on,76,0,12
1,note_on,76,51,108
1,note_on,74,0,12
1,note_on,78,48,108
1,note_on,76,0,12
1,note_on,76,45,108
1,note_on,78,0,12
1,note_on,75,43,108
1,note_on,76,0,12
1,note_on,76,45,108
1,note_on,75,0,12
1,note_on,78,47,108
1,note_on,76,0,12
1,note_on,79,49,108
1,note_on,78,0,12
1,note_on,81,51,108
1,note_on,79,0,12
1,note_on,83,53,108
1,note_on,81,0,12
1,note_on,81,54,108
1,note_on,83,0,12
1,note_on,79,53,108
1,note_on,81,0,12
1,note_on,78,51,108
1,note_on,79,0,12
1,note_on,76,49,108
1,note_on,78,0,12
1,note_on,74,48,108
1,note_on,76,0,12
1,note_on,73,46,108
1,note_on,74,0,12
1,note_on,71,44,108
1,note_on,73,0,12
1,note_on,73,50,108
1,note_on,71,0,12
1,note_on,74,42,108
1,note_on,73,0,12
1,note_on,73,42,108
1,note_on,74,0,12
1,note_on,69,40,108
1,note_on,73,0,12
1,note_on,74,47,108
1,note_on,69,0,12
1,note_on,74,0,108
1,note_on,79,55,360
1,note_on,81,46,120
1,note_on,79,0,12
1,note_on,79,46,108
1,note_on,81,0,12
1,note_on,76,46,108
1,note_on,79,0,12
1,note_on,79,56,108
1,note_on,76,0,12
1,note_on,78,47,108
1,note_on,79,0,12
1,note_on,76,48,108
1,note_on,78,0,12
1,note_on,74,48,108
1,note_on,76,0,12
1,note_on,73,57,108
1,note_on,74,0,12
1,note_on,74,47,108
1,note_on,73,0,12
1,note_on,73,47,108
1,note_on,74,0,12
1,note_on,69,47,108
1,note_on,73,0,12
1,note_on,74,57,108
1,note_on,69,0,12
1,note_on,74,0,108
1,note_on,79,65,360
1,note_on,81,54,120
1,note_on,79,0,12
1,note_on,79,54,108
1,note_on,81,0,12
1,note_on,76,56,108
1,note_on,79,0,12
1,note_on,79,70,108
1,note_on,76,0,12
1,note_on,78,56,108
1,note_on,79,0,12
1,note_on,76,56,108
1,note_on,78,0,12
1,note_on,74,59,108
1,note_on,76,0,12
1,note_on,73,79,108
1,note_on,74,0,12
1,note_on,73,0,108
1,note_on,76,63,0
1,note_on,76,0,120
1,note_on,73,63,0
1,note_on,73,0,120
1,note_on,69,63,0
1,note_on,69,0,120
1,note_on,78,74,0
1,note_on,78,0,120
1,note_on,81,64,0
1,note_on,81,0,120
1,note_on,78,64,0
1,note_on,78,0,120
1,note_on,74,64,0
1,note_on,74,0,120
1,note_on,73,77,0
1,note_on,73,0,120
1,note_on,76,62,0
1,note_on,76,0,120
1,note_on,73,62,0
1,note_on,73,0,120
1,note_on,69,62,0
1,note_on,69,0,120
1,note_on,78,77,0
1,note_on,78,0,120
1,note_on,81,64,0
1,note_on,81,0,120
1,note_on,78,64,0
1,note_on,78,0,120
1,note_on,74,64,0
1,note_on,74,0,120
1,note_on,73,69,0
1,note_on,76,84,0
1,note_on,76,0,90
1,note_on,73,0,0
1,note_on,73,60,150
1,note_on,81,74,0
1,note_on,76,60,0
1,note_on,76,0,90
1,note_on,81,0,0
1,note_on,73,0,0
1,note_on,81,74,150
1,note_on,73,60,0
1,note_on,76,60,0
1,note_on,76,0,90
1,note_on,73,0,0
1,note_on,81,0,0
1,note_on,76,60,150
1,note_on,73,60,0
1,note_on,81,74,0
1,note_on,81,0,90
1,note_on,73,0,0
1,note_on,76,0,0
1,note_on,81,74,150
1,note_on,73,60,0
1,note_on,76,60,0
1,note_on,76,0,420
1,note_on,73,0,0
1,note_on,81,0,0
1,note_on,74,41,0
1,note_on,74,0,60
1,note_on,73,42,0
1,note_on,73,0,120
1,note_on,71,40,0
1,note_on,71,0,120
1,note_on,73,40,0
1,note_on,73,0,120
1,note_on,74,40,0
1,note_on,74,0,120
1,note_on,75,45,0
1,note_on,75,0,240
1,note_on,76,42,0
1,note_on,76,0,240
1,note_on,76,40,240
1,note_on,76,0,240
1,note_on,81,46,0
1,note_on,81,0,240
1,note_on,80,42,0
1,note_on,80,0,240
1,note_on,78,44,0
1,note_on,78,0,240
1,note_on,76,42,0
1,note_on,76,0,240
1,note_on,73,48,0
1,note_on,73,0,240
1,note_on,74,42,0
1,note_on,74,0,240
1,note_on,74,40,240
1,note_on,74,0,240
1,note_on,76,45,0
1,note_on,76,0,240
1,note_on,74,42,0
1,note_on,74,0,240
1,note_on,73,45,0
1,note_on,73,0,240
1,note_on,71,42,0
1,note_on,71,0,240
1,note_on,68,48,0
1,note_on,68,0,240
1,note_on,69,44,0
1,note_on,69,0,240
1,note_on,71,45,240
1,note_on,71,0,240
1,note_on,72,50,0
1,note_on,72,0,240
1,note_on,73,46,0
1,note_on,73,0,240
1,note_on,76,42,180
1,note_on,76,0,60
1,note_on,74,47,0
1,note_on,74,0,240
1,note_on,73,51,0
1,note_on,73,0,720
1,note_on,74,44,0
1,note_on,74,0,120
1,note_on,73,42,0
1,note_on,73,0,120
1,note_on,71,47,0
1,note_on,71,0,240
1,note_on,73,42,0
1,note_on,73,0,120
1,note_on,74,44,120
1,note_on,74,0,120
1,note_on,75,47,120
1,note_on,75,0,120
1,note_on,75,45,120
1,note_on,75,0,240
1,note_on,76,42,0
1,note_on,76,0,240
1,note_on,78,40,240
1,note_on,78,0,60
1,note_on,76,37,0
1,note_on,76,0,60
1,note_on,75,37,0
1,note_on,75,0,60
1,note_on,76,37,0
1,note_on,76,0,60
1,note_on,81,46,0
1,note_on,81,0,120
1,note_on,80,42,120
1,note_on,80,0,120
1,note_on,78,44,120
1,note_on,78,0,120
1,note_on,76,42,120
1,note_on,76,0,120
1,note_on,73,48,120
1,note_on,73,0,240
1,note_on,74,42,0
1,note_on,74,0,240
1,note_on,76,40,240
1,note_on,76,0,60
1,note_on,74,37,0
1,note_on,74,0,60
1,note_on,73,37,0
1,note_on,73,0,60
1,note_on,74,37,0
1,note_on,74,0,60
1,note_on,76,45,0
1,note_on,76,0,120
1,note_on,74,42,120
1,note_on,74,0,120
1,note_on,73,45,120
1,note_on,73,0,120
1,note_on,71,42,120
1,note_on,71,0,120
1,note_on,73,45,120
1,note_on,73,0,360
1,note_on,76,42,0
1,note_on,76,0,120
1,note_on,66,45,0
1,note_on,66,0,360
1,note_on,71,41,0
1,note_on,71,0,120
1,note_on,69,45,0
1,note_on,69,0,480
1,note_on,68,43,0
1,note_on,68,0,60
1,note_on,69,39,0
1,note_on,69,0,60
1,note_on,68,43,0
1,note_on,68,0,60
1,note_on,69,40,0
1,note_on,69,0,60
1,note_on,68,43,0
1,note_on,68,0,80
1,note_on,66,40,0
1,note_on,66,0,80
1,note_on,68,40,0
1,note_on,68,0,80
1,note_on,69,46,0
1,note_on,69,0,120
1,note_on,76,44,0
1,note_on,76,0,120
1,note_on,75,47,0
1,note_on,75,0,120
1,note_on,76,43,0
1,note_on,76,0,120
1,note_on,78,50,0
1,note_on,78,0,120
1,note_on,76,47,0
1,note_on,76,0,120
1,note_on,75,51,0
1,note_on,75,0,120
1,note_on,76,51,0
1,note_on,76,0,120
1,note_on,74,59,0
1,note_on,74,0,120
1,note_on,76,50,0
1,note_on,76,0,120
1,note_on,74,52,0
1,note_on,74,0,120
1,note_on,76,50,0
1,note_on,76,0,120
1,note_on,74,62,0
1,note_on,74,0,120
1,note_on,76,49,0
1,note_on,76,0,120
1,note_on,74,52,0
1,note_on,74,0,120
1,note_on,76,49,0
1,note_on,76,0,120
1,note_on,73,50,0
1,note_on,73,0,120
1,note_on,76,44,0
1,note_on,76,0,120
1,note_on,75,47,0
1,note_on,75,0,120
1,note_on,76,43,0
1,note_on,76,0,120
1,note_on,78,50,0
1,note_on,78,0,120
1,note_on,76,47,0
1,note_on,76,0,120
1,note_on,75,51,0
1,note_on,75,0,120
1,note_on,76,51,0
1,note_on,76,0,120
1,note_on,74,59,0
1,note_on,74,0,120
1,note_on,76,50,0
1,note_on,76,0,120
1,note_on,74,52,0
1,note_on,74,0,120
1,note_on,76,50,0
1,note_on,76,0,120
1,note_on,74,62,0
1,note_on,74,0,120
1,note_on,76,49,0
1,note_on,76,0,120
1,note_on,74,52,0
1,note_on,74,0,120
1,note_on,76,49,0
1,note_on,76,0,120
1,note_on,69,41,0
1,note_on,69,0,480
1,note_on,81,57,240
1,note_on,81,0,120
1,note_on,83,63,120
1,note_on,83,0,120
1,note_on,81,58,120
1,note_on,81,0,120
1,note_on,80,63,120
1,note_on,80,0,120
1,note_on,76,58,120
1,note_on,76,0,120
1,note_on,81,60,120
1,note_on,81,0,480
1,note_on,45,57,240
1,note_on,45,0,120
1,note_on,47,63,120
1,note_on,47,0,120
1,note_on,45,58,120
1,note_on,45,0,120
1,note_on,44,60,120
1,note_on,44,0,120
1,note_on,40,58,120
1,note_on,40,0,120
1,note_on,45,60,120
1,note_on,45,0,480
1,note_on,76,50,0
1,note_on,76,0,480
1,note_on,74,47,0
1,note_on,74,0,480
1,note_on,73,46,0
1,note_on,73,0,480
1,note_on,78,50,0
1,note_on,78,0,360
1,note_on,80,45,0
1,note_on,80,0,40
1,note_on,78,45,0
1,note_on,78,0,40
1,note_on,76,45,1
1,note_on,78,50,39
1,note_on,76,0,1
1,note_on,78,0,119
1,note_on,80,47,120
1,note_on,80,0,120
1,note_on,83,50,120
1,note_on,83,0,240
1,note_on,81,45,0
1,note_on,81,0,240
1,note_on,80,47,0
1,note_on,80,0,240
1,note_on,78,45,0
1,note_on,78,0,240
1,note_on,76,50,0
1,note_on,76,0,240
1,note_on,76,60,240
1,note_on,76,0,480
1,note_on,74,60,0
1,note_on,74,0,480
1,note_on,73,59,0
1,note_on,73,0,480
1,note_on,71,68,0
1,note_on,71,0,360
1,note_on,78,53,0
1,note_on,78,0,120
1,note_on,76,60,0
1,note_on,76,0,120
1,note_on,74,58,0
1,note_on,74,0,120
1,note_on,73,58,0
1,note_on,73,0,120
1,note_on,71,58,0
1,note_on,71,0,120
1,note_on,69,63,0
1,note_on,69,0,480
1,note_on,71,55,0
1,note_on,71,0,60
1,note_on,73,49,0
1,note_on,73,0,60
1,note_on,71,56,0
1,note_on,71,0,60
1,note_on,73,50,0
1,note_on,73,0,60
1,note_on,71,56,0
1,note_on,71,0,80
1,note_on,69,48,0
1,note_on,69,0,80
1,note_on,71,48,0
1,note_on,71,0,80
1,note_on,69,66,0
1,note_on,69,0,240
1,note_on,76,50,240
1,note_on,76,0,480
1,note_on,74,47,0
1,note_on,74,0,480
1,note_on,73,46,0
1,note_on,73,0,480
1,note_on,78,50,0
1,note_on,78,0,360
1,note_on,80,45,0
1,note_on,80,0,40
1,note_on,78,45,0
1,note_on,78,0,40
1,note_on,76,45,1
1,note_on,78,50,39
1,note_on,76,0,1
1,note_on,78,0,119
1,note_on,80,47,120
1,note_on,80,0,120
1,note_on,83,50,120
1,note_on,83,0,240
1,note_on,81,45,0
1,note_on,81,0,240
1,note_on,80,47,0
1,note_on,80,0,240
1,note_on,78,45,0
1,note_on,78,0,240
1,note_on,76,50,0
1,note_on,76,0,240
1,note_on,76,60,240
1,note_on,76,0,480
1,note_on,74,60,0
1,note_on,74,0,480
1,note_on,73,59,0
1,note_on,73,0,480
1,note_on,71,68,0
1,note_on,71,0,360
1,note_on,78,53,0
1,note_on,78,0,120
1,note_on,76,60,0
1,note_on,76,0,120
1,note_on,74,58,0
1,note_on,74,0,120
1,note_on,73,58,0
1,note_on,73,0,120
1,note_on,71,58,0
1,note_on,71,0,120
1,note_on,69,63,0
1,note_on,69,0,480
1,note_on,71,55,0
1,note_on,71,0,60
1,note_on,73,49,0
1,note_on,73,0,60
1,note_on,71,56,0
1,note_on,71,0,60
1,note_on,73,50,0
1,note_on,73,0,60
1,note_on,71,56,0
1,note_on,71,0,80
1,note_on,69,48,0
1,note_on,69,0,80
1,note_on,71,48,0
1,note_on,71,0,80
1,note_on,69,66,0
1,note_on,69,0,120
1,note_on,64,59,0
1,note_on,64,0,120
1,note_on,69,66,0
1,note_on,69,0,120
1,note_on,73,58,0
1,note_on,73,0,120
1,note_on,76,66,0
1,note_on,76,0,120
1,note_on,73,60,0
1,note_on,73,0,120
1,note_on,74,66,0
1,note_on,74,0,120
1,note_on,71,59,0
1,note_on,71,0,120
1,note_on,69,66,0
1,note_on,69,0,120
1,note_on,64,59,0
1,note_on,64,0,120
1,note_on,69,66,0
1,note_on,69,0,120
1,note_on,73,58,0
1,note_on,73,0,120
1,note_on,76,66,0
1,note_on,76,0,120
1,note_on,73,60,0
1,note_on,73,0,120
1,note_on,74,66,0
1,note_on,74,0,120
1,note_on,71,59,0
1,note_on,71,0,120
1,note_on,69,75,0
1,note_on,69,0,240
1,note_on,71,64,240
1,note_on,80,75,0
1,note_on,74,64,0
1,note_on,74,0,240
1,note_on,80,0,0
1,note_on,71,0,0
1,note_on,73,64,240
1,note_on,69,64,0
1,note_on,81,75,0
1,note_on,81,0,240
1,note_on,69,0,0
1,note_on,73,0,0
1,note_on,66,39,720
1,note_on,74,47,0
1,note_on,74,0,240
1,note_on,66,0,0
1,note_on,73,43,0
1,note_on,64,36,0
1,note_on,64,0,120
1,note_on,73,0,0
1,note_on,73,47,120
1,note_on,64,39,0
1,note_on,64,0,240
1,note_on,73,0,0
1,note_on,71,42,0
1,note_on,62,35,0
1,note_on,62,0,120
1,note_on,71,0,0
1,note_on,62,39,120
1,note_on,71,47,0
1,note_on,71,0,240
1,note_on,62,0,0
1,note_on,61,34,0
1,note_on,69,41,0
1,note_on,69,0,120
1,note_on,61,0,0
1,note_on,61,39,120
1,note_on,69,47,0
1,note_on,69,0,240
1,note_on,61,0,0
1,note_on,59,34,0
1,note_on,68,41,0
1,note_on,68,0,120
1,note_on,59,0,0
1,note_on,59,37,120
1,note_on,68,54,0
1,note_on,62,45,0
1,note_on,62,0,960
1,note_on,68,0,0
1,note_on,59,0,0
1,note_on,61,35,0
1,note_on,69,42,0
1,note_on,69,0,480
1,note_on,61,0,0
1,note_on,81,47,480
1,note_on,81,0,240
1,note_on,79,43,0
1,note_on,79,0,120
1,note_on,79,47,120
1,note_on,79,0,240
1,note_on,78,42,0
1,note_on,78,0,120
1,note_on,78,51,120
1,note_on,78,0,240
1,note_on,76,45,0
1,note_on,76,0,120
1,note_on,76,55,120
1,note_on,76,0,240
1,note_on,75,50,0
1,note_on,75,0,120
1,note_on,72,62,120
1,note_on,75,62,0
1,note_on,72,0,240
1,note_on,71,55,0
1,note_on,71,0,120
1,note_on,71,61,120
1,note_on,71,0,240
1,note_on,69,53,0
1,note_on,69,0,120
1,note_on,69,58,120
1,note_on,69,0,240
1,note_on,67,49,0
1,note_on,67,0,120
1,note_on,67,58,120
1,note_on,67,0,240
1,note_on,66,44,0
1,note_on,66,0,120
1,note_on,75,0,120
1,note_on,75,47,0
1,note_on,75,0,240
1,note_on,76,43,0
1,note_on,76,0,120
1,note_on,79,43,360
1,note_on,79,0,240
1,note_on,77,47,0
1,note_on,77,0,240
1,note_on,78,43,0
1,note_on,78,0,120
1,note_on,81,43,360
1,note_on,81,0,240
1,note_on,78,57,0
1,note_on,75,57,0
1,note_on,75,0,960
1,note_on,78,0,0
1,note_on,76,51,0
1,note_on,79,51,0
1,note_on,79,0,480
1,note_on,76,0,0
1,note_on,79,47,480
1,note_on,79,0,240
1,note_on,78,43,0
1,note_on,78,0,120
1,note_on,78,47,120
1,note_on,78,0,240
1,note_on,76,42,0
1,note_on,76,0,120
1,note_on,76,51,120
1,note_on,76,0,240
1,note_on,74,45,0
1,note_on,74,0,120
1,note_on,74,55,120
1,note_on,74,0,240
1,note_on,73,50,0
1,note_on,73,0,120
1,note_on,73,62,120
1,note_on,70,68,0
1,note_on,70,0,240
1,note_on,69,60,0
1,note_on,69,0,120
1,note_on,69,67,120
1,note_on,69,0,240
1,note_on,67,58,0
1,note_on,67,0,120
1,note_on,67,63,120
1,note_on,67,0,240
1,note_on,66,53,0
1,note_on,66,0,120
1,note_on,66,63,120
1,note_on,66,0,240
1,note_on,64,48,0
1,note_on,64,0,120
1,note_on,73,0,120
1,note_on,73,47,0
1,note_on,73,0,240
1,note_on,74,43,0
1,note_on,74,0,120
1,note_on,78,43,360
1,note_on,78,0,240
1,note_on,75,47,0
1,note_on,75,0,240
1,note_on,76,43,0
1,note_on,76,0,120
1,note_on,79,43,360
1,note_on,79,0,240
1,note_on,76,57,0
1,note_on,73,57,0
1,note_on,73,0,960
1,note_on,76,0,0
1,note_on,74,51,0
1,note_on,78,51,0
1,note_on,78,0,480
1,note_on,74,0,0
1,note_on,78,47,480
1,note_on,78,0,120
1,note_on,86,44,0
1,note_on,86,0,120
1,note_on,78,48,0
1,note_on,78,0,120
1,note_on,86,44,0
1,note_on,86,0,120
1,note_on,78,51,0
1,note_on,78,0,120
1,note_on,86,47,0
1,note_on,86,0,120
1,note_on,78,52,0
1,note_on,78,0,120
1,note_on,86,47,0
1,note_on,86,0,120
1,note_on,78,55,0
1,note_on,78,0,120
1,note_on,86,50,0
1,note_on,86,0,120
1,note_on,78,57,0
1,note_on,78,0,120
1,note_on,86,51,0
1,note_on,86,0,120
1,note_on,78,58,0
1,note_on,78,0,120
1,note_on,86,55,0
1,note_on,86,0,120
1,note_on,78,60,0
1,note_on,78,0,120
1,note_on,86,55,0
1,note_on,86,0,120
1,note_on,76,64,0
1,note_on,76,0,120
1,note_on,86,57,0
1,note_on,86,0,120
1,note_on,76,63,0
1,note_on,76,0,120
1,note_on,86,57,0
1,note_on,86,0,120
1,note_on,76,63,0
1,note_on,76,0,120
1,note_on,86,57,0
1,note_on,86,0,120
1,note_on,76,63,0
1,note_on,76,0,120
1,note_on,86,57,0
1,note_on,86,0,120
1,note_on,76,63,0
1,note_on,76,0,120
1,note_on,85,57,0
1,note_on,85,0,120
1,note_on,76,62,0
1,note_on,76,0,120
1,note_on,85,57,0
1,note_on,85,0,120
1,note_on,76,60,0
1,note_on,76,0,120
1,note_on,85,55,0
1,note_on,85,0,120
1,note_on,76,59,0
1,note_on,76,0,120
1,note_on,85,52,0
1,note_on,85,0,120
1,note_on,74,47,0
1,note_on,74,0,120
1,note_on,85,44,0
1,note_on,85,0,120
1,note_on,74,48,0
1,note_on,74,0,120
1,note_on,85,44,0
1,note_on,85,0,120
1,note_on,74,51,0
1,note_on,74,0,120
1,note_on,85,47,0
1,note_on,85,0,120
1,note_on,74,52,0
1,note_on,74,0,120
1,note_on,85,47,0
1,note_on,85,0,120
1,note_on,74,55,0
1,note_on,74,0,120
1,note_on,83,50,0
1,note_on,83,0,120
1,note_on,74,57,0
1,note_on,74,0,120
1,note_on,83,51,0
1,note_on,83,0,120
1,note_on,74,58,0
1,note_on,74,0,120
1,note_on,83,55,0
1,note_on,83,0,120
1,note_on,74,60,0
1,note_on,74,0,120
1,note_on,83,55,0
1,note_on,83,0,120
1,note_on,73,64,0
1,note_on,73,0,120
1,note_on,83,57,0
1,note_on,83,0,120
1,note_on,73,63,0
1,note_on,73,0,120
1,note_on,83,57,0
1,note_on,83,0,120
1,note_on,73,63,0
1,note_on,73,0,120
1,note_on,83,57,0
1,note_on,83,0,120
1,note_on,73,63,0
1,note_on,73,0,120
1,note_on,83,57,0
1,note_on,83,0,120
1,note_on,72,63,0
1,note_on,72,0,120
1,note_on,81,57,0
1,note_on,81,0,120
1,note_on,72,62,0
1,note_on,72,0,120
1,note_on,81,57,0
1,note_on,81,0,120
1,note_on,72,60,0
1,note_on,72,0,120
1,note_on,81,55,0
1,note_on,81,0,120
1,note_on,72,59,0
1,note_on,72,0,120
1,note_on,81,52,0
1,note_on,81,0,120
1,note_on,81,51,0
1,note_on,71,41,0
1,note_on,81,0,240
1,note_on,79,47,0
1,note_on,79,0,180
1,note_on,71,0,60
1,note_on,79,51,0
1,note_on,79,0,240
1,note_on,78,46,0
1,note_on,78,0,180
1,note_on,86,51,60
1,note_on,77,40,0
1,note_on,86,0,240
1,note_on,85,47,0
1,note_on,85,0,180
1,note_on,77,0,60
1,note_on,85,51,0
1,note_on,85,0,240
1,note_on,83,46,0
1,note_on,83,0,180
1,note_on,79,59,60
1,note_on,82,59,0
1,note_on,79,0,240
1,note_on,78,52,0
1,note_on,78,0,180
1,note_on,78,59,60
1,note_on,78,0,240
1,note_on,76,51,0
1,note_on,76,0,180
1,note_on,82,0,60
1,note_on,74,61,0
1,note_on,83,61,0
1,note_on,74,0,240
1,note_on,73,51,0
1,note_on,73,0,180
1,note_on,73,61,60
1,note_on,73,0,240
1,note_on,71,55,0
1,note_on,71,0,180
1,note_on,83,0,60
1,note_on,67,39,0
1,note_on,76,47,0
1,note_on,76,0,240
1,note_on,67,0,0
1,note_on,74,43,0
1,note_on,66,36,0
1,note_on,66,0,120
1,note_on,74,0,0
1,note_on,66,39,120
1,note_on,74,47,0
1,note_on,74,0,240
1,note_on,66,0,0
1,note_on,73,42,0
1,note_on,64,35,0
1,note_on,64,0,120
1,note_on,73,0,0
1,note_on,73,47,120
1,note_on,64,39,0
1,note_on,64,0,240
1,note_on,73,0,0
1,note_on,71,41,0
1,note_on,62,34,0
1,note_on,62,0,120
1,note_on,71,0,0
1,note_on,71,47,120
1,note_on,62,39,0
1,note_on,62,0,240
1,note_on,71,0,0
1,note_on,61,34,0
1,note_on,70,41,0
1,note_on,70,0,120
1,note_on,61,0,0
1,note_on,64,45,120
1,note_on,70,54,0
1,note_on,61,37,0
1,note_on,61,0,960
1,note_on,70,0,0
1,note_on,64,0,0
1,note_on,62,35,0
1,note_on,71,42,0
1,note_on,71,0,480
1,note_on,62,0,0
1,note_on,71,68,480
1,note_on,66,57,0
1,note_on,62,57,0
1,note_on,62,0,960
1,note_on,66,0,0
1,note_on,71,0,0
1,note_on,62,51,0
1,note_on,66,51,0
1,note_on,72,61,0
1,note_on,72,0,480
1,note_on,66,0,0
1,note_on,62,0,0
1,note_on,71,39,480
1,note_on,74,46,0
1,note_on,74,0,720
1,note_on,75,40,0
1,note_on,75,0,240
1,note_on,71,0,0
1,note_on,72,39,0
1,note_on,76,46,0
1,note_on,76,0,480
1,note_on,72,0,0
1,note_on,74,60,960
1,note_on,74,0,480
1,note_on,72,56,0
1,note_on,72,0,480
1,note_on,71,55,0
1,note_on,71,0,480
1,note_on,76,60,0
1,note_on,76,0,360
1,note_on,78,54,0
1,note_on,78,0,40
1,note_on,76,54,0
1,note_on,76,0,40
1,note_on,74,54,1
1,note_on,76,60,39
1,note_on,74,0,1
1,note_on,76,0,119
1,note_on,78,56,120
1,note_on,78,0,120
1,note_on,81,60,120
1,note_on,81,0,240
1,note_on,79,54,0
1,note_on,79,0,120
1,note_on,78,56,120
1,note_on,78,0,240
1,note_on,76,54,0
1,note_on,76,0,120
1,note_on,74,60,120
1,note_on,74,0,240
1,note_on,74,49,240
1,note_on,74,0,480
1,note_on,72,49,0
1,note_on,72,0,480
1,note_on,71,48,0
1,note_on,71,0,480
1,note_on,69,56,0
1,note_on,69,0,360
1,note_on,76,43,0
1,note_on,76,0,120
1,note_on,74,49,0
1,note_on,74,0,120
1,note_on,72,48,0
1,note_on,72,0,120
1,note_on,71,48,0
1,note_on,71,0,120
1,note_on,69,48,0
1,note_on,69,0,120
1,note_on,67,52,0
1,note_on,67,0,480
1,note_on,69,45,0
1,note_on,69,0,60
1,note_on,71,40,0
1,note_on,71,0,60
1,note_on,69,46,0
1,note_on,69,0,60
1,note_on,71,41,0
1,note_on,71,0,60
1,note_on,69,46,0
1,note_on,69,0,80
1,note_on,67,39,0
1,note_on,67,0,80
1,note_on,69,39,0
1,note_on,69,0,80
1,note_on,67,54,0
1,note_on,67,0,240
1,note_on,74,60,240
1,note_on,74,0,480
1,note_on,72,56,0
1,note_on,72,0,480
1,note_on,71,55,0
1,note_on,71,0,480
1,note_on,76,60,0
1,note_on,76,0,360
1,note_on,78,54,0
1,note_on,78,0,40
1,note_on,76,54,0
1,note_on,76,0,40
1,note_on,74,54,1
1,note_on,76,60,39
1,note_on,74,0,1
1,note_on,76,0,119
1,note_on,78,56,120
1,note_on,78,0,120
1,note_on,81,60,120
1,note_on,81,0,240
1,note_on,79,54,0
1,note_on,79,0,120
1,note_on,78,56,120
1,note_on,78,0,240
1,note_on,76,54,0
1,note_on,76,0,120
1,note_on,74,60,120
1,note_on,74,0,240
1,note_on,74,49,240
1,note_on,74,0,480
1,note_on,72,49,0
1,note_on,72,0,480
1,note_on,71,48,0
1,note_on,71,0,480
1,note_on,69,56,0
1,note_on,69,0,360
1,note_on,76,43,0
1,note_on,76,0,120
1,note_on,74,49,0
1,note_on,74,0,120
1,note_on,72,48,0
1,note_on,72,0,120
1,note_on,71,48,0
1,note_on,71,0,120
1,note_on,69,48,0
1,note_on,69,0,120
1,note_on,67,52,0
1,note_on,67,0,480
1,note_on,69,45,0
1,note_on,69,0,60
1,note_on,71,40,0
1,note_on,71,0,60
1,note_on,69,46,0
1,note_on,69,0,60
1,note_on,71,41,0
1,note_on,71,0,60
1,note_on,69,46,0
1,note_on,69,0,80
1,note_on,67,39,0
1,note_on,67,0,80
1,note_on,69,39,0
1,note_on,69,0,80
1,note_on,67,59,0
1,note_on,67,0,120
1,note_on,69,53,0
1,note_on,69,0,120
1,note_on,67,59,0
1,note_on,67,0,120
1,note_on,66,52,0
1,note_on,66,0,120
1,note_on,67,59,0
1,note_on,67,0,120
1,note_on,71,54,0
1,note_on,71,0,120
1,note_on,69,59,0
1,note_on,69,0,120
1,note_on,72,53,0
1,note_on,72,0,120
1,note_on,71,59,0
1,note_on,71,0,120
1,note_on,69,53,0
1,note_on,69,0,120
1,note_on,67,59,0
1,note_on,67,0,120
1,note_on,66,52,0
1,note_on,66,0,120
1,note_on,67,59,0
1,note_on,67,0,120
1,note_on,71,54,0
1,note_on,71,0,120
1,note_on,69,59,0
1,note_on,69,0,120
1,note_on,72,53,0
1,note_on,72,0,120
1,note_on,71,59,0
1,note_on,71,0,120
1,note_on,69,53,0
1,note_on,69,0,120
1,note_on,67,59,0
1,note_on,67,0,120
1,note_on,66,52,0
1,note_on,66,0,120
1,note_on,67,59,0
1,note_on,67,0,120
1,note_on,71,54,0
1,note_on,71,0,120
1,note_on,69,59,0
1,note_on,69,0,120
1,note_on,72,53,0
1,note_on,72,0,120
1,note_on,71,59,0
1,note_on,71,0,120
1,note_on,74,53,0
1,note_on,74,0,120
1,note_on,72,59,0
1,note_on,72,0,120
1,note_on,69,52,0
1,note_on,69,0,120
1,note_on,71,59,0
1,note_on,71,0,120
1,note_on,74,54,0
1,note_on,74,0,120
1,note_on,73,59,0
1,note_on,73,0,120
1,note_on,76,53,0
1,note_on,76,0,120
1,note_on,74,59,0
1,note_on,74,0,120
1,note_on,76,53,0
1,note_on,76,0,120
1,note_on,74,59,0
1,note_on,74,0,120
1,note_on,73,52,0
1,note_on,73,0,120
1,note_on,74,59,0
1,note_on,74,0,120
1,note_on,78,54,0
1,note_on,78,0,120
1,note_on,76,59,0
1,note_on,76,0,120
1,note_on,79,53,0
1,note_on,79,0,120
1,note_on,78,59,0
1,note_on,78,0,120
1,note_on,76,53,0
1,note_on,76,0,120
1,note_on,74,59,0
1,note_on,74,0,120
1,note_on,73,52,0
1,note_on,73,0,120
1,note_on,74,59,0
1,note_on,74,0,120
1,note_on,78,54,0
1,note_on,78,0,120
1,note_on,76,59,0
1,note_on,76,0,120
1,note_on,79,53,0
1,note_on,79,0,120
1,note_on,78,59,0
1,note_on,78,0,120
1,note_on,76,53,0
1,note_on,76,0,120
1,note_on,74,59,0
1,note_on,74,0,120
1,note_on,73,52,0
1,note_on,73,0,120
1,note_on,74,59,0
1,note_on,74,0,120
1,note_on,76,54,0
1,note_on,76,0,120
1,note_on,78,64,0
1,note_on,78,0,120
1,note_on,81,58,0
1,note_on,81,0,120
1,note_on,79,64,0
1,note_on,79,0,120
1,note_on,78,58,0
1,note_on,78,0,120
1,note_on,76,64,0
1,note_on,76,0,120
1,note_on,75,57,0
1,note_on,75,0,120
1,note_on,76,64,0
1,note_on,76,0,120
1,note_on,78,59,0
1,note_on,78,0,120
1,note_on,79,64,0
1,note_on,79,0,120
1,note_on,81,58,0
1,note_on,81,0,120
1,note_on,79,69,0
1,note_on,79,0,120
1,note_on,78,67,0
1,note_on,78,0,120
1,note_on,76,65,0
1,note_on,76,0,120
1,note_on,75,62,0
1,note_on,75,0,120
1,note_on,76,64,0
1,note_on,76,0,120
1,note_on,78,65,0
1,note_on,78,0,120
1,note_on,79,67,0
1,note_on,79,0,120
1,note_on,83,60,0
1,note_on,83,0,120
1,note_on,81,67,0
1,note_on,81,0,120
1,note_on,79,60,0
1,note_on,79,0,120
1,note_on,78,67,0
1,note_on,78,0,120
1,note_on,76,59,0
1,note_on,76,0,120
1,note_on,78,67,0
1,note_on,78,0,120
1,note_on,79,61,0
1,note_on,79,0,120
1,note_on,81,67,0
1,note_on,81,0,120
1,note_on,83,60,0
1,note_on,83,0,120
1,note_on,81,67,0
1,note_on,81,0,120
1,note_on,79,66,0
1,note_on,79,0,120
1,note_on,78,65,0
1,note_on,78,0,120
1,note_on,76,64,0
1,note_on,76,0,120
1,note_on,78,67,0
1,note_on,78,0,120
1,note_on,79,61,0
1,note_on,79,0,120
1,note_on,81,67,0
1,note_on,81,0,120
1,note_on,84,60,0
1,note_on,84,0,120
1,note_on,83,67,0
1,note_on,83,0,120
1,note_on,86,57,0
1,note_on,86,0,120
1,note_on,81,62,0
1,note_on,81,0,120
1,note_on,86,57,0
1,note_on,86,0,120
1,note_on,83,67,0
1,note_on,83,0,120
1,note_on,86,56,0
1,note_on,86,0,120
1,note_on,78,62,0
1,note_on,78,0,120
1,note_on,83,56,0
1,note_on,83,0,120
1,note_on,79,67,0
1,note_on,79,0,120
1,note_on,83,57,0
1,note_on,83,0,120
1,note_on,78,62,0
1,note_on,78,0,120
1,note_on,83,57,0
1,note_on,83,0,120
1,note_on,79,67,0
1,note_on,79,0,120
1,note_on,83,58,0
1,note_on,83,0,120
1,note_on,76,62,0
1,note_on,76,0,120
1,note_on,81,57,0
1,note_on,81,0,120
1,note_on,78,67,0
1,note_on,78,0,120
1,note_on,81,57,0
1,note_on,81,0,120
1,note_on,76,62,0
1,note_on,76,0,120
1,note_on,81,57,0
1,note_on,81,0,120
1,note_on,78,67,0
1,note_on,78,0,120
1,note_on,81,57,0
1,note_on,81,0,120
1,note_on,73,62,0
1,note_on,73,0,120
1,note_on,78,57,0
1,note_on,78,0,120
1,note_on,74,67,0
1,note_on,74,0,120
1,note_on,78,59,0
1,note_on,78,0,120
1,note_on,73,61,0
1,note_on,73,0,120
1,note_on,78,58,0
1,note_on,78,0,120
1,note_on,74,67,0
1,note_on,74,0,120
1,note_on,78,59,0
1,note_on,78,0,120
1,note_on,75,62,0
1,note_on,75,0,120
1,note_on,78,59,0
1,note_on,78,0,120
1,note_on,76,67,0
1,note_on,76,0,120
1,note_on,75,61,0
1,note_on,75,0,120
1,note_on,76,65,0
1,note_on,76,0,120
1,note_on,78,60,0
1,note_on,78,0,120
1,note_on,79,70,0
1,note_on,79,0,120
1,note_on,78,60,0
1,note_on,78,0,120
1,note_on,79,65,0
1,note_on,79,0,120
1,note_on,81,60,0
1,note_on,81,0,120
1,note_on,83,59,0
1,note_on,85,60,120
1,note_on,83,0,12
1,note_on,86,61,108
1,note_on,85,0,12
1,note_on,85,64,108
1,note_on,86,0,12
1,note_on,83,65,108
1,note_on,85,0,12
1,note_on,81,66,108
1,note_on,83,0,12
1,note_on,79,66,108
1,note_on,81,0,12
1,note_on,78,65,108
1,note_on,79,0,12
1,note_on,76,63,108
1,note_on,78,0,12
1,note_on,78,64,108
1,note_on,76,0,12
1,note_on,79,67,108
1,note_on,78,0,12
1,note_on,78,70,108
1,note_on,79,0,12
1,note_on,76,68,108
1,note_on,78,0,12
1,note_on,74,67,108
1,note_on,76,0,12
1,note_on,73,65,108
1,note_on,74,0,12
1,note_on,71,64,108
1,note_on,73,0,12
1,note_on,73,67,108
1,note_on,71,0,12
1,note_on,74,67,108
1,note_on,73,0,12
1,note_on,73,57,108
1,note_on,74,0,12
1,note_on,69,57,108
1,note_on,73,0,12
1,note_on,74,66,108
1,note_on,69,0,12
1,note_on,74,0,108
1,note_on,79,66,360
1,note_on,81,56,120
1,note_on,79,0,12
1,note_on,79,56,108
1,note_on,81,0,12
1,note_on,76,56,108
1,note_on,79,0,12
1,note_on,79,66,108
1,note_on,76,0,12
1,note_on,78,57,108
1,note_on,79,0,12
1,note_on,76,57,108
1,note_on,78,0,12
1,note_on,74,57,108
1,note_on,76,0,12
1,note_on,73,68,108
1,note_on,74,0,12
1,note_on,74,56,108
1,note_on,73,0,12
1,note_on,73,55,108
1,note_on,74,0,12
1,note_on,69,55,108
1,note_on,73,0,12
1,note_on,74,68,108
1,note_on,69,0,12
1,note_on,74,0,108
1,note_on,79,68,360
1,note_on,81,56,120
1,note_on,79,0,12
1,note_on,79,56,108
1,note_on,81,0,12
1,note_on,76,58,108
1,note_on,79,0,12
1,note_on,79,70,108
1,note_on,76,0,12
1,note_on,78,58,108
1,note_on,79,0,12
1,note_on,76,58,108
1,note_on,78,0,12
1,note_on,74,61,108
1,note_on,76,0,12
1,note_on,73,79,108
1,note_on,74,0,12
1,note_on,73,0,108
1,note_on,76,63,0
1,note_on,76,0,120
1,note_on,73,63,0
1,note_on,73,0,120
1,note_on,69,63,0
1,note_on,69,0,120
1,note_on,78,74,0
1,note_on,78,0,120
1,note_on,81,64,0
1,note_on,81,0,120
1,note_on,78,64,0
1,note_on,78,0,120
1,note_on,74,64,0
1,note_on,74,0,120
1,note_on,73,77,0
1,note_on,73,0,120
1,note_on,76,59,0
1,note_on,76,0,120
1,note_on,73,60,0
1,note_on,73,0,120
1,note_on,69,60,0
1,note_on,69,0,120
1,note_on,78,77,0
1,note_on,78,0,120
1,note_on,81,64,0
1,note_on,81,0,120
1,note_on,78,64,0
1,note_on,78,0,120
1,note_on,74,64,0
1,note_on,74,0,120
1,note_on,76,84,0
1,note_on,73,69,0
1,note_on,73,0,90
1,note_on,76,0,0
1,note_on,76,60,150
1,note_on,81,74,0
1,note_on,73,60,0
1,note_on,73,0,90
1,note_on,81,0,0
1,note_on,76,0,0
1,note_on,81,74,150
1,note_on,73,60,0
1,note_on,76,60,0
1,note_on,76,0,90
1,note_on,73,0,0
1,note_on,81,0,0
1,note_on,73,60,150
1,note_on,76,60,0
1,note_on,81,74,0
1,note_on,81,0,90
1,note_on,76,0,0
1,note_on,73,0,0
1,note_on,81,74,150
1,note_on,73,60,0
1,note_on,76,60,0
1,note_on,76,0,420
1,note_on,73,0,0
1,note_on,81,0,0
1,note_on,79,41,0
1,note_on,79,0,60
1,note_on,78,42,0
1,note_on,78,0,120
1,note_on,76,40,0
1,note_on,76,0,120
1,note_on,78,40,0
1,note_on,78,0,120
1,note_on,79,40,0
1,note_on,79,0,120
1,note_on,80,45,0
1,note_on,80,0,240
1,note_on,81,42,0
1,note_on,81,0,240
1,note_on,81,40,240
1,note_on,81,0,240
1,note_on,86,46,0
1,note_on,86,0,240
1,note_on,85,42,0
1,note_on,85,0,240
1,note_on,83,44,0
1,note_on,83,0,240
1,note_on,81,42,0
1,note_on,81,0,240
1,note_on,78,48,0
1,note_on,78,0,240
1,note_on,79,42,0
1,note_on,79,0,240
1,note_on,79,40,240
1,note_on,79,0,240
1,note_on,81,45,0
1,note_on,81,0,240
1,note_on,79,42,0
1,note_on,79,0,240
1,note_on,78,45,0
1,note_on,78,0,240
1,note_on,76,42,0
1,note_on,76,0,240
1,note_on,73,48,0
1,note_on,73,0,240
1,note_on,74,44,0
1,note_on,74,0,240
1,note_on,76,45,240
1,note_on,76,0,240
1,note_on,77,50,0
1,note_on,77,0,240
1,note_on,78,46,0
1,note_on,78,0,240
1,note_on,81,42,180
1,note_on,81,0,60
1,note_on,79,47,0
1,note_on,79,0,240
1,note_on,78,51,0
1,note_on,78,0,720
1,note_on,79,44,0
1,note_on,79,0,120
1,note_on,78,42,0
1,note_on,78,0,120
1,note_on,76,47,0
1,note_on,76,0,240
1,note_on,78,42,0
1,note_on,78,0,120
1,note_on,79,44,120
1,note_on,79,0,120
1,note_on,80,47,120
1,note_on,80,0,120
1,note_on,80,45,120
1,note_on,80,0,240
1,note_on,81,42,0
1,note_on,81,0,240
1,note_on,81,40,240
1,note_on,81,0,240
1,note_on,86,46,0
1,note_on,86,0,120
1,note_on,84,42,120
1,note_on,84,0,120
1,note_on,82,44,120
1,note_on,82,0,120
1,note_on,81,42,120
1,note_on,81,0,120
1,note_on,78,48,120
1,note_on,78,0,240
1,note_on,79,42,0
1,note_on,79,0,240
1,note_on,81,40,240
1,note_on,81,0,60
1,note_on,79,37,0
1,note_on,79,0,60
1,note_on,78,37,0
1,note_on,78,0,60
1,note_on,79,37,0
1,note_on,79,0,60
1,note_on,81,45,0
1,note_on,81,0,120
1,note_on,79,42,120
1,note_on,79,0,120
1,note_on,77,45,120
1,note_on,77,0,120
1,note_on,76,42,120
1,note_on,76,0,120
1,note_on,79,45,120
1,note_on,79,0,240
1,note_on,77,42,0
1,note_on,77,0,240
1,note_on,76,40,240
1,note_on,76,0,240
1,note_on,73,46,0
1,note_on,73,0,240
1,note_on,74,42,0
1,note_on,74,0,240
1,note_on,80,46,240
1,note_on,80,0,240
1,note_on,80,49,0
1,note_on,80,0,960
1,note_on,81,42,0
1,note_on,81,0,240
1,note_on,78,46,720
1,note_on,78,0,120
1,note_on,81,44,0
1,note_on,81,0,120
1,note_on,80,47,0
1,note_on,80,0,120
1,note_on,81,43,0
1,note_on,81,0,120
1,note_on,83,50,0
1,note_on,83,0,120
1,note_on,81,47,0
1,note_on,81,0,120
1,note_on,80,53,0
1,note_on,80,0,120
1,note_on,81,53,0
1,note_on,81,0,120
1,note_on,79,62,0
1,note_on,79,0,120
1,note_on,81,53,0
1,note_on,81,0,120
1,note_on,79,55,0
1,note_on,79,0,120
1,note_on,81,52,0
1,note_on,81,0,120
1,note_on,79,64,0
1,note_on,79,0,120
1,note_on,81,51,0
1,note_on,81,0,120
1,note_on,79,55,0
1,note_on,79,0,120
1,note_on,81,49,0
1,note_on,81,0,120
1,note_on,78,56,0
1,note_on,78,0,120
1,note_on,81,49,0
1,note_on,81,0,120
1,note_on,80,51,0
1,note_on,80,0,120
1,note_on,81,47,0
1,note_on,81,0,120
1,note_on,83,54,0
1,note_on,83,0,120
1,note_on,81,47,0
1,note_on,81,0,120
1,note_on,80,51,0
1,note_on,80,0,120
1,note_on,81,53,0
1,note_on,81,0,120
1,note_on,79,59,0
1,note_on,79,0,120
1,note_on,81,50,0
1,note_on,81,0,120
1,note_on,79,55,0
1,note_on,79,0,120
1,note_on,81,52,0
1,note_on,81,0,120
1,note_on,79,62,0
1,note_on,79,0,120
1,note_on,81,49,0
1,note_on,81,0,120
1,note_on,79,55,0
1,note_on,79,0,120
1,note_on,81,49,0
1,note_on,81,0,120
1,note_on,78,41,0
1,note_on,78,0,480
1,note_on,86,57,240
1,note_on,86,0,120
1,note_on,88,63,120
1,note_on,88,0,120
1,note_on,86,58,120
1,note_on,86,0,120
1,note_on,85,63,120
1,note_on,85,0,120
1,note_on,81,58,120
1,note_on,81,0,120
1,note_on,86,60,120
1,note_on,86,0,480
1,note_on,50,57,240
1,note_on,50,0,120
1,note_on,52,63,120
1,note_on,52,0,120
1,note_on,50,58,120
1,note_on,50,0,120
1,note_on,49,60,120
1,note_on,49,0,120
1,note_on,45,58,120
1,note_on,45,0,120
1,note_on,50,60,120
1,note_on,50,0,480
1,note_on,81,50,0
1,note_on,81,0,480
1,note_on,79,47,0
1,note_on,79,0,480
1,note_on,78,46,0
1,note_on,78,0,480
1,note_on,83,50,0
1,note_on,83,0,360
1,note_on,85,45,0
1,note_on,85,0,40
1,note_on,83,45,0
1,note_on,83,0,40
1,note_on,81,45,1
1,note_on,83,50,39
1,note_on,81,0,1
1,note_on,83,0,119
1,note_on,85,47,120
1,note_on,85,0,120
1,note_on,88,50,120
1,note_on,88,0,240
1,note_on,86,45,0
1,note_on,86,0,120
1,note_on,85,47,120
1,note_on,85,0,240
1,note_on,83,45,0
1,note_on,83,0,120
1,note_on,81,50,120
1,note_on,81,0,240
1,note_on,81,60,240
1,note_on,81,0,480
1,note_on,79,60,0
1,note_on,79,0,480
1,note_on,78,59,0
1,note_on,78,0,480
1,note_on,76,68,0
1,note_on,76,0,360
1,note_on,83,53,0
1,note_on,83,0,120
1,note_on,81,60,0
1,note_on,81,0,120
1,note_on,79,58,0
1,note_on,79,0,120
1,note_on,78,58,0
1,note_on,78,0,120
1,note_on,76,58,0
1,note_on,76,0,120
1,note_on,74,63,0
1,note_on,74,0,480
1,note_on,76,55,0
1,note_on,76,0,60
1,note_on,78,49,0
1,note_on,78,0,60
1,note_on,76,56,0
1,note_on,76,0,60
1,note_on,78,50,0
1,note_on,78,0,60
1,note_on,76,56,0
1,note_on,76,0,80
1,note_on,74,48,0
1,note_on,74,0,80
1,note_on,76,48,0
1,note_on,76,0,80
1,note_on,74,66,0
1,note_on,74,0,240
1,note_on,69,50,240
1,note_on,69,0,480
1,note_on,67,47,0
1,note_on,67,0,480
1,note_on,66,46,0
1,note_on,66,0,480
1,note_on,71,50,0
1,note_on,71,0,360
1,note_on,73,45,0
1,note_on,73,0,40
1,note_on,71,45,0
1,note_on,71,0,40
1,note_on,69,45,1
1,note_on,71,50,39
1,note_on,69,0,1
1,note_on,71,0,119
1,note_on,73,47,120
1,note_on,73,0,120
1,note_on,76,50,120
1,note_on,76,0,240
1,note_on,74,45,0
1,note_on,74,0,240
1,note_on,73,47,0
1,note_on,73,0,240
1,note_on,71,45,0
1,note_on,71,0,240
1,note_on,69,50,0
1,note_on,69,0,240
1,note_on,69,56,240
1,note_on,81,66,0
1,note_on,81,0,480
1,note_on,69,0,0
1,note_on,79,66,0
1,note_on,67,56,0
1,note_on,67,0,480
1,note_on,79,0,0
1,note_on,66,55,0
1,note_on,78,64,0
1,note_on,78,0,480
1,note_on,66,0,0
1,note_on,64,57,0
1,note_on,76,70,0
1,note_on,76,0,360
1,note_on,64,0,0
1,note_on,83,58,0
1,note_on,83,0,120
1,note_on,81,66,0
1,note_on,81,0,120
1,note_on,79,63,0
1,note_on,79,0,120
1,note_on,78,63,0
1,note_on,78,0,120
1,note_on,76,63,0
1,note_on,76,0,120
1,note_on,74,69,0
1,note_on,74,0,480
1,note_on,76,60,0
1,note_on,76,0,60
1,note_on,78,53,0
1,note_on,78,0,60
1,note_on,76,61,0
1,note_on,76,0,60
1,note_on,78,55,0
1,note_on,78,0,60
1,note_on,76,61,0
1,note_on,76,0,80
1,note_on,74,52,0
1,note_on,74,0,80
1,note_on,76,52,0
1,note_on,76,0,80
1,note_on,69,62,0
1,note_on,74,74,0
1,note_on,66,62,0
1,note_on,66,0,480
1,note_on,74,0,0
1,note_on,69,0,0
1,note_on,79,66,480
1,note_on,78,55,120
1,note_on,79,0,12
1,note_on,76,54,108
1,note_on,78,0,12
1,note_on,78,54,108
1,note_on,76,0,12
1,note_on,81,65,108
1,note_on,78,0,12
1,note_on,79,55,108
1,note_on,81,0,12
1,note_on,78,55,108
1,note_on,79,0,12
1,note_on,79,55,108
1,note_on,78,0,12
1,note_on,81,62,108
1,note_on,79,0,12
1,note_on,81,0,468
1,note_on,81,50,480
1,note_on,81,0,60
1,note_on,83,45,180
1,note_on,83,0,60
1,note_on,85,45,180
1,note_on,85,0,60
1,note_on,86,45,180
1,note_on,86,0,60
1,note_on,81,54,180
1,note_on,81,0,480
1,note_on,78,45,0
1,note_on,78,0,480
1,note_on,81,50,0
1,note_on,81,0,120
1,note_on,79,44,0
1,note_on,79,0,120
1,note_on,78,44,0
1,note_on,78,0,120
1,note_on,79,44,0
1,note_on,79,0,120
1,note_on,81,49,0
1,note_on,81,0,60
1,note_on,79,46,180
1,note_on,79,0,60
1,note_on,77,54,180
1,note_on,77,0,240
1,note_on,78,45,0
1,note_on,78,0,240
1,note_on,79,66,480
1,note_on,78,55,120
1,note_on,79,0,12
1,note_on,76,54,108
1,note_on,78,0,12
1,note_on,78,54,108
1,note_on,76,0,12
1,note_on,81,65,108
1,note_on,78,0,12
1,note_on,79,55,108
1,note_on,81,0,12
1,note_on,78,55,108
1,note_on,79,0,12
1,note_on,79,55,108
1,note_on,78,0,12
1,note_on,81,62,108
1,note_on,79,0,12
1,note_on,81,0,468
1,note_on,81,50,480
1,note_on,81,0,60
1,note_on,83,45,180
1,note_on,83,0,60
1,note_on,85,45,180
1,note_on,85,0,60
1,note_on,86,45,180
1,note_on,86,0,60
1,note_on,81,54,180
1,note_on,81,0,480
1,note_on,78,45,0
1,note_on,78,0,480
1,note_on,81,50,0
1,note_on,81,0,120
1,note_on,79,44,0
1,note_on,79,0,120
1,note_on,78,44,0
1,note_on,78,0,120
1,note_on,79,44,0
1,note_on,79,0,120
1,note_on,81,50,0
1,note_on,81,0,120
1,note_on,79,44,0
1,note_on,79,0,120
1,note_on,78,44,0
1,note_on,78,0,120
1,note_on,76,44,0
1,note_on,76,0,120
1,note_on,74,45,0
1,note_on,74,0,120
1,note_on,76,46,0
1,note_on,76,0,120
1,note_on,78,48,0
1,note_on,78,0,120
1,note_on,79,49,0
1,note_on,79,0,120
1,note_on,81,50,0
1,note_on,81,0,120
1,note_on,83,51,0
1,note_on,83,0,120
1,note_on,85,53,0
1,note_on,85,0,120
1,note_on,86,54,0
1,note_on,86,0,110
1,note_on,86,58,10
1,note_on,86,0,480
1,note_on,83,49,0
1,note_on,83,0,120
1,note_on,79,54,240
1,note_on,79,0,120
1,note_on,78,59,0
1,note_on,78,0,480
1,note_on,81,54,0
1,note_on,81,0,240
1,note_on,74,54,120
1,note_on,74,0,120
1,note_on,76,59,0
1,note_on,76,0,480
1,note_on,79,54,0
1,note_on,79,0,240
1,note_on,73,54,120
1,note_on,73,0,120
1,note_on,74,53,0
1,note_on,74,0,120
1,note_on,76,53,0
1,note_on,76,0,120
1,note_on,78,54,0
1,note_on,78,0,120
1,note_on,79,55,0
1,note_on,79,0,120
1,note_on,81,56,0
1,note_on,81,0,120
1,note_on,83,56,0
1,note_on,83,0,120
1,note_on,85,57,0
1,note_on,85,0,120
1,note_on,86,60,0
1,note_on,86,0,120
1,note_on,88,63,0
1,note_on,88,0,120
1,note_on,86,55,0
1,note_on,86,0,120
1,note_on,85,55,0
1,note_on,85,0,120
1,note_on,86,55,0
1,note_on,86,0,120
1,note_on,85,63,0
1,note_on,85,0,120
1,note_on,83,51,0
1,note_on,83,0,120
1,note_on,81,54,0
1,note_on,81,0,120
1,note_on,79,54,0
1,note_on,79,0,120
1,note_on,78,61,0
1,note_on,78,0,120
1,note_on,79,51,0
1,note_on,79,0,120
1,note_on,80,54,0
1,note_on,80,0,120
1,note_on,81,54,0
1,note_on,81,0,120
1,note_on,79,58,0
1,note_on,79,0,120
1,note_on,78,51,0
1,note_on,78,0,120
1,note_on,76,54,0
1,note_on,76,0,120
1,note_on,74,50,0
1,note_on,74,0,120
1,note_on,75,59,0
1,note_on,75,0,120
1,note_on,76,51,0
1,note_on,76,0,120
1,note_on,78,54,0
1,note_on,78,0,120
1,note_on,79,54,0
1,note_on,79,0,120
1,note_on,78,57,0
1,note_on,78,0,120
1,note_on,76,53,0
1,note_on,76,0,120
1,note_on,74,56,0
1,note_on,74,0,120
1,note_on,73,54,0
1,note_on,73,0,120
1,note_on,74,66,0
1,note_on,74,0,120
1,note_on,69,59,0
1,note_on,69,0,120
1,note_on,74,66,0
1,note_on,74,0,120
1,note_on,78,58,0
1,note_on,78,0,120
1,note_on,81,66,0
1,note_on,81,0,120
1,note_on,78,60,0
1,note_on,78,0,120
1,note_on,79,66,0
1,note_on,79,0,120
1,note_on,76,59,0
1,note_on,76,0,120
1,note_on,74,66,0
1,note_on,74,0,120
1,note_on,69,59,0
1,note_on,69,0,120
1,note_on,74,66,0
1,note_on,74,0,120
1,note_on,78,58,0
1,note_on,78,0,120
1,note_on,81,66,0
1,note_on,81,0,120
1,note_on,78,60,0
1,note_on,78,0,120
1,note_on,79,66,0
1,note_on,79,0,120
1,note_on,76,59,0
1,note_on,76,0,120
1,note_on,74,75,0
1,note_on,74,0,240
1,note_on,85,75,240
1,note_on,79,64,0
1,note_on,76,64,0
1,note_on,76,0,240
1,note_on,79,0,0
1,note_on,85,0,0
1,note_on,78,64,240
1,note_on,86,75,0
1,note_on,74,64,0
1,note_on,74,0,240
1,note_on,86,0,0
1,note_on,78,0,0
1,note_on,79,47,720
1,note_on,71,39,0
1,note_on,71,0,240
1,note_on,79,0,0
1,note_on,69,36,0
1,note_on,78,43,0
1,note_on,78,0,120
1,note_on,69,0,0
1,note_on,69,39,120
1,note_on,78,47,0
1,note_on,78,0,240
1,note_on,69,0,0
1,note_on,76,42,0
1,note_on,67,35,0
1,note_on,67,0,120
1,note_on,76,0,0
1,note_on,76,47,120
1,note_on,67,39,0
1,note_on,67,0,240
1,note_on,76,0,0
1,note_on,74,41,0
1,note_on,66,34,0
1,note_on,66,0,120
1,note_on,74,0,0
1,note_on,66,39,120
1,note_on,74,47,0
1,note_on,74,0,240
1,note_on,66,0,0
1,note_on,64,34,0
1,note_on,73,41,0
1,note_on,73,0,120
1,note_on,64,0,0
1,note_on,67,45,120
1,note_on,73,54,0
1,note_on,64,37,0
1,note_on,64,0,960
1,note_on,73,0,0
1,note_on,67,0,0
1,note_on,66,35,0
1,note_on,74,42,0
1,note_on,74,0,480
1,note_on,66,0,0
2,note_on,45,57,0
2,note_on,38,57,0
2,note_on,50,69,0
2,note_on,50,0,480
2,note_on,38,0,0
2,note_on,45,0,0
2,note_on,66,45,480
2,note_on,62,37,0
2,note_on,62,0,480
2,note_on,66,0,0
2,note_on,64,37,0
2,note_on,67,45,0
2,note_on,67,0,480
2,note_on,64,0,0
2,note_on,69,45,0
2,note_on,66,37,0
2,note_on,66,0,480
2,note_on,69,0,0
2,note_on,54,38,1440
2,note_on,54,0,240
2,note_on,62,32,0
2,note_on,62,0,240
2,note_on,50,38,0
2,note_on,50,0,240
2,note_on,62,33,0
2,note_on,62,0,240
2,note_on,52,37,0
2,note_on,52,0,240
2,note_on,62,32,0
2,note_on,62,0,240
2,note_on,57,37,0
2,note_on,57,0,60
2,note_on,61,30,180
2,note_on,61,0,60
2,note_on,50,42,180
2,note_on,62,42,0
2,note_on,62,0,480
2,note_on,50,0,0
2,note_on,62,37,480
2,note_on,66,45,0
2,note_on,66,0,480
2,note_on,62,0,0
2,note_on,64,37,0
2,note_on,67,45,0
2,note_on,67,0,480
2,note_on,64,0,0
2,note_on,66,37,0
2,note_on,69,45,0
2,note_on,69,0,480
2,note_on,66,0,0
2,note_on,54,38,1440
2,note_on,54,0,240
2,note_on,62,32,0
2,note_on,62,0,240
2,note_on,50,38,0
2,note_on,50,0,240
2,note_on,62,33,0
2,note_on,62,0,240
2,note_on,52,37,0
2,note_on,52,0,240
2,note_on,62,32,0
2,note_on,62,0,240
2,note_on,57,37,0
2,note_on,57,0,240
2,note_on,61,32,0
2,note_on,61,0,240
2,note_on,62,37,0
2,note_on,62,0,120
2,note_on,66,26,120
2,note_on,66,0,120
2,note_on,62,35,120
2,note_on,62,0,120
2,note_on,66,28,120
2,note_on,66,0,120
2,note_on,62,36,120
2,note_on,62,0,120
2,note_on,66,26,120
2,note_on,66,0,120
2,note_on,62,35,120
2,note_on,62,0,120
2,note_on,66,30,120
2,note_on,66,0,120
2,note_on,64,37,120
2,note_on,64,0,120
2,note_on,67,29,120
2,note_on,67,0,120
2,note_on,64,37,120
2,note_on,64,0,120
2,note_on,67,29,120
2,note_on,67,0,120
2,note_on,64,43,120
2,note_on,66,38,120
2,note_on,64,0,12
2,note_on,67,38,108
2,note_on,66,0,12
2,note_on,66,38,108
2,note_on,67,0,12
2,note_on,64,38,108
2,note_on,66,0,12
2,note_on,62,40,108
2,note_on,64,0,12
2,note_on,61,40,108
2,note_on,62,0,12
2,note_on,59,40,108
2,note_on,61,0,12
2,note_on,57,37,108
2,note_on,59,0,12
2,note_on,57,0,108
2,note_on,61,26,120
2,note_on,61,0,120
2,note_on,57,35,120
2,note_on,57,0,120
2,note_on,61,28,120
2,note_on,61,0,120
2,note_on,57,36,120
2,note_on,57,0,120
2,note_on,61,26,120
2,note_on,61,0,120
2,note_on,55,35,120
2,note_on,55,0,120
2,note_on,61,30,120
2,note_on,61,0,120
2,note_on,54,37,120
2,note_on,54,0,120
2,note_on,62,29,120
2,note_on,62,0,120
2,note_on,54,37,120
2,note_on,54,0,120
2,note_on,62,29,120
2,note_on,62,0,120
2,note_on,54,43,120
2,note_on,50,36,120
2,note_on,54,0,12
2,note_on,52,37,108
2,note_on,50,0,12
2,note_on,54,38,108
2,note_on,52,0,12
2,note_on,55,39,108
2,note_on,54,0,12
2,note_on,57,40,108
2,note_on,55,0,12
2,note_on,59,41,108
2,note_on,57,0,12
2,note_on,61,42,108
2,note_on,59,0,12
2,note_on,62,44,108
2,note_on,61,0,12
2,note_on,62,0,468
2,note_on,57,37,720
2,note_on,54,31,0
2,note_on,54,0,120
2,note_on,57,0,0
2,note_on,54,31,120
2,note_on,57,37,0
2,note_on,57,0,120
2,note_on,54,0,0
2,note_on,57,37,120
2,note_on,54,31,0
2,note_on,54,0,120
2,note_on,57,0,0
2,note_on,55,37,120
2,note_on,59,44,0
2,note_on,59,0,480
2,note_on,55,0,0
2,note_on,55,30,720
2,note_on,59,36,0
2,note_on,59,0,120
2,note_on,55,0,0
2,note_on,59,36,120
2,note_on,55,30,0
2,note_on,55,0,120
2,note_on,59,0,0
2,note_on,59,36,120
2,note_on,56,30,0
2,note_on,56,0,120
2,note_on,59,0,0
2,note_on,57,46,120
2,note_on,57,0,240
2,note_on,55,40,0
2,note_on,55,0,240
2,note_on,54,40,0
2,note_on,54,0,120
2,note_on,50,40,120
2,note_on,50,0,120
2,note_on,49,50,120
2,note_on,49,0,240
2,note_on,45,44,0
2,note_on,45,0,240
2,note_on,50,44,0
2,note_on,50,0,120
2,note_on,54,44,120
2,note_on,54,0,120
2,note_on,57,51,120
2,note_on,57,0,240
2,note_on,55,44,0
2,note_on,55,0,240
2,note_on,54,45,0
2,note_on,54,0,120
2,note_on,50,45,120
2,note_on,50,0,120
2,note_on,49,54,120
2,note_on,49,0,240
2,note_on,45,47,0
2,note_on,45,0,240
2,note_on,50,48,0
2,note_on,50,0,120
2,note_on,54,48,120
2,note_on,54,0,120
2,note_on,52,50,120
2,note_on,57,60,0
2,note_on,45,50,0
2,note_on,45,0,240
2,note_on,57,0,0
2,note_on,52,0,0
2,note_on,50,51,240
2,note_on,57,60,0
2,note_on,54,51,0
2,note_on,54,0,240
2,note_on,57,0,0
2,note_on,50,0,0
2,note_on,57,61,240
2,note_on,52,51,0
2,note_on,45,51,0
2,note_on,45,0,240
2,note_on,52,0,0
2,note_on,57,0,0
2,note_on,50,52,240
2,note_on,54,52,0
2,note_on,57,62,0
2,note_on,57,0,240
2,note_on,54,0,0
2,note_on,50,0,0
2,note_on,45,45,480
2,note_on,57,55,0
2,note_on,52,45,0
2,note_on,49,45,0
2,note_on,49,0,90
2,note_on,45,0,0
2,note_on,57,0,0
2,note_on,52,0,0
2,note_on,52,45,150
2,note_on,49,45,0
2,note_on,45,45,0
2,note_on,57,55,0
2,note_on,57,0,90
2,note_on,52,0,0
2,note_on,49,0,0
2,note_on,45,0,0
2,note_on,45,45,150
2,note_on,52,45,0
2,note_on,49,45,0
2,note_on,57,55,0
2,note_on,57,0,90
2,note_on,45,0,0
2,note_on,52,0,0
2,note_on,49,0,0
2,note_on,49,49,150
2,note_on,57,58,0
2,note_on,52,49,0
2,note_on,45,49,0
2,note_on,45,0,420
2,note_on,49,0,0
2,note_on,57,0,0
2,note_on,52,0,0
2,note_on,57,34,540
2,note_on,57,0,240
2,note_on,61,27,0
2,note_on,61,0,240
2,note_on,59,30,0
2,note_on,59,0,240
2,note_on,62,27,0
2,note_on,62,0,240
2,note_on,61,32,0
2,note_on,61,0,240
2,note_on,64,26,0
2,note_on,64,0,240
2,note_on,57,29,0
2,note_on,57,0,240
2,note_on,61,26,0
2,note_on,61,0,240
2,note_on,59,34,0
2,note_on,59,0,240
2,note_on,66,28,0
2,note_on,66,0,240
2,note_on,62,32,0
2,note_on,62,0,240
2,note_on,59,28,0
2,note_on,59,0,240
2,note_on,56,34,0
2,note_on,56,0,240
2,note_on,59,29,0
2,note_on,59,0,240
2,note_on,52,30,0
2,note_on,52,0,240
2,note_on,62,28,0
2,note_on,62,0,240
2,note_on,61,34,0
2,note_on,61,0,240
2,note_on,64,28,0
2,note_on,64,0,240
2,note_on,56,30,0
2,note_on,56,0,240
2,note_on,64,28,0
2,note_on,64,0,240
2,note_on,57,34,0
2,note_on,57,0,240
2,note_on,64,26,0
2,note_on,64,0,240
2,note_on,54,29,0
2,note_on,54,0,240
2,note_on,57,26,0
2,note_on,57,0,240
2,note_on,52,34,0
2,note_on,52,0,240
2,note_on,57,27,0
2,note_on,57,0,240
2,note_on,61,30,0
2,note_on,61,0,240
2,note_on,57,27,0
2,note_on,57,0,240
2,note_on,52,33,0
2,note_on,56,33,0
2,note_on,56,0,480
2,note_on,52,0,0
2,note_on,57,34,480
2,note_on,57,0,240
2,note_on,61,27,0
2,note_on,61,0,240
2,note_on,59,30,0
2,note_on,59,0,240
2,note_on,62,27,0
2,note_on,62,0,240
2,note_on,61,32,0
2,note_on,61,0,240
2,note_on,64,26,0
2,note_on,64,0,120
2,note_on,57,29,120
2,note_on,57,0,240
2,note_on,61,26,0
2,note_on,61,0,120
2,note_on,59,34,120
2,note_on,59,0,240
2,note_on,66,28,0
2,note_on,66,0,240
2,note_on,62,32,0
2,note_on,62,0,240
2,note_on,59,28,0
2,note_on,59,0,240
2,note_on,56,34,0
2,note_on,56,0,240
2,note_on,59,29,0
2,note_on,59,0,120
2,note_on,52,30,120
2,note_on,52,0,240
2,note_on,56,28,0
2,note_on,56,0,120
2,note_on,57,30,120
2,note_on,57,0,480
2,note_on,62,30,0
2,note_on,50,30,0
2,note_on,50,0,480
2,note_on,62,0,0
2,note_on,61,30,0
2,note_on,52,30,0
2,note_on,61,0,480
2,note_on,59,30,0
2,note_on,59,0,480
2,note_on,52,0,0
2,note_on,57,38,0
2,note_on,57,0,480
2,note_on,69,49,240
2,note_on,69,0,120
2,note_on,71,55,120
2,note_on,71,0,120
2,note_on,69,49,120
2,note_on,69,0,120
2,note_on,68,56,120
2,note_on,68,0,120
2,note_on,64,48,120
2,note_on,64,0,120
2,note_on,69,55,120
2,note_on,69,0,480
2,note_on,57,50,240
2,note_on,57,0,120
2,note_on,59,56,120
2,note_on,59,0,120
2,note_on,57,50,120
2,note_on,57,0,120
2,note_on,56,56,120
2,note_on,56,0,120
2,note_on,52,51,120
2,note_on,52,0,120
2,note_on,57,45,120
2,note_on,57,0,120
2,note_on,64,35,0
2,note_on,64,0,120
2,note_on,63,37,0
2,note_on,63,0,120
2,note_on,64,34,0
2,note_on,64,0,120
2,note_on,66,40,0
2,note_on,66,0,120
2,note_on,64,37,0
2,note_on,64,0,120
2,note_on,63,40,0
2,note_on,63,0,120
2,note_on,64,40,0
2,note_on,64,0,120
2,note_on,62,47,0
2,note_on,62,0,120
2,note_on,64,39,0
2,note_on,64,0,120
2,note_on,62,41,0
2,note_on,62,0,120
2,note_on,64,39,0
2,note_on,64,0,120
2,note_on,62,49,0
2,note_on,62,0,120
2,note_on,64,39,0
2,note_on,64,0,120
2,note_on,62,41,0
2,note_on,62,0,120
2,note_on,64,39,0
2,note_on,64,0,120
2,note_on,61,39,0
2,note_on,61,0,120
2,note_on,64,35,0
2,note_on,64,0,120
2,note_on,63,37,0
2,note_on,63,0,120
2,note_on,64,34,0
2,note_on,64,0,120
2,note_on,66,40,0
2,note_on,66,0,120
2,note_on,64,37,0
2,note_on,64,0,120
2,note_on,63,40,0
2,note_on,63,0,120
2,note_on,64,40,0
2,note_on,64,0,120
2,note_on,62,47,0
2,note_on,62,0,120
2,note_on,64,39,0
2,note_on,64,0,120
2,note_on,62,41,0
2,note_on,62,0,120
2,note_on,64,39,0
2,note_on,64,0,120
2,note_on,62,49,0
2,note_on,62,0,120
2,note_on,64,39,0
2,note_on,64,0,120
2,note_on,62,41,0
2,note_on,62,0,120
2,note_on,64,39,0
2,note_on,64,0,120
2,note_on,61,41,0
2,note_on,61,0,480
2,note_on,61,35,0
2,note_on,61,0,120
2,note_on,69,29,0
2,note_on,69,0,120
2,note_on,61,29,0
2,note_on,61,0,120
2,note_on,69,29,0
2,note_on,69,0,120
2,note_on,59,35,0
2,note_on,59,0,120
2,note_on,69,30,0
2,note_on,69,0,120
2,note_on,59,30,0
2,note_on,59,0,120
2,note_on,69,30,0
2,note_on,69,0,120
2,note_on,57,35,0
2,note_on,57,0,120
2,note_on,69,31,0
2,note_on,69,0,120
2,note_on,57,31,0
2,note_on,57,0,120
2,note_on,69,31,0
2,note_on,69,0,120
2,note_on,62,35,0
2,note_on,62,0,120
2,note_on,69,30,0
2,note_on,69,0,120
2,note_on,68,30,0
2,note_on,68,0,120
2,note_on,69,30,0
2,note_on,69,0,120
2,note_on,62,35,0
2,note_on,62,0,120
2,note_on,69,30,0
2,note_on,69,0,120
2,note_on,68,30,0
2,note_on,68,0,120
2,note_on,69,30,0
2,note_on,69,0,120
2,note_on,62,30,0
2,note_on,62,0,120
2,note_on,69,32,0
2,note_on,69,0,120
2,note_on,68,32,0
2,note_on,68,0,120
2,note_on,69,32,0
2,note_on,69,0,120
2,note_on,62,34,0
2,note_on,62,0,120
2,note_on,69,30,0
2,note_on,69,0,120
2,note_on,68,30,0
2,note_on,68,0,120
2,note_on,69,30,0
2,note_on,69,0,120
2,note_on,61,37,0
2,note_on,61,0,120
2,note_on,69,37,0
2,note_on,69,0,120
2,note_on,68,28,0
2,note_on,68,0,120
2,note_on,69,28,0
2,note_on,69,0,120
2,note_on,61,45,0
2,note_on,61,0,120
2,note_on,69,37,0
2,note_on,69,0,120
2,note_on,61,37,0
2,note_on,61,0,120
2,note_on,69,37,0
2,note_on,69,0,120
2,note_on,59,45,0
2,note_on,59,0,120
2,note_on,69,39,0
2,note_on,69,0,120
2,note_on,59,39,0
2,note_on,59,0,120
2,note_on,69,39,0
2,note_on,69,0,120
2,note_on,57,45,0
2,note_on,57,0,120
2,note_on,69,40,0
2,note_on,69,0,120
2,note_on,57,40,0
2,note_on,57,0,120
2,note_on,69,40,0
2,note_on,69,0,120
2,note_on,50,45,0
2,note_on,50,0,120
2,note_on,59,39,0
2,note_on,59,0,120
2,note_on,54,39,0
2,note_on,54,0,120
2,note_on,59,39,0
2,note_on,59,0,120
2,note_on,50,45,0
2,note_on,50,0,120
2,note_on,59,39,0
2,note_on,59,0,120
2,note_on,54,39,0
2,note_on,54,0,120
2,note_on,59,39,0
2,note_on,59,0,120
2,note_on,52,39,0
2,note_on,52,0,120
2,note_on,61,41,0
2,note_on,61,0,120
2,note_on,57,41,0
2,note_on,57,0,120
2,note_on,61,41,0
2,note_on,61,0,120
2,note_on,52,44,0
2,note_on,52,0,120
2,note_on,62,39,0
2,note_on,62,0,120
2,note_on,56,39,0
2,note_on,56,0,120
2,note_on,62,39,0
2,note_on,62,0,120
2,note_on,57,48,0
2,note_on,57,0,120
2,note_on,64,42,0
2,note_on,64,0,120
2,note_on,61,36,0
2,note_on,61,0,120
2,note_on,64,36,0
2,note_on,64,0,120
2,note_on,61,35,0
2,note_on,61,0,120
2,note_on,69,29,0
2,note_on,69,0,120
2,note_on,61,29,0
2,note_on,61,0,120
2,note_on,69,29,0
2,note_on,69,0,120
2,note_on,59,35,0
2,note_on,59,0,120
2,note_on,69,30,0
2,note_on,69,0,120
2,note_on,59,30,0
2,note_on,59,0,120
2,note_on,69,30,0
2,note_on,69,0,120
2,note_on,57,35,0
2,note_on,57,0,120
2,note_on,69,31,0
2,note_on,69,0,120
2,note_on,57,31,0
2,note_on,57,0,120
2,note_on,69,31,0
2,note_on,69,0,120
2,note_on,62,35,0
2,note_on,62,0,120
2,note_on,69,30,0
2,note_on,69,0,120
2,note_on,68,30,0
2,note_on,68,0,120
2,note_on,69,30,0
2,note_on,69,0,120
2,note_on,62,35,0
2,note_on,62,0,120
2,note_on,69,30,0
2,note_on,69,0,120
2,note_on,68,30,0
2,note_on,68,0,120
2,note_on,69,30,0
2,note_on,69,0,120
2,note_on,62,30,0
2,note_on,62,0,120
2,note_on,69,32,0
2,note_on,69,0,120
2,note_on,68,32,0
2,note_on,68,0,120
2,note_on,69,32,0
2,note_on,69,0,120
2,note_on,62,34,0
2,note_on,62,0,120
2,note_on,69,30,0
2,note_on,69,0,120
2,note_on,68,30,0
2,note_on,68,0,120
2,note_on,69,30,0
2,note_on,69,0,120
2,note_on,61,37,0
2,note_on,61,0,120
2,note_on,69,37,0
2,note_on,69,0,120
2,note_on,68,28,0
2,note_on,68,0,120
2,note_on,69,28,0
2,note_on,69,0,120
2,note_on,61,45,0
2,note_on,61,0,120
2,note_on,69,37,0
2,note_on,69,0,120
2,note_on,61,37,0
2,note_on,61,0,120
2,note_on,69,37,0
2,note_on,69,0,120
2,note_on,59,45,0
2,note_on,59,0,120
2,note_on,69,39,0
2,note_on,69,0,120
2,note_on,59,39,0
2,note_on,59,0,120
2,note_on,69,39,0
2,note_on,69,0,120
2,note_on,57,45,0
2,note_on,57,0,120
2,note_on,69,40,0
2,note_on,69,0,120
2,note_on,57,40,0
2,note_on,57,0,120
2,note_on,69,40,0
2,note_on,69,0,120
2,note_on,50,45,0
2,note_on,50,0,120
2,note_on,59,39,0
2,note_on,59,0,120
2,note_on,54,39,0
2,note_on,54,0,120
2,note_on,59,39,0
2,note_on,59,0,120
2,note_on,50,45,0
2,note_on,50,0,120
2,note_on,59,39,0
2,note_on,59,0,120
2,note_on,54,39,0
2,note_on,54,0,120
2,note_on,59,39,0
2,note_on,59,0,120
2,note_on,52,39,0
2,note_on,52,0,120
2,note_on,61,41,0
2,note_on,61,0,120
2,note_on,57,41,0
2,note_on,57,0,120
2,note_on,61,41,0
2,note_on,61,0,120
2,note_on,52,44,0
2,note_on,52,0,120
2,note_on,62,39,0
2,note_on,62,0,120
2,note_on,56,39,0
2,note_on,56,0,120
2,note_on,62,39,0
2,note_on,62,0,120
2,note_on,61,54,0
2,note_on,57,45,0
2,note_on,57,0,480
2,note_on,61,0,0
2,note_on,52,46,240
2,note_on,56,46,0
2,note_on,59,55,0
2,note_on,59,0,120
2,note_on,56,0,0
2,note_on,52,0,0
2,note_on,57,45,120
2,note_on,61,54,0
2,note_on,61,0,480
2,note_on,57,0,0
2,note_on,52,46,240
2,note_on,59,55,0
2,note_on,56,46,0
2,note_on,56,0,120
2,note_on,59,0,0
2,note_on,52,0,0
2,note_on,61,63,120
2,note_on,57,52,0
2,note_on,57,0,240
2,note_on,61,0,0
2,note_on,41,52,240
2,note_on,53,63,0
2,note_on,53,0,240
2,note_on,41,0,0
2,note_on,42,52,240
2,note_on,54,63,0
2,note_on,54,0,240
2,note_on,42,0,0
2,note_on,50,40,720
2,note_on,50,0,960
2,note_on,52,40,0
2,note_on,52,0,960
2,note_on,57,39,0
2,note_on,57,0,480
2,note_on,52,39,0
2,note_on,52,0,480
2,note_on,45,35,0
2,note_on,45,0,480
2,note_on,38,57,480
2,note_on,50,69,0
2,note_on,45,57,0
2,note_on,45,0,480
2,note_on,50,0,0
2,note_on,38,0,0
2,note_on,66,45,480
2,note_on,62,37,0
2,note_on,62,0,480
2,note_on,66,0,0
2,note_on,67,45,0
2,note_on,64,37,0
2,note_on,64,0,480
2,note_on,67,0,0
2,note_on,66,37,0
2,note_on,69,45,0
2,note_on,69,0,480
2,note_on,66,0,0
2,note_on,54,38,1440
2,note_on,54,0,240
2,note_on,62,32,0
2,note_on,62,0,240
2,note_on,50,38,0
2,note_on,50,0,240
2,note_on,62,33,0
2,note_on,62,0,240
2,note_on,52,37,0
2,note_on,52,0,240
2,note_on,62,32,0
2,note_on,62,0,240
2,note_on,57,37,0
2,note_on,57,0,60
2,note_on,61,30,180
2,note_on,61,0,60
2,note_on,62,42,180
2,note_on,50,42,0
2,note_on,50,0,480
2,note_on,62,0,0
2,note_on,62,37,480
2,note_on,66,45,0
2,note_on,66,0,480
2,note_on,62,0,0
2,note_on,67,45,0
2,note_on,64,37,0
2,note_on,64,0,480
2,note_on,67,0,0
2,note_on,69,45,0
2,note_on,66,37,0
2,note_on,66,0,480
2,note_on,69,0,0
2,note_on,54,38,1440
2,note_on,54,0,240
2,note_on,62,32,0
2,note_on,62,0,240
2,note_on,50,38,0
2,note_on,50,0,240
2,note_on,62,33,0
2,note_on,62,0,240
2,note_on,52,37,0
2,note_on,52,0,240
2,note_on,62,32,0
2,note_on,62,0,240
2,note_on,57,37,0
2,note_on,57,0,240
2,note_on,61,32,0
2,note_on,61,0,240
2,note_on,62,37,0
2,note_on,62,0,120
2,note_on,66,26,120
2,note_on,66,0,120
2,note_on,62,35,120
2,note_on,62,0,120
2,note_on,66,28,120
2,note_on,66,0,120
2,note_on,62,36,120
2,note_on,62,0,120
2,note_on,66,26,120
2,note_on,66,0,120
2,note_on,62,35,120
2,note_on,62,0,120
2,note_on,66,30,120
2,note_on,66,0,120
2,note_on,64,37,120
2,note_on,64,0,120
2,note_on,67,29,120
2,note_on,67,0,120
2,note_on,64,37,120
2,note_on,64,0,120
2,note_on,67,29,120
2,note_on,67,0,120
2,note_on,64,43,120
2,note_on,66,38,120
2,note_on,64,0,12
2,note_on,67,38,108
2,note_on,66,0,12
2,note_on,66,38,108
2,note_on,67,0,12
2,note_on,64,38,108
2,note_on,66,0,12
2,note_on,62,40,108
2,note_on,64,0,12
2,note_on,61,40,108
2,note_on,62,0,12
2,note_on,59,40,108
2,note_on,61,0,12
2,note_on,57,37,108
2,note_on,59,0,12
2,note_on,57,0,108
2,note_on,61,26,120
2,note_on,61,0,120
2,note_on,57,35,120
2,note_on,57,0,120
2,note_on,61,28,120
2,note_on,61,0,120
2,note_on,57,36,120
2,note_on,57,0,120
2,note_on,61,26,120
2,note_on,61,0,120
2,note_on,55,35,120
2,note_on,55,0,120
2,note_on,61,30,120
2,note_on,61,0,120
2,note_on,54,37,120
2,note_on,54,0,120
2,note_on,62,29,120
2,note_on,62,0,120
2,note_on,54,37,120
2,note_on,54,0,120
2,note_on,62,29,120
2,note_on,62,0,120
2,note_on,54,43,120
2,note_on,50,36,120
2,note_on,54,0,12
2,note_on,52,37,108
2,note_on,50,0,12
2,note_on,54,38,108
2,note_on,52,0,12
2,note_on,55,39,108
2,note_on,54,0,12
2,note_on,57,40,108
2,note_on,55,0,12
2,note_on,59,41,108
2,note_on,57,0,12
2,note_on,61,42,108
2,note_on,59,0,12
2,note_on,62,44,108
2,note_on,61,0,12
2,note_on,62,0,468
2,note_on,57,37,720
2,note_on,54,31,0
2,note_on,54,0,120
2,note_on,57,0,0
2,note_on,57,37,120
2,note_on,54,31,0
2,note_on,54,0,120
2,note_on,57,0,0
2,note_on,57,37,120
2,note_on,54,31,0
2,note_on,54,0,120
2,note_on,57,0,0
2,note_on,59,44,120
2,note_on,55,37,0
2,note_on,55,0,480
2,note_on,59,0,0
2,note_on,59,36,720
2,note_on,55,30,0
2,note_on,55,0,120
2,note_on,59,0,0
2,note_on,59,36,120
2,note_on,55,30,0
2,note_on,55,0,120
2,note_on,59,0,0
2,note_on,56,30,120
2,note_on,59,36,0
2,note_on,59,0,120
2,note_on,56,0,0
2,note_on,57,46,120
2,note_on,57,0,240
2,note_on,55,40,0
2,note_on,55,0,240
2,note_on,54,40,0
2,note_on,54,0,120
2,note_on,50,40,120
2,note_on,50,0,120
2,note_on,49,50,120
2,note_on,49,0,240
2,note_on,45,44,0
2,note_on,45,0,240
2,note_on,50,44,0
2,note_on,50,0,120
2,note_on,54,44,120
2,note_on,54,0,120
2,note_on,57,51,120
2,note_on,57,0,240
2,note_on,55,44,0
2,note_on,55,0,240
2,note_on,54,45,0
2,note_on,54,0,120
2,note_on,50,45,120
2,note_on,50,0,120
2,note_on,49,54,120
2,note_on,49,0,240
2,note_on,45,47,0
2,note_on,45,0,240
2,note_on,50,48,0
2,note_on,50,0,120
2,note_on,54,48,120
2,note_on,54,0,120
2,note_on,45,50,120
2,note_on,57,60,0
2,note_on,52,50,0
2,note_on,52,0,240
2,note_on,57,0,0
2,note_on,45,0,0
2,note_on,54,51,240
2,note_on,50,51,0
2,note_on,57,60,0
2,note_on,57,0,240
2,note_on,50,0,0
2,note_on,54,0,0
2,note_on,52,51,240
2,note_on,45,51,0
2,note_on,57,61,0
2,note_on,57,0,240
2,note_on,45,0,0
2,note_on,52,0,0
2,note_on,50,52,240
2,note_on,54,52,0
2,note_on,57,62,0
2,note_on,57,0,240
2,note_on,54,0,0
2,note_on,50,0,0
2,note_on,45,45,480
2,note_on,49,45,0
2,note_on,57,55,0
2,note_on,52,45,0
2,note_on,52,0,90
2,note_on,45,0,0
2,note_on,49,0,0
2,note_on,57,0,0
2,note_on,49,45,150
2,note_on,57,55,0
2,note_on,52,45,0
2,note_on,45,45,0
2,note_on,45,0,90
2,note_on,49,0,0
2,note_on,57,0,0
2,note_on,52,0,0
2,note_on,49,45,150
2,note_on,52,45,0
2,note_on,57,55,0
2,note_on,45,45,0
2,note_on,45,0,90
2,note_on,49,0,0
2,note_on,52,0,0
2,note_on,57,0,0
2,note_on,52,49,150
2,note_on,57,58,0
2,note_on,49,49,0
2,note_on,45,49,0
2,note_on,45,0,420
2,note_on,52,0,0
2,note_on,57,0,0
2,note_on,49,0,0
2,note_on,57,34,540
2,note_on,57,0,240
2,note_on,61,27,0
2,note_on,61,0,240
2,note_on,59,30,0
2,note_on,59,0,240
2,note_on,62,27,0
2,note_on,62,0,240
2,note_on,61,32,0
2,note_on,61,0,240
2,note_on,64,26,0
2,note_on,64,0,240
2,note_on,57,29,0
2,note_on,57,0,240
2,note_on,61,26,0
2,note_on,61,0,240
2,note_on,59,34,0
2,note_on,59,0,240
2,note_on,66,28,0
2,note_on,66,0,240
2,note_on,62,32,0
2,note_on,62,0,240
2,note_on,59,28,0
2,note_on,59,0,240
2,note_on,56,34,0
2,note_on,56,0,240
2,note_on,59,29,0
2,note_on,59,0,240
2,note_on,52,30,0
2,note_on,52,0,240
2,note_on,62,28,0
2,note_on,62,0,240
2,note_on,61,34,0
2,note_on,61,0,240
2,note_on,64,28,0
2,note_on,64,0,240
2,note_on,56,30,0
2,note_on,56,0,240
2,note_on,64,28,0
2,note_on,64,0,240
2,note_on,57,34,0
2,note_on,57,0,240
2,note_on,64,26,0
2,note_on,64,0,240
2,note_on,54,29,0
2,note_on,54,0,240
2,note_on,57,26,0
2,note_on,57,0,240
2,note_on,52,34,0
2,note_on,52,0,240
2,note_on,57,27,0
2,note_on,57,0,240
2,note_on,61,30,0
2,note_on,61,0,240
2,note_on,57,27,0
2,note_on,57,0,240
2,note_on,56,33,0
2,note_on,52,33,0
2,note_on,52,0,480
2,note_on,56,0,0
2,note_on,57,34,480
2,note_on,57,0,240
2,note_on,61,27,0
2,note_on,61,0,240
2,note_on,59,30,0
2,note_on,59,0,240
2,note_on,62,27,0
2,note_on,62,0,240
2,note_on,61,32,0
2,note_on,61,0,240
2,note_on,64,26,0
2,note_on,64,0,120
2,note_on,57,29,120
2,note_on,57,0,240
2,note_on,61,26,0
2,note_on,61,0,120
2,note_on,59,34,120
2,note_on,59,0,240
2,note_on,66,28,0
2,note_on,66,0,240
2,note_on,62,32,0
2,note_on,62,0,240
2,note_on,59,28,0
2,note_on,59,0,240
2,note_on,56,34,0
2,note_on,56,0,240
2,note_on,59,29,0
2,note_on,59,0,120
2,note_on,52,30,120
2,note_on,52,0,240
2,note_on,56,28,0
2,note_on,56,0,120
2,note_on,57,30,120
2,note_on,57,0,480
2,note_on,62,30,0
2,note_on,50,30,0
2,note_on,50,0,480
2,note_on,62,0,0
2,note_on,52,30,0
2,note_on,61,30,0
2,note_on,61,0,480
2,note_on,59,30,0
2,note_on,59,0,480
2,note_on,52,0,0
2,note_on,57,38,0
2,note_on,57,0,480
2,note_on,69,51,240
2,note_on,69,0,120
2,note_on,71,55,120
2,note_on,71,0,120
2,note_on,69,51,120
2,note_on,69,0,120
2,note_on,68,58,120
2,note_on,68,0,120
2,note_on,64,53,120
2,note_on,64,0,120
2,note_on,69,55,120
2,note_on,69,0,480
2,note_on,57,52,240
2,note_on,57,0,120
2,note_on,59,57,120
2,note_on,59,0,120
2,note_on,57,51,120
2,note_on,57,0,120
2,note_on,56,57,120
2,note_on,56,0,120
2,note_on,52,53,120
2,note_on,52,0,120
2,note_on,57,56,120
2,note_on,57,0,120
2,note_on,64,35,0
2,note_on,64,0,120
2,note_on,63,37,0
2,note_on,63,0,120
2,note_on,64,34,0
2,note_on,64,0,120
2,note_on,66,40,0
2,note_on,66,0,120
2,note_on,64,37,0
2,note_on,64,0,120
2,note_on,63,40,0
2,note_on,63,0,120
2,note_on,64,40,0
2,note_on,64,0,120
2,note_on,62,47,0
2,note_on,62,0,120
2,note_on,64,39,0
2,note_on,64,0,120
2,note_on,62,41,0
2,note_on,62,0,120
2,note_on,64,39,0
2,note_on,64,0,120
2,note_on,62,49,0
2,note_on,62,0,120
2,note_on,64,39,0
2,note_on,64,0,120
2,note_on,62,41,0
2,note_on,62,0,120
2,note_on,64,39,0
2,note_on,64,0,120
2,note_on,61,39,0
2,note_on,61,0,120
2,note_on,64,35,0
2,note_on,64,0,120
2,note_on,63,37,0
2,note_on,63,0,120
2,note_on,64,34,0
2,note_on,64,0,120
2,note_on,66,40,0
2,note_on,66,0,120
2,note_on,64,37,0
2,note_on,64,0,120
2,note_on,63,40,0
2,note_on,63,0,120
2,note_on,64,40,0
2,note_on,64,0,120
2,note_on,62,47,0
2,note_on,62,0,120
2,note_on,64,39,0
2,note_on,64,0,120
2,note_on,62,41,0
2,note_on,62,0,120
2,note_on,64,39,0
2,note_on,64,0,120
2,note_on,62,49,0
2,note_on,62,0,120
2,note_on,64,39,0
2,note_on,64,0,120
2,note_on,62,41,0
2,note_on,62,0,120
2,note_on,64,39,0
2,note_on,64,0,120
2,note_on,61,41,0
2,note_on,61,0,480
2,note_on,61,35,0
2,note_on,61,0,120
2,note_on,69,29,0
2,note_on,69,0,120
2,note_on,61,29,0
2,note_on,61,0,120
2,note_on,69,29,0
2,note_on,69,0,120
2,note_on,59,35,0
2,note_on,59,0,120
2,note_on,69,30,0
2,note_on,69,0,120
2,note_on,59,30,0
2,note_on,59,0,120
2,note_on,69,30,0
2,note_on,69,0,120
2,note_on,57,35,0
2,note_on,57,0,120
2,note_on,69,31,0
2,note_on,69,0,120
2,note_on,57,31,0
2,note_on,57,0,120
2,note_on,69,31,0
2,note_on,69,0,120
2,note_on,62,35,0
2,note_on,62,0,120
2,note_on,69,30,0
2,note_on,69,0,120
2,note_on,68,30,0
2,note_on,68,0,120
2,note_on,69,30,0
2,note_on,69,0,120
2,note_on,62,35,0
2,note_on,62,0,120
2,note_on,69,30,0
2,note_on,69,0,120
2,note_on,68,30,0
2,note_on,68,0,120
2,note_on,69,30,0
2,note_on,69,0,120
2,note_on,62,30,0
2,note_on,62,0,120
2,note_on,69,32,0
2,note_on,69,0,120
2,note_on,68,32,0
2,note_on,68,0,120
2,note_on,69,32,0
2,note_on,69,0,120
2,note_on,62,34,0
2,note_on,62,0,120
2,note_on,69,30,0
2,note_on,69,0,120
2,note_on,68,30,0
2,note_on,68,0,120
2,note_on,69,30,0
2,note_on,69,0,120
2,note_on,61,37,0
2,note_on,61,0,120
2,note_on,69,37,0
2,note_on,69,0,120
2,note_on,68,28,0
2,note_on,68,0,120
2,note_on,69,28,0
2,note_on,69,0,120
2,note_on,61,45,0
2,note_on,61,0,120
2,note_on,69,37,0
2,note_on,69,0,120
2,note_on,61,37,0
2,note_on,61,0,120
2,note_on,69,37,0
2,note_on,69,0,120
2,note_on,59,45,0
2,note_on,59,0,120
2,note_on,69,39,0
2,note_on,69,0,120
2,note_on,59,39,0
2,note_on,59,0,120
2,note_on,69,39,0
2,note_on,69,0,120
2,note_on,57,45,0
2,note_on,57,0,120
2,note_on,69,40,0
2,note_on,69,0,120
2,note_on,57,40,0
2,note_on,57,0,120
2,note_on,69,40,0
2,note_on,69,0,120
2,note_on,50,45,0
2,note_on,50,0,120
2,note_on,59,39,0
2,note_on,59,0,120
2,note_on,54,39,0
2,note_on,54,0,120
2,note_on,59,39,0
2,note_on,59,0,120
2,note_on,50,45,0
2,note_on,50,0,120
2,note_on,59,39,0
2,note_on,59,0,120
2,note_on,54,39,0
2,note_on,54,0,120
2,note_on,59,39,0
2,note_on,59,0,120
2,note_on,52,39,0
2,note_on,52,0,120
2,note_on,61,41,0
2,note_on,61,0,120
2,note_on,57,41,0
2,note_on,57,0,120
2,note_on,61,41,0
2,note_on,61,0,120
2,note_on,52,44,0
2,note_on,52,0,120
2,note_on,62,39,0
2,note_on,62,0,120
2,note_on,56,39,0
2,note_on,56,0,120
2,note_on,62,39,0
2,note_on,62,0,120
2,note_on,57,48,0
2,note_on,57,0,120
2,note_on,64,42,0
2,note_on,64,0,120
2,note_on,61,36,0
2,note_on,61,0,120
2,note_on,64,36,0
2,note_on,64,0,120
2,note_on,61,35,0
2,note_on,61,0,120
2,note_on,69,29,0
2,note_on,69,0,120
2,note_on,61,29,0
2,note_on,61,0,120
2,note_on,69,29,0
2,note_on,69,0,120
2,note_on,59,35,0
2,note_on,59,0,120
2,note_on,69,30,0
2,note_on,69,0,120
2,note_on,59,30,0
2,note_on,59,0,120
2,note_on,69,30,0
2,note_on,69,0,120
2,note_on,57,35,0
2,note_on,57,0,120
2,note_on,69,31,0
2,note_on,69,0,120
2,note_on,57,31,0
2,note_on,57,0,120
2,note_on,69,31,0
2,note_on,69,0,120
2,note_on,62,35,0
2,note_on,62,0,120
2,note_on,69,30,0
2,note_on,69,0,120
2,note_on,68,30,0
2,note_on,68,0,120
2,note_on,69,30,0
2,note_on,69,0,120
2,note_on,62,35,0
2,note_on,62,0,120
2,note_on,69,30,0
2,note_on,69,0,120
2,note_on,68,30,0
2,note_on,68,0,120
2,note_on,69,30,0
2,note_on,69,0,120
2,note_on,62,30,0
2,note_on,62,0,120
2,note_on,69,32,0
2,note_on,69,0,120
2,note_on,68,32,0
2,note_on,68,0,120
2,note_on,69,32,0
2,note_on,69,0,120
2,note_on,62,34,0
2,note_on,62,0,120
2,note_on,69,30,0
2,note_on,69,0,120
2,note_on,68,30,0
2,note_on,68,0,120
2,note_on,69,30,0
2,note_on,69,0,120
2,note_on,61,37,0
2,note_on,61,0,120
2,note_on,69,37,0
2,note_on,69,0,120
2,note_on,68,28,0
2,note_on,68,0,120
2,note_on,69,28,0
2,note_on,69,0,120
2,note_on,61,45,0
2,note_on,61,0,120
2,note_on,69,37,0
2,note_on,69,0,120
2,note_on,61,37,0
2,note_on,61,0,120
2,note_on,69,37,0
2,note_on,69,0,120
2,note_on,59,45,0
2,note_on,59,0,120
2,note_on,69,39,0
2,note_on,69,0,120
2,note_on,59,39,0
2,note_on,59,0,120
2,note_on,69,39,0
2,note_on,69,0,120
2,note_on,57,45,0
2,note_on,57,0,120
2,note_on,69,40,0
2,note_on,69,0,120
2,note_on,57,40,0
2,note_on,57,0,120
2,note_on,69,40,0
2,note_on,69,0,120
2,note_on,50,45,0
2,note_on,50,0,120
2,note_on,59,39,0
2,note_on,59,0,120
2,note_on,54,39,0
2,note_on,54,0,120
2,note_on,59,39,0
2,note_on,59,0,120
2,note_on,50,45,0
2,note_on,50,0,120
2,note_on,59,39,0
2,note_on,59,0,120
2,note_on,54,39,0
2,note_on,54,0,120
2,note_on,59,39,0
2,note_on,59,0,120
2,note_on,52,39,0
2,note_on,52,0,120
2,note_on,61,41,0
2,note_on,61,0,120
2,note_on,57,41,0
2,note_on,57,0,120
2,note_on,61,41,0
2,note_on,61,0,120
2,note_on,52,44,0
2,note_on,52,0,120
2,note_on,62,39,0
2,note_on,62,0,120
2,note_on,56,39,0
2,note_on,56,0,120
2,note_on,62,39,0
2,note_on,62,0,120
2,note_on,57,45,0
2,note_on,61,54,0
2,note_on,61,0,480
2,note_on,57,0,0
2,note_on,56,46,240
2,note_on,52,46,0
2,note_on,59,55,0
2,note_on,59,0,120
2,note_on,52,0,0
2,note_on,56,0,0
2,note_on,57,45,120
2,note_on,61,54,0
2,note_on,61,0,480
2,note_on,57,0,0
2,note_on,52,46,240
2,note_on,59,55,0
2,note_on,56,46,0
2,note_on,56,0,120
2,note_on,59,0,0
2,note_on,52,0,0
2,note_on,57,52,120
2,note_on,61,63,0
2,note_on,61,0,240
2,note_on,57,0,0
2,note_on,41,52,240
2,note_on,53,63,0
2,note_on,53,0,240
2,note_on,41,0,0
2,note_on,42,52,240
2,note_on,54,63,0
2,note_on,54,0,240
2,note_on,42,0,0
2,note_on,50,40,720
2,note_on,50,0,960
2,note_on,52,40,0
2,note_on,52,0,960
2,note_on,57,39,0
2,note_on,57,0,480
2,note_on,52,39,0
2,note_on,52,0,480
2,note_on,45,35,0
2,note_on,45,0,480
2,note_on,47,44,2400
2,note_on,59,44,0
2,note_on,59,0,1920
2,note_on,47,0,0
2,note_on,71,43,480
2,note_on,67,36,0
2,note_on,67,0,240
2,note_on,71,0,0
2,note_on,63,36,720
2,note_on,71,43,0
2,note_on,71,0,240
2,note_on,63,0,0
2,note_on,47,69,240
2,note_on,47,0,240
2,note_on,45,62,0
2,note_on,45,0,120
2,note_on,45,67,120
2,note_on,45,0,240
2,note_on,43,59,0
2,note_on,43,0,120
2,note_on,43,61,120
2,note_on,43,0,240
2,note_on,42,52,0
2,note_on,42,0,120
2,note_on,42,51,120
2,note_on,42,0,240
2,note_on,40,45,0
2,note_on,40,0,120
2,note_on,45,44,2040
2,note_on,57,44,0
2,note_on,57,0,1920
2,note_on,45,0,0
2,note_on,66,36,480
2,note_on,69,43,0
2,note_on,69,0,240
2,note_on,66,0,0
2,note_on,69,43,720
2,note_on,61,36,0
2,note_on,61,0,240
2,note_on,69,0,0
2,note_on,45,69,240
2,note_on,45,0,240
2,note_on,43,62,0
2,note_on,43,0,120
2,note_on,43,67,120
2,note_on,43,0,240
2,note_on,42,59,0
2,note_on,42,0,120
2,note_on,42,61,120
2,note_on,42,0,240
2,note_on,40,52,0
2,note_on,40,0,120
2,note_on,40,51,120
2,note_on,40,0,240
2,note_on,38,45,0
2,note_on,38,0,120
2,note_on,62,47,120
2,note_on,62,0,240
2,note_on,61,42,0
2,note_on,61,0,120
2,note_on,61,53,120
2,note_on,61,0,240
2,note_on,59,46,0
2,note_on,59,0,120
2,note_on,59,58,120
2,note_on,59,0,240
2,note_on,57,50,0
2,note_on,57,0,120
2,note_on,57,60,120
2,note_on,57,0,240
2,note_on,56,52,0
2,note_on,56,0,120
2,note_on,56,66,120
2,note_on,44,56,0
2,note_on,44,0,960
2,note_on,56,0,0
2,note_on,58,61,0
2,note_on,46,51,0
2,note_on,46,0,960
2,note_on,58,0,0
2,note_on,59,47,0
2,note_on,59,0,240
2,note_on,57,42,0
2,note_on,57,0,120
2,note_on,57,53,120
2,note_on,57,0,240
2,note_on,55,46,0
2,note_on,55,0,120
2,note_on,55,58,120
2,note_on,55,0,240
2,note_on,54,50,0
2,note_on,54,0,120
2,note_on,54,60,120
2,note_on,54,0,240
2,note_on,53,52,0
2,note_on,53,0,120
2,note_on,41,56,120
2,note_on,53,66,0
2,note_on,53,0,960
2,note_on,41,0,0
2,note_on,42,51,0
2,note_on,54,61,0
2,note_on,54,0,960
2,note_on,42,0,0
2,note_on,55,41,0
2,note_on,55,0,120
2,note_on,62,36,0
2,note_on,62,0,120
2,note_on,59,41,0
2,note_on,59,0,120
2,note_on,62,35,0
2,note_on,62,0,120
2,note_on,55,41,0
2,note_on,55,0,120
2,note_on,62,36,0
2,note_on,62,0,120
2,note_on,59,41,0
2,note_on,59,0,120
2,note_on,62,35,0
2,note_on,62,0,120
2,note_on,55,41,0
2,note_on,55,0,120
2,note_on,62,36,0
2,note_on,62,0,120
2,note_on,59,41,0
2,note_on,59,0,120
2,note_on,62,35,0
2,note_on,62,0,120
2,note_on,55,41,0
2,note_on,55,0,120
2,note_on,62,36,0
2,note_on,62,0,120
2,note_on,59,41,0
2,note_on,59,0,120
2,note_on,62,35,0
2,note_on,62,0,120
2,note_on,54,45,0
2,note_on,54,0,120
2,note_on,61,39,0
2,note_on,61,0,120
2,note_on,58,45,0
2,note_on,58,0,120
2,note_on,61,38,0
2,note_on,61,0,120
2,note_on,54,45,0
2,note_on,54,0,120
2,note_on,61,39,0
2,note_on,61,0,120
2,note_on,58,45,0
2,note_on,58,0,120
2,note_on,61,38,0
2,note_on,61,0,120
2,note_on,53,45,0
2,note_on,53,0,120
2,note_on,62,39,0
2,note_on,62,0,120
2,note_on,56,45,0
2,note_on,56,0,120
2,note_on,62,38,0
2,note_on,62,0,120
2,note_on,53,45,0
2,note_on,53,0,120
2,note_on,62,39,0
2,note_on,62,0,120
2,note_on,56,45,0
2,note_on,56,0,120
2,note_on,62,38,0
2,note_on,62,0,120
2,note_on,54,40,0
2,note_on,54,0,960
2,note_on,42,40,0
2,note_on,42,0,960
2,note_on,47,39,0
2,note_on,47,0,480
2,note_on,42,39,0
2,note_on,42,0,480
2,note_on,35,35,0
2,note_on,35,0,480
2,note_on,47,54,480
2,note_on,59,65,0
2,note_on,59,0,960
2,note_on,47,0,0
2,note_on,45,49,0
2,note_on,57,58,0
2,note_on,57,0,480
2,note_on,45,0,0
2,note_on,55,38,480
2,note_on,43,32,0
2,note_on,43,0,960
2,note_on,55,0,0
2,note_on,54,38,0
2,note_on,42,32,0
2,note_on,42,0,480
2,note_on,54,0,0
2,note_on,59,42,960
2,note_on,59,0,120
2,note_on,67,34,0
2,note_on,67,0,120
2,note_on,59,34,0
2,note_on,59,0,120
2,note_on,67,34,0
2,note_on,67,0,120
2,note_on,57,42,0
2,note_on,57,0,120
2,note_on,67,36,0
2,note_on,67,0,120
2,note_on,57,36,0
2,note_on,57,0,120
2,note_on,67,36,0
2,note_on,67,0,120
2,note_on,55,42,0
2,note_on,55,0,120
2,note_on,67,37,0
2,note_on,67,0,120
2,note_on,55,37,0
2,note_on,55,0,120
2,note_on,67,37,0
2,note_on,67,0,120
2,note_on,60,42,0
2,note_on,60,0,120
2,note_on,67,36,0
2,note_on,67,0,120
2,note_on,66,36,0
2,note_on,66,0,120
2,note_on,67,36,0
2,note_on,67,0,120
2,note_on,60,42,0
2,note_on,60,0,120
2,note_on,67,36,0
2,note_on,67,0,120
2,note_on,66,36,0
2,note_on,66,0,120
2,note_on,67,36,0
2,note_on,67,0,120
2,note_on,60,36,0
2,note_on,60,0,120
2,note_on,67,38,0
2,note_on,67,0,120
2,note_on,66,38,0
2,note_on,66,0,120
2,note_on,67,38,0
2,note_on,67,0,120
2,note_on,60,40,0
2,note_on,60,0,120
2,note_on,67,36,0
2,note_on,67,0,120
2,note_on,66,36,0
2,note_on,66,0,120
2,note_on,67,36,0
2,note_on,67,0,120
2,note_on,59,44,0
2,note_on,59,0,120
2,note_on,67,44,0
2,note_on,67,0,120
2,note_on,66,33,0
2,note_on,66,0,120
2,note_on,67,33,0
2,note_on,67,0,120
2,note_on,59,37,0
2,note_on,59,0,120
2,note_on,67,30,0
2,note_on,67,0,120
2,note_on,59,30,0
2,note_on,59,0,120
2,note_on,67,30,0
2,note_on,67,0,120
2,note_on,57,37,0
2,note_on,57,0,120
2,note_on,67,32,0
2,note_on,67,0,120
2,note_on,57,32,0
2,note_on,57,0,120
2,note_on,67,32,0
2,note_on,67,0,120
2,note_on,55,37,0
2,note_on,55,0,120
2,note_on,67,33,0
2,note_on,67,0,120
2,note_on,55,33,0
2,note_on,55,0,120
2,note_on,67,33,0
2,note_on,67,0,120
2,note_on,48,37,0
2,note_on,48,0,120
2,note_on,57,32,0
2,note_on,57,0,120
2,note_on,52,32,0
2,note_on,52,0,120
2,note_on,57,32,0
2,note_on,57,0,120
2,note_on,48,37,0
2,note_on,48,0,120
2,note_on,57,32,0
2,note_on,57,0,120
2,note_on,52,32,0
2,note_on,52,0,120
2,note_on,57,32,0
2,note_on,57,0,120
2,note_on,50,32,0
2,note_on,50,0,120
2,note_on,59,34,0
2,note_on,59,0,120
2,note_on,55,34,0
2,note_on,55,0,120
2,note_on,59,34,0
2,note_on,59,0,120
2,note_on,50,36,0
2,note_on,50,0,120
2,note_on,60,32,0
2,note_on,60,0,120
2,note_on,54,32,0
2,note_on,54,0,120
2,note_on,60,32,0
2,note_on,60,0,120
2,note_on,55,39,0
2,note_on,55,0,120
2,note_on,62,34,0
2,note_on,62,0,120
2,note_on,59,29,0
2,note_on,59,0,120
2,note_on,62,29,0
2,note_on,62,0,120
2,note_on,59,42,0
2,note_on,59,0,120
2,note_on,67,34,0
2,note_on,67,0,120
2,note_on,59,34,0
2,note_on,59,0,120
2,note_on,67,34,0
2,note_on,67,0,120
2,note_on,57,42,0
2,note_on,57,0,120
2,note_on,67,36,0
2,note_on,67,0,120
2,note_on,57,36,0
2,note_on,57,0,120
2,note_on,67,36,0
2,note_on,67,0,120
2,note_on,55,42,0
2,note_on,55,0,120
2,note_on,67,37,0
2,note_on,67,0,120
2,note_on,55,37,0
2,note_on,55,0,120
2,note_on,67,37,0
2,note_on,67,0,120
2,note_on,60,42,0
2,note_on,60,0,120
2,note_on,67,36,0
2,note_on,67,0,120
2,note_on,66,36,0
2,note_on,66,0,120
2,note_on,67,36,0
2,note_on,67,0,120
2,note_on,60,42,0
2,note_on,60,0,120
2,note_on,67,36,0
2,note_on,67,0,120
2,note_on,66,36,0
2,note_on,66,0,120
2,note_on,67,36,0
2,note_on,67,0,120
2,note_on,60,36,0
2,note_on,60,0,120
2,note_on,67,38,0
2,note_on,67,0,120
2,note_on,66,38,0
2,note_on,66,0,120
2,note_on,67,38,0
2,note_on,67,0,120
2,note_on,60,40,0
2,note_on,60,0,120
2,note_on,67,36,0
2,note_on,67,0,120
2,note_on,66,36,0
2,note_on,66,0,120
2,note_on,67,36,0
2,note_on,67,0,120
2,note_on,59,44,0
2,note_on,59,0,120
2,note_on,67,44,0
2,note_on,67,0,120
2,note_on,66,33,0
2,note_on,66,0,120
2,note_on,67,33,0
2,note_on,67,0,120
2,note_on,59,37,0
2,note_on,59,0,120
2,note_on,67,30,0
2,note_on,67,0,120
2,note_on,59,30,0
2,note_on,59,0,120
2,note_on,67,30,0
2,note_on,67,0,120
2,note_on,57,37,0
2,note_on,57,0,120
2,note_on,67,32,0
2,note_on,67,0,120
2,note_on,57,32,0
2,note_on,57,0,120
2,note_on,67,32,0
2,note_on,67,0,120
2,note_on,55,37,0
2,note_on,55,0,120
2,note_on,67,33,0
2,note_on,67,0,120
2,note_on,55,33,0
2,note_on,55,0,120
2,note_on,67,33,0
2,note_on,67,0,120
2,note_on,48,37,0
2,note_on,48,0,120
2,note_on,57,32,0
2,note_on,57,0,120
2,note_on,52,32,0
2,note_on,52,0,120
2,note_on,57,32,0
2,note_on,57,0,120
2,note_on,48,37,0
2,note_on,48,0,120
2,note_on,57,32,0
2,note_on,57,0,120
2,note_on,52,32,0
2,note_on,52,0,120
2,note_on,57,32,0
2,note_on,57,0,120
2,note_on,50,32,0
2,note_on,50,0,120
2,note_on,59,34,0
2,note_on,59,0,120
2,note_on,55,34,0
2,note_on,55,0,120
2,note_on,59,34,0
2,note_on,59,0,120
2,note_on,50,36,0
2,note_on,50,0,120
2,note_on,60,32,0
2,note_on,60,0,120
2,note_on,54,32,0
2,note_on,54,0,120
2,note_on,60,32,0
2,note_on,60,0,120
2,note_on,59,52,0
2,note_on,55,44,0
2,note_on,55,0,480
2,note_on,59,0,0
2,note_on,54,40,240
2,note_on,62,48,0
2,note_on,62,0,120
2,note_on,54,0,0
2,note_on,62,52,120
2,note_on,55,44,0
2,note_on,55,0,480
2,note_on,62,0,0
2,note_on,54,39,240
2,note_on,62,47,0
2,note_on,62,0,120
2,note_on,54,0,0
2,note_on,55,43,120
2,note_on,62,51,0
2,note_on,62,0,480
2,note_on,55,0,0
2,note_on,62,46,240
2,note_on,54,39,0
2,note_on,54,0,120
2,note_on,62,0,0
2,note_on,62,50,120
2,note_on,55,42,0
2,note_on,55,0,120
2,note_on,62,0,0
2,note_on,62,46,120
2,note_on,54,39,0
2,note_on,54,0,120
2,note_on,62,0,0
2,note_on,62,46,120
2,note_on,55,39,0
2,note_on,55,0,120
2,note_on,62,0,0
2,note_on,55,46,120
2,note_on,52,39,0
2,note_on,52,0,120
2,note_on,55,0,0
2,note_on,57,50,120
2,note_on,54,42,0
2,note_on,54,0,480
2,note_on,57,0,0
2,note_on,49,42,240
2,note_on,57,50,0
2,note_on,57,0,120
2,note_on,49,0,0
2,note_on,57,52,120
2,note_on,50,44,0
2,note_on,50,0,480
2,note_on,57,0,0
2,note_on,57,50,240
2,note_on,49,42,0
2,note_on,49,0,120
2,note_on,57,0,0
2,note_on,50,45,120
2,note_on,57,54,0
2,note_on,57,0,480
2,note_on,50,0,0
2,note_on,51,45,240
2,note_on,59,54,0
2,note_on,59,0,120
2,note_on,51,0,0
2,note_on,59,56,120
2,note_on,52,47,0
2,note_on,52,0,480
2,note_on,59,0,0
2,note_on,59,53,240
2,note_on,51,45,0
2,note_on,51,0,120
2,note_on,59,0,0
2,note_on,52,51,120
2,note_on,59,60,0
2,note_on,59,0,480
2,note_on,52,0,0
2,note_on,61,55,240
2,note_on,52,46,0
2,note_on,52,0,120
2,note_on,61,0,0
2,note_on,62,62,120
2,note_on,54,52,0
2,note_on,54,0,480
2,note_on,62,0,0
2,note_on,52,48,240
2,note_on,61,57,0
2,note_on,61,0,120
2,note_on,52,0,0
2,note_on,54,52,120
2,note_on,62,62,0
2,note_on,62,0,480
2,note_on,54,0,0
2,note_on,66,54,240
2,note_on,66,0,120
2,note_on,67,62,120
2,note_on,67,0,120
2,note_on,66,56,120
2,note_on,66,0,120
2,note_on,67,61,120
2,note_on,67,0,120
2,note_on,63,53,120
2,note_on,63,0,120
2,note_on,64,62,120
2,note_on,64,0,120
2,note_on,63,56,120
2,note_on,63,0,120
2,note_on,64,64,120
2,note_on,64,0,120
2,note_on,61,56,120
2,note_on,61,0,120
2,note_on,62,66,120
2,note_on,62,0,120
2,note_on,61,57,120
2,note_on,61,0,120
2,note_on,62,66,120
2,note_on,62,0,120
2,note_on,58,57,120
2,note_on,58,0,120
2,note_on,59,66,120
2,note_on,59,0,120
2,note_on,58,57,120
2,note_on,58,0,120
2,note_on,59,63,120
2,note_on,59,0,120
2,note_on,60,57,120
2,note_on,57,57,0
2,note_on,57,0,120
2,note_on,60,0,0
2,note_on,59,64,120
2,note_on,55,53,0
2,note_on,55,0,480
2,note_on,59,0,0
2,note_on,64,50,480
2,note_on,55,42,0
2,note_on,55,0,120
2,note_on,64,0,0
2,note_on,55,34,120
2,note_on,64,40,0
2,note_on,64,0,120
2,note_on,55,0,0
2,note_on,64,40,120
2,note_on,55,34,0
2,note_on,55,0,120
2,note_on,64,0,0
2,note_on,55,34,120
2,note_on,64,40,0
2,note_on,64,0,120
2,note_on,55,0,0
2,note_on,64,50,120
2,note_on,55,42,0
2,note_on,55,0,120
2,note_on,64,0,0
2,note_on,64,40,120
2,note_on,55,34,0
2,note_on,55,0,120
2,note_on,64,0,0
2,note_on,56,34,120
2,note_on,64,40,0
2,note_on,64,0,120
2,note_on,56,0,0
2,note_on,64,40,120
2,note_on,56,34,0
2,note_on,56,0,120
2,note_on,64,0,0
2,note_on,57,48,120
2,note_on,57,0,240
2,note_on,55,42,0
2,note_on,55,0,240
2,note_on,54,42,0
2,note_on,54,0,120
2,note_on,50,42,120
2,note_on,50,0,120
2,note_on,49,52,120
2,note_on,49,0,240
2,note_on,45,46,0
2,note_on,45,0,240
2,note_on,50,46,0
2,note_on,50,0,120
2,note_on,54,46,120
2,note_on,54,0,120
2,note_on,57,53,120
2,note_on,57,0,240
2,note_on,55,46,0
2,note_on,55,0,240
2,note_on,54,47,0
2,note_on,54,0,120
2,note_on,50,47,120
2,note_on,50,0,120
2,note_on,49,56,120
2,note_on,49,0,240
2,note_on,45,49,0
2,note_on,45,0,240
2,note_on,50,50,0
2,note_on,50,0,120
2,note_on,54,50,120
2,note_on,54,0,120
2,note_on,57,60,120
2,note_on,45,50,0
2,note_on,52,50,0
2,note_on,52,0,240
2,note_on,45,0,0
2,note_on,57,0,0
2,note_on,57,60,240
2,note_on,50,51,0
2,note_on,54,51,0
2,note_on,54,0,240
2,note_on,50,0,0
2,note_on,57,0,0
2,note_on,57,61,240
2,note_on,45,51,0
2,note_on,52,51,0
2,note_on,52,0,240
2,note_on,45,0,0
2,note_on,57,0,0
2,note_on,54,52,240
2,note_on,50,52,0
2,note_on,57,62,0
2,note_on,57,0,240
2,note_on,50,0,0
2,note_on,54,0,0
2,note_on,52,45,480
2,note_on,45,45,0
2,note_on,49,45,0
2,note_on,57,55,0
2,note_on,57,0,90
2,note_on,52,0,0
2,note_on,45,0,0
2,note_on,49,0,0
2,note_on,52,45,150
2,note_on,49,45,0
2,note_on,45,45,0
2,note_on,57,55,0
2,note_on,57,0,90
2,note_on,52,0,0
2,note_on,49,0,0
2,note_on,45,0,0
2,note_on,52,45,150
2,note_on,49,45,0
2,note_on,45,45,0
2,note_on,57,55,0
2,note_on,57,0,90
2,note_on,52,0,0
2,note_on,49,0,0
2,note_on,45,0,0
2,note_on,49,49,150
2,note_on,57,58,0
2,note_on,45,49,0
2,note_on,52,49,0
2,note_on,52,0,420
2,note_on,49,0,0
2,note_on,57,0,0
2,note_on,45,0,0
2,note_on,62,30,540
2,note_on,62,0,240
2,note_on,66,23,0
2,note_on,66,0,240
2,note_on,64,30,0
2,note_on,64,0,240
2,note_on,67,27,0
2,note_on,67,0,240
2,note_on,66,32,0
2,note_on,66,0,240
2,note_on,69,26,0
2,note_on,69,0,240
2,note_on,62,29,0
2,note_on,62,0,240
2,note_on,66,26,0
2,note_on,66,0,240
2,note_on,64,34,0
2,note_on,64,0,240
2,note_on,71,28,0
2,note_on,71,0,240
2,note_on,67,32,0
2,note_on,67,0,240
2,note_on,64,28,0
2,note_on,64,0,240
2,note_on,61,34,0
2,note_on,61,0,240
2,note_on,64,29,0
2,note_on,64,0,240
2,note_on,57,30,0
2,note_on,57,0,240
2,note_on,67,28,0
2,note_on,67,0,240
2,note_on,66,34,0
2,note_on,66,0,240
2,note_on,69,28,0
2,note_on,69,0,240
2,note_on,61,30,0
2,note_on,61,0,240
2,note_on,69,28,0
2,note_on,69,0,240
2,note_on,62,34,0
2,note_on,62,0,240
2,note_on,69,26,0
2,note_on,69,0,240
2,note_on,59,29,0
2,note_on,59,0,240
2,note_on,62,26,0
2,note_on,62,0,240
2,note_on,57,34,0
2,note_on,57,0,240
2,note_on,62,27,0
2,note_on,62,0,240
2,note_on,66,30,0
2,note_on,66,0,240
2,note_on,62,27,0
2,note_on,62,0,240
2,note_on,61,33,0
2,note_on,57,33,0
2,note_on,57,0,480
2,note_on,61,0,0
2,note_on,62,34,480
2,note_on,62,0,240
2,note_on,65,27,0
2,note_on,65,0,240
2,note_on,64,30,0
2,note_on,64,0,240
2,note_on,67,27,0
2,note_on,67,0,240
2,note_on,65,32,0
2,note_on,65,0,240
2,note_on,69,26,0
2,note_on,69,0,120
2,note_on,62,29,120
2,note_on,62,0,240
2,note_on,65,26,0
2,note_on,65,0,120
2,note_on,64,34,120
2,note_on,64,0,240
2,note_on,70,28,0
2,note_on,70,0,240
2,note_on,67,32,0
2,note_on,67,0,240
2,note_on,64,28,0
2,note_on,64,0,240
2,note_on,61,34,0
2,note_on,61,0,240
2,note_on,64,29,0
2,note_on,64,0,120
2,note_on,57,30,120
2,note_on,57,0,240
2,note_on,61,28,0
2,note_on,61,0,120
2,note_on,62,34,120
2,note_on,62,0,240
2,note_on,69,27,0
2,note_on,69,0,240
2,note_on,60,30,0
2,note_on,60,0,240
2,note_on,69,27,0
2,note_on,69,0,240
2,note_on,58,32,0
2,note_on,58,0,240
2,note_on,65,26,0
2,note_on,65,0,240
2,note_on,64,29,0
2,note_on,64,0,240
2,note_on,62,26,0
2,note_on,62,0,240
2,note_on,57,33,0
2,note_on,57,0,240
2,note_on,62,22,0
2,note_on,62,0,240
2,note_on,65,28,0
2,note_on,65,0,240
2,note_on,62,24,0
2,note_on,62,0,240
2,note_on,61,31,0
2,note_on,57,24,0
2,note_on,57,0,240
2,note_on,61,0,0
2,note_on,43,45,0
2,note_on,55,53,0
2,note_on,55,0,120
2,note_on,43,0,0
2,note_on,42,48,120
2,note_on,54,57,0
2,note_on,54,0,120
2,note_on,42,0,0
2,note_on,52,61,120
2,note_on,40,51,0
2,note_on,40,0,120
2,note_on,52,0,0
2,note_on,50,65,120
2,note_on,38,55,0
2,note_on,38,0,480
2,note_on,50,0,0
2,note_on,74,49,240
2,note_on,74,0,120
2,note_on,76,55,120
2,note_on,76,0,120
2,note_on,74,49,120
2,note_on,74,0,120
2,note_on,73,58,120
2,note_on,73,0,120
2,note_on,69,48,120
2,note_on,69,0,120
2,note_on,74,54,120
2,note_on,74,0,480
2,note_on,62,49,240
2,note_on,62,0,120
2,note_on,64,55,120
2,note_on,64,0,120
2,note_on,62,48,120
2,note_on,62,0,120
2,note_on,61,54,120
2,note_on,61,0,120
2,note_on,57,47,120
2,note_on,57,0,120
2,note_on,62,52,120
2,note_on,62,0,120
2,note_on,69,35,0
2,note_on,69,0,120
2,note_on,68,42,0
2,note_on,68,0,120
2,note_on,69,38,0
2,note_on,69,0,120
2,note_on,71,47,0
2,note_on,71,0,120
2,note_on,69,39,0
2,note_on,69,0,120
2,note_on,68,44,0
2,note_on,68,0,120
2,note_on,69,40,0
2,note_on,69,0,120
2,note_on,67,47,0
2,note_on,67,0,120
2,note_on,69,39,0
2,note_on,69,0,120
2,note_on,67,41,0
2,note_on,67,0,120
2,note_on,69,39,0
2,note_on,69,0,120
2,note_on,67,49,0
2,note_on,67,0,120
2,note_on,69,39,0
2,note_on,69,0,120
2,note_on,67,44,0
2,note_on,67,0,120
2,note_on,69,39,0
2,note_on,69,0,120
2,note_on,66,39,0
2,note_on,66,0,120
2,note_on,69,38,0
2,note_on,69,0,120
2,note_on,68,41,0
2,note_on,68,0,120
2,note_on,69,37,0
2,note_on,69,0,120
2,note_on,71,40,0
2,note_on,71,0,120
2,note_on,69,37,0
2,note_on,69,0,120
2,note_on,68,44,0
2,note_on,68,0,120
2,note_on,69,40,0
2,note_on,69,0,120
2,note_on,67,47,0
2,note_on,67,0,120
2,note_on,69,42,0
2,note_on,69,0,120
2,note_on,67,44,0
2,note_on,67,0,120
2,note_on,69,39,0
2,note_on,69,0,120
2,note_on,67,49,0
2,note_on,67,0,120
2,note_on,69,43,0
2,note_on,69,0,120
2,note_on,67,47,0
2,note_on,67,0,120
2,note_on,69,39,0
2,note_on,69,0,120
2,note_on,66,41,0
2,note_on,66,0,480
2,note_on,66,35,0
2,note_on,66,0,120
2,note_on,74,29,0
2,note_on,74,0,120
2,note_on,66,29,0
2,note_on,66,0,120
2,note_on,74,29,0
2,note_on,74,0,120
2,note_on,64,35,0
2,note_on,64,0,120
2,note_on,74,30,0
2,note_on,74,0,120
2,note_on,64,30,0
2,note_on,64,0,120
2,note_on,74,30,0
2,note_on,74,0,120
2,note_on,62,35,0
2,note_on,62,0,120
2,note_on,74,31,0
2,note_on,74,0,120
2,note_on,62,31,0
2,note_on,62,0,120
2,note_on,74,31,0
2,note_on,74,0,120
2,note_on,67,35,0
2,note_on,67,0,120
2,note_on,74,30,0
2,note_on,74,0,120
2,note_on,73,30,0
2,note_on,73,0,120
2,note_on,74,30,0
2,note_on,74,0,120
2,note_on,67,35,0
2,note_on,67,0,120
2,note_on,74,30,0
2,note_on,74,0,120
2,note_on,73,30,0
2,note_on,73,0,120
2,note_on,74,30,0
2,note_on,74,0,120
2,note_on,67,30,0
2,note_on,67,0,120
2,note_on,74,32,0
2,note_on,74,0,120
2,note_on,73,32,0
2,note_on,73,0,120
2,note_on,74,32,0
2,note_on,74,0,120
2,note_on,67,34,0
2,note_on,67,0,120
2,note_on,74,30,0
2,note_on,74,0,120
2,note_on,73,30,0
2,note_on,73,0,120
2,note_on,74,30,0
2,note_on,74,0,120
2,note_on,66,37,0
2,note_on,66,0,120
2,note_on,74,37,0
2,note_on,74,0,120
2,note_on,73,28,0
2,note_on,73,0,120
2,note_on,74,28,0
2,note_on,74,0,120
2,note_on,66,45,0
2,note_on,66,0,120
2,note_on,74,37,0
2,note_on,74,0,120
2,note_on,66,37,0
2,note_on,66,0,120
2,note_on,74,37,0
2,note_on,74,0,120
2,note_on,64,45,0
2,note_on,64,0,120
2,note_on,74,39,0
2,note_on,74,0,120
2,note_on,64,39,0
2,note_on,64,0,120
2,note_on,74,39,0
2,note_on,74,0,120
2,note_on,62,45,0
2,note_on,62,0,120
2,note_on,74,40,0
2,note_on,74,0,120
2,note_on,62,40,0
2,note_on,62,0,120
2,note_on,74,40,0
2,note_on,74,0,120
2,note_on,55,45,0
2,note_on,55,0,120
2,note_on,64,39,0
2,note_on,64,0,120
2,note_on,59,39,0
2,note_on,59,0,120
2,note_on,64,39,0
2,note_on,64,0,120
2,note_on,55,45,0
2,note_on,55,0,120
2,note_on,64,39,0
2,note_on,64,0,120
2,note_on,59,39,0
2,note_on,59,0,120
2,note_on,64,39,0
2,note_on,64,0,120
2,note_on,57,39,0
2,note_on,57,0,120
2,note_on,66,41,0
2,note_on,66,0,120
2,note_on,62,41,0
2,note_on,62,0,120
2,note_on,66,41,0
2,note_on,66,0,120
2,note_on,57,44,0
2,note_on,57,0,120
2,note_on,67,39,0
2,note_on,67,0,120
2,note_on,61,39,0
2,note_on,61,0,120
2,note_on,67,39,0
2,note_on,67,0,120
2,note_on,62,48,0
2,note_on,62,0,120
2,note_on,66,42,0
2,note_on,66,0,120
2,note_on,62,36,0
2,note_on,62,0,120
2,note_on,66,36,0
2,note_on,66,0,120
2,note_on,54,35,0
2,note_on,54,0,120
2,note_on,62,29,0
2,note_on,62,0,120
2,note_on,54,29,0
2,note_on,54,0,120
2,note_on,62,29,0
2,note_on,62,0,120
2,note_on,52,35,0
2,note_on,52,0,120
2,note_on,62,30,0
2,note_on,62,0,120
2,note_on,52,30,0
2,note_on,52,0,120
2,note_on,62,30,0
2,note_on,62,0,120
2,note_on,50,35,0
2,note_on,50,0,120
2,note_on,62,31,0
2,note_on,62,0,120
2,note_on,50,31,0
2,note_on,50,0,120
2,note_on,62,31,0
2,note_on,62,0,120
2,note_on,55,35,0
2,note_on,55,0,120
2,note_on,62,30,0
2,note_on,62,0,120
2,note_on,61,30,0
2,note_on,61,0,120
2,note_on,62,30,0
2,note_on,62,0,120
2,note_on,55,35,0
2,note_on,55,0,120
2,note_on,62,30,0
2,note_on,62,0,120
2,note_on,61,30,0
2,note_on,61,0,120
2,note_on,62,30,0
2,note_on,62,0,120
2,note_on,55,30,0
2,note_on,55,0,120
2,note_on,62,32,0
2,note_on,62,0,120
2,note_on,61,32,0
2,note_on,61,0,120
2,note_on,62,32,0
2,note_on,62,0,120
2,note_on,55,34,0
2,note_on,55,0,120
2,note_on,62,30,0
2,note_on,62,0,120
2,note_on,61,30,0
2,note_on,61,0,120
2,note_on,62,30,0
2,note_on,62,0,120
2,note_on,54,37,0
2,note_on,54,0,120
2,note_on,62,37,0
2,note_on,62,0,120
2,note_on,61,28,0
2,note_on,61,0,120
2,note_on,62,28,0
2,note_on,62,0,120
2,note_on,42,49,0
2,note_on,42,0,120
2,note_on,50,40,0
2,note_on,50,0,120
2,note_on,42,40,0
2,note_on,42,0,120
2,note_on,50,40,0
2,note_on,50,0,120
2,note_on,40,49,0
2,note_on,40,0,120
2,note_on,50,42,0
2,note_on,50,0,120
2,note_on,40,42,0
2,note_on,40,0,120
2,note_on,50,42,0
2,note_on,50,0,120
2,note_on,38,49,0
2,note_on,38,0,120
2,note_on,50,44,0
2,note_on,50,0,120
2,note_on,38,44,0
2,note_on,38,0,120
2,note_on,50,44,0
2,note_on,50,0,120
2,note_on,43,49,0
2,note_on,43,0,120
2,note_on,52,42,0
2,note_on,52,0,120
2,note_on,47,42,0
2,note_on,47,0,120
2,note_on,52,42,0
2,note_on,52,0,120
2,note_on,43,49,0
2,note_on,43,0,120
2,note_on,52,42,0
2,note_on,52,0,120
2,note_on,47,42,0
2,note_on,47,0,120
2,note_on,52,42,0
2,note_on,52,0,120
2,note_on,45,42,0
2,note_on,45,0,120
2,note_on,54,45,0
2,note_on,54,0,120
2,note_on,50,45,0
2,note_on,50,0,120
2,note_on,54,45,0
2,note_on,54,0,120
2,note_on,45,48,0
2,note_on,45,0,120
2,note_on,55,42,0
2,note_on,55,0,120
2,note_on,49,42,0
2,note_on,49,0,120
2,note_on,55,42,0
2,note_on,55,0,120
2,note_on,38,59,0
2,note_on,50,70,0
2,note_on,45,59,0
2,note_on,45,0,480
2,note_on,50,0,0
2,note_on,38,0,0
2,note_on,62,37,480
2,note_on,66,45,0
2,note_on,66,0,480
2,note_on,62,0,0
2,note_on,64,37,0
2,note_on,67,45,0
2,note_on,67,0,480
2,note_on,64,0,0
2,note_on,69,45,0
2,note_on,66,37,0
2,note_on,66,0,480
2,note_on,69,0,0
2,note_on,54,38,1440
2,note_on,54,0,240
2,note_on,62,32,0
2,note_on,62,0,240
2,note_on,50,38,0
2,note_on,50,0,240
2,note_on,62,33,0
2,note_on,62,0,240
2,note_on,52,37,0
2,note_on,52,0,240
2,note_on,62,32,0
2,note_on,62,0,240
2,note_on,57,37,0
2,note_on,57,0,60
2,note_on,61,30,180
2,note_on,61,0,60
2,note_on,62,42,180
2,note_on,50,42,0
2,note_on,50,0,480
2,note_on,62,0,0
2,note_on,62,37,480
2,note_on,66,45,0
2,note_on,66,0,120
2,note_on,62,0,0
2,note_on,62,31,120
2,note_on,66,38,0
2,note_on,66,0,120
2,note_on,62,0,0
2,note_on,64,37,120
2,note_on,67,45,0
2,note_on,67,0,120
2,note_on,64,0,0
2,note_on,67,38,120
2,note_on,64,31,0
2,note_on,64,0,120
2,note_on,67,0,0
2,note_on,66,37,120
2,note_on,69,45,0
2,note_on,69,0,480
2,note_on,66,0,0
2,note_on,54,38,1440
2,note_on,54,0,240
2,note_on,62,32,0
2,note_on,62,0,240
2,note_on,50,38,0
2,note_on,50,0,240
2,note_on,62,33,0
2,note_on,62,0,240
2,note_on,52,37,0
2,note_on,52,0,240
2,note_on,62,32,0
2,note_on,62,0,240
2,note_on,57,37,0
2,note_on,57,0,240
2,note_on,61,32,0
2,note_on,61,0,240
2,note_on,54,47,0
2,note_on,54,0,120
2,note_on,62,39,0
2,note_on,62,0,120
2,note_on,57,39,0
2,note_on,57,0,120
2,note_on,62,39,0
2,note_on,62,0,120
2,note_on,54,48,0
2,note_on,54,0,120
2,note_on,62,40,0
2,note_on,62,0,120
2,note_on,57,40,0
2,note_on,57,0,120
2,note_on,62,40,0
2,note_on,62,0,120
2,note_on,55,48,0
2,note_on,55,0,120
2,note_on,62,40,0
2,note_on,62,0,120
2,note_on,59,40,0
2,note_on,59,0,120
2,note_on,62,40,0
2,note_on,62,0,120
2,note_on,55,49,0
2,note_on,55,0,120
2,note_on,62,40,0
2,note_on,62,0,120
2,note_on,59,40,0
2,note_on,59,0,120
2,note_on,62,40,0
2,note_on,62,0,120
2,note_on,57,47,0
2,note_on,57,0,120
2,note_on,66,38,0
2,note_on,66,0,120
2,note_on,62,38,0
2,note_on,62,0,120
2,note_on,66,38,0
2,note_on,66,0,120
2,note_on,57,48,0
2,note_on,57,0,120
2,note_on,66,40,0
2,note_on,66,0,120
2,note_on,62,40,0
2,note_on,62,0,120
2,note_on,66,40,0
2,note_on,66,0,120
2,note_on,57,48,0
2,note_on,57,0,120
2,note_on,67,39,0
2,note_on,67,0,120
2,note_on,64,39,0
2,note_on,64,0,120
2,note_on,67,39,0
2,note_on,67,0,120
2,note_on,57,49,0
2,note_on,57,0,120
2,note_on,67,40,0
2,note_on,67,0,120
2,note_on,64,40,0
2,note_on,64,0,120
2,note_on,67,40,0
2,note_on,67,0,120
2,note_on,54,47,0
2,note_on,54,0,120
2,note_on,62,39,0
2,note_on,62,0,120
2,note_on,57,41,0
2,note_on,57,0,120
2,note_on,62,42,0
2,note_on,62,0,120
2,note_on,54,48,0
2,note_on,54,0,120
2,note_on,62,41,0
2,note_on,62,0,120
2,note_on,57,42,0
2,note_on,57,0,120
2,note_on,62,44,0
2,note_on,62,0,120
2,note_on,55,52,0
2,note_on,55,0,120
2,note_on,62,43,0
2,note_on,62,0,120
2,note_on,59,43,0
2,note_on,59,0,120
2,note_on,62,43,0
2,note_on,62,0,120
2,note_on,55,49,0
2,note_on,55,0,120
2,note_on,62,40,0
2,note_on,62,0,120
2,note_on,59,40,0
2,note_on,59,0,120
2,note_on,62,40,0
2,note_on,62,0,120
2,note_on,57,47,0
2,note_on,57,0,120
2,note_on,66,37,0
2,note_on,66,0,120
2,note_on,62,37,0
2,note_on,62,0,120
2,note_on,66,37,0
2,note_on,66,0,120
2,note_on,57,48,0
2,note_on,57,0,120
2,note_on,66,39,0
2,note_on,66,0,120
2,note_on,62,39,0
2,note_on,62,0,120
2,note_on,66,39,0
2,note_on,66,0,120
2,note_on,57,47,0
2,note_on,57,0,120
2,note_on,67,37,0
2,note_on,67,0,120
2,note_on,64,37,0
2,note_on,64,0,120
2,note_on,67,37,0
2,note_on,67,0,120
2,note_on,57,48,0
2,note_on,57,0,120
2,note_on,67,38,0
2,note_on,67,0,120
2,note_on,64,38,0
2,note_on,64,0,120
2,note_on,67,38,0
2,note_on,67,0,120
2,note_on,62,45,0
2,note_on,66,54,0
2,note_on,66,0,480
2,note_on,62,0,0
2,note_on,57,46,240
2,note_on,64,55,0
2,note_on,64,0,120
2,note_on,57,0,0
2,note_on,62,45,120
2,note_on,66,54,0
2,note_on,66,0,480
2,note_on,62,0,0
2,note_on,57,46,240
2,note_on,64,55,0
2,note_on,64,0,120
2,note_on,57,0,0
2,note_on,66,63,120
2,note_on,62,52,0
2,note_on,62,0,240
2,note_on,66,0,0
2,note_on,46,52,240
2,note_on,58,63,0
2,note_on,58,0,240
2,note_on,46,0,0
2,note_on,47,52,240
2,note_on,59,63,0
2,note_on,59,0,240
2,note_on,47,0,0
2,note_on,43,40,720
2,note_on,55,40,0
2,note_on,55,0,960
2,note_on,43,0,0
2,note_on,45,40,0
2,note_on,57,40,0
2,note_on,57,0,960
2,note_on,45,0,0
2,note_on,50,39,0
2,note_on,50,0,480
2,note_on,45,39,0
2,note_on,45,0,480
2,note_on,38,35,0
2,note_on,38,0,480
