Track,Message Type,Note,Velocity,Time
1,note_on,72,60,0
1,note_on,72,0,960
1,note_on,76,60,0
1,note_on,76,0,480
1,note_on,79,60,0
1,note_on,79,0,480
1,note_on,71,60,0
1,note_on,71,0,720
1,note_on,72,55,0
1,note_on,72,0,120
1,note_on,74,51,0
1,note_on,74,0,120
1,note_on,72,60,0
1,note_on,72,0,480
1,note_on,81,64,480
1,note_on,81,0,960
1,note_on,79,62,0
1,note_on,79,0,480
1,note_on,84,64,0
1,note_on,84,0,480
1,note_on,79,64,0
1,note_on,79,0,480
1,note_on,77,55,0
1,note_on,77,0,80
1,note_on,79,55,0
1,note_on,79,0,80
1,note_on,77,55,0
1,note_on,77,0,80
1,note_on,76,59,0
1,note_on,76,0,120
1,note_on,77,55,0
1,note_on,77,0,120
1,note_on,76,60,0
1,note_on,76,0,480
1,note_on,69,60,480
1,note_on,69,0,240
1,note_on,71,53,0
1,note_on,72,54,120
1,note_on,71,0,12
1,note_on,74,55,108
1,note_on,72,0,12
1,note_on,76,57,108
1,note_on,74,0,12
1,note_on,77,58,108
1,note_on,76,0,12
1,note_on,79,59,108
1,note_on,77,0,12
1,note_on,81,62,108
1,note_on,79,0,12
1,note_on,79,61,108
1,note_on,81,0,12
1,note_on,77,60,108
1,note_on,79,0,12
1,note_on,76,59,108
1,note_on,77,0,12
1,note_on,74,58,108
1,note_on,76,0,12
1,note_on,72,57,108
1,note_on,74,0,12
1,note_on,71,55,108
1,note_on,72,0,12
1,note_on,69,53,108
1,note_on,71,0,12
1,note_on,67,60,108
1,note_on,69,0,12
1,note_on,67,0,228
1,note_on,69,53,0
1,note_on,71,54,120
1,note_on,69,0,12
1,note_on,72,55,108
1,note_on,71,0,12
1,note_on,74,57,108
1,note_on,72,0,12
1,note_on,76,58,108
1,note_on,74,0,12
1,note_on,77,59,108
1,note_on,76,0,12
1,note_on,79,62,108
1,note_on,77,0,12
1,note_on,77,61,108
1,note_on,79,0,12
1,note_on,76,60,108
1,note_on,77,0,12
1,note_on,74,59,108
1,note_on,76,0,12
1,note_on,72,58,108
1,note_on,74,0,12
1,note_on,71,57,108
1,note_on,72,0,12
1,note_on,69,55,108
1,note_on,71,0,12
1,note_on,67,53,108
1,note_on,69,0,12
1,note_on,65,60,108
1,note_on,67,0,12
1,note_on,65,0,228
1,note_on,67,53,0
1,note_on,69,54,120
1,note_on,67,0,12
1,note_on,71,55,108
1,note_on,69,0,12
1,note_on,72,57,108
1,note_on,71,0,12
1,note_on,74,58,108
1,note_on,72,0,12
1,note_on,76,59,108
1,note_on,74,0,12
1,note_on,77,62,108
1,note_on,76,0,12
1,note_on,76,61,108
1,note_on,77,0,12
1,note_on,74,60,108
1,note_on,76,0,12
1,note_on,72,59,108
1,note_on,74,0,12
1,note_on,71,58,108
1,note_on,72,0,12
1,note_on,69,57,108
1,note_on,71,0,12
1,note_on,67,55,108
1,note_on,69,0,12
1,note_on,65,53,108
1,note_on,67,0,12
1,note_on,64,60,108
1,note_on,65,0,12
1,note_on,64,0,228
1,note_on,65,53,0
1,note_on,67,54,120
1,note_on,65,0,12
1,note_on,69,55,108
1,note_on,67,0,12
1,note_on,71,57,108
1,note_on,69,0,12
1,note_on,72,58,108
1,note_on,71,0,12
1,note_on,74,59,108
1,note_on,72,0,12
1,note_on,76,62,108
1,note_on,74,0,12
1,note_on,74,61,108
1,note_on,76,0,12
1,note_on,72,60,108
1,note_on,74,0,12
1,note_on,71,59,108
1,note_on,72,0,12
1,note_on,69,58,108
1,note_on,71,0,12
1,note_on,67,57,108
1,note_on,69,0,12
1,note_on,65,55,108
1,note_on,67,0,12
1,note_on,64,53,108
1,note_on,65,0,12
1,note_on,62,60,108
1,note_on,64,0,12
1,note_on,62,0,228
1,note_on,64,53,0
1,note_on,65,54,120
1,note_on,64,0,12
1,note_on,67,55,108
1,note_on,65,0,12
1,note_on,69,57,108
1,note_on,67,0,12
1,note_on,71,58,108
1,note_on,69,0,12
1,note_on,73,59,108
1,note_on,71,0,12
1,note_on,74,62,108
1,note_on,73,0,12
1,note_on,74,0,108
1,note_on,69,58,0
1,note_on,71,61,120
1,note_on,69,0,12
1,note_on,73,64,108
1,note_on,71,0,12
1,note_on,74,66,108
1,note_on,73,0,12
1,note_on,76,67,108
1,note_on,74,0,12
1,note_on,77,68,108
1,note_on,76,0,12
1,note_on,79,69,108
1,note_on,77,0,12
1,note_on,81,70,108
1,note_on,79,0,12
1,note_on,83,69,108
1,note_on,81,0,12
1,note_on,84,71,108
1,note_on,83,0,12
1,note_on,83,69,108
1,note_on,84,0,12
1,note_on,81,67,108
1,note_on,83,0,12
1,note_on,79,65,108
1,note_on,81,0,12
1,note_on,77,63,108
1,note_on,79,0,12
1,note_on,76,66,108
1,note_on,77,0,12
1,note_on,76,0,108
1,note_on,77,65,0
1,note_on,79,66,120
1,note_on,77,0,12
1,note_on,81,67,108
1,note_on,79,0,12
1,note_on,79,67,108
1,note_on,81,0,12
1,note_on,77,68,108
1,note_on,79,0,12
1,note_on,76,71,108
1,note_on,77,0,12
1,note_on,74,73,108
1,note_on,76,0,12
1,note_on,72,76,108
1,note_on,74,0,12
1,note_on,71,78,108
1,note_on,72,0,12
1,note_on,71,0,108
1,note_on,79,71,120
1,note_on,79,0,120
1,note_on,76,71,120
1,note_on,76,0,120
1,note_on,72,71,120
1,note_on,72,0,120
1,note_on,74,78,120
1,note_on,74,0,120
1,note_on,79,71,120
1,note_on,79,0,120
1,note_on,76,71,120
1,note_on,76,0,120
1,note_on,72,71,120
1,note_on,72,0,120
1,note_on,74,81,120
1,note_on,74,0,120
1,note_on,71,71,360
1,note_on,74,71,0
1,note_on,79,71,0
1,note_on,79,0,120
1,note_on,74,0,0
1,note_on,71,0,0
1,note_on,67,83,360
1,note_on,67,0,480
1,note_on,86,61,2400
1,note_on,86,0,240
1,note_on,83,55,0
1,note_on,83,0,240
1,note_on,79,61,0
1,note_on,79,0,720
1,note_on,81,53,0
1,note_on,81,0,120
1,note_on,83,51,0
1,note_on,83,0,120
1,note_on,81,55,0
1,note_on,81,0,240
1,note_on,79,53,0
1,note_on,79,0,120
1,note_on,79,55,120
1,note_on,79,0,60
1,note_on,81,51,0
1,note_on,81,0,60
1,note_on,79,56,0
1,note_on,79,0,60
1,note_on,81,51,0
1,note_on,81,0,60
1,note_on,79,58,0
1,note_on,79,0,120
1,note_on,78,52,0
1,note_on,78,0,110
1,note_on,78,58,10
1,note_on,78,0,480
1,note_on,86,61,960
1,note_on,86,0,240
1,note_on,83,55,0
1,note_on,83,0,240
1,note_on,79,61,0
1,note_on,79,0,720
1,note_on,81,53,0
1,note_on,81,0,120
1,note_on,83,51,0
1,note_on,83,0,120
1,note_on,81,55,0
1,note_on,81,0,240
1,note_on,79,53,0
1,note_on,79,0,120
1,note_on,79,55,120
1,note_on,79,0,60
1,note_on,81,51,0
1,note_on,81,0,60
1,note_on,79,56,0
1,note_on,79,0,60
1,note_on,81,50,0
1,note_on,81,0,60
1,note_on,79,55,0
1,note_on,79,0,120
1,note_on,78,52,0
1,note_on,78,0,90
1,note_on,78,58,30
1,note_on,78,0,480
1,note_on,86,69,960
1,note_on,86,0,480
1,note_on,86,61,120
1,note_on,86,0,120
1,note_on,83,66,0
1,note_on,83,0,120
1,note_on,79,61,0
1,note_on,79,0,120
1,note_on,76,68,0
1,note_on,76,0,480
1,note_on,76,61,120
1,note_on,76,0,120
1,note_on,79,66,0
1,note_on,79,0,120
1,note_on,76,61,0
1,note_on,76,0,120
1,note_on,84,69,0
1,note_on,84,0,480
1,note_on,84,61,120
1,note_on,84,0,120
1,note_on,81,66,0
1,note_on,81,0,120
1,note_on,78,61,0
1,note_on,78,0,120
1,note_on,74,68,0
1,note_on,74,0,480
1,note_on,74,61,120
1,note_on,74,0,120
1,note_on,78,66,0
1,note_on,78,0,120
1,note_on,74,61,0
1,note_on,74,0,120
1,note_on,83,68,0
1,note_on,83,0,480
1,note_on,83,61,120
1,note_on,83,0,120
1,note_on,79,66,0
1,note_on,79,0,120
1,note_on,76,61,0
1,note_on,76,0,120
1,note_on,72,68,0
1,note_on,72,0,480
1,note_on,72,61,120
1,note_on,72,0,120
1,note_on,76,66,0
1,note_on,76,0,120
1,note_on,72,61,0
1,note_on,72,0,120
1,note_on,81,68,0
1,note_on,81,0,480
1,note_on,81,61,120
1,note_on,81,0,120
1,note_on,78,66,0
1,note_on,78,0,120
1,note_on,72,61,0
1,note_on,72,0,120
1,note_on,71,68,0
1,note_on,71,0,480
1,note_on,79,61,120
1,note_on,79,0,120
1,note_on,74,66,0
1,note_on,74,0,120
1,note_on,71,61,0
1,note_on,71,0,120
1,note_on,69,66,0
1,note_on,69,0,900
1,note_on,71,64,0
1,note_on,71,0,60
1,note_on,72,69,0
1,note_on,72,0,420
1,note_on,75,65,0
1,note_on,75,0,60
1,note_on,76,72,0
1,note_on,76,0,420
1,note_on,80,65,0
1,note_on,80,0,60
1,note_on,81,71,0
1,note_on,81,0,720
1,note_on,83,66,0
1,note_on,83,0,60
1,note_on,81,66,0
1,note_on,81,0,60
1,note_on,80,66,0
1,note_on,80,0,60
1,note_on,81,66,0
1,note_on,81,0,60
1,note_on,84,74,0
1,note_on,84,0,240
1,note_on,81,68,0
1,note_on,81,0,240
1,note_on,84,75,0
1,note_on,84,0,240
1,note_on,81,69,0
1,note_on,81,0,240
1,note_on,83,78,0
1,note_on,83,0,240
1,note_on,79,73,0
1,note_on,79,0,240
1,note_on,86,79,0
1,note_on,86,0,960
1,note_on,84,70,0
1,note_on,84,0,120
1,note_on,83,68,0
1,note_on,83,0,120
1,note_on,81,67,0
1,note_on,81,0,120
1,note_on,79,65,0
1,note_on,79,0,120
1,note_on,81,49,0
1,note_on,81,0,60
1,note_on,83,38,0
1,note_on,83,0,60
1,note_on,81,49,0
1,note_on,81,0,60
1,note_on,83,40,0
1,note_on,83,0,60
1,note_on,81,50,0
1,note_on,81,0,60
1,note_on,83,40,0
1,note_on,83,0,60
1,note_on,81,50,0
1,note_on,81,0,60
1,note_on,83,40,0
1,note_on,83,0,60
1,note_on,81,52,0
1,note_on,81,0,60
1,note_on,83,40,0
1,note_on,83,0,60
1,note_on,81,52,0
1,note_on,81,0,60
1,note_on,83,41,0
1,note_on,83,0,60
1,note_on,81,53,0
1,note_on,81,0,60
1,note_on,83,41,0
1,note_on,83,0,60
1,note_on,81,53,0
1,note_on,81,0,60
1,note_on,83,42,0
1,note_on,83,0,60
1,note_on,81,54,0
1,note_on,81,0,60
1,note_on,83,43,0
1,note_on,83,0,60
1,note_on,81,54,0
1,note_on,81,0,60
1,note_on,83,45,0
1,note_on,83,0,60
1,note_on,81,54,0
1,note_on,81,0,60
1,note_on,83,44,0
1,note_on,83,0,60
1,note_on,81,54,0
1,note_on,81,0,60
1,note_on,83,44,0
1,note_on,83,0,60
1,note_on,81,53,0
1,note_on,81,0,60
1,note_on,83,45,0
1,note_on,83,0,60
1,note_on,81,53,0
1,note_on,81,0,60
1,note_on,83,42,0
1,note_on,83,0,60
1,note_on,81,53,0
1,note_on,81,0,80
1,note_on,79,59,0
1,note_on,79,0,80
1,note_on,81,58,0
1,note_on,81,0,80
1,note_on,79,69,0
1,note_on,79,0,480
1,note_on,79,67,0
1,note_on,79,0,120
1,note_on,74,59,0
1,note_on,74,0,120
1,note_on,79,62,0
1,note_on,79,0,120
1,note_on,83,65,0
1,note_on,83,0,120
1,note_on,86,68,0
1,note_on,86,0,120
1,note_on,83,63,0
1,note_on,83,0,120
1,note_on,79,68,0
1,note_on,79,0,120
1,note_on,83,63,0
1,note_on,83,0,120
1,note_on,84,69,0
1,note_on,84,0,120
1,note_on,81,63,0
1,note_on,81,0,120
1,note_on,78,69,0
1,note_on,78,0,120
1,note_on,81,63,0
1,note_on,81,0,120
1,note_on,79,69,0
1,note_on,79,0,480
1,note_on,67,67,0
1,note_on,67,0,120
1,note_on,62,59,0
1,note_on,62,0,120
1,note_on,67,62,0
1,note_on,67,0,120
1,note_on,71,65,0
1,note_on,71,0,120
1,note_on,74,68,0
1,note_on,74,0,120
1,note_on,71,63,0
1,note_on,71,0,120
1,note_on,67,68,0
1,note_on,67,0,120
1,note_on,71,63,0
1,note_on,71,0,120
1,note_on,72,69,0
1,note_on,72,0,120
1,note_on,69,63,0
1,note_on,69,0,120
1,note_on,66,69,0
1,note_on,66,0,120
1,note_on,69,63,0
1,note_on,69,0,120
1,note_on,67,74,0
1,note_on,67,0,120
1,note_on,74,65,360
1,note_on,83,77,0
1,note_on,83,0,120
1,note_on,74,0,0
1,note_on,71,62,360
1,note_on,79,74,0
1,note_on,79,0,480
1,note_on,71,0,0
1,note_on,72,60,480
1,note_on,72,0,960
1,note_on,76,60,0
1,note_on,76,0,480
1,note_on,79,60,0
1,note_on,79,0,480
1,note_on,71,60,0
1,note_on,71,0,720
1,note_on,72,55,0
1,note_on,72,0,120
1,note_on,74,51,0
1,note_on,74,0,120
1,note_on,72,60,0
1,note_on,72,0,480
1,note_on,81,64,480
1,note_on,81,0,960
1,note_on,79,62,0
1,note_on,79,0,480
1,note_on,84,64,0
1,note_on,84,0,480
1,note_on,79,64,0
1,note_on,79,0,480
1,note_on,77,55,0
1,note_on,77,0,80
1,note_on,79,55,0
1,note_on,79,0,80
1,note_on,77,55,0
1,note_on,77,0,80
1,note_on,76,59,0
1,note_on,76,0,120
1,note_on,77,55,0
1,note_on,77,0,120
1,note_on,76,60,0
1,note_on,76,0,480
1,note_on,69,60,480
1,note_on,69,0,240
1,note_on,71,53,0
1,note_on,72,54,120
1,note_on,71,0,12
1,note_on,74,55,108
1,note_on,72,0,12
1,note_on,76,57,108
1,note_on,74,0,12
1,note_on,77,58,108
1,note_on,76,0,12
1,note_on,79,59,108
1,note_on,77,0,12
1,note_on,81,62,108
1,note_on,79,0,12
1,note_on,79,61,108
1,note_on,81,0,12
1,note_on,77,60,108
1,note_on,79,0,12
1,note_on,76,59,108
1,note_on,77,0,12
1,note_on,74,58,108
1,note_on,76,0,12
1,note_on,72,57,108
1,note_on,74,0,12
1,note_on,71,55,108
1,note_on,72,0,12
1,note_on,69,53,108
1,note_on,71,0,12
1,note_on,67,60,108
1,note_on,69,0,12
1,note_on,67,0,228
1,note_on,69,53,0
1,note_on,71,54,120
1,note_on,69,0,12
1,note_on,72,55,108
1,note_on,71,0,12
1,note_on,74,57,108
1,note_on,72,0,12
1,note_on,76,58,108
1,note_on,74,0,12
1,note_on,77,59,108
1,note_on,76,0,12
1,note_on,79,62,108
1,note_on,77,0,12
1,note_on,77,61,108
1,note_on,79,0,12
1,note_on,76,60,108
1,note_on,77,0,12
1,note_on,74,59,108
1,note_on,76,0,12
1,note_on,72,58,108
1,note_on,74,0,12
1,note_on,71,57,108
1,note_on,72,0,12
1,note_on,69,55,108
1,note_on,71,0,12
1,note_on,67,53,108
1,note_on,69,0,12
1,note_on,65,60,108
1,note_on,67,0,12
1,note_on,65,0,228
1,note_on,67,53,0
1,note_on,69,54,120
1,note_on,67,0,12
1,note_on,71,55,108
1,note_on,69,0,12
1,note_on,72,57,108
1,note_on,71,0,12
1,note_on,74,58,108
1,note_on,72,0,12
1,note_on,76,59,108
1,note_on,74,0,12
1,note_on,77,62,108
1,note_on,76,0,12
1,note_on,76,61,108
1,note_on,77,0,12
1,note_on,74,60,108
1,note_on,76,0,12
1,note_on,72,59,108
1,note_on,74,0,12
1,note_on,71,58,108
1,note_on,72,0,12
1,note_on,69,57,108
1,note_on,71,0,12
1,note_on,67,55,108
1,note_on,69,0,12
1,note_on,65,53,108
1,note_on,67,0,12
1,note_on,64,60,108
1,note_on,65,0,12
1,note_on,64,0,228
1,note_on,65,53,0
1,note_on,67,54,120
1,note_on,65,0,12
1,note_on,69,55,108
1,note_on,67,0,12
1,note_on,71,57,108
1,note_on,69,0,12
1,note_on,72,58,108
1,note_on,71,0,12
1,note_on,74,59,108
1,note_on,72,0,12
1,note_on,76,62,108
1,note_on,74,0,12
1,note_on,74,61,108
1,note_on,76,0,12
1,note_on,72,60,108
1,note_on,74,0,12
1,note_on,71,59,108
1,note_on,72,0,12
1,note_on,69,58,108
1,note_on,71,0,12
1,note_on,67,57,108
1,note_on,69,0,12
1,note_on,65,55,108
1,note_on,67,0,12
1,note_on,64,53,108
1,note_on,65,0,12
1,note_on,62,60,108
1,note_on,64,0,12
1,note_on,62,0,228
1,note_on,64,53,0
1,note_on,65,54,120
1,note_on,64,0,12
1,note_on,67,55,108
1,note_on,65,0,12
1,note_on,69,57,108
1,note_on,67,0,12
1,note_on,71,58,108
1,note_on,69,0,12
1,note_on,73,59,108
1,note_on,71,0,12
1,note_on,74,62,108
1,note_on,73,0,12
1,note_on,74,0,108
1,note_on,69,58,0
1,note_on,71,61,120
1,note_on,69,0,12
1,note_on,73,64,108
1,note_on,71,0,12
1,note_on,74,66,108
1,note_on,73,0,12
1,note_on,76,67,108
1,note_on,74,0,12
1,note_on,77,68,108
1,note_on,76,0,12
1,note_on,79,69,108
1,note_on,77,0,12
1,note_on,81,70,108
1,note_on,79,0,12
1,note_on,83,69,108
1,note_on,81,0,12
1,note_on,84,71,108
1,note_on,83,0,12
1,note_on,83,69,108
1,note_on,84,0,12
1,note_on,81,67,108
1,note_on,83,0,12
1,note_on,79,65,108
1,note_on,81,0,12
1,note_on,77,63,108
1,note_on,79,0,12
1,note_on,76,66,108
1,note_on,77,0,12
1,note_on,76,0,108
1,note_on,77,65,0
1,note_on,79,66,120
1,note_on,77,0,12
1,note_on,81,67,108
1,note_on,79,0,12
1,note_on,79,67,108
1,note_on,81,0,12
1,note_on,77,68,108
1,note_on,79,0,12
1,note_on,76,71,108
1,note_on,77,0,12
1,note_on,74,73,108
1,note_on,76,0,12
1,note_on,72,76,108
1,note_on,74,0,12
1,note_on,71,78,108
1,note_on,72,0,12
1,note_on,71,0,108
1,note_on,79,71,120
1,note_on,79,0,120
1,note_on,76,71,120
1,note_on,76,0,120
1,note_on,72,71,120
1,note_on,72,0,120
1,note_on,74,78,120
1,note_on,74,0,120
1,note_on,79,71,120
1,note_on,79,0,120
1,note_on,76,71,120
1,note_on,76,0,120
1,note_on,72,71,120
1,note_on,72,0,120
1,note_on,74,81,120
1,note_on,74,0,120
1,note_on,71,71,360
1,note_on,79,71,0
1,note_on,74,71,0
1,note_on,74,0,120
1,note_on,79,0,0
1,note_on,71,0,0
1,note_on,67,83,360
1,note_on,67,0,480
1,note_on,86,61,2400
1,note_on,86,0,240
1,note_on,83,55,0
1,note_on,83,0,240
1,note_on,79,61,0
1,note_on,79,0,720
1,note_on,81,53,0
1,note_on,81,0,120
1,note_on,83,51,0
1,note_on,83,0,120
1,note_on,81,55,0
1,note_on,81,0,240
1,note_on,79,53,0
1,note_on,79,0,120
1,note_on,79,55,120
1,note_on,79,0,60
1,note_on,81,51,0
1,note_on,81,0,60
1,note_on,79,56,0
1,note_on,79,0,60
1,note_on,81,51,0
1,note_on,81,0,60
1,note_on,79,58,0
1,note_on,79,0,120
1,note_on,78,52,0
1,note_on,78,0,110
1,note_on,78,58,10
1,note_on,78,0,480
1,note_on,86,61,960
1,note_on,86,0,240
1,note_on,83,55,0
1,note_on,83,0,240
1,note_on,79,61,0
1,note_on,79,0,720
1,note_on,81,53,0
1,note_on,81,0,120
1,note_on,83,51,0
1,note_on,83,0,120
1,note_on,81,55,0
1,note_on,81,0,240
1,note_on,79,53,0
1,note_on,79,0,120
1,note_on,79,55,120
1,note_on,79,0,60
1,note_on,81,51,0
1,note_on,81,0,60
1,note_on,79,56,0
1,note_on,79,0,60
1,note_on,81,50,0
1,note_on,81,0,60
1,note_on,79,55,0
1,note_on,79,0,120
1,note_on,78,52,0
1,note_on,78,0,90
1,note_on,78,58,30
1,note_on,78,0,480
1,note_on,86,69,960
1,note_on,86,0,480
1,note_on,86,61,120
1,note_on,86,0,120
1,note_on,83,66,0
1,note_on,83,0,120
1,note_on,79,61,0
1,note_on,79,0,120
1,note_on,76,68,0
1,note_on,76,0,480
1,note_on,76,61,120
1,note_on,76,0,120
1,note_on,79,66,0
1,note_on,79,0,120
1,note_on,76,61,0
1,note_on,76,0,120
1,note_on,84,69,0
1,note_on,84,0,480
1,note_on,84,61,120
1,note_on,84,0,120
1,note_on,81,66,0
1,note_on,81,0,120
1,note_on,78,61,0
1,note_on,78,0,120
1,note_on,74,68,0
1,note_on,74,0,480
1,note_on,74,61,120
1,note_on,74,0,120
1,note_on,78,66,0
1,note_on,78,0,120
1,note_on,74,61,0
1,note_on,74,0,120
1,note_on,83,68,0
1,note_on,83,0,480
1,note_on,83,61,120
1,note_on,83,0,120
1,note_on,79,66,0
1,note_on,79,0,120
1,note_on,76,61,0
1,note_on,76,0,120
1,note_on,72,68,0
1,note_on,72,0,480
1,note_on,72,61,120
1,note_on,72,0,120
1,note_on,76,66,0
1,note_on,76,0,120
1,note_on,72,61,0
1,note_on,72,0,120
1,note_on,81,68,0
1,note_on,81,0,480
1,note_on,81,61,120
1,note_on,81,0,120
1,note_on,78,66,0
1,note_on,78,0,120
1,note_on,72,61,0
1,note_on,72,0,120
1,note_on,71,68,0
1,note_on,71,0,480
1,note_on,79,61,120
1,note_on,79,0,120
1,note_on,74,66,0
1,note_on,74,0,120
1,note_on,71,61,0
1,note_on,71,0,120
1,note_on,69,66,0
1,note_on,69,0,900
1,note_on,71,64,0
1,note_on,71,0,60
1,note_on,72,69,0
1,note_on,72,0,420
1,note_on,75,65,0
1,note_on,75,0,60
1,note_on,76,72,0
1,note_on,76,0,420
1,note_on,80,65,0
1,note_on,80,0,60
1,note_on,81,71,0
1,note_on,81,0,720
1,note_on,83,66,0
1,note_on,83,0,60
1,note_on,81,66,0
1,note_on,81,0,60
1,note_on,80,66,0
1,note_on,80,0,60
1,note_on,81,66,0
1,note_on,81,0,60
1,note_on,84,74,0
1,note_on,84,0,240
1,note_on,81,68,0
1,note_on,81,0,240
1,note_on,84,75,0
1,note_on,84,0,240
1,note_on,81,69,0
1,note_on,81,0,240
1,note_on,83,78,0
1,note_on,83,0,240
1,note_on,79,73,0
1,note_on,79,0,240
1,note_on,86,79,0
1,note_on,86,0,960
1,note_on,84,70,0
1,note_on,84,0,120
1,note_on,83,68,0
1,note_on,83,0,120
1,note_on,81,67,0
1,note_on,81,0,120
1,note_on,79,65,0
1,note_on,79,0,120
1,note_on,81,49,0
1,note_on,81,0,60
1,note_on,83,38,0
1,note_on,83,0,60
1,note_on,81,49,0
1,note_on,81,0,60
1,note_on,83,40,0
1,note_on,83,0,60
1,note_on,81,50,0
1,note_on,81,0,60
1,note_on,83,40,0
1,note_on,83,0,60
1,note_on,81,50,0
1,note_on,81,0,60
1,note_on,83,40,0
1,note_on,83,0,60
1,note_on,81,52,0
1,note_on,81,0,60
1,note_on,83,40,0
1,note_on,83,0,60
1,note_on,81,52,0
1,note_on,81,0,60
1,note_on,83,41,0
1,note_on,83,0,60
1,note_on,81,53,0
1,note_on,81,0,60
1,note_on,83,41,0
1,note_on,83,0,60
1,note_on,81,53,0
1,note_on,81,0,60
1,note_on,83,42,0
1,note_on,83,0,60
1,note_on,81,54,0
1,note_on,81,0,60
1,note_on,83,43,0
1,note_on,83,0,60
1,note_on,81,54,0
1,note_on,81,0,60
1,note_on,83,45,0
1,note_on,83,0,60
1,note_on,81,54,0
1,note_on,81,0,60
1,note_on,83,44,0
1,note_on,83,0,60
1,note_on,81,54,0
1,note_on,81,0,60
1,note_on,83,44,0
1,note_on,83,0,60
1,note_on,81,53,0
1,note_on,81,0,60
1,note_on,83,45,0
1,note_on,83,0,60
1,note_on,81,53,0
1,note_on,81,0,60
1,note_on,83,42,0
1,note_on,83,0,60
1,note_on,81,53,0
1,note_on,81,0,80
1,note_on,79,59,0
1,note_on,79,0,80
1,note_on,81,58,0
1,note_on,81,0,80
1,note_on,79,69,0
1,note_on,79,0,480
1,note_on,79,67,0
1,note_on,79,0,120
1,note_on,74,59,0
1,note_on,74,0,120
1,note_on,79,62,0
1,note_on,79,0,120
1,note_on,83,65,0
1,note_on,83,0,120
1,note_on,86,68,0
1,note_on,86,0,120
1,note_on,83,63,0
1,note_on,83,0,120
1,note_on,79,68,0
1,note_on,79,0,120
1,note_on,83,63,0
1,note_on,83,0,120
1,note_on,84,69,0
1,note_on,84,0,120
1,note_on,81,63,0
1,note_on,81,0,120
1,note_on,78,69,0
1,note_on,78,0,120
1,note_on,81,63,0
1,note_on,81,0,120
1,note_on,79,69,0
1,note_on,79,0,480
1,note_on,67,67,0
1,note_on,67,0,120
1,note_on,62,59,0
1,note_on,62,0,120
1,note_on,67,62,0
1,note_on,67,0,120
1,note_on,71,65,0
1,note_on,71,0,120
1,note_on,74,68,0
1,note_on,74,0,120
1,note_on,71,63,0
1,note_on,71,0,120
1,note_on,67,68,0
1,note_on,67,0,120
1,note_on,71,63,0
1,note_on,71,0,120
1,note_on,72,69,0
1,note_on,72,0,120
1,note_on,69,63,0
1,note_on,69,0,120
1,note_on,66,69,0
1,note_on,66,0,120
1,note_on,69,63,0
1,note_on,69,0,120
1,note_on,67,74,0
1,note_on,67,0,120
1,note_on,74,65,360
1,note_on,83,77,0
1,note_on,83,0,120
1,note_on,74,0,0
1,note_on,71,62,360
1,note_on,79,74,0
1,note_on,79,0,480
1,note_on,71,0,0
1,note_on,67,69,480
1,note_on,67,0,480
1,note_on,79,67,0
1,note_on,79,0,120
1,note_on,74,59,0
1,note_on,74,0,120
1,note_on,79,62,0
1,note_on,79,0,120
1,note_on,82,65,0
1,note_on,82,0,120
1,note_on,86,68,0
1,note_on,86,0,120
1,note_on,82,63,0
1,note_on,82,0,120
1,note_on,79,68,0
1,note_on,79,0,120
1,note_on,82,63,0
1,note_on,82,0,120
1,note_on,84,69,0
1,note_on,84,0,120
1,note_on,81,63,0
1,note_on,81,0,120
1,note_on,78,69,0
1,note_on,78,0,120
1,note_on,81,63,0
1,note_on,81,0,120
1,note_on,79,69,0
1,note_on,79,0,480
1,note_on,67,67,0
1,note_on,67,0,120
1,note_on,62,59,0
1,note_on,62,0,120
1,note_on,67,62,0
1,note_on,67,0,120
1,note_on,70,65,0
1,note_on,70,0,120
1,note_on,74,68,0
1,note_on,74,0,120
1,note_on,70,63,0
1,note_on,70,0,120
1,note_on,67,68,0
1,note_on,67,0,120
1,note_on,70,63,0
1,note_on,70,0,120
1,note_on,72,69,0
1,note_on,72,0,120
1,note_on,69,63,0
1,note_on,69,0,120
1,note_on,66,69,0
1,note_on,66,0,120
1,note_on,69,63,0
1,note_on,69,0,120
1,note_on,67,74,0
1,note_on,67,0,480
1,note_on,79,68,600
1,note_on,82,72,120
1,note_on,79,0,12
1,note_on,81,70,108
1,note_on,82,0,12
1,note_on,79,68,108
1,note_on,81,0,12
1,note_on,77,67,108
1,note_on,79,0,12
1,note_on,76,65,108
1,note_on,77,0,12
1,note_on,74,64,108
1,note_on,76,0,12
1,note_on,73,70,108
1,note_on,74,0,12
1,note_on,73,0,468
1,note_on,85,75,600
1,note_on,88,79,120
1,note_on,85,0,12
1,note_on,86,77,108
1,note_on,88,0,12
1,note_on,85,74,108
1,note_on,86,0,12
1,note_on,82,72,108
1,note_on,85,0,12
1,note_on,81,70,108
1,note_on,82,0,12
1,note_on,79,72,108
1,note_on,81,0,12
1,note_on,77,85,108
1,note_on,79,0,12
1,note_on,77,0,468
1,note_on,74,73,0
1,note_on,74,0,120
1,note_on,69,64,0
1,note_on,69,0,120
1,note_on,74,68,0
1,note_on,74,0,120
1,note_on,77,71,0
1,note_on,77,0,120
1,note_on,81,74,0
1,note_on,81,0,120
1,note_on,77,69,0
1,note_on,77,0,120
1,note_on,74,74,0
1,note_on,74,0,120
1,note_on,77,69,0
1,note_on,77,0,120
1,note_on,79,75,0
1,note_on,79,0,120
1,note_on,76,69,0
1,note_on,76,0,120
1,note_on,73,75,0
1,note_on,73,0,120
1,note_on,76,69,0
1,note_on,76,0,120
1,note_on,74,75,0
1,note_on,74,0,480
1,note_on,62,67,0
1,note_on,62,0,120
1,note_on,57,59,0
1,note_on,57,0,120
1,note_on,62,62,0
1,note_on,62,0,120
1,note_on,65,65,0
1,note_on,65,0,120
1,note_on,69,68,0
1,note_on,69,0,120
1,note_on,65,63,0
1,note_on,65,0,120
1,note_on,62,68,0
1,note_on,62,0,120
1,note_on,65,63,0
1,note_on,65,0,120
1,note_on,67,69,0
1,note_on,67,0,120
1,note_on,64,63,0
1,note_on,64,0,120
1,note_on,61,69,0
1,note_on,61,0,120
1,note_on,64,63,0
1,note_on,64,0,120
1,note_on,62,54,120
1,note_on,64,56,120
1,note_on,62,0,12
1,note_on,65,58,108
1,note_on,64,0,12
1,note_on,67,60,108
1,note_on,65,0,12
1,note_on,69,61,108
1,note_on,67,0,12
1,note_on,71,63,108
1,note_on,69,0,12
1,note_on,73,65,108
1,note_on,71,0,12
1,note_on,74,66,108
1,note_on,73,0,12
1,note_on,74,0,468
1,note_on,71,58,600
1,note_on,72,60,120
1,note_on,71,0,12
1,note_on,74,61,108
1,note_on,72,0,12
1,note_on,76,63,108
1,note_on,74,0,12
1,note_on,78,64,108
1,note_on,76,0,12
1,note_on,80,66,108
1,note_on,78,0,12
1,note_on,81,67,108
1,note_on,80,0,12
1,note_on,83,69,108
1,note_on,81,0,12
1,note_on,83,0,468
1,note_on,81,70,600
1,note_on,88,77,120
1,note_on,81,0,12
1,note_on,86,70,108
1,note_on,88,0,12
1,note_on,84,71,108
1,note_on,86,0,12
1,note_on,83,72,108
1,note_on,84,0,12
1,note_on,81,73,108
1,note_on,83,0,12
1,note_on,79,74,108
1,note_on,81,0,12
1,note_on,77,78,108
1,note_on,79,0,12
1,note_on,77,0,468
1,note_on,79,64,600
1,note_on,86,69,120
1,note_on,79,0,12
1,note_on,84,63,108
1,note_on,86,0,12
1,note_on,83,64,108
1,note_on,84,0,12
1,note_on,81,66,108
1,note_on,83,0,12
1,note_on,79,67,108
1,note_on,81,0,12
1,note_on,77,69,108
1,note_on,79,0,12
1,note_on,76,71,108
1,note_on,77,0,12
1,note_on,76,0,468
1,note_on,77,60,600
1,note_on,84,66,120
1,note_on,77,0,12
1,note_on,83,70,108
1,note_on,84,0,12
1,note_on,81,69,108
1,note_on,83,0,12
1,note_on,79,68,108
1,note_on,81,0,12
1,note_on,77,66,108
1,note_on,79,0,12
1,note_on,76,65,108
1,note_on,77,0,12
1,note_on,74,69,108
1,note_on,76,0,12
1,note_on,74,0,468
1,note_on,76,59,600
1,note_on,83,67,120
1,note_on,76,0,12
1,note_on,81,67,108
1,note_on,83,0,12
1,note_on,80,66,108
1,note_on,81,0,12
1,note_on,77,65,108
1,note_on,80,0,12
1,note_on,76,64,108
1,note_on,77,0,12
1,note_on,74,63,108
1,note_on,76,0,12
1,note_on,72,66,108
1,note_on,74,0,12
1,note_on,72,0,468
1,note_on,70,58,600
1,note_on,74,64,120
1,note_on,70,0,12
1,note_on,72,59,108
1,note_on,74,0,12
1,note_on,70,64,108
1,note_on,72,0,12
1,note_on,69,63,108
1,note_on,70,0,12
1,note_on,67,61,108
1,note_on,69,0,12
1,note_on,65,60,108
1,note_on,67,0,12
1,note_on,65,0,108
1,note_on,64,59,0
1,note_on,65,57,120
1,note_on,64,0,12
1,note_on,67,56,108
1,note_on,65,0,12
1,note_on,69,55,108
1,note_on,67,0,12
1,note_on,70,53,108
1,note_on,69,0,12
1,note_on,72,52,108
1,note_on,70,0,12
1,note_on,74,50,108
1,note_on,72,0,12
1,note_on,76,49,108
1,note_on,74,0,12
1,note_on,76,0,108
1,note_on,77,59,0
1,note_on,77,0,960
1,note_on,81,58,0
1,note_on,81,0,480
1,note_on,84,56,0
1,note_on,84,0,480
1,note_on,76,60,0
1,note_on,76,0,720
1,note_on,77,55,0
1,note_on,77,0,120
1,note_on,79,51,0
1,note_on,79,0,120
1,note_on,77,60,0
1,note_on,77,0,480
1,note_on,86,64,480
1,note_on,86,0,960
1,note_on,84,62,0
1,note_on,84,0,480
1,note_on,89,64,0
1,note_on,89,0,480
1,note_on,84,64,0
1,note_on,84,0,480
1,note_on,82,55,0
1,note_on,82,0,80
1,note_on,84,55,0
1,note_on,84,0,80
1,note_on,82,55,0
1,note_on,82,0,80
1,note_on,81,59,0
1,note_on,81,0,120
1,note_on,82,55,0
1,note_on,82,0,120
1,note_on,81,60,0
1,note_on,81,0,480
1,note_on,74,60,480
1,note_on,74,0,240
1,note_on,76,53,0
1,note_on,77,54,120
1,note_on,76,0,12
1,note_on,79,55,108
1,note_on,77,0,12
1,note_on,81,57,108
1,note_on,79,0,12
1,note_on,82,58,108
1,note_on,81,0,12
1,note_on,84,59,108
1,note_on,82,0,12
1,note_on,86,62,108
1,note_on,84,0,12
1,note_on,84,61,108
1,note_on,86,0,12
1,note_on,82,60,108
1,note_on,84,0,12
1,note_on,81,59,108
1,note_on,82,0,12
1,note_on,79,58,108
1,note_on,81,0,12
1,note_on,77,57,108
1,note_on,79,0,12
1,note_on,76,55,108
1,note_on,77,0,12
1,note_on,74,53,108
1,note_on,76,0,12
1,note_on,72,60,108
1,note_on,74,0,12
1,note_on,72,0,228
1,note_on,74,53,0
1,note_on,76,54,120
1,note_on,74,0,12
1,note_on,77,55,108
1,note_on,76,0,12
1,note_on,79,57,108
1,note_on,77,0,12
1,note_on,81,58,108
1,note_on,79,0,12
1,note_on,82,59,108
1,note_on,81,0,12
1,note_on,84,62,108
1,note_on,82,0,12
1,note_on,82,61,108
1,note_on,84,0,12
1,note_on,81,60,108
1,note_on,82,0,12
1,note_on,79,59,108
1,note_on,81,0,12
1,note_on,77,58,108
1,note_on,79,0,12
1,note_on,76,57,108
1,note_on,77,0,12
1,note_on,74,55,108
1,note_on,76,0,12
1,note_on,72,53,108
1,note_on,74,0,12
1,note_on,70,60,108
1,note_on,72,0,12
1,note_on,70,0,228
1,note_on,72,53,0
1,note_on,74,54,120
1,note_on,72,0,12
1,note_on,76,55,108
1,note_on,74,0,12
1,note_on,77,57,108
1,note_on,76,0,12
1,note_on,79,58,108
1,note_on,77,0,12
1,note_on,81,59,108
1,note_on,79,0,12
1,note_on,82,62,108
1,note_on,81,0,12
1,note_on,81,61,108
1,note_on,82,0,12
1,note_on,79,60,108
1,note_on,81,0,12
1,note_on,77,59,108
1,note_on,79,0,12
1,note_on,76,58,108
1,note_on,77,0,12
1,note_on,74,57,108
1,note_on,76,0,12
1,note_on,72,55,108
1,note_on,74,0,12
1,note_on,70,53,108
1,note_on,72,0,12
1,note_on,69,60,108
1,note_on,70,0,12
1,note_on,69,0,228
1,note_on,70,53,0
1,note_on,72,54,120
1,note_on,70,0,12
1,note_on,74,55,108
1,note_on,72,0,12
1,note_on,76,57,108
1,note_on,74,0,12
1,note_on,77,58,108
1,note_on,76,0,12
1,note_on,79,59,108
1,note_on,77,0,12
1,note_on,81,62,108
1,note_on,79,0,12
1,note_on,79,61,108
1,note_on,81,0,12
1,note_on,77,60,108
1,note_on,79,0,12
1,note_on,76,59,108
1,note_on,77,0,12
1,note_on,74,58,108
1,note_on,76,0,12
1,note_on,72,57,108
1,note_on,74,0,12
1,note_on,70,55,108
1,note_on,72,0,12
1,note_on,69,53,108
1,note_on,70,0,12
1,note_on,81,61,108
1,note_on,69,0,12
1,note_on,81,0,468
1,note_on,72,56,960
1,note_on,81,56,0
1,note_on,81,0,480
1,note_on,72,0,0
1,note_on,72,56,0
1,note_on,79,56,0
1,note_on,79,0,480
1,note_on,72,0,0
1,note_on,72,56,960
1,note_on,79,56,0
1,note_on,79,0,480
1,note_on,72,0,0
1,note_on,72,56,0
1,note_on,77,56,0
1,note_on,77,0,480
1,note_on,72,0,0
1,note_on,71,56,960
1,note_on,77,56,0
1,note_on,77,0,480
1,note_on,71,0,0
1,note_on,72,56,0
1,note_on,76,56,0
1,note_on,76,0,480
1,note_on,72,0,0
1,note_on,72,56,960
1,note_on,76,56,0
1,note_on,76,0,480
1,note_on,72,0,0
1,note_on,74,60,0
1,note_on,74,0,120
1,note_on,62,53,0
1,note_on,64,53,120
1,note_on,62,0,12
1,note_on,65,54,108
1,note_on,64,0,12
1,note_on,67,55,108
1,note_on,65,0,12
1,note_on,69,57,108
1,note_on,67,0,12
1,note_on,71,58,108
1,note_on,69,0,12
1,note_on,73,59,108
1,note_on,71,0,12
1,note_on,74,62,108
1,note_on,73,0,12
1,note_on,74,0,108
1,note_on,69,58,0
1,note_on,71,61,120
1,note_on,69,0,12
1,note_on,73,64,108
1,note_on,71,0,12
1,note_on,74,66,108
1,note_on,73,0,12
1,note_on,76,67,108
1,note_on,74,0,12
1,note_on,77,68,108
1,note_on,76,0,12
1,note_on,79,69,108
1,note_on,77,0,12
1,note_on,81,70,108
1,note_on,79,0,12
1,note_on,83,69,108
1,note_on,81,0,12
1,note_on,84,71,108
1,note_on,83,0,12
1,note_on,83,69,108
1,note_on,84,0,12
1,note_on,81,67,108
1,note_on,83,0,12
1,note_on,79,65,108
1,note_on,81,0,12
1,note_on,77,63,108
1,note_on,79,0,12
1,note_on,76,66,108
1,note_on,77,0,12
1,note_on,76,0,108
1,note_on,77,65,0
1,note_on,79,66,120
1,note_on,77,0,12
1,note_on,81,67,108
1,note_on,79,0,12
1,note_on,79,67,108
1,note_on,81,0,12
1,note_on,77,68,108
1,note_on,79,0,12
1,note_on,76,71,108
1,note_on,77,0,12
1,note_on,74,73,108
1,note_on,76,0,12
1,note_on,72,76,108
1,note_on,74,0,12
1,note_on,71,78,108
1,note_on,72,0,12
1,note_on,71,0,108
1,note_on,79,71,120
1,note_on,79,0,120
1,note_on,76,71,120
1,note_on,76,0,120
1,note_on,72,71,120
1,note_on,72,0,120
1,note_on,74,78,120
1,note_on,74,0,120
1,note_on,79,71,120
1,note_on,79,0,120
1,note_on,76,71,120
1,note_on,76,0,120
1,note_on,72,71,120
1,note_on,72,0,120
1,note_on,74,81,120
1,note_on,74,0,120
1,note_on,74,71,360
1,note_on,79,71,0
1,note_on,71,71,0
1,note_on,71,0,120
1,note_on,79,0,0
1,note_on,74,0,0
1,note_on,67,83,360
1,note_on,67,0,480
1,note_on,79,61,2400
1,note_on,79,0,240
1,note_on,76,55,0
1,note_on,76,0,240
1,note_on,72,61,0
1,note_on,72,0,720
1,note_on,74,53,0
1,note_on,74,0,120
1,note_on,76,51,0
1,note_on,76,0,120
1,note_on,74,55,0
1,note_on,74,0,240
1,note_on,72,53,0
1,note_on,72,0,120
1,note_on,72,55,120
1,note_on,72,0,60
1,note_on,74,51,0
1,note_on,74,0,60
1,note_on,72,56,0
1,note_on,72,0,60
1,note_on,74,51,0
1,note_on,74,0,60
1,note_on,72,58,0
1,note_on,72,0,120
1,note_on,71,52,0
1,note_on,71,0,110
1,note_on,71,58,10
1,note_on,71,0,480
1,note_on,79,61,960
1,note_on,79,0,240
1,note_on,76,55,0
1,note_on,76,0,240
1,note_on,72,61,0
1,note_on,72,0,720
1,note_on,74,53,0
1,note_on,74,0,120
1,note_on,76,51,0
1,note_on,76,0,120
1,note_on,74,55,0
1,note_on,74,0,240
1,note_on,72,53,0
1,note_on,72,0,120
1,note_on,72,55,120
1,note_on,72,0,60
1,note_on,74,51,0
1,note_on,74,0,60
1,note_on,72,56,0
1,note_on,72,0,60
1,note_on,74,50,0
1,note_on,74,0,60
1,note_on,72,55,0
1,note_on,72,0,120
1,note_on,71,52,0
1,note_on,71,0,90
1,note_on,71,58,30
1,note_on,71,0,480
1,note_on,79,65,960
1,note_on,79,0,480
1,note_on,79,57,120
1,note_on,79,0,120
1,note_on,76,62,0
1,note_on,76,0,120
1,note_on,72,57,0
1,note_on,72,0,120
1,note_on,69,64,0
1,note_on,69,0,480
1,note_on,69,57,120
1,note_on,69,0,120
1,note_on,72,62,0
1,note_on,72,0,120
1,note_on,69,57,0
1,note_on,69,0,120
1,note_on,77,65,0
1,note_on,77,0,480
1,note_on,77,57,120
1,note_on,77,0,120
1,note_on,74,62,0
1,note_on,74,0,120
1,note_on,71,57,0
1,note_on,71,0,120
1,note_on,67,64,0
1,note_on,67,0,480
1,note_on,79,64,120
1,note_on,79,0,120
1,note_on,83,67,0
1,note_on,83,0,120
1,note_on,79,63,0
1,note_on,79,0,120
1,note_on,88,72,0
1,note_on,88,0,480
1,note_on,88,61,120
1,note_on,88,0,120
1,note_on,84,66,0
1,note_on,84,0,120
1,note_on,81,61,0
1,note_on,81,0,120
1,note_on,77,68,0
1,note_on,77,0,480
1,note_on,77,64,120
1,note_on,77,0,120
1,note_on,81,66,0
1,note_on,81,0,120
1,note_on,77,64,0
1,note_on,77,0,120
1,note_on,86,73,0
1,note_on,86,0,480
1,note_on,86,61,120
1,note_on,86,0,120
1,note_on,83,66,0
1,note_on,83,0,120
1,note_on,77,61,0
1,note_on,77,0,120
1,note_on,76,68,0
1,note_on,76,0,480
1,note_on,84,61,120
1,note_on,84,0,120
1,note_on,79,66,0
1,note_on,79,0,120
1,note_on,76,61,0
1,note_on,76,0,120
1,note_on,74,71,0
1,note_on,74,0,900
1,note_on,73,64,0
1,note_on,73,0,60
1,note_on,74,69,0
1,note_on,74,0,420
1,note_on,73,65,0
1,note_on,73,0,60
1,note_on,74,72,0
1,note_on,74,0,480
1,note_on,81,77,0
1,note_on,81,0,900
1,note_on,80,69,0
1,note_on,80,0,60
1,note_on,81,78,0
1,note_on,81,0,420
1,note_on,80,69,0
1,note_on,80,0,60
1,note_on,81,79,0
1,note_on,81,0,480
1,note_on,79,78,0
1,note_on,79,0,240
1,note_on,81,75,0
1,note_on,81,0,120
1,note_on,83,76,0
1,note_on,83,0,120
1,note_on,84,79,0
1,note_on,84,0,120
1,note_on,86,80,0
1,note_on,86,0,120
1,note_on,88,83,0
1,note_on,88,0,120
1,note_on,86,82,0
1,note_on,86,0,120
1,note_on,84,78,0
1,note_on,84,0,120
1,note_on,83,77,0
1,note_on,83,0,120
1,note_on,81,75,0
1,note_on,81,0,120
1,note_on,79,74,0
1,note_on,79,0,120
1,note_on,77,70,0
1,note_on,77,0,120
1,note_on,76,68,0
1,note_on,76,0,120
1,note_on,74,67,0
1,note_on,74,0,120
1,note_on,72,65,0
1,note_on,72,0,120
1,note_on,74,49,0
1,note_on,74,0,60
1,note_on,76,38,0
1,note_on,76,0,60
1,note_on,74,49,0
1,note_on,74,0,60
1,note_on,76,40,0
1,note_on,76,0,60
1,note_on,74,50,0
1,note_on,74,0,60
1,note_on,76,40,0
1,note_on,76,0,60
1,note_on,74,50,0
1,note_on,74,0,60
1,note_on,76,40,0
1,note_on,76,0,60
1,note_on,74,52,0
1,note_on,74,0,60
1,note_on,76,40,0
1,note_on,76,0,60
1,note_on,74,52,0
1,note_on,74,0,60
1,note_on,76,41,0
1,note_on,76,0,60
1,note_on,74,53,0
1,note_on,74,0,60
1,note_on,76,41,0
1,note_on,76,0,60
1,note_on,74,53,0
1,note_on,74,0,60
1,note_on,76,42,0
1,note_on,76,0,60
1,note_on,74,54,0
1,note_on,74,0,60
1,note_on,76,43,0
1,note_on,76,0,60
1,note_on,74,54,0
1,note_on,74,0,60
1,note_on,76,45,0
1,note_on,76,0,60
1,note_on,74,54,0
1,note_on,74,0,60
1,note_on,76,44,0
1,note_on,76,0,60
1,note_on,74,54,0
1,note_on,74,0,60
1,note_on,76,44,0
1,note_on,76,0,60
1,note_on,74,53,0
1,note_on,74,0,60
1,note_on,76,45,0
1,note_on,76,0,60
1,note_on,74,53,0
1,note_on,74,0,60
1,note_on,76,42,0
1,note_on,76,0,60
1,note_on,74,53,0
1,note_on,74,0,80
1,note_on,72,59,0
1,note_on,72,0,80
1,note_on,74,58,0
1,note_on,74,0,80
1,note_on,72,69,0
1,note_on,72,0,480
1,note_on,72,67,0
1,note_on,72,0,120
1,note_on,67,59,0
1,note_on,67,0,120
1,note_on,72,62,0
1,note_on,72,0,120
1,note_on,76,65,0
1,note_on,76,0,120
1,note_on,79,68,0
1,note_on,79,0,120
1,note_on,76,63,0
1,note_on,76,0,120
1,note_on,72,68,0
1,note_on,72,0,120
1,note_on,76,63,0
1,note_on,76,0,120
1,note_on,77,69,0
1,note_on,77,0,120
1,note_on,74,63,0
1,note_on,74,0,120
1,note_on,71,69,0
1,note_on,71,0,120
1,note_on,74,63,0
1,note_on,74,0,120
1,note_on,72,69,0
1,note_on,72,0,480
1,note_on,60,67,0
1,note_on,60,0,120
1,note_on,55,59,0
1,note_on,55,0,120
1,note_on,60,62,0
1,note_on,60,0,120
1,note_on,64,65,0
1,note_on,64,0,120
1,note_on,67,68,0
1,note_on,67,0,120
1,note_on,64,63,0
1,note_on,64,0,120
1,note_on,60,68,0
1,note_on,60,0,120
1,note_on,64,63,0
1,note_on,64,0,120
1,note_on,65,69,0
1,note_on,65,0,120
1,note_on,62,63,0
1,note_on,62,0,120
1,note_on,59,69,0
1,note_on,59,0,120
1,note_on,62,63,0
1,note_on,62,0,120
1,note_on,60,74,0
1,note_on,60,0,120
1,note_on,79,72,360
1,note_on,84,85,0
1,note_on,76,65,0
1,note_on,76,0,120
1,note_on,84,0,0
1,note_on,79,0,0
1,note_on,72,83,360
1,note_on,72,0,480
1,note_on,67,69,480
1,note_on,67,0,480
1,note_on,79,67,0
1,note_on,79,0,120
1,note_on,74,59,0
1,note_on,74,0,120
1,note_on,79,62,0
1,note_on,79,0,120
1,note_on,82,65,0
1,note_on,82,0,120
1,note_on,86,68,0
1,note_on,86,0,120
1,note_on,82,63,0
1,note_on,82,0,120
1,note_on,79,68,0
1,note_on,79,0,120
1,note_on,82,63,0
1,note_on,82,0,120
1,note_on,84,69,0
1,note_on,84,0,120
1,note_on,81,63,0
1,note_on,81,0,120
1,note_on,78,69,0
1,note_on,78,0,120
1,note_on,81,63,0
1,note_on,81,0,120
1,note_on,79,69,0
1,note_on,79,0,480
1,note_on,67,67,0
1,note_on,67,0,120
1,note_on,62,59,0
1,note_on,62,0,120
1,note_on,67,62,0
1,note_on,67,0,120
1,note_on,70,65,0
1,note_on,70,0,120
1,note_on,74,68,0
1,note_on,74,0,120
1,note_on,70,63,0
1,note_on,70,0,120
1,note_on,67,68,0
1,note_on,67,0,120
1,note_on,70,63,0
1,note_on,70,0,120
1,note_on,72,69,0
1,note_on,72,0,120
1,note_on,69,63,0
1,note_on,69,0,120
1,note_on,66,69,0
1,note_on,66,0,120
1,note_on,69,63,0
1,note_on,69,0,120
1,note_on,67,74,0
1,note_on,67,0,480
1,note_on,79,68,600
1,note_on,82,72,120
1,note_on,79,0,12
1,note_on,81,70,108
1,note_on,82,0,12
1,note_on,79,68,108
1,note_on,81,0,12
1,note_on,77,67,108
1,note_on,79,0,12
1,note_on,76,65,108
1,note_on,77,0,12
1,note_on,74,64,108
1,note_on,76,0,12
1,note_on,73,70,108
1,note_on,74,0,12
1,note_on,73,0,468
1,note_on,85,75,600
1,note_on,88,79,120
1,note_on,85,0,12
1,note_on,86,77,108
1,note_on,88,0,12
1,note_on,85,74,108
1,note_on,86,0,12
1,note_on,82,72,108
1,note_on,85,0,12
1,note_on,81,70,108
1,note_on,82,0,12
1,note_on,79,72,108
1,note_on,81,0,12
1,note_on,77,85,108
1,note_on,79,0,12
1,note_on,77,0,468
1,note_on,74,73,0
1,note_on,74,0,120
1,note_on,69,64,0
1,note_on,69,0,120
1,note_on,74,68,0
1,note_on,74,0,120
1,note_on,77,71,0
1,note_on,77,0,120
1,note_on,81,74,0
1,note_on,81,0,120
1,note_on,77,69,0
1,note_on,77,0,120
1,note_on,74,74,0
1,note_on,74,0,120
1,note_on,77,69,0
1,note_on,77,0,120
1,note_on,79,75,0
1,note_on,79,0,120
1,note_on,76,69,0
1,note_on,76,0,120
1,note_on,73,75,0
1,note_on,73,0,120
1,note_on,76,69,0
1,note_on,76,0,120
1,note_on,74,75,0
1,note_on,74,0,480
1,note_on,62,67,0
1,note_on,62,0,120
1,note_on,57,59,0
1,note_on,57,0,120
1,note_on,62,62,0
1,note_on,62,0,120
1,note_on,65,65,0
1,note_on,65,0,120
1,note_on,69,68,0
1,note_on,69,0,120
1,note_on,65,63,0
1,note_on,65,0,120
1,note_on,62,68,0
1,note_on,62,0,120
1,note_on,65,63,0
1,note_on,65,0,120
1,note_on,67,69,0
1,note_on,67,0,120
1,note_on,64,63,0
1,note_on,64,0,120
1,note_on,61,69,0
1,note_on,61,0,120
1,note_on,64,63,0
1,note_on,64,0,120
1,note_on,62,54,120
1,note_on,64,56,120
1,note_on,62,0,12
1,note_on,65,58,108
1,note_on,64,0,12
1,note_on,67,60,108
1,note_on,65,0,12
1,note_on,69,61,108
1,note_on,67,0,12
1,note_on,71,63,108
1,note_on,69,0,12
1,note_on,73,65,108
1,note_on,71,0,12
1,note_on,74,66,108
1,note_on,73,0,12
1,note_on,74,0,468
1,note_on,71,58,600
1,note_on,72,60,120
1,note_on,71,0,12
1,note_on,74,61,108
1,note_on,72,0,12
1,note_on,76,63,108
1,note_on,74,0,12
1,note_on,78,64,108
1,note_on,76,0,12
1,note_on,80,66,108
1,note_on,78,0,12
1,note_on,81,67,108
1,note_on,80,0,12
1,note_on,83,69,108
1,note_on,81,0,12
1,note_on,83,0,468
1,note_on,81,70,600
1,note_on,88,77,120
1,note_on,81,0,12
1,note_on,86,70,108
1,note_on,88,0,12
1,note_on,84,71,108
1,note_on,86,0,12
1,note_on,83,72,108
1,note_on,84,0,12
1,note_on,81,73,108
1,note_on,83,0,12
1,note_on,79,74,108
1,note_on,81,0,12
1,note_on,77,78,108
1,note_on,79,0,12
1,note_on,77,0,468
1,note_on,79,64,600
1,note_on,86,69,120
1,note_on,79,0,12
1,note_on,84,63,108
1,note_on,86,0,12
1,note_on,83,64,108
1,note_on,84,0,12
1,note_on,81,66,108
1,note_on,83,0,12
1,note_on,79,67,108
1,note_on,81,0,12
1,note_on,77,69,108
1,note_on,79,0,12
1,note_on,76,71,108
1,note_on,77,0,12
1,note_on,76,0,468
1,note_on,77,60,600
1,note_on,84,66,120
1,note_on,77,0,12
1,note_on,83,70,108
1,note_on,84,0,12
1,note_on,81,69,108
1,note_on,83,0,12
1,note_on,79,68,108
1,note_on,81,0,12
1,note_on,77,66,108
1,note_on,79,0,12
1,note_on,76,65,108
1,note_on,77,0,12
1,note_on,74,69,108
1,note_on,76,0,12
1,note_on,74,0,468
1,note_on,76,59,600
1,note_on,83,67,120
1,note_on,76,0,12
1,note_on,81,67,108
1,note_on,83,0,12
1,note_on,80,66,108
1,note_on,81,0,12
1,note_on,77,65,108
1,note_on,80,0,12
1,note_on,76,64,108
1,note_on,77,0,12
1,note_on,74,63,108
1,note_on,76,0,12
1,note_on,72,66,108
1,note_on,74,0,12
1,note_on,72,0,468
1,note_on,70,58,600
1,note_on,74,64,120
1,note_on,70,0,12
1,note_on,72,59,108
1,note_on,74,0,12
1,note_on,70,64,108
1,note_on,72,0,12
1,note_on,69,63,108
1,note_on,70,0,12
1,note_on,67,61,108
1,note_on,69,0,12
1,note_on,65,60,108
1,note_on,67,0,12
1,note_on,65,0,108
1,note_on,64,59,0
1,note_on,65,57,120
1,note_on,64,0,12
1,note_on,67,56,108
1,note_on,65,0,12
1,note_on,69,55,108
1,note_on,67,0,12
1,note_on,70,53,108
1,note_on,69,0,12
1,note_on,72,52,108
1,note_on,70,0,12
1,note_on,74,50,108
1,note_on,72,0,12
1,note_on,76,49,108
1,note_on,74,0,12
1,note_on,76,0,108
1,note_on,77,59,0
1,note_on,77,0,960
1,note_on,81,58,0
1,note_on,81,0,480
1,note_on,84,56,0
1,note_on,84,0,480
1,note_on,76,60,0
1,note_on,76,0,720
1,note_on,77,55,0
1,note_on,77,0,120
1,note_on,79,51,0
1,note_on,79,0,120
1,note_on,77,60,0
1,note_on,77,0,480
1,note_on,86,64,480
1,note_on,86,0,960
1,note_on,84,62,0
1,note_on,84,0,480
1,note_on,89,64,0
1,note_on,89,0,480
1,note_on,84,64,0
1,note_on,84,0,480
1,note_on,82,55,0
1,note_on,82,0,80
1,note_on,84,55,0
1,note_on,84,0,80
1,note_on,82,55,0
1,note_on,82,0,80
1,note_on,81,59,0
1,note_on,81,0,120
1,note_on,82,55,0
1,note_on,82,0,120
1,note_on,81,60,0
1,note_on,81,0,480
1,note_on,74,60,480
1,note_on,74,0,240
1,note_on,76,53,0
1,note_on,77,54,120
1,note_on,76,0,12
1,note_on,79,55,108
1,note_on,77,0,12
1,note_on,81,57,108
1,note_on,79,0,12
1,note_on,82,58,108
1,note_on,81,0,12
1,note_on,84,59,108
1,note_on,82,0,12
1,note_on,86,62,108
1,note_on,84,0,12
1,note_on,84,61,108
1,note_on,86,0,12
1,note_on,82,60,108
1,note_on,84,0,12
1,note_on,81,59,108
1,note_on,82,0,12
1,note_on,79,58,108
1,note_on,81,0,12
1,note_on,77,57,108
1,note_on,79,0,12
1,note_on,76,55,108
1,note_on,77,0,12
1,note_on,74,53,108
1,note_on,76,0,12
1,note_on,72,60,108
1,note_on,74,0,12
1,note_on,72,0,228
1,note_on,74,53,0
1,note_on,76,54,120
1,note_on,74,0,12
1,note_on,77,55,108
1,note_on,76,0,12
1,note_on,79,57,108
1,note_on,77,0,12
1,note_on,81,58,108
1,note_on,79,0,12
1,note_on,82,59,108
1,note_on,81,0,12
1,note_on,84,62,108
1,note_on,82,0,12
1,note_on,82,61,108
1,note_on,84,0,12
1,note_on,81,60,108
1,note_on,82,0,12
1,note_on,79,59,108
1,note_on,81,0,12
1,note_on,77,58,108
1,note_on,79,0,12
1,note_on,76,57,108
1,note_on,77,0,12
1,note_on,74,55,108
1,note_on,76,0,12
1,note_on,72,53,108
1,note_on,74,0,12
1,note_on,70,60,108
1,note_on,72,0,12
1,note_on,70,0,228
1,note_on,72,53,0
1,note_on,74,54,120
1,note_on,72,0,12
1,note_on,76,55,108
1,note_on,74,0,12
1,note_on,77,57,108
1,note_on,76,0,12
1,note_on,79,58,108
1,note_on,77,0,12
1,note_on,81,59,108
1,note_on,79,0,12
1,note_on,82,62,108
1,note_on,81,0,12
1,note_on,81,61,108
1,note_on,82,0,12
1,note_on,79,60,108
1,note_on,81,0,12
1,note_on,77,59,108
1,note_on,79,0,12
1,note_on,76,58,108
1,note_on,77,0,12
1,note_on,74,57,108
1,note_on,76,0,12
1,note_on,72,55,108
1,note_on,74,0,12
1,note_on,70,53,108
1,note_on,72,0,12
1,note_on,69,60,108
1,note_on,70,0,12
1,note_on,69,0,228
1,note_on,70,53,0
1,note_on,72,54,120
1,note_on,70,0,12
1,note_on,74,55,108
1,note_on,72,0,12
1,note_on,76,57,108
1,note_on,74,0,12
1,note_on,77,58,108
1,note_on,76,0,12
1,note_on,79,59,108
1,note_on,77,0,12
1,note_on,81,62,108
1,note_on,79,0,12
1,note_on,79,61,108
1,note_on,81,0,12
1,note_on,77,60,108
1,note_on,79,0,12
1,note_on,76,59,108
1,note_on,77,0,12
1,note_on,74,58,108
1,note_on,76,0,12
1,note_on,72,57,108
1,note_on,74,0,12
1,note_on,70,55,108
1,note_on,72,0,12
1,note_on,69,53,108
1,note_on,70,0,12
1,note_on,81,61,108
1,note_on,69,0,12
1,note_on,81,0,468
1,note_on,72,56,960
1,note_on,81,56,0
1,note_on,81,0,480
1,note_on,72,0,0
1,note_on,72,56,0
1,note_on,79,56,0
1,note_on,79,0,480
1,note_on,72,0,0
1,note_on,72,56,960
1,note_on,79,56,0
1,note_on,79,0,480
1,note_on,72,0,0
1,note_on,72,56,0
1,note_on,77,56,0
1,note_on,77,0,480
1,note_on,72,0,0
1,note_on,71,56,960
1,note_on,77,56,0
1,note_on,77,0,480
1,note_on,71,0,0
1,note_on,72,56,0
1,note_on,76,56,0
1,note_on,76,0,480
1,note_on,72,0,0
1,note_on,72,56,960
1,note_on,76,56,0
1,note_on,76,0,480
1,note_on,72,0,0
1,note_on,74,60,0
1,note_on,74,0,120
1,note_on,62,53,0
1,note_on,64,53,120
1,note_on,62,0,12
1,note_on,65,54,108
1,note_on,64,0,12
1,note_on,67,55,108
1,note_on,65,0,12
1,note_on,69,57,108
1,note_on,67,0,12
1,note_on,71,58,108
1,note_on,69,0,12
1,note_on,73,59,108
1,note_on,71,0,12
1,note_on,74,62,108
1,note_on,73,0,12
1,note_on,74,0,108
1,note_on,69,58,0
1,note_on,71,61,120
1,note_on,69,0,12
1,note_on,73,64,108
1,note_on,71,0,12
1,note_on,74,66,108
1,note_on,73,0,12
1,note_on,76,67,108
1,note_on,74,0,12
1,note_on,77,68,108
1,note_on,76,0,12
1,note_on,79,69,108
1,note_on,77,0,12
1,note_on,81,70,108
1,note_on,79,0,12
1,note_on,83,69,108
1,note_on,81,0,12
1,note_on,84,71,108
1,note_on,83,0,12
1,note_on,83,69,108
1,note_on,84,0,12
1,note_on,81,67,108
1,note_on,83,0,12
1,note_on,79,65,108
1,note_on,81,0,12
1,note_on,77,63,108
1,note_on,79,0,12
1,note_on,76,66,108
1,note_on,77,0,12
1,note_on,76,0,108
1,note_on,77,65,0
1,note_on,79,66,120
1,note_on,77,0,12
1,note_on,81,67,108
1,note_on,79,0,12
1,note_on,79,67,108
1,note_on,81,0,12
1,note_on,77,68,108
1,note_on,79,0,12
1,note_on,76,71,108
1,note_on,77,0,12
1,note_on,74,73,108
1,note_on,76,0,12
1,note_on,72,76,108
1,note_on,74,0,12
1,note_on,71,78,108
1,note_on,72,0,12
1,note_on,71,0,108
1,note_on,79,71,120
1,note_on,79,0,120
1,note_on,76,71,120
1,note_on,76,0,120
1,note_on,72,71,120
1,note_on,72,0,120
1,note_on,74,78,120
1,note_on,74,0,120
1,note_on,79,71,120
1,note_on,79,0,120
1,note_on,76,71,120
1,note_on,76,0,120
1,note_on,72,71,120
1,note_on,72,0,120
1,note_on,74,81,120
1,note_on,74,0,120
1,note_on,74,71,360
1,note_on,79,71,0
1,note_on,71,71,0
1,note_on,71,0,120
1,note_on,79,0,0
1,note_on,74,0,0
1,note_on,67,83,360
1,note_on,67,0,480
1,note_on,79,61,2400
1,note_on,79,0,240
1,note_on,76,55,0
1,note_on,76,0,240
1,note_on,72,61,0
1,note_on,72,0,720
1,note_on,74,53,0
1,note_on,74,0,120
1,note_on,76,51,0
1,note_on,76,0,120
1,note_on,74,55,0
1,note_on,74,0,240
1,note_on,72,53,0
1,note_on,72,0,120
1,note_on,72,55,120
1,note_on,72,0,60
1,note_on,74,51,0
1,note_on,74,0,60
1,note_on,72,56,0
1,note_on,72,0,60
1,note_on,74,51,0
1,note_on,74,0,60
1,note_on,72,58,0
1,note_on,72,0,120
1,note_on,71,52,0
1,note_on,71,0,110
1,note_on,71,58,10
1,note_on,71,0,480
1,note_on,79,61,960
1,note_on,79,0,240
1,note_on,76,55,0
1,note_on,76,0,240
1,note_on,72,61,0
1,note_on,72,0,720
1,note_on,74,53,0
1,note_on,74,0,120
1,note_on,76,51,0
1,note_on,76,0,120
1,note_on,74,55,0
1,note_on,74,0,240
1,note_on,72,53,0
1,note_on,72,0,120
1,note_on,72,55,120
1,note_on,72,0,60
1,note_on,74,51,0
1,note_on,74,0,60
1,note_on,72,56,0
1,note_on,72,0,60
1,note_on,74,50,0
1,note_on,74,0,60
1,note_on,72,55,0
1,note_on,72,0,120
1,note_on,71,52,0
1,note_on,71,0,90
1,note_on,71,58,30
1,note_on,71,0,480
1,note_on,79,65,960
1,note_on,79,0,480
1,note_on,79,57,120
1,note_on,79,0,120
1,note_on,76,62,0
1,note_on,76,0,120
1,note_on,72,57,0
1,note_on,72,0,120
1,note_on,69,64,0
1,note_on,69,0,480
1,note_on,69,57,120
1,note_on,69,0,120
1,note_on,72,62,0
1,note_on,72,0,120
1,note_on,69,57,0
1,note_on,69,0,120
1,note_on,77,65,0
1,note_on,77,0,480
1,note_on,77,57,120
1,note_on,77,0,120
1,note_on,74,62,0
1,note_on,74,0,120
1,note_on,71,57,0
1,note_on,71,0,120
1,note_on,67,64,0
1,note_on,67,0,480
1,note_on,79,64,120
1,note_on,79,0,120
1,note_on,83,67,0
1,note_on,83,0,120
1,note_on,79,63,0
1,note_on,79,0,120
1,note_on,88,72,0
1,note_on,88,0,480
1,note_on,88,61,120
1,note_on,88,0,120
1,note_on,84,66,0
1,note_on,84,0,120
1,note_on,81,61,0
1,note_on,81,0,120
1,note_on,77,68,0
1,note_on,77,0,480
1,note_on,77,64,120
1,note_on,77,0,120
1,note_on,81,66,0
1,note_on,81,0,120
1,note_on,77,64,0
1,note_on,77,0,120
1,note_on,86,73,0
1,note_on,86,0,480
1,note_on,86,61,120
1,note_on,86,0,120
1,note_on,83,66,0
1,note_on,83,0,120
1,note_on,77,61,0
1,note_on,77,0,120
1,note_on,76,68,0
1,note_on,76,0,480
1,note_on,84,61,120
1,note_on,84,0,120
1,note_on,79,66,0
1,note_on,79,0,120
1,note_on,76,61,0
1,note_on,76,0,120
1,note_on,74,71,0
1,note_on,74,0,900
1,note_on,73,64,0
1,note_on,73,0,60
1,note_on,74,69,0
1,note_on,74,0,420
1,note_on,73,65,0
1,note_on,73,0,60
1,note_on,74,72,0
1,note_on,74,0,480
1,note_on,81,77,0
1,note_on,81,0,900
1,note_on,80,69,0
1,note_on,80,0,60
1,note_on,81,78,0
1,note_on,81,0,420
1,note_on,80,69,0
1,note_on,80,0,60
1,note_on,81,79,0
1,note_on,81,0,480
1,note_on,79,78,0
1,note_on,79,0,240
1,note_on,81,75,0
1,note_on,81,0,120
1,note_on,83,76,0
1,note_on,83,0,120
1,note_on,84,79,0
1,note_on,84,0,120
1,note_on,86,80,0
1,note_on,86,0,120
1,note_on,88,83,0
1,note_on,88,0,120
1,note_on,86,82,0
1,note_on,86,0,120
1,note_on,84,78,0
1,note_on,84,0,120
1,note_on,83,77,0
1,note_on,83,0,120
1,note_on,81,75,0
1,note_on,81,0,120
1,note_on,79,74,0
1,note_on,79,0,120
1,note_on,77,70,0
1,note_on,77,0,120
1,note_on,76,68,0
1,note_on,76,0,120
1,note_on,74,67,0
1,note_on,74,0,120
1,note_on,72,65,0
1,note_on,72,0,120
1,note_on,74,49,0
1,note_on,74,0,60
1,note_on,76,38,0
1,note_on,76,0,60
1,note_on,74,49,0
1,note_on,74,0,60
1,note_on,76,40,0
1,note_on,76,0,60
1,note_on,74,50,0
1,note_on,74,0,60
1,note_on,76,40,0
1,note_on,76,0,60
1,note_on,74,50,0
1,note_on,74,0,60
1,note_on,76,40,0
1,note_on,76,0,60
1,note_on,74,52,0
1,note_on,74,0,60
1,note_on,76,40,0
1,note_on,76,0,60
1,note_on,74,52,0
1,note_on,74,0,60
1,note_on,76,41,0
1,note_on,76,0,60
1,note_on,74,53,0
1,note_on,74,0,60
1,note_on,76,41,0
1,note_on,76,0,60
1,note_on,74,53,0
1,note_on,74,0,60
1,note_on,76,42,0
1,note_on,76,0,60
1,note_on,74,54,0
1,note_on,74,0,60
1,note_on,76,43,0
1,note_on,76,0,60
1,note_on,74,54,0
1,note_on,74,0,60
1,note_on,76,45,0
1,note_on,76,0,60
1,note_on,74,54,0
1,note_on,74,0,60
1,note_on,76,44,0
1,note_on,76,0,60
1,note_on,74,54,0
1,note_on,74,0,60
1,note_on,76,44,0
1,note_on,76,0,60
1,note_on,74,53,0
1,note_on,74,0,60
1,note_on,76,45,0
1,note_on,76,0,60
1,note_on,74,53,0
1,note_on,74,0,60
1,note_on,76,42,0
1,note_on,76,0,60
1,note_on,74,53,0
1,note_on,74,0,80
1,note_on,72,59,0
1,note_on,72,0,80
1,note_on,74,58,0
1,note_on,74,0,80
1,note_on,72,69,0
1,note_on,72,0,480
1,note_on,72,67,0
1,note_on,72,0,120
1,note_on,67,59,0
1,note_on,67,0,120
1,note_on,72,62,0
1,note_on,72,0,120
1,note_on,76,65,0
1,note_on,76,0,120
1,note_on,79,68,0
1,note_on,79,0,120
1,note_on,76,63,0
1,note_on,76,0,120
1,note_on,72,68,0
1,note_on,72,0,120
1,note_on,76,63,0
1,note_on,76,0,120
1,note_on,77,69,0
1,note_on,77,0,120
1,note_on,74,63,0
1,note_on,74,0,120
1,note_on,71,69,0
1,note_on,71,0,120
1,note_on,74,63,0
1,note_on,74,0,120
1,note_on,72,69,0
1,note_on,72,0,480
1,note_on,60,67,0
1,note_on,60,0,120
1,note_on,55,59,0
1,note_on,55,0,120
1,note_on,60,62,0
1,note_on,60,0,120
1,note_on,64,65,0
1,note_on,64,0,120
1,note_on,67,68,0
1,note_on,67,0,120
1,note_on,64,63,0
1,note_on,64,0,120
1,note_on,60,68,0
1,note_on,60,0,120
1,note_on,64,63,0
1,note_on,64,0,120
1,note_on,65,69,0
1,note_on,65,0,120
1,note_on,62,63,0
1,note_on,62,0,120
1,note_on,59,69,0
1,note_on,59,0,120
1,note_on,62,63,0
1,note_on,62,0,120
1,note_on,60,74,0
1,note_on,60,0,120
1,note_on,79,75,360
1,note_on,84,88,0
1,note_on,76,65,0
1,note_on,76,0,120
1,note_on,84,0,0
1,note_on,79,0,0
1,note_on,72,85,360
1,note_on,72,0,480
2,note_on,60,40,0
2,note_on,60,0,240
2,note_on,67,30,0
2,note_on,67,0,240
2,note_on,64,30,0
2,note_on,64,0,240
2,note_on,67,30,0
2,note_on,67,0,240
2,note_on,60,40,0
2,note_on,60,0,240
2,note_on,67,30,0
2,note_on,67,0,240
2,note_on,64,30,0
2,note_on,64,0,240
2,note_on,67,30,0
2,note_on,67,0,240
2,note_on,62,30,0
2,note_on,62,0,240
2,note_on,67,29,0
2,note_on,67,0,240
2,note_on,65,31,0
2,note_on,65,0,240
2,note_on,67,28,0
2,note_on,67,0,240
2,note_on,60,40,0
2,note_on,60,0,240
2,note_on,67,29,0
2,note_on,67,0,240
2,note_on,64,32,0
2,note_on,64,0,240
2,note_on,67,29,0
2,note_on,67,0,240
2,note_on,60,40,0
2,note_on,60,0,240
2,note_on,69,32,0
2,note_on,69,0,240
2,note_on,65,32,0
2,note_on,65,0,240
2,note_on,69,32,0
2,note_on,69,0,240
2,note_on,60,40,0
2,note_on,60,0,240
2,note_on,67,32,0
2,note_on,67,0,240
2,note_on,64,32,0
2,note_on,64,0,240
2,note_on,67,32,0
2,note_on,67,0,240
2,note_on,59,40,0
2,note_on,59,0,240
2,note_on,67,32,0
2,note_on,67,0,240
2,note_on,62,32,0
2,note_on,62,0,240
2,note_on,67,32,0
2,note_on,67,0,240
2,note_on,60,40,0
2,note_on,60,0,240
2,note_on,67,34,0
2,note_on,67,0,240
2,note_on,64,34,0
2,note_on,64,0,240
2,note_on,67,34,0
2,note_on,67,0,240
2,note_on,65,40,0
2,note_on,65,0,480
2,note_on,53,40,960
2,note_on,60,40,0
2,note_on,60,0,480
2,note_on,53,0,0
2,note_on,52,40,0
2,note_on,60,40,0
2,note_on,60,0,480
2,note_on,52,0,0
2,note_on,52,40,960
2,note_on,60,40,0
2,note_on,60,0,480
2,note_on,52,0,0
2,note_on,50,40,0
2,note_on,60,40,0
2,note_on,60,0,480
2,note_on,50,0,0
2,note_on,50,40,960
2,note_on,59,40,0
2,note_on,59,0,480
2,note_on,50,0,0
2,note_on,48,40,0
2,note_on,60,40,0
2,note_on,60,0,480
2,note_on,48,0,0
2,note_on,52,40,960
2,note_on,48,40,0
2,note_on,48,0,480
2,note_on,52,0,0
2,note_on,53,40,0
2,note_on,57,40,0
2,note_on,57,0,1920
2,note_on,53,0,0
2,note_on,53,60,0
2,note_on,53,0,720
2,note_on,55,55,0
2,note_on,55,0,240
2,note_on,57,60,0
2,note_on,57,0,720
2,note_on,54,54,0
2,note_on,54,0,240
2,note_on,43,65,0
2,note_on,43,0,120
2,note_on,47,56,0
2,note_on,47,0,120
2,note_on,50,56,0
2,note_on,50,0,120
2,note_on,55,50,0
2,note_on,55,0,120
2,note_on,43,65,0
2,note_on,43,0,120
2,note_on,48,55,0
2,note_on,48,0,120
2,note_on,52,55,0
2,note_on,52,0,120
2,note_on,55,50,0
2,note_on,55,0,120
2,note_on,43,65,0
2,note_on,43,0,120
2,note_on,47,55,0
2,note_on,47,0,120
2,note_on,50,55,0
2,note_on,50,0,120
2,note_on,55,54,0
2,note_on,55,0,120
2,note_on,43,65,0
2,note_on,43,0,120
2,note_on,48,57,0
2,note_on,48,0,120
2,note_on,52,56,0
2,note_on,52,0,120
2,note_on,55,53,0
2,note_on,55,0,120
2,note_on,43,65,0
2,note_on,43,0,120
2,note_on,55,59,360
2,note_on,55,0,120
2,note_on,43,61,360
2,note_on,43,0,480
2,note_on,61,42,480
2,note_on,62,36,120
2,note_on,61,0,12
2,note_on,62,0,108
2,note_on,61,42,0
2,note_on,62,36,120
2,note_on,61,0,12
2,note_on,62,0,108
2,note_on,61,42,0
2,note_on,62,38,120
2,note_on,61,0,12
2,note_on,62,0,108
2,note_on,61,42,0
2,note_on,62,37,120
2,note_on,61,0,12
2,note_on,62,0,108
2,note_on,60,42,0
2,note_on,62,36,120
2,note_on,60,0,12
2,note_on,62,0,108
2,note_on,60,42,0
2,note_on,62,37,120
2,note_on,60,0,12
2,note_on,62,0,108
2,note_on,60,42,0
2,note_on,62,37,120
2,note_on,60,0,12
2,note_on,62,0,108
2,note_on,60,42,0
2,note_on,62,38,120
2,note_on,60,0,12
2,note_on,62,0,108
2,note_on,59,42,0
2,note_on,59,0,120
2,note_on,62,36,0
2,note_on,62,0,120
2,note_on,59,42,0
2,note_on,59,0,120
2,note_on,62,36,0
2,note_on,62,0,120
2,note_on,59,42,0
2,note_on,59,0,120
2,note_on,62,32,0
2,note_on,62,0,120
2,note_on,59,38,0
2,note_on,59,0,120
2,note_on,62,33,0
2,note_on,62,0,120
2,note_on,59,39,0
2,note_on,59,0,120
2,note_on,62,32,0
2,note_on,62,0,120
2,note_on,59,39,0
2,note_on,59,0,120
2,note_on,62,34,0
2,note_on,62,0,120
2,note_on,59,42,0
2,note_on,59,0,120
2,note_on,62,37,0
2,note_on,62,0,120
2,note_on,59,42,0
2,note_on,59,0,120
2,note_on,62,38,0
2,note_on,62,0,120
2,note_on,60,46,0
2,note_on,60,0,120
2,note_on,62,38,0
2,note_on,62,0,120
2,note_on,59,42,0
2,note_on,59,0,120
2,note_on,62,36,0
2,note_on,62,0,120
2,note_on,57,39,0
2,note_on,62,27,120
2,note_on,57,0,12
2,note_on,62,0,108
2,note_on,59,47,0
2,note_on,62,35,120
2,note_on,59,0,12
2,note_on,62,0,108
2,note_on,60,50,0
2,note_on,62,36,120
2,note_on,60,0,12
2,note_on,62,0,108
2,note_on,59,44,0
2,note_on,62,30,120
2,note_on,59,0,12
2,note_on,62,0,108
2,note_on,60,52,0
2,note_on,62,31,120
2,note_on,60,0,12
2,note_on,62,0,108
2,note_on,57,40,0
2,note_on,62,28,120
2,note_on,57,0,12
2,note_on,62,0,108
2,note_on,59,42,0
2,note_on,59,0,120
2,note_on,62,36,0
2,note_on,62,0,120
2,note_on,59,42,0
2,note_on,59,0,120
2,note_on,62,36,0
2,note_on,62,0,120
2,note_on,59,42,0
2,note_on,59,0,120
2,note_on,62,32,0
2,note_on,62,0,120
2,note_on,59,38,0
2,note_on,59,0,120
2,note_on,62,33,0
2,note_on,62,0,120
2,note_on,59,39,0
2,note_on,59,0,120
2,note_on,62,32,0
2,note_on,62,0,120
2,note_on,59,39,0
2,note_on,59,0,120
2,note_on,62,34,0
2,note_on,62,0,120
2,note_on,59,42,0
2,note_on,59,0,120
2,note_on,62,37,0
2,note_on,62,0,120
2,note_on,59,42,0
2,note_on,59,0,120
2,note_on,62,38,0
2,note_on,62,0,120
2,note_on,60,42,0
2,note_on,60,0,120
2,note_on,62,36,0
2,note_on,62,0,120
2,note_on,59,42,0
2,note_on,59,0,120
2,note_on,62,36,0
2,note_on,62,0,120
2,note_on,57,39,0
2,note_on,62,29,120
2,note_on,57,0,12
2,note_on,62,0,108
2,note_on,59,42,0
2,note_on,62,32,120
2,note_on,59,0,12
2,note_on,62,0,108
2,note_on,60,48,0
2,note_on,62,36,120
2,note_on,60,0,12
2,note_on,62,0,108
2,note_on,59,43,0
2,note_on,62,30,120
2,note_on,59,0,12
2,note_on,62,0,108
2,note_on,60,48,0
2,note_on,62,36,120
2,note_on,60,0,12
2,note_on,62,0,108
2,note_on,57,43,0
2,note_on,62,30,120
2,note_on,57,0,12
2,note_on,62,0,108
2,note_on,59,39,120
2,note_on,59,0,120
2,note_on,62,42,0
2,note_on,62,0,120
2,note_on,67,39,0
2,note_on,67,0,120
2,note_on,71,48,0
2,note_on,71,0,480
2,note_on,60,42,120
2,note_on,60,0,120
2,note_on,64,44,0
2,note_on,64,0,120
2,note_on,67,41,0
2,note_on,67,0,120
2,note_on,72,52,0
2,note_on,72,0,480
2,note_on,57,39,120
2,note_on,57,0,120
2,note_on,60,42,0
2,note_on,60,0,120
2,note_on,66,39,0
2,note_on,66,0,120
2,note_on,69,48,0
2,note_on,69,0,480
2,note_on,59,42,120
2,note_on,59,0,120
2,note_on,62,44,0
2,note_on,62,0,120
2,note_on,66,41,0
2,note_on,66,0,120
2,note_on,71,52,0
2,note_on,71,0,480
2,note_on,55,39,120
2,note_on,55,0,120
2,note_on,59,42,0
2,note_on,59,0,120
2,note_on,64,39,0
2,note_on,64,0,120
2,note_on,67,48,0
2,note_on,67,0,480
2,note_on,57,42,120
2,note_on,57,0,120
2,note_on,60,44,0
2,note_on,60,0,120
2,note_on,64,41,0
2,note_on,64,0,120
2,note_on,69,52,0
2,note_on,69,0,480
2,note_on,54,39,120
2,note_on,54,0,120
2,note_on,57,42,0
2,note_on,57,0,120
2,note_on,62,39,0
2,note_on,62,0,120
2,note_on,66,48,0
2,note_on,66,0,480
2,note_on,55,42,120
2,note_on,55,0,120
2,note_on,59,44,0
2,note_on,59,0,120
2,note_on,62,41,0
2,note_on,62,0,120
2,note_on,67,52,0
2,note_on,67,0,480
2,note_on,60,44,0
2,note_on,64,44,0
2,note_on,64,0,120
2,note_on,60,0,0
2,note_on,60,39,120
2,note_on,64,39,0
2,note_on,64,0,120
2,note_on,60,0,0
2,note_on,60,39,120
2,note_on,64,39,0
2,note_on,64,0,120
2,note_on,60,0,0
2,note_on,60,39,120
2,note_on,64,39,0
2,note_on,64,0,120
2,note_on,60,0,0
2,note_on,60,44,120
2,note_on,64,44,0
2,note_on,64,0,120
2,note_on,60,0,0
2,note_on,60,40,120
2,note_on,64,40,0
2,note_on,64,0,120
2,note_on,60,0,0
2,note_on,60,40,120
2,note_on,64,40,0
2,note_on,64,0,120
2,note_on,60,0,0
2,note_on,60,41,120
2,note_on,64,41,0
2,note_on,64,0,120
2,note_on,60,0,0
2,note_on,60,50,120
2,note_on,64,50,0
2,note_on,64,0,120
2,note_on,60,0,0
2,note_on,60,44,120
2,note_on,64,44,0
2,note_on,64,0,120
2,note_on,60,0,0
2,note_on,60,44,120
2,note_on,64,44,0
2,note_on,64,0,120
2,note_on,60,0,0
2,note_on,60,44,120
2,note_on,64,44,0
2,note_on,64,0,120
2,note_on,60,0,0
2,note_on,60,49,120
2,note_on,64,49,0
2,note_on,64,0,120
2,note_on,60,0,0
2,note_on,60,46,120
2,note_on,64,46,0
2,note_on,64,0,120
2,note_on,60,0,0
2,note_on,60,46,120
2,note_on,64,46,0
2,note_on,64,0,120
2,note_on,60,0,0
2,note_on,60,46,120
2,note_on,64,46,0
2,note_on,64,0,120
2,note_on,60,0,0
2,note_on,62,50,120
2,note_on,62,0,120
2,note_on,71,42,0
2,note_on,71,0,120
2,note_on,67,42,0
2,note_on,67,0,120
2,note_on,71,42,0
2,note_on,71,0,120
2,note_on,62,49,0
2,note_on,62,0,120
2,note_on,71,42,0
2,note_on,71,0,120
2,note_on,67,42,0
2,note_on,67,0,120
2,note_on,71,42,0
2,note_on,71,0,120
2,note_on,62,48,0
2,note_on,62,0,120
2,note_on,71,42,0
2,note_on,71,0,120
2,note_on,67,42,0
2,note_on,67,0,120
2,note_on,71,42,0
2,note_on,71,0,120
2,note_on,62,49,0
2,note_on,62,0,120
2,note_on,71,42,0
2,note_on,71,0,120
2,note_on,67,42,0
2,note_on,67,0,120
2,note_on,71,42,0
2,note_on,71,0,120
2,note_on,62,50,0
2,note_on,62,0,120
2,note_on,72,42,0
2,note_on,72,0,120
2,note_on,66,42,0
2,note_on,66,0,120
2,note_on,72,42,0
2,note_on,72,0,120
2,note_on,62,49,0
2,note_on,62,0,120
2,note_on,72,42,0
2,note_on,72,0,120
2,note_on,66,42,0
2,note_on,66,0,120
2,note_on,72,42,0
2,note_on,72,0,120
2,note_on,62,48,0
2,note_on,62,0,120
2,note_on,72,42,0
2,note_on,72,0,120
2,note_on,66,42,0
2,note_on,66,0,120
2,note_on,72,42,0
2,note_on,72,0,120
2,note_on,62,49,0
2,note_on,62,0,120
2,note_on,72,42,0
2,note_on,72,0,120
2,note_on,66,42,0
2,note_on,66,0,120
2,note_on,72,42,0
2,note_on,72,0,120
2,note_on,67,49,0
2,note_on,71,58,0
2,note_on,71,0,480
2,note_on,67,0,0
2,note_on,62,40,960
2,note_on,69,40,0
2,note_on,72,48,0
2,note_on,72,0,480
2,note_on,69,0,0
2,note_on,62,0,0
2,note_on,67,49,0
2,note_on,71,58,0
2,note_on,71,0,480
2,note_on,67,0,0
2,note_on,50,40,960
2,note_on,57,40,0
2,note_on,60,48,0
2,note_on,60,0,480
2,note_on,57,0,0
2,note_on,50,0,0
2,note_on,55,44,0
2,note_on,59,52,0
2,note_on,59,0,120
2,note_on,55,0,0
2,note_on,43,44,360
2,note_on,55,52,0
2,note_on,55,0,120
2,note_on,43,0,0
2,note_on,43,44,360
2,note_on,55,52,0
2,note_on,55,0,480
2,note_on,43,0,0
2,note_on,60,40,480
2,note_on,60,0,240
2,note_on,67,30,0
2,note_on,67,0,240
2,note_on,64,30,0
2,note_on,64,0,240
2,note_on,67,30,0
2,note_on,67,0,240
2,note_on,60,40,0
2,note_on,60,0,240
2,note_on,67,30,0
2,note_on,67,0,240
2,note_on,64,30,0
2,note_on,64,0,240
2,note_on,67,30,0
2,note_on,67,0,240
2,note_on,62,30,0
2,note_on,62,0,240
2,note_on,67,29,0
2,note_on,67,0,240
2,note_on,65,31,0
2,note_on,65,0,240
2,note_on,67,28,0
2,note_on,67,0,240
2,note_on,60,40,0
2,note_on,60,0,240
2,note_on,67,29,0
2,note_on,67,0,240
2,note_on,64,32,0
2,note_on,64,0,240
2,note_on,67,29,0
2,note_on,67,0,240
2,note_on,60,40,0
2,note_on,60,0,240
2,note_on,69,32,0
2,note_on,69,0,240
2,note_on,65,32,0
2,note_on,65,0,240
2,note_on,69,32,0
2,note_on,69,0,240
2,note_on,60,40,0
2,note_on,60,0,240
2,note_on,67,32,0
2,note_on,67,0,240
2,note_on,64,32,0
2,note_on,64,0,240
2,note_on,67,32,0
2,note_on,67,0,240
2,note_on,59,40,0
2,note_on,59,0,240
2,note_on,67,32,0
2,note_on,67,0,240
2,note_on,62,32,0
2,note_on,62,0,240
2,note_on,67,32,0
2,note_on,67,0,240
2,note_on,60,40,0
2,note_on,60,0,240
2,note_on,67,34,0
2,note_on,67,0,240
2,note_on,64,34,0
2,note_on,64,0,240
2,note_on,67,34,0
2,note_on,67,0,240
2,note_on,65,40,0
2,note_on,65,0,480
2,note_on,53,40,960
2,note_on,60,40,0
2,note_on,60,0,480
2,note_on,53,0,0
2,note_on,52,40,0
2,note_on,60,40,0
2,note_on,60,0,480
2,note_on,52,0,0
2,note_on,52,40,960
2,note_on,60,40,0
2,note_on,60,0,480
2,note_on,52,0,0
2,note_on,50,40,0
2,note_on,60,40,0
2,note_on,60,0,480
2,note_on,50,0,0
2,note_on,50,40,960
2,note_on,59,40,0
2,note_on,59,0,480
2,note_on,50,0,0
2,note_on,48,40,0
2,note_on,60,40,0
2,note_on,60,0,480
2,note_on,48,0,0
2,note_on,52,40,960
2,note_on,48,40,0
2,note_on,48,0,480
2,note_on,52,0,0
2,note_on,53,40,0
2,note_on,57,40,0
2,note_on,57,0,1920
2,note_on,53,0,0
2,note_on,53,60,0
2,note_on,53,0,720
2,note_on,55,55,0
2,note_on,55,0,240
2,note_on,57,60,0
2,note_on,57,0,720
2,note_on,54,54,0
2,note_on,54,0,240
2,note_on,43,65,0
2,note_on,43,0,120
2,note_on,47,56,0
2,note_on,47,0,120
2,note_on,50,56,0
2,note_on,50,0,120
2,note_on,55,50,0
2,note_on,55,0,120
2,note_on,43,65,0
2,note_on,43,0,120
2,note_on,48,55,0
2,note_on,48,0,120
2,note_on,52,55,0
2,note_on,52,0,120
2,note_on,55,50,0
2,note_on,55,0,120
2,note_on,43,65,0
2,note_on,43,0,120
2,note_on,47,55,0
2,note_on,47,0,120
2,note_on,50,55,0
2,note_on,50,0,120
2,note_on,55,54,0
2,note_on,55,0,120
2,note_on,43,65,0
2,note_on,43,0,120
2,note_on,48,57,0
2,note_on,48,0,120
2,note_on,52,56,0
2,note_on,52,0,120
2,note_on,55,53,0
2,note_on,55,0,120
2,note_on,43,65,0
2,note_on,43,0,120
2,note_on,55,59,360
2,note_on,55,0,120
2,note_on,43,61,360
2,note_on,43,0,480
2,note_on,61,42,480
2,note_on,62,36,120
2,note_on,61,0,12
2,note_on,62,0,108
2,note_on,61,42,0
2,note_on,62,36,120
2,note_on,61,0,12
2,note_on,62,0,108
2,note_on,61,42,0
2,note_on,62,38,120
2,note_on,61,0,12
2,note_on,62,0,108
2,note_on,61,42,0
2,note_on,62,37,120
2,note_on,61,0,12
2,note_on,62,0,108
2,note_on,60,42,0
2,note_on,62,36,120
2,note_on,60,0,12
2,note_on,62,0,108
2,note_on,60,42,0
2,note_on,62,37,120
2,note_on,60,0,12
2,note_on,62,0,108
2,note_on,60,42,0
2,note_on,62,37,120
2,note_on,60,0,12
2,note_on,62,0,108
2,note_on,60,42,0
2,note_on,62,38,120
2,note_on,60,0,12
2,note_on,62,0,108
2,note_on,59,42,0
2,note_on,59,0,120
2,note_on,62,36,0
2,note_on,62,0,120
2,note_on,59,42,0
2,note_on,59,0,120
2,note_on,62,36,0
2,note_on,62,0,120
2,note_on,59,42,0
2,note_on,59,0,120
2,note_on,62,32,0
2,note_on,62,0,120
2,note_on,59,38,0
2,note_on,59,0,120
2,note_on,62,33,0
2,note_on,62,0,120
2,note_on,59,39,0
2,note_on,59,0,120
2,note_on,62,32,0
2,note_on,62,0,120
2,note_on,59,39,0
2,note_on,59,0,120
2,note_on,62,34,0
2,note_on,62,0,120
2,note_on,59,42,0
2,note_on,59,0,120
2,note_on,62,37,0
2,note_on,62,0,120
2,note_on,59,42,0
2,note_on,59,0,120
2,note_on,62,38,0
2,note_on,62,0,120
2,note_on,60,46,0
2,note_on,60,0,120
2,note_on,62,38,0
2,note_on,62,0,120
2,note_on,59,42,0
2,note_on,59,0,120
2,note_on,62,36,0
2,note_on,62,0,120
2,note_on,57,39,0
2,note_on,62,27,120
2,note_on,57,0,12
2,note_on,62,0,108
2,note_on,59,47,0
2,note_on,62,35,120
2,note_on,59,0,12
2,note_on,62,0,108
2,note_on,60,50,0
2,note_on,62,36,120
2,note_on,60,0,12
2,note_on,62,0,108
2,note_on,59,44,0
2,note_on,62,30,120
2,note_on,59,0,12
2,note_on,62,0,108
2,note_on,60,52,0
2,note_on,62,31,120
2,note_on,60,0,12
2,note_on,62,0,108
2,note_on,57,40,0
2,note_on,62,28,120
2,note_on,57,0,12
2,note_on,62,0,108
2,note_on,59,42,0
2,note_on,59,0,120
2,note_on,62,36,0
2,note_on,62,0,120
2,note_on,59,42,0
2,note_on,59,0,120
2,note_on,62,36,0
2,note_on,62,0,120
2,note_on,59,42,0
2,note_on,59,0,120
2,note_on,62,32,0
2,note_on,62,0,120
2,note_on,59,38,0
2,note_on,59,0,120
2,note_on,62,33,0
2,note_on,62,0,120
2,note_on,59,39,0
2,note_on,59,0,120
2,note_on,62,32,0
2,note_on,62,0,120
2,note_on,59,39,0
2,note_on,59,0,120
2,note_on,62,34,0
2,note_on,62,0,120
2,note_on,59,42,0
2,note_on,59,0,120
2,note_on,62,37,0
2,note_on,62,0,120
2,note_on,59,42,0
2,note_on,59,0,120
2,note_on,62,38,0
2,note_on,62,0,120
2,note_on,60,42,0
2,note_on,60,0,120
2,note_on,62,36,0
2,note_on,62,0,120
2,note_on,59,42,0
2,note_on,59,0,120
2,note_on,62,36,0
2,note_on,62,0,120
2,note_on,57,39,0
2,note_on,62,29,120
2,note_on,57,0,12
2,note_on,62,0,108
2,note_on,59,42,0
2,note_on,62,32,120
2,note_on,59,0,12
2,note_on,62,0,108
2,note_on,60,48,0
2,note_on,62,36,120
2,note_on,60,0,12
2,note_on,62,0,108
2,note_on,59,43,0
2,note_on,62,30,120
2,note_on,59,0,12
2,note_on,62,0,108
2,note_on,60,48,0
2,note_on,62,36,120
2,note_on,60,0,12
2,note_on,62,0,108
2,note_on,57,43,0
2,note_on,62,30,120
2,note_on,57,0,12
2,note_on,62,0,108
2,note_on,59,39,120
2,note_on,59,0,120
2,note_on,62,42,0
2,note_on,62,0,120
2,note_on,67,39,0
2,note_on,67,0,120
2,note_on,71,48,0
2,note_on,71,0,480
2,note_on,60,42,120
2,note_on,60,0,120
2,note_on,64,44,0
2,note_on,64,0,120
2,note_on,67,41,0
2,note_on,67,0,120
2,note_on,72,52,0
2,note_on,72,0,480
2,note_on,57,39,120
2,note_on,57,0,120
2,note_on,60,42,0
2,note_on,60,0,120
2,note_on,66,39,0
2,note_on,66,0,120
2,note_on,69,48,0
2,note_on,69,0,480
2,note_on,59,42,120
2,note_on,59,0,120
2,note_on,62,44,0
2,note_on,62,0,120
2,note_on,66,41,0
2,note_on,66,0,120
2,note_on,71,52,0
2,note_on,71,0,480
2,note_on,55,39,120
2,note_on,55,0,120
2,note_on,59,42,0
2,note_on,59,0,120
2,note_on,64,39,0
2,note_on,64,0,120
2,note_on,67,48,0
2,note_on,67,0,480
2,note_on,57,42,120
2,note_on,57,0,120
2,note_on,60,44,0
2,note_on,60,0,120
2,note_on,64,41,0
2,note_on,64,0,120
2,note_on,69,52,0
2,note_on,69,0,480
2,note_on,54,39,120
2,note_on,54,0,120
2,note_on,57,42,0
2,note_on,57,0,120
2,note_on,62,39,0
2,note_on,62,0,120
2,note_on,66,48,0
2,note_on,66,0,480
2,note_on,55,42,120
2,note_on,55,0,120
2,note_on,59,44,0
2,note_on,59,0,120
2,note_on,62,41,0
2,note_on,62,0,120
2,note_on,67,52,0
2,note_on,67,0,480
2,note_on,64,44,0
2,note_on,60,44,0
2,note_on,60,0,120
2,note_on,64,0,0
2,note_on,64,39,120
2,note_on,60,39,0
2,note_on,60,0,120
2,note_on,64,0,0
2,note_on,64,39,120
2,note_on,60,39,0
2,note_on,60,0,120
2,note_on,64,0,0
2,note_on,60,39,120
2,note_on,64,39,0
2,note_on,64,0,120
2,note_on,60,0,0
2,note_on,60,44,120
2,note_on,64,44,0
2,note_on,64,0,120
2,note_on,60,0,0
2,note_on,60,40,120
2,note_on,64,40,0
2,note_on,64,0,120
2,note_on,60,0,0
2,note_on,64,40,120
2,note_on,60,40,0
2,note_on,60,0,120
2,note_on,64,0,0
2,note_on,60,41,120
2,note_on,64,41,0
2,note_on,64,0,120
2,note_on,60,0,0
2,note_on,64,50,120
2,note_on,60,50,0
2,note_on,60,0,120
2,note_on,64,0,0
2,note_on,64,44,120
2,note_on,60,44,0
2,note_on,60,0,120
2,note_on,64,0,0
2,note_on,64,44,120
2,note_on,60,44,0
2,note_on,60,0,120
2,note_on,64,0,0
2,note_on,60,44,120
2,note_on,64,44,0
2,note_on,64,0,120
2,note_on,60,0,0
2,note_on,60,49,120
2,note_on,64,49,0
2,note_on,64,0,120
2,note_on,60,0,0
2,note_on,64,46,120
2,note_on,60,46,0
2,note_on,60,0,120
2,note_on,64,0,0
2,note_on,60,46,120
2,note_on,64,46,0
2,note_on,64,0,120
2,note_on,60,0,0
2,note_on,60,46,120
2,note_on,64,46,0
2,note_on,64,0,120
2,note_on,60,0,0
2,note_on,62,50,120
2,note_on,62,0,120
2,note_on,71,42,0
2,note_on,71,0,120
2,note_on,67,42,0
2,note_on,67,0,120
2,note_on,71,42,0
2,note_on,71,0,120
2,note_on,62,49,0
2,note_on,62,0,120
2,note_on,71,42,0
2,note_on,71,0,120
2,note_on,67,42,0
2,note_on,67,0,120
2,note_on,71,42,0
2,note_on,71,0,120
2,note_on,62,48,0
2,note_on,62,0,120
2,note_on,71,42,0
2,note_on,71,0,120
2,note_on,67,42,0
2,note_on,67,0,120
2,note_on,71,42,0
2,note_on,71,0,120
2,note_on,62,49,0
2,note_on,62,0,120
2,note_on,71,42,0
2,note_on,71,0,120
2,note_on,67,42,0
2,note_on,67,0,120
2,note_on,71,42,0
2,note_on,71,0,120
2,note_on,62,50,0
2,note_on,62,0,120
2,note_on,72,42,0
2,note_on,72,0,120
2,note_on,66,42,0
2,note_on,66,0,120
2,note_on,72,42,0
2,note_on,72,0,120
2,note_on,62,49,0
2,note_on,62,0,120
2,note_on,72,42,0
2,note_on,72,0,120
2,note_on,66,42,0
2,note_on,66,0,120
2,note_on,72,42,0
2,note_on,72,0,120
2,note_on,62,48,0
2,note_on,62,0,120
2,note_on,72,42,0
2,note_on,72,0,120
2,note_on,66,42,0
2,note_on,66,0,120
2,note_on,72,42,0
2,note_on,72,0,120
2,note_on,62,49,0
2,note_on,62,0,120
2,note_on,72,42,0
2,note_on,72,0,120
2,note_on,66,42,0
2,note_on,66,0,120
2,note_on,72,42,0
2,note_on,72,0,120
2,note_on,71,58,0
2,note_on,67,49,0
2,note_on,67,0,480
2,note_on,71,0,0
2,note_on,69,40,960
2,note_on,72,48,0
2,note_on,62,40,0
2,note_on,62,0,480
2,note_on,72,0,0
2,note_on,69,0,0
2,note_on,67,49,0
2,note_on,71,58,0
2,note_on,71,0,480
2,note_on,67,0,0
2,note_on,57,40,960
2,note_on,60,48,0
2,note_on,50,40,0
2,note_on,50,0,480
2,note_on,60,0,0
2,note_on,57,0,0
2,note_on,55,44,0
2,note_on,59,52,0
2,note_on,59,0,120
2,note_on,55,0,0
2,note_on,43,44,360
2,note_on,55,52,0
2,note_on,55,0,120
2,note_on,43,0,0
2,note_on,43,44,360
2,note_on,55,52,0
2,note_on,55,0,480
2,note_on,43,0,0
2,note_on,55,58,480
2,note_on,43,49,0
2,note_on,43,0,480
2,note_on,55,0,0
2,note_on,69,40,960
2,note_on,72,48,0
2,note_on,62,40,0
2,note_on,62,0,480
2,note_on,72,0,0
2,note_on,69,0,0
2,note_on,67,49,0
2,note_on,70,58,0
2,note_on,70,0,480
2,note_on,67,0,0
2,note_on,57,40,960
2,note_on,60,48,0
2,note_on,50,40,0
2,note_on,50,0,480
2,note_on,60,0,0
2,note_on,57,0,0
2,note_on,43,49,120
2,note_on,45,51,120
2,note_on,43,0,12
2,note_on,46,52,108
2,note_on,45,0,12
2,note_on,48,54,108
2,note_on,46,0,12
2,note_on,50,56,108
2,note_on,48,0,12
2,note_on,52,58,108
2,note_on,50,0,12
2,note_on,54,60,108
2,note_on,52,0,12
2,note_on,55,61,108
2,note_on,54,0,12
2,note_on,55,0,468
2,note_on,45,53,600
2,note_on,47,55,120
2,note_on,45,0,12
2,note_on,49,57,108
2,note_on,47,0,12
2,note_on,50,60,108
2,note_on,49,0,12
2,note_on,52,62,108
2,note_on,50,0,12
2,note_on,54,64,108
2,note_on,52,0,12
2,note_on,56,66,108
2,note_on,54,0,12
2,note_on,57,68,108
2,note_on,56,0,12
2,note_on,57,0,468
2,note_on,50,71,480
2,note_on,38,71,0
2,note_on,38,0,480
2,note_on,50,0,0
2,note_on,64,44,960
2,note_on,67,52,0
2,note_on,57,44,0
2,note_on,57,0,480
2,note_on,67,0,0
2,note_on,64,0,0
2,note_on,62,53,0
2,note_on,65,63,0
2,note_on,62,0,475
2,note_on,65,0,5
2,note_on,52,40,960
2,note_on,55,48,0
2,note_on,45,40,0
2,note_on,45,0,480
2,note_on,55,0,0
2,note_on,52,0,0
2,note_on,50,62,0
2,note_on,53,62,0
2,note_on,53,0,480
2,note_on,50,0,0
2,note_on,62,53,600
2,note_on,65,63,120
2,note_on,62,0,12
2,note_on,64,61,108
2,note_on,65,0,12
2,note_on,62,59,108
2,note_on,64,0,12
2,note_on,60,56,108
2,note_on,62,0,12
2,note_on,59,54,108
2,note_on,60,0,12
2,note_on,57,52,108
2,note_on,59,0,12
2,note_on,56,57,108
2,note_on,57,0,12
2,note_on,56,0,468
2,note_on,56,52,600
2,note_on,59,61,120
2,note_on,56,0,12
2,note_on,57,59,108
2,note_on,59,0,12
2,note_on,56,57,108
2,note_on,57,0,12
2,note_on,53,55,108
2,note_on,56,0,12
2,note_on,52,53,108
2,note_on,53,0,12
2,note_on,50,50,108
2,note_on,52,0,12
2,note_on,48,57,108
2,note_on,50,0,12
2,note_on,48,0,468
2,note_on,62,58,600
2,note_on,69,66,120
2,note_on,62,0,12
2,note_on,67,64,108
2,note_on,69,0,12
2,note_on,65,62,108
2,note_on,67,0,12
2,note_on,64,61,108
2,note_on,65,0,12
2,note_on,62,59,108
2,note_on,64,0,12
2,note_on,60,58,108
2,note_on,62,0,12
2,note_on,59,68,108
2,note_on,60,0,12
2,note_on,59,0,468
2,note_on,60,50,600
2,note_on,67,58,120
2,note_on,60,0,12
2,note_on,65,56,108
2,note_on,67,0,12
2,note_on,64,55,108
2,note_on,65,0,12
2,note_on,62,53,108
2,note_on,64,0,12
2,note_on,60,51,108
2,note_on,62,0,12
2,note_on,59,49,108
2,note_on,60,0,12
2,note_on,57,57,108
2,note_on,59,0,12
2,note_on,57,0,468
2,note_on,59,50,600
2,note_on,65,56,120
2,note_on,59,0,12
2,note_on,64,54,108
2,note_on,65,0,12
2,note_on,62,53,108
2,note_on,64,0,12
2,note_on,60,51,108
2,note_on,62,0,12
2,note_on,59,49,108
2,note_on,60,0,12
2,note_on,57,48,108
2,note_on,59,0,12
2,note_on,56,54,108
2,note_on,57,0,12
2,note_on,56,0,468
2,note_on,57,44,600
2,note_on,60,52,120
2,note_on,57,0,12
2,note_on,59,50,108
2,note_on,60,0,12
2,note_on,57,48,108
2,note_on,59,0,12
2,note_on,55,46,108
2,note_on,57,0,12
2,note_on,53,45,108
2,note_on,55,0,12
2,note_on,52,43,108
2,note_on,53,0,12
2,note_on,50,51,108
2,note_on,52,0,12
2,note_on,50,0,948
2,note_on,48,46,0
2,note_on,55,46,0
2,note_on,58,57,0
2,note_on,58,0,960
2,note_on,55,0,0
2,note_on,48,0,0
2,note_on,65,40,0
2,note_on,65,0,240
2,note_on,72,30,0
2,note_on,72,0,240
2,note_on,69,30,0
2,note_on,69,0,240
2,note_on,72,30,0
2,note_on,72,0,240
2,note_on,65,40,0
2,note_on,65,0,240
2,note_on,72,30,0
2,note_on,72,0,240
2,note_on,69,30,0
2,note_on,69,0,240
2,note_on,72,30,0
2,note_on,72,0,240
2,note_on,67,30,0
2,note_on,67,0,240
2,note_on,72,29,0
2,note_on,72,0,240
2,note_on,70,31,0
2,note_on,70,0,240
2,note_on,72,28,0
2,note_on,72,0,240
2,note_on,65,40,0
2,note_on,65,0,240
2,note_on,72,29,0
2,note_on,72,0,240
2,note_on,69,32,0
2,note_on,69,0,240
2,note_on,72,29,0
2,note_on,72,0,240
2,note_on,65,40,0
2,note_on,65,0,240
2,note_on,74,32,0
2,note_on,74,0,240
2,note_on,70,32,0
2,note_on,70,0,240
2,note_on,74,32,0
2,note_on,74,0,240
2,note_on,65,40,0
2,note_on,65,0,240
2,note_on,72,32,0
2,note_on,72,0,240
2,note_on,69,32,0
2,note_on,69,0,240
2,note_on,72,32,0
2,note_on,72,0,240
2,note_on,64,40,0
2,note_on,64,0,240
2,note_on,72,32,0
2,note_on,72,0,240
2,note_on,67,32,0
2,note_on,67,0,240
2,note_on,72,32,0
2,note_on,72,0,240
2,note_on,65,40,0
2,note_on,65,0,240
2,note_on,72,34,0
2,note_on,72,0,240
2,note_on,69,34,0
2,note_on,69,0,240
2,note_on,72,34,0
2,note_on,72,0,240
2,note_on,70,40,0
2,note_on,70,0,480
2,note_on,58,40,960
2,note_on,65,40,0
2,note_on,65,0,480
2,note_on,58,0,0
2,note_on,57,40,0
2,note_on,65,40,0
2,note_on,65,0,480
2,note_on,57,0,0
2,note_on,57,40,960
2,note_on,65,40,0
2,note_on,65,0,480
2,note_on,57,0,0
2,note_on,55,40,0
2,note_on,65,40,0
2,note_on,65,0,480
2,note_on,55,0,0
2,note_on,55,40,960
2,note_on,64,40,0
2,note_on,64,0,480
2,note_on,55,0,0
2,note_on,53,40,0
2,note_on,65,40,0
2,note_on,65,0,480
2,note_on,53,0,0
2,note_on,53,48,1440
2,note_on,53,0,240
2,note_on,55,42,0
2,note_on,57,42,120
2,note_on,55,0,12
2,note_on,58,43,108
2,note_on,57,0,12
2,note_on,60,45,108
2,note_on,58,0,12
2,note_on,62,46,108
2,note_on,60,0,12
2,note_on,64,47,108
2,note_on,62,0,12
2,note_on,65,49,108
2,note_on,64,0,12
2,note_on,64,48,108
2,note_on,65,0,12
2,note_on,62,48,108
2,note_on,64,0,12
2,note_on,60,47,108
2,note_on,62,0,12
2,note_on,58,46,108
2,note_on,60,0,12
2,note_on,57,45,108
2,note_on,58,0,12
2,note_on,55,43,108
2,note_on,57,0,12
2,note_on,53,42,108
2,note_on,55,0,12
2,note_on,52,48,108
2,note_on,53,0,12
2,note_on,52,0,228
2,note_on,53,42,0
2,note_on,55,42,120
2,note_on,53,0,12
2,note_on,57,43,108
2,note_on,55,0,12
2,note_on,59,45,108
2,note_on,57,0,12
2,note_on,60,46,108
2,note_on,59,0,12
2,note_on,62,47,108
2,note_on,60,0,12
2,note_on,64,49,108
2,note_on,62,0,12
2,note_on,62,48,108
2,note_on,64,0,12
2,note_on,60,48,108
2,note_on,62,0,12
2,note_on,59,47,108
2,note_on,60,0,12
2,note_on,57,46,108
2,note_on,59,0,12
2,note_on,55,45,108
2,note_on,57,0,12
2,note_on,53,43,108
2,note_on,55,0,12
2,note_on,52,42,108
2,note_on,53,0,12
2,note_on,50,48,108
2,note_on,52,0,12
2,note_on,50,0,228
2,note_on,52,42,0
2,note_on,53,42,120
2,note_on,52,0,12
2,note_on,55,43,108
2,note_on,53,0,12
2,note_on,57,45,108
2,note_on,55,0,12
2,note_on,59,46,108
2,note_on,57,0,12
2,note_on,60,47,108
2,note_on,59,0,12
2,note_on,62,49,108
2,note_on,60,0,12
2,note_on,60,48,108
2,note_on,62,0,12
2,note_on,59,48,108
2,note_on,60,0,12
2,note_on,57,47,108
2,note_on,59,0,12
2,note_on,55,46,108
2,note_on,57,0,12
2,note_on,53,45,108
2,note_on,55,0,12
2,note_on,52,43,108
2,note_on,53,0,12
2,note_on,50,42,108
2,note_on,52,0,12
2,note_on,48,48,108
2,note_on,50,0,12
2,note_on,48,0,228
2,note_on,50,42,0
2,note_on,52,42,120
2,note_on,50,0,12
2,note_on,53,43,108
2,note_on,52,0,12
2,note_on,55,45,108
2,note_on,53,0,12
2,note_on,57,46,108
2,note_on,55,0,12
2,note_on,59,47,108
2,note_on,57,0,12
2,note_on,60,49,108
2,note_on,59,0,12
2,note_on,59,48,108
2,note_on,60,0,12
2,note_on,57,48,108
2,note_on,59,0,12
2,note_on,55,47,108
2,note_on,57,0,12
2,note_on,53,46,108
2,note_on,55,0,12
2,note_on,52,45,108
2,note_on,53,0,12
2,note_on,50,43,108
2,note_on,52,0,12
2,note_on,48,42,108
2,note_on,50,0,12
2,note_on,53,38,108
2,note_on,57,38,0
2,note_on,48,0,12
2,note_on,57,0,1908
2,note_on,53,0,0
2,note_on,53,60,0
2,note_on,53,0,720
2,note_on,55,55,0
2,note_on,55,0,240
2,note_on,57,60,0
2,note_on,57,0,720
2,note_on,54,54,0
2,note_on,54,0,240
2,note_on,43,65,0
2,note_on,43,0,120
2,note_on,47,56,0
2,note_on,47,0,120
2,note_on,50,56,0
2,note_on,50,0,120
2,note_on,55,50,0
2,note_on,55,0,120
2,note_on,43,65,0
2,note_on,43,0,120
2,note_on,48,55,0
2,note_on,48,0,120
2,note_on,52,55,0
2,note_on,52,0,120
2,note_on,55,50,0
2,note_on,55,0,120
2,note_on,43,65,0
2,note_on,43,0,120
2,note_on,47,55,0
2,note_on,47,0,120
2,note_on,50,55,0
2,note_on,50,0,120
2,note_on,55,54,0
2,note_on,55,0,120
2,note_on,43,65,0
2,note_on,43,0,120
2,note_on,48,57,0
2,note_on,48,0,120
2,note_on,52,56,0
2,note_on,52,0,120
2,note_on,55,53,0
2,note_on,55,0,120
2,note_on,43,65,0
2,note_on,43,0,120
2,note_on,55,59,360
2,note_on,55,0,120
2,note_on,43,61,360
2,note_on,43,0,480
2,note_on,66,42,480
2,note_on,67,36,120
2,note_on,66,0,12
2,note_on,67,0,108
2,note_on,66,42,0
2,note_on,67,36,120
2,note_on,66,0,12
2,note_on,67,0,108
2,note_on,66,42,0
2,note_on,67,38,120
2,note_on,66,0,12
2,note_on,67,0,108
2,note_on,66,42,0
2,note_on,67,37,120
2,note_on,66,0,12
2,note_on,67,0,108
2,note_on,65,42,0
2,note_on,67,36,120
2,note_on,65,0,12
2,note_on,67,0,108
2,note_on,65,42,0
2,note_on,67,37,120
2,note_on,65,0,12
2,note_on,67,0,108
2,note_on,65,42,0
2,note_on,67,37,120
2,note_on,65,0,12
2,note_on,67,0,108
2,note_on,65,42,0
2,note_on,67,38,120
2,note_on,65,0,12
2,note_on,67,0,108
2,note_on,64,42,0
2,note_on,64,0,120
2,note_on,67,36,0
2,note_on,67,0,120
2,note_on,64,42,0
2,note_on,64,0,120
2,note_on,67,36,0
2,note_on,67,0,120
2,note_on,64,42,0
2,note_on,64,0,120
2,note_on,67,32,0
2,note_on,67,0,120
2,note_on,64,38,0
2,note_on,64,0,120
2,note_on,67,33,0
2,note_on,67,0,120
2,note_on,64,39,0
2,note_on,64,0,120
2,note_on,67,32,0
2,note_on,67,0,120
2,note_on,64,39,0
2,note_on,64,0,120
2,note_on,67,34,0
2,note_on,67,0,120
2,note_on,64,42,0
2,note_on,64,0,120
2,note_on,67,37,0
2,note_on,67,0,120
2,note_on,64,42,0
2,note_on,64,0,120
2,note_on,67,38,0
2,note_on,67,0,120
2,note_on,65,46,0
2,note_on,65,0,120
2,note_on,67,38,0
2,note_on,67,0,120
2,note_on,64,42,0
2,note_on,64,0,120
2,note_on,67,36,0
2,note_on,67,0,120
2,note_on,62,39,0
2,note_on,67,27,120
2,note_on,62,0,12
2,note_on,67,0,108
2,note_on,64,47,0
2,note_on,67,35,120
2,note_on,64,0,12
2,note_on,67,0,108
2,note_on,65,50,0
2,note_on,67,36,120
2,note_on,65,0,12
2,note_on,67,0,108
2,note_on,64,44,0
2,note_on,67,30,120
2,note_on,64,0,12
2,note_on,67,0,108
2,note_on,65,52,0
2,note_on,67,31,120
2,note_on,65,0,12
2,note_on,67,0,108
2,note_on,62,40,0
2,note_on,67,28,120
2,note_on,62,0,12
2,note_on,67,0,108
2,note_on,64,42,0
2,note_on,64,0,120
2,note_on,67,36,0
2,note_on,67,0,120
2,note_on,64,42,0
2,note_on,64,0,120
2,note_on,67,36,0
2,note_on,67,0,120
2,note_on,64,42,0
2,note_on,64,0,120
2,note_on,67,32,0
2,note_on,67,0,120
2,note_on,64,38,0
2,note_on,64,0,120
2,note_on,67,33,0
2,note_on,67,0,120
2,note_on,64,39,0
2,note_on,64,0,120
2,note_on,67,32,0
2,note_on,67,0,120
2,note_on,64,39,0
2,note_on,64,0,120
2,note_on,67,34,0
2,note_on,67,0,120
2,note_on,64,42,0
2,note_on,64,0,120
2,note_on,67,37,0
2,note_on,67,0,120
2,note_on,64,42,0
2,note_on,64,0,120
2,note_on,67,38,0
2,note_on,67,0,120
2,note_on,65,42,0
2,note_on,65,0,120
2,note_on,67,36,0
2,note_on,67,0,120
2,note_on,64,42,0
2,note_on,64,0,120
2,note_on,67,36,0
2,note_on,67,0,120
2,note_on,62,39,0
2,note_on,67,29,120
2,note_on,62,0,12
2,note_on,67,0,108
2,note_on,64,42,0
2,note_on,67,32,120
2,note_on,64,0,12
2,note_on,67,0,108
2,note_on,65,48,0
2,note_on,67,36,120
2,note_on,65,0,12
2,note_on,67,0,108
2,note_on,64,43,0
2,note_on,67,30,120
2,note_on,64,0,12
2,note_on,67,0,108
2,note_on,65,48,0
2,note_on,67,36,120
2,note_on,65,0,12
2,note_on,67,0,108
2,note_on,62,43,0
2,note_on,67,30,120
2,note_on,62,0,12
2,note_on,67,0,108
2,note_on,52,37,120
2,note_on,52,0,120
2,note_on,55,39,0
2,note_on,55,0,120
2,note_on,60,37,0
2,note_on,60,0,120
2,note_on,64,45,0
2,note_on,64,0,480
2,note_on,53,39,120
2,note_on,53,0,120
2,note_on,57,41,0
2,note_on,57,0,120
2,note_on,60,38,0
2,note_on,60,0,120
2,note_on,65,49,0
2,note_on,65,0,480
2,note_on,50,37,120
2,note_on,50,0,120
2,note_on,53,39,0
2,note_on,53,0,120
2,note_on,59,37,0
2,note_on,59,0,120
2,note_on,62,45,0
2,note_on,62,0,480
2,note_on,52,39,120
2,note_on,52,0,120
2,note_on,55,41,0
2,note_on,55,0,120
2,note_on,59,38,0
2,note_on,59,0,120
2,note_on,64,49,0
2,note_on,64,0,480
2,note_on,60,39,120
2,note_on,60,0,120
2,note_on,64,42,0
2,note_on,64,0,120
2,note_on,69,39,0
2,note_on,69,0,120
2,note_on,72,48,0
2,note_on,72,0,480
2,note_on,62,42,120
2,note_on,62,0,120
2,note_on,65,44,0
2,note_on,65,0,120
2,note_on,69,41,0
2,note_on,69,0,120
2,note_on,74,52,0
2,note_on,74,0,480
2,note_on,59,39,120
2,note_on,59,0,120
2,note_on,62,42,0
2,note_on,62,0,120
2,note_on,67,39,0
2,note_on,67,0,120
2,note_on,71,48,0
2,note_on,71,0,480
2,note_on,60,42,120
2,note_on,60,0,120
2,note_on,64,44,0
2,note_on,64,0,120
2,note_on,67,41,0
2,note_on,67,0,120
2,note_on,72,52,0
2,note_on,72,0,480
2,note_on,69,39,240
2,note_on,65,39,0
2,note_on,65,0,120
2,note_on,69,0,0
2,note_on,69,39,120
2,note_on,65,39,0
2,note_on,65,0,120
2,note_on,69,0,0
2,note_on,65,39,120
2,note_on,69,39,0
2,note_on,69,0,120
2,note_on,65,0,0
2,note_on,69,44,120
2,note_on,65,44,0
2,note_on,65,0,120
2,note_on,69,0,0
2,note_on,65,40,120
2,note_on,69,40,0
2,note_on,69,0,120
2,note_on,65,0,0
2,note_on,65,40,120
2,note_on,69,40,0
2,note_on,69,0,120
2,note_on,65,0,0
2,note_on,65,41,120
2,note_on,69,41,0
2,note_on,69,0,120
2,note_on,65,0,0
2,note_on,54,40,360
2,note_on,63,40,0
2,note_on,60,40,0
2,note_on,60,0,120
2,note_on,63,0,0
2,note_on,54,0,0
2,note_on,54,41,120
2,note_on,63,41,0
2,note_on,60,41,0
2,note_on,60,0,120
2,note_on,63,0,0
2,note_on,54,0,0
2,note_on,54,41,120
2,note_on,60,41,0
2,note_on,63,41,0
2,note_on,63,0,120
2,note_on,60,0,0
2,note_on,54,0,0
2,note_on,54,47,120
2,note_on,60,47,0
2,note_on,63,47,0
2,note_on,63,0,120
2,note_on,60,0,0
2,note_on,54,0,0
2,note_on,54,43,120
2,note_on,60,43,0
2,note_on,63,43,0
2,note_on,63,0,120
2,note_on,60,0,0
2,note_on,54,0,0
2,note_on,54,43,120
2,note_on,60,43,0
2,note_on,63,43,0
2,note_on,63,0,120
2,note_on,60,0,0
2,note_on,54,0,0
2,note_on,54,44,120
2,note_on,63,44,0
2,note_on,60,44,0
2,note_on,60,0,120
2,note_on,63,0,0
2,note_on,54,0,0
2,note_on,55,54,120
2,note_on,55,0,120
2,note_on,64,42,0
2,note_on,64,0,120
2,note_on,60,42,0
2,note_on,60,0,120
2,note_on,64,42,0
2,note_on,64,0,120
2,note_on,55,56,0
2,note_on,55,0,120
2,note_on,64,44,0
2,note_on,64,0,120
2,note_on,60,42,0
2,note_on,60,0,120
2,note_on,64,42,0
2,note_on,64,0,120
2,note_on,55,48,0
2,note_on,55,0,120
2,note_on,64,42,0
2,note_on,64,0,120
2,note_on,60,42,0
2,note_on,60,0,120
2,note_on,64,42,0
2,note_on,64,0,120
2,note_on,55,49,0
2,note_on,55,0,120
2,note_on,64,42,0
2,note_on,64,0,120
2,note_on,60,42,0
2,note_on,60,0,120
2,note_on,64,42,0
2,note_on,64,0,120
2,note_on,55,50,0
2,note_on,55,0,120
2,note_on,65,42,0
2,note_on,65,0,120
2,note_on,59,42,0
2,note_on,59,0,120
2,note_on,65,42,0
2,note_on,65,0,120
2,note_on,55,49,0
2,note_on,55,0,120
2,note_on,65,42,0
2,note_on,65,0,120
2,note_on,59,42,0
2,note_on,59,0,120
2,note_on,65,42,0
2,note_on,65,0,120
2,note_on,55,48,0
2,note_on,55,0,120
2,note_on,65,42,0
2,note_on,65,0,120
2,note_on,59,42,0
2,note_on,59,0,120
2,note_on,65,42,0
2,note_on,65,0,120
2,note_on,55,49,0
2,note_on,55,0,120
2,note_on,65,42,0
2,note_on,65,0,120
2,note_on,59,42,0
2,note_on,59,0,120
2,note_on,65,42,0
2,note_on,65,0,120
2,note_on,64,58,0
2,note_on,60,49,0
2,note_on,60,0,480
2,note_on,64,0,0
2,note_on,55,40,960
2,note_on,65,48,0
2,note_on,62,40,0
2,note_on,62,0,480
2,note_on,65,0,0
2,note_on,55,0,0
2,note_on,64,58,0
2,note_on,60,49,0
2,note_on,60,0,480
2,note_on,64,0,0
2,note_on,43,40,960
2,note_on,50,40,0
2,note_on,53,48,0
2,note_on,53,0,480
2,note_on,50,0,0
2,note_on,43,0,0
2,note_on,52,52,0
2,note_on,48,44,0
2,note_on,48,0,120
2,note_on,52,0,0
2,note_on,60,59,360
2,note_on,60,0,120
2,note_on,48,55,360
2,note_on,36,44,0
2,note_on,36,0,480
2,note_on,48,0,0
2,note_on,55,58,480
2,note_on,43,49,0
2,note_on,43,0,480
2,note_on,55,0,0
2,note_on,69,40,960
2,note_on,72,48,0
2,note_on,62,40,0
2,note_on,62,0,480
2,note_on,72,0,0
2,note_on,69,0,0
2,note_on,67,49,0
2,note_on,70,58,0
2,note_on,70,0,480
2,note_on,67,0,0
2,note_on,57,40,960
2,note_on,60,48,0
2,note_on,50,40,0
2,note_on,50,0,480
2,note_on,60,0,0
2,note_on,57,0,0
2,note_on,43,49,120
2,note_on,45,51,120
2,note_on,43,0,12
2,note_on,46,52,108
2,note_on,45,0,12
2,note_on,48,54,108
2,note_on,46,0,12
2,note_on,50,56,108
2,note_on,48,0,12
2,note_on,52,58,108
2,note_on,50,0,12
2,note_on,54,60,108
2,note_on,52,0,12
2,note_on,55,61,108
2,note_on,54,0,12
2,note_on,55,0,468
2,note_on,45,53,600
2,note_on,47,55,120
2,note_on,45,0,12
2,note_on,49,57,108
2,note_on,47,0,12
2,note_on,50,60,108
2,note_on,49,0,12
2,note_on,52,62,108
2,note_on,50,0,12
2,note_on,54,64,108
2,note_on,52,0,12
2,note_on,56,66,108
2,note_on,54,0,12
2,note_on,57,68,108
2,note_on,56,0,12
2,note_on,57,0,468
2,note_on,50,71,480
2,note_on,38,71,0
2,note_on,38,0,480
2,note_on,50,0,0
2,note_on,64,44,960
2,note_on,67,52,0
2,note_on,57,44,0
2,note_on,57,0,480
2,note_on,67,0,0
2,note_on,64,0,0
2,note_on,62,53,0
2,note_on,65,63,0
2,note_on,62,0,477
2,note_on,65,0,3
2,note_on,52,40,960
2,note_on,55,48,0
2,note_on,45,40,0
2,note_on,45,0,480
2,note_on,55,0,0
2,note_on,52,0,0
2,note_on,50,62,0
2,note_on,53,62,0
2,note_on,53,0,480
2,note_on,50,0,0
2,note_on,62,53,600
2,note_on,65,63,120
2,note_on,62,0,12
2,note_on,64,61,108
2,note_on,65,0,12
2,note_on,62,59,108
2,note_on,64,0,12
2,note_on,60,56,108
2,note_on,62,0,12
2,note_on,59,54,108
2,note_on,60,0,12
2,note_on,57,52,108
2,note_on,59,0,12
2,note_on,56,57,108
2,note_on,57,0,12
2,note_on,56,0,468
2,note_on,56,52,600
2,note_on,59,61,120
2,note_on,56,0,12
2,note_on,57,59,108
2,note_on,59,0,12
2,note_on,56,57,108
2,note_on,57,0,12
2,note_on,53,55,108
2,note_on,56,0,12
2,note_on,52,53,108
2,note_on,53,0,12
2,note_on,50,50,108
2,note_on,52,0,12
2,note_on,48,57,108
2,note_on,50,0,12
2,note_on,48,0,468
2,note_on,62,58,600
2,note_on,69,66,120
2,note_on,62,0,12
2,note_on,67,64,108
2,note_on,69,0,12
2,note_on,65,62,108
2,note_on,67,0,12
2,note_on,64,61,108
2,note_on,65,0,12
2,note_on,62,59,108
2,note_on,64,0,12
2,note_on,60,58,108
2,note_on,62,0,12
2,note_on,59,68,108
2,note_on,60,0,12
2,note_on,59,0,468
2,note_on,60,50,600
2,note_on,67,58,120
2,note_on,60,0,12
2,note_on,65,56,108
2,note_on,67,0,12
2,note_on,64,55,108
2,note_on,65,0,12
2,note_on,62,53,108
2,note_on,64,0,12
2,note_on,60,51,108
2,note_on,62,0,12
2,note_on,59,49,108
2,note_on,60,0,12
2,note_on,57,57,108
2,note_on,59,0,12
2,note_on,57,0,468
2,note_on,59,50,600
2,note_on,65,56,120
2,note_on,59,0,12
2,note_on,64,54,108
2,note_on,65,0,12
2,note_on,62,53,108
2,note_on,64,0,12
2,note_on,60,51,108
2,note_on,62,0,12
2,note_on,59,49,108
2,note_on,60,0,12
2,note_on,57,48,108
2,note_on,59,0,12
2,note_on,56,54,108
2,note_on,57,0,12
2,note_on,56,0,468
2,note_on,57,44,600
2,note_on,60,52,120
2,note_on,57,0,12
2,note_on,59,50,108
2,note_on,60,0,12
2,note_on,57,48,108
2,note_on,59,0,12
2,note_on,55,46,108
2,note_on,57,0,12
2,note_on,53,45,108
2,note_on,55,0,12
2,note_on,52,43,108
2,note_on,53,0,12
2,note_on,50,51,108
2,note_on,52,0,12
2,note_on,50,0,948
2,note_on,48,46,0
2,note_on,55,46,0
2,note_on,58,57,0
2,note_on,58,0,960
2,note_on,55,0,0
2,note_on,48,0,0
2,note_on,65,40,0
2,note_on,65,0,240
2,note_on,72,30,0
2,note_on,72,0,240
2,note_on,69,30,0
2,note_on,69,0,240
2,note_on,72,30,0
2,note_on,72,0,240
2,note_on,65,40,0
2,note_on,65,0,240
2,note_on,72,30,0
2,note_on,72,0,240
2,note_on,69,30,0
2,note_on,69,0,240
2,note_on,72,30,0
2,note_on,72,0,240
2,note_on,67,30,0
2,note_on,67,0,240
2,note_on,72,29,0
2,note_on,72,0,240
2,note_on,70,31,0
2,note_on,70,0,240
2,note_on,72,28,0
2,note_on,72,0,240
2,note_on,65,40,0
2,note_on,65,0,240
2,note_on,72,29,0
2,note_on,72,0,240
2,note_on,69,32,0
2,note_on,69,0,240
2,note_on,72,29,0
2,note_on,72,0,240
2,note_on,65,40,0
2,note_on,65,0,240
2,note_on,74,32,0
2,note_on,74,0,240
2,note_on,70,32,0
2,note_on,70,0,240
2,note_on,74,32,0
2,note_on,74,0,240
2,note_on,65,40,0
2,note_on,65,0,240
2,note_on,72,32,0
2,note_on,72,0,240
2,note_on,69,32,0
2,note_on,69,0,240
2,note_on,72,32,0
2,note_on,72,0,240
2,note_on,64,40,0
2,note_on,64,0,240
2,note_on,72,32,0
2,note_on,72,0,240
2,note_on,67,32,0
2,note_on,67,0,240
2,note_on,72,32,0
2,note_on,72,0,240
2,note_on,65,40,0
2,note_on,65,0,240
2,note_on,72,34,0
2,note_on,72,0,240
2,note_on,69,34,0
2,note_on,69,0,240
2,note_on,72,34,0
2,note_on,72,0,240
2,note_on,70,40,0
2,note_on,70,0,480
2,note_on,58,40,960
2,note_on,65,40,0
2,note_on,65,0,480
2,note_on,58,0,0
2,note_on,57,40,0
2,note_on,65,40,0
2,note_on,65,0,480
2,note_on,57,0,0
2,note_on,57,40,960
2,note_on,65,40,0
2,note_on,65,0,480
2,note_on,57,0,0
2,note_on,55,40,0
2,note_on,65,40,0
2,note_on,65,0,480
2,note_on,55,0,0
2,note_on,55,40,960
2,note_on,64,40,0
2,note_on,64,0,480
2,note_on,55,0,0
2,note_on,53,40,0
2,note_on,65,40,0
2,note_on,65,0,480
2,note_on,53,0,0
2,note_on,53,48,1440
2,note_on,53,0,240
2,note_on,55,42,0
2,note_on,57,42,120
2,note_on,55,0,12
2,note_on,58,43,108
2,note_on,57,0,12
2,note_on,60,45,108
2,note_on,58,0,12
2,note_on,62,46,108
2,note_on,60,0,12
2,note_on,64,47,108
2,note_on,62,0,12
2,note_on,65,49,108
2,note_on,64,0,12
2,note_on,64,48,108
2,note_on,65,0,12
2,note_on,62,48,108
2,note_on,64,0,12
2,note_on,60,47,108
2,note_on,62,0,12
2,note_on,58,46,108
2,note_on,60,0,12
2,note_on,57,45,108
2,note_on,58,0,12
2,note_on,55,43,108
2,note_on,57,0,12
2,note_on,53,42,108
2,note_on,55,0,12
2,note_on,52,48,108
2,note_on,53,0,12
2,note_on,52,0,228
2,note_on,53,42,0
2,note_on,55,42,120
2,note_on,53,0,12
2,note_on,57,43,108
2,note_on,55,0,12
2,note_on,59,45,108
2,note_on,57,0,12
2,note_on,60,46,108
2,note_on,59,0,12
2,note_on,62,47,108
2,note_on,60,0,12
2,note_on,64,49,108
2,note_on,62,0,12
2,note_on,62,48,108
2,note_on,64,0,12
2,note_on,60,48,108
2,note_on,62,0,12
2,note_on,59,47,108
2,note_on,60,0,12
2,note_on,57,46,108
2,note_on,59,0,12
2,note_on,55,45,108
2,note_on,57,0,12
2,note_on,53,43,108
2,note_on,55,0,12
2,note_on,52,42,108
2,note_on,53,0,12
2,note_on,50,48,108
2,note_on,52,0,12
2,note_on,50,0,228
2,note_on,52,42,0
2,note_on,53,42,120
2,note_on,52,0,12
2,note_on,55,43,108
2,note_on,53,0,12
2,note_on,57,45,108
2,note_on,55,0,12
2,note_on,59,46,108
2,note_on,57,0,12
2,note_on,60,47,108
2,note_on,59,0,12
2,note_on,62,49,108
2,note_on,60,0,12
2,note_on,60,48,108
2,note_on,62,0,12
2,note_on,59,48,108
2,note_on,60,0,12
2,note_on,57,47,108
2,note_on,59,0,12
2,note_on,55,46,108
2,note_on,57,0,12
2,note_on,53,45,108
2,note_on,55,0,12
2,note_on,52,43,108
2,note_on,53,0,12
2,note_on,50,42,108
2,note_on,52,0,12
2,note_on,48,48,108
2,note_on,50,0,12
2,note_on,48,0,228
2,note_on,50,42,0
2,note_on,52,42,120
2,note_on,50,0,12
2,note_on,53,43,108
2,note_on,52,0,12
2,note_on,55,45,108
2,note_on,53,0,12
2,note_on,57,46,108
2,note_on,55,0,12
2,note_on,59,47,108
2,note_on,57,0,12
2,note_on,60,49,108
2,note_on,59,0,12
2,note_on,59,48,108
2,note_on,60,0,12
2,note_on,57,48,108
2,note_on,59,0,12
2,note_on,55,47,108
2,note_on,57,0,12
2,note_on,53,46,108
2,note_on,55,0,12
2,note_on,52,45,108
2,note_on,53,0,12
2,note_on,50,43,108
2,note_on,52,0,12
2,note_on,48,42,108
2,note_on,50,0,12
2,note_on,53,38,108
2,note_on,57,38,0
2,note_on,48,0,12
2,note_on,57,0,1908
2,note_on,53,0,0
2,note_on,53,60,0
2,note_on,53,0,720
2,note_on,55,55,0
2,note_on,55,0,240
2,note_on,57,60,0
2,note_on,57,0,720
2,note_on,54,54,0
2,note_on,54,0,240
2,note_on,43,65,0
2,note_on,43,0,120
2,note_on,47,56,0
2,note_on,47,0,120
2,note_on,50,56,0
2,note_on,50,0,120
2,note_on,55,50,0
2,note_on,55,0,120
2,note_on,43,65,0
2,note_on,43,0,120
2,note_on,48,55,0
2,note_on,48,0,120
2,note_on,52,55,0
2,note_on,52,0,120
2,note_on,55,50,0
2,note_on,55,0,120
2,note_on,43,65,0
2,note_on,43,0,120
2,note_on,47,55,0
2,note_on,47,0,120
2,note_on,50,55,0
2,note_on,50,0,120
2,note_on,55,54,0
2,note_on,55,0,120
2,note_on,43,65,0
2,note_on,43,0,120
2,note_on,48,57,0
2,note_on,48,0,120
2,note_on,52,56,0
2,note_on,52,0,120
2,note_on,55,53,0
2,note_on,55,0,120
2,note_on,43,65,0
2,note_on,43,0,120
2,note_on,55,59,360
2,note_on,55,0,120
2,note_on,43,61,360
2,note_on,43,0,480
2,note_on,66,42,480
2,note_on,67,36,120
2,note_on,66,0,12
2,note_on,67,0,108
2,note_on,66,42,0
2,note_on,67,36,120
2,note_on,66,0,12
2,note_on,67,0,108
2,note_on,66,42,0
2,note_on,67,38,120
2,note_on,66,0,12
2,note_on,67,0,108
2,note_on,66,42,0
2,note_on,67,37,120
2,note_on,66,0,12
2,note_on,67,0,108
2,note_on,65,42,0
2,note_on,67,36,120
2,note_on,65,0,12
2,note_on,67,0,108
2,note_on,65,42,0
2,note_on,67,37,120
2,note_on,65,0,12
2,note_on,67,0,108
2,note_on,65,42,0
2,note_on,67,37,120
2,note_on,65,0,12
2,note_on,67,0,108
2,note_on,65,42,0
2,note_on,67,38,120
2,note_on,65,0,12
2,note_on,67,0,108
2,note_on,64,42,0
2,note_on,64,0,120
2,note_on,67,36,0
2,note_on,67,0,120
2,note_on,64,42,0
2,note_on,64,0,120
2,note_on,67,36,0
2,note_on,67,0,120
2,note_on,64,42,0
2,note_on,64,0,120
2,note_on,67,32,0
2,note_on,67,0,120
2,note_on,64,38,0
2,note_on,64,0,120
2,note_on,67,33,0
2,note_on,67,0,120
2,note_on,64,39,0
2,note_on,64,0,120
2,note_on,67,32,0
2,note_on,67,0,120
2,note_on,64,39,0
2,note_on,64,0,120
2,note_on,67,34,0
2,note_on,67,0,120
2,note_on,64,42,0
2,note_on,64,0,120
2,note_on,67,37,0
2,note_on,67,0,120
2,note_on,64,42,0
2,note_on,64,0,120
2,note_on,67,38,0
2,note_on,67,0,120
2,note_on,65,46,0
2,note_on,65,0,120
2,note_on,67,38,0
2,note_on,67,0,120
2,note_on,64,42,0
2,note_on,64,0,120
2,note_on,67,36,0
2,note_on,67,0,120
2,note_on,62,39,0
2,note_on,67,27,120
2,note_on,62,0,12
2,note_on,67,0,108
2,note_on,64,47,0
2,note_on,67,35,120
2,note_on,64,0,12
2,note_on,67,0,108
2,note_on,65,50,0
2,note_on,67,36,120
2,note_on,65,0,12
2,note_on,67,0,108
2,note_on,64,44,0
2,note_on,67,30,120
2,note_on,64,0,12
2,note_on,67,0,108
2,note_on,65,52,0
2,note_on,67,31,120
2,note_on,65,0,12
2,note_on,67,0,108
2,note_on,62,40,0
2,note_on,67,28,120
2,note_on,62,0,12
2,note_on,67,0,108
2,note_on,64,42,0
2,note_on,64,0,120
2,note_on,67,36,0
2,note_on,67,0,120
2,note_on,64,42,0
2,note_on,64,0,120
2,note_on,67,36,0
2,note_on,67,0,120
2,note_on,64,42,0
2,note_on,64,0,120
2,note_on,67,32,0
2,note_on,67,0,120
2,note_on,64,38,0
2,note_on,64,0,120
2,note_on,67,33,0
2,note_on,67,0,120
2,note_on,64,39,0
2,note_on,64,0,120
2,note_on,67,32,0
2,note_on,67,0,120
2,note_on,64,39,0
2,note_on,64,0,120
2,note_on,67,34,0
2,note_on,67,0,120
2,note_on,64,42,0
2,note_on,64,0,120
2,note_on,67,37,0
2,note_on,67,0,120
2,note_on,64,42,0
2,note_on,64,0,120
2,note_on,67,38,0
2,note_on,67,0,120
2,note_on,65,42,0
2,note_on,65,0,120
2,note_on,67,36,0
2,note_on,67,0,120
2,note_on,64,42,0
2,note_on,64,0,120
2,note_on,67,36,0
2,note_on,67,0,120
2,note_on,62,39,0
2,note_on,67,29,120
2,note_on,62,0,12
2,note_on,67,0,108
2,note_on,64,42,0
2,note_on,67,32,120
2,note_on,64,0,12
2,note_on,67,0,108
2,note_on,65,48,0
2,note_on,67,36,120
2,note_on,65,0,12
2,note_on,67,0,108
2,note_on,64,43,0
2,note_on,67,30,120
2,note_on,64,0,12
2,note_on,67,0,108
2,note_on,65,48,0
2,note_on,67,36,120
2,note_on,65,0,12
2,note_on,67,0,108
2,note_on,62,43,0
2,note_on,67,30,120
2,note_on,62,0,12
2,note_on,67,0,108
2,note_on,52,37,120
2,note_on,52,0,120
2,note_on,55,39,0
2,note_on,55,0,120
2,note_on,60,37,0
2,note_on,60,0,120
2,note_on,64,45,0
2,note_on,64,0,480
2,note_on,53,39,120
2,note_on,53,0,120
2,note_on,57,41,0
2,note_on,57,0,120
2,note_on,60,38,0
2,note_on,60,0,120
2,note_on,65,49,0
2,note_on,65,0,480
2,note_on,50,37,120
2,note_on,50,0,120
2,note_on,53,39,0
2,note_on,53,0,120
2,note_on,59,37,0
2,note_on,59,0,120
2,note_on,62,45,0
2,note_on,62,0,480
2,note_on,52,39,120
2,note_on,52,0,120
2,note_on,55,41,0
2,note_on,55,0,120
2,note_on,59,38,0
2,note_on,59,0,120
2,note_on,64,49,0
2,note_on,64,0,480
2,note_on,60,39,120
2,note_on,60,0,120
2,note_on,64,42,0
2,note_on,64,0,120
2,note_on,69,39,0
2,note_on,69,0,120
2,note_on,72,48,0
2,note_on,72,0,480
2,note_on,62,42,120
2,note_on,62,0,120
2,note_on,65,44,0
2,note_on,65,0,120
2,note_on,69,41,0
2,note_on,69,0,120
2,note_on,74,52,0
2,note_on,74,0,480
2,note_on,59,39,120
2,note_on,59,0,120
2,note_on,62,42,0
2,note_on,62,0,120
2,note_on,67,39,0
2,note_on,67,0,120
2,note_on,71,48,0
2,note_on,71,0,480
2,note_on,60,42,120
2,note_on,60,0,120
2,note_on,64,44,0
2,note_on,64,0,120
2,note_on,67,41,0
2,note_on,67,0,120
2,note_on,72,52,0
2,note_on,72,0,480
2,note_on,69,39,240
2,note_on,65,39,0
2,note_on,65,0,120
2,note_on,69,0,0
2,note_on,69,39,120
2,note_on,65,39,0
2,note_on,65,0,120
2,note_on,69,0,0
2,note_on,65,39,120
2,note_on,69,39,0
2,note_on,69,0,120
2,note_on,65,0,0
2,note_on,69,44,120
2,note_on,65,44,0
2,note_on,65,0,120
2,note_on,69,0,0
2,note_on,65,40,120
2,note_on,69,40,0
2,note_on,69,0,120
2,note_on,65,0,0
2,note_on,65,40,120
2,note_on,69,40,0
2,note_on,69,0,120
2,note_on,65,0,0
2,note_on,65,41,120
2,note_on,69,41,0
2,note_on,69,0,120
2,note_on,65,0,0
2,note_on,54,40,360
2,note_on,63,40,0
2,note_on,60,40,0
2,note_on,60,0,120
2,note_on,63,0,0
2,note_on,54,0,0
2,note_on,54,41,120
2,note_on,63,41,0
2,note_on,60,41,0
2,note_on,60,0,120
2,note_on,63,0,0
2,note_on,54,0,0
2,note_on,54,41,120
2,note_on,60,41,0
2,note_on,63,41,0
2,note_on,63,0,120
2,note_on,60,0,0
2,note_on,54,0,0
2,note_on,54,47,120
2,note_on,60,47,0
2,note_on,63,47,0
2,note_on,63,0,120
2,note_on,60,0,0
2,note_on,54,0,0
2,note_on,54,43,120
2,note_on,60,43,0
2,note_on,63,43,0
2,note_on,63,0,120
2,note_on,60,0,0
2,note_on,54,0,0
2,note_on,54,43,120
2,note_on,60,43,0
2,note_on,63,43,0
2,note_on,63,0,120
2,note_on,60,0,0
2,note_on,54,0,0
2,note_on,54,44,120
2,note_on,63,44,0
2,note_on,60,44,0
2,note_on,60,0,120
2,note_on,63,0,0
2,note_on,54,0,0
2,note_on,55,54,120
2,note_on,55,0,120
2,note_on,64,42,0
2,note_on,64,0,120
2,note_on,60,42,0
2,note_on,60,0,120
2,note_on,64,42,0
2,note_on,64,0,120
2,note_on,55,56,0
2,note_on,55,0,120
2,note_on,64,44,0
2,note_on,64,0,120
2,note_on,60,42,0
2,note_on,60,0,120
2,note_on,64,42,0
2,note_on,64,0,120
2,note_on,55,48,0
2,note_on,55,0,120
2,note_on,64,42,0
2,note_on,64,0,120
2,note_on,60,42,0
2,note_on,60,0,120
2,note_on,64,42,0
2,note_on,64,0,120
2,note_on,55,49,0
2,note_on,55,0,120
2,note_on,64,42,0
2,note_on,64,0,120
2,note_on,60,42,0
2,note_on,60,0,120
2,note_on,64,42,0
2,note_on,64,0,120
2,note_on,55,50,0
2,note_on,55,0,120
2,note_on,65,42,0
2,note_on,65,0,120
2,note_on,59,42,0
2,note_on,59,0,120
2,note_on,65,42,0
2,note_on,65,0,120
2,note_on,55,49,0
2,note_on,55,0,120
2,note_on,65,42,0
2,note_on,65,0,120
2,note_on,59,42,0
2,note_on,59,0,120
2,note_on,65,42,0
2,note_on,65,0,120
2,note_on,55,48,0
2,note_on,55,0,120
2,note_on,65,42,0
2,note_on,65,0,120
2,note_on,59,42,0
2,note_on,59,0,120
2,note_on,65,42,0
2,note_on,65,0,120
2,note_on,55,49,0
2,note_on,55,0,120
2,note_on,65,42,0
2,note_on,65,0,120
2,note_on,59,42,0
2,note_on,59,0,120
2,note_on,65,42,0
2,note_on,65,0,120
2,note_on,64,58,0
2,note_on,60,49,0
2,note_on,60,0,480
2,note_on,64,0,0
2,note_on,55,40,960
2,note_on,65,48,0
2,note_on,62,40,0
2,note_on,62,0,480
2,note_on,65,0,0
2,note_on,55,0,0
2,note_on,64,58,0
2,note_on,60,49,0
2,note_on,60,0,480
2,note_on,64,0,0
2,note_on,43,40,960
2,note_on,50,40,0
2,note_on,53,48,0
2,note_on,53,0,480
2,note_on,50,0,0
2,note_on,43,0,0
2,note_on,52,52,0
2,note_on,48,44,0
2,note_on,48,0,120
2,note_on,52,0,0
2,note_on,60,59,360
2,note_on,60,0,120
2,note_on,48,58,360
2,note_on,36,44,0
2,note_on,36,0,480
2,note_on,48,0,0
