Track,Message Type,Note,Velocity,Time
1,note_on,70,47,1680
1,note_on,70,0,240
1,note_on,74,50,0
1,note_on,74,0,240
1,note_on,75,51,240
1,note_on,75,0,240
1,note_on,76,52,240
1,note_on,76,0,480
1,note_on,77,52,0
1,note_on,77,0,240
1,note_on,74,51,0
1,note_on,74,0,120
1,note_on,74,52,60
1,note_on,74,0,60
1,note_on,72,54,0
1,note_on,72,0,120
1,note_on,71,50,120
1,note_on,71,0,120
1,note_on,72,52,120
1,note_on,72,0,120
1,note_on,74,50,120
1,note_on,74,0,120
1,note_on,77,54,120
1,note_on,77,0,480
1,note_on,75,46,0
1,note_on,75,0,240
1,note_on,69,46,0
1,note_on,69,0,120
1,note_on,70,52,120
1,note_on,70,0,120
1,note_on,70,48,120
1,note_on,70,0,480
1,note_on,71,47,0
1,note_on,71,0,240
1,note_on,72,51,0
1,note_on,72,0,120
1,note_on,72,50,120
1,note_on,72,0,480
1,note_on,73,50,0
1,note_on,73,0,240
1,note_on,74,54,0
1,note_on,74,0,120
1,note_on,72,50,120
1,note_on,72,0,120
1,note_on,74,55,120
1,note_on,74,0,120
1,note_on,72,50,120
1,note_on,75,50,0
1,note_on,75,0,120
1,note_on,72,0,0
1,note_on,70,55,120
1,note_on,74,55,0
1,note_on,74,0,480
1,note_on,70,0,0
1,note_on,69,50,0
1,note_on,72,50,0
1,note_on,72,0,180
1,note_on,69,0,0
1,note_on,70,47,60
1,note_on,70,0,120
1,note_on,72,47,0
1,note_on,72,0,120
1,note_on,74,50,0
1,note_on,74,0,240
1,note_on,75,51,240
1,note_on,75,0,240
1,note_on,76,52,240
1,note_on,76,0,480
1,note_on,77,52,0
1,note_on,77,0,240
1,note_on,74,51,0
1,note_on,74,0,120
1,note_on,74,52,60
1,note_on,74,0,60
1,note_on,72,54,0
1,note_on,72,0,120
1,note_on,71,50,120
1,note_on,71,0,120
1,note_on,72,52,120
1,note_on,72,0,120
1,note_on,74,50,120
1,note_on,74,0,120
1,note_on,77,54,120
1,note_on,77,0,480
1,note_on,75,46,0
1,note_on,75,0,240
1,note_on,69,46,0
1,note_on,69,0,120
1,note_on,70,56,120
1,note_on,70,0,120
1,note_on,82,50,120
1,note_on,82,0,240
1,note_on,82,53,0
1,note_on,82,0,120
1,note_on,82,48,120
1,note_on,82,0,120
1,note_on,72,56,120
1,note_on,72,0,120
1,note_on,79,50,120
1,note_on,79,0,240
1,note_on,79,53,0
1,note_on,79,0,120
1,note_on,79,50,120
1,note_on,79,0,120
1,note_on,70,54,120
1,note_on,70,0,120
1,note_on,70,50,120
1,note_on,70,0,120
1,note_on,72,50,120
1,note_on,72,0,60
1,note_on,74,45,0
1,note_on,74,0,60
1,note_on,72,45,0
1,note_on,72,0,60
1,note_on,70,45,0
1,note_on,70,0,60
1,note_on,72,50,0
1,note_on,72,0,120
1,note_on,74,45,0
1,note_on,74,0,120
1,note_on,70,55,0
1,note_on,70,0,480
1,note_on,70,47,240
1,note_on,70,0,120
1,note_on,74,47,0
1,note_on,74,0,120
1,note_on,77,54,0
1,note_on,77,0,240
1,note_on,76,51,240
1,note_on,76,0,240
1,note_on,84,59,240
1,note_on,84,0,120
1,note_on,75,52,120
1,note_on,75,0,240
1,note_on,74,51,240
1,note_on,74,0,480
1,note_on,71,50,0
1,note_on,71,0,240
1,note_on,72,52,0
1,note_on,72,0,240
1,note_on,79,50,0
1,note_on,79,0,240
1,note_on,70,54,0
1,note_on,70,0,360
1,note_on,72,43,0
1,note_on,72,0,60
1,note_on,70,43,0
1,note_on,70,0,60
1,note_on,69,48,0
1,note_on,69,0,180
1,note_on,69,47,60
1,note_on,69,0,120
1,note_on,72,47,0
1,note_on,72,0,120
1,note_on,77,54,0
1,note_on,77,0,240
1,note_on,76,51,240
1,note_on,76,0,240
1,note_on,84,59,240
1,note_on,84,0,120
1,note_on,75,52,120
1,note_on,75,0,240
1,note_on,74,51,240
1,note_on,74,0,240
1,note_on,82,50,240
1,note_on,82,0,240
1,note_on,79,52,0
1,note_on,79,0,240
1,note_on,76,50,0
1,note_on,76,0,240
1,note_on,77,60,0
1,note_on,77,0,240
1,note_on,81,53,0
1,note_on,81,0,240
1,note_on,84,58,0
1,note_on,84,0,120
1,note_on,84,51,120
1,note_on,84,0,120
1,note_on,84,54,360
1,note_on,82,48,120
1,note_on,84,0,12
1,note_on,81,48,108
1,note_on,82,0,12
1,note_on,79,48,108
1,note_on,81,0,12
1,note_on,77,48,108
1,note_on,79,0,12
1,note_on,76,48,108
1,note_on,77,0,12
1,note_on,77,55,108
1,note_on,76,0,12
1,note_on,77,0,108
1,note_on,72,45,0
1,note_on,72,0,120
1,note_on,77,53,0
1,note_on,77,0,120
1,note_on,81,48,0
1,note_on,81,0,120
1,note_on,84,59,0
1,note_on,84,0,120
1,note_on,84,52,120
1,note_on,84,0,120
1,note_on,81,48,240
1,note_on,81,0,120
1,note_on,84,54,0
1,note_on,82,48,120
1,note_on,84,0,12
1,note_on,81,48,108
1,note_on,82,0,12
1,note_on,79,48,108
1,note_on,81,0,12
1,note_on,77,48,108
1,note_on,79,0,12
1,note_on,76,48,108
1,note_on,77,0,12
1,note_on,77,51,108
1,note_on,76,0,12
1,note_on,77,0,108
1,note_on,78,42,0
1,note_on,78,0,120
1,note_on,81,49,0
1,note_on,81,0,120
1,note_on,79,48,0
1,note_on,79,0,120
1,note_on,77,46,0
1,note_on,77,0,120
1,note_on,75,45,0
1,note_on,75,0,120
1,note_on,74,43,0
1,note_on,74,0,120
1,note_on,73,42,0
1,note_on,73,0,120
1,note_on,74,46,0
1,note_on,74,0,240
1,note_on,75,49,240
1,note_on,75,0,240
1,note_on,76,50,240
1,note_on,76,0,480
1,note_on,77,50,0
1,note_on,77,0,240
1,note_on,74,47,0
1,note_on,74,0,120
1,note_on,74,47,60
1,note_on,74,0,60
1,note_on,72,52,0
1,note_on,72,0,120
1,note_on,71,50,120
1,note_on,71,0,120
1,note_on,72,52,120
1,note_on,72,0,120
1,note_on,74,50,120
1,note_on,74,0,120
1,note_on,77,54,120
1,note_on,77,0,480
1,note_on,75,46,0
1,note_on,75,0,240
1,note_on,69,46,0
1,note_on,69,0,120
1,note_on,70,52,120
1,note_on,70,0,120
1,note_on,70,48,120
1,note_on,70,0,480
1,note_on,71,47,0
1,note_on,71,0,240
1,note_on,72,51,0
1,note_on,72,0,120
1,note_on,72,50,120
1,note_on,72,0,480
1,note_on,73,50,0
1,note_on,73,0,240
1,note_on,74,54,0
1,note_on,74,0,120
1,note_on,72,50,120
1,note_on,72,0,120
1,note_on,74,55,120
1,note_on,74,0,120
1,note_on,72,50,120
1,note_on,75,50,0
1,note_on,75,0,120
1,note_on,72,0,0
1,note_on,70,55,120
1,note_on,74,55,0
1,note_on,74,0,480
1,note_on,70,0,0
1,note_on,69,50,0
1,note_on,72,50,0
1,note_on,72,0,180
1,note_on,69,0,0
1,note_on,70,47,60
1,note_on,70,0,120
1,note_on,72,47,0
1,note_on,72,0,120
1,note_on,74,50,0
1,note_on,74,0,240
1,note_on,75,51,240
1,note_on,75,0,240
1,note_on,76,52,240
1,note_on,76,0,480
1,note_on,77,52,0
1,note_on,77,0,240
1,note_on,74,51,0
1,note_on,74,0,120
1,note_on,74,52,60
1,note_on,74,0,60
1,note_on,72,54,0
1,note_on,72,0,120
1,note_on,71,50,120
1,note_on,71,0,120
1,note_on,72,52,120
1,note_on,72,0,120
1,note_on,74,50,120
1,note_on,74,0,120
1,note_on,77,54,120
1,note_on,77,0,480
1,note_on,75,46,0
1,note_on,75,0,240
1,note_on,69,46,0
1,note_on,69,0,120
1,note_on,70,56,120
1,note_on,70,0,120
1,note_on,82,50,120
1,note_on,82,0,240
1,note_on,82,53,0
1,note_on,82,0,120
1,note_on,82,48,120
1,note_on,82,0,120
1,note_on,72,56,120
1,note_on,72,0,120
1,note_on,79,50,120
1,note_on,79,0,240
1,note_on,79,53,0
1,note_on,79,0,120
1,note_on,79,50,120
1,note_on,79,0,120
1,note_on,70,54,120
1,note_on,70,0,120
1,note_on,70,50,120
1,note_on,70,0,120
1,note_on,72,50,120
1,note_on,72,0,60
1,note_on,74,45,0
1,note_on,74,0,60
1,note_on,72,45,0
1,note_on,72,0,60
1,note_on,70,45,0
1,note_on,70,0,60
1,note_on,72,50,0
1,note_on,72,0,120
1,note_on,74,45,0
1,note_on,74,0,120
1,note_on,70,55,0
1,note_on,70,0,480
1,note_on,65,60,240
1,note_on,65,0,120
1,note_on,65,55,120
1,note_on,74,66,0
1,note_on,74,0,120
1,note_on,65,0,0
1,note_on,65,54,120
1,note_on,74,64,0
1,note_on,74,0,480
1,note_on,65,0,0
1,note_on,62,49,0
1,note_on,70,59,0
1,note_on,70,0,180
1,note_on,62,0,0
1,note_on,67,55,60
1,note_on,75,66,0
1,note_on,75,0,120
1,note_on,67,0,0
1,note_on,67,54,120
1,note_on,75,64,0
1,note_on,75,0,480
1,note_on,67,0,0
1,note_on,63,49,0
1,note_on,72,59,0
1,note_on,72,0,180
1,note_on,63,0,0
1,note_on,67,63,60
1,note_on,67,0,240
1,note_on,70,59,0
1,note_on,70,0,240
1,note_on,69,65,0
1,note_on,69,0,240
1,note_on,72,59,0
1,note_on,72,0,240
1,note_on,70,63,0
1,note_on,70,0,120
1,note_on,69,59,0
1,note_on,69,0,120
1,note_on,70,57,0
1,note_on,70,0,120
1,note_on,72,57,0
1,note_on,72,0,120
1,note_on,70,64,0
1,note_on,70,0,120
1,note_on,70,59,120
1,note_on,70,0,120
1,note_on,74,55,120
1,note_on,77,66,0
1,note_on,77,0,120
1,note_on,74,0,0
1,note_on,74,54,120
1,note_on,77,64,0
1,note_on,77,0,480
1,note_on,74,0,0
1,note_on,70,49,0
1,note_on,74,59,0
1,note_on,74,0,180
1,note_on,70,0,0
1,note_on,75,55,60
1,note_on,79,66,0
1,note_on,79,0,120
1,note_on,75,0,0
1,note_on,75,54,120
1,note_on,79,64,0
1,note_on,79,0,480
1,note_on,75,0,0
1,note_on,72,49,0
1,note_on,75,59,0
1,note_on,75,0,180
1,note_on,72,0,0
1,note_on,70,63,60
1,note_on,70,0,240
1,note_on,74,59,0
1,note_on,74,0,240
1,note_on,72,63,0
1,note_on,72,0,240
1,note_on,75,59,0
1,note_on,75,0,240
1,note_on,74,63,0
1,note_on,74,0,120
1,note_on,72,59,0
1,note_on,72,0,120
1,note_on,74,59,0
1,note_on,74,0,120
1,note_on,75,59,0
1,note_on,75,0,120
1,note_on,74,66,0
1,note_on,74,0,120
1,note_on,74,46,120
1,note_on,74,0,120
1,note_on,86,53,120
1,note_on,86,0,120
1,note_on,86,46,120
1,note_on,86,0,240
1,note_on,82,50,0
1,note_on,82,0,240
1,note_on,79,46,0
1,note_on,79,0,240
1,note_on,78,51,0
1,note_on,78,0,480
1,note_on,79,46,0
1,note_on,79,0,240
1,note_on,86,50,0
1,note_on,86,0,120
1,note_on,83,51,120
1,note_on,84,46,120
1,note_on,83,0,12
1,note_on,86,46,108
1,note_on,84,0,12
1,note_on,84,48,108
1,note_on,86,0,12
1,note_on,82,47,108
1,note_on,84,0,12
1,note_on,81,45,108
1,note_on,82,0,12
1,note_on,79,44,108
1,note_on,81,0,12
1,note_on,77,42,108
1,note_on,79,0,12
1,note_on,76,49,108
1,note_on,77,0,12
1,note_on,76,0,468
1,note_on,77,46,0
1,note_on,77,0,240
1,note_on,84,49,0
1,note_on,84,0,120
1,note_on,89,55,120
1,note_on,88,54,120
1,note_on,89,0,12
1,note_on,86,53,108
1,note_on,88,0,12
1,note_on,84,52,108
1,note_on,86,0,12
1,note_on,82,51,108
1,note_on,84,0,12
1,note_on,81,50,108
1,note_on,82,0,25
1,note_on,79,49,95
1,note_on,81,0,25
1,note_on,77,48,95
1,note_on,79,0,25
1,note_on,77,0,95
1,note_on,86,53,0
1,note_on,84,52,120
1,note_on,86,0,12
1,note_on,82,50,108
1,note_on,84,0,12
1,note_on,81,49,108
1,note_on,82,0,12
1,note_on,79,48,108
1,note_on,81,0,12
1,note_on,77,47,108
1,note_on,79,0,25
1,note_on,76,45,95
1,note_on,77,0,25
1,note_on,74,44,95
1,note_on,76,0,25
1,note_on,74,0,95
1,note_on,72,50,0
1,note_on,72,0,120
1,note_on,77,46,0
1,note_on,77,0,120
1,note_on,81,46,0
1,note_on,81,0,120
1,note_on,84,46,0
1,note_on,84,0,90
1,note_on,84,50,30
1,note_on,82,44,120
1,note_on,84,0,12
1,note_on,81,44,108
1,note_on,82,0,12
1,note_on,79,44,108
1,note_on,81,0,12
1,note_on,79,0,78
1,note_on,79,47,30
1,note_on,79,0,480
1,note_on,77,40,0
1,note_on,77,0,180
1,note_on,65,60,60
1,note_on,65,0,120
1,note_on,65,55,120
1,note_on,74,66,0
1,note_on,74,0,120
1,note_on,65,0,0
1,note_on,65,54,120
1,note_on,74,64,0
1,note_on,74,0,480
1,note_on,65,0,0
1,note_on,62,49,0
1,note_on,70,59,0
1,note_on,70,0,180
1,note_on,62,0,0
1,note_on,67,55,60
1,note_on,75,66,0
1,note_on,75,0,120
1,note_on,67,0,0
1,note_on,67,54,120
1,note_on,75,64,0
1,note_on,75,0,480
1,note_on,67,0,0
1,note_on,63,49,0
1,note_on,72,59,0
1,note_on,72,0,180
1,note_on,63,0,0
1,note_on,67,63,60
1,note_on,67,0,240
1,note_on,70,59,0
1,note_on,70,0,240
1,note_on,69,65,0
1,note_on,69,0,240
1,note_on,72,59,0
1,note_on,72,0,240
1,note_on,70,63,0
1,note_on,70,0,120
1,note_on,69,59,0
1,note_on,69,0,120
1,note_on,70,57,0
1,note_on,70,0,120
1,note_on,72,57,0
1,note_on,72,0,120
1,note_on,70,64,0
1,note_on,70,0,120
1,note_on,70,59,120
1,note_on,70,0,120
1,note_on,74,55,120
1,note_on,77,66,0
1,note_on,77,0,120
1,note_on,74,0,0
1,note_on,74,54,120
1,note_on,77,64,0
1,note_on,77,0,480
1,note_on,74,0,0
1,note_on,70,49,0
1,note_on,74,59,0
1,note_on,74,0,180
1,note_on,70,0,0
1,note_on,75,55,60
1,note_on,79,66,0
1,note_on,79,0,120
1,note_on,75,0,0
1,note_on,75,54,120
1,note_on,79,64,0
1,note_on,79,0,480
1,note_on,75,0,0
1,note_on,72,49,0
1,note_on,75,59,0
1,note_on,75,0,180
1,note_on,72,0,0
1,note_on,70,63,60
1,note_on,70,0,240
1,note_on,74,59,0
1,note_on,74,0,240
1,note_on,72,63,0
1,note_on,72,0,240
1,note_on,75,59,0
1,note_on,75,0,240
1,note_on,74,63,0
1,note_on,74,0,120
1,note_on,72,59,0
1,note_on,72,0,120
1,note_on,74,59,0
1,note_on,74,0,120
1,note_on,75,59,0
1,note_on,75,0,120
1,note_on,74,66,0
1,note_on,74,0,120
1,note_on,74,46,120
1,note_on,74,0,120
1,note_on,86,53,120
1,note_on,86,0,120
1,note_on,86,46,120
1,note_on,86,0,240
1,note_on,82,50,0
1,note_on,82,0,240
1,note_on,79,46,0
1,note_on,79,0,240
1,note_on,78,51,0
1,note_on,78,0,480
1,note_on,79,46,0
1,note_on,79,0,240
1,note_on,86,50,0
1,note_on,86,0,120
1,note_on,83,51,120
1,note_on,84,46,120
1,note_on,83,0,12
1,note_on,86,46,108
1,note_on,84,0,12
1,note_on,84,48,108
1,note_on,86,0,12
1,note_on,82,47,108
1,note_on,84,0,12
1,note_on,81,45,108
1,note_on,82,0,12
1,note_on,79,44,108
1,note_on,81,0,12
1,note_on,77,42,108
1,note_on,79,0,12
1,note_on,76,49,108
1,note_on,77,0,12
1,note_on,76,0,468
1,note_on,77,46,0
1,note_on,77,0,240
1,note_on,84,49,0
1,note_on,84,0,120
1,note_on,89,55,120
1,note_on,88,54,120
1,note_on,89,0,12
1,note_on,86,53,108
1,note_on,88,0,12
1,note_on,84,52,108
1,note_on,86,0,12
1,note_on,82,51,108
1,note_on,84,0,12
1,note_on,81,50,108
1,note_on,82,0,25
1,note_on,79,49,95
1,note_on,81,0,25
1,note_on,77,48,95
1,note_on,79,0,25
1,note_on,77,0,95
1,note_on,86,53,0
1,note_on,84,52,120
1,note_on,86,0,12
1,note_on,82,50,108
1,note_on,84,0,12
1,note_on,81,49,108
1,note_on,82,0,12
1,note_on,79,48,108
1,note_on,81,0,12
1,note_on,77,47,108
1,note_on,79,0,25
1,note_on,76,45,95
1,note_on,77,0,25
1,note_on,74,44,95
1,note_on,76,0,25
1,note_on,74,0,95
1,note_on,72,50,0
1,note_on,72,0,120
1,note_on,77,46,0
1,note_on,77,0,120
1,note_on,81,46,0
1,note_on,81,0,120
1,note_on,84,46,0
1,note_on,84,0,90
1,note_on,84,50,30
1,note_on,82,44,120
1,note_on,84,0,12
1,note_on,81,44,108
1,note_on,82,0,12
1,note_on,79,44,108
1,note_on,81,0,12
1,note_on,79,0,78
1,note_on,79,47,30
1,note_on,79,0,480
1,note_on,77,40,0
1,note_on,77,0,180
1,note_on,65,60,60
1,note_on,65,0,120
1,note_on,74,55,120
1,note_on,77,66,0
1,note_on,77,0,120
1,note_on,74,0,0
1,note_on,74,54,120
1,note_on,77,64,0
1,note_on,77,0,480
1,note_on,74,0,0
1,note_on,77,49,0
1,note_on,80,59,0
1,note_on,80,0,180
1,note_on,77,0,0
1,note_on,71,55,60
1,note_on,74,66,0
1,note_on,74,0,120
1,note_on,71,0,0
1,note_on,71,54,120
1,note_on,74,64,0
1,note_on,74,0,480
1,note_on,71,0,0
1,note_on,74,49,0
1,note_on,77,59,0
1,note_on,77,0,180
1,note_on,74,0,0
1,note_on,72,55,60
1,note_on,75,66,0
1,note_on,75,0,120
1,note_on,72,0,0
1,note_on,72,54,120
1,note_on,75,64,0
1,note_on,75,0,480
1,note_on,72,0,0
1,note_on,75,49,0
1,note_on,79,59,0
1,note_on,79,0,180
1,note_on,75,0,0
1,note_on,69,55,60
1,note_on,72,66,0
1,note_on,72,0,120
1,note_on,69,0,0
1,note_on,69,54,120
1,note_on,72,64,0
1,note_on,72,0,480
1,note_on,69,0,0
1,note_on,72,49,0
1,note_on,75,59,0
1,note_on,75,0,180
1,note_on,72,0,0
1,note_on,75,54,60
1,note_on,73,49,120
1,note_on,75,0,12
1,note_on,72,49,108
1,note_on,73,0,12
1,note_on,70,51,108
1,note_on,72,0,12
1,note_on,69,50,108
1,note_on,70,0,12
1,note_on,70,48,108
1,note_on,69,0,12
1,note_on,72,46,108
1,note_on,70,0,12
1,note_on,70,45,108
1,note_on,72,0,12
1,note_on,70,0,108
1,note_on,75,54,0
1,note_on,73,49,120
1,note_on,75,0,12
1,note_on,72,49,108
1,note_on,73,0,12
1,note_on,70,51,108
1,note_on,72,0,12
1,note_on,69,50,108
1,note_on,70,0,12
1,note_on,70,48,108
1,note_on,69,0,12
1,note_on,72,46,108
1,note_on,70,0,12
1,note_on,70,45,108
1,note_on,72,0,12
1,note_on,70,0,108
1,note_on,82,66,0
1,note_on,82,0,120
1,note_on,82,57,120
1,note_on,82,0,480
1,note_on,70,38,0
1,note_on,76,45,0
1,note_on,76,0,240
1,note_on,70,0,0
1,note_on,70,43,0
1,note_on,79,51,0
1,note_on,79,0,480
1,note_on,70,0,0
1,note_on,69,39,0
1,note_on,77,46,0
1,note_on,77,0,180
1,note_on,69,0,0
1,note_on,65,60,60
1,note_on,65,0,120
1,note_on,65,55,120
1,note_on,74,66,0
1,note_on,74,0,120
1,note_on,65,0,0
1,note_on,65,54,120
1,note_on,74,64,0
1,note_on,74,0,480
1,note_on,65,0,0
1,note_on,62,49,0
1,note_on,70,59,0
1,note_on,70,0,180
1,note_on,62,0,0
1,note_on,67,55,60
1,note_on,75,66,0
1,note_on,75,0,120
1,note_on,67,0,0
1,note_on,67,54,120
1,note_on,75,64,0
1,note_on,75,0,480
1,note_on,67,0,0
1,note_on,63,49,0
1,note_on,72,59,0
1,note_on,72,0,180
1,note_on,63,0,0
1,note_on,67,65,60
1,note_on,67,0,240
1,note_on,70,59,0
1,note_on,70,0,240
1,note_on,69,65,0
1,note_on,69,0,240
1,note_on,72,59,0
1,note_on,72,0,240
1,note_on,70,63,0
1,note_on,70,0,120
1,note_on,69,56,0
1,note_on,69,0,120
1,note_on,70,56,0
1,note_on,70,0,120
1,note_on,72,56,0
1,note_on,72,0,120
1,note_on,70,62,0
1,note_on,70,0,120
1,note_on,70,59,120
1,note_on,70,0,120
1,note_on,74,55,120
1,note_on,77,66,0
1,note_on,77,0,120
1,note_on,74,0,0
1,note_on,74,54,120
1,note_on,77,64,0
1,note_on,77,0,480
1,note_on,74,0,0
1,note_on,70,49,0
1,note_on,74,59,0
1,note_on,74,0,180
1,note_on,70,0,0
1,note_on,75,55,60
1,note_on,79,66,0
1,note_on,79,0,120
1,note_on,75,0,0
1,note_on,75,54,120
1,note_on,79,64,0
1,note_on,79,0,480
1,note_on,75,0,0
1,note_on,72,49,0
1,note_on,75,59,0
1,note_on,75,0,180
1,note_on,72,0,0
1,note_on,70,65,60
1,note_on,70,0,240
1,note_on,74,59,0
1,note_on,74,0,240
1,note_on,72,65,0
1,note_on,72,0,240
1,note_on,75,59,0
1,note_on,75,0,240
1,note_on,74,63,0
1,note_on,74,0,120
1,note_on,72,59,0
1,note_on,72,0,120
1,note_on,74,59,0
1,note_on,74,0,120
1,note_on,75,59,0
1,note_on,75,0,120
1,note_on,74,66,0
1,note_on,74,0,120
1,note_on,70,46,120
1,note_on,70,0,120
1,note_on,79,53,120
1,note_on,79,0,120
1,note_on,79,46,120
1,note_on,79,0,240
1,note_on,75,50,0
1,note_on,75,0,240
1,note_on,72,46,0
1,note_on,72,0,240
1,note_on,71,51,0
1,note_on,71,0,480
1,note_on,72,46,0
1,note_on,72,0,240
1,note_on,79,50,0
1,note_on,79,0,120
1,note_on,76,51,120
1,note_on,77,46,120
1,note_on,76,0,12
1,note_on,79,46,108
1,note_on,77,0,12
1,note_on,77,48,108
1,note_on,79,0,12
1,note_on,75,47,108
1,note_on,77,0,12
1,note_on,74,45,108
1,note_on,75,0,12
1,note_on,72,44,108
1,note_on,74,0,12
1,note_on,70,42,108
1,note_on,72,0,12
1,note_on,69,49,108
1,note_on,70,0,12
1,note_on,69,0,468
1,note_on,70,46,0
1,note_on,70,0,240
1,note_on,77,49,0
1,note_on,77,0,120
1,note_on,82,61,120
1,note_on,81,60,120
1,note_on,82,0,12
1,note_on,79,58,108
1,note_on,81,0,12
1,note_on,77,57,108
1,note_on,79,0,12
1,note_on,75,56,108
1,note_on,77,0,12
1,note_on,74,54,108
1,note_on,75,0,12
1,note_on,72,53,108
1,note_on,74,0,12
1,note_on,70,50,108
1,note_on,72,0,12
1,note_on,70,0,108
1,note_on,79,58,0
1,note_on,77,57,120
1,note_on,79,0,12
1,note_on,75,55,108
1,note_on,77,0,12
1,note_on,74,53,108
1,note_on,75,0,12
1,note_on,72,52,108
1,note_on,74,0,12
1,note_on,70,50,108
1,note_on,72,0,12
1,note_on,69,48,108
1,note_on,70,0,12
1,note_on,67,47,108
1,note_on,69,0,12
1,note_on,67,0,108
1,note_on,65,50,0
1,note_on,65,0,120
1,note_on,70,46,0
1,note_on,70,0,120
1,note_on,74,46,0
1,note_on,74,0,120
1,note_on,77,46,0
1,note_on,77,0,90
1,note_on,77,50,30
1,note_on,77,0,120
1,note_on,75,44,0
1,note_on,75,0,120
1,note_on,74,44,0
1,note_on,74,0,120
1,note_on,72,44,0
1,note_on,72,0,90
1,note_on,72,47,30
1,note_on,72,0,480
1,note_on,70,40,0
1,note_on,70,0,180
1,note_on,65,60,60
1,note_on,65,0,120
1,note_on,74,55,120
1,note_on,77,66,0
1,note_on,77,0,120
1,note_on,74,0,0
1,note_on,74,54,120
1,note_on,77,64,0
1,note_on,77,0,480
1,note_on,74,0,0
1,note_on,77,49,0
1,note_on,80,59,0
1,note_on,80,0,180
1,note_on,77,0,0
1,note_on,71,55,60
1,note_on,74,66,0
1,note_on,74,0,120
1,note_on,71,0,0
1,note_on,71,54,120
1,note_on,74,64,0
1,note_on,74,0,480
1,note_on,71,0,0
1,note_on,74,49,0
1,note_on,77,59,0
1,note_on,77,0,180
1,note_on,74,0,0
1,note_on,72,55,60
1,note_on,75,66,0
1,note_on,75,0,120
1,note_on,72,0,0
1,note_on,72,54,120
1,note_on,75,64,0
1,note_on,75,0,480
1,note_on,72,0,0
1,note_on,75,49,0
1,note_on,79,59,0
1,note_on,79,0,180
1,note_on,75,0,0
1,note_on,69,55,60
1,note_on,72,66,0
1,note_on,72,0,120
1,note_on,69,0,0
1,note_on,69,54,120
1,note_on,72,64,0
1,note_on,72,0,480
1,note_on,69,0,0
1,note_on,72,49,0
1,note_on,75,59,0
1,note_on,75,0,180
1,note_on,72,0,0
1,note_on,75,54,60
1,note_on,73,49,120
1,note_on,75,0,12
1,note_on,72,49,108
1,note_on,73,0,12
1,note_on,70,51,108
1,note_on,72,0,12
1,note_on,69,50,108
1,note_on,70,0,12
1,note_on,70,48,108
1,note_on,69,0,12
1,note_on,72,46,108
1,note_on,70,0,12
1,note_on,70,45,108
1,note_on,72,0,12
1,note_on,70,0,108
1,note_on,75,54,0
1,note_on,73,49,120
1,note_on,75,0,12
1,note_on,72,49,108
1,note_on,73,0,12
1,note_on,70,51,108
1,note_on,72,0,12
1,note_on,69,50,108
1,note_on,70,0,12
1,note_on,70,48,108
1,note_on,69,0,12
1,note_on,72,46,108
1,note_on,70,0,12
1,note_on,70,45,108
1,note_on,72,0,12
1,note_on,70,0,108
1,note_on,82,66,0
1,note_on,82,0,120
1,note_on,82,57,120
1,note_on,82,0,480
1,note_on,70,38,0
1,note_on,76,45,0
1,note_on,76,0,240
1,note_on,70,0,0
1,note_on,70,43,0
1,note_on,79,51,0
1,note_on,79,0,480
1,note_on,70,0,0
1,note_on,69,39,0
1,note_on,77,46,0
1,note_on,77,0,180
1,note_on,69,0,0
1,note_on,65,60,60
1,note_on,65,0,120
1,note_on,65,55,120
1,note_on,74,66,0
1,note_on,74,0,120
1,note_on,65,0,0
1,note_on,65,54,120
1,note_on,74,64,0
1,note_on,74,0,480
1,note_on,65,0,0
1,note_on,62,49,0
1,note_on,70,59,0
1,note_on,70,0,180
1,note_on,62,0,0
1,note_on,67,55,60
1,note_on,75,66,0
1,note_on,75,0,120
1,note_on,67,0,0
1,note_on,67,54,120
1,note_on,75,64,0
1,note_on,75,0,480
1,note_on,67,0,0
1,note_on,63,49,0
1,note_on,72,59,0
1,note_on,72,0,180
1,note_on,63,0,0
1,note_on,67,65,60
1,note_on,67,0,240
1,note_on,70,59,0
1,note_on,70,0,240
1,note_on,69,65,0
1,note_on,69,0,240
1,note_on,72,59,0
1,note_on,72,0,240
1,note_on,70,63,0
1,note_on,70,0,120
1,note_on,69,56,0
1,note_on,69,0,120
1,note_on,70,56,0
1,note_on,70,0,120
1,note_on,72,56,0
1,note_on,72,0,120
1,note_on,70,62,0
1,note_on,70,0,120
1,note_on,70,59,120
1,note_on,70,0,120
1,note_on,74,55,120
1,note_on,77,66,0
1,note_on,77,0,120
1,note_on,74,0,0
1,note_on,74,54,120
1,note_on,77,64,0
1,note_on,77,0,480
1,note_on,74,0,0
1,note_on,70,49,0
1,note_on,74,59,0
1,note_on,74,0,180
1,note_on,70,0,0
1,note_on,75,55,60
1,note_on,79,66,0
1,note_on,79,0,120
1,note_on,75,0,0
1,note_on,75,54,120
1,note_on,79,64,0
1,note_on,79,0,480
1,note_on,75,0,0
1,note_on,72,49,0
1,note_on,75,59,0
1,note_on,75,0,180
1,note_on,72,0,0
1,note_on,70,65,60
1,note_on,70,0,240
1,note_on,74,59,0
1,note_on,74,0,240
1,note_on,72,65,0
1,note_on,72,0,240
1,note_on,75,59,0
1,note_on,75,0,240
1,note_on,74,63,0
1,note_on,74,0,120
1,note_on,72,59,0
1,note_on,72,0,120
1,note_on,74,59,0
1,note_on,74,0,120
1,note_on,75,59,0
1,note_on,75,0,120
1,note_on,74,66,0
1,note_on,74,0,120
1,note_on,70,46,120
1,note_on,70,0,120
1,note_on,79,53,120
1,note_on,79,0,120
1,note_on,79,46,120
1,note_on,79,0,240
1,note_on,75,50,0
1,note_on,75,0,240
1,note_on,72,46,0
1,note_on,72,0,240
1,note_on,71,51,0
1,note_on,71,0,480
1,note_on,72,46,0
1,note_on,72,0,240
1,note_on,79,50,0
1,note_on,79,0,120
1,note_on,76,51,120
1,note_on,77,46,120
1,note_on,76,0,12
1,note_on,79,46,108
1,note_on,77,0,12
1,note_on,77,48,108
1,note_on,79,0,12
1,note_on,75,47,108
1,note_on,77,0,12
1,note_on,74,45,108
1,note_on,75,0,12
1,note_on,72,44,108
1,note_on,74,0,12
1,note_on,70,42,108
1,note_on,72,0,12
1,note_on,69,49,108
1,note_on,70,0,12
1,note_on,69,0,468
1,note_on,70,46,0
1,note_on,70,0,240
1,note_on,77,49,0
1,note_on,77,0,120
1,note_on,82,61,120
1,note_on,81,60,120
1,note_on,82,0,12
1,note_on,79,58,108
1,note_on,81,0,12
1,note_on,77,57,108
1,note_on,79,0,12
1,note_on,75,56,108
1,note_on,77,0,12
1,note_on,74,54,108
1,note_on,75,0,12
1,note_on,72,53,108
1,note_on,74,0,12
1,note_on,70,50,108
1,note_on,72,0,12
1,note_on,70,0,108
1,note_on,79,58,0
1,note_on,77,57,120
1,note_on,79,0,12
1,note_on,75,55,108
1,note_on,77,0,12
1,note_on,74,53,108
1,note_on,75,0,12
1,note_on,72,52,108
1,note_on,74,0,12
1,note_on,70,50,108
1,note_on,72,0,12
1,note_on,69,48,108
1,note_on,70,0,12
1,note_on,67,47,108
1,note_on,69,0,12
1,note_on,67,0,108
1,note_on,65,50,0
1,note_on,65,0,120
1,note_on,70,46,0
1,note_on,70,0,120
1,note_on,74,46,0
1,note_on,74,0,120
1,note_on,77,46,0
1,note_on,77,0,90
1,note_on,77,50,30
1,note_on,77,0,120
1,note_on,75,44,0
1,note_on,75,0,120
1,note_on,74,44,0
1,note_on,74,0,120
1,note_on,72,44,0
1,note_on,72,0,90
1,note_on,72,47,30
1,note_on,72,0,480
1,note_on,70,40,0
1,note_on,70,0,180
1,note_on,70,38,60
1,note_on,70,0,120
1,note_on,72,43,0
1,note_on,72,0,120
1,note_on,74,47,0
1,note_on,74,0,480
1,note_on,74,46,240
1,note_on,74,0,120
1,note_on,75,48,0
1,note_on,75,0,120
1,note_on,77,50,0
1,note_on,77,0,480
1,note_on,77,53,240
1,note_on,77,0,120
1,note_on,79,55,0
1,note_on,79,0,120
1,note_on,80,62,0
1,note_on,80,0,240
1,note_on,77,54,0
1,note_on,77,0,240
1,note_on,74,53,0
1,note_on,74,0,240
1,note_on,70,52,0
1,note_on,70,0,240
1,note_on,69,40,0
1,note_on,69,0,240
1,note_on,70,43,0
1,note_on,70,0,240
1,note_on,68,40,0
1,note_on,68,0,240
1,note_on,65,37,0
1,note_on,65,0,240
1,note_on,63,39,0
1,note_on,63,0,120
1,note_on,63,36,120
1,note_on,63,0,120
1,note_on,63,35,120
1,note_on,63,0,120
1,note_on,63,35,120
1,note_on,63,0,120
1,note_on,72,41,120
1,note_on,72,0,120
1,note_on,72,37,120
1,note_on,72,0,120
1,note_on,72,37,120
1,note_on,72,0,120
1,note_on,72,37,120
1,note_on,72,0,120
1,note_on,65,40,120
1,note_on,65,0,120
1,note_on,65,37,120
1,note_on,65,0,120
1,note_on,70,40,120
1,note_on,70,0,120
1,note_on,70,37,120
1,note_on,70,0,120
1,note_on,68,36,120
1,note_on,68,0,240
1,note_on,67,39,0
1,note_on,67,0,180
1,note_on,65,42,60
1,note_on,65,0,120
1,note_on,63,45,120
1,note_on,63,0,120
1,note_on,79,48,120
1,note_on,79,0,120
1,note_on,79,43,120
1,note_on,79,0,120
1,note_on,78,48,120
1,note_on,78,0,120
1,note_on,77,43,120
1,note_on,77,0,120
1,note_on,76,48,120
1,note_on,76,0,120
1,note_on,75,46,120
1,note_on,75,0,120
1,note_on,74,49,120
1,note_on,74,0,120
1,note_on,73,42,120
1,note_on,73,0,120
1,note_on,72,45,120
1,note_on,72,0,120
1,note_on,72,40,120
1,note_on,72,0,120
1,note_on,77,48,120
1,note_on,77,0,120
1,note_on,77,43,120
1,note_on,77,0,120
1,note_on,70,50,120
1,note_on,70,0,480
1,note_on,63,39,480
1,note_on,63,0,120
1,note_on,63,36,120
1,note_on,63,0,120
1,note_on,63,35,120
1,note_on,63,0,120
1,note_on,63,35,120
1,note_on,63,0,120
1,note_on,72,41,120
1,note_on,72,0,120
1,note_on,72,37,120
1,note_on,72,0,120
1,note_on,72,37,120
1,note_on,72,0,120
1,note_on,72,37,120
1,note_on,72,0,120
1,note_on,65,40,120
1,note_on,65,0,120
1,note_on,65,37,120
1,note_on,65,0,120
1,note_on,70,40,120
1,note_on,70,0,120
1,note_on,70,37,120
1,note_on,70,0,120
1,note_on,68,36,120
1,note_on,68,0,240
1,note_on,67,39,0
1,note_on,67,0,180
1,note_on,65,42,60
1,note_on,65,0,120
1,note_on,63,45,120
1,note_on,63,0,120
1,note_on,79,48,120
1,note_on,79,0,120
1,note_on,79,43,120
1,note_on,79,0,120
1,note_on,78,48,120
1,note_on,78,0,120
1,note_on,77,43,120
1,note_on,77,0,120
1,note_on,76,48,120
1,note_on,76,0,120
1,note_on,75,46,120
1,note_on,75,0,120
1,note_on,74,49,120
1,note_on,74,0,120
1,note_on,73,42,120
1,note_on,73,0,120
1,note_on,72,45,120
1,note_on,72,0,120
1,note_on,72,40,120
1,note_on,72,0,120
1,note_on,77,48,120
1,note_on,77,0,120
1,note_on,77,43,120
1,note_on,77,0,120
1,note_on,70,50,120
1,note_on,70,0,480
1,note_on,70,35,720
1,note_on,70,0,240
1,note_on,73,40,0
1,note_on,73,0,240
1,note_on,76,44,0
1,note_on,76,0,240
1,note_on,79,48,0
1,note_on,79,0,240
1,note_on,73,45,0
1,note_on,73,0,240
1,note_on,72,42,0
1,note_on,72,0,240
1,note_on,70,39,0
1,note_on,70,0,240
1,note_on,69,35,0
1,note_on,69,0,240
1,note_on,68,37,0
1,note_on,68,0,240
1,note_on,74,40,0
1,note_on,74,0,240
1,note_on,75,42,0
1,note_on,75,0,240
1,note_on,77,44,0
1,note_on,77,0,240
1,note_on,71,40,0
1,note_on,71,0,240
1,note_on,70,39,0
1,note_on,70,0,240
1,note_on,68,39,0
1,note_on,68,0,240
1,note_on,67,47,0
1,note_on,67,0,240
1,note_on,66,42,0
1,note_on,66,0,240
1,note_on,65,48,0
1,note_on,65,0,240
1,note_on,70,44,0
1,note_on,70,0,240
1,note_on,63,52,0
1,note_on,63,0,240
1,note_on,69,46,0
1,note_on,69,0,240
1,note_on,62,54,0
1,note_on,62,0,240
1,note_on,66,45,0
1,note_on,63,45,0
1,note_on,63,0,240
1,note_on,66,0,0
1,note_on,62,49,0
1,note_on,65,49,0
1,note_on,65,0,240
1,note_on,62,0,0
1,note_on,63,40,0
1,note_on,66,40,0
1,note_on,66,0,240
1,note_on,63,0,0
1,note_on,62,48,0
1,note_on,65,48,0
1,note_on,65,0,240
1,note_on,62,0,0
1,note_on,63,40,0
1,note_on,66,40,0
1,note_on,66,0,240
1,note_on,63,0,0
1,note_on,62,41,0
1,note_on,65,41,0
1,note_on,65,0,240
1,note_on,62,0,0
1,note_on,63,35,0
1,note_on,67,35,0
1,note_on,67,0,240
1,note_on,63,0,0
1,note_on,65,35,0
1,note_on,68,35,0
1,note_on,68,0,240
1,note_on,65,0,0
1,note_on,62,35,0
1,note_on,65,35,0
1,note_on,65,0,240
1,note_on,62,0,0
1,note_on,63,39,0
1,note_on,63,0,120
1,note_on,63,36,120
1,note_on,63,0,120
1,note_on,63,35,120
1,note_on,63,0,120
1,note_on,63,35,120
1,note_on,63,0,120
1,note_on,72,41,120
1,note_on,72,0,120
1,note_on,72,37,120
1,note_on,72,0,120
1,note_on,72,37,120
1,note_on,72,0,120
1,note_on,72,37,120
1,note_on,72,0,120
1,note_on,65,40,120
1,note_on,65,0,120
1,note_on,65,37,120
1,note_on,65,0,120
1,note_on,70,40,120
1,note_on,70,0,120
1,note_on,70,37,120
1,note_on,70,0,120
1,note_on,68,36,120
1,note_on,68,0,240
1,note_on,67,39,0
1,note_on,67,0,180
1,note_on,65,42,60
1,note_on,65,0,120
1,note_on,63,45,120
1,note_on,63,0,120
1,note_on,72,48,120
1,note_on,72,0,120
1,note_on,84,43,120
1,note_on,84,0,120
1,note_on,83,48,120
1,note_on,83,0,120
1,note_on,82,43,120
1,note_on,82,0,120
1,note_on,81,48,120
1,note_on,81,0,120
1,note_on,80,46,120
1,note_on,80,0,120
1,note_on,79,49,120
1,note_on,79,0,120
1,note_on,78,42,120
1,note_on,78,0,120
1,note_on,77,45,120
1,note_on,77,0,120
1,note_on,77,40,120
1,note_on,77,0,120
1,note_on,82,48,120
1,note_on,82,0,120
1,note_on,82,43,120
1,note_on,82,0,120
1,note_on,75,50,120
1,note_on,75,0,480
1,note_on,70,35,720
1,note_on,70,0,240
1,note_on,73,40,0
1,note_on,73,0,240
1,note_on,76,44,0
1,note_on,76,0,240
1,note_on,79,48,0
1,note_on,79,0,240
1,note_on,73,45,0
1,note_on,73,0,240
1,note_on,72,42,0
1,note_on,72,0,240
1,note_on,70,39,0
1,note_on,70,0,240
1,note_on,69,35,0
1,note_on,69,0,240
1,note_on,68,37,0
1,note_on,68,0,240
1,note_on,74,40,0
1,note_on,74,0,240
1,note_on,75,42,0
1,note_on,75,0,240
1,note_on,77,44,0
1,note_on,77,0,240
1,note_on,71,40,0
1,note_on,71,0,240
1,note_on,70,39,0
1,note_on,70,0,240
1,note_on,68,39,0
1,note_on,68,0,240
1,note_on,67,47,0
1,note_on,67,0,240
1,note_on,66,42,0
1,note_on,66,0,240
1,note_on,65,48,0
1,note_on,65,0,240
1,note_on,70,44,0
1,note_on,70,0,240
1,note_on,63,52,0
1,note_on,63,0,240
1,note_on,69,46,0
1,note_on,69,0,240
1,note_on,62,54,0
1,note_on,62,0,240
1,note_on,66,45,0
1,note_on,63,45,0
1,note_on,63,0,240
1,note_on,66,0,0
1,note_on,62,49,0
1,note_on,65,49,0
1,note_on,65,0,240
1,note_on,62,0,0
1,note_on,63,40,0
1,note_on,66,40,0
1,note_on,66,0,240
1,note_on,63,0,0
1,note_on,62,48,0
1,note_on,65,48,0
1,note_on,65,0,240
1,note_on,62,0,0
1,note_on,63,40,0
1,note_on,66,40,0
1,note_on,66,0,240
1,note_on,63,0,0
1,note_on,62,41,0
1,note_on,65,41,0
1,note_on,65,0,240
1,note_on,62,0,0
1,note_on,63,35,0
1,note_on,67,35,0
1,note_on,67,0,240
1,note_on,63,0,0
1,note_on,65,35,0
1,note_on,68,35,0
1,note_on,68,0,240
1,note_on,65,0,0
1,note_on,62,35,0
1,note_on,65,35,0
1,note_on,65,0,240
1,note_on,62,0,0
1,note_on,63,39,0
1,note_on,63,0,120
1,note_on,63,36,120
1,note_on,63,0,120
1,note_on,63,35,120
1,note_on,63,0,120
1,note_on,63,35,120
1,note_on,63,0,120
1,note_on,72,41,120
1,note_on,72,0,120
1,note_on,72,37,120
1,note_on,72,0,120
1,note_on,72,37,120
1,note_on,72,0,120
1,note_on,72,37,120
1,note_on,72,0,120
1,note_on,65,40,120
1,note_on,65,0,120
1,note_on,65,37,120
1,note_on,65,0,120
1,note_on,70,40,120
1,note_on,70,0,120
1,note_on,70,37,120
1,note_on,70,0,120
1,note_on,68,36,120
1,note_on,68,0,240
1,note_on,67,39,0
1,note_on,67,0,180
1,note_on,65,42,60
1,note_on,65,0,120
1,note_on,63,45,120
1,note_on,63,0,120
1,note_on,72,48,120
1,note_on,72,0,120
1,note_on,84,43,120
1,note_on,84,0,120
1,note_on,83,48,120
1,note_on,83,0,120
1,note_on,82,43,120
1,note_on,82,0,120
1,note_on,81,48,120
1,note_on,81,0,120
1,note_on,80,46,120
1,note_on,80,0,120
1,note_on,79,49,120
1,note_on,79,0,120
1,note_on,78,42,120
1,note_on,78,0,120
1,note_on,77,45,120
1,note_on,77,0,120
1,note_on,77,40,120
1,note_on,77,0,120
1,note_on,82,48,120
1,note_on,82,0,120
1,note_on,82,43,120
1,note_on,82,0,120
1,note_on,75,50,120
1,note_on,75,0,480
1,note_on,71,37,1200
1,note_on,72,39,240
1,note_on,71,0,12
1,note_on,74,40,228
1,note_on,72,0,12
1,note_on,75,42,228
1,note_on,74,0,12
1,note_on,76,44,228
1,note_on,75,0,12
1,note_on,76,0,228
1,note_on,77,46,0
1,note_on,77,0,120
1,note_on,89,54,120
1,note_on,88,50,240
1,note_on,89,0,12
1,note_on,87,52,228
1,note_on,88,0,12
1,note_on,86,53,228
1,note_on,87,0,12
1,note_on,84,55,228
1,note_on,86,0,12
1,note_on,82,57,228
1,note_on,84,0,12
1,note_on,80,59,228
1,note_on,82,0,12
1,note_on,80,0,228
1,note_on,79,59,0
1,note_on,79,0,120
1,note_on,87,51,120
1,note_on,87,0,120
1,note_on,77,58,120
1,note_on,77,0,120
1,note_on,86,51,120
1,note_on,86,0,120
1,note_on,75,60,120
1,note_on,75,0,120
1,note_on,84,52,120
1,note_on,84,0,120
1,note_on,74,60,120
1,note_on,74,0,120
1,note_on,82,53,120
1,note_on,82,0,120
1,note_on,82,51,360
1,note_on,82,0,240
1,note_on,79,59,0
1,note_on,79,0,240
1,note_on,76,51,0
1,note_on,76,0,240
1,note_on,77,59,0
1,note_on,77,0,240
1,note_on,81,49,0
1,note_on,81,0,240
1,note_on,84,61,0
1,note_on,84,0,120
1,note_on,84,51,120
1,note_on,84,0,120
1,note_on,84,55,360
1,note_on,82,54,120
1,note_on,84,0,12
1,note_on,81,52,108
1,note_on,82,0,12
1,note_on,79,51,108
1,note_on,81,0,12
1,note_on,77,50,108
1,note_on,79,0,12
1,note_on,76,48,108
1,note_on,77,0,12
1,note_on,76,0,108
1,note_on,77,52,0
1,note_on,77,0,120
1,note_on,72,45,0
1,note_on,72,0,120
1,note_on,77,48,0
1,note_on,77,0,120
1,note_on,81,45,0
1,note_on,81,0,120
1,note_on,84,52,0
1,note_on,84,0,120
1,note_on,84,49,120
1,note_on,84,0,120
1,note_on,81,47,240
1,note_on,84,53,120
1,note_on,81,0,12
1,note_on,82,51,108
1,note_on,84,0,12
1,note_on,81,49,108
1,note_on,82,0,12
1,note_on,79,47,108
1,note_on,81,0,12
1,note_on,77,45,108
1,note_on,79,0,12
1,note_on,76,43,108
1,note_on,77,0,12
1,note_on,76,0,108
1,note_on,77,48,0
1,note_on,78,40,120
1,note_on,77,0,12
1,note_on,81,47,108
1,note_on,78,0,12
1,note_on,79,46,108
1,note_on,81,0,12
1,note_on,77,45,108
1,note_on,79,0,12
1,note_on,75,43,108
1,note_on,77,0,12
1,note_on,74,42,108
1,note_on,75,0,12
1,note_on,73,41,108
1,note_on,74,0,12
1,note_on,73,0,108
1,note_on,74,47,0
1,note_on,74,0,240
1,note_on,75,48,240
1,note_on,75,0,240
1,note_on,76,52,240
1,note_on,76,0,480
1,note_on,77,48,0
1,note_on,77,0,240
1,note_on,74,44,0
1,note_on,74,0,120
1,note_on,74,45,60
1,note_on,74,0,60
1,note_on,72,49,0
1,note_on,72,0,120
1,note_on,71,45,120
1,note_on,71,0,120
1,note_on,72,48,120
1,note_on,72,0,120
1,note_on,74,47,120
1,note_on,74,0,120
1,note_on,77,51,120
1,note_on,77,0,480
1,note_on,75,46,0
1,note_on,75,0,240
1,note_on,69,43,0
1,note_on,69,0,120
1,note_on,70,49,120
1,note_on,70,0,120
1,note_on,70,46,120
1,note_on,70,0,480
1,note_on,71,46,0
1,note_on,71,0,240
1,note_on,72,50,0
1,note_on,72,0,120
1,note_on,72,47,120
1,note_on,72,0,480
1,note_on,73,47,0
1,note_on,73,0,240
1,note_on,74,53,0
1,note_on,74,0,120
1,note_on,72,49,120
1,note_on,72,0,120
1,note_on,74,54,120
1,note_on,74,0,120
1,note_on,72,50,120
1,note_on,75,50,0
1,note_on,75,0,120
1,note_on,72,0,0
1,note_on,70,55,120
1,note_on,74,55,0
1,note_on,74,0,480
1,note_on,70,0,0
1,note_on,69,50,0
1,note_on,72,50,0
1,note_on,72,0,180
1,note_on,69,0,0
1,note_on,70,47,60
1,note_on,70,0,120
1,note_on,72,47,0
1,note_on,72,0,120
1,note_on,74,50,0
1,note_on,74,0,240
1,note_on,75,51,240
1,note_on,75,0,240
1,note_on,76,52,240
1,note_on,76,0,480
1,note_on,77,52,0
1,note_on,77,0,240
1,note_on,74,51,0
1,note_on,74,0,120
1,note_on,74,52,60
1,note_on,74,0,60
1,note_on,72,54,0
1,note_on,72,0,120
1,note_on,71,50,120
1,note_on,71,0,120
1,note_on,72,52,120
1,note_on,72,0,120
1,note_on,74,50,120
1,note_on,74,0,120
1,note_on,77,54,120
1,note_on,77,0,480
1,note_on,75,46,0
1,note_on,75,0,240
1,note_on,69,46,0
1,note_on,69,0,120
1,note_on,70,56,120
1,note_on,70,0,120
1,note_on,82,50,120
1,note_on,82,0,240
1,note_on,82,53,0
1,note_on,82,0,120
1,note_on,82,48,120
1,note_on,82,0,120
1,note_on,72,56,120
1,note_on,72,0,120
1,note_on,79,50,120
1,note_on,79,0,240
1,note_on,79,53,0
1,note_on,79,0,120
1,note_on,79,50,120
1,note_on,79,0,120
1,note_on,70,54,120
1,note_on,70,0,120
1,note_on,70,50,120
1,note_on,70,0,120
1,note_on,72,50,120
1,note_on,72,0,60
1,note_on,74,45,0
1,note_on,74,0,60
1,note_on,72,45,0
1,note_on,72,0,60
1,note_on,70,45,0
1,note_on,70,0,60
1,note_on,72,50,0
1,note_on,72,0,120
1,note_on,74,45,0
1,note_on,74,0,120
1,note_on,70,55,0
1,note_on,70,0,480
1,note_on,70,60,240
1,note_on,70,0,120
1,note_on,79,55,120
1,note_on,82,66,0
1,note_on,82,0,120
1,note_on,79,0,0
1,note_on,79,54,120
1,note_on,82,64,0
1,note_on,82,0,480
1,note_on,79,0,0
1,note_on,75,49,0
1,note_on,79,59,0
1,note_on,79,0,240
1,note_on,75,0,0
1,note_on,74,55,0
1,note_on,77,66,0
1,note_on,77,0,120
1,note_on,74,0,0
1,note_on,74,54,120
1,note_on,77,64,0
1,note_on,77,0,480
1,note_on,74,0,0
1,note_on,70,49,0
1,note_on,74,59,0
1,note_on,74,0,240
1,note_on,70,0,0
1,note_on,69,55,0
1,note_on,72,66,0
1,note_on,72,0,120
1,note_on,69,0,0
1,note_on,69,54,120
1,note_on,72,64,0
1,note_on,72,0,480
1,note_on,69,0,0
1,note_on,72,49,0
1,note_on,75,59,0
1,note_on,75,0,240
1,note_on,72,0,0
1,note_on,69,55,0
1,note_on,73,66,0
1,note_on,73,0,240
1,note_on,69,0,0
1,note_on,70,55,0
1,note_on,74,66,0
1,note_on,74,0,240
1,note_on,70,0,0
1,note_on,70,54,0
1,note_on,74,64,0
1,note_on,74,0,180
1,note_on,70,0,0
1,note_on,70,43,60
1,note_on,70,0,120
1,note_on,79,39,120
1,note_on,82,46,0
1,note_on,82,0,120
1,note_on,79,0,0
1,note_on,79,38,120
1,note_on,82,45,0
1,note_on,82,0,480
1,note_on,79,0,0
1,note_on,75,34,0
1,note_on,79,41,0
1,note_on,79,0,240
1,note_on,75,0,0
1,note_on,74,39,0
1,note_on,77,46,0
1,note_on,77,0,120
1,note_on,74,0,0
1,note_on,74,38,120
1,note_on,77,45,0
1,note_on,77,0,480
1,note_on,74,0,0
1,note_on,70,34,0
1,note_on,74,41,0
1,note_on,74,0,240
1,note_on,70,0,0
1,note_on,69,39,0
1,note_on,72,46,0
1,note_on,72,0,120
1,note_on,69,0,0
1,note_on,69,38,120
1,note_on,72,45,0
1,note_on,72,0,480
1,note_on,69,0,0
1,note_on,72,34,0
1,note_on,75,41,0
1,note_on,75,0,240
1,note_on,72,0,0
1,note_on,69,39,0
1,note_on,73,46,0
1,note_on,73,0,240
1,note_on,69,0,0
1,note_on,70,39,0
1,note_on,74,46,0
1,note_on,74,0,240
1,note_on,70,0,0
1,note_on,70,38,0
1,note_on,74,45,0
1,note_on,74,0,180
1,note_on,70,0,0
1,note_on,70,53,60
1,note_on,70,0,120
1,note_on,82,55,120
1,note_on,82,0,120
1,note_on,82,50,120
1,note_on,82,0,120
1,note_on,82,50,120
1,note_on,82,0,120
1,note_on,82,50,120
1,note_on,82,0,120
1,note_on,76,55,120
1,note_on,76,0,120
1,note_on,76,50,120
1,note_on,76,0,120
1,note_on,76,50,120
1,note_on,76,0,120
1,note_on,76,50,120
1,note_on,76,0,120
1,note_on,84,55,120
1,note_on,84,0,120
1,note_on,84,52,120
1,note_on,84,0,120
1,note_on,84,51,120
1,note_on,84,0,120
1,note_on,84,51,120
1,note_on,84,0,120
1,note_on,75,55,120
1,note_on,75,0,120
1,note_on,75,50,120
1,note_on,75,0,120
1,note_on,75,50,120
1,note_on,75,0,120
1,note_on,75,50,120
1,note_on,75,0,120
1,note_on,74,60,120
1,note_on,74,0,120
1,note_on,82,67,120
1,note_on,82,0,120
1,note_on,81,66,120
1,note_on,81,0,120
1,note_on,80,63,120
1,note_on,80,0,120
1,note_on,79,62,120
1,note_on,79,0,120
1,note_on,78,60,120
1,note_on,78,0,120
1,note_on,77,58,120
1,note_on,77,0,120
1,note_on,76,56,120
1,note_on,76,0,120
1,note_on,77,63,120
1,note_on,77,0,240
1,note_on,74,55,0
1,note_on,74,0,240
1,note_on,69,47,0
1,note_on,72,55,0
1,note_on,72,0,240
1,note_on,77,55,0
1,note_on,77,0,240
1,note_on,69,0,0
1,note_on,72,55,0
1,note_on,75,64,0
1,note_on,75,0,480
1,note_on,72,0,0
1,note_on,70,52,0
1,note_on,74,62,0
1,note_on,74,0,240
1,note_on,70,0,0
1,note_on,78,50,480
1,note_on,78,0,240
1,note_on,79,55,0
1,note_on,79,0,240
1,note_on,82,51,0
1,note_on,82,0,240
1,note_on,85,58,0
1,note_on,85,0,360
1,note_on,87,49,0
1,note_on,87,0,60
1,note_on,85,49,0
1,note_on,85,0,60
1,note_on,84,55,0
1,note_on,84,0,240
1,note_on,82,49,0
1,note_on,82,0,240
1,note_on,81,56,0
1,note_on,81,0,240
1,note_on,69,45,0
1,note_on,69,0,240
1,note_on,72,49,0
1,note_on,72,0,240
1,note_on,75,45,0
1,note_on,75,0,240
1,note_on,78,49,0
1,note_on,78,0,360
1,note_on,80,48,0
1,note_on,80,0,60
1,note_on,78,48,0
1,note_on,78,0,60
1,note_on,77,55,0
1,note_on,77,0,240
1,note_on,75,51,0
1,note_on,75,0,240
1,note_on,74,55,0
1,note_on,74,0,240
1,note_on,70,59,0
1,note_on,70,0,120
1,note_on,72,60,120
1,note_on,72,0,120
1,note_on,74,61,120
1,note_on,74,0,120
1,note_on,75,63,120
1,note_on,75,0,120
1,note_on,76,64,120
1,note_on,76,0,120
1,note_on,77,66,120
1,note_on,77,0,120
1,note_on,78,69,120
1,note_on,78,0,120
1,note_on,79,74,120
1,note_on,79,0,360
1,note_on,73,64,120
1,note_on,79,64,0
1,note_on,82,77,0
1,note_on,82,0,480
1,note_on,79,0,0
1,note_on,73,0,0
1,note_on,79,59,240
1,note_on,79,0,240
1,note_on,81,61,0
1,note_on,81,0,240
1,note_on,82,64,0
1,note_on,82,0,240
1,note_on,82,67,0
1,note_on,82,0,120
1,note_on,84,60,0
1,note_on,84,0,120
1,note_on,86,60,0
1,note_on,86,0,120
1,note_on,87,60,0
1,note_on,87,0,120
1,note_on,89,67,0
1,note_on,89,0,120
1,note_on,87,61,0
1,note_on,87,0,120
1,note_on,86,61,0
1,note_on,86,0,120
1,note_on,84,61,0
1,note_on,84,0,120
1,note_on,82,67,0
1,note_on,82,0,120
1,note_on,81,67,0
1,note_on,81,0,120
1,note_on,79,66,0
1,note_on,79,0,120
1,note_on,77,64,0
1,note_on,77,0,120
1,note_on,75,64,0
1,note_on,75,0,120
1,note_on,74,63,0
1,note_on,74,0,120
1,note_on,72,62,0
1,note_on,72,0,120
1,note_on,70,62,0
1,note_on,70,0,120
1,note_on,72,50,0
1,note_on,72,0,60
1,note_on,74,41,0
1,note_on,74,0,60
1,note_on,72,49,0
1,note_on,72,0,60
1,note_on,74,41,0
1,note_on,74,0,60
1,note_on,72,49,0
1,note_on,72,0,60
1,note_on,74,40,0
1,note_on,74,0,60
1,note_on,72,50,0
1,note_on,72,0,60
1,note_on,74,44,0
1,note_on,74,0,60
1,note_on,72,49,0
1,note_on,72,0,60
1,note_on,74,44,0
1,note_on,74,0,60
1,note_on,72,50,0
1,note_on,72,0,60
1,note_on,74,44,0
1,note_on,74,0,60
1,note_on,72,51,0
1,note_on,72,0,60
1,note_on,74,45,0
1,note_on,74,0,60
1,note_on,72,53,0
1,note_on,72,0,60
1,note_on,74,46,0
1,note_on,74,0,60
1,note_on,72,55,0
1,note_on,72,0,60
1,note_on,74,47,0
1,note_on,74,0,60
1,note_on,72,52,0
1,note_on,72,0,60
1,note_on,74,45,0
1,note_on,74,0,60
1,note_on,72,51,0
1,note_on,72,0,60
1,note_on,74,44,0
1,note_on,74,0,60
1,note_on,72,50,0
1,note_on,72,0,60
1,note_on,74,44,0
1,note_on,74,0,60
1,note_on,72,49,0
1,note_on,72,0,60
1,note_on,74,42,0
1,note_on,74,0,60
1,note_on,72,47,0
1,note_on,72,0,60
1,note_on,74,40,0
1,note_on,74,0,60
1,note_on,72,46,0
1,note_on,72,0,80
1,note_on,70,52,0
1,note_on,70,0,80
1,note_on,72,47,0
1,note_on,72,0,80
1,note_on,70,55,0
1,note_on,70,0,240
1,note_on,77,35,960
1,note_on,74,35,0
1,note_on,74,0,240
1,note_on,77,0,0
1,note_on,72,36,0
1,note_on,75,36,0
1,note_on,75,0,240
1,note_on,72,0,0
1,note_on,70,32,0
1,note_on,74,32,0
1,note_on,74,0,240
1,note_on,70,0,0
1,note_on,79,39,0
1,note_on,75,39,0
1,note_on,75,0,480
1,note_on,79,0,0
1,note_on,79,36,720
1,note_on,75,36,0
1,note_on,75,0,240
1,note_on,79,0,0
1,note_on,81,41,0
1,note_on,77,41,0
1,note_on,77,0,240
1,note_on,81,0,0
1,note_on,79,35,0
1,note_on,82,35,0
1,note_on,82,0,240
1,note_on,79,0,0
1,note_on,77,43,0
1,note_on,74,43,0
1,note_on,74,0,480
1,note_on,77,0,0
1,note_on,70,32,720
1,note_on,74,32,0
1,note_on,74,0,240
1,note_on,70,0,0
1,note_on,75,39,0
1,note_on,72,39,0
1,note_on,72,0,240
1,note_on,75,0,0
1,note_on,74,33,0
1,note_on,77,33,0
1,note_on,77,0,240
1,note_on,74,0,0
1,note_on,72,38,0
1,note_on,75,38,0
1,note_on,75,0,480
1,note_on,72,0,0
1,note_on,62,41,720
1,note_on,65,49,0
1,note_on,64,47,240
1,note_on,67,56,0
1,note_on,65,0,12
1,note_on,62,0,0
1,note_on,63,53,228
1,note_on,69,64,0
1,note_on,64,0,12
1,note_on,67,0,0
1,note_on,63,0,228
1,note_on,69,0,0
1,note_on,62,61,0
1,note_on,70,72,0
1,note_on,70,0,240
1,note_on,62,0,0
1,note_on,65,60,240
1,note_on,74,70,0
1,note_on,74,0,240
1,note_on,65,0,0
1,note_on,62,60,240
1,note_on,70,70,0
1,note_on,70,0,240
1,note_on,62,0,0
2,note_on,58,30,1920
2,note_on,58,0,240
2,note_on,65,23,0
2,note_on,65,0,240
2,note_on,60,23,0
2,note_on,60,0,240
2,note_on,65,23,0
2,note_on,65,0,240
2,note_on,62,23,0
2,note_on,62,0,240
2,note_on,65,23,0
2,note_on,65,0,240
2,note_on,58,23,0
2,note_on,58,0,240
2,note_on,65,25,0
2,note_on,65,0,240
2,note_on,57,30,0
2,note_on,57,0,120
2,note_on,65,23,120
2,note_on,65,0,120
2,note_on,58,25,120
2,note_on,58,0,120
2,note_on,65,25,120
2,note_on,65,0,120
2,note_on,60,25,120
2,note_on,60,0,240
2,note_on,65,25,0
2,note_on,65,0,240
2,note_on,63,25,0
2,note_on,63,0,240
2,note_on,65,24,0
2,note_on,65,0,240
2,note_on,62,31,0
2,note_on,62,0,240
2,note_on,65,24,0
2,note_on,65,0,240
2,note_on,62,31,0
2,note_on,62,0,240
2,note_on,65,24,0
2,note_on,65,0,240
2,note_on,57,32,0
2,note_on,57,0,240
2,note_on,65,26,0
2,note_on,65,0,240
2,note_on,57,32,0
2,note_on,57,0,240
2,note_on,65,27,0
2,note_on,65,0,240
2,note_on,58,32,0
2,note_on,58,0,120
2,note_on,57,28,120
2,note_on,57,0,120
2,note_on,58,28,120
2,note_on,58,0,120
2,note_on,51,28,120
2,note_on,51,0,120
2,note_on,53,32,120
2,note_on,53,0,480
2,note_on,58,30,480
2,note_on,58,0,240
2,note_on,65,23,0
2,note_on,65,0,240
2,note_on,60,23,0
2,note_on,60,0,240
2,note_on,65,23,0
2,note_on,65,0,240
2,note_on,62,23,0
2,note_on,62,0,240
2,note_on,65,23,0
2,note_on,65,0,240
2,note_on,58,23,0
2,note_on,58,0,240
2,note_on,65,25,0
2,note_on,65,0,240
2,note_on,57,30,0
2,note_on,57,0,120
2,note_on,65,23,120
2,note_on,65,0,120
2,note_on,58,25,120
2,note_on,58,0,120
2,note_on,65,25,120
2,note_on,65,0,120
2,note_on,60,25,120
2,note_on,60,0,240
2,note_on,65,25,0
2,note_on,65,0,240
2,note_on,63,25,0
2,note_on,63,0,240
2,note_on,65,24,0
2,note_on,65,0,240
2,note_on,62,31,0
2,note_on,62,0,480
2,note_on,67,32,480
2,note_on,63,23,0
2,note_on,63,0,480
2,note_on,67,0,0
2,note_on,53,25,480
2,note_on,62,30,0
2,note_on,62,0,480
2,note_on,63,28,0
2,note_on,63,0,480
2,note_on,53,0,0
2,note_on,58,28,0
2,note_on,62,32,0
2,note_on,62,0,480
2,note_on,58,0,0
2,note_on,53,30,480
2,note_on,53,0,240
2,note_on,57,23,0
2,note_on,57,0,240
2,note_on,55,23,0
2,note_on,55,0,240
2,note_on,58,23,0
2,note_on,58,0,240
2,note_on,57,23,0
2,note_on,57,0,240
2,note_on,60,23,0
2,note_on,60,0,240
2,note_on,58,23,0
2,note_on,58,0,240
2,note_on,65,25,0
2,note_on,65,0,240
2,note_on,63,30,0
2,note_on,63,0,720
2,note_on,64,30,0
2,note_on,64,0,240
2,note_on,65,25,0
2,note_on,65,0,480
2,note_on,53,30,480
2,note_on,53,0,240
2,note_on,57,23,0
2,note_on,57,0,240
2,note_on,55,23,0
2,note_on,55,0,240
2,note_on,58,23,0
2,note_on,58,0,240
2,note_on,57,23,0
2,note_on,57,0,240
2,note_on,60,23,0
2,note_on,60,0,240
2,note_on,58,23,0
2,note_on,58,0,240
2,note_on,65,25,0
2,note_on,65,0,240
2,note_on,67,30,0
2,note_on,70,37,0
2,note_on,70,0,960
2,note_on,67,0,0
2,note_on,69,30,0
2,note_on,65,25,0
2,note_on,65,0,480
2,note_on,69,0,0
2,note_on,67,30,480
2,note_on,70,37,0
2,note_on,70,0,960
2,note_on,67,0,0
2,note_on,65,25,0
2,note_on,69,30,0
2,note_on,69,0,480
2,note_on,65,0,0
2,note_on,67,30,480
2,note_on,70,37,0
2,note_on,70,0,960
2,note_on,67,0,0
2,note_on,65,25,0
2,note_on,69,30,0
2,note_on,69,0,480
2,note_on,65,0,0
2,note_on,58,30,480
2,note_on,58,0,240
2,note_on,65,23,0
2,note_on,65,0,240
2,note_on,60,23,0
2,note_on,60,0,240
2,note_on,65,23,0
2,note_on,65,0,240
2,note_on,62,23,0
2,note_on,62,0,240
2,note_on,65,23,0
2,note_on,65,0,240
2,note_on,58,23,0
2,note_on,58,0,240
2,note_on,65,25,0
2,note_on,65,0,240
2,note_on,57,30,0
2,note_on,57,0,120
2,note_on,65,23,120
2,note_on,65,0,120
2,note_on,58,25,120
2,note_on,58,0,120
2,note_on,65,25,120
2,note_on,65,0,120
2,note_on,60,25,120
2,note_on,60,0,240
2,note_on,65,25,0
2,note_on,65,0,240
2,note_on,63,25,0
2,note_on,63,0,240
2,note_on,65,24,0
2,note_on,65,0,240
2,note_on,62,31,0
2,note_on,62,0,240
2,note_on,65,24,0
2,note_on,65,0,240
2,note_on,62,31,0
2,note_on,62,0,240
2,note_on,65,24,0
2,note_on,65,0,240
2,note_on,57,32,0
2,note_on,57,0,240
2,note_on,65,26,0
2,note_on,65,0,240
2,note_on,57,32,0
2,note_on,57,0,240
2,note_on,65,27,0
2,note_on,65,0,240
2,note_on,58,32,0
2,note_on,58,0,120
2,note_on,57,28,120
2,note_on,57,0,120
2,note_on,58,28,120
2,note_on,58,0,120
2,note_on,51,28,120
2,note_on,51,0,120
2,note_on,53,32,120
2,note_on,53,0,480
2,note_on,58,30,480
2,note_on,58,0,240
2,note_on,65,23,0
2,note_on,65,0,240
2,note_on,60,23,0
2,note_on,60,0,240
2,note_on,65,23,0
2,note_on,65,0,240
2,note_on,62,23,0
2,note_on,62,0,240
2,note_on,65,23,0
2,note_on,65,0,240
2,note_on,58,23,0
2,note_on,58,0,240
2,note_on,65,25,0
2,note_on,65,0,240
2,note_on,57,30,0
2,note_on,57,0,240
2,note_on,65,23,0
2,note_on,65,0,240
2,note_on,58,25,0
2,note_on,58,0,240
2,note_on,65,25,0
2,note_on,65,0,240
2,note_on,60,25,0
2,note_on,60,0,240
2,note_on,65,25,0
2,note_on,65,0,240
2,note_on,63,25,0
2,note_on,63,0,240
2,note_on,65,24,0
2,note_on,65,0,240
2,note_on,62,31,0
2,note_on,62,0,480
2,note_on,67,32,480
2,note_on,63,27,0
2,note_on,63,0,480
2,note_on,67,0,0
2,note_on,53,21,480
2,note_on,62,30,0
2,note_on,62,0,480
2,note_on,63,28,0
2,note_on,63,0,480
2,note_on,53,0,0
2,note_on,58,28,0
2,note_on,62,32,0
2,note_on,62,0,480
2,note_on,58,0,0
2,note_on,46,59,480
2,note_on,46,0,120
2,note_on,58,54,120
2,note_on,58,0,180
2,note_on,58,54,60
2,note_on,58,0,180
2,note_on,58,54,60
2,note_on,58,0,180
2,note_on,46,59,60
2,note_on,46,0,120
2,note_on,58,54,120
2,note_on,58,0,180
2,note_on,58,54,60
2,note_on,58,0,180
2,note_on,58,54,60
2,note_on,58,0,180
2,note_on,58,57,60
2,note_on,63,57,0
2,note_on,63,0,480
2,note_on,60,52,0
2,note_on,60,0,480
2,note_on,58,0,0
2,note_on,62,52,0
2,note_on,58,52,0
2,note_on,58,0,480
2,note_on,62,0,0
2,note_on,46,59,480
2,note_on,46,0,120
2,note_on,58,54,120
2,note_on,58,0,180
2,note_on,58,54,60
2,note_on,58,0,180
2,note_on,58,54,60
2,note_on,58,0,180
2,note_on,46,59,60
2,note_on,46,0,120
2,note_on,58,54,120
2,note_on,58,0,180
2,note_on,58,54,60
2,note_on,58,0,180
2,note_on,58,54,60
2,note_on,58,0,180
2,note_on,58,57,60
2,note_on,67,57,0
2,note_on,67,0,480
2,note_on,69,52,0
2,note_on,69,0,480
2,note_on,58,0,0
2,note_on,70,52,0
2,note_on,58,52,0
2,note_on,58,0,480
2,note_on,70,0,0
2,note_on,66,36,480
2,note_on,66,0,240
2,note_on,69,30,0
2,note_on,69,0,240
2,note_on,67,30,0
2,note_on,67,0,240
2,note_on,70,30,0
2,note_on,70,0,240
2,note_on,69,36,0
2,note_on,69,0,240
2,note_on,72,32,0
2,note_on,72,0,240
2,note_on,70,32,0
2,note_on,70,0,240
2,note_on,74,32,0
2,note_on,74,0,240
2,note_on,64,36,0
2,note_on,64,0,240
2,note_on,67,32,0
2,note_on,67,0,240
2,note_on,65,32,0
2,note_on,65,0,240
2,note_on,69,32,0
2,note_on,69,0,240
2,note_on,67,36,0
2,note_on,67,0,240
2,note_on,70,31,0
2,note_on,70,0,240
2,note_on,69,31,0
2,note_on,69,0,240
2,note_on,72,31,0
2,note_on,72,0,240
2,note_on,57,36,0
2,note_on,65,36,0
2,note_on,65,0,480
2,note_on,57,0,0
2,note_on,58,36,480
2,note_on,67,36,0
2,note_on,65,36,0
2,note_on,65,0,480
2,note_on,67,0,0
2,note_on,58,0,0
2,note_on,60,36,480
2,note_on,69,36,0
2,note_on,69,0,480
2,note_on,70,31,0
2,note_on,70,0,480
2,note_on,60,0,0
2,note_on,65,36,0
2,note_on,70,36,0
2,note_on,70,0,480
2,note_on,69,33,0
2,note_on,69,0,180
2,note_on,65,0,54
2,note_on,46,59,246
2,note_on,46,0,120
2,note_on,58,54,120
2,note_on,58,0,180
2,note_on,58,54,60
2,note_on,58,0,180
2,note_on,58,54,60
2,note_on,58,0,180
2,note_on,46,59,60
2,note_on,46,0,120
2,note_on,58,54,120
2,note_on,58,0,180
2,note_on,58,54,60
2,note_on,58,0,180
2,note_on,58,54,60
2,note_on,58,0,180
2,note_on,58,57,60
2,note_on,63,57,0
2,note_on,63,0,480
2,note_on,60,52,0
2,note_on,60,0,480
2,note_on,58,0,0
2,note_on,62,52,0
2,note_on,58,52,0
2,note_on,58,0,480
2,note_on,62,0,0
2,note_on,46,59,480
2,note_on,46,0,120
2,note_on,58,54,120
2,note_on,58,0,180
2,note_on,58,54,60
2,note_on,58,0,180
2,note_on,58,54,60
2,note_on,58,0,180
2,note_on,46,59,60
2,note_on,46,0,120
2,note_on,58,54,120
2,note_on,58,0,180
2,note_on,58,54,60
2,note_on,58,0,180
2,note_on,58,54,60
2,note_on,58,0,180
2,note_on,58,57,60
2,note_on,67,57,0
2,note_on,67,0,480
2,note_on,69,52,0
2,note_on,69,0,480
2,note_on,58,0,0
2,note_on,70,52,0
2,note_on,58,52,0
2,note_on,58,0,480
2,note_on,70,0,0
2,note_on,66,36,480
2,note_on,66,0,240
2,note_on,69,30,0
2,note_on,69,0,240
2,note_on,67,30,0
2,note_on,67,0,240
2,note_on,70,30,0
2,note_on,70,0,240
2,note_on,69,36,0
2,note_on,69,0,240
2,note_on,72,32,0
2,note_on,72,0,240
2,note_on,70,32,0
2,note_on,70,0,240
2,note_on,74,32,0
2,note_on,74,0,240
2,note_on,64,36,0
2,note_on,64,0,240
2,note_on,67,32,0
2,note_on,67,0,240
2,note_on,65,32,0
2,note_on,65,0,240
2,note_on,69,32,0
2,note_on,69,0,240
2,note_on,67,36,0
2,note_on,67,0,240
2,note_on,70,31,0
2,note_on,70,0,240
2,note_on,69,31,0
2,note_on,69,0,240
2,note_on,72,31,0
2,note_on,72,0,240
2,note_on,57,36,0
2,note_on,65,36,0
2,note_on,65,0,480
2,note_on,57,0,0
2,note_on,58,36,480
2,note_on,67,36,0
2,note_on,65,36,0
2,note_on,65,0,480
2,note_on,67,0,0
2,note_on,58,0,0
2,note_on,60,36,480
2,note_on,69,36,0
2,note_on,69,0,480
2,note_on,70,31,0
2,note_on,70,0,480
2,note_on,60,0,0
2,note_on,65,36,0
2,note_on,70,36,0
2,note_on,70,0,480
2,note_on,69,33,0
2,note_on,69,0,180
2,note_on,65,0,53
2,note_on,38,59,247
2,note_on,38,0,120
2,note_on,50,54,120
2,note_on,50,0,180
2,note_on,50,54,60
2,note_on,50,0,180
2,note_on,50,54,60
2,note_on,50,0,180
2,note_on,43,59,60
2,note_on,43,0,120
2,note_on,55,54,120
2,note_on,55,0,180
2,note_on,55,54,60
2,note_on,55,0,180
2,note_on,55,54,60
2,note_on,55,0,180
2,note_on,36,59,60
2,note_on,36,0,120
2,note_on,48,54,120
2,note_on,48,0,180
2,note_on,48,54,60
2,note_on,48,0,180
2,note_on,48,54,60
2,note_on,48,0,180
2,note_on,41,59,60
2,note_on,41,0,120
2,note_on,53,54,120
2,note_on,53,0,180
2,note_on,53,54,60
2,note_on,53,0,180
2,note_on,53,54,60
2,note_on,53,0,180
2,note_on,58,38,60
2,note_on,58,0,240
2,note_on,61,34,0
2,note_on,61,0,240
2,note_on,58,34,0
2,note_on,58,0,240
2,note_on,56,34,0
2,note_on,56,0,240
2,note_on,54,38,0
2,note_on,54,0,240
2,note_on,58,34,0
2,note_on,58,0,240
2,note_on,54,34,0
2,note_on,54,0,240
2,note_on,53,34,0
2,note_on,53,0,240
2,note_on,52,34,0
2,note_on,52,0,240
2,note_on,60,25,240
2,note_on,67,30,0
2,note_on,67,0,480
2,note_on,60,0,0
2,note_on,65,37,0
2,note_on,65,0,660
2,note_on,46,59,300
2,note_on,46,0,120
2,note_on,58,54,120
2,note_on,58,0,180
2,note_on,58,54,60
2,note_on,58,0,180
2,note_on,58,54,60
2,note_on,58,0,180
2,note_on,46,59,60
2,note_on,46,0,120
2,note_on,58,54,120
2,note_on,58,0,180
2,note_on,58,54,60
2,note_on,58,0,180
2,note_on,58,54,60
2,note_on,58,0,180
2,note_on,58,57,60
2,note_on,63,57,0
2,note_on,63,0,480
2,note_on,60,52,0
2,note_on,60,0,480
2,note_on,58,0,0
2,note_on,62,52,0
2,note_on,58,52,0
2,note_on,58,0,480
2,note_on,62,0,0
2,note_on,46,59,480
2,note_on,46,0,120
2,note_on,58,54,120
2,note_on,58,0,180
2,note_on,58,54,60
2,note_on,58,0,180
2,note_on,58,54,60
2,note_on,58,0,180
2,note_on,46,59,60
2,note_on,46,0,120
2,note_on,58,54,120
2,note_on,58,0,180
2,note_on,58,54,60
2,note_on,58,0,180
2,note_on,58,54,60
2,note_on,58,0,180
2,note_on,58,57,60
2,note_on,67,57,0
2,note_on,67,0,480
2,note_on,69,52,0
2,note_on,69,0,480
2,note_on,58,0,0
2,note_on,70,52,0
2,note_on,58,52,0
2,note_on,58,0,480
2,note_on,70,0,0
2,note_on,59,36,480
2,note_on,59,0,240
2,note_on,62,30,0
2,note_on,62,0,240
2,note_on,60,30,0
2,note_on,60,0,240
2,note_on,63,30,0
2,note_on,63,0,240
2,note_on,62,36,0
2,note_on,62,0,240
2,note_on,65,32,0
2,note_on,65,0,240
2,note_on,63,32,0
2,note_on,63,0,240
2,note_on,67,32,0
2,note_on,67,0,240
2,note_on,57,36,0
2,note_on,57,0,240
2,note_on,60,32,0
2,note_on,60,0,240
2,note_on,58,32,0
2,note_on,58,0,240
2,note_on,62,32,0
2,note_on,62,0,240
2,note_on,60,36,0
2,note_on,60,0,240
2,note_on,63,31,0
2,note_on,63,0,240
2,note_on,62,31,0
2,note_on,62,0,240
2,note_on,65,31,0
2,note_on,65,0,240
2,note_on,50,36,0
2,note_on,53,36,0
2,note_on,58,36,0
2,note_on,58,0,480
2,note_on,53,0,0
2,note_on,50,0,0
2,note_on,51,36,480
2,note_on,60,36,0
2,note_on,58,36,0
2,note_on,58,0,480
2,note_on,60,0,0
2,note_on,51,0,0
2,note_on,53,36,480
2,note_on,62,36,0
2,note_on,62,0,480
2,note_on,63,31,0
2,note_on,63,0,480
2,note_on,53,0,0
2,note_on,58,36,0
2,note_on,63,36,0
2,note_on,63,0,480
2,note_on,62,33,0
2,note_on,62,0,180
2,note_on,58,0,60
2,note_on,38,59,240
2,note_on,38,0,120
2,note_on,50,54,120
2,note_on,50,0,180
2,note_on,50,54,60
2,note_on,50,0,180
2,note_on,50,54,60
2,note_on,50,0,180
2,note_on,43,59,60
2,note_on,43,0,120
2,note_on,55,54,120
2,note_on,55,0,180
2,note_on,55,54,60
2,note_on,55,0,180
2,note_on,55,54,60
2,note_on,55,0,180
2,note_on,36,59,60
2,note_on,36,0,120
2,note_on,48,54,120
2,note_on,48,0,180
2,note_on,48,54,60
2,note_on,48,0,180
2,note_on,48,54,60
2,note_on,48,0,180
2,note_on,41,59,60
2,note_on,41,0,120
2,note_on,53,54,120
2,note_on,53,0,180
2,note_on,53,54,60
2,note_on,53,0,180
2,note_on,53,54,60
2,note_on,53,0,180
2,note_on,58,38,60
2,note_on,58,0,240
2,note_on,61,34,0
2,note_on,61,0,240
2,note_on,58,34,0
2,note_on,58,0,240
2,note_on,56,34,0
2,note_on,56,0,240
2,note_on,54,38,0
2,note_on,54,0,240
2,note_on,58,34,0
2,note_on,58,0,240
2,note_on,54,34,0
2,note_on,54,0,240
2,note_on,53,34,0
2,note_on,53,0,240
2,note_on,52,34,0
2,note_on,52,0,240
2,note_on,60,25,240
2,note_on,67,30,0
2,note_on,67,0,480
2,note_on,60,0,0
2,note_on,65,37,0
2,note_on,65,0,660
2,note_on,46,59,300
2,note_on,46,0,120
2,note_on,58,54,120
2,note_on,58,0,180
2,note_on,58,54,60
2,note_on,58,0,180
2,note_on,58,54,60
2,note_on,58,0,180
2,note_on,46,59,60
2,note_on,46,0,120
2,note_on,58,54,120
2,note_on,58,0,180
2,note_on,58,54,60
2,note_on,58,0,180
2,note_on,58,54,60
2,note_on,58,0,180
2,note_on,58,57,60
2,note_on,63,57,0
2,note_on,63,0,480
2,note_on,60,52,0
2,note_on,60,0,480
2,note_on,58,0,0
2,note_on,62,52,0
2,note_on,58,52,0
2,note_on,58,0,480
2,note_on,62,0,0
2,note_on,46,59,480
2,note_on,46,0,120
2,note_on,58,54,120
2,note_on,58,0,180
2,note_on,58,54,60
2,note_on,58,0,180
2,note_on,58,54,60
2,note_on,58,0,180
2,note_on,46,59,60
2,note_on,46,0,120
2,note_on,58,54,120
2,note_on,58,0,180
2,note_on,58,54,60
2,note_on,58,0,180
2,note_on,58,54,60
2,note_on,58,0,180
2,note_on,58,57,60
2,note_on,67,57,0
2,note_on,67,0,480
2,note_on,69,52,0
2,note_on,69,0,480
2,note_on,58,0,0
2,note_on,70,52,0
2,note_on,58,52,0
2,note_on,58,0,480
2,note_on,70,0,0
2,note_on,59,36,480
2,note_on,59,0,240
2,note_on,62,30,0
2,note_on,62,0,240
2,note_on,60,30,0
2,note_on,60,0,240
2,note_on,63,30,0
2,note_on,63,0,240
2,note_on,62,36,0
2,note_on,62,0,240
2,note_on,65,32,0
2,note_on,65,0,240
2,note_on,63,32,0
2,note_on,63,0,240
2,note_on,67,32,0
2,note_on,67,0,240
2,note_on,57,36,0
2,note_on,57,0,240
2,note_on,60,32,0
2,note_on,60,0,240
2,note_on,58,32,0
2,note_on,58,0,240
2,note_on,62,32,0
2,note_on,62,0,240
2,note_on,60,36,0
2,note_on,60,0,240
2,note_on,63,31,0
2,note_on,63,0,240
2,note_on,62,31,0
2,note_on,62,0,240
2,note_on,65,31,0
2,note_on,65,0,240
2,note_on,50,36,0
2,note_on,53,36,0
2,note_on,58,36,0
2,note_on,58,0,480
2,note_on,53,0,0
2,note_on,50,0,0
2,note_on,51,36,480
2,note_on,60,36,0
2,note_on,58,36,0
2,note_on,58,0,480
2,note_on,60,0,0
2,note_on,51,0,0
2,note_on,53,36,480
2,note_on,62,36,0
2,note_on,62,0,480
2,note_on,63,31,0
2,note_on,63,0,480
2,note_on,53,0,0
2,note_on,58,36,0
2,note_on,63,36,0
2,note_on,63,0,480
2,note_on,62,33,0
2,note_on,62,0,180
2,note_on,58,0,60
2,note_on,58,26,480
2,note_on,62,33,0
2,note_on,62,0,120
2,note_on,58,0,0
2,note_on,58,26,120
2,note_on,62,33,0
2,note_on,62,0,120
2,note_on,58,0,0
2,note_on,58,26,600
2,note_on,62,33,0
2,note_on,62,0,120
2,note_on,58,0,0
2,note_on,58,26,120
2,note_on,62,33,0
2,note_on,62,0,120
2,note_on,58,0,0
2,note_on,55,24,2760
2,note_on,58,29,0
2,note_on,58,0,480
2,note_on,55,0,0
2,note_on,56,24,480
2,note_on,63,29,0
2,note_on,63,0,480
2,note_on,56,0,0
2,note_on,50,24,480
2,note_on,53,29,0
2,note_on,53,0,480
2,note_on,50,0,0
2,note_on,51,24,0
2,note_on,58,29,0
2,note_on,58,0,240
2,note_on,51,0,0
2,note_on,63,30,960
2,note_on,63,0,120
2,note_on,62,35,120
2,note_on,62,0,120
2,note_on,59,32,120
2,note_on,59,0,120
2,note_on,60,35,120
2,note_on,60,0,120
2,note_on,57,29,120
2,note_on,57,0,120
2,note_on,58,35,120
2,note_on,52,31,240
2,note_on,52,0,240
2,note_on,53,35,0
2,note_on,58,0,480
2,note_on,57,35,0
2,note_on,57,0,480
2,note_on,53,0,0
2,note_on,58,39,0
2,note_on,58,0,120
2,note_on,53,36,120
2,note_on,53,0,120
2,note_on,50,35,120
2,note_on,50,0,120
2,note_on,46,35,120
2,note_on,46,0,120
2,note_on,55,24,600
2,note_on,58,29,0
2,note_on,58,0,480
2,note_on,55,0,0
2,note_on,56,24,480
2,note_on,63,29,0
2,note_on,63,0,480
2,note_on,56,0,0
2,note_on,50,24,480
2,note_on,53,29,0
2,note_on,53,0,480
2,note_on,50,0,0
2,note_on,51,24,0
2,note_on,58,29,0
2,note_on,58,0,240
2,note_on,51,0,0
2,note_on,63,30,960
2,note_on,63,0,120
2,note_on,62,35,120
2,note_on,62,0,120
2,note_on,59,32,120
2,note_on,59,0,120
2,note_on,60,35,120
2,note_on,60,0,120
2,note_on,57,29,120
2,note_on,57,0,120
2,note_on,58,35,120
2,note_on,52,31,240
2,note_on,52,0,240
2,note_on,53,35,0
2,note_on,58,0,480
2,note_on,57,35,0
2,note_on,57,0,480
2,note_on,53,0,0
2,note_on,58,39,0
2,note_on,58,0,120
2,note_on,53,36,120
2,note_on,53,0,120
2,note_on,50,35,120
2,note_on,50,0,120
2,note_on,46,35,120
2,note_on,46,0,120
2,note_on,61,46,120
2,note_on,61,0,120
2,note_on,61,39,120
2,note_on,61,0,120
2,note_on,61,39,120
2,note_on,61,0,120
2,note_on,61,39,120
2,note_on,61,0,120
2,note_on,52,44,120
2,note_on,52,0,120
2,note_on,52,39,120
2,note_on,52,0,120
2,note_on,52,39,120
2,note_on,52,0,120
2,note_on,52,39,120
2,note_on,52,0,120
2,note_on,60,44,120
2,note_on,60,0,120
2,note_on,60,38,120
2,note_on,60,0,120
2,note_on,60,38,120
2,note_on,60,0,120
2,note_on,60,39,120
2,note_on,60,0,120
2,note_on,50,44,120
2,note_on,50,0,120
2,note_on,50,37,120
2,note_on,50,0,120
2,note_on,50,37,120
2,note_on,50,0,120
2,note_on,50,39,120
2,note_on,50,0,120
2,note_on,51,41,120
2,note_on,51,0,120
2,note_on,51,42,120
2,note_on,51,0,120
2,note_on,50,44,120
2,note_on,50,0,120
2,note_on,49,47,120
2,note_on,49,0,120
2,note_on,48,49,120
2,note_on,48,0,120
2,note_on,47,49,120
2,note_on,47,0,120
2,note_on,46,47,120
2,note_on,46,0,120
2,note_on,45,47,120
2,note_on,45,0,120
2,note_on,46,50,120
2,note_on,46,0,240
2,note_on,45,44,0
2,note_on,45,0,240
2,note_on,46,50,0
2,note_on,46,0,240
2,note_on,45,44,0
2,note_on,45,0,240
2,note_on,46,44,0
2,note_on,46,0,240
2,note_on,55,29,1200
2,note_on,58,35,0
2,note_on,58,0,480
2,note_on,55,0,0
2,note_on,56,29,480
2,note_on,63,35,0
2,note_on,63,0,480
2,note_on,56,0,0
2,note_on,50,29,480
2,note_on,53,35,0
2,note_on,53,0,480
2,note_on,50,0,0
2,note_on,51,29,0
2,note_on,58,35,0
2,note_on,58,0,240
2,note_on,51,0,0
2,note_on,68,30,960
2,note_on,68,0,120
2,note_on,67,35,120
2,note_on,67,0,120
2,note_on,64,32,120
2,note_on,64,0,120
2,note_on,65,35,120
2,note_on,65,0,120
2,note_on,62,29,120
2,note_on,62,0,120
2,note_on,63,35,120
2,note_on,57,31,240
2,note_on,57,0,240
2,note_on,58,35,0
2,note_on,63,0,480
2,note_on,62,35,0
2,note_on,62,0,480
2,note_on,58,0,0
2,note_on,63,39,0
2,note_on,63,0,120
2,note_on,58,36,120
2,note_on,58,0,120
2,note_on,55,35,120
2,note_on,55,0,120
2,note_on,51,35,120
2,note_on,51,0,120
2,note_on,61,46,120
2,note_on,61,0,120
2,note_on,61,39,120
2,note_on,61,0,120
2,note_on,61,39,120
2,note_on,61,0,120
2,note_on,61,39,120
2,note_on,61,0,120
2,note_on,52,44,120
2,note_on,52,0,120
2,note_on,52,39,120
2,note_on,52,0,120
2,note_on,52,39,120
2,note_on,52,0,120
2,note_on,52,39,120
2,note_on,52,0,120
2,note_on,60,44,120
2,note_on,60,0,120
2,note_on,60,38,120
2,note_on,60,0,120
2,note_on,60,38,120
2,note_on,60,0,120
2,note_on,60,39,120
2,note_on,60,0,120
2,note_on,50,44,120
2,note_on,50,0,120
2,note_on,50,37,120
2,note_on,50,0,120
2,note_on,50,37,120
2,note_on,50,0,120
2,note_on,50,39,120
2,note_on,50,0,120
2,note_on,51,41,120
2,note_on,51,0,120
2,note_on,51,42,120
2,note_on,51,0,120
2,note_on,50,44,120
2,note_on,50,0,120
2,note_on,49,47,120
2,note_on,49,0,120
2,note_on,48,49,120
2,note_on,48,0,120
2,note_on,47,49,120
2,note_on,47,0,120
2,note_on,46,47,120
2,note_on,46,0,120
2,note_on,45,47,120
2,note_on,45,0,120
2,note_on,46,50,120
2,note_on,46,0,240
2,note_on,45,44,0
2,note_on,45,0,240
2,note_on,46,50,0
2,note_on,46,0,240
2,note_on,45,44,0
2,note_on,45,0,240
2,note_on,46,44,0
2,note_on,46,0,240
2,note_on,55,29,1200
2,note_on,58,35,0
2,note_on,58,0,480
2,note_on,55,0,0
2,note_on,56,29,480
2,note_on,63,35,0
2,note_on,63,0,480
2,note_on,56,0,0
2,note_on,50,29,480
2,note_on,53,35,0
2,note_on,53,0,480
2,note_on,50,0,0
2,note_on,51,29,0
2,note_on,58,35,0
2,note_on,58,0,240
2,note_on,51,0,0
2,note_on,68,30,960
2,note_on,68,0,120
2,note_on,67,35,120
2,note_on,67,0,120
2,note_on,64,32,120
2,note_on,64,0,120
2,note_on,65,35,120
2,note_on,65,0,120
2,note_on,62,29,120
2,note_on,62,0,120
2,note_on,63,35,120
2,note_on,57,31,240
2,note_on,57,0,240
2,note_on,58,35,0
2,note_on,63,0,480
2,note_on,62,35,0
2,note_on,62,0,480
2,note_on,58,0,0
2,note_on,63,39,0
2,note_on,63,0,120
2,note_on,58,36,120
2,note_on,58,0,120
2,note_on,55,35,120
2,note_on,55,0,120
2,note_on,51,35,120
2,note_on,51,0,120
2,note_on,55,35,120
2,note_on,55,0,120
2,note_on,67,38,120
2,note_on,66,39,240
2,note_on,67,0,12
2,note_on,65,39,228
2,note_on,66,0,12
2,note_on,63,40,228
2,note_on,65,0,12
2,note_on,62,41,228
2,note_on,63,0,12
2,note_on,60,42,228
2,note_on,62,0,12
2,note_on,58,43,228
2,note_on,60,0,12
2,note_on,58,0,228
2,note_on,57,44,0
2,note_on,57,0,480
2,note_on,69,40,240
2,note_on,70,45,240
2,note_on,69,0,12
2,note_on,72,40,228
2,note_on,70,0,12
2,note_on,74,44,228
2,note_on,72,0,12
2,note_on,72,42,228
2,note_on,74,0,12
2,note_on,72,0,228
2,note_on,71,49,0
2,note_on,71,0,120
2,note_on,72,43,120
2,note_on,72,0,120
2,note_on,69,49,120
2,note_on,69,0,120
2,note_on,70,44,120
2,note_on,70,0,120
2,note_on,67,49,120
2,note_on,67,0,120
2,note_on,69,43,120
2,note_on,69,0,120
2,note_on,66,48,120
2,note_on,66,0,120
2,note_on,67,43,120
2,note_on,67,0,120
2,note_on,67,48,120
2,note_on,70,57,0
2,note_on,70,0,960
2,note_on,67,0,0
2,note_on,65,29,0
2,note_on,69,35,0
2,note_on,69,0,480
2,note_on,65,0,0
2,note_on,67,33,480
2,note_on,70,39,0
2,note_on,70,0,960
2,note_on,67,0,0
2,note_on,65,27,0
2,note_on,69,32,0
2,note_on,69,0,480
2,note_on,65,0,0
2,note_on,67,29,480
2,note_on,70,35,0
2,note_on,70,0,960
2,note_on,67,0,0
2,note_on,65,28,0
2,note_on,69,33,0
2,note_on,69,0,480
2,note_on,65,0,0
2,note_on,58,29,480
2,note_on,58,0,240
2,note_on,65,23,0
2,note_on,65,0,240
2,note_on,60,23,0
2,note_on,60,0,240
2,note_on,65,23,0
2,note_on,65,0,240
2,note_on,62,23,0
2,note_on,62,0,240
2,note_on,65,23,0
2,note_on,65,0,240
2,note_on,58,23,0
2,note_on,58,0,240
2,note_on,65,25,0
2,note_on,65,0,240
2,note_on,57,30,0
2,note_on,57,0,240
2,note_on,65,23,0
2,note_on,65,0,240
2,note_on,58,25,0
2,note_on,58,0,240
2,note_on,65,25,0
2,note_on,65,0,240
2,note_on,60,25,0
2,note_on,60,0,240
2,note_on,65,25,0
2,note_on,65,0,240
2,note_on,63,25,0
2,note_on,63,0,240
2,note_on,65,24,0
2,note_on,65,0,240
2,note_on,62,31,0
2,note_on,62,0,120
2,note_on,65,24,120
2,note_on,65,0,240
2,note_on,62,31,0
2,note_on,62,0,240
2,note_on,65,24,0
2,note_on,65,0,240
2,note_on,57,32,0
2,note_on,57,0,120
2,note_on,65,26,120
2,note_on,65,0,240
2,note_on,57,32,0
2,note_on,57,0,240
2,note_on,65,27,0
2,note_on,65,0,240
2,note_on,58,32,0
2,note_on,58,0,120
2,note_on,57,28,120
2,note_on,57,0,120
2,note_on,58,28,120
2,note_on,58,0,120
2,note_on,51,28,120
2,note_on,51,0,120
2,note_on,53,32,120
2,note_on,53,0,480
2,note_on,58,30,480
2,note_on,58,0,240
2,note_on,65,23,0
2,note_on,65,0,240
2,note_on,60,23,0
2,note_on,60,0,240
2,note_on,65,23,0
2,note_on,65,0,240
2,note_on,62,23,0
2,note_on,62,0,240
2,note_on,65,23,0
2,note_on,65,0,240
2,note_on,58,23,0
2,note_on,58,0,240
2,note_on,65,25,0
2,note_on,65,0,240
2,note_on,57,30,0
2,note_on,57,0,240
2,note_on,65,23,0
2,note_on,65,0,240
2,note_on,58,25,0
2,note_on,58,0,240
2,note_on,65,25,0
2,note_on,65,0,240
2,note_on,60,25,0
2,note_on,60,0,240
2,note_on,65,25,0
2,note_on,65,0,240
2,note_on,63,25,0
2,note_on,63,0,240
2,note_on,65,24,0
2,note_on,65,0,240
2,note_on,62,31,0
2,note_on,62,0,480
2,note_on,67,32,480
2,note_on,63,25,0
2,note_on,63,0,480
2,note_on,67,0,0
2,note_on,53,27,480
2,note_on,62,32,0
2,note_on,62,0,480
2,note_on,63,28,0
2,note_on,63,0,480
2,note_on,53,0,0
2,note_on,58,28,0
2,note_on,62,32,0
2,note_on,62,0,480
2,note_on,58,0,0
2,note_on,46,59,480
2,note_on,46,0,120
2,note_on,58,54,120
2,note_on,58,0,180
2,note_on,58,54,60
2,note_on,58,0,180
2,note_on,58,54,60
2,note_on,58,0,180
2,note_on,46,59,60
2,note_on,46,0,120
2,note_on,58,54,120
2,note_on,58,0,180
2,note_on,58,54,60
2,note_on,58,0,180
2,note_on,58,54,60
2,note_on,58,0,180
2,note_on,41,59,60
2,note_on,41,0,120
2,note_on,53,54,120
2,note_on,53,0,180
2,note_on,53,54,60
2,note_on,53,0,180
2,note_on,53,54,60
2,note_on,53,0,180
2,note_on,46,59,60
2,note_on,46,0,180
2,note_on,58,54,60
2,note_on,58,0,240
2,note_on,58,54,0
2,note_on,58,0,180
2,note_on,58,34,60
2,note_on,58,0,120
2,note_on,46,41,120
2,note_on,46,0,120
2,note_on,58,37,120
2,note_on,58,0,180
2,note_on,58,37,60
2,note_on,58,0,180
2,note_on,58,37,60
2,note_on,58,0,180
2,note_on,46,41,60
2,note_on,46,0,120
2,note_on,58,37,120
2,note_on,58,0,180
2,note_on,58,37,60
2,note_on,58,0,180
2,note_on,58,37,60
2,note_on,58,0,180
2,note_on,41,41,60
2,note_on,41,0,120
2,note_on,53,37,120
2,note_on,53,0,180
2,note_on,53,37,60
2,note_on,53,0,180
2,note_on,53,37,60
2,note_on,53,0,180
2,note_on,46,41,60
2,note_on,46,0,180
2,note_on,58,37,60
2,note_on,58,0,240
2,note_on,58,37,0
2,note_on,58,0,180
2,note_on,55,55,780
2,note_on,55,0,720
2,note_on,57,50,0
2,note_on,57,0,120
2,note_on,58,50,0
2,note_on,58,0,120
2,note_on,60,55,0
2,note_on,60,0,240
2,note_on,58,50,0
2,note_on,58,0,480
2,note_on,57,55,0
2,note_on,57,0,240
2,note_on,41,46,240
2,note_on,41,0,240
2,note_on,42,48,0
2,note_on,42,0,240
2,note_on,43,49,0
2,note_on,43,0,240
2,note_on,44,51,0
2,note_on,44,0,240
2,note_on,45,52,0
2,note_on,45,0,240
2,note_on,46,55,0
2,note_on,46,0,240
2,note_on,58,50,0
2,note_on,58,0,120
2,note_on,60,50,120
2,note_on,60,0,120
2,note_on,62,49,120
2,note_on,62,0,120
2,note_on,63,48,120
2,note_on,63,0,120
2,note_on,63,48,120
2,note_on,63,0,120
2,note_on,65,46,120
2,note_on,65,0,120
2,note_on,66,45,120
2,note_on,66,0,120
2,note_on,65,49,120
2,note_on,65,0,480
2,note_on,65,49,0
2,note_on,65,0,480
2,note_on,66,52,0
2,note_on,66,0,480
2,note_on,67,49,0
2,note_on,67,0,240
2,note_on,43,49,0
2,note_on,43,0,240
2,note_on,58,44,0
2,note_on,58,0,120
2,note_on,58,34,120
2,note_on,58,0,120
2,note_on,58,34,120
2,note_on,58,0,120
2,note_on,58,34,120
2,note_on,58,0,120
2,note_on,52,39,120
2,note_on,52,0,120
2,note_on,52,35,120
2,note_on,52,0,120
2,note_on,52,35,120
2,note_on,52,0,120
2,note_on,52,35,120
2,note_on,52,0,120
2,note_on,54,44,120
2,note_on,54,0,120
2,note_on,54,35,120
2,note_on,54,0,120
2,note_on,54,35,120
2,note_on,54,0,120
2,note_on,54,35,120
2,note_on,54,0,120
2,note_on,45,44,120
2,note_on,45,0,120
2,note_on,45,36,120
2,note_on,45,0,120
2,note_on,45,36,120
2,note_on,45,0,120
2,note_on,45,36,120
2,note_on,45,0,120
2,note_on,46,48,120
2,note_on,46,0,120
2,note_on,58,49,120
2,note_on,58,0,120
2,note_on,57,51,120
2,note_on,57,0,120
2,note_on,56,55,120
2,note_on,56,0,120
2,note_on,55,57,120
2,note_on,55,0,120
2,note_on,54,59,120
2,note_on,54,0,120
2,note_on,53,62,120
2,note_on,53,0,120
2,note_on,50,64,120
2,note_on,50,0,120
2,note_on,51,67,120
2,note_on,51,0,360
2,note_on,40,58,120
2,note_on,52,69,0
2,note_on,52,0,480
2,note_on,40,0,0
2,note_on,53,56,960
2,note_on,53,0,240
2,note_on,62,47,0
2,note_on,62,0,240
2,note_on,58,47,0
2,note_on,58,0,240
2,note_on,62,47,0
2,note_on,62,0,240
2,note_on,53,52,0
2,note_on,53,0,240
2,note_on,62,44,0
2,note_on,62,0,240
2,note_on,58,44,0
2,note_on,58,0,240
2,note_on,62,44,0
2,note_on,62,0,240
2,note_on,53,49,0
2,note_on,53,0,240
2,note_on,63,27,0
2,note_on,63,0,240
2,note_on,60,34,0
2,note_on,60,0,240
2,note_on,63,34,0
2,note_on,63,0,240
2,note_on,53,41,0
2,note_on,53,0,240
2,note_on,63,34,0
2,note_on,63,0,240
2,note_on,60,35,0
2,note_on,60,0,240
2,note_on,63,35,0
2,note_on,63,0,240
2,note_on,46,38,0
2,note_on,46,0,180
2,note_on,58,31,60
2,note_on,58,0,180
2,note_on,58,31,60
2,note_on,58,0,180
2,note_on,58,31,60
2,note_on,58,0,180
2,note_on,58,38,60
2,note_on,58,0,480
2,note_on,46,35,480
2,note_on,46,0,180
2,note_on,58,31,60
2,note_on,58,0,180
2,note_on,58,31,60
2,note_on,58,0,180
2,note_on,58,31,60
2,note_on,58,0,180
2,note_on,58,35,60
2,note_on,58,0,480
2,note_on,46,35,480
2,note_on,46,0,180
2,note_on,58,30,60
2,note_on,58,0,180
2,note_on,58,30,60
2,note_on,58,0,180
2,note_on,58,30,60
2,note_on,58,0,180
2,note_on,58,35,60
2,note_on,58,0,480
2,note_on,41,40,480
2,note_on,41,0,180
2,note_on,53,35,60
2,note_on,53,0,180
2,note_on,53,35,60
2,note_on,53,0,180
2,note_on,53,35,60
2,note_on,53,0,180
2,note_on,53,38,60
2,note_on,53,0,480
2,note_on,46,47,480
2,note_on,46,0,240
2,note_on,58,49,240
2,note_on,58,0,240
2,note_on,46,49,240
2,note_on,46,0,240
