Track,Message Type,Note,Velocity,Time
1,note_on,67,31,0
1,note_on,70,45,0
1,note_on,70,0,480
1,note_on,67,0,0
1,note_on,63,29,0
1,note_on,67,44,0
1,note_on,67,0,240
1,note_on,63,0,0
1,note_on,58,30,0
1,note_on,65,45,0
1,note_on,65,0,240
1,note_on,58,0,0
1,note_on,55,30,0
1,note_on,63,45,0
1,note_on,63,0,240
1,note_on,55,0,0
1,note_on,58,43,0
1,note_on,58,0,240
1,note_on,63,45,0
1,note_on,63,0,240
1,note_on,62,31,0
1,note_on,65,45,0
1,note_on,65,0,240
1,note_on,62,0,0
1,note_on,63,34,0
1,note_on,67,47,0
1,note_on,67,0,240
1,note_on,68,61,0
1,note_on,68,0,240
1,note_on,70,62,0
1,note_on,70,0,240
1,note_on,72,62,0
1,note_on,72,0,240
1,note_on,63,0,0
1,note_on,67,57,0
1,note_on,63,40,0
1,note_on,67,0,360
1,note_on,68,48,0
1,note_on,68,0,120
1,note_on,63,0,0
1,note_on,62,35,0
1,note_on,65,50,0
1,note_on,67,48,120
1,note_on,65,0,10
1,note_on,68,49,110
1,note_on,67,0,10
1,note_on,69,49,110
1,note_on,68,0,10
1,note_on,69,0,110
1,note_on,62,0,0
1,note_on,70,50,0
1,note_on,82,59,0
1,note_on,82,0,480
1,note_on,79,62,0
1,note_on,79,0,240
1,note_on,77,58,0
1,note_on,77,0,240
1,note_on,70,0,0
1,note_on,70,50,0
1,note_on,75,60,0
1,note_on,75,0,180
1,note_on,70,0,0
1,note_on,74,46,60
1,note_on,77,55,0
1,note_on,77,0,180
1,note_on,74,0,0
1,note_on,75,49,60
1,note_on,79,58,0
1,note_on,79,0,180
1,note_on,75,0,0
1,note_on,75,51,60
1,note_on,80,61,0
1,note_on,80,0,180
1,note_on,75,0,0
1,note_on,82,63,60
1,note_on,75,54,0
1,note_on,75,0,240
1,note_on,82,0,0
1,note_on,83,62,0
1,note_on,84,59,60
1,note_on,83,0,10
1,note_on,80,59,50
1,note_on,84,0,10
1,note_on,77,57,50
1,note_on,80,0,10
1,note_on,77,0,50
1,note_on,75,64,0
1,note_on,75,0,240
1,note_on,79,60,0
1,note_on,77,56,60
1,note_on,79,0,10
1,note_on,76,56,50
1,note_on,77,0,10
1,note_on,77,53,50
1,note_on,76,0,10
1,note_on,77,0,40
1,note_on,74,51,10
1,note_on,77,61,0
1,note_on,77,0,480
1,note_on,74,0,0
1,note_on,75,54,0
1,note_on,75,0,240
1,note_on,67,31,240
1,note_on,70,45,0
1,note_on,70,0,480
1,note_on,67,0,0
1,note_on,63,29,0
1,note_on,67,44,0
1,note_on,67,0,240
1,note_on,63,0,0
1,note_on,58,30,0
1,note_on,65,45,0
1,note_on,65,0,240
1,note_on,58,0,0
1,note_on,55,30,0
1,note_on,63,45,0
1,note_on,63,0,240
1,note_on,55,0,0
1,note_on,58,43,0
1,note_on,58,0,240
1,note_on,63,45,0
1,note_on,63,0,240
1,note_on,62,31,0
1,note_on,65,45,0
1,note_on,65,0,240
1,note_on,62,0,0
1,note_on,63,34,0
1,note_on,67,47,0
1,note_on,67,0,240
1,note_on,68,59,0
1,note_on,68,0,240
1,note_on,70,62,0
1,note_on,70,0,240
1,note_on,72,59,0
1,note_on,72,0,240
1,note_on,63,0,0
1,note_on,67,57,0
1,note_on,63,40,0
1,note_on,67,0,360
1,note_on,68,48,0
1,note_on,68,0,120
1,note_on,63,0,0
1,note_on,62,35,0
1,note_on,65,50,0
1,note_on,67,48,120
1,note_on,65,0,10
1,note_on,68,49,110
1,note_on,67,0,10
1,note_on,69,49,110
1,note_on,68,0,10
1,note_on,69,0,110
1,note_on,62,0,0
1,note_on,70,50,0
1,note_on,82,59,0
1,note_on,82,0,480
1,note_on,79,62,0
1,note_on,79,0,240
1,note_on,77,58,0
1,note_on,77,0,240
1,note_on,70,0,0
1,note_on,70,50,0
1,note_on,75,60,0
1,note_on,75,0,180
1,note_on,70,0,0
1,note_on,74,46,60
1,note_on,77,55,0
1,note_on,77,0,180
1,note_on,74,0,0
1,note_on,75,49,60
1,note_on,79,58,0
1,note_on,79,0,180
1,note_on,75,0,0
1,note_on,75,51,60
1,note_on,80,61,0
1,note_on,80,0,180
1,note_on,75,0,0
1,note_on,82,63,60
1,note_on,75,54,0
1,note_on,75,0,240
1,note_on,82,0,0
1,note_on,83,63,0
1,note_on,84,59,60
1,note_on,83,0,10
1,note_on,80,59,50
1,note_on,84,0,10
1,note_on,77,57,50
1,note_on,80,0,10
1,note_on,77,0,50
1,note_on,75,64,0
1,note_on,75,0,240
1,note_on,79,60,0
1,note_on,77,56,60
1,note_on,79,0,10
1,note_on,76,56,50
1,note_on,77,0,10
1,note_on,77,53,50
1,note_on,76,0,10
1,note_on,77,0,40
1,note_on,74,51,10
1,note_on,77,61,0
1,note_on,77,0,480
1,note_on,74,0,0
1,note_on,75,54,0
1,note_on,75,0,240
1,note_on,77,60,240
1,note_on,77,0,480
1,note_on,79,60,0
1,note_on,79,0,240
1,note_on,75,55,0
1,note_on,75,0,240
1,note_on,80,60,0
1,note_on,80,0,360
1,note_on,77,54,0
1,note_on,77,0,120
1,note_on,74,56,0
1,note_on,75,55,120
1,note_on,74,0,10
1,note_on,77,57,110
1,note_on,75,0,10
1,note_on,78,59,110
1,note_on,77,0,10
1,note_on,79,60,110
1,note_on,78,0,10
1,note_on,79,0,230
1,note_on,79,63,0
1,note_on,79,0,240
1,note_on,80,63,0
1,note_on,80,0,240
1,note_on,81,63,0
1,note_on,81,0,240
1,note_on,82,67,0
1,note_on,82,0,360
1,note_on,84,58,0
1,note_on,82,58,40
1,note_on,84,0,10
1,note_on,80,58,30
1,note_on,82,0,10
1,note_on,79,62,30
1,note_on,80,0,10
1,note_on,79,0,110
1,note_on,80,56,0
1,note_on,82,60,120
1,note_on,80,0,10
1,note_on,83,63,110
1,note_on,82,0,10
1,note_on,83,0,110
1,note_on,84,63,0
1,note_on,84,0,480
1,note_on,82,63,0
1,note_on,82,0,480
1,note_on,81,63,0
1,note_on,81,0,480
1,note_on,80,63,0
1,note_on,80,0,480
1,note_on,79,67,0
1,note_on,79,0,240
1,note_on,87,68,0
1,note_on,87,0,240
1,note_on,77,67,0
1,note_on,77,0,240
1,note_on,84,64,0
1,note_on,84,0,240
1,note_on,75,56,0
1,note_on,75,0,360
1,note_on,77,46,0
1,note_on,77,0,60
1,note_on,75,42,0
1,note_on,75,0,60
1,note_on,74,45,0
1,note_on,74,0,240
1,note_on,67,31,240
1,note_on,70,45,0
1,note_on,70,0,480
1,note_on,67,0,0
1,note_on,63,29,0
1,note_on,67,44,0
1,note_on,67,0,240
1,note_on,63,0,0
1,note_on,58,30,0
1,note_on,65,45,0
1,note_on,65,0,240
1,note_on,58,0,0
1,note_on,55,30,0
1,note_on,63,45,0
1,note_on,63,0,240
1,note_on,55,0,0
1,note_on,58,43,0
1,note_on,58,0,240
1,note_on,63,45,0
1,note_on,63,0,240
1,note_on,62,31,0
1,note_on,65,45,0
1,note_on,65,0,240
1,note_on,62,0,0
1,note_on,63,34,0
1,note_on,67,47,0
1,note_on,67,0,240
1,note_on,68,61,0
1,note_on,68,0,240
1,note_on,70,62,0
1,note_on,70,0,240
1,note_on,72,62,0
1,note_on,72,0,240
1,note_on,63,0,0
1,note_on,67,57,0
1,note_on,63,40,0
1,note_on,67,0,360
1,note_on,68,48,0
1,note_on,68,0,120
1,note_on,63,0,0
1,note_on,62,35,0
1,note_on,65,50,0
1,note_on,67,48,120
1,note_on,65,0,10
1,note_on,68,49,110
1,note_on,67,0,10
1,note_on,69,49,110
1,note_on,68,0,10
1,note_on,69,0,110
1,note_on,62,0,0
1,note_on,70,50,0
1,note_on,82,59,0
1,note_on,82,0,480
1,note_on,79,62,0
1,note_on,79,0,240
1,note_on,77,58,0
1,note_on,77,0,240
1,note_on,70,0,0
1,note_on,70,50,0
1,note_on,75,60,0
1,note_on,75,0,180
1,note_on,70,0,0
1,note_on,74,46,60
1,note_on,77,55,0
1,note_on,77,0,180
1,note_on,74,0,0
1,note_on,75,49,60
1,note_on,79,58,0
1,note_on,79,0,180
1,note_on,75,0,0
1,note_on,75,51,60
1,note_on,80,61,0
1,note_on,80,0,180
1,note_on,75,0,0
1,note_on,82,63,60
1,note_on,75,54,0
1,note_on,75,0,240
1,note_on,82,0,0
1,note_on,83,62,0
1,note_on,84,59,60
1,note_on,83,0,10
1,note_on,80,59,50
1,note_on,84,0,10
1,note_on,77,57,50
1,note_on,80,0,10
1,note_on,77,0,50
1,note_on,75,64,0
1,note_on,75,0,240
1,note_on,79,60,0
1,note_on,77,56,60
1,note_on,79,0,10
1,note_on,76,56,50
1,note_on,77,0,10
1,note_on,77,53,50
1,note_on,76,0,10
1,note_on,77,0,40
1,note_on,74,51,10
1,note_on,77,61,0
1,note_on,77,0,480
1,note_on,74,0,0
1,note_on,75,54,0
1,note_on,75,0,240
1,note_on,77,60,240
1,note_on,77,0,480
1,note_on,79,60,0
1,note_on,79,0,240
1,note_on,75,55,0
1,note_on,75,0,240
1,note_on,80,60,0
1,note_on,80,0,360
1,note_on,77,54,0
1,note_on,77,0,120
1,note_on,74,56,0
1,note_on,75,55,120
1,note_on,74,0,10
1,note_on,77,57,110
1,note_on,75,0,10
1,note_on,78,59,110
1,note_on,77,0,10
1,note_on,79,60,110
1,note_on,78,0,10
1,note_on,79,0,230
1,note_on,79,63,0
1,note_on,79,0,240
1,note_on,80,63,0
1,note_on,80,0,240
1,note_on,81,63,0
1,note_on,81,0,240
1,note_on,82,67,0
1,note_on,82,0,360
1,note_on,84,58,0
1,note_on,82,58,40
1,note_on,84,0,10
1,note_on,80,58,30
1,note_on,82,0,10
1,note_on,79,62,30
1,note_on,80,0,10
1,note_on,79,0,110
1,note_on,80,56,0
1,note_on,82,60,120
1,note_on,80,0,10
1,note_on,83,63,110
1,note_on,82,0,10
1,note_on,83,0,110
1,note_on,84,63,0
1,note_on,84,0,480
1,note_on,82,63,0
1,note_on,82,0,480
1,note_on,81,63,0
1,note_on,81,0,480
1,note_on,80,63,0
1,note_on,80,0,480
1,note_on,79,67,0
1,note_on,79,0,240
1,note_on,87,68,0
1,note_on,87,0,240
1,note_on,77,67,0
1,note_on,77,0,240
1,note_on,84,64,0
1,note_on,84,0,240
1,note_on,75,56,0
1,note_on,75,0,360
1,note_on,77,46,0
1,note_on,77,0,60
1,note_on,75,42,0
1,note_on,75,0,60
1,note_on,74,45,0
1,note_on,74,0,240
1,note_on,67,31,240
1,note_on,70,45,0
1,note_on,70,0,480
1,note_on,67,0,0
1,note_on,63,29,0
1,note_on,67,44,0
1,note_on,67,0,240
1,note_on,63,0,0
1,note_on,58,30,0
1,note_on,65,45,0
1,note_on,65,0,240
1,note_on,58,0,0
1,note_on,55,30,0
1,note_on,63,45,0
1,note_on,63,0,240
1,note_on,55,0,0
1,note_on,58,43,0
1,note_on,58,0,240
1,note_on,63,45,0
1,note_on,63,0,240
1,note_on,62,31,0
1,note_on,65,45,0
1,note_on,65,0,240
1,note_on,62,0,0
1,note_on,63,34,0
1,note_on,67,47,0
1,note_on,67,0,240
1,note_on,68,61,0
1,note_on,68,0,240
1,note_on,70,62,0
1,note_on,70,0,240
1,note_on,72,62,0
1,note_on,72,0,240
1,note_on,63,0,0
1,note_on,67,57,0
1,note_on,63,40,0
1,note_on,67,0,360
1,note_on,68,48,0
1,note_on,68,0,120
1,note_on,63,0,0
1,note_on,62,35,0
1,note_on,65,50,0
1,note_on,67,48,120
1,note_on,65,0,10
1,note_on,68,49,110
1,note_on,67,0,10
1,note_on,69,49,110
1,note_on,68,0,10
1,note_on,69,0,110
1,note_on,62,0,0
1,note_on,70,50,0
1,note_on,82,59,0
1,note_on,82,0,480
1,note_on,79,62,0
1,note_on,79,0,240
1,note_on,77,58,0
1,note_on,77,0,240
1,note_on,70,0,0
1,note_on,70,50,0
1,note_on,75,60,0
1,note_on,75,0,180
1,note_on,70,0,0
1,note_on,74,46,60
1,note_on,77,55,0
1,note_on,77,0,180
1,note_on,74,0,0
1,note_on,75,49,60
1,note_on,79,58,0
1,note_on,79,0,180
1,note_on,75,0,0
1,note_on,75,51,60
1,note_on,80,61,0
1,note_on,80,0,180
1,note_on,75,0,0
1,note_on,82,63,60
1,note_on,75,54,0
1,note_on,75,0,240
1,note_on,82,0,0
1,note_on,83,62,0
1,note_on,84,59,60
1,note_on,83,0,10
1,note_on,80,59,50
1,note_on,84,0,10
1,note_on,77,57,50
1,note_on,80,0,10
1,note_on,77,0,50
1,note_on,75,64,0
1,note_on,75,0,240
1,note_on,79,60,0
1,note_on,77,56,60
1,note_on,79,0,10
1,note_on,76,56,50
1,note_on,77,0,10
1,note_on,77,53,50
1,note_on,76,0,10
1,note_on,77,0,40
1,note_on,74,51,10
1,note_on,77,61,0
1,note_on,77,0,480
1,note_on,74,0,0
1,note_on,75,54,0
1,note_on,75,0,240
1,note_on,75,49,240
1,note_on,79,59,0
1,note_on,79,0,360
1,note_on,75,0,0
1,note_on,74,47,0
1,note_on,77,56,0
1,note_on,77,0,120
1,note_on,74,0,0
1,note_on,72,47,0
1,note_on,75,56,0
1,note_on,75,0,240
1,note_on,72,0,0
1,note_on,77,52,240
1,note_on,80,63,0
1,note_on,80,0,360
1,note_on,77,0,0
1,note_on,75,46,0
1,note_on,79,54,0
1,note_on,79,0,120
1,note_on,75,0,0
1,note_on,74,48,0
1,note_on,77,58,0
1,note_on,77,0,240
1,note_on,74,0,0
1,note_on,72,47,360
1,note_on,75,57,0
1,note_on,74,50,120
1,note_on,77,60,0
1,note_on,75,0,12
1,note_on,72,0,0
1,note_on,75,52,108
1,note_on,79,62,0
1,note_on,74,0,12
1,note_on,77,0,0
1,note_on,75,0,78
1,note_on,79,0,0
1,note_on,75,51,30
1,note_on,79,61,0
1,note_on,79,0,120
1,note_on,75,0,0
1,note_on,74,50,0
1,note_on,77,60,0
1,note_on,77,0,120
1,note_on,74,0,0
1,note_on,74,48,0
1,note_on,77,58,0
1,note_on,77,0,120
1,note_on,74,0,0
1,note_on,72,47,0
1,note_on,75,56,0
1,note_on,75,0,90
1,note_on,72,0,0
1,note_on,72,49,30
1,note_on,75,58,0
1,note_on,75,0,480
1,note_on,72,0,0
1,note_on,71,45,0
1,note_on,74,54,0
1,note_on,74,0,240
1,note_on,71,0,0
1,note_on,75,57,360
1,note_on,75,0,120
1,note_on,72,53,0
1,note_on,72,0,120
1,note_on,68,53,0
1,note_on,68,0,120
1,note_on,67,53,0
1,note_on,67,0,240
1,note_on,66,55,0
1,note_on,66,0,240
1,note_on,82,61,120
1,note_on,82,0,120
1,note_on,79,61,0
1,note_on,79,0,120
1,note_on,75,61,0
1,note_on,75,0,120
1,note_on,74,65,0
1,note_on,74,0,240
1,note_on,73,61,0
1,note_on,73,0,240
1,note_on,74,54,120
1,note_on,74,0,120
1,note_on,70,53,120
1,note_on,67,45,0
1,note_on,67,0,120
1,note_on,70,0,0
1,note_on,69,45,120
1,note_on,72,53,0
1,note_on,72,0,120
1,note_on,69,0,0
1,note_on,69,45,120
1,note_on,66,53,0
1,note_on,66,0,120
1,note_on,69,0,0
1,note_on,67,49,120
1,note_on,67,0,120
1,note_on,69,49,0
1,note_on,69,0,120
1,note_on,71,49,0
1,note_on,71,0,120
1,note_on,69,41,0
1,note_on,72,49,0
1,note_on,72,0,120
1,note_on,69,0,0
1,note_on,71,42,0
1,note_on,74,50,0
1,note_on,74,0,120
1,note_on,71,0,0
1,note_on,72,44,0
1,note_on,75,52,0
1,note_on,75,0,120
1,note_on,72,0,0
1,note_on,74,45,0
1,note_on,77,54,0
1,note_on,77,0,120
1,note_on,74,0,0
1,note_on,75,49,0
1,note_on,79,59,0
1,note_on,79,0,360
1,note_on,75,0,0
1,note_on,74,47,0
1,note_on,77,56,0
1,note_on,77,0,120
1,note_on,74,0,0
1,note_on,72,47,0
1,note_on,75,56,0
1,note_on,75,0,240
1,note_on,72,0,0
1,note_on,77,52,240
1,note_on,80,63,0
1,note_on,80,0,360
1,note_on,77,0,0
1,note_on,75,46,0
1,note_on,79,54,0
1,note_on,79,0,120
1,note_on,75,0,0
1,note_on,74,48,0
1,note_on,77,58,0
1,note_on,77,0,240
1,note_on,74,0,0
1,note_on,72,47,360
1,note_on,75,57,0
1,note_on,74,50,120
1,note_on,77,60,0
1,note_on,75,0,12
1,note_on,72,0,0
1,note_on,75,52,108
1,note_on,79,62,0
1,note_on,74,0,12
1,note_on,77,0,0
1,note_on,75,0,78
1,note_on,79,0,0
1,note_on,75,51,30
1,note_on,79,61,0
1,note_on,79,0,120
1,note_on,75,0,0
1,note_on,74,50,0
1,note_on,77,60,0
1,note_on,77,0,120
1,note_on,74,0,0
1,note_on,74,48,0
1,note_on,77,58,0
1,note_on,77,0,120
1,note_on,74,0,0
1,note_on,72,47,0
1,note_on,75,56,0
1,note_on,75,0,90
1,note_on,72,0,0
1,note_on,72,49,30
1,note_on,75,58,0
1,note_on,75,0,480
1,note_on,72,0,0
1,note_on,71,45,0
1,note_on,74,54,0
1,note_on,74,0,240
1,note_on,71,0,0
1,note_on,75,57,360
1,note_on,75,0,120
1,note_on,72,53,0
1,note_on,72,0,120
1,note_on,68,53,0
1,note_on,68,0,120
1,note_on,67,53,0
1,note_on,67,0,240
1,note_on,66,55,0
1,note_on,66,0,240
1,note_on,82,61,120
1,note_on,82,0,120
1,note_on,79,61,0
1,note_on,79,0,120
1,note_on,75,61,0
1,note_on,75,0,120
1,note_on,74,65,0
1,note_on,74,0,240
1,note_on,73,61,0
1,note_on,73,0,240
1,note_on,74,54,120
1,note_on,74,0,120
1,note_on,70,53,120
1,note_on,67,45,0
1,note_on,67,0,120
1,note_on,70,0,0
1,note_on,69,45,120
1,note_on,72,53,0
1,note_on,72,0,120
1,note_on,69,0,0
1,note_on,69,45,120
1,note_on,66,53,0
1,note_on,66,0,120
1,note_on,69,0,0
1,note_on,67,49,120
1,note_on,67,0,120
1,note_on,69,49,0
1,note_on,69,0,120
1,note_on,71,49,0
1,note_on,71,0,120
1,note_on,69,41,0
1,note_on,72,49,0
1,note_on,72,0,120
1,note_on,69,0,0
1,note_on,71,42,0
1,note_on,74,50,0
1,note_on,74,0,120
1,note_on,71,0,0
1,note_on,72,44,0
1,note_on,75,52,0
1,note_on,75,0,120
1,note_on,72,0,0
1,note_on,74,45,0
1,note_on,77,54,0
1,note_on,77,0,120
1,note_on,74,0,0
1,note_on,76,49,0
1,note_on,79,59,0
1,note_on,79,0,480
1,note_on,76,0,0
1,note_on,77,47,0
1,note_on,80,56,0
1,note_on,80,0,480
1,note_on,77,0,0
1,note_on,79,52,0
1,note_on,82,63,0
1,note_on,82,0,480
1,note_on,79,0,0
1,note_on,77,48,0
1,note_on,80,58,0
1,note_on,80,0,240
1,note_on,77,0,0
1,note_on,74,57,240
1,note_on,77,68,0
1,note_on,77,0,480
1,note_on,74,0,0
1,note_on,75,54,0
1,note_on,79,64,0
1,note_on,79,0,480
1,note_on,75,0,0
1,note_on,77,57,0
1,note_on,80,68,0
1,note_on,80,0,480
1,note_on,77,0,0
1,note_on,75,54,0
1,note_on,79,63,0
1,note_on,79,0,240
1,note_on,75,0,0
1,note_on,78,61,360
1,note_on,79,63,120
1,note_on,78,0,12
1,note_on,78,60,108
1,note_on,79,0,12
1,note_on,78,0,108
1,note_on,86,66,0
1,note_on,86,0,240
1,note_on,77,62,0
1,note_on,77,0,240
1,note_on,76,60,120
1,note_on,77,62,120
1,note_on,76,0,12
1,note_on,76,57,108
1,note_on,77,0,12
1,note_on,76,0,108
1,note_on,84,63,0
1,note_on,84,0,240
1,note_on,75,57,0
1,note_on,75,0,240
1,note_on,73,54,120
1,note_on,72,56,120
1,note_on,73,0,12
1,note_on,73,54,108
1,note_on,72,0,12
1,note_on,76,58,108
1,note_on,73,0,12
1,note_on,77,50,108
1,note_on,76,0,12
1,note_on,79,53,108
1,note_on,77,0,12
1,note_on,80,55,108
1,note_on,79,0,12
1,note_on,80,0,108
1,note_on,72,55,0
1,note_on,72,0,480
1,note_on,71,54,0
1,note_on,74,49,120
1,note_on,71,0,12
1,note_on,75,52,108
1,note_on,74,0,12
1,note_on,77,54,108
1,note_on,75,0,12
1,note_on,77,0,108
1,note_on,75,49,0
1,note_on,79,59,0
1,note_on,79,0,360
1,note_on,75,0,0
1,note_on,74,47,0
1,note_on,77,56,0
1,note_on,77,0,120
1,note_on,74,0,0
1,note_on,72,47,0
1,note_on,75,56,0
1,note_on,75,0,240
1,note_on,72,0,0
1,note_on,77,52,240
1,note_on,80,63,0
1,note_on,80,0,360
1,note_on,77,0,0
1,note_on,75,46,0
1,note_on,79,54,0
1,note_on,79,0,120
1,note_on,75,0,0
1,note_on,74,48,0
1,note_on,77,58,0
1,note_on,77,0,240
1,note_on,74,0,0
1,note_on,72,47,360
1,note_on,75,57,0
1,note_on,74,50,120
1,note_on,77,60,0
1,note_on,75,0,12
1,note_on,72,0,0
1,note_on,75,52,108
1,note_on,79,62,0
1,note_on,74,0,12
1,note_on,77,0,0
1,note_on,75,0,78
1,note_on,79,0,0
1,note_on,75,51,30
1,note_on,79,61,0
1,note_on,79,0,120
1,note_on,75,0,0
1,note_on,74,50,0
1,note_on,77,60,0
1,note_on,77,0,120
1,note_on,74,0,0
1,note_on,74,48,0
1,note_on,77,58,0
1,note_on,77,0,120
1,note_on,74,0,0
1,note_on,72,47,0
1,note_on,75,56,0
1,note_on,75,0,90
1,note_on,72,0,0
1,note_on,72,49,30
1,note_on,75,58,0
1,note_on,75,0,480
1,note_on,72,0,0
1,note_on,71,45,0
1,note_on,74,54,0
1,note_on,74,0,240
1,note_on,71,0,0
1,note_on,79,61,360
1,note_on,79,0,120
1,note_on,75,56,0
1,note_on,75,0,120
1,note_on,71,56,0
1,note_on,71,0,120
1,note_on,74,60,0
1,note_on,74,0,240
1,note_on,72,55,0
1,note_on,72,0,240
1,note_on,84,61,120
1,note_on,84,0,120
1,note_on,80,61,0
1,note_on,80,0,120
1,note_on,76,61,0
1,note_on,76,0,120
1,note_on,79,65,0
1,note_on,79,0,240
1,note_on,78,61,0
1,note_on,78,0,240
1,note_on,79,54,120
1,note_on,79,0,120
1,note_on,75,53,120
1,note_on,72,45,0
1,note_on,72,0,120
1,note_on,75,0,0
1,note_on,74,45,120
1,note_on,77,53,0
1,note_on,77,0,120
1,note_on,74,0,0
1,note_on,74,45,120
1,note_on,71,53,0
1,note_on,71,0,120
1,note_on,74,0,0
1,note_on,71,49,120
1,note_on,71,0,120
1,note_on,72,49,0
1,note_on,72,0,120
1,note_on,71,49,0
1,note_on,71,0,120
1,note_on,72,49,0
1,note_on,72,0,120
1,note_on,71,42,0
1,note_on,74,50,0
1,note_on,74,0,120
1,note_on,71,0,0
1,note_on,72,44,0
1,note_on,75,52,0
1,note_on,75,0,120
1,note_on,72,0,0
1,note_on,74,45,0
1,note_on,77,54,0
1,note_on,77,0,120
1,note_on,74,0,0
1,note_on,76,49,0
1,note_on,79,59,0
1,note_on,79,0,480
1,note_on,76,0,0
1,note_on,77,47,0
1,note_on,80,56,0
1,note_on,80,0,480
1,note_on,77,0,0
1,note_on,79,52,0
1,note_on,82,63,0
1,note_on,82,0,480
1,note_on,79,0,0
1,note_on,77,48,0
1,note_on,80,58,0
1,note_on,80,0,240
1,note_on,77,0,0
1,note_on,74,57,240
1,note_on,77,68,0
1,note_on,77,0,480
1,note_on,74,0,0
1,note_on,75,54,0
1,note_on,79,64,0
1,note_on,79,0,480
1,note_on,75,0,0
1,note_on,77,57,0
1,note_on,80,68,0
1,note_on,80,0,480
1,note_on,77,0,0
1,note_on,75,54,0
1,note_on,79,63,0
1,note_on,79,0,240
1,note_on,75,0,0
1,note_on,78,61,360
1,note_on,79,63,120
1,note_on,78,0,12
1,note_on,78,60,108
1,note_on,79,0,12
1,note_on,78,0,108
1,note_on,86,66,0
1,note_on,86,0,240
1,note_on,77,62,0
1,note_on,77,0,240
1,note_on,76,60,120
1,note_on,77,62,120
1,note_on,76,0,12
1,note_on,76,57,108
1,note_on,77,0,12
1,note_on,76,0,108
1,note_on,84,63,0
1,note_on,84,0,240
1,note_on,75,57,0
1,note_on,75,0,240
1,note_on,73,54,120
1,note_on,72,56,120
1,note_on,73,0,12
1,note_on,73,54,108
1,note_on,72,0,12
1,note_on,76,58,108
1,note_on,73,0,12
1,note_on,77,50,108
1,note_on,76,0,12
1,note_on,79,53,108
1,note_on,77,0,12
1,note_on,80,55,108
1,note_on,79,0,12
1,note_on,80,0,108
1,note_on,72,55,0
1,note_on,72,0,480
1,note_on,71,54,0
1,note_on,74,49,120
1,note_on,71,0,12
1,note_on,75,52,108
1,note_on,74,0,12
1,note_on,77,54,108
1,note_on,75,0,12
1,note_on,77,0,108
1,note_on,75,49,0
1,note_on,79,59,0
1,note_on,79,0,360
1,note_on,75,0,0
1,note_on,74,47,0
1,note_on,77,56,0
1,note_on,77,0,120
1,note_on,74,0,0
1,note_on,72,47,0
1,note_on,75,56,0
1,note_on,75,0,240
1,note_on,72,0,0
1,note_on,77,52,240
1,note_on,80,63,0
1,note_on,80,0,360
1,note_on,77,0,0
1,note_on,75,46,0
1,note_on,79,54,0
1,note_on,79,0,120
1,note_on,75,0,0
1,note_on,74,48,0
1,note_on,77,58,0
1,note_on,77,0,240
1,note_on,74,0,0
1,note_on,72,47,360
1,note_on,75,57,0
1,note_on,74,50,120
1,note_on,77,60,0
1,note_on,75,0,12
1,note_on,72,0,0
1,note_on,75,52,108
1,note_on,79,62,0
1,note_on,74,0,12
1,note_on,77,0,0
1,note_on,75,0,78
1,note_on,79,0,0
1,note_on,75,51,30
1,note_on,79,61,0
1,note_on,79,0,120
1,note_on,75,0,0
1,note_on,74,50,0
1,note_on,77,60,0
1,note_on,77,0,120
1,note_on,74,0,0
1,note_on,74,48,0
1,note_on,77,58,0
1,note_on,77,0,120
1,note_on,74,0,0
1,note_on,72,47,0
1,note_on,75,56,0
1,note_on,75,0,90
1,note_on,72,0,0
1,note_on,72,49,30
1,note_on,75,58,0
1,note_on,75,0,480
1,note_on,72,0,0
1,note_on,71,45,0
1,note_on,74,54,0
1,note_on,74,0,240
1,note_on,71,0,0
1,note_on,79,61,360
1,note_on,79,0,120
1,note_on,75,56,0
1,note_on,75,0,120
1,note_on,71,56,0
1,note_on,71,0,120
1,note_on,74,60,0
1,note_on,74,0,240
1,note_on,72,55,0
1,note_on,72,0,240
1,note_on,84,61,120
1,note_on,84,0,120
1,note_on,80,61,0
1,note_on,80,0,120
1,note_on,76,61,0
1,note_on,76,0,120
1,note_on,79,65,0
1,note_on,79,0,240
1,note_on,78,61,0
1,note_on,78,0,240
1,note_on,79,54,120
1,note_on,79,0,120
1,note_on,75,53,120
1,note_on,72,45,0
1,note_on,72,0,120
1,note_on,75,0,0
1,note_on,74,45,120
1,note_on,77,53,0
1,note_on,77,0,120
1,note_on,74,0,0
1,note_on,74,45,120
1,note_on,71,53,0
1,note_on,71,0,120
1,note_on,74,0,0
1,note_on,71,49,120
1,note_on,72,52,120
1,note_on,71,0,12
1,note_on,71,49,108
1,note_on,72,0,12
1,note_on,71,0,108
1,note_on,72,54,0
1,note_on,72,0,600
1,note_on,73,54,0
1,note_on,72,51,120
1,note_on,73,0,12
1,note_on,73,53,108
1,note_on,72,0,12
1,note_on,73,0,108
1,note_on,72,54,0
1,note_on,72,0,600
1,note_on,76,56,0
1,note_on,77,58,120
1,note_on,76,0,12
1,note_on,80,61,108
1,note_on,77,0,12
1,note_on,80,0,108
1,note_on,71,56,0
1,note_on,71,0,600
1,note_on,69,50,0
1,note_on,70,54,120
1,note_on,69,0,12
1,note_on,69,50,108
1,note_on,70,0,12
1,note_on,69,0,108
1,note_on,70,54,0
1,note_on,70,0,600
1,note_on,73,46,0
1,note_on,74,48,120
1,note_on,73,0,12
1,note_on,75,49,108
1,note_on,74,0,12
1,note_on,76,51,108
1,note_on,75,0,12
1,note_on,77,52,108
1,note_on,76,0,12
1,note_on,78,53,108
1,note_on,77,0,12
1,note_on,79,54,108
1,note_on,78,0,12
1,note_on,79,0,108
1,note_on,82,55,0
1,note_on,82,0,360
1,note_on,81,50,0
1,note_on,81,0,120
1,note_on,80,45,0
1,note_on,80,0,240
1,note_on,64,41,360
1,note_on,64,0,120
1,note_on,65,44,0
1,note_on,65,0,120
1,note_on,67,41,0
1,note_on,67,0,120
1,note_on,68,44,0
1,note_on,68,0,120
1,note_on,67,45,0
1,note_on,67,0,120
1,note_on,68,45,0
1,note_on,68,0,120
1,note_on,69,46,0
1,note_on,69,0,120
1,note_on,67,34,0
1,note_on,70,49,0
1,note_on,70,0,480
1,note_on,67,0,0
1,note_on,63,32,0
1,note_on,67,47,0
1,note_on,67,0,240
1,note_on,63,0,0
1,note_on,58,33,0
1,note_on,65,49,0
1,note_on,65,0,240
1,note_on,58,0,0
1,note_on,55,33,0
1,note_on,63,49,0
1,note_on,63,0,240
1,note_on,55,0,0
1,note_on,58,46,0
1,note_on,58,0,240
1,note_on,63,49,0
1,note_on,63,0,240
1,note_on,62,34,0
1,note_on,65,49,0
1,note_on,65,0,240
1,note_on,62,0,0
1,note_on,63,36,0
1,note_on,67,52,0
1,note_on,67,0,240
1,note_on,68,58,0
1,note_on,68,0,240
1,note_on,70,60,0
1,note_on,70,0,240
1,note_on,72,57,0
1,note_on,72,0,240
1,note_on,63,0,0
1,note_on,67,63,0
1,note_on,63,44,0
1,note_on,67,0,360
1,note_on,68,53,0
1,note_on,68,0,120
1,note_on,63,0,0
1,note_on,62,37,0
1,note_on,65,54,0
1,note_on,67,53,120
1,note_on,65,0,10
1,note_on,68,54,110
1,note_on,67,0,10
1,note_on,69,54,110
1,note_on,68,0,10
1,note_on,69,0,110
1,note_on,62,0,0
1,note_on,70,50,0
1,note_on,82,59,0
1,note_on,82,0,480
1,note_on,79,62,0
1,note_on,79,0,240
1,note_on,77,58,0
1,note_on,77,0,240
1,note_on,70,0,0
1,note_on,70,50,0
1,note_on,75,60,0
1,note_on,75,0,180
1,note_on,70,0,0
1,note_on,74,46,60
1,note_on,77,55,0
1,note_on,77,0,180
1,note_on,74,0,0
1,note_on,75,49,60
1,note_on,79,58,0
1,note_on,79,0,180
1,note_on,75,0,0
1,note_on,75,51,60
1,note_on,80,61,0
1,note_on,80,0,180
1,note_on,75,0,0
1,note_on,82,63,60
1,note_on,75,54,0
1,note_on,75,0,240
1,note_on,82,0,0
1,note_on,83,62,0
1,note_on,84,59,60
1,note_on,83,0,10
1,note_on,80,59,50
1,note_on,84,0,10
1,note_on,77,57,50
1,note_on,80,0,10
1,note_on,77,0,50
1,note_on,75,64,0
1,note_on,75,0,240
1,note_on,79,60,0
1,note_on,77,56,60
1,note_on,79,0,10
1,note_on,76,56,50
1,note_on,77,0,10
1,note_on,77,53,50
1,note_on,76,0,10
1,note_on,77,0,40
1,note_on,74,51,10
1,note_on,77,61,0
1,note_on,77,0,480
1,note_on,74,0,0
1,note_on,75,54,0
1,note_on,75,0,240
1,note_on,72,54,240
1,note_on,72,0,480
1,note_on,75,54,0
1,note_on,75,0,120
1,note_on,73,50,0
1,note_on,73,0,120
1,note_on,70,54,0
1,note_on,70,0,120
1,note_on,67,50,0
1,note_on,67,0,120
1,note_on,68,54,0
1,note_on,68,0,360
1,note_on,70,50,0
1,note_on,70,0,60
1,note_on,72,50,0
1,note_on,72,0,60
1,note_on,70,54,4
1,note_on,70,0,240
1,note_on,73,59,236
1,note_on,73,0,480
1,note_on,77,61,0
1,note_on,75,56,120
1,note_on,77,0,12
1,note_on,73,58,108
1,note_on,75,0,12
1,note_on,72,54,108
1,note_on,73,0,12
1,note_on,70,63,108
1,note_on,72,0,12
1,note_on,70,0,348
1,note_on,72,54,0
1,note_on,72,0,60
1,note_on,73,54,0
1,note_on,73,0,60
1,note_on,72,63,0
1,note_on,72,0,240
1,note_on,84,67,240
1,note_on,84,0,360
1,note_on,76,59,0
1,note_on,76,0,120
1,note_on,77,61,0
1,note_on,77,0,60
1,note_on,79,56,60
1,note_on,79,0,60
1,note_on,80,57,60
1,note_on,80,0,60
1,note_on,81,58,60
1,note_on,81,0,60
1,note_on,82,63,60
1,note_on,82,0,360
1,note_on,74,53,0
1,note_on,74,0,120
1,note_on,75,62,0
1,note_on,75,0,60
1,note_on,77,54,60
1,note_on,77,0,60
1,note_on,78,55,60
1,note_on,78,0,60
1,note_on,79,56,60
1,note_on,79,0,60
1,note_on,79,62,60
1,note_on,79,0,120
1,note_on,72,55,0
1,note_on,72,0,120
1,note_on,80,62,0
1,note_on,80,0,120
1,note_on,77,56,0
1,note_on,77,0,90
1,note_on,77,58,30
1,note_on,77,0,120
1,note_on,75,53,0
1,note_on,75,0,90
1,note_on,75,58,30
1,note_on,75,0,120
1,note_on,74,53,0
1,note_on,74,0,90
1,note_on,75,58,30
1,note_on,74,52,120
1,note_on,75,0,12
1,note_on,75,55,108
1,note_on,74,0,12
1,note_on,77,51,108
1,note_on,75,0,12
1,note_on,75,54,108
1,note_on,77,0,12
1,note_on,74,54,108
1,note_on,75,0,12
1,note_on,73,52,108
1,note_on,74,0,12
1,note_on,70,51,108
1,note_on,73,0,12
1,note_on,70,0,108
1,note_on,72,54,0
1,note_on,72,0,480
1,note_on,75,54,0
1,note_on,75,0,120
1,note_on,73,50,0
1,note_on,73,0,120
1,note_on,70,54,0
1,note_on,70,0,120
1,note_on,67,50,0
1,note_on,67,0,120
1,note_on,68,54,0
1,note_on,68,0,360
1,note_on,70,50,0
1,note_on,70,0,60
1,note_on,72,50,0
1,note_on,72,0,60
1,note_on,70,54,4
1,note_on,70,0,240
1,note_on,73,59,236
1,note_on,73,0,480
1,note_on,77,61,0
1,note_on,75,56,120
1,note_on,77,0,12
1,note_on,73,58,108
1,note_on,75,0,12
1,note_on,72,54,108
1,note_on,73,0,12
1,note_on,70,63,108
1,note_on,72,0,12
1,note_on,70,0,348
1,note_on,72,54,0
1,note_on,72,0,60
1,note_on,73,54,0
1,note_on,73,0,60
1,note_on,72,63,0
1,note_on,72,0,240
1,note_on,84,67,240
1,note_on,84,0,360
1,note_on,76,59,0
1,note_on,76,0,120
1,note_on,77,61,0
1,note_on,77,0,60
1,note_on,79,56,60
1,note_on,79,0,60
1,note_on,80,57,60
1,note_on,80,0,60
1,note_on,81,58,60
1,note_on,81,0,60
1,note_on,82,63,60
1,note_on,82,0,360
1,note_on,74,53,0
1,note_on,74,0,120
1,note_on,75,62,0
1,note_on,75,0,60
1,note_on,77,54,60
1,note_on,77,0,60
1,note_on,78,55,60
1,note_on,78,0,60
1,note_on,79,56,60
1,note_on,79,0,60
1,note_on,79,62,60
1,note_on,79,0,120
1,note_on,72,55,0
1,note_on,72,0,120
1,note_on,80,62,0
1,note_on,80,0,120
1,note_on,77,56,0
1,note_on,77,0,90
1,note_on,77,58,30
1,note_on,77,0,120
1,note_on,75,53,0
1,note_on,75,0,90
1,note_on,75,58,30
1,note_on,75,0,120
1,note_on,74,53,0
1,note_on,74,0,90
1,note_on,75,58,30
1,note_on,74,52,120
1,note_on,75,0,12
1,note_on,75,55,108
1,note_on,74,0,12
1,note_on,77,51,108
1,note_on,75,0,12
1,note_on,75,54,108
1,note_on,77,0,12
1,note_on,74,54,108
1,note_on,75,0,12
1,note_on,73,52,108
1,note_on,74,0,12
1,note_on,70,51,108
1,note_on,73,0,12
1,note_on,70,0,108
1,note_on,69,45,0
1,note_on,72,59,0
1,note_on,72,0,480
1,note_on,71,59,0
1,note_on,72,54,120
1,note_on,71,0,12
1,note_on,73,62,108
1,note_on,72,0,12
1,note_on,72,57,108
1,note_on,73,0,12
1,note_on,72,0,108
1,note_on,69,0,0
1,note_on,68,50,0
1,note_on,77,64,0
1,note_on,77,0,240
1,note_on,70,59,0
1,note_on,70,0,240
1,note_on,68,0,0
1,note_on,67,45,0
1,note_on,69,59,0
1,note_on,70,54,120
1,note_on,69,0,12
1,note_on,72,59,108
1,note_on,70,0,12
1,note_on,70,54,108
1,note_on,72,0,12
1,note_on,70,0,108
1,note_on,67,0,0
1,note_on,66,45,0
1,note_on,75,59,0
1,note_on,75,0,240
1,note_on,68,59,0
1,note_on,66,0,240
1,note_on,65,49,0
1,note_on,65,0,120
1,note_on,68,0,0
1,note_on,70,50,0
1,note_on,67,45,0
1,note_on,67,0,120
1,note_on,70,0,0
1,note_on,72,49,0
1,note_on,68,45,0
1,note_on,68,0,120
1,note_on,72,0,0
1,note_on,73,49,0
1,note_on,70,45,0
1,note_on,70,0,120
1,note_on,73,0,0
1,note_on,68,52,0
1,note_on,72,56,0
1,note_on,72,0,480
1,note_on,68,0,0
1,note_on,67,45,0
1,note_on,70,50,0
1,note_on,70,0,240
1,note_on,67,0,0
1,note_on,80,67,240
1,note_on,80,0,480
1,note_on,79,61,0
1,note_on,77,56,120
1,note_on,79,0,12
1,note_on,75,63,108
1,note_on,77,0,12
1,note_on,74,57,108
1,note_on,75,0,12
1,note_on,74,0,108
1,note_on,85,71,0
1,note_on,85,0,480
1,note_on,84,65,0
1,note_on,82,63,120
1,note_on,84,0,12
1,note_on,80,58,108
1,note_on,82,0,12
1,note_on,79,54,108
1,note_on,80,0,12
1,note_on,79,0,108
1,note_on,80,56,0
1,note_on,80,0,120
1,note_on,72,52,0
1,note_on,72,0,120
1,note_on,70,52,0
1,note_on,70,0,120
1,note_on,77,52,0
1,note_on,77,0,120
1,note_on,75,56,0
1,note_on,75,0,120
1,note_on,68,51,0
1,note_on,68,0,120
1,note_on,73,55,0
1,note_on,73,0,120
1,note_on,67,51,0
1,note_on,67,0,120
1,note_on,70,54,0
1,note_on,70,0,480
1,note_on,68,52,0
1,note_on,68,0,120
1,note_on,70,47,0
1,note_on,71,45,120
1,note_on,70,0,12
1,note_on,72,45,108
1,note_on,71,0,12
1,note_on,72,0,108
1,note_on,69,39,0
1,note_on,72,59,0
1,note_on,72,0,480
1,note_on,71,59,0
1,note_on,72,54,120
1,note_on,71,0,12
1,note_on,73,62,108
1,note_on,72,0,12
1,note_on,72,57,108
1,note_on,73,0,12
1,note_on,72,0,108
1,note_on,69,0,0
1,note_on,68,50,0
1,note_on,77,64,0
1,note_on,77,0,240
1,note_on,70,59,0
1,note_on,70,0,240
1,note_on,68,0,0
1,note_on,67,45,0
1,note_on,69,59,0
1,note_on,70,54,120
1,note_on,69,0,12
1,note_on,72,59,108
1,note_on,70,0,12
1,note_on,70,54,108
1,note_on,72,0,12
1,note_on,70,0,108
1,note_on,67,0,0
1,note_on,66,45,0
1,note_on,75,59,0
1,note_on,75,0,240
1,note_on,68,59,0
1,note_on,66,0,240
1,note_on,65,49,0
1,note_on,65,0,120
1,note_on,68,0,0
1,note_on,70,50,0
1,note_on,67,45,0
1,note_on,67,0,120
1,note_on,70,0,0
1,note_on,72,49,0
1,note_on,68,45,0
1,note_on,68,0,120
1,note_on,72,0,0
1,note_on,73,49,0
1,note_on,70,45,0
1,note_on,70,0,120
1,note_on,73,0,0
1,note_on,68,52,0
1,note_on,72,56,0
1,note_on,72,0,480
1,note_on,68,0,0
1,note_on,67,45,0
1,note_on,70,50,0
1,note_on,70,0,240
1,note_on,67,0,0
1,note_on,80,65,240
1,note_on,80,0,480
1,note_on,79,62,0
1,note_on,77,57,120
1,note_on,79,0,12
1,note_on,75,60,108
1,note_on,77,0,12
1,note_on,74,57,108
1,note_on,75,0,12
1,note_on,74,0,108
1,note_on,85,71,0
1,note_on,85,0,480
1,note_on,84,65,0
1,note_on,82,61,120
1,note_on,84,0,12
1,note_on,80,61,108
1,note_on,82,0,12
1,note_on,79,55,108
1,note_on,80,0,12
1,note_on,79,0,108
1,note_on,80,56,0
1,note_on,80,0,120
1,note_on,72,52,0
1,note_on,72,0,120
1,note_on,70,52,0
1,note_on,70,0,120
1,note_on,77,52,0
1,note_on,77,0,120
1,note_on,75,56,0
1,note_on,75,0,120
1,note_on,68,51,0
1,note_on,68,0,120
1,note_on,73,55,0
1,note_on,73,0,120
1,note_on,67,51,0
1,note_on,67,0,120
1,note_on,70,54,0
1,note_on,70,0,480
1,note_on,68,52,0
1,note_on,68,0,120
1,note_on,70,47,0
1,note_on,71,45,120
1,note_on,70,0,12
1,note_on,72,45,108
1,note_on,71,0,12
1,note_on,72,0,108
1,note_on,72,53,120
1,note_on,73,56,120
1,note_on,72,0,20
1,note_on,72,52,100
1,note_on,73,0,20
1,note_on,72,0,100
1,note_on,72,53,120
1,note_on,72,0,120
1,note_on,84,56,0
1,note_on,84,0,120
1,note_on,72,52,0
1,note_on,72,0,120
1,note_on,70,53,120
1,note_on,71,56,120
1,note_on,70,0,20
1,note_on,70,53,100
1,note_on,71,0,20
1,note_on,70,0,100
1,note_on,70,53,120
1,note_on,70,0,120
1,note_on,82,56,0
1,note_on,82,0,120
1,note_on,70,53,0
1,note_on,70,0,120
1,note_on,69,54,120
1,note_on,70,56,120
1,note_on,69,0,20
1,note_on,69,53,100
1,note_on,70,0,20
1,note_on,69,0,100
1,note_on,75,59,0
1,note_on,75,0,120
1,note_on,69,56,0
1,note_on,69,0,120
1,note_on,78,63,0
1,note_on,78,0,120
1,note_on,69,58,0
1,note_on,69,0,120
1,note_on,70,64,0
1,note_on,70,0,600
1,note_on,69,59,0
1,note_on,69,0,120
1,note_on,78,61,0
1,note_on,78,0,120
1,note_on,69,60,0
1,note_on,69,0,120
1,note_on,70,65,0
1,note_on,70,0,600
1,note_on,69,60,0
1,note_on,69,0,120
1,note_on,78,63,0
1,note_on,78,0,120
1,note_on,69,59,0
1,note_on,69,0,120
1,note_on,70,65,0
1,note_on,70,0,600
1,note_on,74,56,0
1,note_on,74,0,120
1,note_on,77,58,0
1,note_on,77,0,120
1,note_on,80,60,0
1,note_on,80,0,120
1,note_on,83,61,0
1,note_on,84,63,120
1,note_on,83,0,12
1,note_on,86,64,108
1,note_on,84,0,12
1,note_on,84,62,108
1,note_on,86,0,12
1,note_on,82,61,108
1,note_on,84,0,12
1,note_on,80,60,108
1,note_on,82,0,12
1,note_on,79,58,108
1,note_on,80,0,12
1,note_on,77,57,108
1,note_on,79,0,12
1,note_on,75,57,108
1,note_on,77,0,12
1,note_on,75,0,348
1,note_on,77,44,0
1,note_on,75,40,60
1,note_on,77,0,10
1,note_on,74,48,50
1,note_on,75,0,10
1,note_on,74,0,230
1,note_on,67,34,240
1,note_on,70,49,0
1,note_on,70,0,480
1,note_on,67,0,0
1,note_on,63,32,0
1,note_on,67,47,0
1,note_on,67,0,240
1,note_on,63,0,0
1,note_on,58,33,0
1,note_on,65,49,0
1,note_on,65,0,240
1,note_on,58,0,0
1,note_on,55,33,0
1,note_on,63,49,0
1,note_on,63,0,240
1,note_on,55,0,0
1,note_on,58,46,0
1,note_on,58,0,240
1,note_on,63,49,0
1,note_on,63,0,240
1,note_on,62,34,0
1,note_on,65,49,0
1,note_on,65,0,240
1,note_on,62,0,0
1,note_on,63,36,0
1,note_on,67,52,0
1,note_on,67,0,240
1,note_on,68,58,0
1,note_on,68,0,240
1,note_on,70,60,0
1,note_on,70,0,240
1,note_on,72,57,0
1,note_on,72,0,240
1,note_on,63,0,0
1,note_on,67,63,0
1,note_on,63,44,0
1,note_on,67,0,360
1,note_on,68,53,0
1,note_on,68,0,120
1,note_on,63,0,0
1,note_on,62,37,0
1,note_on,65,54,0
1,note_on,67,53,120
1,note_on,65,0,10
1,note_on,68,54,110
1,note_on,67,0,10
1,note_on,69,54,110
1,note_on,68,0,10
1,note_on,69,0,110
1,note_on,62,0,0
1,note_on,70,50,0
1,note_on,82,59,0
1,note_on,82,0,480
1,note_on,79,62,0
1,note_on,79,0,240
1,note_on,77,58,0
1,note_on,77,0,240
1,note_on,70,0,0
1,note_on,70,50,0
1,note_on,75,60,0
1,note_on,75,0,180
1,note_on,70,0,0
1,note_on,74,46,60
1,note_on,77,55,0
1,note_on,77,0,180
1,note_on,74,0,0
1,note_on,75,49,60
1,note_on,79,58,0
1,note_on,79,0,180
1,note_on,75,0,0
1,note_on,75,51,60
1,note_on,80,61,0
1,note_on,80,0,180
1,note_on,75,0,0
1,note_on,82,63,60
1,note_on,75,54,0
1,note_on,75,0,240
1,note_on,82,0,0
1,note_on,83,62,0
1,note_on,84,59,60
1,note_on,83,0,10
1,note_on,80,59,50
1,note_on,84,0,10
1,note_on,77,57,50
1,note_on,80,0,10
1,note_on,77,0,50
1,note_on,75,64,0
1,note_on,75,0,240
1,note_on,79,60,0
1,note_on,77,56,60
1,note_on,79,0,10
1,note_on,76,56,50
1,note_on,77,0,10
1,note_on,77,53,50
1,note_on,76,0,10
1,note_on,77,0,40
1,note_on,74,51,10
1,note_on,77,61,0
1,note_on,77,0,480
1,note_on,74,0,0
1,note_on,75,54,0
1,note_on,75,0,240
1,note_on,72,54,240
1,note_on,72,0,360
1,note_on,74,51,0
1,note_on,74,0,120
1,note_on,75,55,0
1,note_on,75,0,240
1,note_on,75,54,0
1,note_on,75,0,240
1,note_on,75,58,0
1,note_on,75,0,360
1,note_on,74,50,0
1,note_on,74,0,60
1,note_on,72,50,0
1,note_on,72,0,60
1,note_on,70,54,0
1,note_on,70,0,240
1,note_on,72,54,240
1,note_on,72,0,360
1,note_on,74,51,0
1,note_on,74,0,120
1,note_on,75,55,0
1,note_on,75,0,90
1,note_on,75,50,30
1,note_on,75,0,90
1,note_on,75,54,30
1,note_on,75,0,90
1,note_on,75,51,30
1,note_on,75,0,90
1,note_on,75,55,30
1,note_on,75,0,60
1,note_on,79,50,0
1,note_on,79,0,60
1,note_on,77,50,0
1,note_on,77,0,60
1,note_on,75,50,0
1,note_on,75,0,60
1,note_on,74,55,0
1,note_on,74,0,60
1,note_on,77,50,0
1,note_on,77,0,60
1,note_on,75,50,0
1,note_on,75,0,60
1,note_on,72,50,0
1,note_on,72,0,60
1,note_on,70,55,0
1,note_on,70,0,240
1,note_on,79,56,360
1,note_on,79,0,120
1,note_on,80,62,0
1,note_on,80,0,120
1,note_on,84,57,0
1,note_on,84,0,120
1,note_on,76,61,0
1,note_on,76,0,240
1,note_on,77,60,0
1,note_on,77,0,240
1,note_on,78,54,120
1,note_on,78,0,120
1,note_on,79,62,0
1,note_on,79,0,120
1,note_on,82,56,0
1,note_on,82,0,120
1,note_on,74,61,0
1,note_on,74,0,240
1,note_on,75,57,0
1,note_on,75,0,240
1,note_on,76,54,120
1,note_on,76,0,120
1,note_on,77,62,0
1,note_on,77,0,120
1,note_on,80,56,0
1,note_on,80,0,120
1,note_on,71,59,0
1,note_on,72,54,120
1,note_on,71,0,12
1,note_on,75,59,108
1,note_on,72,0,12
1,note_on,74,54,108
1,note_on,75,0,12
1,note_on,74,0,108
1,note_on,77,57,0
1,note_on,77,0,480
1,note_on,75,52,0
1,note_on,75,0,240
1,note_on,75,54,240
1,note_on,75,0,480
1,note_on,74,54,0
1,note_on,72,50,120
1,note_on,74,0,12
1,note_on,70,54,108
1,note_on,72,0,12
1,note_on,69,50,108
1,note_on,70,0,12
1,note_on,69,0,108
1,note_on,80,63,0
1,note_on,80,0,480
1,note_on,79,54,0
1,note_on,77,50,120
1,note_on,79,0,12
1,note_on,75,54,108
1,note_on,77,0,12
1,note_on,74,50,108
1,note_on,75,0,12
1,note_on,74,0,108
1,note_on,75,56,0
1,note_on,75,0,120
1,note_on,67,54,0
1,note_on,67,0,120
1,note_on,65,56,0
1,note_on,65,0,120
1,note_on,72,50,0
1,note_on,72,0,120
1,note_on,70,54,0
1,note_on,70,0,120
1,note_on,63,49,0
1,note_on,63,0,120
1,note_on,68,54,0
1,note_on,68,0,120
1,note_on,62,49,0
1,note_on,62,0,120
1,note_on,63,55,0
1,note_on,63,0,480
1,note_on,80,49,120
1,note_on,80,0,120
1,note_on,77,53,0
1,note_on,77,0,120
1,note_on,74,50,0
1,note_on,74,0,120
1,note_on,82,58,0
1,note_on,82,0,480
1,note_on,80,46,120
1,note_on,80,0,120
1,note_on,77,49,0
1,note_on,77,0,120
1,note_on,74,46,0
1,note_on,74,0,120
1,note_on,75,55,0
1,note_on,75,0,480
1,note_on,68,45,120
1,note_on,68,0,120
1,note_on,65,47,0
1,note_on,65,0,120
1,note_on,62,39,0
1,note_on,62,0,120
1,note_on,56,30,0
1,note_on,65,36,0
1,note_on,65,0,960
1,note_on,56,0,0
1,note_on,55,25,0
1,note_on,63,29,0
1,note_on,63,0,240
1,note_on,55,0,0
2,note_on,39,25,0
2,note_on,51,36,0
2,note_on,51,0,480
2,note_on,39,0,0
2,note_on,46,30,240
2,note_on,46,0,240
2,note_on,51,36,0
2,note_on,51,0,480
2,note_on,46,33,240
2,note_on,46,0,240
2,note_on,51,36,0
2,note_on,51,0,240
2,note_on,48,31,0
2,note_on,48,0,240
2,note_on,43,36,0
2,note_on,43,0,240
2,note_on,44,34,0
2,note_on,44,0,240
2,note_on,46,36,0
2,note_on,46,0,720
2,note_on,67,36,240
2,note_on,67,0,480
2,note_on,63,36,0
2,note_on,63,0,240
2,note_on,58,34,0
2,note_on,58,0,240
2,note_on,55,38,0
2,note_on,55,0,180
2,note_on,58,34,60
2,note_on,58,0,180
2,note_on,63,36,60
2,note_on,63,0,180
2,note_on,60,39,60
2,note_on,60,0,180
2,note_on,55,42,60
2,note_on,55,0,240
2,note_on,65,36,0
2,note_on,56,30,0
2,note_on,56,0,240
2,note_on,65,0,0
2,note_on,58,35,0
2,note_on,67,42,0
2,note_on,67,0,240
2,note_on,68,33,0
2,note_on,68,0,240
2,note_on,58,0,0
2,note_on,63,28,0
2,note_on,68,34,0
2,note_on,68,0,480
2,note_on,67,32,0
2,note_on,67,0,240
2,note_on,63,0,0
2,note_on,39,25,240
2,note_on,51,36,0
2,note_on,51,0,480
2,note_on,39,0,0
2,note_on,46,30,240
2,note_on,46,0,240
2,note_on,51,36,0
2,note_on,51,0,480
2,note_on,46,33,240
2,note_on,46,0,240
2,note_on,51,36,0
2,note_on,51,0,240
2,note_on,48,31,0
2,note_on,48,0,240
2,note_on,43,36,0
2,note_on,43,0,240
2,note_on,44,34,0
2,note_on,44,0,240
2,note_on,46,36,0
2,note_on,46,0,720
2,note_on,67,36,240
2,note_on,67,0,480
2,note_on,63,36,0
2,note_on,63,0,240
2,note_on,58,34,0
2,note_on,58,0,240
2,note_on,55,38,0
2,note_on,55,0,180
2,note_on,58,34,60
2,note_on,58,0,180
2,note_on,63,36,60
2,note_on,63,0,180
2,note_on,60,39,60
2,note_on,60,0,180
2,note_on,55,42,60
2,note_on,55,0,240
2,note_on,65,36,0
2,note_on,56,30,0
2,note_on,56,0,240
2,note_on,65,0,0
2,note_on,58,35,0
2,note_on,67,42,0
2,note_on,67,0,240
2,note_on,68,33,0
2,note_on,68,0,240
2,note_on,58,0,0
2,note_on,63,28,0
2,note_on,68,34,0
2,note_on,68,0,480
2,note_on,67,32,0
2,note_on,67,0,240
2,note_on,63,0,0
2,note_on,62,32,240
2,note_on,62,0,240
2,note_on,58,29,0
2,note_on,58,0,240
2,note_on,63,32,0
2,note_on,63,0,240
2,note_on,58,28,0
2,note_on,58,0,240
2,note_on,58,29,0
2,note_on,65,35,0
2,note_on,65,0,480
2,note_on,58,0,0
2,note_on,63,32,480
2,note_on,63,0,240
2,note_on,63,32,0
2,note_on,63,0,240
2,note_on,65,32,0
2,note_on,63,27,0
2,note_on,63,0,240
2,note_on,65,0,0
2,note_on,66,32,0
2,note_on,63,27,0
2,note_on,63,0,240
2,note_on,66,0,0
2,note_on,63,30,0
2,note_on,67,36,0
2,note_on,67,0,480
2,note_on,63,0,0
2,note_on,68,28,720
2,note_on,75,34,0
2,note_on,75,0,240
2,note_on,68,0,0
2,note_on,66,28,240
2,note_on,75,34,0
2,note_on,75,0,240
2,note_on,66,0,0
2,note_on,65,28,240
2,note_on,75,34,0
2,note_on,75,0,240
2,note_on,65,0,0
2,note_on,59,28,240
2,note_on,62,34,0
2,note_on,62,0,240
2,note_on,59,0,0
2,note_on,60,30,0
2,note_on,63,36,0
2,note_on,63,0,480
2,note_on,60,0,0
2,note_on,56,30,0
2,note_on,60,36,0
2,note_on,60,0,240
2,note_on,56,0,0
2,note_on,68,30,0
2,note_on,68,0,240
2,note_on,58,27,0
2,note_on,67,32,0
2,note_on,67,0,480
2,note_on,65,32,0
2,note_on,65,0,240
2,note_on,58,0,0
2,note_on,39,25,240
2,note_on,51,36,0
2,note_on,51,0,480
2,note_on,39,0,0
2,note_on,46,30,240
2,note_on,46,0,240
2,note_on,51,36,0
2,note_on,51,0,480
2,note_on,46,33,240
2,note_on,46,0,240
2,note_on,51,36,0
2,note_on,51,0,240
2,note_on,48,31,0
2,note_on,48,0,240
2,note_on,43,36,0
2,note_on,43,0,240
2,note_on,44,34,0
2,note_on,44,0,240
2,note_on,46,36,0
2,note_on,46,0,720
2,note_on,67,36,240
2,note_on,67,0,480
2,note_on,63,36,0
2,note_on,63,0,240
2,note_on,58,34,0
2,note_on,58,0,240
2,note_on,55,38,0
2,note_on,55,0,180
2,note_on,58,34,60
2,note_on,58,0,180
2,note_on,63,36,60
2,note_on,63,0,180
2,note_on,60,39,60
2,note_on,60,0,180
2,note_on,55,42,60
2,note_on,55,0,240
2,note_on,65,36,0
2,note_on,56,30,0
2,note_on,56,0,240
2,note_on,65,0,0
2,note_on,58,35,0
2,note_on,67,42,0
2,note_on,67,0,240
2,note_on,68,33,0
2,note_on,68,0,240
2,note_on,58,0,0
2,note_on,63,28,0
2,note_on,68,34,0
2,note_on,68,0,480
2,note_on,67,32,0
2,note_on,67,0,240
2,note_on,63,0,0
2,note_on,62,32,240
2,note_on,62,0,240
2,note_on,58,29,0
2,note_on,58,0,240
2,note_on,63,32,0
2,note_on,63,0,240
2,note_on,58,28,0
2,note_on,58,0,240
2,note_on,58,29,0
2,note_on,65,35,0
2,note_on,65,0,480
2,note_on,58,0,0
2,note_on,63,32,480
2,note_on,63,0,240
2,note_on,63,32,0
2,note_on,63,0,240
2,note_on,65,32,0
2,note_on,63,27,0
2,note_on,63,0,240
2,note_on,65,0,0
2,note_on,66,32,0
2,note_on,63,27,0
2,note_on,63,0,240
2,note_on,66,0,0
2,note_on,63,30,0
2,note_on,67,36,0
2,note_on,67,0,480
2,note_on,63,0,0
2,note_on,68,28,720
2,note_on,75,34,0
2,note_on,75,0,240
2,note_on,68,0,0
2,note_on,66,28,240
2,note_on,75,34,0
2,note_on,75,0,240
2,note_on,66,0,0
2,note_on,65,28,240
2,note_on,75,34,0
2,note_on,75,0,240
2,note_on,65,0,0
2,note_on,59,28,240
2,note_on,62,34,0
2,note_on,62,0,240
2,note_on,59,0,0
2,note_on,60,30,0
2,note_on,63,36,0
2,note_on,63,0,480
2,note_on,60,0,0
2,note_on,56,30,0
2,note_on,60,36,0
2,note_on,60,0,240
2,note_on,56,0,0
2,note_on,68,30,0
2,note_on,68,0,240
2,note_on,58,27,0
2,note_on,67,32,0
2,note_on,67,0,480
2,note_on,65,32,0
2,note_on,65,0,240
2,note_on,58,0,0
2,note_on,39,25,240
2,note_on,51,36,0
2,note_on,51,0,480
2,note_on,39,0,0
2,note_on,46,30,240
2,note_on,46,0,240
2,note_on,51,36,0
2,note_on,51,0,480
2,note_on,46,33,240
2,note_on,46,0,240
2,note_on,51,36,0
2,note_on,51,0,240
2,note_on,48,31,0
2,note_on,48,0,240
2,note_on,43,36,0
2,note_on,43,0,240
2,note_on,44,34,0
2,note_on,44,0,240
2,note_on,46,36,0
2,note_on,46,0,720
2,note_on,67,36,240
2,note_on,67,0,480
2,note_on,63,36,0
2,note_on,63,0,240
2,note_on,58,34,0
2,note_on,58,0,240
2,note_on,55,38,0
2,note_on,55,0,180
2,note_on,58,34,60
2,note_on,58,0,180
2,note_on,63,36,60
2,note_on,63,0,180
2,note_on,60,39,60
2,note_on,60,0,180
2,note_on,55,42,60
2,note_on,55,0,240
2,note_on,65,36,0
2,note_on,56,30,0
2,note_on,56,0,240
2,note_on,65,0,0
2,note_on,58,35,0
2,note_on,67,42,0
2,note_on,67,0,240
2,note_on,68,33,0
2,note_on,68,0,240
2,note_on,58,0,0
2,note_on,63,28,0
2,note_on,68,34,0
2,note_on,68,0,480
2,note_on,67,32,0
2,note_on,67,0,240
2,note_on,63,0,0
2,note_on,48,36,240
2,note_on,48,0,120
2,note_on,60,30,0
2,note_on,60,0,90
2,note_on,60,30,30
2,note_on,60,0,90
2,note_on,60,32,30
2,note_on,60,0,90
2,note_on,60,32,30
2,note_on,60,0,90
2,note_on,60,29,30
2,note_on,60,0,90
2,note_on,60,29,30
2,note_on,60,0,90
2,note_on,60,29,30
2,note_on,60,0,90
2,note_on,47,36,30
2,note_on,47,0,120
2,note_on,59,32,0
2,note_on,59,0,90
2,note_on,59,32,30
2,note_on,59,0,90
2,note_on,59,32,30
2,note_on,59,0,90
2,note_on,59,36,30
2,note_on,59,0,90
2,note_on,59,29,30
2,note_on,59,0,90
2,note_on,59,29,30
2,note_on,59,0,90
2,note_on,59,29,30
2,note_on,59,0,90
2,note_on,60,46,30
2,note_on,60,0,480
2,note_on,56,40,0
2,note_on,56,0,240
2,note_on,54,36,0
2,note_on,54,0,240
2,note_on,55,46,0
2,note_on,55,0,120
2,note_on,43,41,0
2,note_on,43,0,120
2,note_on,55,46,0
2,note_on,55,0,60
2,note_on,55,42,60
2,note_on,55,0,60
2,note_on,55,48,60
2,note_on,53,45,120
2,note_on,55,0,10
2,note_on,51,43,110
2,note_on,53,0,10
2,note_on,50,39,110
2,note_on,51,0,10
2,note_on,48,46,110
2,note_on,50,0,10
2,note_on,48,0,470
2,note_on,63,39,120
2,note_on,60,33,0
2,note_on,60,0,90
2,note_on,63,0,0
2,note_on,60,36,30
2,note_on,63,43,0
2,note_on,63,0,90
2,note_on,60,0,0
2,note_on,60,34,30
2,note_on,63,40,0
2,note_on,63,0,90
2,note_on,60,0,0
2,note_on,58,43,30
2,note_on,62,51,0
2,note_on,62,0,480
2,note_on,58,0,0
2,note_on,64,36,120
2,note_on,67,43,0
2,note_on,67,0,90
2,note_on,64,0,0
2,note_on,64,38,30
2,note_on,67,45,0
2,note_on,67,0,90
2,note_on,64,0,0
2,note_on,64,36,30
2,note_on,67,43,0
2,note_on,67,0,90
2,note_on,64,0,0
2,note_on,62,45,30
2,note_on,66,54,0
2,note_on,66,0,120
2,note_on,62,0,0
2,note_on,63,50,120
2,note_on,63,0,120
2,note_on,60,54,120
2,note_on,60,0,120
2,note_on,62,51,120
2,note_on,62,0,120
2,note_on,55,57,120
2,note_on,55,0,480
2,note_on,48,36,480
2,note_on,48,0,90
2,note_on,60,30,30
2,note_on,60,0,90
2,note_on,60,30,30
2,note_on,60,0,90
2,note_on,60,32,30
2,note_on,60,0,90
2,note_on,60,32,30
2,note_on,60,0,90
2,note_on,60,29,30
2,note_on,60,0,90
2,note_on,60,29,30
2,note_on,60,0,90
2,note_on,60,29,30
2,note_on,60,0,90
2,note_on,47,36,30
2,note_on,47,0,120
2,note_on,59,32,0
2,note_on,59,0,90
2,note_on,59,32,30
2,note_on,59,0,90
2,note_on,59,32,30
2,note_on,59,0,90
2,note_on,59,36,30
2,note_on,59,0,90
2,note_on,59,29,30
2,note_on,59,0,90
2,note_on,59,29,30
2,note_on,59,0,90
2,note_on,59,29,30
2,note_on,59,0,90
2,note_on,60,46,30
2,note_on,60,0,480
2,note_on,56,40,0
2,note_on,56,0,240
2,note_on,54,36,0
2,note_on,54,0,240
2,note_on,55,46,0
2,note_on,55,0,120
2,note_on,43,41,0
2,note_on,43,0,120
2,note_on,55,46,0
2,note_on,55,0,60
2,note_on,55,42,60
2,note_on,55,0,60
2,note_on,55,48,60
2,note_on,53,45,120
2,note_on,55,0,10
2,note_on,51,43,110
2,note_on,53,0,10
2,note_on,50,39,110
2,note_on,51,0,10
2,note_on,48,46,110
2,note_on,50,0,10
2,note_on,48,0,470
2,note_on,63,39,120
2,note_on,60,33,0
2,note_on,60,0,90
2,note_on,63,0,0
2,note_on,60,36,30
2,note_on,63,43,0
2,note_on,63,0,90
2,note_on,60,0,0
2,note_on,60,34,30
2,note_on,63,40,0
2,note_on,63,0,90
2,note_on,60,0,0
2,note_on,58,43,30
2,note_on,62,51,0
2,note_on,62,0,480
2,note_on,58,0,0
2,note_on,64,36,120
2,note_on,67,43,0
2,note_on,67,0,90
2,note_on,64,0,0
2,note_on,64,38,30
2,note_on,67,45,0
2,note_on,67,0,90
2,note_on,64,0,0
2,note_on,64,36,30
2,note_on,67,43,0
2,note_on,67,0,90
2,note_on,64,0,0
2,note_on,62,45,30
2,note_on,66,54,0
2,note_on,66,0,120
2,note_on,62,0,0
2,note_on,63,50,120
2,note_on,63,0,120
2,note_on,60,54,120
2,note_on,60,0,120
2,note_on,62,51,120
2,note_on,62,0,120
2,note_on,55,57,120
2,note_on,55,0,480
2,note_on,60,38,480
2,note_on,60,0,120
2,note_on,67,25,0
2,note_on,70,30,0
2,note_on,70,0,90
2,note_on,67,0,0
2,note_on,67,25,30
2,note_on,70,30,0
2,note_on,70,0,90
2,note_on,67,0,0
2,note_on,67,27,30
2,note_on,70,33,0
2,note_on,70,0,90
2,note_on,67,0,0
2,note_on,60,36,30
2,note_on,60,0,120
2,note_on,65,25,0
2,note_on,68,31,0
2,note_on,68,0,90
2,note_on,65,0,0
2,note_on,65,26,30
2,note_on,68,31,0
2,note_on,68,0,90
2,note_on,65,0,0
2,note_on,68,31,30
2,note_on,65,26,0
2,note_on,65,0,90
2,note_on,68,0,0
2,note_on,60,38,30
2,note_on,60,0,120
2,note_on,64,28,0
2,note_on,67,34,0
2,note_on,67,0,90
2,note_on,64,0,0
2,note_on,67,34,30
2,note_on,64,28,0
2,note_on,64,0,90
2,note_on,67,0,0
2,note_on,64,28,30
2,note_on,67,34,0
2,note_on,67,0,90
2,note_on,64,0,0
2,note_on,60,47,30
2,note_on,60,0,120
2,note_on,65,39,0
2,note_on,68,39,0
2,note_on,68,0,120
2,note_on,65,0,0
2,note_on,59,49,0
2,note_on,59,0,120
2,note_on,65,42,0
2,note_on,68,42,0
2,note_on,68,0,120
2,note_on,65,0,0
2,note_on,58,55,0
2,note_on,58,0,120
2,note_on,65,38,0
2,note_on,68,45,0
2,note_on,68,0,90
2,note_on,65,0,0
2,note_on,65,38,30
2,note_on,68,45,0
2,note_on,68,0,90
2,note_on,65,0,0
2,note_on,65,38,30
2,note_on,68,45,0
2,note_on,68,0,90
2,note_on,65,0,0
2,note_on,58,54,30
2,note_on,58,0,120
2,note_on,63,39,0
2,note_on,67,46,0
2,note_on,67,0,90
2,note_on,63,0,0
2,note_on,63,39,30
2,note_on,67,46,0
2,note_on,67,0,90
2,note_on,63,0,0
2,note_on,67,46,30
2,note_on,63,39,0
2,note_on,63,0,90
2,note_on,67,0,0
2,note_on,58,54,30
2,note_on,58,0,120
2,note_on,62,39,0
2,note_on,65,46,0
2,note_on,65,0,90
2,note_on,62,0,0
2,note_on,65,46,30
2,note_on,62,39,0
2,note_on,62,0,90
2,note_on,65,0,0
2,note_on,62,39,30
2,note_on,65,46,0
2,note_on,65,0,90
2,note_on,62,0,0
2,note_on,58,54,30
2,note_on,58,0,120
2,note_on,63,37,0
2,note_on,67,48,0
2,note_on,67,0,90
2,note_on,63,0,0
2,note_on,63,37,30
2,note_on,67,45,0
2,note_on,67,0,90
2,note_on,63,0,0
2,note_on,63,30,30
2,note_on,67,45,0
2,note_on,67,0,90
2,note_on,63,0,0
2,note_on,57,45,30
2,note_on,60,54,0
2,note_on,60,0,480
2,note_on,57,0,0
2,note_on,67,39,120
2,note_on,59,27,0
2,note_on,59,0,90
2,note_on,67,0,0
2,note_on,59,30,30
2,note_on,67,43,0
2,note_on,67,0,90
2,note_on,59,0,0
2,note_on,59,28,30
2,note_on,67,40,0
2,note_on,67,0,90
2,note_on,59,0,0
2,note_on,60,33,30
2,note_on,67,45,0
2,note_on,67,0,480
2,note_on,60,0,0
2,note_on,56,33,120
2,note_on,60,39,0
2,note_on,60,0,90
2,note_on,56,0,0
2,note_on,56,35,30
2,note_on,60,42,0
2,note_on,60,0,90
2,note_on,56,0,0
2,note_on,56,32,30
2,note_on,60,38,0
2,note_on,60,0,90
2,note_on,56,0,0
2,note_on,53,36,30
2,note_on,56,44,0
2,note_on,56,0,480
2,note_on,53,0,0
2,note_on,55,38,480
2,note_on,63,38,0
2,note_on,64,35,120
2,note_on,63,0,12
2,note_on,65,36,108
2,note_on,64,0,12
2,note_on,66,36,108
2,note_on,65,0,12
2,note_on,55,0,108
2,note_on,55,38,0
2,note_on,67,38,0
2,note_on,66,0,12
2,note_on,67,0,228
2,note_on,55,0,0
2,note_on,48,36,240
2,note_on,48,0,120
2,note_on,60,30,0
2,note_on,60,0,90
2,note_on,60,30,30
2,note_on,60,0,90
2,note_on,60,32,30
2,note_on,60,0,90
2,note_on,60,32,30
2,note_on,60,0,90
2,note_on,60,29,30
2,note_on,60,0,90
2,note_on,60,29,30
2,note_on,60,0,90
2,note_on,60,29,30
2,note_on,60,0,90
2,note_on,47,36,30
2,note_on,47,0,120
2,note_on,59,32,0
2,note_on,59,0,90
2,note_on,59,32,30
2,note_on,59,0,90
2,note_on,59,32,30
2,note_on,59,0,90
2,note_on,59,36,30
2,note_on,59,0,90
2,note_on,59,29,30
2,note_on,59,0,90
2,note_on,59,29,30
2,note_on,59,0,90
2,note_on,59,29,30
2,note_on,59,0,90
2,note_on,60,46,30
2,note_on,60,0,480
2,note_on,56,40,0
2,note_on,56,0,240
2,note_on,54,36,0
2,note_on,54,0,240
2,note_on,55,46,0
2,note_on,55,0,120
2,note_on,43,41,0
2,note_on,43,0,120
2,note_on,55,46,0
2,note_on,55,0,60
2,note_on,55,42,60
2,note_on,55,0,60
2,note_on,55,48,60
2,note_on,53,45,120
2,note_on,55,0,10
2,note_on,51,43,110
2,note_on,53,0,10
2,note_on,50,39,110
2,note_on,51,0,10
2,note_on,48,46,110
2,note_on,50,0,10
2,note_on,48,0,470
2,note_on,67,39,120
2,note_on,64,33,0
2,note_on,64,0,90
2,note_on,67,0,0
2,note_on,64,36,30
2,note_on,67,43,0
2,note_on,67,0,90
2,note_on,64,0,0
2,note_on,64,34,30
2,note_on,67,40,0
2,note_on,67,0,90
2,note_on,64,0,0
2,note_on,65,43,30
2,note_on,68,51,0
2,note_on,68,0,480
2,note_on,65,0,0
2,note_on,69,36,120
2,note_on,72,43,0
2,note_on,72,0,90
2,note_on,69,0,0
2,note_on,69,38,30
2,note_on,72,45,0
2,note_on,72,0,90
2,note_on,69,0,0
2,note_on,69,36,30
2,note_on,72,43,0
2,note_on,72,0,90
2,note_on,69,0,0
2,note_on,67,45,30
2,note_on,71,54,0
2,note_on,71,0,120
2,note_on,67,0,0
2,note_on,68,50,120
2,note_on,68,0,120
2,note_on,65,54,120
2,note_on,65,0,120
2,note_on,67,51,120
2,note_on,67,0,120
2,note_on,60,57,120
2,note_on,60,0,480
2,note_on,60,38,480
2,note_on,60,0,120
2,note_on,67,25,0
2,note_on,70,30,0
2,note_on,70,0,90
2,note_on,67,0,0
2,note_on,67,25,30
2,note_on,70,30,0
2,note_on,70,0,90
2,note_on,67,0,0
2,note_on,67,27,30
2,note_on,70,33,0
2,note_on,70,0,90
2,note_on,67,0,0
2,note_on,60,36,30
2,note_on,60,0,120
2,note_on,65,25,0
2,note_on,68,31,0
2,note_on,68,0,90
2,note_on,65,0,0
2,note_on,65,26,30
2,note_on,68,31,0
2,note_on,68,0,90
2,note_on,65,0,0
2,note_on,68,31,30
2,note_on,65,26,0
2,note_on,65,0,90
2,note_on,68,0,0
2,note_on,60,38,30
2,note_on,60,0,120
2,note_on,64,28,0
2,note_on,67,34,0
2,note_on,67,0,90
2,note_on,64,0,0
2,note_on,67,34,30
2,note_on,64,28,0
2,note_on,64,0,90
2,note_on,67,0,0
2,note_on,64,28,30
2,note_on,67,34,0
2,note_on,67,0,90
2,note_on,64,0,0
2,note_on,60,47,30
2,note_on,60,0,120
2,note_on,65,39,0
2,note_on,68,39,0
2,note_on,68,0,120
2,note_on,65,0,0
2,note_on,59,49,0
2,note_on,59,0,120
2,note_on,65,42,0
2,note_on,68,42,0
2,note_on,68,0,120
2,note_on,65,0,0
2,note_on,58,55,0
2,note_on,58,0,120
2,note_on,65,38,0
2,note_on,68,45,0
2,note_on,68,0,90
2,note_on,65,0,0
2,note_on,65,38,30
2,note_on,68,45,0
2,note_on,68,0,90
2,note_on,65,0,0
2,note_on,65,38,30
2,note_on,68,45,0
2,note_on,68,0,90
2,note_on,65,0,0
2,note_on,58,54,30
2,note_on,58,0,120
2,note_on,63,39,0
2,note_on,67,46,0
2,note_on,67,0,90
2,note_on,63,0,0
2,note_on,63,39,30
2,note_on,67,46,0
2,note_on,67,0,90
2,note_on,63,0,0
2,note_on,67,46,30
2,note_on,63,39,0
2,note_on,63,0,90
2,note_on,67,0,0
2,note_on,58,54,30
2,note_on,58,0,120
2,note_on,62,39,0
2,note_on,65,46,0
2,note_on,65,0,90
2,note_on,62,0,0
2,note_on,65,46,30
2,note_on,62,39,0
2,note_on,62,0,90
2,note_on,65,0,0
2,note_on,62,39,30
2,note_on,65,46,0
2,note_on,65,0,90
2,note_on,62,0,0
2,note_on,58,54,30
2,note_on,58,0,120
2,note_on,63,37,0
2,note_on,67,48,0
2,note_on,67,0,90
2,note_on,63,0,0
2,note_on,63,37,30
2,note_on,67,45,0
2,note_on,67,0,90
2,note_on,63,0,0
2,note_on,63,30,30
2,note_on,67,45,0
2,note_on,67,0,90
2,note_on,63,0,0
2,note_on,57,45,30
2,note_on,60,54,0
2,note_on,60,0,480
2,note_on,57,0,0
2,note_on,67,39,120
2,note_on,59,27,0
2,note_on,59,0,90
2,note_on,67,0,0
2,note_on,59,30,30
2,note_on,67,43,0
2,note_on,67,0,90
2,note_on,59,0,0
2,note_on,59,28,30
2,note_on,67,40,0
2,note_on,67,0,90
2,note_on,59,0,0
2,note_on,60,33,30
2,note_on,67,45,0
2,note_on,67,0,480
2,note_on,60,0,0
2,note_on,56,33,120
2,note_on,60,39,0
2,note_on,60,0,90
2,note_on,56,0,0
2,note_on,56,35,30
2,note_on,60,42,0
2,note_on,60,0,90
2,note_on,56,0,0
2,note_on,56,32,30
2,note_on,60,38,0
2,note_on,60,0,90
2,note_on,56,0,0
2,note_on,53,36,30
2,note_on,56,44,0
2,note_on,56,0,480
2,note_on,53,0,0
2,note_on,55,38,480
2,note_on,63,38,0
2,note_on,64,35,120
2,note_on,63,0,12
2,note_on,65,36,108
2,note_on,64,0,12
2,note_on,66,36,108
2,note_on,65,0,12
2,note_on,55,0,108
2,note_on,55,38,0
2,note_on,67,38,0
2,note_on,66,0,12
2,note_on,67,0,228
2,note_on,55,0,0
2,note_on,48,36,240
2,note_on,48,0,120
2,note_on,60,30,0
2,note_on,60,0,90
2,note_on,60,30,30
2,note_on,60,0,90
2,note_on,60,32,30
2,note_on,60,0,90
2,note_on,60,32,30
2,note_on,60,0,90
2,note_on,60,29,30
2,note_on,60,0,90
2,note_on,60,29,30
2,note_on,60,0,90
2,note_on,60,29,30
2,note_on,60,0,90
2,note_on,47,36,30
2,note_on,47,0,120
2,note_on,59,32,0
2,note_on,59,0,90
2,note_on,59,32,30
2,note_on,59,0,90
2,note_on,59,32,30
2,note_on,59,0,90
2,note_on,59,36,30
2,note_on,59,0,90
2,note_on,59,29,30
2,note_on,59,0,90
2,note_on,59,29,30
2,note_on,59,0,90
2,note_on,59,29,30
2,note_on,59,0,90
2,note_on,60,46,30
2,note_on,60,0,480
2,note_on,56,40,0
2,note_on,56,0,240
2,note_on,54,36,0
2,note_on,54,0,240
2,note_on,55,46,0
2,note_on,55,0,120
2,note_on,43,41,0
2,note_on,43,0,120
2,note_on,55,46,0
2,note_on,55,0,60
2,note_on,55,42,60
2,note_on,55,0,60
2,note_on,55,48,60
2,note_on,53,45,120
2,note_on,55,0,10
2,note_on,51,43,110
2,note_on,53,0,10
2,note_on,50,39,110
2,note_on,51,0,10
2,note_on,48,46,110
2,note_on,50,0,10
2,note_on,48,0,470
2,note_on,67,39,120
2,note_on,64,33,0
2,note_on,64,0,90
2,note_on,67,0,0
2,note_on,64,36,30
2,note_on,67,43,0
2,note_on,67,0,90
2,note_on,64,0,0
2,note_on,64,34,30
2,note_on,67,40,0
2,note_on,67,0,90
2,note_on,64,0,0
2,note_on,65,43,30
2,note_on,68,51,0
2,note_on,68,0,480
2,note_on,65,0,0
2,note_on,69,36,120
2,note_on,72,43,0
2,note_on,72,0,90
2,note_on,69,0,0
2,note_on,69,38,30
2,note_on,72,45,0
2,note_on,72,0,90
2,note_on,69,0,0
2,note_on,69,36,30
2,note_on,72,43,0
2,note_on,72,0,90
2,note_on,69,0,0
2,note_on,67,45,30
2,note_on,71,54,0
2,note_on,71,0,120
2,note_on,67,0,0
2,note_on,68,50,120
2,note_on,68,0,120
2,note_on,65,54,120
2,note_on,65,0,120
2,note_on,67,51,120
2,note_on,67,0,120
2,note_on,60,57,120
2,note_on,60,0,480
2,note_on,63,35,120
2,note_on,66,41,0
2,note_on,64,37,120
2,note_on,67,45,0
2,note_on,66,0,12
2,note_on,63,0,0
2,note_on,63,35,108
2,note_on,66,41,0
2,note_on,64,0,12
2,note_on,67,0,0
2,note_on,63,0,108
2,note_on,66,0,0
2,note_on,64,40,0
2,note_on,67,47,0
2,note_on,67,0,600
2,note_on,64,0,0
2,note_on,64,36,0
2,note_on,67,43,0
2,note_on,65,38,120
2,note_on,68,45,0
2,note_on,67,0,12
2,note_on,64,0,0
2,note_on,64,35,108
2,note_on,67,42,0
2,note_on,65,0,12
2,note_on,68,0,0
2,note_on,64,0,108
2,note_on,67,0,0
2,note_on,65,40,0
2,note_on,68,47,0
2,note_on,68,0,600
2,note_on,65,0,0
2,note_on,63,33,0
2,note_on,66,39,0
2,note_on,62,36,120
2,note_on,65,44,0
2,note_on,66,0,12
2,note_on,63,0,0
2,note_on,63,33,108
2,note_on,66,39,0
2,note_on,62,0,12
2,note_on,65,0,0
2,note_on,63,0,108
2,note_on,66,0,0
2,note_on,62,41,0
2,note_on,65,49,0
2,note_on,65,0,600
2,note_on,62,0,0
2,note_on,64,27,0
2,note_on,67,33,0
2,note_on,65,29,120
2,note_on,68,36,0
2,note_on,67,0,12
2,note_on,64,0,0
2,note_on,64,27,108
2,note_on,67,33,0
2,note_on,65,0,12
2,note_on,68,0,0
2,note_on,64,0,108
2,note_on,67,0,0
2,note_on,65,33,0
2,note_on,68,39,0
2,note_on,68,0,480
2,note_on,65,0,0
2,note_on,62,32,480
2,note_on,65,32,0
2,note_on,70,38,0
2,note_on,70,0,720
2,note_on,65,0,0
2,note_on,62,0,0
2,note_on,39,27,1200
2,note_on,51,39,0
2,note_on,51,0,480
2,note_on,39,0,0
2,note_on,46,33,240
2,note_on,46,0,240
2,note_on,51,39,0
2,note_on,51,0,480
2,note_on,46,36,240
2,note_on,46,0,240
2,note_on,51,39,0
2,note_on,51,0,240
2,note_on,48,34,0
2,note_on,48,0,240
2,note_on,43,39,0
2,note_on,43,0,240
2,note_on,44,36,0
2,note_on,44,0,240
2,note_on,46,39,0
2,note_on,46,0,720
2,note_on,67,36,240
2,note_on,67,0,480
2,note_on,63,36,0
2,note_on,63,0,240
2,note_on,58,34,0
2,note_on,58,0,240
2,note_on,55,38,0
2,note_on,55,0,180
2,note_on,58,34,60
2,note_on,58,0,180
2,note_on,63,36,60
2,note_on,63,0,180
2,note_on,60,39,60
2,note_on,60,0,180
2,note_on,55,42,60
2,note_on,55,0,240
2,note_on,65,36,0
2,note_on,56,30,0
2,note_on,56,0,240
2,note_on,65,0,0
2,note_on,58,35,0
2,note_on,67,42,0
2,note_on,67,0,240
2,note_on,68,33,0
2,note_on,68,0,240
2,note_on,58,0,0
2,note_on,63,28,0
2,note_on,68,34,0
2,note_on,68,0,480
2,note_on,67,32,0
2,note_on,67,0,240
2,note_on,63,0,0
2,note_on,56,36,240
2,note_on,56,0,120
2,note_on,63,31,0
2,note_on,63,0,120
2,note_on,60,31,0
2,note_on,60,0,120
2,note_on,63,31,0
2,note_on,63,0,120
2,note_on,58,36,0
2,note_on,58,0,120
2,note_on,63,33,0
2,note_on,63,0,120
2,note_on,61,32,0
2,note_on,61,0,120
2,note_on,63,32,0
2,note_on,63,0,120
2,note_on,60,36,0
2,note_on,60,0,120
2,note_on,63,31,0
2,note_on,63,0,120
2,note_on,56,36,0
2,note_on,56,0,120
2,note_on,63,31,0
2,note_on,63,0,120
2,note_on,55,36,0
2,note_on,55,0,120
2,note_on,63,32,0
2,note_on,63,0,120
2,note_on,51,32,0
2,note_on,51,0,120
2,note_on,63,32,0
2,note_on,63,0,120
2,note_on,55,43,0
2,note_on,55,0,120
2,note_on,63,37,0
2,note_on,63,0,120
2,note_on,58,37,0
2,note_on,58,0,120
2,note_on,63,37,0
2,note_on,63,0,120
2,note_on,56,44,0
2,note_on,56,0,120
2,note_on,63,33,0
2,note_on,63,0,120
2,note_on,60,36,0
2,note_on,60,0,120
2,note_on,63,36,0
2,note_on,63,0,120
2,note_on,55,43,0
2,note_on,55,0,120
2,note_on,63,38,0
2,note_on,63,0,120
2,note_on,51,42,0
2,note_on,51,0,120
2,note_on,63,42,0
2,note_on,63,0,120
2,note_on,56,48,0
2,note_on,56,0,120
2,note_on,63,43,0
2,note_on,63,0,120
2,note_on,60,51,0
2,note_on,60,0,120
2,note_on,63,43,0
2,note_on,63,0,120
2,note_on,58,56,0
2,note_on,58,0,120
2,note_on,67,42,0
2,note_on,67,0,120
2,note_on,64,51,0
2,note_on,64,0,120
2,note_on,67,45,0
2,note_on,67,0,120
2,note_on,56,54,0
2,note_on,56,0,120
2,note_on,65,44,0
2,note_on,65,0,120
2,note_on,60,46,0
2,note_on,60,0,120
2,note_on,65,46,0
2,note_on,65,0,120
2,note_on,56,55,0
2,note_on,56,0,120
2,note_on,65,42,0
2,note_on,65,0,120
2,note_on,62,47,0
2,note_on,62,0,120
2,note_on,65,42,0
2,note_on,65,0,120
2,note_on,55,45,0
2,note_on,55,0,120
2,note_on,63,40,0
2,note_on,63,0,120
2,note_on,58,45,0
2,note_on,58,0,120
2,note_on,63,38,0
2,note_on,63,0,120
2,note_on,56,44,0
2,note_on,56,0,120
2,note_on,65,38,0
2,note_on,65,0,120
2,note_on,60,40,0
2,note_on,60,0,120
2,note_on,65,40,0
2,note_on,65,0,120
2,note_on,58,40,0
2,note_on,58,0,120
2,note_on,67,36,0
2,note_on,67,0,120
2,note_on,58,36,0
2,note_on,58,0,120
2,note_on,68,36,0
2,note_on,68,0,90
2,note_on,63,42,30
2,note_on,67,42,0
2,note_on,67,0,480
2,note_on,63,0,0
2,note_on,56,36,480
2,note_on,56,0,120
2,note_on,63,31,0
2,note_on,63,0,120
2,note_on,60,31,0
2,note_on,60,0,120
2,note_on,63,31,0
2,note_on,63,0,120
2,note_on,58,36,0
2,note_on,58,0,120
2,note_on,63,33,0
2,note_on,63,0,120
2,note_on,61,32,0
2,note_on,61,0,120
2,note_on,63,32,0
2,note_on,63,0,120
2,note_on,60,36,0
2,note_on,60,0,120
2,note_on,63,31,0
2,note_on,63,0,120
2,note_on,56,36,0
2,note_on,56,0,120
2,note_on,63,31,0
2,note_on,63,0,120
2,note_on,55,36,0
2,note_on,55,0,120
2,note_on,63,32,0
2,note_on,63,0,120
2,note_on,51,32,0
2,note_on,51,0,120
2,note_on,63,32,0
2,note_on,63,0,120
2,note_on,55,43,0
2,note_on,55,0,120
2,note_on,63,37,0
2,note_on,63,0,120
2,note_on,58,37,0
2,note_on,58,0,120
2,note_on,63,37,0
2,note_on,63,0,120
2,note_on,56,44,0
2,note_on,56,0,120
2,note_on,63,33,0
2,note_on,63,0,120
2,note_on,60,36,0
2,note_on,60,0,120
2,note_on,63,36,0
2,note_on,63,0,120
2,note_on,55,43,0
2,note_on,55,0,120
2,note_on,63,38,0
2,note_on,63,0,120
2,note_on,51,42,0
2,note_on,51,0,120
2,note_on,63,42,0
2,note_on,63,0,120
2,note_on,56,48,0
2,note_on,56,0,120
2,note_on,63,43,0
2,note_on,63,0,120
2,note_on,60,51,0
2,note_on,60,0,120
2,note_on,63,43,0
2,note_on,63,0,120
2,note_on,58,56,0
2,note_on,58,0,120
2,note_on,67,42,0
2,note_on,67,0,120
2,note_on,64,51,0
2,note_on,64,0,120
2,note_on,67,45,0
2,note_on,67,0,120
2,note_on,56,54,0
2,note_on,56,0,120
2,note_on,65,44,0
2,note_on,65,0,120
2,note_on,60,46,0
2,note_on,60,0,120
2,note_on,65,46,0
2,note_on,65,0,120
2,note_on,56,55,0
2,note_on,56,0,120
2,note_on,65,42,0
2,note_on,65,0,120
2,note_on,62,47,0
2,note_on,62,0,120
2,note_on,65,42,0
2,note_on,65,0,120
2,note_on,55,45,0
2,note_on,55,0,120
2,note_on,63,40,0
2,note_on,63,0,120
2,note_on,58,45,0
2,note_on,58,0,120
2,note_on,63,38,0
2,note_on,63,0,120
2,note_on,56,44,0
2,note_on,56,0,120
2,note_on,65,38,0
2,note_on,65,0,120
2,note_on,60,40,0
2,note_on,60,0,120
2,note_on,65,40,0
2,note_on,65,0,120
2,note_on,58,40,0
2,note_on,58,0,120
2,note_on,67,36,0
2,note_on,67,0,120
2,note_on,58,36,0
2,note_on,58,0,120
2,note_on,68,36,0
2,note_on,68,0,90
2,note_on,63,42,30
2,note_on,67,42,0
2,note_on,67,0,480
2,note_on,63,0,0
2,note_on,63,36,480
2,note_on,63,0,120
2,note_on,66,31,0
2,note_on,66,0,120
2,note_on,63,31,0
2,note_on,63,0,120
2,note_on,66,31,0
2,note_on,66,0,120
2,note_on,63,39,0
2,note_on,65,33,120
2,note_on,63,0,12
2,note_on,63,36,108
2,note_on,65,0,12
2,note_on,65,32,108
2,note_on,63,0,12
2,note_on,65,0,108
2,note_on,62,39,0
2,note_on,62,0,120
2,note_on,65,31,0
2,note_on,65,0,120
2,note_on,62,31,0
2,note_on,62,0,120
2,note_on,65,31,0
2,note_on,65,0,120
2,note_on,61,36,0
2,note_on,65,33,120
2,note_on,61,0,12
2,note_on,61,32,108
2,note_on,65,0,12
2,note_on,65,32,108
2,note_on,61,0,12
2,note_on,65,0,108
2,note_on,60,36,0
2,note_on,60,0,120
2,note_on,63,31,0
2,note_on,63,0,120
2,note_on,60,31,0
2,note_on,60,0,120
2,note_on,63,31,0
2,note_on,63,0,120
2,note_on,61,36,0
2,note_on,61,0,240
2,note_on,58,33,0
2,note_on,58,0,240
2,note_on,63,41,0
2,note_on,63,0,120
2,note_on,62,36,0
2,note_on,62,0,120
2,note_on,63,36,0
2,note_on,63,0,120
2,note_on,62,36,0
2,note_on,62,0,120
2,note_on,63,40,0
2,note_on,63,0,120
2,note_on,58,36,0
2,note_on,58,0,120
2,note_on,55,36,0
2,note_on,55,0,120
2,note_on,51,36,0
2,note_on,51,0,120
2,note_on,53,36,0
2,note_on,53,0,120
2,note_on,60,31,0
2,note_on,60,0,120
2,note_on,56,31,0
2,note_on,56,0,120
2,note_on,60,31,0
2,note_on,60,0,120
2,note_on,56,39,0
2,note_on,65,33,120
2,note_on,56,0,12
2,note_on,58,36,108
2,note_on,65,0,12
2,note_on,65,32,108
2,note_on,58,0,12
2,note_on,65,0,108
2,note_on,55,43,0
2,note_on,55,0,120
2,note_on,63,36,0
2,note_on,63,0,120
2,note_on,58,40,0
2,note_on,58,0,120
2,note_on,63,36,6
2,note_on,61,41,114
2,note_on,63,0,6
2,note_on,70,33,114
2,note_on,61,0,12
2,note_on,63,36,108
2,note_on,70,0,12
2,note_on,70,32,108
2,note_on,63,0,12
2,note_on,70,0,108
2,note_on,60,39,0
2,note_on,68,39,0
2,note_on,68,0,240
2,note_on,60,0,0
2,note_on,61,36,0
2,note_on,65,36,0
2,note_on,65,0,240
2,note_on,61,0,0
2,note_on,51,39,0
2,note_on,60,39,0
2,note_on,60,0,240
2,note_on,51,0,0
2,note_on,51,36,0
2,note_on,58,36,0
2,note_on,58,0,240
2,note_on,51,0,0
2,note_on,56,39,0
2,note_on,61,39,0
2,note_on,61,0,480
2,note_on,60,36,0
2,note_on,60,0,240
2,note_on,56,0,0
2,note_on,63,36,240
2,note_on,63,0,120
2,note_on,66,31,0
2,note_on,66,0,120
2,note_on,63,31,0
2,note_on,63,0,120
2,note_on,66,31,0
2,note_on,66,0,120
2,note_on,63,39,0
2,note_on,65,33,120
2,note_on,63,0,12
2,note_on,63,36,108
2,note_on,65,0,12
2,note_on,65,32,108
2,note_on,63,0,12
2,note_on,65,0,108
2,note_on,62,39,0
2,note_on,62,0,120
2,note_on,65,31,0
2,note_on,65,0,120
2,note_on,62,31,0
2,note_on,62,0,120
2,note_on,65,31,0
2,note_on,65,0,120
2,note_on,61,36,0
2,note_on,65,33,120
2,note_on,61,0,12
2,note_on,61,32,108
2,note_on,65,0,12
2,note_on,65,32,108
2,note_on,61,0,12
2,note_on,65,0,108
2,note_on,60,36,0
2,note_on,60,0,120
2,note_on,63,31,0
2,note_on,63,0,120
2,note_on,60,31,0
2,note_on,60,0,120
2,note_on,63,31,0
2,note_on,63,0,120
2,note_on,61,36,0
2,note_on,61,0,240
2,note_on,58,33,0
2,note_on,58,0,240
2,note_on,63,41,0
2,note_on,63,0,120
2,note_on,62,36,0
2,note_on,62,0,120
2,note_on,63,36,0
2,note_on,63,0,120
2,note_on,62,36,0
2,note_on,62,0,120
2,note_on,63,40,0
2,note_on,63,0,120
2,note_on,58,36,0
2,note_on,58,0,120
2,note_on,55,36,0
2,note_on,55,0,120
2,note_on,51,36,0
2,note_on,51,0,120
2,note_on,53,36,0
2,note_on,53,0,120
2,note_on,60,31,0
2,note_on,60,0,120
2,note_on,56,31,0
2,note_on,56,0,120
2,note_on,60,31,0
2,note_on,60,0,120
2,note_on,56,39,0
2,note_on,65,33,120
2,note_on,56,0,12
2,note_on,58,36,108
2,note_on,65,0,12
2,note_on,65,32,108
2,note_on,58,0,12
2,note_on,65,0,108
2,note_on,55,43,0
2,note_on,55,0,120
2,note_on,63,31,0
2,note_on,63,0,120
2,note_on,58,36,0
2,note_on,58,0,120
2,note_on,63,31,6
2,note_on,61,39,114
2,note_on,63,0,6
2,note_on,70,33,114
2,note_on,61,0,12
2,note_on,63,32,108
2,note_on,70,0,12
2,note_on,70,32,108
2,note_on,63,0,12
2,note_on,70,0,108
2,note_on,60,39,0
2,note_on,68,39,0
2,note_on,68,0,240
2,note_on,60,0,0
2,note_on,61,36,0
2,note_on,65,36,0
2,note_on,65,0,240
2,note_on,61,0,0
2,note_on,51,39,0
2,note_on,60,39,0
2,note_on,60,0,240
2,note_on,51,0,0
2,note_on,51,36,0
2,note_on,58,36,0
2,note_on,58,0,240
2,note_on,51,0,0
2,note_on,56,39,0
2,note_on,61,39,0
2,note_on,61,0,480
2,note_on,60,36,0
2,note_on,60,0,240
2,note_on,56,0,0
2,note_on,64,39,240
2,note_on,67,39,0
2,note_on,67,0,360
2,note_on,64,0,0
2,note_on,65,39,120
2,note_on,68,39,0
2,note_on,68,0,240
2,note_on,65,0,0
2,note_on,62,39,240
2,note_on,65,39,0
2,note_on,65,0,360
2,note_on,62,0,0
2,note_on,63,39,120
2,note_on,67,39,0
2,note_on,67,0,240
2,note_on,63,0,0
2,note_on,60,39,240
2,note_on,63,39,0
2,note_on,63,0,960
2,note_on,60,0,0
2,note_on,58,50,120
2,note_on,62,53,120
2,note_on,62,0,120
2,note_on,65,55,0
2,note_on,65,0,120
2,note_on,58,0,0
2,note_on,66,58,0
2,note_on,66,0,240
2,note_on,63,54,0
2,note_on,63,0,240
2,note_on,58,54,120
2,note_on,62,58,120
2,note_on,62,0,120
2,note_on,65,61,0
2,note_on,65,0,120
2,note_on,58,0,0
2,note_on,66,63,0
2,note_on,66,0,240
2,note_on,63,54,0
2,note_on,63,0,240
2,note_on,58,47,120
2,note_on,62,49,120
2,note_on,62,0,120
2,note_on,65,51,0
2,note_on,65,0,120
2,note_on,68,56,0
2,note_on,68,0,2160
2,note_on,58,0,0
2,note_on,39,27,240
2,note_on,51,39,0
2,note_on,51,0,480
2,note_on,39,0,0
2,note_on,46,33,240
2,note_on,46,0,240
2,note_on,51,39,0
2,note_on,51,0,480
2,note_on,46,36,240
2,note_on,46,0,240
2,note_on,51,39,0
2,note_on,51,0,240
2,note_on,48,34,0
2,note_on,48,0,240
2,note_on,43,39,0
2,note_on,43,0,240
2,note_on,44,36,0
2,note_on,44,0,240
2,note_on,46,39,0
2,note_on,46,0,720
2,note_on,67,36,240
2,note_on,67,0,480
2,note_on,63,36,0
2,note_on,63,0,240
2,note_on,58,34,0
2,note_on,58,0,240
2,note_on,55,38,0
2,note_on,55,0,180
2,note_on,58,34,60
2,note_on,58,0,180
2,note_on,63,36,60
2,note_on,63,0,180
2,note_on,60,39,60
2,note_on,60,0,180
2,note_on,55,42,60
2,note_on,55,0,240
2,note_on,65,36,0
2,note_on,56,30,0
2,note_on,56,0,240
2,note_on,65,0,0
2,note_on,58,35,0
2,note_on,67,42,0
2,note_on,67,0,240
2,note_on,68,33,0
2,note_on,68,0,240
2,note_on,58,0,0
2,note_on,63,28,0
2,note_on,68,34,0
2,note_on,68,0,480
2,note_on,67,32,0
2,note_on,67,0,240
2,note_on,63,0,0
2,note_on,51,36,240
2,note_on,51,0,120
2,note_on,60,31,0
2,note_on,60,0,120
2,note_on,56,31,0
2,note_on,56,0,120
2,note_on,60,31,0
2,note_on,60,0,120
2,note_on,51,36,0
2,note_on,51,0,120
2,note_on,60,33,0
2,note_on,60,0,120
2,note_on,56,32,0
2,note_on,56,0,120
2,note_on,60,32,0
2,note_on,60,0,120
2,note_on,51,36,0
2,note_on,51,0,120
2,note_on,58,27,0
2,note_on,58,0,120
2,note_on,55,31,0
2,note_on,55,0,120
2,note_on,58,26,0
2,note_on,58,0,120
2,note_on,51,36,0
2,note_on,51,0,120
2,note_on,58,28,0
2,note_on,58,0,120
2,note_on,55,32,0
2,note_on,55,0,120
2,note_on,58,30,0
2,note_on,58,0,120
2,note_on,51,36,0
2,note_on,51,0,120
2,note_on,60,31,0
2,note_on,60,0,120
2,note_on,56,31,0
2,note_on,56,0,120
2,note_on,60,31,0
2,note_on,60,0,120
2,note_on,51,36,0
2,note_on,51,0,120
2,note_on,60,29,0
2,note_on,60,0,120
2,note_on,56,32,0
2,note_on,56,0,120
2,note_on,60,30,0
2,note_on,60,0,120
2,note_on,51,36,0
2,note_on,51,0,120
2,note_on,58,31,0
2,note_on,58,0,120
2,note_on,55,36,0
2,note_on,55,0,120
2,note_on,58,31,0
2,note_on,58,0,120
2,note_on,51,36,0
2,note_on,51,0,120
2,note_on,58,30,0
2,note_on,58,0,120
2,note_on,55,32,0
2,note_on,55,0,120
2,note_on,58,30,0
2,note_on,58,0,120
2,note_on,60,42,0
2,note_on,60,0,480
2,note_on,62,32,120
2,note_on,70,32,0
2,note_on,70,0,90
2,note_on,62,0,0
2,note_on,62,36,30
2,note_on,70,36,0
2,note_on,70,0,90
2,note_on,62,0,0
2,note_on,62,32,30
2,note_on,70,32,0
2,note_on,70,0,90
2,note_on,62,0,0
2,note_on,63,37,30
2,note_on,70,37,0
2,note_on,70,0,480
2,note_on,63,0,0
2,note_on,67,32,120
2,note_on,70,32,0
2,note_on,70,0,90
2,note_on,67,0,0
2,note_on,67,36,30
2,note_on,70,36,0
2,note_on,70,0,90
2,note_on,67,0,0
2,note_on,67,32,30
2,note_on,70,32,0
2,note_on,70,0,90
2,note_on,67,0,0
2,note_on,68,37,30
2,note_on,72,37,0
2,note_on,72,0,480
2,note_on,68,0,0
2,note_on,58,36,240
2,note_on,68,36,0
2,note_on,68,0,240
2,note_on,58,0,0
2,note_on,59,38,0
2,note_on,68,38,0
2,note_on,68,0,480
2,note_on,59,0,0
2,note_on,60,36,0
2,note_on,67,36,0
2,note_on,67,0,240
2,note_on,60,0,0
2,note_on,53,38,240
2,note_on,53,0,120
2,note_on,60,31,0
2,note_on,60,0,120
2,note_on,57,36,0
2,note_on,57,0,120
2,note_on,60,31,0
2,note_on,60,0,120
2,note_on,51,38,0
2,note_on,51,0,120
2,note_on,60,33,0
2,note_on,60,0,120
2,note_on,53,36,0
2,note_on,53,0,120
2,note_on,60,32,0
2,note_on,60,0,120
2,note_on,50,40,0
2,note_on,50,0,120
2,note_on,58,31,0
2,note_on,58,0,120
2,note_on,53,36,6
2,note_on,58,31,114
2,note_on,53,0,6
2,note_on,58,0,114
2,note_on,56,40,0
2,note_on,56,0,120
2,note_on,65,33,0
2,note_on,65,0,120
2,note_on,58,36,0
2,note_on,58,0,120
2,note_on,65,32,0
2,note_on,65,0,120
2,note_on,63,36,0
2,note_on,55,30,0
2,note_on,55,0,240
2,note_on,63,0,0
2,note_on,60,32,0
2,note_on,56,27,0
2,note_on,56,0,240
2,note_on,60,0,0
2,note_on,46,30,0
2,note_on,55,36,0
2,note_on,55,0,240
2,note_on,46,0,0
2,note_on,46,27,0
2,note_on,53,32,7
2,note_on,46,0,233
2,note_on,51,40,0
2,note_on,53,0,7
2,note_on,51,0,113
2,note_on,55,36,0
2,note_on,55,0,120
2,note_on,58,39,0
2,note_on,58,0,60
2,note_on,58,36,60
2,note_on,58,0,60
2,note_on,58,40,67
2,note_on,58,0,240
2,note_on,63,37,233
2,note_on,63,0,120
2,note_on,67,33,0
2,note_on,67,0,120
2,note_on,70,37,0
2,note_on,70,0,60
2,note_on,70,33,60
2,note_on,70,0,60
2,note_on,70,38,67
2,note_on,70,0,240
2,note_on,39,36,233
2,note_on,39,0,120
2,note_on,43,31,0
2,note_on,43,0,120
2,note_on,46,36,0
2,note_on,46,0,60
2,note_on,46,33,60
2,note_on,46,0,60
2,note_on,46,37,67
2,note_on,46,0,240
2,note_on,34,25,233
2,note_on,46,30,0
2,note_on,46,0,960
2,note_on,34,0,0
2,note_on,39,27,0
2,note_on,39,0,240
