Track,Message Type,Note,Velocity,Time
1,note_on,70,50,0
1,note_on,70,0,960
1,note_on,65,45,0
1,note_on,65,0,480
1,note_on,62,50,0
1,note_on,62,0,960
1,note_on,65,48,0
1,note_on,65,0,480
1,note_on,70,52,0
1,note_on,70,0,960
1,note_on,74,54,0
1,note_on,74,0,480
1,note_on,77,57,0
1,note_on,77,0,960
1,note_on,82,58,0
1,note_on,82,0,240
1,note_on,74,51,0
1,note_on,74,0,240
1,note_on,77,56,0
1,note_on,75,52,240
1,note_on,77,0,12
1,note_on,74,51,228
1,note_on,75,0,12
1,note_on,72,49,228
1,note_on,74,0,12
1,note_on,70,48,228
1,note_on,72,0,12
1,note_on,69,47,228
1,note_on,70,0,12
1,note_on,69,0,228
1,note_on,67,50,0
1,note_on,65,44,240
1,note_on,67,0,12
1,note_on,64,44,228
1,note_on,65,0,12
1,note_on,65,45,228
1,note_on,64,0,12
1,note_on,67,47,228
1,note_on,65,0,12
1,note_on,69,50,228
1,note_on,67,0,12
1,note_on,69,0,228
1,note_on,70,50,0
1,note_on,70,0,60
1,note_on,72,45,120
1,note_on,72,0,60
1,note_on,70,49,0
1,note_on,70,0,120
1,note_on,69,46,0
1,note_on,69,0,120
1,note_on,70,50,0
1,note_on,70,0,60
1,note_on,72,47,180
1,note_on,72,0,60
1,note_on,74,49,180
1,note_on,74,0,60
1,note_on,75,51,180
1,note_on,75,0,60
1,note_on,76,53,180
1,note_on,77,50,240
1,note_on,76,0,12
1,note_on,79,55,228
1,note_on,77,0,12
1,note_on,77,50,228
1,note_on,79,0,12
1,note_on,77,0,228
1,note_on,82,59,0
1,note_on,82,0,240
1,note_on,74,50,0
1,note_on,74,0,240
1,note_on,77,57,0
1,note_on,75,55,240
1,note_on,77,0,12
1,note_on,74,53,228
1,note_on,75,0,12
1,note_on,72,51,228
1,note_on,74,0,12
1,note_on,70,49,228
1,note_on,72,0,12
1,note_on,69,47,228
1,note_on,70,0,12
1,note_on,69,0,228
1,note_on,67,50,0
1,note_on,65,43,240
1,note_on,67,0,12
1,note_on,64,50,228
1,note_on,65,0,12
1,note_on,65,43,228
1,note_on,64,0,12
1,note_on,67,50,228
1,note_on,65,0,12
1,note_on,69,45,228
1,note_on,67,0,12
1,note_on,69,0,228
1,note_on,70,50,0
1,note_on,70,0,120
1,note_on,70,48,360
1,note_on,70,0,120
1,note_on,74,48,360
1,note_on,74,0,120
1,note_on,70,50,360
1,note_on,70,0,480
1,note_on,70,44,360
1,note_on,70,0,60
1,note_on,72,50,60
1,note_on,70,43,120
1,note_on,72,0,12
1,note_on,69,45,108
1,note_on,70,0,12
1,note_on,70,42,108
1,note_on,69,0,12
1,note_on,79,56,108
1,note_on,70,0,12
1,note_on,79,0,468
1,note_on,70,44,360
1,note_on,70,0,60
1,note_on,72,50,60
1,note_on,70,43,120
1,note_on,72,0,12
1,note_on,69,45,108
1,note_on,70,0,12
1,note_on,70,42,108
1,note_on,69,0,12
1,note_on,77,55,108
1,note_on,70,0,12
1,note_on,77,0,468
1,note_on,70,44,360
1,note_on,70,0,60
1,note_on,72,50,60
1,note_on,70,43,120
1,note_on,72,0,12
1,note_on,69,45,108
1,note_on,70,0,12
1,note_on,70,42,108
1,note_on,69,0,12
1,note_on,72,52,108
1,note_on,70,0,12
1,note_on,72,0,468
1,note_on,77,49,0
1,note_on,77,0,480
1,note_on,75,48,0
1,note_on,75,0,480
1,note_on,73,55,0
1,note_on,73,0,480
1,note_on,74,49,0
1,note_on,74,0,240
1,note_on,70,44,120
1,note_on,70,0,60
1,note_on,72,50,60
1,note_on,70,43,120
1,note_on,72,0,12
1,note_on,69,45,108
1,note_on,70,0,12
1,note_on,70,42,108
1,note_on,69,0,12
1,note_on,79,56,108
1,note_on,70,0,12
1,note_on,79,0,468
1,note_on,70,44,360
1,note_on,70,0,60
1,note_on,72,50,60
1,note_on,70,43,120
1,note_on,72,0,12
1,note_on,69,45,108
1,note_on,70,0,12
1,note_on,70,42,108
1,note_on,69,0,12
1,note_on,77,55,108
1,note_on,70,0,12
1,note_on,77,0,468
1,note_on,70,44,360
1,note_on,70,0,60
1,note_on,72,50,60
1,note_on,70,43,120
1,note_on,72,0,12
1,note_on,69,45,108
1,note_on,70,0,12
1,note_on,70,42,108
1,note_on,69,0,12
1,note_on,72,52,108
1,note_on,70,0,12
1,note_on,72,0,468
1,note_on,75,49,0
1,note_on,75,0,480
1,note_on,69,48,0
1,note_on,69,0,480
1,note_on,70,55,0
1,note_on,70,0,480
1,note_on,74,64,960
1,note_on,70,64,0
1,note_on,79,77,0
1,note_on,79,0,120
1,note_on,70,0,0
1,note_on,74,0,0
1,note_on,67,64,360
1,note_on,67,0,120
1,note_on,69,63,840
1,note_on,66,63,0
1,note_on,74,75,0
1,note_on,74,0,120
1,note_on,66,0,0
1,note_on,69,0,0
1,note_on,62,67,360
1,note_on,62,0,120
1,note_on,63,43,840
1,note_on,63,0,960
1,note_on,65,36,0
1,note_on,63,36,120
1,note_on,65,0,12
1,note_on,62,36,108
1,note_on,63,0,12
1,note_on,63,36,108
1,note_on,62,0,12
1,note_on,63,0,108
1,note_on,72,42,0
1,note_on,72,0,240
1,note_on,70,37,0
1,note_on,70,0,240
1,note_on,70,43,0
1,note_on,70,0,480
1,note_on,70,38,0
1,note_on,70,0,480
1,note_on,70,39,0
1,note_on,75,45,240
1,note_on,70,0,12
1,note_on,74,44,228
1,note_on,75,0,12
1,note_on,73,42,228
1,note_on,74,0,12
1,note_on,72,40,228
1,note_on,73,0,12
1,note_on,71,38,228
1,note_on,72,0,12
1,note_on,70,41,228
1,note_on,71,0,12
1,note_on,70,0,468
1,note_on,63,45,960
1,note_on,63,0,960
1,note_on,65,42,0
1,note_on,63,39,120
1,note_on,65,0,12
1,note_on,62,42,108
1,note_on,63,0,12
1,note_on,63,40,108
1,note_on,62,0,12
1,note_on,63,0,108
1,note_on,72,54,0
1,note_on,71,48,240
1,note_on,72,0,12
1,note_on,71,0,228
1,note_on,71,53,0
1,note_on,71,0,480
1,note_on,71,47,0
1,note_on,71,0,480
1,note_on,72,50,0
1,note_on,79,58,240
1,note_on,72,0,12
1,note_on,75,56,228
1,note_on,79,0,12
1,note_on,74,54,228
1,note_on,75,0,12
1,note_on,72,51,228
1,note_on,74,0,12
1,note_on,70,49,228
1,note_on,72,0,12
1,note_on,69,50,228
1,note_on,70,0,12
1,note_on,69,0,468
1,note_on,70,59,960
1,note_on,86,62,240
1,note_on,70,0,12
1,note_on,82,61,228
1,note_on,86,0,12
1,note_on,81,60,228
1,note_on,82,0,12
1,note_on,79,58,228
1,note_on,81,0,12
1,note_on,77,57,228
1,note_on,79,0,12
1,note_on,76,62,228
1,note_on,77,0,12
1,note_on,76,0,468
1,note_on,77,52,960
1,note_on,81,58,240
1,note_on,77,0,12
1,note_on,77,56,228
1,note_on,81,0,12
1,note_on,76,55,228
1,note_on,77,0,12
1,note_on,74,53,228
1,note_on,76,0,12
1,note_on,72,51,228
1,note_on,74,0,12
1,note_on,71,56,228
1,note_on,72,0,12
1,note_on,71,0,468
1,note_on,72,46,1080
1,note_on,72,0,120
1,note_on,71,49,0
1,note_on,71,0,120
1,note_on,72,44,0
1,note_on,72,0,120
1,note_on,74,49,0
1,note_on,74,0,120
1,note_on,72,44,0
1,note_on,72,0,120
1,note_on,71,49,0
1,note_on,71,0,120
1,note_on,72,44,0
1,note_on,72,0,120
1,note_on,72,49,120
1,note_on,72,0,120
1,note_on,76,54,0
1,note_on,76,0,120
1,note_on,72,49,0
1,note_on,72,0,120
1,note_on,72,53,120
1,note_on,72,0,120
1,note_on,77,57,0
1,note_on,77,0,120
1,note_on,72,52,0
1,note_on,72,0,120
1,note_on,72,55,120
1,note_on,72,0,120
1,note_on,82,61,0
1,note_on,82,0,120
1,note_on,72,57,0
1,note_on,72,0,120
1,note_on,72,57,120
1,note_on,72,0,120
1,note_on,81,64,0
1,note_on,81,0,120
1,note_on,72,57,0
1,note_on,72,0,120
1,note_on,79,65,0
1,note_on,79,0,120
1,note_on,76,60,0
1,note_on,76,0,120
1,note_on,74,65,0
1,note_on,74,0,120
1,note_on,72,60,0
1,note_on,72,0,120
1,note_on,71,57,0
1,note_on,71,0,120
1,note_on,72,59,0
1,note_on,72,0,120
1,note_on,74,60,0
1,note_on,74,0,120
1,note_on,72,56,0
1,note_on,72,0,120
1,note_on,72,49,120
1,note_on,72,0,120
1,note_on,76,53,0
1,note_on,76,0,120
1,note_on,72,49,0
1,note_on,72,0,120
1,note_on,72,52,120
1,note_on,72,0,120
1,note_on,77,58,0
1,note_on,77,0,120
1,note_on,72,54,0
1,note_on,72,0,120
1,note_on,72,55,120
1,note_on,72,0,120
1,note_on,82,61,0
1,note_on,82,0,120
1,note_on,72,55,0
1,note_on,72,0,120
1,note_on,72,49,120
1,note_on,72,0,120
1,note_on,81,68,0
1,note_on,81,0,120
1,note_on,72,62,0
1,note_on,72,0,120
1,note_on,79,73,0
1,note_on,79,0,120
1,note_on,84,62,0
1,note_on,84,0,120
1,note_on,79,69,0
1,note_on,79,0,120
1,note_on,76,57,0
1,note_on,76,0,120
1,note_on,72,67,0
1,note_on,72,0,120
1,note_on,79,55,0
1,note_on,79,0,120
1,note_on,76,61,0
1,note_on,76,0,120
1,note_on,72,54,0
1,note_on,72,0,120
1,note_on,67,63,0
1,note_on,67,0,120
1,note_on,72,55,0
1,note_on,72,0,120
1,note_on,67,65,0
1,note_on,67,0,120
1,note_on,64,59,0
1,note_on,64,0,120
1,note_on,60,85,0
1,note_on,60,0,120
1,note_on,67,62,360
1,note_on,64,62,0
1,note_on,72,73,0
1,note_on,72,0,480
1,note_on,64,0,0
1,note_on,67,0,0
1,note_on,84,45,3600
1,note_on,84,0,60
1,note_on,84,49,180
1,note_on,84,0,60
1,note_on,84,43,180
1,note_on,84,0,60
1,note_on,84,46,180
1,note_on,84,0,60
1,note_on,84,40,180
1,note_on,84,0,60
1,note_on,86,45,180
1,note_on,84,40,240
1,note_on,86,0,12
1,note_on,82,43,228
1,note_on,84,0,12
1,note_on,81,40,228
1,note_on,82,0,12
1,note_on,79,45,228
1,note_on,81,0,12
1,note_on,77,39,228
1,note_on,79,0,12
1,note_on,77,0,228
1,note_on,77,41,0
1,note_on,77,0,60
1,note_on,79,39,0
1,note_on,79,0,60
1,note_on,77,49,0
1,note_on,77,0,120
1,note_on,76,44,0
1,note_on,76,0,232
1,note_on,76,46,8
1,note_on,76,0,480
1,note_on,82,45,2160
1,note_on,82,0,60
1,note_on,82,48,180
1,note_on,82,0,60
1,note_on,82,42,180
1,note_on,82,0,60
1,note_on,82,44,180
1,note_on,82,0,60
1,note_on,82,40,180
1,note_on,82,0,60
1,note_on,84,45,180
1,note_on,82,40,240
1,note_on,84,0,12
1,note_on,81,40,228
1,note_on,82,0,12
1,note_on,79,40,228
1,note_on,81,0,12
1,note_on,77,45,228
1,note_on,79,0,12
1,note_on,76,39,228
1,note_on,77,0,12
1,note_on,76,0,228
1,note_on,77,47,0
1,note_on,77,0,480
1,note_on,81,47,240
1,note_on,79,45,240
1,note_on,81,0,12
1,note_on,77,40,228
1,note_on,79,0,12
1,note_on,76,47,228
1,note_on,77,0,12
1,note_on,76,0,468
1,note_on,86,52,240
1,note_on,84,47,240
1,note_on,86,0,12
1,note_on,76,42,228
1,note_on,84,0,12
1,note_on,77,47,228
1,note_on,76,0,12
1,note_on,77,0,468
1,note_on,81,47,240
1,note_on,79,45,240
1,note_on,81,0,12
1,note_on,77,40,228
1,note_on,79,0,12
1,note_on,76,47,228
1,note_on,77,0,12
1,note_on,76,0,468
1,note_on,86,52,240
1,note_on,84,47,240
1,note_on,86,0,12
1,note_on,76,42,228
1,note_on,84,0,12
1,note_on,77,47,228
1,note_on,76,0,12
1,note_on,77,0,468
1,note_on,84,55,240
1,note_on,81,53,240
1,note_on,84,0,12
1,note_on,79,50,228
1,note_on,81,0,12
1,note_on,78,56,228
1,note_on,79,0,12
1,note_on,78,0,468
1,note_on,87,58,240
1,note_on,86,52,240
1,note_on,87,0,12
1,note_on,78,48,228
1,note_on,86,0,12
1,note_on,81,56,228
1,note_on,78,0,12
1,note_on,79,51,228
1,note_on,81,0,12
1,note_on,84,55,228
1,note_on,79,0,12
1,note_on,83,51,228
1,note_on,84,0,12
1,note_on,82,50,228
1,note_on,83,0,12
1,note_on,81,49,228
1,note_on,82,0,12
1,note_on,79,54,228
1,note_on,81,0,12
1,note_on,79,0,348
1,note_on,81,48,0
1,note_on,81,0,120
1,note_on,77,54,0
1,note_on,77,0,480
1,note_on,76,50,0
1,note_on,76,0,80
1,note_on,77,44,0
1,note_on,77,0,80
1,note_on,76,50,0
1,note_on,76,0,80
1,note_on,77,44,0
1,note_on,77,0,60
1,note_on,76,50,0
1,note_on,76,0,60
1,note_on,74,42,0
1,note_on,74,0,60
1,note_on,76,45,0
1,note_on,76,0,60
1,note_on,77,49,0
1,note_on,77,0,120
1,note_on,72,46,0
1,note_on,72,0,120
1,note_on,71,49,0
1,note_on,71,0,120
1,note_on,72,44,0
1,note_on,72,0,120
1,note_on,74,49,0
1,note_on,74,0,120
1,note_on,72,44,0
1,note_on,72,0,120
1,note_on,71,49,0
1,note_on,71,0,120
1,note_on,72,44,0
1,note_on,72,0,120
1,note_on,70,49,0
1,note_on,70,0,120
1,note_on,72,49,0
1,note_on,72,0,120
1,note_on,69,54,0
1,note_on,69,0,120
1,note_on,72,49,0
1,note_on,72,0,120
1,note_on,67,49,0
1,note_on,67,0,120
1,note_on,72,46,0
1,note_on,72,0,120
1,note_on,71,49,0
1,note_on,71,0,120
1,note_on,72,44,0
1,note_on,72,0,120
1,note_on,74,49,0
1,note_on,74,0,120
1,note_on,72,44,0
1,note_on,72,0,120
1,note_on,71,49,0
1,note_on,71,0,120
1,note_on,72,44,0
1,note_on,72,0,120
1,note_on,82,49,0
1,note_on,82,0,120
1,note_on,72,49,0
1,note_on,72,0,120
1,note_on,82,54,0
1,note_on,82,0,120
1,note_on,72,49,0
1,note_on,72,0,120
1,note_on,81,49,0
1,note_on,81,0,120
1,note_on,72,46,0
1,note_on,72,0,120
1,note_on,71,49,0
1,note_on,71,0,120
1,note_on,72,44,0
1,note_on,72,0,120
1,note_on,74,49,0
1,note_on,74,0,120
1,note_on,72,44,0
1,note_on,72,0,120
1,note_on,71,49,0
1,note_on,71,0,120
1,note_on,72,44,0
1,note_on,72,0,120
1,note_on,70,49,0
1,note_on,70,0,120
1,note_on,72,49,0
1,note_on,72,0,120
1,note_on,69,54,0
1,note_on,69,0,120
1,note_on,72,49,0
1,note_on,72,0,120
1,note_on,67,49,0
1,note_on,67,0,120
1,note_on,72,46,0
1,note_on,72,0,120
1,note_on,71,49,0
1,note_on,71,0,120
1,note_on,72,44,0
1,note_on,72,0,120
1,note_on,74,49,0
1,note_on,74,0,120
1,note_on,72,44,0
1,note_on,72,0,120
1,note_on,71,49,0
1,note_on,71,0,120
1,note_on,72,44,0
1,note_on,72,0,120
1,note_on,82,49,0
1,note_on,82,0,120
1,note_on,72,49,0
1,note_on,72,0,120
1,note_on,82,54,0
1,note_on,82,0,120
1,note_on,72,49,0
1,note_on,72,0,120
1,note_on,81,49,0
1,note_on,81,0,120
1,note_on,72,46,0
1,note_on,72,0,120
1,note_on,71,49,0
1,note_on,71,0,120
1,note_on,72,44,0
1,note_on,72,0,120
1,note_on,74,49,0
1,note_on,74,0,120
1,note_on,72,44,0
1,note_on,72,0,120
1,note_on,71,49,0
1,note_on,71,0,120
1,note_on,72,44,0
1,note_on,72,0,120
1,note_on,75,49,0
1,note_on,75,0,120
1,note_on,72,49,0
1,note_on,72,0,120
1,note_on,70,54,0
1,note_on,70,0,120
1,note_on,72,49,0
1,note_on,72,0,120
1,note_on,69,49,0
1,note_on,69,0,120
1,note_on,74,46,0
1,note_on,74,0,120
1,note_on,73,49,0
1,note_on,73,0,120
1,note_on,74,44,0
1,note_on,74,0,120
1,note_on,76,49,0
1,note_on,76,0,120
1,note_on,74,44,0
1,note_on,74,0,120
1,note_on,73,52,0
1,note_on,73,0,120
1,note_on,74,44,0
1,note_on,74,0,120
1,note_on,84,55,0
1,note_on,84,0,120
1,note_on,74,49,0
1,note_on,74,0,120
1,note_on,84,57,0
1,note_on,84,0,120
1,note_on,74,49,0
1,note_on,74,0,120
1,note_on,83,62,0
1,note_on,83,0,480
1,note_on,82,60,0
1,note_on,82,0,480
1,note_on,81,57,0
1,note_on,81,0,480
1,note_on,79,60,0
1,note_on,79,0,120
1,note_on,86,52,0
1,note_on,86,0,120
1,note_on,82,52,0
1,note_on,82,0,120
1,note_on,79,52,0
1,note_on,79,0,120
1,note_on,77,62,0
1,note_on,77,0,120
1,note_on,84,52,0
1,note_on,84,0,120
1,note_on,81,52,0
1,note_on,81,0,120
1,note_on,77,52,0
1,note_on,77,0,120
1,note_on,76,62,0
1,note_on,76,0,120
1,note_on,82,52,0
1,note_on,82,0,120
1,note_on,79,52,0
1,note_on,79,0,120
1,note_on,76,52,0
1,note_on,76,0,120
1,note_on,77,54,0
1,note_on,81,57,120
1,note_on,77,0,12
1,note_on,84,61,108
1,note_on,81,0,12
1,note_on,82,60,108
1,note_on,84,0,12
1,note_on,81,58,108
1,note_on,82,0,12
1,note_on,79,56,108
1,note_on,81,0,12
1,note_on,77,54,108
1,note_on,79,0,12
1,note_on,76,52,108
1,note_on,77,0,12
1,note_on,74,55,108
1,note_on,76,0,12
1,note_on,72,51,108
1,note_on,74,0,12
1,note_on,70,50,108
1,note_on,72,0,12
1,note_on,69,50,108
1,note_on,70,0,12
1,note_on,69,0,108
1,note_on,67,50,0
1,note_on,70,53,120
1,note_on,67,0,12
1,note_on,74,56,108
1,note_on,70,0,12
1,note_on,72,55,108
1,note_on,74,0,12
1,note_on,70,54,108
1,note_on,72,0,12
1,note_on,69,53,108
1,note_on,70,0,12
1,note_on,67,52,108
1,note_on,69,0,12
1,note_on,65,50,108
1,note_on,67,0,12
1,note_on,64,49,108
1,note_on,65,0,12
1,note_on,62,50,108
1,note_on,64,0,12
1,note_on,60,53,108
1,note_on,62,0,12
1,note_on,59,56,108
1,note_on,60,0,12
1,note_on,60,59,108
1,note_on,59,0,12
1,note_on,60,0,108
1,note_on,72,59,120
1,note_on,72,0,120
1,note_on,77,61,120
1,note_on,77,0,120
1,note_on,81,62,120
1,note_on,81,0,120
1,note_on,84,64,120
1,note_on,84,0,120
1,note_on,89,65,120
1,note_on,89,0,120
1,note_on,79,37,120
1,note_on,79,0,60
1,note_on,81,31,0
1,note_on,81,0,60
1,note_on,79,37,0
1,note_on,79,0,60
1,note_on,81,31,0
1,note_on,81,0,60
1,note_on,79,37,0
1,note_on,79,0,60
1,note_on,81,32,0
1,note_on,81,0,60
1,note_on,79,37,0
1,note_on,79,0,60
1,note_on,81,33,0
1,note_on,81,0,60
1,note_on,79,37,0
1,note_on,79,0,60
1,note_on,81,32,0
1,note_on,81,0,60
1,note_on,79,37,0
1,note_on,79,0,60
1,note_on,81,32,0
1,note_on,81,0,60
1,note_on,79,37,0
1,note_on,79,0,60
1,note_on,81,31,0
1,note_on,81,0,60
1,note_on,79,37,0
1,note_on,79,0,60
1,note_on,81,33,0
1,note_on,81,0,60
1,note_on,79,37,0
1,note_on,79,0,60
1,note_on,81,32,0
1,note_on,81,0,60
1,note_on,79,37,0
1,note_on,79,0,80
1,note_on,81,32,0
1,note_on,81,0,80
1,note_on,79,37,0
1,note_on,79,0,80
1,note_on,77,33,0
1,note_on,77,0,60
1,note_on,79,33,0
1,note_on,79,0,60
1,note_on,77,49,0
1,note_on,77,0,480
1,note_on,82,46,960
1,note_on,82,0,480
1,note_on,84,50,0
1,note_on,84,0,480
1,note_on,86,51,0
1,note_on,86,0,480
1,note_on,84,51,0
1,note_on,84,0,720
1,note_on,86,48,0
1,note_on,84,43,120
1,note_on,86,0,12
1,note_on,82,50,108
1,note_on,84,0,12
1,note_on,81,48,108
1,note_on,82,0,12
1,note_on,79,47,108
1,note_on,81,0,12
1,note_on,77,45,108
1,note_on,79,0,12
1,note_on,77,0,108
1,note_on,81,48,0
1,note_on,81,0,720
1,note_on,82,40,0
1,note_on,82,0,240
1,note_on,79,44,0
1,note_on,79,0,480
1,note_on,77,46,0
1,note_on,77,0,480
1,note_on,70,52,960
1,note_on,70,0,240
1,note_on,82,47,0
1,note_on,82,0,240
1,note_on,72,54,0
1,note_on,72,0,240
1,note_on,84,47,0
1,note_on,84,0,240
1,note_on,74,58,0
1,note_on,74,0,240
1,note_on,86,52,0
1,note_on,86,0,240
1,note_on,84,61,0
1,note_on,84,0,240
1,note_on,86,54,0
1,note_on,88,58,120
1,note_on,86,0,12
1,note_on,89,61,108
1,note_on,88,0,12
1,note_on,88,61,108
1,note_on,89,0,12
1,note_on,86,60,108
1,note_on,88,0,12
1,note_on,84,58,108
1,note_on,86,0,12
1,note_on,82,57,108
1,note_on,84,0,12
1,note_on,81,55,108
1,note_on,82,0,12
1,note_on,79,54,108
1,note_on,81,0,12
1,note_on,77,52,108
1,note_on,79,0,12
1,note_on,77,0,108
1,note_on,81,62,0
1,note_on,81,0,720
1,note_on,82,56,0
1,note_on,82,0,240
1,note_on,79,62,0
1,note_on,79,0,480
1,note_on,77,67,0
1,note_on,77,0,480
1,note_on,84,60,120
1,note_on,84,0,120
1,note_on,86,65,0
1,note_on,84,60,120
1,note_on,86,0,12
1,note_on,82,64,108
1,note_on,84,0,12
1,note_on,81,62,108
1,note_on,82,0,12
1,note_on,82,60,108
1,note_on,81,0,12
1,note_on,79,58,108
1,note_on,82,0,12
1,note_on,77,68,108
1,note_on,79,0,12
1,note_on,77,0,468
1,note_on,72,60,120
1,note_on,74,65,120
1,note_on,72,0,12
1,note_on,72,60,108
1,note_on,74,0,12
1,note_on,70,64,108
1,note_on,72,0,12
1,note_on,69,62,108
1,note_on,70,0,12
1,note_on,70,60,108
1,note_on,69,0,12
1,note_on,67,58,108
1,note_on,70,0,12
1,note_on,65,71,108
1,note_on,67,0,12
1,note_on,65,0,108
1,note_on,69,59,360
1,note_on,72,59,0
1,note_on,77,77,0
1,note_on,77,0,480
1,note_on,72,0,0
1,note_on,69,0,0
1,note_on,70,50,480
1,note_on,70,0,960
1,note_on,65,45,0
1,note_on,65,0,480
1,note_on,62,50,0
1,note_on,62,0,960
1,note_on,65,48,0
1,note_on,65,0,480
1,note_on,70,52,0
1,note_on,70,0,960
1,note_on,74,54,0
1,note_on,74,0,480
1,note_on,77,57,0
1,note_on,77,0,960
1,note_on,82,58,0
1,note_on,82,0,240
1,note_on,74,51,0
1,note_on,74,0,240
1,note_on,77,56,0
1,note_on,75,52,240
1,note_on,77,0,12
1,note_on,74,51,228
1,note_on,75,0,12
1,note_on,72,49,228
1,note_on,74,0,12
1,note_on,70,48,228
1,note_on,72,0,12
1,note_on,69,47,228
1,note_on,70,0,12
1,note_on,69,0,228
1,note_on,67,50,0
1,note_on,65,44,240
1,note_on,67,0,12
1,note_on,64,44,228
1,note_on,65,0,12
1,note_on,65,45,228
1,note_on,64,0,12
1,note_on,67,47,228
1,note_on,65,0,12
1,note_on,69,50,228
1,note_on,67,0,12
1,note_on,69,0,228
1,note_on,70,50,0
1,note_on,70,0,60
1,note_on,72,45,120
1,note_on,72,0,60
1,note_on,70,49,0
1,note_on,70,0,120
1,note_on,69,46,0
1,note_on,69,0,120
1,note_on,70,50,0
1,note_on,70,0,60
1,note_on,72,47,180
1,note_on,72,0,60
1,note_on,74,49,180
1,note_on,74,0,60
1,note_on,75,51,180
1,note_on,75,0,60
1,note_on,76,53,180
1,note_on,77,50,240
1,note_on,76,0,12
1,note_on,79,55,228
1,note_on,77,0,12
1,note_on,77,50,228
1,note_on,79,0,12
1,note_on,77,0,228
1,note_on,82,59,0
1,note_on,82,0,240
1,note_on,74,50,0
1,note_on,74,0,240
1,note_on,77,57,0
1,note_on,75,55,240
1,note_on,77,0,12
1,note_on,74,53,228
1,note_on,75,0,12
1,note_on,72,51,228
1,note_on,74,0,12
1,note_on,70,49,228
1,note_on,72,0,12
1,note_on,69,47,228
1,note_on,70,0,12
1,note_on,69,0,228
1,note_on,67,50,0
1,note_on,65,43,240
1,note_on,67,0,12
1,note_on,64,50,228
1,note_on,65,0,12
1,note_on,65,43,228
1,note_on,64,0,12
1,note_on,67,50,228
1,note_on,65,0,12
1,note_on,69,45,228
1,note_on,67,0,12
1,note_on,69,0,228
1,note_on,70,50,0
1,note_on,70,0,120
1,note_on,70,48,360
1,note_on,70,0,120
1,note_on,74,48,360
1,note_on,74,0,120
1,note_on,70,50,360
1,note_on,70,0,480
1,note_on,70,44,360
1,note_on,70,0,60
1,note_on,72,50,60
1,note_on,70,43,120
1,note_on,72,0,12
1,note_on,69,45,108
1,note_on,70,0,12
1,note_on,70,42,108
1,note_on,69,0,12
1,note_on,79,56,108
1,note_on,70,0,12
1,note_on,79,0,468
1,note_on,70,44,360
1,note_on,70,0,60
1,note_on,72,50,60
1,note_on,70,43,120
1,note_on,72,0,12
1,note_on,69,45,108
1,note_on,70,0,12
1,note_on,70,42,108
1,note_on,69,0,12
1,note_on,77,55,108
1,note_on,70,0,12
1,note_on,77,0,468
1,note_on,70,44,360
1,note_on,70,0,60
1,note_on,72,50,60
1,note_on,70,43,120
1,note_on,72,0,12
1,note_on,69,45,108
1,note_on,70,0,12
1,note_on,70,42,108
1,note_on,69,0,12
1,note_on,72,52,108
1,note_on,70,0,12
1,note_on,72,0,468
1,note_on,77,49,0
1,note_on,77,0,480
1,note_on,75,48,0
1,note_on,75,0,480
1,note_on,73,55,0
1,note_on,73,0,480
1,note_on,74,49,0
1,note_on,74,0,240
1,note_on,70,44,120
1,note_on,70,0,60
1,note_on,72,50,60
1,note_on,70,43,120
1,note_on,72,0,12
1,note_on,69,45,108
1,note_on,70,0,12
1,note_on,70,42,108
1,note_on,69,0,12
1,note_on,79,56,108
1,note_on,70,0,12
1,note_on,79,0,468
1,note_on,70,44,360
1,note_on,70,0,60
1,note_on,72,50,60
1,note_on,70,43,120
1,note_on,72,0,12
1,note_on,69,45,108
1,note_on,70,0,12
1,note_on,70,42,108
1,note_on,69,0,12
1,note_on,77,55,108
1,note_on,70,0,12
1,note_on,77,0,468
1,note_on,70,44,360
1,note_on,70,0,60
1,note_on,72,50,60
1,note_on,70,43,120
1,note_on,72,0,12
1,note_on,69,45,108
1,note_on,70,0,12
1,note_on,70,42,108
1,note_on,69,0,12
1,note_on,72,52,108
1,note_on,70,0,12
1,note_on,72,0,468
1,note_on,75,49,0
1,note_on,75,0,480
1,note_on,69,48,0
1,note_on,69,0,480
1,note_on,70,55,0
1,note_on,70,0,480
1,note_on,74,64,960
1,note_on,70,64,0
1,note_on,79,77,0
1,note_on,79,0,120
1,note_on,70,0,0
1,note_on,74,0,0
1,note_on,67,64,360
1,note_on,67,0,120
1,note_on,69,63,840
1,note_on,66,63,0
1,note_on,74,75,0
1,note_on,74,0,120
1,note_on,66,0,0
1,note_on,69,0,0
1,note_on,62,67,360
1,note_on,62,0,120
1,note_on,63,43,840
1,note_on,63,0,960
1,note_on,65,36,0
1,note_on,63,36,120
1,note_on,65,0,12
1,note_on,62,36,108
1,note_on,63,0,12
1,note_on,63,36,108
1,note_on,62,0,12
1,note_on,63,0,108
1,note_on,72,42,0
1,note_on,72,0,240
1,note_on,70,37,0
1,note_on,70,0,240
1,note_on,70,43,0
1,note_on,70,0,480
1,note_on,70,38,0
1,note_on,70,0,480
1,note_on,70,39,0
1,note_on,75,45,240
1,note_on,70,0,12
1,note_on,74,44,228
1,note_on,75,0,12
1,note_on,73,42,228
1,note_on,74,0,12
1,note_on,72,40,228
1,note_on,73,0,12
1,note_on,71,38,228
1,note_on,72,0,12
1,note_on,70,41,228
1,note_on,71,0,12
1,note_on,70,0,468
1,note_on,63,45,960
1,note_on,63,0,960
1,note_on,65,42,0
1,note_on,63,39,120
1,note_on,65,0,12
1,note_on,62,42,108
1,note_on,63,0,12
1,note_on,63,40,108
1,note_on,62,0,12
1,note_on,63,0,108
1,note_on,72,54,0
1,note_on,71,48,240
1,note_on,72,0,12
1,note_on,71,0,228
1,note_on,71,53,0
1,note_on,71,0,480
1,note_on,71,47,0
1,note_on,71,0,480
1,note_on,72,50,0
1,note_on,79,58,240
1,note_on,72,0,12
1,note_on,75,56,228
1,note_on,79,0,12
1,note_on,74,54,228
1,note_on,75,0,12
1,note_on,72,51,228
1,note_on,74,0,12
1,note_on,70,49,228
1,note_on,72,0,12
1,note_on,69,50,228
1,note_on,70,0,12
1,note_on,69,0,468
1,note_on,70,59,960
1,note_on,86,62,240
1,note_on,70,0,12
1,note_on,82,61,228
1,note_on,86,0,12
1,note_on,81,60,228
1,note_on,82,0,12
1,note_on,79,58,228
1,note_on,81,0,12
1,note_on,77,57,228
1,note_on,79,0,12
1,note_on,76,62,228
1,note_on,77,0,12
1,note_on,76,0,468
1,note_on,77,52,960
1,note_on,81,58,240
1,note_on,77,0,12
1,note_on,77,56,228
1,note_on,81,0,12
1,note_on,76,55,228
1,note_on,77,0,12
1,note_on,74,53,228
1,note_on,76,0,12
1,note_on,72,51,228
1,note_on,74,0,12
1,note_on,71,56,228
1,note_on,72,0,12
1,note_on,71,0,468
1,note_on,72,46,1080
1,note_on,72,0,120
1,note_on,71,49,0
1,note_on,71,0,120
1,note_on,72,44,0
1,note_on,72,0,120
1,note_on,74,49,0
1,note_on,74,0,120
1,note_on,72,44,0
1,note_on,72,0,120
1,note_on,71,49,0
1,note_on,71,0,120
1,note_on,72,44,0
1,note_on,72,0,120
1,note_on,72,49,120
1,note_on,72,0,120
1,note_on,76,54,0
1,note_on,76,0,120
1,note_on,72,49,0
1,note_on,72,0,120
1,note_on,72,53,120
1,note_on,72,0,120
1,note_on,77,57,0
1,note_on,77,0,120
1,note_on,72,52,0
1,note_on,72,0,120
1,note_on,72,55,120
1,note_on,72,0,120
1,note_on,82,61,0
1,note_on,82,0,120
1,note_on,72,57,0
1,note_on,72,0,120
1,note_on,72,57,120
1,note_on,72,0,120
1,note_on,81,64,0
1,note_on,81,0,120
1,note_on,72,57,0
1,note_on,72,0,120
1,note_on,79,65,0
1,note_on,79,0,120
1,note_on,76,60,0
1,note_on,76,0,120
1,note_on,74,65,0
1,note_on,74,0,120
1,note_on,72,60,0
1,note_on,72,0,120
1,note_on,71,57,0
1,note_on,71,0,120
1,note_on,72,59,0
1,note_on,72,0,120
1,note_on,74,60,0
1,note_on,74,0,120
1,note_on,72,56,0
1,note_on,72,0,120
1,note_on,72,49,120
1,note_on,72,0,120
1,note_on,76,53,0
1,note_on,76,0,120
1,note_on,72,49,0
1,note_on,72,0,120
1,note_on,72,52,120
1,note_on,72,0,120
1,note_on,77,58,0
1,note_on,77,0,120
1,note_on,72,54,0
1,note_on,72,0,120
1,note_on,72,55,120
1,note_on,72,0,120
1,note_on,82,61,0
1,note_on,82,0,120
1,note_on,72,55,0
1,note_on,72,0,120
1,note_on,72,49,120
1,note_on,72,0,120
1,note_on,81,68,0
1,note_on,81,0,120
1,note_on,72,62,0
1,note_on,72,0,120
1,note_on,79,73,0
1,note_on,79,0,120
1,note_on,84,62,0
1,note_on,84,0,120
1,note_on,79,69,0
1,note_on,79,0,120
1,note_on,76,57,0
1,note_on,76,0,120
1,note_on,72,67,0
1,note_on,72,0,120
1,note_on,79,55,0
1,note_on,79,0,120
1,note_on,76,61,0
1,note_on,76,0,120
1,note_on,72,54,0
1,note_on,72,0,120
1,note_on,67,63,0
1,note_on,67,0,120
1,note_on,72,55,0
1,note_on,72,0,120
1,note_on,67,65,0
1,note_on,67,0,120
1,note_on,64,59,0
1,note_on,64,0,120
1,note_on,60,85,0
1,note_on,60,0,120
1,note_on,67,62,360
1,note_on,64,62,0
1,note_on,72,73,0
1,note_on,72,0,480
1,note_on,64,0,0
1,note_on,67,0,0
1,note_on,84,45,3600
1,note_on,84,0,60
1,note_on,84,49,180
1,note_on,84,0,60
1,note_on,84,43,180
1,note_on,84,0,60
1,note_on,84,46,180
1,note_on,84,0,60
1,note_on,84,40,180
1,note_on,84,0,60
1,note_on,86,45,180
1,note_on,84,40,240
1,note_on,86,0,12
1,note_on,82,43,228
1,note_on,84,0,12
1,note_on,81,40,228
1,note_on,82,0,12
1,note_on,79,45,228
1,note_on,81,0,12
1,note_on,77,39,228
1,note_on,79,0,12
1,note_on,77,0,228
1,note_on,77,41,0
1,note_on,77,0,60
1,note_on,79,39,0
1,note_on,79,0,60
1,note_on,77,49,0
1,note_on,77,0,120
1,note_on,76,44,0
1,note_on,76,0,232
1,note_on,76,46,8
1,note_on,76,0,480
1,note_on,82,45,2160
1,note_on,82,0,60
1,note_on,82,48,180
1,note_on,82,0,60
1,note_on,82,42,180
1,note_on,82,0,60
1,note_on,82,44,180
1,note_on,82,0,60
1,note_on,82,40,180
1,note_on,82,0,60
1,note_on,84,45,180
1,note_on,82,40,240
1,note_on,84,0,12
1,note_on,81,40,228
1,note_on,82,0,12
1,note_on,79,40,228
1,note_on,81,0,12
1,note_on,77,45,228
1,note_on,79,0,12
1,note_on,76,39,228
1,note_on,77,0,12
1,note_on,76,0,228
1,note_on,77,47,0
1,note_on,77,0,480
1,note_on,81,47,240
1,note_on,79,45,240
1,note_on,81,0,12
1,note_on,77,40,228
1,note_on,79,0,12
1,note_on,76,47,228
1,note_on,77,0,12
1,note_on,76,0,468
1,note_on,86,52,240
1,note_on,84,47,240
1,note_on,86,0,12
1,note_on,76,42,228
1,note_on,84,0,12
1,note_on,77,47,228
1,note_on,76,0,12
1,note_on,77,0,468
1,note_on,81,47,240
1,note_on,79,45,240
1,note_on,81,0,12
1,note_on,77,40,228
1,note_on,79,0,12
1,note_on,76,47,228
1,note_on,77,0,12
1,note_on,76,0,468
1,note_on,86,52,240
1,note_on,84,47,240
1,note_on,86,0,12
1,note_on,76,42,228
1,note_on,84,0,12
1,note_on,77,47,228
1,note_on,76,0,12
1,note_on,77,0,468
1,note_on,84,55,240
1,note_on,81,53,240
1,note_on,84,0,12
1,note_on,79,50,228
1,note_on,81,0,12
1,note_on,78,56,228
1,note_on,79,0,12
1,note_on,78,0,468
1,note_on,87,58,240
1,note_on,86,52,240
1,note_on,87,0,12
1,note_on,78,48,228
1,note_on,86,0,12
1,note_on,81,56,228
1,note_on,78,0,12
1,note_on,79,51,228
1,note_on,81,0,12
1,note_on,84,55,228
1,note_on,79,0,12
1,note_on,83,51,228
1,note_on,84,0,12
1,note_on,82,50,228
1,note_on,83,0,12
1,note_on,81,49,228
1,note_on,82,0,12
1,note_on,79,54,228
1,note_on,81,0,12
1,note_on,79,0,348
1,note_on,81,48,0
1,note_on,81,0,120
1,note_on,77,54,0
1,note_on,77,0,480
1,note_on,76,50,0
1,note_on,76,0,80
1,note_on,77,44,0
1,note_on,77,0,80
1,note_on,76,50,0
1,note_on,76,0,80
1,note_on,77,44,0
1,note_on,77,0,60
1,note_on,76,50,0
1,note_on,76,0,60
1,note_on,74,42,0
1,note_on,74,0,60
1,note_on,76,45,0
1,note_on,76,0,60
1,note_on,77,49,0
1,note_on,77,0,120
1,note_on,72,46,0
1,note_on,72,0,120
1,note_on,71,49,0
1,note_on,71,0,120
1,note_on,72,44,0
1,note_on,72,0,120
1,note_on,74,49,0
1,note_on,74,0,120
1,note_on,72,44,0
1,note_on,72,0,120
1,note_on,71,49,0
1,note_on,71,0,120
1,note_on,72,44,0
1,note_on,72,0,120
1,note_on,70,49,0
1,note_on,70,0,120
1,note_on,72,49,0
1,note_on,72,0,120
1,note_on,69,54,0
1,note_on,69,0,120
1,note_on,72,49,0
1,note_on,72,0,120
1,note_on,67,49,0
1,note_on,67,0,120
1,note_on,72,46,0
1,note_on,72,0,120
1,note_on,71,49,0
1,note_on,71,0,120
1,note_on,72,44,0
1,note_on,72,0,120
1,note_on,74,49,0
1,note_on,74,0,120
1,note_on,72,44,0
1,note_on,72,0,120
1,note_on,71,49,0
1,note_on,71,0,120
1,note_on,72,44,0
1,note_on,72,0,120
1,note_on,82,49,0
1,note_on,82,0,120
1,note_on,72,49,0
1,note_on,72,0,120
1,note_on,82,54,0
1,note_on,82,0,120
1,note_on,72,49,0
1,note_on,72,0,120
1,note_on,81,49,0
1,note_on,81,0,120
1,note_on,72,46,0
1,note_on,72,0,120
1,note_on,71,49,0
1,note_on,71,0,120
1,note_on,72,44,0
1,note_on,72,0,120
1,note_on,74,49,0
1,note_on,74,0,120
1,note_on,72,44,0
1,note_on,72,0,120
1,note_on,71,49,0
1,note_on,71,0,120
1,note_on,72,44,0
1,note_on,72,0,120
1,note_on,70,49,0
1,note_on,70,0,120
1,note_on,72,49,0
1,note_on,72,0,120
1,note_on,69,54,0
1,note_on,69,0,120
1,note_on,72,49,0
1,note_on,72,0,120
1,note_on,67,49,0
1,note_on,67,0,120
1,note_on,72,46,0
1,note_on,72,0,120
1,note_on,71,49,0
1,note_on,71,0,120
1,note_on,72,44,0
1,note_on,72,0,120
1,note_on,74,49,0
1,note_on,74,0,120
1,note_on,72,44,0
1,note_on,72,0,120
1,note_on,71,49,0
1,note_on,71,0,120
1,note_on,72,44,0
1,note_on,72,0,120
1,note_on,82,49,0
1,note_on,82,0,120
1,note_on,72,49,0
1,note_on,72,0,120
1,note_on,82,54,0
1,note_on,82,0,120
1,note_on,72,49,0
1,note_on,72,0,120
1,note_on,81,49,0
1,note_on,81,0,120
1,note_on,72,46,0
1,note_on,72,0,120
1,note_on,71,49,0
1,note_on,71,0,120
1,note_on,72,44,0
1,note_on,72,0,120
1,note_on,74,49,0
1,note_on,74,0,120
1,note_on,72,44,0
1,note_on,72,0,120
1,note_on,71,49,0
1,note_on,71,0,120
1,note_on,72,44,0
1,note_on,72,0,120
1,note_on,75,49,0
1,note_on,75,0,120
1,note_on,72,49,0
1,note_on,72,0,120
1,note_on,70,54,0
1,note_on,70,0,120
1,note_on,72,49,0
1,note_on,72,0,120
1,note_on,69,49,0
1,note_on,69,0,120
1,note_on,74,46,0
1,note_on,74,0,120
1,note_on,73,49,0
1,note_on,73,0,120
1,note_on,74,44,0
1,note_on,74,0,120
1,note_on,76,49,0
1,note_on,76,0,120
1,note_on,74,44,0
1,note_on,74,0,120
1,note_on,73,52,0
1,note_on,73,0,120
1,note_on,74,44,0
1,note_on,74,0,120
1,note_on,84,55,0
1,note_on,84,0,120
1,note_on,74,49,0
1,note_on,74,0,120
1,note_on,84,57,0
1,note_on,84,0,120
1,note_on,74,49,0
1,note_on,74,0,120
1,note_on,83,62,0
1,note_on,83,0,480
1,note_on,82,60,0
1,note_on,82,0,480
1,note_on,81,57,0
1,note_on,81,0,480
1,note_on,79,60,0
1,note_on,79,0,120
1,note_on,86,52,0
1,note_on,86,0,120
1,note_on,82,52,0
1,note_on,82,0,120
1,note_on,79,52,0
1,note_on,79,0,120
1,note_on,77,62,0
1,note_on,77,0,120
1,note_on,84,52,0
1,note_on,84,0,120
1,note_on,81,52,0
1,note_on,81,0,120
1,note_on,77,52,0
1,note_on,77,0,120
1,note_on,76,62,0
1,note_on,76,0,120
1,note_on,82,52,0
1,note_on,82,0,120
1,note_on,79,52,0
1,note_on,79,0,120
1,note_on,76,52,0
1,note_on,76,0,120
1,note_on,77,54,0
1,note_on,81,57,120
1,note_on,77,0,12
1,note_on,84,61,108
1,note_on,81,0,12
1,note_on,82,60,108
1,note_on,84,0,12
1,note_on,81,58,108
1,note_on,82,0,12
1,note_on,79,56,108
1,note_on,81,0,12
1,note_on,77,54,108
1,note_on,79,0,12
1,note_on,76,52,108
1,note_on,77,0,12
1,note_on,74,55,108
1,note_on,76,0,12
1,note_on,72,51,108
1,note_on,74,0,12
1,note_on,70,50,108
1,note_on,72,0,12
1,note_on,69,50,108
1,note_on,70,0,12
1,note_on,69,0,108
1,note_on,67,50,0
1,note_on,70,53,120
1,note_on,67,0,12
1,note_on,74,56,108
1,note_on,70,0,12
1,note_on,72,55,108
1,note_on,74,0,12
1,note_on,70,54,108
1,note_on,72,0,12
1,note_on,69,53,108
1,note_on,70,0,12
1,note_on,67,52,108
1,note_on,69,0,12
1,note_on,65,50,108
1,note_on,67,0,12
1,note_on,64,49,108
1,note_on,65,0,12
1,note_on,62,50,108
1,note_on,64,0,12
1,note_on,60,53,108
1,note_on,62,0,12
1,note_on,59,56,108
1,note_on,60,0,12
1,note_on,60,59,108
1,note_on,59,0,12
1,note_on,60,0,108
1,note_on,72,59,120
1,note_on,72,0,120
1,note_on,77,61,120
1,note_on,77,0,120
1,note_on,81,62,120
1,note_on,81,0,120
1,note_on,84,64,120
1,note_on,84,0,120
1,note_on,89,65,120
1,note_on,89,0,120
1,note_on,79,37,120
1,note_on,79,0,60
1,note_on,81,31,0
1,note_on,81,0,60
1,note_on,79,37,0
1,note_on,79,0,60
1,note_on,81,31,0
1,note_on,81,0,60
1,note_on,79,37,0
1,note_on,79,0,60
1,note_on,81,32,0
1,note_on,81,0,60
1,note_on,79,37,0
1,note_on,79,0,60
1,note_on,81,33,0
1,note_on,81,0,60
1,note_on,79,37,0
1,note_on,79,0,60
1,note_on,81,32,0
1,note_on,81,0,60
1,note_on,79,37,0
1,note_on,79,0,60
1,note_on,81,32,0
1,note_on,81,0,60
1,note_on,79,37,0
1,note_on,79,0,60
1,note_on,81,31,0
1,note_on,81,0,60
1,note_on,79,37,0
1,note_on,79,0,60
1,note_on,81,33,0
1,note_on,81,0,60
1,note_on,79,37,0
1,note_on,79,0,60
1,note_on,81,32,0
1,note_on,81,0,60
1,note_on,79,37,0
1,note_on,79,0,80
1,note_on,81,32,0
1,note_on,81,0,80
1,note_on,79,37,0
1,note_on,79,0,80
1,note_on,77,33,0
1,note_on,77,0,60
1,note_on,79,33,0
1,note_on,79,0,60
1,note_on,77,49,0
1,note_on,77,0,480
1,note_on,82,46,960
1,note_on,82,0,480
1,note_on,84,50,0
1,note_on,84,0,480
1,note_on,86,51,0
1,note_on,86,0,480
1,note_on,84,51,0
1,note_on,84,0,720
1,note_on,86,48,0
1,note_on,84,43,120
1,note_on,86,0,12
1,note_on,82,50,108
1,note_on,84,0,12
1,note_on,81,48,108
1,note_on,82,0,12
1,note_on,79,47,108
1,note_on,81,0,12
1,note_on,77,45,108
1,note_on,79,0,12
1,note_on,77,0,108
1,note_on,81,48,0
1,note_on,81,0,720
1,note_on,82,40,0
1,note_on,82,0,240
1,note_on,79,44,0
1,note_on,79,0,480
1,note_on,77,46,0
1,note_on,77,0,480
1,note_on,70,52,960
1,note_on,70,0,240
1,note_on,82,47,0
1,note_on,82,0,240
1,note_on,72,54,0
1,note_on,72,0,240
1,note_on,84,47,0
1,note_on,84,0,240
1,note_on,74,58,0
1,note_on,74,0,240
1,note_on,86,52,0
1,note_on,86,0,240
1,note_on,84,61,0
1,note_on,84,0,240
1,note_on,86,54,0
1,note_on,88,58,120
1,note_on,86,0,12
1,note_on,89,61,108
1,note_on,88,0,12
1,note_on,88,61,108
1,note_on,89,0,12
1,note_on,86,60,108
1,note_on,88,0,12
1,note_on,84,58,108
1,note_on,86,0,12
1,note_on,82,57,108
1,note_on,84,0,12
1,note_on,81,55,108
1,note_on,82,0,12
1,note_on,79,54,108
1,note_on,81,0,12
1,note_on,77,52,108
1,note_on,79,0,12
1,note_on,77,0,108
1,note_on,81,62,0
1,note_on,81,0,720
1,note_on,82,56,0
1,note_on,82,0,240
1,note_on,79,62,0
1,note_on,79,0,480
1,note_on,77,67,0
1,note_on,77,0,480
1,note_on,84,60,120
1,note_on,84,0,120
1,note_on,86,65,0
1,note_on,84,60,120
1,note_on,86,0,12
1,note_on,82,64,108
1,note_on,84,0,12
1,note_on,81,62,108
1,note_on,82,0,12
1,note_on,82,60,108
1,note_on,81,0,12
1,note_on,79,58,108
1,note_on,82,0,12
1,note_on,77,68,108
1,note_on,79,0,12
1,note_on,77,0,468
1,note_on,72,60,120
1,note_on,74,65,120
1,note_on,72,0,12
1,note_on,72,60,108
1,note_on,74,0,12
1,note_on,70,64,108
1,note_on,72,0,12
1,note_on,69,62,108
1,note_on,70,0,12
1,note_on,70,60,108
1,note_on,69,0,12
1,note_on,67,58,108
1,note_on,70,0,12
1,note_on,65,71,108
1,note_on,67,0,12
1,note_on,65,0,108
1,note_on,69,59,360
1,note_on,72,59,0
1,note_on,77,77,0
1,note_on,77,0,480
1,note_on,72,0,0
1,note_on,69,0,0
1,note_on,66,71,480
1,note_on,66,0,480
1,note_on,68,59,0
1,note_on,72,59,0
1,note_on,78,77,0
1,note_on,78,0,480
1,note_on,72,0,0
1,note_on,68,0,0
1,note_on,61,43,480
1,note_on,61,0,960
1,note_on,63,36,0
1,note_on,61,36,120
1,note_on,63,0,12
1,note_on,60,36,108
1,note_on,61,0,12
1,note_on,61,36,108
1,note_on,60,0,12
1,note_on,61,0,108
1,note_on,70,42,0
1,note_on,70,0,240
1,note_on,68,37,0
1,note_on,68,0,234
1,note_on,68,43,6
1,note_on,68,0,480
1,note_on,68,38,0
1,note_on,68,0,480
1,note_on,68,39,0
1,note_on,73,45,240
1,note_on,68,0,12
1,note_on,72,44,228
1,note_on,73,0,12
1,note_on,71,41,228
1,note_on,72,0,12
1,note_on,70,40,228
1,note_on,71,0,12
1,note_on,69,38,228
1,note_on,70,0,12
1,note_on,68,41,228
1,note_on,69,0,12
1,note_on,68,0,468
1,note_on,61,45,960
1,note_on,61,0,960
1,note_on,63,42,0
1,note_on,61,39,120
1,note_on,63,0,12
1,note_on,60,42,108
1,note_on,61,0,12
1,note_on,61,40,108
1,note_on,60,0,12
1,note_on,61,0,108
1,note_on,70,54,0
1,note_on,70,0,240
1,note_on,69,48,0
1,note_on,69,0,240
1,note_on,69,53,0
1,note_on,69,0,480
1,note_on,69,47,0
1,note_on,69,0,480
1,note_on,70,50,0
1,note_on,77,54,240
1,note_on,70,0,12
1,note_on,73,55,228
1,note_on,77,0,12
1,note_on,72,53,228
1,note_on,73,0,12
1,note_on,70,51,228
1,note_on,72,0,12
1,note_on,68,50,228
1,note_on,70,0,12
1,note_on,67,50,228
1,note_on,68,0,12
1,note_on,67,0,468
1,note_on,68,59,960
1,note_on,80,62,240
1,note_on,68,0,12
1,note_on,77,61,228
1,note_on,80,0,12
1,note_on,75,60,228
1,note_on,77,0,12
1,note_on,74,58,228
1,note_on,75,0,12
1,note_on,72,57,228
1,note_on,74,0,12
1,note_on,71,62,228
1,note_on,72,0,12
1,note_on,71,0,468
1,note_on,72,61,960
1,note_on,87,64,240
1,note_on,72,0,12
1,note_on,84,61,228
1,note_on,87,0,12
1,note_on,82,60,228
1,note_on,84,0,12
1,note_on,80,55,228
1,note_on,82,0,12
1,note_on,79,56,228
1,note_on,80,0,12
1,note_on,78,60,228
1,note_on,79,0,12
1,note_on,78,0,468
1,note_on,79,58,960
1,note_on,82,60,240
1,note_on,79,0,12
1,note_on,79,58,228
1,note_on,82,0,12
1,note_on,77,55,228
1,note_on,79,0,12
1,note_on,75,53,228
1,note_on,77,0,12
1,note_on,74,50,228
1,note_on,75,0,12
1,note_on,73,57,228
1,note_on,74,0,12
1,note_on,73,0,468
1,note_on,74,46,1080
1,note_on,74,0,120
1,note_on,73,49,0
1,note_on,73,0,120
1,note_on,74,44,0
1,note_on,74,0,120
1,note_on,76,49,0
1,note_on,76,0,120
1,note_on,74,44,0
1,note_on,74,0,120
1,note_on,73,49,0
1,note_on,73,0,120
1,note_on,74,44,0
1,note_on,74,0,120
1,note_on,74,49,120
1,note_on,74,0,120
1,note_on,78,54,0
1,note_on,78,0,120
1,note_on,74,49,0
1,note_on,74,0,120
1,note_on,74,53,120
1,note_on,74,0,120
1,note_on,79,57,0
1,note_on,79,0,120
1,note_on,74,52,0
1,note_on,74,0,120
1,note_on,74,55,120
1,note_on,74,0,120
1,note_on,84,61,0
1,note_on,84,0,120
1,note_on,74,57,0
1,note_on,74,0,120
1,note_on,74,57,120
1,note_on,74,0,120
1,note_on,82,64,0
1,note_on,82,0,120
1,note_on,74,57,0
1,note_on,74,0,120
1,note_on,81,64,0
1,note_on,81,0,120
1,note_on,78,57,0
1,note_on,78,0,120
1,note_on,76,59,0
1,note_on,76,0,120
1,note_on,74,57,0
1,note_on,74,0,120
1,note_on,73,57,0
1,note_on,73,0,120
1,note_on,74,59,0
1,note_on,74,0,120
1,note_on,76,60,0
1,note_on,76,0,120
1,note_on,74,56,0
1,note_on,74,0,120
1,note_on,74,49,120
1,note_on,74,0,120
1,note_on,78,53,0
1,note_on,78,0,120
1,note_on,74,49,0
1,note_on,74,0,120
1,note_on,74,52,120
1,note_on,74,0,120
1,note_on,79,58,0
1,note_on,79,0,120
1,note_on,74,54,0
1,note_on,74,0,120
1,note_on,74,55,120
1,note_on,74,0,120
1,note_on,84,61,0
1,note_on,84,0,120
1,note_on,74,55,0
1,note_on,74,0,120
1,note_on,74,49,120
1,note_on,74,0,120
1,note_on,82,68,0
1,note_on,82,0,120
1,note_on,74,62,0
1,note_on,74,0,120
1,note_on,81,70,0
1,note_on,81,0,120
1,note_on,86,60,0
1,note_on,86,0,120
1,note_on,81,69,0
1,note_on,81,0,120
1,note_on,78,57,0
1,note_on,78,0,120
1,note_on,74,67,0
1,note_on,74,0,120
1,note_on,81,55,0
1,note_on,81,0,120
1,note_on,78,61,0
1,note_on,78,0,120
1,note_on,74,54,0
1,note_on,74,0,120
1,note_on,69,63,0
1,note_on,69,0,120
1,note_on,74,55,0
1,note_on,74,0,120
1,note_on,69,65,0
1,note_on,69,0,120
1,note_on,66,59,0
1,note_on,66,0,120
1,note_on,62,85,0
1,note_on,62,0,120
1,note_on,69,62,360
1,note_on,66,62,0
1,note_on,74,73,0
1,note_on,74,0,480
1,note_on,66,0,0
1,note_on,69,0,0
1,note_on,86,45,3600
1,note_on,86,0,60
1,note_on,86,49,180
1,note_on,86,0,60
1,note_on,86,43,180
1,note_on,86,0,60
1,note_on,86,46,180
1,note_on,86,0,60
1,note_on,86,40,180
1,note_on,86,0,60
1,note_on,87,45,180
1,note_on,86,40,240
1,note_on,87,0,12
1,note_on,84,43,228
1,note_on,86,0,12
1,note_on,83,40,228
1,note_on,84,0,12
1,note_on,80,45,228
1,note_on,83,0,12
1,note_on,79,39,228
1,note_on,80,0,12
1,note_on,79,0,228
1,note_on,79,41,0
1,note_on,79,0,60
1,note_on,80,39,0
1,note_on,80,0,60
1,note_on,79,49,0
1,note_on,79,0,120
1,note_on,77,44,0
1,note_on,77,0,230
1,note_on,77,46,10
1,note_on,77,0,480
1,note_on,77,45,2160
1,note_on,77,0,60
1,note_on,77,48,180
1,note_on,77,0,60
1,note_on,77,42,180
1,note_on,77,0,60
1,note_on,77,44,180
1,note_on,77,0,60
1,note_on,77,40,180
1,note_on,77,0,60
1,note_on,79,45,180
1,note_on,77,40,240
1,note_on,79,0,12
1,note_on,75,40,228
1,note_on,77,0,12
1,note_on,74,40,228
1,note_on,75,0,12
1,note_on,72,45,228
1,note_on,74,0,12
1,note_on,71,39,228
1,note_on,72,0,12
1,note_on,71,0,228
1,note_on,72,48,0
1,note_on,67,42,960
1,note_on,72,0,20
1,note_on,67,0,460
1,note_on,63,48,0
1,note_on,67,45,960
1,note_on,63,0,20
1,note_on,67,0,460
1,note_on,72,50,0
1,note_on,75,52,960
1,note_on,72,0,20
1,note_on,75,0,460
1,note_on,79,56,0
1,note_on,79,0,480
1,note_on,76,58,960
1,note_on,72,52,960
1,note_on,76,0,20
1,note_on,72,0,460
1,note_on,67,55,0
1,note_on,72,49,960
1,note_on,67,0,20
1,note_on,72,0,460
1,note_on,76,53,0
1,note_on,79,54,960
1,note_on,76,0,20
1,note_on,79,0,460
1,note_on,82,58,0
1,note_on,82,0,480
1,note_on,80,45,1200
1,note_on,80,0,60
1,note_on,80,49,180
1,note_on,80,0,60
1,note_on,80,43,180
1,note_on,80,0,60
1,note_on,80,46,180
1,note_on,80,0,60
1,note_on,80,40,180
1,note_on,80,0,60
1,note_on,82,45,180
1,note_on,80,40,240
1,note_on,82,0,12
1,note_on,79,43,228
1,note_on,80,0,12
1,note_on,77,40,228
1,note_on,79,0,12
1,note_on,75,45,228
1,note_on,77,0,12
1,note_on,74,39,228
1,note_on,75,0,12
1,note_on,74,0,228
1,note_on,79,45,240
1,note_on,79,0,60
1,note_on,79,49,180
1,note_on,79,0,60
1,note_on,79,43,180
1,note_on,79,0,60
1,note_on,79,46,180
1,note_on,79,0,60
1,note_on,79,40,180
1,note_on,79,0,60
1,note_on,80,45,180
1,note_on,79,40,240
1,note_on,80,0,12
1,note_on,77,43,228
1,note_on,79,0,12
1,note_on,75,40,228
1,note_on,77,0,12
1,note_on,74,45,228
1,note_on,75,0,12
1,note_on,72,39,228
1,note_on,74,0,12
1,note_on,72,0,228
1,note_on,77,45,240
1,note_on,77,0,60
1,note_on,77,49,180
1,note_on,77,0,60
1,note_on,77,43,180
1,note_on,77,0,60
1,note_on,77,46,180
1,note_on,77,0,60
1,note_on,77,40,180
1,note_on,77,0,60
1,note_on,79,51,180
1,note_on,77,50,240
1,note_on,79,0,12
1,note_on,75,49,228
1,note_on,77,0,12
1,note_on,74,48,228
1,note_on,75,0,12
1,note_on,72,47,228
1,note_on,74,0,12
1,note_on,71,47,228
1,note_on,72,0,12
1,note_on,71,0,228
1,note_on,77,56,0
1,note_on,75,54,240
1,note_on,77,0,12
1,note_on,74,52,228
1,note_on,75,0,12
1,note_on,72,51,228
1,note_on,74,0,12
1,note_on,70,49,228
1,note_on,72,0,12
1,note_on,69,47,228
1,note_on,70,0,12
1,note_on,69,0,228
1,note_on,84,60,0
1,note_on,82,58,240
1,note_on,84,0,12
1,note_on,81,56,228
1,note_on,82,0,12
1,note_on,79,54,228
1,note_on,81,0,12
1,note_on,77,54,228
1,note_on,79,0,12
1,note_on,76,57,228
1,note_on,77,0,12
1,note_on,76,0,228
1,note_on,77,61,0
1,note_on,77,0,480
1,note_on,69,45,480
1,note_on,75,55,0
1,note_on,75,0,480
1,note_on,69,0,0
1,note_on,70,45,0
1,note_on,73,60,0
1,note_on,73,0,480
1,note_on,70,0,0
1,note_on,73,45,480
1,note_on,82,55,0
1,note_on,82,0,480
1,note_on,73,0,0
1,note_on,72,45,0
1,note_on,81,61,0
1,note_on,81,0,480
1,note_on,72,0,0
1,note_on,63,45,480
1,note_on,69,55,0
1,note_on,69,0,480
1,note_on,63,0,0
1,note_on,61,45,0
1,note_on,70,60,0
1,note_on,70,0,480
1,note_on,61,0,0
1,note_on,58,45,480
1,note_on,61,55,0
1,note_on,61,0,480
1,note_on,58,0,0
1,note_on,57,45,0
1,note_on,60,60,0
1,note_on,60,0,240
1,note_on,57,0,0
1,note_on,65,45,0
1,note_on,65,0,60
1,note_on,65,49,180
1,note_on,65,0,60
1,note_on,65,43,180
1,note_on,65,0,60
1,note_on,65,46,180
1,note_on,65,0,60
1,note_on,65,40,180
1,note_on,65,0,60
1,note_on,64,44,180
1,note_on,64,0,240
1,note_on,65,40,0
1,note_on,65,0,240
1,note_on,67,45,0
1,note_on,67,0,240
1,note_on,65,40,0
1,note_on,65,0,240
1,note_on,70,43,0
1,note_on,70,0,240
1,note_on,69,40,0
1,note_on,69,0,240
1,note_on,74,44,0
1,note_on,74,0,240
1,note_on,72,40,0
1,note_on,72,0,240
1,note_on,75,45,0
1,note_on,75,0,240
1,note_on,74,40,0
1,note_on,74,0,240
1,note_on,79,45,0
1,note_on,79,0,240
1,note_on,77,40,0
1,note_on,77,0,180
1,note_on,77,45,60
1,note_on,77,0,720
1,note_on,76,40,0
1,note_on,76,0,240
1,note_on,75,43,0
1,note_on,75,0,240
1,note_on,72,40,0
1,note_on,72,0,240
1,note_on,70,48,0
1,note_on,70,0,960
1,note_on,65,41,0
1,note_on,65,0,480
1,note_on,62,48,0
1,note_on,62,0,960
1,note_on,65,44,0
1,note_on,65,0,480
1,note_on,70,48,0
1,note_on,70,0,960
1,note_on,74,51,0
1,note_on,74,0,480
1,note_on,77,56,0
1,note_on,77,0,960
1,note_on,82,58,0
1,note_on,82,0,240
1,note_on,74,51,0
1,note_on,74,0,240
1,note_on,77,56,0
1,note_on,75,52,240
1,note_on,77,0,12
1,note_on,74,51,228
1,note_on,75,0,12
1,note_on,72,49,228
1,note_on,74,0,12
1,note_on,70,48,228
1,note_on,72,0,12
1,note_on,69,47,228
1,note_on,70,0,12
1,note_on,69,0,228
1,note_on,67,50,0
1,note_on,65,44,240
1,note_on,67,0,12
1,note_on,64,44,228
1,note_on,65,0,12
1,note_on,65,45,228
1,note_on,64,0,12
1,note_on,67,47,228
1,note_on,65,0,12
1,note_on,69,50,228
1,note_on,67,0,12
1,note_on,69,0,228
1,note_on,70,50,0
1,note_on,70,0,60
1,note_on,72,45,120
1,note_on,72,0,60
1,note_on,70,49,0
1,note_on,70,0,120
1,note_on,69,46,0
1,note_on,69,0,120
1,note_on,70,50,0
1,note_on,70,0,60
1,note_on,72,47,180
1,note_on,72,0,60
1,note_on,74,49,180
1,note_on,74,0,60
1,note_on,75,51,180
1,note_on,75,0,60
1,note_on,76,53,180
1,note_on,77,50,240
1,note_on,76,0,12
1,note_on,79,55,228
1,note_on,77,0,12
1,note_on,77,50,228
1,note_on,79,0,12
1,note_on,77,0,228
1,note_on,82,59,0
1,note_on,82,0,240
1,note_on,74,50,0
1,note_on,74,0,240
1,note_on,77,57,0
1,note_on,75,55,240
1,note_on,77,0,12
1,note_on,74,53,228
1,note_on,75,0,12
1,note_on,72,51,228
1,note_on,74,0,12
1,note_on,70,49,228
1,note_on,72,0,12
1,note_on,69,47,228
1,note_on,70,0,12
1,note_on,69,0,228
1,note_on,67,50,0
1,note_on,65,43,240
1,note_on,67,0,12
1,note_on,64,50,228
1,note_on,65,0,12
1,note_on,65,43,228
1,note_on,64,0,12
1,note_on,67,50,228
1,note_on,65,0,12
1,note_on,69,45,228
1,note_on,67,0,12
1,note_on,69,0,228
1,note_on,70,50,0
1,note_on,70,0,120
1,note_on,70,48,360
1,note_on,70,0,120
1,note_on,74,48,360
1,note_on,74,0,120
1,note_on,70,50,360
1,note_on,70,0,480
1,note_on,70,44,360
1,note_on,70,0,60
1,note_on,72,50,60
1,note_on,70,43,120
1,note_on,72,0,12
1,note_on,69,45,108
1,note_on,70,0,12
1,note_on,70,42,108
1,note_on,69,0,12
1,note_on,79,56,108
1,note_on,70,0,12
1,note_on,79,0,468
1,note_on,70,44,360
1,note_on,70,0,60
1,note_on,72,50,60
1,note_on,70,43,120
1,note_on,72,0,12
1,note_on,69,45,108
1,note_on,70,0,12
1,note_on,70,42,108
1,note_on,69,0,12
1,note_on,77,55,108
1,note_on,70,0,12
1,note_on,77,0,468
1,note_on,70,44,360
1,note_on,70,0,60
1,note_on,72,50,60
1,note_on,70,43,120
1,note_on,72,0,12
1,note_on,69,45,108
1,note_on,70,0,12
1,note_on,70,42,108
1,note_on,69,0,12
1,note_on,72,52,108
1,note_on,70,0,12
1,note_on,72,0,468
1,note_on,77,49,0
1,note_on,77,0,480
1,note_on,75,48,0
1,note_on,75,0,480
1,note_on,73,55,0
1,note_on,73,0,480
1,note_on,74,49,0
1,note_on,74,0,240
1,note_on,70,44,120
1,note_on,70,0,60
1,note_on,72,50,60
1,note_on,70,43,120
1,note_on,72,0,12
1,note_on,69,45,108
1,note_on,70,0,12
1,note_on,70,42,108
1,note_on,69,0,12
1,note_on,79,56,108
1,note_on,70,0,12
1,note_on,79,0,468
1,note_on,70,44,360
1,note_on,70,0,60
1,note_on,72,50,60
1,note_on,70,43,120
1,note_on,72,0,12
1,note_on,69,45,108
1,note_on,70,0,12
1,note_on,70,42,108
1,note_on,69,0,12
1,note_on,77,55,108
1,note_on,70,0,12
1,note_on,77,0,468
1,note_on,70,44,360
1,note_on,70,0,60
1,note_on,72,50,60
1,note_on,70,43,120
1,note_on,72,0,12
1,note_on,69,45,108
1,note_on,70,0,12
1,note_on,70,42,108
1,note_on,69,0,12
1,note_on,72,52,108
1,note_on,70,0,12
1,note_on,72,0,468
1,note_on,75,49,0
1,note_on,75,0,480
1,note_on,69,48,0
1,note_on,69,0,480
1,note_on,70,55,0
1,note_on,70,0,480
1,note_on,74,64,960
1,note_on,70,64,0
1,note_on,79,77,0
1,note_on,79,0,120
1,note_on,70,0,0
1,note_on,74,0,0
1,note_on,67,64,360
1,note_on,67,0,120
1,note_on,69,63,840
1,note_on,66,63,0
1,note_on,74,75,0
1,note_on,74,0,120
1,note_on,66,0,0
1,note_on,69,0,0
1,note_on,62,67,360
1,note_on,62,0,120
1,note_on,63,43,840
1,note_on,63,0,960
1,note_on,65,36,0
1,note_on,63,36,120
1,note_on,65,0,12
1,note_on,62,36,108
1,note_on,63,0,12
1,note_on,63,36,108
1,note_on,62,0,12
1,note_on,63,0,108
1,note_on,72,42,0
1,note_on,72,0,240
1,note_on,70,37,0
1,note_on,70,0,240
1,note_on,70,43,0
1,note_on,70,0,480
1,note_on,70,38,0
1,note_on,70,0,480
1,note_on,70,39,0
1,note_on,75,45,240
1,note_on,70,0,12
1,note_on,74,44,228
1,note_on,75,0,12
1,note_on,73,42,228
1,note_on,74,0,12
1,note_on,72,40,228
1,note_on,73,0,12
1,note_on,71,38,228
1,note_on,72,0,12
1,note_on,70,41,228
1,note_on,71,0,12
1,note_on,70,0,468
1,note_on,63,45,960
1,note_on,63,0,960
1,note_on,65,42,0
1,note_on,63,39,120
1,note_on,65,0,12
1,note_on,62,42,108
1,note_on,63,0,12
1,note_on,63,40,108
1,note_on,62,0,12
1,note_on,63,0,108
1,note_on,72,54,0
1,note_on,72,0,240
1,note_on,71,48,0
1,note_on,71,0,240
1,note_on,71,53,0
1,note_on,71,0,480
1,note_on,71,47,0
1,note_on,71,0,480
1,note_on,72,50,0
1,note_on,79,58,240
1,note_on,72,0,12
1,note_on,75,56,228
1,note_on,79,0,12
1,note_on,74,54,228
1,note_on,75,0,12
1,note_on,72,51,228
1,note_on,74,0,12
1,note_on,70,49,228
1,note_on,72,0,12
1,note_on,69,50,228
1,note_on,70,0,12
1,note_on,69,0,468
1,note_on,70,59,960
1,note_on,86,62,240
1,note_on,70,0,12
1,note_on,82,61,228
1,note_on,86,0,12
1,note_on,81,60,228
1,note_on,82,0,12
1,note_on,79,58,228
1,note_on,81,0,12
1,note_on,77,57,228
1,note_on,79,0,12
1,note_on,76,62,228
1,note_on,77,0,12
1,note_on,76,0,468
1,note_on,77,46,1080
1,note_on,77,0,120
1,note_on,76,49,0
1,note_on,76,0,120
1,note_on,77,44,0
1,note_on,77,0,120
1,note_on,79,49,0
1,note_on,79,0,120
1,note_on,77,44,0
1,note_on,77,0,120
1,note_on,76,49,0
1,note_on,76,0,120
1,note_on,77,44,0
1,note_on,77,0,120
1,note_on,77,49,120
1,note_on,77,0,120
1,note_on,81,54,0
1,note_on,81,0,120
1,note_on,77,49,0
1,note_on,77,0,120
1,note_on,77,53,120
1,note_on,77,0,120
1,note_on,82,57,0
1,note_on,82,0,120
1,note_on,77,52,0
1,note_on,77,0,120
1,note_on,77,55,120
1,note_on,77,0,120
1,note_on,87,61,0
1,note_on,87,0,120
1,note_on,77,57,0
1,note_on,77,0,120
1,note_on,77,57,120
1,note_on,77,0,120
1,note_on,86,64,0
1,note_on,86,0,120
1,note_on,77,57,0
1,note_on,77,0,120
1,note_on,84,65,0
1,note_on,84,0,120
1,note_on,81,60,0
1,note_on,81,0,120
1,note_on,79,65,0
1,note_on,79,0,120
1,note_on,77,60,0
1,note_on,77,0,120
1,note_on,76,57,0
1,note_on,76,0,120
1,note_on,77,59,0
1,note_on,77,0,120
1,note_on,79,60,0
1,note_on,79,0,120
1,note_on,77,56,0
1,note_on,77,0,120
1,note_on,77,49,120
1,note_on,77,0,120
1,note_on,81,53,0
1,note_on,81,0,120
1,note_on,77,49,0
1,note_on,77,0,120
1,note_on,77,52,120
1,note_on,77,0,120
1,note_on,82,58,0
1,note_on,82,0,120
1,note_on,77,54,0
1,note_on,77,0,120
1,note_on,77,55,120
1,note_on,77,0,120
1,note_on,87,61,0
1,note_on,87,0,120
1,note_on,77,55,0
1,note_on,77,0,120
1,note_on,77,49,120
1,note_on,77,0,120
1,note_on,86,68,0
1,note_on,86,0,120
1,note_on,77,62,0
1,note_on,77,0,120
1,note_on,84,73,0
1,note_on,84,0,120
1,note_on,89,62,0
1,note_on,89,0,120
1,note_on,84,69,0
1,note_on,84,0,120
1,note_on,81,57,0
1,note_on,81,0,120
1,note_on,77,67,0
1,note_on,77,0,120
1,note_on,84,55,0
1,note_on,84,0,120
1,note_on,81,61,0
1,note_on,81,0,120
1,note_on,77,54,0
1,note_on,77,0,120
1,note_on,72,63,0
1,note_on,72,0,120
1,note_on,77,55,0
1,note_on,77,0,120
1,note_on,72,65,0
1,note_on,72,0,120
1,note_on,69,59,0
1,note_on,69,0,120
1,note_on,65,85,0
1,note_on,65,0,120
1,note_on,72,62,360
1,note_on,69,62,0
1,note_on,77,73,0
1,note_on,77,0,480
1,note_on,69,0,0
1,note_on,72,0,0
1,note_on,77,45,3600
1,note_on,77,0,60
1,note_on,77,49,180
1,note_on,77,0,60
1,note_on,77,43,180
1,note_on,77,0,60
1,note_on,77,46,180
1,note_on,77,0,60
1,note_on,77,40,180
1,note_on,77,0,60
1,note_on,79,45,180
1,note_on,77,40,240
1,note_on,79,0,12
1,note_on,75,43,228
1,note_on,77,0,12
1,note_on,74,40,228
1,note_on,75,0,12
1,note_on,72,45,228
1,note_on,74,0,12
1,note_on,70,39,228
1,note_on,72,0,12
1,note_on,70,0,168
1,note_on,70,41,60
1,note_on,70,0,60
1,note_on,72,39,0
1,note_on,72,0,60
1,note_on,70,49,0
1,note_on,70,0,120
1,note_on,69,44,0
1,note_on,69,0,240
1,note_on,69,46,0
1,note_on,69,0,480
1,note_on,75,45,2160
1,note_on,75,0,60
1,note_on,75,48,180
1,note_on,75,0,60
1,note_on,75,42,180
1,note_on,75,0,60
1,note_on,75,44,180
1,note_on,75,0,60
1,note_on,75,40,180
1,note_on,75,0,60
1,note_on,77,45,180
1,note_on,75,40,240
1,note_on,77,0,12
1,note_on,74,40,228
1,note_on,75,0,12
1,note_on,72,40,228
1,note_on,74,0,12
1,note_on,70,45,228
1,note_on,72,0,12
1,note_on,69,39,228
1,note_on,70,0,12
1,note_on,69,0,228
1,note_on,70,47,0
1,note_on,70,0,480
1,note_on,74,47,240
1,note_on,72,45,240
1,note_on,74,0,12
1,note_on,70,40,228
1,note_on,72,0,12
1,note_on,69,47,228
1,note_on,70,0,12
1,note_on,69,0,468
1,note_on,79,52,240
1,note_on,77,47,240
1,note_on,79,0,12
1,note_on,69,42,228
1,note_on,77,0,12
1,note_on,70,47,228
1,note_on,69,0,12
1,note_on,70,0,468
1,note_on,74,47,240
1,note_on,72,45,240
1,note_on,74,0,12
1,note_on,70,40,228
1,note_on,72,0,12
1,note_on,69,47,228
1,note_on,70,0,12
1,note_on,69,0,468
1,note_on,78,52,240
1,note_on,77,47,240
1,note_on,78,0,12
1,note_on,69,42,228
1,note_on,77,0,12
1,note_on,70,47,228
1,note_on,69,0,12
1,note_on,70,0,468
1,note_on,77,55,240
1,note_on,73,53,240
1,note_on,77,0,12
1,note_on,72,50,228
1,note_on,73,0,12
1,note_on,71,56,228
1,note_on,72,0,12
1,note_on,71,0,468
1,note_on,80,58,240
1,note_on,79,52,240
1,note_on,80,0,12
1,note_on,71,48,228
1,note_on,79,0,12
1,note_on,71,0,228
1,note_on,74,56,0
1,note_on,72,51,240
1,note_on,74,0,12
1,note_on,77,55,228
1,note_on,72,0,12
1,note_on,76,51,228
1,note_on,77,0,12
1,note_on,75,50,228
1,note_on,76,0,12
1,note_on,74,49,228
1,note_on,75,0,12
1,note_on,74,0,228
1,note_on,72,54,0
1,note_on,72,0,360
1,note_on,74,48,0
1,note_on,74,0,120
1,note_on,70,54,0
1,note_on,70,0,480
1,note_on,69,50,0
1,note_on,69,0,80
1,note_on,70,44,0
1,note_on,70,0,80
1,note_on,69,50,0
1,note_on,69,0,80
1,note_on,70,44,0
1,note_on,70,0,60
1,note_on,69,50,0
1,note_on,69,0,60
1,note_on,67,42,0
1,note_on,67,0,60
1,note_on,69,45,0
1,note_on,69,0,60
1,note_on,70,49,0
1,note_on,70,0,120
1,note_on,65,46,0
1,note_on,65,0,120
1,note_on,64,49,0
1,note_on,64,0,120
1,note_on,65,44,0
1,note_on,65,0,120
1,note_on,67,49,0
1,note_on,67,0,120
1,note_on,65,44,0
1,note_on,65,0,120
1,note_on,64,49,0
1,note_on,64,0,120
1,note_on,65,44,0
1,note_on,65,0,120
1,note_on,63,49,0
1,note_on,63,0,120
1,note_on,65,49,0
1,note_on,65,0,120
1,note_on,62,54,0
1,note_on,62,0,120
1,note_on,65,49,0
1,note_on,65,0,120
1,note_on,60,49,0
1,note_on,60,0,120
1,note_on,65,46,0
1,note_on,65,0,120
1,note_on,64,49,0
1,note_on,64,0,120
1,note_on,65,44,0
1,note_on,65,0,120
1,note_on,67,49,0
1,note_on,67,0,120
1,note_on,65,44,0
1,note_on,65,0,120
1,note_on,64,49,0
1,note_on,64,0,120
1,note_on,65,44,0
1,note_on,65,0,120
1,note_on,75,49,0
1,note_on,75,0,120
1,note_on,65,49,0
1,note_on,65,0,120
1,note_on,75,54,0
1,note_on,75,0,120
1,note_on,65,49,0
1,note_on,65,0,120
1,note_on,74,49,0
1,note_on,74,0,120
1,note_on,77,46,0
1,note_on,77,0,120
1,note_on,76,49,0
1,note_on,76,0,120
1,note_on,77,44,0
1,note_on,77,0,120
1,note_on,79,49,0
1,note_on,79,0,120
1,note_on,77,44,0
1,note_on,77,0,120
1,note_on,76,49,0
1,note_on,76,0,120
1,note_on,77,44,0
1,note_on,77,0,120
1,note_on,75,49,0
1,note_on,75,0,120
1,note_on,77,49,0
1,note_on,77,0,120
1,note_on,74,54,0
1,note_on,74,0,120
1,note_on,77,49,0
1,note_on,77,0,120
1,note_on,72,49,0
1,note_on,72,0,120
1,note_on,77,46,0
1,note_on,77,0,120
1,note_on,76,49,0
1,note_on,76,0,120
1,note_on,77,44,0
1,note_on,77,0,120
1,note_on,79,49,0
1,note_on,79,0,120
1,note_on,77,44,0
1,note_on,77,0,120
1,note_on,76,49,0
1,note_on,76,0,120
1,note_on,77,44,0
1,note_on,77,0,120
1,note_on,87,49,0
1,note_on,87,0,120
1,note_on,77,49,0
1,note_on,77,0,120
1,note_on,87,54,0
1,note_on,87,0,120
1,note_on,77,49,0
1,note_on,77,0,120
1,note_on,86,49,0
1,note_on,86,0,120
1,note_on,77,46,0
1,note_on,77,0,120
1,note_on,76,49,0
1,note_on,76,0,120
1,note_on,77,44,0
1,note_on,77,0,120
1,note_on,79,49,0
1,note_on,79,0,120
1,note_on,77,44,0
1,note_on,77,0,120
1,note_on,76,49,0
1,note_on,76,0,120
1,note_on,77,44,0
1,note_on,77,0,120
1,note_on,80,49,0
1,note_on,80,0,120
1,note_on,77,49,0
1,note_on,77,0,120
1,note_on,75,54,0
1,note_on,75,0,120
1,note_on,77,49,0
1,note_on,77,0,120
1,note_on,74,49,0
1,note_on,74,0,120
1,note_on,79,46,0
1,note_on,79,0,120
1,note_on,78,49,0
1,note_on,78,0,120
1,note_on,79,44,0
1,note_on,79,0,120
1,note_on,81,49,0
1,note_on,81,0,120
1,note_on,79,44,0
1,note_on,79,0,120
1,note_on,78,52,0
1,note_on,78,0,120
1,note_on,79,44,0
1,note_on,79,0,120
1,note_on,89,55,0
1,note_on,89,0,120
1,note_on,79,49,0
1,note_on,79,0,120
1,note_on,89,57,0
1,note_on,89,0,120
1,note_on,79,49,0
1,note_on,79,0,120
1,note_on,88,62,0
1,note_on,88,0,480
1,note_on,87,60,0
1,note_on,87,0,480
1,note_on,86,57,0
1,note_on,86,0,480
1,note_on,86,60,0
1,note_on,84,52,120
1,note_on,86,0,12
1,note_on,87,52,108
1,note_on,84,0,12
1,note_on,84,52,108
1,note_on,87,0,12
1,note_on,84,0,78
1,note_on,84,62,30
1,note_on,82,52,120
1,note_on,84,0,12
1,note_on,86,52,108
1,note_on,82,0,12
1,note_on,82,52,108
1,note_on,86,0,12
1,note_on,82,0,78
1,note_on,82,62,30
1,note_on,81,52,120
1,note_on,82,0,12
1,note_on,84,52,108
1,note_on,81,0,12
1,note_on,81,52,108
1,note_on,84,0,12
1,note_on,81,0,108
1,note_on,82,54,0
1,note_on,82,0,120
1,note_on,86,57,0
1,note_on,86,0,120
1,note_on,89,58,0
1,note_on,89,0,120
1,note_on,87,60,0
1,note_on,87,0,120
1,note_on,86,58,0
1,note_on,86,0,120
1,note_on,84,56,0
1,note_on,84,0,120
1,note_on,82,54,0
1,note_on,82,0,120
1,note_on,81,52,0
1,note_on,81,0,120
1,note_on,79,55,0
1,note_on,79,0,120
1,note_on,77,51,0
1,note_on,77,0,120
1,note_on,75,50,0
1,note_on,75,0,120
1,note_on,74,50,0
1,note_on,74,0,120
1,note_on,72,50,0
1,note_on,72,0,120
1,note_on,75,53,0
1,note_on,75,0,120
1,note_on,79,56,0
1,note_on,79,0,120
1,note_on,77,55,0
1,note_on,77,0,120
1,note_on,75,54,0
1,note_on,75,0,120
1,note_on,74,53,0
1,note_on,74,0,120
1,note_on,72,52,0
1,note_on,72,0,120
1,note_on,70,50,0
1,note_on,70,0,120
1,note_on,69,49,0
1,note_on,69,0,120
1,note_on,67,50,0
1,note_on,67,0,120
1,note_on,65,53,0
1,note_on,65,0,120
1,note_on,64,56,0
1,note_on,64,0,120
1,note_on,65,59,0
1,note_on,65,0,120
1,note_on,70,59,120
1,note_on,70,0,120
1,note_on,74,61,120
1,note_on,74,0,120
1,note_on,77,62,120
1,note_on,77,0,120
1,note_on,82,64,120
1,note_on,82,0,120
1,note_on,86,65,120
1,note_on,86,0,120
1,note_on,72,37,120
1,note_on,72,0,60
1,note_on,74,31,0
1,note_on,74,0,60
1,note_on,72,37,0
1,note_on,72,0,60
1,note_on,74,31,0
1,note_on,74,0,60
1,note_on,72,37,0
1,note_on,72,0,60
1,note_on,74,32,0
1,note_on,74,0,60
1,note_on,72,37,0
1,note_on,72,0,60
1,note_on,74,33,0
1,note_on,74,0,60
1,note_on,72,37,0
1,note_on,72,0,60
1,note_on,74,32,0
1,note_on,74,0,60
1,note_on,72,37,0
1,note_on,72,0,60
1,note_on,74,32,0
1,note_on,74,0,60
1,note_on,72,37,0
1,note_on,72,0,60
1,note_on,74,31,0
1,note_on,74,0,60
1,note_on,72,37,0
1,note_on,72,0,60
1,note_on,74,33,0
1,note_on,74,0,60
1,note_on,72,37,0
1,note_on,72,0,60
1,note_on,74,32,0
1,note_on,74,0,60
1,note_on,72,37,0
1,note_on,72,0,80
1,note_on,74,32,0
1,note_on,74,0,80
1,note_on,72,37,0
1,note_on,72,0,80
1,note_on,70,33,0
1,note_on,70,0,60
1,note_on,72,33,0
1,note_on,72,0,60
1,note_on,70,49,0
1,note_on,70,0,480
1,note_on,75,46,960
1,note_on,75,0,480
1,note_on,77,50,0
1,note_on,77,0,480
1,note_on,79,51,0
1,note_on,79,0,480
1,note_on,77,51,0
1,note_on,77,0,720
1,note_on,79,48,0
1,note_on,77,43,120
1,note_on,79,0,12
1,note_on,75,50,108
1,note_on,77,0,12
1,note_on,74,48,108
1,note_on,75,0,12
1,note_on,72,47,108
1,note_on,74,0,12
1,note_on,70,45,108
1,note_on,72,0,12
1,note_on,70,0,108
1,note_on,74,48,0
1,note_on,74,0,720
1,note_on,75,40,0
1,note_on,75,0,240
1,note_on,72,44,0
1,note_on,72,0,480
1,note_on,70,46,0
1,note_on,70,0,480
1,note_on,63,52,960
1,note_on,63,0,240
1,note_on,75,47,0
1,note_on,75,0,240
1,note_on,65,54,0
1,note_on,65,0,240
1,note_on,77,47,0
1,note_on,77,0,240
1,note_on,67,58,0
1,note_on,67,0,240
1,note_on,79,52,0
1,note_on,79,0,240
1,note_on,77,61,0
1,note_on,77,0,240
1,note_on,79,54,0
1,note_on,79,0,120
1,note_on,81,58,0
1,note_on,81,0,120
1,note_on,82,61,0
1,note_on,82,0,120
1,note_on,81,61,0
1,note_on,81,0,120
1,note_on,79,60,0
1,note_on,79,0,120
1,note_on,77,58,0
1,note_on,77,0,120
1,note_on,75,57,0
1,note_on,75,0,120
1,note_on,74,55,0
1,note_on,74,0,120
1,note_on,72,54,0
1,note_on,72,0,120
1,note_on,70,52,0
1,note_on,70,0,120
1,note_on,74,62,0
1,note_on,74,0,720
1,note_on,75,56,0
1,note_on,75,0,240
1,note_on,72,62,0
1,note_on,72,0,480
1,note_on,70,67,0
1,note_on,70,0,480
1,note_on,77,60,120
1,note_on,77,0,120
1,note_on,79,65,0
1,note_on,79,0,120
1,note_on,77,60,0
1,note_on,77,0,120
1,note_on,75,64,0
1,note_on,75,0,120
1,note_on,74,62,0
1,note_on,74,0,120
1,note_on,75,60,0
1,note_on,75,0,120
1,note_on,72,58,0
1,note_on,72,0,120
1,note_on,70,68,0
1,note_on,70,0,480
1,note_on,65,60,120
1,note_on,65,0,120
1,note_on,67,65,0
1,note_on,67,0,120
1,note_on,65,60,0
1,note_on,65,0,120
1,note_on,63,64,0
1,note_on,63,0,120
1,note_on,62,62,0
1,note_on,62,0,120
1,note_on,63,60,0
1,note_on,63,0,120
1,note_on,60,58,0
1,note_on,60,0,120
1,note_on,58,71,0
1,note_on,58,0,168
1,note_on,74,59,312
1,note_on,77,59,0
1,note_on,82,77,0
1,note_on,82,0,480
1,note_on,77,0,0
1,note_on,74,0,0
1,note_on,66,71,480
1,note_on,66,0,480
1,note_on,68,59,0
1,note_on,72,59,0
1,note_on,78,77,0
1,note_on,78,0,480
1,note_on,72,0,0
1,note_on,68,0,0
1,note_on,61,43,480
1,note_on,61,0,960
1,note_on,63,36,0
1,note_on,61,36,120
1,note_on,63,0,12
1,note_on,60,36,108
1,note_on,61,0,12
1,note_on,61,36,108
1,note_on,60,0,12
1,note_on,61,0,108
1,note_on,70,42,0
1,note_on,70,0,240
1,note_on,68,37,0
1,note_on,68,0,234
1,note_on,68,43,6
1,note_on,68,0,480
1,note_on,68,38,0
1,note_on,68,0,480
1,note_on,68,39,0
1,note_on,73,45,240
1,note_on,68,0,12
1,note_on,72,44,228
1,note_on,73,0,12
1,note_on,71,41,228
1,note_on,72,0,12
1,note_on,70,40,228
1,note_on,71,0,12
1,note_on,69,38,228
1,note_on,70,0,12
1,note_on,68,41,228
1,note_on,69,0,12
1,note_on,68,0,468
1,note_on,61,45,960
1,note_on,61,0,960
1,note_on,63,42,0
1,note_on,61,39,120
1,note_on,63,0,12
1,note_on,60,42,108
1,note_on,61,0,12
1,note_on,61,40,108
1,note_on,60,0,12
1,note_on,61,0,108
1,note_on,70,54,0
1,note_on,70,0,240
1,note_on,69,48,0
1,note_on,69,0,240
1,note_on,69,53,0
1,note_on,69,0,480
1,note_on,69,47,0
1,note_on,69,0,480
1,note_on,70,50,0
1,note_on,77,54,240
1,note_on,70,0,12
1,note_on,73,55,228
1,note_on,77,0,12
1,note_on,72,53,228
1,note_on,73,0,12
1,note_on,70,51,228
1,note_on,72,0,12
1,note_on,68,50,228
1,note_on,70,0,12
1,note_on,67,50,228
1,note_on,68,0,12
1,note_on,67,0,468
1,note_on,68,59,960
1,note_on,80,62,240
1,note_on,68,0,12
1,note_on,77,61,228
1,note_on,80,0,12
1,note_on,75,60,228
1,note_on,77,0,12
1,note_on,74,58,228
1,note_on,75,0,12
1,note_on,72,57,228
1,note_on,74,0,12
1,note_on,71,62,228
1,note_on,72,0,12
1,note_on,71,0,468
1,note_on,72,61,960
1,note_on,87,64,240
1,note_on,72,0,12
1,note_on,84,61,228
1,note_on,87,0,12
1,note_on,82,60,228
1,note_on,84,0,12
1,note_on,80,55,228
1,note_on,82,0,12
1,note_on,79,56,228
1,note_on,80,0,12
1,note_on,78,60,228
1,note_on,79,0,12
1,note_on,78,0,468
1,note_on,79,58,960
1,note_on,82,60,240
1,note_on,79,0,12
1,note_on,79,58,228
1,note_on,82,0,12
1,note_on,77,55,228
1,note_on,79,0,12
1,note_on,75,53,228
1,note_on,77,0,12
1,note_on,74,50,228
1,note_on,75,0,12
1,note_on,73,57,228
1,note_on,74,0,12
1,note_on,73,0,468
1,note_on,74,46,1080
1,note_on,74,0,120
1,note_on,73,49,0
1,note_on,73,0,120
1,note_on,74,44,0
1,note_on,74,0,120
1,note_on,76,49,0
1,note_on,76,0,120
1,note_on,74,44,0
1,note_on,74,0,120
1,note_on,73,49,0
1,note_on,73,0,120
1,note_on,74,44,0
1,note_on,74,0,120
1,note_on,74,49,120
1,note_on,74,0,120
1,note_on,78,54,0
1,note_on,78,0,120
1,note_on,74,49,0
1,note_on,74,0,120
1,note_on,74,53,120
1,note_on,74,0,120
1,note_on,79,57,0
1,note_on,79,0,120
1,note_on,74,52,0
1,note_on,74,0,120
1,note_on,74,55,120
1,note_on,74,0,120
1,note_on,84,61,0
1,note_on,84,0,120
1,note_on,74,57,0
1,note_on,74,0,120
1,note_on,74,57,120
1,note_on,74,0,120
1,note_on,82,64,0
1,note_on,82,0,120
1,note_on,74,57,0
1,note_on,74,0,120
1,note_on,81,64,0
1,note_on,81,0,120
1,note_on,78,57,0
1,note_on,78,0,120
1,note_on,76,59,0
1,note_on,76,0,120
1,note_on,74,57,0
1,note_on,74,0,120
1,note_on,73,57,0
1,note_on,73,0,120
1,note_on,74,59,0
1,note_on,74,0,120
1,note_on,76,60,0
1,note_on,76,0,120
1,note_on,74,56,0
1,note_on,74,0,120
1,note_on,74,49,120
1,note_on,74,0,120
1,note_on,78,53,0
1,note_on,78,0,120
1,note_on,74,49,0
1,note_on,74,0,120
1,note_on,74,52,120
1,note_on,74,0,120
1,note_on,79,58,0
1,note_on,79,0,120
1,note_on,74,54,0
1,note_on,74,0,120
1,note_on,74,55,120
1,note_on,74,0,120
1,note_on,84,61,0
1,note_on,84,0,120
1,note_on,74,55,0
1,note_on,74,0,120
1,note_on,74,49,120
1,note_on,74,0,120
1,note_on,82,68,0
1,note_on,82,0,120
1,note_on,74,62,0
1,note_on,74,0,120
1,note_on,81,70,0
1,note_on,81,0,120
1,note_on,86,60,0
1,note_on,86,0,120
1,note_on,81,69,0
1,note_on,81,0,120
1,note_on,78,57,0
1,note_on,78,0,120
1,note_on,74,67,0
1,note_on,74,0,120
1,note_on,81,55,0
1,note_on,81,0,120
1,note_on,78,61,0
1,note_on,78,0,120
1,note_on,74,54,0
1,note_on,74,0,120
1,note_on,69,63,0
1,note_on,69,0,120
1,note_on,74,55,0
1,note_on,74,0,120
1,note_on,69,65,0
1,note_on,69,0,120
1,note_on,66,59,0
1,note_on,66,0,120
1,note_on,62,85,0
1,note_on,62,0,120
1,note_on,69,62,360
1,note_on,66,62,0
1,note_on,74,73,0
1,note_on,74,0,480
1,note_on,66,0,0
1,note_on,69,0,0
1,note_on,86,45,3600
1,note_on,86,0,60
1,note_on,86,49,180
1,note_on,86,0,60
1,note_on,86,43,180
1,note_on,86,0,60
1,note_on,86,46,180
1,note_on,86,0,60
1,note_on,86,40,180
1,note_on,86,0,60
1,note_on,87,45,180
1,note_on,86,40,240
1,note_on,87,0,12
1,note_on,84,43,228
1,note_on,86,0,12
1,note_on,83,40,228
1,note_on,84,0,12
1,note_on,80,45,228
1,note_on,83,0,12
1,note_on,79,39,228
1,note_on,80,0,12
1,note_on,79,0,228
1,note_on,79,41,0
1,note_on,79,0,60
1,note_on,80,39,0
1,note_on,80,0,60
1,note_on,79,49,0
1,note_on,79,0,120
1,note_on,77,44,0
1,note_on,77,0,230
1,note_on,77,46,10
1,note_on,77,0,480
1,note_on,77,45,2160
1,note_on,77,0,60
1,note_on,77,48,180
1,note_on,77,0,60
1,note_on,77,42,180
1,note_on,77,0,60
1,note_on,77,44,180
1,note_on,77,0,60
1,note_on,77,40,180
1,note_on,77,0,60
1,note_on,79,45,180
1,note_on,77,40,240
1,note_on,79,0,12
1,note_on,75,40,228
1,note_on,77,0,12
1,note_on,74,40,228
1,note_on,75,0,12
1,note_on,72,45,228
1,note_on,74,0,12
1,note_on,71,39,228
1,note_on,72,0,12
1,note_on,71,0,228
1,note_on,72,48,0
1,note_on,67,42,960
1,note_on,72,0,20
1,note_on,67,0,460
1,note_on,63,48,0
1,note_on,67,45,960
1,note_on,63,0,20
1,note_on,67,0,460
1,note_on,72,50,0
1,note_on,75,52,960
1,note_on,72,0,20
1,note_on,75,0,460
1,note_on,79,56,0
1,note_on,79,0,480
1,note_on,76,58,960
1,note_on,72,52,960
1,note_on,76,0,20
1,note_on,72,0,460
1,note_on,67,55,0
1,note_on,72,49,960
1,note_on,67,0,20
1,note_on,72,0,460
1,note_on,76,53,0
1,note_on,79,54,960
1,note_on,76,0,20
1,note_on,79,0,460
1,note_on,82,58,0
1,note_on,82,0,480
1,note_on,80,45,1200
1,note_on,80,0,60
1,note_on,80,49,180
1,note_on,80,0,60
1,note_on,80,43,180
1,note_on,80,0,60
1,note_on,80,46,180
1,note_on,80,0,60
1,note_on,80,40,180
1,note_on,80,0,60
1,note_on,82,45,180
1,note_on,80,40,240
1,note_on,82,0,12
1,note_on,79,43,228
1,note_on,80,0,12
1,note_on,77,40,228
1,note_on,79,0,12
1,note_on,75,45,228
1,note_on,77,0,12
1,note_on,74,39,228
1,note_on,75,0,12
1,note_on,74,0,228
1,note_on,79,45,240
1,note_on,79,0,60
1,note_on,79,49,180
1,note_on,79,0,60
1,note_on,79,43,180
1,note_on,79,0,60
1,note_on,79,46,180
1,note_on,79,0,60
1,note_on,79,40,180
1,note_on,79,0,60
1,note_on,80,45,180
1,note_on,79,40,240
1,note_on,80,0,12
1,note_on,77,43,228
1,note_on,79,0,12
1,note_on,75,40,228
1,note_on,77,0,12
1,note_on,74,45,228
1,note_on,75,0,12
1,note_on,72,39,228
1,note_on,74,0,12
1,note_on,72,0,228
1,note_on,77,45,240
1,note_on,77,0,60
1,note_on,77,49,180
1,note_on,77,0,60
1,note_on,77,43,180
1,note_on,77,0,60
1,note_on,77,46,180
1,note_on,77,0,60
1,note_on,77,40,180
1,note_on,77,0,60
1,note_on,79,51,180
1,note_on,77,50,240
1,note_on,79,0,12
1,note_on,75,49,228
1,note_on,77,0,12
1,note_on,74,48,228
1,note_on,75,0,12
1,note_on,72,47,228
1,note_on,74,0,12
1,note_on,71,47,228
1,note_on,72,0,12
1,note_on,71,0,228
1,note_on,77,56,0
1,note_on,75,54,240
1,note_on,77,0,12
1,note_on,74,52,228
1,note_on,75,0,12
1,note_on,72,51,228
1,note_on,74,0,12
1,note_on,70,49,228
1,note_on,72,0,12
1,note_on,69,47,228
1,note_on,70,0,12
1,note_on,69,0,228
1,note_on,84,60,0
1,note_on,82,58,240
1,note_on,84,0,12
1,note_on,81,56,228
1,note_on,82,0,12
1,note_on,79,54,228
1,note_on,81,0,12
1,note_on,77,54,228
1,note_on,79,0,12
1,note_on,76,57,228
1,note_on,77,0,12
1,note_on,76,0,228
1,note_on,77,61,0
1,note_on,77,0,480
1,note_on,69,45,480
1,note_on,75,55,0
1,note_on,75,0,480
1,note_on,69,0,0
1,note_on,70,45,0
1,note_on,73,60,0
1,note_on,73,0,480
1,note_on,70,0,0
1,note_on,73,45,480
1,note_on,82,55,0
1,note_on,82,0,480
1,note_on,73,0,0
1,note_on,72,45,0
1,note_on,81,61,0
1,note_on,81,0,480
1,note_on,72,0,0
1,note_on,63,45,480
1,note_on,69,55,0
1,note_on,69,0,480
1,note_on,63,0,0
1,note_on,61,45,0
1,note_on,70,60,0
1,note_on,70,0,480
1,note_on,61,0,0
1,note_on,58,45,480
1,note_on,61,55,0
1,note_on,61,0,480
1,note_on,58,0,0
1,note_on,57,45,0
1,note_on,60,60,0
1,note_on,60,0,240
1,note_on,57,0,0
1,note_on,65,45,0
1,note_on,65,0,60
1,note_on,65,49,180
1,note_on,65,0,60
1,note_on,65,43,180
1,note_on,65,0,60
1,note_on,65,46,180
1,note_on,65,0,60
1,note_on,65,40,180
1,note_on,65,0,60
1,note_on,64,44,180
1,note_on,64,0,240
1,note_on,65,40,0
1,note_on,65,0,240
1,note_on,67,45,0
1,note_on,67,0,240
1,note_on,65,40,0
1,note_on,65,0,240
1,note_on,70,43,0
1,note_on,70,0,240
1,note_on,69,40,0
1,note_on,69,0,240
1,note_on,74,44,0
1,note_on,74,0,240
1,note_on,72,40,0
1,note_on,72,0,240
1,note_on,75,45,0
1,note_on,75,0,240
1,note_on,74,40,0
1,note_on,74,0,240
1,note_on,79,45,0
1,note_on,79,0,240
1,note_on,77,40,0
1,note_on,77,0,180
1,note_on,77,45,60
1,note_on,77,0,720
1,note_on,76,40,0
1,note_on,76,0,240
1,note_on,75,43,0
1,note_on,75,0,240
1,note_on,72,40,0
1,note_on,72,0,240
1,note_on,70,48,0
1,note_on,70,0,960
1,note_on,65,41,0
1,note_on,65,0,480
1,note_on,62,48,0
1,note_on,62,0,960
1,note_on,65,44,0
1,note_on,65,0,480
1,note_on,70,48,0
1,note_on,70,0,960
1,note_on,74,51,0
1,note_on,74,0,480
1,note_on,77,56,0
1,note_on,77,0,960
1,note_on,82,58,0
1,note_on,82,0,240
1,note_on,74,51,0
1,note_on,74,0,240
1,note_on,77,56,0
1,note_on,75,52,240
1,note_on,77,0,12
1,note_on,74,51,228
1,note_on,75,0,12
1,note_on,72,49,228
1,note_on,74,0,12
1,note_on,70,48,228
1,note_on,72,0,12
1,note_on,69,47,228
1,note_on,70,0,12
1,note_on,69,0,228
1,note_on,67,50,0
1,note_on,65,44,240
1,note_on,67,0,12
1,note_on,64,44,228
1,note_on,65,0,12
1,note_on,65,45,228
1,note_on,64,0,12
1,note_on,67,47,228
1,note_on,65,0,12
1,note_on,69,50,228
1,note_on,67,0,12
1,note_on,69,0,228
1,note_on,70,50,0
1,note_on,70,0,60
1,note_on,72,45,120
1,note_on,72,0,60
1,note_on,70,49,0
1,note_on,70,0,120
1,note_on,69,46,0
1,note_on,69,0,120
1,note_on,70,50,0
1,note_on,70,0,60
1,note_on,72,47,180
1,note_on,72,0,60
1,note_on,74,49,180
1,note_on,74,0,60
1,note_on,75,51,180
1,note_on,75,0,60
1,note_on,76,53,180
1,note_on,77,50,240
1,note_on,76,0,12
1,note_on,79,55,228
1,note_on,77,0,12
1,note_on,77,50,228
1,note_on,79,0,12
1,note_on,77,0,228
1,note_on,82,59,0
1,note_on,82,0,240
1,note_on,74,50,0
1,note_on,74,0,240
1,note_on,77,57,0
1,note_on,75,55,240
1,note_on,77,0,12
1,note_on,74,53,228
1,note_on,75,0,12
1,note_on,72,51,228
1,note_on,74,0,12
1,note_on,70,49,228
1,note_on,72,0,12
1,note_on,69,47,228
1,note_on,70,0,12
1,note_on,69,0,228
1,note_on,67,50,0
1,note_on,65,43,240
1,note_on,67,0,12
1,note_on,64,50,228
1,note_on,65,0,12
1,note_on,65,43,228
1,note_on,64,0,12
1,note_on,67,50,228
1,note_on,65,0,12
1,note_on,69,45,228
1,note_on,67,0,12
1,note_on,69,0,228
1,note_on,70,50,0
1,note_on,70,0,120
1,note_on,70,48,360
1,note_on,70,0,120
1,note_on,74,48,360
1,note_on,74,0,120
1,note_on,70,50,360
1,note_on,70,0,480
1,note_on,70,44,360
1,note_on,70,0,60
1,note_on,72,50,60
1,note_on,70,43,120
1,note_on,72,0,12
1,note_on,69,45,108
1,note_on,70,0,12
1,note_on,70,42,108
1,note_on,69,0,12
1,note_on,79,56,108
1,note_on,70,0,12
1,note_on,79,0,468
1,note_on,70,44,360
1,note_on,70,0,60
1,note_on,72,50,60
1,note_on,70,43,120
1,note_on,72,0,12
1,note_on,69,45,108
1,note_on,70,0,12
1,note_on,70,42,108
1,note_on,69,0,12
1,note_on,77,55,108
1,note_on,70,0,12
1,note_on,77,0,468
1,note_on,70,44,360
1,note_on,70,0,60
1,note_on,72,50,60
1,note_on,70,43,120
1,note_on,72,0,12
1,note_on,69,45,108
1,note_on,70,0,12
1,note_on,70,42,108
1,note_on,69,0,12
1,note_on,72,52,108
1,note_on,70,0,12
1,note_on,72,0,468
1,note_on,77,49,0
1,note_on,77,0,480
1,note_on,75,48,0
1,note_on,75,0,480
1,note_on,73,55,0
1,note_on,73,0,480
1,note_on,74,49,0
1,note_on,74,0,240
1,note_on,70,44,120
1,note_on,70,0,60
1,note_on,72,50,60
1,note_on,70,43,120
1,note_on,72,0,12
1,note_on,69,45,108
1,note_on,70,0,12
1,note_on,70,42,108
1,note_on,69,0,12
1,note_on,79,56,108
1,note_on,70,0,12
1,note_on,79,0,468
1,note_on,70,44,360
1,note_on,70,0,60
1,note_on,72,50,60
1,note_on,70,43,120
1,note_on,72,0,12
1,note_on,69,45,108
1,note_on,70,0,12
1,note_on,70,42,108
1,note_on,69,0,12
1,note_on,77,55,108
1,note_on,70,0,12
1,note_on,77,0,468
1,note_on,70,44,360
1,note_on,70,0,60
1,note_on,72,50,60
1,note_on,70,43,120
1,note_on,72,0,12
1,note_on,69,45,108
1,note_on,70,0,12
1,note_on,70,42,108
1,note_on,69,0,12
1,note_on,72,52,108
1,note_on,70,0,12
1,note_on,72,0,468
1,note_on,75,49,0
1,note_on,75,0,480
1,note_on,69,48,0
1,note_on,69,0,480
1,note_on,70,55,0
1,note_on,70,0,480
1,note_on,74,64,960
1,note_on,70,64,0
1,note_on,79,77,0
1,note_on,79,0,120
1,note_on,70,0,0
1,note_on,74,0,0
1,note_on,67,64,360
1,note_on,67,0,120
1,note_on,69,63,840
1,note_on,66,63,0
1,note_on,74,75,0
1,note_on,74,0,120
1,note_on,66,0,0
1,note_on,69,0,0
1,note_on,62,67,360
1,note_on,62,0,120
1,note_on,63,43,840
1,note_on,63,0,960
1,note_on,65,36,0
1,note_on,63,36,120
1,note_on,65,0,12
1,note_on,62,36,108
1,note_on,63,0,12
1,note_on,63,36,108
1,note_on,62,0,12
1,note_on,63,0,108
1,note_on,72,42,0
1,note_on,72,0,240
1,note_on,70,37,0
1,note_on,70,0,240
1,note_on,70,43,0
1,note_on,70,0,480
1,note_on,70,38,0
1,note_on,70,0,480
1,note_on,70,39,0
1,note_on,75,45,240
1,note_on,70,0,12
1,note_on,74,44,228
1,note_on,75,0,12
1,note_on,73,42,228
1,note_on,74,0,12
1,note_on,72,40,228
1,note_on,73,0,12
1,note_on,71,38,228
1,note_on,72,0,12
1,note_on,70,41,228
1,note_on,71,0,12
1,note_on,70,0,468
1,note_on,63,45,960
1,note_on,63,0,960
1,note_on,65,42,0
1,note_on,63,39,120
1,note_on,65,0,12
1,note_on,62,42,108
1,note_on,63,0,12
1,note_on,63,40,108
1,note_on,62,0,12
1,note_on,63,0,108
1,note_on,72,54,0
1,note_on,72,0,240
1,note_on,71,48,0
1,note_on,71,0,240
1,note_on,71,53,0
1,note_on,71,0,480
1,note_on,71,47,0
1,note_on,71,0,480
1,note_on,72,50,0
1,note_on,79,58,240
1,note_on,72,0,12
1,note_on,75,56,228
1,note_on,79,0,12
1,note_on,74,54,228
1,note_on,75,0,12
1,note_on,72,51,228
1,note_on,74,0,12
1,note_on,70,49,228
1,note_on,72,0,12
1,note_on,69,50,228
1,note_on,70,0,12
1,note_on,69,0,468
1,note_on,70,59,960
1,note_on,86,62,240
1,note_on,70,0,12
1,note_on,82,61,228
1,note_on,86,0,12
1,note_on,81,60,228
1,note_on,82,0,12
1,note_on,79,58,228
1,note_on,81,0,12
1,note_on,77,57,228
1,note_on,79,0,12
1,note_on,76,62,228
1,note_on,77,0,12
1,note_on,76,0,468
1,note_on,77,46,1080
1,note_on,77,0,120
1,note_on,76,49,0
1,note_on,76,0,120
1,note_on,77,44,0
1,note_on,77,0,120
1,note_on,79,49,0
1,note_on,79,0,120
1,note_on,77,44,0
1,note_on,77,0,120
1,note_on,76,49,0
1,note_on,76,0,120
1,note_on,77,44,0
1,note_on,77,0,120
1,note_on,77,49,120
1,note_on,77,0,120
1,note_on,81,54,0
1,note_on,81,0,120
1,note_on,77,49,0
1,note_on,77,0,120
1,note_on,77,53,120
1,note_on,77,0,120
1,note_on,82,57,0
1,note_on,82,0,120
1,note_on,77,52,0
1,note_on,77,0,120
1,note_on,77,55,120
1,note_on,77,0,120
1,note_on,87,61,0
1,note_on,87,0,120
1,note_on,77,57,0
1,note_on,77,0,120
1,note_on,77,57,120
1,note_on,77,0,120
1,note_on,86,64,0
1,note_on,86,0,120
1,note_on,77,57,0
1,note_on,77,0,120
1,note_on,84,65,0
1,note_on,84,0,120
1,note_on,81,60,0
1,note_on,81,0,120
1,note_on,79,65,0
1,note_on,79,0,120
1,note_on,77,60,0
1,note_on,77,0,120
1,note_on,76,57,0
1,note_on,76,0,120
1,note_on,77,59,0
1,note_on,77,0,120
1,note_on,79,60,0
1,note_on,79,0,120
1,note_on,77,56,0
1,note_on,77,0,120
1,note_on,77,49,120
1,note_on,77,0,120
1,note_on,81,53,0
1,note_on,81,0,120
1,note_on,77,49,0
1,note_on,77,0,120
1,note_on,77,52,120
1,note_on,77,0,120
1,note_on,82,58,0
1,note_on,82,0,120
1,note_on,77,54,0
1,note_on,77,0,120
1,note_on,77,55,120
1,note_on,77,0,120
1,note_on,87,61,0
1,note_on,87,0,120
1,note_on,77,55,0
1,note_on,77,0,120
1,note_on,77,49,120
1,note_on,77,0,120
1,note_on,86,68,0
1,note_on,86,0,120
1,note_on,77,62,0
1,note_on,77,0,120
1,note_on,84,73,0
1,note_on,84,0,120
1,note_on,89,62,0
1,note_on,89,0,120
1,note_on,84,69,0
1,note_on,84,0,120
1,note_on,81,57,0
1,note_on,81,0,120
1,note_on,77,67,0
1,note_on,77,0,120
1,note_on,84,55,0
1,note_on,84,0,120
1,note_on,81,61,0
1,note_on,81,0,120
1,note_on,77,54,0
1,note_on,77,0,120
1,note_on,72,63,0
1,note_on,72,0,120
1,note_on,77,55,0
1,note_on,77,0,120
1,note_on,72,65,0
1,note_on,72,0,120
1,note_on,69,59,0
1,note_on,69,0,120
1,note_on,65,85,0
1,note_on,65,0,120
1,note_on,72,62,360
1,note_on,69,62,0
1,note_on,77,73,0
1,note_on,77,0,480
1,note_on,69,0,0
1,note_on,72,0,0
1,note_on,77,45,3600
1,note_on,77,0,60
1,note_on,77,49,180
1,note_on,77,0,60
1,note_on,77,43,180
1,note_on,77,0,60
1,note_on,77,46,180
1,note_on,77,0,60
1,note_on,77,40,180
1,note_on,77,0,60
1,note_on,79,45,180
1,note_on,77,40,240
1,note_on,79,0,12
1,note_on,75,43,228
1,note_on,77,0,12
1,note_on,74,40,228
1,note_on,75,0,12
1,note_on,72,45,228
1,note_on,74,0,12
1,note_on,70,39,228
1,note_on,72,0,12
1,note_on,70,0,168
1,note_on,70,41,60
1,note_on,70,0,60
1,note_on,72,39,0
1,note_on,72,0,60
1,note_on,70,49,0
1,note_on,70,0,120
1,note_on,69,44,0
1,note_on,69,0,240
1,note_on,69,46,0
1,note_on,69,0,480
1,note_on,75,45,2160
1,note_on,75,0,60
1,note_on,75,48,180
1,note_on,75,0,60
1,note_on,75,42,180
1,note_on,75,0,60
1,note_on,75,44,180
1,note_on,75,0,60
1,note_on,75,40,180
1,note_on,75,0,60
1,note_on,77,45,180
1,note_on,75,40,240
1,note_on,77,0,12
1,note_on,74,40,228
1,note_on,75,0,12
1,note_on,72,40,228
1,note_on,74,0,12
1,note_on,70,45,228
1,note_on,72,0,12
1,note_on,69,39,228
1,note_on,70,0,12
1,note_on,69,0,228
1,note_on,70,47,0
1,note_on,70,0,480
1,note_on,74,47,240
1,note_on,72,45,240
1,note_on,74,0,12
1,note_on,70,40,228
1,note_on,72,0,12
1,note_on,69,47,228
1,note_on,70,0,12
1,note_on,69,0,468
1,note_on,79,52,240
1,note_on,77,47,240
1,note_on,79,0,12
1,note_on,69,42,228
1,note_on,77,0,12
1,note_on,70,47,228
1,note_on,69,0,12
1,note_on,70,0,468
1,note_on,74,47,240
1,note_on,72,45,240
1,note_on,74,0,12
1,note_on,70,40,228
1,note_on,72,0,12
1,note_on,69,47,228
1,note_on,70,0,12
1,note_on,69,0,468
1,note_on,78,52,240
1,note_on,77,47,240
1,note_on,78,0,12
1,note_on,69,42,228
1,note_on,77,0,12
1,note_on,70,47,228
1,note_on,69,0,12
1,note_on,70,0,468
1,note_on,77,55,240
1,note_on,73,53,240
1,note_on,77,0,12
1,note_on,72,50,228
1,note_on,73,0,12
1,note_on,71,56,228
1,note_on,72,0,12
1,note_on,71,0,468
1,note_on,80,58,240
1,note_on,79,52,240
1,note_on,80,0,12
1,note_on,71,48,228
1,note_on,79,0,12
1,note_on,71,0,228
1,note_on,74,56,0
1,note_on,72,51,240
1,note_on,74,0,12
1,note_on,77,55,228
1,note_on,72,0,12
1,note_on,76,51,228
1,note_on,77,0,12
1,note_on,75,50,228
1,note_on,76,0,12
1,note_on,74,49,228
1,note_on,75,0,12
1,note_on,74,0,228
1,note_on,72,54,0
1,note_on,72,0,360
1,note_on,74,48,0
1,note_on,74,0,120
1,note_on,70,54,0
1,note_on,70,0,480
1,note_on,69,50,0
1,note_on,69,0,80
1,note_on,70,44,0
1,note_on,70,0,80
1,note_on,69,50,0
1,note_on,69,0,80
1,note_on,70,44,0
1,note_on,70,0,60
1,note_on,69,50,0
1,note_on,69,0,60
1,note_on,67,42,0
1,note_on,67,0,60
1,note_on,69,45,0
1,note_on,69,0,60
1,note_on,70,49,0
1,note_on,70,0,120
1,note_on,65,46,0
1,note_on,65,0,120
1,note_on,64,49,0
1,note_on,64,0,120
1,note_on,65,44,0
1,note_on,65,0,120
1,note_on,67,49,0
1,note_on,67,0,120
1,note_on,65,44,0
1,note_on,65,0,120
1,note_on,64,49,0
1,note_on,64,0,120
1,note_on,65,44,0
1,note_on,65,0,120
1,note_on,63,49,0
1,note_on,63,0,120
1,note_on,65,49,0
1,note_on,65,0,120
1,note_on,62,54,0
1,note_on,62,0,120
1,note_on,65,49,0
1,note_on,65,0,120
1,note_on,60,49,0
1,note_on,60,0,120
1,note_on,65,46,0
1,note_on,65,0,120
1,note_on,64,49,0
1,note_on,64,0,120
1,note_on,65,44,0
1,note_on,65,0,120
1,note_on,67,49,0
1,note_on,67,0,120
1,note_on,65,44,0
1,note_on,65,0,120
1,note_on,64,49,0
1,note_on,64,0,120
1,note_on,65,44,0
1,note_on,65,0,120
1,note_on,75,49,0
1,note_on,75,0,120
1,note_on,65,49,0
1,note_on,65,0,120
1,note_on,75,54,0
1,note_on,75,0,120
1,note_on,65,49,0
1,note_on,65,0,120
1,note_on,74,49,0
1,note_on,74,0,120
1,note_on,77,46,0
1,note_on,77,0,120
1,note_on,76,49,0
1,note_on,76,0,120
1,note_on,77,44,0
1,note_on,77,0,120
1,note_on,79,49,0
1,note_on,79,0,120
1,note_on,77,44,0
1,note_on,77,0,120
1,note_on,76,49,0
1,note_on,76,0,120
1,note_on,77,44,0
1,note_on,77,0,120
1,note_on,75,49,0
1,note_on,75,0,120
1,note_on,77,49,0
1,note_on,77,0,120
1,note_on,74,54,0
1,note_on,74,0,120
1,note_on,77,49,0
1,note_on,77,0,120
1,note_on,72,49,0
1,note_on,72,0,120
1,note_on,77,46,0
1,note_on,77,0,120
1,note_on,76,49,0
1,note_on,76,0,120
1,note_on,77,44,0
1,note_on,77,0,120
1,note_on,79,49,0
1,note_on,79,0,120
1,note_on,77,44,0
1,note_on,77,0,120
1,note_on,76,49,0
1,note_on,76,0,120
1,note_on,77,44,0
1,note_on,77,0,120
1,note_on,87,49,0
1,note_on,87,0,120
1,note_on,77,49,0
1,note_on,77,0,120
1,note_on,87,54,0
1,note_on,87,0,120
1,note_on,77,49,0
1,note_on,77,0,120
1,note_on,86,49,0
1,note_on,86,0,120
1,note_on,77,46,0
1,note_on,77,0,120
1,note_on,76,49,0
1,note_on,76,0,120
1,note_on,77,44,0
1,note_on,77,0,120
1,note_on,79,49,0
1,note_on,79,0,120
1,note_on,77,44,0
1,note_on,77,0,120
1,note_on,76,49,0
1,note_on,76,0,120
1,note_on,77,44,0
1,note_on,77,0,120
1,note_on,80,49,0
1,note_on,80,0,120
1,note_on,77,49,0
1,note_on,77,0,120
1,note_on,75,54,0
1,note_on,75,0,120
1,note_on,77,49,0
1,note_on,77,0,120
1,note_on,74,49,0
1,note_on,74,0,120
1,note_on,79,46,0
1,note_on,79,0,120
1,note_on,78,49,0
1,note_on,78,0,120
1,note_on,79,44,0
1,note_on,79,0,120
1,note_on,81,49,0
1,note_on,81,0,120
1,note_on,79,44,0
1,note_on,79,0,120
1,note_on,78,52,0
1,note_on,78,0,120
1,note_on,79,44,0
1,note_on,79,0,120
1,note_on,89,55,0
1,note_on,89,0,120
1,note_on,79,49,0
1,note_on,79,0,120
1,note_on,89,57,0
1,note_on,89,0,120
1,note_on,79,49,0
1,note_on,79,0,120
1,note_on,88,62,0
1,note_on,88,0,480
1,note_on,87,60,0
1,note_on,87,0,480
1,note_on,86,57,0
1,note_on,86,0,480
1,note_on,86,60,0
1,note_on,84,52,120
1,note_on,86,0,12
1,note_on,87,52,108
1,note_on,84,0,12
1,note_on,84,52,108
1,note_on,87,0,12
1,note_on,84,0,78
1,note_on,84,62,30
1,note_on,82,52,120
1,note_on,84,0,12
1,note_on,86,52,108
1,note_on,82,0,12
1,note_on,82,52,108
1,note_on,86,0,12
1,note_on,82,0,78
1,note_on,82,62,30
1,note_on,81,52,120
1,note_on,82,0,12
1,note_on,84,52,108
1,note_on,81,0,12
1,note_on,81,52,108
1,note_on,84,0,12
1,note_on,81,0,108
1,note_on,82,54,0
1,note_on,82,0,120
1,note_on,86,57,0
1,note_on,86,0,120
1,note_on,89,58,0
1,note_on,89,0,120
1,note_on,87,60,0
1,note_on,87,0,120
1,note_on,86,58,0
1,note_on,86,0,120
1,note_on,84,56,0
1,note_on,84,0,120
1,note_on,82,54,0
1,note_on,82,0,120
1,note_on,81,52,0
1,note_on,81,0,120
1,note_on,79,55,0
1,note_on,79,0,120
1,note_on,77,51,0
1,note_on,77,0,120
1,note_on,75,50,0
1,note_on,75,0,120
1,note_on,74,50,0
1,note_on,74,0,120
1,note_on,72,50,0
1,note_on,72,0,120
1,note_on,75,53,0
1,note_on,75,0,120
1,note_on,79,56,0
1,note_on,79,0,120
1,note_on,77,55,0
1,note_on,77,0,120
1,note_on,75,54,0
1,note_on,75,0,120
1,note_on,74,53,0
1,note_on,74,0,120
1,note_on,72,52,0
1,note_on,72,0,120
1,note_on,70,50,0
1,note_on,70,0,120
1,note_on,69,49,0
1,note_on,69,0,120
1,note_on,67,50,0
1,note_on,67,0,120
1,note_on,65,53,0
1,note_on,65,0,120
1,note_on,64,56,0
1,note_on,64,0,120
1,note_on,65,59,0
1,note_on,65,0,120
1,note_on,70,59,120
1,note_on,70,0,120
1,note_on,74,61,120
1,note_on,74,0,120
1,note_on,77,62,120
1,note_on,77,0,120
1,note_on,82,64,120
1,note_on,82,0,120
1,note_on,86,65,120
1,note_on,86,0,120
1,note_on,72,37,120
1,note_on,72,0,60
1,note_on,74,31,0
1,note_on,74,0,60
1,note_on,72,37,0
1,note_on,72,0,60
1,note_on,74,31,0
1,note_on,74,0,60
1,note_on,72,37,0
1,note_on,72,0,60
1,note_on,74,32,0
1,note_on,74,0,60
1,note_on,72,37,0
1,note_on,72,0,60
1,note_on,74,33,0
1,note_on,74,0,60
1,note_on,72,37,0
1,note_on,72,0,60
1,note_on,74,32,0
1,note_on,74,0,60
1,note_on,72,37,0
1,note_on,72,0,60
1,note_on,74,32,0
1,note_on,74,0,60
1,note_on,72,37,0
1,note_on,72,0,60
1,note_on,74,31,0
1,note_on,74,0,60
1,note_on,72,37,0
1,note_on,72,0,60
1,note_on,74,33,0
1,note_on,74,0,60
1,note_on,72,37,0
1,note_on,72,0,60
1,note_on,74,32,0
1,note_on,74,0,60
1,note_on,72,37,0
1,note_on,72,0,80
1,note_on,74,32,0
1,note_on,74,0,80
1,note_on,72,37,0
1,note_on,72,0,80
1,note_on,70,33,0
1,note_on,70,0,60
1,note_on,72,33,0
1,note_on,72,0,60
1,note_on,70,49,0
1,note_on,70,0,480
1,note_on,75,46,960
1,note_on,75,0,480
1,note_on,77,50,0
1,note_on,77,0,480
1,note_on,79,51,0
1,note_on,79,0,480
1,note_on,77,51,0
1,note_on,77,0,720
1,note_on,79,48,0
1,note_on,77,43,120
1,note_on,79,0,12
1,note_on,75,50,108
1,note_on,77,0,12
1,note_on,74,48,108
1,note_on,75,0,12
1,note_on,72,47,108
1,note_on,74,0,12
1,note_on,70,45,108
1,note_on,72,0,12
1,note_on,70,0,108
1,note_on,74,48,0
1,note_on,74,0,720
1,note_on,75,40,0
1,note_on,75,0,240
1,note_on,72,44,0
1,note_on,72,0,480
1,note_on,70,46,0
1,note_on,70,0,480
1,note_on,63,52,960
1,note_on,63,0,240
1,note_on,75,47,0
1,note_on,75,0,240
1,note_on,65,54,0
1,note_on,65,0,240
1,note_on,77,47,0
1,note_on,77,0,240
1,note_on,67,58,0
1,note_on,67,0,240
1,note_on,79,52,0
1,note_on,79,0,240
1,note_on,77,61,0
1,note_on,77,0,240
1,note_on,79,54,0
1,note_on,79,0,120
1,note_on,81,58,0
1,note_on,81,0,120
1,note_on,82,61,0
1,note_on,82,0,120
1,note_on,81,61,0
1,note_on,81,0,120
1,note_on,79,60,0
1,note_on,79,0,120
1,note_on,77,58,0
1,note_on,77,0,120
1,note_on,75,57,0
1,note_on,75,0,120
1,note_on,74,55,0
1,note_on,74,0,120
1,note_on,72,54,0
1,note_on,72,0,120
1,note_on,70,52,0
1,note_on,70,0,120
1,note_on,74,62,0
1,note_on,74,0,720
1,note_on,75,56,0
1,note_on,75,0,240
1,note_on,72,62,0
1,note_on,72,0,480
1,note_on,70,67,0
1,note_on,70,0,480
1,note_on,77,60,120
1,note_on,77,0,120
1,note_on,79,65,0
1,note_on,79,0,120
1,note_on,77,60,0
1,note_on,77,0,120
1,note_on,75,64,0
1,note_on,75,0,120
1,note_on,74,62,0
1,note_on,74,0,120
1,note_on,75,60,0
1,note_on,75,0,120
1,note_on,72,58,0
1,note_on,72,0,120
1,note_on,70,68,0
1,note_on,70,0,480
1,note_on,65,60,120
1,note_on,65,0,120
1,note_on,67,65,0
1,note_on,67,0,120
1,note_on,65,60,0
1,note_on,65,0,120
1,note_on,63,64,0
1,note_on,63,0,120
1,note_on,62,62,0
1,note_on,62,0,120
1,note_on,63,60,0
1,note_on,63,0,120
1,note_on,60,58,0
1,note_on,60,0,120
1,note_on,58,71,0
1,note_on,58,0,168
1,note_on,74,59,312
1,note_on,77,59,0
1,note_on,82,77,0
1,note_on,82,0,480
1,note_on,77,0,0
1,note_on,74,0,0
2,note_on,58,40,0
2,note_on,58,0,960
2,note_on,53,36,0
2,note_on,53,0,480
2,note_on,50,40,0
2,note_on,50,0,960
2,note_on,53,38,0
2,note_on,53,0,480
2,note_on,58,41,0
2,note_on,58,0,960
2,note_on,62,43,0
2,note_on,62,0,480
2,note_on,65,45,0
2,note_on,65,0,960
2,note_on,63,36,480
2,note_on,53,30,0
2,note_on,60,30,0
2,note_on,60,0,2880
2,note_on,53,0,0
2,note_on,63,0,0
2,note_on,58,32,0
2,note_on,62,38,0
2,note_on,62,0,480
2,note_on,58,0,0
2,note_on,53,30,2400
2,note_on,60,30,0
2,note_on,63,36,0
2,note_on,63,0,2880
2,note_on,60,0,0
2,note_on,53,0,0
2,note_on,58,34,0
2,note_on,62,40,0
2,note_on,62,0,120
2,note_on,58,0,0
2,note_on,62,38,360
2,note_on,58,32,0
2,note_on,58,0,120
2,note_on,62,0,0
2,note_on,58,32,360
2,note_on,65,38,0
2,note_on,65,0,120
2,note_on,58,0,0
2,note_on,58,34,360
2,note_on,62,40,0
2,note_on,62,0,480
2,note_on,58,0,0
2,note_on,58,30,1440
2,note_on,51,25,0
2,note_on,55,25,0
2,note_on,55,0,480
2,note_on,51,0,0
2,note_on,58,0,0
2,note_on,50,25,960
2,note_on,53,25,0
2,note_on,58,30,0
2,note_on,58,0,480
2,note_on,53,0,0
2,note_on,50,0,0
2,note_on,57,29,480
2,note_on,65,34,0
2,note_on,57,0,1440
2,note_on,58,34,0
2,note_on,58,0,480
2,note_on,65,0,0
2,note_on,51,25,1440
2,note_on,55,25,0
2,note_on,58,30,0
2,note_on,58,0,480
2,note_on,55,0,0
2,note_on,51,0,0
2,note_on,50,25,960
2,note_on,53,25,0
2,note_on,58,30,0
2,note_on,58,0,480
2,note_on,53,0,0
2,note_on,50,0,0
2,note_on,53,29,480
2,note_on,57,34,0
2,note_on,57,0,480
2,note_on,60,31,0
2,note_on,60,0,480
2,note_on,63,29,0
2,note_on,63,0,480
2,note_on,53,0,0
2,note_on,62,34,0
2,note_on,58,28,0
2,note_on,58,0,480
2,note_on,62,0,0
2,note_on,55,73,960
2,note_on,55,0,120
2,note_on,43,66,360
2,note_on,43,0,120
2,note_on,50,73,840
2,note_on,50,0,120
2,note_on,38,66,360
2,note_on,38,0,120
2,note_on,51,20,840
2,note_on,55,33,0
2,note_on,55,0,240
2,note_on,58,23,0
2,note_on,58,0,240
2,note_on,55,27,0
2,note_on,55,0,240
2,note_on,58,22,0
2,note_on,58,0,240
2,note_on,55,26,0
2,note_on,55,0,240
2,note_on,58,22,0
2,note_on,58,0,240
2,note_on,51,0,0
2,note_on,50,20,0
2,note_on,56,36,0
2,note_on,56,0,240
2,note_on,58,23,0
2,note_on,58,0,240
2,note_on,56,27,0
2,note_on,56,0,240
2,note_on,58,23,0
2,note_on,58,0,240
2,note_on,56,27,0
2,note_on,56,0,240
2,note_on,58,24,0
2,note_on,58,0,240
2,note_on,50,0,0
2,note_on,51,20,0
2,note_on,55,33,0
2,note_on,55,0,240
2,note_on,58,23,0
2,note_on,58,0,240
2,note_on,55,27,0
2,note_on,55,0,240
2,note_on,58,23,0
2,note_on,58,0,240
2,note_on,55,27,0
2,note_on,55,0,240
2,note_on,58,25,0
2,note_on,58,0,240
2,note_on,51,0,0
2,note_on,50,20,0
2,note_on,56,33,0
2,note_on,56,0,240
2,note_on,58,27,0
2,note_on,58,0,240
2,note_on,56,27,0
2,note_on,56,0,240
2,note_on,58,24,0
2,note_on,58,0,240
2,note_on,56,27,0
2,note_on,56,0,240
2,note_on,58,23,0
2,note_on,58,0,240
2,note_on,50,0,0
2,note_on,51,21,0
2,note_on,55,35,0
2,note_on,55,0,240
2,note_on,58,24,0
2,note_on,58,0,240
2,note_on,55,28,0
2,note_on,55,0,240
2,note_on,58,23,0
2,note_on,58,0,240
2,note_on,55,27,0
2,note_on,55,0,240
2,note_on,58,23,0
2,note_on,58,0,240
2,note_on,51,0,0
2,note_on,50,21,0
2,note_on,53,38,0
2,note_on,53,0,240
2,note_on,56,24,0
2,note_on,56,0,240
2,note_on,53,32,0
2,note_on,53,0,240
2,note_on,56,28,0
2,note_on,56,0,240
2,note_on,53,32,0
2,note_on,53,0,240
2,note_on,56,27,0
2,note_on,56,0,240
2,note_on,50,0,0
2,note_on,51,23,0
2,note_on,55,37,0
2,note_on,55,0,240
2,note_on,60,32,0
2,note_on,60,0,240
2,note_on,55,34,0
2,note_on,55,0,240
2,note_on,60,29,0
2,note_on,60,0,240
2,note_on,55,30,0
2,note_on,55,0,240
2,note_on,60,28,0
2,note_on,60,0,240
2,note_on,51,0,0
2,note_on,51,23,0
2,note_on,53,37,0
2,note_on,53,0,240
2,note_on,60,30,0
2,note_on,60,0,240
2,note_on,53,30,0
2,note_on,53,0,240
2,note_on,60,27,0
2,note_on,53,30,240
2,note_on,60,0,12
2,note_on,53,0,228
2,note_on,60,26,0
2,note_on,60,0,240
2,note_on,51,0,0
2,note_on,50,27,0
2,note_on,53,44,0
2,note_on,53,0,240
2,note_on,58,30,0
2,note_on,58,0,240
2,note_on,53,36,0
2,note_on,53,0,240
2,note_on,58,30,0
2,note_on,58,0,240
2,note_on,53,36,0
2,note_on,53,0,240
2,note_on,58,33,0
2,note_on,58,0,240
2,note_on,50,0,0
2,note_on,48,27,0
2,note_on,55,44,0
2,note_on,55,0,240
2,note_on,58,36,0
2,note_on,58,0,240
2,note_on,55,36,0
2,note_on,55,0,240
2,note_on,58,31,0
2,note_on,55,36,240
2,note_on,58,0,12
2,note_on,55,0,228
2,note_on,58,30,0
2,note_on,58,0,240
2,note_on,48,0,0
2,note_on,50,27,0
2,note_on,53,44,0
2,note_on,53,0,240
2,note_on,57,28,0
2,note_on,57,0,240
2,note_on,53,36,0
2,note_on,53,0,240
2,note_on,57,28,0
2,note_on,57,0,240
2,note_on,53,35,0
2,note_on,53,0,240
2,note_on,57,27,0
2,note_on,57,0,240
2,note_on,50,0,0
2,note_on,55,37,0
2,note_on,62,37,0
2,note_on,62,0,240
2,note_on,65,36,0
2,note_on,65,0,240
2,note_on,62,36,0
2,note_on,62,0,240
2,note_on,65,30,0
2,note_on,62,36,240
2,note_on,65,0,12
2,note_on,62,0,228
2,note_on,65,30,0
2,note_on,65,0,240
2,note_on,55,0,0
2,note_on,60,44,0
2,note_on,64,44,0
2,note_on,64,0,480
2,note_on,60,0,0
2,note_on,70,50,480
2,note_on,70,0,240
2,note_on,69,55,240
2,note_on,69,0,240
2,note_on,64,59,240
2,note_on,64,0,240
2,note_on,65,57,240
2,note_on,65,0,240
2,note_on,60,62,240
2,note_on,60,0,480
2,note_on,70,50,480
2,note_on,70,0,240
2,note_on,69,58,240
2,note_on,69,0,240
2,note_on,64,62,240
2,note_on,64,0,240
2,note_on,65,56,240
2,note_on,65,0,240
2,note_on,60,61,240
2,note_on,60,0,480
2,note_on,60,47,600
2,note_on,60,0,120
2,note_on,55,54,0
2,note_on,55,0,120
2,note_on,52,47,0
2,note_on,52,0,120
2,note_on,48,69,0
2,note_on,48,0,120
2,note_on,36,59,360
2,note_on,36,0,480
2,note_on,53,34,480
2,note_on,48,30,960
2,note_on,53,0,20
2,note_on,48,0,460
2,note_on,45,34,0
2,note_on,48,32,960
2,note_on,45,0,20
2,note_on,48,0,460
2,note_on,53,34,0
2,note_on,57,36,960
2,note_on,53,0,20
2,note_on,57,0,460
2,note_on,60,38,0
2,note_on,60,0,480
2,note_on,58,34,960
2,note_on,55,30,960
2,note_on,58,0,20
2,note_on,55,0,460
2,note_on,52,34,0
2,note_on,55,32,960
2,note_on,52,0,20
2,note_on,55,0,460
2,note_on,58,34,0
2,note_on,64,36,960
2,note_on,58,0,20
2,note_on,64,0,460
2,note_on,67,38,0
2,note_on,67,0,480
2,note_on,69,35,960
2,note_on,69,0,240
2,note_on,72,28,0
2,note_on,72,0,240
2,note_on,69,35,0
2,note_on,69,0,240
2,note_on,72,25,0
2,note_on,72,0,240
2,note_on,69,32,0
2,note_on,69,0,240
2,note_on,72,24,0
2,note_on,72,0,240
2,note_on,70,35,0
2,note_on,70,0,240
2,note_on,72,31,0
2,note_on,72,0,240
2,note_on,70,35,0
2,note_on,70,0,240
2,note_on,72,26,0
2,note_on,72,0,240
2,note_on,70,33,0
2,note_on,70,0,240
2,note_on,72,29,0
2,note_on,72,0,240
2,note_on,69,35,0
2,note_on,69,0,240
2,note_on,72,30,0
2,note_on,72,0,240
2,note_on,69,32,0
2,note_on,69,0,240
2,note_on,72,24,0
2,note_on,72,0,240
2,note_on,69,32,0
2,note_on,69,0,240
2,note_on,72,25,0
2,note_on,72,0,240
2,note_on,70,35,0
2,note_on,70,0,240
2,note_on,72,31,0
2,note_on,72,0,240
2,note_on,70,35,0
2,note_on,70,0,240
2,note_on,72,26,0
2,note_on,72,0,240
2,note_on,70,33,0
2,note_on,70,0,240
2,note_on,72,29,0
2,note_on,72,0,240
2,note_on,69,35,0
2,note_on,69,0,240
2,note_on,72,30,0
2,note_on,72,0,240
2,note_on,69,32,0
2,note_on,69,0,240
2,note_on,72,28,0
2,note_on,72,0,240
2,note_on,69,38,0
2,note_on,69,0,240
2,note_on,72,31,0
2,note_on,72,0,240
2,note_on,62,40,0
2,note_on,69,40,0
2,note_on,69,0,240
2,note_on,72,34,0
2,note_on,72,0,240
2,note_on,69,38,0
2,note_on,69,0,240
2,note_on,72,32,0
2,note_on,72,0,240
2,note_on,69,39,0
2,note_on,69,0,240
2,note_on,72,32,0
2,note_on,72,0,240
2,note_on,62,0,0
2,note_on,67,39,0
2,note_on,70,39,0
2,note_on,70,0,480
2,note_on,67,0,0
2,note_on,72,35,0
2,note_on,64,35,0
2,note_on,64,0,480
2,note_on,65,35,0
2,note_on,65,0,480
2,note_on,72,0,0
2,note_on,58,43,0
2,note_on,70,43,0
2,note_on,70,0,480
2,note_on,58,0,0
2,note_on,60,40,0
2,note_on,69,40,0
2,note_on,69,0,480
2,note_on,67,40,0
2,note_on,67,0,480
2,note_on,60,0,0
2,note_on,65,40,0
2,note_on,65,0,480
2,note_on,57,49,240
2,note_on,57,0,240
2,note_on,55,55,0
2,note_on,55,0,240
2,note_on,53,48,0
2,note_on,53,0,240
2,note_on,52,48,0
2,note_on,52,0,480
2,note_on,62,45,240
2,note_on,62,0,240
2,note_on,60,50,0
2,note_on,60,0,240
2,note_on,52,45,0
2,note_on,52,0,240
2,note_on,53,40,0
2,note_on,53,0,480
2,note_on,57,50,240
2,note_on,57,0,240
2,note_on,55,55,0
2,note_on,55,0,240
2,note_on,53,47,0
2,note_on,53,0,240
2,note_on,52,47,0
2,note_on,52,0,480
2,note_on,62,45,240
2,note_on,62,0,240
2,note_on,60,50,0
2,note_on,60,0,240
2,note_on,52,45,0
2,note_on,52,0,240
2,note_on,53,40,0
2,note_on,53,0,480
2,note_on,60,47,240
2,note_on,60,0,240
2,note_on,57,52,0
2,note_on,57,0,240
2,note_on,55,47,0
2,note_on,55,0,240
2,note_on,54,44,0
2,note_on,54,0,480
2,note_on,63,45,240
2,note_on,63,0,240
2,note_on,62,50,0
2,note_on,62,0,240
2,note_on,54,45,0
2,note_on,54,0,240
2,note_on,55,42,0
2,note_on,55,0,120
2,note_on,62,33,0
2,note_on,62,0,120
2,note_on,59,36,0
2,note_on,59,0,120
2,note_on,62,33,0
2,note_on,62,0,120
2,note_on,52,38,0
2,note_on,52,0,120
2,note_on,61,33,0
2,note_on,61,0,120
2,note_on,55,36,0
2,note_on,55,0,120
2,note_on,61,33,0
2,note_on,61,0,120
2,note_on,53,39,0
2,note_on,53,0,120
2,note_on,60,33,0
2,note_on,60,0,120
2,note_on,57,37,0
2,note_on,57,0,120
2,note_on,60,37,0
2,note_on,60,0,120
2,note_on,46,31,0
2,note_on,58,37,0
2,note_on,58,0,480
2,note_on,46,0,0
2,note_on,48,31,0
2,note_on,57,37,0
2,note_on,57,0,480
2,note_on,48,0,0
2,note_on,46,31,0
2,note_on,55,37,0
2,note_on,55,0,480
2,note_on,46,0,0
2,note_on,45,34,0
2,note_on,53,40,0
2,note_on,53,0,480
2,note_on,45,0,0
2,note_on,60,37,480
2,note_on,57,31,0
2,note_on,57,0,480
2,note_on,60,0,0
2,note_on,58,37,0
2,note_on,62,44,0
2,note_on,62,0,480
2,note_on,58,0,0
2,note_on,50,31,480
2,note_on,53,31,0
2,note_on,55,37,0
2,note_on,55,0,480
2,note_on,53,0,0
2,note_on,50,0,0
2,note_on,48,45,0
2,note_on,48,0,120
2,note_on,57,37,0
2,note_on,57,0,120
2,note_on,53,40,0
2,note_on,53,0,120
2,note_on,57,37,0
2,note_on,57,0,120
2,note_on,48,45,0
2,note_on,48,0,120
2,note_on,57,37,0
2,note_on,57,0,120
2,note_on,53,40,0
2,note_on,53,0,120
2,note_on,57,37,0
2,note_on,57,0,120
2,note_on,48,48,0
2,note_on,48,0,120
2,note_on,57,37,0
2,note_on,57,0,120
2,note_on,53,41,0
2,note_on,53,0,120
2,note_on,57,37,0
2,note_on,57,0,120
2,note_on,48,45,0
2,note_on,48,0,120
2,note_on,58,37,0
2,note_on,58,0,120
2,note_on,52,40,0
2,note_on,52,0,120
2,note_on,58,37,0
2,note_on,58,0,120
2,note_on,48,45,0
2,note_on,48,0,120
2,note_on,58,37,0
2,note_on,58,0,120
2,note_on,52,40,0
2,note_on,52,0,120
2,note_on,58,37,0
2,note_on,58,0,120
2,note_on,48,48,0
2,note_on,48,0,120
2,note_on,58,37,0
2,note_on,58,0,120
2,note_on,52,41,0
2,note_on,52,0,120
2,note_on,58,37,0
2,note_on,58,0,120
2,note_on,53,41,0
2,note_on,57,28,240
2,note_on,53,0,12
2,note_on,60,35,228
2,note_on,57,0,12
2,note_on,65,34,228
2,note_on,60,0,12
2,note_on,64,32,228
2,note_on,65,0,12
2,note_on,63,30,228
2,note_on,64,0,12
2,note_on,62,28,228
2,note_on,63,0,12
2,note_on,62,0,228
2,note_on,65,21,0
2,note_on,65,0,240
2,note_on,60,31,0
2,note_on,60,0,240
2,note_on,65,24,0
2,note_on,65,0,240
2,note_on,58,31,0
2,note_on,58,0,240
2,note_on,65,25,0
2,note_on,65,0,240
2,note_on,57,31,0
2,note_on,57,0,240
2,note_on,65,28,0
2,note_on,65,0,240
2,note_on,64,31,0
2,note_on,64,0,240
2,note_on,65,28,0
2,note_on,65,0,240
2,note_on,58,31,0
2,note_on,58,0,240
2,note_on,67,27,0
2,note_on,67,0,240
2,note_on,60,31,0
2,note_on,60,0,240
2,note_on,69,27,0
2,note_on,69,0,240
2,note_on,65,31,0
2,note_on,65,0,240
2,note_on,69,29,0
2,note_on,69,0,240
2,note_on,60,31,0
2,note_on,60,0,240
2,note_on,70,27,0
2,note_on,70,0,240
2,note_on,69,31,0
2,note_on,69,0,240
2,note_on,65,24,0
2,note_on,65,0,240
2,note_on,64,30,0
2,note_on,64,0,240
2,note_on,63,26,0
2,note_on,63,0,240
2,note_on,62,29,0
2,note_on,62,0,240
2,note_on,61,31,0
2,note_on,61,0,240
2,note_on,62,28,0
2,note_on,62,0,240
2,note_on,65,27,0
2,note_on,65,0,240
2,note_on,60,38,0
2,note_on,60,0,240
2,note_on,64,32,0
2,note_on,64,0,240
2,note_on,59,40,0
2,note_on,59,0,240
2,note_on,68,34,0
2,note_on,68,0,240
2,note_on,60,41,0
2,note_on,60,0,240
2,note_on,69,35,0
2,note_on,69,0,240
2,note_on,65,38,0
2,note_on,65,0,240
2,note_on,69,33,0
2,note_on,69,0,240
2,note_on,60,40,0
2,note_on,60,0,240
2,note_on,69,35,0
2,note_on,69,0,240
2,note_on,60,41,0
2,note_on,60,0,240
2,note_on,72,33,0
2,note_on,72,0,240
2,note_on,69,43,0
2,note_on,69,0,240
2,note_on,72,33,0
2,note_on,72,0,240
2,note_on,60,45,0
2,note_on,60,0,240
2,note_on,70,38,0
2,note_on,70,0,240
2,note_on,53,54,120
2,note_on,53,0,120
2,note_on,57,56,0
2,note_on,57,0,120
2,note_on,60,59,0
2,note_on,60,0,120
2,note_on,65,61,0
2,note_on,65,0,240
2,note_on,60,54,240
2,note_on,64,54,0
2,note_on,64,0,240
2,note_on,60,0,0
2,note_on,41,54,360
2,note_on,41,0,120
2,note_on,45,56,0
2,note_on,45,0,120
2,note_on,48,59,0
2,note_on,48,0,120
2,note_on,53,61,0
2,note_on,53,0,240
2,note_on,48,54,240
2,note_on,52,54,0
2,note_on,52,0,240
2,note_on,48,0,0
2,note_on,53,59,240
2,note_on,53,0,120
2,note_on,41,59,360
2,note_on,41,0,480
2,note_on,58,40,480
2,note_on,58,0,960
2,note_on,53,36,0
2,note_on,53,0,480
2,note_on,50,40,0
2,note_on,50,0,960
2,note_on,53,38,0
2,note_on,53,0,480
2,note_on,58,41,0
2,note_on,58,0,960
2,note_on,62,43,0
2,note_on,62,0,480
2,note_on,65,45,0
2,note_on,65,0,960
2,note_on,63,36,480
2,note_on,53,30,0
2,note_on,60,30,0
2,note_on,60,0,2880
2,note_on,53,0,0
2,note_on,63,0,0
2,note_on,58,32,0
2,note_on,62,38,0
2,note_on,62,0,480
2,note_on,58,0,0
2,note_on,53,30,2400
2,note_on,60,30,0
2,note_on,63,36,0
2,note_on,63,0,2880
2,note_on,60,0,0
2,note_on,53,0,0
2,note_on,58,34,0
2,note_on,62,40,0
2,note_on,62,0,120
2,note_on,58,0,0
2,note_on,62,38,360
2,note_on,58,32,0
2,note_on,58,0,120
2,note_on,62,0,0
2,note_on,58,32,360
2,note_on,65,38,0
2,note_on,65,0,120
2,note_on,58,0,0
2,note_on,58,34,360
2,note_on,62,40,0
2,note_on,62,0,480
2,note_on,58,0,0
2,note_on,58,30,1440
2,note_on,51,25,0
2,note_on,55,25,0
2,note_on,55,0,480
2,note_on,51,0,0
2,note_on,58,0,0
2,note_on,50,25,960
2,note_on,53,25,0
2,note_on,58,30,0
2,note_on,58,0,480
2,note_on,53,0,0
2,note_on,50,0,0
2,note_on,57,29,480
2,note_on,65,34,0
2,note_on,57,0,1440
2,note_on,58,34,0
2,note_on,58,0,480
2,note_on,65,0,0
2,note_on,51,25,1440
2,note_on,55,25,0
2,note_on,58,30,0
2,note_on,58,0,480
2,note_on,55,0,0
2,note_on,51,0,0
2,note_on,50,25,960
2,note_on,53,25,0
2,note_on,58,30,0
2,note_on,58,0,480
2,note_on,53,0,0
2,note_on,50,0,0
2,note_on,53,29,480
2,note_on,57,34,0
2,note_on,57,0,480
2,note_on,60,31,0
2,note_on,60,0,480
2,note_on,63,29,0
2,note_on,63,0,480
2,note_on,53,0,0
2,note_on,62,34,0
2,note_on,58,28,0
2,note_on,58,0,480
2,note_on,62,0,0
2,note_on,55,73,960
2,note_on,55,0,120
2,note_on,43,66,360
2,note_on,43,0,120
2,note_on,50,73,840
2,note_on,50,0,120
2,note_on,38,66,360
2,note_on,38,0,120
2,note_on,51,20,840
2,note_on,55,33,0
2,note_on,55,0,240
2,note_on,58,23,0
2,note_on,58,0,240
2,note_on,55,27,0
2,note_on,55,0,240
2,note_on,58,22,0
2,note_on,58,0,240
2,note_on,55,26,0
2,note_on,55,0,240
2,note_on,58,22,0
2,note_on,58,0,240
2,note_on,51,0,0
2,note_on,50,20,0
2,note_on,56,36,0
2,note_on,56,0,240
2,note_on,58,23,0
2,note_on,58,0,240
2,note_on,56,27,0
2,note_on,56,0,240
2,note_on,58,23,0
2,note_on,58,0,240
2,note_on,56,27,0
2,note_on,56,0,240
2,note_on,58,24,0
2,note_on,58,0,240
2,note_on,50,0,0
2,note_on,51,20,0
2,note_on,55,33,0
2,note_on,55,0,240
2,note_on,58,23,0
2,note_on,58,0,240
2,note_on,55,27,0
2,note_on,55,0,240
2,note_on,58,23,0
2,note_on,58,0,240
2,note_on,55,27,0
2,note_on,55,0,240
2,note_on,58,25,0
2,note_on,58,0,240
2,note_on,51,0,0
2,note_on,50,20,0
2,note_on,56,33,0
2,note_on,56,0,240
2,note_on,58,27,0
2,note_on,58,0,240
2,note_on,56,27,0
2,note_on,56,0,240
2,note_on,58,24,0
2,note_on,58,0,240
2,note_on,56,27,0
2,note_on,56,0,240
2,note_on,58,23,0
2,note_on,58,0,240
2,note_on,50,0,0
2,note_on,51,21,0
2,note_on,55,35,0
2,note_on,55,0,240
2,note_on,58,24,0
2,note_on,58,0,240
2,note_on,55,28,0
2,note_on,55,0,240
2,note_on,58,23,0
2,note_on,58,0,240
2,note_on,55,27,0
2,note_on,55,0,240
2,note_on,58,23,0
2,note_on,58,0,240
2,note_on,51,0,0
2,note_on,50,21,0
2,note_on,53,38,0
2,note_on,53,0,240
2,note_on,56,24,0
2,note_on,56,0,240
2,note_on,53,32,0
2,note_on,53,0,240
2,note_on,56,28,0
2,note_on,56,0,240
2,note_on,53,32,0
2,note_on,53,0,240
2,note_on,56,27,0
2,note_on,56,0,240
2,note_on,50,0,0
2,note_on,51,23,0
2,note_on,55,37,0
2,note_on,55,0,240
2,note_on,60,32,0
2,note_on,60,0,240
2,note_on,55,34,0
2,note_on,55,0,240
2,note_on,60,29,0
2,note_on,60,0,240
2,note_on,55,30,0
2,note_on,55,0,240
2,note_on,60,28,0
2,note_on,60,0,240
2,note_on,51,0,0
2,note_on,51,23,0
2,note_on,53,37,0
2,note_on,53,0,240
2,note_on,60,30,0
2,note_on,60,0,240
2,note_on,53,30,0
2,note_on,53,0,240
2,note_on,60,27,0
2,note_on,53,30,240
2,note_on,60,0,12
2,note_on,53,0,228
2,note_on,60,26,0
2,note_on,60,0,240
2,note_on,51,0,0
2,note_on,50,27,0
2,note_on,53,44,0
2,note_on,53,0,240
2,note_on,58,30,0
2,note_on,58,0,240
2,note_on,53,36,0
2,note_on,53,0,240
2,note_on,58,30,0
2,note_on,58,0,240
2,note_on,53,36,0
2,note_on,53,0,240
2,note_on,58,33,0
2,note_on,58,0,240
2,note_on,50,0,0
2,note_on,48,27,0
2,note_on,55,44,0
2,note_on,55,0,240
2,note_on,58,36,0
2,note_on,58,0,240
2,note_on,55,36,0
2,note_on,55,0,240
2,note_on,58,31,0
2,note_on,55,36,240
2,note_on,58,0,12
2,note_on,55,0,228
2,note_on,58,30,0
2,note_on,58,0,240
2,note_on,48,0,0
2,note_on,50,27,0
2,note_on,53,44,0
2,note_on,53,0,240
2,note_on,57,28,0
2,note_on,57,0,240
2,note_on,53,36,0
2,note_on,53,0,240
2,note_on,57,28,0
2,note_on,57,0,240
2,note_on,53,35,0
2,note_on,53,0,240
2,note_on,57,27,0
2,note_on,57,0,240
2,note_on,50,0,0
2,note_on,55,37,0
2,note_on,62,37,0
2,note_on,62,0,240
2,note_on,65,36,0
2,note_on,65,0,240
2,note_on,62,36,0
2,note_on,62,0,240
2,note_on,65,30,0
2,note_on,62,36,240
2,note_on,65,0,12
2,note_on,62,0,228
2,note_on,65,30,0
2,note_on,65,0,240
2,note_on,55,0,0
2,note_on,60,44,0
2,note_on,64,44,0
2,note_on,64,0,480
2,note_on,60,0,0
2,note_on,70,50,480
2,note_on,70,0,240
2,note_on,69,55,240
2,note_on,69,0,240
2,note_on,64,59,240
2,note_on,64,0,240
2,note_on,65,57,240
2,note_on,65,0,240
2,note_on,60,62,240
2,note_on,60,0,480
2,note_on,70,50,480
2,note_on,70,0,240
2,note_on,69,58,240
2,note_on,69,0,240
2,note_on,64,62,240
2,note_on,64,0,240
2,note_on,65,56,240
2,note_on,65,0,240
2,note_on,60,61,240
2,note_on,60,0,480
2,note_on,60,47,600
2,note_on,60,0,120
2,note_on,55,54,0
2,note_on,55,0,120
2,note_on,52,47,0
2,note_on,52,0,120
2,note_on,48,69,0
2,note_on,48,0,120
2,note_on,36,59,360
2,note_on,36,0,480
2,note_on,53,34,480
2,note_on,48,30,960
2,note_on,53,0,20
2,note_on,48,0,460
2,note_on,45,34,0
2,note_on,48,32,960
2,note_on,45,0,20
2,note_on,48,0,460
2,note_on,53,34,0
2,note_on,57,36,960
2,note_on,53,0,20
2,note_on,57,0,460
2,note_on,60,38,0
2,note_on,60,0,480
2,note_on,58,34,960
2,note_on,55,30,960
2,note_on,58,0,20
2,note_on,55,0,460
2,note_on,52,34,0
2,note_on,55,32,960
2,note_on,52,0,20
2,note_on,55,0,460
2,note_on,58,34,0
2,note_on,64,36,960
2,note_on,58,0,20
2,note_on,64,0,460
2,note_on,67,38,0
2,note_on,67,0,480
2,note_on,69,35,960
2,note_on,69,0,240
2,note_on,72,28,0
2,note_on,72,0,240
2,note_on,69,35,0
2,note_on,69,0,240
2,note_on,72,25,0
2,note_on,72,0,240
2,note_on,69,32,0
2,note_on,69,0,240
2,note_on,72,24,0
2,note_on,72,0,240
2,note_on,70,35,0
2,note_on,70,0,240
2,note_on,72,31,0
2,note_on,72,0,240
2,note_on,70,35,0
2,note_on,70,0,240
2,note_on,72,26,0
2,note_on,72,0,240
2,note_on,70,33,0
2,note_on,70,0,240
2,note_on,72,29,0
2,note_on,72,0,240
2,note_on,69,35,0
2,note_on,69,0,240
2,note_on,72,30,0
2,note_on,72,0,240
2,note_on,69,32,0
2,note_on,69,0,240
2,note_on,72,24,0
2,note_on,72,0,240
2,note_on,69,32,0
2,note_on,69,0,240
2,note_on,72,25,0
2,note_on,72,0,240
2,note_on,70,35,0
2,note_on,70,0,240
2,note_on,72,31,0
2,note_on,72,0,240
2,note_on,70,35,0
2,note_on,70,0,240
2,note_on,72,26,0
2,note_on,72,0,240
2,note_on,70,33,0
2,note_on,70,0,240
2,note_on,72,29,0
2,note_on,72,0,240
2,note_on,69,35,0
2,note_on,69,0,240
2,note_on,72,30,0
2,note_on,72,0,240
2,note_on,69,32,0
2,note_on,69,0,240
2,note_on,72,28,0
2,note_on,72,0,240
2,note_on,69,38,0
2,note_on,69,0,240
2,note_on,72,31,0
2,note_on,72,0,240
2,note_on,62,40,0
2,note_on,69,40,0
2,note_on,69,0,240
2,note_on,72,34,0
2,note_on,72,0,240
2,note_on,69,38,0
2,note_on,69,0,240
2,note_on,72,32,0
2,note_on,72,0,240
2,note_on,69,39,0
2,note_on,69,0,240
2,note_on,72,32,0
2,note_on,72,0,240
2,note_on,62,0,0
2,note_on,67,39,0
2,note_on,70,39,0
2,note_on,70,0,480
2,note_on,67,0,0
2,note_on,72,35,0
2,note_on,64,35,0
2,note_on,64,0,480
2,note_on,65,35,0
2,note_on,65,0,480
2,note_on,72,0,0
2,note_on,58,43,0
2,note_on,70,43,0
2,note_on,70,0,480
2,note_on,58,0,0
2,note_on,60,40,0
2,note_on,69,40,0
2,note_on,69,0,480
2,note_on,67,40,0
2,note_on,67,0,480
2,note_on,60,0,0
2,note_on,65,40,0
2,note_on,65,0,480
2,note_on,57,49,240
2,note_on,57,0,240
2,note_on,55,55,0
2,note_on,55,0,240
2,note_on,53,48,0
2,note_on,53,0,240
2,note_on,52,48,0
2,note_on,52,0,480
2,note_on,62,45,240
2,note_on,62,0,240
2,note_on,60,50,0
2,note_on,60,0,240
2,note_on,52,45,0
2,note_on,52,0,240
2,note_on,53,40,0
2,note_on,53,0,480
2,note_on,57,50,240
2,note_on,57,0,240
2,note_on,55,55,0
2,note_on,55,0,240
2,note_on,53,47,0
2,note_on,53,0,240
2,note_on,52,47,0
2,note_on,52,0,480
2,note_on,62,45,240
2,note_on,62,0,240
2,note_on,60,50,0
2,note_on,60,0,240
2,note_on,52,45,0
2,note_on,52,0,240
2,note_on,53,40,0
2,note_on,53,0,480
2,note_on,60,47,240
2,note_on,60,0,240
2,note_on,57,52,0
2,note_on,57,0,240
2,note_on,55,47,0
2,note_on,55,0,240
2,note_on,54,44,0
2,note_on,54,0,480
2,note_on,63,45,240
2,note_on,63,0,240
2,note_on,62,50,0
2,note_on,62,0,240
2,note_on,54,45,0
2,note_on,54,0,240
2,note_on,55,42,0
2,note_on,55,0,120
2,note_on,62,33,0
2,note_on,62,0,120
2,note_on,59,36,0
2,note_on,59,0,120
2,note_on,62,33,0
2,note_on,62,0,120
2,note_on,52,38,0
2,note_on,52,0,120
2,note_on,61,33,0
2,note_on,61,0,120
2,note_on,55,36,0
2,note_on,55,0,120
2,note_on,61,33,0
2,note_on,61,0,120
2,note_on,53,39,0
2,note_on,53,0,120
2,note_on,60,33,0
2,note_on,60,0,120
2,note_on,57,37,0
2,note_on,57,0,120
2,note_on,60,37,0
2,note_on,60,0,120
2,note_on,46,31,0
2,note_on,58,37,0
2,note_on,58,0,480
2,note_on,46,0,0
2,note_on,48,31,0
2,note_on,57,37,0
2,note_on,57,0,480
2,note_on,48,0,0
2,note_on,46,31,0
2,note_on,55,37,0
2,note_on,55,0,480
2,note_on,46,0,0
2,note_on,45,34,0
2,note_on,53,40,0
2,note_on,53,0,480
2,note_on,45,0,0
2,note_on,60,37,480
2,note_on,57,31,0
2,note_on,57,0,480
2,note_on,60,0,0
2,note_on,58,37,0
2,note_on,62,44,0
2,note_on,62,0,480
2,note_on,58,0,0
2,note_on,50,31,480
2,note_on,53,31,0
2,note_on,55,37,0
2,note_on,55,0,480
2,note_on,53,0,0
2,note_on,50,0,0
2,note_on,48,45,0
2,note_on,48,0,120
2,note_on,57,37,0
2,note_on,57,0,120
2,note_on,53,40,0
2,note_on,53,0,120
2,note_on,57,37,0
2,note_on,57,0,120
2,note_on,48,45,0
2,note_on,48,0,120
2,note_on,57,37,0
2,note_on,57,0,120
2,note_on,53,40,0
2,note_on,53,0,120
2,note_on,57,37,0
2,note_on,57,0,120
2,note_on,48,48,0
2,note_on,48,0,120
2,note_on,57,37,0
2,note_on,57,0,120
2,note_on,53,41,0
2,note_on,53,0,120
2,note_on,57,37,0
2,note_on,57,0,120
2,note_on,48,45,0
2,note_on,48,0,120
2,note_on,58,37,0
2,note_on,58,0,120
2,note_on,52,40,0
2,note_on,52,0,120
2,note_on,58,37,0
2,note_on,58,0,120
2,note_on,48,45,0
2,note_on,48,0,120
2,note_on,58,37,0
2,note_on,58,0,120
2,note_on,52,40,0
2,note_on,52,0,120
2,note_on,58,37,0
2,note_on,58,0,120
2,note_on,48,48,0
2,note_on,48,0,120
2,note_on,58,37,0
2,note_on,58,0,120
2,note_on,52,41,0
2,note_on,52,0,120
2,note_on,58,37,0
2,note_on,58,0,120
2,note_on,53,41,0
2,note_on,57,28,240
2,note_on,53,0,12
2,note_on,60,35,228
2,note_on,57,0,12
2,note_on,65,34,228
2,note_on,60,0,12
2,note_on,64,32,228
2,note_on,65,0,12
2,note_on,63,30,228
2,note_on,64,0,12
2,note_on,62,28,228
2,note_on,63,0,12
2,note_on,62,0,228
2,note_on,65,21,0
2,note_on,65,0,240
2,note_on,60,31,0
2,note_on,60,0,240
2,note_on,65,24,0
2,note_on,65,0,240
2,note_on,58,31,0
2,note_on,58,0,240
2,note_on,65,25,0
2,note_on,65,0,240
2,note_on,57,31,0
2,note_on,57,0,240
2,note_on,65,28,0
2,note_on,65,0,240
2,note_on,64,31,0
2,note_on,64,0,240
2,note_on,65,28,0
2,note_on,65,0,240
2,note_on,58,31,0
2,note_on,58,0,240
2,note_on,67,27,0
2,note_on,67,0,240
2,note_on,60,31,0
2,note_on,60,0,240
2,note_on,69,27,0
2,note_on,69,0,240
2,note_on,65,31,0
2,note_on,65,0,240
2,note_on,69,29,0
2,note_on,69,0,240
2,note_on,60,31,0
2,note_on,60,0,240
2,note_on,70,27,0
2,note_on,70,0,240
2,note_on,69,31,0
2,note_on,69,0,240
2,note_on,65,24,0
2,note_on,65,0,240
2,note_on,64,30,0
2,note_on,64,0,240
2,note_on,63,26,0
2,note_on,63,0,240
2,note_on,62,29,0
2,note_on,62,0,240
2,note_on,61,31,0
2,note_on,61,0,240
2,note_on,62,28,0
2,note_on,62,0,240
2,note_on,65,27,0
2,note_on,65,0,240
2,note_on,60,38,0
2,note_on,60,0,240
2,note_on,64,32,0
2,note_on,64,0,240
2,note_on,59,40,0
2,note_on,59,0,240
2,note_on,68,34,0
2,note_on,68,0,240
2,note_on,60,41,0
2,note_on,60,0,240
2,note_on,69,35,0
2,note_on,69,0,240
2,note_on,65,38,0
2,note_on,65,0,240
2,note_on,69,33,0
2,note_on,69,0,240
2,note_on,60,40,0
2,note_on,60,0,240
2,note_on,69,35,0
2,note_on,69,0,240
2,note_on,60,41,0
2,note_on,60,0,240
2,note_on,72,33,0
2,note_on,72,0,240
2,note_on,69,43,0
2,note_on,69,0,240
2,note_on,72,33,0
2,note_on,72,0,240
2,note_on,60,45,0
2,note_on,60,0,240
2,note_on,70,38,0
2,note_on,70,0,240
2,note_on,53,54,120
2,note_on,53,0,120
2,note_on,57,56,0
2,note_on,57,0,120
2,note_on,60,59,0
2,note_on,60,0,120
2,note_on,65,61,0
2,note_on,65,0,240
2,note_on,60,54,240
2,note_on,64,54,0
2,note_on,64,0,240
2,note_on,60,0,0
2,note_on,41,54,360
2,note_on,41,0,120
2,note_on,45,56,0
2,note_on,45,0,120
2,note_on,48,59,0
2,note_on,48,0,120
2,note_on,53,61,0
2,note_on,53,0,240
2,note_on,48,54,240
2,note_on,52,54,0
2,note_on,52,0,240
2,note_on,48,0,0
2,note_on,53,59,240
2,note_on,53,0,120
2,note_on,41,59,360
2,note_on,41,0,480
2,note_on,51,59,480
2,note_on,51,0,480
2,note_on,39,59,0
2,note_on,39,0,480
2,note_on,49,20,480
2,note_on,53,33,0
2,note_on,53,0,240
2,note_on,56,23,0
2,note_on,56,0,240
2,note_on,53,27,0
2,note_on,53,0,240
2,note_on,56,22,0
2,note_on,56,0,240
2,note_on,53,26,0
2,note_on,53,0,240
2,note_on,56,22,0
2,note_on,56,0,240
2,note_on,49,0,0
2,note_on,48,20,0
2,note_on,54,36,0
2,note_on,54,0,240
2,note_on,56,23,0
2,note_on,56,0,240
2,note_on,54,27,0
2,note_on,54,0,240
2,note_on,56,23,0
2,note_on,56,0,240
2,note_on,54,27,0
2,note_on,54,0,240
2,note_on,56,24,0
2,note_on,56,0,240
2,note_on,48,0,0
2,note_on,49,20,0
2,note_on,53,33,0
2,note_on,53,0,240
2,note_on,56,23,0
2,note_on,56,0,240
2,note_on,53,27,0
2,note_on,53,0,240
2,note_on,56,23,0
2,note_on,56,0,240
2,note_on,53,27,0
2,note_on,53,0,240
2,note_on,56,25,0
2,note_on,56,0,240
2,note_on,49,0,0
2,note_on,48,20,0
2,note_on,54,31,0
2,note_on,54,0,240
2,note_on,56,27,0
2,note_on,56,0,240
2,note_on,54,27,0
2,note_on,54,0,240
2,note_on,56,24,0
2,note_on,56,0,240
2,note_on,54,27,0
2,note_on,54,0,240
2,note_on,56,23,0
2,note_on,56,0,240
2,note_on,48,0,0
2,note_on,49,21,0
2,note_on,53,35,0
2,note_on,53,0,240
2,note_on,56,24,0
2,note_on,56,0,240
2,note_on,53,28,0
2,note_on,53,0,240
2,note_on,56,23,0
2,note_on,56,0,240
2,note_on,53,27,0
2,note_on,53,0,240
2,note_on,56,23,0
2,note_on,56,0,240
2,note_on,49,0,0
2,note_on,48,21,0
2,note_on,51,38,0
2,note_on,51,0,240
2,note_on,54,24,0
2,note_on,54,0,240
2,note_on,51,32,0
2,note_on,51,0,240
2,note_on,54,28,0
2,note_on,54,0,240
2,note_on,51,32,0
2,note_on,51,0,240
2,note_on,54,27,0
2,note_on,54,0,240
2,note_on,48,0,0
2,note_on,49,23,0
2,note_on,53,37,0
2,note_on,53,0,240
2,note_on,58,32,0
2,note_on,58,0,240
2,note_on,53,34,0
2,note_on,53,0,240
2,note_on,58,29,0
2,note_on,58,0,240
2,note_on,53,30,0
2,note_on,53,0,240
2,note_on,58,28,0
2,note_on,58,0,240
2,note_on,49,0,0
2,note_on,52,23,0
2,note_on,58,37,0
2,note_on,58,0,240
2,note_on,61,30,0
2,note_on,61,0,240
2,note_on,58,30,0
2,note_on,58,0,240
2,note_on,61,27,0
2,note_on,58,30,240
2,note_on,61,0,12
2,note_on,58,0,228
2,note_on,61,26,0
2,note_on,61,0,240
2,note_on,52,0,0
2,note_on,53,25,0
2,note_on,56,40,0
2,note_on,56,0,240
2,note_on,60,28,0
2,note_on,60,0,240
2,note_on,56,33,0
2,note_on,56,0,240
2,note_on,60,28,0
2,note_on,60,0,240
2,note_on,56,36,0
2,note_on,56,0,240
2,note_on,60,32,0
2,note_on,60,0,240
2,note_on,53,0,0
2,note_on,55,36,0
2,note_on,62,36,0
2,note_on,62,0,240
2,note_on,65,29,0
2,note_on,65,0,240
2,note_on,62,34,0
2,note_on,62,0,240
2,note_on,65,28,0
2,note_on,62,35,240
2,note_on,65,0,12
2,note_on,62,0,228
2,note_on,65,28,0
2,note_on,65,0,240
2,note_on,55,0,0
2,note_on,56,42,0
2,note_on,60,42,0
2,note_on,60,0,240
2,note_on,63,26,0
2,note_on,63,0,240
2,note_on,60,38,0
2,note_on,60,0,240
2,note_on,63,31,0
2,note_on,63,0,240
2,note_on,60,38,0
2,note_on,60,0,240
2,note_on,63,35,0
2,note_on,63,0,240
2,note_on,56,0,0
2,note_on,57,41,0
2,note_on,60,41,0
2,note_on,60,0,240
2,note_on,62,33,0
2,note_on,62,0,240
2,note_on,60,37,0
2,note_on,60,0,240
2,note_on,62,28,0
2,note_on,60,35,240
2,note_on,62,0,12
2,note_on,60,0,228
2,note_on,62,28,0
2,note_on,62,0,240
2,note_on,57,0,0
2,note_on,58,22,0
2,note_on,62,36,0
2,note_on,62,0,240
2,note_on,67,29,0
2,note_on,67,0,240
2,note_on,62,34,0
2,note_on,62,0,240
2,note_on,67,28,0
2,note_on,67,0,240
2,note_on,62,34,0
2,note_on,62,0,240
2,note_on,67,27,0
2,note_on,67,0,240
2,note_on,58,0,0
2,note_on,63,29,0
2,note_on,67,36,0
2,note_on,67,0,240
2,note_on,69,28,0
2,note_on,69,0,240
2,note_on,67,34,0
2,note_on,67,0,240
2,note_on,69,27,0
2,note_on,67,34,240
2,note_on,69,0,12
2,note_on,67,0,228
2,note_on,69,25,0
2,note_on,69,0,240
2,note_on,63,0,0
2,note_on,62,44,0
2,note_on,66,44,0
2,note_on,66,0,480
2,note_on,62,0,0
2,note_on,72,47,480
2,note_on,72,0,240
2,note_on,70,51,240
2,note_on,70,0,240
2,note_on,66,58,240
2,note_on,66,0,240
2,note_on,67,54,240
2,note_on,67,0,240
2,note_on,62,53,240
2,note_on,62,0,480
2,note_on,72,48,480
2,note_on,72,0,240
2,note_on,70,57,240
2,note_on,70,0,240
2,note_on,66,59,240
2,note_on,66,0,240
2,note_on,67,54,240
2,note_on,67,0,240
2,note_on,62,58,240
2,note_on,62,0,480
2,note_on,62,47,600
2,note_on,62,0,120
2,note_on,57,54,0
2,note_on,57,0,120
2,note_on,54,47,0
2,note_on,54,0,120
2,note_on,50,69,0
2,note_on,50,0,120
2,note_on,38,59,360
2,note_on,38,0,480
2,note_on,55,34,480
2,note_on,50,30,960
2,note_on,55,0,20
2,note_on,50,0,460
2,note_on,47,34,0
2,note_on,50,32,960
2,note_on,47,0,20
2,note_on,50,0,460
2,note_on,55,34,0
2,note_on,59,36,960
2,note_on,55,0,20
2,note_on,59,0,460
2,note_on,62,38,0
2,note_on,62,0,480
2,note_on,55,34,960
2,note_on,50,30,960
2,note_on,55,0,20
2,note_on,50,0,460
2,note_on,47,34,0
2,note_on,50,32,960
2,note_on,47,0,20
2,note_on,50,0,460
2,note_on,55,34,0
2,note_on,59,36,960
2,note_on,55,0,20
2,note_on,59,0,460
2,note_on,62,38,0
2,note_on,62,0,480
2,note_on,55,39,4080
2,note_on,55,0,60
2,note_on,55,42,180
2,note_on,55,0,60
2,note_on,55,37,180
2,note_on,55,0,60
2,note_on,55,39,180
2,note_on,55,0,60
2,note_on,55,35,180
2,note_on,55,0,60
2,note_on,56,39,180
2,note_on,55,35,240
2,note_on,56,0,12
2,note_on,53,37,228
2,note_on,55,0,12
2,note_on,51,35,228
2,note_on,53,0,12
2,note_on,50,39,228
2,note_on,51,0,12
2,note_on,48,34,228
2,note_on,50,0,12
2,note_on,48,0,228
2,note_on,48,35,0
2,note_on,48,0,240
2,note_on,46,38,0
2,note_on,46,0,240
2,note_on,46,39,0
2,note_on,46,0,480
2,note_on,58,39,2160
2,note_on,58,0,60
2,note_on,58,41,180
2,note_on,58,0,60
2,note_on,58,36,180
2,note_on,58,0,60
2,note_on,58,38,180
2,note_on,58,0,60
2,note_on,58,35,180
2,note_on,58,0,60
2,note_on,60,39,180
2,note_on,58,35,240
2,note_on,60,0,12
2,note_on,56,35,228
2,note_on,58,0,12
2,note_on,55,35,228
2,note_on,56,0,12
2,note_on,53,39,228
2,note_on,55,0,12
2,note_on,52,34,228
2,note_on,53,0,12
2,note_on,52,0,228
2,note_on,53,40,0
2,note_on,53,0,980
2,note_on,58,28,460
2,note_on,62,28,0
2,note_on,65,34,0
2,note_on,65,0,480
2,note_on,62,0,0
2,note_on,63,28,0
2,note_on,67,34,0
2,note_on,67,0,480
2,note_on,63,0,0
2,note_on,65,28,0
2,note_on,69,34,0
2,note_on,69,0,480
2,note_on,65,0,0
2,note_on,58,0,0
2,note_on,63,28,0
2,note_on,67,34,0
2,note_on,67,0,480
2,note_on,63,0,0
2,note_on,56,28,960
2,note_on,60,28,0
2,note_on,63,34,0
2,note_on,63,0,480
2,note_on,60,0,0
2,note_on,62,28,0
2,note_on,65,34,0
2,note_on,65,0,480
2,note_on,62,0,0
2,note_on,63,28,0
2,note_on,67,34,0
2,note_on,67,0,480
2,note_on,63,0,0
2,note_on,56,0,0
2,note_on,62,28,0
2,note_on,65,34,0
2,note_on,65,0,480
2,note_on,62,0,0
2,note_on,55,28,960
2,note_on,59,28,0
2,note_on,62,34,0
2,note_on,62,0,480
2,note_on,59,0,0
2,note_on,60,28,0
2,note_on,63,34,0
2,note_on,63,0,480
2,note_on,60,0,0
2,note_on,62,28,0
2,note_on,65,34,0
2,note_on,65,0,480
2,note_on,62,0,0
2,note_on,55,0,0
2,note_on,60,30,0
2,note_on,63,37,0
2,note_on,63,0,480
2,note_on,60,0,0
2,note_on,53,30,480
2,note_on,63,37,0
2,note_on,63,0,480
2,note_on,53,0,0
2,note_on,55,30,0
2,note_on,62,37,0
2,note_on,62,0,480
2,note_on,55,0,0
2,note_on,63,30,480
2,note_on,67,37,0
2,note_on,67,0,480
2,note_on,63,0,0
2,note_on,65,42,240
2,note_on,65,0,60
2,note_on,65,45,180
2,note_on,65,0,60
2,note_on,65,39,180
2,note_on,65,0,60
2,note_on,65,41,180
2,note_on,65,0,60
2,note_on,65,38,180
2,note_on,65,0,60
2,note_on,66,42,180
2,note_on,65,38,240
2,note_on,66,0,12
2,note_on,63,38,228
2,note_on,65,0,12
2,note_on,61,38,228
2,note_on,63,0,12
2,note_on,60,42,228
2,note_on,61,0,12
2,note_on,58,37,228
2,note_on,60,0,12
2,note_on,58,0,228
2,note_on,53,42,240
2,note_on,53,0,60
2,note_on,53,45,180
2,note_on,53,0,60
2,note_on,53,39,180
2,note_on,53,0,60
2,note_on,53,41,180
2,note_on,53,0,60
2,note_on,53,38,180
2,note_on,53,0,60
2,note_on,54,42,180
2,note_on,53,38,240
2,note_on,54,0,12
2,note_on,51,38,228
2,note_on,53,0,12
2,note_on,49,38,228
2,note_on,51,0,12
2,note_on,48,42,228
2,note_on,49,0,12
2,note_on,46,37,228
2,note_on,48,0,12
2,note_on,46,0,228
2,note_on,41,42,0
2,note_on,41,0,480
2,note_on,53,29,960
2,note_on,63,37,0
2,note_on,57,29,0
2,note_on,57,0,3360
2,note_on,63,0,0
2,note_on,53,0,0
2,note_on,58,33,960
2,note_on,58,0,960
2,note_on,53,31,0
2,note_on,53,0,480
2,note_on,50,37,0
2,note_on,50,0,960
2,note_on,53,38,0
2,note_on,53,0,480
2,note_on,58,41,0
2,note_on,58,0,960
2,note_on,62,43,0
2,note_on,62,0,480
2,note_on,65,43,0
2,note_on,65,0,960
2,note_on,63,36,480
2,note_on,53,30,0
2,note_on,60,30,0
2,note_on,60,0,2880
2,note_on,53,0,0
2,note_on,63,0,0
2,note_on,58,32,0
2,note_on,62,38,0
2,note_on,62,0,480
2,note_on,58,0,0
2,note_on,53,30,2400
2,note_on,60,30,0
2,note_on,63,36,0
2,note_on,63,0,2880
2,note_on,60,0,0
2,note_on,53,0,0
2,note_on,58,34,0
2,note_on,62,40,0
2,note_on,62,0,120
2,note_on,58,0,0
2,note_on,62,38,360
2,note_on,58,32,0
2,note_on,58,0,120
2,note_on,62,0,0
2,note_on,58,32,360
2,note_on,65,38,0
2,note_on,65,0,120
2,note_on,58,0,0
2,note_on,58,34,360
2,note_on,62,40,0
2,note_on,62,0,480
2,note_on,58,0,0
2,note_on,58,30,1440
2,note_on,51,25,0
2,note_on,55,25,0
2,note_on,55,0,480
2,note_on,51,0,0
2,note_on,58,0,0
2,note_on,50,25,960
2,note_on,53,25,0
2,note_on,58,30,0
2,note_on,58,0,480
2,note_on,53,0,0
2,note_on,50,0,0
2,note_on,57,29,480
2,note_on,65,34,0
2,note_on,57,0,1440
2,note_on,58,34,0
2,note_on,58,0,480
2,note_on,65,0,0
2,note_on,51,25,1440
2,note_on,55,25,0
2,note_on,58,30,0
2,note_on,58,0,480
2,note_on,55,0,0
2,note_on,51,0,0
2,note_on,50,25,960
2,note_on,53,25,0
2,note_on,58,30,0
2,note_on,58,0,480
2,note_on,53,0,0
2,note_on,50,0,0
2,note_on,53,29,480
2,note_on,57,34,0
2,note_on,57,0,480
2,note_on,60,31,0
2,note_on,60,0,480
2,note_on,63,29,0
2,note_on,63,0,480
2,note_on,53,0,0
2,note_on,62,34,0
2,note_on,58,28,0
2,note_on,58,0,480
2,note_on,62,0,0
2,note_on,55,73,960
2,note_on,55,0,120
2,note_on,43,66,360
2,note_on,43,0,120
2,note_on,50,73,840
2,note_on,50,0,120
2,note_on,38,66,360
2,note_on,38,0,120
2,note_on,51,20,840
2,note_on,55,33,0
2,note_on,55,0,240
2,note_on,58,23,0
2,note_on,58,0,240
2,note_on,55,27,0
2,note_on,55,0,240
2,note_on,58,22,0
2,note_on,58,0,240
2,note_on,55,26,0
2,note_on,55,0,240
2,note_on,58,22,0
2,note_on,58,0,240
2,note_on,51,0,0
2,note_on,50,20,0
2,note_on,56,36,0
2,note_on,56,0,240
2,note_on,58,23,0
2,note_on,58,0,240
2,note_on,56,27,0
2,note_on,56,0,240
2,note_on,58,23,0
2,note_on,58,0,240
2,note_on,56,27,0
2,note_on,56,0,240
2,note_on,58,24,0
2,note_on,58,0,240
2,note_on,50,0,0
2,note_on,51,20,0
2,note_on,55,33,0
2,note_on,55,0,240
2,note_on,58,23,0
2,note_on,58,0,240
2,note_on,55,27,0
2,note_on,55,0,240
2,note_on,58,23,0
2,note_on,58,0,240
2,note_on,55,27,0
2,note_on,55,0,240
2,note_on,58,25,0
2,note_on,58,0,240
2,note_on,51,0,0
2,note_on,50,20,0
2,note_on,56,33,0
2,note_on,56,0,240
2,note_on,58,27,0
2,note_on,58,0,240
2,note_on,56,27,0
2,note_on,56,0,240
2,note_on,58,24,0
2,note_on,58,0,240
2,note_on,56,27,0
2,note_on,56,0,240
2,note_on,58,23,0
2,note_on,58,0,240
2,note_on,50,0,0
2,note_on,51,21,0
2,note_on,55,35,0
2,note_on,55,0,240
2,note_on,58,24,0
2,note_on,58,0,240
2,note_on,55,28,0
2,note_on,55,0,240
2,note_on,58,23,0
2,note_on,58,0,240
2,note_on,55,27,0
2,note_on,55,0,240
2,note_on,58,23,0
2,note_on,58,0,240
2,note_on,51,0,0
2,note_on,50,21,0
2,note_on,53,38,0
2,note_on,53,0,240
2,note_on,56,24,0
2,note_on,56,0,240
2,note_on,53,32,0
2,note_on,53,0,240
2,note_on,56,28,0
2,note_on,56,0,240
2,note_on,53,32,0
2,note_on,53,0,240
2,note_on,56,27,0
2,note_on,56,0,240
2,note_on,50,0,0
2,note_on,51,23,0
2,note_on,55,37,0
2,note_on,55,0,240
2,note_on,60,32,0
2,note_on,60,0,240
2,note_on,55,34,0
2,note_on,55,0,240
2,note_on,60,29,0
2,note_on,60,0,240
2,note_on,55,30,0
2,note_on,55,0,240
2,note_on,60,28,0
2,note_on,60,0,240
2,note_on,51,0,0
2,note_on,54,23,0
2,note_on,60,37,0
2,note_on,60,0,240
2,note_on,63,30,0
2,note_on,63,0,240
2,note_on,60,30,0
2,note_on,60,0,240
2,note_on,63,27,0
2,note_on,60,30,240
2,note_on,63,0,12
2,note_on,60,0,228
2,note_on,63,26,0
2,note_on,63,0,240
2,note_on,54,0,0
2,note_on,55,27,0
2,note_on,58,44,0
2,note_on,58,0,240
2,note_on,62,30,0
2,note_on,62,0,240
2,note_on,58,36,0
2,note_on,58,0,240
2,note_on,62,30,0
2,note_on,62,0,240
2,note_on,58,36,0
2,note_on,58,0,240
2,note_on,62,33,0
2,note_on,62,0,240
2,note_on,55,0,0
2,note_on,60,27,0
2,note_on,67,44,0
2,note_on,67,0,240
2,note_on,70,36,0
2,note_on,70,0,240
2,note_on,67,36,0
2,note_on,67,0,240
2,note_on,70,31,0
2,note_on,67,36,240
2,note_on,70,0,12
2,note_on,67,0,228
2,note_on,70,30,0
2,note_on,70,0,240
2,note_on,60,0,0
2,note_on,65,44,0
2,note_on,69,44,0
2,note_on,69,0,480
2,note_on,65,0,0
2,note_on,75,46,480
2,note_on,75,0,240
2,note_on,74,52,240
2,note_on,74,0,240
2,note_on,69,56,240
2,note_on,69,0,240
2,note_on,70,53,240
2,note_on,70,0,240
2,note_on,65,59,240
2,note_on,65,0,480
2,note_on,75,51,480
2,note_on,75,0,240
2,note_on,74,57,240
2,note_on,74,0,240
2,note_on,69,59,240
2,note_on,69,0,240
2,note_on,70,54,240
2,note_on,70,0,240
2,note_on,65,62,240
2,note_on,65,0,480
2,note_on,65,47,600
2,note_on,65,0,120
2,note_on,60,54,0
2,note_on,60,0,120
2,note_on,57,47,0
2,note_on,57,0,120
2,note_on,53,69,0
2,note_on,53,0,120
2,note_on,41,59,360
2,note_on,41,0,480
2,note_on,58,34,480
2,note_on,53,30,960
2,note_on,58,0,20
2,note_on,53,0,460
2,note_on,50,34,0
2,note_on,53,32,960
2,note_on,50,0,20
2,note_on,53,0,460
2,note_on,58,34,0
2,note_on,62,36,960
2,note_on,58,0,20
2,note_on,62,0,460
2,note_on,65,38,0
2,note_on,65,0,480
2,note_on,51,34,960
2,note_on,48,30,960
2,note_on,51,0,20
2,note_on,48,0,460
2,note_on,45,34,0
2,note_on,48,32,960
2,note_on,45,0,20
2,note_on,48,0,460
2,note_on,51,34,0
2,note_on,57,36,960
2,note_on,51,0,20
2,note_on,57,0,460
2,note_on,60,38,0
2,note_on,60,0,480
2,note_on,62,35,960
2,note_on,62,0,240
2,note_on,65,28,0
2,note_on,65,0,240
2,note_on,62,35,0
2,note_on,62,0,240
2,note_on,65,25,0
2,note_on,65,0,240
2,note_on,62,32,0
2,note_on,62,0,240
2,note_on,65,24,0
2,note_on,65,0,240
2,note_on,63,35,0
2,note_on,63,0,240
2,note_on,65,31,0
2,note_on,65,0,240
2,note_on,63,35,0
2,note_on,63,0,240
2,note_on,65,26,0
2,note_on,65,0,240
2,note_on,63,33,0
2,note_on,63,0,240
2,note_on,65,29,0
2,note_on,65,0,240
2,note_on,62,35,0
2,note_on,62,0,240
2,note_on,65,30,0
2,note_on,65,0,240
2,note_on,62,32,0
2,note_on,62,0,240
2,note_on,65,24,0
2,note_on,65,0,240
2,note_on,62,32,0
2,note_on,62,0,240
2,note_on,65,25,0
2,note_on,65,0,240
2,note_on,63,35,0
2,note_on,63,0,240
2,note_on,65,31,0
2,note_on,65,0,240
2,note_on,63,35,0
2,note_on,63,0,240
2,note_on,65,26,0
2,note_on,65,0,240
2,note_on,63,33,0
2,note_on,63,0,240
2,note_on,65,29,0
2,note_on,65,0,240
2,note_on,61,35,0
2,note_on,61,0,240
2,note_on,65,30,0
2,note_on,65,0,240
2,note_on,61,32,0
2,note_on,61,0,240
2,note_on,65,28,0
2,note_on,65,0,240
2,note_on,61,38,0
2,note_on,61,0,240
2,note_on,65,31,0
2,note_on,65,0,240
2,note_on,55,40,0
2,note_on,62,40,0
2,note_on,62,0,240
2,note_on,65,34,0
2,note_on,65,0,240
2,note_on,62,38,0
2,note_on,62,0,240
2,note_on,65,32,0
2,note_on,65,0,240
2,note_on,62,39,0
2,note_on,62,0,240
2,note_on,65,32,0
2,note_on,65,0,240
2,note_on,55,0,0
2,note_on,60,39,0
2,note_on,63,39,0
2,note_on,63,0,480
2,note_on,60,0,0
2,note_on,65,35,0
2,note_on,57,35,0
2,note_on,57,0,480
2,note_on,58,35,0
2,note_on,58,0,480
2,note_on,65,0,0
2,note_on,51,43,0
2,note_on,63,43,0
2,note_on,63,0,480
2,note_on,51,0,0
2,note_on,53,40,0
2,note_on,62,40,0
2,note_on,62,0,480
2,note_on,60,40,0
2,note_on,60,0,480
2,note_on,53,0,0
2,note_on,58,40,0
2,note_on,58,0,480
2,note_on,50,45,240
2,note_on,50,0,240
2,note_on,48,50,0
2,note_on,48,0,240
2,note_on,46,45,0
2,note_on,46,0,240
2,note_on,45,40,0
2,note_on,45,0,480
2,note_on,55,45,240
2,note_on,55,0,240
2,note_on,53,50,0
2,note_on,53,0,240
2,note_on,45,45,0
2,note_on,45,0,240
2,note_on,46,40,0
2,note_on,46,0,480
2,note_on,62,48,240
2,note_on,62,0,240
2,note_on,60,52,0
2,note_on,60,0,240
2,note_on,58,48,0
2,note_on,58,0,240
2,note_on,57,48,0
2,note_on,57,0,480
2,note_on,67,49,240
2,note_on,67,0,240
2,note_on,65,50,0
2,note_on,65,0,240
2,note_on,57,46,0
2,note_on,57,0,240
2,note_on,58,50,0
2,note_on,58,0,480
2,note_on,65,50,240
2,note_on,65,0,240
2,note_on,62,54,0
2,note_on,62,0,240
2,note_on,60,51,0
2,note_on,60,0,240
2,note_on,59,54,0
2,note_on,59,0,480
2,note_on,68,45,240
2,note_on,68,0,240
2,note_on,67,50,0
2,note_on,67,0,240
2,note_on,59,45,0
2,note_on,59,0,240
2,note_on,60,42,0
2,note_on,60,0,120
2,note_on,67,33,0
2,note_on,67,0,120
2,note_on,64,36,0
2,note_on,64,0,120
2,note_on,67,33,0
2,note_on,67,0,120
2,note_on,57,38,0
2,note_on,57,0,120
2,note_on,66,33,0
2,note_on,66,0,120
2,note_on,60,36,0
2,note_on,60,0,120
2,note_on,66,33,0
2,note_on,66,0,120
2,note_on,58,39,0
2,note_on,58,0,120
2,note_on,65,33,0
2,note_on,65,0,120
2,note_on,62,37,0
2,note_on,62,0,120
2,note_on,65,37,0
2,note_on,65,0,120
2,note_on,51,31,0
2,note_on,63,37,0
2,note_on,63,0,480
2,note_on,51,0,0
2,note_on,53,31,0
2,note_on,62,37,0
2,note_on,62,0,480
2,note_on,53,0,0
2,note_on,51,31,0
2,note_on,60,37,0
2,note_on,60,0,480
2,note_on,51,0,0
2,note_on,50,34,0
2,note_on,58,40,0
2,note_on,58,0,480
2,note_on,50,0,0
2,note_on,65,37,480
2,note_on,62,31,0
2,note_on,62,0,480
2,note_on,65,0,0
2,note_on,63,37,0
2,note_on,67,44,0
2,note_on,67,0,480
2,note_on,63,0,0
2,note_on,55,31,480
2,note_on,58,31,0
2,note_on,60,37,0
2,note_on,60,0,480
2,note_on,58,0,0
2,note_on,55,0,0
2,note_on,53,45,0
2,note_on,53,0,120
2,note_on,62,37,0
2,note_on,62,0,120
2,note_on,58,40,0
2,note_on,58,0,120
2,note_on,62,37,0
2,note_on,62,0,120
2,note_on,53,45,0
2,note_on,53,0,120
2,note_on,62,37,0
2,note_on,62,0,120
2,note_on,58,40,0
2,note_on,58,0,120
2,note_on,62,37,0
2,note_on,62,0,120
2,note_on,53,48,0
2,note_on,53,0,120
2,note_on,62,37,0
2,note_on,62,0,120
2,note_on,58,41,0
2,note_on,58,0,120
2,note_on,62,37,0
2,note_on,62,0,120
2,note_on,53,45,0
2,note_on,53,0,120
2,note_on,63,37,0
2,note_on,63,0,120
2,note_on,57,40,0
2,note_on,57,0,120
2,note_on,63,37,0
2,note_on,63,0,120
2,note_on,53,45,0
2,note_on,53,0,120
2,note_on,63,37,0
2,note_on,63,0,120
2,note_on,57,40,0
2,note_on,57,0,120
2,note_on,63,37,0
2,note_on,63,0,120
2,note_on,53,48,0
2,note_on,53,0,120
2,note_on,63,37,0
2,note_on,63,0,120
2,note_on,57,41,0
2,note_on,57,0,120
2,note_on,63,37,0
2,note_on,63,0,120
2,note_on,58,41,0
2,note_on,62,28,240
2,note_on,58,0,12
2,note_on,65,35,228
2,note_on,62,0,12
2,note_on,70,34,228
2,note_on,65,0,12
2,note_on,69,32,228
2,note_on,70,0,12
2,note_on,68,30,228
2,note_on,69,0,12
2,note_on,67,28,228
2,note_on,68,0,12
2,note_on,67,0,228
2,note_on,70,21,0
2,note_on,70,0,240
2,note_on,65,31,0
2,note_on,65,0,240
2,note_on,70,24,0
2,note_on,70,0,240
2,note_on,63,31,0
2,note_on,63,0,240
2,note_on,70,25,0
2,note_on,70,0,240
2,note_on,62,31,0
2,note_on,62,0,240
2,note_on,70,28,0
2,note_on,70,0,240
2,note_on,69,31,0
2,note_on,69,0,240
2,note_on,70,28,0
2,note_on,70,0,240
2,note_on,55,31,0
2,note_on,55,0,240
2,note_on,63,27,0
2,note_on,63,0,240
2,note_on,53,31,0
2,note_on,53,0,240
2,note_on,62,27,0
2,note_on,62,0,240
2,note_on,58,31,0
2,note_on,58,0,240
2,note_on,62,29,0
2,note_on,62,0,240
2,note_on,53,31,0
2,note_on,53,0,240
2,note_on,63,27,0
2,note_on,63,0,240
2,note_on,62,31,0
2,note_on,62,0,240
2,note_on,58,24,0
2,note_on,58,0,240
2,note_on,57,30,0
2,note_on,57,0,240
2,note_on,56,26,0
2,note_on,56,0,240
2,note_on,55,29,0
2,note_on,55,0,240
2,note_on,54,31,0
2,note_on,54,0,240
2,note_on,55,28,0
2,note_on,55,0,240
2,note_on,58,27,0
2,note_on,58,0,240
2,note_on,53,38,0
2,note_on,53,0,240
2,note_on,57,32,0
2,note_on,57,0,240
2,note_on,52,40,0
2,note_on,52,0,240
2,note_on,61,34,0
2,note_on,61,0,240
2,note_on,53,41,0
2,note_on,53,0,240
2,note_on,62,35,0
2,note_on,62,0,240
2,note_on,58,38,0
2,note_on,58,0,240
2,note_on,62,33,0
2,note_on,62,0,240
2,note_on,53,40,0
2,note_on,53,0,240
2,note_on,62,35,0
2,note_on,62,0,240
2,note_on,53,41,0
2,note_on,53,0,240
2,note_on,65,33,0
2,note_on,65,0,240
2,note_on,62,43,0
2,note_on,62,0,240
2,note_on,65,33,0
2,note_on,65,0,240
2,note_on,53,45,0
2,note_on,53,0,240
2,note_on,63,38,0
2,note_on,63,0,240
2,note_on,58,54,120
2,note_on,58,0,120
2,note_on,62,56,0
2,note_on,62,0,120
2,note_on,65,59,0
2,note_on,65,0,120
2,note_on,70,61,0
2,note_on,70,0,240
2,note_on,53,54,240
2,note_on,57,54,0
2,note_on,57,0,240
2,note_on,53,0,0
2,note_on,46,54,360
2,note_on,46,0,120
2,note_on,50,56,0
2,note_on,50,0,120
2,note_on,53,59,0
2,note_on,53,0,120
2,note_on,58,61,0
2,note_on,58,0,240
2,note_on,41,54,240
2,note_on,45,54,0
2,note_on,45,0,240
2,note_on,41,0,0
2,note_on,46,59,240
2,note_on,46,0,168
2,note_on,34,59,312
2,note_on,34,0,480
2,note_on,51,59,480
2,note_on,51,0,480
2,note_on,39,59,0
2,note_on,39,0,480
2,note_on,49,20,480
2,note_on,53,33,0
2,note_on,53,0,240
2,note_on,56,23,0
2,note_on,56,0,240
2,note_on,53,27,0
2,note_on,53,0,240
2,note_on,56,22,0
2,note_on,56,0,240
2,note_on,53,26,0
2,note_on,53,0,240
2,note_on,56,22,0
2,note_on,56,0,240
2,note_on,49,0,0
2,note_on,48,20,0
2,note_on,54,36,0
2,note_on,54,0,240
2,note_on,56,23,0
2,note_on,56,0,240
2,note_on,54,27,0
2,note_on,54,0,240
2,note_on,56,23,0
2,note_on,56,0,240
2,note_on,54,27,0
2,note_on,54,0,240
2,note_on,56,24,0
2,note_on,56,0,240
2,note_on,48,0,0
2,note_on,49,20,0
2,note_on,53,33,0
2,note_on,53,0,240
2,note_on,56,23,0
2,note_on,56,0,240
2,note_on,53,27,0
2,note_on,53,0,240
2,note_on,56,23,0
2,note_on,56,0,240
2,note_on,53,27,0
2,note_on,53,0,240
2,note_on,56,25,0
2,note_on,56,0,240
2,note_on,49,0,0
2,note_on,48,20,0
2,note_on,54,31,0
2,note_on,54,0,240
2,note_on,56,27,0
2,note_on,56,0,240
2,note_on,54,27,0
2,note_on,54,0,240
2,note_on,56,24,0
2,note_on,56,0,240
2,note_on,54,27,0
2,note_on,54,0,240
2,note_on,56,23,0
2,note_on,56,0,240
2,note_on,48,0,0
2,note_on,49,21,0
2,note_on,53,35,0
2,note_on,53,0,240
2,note_on,56,24,0
2,note_on,56,0,240
2,note_on,53,28,0
2,note_on,53,0,240
2,note_on,56,23,0
2,note_on,56,0,240
2,note_on,53,27,0
2,note_on,53,0,240
2,note_on,56,23,0
2,note_on,56,0,240
2,note_on,49,0,0
2,note_on,48,21,0
2,note_on,51,38,0
2,note_on,51,0,240
2,note_on,54,24,0
2,note_on,54,0,240
2,note_on,51,32,0
2,note_on,51,0,240
2,note_on,54,28,0
2,note_on,54,0,240
2,note_on,51,32,0
2,note_on,51,0,240
2,note_on,54,27,0
2,note_on,54,0,240
2,note_on,48,0,0
2,note_on,49,23,0
2,note_on,53,37,0
2,note_on,53,0,240
2,note_on,58,32,0
2,note_on,58,0,240
2,note_on,53,34,0
2,note_on,53,0,240
2,note_on,58,29,0
2,note_on,58,0,240
2,note_on,53,30,0
2,note_on,53,0,240
2,note_on,58,28,0
2,note_on,58,0,240
2,note_on,49,0,0
2,note_on,52,23,0
2,note_on,58,37,0
2,note_on,58,0,240
2,note_on,61,30,0
2,note_on,61,0,240
2,note_on,58,30,0
2,note_on,58,0,240
2,note_on,61,27,0
2,note_on,58,30,240
2,note_on,61,0,12
2,note_on,58,0,228
2,note_on,61,26,0
2,note_on,61,0,240
2,note_on,52,0,0
2,note_on,53,25,0
2,note_on,56,40,0
2,note_on,56,0,240
2,note_on,60,28,0
2,note_on,60,0,240
2,note_on,56,33,0
2,note_on,56,0,240
2,note_on,60,28,0
2,note_on,60,0,240
2,note_on,56,36,0
2,note_on,56,0,240
2,note_on,60,32,0
2,note_on,60,0,240
2,note_on,53,0,0
2,note_on,55,36,0
2,note_on,62,36,0
2,note_on,62,0,240
2,note_on,65,29,0
2,note_on,65,0,240
2,note_on,62,34,0
2,note_on,62,0,240
2,note_on,65,28,0
2,note_on,62,35,240
2,note_on,65,0,12
2,note_on,62,0,228
2,note_on,65,28,0
2,note_on,65,0,240
2,note_on,55,0,0
2,note_on,56,42,0
2,note_on,60,42,0
2,note_on,60,0,240
2,note_on,63,26,0
2,note_on,63,0,240
2,note_on,60,38,0
2,note_on,60,0,240
2,note_on,63,31,0
2,note_on,63,0,240
2,note_on,60,38,0
2,note_on,60,0,240
2,note_on,63,35,0
2,note_on,63,0,240
2,note_on,56,0,0
2,note_on,57,41,0
2,note_on,60,41,0
2,note_on,60,0,240
2,note_on,62,33,0
2,note_on,62,0,240
2,note_on,60,37,0
2,note_on,60,0,240
2,note_on,62,28,0
2,note_on,60,35,240
2,note_on,62,0,12
2,note_on,60,0,228
2,note_on,62,28,0
2,note_on,62,0,240
2,note_on,57,0,0
2,note_on,58,22,0
2,note_on,62,36,0
2,note_on,62,0,240
2,note_on,67,29,0
2,note_on,67,0,240
2,note_on,62,34,0
2,note_on,62,0,240
2,note_on,67,28,0
2,note_on,67,0,240
2,note_on,62,34,0
2,note_on,62,0,240
2,note_on,67,27,0
2,note_on,67,0,240
2,note_on,58,0,0
2,note_on,63,29,0
2,note_on,67,36,0
2,note_on,67,0,240
2,note_on,69,28,0
2,note_on,69,0,240
2,note_on,67,34,0
2,note_on,67,0,240
2,note_on,69,27,0
2,note_on,67,34,240
2,note_on,69,0,12
2,note_on,67,0,228
2,note_on,69,25,0
2,note_on,69,0,240
2,note_on,63,0,0
2,note_on,62,44,0
2,note_on,66,44,0
2,note_on,66,0,480
2,note_on,62,0,0
2,note_on,72,47,480
2,note_on,72,0,240
2,note_on,70,51,240
2,note_on,70,0,240
2,note_on,66,58,240
2,note_on,66,0,240
2,note_on,67,54,240
2,note_on,67,0,240
2,note_on,62,53,240
2,note_on,62,0,480
2,note_on,72,48,480
2,note_on,72,0,240
2,note_on,70,57,240
2,note_on,70,0,240
2,note_on,66,59,240
2,note_on,66,0,240
2,note_on,67,54,240
2,note_on,67,0,240
2,note_on,62,58,240
2,note_on,62,0,480
2,note_on,62,47,600
2,note_on,62,0,120
2,note_on,57,54,0
2,note_on,57,0,120
2,note_on,54,47,0
2,note_on,54,0,120
2,note_on,50,69,0
2,note_on,50,0,120
2,note_on,38,59,360
2,note_on,38,0,480
2,note_on,55,34,480
2,note_on,50,30,960
2,note_on,55,0,20
2,note_on,50,0,460
2,note_on,47,34,0
2,note_on,50,32,960
2,note_on,47,0,20
2,note_on,50,0,460
2,note_on,55,34,0
2,note_on,59,36,960
2,note_on,55,0,20
2,note_on,59,0,460
2,note_on,62,38,0
2,note_on,62,0,480
2,note_on,55,34,960
2,note_on,50,30,960
2,note_on,55,0,20
2,note_on,50,0,460
2,note_on,47,34,0
2,note_on,50,32,960
2,note_on,47,0,20
2,note_on,50,0,460
2,note_on,55,34,0
2,note_on,59,36,960
2,note_on,55,0,20
2,note_on,59,0,460
2,note_on,62,38,0
2,note_on,62,0,480
2,note_on,55,39,4080
2,note_on,55,0,60
2,note_on,55,42,180
2,note_on,55,0,60
2,note_on,55,37,180
2,note_on,55,0,60
2,note_on,55,39,180
2,note_on,55,0,60
2,note_on,55,35,180
2,note_on,55,0,60
2,note_on,56,39,180
2,note_on,55,35,240
2,note_on,56,0,12
2,note_on,53,37,228
2,note_on,55,0,12
2,note_on,51,35,228
2,note_on,53,0,12
2,note_on,50,39,228
2,note_on,51,0,12
2,note_on,48,34,228
2,note_on,50,0,12
2,note_on,48,0,228
2,note_on,48,35,0
2,note_on,48,0,240
2,note_on,46,38,0
2,note_on,46,0,240
2,note_on,46,39,0
2,note_on,46,0,480
2,note_on,58,39,2160
2,note_on,58,0,60
2,note_on,58,41,180
2,note_on,58,0,60
2,note_on,58,36,180
2,note_on,58,0,60
2,note_on,58,38,180
2,note_on,58,0,60
2,note_on,58,35,180
2,note_on,58,0,60
2,note_on,60,39,180
2,note_on,58,35,240
2,note_on,60,0,12
2,note_on,56,35,228
2,note_on,58,0,12
2,note_on,55,35,228
2,note_on,56,0,12
2,note_on,53,39,228
2,note_on,55,0,12
2,note_on,52,34,228
2,note_on,53,0,12
2,note_on,52,0,228
2,note_on,53,40,0
2,note_on,53,0,980
2,note_on,58,28,460
2,note_on,62,28,0
2,note_on,65,34,0
2,note_on,65,0,480
2,note_on,62,0,0
2,note_on,63,28,0
2,note_on,67,34,0
2,note_on,67,0,480
2,note_on,63,0,0
2,note_on,65,28,0
2,note_on,69,34,0
2,note_on,69,0,480
2,note_on,65,0,0
2,note_on,58,0,0
2,note_on,63,28,0
2,note_on,67,34,0
2,note_on,67,0,480
2,note_on,63,0,0
2,note_on,56,28,960
2,note_on,60,28,0
2,note_on,63,34,0
2,note_on,63,0,480
2,note_on,60,0,0
2,note_on,62,28,0
2,note_on,65,34,0
2,note_on,65,0,480
2,note_on,62,0,0
2,note_on,63,28,0
2,note_on,67,34,0
2,note_on,67,0,480
2,note_on,63,0,0
2,note_on,56,0,0
2,note_on,62,28,0
2,note_on,65,34,0
2,note_on,65,0,480
2,note_on,62,0,0
2,note_on,55,28,960
2,note_on,59,28,0
2,note_on,62,34,0
2,note_on,62,0,480
2,note_on,59,0,0
2,note_on,60,28,0
2,note_on,63,34,0
2,note_on,63,0,480
2,note_on,60,0,0
2,note_on,62,28,0
2,note_on,65,34,0
2,note_on,65,0,480
2,note_on,62,0,0
2,note_on,55,0,0
2,note_on,60,30,0
2,note_on,63,37,0
2,note_on,63,0,480
2,note_on,60,0,0
2,note_on,53,30,480
2,note_on,63,37,0
2,note_on,63,0,480
2,note_on,53,0,0
2,note_on,55,30,0
2,note_on,62,37,0
2,note_on,62,0,480
2,note_on,55,0,0
2,note_on,63,30,480
2,note_on,67,37,0
2,note_on,67,0,480
2,note_on,63,0,0
2,note_on,65,42,240
2,note_on,65,0,60
2,note_on,65,45,180
2,note_on,65,0,60
2,note_on,65,39,180
2,note_on,65,0,60
2,note_on,65,41,180
2,note_on,65,0,60
2,note_on,65,38,180
2,note_on,65,0,60
2,note_on,66,42,180
2,note_on,65,38,240
2,note_on,66,0,12
2,note_on,63,38,228
2,note_on,65,0,12
2,note_on,61,38,228
2,note_on,63,0,12
2,note_on,60,42,228
2,note_on,61,0,12
2,note_on,58,37,228
2,note_on,60,0,12
2,note_on,58,0,228
2,note_on,53,42,240
2,note_on,53,0,60
2,note_on,53,45,180
2,note_on,53,0,60
2,note_on,53,39,180
2,note_on,53,0,60
2,note_on,53,41,180
2,note_on,53,0,60
2,note_on,53,38,180
2,note_on,53,0,60
2,note_on,54,42,180
2,note_on,53,38,240
2,note_on,54,0,12
2,note_on,51,38,228
2,note_on,53,0,12
2,note_on,49,38,228
2,note_on,51,0,12
2,note_on,48,42,228
2,note_on,49,0,12
2,note_on,46,37,228
2,note_on,48,0,12
2,note_on,46,0,228
2,note_on,41,42,0
2,note_on,41,0,480
2,note_on,53,29,960
2,note_on,63,37,0
2,note_on,57,29,0
2,note_on,57,0,3360
2,note_on,63,0,0
2,note_on,53,0,0
2,note_on,58,33,960
2,note_on,58,0,960
2,note_on,53,31,0
2,note_on,53,0,480
2,note_on,50,37,0
2,note_on,50,0,960
2,note_on,53,38,0
2,note_on,53,0,480
2,note_on,58,41,0
2,note_on,58,0,960
2,note_on,62,43,0
2,note_on,62,0,480
2,note_on,65,43,0
2,note_on,65,0,960
2,note_on,63,36,480
2,note_on,53,30,0
2,note_on,60,30,0
2,note_on,60,0,2880
2,note_on,53,0,0
2,note_on,63,0,0
2,note_on,62,38,0
2,note_on,58,32,0
2,note_on,58,0,480
2,note_on,62,0,0
2,note_on,53,30,2400
2,note_on,60,30,0
2,note_on,63,36,0
2,note_on,63,0,2880
2,note_on,60,0,0
2,note_on,53,0,0
2,note_on,58,34,0
2,note_on,62,40,0
2,note_on,62,0,120
2,note_on,58,0,0
2,note_on,62,38,360
2,note_on,58,32,0
2,note_on,58,0,120
2,note_on,62,0,0
2,note_on,65,38,360
2,note_on,58,32,0
2,note_on,58,0,120
2,note_on,65,0,0
2,note_on,62,40,360
2,note_on,58,34,0
2,note_on,58,0,480
2,note_on,62,0,0
2,note_on,58,30,1440
2,note_on,55,25,0
2,note_on,51,25,0
2,note_on,51,0,480
2,note_on,55,0,0
2,note_on,58,0,0
2,note_on,53,25,960
2,note_on,50,25,0
2,note_on,58,30,0
2,note_on,58,0,480
2,note_on,50,0,0
2,note_on,53,0,0
2,note_on,57,29,480
2,note_on,65,34,0
2,note_on,57,0,1440
2,note_on,58,34,0
2,note_on,58,0,480
2,note_on,65,0,0
2,note_on,51,25,1440
2,note_on,58,30,0
2,note_on,55,25,0
2,note_on,55,0,480
2,note_on,58,0,0
2,note_on,51,0,0
2,note_on,53,25,960
2,note_on,50,25,0
2,note_on,58,30,0
2,note_on,58,0,480
2,note_on,50,0,0
2,note_on,53,0,0
2,note_on,57,34,480
2,note_on,53,29,0
2,note_on,57,0,480
2,note_on,60,31,0
2,note_on,60,0,480
2,note_on,63,29,0
2,note_on,63,0,480
2,note_on,53,0,0
2,note_on,62,34,0
2,note_on,58,28,0
2,note_on,58,0,480
2,note_on,62,0,0
2,note_on,55,73,960
2,note_on,55,0,120
2,note_on,43,66,360
2,note_on,43,0,120
2,note_on,50,73,840
2,note_on,50,0,120
2,note_on,38,66,360
2,note_on,38,0,120
2,note_on,51,20,840
2,note_on,55,33,0
2,note_on,55,0,240
2,note_on,58,23,0
2,note_on,58,0,240
2,note_on,55,27,0
2,note_on,55,0,240
2,note_on,58,22,0
2,note_on,58,0,240
2,note_on,55,26,0
2,note_on,55,0,240
2,note_on,58,22,0
2,note_on,58,0,240
2,note_on,51,0,0
2,note_on,56,36,0
2,note_on,50,20,0
2,note_on,56,0,240
2,note_on,58,23,0
2,note_on,58,0,240
2,note_on,56,27,0
2,note_on,56,0,240
2,note_on,58,23,0
2,note_on,58,0,240
2,note_on,56,27,0
2,note_on,56,0,240
2,note_on,58,24,0
2,note_on,58,0,240
2,note_on,50,0,0
2,note_on,51,20,0
2,note_on,55,33,0
2,note_on,55,0,240
2,note_on,58,23,0
2,note_on,58,0,240
2,note_on,55,27,0
2,note_on,55,0,240
2,note_on,58,23,0
2,note_on,58,0,240
2,note_on,55,27,0
2,note_on,55,0,240
2,note_on,58,25,0
2,note_on,58,0,240
2,note_on,51,0,0
2,note_on,50,20,0
2,note_on,56,33,0
2,note_on,56,0,240
2,note_on,58,27,0
2,note_on,58,0,240
2,note_on,56,27,0
2,note_on,56,0,240
2,note_on,58,24,0
2,note_on,58,0,240
2,note_on,56,27,0
2,note_on,56,0,240
2,note_on,58,23,0
2,note_on,58,0,240
2,note_on,50,0,0
2,note_on,51,21,0
2,note_on,55,35,0
2,note_on,55,0,240
2,note_on,58,24,0
2,note_on,58,0,240
2,note_on,55,28,0
2,note_on,55,0,240
2,note_on,58,23,0
2,note_on,58,0,240
2,note_on,55,27,0
2,note_on,55,0,240
2,note_on,58,23,0
2,note_on,58,0,240
2,note_on,51,0,0
2,note_on,53,38,0
2,note_on,50,21,0
2,note_on,53,0,240
2,note_on,56,24,0
2,note_on,56,0,240
2,note_on,53,32,0
2,note_on,53,0,240
2,note_on,56,28,0
2,note_on,56,0,240
2,note_on,53,32,0
2,note_on,53,0,240
2,note_on,56,27,0
2,note_on,56,0,240
2,note_on,50,0,0
2,note_on,51,23,0
2,note_on,55,37,0
2,note_on,55,0,240
2,note_on,60,32,0
2,note_on,60,0,240
2,note_on,55,34,0
2,note_on,55,0,240
2,note_on,60,29,0
2,note_on,60,0,240
2,note_on,55,30,0
2,note_on,55,0,240
2,note_on,60,28,0
2,note_on,60,0,240
2,note_on,51,0,0
2,note_on,54,23,0
2,note_on,60,37,0
2,note_on,60,0,240
2,note_on,63,30,0
2,note_on,63,0,240
2,note_on,60,30,0
2,note_on,60,0,240
2,note_on,63,27,0
2,note_on,60,30,240
2,note_on,63,0,12
2,note_on,60,0,228
2,note_on,63,26,0
2,note_on,63,0,240
2,note_on,54,0,0
2,note_on,58,44,0
2,note_on,55,27,0
2,note_on,58,0,240
2,note_on,62,30,0
2,note_on,62,0,240
2,note_on,58,36,0
2,note_on,58,0,240
2,note_on,62,30,0
2,note_on,62,0,240
2,note_on,58,36,0
2,note_on,58,0,240
2,note_on,62,33,0
2,note_on,62,0,240
2,note_on,55,0,0
2,note_on,67,44,0
2,note_on,60,27,0
2,note_on,67,0,240
2,note_on,70,36,0
2,note_on,70,0,240
2,note_on,67,36,0
2,note_on,67,0,240
2,note_on,70,31,0
2,note_on,67,36,240
2,note_on,70,0,12
2,note_on,67,0,228
2,note_on,70,30,0
2,note_on,70,0,240
2,note_on,60,0,0
2,note_on,65,44,0
2,note_on,69,44,0
2,note_on,69,0,480
2,note_on,65,0,0
2,note_on,75,46,480
2,note_on,75,0,240
2,note_on,74,52,240
2,note_on,74,0,240
2,note_on,69,56,240
2,note_on,69,0,240
2,note_on,70,53,240
2,note_on,70,0,240
2,note_on,65,59,240
2,note_on,65,0,480
2,note_on,75,51,480
2,note_on,75,0,240
2,note_on,74,57,240
2,note_on,74,0,240
2,note_on,69,59,240
2,note_on,69,0,240
2,note_on,70,54,240
2,note_on,70,0,240
2,note_on,65,62,240
2,note_on,65,0,480
2,note_on,65,47,600
2,note_on,65,0,120
2,note_on,60,54,0
2,note_on,60,0,120
2,note_on,57,47,0
2,note_on,57,0,120
2,note_on,53,69,0
2,note_on,53,0,120
2,note_on,41,59,360
2,note_on,41,0,480
2,note_on,58,34,480
2,note_on,53,30,960
2,note_on,58,0,20
2,note_on,53,0,460
2,note_on,50,34,0
2,note_on,53,32,960
2,note_on,50,0,20
2,note_on,53,0,460
2,note_on,58,34,0
2,note_on,62,36,960
2,note_on,58,0,20
2,note_on,62,0,460
2,note_on,65,38,0
2,note_on,65,0,480
2,note_on,51,34,960
2,note_on,48,30,960
2,note_on,51,0,20
2,note_on,48,0,460
2,note_on,45,34,0
2,note_on,48,32,960
2,note_on,45,0,20
2,note_on,48,0,460
2,note_on,51,34,0
2,note_on,57,36,960
2,note_on,51,0,20
2,note_on,57,0,460
2,note_on,60,38,0
2,note_on,60,0,480
2,note_on,62,35,960
2,note_on,62,0,240
2,note_on,65,28,0
2,note_on,65,0,240
2,note_on,62,35,0
2,note_on,62,0,240
2,note_on,65,25,0
2,note_on,65,0,240
2,note_on,62,32,0
2,note_on,62,0,240
2,note_on,65,24,0
2,note_on,65,0,240
2,note_on,63,35,0
2,note_on,63,0,240
2,note_on,65,31,0
2,note_on,65,0,240
2,note_on,63,35,0
2,note_on,63,0,240
2,note_on,65,26,0
2,note_on,65,0,240
2,note_on,63,33,0
2,note_on,63,0,240
2,note_on,65,29,0
2,note_on,65,0,240
2,note_on,62,35,0
2,note_on,62,0,240
2,note_on,65,30,0
2,note_on,65,0,240
2,note_on,62,32,0
2,note_on,62,0,240
2,note_on,65,24,0
2,note_on,65,0,240
2,note_on,62,32,0
2,note_on,62,0,240
2,note_on,65,25,0
2,note_on,65,0,240
2,note_on,63,35,0
2,note_on,63,0,240
2,note_on,65,31,0
2,note_on,65,0,240
2,note_on,63,35,0
2,note_on,63,0,240
2,note_on,65,26,0
2,note_on,65,0,240
2,note_on,63,33,0
2,note_on,63,0,240
2,note_on,65,29,0
2,note_on,65,0,240
2,note_on,61,35,0
2,note_on,61,0,240
2,note_on,65,30,0
2,note_on,65,0,240
2,note_on,61,32,0
2,note_on,61,0,240
2,note_on,65,28,0
2,note_on,65,0,240
2,note_on,61,38,0
2,note_on,61,0,240
2,note_on,65,31,0
2,note_on,65,0,240
2,note_on,55,40,0
2,note_on,62,40,0
2,note_on,62,0,240
2,note_on,65,34,0
2,note_on,65,0,240
2,note_on,62,38,0
2,note_on,62,0,240
2,note_on,65,32,0
2,note_on,65,0,240
2,note_on,62,39,0
2,note_on,62,0,240
2,note_on,65,32,0
2,note_on,65,0,240
2,note_on,55,0,0
2,note_on,63,39,0
2,note_on,60,39,0
2,note_on,60,0,480
2,note_on,63,0,0
2,note_on,65,35,0
2,note_on,57,35,0
2,note_on,57,0,480
2,note_on,58,35,0
2,note_on,58,0,480
2,note_on,65,0,0
2,note_on,51,43,0
2,note_on,63,43,0
2,note_on,63,0,480
2,note_on,51,0,0
2,note_on,62,40,0
2,note_on,53,40,0
2,note_on,62,0,480
2,note_on,60,40,0
2,note_on,60,0,480
2,note_on,53,0,0
2,note_on,58,40,0
2,note_on,58,0,480
2,note_on,50,45,240
2,note_on,50,0,240
2,note_on,48,50,0
2,note_on,48,0,240
2,note_on,46,45,0
2,note_on,46,0,240
2,note_on,45,40,0
2,note_on,45,0,480
2,note_on,55,45,240
2,note_on,55,0,240
2,note_on,53,50,0
2,note_on,53,0,240
2,note_on,45,45,0
2,note_on,45,0,240
2,note_on,46,40,0
2,note_on,46,0,480
2,note_on,62,48,240
2,note_on,62,0,240
2,note_on,60,52,0
2,note_on,60,0,240
2,note_on,58,48,0
2,note_on,58,0,240
2,note_on,57,48,0
2,note_on,57,0,480
2,note_on,67,49,240
2,note_on,67,0,240
2,note_on,65,50,0
2,note_on,65,0,240
2,note_on,57,46,0
2,note_on,57,0,240
2,note_on,58,50,0
2,note_on,58,0,480
2,note_on,65,50,240
2,note_on,65,0,240
2,note_on,62,54,0
2,note_on,62,0,240
2,note_on,60,51,0
2,note_on,60,0,240
2,note_on,59,54,0
2,note_on,59,0,480
2,note_on,68,45,240
2,note_on,68,0,240
2,note_on,67,50,0
2,note_on,67,0,240
2,note_on,59,45,0
2,note_on,59,0,240
2,note_on,60,42,0
2,note_on,60,0,120
2,note_on,67,33,0
2,note_on,67,0,120
2,note_on,64,36,0
2,note_on,64,0,120
2,note_on,67,33,0
2,note_on,67,0,120
2,note_on,57,38,0
2,note_on,57,0,120
2,note_on,66,33,0
2,note_on,66,0,120
2,note_on,60,36,0
2,note_on,60,0,120
2,note_on,66,33,0
2,note_on,66,0,120
2,note_on,58,39,0
2,note_on,58,0,120
2,note_on,65,33,0
2,note_on,65,0,120
2,note_on,62,37,0
2,note_on,62,0,120
2,note_on,65,37,0
2,note_on,65,0,120
2,note_on,51,31,0
2,note_on,63,37,0
2,note_on,63,0,480
2,note_on,51,0,0
2,note_on,53,31,0
2,note_on,62,37,0
2,note_on,62,0,480
2,note_on,53,0,0
2,note_on,51,31,0
2,note_on,60,37,0
2,note_on,60,0,480
2,note_on,51,0,0
2,note_on,50,34,0
2,note_on,58,40,0
2,note_on,58,0,480
2,note_on,50,0,0
2,note_on,65,37,480
2,note_on,62,31,0
2,note_on,62,0,480
2,note_on,65,0,0
2,note_on,63,37,0
2,note_on,67,44,0
2,note_on,67,0,480
2,note_on,63,0,0
2,note_on,55,31,480
2,note_on,58,31,0
2,note_on,60,37,0
2,note_on,60,0,480
2,note_on,58,0,0
2,note_on,55,0,0
2,note_on,53,45,0
2,note_on,53,0,120
2,note_on,62,37,0
2,note_on,62,0,120
2,note_on,58,40,0
2,note_on,58,0,120
2,note_on,62,37,0
2,note_on,62,0,120
2,note_on,53,45,0
2,note_on,53,0,120
2,note_on,62,37,0
2,note_on,62,0,120
2,note_on,58,40,0
2,note_on,58,0,120
2,note_on,62,37,0
2,note_on,62,0,120
2,note_on,53,48,0
2,note_on,53,0,120
2,note_on,62,37,0
2,note_on,62,0,120
2,note_on,58,41,0
2,note_on,58,0,120
2,note_on,62,37,0
2,note_on,62,0,120
2,note_on,53,45,0
2,note_on,53,0,120
2,note_on,63,37,0
2,note_on,63,0,120
2,note_on,57,40,0
2,note_on,57,0,120
2,note_on,63,37,0
2,note_on,63,0,120
2,note_on,53,45,0
2,note_on,53,0,120
2,note_on,63,37,0
2,note_on,63,0,120
2,note_on,57,40,0
2,note_on,57,0,120
2,note_on,63,37,0
2,note_on,63,0,120
2,note_on,53,48,0
2,note_on,53,0,120
2,note_on,63,37,0
2,note_on,63,0,120
2,note_on,57,41,0
2,note_on,57,0,120
2,note_on,63,37,0
2,note_on,63,0,120
2,note_on,58,41,0
2,note_on,62,28,240
2,note_on,58,0,12
2,note_on,65,35,228
2,note_on,62,0,12
2,note_on,70,34,228
2,note_on,65,0,12
2,note_on,69,32,228
2,note_on,70,0,12
2,note_on,68,30,228
2,note_on,69,0,12
2,note_on,67,28,228
2,note_on,68,0,12
2,note_on,67,0,228
2,note_on,70,21,0
2,note_on,70,0,240
2,note_on,65,31,0
2,note_on,65,0,240
2,note_on,70,24,0
2,note_on,70,0,240
2,note_on,63,31,0
2,note_on,63,0,240
2,note_on,70,25,0
2,note_on,70,0,240
2,note_on,62,31,0
2,note_on,62,0,240
2,note_on,70,28,0
2,note_on,70,0,240
2,note_on,69,31,0
2,note_on,69,0,240
2,note_on,70,28,0
2,note_on,70,0,240
2,note_on,55,31,0
2,note_on,55,0,240
2,note_on,63,27,0
2,note_on,63,0,240
2,note_on,53,31,0
2,note_on,53,0,240
2,note_on,62,27,0
2,note_on,62,0,240
2,note_on,58,31,0
2,note_on,58,0,240
2,note_on,62,29,0
2,note_on,62,0,240
2,note_on,53,31,0
2,note_on,53,0,240
2,note_on,63,27,0
2,note_on,63,0,240
2,note_on,62,31,0
2,note_on,62,0,240
2,note_on,58,24,0
2,note_on,58,0,240
2,note_on,57,30,0
2,note_on,57,0,240
2,note_on,56,26,0
2,note_on,56,0,240
2,note_on,55,29,0
2,note_on,55,0,240
2,note_on,54,31,0
2,note_on,54,0,240
2,note_on,55,28,0
2,note_on,55,0,240
2,note_on,58,27,0
2,note_on,58,0,240
2,note_on,53,38,0
2,note_on,53,0,240
2,note_on,57,32,0
2,note_on,57,0,240
2,note_on,52,40,0
2,note_on,52,0,240
2,note_on,61,34,0
2,note_on,61,0,240
2,note_on,53,41,0
2,note_on,53,0,240
2,note_on,62,35,0
2,note_on,62,0,240
2,note_on,58,38,0
2,note_on,58,0,240
2,note_on,62,33,0
2,note_on,62,0,240
2,note_on,53,40,0
2,note_on,53,0,240
2,note_on,62,35,0
2,note_on,62,0,240
2,note_on,53,41,0
2,note_on,53,0,240
2,note_on,65,33,0
2,note_on,65,0,240
2,note_on,62,43,0
2,note_on,62,0,240
2,note_on,65,33,0
2,note_on,65,0,240
2,note_on,53,45,0
2,note_on,53,0,240
2,note_on,63,38,0
2,note_on,63,0,240
2,note_on,58,54,120
2,note_on,58,0,120
2,note_on,62,56,0
2,note_on,62,0,120
2,note_on,65,59,0
2,note_on,65,0,120
2,note_on,70,61,0
2,note_on,70,0,240
2,note_on,53,54,240
2,note_on,57,54,0
2,note_on,57,0,240
2,note_on,53,0,0
2,note_on,46,54,360
2,note_on,46,0,120
2,note_on,50,56,0
2,note_on,50,0,120
2,note_on,53,59,0
2,note_on,53,0,120
2,note_on,58,61,0
2,note_on,58,0,240
2,note_on,45,54,240
2,note_on,41,54,0
2,note_on,41,0,240
2,note_on,45,0,0
2,note_on,46,59,240
2,note_on,46,0,168
2,note_on,34,59,312
2,note_on,34,0,480
