Track,Message Type,Note,Velocity,Time
1,note_on,67,48,1200
1,note_on,67,0,120
1,note_on,72,49,120
1,note_on,72,0,120
1,note_on,74,51,120
1,note_on,74,0,120
1,note_on,75,52,120
1,note_on,75,0,720
1,note_on,77,50,0
1,note_on,77,0,240
1,note_on,74,53,0
1,note_on,74,0,720
1,note_on,75,50,0
1,note_on,75,0,240
1,note_on,72,52,0
1,note_on,72,0,900
1,note_on,74,48,0
1,note_on,74,0,60
1,note_on,72,52,0
1,note_on,72,0,240
1,note_on,71,51,0
1,note_on,71,0,240
1,note_on,72,51,0
1,note_on,72,0,240
1,note_on,74,50,0
1,note_on,74,0,180
1,note_on,77,49,0
1,note_on,77,0,60
1,note_on,75,56,0
1,note_on,75,0,240
1,note_on,74,52,0
1,note_on,74,0,240
1,note_on,75,52,0
1,note_on,75,0,240
1,note_on,77,52,0
1,note_on,77,0,240
1,note_on,79,56,0
1,note_on,79,0,240
1,note_on,79,55,240
1,note_on,79,0,240
1,note_on,79,57,240
1,note_on,79,0,1440
1,note_on,77,51,0
1,note_on,77,0,240
1,note_on,79,53,0
1,note_on,79,0,120
1,note_on,77,48,0
1,note_on,77,0,60
1,note_on,79,48,0
1,note_on,79,0,60
1,note_on,80,56,0
1,note_on,80,0,960
1,note_on,74,52,0
1,note_on,74,0,480
1,note_on,75,51,0
1,note_on,75,0,240
1,note_on,77,53,0
1,note_on,77,0,120
1,note_on,75,50,0
1,note_on,75,0,60
1,note_on,77,50,0
1,note_on,77,0,60
1,note_on,79,56,0
1,note_on,79,0,960
1,note_on,72,52,0
1,note_on,72,0,474
1,note_on,72,53,6
1,note_on,72,0,240
1,note_on,74,54,0
1,note_on,74,0,240
1,note_on,75,57,0
1,note_on,75,0,240
1,note_on,75,53,240
1,note_on,75,0,240
1,note_on,77,46,0
1,note_on,77,0,240
1,note_on,74,57,0
1,note_on,74,0,240
1,note_on,74,51,240
1,note_on,74,0,240
1,note_on,75,54,0
1,note_on,75,0,240
1,note_on,72,57,0
1,note_on,72,0,480
1,note_on,77,56,960
1,note_on,77,0,240
1,note_on,79,58,0
1,note_on,79,0,240
1,note_on,68,51,0
1,note_on,80,61,0
1,note_on,80,0,960
1,note_on,68,0,0
1,note_on,74,57,0
1,note_on,74,0,480
1,note_on,75,56,0
1,note_on,75,0,240
1,note_on,77,58,0
1,note_on,77,0,240
1,note_on,67,51,0
1,note_on,79,61,0
1,note_on,79,0,960
1,note_on,67,0,0
1,note_on,72,57,0
1,note_on,72,0,480
1,note_on,72,58,0
1,note_on,72,0,240
1,note_on,74,59,0
1,note_on,74,0,240
1,note_on,75,62,0
1,note_on,75,0,240
1,note_on,75,58,240
1,note_on,75,0,240
1,note_on,77,60,0
1,note_on,77,0,240
1,note_on,74,62,0
1,note_on,74,0,240
1,note_on,74,56,240
1,note_on,74,0,240
1,note_on,75,59,0
1,note_on,75,0,240
1,note_on,72,62,0
1,note_on,72,0,240
1,note_on,82,74,240
1,note_on,82,0,960
1,note_on,82,73,0
1,note_on,82,0,720
1,note_on,80,71,0
1,note_on,80,0,240
1,note_on,79,72,0
1,note_on,79,0,240
1,note_on,77,72,0
1,note_on,77,0,240
1,note_on,75,71,0
1,note_on,75,0,240
1,note_on,74,71,0
1,note_on,74,0,240
1,note_on,72,71,0
1,note_on,72,0,240
1,note_on,71,71,0
1,note_on,71,0,240
1,note_on,72,73,0
1,note_on,72,0,240
1,note_on,72,67,240
1,note_on,84,79,0
1,note_on,84,0,960
1,note_on,72,0,0
1,note_on,82,80,0
1,note_on,82,0,720
1,note_on,80,81,0
1,note_on,80,0,240
1,note_on,79,82,0
1,note_on,79,0,240
1,note_on,77,81,0
1,note_on,77,0,240
1,note_on,75,79,0
1,note_on,75,0,240
1,note_on,74,79,0
1,note_on,74,0,240
1,note_on,72,79,0
1,note_on,72,0,240
1,note_on,71,78,0
1,note_on,71,0,240
1,note_on,72,89,0
1,note_on,72,0,240
1,note_on,74,81,240
1,note_on,74,0,80
1,note_on,75,81,0
1,note_on,75,0,80
1,note_on,74,81,0
1,note_on,74,0,80
1,note_on,75,81,0
1,note_on,75,0,60
1,note_on,74,81,0
1,note_on,74,0,60
1,note_on,72,80,0
1,note_on,72,0,60
1,note_on,74,80,0
1,note_on,74,0,60
1,note_on,75,92,0
1,note_on,75,0,240
1,note_on,71,92,240
1,note_on,74,92,0
1,note_on,83,92,0
1,note_on,83,0,240
1,note_on,74,0,0
1,note_on,71,0,0
1,note_on,72,92,240
1,note_on,75,92,0
1,note_on,84,92,0
1,note_on,84,0,240
1,note_on,75,0,0
1,note_on,72,0,0
1,note_on,55,73,1680
1,note_on,60,73,0
1,note_on,64,86,0
1,note_on,64,0,1920
1,note_on,60,0,0
1,note_on,55,0,0
1,note_on,65,50,0
1,note_on,65,0,240
1,note_on,72,51,0
1,note_on,72,0,240
1,note_on,68,53,0
1,note_on,68,0,240
1,note_on,77,54,0
1,note_on,77,0,240
1,note_on,72,55,0
1,note_on,72,0,240
1,note_on,80,56,0
1,note_on,80,0,240
1,note_on,77,57,0
1,note_on,77,0,240
1,note_on,84,59,0
1,note_on,84,0,240
1,note_on,82,59,0
1,note_on,82,0,240
1,note_on,79,59,0
1,note_on,79,0,240
1,note_on,76,58,0
1,note_on,76,0,240
1,note_on,72,57,0
1,note_on,72,0,240
1,note_on,70,56,0
1,note_on,70,0,240
1,note_on,71,55,0
1,note_on,71,0,240
1,note_on,72,55,0
1,note_on,72,0,240
1,note_on,67,54,0
1,note_on,67,0,240
1,note_on,70,60,0
1,note_on,70,0,960
1,note_on,68,56,0
1,note_on,68,0,480
1,note_on,53,73,480
1,note_on,58,73,0
1,note_on,62,86,0
1,note_on,62,0,1920
1,note_on,58,0,0
1,note_on,53,0,0
1,note_on,63,50,0
1,note_on,63,0,240
1,note_on,70,51,0
1,note_on,70,0,240
1,note_on,67,53,0
1,note_on,67,0,240
1,note_on,75,54,0
1,note_on,75,0,240
1,note_on,70,55,0
1,note_on,70,0,240
1,note_on,79,56,0
1,note_on,79,0,240
1,note_on,75,57,0
1,note_on,75,0,240
1,note_on,82,59,0
1,note_on,82,0,240
1,note_on,80,59,0
1,note_on,80,0,240
1,note_on,79,59,0
1,note_on,79,0,240
1,note_on,77,58,0
1,note_on,77,0,240
1,note_on,75,57,0
1,note_on,75,0,240
1,note_on,74,56,0
1,note_on,74,0,240
1,note_on,72,55,0
1,note_on,72,0,240
1,note_on,70,55,0
1,note_on,70,0,240
1,note_on,68,54,0
1,note_on,68,0,240
1,note_on,67,60,0
1,note_on,67,0,240
1,note_on,70,60,240
1,note_on,70,0,960
1,note_on,70,56,0
1,note_on,70,0,720
1,note_on,72,54,0
1,note_on,72,0,240
1,note_on,74,55,0
1,note_on,74,0,240
1,note_on,75,57,0
1,note_on,75,0,240
1,note_on,77,58,0
1,note_on,77,0,240
1,note_on,79,60,0
1,note_on,79,0,240
1,note_on,80,61,0
1,note_on,80,0,240
1,note_on,77,58,0
1,note_on,77,0,240
1,note_on,80,61,0
1,note_on,80,0,240
1,note_on,79,60,0
1,note_on,79,0,240
1,note_on,77,59,0
1,note_on,77,0,240
1,note_on,75,58,0
1,note_on,75,0,220
1,note_on,75,60,20
1,note_on,75,0,240
1,note_on,74,58,0
1,note_on,74,0,240
1,note_on,72,58,0
1,note_on,72,0,240
1,note_on,74,58,0
1,note_on,74,0,240
1,note_on,77,63,0
1,note_on,77,0,240
1,note_on,75,57,0
1,note_on,75,0,240
1,note_on,74,57,0
1,note_on,74,0,240
1,note_on,72,57,0
1,note_on,72,0,240
1,note_on,68,60,0
1,note_on,70,60,0
1,note_on,70,0,432
1,note_on,68,0,0
1,note_on,68,60,48
1,note_on,70,60,0
1,note_on,70,0,432
1,note_on,68,0,0
1,note_on,68,60,48
1,note_on,70,60,0
1,note_on,68,0,240
1,note_on,67,53,0
1,note_on,67,0,240
1,note_on,65,53,0
1,note_on,65,0,240
1,note_on,63,53,0
1,note_on,63,0,220
1,note_on,63,57,20
1,note_on,63,0,240
1,note_on,62,52,0
1,note_on,62,0,240
1,note_on,60,52,0
1,note_on,60,0,240
1,note_on,62,52,0
1,note_on,62,0,240
1,note_on,63,55,0
1,note_on,63,0,240
1,note_on,70,0,0
1,note_on,72,56,0
1,note_on,72,0,240
1,note_on,74,58,0
1,note_on,74,0,240
1,note_on,75,59,0
1,note_on,75,0,240
1,note_on,77,61,0
1,note_on,77,0,240
1,note_on,78,63,0
1,note_on,78,0,240
1,note_on,80,64,0
1,note_on,80,0,240
1,note_on,77,62,0
1,note_on,77,0,240
1,note_on,78,65,0
1,note_on,78,0,480
1,note_on,82,72,0
1,note_on,82,0,950
1,note_on,82,74,10
1,note_on,82,0,960
1,note_on,87,91,0
1,note_on,87,0,960
1,note_on,81,78,0
1,note_on,81,0,480
1,note_on,82,60,0
1,note_on,82,0,1120
1,note_on,81,49,0
1,note_on,81,0,160
1,note_on,82,51,0
1,note_on,82,0,160
1,note_on,84,53,0
1,note_on,84,0,160
1,note_on,82,50,0
1,note_on,82,0,160
1,note_on,81,50,0
1,note_on,81,0,160
1,note_on,82,50,0
1,note_on,82,0,1120
1,note_on,81,49,0
1,note_on,81,0,160
1,note_on,82,51,0
1,note_on,82,0,160
1,note_on,84,53,0
1,note_on,84,0,160
1,note_on,82,50,0
1,note_on,82,0,160
1,note_on,81,50,0
1,note_on,81,0,160
1,note_on,82,54,160
1,note_on,82,0,160
1,note_on,84,56,0
1,note_on,84,0,160
1,note_on,86,58,0
1,note_on,86,0,160
1,note_on,84,55,0
1,note_on,84,0,160
1,note_on,82,52,0
1,note_on,82,0,160
1,note_on,86,54,160
1,note_on,86,0,160
1,note_on,87,57,0
1,note_on,87,0,160
1,note_on,89,59,0
1,note_on,89,0,160
1,note_on,87,57,0
1,note_on,87,0,160
1,note_on,86,55,0
1,note_on,86,0,160
1,note_on,89,63,0
1,note_on,89,0,160
1,note_on,87,63,0
1,note_on,87,0,160
1,note_on,86,62,0
1,note_on,86,0,160
1,note_on,84,61,0
1,note_on,84,0,160
1,note_on,82,60,0
1,note_on,82,0,160
1,note_on,80,59,0
1,note_on,80,0,160
1,note_on,79,59,0
1,note_on,79,0,160
1,note_on,77,58,0
1,note_on,77,0,160
1,note_on,75,57,0
1,note_on,75,0,160
1,note_on,74,56,0
1,note_on,74,0,120
1,note_on,72,56,0
1,note_on,72,0,120
1,note_on,70,55,0
1,note_on,70,0,120
1,note_on,68,54,0
1,note_on,68,0,120
1,note_on,67,59,0
1,note_on,63,55,160
1,note_on,67,0,10
1,note_on,65,55,150
1,note_on,63,0,10
1,note_on,67,59,150
1,note_on,65,0,10
1,note_on,65,55,150
1,note_on,67,0,10
1,note_on,63,55,150
1,note_on,65,0,10
1,note_on,68,59,150
1,note_on,63,0,10
1,note_on,68,0,950
1,note_on,67,59,0
1,note_on,75,55,160
1,note_on,67,0,10
1,note_on,77,55,150
1,note_on,75,0,10
1,note_on,79,59,150
1,note_on,77,0,10
1,note_on,77,55,150
1,note_on,79,0,10
1,note_on,75,55,150
1,note_on,77,0,10
1,note_on,80,59,150
1,note_on,75,0,10
1,note_on,80,0,950
1,note_on,79,59,0
1,note_on,79,0,160
1,note_on,75,59,0
1,note_on,75,0,160
1,note_on,77,59,0
1,note_on,77,0,160
1,note_on,79,64,0
1,note_on,79,0,160
1,note_on,77,57,0
1,note_on,77,0,160
1,note_on,75,58,0
1,note_on,75,0,160
1,note_on,82,67,0
1,note_on,82,0,160
1,note_on,79,59,0
1,note_on,79,0,160
1,note_on,80,59,0
1,note_on,80,0,160
1,note_on,82,62,0
1,note_on,82,0,160
1,note_on,80,65,0
1,note_on,80,0,160
1,note_on,79,67,0
1,note_on,79,0,160
1,note_on,85,69,0
1,note_on,84,68,160
1,note_on,85,0,10
1,note_on,82,67,150
1,note_on,84,0,10
1,note_on,80,66,150
1,note_on,82,0,10
1,note_on,79,65,150
1,note_on,80,0,10
1,note_on,77,63,150
1,note_on,79,0,10
1,note_on,75,59,150
1,note_on,77,0,10
1,note_on,74,55,150
1,note_on,75,0,10
1,note_on,75,55,150
1,note_on,74,0,10
1,note_on,76,59,150
1,note_on,75,0,10
1,note_on,77,56,150
1,note_on,76,0,10
1,note_on,73,56,150
1,note_on,77,0,10
1,note_on,73,0,160
1,note_on,60,57,470
1,note_on,60,0,160
1,note_on,63,59,0
1,note_on,63,0,160
1,note_on,68,62,0
1,note_on,68,0,160
1,note_on,72,64,0
1,note_on,72,0,160
1,note_on,75,66,0
1,note_on,75,0,160
1,note_on,80,68,0
1,note_on,80,0,160
1,note_on,84,70,0
1,note_on,84,0,120
1,note_on,84,70,120
1,note_on,84,0,120
1,note_on,84,70,120
1,note_on,84,0,240
1,note_on,82,68,0
1,note_on,82,0,240
1,note_on,80,66,0
1,note_on,80,0,120
1,note_on,79,64,120
1,note_on,79,0,120
1,note_on,79,65,120
1,note_on,79,0,240
1,note_on,77,63,0
1,note_on,77,0,240
1,note_on,75,61,0
1,note_on,75,0,120
1,note_on,74,59,120
1,note_on,74,0,120
1,note_on,75,63,120
1,note_on,75,0,480
1,note_on,58,45,960
1,note_on,58,0,470
1,note_on,62,37,10
1,note_on,65,45,0
1,note_on,65,0,240
1,note_on,62,0,0
1,note_on,62,38,240
1,note_on,65,45,0
1,note_on,65,0,240
1,note_on,62,0,0
1,note_on,62,38,240
1,note_on,65,45,0
1,note_on,65,0,240
1,note_on,62,0,0
1,note_on,62,39,240
1,note_on,65,46,0
1,note_on,65,0,240
1,note_on,62,0,0
1,note_on,63,40,240
1,note_on,70,47,0
1,note_on,70,0,1440
1,note_on,63,0,0
1,note_on,63,46,0
1,note_on,70,46,0
1,note_on,70,0,480
1,note_on,63,0,0
1,note_on,63,40,0
1,note_on,68,48,0
1,note_on,68,0,960
1,note_on,63,0,0
1,note_on,65,37,0
1,note_on,63,37,0
1,note_on,69,45,0
1,note_on,69,0,960
1,note_on,63,0,0
1,note_on,65,0,0
1,note_on,62,39,0
1,note_on,65,39,0
1,note_on,70,46,0
1,note_on,70,0,1440
1,note_on,65,0,0
1,note_on,62,0,0
1,note_on,70,50,0
1,note_on,70,0,470
1,note_on,70,42,10
1,note_on,77,50,0
1,note_on,77,0,240
1,note_on,70,0,0
1,note_on,70,45,240
1,note_on,77,53,0
1,note_on,77,0,240
1,note_on,70,0,0
1,note_on,70,47,240
1,note_on,77,56,0
1,note_on,77,0,240
1,note_on,70,0,0
1,note_on,70,50,240
1,note_on,77,59,0
1,note_on,77,0,240
1,note_on,70,0,0
1,note_on,70,73,240
1,note_on,82,73,0
1,note_on,70,0,960
1,note_on,73,80,0
1,note_on,82,0,480
1,note_on,83,72,0
1,note_on,83,0,480
1,note_on,73,0,0
1,note_on,72,74,0
1,note_on,84,87,0
1,note_on,84,0,480
1,note_on,72,0,0
1,note_on,65,74,480
1,note_on,68,74,0
1,note_on,74,87,0
1,note_on,74,0,480
1,note_on,68,0,0
1,note_on,65,0,0
1,note_on,67,49,480
1,note_on,75,55,0
1,note_on,75,0,480
1,note_on,67,0,0
1,note_on,70,54,640
1,note_on,72,56,160
1,note_on,70,0,10
1,note_on,74,57,150
1,note_on,72,0,10
1,note_on,72,54,150
1,note_on,74,0,10
1,note_on,70,51,150
1,note_on,72,0,10
1,note_on,75,55,150
1,note_on,70,0,10
1,note_on,75,0,470
1,note_on,70,54,640
1,note_on,72,56,160
1,note_on,70,0,10
1,note_on,74,57,150
1,note_on,72,0,10
1,note_on,72,54,150
1,note_on,74,0,10
1,note_on,70,51,150
1,note_on,72,0,10
1,note_on,75,56,150
1,note_on,70,0,10
1,note_on,75,0,150
1,note_on,79,59,0
1,note_on,79,0,160
1,note_on,77,52,0
1,note_on,77,0,160
1,note_on,75,59,0
1,note_on,75,0,160
1,note_on,74,57,0
1,note_on,74,0,160
1,note_on,72,58,0
1,note_on,72,0,160
1,note_on,71,54,0
1,note_on,71,0,160
1,note_on,72,54,0
1,note_on,72,0,160
1,note_on,70,53,0
1,note_on,70,0,160
1,note_on,68,53,0
1,note_on,68,0,160
1,note_on,67,52,0
1,note_on,67,0,160
1,note_on,65,52,0
1,note_on,65,0,160
1,note_on,63,55,0
1,note_on,63,0,480
1,note_on,58,54,640
1,note_on,60,56,160
1,note_on,58,0,10
1,note_on,62,57,150
1,note_on,60,0,10
1,note_on,60,54,150
1,note_on,62,0,10
1,note_on,58,51,150
1,note_on,60,0,10
1,note_on,63,55,150
1,note_on,58,0,10
1,note_on,63,0,470
1,note_on,58,54,640
1,note_on,60,56,160
1,note_on,58,0,10
1,note_on,62,57,150
1,note_on,60,0,10
1,note_on,60,54,150
1,note_on,62,0,10
1,note_on,58,51,150
1,note_on,60,0,10
1,note_on,63,55,150
1,note_on,58,0,10
1,note_on,63,0,470
1,note_on,59,54,640
1,note_on,60,56,160
1,note_on,59,0,10
1,note_on,62,57,150
1,note_on,60,0,10
1,note_on,60,54,150
1,note_on,62,0,10
1,note_on,59,51,150
1,note_on,60,0,10
1,note_on,65,64,150
1,note_on,59,0,10
1,note_on,63,54,152
1,note_on,65,0,8
1,note_on,62,58,151
1,note_on,63,0,11
1,note_on,68,66,141
1,note_on,62,0,8
1,note_on,67,58,161
1,note_on,68,0,1
1,note_on,65,61,158
1,note_on,67,0,11
1,note_on,74,70,148
1,note_on,65,0,1
1,note_on,72,60,158
1,note_on,74,0,11
1,note_on,71,64,151
1,note_on,72,0,8
1,note_on,71,0,152
1,note_on,77,74,5
1,note_on,75,64,153
1,note_on,77,0,17
1,note_on,74,68,145
1,note_on,75,0,8
1,note_on,89,100,151
1,note_on,74,0,1
1,note_on,89,0,1439
1,note_on,87,86,0
1,note_on,87,0,160
1,note_on,86,85,0
1,note_on,86,0,160
1,note_on,84,83,0
1,note_on,84,0,160
1,note_on,83,82,0
1,note_on,83,0,160
1,note_on,80,81,0
1,note_on,80,0,160
1,note_on,79,79,0
1,note_on,79,0,160
1,note_on,77,78,0
1,note_on,77,0,160
1,note_on,75,77,0
1,note_on,75,0,160
1,note_on,74,75,0
1,note_on,74,0,160
1,note_on,72,74,0
1,note_on,72,0,160
1,note_on,71,72,0
1,note_on,71,0,160
1,note_on,68,71,0
1,note_on,68,0,160
1,note_on,67,70,0
1,note_on,67,0,96
1,note_on,65,68,0
1,note_on,65,0,96
1,note_on,63,69,0
1,note_on,63,0,96
1,note_on,62,70,0
1,note_on,62,0,96
1,note_on,60,71,0
1,note_on,60,0,96
1,note_on,59,93,0
1,note_on,59,0,2880
1,note_on,67,48,240
1,note_on,67,0,120
1,note_on,72,49,120
1,note_on,72,0,120
1,note_on,74,51,120
1,note_on,74,0,120
1,note_on,75,52,120
1,note_on,75,0,720
1,note_on,77,50,0
1,note_on,77,0,240
1,note_on,74,53,0
1,note_on,74,0,720
1,note_on,75,50,0
1,note_on,75,0,240
1,note_on,72,52,0
1,note_on,72,0,900
1,note_on,74,48,0
1,note_on,74,0,60
1,note_on,72,52,0
1,note_on,72,0,240
1,note_on,71,51,0
1,note_on,71,0,240
1,note_on,72,51,0
1,note_on,72,0,240
1,note_on,74,50,0
1,note_on,74,0,180
1,note_on,77,49,0
1,note_on,77,0,60
1,note_on,75,56,0
1,note_on,75,0,240
1,note_on,74,52,0
1,note_on,74,0,240
1,note_on,75,52,0
1,note_on,75,0,240
1,note_on,77,52,0
1,note_on,77,0,240
1,note_on,79,56,0
1,note_on,79,0,240
1,note_on,79,55,240
1,note_on,79,0,240
1,note_on,79,57,240
1,note_on,79,0,1440
1,note_on,77,51,0
1,note_on,77,0,240
1,note_on,79,53,0
1,note_on,79,0,120
1,note_on,77,48,0
1,note_on,77,0,60
1,note_on,79,48,0
1,note_on,79,0,60
1,note_on,80,56,0
1,note_on,80,0,960
1,note_on,74,52,0
1,note_on,74,0,480
1,note_on,75,51,0
1,note_on,75,0,240
1,note_on,77,53,0
1,note_on,77,0,120
1,note_on,75,50,0
1,note_on,75,0,60
1,note_on,77,50,0
1,note_on,77,0,60
1,note_on,79,56,0
1,note_on,79,0,960
1,note_on,72,52,0
1,note_on,72,0,470
1,note_on,72,53,10
1,note_on,72,0,240
1,note_on,74,54,0
1,note_on,74,0,240
1,note_on,75,57,0
1,note_on,75,0,240
1,note_on,75,53,240
1,note_on,75,0,240
1,note_on,77,55,0
1,note_on,77,0,240
1,note_on,74,57,0
1,note_on,74,0,240
1,note_on,74,51,240
1,note_on,74,0,240
1,note_on,75,54,0
1,note_on,75,0,240
1,note_on,72,57,0
1,note_on,72,0,480
1,note_on,77,56,960
1,note_on,77,0,240
1,note_on,79,58,0
1,note_on,79,0,240
1,note_on,68,51,0
1,note_on,80,61,0
1,note_on,80,0,960
1,note_on,68,0,0
1,note_on,74,57,0
1,note_on,74,0,480
1,note_on,75,56,0
1,note_on,75,0,240
1,note_on,77,58,0
1,note_on,77,0,240
1,note_on,67,51,0
1,note_on,79,61,0
1,note_on,79,0,960
1,note_on,67,0,0
1,note_on,72,57,0
1,note_on,72,0,470
1,note_on,72,58,10
1,note_on,72,0,240
1,note_on,74,59,0
1,note_on,74,0,240
1,note_on,75,62,0
1,note_on,75,0,240
1,note_on,75,58,240
1,note_on,75,0,240
1,note_on,77,60,0
1,note_on,77,0,240
1,note_on,74,62,0
1,note_on,74,0,240
1,note_on,74,56,240
1,note_on,74,0,240
1,note_on,75,59,0
1,note_on,75,0,240
1,note_on,72,62,0
1,note_on,72,0,240
1,note_on,82,74,240
1,note_on,82,0,960
1,note_on,82,73,0
1,note_on,82,0,720
1,note_on,80,71,0
1,note_on,80,0,240
1,note_on,79,72,0
1,note_on,79,0,240
1,note_on,77,72,0
1,note_on,77,0,240
1,note_on,75,71,0
1,note_on,75,0,240
1,note_on,74,71,0
1,note_on,74,0,240
1,note_on,72,71,0
1,note_on,72,0,240
1,note_on,71,71,0
1,note_on,71,0,240
1,note_on,72,73,0
1,note_on,72,0,240
1,note_on,72,67,240
1,note_on,84,79,0
1,note_on,84,0,960
1,note_on,72,0,0
1,note_on,82,80,0
1,note_on,82,0,720
1,note_on,80,81,0
1,note_on,80,0,240
1,note_on,79,82,0
1,note_on,79,0,240
1,note_on,77,81,0
1,note_on,77,0,240
1,note_on,75,79,0
1,note_on,75,0,240
1,note_on,74,79,0
1,note_on,74,0,240
1,note_on,72,79,0
1,note_on,72,0,240
1,note_on,71,78,0
1,note_on,71,0,240
1,note_on,72,89,0
1,note_on,72,0,240
1,note_on,74,81,240
1,note_on,74,0,80
1,note_on,75,81,0
1,note_on,75,0,80
1,note_on,74,81,0
1,note_on,74,0,80
1,note_on,75,81,0
1,note_on,75,0,60
1,note_on,74,81,0
1,note_on,74,0,60
1,note_on,72,80,0
1,note_on,72,0,60
1,note_on,74,80,0
1,note_on,74,0,60
1,note_on,75,92,0
1,note_on,75,0,240
1,note_on,71,92,240
1,note_on,74,92,0
1,note_on,83,92,0
1,note_on,83,0,240
1,note_on,74,0,0
1,note_on,71,0,0
1,note_on,72,92,240
1,note_on,75,92,0
1,note_on,84,92,0
1,note_on,84,0,240
1,note_on,75,0,0
1,note_on,72,0,0
1,note_on,60,53,1680
1,note_on,60,0,960
1,note_on,65,48,0
1,note_on,65,0,960
1,note_on,58,51,0
1,note_on,58,0,960
1,note_on,63,48,0
1,note_on,63,0,960
1,note_on,56,52,0
1,note_on,56,0,960
1,note_on,61,48,0
1,note_on,61,0,480
1,note_on,60,48,0
1,note_on,60,0,480
1,note_on,58,53,0
1,note_on,58,0,480
1,note_on,56,48,0
1,note_on,56,0,480
1,note_on,55,48,0
1,note_on,55,0,480
1,note_on,72,55,960
1,note_on,72,0,960
1,note_on,65,53,0
1,note_on,65,0,960
1,note_on,70,56,0
1,note_on,70,0,960
1,note_on,63,53,0
1,note_on,63,0,960
1,note_on,68,53,0
1,note_on,68,0,480
1,note_on,67,51,0
1,note_on,67,0,480
1,note_on,65,51,0
1,note_on,65,0,480
1,note_on,63,53,0
1,note_on,63,0,480
1,note_on,62,49,0
1,note_on,62,0,480
1,note_on,65,53,0
1,note_on,65,0,480
1,note_on,63,49,0
1,note_on,63,0,480
1,note_on,72,57,0
1,note_on,72,0,960
1,note_on,65,40,0
1,note_on,77,48,0
1,note_on,77,0,960
1,note_on,65,0,0
1,note_on,70,57,0
1,note_on,70,0,960
1,note_on,63,40,0
1,note_on,75,48,0
1,note_on,75,0,960
1,note_on,68,52,0
1,note_on,63,0,480
1,note_on,60,48,0
1,note_on,60,0,480
1,note_on,68,0,0
1,note_on,65,45,0
1,note_on,73,53,0
1,note_on,73,0,480
1,note_on,65,0,0
1,note_on,63,40,0
1,note_on,72,48,0
1,note_on,72,0,480
1,note_on,63,0,0
1,note_on,61,40,0
1,note_on,70,53,0
1,note_on,70,0,480
1,note_on,61,0,0
1,note_on,60,40,0
1,note_on,68,48,0
1,note_on,68,0,480
1,note_on,60,0,0
1,note_on,58,40,0
1,note_on,67,48,0
1,note_on,67,0,480
1,note_on,58,0,0
1,note_on,63,48,0
1,note_on,63,0,480
1,note_on,72,46,480
1,note_on,84,55,0
1,note_on,84,0,960
1,note_on,72,0,0
1,note_on,77,55,0
1,note_on,77,0,960
1,note_on,70,51,0
1,note_on,82,61,0
1,note_on,82,0,960
1,note_on,70,0,0
1,note_on,75,59,0
1,note_on,72,51,480
1,note_on,75,0,480
1,note_on,80,61,0
1,note_on,80,0,480
1,note_on,72,0,0
1,note_on,70,50,0
1,note_on,79,60,0
1,note_on,79,0,480
1,note_on,70,0,0
1,note_on,68,51,0
1,note_on,77,61,0
1,note_on,77,0,480
1,note_on,68,0,0
1,note_on,67,54,0
1,note_on,75,64,0
1,note_on,75,0,480
1,note_on,67,0,0
1,note_on,65,50,0
1,note_on,74,60,0
1,note_on,74,0,480
1,note_on,65,0,0
1,note_on,68,56,0
1,note_on,77,66,0
1,note_on,77,0,480
1,note_on,68,0,0
1,note_on,67,52,0
1,note_on,75,62,0
1,note_on,75,0,480
1,note_on,67,0,0
1,note_on,75,65,1440
1,note_on,75,0,480
1,note_on,72,68,0
1,note_on,72,0,480
1,note_on,73,65,0
1,note_on,73,0,480
1,note_on,77,67,0
1,note_on,77,0,480
1,note_on,67,63,0
1,note_on,67,0,480
1,note_on,70,68,0
1,note_on,70,0,480
1,note_on,68,65,0
1,note_on,68,0,480
1,note_on,72,67,0
1,note_on,72,0,480
1,note_on,62,65,0
1,note_on,62,0,480
1,note_on,63,65,0
1,note_on,63,0,240
1,note_on,82,61,240
1,note_on,82,0,480
1,note_on,87,66,0
1,note_on,87,0,480
1,note_on,85,62,0
1,note_on,85,0,480
1,note_on,84,69,0
1,note_on,84,0,960
1,note_on,89,70,0
1,note_on,89,0,960
1,note_on,82,70,0
1,note_on,82,0,960
1,note_on,87,67,0
1,note_on,87,0,960
1,note_on,80,70,0
1,note_on,80,0,960
1,note_on,73,72,0
1,note_on,85,72,0
1,note_on,85,0,240
1,note_on,73,0,0
1,note_on,84,73,240
1,note_on,72,73,0
1,note_on,72,0,240
1,note_on,84,0,0
1,note_on,70,75,240
1,note_on,82,75,0
1,note_on,82,0,240
1,note_on,70,0,0
1,note_on,80,77,240
1,note_on,68,77,0
1,note_on,68,0,240
1,note_on,80,0,0
1,note_on,67,79,240
1,note_on,79,79,0
1,note_on,79,0,240
1,note_on,67,0,0
1,note_on,73,80,240
1,note_on,73,0,240
1,note_on,84,80,240
1,note_on,84,0,240
1,note_on,82,79,0
1,note_on,82,0,240
1,note_on,80,79,0
1,note_on,80,0,240
1,note_on,79,78,0
1,note_on,79,0,240
1,note_on,77,77,0
1,note_on,77,0,240
1,note_on,75,76,0
1,note_on,75,0,240
1,note_on,73,76,0
1,note_on,73,0,240
1,note_on,72,76,0
1,note_on,72,0,240
1,note_on,70,77,0
1,note_on,70,0,240
1,note_on,68,77,0
1,note_on,68,0,240
1,note_on,67,77,0
1,note_on,67,0,240
1,note_on,65,77,0
1,note_on,65,0,240
1,note_on,64,77,0
1,note_on,64,0,240
1,note_on,61,76,0
1,note_on,61,0,240
1,note_on,60,76,0
1,note_on,60,0,240
1,note_on,58,75,0
1,note_on,58,0,240
1,note_on,56,75,0
1,note_on,56,0,240
1,note_on,55,74,0
1,note_on,55,0,240
1,note_on,53,73,0
1,note_on,53,0,240
1,note_on,52,71,0
1,note_on,52,0,240
1,note_on,53,70,0
1,note_on,53,0,240
1,note_on,55,72,0
1,note_on,55,0,240
1,note_on,56,74,0
1,note_on,56,0,240
1,note_on,55,71,0
1,note_on,55,0,240
1,note_on,53,73,0
1,note_on,53,0,240
1,note_on,51,72,0
1,note_on,51,0,240
1,note_on,50,71,0
1,note_on,50,0,240
1,note_on,48,70,0
1,note_on,48,0,240
1,note_on,47,67,0
1,note_on,47,0,240
1,note_on,48,69,0
1,note_on,48,0,240
1,note_on,50,71,0
1,note_on,50,0,240
1,note_on,48,70,0
1,note_on,48,0,240
1,note_on,43,56,120
1,note_on,43,0,120
1,note_on,47,56,0
1,note_on,47,0,120
1,note_on,50,56,0
1,note_on,50,0,120
1,note_on,55,69,0
1,note_on,55,0,120
1,note_on,43,58,480
1,note_on,43,0,120
1,note_on,48,58,0
1,note_on,48,0,120
1,note_on,51,58,0
1,note_on,51,0,120
1,note_on,55,70,0
1,note_on,55,0,120
1,note_on,43,60,480
1,note_on,43,0,120
1,note_on,50,60,0
1,note_on,50,0,120
1,note_on,53,60,0
1,note_on,53,0,120
1,note_on,55,71,0
1,note_on,55,0,120
1,note_on,43,61,480
1,note_on,43,0,120
1,note_on,48,61,0
1,note_on,48,0,120
1,note_on,51,61,0
1,note_on,51,0,120
1,note_on,55,71,0
1,note_on,55,0,120
1,note_on,55,60,480
1,note_on,55,0,120
1,note_on,59,60,0
1,note_on,59,0,120
1,note_on,62,60,0
1,note_on,62,0,120
1,note_on,67,76,0
1,note_on,67,0,120
1,note_on,55,64,480
1,note_on,55,0,120
1,note_on,60,64,0
1,note_on,60,0,120
1,note_on,63,64,0
1,note_on,63,0,120
1,note_on,67,76,0
1,note_on,67,0,120
1,note_on,55,66,480
1,note_on,55,0,120
1,note_on,62,66,0
1,note_on,62,0,120
1,note_on,65,66,0
1,note_on,65,0,120
1,note_on,67,77,0
1,note_on,67,0,120
1,note_on,55,67,480
1,note_on,55,0,120
1,note_on,60,67,0
1,note_on,60,0,120
1,note_on,63,67,0
1,note_on,63,0,120
1,note_on,67,77,0
1,note_on,67,0,120
1,note_on,67,72,480
1,note_on,67,0,120
1,note_on,71,72,0
1,note_on,71,0,120
1,note_on,74,72,0
1,note_on,74,0,120
1,note_on,79,89,0
1,note_on,79,0,120
1,note_on,67,75,480
1,note_on,67,0,120
1,note_on,72,75,0
1,note_on,72,0,120
1,note_on,75,75,0
1,note_on,75,0,120
1,note_on,79,88,0
1,note_on,79,0,120
1,note_on,67,75,480
1,note_on,67,0,120
1,note_on,74,75,0
1,note_on,74,0,120
1,note_on,77,75,0
1,note_on,77,0,120
1,note_on,79,87,0
1,note_on,79,0,120
1,note_on,67,75,480
1,note_on,67,0,120
1,note_on,72,75,0
1,note_on,72,0,120
1,note_on,75,75,0
1,note_on,75,0,120
1,note_on,79,86,0
1,note_on,79,0,120
1,note_on,67,66,520
1,note_on,67,0,160
1,note_on,66,68,0
1,note_on,66,0,160
1,note_on,67,70,0
1,note_on,67,0,160
1,note_on,71,72,0
1,note_on,71,0,160
1,note_on,74,75,0
1,note_on,74,0,160
1,note_on,79,84,0
1,note_on,79,0,160
1,note_on,74,72,0
1,note_on,74,0,160
1,note_on,71,64,0
1,note_on,71,0,160
1,note_on,67,70,0
1,note_on,67,0,120
1,note_on,71,66,520
1,note_on,71,0,160
1,note_on,70,68,0
1,note_on,70,0,160
1,note_on,71,70,0
1,note_on,71,0,160
1,note_on,74,72,0
1,note_on,74,0,160
1,note_on,79,75,0
1,note_on,79,0,160
1,note_on,83,84,0
1,note_on,83,0,160
1,note_on,79,72,0
1,note_on,79,0,160
1,note_on,74,64,0
1,note_on,74,0,160
1,note_on,71,70,0
1,note_on,71,0,120
1,note_on,74,66,520
1,note_on,74,0,160
1,note_on,73,68,0
1,note_on,73,0,160
1,note_on,74,70,0
1,note_on,74,0,160
1,note_on,77,72,0
1,note_on,77,0,160
1,note_on,83,75,0
1,note_on,83,0,160
1,note_on,86,84,0
1,note_on,86,0,160
1,note_on,83,72,0
1,note_on,83,0,160
1,note_on,77,64,0
1,note_on,77,0,160
1,note_on,74,70,0
1,note_on,74,0,120
1,note_on,77,66,520
1,note_on,77,0,160
1,note_on,76,68,0
1,note_on,76,0,160
1,note_on,77,70,0
1,note_on,77,0,160
1,note_on,83,72,0
1,note_on,83,0,160
1,note_on,86,75,0
1,note_on,86,0,160
1,note_on,89,84,0
1,note_on,89,0,160
1,note_on,86,72,0
1,note_on,86,0,160
1,note_on,83,64,0
1,note_on,83,0,160
1,note_on,89,84,0
1,note_on,89,0,160
1,note_on,86,72,0
1,note_on,86,0,160
1,note_on,83,64,0
1,note_on,83,0,160
1,note_on,89,100,0
1,note_on,89,0,1440
1,note_on,87,86,0
1,note_on,87,0,160
1,note_on,86,85,0
1,note_on,86,0,160
1,note_on,84,83,0
1,note_on,84,0,160
1,note_on,83,82,0
1,note_on,83,0,160
1,note_on,80,81,0
1,note_on,80,0,160
1,note_on,79,79,0
1,note_on,79,0,160
1,note_on,77,78,0
1,note_on,77,0,160
1,note_on,75,77,0
1,note_on,75,0,160
1,note_on,74,75,0
1,note_on,74,0,160
1,note_on,72,74,0
1,note_on,72,0,160
1,note_on,71,72,0
1,note_on,71,0,160
1,note_on,68,71,0
1,note_on,68,0,160
1,note_on,67,70,0
1,note_on,67,0,96
1,note_on,65,68,0
1,note_on,65,0,96
1,note_on,63,69,0
1,note_on,63,0,96
1,note_on,62,70,0
1,note_on,62,0,96
1,note_on,60,71,0
1,note_on,60,0,96
1,note_on,59,93,0
1,note_on,59,0,2880
1,note_on,67,48,240
1,note_on,67,0,120
1,note_on,72,49,120
1,note_on,72,0,120
1,note_on,74,51,120
1,note_on,74,0,120
1,note_on,75,52,120
1,note_on,75,0,720
1,note_on,77,50,0
1,note_on,77,0,240
1,note_on,74,53,0
1,note_on,74,0,720
1,note_on,75,50,0
1,note_on,75,0,240
1,note_on,72,52,0
1,note_on,72,0,900
1,note_on,74,48,0
1,note_on,74,0,60
1,note_on,72,52,0
1,note_on,72,0,240
1,note_on,71,51,0
1,note_on,71,0,240
1,note_on,72,51,0
1,note_on,72,0,240
1,note_on,74,50,0
1,note_on,74,0,180
1,note_on,77,49,0
1,note_on,77,0,60
1,note_on,75,56,0
1,note_on,75,0,240
1,note_on,74,52,0
1,note_on,74,0,240
1,note_on,75,52,0
1,note_on,75,0,240
1,note_on,77,52,0
1,note_on,77,0,240
1,note_on,79,56,0
1,note_on,79,0,240
1,note_on,79,55,240
1,note_on,79,0,240
1,note_on,79,57,240
1,note_on,79,0,1440
1,note_on,77,51,0
1,note_on,77,0,240
1,note_on,79,53,0
1,note_on,79,0,120
1,note_on,77,48,0
1,note_on,77,0,60
1,note_on,79,48,0
1,note_on,79,0,60
1,note_on,80,56,0
1,note_on,80,0,960
1,note_on,74,52,0
1,note_on,74,0,480
1,note_on,75,51,0
1,note_on,75,0,240
1,note_on,77,53,0
1,note_on,77,0,120
1,note_on,75,50,0
1,note_on,75,0,60
1,note_on,77,50,0
1,note_on,77,0,60
1,note_on,79,56,0
1,note_on,79,0,960
1,note_on,72,52,0
1,note_on,72,0,470
1,note_on,72,53,10
1,note_on,72,0,240
1,note_on,74,54,0
1,note_on,74,0,240
1,note_on,75,57,0
1,note_on,75,0,240
1,note_on,75,53,240
1,note_on,75,0,240
1,note_on,77,55,0
1,note_on,77,0,240
1,note_on,74,57,0
1,note_on,74,0,240
1,note_on,74,51,240
1,note_on,74,0,240
1,note_on,75,54,0
1,note_on,75,0,240
1,note_on,72,57,0
1,note_on,72,0,480
1,note_on,59,47,1680
1,note_on,59,0,240
1,note_on,62,49,0
1,note_on,62,0,240
1,note_on,65,51,0
1,note_on,65,0,240
1,note_on,77,51,240
1,note_on,77,0,240
1,note_on,74,50,0
1,note_on,74,0,240
1,note_on,71,48,0
1,note_on,71,0,240
1,note_on,60,44,240
1,note_on,60,0,240
1,note_on,63,46,0
1,note_on,63,0,240
1,note_on,67,49,0
1,note_on,67,0,240
1,note_on,79,48,240
1,note_on,79,0,240
1,note_on,75,47,0
1,note_on,75,0,240
1,note_on,72,45,0
1,note_on,72,0,240
1,note_on,64,47,240
1,note_on,64,0,240
1,note_on,67,49,0
1,note_on,67,0,240
1,note_on,70,51,0
1,note_on,70,0,240
1,note_on,82,51,240
1,note_on,82,0,240
1,note_on,79,50,0
1,note_on,79,0,240
1,note_on,76,48,0
1,note_on,76,0,240
1,note_on,65,48,240
1,note_on,65,0,240
1,note_on,68,50,0
1,note_on,68,0,240
1,note_on,72,53,0
1,note_on,72,0,240
1,note_on,77,55,0
1,note_on,77,0,240
1,note_on,80,58,0
1,note_on,80,0,240
1,note_on,84,60,0
1,note_on,84,0,240
1,note_on,89,69,0
1,note_on,89,0,720
1,note_on,87,63,0
1,note_on,87,0,480
1,note_on,86,61,0
1,note_on,86,0,480
1,note_on,84,60,0
1,note_on,84,0,480
1,note_on,83,60,0
1,note_on,83,0,240
1,note_on,79,60,240
1,note_on,79,0,960
1,note_on,79,56,0
1,note_on,79,0,720
1,note_on,81,54,0
1,note_on,81,0,240
1,note_on,83,55,0
1,note_on,83,0,240
1,note_on,84,57,0
1,note_on,84,0,240
1,note_on,86,58,0
1,note_on,86,0,240
1,note_on,88,60,0
1,note_on,88,0,240
1,note_on,89,61,0
1,note_on,89,0,240
1,note_on,86,58,0
1,note_on,86,0,240
1,note_on,89,61,0
1,note_on,89,0,240
1,note_on,88,60,0
1,note_on,88,0,240
1,note_on,86,59,0
1,note_on,86,0,240
1,note_on,84,58,0
1,note_on,84,0,220
1,note_on,84,60,20
1,note_on,84,0,240
1,note_on,83,58,0
1,note_on,83,0,240
1,note_on,81,58,0
1,note_on,81,0,240
1,note_on,83,58,0
1,note_on,83,0,240
1,note_on,86,63,0
1,note_on,86,0,240
1,note_on,84,57,0
1,note_on,84,0,240
1,note_on,83,57,0
1,note_on,83,0,240
1,note_on,81,57,0
1,note_on,81,0,240
1,note_on,77,48,0
1,note_on,79,60,0
1,note_on,79,0,432
1,note_on,77,0,0
1,note_on,77,48,48
1,note_on,79,60,0
1,note_on,79,0,432
1,note_on,77,0,0
1,note_on,77,60,48
1,note_on,79,60,0
1,note_on,77,0,240
1,note_on,76,53,0
1,note_on,76,0,240
1,note_on,74,53,0
1,note_on,74,0,240
1,note_on,72,53,0
1,note_on,72,0,220
1,note_on,72,57,20
1,note_on,72,0,240
1,note_on,71,52,0
1,note_on,71,0,240
1,note_on,69,52,0
1,note_on,69,0,240
1,note_on,71,52,0
1,note_on,71,0,240
1,note_on,72,52,0
1,note_on,79,0,240
1,note_on,81,54,0
1,note_on,81,0,240
1,note_on,72,0,0
1,note_on,83,55,0
1,note_on,83,0,240
1,note_on,84,57,0
1,note_on,84,0,240
1,note_on,86,58,0
1,note_on,86,0,240
1,note_on,88,60,0
1,note_on,88,0,240
1,note_on,89,61,0
1,note_on,89,0,240
1,note_on,86,58,0
1,note_on,86,0,240
1,note_on,89,61,0
1,note_on,89,0,240
1,note_on,88,60,0
1,note_on,88,0,240
1,note_on,86,59,0
1,note_on,86,0,240
1,note_on,84,58,0
1,note_on,84,0,240
1,note_on,83,60,0
1,note_on,83,0,240
1,note_on,84,58,0
1,note_on,84,0,240
1,note_on,88,59,0
1,note_on,88,0,240
1,note_on,84,59,0
1,note_on,84,0,240
1,note_on,83,66,0
1,note_on,83,0,240
1,note_on,81,57,0
1,note_on,81,0,240
1,note_on,84,58,0
1,note_on,84,0,240
1,note_on,81,59,0
1,note_on,81,0,240
1,note_on,79,69,0
1,note_on,79,0,240
1,note_on,77,63,0
1,note_on,77,0,240
1,note_on,81,63,0
1,note_on,81,0,240
1,note_on,77,64,0
1,note_on,77,0,240
1,note_on,76,72,0
1,note_on,76,0,240
1,note_on,74,62,0
1,note_on,74,0,240
1,note_on,77,64,0
1,note_on,77,0,240
1,note_on,74,64,0
1,note_on,74,0,240
1,note_on,81,75,0
1,note_on,81,0,240
1,note_on,77,67,0
1,note_on,77,0,240
1,note_on,74,67,0
1,note_on,74,0,240
1,note_on,72,67,0
1,note_on,72,0,240
1,note_on,71,59,0
1,note_on,67,55,160
1,note_on,71,0,10
1,note_on,69,55,150
1,note_on,67,0,10
1,note_on,71,59,150
1,note_on,69,0,10
1,note_on,69,55,150
1,note_on,71,0,10
1,note_on,67,55,150
1,note_on,69,0,10
1,note_on,72,59,150
1,note_on,67,0,10
1,note_on,72,0,950
1,note_on,71,59,0
1,note_on,67,55,160
1,note_on,71,0,10
1,note_on,69,55,150
1,note_on,67,0,10
1,note_on,71,59,150
1,note_on,69,0,10
1,note_on,69,55,150
1,note_on,71,0,10
1,note_on,67,55,150
1,note_on,69,0,10
1,note_on,72,59,150
1,note_on,67,0,10
1,note_on,72,0,950
1,note_on,71,59,0
1,note_on,71,0,160
1,note_on,67,59,0
1,note_on,67,0,160
1,note_on,69,59,0
1,note_on,69,0,160
1,note_on,71,64,0
1,note_on,71,0,160
1,note_on,69,57,0
1,note_on,69,0,160
1,note_on,67,58,0
1,note_on,67,0,160
1,note_on,74,67,0
1,note_on,74,0,160
1,note_on,71,59,0
1,note_on,71,0,160
1,note_on,72,59,0
1,note_on,72,0,160
1,note_on,74,62,0
1,note_on,74,0,160
1,note_on,72,65,0
1,note_on,72,0,160
1,note_on,71,67,0
1,note_on,71,0,160
1,note_on,77,69,0
1,note_on,76,68,160
1,note_on,77,0,10
1,note_on,74,67,150
1,note_on,76,0,10
1,note_on,72,66,150
1,note_on,74,0,10
1,note_on,71,65,150
1,note_on,72,0,10
1,note_on,69,63,150
1,note_on,71,0,10
1,note_on,67,59,150
1,note_on,69,0,10
1,note_on,69,55,150
1,note_on,67,0,10
1,note_on,67,55,150
1,note_on,69,0,10
1,note_on,65,59,150
1,note_on,67,0,10
1,note_on,64,56,150
1,note_on,65,0,10
1,note_on,62,56,150
1,note_on,64,0,10
1,note_on,64,59,150
1,note_on,62,0,10
1,note_on,60,55,150
1,note_on,64,0,10
1,note_on,62,55,150
1,note_on,60,0,10
1,note_on,64,59,150
1,note_on,62,0,10
1,note_on,62,55,150
1,note_on,64,0,10
1,note_on,60,55,150
1,note_on,62,0,10
1,note_on,65,59,150
1,note_on,60,0,10
1,note_on,65,0,950
1,note_on,64,59,0
1,note_on,72,55,160
1,note_on,64,0,10
1,note_on,74,55,150
1,note_on,72,0,10
1,note_on,76,59,150
1,note_on,74,0,10
1,note_on,74,55,150
1,note_on,76,0,10
1,note_on,72,55,150
1,note_on,74,0,10
1,note_on,77,59,150
1,note_on,72,0,10
1,note_on,77,0,950
1,note_on,76,59,0
1,note_on,76,0,160
1,note_on,72,59,0
1,note_on,72,0,160
1,note_on,74,59,0
1,note_on,74,0,160
1,note_on,76,64,0
1,note_on,76,0,160
1,note_on,74,57,0
1,note_on,74,0,160
1,note_on,72,58,0
1,note_on,72,0,160
1,note_on,79,67,0
1,note_on,79,0,160
1,note_on,76,59,0
1,note_on,76,0,160
1,note_on,77,59,0
1,note_on,77,0,160
1,note_on,79,62,0
1,note_on,79,0,160
1,note_on,77,65,0
1,note_on,77,0,160
1,note_on,76,67,0
1,note_on,76,0,160
1,note_on,82,69,0
1,note_on,81,68,160
1,note_on,82,0,10
1,note_on,79,67,150
1,note_on,81,0,10
1,note_on,77,66,150
1,note_on,79,0,10
1,note_on,76,65,150
1,note_on,77,0,10
1,note_on,74,63,150
1,note_on,76,0,10
1,note_on,72,59,150
1,note_on,74,0,10
1,note_on,71,55,150
1,note_on,72,0,10
1,note_on,72,55,150
1,note_on,71,0,10
1,note_on,73,59,150
1,note_on,72,0,10
1,note_on,74,56,150
1,note_on,73,0,10
1,note_on,70,56,150
1,note_on,74,0,10
1,note_on,70,0,160
1,note_on,57,57,470
1,note_on,57,0,160
1,note_on,60,59,0
1,note_on,60,0,160
1,note_on,65,62,0
1,note_on,65,0,160
1,note_on,69,64,0
1,note_on,69,0,160
1,note_on,72,66,0
1,note_on,72,0,160
1,note_on,77,68,0
1,note_on,77,0,160
1,note_on,81,70,0
1,note_on,81,0,120
1,note_on,81,70,120
1,note_on,81,0,120
1,note_on,81,70,120
1,note_on,81,0,240
1,note_on,79,68,0
1,note_on,79,0,240
1,note_on,77,66,0
1,note_on,77,0,120
1,note_on,76,64,120
1,note_on,76,0,120
1,note_on,76,65,120
1,note_on,76,0,240
1,note_on,74,63,0
1,note_on,74,0,240
1,note_on,72,61,0
1,note_on,72,0,120
1,note_on,71,59,120
1,note_on,71,0,120
1,note_on,72,63,120
1,note_on,72,0,480
1,note_on,67,45,960
1,note_on,67,0,470
1,note_on,71,37,10
1,note_on,74,45,0
1,note_on,74,0,240
1,note_on,71,0,0
1,note_on,71,38,240
1,note_on,74,45,0
1,note_on,74,0,240
1,note_on,71,0,0
1,note_on,71,38,240
1,note_on,74,45,0
1,note_on,74,0,240
1,note_on,71,0,0
1,note_on,71,39,240
1,note_on,74,46,0
1,note_on,74,0,240
1,note_on,71,0,0
1,note_on,72,40,240
1,note_on,79,47,0
1,note_on,79,0,1440
1,note_on,72,0,0
1,note_on,72,46,0
1,note_on,79,46,0
1,note_on,79,0,480
1,note_on,72,0,0
1,note_on,75,40,0
1,note_on,72,40,0
1,note_on,78,48,0
1,note_on,78,0,941
1,note_on,72,0,0
1,note_on,75,0,0
1,note_on,74,37,19
1,note_on,72,37,0
1,note_on,78,45,0
1,note_on,78,0,941
1,note_on,72,0,0
1,note_on,74,0,0
1,note_on,71,39,19
1,note_on,74,39,0
1,note_on,79,46,0
1,note_on,79,0,480
1,note_on,74,0,0
1,note_on,71,0,0
1,note_on,55,45,960
1,note_on,55,0,474
1,note_on,59,37,6
1,note_on,62,45,0
1,note_on,62,0,240
1,note_on,59,0,0
1,note_on,59,38,240
1,note_on,62,45,0
1,note_on,62,0,240
1,note_on,59,0,0
1,note_on,59,38,240
1,note_on,62,45,0
1,note_on,62,0,240
1,note_on,59,0,0
1,note_on,59,39,240
1,note_on,62,46,0
1,note_on,62,0,240
1,note_on,59,0,0
1,note_on,67,47,240
1,note_on,59,40,480
1,note_on,59,0,480
1,note_on,60,40,0
1,note_on,67,0,480
1,note_on,67,45,0
1,note_on,67,0,480
1,note_on,65,50,0
1,note_on,65,0,240
1,note_on,60,0,0
1,note_on,60,49,240
1,note_on,65,49,0
1,note_on,65,0,240
1,note_on,60,0,0
1,note_on,62,49,240
1,note_on,65,49,0
1,note_on,65,0,240
1,note_on,62,0,0
1,note_on,62,49,240
1,note_on,65,49,0
1,note_on,65,0,240
1,note_on,70,54,240
1,note_on,62,0,480
1,note_on,62,51,0
1,note_on,62,0,480
1,note_on,63,51,0
1,note_on,70,0,480
1,note_on,70,53,0
1,note_on,70,0,480
1,note_on,69,59,0
1,note_on,69,0,240
1,note_on,63,0,240
1,note_on,66,56,0
1,note_on,69,56,0
1,note_on,69,0,240
1,note_on,66,0,0
1,note_on,66,56,240
1,note_on,69,56,0
1,note_on,69,0,240
1,note_on,66,0,0
1,note_on,66,55,240
1,note_on,69,55,0
1,note_on,69,0,240
1,note_on,74,61,240
1,note_on,66,0,480
1,note_on,66,54,0
1,note_on,66,0,480
1,note_on,67,54,0
1,note_on,67,0,480
1,note_on,74,0,0
1,note_on,66,62,0
1,note_on,69,62,0
1,note_on,69,0,480
1,note_on,74,63,0
1,note_on,66,0,480
1,note_on,66,55,0
1,note_on,66,0,480
1,note_on,67,50,0
1,note_on,67,0,480
1,note_on,74,0,0
1,note_on,71,54,0
1,note_on,74,54,0
1,note_on,74,0,480
1,note_on,79,58,0
1,note_on,71,0,480
1,note_on,71,52,0
1,note_on,71,0,480
1,note_on,72,55,0
1,note_on,72,0,480
1,note_on,79,0,0
1,note_on,71,57,0
1,note_on,74,57,0
1,note_on,74,0,480
1,note_on,79,63,0
1,note_on,71,0,480
1,note_on,71,55,0
1,note_on,71,0,480
1,note_on,72,55,0
1,note_on,72,0,480
1,note_on,79,0,0
1,note_on,71,60,0
1,note_on,74,60,0
1,note_on,74,0,480
1,note_on,80,69,0
1,note_on,71,0,480
1,note_on,70,49,0
1,note_on,70,0,480
1,note_on,71,49,0
1,note_on,71,0,480
1,note_on,80,0,0
1,note_on,74,56,0
1,note_on,74,0,480
1,note_on,79,65,0
1,note_on,70,47,480
1,note_on,70,0,480
1,note_on,71,48,0
1,note_on,71,0,480
1,note_on,79,0,0
1,note_on,74,54,0
1,note_on,74,0,480
1,note_on,78,60,0
1,note_on,70,38,480
1,note_on,70,0,480
1,note_on,71,38,0
1,note_on,71,0,480
1,note_on,78,0,0
1,note_on,74,40,0
1,note_on,77,47,480
1,note_on,74,0,480
1,note_on,70,37,0
1,note_on,70,0,480
1,note_on,71,37,0
1,note_on,77,0,480
1,note_on,71,0,480
1,note_on,67,44,0
1,note_on,72,44,0
1,note_on,75,52,0
1,note_on,75,0,720
1,note_on,72,0,0
1,note_on,67,0,0
1,note_on,77,50,0
1,note_on,77,0,240
1,note_on,74,53,0
1,note_on,74,0,720
1,note_on,75,50,0
1,note_on,75,0,240
1,note_on,72,52,0
1,note_on,72,0,900
1,note_on,74,48,0
1,note_on,74,0,60
1,note_on,72,52,0
1,note_on,72,0,240
1,note_on,71,51,0
1,note_on,71,0,240
1,note_on,72,51,0
1,note_on,72,0,240
1,note_on,74,50,0
1,note_on,74,0,180
1,note_on,77,49,0
1,note_on,77,0,60
1,note_on,75,56,0
1,note_on,75,0,240
1,note_on,74,52,0
1,note_on,74,0,240
1,note_on,75,52,0
1,note_on,75,0,240
1,note_on,77,52,0
1,note_on,77,0,240
1,note_on,79,56,0
1,note_on,79,0,240
1,note_on,79,55,240
1,note_on,79,0,240
1,note_on,79,57,240
1,note_on,79,0,1440
1,note_on,77,51,0
1,note_on,77,0,240
1,note_on,79,53,0
1,note_on,79,0,120
1,note_on,77,48,0
1,note_on,77,0,60
1,note_on,79,48,0
1,note_on,79,0,60
1,note_on,80,56,0
1,note_on,80,0,960
1,note_on,74,52,0
1,note_on,74,0,480
1,note_on,75,51,0
1,note_on,75,0,240
1,note_on,77,53,0
1,note_on,77,0,120
1,note_on,75,50,0
1,note_on,75,0,60
1,note_on,77,50,0
1,note_on,77,0,60
1,note_on,79,56,0
1,note_on,79,0,960
1,note_on,72,52,0
1,note_on,72,0,470
1,note_on,72,53,10
1,note_on,72,0,240
1,note_on,74,54,0
1,note_on,74,0,240
1,note_on,75,57,0
1,note_on,75,0,240
1,note_on,75,53,240
1,note_on,75,0,240
1,note_on,77,55,0
1,note_on,77,0,240
1,note_on,74,57,0
1,note_on,74,0,240
1,note_on,74,51,240
1,note_on,74,0,240
1,note_on,75,54,0
1,note_on,75,0,240
1,note_on,72,57,0
1,note_on,72,0,240
1,note_on,71,52,0
1,note_on,71,0,240
1,note_on,72,53,0
1,note_on,72,0,240
1,note_on,74,54,0
1,note_on,74,0,240
1,note_on,75,55,0
1,note_on,75,0,240
1,note_on,76,56,0
1,note_on,76,0,240
1,note_on,77,58,0
1,note_on,77,0,240
1,note_on,79,59,0
1,note_on,79,0,240
1,note_on,80,60,0
1,note_on,80,0,240
1,note_on,79,57,0
1,note_on,79,0,240
1,note_on,82,63,0
1,note_on,82,0,240
1,note_on,80,62,0
1,note_on,80,0,240
1,note_on,79,62,0
1,note_on,79,0,240
1,note_on,77,61,0
1,note_on,77,0,240
1,note_on,75,60,0
1,note_on,75,0,240
1,note_on,74,58,0
1,note_on,74,0,240
1,note_on,79,66,0
1,note_on,79,0,240
1,note_on,78,60,0
1,note_on,78,0,240
1,note_on,80,67,0
1,note_on,80,0,240
1,note_on,79,66,0
1,note_on,79,0,240
1,note_on,77,66,0
1,note_on,77,0,240
1,note_on,75,65,0
1,note_on,75,0,240
1,note_on,74,65,0
1,note_on,74,0,240
1,note_on,72,64,0
1,note_on,72,0,240
1,note_on,75,71,0
1,note_on,75,0,240
1,note_on,74,64,0
1,note_on,74,0,240
1,note_on,77,70,0
1,note_on,77,0,240
1,note_on,75,62,0
1,note_on,75,0,240
1,note_on,74,69,0
1,note_on,74,0,240
1,note_on,73,66,0
1,note_on,73,0,240
1,note_on,75,64,0
1,note_on,75,0,240
1,note_on,74,60,0
1,note_on,74,0,240
1,note_on,72,66,0
1,note_on,72,0,480
1,note_on,84,68,640
1,note_on,84,0,160
1,note_on,86,70,0
1,note_on,86,0,160
1,note_on,88,73,0
1,note_on,88,0,160
1,note_on,86,70,0
1,note_on,86,0,160
1,note_on,84,66,0
1,note_on,84,0,160
1,note_on,89,77,0
1,note_on,89,0,240
1,note_on,84,66,880
1,note_on,84,0,160
1,note_on,86,69,0
1,note_on,86,0,160
1,note_on,88,72,0
1,note_on,88,0,160
1,note_on,86,70,0
1,note_on,86,0,160
1,note_on,84,67,0
1,note_on,84,0,160
1,note_on,89,77,0
1,note_on,89,0,240
1,note_on,84,66,880
1,note_on,84,0,160
1,note_on,86,69,0
1,note_on,86,0,160
1,note_on,88,72,0
1,note_on,88,0,160
1,note_on,86,70,0
1,note_on,86,0,160
1,note_on,84,67,0
1,note_on,84,0,160
1,note_on,89,86,0
1,note_on,89,0,240
1,note_on,72,76,240
1,note_on,75,76,0
1,note_on,78,76,0
1,note_on,84,90,0
1,note_on,84,0,240
1,note_on,72,0,0
1,note_on,75,0,0
1,note_on,78,0,0
1,note_on,72,76,240
1,note_on,75,76,0
1,note_on,79,76,0
1,note_on,84,90,0
1,note_on,84,0,240
1,note_on,72,0,0
1,note_on,75,0,0
1,note_on,79,0,0
1,note_on,71,76,240
1,note_on,74,76,0
1,note_on,79,76,0
1,note_on,83,90,0
1,note_on,83,0,240
1,note_on,71,0,0
1,note_on,74,0,0
1,note_on,79,0,0
1,note_on,72,76,240
1,note_on,75,76,0
1,note_on,79,76,0
1,note_on,84,90,0
1,note_on,84,0,240
1,note_on,72,0,0
1,note_on,75,0,0
1,note_on,79,0,0
1,note_on,72,68,880
1,note_on,72,0,160
1,note_on,74,70,0
1,note_on,74,0,160
1,note_on,76,73,0
1,note_on,76,0,160
1,note_on,74,70,0
1,note_on,74,0,160
1,note_on,72,66,0
1,note_on,72,0,160
1,note_on,77,77,0
1,note_on,77,0,240
1,note_on,72,66,880
1,note_on,72,0,160
1,note_on,74,69,0
1,note_on,74,0,160
1,note_on,76,72,0
1,note_on,76,0,160
1,note_on,74,70,0
1,note_on,74,0,160
1,note_on,72,67,0
1,note_on,72,0,160
1,note_on,77,77,0
1,note_on,77,0,240
1,note_on,60,66,880
1,note_on,60,0,160
1,note_on,62,69,0
1,note_on,62,0,160
1,note_on,64,72,0
1,note_on,64,0,160
1,note_on,62,70,0
1,note_on,62,0,160
1,note_on,60,67,0
1,note_on,60,0,160
1,note_on,65,63,0
1,note_on,65,0,160
1,note_on,60,50,0
1,note_on,60,0,160
1,note_on,62,50,0
1,note_on,62,0,160
1,note_on,63,63,0
1,note_on,63,0,160
1,note_on,62,50,0
1,note_on,62,0,160
1,note_on,60,50,0
1,note_on,60,0,160
1,note_on,66,68,0
1,note_on,66,0,160
1,note_on,60,52,0
1,note_on,60,0,160
1,note_on,62,53,0
1,note_on,62,0,160
1,note_on,63,60,0
1,note_on,63,0,160
1,note_on,62,50,0
1,note_on,62,0,160
1,note_on,60,50,0
1,note_on,60,0,160
1,note_on,67,69,0
1,note_on,67,0,160
1,note_on,60,51,0
1,note_on,60,0,160
1,note_on,62,52,0
1,note_on,62,0,160
1,note_on,63,58,0
1,note_on,63,0,160
1,note_on,62,51,0
1,note_on,62,0,160
1,note_on,60,52,0
1,note_on,60,0,160
1,note_on,69,69,0
1,note_on,69,0,160
1,note_on,60,54,0
1,note_on,60,0,160
1,note_on,62,55,0
1,note_on,62,0,160
1,note_on,63,62,0
1,note_on,63,0,160
1,note_on,62,55,0
1,note_on,62,0,160
1,note_on,60,55,0
1,note_on,60,0,160
1,note_on,71,70,0
1,note_on,71,0,160
1,note_on,59,55,0
1,note_on,59,0,160
1,note_on,60,55,0
1,note_on,60,0,160
1,note_on,62,61,0
1,note_on,62,0,160
1,note_on,60,55,0
1,note_on,60,0,160
1,note_on,59,54,0
1,note_on,59,0,160
1,note_on,72,72,0
1,note_on,72,0,160
1,note_on,60,55,0
1,note_on,60,0,160
1,note_on,62,55,0
1,note_on,62,0,160
1,note_on,63,63,0
1,note_on,63,0,160
1,note_on,62,56,0
1,note_on,62,0,160
1,note_on,60,58,0
1,note_on,60,0,160
1,note_on,74,74,0
1,note_on,74,0,160
1,note_on,62,56,0
1,note_on,62,0,160
1,note_on,63,56,0
1,note_on,63,0,160
1,note_on,65,62,0
1,note_on,65,0,160
1,note_on,63,54,0
1,note_on,63,0,160
1,note_on,62,54,0
1,note_on,62,0,160
1,note_on,71,75,0
1,note_on,71,0,160
1,note_on,59,53,0
1,note_on,59,0,160
1,note_on,60,53,0
1,note_on,60,0,160
1,note_on,62,65,0
1,note_on,62,0,160
1,note_on,60,55,0
1,note_on,60,0,160
1,note_on,59,55,0
1,note_on,59,0,160
1,note_on,60,67,0
1,note_on,72,79,0
1,note_on,72,0,480
1,note_on,60,0,0
1,note_on,79,84,480
1,note_on,79,0,480
1,note_on,77,80,0
1,note_on,77,0,120
1,note_on,75,79,0
1,note_on,75,0,120
1,note_on,74,78,0
1,note_on,74,0,120
1,note_on,72,77,0
1,note_on,72,0,120
1,note_on,74,79,0
1,note_on,74,0,240
1,note_on,77,84,720
1,note_on,77,0,480
1,note_on,75,80,0
1,note_on,75,0,120
1,note_on,74,79,0
1,note_on,74,0,120
1,note_on,72,78,0
1,note_on,72,0,120
1,note_on,71,77,0
1,note_on,71,0,120
1,note_on,72,79,0
1,note_on,72,0,240
1,note_on,79,84,720
1,note_on,79,0,480
1,note_on,77,80,0
1,note_on,77,0,120
1,note_on,75,79,0
1,note_on,75,0,120
1,note_on,74,78,0
1,note_on,74,0,120
1,note_on,72,77,0
1,note_on,72,0,120
1,note_on,74,79,0
1,note_on,74,0,240
1,note_on,77,84,720
1,note_on,77,0,480
1,note_on,75,80,0
1,note_on,75,0,120
1,note_on,74,79,0
1,note_on,74,0,120
1,note_on,72,78,0
1,note_on,72,0,120
1,note_on,71,77,0
1,note_on,71,0,120
1,note_on,72,79,0
1,note_on,72,0,240
1,note_on,79,84,720
1,note_on,79,0,480
1,note_on,77,80,0
1,note_on,77,0,120
1,note_on,75,79,0
1,note_on,75,0,120
1,note_on,74,78,0
1,note_on,74,0,120
1,note_on,72,77,0
1,note_on,72,0,120
1,note_on,73,79,0
1,note_on,73,0,240
1,note_on,89,100,720
1,note_on,89,0,2400
1,note_on,87,86,0
1,note_on,87,0,160
1,note_on,85,85,0
1,note_on,85,0,160
1,note_on,84,83,0
1,note_on,84,0,160
1,note_on,82,82,0
1,note_on,82,0,160
1,note_on,80,81,0
1,note_on,80,0,160
1,note_on,79,79,0
1,note_on,79,0,160
1,note_on,77,78,0
1,note_on,77,0,160
1,note_on,75,77,0
1,note_on,75,0,160
1,note_on,73,75,0
1,note_on,73,0,160
1,note_on,72,74,0
1,note_on,72,0,80
1,note_on,70,72,0
1,note_on,70,0,80
1,note_on,68,71,0
1,note_on,68,0,80
1,note_on,67,70,0
1,note_on,67,0,80
1,note_on,65,68,0
1,note_on,65,0,80
1,note_on,63,69,0
1,note_on,63,0,80
1,note_on,61,70,0
1,note_on,61,0,68
1,note_on,60,71,0
1,note_on,60,0,68
1,note_on,58,71,0
1,note_on,58,0,68
1,note_on,56,71,0
1,note_on,56,0,68
1,note_on,55,71,0
1,note_on,55,0,68
1,note_on,53,71,0
1,note_on,53,0,68
1,note_on,51,71,0
1,note_on,51,0,72
1,note_on,49,93,0
1,note_on,49,0,2880
1,note_on,56,49,480
1,note_on,56,0,240
1,note_on,58,51,0
1,note_on,58,0,240
1,note_on,60,52,0
1,note_on,60,0,720
1,note_on,61,50,0
1,note_on,61,0,240
1,note_on,58,53,0
1,note_on,58,0,720
1,note_on,60,50,0
1,note_on,60,0,240
1,note_on,56,52,0
1,note_on,56,0,480
1,note_on,68,46,960
1,note_on,68,0,240
1,note_on,70,48,0
1,note_on,70,0,240
1,note_on,72,49,0
1,note_on,72,0,720
1,note_on,73,47,0
1,note_on,73,0,240
1,note_on,70,49,0
1,note_on,70,0,720
1,note_on,72,46,0
1,note_on,72,0,240
1,note_on,68,47,0
1,note_on,68,0,480
1,note_on,72,40,960
1,note_on,72,0,480
1,note_on,78,40,0
1,note_on,75,40,0
1,note_on,75,0,480
1,note_on,78,0,0
1,note_on,72,40,960
1,note_on,72,0,480
1,note_on,79,40,0
1,note_on,75,40,0
1,note_on,75,0,480
1,note_on,79,0,0
1,note_on,87,97,960
1,note_on,87,0,160
1,note_on,86,90,0
1,note_on,86,0,160
1,note_on,84,90,0
1,note_on,84,0,160
1,note_on,89,96,0
1,note_on,89,0,160
1,note_on,87,89,0
1,note_on,87,0,160
1,note_on,86,90,0
1,note_on,86,0,160
1,note_on,84,97,0
1,note_on,84,0,160
1,note_on,83,92,0
1,note_on,83,0,160
1,note_on,80,92,0
1,note_on,80,0,160
1,note_on,79,90,0
1,note_on,79,0,160
1,note_on,77,92,0
1,note_on,77,0,160
1,note_on,75,93,0
1,note_on,75,0,160
1,note_on,74,95,0
1,note_on,74,0,160
1,note_on,72,97,0
1,note_on,72,0,160
1,note_on,71,99,0
1,note_on,71,0,160
1,note_on,72,101,0
1,note_on,72,0,480
2,note_on,48,40,1920
2,note_on,48,0,240
2,note_on,51,36,0
2,note_on,51,0,240
2,note_on,55,36,0
2,note_on,55,0,240
2,note_on,60,36,0
2,note_on,60,0,240
2,note_on,48,40,0
2,note_on,48,0,240
2,note_on,53,40,0
2,note_on,53,0,240
2,note_on,55,36,0
2,note_on,55,0,240
2,note_on,59,36,0
2,note_on,59,0,240
2,note_on,48,40,0
2,note_on,48,0,240
2,note_on,51,40,0
2,note_on,51,0,240
2,note_on,55,36,0
2,note_on,55,0,240
2,note_on,60,36,0
2,note_on,60,0,240
2,note_on,63,40,0
2,note_on,63,0,240
2,note_on,67,36,0
2,note_on,67,0,240
2,note_on,63,36,0
2,note_on,63,0,240
2,note_on,62,36,0
2,note_on,62,0,240
2,note_on,60,40,0
2,note_on,60,0,240
2,note_on,67,36,0
2,note_on,67,0,240
2,note_on,60,36,0
2,note_on,63,36,0
2,note_on,63,0,240
2,note_on,60,0,0
2,note_on,67,36,0
2,note_on,67,0,240
2,note_on,59,41,0
2,note_on,62,41,0
2,note_on,62,0,240
2,note_on,59,0,0
2,note_on,67,36,0
2,note_on,67,0,240
2,note_on,60,36,0
2,note_on,56,36,0
2,note_on,56,0,240
2,note_on,60,0,0
2,note_on,67,36,0
2,note_on,67,0,240
2,note_on,55,40,0
2,note_on,55,0,240
2,note_on,59,29,0
2,note_on,59,0,240
2,note_on,62,28,0
2,note_on,62,0,240
2,note_on,67,28,0
2,note_on,67,0,240
2,note_on,55,40,0
2,note_on,55,0,240
2,note_on,59,31,0
2,note_on,59,0,240
2,note_on,62,31,0
2,note_on,62,0,240
2,note_on,67,31,0
2,note_on,67,0,240
2,note_on,53,40,0
2,note_on,53,0,240
2,note_on,56,36,0
2,note_on,56,0,240
2,note_on,59,37,0
2,note_on,59,0,240
2,note_on,62,37,0
2,note_on,62,0,240
2,note_on,53,40,0
2,note_on,53,0,240
2,note_on,56,36,0
2,note_on,56,0,240
2,note_on,59,36,0
2,note_on,59,0,240
2,note_on,62,36,0
2,note_on,62,0,240
2,note_on,51,40,0
2,note_on,51,0,240
2,note_on,55,34,0
2,note_on,55,0,240
2,note_on,60,34,0
2,note_on,60,0,240
2,note_on,63,33,0
2,note_on,63,0,240
2,note_on,56,41,0
2,note_on,56,0,240
2,note_on,60,35,0
2,note_on,60,0,240
2,note_on,63,35,0
2,note_on,63,0,240
2,note_on,66,35,0
2,note_on,66,0,240
2,note_on,55,40,0
2,note_on,55,0,240
2,note_on,60,40,0
2,note_on,60,0,240
2,note_on,63,35,0
2,note_on,63,0,240
2,note_on,67,35,0
2,note_on,67,0,240
2,note_on,55,40,0
2,note_on,55,0,240
2,note_on,59,36,0
2,note_on,59,0,240
2,note_on,62,36,0
2,note_on,62,0,240
2,note_on,67,36,0
2,note_on,67,0,240
2,note_on,48,38,240
2,note_on,48,0,240
2,note_on,51,42,0
2,note_on,51,0,240
2,note_on,55,45,0
2,note_on,55,0,240
2,note_on,60,49,0
2,note_on,60,0,480
2,note_on,41,43,720
2,note_on,41,0,240
2,note_on,47,45,0
2,note_on,47,0,240
2,note_on,50,47,0
2,note_on,50,0,240
2,note_on,53,49,0
2,note_on,53,0,240
2,note_on,56,43,0
2,note_on,56,0,240
2,note_on,55,43,0
2,note_on,55,0,240
2,note_on,53,43,0
2,note_on,53,0,240
2,note_on,39,40,240
2,note_on,39,0,240
2,note_on,43,42,0
2,note_on,43,0,240
2,note_on,48,45,0
2,note_on,48,0,240
2,note_on,51,48,0
2,note_on,51,0,240
2,note_on,55,40,0
2,note_on,55,0,240
2,note_on,56,39,0
2,note_on,56,0,240
2,note_on,54,39,0
2,note_on,54,0,240
2,note_on,43,48,0
2,note_on,43,0,240
2,note_on,55,44,0
2,note_on,55,0,240
2,note_on,60,38,0
2,note_on,60,0,240
2,note_on,55,38,0
2,note_on,55,0,240
2,note_on,43,48,0
2,note_on,43,0,240
2,note_on,55,39,0
2,note_on,55,0,240
2,note_on,59,39,0
2,note_on,59,0,240
2,note_on,55,39,0
2,note_on,55,0,240
2,note_on,48,52,0
2,note_on,48,0,240
2,note_on,60,45,0
2,note_on,60,0,240
2,note_on,59,45,0
2,note_on,59,0,240
2,note_on,60,45,0
2,note_on,60,0,240
2,note_on,52,52,0
2,note_on,52,0,240
2,note_on,60,48,0
2,note_on,60,0,240
2,note_on,55,48,0
2,note_on,55,0,240
2,note_on,60,48,0
2,note_on,60,0,240
2,note_on,53,53,0
2,note_on,53,0,240
2,note_on,60,49,0
2,note_on,60,0,240
2,note_on,56,50,0
2,note_on,56,0,240
2,note_on,60,49,0
2,note_on,60,0,240
2,note_on,55,54,0
2,note_on,55,0,240
2,note_on,65,52,0
2,note_on,65,0,240
2,note_on,59,46,0
2,note_on,59,0,240
2,note_on,65,50,0
2,note_on,65,0,240
2,note_on,56,54,0
2,note_on,56,0,240
2,note_on,63,47,0
2,note_on,63,0,240
2,note_on,60,47,0
2,note_on,60,0,240
2,note_on,63,47,0
2,note_on,63,0,240
2,note_on,55,62,0
2,note_on,55,0,240
2,note_on,64,54,0
2,note_on,64,0,240
2,note_on,60,55,0
2,note_on,60,0,240
2,note_on,64,55,0
2,note_on,64,0,240
2,note_on,53,64,0
2,note_on,53,0,240
2,note_on,65,57,0
2,note_on,65,0,240
2,note_on,60,58,0
2,note_on,60,0,240
2,note_on,65,57,0
2,note_on,65,0,240
2,note_on,55,63,0
2,note_on,55,0,240
2,note_on,67,57,0
2,note_on,67,0,240
2,note_on,55,57,0
2,note_on,55,0,240
2,note_on,67,56,0
2,note_on,67,0,240
2,note_on,60,68,0
2,note_on,60,0,240
2,note_on,55,62,240
2,note_on,59,62,0
2,note_on,59,0,240
2,note_on,55,0,0
2,note_on,48,62,240
2,note_on,60,62,0
2,note_on,60,0,240
2,note_on,48,0,0
2,note_on,43,62,240
2,note_on,55,62,0
2,note_on,55,0,240
2,note_on,43,0,0
2,note_on,36,69,240
2,note_on,48,69,0
2,note_on,48,0,240
2,note_on,36,0,0
2,note_on,34,58,1680
2,note_on,46,69,0
2,note_on,46,0,1920
2,note_on,34,0,0
2,note_on,32,57,0
2,note_on,44,68,0
2,note_on,44,0,480
2,note_on,32,0,0
2,note_on,52,46,1920
2,note_on,60,55,0
2,note_on,60,0,480
2,note_on,52,0,0
2,note_on,52,46,0
2,note_on,60,55,0
2,note_on,60,0,480
2,note_on,52,0,0
2,note_on,52,46,0
2,note_on,60,55,0
2,note_on,60,0,480
2,note_on,52,0,0
2,note_on,53,46,0
2,note_on,60,55,0
2,note_on,60,0,1440
2,note_on,53,0,0
2,note_on,32,58,480
2,note_on,44,69,0
2,note_on,44,0,1920
2,note_on,32,0,0
2,note_on,31,57,0
2,note_on,43,68,0
2,note_on,43,0,480
2,note_on,31,0,0
2,note_on,50,46,1920
2,note_on,58,55,0
2,note_on,58,0,480
2,note_on,50,0,0
2,note_on,50,46,0
2,note_on,58,55,0
2,note_on,58,0,480
2,note_on,50,0,0
2,note_on,50,46,0
2,note_on,58,55,0
2,note_on,58,0,480
2,note_on,50,0,0
2,note_on,51,46,0
2,note_on,51,0,240
2,note_on,58,31,0
2,note_on,58,0,240
2,note_on,63,31,0
2,note_on,63,0,240
2,note_on,58,31,0
2,note_on,58,0,240
2,note_on,56,42,0
2,note_on,56,0,240
2,note_on,58,30,0
2,note_on,58,0,240
2,note_on,62,30,0
2,note_on,62,0,240
2,note_on,58,30,0
2,note_on,58,0,240
2,note_on,55,42,0
2,note_on,55,0,240
2,note_on,58,33,0
2,note_on,58,0,240
2,note_on,63,33,0
2,note_on,63,0,240
2,note_on,58,34,0
2,note_on,58,0,240
2,note_on,50,41,0
2,note_on,50,0,240
2,note_on,58,33,0
2,note_on,58,0,240
2,note_on,62,33,0
2,note_on,62,0,240
2,note_on,58,33,0
2,note_on,58,0,240
2,note_on,51,40,0
2,note_on,51,0,240
2,note_on,58,35,0
2,note_on,58,0,240
2,note_on,63,35,0
2,note_on,63,0,240
2,note_on,58,35,0
2,note_on,58,0,240
2,note_on,56,40,0
2,note_on,56,0,240
2,note_on,58,35,0
2,note_on,58,0,240
2,note_on,65,36,0
2,note_on,65,0,240
2,note_on,58,36,0
2,note_on,58,0,240
2,note_on,55,40,0
2,note_on,55,0,240
2,note_on,58,35,0
2,note_on,58,0,240
2,note_on,63,36,0
2,note_on,63,0,240
2,note_on,58,36,0
2,note_on,58,0,240
2,note_on,50,40,0
2,note_on,50,0,240
2,note_on,58,34,0
2,note_on,58,0,240
2,note_on,50,34,0
2,note_on,50,0,240
2,note_on,58,34,0
2,note_on,58,0,240
2,note_on,51,41,0
2,note_on,51,0,240
2,note_on,58,34,0
2,note_on,58,0,240
2,note_on,51,34,0
2,note_on,51,0,240
2,note_on,58,34,0
2,note_on,58,0,240
2,note_on,56,40,0
2,note_on,56,0,240
2,note_on,58,34,0
2,note_on,58,0,240
2,note_on,56,34,0
2,note_on,56,0,240
2,note_on,58,34,0
2,note_on,58,0,240
2,note_on,54,40,0
2,note_on,54,0,240
2,note_on,58,36,0
2,note_on,58,0,240
2,note_on,54,37,0
2,note_on,54,0,240
2,note_on,58,37,0
2,note_on,58,0,240
2,note_on,50,41,0
2,note_on,50,0,240
2,note_on,58,36,0
2,note_on,58,0,240
2,note_on,50,36,0
2,note_on,50,0,240
2,note_on,58,36,0
2,note_on,58,0,240
2,note_on,51,39,0
2,note_on,51,0,240
2,note_on,58,39,0
2,note_on,58,0,240
2,note_on,54,41,0
2,note_on,54,0,240
2,note_on,58,41,0
2,note_on,58,0,240
2,note_on,46,42,0
2,note_on,46,0,240
2,note_on,58,43,0
2,note_on,58,0,240
2,note_on,50,44,0
2,note_on,50,0,240
2,note_on,58,45,0
2,note_on,58,0,240
2,note_on,47,45,0
2,note_on,47,0,240
2,note_on,58,47,0
2,note_on,58,0,240
2,note_on,51,51,0
2,note_on,51,0,240
2,note_on,58,54,0
2,note_on,58,0,240
2,note_on,47,58,0
2,note_on,47,0,240
2,note_on,57,49,0
2,note_on,57,0,240
2,note_on,51,49,0
2,note_on,51,0,240
2,note_on,57,49,0
2,note_on,57,0,240
2,note_on,46,60,0
2,note_on,46,0,480
2,note_on,58,46,0
2,note_on,62,46,0
2,note_on,65,55,0
2,note_on,65,0,240
2,note_on,62,0,0
2,note_on,58,0,0
2,note_on,58,59,240
2,note_on,66,70,0
2,note_on,63,59,0
2,note_on,63,0,960
2,note_on,66,0,0
2,note_on,58,0,0
2,note_on,58,46,480
2,note_on,62,46,0
2,note_on,65,55,0
2,note_on,65,0,240
2,note_on,62,0,0
2,note_on,58,0,0
2,note_on,58,59,240
2,note_on,66,70,0
2,note_on,63,59,0
2,note_on,63,0,960
2,note_on,66,0,0
2,note_on,58,0,0
2,note_on,58,46,0
2,note_on,62,46,0
2,note_on,65,55,0
2,note_on,65,0,480
2,note_on,62,0,0
2,note_on,58,0,0
2,note_on,58,46,480
2,note_on,65,46,0
2,note_on,68,55,0
2,note_on,68,0,480
2,note_on,65,0,0
2,note_on,58,0,0
2,note_on,58,46,480
2,note_on,62,46,0
2,note_on,65,46,0
2,note_on,68,55,0
2,note_on,68,0,480
2,note_on,58,0,0
2,note_on,62,0,0
2,note_on,65,0,0
2,note_on,51,55,1440
2,note_on,51,0,480
2,note_on,58,45,640
2,note_on,60,48,160
2,note_on,58,0,10
2,note_on,62,50,150
2,note_on,60,0,10
2,note_on,60,48,150
2,note_on,62,0,10
2,note_on,58,45,150
2,note_on,60,0,10
2,note_on,63,55,150
2,note_on,58,0,10
2,note_on,63,0,470
2,note_on,58,43,640
2,note_on,60,47,160
2,note_on,58,0,10
2,note_on,62,50,150
2,note_on,60,0,10
2,note_on,60,48,150
2,note_on,62,0,10
2,note_on,58,45,150
2,note_on,60,0,10
2,note_on,63,55,150
2,note_on,58,0,10
2,note_on,63,0,470
2,note_on,63,55,480
2,note_on,63,0,480
2,note_on,61,55,480
2,note_on,55,55,0
2,note_on,58,55,0
2,note_on,63,55,0
2,note_on,63,0,480
2,note_on,61,0,0
2,note_on,55,0,0
2,note_on,58,0,0
2,note_on,44,52,1440
2,note_on,44,0,160
2,note_on,48,54,0
2,note_on,48,0,160
2,note_on,51,56,0
2,note_on,51,0,160
2,note_on,56,59,0
2,note_on,56,0,480
2,note_on,58,48,960
2,note_on,63,48,0
2,note_on,67,57,0
2,note_on,67,0,480
2,note_on,63,0,0
2,note_on,58,0,0
2,note_on,58,49,480
2,note_on,65,49,0
2,note_on,68,58,0
2,note_on,68,0,480
2,note_on,65,0,0
2,note_on,58,0,0
2,note_on,63,49,480
2,note_on,67,58,0
2,note_on,67,0,480
2,note_on,63,0,0
2,note_on,58,39,1440
2,note_on,56,33,0
2,note_on,56,0,240
2,note_on,58,0,0
2,note_on,56,34,240
2,note_on,58,40,0
2,note_on,58,0,240
2,note_on,56,0,0
2,note_on,58,42,240
2,note_on,56,35,0
2,note_on,56,0,240
2,note_on,58,0,0
2,note_on,56,36,240
2,note_on,58,43,0
2,note_on,58,0,240
2,note_on,56,0,0
2,note_on,55,37,240
2,note_on,58,45,0
2,note_on,58,0,1440
2,note_on,55,0,0
2,note_on,55,42,0
2,note_on,55,0,480
2,note_on,60,45,0
2,note_on,60,0,960
2,note_on,59,43,0
2,note_on,59,0,960
2,note_on,58,43,0
2,note_on,58,0,1440
2,note_on,62,44,480
2,note_on,56,37,0
2,note_on,56,0,240
2,note_on,62,0,0
2,note_on,56,39,240
2,note_on,62,47,0
2,note_on,62,0,240
2,note_on,56,0,0
2,note_on,62,51,240
2,note_on,56,42,0
2,note_on,56,0,240
2,note_on,62,0,0
2,note_on,56,46,240
2,note_on,62,55,0
2,note_on,62,0,240
2,note_on,56,0,0
2,note_on,55,50,240
2,note_on,63,60,0
2,note_on,63,0,1920
2,note_on,55,0,0
2,note_on,56,61,0
2,note_on,63,72,0
2,note_on,63,0,480
2,note_on,56,0,0
2,note_on,46,61,480
2,note_on,58,72,0
2,note_on,58,0,480
2,note_on,46,0,0
2,note_on,63,55,640
2,note_on,65,55,160
2,note_on,63,0,10
2,note_on,67,59,150
2,note_on,65,0,10
2,note_on,65,55,150
2,note_on,67,0,10
2,note_on,63,55,150
2,note_on,65,0,10
2,note_on,68,59,150
2,note_on,63,0,10
2,note_on,68,0,950
2,note_on,67,59,0
2,note_on,63,55,160
2,note_on,67,0,10
2,note_on,65,55,150
2,note_on,63,0,10
2,note_on,67,59,150
2,note_on,65,0,10
2,note_on,65,55,150
2,note_on,67,0,10
2,note_on,63,55,150
2,note_on,65,0,10
2,note_on,68,59,150
2,note_on,63,0,10
2,note_on,68,0,950
2,note_on,67,55,0
2,note_on,63,55,0
2,note_on,63,0,240
2,note_on,67,0,0
2,note_on,60,52,246
2,note_on,60,0,240
2,note_on,56,52,234
2,note_on,56,0,240
2,note_on,58,52,240
2,note_on,58,0,240
2,note_on,39,49,400
2,note_on,41,49,160
2,note_on,39,0,10
2,note_on,43,53,150
2,note_on,41,0,10
2,note_on,41,49,150
2,note_on,43,0,10
2,note_on,39,49,150
2,note_on,41,0,10
2,note_on,44,70,150
2,note_on,39,0,10
2,note_on,44,0,950
2,note_on,43,53,0
2,note_on,39,49,160
2,note_on,43,0,10
2,note_on,41,49,150
2,note_on,39,0,10
2,note_on,43,53,150
2,note_on,41,0,10
2,note_on,41,49,150
2,note_on,43,0,10
2,note_on,39,49,150
2,note_on,41,0,10
2,note_on,44,70,150
2,note_on,39,0,10
2,note_on,44,0,950
2,note_on,43,53,0
2,note_on,39,49,160
2,note_on,43,0,10
2,note_on,41,49,150
2,note_on,39,0,10
2,note_on,43,53,150
2,note_on,41,0,10
2,note_on,41,49,150
2,note_on,43,0,10
2,note_on,39,49,150
2,note_on,41,0,10
2,note_on,44,70,150
2,note_on,39,0,10
2,note_on,44,0,2870
2,note_on,31,75,0
2,note_on,43,80,0
2,note_on,43,0,3840
2,note_on,31,0,0
2,note_on,43,69,0
2,note_on,50,69,0
2,note_on,53,82,0
2,note_on,53,0,2880
2,note_on,50,0,0
2,note_on,43,0,0
2,note_on,48,40,960
2,note_on,48,0,240
2,note_on,51,36,0
2,note_on,51,0,240
2,note_on,55,36,0
2,note_on,55,0,240
2,note_on,60,36,0
2,note_on,60,0,240
2,note_on,48,40,0
2,note_on,48,0,240
2,note_on,53,40,0
2,note_on,53,0,240
2,note_on,55,36,0
2,note_on,55,0,240
2,note_on,59,36,0
2,note_on,59,0,240
2,note_on,48,40,0
2,note_on,48,0,240
2,note_on,51,40,0
2,note_on,51,0,240
2,note_on,55,36,0
2,note_on,55,0,240
2,note_on,60,36,0
2,note_on,60,0,240
2,note_on,63,40,0
2,note_on,63,0,240
2,note_on,67,36,0
2,note_on,67,0,240
2,note_on,63,36,0
2,note_on,63,0,240
2,note_on,62,36,0
2,note_on,62,0,240
2,note_on,60,40,0
2,note_on,60,0,240
2,note_on,67,36,0
2,note_on,67,0,240
2,note_on,60,36,0
2,note_on,63,36,0
2,note_on,63,0,240
2,note_on,60,0,0
2,note_on,67,36,0
2,note_on,67,0,240
2,note_on,59,41,0
2,note_on,62,41,0
2,note_on,62,0,240
2,note_on,59,0,0
2,note_on,67,36,0
2,note_on,67,0,240
2,note_on,60,36,0
2,note_on,56,36,0
2,note_on,56,0,240
2,note_on,60,0,0
2,note_on,67,36,0
2,note_on,67,0,240
2,note_on,55,40,0
2,note_on,55,0,240
2,note_on,59,29,0
2,note_on,59,0,240
2,note_on,62,28,0
2,note_on,62,0,240
2,note_on,67,28,0
2,note_on,67,0,240
2,note_on,55,40,0
2,note_on,55,0,240
2,note_on,59,31,0
2,note_on,59,0,240
2,note_on,62,31,0
2,note_on,62,0,240
2,note_on,67,31,0
2,note_on,67,0,240
2,note_on,53,40,0
2,note_on,53,0,240
2,note_on,56,36,0
2,note_on,56,0,240
2,note_on,59,37,0
2,note_on,59,0,240
2,note_on,62,37,0
2,note_on,62,0,240
2,note_on,53,40,0
2,note_on,53,0,240
2,note_on,56,36,0
2,note_on,56,0,240
2,note_on,59,36,0
2,note_on,59,0,240
2,note_on,62,36,0
2,note_on,62,0,240
2,note_on,51,40,0
2,note_on,51,0,240
2,note_on,55,34,0
2,note_on,55,0,240
2,note_on,60,34,0
2,note_on,60,0,240
2,note_on,63,33,0
2,note_on,63,0,240
2,note_on,56,41,0
2,note_on,56,0,240
2,note_on,60,35,0
2,note_on,60,0,240
2,note_on,63,35,0
2,note_on,63,0,240
2,note_on,66,35,0
2,note_on,66,0,240
2,note_on,55,40,0
2,note_on,55,0,240
2,note_on,60,40,0
2,note_on,60,0,240
2,note_on,63,35,0
2,note_on,63,0,240
2,note_on,67,35,0
2,note_on,67,0,240
2,note_on,55,40,0
2,note_on,55,0,240
2,note_on,59,36,0
2,note_on,59,0,240
2,note_on,62,36,0
2,note_on,62,0,240
2,note_on,67,36,0
2,note_on,67,0,240
2,note_on,48,38,240
2,note_on,48,0,240
2,note_on,51,42,0
2,note_on,51,0,240
2,note_on,55,45,0
2,note_on,55,0,240
2,note_on,60,49,0
2,note_on,60,0,480
2,note_on,41,43,720
2,note_on,41,0,240
2,note_on,47,45,0
2,note_on,47,0,240
2,note_on,50,47,0
2,note_on,50,0,240
2,note_on,53,49,0
2,note_on,53,0,240
2,note_on,56,43,0
2,note_on,56,0,240
2,note_on,55,43,0
2,note_on,55,0,240
2,note_on,53,43,0
2,note_on,53,0,240
2,note_on,39,40,240
2,note_on,39,0,240
2,note_on,43,42,0
2,note_on,43,0,240
2,note_on,48,45,0
2,note_on,48,0,240
2,note_on,51,48,0
2,note_on,51,0,240
2,note_on,55,40,0
2,note_on,55,0,240
2,note_on,56,39,0
2,note_on,56,0,240
2,note_on,54,39,0
2,note_on,54,0,240
2,note_on,43,48,0
2,note_on,43,0,240
2,note_on,55,44,0
2,note_on,55,0,240
2,note_on,60,38,0
2,note_on,60,0,240
2,note_on,55,38,0
2,note_on,55,0,240
2,note_on,43,48,0
2,note_on,43,0,240
2,note_on,55,39,0
2,note_on,55,0,240
2,note_on,59,39,0
2,note_on,59,0,240
2,note_on,55,39,0
2,note_on,55,0,240
2,note_on,48,52,0
2,note_on,48,0,240
2,note_on,60,45,0
2,note_on,60,0,240
2,note_on,59,45,0
2,note_on,59,0,240
2,note_on,60,45,0
2,note_on,60,0,240
2,note_on,52,52,0
2,note_on,52,0,240
2,note_on,60,48,0
2,note_on,60,0,240
2,note_on,55,48,0
2,note_on,55,0,240
2,note_on,60,48,0
2,note_on,60,0,240
2,note_on,53,53,0
2,note_on,53,0,240
2,note_on,60,49,0
2,note_on,60,0,240
2,note_on,56,50,0
2,note_on,56,0,240
2,note_on,60,49,0
2,note_on,60,0,240
2,note_on,55,54,0
2,note_on,55,0,240
2,note_on,65,52,0
2,note_on,65,0,240
2,note_on,59,43,0
2,note_on,59,0,240
2,note_on,65,50,0
2,note_on,65,0,240
2,note_on,56,54,0
2,note_on,56,0,240
2,note_on,63,47,0
2,note_on,63,0,240
2,note_on,60,47,0
2,note_on,60,0,240
2,note_on,63,47,0
2,note_on,63,0,240
2,note_on,55,62,0
2,note_on,55,0,240
2,note_on,64,54,0
2,note_on,64,0,240
2,note_on,60,55,0
2,note_on,60,0,240
2,note_on,64,55,0
2,note_on,64,0,240
2,note_on,53,64,0
2,note_on,53,0,240
2,note_on,65,57,0
2,note_on,65,0,240
2,note_on,60,58,0
2,note_on,60,0,240
2,note_on,65,57,0
2,note_on,65,0,240
2,note_on,55,63,0
2,note_on,55,0,240
2,note_on,67,57,0
2,note_on,67,0,240
2,note_on,55,57,0
2,note_on,55,0,240
2,note_on,67,56,0
2,note_on,67,0,240
2,note_on,60,68,0
2,note_on,60,0,240
2,note_on,55,62,240
2,note_on,59,62,0
2,note_on,59,0,240
2,note_on,55,0,0
2,note_on,48,62,240
2,note_on,60,62,0
2,note_on,60,0,240
2,note_on,48,0,0
2,note_on,43,62,240
2,note_on,55,62,0
2,note_on,55,0,240
2,note_on,43,0,0
2,note_on,36,69,240
2,note_on,48,69,0
2,note_on,48,0,240
2,note_on,36,0,0
2,note_on,44,46,960
2,note_on,44,0,240
2,note_on,48,48,0
2,note_on,48,0,240
2,note_on,51,50,0
2,note_on,51,0,240
2,note_on,56,51,0
2,note_on,56,0,960
2,note_on,49,48,0
2,note_on,49,0,960
2,note_on,55,48,0
2,note_on,55,0,960
2,note_on,48,45,0
2,note_on,48,0,960
2,note_on,53,48,0
2,note_on,53,0,480
2,note_on,46,48,0
2,note_on,46,0,960
2,note_on,48,48,0
2,note_on,48,0,480
2,note_on,49,51,0
2,note_on,49,0,480
2,note_on,50,46,0
2,note_on,50,0,480
2,note_on,51,46,0
2,note_on,51,0,480
2,note_on,39,42,0
2,note_on,39,0,480
2,note_on,44,51,0
2,note_on,44,0,960
2,note_on,49,49,0
2,note_on,49,0,960
2,note_on,43,51,0
2,note_on,43,0,960
2,note_on,48,49,0
2,note_on,48,0,960
2,note_on,41,52,0
2,note_on,41,0,960
2,note_on,43,51,0
2,note_on,43,0,480
2,note_on,44,49,0
2,note_on,44,0,480
2,note_on,45,53,0
2,note_on,45,0,480
2,note_on,46,50,0
2,note_on,46,0,480
2,note_on,39,49,0
2,note_on,39,0,480
2,note_on,56,43,960
2,note_on,60,51,0
2,note_on,60,0,960
2,note_on,56,0,0
2,note_on,49,40,0
2,note_on,53,48,0
2,note_on,53,0,960
2,note_on,49,0,0
2,note_on,55,43,0
2,note_on,58,51,0
2,note_on,58,0,960
2,note_on,55,0,0
2,note_on,48,40,0
2,note_on,51,48,0
2,note_on,51,0,960
2,note_on,48,0,0
2,note_on,53,43,0
2,note_on,56,51,0
2,note_on,56,0,480
2,note_on,53,0,0
2,note_on,46,51,0
2,note_on,46,0,480
2,note_on,48,51,0
2,note_on,48,0,480
2,note_on,49,49,0
2,note_on,49,0,480
2,note_on,50,49,0
2,note_on,50,0,480
2,note_on,51,49,0
2,note_on,51,0,480
2,note_on,60,51,480
2,note_on,56,43,0
2,note_on,56,0,960
2,note_on,60,0,0
2,note_on,65,50,0
2,note_on,61,42,0
2,note_on,61,0,960
2,note_on,65,0,0
2,note_on,58,54,0
2,note_on,55,46,0
2,note_on,55,0,960
2,note_on,58,0,0
2,note_on,63,54,0
2,note_on,60,45,0
2,note_on,60,0,960
2,note_on,63,0,0
2,note_on,53,59,0
2,note_on,53,0,960
2,note_on,55,60,0
2,note_on,55,0,480
2,note_on,56,58,0
2,note_on,56,0,480
2,note_on,57,64,0
2,note_on,57,0,480
2,note_on,58,62,0
2,note_on,58,0,480
2,note_on,51,61,0
2,note_on,51,0,480
2,note_on,63,64,0
2,note_on,63,0,480
2,note_on,62,65,0
2,note_on,62,0,480
2,note_on,63,65,0
2,note_on,63,0,480
2,note_on,66,65,0
2,note_on,66,0,480
2,note_on,57,61,0
2,note_on,57,0,480
2,note_on,58,62,0
2,note_on,58,0,240
2,note_on,61,65,1200
2,note_on,51,54,0
2,note_on,51,0,480
2,note_on,61,0,0
2,note_on,60,62,0
2,note_on,56,62,0
2,note_on,56,0,480
2,note_on,60,0,0
2,note_on,46,53,960
2,note_on,56,63,0
2,note_on,56,0,480
2,note_on,46,0,0
2,note_on,51,63,0
2,note_on,55,63,0
2,note_on,55,0,480
2,note_on,51,0,0
2,note_on,75,49,720
2,note_on,75,0,120
2,note_on,77,49,120
2,note_on,77,0,120
2,note_on,79,49,120
2,note_on,79,0,120
2,note_on,80,49,120
2,note_on,80,0,240
2,note_on,79,49,0
2,note_on,79,0,240
2,note_on,77,49,0
2,note_on,77,0,240
2,note_on,75,49,0
2,note_on,75,0,240
2,note_on,73,49,0
2,note_on,73,0,240
2,note_on,72,49,0
2,note_on,72,0,240
2,note_on,70,49,0
2,note_on,70,0,240
2,note_on,68,49,0
2,note_on,68,0,240
2,note_on,67,49,0
2,note_on,67,0,240
2,note_on,65,49,0
2,note_on,65,0,240
2,note_on,63,49,0
2,note_on,63,0,240
2,note_on,61,49,0
2,note_on,61,0,240
2,note_on,60,49,0
2,note_on,60,0,240
2,note_on,58,49,0
2,note_on,58,0,240
2,note_on,56,49,0
2,note_on,56,0,240
2,note_on,55,49,0
2,note_on,55,0,240
2,note_on,53,51,0
2,note_on,53,0,240
2,note_on,51,51,0
2,note_on,51,0,240
2,note_on,49,52,0
2,note_on,49,0,240
2,note_on,48,53,0
2,note_on,48,0,240
2,note_on,46,53,0
2,note_on,46,0,240
2,note_on,45,54,0
2,note_on,45,0,240
2,note_on,46,55,0
2,note_on,46,0,240
2,note_on,48,55,0
2,note_on,48,0,240
2,note_on,49,55,0
2,note_on,49,0,240
2,note_on,48,56,0
2,note_on,48,0,240
2,note_on,49,57,0
2,note_on,49,0,240
2,note_on,50,58,0
2,note_on,50,0,240
2,note_on,51,59,0
2,note_on,51,0,240
2,note_on,53,60,0
2,note_on,53,0,240
2,note_on,54,61,0
2,note_on,54,0,240
2,note_on,55,62,0
2,note_on,55,0,240
2,note_on,44,76,0
2,note_on,44,0,960
2,note_on,49,72,0
2,note_on,49,0,960
2,note_on,43,77,0
2,note_on,43,0,960
2,note_on,48,71,0
2,note_on,48,0,960
2,note_on,41,76,0
2,note_on,41,0,960
2,note_on,29,76,0
2,note_on,41,76,0
2,note_on,41,0,1920
2,note_on,29,0,0
2,note_on,30,75,0
2,note_on,42,75,0
2,note_on,42,0,960
2,note_on,30,0,0
2,note_on,31,75,0
2,note_on,31,0,480
2,note_on,38,54,240
2,note_on,38,0,120
2,note_on,35,55,0
2,note_on,35,0,120
2,note_on,31,67,0
2,note_on,31,0,120
2,note_on,39,55,600
2,note_on,39,0,120
2,note_on,36,55,0
2,note_on,36,0,120
2,note_on,31,69,0
2,note_on,31,0,120
2,note_on,41,57,600
2,note_on,41,0,120
2,note_on,38,57,0
2,note_on,38,0,120
2,note_on,31,70,0
2,note_on,31,0,120
2,note_on,39,59,600
2,note_on,39,0,120
2,note_on,36,59,0
2,note_on,36,0,120
2,note_on,31,81,0
2,note_on,31,0,120
2,note_on,50,59,600
2,note_on,50,0,120
2,note_on,47,59,0
2,note_on,47,0,120
2,note_on,43,74,0
2,note_on,43,0,120
2,note_on,51,59,600
2,note_on,51,0,120
2,note_on,48,59,0
2,note_on,48,0,120
2,note_on,43,76,0
2,note_on,43,0,120
2,note_on,53,62,600
2,note_on,53,0,120
2,note_on,50,62,0
2,note_on,50,0,120
2,note_on,43,76,0
2,note_on,43,0,120
2,note_on,51,65,600
2,note_on,51,0,120
2,note_on,48,65,0
2,note_on,48,0,120
2,note_on,43,88,0
2,note_on,43,0,120
2,note_on,62,70,600
2,note_on,62,0,120
2,note_on,59,70,0
2,note_on,59,0,120
2,note_on,55,86,0
2,note_on,55,0,120
2,note_on,63,68,600
2,note_on,63,0,120
2,note_on,60,68,0
2,note_on,60,0,120
2,note_on,55,86,0
2,note_on,55,0,120
2,note_on,65,70,600
2,note_on,65,0,120
2,note_on,62,70,0
2,note_on,62,0,120
2,note_on,55,86,0
2,note_on,55,0,120
2,note_on,63,71,600
2,note_on,63,0,120
2,note_on,60,71,0
2,note_on,60,0,120
2,note_on,55,80,0
2,note_on,55,0,120
2,note_on,55,67,1320
2,note_on,55,0,160
2,note_on,50,67,0
2,note_on,50,0,160
2,note_on,47,66,0
2,note_on,47,0,160
2,note_on,43,80,0
2,note_on,43,0,480
2,note_on,55,67,960
2,note_on,55,0,160
2,note_on,50,67,0
2,note_on,50,0,160
2,note_on,47,66,0
2,note_on,47,0,160
2,note_on,43,80,0
2,note_on,43,0,480
2,note_on,43,67,960
2,note_on,43,0,160
2,note_on,38,67,0
2,note_on,38,0,160
2,note_on,35,66,0
2,note_on,35,0,160
2,note_on,31,80,0
2,note_on,31,0,480
2,note_on,31,75,1440
2,note_on,43,80,0
2,note_on,43,0,3840
2,note_on,31,0,0
2,note_on,43,69,0
2,note_on,53,82,0
2,note_on,50,69,0
2,note_on,50,0,2880
2,note_on,53,0,0
2,note_on,43,0,0
2,note_on,48,40,960
2,note_on,48,0,240
2,note_on,51,36,0
2,note_on,51,0,240
2,note_on,55,36,0
2,note_on,55,0,240
2,note_on,60,36,0
2,note_on,60,0,240
2,note_on,48,40,0
2,note_on,48,0,240
2,note_on,53,40,0
2,note_on,53,0,240
2,note_on,55,36,0
2,note_on,55,0,240
2,note_on,59,36,0
2,note_on,59,0,240
2,note_on,48,40,0
2,note_on,48,0,240
2,note_on,51,40,0
2,note_on,51,0,240
2,note_on,55,36,0
2,note_on,55,0,240
2,note_on,60,36,0
2,note_on,60,0,240
2,note_on,63,40,0
2,note_on,63,0,240
2,note_on,67,36,0
2,note_on,67,0,240
2,note_on,63,36,0
2,note_on,63,0,240
2,note_on,62,36,0
2,note_on,62,0,240
2,note_on,60,40,0
2,note_on,60,0,240
2,note_on,67,36,0
2,note_on,67,0,240
2,note_on,60,36,0
2,note_on,63,36,0
2,note_on,63,0,240
2,note_on,60,0,0
2,note_on,67,36,0
2,note_on,67,0,240
2,note_on,59,41,0
2,note_on,62,41,0
2,note_on,62,0,240
2,note_on,59,0,0
2,note_on,67,36,0
2,note_on,67,0,240
2,note_on,60,36,0
2,note_on,56,36,0
2,note_on,56,0,240
2,note_on,60,0,0
2,note_on,67,36,0
2,note_on,67,0,240
2,note_on,55,40,0
2,note_on,55,0,240
2,note_on,59,29,0
2,note_on,59,0,240
2,note_on,62,28,0
2,note_on,62,0,240
2,note_on,67,28,0
2,note_on,67,0,240
2,note_on,55,40,0
2,note_on,55,0,240
2,note_on,59,31,0
2,note_on,59,0,240
2,note_on,62,31,0
2,note_on,62,0,240
2,note_on,67,31,0
2,note_on,67,0,240
2,note_on,53,40,0
2,note_on,53,0,240
2,note_on,56,36,0
2,note_on,56,0,240
2,note_on,59,37,0
2,note_on,59,0,240
2,note_on,62,37,0
2,note_on,62,0,240
2,note_on,53,40,0
2,note_on,53,0,240
2,note_on,56,36,0
2,note_on,56,0,240
2,note_on,59,36,0
2,note_on,59,0,240
2,note_on,62,36,0
2,note_on,62,0,240
2,note_on,51,40,0
2,note_on,51,0,240
2,note_on,55,34,0
2,note_on,55,0,240
2,note_on,60,34,0
2,note_on,60,0,240
2,note_on,63,33,0
2,note_on,63,0,240
2,note_on,56,41,0
2,note_on,56,0,240
2,note_on,60,35,0
2,note_on,60,0,240
2,note_on,63,35,0
2,note_on,63,0,240
2,note_on,66,35,0
2,note_on,66,0,240
2,note_on,55,40,0
2,note_on,55,0,240
2,note_on,60,40,0
2,note_on,60,0,240
2,note_on,63,35,0
2,note_on,63,0,240
2,note_on,67,35,0
2,note_on,67,0,240
2,note_on,55,40,0
2,note_on,55,0,240
2,note_on,59,36,0
2,note_on,59,0,240
2,note_on,62,36,0
2,note_on,62,0,240
2,note_on,67,36,0
2,note_on,67,0,240
2,note_on,36,38,240
2,note_on,36,0,240
2,note_on,39,42,0
2,note_on,39,0,240
2,note_on,43,45,0
2,note_on,43,0,240
2,note_on,48,45,0
2,note_on,48,0,240
2,note_on,51,45,0
2,note_on,51,0,240
2,note_on,53,50,0
2,note_on,53,0,240
2,note_on,55,52,0
2,note_on,55,0,240
2,note_on,56,54,0
2,note_on,56,0,960
2,note_on,50,51,0
2,note_on,50,0,480
2,note_on,51,50,0
2,note_on,51,0,240
2,note_on,53,52,0
2,note_on,53,0,240
2,note_on,55,54,0
2,note_on,55,0,960
2,note_on,48,51,0
2,note_on,48,0,480
2,note_on,58,50,0
2,note_on,58,0,240
2,note_on,60,52,0
2,note_on,60,0,240
2,note_on,61,54,0
2,note_on,61,0,960
2,note_on,55,51,0
2,note_on,55,0,480
2,note_on,56,50,0
2,note_on,56,0,240
2,note_on,58,52,0
2,note_on,58,0,240
2,note_on,60,54,0
2,note_on,60,0,960
2,note_on,53,51,0
2,note_on,53,0,480
2,note_on,60,54,480
2,note_on,56,54,0
2,note_on,60,0,480
2,note_on,65,54,0
2,note_on,65,0,480
2,note_on,56,0,0
2,note_on,60,54,0
2,note_on,56,54,0
2,note_on,60,0,480
2,note_on,66,54,0
2,note_on,66,0,480
2,note_on,56,0,0
2,note_on,55,46,0
2,note_on,55,0,480
2,note_on,67,31,0
2,note_on,67,0,480
2,note_on,65,42,0
2,note_on,65,0,480
2,note_on,67,30,0
2,note_on,67,0,480
2,note_on,64,42,0
2,note_on,64,0,480
2,note_on,67,33,0
2,note_on,67,0,480
2,note_on,59,41,0
2,note_on,59,0,480
2,note_on,67,33,0
2,note_on,67,0,480
2,note_on,60,40,0
2,note_on,60,0,480
2,note_on,67,35,0
2,note_on,67,0,480
2,note_on,74,40,0
2,note_on,65,40,0
2,note_on,65,0,480
2,note_on,67,36,0
2,note_on,67,0,480
2,note_on,74,0,0
2,note_on,72,40,0
2,note_on,64,40,0
2,note_on,64,0,480
2,note_on,67,36,0
2,note_on,67,0,480
2,note_on,72,0,0
2,note_on,59,40,0
2,note_on,59,0,480
2,note_on,67,34,0
2,note_on,67,0,480
2,note_on,60,41,0
2,note_on,60,0,480
2,note_on,67,34,0
2,note_on,67,0,480
2,note_on,65,40,0
2,note_on,65,0,480
2,note_on,67,34,0
2,note_on,67,0,480
2,note_on,64,42,0
2,note_on,64,0,480
2,note_on,67,33,0
2,note_on,67,0,480
2,note_on,59,41,0
2,note_on,59,0,480
2,note_on,67,33,0
2,note_on,67,0,480
2,note_on,60,40,0
2,note_on,60,0,480
2,note_on,67,35,0
2,note_on,67,0,480
2,note_on,64,40,0
2,note_on,72,40,0
2,note_on,72,0,480
2,note_on,67,36,0
2,note_on,67,0,480
2,note_on,64,0,0
2,note_on,65,38,0
2,note_on,72,42,0
2,note_on,72,0,480
2,note_on,69,38,0
2,note_on,65,0,470
2,note_on,69,0,10
2,note_on,65,37,0
2,note_on,73,44,0
2,note_on,73,0,480
2,note_on,69,38,0
2,note_on,69,0,480
2,note_on,65,0,0
2,note_on,65,46,0
2,note_on,74,46,0
2,note_on,74,0,480
2,note_on,65,0,0
2,note_on,69,42,0
2,note_on,69,0,480
2,note_on,65,48,0
2,note_on,65,0,480
2,note_on,66,41,0
2,note_on,66,0,480
2,note_on,67,55,0
2,note_on,67,0,150
2,note_on,62,45,970
2,note_on,64,48,160
2,note_on,62,0,10
2,note_on,66,50,150
2,note_on,64,0,10
2,note_on,64,48,150
2,note_on,66,0,10
2,note_on,62,45,150
2,note_on,64,0,10
2,note_on,67,55,150
2,note_on,62,0,10
2,note_on,67,0,140
2,note_on,62,43,970
2,note_on,64,47,160
2,note_on,62,0,10
2,note_on,66,50,150
2,note_on,64,0,10
2,note_on,64,48,150
2,note_on,66,0,10
2,note_on,62,45,150
2,note_on,64,0,10
2,note_on,67,55,150
2,note_on,62,0,10
2,note_on,67,0,140
2,note_on,67,55,810
2,note_on,67,0,480
2,note_on,62,46,480
2,note_on,55,46,0
2,note_on,59,46,0
2,note_on,65,55,0
2,note_on,65,0,480
2,note_on,62,0,0
2,note_on,55,0,0
2,note_on,59,0,0
2,note_on,48,55,1440
2,note_on,48,0,480
2,note_on,55,45,640
2,note_on,57,48,160
2,note_on,55,0,10
2,note_on,59,50,150
2,note_on,57,0,10
2,note_on,57,48,150
2,note_on,59,0,10
2,note_on,55,45,150
2,note_on,57,0,10
2,note_on,60,55,150
2,note_on,55,0,10
2,note_on,60,0,470
2,note_on,55,43,640
2,note_on,57,47,160
2,note_on,55,0,10
2,note_on,59,50,150
2,note_on,57,0,10
2,note_on,57,48,150
2,note_on,59,0,10
2,note_on,55,45,150
2,note_on,57,0,10
2,note_on,60,55,150
2,note_on,55,0,10
2,note_on,60,0,470
2,note_on,60,55,480
2,note_on,60,0,480
2,note_on,58,46,480
2,note_on,52,46,0
2,note_on,55,46,0
2,note_on,60,55,0
2,note_on,60,0,480
2,note_on,58,0,0
2,note_on,52,0,0
2,note_on,55,0,0
2,note_on,41,52,1440
2,note_on,41,0,160
2,note_on,45,54,0
2,note_on,45,0,160
2,note_on,48,56,0
2,note_on,48,0,160
2,note_on,53,59,0
2,note_on,53,0,480
2,note_on,55,48,960
2,note_on,60,48,0
2,note_on,64,57,0
2,note_on,64,0,480
2,note_on,60,0,0
2,note_on,55,0,0
2,note_on,55,49,480
2,note_on,62,49,0
2,note_on,65,58,0
2,note_on,65,0,480
2,note_on,62,0,0
2,note_on,55,0,0
2,note_on,60,49,480
2,note_on,64,58,0
2,note_on,64,0,480
2,note_on,60,0,0
2,note_on,67,39,1440
2,note_on,65,33,0
2,note_on,65,0,240
2,note_on,67,0,0
2,note_on,65,34,240
2,note_on,67,40,0
2,note_on,67,0,240
2,note_on,65,0,0
2,note_on,67,42,240
2,note_on,65,35,0
2,note_on,65,0,240
2,note_on,67,0,0
2,note_on,65,36,240
2,note_on,67,43,0
2,note_on,67,0,240
2,note_on,65,0,0
2,note_on,64,37,240
2,note_on,67,45,0
2,note_on,67,0,1430
2,note_on,64,0,0
2,note_on,64,42,10
2,note_on,64,0,480
2,note_on,69,45,0
2,note_on,69,0,941
2,note_on,69,43,19
2,note_on,69,0,941
2,note_on,67,43,19
2,note_on,67,0,480
2,note_on,55,39,1440
2,note_on,53,33,0
2,note_on,53,0,240
2,note_on,55,0,0
2,note_on,53,34,240
2,note_on,55,40,0
2,note_on,55,0,240
2,note_on,53,0,0
2,note_on,55,42,240
2,note_on,53,35,0
2,note_on,53,0,240
2,note_on,55,0,0
2,note_on,53,36,240
2,note_on,55,43,0
2,note_on,55,0,240
2,note_on,53,0,0
2,note_on,51,37,240
2,note_on,55,45,0
2,note_on,55,0,1440
2,note_on,51,0,0
2,note_on,51,41,0
2,note_on,51,0,480
2,note_on,56,39,0
2,note_on,56,0,240
2,note_on,56,44,240
2,note_on,56,0,240
2,note_on,58,44,240
2,note_on,56,44,0
2,note_on,56,0,240
2,note_on,58,0,0
2,note_on,56,46,240
2,note_on,58,46,0
2,note_on,58,0,240
2,note_on,56,0,0
2,note_on,55,50,240
2,note_on,58,50,0
2,note_on,58,0,1440
2,note_on,55,0,0
2,note_on,55,51,0
2,note_on,55,0,480
2,note_on,60,47,0
2,note_on,60,0,240
2,note_on,60,48,240
2,note_on,63,48,0
2,note_on,63,0,240
2,note_on,60,0,0
2,note_on,63,50,240
2,note_on,60,50,0
2,note_on,60,0,240
2,note_on,63,0,0
2,note_on,60,51,240
2,note_on,63,51,0
2,note_on,63,0,240
2,note_on,60,0,0
2,note_on,59,54,240
2,note_on,62,54,0
2,note_on,62,0,1440
2,note_on,59,0,0
2,note_on,60,53,0
2,note_on,63,53,0
2,note_on,63,0,480
2,note_on,60,0,0
2,note_on,59,55,0
2,note_on,62,55,0
2,note_on,62,0,1440
2,note_on,59,0,0
2,note_on,65,54,0
2,note_on,68,54,0
2,note_on,68,0,480
2,note_on,65,0,0
2,note_on,63,56,0
2,note_on,67,56,0
2,note_on,67,0,1440
2,note_on,63,0,0
2,note_on,65,49,0
2,note_on,68,49,0
2,note_on,68,0,480
2,note_on,65,0,0
2,note_on,63,52,0
2,note_on,67,52,0
2,note_on,67,0,1440
2,note_on,63,0,0
2,note_on,65,36,0
2,note_on,68,43,0
2,note_on,68,0,480
2,note_on,65,0,0
2,note_on,43,42,7200
2,note_on,43,0,480
2,note_on,48,40,0
2,note_on,48,0,240
2,note_on,51,36,0
2,note_on,51,0,240
2,note_on,55,36,0
2,note_on,55,0,240
2,note_on,60,36,0
2,note_on,60,0,240
2,note_on,48,40,0
2,note_on,48,0,240
2,note_on,53,40,0
2,note_on,53,0,240
2,note_on,55,36,0
2,note_on,55,0,240
2,note_on,59,36,0
2,note_on,59,0,240
2,note_on,48,40,0
2,note_on,48,0,240
2,note_on,51,40,0
2,note_on,51,0,240
2,note_on,55,36,0
2,note_on,55,0,240
2,note_on,60,36,0
2,note_on,60,0,240
2,note_on,63,40,0
2,note_on,63,0,240
2,note_on,67,36,0
2,note_on,67,0,240
2,note_on,63,36,0
2,note_on,63,0,240
2,note_on,62,36,0
2,note_on,62,0,240
2,note_on,60,40,0
2,note_on,60,0,240
2,note_on,67,36,0
2,note_on,67,0,240
2,note_on,60,36,0
2,note_on,63,36,0
2,note_on,63,0,240
2,note_on,60,0,0
2,note_on,67,36,0
2,note_on,67,0,240
2,note_on,59,41,0
2,note_on,62,41,0
2,note_on,62,0,240
2,note_on,59,0,0
2,note_on,67,36,0
2,note_on,67,0,240
2,note_on,60,36,0
2,note_on,56,36,0
2,note_on,56,0,240
2,note_on,60,0,0
2,note_on,67,36,0
2,note_on,67,0,240
2,note_on,55,40,0
2,note_on,55,0,240
2,note_on,59,29,0
2,note_on,59,0,240
2,note_on,62,28,0
2,note_on,62,0,240
2,note_on,67,28,0
2,note_on,67,0,240
2,note_on,55,40,0
2,note_on,55,0,240
2,note_on,59,31,0
2,note_on,59,0,240
2,note_on,62,31,0
2,note_on,62,0,240
2,note_on,67,31,0
2,note_on,67,0,240
2,note_on,53,40,0
2,note_on,53,0,240
2,note_on,56,36,0
2,note_on,56,0,240
2,note_on,59,37,0
2,note_on,59,0,240
2,note_on,62,37,0
2,note_on,62,0,240
2,note_on,53,40,0
2,note_on,53,0,240
2,note_on,56,36,0
2,note_on,56,0,240
2,note_on,59,36,0
2,note_on,59,0,240
2,note_on,62,36,0
2,note_on,62,0,240
2,note_on,51,40,0
2,note_on,51,0,240
2,note_on,55,34,0
2,note_on,55,0,240
2,note_on,60,34,0
2,note_on,60,0,240
2,note_on,63,33,0
2,note_on,63,0,240
2,note_on,56,41,0
2,note_on,56,0,240
2,note_on,60,35,0
2,note_on,60,0,240
2,note_on,63,35,0
2,note_on,63,0,240
2,note_on,66,35,0
2,note_on,66,0,240
2,note_on,55,40,0
2,note_on,55,0,240
2,note_on,60,40,0
2,note_on,60,0,240
2,note_on,63,35,0
2,note_on,63,0,240
2,note_on,67,35,0
2,note_on,67,0,240
2,note_on,55,40,0
2,note_on,55,0,240
2,note_on,59,36,0
2,note_on,59,0,240
2,note_on,62,36,0
2,note_on,62,0,240
2,note_on,67,36,0
2,note_on,67,0,240
2,note_on,60,57,0
2,note_on,60,0,480
2,note_on,41,58,1440
2,note_on,41,0,240
2,note_on,44,48,0
2,note_on,44,0,240
2,note_on,47,49,0
2,note_on,47,0,240
2,note_on,50,51,0
2,note_on,50,0,240
2,note_on,41,53,0
2,note_on,41,0,240
2,note_on,44,54,0
2,note_on,44,0,240
2,note_on,47,56,0
2,note_on,47,0,240
2,note_on,50,57,0
2,note_on,50,0,240
2,note_on,39,58,0
2,note_on,39,0,240
2,note_on,43,57,0
2,note_on,43,0,240
2,note_on,48,55,0
2,note_on,48,0,240
2,note_on,51,56,0
2,note_on,51,0,240
2,note_on,44,57,0
2,note_on,44,0,240
2,note_on,48,57,0
2,note_on,48,0,240
2,note_on,51,58,0
2,note_on,51,0,240
2,note_on,54,60,0
2,note_on,54,0,240
2,note_on,43,64,0
2,note_on,43,0,240
2,note_on,48,58,0
2,note_on,48,0,240
2,note_on,51,63,0
2,note_on,51,0,240
2,note_on,55,63,0
2,note_on,55,0,240
2,note_on,43,62,0
2,note_on,43,0,240
2,note_on,55,61,0
2,note_on,55,0,240
2,note_on,43,58,0
2,note_on,43,0,240
2,note_on,55,57,0
2,note_on,55,0,240
2,note_on,48,67,0
2,note_on,48,0,240
2,note_on,60,52,0
2,note_on,60,0,240
2,note_on,59,60,0
2,note_on,59,0,240
2,note_on,60,52,0
2,note_on,60,0,240
2,note_on,58,64,0
2,note_on,58,0,240
2,note_on,60,51,0
2,note_on,60,0,240
2,note_on,55,57,0
2,note_on,55,0,240
2,note_on,60,50,0
2,note_on,60,0,240
2,note_on,56,63,0
2,note_on,56,0,240
2,note_on,60,50,0
2,note_on,60,0,240
2,note_on,53,57,0
2,note_on,53,0,240
2,note_on,60,50,0
2,note_on,60,0,240
2,note_on,58,59,0
2,note_on,58,0,240
2,note_on,60,50,0
2,note_on,60,0,240
2,note_on,55,55,0
2,note_on,55,0,240
2,note_on,60,50,0
2,note_on,60,0,240
2,note_on,56,63,0
2,note_on,56,0,240
2,note_on,60,50,0
2,note_on,60,0,240
2,note_on,53,57,0
2,note_on,53,0,240
2,note_on,60,50,0
2,note_on,60,0,240
2,note_on,58,59,0
2,note_on,58,0,240
2,note_on,60,50,0
2,note_on,60,0,240
2,note_on,55,55,0
2,note_on,55,0,240
2,note_on,60,50,0
2,note_on,60,0,240
2,note_on,56,77,0
2,note_on,56,0,240
2,note_on,44,62,240
2,note_on,48,62,0
2,note_on,51,62,0
2,note_on,56,73,0
2,note_on,56,0,240
2,note_on,44,0,0
2,note_on,48,0,0
2,note_on,51,0,0
2,note_on,43,62,240
2,note_on,48,62,0
2,note_on,51,62,0
2,note_on,55,73,0
2,note_on,55,0,240
2,note_on,43,0,0
2,note_on,48,0,0
2,note_on,51,0,0
2,note_on,43,62,240
2,note_on,47,62,0
2,note_on,50,62,0
2,note_on,55,73,0
2,note_on,55,0,240
2,note_on,43,0,0
2,note_on,47,0,0
2,note_on,50,0,0
2,note_on,36,76,240
2,note_on,36,0,240
2,note_on,48,52,0
2,note_on,48,0,240
2,note_on,47,60,0
2,note_on,47,0,240
2,note_on,48,52,0
2,note_on,48,0,240
2,note_on,46,64,0
2,note_on,46,0,240
2,note_on,48,51,0
2,note_on,48,0,240
2,note_on,43,57,0
2,note_on,43,0,240
2,note_on,48,50,0
2,note_on,48,0,240
2,note_on,44,63,0
2,note_on,44,0,240
2,note_on,48,50,0
2,note_on,48,0,240
2,note_on,41,57,0
2,note_on,41,0,240
2,note_on,48,50,0
2,note_on,48,0,240
2,note_on,46,59,0
2,note_on,46,0,240
2,note_on,48,50,0
2,note_on,48,0,240
2,note_on,43,55,0
2,note_on,43,0,240
2,note_on,48,50,0
2,note_on,48,0,240
2,note_on,44,63,0
2,note_on,44,0,240
2,note_on,48,50,0
2,note_on,48,0,240
2,note_on,41,57,0
2,note_on,41,0,240
2,note_on,48,50,0
2,note_on,48,0,240
2,note_on,46,59,0
2,note_on,46,0,240
2,note_on,48,50,0
2,note_on,48,0,240
2,note_on,43,55,0
2,note_on,43,0,240
2,note_on,48,50,0
2,note_on,48,0,240
2,note_on,44,45,0
2,note_on,44,0,480
2,note_on,44,45,0
2,note_on,56,45,0
2,note_on,56,0,480
2,note_on,44,0,0
2,note_on,44,41,480
2,note_on,48,41,0
2,note_on,51,41,0
2,note_on,56,49,0
2,note_on,56,0,240
2,note_on,44,0,0
2,note_on,48,0,0
2,note_on,51,0,0
2,note_on,43,44,720
2,note_on,48,44,0
2,note_on,51,44,0
2,note_on,55,52,0
2,note_on,55,0,240
2,note_on,43,0,0
2,note_on,48,0,0
2,note_on,51,0,0
2,note_on,42,46,720
2,note_on,48,46,0
2,note_on,51,46,0
2,note_on,54,55,0
2,note_on,54,0,240
2,note_on,42,0,0
2,note_on,48,0,0
2,note_on,51,0,0
2,note_on,41,48,720
2,note_on,47,48,0
2,note_on,50,48,0
2,note_on,53,57,0
2,note_on,53,0,240
2,note_on,41,0,0
2,note_on,47,0,0
2,note_on,50,0,0
2,note_on,39,51,720
2,note_on,43,51,0
2,note_on,48,51,0
2,note_on,51,60,0
2,note_on,51,0,240
2,note_on,39,0,0
2,note_on,43,0,0
2,note_on,48,0,0
2,note_on,41,53,720
2,note_on,44,53,0
2,note_on,50,53,0
2,note_on,53,63,0
2,note_on,53,0,240
2,note_on,41,0,0
2,note_on,44,0,0
2,note_on,50,0,0
2,note_on,43,56,720
2,note_on,47,56,0
2,note_on,50,56,0
2,note_on,55,66,0
2,note_on,55,0,240
2,note_on,43,0,0
2,note_on,47,0,0
2,note_on,50,0,0
2,note_on,36,65,240
2,note_on,48,77,0
2,note_on,48,0,240
2,note_on,36,0,0
2,note_on,51,70,240
2,note_on,55,70,0
2,note_on,60,83,0
2,note_on,60,0,1440
2,note_on,55,0,0
2,note_on,51,0,0
2,note_on,53,65,0
2,note_on,56,65,0
2,note_on,60,65,0
2,note_on,62,77,0
2,note_on,62,0,240
2,note_on,53,0,0
2,note_on,56,0,0
2,note_on,60,0,0
2,note_on,55,70,240
2,note_on,59,70,0
2,note_on,62,83,0
2,note_on,62,0,1440
2,note_on,59,0,0
2,note_on,55,0,0
2,note_on,51,65,0
2,note_on,55,65,0
2,note_on,60,77,0
2,note_on,60,0,240
2,note_on,55,0,0
2,note_on,51,0,0
2,note_on,51,70,240
2,note_on,55,70,0
2,note_on,60,83,0
2,note_on,60,0,1440
2,note_on,55,0,0
2,note_on,51,0,0
2,note_on,53,65,0
2,note_on,56,65,0
2,note_on,60,65,0
2,note_on,62,77,0
2,note_on,62,0,240
2,note_on,53,0,0
2,note_on,56,0,0
2,note_on,60,0,0
2,note_on,55,70,240
2,note_on,59,70,0
2,note_on,62,83,0
2,note_on,62,0,1440
2,note_on,59,0,0
2,note_on,55,0,0
2,note_on,51,65,0
2,note_on,55,65,0
2,note_on,60,77,0
2,note_on,60,0,240
2,note_on,55,0,0
2,note_on,51,0,0
2,note_on,51,70,240
2,note_on,55,70,0
2,note_on,60,83,0
2,note_on,60,0,1440
2,note_on,55,0,0
2,note_on,51,0,0
2,note_on,53,65,0
2,note_on,56,65,0
2,note_on,61,77,0
2,note_on,61,0,240
2,note_on,56,0,0
2,note_on,53,0,0
2,note_on,53,70,240
2,note_on,56,70,0
2,note_on,61,83,0
2,note_on,61,0,960
2,note_on,56,0,0
2,note_on,53,0,0
2,note_on,53,71,0
2,note_on,56,71,0
2,note_on,61,84,0
2,note_on,61,0,240
2,note_on,56,0,0
2,note_on,53,0,0
2,note_on,55,77,240
2,note_on,58,77,0
2,note_on,61,77,0
2,note_on,63,91,0
2,note_on,63,0,2880
2,note_on,55,0,0
2,note_on,58,0,0
2,note_on,61,0,0
2,note_on,31,69,960
2,note_on,39,69,0
2,note_on,43,82,0
2,note_on,43,0,2880
2,note_on,39,0,0
2,note_on,31,0,0
2,note_on,44,40,960
2,note_on,51,40,0
2,note_on,51,0,960
2,note_on,49,40,0
2,note_on,49,0,960
2,note_on,44,0,0
2,note_on,44,40,0
2,note_on,48,40,0
2,note_on,48,0,480
2,note_on,44,0,0
2,note_on,56,38,1440
2,note_on,63,38,0
2,note_on,63,0,960
2,note_on,61,37,0
2,note_on,61,0,960
2,note_on,56,0,0
2,note_on,56,36,0
2,note_on,60,36,0
2,note_on,60,0,480
2,note_on,56,0,0
2,note_on,68,35,1440
2,note_on,68,0,480
2,note_on,67,34,1440
2,note_on,67,0,480
2,note_on,43,67,1440
2,note_on,47,67,0
2,note_on,50,67,0
2,note_on,55,79,0
2,note_on,55,0,480
2,note_on,43,0,0
2,note_on,47,0,0
2,note_on,50,0,0
2,note_on,36,69,1440
2,note_on,39,69,0
2,note_on,43,69,0
2,note_on,48,82,0
2,note_on,48,0,480
2,note_on,36,0,0
2,note_on,39,0,0
2,note_on,43,0,0
