Track,Message Type,Note,Velocity,Time
1,note_on,69,50,1
1,note_on,76,50,959
1,note_on,69,0,1
1,note_on,76,0,959
1,note_on,75,53,0
1,note_on,75,0,960
1,note_on,76,47,0
1,note_on,76,0,200
1,note_on,72,49,280
1,note_on,71,47,360
1,note_on,72,0,20
1,note_on,69,48,100
1,note_on,71,0,20
1,note_on,69,0,940
1,note_on,56,56,0
1,note_on,64,56,0
1,note_on,59,56,0
1,note_on,59,0,960
1,note_on,64,0,0
1,note_on,56,0,0
1,note_on,60,52,0
1,note_on,60,0,960
1,note_on,57,51,0
1,note_on,57,0,180
1,note_on,57,50,780
1,note_on,57,0,960
1,note_on,57,59,0
1,note_on,65,59,0
1,note_on,65,0,960
1,note_on,57,0,0
1,note_on,58,64,0
1,note_on,67,64,0
1,note_on,67,0,960
1,note_on,58,0,0
1,note_on,65,54,0
1,note_on,57,54,0
1,note_on,57,0,200
1,note_on,65,0,0
1,note_on,57,51,280
1,note_on,59,54,360
1,note_on,57,0,20
1,note_on,60,52,100
1,note_on,59,0,20
1,note_on,60,0,940
1,note_on,59,54,0
1,note_on,64,54,0
1,note_on,52,54,0
1,note_on,56,54,0
1,note_on,56,0,960
1,note_on,59,0,0
1,note_on,64,0,0
1,note_on,52,0,0
1,note_on,60,50,0
1,note_on,48,50,0
1,note_on,48,0,960
1,note_on,60,0,0
1,note_on,45,50,0
1,note_on,57,50,0
1,note_on,57,0,200
1,note_on,45,0,0
1,note_on,57,52,4120
1,note_on,57,0,960
1,note_on,62,46,0
1,note_on,62,0,480
1,note_on,64,49,0
1,note_on,64,0,480
1,note_on,65,47,0
1,note_on,65,0,480
1,note_on,64,50,0
1,note_on,64,0,960
1,note_on,57,46,0
1,note_on,57,0,200
1,note_on,67,44,280
1,note_on,67,0,480
1,note_on,65,47,0
1,note_on,65,0,960
1,note_on,57,48,0
1,note_on,57,0,200
1,note_on,65,45,280
1,note_on,65,0,480
1,note_on,64,50,0
1,note_on,64,0,960
1,note_on,57,48,0
1,note_on,57,0,200
1,note_on,57,56,280
1,note_on,69,56,0
1,note_on,57,0,477
1,note_on,69,0,483
1,note_on,62,56,0
1,note_on,74,56,0
1,note_on,74,0,480
1,note_on,62,0,0
1,note_on,76,59,0
1,note_on,64,59,0
1,note_on,64,0,480
1,note_on,76,0,0
1,note_on,65,54,0
1,note_on,77,54,0
1,note_on,77,0,480
1,note_on,65,0,0
1,note_on,64,59,0
1,note_on,76,59,0
1,note_on,76,0,960
1,note_on,64,0,0
1,note_on,57,56,0
1,note_on,69,56,0
1,note_on,69,0,200
1,note_on,57,0,0
1,note_on,76,69,280
1,note_on,64,69,0
1,note_on,64,0,960
1,note_on,76,0,0
1,note_on,67,74,0
1,note_on,79,74,0
1,note_on,79,0,480
1,note_on,67,0,0
1,note_on,69,79,0
1,note_on,81,79,0
1,note_on,81,0,480
1,note_on,69,0,0
1,note_on,71,77,0
1,note_on,83,77,0
1,note_on,83,0,480
1,note_on,71,0,0
1,note_on,71,85,0
1,note_on,83,85,0
1,note_on,83,0,880
1,note_on,71,0,0
1,note_on,83,81,80
1,note_on,71,81,0
1,note_on,71,0,880
1,note_on,83,0,0
1,note_on,67,63,80
1,note_on,79,63,0
1,note_on,79,0,960
1,note_on,67,0,0
1,note_on,64,53,0
1,note_on,76,53,0
1,note_on,76,0,200
1,note_on,64,0,0
1,note_on,59,41,760
1,note_on,71,41,0
1,note_on,71,0,880
1,note_on,59,0,0
1,note_on,71,37,80
1,note_on,59,37,0
1,note_on,59,0,880
1,note_on,71,0,0
1,note_on,55,37,80
1,note_on,67,37,0
1,note_on,67,0,960
1,note_on,55,0,0
1,note_on,52,33,0
1,note_on,64,33,0
1,note_on,64,0,200
1,note_on,52,0,0
1,note_on,55,37,760
1,note_on,67,37,0
1,note_on,67,0,960
1,note_on,55,0,0
1,note_on,52,33,0
1,note_on,64,33,0
1,note_on,64,0,140
1,note_on,52,0,0
1,note_on,65,45,820
1,note_on,53,45,0
1,note_on,53,0,960
1,note_on,65,0,0
1,note_on,62,40,0
1,note_on,50,40,0
1,note_on,50,0,140
1,note_on,62,0,0
1,note_on,64,56,820
1,note_on,52,56,0
1,note_on,52,0,960
1,note_on,64,0,0
1,note_on,48,51,0
1,note_on,60,51,0
1,note_on,60,0,140
1,note_on,48,0,0
1,note_on,50,73,820
1,note_on,62,73,0
1,note_on,62,0,960
1,note_on,50,0,0
1,note_on,59,69,0
1,note_on,47,69,0
1,note_on,47,0,140
1,note_on,59,0,0
1,note_on,57,95,820
1,note_on,69,95,0
1,note_on,69,0,960
1,note_on,57,0,0
1,note_on,64,91,0
1,note_on,76,91,0
1,note_on,76,0,960
1,note_on,64,0,0
1,note_on,63,88,0
1,note_on,75,88,0
1,note_on,75,0,960
1,note_on,63,0,0
1,note_on,76,81,0
1,note_on,64,81,0
1,note_on,64,0,240
1,note_on,76,0,0
1,note_on,72,78,240
1,note_on,64,78,0
1,note_on,64,0,240
1,note_on,72,0,0
1,note_on,64,63,120
1,note_on,71,73,0
1,note_on,71,0,90
1,note_on,64,0,0
1,note_on,64,67,30
1,note_on,69,80,0
1,note_on,69,0,240
1,note_on,64,0,0
1,note_on,62,63,120
1,note_on,67,73,0
1,note_on,67,0,90
1,note_on,62,0,0
1,note_on,65,72,30
1,note_on,60,63,0
1,note_on,60,0,240
1,note_on,65,0,0
1,note_on,64,70,120
1,note_on,59,58,0
1,note_on,59,0,90
1,note_on,64,0,0
1,note_on,60,74,30
1,note_on,65,74,0
1,note_on,65,0,240
1,note_on,60,0,0
1,note_on,59,57,120
1,note_on,64,70,0
1,note_on,64,0,90
1,note_on,59,0,0
1,note_on,57,64,30
1,note_on,62,75,0
1,note_on,62,0,240
1,note_on,57,0,0
1,note_on,61,70,120
1,note_on,55,58,0
1,note_on,55,0,90
1,note_on,61,0,0
1,note_on,57,76,30
1,note_on,62,76,0
1,note_on,62,0,240
1,note_on,57,0,0
1,note_on,59,63,120
1,note_on,64,73,0
1,note_on,64,0,90
1,note_on,59,0,0
1,note_on,60,77,30
1,note_on,65,77,0
1,note_on,65,0,240
1,note_on,60,0,0
1,note_on,62,63,120
1,note_on,68,73,0
1,note_on,68,0,90
1,note_on,62,0,0
1,note_on,69,81,30
1,note_on,64,81,0
1,note_on,64,0,240
1,note_on,69,0,0
1,note_on,64,67,120
1,note_on,71,80,0
1,note_on,71,0,90
1,note_on,64,0,0
1,note_on,64,71,30
1,note_on,69,86,0
1,note_on,69,0,120
1,note_on,64,0,0
1,note_on,57,97,360
1,note_on,57,0,960
1,note_on,57,85,0
1,note_on,69,85,0
1,note_on,65,85,0
1,note_on,65,0,960
1,note_on,69,0,0
1,note_on,57,0,0
1,note_on,70,90,0
1,note_on,58,90,0
1,note_on,67,90,0
1,note_on,67,0,960
1,note_on,58,0,0
1,note_on,70,0,0
1,note_on,65,80,0
1,note_on,69,80,0
1,note_on,57,80,0
1,note_on,57,0,240
1,note_on,69,0,0
1,note_on,65,0,0
1,note_on,69,73,240
1,note_on,77,89,0
1,note_on,77,0,240
1,note_on,69,0,0
1,note_on,69,70,120
1,note_on,76,84,0
1,note_on,76,0,90
1,note_on,69,0,0
1,note_on,74,80,30
1,note_on,69,67,0
1,note_on,69,0,240
1,note_on,74,0,0
1,note_on,67,63,120
1,note_on,72,73,0
1,note_on,72,0,90
1,note_on,67,0,0
1,note_on,65,63,30
1,note_on,70,72,0
1,note_on,70,0,240
1,note_on,65,0,0
1,note_on,64,58,120
1,note_on,69,70,0
1,note_on,69,0,90
1,note_on,64,0,0
1,note_on,70,75,30
1,note_on,65,64,0
1,note_on,65,0,240
1,note_on,70,0,0
1,note_on,64,57,120
1,note_on,69,70,0
1,note_on,69,0,90
1,note_on,64,0,0
1,note_on,62,74,30
1,note_on,67,74,0
1,note_on,67,0,240
1,note_on,62,0,0
1,note_on,60,58,120
1,note_on,66,70,0
1,note_on,66,0,90
1,note_on,60,0,0
1,note_on,62,77,30
1,note_on,67,77,0
1,note_on,67,0,240
1,note_on,62,0,0
1,note_on,69,73,120
1,note_on,64,63,0
1,note_on,64,0,90
1,note_on,69,0,0
1,note_on,65,78,30
1,note_on,70,78,0
1,note_on,70,0,240
1,note_on,65,0,0
1,note_on,67,63,120
1,note_on,73,73,0
1,note_on,73,0,90
1,note_on,67,0,0
1,note_on,69,70,30
1,note_on,74,84,0
1,note_on,74,0,240
1,note_on,69,0,0
1,note_on,76,80,120
1,note_on,69,67,0
1,note_on,69,0,90
1,note_on,76,0,0
1,note_on,69,71,30
1,note_on,74,86,0
1,note_on,74,0,120
1,note_on,69,0,0
1,note_on,62,83,3720
1,note_on,74,93,0
1,note_on,62,0,477
1,note_on,74,0,483
1,note_on,67,80,0
1,note_on,79,89,0
1,note_on,79,0,480
1,note_on,67,0,0
1,note_on,69,84,0
1,note_on,81,94,0
1,note_on,81,0,480
1,note_on,69,0,0
1,note_on,70,80,0
1,note_on,82,89,0
1,note_on,82,0,480
1,note_on,70,0,0
1,note_on,69,83,0
1,note_on,81,93,0
1,note_on,81,0,960
1,note_on,69,0,0
1,note_on,62,76,0
1,note_on,74,85,0
1,note_on,74,0,200
1,note_on,62,0,0
1,note_on,72,87,280
1,note_on,84,97,0
1,note_on,84,0,480
1,note_on,72,0,0
1,note_on,70,87,0
1,note_on,82,97,0
1,note_on,82,0,960
1,note_on,70,0,0
1,note_on,74,92,0
1,note_on,62,82,0
1,note_on,62,0,200
1,note_on,74,0,0
1,note_on,70,87,280
1,note_on,82,97,0
1,note_on,82,0,480
1,note_on,70,0,0
1,note_on,69,82,0
1,note_on,81,92,0
1,note_on,81,0,960
1,note_on,69,0,0
1,note_on,62,75,0
1,note_on,74,84,0
1,note_on,74,0,200
1,note_on,62,0,0
1,note_on,74,97,280
1,note_on,62,87,0
1,note_on,62,0,960
1,note_on,74,0,0
1,note_on,67,81,0
1,note_on,79,91,0
1,note_on,79,0,480
1,note_on,67,0,0
1,note_on,69,86,0
1,note_on,81,96,0
1,note_on,81,0,480
1,note_on,69,0,0
1,note_on,70,83,0
1,note_on,82,93,0
1,note_on,82,0,480
1,note_on,70,0,0
1,note_on,69,88,0
1,note_on,81,98,0
1,note_on,81,0,960
1,note_on,69,0,0
1,note_on,74,84,0
1,note_on,62,75,0
1,note_on,62,0,200
1,note_on,74,0,0
1,note_on,69,84,280
1,note_on,81,94,0
1,note_on,81,0,960
1,note_on,69,0,0
1,note_on,84,95,0
1,note_on,72,85,0
1,note_on,72,0,480
1,note_on,84,0,0
1,note_on,74,93,0
1,note_on,86,104,0
1,note_on,86,0,480
1,note_on,74,0,0
1,note_on,88,101,0
1,note_on,76,90,0
1,note_on,76,0,480
1,note_on,88,0,0
1,note_on,88,108,0
1,note_on,76,97,0
1,note_on,76,0,920
1,note_on,88,0,0
1,note_on,76,84,40
1,note_on,88,94,0
1,note_on,88,0,920
1,note_on,76,0,0
1,note_on,84,96,40
1,note_on,72,86,0
1,note_on,72,0,960
1,note_on,84,0,0
1,note_on,81,81,0
1,note_on,69,72,0
1,note_on,69,0,200
1,note_on,81,0,0
1,note_on,64,48,760
1,note_on,76,48,0
1,note_on,76,0,920
1,note_on,64,0,0
1,note_on,76,48,40
1,note_on,64,48,0
1,note_on,64,0,920
1,note_on,76,0,0
1,note_on,60,45,40
1,note_on,72,45,0
1,note_on,72,0,960
1,note_on,60,0,0
1,note_on,57,41,0
1,note_on,69,41,0
1,note_on,69,0,200
1,note_on,57,0,0
1,note_on,58,34,760
1,note_on,70,34,0
1,note_on,70,0,960
1,note_on,58,0,0
1,note_on,67,25,0
1,note_on,55,25,0
1,note_on,55,0,180
1,note_on,67,0,0
1,note_on,58,31,780
1,note_on,70,31,0
1,note_on,70,0,960
1,note_on,58,0,0
1,note_on,55,25,0
1,note_on,67,25,0
1,note_on,67,0,180
1,note_on,55,0,0
1,note_on,58,31,780
1,note_on,70,31,0
1,note_on,70,0,960
1,note_on,58,0,0
1,note_on,55,24,0
1,note_on,67,24,0
1,note_on,67,0,180
1,note_on,55,0,0
1,note_on,70,34,780
1,note_on,58,34,0
1,note_on,58,0,960
1,note_on,70,0,0
1,note_on,55,29,0
1,note_on,67,29,0
1,note_on,67,0,180
1,note_on,55,0,0
1,note_on,59,80,780
1,note_on,59,0,120
1,note_on,71,76,0
1,note_on,71,0,120
1,note_on,59,72,0
1,note_on,59,0,120
1,note_on,71,67,0
1,note_on,71,0,120
1,note_on,59,63,0
1,note_on,59,0,120
1,note_on,71,60,0
1,note_on,71,0,120
1,note_on,59,57,0
1,note_on,59,0,120
1,note_on,71,54,0
1,note_on,71,0,120
1,note_on,59,60,0
1,note_on,59,0,120
1,note_on,71,57,0
1,note_on,71,0,120
1,note_on,59,55,0
1,note_on,59,0,120
1,note_on,71,52,0
1,note_on,71,0,120
1,note_on,59,58,0
1,note_on,59,0,120
1,note_on,71,56,0
1,note_on,71,0,120
1,note_on,59,54,0
1,note_on,59,0,120
1,note_on,71,51,0
1,note_on,71,0,120
1,note_on,56,80,0
1,note_on,56,0,120
1,note_on,68,75,0
1,note_on,68,0,120
1,note_on,56,69,0
1,note_on,56,0,120
1,note_on,68,65,0
1,note_on,68,0,120
1,note_on,56,61,0
1,note_on,56,0,120
1,note_on,68,60,0
1,note_on,68,0,120
1,note_on,56,59,0
1,note_on,56,0,120
1,note_on,68,58,0
1,note_on,68,0,120
1,note_on,56,69,0
1,note_on,56,0,120
1,note_on,68,68,0
1,note_on,68,0,120
1,note_on,56,66,0
1,note_on,56,0,120
1,note_on,68,63,0
1,note_on,68,0,120
1,note_on,56,73,0
1,note_on,56,0,120
1,note_on,68,70,0
1,note_on,68,0,120
1,note_on,56,67,0
1,note_on,56,0,120
1,note_on,68,64,0
1,note_on,68,0,120
1,note_on,83,99,0
1,note_on,71,99,0
1,note_on,71,0,480
1,note_on,83,0,0
1,note_on,68,90,0
1,note_on,80,90,0
1,note_on,80,0,180
1,note_on,68,0,0
1,note_on,71,98,300
1,note_on,83,98,0
1,note_on,83,0,480
1,note_on,71,0,0
1,note_on,88,93,0
1,note_on,76,93,0
1,note_on,76,0,180
1,note_on,88,0,0
1,note_on,71,95,300
1,note_on,83,95,0
1,note_on,83,0,480
1,note_on,71,0,0
1,note_on,68,90,0
1,note_on,80,90,0
1,note_on,80,0,180
1,note_on,68,0,0
1,note_on,76,90,300
1,note_on,64,90,0
1,note_on,64,0,480
1,note_on,76,0,0
1,note_on,59,81,0
1,note_on,71,81,0
1,note_on,71,0,180
1,note_on,59,0,0
1,note_on,68,34,300
1,note_on,64,34,0
1,note_on,56,34,0
1,note_on,56,0,1920
1,note_on,64,0,0
1,note_on,68,0,0
1,note_on,57,38,0
1,note_on,71,38,0
1,note_on,63,38,0
1,note_on,63,0,1920
1,note_on,71,0,0
1,note_on,57,0,0
1,note_on,59,93,0
1,note_on,59,0,120
1,note_on,71,87,0
1,note_on,71,0,120
1,note_on,59,81,0
1,note_on,59,0,120
1,note_on,71,75,0
1,note_on,71,0,120
1,note_on,56,91,0
1,note_on,56,0,120
1,note_on,68,86,0
1,note_on,68,0,120
1,note_on,56,81,0
1,note_on,56,0,120
1,note_on,68,75,0
1,note_on,68,0,120
1,note_on,59,84,0
1,note_on,59,0,120
1,note_on,71,80,0
1,note_on,71,0,120
1,note_on,59,77,0
1,note_on,59,0,120
1,note_on,71,73,0
1,note_on,71,0,120
1,note_on,64,88,0
1,note_on,64,0,120
1,note_on,76,85,0
1,note_on,76,0,120
1,note_on,64,83,0
1,note_on,64,0,120
1,note_on,76,80,0
1,note_on,76,0,120
1,note_on,68,91,0
1,note_on,68,0,120
1,note_on,80,88,0
1,note_on,80,0,120
1,note_on,68,86,0
1,note_on,68,0,120
1,note_on,80,83,0
1,note_on,80,0,120
1,note_on,71,94,0
1,note_on,71,0,120
1,note_on,83,91,0
1,note_on,83,0,120
1,note_on,71,88,0
1,note_on,71,0,120
1,note_on,83,84,0
1,note_on,83,0,120
1,note_on,76,102,0
1,note_on,76,0,120
1,note_on,88,96,0
1,note_on,88,0,120
1,note_on,76,90,0
1,note_on,76,0,120
1,note_on,88,84,0
1,note_on,88,0,120
1,note_on,71,82,0
1,note_on,71,0,120
1,note_on,83,71,0
1,note_on,83,0,120
1,note_on,71,68,0
1,note_on,71,0,120
1,note_on,83,64,0
1,note_on,83,0,120
1,note_on,68,39,0
1,note_on,64,39,0
1,note_on,56,39,0
1,note_on,56,0,1920
1,note_on,64,0,0
1,note_on,68,0,0
1,note_on,71,47,0
1,note_on,57,47,0
1,note_on,63,47,0
1,note_on,63,0,1920
1,note_on,57,0,0
1,note_on,71,0,0
1,note_on,56,34,0
1,note_on,64,40,0
1,note_on,64,0,920
1,note_on,56,0,0
1,note_on,56,26,40
1,note_on,64,30,0
1,note_on,64,0,840
1,note_on,56,0,0
1,note_on,56,39,120
1,note_on,64,39,0
1,note_on,64,0,470
1,note_on,56,0,0
1,note_on,68,34,10
1,note_on,56,34,0
1,note_on,56,0,470
1,note_on,68,0,0
1,note_on,56,38,10
1,note_on,66,38,0
1,note_on,66,0,470
1,note_on,56,0,0
1,note_on,56,35,10
1,note_on,68,35,0
1,note_on,68,0,470
1,note_on,56,0,0
1,note_on,57,39,10
1,note_on,61,39,0
1,note_on,61,0,920
1,note_on,57,0,0
1,note_on,57,28,40
1,note_on,61,28,0
1,note_on,61,0,840
1,note_on,57,0,0
1,note_on,61,38,120
1,note_on,57,38,0
1,note_on,57,0,470
1,note_on,61,0,0
1,note_on,59,31,10
1,note_on,57,31,0
1,note_on,66,31,0
1,note_on,66,0,470
1,note_on,57,0,0
1,note_on,59,0,0
1,note_on,64,37,10
1,note_on,57,37,0
1,note_on,59,37,0
1,note_on,59,0,470
1,note_on,57,0,0
1,note_on,64,0,0
1,note_on,66,29,10
1,note_on,57,29,0
1,note_on,59,29,0
1,note_on,59,0,470
1,note_on,57,0,0
1,note_on,66,0,0
1,note_on,59,36,10
1,note_on,56,36,0
1,note_on,56,0,920
1,note_on,59,0,0
1,note_on,56,24,40
1,note_on,64,29,0
1,note_on,64,0,840
1,note_on,56,0,0
1,note_on,56,46,120
1,note_on,64,46,0
1,note_on,64,0,470
1,note_on,56,0,0
1,note_on,56,38,10
1,note_on,68,38,0
1,note_on,68,0,470
1,note_on,56,0,0
1,note_on,66,46,10
1,note_on,56,46,0
1,note_on,56,0,470
1,note_on,66,0,0
1,note_on,56,39,10
1,note_on,68,39,0
1,note_on,68,0,470
1,note_on,56,0,0
1,note_on,57,46,10
1,note_on,64,46,0
1,note_on,69,46,0
1,note_on,69,0,920
1,note_on,64,0,0
1,note_on,57,0,0
1,note_on,57,38,40
1,note_on,64,38,0
1,note_on,69,38,0
1,note_on,69,0,840
1,note_on,64,0,0
1,note_on,57,0,0
1,note_on,69,51,120
1,note_on,61,51,0
1,note_on,73,51,0
1,note_on,73,0,920
1,note_on,61,0,0
1,note_on,69,0,0
1,note_on,61,50,40
1,note_on,69,50,0
1,note_on,73,50,0
1,note_on,61,0,476
1,note_on,73,0,364
1,note_on,69,0,0
1,note_on,64,34,120
1,note_on,68,34,0
1,note_on,76,40,0
1,note_on,76,0,920
1,note_on,68,0,0
1,note_on,64,0,0
1,note_on,68,26,40
1,note_on,64,26,0
1,note_on,76,31,0
1,note_on,76,0,840
1,note_on,64,0,0
1,note_on,68,0,0
1,note_on,63,38,120
1,note_on,69,38,0
1,note_on,78,38,0
1,note_on,78,0,470
1,note_on,69,0,0
1,note_on,63,0,0
1,note_on,66,31,10
1,note_on,69,31,0
1,note_on,75,31,0
1,note_on,75,0,470
1,note_on,69,0,0
1,note_on,66,0,0
1,note_on,66,36,10
1,note_on,71,36,0
1,note_on,71,0,470
1,note_on,66,0,0
1,note_on,64,31,10
1,note_on,69,31,0
1,note_on,69,0,470
1,note_on,64,0,0
1,note_on,64,29,10
1,note_on,68,35,0
1,note_on,68,0,920
1,note_on,64,0,0
1,note_on,64,19,40
1,note_on,68,23,0
1,note_on,68,0,840
1,note_on,64,0,0
1,note_on,63,37,120
1,note_on,78,37,0
1,note_on,69,37,0
1,note_on,69,0,470
1,note_on,78,0,0
1,note_on,63,0,0
1,note_on,75,30,10
1,note_on,69,30,0
1,note_on,66,30,0
1,note_on,66,0,470
1,note_on,69,0,0
1,note_on,75,0,0
1,note_on,66,35,10
1,note_on,71,35,0
1,note_on,71,0,470
1,note_on,66,0,0
1,note_on,64,30,10
1,note_on,69,30,0
1,note_on,69,0,470
1,note_on,64,0,0
1,note_on,68,35,10
1,note_on,64,29,0
1,note_on,64,0,920
1,note_on,68,0,0
1,note_on,64,19,40
1,note_on,68,23,0
1,note_on,68,0,840
1,note_on,64,0,0
1,note_on,64,35,120
1,note_on,64,0,470
1,note_on,64,26,10
1,note_on,68,31,0
1,note_on,68,0,470
1,note_on,64,0,0
1,note_on,64,29,10
1,note_on,66,35,0
1,note_on,66,0,470
1,note_on,64,0,0
1,note_on,68,33,10
1,note_on,64,27,0
1,note_on,64,0,470
1,note_on,68,0,0
1,note_on,64,28,10
1,note_on,71,34,0
1,note_on,71,0,920
1,note_on,64,0,0
1,note_on,64,18,40
1,note_on,70,24,0
1,note_on,70,0,240
1,note_on,64,0,0
1,note_on,88,44,720
1,note_on,83,44,0
1,note_on,76,44,0
1,note_on,76,0,920
1,note_on,83,0,0
1,note_on,88,0,0
1,note_on,81,27,40
1,note_on,88,27,0
1,note_on,76,27,0
1,note_on,76,0,440
1,note_on,88,0,0
1,note_on,81,0,0
1,note_on,69,34,520
1,note_on,64,34,0
1,note_on,64,0,920
1,note_on,69,0,0
1,note_on,64,24,40
1,note_on,68,24,0
1,note_on,68,0,440
1,note_on,64,0,0
1,note_on,88,42,520
1,note_on,81,42,0
1,note_on,76,42,0
1,note_on,76,0,920
1,note_on,81,0,0
1,note_on,88,0,0
1,note_on,76,26,40
1,note_on,79,26,0
1,note_on,88,26,0
1,note_on,88,0,440
1,note_on,79,0,0
1,note_on,76,0,0
1,note_on,64,88,520
1,note_on,60,70,0
1,note_on,54,70,0
1,note_on,66,88,0
1,note_on,66,0,920
1,note_on,64,0,0
1,note_on,60,0,0
1,note_on,54,0,0
1,note_on,64,69,40
1,note_on,60,55,0
1,note_on,54,55,0
1,note_on,66,69,0
1,note_on,66,0,440
1,note_on,64,0,0
1,note_on,60,0,0
1,note_on,54,0,0
1,note_on,76,46,520
1,note_on,73,46,0
1,note_on,78,55,0
1,note_on,78,0,470
1,note_on,73,0,0
1,note_on,76,0,0
1,note_on,71,37,10
1,note_on,76,37,0
1,note_on,80,46,0
1,note_on,80,0,470
1,note_on,76,0,0
1,note_on,71,0,0
1,note_on,69,42,10
1,note_on,76,42,0
1,note_on,81,50,0
1,note_on,81,0,470
1,note_on,76,0,0
1,note_on,69,0,0
1,note_on,76,37,10
1,note_on,71,37,0
1,note_on,80,46,0
1,note_on,80,0,470
1,note_on,71,0,0
1,note_on,76,0,0
1,note_on,76,50,10
1,note_on,71,50,0
1,note_on,83,50,0
1,note_on,83,0,920
1,note_on,71,0,0
1,note_on,76,0,0
1,note_on,71,26,40
1,note_on,83,26,0
1,note_on,75,33,0
1,note_on,75,0,440
1,note_on,83,0,0
1,note_on,71,0,0
1,note_on,64,30,520
1,note_on,68,37,0
1,note_on,68,0,920
1,note_on,64,0,0
1,note_on,64,23,40
1,note_on,68,23,0
1,note_on,68,0,440
1,note_on,64,0,0
1,note_on,54,72,520
1,note_on,66,91,0
1,note_on,64,91,0
1,note_on,60,72,0
1,note_on,60,0,920
1,note_on,54,0,0
1,note_on,66,0,0
1,note_on,64,0,0
1,note_on,60,52,40
1,note_on,54,52,0
1,note_on,64,67,0
1,note_on,66,67,0
1,note_on,66,0,440
1,note_on,60,0,0
1,note_on,54,0,0
1,note_on,64,0,0
1,note_on,73,46,520
1,note_on,76,46,0
1,note_on,78,55,0
1,note_on,78,0,470
1,note_on,76,0,0
1,note_on,73,0,0
1,note_on,80,49,10
1,note_on,71,41,0
1,note_on,76,41,0
1,note_on,76,0,470
1,note_on,71,0,0
1,note_on,80,0,0
1,note_on,81,53,10
1,note_on,76,44,0
1,note_on,69,44,0
1,note_on,69,0,470
1,note_on,76,0,0
1,note_on,81,0,0
1,note_on,71,39,10
1,note_on,76,39,0
1,note_on,80,47,0
1,note_on,80,0,470
1,note_on,76,0,0
1,note_on,71,0,0
1,note_on,83,50,10
1,note_on,76,50,0
1,note_on,71,42,0
1,note_on,71,0,920
1,note_on,76,0,0
1,note_on,83,0,0
1,note_on,75,33,40
1,note_on,83,27,0
1,note_on,71,26,0
1,note_on,71,0,440
1,note_on,83,0,0
1,note_on,75,0,0
1,note_on,64,103,520
1,note_on,52,103,0
1,note_on,52,0,920
1,note_on,64,0,0
1,note_on,52,47,40
1,note_on,64,66,0
1,note_on,64,0,440
1,note_on,52,0,0
1,note_on,56,36,520
1,note_on,59,36,0
1,note_on,59,0,470
1,note_on,56,0,0
1,note_on,68,30,10
1,note_on,56,30,0
1,note_on,56,0,470
1,note_on,68,0,0
1,note_on,56,37,10
1,note_on,66,37,0
1,note_on,66,0,470
1,note_on,56,0,0
1,note_on,56,30,10
1,note_on,68,30,0
1,note_on,68,0,470
1,note_on,56,0,0
1,note_on,68,39,10
1,note_on,71,39,0
1,note_on,60,24,0
1,note_on,60,0,920
1,note_on,71,0,0
1,note_on,68,0,0
1,note_on,66,23,40
1,note_on,60,22,0
1,note_on,69,23,0
1,note_on,69,0,240
1,note_on,60,0,0
1,note_on,66,0,0
1,note_on,68,39,720
1,note_on,71,39,0
1,note_on,59,29,0
1,note_on,59,0,920
1,note_on,71,0,0
1,note_on,68,0,0
1,note_on,59,19,40
1,note_on,66,23,0
1,note_on,69,23,0
1,note_on,69,0,240
1,note_on,66,0,0
1,note_on,59,0,0
1,note_on,76,103,720
1,note_on,64,103,0
1,note_on,64,0,920
1,note_on,76,0,0
1,note_on,76,68,40
1,note_on,64,60,0
1,note_on,64,0,440
1,note_on,76,0,0
1,note_on,59,38,520
1,note_on,56,38,0
1,note_on,56,0,470
1,note_on,59,0,0
1,note_on,56,31,10
1,note_on,68,31,0
1,note_on,68,0,470
1,note_on,56,0,0
1,note_on,56,38,10
1,note_on,66,38,0
1,note_on,66,0,470
1,note_on,56,0,0
1,note_on,56,31,10
1,note_on,68,31,0
1,note_on,68,0,470
1,note_on,56,0,0
1,note_on,69,44,10
1,note_on,61,37,0
1,note_on,73,44,0
1,note_on,73,0,920
1,note_on,61,0,0
1,note_on,69,0,0
1,note_on,61,23,40
1,note_on,66,26,0
1,note_on,69,26,0
1,note_on,69,0,240
1,note_on,66,0,0
1,note_on,61,0,0
1,note_on,68,41,720
1,note_on,71,41,0
1,note_on,59,35,0
1,note_on,59,0,920
1,note_on,71,0,0
1,note_on,68,0,0
1,note_on,66,29,40
1,note_on,59,27,0
1,note_on,69,29,0
1,note_on,69,0,240
1,note_on,59,0,0
1,note_on,66,0,0
1,note_on,64,35,720
1,note_on,69,41,0
1,note_on,59,35,0
1,note_on,59,0,920
1,note_on,69,0,0
1,note_on,64,0,0
1,note_on,67,29,40
1,note_on,59,26,0
1,note_on,64,26,0
1,note_on,64,0,240
1,note_on,59,0,0
1,note_on,67,0,0
1,note_on,57,36,720
1,note_on,67,42,0
1,note_on,60,36,0
1,note_on,60,0,920
1,note_on,67,0,0
1,note_on,57,0,0
1,note_on,60,26,40
1,note_on,57,27,0
1,note_on,65,29,0
1,note_on,65,0,240
1,note_on,57,0,0
1,note_on,60,0,0
1,note_on,55,36,720
1,note_on,65,42,0
1,note_on,60,36,0
1,note_on,60,0,920
1,note_on,65,0,0
1,note_on,55,0,0
1,note_on,64,29,40
1,note_on,60,26,0
1,note_on,55,26,0
1,note_on,55,0,240
1,note_on,60,0,0
1,note_on,64,0,0
1,note_on,64,42,720
1,note_on,57,36,0
1,note_on,53,36,0
1,note_on,53,0,920
1,note_on,57,0,0
1,note_on,64,0,0
1,note_on,62,29,40
1,note_on,57,25,0
1,note_on,53,25,0
1,note_on,53,0,240
1,note_on,57,0,0
1,note_on,62,0,0
1,note_on,52,35,720
1,note_on,62,41,0
1,note_on,57,35,0
1,note_on,57,0,920
1,note_on,62,0,0
1,note_on,52,0,0
1,note_on,60,29,40
1,note_on,57,24,0
1,note_on,57,0,240
1,note_on,60,0,0
1,note_on,59,41,4560
1,note_on,57,29,0
1,note_on,57,0,920
1,note_on,59,0,0
1,note_on,59,29,40
1,note_on,56,29,0
1,note_on,56,0,440
1,note_on,59,0,0
1,note_on,69,50,4360
1,note_on,69,0,960
1,note_on,76,50,0
1,note_on,76,0,960
1,note_on,75,53,0
1,note_on,75,0,960
1,note_on,76,47,0
1,note_on,76,0,200
1,note_on,72,49,280
1,note_on,71,47,360
1,note_on,72,0,20
1,note_on,69,48,100
1,note_on,71,0,20
1,note_on,69,0,940
1,note_on,56,59,0
1,note_on,59,59,0
1,note_on,64,59,0
1,note_on,64,0,960
1,note_on,59,0,0
1,note_on,56,0,0
1,note_on,60,52,0
1,note_on,60,0,960
1,note_on,57,51,0
1,note_on,57,0,180
1,note_on,57,50,780
1,note_on,57,0,960
1,note_on,57,63,0
1,note_on,65,63,0
1,note_on,65,0,960
1,note_on,57,0,0
1,note_on,58,70,0
1,note_on,67,70,0
1,note_on,67,0,960
1,note_on,58,0,0
1,note_on,57,54,0
1,note_on,65,54,0
1,note_on,65,0,200
1,note_on,57,0,0
1,note_on,57,51,280
1,note_on,59,54,360
1,note_on,57,0,20
1,note_on,60,52,100
1,note_on,59,0,20
1,note_on,60,0,940
1,note_on,52,62,0
1,note_on,56,62,0
1,note_on,59,62,0
1,note_on,64,62,0
1,note_on,64,0,960
1,note_on,52,0,0
1,note_on,56,0,0
1,note_on,59,0,0
1,note_on,48,50,0
1,note_on,60,50,0
1,note_on,60,0,960
1,note_on,48,0,0
1,note_on,45,50,0
1,note_on,57,50,0
1,note_on,57,0,200
1,note_on,45,0,0
1,note_on,57,52,4120
1,note_on,57,0,960
1,note_on,62,46,0
1,note_on,62,0,480
1,note_on,64,49,0
1,note_on,64,0,480
1,note_on,65,47,0
1,note_on,65,0,480
1,note_on,64,50,0
1,note_on,64,0,960
1,note_on,57,46,0
1,note_on,57,0,200
1,note_on,67,47,280
1,note_on,67,0,480
1,note_on,65,47,0
1,note_on,65,0,960
1,note_on,57,48,0
1,note_on,57,0,200
1,note_on,65,45,280
1,note_on,65,0,480
1,note_on,64,50,0
1,note_on,64,0,960
1,note_on,57,48,0
1,note_on,57,0,200
1,note_on,57,56,280
1,note_on,69,56,0
1,note_on,57,0,477
1,note_on,69,0,483
1,note_on,62,57,0
1,note_on,74,57,0
1,note_on,74,0,480
1,note_on,62,0,0
1,note_on,64,60,0
1,note_on,76,60,0
1,note_on,76,0,480
1,note_on,64,0,0
1,note_on,65,56,0
1,note_on,77,56,0
1,note_on,77,0,480
1,note_on,65,0,0
1,note_on,64,60,0
1,note_on,76,60,0
1,note_on,76,0,960
1,note_on,64,0,0
1,note_on,57,56,0
1,note_on,69,56,0
1,note_on,69,0,200
1,note_on,57,0,0
1,note_on,64,68,280
1,note_on,76,68,0
1,note_on,76,0,960
1,note_on,64,0,0
1,note_on,67,74,0
1,note_on,79,74,0
1,note_on,79,0,480
1,note_on,67,0,0
1,note_on,69,77,0
1,note_on,81,77,0
1,note_on,81,0,480
1,note_on,69,0,0
1,note_on,71,73,0
1,note_on,83,73,0
1,note_on,83,0,480
1,note_on,71,0,0
1,note_on,71,85,0
1,note_on,83,85,0
1,note_on,83,0,880
1,note_on,71,0,0
1,note_on,71,71,80
1,note_on,83,71,0
1,note_on,83,0,880
1,note_on,71,0,0
1,note_on,67,57,80
1,note_on,79,57,0
1,note_on,79,0,960
1,note_on,67,0,0
1,note_on,64,53,0
1,note_on,76,53,0
1,note_on,76,0,200
1,note_on,64,0,0
1,note_on,59,41,760
1,note_on,71,41,0
1,note_on,71,0,880
1,note_on,59,0,0
1,note_on,59,37,80
1,note_on,71,37,0
1,note_on,71,0,880
1,note_on,59,0,0
1,note_on,55,37,80
1,note_on,67,37,0
1,note_on,67,0,960
1,note_on,55,0,0
1,note_on,52,33,0
1,note_on,64,33,0
1,note_on,64,0,200
1,note_on,52,0,0
1,note_on,55,37,760
1,note_on,67,37,0
1,note_on,67,0,960
1,note_on,55,0,0
1,note_on,52,33,0
1,note_on,64,33,0
1,note_on,64,0,120
1,note_on,52,0,0
1,note_on,65,48,840
1,note_on,53,48,0
1,note_on,53,0,960
1,note_on,65,0,0
1,note_on,50,43,0
1,note_on,62,43,0
1,note_on,62,0,120
1,note_on,50,0,0
1,note_on,64,58,840
1,note_on,52,58,0
1,note_on,52,0,960
1,note_on,64,0,0
1,note_on,48,50,0
1,note_on,60,50,0
1,note_on,60,0,120
1,note_on,48,0,0
1,note_on,50,73,840
1,note_on,62,73,0
1,note_on,62,0,960
1,note_on,50,0,0
1,note_on,47,67,0
1,note_on,59,67,0
1,note_on,59,0,120
1,note_on,47,0,0
1,note_on,57,98,840
1,note_on,69,98,0
1,note_on,69,0,960
1,note_on,57,0,0
1,note_on,64,88,0
1,note_on,76,88,0
1,note_on,76,0,960
1,note_on,64,0,0
1,note_on,63,84,0
1,note_on,75,84,0
1,note_on,75,0,960
1,note_on,63,0,0
1,note_on,76,77,0
1,note_on,64,77,0
1,note_on,64,0,240
1,note_on,76,0,0
1,note_on,64,67,240
1,note_on,72,80,0
1,note_on,72,0,240
1,note_on,64,0,0
1,note_on,64,63,120
1,note_on,71,73,0
1,note_on,71,0,90
1,note_on,64,0,0
1,note_on,64,67,30
1,note_on,69,80,0
1,note_on,69,0,240
1,note_on,64,0,0
1,note_on,62,63,120
1,note_on,67,73,0
1,note_on,67,0,90
1,note_on,62,0,0
1,note_on,60,63,30
1,note_on,65,72,0
1,note_on,65,0,240
1,note_on,60,0,0
1,note_on,59,58,120
1,note_on,64,70,0
1,note_on,64,0,90
1,note_on,59,0,0
1,note_on,60,64,30
1,note_on,65,75,0
1,note_on,65,0,240
1,note_on,60,0,0
1,note_on,59,57,120
1,note_on,64,70,0
1,note_on,64,0,90
1,note_on,59,0,0
1,note_on,57,64,30
1,note_on,62,75,0
1,note_on,62,0,240
1,note_on,57,0,0
1,note_on,55,58,120
1,note_on,61,70,0
1,note_on,61,0,90
1,note_on,55,0,0
1,note_on,57,78,30
1,note_on,62,78,0
1,note_on,62,0,240
1,note_on,57,0,0
1,note_on,59,63,120
1,note_on,64,73,0
1,note_on,64,0,90
1,note_on,59,0,0
1,note_on,60,78,30
1,note_on,65,78,0
1,note_on,65,0,240
1,note_on,60,0,0
1,note_on,62,63,120
1,note_on,68,73,0
1,note_on,68,0,90
1,note_on,62,0,0
1,note_on,64,70,30
1,note_on,69,84,0
1,note_on,69,0,240
1,note_on,64,0,0
1,note_on,64,67,120
1,note_on,71,80,0
1,note_on,71,0,90
1,note_on,64,0,0
1,note_on,64,71,30
1,note_on,69,86,0
1,note_on,69,0,120
1,note_on,64,0,0
1,note_on,57,97,360
1,note_on,57,0,960
1,note_on,57,85,0
1,note_on,65,85,0
1,note_on,69,85,0
1,note_on,69,0,960
1,note_on,65,0,0
1,note_on,57,0,0
1,note_on,67,90,0
1,note_on,58,90,0
1,note_on,70,90,0
1,note_on,70,0,960
1,note_on,58,0,0
1,note_on,67,0,0
1,note_on,57,80,0
1,note_on,69,80,0
1,note_on,65,80,0
1,note_on,65,0,240
1,note_on,69,0,0
1,note_on,57,0,0
1,note_on,69,73,240
1,note_on,77,89,0
1,note_on,77,0,240
1,note_on,69,0,0
1,note_on,69,70,120
1,note_on,76,84,0
1,note_on,76,0,90
1,note_on,69,0,0
1,note_on,69,67,30
1,note_on,74,80,0
1,note_on,74,0,240
1,note_on,69,0,0
1,note_on,67,63,120
1,note_on,72,73,0
1,note_on,72,0,90
1,note_on,67,0,0
1,note_on,65,63,30
1,note_on,70,72,0
1,note_on,70,0,240
1,note_on,65,0,0
1,note_on,64,58,120
1,note_on,69,70,0
1,note_on,69,0,90
1,note_on,64,0,0
1,note_on,65,73,30
1,note_on,70,73,0
1,note_on,70,0,240
1,note_on,65,0,0
1,note_on,64,57,120
1,note_on,69,70,0
1,note_on,69,0,90
1,note_on,64,0,0
1,note_on,62,72,30
1,note_on,67,72,0
1,note_on,67,0,240
1,note_on,62,0,0
1,note_on,60,58,120
1,note_on,66,70,0
1,note_on,66,0,90
1,note_on,60,0,0
1,note_on,62,76,30
1,note_on,67,76,0
1,note_on,67,0,240
1,note_on,62,0,0
1,note_on,64,63,120
1,note_on,69,73,0
1,note_on,69,0,90
1,note_on,64,0,0
1,note_on,65,77,30
1,note_on,70,77,0
1,note_on,70,0,240
1,note_on,65,0,0
1,note_on,67,63,120
1,note_on,73,73,0
1,note_on,73,0,90
1,note_on,67,0,0
1,note_on,69,79,30
1,note_on,74,79,0
1,note_on,74,0,240
1,note_on,69,0,0
1,note_on,69,67,120
1,note_on,76,80,0
1,note_on,76,0,90
1,note_on,69,0,0
1,note_on,69,71,30
1,note_on,74,86,0
1,note_on,74,0,120
1,note_on,69,0,0
1,note_on,62,83,3720
1,note_on,74,93,0
1,note_on,74,0,960
1,note_on,62,0,0
1,note_on,67,80,0
1,note_on,79,89,0
1,note_on,79,0,480
1,note_on,67,0,0
1,note_on,69,84,0
1,note_on,81,94,0
1,note_on,81,0,480
1,note_on,69,0,0
1,note_on,70,81,0
1,note_on,82,91,0
1,note_on,82,0,480
1,note_on,70,0,0
1,note_on,69,83,0
1,note_on,81,93,0
1,note_on,81,0,960
1,note_on,69,0,0
1,note_on,62,76,0
1,note_on,74,85,0
1,note_on,74,0,200
1,note_on,62,0,0
1,note_on,72,87,280
1,note_on,84,97,0
1,note_on,84,0,480
1,note_on,72,0,0
1,note_on,70,87,0
1,note_on,82,97,0
1,note_on,82,0,960
1,note_on,70,0,0
1,note_on,62,82,0
1,note_on,74,92,0
1,note_on,74,0,200
1,note_on,62,0,0
1,note_on,70,87,280
1,note_on,82,97,0
1,note_on,82,0,480
1,note_on,70,0,0
1,note_on,69,82,0
1,note_on,81,92,0
1,note_on,81,0,960
1,note_on,69,0,0
1,note_on,62,75,0
1,note_on,74,84,0
1,note_on,74,0,200
1,note_on,62,0,0
1,note_on,62,87,280
1,note_on,74,97,0
1,note_on,74,0,960
1,note_on,62,0,0
1,note_on,67,82,0
1,note_on,79,92,0
1,note_on,79,0,480
1,note_on,67,0,0
1,note_on,69,87,0
1,note_on,81,97,0
1,note_on,81,0,480
1,note_on,69,0,0
1,note_on,70,82,0
1,note_on,82,92,0
1,note_on,82,0,480
1,note_on,70,0,0
1,note_on,69,89,0
1,note_on,81,99,0
1,note_on,81,0,960
1,note_on,69,0,0
1,note_on,62,75,0
1,note_on,74,84,0
1,note_on,74,0,200
1,note_on,62,0,0
1,note_on,69,85,280
1,note_on,81,95,0
1,note_on,81,0,960
1,note_on,69,0,0
1,note_on,84,92,0
1,note_on,72,82,0
1,note_on,72,0,480
1,note_on,84,0,0
1,note_on,74,91,0
1,note_on,86,102,0
1,note_on,86,0,480
1,note_on,74,0,0
1,note_on,76,94,0
1,note_on,88,105,0
1,note_on,88,0,480
1,note_on,76,0,0
1,note_on,88,107,0
1,note_on,76,96,0
1,note_on,76,0,920
1,note_on,88,0,0
1,note_on,76,84,40
1,note_on,88,94,0
1,note_on,88,0,920
1,note_on,76,0,0
1,note_on,84,89,40
1,note_on,72,80,0
1,note_on,72,0,960
1,note_on,84,0,0
1,note_on,81,81,0
1,note_on,69,72,0
1,note_on,69,0,200
1,note_on,81,0,0
1,note_on,64,48,760
1,note_on,76,48,0
1,note_on,76,0,920
1,note_on,64,0,0
1,note_on,64,48,40
1,note_on,76,48,0
1,note_on,76,0,920
1,note_on,64,0,0
1,note_on,60,45,40
1,note_on,72,45,0
1,note_on,72,0,960
1,note_on,60,0,0
1,note_on,57,41,0
1,note_on,69,41,0
1,note_on,69,0,180
1,note_on,57,0,0
1,note_on,58,34,780
1,note_on,70,34,0
1,note_on,70,0,960
1,note_on,58,0,0
1,note_on,55,25,0
1,note_on,67,25,0
1,note_on,67,0,180
1,note_on,55,0,0
1,note_on,58,31,780
1,note_on,70,31,0
1,note_on,70,0,960
1,note_on,58,0,0
1,note_on,55,25,0
1,note_on,67,25,0
1,note_on,67,0,180
1,note_on,55,0,0
1,note_on,58,31,780
1,note_on,70,31,0
1,note_on,70,0,960
1,note_on,58,0,0
1,note_on,55,24,0
1,note_on,67,24,0
1,note_on,67,0,180
1,note_on,55,0,0
1,note_on,58,34,780
1,note_on,70,34,0
1,note_on,70,0,960
1,note_on,58,0,0
1,note_on,55,29,0
1,note_on,67,29,0
1,note_on,67,0,180
1,note_on,55,0,0
1,note_on,59,80,780
1,note_on,59,0,120
1,note_on,71,76,0
1,note_on,71,0,120
1,note_on,59,72,0
1,note_on,59,0,120
1,note_on,71,67,0
1,note_on,71,0,120
1,note_on,59,63,0
1,note_on,59,0,120
1,note_on,71,60,0
1,note_on,71,0,120
1,note_on,59,57,0
1,note_on,59,0,120
1,note_on,71,54,0
1,note_on,71,0,120
1,note_on,59,60,0
1,note_on,59,0,120
1,note_on,71,57,0
1,note_on,71,0,120
1,note_on,59,55,0
1,note_on,59,0,120
1,note_on,71,52,0
1,note_on,71,0,120
1,note_on,59,58,0
1,note_on,59,0,120
1,note_on,71,56,0
1,note_on,71,0,120
1,note_on,59,54,0
1,note_on,59,0,120
1,note_on,71,51,0
1,note_on,71,0,120
1,note_on,56,80,0
1,note_on,56,0,120
1,note_on,68,75,0
1,note_on,68,0,120
1,note_on,56,69,0
1,note_on,56,0,120
1,note_on,68,65,0
1,note_on,68,0,120
1,note_on,56,61,0
1,note_on,56,0,120
1,note_on,68,60,0
1,note_on,68,0,120
1,note_on,56,59,0
1,note_on,56,0,120
1,note_on,68,58,0
1,note_on,68,0,120
1,note_on,56,69,0
1,note_on,56,0,120
1,note_on,68,68,0
1,note_on,68,0,120
1,note_on,56,66,0
1,note_on,56,0,120
1,note_on,68,63,0
1,note_on,68,0,120
1,note_on,56,73,0
1,note_on,56,0,120
1,note_on,68,70,0
1,note_on,68,0,120
1,note_on,56,67,0
1,note_on,56,0,120
1,note_on,68,64,0
1,note_on,68,0,120
1,note_on,71,99,0
1,note_on,83,99,0
1,note_on,83,0,480
1,note_on,71,0,0
1,note_on,68,90,0
1,note_on,80,90,0
1,note_on,80,0,180
1,note_on,68,0,0
1,note_on,83,96,300
1,note_on,71,96,0
1,note_on,71,0,480
1,note_on,83,0,0
1,note_on,88,90,0
1,note_on,76,90,0
1,note_on,76,0,180
1,note_on,88,0,0
1,note_on,71,89,300
1,note_on,83,89,0
1,note_on,83,0,480
1,note_on,71,0,0
1,note_on,80,82,0
1,note_on,68,82,0
1,note_on,68,0,180
1,note_on,80,0,0
1,note_on,64,65,300
1,note_on,76,65,0
1,note_on,76,0,480
1,note_on,64,0,0
1,note_on,59,53,0
1,note_on,71,53,0
1,note_on,71,0,180
1,note_on,59,0,0
1,note_on,56,34,300
1,note_on,64,34,0
1,note_on,68,34,0
1,note_on,68,0,1920
1,note_on,64,0,0
1,note_on,56,0,0
1,note_on,63,38,0
1,note_on,57,38,0
1,note_on,71,38,0
1,note_on,71,0,1920
1,note_on,57,0,0
1,note_on,63,0,0
1,note_on,59,93,0
1,note_on,59,0,120
1,note_on,71,87,0
1,note_on,71,0,120
1,note_on,59,81,0
1,note_on,59,0,120
1,note_on,71,75,0
1,note_on,71,0,120
1,note_on,56,91,0
1,note_on,56,0,120
1,note_on,68,86,0
1,note_on,68,0,120
1,note_on,56,81,0
1,note_on,56,0,120
1,note_on,68,75,0
1,note_on,68,0,120
1,note_on,59,84,0
1,note_on,59,0,120
1,note_on,71,80,0
1,note_on,71,0,120
1,note_on,59,77,0
1,note_on,59,0,120
1,note_on,71,73,0
1,note_on,71,0,120
1,note_on,64,88,0
1,note_on,64,0,120
1,note_on,76,85,0
1,note_on,76,0,120
1,note_on,64,83,0
1,note_on,64,0,120
1,note_on,76,80,0
1,note_on,76,0,120
1,note_on,68,91,0
1,note_on,68,0,120
1,note_on,80,88,0
1,note_on,80,0,120
1,note_on,68,86,0
1,note_on,68,0,120
1,note_on,80,83,0
1,note_on,80,0,120
1,note_on,71,94,0
1,note_on,71,0,120
1,note_on,83,91,0
1,note_on,83,0,120
1,note_on,71,88,0
1,note_on,71,0,120
1,note_on,83,84,0
1,note_on,83,0,120
1,note_on,76,102,0
1,note_on,76,0,120
1,note_on,88,96,0
1,note_on,88,0,120
1,note_on,76,90,0
1,note_on,76,0,120
1,note_on,88,84,0
1,note_on,88,0,120
1,note_on,71,82,0
1,note_on,71,0,120
1,note_on,83,71,0
1,note_on,83,0,120
1,note_on,71,68,0
1,note_on,71,0,120
1,note_on,83,64,0
1,note_on,83,0,120
1,note_on,64,35,0
1,note_on,56,35,0
1,note_on,68,35,0
1,note_on,68,0,1920
1,note_on,56,0,0
1,note_on,64,0,0
1,note_on,63,36,0
1,note_on,57,36,0
1,note_on,71,43,0
1,note_on,71,0,1920
1,note_on,57,0,0
1,note_on,63,0,0
1,note_on,56,34,0
1,note_on,64,40,0
1,note_on,64,0,920
1,note_on,56,0,0
1,note_on,56,23,40
1,note_on,64,27,0
1,note_on,64,0,840
1,note_on,56,0,0
1,note_on,64,39,120
1,note_on,56,39,0
1,note_on,56,0,470
1,note_on,64,0,0
1,note_on,56,34,10
1,note_on,68,34,0
1,note_on,68,0,470
1,note_on,56,0,0
1,note_on,56,38,10
1,note_on,66,38,0
1,note_on,66,0,470
1,note_on,56,0,0
1,note_on,56,35,10
1,note_on,68,35,0
1,note_on,68,0,470
1,note_on,56,0,0
1,note_on,57,39,10
1,note_on,61,39,0
1,note_on,61,0,920
1,note_on,57,0,0
1,note_on,57,25,40
1,note_on,61,25,0
1,note_on,61,0,840
1,note_on,57,0,0
1,note_on,57,38,120
1,note_on,61,38,0
1,note_on,61,0,470
1,note_on,57,0,0
1,note_on,57,31,10
1,note_on,59,31,0
1,note_on,66,31,0
1,note_on,66,0,470
1,note_on,59,0,0
1,note_on,57,0,0
1,note_on,57,37,10
1,note_on,59,37,0
1,note_on,64,37,0
1,note_on,64,0,470
1,note_on,59,0,0
1,note_on,57,0,0
1,note_on,57,29,10
1,note_on,66,29,0
1,note_on,59,29,0
1,note_on,59,0,470
1,note_on,66,0,0
1,note_on,57,0,0
1,note_on,56,36,10
1,note_on,59,36,0
1,note_on,59,0,920
1,note_on,56,0,0
1,note_on,56,24,40
1,note_on,64,29,0
1,note_on,64,0,840
1,note_on,56,0,0
1,note_on,56,46,120
1,note_on,64,46,0
1,note_on,64,0,470
1,note_on,56,0,0
1,note_on,56,36,10
1,note_on,68,36,0
1,note_on,68,0,470
1,note_on,56,0,0
1,note_on,66,45,10
1,note_on,56,45,0
1,note_on,56,0,470
1,note_on,66,0,0
1,note_on,56,39,10
1,note_on,68,39,0
1,note_on,68,0,470
1,note_on,56,0,0
1,note_on,57,42,10
1,note_on,69,42,0
1,note_on,64,42,0
1,note_on,64,0,920
1,note_on,69,0,0
1,note_on,57,0,0
1,note_on,69,37,40
1,note_on,57,37,0
1,note_on,64,37,0
1,note_on,64,0,840
1,note_on,57,0,0
1,note_on,69,0,0
1,note_on,69,40,120
1,note_on,61,40,0
1,note_on,73,48,0
1,note_on,73,0,920
1,note_on,61,0,0
1,note_on,69,0,0
1,note_on,73,48,40
1,note_on,61,40,0
1,note_on,69,40,0
1,note_on,61,0,470
1,note_on,69,0,450
1,note_on,73,0,0
1,note_on,64,34,40
1,note_on,76,40,0
1,note_on,68,34,0
1,note_on,68,0,920
1,note_on,76,0,0
1,note_on,64,0,0
1,note_on,68,23,40
1,note_on,64,23,0
1,note_on,76,27,0
1,note_on,76,0,840
1,note_on,64,0,0
1,note_on,68,0,0
1,note_on,69,38,120
1,note_on,78,38,0
1,note_on,63,38,0
1,note_on,63,0,470
1,note_on,78,0,0
1,note_on,69,0,0
1,note_on,75,31,10
1,note_on,69,31,0
1,note_on,66,31,0
1,note_on,66,0,470
1,note_on,69,0,0
1,note_on,75,0,0
1,note_on,71,36,10
1,note_on,66,36,0
1,note_on,66,0,470
1,note_on,71,0,0
1,note_on,69,31,10
1,note_on,64,31,0
1,note_on,64,0,470
1,note_on,69,0,0
1,note_on,64,29,10
1,note_on,68,35,0
1,note_on,68,0,920
1,note_on,64,0,0
1,note_on,64,19,40
1,note_on,68,23,0
1,note_on,68,0,840
1,note_on,64,0,0
1,note_on,78,37,120
1,note_on,69,37,0
1,note_on,63,37,0
1,note_on,63,0,470
1,note_on,69,0,0
1,note_on,78,0,0
1,note_on,66,30,10
1,note_on,75,30,0
1,note_on,69,30,0
1,note_on,69,0,470
1,note_on,75,0,0
1,note_on,66,0,0
1,note_on,66,35,10
1,note_on,71,35,0
1,note_on,71,0,470
1,note_on,66,0,0
1,note_on,64,30,10
1,note_on,69,30,0
1,note_on,69,0,470
1,note_on,64,0,0
1,note_on,64,29,10
1,note_on,68,35,0
1,note_on,68,0,920
1,note_on,64,0,0
1,note_on,64,19,40
1,note_on,68,23,0
1,note_on,68,0,840
1,note_on,64,0,0
1,note_on,64,35,120
1,note_on,64,0,470
1,note_on,64,26,10
1,note_on,68,31,0
1,note_on,68,0,470
1,note_on,64,0,0
1,note_on,64,29,10
1,note_on,66,35,0
1,note_on,66,0,470
1,note_on,64,0,0
1,note_on,68,33,10
1,note_on,64,27,0
1,note_on,64,0,470
1,note_on,68,0,0
1,note_on,64,28,10
1,note_on,71,34,0
1,note_on,71,0,920
1,note_on,64,0,0
1,note_on,64,18,40
1,note_on,70,24,0
1,note_on,70,0,240
1,note_on,64,0,0
1,note_on,76,41,720
1,note_on,83,41,0
1,note_on,88,41,0
1,note_on,88,0,920
1,note_on,83,0,0
1,note_on,76,0,0
1,note_on,76,25,40
1,note_on,88,25,0
1,note_on,81,25,0
1,note_on,81,0,440
1,note_on,88,0,0
1,note_on,76,0,0
1,note_on,64,34,520
1,note_on,69,34,0
1,note_on,69,0,920
1,note_on,64,0,0
1,note_on,64,24,40
1,note_on,68,24,0
1,note_on,68,0,440
1,note_on,64,0,0
1,note_on,76,42,520
1,note_on,88,42,0
1,note_on,81,42,0
1,note_on,81,0,920
1,note_on,88,0,0
1,note_on,76,0,0
1,note_on,76,25,40
1,note_on,79,25,0
1,note_on,88,25,0
1,note_on,88,0,440
1,note_on,79,0,0
1,note_on,76,0,0
1,note_on,60,78,520
1,note_on,66,86,0
1,note_on,64,86,0
1,note_on,54,78,0
1,note_on,54,0,920
1,note_on,60,0,0
1,note_on,66,0,0
1,note_on,64,0,0
1,note_on,54,59,40
1,note_on,64,67,0
1,note_on,60,59,0
1,note_on,66,67,0
1,note_on,66,0,440
1,note_on,54,0,0
1,note_on,64,0,0
1,note_on,60,0,0
1,note_on,73,46,520
1,note_on,76,46,0
1,note_on,78,55,0
1,note_on,78,0,470
1,note_on,76,0,0
1,note_on,73,0,0
1,note_on,76,37,10
1,note_on,80,46,0
1,note_on,71,37,0
1,note_on,71,0,470
1,note_on,80,0,0
1,note_on,76,0,0
1,note_on,81,50,10
1,note_on,69,42,0
1,note_on,76,42,0
1,note_on,76,0,470
1,note_on,69,0,0
1,note_on,81,0,0
1,note_on,76,37,10
1,note_on,80,46,0
1,note_on,71,37,0
1,note_on,71,0,470
1,note_on,80,0,0
1,note_on,76,0,0
1,note_on,76,50,10
1,note_on,71,50,0
1,note_on,83,50,0
1,note_on,83,0,920
1,note_on,71,0,0
1,note_on,76,0,0
1,note_on,83,26,40
1,note_on,71,26,0
1,note_on,75,33,0
1,note_on,75,0,440
1,note_on,71,0,0
1,note_on,83,0,0
1,note_on,64,30,520
1,note_on,68,37,0
1,note_on,68,0,920
1,note_on,64,0,0
1,note_on,68,23,40
1,note_on,64,23,0
1,note_on,64,0,440
1,note_on,68,0,0
1,note_on,54,79,520
1,note_on,66,89,0
1,note_on,60,79,0
1,note_on,64,89,0
1,note_on,64,0,920
1,note_on,54,0,0
1,note_on,66,0,0
1,note_on,60,0,0
1,note_on,54,59,40
1,note_on,60,59,0
1,note_on,66,67,0
1,note_on,64,67,0
1,note_on,64,0,440
1,note_on,54,0,0
1,note_on,60,0,0
1,note_on,66,0,0
1,note_on,76,46,520
1,note_on,78,55,0
1,note_on,73,46,0
1,note_on,73,0,470
1,note_on,78,0,0
1,note_on,76,0,0
1,note_on,71,41,10
1,note_on,80,49,0
1,note_on,76,41,0
1,note_on,76,0,470
1,note_on,80,0,0
1,note_on,71,0,0
1,note_on,69,44,10
1,note_on,76,44,0
1,note_on,81,53,0
1,note_on,81,0,470
1,note_on,76,0,0
1,note_on,69,0,0
1,note_on,71,39,10
1,note_on,76,39,0
1,note_on,80,47,0
1,note_on,80,0,470
1,note_on,76,0,0
1,note_on,71,0,0
1,note_on,83,50,10
1,note_on,71,42,0
1,note_on,76,50,0
1,note_on,76,0,920
1,note_on,71,0,0
1,note_on,83,0,0
1,note_on,71,26,40
1,note_on,83,27,0
1,note_on,75,33,0
1,note_on,75,0,440
1,note_on,83,0,0
1,note_on,71,0,0
1,note_on,64,104,520
1,note_on,52,104,0
1,note_on,52,0,920
1,note_on,64,0,0
1,note_on,52,74,40
1,note_on,64,83,0
1,note_on,64,0,440
1,note_on,52,0,0
1,note_on,56,36,520
1,note_on,59,36,0
1,note_on,59,0,470
1,note_on,56,0,0
1,note_on,56,30,10
1,note_on,68,30,0
1,note_on,68,0,470
1,note_on,56,0,0
1,note_on,66,37,10
1,note_on,56,37,0
1,note_on,56,0,470
1,note_on,66,0,0
1,note_on,56,30,10
1,note_on,68,30,0
1,note_on,68,0,470
1,note_on,56,0,0
1,note_on,71,39,10
1,note_on,68,39,0
1,note_on,60,24,0
1,note_on,60,0,920
1,note_on,68,0,0
1,note_on,71,0,0
1,note_on,69,23,40
1,note_on,60,22,0
1,note_on,66,23,0
1,note_on,66,0,240
1,note_on,60,0,0
1,note_on,69,0,0
1,note_on,59,29,720
1,note_on,68,39,0
1,note_on,71,39,0
1,note_on,71,0,920
1,note_on,68,0,0
1,note_on,59,0,0
1,note_on,59,19,40
1,note_on,66,23,0
1,note_on,69,23,0
1,note_on,69,0,240
1,note_on,66,0,0
1,note_on,59,0,0
1,note_on,64,105,720
1,note_on,76,105,0
1,note_on,76,0,920
1,note_on,64,0,0
1,note_on,64,61,40
1,note_on,76,69,0
1,note_on,76,0,440
1,note_on,64,0,0
1,note_on,56,38,520
1,note_on,59,38,0
1,note_on,59,0,470
1,note_on,56,0,0
1,note_on,68,31,10
1,note_on,56,31,0
1,note_on,56,0,470
1,note_on,68,0,0
1,note_on,56,38,10
1,note_on,66,38,0
1,note_on,66,0,470
1,note_on,56,0,0
1,note_on,56,31,10
1,note_on,68,31,0
1,note_on,68,0,470
1,note_on,56,0,0
1,note_on,61,37,10
1,note_on,73,44,0
1,note_on,69,44,0
1,note_on,69,0,920
1,note_on,73,0,0
1,note_on,61,0,0
1,note_on,61,19,40
1,note_on,69,23,0
1,note_on,66,23,0
1,note_on,66,0,240
1,note_on,69,0,0
1,note_on,61,0,0
1,note_on,59,35,720
1,note_on,71,41,0
1,note_on,68,41,0
1,note_on,68,0,920
1,note_on,71,0,0
1,note_on,59,0,0
1,note_on,69,25,40
1,note_on,59,24,0
1,note_on,66,25,0
1,note_on,66,0,240
1,note_on,59,0,0
1,note_on,69,0,0
1,note_on,64,35,720
1,note_on,69,41,0
1,note_on,59,35,0
1,note_on,59,0,920
1,note_on,69,0,0
1,note_on,64,0,0
1,note_on,64,23,40
1,note_on,67,25,0
1,note_on,59,23,0
1,note_on,59,0,240
1,note_on,67,0,0
1,note_on,64,0,0
1,note_on,60,36,720
1,note_on,67,42,0
1,note_on,57,36,0
1,note_on,57,0,920
1,note_on,67,0,0
1,note_on,60,0,0
1,note_on,65,25,40
1,note_on,60,23,0
1,note_on,57,24,0
1,note_on,57,0,240
1,note_on,60,0,0
1,note_on,65,0,0
1,note_on,55,36,720
1,note_on,60,36,0
1,note_on,65,42,0
1,note_on,65,0,920
1,note_on,60,0,0
1,note_on,55,0,0
1,note_on,60,23,40
1,note_on,55,23,0
1,note_on,64,25,0
1,note_on,64,0,240
1,note_on,55,0,0
1,note_on,60,0,0
1,note_on,57,36,720
1,note_on,53,36,0
1,note_on,64,42,0
1,note_on,64,0,920
1,note_on,53,0,0
1,note_on,57,0,0
1,note_on,57,25,40
1,note_on,62,29,0
1,note_on,53,25,0
1,note_on,53,0,240
1,note_on,62,0,0
1,note_on,57,0,0
1,note_on,52,35,720
1,note_on,62,41,0
1,note_on,57,35,0
1,note_on,57,0,920
1,note_on,62,0,0
1,note_on,52,0,0
1,note_on,57,20,40
1,note_on,60,25,0
1,note_on,60,0,240
1,note_on,57,0,0
1,note_on,57,29,4560
1,note_on,59,41,0
1,note_on,59,0,920
1,note_on,57,0,0
1,note_on,59,25,40
1,note_on,56,25,0
1,note_on,56,0,440
1,note_on,59,0,0
1,note_on,60,36,4360
1,note_on,60,0,960
1,note_on,57,33,0
1,note_on,69,33,0
1,note_on,69,0,960
1,note_on,57,0,0
1,note_on,56,40,0
1,note_on,68,40,0
1,note_on,68,0,960
1,note_on,56,0,0
1,note_on,57,37,0
1,note_on,69,37,0
1,note_on,69,0,960
1,note_on,57,0,0
1,note_on,58,47,0
1,note_on,70,47,0
1,note_on,70,0,960
1,note_on,58,0,0
1,note_on,57,45,0
1,note_on,69,45,0
1,note_on,69,0,960
1,note_on,57,0,0
1,note_on,62,63,0
1,note_on,74,63,0
1,note_on,74,0,960
1,note_on,62,0,0
1,note_on,60,61,0
1,note_on,72,61,0
1,note_on,72,0,960
1,note_on,60,0,0
1,note_on,67,77,0
1,note_on,79,77,0
1,note_on,79,0,960
1,note_on,67,0,0
1,note_on,65,73,0
1,note_on,77,73,0
1,note_on,77,0,960
1,note_on,65,0,0
1,note_on,70,96,0
1,note_on,82,96,0
1,note_on,82,0,960
1,note_on,70,0,0
1,note_on,69,93,0
1,note_on,81,93,0
1,note_on,81,0,960
1,note_on,69,0,0
1,note_on,86,101,0
1,note_on,81,101,0
1,note_on,77,90,0
1,note_on,74,90,0
1,note_on,74,0,960
1,note_on,86,0,0
1,note_on,81,0,0
1,note_on,77,0,0
1,note_on,69,76,0
1,note_on,81,85,0
1,note_on,81,0,200
1,note_on,69,0,0
1,note_on,88,101,760
1,note_on,85,101,0
1,note_on,81,90,0
1,note_on,76,90,0
1,note_on,76,0,960
1,note_on,88,0,0
1,note_on,85,0,0
1,note_on,81,0,0
1,note_on,69,76,0
1,note_on,81,85,0
1,note_on,81,0,200
1,note_on,69,0,0
1,note_on,89,101,760
1,note_on,86,101,0
1,note_on,81,90,0
1,note_on,77,90,0
1,note_on,77,0,960
1,note_on,89,0,0
1,note_on,86,0,0
1,note_on,81,0,0
1,note_on,69,76,0
1,note_on,81,85,0
1,note_on,81,0,200
1,note_on,69,0,0
1,note_on,88,102,760
1,note_on,85,102,0
1,note_on,81,91,0
1,note_on,76,91,0
1,note_on,76,0,960
1,note_on,88,0,0
1,note_on,85,0,0
1,note_on,81,0,0
1,note_on,69,76,0
1,note_on,81,85,0
1,note_on,81,0,200
1,note_on,69,0,0
1,note_on,86,101,760
1,note_on,81,101,0
1,note_on,77,90,0
1,note_on,74,90,0
1,note_on,74,0,960
1,note_on,86,0,0
1,note_on,81,0,0
1,note_on,77,0,0
1,note_on,69,83,0
1,note_on,81,93,0
1,note_on,81,0,200
1,note_on,69,0,0
1,note_on,88,104,760
1,note_on,85,104,0
1,note_on,81,93,0
1,note_on,76,93,0
1,note_on,76,0,960
1,note_on,88,0,0
1,note_on,85,0,0
1,note_on,81,0,0
1,note_on,69,84,0
1,note_on,81,94,0
1,note_on,81,0,120
1,note_on,69,0,0
1,note_on,89,101,840
1,note_on,86,101,0
1,note_on,81,90,0
1,note_on,77,90,0
1,note_on,77,0,960
1,note_on,89,0,0
1,note_on,86,0,0
1,note_on,81,0,0
1,note_on,69,82,0
1,note_on,81,92,0
1,note_on,81,0,120
1,note_on,69,0,0
1,note_on,88,104,840
1,note_on,85,104,0
1,note_on,81,93,0
1,note_on,76,93,0
1,note_on,76,0,960
1,note_on,88,0,0
1,note_on,85,0,0
1,note_on,81,0,0
1,note_on,69,83,0
1,note_on,81,93,0
1,note_on,81,0,120
1,note_on,69,0,0
1,note_on,89,105,840
1,note_on,84,105,0
1,note_on,81,94,0
1,note_on,77,94,0
1,note_on,77,0,960
1,note_on,89,0,0
1,note_on,84,0,0
1,note_on,81,0,0
1,note_on,72,82,0
1,note_on,84,92,0
1,note_on,84,0,120
1,note_on,72,0,0
1,note_on,91,100,840
1,note_on,88,100,0
1,note_on,84,90,0
1,note_on,79,90,0
1,note_on,79,0,960
1,note_on,91,0,0
1,note_on,88,0,0
1,note_on,84,0,0
1,note_on,72,76,0
1,note_on,84,85,0
1,note_on,84,0,120
1,note_on,72,0,0
1,note_on,93,100,840
1,note_on,89,100,0
1,note_on,84,90,0
1,note_on,81,90,0
1,note_on,81,0,960
1,note_on,93,0,0
1,note_on,89,0,0
1,note_on,84,0,0
1,note_on,72,76,0
1,note_on,84,85,0
1,note_on,84,0,120
1,note_on,72,0,0
1,note_on,91,96,840
1,note_on,88,96,0
1,note_on,84,86,0
1,note_on,79,86,0
1,note_on,79,0,960
1,note_on,91,0,0
1,note_on,88,0,0
1,note_on,84,0,0
1,note_on,72,76,0
1,note_on,84,85,0
1,note_on,84,0,120
1,note_on,72,0,0
1,note_on,93,97,840
1,note_on,89,97,0
1,note_on,84,87,0
1,note_on,81,87,0
1,note_on,81,0,320
1,note_on,93,0,0
1,note_on,89,0,0
1,note_on,84,0,0
1,note_on,89,70,40
1,note_on,84,70,0
1,note_on,81,63,0
1,note_on,77,63,0
1,note_on,77,0,80
1,note_on,89,0,0
1,note_on,84,0,0
1,note_on,81,0,0
1,note_on,89,78,40
1,note_on,84,78,0
1,note_on,81,70,0
1,note_on,77,70,0
1,note_on,77,0,320
1,note_on,89,0,0
1,note_on,84,0,0
1,note_on,81,0,0
1,note_on,84,70,40
1,note_on,81,70,0
1,note_on,77,63,0
1,note_on,72,63,0
1,note_on,72,0,80
1,note_on,84,0,0
1,note_on,81,0,0
1,note_on,77,0,0
1,note_on,84,78,40
1,note_on,81,78,0
1,note_on,77,70,0
1,note_on,72,70,0
1,note_on,72,0,320
1,note_on,84,0,0
1,note_on,81,0,0
1,note_on,77,0,0
1,note_on,81,70,40
1,note_on,77,70,0
1,note_on,72,63,0
1,note_on,69,63,0
1,note_on,69,0,80
1,note_on,81,0,0
1,note_on,77,0,0
1,note_on,72,0,0
1,note_on,69,70,40
1,note_on,72,70,0
1,note_on,77,78,0
1,note_on,81,78,0
1,note_on,81,0,90
1,note_on,69,0,0
1,note_on,72,0,0
1,note_on,77,0,0
1,note_on,65,63,150
1,note_on,69,63,0
1,note_on,72,70,0
1,note_on,77,70,0
1,note_on,77,0,90
1,note_on,65,0,0
1,note_on,69,0,0
1,note_on,72,0,0
1,note_on,93,99,150
1,note_on,89,99,0
1,note_on,84,89,0
1,note_on,81,89,0
1,note_on,81,0,320
1,note_on,93,0,0
1,note_on,89,0,0
1,note_on,84,0,0
1,note_on,89,70,40
1,note_on,84,70,0
1,note_on,81,63,0
1,note_on,77,63,0
1,note_on,77,0,80
1,note_on,89,0,0
1,note_on,84,0,0
1,note_on,81,0,0
1,note_on,89,78,40
1,note_on,84,78,0
1,note_on,81,70,0
1,note_on,77,70,0
1,note_on,77,0,320
1,note_on,89,0,0
1,note_on,84,0,0
1,note_on,81,0,0
1,note_on,84,70,40
1,note_on,81,70,0
1,note_on,77,63,0
1,note_on,72,63,0
1,note_on,72,0,80
1,note_on,84,0,0
1,note_on,81,0,0
1,note_on,77,0,0
1,note_on,84,78,40
1,note_on,81,78,0
1,note_on,77,70,0
1,note_on,72,70,0
1,note_on,72,0,320
1,note_on,84,0,0
1,note_on,81,0,0
1,note_on,77,0,0
1,note_on,81,70,40
1,note_on,77,70,0
1,note_on,72,63,0
1,note_on,69,63,0
1,note_on,69,0,80
1,note_on,81,0,0
1,note_on,77,0,0
1,note_on,72,0,0
1,note_on,69,70,40
1,note_on,72,70,0
1,note_on,77,78,0
1,note_on,81,78,0
1,note_on,81,0,90
1,note_on,69,0,0
1,note_on,72,0,0
1,note_on,77,0,0
1,note_on,65,63,150
1,note_on,69,63,0
1,note_on,72,70,0
1,note_on,77,70,0
1,note_on,77,0,90
1,note_on,65,0,0
1,note_on,69,0,0
1,note_on,72,0,0
1,note_on,93,92,150
1,note_on,88,92,0
1,note_on,85,82,0
1,note_on,81,82,0
1,note_on,81,0,320
1,note_on,93,0,0
1,note_on,88,0,0
1,note_on,85,0,0
1,note_on,93,70,40
1,note_on,88,70,0
1,note_on,85,70,0
1,note_on,81,63,0
1,note_on,81,0,80
1,note_on,93,0,0
1,note_on,88,0,0
1,note_on,85,0,0
1,note_on,93,83,40
1,note_on,88,83,0
1,note_on,85,74,0
1,note_on,81,74,0
1,note_on,81,0,320
1,note_on,93,0,0
1,note_on,88,0,0
1,note_on,85,0,0
1,note_on,93,70,40
1,note_on,88,70,0
1,note_on,85,63,0
1,note_on,81,63,0
1,note_on,81,0,80
1,note_on,93,0,0
1,note_on,88,0,0
1,note_on,85,0,0
1,note_on,93,82,40
1,note_on,88,82,0
1,note_on,85,73,0
1,note_on,81,73,0
1,note_on,81,0,320
1,note_on,93,0,0
1,note_on,88,0,0
1,note_on,85,0,0
1,note_on,93,70,40
1,note_on,88,70,0
1,note_on,85,63,0
1,note_on,81,63,0
1,note_on,81,0,80
1,note_on,93,0,0
1,note_on,88,0,0
1,note_on,85,0,0
1,note_on,93,80,40
1,note_on,88,80,0
1,note_on,85,72,0
1,note_on,81,72,0
1,note_on,81,0,90
1,note_on,93,0,0
1,note_on,88,0,0
1,note_on,85,0,0
1,note_on,81,63,150
1,note_on,85,63,0
1,note_on,88,70,0
1,note_on,93,70,0
1,note_on,93,0,90
1,note_on,81,0,0
1,note_on,85,0,0
1,note_on,88,0,0
1,note_on,81,50,150
1,note_on,76,50,0
1,note_on,73,50,0
1,note_on,69,50,0
1,note_on,69,0,320
1,note_on,81,0,0
1,note_on,76,0,0
1,note_on,73,0,0
1,note_on,73,45,40
1,note_on,76,45,0
1,note_on,81,45,0
1,note_on,81,0,80
1,note_on,76,0,0
1,note_on,73,0,0
1,note_on,81,50,40
1,note_on,76,50,0
1,note_on,73,50,0
1,note_on,73,0,320
1,note_on,76,0,0
1,note_on,81,0,0
1,note_on,73,45,40
1,note_on,76,45,0
1,note_on,81,45,0
1,note_on,81,0,80
1,note_on,76,0,0
1,note_on,73,0,0
1,note_on,81,49,40
1,note_on,76,49,0
1,note_on,73,49,0
1,note_on,73,0,320
1,note_on,76,0,0
1,note_on,81,0,0
1,note_on,73,45,40
1,note_on,76,45,0
1,note_on,81,45,0
1,note_on,81,0,80
1,note_on,76,0,0
1,note_on,73,0,0
1,note_on,81,50,40
1,note_on,76,50,0
1,note_on,73,50,0
1,note_on,73,0,90
1,note_on,76,0,0
1,note_on,81,0,0
1,note_on,73,45,150
1,note_on,76,45,0
1,note_on,81,45,0
1,note_on,81,0,90
1,note_on,76,0,0
1,note_on,73,0,0
1,note_on,72,45,150
1,note_on,77,45,0
1,note_on,81,45,0
1,note_on,81,0,320
1,note_on,77,0,0
1,note_on,72,0,0
1,note_on,72,38,40
1,note_on,77,38,0
1,note_on,81,38,0
1,note_on,81,0,80
1,note_on,77,0,0
1,note_on,72,0,0
1,note_on,72,45,40
1,note_on,77,45,0
1,note_on,81,45,0
1,note_on,81,0,320
1,note_on,77,0,0
1,note_on,72,0,0
1,note_on,72,37,40
1,note_on,77,37,0
1,note_on,81,37,0
1,note_on,81,0,80
1,note_on,77,0,0
1,note_on,72,0,0
1,note_on,72,45,40
1,note_on,77,45,0
1,note_on,81,45,0
1,note_on,81,0,320
1,note_on,77,0,0
1,note_on,72,0,0
1,note_on,72,38,40
1,note_on,77,38,0
1,note_on,81,38,0
1,note_on,81,0,80
1,note_on,77,0,0
1,note_on,72,0,0
1,note_on,72,45,40
1,note_on,77,45,0
1,note_on,81,45,0
1,note_on,81,0,90
1,note_on,77,0,0
1,note_on,72,0,0
1,note_on,77,39,150
1,note_on,72,39,0
1,note_on,81,39,0
1,note_on,81,0,90
1,note_on,72,0,0
1,note_on,77,0,0
1,note_on,72,51,150
1,note_on,77,51,0
1,note_on,81,51,0
1,note_on,81,0,320
1,note_on,77,0,0
1,note_on,72,0,0
1,note_on,74,37,40
1,note_on,77,37,0
1,note_on,82,37,0
1,note_on,82,0,80
1,note_on,77,0,0
1,note_on,74,0,0
1,note_on,72,45,40
1,note_on,77,45,0
1,note_on,81,45,0
1,note_on,81,0,320
1,note_on,77,0,0
1,note_on,72,0,0
1,note_on,70,37,40
1,note_on,72,37,0
1,note_on,79,37,0
1,note_on,79,0,80
1,note_on,72,0,0
1,note_on,70,0,0
1,note_on,69,45,40
1,note_on,72,45,0
1,note_on,77,45,0
1,note_on,77,0,320
1,note_on,72,0,0
1,note_on,69,0,0
1,note_on,70,37,40
1,note_on,72,37,0
1,note_on,79,37,0
1,note_on,79,0,80
1,note_on,72,0,0
1,note_on,70,0,0
1,note_on,69,45,40
1,note_on,72,45,0
1,note_on,77,45,0
1,note_on,77,0,320
1,note_on,72,0,0
1,note_on,69,0,0
1,note_on,65,37,40
1,note_on,70,37,0
1,note_on,74,37,0
1,note_on,74,0,80
1,note_on,70,0,0
1,note_on,65,0,0
1,note_on,64,52,40
1,note_on,70,52,0
1,note_on,72,52,0
1,note_on,72,0,360
1,note_on,70,0,0
1,note_on,64,0,0
1,note_on,65,37,0
1,note_on,70,37,0
1,note_on,74,37,0
1,note_on,74,0,120
1,note_on,70,0,0
1,note_on,65,0,0
1,note_on,65,45,0
1,note_on,70,45,0
1,note_on,74,45,0
1,note_on,74,0,360
1,note_on,70,0,0
1,note_on,65,0,0
1,note_on,64,37,0
1,note_on,70,37,0
1,note_on,72,37,0
1,note_on,72,0,120
1,note_on,70,0,0
1,note_on,64,0,0
1,note_on,64,45,0
1,note_on,70,45,0
1,note_on,72,45,0
1,note_on,72,0,360
1,note_on,70,0,0
1,note_on,64,0,0
1,note_on,65,37,0
1,note_on,70,37,0
1,note_on,74,37,0
1,note_on,74,0,120
1,note_on,70,0,0
1,note_on,65,0,0
1,note_on,65,39,0
1,note_on,70,39,0
1,note_on,74,39,0
1,note_on,74,0,90
1,note_on,70,0,0
1,note_on,65,0,0
1,note_on,64,37,150
1,note_on,70,37,0
1,note_on,72,37,0
1,note_on,72,0,80
1,note_on,70,0,0
1,note_on,64,0,0
1,note_on,74,45,160
1,note_on,79,45,0
1,note_on,82,45,0
1,note_on,82,0,320
1,note_on,79,0,0
1,note_on,74,0,0
1,note_on,75,37,40
1,note_on,79,37,0
1,note_on,84,37,0
1,note_on,84,0,80
1,note_on,79,0,0
1,note_on,75,0,0
1,note_on,74,45,40
1,note_on,79,45,0
1,note_on,82,45,0
1,note_on,82,0,320
1,note_on,79,0,0
1,note_on,74,0,0
1,note_on,72,37,40
1,note_on,74,37,0
1,note_on,81,37,0
1,note_on,81,0,80
1,note_on,74,0,0
1,note_on,72,0,0
1,note_on,70,45,40
1,note_on,74,45,0
1,note_on,79,45,0
1,note_on,79,0,320
1,note_on,74,0,0
1,note_on,70,0,0
1,note_on,72,37,40
1,note_on,74,37,0
1,note_on,81,37,0
1,note_on,81,0,80
1,note_on,74,0,0
1,note_on,72,0,0
1,note_on,70,45,40
1,note_on,74,45,0
1,note_on,79,45,0
1,note_on,79,0,320
1,note_on,74,0,0
1,note_on,70,0,0
1,note_on,67,37,40
1,note_on,72,37,0
1,note_on,75,37,0
1,note_on,75,0,80
1,note_on,72,0,0
1,note_on,67,0,0
1,note_on,66,52,40
1,note_on,72,52,0
1,note_on,74,52,0
1,note_on,74,0,360
1,note_on,72,0,0
1,note_on,66,0,0
1,note_on,67,37,0
1,note_on,72,37,0
1,note_on,75,37,0
1,note_on,75,0,120
1,note_on,72,0,0
1,note_on,67,0,0
1,note_on,67,45,0
1,note_on,72,45,0
1,note_on,75,45,0
1,note_on,75,0,360
1,note_on,72,0,0
1,note_on,67,0,0
1,note_on,66,37,0
1,note_on,72,37,0
1,note_on,74,37,0
1,note_on,74,0,120
1,note_on,72,0,0
1,note_on,66,0,0
1,note_on,66,45,0
1,note_on,72,45,0
1,note_on,74,45,0
1,note_on,74,0,360
1,note_on,72,0,0
1,note_on,66,0,0
1,note_on,67,37,0
1,note_on,72,37,0
1,note_on,75,37,0
1,note_on,75,0,120
1,note_on,72,0,0
1,note_on,67,0,0
1,note_on,67,39,0
1,note_on,72,39,0
1,note_on,75,39,0
1,note_on,75,0,90
1,note_on,72,0,0
1,note_on,67,0,0
1,note_on,66,37,150
1,note_on,72,37,0
1,note_on,74,37,0
1,note_on,74,0,80
1,note_on,72,0,0
1,note_on,66,0,0
1,note_on,71,51,160
1,note_on,77,51,0
1,note_on,79,51,0
1,note_on,79,0,360
1,note_on,77,0,0
1,note_on,71,0,0
1,note_on,71,37,0
1,note_on,77,37,0
1,note_on,80,37,0
1,note_on,80,0,80
1,note_on,77,0,0
1,note_on,71,0,0
1,note_on,71,51,40
1,note_on,77,51,0
1,note_on,80,51,0
1,note_on,80,0,240
1,note_on,77,0,0
1,note_on,71,0,0
1,note_on,71,42,0
1,note_on,77,42,0
1,note_on,79,42,0
1,note_on,79,0,80
1,note_on,77,0,0
1,note_on,71,0,0
1,note_on,67,45,160
1,note_on,70,45,0
1,note_on,72,45,0
1,note_on,72,0,360
1,note_on,70,0,0
1,note_on,67,0,0
1,note_on,67,39,0
1,note_on,70,39,0
1,note_on,73,39,0
1,note_on,73,0,80
1,note_on,70,0,0
1,note_on,67,0,0
1,note_on,67,47,40
1,note_on,70,47,0
1,note_on,73,47,0
1,note_on,73,0,90
1,note_on,70,0,0
1,note_on,67,0,0
1,note_on,67,37,150
1,note_on,70,37,0
1,note_on,72,37,0
1,note_on,72,0,80
1,note_on,70,0,0
1,note_on,67,0,0
1,note_on,69,52,160
1,note_on,75,52,0
1,note_on,77,52,0
1,note_on,77,0,360
1,note_on,75,0,0
1,note_on,69,0,0
1,note_on,69,42,0
1,note_on,75,42,0
1,note_on,79,42,0
1,note_on,79,0,80
1,note_on,75,0,0
1,note_on,69,0,0
1,note_on,69,49,40
1,note_on,75,49,0
1,note_on,79,49,0
1,note_on,79,0,240
1,note_on,75,0,0
1,note_on,69,0,0
1,note_on,69,37,0
1,note_on,75,37,0
1,note_on,77,37,0
1,note_on,77,0,80
1,note_on,75,0,0
1,note_on,69,0,0
1,note_on,62,49,160
1,note_on,65,49,0
1,note_on,70,49,0
1,note_on,70,0,360
1,note_on,65,0,0
1,note_on,62,0,0
1,note_on,62,37,0
1,note_on,65,37,0
1,note_on,72,37,0
1,note_on,72,0,80
1,note_on,65,0,0
1,note_on,62,0,0
1,note_on,62,45,40
1,note_on,65,45,0
1,note_on,72,45,0
1,note_on,72,0,90
1,note_on,65,0,0
1,note_on,62,0,0
1,note_on,62,37,150
1,note_on,70,37,0
1,note_on,65,37,0
1,note_on,65,0,80
1,note_on,70,0,0
1,note_on,62,0,0
1,note_on,65,55,160
1,note_on,70,55,0
1,note_on,74,55,0
1,note_on,74,0,360
1,note_on,70,0,0
1,note_on,65,0,0
1,note_on,65,55,0
1,note_on,73,55,0
1,note_on,76,55,0
1,note_on,76,0,120
1,note_on,73,0,0
1,note_on,65,0,0
1,note_on,65,59,0
1,note_on,73,59,0
1,note_on,76,59,0
1,note_on,76,0,360
1,note_on,73,0,0
1,note_on,65,0,0
1,note_on,65,58,0
1,note_on,74,58,0
1,note_on,77,58,0
1,note_on,77,0,120
1,note_on,74,0,0
1,note_on,65,0,0
1,note_on,65,67,0
1,note_on,74,67,0
1,note_on,77,67,0
1,note_on,77,0,360
1,note_on,74,0,0
1,note_on,65,0,0
1,note_on,67,66,0
1,note_on,76,66,0
1,note_on,79,66,0
1,note_on,79,0,120
1,note_on,76,0,0
1,note_on,67,0,0
1,note_on,67,73,0
1,note_on,76,73,0
1,note_on,79,73,0
1,note_on,79,0,360
1,note_on,76,0,0
1,note_on,67,0,0
1,note_on,68,67,0
1,note_on,77,67,0
1,note_on,80,67,0
1,note_on,80,0,120
1,note_on,77,0,0
1,note_on,68,0,0
1,note_on,68,76,0
1,note_on,77,76,0
1,note_on,80,76,0
1,note_on,80,0,360
1,note_on,77,0,0
1,note_on,68,0,0
1,note_on,72,70,0
1,note_on,68,70,0
1,note_on,77,70,0
1,note_on,80,70,0
1,note_on,80,0,120
1,note_on,72,0,0
1,note_on,68,0,0
1,note_on,77,0,0
1,note_on,72,76,0
1,note_on,68,76,0
1,note_on,77,76,0
1,note_on,80,76,0
1,note_on,80,0,360
1,note_on,72,0,0
1,note_on,68,0,0
1,note_on,77,0,0
1,note_on,67,71,0
1,note_on,71,71,0
1,note_on,77,71,0
1,note_on,79,71,0
1,note_on,79,0,120
1,note_on,67,0,0
1,note_on,71,0,0
1,note_on,77,0,0
1,note_on,67,78,0
1,note_on,71,78,0
1,note_on,77,78,0
1,note_on,79,78,0
1,note_on,79,0,360
1,note_on,67,0,0
1,note_on,71,0,0
1,note_on,77,0,0
1,note_on,67,65,0
1,note_on,71,65,0
1,note_on,74,73,0
1,note_on,77,73,0
1,note_on,79,73,0
1,note_on,79,0,120
1,note_on,74,0,0
1,note_on,67,0,0
1,note_on,71,0,0
1,note_on,77,0,0
1,note_on,67,81,0
1,note_on,71,81,0
1,note_on,74,81,0
1,note_on,77,81,0
1,note_on,79,81,0
1,note_on,79,0,360
1,note_on,74,0,0
1,note_on,67,0,0
1,note_on,71,0,0
1,note_on,77,0,0
1,note_on,64,69,0
1,note_on,67,69,0
1,note_on,72,77,0
1,note_on,76,77,0
1,note_on,76,0,120
1,note_on,64,0,0
1,note_on,67,0,0
1,note_on,72,0,0
1,note_on,64,84,0
1,note_on,67,84,0
1,note_on,72,94,0
1,note_on,76,94,0
1,note_on,76,0,360
1,note_on,64,0,0
1,note_on,67,0,0
1,note_on,72,0,0
1,note_on,72,72,0
1,note_on,76,80,0
1,note_on,67,72,0
1,note_on,79,80,0
1,note_on,79,0,80
1,note_on,72,0,0
1,note_on,76,0,0
1,note_on,67,0,0
1,note_on,67,81,40
1,note_on,72,81,0
1,note_on,76,91,0
1,note_on,79,91,0
1,note_on,79,0,90
1,note_on,67,0,0
1,note_on,72,0,0
1,note_on,76,0,0
1,note_on,84,82,150
1,note_on,79,82,0
1,note_on,76,73,0
1,note_on,72,73,0
1,note_on,72,0,90
1,note_on,84,0,0
1,note_on,79,0,0
1,note_on,76,0,0
1,note_on,72,84,150
1,note_on,77,94,0
1,note_on,80,94,0
1,note_on,80,0,480
1,note_on,77,0,0
1,note_on,72,0,0
1,note_on,64,84,480
1,note_on,67,84,0
1,note_on,72,94,0
1,note_on,76,94,0
1,note_on,76,0,360
1,note_on,64,0,0
1,note_on,67,0,0
1,note_on,72,0,0
1,note_on,72,69,0
1,note_on,76,77,0
1,note_on,67,69,0
1,note_on,79,77,0
1,note_on,79,0,80
1,note_on,72,0,0
1,note_on,76,0,0
1,note_on,67,0,0
1,note_on,67,82,40
1,note_on,72,82,0
1,note_on,76,92,0
1,note_on,79,92,0
1,note_on,79,0,90
1,note_on,67,0,0
1,note_on,72,0,0
1,note_on,76,0,0
1,note_on,84,85,150
1,note_on,79,76,0
1,note_on,76,85,0
1,note_on,72,76,0
1,note_on,72,0,90
1,note_on,84,0,0
1,note_on,79,0,0
1,note_on,76,0,0
1,note_on,72,84,150
1,note_on,77,94,0
1,note_on,80,94,0
1,note_on,80,0,480
1,note_on,77,0,0
1,note_on,72,0,0
1,note_on,84,84,480
1,note_on,79,84,0
1,note_on,76,84,0
1,note_on,72,84,0
1,note_on,72,0,360
1,note_on,84,0,0
1,note_on,79,0,0
1,note_on,76,0,0
1,note_on,72,58,0
1,note_on,72,0,120
1,note_on,72,70,0
1,note_on,72,0,360
1,note_on,72,55,0
1,note_on,72,0,120
1,note_on,84,69,0
1,note_on,79,69,0
1,note_on,76,69,0
1,note_on,72,69,0
1,note_on,72,0,360
1,note_on,84,0,0
1,note_on,79,0,0
1,note_on,76,0,0
1,note_on,72,57,0
1,note_on,72,0,120
1,note_on,72,69,0
1,note_on,72,0,360
1,note_on,72,56,0
1,note_on,72,0,120
1,note_on,72,66,0
1,note_on,72,0,360
1,note_on,73,58,0
1,note_on,73,0,120
1,note_on,73,64,0
1,note_on,73,0,360
1,note_on,72,51,0
1,note_on,72,0,120
1,note_on,72,63,0
1,note_on,72,0,360
1,note_on,72,53,0
1,note_on,72,0,120
1,note_on,72,62,0
1,note_on,72,0,360
1,note_on,72,49,0
1,note_on,72,0,120
1,note_on,72,60,0
1,note_on,72,0,360
1,note_on,77,49,0
1,note_on,77,0,120
1,note_on,77,63,0
1,note_on,77,0,360
1,note_on,72,44,0
1,note_on,72,0,120
1,note_on,72,56,0
1,note_on,72,0,360
1,note_on,72,42,0
1,note_on,72,0,120
1,note_on,72,54,0
1,note_on,72,0,360
1,note_on,72,41,0
1,note_on,72,0,120
1,note_on,72,53,0
1,note_on,72,0,360
1,note_on,74,39,0
1,note_on,74,0,120
1,note_on,74,52,0
1,note_on,74,0,360
1,note_on,72,39,0
1,note_on,72,0,120
1,note_on,72,50,0
1,note_on,72,0,360
1,note_on,82,37,0
1,note_on,82,0,120
1,note_on,82,47,0
1,note_on,82,0,360
1,note_on,76,35,0
1,note_on,76,0,120
1,note_on,89,47,0
1,note_on,77,47,0
1,note_on,77,0,360
1,note_on,89,0,0
1,note_on,84,35,0
1,note_on,84,0,80
1,note_on,84,43,40
1,note_on,84,0,320
1,note_on,84,34,40
1,note_on,84,0,80
1,note_on,83,42,40
1,note_on,83,0,320
1,note_on,84,34,40
1,note_on,84,0,80
1,note_on,84,41,40
1,note_on,84,0,320
1,note_on,84,35,40
1,note_on,84,0,80
1,note_on,81,44,40
1,note_on,81,0,320
1,note_on,84,34,40
1,note_on,84,0,80
1,note_on,93,42,40
1,note_on,93,0,320
1,note_on,91,34,40
1,note_on,91,0,80
1,note_on,91,41,40
1,note_on,91,0,320
1,note_on,93,35,40
1,note_on,93,0,80
1,note_on,93,41,40
1,note_on,93,0,320
1,note_on,89,37,40
1,note_on,89,0,80
1,note_on,88,48,40
1,note_on,88,0,320
1,note_on,86,33,40
1,note_on,86,0,80
1,note_on,86,43,40
1,note_on,86,0,320
1,note_on,86,35,40
1,note_on,86,0,80
1,note_on,85,45,40
1,note_on,85,0,320
1,note_on,86,34,40
1,note_on,86,0,80
1,note_on,86,44,40
1,note_on,86,0,320
1,note_on,86,33,40
1,note_on,86,0,80
1,note_on,82,44,40
1,note_on,82,0,360
1,note_on,86,35,0
1,note_on,86,0,120
1,note_on,91,43,0
1,note_on,91,0,360
1,note_on,89,34,0
1,note_on,89,0,120
1,note_on,89,44,0
1,note_on,89,0,360
1,note_on,91,34,0
1,note_on,91,0,120
1,note_on,91,42,0
1,note_on,91,0,360
1,note_on,88,33,0
1,note_on,88,0,120
1,note_on,84,47,0
1,note_on,84,0,360
1,note_on,72,35,0
1,note_on,72,0,120
1,note_on,72,43,0
1,note_on,72,0,360
1,note_on,72,36,0
1,note_on,72,0,120
1,note_on,71,42,0
1,note_on,71,0,360
1,note_on,72,33,0
1,note_on,72,0,120
1,note_on,72,41,0
1,note_on,72,0,360
1,note_on,72,35,0
1,note_on,72,0,120
1,note_on,68,44,0
1,note_on,68,0,360
1,note_on,72,33,0
1,note_on,72,0,120
1,note_on,80,42,0
1,note_on,80,0,360
1,note_on,79,31,0
1,note_on,79,0,120
1,note_on,79,41,0
1,note_on,79,0,360
1,note_on,80,33,0
1,note_on,80,0,120
1,note_on,80,41,0
1,note_on,80,0,360
1,note_on,77,34,0
1,note_on,77,0,120
1,note_on,79,48,0
1,note_on,79,0,360
1,note_on,77,39,0
1,note_on,77,0,120
1,note_on,77,43,0
1,note_on,77,0,360
1,note_on,77,41,0
1,note_on,77,0,120
1,note_on,76,45,0
1,note_on,76,0,360
1,note_on,77,41,0
1,note_on,77,0,120
1,note_on,77,44,0
1,note_on,77,0,360
1,note_on,77,41,0
1,note_on,77,0,120
1,note_on,73,44,0
1,note_on,73,0,360
1,note_on,77,36,0
1,note_on,77,0,120
1,note_on,82,43,0
1,note_on,82,0,360
1,note_on,80,35,0
1,note_on,80,0,120
1,note_on,80,44,0
1,note_on,80,0,360
1,note_on,82,34,0
1,note_on,82,0,120
1,note_on,82,42,0
1,note_on,82,0,360
1,note_on,79,34,0
1,note_on,79,0,120
1,note_on,75,45,0
1,note_on,75,0,360
1,note_on,84,40,0
1,note_on,84,0,120
1,note_on,84,48,0
1,note_on,84,0,360
1,note_on,82,36,0
1,note_on,82,0,120
1,note_on,82,46,0
1,note_on,82,0,360
1,note_on,80,35,0
1,note_on,80,0,120
1,note_on,80,44,0
1,note_on,80,0,360
1,note_on,78,35,0
1,note_on,78,0,120
1,note_on,78,44,0
1,note_on,78,0,360
1,note_on,77,35,0
1,note_on,77,0,120
1,note_on,77,40,0
1,note_on,77,0,360
1,note_on,77,35,0
1,note_on,77,0,120
1,note_on,76,40,0
1,note_on,76,0,360
1,note_on,75,34,0
1,note_on,75,0,120
1,note_on,75,40,0
1,note_on,75,0,360
1,note_on,75,39,0
1,note_on,75,0,120
1,note_on,73,45,0
1,note_on,73,0,360
1,note_on,85,45,0
1,note_on,85,0,120
1,note_on,85,48,0
1,note_on,85,0,360
1,note_on,84,38,0
1,note_on,84,0,120
1,note_on,84,46,0
1,note_on,84,0,360
1,note_on,82,38,0
1,note_on,82,0,120
1,note_on,82,44,0
1,note_on,82,0,360
1,note_on,80,38,0
1,note_on,80,0,120
1,note_on,80,44,0
1,note_on,80,0,360
1,note_on,79,35,0
1,note_on,79,0,120
1,note_on,79,40,0
1,note_on,79,0,360
1,note_on,79,34,0
1,note_on,79,0,120
1,note_on,78,40,0
1,note_on,78,0,360
1,note_on,77,36,0
1,note_on,77,0,120
1,note_on,77,40,0
1,note_on,77,0,360
1,note_on,77,36,0
1,note_on,77,0,120
1,note_on,76,45,0
1,note_on,76,0,360
1,note_on,88,41,0
1,note_on,88,0,120
1,note_on,88,49,0
1,note_on,88,0,360
1,note_on,88,41,0
1,note_on,88,0,120
1,note_on,91,51,0
1,note_on,91,0,360
1,note_on,89,42,0
1,note_on,89,0,120
1,note_on,89,50,0
1,note_on,89,0,360
1,note_on,89,38,0
1,note_on,89,0,120
1,note_on,89,50,0
1,note_on,89,0,360
1,note_on,88,41,0
1,note_on,88,0,120
1,note_on,88,48,0
1,note_on,88,0,360
1,note_on,88,40,0
1,note_on,88,0,120
1,note_on,88,48,0
1,note_on,88,0,360
1,note_on,83,36,0
1,note_on,83,0,120
1,note_on,83,45,0
1,note_on,83,0,360
1,note_on,83,42,0
1,note_on,83,0,120
1,note_on,86,56,0
1,note_on,86,0,360
1,note_on,84,40,0
1,note_on,84,0,120
1,note_on,84,49,0
1,note_on,84,0,360
1,note_on,76,39,0
1,note_on,76,0,120
1,note_on,79,47,0
1,note_on,79,0,360
1,note_on,77,35,0
1,note_on,77,0,120
1,note_on,77,44,0
1,note_on,77,0,360
1,note_on,77,38,0
1,note_on,77,0,120
1,note_on,77,46,0
1,note_on,77,0,360
1,note_on,76,39,0
1,note_on,76,0,120
1,note_on,76,46,0
1,note_on,76,0,360
1,note_on,76,37,0
1,note_on,76,0,120
1,note_on,76,44,0
1,note_on,76,0,360
1,note_on,71,36,0
1,note_on,71,0,120
1,note_on,71,44,0
1,note_on,71,0,360
1,note_on,71,37,0
1,note_on,71,0,120
1,note_on,74,46,0
1,note_on,74,0,360
1,note_on,72,36,0
1,note_on,72,0,120
1,note_on,72,44,0
1,note_on,72,0,360
1,note_on,72,36,0
1,note_on,72,0,120
1,note_on,72,43,0
1,note_on,72,0,360
1,note_on,76,39,0
1,note_on,76,0,120
1,note_on,76,47,0
1,note_on,76,0,360
1,note_on,76,38,0
1,note_on,76,0,120
1,note_on,76,47,0
1,note_on,76,0,360
1,note_on,68,38,0
1,note_on,68,0,120
1,note_on,68,47,0
1,note_on,68,0,360
1,note_on,68,37,0
1,note_on,68,0,120
1,note_on,68,45,0
1,note_on,68,0,360
1,note_on,76,39,0
1,note_on,76,0,120
1,note_on,76,47,0
1,note_on,76,0,360
1,note_on,76,37,0
1,note_on,76,0,120
1,note_on,76,45,0
1,note_on,76,0,360
1,note_on,69,32,0
1,note_on,69,0,120
1,note_on,69,40,0
1,note_on,69,0,360
1,note_on,69,32,0
1,note_on,69,0,120
1,note_on,69,39,0
1,note_on,69,0,360
1,note_on,76,34,0
1,note_on,76,0,120
1,note_on,76,39,0
1,note_on,76,0,360
1,note_on,76,34,0
1,note_on,76,0,120
1,note_on,76,41,0
1,note_on,76,0,360
1,note_on,71,33,0
1,note_on,71,0,120
1,note_on,71,37,0
1,note_on,71,0,360
1,note_on,71,32,0
1,note_on,71,0,120
1,note_on,71,37,0
1,note_on,71,0,360
1,note_on,77,29,0
1,note_on,77,0,120
1,note_on,77,34,0
1,note_on,77,0,360
1,note_on,77,30,0
1,note_on,77,0,120
1,note_on,68,37,0
1,note_on,74,37,0
1,note_on,76,37,0
1,note_on,76,0,960
1,note_on,74,0,0
1,note_on,68,0,0
1,note_on,65,32,2280
1,note_on,65,0,120
1,note_on,65,36,0
1,note_on,65,0,360
1,note_on,65,32,0
1,note_on,65,0,120
1,note_on,56,36,0
1,note_on,62,36,0
1,note_on,64,36,0
1,note_on,64,0,960
1,note_on,62,0,0
1,note_on,56,0,0
1,note_on,69,50,4800
1,note_on,69,0,960
1,note_on,76,50,0
1,note_on,76,0,960
1,note_on,75,53,0
1,note_on,75,0,960
1,note_on,76,47,0
1,note_on,76,0,200
1,note_on,72,49,280
1,note_on,71,47,360
1,note_on,72,0,20
1,note_on,69,48,100
1,note_on,71,0,20
1,note_on,69,0,940
1,note_on,64,58,0
1,note_on,56,58,0
1,note_on,59,58,0
1,note_on,59,0,960
1,note_on,56,0,0
1,note_on,64,0,0
1,note_on,60,52,0
1,note_on,60,0,960
1,note_on,57,51,0
1,note_on,57,0,180
1,note_on,57,50,780
1,note_on,57,0,960
1,note_on,65,60,0
1,note_on,57,60,0
1,note_on,57,0,960
1,note_on,65,0,0
1,note_on,58,67,0
1,note_on,67,67,0
1,note_on,67,0,960
1,note_on,58,0,0
1,note_on,57,54,0
1,note_on,65,54,0
1,note_on,65,0,200
1,note_on,57,0,0
1,note_on,57,51,280
1,note_on,59,54,360
1,note_on,57,0,20
1,note_on,60,52,100
1,note_on,59,0,20
1,note_on,60,0,940
1,note_on,56,60,0
1,note_on,59,60,0
1,note_on,64,60,0
1,note_on,64,0,960
1,note_on,59,0,0
1,note_on,56,0,0
1,note_on,60,50,0
1,note_on,60,0,960
1,note_on,57,50,0
1,note_on,57,0,200
1,note_on,57,46,760
1,note_on,62,46,0
1,note_on,69,46,0
1,note_on,65,46,0
1,note_on,65,0,960
1,note_on,57,0,0
1,note_on,62,0,0
1,note_on,69,0,0
1,note_on,57,37,0
1,note_on,57,0,120
1,note_on,60,47,840
1,note_on,69,47,0
1,note_on,64,47,0
1,note_on,57,47,0
1,note_on,57,0,960
1,note_on,60,0,0
1,note_on,69,0,0
1,note_on,64,0,0
1,note_on,57,40,0
1,note_on,57,0,120
1,note_on,62,47,840
1,note_on,69,47,0
1,note_on,65,47,0
1,note_on,57,47,0
1,note_on,57,0,960
1,note_on,62,0,0
1,note_on,69,0,0
1,note_on,65,0,0
1,note_on,57,39,0
1,note_on,57,0,120
1,note_on,69,45,840
1,note_on,57,45,0
1,note_on,60,45,0
1,note_on,60,0,960
1,note_on,57,0,0
1,note_on,69,0,0
1,note_on,57,39,0
1,note_on,57,0,120
1,note_on,62,47,840
1,note_on,69,47,0
1,note_on,57,47,0
1,note_on,57,0,960
1,note_on,69,0,0
1,note_on,62,0,0
1,note_on,57,40,0
1,note_on,57,0,120
1,note_on,60,45,840
1,note_on,57,45,0
1,note_on,69,45,0
1,note_on,69,0,960
1,note_on,57,0,0
1,note_on,60,0,0
1,note_on,57,37,0
1,note_on,57,0,120
1,note_on,77,69,840
1,note_on,81,69,0
1,note_on,74,69,0
1,note_on,69,69,0
1,note_on,69,0,960
1,note_on,77,0,0
1,note_on,81,0,0
1,note_on,74,0,0
1,note_on,69,56,0
1,note_on,69,0,180
1,note_on,72,70,780
1,note_on,81,70,0
1,note_on,69,70,0
1,note_on,69,0,960
1,note_on,81,0,0
1,note_on,72,0,0
1,note_on,69,54,0
1,note_on,69,0,120
1,note_on,71,74,840
1,note_on,76,74,0
1,note_on,79,74,0
1,note_on,79,0,960
1,note_on,76,0,0
1,note_on,71,0,0
1,note_on,67,73,0
1,note_on,67,0,180
1,note_on,75,82,780
1,note_on,66,82,0
1,note_on,78,82,0
1,note_on,78,0,880
1,note_on,66,0,0
1,note_on,75,0,0
1,note_on,71,76,80
1,note_on,83,76,0
1,note_on,75,76,0
1,note_on,75,0,880
1,note_on,83,0,0
1,note_on,71,0,0
1,note_on,67,73,80
1,note_on,79,73,0
1,note_on,79,0,960
1,note_on,67,0,0
1,note_on,64,60,0
1,note_on,76,60,0
1,note_on,76,0,200
1,note_on,64,0,0
1,note_on,66,38,760
1,note_on,54,38,0
1,note_on,63,38,0
1,note_on,63,0,880
1,note_on,54,0,0
1,note_on,66,0,0
1,note_on,59,36,80
1,note_on,63,36,0
1,note_on,71,36,0
1,note_on,71,0,880
1,note_on,63,0,0
1,note_on,59,0,0
1,note_on,67,37,80
1,note_on,55,37,0
1,note_on,55,0,960
1,note_on,67,0,0
1,note_on,52,31,0
1,note_on,64,31,0
1,note_on,64,0,200
1,note_on,52,0,0
1,note_on,55,37,760
1,note_on,67,37,0
1,note_on,67,0,960
1,note_on,55,0,0
1,note_on,52,33,0
1,note_on,64,33,0
1,note_on,64,0,120
1,note_on,52,0,0
1,note_on,65,48,840
1,note_on,53,48,0
1,note_on,53,0,960
1,note_on,65,0,0
1,note_on,50,42,0
1,note_on,62,42,0
1,note_on,62,0,120
1,note_on,50,0,0
1,note_on,52,57,840
1,note_on,64,57,0
1,note_on,64,0,960
1,note_on,52,0,0
1,note_on,48,52,0
1,note_on,60,52,0
1,note_on,60,0,120
1,note_on,48,0,0
1,note_on,62,76,840
1,note_on,50,76,0
1,note_on,50,0,960
1,note_on,62,0,0
1,note_on,47,67,0
1,note_on,59,67,0
1,note_on,59,0,120
1,note_on,47,0,0
1,note_on,57,101,840
1,note_on,69,101,0
1,note_on,69,0,960
1,note_on,57,0,0
1,note_on,64,93,0
1,note_on,76,93,0
1,note_on,76,0,960
1,note_on,64,0,0
1,note_on,75,89,0
1,note_on,63,89,0
1,note_on,63,0,960
1,note_on,75,0,0
1,note_on,76,75,0
1,note_on,64,75,0
1,note_on,64,0,240
1,note_on,76,0,0
1,note_on,48,68,240
1,note_on,52,68,0
1,note_on,52,0,320
1,note_on,48,0,0
1,note_on,56,61,40
1,note_on,50,61,0
1,note_on,50,0,100
1,note_on,56,0,0
1,note_on,52,64,20
1,note_on,57,64,0
1,note_on,57,0,320
1,note_on,52,0,0
1,note_on,59,63,40
1,note_on,53,63,0
1,note_on,53,0,100
1,note_on,59,0,0
1,note_on,55,65,20
1,note_on,60,65,0
1,note_on,60,0,320
1,note_on,55,0,0
1,note_on,57,67,40
1,note_on,62,67,0
1,note_on,62,0,100
1,note_on,57,0,0
1,note_on,55,70,20
1,note_on,60,70,0
1,note_on,60,0,320
1,note_on,55,0,0
1,note_on,62,67,40
1,note_on,57,55,0
1,note_on,57,0,100
1,note_on,62,0,0
1,note_on,59,70,20
1,note_on,64,70,0
1,note_on,64,0,320
1,note_on,59,0,0
1,note_on,65,67,40
1,note_on,60,56,0
1,note_on,60,0,100
1,note_on,65,0,0
1,note_on,59,71,20
1,note_on,64,71,0
1,note_on,64,0,320
1,note_on,59,0,0
1,note_on,57,60,40
1,note_on,62,70,0
1,note_on,62,0,100
1,note_on,57,0,0
1,note_on,55,73,20
1,note_on,60,73,0
1,note_on,60,0,320
1,note_on,55,0,0
1,note_on,53,60,40
1,note_on,59,70,0
1,note_on,59,0,100
1,note_on,53,0,0
1,note_on,57,73,20
1,note_on,52,73,0
1,note_on,52,0,320
1,note_on,57,0,0
1,note_on,56,77,40
1,note_on,52,64,0
1,note_on,52,0,100
1,note_on,56,0,0
1,note_on,52,68,20
1,note_on,57,82,0
1,note_on,57,0,120
1,note_on,52,0,0
1,note_on,57,100,360
1,note_on,69,100,0
1,note_on,69,0,960
1,note_on,57,0,0
1,note_on,77,93,0
1,note_on,69,93,0
1,note_on,81,93,0
1,note_on,81,0,960
1,note_on,69,0,0
1,note_on,77,0,0
1,note_on,79,98,0
1,note_on,69,98,0
1,note_on,82,98,0
1,note_on,82,0,960
1,note_on,79,0,0
1,note_on,77,89,0
1,note_on,81,89,0
1,note_on,81,0,240
1,note_on,77,0,0
1,note_on,69,0,0
1,note_on,53,67,240
1,note_on,57,67,0
1,note_on,57,0,320
1,note_on,53,0,0
1,note_on,55,62,40
1,note_on,61,62,0
1,note_on,61,0,100
1,note_on,55,0,0
1,note_on,62,66,20
1,note_on,57,66,0
1,note_on,57,0,320
1,note_on,62,0,0
1,note_on,58,64,40
1,note_on,64,64,0
1,note_on,64,0,100
1,note_on,58,0,0
1,note_on,65,67,20
1,note_on,60,67,0
1,note_on,60,0,320
1,note_on,65,0,0
1,note_on,62,64,40
1,note_on,67,64,0
1,note_on,67,0,100
1,note_on,62,0,0
1,note_on,60,68,20
1,note_on,65,68,0
1,note_on,65,0,320
1,note_on,60,0,0
1,note_on,62,55,40
1,note_on,67,67,0
1,note_on,67,0,100
1,note_on,62,0,0
1,note_on,69,71,20
1,note_on,64,71,0
1,note_on,64,0,320
1,note_on,69,0,0
1,note_on,65,56,40
1,note_on,70,67,0
1,note_on,70,0,100
1,note_on,65,0,0
1,note_on,69,72,20
1,note_on,64,72,0
1,note_on,64,0,320
1,note_on,69,0,0
1,note_on,62,60,40
1,note_on,67,70,0
1,note_on,67,0,100
1,note_on,62,0,0
1,note_on,60,74,20
1,note_on,65,74,0
1,note_on,65,0,320
1,note_on,60,0,0
1,note_on,58,60,40
1,note_on,64,70,0
1,note_on,64,0,100
1,note_on,58,0,0
1,note_on,57,75,20
1,note_on,62,75,0
1,note_on,62,0,320
1,note_on,57,0,0
1,note_on,57,64,40
1,note_on,61,77,0
1,note_on,61,0,100
1,note_on,57,0,0
1,note_on,62,82,20
1,note_on,57,68,0
1,note_on,57,0,120
1,note_on,62,0,0
1,note_on,62,82,3720
1,note_on,74,92,0
1,note_on,62,0,476
1,note_on,74,0,484
1,note_on,79,91,0
1,note_on,67,81,0
1,note_on,67,0,480
1,note_on,79,0,0
1,note_on,69,83,0
1,note_on,81,93,0
1,note_on,81,0,480
1,note_on,69,0,0
1,note_on,70,81,0
1,note_on,82,91,0
1,note_on,82,0,480
1,note_on,70,0,0
1,note_on,69,82,0
1,note_on,81,92,0
1,note_on,81,0,960
1,note_on,69,0,0
1,note_on,74,85,0
1,note_on,62,76,0
1,note_on,62,0,180
1,note_on,74,0,0
1,note_on,72,84,300
1,note_on,84,94,0
1,note_on,84,0,480
1,note_on,72,0,0
1,note_on,82,96,0
1,note_on,70,86,0
1,note_on,70,0,960
1,note_on,82,0,0
1,note_on,74,91,0
1,note_on,62,81,0
1,note_on,62,0,180
1,note_on,74,0,0
1,note_on,70,85,300
1,note_on,82,95,0
1,note_on,82,0,480
1,note_on,70,0,0
1,note_on,81,91,0
1,note_on,69,81,0
1,note_on,69,0,960
1,note_on,81,0,0
1,note_on,62,74,0
1,note_on,74,83,0
1,note_on,74,0,180
1,note_on,62,0,0
1,note_on,62,86,300
1,note_on,74,96,0
1,note_on,74,0,960
1,note_on,62,0,0
1,note_on,67,84,0
1,note_on,79,94,0
1,note_on,79,0,480
1,note_on,67,0,0
1,note_on,82,105,0
1,note_on,70,94,0
1,note_on,70,0,480
1,note_on,82,0,0
1,note_on,74,92,0
1,note_on,86,103,0
1,note_on,86,0,480
1,note_on,74,0,0
1,note_on,87,110,0
1,note_on,75,99,0
1,note_on,75,0,960
1,note_on,87,0,0
1,note_on,67,74,0
1,note_on,79,83,0
1,note_on,79,0,180
1,note_on,67,0,0
1,note_on,75,94,300
1,note_on,87,105,0
1,note_on,87,0,480
1,note_on,75,0,0
1,note_on,74,94,0
1,note_on,86,105,0
1,note_on,86,0,960
1,note_on,74,0,0
1,note_on,67,74,0
1,note_on,79,83,0
1,note_on,79,0,180
1,note_on,67,0,0
1,note_on,74,87,300
1,note_on,86,97,0
1,note_on,86,0,960
1,note_on,74,0,0
1,note_on,77,85,0
1,note_on,89,95,0
1,note_on,89,0,480
1,note_on,77,0,0
1,note_on,91,104,0
1,note_on,79,93,0
1,note_on,79,0,480
1,note_on,91,0,0
1,note_on,93,100,0
1,note_on,81,90,0
1,note_on,81,0,480
1,note_on,93,0,0
1,note_on,81,98,0
1,note_on,93,109,0
1,note_on,93,0,920
1,note_on,81,0,0
1,note_on,93,105,40
1,note_on,81,94,0
1,note_on,81,0,920
1,note_on,93,0,0
1,note_on,89,89,40
1,note_on,77,80,0
1,note_on,77,0,960
1,note_on,89,0,0
1,note_on,86,81,0
1,note_on,74,72,0
1,note_on,74,0,200
1,note_on,86,0,0
1,note_on,69,52,760
1,note_on,81,52,0
1,note_on,81,0,920
1,note_on,69,0,0
1,note_on,81,52,40
1,note_on,69,52,0
1,note_on,69,0,920
1,note_on,81,0,0
1,note_on,65,49,40
1,note_on,77,49,0
1,note_on,77,0,960
1,note_on,65,0,0
1,note_on,74,45,0
1,note_on,62,45,0
1,note_on,62,0,200
1,note_on,74,0,0
1,note_on,63,37,760
1,note_on,75,37,0
1,note_on,75,0,960
1,note_on,63,0,0
1,note_on,72,27,0
1,note_on,60,27,0
1,note_on,60,0,200
1,note_on,72,0,0
1,note_on,63,34,760
1,note_on,75,34,0
1,note_on,75,0,960
1,note_on,63,0,0
1,note_on,72,27,0
1,note_on,60,27,0
1,note_on,60,0,200
1,note_on,72,0,0
1,note_on,69,34,760
1,note_on,75,34,0
1,note_on,75,0,960
1,note_on,72,27,0
1,note_on,69,0,180
1,note_on,72,0,20
1,note_on,69,34,760
1,note_on,75,34,0
1,note_on,75,0,960
1,note_on,72,27,0
1,note_on,69,0,180
1,note_on,72,0,20
1,note_on,76,34,760
1,note_on,69,34,0
1,note_on,76,0,960
1,note_on,73,27,0
1,note_on,69,0,180
1,note_on,73,0,20
1,note_on,68,34,760
1,note_on,76,34,0
1,note_on,76,0,960
1,note_on,71,27,0
1,note_on,68,0,180
1,note_on,71,0,20
1,note_on,73,34,760
1,note_on,61,34,0
1,note_on,61,0,280
1,note_on,73,0,0
1,note_on,61,29,40
1,note_on,73,29,0
1,note_on,73,0,280
1,note_on,61,0,0
1,note_on,73,29,40
1,note_on,61,29,0
1,note_on,61,0,280
1,note_on,73,0,0
1,note_on,61,23,40
1,note_on,73,27,0
1,note_on,73,0,840
1,note_on,61,0,0
1,note_on,61,39,120
1,note_on,69,39,0
1,note_on,69,0,470
1,note_on,61,0,0
1,note_on,61,34,10
1,note_on,73,34,0
1,note_on,73,0,470
1,note_on,61,0,0
1,note_on,71,38,10
1,note_on,61,38,0
1,note_on,61,0,470
1,note_on,71,0,0
1,note_on,61,35,10
1,note_on,73,35,0
1,note_on,73,0,470
1,note_on,61,0,0
1,note_on,66,39,10
1,note_on,62,39,0
1,note_on,62,0,280
1,note_on,66,0,0
1,note_on,62,30,40
1,note_on,66,30,0
1,note_on,66,0,280
1,note_on,62,0,0
1,note_on,62,30,40
1,note_on,66,30,0
1,note_on,66,0,280
1,note_on,62,0,0
1,note_on,62,25,40
1,note_on,66,25,0
1,note_on,66,0,840
1,note_on,62,0,0
1,note_on,62,38,120
1,note_on,66,38,0
1,note_on,66,0,470
1,note_on,62,0,0
1,note_on,64,31,10
1,note_on,71,31,0
1,note_on,62,31,0
1,note_on,62,0,470
1,note_on,71,0,0
1,note_on,64,0,0
1,note_on,64,37,10
1,note_on,62,37,0
1,note_on,69,37,0
1,note_on,69,0,470
1,note_on,62,0,0
1,note_on,64,0,0
1,note_on,71,29,10
1,note_on,62,29,0
1,note_on,64,29,0
1,note_on,64,0,470
1,note_on,62,0,0
1,note_on,71,0,0
1,note_on,64,36,10
1,note_on,61,36,0
1,note_on,61,0,280
1,note_on,64,0,0
1,note_on,61,29,40
1,note_on,64,29,0
1,note_on,64,0,280
1,note_on,61,0,0
1,note_on,64,29,40
1,note_on,61,29,0
1,note_on,61,0,280
1,note_on,64,0,0
1,note_on,61,20,40
1,note_on,69,32,0
1,note_on,69,0,840
1,note_on,61,0,0
1,note_on,61,50,120
1,note_on,69,50,0
1,note_on,69,0,470
1,note_on,61,0,0
1,note_on,61,40,10
1,note_on,73,40,0
1,note_on,73,0,470
1,note_on,61,0,0
1,note_on,61,42,10
1,note_on,71,42,0
1,note_on,71,0,470
1,note_on,61,0,0
1,note_on,61,42,10
1,note_on,73,42,0
1,note_on,73,0,470
1,note_on,61,0,0
1,note_on,69,48,10
1,note_on,62,48,0
1,note_on,74,48,0
1,note_on,74,0,280
1,note_on,62,0,0
1,note_on,69,0,0
1,note_on,62,40,40
1,note_on,74,40,0
1,note_on,69,40,0
1,note_on,69,0,280
1,note_on,74,0,0
1,note_on,62,0,0
1,note_on,74,40,40
1,note_on,69,40,0
1,note_on,62,40,0
1,note_on,62,0,280
1,note_on,69,0,0
1,note_on,74,0,0
1,note_on,62,36,40
1,note_on,69,36,0
1,note_on,74,36,0
1,note_on,74,0,840
1,note_on,69,0,0
1,note_on,62,0,0
1,note_on,74,42,120
1,note_on,66,42,0
1,note_on,78,42,0
1,note_on,78,0,280
1,note_on,66,0,0
1,note_on,74,0,0
1,note_on,66,38,40
1,note_on,78,38,0
1,note_on,74,38,0
1,note_on,74,0,280
1,note_on,78,0,0
1,note_on,66,0,0
1,note_on,74,38,40
1,note_on,66,38,0
1,note_on,78,38,0
1,note_on,78,0,280
1,note_on,66,0,0
1,note_on,74,0,0
1,note_on,66,42,40
1,note_on,78,42,0
1,note_on,74,42,0
1,note_on,66,0,470
1,note_on,74,0,450
1,note_on,78,0,0
1,note_on,69,40,40
1,note_on,73,40,0
1,note_on,81,40,0
1,note_on,81,0,280
1,note_on,73,0,0
1,note_on,69,0,0
1,note_on,81,36,40
1,note_on,73,36,0
1,note_on,69,36,0
1,note_on,69,0,280
1,note_on,73,0,0
1,note_on,81,0,0
1,note_on,73,36,40
1,note_on,69,36,0
1,note_on,81,36,0
1,note_on,81,0,280
1,note_on,69,0,0
1,note_on,73,0,0
1,note_on,69,23,40
1,note_on,81,27,0
1,note_on,73,23,0
1,note_on,73,0,840
1,note_on,81,0,0
1,note_on,69,0,0
1,note_on,68,45,120
1,note_on,74,45,0
1,note_on,83,45,0
1,note_on,83,0,470
1,note_on,74,0,0
1,note_on,68,0,0
1,note_on,80,36,10
1,note_on,74,36,0
1,note_on,71,36,0
1,note_on,71,0,470
1,note_on,74,0,0
1,note_on,80,0,0
1,note_on,71,41,10
1,note_on,76,41,0
1,note_on,76,0,470
1,note_on,71,0,0
1,note_on,69,34,10
1,note_on,74,34,0
1,note_on,74,0,470
1,note_on,69,0,0
1,note_on,73,35,10
1,note_on,69,35,0
1,note_on,69,0,280
1,note_on,73,0,0
1,note_on,69,27,40
1,note_on,73,27,0
1,note_on,73,0,280
1,note_on,69,0,0
1,note_on,73,26,40
1,note_on,69,26,0
1,note_on,69,0,280
1,note_on,73,0,0
1,note_on,69,19,40
1,note_on,73,23,0
1,note_on,73,0,840
1,note_on,69,0,0
1,note_on,68,44,120
1,note_on,74,44,0
1,note_on,83,44,0
1,note_on,83,0,470
1,note_on,74,0,0
1,note_on,68,0,0
1,note_on,80,33,10
1,note_on,71,33,0
1,note_on,74,33,0
1,note_on,74,0,470
1,note_on,71,0,0
1,note_on,80,0,0
1,note_on,71,38,10
1,note_on,76,38,0
1,note_on,76,0,470
1,note_on,71,0,0
1,note_on,74,33,10
1,note_on,69,33,0
1,note_on,69,0,470
1,note_on,74,0,0
1,note_on,73,35,10
1,note_on,69,35,0
1,note_on,69,0,280
1,note_on,73,0,0
1,note_on,69,31,40
1,note_on,73,31,0
1,note_on,73,0,280
1,note_on,69,0,0
1,note_on,73,28,40
1,note_on,69,28,0
1,note_on,69,0,280
1,note_on,73,0,0
1,note_on,69,19,40
1,note_on,73,23,0
1,note_on,73,0,840
1,note_on,69,0,0
1,note_on,69,35,120
1,note_on,69,0,470
1,note_on,73,31,10
1,note_on,69,26,0
1,note_on,69,0,470
1,note_on,73,0,0
1,note_on,69,29,10
1,note_on,71,35,0
1,note_on,71,0,470
1,note_on,69,0,0
1,note_on,69,27,10
1,note_on,73,33,0
1,note_on,73,0,470
1,note_on,69,0,0
1,note_on,69,34,10
1,note_on,76,34,0
1,note_on,76,0,280
1,note_on,69,0,0
1,note_on,76,30,40
1,note_on,69,30,0
1,note_on,69,0,280
1,note_on,76,0,0
1,note_on,69,29,40
1,note_on,76,29,0
1,note_on,76,0,280
1,note_on,69,0,0
1,note_on,75,24,40
1,note_on,69,18,0
1,note_on,69,0,240
1,note_on,75,0,0
1,note_on,88,37,720
1,note_on,93,37,0
1,note_on,81,37,0
1,note_on,81,0,280
1,note_on,93,0,0
1,note_on,88,0,0
1,note_on,93,31,40
1,note_on,81,31,0
1,note_on,88,31,0
1,note_on,88,0,280
1,note_on,81,0,0
1,note_on,93,0,0
1,note_on,93,30,40
1,note_on,88,30,0
1,note_on,81,30,0
1,note_on,81,0,280
1,note_on,88,0,0
1,note_on,93,0,0
1,note_on,86,24,40
1,note_on,93,24,0
1,note_on,81,24,0
1,note_on,81,0,440
1,note_on,93,0,0
1,note_on,86,0,0
1,note_on,69,34,520
1,note_on,74,34,0
1,note_on,74,0,280
1,note_on,69,0,0
1,note_on,69,29,40
1,note_on,74,29,0
1,note_on,74,0,280
1,note_on,69,0,0
1,note_on,69,29,40
1,note_on,74,29,0
1,note_on,74,0,280
1,note_on,69,0,0
1,note_on,73,27,40
1,note_on,69,27,0
1,note_on,69,0,440
1,note_on,73,0,0
1,note_on,93,37,520
1,note_on,86,37,0
1,note_on,81,37,0
1,note_on,81,0,280
1,note_on,86,0,0
1,note_on,93,0,0
1,note_on,81,33,40
1,note_on,86,33,0
1,note_on,93,33,0
1,note_on,93,0,280
1,note_on,86,0,0
1,note_on,81,0,0
1,note_on,93,30,40
1,note_on,86,30,0
1,note_on,81,30,0
1,note_on,81,0,280
1,note_on,86,0,0
1,note_on,93,0,0
1,note_on,93,27,40
1,note_on,81,27,0
1,note_on,84,27,0
1,note_on,84,0,440
1,note_on,81,0,0
1,note_on,93,0,0
1,note_on,59,85,520
1,note_on,71,85,0
1,note_on,69,85,0
1,note_on,65,85,0
1,note_on,65,0,280
1,note_on,59,0,0
1,note_on,71,0,0
1,note_on,69,0,0
1,note_on,65,79,40
1,note_on,71,79,0
1,note_on,69,79,0
1,note_on,59,79,0
1,note_on,59,0,280
1,note_on,65,0,0
1,note_on,71,0,0
1,note_on,69,0,0
1,note_on,69,73,40
1,note_on,71,73,0
1,note_on,65,73,0
1,note_on,59,73,0
1,note_on,59,0,280
1,note_on,69,0,0
1,note_on,71,0,0
1,note_on,65,0,0
1,note_on,59,57,40
1,note_on,71,57,0
1,note_on,69,57,0
1,note_on,65,57,0
1,note_on,65,0,440
1,note_on,59,0,0
1,note_on,71,0,0
1,note_on,69,0,0
1,note_on,78,46,520
1,note_on,81,46,0
1,note_on,83,55,0
1,note_on,83,0,470
1,note_on,81,0,0
1,note_on,78,0,0
1,note_on,85,46,10
1,note_on,76,37,0
1,note_on,81,37,0
1,note_on,81,0,470
1,note_on,76,0,0
1,note_on,85,0,0
1,note_on,74,42,10
1,note_on,81,42,0
1,note_on,86,50,0
1,note_on,86,0,470
1,note_on,81,0,0
1,note_on,74,0,0
1,note_on,85,46,10
1,note_on,76,37,0
1,note_on,81,37,0
1,note_on,81,0,470
1,note_on,76,0,0
1,note_on,85,0,0
1,note_on,88,50,10
1,note_on,81,50,0
1,note_on,76,50,0
1,note_on,76,0,280
1,note_on,81,0,0
1,note_on,88,0,0
1,note_on,76,42,40
1,note_on,88,42,0
1,note_on,81,42,0
1,note_on,81,0,280
1,note_on,88,0,0
1,note_on,76,0,0
1,note_on,88,41,40
1,note_on,81,41,0
1,note_on,76,41,0
1,note_on,76,0,280
1,note_on,81,0,0
1,note_on,88,0,0
1,note_on,80,28,40
1,note_on,88,23,0
1,note_on,76,23,0
1,note_on,76,0,440
1,note_on,88,0,0
1,note_on,80,0,0
1,note_on,69,37,520
1,note_on,73,37,0
1,note_on,73,0,280
1,note_on,69,0,0
1,note_on,73,30,40
1,note_on,69,30,0
1,note_on,69,0,280
1,note_on,73,0,0
1,note_on,69,29,40
1,note_on,73,29,0
1,note_on,73,0,280
1,note_on,69,0,0
1,note_on,69,23,40
1,note_on,73,23,0
1,note_on,73,0,440
1,note_on,69,0,0
1,note_on,69,85,520
1,note_on,71,85,0
1,note_on,65,85,0
1,note_on,59,85,0
1,note_on,59,0,280
1,note_on,69,0,0
1,note_on,71,0,0
1,note_on,65,0,0
1,note_on,59,79,40
1,note_on,65,79,0
1,note_on,71,79,0
1,note_on,69,79,0
1,note_on,69,0,280
1,note_on,59,0,0
1,note_on,65,0,0
1,note_on,71,0,0
1,note_on,59,72,40
1,note_on,65,72,0
1,note_on,69,72,0
1,note_on,71,72,0
1,note_on,71,0,280
1,note_on,59,0,0
1,note_on,65,0,0
1,note_on,69,0,0
1,note_on,71,56,40
1,note_on,69,56,0
1,note_on,65,56,0
1,note_on,59,56,0
1,note_on,59,0,440
1,note_on,71,0,0
1,note_on,69,0,0
1,note_on,65,0,0
1,note_on,78,46,520
1,note_on,83,55,0
1,note_on,81,46,0
1,note_on,81,0,470
1,note_on,83,0,0
1,note_on,78,0,0
1,note_on,81,41,10
1,note_on,76,41,0
1,note_on,85,49,0
1,note_on,85,0,470
1,note_on,76,0,0
1,note_on,81,0,0
1,note_on,86,53,10
1,note_on,74,44,0
1,note_on,81,44,0
1,note_on,81,0,470
1,note_on,74,0,0
1,note_on,86,0,0
1,note_on,81,39,10
1,note_on,76,39,0
1,note_on,85,47,0
1,note_on,85,0,470
1,note_on,76,0,0
1,note_on,81,0,0
1,note_on,88,50,10
1,note_on,76,50,0
1,note_on,81,50,0
1,note_on,81,0,280
1,note_on,76,0,0
1,note_on,88,0,0
1,note_on,88,47,40
1,note_on,81,47,0
1,note_on,76,47,0
1,note_on,76,0,280
1,note_on,81,0,0
1,note_on,88,0,0
1,note_on,76,47,40
1,note_on,81,47,0
1,note_on,88,47,0
1,note_on,88,0,280
1,note_on,81,0,0
1,note_on,76,0,0
1,note_on,88,27,40
1,note_on,76,26,0
1,note_on,80,33,0
1,note_on,80,0,440
1,note_on,76,0,0
1,note_on,88,0,0
1,note_on,69,106,520
1,note_on,57,95,0
1,note_on,57,0,280
1,note_on,69,0,0
1,note_on,57,88,40
1,note_on,69,97,0
1,note_on,69,0,280
1,note_on,57,0,0
1,note_on,57,78,40
1,note_on,69,86,0
1,note_on,69,0,280
1,note_on,57,0,0
1,note_on,57,69,40
1,note_on,69,77,0
1,note_on,69,0,440
1,note_on,57,0,0
1,note_on,64,36,520
1,note_on,61,36,0
1,note_on,61,0,470
1,note_on,64,0,0
1,note_on,61,30,10
1,note_on,73,30,0
1,note_on,73,0,470
1,note_on,61,0,0
1,note_on,71,37,10
1,note_on,61,37,0
1,note_on,61,0,470
1,note_on,71,0,0
1,note_on,61,30,10
1,note_on,73,30,0
1,note_on,73,0,470
1,note_on,61,0,0
1,note_on,73,39,10
1,note_on,65,24,0
1,note_on,76,39,0
1,note_on,76,0,920
1,note_on,65,0,0
1,note_on,73,0,0
1,note_on,65,22,40
1,note_on,71,23,0
1,note_on,74,23,0
1,note_on,74,0,240
1,note_on,71,0,0
1,note_on,65,0,0
1,note_on,76,39,720
1,note_on,64,29,0
1,note_on,73,39,0
1,note_on,73,0,920
1,note_on,64,0,0
1,note_on,76,0,0
1,note_on,64,19,40
1,note_on,71,23,0
1,note_on,74,23,0
1,note_on,74,0,240
1,note_on,71,0,0
1,note_on,64,0,0
1,note_on,81,106,720
1,note_on,69,95,0
1,note_on,69,0,280
1,note_on,81,0,0
1,note_on,69,89,40
1,note_on,81,100,0
1,note_on,81,0,280
1,note_on,69,0,0
1,note_on,69,84,40
1,note_on,81,94,0
1,note_on,81,0,280
1,note_on,69,0,0
1,note_on,69,67,40
1,note_on,81,74,0
1,note_on,81,0,440
1,note_on,69,0,0
1,note_on,61,38,520
1,note_on,64,38,0
1,note_on,64,0,470
1,note_on,61,0,0
1,note_on,61,31,10
1,note_on,73,31,0
1,note_on,73,0,470
1,note_on,61,0,0
1,note_on,71,42,10
1,note_on,61,42,0
1,note_on,61,0,470
1,note_on,71,0,0
1,note_on,73,38,10
1,note_on,61,38,0
1,note_on,61,0,470
1,note_on,73,0,0
1,note_on,66,37,10
1,note_on,74,44,0
1,note_on,78,44,0
1,note_on,78,0,920
1,note_on,74,0,0
1,note_on,66,0,0
1,note_on,71,23,40
1,note_on,66,19,0
1,note_on,74,23,0
1,note_on,74,0,360
1,note_on,66,0,0
1,note_on,71,0,0
1,note_on,73,41,600
1,note_on,64,35,0
1,note_on,76,41,0
1,note_on,76,0,920
1,note_on,64,0,0
1,note_on,73,0,0
1,note_on,71,25,40
1,note_on,64,24,0
1,note_on,74,25,0
1,note_on,74,0,360
1,note_on,64,0,0
1,note_on,71,0,0
1,note_on,71,35,600
1,note_on,74,41,0
1,note_on,64,35,0
1,note_on,64,0,920
1,note_on,74,0,0
1,note_on,71,0,0
1,note_on,64,23,40
1,note_on,69,23,0
1,note_on,72,25,0
1,note_on,72,0,360
1,note_on,69,0,0
1,note_on,64,0,0
1,note_on,72,42,600
1,note_on,62,36,0
1,note_on,65,36,0
1,note_on,65,0,920
1,note_on,62,0,0
1,note_on,72,0,0
1,note_on,62,24,40
1,note_on,65,23,0
1,note_on,70,25,0
1,note_on,70,0,360
1,note_on,65,0,0
1,note_on,62,0,0
1,note_on,70,41,600
1,note_on,60,35,0
1,note_on,64,35,0
1,note_on,64,0,920
1,note_on,70,0,0
1,note_on,60,0,40
1,note_on,64,39,0
1,note_on,69,25,0
1,note_on,60,20,0
1,note_on,60,0,360
1,note_on,69,0,0
1,note_on,64,0,600
1,note_on,63,37,0
1,note_on,63,0,960
1,note_on,64,35,0
1,note_on,64,0,360
1,note_on,69,29,2520
1,note_on,64,29,0
1,note_on,59,41,0
1,note_on,64,0,920
1,note_on,69,0,0
1,note_on,59,0,40
1,note_on,64,39,0
1,note_on,59,25,0
1,note_on,68,25,0
1,note_on,68,0,440
1,note_on,59,0,0
1,note_on,64,0,520
1,note_on,63,37,0
1,note_on,63,0,960
1,note_on,64,35,0
1,note_on,64,0,360
1,note_on,57,28,2520
1,note_on,63,28,0
1,note_on,66,28,0
1,note_on,66,0,2400
1,note_on,63,0,0
1,note_on,57,0,0
1,note_on,66,28,1440
1,note_on,63,28,0
1,note_on,57,28,0
1,note_on,57,0,2400
1,note_on,63,0,0
1,note_on,66,0,0
1,note_on,63,34,1440
1,note_on,75,34,0
1,note_on,75,0,960
1,note_on,63,0,0
1,note_on,60,25,0
1,note_on,72,25,0
1,note_on,72,0,180
1,note_on,60,0,0
1,note_on,75,31,780
1,note_on,63,31,0
1,note_on,63,0,960
1,note_on,75,0,0
1,note_on,60,25,0
1,note_on,72,25,0
1,note_on,72,0,180
1,note_on,60,0,0
1,note_on,75,36,780
1,note_on,63,36,0
1,note_on,63,0,480
1,note_on,75,0,0
1,note_on,60,34,0
1,note_on,72,34,0
1,note_on,72,0,180
1,note_on,60,0,0
1,note_on,63,46,300
1,note_on,75,46,0
1,note_on,75,0,480
1,note_on,63,0,0
1,note_on,60,40,0
1,note_on,72,40,0
1,note_on,72,0,180
1,note_on,60,0,0
1,note_on,63,59,300
1,note_on,75,59,0
1,note_on,75,0,480
1,note_on,63,0,0
1,note_on,72,57,0
1,note_on,60,57,0
1,note_on,60,0,180
1,note_on,72,0,0
1,note_on,63,71,300
1,note_on,75,71,0
1,note_on,75,0,480
1,note_on,63,0,0
1,note_on,72,66,0
1,note_on,60,66,0
1,note_on,60,0,180
1,note_on,72,0,0
1,note_on,64,92,300
1,note_on,64,0,120
1,note_on,76,82,0
1,note_on,76,0,120
1,note_on,64,78,0
1,note_on,64,0,120
1,note_on,76,74,0
1,note_on,76,0,120
1,note_on,64,69,0
1,note_on,64,0,120
1,note_on,76,66,0
1,note_on,76,0,120
1,note_on,64,62,0
1,note_on,64,0,120
1,note_on,76,60,0
1,note_on,76,0,120
1,note_on,64,70,0
1,note_on,64,0,120
1,note_on,76,67,0
1,note_on,76,0,120
1,note_on,64,65,0
1,note_on,64,0,120
1,note_on,76,62,0
1,note_on,76,0,120
1,note_on,64,70,0
1,note_on,64,0,120
1,note_on,76,67,0
1,note_on,76,0,120
1,note_on,64,64,0
1,note_on,64,0,120
1,note_on,76,61,0
1,note_on,76,0,120
1,note_on,61,96,0
1,note_on,61,0,120
1,note_on,73,84,0
1,note_on,73,0,120
1,note_on,61,79,0
1,note_on,61,0,120
1,note_on,73,74,0
1,note_on,73,0,120
1,note_on,61,69,0
1,note_on,61,0,120
1,note_on,73,65,0
1,note_on,73,0,120
1,note_on,61,62,0
1,note_on,61,0,120
1,note_on,73,55,0
1,note_on,73,0,120
1,note_on,61,73,0
1,note_on,61,0,120
1,note_on,73,69,0
1,note_on,73,0,120
1,note_on,61,66,0
1,note_on,61,0,120
1,note_on,73,56,0
1,note_on,73,0,120
1,note_on,61,72,0
1,note_on,61,0,120
1,note_on,73,69,0
1,note_on,73,0,120
1,note_on,61,66,0
1,note_on,61,0,120
1,note_on,73,63,0
1,note_on,73,0,120
1,note_on,76,102,0
1,note_on,88,102,0
1,note_on,88,0,480
1,note_on,76,0,0
1,note_on,73,94,0
1,note_on,85,94,0
1,note_on,85,0,180
1,note_on,73,0,0
1,note_on,88,101,300
1,note_on,76,101,0
1,note_on,76,0,480
1,note_on,88,0,0
1,note_on,93,94,0
1,note_on,81,94,0
1,note_on,81,0,180
1,note_on,93,0,0
1,note_on,76,93,300
1,note_on,88,93,0
1,note_on,88,0,480
1,note_on,76,0,0
1,note_on,73,86,0
1,note_on,85,86,0
1,note_on,85,0,180
1,note_on,73,0,0
1,note_on,81,78,300
1,note_on,69,78,0
1,note_on,69,0,480
1,note_on,81,0,0
1,note_on,76,68,0
1,note_on,64,68,0
1,note_on,64,0,180
1,note_on,76,0,0
1,note_on,61,34,300
1,note_on,69,34,0
1,note_on,73,34,0
1,note_on,73,0,1920
1,note_on,69,0,0
1,note_on,61,0,0
1,note_on,62,38,0
1,note_on,76,38,0
1,note_on,68,38,0
1,note_on,68,0,1920
1,note_on,76,0,0
1,note_on,62,0,0
1,note_on,64,97,0
1,note_on,64,0,120
1,note_on,76,90,0
1,note_on,76,0,120
1,note_on,64,86,0
1,note_on,64,0,120
1,note_on,76,83,0
1,note_on,76,0,120
1,note_on,61,88,0
1,note_on,61,0,120
1,note_on,73,85,0
1,note_on,73,0,120
1,note_on,61,82,0
1,note_on,61,0,120
1,note_on,73,78,0
1,note_on,73,0,120
1,note_on,64,87,0
1,note_on,64,0,120
1,note_on,76,85,0
1,note_on,76,0,120
1,note_on,64,83,0
1,note_on,64,0,120
1,note_on,76,80,0
1,note_on,76,0,120
1,note_on,69,89,0
1,note_on,69,0,120
1,note_on,81,86,0
1,note_on,81,0,120
1,note_on,69,84,0
1,note_on,69,0,120
1,note_on,81,81,0
1,note_on,81,0,120
1,note_on,73,94,0
1,note_on,73,0,120
1,note_on,85,92,0
1,note_on,85,0,120
1,note_on,73,90,0
1,note_on,73,0,120
1,note_on,85,88,0
1,note_on,85,0,120
1,note_on,76,102,0
1,note_on,76,0,120
1,note_on,88,98,0
1,note_on,88,0,120
1,note_on,76,94,0
1,note_on,76,0,120
1,note_on,88,90,0
1,note_on,88,0,120
1,note_on,81,109,0
1,note_on,81,0,120
1,note_on,93,100,0
1,note_on,93,0,120
1,note_on,81,94,0
1,note_on,81,0,120
1,note_on,93,88,0
1,note_on,93,0,120
1,note_on,76,83,0
1,note_on,76,0,120
1,note_on,88,77,0
1,note_on,88,0,120
1,note_on,76,70,0
1,note_on,76,0,120
1,note_on,88,60,0
1,note_on,88,0,120
1,note_on,69,35,0
1,note_on,61,35,0
1,note_on,73,35,0
1,note_on,73,0,1920
1,note_on,61,0,0
1,note_on,69,0,0
1,note_on,68,36,0
1,note_on,76,43,0
1,note_on,62,36,0
1,note_on,62,0,1920
1,note_on,76,0,0
1,note_on,68,0,0
1,note_on,49,34,0
1,note_on,61,34,0
1,note_on,61,0,920
1,note_on,49,0,0
1,note_on,57,21,40
1,note_on,49,21,0
1,note_on,49,0,360
1,note_on,57,0,0
1,note_on,74,42,600
1,note_on,80,42,0
1,note_on,88,42,0
1,note_on,88,0,920
1,note_on,80,0,0
1,note_on,74,0,0
1,note_on,80,28,40
1,note_on,74,28,0
1,note_on,74,0,360
1,note_on,80,0,0
1,note_on,49,34,600
1,note_on,61,34,0
1,note_on,61,0,920
1,note_on,49,0,0
1,note_on,49,23,40
1,note_on,57,23,0
1,note_on,57,0,360
1,note_on,49,0,0
1,note_on,74,42,600
1,note_on,88,42,0
1,note_on,80,42,0
1,note_on,80,0,920
1,note_on,88,0,0
1,note_on,74,0,0
1,note_on,74,28,40
1,note_on,80,28,0
1,note_on,80,0,360
1,note_on,74,0,0
1,note_on,49,34,600
1,note_on,61,34,0
1,note_on,61,0,920
1,note_on,49,0,0
1,note_on,49,20,40
1,note_on,57,20,0
1,note_on,57,0,360
1,note_on,49,0,0
1,note_on,74,42,600
1,note_on,80,42,0
1,note_on,88,42,0
1,note_on,88,0,920
1,note_on,80,0,0
1,note_on,74,0,0
1,note_on,80,26,40
1,note_on,74,26,0
1,note_on,74,0,360
1,note_on,80,0,0
1,note_on,74,42,600
1,note_on,80,42,0
1,note_on,88,42,0
1,note_on,88,0,920
1,note_on,80,0,0
1,note_on,74,0,0
1,note_on,80,28,40
1,note_on,74,28,0
1,note_on,74,0,360
1,note_on,80,0,0
1,note_on,88,42,600
1,note_on,80,42,0
1,note_on,74,42,0
1,note_on,74,0,920
1,note_on,80,0,0
1,note_on,88,0,0
1,note_on,74,28,40
1,note_on,80,28,0
1,note_on,80,0,360
1,note_on,74,0,0
1,note_on,73,98,600
1,note_on,85,98,0
1,note_on,85,0,3840
1,note_on,73,0,0
1,note_on,69,24,0
1,note_on,81,38,0
1,note_on,81,0,3840
1,note_on,69,0,0
1,note_on,49,24,0
1,note_on,61,30,0
1,note_on,57,24,0
1,note_on,52,24,0
1,note_on,52,0,920
1,note_on,49,0,0
1,note_on,61,0,0
1,note_on,57,0,0
1,note_on,49,24,40
1,note_on,52,24,0
1,note_on,57,24,0
1,note_on,61,30,0
1,note_on,61,0,920
1,note_on,49,0,0
1,note_on,52,0,0
1,note_on,57,0,0
1,note_on,52,24,40
1,note_on,61,30,0
1,note_on,57,24,0
1,note_on,49,24,0
1,note_on,49,0,1920
1,note_on,52,0,0
1,note_on,61,0,0
1,note_on,57,0,0
2,note_on,57,42,1
2,note_on,64,42,880
2,note_on,57,0,1
2,note_on,64,0,587
2,note_on,63,44,0
2,note_on,63,0,794
2,note_on,64,38,0
2,note_on,64,0,200
2,note_on,60,39,280
2,note_on,59,39,300
2,note_on,60,0,20
2,note_on,57,38,100
2,note_on,59,0,6
2,note_on,57,0,800
2,note_on,52,52,0
2,note_on,52,0,613
2,note_on,48,47,0
2,note_on,48,0,794
2,note_on,45,39,0
2,note_on,45,0,180
2,note_on,45,42,699
2,note_on,45,0,853
2,note_on,38,45,0
2,note_on,38,0,507
2,note_on,37,48,0
2,note_on,37,0,822
2,note_on,38,42,0
2,note_on,38,0,200
2,note_on,45,44,280
2,note_on,47,45,300
2,note_on,45,0,20
2,note_on,48,45,100
2,note_on,47,0,11
2,note_on,48,0,747
2,note_on,40,47,0
2,note_on,40,0,560
2,note_on,36,45,0
2,note_on,36,0,815
2,note_on,33,41,0
2,note_on,33,0,45
2,note_on,38,35,760
2,note_on,45,35,0
2,note_on,41,35,0
2,note_on,41,0,896
2,note_on,45,0,0
2,note_on,38,0,0
2,note_on,33,33,0
2,note_on,33,0,56
2,note_on,36,36,840
2,note_on,45,36,0
2,note_on,40,36,0
2,note_on,40,0,904
2,note_on,45,0,0
2,note_on,36,0,0
2,note_on,33,35,0
2,note_on,33,0,64
2,note_on,41,36,445
2,note_on,45,36,0
2,note_on,38,36,0
2,note_on,38,0,960
2,note_on,45,0,0
2,note_on,41,0,0
2,note_on,33,34,0
2,note_on,33,0,42
2,note_on,36,36,311
2,note_on,40,36,0
2,note_on,45,36,0
2,note_on,45,0,776
2,note_on,40,0,0
2,note_on,36,0,0
2,note_on,33,34,0
2,note_on,33,0,136
2,note_on,38,37,374
2,note_on,41,37,0
2,note_on,45,37,0
2,note_on,45,0,769
2,note_on,41,0,0
2,note_on,38,0,0
2,note_on,33,35,0
2,note_on,33,0,161
2,note_on,36,36,353
2,note_on,40,36,0
2,note_on,45,36,0
2,note_on,45,0,791
2,note_on,40,0,0
2,note_on,36,0,0
2,note_on,33,33,0
2,note_on,33,0,108
2,note_on,53,45,388
2,note_on,57,45,0
2,note_on,50,45,0
2,note_on,50,0,960
2,note_on,57,0,0
2,note_on,53,0,0
2,note_on,45,35,0
2,note_on,45,0,21
2,note_on,48,41,346
2,note_on,52,41,0
2,note_on,57,41,0
2,note_on,57,0,803
2,note_on,52,0,2
2,note_on,48,0,0
2,note_on,45,36,0
2,note_on,45,0,144
2,note_on,47,70,438
2,note_on,52,70,0
2,note_on,55,70,0
2,note_on,55,0,960
2,note_on,52,0,0
2,note_on,47,0,0
2,note_on,43,54,0
2,note_on,43,0,145
2,note_on,51,63,356
2,note_on,54,71,0
2,note_on,42,63,0
2,note_on,42,0,767
2,note_on,54,0,0
2,note_on,51,0,0
2,note_on,47,54,80
2,note_on,51,54,0
2,note_on,59,61,0
2,note_on,59,0,728
2,note_on,51,0,0
2,note_on,47,0,0
2,note_on,55,49,80
2,note_on,43,49,0
2,note_on,43,0,854
2,note_on,55,0,0
2,note_on,52,42,0
2,note_on,40,42,0
2,note_on,40,0,175
2,note_on,52,0,0
2,note_on,30,26,760
2,note_on,42,26,0
2,note_on,39,26,0
2,note_on,39,0,852
2,note_on,42,0,0
2,note_on,30,0,0
2,note_on,35,24,80
2,note_on,39,24,0
2,note_on,47,24,0
2,note_on,47,0,792
2,note_on,39,0,0
2,note_on,35,0,0
2,note_on,43,30,80
2,note_on,31,30,0
2,note_on,31,0,826
2,note_on,43,0,0
2,note_on,28,27,0
2,note_on,40,27,0
2,note_on,40,0,175
2,note_on,28,0,0
2,note_on,40,30,760
2,note_on,41,23,1080
2,note_on,40,0,20
2,note_on,40,27,100
2,note_on,41,0,20
2,note_on,41,25,100
2,note_on,40,0,20
2,note_on,40,29,100
2,note_on,41,0,20
2,note_on,41,22,100
2,note_on,40,0,20
2,note_on,40,27,100
2,note_on,41,0,20
2,note_on,41,23,100
2,note_on,40,0,20
2,note_on,40,31,100
2,note_on,41,0,20
2,note_on,41,28,100
2,note_on,40,0,20
2,note_on,40,31,100
2,note_on,41,0,20
2,note_on,41,25,100
2,note_on,40,0,20
2,note_on,40,34,100
2,note_on,41,0,20
2,note_on,41,30,100
2,note_on,40,0,20
2,note_on,40,34,100
2,note_on,41,0,20
2,note_on,41,29,100
2,note_on,40,0,20
2,note_on,40,34,100
2,note_on,41,0,20
2,note_on,41,28,100
2,note_on,40,0,20
2,note_on,40,34,100
2,note_on,41,0,20
2,note_on,41,29,100
2,note_on,40,0,20
2,note_on,40,34,100
2,note_on,41,0,20
2,note_on,41,29,100
2,note_on,40,0,20
2,note_on,40,34,100
2,note_on,41,0,20
2,note_on,41,30,100
2,note_on,40,0,20
2,note_on,40,39,100
2,note_on,41,0,20
2,note_on,41,33,100
2,note_on,40,0,20
2,note_on,40,39,100
2,note_on,41,0,20
2,note_on,41,33,100
2,note_on,40,0,20
2,note_on,40,39,100
2,note_on,41,0,20
2,note_on,41,33,100
2,note_on,40,0,20
2,note_on,40,40,100
2,note_on,41,0,20
2,note_on,41,35,100
2,note_on,40,0,20
2,note_on,40,40,100
2,note_on,41,0,20
2,note_on,41,35,100
2,note_on,40,0,20
2,note_on,40,41,100
2,note_on,41,0,20
2,note_on,41,34,100
2,note_on,40,0,20
2,note_on,40,41,100
2,note_on,41,0,20
2,note_on,41,36,100
2,note_on,40,0,20
2,note_on,40,42,100
2,note_on,41,0,20
2,note_on,41,37,100
2,note_on,40,0,20
2,note_on,40,47,100
2,note_on,41,0,20
2,note_on,41,39,100
2,note_on,40,0,20
2,note_on,40,47,100
2,note_on,41,0,20
2,note_on,41,39,100
2,note_on,40,0,20
2,note_on,40,48,100
2,note_on,41,0,20
2,note_on,41,40,100
2,note_on,40,0,20
2,note_on,40,48,100
2,note_on,41,0,20
2,note_on,41,42,100
2,note_on,40,0,20
2,note_on,40,49,100
2,note_on,41,0,20
2,note_on,41,43,100
2,note_on,40,0,20
2,note_on,40,54,100
2,note_on,41,0,20
2,note_on,41,48,100
2,note_on,40,0,20
2,note_on,40,62,100
2,note_on,41,0,20
2,note_on,41,63,100
2,note_on,40,0,20
2,note_on,40,71,100
2,note_on,41,0,20
2,note_on,44,79,100
2,note_on,40,0,20
2,note_on,33,80,100
2,note_on,45,80,0
2,note_on,44,0,20
2,note_on,45,0,747
2,note_on,33,0,0
2,note_on,40,76,0
2,note_on,52,76,0
2,note_on,52,0,560
2,note_on,40,0,0
2,note_on,51,73,0
2,note_on,39,73,0
2,note_on,39,0,820
2,note_on,51,0,0
2,note_on,40,66,0
2,note_on,52,66,0
2,note_on,52,0,240
2,note_on,40,0,0
2,note_on,52,48,240
2,note_on,64,48,0
2,note_on,64,0,217
2,note_on,52,0,0
2,note_on,50,46,120
2,note_on,62,46,0
2,note_on,62,0,70
2,note_on,50,0,0
2,note_on,60,48,30
2,note_on,48,48,0
2,note_on,48,0,163
2,note_on,60,0,0
2,note_on,59,46,120
2,note_on,47,46,0
2,note_on,47,0,79
2,note_on,59,0,0
2,note_on,57,43,30
2,note_on,45,43,0
2,note_on,45,0,160
2,note_on,57,0,0
2,note_on,44,42,120
2,note_on,56,42,0
2,note_on,56,0,65
2,note_on,44,0,0
2,note_on,57,46,30
2,note_on,45,46,0
2,note_on,45,0,134
2,note_on,57,0,0
2,note_on,55,40,120
2,note_on,43,40,0
2,note_on,43,0,73
2,note_on,55,0,0
2,note_on,53,46,30
2,note_on,41,46,0
2,note_on,41,0,151
2,note_on,53,0,0
2,note_on,52,42,120
2,note_on,40,42,0
2,note_on,40,0,47
2,note_on,52,0,0
2,note_on,53,48,30
2,note_on,41,48,0
2,note_on,41,0,160
2,note_on,53,0,0
2,note_on,56,46,120
2,note_on,44,46,0
2,note_on,44,0,74
2,note_on,56,0,0
2,note_on,45,48,30
2,note_on,57,48,0
2,note_on,57,0,146
2,note_on,45,0,0
2,note_on,47,46,120
2,note_on,59,46,0
2,note_on,59,0,67
2,note_on,47,0,0
2,note_on,48,52,30
2,note_on,60,52,0
2,note_on,60,0,169
2,note_on,48,0,0
2,note_on,50,48,120
2,note_on,62,48,0
2,note_on,62,0,70
2,note_on,50,0,0
2,note_on,60,53,30
2,note_on,48,53,0
2,note_on,48,0,120
2,note_on,60,0,0
2,note_on,45,90,360
2,note_on,45,0,833
2,note_on,38,86,0
2,note_on,45,86,0
2,note_on,45,0,587
2,note_on,38,0,0
2,note_on,37,71,0
2,note_on,45,71,0
2,note_on,37,0,4
2,note_on,38,71,0
2,note_on,38,0,240
2,note_on,45,0,0
2,note_on,57,53,240
2,note_on,69,53,0
2,note_on,69,0,187
2,note_on,57,0,0
2,note_on,55,52,120
2,note_on,67,52,0
2,note_on,67,0,82
2,note_on,55,0,0
2,note_on,53,48,30
2,note_on,65,48,0
2,note_on,65,0,91
2,note_on,53,0,0
2,note_on,52,46,120
2,note_on,64,46,0
2,note_on,64,0,70
2,note_on,52,0,0
2,note_on,62,43,30
2,note_on,50,43,0
2,note_on,50,0,97
2,note_on,62,0,0
2,note_on,49,42,120
2,note_on,61,42,0
2,note_on,61,0,73
2,note_on,49,0,0
2,note_on,50,46,30
2,note_on,62,46,0
2,note_on,62,0,97
2,note_on,50,0,0
2,note_on,48,40,120
2,note_on,60,40,0
2,note_on,60,0,67
2,note_on,48,0,0
2,note_on,46,46,30
2,note_on,58,46,0
2,note_on,58,0,126
2,note_on,46,0,0
2,note_on,57,42,120
2,note_on,45,42,0
2,note_on,45,0,70
2,note_on,57,0,0
2,note_on,58,47,30
2,note_on,46,47,0
2,note_on,46,0,151
2,note_on,58,0,0
2,note_on,61,46,120
2,note_on,49,46,0
2,note_on,49,0,64
2,note_on,61,0,0
2,note_on,62,48,30
2,note_on,50,48,0
2,note_on,50,0,120
2,note_on,62,0,0
2,note_on,64,46,120
2,note_on,52,46,0
2,note_on,52,0,80
2,note_on,64,0,0
2,note_on,53,52,30
2,note_on,65,52,0
2,note_on,65,0,143
2,note_on,53,0,0
2,note_on,55,48,120
2,note_on,67,48,0
2,note_on,67,0,67
2,note_on,55,0,0
2,note_on,53,53,30
2,note_on,65,53,0
2,note_on,65,0,120
2,note_on,53,0,0
2,note_on,55,86,360
2,note_on,58,96,0
2,note_on,50,86,0
2,note_on,62,96,0
2,note_on,62,0,939
2,note_on,55,0,0
2,note_on,58,0,0
2,note_on,50,0,0
2,note_on,38,72,0
2,note_on,50,81,0
2,note_on,50,0,159
2,note_on,38,0,0
2,note_on,50,85,780
2,note_on,53,85,0
2,note_on,62,95,0
2,note_on,57,95,0
2,note_on,57,0,949
2,note_on,50,0,0
2,note_on,53,0,0
2,note_on,62,0,0
2,note_on,50,81,0
2,note_on,38,72,0
2,note_on,38,0,169
2,note_on,50,0,0
2,note_on,55,77,431
2,note_on,58,86,0
2,note_on,62,86,0
2,note_on,50,77,0
2,note_on,50,0,960
2,note_on,55,0,0
2,note_on,58,0,0
2,note_on,62,0,0
2,note_on,38,62,0
2,note_on,50,69,0
2,note_on,50,0,141
2,note_on,38,0,0
2,note_on,53,73,385
2,note_on,57,82,0
2,note_on,50,73,0
2,note_on,62,82,0
2,note_on,62,0,841
2,note_on,53,0,3
2,note_on,57,0,0
2,note_on,50,0,0
2,note_on,38,66,0
2,note_on,50,74,0
2,note_on,50,0,172
2,note_on,38,0,0
2,note_on,50,73,760
2,note_on,55,73,0
2,note_on,62,82,0
2,note_on,58,82,0
2,note_on,62,0,915
2,note_on,50,0,3
2,note_on,55,0,0
2,note_on,58,0,0
2,note_on,50,74,0
2,note_on,38,66,0
2,note_on,38,0,158
2,note_on,50,0,0
2,note_on,53,74,760
2,note_on,57,83,0
2,note_on,62,83,0
2,note_on,50,74,0
2,note_on,62,0,904
2,note_on,53,0,3
2,note_on,57,0,0
2,note_on,50,0,0
2,note_on,50,73,0
2,note_on,38,65,0
2,note_on,38,0,175
2,note_on,50,0,0
2,note_on,50,75,438
2,note_on,55,75,0
2,note_on,62,84,0
2,note_on,58,84,0
2,note_on,58,0,960
2,note_on,50,0,0
2,note_on,55,0,0
2,note_on,62,0,0
2,note_on,38,66,0
2,note_on,50,74,0
2,note_on,50,0,145
2,note_on,38,0,0
2,note_on,50,75,392
2,note_on,57,84,0
2,note_on,62,84,0
2,note_on,53,75,0
2,note_on,62,0,816
2,note_on,50,0,3
2,note_on,57,0,0
2,note_on,53,0,0
2,note_on,38,66,0
2,note_on,50,74,0
2,note_on,50,0,175
2,note_on,38,0,0
2,note_on,52,72,427
2,note_on,57,81,0
2,note_on,60,81,0
2,note_on,48,72,0
2,note_on,48,0,960
2,note_on,52,0,0
2,note_on,57,0,0
2,note_on,60,0,0
2,note_on,48,71,0
2,note_on,36,63,0
2,note_on,36,0,155
2,note_on,48,0,0
2,note_on,47,74,399
2,note_on,56,83,0
2,note_on,59,83,0
2,note_on,59,0,786
2,note_on,56,0,0
2,note_on,47,0,0
2,note_on,64,76,40
2,note_on,52,68,0
2,note_on,56,76,0
2,note_on,56,0,821
2,note_on,52,0,0
2,note_on,64,0,0
2,note_on,48,71,40
2,note_on,60,79,0
2,note_on,60,0,819
2,note_on,48,0,0
2,note_on,45,65,0
2,note_on,57,73,0
2,note_on,57,0,98
2,note_on,45,0,0
2,note_on,44,40,760
2,note_on,47,40,0
2,note_on,35,40,0
2,note_on,35,0,853
2,note_on,47,0,0
2,note_on,44,0,0
2,note_on,40,37,40
2,note_on,44,37,0
2,note_on,52,37,0
2,note_on,52,0,818
2,note_on,44,0,0
2,note_on,40,0,0
2,note_on,48,37,40
2,note_on,36,37,0
2,note_on,36,0,868
2,note_on,48,0,0
2,note_on,45,37,0
2,note_on,33,37,0
2,note_on,33,0,108
2,note_on,45,0,0
2,note_on,34,31,760
2,note_on,46,31,0
2,note_on,46,0,914
2,note_on,34,0,0
2,note_on,31,24,0
2,note_on,43,24,0
2,note_on,43,0,134
2,note_on,31,0,0
2,note_on,34,30,780
2,note_on,46,30,0
2,note_on,46,0,935
2,note_on,34,0,0
2,note_on,31,22,0
2,note_on,43,22,0
2,note_on,43,0,155
2,note_on,31,0,0
2,note_on,46,30,780
2,note_on,34,30,0
2,note_on,34,0,935
2,note_on,46,0,0
2,note_on,31,23,0
2,note_on,43,23,0
2,note_on,43,0,155
2,note_on,31,0,0
2,note_on,34,31,780
2,note_on,46,31,0
2,note_on,46,0,953
2,note_on,34,0,0
2,note_on,31,26,0
2,note_on,43,26,0
2,note_on,43,0,173
2,note_on,31,0,0
2,note_on,35,68,780
2,note_on,35,0,71
2,note_on,47,55,0
2,note_on,47,0,120
2,note_on,35,54,0
2,note_on,35,0,120
2,note_on,47,52,0
2,note_on,47,0,120
2,note_on,35,51,0
2,note_on,35,0,120
2,note_on,47,49,0
2,note_on,47,0,120
2,note_on,35,48,0
2,note_on,35,0,120
2,note_on,47,46,0
2,note_on,47,0,120
2,note_on,35,49,0
2,note_on,35,0,120
2,note_on,47,48,0
2,note_on,47,0,120
2,note_on,35,47,0
2,note_on,35,0,120
2,note_on,47,45,0
2,note_on,47,0,120
2,note_on,35,51,0
2,note_on,35,0,120
2,note_on,47,47,0
2,note_on,47,0,120
2,note_on,35,44,0
2,note_on,35,0,120
2,note_on,47,43,0
2,note_on,47,0,120
2,note_on,32,64,0
2,note_on,32,0,40
2,note_on,44,53,0
2,note_on,44,0,120
2,note_on,32,50,0
2,note_on,32,0,120
2,note_on,44,46,0
2,note_on,44,0,120
2,note_on,32,57,0
2,note_on,32,0,120
2,note_on,44,53,0
2,note_on,44,0,120
2,note_on,32,52,0
2,note_on,32,0,120
2,note_on,44,51,0
2,note_on,44,0,120
2,note_on,32,59,0
2,note_on,32,0,120
2,note_on,44,54,0
2,note_on,44,0,120
2,note_on,32,53,0
2,note_on,32,0,120
2,note_on,44,39,0
2,note_on,44,0,120
2,note_on,32,59,0
2,note_on,32,0,120
2,note_on,44,58,0
2,note_on,44,0,120
2,note_on,32,56,0
2,note_on,32,0,120
2,note_on,44,54,0
2,note_on,44,0,120
2,note_on,59,79,0
2,note_on,47,79,0
2,note_on,47,0,342
2,note_on,59,0,0
2,note_on,56,69,0
2,note_on,44,69,0
2,note_on,44,0,180
2,note_on,56,0,0
2,note_on,59,79,254
2,note_on,47,79,0
2,note_on,47,0,466
2,note_on,59,0,0
2,note_on,52,69,0
2,note_on,64,69,0
2,note_on,64,0,180
2,note_on,52,0,0
2,note_on,59,75,201
2,note_on,47,75,0
2,note_on,47,0,469
2,note_on,59,0,0
2,note_on,56,70,0
2,note_on,44,70,0
2,note_on,44,0,180
2,note_on,56,0,0
2,note_on,52,69,176
2,note_on,40,69,0
2,note_on,40,0,438
2,note_on,52,0,0
2,note_on,47,60,0
2,note_on,35,60,0
2,note_on,35,0,180
2,note_on,47,0,0
2,note_on,35,27,141
2,note_on,47,27,0
2,note_on,47,0,1520
2,note_on,35,0,0
2,note_on,35,81,0
2,note_on,35,0,69
2,note_on,47,50,0
2,note_on,47,0,120
2,note_on,35,63,0
2,note_on,35,0,120
2,note_on,47,48,0
2,note_on,47,0,120
2,note_on,32,72,0
2,note_on,32,0,120
2,note_on,44,52,0
2,note_on,44,0,120
2,note_on,32,58,0
2,note_on,32,0,120
2,note_on,44,46,0
2,note_on,44,0,120
2,note_on,35,72,0
2,note_on,35,0,120
2,note_on,47,53,0
2,note_on,47,0,120
2,note_on,35,60,0
2,note_on,35,0,120
2,note_on,47,45,0
2,note_on,47,0,120
2,note_on,40,72,0
2,note_on,40,0,120
2,note_on,52,53,0
2,note_on,52,0,120
2,note_on,40,62,0
2,note_on,40,0,120
2,note_on,52,48,0
2,note_on,52,0,120
2,note_on,44,77,0
2,note_on,44,0,120
2,note_on,56,60,0
2,note_on,56,0,120
2,note_on,44,68,0
2,note_on,44,0,120
2,note_on,56,55,0
2,note_on,56,0,120
2,note_on,47,79,0
2,note_on,47,0,120
2,note_on,59,57,0
2,note_on,59,0,120
2,note_on,47,66,0
2,note_on,47,0,120
2,note_on,59,51,0
2,note_on,59,0,120
2,note_on,52,88,0
2,note_on,52,0,120
2,note_on,64,57,0
2,note_on,64,0,120
2,note_on,52,74,0
2,note_on,52,0,120
2,note_on,64,57,0
2,note_on,64,0,120
2,note_on,47,73,0
2,note_on,47,0,120
2,note_on,59,48,0
2,note_on,59,0,120
2,note_on,47,58,0
2,note_on,47,0,120
2,note_on,59,47,0
2,note_on,59,0,120
2,note_on,47,37,0
2,note_on,35,37,0
2,note_on,35,0,1547
2,note_on,47,0,0
2,note_on,47,20,0
2,note_on,40,20,0
2,note_on,40,0,828
2,note_on,47,0,0
2,note_on,47,19,40
2,note_on,40,19,0
2,note_on,40,0,840
2,note_on,47,0,0
2,note_on,47,20,0
2,note_on,40,20,0
2,note_on,40,0,264
2,note_on,47,0,0
2,note_on,40,16,10
2,note_on,47,16,0
2,note_on,47,0,470
2,note_on,40,0,0
2,note_on,40,19,10
2,note_on,47,19,0
2,note_on,47,0,196
2,note_on,40,0,0
2,note_on,40,15,10
2,note_on,47,15,0
2,note_on,47,0,470
2,note_on,40,0,0
2,note_on,40,23,10
2,note_on,49,23,0
2,note_on,49,0,751
2,note_on,40,0,0
2,note_on,49,17,40
2,note_on,40,17,0
2,note_on,40,0,840
2,note_on,49,0,0
2,note_on,49,20,0
2,note_on,40,20,0
2,note_on,40,0,304
2,note_on,49,0,0
2,note_on,51,15,10
2,note_on,40,15,0
2,note_on,40,0,470
2,note_on,51,0,0
2,note_on,40,19,10
2,note_on,49,19,0
2,note_on,49,0,321
2,note_on,40,0,0
2,note_on,40,15,10
2,note_on,51,15,0
2,note_on,51,0,470
2,note_on,40,0,0
2,note_on,52,23,10
2,note_on,40,23,0
2,note_on,40,0,832
2,note_on,52,0,0
2,note_on,47,17,40
2,note_on,40,17,0
2,note_on,40,0,840
2,note_on,47,0,0
2,note_on,47,23,0
2,note_on,40,23,0
2,note_on,40,0,241
2,note_on,47,0,0
2,note_on,47,18,10
2,note_on,40,18,0
2,note_on,40,0,470
2,note_on,47,0,0
2,note_on,40,24,10
2,note_on,47,24,0
2,note_on,47,0,390
2,note_on,40,0,0
2,note_on,47,18,10
2,note_on,40,18,0
2,note_on,40,0,470
2,note_on,47,0,0
2,note_on,49,25,10
2,note_on,40,25,0
2,note_on,40,0,772
2,note_on,49,0,0
2,note_on,49,19,40
2,note_on,40,19,0
2,note_on,40,0,840
2,note_on,49,0,0
2,note_on,40,30,0
2,note_on,49,36,0
2,note_on,49,0,325
2,note_on,52,33,0
2,note_on,52,0,480
2,note_on,57,37,0
2,note_on,57,0,480
2,note_on,61,39,0
2,note_on,61,0,480
2,note_on,40,0,0
2,note_on,59,26,0
2,note_on,52,26,0
2,note_on,52,0,782
2,note_on,59,0,0
2,note_on,59,20,40
2,note_on,52,20,0
2,note_on,52,0,840
2,note_on,59,0,0
2,note_on,52,22,0
2,note_on,59,22,0
2,note_on,59,0,241
2,note_on,52,0,0
2,note_on,52,18,10
2,note_on,59,18,0
2,note_on,59,0,470
2,note_on,52,0,0
2,note_on,63,20,10
2,note_on,52,20,0
2,note_on,52,0,350
2,note_on,63,0,0
2,note_on,52,18,10
2,note_on,61,18,0
2,note_on,61,0,470
2,note_on,52,0,0
2,note_on,52,24,10
2,note_on,59,24,0
2,note_on,59,0,811
2,note_on,52,0,0
2,note_on,52,15,40
2,note_on,59,15,0
2,note_on,59,0,840
2,note_on,52,0,0
2,note_on,52,22,0
2,note_on,59,22,0
2,note_on,59,0,264
2,note_on,52,0,0
2,note_on,52,17,10
2,note_on,59,17,0
2,note_on,59,0,470
2,note_on,52,0,0
2,note_on,63,20,10
2,note_on,52,20,0
2,note_on,52,0,219
2,note_on,63,0,0
2,note_on,61,18,10
2,note_on,52,18,0
2,note_on,52,0,470
2,note_on,61,0,0
2,note_on,52,24,10
2,note_on,59,29,0
2,note_on,59,0,811
2,note_on,52,0,0
2,note_on,52,15,40
2,note_on,59,15,0
2,note_on,59,0,840
2,note_on,52,0,0
2,note_on,56,25,0
2,note_on,52,25,0
2,note_on,52,0,255
2,note_on,56,0,0
2,note_on,59,23,10
2,note_on,52,23,0
2,note_on,52,0,470
2,note_on,59,0,0
2,note_on,52,25,10
2,note_on,57,25,0
2,note_on,57,0,288
2,note_on,52,0,0
2,note_on,59,24,10
2,note_on,52,24,0
2,note_on,52,0,470
2,note_on,59,0,0
2,note_on,52,25,10
2,note_on,61,25,0
2,note_on,61,0,856
2,note_on,52,0,0
2,note_on,52,15,40
2,note_on,61,15,0
2,note_on,61,0,240
2,note_on,52,0,0
2,note_on,72,22,625
2,note_on,64,22,0
2,note_on,64,0,885
2,note_on,72,0,0
2,note_on,64,8,40
2,note_on,72,9,0
2,note_on,72,0,122
2,note_on,64,0,0
2,note_on,59,25,520
2,note_on,52,25,0
2,note_on,52,0,878
2,note_on,59,0,0
2,note_on,59,11,40
2,note_on,52,9,0
2,note_on,52,0,108
2,note_on,59,0,0
2,note_on,64,22,520
2,note_on,71,22,0
2,note_on,71,0,881
2,note_on,64,0,0
2,note_on,71,11,40
2,note_on,64,11,0
2,note_on,64,0,115
2,note_on,71,0,0
2,note_on,45,62,520
2,note_on,33,62,0
2,note_on,33,0,787
2,note_on,45,0,0
2,note_on,45,45,40
2,note_on,33,45,0
2,note_on,33,0,440
2,note_on,45,0,0
2,note_on,66,39,480
2,note_on,64,39,0
2,note_on,57,39,0
2,note_on,57,0,457
2,note_on,64,0,0
2,note_on,66,0,0
2,note_on,59,34,10
2,note_on,64,34,0
2,note_on,68,34,0
2,note_on,68,0,321
2,note_on,64,0,0
2,note_on,59,0,0
2,note_on,64,37,10
2,note_on,61,37,0
2,note_on,61,0,255
2,note_on,64,0,0
2,note_on,64,36,10
2,note_on,68,36,0
2,note_on,59,36,0
2,note_on,59,0,288
2,note_on,68,0,0
2,note_on,64,0,0
2,note_on,66,36,10
2,note_on,59,36,0
2,note_on,69,36,0
2,note_on,69,0,601
2,note_on,59,0,0
2,note_on,66,0,0
2,note_on,59,17,40
2,note_on,66,17,0
2,note_on,69,17,0
2,note_on,69,0,115
2,note_on,66,0,0
2,note_on,59,0,0
2,note_on,59,27,520
2,note_on,52,27,0
2,note_on,52,0,881
2,note_on,59,0,0
2,note_on,59,16,40
2,note_on,52,23,0
2,note_on,52,0,440
2,note_on,59,0,0
2,note_on,45,67,480
2,note_on,33,67,0
2,note_on,33,0,813
2,note_on,45,0,0
2,note_on,33,49,40
2,note_on,45,49,0
2,note_on,45,0,440
2,note_on,33,0,0
2,note_on,66,39,480
2,note_on,64,39,0
2,note_on,57,39,0
2,note_on,57,0,438
2,note_on,64,0,0
2,note_on,66,0,0
2,note_on,64,36,10
2,note_on,68,36,0
2,note_on,59,36,0
2,note_on,59,0,394
2,note_on,68,0,0
2,note_on,64,0,0
2,note_on,64,39,10
2,note_on,61,39,0
2,note_on,61,0,375
2,note_on,64,0,0
2,note_on,59,36,10
2,note_on,68,36,0
2,note_on,64,36,0
2,note_on,64,0,398
2,note_on,68,0,0
2,note_on,59,0,0
2,note_on,66,36,10
2,note_on,69,36,0
2,note_on,59,36,0
2,note_on,59,0,765
2,note_on,69,0,0
2,note_on,66,0,0
2,note_on,59,17,40
2,note_on,69,17,0
2,note_on,66,17,0
2,note_on,66,0,158
2,note_on,69,0,0
2,note_on,59,0,0
2,note_on,40,84,520
2,note_on,40,0,600
2,note_on,40,52,40
2,note_on,40,0,20
2,note_on,40,22,520
2,note_on,47,22,0
2,note_on,47,0,438
2,note_on,40,0,0
2,note_on,47,17,10
2,note_on,40,17,0
2,note_on,40,0,470
2,note_on,47,0,0
2,note_on,40,20,10
2,note_on,47,20,0
2,note_on,47,0,287
2,note_on,40,0,0
2,note_on,40,16,10
2,note_on,47,16,0
2,note_on,47,0,470
2,note_on,40,0,0
2,note_on,40,16,10
2,note_on,48,16,0
2,note_on,48,0,849
2,note_on,40,0,0
2,note_on,48,8,40
2,note_on,40,8,0
2,note_on,40,0,152
2,note_on,48,0,0
2,note_on,40,23,720
2,note_on,51,23,0
2,note_on,51,0,881
2,note_on,40,0,0
2,note_on,51,9,40
2,note_on,40,9,0
2,note_on,40,0,88
2,note_on,51,0,0
2,note_on,40,82,720
2,note_on,52,82,0
2,note_on,52,0,707
2,note_on,40,0,0
2,note_on,40,44,40
2,note_on,52,44,0
2,note_on,52,0,440
2,note_on,40,0,0
2,note_on,40,25,480
2,note_on,47,25,0
2,note_on,47,0,428
2,note_on,40,0,0
2,note_on,40,18,10
2,note_on,47,18,0
2,note_on,47,0,470
2,note_on,40,0,0
2,note_on,47,25,10
2,note_on,40,25,0
2,note_on,40,0,196
2,note_on,47,0,0
2,note_on,47,17,10
2,note_on,40,17,0
2,note_on,40,0,470
2,note_on,47,0,0
2,note_on,45,24,10
2,note_on,40,24,0
2,note_on,40,0,821
2,note_on,45,0,0
2,note_on,40,13,40
2,note_on,49,18,0
2,note_on,49,0,159
2,note_on,40,0,0
2,note_on,40,25,720
2,note_on,47,25,0
2,note_on,47,0,895
2,note_on,40,0,0
2,note_on,40,16,40
2,note_on,51,22,0
2,note_on,51,0,215
2,note_on,40,0,0
2,note_on,52,25,720
2,note_on,40,25,0
2,note_on,40,0,881
2,note_on,52,0,0
2,note_on,40,5,40
2,note_on,52,14,0
2,note_on,52,0,201
2,note_on,40,0,0
2,note_on,45,25,720
2,note_on,48,25,0
2,note_on,48,0,853
2,note_on,45,0,0
2,note_on,45,14,40
2,note_on,48,14,0
2,note_on,48,0,173
2,note_on,45,0,0
2,note_on,48,25,720
2,note_on,48,0,881
2,note_on,48,16,40
2,note_on,48,0,201
2,note_on,38,25,720
2,note_on,50,25,0
2,note_on,50,0,892
2,note_on,38,0,0
2,note_on,50,15,40
2,note_on,38,15,0
2,note_on,38,0,212
2,note_on,50,0,0
2,note_on,40,24,720
2,note_on,45,24,0
2,note_on,40,0,885
2,note_on,45,0,40
2,note_on,52,39,0
2,note_on,40,14,0
2,note_on,40,0,220
2,note_on,52,0,720
2,note_on,51,37,0
2,note_on,51,0,960
2,note_on,52,35,0
2,note_on,52,0,240
2,note_on,40,19,2640
2,note_on,47,33,0
2,note_on,40,0,874
2,note_on,47,0,40
2,note_on,52,39,0
2,note_on,40,12,0
2,note_on,40,0,421
2,note_on,52,0,520
2,note_on,51,37,0
2,note_on,51,0,960
2,note_on,52,35,0
2,note_on,52,0,240
2,note_on,57,42,2640
2,note_on,57,0,880
2,note_on,64,42,0
2,note_on,64,0,587
2,note_on,63,44,0
2,note_on,63,0,794
2,note_on,64,38,0
2,note_on,64,0,200
2,note_on,60,39,280
2,note_on,59,39,300
2,note_on,60,0,20
2,note_on,57,38,100
2,note_on,59,0,6
2,note_on,57,0,800
2,note_on,52,52,0
2,note_on,52,0,613
2,note_on,48,47,0
2,note_on,48,0,794
2,note_on,45,39,0
2,note_on,45,0,180
2,note_on,45,42,699
2,note_on,45,0,853
2,note_on,38,45,0
2,note_on,38,0,507
2,note_on,37,50,0
2,note_on,37,0,822
2,note_on,38,42,0
2,note_on,38,0,192
2,note_on,45,44,280
2,note_on,47,45,300
2,note_on,45,0,20
2,note_on,48,45,100
2,note_on,47,0,11
2,note_on,48,0,747
2,note_on,40,52,0
2,note_on,40,0,560
2,note_on,36,45,0
2,note_on,36,0,815
2,note_on,33,41,0
2,note_on,33,0,45
2,note_on,38,35,760
2,note_on,41,35,0
2,note_on,45,35,0
2,note_on,45,0,896
2,note_on,41,0,0
2,note_on,38,0,0
2,note_on,33,33,0
2,note_on,33,0,56
2,note_on,36,36,840
2,note_on,40,36,0
2,note_on,45,36,0
2,note_on,45,0,904
2,note_on,40,0,0
2,note_on,36,0,0
2,note_on,33,35,0
2,note_on,33,0,64
2,note_on,38,36,445
2,note_on,41,36,0
2,note_on,45,36,0
2,note_on,45,0,960
2,note_on,41,0,0
2,note_on,38,0,0
2,note_on,33,34,0
2,note_on,33,0,42
2,note_on,36,36,311
2,note_on,40,36,0
2,note_on,45,36,0
2,note_on,45,0,776
2,note_on,40,0,0
2,note_on,36,0,0
2,note_on,33,34,0
2,note_on,33,0,136
2,note_on,38,37,374
2,note_on,41,37,0
2,note_on,45,37,0
2,note_on,45,0,769
2,note_on,41,0,0
2,note_on,38,0,0
2,note_on,33,35,0
2,note_on,33,0,161
2,note_on,36,36,353
2,note_on,40,36,0
2,note_on,45,36,0
2,note_on,45,0,791
2,note_on,40,0,0
2,note_on,36,0,0
2,note_on,33,33,0
2,note_on,33,0,108
2,note_on,50,51,388
2,note_on,53,51,0
2,note_on,57,51,0
2,note_on,57,0,960
2,note_on,53,0,0
2,note_on,50,0,0
2,note_on,45,35,0
2,note_on,45,0,21
2,note_on,48,41,346
2,note_on,52,41,0
2,note_on,57,41,0
2,note_on,57,0,802
2,note_on,52,0,3
2,note_on,48,0,0
2,note_on,45,36,0
2,note_on,45,0,144
2,note_on,47,57,438
2,note_on,52,57,0
2,note_on,55,57,0
2,note_on,55,0,960
2,note_on,52,0,0
2,note_on,47,0,0
2,note_on,43,54,0
2,note_on,43,0,145
2,note_on,42,59,356
2,note_on,51,59,0
2,note_on,54,66,0
2,note_on,54,0,767
2,note_on,51,0,0
2,note_on,42,0,0
2,note_on,47,49,80
2,note_on,51,49,0
2,note_on,59,55,0
2,note_on,59,0,728
2,note_on,51,0,0
2,note_on,47,0,0
2,note_on,43,49,80
2,note_on,55,49,0
2,note_on,55,0,854
2,note_on,43,0,0
2,note_on,40,42,0
2,note_on,52,42,0
2,note_on,52,0,175
2,note_on,40,0,0
2,note_on,30,26,760
2,note_on,39,26,0
2,note_on,42,26,0
2,note_on,42,0,852
2,note_on,39,0,0
2,note_on,30,0,0
2,note_on,35,24,80
2,note_on,39,24,0
2,note_on,47,24,0
2,note_on,47,0,792
2,note_on,39,0,0
2,note_on,35,0,0
2,note_on,31,30,80
2,note_on,43,30,0
2,note_on,43,0,826
2,note_on,31,0,0
2,note_on,28,27,0
2,note_on,40,27,0
2,note_on,40,0,175
2,note_on,28,0,0
2,note_on,40,30,760
2,note_on,41,30,1080
2,note_on,40,0,20
2,note_on,40,26,100
2,note_on,41,0,20
2,note_on,41,30,100
2,note_on,40,0,20
2,note_on,40,24,100
2,note_on,41,0,20
2,note_on,41,30,100
2,note_on,40,0,20
2,note_on,40,25,100
2,note_on,41,0,20
2,note_on,41,30,100
2,note_on,40,0,20
2,note_on,40,31,100
2,note_on,41,0,20
2,note_on,41,28,100
2,note_on,40,0,20
2,note_on,40,31,100
2,note_on,41,0,20
2,note_on,41,31,100
2,note_on,40,0,20
2,note_on,40,34,100
2,note_on,41,0,20
2,note_on,41,30,100
2,note_on,40,0,20
2,note_on,40,34,100
2,note_on,41,0,20
2,note_on,41,29,100
2,note_on,40,0,20
2,note_on,40,34,100
2,note_on,41,0,20
2,note_on,41,28,100
2,note_on,40,0,20
2,note_on,40,34,100
2,note_on,41,0,20
2,note_on,41,29,100
2,note_on,40,0,20
2,note_on,40,34,100
2,note_on,41,0,20
2,note_on,41,29,100
2,note_on,40,0,20
2,note_on,40,34,100
2,note_on,41,0,20
2,note_on,41,30,100
2,note_on,40,0,20
2,note_on,40,39,100
2,note_on,41,0,20
2,note_on,41,33,100
2,note_on,40,0,20
2,note_on,40,39,100
2,note_on,41,0,20
2,note_on,41,33,100
2,note_on,40,0,20
2,note_on,40,39,100
2,note_on,41,0,20
2,note_on,41,33,100
2,note_on,40,0,20
2,note_on,40,40,100
2,note_on,41,0,20
2,note_on,41,35,100
2,note_on,40,0,20
2,note_on,40,40,100
2,note_on,41,0,20
2,note_on,41,35,100
2,note_on,40,0,20
2,note_on,40,41,100
2,note_on,41,0,20
2,note_on,41,34,100
2,note_on,40,0,20
2,note_on,40,41,100
2,note_on,41,0,20
2,note_on,41,36,100
2,note_on,40,0,20
2,note_on,40,42,100
2,note_on,41,0,20
2,note_on,41,37,100
2,note_on,40,0,20
2,note_on,40,47,100
2,note_on,41,0,20
2,note_on,41,39,100
2,note_on,40,0,20
2,note_on,40,47,100
2,note_on,41,0,20
2,note_on,41,39,100
2,note_on,40,0,20
2,note_on,40,48,100
2,note_on,41,0,20
2,note_on,41,40,100
2,note_on,40,0,20
2,note_on,40,48,100
2,note_on,41,0,20
2,note_on,41,42,100
2,note_on,40,0,20
2,note_on,40,49,100
2,note_on,41,0,20
2,note_on,41,43,100
2,note_on,40,0,20
2,note_on,40,54,100
2,note_on,41,0,20
2,note_on,41,48,100
2,note_on,40,0,20
2,note_on,40,62,100
2,note_on,41,0,20
2,note_on,41,63,100
2,note_on,40,0,20
2,note_on,40,71,100
2,note_on,41,0,20
2,note_on,44,79,100
2,note_on,40,0,20
2,note_on,33,78,100
2,note_on,45,78,0
2,note_on,44,0,20
2,note_on,45,0,747
2,note_on,33,0,0
2,note_on,40,75,0
2,note_on,52,75,0
2,note_on,52,0,560
2,note_on,40,0,0
2,note_on,39,72,0
2,note_on,51,72,0
2,note_on,51,0,54
2,note_on,39,0,0
2,note_on,40,67,0
2,note_on,52,67,0
2,note_on,52,0,240
2,note_on,40,0,0
2,note_on,52,48,240
2,note_on,64,48,0
2,note_on,64,0,217
2,note_on,52,0,0
2,note_on,50,46,120
2,note_on,62,46,0
2,note_on,62,0,70
2,note_on,50,0,0
2,note_on,48,48,30
2,note_on,60,48,0
2,note_on,60,0,163
2,note_on,48,0,0
2,note_on,47,46,120
2,note_on,59,46,0
2,note_on,59,0,79
2,note_on,47,0,0
2,note_on,45,43,30
2,note_on,57,43,0
2,note_on,57,0,160
2,note_on,45,0,0
2,note_on,44,42,120
2,note_on,56,42,0
2,note_on,56,0,65
2,note_on,44,0,0
2,note_on,45,46,30
2,note_on,57,46,0
2,note_on,57,0,134
2,note_on,45,0,0
2,note_on,43,40,120
2,note_on,55,40,0
2,note_on,55,0,73
2,note_on,43,0,0
2,note_on,41,46,30
2,note_on,53,46,0
2,note_on,53,0,151
2,note_on,41,0,0
2,note_on,40,42,120
2,note_on,52,42,0
2,note_on,52,0,47
2,note_on,40,0,0
2,note_on,41,48,30
2,note_on,53,48,0
2,note_on,53,0,160
2,note_on,41,0,0
2,note_on,44,46,120
2,note_on,56,46,0
2,note_on,56,0,74
2,note_on,44,0,0
2,note_on,45,48,30
2,note_on,57,48,0
2,note_on,57,0,146
2,note_on,45,0,0
2,note_on,47,46,120
2,note_on,59,46,0
2,note_on,59,0,67
2,note_on,47,0,0
2,note_on,48,52,30
2,note_on,60,52,0
2,note_on,60,0,169
2,note_on,48,0,0
2,note_on,50,48,120
2,note_on,62,48,0
2,note_on,62,0,70
2,note_on,50,0,0
2,note_on,48,53,30
2,note_on,60,53,0
2,note_on,60,0,120
2,note_on,48,0,0
2,note_on,45,90,360
2,note_on,45,0,833
2,note_on,38,86,0
2,note_on,45,86,0
2,note_on,45,0,587
2,note_on,38,0,0
2,note_on,37,71,0
2,note_on,45,71,0
2,note_on,37,0,805
2,note_on,38,71,0
2,note_on,38,0,234
2,note_on,45,0,0
2,note_on,57,53,240
2,note_on,69,53,0
2,note_on,69,0,187
2,note_on,57,0,0
2,note_on,55,52,120
2,note_on,67,52,0
2,note_on,67,0,82
2,note_on,55,0,0
2,note_on,53,48,30
2,note_on,65,48,0
2,note_on,65,0,91
2,note_on,53,0,0
2,note_on,52,46,120
2,note_on,64,46,0
2,note_on,64,0,70
2,note_on,52,0,0
2,note_on,50,43,30
2,note_on,62,43,0
2,note_on,62,0,97
2,note_on,50,0,0
2,note_on,49,42,120
2,note_on,61,42,0
2,note_on,61,0,73
2,note_on,49,0,0
2,note_on,50,46,30
2,note_on,62,46,0
2,note_on,62,0,97
2,note_on,50,0,0
2,note_on,48,40,120
2,note_on,60,40,0
2,note_on,60,0,67
2,note_on,48,0,0
2,note_on,46,46,30
2,note_on,58,46,0
2,note_on,58,0,126
2,note_on,46,0,0
2,note_on,45,42,120
2,note_on,57,42,0
2,note_on,57,0,70
2,note_on,45,0,0
2,note_on,46,48,30
2,note_on,58,48,0
2,note_on,58,0,151
2,note_on,46,0,0
2,note_on,49,46,120
2,note_on,61,46,0
2,note_on,61,0,64
2,note_on,49,0,0
2,note_on,50,48,30
2,note_on,62,48,0
2,note_on,62,0,120
2,note_on,50,0,0
2,note_on,52,46,120
2,note_on,64,46,0
2,note_on,64,0,80
2,note_on,52,0,0
2,note_on,53,52,30
2,note_on,65,52,0
2,note_on,65,0,143
2,note_on,53,0,0
2,note_on,55,48,120
2,note_on,67,48,0
2,note_on,67,0,67
2,note_on,55,0,0
2,note_on,53,53,30
2,note_on,65,53,0
2,note_on,65,0,120
2,note_on,53,0,0
2,note_on,50,88,360
2,note_on,55,88,0
2,note_on,58,98,0
2,note_on,62,98,0
2,note_on,62,0,939
2,note_on,50,0,0
2,note_on,55,0,0
2,note_on,58,0,0
2,note_on,38,72,0
2,note_on,50,81,0
2,note_on,50,0,159
2,note_on,38,0,0
2,note_on,50,87,780
2,note_on,53,87,0
2,note_on,57,97,0
2,note_on,62,97,0
2,note_on,62,0,946
2,note_on,50,0,3
2,note_on,53,0,0
2,note_on,57,0,0
2,note_on,38,72,0
2,note_on,50,81,0
2,note_on,50,0,169
2,note_on,38,0,0
2,note_on,50,75,431
2,note_on,55,75,0
2,note_on,58,84,0
2,note_on,62,84,0
2,note_on,62,0,960
2,note_on,50,0,0
2,note_on,55,0,0
2,note_on,58,0,0
2,note_on,38,62,0
2,note_on,50,69,0
2,note_on,50,0,141
2,note_on,38,0,0
2,note_on,50,73,385
2,note_on,53,73,0
2,note_on,57,82,0
2,note_on,62,82,0
2,note_on,62,0,841
2,note_on,50,0,3
2,note_on,53,0,0
2,note_on,57,0,0
2,note_on,38,66,0
2,note_on,50,74,0
2,note_on,50,0,172
2,note_on,38,0,0
2,note_on,50,73,760
2,note_on,55,73,0
2,note_on,58,82,0
2,note_on,62,82,0
2,note_on,62,0,915
2,note_on,50,0,3
2,note_on,55,0,0
2,note_on,58,0,0
2,note_on,38,66,0
2,note_on,50,74,0
2,note_on,50,0,158
2,note_on,38,0,0
2,note_on,50,74,760
2,note_on,53,74,0
2,note_on,57,83,0
2,note_on,62,83,0
2,note_on,62,0,904
2,note_on,50,0,3
2,note_on,53,0,0
2,note_on,57,0,0
2,note_on,38,65,0
2,note_on,50,73,0
2,note_on,50,0,175
2,note_on,38,0,0
2,note_on,50,75,438
2,note_on,55,75,0
2,note_on,58,84,0
2,note_on,62,84,0
2,note_on,62,0,960
2,note_on,50,0,0
2,note_on,55,0,0
2,note_on,58,0,0
2,note_on,38,66,0
2,note_on,50,74,0
2,note_on,50,0,145
2,note_on,38,0,0
2,note_on,50,75,392
2,note_on,53,75,0
2,note_on,57,84,0
2,note_on,62,84,0
2,note_on,62,0,816
2,note_on,50,0,3
2,note_on,53,0,0
2,note_on,57,0,0
2,note_on,38,66,0
2,note_on,50,74,0
2,note_on,50,0,175
2,note_on,38,0,0
2,note_on,48,72,427
2,note_on,52,72,0
2,note_on,57,81,0
2,note_on,60,81,0
2,note_on,60,0,960
2,note_on,48,0,0
2,note_on,52,0,0
2,note_on,57,0,0
2,note_on,36,63,0
2,note_on,48,71,0
2,note_on,48,0,155
2,note_on,36,0,0
2,note_on,47,76,399
2,note_on,56,85,0
2,note_on,59,85,0
2,note_on,59,0,786
2,note_on,56,0,0
2,note_on,47,0,0
2,note_on,64,85,40
2,note_on,56,85,0
2,note_on,52,76,0
2,note_on,52,0,821
2,note_on,56,0,0
2,note_on,64,0,0
2,note_on,48,73,40
2,note_on,60,82,0
2,note_on,60,0,819
2,note_on,48,0,0
2,note_on,45,65,0
2,note_on,57,73,0
2,note_on,57,0,98
2,note_on,45,0,0
2,note_on,35,40,760
2,note_on,44,40,0
2,note_on,47,40,0
2,note_on,47,0,853
2,note_on,44,0,0
2,note_on,35,0,0
2,note_on,40,37,40
2,note_on,44,37,0
2,note_on,52,37,0
2,note_on,52,0,818
2,note_on,44,0,0
2,note_on,40,0,0
2,note_on,36,37,40
2,note_on,48,37,0
2,note_on,48,0,868
2,note_on,36,0,0
2,note_on,33,37,0
2,note_on,45,37,0
2,note_on,45,0,88
2,note_on,33,0,0
2,note_on,34,31,780
2,note_on,46,31,0
2,note_on,46,0,914
2,note_on,34,0,0
2,note_on,31,24,0
2,note_on,43,24,0
2,note_on,43,0,134
2,note_on,31,0,0
2,note_on,34,30,780
2,note_on,46,30,0
2,note_on,46,0,935
2,note_on,34,0,0
2,note_on,31,22,0
2,note_on,43,22,0
2,note_on,43,0,155
2,note_on,31,0,0
2,note_on,34,30,780
2,note_on,46,30,0
2,note_on,46,0,935
2,note_on,34,0,0
2,note_on,31,23,0
2,note_on,43,23,0
2,note_on,43,0,155
2,note_on,31,0,0
2,note_on,34,31,780
2,note_on,46,31,0
2,note_on,46,0,953
2,note_on,34,0,0
2,note_on,31,26,0
2,note_on,43,26,0
2,note_on,43,0,173
2,note_on,31,0,0
2,note_on,35,72,780
2,note_on,35,0,71
2,note_on,47,31,0
2,note_on,47,0,120
2,note_on,35,42,0
2,note_on,35,0,120
2,note_on,47,30,0
2,note_on,47,0,120
2,note_on,35,46,0
2,note_on,35,0,120
2,note_on,47,33,0
2,note_on,47,0,120
2,note_on,35,44,0
2,note_on,35,0,120
2,note_on,47,31,0
2,note_on,47,0,120
2,note_on,35,45,0
2,note_on,35,0,120
2,note_on,47,33,0
2,note_on,47,0,120
2,note_on,35,44,0
2,note_on,35,0,120
2,note_on,47,31,0
2,note_on,47,0,120
2,note_on,35,51,0
2,note_on,35,0,120
2,note_on,47,37,0
2,note_on,47,0,120
2,note_on,35,47,0
2,note_on,35,0,120
2,note_on,47,33,0
2,note_on,47,0,120
2,note_on,32,74,0
2,note_on,32,0,40
2,note_on,44,37,0
2,note_on,44,0,120
2,note_on,32,47,0
2,note_on,32,0,120
2,note_on,44,37,0
2,note_on,44,0,120
2,note_on,32,52,0
2,note_on,32,0,120
2,note_on,44,39,0
2,note_on,44,0,120
2,note_on,32,49,0
2,note_on,32,0,120
2,note_on,44,38,0
2,note_on,44,0,120
2,note_on,32,55,0
2,note_on,32,0,120
2,note_on,44,39,0
2,note_on,44,0,120
2,note_on,32,51,0
2,note_on,32,0,120
2,note_on,44,39,0
2,note_on,44,0,120
2,note_on,32,66,0
2,note_on,32,0,120
2,note_on,44,52,0
2,note_on,44,0,120
2,note_on,32,57,0
2,note_on,32,0,120
2,note_on,44,46,0
2,note_on,44,0,120
2,note_on,47,79,0
2,note_on,59,79,0
2,note_on,59,0,342
2,note_on,47,0,0
2,note_on,44,69,0
2,note_on,56,69,0
2,note_on,56,0,180
2,note_on,44,0,0
2,note_on,47,79,254
2,note_on,59,79,0
2,note_on,59,0,466
2,note_on,47,0,0
2,note_on,64,69,0
2,note_on,52,69,0
2,note_on,52,0,180
2,note_on,64,0,0
2,note_on,47,70,201
2,note_on,59,70,0
2,note_on,59,0,469
2,note_on,47,0,0
2,note_on,44,63,0
2,note_on,56,63,0
2,note_on,56,0,180
2,note_on,44,0,0
2,note_on,52,54,176
2,note_on,40,54,0
2,note_on,40,0,438
2,note_on,52,0,0
2,note_on,47,44,0
2,note_on,35,44,0
2,note_on,35,0,180
2,note_on,47,0,0
2,note_on,35,27,141
2,note_on,47,27,0
2,note_on,47,0,1520
2,note_on,35,0,0
2,note_on,35,81,0
2,note_on,35,0,69
2,note_on,47,38,0
2,note_on,47,0,120
2,note_on,35,58,0
2,note_on,35,0,120
2,note_on,47,38,0
2,note_on,47,0,120
2,note_on,32,72,0
2,note_on,32,0,120
2,note_on,44,38,0
2,note_on,44,0,120
2,note_on,32,57,0
2,note_on,32,0,120
2,note_on,44,38,0
2,note_on,44,0,120
2,note_on,35,72,0
2,note_on,35,0,120
2,note_on,47,40,0
2,note_on,47,0,120
2,note_on,35,60,0
2,note_on,35,0,120
2,note_on,47,41,0
2,note_on,47,0,120
2,note_on,40,72,0
2,note_on,40,0,120
2,note_on,52,45,0
2,note_on,52,0,120
2,note_on,40,61,0
2,note_on,40,0,120
2,note_on,52,45,0
2,note_on,52,0,120
2,note_on,44,77,0
2,note_on,44,0,120
2,note_on,56,49,0
2,note_on,56,0,120
2,note_on,44,66,0
2,note_on,44,0,120
2,note_on,56,51,0
2,note_on,56,0,120
2,note_on,47,79,0
2,note_on,47,0,120
2,note_on,59,53,0
2,note_on,59,0,120
2,note_on,47,72,0
2,note_on,47,0,120
2,note_on,59,55,0
2,note_on,59,0,120
2,note_on,52,88,0
2,note_on,52,0,120
2,note_on,64,57,0
2,note_on,64,0,120
2,note_on,52,74,0
2,note_on,52,0,120
2,note_on,64,57,0
2,note_on,64,0,120
2,note_on,47,73,0
2,note_on,47,0,120
2,note_on,59,48,0
2,note_on,59,0,120
2,note_on,47,58,0
2,note_on,47,0,120
2,note_on,59,47,0
2,note_on,59,0,120
2,note_on,35,28,0
2,note_on,47,28,0
2,note_on,47,0,1547
2,note_on,35,0,0
2,note_on,47,20,0
2,note_on,40,20,0
2,note_on,40,0,828
2,note_on,47,0,0
2,note_on,40,17,40
2,note_on,47,17,0
2,note_on,47,0,840
2,note_on,40,0,0
2,note_on,47,20,120
2,note_on,40,20,0
2,note_on,40,0,264
2,note_on,47,0,0
2,note_on,47,16,10
2,note_on,40,16,0
2,note_on,40,0,470
2,note_on,47,0,0
2,note_on,40,19,10
2,note_on,47,19,0
2,note_on,47,0,196
2,note_on,40,0,0
2,note_on,40,15,10
2,note_on,47,15,0
2,note_on,47,0,470
2,note_on,40,0,0
2,note_on,40,23,10
2,note_on,49,23,0
2,note_on,49,0,751
2,note_on,40,0,0
2,note_on,40,15,40
2,note_on,49,15,0
2,note_on,49,0,840
2,note_on,40,0,0
2,note_on,40,20,120
2,note_on,49,20,0
2,note_on,49,0,304
2,note_on,40,0,0
2,note_on,40,15,10
2,note_on,51,15,0
2,note_on,51,0,470
2,note_on,40,0,0
2,note_on,40,19,10
2,note_on,49,19,0
2,note_on,49,0,321
2,note_on,40,0,0
2,note_on,51,15,10
2,note_on,40,15,0
2,note_on,40,0,470
2,note_on,51,0,0
2,note_on,52,23,10
2,note_on,40,23,0
2,note_on,40,0,832
2,note_on,52,0,0
2,note_on,40,17,40
2,note_on,47,17,0
2,note_on,47,0,840
2,note_on,40,0,0
2,note_on,47,23,120
2,note_on,40,23,0
2,note_on,40,0,241
2,note_on,47,0,0
2,note_on,40,18,10
2,note_on,47,18,0
2,note_on,47,0,470
2,note_on,40,0,0
2,note_on,40,24,10
2,note_on,47,24,0
2,note_on,47,0,390
2,note_on,40,0,0
2,note_on,47,18,10
2,note_on,40,18,0
2,note_on,40,0,470
2,note_on,47,0,0
2,note_on,40,25,10
2,note_on,49,25,0
2,note_on,49,0,772
2,note_on,40,0,0
2,note_on,49,19,40
2,note_on,40,19,0
2,note_on,40,0,840
2,note_on,49,0,0
2,note_on,40,30,120
2,note_on,49,36,0
2,note_on,49,0,325
2,note_on,52,33,0
2,note_on,52,0,480
2,note_on,57,37,0
2,note_on,57,0,480
2,note_on,61,39,0
2,note_on,61,0,480
2,note_on,40,0,0
2,note_on,52,26,0
2,note_on,59,26,0
2,note_on,59,0,782
2,note_on,52,0,0
2,note_on,59,17,40
2,note_on,52,17,0
2,note_on,52,0,840
2,note_on,59,0,0
2,note_on,52,22,120
2,note_on,59,22,0
2,note_on,59,0,241
2,note_on,52,0,0
2,note_on,59,18,10
2,note_on,52,18,0
2,note_on,52,0,470
2,note_on,59,0,0
2,note_on,52,20,10
2,note_on,63,20,0
2,note_on,63,0,350
2,note_on,52,0,0
2,note_on,61,18,10
2,note_on,52,18,0
2,note_on,52,0,470
2,note_on,61,0,0
2,note_on,52,24,10
2,note_on,59,24,0
2,note_on,59,0,811
2,note_on,52,0,0
2,note_on,59,15,40
2,note_on,52,15,0
2,note_on,52,0,840
2,note_on,59,0,0
2,note_on,52,22,120
2,note_on,59,22,0
2,note_on,59,0,264
2,note_on,52,0,0
2,note_on,59,17,10
2,note_on,52,17,0
2,note_on,52,0,470
2,note_on,59,0,0
2,note_on,52,20,10
2,note_on,63,20,0
2,note_on,63,0,219
2,note_on,52,0,0
2,note_on,52,18,10
2,note_on,61,18,0
2,note_on,61,0,470
2,note_on,52,0,0
2,note_on,59,29,10
2,note_on,52,24,0
2,note_on,52,0,811
2,note_on,59,0,0
2,note_on,59,15,40
2,note_on,52,15,0
2,note_on,52,0,840
2,note_on,59,0,0
2,note_on,56,25,120
2,note_on,52,25,0
2,note_on,52,0,255
2,note_on,56,0,0
2,note_on,52,23,10
2,note_on,59,23,0
2,note_on,59,0,470
2,note_on,52,0,0
2,note_on,57,25,10
2,note_on,52,25,0
2,note_on,52,0,288
2,note_on,57,0,0
2,note_on,52,24,10
2,note_on,59,24,0
2,note_on,59,0,470
2,note_on,52,0,0
2,note_on,52,25,10
2,note_on,61,25,0
2,note_on,61,0,856
2,note_on,52,0,0
2,note_on,61,15,40
2,note_on,52,15,0
2,note_on,52,0,240
2,note_on,61,0,0
2,note_on,64,22,625
2,note_on,72,22,0
2,note_on,72,0,885
2,note_on,64,0,0
2,note_on,64,8,40
2,note_on,72,9,0
2,note_on,72,0,122
2,note_on,64,0,0
2,note_on,52,25,520
2,note_on,59,25,0
2,note_on,59,0,878
2,note_on,52,0,0
2,note_on,52,9,40
2,note_on,59,11,0
2,note_on,59,0,108
2,note_on,52,0,0
2,note_on,71,22,520
2,note_on,64,22,0
2,note_on,64,0,881
2,note_on,71,0,0
2,note_on,64,11,40
2,note_on,71,11,0
2,note_on,71,0,115
2,note_on,64,0,0
2,note_on,33,58,520
2,note_on,45,64,0
2,note_on,45,0,787
2,note_on,33,0,0
2,note_on,33,39,40
2,note_on,45,44,0
2,note_on,45,0,440
2,note_on,33,0,0
2,note_on,64,39,480
2,note_on,66,39,0
2,note_on,57,39,0
2,note_on,57,0,457
2,note_on,66,0,0
2,note_on,64,0,0
2,note_on,64,34,10
2,note_on,59,34,0
2,note_on,68,34,0
2,note_on,68,0,321
2,note_on,59,0,0
2,note_on,64,0,0
2,note_on,64,37,10
2,note_on,61,37,0
2,note_on,61,0,255
2,note_on,64,0,0
2,note_on,64,36,10
2,note_on,59,36,0
2,note_on,68,36,0
2,note_on,68,0,288
2,note_on,59,0,0
2,note_on,64,0,0
2,note_on,69,36,10
2,note_on,66,36,0
2,note_on,59,36,0
2,note_on,59,0,601
2,note_on,66,0,0
2,note_on,69,0,0
2,note_on,59,17,40
2,note_on,69,17,0
2,note_on,66,17,0
2,note_on,66,0,440
2,note_on,69,0,0
2,note_on,59,0,0
2,note_on,52,27,520
2,note_on,59,27,0
2,note_on,59,0,881
2,note_on,52,0,0
2,note_on,52,23,40
2,note_on,59,16,0
2,note_on,59,0,440
2,note_on,52,0,0
2,note_on,33,58,480
2,note_on,45,64,0
2,note_on,45,0,813
2,note_on,33,0,0
2,note_on,45,48,40
2,note_on,33,42,0
2,note_on,33,0,440
2,note_on,45,0,0
2,note_on,64,39,480
2,note_on,66,39,0
2,note_on,57,39,0
2,note_on,57,0,438
2,note_on,66,0,0
2,note_on,64,0,0
2,note_on,59,36,10
2,note_on,68,36,0
2,note_on,64,36,0
2,note_on,64,0,394
2,note_on,68,0,0
2,note_on,59,0,0
2,note_on,61,39,10
2,note_on,64,39,0
2,note_on,64,0,375
2,note_on,61,0,0
2,note_on,68,36,10
2,note_on,59,36,0
2,note_on,64,36,0
2,note_on,64,0,398
2,note_on,59,0,0
2,note_on,68,0,0
2,note_on,69,36,10
2,note_on,59,36,0
2,note_on,66,36,0
2,note_on,66,0,765
2,note_on,59,0,0
2,note_on,69,0,0
2,note_on,66,17,40
2,note_on,69,17,0
2,note_on,59,17,0
2,note_on,59,0,433
2,note_on,69,0,0
2,note_on,66,0,0
2,note_on,40,86,520
2,note_on,40,0,600
2,note_on,40,70,40
2,note_on,40,0,20
2,note_on,40,22,520
2,note_on,47,22,0
2,note_on,47,0,438
2,note_on,40,0,0
2,note_on,47,17,10
2,note_on,40,17,0
2,note_on,40,0,470
2,note_on,47,0,0
2,note_on,40,20,10
2,note_on,47,20,0
2,note_on,47,0,287
2,note_on,40,0,0
2,note_on,40,16,10
2,note_on,47,16,0
2,note_on,47,0,470
2,note_on,40,0,0
2,note_on,48,16,10
2,note_on,40,16,0
2,note_on,40,0,849
2,note_on,48,0,0
2,note_on,40,8,40
2,note_on,48,8,0
2,note_on,48,0,152
2,note_on,40,0,0
2,note_on,40,23,720
2,note_on,51,23,0
2,note_on,51,0,881
2,note_on,40,0,0
2,note_on,40,9,40
2,note_on,51,9,0
2,note_on,51,0,88
2,note_on,40,0,0
2,note_on,40,86,720
2,note_on,52,86,0
2,note_on,52,0,707
2,note_on,40,0,0
2,note_on,52,66,40
2,note_on,40,59,0
2,note_on,40,0,440
2,note_on,52,0,0
2,note_on,40,25,480
2,note_on,47,25,0
2,note_on,47,0,428
2,note_on,40,0,0
2,note_on,47,18,10
2,note_on,40,18,0
2,note_on,40,0,470
2,note_on,47,0,0
2,note_on,47,25,10
2,note_on,40,25,0
2,note_on,40,0,196
2,note_on,47,0,0
2,note_on,40,17,10
2,note_on,47,17,0
2,note_on,47,0,470
2,note_on,40,0,0
2,note_on,45,24,10
2,note_on,40,24,0
2,note_on,40,0,821
2,note_on,45,0,0
2,note_on,40,12,40
2,note_on,49,16,0
2,note_on,49,0,159
2,note_on,40,0,0
2,note_on,47,25,720
2,note_on,40,25,0
2,note_on,40,0,895
2,note_on,47,0,0
2,note_on,51,18,40
2,note_on,40,14,0
2,note_on,40,0,215
2,note_on,51,0,0
2,note_on,52,25,720
2,note_on,40,25,0
2,note_on,40,0,881
2,note_on,52,0,0
2,note_on,52,12,40
2,note_on,40,4,0
2,note_on,40,0,201
2,note_on,52,0,0
2,note_on,45,25,720
2,note_on,48,25,0
2,note_on,48,0,853
2,note_on,45,0,0
2,note_on,48,12,40
2,note_on,45,12,0
2,note_on,45,0,173
2,note_on,48,0,0
2,note_on,48,25,720
2,note_on,48,0,881
2,note_on,48,14,40
2,note_on,48,0,201
2,note_on,38,25,720
2,note_on,50,25,0
2,note_on,50,0,892
2,note_on,38,0,0
2,note_on,38,15,40
2,note_on,50,15,0
2,note_on,50,0,212
2,note_on,38,0,0
2,note_on,40,24,720
2,note_on,45,24,0
2,note_on,40,0,885
2,note_on,45,0,40
2,note_on,52,39,0
2,note_on,40,12,0
2,note_on,40,0,220
2,note_on,52,0,720
2,note_on,51,37,0
2,note_on,51,0,960
2,note_on,52,35,0
2,note_on,52,0,240
2,note_on,40,19,2640
2,note_on,47,33,0
2,note_on,40,0,874
2,note_on,47,0,40
2,note_on,40,9,0
2,note_on,52,39,0
2,note_on,40,0,421
2,note_on,52,0,520
2,note_on,51,37,0
2,note_on,51,0,960
2,note_on,52,35,0
2,note_on,52,0,240
2,note_on,41,22,2640
2,note_on,41,0,56
2,note_on,48,14,0
2,note_on,48,0,120
2,note_on,41,17,0
2,note_on,41,0,120
2,note_on,48,15,0
2,note_on,48,0,120
2,note_on,41,18,0
2,note_on,41,0,120
2,note_on,48,14,0
2,note_on,48,0,120
2,note_on,41,18,0
2,note_on,41,0,120
2,note_on,48,13,0
2,note_on,48,0,120
2,note_on,41,20,0
2,note_on,41,0,14
2,note_on,48,12,0
2,note_on,48,0,120
2,note_on,41,18,0
2,note_on,41,0,120
2,note_on,48,13,0
2,note_on,48,0,120
2,note_on,41,19,0
2,note_on,41,0,120
2,note_on,48,12,0
2,note_on,48,0,120
2,note_on,41,16,0
2,note_on,41,0,120
2,note_on,48,12,0
2,note_on,48,0,120
2,note_on,41,24,0
2,note_on,41,0,14
2,note_on,48,14,0
2,note_on,48,0,120
2,note_on,41,18,0
2,note_on,41,0,120
2,note_on,48,15,0
2,note_on,48,0,120
2,note_on,41,20,0
2,note_on,41,0,120
2,note_on,48,16,0
2,note_on,48,0,120
2,note_on,41,19,0
2,note_on,41,0,120
2,note_on,48,15,0
2,note_on,48,0,120
2,note_on,41,21,0
2,note_on,41,0,106
2,note_on,48,14,0
2,note_on,48,0,120
2,note_on,41,20,0
2,note_on,41,0,120
2,note_on,48,15,0
2,note_on,48,0,120
2,note_on,41,20,0
2,note_on,41,0,120
2,note_on,48,14,0
2,note_on,48,0,120
2,note_on,41,18,0
2,note_on,41,0,120
2,note_on,48,13,0
2,note_on,48,0,120
2,note_on,41,27,0
2,note_on,41,0,108
2,note_on,48,17,0
2,note_on,48,0,113
2,note_on,41,22,0
2,note_on,41,0,120
2,note_on,48,20,0
2,note_on,48,0,120
2,note_on,41,27,0
2,note_on,41,0,120
2,note_on,48,20,0
2,note_on,48,0,120
2,note_on,41,27,0
2,note_on,41,0,120
2,note_on,48,20,0
2,note_on,48,0,120
2,note_on,41,31,0
2,note_on,41,0,28
2,note_on,48,19,0
2,note_on,48,0,120
2,note_on,41,29,0
2,note_on,41,0,120
2,note_on,48,21,0
2,note_on,48,0,120
2,note_on,41,33,0
2,note_on,41,0,120
2,note_on,48,22,0
2,note_on,48,0,120
2,note_on,41,29,0
2,note_on,41,0,120
2,note_on,48,21,0
2,note_on,48,0,120
2,note_on,41,37,0
2,note_on,41,0,21
2,note_on,48,28,0
2,note_on,48,0,120
2,note_on,41,31,0
2,note_on,41,0,120
2,note_on,48,31,0
2,note_on,48,0,120
2,note_on,41,35,0
2,note_on,41,0,120
2,note_on,48,30,0
2,note_on,48,0,120
2,note_on,41,36,0
2,note_on,41,0,120
2,note_on,48,31,0
2,note_on,48,0,120
2,note_on,41,42,0
2,note_on,41,0,28
2,note_on,48,30,0
2,note_on,48,0,120
2,note_on,41,42,0
2,note_on,41,0,120
2,note_on,48,33,0
2,note_on,48,0,120
2,note_on,41,42,0
2,note_on,41,0,120
2,note_on,48,32,0
2,note_on,48,0,120
2,note_on,41,41,0
2,note_on,41,0,120
2,note_on,48,31,0
2,note_on,48,0,120
2,note_on,41,54,0
2,note_on,41,0,14
2,note_on,48,39,0
2,note_on,48,0,120
2,note_on,41,45,0
2,note_on,41,0,120
2,note_on,48,40,0
2,note_on,48,0,120
2,note_on,41,52,0
2,note_on,41,0,120
2,note_on,48,38,0
2,note_on,48,0,120
2,note_on,41,52,0
2,note_on,41,0,120
2,note_on,48,42,0
2,note_on,48,0,120
2,note_on,41,57,0
2,note_on,41,0,14
2,note_on,48,41,0
2,note_on,48,0,120
2,note_on,41,54,0
2,note_on,41,0,120
2,note_on,48,45,0
2,note_on,48,0,120
2,note_on,41,60,0
2,note_on,41,0,120
2,note_on,48,43,0
2,note_on,48,0,120
2,note_on,41,57,0
2,note_on,41,0,120
2,note_on,48,42,0
2,note_on,48,0,120
2,note_on,41,62,0
2,note_on,41,0,112
2,note_on,48,48,0
2,note_on,48,0,113
2,note_on,41,57,0
2,note_on,41,0,120
2,note_on,48,53,0
2,note_on,48,0,120
2,note_on,41,63,0
2,note_on,41,0,120
2,note_on,48,49,0
2,note_on,48,0,120
2,note_on,41,63,0
2,note_on,41,0,120
2,note_on,48,50,0
2,note_on,48,0,120
2,note_on,41,68,0
2,note_on,41,0,100
2,note_on,48,48,0
2,note_on,48,0,92
2,note_on,41,65,0
2,note_on,41,0,120
2,note_on,48,49,0
2,note_on,48,0,120
2,note_on,41,69,0
2,note_on,41,0,120
2,note_on,48,51,0
2,note_on,48,0,120
2,note_on,41,65,0
2,note_on,41,0,120
2,note_on,48,48,0
2,note_on,48,0,120
2,note_on,41,75,0
2,note_on,45,75,0
2,note_on,50,84,0
2,note_on,53,84,0
2,note_on,53,0,769
2,note_on,41,0,0
2,note_on,45,0,0
2,note_on,50,0,0
2,note_on,45,69,0
2,note_on,57,77,0
2,note_on,57,0,200
2,note_on,45,0,0
2,note_on,40,75,755
2,note_on,45,75,0
2,note_on,49,84,0
2,note_on,52,84,0
2,note_on,52,0,755
2,note_on,40,0,0
2,note_on,45,0,0
2,note_on,49,0,0
2,note_on,45,69,0
2,note_on,57,77,0
2,note_on,57,0,200
2,note_on,45,0,0
2,note_on,38,75,755
2,note_on,41,75,0
2,note_on,45,84,0
2,note_on,50,84,0
2,note_on,50,0,833
2,note_on,38,0,0
2,note_on,41,0,0
2,note_on,45,0,0
2,note_on,45,69,0
2,note_on,57,77,0
2,note_on,57,0,200
2,note_on,45,0,0
2,note_on,40,75,706
2,note_on,45,75,0
2,note_on,49,84,0
2,note_on,52,84,0
2,note_on,52,0,833
2,note_on,40,0,0
2,note_on,45,0,0
2,note_on,49,0,0
2,note_on,45,69,0
2,note_on,57,77,0
2,note_on,57,0,2
2,note_on,45,0,0
2,note_on,69,85,280
2,note_on,57,85,0
2,note_on,57,0,201
2,note_on,69,0,0
2,note_on,67,73,120
2,note_on,55,73,0
2,note_on,55,0,60
2,note_on,67,0,0
2,note_on,65,87,28
2,note_on,53,87,0
2,note_on,53,0,94
2,note_on,65,0,0
2,note_on,64,72,180
2,note_on,52,72,0
2,note_on,52,0,60
2,note_on,64,0,0
2,note_on,50,78,60
2,note_on,62,78,0
2,note_on,62,0,86
2,note_on,50,0,0
2,note_on,49,72,180
2,note_on,61,72,0
2,note_on,61,0,60
2,note_on,49,0,0
2,note_on,50,78,60
2,note_on,62,78,0
2,note_on,62,0,89
2,note_on,50,0,0
2,note_on,48,70,180
2,note_on,60,70,0
2,note_on,60,0,60
2,note_on,48,0,0
2,note_on,46,79,60
2,note_on,58,79,0
2,note_on,58,0,177
2,note_on,46,0,0
2,note_on,45,75,180
2,note_on,57,75,0
2,note_on,57,0,60
2,note_on,45,0,0
2,note_on,43,73,60
2,note_on,55,73,0
2,note_on,55,0,83
2,note_on,43,0,0
2,note_on,41,69,180
2,note_on,53,69,0
2,note_on,53,0,60
2,note_on,41,0,0
2,note_on,40,74,60
2,note_on,52,74,0
2,note_on,52,0,146
2,note_on,40,0,0
2,note_on,38,68,180
2,note_on,50,68,0
2,note_on,50,0,60
2,note_on,38,0,0
2,note_on,37,80,60
2,note_on,49,80,0
2,note_on,49,0,103
2,note_on,37,0,0
2,note_on,34,74,180
2,note_on,46,74,0
2,note_on,46,0,60
2,note_on,34,0,0
2,note_on,33,84,60
2,note_on,45,84,0
2,note_on,45,0,160
2,note_on,33,0,0
2,note_on,31,73,180
2,note_on,43,73,0
2,note_on,43,0,60
2,note_on,31,0,0
2,note_on,29,84,60
2,note_on,41,84,0
2,note_on,41,0,193
2,note_on,29,0,0
2,note_on,67,69,40
2,note_on,55,69,0
2,note_on,55,0,60
2,note_on,67,0,0
2,note_on,65,76,60
2,note_on,53,76,0
2,note_on,53,0,95
2,note_on,65,0,0
2,note_on,64,66,180
2,note_on,52,66,0
2,note_on,52,0,60
2,note_on,64,0,0
2,note_on,50,77,60
2,note_on,62,77,0
2,note_on,62,0,120
2,note_on,50,0,0
2,note_on,48,65,180
2,note_on,60,65,0
2,note_on,60,0,60
2,note_on,48,0,0
2,note_on,46,76,60
2,note_on,58,76,0
2,note_on,58,0,85
2,note_on,46,0,0
2,note_on,45,67,180
2,note_on,57,67,0
2,note_on,57,0,60
2,note_on,45,0,0
2,note_on,43,74,60
2,note_on,55,74,0
2,note_on,55,0,94
2,note_on,43,0,0
2,note_on,41,67,180
2,note_on,53,67,0
2,note_on,53,0,60
2,note_on,41,0,0
2,note_on,40,73,60
2,note_on,52,73,0
2,note_on,52,0,123
2,note_on,40,0,0
2,note_on,38,67,180
2,note_on,50,67,0
2,note_on,50,0,60
2,note_on,38,0,0
2,note_on,37,78,60
2,note_on,49,78,0
2,note_on,49,0,97
2,note_on,37,0,0
2,note_on,34,72,180
2,note_on,46,72,0
2,note_on,46,0,60
2,note_on,34,0,0
2,note_on,33,81,60
2,note_on,45,81,0
2,note_on,45,0,157
2,note_on,33,0,0
2,note_on,31,70,180
2,note_on,43,70,6
2,note_on,31,0,54
2,note_on,43,0,6
2,note_on,29,84,54
2,note_on,41,84,0
2,note_on,41,0,193
2,note_on,29,0,0
2,note_on,67,71,40
2,note_on,55,71,0
2,note_on,55,0,60
2,note_on,67,0,0
2,note_on,65,78,60
2,note_on,53,78,0
2,note_on,53,0,106
2,note_on,65,0,0
2,note_on,64,71,180
2,note_on,52,71,0
2,note_on,52,0,60
2,note_on,64,0,0
2,note_on,53,77,60
2,note_on,65,77,0
2,note_on,65,0,113
2,note_on,53,0,0
2,note_on,52,69,180
2,note_on,64,69,0
2,note_on,64,0,60
2,note_on,52,0,0
2,note_on,50,76,60
2,note_on,62,76,0
2,note_on,62,0,155
2,note_on,50,0,0
2,note_on,48,69,180
2,note_on,60,69,0
2,note_on,60,0,60
2,note_on,48,0,0
2,note_on,46,78,60
2,note_on,58,78,0
2,note_on,58,0,114
2,note_on,46,0,0
2,note_on,45,66,180
2,note_on,57,66,0
2,note_on,57,0,60
2,note_on,45,0,0
2,note_on,43,72,60
2,note_on,55,72,0
2,note_on,55,0,97
2,note_on,43,0,0
2,note_on,41,68,180
2,note_on,53,68,0
2,note_on,53,0,60
2,note_on,41,0,0
2,note_on,40,74,60
2,note_on,52,74,0
2,note_on,52,0,89
2,note_on,40,0,0
2,note_on,38,69,180
2,note_on,50,69,0
2,note_on,50,0,60
2,note_on,38,0,0
2,note_on,36,79,60
2,note_on,48,79,0
2,note_on,48,0,157
2,note_on,36,0,0
2,note_on,34,71,180
2,note_on,46,71,0
2,note_on,46,0,60
2,note_on,34,0,0
2,note_on,33,85,60
2,note_on,45,85,0
2,note_on,45,0,200
2,note_on,33,0,0
2,note_on,58,73,40
2,note_on,70,73,0
2,note_on,70,0,60
2,note_on,58,0,0
2,note_on,57,80,60
2,note_on,69,80,0
2,note_on,69,0,180
2,note_on,57,0,0
2,note_on,55,71,180
2,note_on,67,71,0
2,note_on,67,0,60
2,note_on,55,0,0
2,note_on,65,76,60
2,note_on,53,76,0
2,note_on,53,0,109
2,note_on,65,0,0
2,note_on,64,72,180
2,note_on,52,72,0
2,note_on,52,0,60
2,note_on,64,0,0
2,note_on,50,82,60
2,note_on,62,82,0
2,note_on,62,0,162
2,note_on,50,0,0
2,note_on,48,69,180
2,note_on,60,69,0
2,note_on,60,0,60
2,note_on,48,0,0
2,note_on,46,85,60
2,note_on,58,85,0
2,note_on,58,0,89
2,note_on,46,0,0
2,note_on,45,69,180
2,note_on,57,69,0
2,note_on,57,0,60
2,note_on,45,0,0
2,note_on,43,80,60
2,note_on,55,80,0
2,note_on,55,0,129
2,note_on,43,0,0
2,note_on,41,70,180
2,note_on,53,70,0
2,note_on,53,0,60
2,note_on,41,0,0
2,note_on,40,83,60
2,note_on,52,83,0
2,note_on,52,0,109
2,note_on,40,0,0
2,note_on,38,73,180
2,note_on,50,73,0
2,note_on,50,0,60
2,note_on,38,0,0
2,note_on,36,84,60
2,note_on,48,84,0
2,note_on,48,0,163
2,note_on,36,0,0
2,note_on,34,84,180
2,note_on,46,84,0
2,note_on,46,0,60
2,note_on,34,0,0
2,note_on,33,78,60
2,note_on,36,78,0
2,note_on,41,87,0
2,note_on,45,87,0
2,note_on,45,0,865
2,note_on,33,0,0
2,note_on,36,0,0
2,note_on,41,0,0
2,note_on,53,58,0
2,note_on,57,58,0
2,note_on,48,52,0
2,note_on,45,52,0
2,note_on,45,0,25
2,note_on,53,0,0
2,note_on,57,0,0
2,note_on,48,0,0
2,note_on,33,60,561
2,note_on,36,67,0
2,note_on,41,67,0
2,note_on,29,60,0
2,note_on,29,0,882
2,note_on,33,0,0
2,note_on,36,0,0
2,note_on,41,0,0
2,note_on,45,52,0
2,note_on,48,58,0
2,note_on,53,58,0
2,note_on,41,52,0
2,note_on,41,0,46
2,note_on,45,0,0
2,note_on,48,0,0
2,note_on,53,0,0
2,note_on,33,70,529
2,note_on,45,78,0
2,note_on,45,0,234
2,note_on,33,0,0
2,note_on,37,63,40
2,note_on,49,70,0
2,note_on,49,0,80
2,note_on,37,0,0
2,note_on,37,70,40
2,note_on,49,78,0
2,note_on,49,0,320
2,note_on,37,0,0
2,note_on,40,63,40
2,note_on,52,70,0
2,note_on,52,0,80
2,note_on,40,0,0
2,note_on,40,70,40
2,note_on,52,78,0
2,note_on,52,0,277
2,note_on,40,0,0
2,note_on,45,63,40
2,note_on,57,70,0
2,note_on,57,0,80
2,note_on,45,0,0
2,note_on,45,70,37
2,note_on,57,78,0
2,note_on,57,0,90
2,note_on,45,0,0
2,note_on,45,63,150
2,note_on,57,71,0
2,note_on,57,0,90
2,note_on,45,0,0
2,note_on,57,50,150
2,note_on,57,0,289
2,note_on,61,40,40
2,note_on,61,0,80
2,note_on,61,49,40
2,note_on,61,0,320
2,note_on,64,38,40
2,note_on,64,0,80
2,note_on,64,48,40
2,note_on,64,0,254
2,note_on,69,38,40
2,note_on,69,0,17
2,note_on,69,45,40
2,note_on,69,0,90
2,note_on,69,38,150
2,note_on,69,0,90
2,note_on,65,44,150
2,note_on,69,44,0
2,note_on,69,0,221
2,note_on,65,0,0
2,note_on,65,33,40
2,note_on,69,33,0
2,note_on,69,0,80
2,note_on,65,0,0
2,note_on,65,42,40
2,note_on,69,42,0
2,note_on,69,0,320
2,note_on,65,0,0
2,note_on,65,33,40
2,note_on,69,33,0
2,note_on,69,0,80
2,note_on,65,0,0
2,note_on,65,42,40
2,note_on,69,42,0
2,note_on,69,0,271
2,note_on,65,0,0
2,note_on,65,34,40
2,note_on,69,34,0
2,note_on,69,0,2
2,note_on,65,0,0
2,note_on,65,40,40
2,note_on,69,40,0
2,note_on,69,0,90
2,note_on,65,0,0
2,note_on,65,36,150
2,note_on,69,36,0
2,note_on,69,0,90
2,note_on,65,0,0
2,note_on,41,31,150
2,note_on,53,31,0
2,note_on,53,0,68
2,note_on,41,0,0
2,note_on,45,37,0
2,note_on,57,37,0
2,note_on,57,0,163
2,note_on,45,0,0
2,note_on,48,34,65
2,note_on,55,34,0
2,note_on,55,0,859
2,note_on,48,0,0
2,note_on,60,37,0
2,note_on,60,0,137
2,note_on,43,31,540
2,note_on,55,31,0
2,note_on,55,0,97
2,note_on,43,0,0
2,note_on,46,37,0
2,note_on,58,37,0
2,note_on,58,0,129
2,note_on,46,0,0
2,note_on,50,37,43
2,note_on,57,37,0
2,note_on,57,0,846
2,note_on,50,0,0
2,note_on,62,37,0
2,note_on,62,0,109
2,note_on,43,40,537
2,note_on,50,40,0
2,note_on,50,0,869
2,note_on,43,0,0
2,note_on,48,37,0
2,note_on,52,37,0
2,note_on,52,0,97
2,note_on,48,0,0
2,note_on,41,41,554
2,note_on,48,41,0
2,note_on,48,0,869
2,note_on,41,0,0
2,note_on,46,37,0
2,note_on,50,37,0
2,note_on,50,0,97
2,note_on,46,0,0
2,note_on,46,49,521
2,note_on,50,49,0
2,note_on,50,0,294
2,note_on,46,0,0
2,note_on,46,49,0
2,note_on,49,49,0
2,note_on,52,49,0
2,note_on,52,0,50
2,note_on,49,0,0
2,note_on,46,0,0
2,note_on,46,53,0
2,note_on,49,53,0
2,note_on,52,53,0
2,note_on,52,0,360
2,note_on,49,0,0
2,note_on,46,0,0
2,note_on,46,52,0
2,note_on,50,52,0
2,note_on,53,52,0
2,note_on,53,0,46
2,note_on,50,0,0
2,note_on,46,0,0
2,note_on,46,60,0
2,note_on,50,60,0
2,note_on,53,60,0
2,note_on,53,0,360
2,note_on,50,0,0
2,note_on,46,0,0
2,note_on,46,59,0
2,note_on,52,59,0
2,note_on,55,59,0
2,note_on,55,0,12
2,note_on,52,0,0
2,note_on,46,0,0
2,note_on,46,64,0
2,note_on,52,64,0
2,note_on,55,64,0
2,note_on,55,0,360
2,note_on,52,0,0
2,note_on,46,0,0
2,note_on,47,60,0
2,note_on,53,60,0
2,note_on,56,60,0
2,note_on,56,0,33
2,note_on,53,0,0
2,note_on,47,0,0
2,note_on,47,68,0
2,note_on,53,68,0
2,note_on,56,68,0
2,note_on,56,0,360
2,note_on,53,0,0
2,note_on,47,0,0
2,note_on,36,63,0
2,note_on,48,63,0
2,note_on,48,0,19
2,note_on,36,0,0
2,note_on,36,67,0
2,note_on,48,67,0
2,note_on,48,0,360
2,note_on,36,0,0
2,note_on,38,64,0
2,note_on,50,64,0
2,note_on,50,0,6
2,note_on,38,0,0
2,note_on,38,69,0
2,note_on,50,69,0
2,note_on,50,0,360
2,note_on,38,0,0
2,note_on,31,58,0
2,note_on,43,65,0
2,note_on,43,0,32
2,note_on,31,0,0
2,note_on,31,64,0
2,note_on,43,72,0
2,note_on,43,0,360
2,note_on,31,0,0
2,note_on,36,61,0
2,note_on,48,68,0
2,note_on,48,0,87
2,note_on,36,0,0
2,note_on,36,69,0
2,note_on,48,77,0
2,note_on,48,0,29
2,note_on,36,0,0
2,note_on,48,92,480
2,note_on,60,92,0
2,note_on,60,0,340
2,note_on,48,0,0
2,note_on,44,81,0
2,note_on,56,81,0
2,note_on,56,0,80
2,note_on,44,0,0
2,note_on,44,85,34
2,note_on,56,85,0
2,note_on,56,0,90
2,note_on,44,0,0
2,note_on,41,80,150
2,note_on,53,80,0
2,note_on,53,0,90
2,note_on,41,0,0
2,note_on,36,77,150
2,note_on,48,77,0
2,note_on,48,0,29
2,note_on,36,0,0
2,note_on,48,92,480
2,note_on,60,92,0
2,note_on,60,0,340
2,note_on,48,0,0
2,note_on,44,81,0
2,note_on,56,81,0
2,note_on,56,0,80
2,note_on,44,0,0
2,note_on,44,85,34
2,note_on,56,85,0
2,note_on,56,0,90
2,note_on,44,0,0
2,note_on,41,80,150
2,note_on,53,80,0
2,note_on,53,0,90
2,note_on,41,0,0
2,note_on,36,70,150
2,note_on,48,70,0
2,note_on,48,0,395
2,note_on,36,0,0
2,note_on,67,45,833
2,note_on,64,36,0
2,note_on,58,36,0
2,note_on,58,0,1857
2,note_on,64,0,0
2,note_on,67,0,0
2,note_on,65,45,0
2,note_on,60,36,0
2,note_on,57,36,0
2,note_on,57,0,1779
2,note_on,60,0,0
2,note_on,65,0,0
2,note_on,64,40,0
2,note_on,55,32,0
2,note_on,58,32,0
2,note_on,58,0,1794
2,note_on,55,0,0
2,note_on,64,0,0
2,note_on,65,35,0
2,note_on,57,28,0
2,note_on,53,28,0
2,note_on,53,0,860
2,note_on,57,0,0
2,note_on,65,0,0
2,note_on,53,27,40
2,note_on,57,27,0
2,note_on,60,34,0
2,note_on,60,0,920
2,note_on,57,0,0
2,note_on,53,0,0
2,note_on,53,22,409
2,note_on,57,22,0
2,note_on,60,28,0
2,note_on,60,0,440
2,note_on,57,0,0
2,note_on,53,0,0
2,note_on,53,22,40
2,note_on,57,22,0
2,note_on,60,28,0
2,note_on,60,0,440
2,note_on,57,0,0
2,note_on,53,0,0
2,note_on,53,20,40
2,note_on,57,20,0
2,note_on,60,26,0
2,note_on,60,0,440
2,note_on,57,0,0
2,note_on,53,0,0
2,note_on,62,31,40
2,note_on,58,24,0
2,note_on,53,24,0
2,note_on,53,0,856
2,note_on,58,0,0
2,note_on,62,0,0
2,note_on,53,24,40
2,note_on,58,24,0
2,note_on,62,30,0
2,note_on,62,0,871
2,note_on,58,0,0
2,note_on,53,0,0
2,note_on,64,24,426
2,note_on,60,19,0
2,note_on,58,19,0
2,note_on,53,19,0
2,note_on,53,0,440
2,note_on,64,0,0
2,note_on,60,0,0
2,note_on,58,0,0
2,note_on,62,24,40
2,note_on,60,19,0
2,note_on,58,19,0
2,note_on,53,19,0
2,note_on,53,0,367
2,note_on,62,0,0
2,note_on,60,0,0
2,note_on,58,0,0
2,note_on,64,24,40
2,note_on,60,19,0
2,note_on,58,19,0
2,note_on,53,19,0
2,note_on,53,0,440
2,note_on,64,0,0
2,note_on,60,0,0
2,note_on,58,0,0
2,note_on,60,29,40
2,note_on,65,37,0
2,note_on,57,29,0
2,note_on,53,29,0
2,note_on,53,0,860
2,note_on,60,0,0
2,note_on,65,0,0
2,note_on,57,0,0
2,note_on,53,23,40
2,note_on,56,23,0
2,note_on,60,29,0
2,note_on,60,0,849
2,note_on,56,0,0
2,note_on,53,0,0
2,note_on,53,22,409
2,note_on,56,22,0
2,note_on,60,28,0
2,note_on,60,0,440
2,note_on,56,0,0
2,note_on,53,0,0
2,note_on,53,22,40
2,note_on,56,22,0
2,note_on,60,28,0
2,note_on,60,0,391
2,note_on,56,0,0
2,note_on,53,0,0
2,note_on,53,20,40
2,note_on,56,20,0
2,note_on,60,26,0
2,note_on,60,0,440
2,note_on,56,0,0
2,note_on,53,0,0
2,note_on,65,31,40
2,note_on,61,24,0
2,note_on,56,24,0
2,note_on,53,24,0
2,note_on,53,0,856
2,note_on,65,0,0
2,note_on,61,0,0
2,note_on,56,0,0
2,note_on,56,24,40
2,note_on,61,24,0
2,note_on,65,30,0
2,note_on,65,0,871
2,note_on,61,0,0
2,note_on,56,0,0
2,note_on,67,22,426
2,note_on,63,17,0
2,note_on,61,17,0
2,note_on,56,17,0
2,note_on,56,0,440
2,note_on,67,0,0
2,note_on,63,0,0
2,note_on,61,0,0
2,note_on,65,24,40
2,note_on,63,19,0
2,note_on,61,19,0
2,note_on,56,19,0
2,note_on,56,0,367
2,note_on,65,0,0
2,note_on,63,0,0
2,note_on,61,0,0
2,note_on,67,22,40
2,note_on,63,17,0
2,note_on,61,17,0
2,note_on,56,17,0
2,note_on,56,0,440
2,note_on,67,0,0
2,note_on,63,0,0
2,note_on,61,0,0
2,note_on,56,20,40
2,note_on,60,20,0
2,note_on,63,20,0
2,note_on,68,26,0
2,note_on,68,0,1829
2,note_on,56,0,0
2,note_on,60,0,0
2,note_on,63,0,0
2,note_on,57,17,0
2,note_on,60,17,0
2,note_on,63,17,0
2,note_on,65,22,0
2,note_on,65,0,1823
2,note_on,57,0,0
2,note_on,60,0,0
2,note_on,63,0,0
2,note_on,58,20,0
2,note_on,61,20,0
2,note_on,65,26,0
2,note_on,65,0,1857
2,note_on,61,0,0
2,note_on,58,0,0
2,note_on,59,17,0
2,note_on,62,17,0
2,note_on,65,17,0
2,note_on,67,22,0
2,note_on,67,0,1789
2,note_on,59,0,0
2,note_on,62,0,0
2,note_on,65,0,0
2,note_on,60,20,0
2,note_on,64,20,0
2,note_on,67,25,0
2,note_on,67,0,826
2,note_on,64,0,0
2,note_on,60,0,0
2,note_on,67,22,0
2,note_on,70,28,0
2,note_on,61,22,0
2,note_on,61,0,784
2,note_on,60,32,0
2,note_on,60,0,819
2,note_on,70,0,0
2,note_on,67,0,0
2,note_on,60,21,0
2,note_on,65,21,0
2,note_on,68,27,0
2,note_on,68,0,854
2,note_on,65,0,0
2,note_on,60,0,0
2,note_on,67,28,0
2,note_on,64,22,0
2,note_on,60,22,0
2,note_on,60,0,847
2,note_on,64,0,0
2,note_on,67,0,0
2,note_on,49,17,0
2,note_on,55,17,0
2,note_on,58,22,0
2,note_on,49,0,840
2,note_on,48,22,0
2,note_on,48,0,840
2,note_on,58,0,0
2,note_on,55,0,0
2,note_on,48,20,0
2,note_on,53,20,0
2,note_on,56,25,0
2,note_on,56,0,960
2,note_on,53,0,0
2,note_on,48,0,0
2,note_on,48,22,0
2,note_on,52,22,0
2,note_on,55,28,0
2,note_on,55,0,1807
2,note_on,52,0,0
2,note_on,48,0,0
2,note_on,59,22,0
2,note_on,62,22,0
2,note_on,64,28,0
2,note_on,64,0,1789
2,note_on,62,0,0
2,note_on,59,0,0
2,note_on,57,20,0
2,note_on,62,20,0
2,note_on,64,26,0
2,note_on,64,0,1793
2,note_on,62,0,0
2,note_on,57,0,0
2,note_on,56,17,0
2,note_on,62,17,0
2,note_on,64,22,0
2,note_on,64,0,1793
2,note_on,62,0,0
2,note_on,56,0,0
2,note_on,52,33,0
2,note_on,52,0,768
2,note_on,59,30,0
2,note_on,59,0,667
2,note_on,58,36,0
2,note_on,58,0,794
2,note_on,59,34,0
2,note_on,59,0,193
2,note_on,40,31,760
2,note_on,40,0,660
2,note_on,47,33,0
2,note_on,47,0,693
2,note_on,46,38,0
2,note_on,46,0,794
2,note_on,47,35,0
2,note_on,47,0,168
2,note_on,57,42,2680
2,note_on,57,0,880
2,note_on,64,42,0
2,note_on,64,0,587
2,note_on,63,44,0
2,note_on,63,0,39
2,note_on,64,38,0
2,note_on,64,0,200
2,note_on,60,39,280
2,note_on,59,39,300
2,note_on,60,0,20
2,note_on,57,38,100
2,note_on,59,0,6
2,note_on,57,0,800
2,note_on,52,52,0
2,note_on,52,0,613
2,note_on,48,47,0
2,note_on,48,0,794
2,note_on,45,39,0
2,note_on,45,0,180
2,note_on,45,42,699
2,note_on,45,0,853
2,note_on,38,49,0
2,note_on,38,0,507
2,note_on,37,52,0
2,note_on,37,0,56
2,note_on,38,42,0
2,note_on,38,0,200
2,note_on,33,44,280
2,note_on,45,44,0
2,note_on,47,45,300
2,note_on,35,45,0
2,note_on,45,0,20
2,note_on,33,0,0
2,note_on,36,45,100
2,note_on,48,45,0
2,note_on,47,0,11
2,note_on,35,0,0
2,note_on,36,0,747
2,note_on,48,0,0
2,note_on,52,55,0
2,note_on,40,55,0
2,note_on,40,0,560
2,note_on,52,0,0
2,note_on,48,45,0
2,note_on,36,45,0
2,note_on,36,0,815
2,note_on,48,0,0
2,note_on,45,50,0
2,note_on,33,41,0
2,note_on,33,0,45
2,note_on,45,0,0
2,note_on,45,46,424
2,note_on,45,0,925
2,note_on,50,41,0
2,note_on,50,0,480
2,note_on,52,44,0
2,note_on,52,0,402
2,note_on,53,42,0
2,note_on,53,0,311
2,note_on,52,45,0
2,note_on,52,0,776
2,note_on,45,41,0
2,note_on,45,0,56
2,note_on,55,51,360
2,note_on,55,0,374
2,note_on,53,46,0
2,note_on,53,0,769
2,note_on,45,43,0
2,note_on,45,0,81
2,note_on,53,40,360
2,note_on,53,0,353
2,note_on,52,45,0
2,note_on,52,0,678
2,note_on,45,43,0
2,note_on,45,0,28
2,note_on,33,56,360
2,note_on,45,56,0
2,note_on,45,0,868
2,note_on,33,0,0
2,note_on,38,52,0
2,note_on,50,52,0
2,note_on,50,0,480
2,note_on,38,0,0
2,note_on,52,56,0
2,note_on,40,56,0
2,note_on,40,0,381
2,note_on,52,0,0
2,note_on,41,52,0
2,note_on,53,52,0
2,note_on,53,0,346
2,note_on,41,0,0
2,note_on,40,56,0
2,note_on,52,56,0
2,note_on,52,0,664
2,note_on,40,0,0
2,note_on,33,53,0
2,note_on,45,53,0
2,note_on,45,0,64
2,note_on,33,0,0
2,note_on,40,62,360
2,note_on,52,62,0
2,note_on,52,0,918
2,note_on,40,0,0
2,note_on,43,68,0
2,note_on,55,68,0
2,note_on,55,0,480
2,note_on,43,0,0
2,note_on,45,74,0
2,note_on,57,74,0
2,note_on,57,0,445
2,note_on,45,0,0
2,note_on,59,72,0
2,note_on,47,72,0
2,note_on,47,0,356
2,note_on,59,0,0
2,note_on,47,85,0
2,note_on,59,85,0
2,note_on,59,0,767
2,note_on,47,0,0
2,note_on,59,70,80
2,note_on,47,70,0
2,note_on,47,0,728
2,note_on,59,0,0
2,note_on,55,58,80
2,note_on,43,58,0
2,note_on,43,0,854
2,note_on,55,0,0
2,note_on,52,47,0
2,note_on,40,47,0
2,note_on,40,0,175
2,note_on,52,0,0
2,note_on,35,32,760
2,note_on,47,32,0
2,note_on,47,0,852
2,note_on,35,0,0
2,note_on,47,30,80
2,note_on,35,30,0
2,note_on,35,0,792
2,note_on,47,0,0
2,note_on,31,29,80
2,note_on,43,29,0
2,note_on,43,0,826
2,note_on,31,0,0
2,note_on,28,28,0
2,note_on,40,28,0
2,note_on,40,0,175
2,note_on,28,0,0
2,note_on,40,30,760
2,note_on,41,30,1080
2,note_on,40,0,20
2,note_on,40,26,100
2,note_on,41,0,20
2,note_on,41,30,100
2,note_on,40,0,20
2,note_on,40,24,100
2,note_on,41,0,20
2,note_on,41,30,100
2,note_on,40,0,20
2,note_on,40,25,100
2,note_on,41,0,20
2,note_on,41,30,100
2,note_on,40,0,20
2,note_on,40,31,100
2,note_on,41,0,20
2,note_on,41,28,100
2,note_on,40,0,20
2,note_on,40,31,100
2,note_on,41,0,20
2,note_on,41,31,100
2,note_on,40,0,20
2,note_on,40,34,100
2,note_on,41,0,20
2,note_on,41,30,100
2,note_on,40,0,20
2,note_on,40,34,100
2,note_on,41,0,20
2,note_on,41,29,100
2,note_on,40,0,20
2,note_on,40,34,100
2,note_on,41,0,20
2,note_on,41,28,100
2,note_on,40,0,20
2,note_on,40,34,100
2,note_on,41,0,20
2,note_on,41,29,100
2,note_on,40,0,20
2,note_on,40,34,100
2,note_on,41,0,20
2,note_on,41,29,100
2,note_on,40,0,20
2,note_on,40,34,100
2,note_on,41,0,20
2,note_on,41,30,100
2,note_on,40,0,20
2,note_on,40,39,100
2,note_on,41,0,20
2,note_on,41,33,100
2,note_on,40,0,20
2,note_on,40,39,100
2,note_on,41,0,20
2,note_on,41,33,100
2,note_on,40,0,20
2,note_on,40,39,100
2,note_on,41,0,20
2,note_on,41,33,100
2,note_on,40,0,20
2,note_on,40,40,100
2,note_on,41,0,20
2,note_on,41,35,100
2,note_on,40,0,20
2,note_on,40,40,100
2,note_on,41,0,20
2,note_on,41,35,100
2,note_on,40,0,20
2,note_on,40,41,100
2,note_on,41,0,20
2,note_on,41,34,100
2,note_on,40,0,20
2,note_on,40,41,100
2,note_on,41,0,20
2,note_on,41,36,100
2,note_on,40,0,20
2,note_on,40,42,100
2,note_on,41,0,20
2,note_on,41,37,100
2,note_on,40,0,20
2,note_on,40,47,100
2,note_on,41,0,20
2,note_on,41,39,100
2,note_on,40,0,20
2,note_on,40,47,100
2,note_on,41,0,20
2,note_on,41,39,100
2,note_on,40,0,20
2,note_on,40,48,100
2,note_on,41,0,20
2,note_on,41,40,100
2,note_on,40,0,20
2,note_on,40,48,100
2,note_on,41,0,20
2,note_on,41,42,100
2,note_on,40,0,20
2,note_on,40,49,100
2,note_on,41,0,20
2,note_on,41,43,100
2,note_on,40,0,20
2,note_on,40,54,100
2,note_on,41,0,20
2,note_on,41,48,100
2,note_on,40,0,20
2,note_on,40,62,100
2,note_on,41,0,20
2,note_on,41,63,100
2,note_on,40,0,20
2,note_on,40,71,100
2,note_on,41,0,20
2,note_on,44,79,100
2,note_on,40,0,20
2,note_on,45,78,100
2,note_on,33,78,0
2,note_on,44,0,20
2,note_on,33,0,747
2,note_on,45,0,0
2,note_on,40,77,0
2,note_on,52,77,0
2,note_on,52,0,560
2,note_on,40,0,0
2,note_on,51,75,0
2,note_on,39,75,0
2,note_on,39,0,820
2,note_on,51,0,0
2,note_on,52,71,0
2,note_on,40,71,0
2,note_on,40,0,233
2,note_on,52,0,0
2,note_on,33,37,240
2,note_on,45,37,0
2,note_on,45,0,297
2,note_on,33,0,0
2,note_on,35,35,40
2,note_on,47,35,0
2,note_on,47,0,80
2,note_on,35,0,0
2,note_on,36,39,20
2,note_on,48,39,0
2,note_on,48,0,243
2,note_on,36,0,0
2,note_on,50,36,40
2,note_on,38,36,0
2,note_on,38,0,89
2,note_on,50,0,0
2,note_on,52,41,20
2,note_on,40,41,0
2,note_on,40,0,240
2,note_on,52,0,0
2,note_on,53,38,40
2,note_on,41,38,0
2,note_on,41,0,75
2,note_on,53,0,0
2,note_on,40,45,20
2,note_on,52,45,0
2,note_on,52,0,214
2,note_on,40,0,0
2,note_on,41,39,40
2,note_on,53,39,0
2,note_on,53,0,83
2,note_on,41,0,0
2,note_on,43,44,20
2,note_on,55,44,0
2,note_on,55,0,231
2,note_on,43,0,0
2,note_on,45,40,40
2,note_on,57,40,0
2,note_on,57,0,57
2,note_on,45,0,0
2,note_on,55,46,20
2,note_on,43,46,0
2,note_on,43,0,240
2,note_on,55,0,0
2,note_on,41,44,40
2,note_on,53,44,0
2,note_on,53,0,84
2,note_on,41,0,0
2,note_on,52,46,20
2,note_on,40,46,0
2,note_on,40,0,226
2,note_on,52,0,0
2,note_on,50,44,40
2,note_on,38,44,0
2,note_on,38,0,77
2,note_on,50,0,0
2,note_on,36,50,20
2,note_on,48,50,0
2,note_on,48,0,249
2,note_on,36,0,0
2,note_on,35,46,40
2,note_on,47,46,0
2,note_on,47,0,80
2,note_on,35,0,0
2,note_on,48,51,20
2,note_on,36,51,0
2,note_on,36,0,120
2,note_on,48,0,0
2,note_on,45,85,360
2,note_on,45,0,833
2,note_on,45,74,0
2,note_on,38,74,0
2,note_on,38,0,587
2,note_on,45,0,0
2,note_on,37,71,0
2,note_on,45,71,0
2,note_on,37,0,4
2,note_on,38,71,0
2,note_on,38,0,240
2,note_on,45,0,0
2,note_on,38,44,240
2,note_on,50,44,0
2,note_on,50,0,267
2,note_on,38,0,0
2,note_on,52,37,40
2,note_on,40,37,0
2,note_on,40,0,92
2,note_on,52,0,0
2,note_on,53,42,20
2,note_on,41,42,0
2,note_on,41,0,171
2,note_on,53,0,0
2,note_on,55,40,40
2,note_on,43,40,0
2,note_on,43,0,80
2,note_on,55,0,0
2,note_on,45,43,20
2,note_on,57,43,0
2,note_on,57,0,177
2,note_on,45,0,0
2,note_on,46,42,40
2,note_on,58,42,0
2,note_on,58,0,74
2,note_on,46,0,0
2,note_on,57,45,20
2,note_on,45,45,0
2,note_on,45,0,177
2,note_on,57,0,0
2,note_on,46,39,40
2,note_on,58,39,0
2,note_on,58,0,77
2,note_on,46,0,0
2,note_on,48,44,20
2,note_on,60,44,0
2,note_on,60,0,206
2,note_on,48,0,0
2,note_on,62,40,40
2,note_on,50,40,0
2,note_on,50,0,80
2,note_on,62,0,0
2,note_on,48,46,20
2,note_on,60,46,0
2,note_on,60,0,231
2,note_on,48,0,0
2,note_on,46,44,40
2,note_on,58,44,0
2,note_on,58,0,74
2,note_on,46,0,0
2,note_on,45,46,20
2,note_on,57,46,0
2,note_on,57,0,200
2,note_on,45,0,0
2,note_on,55,44,40
2,note_on,43,44,0
2,note_on,43,0,90
2,note_on,55,0,0
2,note_on,53,50,20
2,note_on,41,50,0
2,note_on,41,0,223
2,note_on,53,0,0
2,note_on,52,46,40
2,note_on,40,46,0
2,note_on,40,0,77
2,note_on,52,0,0
2,note_on,41,51,20
2,note_on,53,51,0
2,note_on,53,0,120
2,note_on,41,0,0
2,note_on,50,89,360
2,note_on,55,89,0
2,note_on,62,99,0
2,note_on,58,99,0
2,note_on,58,0,939
2,note_on,50,0,0
2,note_on,55,0,0
2,note_on,62,0,0
2,note_on,50,81,0
2,note_on,38,72,0
2,note_on,38,0,159
2,note_on,50,0,0
2,note_on,50,90,780
2,note_on,53,90,0
2,note_on,57,100,0
2,note_on,62,100,0
2,note_on,62,0,949
2,note_on,50,0,0
2,note_on,53,0,0
2,note_on,57,0,0
2,note_on,38,72,0
2,note_on,50,81,0
2,note_on,50,0,169
2,note_on,38,0,0
2,note_on,50,77,431
2,note_on,55,77,0
2,note_on,58,86,0
2,note_on,62,86,0
2,note_on,62,0,960
2,note_on,50,0,0
2,note_on,55,0,0
2,note_on,58,0,0
2,note_on,50,68,0
2,note_on,38,61,0
2,note_on,38,0,141
2,note_on,50,0,0
2,note_on,50,72,385
2,note_on,53,72,0
2,note_on,57,81,0
2,note_on,62,81,0
2,note_on,62,0,834
2,note_on,50,0,10
2,note_on,53,0,0
2,note_on,57,0,0
2,note_on,50,73,0
2,note_on,38,65,0
2,note_on,38,0,152
2,note_on,50,0,0
2,note_on,50,72,780
2,note_on,55,72,0
2,note_on,58,81,0
2,note_on,62,81,0
2,note_on,62,0,908
2,note_on,50,0,10
2,note_on,55,0,0
2,note_on,58,0,0
2,note_on,38,65,0
2,note_on,50,73,0
2,note_on,50,0,138
2,note_on,38,0,0
2,note_on,50,73,780
2,note_on,57,82,0
2,note_on,62,82,0
2,note_on,53,73,0
2,note_on,62,0,897
2,note_on,50,0,10
2,note_on,57,0,0
2,note_on,53,0,0
2,note_on,38,64,0
2,note_on,50,72,0
2,note_on,50,0,155
2,note_on,38,0,0
2,note_on,55,79,438
2,note_on,62,88,0
2,note_on,58,79,0
2,note_on,67,88,0
2,note_on,67,0,470
2,note_on,55,0,490
2,note_on,62,0,0
2,note_on,58,0,0
2,note_on,43,65,0
2,note_on,55,73,0
2,note_on,55,0,145
2,note_on,43,0,0
2,note_on,60,74,392
2,note_on,55,74,0
2,note_on,63,83,0
2,note_on,67,83,0
2,note_on,67,0,329
2,note_on,60,0,490
2,note_on,55,0,0
2,note_on,63,0,0
2,note_on,55,73,0
2,note_on,43,65,0
2,note_on,43,0,155
2,note_on,55,0,0
2,note_on,58,73,427
2,note_on,55,73,0
2,note_on,67,82,0
2,note_on,62,82,0
2,note_on,67,0,248
2,note_on,58,0,490
2,note_on,55,0,0
2,note_on,62,0,0
2,note_on,43,64,0
2,note_on,55,72,0
2,note_on,55,0,131
2,note_on,43,0,0
2,note_on,53,73,399
2,note_on,62,82,0
2,note_on,57,73,0
2,note_on,65,82,0
2,note_on,65,0,826
2,note_on,53,0,0
2,note_on,62,0,0
2,note_on,57,0,0
2,note_on,53,74,0
2,note_on,41,66,0
2,note_on,41,0,81
2,note_on,53,0,0
2,note_on,52,76,780
2,note_on,61,85,0
2,note_on,64,85,0
2,note_on,64,0,779
2,note_on,61,0,0
2,note_on,52,0,0
2,note_on,61,75,40
2,note_on,69,84,0
2,note_on,57,75,0
2,note_on,57,0,818
2,note_on,69,0,0
2,note_on,61,0,0
2,note_on,65,82,40
2,note_on,53,73,0
2,note_on,53,0,893
2,note_on,65,0,0
2,note_on,62,73,0
2,note_on,50,65,0
2,note_on,50,0,188
2,note_on,62,0,0
2,note_on,40,44,760
2,note_on,49,44,0
2,note_on,52,44,0
2,note_on,52,0,828
2,note_on,49,0,0
2,note_on,40,0,0
2,note_on,57,40,40
2,note_on,45,40,0
2,note_on,49,40,0
2,note_on,49,0,900
2,note_on,45,0,0
2,note_on,57,0,0
2,note_on,53,40,40
2,note_on,41,40,0
2,note_on,41,0,914
2,note_on,53,0,0
2,note_on,50,40,0
2,note_on,38,40,0
2,note_on,38,0,154
2,note_on,50,0,0
2,note_on,51,34,760
2,note_on,39,34,0
2,note_on,39,0,935
2,note_on,51,0,0
2,note_on,36,26,0
2,note_on,48,26,0
2,note_on,48,0,175
2,note_on,36,0,0
2,note_on,39,33,760
2,note_on,51,33,0
2,note_on,51,0,935
2,note_on,39,0,0
2,note_on,48,24,0
2,note_on,36,24,0
2,note_on,36,0,175
2,note_on,48,0,0
2,note_on,60,33,760
2,note_on,54,33,0
2,note_on,60,0,953
2,note_on,63,24,0
2,note_on,54,0,173
2,note_on,63,0,20
2,note_on,53,33,760
2,note_on,60,33,0
2,note_on,60,0,914
2,note_on,63,24,0
2,note_on,53,0,169
2,note_on,63,0,20
2,note_on,52,33,760
2,note_on,61,33,0
2,note_on,61,0,928
2,note_on,64,24,0
2,note_on,52,0,159
2,note_on,64,0,20
2,note_on,62,33,760
2,note_on,52,33,0
2,note_on,62,0,932
2,note_on,64,24,0
2,note_on,52,0,158
2,note_on,64,0,20
2,note_on,45,20,760
2,note_on,52,20,0
2,note_on,52,0,188
2,note_on,45,0,0
2,note_on,52,16,40
2,note_on,45,16,0
2,note_on,45,0,280
2,note_on,52,0,0
2,note_on,52,16,40
2,note_on,45,16,0
2,note_on,45,0,280
2,note_on,52,0,0
2,note_on,45,16,40
2,note_on,52,16,0
2,note_on,52,0,840
2,note_on,45,0,0
2,note_on,45,20,120
2,note_on,52,20,0
2,note_on,52,0,287
2,note_on,45,0,0
2,note_on,52,16,10
2,note_on,45,16,0
2,note_on,45,0,470
2,note_on,52,0,0
2,note_on,45,19,10
2,note_on,52,19,0
2,note_on,52,0,470
2,note_on,45,0,0
2,note_on,52,15,10
2,note_on,45,15,0
2,note_on,45,0,470
2,note_on,52,0,0
2,note_on,45,23,10
2,note_on,54,23,0
2,note_on,54,0,111
2,note_on,45,0,0
2,note_on,54,19,40
2,note_on,45,19,0
2,note_on,45,0,280
2,note_on,54,0,0
2,note_on,45,17,40
2,note_on,54,17,0
2,note_on,54,0,280
2,note_on,45,0,0
2,note_on,45,15,40
2,note_on,54,15,0
2,note_on,54,0,840
2,note_on,45,0,0
2,note_on,54,20,0
2,note_on,45,20,0
2,note_on,45,0,356
2,note_on,54,0,0
2,note_on,56,15,10
2,note_on,45,15,0
2,note_on,45,0,470
2,note_on,56,0,0
2,note_on,45,19,10
2,note_on,54,19,0
2,note_on,54,0,219
2,note_on,45,0,0
2,note_on,45,15,10
2,note_on,56,15,0
2,note_on,56,0,470
2,note_on,45,0,0
2,note_on,57,23,10
2,note_on,45,23,0
2,note_on,45,0,192
2,note_on,57,0,0
2,note_on,45,18,40
2,note_on,57,18,0
2,note_on,57,0,280
2,note_on,45,0,0
2,note_on,45,17,40
2,note_on,57,17,0
2,note_on,57,0,280
2,note_on,45,0,0
2,note_on,52,15,40
2,note_on,45,15,0
2,note_on,45,0,840
2,note_on,52,0,0
2,note_on,45,23,120
2,note_on,52,23,0
2,note_on,52,0,150
2,note_on,45,0,0
2,note_on,52,18,10
2,note_on,45,18,0
2,note_on,45,0,470
2,note_on,52,0,0
2,note_on,52,26,10
2,note_on,45,26,0
2,note_on,45,0,470
2,note_on,52,0,0
2,note_on,45,22,10
2,note_on,52,22,0
2,note_on,52,0,470
2,note_on,45,0,0
2,note_on,54,31,10
2,note_on,45,31,0
2,note_on,45,0,132
2,note_on,54,0,0
2,note_on,45,23,40
2,note_on,54,23,0
2,note_on,54,0,280
2,note_on,45,0,0
2,note_on,45,22,40
2,note_on,54,22,0
2,note_on,54,0,280
2,note_on,45,0,0
2,note_on,54,17,40
2,note_on,45,17,0
2,note_on,45,0,840
2,note_on,54,0,0
2,note_on,45,56,120
2,note_on,54,56,0
2,note_on,54,0,413
2,note_on,57,53,0
2,note_on,57,0,480
2,note_on,62,56,0
2,note_on,62,0,480
2,note_on,66,58,0
2,note_on,66,0,480
2,note_on,45,0,0
2,note_on,57,26,0
2,note_on,64,26,0
2,note_on,64,0,128
2,note_on,57,0,0
2,note_on,64,22,40
2,note_on,57,22,0
2,note_on,57,0,280
2,note_on,64,0,0
2,note_on,64,22,40
2,note_on,57,22,0
2,note_on,57,0,280
2,note_on,64,0,0
2,note_on,57,17,40
2,note_on,64,17,0
2,note_on,64,0,840
2,note_on,57,0,0
2,note_on,57,24,0
2,note_on,64,24,0
2,note_on,64,0,219
2,note_on,57,0,0
2,note_on,64,19,10
2,note_on,57,19,0
2,note_on,57,0,470
2,note_on,64,0,0
2,note_on,57,22,10
2,note_on,68,22,0
2,note_on,68,0,219
2,note_on,57,0,0
2,note_on,57,19,10
2,note_on,66,19,0
2,note_on,66,0,470
2,note_on,57,0,0
2,note_on,57,24,10
2,note_on,64,24,0
2,note_on,64,0,171
2,note_on,57,0,0
2,note_on,57,19,40
2,note_on,64,19,0
2,note_on,64,0,280
2,note_on,57,0,0
2,note_on,57,19,40
2,note_on,64,19,0
2,note_on,64,0,280
2,note_on,57,0,0
2,note_on,57,15,40
2,note_on,64,15,0
2,note_on,64,0,840
2,note_on,57,0,0
2,note_on,64,24,0
2,note_on,57,24,0
2,note_on,57,0,264
2,note_on,64,0,0
2,note_on,64,18,10
2,note_on,57,18,0
2,note_on,57,0,470
2,note_on,64,0,0
2,note_on,68,22,10
2,note_on,57,22,0
2,note_on,57,0,196
2,note_on,68,0,0
2,note_on,57,19,10
2,note_on,66,19,0
2,note_on,66,0,470
2,note_on,57,0,0
2,note_on,64,29,10
2,note_on,57,29,0
2,note_on,57,0,125
2,note_on,64,0,0
2,note_on,57,26,40
2,note_on,64,26,0
2,note_on,64,0,280
2,note_on,57,0,0
2,note_on,57,22,40
2,note_on,64,22,0
2,note_on,64,0,280
2,note_on,57,0,0
2,note_on,64,15,40
2,note_on,57,15,0
2,note_on,57,0,840
2,note_on,64,0,0
2,note_on,57,25,120
2,note_on,61,25,0
2,note_on,61,0,264
2,note_on,57,0,0
2,note_on,64,23,10
2,note_on,57,23,0
2,note_on,57,0,470
2,note_on,64,0,0
2,note_on,62,25,10
2,note_on,57,25,0
2,note_on,57,0,288
2,note_on,62,0,0
2,note_on,57,24,10
2,note_on,64,24,0
2,note_on,64,0,470
2,note_on,57,0,0
2,note_on,66,25,0
2,note_on,57,25,0
2,note_on,57,0,33
2,note_on,66,0,0
2,note_on,57,20,40
2,note_on,66,20,0
2,note_on,66,0,280
2,note_on,57,0,0
2,note_on,57,20,40
2,note_on,66,20,0
2,note_on,66,0,280
2,note_on,57,0,0
2,note_on,66,15,40
2,note_on,57,15,0
2,note_on,57,0,234
2,note_on,66,0,0
2,note_on,69,22,720
2,note_on,77,22,0
2,note_on,77,0,245
2,note_on,69,0,0
2,note_on,77,19,40
2,note_on,69,19,0
2,note_on,69,0,280
2,note_on,77,0,0
2,note_on,69,19,40
2,note_on,77,19,0
2,note_on,77,0,280
2,note_on,69,0,0
2,note_on,69,8,40
2,note_on,77,9,0
2,note_on,77,0,431
2,note_on,69,0,0
2,note_on,64,25,520
2,note_on,57,25,0
2,note_on,57,0,238
2,note_on,64,0,0
2,note_on,64,20,40
2,note_on,57,20,0
2,note_on,57,0,280
2,note_on,64,0,0
2,note_on,64,22,40
2,note_on,57,22,0
2,note_on,57,0,280
2,note_on,64,0,0
2,note_on,57,12,40
2,note_on,64,13,0
2,note_on,64,0,431
2,note_on,57,0,0
2,note_on,76,22,520
2,note_on,69,22,0
2,note_on,69,0,241
2,note_on,76,0,0
2,note_on,69,19,40
2,note_on,76,19,0
2,note_on,76,0,280
2,note_on,69,0,0
2,note_on,76,20,40
2,note_on,69,20,0
2,note_on,69,0,280
2,note_on,76,0,0
2,note_on,69,13,40
2,note_on,76,13,0
2,note_on,76,0,420
2,note_on,69,0,0
2,note_on,38,59,520
2,note_on,50,59,0
2,note_on,50,0,147
2,note_on,38,0,0
2,note_on,50,53,40
2,note_on,38,53,0
2,note_on,38,0,280
2,note_on,50,0,0
2,note_on,38,49,40
2,note_on,50,49,0
2,note_on,50,0,280
2,note_on,38,0,0
2,note_on,38,34,40
2,note_on,50,34,0
2,note_on,50,0,440
2,note_on,38,0,0
2,note_on,69,39,442
2,note_on,71,39,0
2,note_on,62,39,0
2,note_on,62,0,288
2,note_on,71,0,0
2,note_on,69,0,0
2,note_on,69,34,10
2,note_on,73,34,0
2,note_on,64,34,0
2,note_on,64,0,338
2,note_on,73,0,0
2,note_on,69,0,0
2,note_on,69,37,10
2,note_on,66,37,0
2,note_on,66,0,255
2,note_on,69,0,0
2,note_on,64,36,10
2,note_on,73,36,0
2,note_on,69,36,0
2,note_on,69,0,338
2,note_on,73,0,0
2,note_on,64,0,0
2,note_on,64,36,10
2,note_on,71,36,0
2,note_on,74,36,0
2,note_on,74,0,167
2,note_on,71,0,0
2,note_on,64,0,0
2,note_on,64,34,40
2,note_on,71,34,0
2,note_on,74,34,0
2,note_on,74,0,280
2,note_on,71,0,0
2,note_on,64,0,0
2,note_on,64,29,40
2,note_on,71,29,0
2,note_on,74,29,0
2,note_on,74,0,280
2,note_on,71,0,0
2,note_on,64,0,0
2,note_on,74,15,40
2,note_on,71,15,0
2,note_on,64,15,0
2,note_on,64,0,429
2,note_on,71,0,0
2,note_on,74,0,0
2,note_on,64,27,520
2,note_on,57,27,0
2,note_on,57,0,241
2,note_on,64,0,0
2,note_on,64,24,40
2,note_on,57,24,0
2,note_on,57,0,280
2,note_on,64,0,0
2,note_on,64,24,40
2,note_on,57,24,0
2,note_on,57,0,280
2,note_on,64,0,0
2,note_on,57,23,40
2,note_on,64,16,0
2,note_on,64,0,440
2,note_on,57,0,0
2,note_on,50,63,480
2,note_on,38,63,0
2,note_on,38,0,173
2,note_on,50,0,0
2,note_on,38,55,40
2,note_on,50,55,0
2,note_on,50,0,280
2,note_on,38,0,0
2,note_on,38,51,40
2,note_on,50,51,0
2,note_on,50,0,280
2,note_on,38,0,0
2,note_on,38,35,40
2,note_on,50,35,0
2,note_on,50,0,440
2,note_on,38,0,0
2,note_on,62,39,480
2,note_on,71,39,0
2,note_on,69,39,0
2,note_on,69,0,438
2,note_on,71,0,0
2,note_on,62,0,0
2,note_on,73,36,10
2,note_on,69,36,0
2,note_on,64,36,0
2,note_on,64,0,288
2,note_on,69,0,0
2,note_on,73,0,0
2,note_on,66,39,10
2,note_on,69,39,0
2,note_on,69,0,359
2,note_on,66,0,0
2,note_on,64,36,10
2,note_on,69,36,0
2,note_on,73,36,0
2,note_on,73,0,271
2,note_on,69,0,0
2,note_on,64,0,0
2,note_on,71,36,10
2,note_on,74,36,0
2,note_on,64,36,0
2,note_on,64,0,125
2,note_on,74,0,0
2,note_on,71,0,0
2,note_on,64,33,40
2,note_on,71,33,0
2,note_on,74,33,0
2,note_on,74,0,280
2,note_on,71,0,0
2,note_on,64,0,0
2,note_on,71,33,40
2,note_on,74,33,0
2,note_on,64,33,0
2,note_on,64,0,280
2,note_on,74,0,0
2,note_on,71,0,0
2,note_on,64,17,40
2,note_on,74,17,0
2,note_on,71,17,0
2,note_on,71,0,420
2,note_on,74,0,0
2,note_on,64,0,0
2,note_on,45,83,520
2,note_on,33,74,0
2,note_on,33,0,100
2,note_on,45,0,0
2,note_on,45,73,40
2,note_on,33,66,0
2,note_on,33,0,280
2,note_on,45,0,0
2,note_on,45,67,40
2,note_on,33,59,0
2,note_on,33,0,280
2,note_on,45,0,0
2,note_on,33,50,40
2,note_on,45,57,0
2,note_on,45,0,20
2,note_on,33,0,0
2,note_on,52,22,520
2,note_on,45,22,0
2,note_on,45,0,438
2,note_on,52,0,0
2,note_on,52,17,10
2,note_on,45,17,0
2,note_on,45,0,470
2,note_on,52,0,0
2,note_on,52,20,10
2,note_on,45,20,0
2,note_on,45,0,470
2,note_on,52,0,0
2,note_on,45,16,10
2,note_on,52,16,0
2,note_on,52,0,470
2,note_on,45,0,0
2,note_on,45,16,10
2,note_on,53,16,0
2,note_on,53,0,835
2,note_on,45,0,0
2,note_on,45,8,40
2,note_on,53,8,0
2,note_on,53,0,152
2,note_on,45,0,0
2,note_on,56,23,720
2,note_on,45,23,0
2,note_on,45,0,881
2,note_on,56,0,0
2,note_on,56,9,40
2,note_on,45,9,0
2,note_on,45,0,88
2,note_on,56,0,0
2,note_on,45,82,720
2,note_on,33,73,0
2,note_on,33,0,67
2,note_on,45,0,0
2,note_on,45,75,40
2,note_on,33,68,0
2,note_on,33,0,280
2,note_on,45,0,0
2,note_on,45,73,40
2,note_on,33,66,0
2,note_on,33,0,280
2,note_on,45,0,0
2,note_on,45,58,40
2,note_on,33,51,0
2,note_on,33,0,440
2,note_on,45,0,0
2,note_on,52,25,480
2,note_on,45,25,0
2,note_on,45,0,428
2,note_on,52,0,0
2,note_on,45,18,10
2,note_on,52,18,0
2,note_on,52,0,470
2,note_on,45,0,0
2,note_on,52,27,10
2,note_on,45,27,0
2,note_on,45,0,470
2,note_on,52,0,0
2,note_on,45,22,10
2,note_on,52,22,0
2,note_on,52,0,470
2,note_on,45,0,0
2,note_on,50,28,10
2,note_on,45,28,0
2,note_on,45,0,807
2,note_on,50,0,0
2,note_on,45,12,40
2,note_on,54,16,0
2,note_on,54,0,279
2,note_on,45,0,0
2,note_on,45,25,600
2,note_on,52,25,0
2,note_on,52,0,895
2,note_on,45,0,0
2,note_on,45,14,40
2,note_on,56,18,0
2,note_on,56,0,335
2,note_on,45,0,0
2,note_on,45,25,600
2,note_on,57,25,0
2,note_on,57,0,881
2,note_on,45,0,0
2,note_on,45,4,40
2,note_on,57,12,0
2,note_on,57,0,321
2,note_on,45,0,0
2,note_on,53,25,600
2,note_on,50,25,0
2,note_on,50,0,853
2,note_on,53,0,0
2,note_on,50,12,40
2,note_on,53,12,0
2,note_on,53,0,293
2,note_on,50,0,0
2,note_on,40,24,600
2,note_on,48,24,0
2,note_on,40,0,885
2,note_on,48,0,40
2,note_on,40,14,0
2,note_on,52,29,0
2,note_on,40,0,325
2,note_on,52,0,600
2,note_on,51,34,0
2,note_on,51,0,960
2,note_on,52,33,0
2,note_on,52,0,360
2,note_on,40,19,2520
2,note_on,47,33,0
2,note_on,40,0,874
2,note_on,47,0,40
2,note_on,52,35,0
2,note_on,40,16,0
2,note_on,40,0,394
2,note_on,52,0,520
2,note_on,51,35,0
2,note_on,51,0,960
2,note_on,52,34,0
2,note_on,52,0,360
2,note_on,51,22,2520
2,note_on,54,22,0
2,note_on,45,22,0
2,note_on,45,0,120
2,note_on,54,0,0
2,note_on,51,0,0
2,note_on,45,20,1440
2,note_on,54,20,0
2,note_on,51,20,0
2,note_on,51,0,246
2,note_on,54,0,0
2,note_on,45,0,0
2,note_on,39,31,1440
2,note_on,51,31,0
2,note_on,51,0,914
2,note_on,39,0,0
2,note_on,48,24,0
2,note_on,36,24,0
2,note_on,36,0,134
2,note_on,48,0,0
2,note_on,39,30,780
2,note_on,51,30,0
2,note_on,51,0,935
2,note_on,39,0,0
2,note_on,36,22,0
2,note_on,48,22,0
2,note_on,48,0,155
2,note_on,36,0,0
2,note_on,51,30,780
2,note_on,39,30,0
2,note_on,39,0,455
2,note_on,51,0,0
2,note_on,48,23,0
2,note_on,36,23,0
2,note_on,36,0,120
2,note_on,48,0,0
2,note_on,51,39,300
2,note_on,39,39,0
2,note_on,39,0,427
2,note_on,51,0,0
2,note_on,36,30,0
2,note_on,48,30,0
2,note_on,48,0,116
2,note_on,36,0,0
2,note_on,51,52,300
2,note_on,39,52,0
2,note_on,39,0,455
2,note_on,51,0,0
2,note_on,36,50,0
2,note_on,48,50,0
2,note_on,48,0,120
2,note_on,36,0,0
2,note_on,39,66,300
2,note_on,51,66,0
2,note_on,51,0,427
2,note_on,39,0,0
2,note_on,48,58,0
2,note_on,36,58,0
2,note_on,36,0,116
2,note_on,48,0,0
2,note_on,40,72,300
2,note_on,40,0,71
2,note_on,52,41,0
2,note_on,52,0,120
2,note_on,40,53,0
2,note_on,40,0,120
2,note_on,52,38,0
2,note_on,52,0,120
2,note_on,40,47,0
2,note_on,40,0,120
2,note_on,52,40,0
2,note_on,52,0,120
2,note_on,40,47,0
2,note_on,40,0,120
2,note_on,52,37,0
2,note_on,52,0,120
2,note_on,40,42,0
2,note_on,40,0,120
2,note_on,52,33,0
2,note_on,52,0,120
2,note_on,40,42,0
2,note_on,40,0,120
2,note_on,52,35,0
2,note_on,52,0,120
2,note_on,40,41,0
2,note_on,40,0,120
2,note_on,52,32,0
2,note_on,52,0,120
2,note_on,40,42,0
2,note_on,40,0,120
2,note_on,52,31,0
2,note_on,52,0,120
2,note_on,37,75,0
2,note_on,37,0,60
2,note_on,49,37,0
2,note_on,49,0,120
2,note_on,37,50,0
2,note_on,37,0,120
2,note_on,49,35,0
2,note_on,49,0,120
2,note_on,37,49,0
2,note_on,37,0,120
2,note_on,49,32,0
2,note_on,49,0,120
2,note_on,37,42,0
2,note_on,37,0,120
2,note_on,49,33,0
2,note_on,49,0,120
2,note_on,37,43,0
2,note_on,37,0,120
2,note_on,49,32,0
2,note_on,49,0,120
2,note_on,37,43,0
2,note_on,37,0,120
2,note_on,49,33,0
2,note_on,49,0,120
2,note_on,37,43,0
2,note_on,37,0,120
2,note_on,49,35,0
2,note_on,49,0,120
2,note_on,37,42,0
2,note_on,37,0,120
2,note_on,49,37,0
2,note_on,49,0,120
2,note_on,64,83,0
2,note_on,52,83,0
2,note_on,52,0,342
2,note_on,64,0,0
2,note_on,49,72,0
2,note_on,61,72,0
2,note_on,61,0,85
2,note_on,49,0,0
2,note_on,52,83,300
2,note_on,64,83,0
2,note_on,64,0,466
2,note_on,52,0,0
2,note_on,69,72,0
2,note_on,57,72,0
2,note_on,57,0,67
2,note_on,69,0,0
2,note_on,52,73,300
2,note_on,64,73,0
2,note_on,64,0,469
2,note_on,52,0,0
2,note_on,49,66,0
2,note_on,61,66,0
2,note_on,61,0,145
2,note_on,49,0,0
2,note_on,57,57,300
2,note_on,45,57,0
2,note_on,45,0,438
2,note_on,57,0,0
2,note_on,52,44,0
2,note_on,40,44,0
2,note_on,40,0,148
2,note_on,52,0,0
2,note_on,52,27,300
2,note_on,40,27,0
2,note_on,40,0,1520
2,note_on,52,0,0
2,note_on,40,71,0
2,note_on,40,0,11
2,note_on,52,38,0
2,note_on,52,0,120
2,note_on,40,47,0
2,note_on,40,0,120
2,note_on,52,35,0
2,note_on,52,0,120
2,note_on,37,66,0
2,note_on,37,0,120
2,note_on,49,37,0
2,note_on,49,0,120
2,note_on,37,42,0
2,note_on,37,0,120
2,note_on,49,35,0
2,note_on,49,0,120
2,note_on,40,63,0
2,note_on,40,0,120
2,note_on,52,41,0
2,note_on,52,0,120
2,note_on,40,51,0
2,note_on,40,0,120
2,note_on,52,38,0
2,note_on,52,0,120
2,note_on,45,67,0
2,note_on,45,0,120
2,note_on,57,40,0
2,note_on,57,0,120
2,note_on,45,52,0
2,note_on,45,0,120
2,note_on,57,40,0
2,note_on,57,0,120
2,note_on,49,72,0
2,note_on,49,0,120
2,note_on,61,47,0
2,note_on,61,0,120
2,note_on,49,61,0
2,note_on,49,0,120
2,note_on,61,48,0
2,note_on,61,0,120
2,note_on,52,79,0
2,note_on,52,0,120
2,note_on,64,52,0
2,note_on,64,0,120
2,note_on,52,63,0
2,note_on,52,0,120
2,note_on,64,56,0
2,note_on,64,0,120
2,note_on,57,84,0
2,note_on,57,0,120
2,note_on,69,57,0
2,note_on,69,0,120
2,note_on,57,66,0
2,note_on,57,0,120
2,note_on,69,53,0
2,note_on,69,0,120
2,note_on,52,73,0
2,note_on,52,0,120
2,note_on,64,46,0
2,note_on,64,0,120
2,note_on,52,57,0
2,note_on,52,0,120
2,note_on,64,45,0
2,note_on,64,0,120
2,note_on,52,28,0
2,note_on,40,28,0
2,note_on,40,0,1547
2,note_on,52,0,0
2,note_on,40,26,0
2,note_on,45,26,0
2,note_on,33,26,0
2,note_on,33,0,875
2,note_on,45,0,0
2,note_on,40,0,0
2,note_on,33,13,40
2,note_on,40,13,0
2,note_on,45,13,0
2,note_on,45,0,360
2,note_on,40,0,0
2,note_on,33,0,0
2,note_on,57,26,593
2,note_on,71,26,0
2,note_on,64,26,0
2,note_on,64,0,871
2,note_on,71,0,0
2,note_on,57,0,0
2,note_on,57,11,40
2,note_on,71,11,0
2,note_on,64,11,0
2,note_on,64,0,222
2,note_on,71,0,0
2,note_on,57,0,0
2,note_on,40,26,600
2,note_on,33,26,0
2,note_on,45,26,0
2,note_on,45,0,875
2,note_on,33,0,0
2,note_on,40,0,0
2,note_on,33,12,40
2,note_on,45,12,0
2,note_on,40,12,0
2,note_on,40,0,360
2,note_on,45,0,0
2,note_on,33,0,0
2,note_on,57,26,593
2,note_on,71,26,0
2,note_on,64,26,0
2,note_on,64,0,881
2,note_on,71,0,0
2,note_on,57,0,0
2,note_on,64,11,40
2,note_on,71,11,0
2,note_on,57,11,0
2,note_on,57,0,360
2,note_on,71,0,0
2,note_on,64,0,0
2,note_on,33,26,582
2,note_on,40,26,0
2,note_on,45,26,0
2,note_on,45,0,875
2,note_on,40,0,0
2,note_on,33,0,0
2,note_on,40,12,40
2,note_on,45,12,0
2,note_on,33,12,0
2,note_on,33,0,360
2,note_on,45,0,0
2,note_on,40,0,0
2,note_on,57,26,593
2,note_on,71,26,0
2,note_on,64,26,0
2,note_on,64,0,888
2,note_on,71,0,0
2,note_on,57,0,0
2,note_on,64,11,40
2,note_on,71,11,0
2,note_on,57,11,0
2,note_on,57,0,360
2,note_on,71,0,0
2,note_on,64,0,0
2,note_on,57,26,575
2,note_on,71,26,0
2,note_on,64,26,0
2,note_on,64,0,892
2,note_on,71,0,0
2,note_on,57,0,0
2,note_on,64,11,40
2,note_on,57,11,0
2,note_on,71,11,0
2,note_on,71,0,360
2,note_on,57,0,0
2,note_on,64,0,0
2,note_on,57,26,586
2,note_on,64,26,0
2,note_on,71,26,0
2,note_on,71,0,906
2,note_on,64,0,0
2,note_on,57,0,0
2,note_on,57,11,40
2,note_on,64,11,0
2,note_on,71,11,0
2,note_on,71,0,360
2,note_on,64,0,0
2,note_on,57,0,0
2,note_on,61,78,561
2,note_on,49,78,0
2,note_on,49,0,3600
2,note_on,61,0,0
2,note_on,45,22,0
2,note_on,57,35,0
2,note_on,57,0,3413
2,note_on,45,0,0
2,note_on,45,17,0
2,note_on,40,13,0
2,note_on,33,13,0
2,note_on,33,0,768
2,note_on,40,0,0
2,note_on,45,0,0
2,note_on,40,13,40
2,note_on,45,17,0
2,note_on,33,13,0
2,note_on,33,0,920
2,note_on,45,0,0
2,note_on,40,0,0
2,note_on,45,17,40
2,note_on,33,13,0
2,note_on,40,13,0
2,note_on,40,0,1920
2,note_on,33,0,0
2,note_on,45,0,0
