Track,Message Type,Note,Velocity,Time
1,note_on,56,29,0
1,note_on,61,29,0
1,note_on,64,29,0
1,note_on,68,35,0
1,note_on,68,0,960
1,note_on,56,0,0
1,note_on,61,0,0
1,note_on,64,0,0
1,note_on,56,28,0
1,note_on,61,28,0
1,note_on,64,28,0
1,note_on,68,35,0
1,note_on,68,0,475
1,note_on,56,0,0
1,note_on,61,0,0
1,note_on,64,0,0
1,note_on,56,29,5
1,note_on,64,29,0
1,note_on,61,29,0
1,note_on,68,35,0
1,note_on,68,0,475
1,note_on,56,0,0
1,note_on,64,0,0
1,note_on,61,0,0
1,note_on,63,37,5
1,note_on,66,37,0
1,note_on,56,37,0
1,note_on,68,44,0
1,note_on,68,0,720
1,note_on,56,0,0
1,note_on,57,39,0
1,note_on,69,39,0
1,note_on,69,0,240
1,note_on,57,0,0
1,note_on,68,39,0
1,note_on,56,39,0
1,note_on,56,0,960
1,note_on,63,0,0
1,note_on,66,0,0
1,note_on,68,0,0
1,note_on,64,44,0
1,note_on,52,37,0
1,note_on,56,37,0
1,note_on,61,37,0
1,note_on,61,0,960
1,note_on,64,0,0
1,note_on,52,0,0
1,note_on,56,0,0
1,note_on,54,42,0
1,note_on,57,42,0
1,note_on,61,42,0
1,note_on,66,51,0
1,note_on,66,0,960
1,note_on,54,0,0
1,note_on,57,0,0
1,note_on,61,0,0
1,note_on,56,39,120
1,note_on,60,41,30
1,note_on,63,46,30
1,note_on,68,48,30
1,note_on,68,0,1690
1,note_on,56,0,20
1,note_on,60,0,0
1,note_on,63,0,0
1,note_on,56,33,0
1,note_on,61,33,0
1,note_on,64,33,0
1,note_on,68,39,0
1,note_on,68,0,960
1,note_on,56,0,0
1,note_on,61,0,0
1,note_on,64,0,0
1,note_on,56,33,0
1,note_on,61,33,0
1,note_on,64,33,0
1,note_on,68,40,0
1,note_on,68,0,475
1,note_on,56,0,0
1,note_on,61,0,0
1,note_on,64,0,0
1,note_on,56,36,5
1,note_on,64,36,0
1,note_on,61,36,0
1,note_on,68,44,0
1,note_on,68,0,475
1,note_on,56,0,0
1,note_on,64,0,0
1,note_on,61,0,0
1,note_on,65,40,5
1,note_on,62,40,0
1,note_on,68,44,0
1,note_on,71,51,0
1,note_on,71,0,960
1,note_on,65,0,0
1,note_on,62,0,0
1,note_on,68,0,0
1,note_on,61,39,0
1,note_on,69,39,0
1,note_on,66,39,0
1,note_on,66,0,480
1,note_on,69,0,0
1,note_on,61,0,0
1,note_on,54,35,0
1,note_on,61,35,0
1,note_on,66,35,0
1,note_on,66,0,480
1,note_on,61,0,0
1,note_on,54,0,0
1,note_on,64,39,0
1,note_on,56,33,0
1,note_on,61,33,0
1,note_on,61,0,960
1,note_on,56,0,0
1,note_on,64,0,0
1,note_on,54,34,0
1,note_on,60,34,0
1,note_on,63,34,0
1,note_on,68,40,0
1,note_on,68,0,960
1,note_on,54,0,0
1,note_on,60,0,0
1,note_on,63,0,0
1,note_on,52,30,0
1,note_on,56,30,0
1,note_on,61,37,0
1,note_on,61,0,1152
1,note_on,63,35,0
1,note_on,63,0,192
1,note_on,64,36,0
1,note_on,56,0,96
1,note_on,52,0,0
1,note_on,64,0,96
1,note_on,66,37,0
1,note_on,66,0,192
1,note_on,69,37,0
1,note_on,69,0,192
1,note_on,56,29,0
1,note_on,61,29,0
1,note_on,64,29,0
1,note_on,68,35,0
1,note_on,68,0,960
1,note_on,56,0,0
1,note_on,61,0,0
1,note_on,64,0,0
1,note_on,56,28,0
1,note_on,61,28,0
1,note_on,64,28,0
1,note_on,68,35,0
1,note_on,68,0,475
1,note_on,56,0,0
1,note_on,61,0,0
1,note_on,64,0,0
1,note_on,56,29,5
1,note_on,64,29,0
1,note_on,61,29,0
1,note_on,68,35,0
1,note_on,68,0,475
1,note_on,56,0,0
1,note_on,64,0,0
1,note_on,61,0,0
1,note_on,63,37,5
1,note_on,66,37,0
1,note_on,56,37,0
1,note_on,68,44,0
1,note_on,68,0,720
1,note_on,56,0,0
1,note_on,57,39,0
1,note_on,69,39,0
1,note_on,69,0,240
1,note_on,57,0,0
1,note_on,68,39,0
1,note_on,56,39,0
1,note_on,56,0,960
1,note_on,63,0,0
1,note_on,66,0,0
1,note_on,68,0,0
1,note_on,64,44,0
1,note_on,52,37,0
1,note_on,56,37,0
1,note_on,61,37,0
1,note_on,61,0,960
1,note_on,64,0,0
1,note_on,52,0,0
1,note_on,56,0,0
1,note_on,54,42,0
1,note_on,57,42,0
1,note_on,61,42,0
1,note_on,66,51,0
1,note_on,66,0,960
1,note_on,54,0,0
1,note_on,57,0,0
1,note_on,61,0,0
1,note_on,56,39,120
1,note_on,60,41,30
1,note_on,63,46,30
1,note_on,68,48,30
1,note_on,68,0,1690
1,note_on,56,0,20
1,note_on,60,0,0
1,note_on,63,0,0
1,note_on,56,33,0
1,note_on,61,33,0
1,note_on,64,33,0
1,note_on,68,39,0
1,note_on,68,0,960
1,note_on,56,0,0
1,note_on,61,0,0
1,note_on,64,0,0
1,note_on,59,33,0
1,note_on,61,33,0
1,note_on,65,33,0
1,note_on,68,40,0
1,note_on,68,0,475
1,note_on,59,0,0
1,note_on,61,0,0
1,note_on,65,0,0
1,note_on,59,36,5
1,note_on,65,36,0
1,note_on,61,36,0
1,note_on,68,44,0
1,note_on,68,0,475
1,note_on,59,0,0
1,note_on,65,0,0
1,note_on,61,0,0
1,note_on,61,40,5
1,note_on,57,40,0
1,note_on,66,44,0
1,note_on,73,51,0
1,note_on,73,0,960
1,note_on,66,0,0
1,note_on,69,39,0
1,note_on,69,0,480
1,note_on,57,0,0
1,note_on,61,0,0
1,note_on,57,35,0
1,note_on,60,35,0
1,note_on,66,35,0
1,note_on,66,0,480
1,note_on,60,0,0
1,note_on,57,0,0
1,note_on,71,39,0
1,note_on,56,33,0
1,note_on,64,33,0
1,note_on,64,0,960
1,note_on,56,0,0
1,note_on,71,0,0
1,note_on,57,34,0
1,note_on,59,34,0
1,note_on,63,40,0
1,note_on,63,0,960
1,note_on,59,0,0
1,note_on,57,0,0
1,note_on,56,30,0
1,note_on,59,30,0
1,note_on,64,37,0
1,note_on,64,0,1152
1,note_on,66,35,0
1,note_on,66,0,192
1,note_on,68,36,0
1,note_on,59,0,96
1,note_on,56,0,0
1,note_on,68,0,96
1,note_on,69,37,0
1,note_on,69,0,192
1,note_on,73,37,0
1,note_on,73,0,192
1,note_on,71,38,0
1,note_on,64,31,0
1,note_on,66,25,240
1,note_on,64,0,20
1,note_on,64,31,220
1,note_on,66,0,20
1,note_on,66,25,220
1,note_on,64,0,20
1,note_on,71,0,220
1,note_on,68,31,0
1,note_on,71,38,0
1,note_on,66,0,20
1,note_on,66,24,220
1,note_on,68,0,20
1,note_on,71,0,220
1,note_on,71,38,0
1,note_on,68,31,0
1,note_on,66,0,20
1,note_on,64,24,220
1,note_on,68,0,20
1,note_on,64,0,220
1,note_on,71,0,0
1,note_on,63,31,0
1,note_on,71,48,0
1,note_on,64,24,240
1,note_on,63,0,20
1,note_on,63,31,220
1,note_on,64,0,20
1,note_on,71,0,220
1,note_on,64,25,0
1,note_on,73,42,0
1,note_on,63,0,20
1,note_on,73,0,220
1,note_on,71,42,0
1,note_on,66,31,0
1,note_on,64,0,20
1,note_on,65,25,220
1,note_on,66,0,20
1,note_on,66,31,220
1,note_on,65,0,20
1,note_on,63,25,220
1,note_on,66,0,20
1,note_on,63,0,220
1,note_on,71,0,0
1,note_on,64,31,0
1,note_on,71,48,0
1,note_on,66,26,240
1,note_on,64,0,20
1,note_on,64,31,220
1,note_on,66,0,20
1,note_on,66,25,220
1,note_on,64,0,20
1,note_on,71,0,220
1,note_on,73,50,0
1,note_on,68,31,0
1,note_on,66,0,20
1,note_on,64,25,220
1,note_on,71,48,0
1,note_on,68,0,20
1,note_on,73,0,0
1,note_on,59,31,220
1,note_on,68,46,0
1,note_on,64,0,20
1,note_on,71,0,0
1,note_on,64,44,220
1,note_on,59,0,20
1,note_on,68,0,0
1,note_on,64,0,220
1,note_on,66,49,0
1,note_on,63,31,0
1,note_on,64,26,240
1,note_on,63,0,20
1,note_on,64,0,220
1,note_on,63,31,0
1,note_on,61,25,240
1,note_on,63,0,20
1,note_on,59,31,220
1,note_on,61,0,20
1,note_on,58,25,220
1,note_on,59,0,20
1,note_on,66,0,220
1,note_on,67,50,0
1,note_on,59,31,0
1,note_on,58,0,20
1,note_on,63,26,220
1,note_on,59,0,20
1,note_on,63,0,220
1,note_on,67,0,0
1,note_on,64,31,0
1,note_on,68,45,0
1,note_on,63,25,240
1,note_on,64,0,20
1,note_on,61,31,220
1,note_on,63,0,20
1,note_on,63,25,220
1,note_on,61,0,20
1,note_on,68,0,220
1,note_on,64,31,0
1,note_on,68,39,0
1,note_on,63,0,20
1,note_on,63,24,220
1,note_on,64,0,20
1,note_on,68,0,220
1,note_on,68,40,0
1,note_on,64,31,0
1,note_on,63,0,20
1,note_on,61,24,220
1,note_on,64,0,20
1,note_on,61,0,220
1,note_on,68,0,0
1,note_on,63,31,0
1,note_on,68,48,0
1,note_on,61,24,240
1,note_on,63,0,20
1,note_on,60,31,220
1,note_on,61,0,20
1,note_on,68,0,220
1,note_on,69,42,0
1,note_on,61,25,0
1,note_on,60,0,20
1,note_on,69,0,220
1,note_on,63,31,0
1,note_on,68,42,0
1,note_on,61,0,20
1,note_on,61,25,220
1,note_on,63,0,20
1,note_on,63,31,220
1,note_on,61,0,20
1,note_on,60,25,220
1,note_on,63,0,20
1,note_on,60,0,220
1,note_on,68,0,0
1,note_on,73,48,0
1,note_on,61,37,0
1,note_on,63,41,240
1,note_on,61,0,20
1,note_on,64,43,220
1,note_on,63,0,20
1,note_on,66,44,220
1,note_on,64,0,20
1,note_on,67,51,220
1,note_on,66,0,20
1,note_on,72,55,220
1,note_on,73,0,20
1,note_on,75,60,220
1,note_on,72,0,20
1,note_on,73,55,220
1,note_on,75,0,20
1,note_on,67,0,220
1,note_on,72,51,0
1,note_on,68,29,0
1,note_on,73,0,20
1,note_on,68,0,940
1,note_on,72,0,0
1,note_on,67,29,0
1,note_on,73,53,0
1,note_on,72,45,240
1,note_on,73,0,20
1,note_on,75,49,220
1,note_on,72,0,20
1,note_on,73,45,220
1,note_on,75,0,20
1,note_on,67,0,220
1,note_on,72,48,0
1,note_on,68,29,0
1,note_on,73,0,20
1,note_on,68,0,940
1,note_on,72,0,0
1,note_on,67,29,0
1,note_on,73,50,0
1,note_on,72,42,240
1,note_on,73,0,20
1,note_on,75,50,220
1,note_on,72,0,20
1,note_on,73,42,140
1,note_on,75,0,20
1,note_on,72,42,140
1,note_on,73,0,20
1,note_on,72,0,136
1,note_on,67,0,4
1,note_on,68,29,0
1,note_on,72,50,0
1,note_on,72,0,1440
1,note_on,68,0,0
1,note_on,69,29,0
1,note_on,71,42,0
1,note_on,69,0,240
1,note_on,63,29,0
1,note_on,63,0,240
1,note_on,71,0,0
1,note_on,71,38,0
1,note_on,64,31,0
1,note_on,66,25,240
1,note_on,64,0,20
1,note_on,64,31,220
1,note_on,66,0,20
1,note_on,66,25,220
1,note_on,64,0,20
1,note_on,71,0,220
1,note_on,71,38,0
1,note_on,68,31,0
1,note_on,66,0,20
1,note_on,66,24,220
1,note_on,68,0,20
1,note_on,71,0,220
1,note_on,71,38,0
1,note_on,68,31,0
1,note_on,66,0,20
1,note_on,64,24,220
1,note_on,68,0,20
1,note_on,64,0,220
1,note_on,71,0,0
1,note_on,63,31,0
1,note_on,71,48,0
1,note_on,64,24,240
1,note_on,63,0,20
1,note_on,63,31,220
1,note_on,64,0,20
1,note_on,71,0,220
1,note_on,64,25,0
1,note_on,73,42,0
1,note_on,63,0,20
1,note_on,73,0,220
1,note_on,66,31,0
1,note_on,71,42,0
1,note_on,64,0,20
1,note_on,65,25,220
1,note_on,66,0,20
1,note_on,66,31,220
1,note_on,65,0,20
1,note_on,63,25,220
1,note_on,66,0,20
1,note_on,63,0,220
1,note_on,71,0,0
1,note_on,71,48,0
1,note_on,64,31,0
1,note_on,66,26,240
1,note_on,64,0,20
1,note_on,64,31,220
1,note_on,66,0,20
1,note_on,66,25,220
1,note_on,64,0,20
1,note_on,71,0,220
1,note_on,73,50,0
1,note_on,68,31,0
1,note_on,66,0,20
1,note_on,64,25,220
1,note_on,71,48,0
1,note_on,68,0,20
1,note_on,73,0,0
1,note_on,68,46,220
1,note_on,59,31,0
1,note_on,64,0,20
1,note_on,71,0,0
1,note_on,64,44,220
1,note_on,68,0,20
1,note_on,59,0,0
1,note_on,64,0,220
1,note_on,63,31,0
1,note_on,66,49,0
1,note_on,64,26,240
1,note_on,63,0,20
1,note_on,63,31,220
1,note_on,64,0,20
1,note_on,61,25,220
1,note_on,63,0,20
1,note_on,63,31,220
1,note_on,61,0,20
1,note_on,59,25,220
1,note_on,63,0,20
1,note_on,66,0,220
1,note_on,67,50,0
1,note_on,61,31,0
1,note_on,59,0,20
1,note_on,63,26,220
1,note_on,61,0,20
1,note_on,63,0,220
1,note_on,67,0,0
1,note_on,68,56,0
1,note_on,60,31,0
1,note_on,63,25,240
1,note_on,60,0,20
1,note_on,62,31,220
1,note_on,63,0,20
1,note_on,63,25,220
1,note_on,62,0,20
1,note_on,63,0,220
1,note_on,68,0,0
1,note_on,69,53,0
1,note_on,64,39,0
1,note_on,61,33,240
1,note_on,64,0,20
1,note_on,69,0,220
1,note_on,60,37,0
1,note_on,69,51,0
1,note_on,61,0,20
1,note_on,61,30,220
1,note_on,60,0,20
1,note_on,61,0,220
1,note_on,69,0,0
1,note_on,68,56,0
1,note_on,60,31,0
1,note_on,63,24,240
1,note_on,60,0,20
1,note_on,62,31,220
1,note_on,63,0,20
1,note_on,63,25,220
1,note_on,62,0,20
1,note_on,68,0,220
1,note_on,64,39,0
1,note_on,69,57,0
1,note_on,63,0,20
1,note_on,61,31,220
1,note_on,64,0,20
1,note_on,69,0,220
1,note_on,60,38,0
1,note_on,69,52,0
1,note_on,61,0,20
1,note_on,61,30,220
1,note_on,60,0,20
1,note_on,61,0,220
1,note_on,69,0,0
1,note_on,68,53,0
1,note_on,60,38,0
1,note_on,68,0,240
1,note_on,75,58,0
1,note_on,75,0,240
1,note_on,60,0,0
1,note_on,64,37,0
1,note_on,73,53,0
1,note_on,68,37,0
1,note_on,73,0,240
1,note_on,75,56,0
1,note_on,75,0,240
1,note_on,68,0,0
1,note_on,64,0,0
1,note_on,63,36,0
1,note_on,72,53,0
1,note_on,66,36,0
1,note_on,72,0,240
1,note_on,73,50,0
1,note_on,73,0,240
1,note_on,66,0,0
1,note_on,63,0,0
1,note_on,61,35,0
1,note_on,64,35,0
1,note_on,69,51,0
1,note_on,69,0,240
1,note_on,71,46,0
1,note_on,71,0,240
1,note_on,64,0,0
1,note_on,61,0,0
1,note_on,68,49,0
1,note_on,60,34,0
1,note_on,63,34,0
1,note_on,68,0,240
1,note_on,69,41,0
1,note_on,69,0,240
1,note_on,63,0,0
1,note_on,60,0,0
1,note_on,66,47,0
1,note_on,57,33,0
1,note_on,61,33,0
1,note_on,66,0,240
1,note_on,68,41,0
1,note_on,68,0,240
1,note_on,61,0,0
1,note_on,57,0,0
1,note_on,56,31,0
1,note_on,64,47,0
1,note_on,61,31,0
1,note_on,64,0,240
1,note_on,66,40,0
1,note_on,66,0,240
1,note_on,61,0,0
1,note_on,56,0,0
1,note_on,54,30,0
1,note_on,63,45,0
1,note_on,60,30,0
1,note_on,63,0,240
1,note_on,64,40,0
1,note_on,64,0,240
1,note_on,60,0,0
1,note_on,54,0,0
1,note_on,52,33,0
1,note_on,56,33,0
1,note_on,61,40,0
1,note_on,61,0,960
1,note_on,56,0,0
1,note_on,52,0,0
1,note_on,52,35,0
1,note_on,56,35,0
1,note_on,61,43,0
1,note_on,61,0,475
1,note_on,56,0,0
1,note_on,52,0,0
1,note_on,52,36,5
1,note_on,56,36,0
1,note_on,61,45,0
1,note_on,61,0,475
1,note_on,56,0,0
1,note_on,52,0,0
1,note_on,52,38,5
1,note_on,56,38,0
1,note_on,61,38,0
1,note_on,64,48,0
1,note_on,64,0,1920
1,note_on,52,0,0
1,note_on,56,0,0
1,note_on,61,0,0
1,note_on,52,37,0
1,note_on,57,37,0
1,note_on,61,45,0
1,note_on,61,0,960
1,note_on,57,0,0
1,note_on,52,0,0
1,note_on,52,37,0
1,note_on,57,37,0
1,note_on,61,45,0
1,note_on,61,0,475
1,note_on,57,0,0
1,note_on,52,0,0
1,note_on,52,44,5
1,note_on,57,44,0
1,note_on,61,52,0
1,note_on,61,0,475
1,note_on,57,0,0
1,note_on,52,0,0
1,note_on,52,44,5
1,note_on,57,44,0
1,note_on,61,44,0
1,note_on,64,52,0
1,note_on,64,0,1920
1,note_on,52,0,0
1,note_on,57,0,0
1,note_on,61,0,0
1,note_on,54,42,0
1,note_on,57,42,0
1,note_on,62,50,0
1,note_on,62,0,960
1,note_on,57,0,0
1,note_on,54,0,0
1,note_on,54,44,0
1,note_on,57,44,0
1,note_on,62,52,0
1,note_on,62,0,475
1,note_on,57,0,0
1,note_on,54,0,0
1,note_on,54,44,5
1,note_on,57,44,0
1,note_on,62,52,0
1,note_on,62,0,475
1,note_on,57,0,0
1,note_on,54,0,0
1,note_on,57,47,5
1,note_on,62,47,0
1,note_on,66,47,0
1,note_on,69,56,0
1,note_on,69,0,1920
1,note_on,57,0,0
1,note_on,62,0,0
1,note_on,66,0,0
1,note_on,60,59,0
1,note_on,63,59,0
1,note_on,66,59,0
1,note_on,68,59,0
1,note_on,72,70,0
1,note_on,72,0,960
1,note_on,66,0,0
1,note_on,60,0,0
1,note_on,63,0,0
1,note_on,68,0,0
1,note_on,61,66,0
1,note_on,64,66,0
1,note_on,68,66,0
1,note_on,73,78,0
1,note_on,73,0,960
1,note_on,61,0,0
1,note_on,64,0,0
1,note_on,68,0,0
1,note_on,64,74,0
1,note_on,68,74,0
1,note_on,73,74,0
1,note_on,76,88,0
1,note_on,76,0,960
1,note_on,64,0,0
1,note_on,68,0,0
1,note_on,73,0,0
1,note_on,67,85,0
1,note_on,73,85,0
1,note_on,75,85,0
1,note_on,79,101,0
1,note_on,79,0,960
1,note_on,67,0,0
1,note_on,73,0,0
1,note_on,75,0,0
1,note_on,68,88,0
1,note_on,72,88,0
1,note_on,75,88,0
1,note_on,80,103,0
1,note_on,80,0,240
1,note_on,68,0,0
1,note_on,72,0,0
1,note_on,75,0,0
1,note_on,60,74,0
1,note_on,63,74,0
1,note_on,68,89,0
1,note_on,68,0,120
1,note_on,63,0,0
1,note_on,60,0,0
1,note_on,60,79,120
1,note_on,63,79,0
1,note_on,69,93,0
1,note_on,69,0,120
1,note_on,63,0,0
1,note_on,60,0,0
1,note_on,61,74,600
1,note_on,68,89,0
1,note_on,64,74,0
1,note_on,64,0,240
1,note_on,68,0,0
1,note_on,61,0,0
1,note_on,61,81,0
1,note_on,64,81,0
1,note_on,73,97,0
1,note_on,73,0,240
1,note_on,64,0,0
1,note_on,61,0,0
1,note_on,63,74,480
1,note_on,67,74,0
1,note_on,73,89,0
1,note_on,73,0,240
1,note_on,67,0,0
1,note_on,63,0,0
1,note_on,63,81,0
1,note_on,67,81,0
1,note_on,75,97,0
1,note_on,73,81,0
1,note_on,73,0,240
1,note_on,63,0,0
1,note_on,67,0,0
1,note_on,75,0,0
1,note_on,68,74,480
1,note_on,72,74,0
1,note_on,75,88,0
1,note_on,75,0,240
1,note_on,72,0,0
1,note_on,68,0,0
1,note_on,68,81,0
1,note_on,72,81,0
1,note_on,80,97,0
1,note_on,80,0,240
1,note_on,72,0,0
1,note_on,68,0,0
1,note_on,72,74,480
1,note_on,75,74,0
1,note_on,80,89,0
1,note_on,80,0,114
1,note_on,75,0,0
1,note_on,72,0,0
1,note_on,72,74,6
1,note_on,75,74,0
1,note_on,80,89,0
1,note_on,80,0,114
1,note_on,75,0,0
1,note_on,72,0,0
1,note_on,72,79,6
1,note_on,75,79,0
1,note_on,81,93,0
1,note_on,81,0,240
1,note_on,75,0,0
1,note_on,72,0,0
1,note_on,73,74,480
1,note_on,80,89,0
1,note_on,76,74,0
1,note_on,76,0,114
1,note_on,80,0,0
1,note_on,73,0,0
1,note_on,73,74,6
1,note_on,76,74,0
1,note_on,80,89,0
1,note_on,80,0,114
1,note_on,76,0,0
1,note_on,73,0,0
1,note_on,73,81,6
1,note_on,76,81,0
1,note_on,85,97,0
1,note_on,85,0,240
1,note_on,76,0,0
1,note_on,73,0,0
1,note_on,75,74,480
1,note_on,79,74,0
1,note_on,85,89,0
1,note_on,85,0,114
1,note_on,79,0,0
1,note_on,75,0,0
1,note_on,75,74,6
1,note_on,79,74,0
1,note_on,85,89,0
1,note_on,85,0,114
1,note_on,79,0,0
1,note_on,75,0,0
1,note_on,75,81,6
1,note_on,79,81,0
1,note_on,87,97,0
1,note_on,85,97,0
1,note_on,85,0,240
1,note_on,75,0,0
1,note_on,79,0,0
1,note_on,87,0,0
1,note_on,80,74,480
1,note_on,84,74,0
1,note_on,87,88,0
1,note_on,87,0,114
1,note_on,84,0,0
1,note_on,80,0,0
1,note_on,80,74,6
1,note_on,84,74,0
1,note_on,87,88,0
1,note_on,87,0,114
1,note_on,84,0,0
1,note_on,80,0,0
1,note_on,80,81,6
1,note_on,84,81,0
1,note_on,92,97,0
1,note_on,92,0,240
1,note_on,84,0,0
1,note_on,80,0,0
1,note_on,93,81,480
1,note_on,87,68,0
1,note_on,84,68,0
1,note_on,81,68,0
1,note_on,81,0,114
1,note_on,93,0,0
1,note_on,87,0,0
1,note_on,84,0,0
1,note_on,81,67,6
1,note_on,84,67,0
1,note_on,87,67,0
1,note_on,93,80,0
1,note_on,93,0,114
1,note_on,81,0,0
1,note_on,84,0,0
1,note_on,87,0,0
1,note_on,90,80,246
1,note_on,84,67,0
1,note_on,81,67,0
1,note_on,78,67,0
1,note_on,78,0,114
1,note_on,90,0,0
1,note_on,84,0,0
1,note_on,81,0,0
1,note_on,78,67,6
1,note_on,81,67,0
1,note_on,84,67,0
1,note_on,90,79,0
1,note_on,90,0,114
1,note_on,78,0,0
1,note_on,81,0,0
1,note_on,84,0,0
1,note_on,87,75,246
1,note_on,81,63,0
1,note_on,78,63,0
1,note_on,75,63,0
1,note_on,75,0,114
1,note_on,87,0,0
1,note_on,81,0,0
1,note_on,78,0,0
1,note_on,75,63,6
1,note_on,78,63,0
1,note_on,81,63,0
1,note_on,87,75,0
1,note_on,87,0,114
1,note_on,75,0,0
1,note_on,78,0,0
1,note_on,81,0,0
1,note_on,84,72,246
1,note_on,78,61,0
1,note_on,75,61,0
1,note_on,72,61,0
1,note_on,72,0,114
1,note_on,84,0,0
1,note_on,78,0,0
1,note_on,75,0,0
1,note_on,72,61,6
1,note_on,75,61,0
1,note_on,78,61,0
1,note_on,84,72,0
1,note_on,84,0,114
1,note_on,72,0,0
1,note_on,75,0,0
1,note_on,78,0,0
1,note_on,72,64,246
1,note_on,75,64,0
1,note_on,78,64,0
1,note_on,84,77,0
1,note_on,84,0,114
1,note_on,72,0,0
1,note_on,75,0,0
1,note_on,78,0,0
1,note_on,84,78,6
1,note_on,78,66,0
1,note_on,75,66,0
1,note_on,72,66,0
1,note_on,72,0,114
1,note_on,84,0,0
1,note_on,78,0,0
1,note_on,75,0,0
1,note_on,85,81,246
1,note_on,79,68,0
1,note_on,76,68,0
1,note_on,73,68,0
1,note_on,73,0,114
1,note_on,85,0,0
1,note_on,79,0,0
1,note_on,76,0,0
1,note_on,73,70,6
1,note_on,76,70,0
1,note_on,79,70,0
1,note_on,85,84,0
1,note_on,85,0,114
1,note_on,73,0,0
1,note_on,76,0,0
1,note_on,79,0,0
1,note_on,87,89,246
1,note_on,85,89,0
1,note_on,79,74,0
1,note_on,75,74,0
1,note_on,75,0,114
1,note_on,87,0,0
1,note_on,85,0,0
1,note_on,79,0,0
1,note_on,75,75,6
1,note_on,79,75,0
1,note_on,85,90,0
1,note_on,87,90,0
1,note_on,87,0,114
1,note_on,75,0,0
1,note_on,79,0,0
1,note_on,85,0,0
1,note_on,92,106,6
1,note_on,87,90,0
1,note_on,84,90,0
1,note_on,80,90,0
1,note_on,80,0,240
1,note_on,92,0,0
1,note_on,87,0,0
1,note_on,84,0,0
1,note_on,81,53,480
1,note_on,75,45,0
1,note_on,72,45,0
1,note_on,69,45,0
1,note_on,69,0,114
1,note_on,81,0,0
1,note_on,75,0,0
1,note_on,72,0,0
1,note_on,69,45,6
1,note_on,72,45,0
1,note_on,75,45,0
1,note_on,81,53,0
1,note_on,81,0,114
1,note_on,69,0,0
1,note_on,72,0,0
1,note_on,75,0,0
1,note_on,78,52,246
1,note_on,72,44,0
1,note_on,69,44,0
1,note_on,66,44,0
1,note_on,66,0,114
1,note_on,78,0,0
1,note_on,72,0,0
1,note_on,69,0,0
1,note_on,66,44,6
1,note_on,69,44,0
1,note_on,72,44,0
1,note_on,78,52,0
1,note_on,78,0,114
1,note_on,66,0,0
1,note_on,69,0,0
1,note_on,72,0,0
1,note_on,75,51,246
1,note_on,69,42,0
1,note_on,66,42,0
1,note_on,63,42,0
1,note_on,63,0,114
1,note_on,75,0,0
1,note_on,69,0,0
1,note_on,66,0,0
1,note_on,63,42,6
1,note_on,66,42,0
1,note_on,69,42,0
1,note_on,75,51,0
1,note_on,75,0,114
1,note_on,63,0,0
1,note_on,66,0,0
1,note_on,69,0,0
1,note_on,72,50,246
1,note_on,66,42,0
1,note_on,63,42,0
1,note_on,60,42,0
1,note_on,60,0,114
1,note_on,72,0,0
1,note_on,66,0,0
1,note_on,63,0,0
1,note_on,60,42,6
1,note_on,63,42,0
1,note_on,66,42,0
1,note_on,72,50,0
1,note_on,72,0,114
1,note_on,60,0,0
1,note_on,63,0,0
1,note_on,66,0,0
1,note_on,60,41,246
1,note_on,63,41,0
1,note_on,66,41,0
1,note_on,72,49,0
1,note_on,72,0,114
1,note_on,60,0,0
1,note_on,63,0,0
1,note_on,66,0,0
1,note_on,72,49,6
1,note_on,66,41,0
1,note_on,63,41,0
1,note_on,60,41,0
1,note_on,60,0,114
1,note_on,72,0,0
1,note_on,66,0,0
1,note_on,63,0,0
1,note_on,73,48,246
1,note_on,67,40,0
1,note_on,64,40,0
1,note_on,61,40,0
1,note_on,61,0,114
1,note_on,73,0,0
1,note_on,67,0,0
1,note_on,64,0,0
1,note_on,61,39,6
1,note_on,64,39,0
1,note_on,67,39,0
1,note_on,73,47,0
1,note_on,73,0,114
1,note_on,61,0,0
1,note_on,64,0,0
1,note_on,67,0,0
1,note_on,75,67,246
1,note_on,73,56,0
1,note_on,67,56,0
1,note_on,63,56,0
1,note_on,63,0,114
1,note_on,75,0,0
1,note_on,73,0,0
1,note_on,67,0,0
1,note_on,63,56,6
1,note_on,67,56,0
1,note_on,73,56,0
1,note_on,75,67,0
1,note_on,75,0,114
1,note_on,63,0,0
1,note_on,67,0,0
1,note_on,73,0,0
1,note_on,80,73,6
1,note_on,75,61,0
1,note_on,72,61,0
1,note_on,68,61,0
1,note_on,68,0,240
1,note_on,80,0,0
1,note_on,75,0,0
1,note_on,72,0,0
1,note_on,66,51,480
1,note_on,63,36,0
1,note_on,60,36,0
1,note_on,60,0,60
1,note_on,63,0,0
1,note_on,66,0,0
1,note_on,60,36,60
1,note_on,63,36,0
1,note_on,66,51,0
1,note_on,66,0,60
1,note_on,63,0,0
1,note_on,60,0,0
1,note_on,66,48,300
1,note_on,63,33,0
1,note_on,57,33,0
1,note_on,57,0,60
1,note_on,63,0,0
1,note_on,66,0,0
1,note_on,57,33,60
1,note_on,63,33,0
1,note_on,66,48,0
1,note_on,66,0,60
1,note_on,63,0,0
1,note_on,57,0,0
1,note_on,66,45,300
1,note_on,63,31,0
1,note_on,60,31,0
1,note_on,60,0,60
1,note_on,63,0,0
1,note_on,66,0,0
1,note_on,60,31,60
1,note_on,63,31,0
1,note_on,66,45,0
1,note_on,66,0,60
1,note_on,63,0,0
1,note_on,60,0,0
1,note_on,66,42,300
1,note_on,63,28,0
1,note_on,57,28,0
1,note_on,57,0,60
1,note_on,63,0,0
1,note_on,66,0,0
1,note_on,57,28,60
1,note_on,63,28,0
1,note_on,66,40,0
1,note_on,66,0,60
1,note_on,63,0,0
1,note_on,57,0,0
1,note_on,60,26,300
1,note_on,66,26,0
1,note_on,68,39,0
1,note_on,68,0,60
1,note_on,66,0,0
1,note_on,60,0,0
1,note_on,68,39,60
1,note_on,66,26,0
1,note_on,60,26,0
1,note_on,60,0,60
1,note_on,66,0,0
1,note_on,68,0,0
1,note_on,56,26,300
1,note_on,68,35,0
1,note_on,66,30,0
1,note_on,60,25,0
1,note_on,60,0,60
1,note_on,56,0,0
1,note_on,68,0,0
1,note_on,66,0,0
1,note_on,56,24,60
1,note_on,60,23,0
1,note_on,66,28,0
1,note_on,68,33,0
1,note_on,68,0,60
1,note_on,56,0,0
1,note_on,60,0,0
1,note_on,66,0,0
1,note_on,60,23,300
1,note_on,66,28,0
1,note_on,68,33,0
1,note_on,68,0,60
1,note_on,66,0,0
1,note_on,60,0,0
1,note_on,68,33,60
1,note_on,66,28,0
1,note_on,60,23,0
1,note_on,60,0,60
1,note_on,66,0,0
1,note_on,68,0,0
1,note_on,56,22,300
1,note_on,68,31,0
1,note_on,66,27,0
1,note_on,60,22,0
1,note_on,60,0,60
1,note_on,56,0,0
1,note_on,68,0,0
1,note_on,66,0,0
1,note_on,56,21,60
1,note_on,60,21,0
1,note_on,66,25,0
1,note_on,68,29,0
1,note_on,68,0,60
1,note_on,56,0,0
1,note_on,60,0,0
1,note_on,66,0,0
1,note_on,68,28,60
1,note_on,80,37,0
1,note_on,80,0,960
1,note_on,68,0,0
1,note_on,68,27,0
1,note_on,80,37,0
1,note_on,80,0,475
1,note_on,68,0,0
1,note_on,68,28,5
1,note_on,80,37,0
1,note_on,80,0,475
1,note_on,68,0,0
1,note_on,68,36,5
1,note_on,80,47,0
1,note_on,80,0,720
1,note_on,68,0,0
1,note_on,70,38,0
1,note_on,82,40,0
1,note_on,82,0,240
1,note_on,70,0,0
1,note_on,80,40,0
1,note_on,68,38,0
1,note_on,68,0,960
1,note_on,80,0,0
1,note_on,65,28,0
1,note_on,77,37,0
1,note_on,77,0,960
1,note_on,65,0,0
1,note_on,68,27,0
1,note_on,80,37,0
1,note_on,80,0,240
1,note_on,68,0,0
1,note_on,67,27,0
1,note_on,79,37,0
1,note_on,79,0,240
1,note_on,67,0,0
1,note_on,65,28,0
1,note_on,77,37,0
1,note_on,77,0,240
1,note_on,65,0,0
1,note_on,67,27,0
1,note_on,79,37,0
1,note_on,79,0,240
1,note_on,67,0,0
1,note_on,68,36,0
1,note_on,80,47,0
1,note_on,80,0,1440
1,note_on,68,0,0
1,note_on,70,39,0
1,note_on,82,44,0
1,note_on,82,0,360
1,note_on,70,0,0
1,note_on,68,38,0
1,note_on,80,40,0
1,note_on,80,0,114
1,note_on,68,0,0
1,note_on,68,28,6
1,note_on,80,37,0
1,note_on,80,0,960
1,note_on,68,0,0
1,note_on,68,28,0
1,note_on,80,38,0
1,note_on,80,0,475
1,note_on,68,0,0
1,note_on,68,29,5
1,note_on,80,39,0
1,note_on,80,0,475
1,note_on,68,0,0
1,note_on,71,38,5
1,note_on,83,49,0
1,note_on,83,0,960
1,note_on,71,0,0
1,note_on,82,40,0
1,note_on,70,38,0
1,note_on,70,0,480
1,note_on,82,0,0
1,note_on,68,38,0
1,note_on,80,40,0
1,note_on,80,0,240
1,note_on,68,0,0
1,note_on,66,36,0
1,note_on,78,39,0
1,note_on,78,0,240
1,note_on,66,0,0
1,note_on,65,28,0
1,note_on,77,37,0
1,note_on,77,0,960
1,note_on,65,0,0
1,note_on,63,27,0
1,note_on,75,37,0
1,note_on,75,0,240
1,note_on,63,0,0
1,note_on,65,27,0
1,note_on,77,37,0
1,note_on,77,0,240
1,note_on,65,0,0
1,note_on,66,28,0
1,note_on,78,37,0
1,note_on,78,0,240
1,note_on,66,0,0
1,note_on,68,24,0
1,note_on,80,37,0
1,note_on,80,0,240
1,note_on,68,0,0
1,note_on,61,36,0
1,note_on,73,47,0
1,note_on,73,0,1920
1,note_on,61,0,0
1,note_on,68,33,0
1,note_on,80,44,0
1,note_on,80,0,960
1,note_on,68,0,0
1,note_on,68,31,0
1,note_on,80,44,0
1,note_on,80,0,480
1,note_on,68,0,0
1,note_on,68,33,0
1,note_on,80,44,0
1,note_on,80,0,480
1,note_on,68,0,0
1,note_on,68,42,0
1,note_on,80,56,0
1,note_on,80,0,720
1,note_on,68,0,0
1,note_on,69,45,0
1,note_on,81,49,0
1,note_on,81,0,240
1,note_on,69,0,0
1,note_on,80,49,0
1,note_on,68,45,0
1,note_on,68,0,960
1,note_on,80,0,0
1,note_on,64,33,0
1,note_on,76,44,0
1,note_on,76,0,960
1,note_on,64,0,0
1,note_on,68,31,0
1,note_on,80,44,0
1,note_on,80,0,240
1,note_on,68,0,0
1,note_on,66,31,0
1,note_on,78,44,0
1,note_on,78,0,240
1,note_on,66,0,0
1,note_on,64,33,0
1,note_on,76,44,0
1,note_on,76,0,240
1,note_on,64,0,0
1,note_on,66,31,0
1,note_on,78,44,0
1,note_on,78,0,240
1,note_on,66,0,0
1,note_on,68,42,0
1,note_on,80,56,0
1,note_on,80,0,1440
1,note_on,68,0,0
1,note_on,69,48,0
1,note_on,81,51,0
1,note_on,81,0,360
1,note_on,69,0,0
1,note_on,68,45,0
1,note_on,80,49,0
1,note_on,80,0,114
1,note_on,68,0,0
1,note_on,68,33,6
1,note_on,80,44,0
1,note_on,80,0,960
1,note_on,68,0,0
1,note_on,68,35,0
1,note_on,80,47,0
1,note_on,80,0,480
1,note_on,68,0,0
1,note_on,68,37,0
1,note_on,80,50,0
1,note_on,80,0,480
1,note_on,68,0,0
1,note_on,73,50,0
1,note_on,85,67,0
1,note_on,85,0,960
1,note_on,73,0,0
1,note_on,81,55,0
1,note_on,69,50,0
1,note_on,69,0,480
1,note_on,81,0,0
1,note_on,68,50,0
1,note_on,80,55,0
1,note_on,80,0,240
1,note_on,68,0,0
1,note_on,66,48,0
1,note_on,78,52,0
1,note_on,78,0,240
1,note_on,66,0,0
1,note_on,71,37,0
1,note_on,83,49,0
1,note_on,83,0,960
1,note_on,71,0,0
1,note_on,63,36,0
1,note_on,75,49,0
1,note_on,75,0,240
1,note_on,63,0,0
1,note_on,64,36,0
1,note_on,76,49,0
1,note_on,76,0,240
1,note_on,64,0,0
1,note_on,66,37,0
1,note_on,78,49,0
1,note_on,78,0,240
1,note_on,66,0,0
1,note_on,68,36,0
1,note_on,80,49,0
1,note_on,80,0,240
1,note_on,68,0,0
1,note_on,64,45,0
1,note_on,76,58,0
1,note_on,76,0,960
1,note_on,64,0,0
1,note_on,63,40,0
1,note_on,75,51,0
1,note_on,75,0,960
1,note_on,63,0,0
1,note_on,68,41,0
1,note_on,56,22,120
1,note_on,56,0,120
1,note_on,65,22,0
1,note_on,61,17,0
1,note_on,61,0,120
1,note_on,65,0,0
1,note_on,56,22,0
1,note_on,56,0,120
1,note_on,61,17,0
1,note_on,65,22,0
1,note_on,65,0,120
1,note_on,61,0,0
1,note_on,56,22,0
1,note_on,56,0,120
1,note_on,61,17,0
1,note_on,65,22,0
1,note_on,65,0,120
1,note_on,61,0,0
1,note_on,56,22,0
1,note_on,56,0,120
1,note_on,68,0,0
1,note_on,68,41,0
1,note_on,56,24,120
1,note_on,56,0,120
1,note_on,65,24,0
1,note_on,61,18,0
1,note_on,61,0,120
1,note_on,65,0,0
1,note_on,56,24,0
1,note_on,56,0,120
1,note_on,68,0,0
1,note_on,68,41,0
1,note_on,65,22,0
1,note_on,61,17,0
1,note_on,61,0,120
1,note_on,65,0,0
1,note_on,56,27,0
1,note_on,56,0,120
1,note_on,65,27,0
1,note_on,61,21,0
1,note_on,61,0,120
1,note_on,65,0,0
1,note_on,56,27,0
1,note_on,56,0,120
1,note_on,68,0,0
1,note_on,68,52,0
1,note_on,56,26,120
1,note_on,56,0,120
1,note_on,66,26,0
1,note_on,60,20,0
1,note_on,60,0,120
1,note_on,66,0,0
1,note_on,56,26,0
1,note_on,56,0,120
1,note_on,60,20,0
1,note_on,66,26,0
1,note_on,66,0,120
1,note_on,60,0,0
1,note_on,56,26,0
1,note_on,56,0,120
1,note_on,68,0,0
1,note_on,60,17,0
1,note_on,66,22,0
1,note_on,70,46,0
1,note_on,66,0,120
1,note_on,60,0,0
1,note_on,56,22,0
1,note_on,56,0,120
1,note_on,70,0,0
1,note_on,68,46,0
1,note_on,56,22,120
1,note_on,56,0,120
1,note_on,60,17,0
1,note_on,66,22,0
1,note_on,66,0,120
1,note_on,60,0,0
1,note_on,56,22,0
1,note_on,56,0,120
1,note_on,60,17,0
1,note_on,66,22,0
1,note_on,66,0,120
1,note_on,60,0,0
1,note_on,56,22,0
1,note_on,56,0,120
1,note_on,60,17,0
1,note_on,66,22,0
1,note_on,66,0,120
1,note_on,60,0,0
1,note_on,56,22,0
1,note_on,56,0,120
1,note_on,68,0,0
1,note_on,65,41,0
1,note_on,53,22,120
1,note_on,53,0,120
1,note_on,61,22,0
1,note_on,56,17,0
1,note_on,56,0,120
1,note_on,61,0,0
1,note_on,53,22,0
1,note_on,53,0,120
1,note_on,61,22,0
1,note_on,56,17,0
1,note_on,56,0,120
1,note_on,61,0,0
1,note_on,53,22,0
1,note_on,53,0,120
1,note_on,61,22,0
1,note_on,56,17,0
1,note_on,56,0,120
1,note_on,61,0,0
1,note_on,53,22,0
1,note_on,53,0,120
1,note_on,65,0,0
1,note_on,68,41,0
1,note_on,58,25,120
1,note_on,58,0,120
1,note_on,68,0,0
1,note_on,61,17,0
1,note_on,63,22,0
1,note_on,67,41,0
1,note_on,63,0,120
1,note_on,61,0,0
1,note_on,58,26,0
1,note_on,58,0,120
1,note_on,67,0,0
1,note_on,61,17,0
1,note_on,63,22,0
1,note_on,65,41,0
1,note_on,63,0,120
1,note_on,61,0,0
1,note_on,58,28,0
1,note_on,58,0,120
1,note_on,65,0,0
1,note_on,61,17,0
1,note_on,63,22,0
1,note_on,67,41,0
1,note_on,63,0,120
1,note_on,61,0,0
1,note_on,58,30,0
1,note_on,58,0,120
1,note_on,67,0,0
1,note_on,68,52,0
1,note_on,56,22,120
1,note_on,56,0,120
1,note_on,60,17,0
1,note_on,63,23,0
1,note_on,63,0,120
1,note_on,60,0,0
1,note_on,56,23,0
1,note_on,56,0,120
1,note_on,63,24,0
1,note_on,60,19,0
1,note_on,60,0,120
1,note_on,63,0,0
1,note_on,56,25,0
1,note_on,56,0,120
1,note_on,63,26,0
1,note_on,60,20,0
1,note_on,60,0,120
1,note_on,63,0,0
1,note_on,56,27,0
1,note_on,56,0,120
1,note_on,56,28,120
1,note_on,56,0,120
1,note_on,60,22,0
1,note_on,66,28,0
1,note_on,66,0,120
1,note_on,60,0,0
1,note_on,56,28,0
1,note_on,56,0,120
1,note_on,68,0,0
1,note_on,70,49,0
1,note_on,60,17,0
1,note_on,66,22,0
1,note_on,66,0,120
1,note_on,60,0,0
1,note_on,56,22,0
1,note_on,56,0,120
1,note_on,60,17,0
1,note_on,66,22,0
1,note_on,66,0,120
1,note_on,60,0,0
1,note_on,70,0,0
1,note_on,68,42,0
1,note_on,56,22,0
1,note_on,56,0,120
1,note_on,68,0,0
1,note_on,68,41,0
1,note_on,56,22,120
1,note_on,56,0,120
1,note_on,61,17,0
1,note_on,65,22,0
1,note_on,65,0,120
1,note_on,61,0,0
1,note_on,56,22,0
1,note_on,56,0,120
1,note_on,65,22,0
1,note_on,61,17,0
1,note_on,61,0,120
1,note_on,65,0,0
1,note_on,56,22,0
1,note_on,56,0,120
1,note_on,65,22,0
1,note_on,61,17,0
1,note_on,61,0,120
1,note_on,65,0,0
1,note_on,56,22,0
1,note_on,56,0,120
1,note_on,68,0,0
1,note_on,68,42,0
1,note_on,56,22,120
1,note_on,56,0,120
1,note_on,61,18,0
1,note_on,65,23,0
1,note_on,65,0,120
1,note_on,61,0,0
1,note_on,56,26,0
1,note_on,56,0,120
1,note_on,68,0,0
1,note_on,65,24,0
1,note_on,61,18,0
1,note_on,68,44,0
1,note_on,61,0,120
1,note_on,65,0,0
1,note_on,56,29,0
1,note_on,56,0,120
1,note_on,61,24,0
1,note_on,65,32,0
1,note_on,65,0,120
1,note_on,61,0,0
1,note_on,56,35,0
1,note_on,56,0,120
1,note_on,68,0,0
1,note_on,71,56,0
1,note_on,59,35,120
1,note_on,59,0,120
1,note_on,62,24,0
1,note_on,65,24,0
1,note_on,68,32,0
1,note_on,68,0,120
1,note_on,65,0,0
1,note_on,62,0,0
1,note_on,59,30,0
1,note_on,59,0,120
1,note_on,62,21,0
1,note_on,65,21,0
1,note_on,68,28,0
1,note_on,68,0,120
1,note_on,65,0,0
1,note_on,62,0,0
1,note_on,59,26,0
1,note_on,59,0,120
1,note_on,62,18,0
1,note_on,65,18,0
1,note_on,68,24,0
1,note_on,68,0,120
1,note_on,65,0,0
1,note_on,62,0,0
1,note_on,59,23,0
1,note_on,59,0,120
1,note_on,71,0,0
1,note_on,70,46,0
1,note_on,58,26,120
1,note_on,58,0,120
1,note_on,66,26,0
1,note_on,61,20,0
1,note_on,61,0,120
1,note_on,66,0,0
1,note_on,58,26,0
1,note_on,58,0,120
1,note_on,70,0,0
1,note_on,68,46,0
1,note_on,61,17,0
1,note_on,61,0,120
1,note_on,58,27,0
1,note_on,58,0,120
1,note_on,68,0,0
1,note_on,66,40,0
1,note_on,61,17,0
1,note_on,61,0,120
1,note_on,58,25,0
1,note_on,58,0,120
1,note_on,66,0,0
1,note_on,65,41,0
1,note_on,53,22,120
1,note_on,53,0,120
1,note_on,56,22,0
1,note_on,61,22,0
1,note_on,61,0,120
1,note_on,56,0,0
1,note_on,53,22,0
1,note_on,53,0,120
1,note_on,56,22,0
1,note_on,61,22,0
1,note_on,61,0,120
1,note_on,56,0,0
1,note_on,53,22,0
1,note_on,53,0,120
1,note_on,56,22,0
1,note_on,61,22,0
1,note_on,61,0,120
1,note_on,56,0,0
1,note_on,53,22,0
1,note_on,53,0,120
1,note_on,65,0,0
1,note_on,60,17,0
1,note_on,63,41,0
1,note_on,60,0,120
1,note_on,54,29,0
1,note_on,54,0,120
1,note_on,63,0,0
1,note_on,60,17,0
1,note_on,65,41,0
1,note_on,60,0,120
1,note_on,54,28,0
1,note_on,54,0,120
1,note_on,65,0,0
1,note_on,60,17,0
1,note_on,66,41,0
1,note_on,60,0,120
1,note_on,54,28,0
1,note_on,54,0,120
1,note_on,66,0,0
1,note_on,60,17,0
1,note_on,68,41,0
1,note_on,60,0,120
1,note_on,54,30,0
1,note_on,54,0,120
1,note_on,68,0,0
1,note_on,61,52,0
1,note_on,49,22,120
1,note_on,49,0,120
1,note_on,56,22,0
1,note_on,53,17,0
1,note_on,53,0,120
1,note_on,56,0,0
1,note_on,49,24,0
1,note_on,49,0,120
1,note_on,53,19,0
1,note_on,56,25,0
1,note_on,56,0,120
1,note_on,53,0,0
1,note_on,49,26,0
1,note_on,49,0,120
1,note_on,53,21,0
1,note_on,56,27,0
1,note_on,56,0,120
1,note_on,53,0,0
1,note_on,49,29,0
1,note_on,49,0,120
1,note_on,54,22,0
1,note_on,57,29,0
1,note_on,57,0,120
1,note_on,54,0,0
1,note_on,49,28,0
1,note_on,49,0,120
1,note_on,54,20,0
1,note_on,57,25,0
1,note_on,57,0,120
1,note_on,54,0,0
1,note_on,49,23,0
1,note_on,49,0,120
1,note_on,61,0,0
1,note_on,54,13,0
1,note_on,56,17,0
1,note_on,60,38,0
1,note_on,63,41,0
1,note_on,56,0,120
1,note_on,54,0,0
1,note_on,51,22,0
1,note_on,51,0,120
1,note_on,54,17,0
1,note_on,56,22,0
1,note_on,56,0,120
1,note_on,54,0,0
1,note_on,51,22,0
1,note_on,51,0,120
1,note_on,60,0,0
1,note_on,63,0,0
1,note_on,92,38,240
1,note_on,92,0,60
1,note_on,90,38,0
1,note_on,90,0,60
1,note_on,88,38,0
1,note_on,88,0,60
1,note_on,87,37,0
1,note_on,87,0,60
1,note_on,85,37,0
1,note_on,85,0,60
1,note_on,83,37,0
1,note_on,83,0,60
1,note_on,81,36,0
1,note_on,81,0,60
1,note_on,80,36,0
1,note_on,80,0,60
1,note_on,78,35,0
1,note_on,78,0,60
1,note_on,76,35,0
1,note_on,76,0,60
1,note_on,75,34,0
1,note_on,75,0,60
1,note_on,73,33,0
1,note_on,73,0,60
1,note_on,72,31,0
1,note_on,72,0,60
1,note_on,73,31,0
1,note_on,73,0,60
1,note_on,75,33,0
1,note_on,75,0,60
1,note_on,73,33,0
1,note_on,73,0,60
1,note_on,76,34,0
1,note_on,76,0,60
1,note_on,75,34,0
1,note_on,75,0,60
1,note_on,78,35,0
1,note_on,78,0,60
1,note_on,76,35,0
1,note_on,76,0,60
1,note_on,80,36,0
1,note_on,80,0,60
1,note_on,78,36,0
1,note_on,78,0,60
1,note_on,81,37,0
1,note_on,81,0,60
1,note_on,80,37,0
1,note_on,80,0,60
1,note_on,85,38,0
1,note_on,85,0,60
1,note_on,84,38,0
1,note_on,84,0,60
1,note_on,87,39,0
1,note_on,87,0,60
1,note_on,85,39,0
1,note_on,85,0,60
1,note_on,93,38,240
1,note_on,93,0,60
1,note_on,92,38,0
1,note_on,92,0,60
1,note_on,90,38,0
1,note_on,90,0,60
1,note_on,88,37,0
1,note_on,88,0,60
1,note_on,87,37,0
1,note_on,87,0,60
1,note_on,85,37,0
1,note_on,85,0,60
1,note_on,84,36,0
1,note_on,84,0,60
1,note_on,81,36,0
1,note_on,81,0,60
1,note_on,80,35,0
1,note_on,80,0,60
1,note_on,78,35,0
1,note_on,78,0,60
1,note_on,76,34,0
1,note_on,76,0,60
1,note_on,75,33,0
1,note_on,75,0,60
1,note_on,73,31,0
1,note_on,73,0,60
1,note_on,72,31,0
1,note_on,72,0,60
1,note_on,75,33,0
1,note_on,75,0,60
1,note_on,73,33,0
1,note_on,73,0,60
1,note_on,76,34,0
1,note_on,76,0,60
1,note_on,75,34,0
1,note_on,75,0,60
1,note_on,78,35,0
1,note_on,78,0,60
1,note_on,76,35,0
1,note_on,76,0,60
1,note_on,80,36,0
1,note_on,80,0,60
1,note_on,78,36,0
1,note_on,78,0,60
1,note_on,81,37,0
1,note_on,81,0,60
1,note_on,80,37,0
1,note_on,80,0,60
1,note_on,85,38,0
1,note_on,85,0,60
1,note_on,84,38,0
1,note_on,84,0,60
1,note_on,88,39,0
1,note_on,88,0,60
1,note_on,87,39,0
1,note_on,87,0,60
1,note_on,100,38,240
1,note_on,100,0,60
1,note_on,99,38,0
1,note_on,99,0,60
1,note_on,97,38,0
1,note_on,97,0,60
1,note_on,95,37,0
1,note_on,95,0,60
1,note_on,93,37,0
1,note_on,93,0,60
1,note_on,92,37,0
1,note_on,92,0,60
1,note_on,90,36,0
1,note_on,90,0,60
1,note_on,88,36,0
1,note_on,88,0,60
1,note_on,87,35,0
1,note_on,87,0,60
1,note_on,85,35,0
1,note_on,85,0,60
1,note_on,84,34,0
1,note_on,84,0,60
1,note_on,85,33,0
1,note_on,85,0,60
1,note_on,97,38,240
1,note_on,97,0,60
1,note_on,93,38,0
1,note_on,93,0,60
1,note_on,92,38,0
1,note_on,92,0,60
1,note_on,90,37,0
1,note_on,90,0,60
1,note_on,88,36,0
1,note_on,88,0,60
1,note_on,85,37,0
1,note_on,85,0,60
1,note_on,83,38,0
1,note_on,83,0,60
1,note_on,81,39,0
1,note_on,81,0,60
1,note_on,78,40,0
1,note_on,78,0,60
1,note_on,76,41,0
1,note_on,76,0,60
1,note_on,75,42,0
1,note_on,75,0,60
1,note_on,73,45,0
1,note_on,73,0,60
1,note_on,92,47,240
1,note_on,92,0,60
1,note_on,91,45,0
1,note_on,91,0,60
1,note_on,92,44,0
1,note_on,92,0,60
1,note_on,87,41,0
1,note_on,87,0,60
1,note_on,84,40,0
1,note_on,84,0,60
1,note_on,87,38,0
1,note_on,87,0,60
1,note_on,84,36,0
1,note_on,84,0,60
1,note_on,80,36,0
1,note_on,80,0,60
1,note_on,75,35,0
1,note_on,75,0,60
1,note_on,80,35,0
1,note_on,80,0,60
1,note_on,75,34,0
1,note_on,75,0,60
1,note_on,72,33,0
1,note_on,72,0,60
1,note_on,68,31,0
1,note_on,68,0,60
1,note_on,70,31,0
1,note_on,70,0,60
1,note_on,72,33,0
1,note_on,72,0,60
1,note_on,73,33,0
1,note_on,73,0,60
1,note_on,75,34,0
1,note_on,75,0,60
1,note_on,76,34,0
1,note_on,76,0,60
1,note_on,78,35,0
1,note_on,78,0,60
1,note_on,80,35,0
1,note_on,80,0,60
1,note_on,81,36,0
1,note_on,81,0,60
1,note_on,84,36,0
1,note_on,84,0,60
1,note_on,85,37,0
1,note_on,85,0,60
1,note_on,87,37,0
1,note_on,87,0,60
1,note_on,88,38,0
1,note_on,88,0,60
1,note_on,90,38,0
1,note_on,90,0,60
1,note_on,92,39,0
1,note_on,92,0,60
1,note_on,93,39,0
1,note_on,93,0,60
1,note_on,92,38,240
1,note_on,92,0,60
1,note_on,90,38,0
1,note_on,90,0,60
1,note_on,88,38,0
1,note_on,88,0,60
1,note_on,87,37,0
1,note_on,87,0,60
1,note_on,85,37,0
1,note_on,85,0,60
1,note_on,83,37,0
1,note_on,83,0,60
1,note_on,81,36,0
1,note_on,81,0,60
1,note_on,80,36,0
1,note_on,80,0,60
1,note_on,78,35,0
1,note_on,78,0,60
1,note_on,76,35,0
1,note_on,76,0,60
1,note_on,75,34,0
1,note_on,75,0,60
1,note_on,73,33,0
1,note_on,73,0,60
1,note_on,72,31,0
1,note_on,72,0,60
1,note_on,73,31,0
1,note_on,73,0,60
1,note_on,75,33,0
1,note_on,75,0,60
1,note_on,73,33,0
1,note_on,73,0,60
1,note_on,76,34,0
1,note_on,76,0,60
1,note_on,75,34,0
1,note_on,75,0,60
1,note_on,78,35,0
1,note_on,78,0,60
1,note_on,76,35,0
1,note_on,76,0,60
1,note_on,80,35,0
1,note_on,80,0,60
1,note_on,78,36,0
1,note_on,78,0,60
1,note_on,81,37,0
1,note_on,81,0,60
1,note_on,80,39,0
1,note_on,80,0,60
1,note_on,85,40,0
1,note_on,85,0,60
1,note_on,84,42,0
1,note_on,84,0,60
1,note_on,87,44,0
1,note_on,87,0,60
1,note_on,85,46,0
1,note_on,85,0,60
1,note_on,98,42,240
1,note_on,98,0,60
1,note_on,97,41,0
1,note_on,97,0,60
1,note_on,95,40,0
1,note_on,95,0,60
1,note_on,93,39,0
1,note_on,93,0,60
1,note_on,92,38,0
1,note_on,92,0,60
1,note_on,90,37,0
1,note_on,90,0,60
1,note_on,89,36,0
1,note_on,89,0,60
1,note_on,86,36,0
1,note_on,86,0,60
1,note_on,85,35,0
1,note_on,85,0,60
1,note_on,83,35,0
1,note_on,83,0,60
1,note_on,81,34,0
1,note_on,81,0,60
1,note_on,80,33,0
1,note_on,80,0,60
1,note_on,78,31,0
1,note_on,78,0,60
1,note_on,77,31,0
1,note_on,77,0,60
1,note_on,80,33,0
1,note_on,80,0,60
1,note_on,78,33,0
1,note_on,78,0,60
1,note_on,81,34,0
1,note_on,81,0,60
1,note_on,80,34,0
1,note_on,80,0,60
1,note_on,83,35,0
1,note_on,83,0,60
1,note_on,81,35,0
1,note_on,81,0,60
1,note_on,85,36,0
1,note_on,85,0,60
1,note_on,83,36,0
1,note_on,83,0,60
1,note_on,86,37,0
1,note_on,86,0,60
1,note_on,85,37,0
1,note_on,85,0,60
1,note_on,90,38,0
1,note_on,90,0,60
1,note_on,89,38,0
1,note_on,89,0,60
1,note_on,92,39,0
1,note_on,92,0,60
1,note_on,90,39,0
1,note_on,90,0,60
1,note_on,95,38,240
1,note_on,95,0,60
1,note_on,100,38,0
1,note_on,100,0,60
1,note_on,99,38,0
1,note_on,99,0,60
1,note_on,97,37,0
1,note_on,97,0,60
1,note_on,95,37,0
1,note_on,95,0,60
1,note_on,93,37,0
1,note_on,93,0,60
1,note_on,92,36,0
1,note_on,92,0,60
1,note_on,90,36,0
1,note_on,90,0,60
1,note_on,88,35,0
1,note_on,88,0,60
1,note_on,87,35,0
1,note_on,87,0,60
1,note_on,85,34,0
1,note_on,85,0,60
1,note_on,83,33,0
1,note_on,83,0,60
1,note_on,83,38,240
1,note_on,83,0,60
1,note_on,93,38,0
1,note_on,93,0,60
1,note_on,92,38,0
1,note_on,92,0,60
1,note_on,90,37,0
1,note_on,90,0,60
1,note_on,88,36,0
1,note_on,88,0,60
1,note_on,87,37,0
1,note_on,87,0,60
1,note_on,85,38,0
1,note_on,85,0,60
1,note_on,83,39,0
1,note_on,83,0,60
1,note_on,82,40,0
1,note_on,82,0,60
1,note_on,83,41,0
1,note_on,83,0,60
1,note_on,81,42,0
1,note_on,81,0,60
1,note_on,78,45,0
1,note_on,78,0,60
1,note_on,76,45,0
1,note_on,76,0,60
1,note_on,75,45,0
1,note_on,75,0,60
1,note_on,73,45,0
1,note_on,73,0,60
1,note_on,71,45,0
1,note_on,71,0,60
1,note_on,70,47,0
1,note_on,70,0,60
1,note_on,71,45,0
1,note_on,71,0,60
1,note_on,73,44,0
1,note_on,73,0,60
1,note_on,75,41,0
1,note_on,75,0,60
1,note_on,76,44,0
1,note_on,76,0,60
1,note_on,75,45,0
1,note_on,75,0,60
1,note_on,76,46,0
1,note_on,76,0,60
1,note_on,78,47,0
1,note_on,78,0,60
1,note_on,80,50,0
1,note_on,80,0,60
1,note_on,79,51,0
1,note_on,79,0,60
1,note_on,80,53,0
1,note_on,80,0,60
1,note_on,82,55,0
1,note_on,82,0,60
1,note_on,83,57,0
1,note_on,83,0,60
1,note_on,82,58,0
1,note_on,82,0,60
1,note_on,83,59,0
1,note_on,83,0,60
1,note_on,87,61,0
1,note_on,87,0,60
1,note_on,88,62,0
1,note_on,88,0,60
1,note_on,87,63,0
1,note_on,87,0,60
1,note_on,88,64,0
1,note_on,88,0,60
1,note_on,90,67,0
1,note_on,90,0,60
1,note_on,92,70,0
1,note_on,92,0,60
1,note_on,91,69,0
1,note_on,91,0,60
1,note_on,92,71,0
1,note_on,92,0,60
1,note_on,93,72,0
1,note_on,93,0,60
1,note_on,92,74,0
1,note_on,92,0,60
1,note_on,91,75,0
1,note_on,91,0,60
1,note_on,92,78,0
1,note_on,92,0,60
1,note_on,93,80,0
1,note_on,93,0,60
1,note_on,90,85,0
1,note_on,93,77,60
1,note_on,93,0,60
1,note_on,90,0,0
1,note_on,88,81,0
1,note_on,93,77,60
1,note_on,93,0,60
1,note_on,88,0,0
1,note_on,87,81,0
1,note_on,93,77,60
1,note_on,93,0,60
1,note_on,87,0,0
1,note_on,85,81,0
1,note_on,93,77,60
1,note_on,93,0,60
1,note_on,85,0,0
1,note_on,84,85,0
1,note_on,87,77,60
1,note_on,87,0,60
1,note_on,84,0,0
1,note_on,81,81,0
1,note_on,87,77,60
1,note_on,87,0,60
1,note_on,81,0,0
1,note_on,80,81,0
1,note_on,87,77,60
1,note_on,87,0,60
1,note_on,80,0,0
1,note_on,79,81,0
1,note_on,87,77,60
1,note_on,87,0,60
1,note_on,79,0,0
1,note_on,78,85,0
1,note_on,81,77,60
1,note_on,81,0,60
1,note_on,78,0,0
1,note_on,76,81,0
1,note_on,81,77,60
1,note_on,81,0,60
1,note_on,76,0,0
1,note_on,75,81,0
1,note_on,81,78,60
1,note_on,81,0,60
1,note_on,75,0,0
1,note_on,73,82,0
1,note_on,81,79,60
1,note_on,81,0,60
1,note_on,73,0,0
1,note_on,72,88,0
1,note_on,75,79,60
1,note_on,75,0,60
1,note_on,72,0,0
1,note_on,69,83,0
1,note_on,75,80,60
1,note_on,75,0,60
1,note_on,69,0,0
1,note_on,68,84,0
1,note_on,75,81,60
1,note_on,75,0,60
1,note_on,68,0,0
1,note_on,67,85,0
1,note_on,75,81,60
1,note_on,75,0,60
1,note_on,67,0,0
1,note_on,66,91,0
1,note_on,66,0,60
1,note_on,69,81,0
1,note_on,69,0,60
1,note_on,64,86,0
1,note_on,64,0,60
1,note_on,69,82,0
1,note_on,69,0,60
1,note_on,63,88,0
1,note_on,63,0,60
1,note_on,69,83,0
1,note_on,69,0,60
1,note_on,61,89,0
1,note_on,61,0,60
1,note_on,69,84,0
1,note_on,69,0,60
1,note_on,60,94,0
1,note_on,60,0,60
1,note_on,63,84,0
1,note_on,63,0,60
1,note_on,57,90,0
1,note_on,57,0,60
1,note_on,63,85,0
1,note_on,63,0,60
1,note_on,56,91,0
1,note_on,56,0,60
1,note_on,63,86,0
1,note_on,63,0,60
1,note_on,55,92,0
1,note_on,55,0,60
1,note_on,63,86,0
1,note_on,63,0,60
1,note_on,54,88,0
1,note_on,54,0,60
1,note_on,57,79,0
1,note_on,57,0,60
1,note_on,51,85,0
1,note_on,51,0,60
1,note_on,57,81,0
1,note_on,57,0,60
1,note_on,49,88,0
1,note_on,49,0,60
1,note_on,57,83,0
1,note_on,57,0,60
1,note_on,48,90,0
1,note_on,48,0,60
1,note_on,57,85,0
1,note_on,57,0,60
1,note_on,54,88,0
1,note_on,54,0,60
1,note_on,57,79,0
1,note_on,57,0,60
1,note_on,51,85,0
1,note_on,51,0,60
1,note_on,57,81,0
1,note_on,57,0,60
1,note_on,49,88,0
1,note_on,49,0,60
1,note_on,57,83,0
1,note_on,57,0,60
1,note_on,48,90,0
1,note_on,48,0,60
1,note_on,57,85,0
1,note_on,57,0,60
1,note_on,54,88,0
1,note_on,54,0,60
1,note_on,57,79,0
1,note_on,57,0,60
1,note_on,50,84,0
1,note_on,50,0,60
1,note_on,57,80,0
1,note_on,57,0,60
1,note_on,49,85,0
1,note_on,49,0,60
1,note_on,57,80,0
1,note_on,57,0,60
1,note_on,48,86,0
1,note_on,48,0,60
1,note_on,57,81,0
1,note_on,57,0,60
1,note_on,54,82,0
1,note_on,54,0,60
1,note_on,57,75,0
1,note_on,57,0,60
1,note_on,50,79,0
1,note_on,50,0,60
1,note_on,57,75,0
1,note_on,57,0,60
1,note_on,49,82,0
1,note_on,49,0,60
1,note_on,57,77,0
1,note_on,57,0,60
1,note_on,48,82,0
1,note_on,48,0,60
1,note_on,57,77,0
1,note_on,57,0,60
1,note_on,49,79,0
1,note_on,49,0,60
1,note_on,57,71,0
1,note_on,57,0,60
1,note_on,52,77,0
1,note_on,52,0,60
1,note_on,57,74,0
1,note_on,57,0,60
1,note_on,54,80,0
1,note_on,54,0,60
1,note_on,57,78,0
1,note_on,57,0,60
1,note_on,55,83,0
1,note_on,55,0,60
1,note_on,57,81,0
1,note_on,57,0,60
1,note_on,54,88,0
1,note_on,54,0,60
1,note_on,57,78,0
1,note_on,57,0,60
1,note_on,52,81,0
1,note_on,52,0,60
1,note_on,57,75,0
1,note_on,57,0,60
1,note_on,50,79,0
1,note_on,50,0,60
1,note_on,57,73,0
1,note_on,57,0,60
1,note_on,48,77,0
1,note_on,48,0,60
1,note_on,58,72,0
1,note_on,58,0,60
1,note_on,47,79,0
1,note_on,47,0,60
1,note_on,59,71,0
1,note_on,59,0,60
1,note_on,51,77,0
1,note_on,51,0,60
1,note_on,59,74,0
1,note_on,59,0,60
1,note_on,54,80,0
1,note_on,54,0,60
1,note_on,59,78,0
1,note_on,59,0,60
1,note_on,57,83,0
1,note_on,57,0,60
1,note_on,59,81,0
1,note_on,59,0,60
1,note_on,56,88,0
1,note_on,56,0,60
1,note_on,59,78,0
1,note_on,59,0,60
1,note_on,54,81,0
1,note_on,54,0,60
1,note_on,59,75,0
1,note_on,59,0,60
1,note_on,52,79,0
1,note_on,52,0,60
1,note_on,59,73,0
1,note_on,59,0,60
1,note_on,50,77,0
1,note_on,50,0,60
1,note_on,60,72,0
1,note_on,60,0,60
1,note_on,49,79,0
1,note_on,49,0,60
1,note_on,61,71,0
1,note_on,61,0,60
1,note_on,53,77,0
1,note_on,53,0,60
1,note_on,61,74,0
1,note_on,61,0,60
1,note_on,56,80,0
1,note_on,56,0,60
1,note_on,61,78,0
1,note_on,61,0,60
1,note_on,59,83,0
1,note_on,59,0,60
1,note_on,61,81,0
1,note_on,61,0,60
1,note_on,58,88,0
1,note_on,58,0,60
1,note_on,61,78,0
1,note_on,61,0,60
1,note_on,56,81,0
1,note_on,56,0,60
1,note_on,61,75,0
1,note_on,61,0,60
1,note_on,54,79,0
1,note_on,54,0,60
1,note_on,61,73,0
1,note_on,61,0,60
1,note_on,52,77,0
1,note_on,52,0,60
1,note_on,62,72,0
1,note_on,62,0,60
1,note_on,51,79,0
1,note_on,51,0,60
1,note_on,63,71,0
1,note_on,63,0,60
1,note_on,55,77,0
1,note_on,55,0,60
1,note_on,63,74,0
1,note_on,63,0,60
1,note_on,58,80,0
1,note_on,58,0,60
1,note_on,63,78,0
1,note_on,63,0,60
1,note_on,61,83,0
1,note_on,61,0,60
1,note_on,63,81,0
1,note_on,63,0,60
1,note_on,60,88,0
1,note_on,60,0,60
1,note_on,63,79,0
1,note_on,63,0,60
1,note_on,58,83,0
1,note_on,58,0,60
1,note_on,63,77,0
1,note_on,63,0,60
1,note_on,56,81,0
1,note_on,56,0,60
1,note_on,63,77,0
1,note_on,63,0,60
1,note_on,54,81,0
1,note_on,54,0,60
1,note_on,64,75,0
1,note_on,64,0,60
1,note_on,53,81,0
1,note_on,53,0,60
1,note_on,65,74,0
1,note_on,65,0,60
1,note_on,57,81,0
1,note_on,57,0,60
1,note_on,65,79,0
1,note_on,65,0,60
1,note_on,60,85,0
1,note_on,60,0,60
1,note_on,65,83,0
1,note_on,65,0,60
1,note_on,63,90,0
1,note_on,63,0,60
1,note_on,65,88,0
1,note_on,65,0,60
1,note_on,62,94,0
1,note_on,62,0,60
1,note_on,65,85,0
1,note_on,65,0,60
1,note_on,60,92,0
1,note_on,60,0,60
1,note_on,66,85,0
1,note_on,66,0,60
1,note_on,59,92,0
1,note_on,59,0,60
1,note_on,67,85,0
1,note_on,67,0,60
1,note_on,65,92,0
1,note_on,65,0,60
1,note_on,67,86,0
1,note_on,67,0,60
1,note_on,64,99,0
1,note_on,64,0,60
1,note_on,67,88,0
1,note_on,67,0,60
1,note_on,62,93,0
1,note_on,62,0,60
1,note_on,68,89,0
1,note_on,68,0,60
1,note_on,61,94,0
1,note_on,61,0,60
1,note_on,69,89,0
1,note_on,69,0,60
1,note_on,67,94,0
1,note_on,67,0,60
1,note_on,69,91,0
1,note_on,69,0,60
1,note_on,66,102,0
1,note_on,66,0,60
1,note_on,69,91,0
1,note_on,69,0,60
1,note_on,64,96,0
1,note_on,64,0,60
1,note_on,70,92,0
1,note_on,70,0,60
1,note_on,63,97,0
1,note_on,63,0,60
1,note_on,71,93,0
1,note_on,71,0,60
1,note_on,69,99,0
1,note_on,69,0,60
1,note_on,71,93,0
1,note_on,71,0,60
1,note_on,68,104,0
1,note_on,68,0,60
1,note_on,71,93,0
1,note_on,71,0,60
1,note_on,66,100,0
1,note_on,66,0,60
1,note_on,72,93,0
1,note_on,72,0,60
1,note_on,65,102,0
1,note_on,65,0,60
1,note_on,73,95,0
1,note_on,73,0,60
1,note_on,71,102,0
1,note_on,71,0,60
1,note_on,73,95,0
1,note_on,73,0,60
1,note_on,71,100,0
1,note_on,71,0,60
1,note_on,73,95,0
1,note_on,73,0,60
1,note_on,71,96,0
1,note_on,71,0,60
1,note_on,73,97,0
1,note_on,73,0,60
1,note_on,71,97,0
1,note_on,71,0,60
1,note_on,73,95,0
1,note_on,73,0,60
1,note_on,71,91,0
1,note_on,71,0,60
1,note_on,73,89,0
1,note_on,73,0,60
1,note_on,71,100,0
1,note_on,71,0,60
1,note_on,73,90,0
1,note_on,73,0,60
1,note_on,68,96,0
1,note_on,68,0,60
1,note_on,73,91,0
1,note_on,73,0,60
1,note_on,66,97,0
1,note_on,66,0,60
1,note_on,73,93,0
1,note_on,73,0,60
1,note_on,65,99,0
1,note_on,65,0,60
1,note_on,73,94,0
1,note_on,73,0,60
1,note_on,71,105,0
1,note_on,71,0,60
1,note_on,74,95,0
1,note_on,74,0,60
1,note_on,68,102,0
1,note_on,68,0,60
1,note_on,74,96,0
1,note_on,74,0,60
1,note_on,66,103,0
1,note_on,66,0,60
1,note_on,74,99,0
1,note_on,74,0,60
1,note_on,65,104,0
1,note_on,65,0,60
1,note_on,74,100,0
1,note_on,74,0,60
1,note_on,77,93,0
1,note_on,86,111,0
1,note_on,83,93,0
1,note_on,80,93,0
1,note_on,80,0,180
1,note_on,77,0,0
1,note_on,86,0,0
1,note_on,83,0,0
1,note_on,83,99,0
1,note_on,80,84,0
1,note_on,74,84,0
1,note_on,77,84,0
1,note_on,77,0,57
1,note_on,83,0,0
1,note_on,80,0,0
1,note_on,74,0,0
1,note_on,74,91,3
1,note_on,77,91,0
1,note_on,80,91,0
1,note_on,83,107,0
1,note_on,83,0,180
1,note_on,74,0,0
1,note_on,77,0,0
1,note_on,80,0,0
1,note_on,71,84,0
1,note_on,74,84,0
1,note_on,77,84,0
1,note_on,80,99,0
1,note_on,80,0,57
1,note_on,71,0,0
1,note_on,74,0,0
1,note_on,77,0,0
1,note_on,71,91,3
1,note_on,74,91,0
1,note_on,77,91,0
1,note_on,80,107,0
1,note_on,80,0,180
1,note_on,71,0,0
1,note_on,74,0,0
1,note_on,77,0,0
1,note_on,68,80,0
1,note_on,71,80,0
1,note_on,74,80,0
1,note_on,77,95,0
1,note_on,77,0,57
1,note_on,68,0,0
1,note_on,71,0,0
1,note_on,74,0,0
1,note_on,68,88,3
1,note_on,71,88,0
1,note_on,74,88,0
1,note_on,77,104,0
1,note_on,77,0,60
1,note_on,68,0,0
1,note_on,71,0,0
1,note_on,74,0,0
1,note_on,65,80,60
1,note_on,68,80,0
1,note_on,71,80,0
1,note_on,74,95,0
1,note_on,74,0,60
1,note_on,65,0,0
1,note_on,68,0,0
1,note_on,71,0,0
1,note_on,71,100,60
1,note_on,71,0,60
1,note_on,73,90,0
1,note_on,73,0,60
1,note_on,68,96,0
1,note_on,68,0,60
1,note_on,73,91,0
1,note_on,73,0,60
1,note_on,66,97,0
1,note_on,66,0,60
1,note_on,73,93,0
1,note_on,73,0,60
1,note_on,65,99,0
1,note_on,65,0,60
1,note_on,73,94,0
1,note_on,73,0,60
1,note_on,71,105,0
1,note_on,71,0,60
1,note_on,74,95,0
1,note_on,74,0,60
1,note_on,68,102,0
1,note_on,68,0,60
1,note_on,74,96,0
1,note_on,74,0,60
1,note_on,66,103,0
1,note_on,66,0,60
1,note_on,74,99,0
1,note_on,74,0,60
1,note_on,65,104,0
1,note_on,65,0,60
1,note_on,74,100,0
1,note_on,74,0,60
1,note_on,77,93,0
1,note_on,86,111,0
1,note_on,83,93,0
1,note_on,80,93,0
1,note_on,80,0,180
1,note_on,77,0,0
1,note_on,86,0,0
1,note_on,83,0,0
1,note_on,83,99,0
1,note_on,80,84,0
1,note_on,74,84,0
1,note_on,77,84,0
1,note_on,77,0,57
1,note_on,83,0,0
1,note_on,80,0,0
1,note_on,74,0,0
1,note_on,74,91,3
1,note_on,77,91,0
1,note_on,80,91,0
1,note_on,83,107,0
1,note_on,83,0,180
1,note_on,74,0,0
1,note_on,77,0,0
1,note_on,80,0,0
1,note_on,71,84,0
1,note_on,74,84,0
1,note_on,77,84,0
1,note_on,80,99,0
1,note_on,80,0,57
1,note_on,71,0,0
1,note_on,74,0,0
1,note_on,77,0,0
1,note_on,71,91,3
1,note_on,74,91,0
1,note_on,77,91,0
1,note_on,80,107,0
1,note_on,80,0,180
1,note_on,71,0,0
1,note_on,74,0,0
1,note_on,77,0,0
1,note_on,68,80,0
1,note_on,71,80,0
1,note_on,74,80,0
1,note_on,77,95,0
1,note_on,77,0,57
1,note_on,68,0,0
1,note_on,71,0,0
1,note_on,74,0,0
1,note_on,68,88,3
1,note_on,71,88,0
1,note_on,74,88,0
1,note_on,77,104,0
1,note_on,77,0,60
1,note_on,68,0,0
1,note_on,71,0,0
1,note_on,74,0,0
1,note_on,65,80,60
1,note_on,68,80,0
1,note_on,71,80,0
1,note_on,74,95,0
1,note_on,74,0,60
1,note_on,65,0,0
1,note_on,68,0,0
1,note_on,71,0,0
1,note_on,78,93,60
1,note_on,90,111,0
1,note_on,87,93,0
1,note_on,81,93,0
1,note_on,81,0,180
1,note_on,78,0,0
1,note_on,90,0,0
1,note_on,87,0,0
1,note_on,87,99,0
1,note_on,83,84,0
1,note_on,75,84,0
1,note_on,78,84,0
1,note_on,78,0,57
1,note_on,87,0,0
1,note_on,83,0,0
1,note_on,75,0,0
1,note_on,75,91,3
1,note_on,78,91,0
1,note_on,83,91,0
1,note_on,87,107,0
1,note_on,87,0,180
1,note_on,75,0,0
1,note_on,78,0,0
1,note_on,83,0,0
1,note_on,69,84,0
1,note_on,75,84,0
1,note_on,78,84,0
1,note_on,81,99,0
1,note_on,81,0,57
1,note_on,69,0,0
1,note_on,75,0,0
1,note_on,78,0,0
1,note_on,69,91,3
1,note_on,75,91,0
1,note_on,78,91,0
1,note_on,81,107,0
1,note_on,81,0,180
1,note_on,69,0,0
1,note_on,75,0,0
1,note_on,78,0,0
1,note_on,66,80,0
1,note_on,69,80,0
1,note_on,75,80,0
1,note_on,78,95,0
1,note_on,78,0,57
1,note_on,66,0,0
1,note_on,69,0,0
1,note_on,75,0,0
1,note_on,66,88,3
1,note_on,69,88,0
1,note_on,75,88,0
1,note_on,78,104,0
1,note_on,78,0,60
1,note_on,66,0,0
1,note_on,69,0,0
1,note_on,75,0,0
1,note_on,63,80,60
1,note_on,66,80,0
1,note_on,69,80,0
1,note_on,75,95,0
1,note_on,75,0,60
1,note_on,63,0,0
1,note_on,66,0,0
1,note_on,69,0,0
1,note_on,78,93,60
1,note_on,90,111,0
1,note_on,85,93,0
1,note_on,81,93,0
1,note_on,81,0,180
1,note_on,78,0,0
1,note_on,90,0,0
1,note_on,85,0,0
1,note_on,87,99,0
1,note_on,81,84,0
1,note_on,75,84,0
1,note_on,78,84,0
1,note_on,78,0,57
1,note_on,87,0,0
1,note_on,81,0,0
1,note_on,75,0,0
1,note_on,75,91,3
1,note_on,78,91,0
1,note_on,81,91,0
1,note_on,87,107,0
1,note_on,87,0,180
1,note_on,75,0,0
1,note_on,78,0,0
1,note_on,81,0,0
1,note_on,69,84,0
1,note_on,73,84,0
1,note_on,78,84,0
1,note_on,81,99,0
1,note_on,81,0,57
1,note_on,69,0,0
1,note_on,73,0,0
1,note_on,78,0,0
1,note_on,69,91,3
1,note_on,73,91,0
1,note_on,78,91,0
1,note_on,81,107,0
1,note_on,81,0,180
1,note_on,69,0,0
1,note_on,73,0,0
1,note_on,78,0,0
1,note_on,66,80,0
1,note_on,69,80,0
1,note_on,73,80,0
1,note_on,78,95,0
1,note_on,78,0,57
1,note_on,66,0,0
1,note_on,69,0,0
1,note_on,73,0,0
1,note_on,66,88,3
1,note_on,69,88,0
1,note_on,73,88,0
1,note_on,78,104,0
1,note_on,78,0,60
1,note_on,66,0,0
1,note_on,69,0,0
1,note_on,73,0,0
1,note_on,61,80,60
1,note_on,66,80,0
1,note_on,69,80,0
1,note_on,73,95,0
1,note_on,73,0,60
1,note_on,61,0,0
1,note_on,66,0,0
1,note_on,69,0,0
1,note_on,78,93,60
1,note_on,90,111,0
1,note_on,87,93,0
1,note_on,81,93,0
1,note_on,81,0,180
1,note_on,78,0,0
1,note_on,90,0,0
1,note_on,87,0,0
1,note_on,87,99,0
1,note_on,83,84,0
1,note_on,75,84,0
1,note_on,78,84,0
1,note_on,78,0,57
1,note_on,87,0,0
1,note_on,83,0,0
1,note_on,75,0,0
1,note_on,75,91,3
1,note_on,78,91,0
1,note_on,83,91,0
1,note_on,87,107,0
1,note_on,87,0,180
1,note_on,75,0,0
1,note_on,78,0,0
1,note_on,83,0,0
1,note_on,69,84,0
1,note_on,75,84,0
1,note_on,78,84,0
1,note_on,81,99,0
1,note_on,81,0,57
1,note_on,69,0,0
1,note_on,75,0,0
1,note_on,78,0,0
1,note_on,69,91,3
1,note_on,75,91,0
1,note_on,78,91,0
1,note_on,81,107,0
1,note_on,81,0,180
1,note_on,69,0,0
1,note_on,75,0,0
1,note_on,78,0,0
1,note_on,66,80,0
1,note_on,69,80,0
1,note_on,75,80,0
1,note_on,78,95,0
1,note_on,78,0,57
1,note_on,66,0,0
1,note_on,69,0,0
1,note_on,75,0,0
1,note_on,66,88,3
1,note_on,69,88,0
1,note_on,75,88,0
1,note_on,78,104,0
1,note_on,78,0,60
1,note_on,66,0,0
1,note_on,69,0,0
1,note_on,75,0,0
1,note_on,63,80,60
1,note_on,66,80,0
1,note_on,69,80,0
1,note_on,75,95,0
1,note_on,75,0,60
1,note_on,63,0,0
1,note_on,66,0,0
1,note_on,69,0,0
1,note_on,80,97,60
1,note_on,92,116,0
1,note_on,90,97,0
1,note_on,87,97,0
1,note_on,87,0,180
1,note_on,80,0,0
1,note_on,92,0,0
1,note_on,90,0,0
1,note_on,90,103,0
1,note_on,87,88,0
1,note_on,78,88,0
1,note_on,80,88,0
1,note_on,80,0,57
1,note_on,90,0,0
1,note_on,87,0,0
1,note_on,78,0,0
1,note_on,78,94,3
1,note_on,80,94,0
1,note_on,87,94,0
1,note_on,90,111,0
1,note_on,90,0,180
1,note_on,78,0,0
1,note_on,80,0,0
1,note_on,87,0,0
1,note_on,75,86,0
1,note_on,78,86,0
1,note_on,80,86,0
1,note_on,87,101,0
1,note_on,87,0,57
1,note_on,75,0,0
1,note_on,78,0,0
1,note_on,80,0,0
1,note_on,75,93,3
1,note_on,78,93,0
1,note_on,80,93,0
1,note_on,87,110,0
1,note_on,87,0,180
1,note_on,75,0,0
1,note_on,78,0,0
1,note_on,80,0,0
1,note_on,68,81,0
1,note_on,75,81,0
1,note_on,78,81,0
1,note_on,80,96,0
1,note_on,80,0,57
1,note_on,68,0,0
1,note_on,75,0,0
1,note_on,78,0,0
1,note_on,68,89,3
1,note_on,75,89,0
1,note_on,78,89,0
1,note_on,80,105,0
1,note_on,80,0,60
1,note_on,68,0,0
1,note_on,75,0,0
1,note_on,78,0,0
1,note_on,66,80,60
1,note_on,68,80,0
1,note_on,75,80,0
1,note_on,78,95,0
1,note_on,78,0,60
1,note_on,66,0,0
1,note_on,68,0,0
1,note_on,75,0,0
1,note_on,65,81,60
1,note_on,68,81,0
1,note_on,73,81,0
1,note_on,77,105,0
1,note_on,77,0,120
1,note_on,65,0,0
1,note_on,68,0,0
1,note_on,73,0,0
1,note_on,59,29,1800
1,note_on,59,0,30
1,note_on,62,25,0
1,note_on,62,0,30
1,note_on,59,29,0
1,note_on,59,0,30
1,note_on,62,25,0
1,note_on,62,0,30
1,note_on,59,30,0
1,note_on,59,0,30
1,note_on,62,25,0
1,note_on,62,0,30
1,note_on,59,30,0
1,note_on,59,0,30
1,note_on,62,24,0
1,note_on,62,0,30
1,note_on,59,30,0
1,note_on,59,0,30
1,note_on,62,26,0
1,note_on,62,0,30
1,note_on,59,31,0
1,note_on,59,0,30
1,note_on,62,27,0
1,note_on,62,0,30
1,note_on,59,31,0
1,note_on,59,0,30
1,note_on,62,26,0
1,note_on,62,0,30
1,note_on,59,33,0
1,note_on,59,0,30
1,note_on,62,26,0
1,note_on,62,0,30
1,note_on,59,33,0
1,note_on,59,0,30
1,note_on,62,28,0
1,note_on,62,0,30
1,note_on,59,33,0
1,note_on,59,0,30
1,note_on,62,28,0
1,note_on,62,0,30
1,note_on,59,34,0
1,note_on,59,0,30
1,note_on,62,28,0
1,note_on,62,0,30
1,note_on,59,34,0
1,note_on,59,0,30
1,note_on,62,27,0
1,note_on,62,0,30
1,note_on,59,35,0
1,note_on,59,0,30
1,note_on,62,29,0
1,note_on,62,0,30
1,note_on,59,35,0
1,note_on,59,0,30
1,note_on,62,30,0
1,note_on,62,0,30
1,note_on,59,36,0
1,note_on,59,0,30
1,note_on,62,29,0
1,note_on,62,0,30
1,note_on,59,36,0
1,note_on,59,0,30
1,note_on,62,28,0
1,note_on,62,0,30
1,note_on,59,37,0
1,note_on,59,0,30
1,note_on,62,30,0
1,note_on,62,0,30
1,note_on,59,36,0
1,note_on,59,0,30
1,note_on,62,30,0
1,note_on,62,0,30
1,note_on,59,36,0
1,note_on,59,0,30
1,note_on,62,29,0
1,note_on,62,0,30
1,note_on,59,35,0
1,note_on,59,0,30
1,note_on,62,27,0
1,note_on,62,0,30
1,note_on,59,35,0
1,note_on,59,0,30
1,note_on,62,29,0
1,note_on,62,0,30
1,note_on,59,34,0
1,note_on,59,0,30
1,note_on,62,28,0
1,note_on,62,0,30
1,note_on,59,34,0
1,note_on,59,0,30
1,note_on,62,27,0
1,note_on,62,0,30
1,note_on,59,33,0
1,note_on,59,0,30
1,note_on,62,26,0
1,note_on,62,0,30
1,note_on,59,33,0
1,note_on,59,0,30
1,note_on,62,28,0
1,note_on,62,0,30
1,note_on,59,33,0
1,note_on,59,0,30
1,note_on,62,27,0
1,note_on,62,0,30
1,note_on,59,31,0
1,note_on,59,0,30
1,note_on,62,26,0
1,note_on,62,0,30
1,note_on,59,31,0
1,note_on,59,0,30
1,note_on,62,25,0
1,note_on,62,0,30
1,note_on,59,30,0
1,note_on,59,0,30
1,note_on,62,26,0
1,note_on,62,0,30
1,note_on,59,30,0
1,note_on,59,0,30
1,note_on,62,26,0
1,note_on,62,0,30
1,note_on,59,30,0
1,note_on,59,0,30
1,note_on,62,24,0
1,note_on,62,0,30
1,note_on,59,29,0
1,note_on,59,0,30
1,note_on,62,25,0
1,note_on,62,0,30
1,note_on,68,33,0
1,note_on,80,49,0
1,note_on,80,0,960
1,note_on,68,0,0
1,note_on,68,31,0
1,note_on,80,44,0
1,note_on,80,0,475
1,note_on,68,0,0
1,note_on,68,33,5
1,note_on,80,44,0
1,note_on,80,0,480
1,note_on,68,0,0
1,note_on,68,39,0
1,note_on,80,50,0
1,note_on,80,0,840
1,note_on,68,0,0
1,note_on,69,40,0
1,note_on,81,45,0
1,note_on,81,0,120
1,note_on,69,0,0
1,note_on,80,45,0
1,note_on,68,40,0
1,note_on,68,0,960
1,note_on,80,0,0
1,note_on,65,33,0
1,note_on,77,44,0
1,note_on,77,0,960
1,note_on,65,0,0
1,note_on,68,31,0
1,note_on,80,44,0
1,note_on,80,0,240
1,note_on,68,0,0
1,note_on,66,31,0
1,note_on,78,44,0
1,note_on,78,0,240
1,note_on,66,0,0
1,note_on,65,33,0
1,note_on,77,44,0
1,note_on,77,0,240
1,note_on,65,0,0
1,note_on,66,31,0
1,note_on,78,44,0
1,note_on,78,0,240
1,note_on,66,0,0
1,note_on,68,39,0
1,note_on,80,50,0
1,note_on,80,0,960
1,note_on,68,0,0
1,note_on,85,53,0
1,note_on,73,40,0
1,note_on,73,0,240
1,note_on,85,0,0
1,note_on,72,38,0
1,note_on,84,49,0
1,note_on,84,0,240
1,note_on,72,0,0
1,note_on,75,41,0
1,note_on,87,55,0
1,note_on,87,0,240
1,note_on,75,0,0
1,note_on,89,50,0
1,note_on,77,39,0
1,note_on,77,0,240
1,note_on,89,0,0
1,note_on,85,50,0
1,note_on,73,47,0
1,note_on,73,0,960
1,note_on,85,0,0
1,note_on,59,26,960
1,note_on,59,0,30
1,note_on,62,22,0
1,note_on,62,0,30
1,note_on,59,26,0
1,note_on,59,0,30
1,note_on,62,22,0
1,note_on,62,0,30
1,note_on,59,27,0
1,note_on,59,0,30
1,note_on,62,22,0
1,note_on,62,0,30
1,note_on,59,27,0
1,note_on,59,0,30
1,note_on,62,20,0
1,note_on,62,0,30
1,note_on,59,27,0
1,note_on,59,0,30
1,note_on,62,23,0
1,note_on,62,0,30
1,note_on,59,28,0
1,note_on,59,0,30
1,note_on,62,24,0
1,note_on,62,0,30
1,note_on,59,28,0
1,note_on,59,0,30
1,note_on,62,23,0
1,note_on,62,0,30
1,note_on,59,29,0
1,note_on,59,0,30
1,note_on,62,23,0
1,note_on,62,0,30
1,note_on,59,29,0
1,note_on,59,0,30
1,note_on,62,25,0
1,note_on,62,0,30
1,note_on,59,29,0
1,note_on,59,0,30
1,note_on,62,25,0
1,note_on,62,0,30
1,note_on,59,29,0
1,note_on,59,0,30
1,note_on,62,25,0
1,note_on,62,0,30
1,note_on,59,29,0
1,note_on,59,0,30
1,note_on,62,24,0
1,note_on,62,0,30
1,note_on,59,30,0
1,note_on,59,0,30
1,note_on,62,26,0
1,note_on,62,0,30
1,note_on,59,30,0
1,note_on,59,0,30
1,note_on,62,27,0
1,note_on,62,0,30
1,note_on,59,31,0
1,note_on,59,0,30
1,note_on,62,26,0
1,note_on,62,0,30
1,note_on,59,31,0
1,note_on,59,0,30
1,note_on,62,25,0
1,note_on,62,0,30
1,note_on,59,33,0
1,note_on,59,0,30
1,note_on,62,27,0
1,note_on,62,0,30
1,note_on,59,31,0
1,note_on,59,0,30
1,note_on,62,27,0
1,note_on,62,0,30
1,note_on,59,31,0
1,note_on,59,0,30
1,note_on,62,26,0
1,note_on,62,0,30
1,note_on,59,30,0
1,note_on,59,0,30
1,note_on,62,24,0
1,note_on,62,0,30
1,note_on,59,30,0
1,note_on,59,0,30
1,note_on,62,26,0
1,note_on,62,0,30
1,note_on,59,29,0
1,note_on,59,0,30
1,note_on,62,25,0
1,note_on,62,0,30
1,note_on,59,29,0
1,note_on,59,0,30
1,note_on,62,24,0
1,note_on,62,0,30
1,note_on,59,29,0
1,note_on,59,0,30
1,note_on,62,23,0
1,note_on,62,0,30
1,note_on,59,29,0
1,note_on,59,0,30
1,note_on,62,25,0
1,note_on,62,0,30
1,note_on,59,29,0
1,note_on,59,0,30
1,note_on,62,24,0
1,note_on,62,0,30
1,note_on,59,28,0
1,note_on,59,0,30
1,note_on,62,23,0
1,note_on,62,0,30
1,note_on,59,28,0
1,note_on,59,0,30
1,note_on,62,22,0
1,note_on,62,0,30
1,note_on,59,27,0
1,note_on,59,0,30
1,note_on,62,23,0
1,note_on,62,0,30
1,note_on,59,27,0
1,note_on,59,0,30
1,note_on,62,23,0
1,note_on,62,0,30
1,note_on,59,27,0
1,note_on,59,0,30
1,note_on,62,20,0
1,note_on,62,0,30
1,note_on,59,26,0
1,note_on,59,0,30
1,note_on,62,22,0
1,note_on,62,0,30
1,note_on,71,33,0
1,note_on,83,49,0
1,note_on,83,0,960
1,note_on,71,0,0
1,note_on,71,31,0
1,note_on,83,44,0
1,note_on,83,0,475
1,note_on,71,0,0
1,note_on,71,33,5
1,note_on,83,44,0
1,note_on,83,0,475
1,note_on,71,0,0
1,note_on,71,39,5
1,note_on,83,50,0
1,note_on,83,0,840
1,note_on,71,0,0
1,note_on,72,40,0
1,note_on,84,45,0
1,note_on,84,0,120
1,note_on,72,0,0
1,note_on,83,45,0
1,note_on,71,40,0
1,note_on,71,0,960
1,note_on,83,0,0
1,note_on,68,33,0
1,note_on,80,44,0
1,note_on,80,0,960
1,note_on,68,0,0
1,note_on,71,31,0
1,note_on,83,44,0
1,note_on,83,0,240
1,note_on,71,0,0
1,note_on,69,31,0
1,note_on,81,44,0
1,note_on,81,0,240
1,note_on,69,0,0
1,note_on,68,33,0
1,note_on,80,44,0
1,note_on,80,0,240
1,note_on,68,0,0
1,note_on,69,31,0
1,note_on,81,44,0
1,note_on,81,0,240
1,note_on,69,0,0
1,note_on,71,39,0
1,note_on,83,50,0
1,note_on,83,0,960
1,note_on,71,0,0
1,note_on,88,53,0
1,note_on,76,40,0
1,note_on,76,0,240
1,note_on,88,0,0
1,note_on,75,38,0
1,note_on,87,49,0
1,note_on,87,0,240
1,note_on,75,0,0
1,note_on,78,41,0
1,note_on,90,55,0
1,note_on,90,0,240
1,note_on,78,0,0
1,note_on,92,50,0
1,note_on,80,39,0
1,note_on,80,0,240
1,note_on,92,0,0
1,note_on,88,50,0
1,note_on,76,47,0
1,note_on,76,0,960
1,note_on,88,0,0
1,note_on,69,33,960
1,note_on,72,33,0
1,note_on,76,50,0
1,note_on,76,0,960
1,note_on,72,0,0
1,note_on,69,0,0
1,note_on,69,34,0
1,note_on,76,53,0
1,note_on,72,34,0
1,note_on,76,0,240
1,note_on,75,49,0
1,note_on,75,0,240
1,note_on,76,55,0
1,note_on,76,0,240
1,note_on,78,50,0
1,note_on,78,0,240
1,note_on,72,0,0
1,note_on,69,0,0
1,note_on,71,47,0
1,note_on,80,50,0
1,note_on,68,47,0
1,note_on,68,0,960
1,note_on,80,0,0
1,note_on,71,0,0
1,note_on,57,26,960
1,note_on,60,26,0
1,note_on,64,39,0
1,note_on,64,0,960
1,note_on,60,0,0
1,note_on,57,0,0
1,note_on,57,26,0
1,note_on,64,42,0
1,note_on,60,26,0
1,note_on,64,0,240
1,note_on,63,39,0
1,note_on,63,0,240
1,note_on,64,44,0
1,note_on,64,0,240
1,note_on,66,39,0
1,note_on,66,0,240
1,note_on,60,0,0
1,note_on,57,0,0
1,note_on,59,29,0
1,note_on,68,39,0
1,note_on,56,26,0
1,note_on,56,0,960
1,note_on,68,0,0
1,note_on,59,0,0
2,note_on,37,20,0
2,note_on,40,20,0
2,note_on,44,20,0
2,note_on,49,26,0
2,note_on,49,0,918
2,note_on,37,0,0
2,note_on,40,0,0
2,note_on,44,0,0
2,note_on,37,22,0
2,note_on,40,22,0
2,note_on,44,22,0
2,note_on,49,26,0
2,note_on,49,0,475
2,note_on,37,0,0
2,note_on,40,0,0
2,note_on,44,0,0
2,note_on,37,23,5
2,note_on,40,23,0
2,note_on,44,23,0
2,note_on,49,27,0
2,note_on,49,0,475
2,note_on,37,0,0
2,note_on,40,0,0
2,note_on,44,0,0
2,note_on,44,25,5
2,note_on,48,30,0
2,note_on,36,25,0
2,note_on,39,25,0
2,note_on,39,0,791
2,note_on,44,0,0
2,note_on,48,0,0
2,note_on,36,0,0
2,note_on,37,27,0
2,note_on,44,27,0
2,note_on,49,33,0
2,note_on,40,27,0
2,note_on,40,0,640
2,note_on,37,0,0
2,note_on,44,0,0
2,note_on,49,0,0
2,note_on,33,33,0
2,note_on,37,33,0
2,note_on,42,33,0
2,note_on,45,39,0
2,note_on,45,0,747
2,note_on,33,0,0
2,note_on,37,0,0
2,note_on,42,0,0
2,note_on,32,29,0
2,note_on,36,30,20
2,note_on,39,34,0
2,note_on,44,36,30
2,note_on,44,0,667
2,note_on,32,0,0
2,note_on,36,0,0
2,note_on,39,0,0
2,note_on,37,24,0
2,note_on,40,24,0
2,note_on,44,24,0
2,note_on,49,29,0
2,note_on,49,0,918
2,note_on,37,0,0
2,note_on,40,0,0
2,note_on,44,0,0
2,note_on,37,26,0
2,note_on,40,26,0
2,note_on,44,26,0
2,note_on,49,30,0
2,note_on,49,0,475
2,note_on,37,0,0
2,note_on,40,0,0
2,note_on,44,0,0
2,note_on,37,28,5
2,note_on,40,28,0
2,note_on,44,28,0
2,note_on,49,34,0
2,note_on,49,0,475
2,note_on,37,0,0
2,note_on,40,0,0
2,note_on,44,0,0
2,note_on,42,33,5
2,note_on,30,27,0
2,note_on,30,0,311
2,note_on,42,0,0
2,note_on,33,22,0
2,note_on,45,27,0
2,note_on,45,0,480
2,note_on,33,0,0
2,note_on,32,24,0
2,note_on,44,29,0
2,note_on,44,0,640
2,note_on,32,0,0
2,note_on,32,26,0
2,note_on,44,31,0
2,note_on,44,0,747
2,note_on,32,0,0
2,note_on,40,25,0
2,note_on,44,25,0
2,note_on,49,30,0
2,note_on,37,25,0
2,note_on,37,0,187
2,note_on,40,0,0
2,note_on,44,0,0
2,note_on,49,0,0
2,note_on,37,20,480
2,note_on,40,20,0
2,note_on,44,20,0
2,note_on,49,26,0
2,note_on,49,0,918
2,note_on,37,0,0
2,note_on,40,0,0
2,note_on,44,0,0
2,note_on,37,22,0
2,note_on,40,22,0
2,note_on,44,22,0
2,note_on,49,26,0
2,note_on,49,0,475
2,note_on,37,0,0
2,note_on,40,0,0
2,note_on,44,0,0
2,note_on,37,23,5
2,note_on,40,23,0
2,note_on,44,23,0
2,note_on,49,27,0
2,note_on,49,0,475
2,note_on,37,0,0
2,note_on,40,0,0
2,note_on,44,0,0
2,note_on,44,25,5
2,note_on,48,30,0
2,note_on,36,25,0
2,note_on,39,25,0
2,note_on,39,0,791
2,note_on,44,0,0
2,note_on,48,0,0
2,note_on,36,0,0
2,note_on,37,27,0
2,note_on,44,27,0
2,note_on,49,33,0
2,note_on,40,27,0
2,note_on,40,0,640
2,note_on,37,0,0
2,note_on,44,0,0
2,note_on,49,0,0
2,note_on,33,33,0
2,note_on,37,33,0
2,note_on,42,33,0
2,note_on,45,39,0
2,note_on,45,0,747
2,note_on,33,0,0
2,note_on,37,0,0
2,note_on,42,0,0
2,note_on,32,29,0
2,note_on,36,30,20
2,note_on,39,34,0
2,note_on,44,36,30
2,note_on,44,0,667
2,note_on,32,0,0
2,note_on,36,0,0
2,note_on,39,0,0
2,note_on,37,24,0
2,note_on,49,29,0
2,note_on,49,0,918
2,note_on,37,0,0
2,note_on,37,26,0
2,note_on,49,30,0
2,note_on,49,0,475
2,note_on,37,0,0
2,note_on,37,28,5
2,note_on,49,34,0
2,note_on,49,0,475
2,note_on,37,0,0
2,note_on,42,33,5
2,note_on,30,27,0
2,note_on,30,0,311
2,note_on,42,0,0
2,note_on,33,22,0
2,note_on,45,27,0
2,note_on,45,0,480
2,note_on,33,0,0
2,note_on,35,24,0
2,note_on,47,29,0
2,note_on,47,0,640
2,note_on,35,0,0
2,note_on,47,26,0
2,note_on,54,31,0
2,note_on,54,0,747
2,note_on,47,0,0
2,note_on,40,25,0
2,note_on,47,25,0
2,note_on,52,30,0
2,note_on,52,0,187
2,note_on,47,0,0
2,note_on,40,0,0
2,note_on,52,26,480
2,note_on,56,27,0
2,note_on,57,22,240
2,note_on,56,0,20
2,note_on,56,27,220
2,note_on,57,0,20
2,note_on,57,19,220
2,note_on,56,0,20
2,note_on,59,27,220
2,note_on,57,0,20
2,note_on,57,19,220
2,note_on,59,0,20
2,note_on,59,27,220
2,note_on,57,0,20
2,note_on,56,20,220
2,note_on,59,0,20
2,note_on,56,0,220
2,note_on,52,0,0
2,note_on,47,30,0
2,note_on,54,27,0
2,note_on,56,19,240
2,note_on,54,0,20
2,note_on,54,27,220
2,note_on,56,0,20
2,note_on,56,18,220
2,note_on,54,0,20
2,note_on,57,27,220
2,note_on,56,0,20
2,note_on,56,19,220
2,note_on,57,0,20
2,note_on,57,27,220
2,note_on,56,0,20
2,note_on,54,19,220
2,note_on,57,0,20
2,note_on,54,0,220
2,note_on,47,0,0
2,note_on,56,27,0
2,note_on,52,33,0
2,note_on,57,18,240
2,note_on,56,0,20
2,note_on,56,27,220
2,note_on,57,0,20
2,note_on,57,19,220
2,note_on,56,0,20
2,note_on,59,27,220
2,note_on,57,0,20
2,note_on,56,19,220
2,note_on,59,0,20
2,note_on,52,27,220
2,note_on,56,0,20
2,note_on,56,19,220
2,note_on,52,0,20
2,note_on,56,0,220
2,note_on,52,0,0
2,note_on,59,27,0
2,note_on,47,30,0
2,note_on,61,22,240
2,note_on,59,0,20
2,note_on,59,27,220
2,note_on,61,0,20
2,note_on,54,19,220
2,note_on,59,0,20
2,note_on,51,27,220
2,note_on,54,0,20
2,note_on,50,19,220
2,note_on,51,0,20
2,note_on,51,27,220
2,note_on,50,0,20
2,note_on,57,20,220
2,note_on,51,0,20
2,note_on,57,0,220
2,note_on,47,0,0
2,note_on,56,27,0
2,note_on,52,26,0
2,note_on,54,22,240
2,note_on,56,0,20
2,note_on,52,27,220
2,note_on,54,0,20
2,note_on,54,19,220
2,note_on,52,0,20
2,note_on,56,27,220
2,note_on,54,0,20
2,note_on,55,19,220
2,note_on,56,0,20
2,note_on,56,27,220
2,note_on,55,0,20
2,note_on,52,20,220
2,note_on,56,0,20
2,note_on,52,0,220
2,note_on,52,0,0
2,note_on,44,30,0
2,note_on,54,27,0
2,note_on,52,19,240
2,note_on,54,0,20
2,note_on,51,27,220
2,note_on,52,0,20
2,note_on,52,18,220
2,note_on,51,0,20
2,note_on,54,27,220
2,note_on,52,0,20
2,note_on,52,19,220
2,note_on,54,0,20
2,note_on,54,27,220
2,note_on,52,0,20
2,note_on,51,19,220
2,note_on,54,0,20
2,note_on,51,0,220
2,note_on,44,0,0
2,note_on,49,39,0
2,note_on,45,33,0
2,note_on,49,0,720
2,note_on,51,36,0
2,note_on,51,0,240
2,note_on,52,41,0
2,note_on,45,0,960
2,note_on,44,33,0
2,note_on,52,0,240
2,note_on,51,40,0
2,note_on,51,0,240
2,note_on,48,40,0
2,note_on,48,0,240
2,note_on,44,0,0
2,note_on,44,40,0
2,note_on,44,0,240
2,note_on,52,45,0
2,note_on,45,33,0
2,note_on,45,0,960
2,note_on,44,33,0
2,note_on,52,0,240
2,note_on,51,37,0
2,note_on,51,0,240
2,note_on,48,37,0
2,note_on,44,0,238
2,note_on,48,0,2
2,note_on,44,36,0
2,note_on,52,42,240
2,note_on,45,31,0
2,note_on,45,0,960
2,note_on,52,0,240
2,note_on,51,31,0
2,note_on,44,0,240
2,note_on,48,35,0
2,note_on,51,0,20
2,note_on,44,38,220
2,note_on,48,0,20
2,note_on,44,0,220
2,note_on,56,45,0
2,note_on,54,38,240
2,note_on,56,0,20
2,note_on,47,33,220
2,note_on,51,30,0
2,note_on,54,0,20
2,note_on,57,31,220
2,note_on,51,0,20
2,note_on,57,0,220
2,note_on,47,0,0
2,note_on,56,27,0
2,note_on,52,26,0
2,note_on,57,22,240
2,note_on,56,0,20
2,note_on,56,27,220
2,note_on,57,0,20
2,note_on,57,19,220
2,note_on,56,0,20
2,note_on,59,27,220
2,note_on,57,0,20
2,note_on,57,19,220
2,note_on,59,0,20
2,note_on,59,27,220
2,note_on,57,0,20
2,note_on,56,20,220
2,note_on,59,0,20
2,note_on,56,0,220
2,note_on,52,0,0
2,note_on,54,27,0
2,note_on,47,30,0
2,note_on,54,0,240
2,note_on,56,19,0
2,note_on,54,27,240
2,note_on,56,0,20
2,note_on,54,0,220
2,note_on,56,18,0
2,note_on,57,27,240
2,note_on,56,0,20
2,note_on,56,19,220
2,note_on,57,0,20
2,note_on,57,27,220
2,note_on,56,0,20
2,note_on,54,19,220
2,note_on,57,0,20
2,note_on,54,0,220
2,note_on,47,0,0
2,note_on,56,27,0
2,note_on,52,33,0
2,note_on,57,18,240
2,note_on,56,0,20
2,note_on,56,27,220
2,note_on,57,0,20
2,note_on,57,19,220
2,note_on,56,0,20
2,note_on,59,27,220
2,note_on,57,0,20
2,note_on,56,19,220
2,note_on,59,0,20
2,note_on,52,27,220
2,note_on,56,0,20
2,note_on,56,19,220
2,note_on,52,0,20
2,note_on,56,0,220
2,note_on,52,0,0
2,note_on,59,27,0
2,note_on,47,30,0
2,note_on,61,22,240
2,note_on,59,0,20
2,note_on,59,27,220
2,note_on,61,0,20
2,note_on,54,19,220
2,note_on,59,0,20
2,note_on,59,27,220
2,note_on,54,0,20
2,note_on,59,0,219
2,note_on,51,19,1
2,note_on,51,0,240
2,note_on,47,0,0
2,note_on,45,30,0
2,note_on,52,27,0
2,note_on,51,20,240
2,note_on,52,0,20
2,note_on,51,0,220
2,note_on,45,0,0
2,note_on,51,27,0
2,note_on,44,26,0
2,note_on,48,22,240
2,note_on,51,0,20
2,note_on,47,27,220
2,note_on,48,0,20
2,note_on,48,19,220
2,note_on,47,0,20
2,note_on,48,0,220
2,note_on,44,0,0
2,note_on,42,26,0
2,note_on,49,30,0
2,note_on,52,25,240
2,note_on,49,0,20
2,note_on,42,0,220
2,note_on,51,30,0
2,note_on,42,26,0
2,note_on,52,0,20
2,note_on,52,25,220
2,note_on,51,0,20
2,note_on,52,0,220
2,note_on,42,0,0
2,note_on,44,30,0
2,note_on,51,27,0
2,note_on,48,19,240
2,note_on,51,0,20
2,note_on,47,27,220
2,note_on,48,0,20
2,note_on,48,18,220
2,note_on,47,0,20
2,note_on,44,0,220
2,note_on,42,26,0
2,note_on,49,33,0
2,note_on,48,0,20
2,note_on,52,22,220
2,note_on,49,0,20
2,note_on,42,0,220
2,note_on,42,26,0
2,note_on,51,29,0
2,note_on,52,0,20
2,note_on,52,20,220
2,note_on,51,0,20
2,note_on,52,0,220
2,note_on,42,0,0
2,note_on,44,26,0
2,note_on,51,26,0
2,note_on,51,0,480
2,note_on,44,0,0
2,note_on,56,26,0
2,note_on,56,0,1920
2,note_on,44,26,0
2,note_on,44,0,1440
2,note_on,37,27,0
2,note_on,36,22,120
2,note_on,37,0,20
2,note_on,37,27,100
2,note_on,36,0,20
2,note_on,36,23,100
2,note_on,37,0,20
2,note_on,37,28,100
2,note_on,36,0,20
2,note_on,36,25,100
2,note_on,37,0,20
2,note_on,37,28,100
2,note_on,36,0,20
2,note_on,36,26,100
2,note_on,37,0,20
2,note_on,37,29,100
2,note_on,36,0,20
2,note_on,36,23,100
2,note_on,37,0,20
2,note_on,37,29,100
2,note_on,36,0,20
2,note_on,36,25,100
2,note_on,37,0,20
2,note_on,37,30,100
2,note_on,36,0,20
2,note_on,36,27,100
2,note_on,37,0,20
2,note_on,37,30,100
2,note_on,36,0,20
2,note_on,36,28,100
2,note_on,37,0,20
2,note_on,36,0,100
2,note_on,37,31,0
2,note_on,36,25,120
2,note_on,37,0,20
2,note_on,37,31,100
2,note_on,36,0,20
2,note_on,36,27,100
2,note_on,37,0,20
2,note_on,37,32,100
2,note_on,36,0,20
2,note_on,36,28,100
2,note_on,37,0,20
2,note_on,37,31,100
2,note_on,36,0,20
2,note_on,36,29,100
2,note_on,37,0,20
2,note_on,37,30,100
2,note_on,36,0,20
2,note_on,36,24,100
2,note_on,37,0,20
2,note_on,37,29,100
2,note_on,36,0,20
2,note_on,36,25,100
2,note_on,37,0,20
2,note_on,37,28,100
2,note_on,36,0,20
2,note_on,36,25,100
2,note_on,37,0,20
2,note_on,37,28,100
2,note_on,36,0,20
2,note_on,35,25,100
2,note_on,37,0,20
2,note_on,33,27,100
2,note_on,35,0,20
2,note_on,32,22,100
2,note_on,33,0,20
2,note_on,33,27,100
2,note_on,32,0,20
2,note_on,32,23,100
2,note_on,33,0,20
2,note_on,33,27,100
2,note_on,32,0,20
2,note_on,32,25,100
2,note_on,33,0,20
2,note_on,33,29,100
2,note_on,32,0,20
2,note_on,32,26,100
2,note_on,33,0,20
2,note_on,33,30,100
2,note_on,32,0,20
2,note_on,32,23,100
2,note_on,33,0,20
2,note_on,33,30,100
2,note_on,32,0,20
2,note_on,32,25,100
2,note_on,33,0,20
2,note_on,33,31,100
2,note_on,32,0,20
2,note_on,32,27,100
2,note_on,33,0,20
2,note_on,33,31,100
2,note_on,32,0,20
2,note_on,32,27,100
2,note_on,33,0,20
2,note_on,32,0,100
2,note_on,33,32,0
2,note_on,32,25,120
2,note_on,33,0,20
2,note_on,33,32,100
2,note_on,32,0,20
2,note_on,32,26,100
2,note_on,33,0,20
2,note_on,33,32,100
2,note_on,32,0,20
2,note_on,32,27,100
2,note_on,33,0,20
2,note_on,33,32,100
2,note_on,32,0,20
2,note_on,32,27,100
2,note_on,33,0,20
2,note_on,33,32,100
2,note_on,32,0,20
2,note_on,32,25,100
2,note_on,33,0,20
2,note_on,33,32,100
2,note_on,32,0,20
2,note_on,32,26,100
2,note_on,33,0,20
2,note_on,33,32,100
2,note_on,32,0,20
2,note_on,32,27,100
2,note_on,33,0,20
2,note_on,33,32,100
2,note_on,32,0,20
2,note_on,32,27,100
2,note_on,33,0,20
2,note_on,30,32,100
2,note_on,32,0,20
2,note_on,29,25,100
2,note_on,30,0,20
2,note_on,30,32,100
2,note_on,29,0,20
2,note_on,29,26,100
2,note_on,30,0,20
2,note_on,30,33,100
2,note_on,29,0,20
2,note_on,29,27,100
2,note_on,30,0,20
2,note_on,30,33,100
2,note_on,29,0,20
2,note_on,29,29,100
2,note_on,30,0,20
2,note_on,30,34,100
2,note_on,29,0,20
2,note_on,29,26,100
2,note_on,30,0,20
2,note_on,30,34,100
2,note_on,29,0,20
2,note_on,29,28,100
2,note_on,30,0,20
2,note_on,30,35,100
2,note_on,29,0,20
2,note_on,29,30,100
2,note_on,30,0,20
2,note_on,30,37,100
2,note_on,29,0,20
2,note_on,29,33,100
2,note_on,30,0,20
2,note_on,29,0,100
2,note_on,30,38,0
2,note_on,30,0,97
2,note_on,29,30,0
2,note_on,29,0,120
2,note_on,30,39,0
2,note_on,30,0,120
2,note_on,32,33,0
2,note_on,32,0,120
2,note_on,33,40,0
2,note_on,33,0,57
2,note_on,32,35,0
2,note_on,32,0,120
2,note_on,33,41,0
2,note_on,33,0,120
2,note_on,37,37,0
2,note_on,37,0,120
2,note_on,38,42,0
2,note_on,38,0,97
2,note_on,37,34,0
2,note_on,37,0,120
2,note_on,38,44,0
2,note_on,38,0,120
2,note_on,41,36,0
2,note_on,41,0,120
2,note_on,42,45,0
2,note_on,42,0,57
2,note_on,41,38,0
2,note_on,41,0,120
2,note_on,42,45,0
2,note_on,42,0,120
2,note_on,45,40,0
2,note_on,45,0,120
2,note_on,44,50,0
2,note_on,44,0,80
2,note_on,43,51,0
2,note_on,43,0,120
2,note_on,44,51,0
2,note_on,44,0,120
2,note_on,43,52,0
2,note_on,43,0,120
2,note_on,44,53,0
2,note_on,44,0,120
2,note_on,43,55,0
2,note_on,43,0,120
2,note_on,44,55,0
2,note_on,44,0,120
2,note_on,42,57,0
2,note_on,42,0,120
2,note_on,40,58,0
2,note_on,40,0,46
2,note_on,39,59,0
2,note_on,39,0,120
2,note_on,40,59,0
2,note_on,40,0,120
2,note_on,39,60,0
2,note_on,39,0,120
2,note_on,40,61,0
2,note_on,40,0,120
2,note_on,39,63,0
2,note_on,39,0,120
2,note_on,40,64,0
2,note_on,40,0,120
2,note_on,39,64,0
2,note_on,39,0,120
2,note_on,37,66,0
2,note_on,37,0,46
2,note_on,36,67,0
2,note_on,36,0,120
2,note_on,37,69,0
2,note_on,37,0,120
2,note_on,36,69,0
2,note_on,36,0,120
2,note_on,37,70,0
2,note_on,37,0,120
2,note_on,36,71,0
2,note_on,36,0,120
2,note_on,37,72,0
2,note_on,37,0,120
2,note_on,35,74,0
2,note_on,35,0,120
2,note_on,33,74,0
2,note_on,33,0,46
2,note_on,32,75,0
2,note_on,32,0,120
2,note_on,33,78,0
2,note_on,33,0,120
2,note_on,32,79,0
2,note_on,32,0,120
2,note_on,33,79,0
2,note_on,33,0,120
2,note_on,37,81,0
2,note_on,37,0,120
2,note_on,39,82,0
2,note_on,39,0,120
2,note_on,45,83,0
2,note_on,45,0,120
2,note_on,32,80,0
2,note_on,44,94,0
2,note_on,44,0,406
2,note_on,32,0,0
2,note_on,32,69,240
2,note_on,44,82,0
2,note_on,44,0,120
2,note_on,32,0,0
2,note_on,40,74,120
2,note_on,52,88,0
2,note_on,52,0,120
2,note_on,40,0,0
2,note_on,32,67,109
2,note_on,44,80,0
2,note_on,44,0,240
2,note_on,32,0,0
2,note_on,57,88,0
2,note_on,45,74,0
2,note_on,45,0,240
2,note_on,57,0,0
2,note_on,32,74,440
2,note_on,44,89,0
2,note_on,44,0,177
2,note_on,32,0,0
2,note_on,44,79,0
2,note_on,56,93,0
2,note_on,56,0,240
2,note_on,44,0,0
2,note_on,44,79,480
2,note_on,56,93,0
2,note_on,56,0,120
2,note_on,44,0,0
2,note_on,44,79,0
2,note_on,56,93,0
2,note_on,56,0,120
2,note_on,44,0,0
2,note_on,54,80,0
2,note_on,66,94,0
2,note_on,66,0,211
2,note_on,54,0,0
2,note_on,44,69,240
2,note_on,56,82,0
2,note_on,56,0,107
2,note_on,44,0,0
2,note_on,44,69,6
2,note_on,56,82,0
2,note_on,56,0,114
2,note_on,44,0,0
2,note_on,52,74,6
2,note_on,64,88,0
2,note_on,64,0,240
2,note_on,52,0,0
2,note_on,44,67,0
2,note_on,56,80,0
2,note_on,56,0,114
2,note_on,44,0,0
2,note_on,44,67,6
2,note_on,56,80,0
2,note_on,56,0,114
2,note_on,44,0,0
2,note_on,69,88,6
2,note_on,57,74,0
2,note_on,57,0,240
2,note_on,69,0,0
2,note_on,44,74,429
2,note_on,56,89,0
2,note_on,56,0,108
2,note_on,44,0,0
2,note_on,44,74,6
2,note_on,56,89,0
2,note_on,56,0,114
2,note_on,44,0,0
2,note_on,56,79,6
2,note_on,68,93,0
2,note_on,68,0,17
2,note_on,56,0,0
2,note_on,56,74,480
2,note_on,68,89,0
2,note_on,68,0,106
2,note_on,56,0,0
2,note_on,56,75,6
2,note_on,68,90,0
2,note_on,68,0,114
2,note_on,56,0,0
2,note_on,66,93,6
2,note_on,54,79,0
2,note_on,54,0,4
2,note_on,66,0,0
2,note_on,54,69,120
2,note_on,66,82,0
2,note_on,66,0,120
2,note_on,54,0,0
2,note_on,51,75,0
2,note_on,63,90,0
2,note_on,63,0,236
2,note_on,51,0,0
2,note_on,63,78,99
2,note_on,51,66,0
2,note_on,51,0,120
2,note_on,63,0,0
2,note_on,48,73,0
2,note_on,60,86,0
2,note_on,60,0,237
2,note_on,48,0,0
2,note_on,48,63,95
2,note_on,60,75,0
2,note_on,60,0,120
2,note_on,48,0,0
2,note_on,44,69,0
2,note_on,56,82,0
2,note_on,56,0,227
2,note_on,44,0,0
2,note_on,44,61,87
2,note_on,56,73,0
2,note_on,56,0,120
2,note_on,44,0,0
2,note_on,45,70,0
2,note_on,57,84,0
2,note_on,57,0,231
2,note_on,45,0,0
2,note_on,33,67,91
2,note_on,45,79,0
2,note_on,45,0,114
2,note_on,33,0,0
2,note_on,33,74,6
2,note_on,45,89,0
2,note_on,45,0,227
2,note_on,33,0,0
2,note_on,33,72,116
2,note_on,45,85,0
2,note_on,45,0,114
2,note_on,33,0,0
2,note_on,33,79,6
2,note_on,45,93,0
2,note_on,45,0,219
2,note_on,33,0,0
2,note_on,33,74,112
2,note_on,45,88,0
2,note_on,45,0,120
2,note_on,33,0,0
2,note_on,32,84,0
2,note_on,44,100,0
2,note_on,44,0,217
2,note_on,32,0,0
2,note_on,44,45,0
2,note_on,56,53,0
2,note_on,56,0,120
2,note_on,44,0,0
2,note_on,44,45,0
2,note_on,56,53,0
2,note_on,56,0,120
2,note_on,44,0,0
2,note_on,54,58,0
2,note_on,42,49,0
2,note_on,42,0,240
2,note_on,54,0,0
2,note_on,42,45,120
2,note_on,54,53,0
2,note_on,54,0,114
2,note_on,42,0,0
2,note_on,39,48,6
2,note_on,51,57,0
2,note_on,51,0,240
2,note_on,39,0,0
2,note_on,51,51,120
2,note_on,39,42,0
2,note_on,39,0,114
2,note_on,51,0,0
2,note_on,36,47,6
2,note_on,48,56,0
2,note_on,48,0,240
2,note_on,36,0,0
2,note_on,36,42,120
2,note_on,48,50,0
2,note_on,48,0,114
2,note_on,36,0,0
2,note_on,32,46,6
2,note_on,44,55,0
2,note_on,44,0,240
2,note_on,32,0,0
2,note_on,32,41,120
2,note_on,44,49,0
2,note_on,44,0,114
2,note_on,32,0,0
2,note_on,33,45,6
2,note_on,45,53,0
2,note_on,45,0,240
2,note_on,33,0,0
2,note_on,33,39,120
2,note_on,45,47,0
2,note_on,45,0,114
2,note_on,33,0,0
2,note_on,33,44,6
2,note_on,45,52,0
2,note_on,45,0,240
2,note_on,33,0,0
2,note_on,33,39,120
2,note_on,45,47,0
2,note_on,45,0,114
2,note_on,33,0,0
2,note_on,33,42,6
2,note_on,45,50,0
2,note_on,45,0,240
2,note_on,33,0,0
2,note_on,33,56,74
2,note_on,45,66,0
2,note_on,45,0,114
2,note_on,33,0,0
2,note_on,32,59,6
2,note_on,44,70,0
2,note_on,44,0,232
2,note_on,32,0,0
2,note_on,44,56,0
2,note_on,44,0,114
2,note_on,44,56,6
2,note_on,44,0,114
2,note_on,45,49,6
2,note_on,45,0,120
2,note_on,48,53,360
2,note_on,48,0,120
2,note_on,45,49,360
2,note_on,45,0,120
2,note_on,48,46,360
2,note_on,48,0,120
2,note_on,44,39,360
2,note_on,44,0,120
2,note_on,51,36,360
2,note_on,51,0,120
2,note_on,44,33,360
2,note_on,44,0,120
2,note_on,51,29,360
2,note_on,51,0,120
2,note_on,49,34,360
2,note_on,49,0,38
2,note_on,56,29,80
2,note_on,56,0,160
2,note_on,61,29,0
2,note_on,61,0,160
2,note_on,65,29,0
2,note_on,65,0,160
2,note_on,61,29,0
2,note_on,61,0,160
2,note_on,56,29,0
2,note_on,56,0,160
2,note_on,49,34,0
2,note_on,49,0,80
2,note_on,56,29,80
2,note_on,56,0,160
2,note_on,61,29,0
2,note_on,61,0,160
2,note_on,65,29,0
2,note_on,65,0,160
2,note_on,61,29,0
2,note_on,61,0,160
2,note_on,56,29,0
2,note_on,56,0,160
2,note_on,48,34,0
2,note_on,48,0,70
2,note_on,56,30,74
2,note_on,56,0,160
2,note_on,63,30,0
2,note_on,63,0,160
2,note_on,66,30,0
2,note_on,66,0,160
2,note_on,63,30,0
2,note_on,63,0,160
2,note_on,56,30,0
2,note_on,56,0,160
2,note_on,48,34,0
2,note_on,48,0,17
2,note_on,56,30,80
2,note_on,56,0,160
2,note_on,63,30,0
2,note_on,63,0,160
2,note_on,66,29,0
2,note_on,66,0,160
2,note_on,63,29,0
2,note_on,63,0,160
2,note_on,56,29,0
2,note_on,56,0,160
2,note_on,49,34,0
2,note_on,49,0,6
2,note_on,56,29,80
2,note_on,56,0,160
2,note_on,61,29,0
2,note_on,61,0,160
2,note_on,65,29,0
2,note_on,65,0,160
2,note_on,61,29,0
2,note_on,61,0,160
2,note_on,56,29,0
2,note_on,56,0,160
2,note_on,46,34,0
2,note_on,46,0,80
2,note_on,61,29,80
2,note_on,61,0,160
2,note_on,63,29,0
2,note_on,63,0,160
2,note_on,51,29,0
2,note_on,51,0,160
2,note_on,61,29,0
2,note_on,61,0,160
2,note_on,63,29,0
2,note_on,63,0,160
2,note_on,44,34,0
2,note_on,44,0,70
2,note_on,56,30,74
2,note_on,56,0,160
2,note_on,60,30,0
2,note_on,60,0,160
2,note_on,63,30,0
2,note_on,63,0,160
2,note_on,60,30,0
2,note_on,60,0,160
2,note_on,56,30,0
2,note_on,56,0,160
2,note_on,44,42,0
2,note_on,44,0,80
2,note_on,60,30,80
2,note_on,60,0,160
2,note_on,63,30,0
2,note_on,63,0,160
2,note_on,66,36,0
2,note_on,66,0,160
2,note_on,63,33,0
2,note_on,63,0,160
2,note_on,60,30,0
2,note_on,60,0,160
2,note_on,49,34,0
2,note_on,49,0,80
2,note_on,56,29,80
2,note_on,56,0,160
2,note_on,61,29,0
2,note_on,61,0,160
2,note_on,65,29,0
2,note_on,65,0,160
2,note_on,61,29,0
2,note_on,61,0,160
2,note_on,56,29,0
2,note_on,56,0,160
2,note_on,49,39,0
2,note_on,49,0,17
2,note_on,59,33,80
2,note_on,59,0,160
2,note_on,61,33,0
2,note_on,61,0,160
2,note_on,65,41,0
2,note_on,65,0,160
2,note_on,61,35,0
2,note_on,61,0,160
2,note_on,59,36,0
2,note_on,59,0,160
2,note_on,42,42,0
2,note_on,42,0,70
2,note_on,56,33,74
2,note_on,56,0,160
2,note_on,62,33,0
2,note_on,62,0,160
2,note_on,65,34,0
2,note_on,65,0,160
2,note_on,62,31,0
2,note_on,62,0,160
2,note_on,56,30,0
2,note_on,56,0,160
2,note_on,42,40,0
2,note_on,42,0,17
2,note_on,58,34,80
2,note_on,58,0,160
2,note_on,61,30,0
2,note_on,61,0,160
2,note_on,66,29,0
2,note_on,66,0,160
2,note_on,61,29,0
2,note_on,61,0,160
2,note_on,58,29,0
2,note_on,58,0,160
2,note_on,49,34,0
2,note_on,49,0,6
2,note_on,53,29,80
2,note_on,53,0,160
2,note_on,56,29,0
2,note_on,56,0,160
2,note_on,61,29,0
2,note_on,61,0,160
2,note_on,56,29,0
2,note_on,56,0,160
2,note_on,53,29,0
2,note_on,53,0,160
2,note_on,44,34,0
2,note_on,44,0,80
2,note_on,54,29,80
2,note_on,54,0,160
2,note_on,56,29,0
2,note_on,56,0,160
2,note_on,60,29,0
2,note_on,60,0,160
2,note_on,56,29,0
2,note_on,56,0,160
2,note_on,54,29,0
2,note_on,54,0,160
2,note_on,49,34,0
2,note_on,49,0,70
2,note_on,53,30,74
2,note_on,53,0,160
2,note_on,56,30,0
2,note_on,56,0,160
2,note_on,61,30,0
2,note_on,61,0,160
2,note_on,56,30,0
2,note_on,56,0,160
2,note_on,53,30,0
2,note_on,53,0,160
2,note_on,56,34,0
2,note_on,56,0,160
2,note_on,53,30,0
2,note_on,53,0,160
2,note_on,49,30,0
2,note_on,49,0,160
2,note_on,53,29,0
2,note_on,53,0,160
2,note_on,49,29,0
2,note_on,49,0,160
2,note_on,44,29,0
2,note_on,44,0,160
2,note_on,37,37,0
2,note_on,37,0,84
2,note_on,64,31,0
2,note_on,61,24,0
2,note_on,56,24,0
2,note_on,56,0,80
2,note_on,61,0,0
2,note_on,64,0,0
2,note_on,64,31,80
2,note_on,61,24,0
2,note_on,56,24,0
2,note_on,56,0,80
2,note_on,61,0,0
2,note_on,64,0,0
2,note_on,61,37,80
2,note_on,56,29,0
2,note_on,63,31,0
2,note_on,63,0,160
2,note_on,64,40,0
2,note_on,64,0,160
2,note_on,56,0,0
2,note_on,61,0,0
2,note_on,61,24,0
2,note_on,56,24,0
2,note_on,64,31,0
2,note_on,64,0,80
2,note_on,56,0,0
2,note_on,61,0,0
2,note_on,37,37,80
2,note_on,37,0,160
2,note_on,64,31,0
2,note_on,61,24,0
2,note_on,56,24,0
2,note_on,56,0,80
2,note_on,61,0,0
2,note_on,64,0,0
2,note_on,64,31,80
2,note_on,61,24,0
2,note_on,56,24,0
2,note_on,56,0,80
2,note_on,61,0,0
2,note_on,64,0,0
2,note_on,61,29,80
2,note_on,56,29,0
2,note_on,63,40,0
2,note_on,63,0,160
2,note_on,64,40,0
2,note_on,64,0,160
2,note_on,56,0,0
2,note_on,61,0,0
2,note_on,61,24,0
2,note_on,56,24,0
2,note_on,64,31,0
2,note_on,64,0,80
2,note_on,56,0,0
2,note_on,61,0,0
2,note_on,37,37,80
2,note_on,37,0,98
2,note_on,56,24,0
2,note_on,66,31,0
2,note_on,63,24,0
2,note_on,60,24,0
2,note_on,60,0,80
2,note_on,56,0,0
2,note_on,66,0,0
2,note_on,63,0,0
2,note_on,56,24,80
2,note_on,66,31,0
2,note_on,63,24,0
2,note_on,60,24,0
2,note_on,60,0,80
2,note_on,56,0,0
2,note_on,66,0,0
2,note_on,63,0,0
2,note_on,60,29,80
2,note_on,63,29,0
2,note_on,56,29,0
2,note_on,65,40,0
2,note_on,65,0,160
2,note_on,66,40,0
2,note_on,66,0,160
2,note_on,56,0,0
2,note_on,63,0,0
2,note_on,60,0,0
2,note_on,60,29,0
2,note_on,63,24,0
2,note_on,56,24,0
2,note_on,66,31,0
2,note_on,66,0,80
2,note_on,60,0,0
2,note_on,63,0,0
2,note_on,56,0,0
2,note_on,37,37,80
2,note_on,37,0,160
2,note_on,56,24,0
2,note_on,66,31,0
2,note_on,63,24,0
2,note_on,60,24,0
2,note_on,60,0,80
2,note_on,56,0,0
2,note_on,66,0,0
2,note_on,63,0,0
2,note_on,56,24,80
2,note_on,66,31,0
2,note_on,63,24,0
2,note_on,60,24,0
2,note_on,60,0,80
2,note_on,56,0,0
2,note_on,66,0,0
2,note_on,63,0,0
2,note_on,60,29,80
2,note_on,63,29,0
2,note_on,56,29,0
2,note_on,65,40,0
2,note_on,65,0,160
2,note_on,66,40,0
2,note_on,66,0,160
2,note_on,56,0,0
2,note_on,63,0,0
2,note_on,60,0,0
2,note_on,60,29,0
2,note_on,63,24,0
2,note_on,56,24,0
2,note_on,66,31,0
2,note_on,66,0,80
2,note_on,60,0,0
2,note_on,63,0,0
2,note_on,56,0,0
2,note_on,37,37,0
2,note_on,37,0,84
2,note_on,64,29,0
2,note_on,61,24,0
2,note_on,56,26,0
2,note_on,56,0,80
2,note_on,61,0,0
2,note_on,64,0,0
2,note_on,64,29,80
2,note_on,61,24,0
2,note_on,56,26,0
2,note_on,56,0,80
2,note_on,61,0,0
2,note_on,64,0,0
2,note_on,61,29,80
2,note_on,55,40,0
2,note_on,64,29,0
2,note_on,55,0,160
2,note_on,56,40,0
2,note_on,56,0,160
2,note_on,64,0,0
2,note_on,61,0,0
2,note_on,61,24,0
2,note_on,56,26,0
2,note_on,64,29,0
2,note_on,64,0,80
2,note_on,56,0,0
2,note_on,61,0,0
2,note_on,45,37,80
2,note_on,45,0,160
2,note_on,61,31,0
2,note_on,57,24,0
2,note_on,57,0,80
2,note_on,61,0,0
2,note_on,61,31,80
2,note_on,57,24,0
2,note_on,57,0,80
2,note_on,61,0,0
2,note_on,57,29,80
2,note_on,60,40,0
2,note_on,60,0,160
2,note_on,61,40,0
2,note_on,61,0,160
2,note_on,57,0,0
2,note_on,57,24,0
2,note_on,61,31,0
2,note_on,61,0,80
2,note_on,57,0,0
2,note_on,44,37,80
2,note_on,44,0,98
2,note_on,56,26,0
2,note_on,63,29,0
2,note_on,60,24,0
2,note_on,60,0,80
2,note_on,63,0,0
2,note_on,56,0,0
2,note_on,56,26,80
2,note_on,63,29,0
2,note_on,60,24,0
2,note_on,60,0,80
2,note_on,63,0,0
2,note_on,56,0,0
2,note_on,60,29,80
2,note_on,55,40,0
2,note_on,63,29,0
2,note_on,55,0,160
2,note_on,56,31,0
2,note_on,56,0,160
2,note_on,63,0,0
2,note_on,60,0,0
2,note_on,60,24,0
2,note_on,56,31,0
2,note_on,63,24,0
2,note_on,63,0,80
2,note_on,56,0,0
2,note_on,60,0,0
2,note_on,48,37,80
2,note_on,48,0,160
2,note_on,56,24,0
2,note_on,66,31,0
2,note_on,63,24,0
2,note_on,63,0,80
2,note_on,66,0,0
2,note_on,56,0,0
2,note_on,56,24,80
2,note_on,66,31,0
2,note_on,63,24,0
2,note_on,63,0,80
2,note_on,66,0,0
2,note_on,56,0,0
2,note_on,63,29,80
2,note_on,56,29,0
2,note_on,65,40,0
2,note_on,65,0,160
2,note_on,56,0,0
2,note_on,63,0,0
2,note_on,56,29,0
2,note_on,63,29,0
2,note_on,66,40,0
2,note_on,66,0,160
2,note_on,63,0,0
2,note_on,56,0,0
2,note_on,63,24,0
2,note_on,56,24,0
2,note_on,66,31,0
2,note_on,66,0,80
2,note_on,56,0,0
2,note_on,63,0,0
2,note_on,49,37,80
2,note_on,49,0,84
2,note_on,64,31,0
2,note_on,61,24,0
2,note_on,56,24,0
2,note_on,56,0,80
2,note_on,61,0,0
2,note_on,64,0,0
2,note_on,64,31,80
2,note_on,61,24,0
2,note_on,56,24,0
2,note_on,56,0,80
2,note_on,61,0,0
2,note_on,64,0,0
2,note_on,61,30,80
2,note_on,56,30,0
2,note_on,63,40,0
2,note_on,63,0,160
2,note_on,64,41,0
2,note_on,64,0,160
2,note_on,56,0,0
2,note_on,61,0,0
2,note_on,61,25,0
2,note_on,56,25,0
2,note_on,64,33,0
2,note_on,64,0,80
2,note_on,56,0,0
2,note_on,61,0,0
2,note_on,49,39,80
2,note_on,49,0,160
2,note_on,59,25,0
2,note_on,65,30,0
2,note_on,61,27,0
2,note_on,56,25,0
2,note_on,56,0,80
2,note_on,59,0,0
2,note_on,65,0,0
2,note_on,61,0,0
2,note_on,59,27,80
2,note_on,65,31,0
2,note_on,61,29,0
2,note_on,56,27,0
2,note_on,56,0,80
2,note_on,59,0,0
2,note_on,65,0,0
2,note_on,61,0,0
2,note_on,65,35,80
2,note_on,59,35,0
2,note_on,56,35,0
2,note_on,62,44,0
2,note_on,62,0,160
2,note_on,61,47,0
2,note_on,61,0,160
2,note_on,56,0,0
2,note_on,59,0,0
2,note_on,65,0,0
2,note_on,59,36,0
2,note_on,61,38,0
2,note_on,56,29,0
2,note_on,65,29,0
2,note_on,65,0,80
2,note_on,59,0,0
2,note_on,61,0,0
2,note_on,56,0,0
2,note_on,42,64,80
2,note_on,42,0,98
2,note_on,57,31,0
2,note_on,66,37,0
2,note_on,61,33,0
2,note_on,61,0,80
2,note_on,66,0,0
2,note_on,57,0,0
2,note_on,57,31,80
2,note_on,66,37,0
2,note_on,61,33,0
2,note_on,61,0,80
2,note_on,66,0,0
2,note_on,57,0,0
2,note_on,66,34,80
2,note_on,57,34,0
2,note_on,60,45,0
2,note_on,60,0,160
2,note_on,61,45,0
2,note_on,61,0,160
2,note_on,57,0,0
2,note_on,66,0,0
2,note_on,57,34,0
2,note_on,61,36,0
2,note_on,66,27,0
2,note_on,66,0,80
2,note_on,61,0,0
2,note_on,57,0,0
2,note_on,45,41,80
2,note_on,45,0,160
2,note_on,66,33,0
2,note_on,60,29,0
2,note_on,57,27,0
2,note_on,57,0,80
2,note_on,60,0,0
2,note_on,66,0,0
2,note_on,66,33,80
2,note_on,60,29,0
2,note_on,57,27,0
2,note_on,57,0,80
2,note_on,60,0,0
2,note_on,66,0,0
2,note_on,66,34,80
2,note_on,57,34,0
2,note_on,59,45,0
2,note_on,59,0,160
2,note_on,60,45,0
2,note_on,60,0,160
2,note_on,57,0,0
2,note_on,66,0,0
2,note_on,60,36,0
2,note_on,57,27,0
2,note_on,66,27,0
2,note_on,66,0,80
2,note_on,57,0,0
2,note_on,60,0,0
2,note_on,47,41,0
2,note_on,47,0,84
2,note_on,64,33,0
2,note_on,59,27,0
2,note_on,56,27,0
2,note_on,56,0,80
2,note_on,59,0,0
2,note_on,64,0,0
2,note_on,64,33,80
2,note_on,59,27,0
2,note_on,56,27,0
2,note_on,56,0,80
2,note_on,59,0,0
2,note_on,64,0,0
2,note_on,59,34,80
2,note_on,56,34,0
2,note_on,66,41,0
2,note_on,66,0,160
2,note_on,64,41,0
2,note_on,64,0,160
2,note_on,56,0,0
2,note_on,59,0,0
2,note_on,59,27,0
2,note_on,56,27,0
2,note_on,64,33,0
2,note_on,64,0,80
2,note_on,56,0,0
2,note_on,59,0,0
2,note_on,47,41,80
2,note_on,47,0,160
2,note_on,59,27,0
2,note_on,63,33,0
2,note_on,57,27,0
2,note_on,57,0,80
2,note_on,63,0,0
2,note_on,59,0,0
2,note_on,59,27,80
2,note_on,63,33,0
2,note_on,57,27,0
2,note_on,57,0,80
2,note_on,63,0,0
2,note_on,59,0,0
2,note_on,59,34,80
2,note_on,57,34,0
2,note_on,64,41,0
2,note_on,64,0,160
2,note_on,63,41,0
2,note_on,63,0,160
2,note_on,57,0,0
2,note_on,59,0,0
2,note_on,59,34,0
2,note_on,57,27,0
2,note_on,63,33,0
2,note_on,63,0,80
2,note_on,57,0,0
2,note_on,59,0,0
2,note_on,52,41,80
2,note_on,52,0,98
2,note_on,56,27,0
2,note_on,59,33,0
2,note_on,59,0,80
2,note_on,56,0,0
2,note_on,56,26,80
2,note_on,59,31,0
2,note_on,59,0,80
2,note_on,56,0,0
2,note_on,58,33,80
2,note_on,56,40,0
2,note_on,58,0,160
2,note_on,59,33,0
2,note_on,59,0,160
2,note_on,56,0,0
2,note_on,59,26,0
2,note_on,56,30,0
2,note_on,56,0,80
2,note_on,59,0,0
2,note_on,44,39,80
2,note_on,44,0,160
2,note_on,54,24,0
2,note_on,60,29,0
2,note_on,56,24,0
2,note_on,56,0,80
2,note_on,60,0,0
2,note_on,54,0,0
2,note_on,54,23,80
2,note_on,60,28,0
2,note_on,56,23,0
2,note_on,56,0,80
2,note_on,60,0,0
2,note_on,54,0,0
2,note_on,56,27,80
2,note_on,54,27,0
2,note_on,61,34,0
2,note_on,61,0,160
2,note_on,60,32,0
2,note_on,60,0,160
2,note_on,54,0,0
2,note_on,56,0,0
2,note_on,56,20,0
2,note_on,54,20,0
2,note_on,60,24,0
2,note_on,60,0,80
2,note_on,54,0,0
2,note_on,56,0,0
2,note_on,37,33,80
2,note_on,37,0,63
2,note_on,44,27,120
2,note_on,44,0,120
2,note_on,49,27,120
2,note_on,49,0,120
2,note_on,53,27,120
2,note_on,53,0,120
2,note_on,37,33,120
2,note_on,37,0,120
2,note_on,44,29,120
2,note_on,44,0,120
2,note_on,49,29,120
2,note_on,49,0,120
2,note_on,53,29,120
2,note_on,53,0,120
2,note_on,32,33,120
2,note_on,32,0,6
2,note_on,44,33,120
2,note_on,44,0,120
2,note_on,51,28,120
2,note_on,51,0,120
2,note_on,54,28,120
2,note_on,54,0,120
2,note_on,32,33,120
2,note_on,32,0,120
2,note_on,44,27,120
2,note_on,44,0,120
2,note_on,51,27,120
2,note_on,51,0,120
2,note_on,54,27,120
2,note_on,54,0,120
2,note_on,37,33,120
2,note_on,37,0,64
2,note_on,44,27,120
2,note_on,44,0,240
2,note_on,49,27,0
2,note_on,49,0,240
2,note_on,53,27,0
2,note_on,53,0,240
2,note_on,34,33,0
2,note_on,34,0,240
2,note_on,49,33,0
2,note_on,49,0,240
2,note_on,39,28,0
2,note_on,39,0,240
2,note_on,51,28,0
2,note_on,51,0,240
2,note_on,32,33,0
2,note_on,32,0,120
2,note_on,44,27,0
2,note_on,44,0,240
2,note_on,48,29,0
2,note_on,48,0,240
2,note_on,51,31,0
2,note_on,51,0,240
2,note_on,32,36,0
2,note_on,32,0,240
2,note_on,44,33,0
2,note_on,44,0,240
2,note_on,51,33,0
2,note_on,51,0,240
2,note_on,54,29,0
2,note_on,54,0,240
2,note_on,37,33,0
2,note_on,37,0,137
2,note_on,44,28,0
2,note_on,44,0,240
2,note_on,49,29,0
2,note_on,49,0,240
2,note_on,53,29,0
2,note_on,53,0,240
2,note_on,37,34,0
2,note_on,37,0,240
2,note_on,47,30,0
2,note_on,47,0,240
2,note_on,49,30,0
2,note_on,49,0,240
2,note_on,53,30,0
2,note_on,53,0,240
2,note_on,30,35,0
2,note_on,30,0,136
2,note_on,47,29,0
2,note_on,47,0,240
2,note_on,50,29,0
2,note_on,50,0,240
2,note_on,53,29,0
2,note_on,53,0,240
2,note_on,30,33,0
2,note_on,30,0,191
2,note_on,46,29,0
2,note_on,46,0,240
2,note_on,49,28,0
2,note_on,49,0,240
2,note_on,54,28,0
2,note_on,54,0,240
2,note_on,32,33,0
2,note_on,32,0,160
2,note_on,41,29,0
2,note_on,41,0,240
2,note_on,44,29,0
2,note_on,44,0,240
2,note_on,49,29,0
2,note_on,49,0,240
2,note_on,32,33,0
2,note_on,32,0,240
2,note_on,42,29,0
2,note_on,42,0,240
2,note_on,44,29,0
2,note_on,44,0,240
2,note_on,48,29,0
2,note_on,48,0,240
2,note_on,37,33,0
2,note_on,37,0,120
2,note_on,41,30,0
2,note_on,41,0,240
2,note_on,44,31,0
2,note_on,44,0,240
2,note_on,49,34,0
2,note_on,49,0,240
2,note_on,33,40,0
2,note_on,33,0,183
2,note_on,45,35,0
2,note_on,45,0,240
2,note_on,32,31,0
2,note_on,32,0,210
2,note_on,44,28,0
2,note_on,44,0,240
2,note_on,37,33,0
2,note_on,37,0,57
2,note_on,56,22,0
2,note_on,56,0,120
2,note_on,64,17,0
2,note_on,68,33,0
2,note_on,61,17,0
2,note_on,61,0,120
2,note_on,68,0,0
2,note_on,64,0,0
2,note_on,56,22,0
2,note_on,56,0,120
2,note_on,64,17,0
2,note_on,68,33,0
2,note_on,61,17,0
2,note_on,61,0,120
2,note_on,68,0,0
2,note_on,64,0,0
2,note_on,56,22,0
2,note_on,56,0,120
2,note_on,64,17,0
2,note_on,61,17,0
2,note_on,68,33,0
2,note_on,68,0,120
2,note_on,61,0,0
2,note_on,64,0,0
2,note_on,56,22,0
2,note_on,56,0,120
2,note_on,37,33,0
2,note_on,37,0,120
2,note_on,56,22,0
2,note_on,56,0,120
2,note_on,64,17,0
2,note_on,68,33,0
2,note_on,61,17,0
2,note_on,61,0,120
2,note_on,68,0,0
2,note_on,64,0,0
2,note_on,56,22,0
2,note_on,56,0,120
2,note_on,64,17,0
2,note_on,68,33,0
2,note_on,61,17,0
2,note_on,61,0,120
2,note_on,68,0,0
2,note_on,64,0,0
2,note_on,56,22,0
2,note_on,56,0,120
2,note_on,61,17,0
2,note_on,68,33,0
2,note_on,64,17,0
2,note_on,64,0,120
2,note_on,68,0,0
2,note_on,61,0,0
2,note_on,56,22,0
2,note_on,56,0,120
2,note_on,44,33,0
2,note_on,32,27,0
2,note_on,32,0,57
2,note_on,44,0,0
2,note_on,56,22,0
2,note_on,56,0,120
2,note_on,66,17,0
2,note_on,68,37,0
2,note_on,60,17,0
2,note_on,60,0,120
2,note_on,68,0,0
2,note_on,66,0,0
2,note_on,56,22,0
2,note_on,56,0,120
2,note_on,66,17,0
2,note_on,68,40,0
2,note_on,60,17,0
2,note_on,60,0,120
2,note_on,68,0,0
2,note_on,66,0,0
2,note_on,56,22,0
2,note_on,56,0,120
2,note_on,66,17,0
2,note_on,60,17,0
2,note_on,69,41,0
2,note_on,69,0,120
2,note_on,60,0,0
2,note_on,66,0,0
2,note_on,56,22,0
2,note_on,56,0,120
2,note_on,44,33,0
2,note_on,32,27,0
2,note_on,32,0,120
2,note_on,44,0,0
2,note_on,56,22,0
2,note_on,56,0,120
2,note_on,66,17,0
2,note_on,60,17,0
2,note_on,68,33,0
2,note_on,68,0,120
2,note_on,60,0,0
2,note_on,66,0,0
2,note_on,56,22,0
2,note_on,56,0,120
2,note_on,66,17,0
2,note_on,60,17,0
2,note_on,68,33,0
2,note_on,68,0,120
2,note_on,60,0,0
2,note_on,66,0,0
2,note_on,56,22,0
2,note_on,56,0,120
2,note_on,66,17,0
2,note_on,60,17,0
2,note_on,68,33,0
2,note_on,68,0,120
2,note_on,60,0,0
2,note_on,66,0,0
2,note_on,56,22,0
2,note_on,56,0,120
2,note_on,37,33,0
2,note_on,37,0,57
2,note_on,56,22,0
2,note_on,56,0,120
2,note_on,64,33,0
2,note_on,61,17,0
2,note_on,61,0,120
2,note_on,64,0,0
2,note_on,56,22,0
2,note_on,56,0,120
2,note_on,64,33,0
2,note_on,61,17,0
2,note_on,61,0,120
2,note_on,64,0,0
2,note_on,56,22,0
2,note_on,56,0,120
2,note_on,61,17,0
2,note_on,64,33,0
2,note_on,64,0,120
2,note_on,61,0,0
2,note_on,56,22,0
2,note_on,56,0,120
2,note_on,45,41,0
2,note_on,45,0,74
2,note_on,57,24,0
2,note_on,57,0,120
2,note_on,66,45,0
2,note_on,61,19,0
2,note_on,61,0,120
2,note_on,66,0,0
2,note_on,57,25,0
2,note_on,57,0,120
2,note_on,64,51,0
2,note_on,61,20,0
2,note_on,61,0,120
2,note_on,64,0,0
2,note_on,57,26,0
2,note_on,57,0,120
2,note_on,61,22,0
2,note_on,66,52,0
2,note_on,66,0,120
2,note_on,61,0,0
2,note_on,57,28,0
2,note_on,57,0,120
2,note_on,44,49,0
2,note_on,44,0,63
2,note_on,56,27,0
2,note_on,56,0,120
2,note_on,63,22,0
2,note_on,68,45,0
2,note_on,60,22,0
2,note_on,60,0,120
2,note_on,68,0,0
2,note_on,63,0,0
2,note_on,56,26,0
2,note_on,56,0,120
2,note_on,63,20,0
2,note_on,68,43,0
2,note_on,60,20,0
2,note_on,60,0,120
2,note_on,68,0,0
2,note_on,63,0,0
2,note_on,56,25,0
2,note_on,56,0,120
2,note_on,63,19,0
2,note_on,60,19,0
2,note_on,68,42,0
2,note_on,68,0,120
2,note_on,60,0,0
2,note_on,63,0,0
2,note_on,56,24,0
2,note_on,56,0,120
2,note_on,44,37,0
2,note_on,44,0,86
2,note_on,56,22,0
2,note_on,56,0,120
2,note_on,66,17,0
2,note_on,60,17,0
2,note_on,68,40,0
2,note_on,68,0,120
2,note_on,60,0,0
2,note_on,66,0,0
2,note_on,56,22,0
2,note_on,56,0,120
2,note_on,66,17,0
2,note_on,60,17,0
2,note_on,69,42,0
2,note_on,69,0,120
2,note_on,60,0,0
2,note_on,66,0,0
2,note_on,56,22,0
2,note_on,56,0,120
2,note_on,66,17,0
2,note_on,60,17,0
2,note_on,68,40,0
2,note_on,68,0,120
2,note_on,60,0,0
2,note_on,66,0,0
2,note_on,56,22,0
2,note_on,56,0,120
2,note_on,37,33,0
2,note_on,37,0,77
2,note_on,56,22,0
2,note_on,56,0,120
2,note_on,64,17,0
2,note_on,68,33,0
2,note_on,61,17,0
2,note_on,61,0,120
2,note_on,68,0,0
2,note_on,64,0,0
2,note_on,56,22,0
2,note_on,56,0,120
2,note_on,64,17,0
2,note_on,68,33,0
2,note_on,61,17,0
2,note_on,61,0,120
2,note_on,68,0,0
2,note_on,64,0,0
2,note_on,56,22,0
2,note_on,56,0,120
2,note_on,64,17,0
2,note_on,61,17,0
2,note_on,68,33,0
2,note_on,68,0,120
2,note_on,61,0,0
2,note_on,64,0,0
2,note_on,56,22,0
2,note_on,56,0,120
2,note_on,37,33,0
2,note_on,37,0,120
2,note_on,56,22,0
2,note_on,56,0,120
2,note_on,64,17,0
2,note_on,68,33,0
2,note_on,61,17,0
2,note_on,61,0,120
2,note_on,68,0,0
2,note_on,64,0,0
2,note_on,56,22,0
2,note_on,56,0,120
2,note_on,64,17,0
2,note_on,68,33,0
2,note_on,61,17,0
2,note_on,61,0,120
2,note_on,68,0,0
2,note_on,64,0,0
2,note_on,56,22,0
2,note_on,56,0,120
2,note_on,61,17,0
2,note_on,68,33,0
2,note_on,64,17,0
2,note_on,64,0,120
2,note_on,68,0,0
2,note_on,61,0,0
2,note_on,56,22,0
2,note_on,56,0,120
2,note_on,42,46,0
2,note_on,42,0,69
2,note_on,62,28,0
2,note_on,62,0,120
2,note_on,68,22,0
2,note_on,71,46,0
2,note_on,65,22,0
2,note_on,65,0,120
2,note_on,71,0,0
2,note_on,68,0,0
2,note_on,62,26,0
2,note_on,62,0,120
2,note_on,68,20,0
2,note_on,71,43,0
2,note_on,65,20,0
2,note_on,65,0,120
2,note_on,71,0,0
2,note_on,68,0,0
2,note_on,62,25,0
2,note_on,62,0,120
2,note_on,68,19,0
2,note_on,65,19,0
2,note_on,71,42,0
2,note_on,71,0,120
2,note_on,65,0,0
2,note_on,68,0,0
2,note_on,62,24,0
2,note_on,62,0,120
2,note_on,42,33,0
2,note_on,42,0,80
2,note_on,61,22,0
2,note_on,61,0,120
2,note_on,66,17,0
2,note_on,69,33,0
2,note_on,69,0,120
2,note_on,66,0,0
2,note_on,61,22,0
2,note_on,61,0,120
2,note_on,57,17,0
2,note_on,66,33,0
2,note_on,66,0,120
2,note_on,57,0,0
2,note_on,61,22,0
2,note_on,61,0,120
2,note_on,57,17,0
2,note_on,66,33,0
2,note_on,66,0,120
2,note_on,57,0,0
2,note_on,60,22,0
2,note_on,60,0,120
2,note_on,47,33,0
2,note_on,47,0,57
2,note_on,59,22,0
2,note_on,59,0,120
2,note_on,64,33,0
2,note_on,56,17,0
2,note_on,56,0,120
2,note_on,64,0,0
2,note_on,59,22,0
2,note_on,59,0,120
2,note_on,64,33,0
2,note_on,56,17,0
2,note_on,56,0,120
2,note_on,64,0,0
2,note_on,59,22,0
2,note_on,59,0,120
2,note_on,56,17,0
2,note_on,64,33,0
2,note_on,64,0,120
2,note_on,56,0,0
2,note_on,59,22,0
2,note_on,59,0,120
2,note_on,47,41,0
2,note_on,47,0,74
2,note_on,59,24,0
2,note_on,59,0,120
2,note_on,63,19,0
2,note_on,68,45,0
2,note_on,57,19,0
2,note_on,57,0,120
2,note_on,68,0,0
2,note_on,63,0,0
2,note_on,59,25,0
2,note_on,59,0,120
2,note_on,63,20,0
2,note_on,68,51,0
2,note_on,57,20,0
2,note_on,57,0,120
2,note_on,68,0,0
2,note_on,63,0,0
2,note_on,59,26,0
2,note_on,59,0,120
2,note_on,63,22,0
2,note_on,57,22,0
2,note_on,66,52,0
2,note_on,66,0,120
2,note_on,57,0,0
2,note_on,63,0,0
2,note_on,59,28,0
2,note_on,59,0,120
2,note_on,40,42,0
2,note_on,40,0,80
2,note_on,59,27,0
2,note_on,59,0,120
2,note_on,64,45,0
2,note_on,56,22,0
2,note_on,56,0,120
2,note_on,64,0,0
2,note_on,59,26,0
2,note_on,59,0,120
2,note_on,64,43,0
2,note_on,56,20,0
2,note_on,56,0,120
2,note_on,64,0,0
2,note_on,59,25,0
2,note_on,59,0,120
2,note_on,56,19,0
2,note_on,64,42,0
2,note_on,64,0,120
2,note_on,56,0,0
2,note_on,59,24,0
2,note_on,59,0,120
2,note_on,56,22,0
2,note_on,64,49,0
2,note_on,64,0,86
2,note_on,56,0,0
2,note_on,80,67,600
2,note_on,80,0,60
2,note_on,79,68,0
2,note_on,79,0,60
2,note_on,80,69,0
2,note_on,80,0,60
2,note_on,81,70,0
2,note_on,81,0,14
2,note_on,78,72,0
2,note_on,81,64,60
2,note_on,81,0,60
2,note_on,78,0,0
2,note_on,76,68,0
2,note_on,81,64,60
2,note_on,81,0,60
2,note_on,76,0,0
2,note_on,75,68,0
2,note_on,81,64,60
2,note_on,81,0,60
2,note_on,75,0,0
2,note_on,73,68,0
2,note_on,81,64,60
2,note_on,81,0,60
2,note_on,73,0,0
2,note_on,72,72,0
2,note_on,75,64,60
2,note_on,75,0,60
2,note_on,72,0,0
2,note_on,69,68,0
2,note_on,75,64,60
2,note_on,75,0,60
2,note_on,69,0,0
2,note_on,68,68,0
2,note_on,75,64,60
2,note_on,75,0,60
2,note_on,68,0,0
2,note_on,67,68,0
2,note_on,75,64,60
2,note_on,75,0,60
2,note_on,67,0,0
2,note_on,66,72,0
2,note_on,69,64,60
2,note_on,69,0,60
2,note_on,66,0,0
2,note_on,64,68,0
2,note_on,69,64,60
2,note_on,69,0,60
2,note_on,64,0,0
2,note_on,63,68,0
2,note_on,69,66,60
2,note_on,69,0,60
2,note_on,63,0,0
2,note_on,61,69,0
2,note_on,69,66,60
2,note_on,69,0,60
2,note_on,61,0,0
2,note_on,60,73,0
2,note_on,63,67,60
2,note_on,63,0,60
2,note_on,60,0,0
2,note_on,57,70,0
2,note_on,63,67,60
2,note_on,63,0,60
2,note_on,57,0,0
2,note_on,56,71,0
2,note_on,63,68,60
2,note_on,63,0,60
2,note_on,56,0,0
2,note_on,55,71,0
2,note_on,63,69,60
2,note_on,63,0,60
2,note_on,55,0,0
2,note_on,54,77,0
2,note_on,54,0,37
2,note_on,57,69,0
2,note_on,57,0,60
2,note_on,52,72,0
2,note_on,52,0,60
2,note_on,57,69,0
2,note_on,57,0,60
2,note_on,51,73,0
2,note_on,51,0,60
2,note_on,57,70,0
2,note_on,57,0,60
2,note_on,49,74,0
2,note_on,49,0,60
2,note_on,57,70,0
2,note_on,57,0,60
2,note_on,48,80,0
2,note_on,48,0,26
2,note_on,51,71,0
2,note_on,51,0,60
2,note_on,45,75,0
2,note_on,45,0,60
2,note_on,51,72,0
2,note_on,51,0,60
2,note_on,44,77,0
2,note_on,44,0,60
2,note_on,51,72,0
2,note_on,51,0,60
2,note_on,43,77,0
2,note_on,43,0,60
2,note_on,51,73,0
2,note_on,51,0,60
2,note_on,42,73,0
2,note_on,42,0,29
2,note_on,45,66,0
2,note_on,45,0,60
2,note_on,39,71,0
2,note_on,39,0,60
2,note_on,45,68,0
2,note_on,45,0,60
2,note_on,37,73,0
2,note_on,37,0,60
2,note_on,45,70,0
2,note_on,45,0,60
2,note_on,36,74,0
2,note_on,36,0,60
2,note_on,45,71,0
2,note_on,45,0,60
2,note_on,42,73,0
2,note_on,42,0,31
2,note_on,45,66,0
2,note_on,45,0,60
2,note_on,39,71,0
2,note_on,39,0,60
2,note_on,45,68,0
2,note_on,45,0,60
2,note_on,37,73,0
2,note_on,37,0,60
2,note_on,45,70,0
2,note_on,45,0,60
2,note_on,36,74,0
2,note_on,36,0,60
2,note_on,45,71,0
2,note_on,45,0,60
2,note_on,42,73,0
2,note_on,42,0,29
2,note_on,45,66,0
2,note_on,45,0,60
2,note_on,38,70,0
2,note_on,38,0,60
2,note_on,45,67,0
2,note_on,45,0,60
2,note_on,37,71,0
2,note_on,37,0,60
2,note_on,45,67,0
2,note_on,45,0,60
2,note_on,36,71,0
2,note_on,36,0,60
2,note_on,45,68,0
2,note_on,45,0,60
2,note_on,42,69,0
2,note_on,42,0,31
2,note_on,45,62,0
2,note_on,45,0,60
2,note_on,38,66,0
2,note_on,38,0,60
2,note_on,45,62,0
2,note_on,45,0,60
2,note_on,37,68,0
2,note_on,37,0,60
2,note_on,45,63,0
2,note_on,45,0,60
2,note_on,36,69,0
2,note_on,36,0,60
2,note_on,45,63,0
2,note_on,45,0,60
2,note_on,37,66,0
2,note_on,37,0,29
2,note_on,45,59,0
2,note_on,45,0,60
2,note_on,40,63,0
2,note_on,40,0,60
2,note_on,45,62,0
2,note_on,45,0,60
2,note_on,42,67,0
2,note_on,42,0,60
2,note_on,45,64,0
2,note_on,45,0,60
2,note_on,43,69,0
2,note_on,43,0,60
2,note_on,45,67,0
2,note_on,45,0,60
2,note_on,42,73,0
2,note_on,42,0,31
2,note_on,45,64,0
2,note_on,45,0,60
2,note_on,40,67,0
2,note_on,40,0,60
2,note_on,45,63,0
2,note_on,45,0,60
2,note_on,38,64,0
2,note_on,38,0,60
2,note_on,45,61,0
2,note_on,45,0,60
2,note_on,36,63,0
2,note_on,36,0,60
2,note_on,46,60,0
2,note_on,46,0,60
2,note_on,35,66,0
2,note_on,35,0,29
2,note_on,47,59,0
2,note_on,47,0,60
2,note_on,39,63,0
2,note_on,39,0,60
2,note_on,47,62,0
2,note_on,47,0,60
2,note_on,42,67,0
2,note_on,42,0,60
2,note_on,47,64,0
2,note_on,47,0,60
2,note_on,45,69,0
2,note_on,45,0,60
2,note_on,47,67,0
2,note_on,47,0,60
2,note_on,44,73,0
2,note_on,44,0,31
2,note_on,47,64,0
2,note_on,47,0,60
2,note_on,42,67,0
2,note_on,42,0,60
2,note_on,47,63,0
2,note_on,47,0,60
2,note_on,40,64,0
2,note_on,40,0,60
2,note_on,47,61,0
2,note_on,47,0,60
2,note_on,38,63,0
2,note_on,38,0,60
2,note_on,48,60,0
2,note_on,48,0,60
2,note_on,37,66,0
2,note_on,37,0,29
2,note_on,49,59,0
2,note_on,49,0,60
2,note_on,41,63,0
2,note_on,41,0,60
2,note_on,49,62,0
2,note_on,49,0,60
2,note_on,44,67,0
2,note_on,44,0,60
2,note_on,49,64,0
2,note_on,49,0,60
2,note_on,47,69,0
2,note_on,47,0,60
2,note_on,49,67,0
2,note_on,49,0,60
2,note_on,46,73,0
2,note_on,46,0,31
2,note_on,49,64,0
2,note_on,49,0,60
2,note_on,44,67,0
2,note_on,44,0,60
2,note_on,49,63,0
2,note_on,49,0,60
2,note_on,42,64,0
2,note_on,42,0,60
2,note_on,49,61,0
2,note_on,49,0,60
2,note_on,40,63,0
2,note_on,40,0,60
2,note_on,50,60,0
2,note_on,50,0,60
2,note_on,39,66,0
2,note_on,39,0,29
2,note_on,51,59,0
2,note_on,51,0,60
2,note_on,43,63,0
2,note_on,43,0,60
2,note_on,51,62,0
2,note_on,51,0,60
2,note_on,46,67,0
2,note_on,46,0,60
2,note_on,51,64,0
2,note_on,51,0,60
2,note_on,49,69,0
2,note_on,49,0,60
2,note_on,51,67,0
2,note_on,51,0,60
2,note_on,48,74,0
2,note_on,48,0,31
2,note_on,51,66,0
2,note_on,51,0,60
2,note_on,46,69,0
2,note_on,46,0,60
2,note_on,51,64,0
2,note_on,51,0,60
2,note_on,44,67,0
2,note_on,44,0,60
2,note_on,51,64,0
2,note_on,51,0,60
2,note_on,42,68,0
2,note_on,42,0,60
2,note_on,52,62,0
2,note_on,52,0,60
2,note_on,41,69,0
2,note_on,41,0,29
2,note_on,53,62,0
2,note_on,53,0,60
2,note_on,45,68,0
2,note_on,45,0,60
2,note_on,53,64,0
2,note_on,53,0,60
2,note_on,48,70,0
2,note_on,48,0,60
2,note_on,53,69,0
2,note_on,53,0,60
2,note_on,51,74,0
2,note_on,51,0,60
2,note_on,53,72,0
2,note_on,53,0,60
2,note_on,50,79,0
2,note_on,50,0,31
2,note_on,53,71,0
2,note_on,53,0,60
2,note_on,48,77,0
2,note_on,48,0,60
2,note_on,54,72,0
2,note_on,54,0,60
2,note_on,47,77,0
2,note_on,47,0,60
2,note_on,55,72,0
2,note_on,55,0,60
2,note_on,53,77,0
2,note_on,53,0,60
2,note_on,55,72,0
2,note_on,55,0,60
2,note_on,52,83,0
2,note_on,52,0,29
2,note_on,55,73,0
2,note_on,55,0,60
2,note_on,50,78,0
2,note_on,50,0,60
2,note_on,56,74,0
2,note_on,56,0,60
2,note_on,49,79,0
2,note_on,49,0,60
2,note_on,57,74,0
2,note_on,57,0,60
2,note_on,55,79,0
2,note_on,55,0,60
2,note_on,57,77,0
2,note_on,57,0,60
2,note_on,54,84,0
2,note_on,54,0,31
2,note_on,57,77,0
2,note_on,57,0,60
2,note_on,52,80,0
2,note_on,52,0,60
2,note_on,58,77,0
2,note_on,58,0,60
2,note_on,51,81,0
2,note_on,51,0,60
2,note_on,59,77,0
2,note_on,59,0,60
2,note_on,57,82,0
2,note_on,57,0,60
2,note_on,59,78,0
2,note_on,59,0,60
2,note_on,56,88,0
2,note_on,56,0,31
2,note_on,59,78,0
2,note_on,59,0,60
2,note_on,54,82,0
2,note_on,54,0,60
2,note_on,60,78,0
2,note_on,60,0,60
2,note_on,53,84,0
2,note_on,53,0,60
2,note_on,61,80,0
2,note_on,61,0,60
2,note_on,59,84,0
2,note_on,59,0,60
2,note_on,61,80,0
2,note_on,61,0,60
2,note_on,59,79,0
2,note_on,59,0,31
2,note_on,61,80,0
2,note_on,61,0,60
2,note_on,59,80,0
2,note_on,59,0,60
2,note_on,61,81,0
2,note_on,61,0,60
2,note_on,59,82,0
2,note_on,59,0,60
2,note_on,61,79,0
2,note_on,61,0,60
2,note_on,59,77,0
2,note_on,59,0,60
2,note_on,61,75,0
2,note_on,61,0,60
2,note_on,59,84,0
2,note_on,59,0,30
2,note_on,61,75,0
2,note_on,61,0,60
2,note_on,56,80,0
2,note_on,56,0,60
2,note_on,61,77,0
2,note_on,61,0,60
2,note_on,54,81,0
2,note_on,54,0,60
2,note_on,61,78,0
2,note_on,61,0,60
2,note_on,53,82,0
2,note_on,53,0,60
2,note_on,61,79,0
2,note_on,61,0,60
2,note_on,59,89,0
2,note_on,59,0,31
2,note_on,62,80,0
2,note_on,62,0,60
2,note_on,56,84,0
2,note_on,56,0,60
2,note_on,62,80,0
2,note_on,62,0,60
2,note_on,54,85,0
2,note_on,54,0,60
2,note_on,62,82,0
2,note_on,62,0,60
2,note_on,53,86,0
2,note_on,53,0,60
2,note_on,62,83,0
2,note_on,62,0,60
2,note_on,68,78,0
2,note_on,74,93,0
2,note_on,71,78,0
2,note_on,65,78,0
2,note_on,65,0,149
2,note_on,68,0,0
2,note_on,74,0,0
2,note_on,71,0,0
2,note_on,68,70,0
2,note_on,71,84,0
2,note_on,62,70,0
2,note_on,65,70,0
2,note_on,65,0,57
2,note_on,68,0,0
2,note_on,71,0,0
2,note_on,62,0,0
2,note_on,71,91,3
2,note_on,62,78,0
2,note_on,65,78,0
2,note_on,68,78,0
2,note_on,68,0,180
2,note_on,71,0,0
2,note_on,62,0,0
2,note_on,65,0,0
2,note_on,65,70,0
2,note_on,59,70,0
2,note_on,62,70,0
2,note_on,68,84,0
2,note_on,68,0,57
2,note_on,65,0,0
2,note_on,59,0,0
2,note_on,62,0,0
2,note_on,62,78,3
2,note_on,59,78,0
2,note_on,65,78,0
2,note_on,68,91,0
2,note_on,68,0,180
2,note_on,62,0,0
2,note_on,59,0,0
2,note_on,65,0,0
2,note_on,65,80,0
2,note_on,56,68,0
2,note_on,59,68,0
2,note_on,62,68,0
2,note_on,62,0,57
2,note_on,65,0,0
2,note_on,56,0,0
2,note_on,59,0,0
2,note_on,62,73,3
2,note_on,56,73,0
2,note_on,59,73,0
2,note_on,65,88,0
2,note_on,65,0,43
2,note_on,62,0,0
2,note_on,56,0,0
2,note_on,59,0,0
2,note_on,53,68,60
2,note_on,56,68,0
2,note_on,59,68,0
2,note_on,62,80,0
2,note_on,62,0,60
2,note_on,53,0,0
2,note_on,56,0,0
2,note_on,59,0,0
2,note_on,59,84,60
2,note_on,59,0,30
2,note_on,61,75,0
2,note_on,61,0,60
2,note_on,56,80,0
2,note_on,56,0,60
2,note_on,61,77,0
2,note_on,61,0,60
2,note_on,54,81,0
2,note_on,54,0,60
2,note_on,61,78,0
2,note_on,61,0,60
2,note_on,53,82,0
2,note_on,53,0,60
2,note_on,61,79,0
2,note_on,61,0,60
2,note_on,59,89,0
2,note_on,59,0,31
2,note_on,62,80,0
2,note_on,62,0,60
2,note_on,56,84,0
2,note_on,56,0,60
2,note_on,62,80,0
2,note_on,62,0,60
2,note_on,54,85,0
2,note_on,54,0,60
2,note_on,62,82,0
2,note_on,62,0,60
2,note_on,53,86,0
2,note_on,53,0,60
2,note_on,62,83,0
2,note_on,62,0,60
2,note_on,68,78,0
2,note_on,74,93,0
2,note_on,71,78,0
2,note_on,65,78,0
2,note_on,65,0,149
2,note_on,68,0,0
2,note_on,74,0,0
2,note_on,71,0,0
2,note_on,68,70,0
2,note_on,71,84,0
2,note_on,62,70,0
2,note_on,65,70,0
2,note_on,65,0,57
2,note_on,68,0,0
2,note_on,71,0,0
2,note_on,62,0,0
2,note_on,71,91,3
2,note_on,62,78,0
2,note_on,65,78,0
2,note_on,68,78,0
2,note_on,68,0,180
2,note_on,71,0,0
2,note_on,62,0,0
2,note_on,65,0,0
2,note_on,65,70,0
2,note_on,59,70,0
2,note_on,62,70,0
2,note_on,68,84,0
2,note_on,68,0,57
2,note_on,65,0,0
2,note_on,59,0,0
2,note_on,62,0,0
2,note_on,62,78,3
2,note_on,59,78,0
2,note_on,65,78,0
2,note_on,68,91,0
2,note_on,68,0,180
2,note_on,62,0,0
2,note_on,59,0,0
2,note_on,65,0,0
2,note_on,65,80,0
2,note_on,56,68,0
2,note_on,59,68,0
2,note_on,62,68,0
2,note_on,62,0,57
2,note_on,65,0,0
2,note_on,56,0,0
2,note_on,59,0,0
2,note_on,62,73,3
2,note_on,56,73,0
2,note_on,59,73,0
2,note_on,65,88,0
2,note_on,65,0,43
2,note_on,62,0,0
2,note_on,56,0,0
2,note_on,59,0,0
2,note_on,53,68,60
2,note_on,56,68,0
2,note_on,59,68,0
2,note_on,62,80,0
2,note_on,62,0,60
2,note_on,53,0,0
2,note_on,56,0,0
2,note_on,59,0,0
2,note_on,48,79,60
2,note_on,36,66,0
2,note_on,36,0,149
2,note_on,48,0,0
2,note_on,51,71,0
2,note_on,39,59,0
2,note_on,39,0,57
2,note_on,51,0,0
2,note_on,51,77,3
2,note_on,39,66,0
2,note_on,39,0,180
2,note_on,51,0,0
2,note_on,42,59,0
2,note_on,54,71,0
2,note_on,54,0,57
2,note_on,42,0,0
2,note_on,42,66,3
2,note_on,54,77,0
2,note_on,54,0,180
2,note_on,42,0,0
2,note_on,57,68,0
2,note_on,45,57,0
2,note_on,45,0,57
2,note_on,57,0,0
2,note_on,45,61,3
2,note_on,57,74,0
2,note_on,57,0,43
2,note_on,45,0,0
2,note_on,48,57,60
2,note_on,60,68,0
2,note_on,60,0,60
2,note_on,48,0,0
2,note_on,49,79,60
2,note_on,37,66,0
2,note_on,37,0,149
2,note_on,49,0,0
2,note_on,54,71,0
2,note_on,42,59,0
2,note_on,42,0,57
2,note_on,54,0,0
2,note_on,54,77,3
2,note_on,42,66,0
2,note_on,42,0,180
2,note_on,54,0,0
2,note_on,45,59,0
2,note_on,57,71,0
2,note_on,57,0,57
2,note_on,45,0,0
2,note_on,45,66,3
2,note_on,57,77,0
2,note_on,57,0,180
2,note_on,45,0,0
2,note_on,61,68,0
2,note_on,49,57,0
2,note_on,49,0,57
2,note_on,61,0,0
2,note_on,49,61,3
2,note_on,61,74,0
2,note_on,61,0,43
2,note_on,49,0,0
2,note_on,54,68,60
2,note_on,54,0,60
2,note_on,48,79,60
2,note_on,36,66,0
2,note_on,36,0,149
2,note_on,48,0,0
2,note_on,51,71,0
2,note_on,39,59,0
2,note_on,39,0,57
2,note_on,51,0,0
2,note_on,51,77,3
2,note_on,39,66,0
2,note_on,39,0,180
2,note_on,51,0,0
2,note_on,42,59,0
2,note_on,54,71,0
2,note_on,54,0,57
2,note_on,42,0,0
2,note_on,42,66,3
2,note_on,54,77,0
2,note_on,54,0,180
2,note_on,42,0,0
2,note_on,57,68,0
2,note_on,45,57,0
2,note_on,45,0,57
2,note_on,57,0,0
2,note_on,45,61,3
2,note_on,57,74,0
2,note_on,57,0,43
2,note_on,45,0,0
2,note_on,48,57,60
2,note_on,60,68,0
2,note_on,60,0,60
2,note_on,48,0,0
2,note_on,44,82,60
2,note_on,32,69,0
2,note_on,32,0,149
2,note_on,44,0,0
2,note_on,48,74,0
2,note_on,36,61,0
2,note_on,36,0,57
2,note_on,48,0,0
2,note_on,48,79,3
2,note_on,36,68,0
2,note_on,36,0,180
2,note_on,48,0,0
2,note_on,39,60,0
2,note_on,51,72,0
2,note_on,51,0,57
2,note_on,39,0,3
2,note_on,39,67,0
2,note_on,51,79,0
2,note_on,51,0,180
2,note_on,39,0,0
2,note_on,56,69,0
2,note_on,44,58,0
2,note_on,44,0,57
2,note_on,56,0,0
2,note_on,44,62,3
2,note_on,56,75,0
2,note_on,56,0,43
2,note_on,44,0,0
2,note_on,48,61,60
2,note_on,60,68,0
2,note_on,60,0,60
2,note_on,48,0,0
2,note_on,49,62,60
2,note_on,61,75,0
2,note_on,61,0,113
2,note_on,49,0,0
2,note_on,44,75,0
2,note_on,44,0,60
2,note_on,49,66,0
2,note_on,49,0,60
2,note_on,41,75,0
2,note_on,41,0,60
2,note_on,49,66,0
2,note_on,49,0,60
2,note_on,37,74,0
2,note_on,37,0,60
2,note_on,49,67,0
2,note_on,49,0,60
2,note_on,48,75,0
2,note_on,48,0,60
2,note_on,49,64,0
2,note_on,49,0,60
2,note_on,44,72,0
2,note_on,44,0,60
2,note_on,49,62,0
2,note_on,49,0,60
2,note_on,41,69,0
2,note_on,41,0,60
2,note_on,49,59,0
2,note_on,49,0,60
2,note_on,37,66,0
2,note_on,37,0,60
2,note_on,49,56,0
2,note_on,49,0,60
2,note_on,48,62,0
2,note_on,48,0,50
2,note_on,49,55,0
2,note_on,49,0,60
2,note_on,44,60,0
2,note_on,44,0,60
2,note_on,49,51,0
2,note_on,49,0,60
2,note_on,41,56,0
2,note_on,41,0,60
2,note_on,49,47,0
2,note_on,49,0,60
2,note_on,37,52,0
2,note_on,37,0,60
2,note_on,49,45,0
2,note_on,49,0,60
2,note_on,48,50,0
2,note_on,48,0,60
2,note_on,49,42,0
2,note_on,49,0,60
2,note_on,44,47,0
2,note_on,44,0,60
2,note_on,49,40,0
2,note_on,49,0,60
2,note_on,41,44,0
2,note_on,41,0,60
2,note_on,49,37,0
2,note_on,49,0,60
2,note_on,37,40,0
2,note_on,37,0,60
2,note_on,49,34,0
2,note_on,49,0,60
2,note_on,48,33,0
2,note_on,48,0,30
2,note_on,49,29,0
2,note_on,49,0,60
2,note_on,44,33,0
2,note_on,44,0,60
2,note_on,49,29,0
2,note_on,49,0,60
2,note_on,41,33,0
2,note_on,41,0,60
2,note_on,49,29,0
2,note_on,49,0,60
2,note_on,37,33,0
2,note_on,37,0,60
2,note_on,49,29,0
2,note_on,49,0,60
2,note_on,48,33,0
2,note_on,48,0,60
2,note_on,49,29,0
2,note_on,49,0,60
2,note_on,44,33,0
2,note_on,44,0,60
2,note_on,49,29,0
2,note_on,49,0,60
2,note_on,41,33,0
2,note_on,41,0,60
2,note_on,49,29,0
2,note_on,49,0,60
2,note_on,37,33,0
2,note_on,37,0,60
2,note_on,49,29,0
2,note_on,49,0,60
2,note_on,48,33,0
2,note_on,48,0,26
2,note_on,49,29,0
2,note_on,49,0,60
2,note_on,44,33,0
2,note_on,44,0,60
2,note_on,49,29,0
2,note_on,49,0,60
2,note_on,41,33,0
2,note_on,41,0,60
2,note_on,49,29,0
2,note_on,49,0,60
2,note_on,37,33,0
2,note_on,37,0,60
2,note_on,49,29,0
2,note_on,49,0,60
2,note_on,48,33,0
2,note_on,48,0,60
2,note_on,49,28,0
2,note_on,49,0,60
2,note_on,44,29,0
2,note_on,44,0,60
2,note_on,49,26,0
2,note_on,49,0,60
2,note_on,41,27,0
2,note_on,41,0,60
2,note_on,49,23,0
2,note_on,49,0,60
2,note_on,37,25,0
2,note_on,37,0,60
2,note_on,49,20,0
2,note_on,49,0,60
2,note_on,47,39,0
2,note_on,47,0,29
2,note_on,50,32,0
2,note_on,50,0,60
2,note_on,44,36,0
2,note_on,44,0,60
2,note_on,50,30,0
2,note_on,50,0,60
2,note_on,42,34,0
2,note_on,42,0,60
2,note_on,50,27,0
2,note_on,50,0,60
2,note_on,41,32,0
2,note_on,41,0,60
2,note_on,50,26,0
2,note_on,50,0,60
2,note_on,47,39,0
2,note_on,47,0,29
2,note_on,50,33,0
2,note_on,50,0,60
2,note_on,44,36,0
2,note_on,44,0,60
2,note_on,50,30,0
2,note_on,50,0,60
2,note_on,42,34,0
2,note_on,42,0,60
2,note_on,50,28,0
2,note_on,50,0,60
2,note_on,41,32,0
2,note_on,41,0,60
2,note_on,50,26,0
2,note_on,50,0,60
2,note_on,47,33,0
2,note_on,47,0,23
2,note_on,50,28,0
2,note_on,50,0,60
2,note_on,44,32,0
2,note_on,44,0,60
2,note_on,50,27,0
2,note_on,50,0,60
2,note_on,42,31,0
2,note_on,42,0,60
2,note_on,50,26,0
2,note_on,50,0,60
2,note_on,41,31,0
2,note_on,41,0,60
2,note_on,50,26,0
2,note_on,50,0,60
2,note_on,47,30,0
2,note_on,47,0,60
2,note_on,50,26,0
2,note_on,50,0,60
2,note_on,44,30,0
2,note_on,44,0,60
2,note_on,50,26,0
2,note_on,50,0,60
2,note_on,42,30,0
2,note_on,42,0,60
2,note_on,50,25,0
2,note_on,50,0,60
2,note_on,40,31,0
2,note_on,40,0,60
2,note_on,49,26,0
2,note_on,49,0,60
2,note_on,39,32,0
2,note_on,39,0,30
2,note_on,48,28,0
2,note_on,48,0,60
2,note_on,42,32,0
2,note_on,42,0,60
2,note_on,48,27,0
2,note_on,48,0,60
2,note_on,44,33,0
2,note_on,44,0,60
2,note_on,48,26,0
2,note_on,48,0,60
2,note_on,36,31,0
2,note_on,36,0,60
2,note_on,48,26,0
2,note_on,48,0,60
2,note_on,39,30,0
2,note_on,39,0,60
2,note_on,48,26,0
2,note_on,48,0,60
2,note_on,42,30,0
2,note_on,42,0,60
2,note_on,48,26,0
2,note_on,48,0,60
2,note_on,44,35,0
2,note_on,44,0,60
2,note_on,48,25,0
2,note_on,48,0,60
2,note_on,36,31,0
2,note_on,36,0,60
2,note_on,48,26,0
2,note_on,48,0,60
2,note_on,39,30,0
2,note_on,39,0,14
2,note_on,48,26,0
2,note_on,48,0,60
2,note_on,42,30,0
2,note_on,42,0,60
2,note_on,48,26,0
2,note_on,48,0,60
2,note_on,44,34,0
2,note_on,44,0,60
2,note_on,48,25,0
2,note_on,48,0,60
2,note_on,36,31,0
2,note_on,36,0,60
2,note_on,48,26,0
2,note_on,48,0,60
2,note_on,39,30,0
2,note_on,39,0,60
2,note_on,48,26,0
2,note_on,48,0,60
2,note_on,42,30,0
2,note_on,42,0,60
2,note_on,48,26,0
2,note_on,48,0,60
2,note_on,44,33,0
2,note_on,44,0,60
2,note_on,48,25,0
2,note_on,48,0,60
2,note_on,36,31,0
2,note_on,36,0,60
2,note_on,48,26,0
2,note_on,48,0,60
2,note_on,37,30,0
2,note_on,37,0,29
2,note_on,49,26,0
2,note_on,49,0,60
2,note_on,41,31,0
2,note_on,41,0,60
2,note_on,49,29,0
2,note_on,49,0,60
2,note_on,44,34,0
2,note_on,44,0,60
2,note_on,49,29,0
2,note_on,49,0,60
2,note_on,48,37,0
2,note_on,48,0,60
2,note_on,49,32,0
2,note_on,49,0,60
2,note_on,37,30,0
2,note_on,37,0,60
2,note_on,49,26,0
2,note_on,49,0,60
2,note_on,41,31,0
2,note_on,41,0,60
2,note_on,49,28,0
2,note_on,49,0,60
2,note_on,44,34,0
2,note_on,44,0,60
2,note_on,49,29,0
2,note_on,49,0,60
2,note_on,48,37,0
2,note_on,48,0,60
2,note_on,49,33,0
2,note_on,49,0,60
2,note_on,46,30,0
2,note_on,46,0,30
2,note_on,58,26,0
2,note_on,58,0,60
2,note_on,49,30,0
2,note_on,49,0,60
2,note_on,58,26,0
2,note_on,58,0,60
2,note_on,54,31,0
2,note_on,54,0,60
2,note_on,58,26,0
2,note_on,58,0,60
2,note_on,57,33,0
2,note_on,57,0,60
2,note_on,58,28,0
2,note_on,58,0,60
2,note_on,46,32,0
2,note_on,46,0,60
2,note_on,58,26,0
2,note_on,58,0,60
2,note_on,49,30,0
2,note_on,49,0,60
2,note_on,58,27,0
2,note_on,58,0,60
2,note_on,54,31,0
2,note_on,54,0,60
2,note_on,58,26,0
2,note_on,58,0,60
2,note_on,57,33,0
2,note_on,57,0,60
2,note_on,58,28,0
2,note_on,58,0,60
2,note_on,44,30,0
2,note_on,44,0,20
2,note_on,56,26,0
2,note_on,56,0,60
2,note_on,49,31,0
2,note_on,49,0,60
2,note_on,56,27,0
2,note_on,56,0,60
2,note_on,53,32,0
2,note_on,53,0,60
2,note_on,56,27,0
2,note_on,56,0,60
2,note_on,55,34,0
2,note_on,55,0,60
2,note_on,56,29,0
2,note_on,56,0,60
2,note_on,44,30,0
2,note_on,44,0,60
2,note_on,56,26,0
2,note_on,56,0,60
2,note_on,49,31,0
2,note_on,49,0,60
2,note_on,56,27,0
2,note_on,56,0,60
2,note_on,53,32,0
2,note_on,53,0,60
2,note_on,56,27,0
2,note_on,56,0,60
2,note_on,55,34,0
2,note_on,55,0,60
2,note_on,56,29,0
2,note_on,56,0,60
2,note_on,44,30,0
2,note_on,44,0,31
2,note_on,56,26,0
2,note_on,56,0,60
2,note_on,51,30,0
2,note_on,51,0,60
2,note_on,56,27,0
2,note_on,56,0,60
2,note_on,54,31,0
2,note_on,54,0,60
2,note_on,56,26,0
2,note_on,56,0,60
2,note_on,55,33,0
2,note_on,55,0,60
2,note_on,56,28,0
2,note_on,56,0,60
2,note_on,44,30,0
2,note_on,44,0,60
2,note_on,56,26,0
2,note_on,56,0,60
2,note_on,51,30,0
2,note_on,51,0,60
2,note_on,56,27,0
2,note_on,56,0,60
2,note_on,54,31,0
2,note_on,54,0,60
2,note_on,56,26,0
2,note_on,56,0,60
2,note_on,55,33,0
2,note_on,55,0,60
2,note_on,56,28,0
2,note_on,56,0,60
2,note_on,48,37,0
2,note_on,48,0,30
2,note_on,49,32,0
2,note_on,49,0,60
2,note_on,44,35,0
2,note_on,44,0,60
2,note_on,49,30,0
2,note_on,49,0,60
2,note_on,41,33,0
2,note_on,41,0,60
2,note_on,49,29,0
2,note_on,49,0,60
2,note_on,37,30,0
2,note_on,37,0,60
2,note_on,49,26,0
2,note_on,49,0,60
2,note_on,48,36,0
2,note_on,48,0,60
2,note_on,49,32,0
2,note_on,49,0,60
2,note_on,44,35,0
2,note_on,44,0,60
2,note_on,49,30,0
2,note_on,49,0,60
2,note_on,41,33,0
2,note_on,41,0,60
2,note_on,49,29,0
2,note_on,49,0,60
2,note_on,37,30,0
2,note_on,37,0,60
2,note_on,49,26,0
2,note_on,49,0,60
2,note_on,48,31,0
2,note_on,48,0,50
2,note_on,49,28,0
2,note_on,49,0,60
2,note_on,44,31,0
2,note_on,44,0,60
2,note_on,49,27,0
2,note_on,49,0,60
2,note_on,41,30,0
2,note_on,41,0,60
2,note_on,49,27,0
2,note_on,49,0,60
2,note_on,37,29,0
2,note_on,37,0,60
2,note_on,49,26,0
2,note_on,49,0,60
2,note_on,48,31,0
2,note_on,48,0,60
2,note_on,49,28,0
2,note_on,49,0,60
2,note_on,44,31,0
2,note_on,44,0,60
2,note_on,49,27,0
2,note_on,49,0,60
2,note_on,41,30,0
2,note_on,41,0,60
2,note_on,49,27,0
2,note_on,49,0,60
2,note_on,37,29,0
2,note_on,37,0,60
2,note_on,49,26,0
2,note_on,49,0,60
2,note_on,48,29,0
2,note_on,48,0,30
2,note_on,49,28,0
2,note_on,49,0,60
2,note_on,44,31,0
2,note_on,44,0,60
2,note_on,49,27,0
2,note_on,49,0,60
2,note_on,41,30,0
2,note_on,41,0,60
2,note_on,49,27,0
2,note_on,49,0,60
2,note_on,37,29,0
2,note_on,37,0,60
2,note_on,49,26,0
2,note_on,49,0,60
2,note_on,48,31,0
2,note_on,48,0,60
2,note_on,49,28,0
2,note_on,49,0,60
2,note_on,44,31,0
2,note_on,44,0,60
2,note_on,49,27,0
2,note_on,49,0,60
2,note_on,41,30,0
2,note_on,41,0,60
2,note_on,49,27,0
2,note_on,49,0,60
2,note_on,37,29,0
2,note_on,37,0,60
2,note_on,49,26,0
2,note_on,49,0,60
2,note_on,48,29,0
2,note_on,48,0,26
2,note_on,49,26,0
2,note_on,49,0,60
2,note_on,44,29,0
2,note_on,44,0,60
2,note_on,49,26,0
2,note_on,49,0,60
2,note_on,41,29,0
2,note_on,41,0,60
2,note_on,49,26,0
2,note_on,49,0,60
2,note_on,37,29,0
2,note_on,37,0,60
2,note_on,49,26,0
2,note_on,49,0,60
2,note_on,48,29,0
2,note_on,48,0,60
2,note_on,49,25,0
2,note_on,49,0,60
2,note_on,44,26,0
2,note_on,44,0,60
2,note_on,49,23,0
2,note_on,49,0,60
2,note_on,41,24,0
2,note_on,41,0,60
2,note_on,49,19,0
2,note_on,49,0,60
2,note_on,37,22,0
2,note_on,37,0,60
2,note_on,49,18,0
2,note_on,49,0,60
2,note_on,47,39,0
2,note_on,47,0,29
2,note_on,50,32,0
2,note_on,50,0,60
2,note_on,44,36,0
2,note_on,44,0,60
2,note_on,50,30,0
2,note_on,50,0,60
2,note_on,42,33,0
2,note_on,42,0,60
2,note_on,50,27,0
2,note_on,50,0,60
2,note_on,41,32,0
2,note_on,41,0,60
2,note_on,50,26,0
2,note_on,50,0,60
2,note_on,47,39,0
2,note_on,47,0,29
2,note_on,50,32,0
2,note_on,50,0,60
2,note_on,44,36,0
2,note_on,44,0,60
2,note_on,50,30,0
2,note_on,50,0,60
2,note_on,42,34,0
2,note_on,42,0,60
2,note_on,50,28,0
2,note_on,50,0,60
2,note_on,41,32,0
2,note_on,41,0,60
2,note_on,50,26,0
2,note_on,50,0,60
2,note_on,47,33,0
2,note_on,47,0,23
2,note_on,50,28,0
2,note_on,50,0,60
2,note_on,44,32,0
2,note_on,44,0,60
2,note_on,50,27,0
2,note_on,50,0,60
2,note_on,42,31,0
2,note_on,42,0,60
2,note_on,50,26,0
2,note_on,50,0,60
2,note_on,41,31,0
2,note_on,41,0,60
2,note_on,50,26,0
2,note_on,50,0,60
2,note_on,47,33,0
2,note_on,47,0,60
2,note_on,50,28,0
2,note_on,50,0,60
2,note_on,44,32,0
2,note_on,44,0,60
2,note_on,50,27,0
2,note_on,50,0,60
2,note_on,42,31,0
2,note_on,42,0,60
2,note_on,50,26,0
2,note_on,50,0,60
2,note_on,41,31,0
2,note_on,41,0,60
2,note_on,50,26,0
2,note_on,50,0,60
2,note_on,42,30,0
2,note_on,42,0,30
2,note_on,51,26,0
2,note_on,51,0,60
2,note_on,45,31,0
2,note_on,45,0,60
2,note_on,51,26,0
2,note_on,51,0,60
2,note_on,47,34,0
2,note_on,47,0,60
2,note_on,51,25,0
2,note_on,51,0,60
2,note_on,39,31,0
2,note_on,39,0,60
2,note_on,51,26,0
2,note_on,51,0,60
2,note_on,42,30,0
2,note_on,42,0,60
2,note_on,51,26,0
2,note_on,51,0,60
2,note_on,45,31,0
2,note_on,45,0,60
2,note_on,51,26,0
2,note_on,51,0,60
2,note_on,47,35,0
2,note_on,47,0,60
2,note_on,51,25,0
2,note_on,51,0,60
2,note_on,39,31,0
2,note_on,39,0,60
2,note_on,51,26,0
2,note_on,51,0,60
2,note_on,42,30,0
2,note_on,42,0,30
2,note_on,51,26,0
2,note_on,51,0,60
2,note_on,45,32,0
2,note_on,45,0,60
2,note_on,51,26,0
2,note_on,51,0,60
2,note_on,47,35,0
2,note_on,47,0,60
2,note_on,51,25,0
2,note_on,51,0,60
2,note_on,39,31,0
2,note_on,39,0,60
2,note_on,51,26,0
2,note_on,51,0,60
2,note_on,42,30,0
2,note_on,42,0,60
2,note_on,51,26,0
2,note_on,51,0,60
2,note_on,45,33,0
2,note_on,45,0,60
2,note_on,51,26,0
2,note_on,51,0,60
2,note_on,47,35,0
2,note_on,47,0,60
2,note_on,51,25,0
2,note_on,51,0,60
2,note_on,39,31,0
2,note_on,39,0,60
2,note_on,51,26,0
2,note_on,51,0,60
2,note_on,40,30,0
2,note_on,40,0,29
2,note_on,52,26,0
2,note_on,52,0,60
2,note_on,44,32,0
2,note_on,44,0,60
2,note_on,52,30,0
2,note_on,52,0,60
2,note_on,47,36,0
2,note_on,47,0,60
2,note_on,52,31,0
2,note_on,52,0,60
2,note_on,51,40,0
2,note_on,51,0,60
2,note_on,52,35,0
2,note_on,52,0,60
2,note_on,40,30,0
2,note_on,40,0,60
2,note_on,52,26,0
2,note_on,52,0,60
2,note_on,44,32,0
2,note_on,44,0,60
2,note_on,52,29,0
2,note_on,52,0,60
2,note_on,47,36,0
2,note_on,47,0,60
2,note_on,52,31,0
2,note_on,52,0,60
2,note_on,51,40,0
2,note_on,51,0,60
2,note_on,52,35,0
2,note_on,52,0,60
2,note_on,49,30,0
2,note_on,49,0,30
2,note_on,61,26,0
2,note_on,61,0,60
2,note_on,52,31,0
2,note_on,52,0,60
2,note_on,61,27,0
2,note_on,61,0,60
2,note_on,57,33,0
2,note_on,57,0,60
2,note_on,61,28,0
2,note_on,61,0,60
2,note_on,60,35,0
2,note_on,60,0,60
2,note_on,61,30,0
2,note_on,61,0,60
2,note_on,49,35,0
2,note_on,49,0,60
2,note_on,61,26,0
2,note_on,61,0,60
2,note_on,52,31,0
2,note_on,52,0,60
2,note_on,61,27,0
2,note_on,61,0,60
2,note_on,57,33,0
2,note_on,57,0,60
2,note_on,61,28,0
2,note_on,61,0,60
2,note_on,60,35,0
2,note_on,60,0,60
2,note_on,61,30,0
2,note_on,61,0,60
2,note_on,47,30,0
2,note_on,47,0,20
2,note_on,59,26,0
2,note_on,59,0,60
2,note_on,52,31,0
2,note_on,52,0,60
2,note_on,59,27,0
2,note_on,59,0,60
2,note_on,56,32,0
2,note_on,56,0,60
2,note_on,59,28,0
2,note_on,59,0,60
2,note_on,58,35,0
2,note_on,58,0,60
2,note_on,59,30,0
2,note_on,59,0,60
2,note_on,47,30,0
2,note_on,47,0,60
2,note_on,59,26,0
2,note_on,59,0,60
2,note_on,52,31,0
2,note_on,52,0,60
2,note_on,59,28,0
2,note_on,59,0,60
2,note_on,56,33,0
2,note_on,56,0,60
2,note_on,59,28,0
2,note_on,59,0,60
2,note_on,58,35,0
2,note_on,58,0,60
2,note_on,59,30,0
2,note_on,59,0,60
2,note_on,47,30,0
2,note_on,47,0,31
2,note_on,59,26,0
2,note_on,59,0,60
2,note_on,54,31,0
2,note_on,54,0,60
2,note_on,59,27,0
2,note_on,59,0,60
2,note_on,57,33,0
2,note_on,57,0,60
2,note_on,59,28,0
2,note_on,59,0,60
2,note_on,58,35,0
2,note_on,58,0,60
2,note_on,59,30,0
2,note_on,59,0,60
2,note_on,47,30,0
2,note_on,47,0,60
2,note_on,59,26,0
2,note_on,59,0,60
2,note_on,54,31,0
2,note_on,54,0,60
2,note_on,59,28,0
2,note_on,59,0,60
2,note_on,57,33,0
2,note_on,57,0,60
2,note_on,59,28,0
2,note_on,59,0,60
2,note_on,58,35,0
2,note_on,58,0,60
2,note_on,59,30,0
2,note_on,59,0,60
2,note_on,63,43,0
2,note_on,63,0,29
2,note_on,64,35,0
2,note_on,64,0,60
2,note_on,59,39,0
2,note_on,59,0,60
2,note_on,64,32,0
2,note_on,64,0,60
2,note_on,56,36,0
2,note_on,56,0,60
2,note_on,64,27,0
2,note_on,64,0,60
2,note_on,52,33,0
2,note_on,52,0,60
2,note_on,64,26,0
2,note_on,64,0,60
2,note_on,63,42,0
2,note_on,63,0,60
2,note_on,64,34,0
2,note_on,64,0,60
2,note_on,59,38,0
2,note_on,59,0,60
2,note_on,64,32,0
2,note_on,64,0,60
2,note_on,56,35,0
2,note_on,56,0,60
2,note_on,64,27,0
2,note_on,64,0,60
2,note_on,52,33,0
2,note_on,52,0,60
2,note_on,64,26,0
2,note_on,64,0,60
2,note_on,63,36,0
2,note_on,63,0,30
2,note_on,64,30,0
2,note_on,64,0,60
2,note_on,59,34,0
2,note_on,59,0,60
2,note_on,64,28,0
2,note_on,64,0,60
2,note_on,56,32,0
2,note_on,56,0,60
2,note_on,64,27,0
2,note_on,64,0,60
2,note_on,52,31,0
2,note_on,52,0,60
2,note_on,64,26,0
2,note_on,64,0,60
2,note_on,63,33,0
2,note_on,63,0,60
2,note_on,64,28,0
2,note_on,64,0,60
2,note_on,59,32,0
2,note_on,59,0,60
2,note_on,64,27,0
2,note_on,64,0,60
2,note_on,56,31,0
2,note_on,56,0,60
2,note_on,64,26,0
2,note_on,64,0,60
2,note_on,52,31,0
2,note_on,52,0,60
2,note_on,64,26,0
2,note_on,64,0,60
2,note_on,63,33,0
2,note_on,63,0,20
2,note_on,64,28,0
2,note_on,64,0,60
2,note_on,60,32,0
2,note_on,60,0,60
2,note_on,64,27,0
2,note_on,64,0,60
2,note_on,57,31,0
2,note_on,57,0,60
2,note_on,64,26,0
2,note_on,64,0,60
2,note_on,52,31,0
2,note_on,52,0,60
2,note_on,64,26,0
2,note_on,64,0,60
2,note_on,63,33,0
2,note_on,63,0,60
2,note_on,64,28,0
2,note_on,64,0,60
2,note_on,60,32,0
2,note_on,60,0,60
2,note_on,64,27,0
2,note_on,64,0,60
2,note_on,57,31,0
2,note_on,57,0,60
2,note_on,64,26,0
2,note_on,64,0,60
2,note_on,52,31,0
2,note_on,52,0,60
2,note_on,64,26,0
2,note_on,64,0,60
2,note_on,63,33,0
2,note_on,63,0,31
2,note_on,64,28,0
2,note_on,64,0,60
2,note_on,60,32,0
2,note_on,60,0,60
2,note_on,64,27,0
2,note_on,64,0,60
2,note_on,57,31,0
2,note_on,57,0,60
2,note_on,64,26,0
2,note_on,64,0,60
2,note_on,52,31,0
2,note_on,52,0,60
2,note_on,64,26,0
2,note_on,64,0,60
2,note_on,63,33,0
2,note_on,63,0,60
2,note_on,64,28,0
2,note_on,64,0,60
2,note_on,60,32,0
2,note_on,60,0,60
2,note_on,64,27,0
2,note_on,64,0,60
2,note_on,57,31,0
2,note_on,57,0,60
2,note_on,64,26,0
2,note_on,64,0,60
2,note_on,52,31,0
2,note_on,52,0,60
2,note_on,64,26,0
2,note_on,64,0,60
2,note_on,51,34,0
2,note_on,51,0,29
2,note_on,52,29,0
2,note_on,52,0,60
2,note_on,47,33,0
2,note_on,47,0,60
2,note_on,52,26,0
2,note_on,52,0,60
2,note_on,44,30,0
2,note_on,44,0,60
2,note_on,52,23,0
2,note_on,52,0,60
2,note_on,40,29,0
2,note_on,40,0,60
2,note_on,52,23,0
2,note_on,52,0,60
2,note_on,51,34,0
2,note_on,51,0,60
2,note_on,52,29,0
2,note_on,52,0,60
2,note_on,47,33,0
2,note_on,47,0,60
2,note_on,52,26,0
2,note_on,52,0,60
2,note_on,44,30,0
2,note_on,44,0,60
2,note_on,52,23,0
2,note_on,52,0,60
2,note_on,40,29,0
2,note_on,40,0,60
2,note_on,52,23,0
2,note_on,52,0,60
2,note_on,51,31,0
2,note_on,51,0,30
2,note_on,52,27,0
2,note_on,52,0,60
2,note_on,47,31,0
2,note_on,47,0,60
2,note_on,52,25,0
2,note_on,52,0,60
2,note_on,44,29,0
2,note_on,44,0,60
2,note_on,52,22,0
2,note_on,52,0,60
2,note_on,40,28,0
2,note_on,40,0,60
2,note_on,52,23,0
2,note_on,52,0,60
2,note_on,51,29,0
2,note_on,51,0,60
2,note_on,52,25,0
2,note_on,52,0,60
2,note_on,47,29,0
2,note_on,47,0,60
2,note_on,52,24,0
2,note_on,52,0,60
2,note_on,44,28,0
2,note_on,44,0,60
2,note_on,52,22,0
2,note_on,52,0,60
2,note_on,40,28,0
2,note_on,40,0,60
2,note_on,52,23,0
2,note_on,52,0,60
2,note_on,51,29,0
2,note_on,51,0,20
2,note_on,52,25,0
2,note_on,52,0,60
2,note_on,48,29,0
2,note_on,48,0,60
2,note_on,52,24,0
2,note_on,52,0,60
2,note_on,45,28,0
2,note_on,45,0,60
2,note_on,52,22,0
2,note_on,52,0,60
2,note_on,40,28,0
2,note_on,40,0,60
2,note_on,52,23,0
2,note_on,52,0,60
2,note_on,51,29,0
2,note_on,51,0,60
2,note_on,52,25,0
2,note_on,52,0,60
2,note_on,48,29,0
2,note_on,48,0,60
2,note_on,52,24,0
2,note_on,52,0,60
2,note_on,45,28,0
2,note_on,45,0,60
2,note_on,52,22,0
2,note_on,52,0,60
2,note_on,40,28,0
2,note_on,40,0,60
2,note_on,52,23,0
2,note_on,52,0,60
2,note_on,51,29,0
2,note_on,51,0,31
2,note_on,52,25,0
2,note_on,52,0,60
2,note_on,48,29,0
2,note_on,48,0,60
2,note_on,52,24,0
2,note_on,52,0,60
2,note_on,45,28,0
2,note_on,45,0,60
2,note_on,52,22,0
2,note_on,52,0,60
2,note_on,40,28,0
2,note_on,40,0,60
2,note_on,52,23,0
2,note_on,52,0,60
2,note_on,51,29,0
2,note_on,51,0,60
2,note_on,52,25,0
2,note_on,52,0,60
2,note_on,48,29,0
2,note_on,48,0,60
2,note_on,52,24,0
2,note_on,52,0,60
2,note_on,45,28,0
2,note_on,45,0,60
2,note_on,52,22,0
2,note_on,52,0,60
2,note_on,40,28,0
2,note_on,40,0,60
2,note_on,52,23,0
2,note_on,52,0,60
2,note_on,51,34,0
2,note_on,51,0,29
2,note_on,52,29,0
2,note_on,52,0,60
2,note_on,47,33,0
2,note_on,47,0,60
2,note_on,52,26,0
2,note_on,52,0,60
2,note_on,44,30,0
2,note_on,44,0,60
2,note_on,52,23,0
2,note_on,52,0,60
2,note_on,40,29,0
2,note_on,40,0,60
2,note_on,52,23,0
2,note_on,52,0,60
2,note_on,51,34,0
2,note_on,51,0,60
2,note_on,52,29,0
2,note_on,52,0,60
2,note_on,47,33,0
2,note_on,47,0,60
2,note_on,52,26,0
2,note_on,52,0,60
2,note_on,44,30,0
2,note_on,44,0,60
2,note_on,52,23,0
2,note_on,52,0,60
2,note_on,40,29,0
2,note_on,40,0,60
2,note_on,52,23,0
2,note_on,52,0,60
2,note_on,51,29,0
2,note_on,51,0,30
2,note_on,52,25,0
2,note_on,52,0,60
2,note_on,47,29,0
2,note_on,47,0,60
2,note_on,52,24,0
2,note_on,52,0,60
2,note_on,44,28,0
2,note_on,44,0,60
2,note_on,52,22,0
2,note_on,52,0,60
2,note_on,40,28,0
2,note_on,40,0,60
2,note_on,52,23,0
2,note_on,52,0,60
2,note_on,51,29,0
2,note_on,51,0,60
2,note_on,52,25,0
2,note_on,52,0,60
2,note_on,47,29,0
2,note_on,47,0,60
2,note_on,52,24,0
2,note_on,52,0,60
2,note_on,44,28,0
2,note_on,44,0,60
2,note_on,52,22,0
2,note_on,52,0,60
2,note_on,40,28,0
2,note_on,40,0,60
2,note_on,52,23,0
2,note_on,52,0,60
2,note_on,50,27,0
2,note_on,50,0,20
2,note_on,52,21,0
2,note_on,52,0,60
2,note_on,47,26,0
2,note_on,47,0,60
2,note_on,52,21,0
2,note_on,52,0,60
2,note_on,44,26,0
2,note_on,44,0,60
2,note_on,52,19,0
2,note_on,52,0,60
2,note_on,40,25,0
2,note_on,40,0,60
2,note_on,52,20,0
2,note_on,52,0,60
2,note_on,50,26,0
2,note_on,50,0,60
2,note_on,52,20,0
2,note_on,52,0,60
2,note_on,47,25,0
2,note_on,47,0,60
2,note_on,52,20,0
2,note_on,52,0,60
2,note_on,44,25,0
2,note_on,44,0,60
2,note_on,52,19,0
2,note_on,52,0,60
2,note_on,40,24,0
2,note_on,40,0,60
2,note_on,52,19,0
2,note_on,52,0,60
2,note_on,50,25,0
2,note_on,50,0,31
2,note_on,52,20,0
2,note_on,52,0,60
2,note_on,47,24,0
2,note_on,47,0,60
2,note_on,52,20,0
2,note_on,52,0,60
2,note_on,44,24,0
2,note_on,44,0,60
2,note_on,52,18,0
2,note_on,52,0,60
2,note_on,40,23,0
2,note_on,40,0,60
2,note_on,52,19,0
2,note_on,52,0,60
2,note_on,50,24,0
2,note_on,50,0,60
2,note_on,52,20,0
2,note_on,52,0,60
2,note_on,47,23,0
2,note_on,47,0,60
2,note_on,52,19,0
2,note_on,52,0,60
2,note_on,44,23,0
2,note_on,44,0,60
2,note_on,52,17,0
2,note_on,52,0,60
2,note_on,40,22,0
2,note_on,40,0,60
2,note_on,52,14,0
2,note_on,52,0,60
