Track,Message Type,Note,Velocity,Time
1,note_on,72,57,960
1,note_on,63,45,0
1,note_on,68,45,0
1,note_on,68,0,480
1,note_on,63,0,0
1,note_on,72,0,0
1,note_on,65,47,0
1,note_on,68,47,0
1,note_on,72,59,0
1,note_on,72,0,1440
1,note_on,70,56,0
1,note_on,70,0,480
1,note_on,68,0,0
1,note_on,65,0,0
1,note_on,77,63,480
1,note_on,67,50,0
1,note_on,70,50,0
1,note_on,70,0,480
1,note_on,67,0,0
1,note_on,77,0,0
1,note_on,77,65,0
1,note_on,72,52,0
1,note_on,68,52,0
1,note_on,77,0,1440
1,note_on,75,60,0
1,note_on,75,0,480
1,note_on,68,0,0
1,note_on,72,0,0
1,note_on,60,43,240
1,note_on,63,54,0
1,note_on,63,0,240
1,note_on,68,56,0
1,note_on,68,0,240
1,note_on,72,58,0
1,note_on,72,0,240
1,note_on,60,0,0
1,note_on,67,48,0
1,note_on,73,60,0
1,note_on,61,48,0
1,note_on,63,48,0
1,note_on,63,0,960
1,note_on,67,0,0
1,note_on,73,0,0
1,note_on,61,0,0
1,note_on,60,50,0
1,note_on,72,63,0
1,note_on,68,50,0
1,note_on,63,50,0
1,note_on,63,0,480
1,note_on,60,0,0
1,note_on,72,0,0
1,note_on,68,0,0
1,note_on,58,51,0
1,note_on,70,64,0
1,note_on,63,51,0
1,note_on,63,0,960
1,note_on,70,0,0
1,note_on,58,0,0
1,note_on,68,54,0
1,note_on,70,54,0
1,note_on,62,54,0
1,note_on,74,67,0
1,note_on,74,0,480
1,note_on,68,0,0
1,note_on,70,0,0
1,note_on,62,0,0
1,note_on,68,56,0
1,note_on,70,56,0
1,note_on,62,56,0
1,note_on,74,70,0
1,note_on,74,0,1440
1,note_on,62,0,0
1,note_on,68,0,0
1,note_on,75,51,0
1,note_on,67,40,0
1,note_on,63,40,0
1,note_on,63,0,480
1,note_on,70,0,0
1,note_on,75,0,0
1,note_on,67,0,0
1,note_on,72,53,480
1,note_on,68,42,0
1,note_on,63,42,0
1,note_on,63,0,480
1,note_on,68,0,0
1,note_on,72,0,0
1,note_on,72,58,0
1,note_on,68,46,0
1,note_on,65,46,0
1,note_on,72,0,1440
1,note_on,70,50,0
1,note_on,70,0,480
1,note_on,65,0,0
1,note_on,68,0,0
1,note_on,67,63,480
1,note_on,77,79,0
1,note_on,71,63,0
1,note_on,71,0,480
1,note_on,77,0,0
1,note_on,67,0,0
1,note_on,67,68,0
1,note_on,72,68,0
1,note_on,77,85,0
1,note_on,77,0,1440
1,note_on,76,51,0
1,note_on,76,0,480
1,note_on,72,0,0
1,note_on,67,0,0
1,note_on,67,41,480
1,note_on,72,46,0
1,note_on,76,52,0
1,note_on,76,0,480
1,note_on,72,0,0
1,note_on,67,0,0
1,note_on,75,57,0
1,note_on,73,45,0
1,note_on,67,45,0
1,note_on,67,0,960
1,note_on,73,0,0
1,note_on,75,0,0
1,note_on,68,47,0
1,note_on,72,47,0
1,note_on,75,59,0
1,note_on,75,0,480
1,note_on,72,0,0
1,note_on,68,0,0
1,note_on,73,64,0
1,note_on,70,51,0
1,note_on,65,51,0
1,note_on,65,0,960
1,note_on,70,0,0
1,note_on,73,0,0
1,note_on,67,42,0
1,note_on,72,53,0
1,note_on,61,47,0
1,note_on,72,0,240
1,note_on,70,51,0
1,note_on,70,0,240
1,note_on,61,0,0
1,note_on,67,0,0
1,note_on,61,34,0
1,note_on,67,34,0
1,note_on,70,44,0
1,note_on,70,0,1440
1,note_on,67,0,0
1,note_on,61,0,0
1,note_on,60,25,0
1,note_on,68,33,0
1,note_on,68,0,480
1,note_on,60,0,0
1,note_on,62,32,480
1,note_on,68,32,0
1,note_on,71,40,0
1,note_on,71,0,480
1,note_on,68,0,0
1,note_on,62,0,0
1,note_on,62,32,0
1,note_on,68,32,0
1,note_on,71,40,0
1,note_on,62,0,1440
1,note_on,63,28,0
1,note_on,63,0,480
1,note_on,71,0,0
1,note_on,68,0,0
1,note_on,64,36,480
1,note_on,68,36,0
1,note_on,71,45,0
1,note_on,71,0,480
1,note_on,68,0,0
1,note_on,64,0,0
1,note_on,64,39,0
1,note_on,68,39,0
1,note_on,71,49,0
1,note_on,64,0,1440
1,note_on,63,29,0
1,note_on,63,0,480
1,note_on,71,0,0
1,note_on,68,0,0
1,note_on,63,41,480
1,note_on,68,41,0
1,note_on,71,52,0
1,note_on,71,0,480
1,note_on,68,0,0
1,note_on,63,0,0
1,note_on,70,58,0
1,note_on,64,46,0
1,note_on,68,46,0
1,note_on,70,0,480
1,note_on,76,65,0
1,note_on,76,0,720
1,note_on,70,51,0
1,note_on,70,0,240
1,note_on,75,57,0
1,note_on,75,0,240
1,note_on,73,55,0
1,note_on,73,0,240
1,note_on,71,55,0
1,note_on,71,0,480
1,note_on,68,0,0
1,note_on,64,0,0
1,note_on,61,41,0
1,note_on,64,41,0
1,note_on,70,52,0
1,note_on,70,0,480
1,note_on,64,0,0
1,note_on,61,0,0
1,note_on,63,39,0
1,note_on,59,39,0
1,note_on,68,49,0
1,note_on,68,0,1440
1,note_on,59,0,0
1,note_on,58,27,0
1,note_on,67,35,0
1,note_on,67,0,480
1,note_on,58,0,0
1,note_on,63,0,0
1,note_on,62,28,480
1,note_on,68,28,0
1,note_on,71,36,0
1,note_on,71,0,480
1,note_on,68,0,0
1,note_on,62,0,0
1,note_on,62,28,0
1,note_on,68,28,0
1,note_on,71,36,0
1,note_on,62,0,1440
1,note_on,63,25,0
1,note_on,63,0,480
1,note_on,71,0,0
1,note_on,68,0,0
1,note_on,64,38,480
1,note_on,68,38,0
1,note_on,71,48,0
1,note_on,71,0,480
1,note_on,68,0,0
1,note_on,64,0,0
1,note_on,64,35,0
1,note_on,68,35,0
1,note_on,71,44,0
1,note_on,64,0,1440
1,note_on,63,30,0
1,note_on,63,0,480
1,note_on,71,0,0
1,note_on,68,0,0
1,note_on,64,40,480
1,note_on,68,40,0
1,note_on,71,50,0
1,note_on,71,0,480
1,note_on,68,0,0
1,note_on,64,0,0
1,note_on,71,56,0
1,note_on,64,45,0
1,note_on,68,45,0
1,note_on,71,0,480
1,note_on,76,70,0
1,note_on,76,0,720
1,note_on,71,60,0
1,note_on,71,0,120
1,note_on,71,55,0
1,note_on,71,0,120
1,note_on,68,0,0
1,note_on,75,73,0
1,note_on,75,0,240
1,note_on,73,70,0
1,note_on,73,0,240
1,note_on,71,67,0
1,note_on,71,0,480
1,note_on,68,65,0
1,note_on,68,0,480
1,note_on,64,0,0
1,note_on,65,62,0
1,note_on,61,49,0
1,note_on,65,0,480
1,note_on,73,70,0
1,note_on,73,0,720
1,note_on,65,58,0
1,note_on,65,0,240
1,note_on,61,0,0
1,note_on,61,56,0
1,note_on,66,56,0
1,note_on,73,70,0
1,note_on,73,0,240
1,note_on,69,70,0
1,note_on,69,0,240
1,note_on,66,0,0
1,note_on,61,0,0
1,note_on,64,56,0
1,note_on,68,70,0
1,note_on,68,0,480
1,note_on,64,0,0
1,note_on,63,54,0
1,note_on,66,67,0
1,note_on,66,0,480
1,note_on,63,0,0
1,note_on,56,53,0
1,note_on,59,53,0
1,note_on,64,66,0
1,note_on,64,0,960
1,note_on,59,0,0
1,note_on,56,0,0
1,note_on,64,51,0
1,note_on,64,0,160
1,note_on,68,55,0
1,note_on,68,0,160
1,note_on,71,59,0
1,note_on,71,0,160
1,note_on,70,69,0
1,note_on,67,55,0
1,note_on,64,55,0
1,note_on,61,55,0
1,note_on,61,0,960
1,note_on,70,0,0
1,note_on,67,0,0
1,note_on,64,0,0
1,note_on,71,57,0
1,note_on,68,45,0
1,note_on,64,45,0
1,note_on,59,45,0
1,note_on,59,0,240
1,note_on,71,0,0
1,note_on,68,0,0
1,note_on,64,0,0
1,note_on,66,44,0
1,note_on,66,0,120
1,note_on,68,44,0
1,note_on,68,0,120
1,note_on,60,44,0
1,note_on,69,49,0
1,note_on,63,49,0
1,note_on,69,0,720
1,note_on,60,0,0
1,note_on,59,42,0
1,note_on,68,47,0
1,note_on,68,0,240
1,note_on,59,0,0
1,note_on,57,39,0
1,note_on,66,44,0
1,note_on,66,0,480
1,note_on,57,0,0
1,note_on,63,0,0
1,note_on,56,32,0
1,note_on,64,41,0
1,note_on,64,0,960
1,note_on,56,0,0
1,note_on,64,51,0
1,note_on,64,0,160
1,note_on,68,55,0
1,note_on,68,0,160
1,note_on,71,59,0
1,note_on,71,0,160
1,note_on,70,69,0
1,note_on,67,62,0
1,note_on,64,55,0
1,note_on,61,55,0
1,note_on,61,0,960
1,note_on,70,0,0
1,note_on,67,0,0
1,note_on,64,0,0
1,note_on,71,51,0
1,note_on,68,40,0
1,note_on,64,40,0
1,note_on,59,40,0
1,note_on,59,0,240
1,note_on,71,0,0
1,note_on,68,0,0
1,note_on,64,0,0
1,note_on,66,43,0
1,note_on,66,0,120
1,note_on,68,43,0
1,note_on,68,0,120
1,note_on,60,41,0
1,note_on,69,46,0
1,note_on,63,41,0
1,note_on,69,0,720
1,note_on,60,0,0
1,note_on,59,36,0
1,note_on,68,41,0
1,note_on,68,0,240
1,note_on,59,0,0
1,note_on,57,37,0
1,note_on,66,37,0
1,note_on,66,0,480
1,note_on,57,0,0
1,note_on,63,0,0
1,note_on,56,31,0
1,note_on,64,35,0
1,note_on,64,0,960
1,note_on,56,0,0
1,note_on,68,43,0
1,note_on,68,0,480
1,note_on,64,39,0
1,note_on,68,49,0
1,note_on,68,0,960
1,note_on,64,0,0
1,note_on,64,35,0
1,note_on,68,44,0
1,note_on,68,0,480
1,note_on,64,0,0
1,note_on,64,50,0
1,note_on,68,50,0
1,note_on,64,0,720
1,note_on,63,45,0
1,note_on,63,0,240
1,note_on,68,0,0
1,note_on,62,42,0
1,note_on,68,42,0
1,note_on,68,0,480
1,note_on,62,0,0
1,note_on,63,35,0
1,note_on,68,44,0
1,note_on,68,0,1440
1,note_on,67,39,0
1,note_on,67,0,720
1,note_on,68,39,0
1,note_on,68,0,240
1,note_on,63,0,0
1,note_on,70,42,0
1,note_on,70,0,240
1,note_on,72,45,0
1,note_on,72,0,240
1,note_on,65,38,0
1,note_on,68,38,0
1,note_on,73,48,0
1,note_on,73,0,960
1,note_on,68,0,0
1,note_on,65,0,0
1,note_on,65,39,0
1,note_on,68,39,0
1,note_on,73,49,0
1,note_on,73,0,480
1,note_on,68,0,0
1,note_on,65,0,0
1,note_on,75,55,0
1,note_on,67,40,0
1,note_on,70,40,0
1,note_on,75,0,120
1,note_on,73,50,0
1,note_on,73,0,120
1,note_on,72,50,0
1,note_on,72,0,120
1,note_on,73,50,0
1,note_on,73,0,120
1,note_on,75,51,0
1,note_on,75,0,480
1,note_on,70,0,0
1,note_on,67,0,0
1,note_on,67,39,0
1,note_on,70,49,0
1,note_on,70,0,480
1,note_on,67,0,0
1,note_on,67,40,0
1,note_on,70,40,0
1,note_on,73,50,0
1,note_on,73,0,1440
1,note_on,70,0,0
1,note_on,67,0,0
1,note_on,68,36,0
1,note_on,72,45,0
1,note_on,72,0,480
1,note_on,68,0,0
1,note_on,68,64,480
1,note_on,72,64,0
1,note_on,77,80,0
1,note_on,77,0,480
1,note_on,72,0,0
1,note_on,68,0,0
1,note_on,68,64,0
1,note_on,72,64,0
1,note_on,77,80,0
1,note_on,77,0,960
1,note_on,72,0,0
1,note_on,68,0,0
1,note_on,68,64,0
1,note_on,72,64,0
1,note_on,77,80,0
1,note_on,77,0,480
1,note_on,72,0,0
1,note_on,68,0,0
1,note_on,80,86,0
1,note_on,68,69,0
1,note_on,72,69,0
1,note_on,80,0,720
1,note_on,67,64,0
1,note_on,79,80,0
1,note_on,79,0,240
1,note_on,68,0,0
1,note_on,72,0,0
1,note_on,67,0,0
1,note_on,77,75,0
1,note_on,72,60,0
1,note_on,68,60,0
1,note_on,65,60,0
1,note_on,65,0,480
1,note_on,77,0,0
1,note_on,72,0,0
1,note_on,68,0,0
1,note_on,77,80,0
1,note_on,73,64,0
1,note_on,70,64,0
1,note_on,67,64,0
1,note_on,77,0,2400
1,note_on,76,54,0
1,note_on,76,0,480
1,note_on,67,0,0
1,note_on,70,0,0
1,note_on,73,0,0
1,note_on,70,42,0
1,note_on,75,47,0
1,note_on,75,0,960
1,note_on,74,43,0
1,note_on,74,0,480
1,note_on,73,37,0
1,note_on,73,0,960
1,note_on,70,0,0
1,note_on,63,36,0
1,note_on,68,36,0
1,note_on,72,45,0
1,note_on,72,0,480
1,note_on,68,0,0
1,note_on,63,0,0
1,note_on,65,37,0
1,note_on,68,37,0
1,note_on,72,47,0
1,note_on,72,0,1440
1,note_on,70,44,0
1,note_on,70,0,480
1,note_on,68,0,0
1,note_on,65,0,0
1,note_on,77,50,480
1,note_on,70,40,0
1,note_on,67,40,0
1,note_on,67,0,480
1,note_on,70,0,0
1,note_on,77,0,0
1,note_on,68,41,0
1,note_on,72,41,0
1,note_on,77,52,0
1,note_on,77,0,1440
1,note_on,75,48,0
1,note_on,75,0,480
1,note_on,72,0,0
1,note_on,68,0,0
1,note_on,60,38,240
1,note_on,63,48,0
1,note_on,63,0,240
1,note_on,68,50,0
1,note_on,68,0,240
1,note_on,72,52,0
1,note_on,72,0,240
1,note_on,60,0,0
1,note_on,61,43,0
1,note_on,63,43,0
1,note_on,67,43,0
1,note_on,73,54,0
1,note_on,73,0,960
1,note_on,61,0,0
1,note_on,63,0,0
1,note_on,67,0,0
1,note_on,60,45,0
1,note_on,63,45,0
1,note_on,68,45,0
1,note_on,72,56,0
1,note_on,72,0,480
1,note_on,60,0,0
1,note_on,63,0,0
1,note_on,68,0,0
1,note_on,58,45,0
1,note_on,63,45,0
1,note_on,70,57,0
1,note_on,70,0,960
1,note_on,63,0,0
1,note_on,58,0,0
1,note_on,62,49,0
1,note_on,70,49,0
1,note_on,68,49,0
1,note_on,74,62,0
1,note_on,74,0,480
1,note_on,62,0,0
1,note_on,70,0,0
1,note_on,68,0,0
1,note_on,62,55,0
1,note_on,70,55,0
1,note_on,68,55,0
1,note_on,74,69,0
1,note_on,74,0,1440
1,note_on,68,0,0
1,note_on,62,0,0
1,note_on,67,36,0
1,note_on,63,36,0
1,note_on,75,45,0
1,note_on,75,0,480
1,note_on,70,0,0
1,note_on,67,0,0
1,note_on,63,0,0
1,note_on,63,58,480
1,note_on,68,58,0
1,note_on,72,73,0
1,note_on,72,0,480
1,note_on,68,0,0
1,note_on,63,0,0
1,note_on,64,64,0
1,note_on,68,64,0
1,note_on,72,81,0
1,note_on,72,0,1200
1,note_on,71,53,0
1,note_on,71,0,240
1,note_on,70,50,0
1,note_on,70,0,480
1,note_on,68,0,0
1,note_on,64,0,0
1,note_on,63,58,480
1,note_on,68,58,0
1,note_on,72,73,0
1,note_on,72,0,480
1,note_on,68,0,0
1,note_on,63,0,0
1,note_on,64,64,0
1,note_on,68,64,0
1,note_on,72,81,0
1,note_on,72,0,1200
1,note_on,71,54,0
1,note_on,71,0,240
1,note_on,70,51,0
1,note_on,70,0,480
1,note_on,68,0,0
1,note_on,64,0,0
1,note_on,64,72,480
1,note_on,68,72,0
1,note_on,71,89,0
1,note_on,71,0,951
1,note_on,68,0,0
1,note_on,64,0,0
1,note_on,64,72,9
1,note_on,68,72,0
1,note_on,71,90,0
1,note_on,71,0,456
1,note_on,68,0,0
1,note_on,64,0,0
1,note_on,64,71,24
1,note_on,68,71,0
1,note_on,71,88,0
1,note_on,71,0,456
1,note_on,68,0,0
1,note_on,64,0,0
1,note_on,64,66,24
1,note_on,68,68,0
1,note_on,71,85,0
1,note_on,71,0,456
1,note_on,68,0,0
1,note_on,64,0,0
1,note_on,64,70,24
1,note_on,69,74,0
1,note_on,73,93,0
1,note_on,73,0,480
1,note_on,69,0,0
1,note_on,64,0,0
1,note_on,64,73,0
1,note_on,71,79,0
1,note_on,74,98,0
1,note_on,74,0,480
1,note_on,71,0,0
1,note_on,64,0,0
1,note_on,64,77,0
1,note_on,73,79,0
1,note_on,76,102,0
1,note_on,76,0,480
1,note_on,73,0,0
1,note_on,64,0,0
1,note_on,64,71,0
1,note_on,71,74,0
1,note_on,74,93,0
1,note_on,74,0,480
1,note_on,71,0,0
1,note_on,64,0,0
1,note_on,64,64,0
1,note_on,69,64,0
1,note_on,73,72,0
1,note_on,73,0,480
1,note_on,69,0,0
1,note_on,64,0,0
1,note_on,63,46,0
1,note_on,68,46,0
1,note_on,71,58,0
1,note_on,71,0,1440
1,note_on,68,0,0
1,note_on,67,42,0
1,note_on,70,47,0
1,note_on,70,0,960
1,note_on,67,0,0
1,note_on,63,0,0
1,note_on,65,45,10080
1,note_on,65,0,480
1,note_on,65,45,0
1,note_on,65,0,960
1,note_on,66,47,0
1,note_on,66,0,240
1,note_on,65,45,0
1,note_on,65,0,240
1,note_on,63,46,0
1,note_on,63,0,960
1,note_on,65,44,0
1,note_on,65,0,240
1,note_on,63,42,0
1,note_on,63,0,240
1,note_on,56,40,2400
1,note_on,61,40,0
1,note_on,68,50,0
1,note_on,68,0,456
1,note_on,61,0,0
1,note_on,56,0,0
1,note_on,56,40,24
1,note_on,61,40,0
1,note_on,68,50,0
1,note_on,68,0,960
1,note_on,61,0,0
1,note_on,56,0,0
1,note_on,58,44,0
1,note_on,70,55,0
1,note_on,61,44,0
1,note_on,70,0,240
1,note_on,58,0,0
1,note_on,56,40,0
1,note_on,68,51,0
1,note_on,68,0,240
1,note_on,56,0,0
1,note_on,61,0,0
1,note_on,56,40,0
1,note_on,61,40,0
1,note_on,68,51,0
1,note_on,68,0,480
1,note_on,61,0,0
1,note_on,56,0,0
1,note_on,61,45,0
1,note_on,73,56,0
1,note_on,73,0,480
1,note_on,61,0,0
1,note_on,58,42,0
1,note_on,70,53,0
1,note_on,70,0,480
1,note_on,58,0,0
1,note_on,54,40,0
1,note_on,66,50,0
1,note_on,66,0,480
1,note_on,54,0,0
1,note_on,57,42,0
1,note_on,63,42,0
1,note_on,66,42,0
1,note_on,69,53,0
1,note_on,69,0,480
1,note_on,57,0,0
1,note_on,63,0,0
1,note_on,66,0,0
1,note_on,56,40,0
1,note_on,60,40,0
1,note_on,63,40,0
1,note_on,66,40,0
1,note_on,68,51,0
1,note_on,68,0,480
1,note_on,63,0,0
1,note_on,56,0,0
1,note_on,60,0,0
1,note_on,66,0,0
1,note_on,56,38,0
1,note_on,61,38,0
1,note_on,65,48,0
1,note_on,65,0,960
1,note_on,61,0,0
1,note_on,56,0,0
1,note_on,65,34,0
1,note_on,68,34,0
1,note_on,77,45,0
1,note_on,77,0,456
1,note_on,68,0,0
1,note_on,65,0,0
1,note_on,65,34,24
1,note_on,68,34,0
1,note_on,77,45,0
1,note_on,77,0,960
1,note_on,78,47,0
1,note_on,78,0,240
1,note_on,77,45,0
1,note_on,77,0,240
1,note_on,68,0,0
1,note_on,65,0,0
1,note_on,66,34,0
1,note_on,68,34,0
1,note_on,75,46,0
1,note_on,75,0,960
1,note_on,77,44,0
1,note_on,77,0,240
1,note_on,75,42,0
1,note_on,75,0,240
1,note_on,68,0,0
1,note_on,66,0,0
1,note_on,65,34,0
1,note_on,73,43,0
1,note_on,68,34,0
1,note_on,68,0,360
1,note_on,73,0,0
1,note_on,65,0,0
1,note_on,73,45,120
1,note_on,70,36,0
1,note_on,66,36,0
1,note_on,66,0,360
1,note_on,70,0,0
1,note_on,73,0,0
1,note_on,75,48,120
1,note_on,73,38,0
1,note_on,70,38,0
1,note_on,70,0,360
1,note_on,73,0,0
1,note_on,75,0,0
1,note_on,68,44,120
1,note_on,68,0,960
1,note_on,68,47,0
1,note_on,73,47,0
1,note_on,80,59,0
1,note_on,80,0,456
1,note_on,73,0,0
1,note_on,68,0,0
1,note_on,68,47,24
1,note_on,73,47,0
1,note_on,80,59,0
1,note_on,80,0,960
1,note_on,73,0,0
1,note_on,68,0,0
1,note_on,70,53,0
1,note_on,82,66,0
1,note_on,73,53,0
1,note_on,82,0,240
1,note_on,70,0,0
1,note_on,68,49,0
1,note_on,80,62,0
1,note_on,80,0,240
1,note_on,68,0,0
1,note_on,73,0,0
1,note_on,68,49,0
1,note_on,73,49,0
1,note_on,80,62,0
1,note_on,80,0,480
1,note_on,73,0,0
1,note_on,68,0,0
1,note_on,73,60,0
1,note_on,85,75,0
1,note_on,85,0,480
1,note_on,73,0,0
1,note_on,70,55,0
1,note_on,82,69,0
1,note_on,82,0,480
1,note_on,70,0,0
1,note_on,66,51,0
1,note_on,78,64,0
1,note_on,78,0,480
1,note_on,66,0,0
1,note_on,69,58,0
1,note_on,75,58,0
1,note_on,78,65,0
1,note_on,81,73,0
1,note_on,81,0,480
1,note_on,69,0,0
1,note_on,75,0,0
1,note_on,78,0,0
1,note_on,68,55,0
1,note_on,72,55,0
1,note_on,75,55,0
1,note_on,78,62,0
1,note_on,80,69,0
1,note_on,80,0,480
1,note_on,75,0,0
1,note_on,68,0,0
1,note_on,72,0,0
1,note_on,78,0,0
1,note_on,68,51,0
1,note_on,73,51,0
1,note_on,77,64,0
1,note_on,77,0,960
1,note_on,73,0,0
1,note_on,68,0,0
1,note_on,63,64,0
1,note_on,75,80,0
1,note_on,68,64,0
1,note_on,68,0,456
1,note_on,75,0,0
1,note_on,63,0,0
1,note_on,63,64,24
1,note_on,68,64,0
1,note_on,75,80,0
1,note_on,75,0,960
1,note_on,68,0,0
1,note_on,63,0,0
1,note_on,61,64,0
1,note_on,73,81,0
1,note_on,68,64,0
1,note_on,73,0,240
1,note_on,61,0,0
1,note_on,63,64,0
1,note_on,75,81,0
1,note_on,75,0,240
1,note_on,63,0,0
1,note_on,68,0,0
1,note_on,60,65,0
1,note_on,68,65,0
1,note_on,72,82,0
1,note_on,72,0,480
1,note_on,68,0,0
1,note_on,60,0,0
1,note_on,63,68,0
1,note_on,68,68,0
1,note_on,75,85,0
1,note_on,75,0,480
1,note_on,68,0,0
1,note_on,63,0,0
1,note_on,65,70,0
1,note_on,68,70,0
1,note_on,77,87,0
1,note_on,77,0,480
1,note_on,68,0,0
1,note_on,65,0,0
1,note_on,66,72,0
1,note_on,68,72,0
1,note_on,78,89,0
1,note_on,78,0,480
1,note_on,68,0,0
1,note_on,66,0,0
1,note_on,80,90,0
1,note_on,68,72,0
1,note_on,68,0,480
1,note_on,80,0,0
1,note_on,82,95,0
1,note_on,70,76,0
1,note_on,68,76,0
1,note_on,68,0,480
1,note_on,70,0,0
1,note_on,82,0,0
1,note_on,63,53,0
1,note_on,75,66,0
1,note_on,68,53,0
1,note_on,68,0,960
1,note_on,75,0,0
1,note_on,63,0,0
1,note_on,64,40,0
1,note_on,68,40,0
1,note_on,76,50,0
1,note_on,76,0,480
1,note_on,68,0,0
1,note_on,64,0,0
1,note_on,77,56,0
1,note_on,65,45,0
1,note_on,68,45,0
1,note_on,77,0,960
1,note_on,78,53,0
1,note_on,78,0,240
1,note_on,77,53,0
1,note_on,77,0,240
1,note_on,68,0,0
1,note_on,65,0,0
1,note_on,63,43,0
1,note_on,75,54,0
1,note_on,68,43,0
1,note_on,75,0,960
1,note_on,63,0,0
1,note_on,62,40,0
1,note_on,74,51,0
1,note_on,74,0,480
1,note_on,62,0,0
1,note_on,68,0,0
1,note_on,61,42,0
1,note_on,67,47,0
1,note_on,73,53,0
1,note_on,73,0,960
1,note_on,67,0,0
1,note_on,61,0,0
1,note_on,72,50,0
1,note_on,61,40,0
1,note_on,67,45,0
1,note_on,72,0,240
1,note_on,70,49,0
1,note_on,70,0,240
1,note_on,67,0,0
1,note_on,61,0,0
1,note_on,66,42,0
1,note_on,63,42,0
1,note_on,75,53,0
1,note_on,75,0,960
1,note_on,63,0,0
1,note_on,66,0,0
1,note_on,73,48,0
1,note_on,63,38,0
1,note_on,66,38,0
1,note_on,73,0,240
1,note_on,72,48,0
1,note_on,72,0,240
1,note_on,66,0,0
1,note_on,63,0,0
1,note_on,61,41,0
1,note_on,67,41,0
1,note_on,73,52,0
1,note_on,73,0,960
1,note_on,67,0,0
1,note_on,61,0,0
1,note_on,72,47,0
1,note_on,61,37,0
1,note_on,67,42,0
1,note_on,72,0,240
1,note_on,70,47,0
1,note_on,70,0,240
1,note_on,67,0,0
1,note_on,61,0,0
1,note_on,60,36,0
1,note_on,68,45,0
1,note_on,68,0,480
1,note_on,67,40,0
1,note_on,67,0,480
1,note_on,66,36,0
1,note_on,66,0,480
1,note_on,60,0,0
1,note_on,65,38,0
1,note_on,65,0,960
1,note_on,66,39,0
1,note_on,66,0,240
1,note_on,65,38,0
1,note_on,65,0,240
1,note_on,63,39,0
1,note_on,63,0,960
1,note_on,65,37,0
1,note_on,65,0,240
1,note_on,63,35,0
1,note_on,63,0,240
1,note_on,56,48,2400
1,note_on,61,48,0
1,note_on,68,61,0
1,note_on,68,0,456
1,note_on,61,0,0
1,note_on,56,0,0
1,note_on,56,48,24
1,note_on,61,48,0
1,note_on,68,61,0
1,note_on,68,0,960
1,note_on,61,0,0
1,note_on,56,0,0
1,note_on,58,54,0
1,note_on,70,68,0
1,note_on,61,54,0
1,note_on,70,0,240
1,note_on,58,0,0
1,note_on,56,48,0
1,note_on,68,60,0
1,note_on,68,0,240
1,note_on,56,0,0
1,note_on,61,0,0
1,note_on,56,47,0
1,note_on,61,47,0
1,note_on,68,59,0
1,note_on,68,0,480
1,note_on,61,0,0
1,note_on,56,0,0
1,note_on,65,62,0
1,note_on,68,62,0
1,note_on,77,77,0
1,note_on,77,0,480
1,note_on,68,0,0
1,note_on,65,0,0
1,note_on,63,56,0
1,note_on,68,56,0
1,note_on,75,71,0
1,note_on,75,0,480
1,note_on,68,0,0
1,note_on,63,0,0
1,note_on,61,64,0
1,note_on,65,64,0
1,note_on,73,80,0
1,note_on,73,0,960
1,note_on,65,0,0
1,note_on,61,0,0
1,note_on,60,61,0
1,note_on,63,61,0
1,note_on,68,61,0
1,note_on,72,76,0
1,note_on,72,0,480
1,note_on,60,0,0
1,note_on,63,0,0
1,note_on,68,0,0
1,note_on,61,64,0
1,note_on,65,64,0
1,note_on,68,64,0
1,note_on,73,81,0
1,note_on,73,0,960
1,note_on,61,0,0
1,note_on,65,0,0
1,note_on,68,0,0
1,note_on,68,66,0
1,note_on,80,83,0
1,note_on,73,66,0
1,note_on,73,0,456
1,note_on,80,0,0
1,note_on,68,0,0
1,note_on,68,66,24
1,note_on,73,66,0
1,note_on,80,83,0
1,note_on,80,0,960
1,note_on,73,0,0
1,note_on,68,0,0
1,note_on,70,71,0
1,note_on,82,88,0
1,note_on,73,71,0
1,note_on,82,0,240
1,note_on,70,0,0
1,note_on,68,66,0
1,note_on,80,83,0
1,note_on,80,0,240
1,note_on,68,0,0
1,note_on,73,0,0
1,note_on,68,66,0
1,note_on,73,66,0
1,note_on,80,83,0
1,note_on,80,0,480
1,note_on,73,0,0
1,note_on,68,0,0
1,note_on,61,73,0
1,note_on,68,73,0
1,note_on,73,73,0
1,note_on,89,92,0
1,note_on,80,73,0
1,note_on,77,73,0
1,note_on,77,0,480
1,note_on,68,0,0
1,note_on,73,0,0
1,note_on,61,0,0
1,note_on,80,0,0
1,note_on,89,0,0
1,note_on,60,72,0
1,note_on,68,72,0
1,note_on,72,72,0
1,note_on,75,72,0
1,note_on,80,72,0
1,note_on,87,89,0
1,note_on,87,0,480
1,note_on,68,0,0
1,note_on,72,0,0
1,note_on,60,0,0
1,note_on,80,0,0
1,note_on,75,0,0
1,note_on,58,72,0
1,note_on,65,72,0
1,note_on,70,72,0
1,note_on,73,72,0
1,note_on,77,72,0
1,note_on,85,90,0
1,note_on,85,0,960
1,note_on,65,0,0
1,note_on,70,0,0
1,note_on,58,0,0
1,note_on,77,0,0
1,note_on,73,0,0
1,note_on,56,71,0
1,note_on,66,71,0
1,note_on,68,71,0
1,note_on,72,71,0
1,note_on,75,71,0
1,note_on,80,71,0
1,note_on,84,88,0
1,note_on,84,0,480
1,note_on,75,0,0
1,note_on,66,0,0
1,note_on,68,0,0
1,note_on,56,0,0
1,note_on,80,0,0
1,note_on,72,0,0
1,note_on,61,66,0
1,note_on,65,66,0
1,note_on,68,72,0
1,note_on,73,72,0
1,note_on,77,72,0
1,note_on,80,72,0
1,note_on,85,91,0
1,note_on,85,0,960
1,note_on,77,0,0
1,note_on,65,0,0
1,note_on,68,0,0
1,note_on,61,0,0
1,note_on,80,0,0
1,note_on,73,0,0
1,note_on,63,64,0
1,note_on,75,80,0
1,note_on,68,64,0
1,note_on,68,0,456
1,note_on,75,0,0
1,note_on,63,0,0
1,note_on,63,64,24
1,note_on,68,64,0
1,note_on,75,80,0
1,note_on,75,0,960
1,note_on,68,0,0
1,note_on,63,0,0
1,note_on,61,64,0
1,note_on,73,81,0
1,note_on,68,64,0
1,note_on,73,0,240
1,note_on,61,0,0
1,note_on,63,64,0
1,note_on,75,81,0
1,note_on,75,0,240
1,note_on,63,0,0
1,note_on,68,0,0
1,note_on,60,65,0
1,note_on,68,65,0
1,note_on,72,82,0
1,note_on,72,0,480
1,note_on,68,0,0
1,note_on,60,0,0
1,note_on,63,68,0
1,note_on,68,68,0
1,note_on,75,85,0
1,note_on,75,0,480
1,note_on,68,0,0
1,note_on,63,0,0
1,note_on,65,70,0
1,note_on,68,70,0
1,note_on,77,87,0
1,note_on,77,0,480
1,note_on,68,0,0
1,note_on,65,0,0
1,note_on,66,72,0
1,note_on,68,72,0
1,note_on,78,89,0
1,note_on,78,0,480
1,note_on,68,0,0
1,note_on,66,0,0
1,note_on,80,90,0
1,note_on,68,72,0
1,note_on,68,0,480
1,note_on,80,0,0
1,note_on,82,95,0
1,note_on,70,76,0
1,note_on,68,76,0
1,note_on,68,0,480
1,note_on,70,0,0
1,note_on,82,0,0
1,note_on,63,53,0
1,note_on,75,66,0
1,note_on,68,53,0
1,note_on,68,0,960
1,note_on,75,0,0
1,note_on,63,0,0
1,note_on,64,40,0
1,note_on,68,40,0
1,note_on,76,50,0
1,note_on,76,0,480
1,note_on,68,0,0
1,note_on,64,0,0
1,note_on,77,56,0
1,note_on,65,45,0
1,note_on,68,45,0
1,note_on,77,0,960
1,note_on,78,53,0
1,note_on,78,0,240
1,note_on,77,53,0
1,note_on,77,0,240
1,note_on,68,0,0
1,note_on,65,0,0
1,note_on,63,43,0
1,note_on,75,54,0
1,note_on,68,43,0
1,note_on,75,0,960
1,note_on,63,0,0
1,note_on,62,40,0
1,note_on,74,51,0
1,note_on,74,0,480
1,note_on,62,0,0
1,note_on,68,0,0
1,note_on,61,42,0
1,note_on,67,42,0
1,note_on,73,53,0
1,note_on,73,0,960
1,note_on,67,0,0
1,note_on,61,0,0
1,note_on,72,50,0
1,note_on,61,40,0
1,note_on,67,45,0
1,note_on,72,0,240
1,note_on,70,49,0
1,note_on,70,0,240
1,note_on,67,0,0
1,note_on,61,0,0
1,note_on,66,42,0
1,note_on,63,42,0
1,note_on,75,53,0
1,note_on,75,0,960
1,note_on,63,0,0
1,note_on,66,0,0
1,note_on,73,48,0
1,note_on,63,38,0
1,note_on,66,38,0
1,note_on,73,0,240
1,note_on,72,48,0
1,note_on,72,0,240
1,note_on,66,0,0
1,note_on,63,0,0
1,note_on,61,41,0
1,note_on,67,52,0
1,note_on,73,52,0
1,note_on,73,0,960
1,note_on,67,0,0
1,note_on,61,0,0
1,note_on,72,47,0
1,note_on,61,37,0
1,note_on,67,37,0
1,note_on,72,0,240
1,note_on,70,47,0
1,note_on,70,0,240
1,note_on,67,0,0
1,note_on,61,0,0
1,note_on,60,36,0
1,note_on,68,45,0
1,note_on,68,0,480
1,note_on,67,40,0
1,note_on,67,0,480
1,note_on,66,36,0
1,note_on,66,0,480
1,note_on,60,0,0
1,note_on,65,38,0
1,note_on,65,0,960
1,note_on,66,39,0
1,note_on,66,0,240
1,note_on,65,38,0
1,note_on,65,0,240
1,note_on,63,39,0
1,note_on,63,0,960
1,note_on,65,37,0
1,note_on,65,0,240
1,note_on,63,35,0
1,note_on,63,0,240
1,note_on,56,48,2400
1,note_on,61,48,0
1,note_on,68,61,0
1,note_on,68,0,456
1,note_on,61,0,0
1,note_on,56,0,0
1,note_on,56,48,24
1,note_on,61,48,0
1,note_on,68,61,0
1,note_on,68,0,960
1,note_on,61,0,0
1,note_on,56,0,0
1,note_on,58,54,0
1,note_on,70,68,0
1,note_on,61,54,0
1,note_on,70,0,240
1,note_on,58,0,0
1,note_on,56,48,0
1,note_on,68,60,0
1,note_on,68,0,240
1,note_on,56,0,0
1,note_on,61,0,0
1,note_on,56,47,0
1,note_on,61,47,0
1,note_on,68,59,0
1,note_on,68,0,480
1,note_on,61,0,0
1,note_on,56,0,0
1,note_on,65,62,0
1,note_on,68,62,0
1,note_on,77,77,0
1,note_on,77,0,480
1,note_on,68,0,0
1,note_on,65,0,0
1,note_on,63,56,0
1,note_on,68,56,0
1,note_on,75,71,0
1,note_on,75,0,480
1,note_on,68,0,0
1,note_on,63,0,0
1,note_on,61,64,0
1,note_on,65,64,0
1,note_on,73,80,0
1,note_on,73,0,960
1,note_on,65,0,0
1,note_on,61,0,0
1,note_on,60,61,0
1,note_on,63,61,0
1,note_on,68,61,0
1,note_on,72,76,0
1,note_on,72,0,480
1,note_on,60,0,0
1,note_on,63,0,0
1,note_on,68,0,0
1,note_on,61,64,0
1,note_on,65,64,0
1,note_on,68,64,0
1,note_on,73,81,0
1,note_on,73,0,960
1,note_on,61,0,0
1,note_on,65,0,0
1,note_on,68,0,0
1,note_on,68,66,0
1,note_on,80,83,0
1,note_on,73,66,0
1,note_on,73,0,456
1,note_on,80,0,0
1,note_on,68,0,0
1,note_on,68,66,24
1,note_on,73,66,0
1,note_on,80,83,0
1,note_on,80,0,960
1,note_on,73,0,0
1,note_on,68,0,0
1,note_on,70,71,0
1,note_on,82,88,0
1,note_on,73,71,0
1,note_on,82,0,240
1,note_on,70,0,0
1,note_on,68,66,0
1,note_on,80,83,0
1,note_on,80,0,240
1,note_on,68,0,0
1,note_on,73,0,0
1,note_on,68,66,0
1,note_on,73,66,0
1,note_on,80,83,0
1,note_on,80,0,480
1,note_on,73,0,0
1,note_on,68,0,0
1,note_on,61,73,0
1,note_on,68,73,0
1,note_on,73,73,0
1,note_on,89,92,0
1,note_on,80,73,0
1,note_on,77,73,0
1,note_on,77,0,480
1,note_on,68,0,0
1,note_on,73,0,0
1,note_on,61,0,0
1,note_on,80,0,0
1,note_on,89,0,0
1,note_on,60,72,0
1,note_on,68,72,0
1,note_on,72,72,0
1,note_on,75,72,0
1,note_on,80,72,0
1,note_on,87,89,0
1,note_on,87,0,480
1,note_on,68,0,0
1,note_on,72,0,0
1,note_on,60,0,0
1,note_on,80,0,0
1,note_on,75,0,0
1,note_on,58,72,0
1,note_on,65,72,0
1,note_on,70,72,0
1,note_on,73,72,0
1,note_on,77,72,0
1,note_on,85,90,0
1,note_on,85,0,960
1,note_on,65,0,0
1,note_on,70,0,0
1,note_on,58,0,0
1,note_on,77,0,0
1,note_on,73,0,0
1,note_on,56,71,0
1,note_on,66,71,0
1,note_on,68,71,0
1,note_on,72,71,0
1,note_on,75,71,0
1,note_on,80,71,0
1,note_on,84,88,0
1,note_on,84,0,480
1,note_on,75,0,0
1,note_on,66,0,0
1,note_on,68,0,0
1,note_on,56,0,0
1,note_on,80,0,0
1,note_on,72,0,0
1,note_on,61,65,0
1,note_on,65,65,0
1,note_on,68,72,0
1,note_on,73,72,0
1,note_on,77,72,0
1,note_on,80,72,0
1,note_on,85,91,0
1,note_on,85,0,720
1,note_on,77,0,0
1,note_on,65,0,0
1,note_on,68,0,0
1,note_on,61,0,0
1,note_on,80,0,0
1,note_on,73,0,0
1,note_on,63,38,240
1,note_on,68,38,0
1,note_on,72,48,0
1,note_on,72,0,480
1,note_on,68,0,0
1,note_on,63,0,0
1,note_on,65,43,0
1,note_on,68,43,0
1,note_on,72,54,0
1,note_on,72,0,1440
1,note_on,70,51,0
1,note_on,70,0,480
1,note_on,68,0,0
1,note_on,65,0,0
1,note_on,77,63,480
1,note_on,70,50,0
1,note_on,67,50,0
1,note_on,67,0,480
1,note_on,70,0,0
1,note_on,77,0,0
1,note_on,68,52,0
1,note_on,72,52,0
1,note_on,77,65,0
1,note_on,77,0,1440
1,note_on,75,60,0
1,note_on,75,0,480
1,note_on,72,0,0
1,note_on,68,0,0
1,note_on,60,43,240
1,note_on,63,48,0
1,note_on,63,0,240
1,note_on,68,56,0
1,note_on,68,0,240
1,note_on,72,58,0
1,note_on,72,0,240
1,note_on,60,0,0
1,note_on,61,48,0
1,note_on,63,48,0
1,note_on,67,48,0
1,note_on,73,60,0
1,note_on,73,0,960
1,note_on,61,0,0
1,note_on,63,0,0
1,note_on,67,0,0
1,note_on,60,50,0
1,note_on,63,50,0
1,note_on,68,50,0
1,note_on,72,63,0
1,note_on,72,0,480
1,note_on,60,0,0
1,note_on,63,0,0
1,note_on,68,0,0
1,note_on,58,51,0
1,note_on,63,51,0
1,note_on,70,64,0
1,note_on,70,0,960
1,note_on,63,0,0
1,note_on,58,0,0
1,note_on,62,52,0
1,note_on,70,52,0
1,note_on,68,52,0
1,note_on,74,65,0
1,note_on,74,0,480
1,note_on,62,0,0
1,note_on,70,0,0
1,note_on,68,0,0
1,note_on,62,55,0
1,note_on,70,55,0
1,note_on,68,55,0
1,note_on,74,69,0
1,note_on,74,0,1440
1,note_on,68,0,0
1,note_on,62,0,0
1,note_on,67,40,0
1,note_on,63,40,0
1,note_on,75,51,0
1,note_on,75,0,480
1,note_on,70,0,0
1,note_on,67,0,0
1,note_on,63,0,0
1,note_on,63,42,480
1,note_on,68,42,0
1,note_on,72,53,0
1,note_on,72,0,480
1,note_on,68,0,0
1,note_on,63,0,0
1,note_on,65,46,0
1,note_on,68,46,0
1,note_on,72,58,0
1,note_on,72,0,1440
1,note_on,70,50,0
1,note_on,70,0,480
1,note_on,68,0,0
1,note_on,65,0,0
1,note_on,77,79,480
1,note_on,71,71,0
1,note_on,67,63,0
1,note_on,67,0,480
1,note_on,71,0,0
1,note_on,77,0,0
1,note_on,67,68,0
1,note_on,72,68,0
1,note_on,77,85,0
1,note_on,77,0,1440
1,note_on,76,51,0
1,note_on,76,0,480
1,note_on,72,0,0
1,note_on,67,0,0
1,note_on,67,41,480
1,note_on,72,41,0
1,note_on,76,52,0
1,note_on,76,0,480
1,note_on,72,0,0
1,note_on,67,0,0
1,note_on,67,45,0
1,note_on,73,57,0
1,note_on,75,57,0
1,note_on,75,0,960
1,note_on,73,0,0
1,note_on,67,0,0
1,note_on,68,47,0
1,note_on,72,47,0
1,note_on,75,59,0
1,note_on,75,0,480
1,note_on,72,0,0
1,note_on,68,0,0
1,note_on,65,51,0
1,note_on,70,51,0
1,note_on,73,64,0
1,note_on,73,0,960
1,note_on,70,0,0
1,note_on,65,0,0
1,note_on,72,53,0
1,note_on,61,47,0
1,note_on,67,47,0
1,note_on,72,0,240
1,note_on,70,51,0
1,note_on,70,0,240
1,note_on,67,0,0
1,note_on,61,0,0
1,note_on,61,39,0
1,note_on,67,39,0
1,note_on,70,44,0
1,note_on,70,0,1440
1,note_on,67,0,0
1,note_on,61,0,0
1,note_on,60,28,0
1,note_on,68,33,0
1,note_on,68,0,480
1,note_on,60,0,0
1,note_on,62,32,480
1,note_on,68,32,0
1,note_on,71,40,0
1,note_on,71,0,456
1,note_on,68,0,0
1,note_on,62,0,0
1,note_on,62,32,24
1,note_on,68,32,0
1,note_on,71,40,0
1,note_on,62,0,1440
1,note_on,63,28,0
1,note_on,63,0,480
1,note_on,71,0,0
1,note_on,68,0,0
1,note_on,64,36,480
1,note_on,68,36,0
1,note_on,71,45,0
1,note_on,71,0,456
1,note_on,68,0,0
1,note_on,64,0,0
1,note_on,64,39,24
1,note_on,68,39,0
1,note_on,71,49,0
1,note_on,64,0,1440
1,note_on,63,29,0
1,note_on,63,0,480
1,note_on,71,0,0
1,note_on,68,0,0
1,note_on,63,41,480
1,note_on,68,46,0
1,note_on,71,52,0
1,note_on,71,0,480
1,note_on,68,0,0
1,note_on,63,0,0
1,note_on,70,58,0
1,note_on,64,46,0
1,note_on,68,52,0
1,note_on,70,0,480
1,note_on,76,65,0
1,note_on,76,0,720
1,note_on,70,51,0
1,note_on,70,0,240
1,note_on,75,57,0
1,note_on,75,0,240
1,note_on,73,55,0
1,note_on,73,0,240
1,note_on,71,55,0
1,note_on,71,0,480
1,note_on,68,0,0
1,note_on,64,0,0
1,note_on,64,41,0
1,note_on,61,41,0
1,note_on,70,52,0
1,note_on,70,0,480
1,note_on,61,0,0
1,note_on,64,0,0
1,note_on,63,39,0
1,note_on,59,39,0
1,note_on,68,49,0
1,note_on,68,0,1440
1,note_on,59,0,0
1,note_on,58,27,0
1,note_on,67,35,0
1,note_on,67,0,480
1,note_on,58,0,0
1,note_on,63,0,0
1,note_on,62,28,480
1,note_on,68,28,0
1,note_on,71,36,0
1,note_on,71,0,456
1,note_on,68,0,0
1,note_on,62,0,0
1,note_on,62,28,24
1,note_on,68,28,0
1,note_on,71,36,0
1,note_on,62,0,1440
1,note_on,63,25,0
1,note_on,63,0,480
1,note_on,71,0,0
1,note_on,68,0,0
1,note_on,64,38,480
1,note_on,68,38,0
1,note_on,71,48,0
1,note_on,71,0,456
1,note_on,68,0,0
1,note_on,64,0,0
1,note_on,64,35,24
1,note_on,68,35,0
1,note_on,71,44,0
1,note_on,64,0,1440
1,note_on,63,30,0
1,note_on,63,0,480
1,note_on,71,0,0
1,note_on,68,0,0
1,note_on,64,40,480
1,note_on,68,40,0
1,note_on,71,45,0
1,note_on,71,0,480
1,note_on,68,0,0
1,note_on,64,0,0
1,note_on,71,50,0
1,note_on,64,45,0
1,note_on,68,45,0
1,note_on,71,0,480
1,note_on,76,70,0
1,note_on,76,0,720
1,note_on,71,60,0
1,note_on,71,0,120
1,note_on,71,55,0
1,note_on,71,0,120
1,note_on,68,0,0
1,note_on,75,73,0
1,note_on,75,0,240
1,note_on,73,70,0
1,note_on,73,0,240
1,note_on,71,67,0
1,note_on,71,0,480
1,note_on,68,65,0
1,note_on,68,0,480
1,note_on,64,0,0
1,note_on,65,62,0
1,note_on,61,55,0
1,note_on,65,0,480
1,note_on,73,70,0
1,note_on,73,0,720
1,note_on,65,58,0
1,note_on,65,0,240
1,note_on,61,0,0
1,note_on,61,56,0
1,note_on,66,56,0
1,note_on,73,70,0
1,note_on,73,0,240
1,note_on,69,70,0
1,note_on,69,0,240
1,note_on,66,0,0
1,note_on,61,0,0
1,note_on,64,56,0
1,note_on,68,70,0
1,note_on,68,0,480
1,note_on,64,0,0
1,note_on,63,60,0
1,note_on,66,67,0
1,note_on,66,0,480
1,note_on,63,0,0
1,note_on,56,53,0
1,note_on,59,53,0
1,note_on,64,66,0
1,note_on,64,0,960
1,note_on,59,0,0
1,note_on,56,0,0
1,note_on,64,51,0
1,note_on,64,0,160
1,note_on,68,55,0
1,note_on,68,0,160
1,note_on,71,59,0
1,note_on,71,0,160
1,note_on,70,69,0
1,note_on,67,55,0
1,note_on,64,55,0
1,note_on,61,55,0
1,note_on,61,0,960
1,note_on,70,0,0
1,note_on,67,0,0
1,note_on,64,0,0
1,note_on,71,57,0
1,note_on,68,45,0
1,note_on,64,45,0
1,note_on,59,45,0
1,note_on,59,0,240
1,note_on,71,0,0
1,note_on,68,0,0
1,note_on,64,0,0
1,note_on,66,44,0
1,note_on,66,0,120
1,note_on,68,44,0
1,note_on,68,0,120
1,note_on,60,39,0
1,note_on,69,49,0
1,note_on,63,44,0
1,note_on,69,0,720
1,note_on,60,0,0
1,note_on,59,42,0
1,note_on,68,47,0
1,note_on,68,0,240
1,note_on,59,0,0
1,note_on,57,39,0
1,note_on,66,44,0
1,note_on,66,0,480
1,note_on,57,0,0
1,note_on,63,0,0
1,note_on,56,32,0
1,note_on,64,41,0
1,note_on,64,0,960
1,note_on,56,0,0
1,note_on,64,51,0
1,note_on,64,0,160
1,note_on,68,55,0
1,note_on,68,0,160
1,note_on,71,59,0
1,note_on,71,0,160
1,note_on,70,69,0
1,note_on,67,62,0
1,note_on,64,55,0
1,note_on,61,55,0
1,note_on,61,0,960
1,note_on,70,0,0
1,note_on,67,0,0
1,note_on,64,0,0
1,note_on,71,51,0
1,note_on,68,45,0
1,note_on,64,40,0
1,note_on,59,40,0
1,note_on,59,0,240
1,note_on,71,0,0
1,note_on,68,0,0
1,note_on,64,0,0
1,note_on,66,43,0
1,note_on,66,0,120
1,note_on,68,43,0
1,note_on,68,0,120
1,note_on,60,41,0
1,note_on,69,46,0
1,note_on,63,36,0
1,note_on,69,0,720
1,note_on,60,0,0
1,note_on,59,36,0
1,note_on,68,41,0
1,note_on,68,0,240
1,note_on,59,0,0
1,note_on,57,33,0
1,note_on,66,37,0
1,note_on,66,0,480
1,note_on,57,0,0
1,note_on,63,0,0
1,note_on,56,31,0
1,note_on,64,35,0
1,note_on,64,0,960
1,note_on,56,0,0
1,note_on,68,43,0
1,note_on,68,0,480
1,note_on,64,39,0
1,note_on,68,49,0
1,note_on,68,0,960
1,note_on,64,0,0
1,note_on,64,35,0
1,note_on,68,44,0
1,note_on,68,0,480
1,note_on,64,0,0
1,note_on,64,45,0
1,note_on,68,50,0
1,note_on,64,0,720
1,note_on,63,40,0
1,note_on,63,0,240
1,note_on,68,0,0
1,note_on,62,33,0
1,note_on,68,42,0
1,note_on,68,0,480
1,note_on,62,0,0
1,note_on,63,35,0
1,note_on,68,44,0
1,note_on,68,0,1440
1,note_on,67,39,0
1,note_on,67,0,720
1,note_on,68,39,0
1,note_on,68,0,240
1,note_on,63,0,0
1,note_on,70,42,0
1,note_on,70,0,240
1,note_on,72,45,0
1,note_on,72,0,240
1,note_on,65,38,0
1,note_on,68,38,0
1,note_on,73,48,0
1,note_on,73,0,960
1,note_on,68,0,0
1,note_on,65,0,0
1,note_on,65,39,0
1,note_on,68,39,0
1,note_on,73,49,0
1,note_on,73,0,480
1,note_on,68,0,0
1,note_on,65,0,0
1,note_on,75,55,0
1,note_on,67,40,0
1,note_on,70,45,0
1,note_on,75,0,120
1,note_on,73,50,0
1,note_on,73,0,120
1,note_on,72,50,0
1,note_on,72,0,120
1,note_on,73,50,0
1,note_on,73,0,120
1,note_on,75,51,0
1,note_on,75,0,480
1,note_on,70,0,0
1,note_on,67,0,0
1,note_on,67,39,0
1,note_on,70,49,0
1,note_on,70,0,480
1,note_on,67,0,0
1,note_on,67,40,0
1,note_on,70,40,0
1,note_on,73,50,0
1,note_on,73,0,1440
1,note_on,70,0,0
1,note_on,67,0,0
1,note_on,68,36,0
1,note_on,72,45,0
1,note_on,72,0,480
1,note_on,68,0,0
1,note_on,68,64,480
1,note_on,72,64,0
1,note_on,77,80,0
1,note_on,77,0,456
1,note_on,72,0,0
1,note_on,68,0,0
1,note_on,68,64,24
1,note_on,72,64,0
1,note_on,77,80,0
1,note_on,77,0,960
1,note_on,72,0,0
1,note_on,68,0,0
1,note_on,68,64,0
1,note_on,72,64,0
1,note_on,77,80,0
1,note_on,77,0,480
1,note_on,72,0,0
1,note_on,68,0,0
1,note_on,80,86,0
1,note_on,68,69,0
1,note_on,72,69,0
1,note_on,80,0,720
1,note_on,67,64,0
1,note_on,79,80,0
1,note_on,79,0,240
1,note_on,68,0,0
1,note_on,72,0,0
1,note_on,67,0,0
1,note_on,77,75,0
1,note_on,72,60,0
1,note_on,68,60,0
1,note_on,65,60,0
1,note_on,65,0,480
1,note_on,77,0,0
1,note_on,72,0,0
1,note_on,68,0,0
1,note_on,77,80,0
1,note_on,73,67,0
1,note_on,70,64,0
1,note_on,67,64,0
1,note_on,77,0,2400
1,note_on,76,54,0
1,note_on,76,0,480
1,note_on,67,0,0
1,note_on,70,0,0
1,note_on,73,0,0
1,note_on,70,37,0
1,note_on,75,47,0
1,note_on,75,0,960
1,note_on,74,43,0
1,note_on,74,0,480
1,note_on,73,37,0
1,note_on,73,0,960
1,note_on,70,0,0
1,note_on,63,36,0
1,note_on,68,36,0
1,note_on,72,45,0
1,note_on,72,0,480
1,note_on,68,0,0
1,note_on,63,0,0
1,note_on,65,37,0
1,note_on,68,37,0
1,note_on,72,47,0
1,note_on,72,0,1440
1,note_on,70,44,0
1,note_on,70,0,480
1,note_on,68,0,0
1,note_on,65,0,0
1,note_on,77,50,480
1,note_on,70,40,0
1,note_on,67,40,0
1,note_on,67,0,480
1,note_on,70,0,0
1,note_on,77,0,0
1,note_on,68,41,0
1,note_on,72,41,0
1,note_on,77,52,0
1,note_on,77,0,1440
1,note_on,75,48,0
1,note_on,75,0,480
1,note_on,72,0,0
1,note_on,68,0,0
1,note_on,60,38,240
1,note_on,63,43,0
1,note_on,63,0,240
1,note_on,68,50,0
1,note_on,68,0,240
1,note_on,72,52,0
1,note_on,72,0,240
1,note_on,60,0,0
1,note_on,61,43,0
1,note_on,63,43,0
1,note_on,67,43,0
1,note_on,73,54,0
1,note_on,73,0,960
1,note_on,61,0,0
1,note_on,63,0,0
1,note_on,67,0,0
1,note_on,60,45,0
1,note_on,63,45,0
1,note_on,68,45,0
1,note_on,72,56,0
1,note_on,72,0,480
1,note_on,60,0,0
1,note_on,63,0,0
1,note_on,68,0,0
1,note_on,58,45,0
1,note_on,63,45,0
1,note_on,70,57,0
1,note_on,70,0,960
1,note_on,63,0,0
1,note_on,58,0,0
1,note_on,62,49,0
1,note_on,70,49,0
1,note_on,68,49,0
1,note_on,74,62,0
1,note_on,74,0,480
1,note_on,62,0,0
1,note_on,70,0,0
1,note_on,68,0,0
1,note_on,62,55,0
1,note_on,70,55,0
1,note_on,68,55,0
1,note_on,74,69,0
1,note_on,74,0,1440
1,note_on,68,0,0
1,note_on,62,0,0
1,note_on,67,36,0
1,note_on,63,36,0
1,note_on,75,45,0
1,note_on,75,0,480
1,note_on,70,0,0
1,note_on,67,0,0
1,note_on,63,0,0
1,note_on,63,58,480
1,note_on,68,58,0
1,note_on,72,73,0
1,note_on,72,0,480
1,note_on,68,0,0
1,note_on,63,0,0
1,note_on,64,64,0
1,note_on,68,64,0
1,note_on,72,81,0
1,note_on,72,0,1200
1,note_on,71,53,0
1,note_on,71,0,240
1,note_on,70,50,0
1,note_on,70,0,480
1,note_on,68,0,0
1,note_on,64,0,0
1,note_on,63,58,480
1,note_on,68,58,0
1,note_on,72,73,0
1,note_on,72,0,480
1,note_on,68,0,0
1,note_on,63,0,0
1,note_on,64,64,0
1,note_on,68,64,0
1,note_on,72,81,0
1,note_on,72,0,1200
1,note_on,71,54,0
1,note_on,71,0,240
1,note_on,70,51,0
1,note_on,70,0,480
1,note_on,68,0,0
1,note_on,64,0,0
1,note_on,64,72,480
1,note_on,68,72,0
1,note_on,71,89,0
1,note_on,71,0,951
1,note_on,68,0,0
1,note_on,64,0,0
1,note_on,64,72,9
1,note_on,68,72,0
1,note_on,71,90,0
1,note_on,71,0,456
1,note_on,68,0,0
1,note_on,64,0,0
1,note_on,64,71,24
1,note_on,68,71,0
1,note_on,71,88,0
1,note_on,71,0,456
1,note_on,68,0,0
1,note_on,64,0,0
1,note_on,64,68,24
1,note_on,68,68,0
1,note_on,71,85,0
1,note_on,71,0,456
1,note_on,68,0,0
1,note_on,64,0,0
1,note_on,64,72,24
1,note_on,69,74,0
1,note_on,73,93,0
1,note_on,73,0,480
1,note_on,69,0,0
1,note_on,64,0,0
1,note_on,64,72,0
1,note_on,71,79,0
1,note_on,74,98,0
1,note_on,74,0,480
1,note_on,71,0,0
1,note_on,64,0,0
1,note_on,64,69,0
1,note_on,73,81,0
1,note_on,76,102,0
1,note_on,76,0,480
1,note_on,73,0,0
1,note_on,64,0,0
1,note_on,64,63,0
1,note_on,71,74,0
1,note_on,74,93,0
1,note_on,74,0,480
1,note_on,71,0,0
1,note_on,64,0,0
1,note_on,64,54,0
1,note_on,69,64,0
1,note_on,73,80,0
1,note_on,73,0,480
1,note_on,69,0,0
1,note_on,64,0,0
1,note_on,63,46,0
1,note_on,68,46,0
1,note_on,71,58,0
1,note_on,71,0,1440
1,note_on,68,0,0
1,note_on,67,37,0
1,note_on,70,47,0
1,note_on,70,0,960
1,note_on,67,0,0
1,note_on,63,0,0
2,note_on,56,40,0
2,note_on,56,0,373
2,note_on,61,42,0
2,note_on,61,0,477
2,note_on,65,45,480
2,note_on,61,40,0
2,note_on,61,0,353
2,note_on,65,0,0
2,note_on,60,40,0
2,note_on,65,45,0
2,note_on,65,0,1120
2,note_on,63,43,0
2,note_on,63,0,476
2,note_on,60,0,0
2,note_on,56,42,112
2,note_on,56,0,240
2,note_on,51,44,0
2,note_on,51,0,240
2,note_on,48,45,0
2,note_on,48,0,240
2,note_on,46,37,0
2,note_on,55,42,0
2,note_on,51,37,0
2,note_on,51,0,560
2,note_on,55,0,0
2,note_on,46,0,0
2,note_on,44,40,0
2,note_on,56,45,0
2,note_on,51,40,0
2,note_on,51,0,186
2,note_on,56,0,0
2,note_on,44,0,0
2,note_on,43,41,0
2,note_on,51,41,0
2,note_on,55,46,0
2,note_on,55,0,761
2,note_on,51,0,0
2,note_on,43,0,0
2,note_on,41,43,0
2,note_on,46,43,0
2,note_on,53,48,0
2,note_on,53,0,215
2,note_on,46,0,0
2,note_on,41,0,0
2,note_on,46,45,0
2,note_on,51,51,0
2,note_on,39,45,0
2,note_on,39,0,476
2,note_on,51,0,0
2,note_on,46,0,0
2,note_on,56,37,480
2,note_on,56,0,213
2,note_on,61,41,0
2,note_on,61,0,474
2,note_on,37,40,480
2,note_on,49,45,0
2,note_on,49,0,251
2,note_on,37,0,0
2,note_on,36,44,0
2,note_on,48,49,0
2,note_on,48,0,467
2,note_on,36,0,0
2,note_on,64,36,480
2,note_on,60,32,0
2,note_on,60,0,411
2,note_on,64,0,0
2,note_on,58,40,0
2,note_on,63,40,0
2,note_on,63,0,666
2,note_on,58,0,0
2,note_on,63,42,0
2,note_on,56,42,0
2,note_on,56,0,266
2,note_on,63,0,0
2,note_on,49,45,0
2,note_on,49,0,720
2,note_on,51,38,0
2,note_on,51,0,367
2,note_on,51,31,0
2,note_on,44,28,0
2,note_on,44,0,465
2,note_on,51,0,0
2,note_on,52,25,480
2,note_on,56,25,0
2,note_on,59,28,0
2,note_on,59,0,365
2,note_on,56,0,0
2,note_on,52,0,0
2,note_on,52,25,0
2,note_on,56,25,0
2,note_on,59,28,0
2,note_on,52,0,1440
2,note_on,51,22,0
2,note_on,51,0,469
2,note_on,59,0,0
2,note_on,56,0,0
2,note_on,49,27,480
2,note_on,56,27,0
2,note_on,59,30,0
2,note_on,59,0,343
2,note_on,56,0,0
2,note_on,49,0,0
2,note_on,49,28,0
2,note_on,56,28,0
2,note_on,59,32,0
2,note_on,49,0,1440
2,note_on,47,21,0
2,note_on,47,0,473
2,note_on,59,0,0
2,note_on,56,0,0
2,note_on,47,33,0
2,note_on,56,29,0
2,note_on,59,33,0
2,note_on,59,0,480
2,note_on,56,0,0
2,note_on,47,0,0
2,note_on,49,35,0
2,note_on,58,39,0
2,note_on,56,35,0
2,note_on,49,0,1200
2,note_on,46,36,0
2,note_on,46,0,268
2,note_on,47,37,0
2,note_on,47,0,324
2,note_on,56,0,0
2,note_on,58,0,0
2,note_on,49,35,0
2,note_on,49,0,353
2,note_on,51,35,0
2,note_on,51,0,469
2,note_on,52,22,480
2,note_on,56,22,0
2,note_on,59,25,0
2,note_on,59,0,365
2,note_on,56,0,0
2,note_on,52,0,0
2,note_on,52,22,0
2,note_on,56,22,0
2,note_on,59,25,0
2,note_on,52,0,1440
2,note_on,51,19,0
2,note_on,51,0,474
2,note_on,59,0,0
2,note_on,56,0,0
2,note_on,49,28,480
2,note_on,56,28,0
2,note_on,59,32,0
2,note_on,59,0,274
2,note_on,56,0,0
2,note_on,49,0,0
2,note_on,49,27,0
2,note_on,56,27,0
2,note_on,59,31,0
2,note_on,49,0,1440
2,note_on,47,18,0
2,note_on,47,0,467
2,note_on,59,0,0
2,note_on,56,0,0
2,note_on,52,34,0
2,note_on,47,34,0
2,note_on,56,34,0
2,note_on,59,38,0
2,note_on,59,0,480
2,note_on,52,0,0
2,note_on,47,0,0
2,note_on,56,0,0
2,note_on,47,39,0
2,note_on,52,39,0
2,note_on,56,39,0
2,note_on,59,44,0
2,note_on,59,0,296
2,note_on,47,0,0
2,note_on,52,0,0
2,note_on,56,0,0
2,note_on,47,37,0
2,note_on,52,37,0
2,note_on,56,37,0
2,note_on,59,42,0
2,note_on,59,0,1341
2,note_on,47,0,0
2,note_on,52,0,0
2,note_on,56,0,0
2,note_on,47,35,0
2,note_on,53,35,0
2,note_on,56,39,0
2,note_on,56,0,1214
2,note_on,53,0,0
2,note_on,47,0,0
2,note_on,47,38,0
2,note_on,54,38,0
2,note_on,57,43,0
2,note_on,57,0,183
2,note_on,54,0,0
2,note_on,56,38,0
2,note_on,59,43,0
2,note_on,59,0,282
2,note_on,56,0,0
2,note_on,57,38,0
2,note_on,59,43,0
2,note_on,59,0,296
2,note_on,57,0,0
2,note_on,47,0,0
2,note_on,40,41,0
2,note_on,47,41,0
2,note_on,52,46,0
2,note_on,52,0,1207
2,note_on,47,0,0
2,note_on,40,0,0
2,note_on,40,46,0
2,note_on,40,0,173
2,note_on,40,33,0
2,note_on,45,37,0
2,note_on,45,0,494
2,note_on,47,35,0
2,note_on,47,0,231
2,note_on,48,33,0
2,note_on,48,0,353
2,note_on,40,0,0
2,note_on,47,27,0
2,note_on,40,24,0
2,note_on,40,0,1284
2,note_on,47,0,0
2,note_on,40,46,0
2,note_on,40,0,157
2,note_on,40,31,0
2,note_on,45,35,0
2,note_on,45,0,550
2,note_on,47,32,0
2,note_on,47,0,233
2,note_on,48,29,0
2,note_on,48,0,310
2,note_on,40,0,0
2,note_on,47,26,0
2,note_on,40,23,0
2,note_on,40,0,960
2,note_on,47,0,0
2,note_on,52,28,0
2,note_on,59,32,0
2,note_on,59,0,480
2,note_on,52,0,0
2,note_on,52,23,0
2,note_on,59,26,0
2,note_on,59,0,480
2,note_on,52,0,0
2,note_on,52,28,0
2,note_on,59,32,0
2,note_on,59,0,734
2,note_on,52,0,0
2,note_on,52,22,0
2,note_on,56,25,0
2,note_on,56,0,282
2,note_on,52,0,0
2,note_on,51,28,0
2,note_on,58,32,0
2,note_on,58,0,889
2,note_on,51,0,0
2,note_on,51,28,480
2,note_on,53,28,0
2,note_on,56,28,0
2,note_on,61,32,0
2,note_on,61,0,707
2,note_on,51,0,0
2,note_on,53,0,0
2,note_on,56,0,0
2,note_on,51,28,0
2,note_on,53,28,0
2,note_on,56,28,0
2,note_on,61,32,0
2,note_on,61,0,480
2,note_on,51,0,0
2,note_on,53,0,0
2,note_on,56,0,0
2,note_on,61,36,0
2,note_on,58,32,0
2,note_on,55,32,0
2,note_on,51,32,0
2,note_on,51,0,946
2,note_on,61,0,0
2,note_on,58,0,0
2,note_on,55,0,0
2,note_on,63,31,0
2,note_on,51,27,0
2,note_on,51,0,402
2,note_on,63,0,0
2,note_on,63,33,0
2,note_on,56,29,0
2,note_on,56,0,400
2,note_on,63,0,0
2,note_on,56,51,480
2,note_on,60,51,0
2,note_on,65,57,0
2,note_on,65,0,240
2,note_on,60,0,0
2,note_on,56,0,0
2,note_on,56,51,0
2,note_on,60,51,0
2,note_on,65,57,0
2,note_on,65,0,960
2,note_on,60,0,0
2,note_on,56,0,0
2,note_on,56,51,0
2,note_on,60,51,0
2,note_on,65,57,0
2,note_on,65,0,480
2,note_on,60,0,0
2,note_on,56,0,0
2,note_on,56,54,0
2,note_on,60,61,0
2,note_on,60,0,734
2,note_on,56,0,0
2,note_on,56,48,0
2,note_on,60,54,0
2,note_on,60,0,310
2,note_on,56,0,0
2,note_on,65,57,0
2,note_on,61,51,0
2,note_on,58,51,0
2,note_on,55,51,0
2,note_on,65,0,1866
2,note_on,64,44,0
2,note_on,64,0,468
2,note_on,55,0,0
2,note_on,58,0,0
2,note_on,61,0,0
2,note_on,63,36,0
2,note_on,55,32,0
2,note_on,55,0,933
2,note_on,63,0,0
2,note_on,56,32,0
2,note_on,56,0,240
2,note_on,61,33,0
2,note_on,61,0,477
2,note_on,65,36,480
2,note_on,61,32,0
2,note_on,61,0,278
2,note_on,65,0,0
2,note_on,65,36,0
2,note_on,60,32,0
2,note_on,65,0,1093
2,note_on,63,34,0
2,note_on,63,0,460
2,note_on,60,0,0
2,note_on,56,37,112
2,note_on,51,39,240
2,note_on,51,0,240
2,note_on,48,40,0
2,note_on,48,0,240
2,note_on,56,0,0
2,note_on,46,33,0
2,note_on,51,33,0
2,note_on,55,37,0
2,note_on,55,0,640
2,note_on,51,0,0
2,note_on,46,0,0
2,note_on,44,36,0
2,note_on,51,36,0
2,note_on,56,40,0
2,note_on,56,0,186
2,note_on,51,0,0
2,note_on,44,0,0
2,note_on,43,36,0
2,note_on,51,36,0
2,note_on,55,41,0
2,note_on,55,0,761
2,note_on,51,0,0
2,note_on,43,0,0
2,note_on,41,40,0
2,note_on,46,40,0
2,note_on,53,45,0
2,note_on,53,0,281
2,note_on,46,0,0
2,note_on,41,0,0
2,note_on,39,43,0
2,note_on,46,43,0
2,note_on,51,48,0
2,note_on,51,0,477
2,note_on,46,0,0
2,note_on,39,0,0
2,note_on,32,45,480
2,note_on,44,50,0
2,note_on,44,0,240
2,note_on,32,0,0
2,note_on,37,51,0
2,note_on,49,57,0
2,note_on,49,0,477
2,note_on,37,0,0
2,note_on,32,45,480
2,note_on,44,50,0
2,note_on,44,0,314
2,note_on,32,0,0
2,note_on,37,51,0
2,note_on,49,57,0
2,note_on,49,0,476
2,note_on,37,0,0
2,note_on,38,55,0
2,note_on,50,62,0
2,note_on,50,0,951
2,note_on,38,0,0
2,note_on,38,56,9
2,note_on,50,63,0
2,note_on,50,0,456
2,note_on,38,0,0
2,note_on,38,56,24
2,note_on,50,63,0
2,note_on,50,0,456
2,note_on,38,0,0
2,note_on,38,54,0
2,note_on,50,61,0
2,note_on,50,0,227
2,note_on,38,0,0
2,note_on,37,60,24
2,note_on,49,67,0
2,note_on,49,0,274
2,note_on,37,0,0
2,note_on,35,63,0
2,note_on,47,70,0
2,note_on,47,0,251
2,note_on,35,0,0
2,note_on,33,61,0
2,note_on,45,72,0
2,note_on,45,0,183
2,note_on,33,0,0
2,note_on,47,66,0
2,note_on,35,59,0
2,note_on,35,0,205
2,note_on,47,0,0
2,note_on,37,51,0
2,note_on,49,57,0
2,note_on,49,0,183
2,note_on,37,0,0
2,note_on,39,35,0
2,note_on,51,39,0
2,note_on,51,0,955
2,note_on,39,0,0
2,note_on,52,48,0
2,note_on,50,48,0
2,note_on,56,48,0
2,note_on,59,60,0
2,note_on,59,0,863
2,note_on,52,0,0
2,note_on,50,0,0
2,note_on,56,0,0
2,note_on,50,35,19
2,note_on,52,35,0
2,note_on,56,35,0
2,note_on,59,44,0
2,note_on,59,0,456
2,note_on,50,0,0
2,note_on,52,0,0
2,note_on,56,0,0
2,note_on,50,35,24
2,note_on,52,35,0
2,note_on,56,35,0
2,note_on,59,44,0
2,note_on,59,0,456
2,note_on,50,0,0
2,note_on,52,0,0
2,note_on,56,0,0
2,note_on,50,32,24
2,note_on,52,32,0
2,note_on,56,32,0
2,note_on,59,41,0
2,note_on,59,0,480
2,note_on,50,0,0
2,note_on,52,0,0
2,note_on,56,0,0
2,note_on,49,35,0
2,note_on,52,35,0
2,note_on,57,35,0
2,note_on,61,44,0
2,note_on,61,0,324
2,note_on,49,0,0
2,note_on,52,0,0
2,note_on,57,0,0
2,note_on,47,35,0
2,note_on,52,35,0
2,note_on,62,44,0
2,note_on,59,35,0
2,note_on,59,0,275
2,note_on,47,0,0
2,note_on,52,0,0
2,note_on,62,0,0
2,note_on,66,48,0
2,note_on,66,0,120
2,note_on,45,36,0
2,note_on,52,36,0
2,note_on,61,41,0
2,note_on,64,46,0
2,note_on,64,0,297
2,note_on,45,0,0
2,note_on,52,0,0
2,note_on,61,0,0
2,note_on,47,35,0
2,note_on,52,35,0
2,note_on,59,35,0
2,note_on,62,44,0
2,note_on,62,0,274
2,note_on,47,0,0
2,note_on,52,0,0
2,note_on,59,0,0
2,note_on,49,31,0
2,note_on,52,31,0
2,note_on,57,31,0
2,note_on,61,39,0
2,note_on,61,0,274
2,note_on,49,0,0
2,note_on,52,0,0
2,note_on,57,0,0
2,note_on,51,30,0
2,note_on,56,30,0
2,note_on,59,34,0
2,note_on,59,0,1040
2,note_on,56,0,0
2,note_on,39,25,0
2,note_on,55,25,0
2,note_on,58,28,0
2,note_on,58,0,960
2,note_on,51,0,0
2,note_on,39,0,0
2,note_on,55,0,0
2,note_on,32,25,0
2,note_on,44,25,0
2,note_on,56,28,0
2,note_on,56,0,1840
2,note_on,44,0,0
2,note_on,32,0,0
2,note_on,37,27,0
2,note_on,44,27,0
2,note_on,49,27,0
2,note_on,53,27,0
2,note_on,56,34,0
2,note_on,56,0,480
2,note_on,49,0,0
2,note_on,37,0,0
2,note_on,44,0,0
2,note_on,53,0,0
2,note_on,37,27,0
2,note_on,44,27,0
2,note_on,49,27,0
2,note_on,53,27,0
2,note_on,56,34,0
2,note_on,56,0,1440
2,note_on,49,0,0
2,note_on,37,0,0
2,note_on,44,0,0
2,note_on,53,0,0
2,note_on,39,27,0
2,note_on,44,30,0
2,note_on,48,27,0
2,note_on,56,34,0
2,note_on,54,27,0
2,note_on,54,0,1214
2,note_on,48,0,0
2,note_on,39,0,0
2,note_on,44,0,0
2,note_on,56,0,0
2,note_on,41,27,0
2,note_on,44,27,0
2,note_on,49,30,0
2,note_on,61,34,0
2,note_on,53,30,0
2,note_on,56,30,0
2,note_on,56,0,360
2,note_on,44,0,0
2,note_on,49,0,0
2,note_on,41,0,0
2,note_on,53,0,0
2,note_on,61,0,0
2,note_on,42,28,120
2,note_on,46,28,0
2,note_on,49,28,0
2,note_on,61,36,0
2,note_on,58,28,0
2,note_on,54,28,0
2,note_on,54,0,360
2,note_on,46,0,0
2,note_on,49,0,0
2,note_on,42,0,0
2,note_on,58,0,0
2,note_on,61,0,0
2,note_on,43,30,120
2,note_on,46,30,0
2,note_on,49,30,0
2,note_on,63,38,0
2,note_on,61,34,0
2,note_on,58,30,0
2,note_on,51,30,0
2,note_on,51,0,360
2,note_on,61,0,0
2,note_on,63,0,0
2,note_on,46,0,0
2,note_on,43,0,0
2,note_on,58,0,0
2,note_on,49,0,120
2,note_on,44,31,0
2,note_on,48,31,0
2,note_on,51,31,0
2,note_on,56,35,0
2,note_on,56,0,960
2,note_on,44,0,0
2,note_on,48,0,0
2,note_on,51,0,0
2,note_on,41,29,0
2,note_on,49,29,0
2,note_on,53,33,0
2,note_on,53,0,269
2,note_on,49,0,0
2,note_on,41,0,0
2,note_on,41,29,24
2,note_on,49,29,0
2,note_on,53,33,0
2,note_on,53,0,480
2,note_on,49,0,0
2,note_on,41,0,0
2,note_on,42,32,0
2,note_on,54,36,0
2,note_on,49,32,0
2,note_on,54,0,141
2,note_on,42,0,0
2,note_on,41,28,0
2,note_on,53,32,0
2,note_on,53,0,240
2,note_on,41,0,0
2,note_on,49,0,0
2,note_on,41,28,0
2,note_on,49,28,0
2,note_on,53,32,0
2,note_on,53,0,213
2,note_on,49,0,0
2,note_on,41,0,0
2,note_on,46,35,0
2,note_on,58,39,0
2,note_on,58,0,293
2,note_on,46,0,0
2,note_on,42,32,0
2,note_on,54,36,0
2,note_on,54,0,480
2,note_on,42,0,0
2,note_on,39,30,0
2,note_on,51,34,0
2,note_on,51,0,269
2,note_on,39,0,0
2,note_on,36,34,0
2,note_on,48,38,0
2,note_on,48,0,249
2,note_on,36,0,0
2,note_on,32,32,0
2,note_on,44,36,0
2,note_on,44,0,230
2,note_on,32,0,0
2,note_on,37,32,0
2,note_on,49,36,0
2,note_on,49,0,560
2,note_on,37,0,0
2,note_on,49,27,0
2,note_on,56,27,0
2,note_on,61,30,0
2,note_on,61,0,109
2,note_on,56,0,0
2,note_on,49,0,0
2,note_on,49,27,24
2,note_on,56,27,0
2,note_on,61,30,0
2,note_on,61,0,1440
2,note_on,56,0,0
2,note_on,49,0,0
2,note_on,51,27,0
2,note_on,56,27,0
2,note_on,60,30,0
2,note_on,60,0,1186
2,note_on,56,0,0
2,note_on,51,0,0
2,note_on,53,27,0
2,note_on,56,27,0
2,note_on,61,30,0
2,note_on,61,0,360
2,note_on,56,0,0
2,note_on,53,0,0
2,note_on,54,28,120
2,note_on,58,28,0
2,note_on,61,32,0
2,note_on,61,0,360
2,note_on,58,0,0
2,note_on,54,0,0
2,note_on,55,30,120
2,note_on,58,30,0
2,note_on,61,30,0
2,note_on,63,34,0
2,note_on,63,0,360
2,note_on,55,0,0
2,note_on,58,0,0
2,note_on,61,0,0
2,note_on,56,31,120
2,note_on,60,31,0
2,note_on,63,35,0
2,note_on,63,0,773
2,note_on,60,0,0
2,note_on,56,0,0
2,note_on,53,38,0
2,note_on,61,38,0
2,note_on,65,43,0
2,note_on,65,0,189
2,note_on,61,0,0
2,note_on,53,0,0
2,note_on,53,38,24
2,note_on,61,38,0
2,note_on,65,43,0
2,note_on,65,0,480
2,note_on,61,0,0
2,note_on,53,0,0
2,note_on,54,41,0
2,note_on,66,46,0
2,note_on,61,41,0
2,note_on,66,0,141
2,note_on,54,0,0
2,note_on,53,36,0
2,note_on,65,41,0
2,note_on,65,0,240
2,note_on,53,0,0
2,note_on,61,0,0
2,note_on,53,36,0
2,note_on,61,36,0
2,note_on,65,41,0
2,note_on,65,0,106
2,note_on,61,0,0
2,note_on,53,0,0
2,note_on,58,46,0
2,note_on,70,52,0
2,note_on,70,0,480
2,note_on,58,0,0
2,note_on,54,41,0
2,note_on,66,46,0
2,note_on,66,0,480
2,note_on,54,0,0
2,note_on,51,38,0
2,note_on,63,43,0
2,note_on,63,0,265
2,note_on,51,0,0
2,note_on,48,45,0
2,note_on,60,51,0
2,note_on,60,0,298
2,note_on,48,0,0
2,note_on,44,45,0
2,note_on,56,50,0
2,note_on,56,0,265
2,note_on,44,0,0
2,note_on,49,40,0
2,note_on,61,45,0
2,note_on,61,0,586
2,note_on,49,0,0
2,note_on,48,51,0
2,note_on,56,51,0
2,note_on,60,57,0
2,note_on,60,0,269
2,note_on,56,0,0
2,note_on,48,0,0
2,note_on,48,51,0
2,note_on,56,51,0
2,note_on,60,57,0
2,note_on,60,0,762
2,note_on,56,0,0
2,note_on,48,0,0
2,note_on,46,50,0
2,note_on,58,56,0
2,note_on,56,56,0
2,note_on,58,0,42
2,note_on,46,0,0
2,note_on,48,50,0
2,note_on,60,56,0
2,note_on,60,0,240
2,note_on,48,0,0
2,note_on,56,0,0
2,note_on,44,51,0
2,note_on,56,57,0
2,note_on,56,0,133
2,note_on,44,0,0
2,note_on,48,54,0
2,note_on,60,61,0
2,note_on,56,54,0
2,note_on,56,0,480
2,note_on,60,0,0
2,note_on,48,0,0
2,note_on,61,61,0
2,note_on,56,54,0
2,note_on,49,54,0
2,note_on,49,0,240
2,note_on,56,0,0
2,note_on,61,0,0
2,note_on,63,63,0
2,note_on,56,56,0
2,note_on,51,56,0
2,note_on,51,0,126
2,note_on,56,0,0
2,note_on,63,0,0
2,note_on,65,66,0
2,note_on,56,59,0
2,note_on,53,59,0
2,note_on,53,0,480
2,note_on,56,0,0
2,note_on,65,0,0
2,note_on,54,54,0
2,note_on,56,54,0
2,note_on,66,61,0
2,note_on,66,0,252
2,note_on,56,0,0
2,note_on,54,0,0
2,note_on,48,44,0
2,note_on,60,49,0
2,note_on,56,44,0
2,note_on,56,0,229
2,note_on,60,0,0
2,note_on,48,0,0
2,note_on,49,35,0
2,note_on,56,35,0
2,note_on,61,39,0
2,note_on,61,0,988
2,note_on,56,0,0
2,note_on,49,0,0
2,note_on,56,35,0
2,note_on,48,35,0
2,note_on,60,39,0
2,note_on,60,0,617
2,note_on,48,0,0
2,note_on,47,32,0
2,note_on,59,36,0
2,note_on,59,0,205
2,note_on,47,0,0
2,note_on,56,0,0
2,note_on,46,33,0
2,note_on,51,33,0
2,note_on,58,37,0
2,note_on,58,0,734
2,note_on,51,0,0
2,note_on,46,0,0
2,note_on,51,36,0
2,note_on,51,0,480
2,note_on,45,34,0
2,note_on,51,34,0
2,note_on,57,38,0
2,note_on,57,0,706
2,note_on,51,0,0
2,note_on,45,0,0
2,note_on,51,29,0
2,note_on,57,33,0
2,note_on,57,0,480
2,note_on,51,0,0
2,note_on,46,32,0
2,note_on,51,32,0
2,note_on,58,36,0
2,note_on,58,0,720
2,note_on,51,0,0
2,note_on,46,0,0
2,note_on,51,31,0
2,note_on,51,0,480
2,note_on,51,30,0
2,note_on,44,27,0
2,note_on,51,0,525
2,note_on,56,29,0
2,note_on,56,0,480
2,note_on,44,0,0
2,note_on,53,22,0
2,note_on,37,22,0
2,note_on,44,22,0
2,note_on,49,22,0
2,note_on,56,25,0
2,note_on,56,0,1073
2,note_on,44,0,0
2,note_on,53,0,0
2,note_on,37,0,0
2,note_on,49,0,0
2,note_on,44,22,0
2,note_on,39,22,0
2,note_on,56,25,0
2,note_on,48,22,0
2,note_on,54,22,0
2,note_on,54,0,1214
2,note_on,56,0,0
2,note_on,44,0,0
2,note_on,39,0,0
2,note_on,48,0,0
2,note_on,56,22,0
2,note_on,41,22,0
2,note_on,44,22,0
2,note_on,49,22,0
2,note_on,61,28,0
2,note_on,53,22,0
2,note_on,53,0,346
2,note_on,41,0,0
2,note_on,44,0,0
2,note_on,56,0,0
2,note_on,61,0,0
2,note_on,49,0,0
2,note_on,61,30,120
2,note_on,42,24,0
2,note_on,46,24,0
2,note_on,49,24,0
2,note_on,54,24,0
2,note_on,58,24,0
2,note_on,58,0,360
2,note_on,42,0,0
2,note_on,46,0,0
2,note_on,61,0,0
2,note_on,54,0,0
2,note_on,49,0,0
2,note_on,49,25,120
2,note_on,43,25,0
2,note_on,46,25,0
2,note_on,51,25,0
2,note_on,63,32,0
2,note_on,61,25,0
2,note_on,58,25,0
2,note_on,58,0,360
2,note_on,63,0,0
2,note_on,43,0,0
2,note_on,46,0,0
2,note_on,49,0,0
2,note_on,61,0,0
2,note_on,51,0,0
2,note_on,56,29,120
2,note_on,44,23,0
2,note_on,48,23,0
2,note_on,51,23,0
2,note_on,51,0,853
2,note_on,56,0,0
2,note_on,44,0,0
2,note_on,48,0,0
2,note_on,41,38,0
2,note_on,53,43,0
2,note_on,49,38,0
2,note_on,49,0,136
2,note_on,53,0,0
2,note_on,41,0,0
2,note_on,49,38,24
2,note_on,41,38,0
2,note_on,53,43,0
2,note_on,53,0,960
2,note_on,41,0,0
2,note_on,49,0,0
2,note_on,49,38,0
2,note_on,42,38,0
2,note_on,54,43,0
2,note_on,54,0,84
2,note_on,42,0,0
2,note_on,53,39,0
2,note_on,41,39,0
2,note_on,41,0,240
2,note_on,53,0,0
2,note_on,49,0,0
2,note_on,49,35,0
2,note_on,41,39,0
2,note_on,53,39,0
2,note_on,53,0,293
2,note_on,41,0,0
2,note_on,49,0,0
2,note_on,61,54,0
2,note_on,56,54,0
2,note_on,49,48,0
2,note_on,49,0,480
2,note_on,56,0,0
2,note_on,61,0,0
2,note_on,56,45,0
2,note_on,60,51,0
2,note_on,48,45,0
2,note_on,48,0,293
2,note_on,60,0,0
2,note_on,56,0,0
2,note_on,53,51,0
2,note_on,46,51,0
2,note_on,58,57,0
2,note_on,58,0,657
2,note_on,46,0,0
2,note_on,53,0,0
2,note_on,54,48,0
2,note_on,44,48,0
2,note_on,56,54,0
2,note_on,56,0,227
2,note_on,44,0,0
2,note_on,54,0,0
2,note_on,49,51,0
2,note_on,56,57,0
2,note_on,53,51,0
2,note_on,53,0,666
2,note_on,56,0,0
2,note_on,49,0,0
2,note_on,61,53,0
2,note_on,65,59,0
2,note_on,53,53,0
2,note_on,53,0,216
2,note_on,65,0,0
2,note_on,61,0,0
2,note_on,65,57,24
2,note_on,53,51,0
2,note_on,61,51,0
2,note_on,61,0,960
2,note_on,53,0,0
2,note_on,65,0,0
2,note_on,54,54,0
2,note_on,66,61,0
2,note_on,61,54,0
2,note_on,66,0,99
2,note_on,54,0,0
2,note_on,65,57,0
2,note_on,53,51,0
2,note_on,53,0,240
2,note_on,65,0,0
2,note_on,61,0,0
2,note_on,65,59,0
2,note_on,53,53,0
2,note_on,61,53,0
2,note_on,61,0,53
2,note_on,53,0,0
2,note_on,65,0,0
2,note_on,60,57,720
2,note_on,48,51,0
2,note_on,56,51,0
2,note_on,56,0,242
2,note_on,48,0,0
2,note_on,60,0,0
2,note_on,48,51,24
2,note_on,56,51,0
2,note_on,60,57,0
2,note_on,60,0,960
2,note_on,56,0,0
2,note_on,48,0,0
2,note_on,46,50,0
2,note_on,58,56,0
2,note_on,56,50,0
2,note_on,58,0,113
2,note_on,46,0,0
2,note_on,48,50,0
2,note_on,60,56,0
2,note_on,60,0,240
2,note_on,48,0,0
2,note_on,56,0,0
2,note_on,44,51,0
2,note_on,56,57,0
2,note_on,56,0,213
2,note_on,44,0,0
2,note_on,48,54,0
2,note_on,60,61,0
2,note_on,56,54,0
2,note_on,56,0,480
2,note_on,60,0,0
2,note_on,48,0,0
2,note_on,61,61,0
2,note_on,56,54,0
2,note_on,49,54,0
2,note_on,49,0,266
2,note_on,56,0,0
2,note_on,61,0,0
2,note_on,63,63,0
2,note_on,56,56,0
2,note_on,51,56,0
2,note_on,51,0,202
2,note_on,56,0,0
2,note_on,63,0,0
2,note_on,65,66,0
2,note_on,56,59,0
2,note_on,53,59,0
2,note_on,53,0,480
2,note_on,56,0,0
2,note_on,65,0,0
2,note_on,54,54,0
2,note_on,56,54,0
2,note_on,66,61,0
2,note_on,66,0,278
2,note_on,56,0,0
2,note_on,54,0,0
2,note_on,48,44,0
2,note_on,60,49,0
2,note_on,56,44,0
2,note_on,56,0,228
2,note_on,60,0,0
2,note_on,48,0,0
2,note_on,49,35,0
2,note_on,56,35,0
2,note_on,61,39,0
2,note_on,61,0,1157
2,note_on,56,0,0
2,note_on,49,0,0
2,note_on,56,35,0
2,note_on,48,35,0
2,note_on,60,39,0
2,note_on,60,0,617
2,note_on,48,0,0
2,note_on,47,32,0
2,note_on,59,36,0
2,note_on,59,0,205
2,note_on,47,0,0
2,note_on,56,0,0
2,note_on,46,33,0
2,note_on,51,33,0
2,note_on,58,37,0
2,note_on,58,0,692
2,note_on,51,0,0
2,note_on,46,0,0
2,note_on,51,36,0
2,note_on,51,0,480
2,note_on,45,34,0
2,note_on,51,34,0
2,note_on,57,38,0
2,note_on,57,0,748
2,note_on,51,0,0
2,note_on,45,0,0
2,note_on,51,29,0
2,note_on,57,33,0
2,note_on,57,0,480
2,note_on,51,0,0
2,note_on,46,32,0
2,note_on,51,32,0
2,note_on,58,36,0
2,note_on,58,0,692
2,note_on,51,0,0
2,note_on,46,0,0
2,note_on,51,31,0
2,note_on,51,0,480
2,note_on,51,30,0
2,note_on,44,27,0
2,note_on,51,0,663
2,note_on,56,29,0
2,note_on,56,0,480
2,note_on,44,0,0
2,note_on,37,22,0
2,note_on,44,22,0
2,note_on,49,22,0
2,note_on,53,22,0
2,note_on,56,25,0
2,note_on,56,0,1214
2,note_on,49,0,0
2,note_on,37,0,0
2,note_on,44,0,0
2,note_on,53,0,0
2,note_on,39,22,0
2,note_on,44,22,0
2,note_on,48,22,0
2,note_on,56,25,0
2,note_on,54,22,0
2,note_on,54,0,1200
2,note_on,48,0,0
2,note_on,39,0,0
2,note_on,44,0,0
2,note_on,56,0,0
2,note_on,49,22,0
2,note_on,41,22,0
2,note_on,44,22,0
2,note_on,61,28,0
2,note_on,53,22,0
2,note_on,56,22,0
2,note_on,56,0,348
2,note_on,41,0,0
2,note_on,44,0,0
2,note_on,49,0,0
2,note_on,53,0,0
2,note_on,61,0,0
2,note_on,49,24,120
2,note_on,42,24,0
2,note_on,46,24,0
2,note_on,61,30,0
2,note_on,58,24,0
2,note_on,54,24,0
2,note_on,54,0,360
2,note_on,42,0,0
2,note_on,46,0,0
2,note_on,49,0,0
2,note_on,58,0,0
2,note_on,61,0,0
2,note_on,43,25,120
2,note_on,46,25,0
2,note_on,49,25,0
2,note_on,63,32,0
2,note_on,61,25,0
2,note_on,58,25,0
2,note_on,51,25,0
2,note_on,51,0,360
2,note_on,61,0,0
2,note_on,46,0,0
2,note_on,49,0,0
2,note_on,43,0,0
2,note_on,58,0,0
2,note_on,63,0,0
2,note_on,44,23,120
2,note_on,48,23,0
2,note_on,51,23,0
2,note_on,56,29,0
2,note_on,56,0,773
2,note_on,44,0,0
2,note_on,48,0,0
2,note_on,51,0,0
2,note_on,41,38,0
2,note_on,49,38,0
2,note_on,53,43,0
2,note_on,53,0,189
2,note_on,49,0,0
2,note_on,41,0,0
2,note_on,41,38,24
2,note_on,49,38,0
2,note_on,53,43,0
2,note_on,53,0,960
2,note_on,49,0,0
2,note_on,41,0,0
2,note_on,42,38,0
2,note_on,54,43,0
2,note_on,49,38,0
2,note_on,54,0,99
2,note_on,42,0,0
2,note_on,41,35,0
2,note_on,53,39,0
2,note_on,53,0,240
2,note_on,41,0,0
2,note_on,49,0,0
2,note_on,41,35,0
2,note_on,49,35,0
2,note_on,53,39,0
2,note_on,53,0,160
2,note_on,49,0,0
2,note_on,41,0,0
2,note_on,56,48,0
2,note_on,49,48,0
2,note_on,61,54,0
2,note_on,61,0,480
2,note_on,49,0,0
2,note_on,56,0,0
2,note_on,56,45,0
2,note_on,48,45,0
2,note_on,60,51,0
2,note_on,60,0,293
2,note_on,48,0,0
2,note_on,56,0,0
2,note_on,46,51,0
2,note_on,53,51,0
2,note_on,58,57,0
2,note_on,58,0,707
2,note_on,53,0,0
2,note_on,46,0,0
2,note_on,44,48,0
2,note_on,56,54,0
2,note_on,54,48,0
2,note_on,54,0,252
2,note_on,56,0,0
2,note_on,44,0,0
2,note_on,49,51,0
2,note_on,53,51,0
2,note_on,56,57,0
2,note_on,56,0,746
2,note_on,53,0,0
2,note_on,49,0,0
2,note_on,65,59,0
2,note_on,61,53,0
2,note_on,53,53,0
2,note_on,53,0,242
2,note_on,61,0,0
2,note_on,65,0,0
2,note_on,53,51,24
2,note_on,61,51,0
2,note_on,65,57,0
2,note_on,65,0,960
2,note_on,61,0,0
2,note_on,53,0,0
2,note_on,66,61,0
2,note_on,54,54,0
2,note_on,61,54,0
2,note_on,54,0,70
2,note_on,66,0,0
2,note_on,65,57,0
2,note_on,53,51,0
2,note_on,53,0,240
2,note_on,65,0,0
2,note_on,61,0,0
2,note_on,65,59,0
2,note_on,61,53,0
2,note_on,53,53,0
2,note_on,53,0,266
2,note_on,61,0,0
2,note_on,65,0,0
2,note_on,56,36,310
2,note_on,56,0,381
2,note_on,61,38,0
2,note_on,61,0,466
2,note_on,65,45,480
2,note_on,61,40,0
2,note_on,61,0,303
2,note_on,65,0,0
2,note_on,65,45,0
2,note_on,60,40,0
2,note_on,65,0,1146
2,note_on,63,43,0
2,note_on,63,0,472
2,note_on,60,0,0
2,note_on,56,42,112
2,note_on,56,0,240
2,note_on,51,44,0
2,note_on,51,0,240
2,note_on,48,45,0
2,note_on,48,0,240
2,note_on,46,37,0
2,note_on,51,37,0
2,note_on,55,42,0
2,note_on,55,0,640
2,note_on,51,0,0
2,note_on,46,0,0
2,note_on,44,40,0
2,note_on,51,40,0
2,note_on,56,45,0
2,note_on,56,0,186
2,note_on,51,0,0
2,note_on,44,0,0
2,note_on,43,41,0
2,note_on,51,41,0
2,note_on,55,46,0
2,note_on,55,0,711
2,note_on,51,0,0
2,note_on,43,0,0
2,note_on,41,43,0
2,note_on,46,43,0
2,note_on,53,48,0
2,note_on,53,0,298
2,note_on,46,0,0
2,note_on,41,0,0
2,note_on,39,45,0
2,note_on,46,45,0
2,note_on,51,51,0
2,note_on,51,0,474
2,note_on,46,0,0
2,note_on,39,0,0
2,note_on,56,37,480
2,note_on,56,0,320
2,note_on,61,41,0
2,note_on,61,0,471
2,note_on,37,40,480
2,note_on,49,45,0
2,note_on,49,0,297
2,note_on,37,0,0
2,note_on,36,44,0
2,note_on,48,49,0
2,note_on,48,0,466
2,note_on,36,0,0
2,note_on,64,36,480
2,note_on,60,32,0
2,note_on,60,0,320
2,note_on,64,0,0
2,note_on,63,40,0
2,note_on,58,36,0
2,note_on,58,0,560
2,note_on,63,0,0
2,note_on,63,42,0
2,note_on,56,37,0
2,note_on,56,0,160
2,note_on,63,0,0
2,note_on,49,51,0
2,note_on,49,0,776
2,note_on,51,43,0
2,note_on,51,0,240
2,note_on,44,31,0
2,note_on,51,35,0
2,note_on,51,0,473
2,note_on,44,0,0
2,note_on,52,25,480
2,note_on,56,25,0
2,note_on,59,28,0
2,note_on,59,0,410
2,note_on,56,0,0
2,note_on,52,0,0
2,note_on,52,25,24
2,note_on,56,25,0
2,note_on,59,28,0
2,note_on,52,0,1440
2,note_on,51,22,0
2,note_on,51,0,474
2,note_on,59,0,0
2,note_on,56,0,0
2,note_on,49,27,480
2,note_on,56,27,0
2,note_on,59,30,0
2,note_on,59,0,296
2,note_on,56,0,0
2,note_on,49,0,0
2,note_on,49,28,24
2,note_on,56,28,0
2,note_on,59,32,0
2,note_on,49,0,1440
2,note_on,47,21,0
2,note_on,47,0,466
2,note_on,59,0,0
2,note_on,56,0,0
2,note_on,47,29,480
2,note_on,56,29,0
2,note_on,59,33,0
2,note_on,59,0,297
2,note_on,56,0,0
2,note_on,47,0,0
2,note_on,49,35,0
2,note_on,58,39,0
2,note_on,56,35,0
2,note_on,49,0,1115
2,note_on,46,40,0
2,note_on,46,0,296
2,note_on,47,37,0
2,note_on,47,0,296
2,note_on,56,0,0
2,note_on,58,0,0
2,note_on,49,35,0
2,note_on,49,0,324
2,note_on,51,35,0
2,note_on,51,0,463
2,note_on,52,22,480
2,note_on,56,22,0
2,note_on,59,25,0
2,note_on,59,0,273
2,note_on,56,0,0
2,note_on,52,0,0
2,note_on,52,22,24
2,note_on,56,22,0
2,note_on,59,25,0
2,note_on,52,0,1440
2,note_on,51,19,0
2,note_on,51,0,465
2,note_on,59,0,0
2,note_on,56,0,0
2,note_on,49,28,480
2,note_on,56,28,0
2,note_on,59,32,0
2,note_on,59,0,387
2,note_on,56,0,0
2,note_on,49,0,0
2,note_on,49,27,24
2,note_on,56,27,0
2,note_on,59,31,0
2,note_on,49,0,1440
2,note_on,47,18,0
2,note_on,47,0,478
2,note_on,59,0,0
2,note_on,56,0,0
2,note_on,52,34,0
2,note_on,47,34,0
2,note_on,56,34,0
2,note_on,59,38,0
2,note_on,59,0,480
2,note_on,52,0,0
2,note_on,47,0,0
2,note_on,56,0,0
2,note_on,47,39,0
2,note_on,52,39,0
2,note_on,56,39,0
2,note_on,59,44,0
2,note_on,59,0,296
2,note_on,47,0,0
2,note_on,52,0,0
2,note_on,56,0,0
2,note_on,47,37,0
2,note_on,52,37,0
2,note_on,56,37,0
2,note_on,59,42,0
2,note_on,59,0,1327
2,note_on,47,0,0
2,note_on,52,0,0
2,note_on,56,0,0
2,note_on,47,35,0
2,note_on,53,35,0
2,note_on,56,39,0
2,note_on,56,0,1228
2,note_on,53,0,0
2,note_on,47,0,0
2,note_on,47,43,0
2,note_on,54,38,0
2,note_on,57,43,0
2,note_on,57,0,268
2,note_on,54,0,0
2,note_on,56,38,0
2,note_on,59,43,0
2,note_on,59,0,282
2,note_on,56,0,0
2,note_on,57,38,0
2,note_on,59,43,0
2,note_on,59,0,296
2,note_on,57,0,0
2,note_on,47,0,0
2,note_on,40,41,0
2,note_on,47,41,0
2,note_on,52,46,0
2,note_on,52,0,1207
2,note_on,47,0,0
2,note_on,40,0,0
2,note_on,40,46,0
2,note_on,40,0,169
2,note_on,40,33,0
2,note_on,45,37,0
2,note_on,45,0,480
2,note_on,47,35,0
2,note_on,47,0,230
2,note_on,48,33,0
2,note_on,48,0,353
2,note_on,40,0,0
2,note_on,47,27,0
2,note_on,40,24,0
2,note_on,40,0,1221
2,note_on,47,0,0
2,note_on,40,46,0
2,note_on,40,0,134
2,note_on,40,27,0
2,note_on,45,35,0
2,note_on,45,0,536
2,note_on,47,32,0
2,note_on,47,0,232
2,note_on,48,29,0
2,note_on,48,0,296
2,note_on,40,0,0
2,note_on,47,23,0
2,note_on,40,20,0
2,note_on,40,0,986
2,note_on,47,0,0
2,note_on,52,28,0
2,note_on,59,32,0
2,note_on,59,0,640
2,note_on,52,0,0
2,note_on,52,23,0
2,note_on,59,26,0
2,note_on,59,0,480
2,note_on,52,0,0
2,note_on,52,28,0
2,note_on,59,32,0
2,note_on,59,0,748
2,note_on,52,0,0
2,note_on,52,25,0
2,note_on,56,25,0
2,note_on,56,0,268
2,note_on,52,0,0
2,note_on,51,28,0
2,note_on,58,32,0
2,note_on,58,0,947
2,note_on,51,0,0
2,note_on,51,28,480
2,note_on,53,28,0
2,note_on,56,28,0
2,note_on,61,32,0
2,note_on,61,0,733
2,note_on,51,0,0
2,note_on,53,0,0
2,note_on,56,0,0
2,note_on,51,28,0
2,note_on,53,28,0
2,note_on,56,28,0
2,note_on,61,32,0
2,note_on,61,0,480
2,note_on,51,0,0
2,note_on,53,0,0
2,note_on,56,0,0
2,note_on,61,36,0
2,note_on,58,32,0
2,note_on,55,32,0
2,note_on,51,32,0
2,note_on,51,0,960
2,note_on,61,0,0
2,note_on,58,0,0
2,note_on,55,0,0
2,note_on,63,31,0
2,note_on,51,27,0
2,note_on,51,0,402
2,note_on,63,0,0
2,note_on,63,33,0
2,note_on,56,29,0
2,note_on,56,0,477
2,note_on,63,0,0
2,note_on,56,51,0
2,note_on,60,51,0
2,note_on,65,57,0
2,note_on,65,0,456
2,note_on,60,0,0
2,note_on,56,0,0
2,note_on,56,51,24
2,note_on,60,51,0
2,note_on,65,57,0
2,note_on,65,0,960
2,note_on,60,0,0
2,note_on,56,0,0
2,note_on,56,51,0
2,note_on,60,51,0
2,note_on,65,57,0
2,note_on,65,0,480
2,note_on,60,0,0
2,note_on,56,0,0
2,note_on,56,54,0
2,note_on,60,61,0
2,note_on,60,0,776
2,note_on,56,0,0
2,note_on,56,48,0
2,note_on,60,54,0
2,note_on,60,0,212
2,note_on,56,0,0
2,note_on,65,57,0
2,note_on,61,51,0
2,note_on,58,51,0
2,note_on,55,51,0
2,note_on,65,0,1840
2,note_on,64,44,0
2,note_on,64,0,472
2,note_on,55,0,0
2,note_on,58,0,0
2,note_on,61,0,0
2,note_on,63,32,0
2,note_on,55,28,0
2,note_on,55,0,946
2,note_on,63,0,0
2,note_on,56,32,0
2,note_on,56,0,240
2,note_on,61,33,0
2,note_on,61,0,473
2,note_on,65,36,480
2,note_on,61,32,0
2,note_on,61,0,252
2,note_on,65,0,0
2,note_on,65,36,0
2,note_on,60,32,0
2,note_on,65,0,1040
2,note_on,63,34,0
2,note_on,63,0,466
2,note_on,60,0,0
2,note_on,56,37,240
2,note_on,51,39,240
2,note_on,51,0,240
2,note_on,48,40,0
2,note_on,48,0,240
2,note_on,56,0,0
2,note_on,46,33,0
2,note_on,51,33,0
2,note_on,55,37,0
2,note_on,55,0,453
2,note_on,51,0,0
2,note_on,46,0,0
2,note_on,44,36,0
2,note_on,51,36,0
2,note_on,56,40,0
2,note_on,56,0,240
2,note_on,51,0,0
2,note_on,44,0,0
2,note_on,43,36,0
2,note_on,51,36,0
2,note_on,55,41,0
2,note_on,55,0,662
2,note_on,51,0,0
2,note_on,43,0,0
2,note_on,41,40,0
2,note_on,46,40,0
2,note_on,53,45,0
2,note_on,53,0,331
2,note_on,46,0,0
2,note_on,41,0,0
2,note_on,39,43,0
2,note_on,46,43,0
2,note_on,51,48,0
2,note_on,51,0,478
2,note_on,46,0,0
2,note_on,39,0,0
2,note_on,32,45,480
2,note_on,44,50,0
2,note_on,44,0,266
2,note_on,32,0,0
2,note_on,37,51,0
2,note_on,49,57,0
2,note_on,49,0,476
2,note_on,37,0,0
2,note_on,32,45,480
2,note_on,44,50,0
2,note_on,44,0,347
2,note_on,32,0,0
2,note_on,37,51,0
2,note_on,49,57,0
2,note_on,49,0,476
2,note_on,37,0,0
2,note_on,38,55,0
2,note_on,50,62,0
2,note_on,50,0,951
2,note_on,38,0,0
2,note_on,38,56,9
2,note_on,50,63,0
2,note_on,50,0,456
2,note_on,38,0,0
2,note_on,38,56,24
2,note_on,50,63,0
2,note_on,50,0,456
2,note_on,38,0,0
2,note_on,38,54,0
2,note_on,50,61,0
2,note_on,50,0,181
2,note_on,38,0,0
2,note_on,37,60,24
2,note_on,49,67,0
2,note_on,49,0,251
2,note_on,37,0,0
2,note_on,35,63,0
2,note_on,47,70,0
2,note_on,47,0,320
2,note_on,35,0,0
2,note_on,33,64,0
2,note_on,45,72,0
2,note_on,45,0,297
2,note_on,33,0,0
2,note_on,47,66,0
2,note_on,35,59,0
2,note_on,35,0,251
2,note_on,47,0,0
2,note_on,37,51,0
2,note_on,49,57,0
2,note_on,49,0,251
2,note_on,37,0,0
2,note_on,39,35,0
2,note_on,51,39,0
2,note_on,51,0,957
2,note_on,39,0,0
2,note_on,52,48,0
2,note_on,50,48,0
2,note_on,56,48,0
2,note_on,59,60,0
2,note_on,59,0,860
2,note_on,52,0,0
2,note_on,50,0,0
2,note_on,56,0,0
2,note_on,50,35,9
2,note_on,52,35,0
2,note_on,56,35,0
2,note_on,59,44,0
2,note_on,59,0,456
2,note_on,50,0,0
2,note_on,52,0,0
2,note_on,56,0,0
2,note_on,50,35,24
2,note_on,52,35,0
2,note_on,56,35,0
2,note_on,59,44,0
2,note_on,59,0,456
2,note_on,50,0,0
2,note_on,52,0,0
2,note_on,56,0,0
2,note_on,50,32,24
2,note_on,52,32,0
2,note_on,56,32,0
2,note_on,59,41,0
2,note_on,59,0,456
2,note_on,50,0,0
2,note_on,52,0,0
2,note_on,56,0,0
2,note_on,49,35,24
2,note_on,52,35,0
2,note_on,57,35,0
2,note_on,61,44,0
2,note_on,61,0,339
2,note_on,49,0,0
2,note_on,52,0,0
2,note_on,57,0,0
2,note_on,47,35,0
2,note_on,52,35,0
2,note_on,62,44,0
2,note_on,59,35,0
2,note_on,59,0,346
2,note_on,47,0,0
2,note_on,52,0,0
2,note_on,62,0,0
2,note_on,66,48,0
2,note_on,66,0,120
2,note_on,45,33,0
2,note_on,52,33,0
2,note_on,61,33,0
2,note_on,64,42,0
2,note_on,64,0,388
2,note_on,45,0,0
2,note_on,52,0,0
2,note_on,61,0,0
2,note_on,47,32,0
2,note_on,52,32,0
2,note_on,59,32,0
2,note_on,62,40,0
2,note_on,62,0,251
2,note_on,47,0,0
2,note_on,52,0,0
2,note_on,59,0,0
2,note_on,49,28,0
2,note_on,52,28,0
2,note_on,57,28,0
2,note_on,61,36,0
2,note_on,61,0,320
2,note_on,49,0,0
2,note_on,52,0,0
2,note_on,57,0,0
2,note_on,51,27,0
2,note_on,56,27,0
2,note_on,59,31,0
2,note_on,59,0,1066
2,note_on,56,0,0
2,note_on,39,25,0
2,note_on,55,28,0
2,note_on,58,28,0
2,note_on,58,0,1093
2,note_on,51,0,0
2,note_on,39,0,0
2,note_on,55,0,0
2,note_on,32,25,0
2,note_on,44,25,0
2,note_on,56,28,0
2,note_on,56,0,2000
2,note_on,44,0,0
2,note_on,32,0,0
