Track,Message Type,Note,Velocity,Time
1,note_on,69,50,1
1,note_on,69,0,159
1,note_on,71,46,0
1,note_on,71,0,160
1,note_on,72,46,0
1,note_on,72,0,160
1,note_on,71,50,0
1,note_on,71,0,160
1,note_on,72,46,0
1,note_on,72,0,160
1,note_on,74,46,0
1,note_on,74,0,160
1,note_on,76,65,0
1,note_on,76,0,480
1,note_on,69,50,0
1,note_on,69,0,160
1,note_on,71,45,0
1,note_on,71,0,160
1,note_on,72,45,0
1,note_on,72,0,160
1,note_on,71,70,0
1,note_on,72,44,160
1,note_on,72,0,160
1,note_on,74,44,0
1,note_on,74,0,160
1,note_on,71,0,0
1,note_on,76,65,0
1,note_on,76,0,480
1,note_on,69,50,0
1,note_on,69,0,160
1,note_on,71,45,0
1,note_on,71,0,160
1,note_on,72,45,0
1,note_on,72,0,160
1,note_on,71,66,0
1,note_on,72,45,160
1,note_on,72,0,160
1,note_on,74,45,0
1,note_on,74,0,160
1,note_on,71,0,0
1,note_on,72,50,0
1,note_on,72,0,160
1,note_on,74,48,0
1,note_on,74,0,160
1,note_on,76,50,0
1,note_on,76,0,160
1,note_on,77,50,0
1,note_on,77,0,160
1,note_on,79,54,0
1,note_on,79,0,160
1,note_on,81,58,0
1,note_on,81,0,160
1,note_on,79,61,0
1,note_on,79,0,160
1,note_on,77,56,0
1,note_on,77,0,160
1,note_on,76,53,0
1,note_on,76,0,160
1,note_on,74,55,0
1,note_on,74,0,160
1,note_on,72,52,0
1,note_on,72,0,160
1,note_on,71,48,0
1,note_on,71,0,160
1,note_on,69,56,0
1,note_on,69,0,160
1,note_on,71,50,0
1,note_on,71,0,160
1,note_on,72,50,0
1,note_on,72,0,160
1,note_on,71,53,0
1,note_on,71,0,160
1,note_on,69,48,0
1,note_on,69,0,160
1,note_on,67,48,0
1,note_on,67,0,160
1,note_on,65,53,0
1,note_on,65,0,160
1,note_on,64,47,0
1,note_on,64,0,160
1,note_on,63,47,0
1,note_on,63,0,160
1,note_on,64,57,0
1,note_on,64,0,480
1,note_on,59,50,480
1,note_on,59,0,160
1,note_on,61,45,0
1,note_on,61,0,160
1,note_on,63,45,0
1,note_on,63,0,160
1,note_on,64,54,0
1,note_on,64,0,160
1,note_on,66,49,0
1,note_on,66,0,160
1,note_on,68,49,0
1,note_on,68,0,160
1,note_on,69,59,0
1,note_on,69,0,480
1,note_on,59,50,0
1,note_on,59,0,160
1,note_on,61,45,0
1,note_on,61,0,160
1,note_on,63,45,0
1,note_on,63,0,160
1,note_on,64,54,0
1,note_on,64,0,160
1,note_on,66,48,0
1,note_on,66,0,160
1,note_on,68,48,0
1,note_on,68,0,160
1,note_on,69,58,0
1,note_on,69,0,480
1,note_on,59,50,0
1,note_on,59,0,160
1,note_on,61,46,0
1,note_on,61,0,160
1,note_on,63,46,0
1,note_on,63,0,160
1,note_on,64,54,0
1,note_on,64,0,160
1,note_on,66,47,0
1,note_on,66,0,160
1,note_on,68,47,0
1,note_on,68,0,160
1,note_on,66,60,0
1,note_on,66,0,160
1,note_on,68,53,0
1,note_on,68,0,160
1,note_on,69,53,0
1,note_on,69,0,160
1,note_on,68,64,0
1,note_on,68,0,160
1,note_on,69,58,0
1,note_on,69,0,160
1,note_on,71,60,0
1,note_on,71,0,160
1,note_on,69,68,0
1,note_on,69,0,160
1,note_on,71,60,0
1,note_on,71,0,160
1,note_on,72,63,0
1,note_on,72,0,160
1,note_on,71,73,0
1,note_on,71,0,160
1,note_on,72,63,0
1,note_on,72,0,160
1,note_on,74,68,0
1,note_on,74,0,160
1,note_on,72,79,0
1,note_on,72,0,160
1,note_on,74,68,0
1,note_on,74,0,160
1,note_on,76,74,0
1,note_on,76,0,160
1,note_on,77,90,0
1,note_on,77,0,160
1,note_on,76,77,0
1,note_on,76,0,160
1,note_on,74,79,0
1,note_on,74,0,160
1,note_on,77,88,0
1,note_on,83,88,0
1,note_on,77,0,160
1,note_on,76,79,0
1,note_on,83,0,80
1,note_on,76,0,80
1,note_on,74,79,0
1,note_on,74,0,160
1,note_on,83,92,0
1,note_on,77,92,0
1,note_on,77,0,160
1,note_on,76,80,0
1,note_on,83,0,80
1,note_on,76,0,80
1,note_on,74,80,0
1,note_on,74,0,160
1,note_on,77,93,0
1,note_on,83,93,0
1,note_on,77,0,160
1,note_on,76,84,0
1,note_on,83,0,80
1,note_on,76,0,80
1,note_on,74,86,0
1,note_on,74,0,160
1,note_on,83,97,0
1,note_on,77,97,0
1,note_on,77,0,160
1,note_on,76,86,0
1,note_on,83,0,80
1,note_on,76,0,80
1,note_on,74,87,0
1,note_on,74,0,160
1,note_on,83,100,0
1,note_on,77,100,0
1,note_on,77,0,160
1,note_on,76,88,0
1,note_on,83,0,80
1,note_on,76,0,80
1,note_on,74,91,0
1,note_on,74,0,160
1,note_on,77,106,0
1,note_on,83,106,0
1,note_on,77,0,160
1,note_on,76,61,0
1,note_on,83,0,80
1,note_on,76,0,80
1,note_on,74,52,0
1,note_on,74,0,160
1,note_on,77,60,0
1,note_on,77,0,160
1,note_on,76,51,0
1,note_on,76,0,160
1,note_on,74,46,0
1,note_on,74,0,160
1,note_on,77,57,0
1,note_on,77,0,160
1,note_on,76,49,0
1,note_on,76,0,160
1,note_on,74,43,0
1,note_on,74,0,160
1,note_on,77,56,0
1,note_on,77,0,160
1,note_on,76,47,0
1,note_on,76,0,160
1,note_on,74,44,0
1,note_on,74,0,160
1,note_on,76,56,0
1,note_on,76,0,160
1,note_on,74,46,0
1,note_on,74,0,160
1,note_on,72,46,0
1,note_on,72,0,160
1,note_on,74,55,0
1,note_on,74,0,160
1,note_on,72,45,0
1,note_on,72,0,160
1,note_on,71,45,0
1,note_on,71,0,160
1,note_on,69,50,0
1,note_on,69,0,160
1,note_on,71,46,0
1,note_on,71,0,160
1,note_on,72,46,0
1,note_on,72,0,160
1,note_on,71,50,0
1,note_on,71,0,160
1,note_on,72,46,0
1,note_on,72,0,160
1,note_on,74,46,0
1,note_on,74,0,160
1,note_on,76,65,0
1,note_on,76,0,480
1,note_on,69,50,0
1,note_on,69,0,160
1,note_on,71,45,0
1,note_on,71,0,160
1,note_on,72,45,0
1,note_on,72,0,160
1,note_on,71,70,0
1,note_on,72,44,160
1,note_on,72,0,160
1,note_on,74,44,0
1,note_on,74,0,160
1,note_on,71,0,0
1,note_on,76,65,0
1,note_on,76,0,480
1,note_on,69,50,0
1,note_on,69,0,160
1,note_on,71,45,0
1,note_on,71,0,160
1,note_on,72,45,0
1,note_on,72,0,160
1,note_on,71,66,0
1,note_on,72,45,160
1,note_on,72,0,160
1,note_on,74,45,0
1,note_on,74,0,160
1,note_on,71,0,0
1,note_on,72,50,0
1,note_on,72,0,160
1,note_on,74,48,0
1,note_on,74,0,160
1,note_on,76,50,0
1,note_on,76,0,160
1,note_on,77,50,0
1,note_on,77,0,160
1,note_on,79,54,0
1,note_on,79,0,160
1,note_on,81,58,0
1,note_on,81,0,160
1,note_on,79,61,0
1,note_on,79,0,160
1,note_on,77,56,0
1,note_on,77,0,160
1,note_on,76,53,0
1,note_on,76,0,160
1,note_on,74,55,0
1,note_on,74,0,160
1,note_on,72,52,0
1,note_on,72,0,160
1,note_on,71,48,0
1,note_on,71,0,160
1,note_on,69,56,0
1,note_on,69,0,160
1,note_on,71,50,0
1,note_on,71,0,160
1,note_on,72,50,0
1,note_on,72,0,160
1,note_on,71,53,0
1,note_on,71,0,160
1,note_on,69,48,0
1,note_on,69,0,160
1,note_on,67,48,0
1,note_on,67,0,160
1,note_on,65,53,0
1,note_on,65,0,160
1,note_on,64,47,0
1,note_on,64,0,160
1,note_on,63,47,0
1,note_on,63,0,160
1,note_on,64,54,0
1,note_on,64,0,160
1,note_on,66,49,0
1,note_on,66,0,160
1,note_on,67,49,0
1,note_on,67,0,160
1,note_on,69,59,0
1,note_on,69,0,480
1,note_on,59,50,0
1,note_on,59,0,160
1,note_on,61,45,0
1,note_on,61,0,160
1,note_on,63,45,0
1,note_on,63,0,160
1,note_on,64,54,0
1,note_on,64,0,160
1,note_on,66,48,0
1,note_on,66,0,160
1,note_on,67,48,0
1,note_on,67,0,160
1,note_on,69,58,0
1,note_on,69,0,480
1,note_on,59,50,0
1,note_on,59,0,160
1,note_on,61,46,0
1,note_on,61,0,160
1,note_on,63,46,0
1,note_on,63,0,160
1,note_on,64,54,0
1,note_on,64,0,160
1,note_on,66,47,0
1,note_on,66,0,160
1,note_on,67,47,0
1,note_on,67,0,160
1,note_on,66,60,0
1,note_on,66,0,160
1,note_on,67,53,0
1,note_on,67,0,160
1,note_on,69,53,0
1,note_on,69,0,160
1,note_on,67,64,0
1,note_on,67,0,160
1,note_on,69,58,0
1,note_on,69,0,160
1,note_on,71,60,0
1,note_on,71,0,160
1,note_on,69,68,0
1,note_on,69,0,160
1,note_on,71,60,0
1,note_on,71,0,160
1,note_on,72,63,0
1,note_on,72,0,160
1,note_on,71,73,0
1,note_on,71,0,160
1,note_on,72,63,0
1,note_on,72,0,160
1,note_on,74,68,0
1,note_on,74,0,160
1,note_on,72,79,0
1,note_on,72,0,160
1,note_on,74,68,0
1,note_on,74,0,160
1,note_on,76,74,0
1,note_on,76,0,160
1,note_on,65,96,0
1,note_on,65,0,160
1,note_on,70,78,0
1,note_on,70,0,160
1,note_on,74,74,0
1,note_on,74,0,160
1,note_on,77,87,0
1,note_on,77,0,160
1,note_on,82,76,0
1,note_on,82,0,160
1,note_on,86,76,0
1,note_on,86,0,160
1,note_on,89,88,0
1,note_on,89,0,160
1,note_on,94,76,0
1,note_on,94,0,160
1,note_on,98,76,0
1,note_on,98,0,160
1,note_on,101,97,0
1,note_on,101,0,120
1,note_on,69,79,360
1,note_on,76,93,0
1,note_on,72,79,0
1,note_on,64,79,0
1,note_on,64,0,240
1,note_on,69,0,0
1,note_on,76,0,0
1,note_on,72,0,0
1,note_on,64,74,240
1,note_on,76,88,0
1,note_on,68,74,0
1,note_on,71,74,0
1,note_on,71,0,240
1,note_on,64,0,0
1,note_on,76,0,0
1,note_on,68,0,0
1,note_on,69,67,240
1,note_on,69,0,160
1,note_on,71,56,0
1,note_on,71,0,160
1,note_on,72,56,0
1,note_on,72,0,160
1,note_on,74,65,0
1,note_on,74,0,480
1,note_on,64,66,0
1,note_on,64,0,160
1,note_on,66,54,0
1,note_on,66,0,160
1,note_on,68,53,0
1,note_on,68,0,160
1,note_on,69,64,0
1,note_on,69,0,160
1,note_on,71,55,0
1,note_on,71,0,160
1,note_on,72,55,0
1,note_on,72,0,160
1,note_on,74,65,0
1,note_on,74,0,480
1,note_on,64,64,0
1,note_on,64,0,160
1,note_on,66,58,0
1,note_on,66,0,160
1,note_on,68,58,0
1,note_on,68,0,160
1,note_on,69,68,0
1,note_on,69,0,160
1,note_on,71,60,0
1,note_on,71,0,160
1,note_on,72,63,0
1,note_on,72,0,160
1,note_on,71,73,0
1,note_on,71,0,160
1,note_on,72,63,0
1,note_on,72,0,160
1,note_on,74,68,0
1,note_on,74,0,160
1,note_on,72,79,0
1,note_on,72,0,160
1,note_on,74,68,0
1,note_on,74,0,160
1,note_on,76,74,0
1,note_on,76,0,160
1,note_on,65,96,0
1,note_on,65,0,160
1,note_on,70,78,0
1,note_on,70,0,160
1,note_on,74,75,0
1,note_on,74,0,160
1,note_on,77,93,0
1,note_on,77,0,160
1,note_on,82,77,0
1,note_on,82,0,160
1,note_on,86,77,0
1,note_on,86,0,160
1,note_on,89,92,0
1,note_on,89,0,160
1,note_on,94,78,0
1,note_on,94,0,160
1,note_on,98,78,0
1,note_on,98,0,160
1,note_on,101,97,0
1,note_on,101,0,120
1,note_on,69,79,360
1,note_on,72,79,0
1,note_on,64,79,0
1,note_on,76,93,0
1,note_on,76,0,240
1,note_on,69,0,0
1,note_on,72,0,0
1,note_on,64,0,0
1,note_on,68,74,240
1,note_on,64,74,0
1,note_on,71,74,0
1,note_on,76,88,0
1,note_on,76,0,240
1,note_on,68,0,0
1,note_on,64,0,0
1,note_on,71,0,0
1,note_on,69,88,240
1,note_on,81,104,0
1,note_on,72,88,0
1,note_on,76,88,0
1,note_on,76,0,1200
1,note_on,69,0,0
1,note_on,81,0,0
1,note_on,72,0,0
1,note_on,76,88,240
1,note_on,68,74,0
1,note_on,68,0,90
1,note_on,76,0,0
1,note_on,75,69,150
1,note_on,69,58,0
1,note_on,69,0,90
1,note_on,75,0,0
1,note_on,68,68,150
1,note_on,76,81,0
1,note_on,76,0,90
1,note_on,68,0,0
1,note_on,69,58,150
1,note_on,75,69,0
1,note_on,75,0,90
1,note_on,69,0,0
1,note_on,76,88,150
1,note_on,68,74,0
1,note_on,68,0,90
1,note_on,76,0,0
1,note_on,72,88,390
1,note_on,65,88,0
1,note_on,69,88,0
1,note_on,77,104,0
1,note_on,77,0,1200
1,note_on,72,0,0
1,note_on,65,0,0
1,note_on,69,0,0
1,note_on,64,74,240
1,note_on,72,88,0
1,note_on,72,0,90
1,note_on,64,0,0
1,note_on,71,72,150
1,note_on,65,61,0
1,note_on,65,0,90
1,note_on,71,0,0
1,note_on,64,67,150
1,note_on,72,79,0
1,note_on,72,0,90
1,note_on,64,0,0
1,note_on,65,61,150
1,note_on,71,72,0
1,note_on,71,0,90
1,note_on,65,0,0
1,note_on,72,88,150
1,note_on,64,74,0
1,note_on,64,0,90
1,note_on,72,0,0
1,note_on,71,83,390
1,note_on,62,83,0
1,note_on,65,83,0
1,note_on,74,98,0
1,note_on,74,0,960
1,note_on,71,0,0
1,note_on,62,0,0
1,note_on,65,0,0
1,note_on,64,76,0
1,note_on,69,76,0
1,note_on,60,76,0
1,note_on,72,90,0
1,note_on,72,0,240
1,note_on,64,0,0
1,note_on,69,0,0
1,note_on,60,0,0
1,note_on,62,76,240
1,note_on,58,76,0
1,note_on,65,76,0
1,note_on,70,90,0
1,note_on,70,0,240
1,note_on,62,0,0
1,note_on,58,0,0
1,note_on,65,0,0
1,note_on,65,80,240
1,note_on,77,95,0
1,note_on,68,80,0
1,note_on,74,80,0
1,note_on,74,0,240
1,note_on,65,0,0
1,note_on,77,0,0
1,note_on,68,0,0
1,note_on,72,77,240
1,note_on,76,91,0
1,note_on,64,77,0
1,note_on,69,77,0
1,note_on,69,0,240
1,note_on,72,0,0
1,note_on,76,0,0
1,note_on,64,0,0
1,note_on,74,94,240
1,note_on,65,79,0
1,note_on,71,79,0
1,note_on,71,0,240
1,note_on,65,0,0
1,note_on,74,0,0
1,note_on,72,90,240
1,note_on,64,76,0
1,note_on,69,76,0
1,note_on,69,0,240
1,note_on,64,0,0
1,note_on,72,0,0
1,note_on,71,88,240
1,note_on,64,74,0
1,note_on,68,74,0
1,note_on,68,0,240
1,note_on,64,0,0
1,note_on,71,0,0
1,note_on,69,87,240
1,note_on,69,0,240
1,note_on,71,83,0
1,note_on,71,0,120
1,note_on,72,75,0
1,note_on,72,0,120
1,note_on,74,76,0
1,note_on,74,0,120
1,note_on,76,78,0
1,note_on,76,0,120
1,note_on,78,80,0
1,note_on,78,0,120
1,note_on,80,82,0
1,note_on,80,0,120
1,note_on,81,83,0
1,note_on,81,0,120
1,note_on,83,85,0
1,note_on,83,0,120
1,note_on,84,87,0
1,note_on,84,0,120
1,note_on,86,88,0
1,note_on,86,0,120
1,note_on,88,99,0
1,note_on,76,84,0
1,note_on,76,0,90
1,note_on,88,0,0
1,note_on,75,73,150
1,note_on,87,86,0
1,note_on,87,0,90
1,note_on,75,0,0
1,note_on,88,93,150
1,note_on,76,79,0
1,note_on,76,0,90
1,note_on,88,0,0
1,note_on,75,73,150
1,note_on,87,86,0
1,note_on,87,0,90
1,note_on,75,0,0
1,note_on,88,101,150
1,note_on,76,85,0
1,note_on,76,0,90
1,note_on,88,0,0
1,note_on,65,89,390
1,note_on,65,0,240
1,note_on,67,83,0
1,note_on,67,0,120
1,note_on,69,75,0
1,note_on,69,0,120
1,note_on,70,76,0
1,note_on,70,0,120
1,note_on,72,78,0
1,note_on,72,0,120
1,note_on,74,80,0
1,note_on,74,0,120
1,note_on,76,82,0
1,note_on,76,0,120
1,note_on,77,83,0
1,note_on,77,0,120
1,note_on,79,85,0
1,note_on,79,0,120
1,note_on,81,87,0
1,note_on,81,0,120
1,note_on,82,88,0
1,note_on,82,0,120
1,note_on,72,79,0
1,note_on,84,94,0
1,note_on,84,0,90
1,note_on,72,0,0
1,note_on,83,82,150
1,note_on,71,69,0
1,note_on,71,0,90
1,note_on,83,0,0
1,note_on,72,76,150
1,note_on,84,90,0
1,note_on,84,0,90
1,note_on,72,0,0
1,note_on,83,81,150
1,note_on,71,68,0
1,note_on,71,0,90
1,note_on,83,0,0
1,note_on,84,95,150
1,note_on,72,80,0
1,note_on,72,0,90
1,note_on,84,0,0
1,note_on,71,85,390
1,note_on,71,0,120
1,note_on,72,80,0
1,note_on,72,0,120
1,note_on,74,80,0
1,note_on,74,0,120
1,note_on,76,78,0
1,note_on,76,0,120
1,note_on,77,90,0
1,note_on,77,0,120
1,note_on,83,83,0
1,note_on,83,0,120
1,note_on,86,82,0
1,note_on,86,0,120
1,note_on,89,78,0
1,note_on,89,0,120
1,note_on,88,92,0
1,note_on,88,0,120
1,note_on,70,86,360
1,note_on,70,0,120
1,note_on,74,78,0
1,note_on,74,0,120
1,note_on,77,78,0
1,note_on,77,0,120
1,note_on,82,78,0
1,note_on,82,0,120
1,note_on,74,86,0
1,note_on,74,0,120
1,note_on,77,78,0
1,note_on,77,0,120
1,note_on,80,78,0
1,note_on,80,0,120
1,note_on,86,78,0
1,note_on,86,0,120
1,note_on,72,86,0
1,note_on,72,0,120
1,note_on,76,76,0
1,note_on,76,0,120
1,note_on,81,76,0
1,note_on,81,0,120
1,note_on,84,76,0
1,note_on,84,0,120
1,note_on,71,80,0
1,note_on,71,0,120
1,note_on,74,73,0
1,note_on,74,0,120
1,note_on,77,73,0
1,note_on,77,0,120
1,note_on,83,72,0
1,note_on,83,0,120
1,note_on,69,78,0
1,note_on,69,0,120
1,note_on,72,70,0
1,note_on,72,0,120
1,note_on,76,70,0
1,note_on,76,0,120
1,note_on,81,70,0
1,note_on,81,0,120
1,note_on,68,77,0
1,note_on,68,0,120
1,note_on,71,69,0
1,note_on,71,0,120
1,note_on,76,69,0
1,note_on,76,0,120
1,note_on,80,69,0
1,note_on,80,0,120
1,note_on,57,87,0
1,note_on,57,0,240
1,note_on,59,82,0
1,note_on,59,0,120
1,note_on,60,78,0
1,note_on,60,0,120
1,note_on,62,77,0
1,note_on,62,0,120
1,note_on,64,77,0
1,note_on,64,0,120
1,note_on,66,77,0
1,note_on,66,0,120
1,note_on,68,76,0
1,note_on,68,0,120
1,note_on,69,76,0
1,note_on,69,0,120
1,note_on,71,76,0
1,note_on,71,0,120
1,note_on,72,75,0
1,note_on,72,0,120
1,note_on,74,75,0
1,note_on,74,0,120
1,note_on,76,74,0
1,note_on,76,0,120
1,note_on,77,74,0
1,note_on,77,0,120
1,note_on,79,73,0
1,note_on,79,0,120
1,note_on,81,73,0
1,note_on,81,0,120
1,note_on,82,71,0
1,note_on,82,0,240
1,note_on,79,71,1200
1,note_on,79,0,240
1,note_on,76,67,1200
1,note_on,76,0,240
1,note_on,73,55,1200
1,note_on,73,0,240
1,note_on,72,50,1200
1,note_on,72,0,240
1,note_on,69,38,720
1,note_on,60,33,0
1,note_on,69,0,1200
1,note_on,70,36,0
1,note_on,70,0,120
1,note_on,69,31,0
1,note_on,69,0,120
1,note_on,67,36,0
1,note_on,67,0,480
1,note_on,70,38,0
1,note_on,70,0,480
1,note_on,73,42,0
1,note_on,73,0,480
1,note_on,60,0,0
1,note_on,72,40,0
1,note_on,60,33,0
1,note_on,72,0,960
1,note_on,69,34,0
1,note_on,69,0,470
1,note_on,60,0,10
1,note_on,72,40,0
1,note_on,60,33,0
1,note_on,72,0,960
1,note_on,70,34,0
1,note_on,70,0,470
1,note_on,60,0,10
1,note_on,69,38,0
1,note_on,60,38,0
1,note_on,69,0,1200
1,note_on,70,35,0
1,note_on,70,0,120
1,note_on,69,31,0
1,note_on,69,0,120
1,note_on,67,36,0
1,note_on,67,0,480
1,note_on,70,38,0
1,note_on,70,0,480
1,note_on,73,42,0
1,note_on,73,0,480
1,note_on,60,0,0
1,note_on,72,40,0
1,note_on,60,33,0
1,note_on,72,0,960
1,note_on,69,34,0
1,note_on,69,0,470
1,note_on,60,0,10
1,note_on,72,47,0
1,note_on,60,47,0
1,note_on,72,0,960
1,note_on,70,45,0
1,note_on,70,0,470
1,note_on,60,0,10
1,note_on,61,53,0
1,note_on,73,53,0
1,note_on,73,0,960
1,note_on,70,49,0
1,note_on,70,0,470
1,note_on,61,0,10
1,note_on,62,57,0
1,note_on,74,57,0
1,note_on,74,0,960
1,note_on,70,49,0
1,note_on,70,0,470
1,note_on,62,0,10
1,note_on,63,53,0
1,note_on,69,53,0
1,note_on,69,0,480
1,note_on,78,61,0
1,note_on,78,0,480
1,note_on,77,55,0
1,note_on,77,0,480
1,note_on,63,0,0
1,note_on,65,33,0
1,note_on,75,50,0
1,note_on,75,0,960
1,note_on,74,45,0
1,note_on,74,0,470
1,note_on,65,0,10
1,note_on,60,49,0
1,note_on,69,49,0
1,note_on,69,0,480
1,note_on,75,53,0
1,note_on,75,0,480
1,note_on,74,45,0
1,note_on,74,0,480
1,note_on,60,0,0
1,note_on,72,48,0
1,note_on,62,33,0
1,note_on,72,0,960
1,note_on,70,45,0
1,note_on,70,0,470
1,note_on,62,0,10
1,note_on,60,33,0
1,note_on,72,40,0
1,note_on,72,0,960
1,note_on,70,34,0
1,note_on,70,0,470
1,note_on,60,0,10
1,note_on,60,33,0
1,note_on,72,40,0
1,note_on,72,0,960
1,note_on,69,34,0
1,note_on,69,0,470
1,note_on,60,0,10
1,note_on,58,33,0
1,note_on,73,51,0
1,note_on,73,0,480
1,note_on,72,36,0
1,note_on,72,0,240
1,note_on,70,31,0
1,note_on,70,0,240
1,note_on,69,35,0
1,note_on,69,0,240
1,note_on,67,29,0
1,note_on,67,0,240
1,note_on,58,0,0
1,note_on,57,28,0
1,note_on,65,35,0
1,note_on,57,0,480
1,note_on,65,0,240
1,note_on,67,38,0
1,note_on,67,0,240
1,note_on,69,43,0
1,note_on,69,0,240
1,note_on,70,46,0
1,note_on,70,0,240
1,note_on,69,54,0
1,note_on,63,54,0
1,note_on,69,0,480
1,note_on,78,59,0
1,note_on,78,0,480
1,note_on,77,54,0
1,note_on,77,0,480
1,note_on,63,0,0
1,note_on,65,52,0
1,note_on,75,52,0
1,note_on,75,0,960
1,note_on,74,49,0
1,note_on,74,0,470
1,note_on,65,0,10
1,note_on,69,50,0
1,note_on,60,50,0
1,note_on,69,0,480
1,note_on,75,56,0
1,note_on,75,0,480
1,note_on,74,51,0
1,note_on,74,0,480
1,note_on,60,0,0
1,note_on,62,33,0
1,note_on,72,48,0
1,note_on,72,0,960
1,note_on,70,45,0
1,note_on,70,0,470
1,note_on,62,0,10
1,note_on,60,43,0
1,note_on,72,43,0
1,note_on,72,0,960
1,note_on,70,36,0
1,note_on,70,0,470
1,note_on,60,0,10
1,note_on,60,43,0
1,note_on,72,43,0
1,note_on,72,0,960
1,note_on,69,34,0
1,note_on,69,0,470
1,note_on,60,0,10
1,note_on,58,33,0
1,note_on,73,51,0
1,note_on,73,0,480
1,note_on,72,36,0
1,note_on,72,0,240
1,note_on,70,31,0
1,note_on,70,0,240
1,note_on,69,35,0
1,note_on,69,0,240
1,note_on,67,29,0
1,note_on,67,0,240
1,note_on,58,0,0
1,note_on,65,35,0
1,note_on,57,31,0
1,note_on,57,0,480
1,note_on,65,0,0
1,note_on,60,35,960
1,note_on,69,35,0
1,note_on,69,0,1440
1,note_on,60,0,0
1,note_on,64,32,0
1,note_on,60,32,0
1,note_on,69,32,0
1,note_on,69,0,1440
1,note_on,60,0,0
1,note_on,64,0,0
1,note_on,64,30,0
1,note_on,68,30,0
1,note_on,59,30,0
1,note_on,59,0,1440
1,note_on,68,0,0
1,note_on,64,0,0
1,note_on,69,42,0
1,note_on,69,0,160
1,note_on,71,39,0
1,note_on,71,0,160
1,note_on,72,39,0
1,note_on,72,0,160
1,note_on,71,42,0
1,note_on,71,0,160
1,note_on,72,39,0
1,note_on,72,0,160
1,note_on,74,39,0
1,note_on,74,0,160
1,note_on,76,55,0
1,note_on,76,0,480
1,note_on,69,42,0
1,note_on,69,0,160
1,note_on,71,38,0
1,note_on,71,0,160
1,note_on,72,38,0
1,note_on,72,0,160
1,note_on,71,59,0
1,note_on,72,37,160
1,note_on,72,0,160
1,note_on,74,37,0
1,note_on,74,0,160
1,note_on,71,0,0
1,note_on,76,55,0
1,note_on,76,0,480
1,note_on,69,42,0
1,note_on,69,0,160
1,note_on,71,38,0
1,note_on,71,0,160
1,note_on,72,38,0
1,note_on,72,0,160
1,note_on,71,56,0
1,note_on,72,38,160
1,note_on,72,0,160
1,note_on,74,38,0
1,note_on,74,0,160
1,note_on,71,0,0
1,note_on,72,42,0
1,note_on,72,0,160
1,note_on,74,40,0
1,note_on,74,0,160
1,note_on,76,42,0
1,note_on,76,0,160
1,note_on,77,42,0
1,note_on,77,0,160
1,note_on,79,45,0
1,note_on,79,0,160
1,note_on,81,49,0
1,note_on,81,0,160
1,note_on,79,51,0
1,note_on,79,0,160
1,note_on,77,47,0
1,note_on,77,0,160
1,note_on,76,45,0
1,note_on,76,0,160
1,note_on,74,46,0
1,note_on,74,0,160
1,note_on,72,44,0
1,note_on,72,0,160
1,note_on,71,40,0
1,note_on,71,0,160
1,note_on,69,47,0
1,note_on,69,0,160
1,note_on,71,42,0
1,note_on,71,0,160
1,note_on,72,42,0
1,note_on,72,0,160
1,note_on,71,45,0
1,note_on,71,0,160
1,note_on,69,40,0
1,note_on,69,0,160
1,note_on,67,40,0
1,note_on,67,0,160
1,note_on,65,45,0
1,note_on,65,0,160
1,note_on,64,39,0
1,note_on,64,0,160
1,note_on,63,39,0
1,note_on,63,0,160
1,note_on,64,48,0
1,note_on,64,0,480
1,note_on,59,42,480
1,note_on,59,0,160
1,note_on,61,38,0
1,note_on,61,0,160
1,note_on,63,38,0
1,note_on,63,0,160
1,note_on,64,45,0
1,note_on,64,0,160
1,note_on,66,41,0
1,note_on,66,0,160
1,note_on,68,41,0
1,note_on,68,0,160
1,note_on,69,50,0
1,note_on,69,0,480
1,note_on,59,42,0
1,note_on,59,0,160
1,note_on,61,38,0
1,note_on,61,0,160
1,note_on,63,38,0
1,note_on,63,0,160
1,note_on,64,45,0
1,note_on,64,0,160
1,note_on,66,40,0
1,note_on,66,0,160
1,note_on,68,40,0
1,note_on,68,0,160
1,note_on,69,49,0
1,note_on,69,0,480
1,note_on,59,42,0
1,note_on,59,0,160
1,note_on,61,39,0
1,note_on,61,0,160
1,note_on,63,39,0
1,note_on,63,0,160
1,note_on,64,45,0
1,note_on,64,0,160
1,note_on,66,39,0
1,note_on,66,0,160
1,note_on,68,40,0
1,note_on,68,0,160
1,note_on,66,52,0
1,note_on,66,0,160
1,note_on,68,46,0
1,note_on,68,0,160
1,note_on,69,47,0
1,note_on,69,0,160
1,note_on,68,57,0
1,note_on,68,0,160
1,note_on,69,52,0
1,note_on,69,0,160
1,note_on,71,54,0
1,note_on,71,0,160
1,note_on,69,62,0
1,note_on,69,0,160
1,note_on,71,55,0
1,note_on,71,0,160
1,note_on,72,59,0
1,note_on,72,0,160
1,note_on,71,69,0
1,note_on,71,0,160
1,note_on,72,59,0
1,note_on,72,0,160
1,note_on,74,65,0
1,note_on,74,0,160
1,note_on,72,76,0
1,note_on,72,0,160
1,note_on,74,66,0
1,note_on,74,0,160
1,note_on,76,73,0
1,note_on,76,0,160
1,note_on,77,90,0
1,note_on,77,0,160
1,note_on,76,77,0
1,note_on,76,0,160
1,note_on,74,79,0
1,note_on,74,0,160
1,note_on,83,88,0
1,note_on,77,88,0
1,note_on,77,0,160
1,note_on,76,79,0
1,note_on,83,0,80
1,note_on,76,0,80
1,note_on,74,79,0
1,note_on,74,0,160
1,note_on,77,92,0
1,note_on,83,92,0
1,note_on,77,0,160
1,note_on,76,80,0
1,note_on,83,0,80
1,note_on,76,0,80
1,note_on,74,80,0
1,note_on,74,0,160
1,note_on,83,93,0
1,note_on,77,93,0
1,note_on,77,0,160
1,note_on,76,84,0
1,note_on,83,0,80
1,note_on,76,0,80
1,note_on,74,86,0
1,note_on,74,0,160
1,note_on,77,97,0
1,note_on,83,97,0
1,note_on,77,0,160
1,note_on,76,86,0
1,note_on,83,0,80
1,note_on,76,0,80
1,note_on,74,87,0
1,note_on,74,0,160
1,note_on,83,100,0
1,note_on,77,100,0
1,note_on,77,0,160
1,note_on,76,88,0
1,note_on,83,0,80
1,note_on,76,0,80
1,note_on,74,91,0
1,note_on,74,0,160
1,note_on,77,106,0
1,note_on,83,106,0
1,note_on,77,0,160
1,note_on,75,79,0
1,note_on,83,0,80
1,note_on,75,0,80
1,note_on,74,67,0
1,note_on,74,0,160
1,note_on,77,75,0
1,note_on,83,75,0
1,note_on,77,0,160
1,note_on,75,64,0
1,note_on,83,0,80
1,note_on,75,0,80
1,note_on,74,57,0
1,note_on,74,0,160
1,note_on,77,63,0
1,note_on,83,63,0
1,note_on,77,0,160
1,note_on,75,56,0
1,note_on,83,0,80
1,note_on,75,0,80
1,note_on,74,49,0
1,note_on,74,0,160
1,note_on,80,61,0
1,note_on,80,0,160
1,note_on,79,54,0
1,note_on,79,0,160
1,note_on,77,50,0
1,note_on,77,0,160
1,note_on,79,56,0
1,note_on,79,0,160
1,note_on,77,46,0
1,note_on,77,0,160
1,note_on,75,46,0
1,note_on,75,0,160
1,note_on,77,55,0
1,note_on,77,0,160
1,note_on,75,45,0
1,note_on,75,0,160
1,note_on,74,45,0
1,note_on,74,0,160
1,note_on,72,50,0
1,note_on,72,0,160
1,note_on,74,46,0
1,note_on,74,0,160
1,note_on,75,46,0
1,note_on,75,0,160
1,note_on,74,50,0
1,note_on,74,0,160
1,note_on,75,46,0
1,note_on,75,0,160
1,note_on,77,46,0
1,note_on,77,0,160
1,note_on,79,65,0
1,note_on,79,0,480
1,note_on,72,50,0
1,note_on,72,0,160
1,note_on,74,45,0
1,note_on,74,0,160
1,note_on,75,45,0
1,note_on,75,0,160
1,note_on,74,70,0
1,note_on,75,44,160
1,note_on,75,0,160
1,note_on,77,44,0
1,note_on,77,0,160
1,note_on,74,0,0
1,note_on,79,65,0
1,note_on,79,0,480
1,note_on,72,50,0
1,note_on,72,0,160
1,note_on,74,45,0
1,note_on,74,0,160
1,note_on,75,45,0
1,note_on,75,0,160
1,note_on,74,66,0
1,note_on,75,45,160
1,note_on,75,0,160
1,note_on,77,45,0
1,note_on,77,0,160
1,note_on,74,0,0
1,note_on,75,50,0
1,note_on,75,0,160
1,note_on,77,48,0
1,note_on,77,0,160
1,note_on,79,50,0
1,note_on,79,0,160
1,note_on,80,50,0
1,note_on,80,0,160
1,note_on,82,54,0
1,note_on,82,0,160
1,note_on,84,58,0
1,note_on,84,0,160
1,note_on,82,61,0
1,note_on,82,0,160
1,note_on,80,56,0
1,note_on,80,0,160
1,note_on,79,53,0
1,note_on,79,0,160
1,note_on,77,55,0
1,note_on,77,0,160
1,note_on,75,52,0
1,note_on,75,0,160
1,note_on,74,48,0
1,note_on,74,0,160
1,note_on,72,56,0
1,note_on,72,0,160
1,note_on,74,50,0
1,note_on,74,0,160
1,note_on,75,50,0
1,note_on,75,0,160
1,note_on,74,53,0
1,note_on,74,0,160
1,note_on,72,48,0
1,note_on,72,0,160
1,note_on,70,48,0
1,note_on,70,0,160
1,note_on,68,53,0
1,note_on,68,0,160
1,note_on,67,47,0
1,note_on,67,0,160
1,note_on,66,47,0
1,note_on,66,0,160
1,note_on,67,54,0
1,note_on,67,0,240
1,note_on,62,50,720
1,note_on,62,0,160
1,note_on,64,45,0
1,note_on,64,0,160
1,note_on,66,45,0
1,note_on,66,0,160
1,note_on,67,54,0
1,note_on,67,0,160
1,note_on,69,48,0
1,note_on,69,0,160
1,note_on,71,48,0
1,note_on,71,0,160
1,note_on,72,58,0
1,note_on,72,0,480
1,note_on,62,50,0
1,note_on,62,0,160
1,note_on,64,46,0
1,note_on,64,0,160
1,note_on,66,46,0
1,note_on,66,0,160
1,note_on,67,54,0
1,note_on,67,0,160
1,note_on,69,48,0
1,note_on,69,0,160
1,note_on,71,48,0
1,note_on,71,0,160
1,note_on,72,58,0
1,note_on,72,0,480
1,note_on,62,50,0
1,note_on,62,0,160
1,note_on,64,46,0
1,note_on,64,0,160
1,note_on,66,46,0
1,note_on,66,0,160
1,note_on,67,54,0
1,note_on,67,0,160
1,note_on,69,47,0
1,note_on,69,0,160
1,note_on,71,47,0
1,note_on,71,0,160
1,note_on,69,60,0
1,note_on,69,0,160
1,note_on,71,53,0
1,note_on,71,0,160
1,note_on,72,53,0
1,note_on,72,0,160
1,note_on,71,64,0
1,note_on,71,0,160
1,note_on,72,58,0
1,note_on,72,0,160
1,note_on,74,60,0
1,note_on,74,0,160
1,note_on,72,68,0
1,note_on,72,0,160
1,note_on,74,60,0
1,note_on,74,0,160
1,note_on,76,63,0
1,note_on,76,0,160
1,note_on,74,73,0
1,note_on,74,0,160
1,note_on,76,63,0
1,note_on,76,0,160
1,note_on,77,68,0
1,note_on,77,0,160
1,note_on,76,79,0
1,note_on,76,0,160
1,note_on,77,68,0
1,note_on,77,0,160
1,note_on,79,74,0
1,note_on,79,0,160
1,note_on,60,97,0
1,note_on,60,0,160
1,note_on,65,77,0
1,note_on,65,0,160
1,note_on,69,78,0
1,note_on,69,0,160
1,note_on,72,85,0
1,note_on,72,0,160
1,note_on,77,74,0
1,note_on,77,0,160
1,note_on,81,77,0
1,note_on,81,0,160
1,note_on,84,91,0
1,note_on,84,0,160
1,note_on,89,79,0
1,note_on,89,0,160
1,note_on,93,79,0
1,note_on,93,0,160
1,note_on,96,108,0
1,note_on,96,0,120
1,note_on,71,79,360
1,note_on,79,79,0
1,note_on,83,93,0
1,note_on,76,79,0
1,note_on,76,0,240
1,note_on,71,0,0
1,note_on,79,0,0
1,note_on,83,0,0
1,note_on,75,74,240
1,note_on,83,88,0
1,note_on,71,74,0
1,note_on,78,74,0
1,note_on,78,0,240
1,note_on,75,0,0
1,note_on,83,0,0
1,note_on,71,0,0
1,note_on,76,67,240
1,note_on,76,0,160
1,note_on,78,56,0
1,note_on,78,0,160
1,note_on,79,56,0
1,note_on,79,0,160
1,note_on,81,65,0
1,note_on,81,0,480
1,note_on,71,66,0
1,note_on,71,0,160
1,note_on,73,54,0
1,note_on,73,0,160
1,note_on,75,53,0
1,note_on,75,0,160
1,note_on,76,64,0
1,note_on,76,0,160
1,note_on,78,55,0
1,note_on,78,0,160
1,note_on,79,55,0
1,note_on,79,0,160
1,note_on,81,65,0
1,note_on,81,0,480
1,note_on,71,64,0
1,note_on,71,0,160
1,note_on,73,58,0
1,note_on,73,0,160
1,note_on,75,58,0
1,note_on,75,0,160
1,note_on,76,68,0
1,note_on,76,0,160
1,note_on,78,60,0
1,note_on,78,0,160
1,note_on,79,63,0
1,note_on,79,0,160
1,note_on,78,73,0
1,note_on,78,0,160
1,note_on,79,63,0
1,note_on,79,0,160
1,note_on,81,68,0
1,note_on,81,0,160
1,note_on,79,79,0
1,note_on,79,0,160
1,note_on,81,68,0
1,note_on,81,0,160
1,note_on,83,74,0
1,note_on,83,0,160
1,note_on,60,97,0
1,note_on,60,0,160
1,note_on,65,77,0
1,note_on,65,0,160
1,note_on,69,77,0
1,note_on,69,0,160
1,note_on,72,91,0
1,note_on,72,0,160
1,note_on,77,78,0
1,note_on,77,0,160
1,note_on,81,78,0
1,note_on,81,0,160
1,note_on,84,96,0
1,note_on,84,0,160
1,note_on,89,79,0
1,note_on,89,0,160
1,note_on,93,79,0
1,note_on,93,0,160
1,note_on,96,100,0
1,note_on,96,0,120
1,note_on,79,79,360
1,note_on,83,93,0
1,note_on,76,79,0
1,note_on,71,79,0
1,note_on,71,0,240
1,note_on,79,0,0
1,note_on,83,0,0
1,note_on,76,0,0
1,note_on,71,74,240
1,note_on,78,74,0
1,note_on,75,74,0
1,note_on,83,88,0
1,note_on,83,0,240
1,note_on,71,0,0
1,note_on,78,0,0
1,note_on,75,0,0
1,note_on,83,88,240
1,note_on,88,104,0
1,note_on,79,88,0
1,note_on,76,88,0
1,note_on,76,0,1200
1,note_on,83,0,0
1,note_on,88,0,0
1,note_on,79,0,0
1,note_on,75,74,240
1,note_on,83,88,0
1,note_on,83,0,90
1,note_on,75,0,0
1,note_on,82,75,150
1,note_on,76,63,0
1,note_on,76,0,90
1,note_on,82,0,0
1,note_on,83,84,150
1,note_on,75,71,0
1,note_on,75,0,90
1,note_on,83,0,0
1,note_on,82,75,150
1,note_on,76,63,0
1,note_on,76,0,90
1,note_on,82,0,0
1,note_on,75,72,150
1,note_on,83,85,0
1,note_on,83,0,90
1,note_on,75,0,0
1,note_on,74,88,390
1,note_on,86,104,0
1,note_on,78,88,0
1,note_on,81,88,0
1,note_on,81,0,1200
1,note_on,74,0,0
1,note_on,86,0,0
1,note_on,78,0,0
1,note_on,73,74,240
1,note_on,81,88,0
1,note_on,81,0,90
1,note_on,73,0,0
1,note_on,74,64,150
1,note_on,80,76,0
1,note_on,80,0,90
1,note_on,74,0,0
1,note_on,81,83,150
1,note_on,73,70,0
1,note_on,73,0,90
1,note_on,81,0,0
1,note_on,74,63,150
1,note_on,80,75,0
1,note_on,80,0,90
1,note_on,74,0,0
1,note_on,81,87,150
1,note_on,73,73,0
1,note_on,73,0,90
1,note_on,81,0,0
1,note_on,78,83,390
1,note_on,81,83,0
1,note_on,72,83,0
1,note_on,84,98,0
1,note_on,84,0,960
1,note_on,78,0,0
1,note_on,81,0,0
1,note_on,72,0,0
1,note_on,71,76,0
1,note_on,83,90,0
1,note_on,79,76,0
1,note_on,76,76,0
1,note_on,76,0,240
1,note_on,71,0,0
1,note_on,83,0,0
1,note_on,79,0,0
1,note_on,69,76,240
1,note_on,77,76,0
1,note_on,72,76,0
1,note_on,81,90,0
1,note_on,81,0,240
1,note_on,69,0,0
1,note_on,77,0,0
1,note_on,72,0,0
1,note_on,72,80,240
1,note_on,84,95,0
1,note_on,75,80,0
1,note_on,81,80,0
1,note_on,81,0,240
1,note_on,72,0,0
1,note_on,84,0,0
1,note_on,75,0,0
1,note_on,79,77,240
1,note_on,71,77,0
1,note_on,76,77,0
1,note_on,83,91,0
1,note_on,83,0,240
1,note_on,79,0,0
1,note_on,71,0,0
1,note_on,76,0,0
1,note_on,81,94,240
1,note_on,78,79,0
1,note_on,72,79,0
1,note_on,72,0,240
1,note_on,78,0,0
1,note_on,81,0,0
1,note_on,71,76,240
1,note_on,76,76,0
1,note_on,79,90,0
1,note_on,79,0,240
1,note_on,76,0,0
1,note_on,71,0,0
1,note_on,71,76,240
1,note_on,75,90,0
1,note_on,78,90,0
1,note_on,78,0,240
1,note_on,75,0,0
1,note_on,71,0,0
1,note_on,64,89,240
1,note_on,66,83,240
1,note_on,66,0,120
1,note_on,67,75,0
1,note_on,67,0,120
1,note_on,69,76,0
1,note_on,69,0,120
1,note_on,71,78,0
1,note_on,71,0,120
1,note_on,73,80,0
1,note_on,73,0,120
1,note_on,75,82,0
1,note_on,75,0,120
1,note_on,76,83,0
1,note_on,76,0,120
1,note_on,78,85,0
1,note_on,78,0,120
1,note_on,79,87,0
1,note_on,79,0,120
1,note_on,81,88,0
1,note_on,81,0,120
1,note_on,64,0,0
1,note_on,71,79,0
1,note_on,83,93,0
1,note_on,83,0,90
1,note_on,71,0,0
1,note_on,82,76,150
1,note_on,70,64,0
1,note_on,70,0,90
1,note_on,82,0,0
1,note_on,71,73,150
1,note_on,83,86,0
1,note_on,83,0,90
1,note_on,71,0,0
1,note_on,70,67,150
1,note_on,82,79,0
1,note_on,82,0,90
1,note_on,70,0,0
1,note_on,71,78,150
1,note_on,83,92,0
1,note_on,83,0,90
1,note_on,71,0,0
1,note_on,62,89,390
1,note_on,64,83,240
1,note_on,64,0,120
1,note_on,66,75,0
1,note_on,66,0,120
1,note_on,67,76,0
1,note_on,67,0,120
1,note_on,69,78,0
1,note_on,69,0,120
1,note_on,71,80,0
1,note_on,71,0,120
1,note_on,73,82,0
1,note_on,73,0,120
1,note_on,74,83,0
1,note_on,74,0,120
1,note_on,76,85,0
1,note_on,76,0,120
1,note_on,78,87,0
1,note_on,78,0,120
1,note_on,80,88,0
1,note_on,80,0,120
1,note_on,62,0,0
1,note_on,81,93,0
1,note_on,69,79,0
1,note_on,69,0,90
1,note_on,81,0,0
1,note_on,80,78,150
1,note_on,68,66,0
1,note_on,68,0,90
1,note_on,80,0,0
1,note_on,81,85,150
1,note_on,69,72,0
1,note_on,69,0,90
1,note_on,81,0,0
1,note_on,68,65,150
1,note_on,80,77,0
1,note_on,80,0,90
1,note_on,68,0,0
1,note_on,81,88,150
1,note_on,69,74,0
1,note_on,69,0,90
1,note_on,81,0,0
1,note_on,72,77,510
1,note_on,72,0,120
1,note_on,76,77,0
1,note_on,76,0,120
1,note_on,79,75,0
1,note_on,79,0,120
1,note_on,84,87,0
1,note_on,84,0,120
1,note_on,88,75,0
1,note_on,88,0,120
1,note_on,91,79,0
1,note_on,91,0,120
1,note_on,96,75,0
1,note_on,96,0,120
1,note_on,95,89,0
1,note_on,95,0,120
1,note_on,69,86,360
1,note_on,69,0,120
1,note_on,72,78,0
1,note_on,72,0,120
1,note_on,77,78,0
1,note_on,77,0,120
1,note_on,81,78,0
1,note_on,81,0,120
1,note_on,72,86,0
1,note_on,72,0,120
1,note_on,75,78,0
1,note_on,75,0,120
1,note_on,81,78,0
1,note_on,81,0,120
1,note_on,84,78,0
1,note_on,84,0,120
1,note_on,71,86,0
1,note_on,71,0,120
1,note_on,76,76,0
1,note_on,76,0,120
1,note_on,79,76,0
1,note_on,79,0,120
1,note_on,83,76,0
1,note_on,83,0,120
1,note_on,69,80,0
1,note_on,69,0,120
1,note_on,72,73,0
1,note_on,72,0,120
1,note_on,78,73,0
1,note_on,78,0,120
1,note_on,81,72,0
1,note_on,81,0,120
1,note_on,67,78,0
1,note_on,67,0,120
1,note_on,71,70,0
1,note_on,71,0,120
1,note_on,76,70,0
1,note_on,76,0,120
1,note_on,79,70,0
1,note_on,79,0,120
1,note_on,66,77,0
1,note_on,66,0,120
1,note_on,71,69,0
1,note_on,71,0,120
1,note_on,75,69,0
1,note_on,75,0,120
1,note_on,78,69,0
1,note_on,78,0,120
1,note_on,64,87,0
1,note_on,64,0,240
1,note_on,66,82,0
1,note_on,66,0,120
1,note_on,67,78,0
1,note_on,67,0,120
1,note_on,69,77,0
1,note_on,69,0,120
1,note_on,71,77,0
1,note_on,71,0,120
1,note_on,73,77,0
1,note_on,73,0,120
1,note_on,75,76,0
1,note_on,75,0,120
1,note_on,76,76,0
1,note_on,76,0,120
1,note_on,78,76,0
1,note_on,78,0,120
1,note_on,79,75,0
1,note_on,79,0,120
1,note_on,81,75,0
1,note_on,81,0,120
1,note_on,83,74,0
1,note_on,83,0,120
1,note_on,84,74,0
1,note_on,84,0,120
1,note_on,86,73,0
1,note_on,86,0,120
1,note_on,88,73,0
1,note_on,88,0,120
1,note_on,89,71,0
1,note_on,89,0,240
1,note_on,86,71,1200
1,note_on,86,0,240
1,note_on,83,67,1200
1,note_on,83,0,240
1,note_on,80,55,1200
1,note_on,80,0,240
1,note_on,79,50,1200
1,note_on,79,0,240
1,note_on,76,41,720
1,note_on,67,36,0
1,note_on,76,0,1200
1,note_on,77,39,0
1,note_on,77,0,120
1,note_on,76,34,0
1,note_on,76,0,120
1,note_on,74,39,0
1,note_on,74,0,480
1,note_on,77,41,0
1,note_on,77,0,480
1,note_on,80,46,0
1,note_on,80,0,480
1,note_on,67,0,0
1,note_on,79,44,0
1,note_on,67,36,0
1,note_on,79,0,960
1,note_on,76,37,0
1,note_on,76,0,470
1,note_on,67,0,10
1,note_on,67,36,0
1,note_on,79,44,0
1,note_on,79,0,960
1,note_on,77,37,0
1,note_on,77,0,470
1,note_on,67,0,10
1,note_on,67,41,0
1,note_on,76,41,0
1,note_on,76,0,1200
1,note_on,77,38,0
1,note_on,77,0,120
1,note_on,76,34,0
1,note_on,76,0,120
1,note_on,74,39,0
1,note_on,74,0,480
1,note_on,77,41,0
1,note_on,77,0,480
1,note_on,80,46,0
1,note_on,80,0,480
1,note_on,67,0,0
1,note_on,79,44,0
1,note_on,67,36,0
1,note_on,79,0,960
1,note_on,76,37,0
1,note_on,76,0,470
1,note_on,67,0,10
1,note_on,67,51,0
1,note_on,79,51,0
1,note_on,79,0,960
1,note_on,77,49,0
1,note_on,77,0,470
1,note_on,67,0,10
1,note_on,68,58,0
1,note_on,80,58,0
1,note_on,80,0,960
1,note_on,77,53,0
1,note_on,77,0,470
1,note_on,68,0,10
1,note_on,69,62,0
1,note_on,81,62,0
1,note_on,81,0,960
1,note_on,77,53,0
1,note_on,77,0,470
1,note_on,69,0,10
1,note_on,76,58,0
1,note_on,70,58,0
1,note_on,76,0,480
1,note_on,85,63,0
1,note_on,85,0,480
1,note_on,84,60,0
1,note_on,84,0,480
1,note_on,70,0,0
1,note_on,72,36,0
1,note_on,82,55,0
1,note_on,82,0,960
1,note_on,81,49,0
1,note_on,81,0,480
1,note_on,72,0,0
1,note_on,67,53,0
1,note_on,76,53,0
1,note_on,76,0,480
1,note_on,82,58,0
1,note_on,82,0,480
1,note_on,81,49,0
1,note_on,81,0,480
1,note_on,67,0,0
1,note_on,79,52,0
1,note_on,69,36,0
1,note_on,79,0,960
1,note_on,77,49,0
1,note_on,77,0,470
1,note_on,69,0,10
1,note_on,79,44,0
1,note_on,67,36,0
1,note_on,79,0,960
1,note_on,77,37,0
1,note_on,77,0,470
1,note_on,67,0,10
1,note_on,67,36,0
1,note_on,79,44,0
1,note_on,79,0,960
1,note_on,76,37,0
1,note_on,76,0,470
1,note_on,67,0,10
1,note_on,65,36,0
1,note_on,80,56,0
1,note_on,80,0,480
1,note_on,79,39,0
1,note_on,79,0,240
1,note_on,77,34,0
1,note_on,77,0,240
1,note_on,76,38,0
1,note_on,76,0,240
1,note_on,74,31,0
1,note_on,74,0,240
1,note_on,65,0,0
1,note_on,72,38,0
1,note_on,64,30,0
1,note_on,64,0,480
1,note_on,72,0,240
1,note_on,74,41,0
1,note_on,74,0,240
1,note_on,76,50,0
1,note_on,76,0,240
1,note_on,77,54,0
1,note_on,77,0,240
1,note_on,70,59,0
1,note_on,76,59,0
1,note_on,76,0,480
1,note_on,85,64,0
1,note_on,85,0,480
1,note_on,84,59,0
1,note_on,84,0,480
1,note_on,70,0,0
1,note_on,72,57,0
1,note_on,82,57,0
1,note_on,82,0,960
1,note_on,81,53,0
1,note_on,81,0,470
1,note_on,72,0,10
1,note_on,67,55,0
1,note_on,76,55,0
1,note_on,76,0,480
1,note_on,82,61,0
1,note_on,82,0,480
1,note_on,81,56,0
1,note_on,81,0,480
1,note_on,67,0,0
1,note_on,79,52,0
1,note_on,69,36,0
1,note_on,79,0,960
1,note_on,77,49,0
1,note_on,77,0,470
1,note_on,69,0,10
1,note_on,67,47,0
1,note_on,79,47,0
1,note_on,79,0,960
1,note_on,77,39,0
1,note_on,77,0,470
1,note_on,67,0,10
1,note_on,67,47,0
1,note_on,79,47,0
1,note_on,79,0,960
1,note_on,76,37,0
1,note_on,76,0,470
1,note_on,67,0,10
1,note_on,80,56,0
1,note_on,65,36,0
1,note_on,80,0,480
1,note_on,79,39,0
1,note_on,79,0,240
1,note_on,77,34,0
1,note_on,77,0,240
1,note_on,76,38,0
1,note_on,76,0,240
1,note_on,74,31,0
1,note_on,74,0,240
1,note_on,65,0,0
1,note_on,72,38,0
1,note_on,64,34,0
1,note_on,64,0,480
1,note_on,72,0,0
1,note_on,76,35,960
1,note_on,67,35,0
1,note_on,67,0,1440
1,note_on,76,0,0
1,note_on,76,32,0
1,note_on,67,32,0
1,note_on,71,32,0
1,note_on,71,0,1440
1,note_on,67,0,0
1,note_on,76,0,0
1,note_on,75,30,0
1,note_on,66,30,0
1,note_on,71,30,0
1,note_on,71,0,1440
1,note_on,66,0,0
1,note_on,75,0,0
1,note_on,65,91,0
1,note_on,65,0,160
1,note_on,71,77,0
1,note_on,71,0,160
1,note_on,74,74,0
1,note_on,74,0,160
1,note_on,77,82,0
1,note_on,77,0,160
1,note_on,83,73,0
1,note_on,83,0,160
1,note_on,86,71,0
1,note_on,86,0,160
1,note_on,89,78,0
1,note_on,89,0,160
1,note_on,95,71,0
1,note_on,95,0,160
1,note_on,98,70,0
1,note_on,98,0,160
1,note_on,101,76,0
1,note_on,101,0,120
1,note_on,74,35,2760
1,note_on,68,35,0
1,note_on,65,35,0
1,note_on,65,0,1440
1,note_on,68,0,0
1,note_on,74,0,0
1,note_on,74,32,0
1,note_on,69,32,0
1,note_on,65,32,0
1,note_on,65,0,1440
1,note_on,69,0,0
1,note_on,74,0,0
1,note_on,69,30,0
1,note_on,64,30,0
1,note_on,73,30,0
1,note_on,73,0,1440
1,note_on,64,0,0
1,note_on,69,0,0
1,note_on,63,91,0
1,note_on,63,0,160
1,note_on,69,77,0
1,note_on,69,0,160
1,note_on,72,72,0
1,note_on,72,0,160
1,note_on,75,82,0
1,note_on,75,0,160
1,note_on,81,73,0
1,note_on,81,0,160
1,note_on,84,71,0
1,note_on,84,0,160
1,note_on,87,78,0
1,note_on,87,0,160
1,note_on,93,71,0
1,note_on,93,0,160
1,note_on,96,70,0
1,note_on,96,0,160
1,note_on,99,76,0
1,note_on,99,0,120
1,note_on,66,35,2760
1,note_on,68,35,0
1,note_on,75,35,0
1,note_on,75,0,1440
1,note_on,68,0,0
1,note_on,66,0,0
1,note_on,68,32,0
1,note_on,65,32,0
1,note_on,75,32,0
1,note_on,75,0,1440
1,note_on,73,39,0
1,note_on,73,0,480
1,note_on,77,41,0
1,note_on,77,0,480
1,note_on,78,47,0
1,note_on,78,0,360
1,note_on,65,0,0
1,note_on,68,0,0
1,note_on,63,34,0
1,note_on,73,35,60
1,note_on,80,47,60
1,note_on,80,0,1320
1,note_on,73,0,0
1,note_on,63,0,0
1,note_on,66,29,0
1,note_on,72,29,60
1,note_on,80,44,60
1,note_on,80,0,1320
1,note_on,72,0,0
1,note_on,66,0,0
1,note_on,73,36,120
1,note_on,73,0,160
1,note_on,75,30,0
1,note_on,75,0,160
1,note_on,77,30,0
1,note_on,77,0,160
1,note_on,75,36,0
1,note_on,75,0,160
1,note_on,77,31,0
1,note_on,77,0,160
1,note_on,78,31,0
1,note_on,78,0,160
1,note_on,77,35,0
1,note_on,77,0,160
1,note_on,78,30,0
1,note_on,78,0,160
1,note_on,80,31,0
1,note_on,80,0,160
1,note_on,78,39,0
1,note_on,78,0,160
1,note_on,80,32,0
1,note_on,80,0,160
1,note_on,82,32,0
1,note_on,82,0,160
1,note_on,80,43,0
1,note_on,80,0,160
1,note_on,82,36,0
1,note_on,82,0,160
1,note_on,84,35,0
1,note_on,84,0,160
1,note_on,85,47,0
1,note_on,85,0,160
1,note_on,87,39,0
1,note_on,87,0,160
1,note_on,89,40,0
1,note_on,89,0,160
1,note_on,90,52,0
1,note_on,90,0,160
1,note_on,89,41,0
1,note_on,89,0,160
1,note_on,87,41,0
1,note_on,87,0,160
1,note_on,89,50,0
1,note_on,89,0,160
1,note_on,87,39,0
1,note_on,87,0,160
1,note_on,85,41,0
1,note_on,85,0,160
1,note_on,87,48,0
1,note_on,87,0,160
1,note_on,85,38,0
1,note_on,85,0,160
1,note_on,84,38,0
1,note_on,84,0,160
1,note_on,85,42,0
1,note_on,85,0,160
1,note_on,84,35,0
1,note_on,84,0,160
1,note_on,82,35,0
1,note_on,82,0,160
1,note_on,84,40,0
1,note_on,84,0,160
1,note_on,82,33,0
1,note_on,82,0,160
1,note_on,80,33,0
1,note_on,80,0,160
1,note_on,78,37,0
1,note_on,78,0,160
1,note_on,77,32,0
1,note_on,77,0,160
1,note_on,75,32,0
1,note_on,75,0,160
1,note_on,73,39,0
1,note_on,73,0,160
1,note_on,75,33,0
1,note_on,75,0,160
1,note_on,76,33,0
1,note_on,76,0,160
1,note_on,75,39,0
1,note_on,75,0,160
1,note_on,76,33,0
1,note_on,76,0,160
1,note_on,78,33,0
1,note_on,78,0,160
1,note_on,76,37,0
1,note_on,76,0,160
1,note_on,78,32,0
1,note_on,78,0,160
1,note_on,80,32,0
1,note_on,80,0,160
1,note_on,78,41,0
1,note_on,78,0,160
1,note_on,80,33,0
1,note_on,80,0,160
1,note_on,81,33,0
1,note_on,81,0,160
1,note_on,80,43,0
1,note_on,80,0,160
1,note_on,82,36,0
1,note_on,82,0,160
1,note_on,84,35,0
1,note_on,84,0,160
1,note_on,85,46,0
1,note_on,85,0,160
1,note_on,87,39,0
1,note_on,87,0,160
1,note_on,88,39,0
1,note_on,88,0,160
1,note_on,90,50,0
1,note_on,90,0,160
1,note_on,88,39,0
1,note_on,88,0,160
1,note_on,87,39,0
1,note_on,87,0,160
1,note_on,88,48,0
1,note_on,88,0,160
1,note_on,87,39,0
1,note_on,87,0,160
1,note_on,85,40,0
1,note_on,85,0,160
1,note_on,87,47,0
1,note_on,87,0,160
1,note_on,85,38,0
1,note_on,85,0,160
1,note_on,84,38,0
1,note_on,84,0,160
1,note_on,85,42,0
1,note_on,85,0,160
1,note_on,83,36,0
1,note_on,83,0,160
1,note_on,81,36,0
1,note_on,81,0,160
1,note_on,83,42,0
1,note_on,83,0,160
1,note_on,81,35,0
1,note_on,81,0,160
1,note_on,80,35,0
1,note_on,80,0,160
1,note_on,78,40,0
1,note_on,78,0,160
1,note_on,76,34,0
1,note_on,76,0,160
1,note_on,75,34,0
1,note_on,75,0,160
1,note_on,73,40,0
1,note_on,73,0,160
1,note_on,75,35,0
1,note_on,75,0,160
1,note_on,76,35,0
1,note_on,76,0,160
1,note_on,75,45,0
1,note_on,75,0,160
1,note_on,76,37,0
1,note_on,76,0,160
1,note_on,78,37,0
1,note_on,78,0,160
1,note_on,76,47,0
1,note_on,76,0,160
1,note_on,78,39,0
1,note_on,78,0,160
1,note_on,80,38,0
1,note_on,80,0,160
1,note_on,81,53,0
1,note_on,81,0,960
1,note_on,80,48,0
1,note_on,80,0,480
1,note_on,73,40,0
1,note_on,73,0,160
1,note_on,75,35,0
1,note_on,75,0,160
1,note_on,76,35,0
1,note_on,76,0,160
1,note_on,75,46,0
1,note_on,75,0,160
1,note_on,76,37,0
1,note_on,76,0,160
1,note_on,78,37,0
1,note_on,78,0,160
1,note_on,76,48,0
1,note_on,76,0,160
1,note_on,78,39,0
1,note_on,78,0,160
1,note_on,80,38,0
1,note_on,80,0,160
1,note_on,81,53,0
1,note_on,81,0,960
1,note_on,80,48,0
1,note_on,80,0,480
1,note_on,76,46,0
1,note_on,76,0,160
1,note_on,78,38,0
1,note_on,78,0,160
1,note_on,79,38,0
1,note_on,79,0,160
1,note_on,78,51,0
1,note_on,78,0,160
1,note_on,79,40,0
1,note_on,79,0,160
1,note_on,81,40,0
1,note_on,81,0,160
1,note_on,79,52,0
1,note_on,79,0,160
1,note_on,81,42,0
1,note_on,81,0,160
1,note_on,83,41,0
1,note_on,83,0,160
1,note_on,84,58,0
1,note_on,84,0,960
1,note_on,83,52,0
1,note_on,86,74,480
1,note_on,83,0,10
1,note_on,86,0,950
1,note_on,85,63,0
1,note_on,85,0,480
1,note_on,78,58,0
1,note_on,78,0,160
1,note_on,80,50,0
1,note_on,80,0,160
1,note_on,81,50,0
1,note_on,81,0,160
1,note_on,80,60,0
1,note_on,80,0,160
1,note_on,81,48,0
1,note_on,81,0,160
1,note_on,83,48,0
1,note_on,83,0,160
1,note_on,79,62,0
1,note_on,85,62,0
1,note_on,85,0,480
1,note_on,79,0,0
1,note_on,90,57,0
1,note_on,78,57,0
1,note_on,78,0,240
1,note_on,90,0,0
1,note_on,78,64,720
1,note_on,78,0,160
1,note_on,83,55,0
1,note_on,83,0,160
1,note_on,78,55,0
1,note_on,78,0,160
1,note_on,88,63,0
1,note_on,76,63,0
1,note_on,76,0,160
1,note_on,78,50,0
1,note_on,88,0,80
1,note_on,78,0,80
1,note_on,80,50,0
1,note_on,80,0,160
1,note_on,78,57,0
1,note_on,78,0,160
1,note_on,80,48,0
1,note_on,80,0,160
1,note_on,81,48,0
1,note_on,81,0,160
1,note_on,77,65,0
1,note_on,83,65,0
1,note_on,83,0,480
1,note_on,77,0,0
1,note_on,76,64,0
1,note_on,88,64,0
1,note_on,88,0,240
1,note_on,76,0,0
1,note_on,76,65,720
1,note_on,76,0,160
1,note_on,81,55,0
1,note_on,81,0,160
1,note_on,76,55,0
1,note_on,76,0,160
1,note_on,74,66,0
1,note_on,86,66,0
1,note_on,74,0,160
1,note_on,76,50,0
1,note_on,86,0,80
1,note_on,76,0,80
1,note_on,78,50,0
1,note_on,78,0,160
1,note_on,76,57,0
1,note_on,76,0,160
1,note_on,78,48,0
1,note_on,78,0,160
1,note_on,79,48,0
1,note_on,79,0,160
1,note_on,81,69,0
1,note_on,74,69,0
1,note_on,86,69,0
1,note_on,81,0,480
1,note_on,80,67,0
1,note_on,80,0,480
1,note_on,86,0,0
1,note_on,74,0,0
1,note_on,81,65,480
1,note_on,81,0,160
1,note_on,86,55,0
1,note_on,86,0,160
1,note_on,81,56,0
1,note_on,81,0,160
1,note_on,80,65,0
1,note_on,80,0,160
1,note_on,81,53,0
1,note_on,81,0,160
1,note_on,83,53,0
1,note_on,83,0,160
1,note_on,81,62,0
1,note_on,81,0,160
1,note_on,83,52,0
1,note_on,83,0,160
1,note_on,84,52,0
1,note_on,84,0,160
1,note_on,81,69,0
1,note_on,74,69,0
1,note_on,86,69,0
1,note_on,81,0,480
1,note_on,80,68,0
1,note_on,80,0,480
1,note_on,86,0,0
1,note_on,74,0,0
1,note_on,81,65,480
1,note_on,81,0,160
1,note_on,86,57,0
1,note_on,86,0,160
1,note_on,81,57,0
1,note_on,81,0,160
1,note_on,80,64,0
1,note_on,80,0,160
1,note_on,81,50,0
1,note_on,81,0,160
1,note_on,83,50,0
1,note_on,83,0,160
1,note_on,81,57,0
1,note_on,81,0,160
1,note_on,83,48,0
1,note_on,83,0,160
1,note_on,84,48,0
1,note_on,84,0,160
1,note_on,81,68,0
1,note_on,74,68,0
1,note_on,86,68,0
1,note_on,81,0,480
1,note_on,80,67,0
1,note_on,80,0,480
1,note_on,86,0,0
1,note_on,74,0,0
1,note_on,69,50,960
1,note_on,69,0,160
1,note_on,71,46,0
1,note_on,71,0,160
1,note_on,72,46,0
1,note_on,72,0,160
1,note_on,71,50,0
1,note_on,71,0,160
1,note_on,72,46,0
1,note_on,72,0,160
1,note_on,74,46,0
1,note_on,74,0,160
1,note_on,76,65,0
1,note_on,76,0,480
1,note_on,69,50,0
1,note_on,69,0,160
1,note_on,71,45,0
1,note_on,71,0,160
1,note_on,72,45,0
1,note_on,72,0,160
1,note_on,71,70,0
1,note_on,72,44,160
1,note_on,72,0,160
1,note_on,74,44,0
1,note_on,74,0,160
1,note_on,71,0,0
1,note_on,76,65,0
1,note_on,76,0,480
1,note_on,69,50,0
1,note_on,69,0,160
1,note_on,71,45,0
1,note_on,71,0,160
1,note_on,72,45,0
1,note_on,72,0,160
1,note_on,71,66,0
1,note_on,72,45,160
1,note_on,72,0,160
1,note_on,74,45,0
1,note_on,74,0,160
1,note_on,71,0,0
1,note_on,72,50,0
1,note_on,72,0,160
1,note_on,74,48,0
1,note_on,74,0,160
1,note_on,76,50,0
1,note_on,76,0,160
1,note_on,77,50,0
1,note_on,77,0,160
1,note_on,79,54,0
1,note_on,79,0,160
1,note_on,81,58,0
1,note_on,81,0,160
1,note_on,79,61,0
1,note_on,79,0,160
1,note_on,77,56,0
1,note_on,77,0,160
1,note_on,76,53,0
1,note_on,76,0,160
1,note_on,74,55,0
1,note_on,74,0,160
1,note_on,72,52,0
1,note_on,72,0,160
1,note_on,71,48,0
1,note_on,71,0,160
1,note_on,69,56,0
1,note_on,69,0,160
1,note_on,71,50,0
1,note_on,71,0,160
1,note_on,72,50,0
1,note_on,72,0,160
1,note_on,71,53,0
1,note_on,71,0,160
1,note_on,69,48,0
1,note_on,69,0,160
1,note_on,67,48,0
1,note_on,67,0,160
1,note_on,65,53,0
1,note_on,65,0,160
1,note_on,64,47,0
1,note_on,64,0,160
1,note_on,63,47,0
1,note_on,63,0,160
1,note_on,64,57,0
1,note_on,64,0,480
1,note_on,59,50,480
1,note_on,59,0,160
1,note_on,61,45,0
1,note_on,61,0,160
1,note_on,63,45,0
1,note_on,63,0,160
1,note_on,64,54,0
1,note_on,64,0,160
1,note_on,66,49,0
1,note_on,66,0,160
1,note_on,68,49,0
1,note_on,68,0,160
1,note_on,69,59,0
1,note_on,69,0,480
1,note_on,59,50,0
1,note_on,59,0,160
1,note_on,61,45,0
1,note_on,61,0,160
1,note_on,63,45,0
1,note_on,63,0,160
1,note_on,64,54,0
1,note_on,64,0,160
1,note_on,66,48,0
1,note_on,66,0,160
1,note_on,68,48,0
1,note_on,68,0,160
1,note_on,69,58,0
1,note_on,69,0,480
1,note_on,59,50,0
1,note_on,59,0,160
1,note_on,61,46,0
1,note_on,61,0,160
1,note_on,63,46,0
1,note_on,63,0,160
1,note_on,64,54,0
1,note_on,64,0,160
1,note_on,66,47,0
1,note_on,66,0,160
1,note_on,68,47,0
1,note_on,68,0,160
1,note_on,66,60,0
1,note_on,66,0,160
1,note_on,68,53,0
1,note_on,68,0,160
1,note_on,69,53,0
1,note_on,69,0,160
1,note_on,68,64,0
1,note_on,68,0,160
1,note_on,69,58,0
1,note_on,69,0,160
1,note_on,71,60,0
1,note_on,71,0,160
1,note_on,69,68,0
1,note_on,69,0,160
1,note_on,71,60,0
1,note_on,71,0,160
1,note_on,72,63,0
1,note_on,72,0,160
1,note_on,71,73,0
1,note_on,71,0,160
1,note_on,72,63,0
1,note_on,72,0,160
1,note_on,74,68,0
1,note_on,74,0,160
1,note_on,72,79,0
1,note_on,72,0,160
1,note_on,74,68,0
1,note_on,74,0,160
1,note_on,76,74,0
1,note_on,76,0,160
1,note_on,65,93,0
1,note_on,65,0,160
1,note_on,70,79,0
1,note_on,70,0,160
1,note_on,74,77,0
1,note_on,74,0,160
1,note_on,77,90,0
1,note_on,77,0,160
1,note_on,82,79,0
1,note_on,82,0,160
1,note_on,86,79,0
1,note_on,86,0,160
1,note_on,89,89,0
1,note_on,89,0,160
1,note_on,94,78,0
1,note_on,94,0,160
1,note_on,98,78,0
1,note_on,98,0,160
1,note_on,101,96,0
1,note_on,101,0,120
1,note_on,72,79,360
1,note_on,64,79,0
1,note_on,69,79,0
1,note_on,76,93,0
1,note_on,76,0,240
1,note_on,72,0,0
1,note_on,64,0,0
1,note_on,69,0,0
1,note_on,68,74,240
1,note_on,76,88,0
1,note_on,71,74,0
1,note_on,64,74,0
1,note_on,64,0,240
1,note_on,68,0,0
1,note_on,76,0,0
1,note_on,71,0,0
1,note_on,69,67,240
1,note_on,69,0,480
1,note_on,64,66,480
1,note_on,64,0,160
1,note_on,66,54,0
1,note_on,66,0,160
1,note_on,68,53,0
1,note_on,68,0,160
1,note_on,69,64,0
1,note_on,69,0,160
1,note_on,71,55,0
1,note_on,71,0,160
1,note_on,72,55,0
1,note_on,72,0,160
1,note_on,74,65,0
1,note_on,74,0,480
1,note_on,64,64,0
1,note_on,64,0,160
1,note_on,66,58,0
1,note_on,66,0,160
1,note_on,68,58,0
1,note_on,68,0,160
1,note_on,69,64,0
1,note_on,69,0,160
1,note_on,71,55,0
1,note_on,71,0,160
1,note_on,72,55,0
1,note_on,72,0,160
1,note_on,74,65,0
1,note_on,74,0,480
1,note_on,64,64,0
1,note_on,64,0,160
1,note_on,66,58,0
1,note_on,66,0,160
1,note_on,68,58,0
1,note_on,68,0,160
1,note_on,69,68,0
1,note_on,69,0,160
1,note_on,71,60,0
1,note_on,71,0,160
1,note_on,72,63,0
1,note_on,72,0,160
1,note_on,71,73,0
1,note_on,71,0,160
1,note_on,72,63,0
1,note_on,72,0,160
1,note_on,74,68,0
1,note_on,74,0,160
1,note_on,72,79,0
1,note_on,72,0,160
1,note_on,74,68,0
1,note_on,74,0,160
1,note_on,76,74,0
1,note_on,76,0,160
1,note_on,65,93,0
1,note_on,65,0,160
1,note_on,70,79,0
1,note_on,70,0,160
1,note_on,74,79,0
1,note_on,74,0,160
1,note_on,77,90,0
1,note_on,77,0,160
1,note_on,82,77,0
1,note_on,82,0,160
1,note_on,86,77,0
1,note_on,86,0,160
1,note_on,89,90,0
1,note_on,89,0,160
1,note_on,94,76,0
1,note_on,94,0,160
1,note_on,98,76,0
1,note_on,98,0,160
1,note_on,101,97,0
1,note_on,101,0,120
1,note_on,72,79,360
1,note_on,76,93,0
1,note_on,69,79,0
1,note_on,64,79,0
1,note_on,64,0,240
1,note_on,72,0,0
1,note_on,76,0,0
1,note_on,69,0,0
1,note_on,68,74,240
1,note_on,71,74,0
1,note_on,64,74,0
1,note_on,76,88,0
1,note_on,76,0,240
1,note_on,68,0,0
1,note_on,71,0,0
1,note_on,64,0,0
1,note_on,65,93,240
1,note_on,65,0,160
1,note_on,70,81,0
1,note_on,70,0,160
1,note_on,74,80,0
1,note_on,74,0,160
1,note_on,77,90,0
1,note_on,77,0,160
1,note_on,82,79,0
1,note_on,82,0,160
1,note_on,86,79,0
1,note_on,86,0,160
1,note_on,89,93,0
1,note_on,89,0,160
1,note_on,94,79,0
1,note_on,94,0,160
1,note_on,98,79,0
1,note_on,98,0,160
1,note_on,101,97,0
1,note_on,101,0,120
1,note_on,65,79,360
1,note_on,77,93,0
1,note_on,70,79,0
1,note_on,74,79,0
1,note_on,74,0,240
1,note_on,65,0,0
1,note_on,77,0,0
1,note_on,70,0,0
1,note_on,72,74,240
1,note_on,65,74,0
1,note_on,69,74,0
1,note_on,77,88,0
1,note_on,77,0,240
1,note_on,72,0,0
1,note_on,65,0,0
1,note_on,69,0,0
1,note_on,79,74,240
1,note_on,91,88,0
1,note_on,91,0,240
1,note_on,79,0,0
1,note_on,72,79,240
1,note_on,67,79,0
1,note_on,79,93,0
1,note_on,75,79,0
1,note_on,75,0,240
1,note_on,72,0,0
1,note_on,67,0,0
1,note_on,79,0,0
1,note_on,74,74,240
1,note_on,79,88,0
1,note_on,71,74,0
1,note_on,67,74,0
1,note_on,67,0,240
1,note_on,74,0,0
1,note_on,79,0,0
1,note_on,71,0,0
1,note_on,81,74,240
1,note_on,93,88,0
1,note_on,93,0,240
1,note_on,81,0,0
1,note_on,74,79,240
1,note_on,81,93,0
1,note_on,77,79,0
1,note_on,69,79,0
1,note_on,69,0,240
1,note_on,74,0,0
1,note_on,81,0,0
1,note_on,77,0,0
1,note_on,69,74,240
1,note_on,81,88,0
1,note_on,73,74,0
1,note_on,76,74,0
1,note_on,76,0,240
1,note_on,69,0,0
1,note_on,81,0,0
1,note_on,73,0,0
1,note_on,70,59,240
1,note_on,67,50,0
1,note_on,67,0,120
1,note_on,70,0,0
1,note_on,67,52,120
1,note_on,70,62,0
1,note_on,70,0,120
1,note_on,67,0,0
1,note_on,70,54,120
1,note_on,67,54,0
1,note_on,73,64,0
1,note_on,73,0,120
1,note_on,67,0,0
1,note_on,70,0,0
1,note_on,70,67,120
1,note_on,67,56,0
1,note_on,73,67,0
1,note_on,73,0,120
1,note_on,67,0,0
1,note_on,70,0,0
1,note_on,70,59,120
1,note_on,67,59,0
1,note_on,76,70,0
1,note_on,73,59,0
1,note_on,73,0,120
1,note_on,70,0,0
1,note_on,67,0,0
1,note_on,76,0,0
1,note_on,70,62,120
1,note_on,76,73,0
1,note_on,73,62,0
1,note_on,67,62,0
1,note_on,67,0,120
1,note_on,70,0,0
1,note_on,76,0,0
1,note_on,73,0,0
1,note_on,70,64,120
1,note_on,79,76,0
1,note_on,73,64,0
1,note_on,76,64,0
1,note_on,76,0,120
1,note_on,70,0,0
1,note_on,79,0,0
1,note_on,73,0,0
1,note_on,76,67,120
1,note_on,70,67,0
1,note_on,73,67,0
1,note_on,79,79,0
1,note_on,79,0,120
1,note_on,76,0,0
1,note_on,70,0,0
1,note_on,73,0,0
1,note_on,76,69,120
1,note_on,79,69,0
1,note_on,73,69,0
1,note_on,82,82,0
1,note_on,82,0,120
1,note_on,76,0,0
1,note_on,79,0,0
1,note_on,73,0,0
1,note_on,76,72,120
1,note_on,73,72,0
1,note_on,79,72,0
1,note_on,82,85,0
1,note_on,82,0,120
1,note_on,76,0,0
1,note_on,73,0,0
1,note_on,79,0,0
1,note_on,76,73,120
1,note_on,85,87,0
1,note_on,79,73,0
1,note_on,82,73,0
1,note_on,82,0,120
1,note_on,76,0,0
1,note_on,85,0,0
1,note_on,79,0,0
1,note_on,82,76,120
1,note_on,85,90,0
1,note_on,76,76,0
1,note_on,79,76,0
1,note_on,79,0,120
1,note_on,82,0,0
1,note_on,85,0,0
1,note_on,76,0,0
1,note_on,81,90,120
1,note_on,74,85,0
1,note_on,77,85,0
1,note_on,86,100,0
1,note_on,86,0,240
1,note_on,81,0,0
1,note_on,74,0,0
1,note_on,77,0,0
1,note_on,77,85,1200
1,note_on,86,98,0
1,note_on,81,85,0
1,note_on,89,100,0
1,note_on,89,0,240
1,note_on,77,0,0
1,note_on,86,0,0
1,note_on,81,0,0
1,note_on,69,42,1200
1,note_on,76,50,0
1,note_on,76,0,240
1,note_on,69,0,0
1,note_on,68,42,1200
1,note_on,76,50,0
1,note_on,76,0,240
1,note_on,68,0,0
1,note_on,73,38,1200
1,note_on,64,33,0
1,note_on,73,0,1200
1,note_on,74,36,0
1,note_on,74,0,120
1,note_on,73,31,0
1,note_on,73,0,120
1,note_on,71,36,0
1,note_on,71,0,480
1,note_on,74,38,0
1,note_on,74,0,480
1,note_on,77,42,0
1,note_on,77,0,480
1,note_on,64,0,0
1,note_on,64,33,0
1,note_on,76,40,0
1,note_on,76,0,960
1,note_on,73,34,0
1,note_on,73,0,470
1,note_on,64,0,10
1,note_on,64,33,0
1,note_on,76,40,0
1,note_on,76,0,960
1,note_on,74,34,0
1,note_on,74,0,470
1,note_on,64,0,10
1,note_on,73,38,0
1,note_on,64,38,0
1,note_on,73,0,1200
1,note_on,74,35,0
1,note_on,74,0,120
1,note_on,73,31,0
1,note_on,73,0,120
1,note_on,71,36,0
1,note_on,71,0,480
1,note_on,74,38,0
1,note_on,74,0,480
1,note_on,77,42,0
1,note_on,77,0,480
1,note_on,64,0,0
1,note_on,64,33,0
1,note_on,76,40,0
1,note_on,76,0,960
1,note_on,73,34,0
1,note_on,73,0,470
1,note_on,64,0,10
1,note_on,64,47,0
1,note_on,76,47,0
1,note_on,76,0,960
1,note_on,74,45,0
1,note_on,74,0,470
1,note_on,64,0,10
1,note_on,77,53,0
1,note_on,65,53,0
1,note_on,77,0,960
1,note_on,74,49,0
1,note_on,74,0,470
1,note_on,65,0,10
1,note_on,78,57,0
1,note_on,66,57,0
1,note_on,78,0,960
1,note_on,74,49,0
1,note_on,74,0,470
1,note_on,66,0,10
1,note_on,73,53,0
1,note_on,67,53,0
1,note_on,73,0,480
1,note_on,82,61,0
1,note_on,82,0,480
1,note_on,81,55,0
1,note_on,81,0,480
1,note_on,67,0,0
1,note_on,69,33,0
1,note_on,79,50,0
1,note_on,79,0,960
1,note_on,78,45,0
1,note_on,78,0,470
1,note_on,69,0,10
1,note_on,73,49,0
1,note_on,64,49,0
1,note_on,73,0,480
1,note_on,79,53,0
1,note_on,79,0,480
1,note_on,78,45,0
1,note_on,78,0,480
1,note_on,64,0,0
1,note_on,66,33,0
1,note_on,76,48,0
1,note_on,76,0,960
1,note_on,74,45,0
1,note_on,74,0,470
1,note_on,66,0,10
1,note_on,64,33,0
1,note_on,76,40,0
1,note_on,76,0,960
1,note_on,74,34,0
1,note_on,74,0,470
1,note_on,64,0,10
1,note_on,64,33,0
1,note_on,76,40,0
1,note_on,76,0,960
1,note_on,73,34,0
1,note_on,73,0,470
1,note_on,64,0,10
1,note_on,62,33,0
1,note_on,77,51,0
1,note_on,77,0,480
1,note_on,76,36,0
1,note_on,76,0,240
1,note_on,74,31,0
1,note_on,74,0,240
1,note_on,73,35,0
1,note_on,73,0,240
1,note_on,71,29,0
1,note_on,71,0,240
1,note_on,62,0,0
1,note_on,69,35,0
1,note_on,61,28,0
1,note_on,61,0,470
1,note_on,69,0,250
1,note_on,71,38,0
1,note_on,71,0,240
1,note_on,73,43,0
1,note_on,73,0,240
1,note_on,74,46,0
1,note_on,74,0,240
1,note_on,67,54,0
1,note_on,73,54,0
1,note_on,73,0,480
1,note_on,82,59,0
1,note_on,82,0,480
1,note_on,81,54,0
1,note_on,81,0,480
1,note_on,67,0,0
1,note_on,79,52,0
1,note_on,69,52,0
1,note_on,79,0,960
1,note_on,78,49,0
1,note_on,78,0,470
1,note_on,69,0,10
1,note_on,64,50,0
1,note_on,73,50,0
1,note_on,73,0,480
1,note_on,79,56,0
1,note_on,79,0,480
1,note_on,78,51,0
1,note_on,78,0,480
1,note_on,64,0,0
1,note_on,76,48,0
1,note_on,66,33,0
1,note_on,76,0,960
1,note_on,74,45,0
1,note_on,74,0,470
1,note_on,66,0,10
1,note_on,76,43,0
1,note_on,64,43,0
1,note_on,76,0,960
1,note_on,74,36,0
1,note_on,74,0,470
1,note_on,64,0,10
1,note_on,76,43,0
1,note_on,64,43,0
1,note_on,76,0,960
1,note_on,73,34,0
1,note_on,73,0,470
1,note_on,64,0,10
1,note_on,77,51,0
1,note_on,62,33,0
1,note_on,77,0,480
1,note_on,76,36,0
1,note_on,76,0,240
1,note_on,74,31,0
1,note_on,74,0,240
1,note_on,73,35,0
1,note_on,73,0,240
1,note_on,71,29,0
1,note_on,71,0,240
1,note_on,62,0,0
1,note_on,69,35,0
1,note_on,61,31,0
1,note_on,61,0,950
1,note_on,69,0,490
1,note_on,69,89,0
1,note_on,69,0,240
1,note_on,71,83,0
1,note_on,71,0,120
1,note_on,72,75,0
1,note_on,72,0,120
1,note_on,74,76,0
1,note_on,74,0,120
1,note_on,76,78,0
1,note_on,76,0,120
1,note_on,78,80,0
1,note_on,78,0,120
1,note_on,80,82,0
1,note_on,80,0,120
1,note_on,81,83,0
1,note_on,81,0,120
1,note_on,83,85,0
1,note_on,83,0,120
1,note_on,84,87,0
1,note_on,84,0,120
1,note_on,86,88,0
1,note_on,86,0,120
1,note_on,76,81,0
1,note_on,88,96,0
1,note_on,88,0,90
1,note_on,76,0,0
1,note_on,87,85,150
1,note_on,75,72,0
1,note_on,75,0,90
1,note_on,87,0,0
1,note_on,88,92,150
1,note_on,76,78,0
1,note_on,76,0,90
1,note_on,88,0,0
1,note_on,75,72,150
1,note_on,87,85,0
1,note_on,87,0,90
1,note_on,75,0,0
1,note_on,88,94,150
1,note_on,76,79,0
1,note_on,76,0,90
1,note_on,88,0,0
1,note_on,67,89,390
1,note_on,67,0,240
1,note_on,69,83,0
1,note_on,69,0,120
1,note_on,71,75,0
1,note_on,71,0,120
1,note_on,72,76,0
1,note_on,72,0,120
1,note_on,74,78,0
1,note_on,74,0,120
1,note_on,76,80,0
1,note_on,76,0,120
1,note_on,78,82,0
1,note_on,78,0,120
1,note_on,79,83,0
1,note_on,79,0,120
1,note_on,81,85,0
1,note_on,81,0,120
1,note_on,83,87,0
1,note_on,83,0,120
1,note_on,85,88,0
1,note_on,85,0,120
1,note_on,74,80,0
1,note_on,86,95,0
1,note_on,86,0,90
1,note_on,74,0,0
1,note_on,85,86,150
1,note_on,73,73,0
1,note_on,73,0,90
1,note_on,85,0,0
1,note_on,74,78,150
1,note_on,86,92,0
1,note_on,86,0,90
1,note_on,74,0,0
1,note_on,85,85,150
1,note_on,73,72,0
1,note_on,73,0,90
1,note_on,85,0,0
1,note_on,86,95,150
1,note_on,74,80,0
1,note_on,74,0,90
1,note_on,86,0,0
1,note_on,77,77,510
1,note_on,77,0,120
1,note_on,81,77,0
1,note_on,81,0,120
1,note_on,84,81,0
1,note_on,84,0,120
1,note_on,89,87,0
1,note_on,89,0,120
1,note_on,93,80,0
1,note_on,93,0,120
1,note_on,96,79,0
1,note_on,96,0,120
1,note_on,101,75,0
1,note_on,101,0,120
1,note_on,100,89,0
1,note_on,100,0,120
1,note_on,74,90,360
1,note_on,74,0,120
1,note_on,77,81,0
1,note_on,77,0,120
1,note_on,82,81,0
1,note_on,82,0,120
1,note_on,86,81,0
1,note_on,86,0,120
1,note_on,77,90,0
1,note_on,77,0,120
1,note_on,80,81,0
1,note_on,80,0,120
1,note_on,86,81,0
1,note_on,86,0,120
1,note_on,89,81,0
1,note_on,89,0,120
1,note_on,76,90,0
1,note_on,76,0,120
1,note_on,81,79,0
1,note_on,81,0,120
1,note_on,84,79,0
1,note_on,84,0,120
1,note_on,88,79,0
1,note_on,88,0,120
1,note_on,74,88,0
1,note_on,74,0,120
1,note_on,77,78,0
1,note_on,77,0,120
1,note_on,83,78,0
1,note_on,83,0,120
1,note_on,86,78,0
1,note_on,86,0,120
1,note_on,72,85,0
1,note_on,72,0,120
1,note_on,76,76,0
1,note_on,76,0,120
1,note_on,81,76,0
1,note_on,81,0,120
1,note_on,84,76,0
1,note_on,84,0,120
1,note_on,71,86,0
1,note_on,71,0,120
1,note_on,76,75,0
1,note_on,76,0,120
1,note_on,80,76,0
1,note_on,80,0,120
1,note_on,83,76,0
1,note_on,83,0,120
1,note_on,69,78,0
1,note_on,57,66,0
1,note_on,57,0,160
1,note_on,69,0,0
1,note_on,59,59,0
1,note_on,71,70,0
1,note_on,71,0,160
1,note_on,59,0,0
1,note_on,60,58,0
1,note_on,72,69,0
1,note_on,72,0,160
1,note_on,60,0,0
1,note_on,71,77,0
1,note_on,59,65,0
1,note_on,59,0,160
1,note_on,71,0,0
1,note_on,72,71,0
1,note_on,60,60,0
1,note_on,60,0,160
1,note_on,72,0,0
1,note_on,74,72,0
1,note_on,62,61,0
1,note_on,62,0,160
1,note_on,74,0,0
1,note_on,64,74,0
1,note_on,76,88,0
1,note_on,76,0,480
1,note_on,64,0,0
1,note_on,57,66,0
1,note_on,69,78,0
1,note_on,69,0,160
1,note_on,57,0,0
1,note_on,71,70,0
1,note_on,59,59,0
1,note_on,59,0,160
1,note_on,71,0,0
1,note_on,60,58,0
1,note_on,72,69,0
1,note_on,72,0,160
1,note_on,60,0,0
1,note_on,59,65,0
1,note_on,71,77,0
1,note_on,71,0,160
1,note_on,59,0,0
1,note_on,72,71,0
1,note_on,60,60,0
1,note_on,60,0,160
1,note_on,72,0,0
1,note_on,62,61,0
1,note_on,74,72,0
1,note_on,74,0,160
1,note_on,62,0,0
1,note_on,76,88,0
1,note_on,64,74,0
1,note_on,64,0,480
1,note_on,76,0,0
1,note_on,69,71,0
1,note_on,81,84,0
1,note_on,81,0,160
1,note_on,69,0,0
1,note_on,71,64,0
1,note_on,83,76,0
1,note_on,83,0,160
1,note_on,71,0,0
1,note_on,84,76,0
1,note_on,72,64,0
1,note_on,72,0,160
1,note_on,84,0,0
1,note_on,83,85,0
1,note_on,71,72,0
1,note_on,71,0,160
1,note_on,83,0,0
1,note_on,84,77,0
1,note_on,72,65,0
1,note_on,72,0,160
1,note_on,84,0,0
1,note_on,74,65,0
1,note_on,86,77,0
1,note_on,86,0,160
1,note_on,74,0,0
1,note_on,76,80,0
1,note_on,88,95,0
1,note_on,88,0,480
1,note_on,76,0,0
1,note_on,81,84,0
1,note_on,69,71,0
1,note_on,69,0,160
1,note_on,81,0,0
1,note_on,71,64,0
1,note_on,83,76,0
1,note_on,83,0,160
1,note_on,71,0,0
1,note_on,72,64,0
1,note_on,84,76,0
1,note_on,84,0,160
1,note_on,72,0,0
1,note_on,71,72,0
1,note_on,83,85,0
1,note_on,83,0,160
1,note_on,71,0,0
1,note_on,84,77,0
1,note_on,72,65,0
1,note_on,72,0,160
1,note_on,84,0,0
1,note_on,74,65,0
1,note_on,86,77,0
1,note_on,86,0,160
1,note_on,74,0,0
1,note_on,76,80,0
1,note_on,88,95,0
1,note_on,88,0,480
1,note_on,76,0,0
1,note_on,81,80,0
1,note_on,76,80,0
1,note_on,72,80,0
1,note_on,84,95,0
1,note_on,84,0,240
1,note_on,81,0,0
1,note_on,76,0,0
1,note_on,72,0,0
1,note_on,83,91,720
1,note_on,76,77,0
1,note_on,80,77,0
1,note_on,71,77,0
1,note_on,71,0,240
1,note_on,83,0,0
1,note_on,76,0,0
1,note_on,80,0,0
1,note_on,84,95,240
1,note_on,76,80,0
1,note_on,81,80,0
1,note_on,72,80,0
1,note_on,72,0,240
1,note_on,84,0,0
1,note_on,76,0,0
1,note_on,81,0,0
1,note_on,71,77,720
1,note_on,76,77,0
1,note_on,80,77,0
1,note_on,83,91,0
1,note_on,83,0,240
1,note_on,71,0,0
1,note_on,76,0,0
1,note_on,80,0,0
1,note_on,81,80,240
1,note_on,84,95,0
1,note_on,76,80,0
1,note_on,72,80,0
1,note_on,72,0,240
1,note_on,81,0,0
1,note_on,84,0,0
1,note_on,76,0,0
1,note_on,80,91,720
1,note_on,76,77,0
1,note_on,71,77,0
1,note_on,83,91,0
1,note_on,83,0,240
1,note_on,80,0,0
1,note_on,76,0,0
1,note_on,71,0,0
1,note_on,69,80,240
1,note_on,81,95,0
1,note_on,72,80,0
1,note_on,76,80,0
1,note_on,76,0,240
1,note_on,69,0,0
1,note_on,81,0,0
1,note_on,72,0,0
1,note_on,64,72,1200
1,note_on,57,72,0
1,note_on,60,72,0
1,note_on,69,85,0
1,note_on,69,0,240
1,note_on,64,0,0
1,note_on,57,0,0
1,note_on,60,0,0
1,note_on,60,74,240
1,note_on,64,74,0
1,note_on,57,74,0
1,note_on,69,88,0
1,note_on,69,0,240
1,note_on,60,0,0
1,note_on,64,0,0
1,note_on,57,0,0
1,note_on,60,76,240
1,note_on,57,76,0
1,note_on,64,76,0
1,note_on,69,90,0
1,note_on,69,0,240
1,note_on,60,0,0
1,note_on,57,0,0
1,note_on,64,0,0
1,note_on,57,77,240
1,note_on,69,91,0
1,note_on,60,77,0
1,note_on,64,77,0
1,note_on,64,0,240
1,note_on,57,0,0
1,note_on,69,0,0
1,note_on,60,0,0
2,note_on,64,50,960
2,note_on,64,0,109
2,note_on,66,44,0
2,note_on,66,0,160
2,note_on,68,44,0
2,note_on,68,0,160
2,note_on,66,52,0
2,note_on,66,0,160
2,note_on,68,45,0
2,note_on,68,0,160
2,note_on,69,45,0
2,note_on,69,0,160
2,note_on,64,50,480
2,note_on,64,0,109
2,note_on,66,46,0
2,note_on,66,0,160
2,note_on,68,46,0
2,note_on,68,0,160
2,note_on,66,50,0
2,note_on,66,0,160
2,note_on,68,45,0
2,note_on,68,0,160
2,note_on,69,45,0
2,note_on,69,0,160
2,note_on,69,50,480
2,note_on,69,0,160
2,note_on,71,50,0
2,note_on,71,0,160
2,note_on,72,51,0
2,note_on,72,0,160
2,note_on,74,52,0
2,note_on,74,0,160
2,note_on,76,53,0
2,note_on,76,0,160
2,note_on,77,56,0
2,note_on,77,0,160
2,note_on,76,60,0
2,note_on,76,0,160
2,note_on,74,55,0
2,note_on,74,0,160
2,note_on,72,51,0
2,note_on,72,0,160
2,note_on,71,55,0
2,note_on,71,0,160
2,note_on,69,52,0
2,note_on,69,0,160
2,note_on,67,50,0
2,note_on,67,0,160
2,note_on,65,59,0
2,note_on,65,0,180
2,note_on,60,56,300
2,note_on,60,0,180
2,note_on,57,50,300
2,note_on,57,0,441
2,note_on,56,53,0
2,note_on,56,0,160
2,note_on,54,48,0
2,note_on,54,0,160
2,note_on,52,48,0
2,note_on,52,0,160
2,note_on,51,52,0
2,note_on,51,0,160
2,note_on,49,47,0
2,note_on,49,0,160
2,note_on,47,48,0
2,note_on,47,0,160
2,note_on,57,64,0
2,note_on,57,0,480
2,note_on,56,54,0
2,note_on,56,0,160
2,note_on,54,49,0
2,note_on,54,0,160
2,note_on,52,49,0
2,note_on,52,0,160
2,note_on,51,53,0
2,note_on,51,0,131
2,note_on,49,47,0
2,note_on,49,0,160
2,note_on,47,47,0
2,note_on,47,0,160
2,note_on,57,64,0
2,note_on,57,0,469
2,note_on,56,54,0
2,note_on,56,0,160
2,note_on,54,47,0
2,note_on,54,0,160
2,note_on,52,47,0
2,note_on,52,0,160
2,note_on,51,52,0
2,note_on,51,0,120
2,note_on,49,44,0
2,note_on,49,0,160
2,note_on,47,44,0
2,note_on,47,0,11
2,note_on,57,64,0
2,note_on,57,0,480
2,note_on,56,50,0
2,note_on,56,0,120
2,note_on,54,43,0
2,note_on,54,0,160
2,note_on,52,43,0
2,note_on,52,0,160
2,note_on,54,52,0
2,note_on,54,0,85
2,note_on,52,44,0
2,note_on,52,0,160
2,note_on,51,44,0
2,note_on,51,0,160
2,note_on,52,52,0
2,note_on,52,0,100
2,note_on,51,47,0
2,note_on,51,0,160
2,note_on,50,47,0
2,note_on,50,0,160
2,note_on,52,56,0
2,note_on,52,0,111
2,note_on,50,52,0
2,note_on,50,0,160
2,note_on,48,53,0
2,note_on,48,0,160
2,note_on,50,58,0
2,note_on,50,0,68
2,note_on,48,55,0
2,note_on,48,0,160
2,note_on,47,55,0
2,note_on,47,0,160
2,note_on,48,65,0
2,note_on,48,0,89
2,note_on,47,59,0
2,note_on,47,0,160
2,note_on,45,59,0
2,note_on,45,0,160
2,note_on,44,77,0
2,note_on,44,0,96
2,note_on,45,67,0
2,note_on,45,0,160
2,note_on,47,67,0
2,note_on,47,0,160
2,note_on,38,75,0
2,note_on,44,75,0
2,note_on,44,0,100
2,note_on,45,66,0
2,note_on,38,0,80
2,note_on,45,0,80
2,note_on,47,66,0
2,note_on,47,0,160
2,note_on,38,76,0
2,note_on,44,76,0
2,note_on,44,0,118
2,note_on,45,69,0
2,note_on,38,0,80
2,note_on,45,0,80
2,note_on,47,69,0
2,note_on,47,0,160
2,note_on,38,78,0
2,note_on,44,78,0
2,note_on,44,0,118
2,note_on,45,72,0
2,note_on,38,0,80
2,note_on,45,0,80
2,note_on,47,74,0
2,note_on,47,0,160
2,note_on,38,81,0
2,note_on,44,81,0
2,note_on,44,0,96
2,note_on,45,74,0
2,note_on,38,0,80
2,note_on,45,0,80
2,note_on,47,76,0
2,note_on,47,0,160
2,note_on,38,84,0
2,note_on,44,84,0
2,note_on,44,0,100
2,note_on,45,76,0
2,note_on,38,0,80
2,note_on,45,0,80
2,note_on,47,78,0
2,note_on,47,0,160
2,note_on,32,84,0
2,note_on,44,99,0
2,note_on,44,0,169
2,note_on,32,0,0
2,note_on,64,50,3374
2,note_on,64,0,109
2,note_on,66,44,0
2,note_on,66,0,160
2,note_on,68,44,0
2,note_on,68,0,160
2,note_on,66,52,0
2,note_on,66,0,154
2,note_on,68,45,0
2,note_on,68,0,160
2,note_on,69,45,0
2,note_on,69,0,160
2,note_on,64,50,480
2,note_on,64,0,109
2,note_on,66,46,0
2,note_on,66,0,160
2,note_on,68,46,0
2,note_on,68,0,160
2,note_on,66,50,0
2,note_on,66,0,155
2,note_on,68,45,0
2,note_on,68,0,160
2,note_on,69,45,0
2,note_on,69,0,160
2,note_on,69,50,480
2,note_on,69,0,160
2,note_on,71,50,0
2,note_on,71,0,160
2,note_on,72,51,0
2,note_on,72,0,160
2,note_on,74,52,0
2,note_on,74,0,160
2,note_on,76,53,0
2,note_on,76,0,160
2,note_on,77,56,0
2,note_on,77,0,160
2,note_on,76,60,0
2,note_on,76,0,160
2,note_on,74,55,0
2,note_on,74,0,160
2,note_on,72,51,0
2,note_on,72,0,160
2,note_on,71,55,0
2,note_on,71,0,160
2,note_on,69,52,0
2,note_on,69,0,160
2,note_on,67,50,0
2,note_on,67,0,160
2,note_on,65,59,0
2,note_on,65,0,180
2,note_on,60,56,300
2,note_on,60,0,180
2,note_on,57,50,300
2,note_on,57,0,141
2,note_on,55,54,300
2,note_on,55,0,154
2,note_on,54,49,0
2,note_on,54,0,160
2,note_on,52,49,0
2,note_on,52,0,160
2,note_on,51,53,0
2,note_on,51,0,131
2,note_on,49,47,0
2,note_on,49,0,160
2,note_on,47,47,0
2,note_on,47,0,160
2,note_on,57,64,0
2,note_on,57,0,472
2,note_on,55,54,0
2,note_on,55,0,160
2,note_on,54,47,0
2,note_on,54,0,160
2,note_on,52,47,0
2,note_on,52,0,160
2,note_on,51,52,0
2,note_on,51,0,120
2,note_on,49,44,0
2,note_on,49,0,160
2,note_on,47,44,0
2,note_on,47,0,160
2,note_on,57,64,0
2,note_on,57,0,472
2,note_on,55,50,0
2,note_on,55,0,120
2,note_on,54,43,0
2,note_on,54,0,160
2,note_on,52,43,0
2,note_on,52,0,160
2,note_on,51,52,0
2,note_on,51,0,114
2,note_on,52,44,0
2,note_on,52,0,160
2,note_on,54,44,0
2,note_on,54,0,160
2,note_on,52,52,0
2,note_on,52,0,91
2,note_on,54,47,0
2,note_on,54,0,160
2,note_on,55,47,0
2,note_on,55,0,160
2,note_on,54,56,0
2,note_on,54,0,80
2,note_on,55,52,0
2,note_on,55,0,160
2,note_on,57,53,0
2,note_on,57,0,160
2,note_on,56,58,0
2,note_on,56,0,86
2,note_on,57,55,0
2,note_on,57,0,160
2,note_on,59,55,0
2,note_on,59,0,160
2,note_on,57,65,0
2,note_on,57,0,89
2,note_on,59,59,0
2,note_on,59,0,160
2,note_on,60,59,0
2,note_on,60,0,160
2,note_on,62,91,0
2,note_on,62,0,69
2,note_on,58,77,0
2,note_on,58,0,160
2,note_on,53,77,0
2,note_on,53,0,160
2,note_on,50,86,0
2,note_on,50,0,160
2,note_on,46,76,0
2,note_on,46,0,160
2,note_on,41,76,0
2,note_on,41,0,160
2,note_on,38,83,0
2,note_on,38,0,160
2,note_on,34,75,0
2,note_on,34,0,160
2,note_on,29,75,0
2,note_on,29,0,160
2,note_on,26,91,0
2,note_on,26,0,120
2,note_on,52,77,247
2,note_on,40,65,0
2,note_on,48,65,0
2,note_on,45,65,0
2,note_on,45,0,205
2,note_on,52,0,0
2,note_on,40,0,0
2,note_on,48,0,0
2,note_on,44,61,233
2,note_on,47,61,0
2,note_on,52,72,0
2,note_on,40,61,0
2,note_on,40,0,176
2,note_on,44,0,0
2,note_on,47,0,0
2,note_on,52,0,0
2,note_on,60,62,191
2,note_on,60,0,160
2,note_on,59,56,0
2,note_on,59,0,160
2,note_on,57,56,0
2,note_on,57,0,160
2,note_on,56,61,0
2,note_on,56,0,131
2,note_on,54,55,0
2,note_on,54,0,160
2,note_on,52,54,0
2,note_on,52,0,160
2,note_on,62,67,0
2,note_on,62,0,464
2,note_on,60,61,0
2,note_on,60,0,160
2,note_on,59,55,0
2,note_on,59,0,160
2,note_on,57,55,0
2,note_on,57,0,160
2,note_on,56,60,0
2,note_on,56,0,120
2,note_on,54,54,0
2,note_on,54,0,160
2,note_on,52,54,0
2,note_on,52,0,160
2,note_on,62,68,0
2,note_on,62,0,460
2,note_on,60,64,0
2,note_on,60,0,111
2,note_on,59,57,0
2,note_on,59,0,160
2,note_on,57,57,0
2,note_on,57,0,160
2,note_on,56,67,0
2,note_on,56,0,98
2,note_on,57,56,0
2,note_on,57,0,160
2,note_on,59,56,0
2,note_on,59,0,160
2,note_on,57,72,0
2,note_on,57,0,89
2,note_on,59,64,0
2,note_on,59,0,160
2,note_on,60,64,0
2,note_on,60,0,160
2,note_on,62,91,0
2,note_on,62,0,97
2,note_on,58,76,0
2,note_on,58,0,160
2,note_on,53,76,0
2,note_on,53,0,160
2,note_on,50,85,0
2,note_on,50,0,160
2,note_on,46,74,0
2,note_on,46,0,160
2,note_on,41,75,0
2,note_on,41,0,160
2,note_on,38,85,0
2,note_on,38,0,160
2,note_on,34,75,0
2,note_on,34,0,160
2,note_on,29,76,0
2,note_on,29,0,160
2,note_on,26,93,0
2,note_on,26,0,120
2,note_on,40,68,247
2,note_on,45,68,0
2,note_on,48,68,0
2,note_on,52,80,0
2,note_on,52,0,56
2,note_on,40,0,0
2,note_on,45,0,0
2,note_on,48,0,0
2,note_on,40,63,240
2,note_on,47,63,0
2,note_on,44,63,0
2,note_on,52,75,0
2,note_on,52,0,71
2,note_on,40,0,0
2,note_on,47,0,0
2,note_on,44,0,0
2,note_on,36,73,240
2,note_on,40,73,0
2,note_on,45,86,0
2,note_on,33,73,0
2,note_on,33,0,49
2,note_on,36,0,0
2,note_on,40,0,0
2,note_on,45,0,0
2,note_on,45,76,0
2,note_on,45,0,60
2,note_on,47,77,0
2,note_on,47,0,60
2,note_on,48,77,0
2,note_on,48,0,60
2,note_on,50,78,0
2,note_on,50,0,60
2,note_on,52,85,0
2,note_on,40,72,0
2,note_on,40,0,90
2,note_on,52,0,0
2,note_on,53,69,150
2,note_on,41,58,0
2,note_on,41,0,90
2,note_on,53,0,0
2,note_on,52,77,150
2,note_on,40,65,0
2,note_on,40,0,90
2,note_on,52,0,0
2,note_on,53,69,150
2,note_on,41,58,0
2,note_on,41,0,90
2,note_on,53,0,0
2,note_on,52,77,150
2,note_on,40,65,0
2,note_on,40,0,90
2,note_on,52,0,0
2,note_on,29,73,390
2,note_on,36,73,0
2,note_on,33,73,0
2,note_on,41,87,0
2,note_on,41,0,25
2,note_on,29,0,0
2,note_on,36,0,0
2,note_on,33,0,0
2,note_on,41,69,0
2,note_on,41,0,60
2,note_on,43,69,0
2,note_on,43,0,60
2,note_on,45,69,0
2,note_on,45,0,60
2,note_on,47,70,0
2,note_on,47,0,60
2,note_on,36,59,0
2,note_on,48,70,0
2,note_on,48,0,90
2,note_on,36,0,0
2,note_on,38,52,150
2,note_on,50,62,0
2,note_on,50,0,90
2,note_on,38,0,0
2,note_on,36,60,150
2,note_on,48,71,0
2,note_on,48,0,90
2,note_on,36,0,0
2,note_on,50,64,150
2,note_on,38,54,0
2,note_on,38,0,90
2,note_on,50,0,0
2,note_on,36,65,150
2,note_on,48,77,0
2,note_on,48,0,90
2,note_on,36,0,0
2,note_on,32,73,390
2,note_on,44,86,0
2,note_on,44,0,960
2,note_on,32,0,0
2,note_on,33,68,0
2,note_on,45,80,0
2,note_on,45,0,169
2,note_on,33,0,0
2,note_on,34,65,155
2,note_on,46,77,0
2,note_on,46,0,25
2,note_on,34,0,0
2,note_on,35,70,240
2,note_on,47,83,0
2,note_on,47,0,8
2,note_on,35,0,0
2,note_on,48,79,240
2,note_on,36,67,0
2,note_on,36,0,17
2,note_on,48,0,0
2,note_on,50,84,240
2,note_on,38,71,0
2,note_on,38,0,183
2,note_on,50,0,0
2,note_on,52,78,229
2,note_on,40,66,0
2,note_on,40,0,171
2,note_on,52,0,0
2,note_on,52,75,206
2,note_on,40,63,0
2,note_on,40,0,183
2,note_on,52,0,0
2,note_on,45,69,229
2,note_on,48,69,0
2,note_on,52,69,0
2,note_on,57,82,0
2,note_on,57,0,1440
2,note_on,45,0,0
2,note_on,48,0,0
2,note_on,52,0,0
2,note_on,56,77,0
2,note_on,52,65,0
2,note_on,52,0,84
2,note_on,56,0,0
2,note_on,57,67,150
2,note_on,53,56,0
2,note_on,53,0,90
2,note_on,57,0,0
2,note_on,56,72,150
2,note_on,52,61,0
2,note_on,52,0,90
2,note_on,56,0,0
2,note_on,57,65,150
2,note_on,53,55,0
2,note_on,53,0,90
2,note_on,57,0,0
2,note_on,56,77,150
2,note_on,52,65,0
2,note_on,52,0,90
2,note_on,56,0,0
2,note_on,48,72,0
2,note_on,45,72,0
2,note_on,41,72,0
2,note_on,53,85,0
2,note_on,53,0,1440
2,note_on,48,0,0
2,note_on,45,0,0
2,note_on,41,0,0
2,note_on,52,71,0
2,note_on,48,60,0
2,note_on,48,0,79
2,note_on,52,0,0
2,note_on,53,64,150
2,note_on,50,54,0
2,note_on,50,0,90
2,note_on,53,0,0
2,note_on,52,70,150
2,note_on,48,59,0
2,note_on,48,0,90
2,note_on,52,0,0
2,note_on,53,62,150
2,note_on,50,52,0
2,note_on,50,0,90
2,note_on,53,0,0
2,note_on,52,74,150
2,note_on,48,62,0
2,note_on,48,0,90
2,note_on,52,0,0
2,note_on,50,57,390
2,note_on,47,57,0
2,note_on,56,68,0
2,note_on,53,57,0
2,note_on,44,57,0
2,note_on,44,0,882
2,note_on,56,0,0
2,note_on,50,0,0
2,note_on,47,0,0
2,note_on,53,0,0
2,note_on,48,55,0
2,note_on,57,65,0
2,note_on,52,55,0
2,note_on,45,55,0
2,note_on,45,0,219
2,note_on,48,0,0
2,note_on,57,0,0
2,note_on,52,0,0
2,note_on,50,51,240
2,note_on,58,60,0
2,note_on,53,51,0
2,note_on,46,51,0
2,note_on,46,0,177
2,note_on,50,0,0
2,note_on,58,0,0
2,note_on,53,0,0
2,note_on,50,49,240
2,note_on,56,49,0
2,note_on,59,58,0
2,note_on,47,49,0
2,note_on,53,49,0
2,note_on,53,0,120
2,note_on,59,0,0
2,note_on,50,0,0
2,note_on,56,0,0
2,note_on,47,0,0
2,note_on,52,48,240
2,note_on,60,57,0
2,note_on,57,48,0
2,note_on,48,48,0
2,note_on,48,0,120
2,note_on,52,0,0
2,note_on,60,0,0
2,note_on,57,0,0
2,note_on,53,49,240
2,note_on,62,58,0
2,note_on,50,49,0
2,note_on,59,49,0
2,note_on,59,0,149
2,note_on,53,0,0
2,note_on,62,0,0
2,note_on,50,0,0
2,note_on,57,47,240
2,note_on,64,56,0
2,note_on,60,47,0
2,note_on,52,47,0
2,note_on,52,0,137
2,note_on,57,0,0
2,note_on,64,0,0
2,note_on,60,0,0
2,note_on,59,45,240
2,note_on,64,54,0
2,note_on,52,45,0
2,note_on,56,45,0
2,note_on,56,0,171
2,note_on,59,0,0
2,note_on,64,0,0
2,note_on,52,0,0
2,note_on,45,77,240
2,note_on,45,0,131
2,note_on,47,73,0
2,note_on,47,0,120
2,note_on,48,67,0
2,note_on,48,0,120
2,note_on,50,67,0
2,note_on,50,0,120
2,note_on,52,66,0
2,note_on,52,0,120
2,note_on,54,65,0
2,note_on,54,0,120
2,note_on,56,64,0
2,note_on,56,0,120
2,note_on,57,63,0
2,note_on,57,0,120
2,note_on,59,63,0
2,note_on,59,0,120
2,note_on,60,62,0
2,note_on,60,0,120
2,note_on,62,62,0
2,note_on,62,0,120
2,note_on,64,61,0
2,note_on,64,0,120
2,note_on,65,61,0
2,note_on,65,0,120
2,note_on,67,60,0
2,note_on,67,0,120
2,note_on,69,60,0
2,note_on,69,0,120
2,note_on,70,60,0
2,note_on,70,0,85
2,note_on,67,60,1200
2,note_on,67,0,240
2,note_on,64,55,1200
2,note_on,64,0,240
2,note_on,61,48,1200
2,note_on,61,0,240
2,note_on,60,46,1200
2,note_on,60,0,240
2,note_on,41,36,0
2,note_on,41,0,166
2,note_on,48,22,0
2,note_on,48,0,240
2,note_on,53,27,0
2,note_on,53,0,240
2,note_on,48,22,0
2,note_on,48,0,240
2,note_on,53,36,0
2,note_on,53,0,240
2,note_on,40,36,240
2,note_on,40,0,126
2,note_on,48,26,0
2,note_on,48,0,240
2,note_on,55,31,0
2,note_on,55,0,240
2,note_on,48,26,0
2,note_on,48,0,240
2,note_on,58,35,0
2,note_on,58,0,240
2,note_on,41,33,240
2,note_on,41,0,85
2,note_on,48,23,0
2,note_on,48,0,240
2,note_on,57,26,0
2,note_on,57,0,240
2,note_on,48,22,0
2,note_on,48,0,240
2,note_on,53,36,0
2,note_on,53,0,240
2,note_on,40,36,240
2,note_on,40,0,113
2,note_on,48,27,0
2,note_on,48,0,240
2,note_on,52,31,0
2,note_on,52,0,240
2,note_on,48,26,0
2,note_on,48,0,240
2,note_on,55,35,0
2,note_on,55,0,240
2,note_on,41,34,240
2,note_on,41,0,166
2,note_on,48,27,0
2,note_on,48,0,240
2,note_on,53,29,0
2,note_on,53,0,240
2,note_on,48,26,0
2,note_on,48,0,240
2,note_on,53,36,0
2,note_on,53,0,240
2,note_on,40,36,240
2,note_on,40,0,126
2,note_on,48,27,0
2,note_on,48,0,240
2,note_on,55,31,0
2,note_on,55,0,240
2,note_on,48,27,0
2,note_on,48,0,240
2,note_on,58,35,0
2,note_on,58,0,240
2,note_on,41,33,240
2,note_on,41,0,85
2,note_on,48,23,0
2,note_on,48,0,240
2,note_on,57,27,0
2,note_on,57,0,240
2,note_on,48,22,0
2,note_on,48,0,240
2,note_on,53,36,0
2,note_on,53,0,240
2,note_on,40,38,240
2,note_on,40,0,42
2,note_on,48,28,0
2,note_on,48,0,240
2,note_on,52,35,0
2,note_on,52,0,240
2,note_on,48,28,0
2,note_on,48,0,240
2,note_on,55,35,0
2,note_on,55,0,240
2,note_on,40,38,240
2,note_on,40,0,80
2,note_on,49,30,0
2,note_on,49,0,240
2,note_on,52,36,0
2,note_on,52,0,240
2,note_on,49,31,0
2,note_on,49,0,240
2,note_on,55,39,0
2,note_on,55,0,240
2,note_on,41,47,240
2,note_on,41,0,113
2,note_on,50,33,0
2,note_on,50,0,240
2,note_on,53,36,0
2,note_on,53,0,240
2,note_on,50,33,0
2,note_on,50,0,240
2,note_on,58,41,0
2,note_on,58,0,240
2,note_on,41,48,240
2,note_on,41,0,127
2,note_on,53,35,0
2,note_on,53,0,240
2,note_on,60,40,0
2,note_on,60,0,240
2,note_on,53,35,0
2,note_on,53,0,240
2,note_on,60,44,0
2,note_on,60,0,240
2,note_on,46,39,240
2,note_on,46,0,149
2,note_on,53,24,0
2,note_on,53,0,240
2,note_on,58,26,0
2,note_on,58,0,240
2,note_on,53,22,0
2,note_on,53,0,240
2,note_on,62,31,0
2,note_on,62,0,240
2,note_on,38,38,240
2,note_on,38,0,46
2,note_on,50,30,0
2,note_on,50,0,240
2,note_on,54,33,0
2,note_on,54,0,240
2,note_on,50,29,0
2,note_on,50,0,240
2,note_on,57,38,0
2,note_on,57,0,240
2,note_on,43,36,240
2,note_on,43,0,46
2,note_on,50,25,0
2,note_on,50,0,240
2,note_on,55,28,0
2,note_on,55,0,240
2,note_on,50,26,0
2,note_on,50,0,240
2,note_on,58,31,0
2,note_on,58,0,240
2,note_on,40,36,240
2,note_on,40,0,71
2,note_on,48,27,0
2,note_on,48,0,240
2,note_on,52,29,0
2,note_on,52,0,240
2,note_on,48,27,0
2,note_on,48,0,240
2,note_on,55,35,0
2,note_on,55,0,240
2,note_on,41,33,240
2,note_on,41,0,85
2,note_on,48,28,0
2,note_on,48,0,240
2,note_on,57,29,0
2,note_on,57,0,240
2,note_on,48,28,0
2,note_on,48,0,240
2,note_on,53,36,0
2,note_on,53,0,240
2,note_on,36,33,240
2,note_on,36,0,80
2,note_on,48,29,0
2,note_on,48,0,240
2,note_on,55,29,0
2,note_on,55,0,240
2,note_on,48,29,0
2,note_on,48,0,240
2,note_on,52,36,0
2,note_on,52,0,240
2,note_on,41,33,240
2,note_on,41,0,91
2,note_on,48,26,0
2,note_on,48,0,240
2,note_on,57,26,0
2,note_on,57,0,240
2,note_on,48,26,0
2,note_on,48,0,240
2,note_on,53,30,0
2,note_on,53,0,240
2,note_on,41,44,240
2,note_on,41,0,99
2,note_on,53,36,0
2,note_on,53,0,240
2,note_on,60,38,0
2,note_on,60,0,240
2,note_on,53,36,0
2,note_on,53,0,240
2,note_on,60,44,0
2,note_on,60,0,240
2,note_on,46,39,240
2,note_on,46,0,114
2,note_on,53,26,0
2,note_on,53,0,240
2,note_on,58,26,0
2,note_on,58,0,240
2,note_on,53,26,0
2,note_on,53,0,240
2,note_on,62,31,0
2,note_on,62,0,240
2,note_on,38,40,240
2,note_on,38,0,126
2,note_on,50,30,0
2,note_on,50,0,240
2,note_on,54,36,0
2,note_on,54,0,240
2,note_on,50,29,0
2,note_on,50,0,240
2,note_on,57,38,0
2,note_on,57,0,240
2,note_on,43,36,240
2,note_on,43,0,57
2,note_on,50,26,0
2,note_on,50,0,240
2,note_on,55,26,0
2,note_on,55,0,240
2,note_on,50,26,0
2,note_on,50,0,240
2,note_on,58,31,0
2,note_on,58,0,240
2,note_on,40,36,240
2,note_on,40,0,56
2,note_on,48,27,0
2,note_on,48,0,240
2,note_on,52,28,0
2,note_on,52,0,240
2,note_on,48,28,0
2,note_on,48,0,240
2,note_on,55,35,0
2,note_on,55,0,240
2,note_on,41,33,240
2,note_on,41,0,99
2,note_on,48,27,0
2,note_on,48,0,240
2,note_on,57,29,0
2,note_on,57,0,240
2,note_on,48,26,0
2,note_on,48,0,240
2,note_on,53,36,0
2,note_on,53,0,240
2,note_on,36,33,240
2,note_on,36,0,46
2,note_on,48,26,0
2,note_on,48,0,240
2,note_on,55,29,0
2,note_on,55,0,240
2,note_on,48,27,0
2,note_on,48,0,240
2,note_on,52,36,0
2,note_on,52,0,240
2,note_on,41,33,240
2,note_on,41,0,28
2,note_on,48,23,0
2,note_on,48,0,240
2,note_on,53,26,0
2,note_on,53,0,240
2,note_on,48,23,0
2,note_on,48,0,240
2,note_on,57,23,0
2,note_on,57,0,240
2,note_on,41,33,240
2,note_on,41,0,113
2,note_on,48,20,0
2,note_on,48,0,240
2,note_on,53,26,0
2,note_on,53,0,240
2,note_on,48,20,0
2,note_on,48,0,240
2,note_on,57,25,0
2,note_on,57,0,240
2,note_on,40,31,240
2,note_on,40,0,56
2,note_on,48,18,0
2,note_on,48,0,240
2,note_on,52,23,0
2,note_on,52,0,240
2,note_on,48,18,0
2,note_on,48,0,240
2,note_on,57,25,0
2,note_on,57,0,240
2,note_on,40,29,240
2,note_on,40,0,69
2,note_on,47,20,0
2,note_on,47,0,240
2,note_on,52,25,0
2,note_on,52,0,240
2,note_on,47,18,0
2,note_on,47,0,240
2,note_on,56,20,0
2,note_on,56,0,240
2,note_on,45,38,217
2,note_on,45,0,480
2,note_on,64,42,480
2,note_on,64,0,109
2,note_on,66,37,0
2,note_on,66,0,160
2,note_on,68,37,0
2,note_on,68,0,160
2,note_on,66,44,0
2,note_on,66,0,154
2,note_on,68,38,0
2,note_on,68,0,160
2,note_on,69,38,0
2,note_on,69,0,160
2,note_on,64,42,480
2,note_on,64,0,109
2,note_on,66,39,0
2,note_on,66,0,160
2,note_on,68,39,0
2,note_on,68,0,160
2,note_on,66,42,0
2,note_on,66,0,150
2,note_on,68,38,0
2,note_on,68,0,160
2,note_on,69,38,0
2,note_on,69,0,160
2,note_on,69,42,480
2,note_on,69,0,160
2,note_on,71,42,0
2,note_on,71,0,160
2,note_on,72,43,0
2,note_on,72,0,160
2,note_on,74,44,0
2,note_on,74,0,160
2,note_on,76,45,0
2,note_on,76,0,160
2,note_on,77,47,0
2,note_on,77,0,160
2,note_on,76,51,0
2,note_on,76,0,160
2,note_on,74,46,0
2,note_on,74,0,160
2,note_on,72,43,0
2,note_on,72,0,160
2,note_on,71,46,0
2,note_on,71,0,160
2,note_on,69,44,0
2,note_on,69,0,160
2,note_on,67,42,0
2,note_on,67,0,160
2,note_on,65,50,0
2,note_on,65,0,180
2,note_on,60,47,300
2,note_on,60,0,180
2,note_on,57,42,300
2,note_on,57,0,141
2,note_on,56,45,0
2,note_on,56,0,160
2,note_on,54,40,0
2,note_on,54,0,160
2,note_on,52,40,0
2,note_on,52,0,160
2,note_on,51,44,0
2,note_on,51,0,160
2,note_on,49,39,0
2,note_on,49,0,160
2,note_on,47,40,0
2,note_on,47,0,160
2,note_on,57,54,0
2,note_on,57,0,480
2,note_on,56,45,0
2,note_on,56,0,160
2,note_on,54,41,0
2,note_on,54,0,160
2,note_on,52,41,0
2,note_on,52,0,160
2,note_on,51,45,0
2,note_on,51,0,131
2,note_on,49,39,0
2,note_on,49,0,160
2,note_on,47,39,0
2,note_on,47,0,160
2,note_on,57,54,0
2,note_on,57,0,474
2,note_on,56,45,0
2,note_on,56,0,160
2,note_on,54,39,0
2,note_on,54,0,160
2,note_on,52,39,0
2,note_on,52,0,160
2,note_on,51,44,0
2,note_on,51,0,120
2,note_on,49,37,0
2,note_on,49,0,160
2,note_on,47,37,0
2,note_on,47,0,160
2,note_on,57,54,0
2,note_on,57,0,474
2,note_on,56,42,0
2,note_on,56,0,120
2,note_on,54,36,0
2,note_on,54,0,160
2,note_on,52,36,0
2,note_on,52,0,160
2,note_on,54,45,0
2,note_on,54,0,110
2,note_on,52,38,0
2,note_on,52,0,160
2,note_on,51,39,0
2,note_on,51,0,160
2,note_on,52,46,0
2,note_on,52,0,86
2,note_on,51,42,0
2,note_on,51,0,160
2,note_on,50,42,0
2,note_on,50,0,160
2,note_on,52,51,0
2,note_on,52,0,68
2,note_on,50,48,0
2,note_on,50,0,160
2,note_on,48,49,0
2,note_on,48,0,160
2,note_on,50,55,0
2,note_on,50,0,61
2,note_on,48,52,0
2,note_on,48,0,160
2,note_on,47,52,0
2,note_on,47,0,160
2,note_on,48,63,0
2,note_on,48,0,89
2,note_on,47,57,0
2,note_on,47,0,160
2,note_on,45,58,0
2,note_on,45,0,160
2,note_on,44,77,0
2,note_on,44,0,72
2,note_on,45,67,0
2,note_on,45,0,160
2,note_on,47,67,0
2,note_on,47,0,160
2,note_on,44,75,0
2,note_on,38,75,0
2,note_on,44,0,86
2,note_on,45,66,0
2,note_on,38,0,80
2,note_on,45,0,80
2,note_on,47,66,0
2,note_on,47,0,160
2,note_on,44,76,0
2,note_on,38,76,0
2,note_on,44,0,86
2,note_on,45,69,0
2,note_on,38,0,80
2,note_on,45,0,80
2,note_on,47,69,0
2,note_on,47,0,160
2,note_on,38,78,0
2,note_on,44,78,0
2,note_on,44,0,118
2,note_on,45,72,0
2,note_on,38,0,80
2,note_on,45,0,80
2,note_on,47,74,0
2,note_on,47,0,160
2,note_on,38,81,0
2,note_on,44,81,0
2,note_on,44,0,89
2,note_on,45,74,0
2,note_on,38,0,80
2,note_on,45,0,80
2,note_on,47,76,0
2,note_on,47,0,160
2,note_on,44,84,0
2,note_on,38,84,0
2,note_on,44,0,104
2,note_on,45,76,0
2,note_on,38,0,80
2,note_on,45,0,80
2,note_on,47,78,0
2,note_on,47,0,160
2,note_on,43,99,0
2,note_on,31,99,0
2,note_on,31,0,131
2,note_on,43,0,0
2,note_on,67,50,3374
2,note_on,67,0,109
2,note_on,69,44,0
2,note_on,69,0,160
2,note_on,71,44,0
2,note_on,71,0,160
2,note_on,69,52,0
2,note_on,69,0,153
2,note_on,71,45,0
2,note_on,71,0,160
2,note_on,72,45,0
2,note_on,72,0,160
2,note_on,67,50,480
2,note_on,67,0,109
2,note_on,69,46,0
2,note_on,69,0,160
2,note_on,71,46,0
2,note_on,71,0,160
2,note_on,69,50,0
2,note_on,69,0,155
2,note_on,71,45,0
2,note_on,71,0,160
2,note_on,72,45,0
2,note_on,72,0,160
2,note_on,72,50,480
2,note_on,72,0,160
2,note_on,74,50,0
2,note_on,74,0,160
2,note_on,75,51,0
2,note_on,75,0,160
2,note_on,77,52,0
2,note_on,77,0,160
2,note_on,79,53,0
2,note_on,79,0,160
2,note_on,80,56,0
2,note_on,80,0,160
2,note_on,79,60,0
2,note_on,79,0,160
2,note_on,77,55,0
2,note_on,77,0,160
2,note_on,75,51,0
2,note_on,75,0,160
2,note_on,74,55,0
2,note_on,74,0,160
2,note_on,72,52,0
2,note_on,72,0,160
2,note_on,70,50,0
2,note_on,70,0,160
2,note_on,68,55,0
2,note_on,68,0,180
2,note_on,63,52,300
2,note_on,63,0,180
2,note_on,60,50,300
2,note_on,60,0,141
2,note_on,59,54,300
2,note_on,59,0,152
2,note_on,57,49,0
2,note_on,57,0,160
2,note_on,55,49,0
2,note_on,55,0,160
2,note_on,54,53,0
2,note_on,54,0,131
2,note_on,52,47,0
2,note_on,52,0,160
2,note_on,50,47,0
2,note_on,50,0,160
2,note_on,60,64,0
2,note_on,60,0,464
2,note_on,59,54,0
2,note_on,59,0,160
2,note_on,57,47,0
2,note_on,57,0,160
2,note_on,55,47,0
2,note_on,55,0,160
2,note_on,54,52,0
2,note_on,54,0,120
2,note_on,52,44,0
2,note_on,52,0,160
2,note_on,50,44,0
2,note_on,50,0,160
2,note_on,60,64,0
2,note_on,60,0,468
2,note_on,59,54,0
2,note_on,59,0,160
2,note_on,57,47,0
2,note_on,57,0,160
2,note_on,55,47,0
2,note_on,55,0,160
2,note_on,54,52,0
2,note_on,54,0,120
2,note_on,52,44,0
2,note_on,52,0,160
2,note_on,50,44,0
2,note_on,50,0,160
2,note_on,60,64,0
2,note_on,60,0,469
2,note_on,59,50,0
2,note_on,59,0,120
2,note_on,57,43,0
2,note_on,57,0,160
2,note_on,55,43,0
2,note_on,55,0,160
2,note_on,57,52,0
2,note_on,57,0,74
2,note_on,55,44,0
2,note_on,55,0,160
2,note_on,54,44,0
2,note_on,54,0,160
2,note_on,55,52,0
2,note_on,55,0,91
2,note_on,54,47,0
2,note_on,54,0,160
2,note_on,53,47,0
2,note_on,53,0,160
2,note_on,52,56,0
2,note_on,52,0,97
2,note_on,50,52,0
2,note_on,50,0,160
2,note_on,48,53,0
2,note_on,48,0,160
2,note_on,50,58,0
2,note_on,50,0,97
2,note_on,48,55,0
2,note_on,48,0,160
2,note_on,47,55,0
2,note_on,47,0,160
2,note_on,48,65,0
2,note_on,48,0,89
2,note_on,47,59,0
2,note_on,47,0,160
2,note_on,46,59,0
2,note_on,46,0,160
2,note_on,45,83,0
2,note_on,45,0,57
2,note_on,57,78,360
2,note_on,57,0,160
2,note_on,53,68,0
2,note_on,53,0,160
2,note_on,48,68,0
2,note_on,48,0,160
2,note_on,45,82,0
2,note_on,45,0,160
2,note_on,41,72,0
2,note_on,41,0,160
2,note_on,36,79,0
2,note_on,36,0,160
2,note_on,33,93,0
2,note_on,33,0,120
2,note_on,52,70,247
2,note_on,47,70,0
2,note_on,55,70,0
2,note_on,59,83,0
2,note_on,59,0,205
2,note_on,52,0,0
2,note_on,47,0,0
2,note_on,55,0,0
2,note_on,59,75,233
2,note_on,54,63,0
2,note_on,51,63,0
2,note_on,47,63,0
2,note_on,47,0,176
2,note_on,59,0,0
2,note_on,54,0,0
2,note_on,51,0,0
2,note_on,67,59,191
2,note_on,67,0,160
2,note_on,66,53,0
2,note_on,66,0,160
2,note_on,64,53,0
2,note_on,64,0,160
2,note_on,63,58,0
2,note_on,63,0,131
2,note_on,61,52,0
2,note_on,61,0,160
2,note_on,59,52,0
2,note_on,59,0,160
2,note_on,69,67,0
2,note_on,69,0,464
2,note_on,67,61,0
2,note_on,67,0,160
2,note_on,66,51,0
2,note_on,66,0,160
2,note_on,64,51,0
2,note_on,64,0,160
2,note_on,63,51,0
2,note_on,63,0,120
2,note_on,61,54,0
2,note_on,61,0,160
2,note_on,59,54,0
2,note_on,59,0,160
2,note_on,69,68,0
2,note_on,69,0,469
2,note_on,67,60,0
2,note_on,67,0,111
2,note_on,66,54,0
2,note_on,66,0,160
2,note_on,64,57,0
2,note_on,64,0,160
2,note_on,63,64,0
2,note_on,63,0,118
2,note_on,64,56,0
2,note_on,64,0,160
2,note_on,66,56,0
2,note_on,66,0,160
2,note_on,64,72,0
2,note_on,64,0,89
2,note_on,66,64,0
2,note_on,66,0,160
2,note_on,67,64,0
2,note_on,67,0,160
2,note_on,57,82,353
2,note_on,57,0,160
2,note_on,53,73,0
2,note_on,53,0,160
2,note_on,48,73,0
2,note_on,48,0,160
2,note_on,45,89,0
2,note_on,45,0,160
2,note_on,41,79,0
2,note_on,41,0,160
2,note_on,36,79,0
2,note_on,36,0,160
2,note_on,33,93,0
2,note_on,33,0,120
2,note_on,52,70,247
2,note_on,47,70,0
2,note_on,59,83,0
2,note_on,55,70,0
2,note_on,55,0,205
2,note_on,52,0,0
2,note_on,47,0,0
2,note_on,59,0,0
2,note_on,59,75,233
2,note_on,54,63,0
2,note_on,51,63,0
2,note_on,47,63,0
2,note_on,47,0,176
2,note_on,59,0,0
2,note_on,54,0,0
2,note_on,51,0,0
2,note_on,43,75,0
2,note_on,40,75,0
2,note_on,52,89,0
2,note_on,47,75,0
2,note_on,47,0,240
2,note_on,43,0,0
2,note_on,40,0,0
2,note_on,52,0,0
2,note_on,47,65,240
2,note_on,59,77,0
2,note_on,59,0,90
2,note_on,47,0,0
2,note_on,48,56,150
2,note_on,60,67,0
2,note_on,60,0,90
2,note_on,48,0,0
2,note_on,47,63,150
2,note_on,59,75,0
2,note_on,59,0,90
2,note_on,47,0,0
2,note_on,48,57,150
2,note_on,60,68,0
2,note_on,60,0,90
2,note_on,48,0,0
2,note_on,47,63,150
2,note_on,59,75,0
2,note_on,59,0,90
2,note_on,47,0,0
2,note_on,38,74,390
2,note_on,45,74,0
2,note_on,50,88,0
2,note_on,42,74,0
2,note_on,42,0,25
2,note_on,38,0,0
2,note_on,45,0,0
2,note_on,50,0,0
2,note_on,57,77,240
2,note_on,45,65,0
2,note_on,45,0,90
2,note_on,57,0,0
2,note_on,58,66,150
2,note_on,46,56,0
2,note_on,46,0,90
2,note_on,58,0,0
2,note_on,57,73,150
2,note_on,45,62,0
2,note_on,45,0,90
2,note_on,57,0,0
2,note_on,58,66,150
2,note_on,46,56,0
2,note_on,46,0,90
2,note_on,58,0,0
2,note_on,57,73,150
2,note_on,45,62,0
2,note_on,45,0,90
2,note_on,57,0,0
2,note_on,51,89,390
2,note_on,39,75,0
2,note_on,39,0,960
2,note_on,51,0,0
2,note_on,52,80,0
2,note_on,40,68,0
2,note_on,40,0,169
2,note_on,52,0,0
2,note_on,53,77,155
2,note_on,41,65,0
2,note_on,41,0,25
2,note_on,53,0,0
2,note_on,54,83,240
2,note_on,42,70,0
2,note_on,42,0,8
2,note_on,54,0,0
2,note_on,55,79,240
2,note_on,43,67,0
2,note_on,43,0,17
2,note_on,55,0,0
2,note_on,57,84,240
2,note_on,45,71,0
2,note_on,45,0,183
2,note_on,57,0,0
2,note_on,59,78,229
2,note_on,47,66,0
2,note_on,47,0,171
2,note_on,59,0,0
2,note_on,59,75,206
2,note_on,47,63,0
2,note_on,47,0,183
2,note_on,59,0,0
2,note_on,55,66,0
2,note_on,59,66,0
2,note_on,52,66,0
2,note_on,52,0,1440
2,note_on,59,0,0
2,note_on,55,0,0
2,note_on,51,77,0
2,note_on,47,65,0
2,note_on,47,0,90
2,note_on,51,0,0
2,note_on,52,66,150
2,note_on,48,56,0
2,note_on,48,0,90
2,note_on,52,0,0
2,note_on,51,71,150
2,note_on,47,60,0
2,note_on,47,0,90
2,note_on,51,0,0
2,note_on,52,65,150
2,note_on,48,55,0
2,note_on,48,0,90
2,note_on,52,0,0
2,note_on,47,65,150
2,note_on,51,77,0
2,note_on,51,0,90
2,note_on,47,0,0
2,note_on,57,72,0
2,note_on,54,72,0
2,note_on,50,72,0
2,note_on,50,0,1440
2,note_on,54,0,0
2,note_on,57,0,0
2,note_on,45,62,0
2,note_on,49,74,0
2,note_on,49,0,85
2,note_on,45,0,0
2,note_on,46,56,150
2,note_on,50,66,0
2,note_on,50,0,90
2,note_on,46,0,0
2,note_on,45,61,150
2,note_on,49,72,0
2,note_on,49,0,90
2,note_on,45,0,0
2,note_on,46,54,150
2,note_on,50,64,0
2,note_on,50,0,90
2,note_on,46,0,0
2,note_on,45,62,150
2,note_on,49,73,0
2,note_on,49,0,90
2,note_on,45,0,0
2,note_on,43,57,390
2,note_on,40,57,0
2,note_on,36,57,0
2,note_on,48,68,0
2,note_on,48,0,882
2,note_on,43,0,0
2,note_on,40,0,0
2,note_on,36,0,0
2,note_on,47,55,0
2,note_on,43,55,0
2,note_on,40,55,0
2,note_on,52,65,0
2,note_on,52,0,191
2,note_on,47,0,0
2,note_on,43,0,0
2,note_on,40,0,0
2,note_on,48,56,240
2,note_on,45,56,0
2,note_on,41,56,0
2,note_on,53,66,0
2,note_on,53,0,177
2,note_on,48,0,0
2,note_on,45,0,0
2,note_on,41,0,0
2,note_on,51,54,240
2,note_on,54,64,0
2,note_on,42,54,0
2,note_on,45,54,0
2,note_on,45,0,120
2,note_on,51,0,0
2,note_on,54,0,0
2,note_on,42,0,0
2,note_on,47,51,240
2,note_on,55,61,0
2,note_on,43,51,0
2,note_on,52,51,0
2,note_on,52,0,120
2,note_on,47,0,0
2,note_on,55,0,0
2,note_on,43,0,0
2,note_on,48,54,240
2,note_on,57,64,0
2,note_on,54,54,0
2,note_on,45,54,0
2,note_on,45,0,143
2,note_on,48,0,0
2,note_on,57,0,0
2,note_on,54,0,0
2,note_on,52,49,240
2,note_on,59,58,0
2,note_on,47,49,0
2,note_on,55,49,0
2,note_on,55,0,137
2,note_on,52,0,0
2,note_on,59,0,0
2,note_on,47,0,0
2,note_on,54,48,240
2,note_on,59,57,0
2,note_on,47,48,0
2,note_on,51,48,0
2,note_on,51,0,171
2,note_on,54,0,0
2,note_on,59,0,0
2,note_on,47,0,0
2,note_on,52,77,0
2,note_on,52,0,143
2,note_on,54,73,0
2,note_on,54,0,120
2,note_on,55,67,0
2,note_on,55,0,120
2,note_on,57,67,0
2,note_on,57,0,120
2,note_on,59,66,0
2,note_on,59,0,120
2,note_on,61,65,0
2,note_on,61,0,120
2,note_on,63,64,0
2,note_on,63,0,120
2,note_on,64,63,0
2,note_on,64,0,120
2,note_on,66,63,0
2,note_on,66,0,120
2,note_on,67,62,0
2,note_on,67,0,120
2,note_on,69,62,0
2,note_on,69,0,120
2,note_on,71,61,0
2,note_on,71,0,120
2,note_on,72,61,0
2,note_on,72,0,120
2,note_on,74,60,0
2,note_on,74,0,120
2,note_on,76,60,0
2,note_on,76,0,120
2,note_on,77,60,0
2,note_on,77,0,85
2,note_on,74,60,1200
2,note_on,74,0,240
2,note_on,71,55,1200
2,note_on,71,0,240
2,note_on,68,48,1200
2,note_on,68,0,240
2,note_on,67,46,1200
2,note_on,67,0,240
2,note_on,48,39,85
2,note_on,48,0,166
2,note_on,55,24,0
2,note_on,55,0,240
2,note_on,60,29,0
2,note_on,60,0,240
2,note_on,55,24,0
2,note_on,55,0,240
2,note_on,64,39,0
2,note_on,64,0,240
2,note_on,47,39,240
2,note_on,47,0,126
2,note_on,55,28,0
2,note_on,55,0,240
2,note_on,62,34,0
2,note_on,62,0,240
2,note_on,55,28,0
2,note_on,55,0,240
2,note_on,65,38,0
2,note_on,65,0,240
2,note_on,48,36,240
2,note_on,48,0,71
2,note_on,55,25,0
2,note_on,55,0,240
2,note_on,64,28,0
2,note_on,64,0,240
2,note_on,55,24,0
2,note_on,55,0,240
2,note_on,60,39,0
2,note_on,60,0,240
2,note_on,47,39,240
2,note_on,47,0,113
2,note_on,55,29,0
2,note_on,55,0,240
2,note_on,65,34,0
2,note_on,65,0,240
2,note_on,55,28,0
2,note_on,55,0,240
2,note_on,62,38,0
2,note_on,62,0,240
2,note_on,48,37,240
2,note_on,48,0,120
2,note_on,55,29,0
2,note_on,55,0,240
2,note_on,60,31,0
2,note_on,60,0,240
2,note_on,55,28,0
2,note_on,55,0,240
2,note_on,64,39,0
2,note_on,64,0,240
2,note_on,47,39,240
2,note_on,47,0,126
2,note_on,55,29,0
2,note_on,55,0,240
2,note_on,62,34,0
2,note_on,62,0,240
2,note_on,55,29,0
2,note_on,55,0,240
2,note_on,65,38,0
2,note_on,65,0,240
2,note_on,48,36,240
2,note_on,48,0,139
2,note_on,55,25,0
2,note_on,55,0,240
2,note_on,64,29,0
2,note_on,64,0,240
2,note_on,55,24,0
2,note_on,55,0,240
2,note_on,60,39,0
2,note_on,60,0,240
2,note_on,47,41,240
2,note_on,47,0,113
2,note_on,55,30,0
2,note_on,55,0,240
2,note_on,65,38,0
2,note_on,65,0,240
2,note_on,55,30,0
2,note_on,55,0,240
2,note_on,62,38,0
2,note_on,62,0,240
2,note_on,47,41,240
2,note_on,47,0,141
2,note_on,56,33,0
2,note_on,56,0,240
2,note_on,65,39,0
2,note_on,65,0,240
2,note_on,56,34,0
2,note_on,56,0,240
2,note_on,62,42,0
2,note_on,62,0,240
2,note_on,48,51,240
2,note_on,48,0,113
2,note_on,57,36,0
2,note_on,57,0,240
2,note_on,65,39,0
2,note_on,65,0,240
2,note_on,57,36,0
2,note_on,57,0,240
2,note_on,60,45,0
2,note_on,60,0,240
2,note_on,48,52,240
2,note_on,48,0,85
2,note_on,60,38,0
2,note_on,60,0,240
2,note_on,67,44,0
2,note_on,67,0,240
2,note_on,60,38,0
2,note_on,60,0,240
2,note_on,64,48,0
2,note_on,64,0,240
2,note_on,53,42,240
2,note_on,53,0,85
2,note_on,60,26,0
2,note_on,60,0,240
2,note_on,65,28,0
2,note_on,65,0,240
2,note_on,60,24,0
2,note_on,60,0,240
2,note_on,69,34,0
2,note_on,69,0,240
2,note_on,45,41,240
2,note_on,45,0,126
2,note_on,57,33,0
2,note_on,57,0,240
2,note_on,61,36,0
2,note_on,61,0,240
2,note_on,57,31,0
2,note_on,57,0,240
2,note_on,64,41,0
2,note_on,64,0,240
2,note_on,50,39,240
2,note_on,50,0,99
2,note_on,57,27,0
2,note_on,57,0,240
2,note_on,62,30,0
2,note_on,62,0,240
2,note_on,57,28,0
2,note_on,57,0,240
2,note_on,65,34,0
2,note_on,65,0,240
2,note_on,47,39,240
2,note_on,47,0,113
2,note_on,55,29,0
2,note_on,55,0,240
2,note_on,65,31,0
2,note_on,65,0,240
2,note_on,55,29,0
2,note_on,55,0,240
2,note_on,62,38,0
2,note_on,62,0,240
2,note_on,48,36,240
2,note_on,48,0,85
2,note_on,55,30,0
2,note_on,55,0,240
2,note_on,64,31,0
2,note_on,64,0,240
2,note_on,55,30,0
2,note_on,55,0,240
2,note_on,60,39,0
2,note_on,60,0,240
2,note_on,43,36,240
2,note_on,43,0,99
2,note_on,55,31,0
2,note_on,55,0,240
2,note_on,62,31,0
2,note_on,62,0,240
2,note_on,55,31,0
2,note_on,55,0,240
2,note_on,59,39,0
2,note_on,59,0,240
2,note_on,48,36,240
2,note_on,48,0,113
2,note_on,55,28,0
2,note_on,55,0,240
2,note_on,64,28,0
2,note_on,64,0,240
2,note_on,55,28,0
2,note_on,55,0,240
2,note_on,60,33,0
2,note_on,60,0,240
2,note_on,48,48,240
2,note_on,48,0,85
2,note_on,60,39,0
2,note_on,60,0,240
2,note_on,67,41,0
2,note_on,67,0,240
2,note_on,60,39,0
2,note_on,60,0,240
2,note_on,64,48,0
2,note_on,64,0,240
2,note_on,53,42,240
2,note_on,53,0,113
2,note_on,60,28,0
2,note_on,60,0,240
2,note_on,65,28,0
2,note_on,65,0,240
2,note_on,60,28,0
2,note_on,60,0,240
2,note_on,69,34,0
2,note_on,69,0,240
2,note_on,45,44,240
2,note_on,45,0,137
2,note_on,57,33,0
2,note_on,57,0,240
2,note_on,61,39,0
2,note_on,61,0,240
2,note_on,57,31,0
2,note_on,57,0,240
2,note_on,64,41,0
2,note_on,64,0,240
2,note_on,50,39,240
2,note_on,50,0,99
2,note_on,57,28,0
2,note_on,57,0,240
2,note_on,62,28,0
2,note_on,62,0,240
2,note_on,57,28,0
2,note_on,57,0,240
2,note_on,65,34,0
2,note_on,65,0,240
2,note_on,47,39,240
2,note_on,47,0,113
2,note_on,55,29,0
2,note_on,55,0,240
2,note_on,65,30,0
2,note_on,65,0,240
2,note_on,55,30,0
2,note_on,55,0,240
2,note_on,62,38,0
2,note_on,62,0,240
2,note_on,48,36,240
2,note_on,48,0,141
2,note_on,55,29,0
2,note_on,55,0,240
2,note_on,64,31,0
2,note_on,64,0,240
2,note_on,55,28,0
2,note_on,55,0,240
2,note_on,60,39,0
2,note_on,60,0,240
2,note_on,43,36,240
2,note_on,43,0,85
2,note_on,55,28,0
2,note_on,55,0,240
2,note_on,62,31,0
2,note_on,62,0,240
2,note_on,55,29,0
2,note_on,55,0,240
2,note_on,59,39,0
2,note_on,59,0,240
2,note_on,48,36,240
2,note_on,48,0,127
2,note_on,55,25,0
2,note_on,55,0,240
2,note_on,60,28,0
2,note_on,60,0,240
2,note_on,55,25,0
2,note_on,55,0,240
2,note_on,64,25,0
2,note_on,64,0,240
2,note_on,48,33,240
2,note_on,48,0,113
2,note_on,55,20,0
2,note_on,55,0,240
2,note_on,60,26,0
2,note_on,60,0,240
2,note_on,55,20,0
2,note_on,55,0,240
2,note_on,64,25,0
2,note_on,64,0,240
2,note_on,47,31,240
2,note_on,47,0,141
2,note_on,55,18,0
2,note_on,55,0,240
2,note_on,59,23,0
2,note_on,59,0,240
2,note_on,55,18,0
2,note_on,55,0,240
2,note_on,64,25,0
2,note_on,64,0,240
2,note_on,47,29,240
2,note_on,47,0,137
2,note_on,54,20,0
2,note_on,54,0,240
2,note_on,59,25,0
2,note_on,59,0,240
2,note_on,54,18,0
2,note_on,54,0,240
2,note_on,63,20,0
2,note_on,63,0,240
2,note_on,56,83,0
2,note_on,56,0,97
2,note_on,65,72,0
2,note_on,65,0,160
2,note_on,62,68,0
2,note_on,62,0,160
2,note_on,59,75,0
2,note_on,59,0,160
2,note_on,56,68,0
2,note_on,56,0,160
2,note_on,53,68,0
2,note_on,53,0,160
2,note_on,50,65,0
2,note_on,50,0,160
2,note_on,47,54,0
2,note_on,47,0,160
2,note_on,45,53,0
2,note_on,45,0,160
2,note_on,44,63,0
2,note_on,44,0,120
2,note_on,46,33,1207
2,note_on,46,0,205
2,note_on,53,23,0
2,note_on,53,0,240
2,note_on,58,26,0
2,note_on,58,0,240
2,note_on,53,23,0
2,note_on,53,0,240
2,note_on,62,23,0
2,note_on,62,0,240
2,note_on,46,33,240
2,note_on,46,0,160
2,note_on,53,20,0
2,note_on,53,0,240
2,note_on,58,26,0
2,note_on,58,0,240
2,note_on,53,20,0
2,note_on,53,0,240
2,note_on,62,25,0
2,note_on,62,0,240
2,note_on,45,31,240
2,note_on,45,0,127
2,note_on,53,18,0
2,note_on,53,0,240
2,note_on,57,23,0
2,note_on,57,0,240
2,note_on,53,18,0
2,note_on,53,0,240
2,note_on,62,25,0
2,note_on,62,0,240
2,note_on,45,29,0
2,note_on,45,0,149
2,note_on,52,20,0
2,note_on,52,0,240
2,note_on,57,25,0
2,note_on,57,0,240
2,note_on,52,18,0
2,note_on,52,0,240
2,note_on,61,20,0
2,note_on,61,0,240
2,note_on,54,83,0
2,note_on,54,0,97
2,note_on,63,73,0
2,note_on,63,0,160
2,note_on,60,70,0
2,note_on,60,0,160
2,note_on,57,75,0
2,note_on,57,0,160
2,note_on,53,68,0
2,note_on,53,0,160
2,note_on,51,68,0
2,note_on,51,0,160
2,note_on,48,65,0
2,note_on,48,0,160
2,note_on,45,54,0
2,note_on,45,0,160
2,note_on,43,53,0
2,note_on,43,0,160
2,note_on,42,63,0
2,note_on,42,0,120
2,note_on,44,33,1207
2,note_on,44,0,205
2,note_on,51,23,0
2,note_on,51,0,240
2,note_on,56,26,0
2,note_on,56,0,240
2,note_on,51,23,0
2,note_on,51,0,240
2,note_on,60,23,0
2,note_on,60,0,240
2,note_on,44,33,240
2,note_on,44,0,149
2,note_on,51,20,0
2,note_on,51,0,240
2,note_on,56,26,0
2,note_on,56,0,240
2,note_on,51,20,0
2,note_on,51,0,240
2,note_on,60,25,0
2,note_on,60,0,240
2,note_on,44,31,240
2,note_on,44,0,141
2,note_on,53,18,0
2,note_on,53,0,240
2,note_on,56,23,0
2,note_on,56,0,240
2,note_on,53,18,0
2,note_on,53,0,240
2,note_on,61,25,0
2,note_on,61,0,240
2,note_on,44,31,240
2,note_on,44,0,141
2,note_on,53,18,0
2,note_on,53,0,240
2,note_on,56,23,0
2,note_on,56,0,240
2,note_on,53,18,0
2,note_on,53,0,240
2,note_on,61,25,0
2,note_on,61,0,240
2,note_on,32,31,79
2,note_on,32,0,240
2,note_on,44,18,0
2,note_on,44,0,240
2,note_on,51,18,0
2,note_on,51,0,240
2,note_on,44,18,0
2,note_on,44,0,240
2,note_on,54,23,0
2,note_on,54,0,240
2,note_on,32,31,58
2,note_on,32,0,240
2,note_on,44,18,0
2,note_on,44,0,240
2,note_on,51,18,0
2,note_on,51,0,240
2,note_on,44,18,0
2,note_on,44,0,240
2,note_on,56,27,0
2,note_on,56,0,240
2,note_on,56,27,240
2,note_on,61,27,0
2,note_on,49,27,0
2,note_on,53,27,0
2,note_on,53,0,1360
2,note_on,56,0,0
2,note_on,61,0,0
2,note_on,49,0,0
2,note_on,56,29,0
2,note_on,60,29,0
2,note_on,51,29,0
2,note_on,49,29,0
2,note_on,51,0,1360
2,note_on,54,28,0
2,note_on,54,0,1377
2,note_on,49,0,0
2,note_on,60,0,0
2,note_on,56,0,0
2,note_on,56,29,0
2,note_on,61,29,0
2,note_on,49,29,0
2,note_on,52,29,0
2,note_on,52,0,1349
2,note_on,56,0,0
2,note_on,61,0,0
2,note_on,49,0,0
2,note_on,56,28,0
2,note_on,60,28,0
2,note_on,51,28,0
2,note_on,49,28,0
2,note_on,51,0,1360
2,note_on,54,28,0
2,note_on,54,0,1377
2,note_on,60,0,0
2,note_on,52,29,0
2,note_on,61,29,0
2,note_on,61,0,473
2,note_on,49,0,0
2,note_on,56,0,0
2,note_on,52,0,0
2,note_on,60,40,960
2,note_on,60,0,160
2,note_on,61,35,0
2,note_on,61,0,160
2,note_on,63,35,0
2,note_on,63,0,160
2,note_on,61,41,0
2,note_on,61,0,160
2,note_on,63,37,0
2,note_on,63,0,160
2,note_on,64,37,0
2,note_on,64,0,160
2,note_on,66,42,0
2,note_on,66,0,97
2,note_on,64,37,0
2,note_on,64,0,160
2,note_on,63,37,0
2,note_on,63,0,160
2,note_on,64,45,0
2,note_on,64,0,952
2,note_on,61,37,0
2,note_on,61,0,480
2,note_on,60,40,0
2,note_on,60,0,160
2,note_on,61,35,0
2,note_on,61,0,160
2,note_on,63,35,0
2,note_on,63,0,160
2,note_on,61,41,0
2,note_on,61,0,160
2,note_on,63,37,0
2,note_on,63,0,160
2,note_on,64,37,0
2,note_on,64,0,160
2,note_on,66,42,0
2,note_on,66,0,131
2,note_on,64,37,0
2,note_on,64,0,160
2,note_on,63,37,0
2,note_on,63,0,160
2,note_on,64,45,0
2,note_on,64,0,1433
2,note_on,63,40,0
2,note_on,63,0,160
2,note_on,64,35,0
2,note_on,64,0,160
2,note_on,66,35,0
2,note_on,66,0,160
2,note_on,64,41,0
2,note_on,64,0,160
2,note_on,66,37,0
2,note_on,66,0,160
2,note_on,67,37,0
2,note_on,67,0,160
2,note_on,69,42,0
2,note_on,69,0,114
2,note_on,67,37,0
2,note_on,67,0,160
2,note_on,66,37,0
2,note_on,66,0,160
2,note_on,65,40,0
2,note_on,65,0,144
2,note_on,66,35,0
2,note_on,66,0,160
2,note_on,68,35,0
2,note_on,68,0,160
2,note_on,66,41,0
2,note_on,66,0,160
2,note_on,68,37,0
2,note_on,68,0,160
2,note_on,69,37,0
2,note_on,69,0,160
2,note_on,71,42,0
2,note_on,71,0,80
2,note_on,69,37,0
2,note_on,69,0,160
2,note_on,68,37,0
2,note_on,68,0,160
2,note_on,66,42,0
2,note_on,66,0,474
2,note_on,64,39,480
2,note_on,64,0,120
2,note_on,70,36,0
2,note_on,70,0,160
2,note_on,64,36,0
2,note_on,64,0,160
2,note_on,63,40,0
2,note_on,71,40,0
2,note_on,71,0,103
2,note_on,63,0,0
2,note_on,64,35,0
2,note_on,64,0,143
2,note_on,66,35,0
2,note_on,66,0,160
2,note_on,64,41,0
2,note_on,64,0,160
2,note_on,66,37,0
2,note_on,67,37,154
2,note_on,66,0,6
2,note_on,67,0,154
2,note_on,75,41,6
2,note_on,69,41,0
2,note_on,69,0,429
2,note_on,75,0,0
2,note_on,68,41,0
2,note_on,68,0,64
2,note_on,62,40,720
2,note_on,62,0,120
2,note_on,68,37,0
2,note_on,68,0,160
2,note_on,62,37,0
2,note_on,62,0,160
2,note_on,61,40,0
2,note_on,69,40,0
2,note_on,69,0,103
2,note_on,61,0,0
2,note_on,62,35,0
2,note_on,62,0,34
2,note_on,64,35,0
2,note_on,64,0,160
2,note_on,62,41,0
2,note_on,62,0,160
2,note_on,64,37,0
2,note_on,64,0,160
2,note_on,66,37,0
2,note_on,66,0,160
2,note_on,67,41,0
2,note_on,73,41,0
2,note_on,73,0,434
2,note_on,67,0,0
2,note_on,66,41,0
2,note_on,66,0,64
2,note_on,65,41,720
2,note_on,65,0,120
2,note_on,69,37,0
2,note_on,69,0,160
2,note_on,65,37,0
2,note_on,65,0,160
2,note_on,64,40,0
2,note_on,64,0,103
2,note_on,66,35,0
2,note_on,66,0,160
2,note_on,68,35,0
2,note_on,68,0,160
2,note_on,66,41,0
2,note_on,66,0,160
2,note_on,68,37,0
2,note_on,68,0,160
2,note_on,69,37,0
2,note_on,69,0,160
2,note_on,65,41,0
2,note_on,71,41,0
2,note_on,74,41,0
2,note_on,65,0,434
2,note_on,64,41,0
2,note_on,64,0,472
2,note_on,74,0,0
2,note_on,71,0,0
2,note_on,65,39,480
2,note_on,65,0,120
2,note_on,69,37,0
2,note_on,69,0,160
2,note_on,65,38,0
2,note_on,65,0,160
2,note_on,64,40,0
2,note_on,64,0,103
2,note_on,66,35,0
2,note_on,66,0,160
2,note_on,68,35,0
2,note_on,68,0,160
2,note_on,66,41,0
2,note_on,66,0,160
2,note_on,68,37,0
2,note_on,68,0,160
2,note_on,69,37,0
2,note_on,69,0,160
2,note_on,71,41,0
2,note_on,74,41,0
2,note_on,65,41,0
2,note_on,65,0,434
2,note_on,64,41,0
2,note_on,64,0,474
2,note_on,74,0,0
2,note_on,71,0,0
2,note_on,65,45,480
2,note_on,65,0,120
2,note_on,69,38,0
2,note_on,69,0,160
2,note_on,65,38,0
2,note_on,65,0,160
2,note_on,64,45,0
2,note_on,64,0,103
2,note_on,66,36,0
2,note_on,66,0,160
2,note_on,68,36,0
2,note_on,68,0,160
2,note_on,66,46,0
2,note_on,66,0,160
2,note_on,68,37,0
2,note_on,68,0,160
2,note_on,69,37,0
2,note_on,69,0,160
2,note_on,68,47,0
2,note_on,68,0,160
2,note_on,69,41,0
2,note_on,69,0,160
2,note_on,71,42,0
2,note_on,71,0,160
2,note_on,64,50,960
2,note_on,64,0,109
2,note_on,66,44,0
2,note_on,66,0,160
2,note_on,68,44,0
2,note_on,68,0,160
2,note_on,66,52,0
2,note_on,66,0,154
2,note_on,68,45,0
2,note_on,68,0,160
2,note_on,69,45,0
2,note_on,69,0,160
2,note_on,64,50,480
2,note_on,64,0,109
2,note_on,66,46,0
2,note_on,66,0,160
2,note_on,68,46,0
2,note_on,68,0,160
2,note_on,66,50,0
2,note_on,66,0,152
2,note_on,68,45,0
2,note_on,68,0,160
2,note_on,69,45,0
2,note_on,69,0,160
2,note_on,69,50,480
2,note_on,69,0,160
2,note_on,71,50,0
2,note_on,71,0,160
2,note_on,72,51,0
2,note_on,72,0,160
2,note_on,74,52,0
2,note_on,74,0,160
2,note_on,76,53,0
2,note_on,76,0,160
2,note_on,77,56,0
2,note_on,77,0,160
2,note_on,76,60,0
2,note_on,76,0,160
2,note_on,74,55,0
2,note_on,74,0,160
2,note_on,72,51,0
2,note_on,72,0,160
2,note_on,71,55,0
2,note_on,71,0,160
2,note_on,69,52,0
2,note_on,69,0,160
2,note_on,67,50,0
2,note_on,67,0,160
2,note_on,65,59,0
2,note_on,65,0,180
2,note_on,60,56,300
2,note_on,60,0,180
2,note_on,57,50,300
2,note_on,57,0,141
2,note_on,56,53,300
2,note_on,56,0,152
2,note_on,54,48,0
2,note_on,54,0,160
2,note_on,52,48,0
2,note_on,52,0,160
2,note_on,51,52,0
2,note_on,51,0,160
2,note_on,49,47,0
2,note_on,49,0,160
2,note_on,47,48,0
2,note_on,47,0,160
2,note_on,57,64,0
2,note_on,57,0,480
2,note_on,56,54,0
2,note_on,56,0,160
2,note_on,54,49,0
2,note_on,54,0,160
2,note_on,52,49,0
2,note_on,52,0,160
2,note_on,51,53,0
2,note_on,51,0,131
2,note_on,49,47,0
2,note_on,49,0,160
2,note_on,47,47,0
2,note_on,47,0,160
2,note_on,57,64,0
2,note_on,57,0,473
2,note_on,56,54,0
2,note_on,56,0,160
2,note_on,54,47,0
2,note_on,54,0,160
2,note_on,52,47,0
2,note_on,52,0,160
2,note_on,51,52,0
2,note_on,51,0,120
2,note_on,49,44,0
2,note_on,49,0,160
2,note_on,47,44,0
2,note_on,47,0,160
2,note_on,57,64,0
2,note_on,57,0,474
2,note_on,56,50,0
2,note_on,56,0,120
2,note_on,54,43,0
2,note_on,54,0,160
2,note_on,52,43,0
2,note_on,52,0,160
2,note_on,54,52,0
2,note_on,54,0,114
2,note_on,52,44,0
2,note_on,52,0,160
2,note_on,51,44,0
2,note_on,51,0,160
2,note_on,52,52,0
2,note_on,52,0,91
2,note_on,51,47,0
2,note_on,51,0,160
2,note_on,50,47,0
2,note_on,50,0,160
2,note_on,52,56,0
2,note_on,52,0,61
2,note_on,50,52,0
2,note_on,50,0,160
2,note_on,48,53,0
2,note_on,48,0,160
2,note_on,50,58,0
2,note_on,50,0,68
2,note_on,48,55,0
2,note_on,48,0,160
2,note_on,47,55,0
2,note_on,47,0,160
2,note_on,48,65,0
2,note_on,48,0,89
2,note_on,47,59,0
2,note_on,47,0,160
2,note_on,45,59,0
2,note_on,45,0,160
2,note_on,62,91,0
2,note_on,62,0,74
2,note_on,58,79,0
2,note_on,58,0,160
2,note_on,53,77,0
2,note_on,53,0,160
2,note_on,50,85,0
2,note_on,50,0,160
2,note_on,46,75,0
2,note_on,46,0,160
2,note_on,41,75,0
2,note_on,41,0,160
2,note_on,38,84,0
2,note_on,38,0,160
2,note_on,34,76,0
2,note_on,34,0,160
2,note_on,29,76,0
2,note_on,29,0,160
2,note_on,26,88,0
2,note_on,26,0,120
2,note_on,60,83,247
2,note_on,52,70,0
2,note_on,57,70,0
2,note_on,57,0,205
2,note_on,52,0,0
2,note_on,60,0,0
2,note_on,52,63,233
2,note_on,59,75,0
2,note_on,56,63,0
2,note_on,56,0,176
2,note_on,59,0,0
2,note_on,52,0,0
2,note_on,60,62,191
2,note_on,60,0,160
2,note_on,59,56,0
2,note_on,59,0,160
2,note_on,57,56,0
2,note_on,57,0,160
2,note_on,56,61,0
2,note_on,56,0,131
2,note_on,54,55,0
2,note_on,54,0,160
2,note_on,52,54,0
2,note_on,52,0,160
2,note_on,62,67,0
2,note_on,62,0,471
2,note_on,60,61,0
2,note_on,60,0,160
2,note_on,59,55,0
2,note_on,59,0,160
2,note_on,57,55,0
2,note_on,57,0,160
2,note_on,56,60,0
2,note_on,56,0,120
2,note_on,54,54,0
2,note_on,54,0,160
2,note_on,52,54,0
2,note_on,52,0,160
2,note_on,62,68,0
2,note_on,62,0,471
2,note_on,60,61,0
2,note_on,60,0,160
2,note_on,59,55,0
2,note_on,59,0,160
2,note_on,57,55,0
2,note_on,57,0,160
2,note_on,56,60,0
2,note_on,56,0,120
2,note_on,54,54,0
2,note_on,54,0,160
2,note_on,52,54,0
2,note_on,52,0,160
2,note_on,62,68,0
2,note_on,62,0,469
2,note_on,60,64,0
2,note_on,60,0,111
2,note_on,59,57,0
2,note_on,59,0,160
2,note_on,57,57,0
2,note_on,57,0,160
2,note_on,56,67,0
2,note_on,56,0,118
2,note_on,57,56,0
2,note_on,57,0,160
2,note_on,59,56,0
2,note_on,59,0,160
2,note_on,57,72,0
2,note_on,57,0,51
2,note_on,59,64,0
2,note_on,59,0,160
2,note_on,60,64,0
2,note_on,60,0,160
2,note_on,62,91,0
2,note_on,62,0,63
2,note_on,58,79,0
2,note_on,58,0,160
2,note_on,53,79,0
2,note_on,53,0,160
2,note_on,50,86,0
2,note_on,50,0,160
2,note_on,46,77,0
2,note_on,46,0,160
2,note_on,41,77,0
2,note_on,41,0,160
2,note_on,38,86,0
2,note_on,38,0,160
2,note_on,34,78,0
2,note_on,34,0,160
2,note_on,29,77,0
2,note_on,29,0,160
2,note_on,26,93,0
2,note_on,26,0,120
2,note_on,57,70,247
2,note_on,52,70,0
2,note_on,60,83,0
2,note_on,60,0,56
2,note_on,52,0,0
2,note_on,57,0,0
2,note_on,56,63,240
2,note_on,52,63,0
2,note_on,59,75,0
2,note_on,59,0,71
2,note_on,52,0,0
2,note_on,56,0,0
2,note_on,62,91,240
2,note_on,62,0,80
2,note_on,58,79,0
2,note_on,58,0,160
2,note_on,53,79,0
2,note_on,53,0,160
2,note_on,50,86,0
2,note_on,50,0,160
2,note_on,46,76,0
2,note_on,46,0,160
2,note_on,41,76,0
2,note_on,41,0,160
2,note_on,38,86,0
2,note_on,38,0,160
2,note_on,34,76,0
2,note_on,34,0,160
2,note_on,29,76,0
2,note_on,29,0,160
2,note_on,26,90,0
2,note_on,26,0,120
2,note_on,58,70,320
2,note_on,53,70,0
2,note_on,62,83,0
2,note_on,62,0,56
2,note_on,53,0,0
2,note_on,58,0,0
2,note_on,60,75,240
2,note_on,57,63,0
2,note_on,53,63,0
2,note_on,53,0,71
2,note_on,57,0,0
2,note_on,60,0,0
2,note_on,31,79,240
2,note_on,43,93,0
2,note_on,43,0,46
2,note_on,31,0,0
2,note_on,60,70,240
2,note_on,55,70,0
2,note_on,63,83,0
2,note_on,63,0,56
2,note_on,55,0,0
2,note_on,60,0,0
2,note_on,55,63,240
2,note_on,59,63,0
2,note_on,62,75,0
2,note_on,62,0,71
2,note_on,59,0,0
2,note_on,55,0,0
2,note_on,45,93,240
2,note_on,33,79,0
2,note_on,33,0,171
2,note_on,45,0,0
2,note_on,62,70,240
2,note_on,57,70,0
2,note_on,65,83,0
2,note_on,65,0,56
2,note_on,57,0,0
2,note_on,62,0,0
2,note_on,57,63,240
2,note_on,61,63,0
2,note_on,64,75,0
2,note_on,64,0,71
2,note_on,61,0,0
2,note_on,57,0,0
2,note_on,55,42,240
2,note_on,58,50,0
2,note_on,58,0,74
2,note_on,55,0,0
2,note_on,58,49,120
2,note_on,55,41,0
2,note_on,55,0,120
2,note_on,58,0,0
2,note_on,55,44,120
2,note_on,58,52,0
2,note_on,52,44,0
2,note_on,52,0,120
2,note_on,58,0,0
2,note_on,55,0,0
2,note_on,52,45,120
2,note_on,58,54,0
2,note_on,55,45,0
2,note_on,55,0,120
2,note_on,58,0,0
2,note_on,52,0,0
2,note_on,49,47,120
2,note_on,55,47,0
2,note_on,52,47,0
2,note_on,58,56,0
2,note_on,58,0,120
2,note_on,49,0,0
2,note_on,55,0,0
2,note_on,52,0,0
2,note_on,49,49,120
2,note_on,55,49,0
2,note_on,52,49,0
2,note_on,58,58,0
2,note_on,58,0,120
2,note_on,49,0,0
2,note_on,55,0,0
2,note_on,52,0,0
2,note_on,46,51,120
2,note_on,52,51,0
2,note_on,49,51,0
2,note_on,55,60,0
2,note_on,55,0,120
2,note_on,46,0,0
2,note_on,52,0,0
2,note_on,49,0,0
2,note_on,46,52,120
2,note_on,52,52,0
2,note_on,49,52,0
2,note_on,55,62,0
2,note_on,55,0,120
2,note_on,46,0,0
2,note_on,52,0,0
2,note_on,49,0,0
2,note_on,46,54,120
2,note_on,49,54,0
2,note_on,52,64,0
2,note_on,43,54,0
2,note_on,43,0,120
2,note_on,46,0,0
2,note_on,49,0,0
2,note_on,52,0,0
2,note_on,43,56,120
2,note_on,49,56,0
2,note_on,46,56,0
2,note_on,52,66,0
2,note_on,52,0,120
2,note_on,43,0,0
2,note_on,49,0,0
2,note_on,46,0,0
2,note_on,40,58,120
2,note_on,46,58,0
2,note_on,43,58,0
2,note_on,49,69,0
2,note_on,49,0,120
2,note_on,40,0,0
2,note_on,46,0,0
2,note_on,43,0,0
2,note_on,40,62,120
2,note_on,46,62,0
2,note_on,43,62,0
2,note_on,49,74,0
2,note_on,49,0,120
2,note_on,40,0,0
2,note_on,46,0,0
2,note_on,43,0,0
2,note_on,45,73,0
2,note_on,41,73,0
2,note_on,50,87,0
2,note_on,50,0,113
2,note_on,41,0,0
2,note_on,45,0,0
2,note_on,41,73,1045
2,note_on,38,73,0
2,note_on,50,87,0
2,note_on,45,73,0
2,note_on,45,0,113
2,note_on,41,0,0
2,note_on,38,0,0
2,note_on,50,0,0
2,note_on,52,42,1045
2,note_on,60,50,0
2,note_on,60,0,240
2,note_on,52,0,0
2,note_on,59,50,1200
2,note_on,52,42,0
2,note_on,52,0,34
2,note_on,59,0,0
2,note_on,45,36,1200
2,note_on,45,0,166
2,note_on,52,22,0
2,note_on,52,0,240
2,note_on,57,27,0
2,note_on,57,0,240
2,note_on,52,22,0
2,note_on,52,0,240
2,note_on,61,36,0
2,note_on,61,0,240
2,note_on,44,36,240
2,note_on,44,0,126
2,note_on,52,26,0
2,note_on,52,0,240
2,note_on,59,31,0
2,note_on,59,0,240
2,note_on,52,26,0
2,note_on,52,0,240
2,note_on,62,35,0
2,note_on,62,0,240
2,note_on,45,33,240
2,note_on,45,0,141
2,note_on,52,23,0
2,note_on,52,0,240
2,note_on,61,26,0
2,note_on,61,0,240
2,note_on,52,22,0
2,note_on,52,0,240
2,note_on,57,36,0
2,note_on,57,0,240
2,note_on,44,36,240
2,note_on,44,0,113
2,note_on,52,27,0
2,note_on,52,0,240
2,note_on,56,31,0
2,note_on,56,0,240
2,note_on,52,26,0
2,note_on,52,0,240
2,note_on,59,35,0
2,note_on,59,0,240
2,note_on,45,34,240
2,note_on,45,0,120
2,note_on,52,27,0
2,note_on,52,0,240
2,note_on,57,29,0
2,note_on,57,0,240
2,note_on,52,26,0
2,note_on,52,0,240
2,note_on,61,36,0
2,note_on,61,0,240
2,note_on,44,36,240
2,note_on,44,0,126
2,note_on,52,27,0
2,note_on,52,0,240
2,note_on,59,31,0
2,note_on,59,0,240
2,note_on,52,27,0
2,note_on,52,0,240
2,note_on,62,35,0
2,note_on,62,0,240
2,note_on,45,33,240
2,note_on,45,0,80
2,note_on,52,23,0
2,note_on,52,0,240
2,note_on,61,27,0
2,note_on,61,0,240
2,note_on,52,22,0
2,note_on,52,0,240
2,note_on,57,36,0
2,note_on,57,0,240
2,note_on,44,38,240
2,note_on,44,0,69
2,note_on,52,28,0
2,note_on,52,0,240
2,note_on,56,35,0
2,note_on,56,0,240
2,note_on,52,28,0
2,note_on,52,0,240
2,note_on,59,35,0
2,note_on,59,0,240
2,note_on,44,38,240
2,note_on,44,0,80
2,note_on,53,30,0
2,note_on,53,0,240
2,note_on,56,36,0
2,note_on,56,0,240
2,note_on,53,31,0
2,note_on,53,0,240
2,note_on,59,39,0
2,note_on,59,0,240
2,note_on,45,47,240
2,note_on,45,0,113
2,note_on,54,33,0
2,note_on,54,0,240
2,note_on,57,36,0
2,note_on,57,0,240
2,note_on,54,33,0
2,note_on,54,0,240
2,note_on,62,41,0
2,note_on,62,0,240
2,note_on,45,48,240
2,note_on,45,0,127
2,note_on,57,35,0
2,note_on,57,0,240
2,note_on,64,40,0
2,note_on,64,0,240
2,note_on,57,35,0
2,note_on,57,0,240
2,note_on,64,44,0
2,note_on,64,0,240
2,note_on,50,39,240
2,note_on,50,0,103
2,note_on,57,24,0
2,note_on,57,0,240
2,note_on,62,26,0
2,note_on,62,0,240
2,note_on,57,22,0
2,note_on,57,0,240
2,note_on,66,31,0
2,note_on,66,0,240
2,note_on,42,38,240
2,note_on,42,0,103
2,note_on,54,30,0
2,note_on,54,0,240
2,note_on,61,33,0
2,note_on,61,0,240
2,note_on,54,29,0
2,note_on,54,0,240
2,note_on,58,38,0
2,note_on,58,0,240
2,note_on,47,36,240
2,note_on,47,0,149
2,note_on,54,25,0
2,note_on,54,0,240
2,note_on,59,28,0
2,note_on,59,0,240
2,note_on,54,26,0
2,note_on,54,0,240
2,note_on,62,31,0
2,note_on,62,0,240
2,note_on,44,36,240
2,note_on,44,0,113
2,note_on,52,27,0
2,note_on,52,0,240
2,note_on,62,29,0
2,note_on,62,0,240
2,note_on,52,27,0
2,note_on,52,0,240
2,note_on,59,35,0
2,note_on,59,0,240
2,note_on,45,33,240
2,note_on,45,0,141
2,note_on,52,28,0
2,note_on,52,0,240
2,note_on,61,29,0
2,note_on,61,0,240
2,note_on,52,28,0
2,note_on,52,0,240
2,note_on,57,36,0
2,note_on,57,0,240
2,note_on,40,33,240
2,note_on,40,0,91
2,note_on,52,29,0
2,note_on,52,0,240
2,note_on,59,29,0
2,note_on,59,0,240
2,note_on,52,29,0
2,note_on,52,0,240
2,note_on,56,36,0
2,note_on,56,0,240
2,note_on,45,33,240
2,note_on,45,0,114
2,note_on,52,26,0
2,note_on,52,0,240
2,note_on,61,26,0
2,note_on,61,0,240
2,note_on,52,26,0
2,note_on,52,0,240
2,note_on,57,30,0
2,note_on,57,0,240
2,note_on,45,44,240
2,note_on,45,0,99
2,note_on,57,36,0
2,note_on,57,0,240
2,note_on,64,38,0
2,note_on,64,0,240
2,note_on,57,36,0
2,note_on,57,0,240
2,note_on,64,44,0
2,note_on,64,0,240
2,note_on,50,39,240
2,note_on,50,0,114
2,note_on,57,26,0
2,note_on,57,0,240
2,note_on,62,26,0
2,note_on,62,0,240
2,note_on,57,26,0
2,note_on,57,0,240
2,note_on,66,31,0
2,note_on,66,0,240
2,note_on,42,40,240
2,note_on,42,0,126
2,note_on,54,30,0
2,note_on,54,0,240
2,note_on,61,36,0
2,note_on,61,0,240
2,note_on,54,29,0
2,note_on,54,0,240
2,note_on,58,38,0
2,note_on,58,0,240
2,note_on,47,36,240
2,note_on,47,0,103
2,note_on,54,26,0
2,note_on,54,0,240
2,note_on,59,26,0
2,note_on,59,0,240
2,note_on,54,26,0
2,note_on,54,0,240
2,note_on,62,31,0
2,note_on,62,0,240
2,note_on,44,36,240
2,note_on,44,0,113
2,note_on,52,27,0
2,note_on,52,0,240
2,note_on,62,28,0
2,note_on,62,0,240
2,note_on,52,28,0
2,note_on,52,0,240
2,note_on,59,35,0
2,note_on,59,0,240
2,note_on,45,33,240
2,note_on,45,0,141
2,note_on,52,27,0
2,note_on,52,0,240
2,note_on,61,29,0
2,note_on,61,0,240
2,note_on,52,26,0
2,note_on,52,0,240
2,note_on,57,36,0
2,note_on,57,0,240
2,note_on,40,33,240
2,note_on,40,0,80
2,note_on,52,26,0
2,note_on,52,0,240
2,note_on,59,29,0
2,note_on,59,0,240
2,note_on,52,27,0
2,note_on,52,0,240
2,note_on,56,36,0
2,note_on,56,0,240
2,note_on,45,33,240
2,note_on,45,0,137
2,note_on,52,23,0
2,note_on,52,0,240
2,note_on,57,26,0
2,note_on,57,0,240
2,note_on,52,23,0
2,note_on,52,0,240
2,note_on,61,23,0
2,note_on,61,0,240
2,note_on,45,72,240
2,note_on,48,72,0
2,note_on,52,72,0
2,note_on,57,85,0
2,note_on,57,0,1343
2,note_on,45,0,0
2,note_on,48,0,0
2,note_on,52,0,0
2,note_on,52,62,0
2,note_on,56,74,0
2,note_on,56,0,90
2,note_on,52,0,0
2,note_on,53,55,150
2,note_on,57,65,0
2,note_on,57,0,90
2,note_on,53,0,0
2,note_on,52,60,150
2,note_on,56,71,0
2,note_on,56,0,90
2,note_on,52,0,0
2,note_on,53,55,150
2,note_on,57,65,0
2,note_on,57,0,90
2,note_on,53,0,0
2,note_on,52,62,150
2,note_on,56,74,0
2,note_on,56,0,90
2,note_on,52,0,0
2,note_on,47,72,390
2,note_on,50,72,0
2,note_on,55,85,0
2,note_on,43,72,0
2,note_on,43,0,1440
2,note_on,47,0,0
2,note_on,50,0,0
2,note_on,55,0,0
2,note_on,50,63,0
2,note_on,54,75,0
2,note_on,54,0,90
2,note_on,50,0,0
2,note_on,52,55,150
2,note_on,55,65,0
2,note_on,55,0,90
2,note_on,52,0,0
2,note_on,50,61,150
2,note_on,54,72,0
2,note_on,54,0,90
2,note_on,50,0,0
2,note_on,52,54,150
2,note_on,55,64,0
2,note_on,55,0,90
2,note_on,52,0,0
2,note_on,50,62,150
2,note_on,54,74,0
2,note_on,54,0,90
2,note_on,50,0,0
2,note_on,53,68,390
2,note_on,45,57,0
2,note_on,41,57,0
2,note_on,48,57,0
2,note_on,48,0,882
2,note_on,53,0,0
2,note_on,45,0,0
2,note_on,41,0,0
2,note_on,48,55,0
2,note_on,57,65,0
2,note_on,45,55,0
2,note_on,52,55,0
2,note_on,52,0,233
2,note_on,48,0,0
2,note_on,57,0,0
2,note_on,45,0,0
2,note_on,50,58,240
2,note_on,58,69,0
2,note_on,46,58,0
2,note_on,53,58,0
2,note_on,53,0,177
2,note_on,50,0,0
2,note_on,58,0,0
2,note_on,46,0,0
2,note_on,50,56,240
2,note_on,59,67,0
2,note_on,56,56,0
2,note_on,47,56,0
2,note_on,47,0,120
2,note_on,50,0,0
2,note_on,59,0,0
2,note_on,56,0,0
2,note_on,57,54,240
2,note_on,52,54,0
2,note_on,48,54,0
2,note_on,60,64,0
2,note_on,60,0,120
2,note_on,57,0,0
2,note_on,52,0,0
2,note_on,48,0,0
2,note_on,59,56,240
2,note_on,62,67,0
2,note_on,50,56,0
2,note_on,53,56,0
2,note_on,53,0,149
2,note_on,59,0,0
2,note_on,62,0,0
2,note_on,50,0,0
2,note_on,60,52,240
2,note_on,57,52,0
2,note_on,52,52,0
2,note_on,64,62,0
2,note_on,64,0,137
2,note_on,60,0,0
2,note_on,57,0,0
2,note_on,52,0,0
2,note_on,59,52,240
2,note_on,64,62,0
2,note_on,52,52,0
2,note_on,56,52,0
2,note_on,56,0,171
2,note_on,59,0,0
2,note_on,64,0,0
2,note_on,52,0,0
2,note_on,45,59,240
2,note_on,45,0,229
2,note_on,40,51,720
2,note_on,52,61,0
2,note_on,52,0,109
2,note_on,40,0,0
2,note_on,54,56,0
2,note_on,42,47,0
2,note_on,42,0,160
2,note_on,54,0,0
2,note_on,56,56,0
2,note_on,44,47,0
2,note_on,44,0,160
2,note_on,56,0,0
2,note_on,42,50,0
2,note_on,54,59,0
2,note_on,54,0,153
2,note_on,42,0,0
2,note_on,56,61,0
2,note_on,44,51,0
2,note_on,44,0,160
2,note_on,56,0,0
2,note_on,57,53,0
2,note_on,45,45,0
2,note_on,45,0,160
2,note_on,57,0,0
2,note_on,59,66,0
2,note_on,47,56,0
2,note_on,47,0,480
2,note_on,59,0,0
2,note_on,52,61,0
2,note_on,40,51,0
2,note_on,40,0,109
2,note_on,52,0,0
2,note_on,42,47,0
2,note_on,54,56,0
2,note_on,54,0,160
2,note_on,42,0,0
2,note_on,44,47,0
2,note_on,56,56,0
2,note_on,56,0,160
2,note_on,44,0,0
2,note_on,54,59,0
2,note_on,42,50,0
2,note_on,42,0,154
2,note_on,54,0,0
2,note_on,56,61,0
2,note_on,44,51,0
2,note_on,44,0,160
2,note_on,56,0,0
2,note_on,57,53,0
2,note_on,45,45,0
2,note_on,45,0,160
2,note_on,57,0,0
2,note_on,59,70,0
2,note_on,47,59,0
2,note_on,47,0,480
2,note_on,59,0,0
2,note_on,52,61,0
2,note_on,40,51,0
2,note_on,40,0,109
2,note_on,52,0,0
2,note_on,42,47,0
2,note_on,54,56,0
2,note_on,54,0,160
2,note_on,42,0,0
2,note_on,44,47,0
2,note_on,56,56,0
2,note_on,56,0,160
2,note_on,44,0,0
2,note_on,54,59,0
2,note_on,42,50,0
2,note_on,42,0,154
2,note_on,54,0,0
2,note_on,56,61,0
2,note_on,44,51,0
2,note_on,44,0,160
2,note_on,56,0,0
2,note_on,57,53,0
2,note_on,45,45,0
2,note_on,45,0,160
2,note_on,57,0,0
2,note_on,47,59,0
2,note_on,59,70,0
2,note_on,59,0,480
2,note_on,47,0,0
2,note_on,40,57,0
2,note_on,52,68,0
2,note_on,52,0,109
2,note_on,40,0,0
2,note_on,54,59,0
2,note_on,42,50,0
2,note_on,42,0,160
2,note_on,54,0,0
2,note_on,56,57,0
2,note_on,44,48,0
2,note_on,44,0,160
2,note_on,56,0,0
2,note_on,45,56,0
2,note_on,57,67,0
2,note_on,57,0,111
2,note_on,45,0,0
2,note_on,59,58,0
2,note_on,47,49,0
2,note_on,47,0,80
2,note_on,59,0,0
2,note_on,60,58,0
2,note_on,48,49,0
2,note_on,48,0,160
2,note_on,60,0,0
2,note_on,59,66,0
2,note_on,47,56,0
2,note_on,47,0,160
2,note_on,59,0,0
2,note_on,60,59,0
2,note_on,48,50,0
2,note_on,48,0,160
2,note_on,60,0,0
2,note_on,62,59,0
2,note_on,50,50,0
2,note_on,50,0,160
2,note_on,62,0,0
2,note_on,64,70,0
2,note_on,52,59,0
2,note_on,52,0,162
2,note_on,64,0,0
2,note_on,57,67,240
2,note_on,45,56,0
2,note_on,45,0,111
2,note_on,57,0,0
2,note_on,47,49,0
2,note_on,59,58,0
2,note_on,59,0,66
2,note_on,47,0,0
2,note_on,60,58,0
2,note_on,48,49,0
2,note_on,48,0,160
2,note_on,60,0,0
2,note_on,47,56,0
2,note_on,59,66,0
2,note_on,59,0,160
2,note_on,47,0,0
2,note_on,48,50,0
2,note_on,60,59,0
2,note_on,60,0,160
2,note_on,48,0,0
2,note_on,50,50,0
2,note_on,62,59,0
2,note_on,62,0,160
2,note_on,50,0,0
2,note_on,52,59,0
2,note_on,64,70,0
2,note_on,64,0,176
2,note_on,52,0,0
2,note_on,33,56,240
2,note_on,45,67,0
2,note_on,45,0,68
2,note_on,33,0,0
2,note_on,47,58,0
2,note_on,35,49,0
2,note_on,35,0,73
2,note_on,47,0,0
2,note_on,48,58,0
2,note_on,36,49,0
2,note_on,36,0,160
2,note_on,48,0,0
2,note_on,35,56,0
2,note_on,47,66,0
2,note_on,47,0,160
2,note_on,35,0,0
2,note_on,36,50,0
2,note_on,48,59,0
2,note_on,48,0,160
2,note_on,36,0,0
2,note_on,38,50,0
2,note_on,50,59,0
2,note_on,50,0,160
2,note_on,38,0,0
2,note_on,40,59,0
2,note_on,52,70,0
2,note_on,52,0,184
2,note_on,40,0,0
2,note_on,33,61,240
2,note_on,45,72,0
2,note_on,45,0,99
2,note_on,33,0,0
2,note_on,36,49,0
2,note_on,40,49,0
2,note_on,45,58,0
2,note_on,33,49,0
2,note_on,33,0,240
2,note_on,36,0,0
2,note_on,40,0,0
2,note_on,45,0,0
2,note_on,33,52,240
2,note_on,40,52,0
2,note_on,45,62,0
2,note_on,36,52,0
2,note_on,36,0,240
2,note_on,33,0,0
2,note_on,40,0,0
2,note_on,45,0,0
2,note_on,33,56,240
2,note_on,40,56,0
2,note_on,45,67,0
2,note_on,36,56,0
2,note_on,36,0,240
2,note_on,33,0,0
2,note_on,40,0,0
2,note_on,45,0,0
2,note_on,33,57,240
2,note_on,40,57,0
2,note_on,45,68,0
2,note_on,36,57,0
2,note_on,36,0,240
2,note_on,33,0,0
2,note_on,40,0,0
2,note_on,45,0,0
