Track,Message Type,Note,Velocity,Time
1,note_on,55,71,11520
1,note_on,67,84,0
1,note_on,67,0,480
1,note_on,55,0,0
1,note_on,55,67,0
1,note_on,67,79,0
1,note_on,67,0,90
1,note_on,55,0,0
1,note_on,55,67,150
1,note_on,67,79,0
1,note_on,67,0,90
1,note_on,55,0,0
1,note_on,55,67,150
1,note_on,67,79,0
1,note_on,67,0,480
1,note_on,55,0,0
1,note_on,55,68,0
1,note_on,67,80,0
1,note_on,67,0,90
1,note_on,55,0,0
1,note_on,55,69,150
1,note_on,67,81,0
1,note_on,67,0,90
1,note_on,55,0,0
1,note_on,56,76,150
1,note_on,68,90,0
1,note_on,68,0,90
1,note_on,56,0,0
1,note_on,57,75,390
1,note_on,69,89,0
1,note_on,69,0,720
1,note_on,57,0,0
1,note_on,59,68,0
1,note_on,71,80,0
1,note_on,71,0,90
1,note_on,59,0,0
1,note_on,60,67,150
1,note_on,72,79,0
1,note_on,72,0,90
1,note_on,60,0,0
1,note_on,59,68,150
1,note_on,71,80,0
1,note_on,71,0,90
1,note_on,59,0,0
1,note_on,57,71,150
1,note_on,69,84,0
1,note_on,69,0,480
1,note_on,57,0,0
1,note_on,57,71,0
1,note_on,69,84,0
1,note_on,69,0,90
1,note_on,57,0,0
1,note_on,57,68,150
1,note_on,69,80,0
1,note_on,69,0,90
1,note_on,57,0,0
1,note_on,57,68,150
1,note_on,69,80,0
1,note_on,69,0,480
1,note_on,57,0,0
1,note_on,57,69,0
1,note_on,69,81,0
1,note_on,69,0,90
1,note_on,57,0,0
1,note_on,57,69,150
1,note_on,69,81,0
1,note_on,69,0,90
1,note_on,57,0,0
1,note_on,58,76,150
1,note_on,70,90,0
1,note_on,70,0,90
1,note_on,58,0,0
1,note_on,59,75,390
1,note_on,71,89,0
1,note_on,71,0,720
1,note_on,59,0,0
1,note_on,61,76,0
1,note_on,73,76,0
1,note_on,73,0,90
1,note_on,61,0,0
1,note_on,62,63,150
1,note_on,74,75,0
1,note_on,74,0,90
1,note_on,62,0,0
1,note_on,64,64,150
1,note_on,76,76,0
1,note_on,76,0,90
1,note_on,64,0,0
1,note_on,65,72,150
1,note_on,77,85,0
1,note_on,77,0,480
1,note_on,65,0,0
1,note_on,65,64,0
1,note_on,77,76,0
1,note_on,77,0,90
1,note_on,65,0,0
1,note_on,65,64,150
1,note_on,77,76,0
1,note_on,77,0,90
1,note_on,65,0,0
1,note_on,56,76,150
1,note_on,68,90,0
1,note_on,68,0,720
1,note_on,56,0,0
1,note_on,56,70,0
1,note_on,68,82,0
1,note_on,68,0,90
1,note_on,56,0,0
1,note_on,64,72,150
1,note_on,76,85,0
1,note_on,76,0,480
1,note_on,64,0,0
1,note_on,64,64,0
1,note_on,76,76,0
1,note_on,76,0,90
1,note_on,64,0,0
1,note_on,64,65,150
1,note_on,76,77,0
1,note_on,76,0,90
1,note_on,64,0,0
1,note_on,55,76,150
1,note_on,67,90,0
1,note_on,67,0,720
1,note_on,55,0,0
1,note_on,55,69,0
1,note_on,67,81,0
1,note_on,67,0,90
1,note_on,55,0,0
1,note_on,54,69,150
1,note_on,66,81,0
1,note_on,66,0,90
1,note_on,54,0,0
1,note_on,57,70,150
1,note_on,69,82,0
1,note_on,69,0,90
1,note_on,57,0,0
1,note_on,62,73,150
1,note_on,74,87,0
1,note_on,74,0,90
1,note_on,62,0,0
1,note_on,60,70,150
1,note_on,72,82,0
1,note_on,72,0,90
1,note_on,60,0,0
1,note_on,59,71,150
1,note_on,71,84,0
1,note_on,71,0,90
1,note_on,59,0,0
1,note_on,55,69,150
1,note_on,67,81,0
1,note_on,67,0,90
1,note_on,55,0,0
1,note_on,54,69,150
1,note_on,66,81,0
1,note_on,66,0,90
1,note_on,54,0,0
1,note_on,52,69,150
1,note_on,64,81,0
1,note_on,64,0,90
1,note_on,52,0,0
1,note_on,60,71,150
1,note_on,72,84,0
1,note_on,72,0,480
1,note_on,60,0,0
1,note_on,59,69,0
1,note_on,71,81,0
1,note_on,71,0,480
1,note_on,59,0,0
1,note_on,57,71,0
1,note_on,69,84,0
1,note_on,69,0,960
1,note_on,57,0,0
1,note_on,59,69,0
1,note_on,71,81,0
1,note_on,71,0,90
1,note_on,59,0,0
1,note_on,55,64,150
1,note_on,67,75,0
1,note_on,67,0,90
1,note_on,55,0,0
1,note_on,60,68,150
1,note_on,72,80,0
1,note_on,72,0,960
1,note_on,60,0,0
1,note_on,59,65,0
1,note_on,71,77,0
1,note_on,71,0,480
1,note_on,59,0,0
1,note_on,60,71,0
1,note_on,72,84,0
1,note_on,72,0,480
1,note_on,60,0,0
1,note_on,60,67,0
1,note_on,72,79,0
1,note_on,72,0,90
1,note_on,60,0,0
1,note_on,60,67,150
1,note_on,72,79,0
1,note_on,72,0,90
1,note_on,60,0,0
1,note_on,60,67,150
1,note_on,72,79,0
1,note_on,72,0,480
1,note_on,60,0,0
1,note_on,60,68,0
1,note_on,72,80,0
1,note_on,72,0,90
1,note_on,60,0,0
1,note_on,60,69,150
1,note_on,72,81,0
1,note_on,72,0,90
1,note_on,60,0,0
1,note_on,61,76,150
1,note_on,73,90,0
1,note_on,73,0,90
1,note_on,61,0,0
1,note_on,62,75,390
1,note_on,74,89,0
1,note_on,74,0,720
1,note_on,62,0,0
1,note_on,64,68,0
1,note_on,76,80,0
1,note_on,76,0,90
1,note_on,64,0,0
1,note_on,65,67,150
1,note_on,77,79,0
1,note_on,77,0,90
1,note_on,65,0,0
1,note_on,64,68,150
1,note_on,76,80,0
1,note_on,76,0,90
1,note_on,64,0,0
1,note_on,62,71,150
1,note_on,74,84,0
1,note_on,74,0,480
1,note_on,62,0,0
1,note_on,62,71,0
1,note_on,74,84,0
1,note_on,74,0,90
1,note_on,62,0,0
1,note_on,62,68,150
1,note_on,74,80,0
1,note_on,74,0,90
1,note_on,62,0,0
1,note_on,62,68,150
1,note_on,74,80,0
1,note_on,74,0,480
1,note_on,62,0,0
1,note_on,62,69,0
1,note_on,74,81,0
1,note_on,74,0,90
1,note_on,62,0,0
1,note_on,62,69,150
1,note_on,74,81,0
1,note_on,74,0,90
1,note_on,62,0,0
1,note_on,63,76,150
1,note_on,75,90,0
1,note_on,75,0,90
1,note_on,63,0,0
1,note_on,64,75,390
1,note_on,76,89,0
1,note_on,76,0,720
1,note_on,64,0,0
1,note_on,66,72,0
1,note_on,78,72,0
1,note_on,78,0,90
1,note_on,66,0,0
1,note_on,67,59,150
1,note_on,79,71,0
1,note_on,79,0,90
1,note_on,67,0,0
1,note_on,69,60,150
1,note_on,81,72,0
1,note_on,81,0,90
1,note_on,69,0,0
1,note_on,70,68,150
1,note_on,82,80,0
1,note_on,82,0,480
1,note_on,70,0,0
1,note_on,70,60,0
1,note_on,82,72,0
1,note_on,82,0,90
1,note_on,70,0,0
1,note_on,70,60,150
1,note_on,82,72,0
1,note_on,82,0,90
1,note_on,70,0,0
1,note_on,61,71,150
1,note_on,73,84,0
1,note_on,73,0,720
1,note_on,61,0,0
1,note_on,61,66,0
1,note_on,73,77,0
1,note_on,73,0,90
1,note_on,61,0,0
1,note_on,69,68,150
1,note_on,81,80,0
1,note_on,81,0,480
1,note_on,69,0,0
1,note_on,69,60,0
1,note_on,81,72,0
1,note_on,81,0,90
1,note_on,69,0,0
1,note_on,69,61,150
1,note_on,81,73,0
1,note_on,81,0,90
1,note_on,69,0,0
1,note_on,60,71,150
1,note_on,72,84,0
1,note_on,72,0,720
1,note_on,60,0,0
1,note_on,60,61,0
1,note_on,72,73,0
1,note_on,72,0,90
1,note_on,60,0,0
1,note_on,59,63,150
1,note_on,71,73,0
1,note_on,71,0,90
1,note_on,59,0,0
1,note_on,62,64,150
1,note_on,74,75,0
1,note_on,74,0,90
1,note_on,62,0,0
1,note_on,67,68,150
1,note_on,79,80,0
1,note_on,79,0,90
1,note_on,67,0,0
1,note_on,65,65,150
1,note_on,77,77,0
1,note_on,77,0,90
1,note_on,65,0,0
1,note_on,64,67,150
1,note_on,76,79,0
1,note_on,76,0,90
1,note_on,64,0,0
1,note_on,60,66,150
1,note_on,72,77,0
1,note_on,72,0,90
1,note_on,60,0,0
1,note_on,59,67,150
1,note_on,71,78,0
1,note_on,71,0,90
1,note_on,59,0,0
1,note_on,57,67,150
1,note_on,69,79,0
1,note_on,69,0,90
1,note_on,57,0,0
1,note_on,65,71,150
1,note_on,77,84,0
1,note_on,77,0,480
1,note_on,65,0,0
1,note_on,64,69,0
1,note_on,76,81,0
1,note_on,76,0,480
1,note_on,64,0,0
1,note_on,62,71,0
1,note_on,74,84,0
1,note_on,74,0,960
1,note_on,62,0,0
1,note_on,76,74,0
1,note_on,72,74,0
1,note_on,84,89,0
1,note_on,84,0,1200
1,note_on,72,0,0
1,note_on,76,0,0
1,note_on,67,70,0
1,note_on,76,70,0
1,note_on,79,84,0
1,note_on,79,0,90
1,note_on,76,0,0
1,note_on,67,0,0
1,note_on,69,70,150
1,note_on,77,70,0
1,note_on,81,84,0
1,note_on,81,0,90
1,note_on,77,0,0
1,note_on,69,0,0
1,note_on,70,70,150
1,note_on,79,70,0
1,note_on,82,84,0
1,note_on,82,0,90
1,note_on,79,0,0
1,note_on,70,0,0
1,note_on,69,74,150
1,note_on,77,74,0
1,note_on,81,89,0
1,note_on,81,0,90
1,note_on,77,0,0
1,note_on,69,0,0
1,note_on,67,70,150
1,note_on,76,70,0
1,note_on,79,83,0
1,note_on,79,0,90
1,note_on,76,0,0
1,note_on,67,0,0
1,note_on,65,70,150
1,note_on,74,70,0
1,note_on,77,83,0
1,note_on,77,0,90
1,note_on,74,0,0
1,note_on,65,0,0
1,note_on,64,70,150
1,note_on,69,70,0
1,note_on,76,83,0
1,note_on,76,0,90
1,note_on,69,0,0
1,note_on,64,0,0
1,note_on,62,75,150
1,note_on,65,75,0
1,note_on,74,89,0
1,note_on,74,0,720
1,note_on,65,0,0
1,note_on,62,0,0
1,note_on,73,73,0
1,note_on,76,73,0
1,note_on,85,86,0
1,note_on,85,0,90
1,note_on,76,0,0
1,note_on,73,0,0
1,note_on,74,74,150
1,note_on,77,74,0
1,note_on,86,89,0
1,note_on,86,0,1200
1,note_on,77,0,0
1,note_on,74,0,0
1,note_on,69,70,0
1,note_on,77,70,0
1,note_on,81,84,0
1,note_on,81,0,90
1,note_on,77,0,0
1,note_on,69,0,0
1,note_on,79,70,150
1,note_on,71,70,0
1,note_on,83,84,0
1,note_on,83,0,90
1,note_on,71,0,0
1,note_on,79,0,0
1,note_on,72,70,150
1,note_on,81,70,0
1,note_on,84,84,0
1,note_on,84,0,90
1,note_on,81,0,0
1,note_on,72,0,0
1,note_on,71,74,150
1,note_on,79,74,0
1,note_on,83,89,0
1,note_on,83,0,90
1,note_on,79,0,0
1,note_on,71,0,0
1,note_on,69,70,150
1,note_on,78,70,0
1,note_on,81,83,0
1,note_on,81,0,90
1,note_on,78,0,0
1,note_on,69,0,0
1,note_on,67,70,150
1,note_on,76,70,0
1,note_on,79,83,0
1,note_on,79,0,90
1,note_on,76,0,0
1,note_on,67,0,0
1,note_on,66,70,150
1,note_on,71,70,0
1,note_on,78,83,0
1,note_on,78,0,90
1,note_on,71,0,0
1,note_on,66,0,0
1,note_on,64,75,150
1,note_on,67,75,0
1,note_on,76,89,0
1,note_on,76,0,720
1,note_on,67,0,0
1,note_on,64,0,0
1,note_on,62,73,0
1,note_on,65,73,0
1,note_on,74,86,0
1,note_on,74,0,90
1,note_on,65,0,0
1,note_on,62,0,0
1,note_on,61,74,150
1,note_on,64,74,0
1,note_on,73,89,0
1,note_on,73,0,90
1,note_on,64,0,0
1,note_on,61,0,0
1,note_on,64,69,150
1,note_on,67,69,0
1,note_on,76,82,0
1,note_on,76,0,90
1,note_on,67,0,0
1,note_on,64,0,0
1,note_on,61,74,150
1,note_on,64,74,0
1,note_on,73,89,0
1,note_on,73,0,90
1,note_on,64,0,0
1,note_on,61,0,0
1,note_on,64,67,150
1,note_on,67,67,0
1,note_on,76,80,0
1,note_on,76,0,90
1,note_on,67,0,0
1,note_on,64,0,0
1,note_on,70,74,150
1,note_on,79,74,0
1,note_on,82,89,0
1,note_on,82,0,90
1,note_on,79,0,0
1,note_on,70,0,0
1,note_on,70,73,150
1,note_on,79,73,0
1,note_on,82,86,0
1,note_on,82,0,720
1,note_on,79,0,0
1,note_on,70,0,0
1,note_on,60,72,0
1,note_on,63,72,0
1,note_on,72,87,0
1,note_on,72,0,90
1,note_on,63,0,0
1,note_on,60,0,0
1,note_on,63,67,150
1,note_on,66,67,0
1,note_on,75,80,0
1,note_on,75,0,90
1,note_on,66,0,0
1,note_on,63,0,0
1,note_on,60,72,150
1,note_on,63,72,0
1,note_on,72,87,0
1,note_on,72,0,90
1,note_on,63,0,0
1,note_on,60,0,0
1,note_on,63,65,150
1,note_on,66,65,0
1,note_on,75,78,0
1,note_on,75,0,90
1,note_on,66,0,0
1,note_on,63,0,0
1,note_on,69,72,150
1,note_on,78,72,0
1,note_on,81,87,0
1,note_on,81,0,90
1,note_on,78,0,0
1,note_on,69,0,0
1,note_on,69,71,150
1,note_on,78,71,0
1,note_on,81,84,0
1,note_on,81,0,720
1,note_on,78,0,0
1,note_on,69,0,0
1,note_on,67,84,0
1,note_on,79,90,0
1,note_on,79,0,480
1,note_on,67,0,0
1,note_on,62,68,0
1,note_on,71,68,0
1,note_on,74,81,0
1,note_on,74,0,480
1,note_on,71,0,0
1,note_on,62,0,0
1,note_on,64,67,0
1,note_on,72,67,0
1,note_on,76,79,0
1,note_on,76,0,90
1,note_on,72,0,0
1,note_on,64,0,0
1,note_on,65,68,150
1,note_on,74,68,0
1,note_on,77,81,0
1,note_on,77,0,90
1,note_on,74,0,0
1,note_on,65,0,0
1,note_on,67,70,150
1,note_on,76,70,0
1,note_on,79,84,0
1,note_on,79,0,90
1,note_on,76,0,0
1,note_on,67,0,0
1,note_on,69,73,150
1,note_on,77,73,0
1,note_on,81,86,0
1,note_on,81,0,90
1,note_on,77,0,0
1,note_on,69,0,0
1,note_on,71,74,150
1,note_on,74,74,0
1,note_on,79,89,0
1,note_on,79,0,480
1,note_on,74,0,0
1,note_on,71,0,0
1,note_on,72,74,0
1,note_on,79,74,0
1,note_on,84,88,0
1,note_on,84,0,480
1,note_on,79,0,0
1,note_on,72,0,0
1,note_on,83,82,0
1,note_on,77,82,0
1,note_on,89,97,0
1,note_on,83,0,480
1,note_on,83,94,0
1,note_on,83,0,480
1,note_on,89,0,0
1,note_on,77,0,0
1,note_on,67,74,120
1,note_on,67,0,120
1,note_on,70,75,0
1,note_on,70,0,120
1,note_on,73,75,0
1,note_on,73,0,120
1,note_on,76,76,0
1,note_on,79,77,120
1,note_on,76,0,20
1,note_on,82,78,100
1,note_on,79,0,20
1,note_on,85,79,100
1,note_on,82,0,20
1,note_on,91,79,100
1,note_on,85,0,20
1,note_on,91,0,100
1,note_on,88,78,0
1,note_on,88,0,120
1,note_on,85,77,0
1,note_on,85,0,120
1,note_on,82,76,0
1,note_on,82,0,120
1,note_on,79,75,0
1,note_on,79,0,120
1,note_on,76,74,0
1,note_on,76,0,120
1,note_on,73,73,0
1,note_on,73,0,120
1,note_on,70,72,0
1,note_on,70,0,120
1,note_on,67,74,120
1,note_on,67,0,120
1,note_on,71,75,0
1,note_on,71,0,120
1,note_on,77,75,0
1,note_on,77,0,120
1,note_on,79,76,0
1,note_on,83,77,120
1,note_on,79,0,20
1,note_on,89,78,100
1,note_on,83,0,20
1,note_on,83,79,100
1,note_on,89,0,20
1,note_on,91,79,100
1,note_on,83,0,20
1,note_on,91,0,100
1,note_on,86,78,0
1,note_on,86,0,120
1,note_on,83,77,0
1,note_on,83,0,120
1,note_on,79,76,0
1,note_on,79,0,120
1,note_on,74,75,0
1,note_on,74,0,120
1,note_on,71,74,0
1,note_on,71,0,120
1,note_on,67,73,0
1,note_on,67,0,120
1,note_on,71,72,0
1,note_on,71,0,120
1,note_on,67,74,120
1,note_on,67,0,120
1,note_on,70,75,0
1,note_on,70,0,120
1,note_on,73,75,0
1,note_on,73,0,120
1,note_on,76,76,0
1,note_on,79,77,120
1,note_on,76,0,20
1,note_on,82,78,100
1,note_on,79,0,20
1,note_on,85,79,100
1,note_on,82,0,20
1,note_on,91,79,100
1,note_on,85,0,20
1,note_on,91,0,100
1,note_on,88,78,0
1,note_on,88,0,120
1,note_on,85,77,0
1,note_on,85,0,120
1,note_on,82,76,0
1,note_on,82,0,120
1,note_on,79,75,0
1,note_on,79,0,120
1,note_on,76,74,0
1,note_on,76,0,120
1,note_on,73,73,0
1,note_on,73,0,120
1,note_on,70,72,0
1,note_on,70,0,120
1,note_on,67,74,120
1,note_on,67,0,120
1,note_on,71,75,0
1,note_on,71,0,120
1,note_on,77,75,0
1,note_on,77,0,120
1,note_on,79,76,0
1,note_on,83,77,120
1,note_on,79,0,20
1,note_on,89,78,100
1,note_on,83,0,20
1,note_on,83,79,100
1,note_on,89,0,20
1,note_on,91,79,100
1,note_on,83,0,20
1,note_on,91,0,100
1,note_on,86,78,0
1,note_on,86,0,120
1,note_on,83,77,0
1,note_on,83,0,120
1,note_on,79,76,0
1,note_on,79,0,120
1,note_on,74,75,0
1,note_on,74,0,120
1,note_on,71,74,0
1,note_on,71,0,120
1,note_on,67,73,0
1,note_on,67,0,120
1,note_on,71,72,0
1,note_on,71,0,120
1,note_on,73,71,0
1,note_on,79,65,120
1,note_on,73,0,20
1,note_on,82,65,100
1,note_on,79,0,20
1,note_on,85,65,100
1,note_on,82,0,20
1,note_on,74,74,100
1,note_on,85,0,20
1,note_on,79,70,100
1,note_on,74,0,20
1,note_on,83,70,100
1,note_on,79,0,20
1,note_on,86,70,100
1,note_on,83,0,20
1,note_on,76,79,100
1,note_on,86,0,20
1,note_on,79,72,100
1,note_on,76,0,20
1,note_on,82,72,100
1,note_on,79,0,20
1,note_on,88,72,100
1,note_on,82,0,20
1,note_on,78,83,100
1,note_on,88,0,20
1,note_on,81,73,100
1,note_on,78,0,20
1,note_on,84,73,100
1,note_on,81,0,20
1,note_on,90,73,100
1,note_on,84,0,20
1,note_on,90,0,120
1,note_on,67,74,100
1,note_on,67,0,120
1,note_on,71,75,0
1,note_on,71,0,120
1,note_on,76,75,0
1,note_on,76,0,120
1,note_on,79,76,0
1,note_on,79,0,120
1,note_on,83,77,0
1,note_on,83,0,120
1,note_on,88,78,0
1,note_on,88,0,120
1,note_on,91,79,0
1,note_on,91,0,120
1,note_on,95,79,0
1,note_on,95,0,120
1,note_on,91,78,0
1,note_on,91,0,120
1,note_on,88,77,0
1,note_on,88,0,120
1,note_on,83,76,0
1,note_on,83,0,120
1,note_on,79,75,0
1,note_on,79,0,120
1,note_on,76,74,0
1,note_on,76,0,120
1,note_on,71,73,0
1,note_on,71,0,120
1,note_on,67,72,0
1,note_on,67,0,120
1,note_on,67,74,120
1,note_on,67,0,120
1,note_on,71,75,0
1,note_on,71,0,120
1,note_on,75,75,0
1,note_on,75,0,120
1,note_on,79,76,0
1,note_on,79,0,120
1,note_on,83,77,0
1,note_on,83,0,120
1,note_on,87,78,0
1,note_on,87,0,120
1,note_on,91,79,0
1,note_on,91,0,120
1,note_on,95,79,0
1,note_on,95,0,120
1,note_on,91,78,0
1,note_on,91,0,120
1,note_on,87,77,0
1,note_on,87,0,120
1,note_on,83,76,0
1,note_on,83,0,120
1,note_on,79,75,0
1,note_on,79,0,120
1,note_on,75,74,0
1,note_on,75,0,120
1,note_on,71,73,0
1,note_on,71,0,120
1,note_on,67,72,0
1,note_on,67,0,120
1,note_on,67,74,120
1,note_on,67,0,120
1,note_on,71,75,0
1,note_on,71,0,120
1,note_on,76,75,0
1,note_on,76,0,120
1,note_on,79,76,0
1,note_on,79,0,120
1,note_on,83,77,0
1,note_on,83,0,120
1,note_on,88,78,0
1,note_on,88,0,120
1,note_on,91,79,0
1,note_on,91,0,120
1,note_on,95,79,0
1,note_on,95,0,120
1,note_on,91,78,0
1,note_on,91,0,120
1,note_on,88,77,0
1,note_on,88,0,120
1,note_on,83,76,0
1,note_on,83,0,120
1,note_on,79,75,0
1,note_on,79,0,120
1,note_on,76,74,0
1,note_on,76,0,120
1,note_on,71,73,0
1,note_on,71,0,120
1,note_on,67,72,0
1,note_on,67,0,120
1,note_on,67,77,120
1,note_on,67,0,120
1,note_on,71,78,0
1,note_on,71,0,120
1,note_on,74,78,0
1,note_on,74,0,120
1,note_on,77,79,0
1,note_on,77,0,120
1,note_on,83,80,0
1,note_on,83,0,120
1,note_on,86,81,0
1,note_on,86,0,120
1,note_on,89,82,0
1,note_on,89,0,120
1,note_on,95,82,0
1,note_on,95,0,120
1,note_on,89,81,0
1,note_on,89,0,120
1,note_on,86,80,0
1,note_on,86,0,120
1,note_on,83,79,0
1,note_on,83,0,120
1,note_on,77,78,0
1,note_on,77,0,120
1,note_on,74,77,0
1,note_on,74,0,120
1,note_on,71,76,0
1,note_on,71,0,120
1,note_on,65,75,0
1,note_on,65,0,120
1,note_on,77,80,0
1,note_on,77,0,120
1,note_on,83,73,0
1,note_on,83,0,120
1,note_on,86,73,0
1,note_on,86,0,120
1,note_on,89,73,0
1,note_on,89,0,120
1,note_on,78,78,0
1,note_on,78,0,120
1,note_on,83,74,0
1,note_on,83,0,120
1,note_on,86,74,0
1,note_on,86,0,120
1,note_on,90,75,0
1,note_on,90,0,120
1,note_on,80,85,0
1,note_on,80,0,120
1,note_on,83,78,0
1,note_on,83,0,120
1,note_on,86,79,0
1,note_on,86,0,120
1,note_on,92,79,0
1,note_on,92,0,120
1,note_on,82,91,0
1,note_on,82,0,120
1,note_on,85,81,0
1,note_on,85,0,120
1,note_on,88,81,0
1,note_on,88,0,120
1,note_on,94,81,0
1,note_on,94,0,120
1,note_on,74,77,0
1,note_on,78,77,0
1,note_on,83,77,0
1,note_on,86,92,0
1,note_on,86,0,480
1,note_on,74,0,0
1,note_on,78,0,0
1,note_on,83,0,0
1,note_on,74,77,0
1,note_on,78,77,0
1,note_on,83,77,0
1,note_on,86,92,0
1,note_on,86,0,240
1,note_on,74,0,0
1,note_on,78,0,0
1,note_on,83,0,0
1,note_on,74,74,0
1,note_on,78,74,0
1,note_on,83,74,0
1,note_on,86,88,0
1,note_on,86,0,240
1,note_on,74,0,0
1,note_on,78,0,0
1,note_on,83,0,0
1,note_on,78,77,0
1,note_on,82,77,0
1,note_on,85,77,0
1,note_on,90,92,0
1,note_on,90,0,960
1,note_on,78,0,0
1,note_on,82,0,0
1,note_on,85,0,0
1,note_on,73,77,0
1,note_on,76,77,0
1,note_on,81,77,0
1,note_on,85,92,0
1,note_on,85,0,480
1,note_on,73,0,0
1,note_on,76,0,0
1,note_on,81,0,0
1,note_on,73,77,0
1,note_on,76,77,0
1,note_on,81,77,0
1,note_on,85,92,0
1,note_on,85,0,240
1,note_on,73,0,0
1,note_on,76,0,0
1,note_on,81,0,0
1,note_on,73,74,0
1,note_on,76,74,0
1,note_on,81,74,0
1,note_on,85,88,0
1,note_on,85,0,240
1,note_on,73,0,0
1,note_on,76,0,0
1,note_on,81,0,0
1,note_on,76,77,0
1,note_on,80,77,0
1,note_on,83,77,0
1,note_on,88,92,0
1,note_on,88,0,960
1,note_on,76,0,0
1,note_on,80,0,0
1,note_on,83,0,0
1,note_on,71,70,0
1,note_on,74,70,0
1,note_on,79,70,0
1,note_on,83,83,0
1,note_on,83,0,480
1,note_on,71,0,0
1,note_on,74,0,0
1,note_on,79,0,0
1,note_on,71,69,0
1,note_on,74,69,0
1,note_on,79,69,0
1,note_on,83,82,0
1,note_on,83,0,240
1,note_on,71,0,0
1,note_on,74,0,0
1,note_on,79,0,0
1,note_on,71,66,0
1,note_on,74,66,0
1,note_on,79,66,0
1,note_on,83,78,0
1,note_on,83,0,240
1,note_on,71,0,0
1,note_on,74,0,0
1,note_on,79,0,0
1,note_on,74,68,0
1,note_on,78,68,0
1,note_on,81,68,0
1,note_on,86,80,0
1,note_on,86,0,480
1,note_on,74,0,0
1,note_on,78,0,0
1,note_on,81,0,0
1,note_on,71,63,0
1,note_on,74,63,0
1,note_on,79,63,0
1,note_on,83,76,0
1,note_on,83,0,480
1,note_on,71,0,0
1,note_on,74,0,0
1,note_on,79,0,0
1,note_on,69,65,0
1,note_on,74,65,0
1,note_on,79,65,0
1,note_on,81,77,0
1,note_on,81,0,480
1,note_on,69,0,0
1,note_on,74,0,0
1,note_on,79,0,0
1,note_on,69,63,0
1,note_on,74,63,0
1,note_on,78,63,0
1,note_on,81,75,0
1,note_on,81,0,480
1,note_on,69,0,0
1,note_on,74,0,0
1,note_on,78,0,0
1,note_on,71,62,0
1,note_on,74,62,0
1,note_on,79,62,0
1,note_on,83,73,0
1,note_on,83,0,960
1,note_on,71,0,0
1,note_on,74,0,0
1,note_on,79,0,0
1,note_on,71,62,0
1,note_on,74,62,0
1,note_on,79,62,0
1,note_on,83,74,0
1,note_on,83,0,480
1,note_on,71,0,0
1,note_on,74,0,0
1,note_on,79,0,0
1,note_on,71,62,0
1,note_on,74,62,0
1,note_on,79,62,0
1,note_on,83,74,0
1,note_on,83,0,240
1,note_on,71,0,0
1,note_on,74,0,0
1,note_on,79,0,0
1,note_on,71,60,0
1,note_on,74,60,0
1,note_on,79,60,0
1,note_on,83,71,0
1,note_on,83,0,240
1,note_on,71,0,0
1,note_on,74,0,0
1,note_on,79,0,0
1,note_on,74,62,0
1,note_on,78,62,0
1,note_on,81,62,0
1,note_on,86,74,0
1,note_on,86,0,960
1,note_on,74,0,0
1,note_on,78,0,0
1,note_on,81,0,0
1,note_on,69,62,0
1,note_on,72,62,0
1,note_on,77,62,0
1,note_on,81,74,0
1,note_on,81,0,480
1,note_on,69,0,0
1,note_on,72,0,0
1,note_on,77,0,0
1,note_on,69,62,0
1,note_on,72,62,0
1,note_on,77,62,0
1,note_on,81,74,0
1,note_on,81,0,240
1,note_on,69,0,0
1,note_on,72,0,0
1,note_on,77,0,0
1,note_on,69,60,0
1,note_on,72,60,0
1,note_on,77,60,0
1,note_on,81,71,0
1,note_on,81,0,240
1,note_on,69,0,0
1,note_on,72,0,0
1,note_on,77,0,0
1,note_on,72,62,0
1,note_on,76,62,0
1,note_on,79,62,0
1,note_on,84,74,0
1,note_on,84,0,960
1,note_on,72,0,0
1,note_on,76,0,0
1,note_on,79,0,0
1,note_on,67,59,0
1,note_on,71,59,0
1,note_on,76,59,0
1,note_on,79,70,0
1,note_on,79,0,480
1,note_on,67,0,0
1,note_on,71,0,0
1,note_on,76,0,0
1,note_on,67,58,0
1,note_on,71,58,0
1,note_on,76,58,0
1,note_on,79,69,0
1,note_on,79,0,240
1,note_on,67,0,0
1,note_on,71,0,0
1,note_on,76,0,0
1,note_on,67,56,0
1,note_on,71,56,0
1,note_on,76,56,0
1,note_on,79,66,0
1,note_on,79,0,240
1,note_on,67,0,0
1,note_on,71,0,0
1,note_on,76,0,0
1,note_on,71,57,0
1,note_on,75,57,0
1,note_on,78,57,0
1,note_on,83,68,0
1,note_on,83,0,480
1,note_on,71,0,0
1,note_on,75,0,0
1,note_on,78,0,0
1,note_on,67,53,0
1,note_on,71,53,0
1,note_on,76,53,0
1,note_on,79,64,0
1,note_on,79,0,480
1,note_on,67,0,0
1,note_on,71,0,0
1,note_on,76,0,0
1,note_on,66,55,0
1,note_on,71,55,0
1,note_on,76,55,0
1,note_on,78,65,0
1,note_on,78,0,480
1,note_on,66,0,0
1,note_on,71,0,0
1,note_on,76,0,0
1,note_on,66,53,0
1,note_on,71,53,0
1,note_on,75,53,0
1,note_on,78,63,0
1,note_on,78,0,480
1,note_on,66,0,0
1,note_on,71,0,0
1,note_on,75,0,0
1,note_on,67,52,0
1,note_on,71,52,0
1,note_on,76,52,0
1,note_on,79,62,0
1,note_on,79,0,960
1,note_on,67,0,0
1,note_on,71,0,0
1,note_on,76,0,0
1,note_on,68,54,0
1,note_on,80,64,0
1,note_on,80,0,90
1,note_on,68,0,0
1,note_on,69,57,390
1,note_on,81,68,0
1,note_on,81,0,720
1,note_on,69,0,0
1,note_on,71,52,0
1,note_on,83,61,0
1,note_on,83,0,90
1,note_on,71,0,0
1,note_on,72,51,150
1,note_on,84,60,0
1,note_on,84,0,90
1,note_on,72,0,0
1,note_on,71,52,150
1,note_on,83,61,0
1,note_on,83,0,90
1,note_on,71,0,0
1,note_on,70,54,150
1,note_on,82,64,0
1,note_on,82,0,90
1,note_on,70,0,0
1,note_on,71,57,390
1,note_on,83,68,0
1,note_on,83,0,720
1,note_on,71,0,0
1,note_on,73,61,0
1,note_on,85,61,0
1,note_on,85,0,90
1,note_on,73,0,0
1,note_on,74,51,150
1,note_on,86,60,0
1,note_on,86,0,90
1,note_on,74,0,0
1,note_on,76,52,150
1,note_on,88,61,0
1,note_on,88,0,90
1,note_on,76,0,0
1,note_on,77,54,150
1,note_on,89,64,0
1,note_on,89,0,480
1,note_on,77,0,0
1,note_on,77,52,0
1,note_on,89,61,0
1,note_on,89,0,90
1,note_on,77,0,0
1,note_on,77,52,150
1,note_on,89,61,0
1,note_on,89,0,90
1,note_on,77,0,0
1,note_on,68,64,150
1,note_on,80,77,0
1,note_on,80,0,90
1,note_on,68,0,0
1,note_on,71,57,150
1,note_on,83,67,0
1,note_on,83,0,90
1,note_on,71,0,0
1,note_on,68,57,150
1,note_on,80,67,0
1,note_on,80,0,90
1,note_on,68,0,0
1,note_on,71,57,150
1,note_on,83,67,0
1,note_on,83,0,90
1,note_on,71,0,0
1,note_on,76,54,150
1,note_on,88,64,0
1,note_on,88,0,480
1,note_on,76,0,0
1,note_on,76,52,0
1,note_on,88,61,0
1,note_on,88,0,90
1,note_on,76,0,0
1,note_on,76,52,150
1,note_on,88,62,0
1,note_on,88,0,90
1,note_on,76,0,0
1,note_on,67,61,150
1,note_on,79,73,0
1,note_on,79,0,90
1,note_on,67,0,0
1,note_on,70,56,150
1,note_on,82,67,0
1,note_on,82,0,90
1,note_on,70,0,0
1,note_on,67,56,150
1,note_on,79,67,0
1,note_on,79,0,90
1,note_on,67,0,0
1,note_on,70,57,150
1,note_on,82,68,0
1,note_on,82,0,90
1,note_on,70,0,0
1,note_on,75,54,150
1,note_on,87,64,0
1,note_on,87,0,480
1,note_on,75,0,0
1,note_on,66,52,0
1,note_on,78,61,0
1,note_on,78,0,90
1,note_on,66,0,0
1,note_on,69,52,150
1,note_on,81,62,0
1,note_on,81,0,90
1,note_on,69,0,0
1,note_on,74,54,150
1,note_on,86,64,0
1,note_on,86,0,480
1,note_on,74,0,0
1,note_on,65,52,0
1,note_on,77,61,0
1,note_on,77,0,90
1,note_on,65,0,0
1,note_on,68,52,150
1,note_on,80,62,0
1,note_on,80,0,90
1,note_on,68,0,0
1,note_on,73,51,150
1,note_on,85,60,0
1,note_on,85,0,480
1,note_on,73,0,0
1,note_on,64,47,0
1,note_on,76,56,0
1,note_on,76,0,90
1,note_on,64,0,0
1,note_on,67,46,150
1,note_on,79,55,0
1,note_on,79,0,90
1,note_on,67,0,0
1,note_on,72,47,150
1,note_on,84,56,0
1,note_on,84,0,480
1,note_on,72,0,0
1,note_on,63,43,0
1,note_on,75,51,0
1,note_on,75,0,90
1,note_on,63,0,0
1,note_on,66,42,150
1,note_on,78,50,0
1,note_on,78,0,90
1,note_on,66,0,0
1,note_on,60,35,150
1,note_on,66,42,0
1,note_on,66,0,120
1,note_on,60,0,0
1,note_on,72,38,0
1,note_on,72,0,120
1,note_on,60,35,0
1,note_on,66,42,0
1,note_on,66,0,120
1,note_on,60,0,0
1,note_on,72,40,0
1,note_on,72,0,120
1,note_on,60,38,0
1,note_on,66,45,0
1,note_on,66,0,120
1,note_on,60,0,0
1,note_on,72,41,0
1,note_on,72,0,120
1,note_on,60,40,0
1,note_on,66,47,0
1,note_on,66,0,120
1,note_on,60,0,0
1,note_on,72,43,0
1,note_on,72,0,120
1,note_on,60,41,0
1,note_on,66,49,0
1,note_on,66,0,120
1,note_on,60,0,0
1,note_on,72,45,0
1,note_on,72,0,120
1,note_on,60,43,0
1,note_on,66,51,0
1,note_on,66,0,120
1,note_on,60,0,0
1,note_on,72,46,0
1,note_on,72,0,120
1,note_on,60,43,0
1,note_on,66,52,0
1,note_on,66,0,120
1,note_on,60,0,0
1,note_on,72,48,0
1,note_on,72,0,120
1,note_on,60,45,0
1,note_on,66,53,0
1,note_on,66,0,120
1,note_on,60,0,0
1,note_on,72,52,0
1,note_on,72,0,120
1,note_on,72,51,0
1,note_on,78,61,0
1,note_on,78,0,120
1,note_on,72,0,0
1,note_on,84,56,0
1,note_on,84,0,120
1,note_on,72,52,0
1,note_on,78,62,0
1,note_on,78,0,120
1,note_on,72,0,0
1,note_on,84,59,0
1,note_on,84,0,120
1,note_on,72,56,0
1,note_on,78,67,0
1,note_on,78,0,120
1,note_on,72,0,0
1,note_on,84,62,0
1,note_on,84,0,120
1,note_on,72,59,0
1,note_on,78,70,0
1,note_on,78,0,120
1,note_on,72,0,0
1,note_on,84,66,0
1,note_on,84,0,120
1,note_on,72,62,0
1,note_on,78,74,0
1,note_on,78,0,120
1,note_on,72,0,0
1,note_on,84,69,0
1,note_on,84,0,120
1,note_on,72,64,0
1,note_on,78,76,0
1,note_on,78,0,120
1,note_on,72,0,0
1,note_on,84,70,0
1,note_on,84,0,120
1,note_on,84,78,0
1,note_on,72,66,0
1,note_on,78,66,0
1,note_on,78,0,120
1,note_on,72,0,0
1,note_on,84,0,0
1,note_on,84,77,120
1,note_on,72,65,0
1,note_on,78,65,0
1,note_on,78,0,120
1,note_on,72,0,0
1,note_on,84,0,0
1,note_on,72,75,120
1,note_on,78,75,0
1,note_on,84,89,0
1,note_on,84,0,120
1,note_on,78,0,0
1,note_on,72,0,0
1,note_on,74,76,120
1,note_on,78,76,0
1,note_on,84,90,0
1,note_on,86,90,0
1,note_on,86,0,240
1,note_on,74,0,0
1,note_on,78,0,0
1,note_on,84,0,0
1,note_on,74,78,0
1,note_on,78,78,0
1,note_on,84,92,0
1,note_on,86,92,0
1,note_on,86,0,240
1,note_on,74,0,0
1,note_on,78,0,0
1,note_on,84,0,0
1,note_on,74,80,0
1,note_on,78,80,0
1,note_on,84,94,0
1,note_on,86,94,0
1,note_on,86,0,240
1,note_on,74,0,0
1,note_on,78,0,0
1,note_on,84,0,0
1,note_on,74,82,0
1,note_on,78,82,0
1,note_on,84,97,0
1,note_on,86,97,0
1,note_on,86,0,240
1,note_on,74,0,0
1,note_on,78,0,0
1,note_on,84,0,0
1,note_on,74,82,0
1,note_on,78,82,0
1,note_on,84,97,0
1,note_on,86,97,0
1,note_on,86,0,240
1,note_on,74,0,0
1,note_on,78,0,0
1,note_on,84,0,0
1,note_on,74,84,0
1,note_on,78,84,0
1,note_on,84,99,0
1,note_on,86,99,0
1,note_on,86,0,120
1,note_on,74,0,0
1,note_on,78,0,0
1,note_on,84,0,0
1,note_on,74,86,120
1,note_on,78,86,0
1,note_on,84,101,0
1,note_on,86,101,0
1,note_on,86,0,120
1,note_on,74,0,0
1,note_on,78,0,0
1,note_on,84,0,0
1,note_on,76,88,120
1,note_on,79,88,0
1,note_on,84,88,0
1,note_on,88,104,0
1,note_on,88,0,228
1,note_on,76,0,0
1,note_on,79,0,0
1,note_on,84,0,0
1,note_on,77,81,12
1,note_on,83,81,0
1,note_on,86,81,0
1,note_on,91,97,0
1,note_on,91,0,228
1,note_on,77,0,0
1,note_on,83,0,0
1,note_on,86,0,0
1,note_on,77,83,12
1,note_on,83,83,0
1,note_on,86,83,0
1,note_on,91,98,0
1,note_on,91,0,228
1,note_on,77,0,0
1,note_on,83,0,0
1,note_on,86,0,0
1,note_on,77,83,12
1,note_on,83,83,0
1,note_on,86,83,0
1,note_on,91,98,0
1,note_on,91,0,228
1,note_on,77,0,0
1,note_on,83,0,0
1,note_on,86,0,0
1,note_on,77,83,12
1,note_on,83,83,0
1,note_on,86,83,0
1,note_on,91,98,0
1,note_on,91,0,228
1,note_on,77,0,0
1,note_on,83,0,0
1,note_on,86,0,0
1,note_on,77,81,12
1,note_on,83,81,0
1,note_on,86,81,0
1,note_on,91,97,0
1,note_on,91,0,228
1,note_on,77,0,0
1,note_on,83,0,0
1,note_on,86,0,0
1,note_on,77,81,12
1,note_on,83,81,0
1,note_on,86,81,0
1,note_on,91,97,0
1,note_on,91,0,228
1,note_on,77,0,0
1,note_on,83,0,0
1,note_on,86,0,0
1,note_on,77,81,12
1,note_on,83,81,0
1,note_on,86,81,0
1,note_on,91,97,0
1,note_on,91,0,228
1,note_on,77,0,0
1,note_on,83,0,0
1,note_on,86,0,0
1,note_on,84,76,12
1,note_on,88,90,0
1,note_on,88,0,120
1,note_on,84,0,0
1,note_on,96,95,0
1,note_on,96,0,120
1,note_on,91,95,0
1,note_on,91,0,120
1,note_on,88,94,0
1,note_on,88,0,120
1,note_on,84,93,0
1,note_on,84,0,120
1,note_on,79,92,0
1,note_on,79,0,120
1,note_on,76,91,0
1,note_on,76,0,120
1,note_on,79,90,0
1,note_on,79,0,120
1,note_on,72,90,0
1,note_on,72,0,240
1,note_on,88,76,0
1,note_on,91,90,0
1,note_on,91,0,120
1,note_on,88,0,0
1,note_on,79,86,0
1,note_on,79,0,120
1,note_on,89,79,0
1,note_on,93,93,0
1,note_on,93,0,120
1,note_on,89,0,0
1,note_on,81,86,0
1,note_on,81,0,120
1,note_on,91,79,0
1,note_on,94,93,0
1,note_on,94,0,120
1,note_on,91,0,0
1,note_on,82,89,0
1,note_on,82,0,120
1,note_on,89,83,0
1,note_on,93,98,0
1,note_on,93,0,120
1,note_on,89,0,0
1,note_on,81,89,0
1,note_on,81,0,120
1,note_on,88,79,0
1,note_on,91,94,0
1,note_on,91,0,120
1,note_on,88,0,0
1,note_on,79,87,0
1,note_on,79,0,120
1,note_on,86,79,0
1,note_on,89,93,0
1,note_on,89,0,120
1,note_on,86,0,0
1,note_on,77,86,0
1,note_on,77,0,120
1,note_on,81,77,0
1,note_on,88,91,0
1,note_on,88,0,120
1,note_on,81,0,0
1,note_on,76,77,0
1,note_on,76,0,120
1,note_on,77,73,0
1,note_on,86,86,0
1,note_on,86,0,120
1,note_on,77,0,0
1,note_on,74,76,0
1,note_on,74,0,120
1,note_on,81,73,0
1,note_on,85,87,0
1,note_on,85,0,120
1,note_on,81,0,0
1,note_on,73,79,0
1,note_on,73,0,120
1,note_on,81,78,0
1,note_on,86,92,0
1,note_on,86,0,120
1,note_on,81,0,0
1,note_on,74,81,0
1,note_on,74,0,120
1,note_on,88,80,0
1,note_on,97,95,0
1,note_on,97,0,120
1,note_on,88,0,0
1,note_on,85,86,0
1,note_on,85,0,120
1,note_on,86,90,0
1,note_on,86,0,120
1,note_on,98,95,0
1,note_on,98,0,120
1,note_on,93,95,0
1,note_on,93,0,120
1,note_on,89,94,0
1,note_on,89,0,120
1,note_on,86,93,0
1,note_on,86,0,120
1,note_on,81,92,0
1,note_on,81,0,120
1,note_on,77,91,0
1,note_on,77,0,120
1,note_on,81,90,0
1,note_on,81,0,120
1,note_on,74,90,0
1,note_on,74,0,240
1,note_on,89,76,0
1,note_on,93,90,0
1,note_on,93,0,120
1,note_on,89,0,0
1,note_on,81,86,0
1,note_on,81,0,120
1,note_on,91,79,0
1,note_on,95,93,0
1,note_on,95,0,120
1,note_on,91,0,0
1,note_on,83,86,0
1,note_on,83,0,120
1,note_on,93,79,0
1,note_on,96,93,0
1,note_on,96,0,120
1,note_on,93,0,0
1,note_on,84,89,0
1,note_on,84,0,120
1,note_on,91,83,0
1,note_on,95,98,0
1,note_on,95,0,120
1,note_on,91,0,0
1,note_on,83,89,0
1,note_on,83,0,120
1,note_on,90,79,0
1,note_on,93,94,0
1,note_on,93,0,120
1,note_on,90,0,0
1,note_on,81,87,0
1,note_on,81,0,120
1,note_on,88,79,0
1,note_on,91,93,0
1,note_on,91,0,120
1,note_on,88,0,0
1,note_on,79,86,0
1,note_on,79,0,120
1,note_on,83,77,0
1,note_on,90,91,0
1,note_on,90,0,120
1,note_on,83,0,0
1,note_on,78,77,0
1,note_on,78,0,120
1,note_on,79,73,0
1,note_on,88,86,0
1,note_on,88,0,120
1,note_on,79,0,0
1,note_on,76,76,0
1,note_on,76,0,120
1,note_on,83,73,0
1,note_on,87,87,0
1,note_on,87,0,120
1,note_on,83,0,0
1,note_on,75,79,0
1,note_on,75,0,120
1,note_on,83,78,0
1,note_on,88,92,0
1,note_on,88,0,120
1,note_on,83,0,0
1,note_on,76,81,0
1,note_on,76,0,120
1,note_on,77,80,0
1,note_on,86,95,0
1,note_on,86,0,120
1,note_on,77,0,0
1,note_on,74,86,0
1,note_on,74,0,120
1,note_on,73,93,0
1,note_on,76,93,0
1,note_on,76,0,120
1,note_on,73,0,0
1,note_on,85,87,0
1,note_on,85,0,120
1,note_on,76,87,0
1,note_on,79,87,0
1,note_on,79,0,120
1,note_on,76,0,0
1,note_on,88,87,0
1,note_on,88,0,120
1,note_on,73,93,0
1,note_on,76,93,0
1,note_on,76,0,120
1,note_on,73,0,0
1,note_on,85,86,0
1,note_on,85,0,120
1,note_on,76,88,0
1,note_on,79,88,0
1,note_on,79,0,120
1,note_on,76,0,0
1,note_on,88,88,0
1,note_on,88,0,120
1,note_on,82,95,0
1,note_on,82,0,120
1,note_on,94,90,0
1,note_on,94,0,120
1,note_on,91,88,0
1,note_on,91,0,120
1,note_on,88,86,0
1,note_on,88,0,120
1,note_on,82,85,0
1,note_on,82,0,120
1,note_on,79,85,0
1,note_on,79,0,120
1,note_on,76,84,0
1,note_on,76,0,120
1,note_on,70,83,0
1,note_on,70,0,120
1,note_on,72,91,0
1,note_on,75,91,0
1,note_on,75,0,120
1,note_on,72,0,0
1,note_on,84,85,0
1,note_on,84,0,120
1,note_on,75,85,0
1,note_on,78,85,0
1,note_on,78,0,120
1,note_on,75,0,0
1,note_on,87,85,0
1,note_on,87,0,120
1,note_on,72,91,0
1,note_on,75,91,0
1,note_on,75,0,120
1,note_on,72,0,0
1,note_on,84,84,0
1,note_on,84,0,120
1,note_on,75,86,0
1,note_on,78,86,0
1,note_on,78,0,120
1,note_on,75,0,0
1,note_on,87,86,0
1,note_on,87,0,120
1,note_on,81,93,0
1,note_on,81,0,120
1,note_on,93,88,0
1,note_on,93,0,120
1,note_on,90,86,0
1,note_on,90,0,120
1,note_on,87,84,0
1,note_on,87,0,120
1,note_on,81,83,0
1,note_on,81,0,120
1,note_on,78,83,0
1,note_on,78,0,120
1,note_on,75,82,0
1,note_on,75,0,120
1,note_on,69,81,0
1,note_on,69,0,120
1,note_on,67,84,0
1,note_on,67,0,120
1,note_on,79,75,0
1,note_on,79,0,120
1,note_on,74,75,0
1,note_on,74,0,120
1,note_on,71,74,0
1,note_on,71,0,120
1,note_on,74,80,0
1,note_on,74,0,120
1,note_on,86,75,0
1,note_on,86,0,120
1,note_on,83,75,0
1,note_on,83,0,120
1,note_on,79,75,0
1,note_on,79,0,120
1,note_on,84,62,0
1,note_on,88,73,0
1,note_on,88,0,120
1,note_on,84,0,0
1,note_on,76,74,0
1,note_on,76,0,120
1,note_on,86,64,0
1,note_on,89,76,0
1,note_on,89,0,120
1,note_on,86,0,0
1,note_on,77,78,0
1,note_on,77,0,120
1,note_on,88,67,0
1,note_on,91,79,0
1,note_on,91,0,120
1,note_on,88,0,0
1,note_on,79,81,0
1,note_on,79,0,120
1,note_on,89,70,0
1,note_on,93,83,0
1,note_on,93,0,120
1,note_on,89,0,0
1,note_on,81,84,0
1,note_on,81,0,120
1,note_on,86,72,0
1,note_on,91,72,0
1,note_on,95,85,0
1,note_on,95,0,120
1,note_on,91,0,0
1,note_on,86,0,0
1,note_on,83,86,0
1,note_on,83,0,120
1,note_on,86,73,0
1,note_on,91,73,0
1,note_on,95,87,0
1,note_on,95,0,120
1,note_on,91,0,0
1,note_on,86,0,0
1,note_on,83,89,0
1,note_on,83,0,120
1,note_on,96,90,0
1,note_on,91,76,0
1,note_on,91,0,120
1,note_on,96,0,0
1,note_on,84,92,0
1,note_on,84,0,120
1,note_on,96,93,0
1,note_on,91,79,0
1,note_on,91,0,120
1,note_on,96,0,0
1,note_on,84,94,0
1,note_on,84,0,120
1,note_on,101,94,0
1,note_on,96,79,0
1,note_on,96,0,120
1,note_on,101,0,0
1,note_on,89,94,0
1,note_on,89,0,120
1,note_on,101,94,0
1,note_on,96,79,0
1,note_on,96,0,120
1,note_on,101,0,0
1,note_on,89,94,0
1,note_on,89,0,120
1,note_on,95,79,0
1,note_on,101,94,0
1,note_on,101,0,120
1,note_on,95,0,0
1,note_on,89,94,0
1,note_on,89,0,120
1,note_on,95,79,0
1,note_on,101,94,0
1,note_on,101,0,120
1,note_on,95,0,0
1,note_on,89,94,0
1,note_on,89,0,120
1,note_on,88,80,0
1,note_on,95,84,0
1,note_on,100,99,0
1,note_on,100,0,330
1,note_on,95,0,0
1,note_on,88,0,0
1,note_on,52,79,30
1,note_on,59,79,0
1,note_on,64,94,0
1,note_on,64,0,90
1,note_on,59,0,0
1,note_on,52,0,0
1,note_on,64,88,30
1,note_on,52,74,0
1,note_on,59,74,0
1,note_on,64,0,960
1,note_on,62,65,0
1,note_on,62,0,480
1,note_on,59,0,0
1,note_on,52,0,0
1,note_on,58,35,0
1,note_on,61,42,0
1,note_on,61,0,120
1,note_on,58,0,0
1,note_on,52,42,0
1,note_on,52,0,120
1,note_on,58,36,0
1,note_on,61,43,0
1,note_on,61,0,120
1,note_on,58,0,0
1,note_on,52,43,0
1,note_on,52,0,120
1,note_on,61,44,0
1,note_on,58,37,0
1,note_on,58,0,120
1,note_on,61,0,0
1,note_on,52,45,0
1,note_on,52,0,120
1,note_on,58,38,0
1,note_on,61,45,0
1,note_on,61,0,120
1,note_on,58,0,0
1,note_on,52,46,0
1,note_on,52,0,120
1,note_on,61,39,0
1,note_on,64,46,0
1,note_on,64,0,120
1,note_on,61,0,0
1,note_on,58,47,0
1,note_on,58,0,120
1,note_on,61,39,0
1,note_on,64,47,0
1,note_on,64,0,120
1,note_on,61,0,0
1,note_on,58,48,0
1,note_on,58,0,120
1,note_on,61,40,0
1,note_on,64,48,0
1,note_on,64,0,120
1,note_on,61,0,0
1,note_on,58,49,0
1,note_on,58,0,120
1,note_on,61,42,0
1,note_on,64,50,0
1,note_on,64,0,120
1,note_on,61,0,0
1,note_on,58,50,0
1,note_on,58,0,120
1,note_on,64,42,0
1,note_on,70,50,0
1,note_on,70,0,120
1,note_on,64,0,0
1,note_on,61,52,0
1,note_on,61,0,120
1,note_on,64,45,0
1,note_on,70,54,0
1,note_on,70,0,120
1,note_on,64,0,0
1,note_on,61,56,0
1,note_on,61,0,120
1,note_on,70,51,0
1,note_on,73,61,0
1,note_on,73,0,120
1,note_on,70,0,0
1,note_on,64,64,0
1,note_on,64,0,120
1,note_on,70,56,0
1,note_on,73,66,0
1,note_on,73,0,120
1,note_on,70,0,0
1,note_on,64,70,0
1,note_on,64,0,120
1,note_on,73,61,0
1,note_on,76,72,0
1,note_on,76,0,120
1,note_on,73,0,0
1,note_on,70,75,0
1,note_on,70,0,120
1,note_on,76,65,0
1,note_on,82,78,0
1,note_on,82,0,120
1,note_on,76,0,0
1,note_on,73,81,0
1,note_on,73,0,120
1,note_on,82,70,0
1,note_on,85,83,0
1,note_on,85,0,120
1,note_on,82,0,0
1,note_on,76,87,0
1,note_on,76,0,120
1,note_on,88,89,0
1,note_on,85,75,0
1,note_on,85,0,120
1,note_on,88,0,0
1,note_on,82,92,0
1,note_on,82,0,120
1,note_on,89,104,0
1,note_on,86,88,0
1,note_on,81,88,0
1,note_on,81,0,480
1,note_on,86,0,0
1,note_on,89,0,0
1,note_on,93,99,0
1,note_on,89,83,0
1,note_on,86,83,0
1,note_on,81,83,0
1,note_on,81,0,480
1,note_on,93,0,0
1,note_on,89,0,0
1,note_on,86,0,0
1,note_on,88,104,0
1,note_on,84,88,0
1,note_on,79,88,0
1,note_on,76,88,0
1,note_on,76,0,480
1,note_on,88,0,0
1,note_on,84,0,0
1,note_on,79,0,0
1,note_on,86,101,0
1,note_on,83,84,0
1,note_on,79,84,0
1,note_on,74,84,0
1,note_on,74,0,480
1,note_on,86,0,0
1,note_on,83,0,0
1,note_on,79,0,0
1,note_on,76,89,0
1,note_on,83,92,0
1,note_on,88,108,0
1,note_on,88,0,330
1,note_on,83,0,0
1,note_on,76,0,0
1,note_on,52,85,30
1,note_on,59,85,0
1,note_on,64,100,0
1,note_on,64,0,90
1,note_on,59,0,0
1,note_on,52,0,0
1,note_on,64,94,30
1,note_on,52,79,0
1,note_on,59,79,0
1,note_on,64,0,960
1,note_on,62,65,0
1,note_on,62,0,480
1,note_on,59,0,0
1,note_on,52,0,0
1,note_on,58,35,0
1,note_on,61,42,0
1,note_on,61,0,120
1,note_on,58,0,0
1,note_on,52,42,0
1,note_on,52,0,120
1,note_on,58,36,0
1,note_on,61,43,0
1,note_on,61,0,120
1,note_on,58,0,0
1,note_on,52,43,0
1,note_on,52,0,120
1,note_on,61,44,0
1,note_on,58,37,0
1,note_on,58,0,120
1,note_on,61,0,0
1,note_on,52,45,0
1,note_on,52,0,120
1,note_on,58,38,0
1,note_on,61,45,0
1,note_on,61,0,120
1,note_on,58,0,0
1,note_on,52,46,0
1,note_on,52,0,120
1,note_on,61,39,0
1,note_on,64,46,0
1,note_on,64,0,120
1,note_on,61,0,0
1,note_on,58,47,0
1,note_on,58,0,120
1,note_on,61,39,0
1,note_on,64,47,0
1,note_on,64,0,120
1,note_on,61,0,0
1,note_on,58,48,0
1,note_on,58,0,120
1,note_on,61,40,0
1,note_on,64,48,0
1,note_on,64,0,120
1,note_on,61,0,0
1,note_on,58,49,0
1,note_on,58,0,120
1,note_on,61,42,0
1,note_on,64,50,0
1,note_on,64,0,120
1,note_on,61,0,0
1,note_on,58,50,0
1,note_on,58,0,120
1,note_on,64,42,0
1,note_on,70,50,0
1,note_on,70,0,120
1,note_on,64,0,0
1,note_on,61,52,0
1,note_on,61,0,120
1,note_on,64,45,0
1,note_on,70,54,0
1,note_on,70,0,120
1,note_on,64,0,0
1,note_on,61,56,0
1,note_on,61,0,120
1,note_on,70,51,0
1,note_on,73,61,0
1,note_on,73,0,120
1,note_on,70,0,0
1,note_on,64,64,0
1,note_on,64,0,120
1,note_on,70,56,0
1,note_on,73,66,0
1,note_on,73,0,120
1,note_on,70,0,0
1,note_on,64,70,0
1,note_on,64,0,120
1,note_on,73,61,0
1,note_on,76,72,0
1,note_on,76,0,120
1,note_on,73,0,0
1,note_on,70,75,0
1,note_on,70,0,120
1,note_on,76,65,0
1,note_on,82,78,0
1,note_on,82,0,120
1,note_on,76,0,0
1,note_on,73,81,0
1,note_on,73,0,120
1,note_on,82,70,0
1,note_on,85,83,0
1,note_on,85,0,120
1,note_on,82,0,0
1,note_on,76,87,0
1,note_on,76,0,120
1,note_on,88,89,0
1,note_on,85,75,0
1,note_on,85,0,120
1,note_on,88,0,0
1,note_on,82,92,0
1,note_on,82,0,120
1,note_on,82,82,0
1,note_on,77,82,0
1,note_on,86,82,0
1,note_on,89,98,0
1,note_on,89,0,360
1,note_on,82,0,0
1,note_on,77,0,0
1,note_on,86,0,0
1,note_on,70,71,0
1,note_on,65,71,0
1,note_on,74,84,0
1,note_on,77,84,0
1,note_on,77,0,90
1,note_on,70,0,0
1,note_on,65,0,0
1,note_on,74,0,0
1,note_on,65,74,30
1,note_on,70,74,0
1,note_on,77,88,0
1,note_on,74,88,0
1,note_on,74,0,480
1,note_on,65,0,0
1,note_on,70,0,0
1,note_on,77,0,0
1,note_on,82,82,0
1,note_on,76,82,0
1,note_on,85,82,0
1,note_on,88,97,0
1,note_on,88,0,360
1,note_on,82,0,0
1,note_on,76,0,0
1,note_on,85,0,0
1,note_on,70,74,0
1,note_on,64,74,0
1,note_on,73,74,0
1,note_on,76,88,0
1,note_on,76,0,90
1,note_on,70,0,0
1,note_on,64,0,0
1,note_on,73,0,0
1,note_on,64,76,30
1,note_on,70,76,0
1,note_on,76,91,0
1,note_on,73,76,0
1,note_on,73,0,480
1,note_on,64,0,0
1,note_on,70,0,0
1,note_on,76,0,0
1,note_on,78,87,0
1,note_on,75,87,0
1,note_on,84,87,0
1,note_on,87,102,0
1,note_on,87,0,360
1,note_on,78,0,0
1,note_on,75,0,0
1,note_on,84,0,0
1,note_on,66,77,0
1,note_on,63,77,0
1,note_on,72,77,0
1,note_on,75,92,0
1,note_on,75,0,90
1,note_on,66,0,0
1,note_on,63,0,0
1,note_on,72,0,0
1,note_on,63,77,30
1,note_on,66,77,0
1,note_on,75,92,0
1,note_on,72,77,0
1,note_on,72,0,480
1,note_on,63,0,0
1,note_on,66,0,0
1,note_on,75,0,0
1,note_on,77,89,0
1,note_on,74,89,0
1,note_on,82,89,0
1,note_on,86,106,0
1,note_on,86,0,360
1,note_on,77,0,0
1,note_on,74,0,0
1,note_on,82,0,0
1,note_on,65,80,0
1,note_on,62,80,0
1,note_on,70,80,0
1,note_on,74,95,0
1,note_on,74,0,90
1,note_on,65,0,0
1,note_on,62,0,0
1,note_on,70,0,0
1,note_on,62,80,30
1,note_on,65,80,0
1,note_on,74,95,0
1,note_on,70,80,0
1,note_on,70,0,480
1,note_on,62,0,0
1,note_on,65,0,0
1,note_on,74,0,0
1,note_on,66,86,0
1,note_on,62,86,0
1,note_on,72,86,0
1,note_on,74,101,0
1,note_on,74,0,360
1,note_on,66,0,0
1,note_on,62,0,0
1,note_on,72,0,0
1,note_on,78,77,0
1,note_on,74,77,0
1,note_on,84,77,0
1,note_on,86,92,0
1,note_on,86,0,90
1,note_on,78,0,0
1,note_on,74,0,0
1,note_on,84,0,0
1,note_on,74,87,30
1,note_on,78,87,0
1,note_on,86,103,0
1,note_on,84,87,0
1,note_on,84,0,480
1,note_on,74,0,0
1,note_on,78,0,0
1,note_on,86,0,0
1,note_on,67,82,0
1,note_on,62,82,0
1,note_on,71,82,0
1,note_on,74,97,0
1,note_on,74,0,360
1,note_on,67,0,0
1,note_on,62,0,0
1,note_on,71,0,0
1,note_on,79,79,0
1,note_on,74,79,0
1,note_on,83,79,0
1,note_on,86,95,0
1,note_on,86,0,90
1,note_on,79,0,0
1,note_on,74,0,0
1,note_on,83,0,0
1,note_on,74,84,30
1,note_on,79,84,0
1,note_on,86,99,0
1,note_on,83,84,0
1,note_on,83,0,480
1,note_on,74,0,0
1,note_on,79,0,0
1,note_on,86,0,0
1,note_on,67,82,0
1,note_on,64,82,0
1,note_on,72,82,0
1,note_on,76,98,0
1,note_on,76,0,360
1,note_on,67,0,0
1,note_on,64,0,0
1,note_on,72,0,0
1,note_on,79,75,0
1,note_on,76,75,0
1,note_on,84,75,0
1,note_on,88,89,0
1,note_on,88,0,90
1,note_on,79,0,0
1,note_on,76,0,0
1,note_on,84,0,0
1,note_on,76,86,30
1,note_on,79,86,0
1,note_on,88,102,0
1,note_on,84,86,0
1,note_on,84,0,480
1,note_on,76,0,0
1,note_on,79,0,0
1,note_on,88,0,0
1,note_on,71,86,0
1,note_on,67,86,0
1,note_on,77,86,0
1,note_on,79,101,0
1,note_on,79,0,360
1,note_on,71,0,0
1,note_on,67,0,0
1,note_on,77,0,0
1,note_on,83,80,0
1,note_on,79,80,0
1,note_on,89,80,0
1,note_on,91,96,0
1,note_on,91,0,90
1,note_on,83,0,0
1,note_on,79,0,0
1,note_on,89,0,0
1,note_on,79,86,30
1,note_on,83,86,0
1,note_on,91,103,0
1,note_on,89,86,0
1,note_on,89,0,480
1,note_on,79,0,0
1,note_on,83,0,0
1,note_on,91,0,0
1,note_on,55,50,0
1,note_on,67,46,120
1,note_on,55,0,20
1,note_on,62,46,100
1,note_on,67,0,20
1,note_on,59,46,100
1,note_on,62,0,20
1,note_on,62,50,100
1,note_on,59,0,20
1,note_on,74,46,100
1,note_on,62,0,20
1,note_on,71,46,100
1,note_on,74,0,20
1,note_on,67,46,100
1,note_on,71,0,20
1,note_on,72,51,100
1,note_on,76,51,0
1,note_on,67,0,20
1,note_on,64,47,100
1,note_on,76,0,20
1,note_on,72,0,0
1,note_on,74,51,100
1,note_on,77,51,0
1,note_on,64,0,20
1,note_on,65,47,100
1,note_on,77,0,20
1,note_on,74,0,0
1,note_on,76,53,100
1,note_on,79,53,0
1,note_on,65,0,20
1,note_on,67,47,100
1,note_on,79,0,20
1,note_on,76,0,0
1,note_on,77,53,100
1,note_on,81,53,0
1,note_on,67,0,20
1,note_on,69,48,100
1,note_on,81,0,20
1,note_on,77,0,0
1,note_on,74,51,100
1,note_on,79,51,0
1,note_on,83,51,0
1,note_on,69,0,20
1,note_on,74,0,100
1,note_on,79,0,0
1,note_on,83,0,0
1,note_on,71,53,0
1,note_on,71,0,120
1,note_on,74,55,0
1,note_on,79,55,0
1,note_on,83,55,0
1,note_on,83,0,120
1,note_on,79,0,0
1,note_on,74,0,0
1,note_on,71,56,0
1,note_on,71,0,120
1,note_on,79,58,0
1,note_on,84,58,0
1,note_on,84,0,120
1,note_on,79,0,0
1,note_on,72,60,0
1,note_on,72,0,120
1,note_on,84,62,0
1,note_on,79,62,0
1,note_on,79,0,120
1,note_on,84,0,0
1,note_on,72,63,0
1,note_on,72,0,120
1,note_on,89,65,0
1,note_on,84,65,0
1,note_on,84,0,120
1,note_on,89,0,0
1,note_on,77,65,0
1,note_on,77,0,120
1,note_on,89,66,0
1,note_on,84,66,0
1,note_on,84,0,120
1,note_on,89,0,0
1,note_on,77,66,0
1,note_on,77,0,120
1,note_on,89,67,0
1,note_on,83,67,0
1,note_on,83,0,120
1,note_on,89,0,0
1,note_on,77,67,0
1,note_on,77,0,120
1,note_on,89,68,0
1,note_on,83,68,0
1,note_on,83,0,120
1,note_on,89,0,0
1,note_on,77,68,0
1,note_on,77,0,120
1,note_on,57,60,0
1,note_on,69,55,120
1,note_on,57,0,20
1,note_on,64,55,100
1,note_on,69,0,20
1,note_on,61,55,100
1,note_on,64,0,20
1,note_on,64,60,100
1,note_on,61,0,20
1,note_on,76,55,100
1,note_on,64,0,20
1,note_on,73,55,100
1,note_on,76,0,20
1,note_on,69,55,100
1,note_on,73,0,20
1,note_on,74,51,100
1,note_on,77,61,0
1,note_on,69,0,20
1,note_on,65,56,100
1,note_on,77,0,20
1,note_on,74,0,0
1,note_on,76,51,100
1,note_on,79,61,0
1,note_on,65,0,20
1,note_on,67,56,100
1,note_on,79,0,20
1,note_on,76,0,0
1,note_on,77,53,100
1,note_on,81,63,0
1,note_on,67,0,20
1,note_on,69,56,100
1,note_on,81,0,20
1,note_on,77,0,0
1,note_on,79,53,100
1,note_on,82,63,0
1,note_on,69,0,20
1,note_on,70,57,100
1,note_on,82,0,20
1,note_on,79,0,0
1,note_on,76,51,100
1,note_on,81,51,0
1,note_on,85,61,0
1,note_on,70,0,20
1,note_on,76,0,100
1,note_on,81,0,0
1,note_on,85,0,0
1,note_on,73,62,0
1,note_on,73,0,120
1,note_on,76,54,0
1,note_on,81,54,0
1,note_on,85,64,0
1,note_on,85,0,120
1,note_on,81,0,0
1,note_on,76,0,0
1,note_on,73,66,0
1,note_on,73,0,120
1,note_on,81,56,0
1,note_on,86,67,0
1,note_on,86,0,120
1,note_on,81,0,0
1,note_on,74,69,0
1,note_on,74,0,120
1,note_on,86,70,0
1,note_on,81,59,0
1,note_on,81,0,120
1,note_on,86,0,0
1,note_on,74,72,0
1,note_on,74,0,120
1,note_on,91,74,0
1,note_on,86,62,0
1,note_on,86,0,120
1,note_on,91,0,0
1,note_on,79,70,0
1,note_on,79,0,120
1,note_on,91,74,0
1,note_on,86,62,0
1,note_on,86,0,120
1,note_on,91,0,0
1,note_on,79,70,0
1,note_on,79,0,120
1,note_on,91,74,0
1,note_on,85,62,0
1,note_on,85,0,120
1,note_on,91,0,0
1,note_on,79,70,0
1,note_on,79,0,120
1,note_on,91,74,0
1,note_on,85,62,0
1,note_on,85,0,120
1,note_on,91,0,0
1,note_on,79,70,0
1,note_on,79,0,120
1,note_on,62,79,0
1,note_on,62,0,120
1,note_on,74,70,0
1,note_on,74,0,120
1,note_on,69,70,0
1,note_on,69,0,120
1,note_on,66,70,0
1,note_on,66,0,120
1,note_on,69,79,0
1,note_on,69,0,120
1,note_on,81,70,0
1,note_on,81,0,120
1,note_on,78,70,0
1,note_on,78,0,120
1,note_on,74,71,0
1,note_on,74,0,120
1,note_on,79,67,0
1,note_on,83,79,0
1,note_on,83,0,120
1,note_on,79,0,0
1,note_on,71,72,0
1,note_on,71,0,120
1,note_on,81,67,0
1,note_on,84,79,0
1,note_on,84,0,120
1,note_on,81,0,0
1,note_on,72,73,0
1,note_on,72,0,120
1,note_on,83,68,0
1,note_on,86,80,0
1,note_on,86,0,120
1,note_on,83,0,0
1,note_on,74,71,0
1,note_on,74,0,120
1,note_on,84,67,0
1,note_on,88,79,0
1,note_on,88,0,120
1,note_on,84,0,0
1,note_on,76,72,0
1,note_on,76,0,120
1,note_on,81,60,0
1,note_on,86,60,0
1,note_on,90,71,0
1,note_on,90,0,120
1,note_on,86,0,0
1,note_on,81,0,0
1,note_on,78,72,0
1,note_on,78,0,120
1,note_on,81,62,0
1,note_on,86,62,0
1,note_on,90,73,0
1,note_on,90,0,120
1,note_on,86,0,0
1,note_on,81,0,0
1,note_on,78,74,0
1,note_on,78,0,120
1,note_on,86,63,0
1,note_on,91,75,0
1,note_on,91,0,120
1,note_on,86,0,0
1,note_on,79,76,0
1,note_on,79,0,120
1,note_on,91,77,0
1,note_on,86,65,0
1,note_on,86,0,120
1,note_on,91,0,0
1,note_on,79,78,0
1,note_on,79,0,120
1,note_on,96,82,0
1,note_on,91,69,0
1,note_on,91,0,120
1,note_on,96,0,0
1,note_on,84,75,0
1,note_on,84,0,120
1,note_on,96,80,0
1,note_on,91,68,0
1,note_on,91,0,120
1,note_on,96,0,0
1,note_on,84,74,0
1,note_on,84,0,120
1,note_on,96,80,0
1,note_on,90,68,0
1,note_on,90,0,120
1,note_on,96,0,0
1,note_on,84,75,0
1,note_on,84,0,120
1,note_on,96,79,0
1,note_on,90,67,0
1,note_on,90,0,120
1,note_on,96,0,0
1,note_on,84,74,0
1,note_on,84,0,120
1,note_on,67,79,0
1,note_on,67,0,120
1,note_on,79,70,0
1,note_on,79,0,120
1,note_on,74,70,0
1,note_on,74,0,120
1,note_on,71,70,0
1,note_on,71,0,120
1,note_on,74,79,0
1,note_on,74,0,120
1,note_on,86,70,0
1,note_on,86,0,120
1,note_on,83,70,0
1,note_on,83,0,120
1,note_on,79,71,0
1,note_on,79,0,120
1,note_on,84,67,0
1,note_on,88,79,0
1,note_on,88,0,120
1,note_on,84,0,0
1,note_on,76,72,0
1,note_on,76,0,120
1,note_on,86,67,0
1,note_on,89,79,0
1,note_on,89,0,120
1,note_on,86,0,0
1,note_on,77,73,0
1,note_on,77,0,120
1,note_on,88,68,0
1,note_on,91,80,0
1,note_on,91,0,120
1,note_on,88,0,0
1,note_on,79,71,0
1,note_on,79,0,120
1,note_on,89,67,0
1,note_on,93,79,0
1,note_on,93,0,120
1,note_on,89,0,0
1,note_on,81,72,0
1,note_on,81,0,120
1,note_on,86,60,0
1,note_on,91,60,0
1,note_on,95,71,0
1,note_on,95,0,120
1,note_on,91,0,0
1,note_on,86,0,0
1,note_on,83,72,0
1,note_on,83,0,120
1,note_on,86,62,0
1,note_on,91,62,0
1,note_on,95,73,0
1,note_on,95,0,120
1,note_on,91,0,0
1,note_on,86,0,0
1,note_on,83,74,0
1,note_on,83,0,120
1,note_on,91,63,0
1,note_on,96,75,0
1,note_on,96,0,120
1,note_on,91,0,0
1,note_on,84,76,0
1,note_on,84,0,120
1,note_on,96,77,0
1,note_on,91,65,0
1,note_on,91,0,120
1,note_on,96,0,0
1,note_on,84,78,0
1,note_on,84,0,120
1,note_on,101,82,0
1,note_on,96,69,0
1,note_on,96,0,120
1,note_on,101,0,0
1,note_on,89,75,0
1,note_on,89,0,120
1,note_on,101,82,0
1,note_on,96,70,0
1,note_on,96,0,120
1,note_on,101,0,0
1,note_on,89,77,0
1,note_on,89,0,120
1,note_on,101,85,0
1,note_on,95,72,0
1,note_on,95,0,120
1,note_on,101,0,0
1,note_on,89,81,0
1,note_on,89,0,120
1,note_on,101,86,0
1,note_on,95,73,0
1,note_on,95,0,120
1,note_on,101,0,0
1,note_on,89,82,0
1,note_on,89,0,120
1,note_on,100,78,0
1,note_on,95,66,0
1,note_on,95,0,120
1,note_on,100,0,0
1,note_on,88,70,0
1,note_on,88,0,120
1,note_on,100,77,0
1,note_on,95,65,0
1,note_on,95,0,120
1,note_on,100,0,0
1,note_on,88,70,0
1,note_on,88,0,120
1,note_on,100,75,0
1,note_on,93,64,0
1,note_on,93,0,120
1,note_on,100,0,0
1,note_on,88,68,0
1,note_on,88,0,120
1,note_on,100,72,0
1,note_on,93,60,0
1,note_on,93,0,120
1,note_on,100,0,0
1,note_on,88,67,0
1,note_on,88,0,120
1,note_on,98,74,0
1,note_on,93,63,0
1,note_on,93,0,120
1,note_on,98,0,0
1,note_on,86,68,0
1,note_on,86,0,120
1,note_on,98,74,0
1,note_on,93,63,0
1,note_on,93,0,120
1,note_on,98,0,0
1,note_on,86,67,0
1,note_on,86,0,120
1,note_on,98,74,0
1,note_on,92,63,0
1,note_on,92,0,120
1,note_on,98,0,0
1,note_on,86,66,0
1,note_on,86,0,120
1,note_on,98,74,0
1,note_on,92,63,0
1,note_on,92,0,120
1,note_on,98,0,0
1,note_on,86,68,0
1,note_on,86,0,120
1,note_on,96,74,0
1,note_on,93,63,0
1,note_on,93,0,120
1,note_on,96,0,0
1,note_on,84,68,0
1,note_on,84,0,120
1,note_on,96,74,0
1,note_on,93,63,0
1,note_on,93,0,120
1,note_on,96,0,0
1,note_on,84,67,0
1,note_on,84,0,120
1,note_on,89,65,0
1,note_on,93,65,0
1,note_on,98,77,0
1,note_on,98,0,120
1,note_on,93,0,0
1,note_on,89,0,0
1,note_on,86,70,0
1,note_on,86,0,120
1,note_on,98,76,0
1,note_on,93,65,0
1,note_on,89,65,0
1,note_on,89,0,120
1,note_on,93,0,0
1,note_on,98,0,0
1,note_on,86,70,0
1,note_on,86,0,120
1,note_on,96,74,0
1,note_on,91,63,0
1,note_on,88,63,0
1,note_on,88,0,120
1,note_on,91,0,0
1,note_on,96,0,0
1,note_on,84,68,0
1,note_on,84,0,120
1,note_on,96,74,0
1,note_on,91,63,0
1,note_on,88,63,0
1,note_on,88,0,120
1,note_on,91,0,0
1,note_on,96,0,0
1,note_on,84,68,0
1,note_on,84,0,120
1,note_on,95,74,0
1,note_on,91,63,0
1,note_on,86,63,0
1,note_on,86,0,120
1,note_on,91,0,0
1,note_on,95,0,0
1,note_on,83,69,0
1,note_on,83,0,120
1,note_on,95,74,0
1,note_on,91,63,0
1,note_on,86,63,0
1,note_on,86,0,120
1,note_on,91,0,0
1,note_on,95,0,0
1,note_on,83,68,0
1,note_on,83,0,120
1,note_on,84,63,0
1,note_on,88,63,0
1,note_on,91,74,0
1,note_on,91,0,120
1,note_on,88,0,0
1,note_on,84,0,0
1,note_on,79,66,0
1,note_on,79,0,120
1,note_on,91,74,0
1,note_on,88,63,0
1,note_on,84,63,0
1,note_on,84,0,120
1,note_on,88,0,0
1,note_on,91,0,0
1,note_on,79,66,0
1,note_on,79,0,120
1,note_on,81,65,0
1,note_on,86,65,0
1,note_on,89,77,0
1,note_on,89,0,120
1,note_on,86,0,0
1,note_on,81,0,0
1,note_on,77,69,0
1,note_on,77,0,120
1,note_on,89,76,0
1,note_on,86,65,0
1,note_on,81,65,0
1,note_on,81,0,120
1,note_on,86,0,0
1,note_on,89,0,0
1,note_on,77,70,0
1,note_on,77,0,120
1,note_on,79,66,0
1,note_on,84,66,0
1,note_on,88,78,0
1,note_on,88,0,120
1,note_on,84,0,0
1,note_on,79,0,0
1,note_on,76,71,0
1,note_on,76,0,120
1,note_on,79,67,0
1,note_on,84,67,0
1,note_on,88,79,0
1,note_on,88,0,120
1,note_on,84,0,0
1,note_on,79,0,0
1,note_on,76,70,0
1,note_on,76,0,120
1,note_on,79,67,0
1,note_on,83,67,0
1,note_on,86,79,0
1,note_on,86,0,120
1,note_on,83,0,0
1,note_on,79,0,0
1,note_on,74,74,0
1,note_on,74,0,120
1,note_on,79,68,0
1,note_on,83,68,0
1,note_on,86,80,0
1,note_on,86,0,120
1,note_on,83,0,0
1,note_on,79,0,0
1,note_on,74,74,0
1,note_on,74,0,120
1,note_on,88,78,0
1,note_on,88,0,120
1,note_on,96,76,0
1,note_on,96,0,120
1,note_on,91,76,0
1,note_on,91,0,120
1,note_on,88,75,0
1,note_on,88,0,120
1,note_on,84,74,0
1,note_on,79,73,120
1,note_on,84,0,20
1,note_on,76,72,100
1,note_on,79,0,20
1,note_on,72,72,100
1,note_on,76,0,20
1,note_on,86,72,100
1,note_on,72,0,20
1,note_on,86,0,100
1,note_on,95,76,0
1,note_on,95,0,120
1,note_on,91,72,0
1,note_on,91,0,120
1,note_on,89,68,0
1,note_on,89,0,120
1,note_on,83,74,0
1,note_on,79,68,120
1,note_on,83,0,20
1,note_on,77,74,100
1,note_on,79,0,20
1,note_on,71,71,100
1,note_on,77,0,20
1,note_on,86,72,100
1,note_on,71,0,20
1,note_on,86,0,100
1,note_on,98,76,0
1,note_on,98,0,120
1,note_on,93,76,0
1,note_on,93,0,120
1,note_on,89,75,0
1,note_on,89,0,120
1,note_on,86,74,0
1,note_on,81,73,120
1,note_on,86,0,20
1,note_on,77,72,100
1,note_on,81,0,20
1,note_on,74,72,100
1,note_on,77,0,20
1,note_on,85,72,100
1,note_on,74,0,20
1,note_on,85,0,100
1,note_on,97,76,0
1,note_on,97,0,120
1,note_on,93,72,0
1,note_on,93,0,120
1,note_on,91,68,0
1,note_on,91,0,120
1,note_on,85,74,0
1,note_on,81,68,120
1,note_on,85,0,20
1,note_on,79,74,100
1,note_on,81,0,20
1,note_on,73,71,100
1,note_on,79,0,20
1,note_on,89,72,100
1,note_on,73,0,20
1,note_on,89,0,100
1,note_on,101,76,0
1,note_on,101,0,120
1,note_on,96,76,0
1,note_on,96,0,120
1,note_on,93,75,0
1,note_on,93,0,120
1,note_on,89,74,0
1,note_on,84,73,120
1,note_on,89,0,20
1,note_on,81,72,100
1,note_on,84,0,20
1,note_on,77,72,100
1,note_on,81,0,20
1,note_on,88,72,100
1,note_on,77,0,20
1,note_on,88,0,100
1,note_on,100,76,0
1,note_on,100,0,120
1,note_on,96,72,0
1,note_on,96,0,120
1,note_on,91,68,0
1,note_on,91,0,120
1,note_on,88,74,0
1,note_on,84,68,120
1,note_on,88,0,20
1,note_on,79,74,100
1,note_on,84,0,20
1,note_on,76,71,100
1,note_on,79,0,20
1,note_on,85,73,100
1,note_on,82,73,0
1,note_on,79,73,0
1,note_on,91,87,0
1,note_on,76,0,20
1,note_on,79,0,460
1,note_on,85,0,0
1,note_on,82,0,0
1,note_on,91,0,0
1,note_on,73,60,0
1,note_on,70,60,0
1,note_on,67,60,0
1,note_on,79,72,0
1,note_on,79,0,240
1,note_on,73,0,0
1,note_on,70,0,0
1,note_on,67,0,0
1,note_on,73,60,0
1,note_on,70,60,0
1,note_on,67,60,0
1,note_on,79,72,0
1,note_on,79,0,240
1,note_on,73,0,0
1,note_on,70,0,0
1,note_on,67,0,0
1,note_on,86,69,0
1,note_on,83,69,0
1,note_on,79,69,0
1,note_on,91,82,0
1,note_on,91,0,480
1,note_on,86,0,0
1,note_on,83,0,0
1,note_on,79,0,0
1,note_on,74,62,0
1,note_on,71,62,0
1,note_on,67,62,0
1,note_on,79,73,0
1,note_on,79,0,240
1,note_on,74,0,0
1,note_on,71,0,0
1,note_on,67,0,0
1,note_on,74,63,0
1,note_on,71,63,0
1,note_on,67,63,0
1,note_on,79,74,0
1,note_on,79,0,240
1,note_on,74,0,0
1,note_on,71,0,0
1,note_on,67,0,0
1,note_on,85,73,0
1,note_on,82,73,0
1,note_on,79,73,0
1,note_on,91,87,0
1,note_on,91,0,480
1,note_on,85,0,0
1,note_on,82,0,0
1,note_on,79,0,0
1,note_on,73,60,0
1,note_on,70,60,0
1,note_on,67,60,0
1,note_on,79,72,0
1,note_on,79,0,240
1,note_on,73,0,0
1,note_on,70,0,0
1,note_on,67,0,0
1,note_on,73,60,0
1,note_on,70,60,0
1,note_on,67,60,0
1,note_on,79,72,0
1,note_on,79,0,240
1,note_on,73,0,0
1,note_on,70,0,0
1,note_on,67,0,0
1,note_on,86,69,0
1,note_on,83,69,0
1,note_on,79,69,0
1,note_on,91,82,0
1,note_on,91,0,480
1,note_on,86,0,0
1,note_on,83,0,0
1,note_on,79,0,0
1,note_on,74,62,0
1,note_on,71,62,0
1,note_on,67,62,0
1,note_on,79,73,0
1,note_on,79,0,240
1,note_on,74,0,0
1,note_on,71,0,0
1,note_on,67,0,0
1,note_on,74,63,0
1,note_on,71,63,0
1,note_on,67,63,0
1,note_on,79,74,0
1,note_on,79,0,240
1,note_on,74,0,0
1,note_on,71,0,0
1,note_on,67,0,0
1,note_on,91,64,0
1,note_on,96,76,0
1,note_on,96,0,120
1,note_on,91,0,0
1,note_on,84,71,0
1,note_on,84,0,120
1,note_on,96,76,0
1,note_on,91,64,0
1,note_on,91,0,120
1,note_on,96,0,0
1,note_on,84,69,0
1,note_on,84,0,120
1,note_on,84,63,0
1,note_on,89,63,0
1,note_on,93,75,0
1,note_on,93,0,120
1,note_on,89,0,0
1,note_on,84,0,0
1,note_on,81,68,0
1,note_on,81,0,120
1,note_on,93,74,0
1,note_on,89,62,0
1,note_on,84,62,0
1,note_on,84,0,120
1,note_on,89,0,0
1,note_on,93,0,0
1,note_on,81,67,0
1,note_on,81,0,120
1,note_on,84,62,0
1,note_on,88,62,0
1,note_on,91,73,0
1,note_on,91,0,120
1,note_on,88,0,0
1,note_on,84,0,0
1,note_on,79,67,0
1,note_on,79,0,120
1,note_on,84,62,0
1,note_on,88,62,0
1,note_on,91,73,0
1,note_on,91,0,120
1,note_on,88,0,0
1,note_on,84,0,0
1,note_on,79,66,0
1,note_on,79,0,120
1,note_on,83,61,0
1,note_on,86,61,0
1,note_on,91,72,0
1,note_on,91,0,120
1,note_on,86,0,0
1,note_on,83,0,0
1,note_on,79,65,0
1,note_on,79,0,120
1,note_on,83,60,0
1,note_on,86,60,0
1,note_on,91,71,0
1,note_on,91,0,120
1,note_on,86,0,0
1,note_on,83,0,0
1,note_on,79,65,0
1,note_on,79,0,120
1,note_on,88,46,0
1,note_on,88,0,120
1,note_on,96,49,0
1,note_on,96,0,120
1,note_on,91,49,0
1,note_on,91,0,120
1,note_on,88,48,0
1,note_on,88,0,120
1,note_on,84,48,0
1,note_on,79,47,120
1,note_on,84,0,20
1,note_on,76,46,100
1,note_on,79,0,20
1,note_on,72,46,100
1,note_on,76,0,20
1,note_on,86,46,100
1,note_on,72,0,20
1,note_on,86,0,100
1,note_on,95,49,0
1,note_on,95,0,120
1,note_on,91,46,0
1,note_on,91,0,120
1,note_on,89,44,0
1,note_on,89,0,120
1,note_on,83,48,0
1,note_on,79,44,120
1,note_on,83,0,20
1,note_on,77,48,100
1,note_on,79,0,20
1,note_on,71,46,100
1,note_on,77,0,20
1,note_on,86,46,100
1,note_on,71,0,20
1,note_on,86,0,100
1,note_on,98,49,0
1,note_on,98,0,120
1,note_on,93,49,0
1,note_on,93,0,120
1,note_on,89,48,0
1,note_on,89,0,120
1,note_on,86,48,0
1,note_on,81,47,120
1,note_on,86,0,20
1,note_on,77,46,100
1,note_on,81,0,20
1,note_on,74,46,100
1,note_on,77,0,20
1,note_on,85,46,100
1,note_on,74,0,20
1,note_on,85,0,100
1,note_on,97,49,0
1,note_on,97,0,120
1,note_on,93,46,0
1,note_on,93,0,120
1,note_on,91,44,0
1,note_on,91,0,120
1,note_on,85,48,0
1,note_on,81,44,120
1,note_on,85,0,20
1,note_on,79,48,100
1,note_on,81,0,20
1,note_on,73,46,100
1,note_on,79,0,20
1,note_on,89,50,100
1,note_on,73,0,20
1,note_on,89,0,100
1,note_on,101,55,0
1,note_on,101,0,120
1,note_on,96,56,0
1,note_on,96,0,120
1,note_on,93,57,0
1,note_on,93,0,120
1,note_on,89,58,0
1,note_on,84,58,120
1,note_on,89,0,20
1,note_on,81,58,100
1,note_on,84,0,20
1,note_on,77,60,100
1,note_on,81,0,20
1,note_on,88,62,100
1,note_on,77,0,20
1,note_on,88,0,100
1,note_on,100,67,0
1,note_on,100,0,120
1,note_on,96,64,0
1,note_on,96,0,120
1,note_on,91,63,0
1,note_on,91,0,120
1,note_on,88,70,0
1,note_on,84,66,120
1,note_on,88,0,20
1,note_on,79,73,100
1,note_on,84,0,20
1,note_on,76,71,100
1,note_on,79,0,20
1,note_on,85,73,100
1,note_on,82,73,0
1,note_on,79,73,0
1,note_on,91,87,0
1,note_on,76,0,20
1,note_on,79,0,460
1,note_on,85,0,0
1,note_on,82,0,0
1,note_on,91,0,0
1,note_on,73,60,0
1,note_on,70,60,0
1,note_on,67,60,0
1,note_on,79,72,0
1,note_on,79,0,240
1,note_on,73,0,0
1,note_on,70,0,0
1,note_on,67,0,0
1,note_on,73,60,0
1,note_on,70,60,0
1,note_on,67,60,0
1,note_on,79,72,0
1,note_on,79,0,240
1,note_on,73,0,0
1,note_on,70,0,0
1,note_on,67,0,0
1,note_on,86,72,0
1,note_on,83,72,0
1,note_on,80,72,0
1,note_on,92,86,0
1,note_on,92,0,480
1,note_on,86,0,0
1,note_on,83,0,0
1,note_on,80,0,0
1,note_on,74,62,0
1,note_on,71,62,0
1,note_on,68,62,0
1,note_on,80,73,0
1,note_on,80,0,240
1,note_on,74,0,0
1,note_on,71,0,0
1,note_on,68,0,0
1,note_on,74,63,0
1,note_on,71,63,0
1,note_on,68,63,0
1,note_on,80,74,0
1,note_on,80,0,240
1,note_on,74,0,0
1,note_on,71,0,0
1,note_on,68,0,0
1,note_on,87,73,0
1,note_on,84,73,0
1,note_on,81,73,0
1,note_on,93,87,0
1,note_on,93,0,480
1,note_on,87,0,0
1,note_on,84,0,0
1,note_on,81,0,0
1,note_on,75,60,0
1,note_on,72,60,0
1,note_on,69,60,0
1,note_on,81,72,0
1,note_on,81,0,240
1,note_on,75,0,0
1,note_on,72,0,0
1,note_on,69,0,0
1,note_on,75,60,0
1,note_on,72,60,0
1,note_on,69,60,0
1,note_on,81,72,0
1,note_on,81,0,240
1,note_on,75,0,0
1,note_on,72,0,0
1,note_on,69,0,0
1,note_on,88,74,0
1,note_on,85,74,0
1,note_on,82,74,0
1,note_on,94,88,0
1,note_on,94,0,480
1,note_on,88,0,0
1,note_on,85,0,0
1,note_on,82,0,0
1,note_on,76,63,0
1,note_on,73,63,0
1,note_on,70,63,0
1,note_on,82,74,0
1,note_on,82,0,240
1,note_on,76,0,0
1,note_on,73,0,0
1,note_on,70,0,0
1,note_on,76,64,0
1,note_on,73,64,0
1,note_on,70,64,0
1,note_on,82,75,0
1,note_on,82,0,240
1,note_on,76,0,0
1,note_on,73,0,0
1,note_on,70,0,0
1,note_on,77,71,0
1,note_on,74,71,0
1,note_on,71,71,0
1,note_on,83,85,0
1,note_on,83,0,480
1,note_on,77,0,0
1,note_on,74,0,0
1,note_on,71,0,0
1,note_on,78,61,0
1,note_on,75,61,0
1,note_on,72,61,0
1,note_on,84,73,0
1,note_on,84,0,240
1,note_on,78,0,0
1,note_on,75,0,0
1,note_on,72,0,0
1,note_on,75,63,0
1,note_on,78,63,0
1,note_on,72,63,0
1,note_on,84,75,0
1,note_on,84,0,240
1,note_on,75,0,0
1,note_on,78,0,0
1,note_on,72,0,0
1,note_on,79,72,0
1,note_on,76,72,0
1,note_on,73,72,0
1,note_on,85,86,0
1,note_on,85,0,480
1,note_on,79,0,0
1,note_on,76,0,0
1,note_on,73,0,0
1,note_on,80,62,0
1,note_on,77,62,0
1,note_on,74,62,0
1,note_on,86,73,0
1,note_on,86,0,240
1,note_on,80,0,0
1,note_on,77,0,0
1,note_on,74,0,0
1,note_on,80,64,0
1,note_on,77,64,0
1,note_on,74,64,0
1,note_on,86,76,0
1,note_on,86,0,240
1,note_on,80,0,0
1,note_on,77,0,0
1,note_on,74,0,0
1,note_on,75,71,0
1,note_on,78,71,0
1,note_on,81,71,0
1,note_on,87,82,0
1,note_on,87,0,240
1,note_on,75,0,0
1,note_on,78,0,0
1,note_on,81,0,0
1,note_on,75,71,0
1,note_on,78,71,0
1,note_on,81,71,0
1,note_on,87,83,0
1,note_on,87,0,240
1,note_on,75,0,0
1,note_on,78,0,0
1,note_on,81,0,0
1,note_on,76,73,0
1,note_on,79,73,0
1,note_on,82,73,0
1,note_on,88,84,0
1,note_on,88,0,240
1,note_on,76,0,0
1,note_on,79,0,0
1,note_on,82,0,0
1,note_on,76,74,0
1,note_on,79,74,0
1,note_on,82,74,0
1,note_on,88,86,0
1,note_on,88,0,240
1,note_on,76,0,0
1,note_on,79,0,0
1,note_on,82,0,0
1,note_on,77,75,0
1,note_on,80,75,0
1,note_on,83,75,0
1,note_on,89,87,0
1,note_on,89,0,240
1,note_on,77,0,0
1,note_on,80,0,0
1,note_on,83,0,0
1,note_on,77,76,0
1,note_on,80,76,0
1,note_on,83,76,0
1,note_on,89,89,0
1,note_on,89,0,240
1,note_on,77,0,0
1,note_on,80,0,0
1,note_on,83,0,0
1,note_on,77,78,0
1,note_on,80,78,0
1,note_on,83,78,0
1,note_on,89,90,0
1,note_on,89,0,240
1,note_on,77,0,0
1,note_on,80,0,0
1,note_on,83,0,0
1,note_on,77,79,0
1,note_on,80,79,0
1,note_on,83,79,0
1,note_on,89,92,0
1,note_on,89,0,240
1,note_on,77,0,0
1,note_on,80,0,0
1,note_on,83,0,0
1,note_on,77,85,0
1,note_on,83,85,0
1,note_on,86,85,0
1,note_on,89,98,0
1,note_on,89,0,480
1,note_on,77,0,0
1,note_on,83,0,0
1,note_on,86,0,0
1,note_on,76,85,480
1,note_on,81,85,0
1,note_on,84,85,0
1,note_on,88,98,0
1,note_on,88,0,480
1,note_on,76,0,0
1,note_on,81,0,0
1,note_on,84,0,0
1,note_on,74,85,480
1,note_on,81,85,0
1,note_on,84,85,0
1,note_on,86,98,0
1,note_on,86,0,480
1,note_on,74,0,0
1,note_on,81,0,0
1,note_on,84,0,0
1,note_on,74,85,480
1,note_on,79,85,0
1,note_on,83,85,0
1,note_on,86,98,0
1,note_on,86,0,480
1,note_on,74,0,0
1,note_on,79,0,0
1,note_on,83,0,0
1,note_on,52,50,480
1,note_on,52,0,120
1,note_on,64,32,0
1,note_on,64,0,120
1,note_on,60,32,0
1,note_on,55,32,0
1,note_on,55,0,120
1,note_on,60,0,0
1,note_on,64,32,0
1,note_on,64,0,120
1,note_on,54,50,0
1,note_on,54,0,120
1,note_on,66,32,0
1,note_on,66,0,120
1,note_on,60,32,0
1,note_on,63,32,0
1,note_on,63,0,120
1,note_on,60,0,0
1,note_on,66,32,0
1,note_on,66,0,120
1,note_on,55,51,0
1,note_on,55,0,120
1,note_on,67,32,0
1,note_on,67,0,120
1,note_on,60,32,0
1,note_on,64,32,0
1,note_on,64,0,120
1,note_on,60,0,0
1,note_on,67,32,0
1,note_on,67,0,120
1,note_on,55,50,0
1,note_on,55,0,120
1,note_on,67,33,0
1,note_on,67,0,120
1,note_on,59,33,0
1,note_on,62,33,0
1,note_on,62,0,120
1,note_on,59,0,0
1,note_on,67,33,0
1,note_on,67,0,120
1,note_on,60,59,0
1,note_on,60,0,120
1,note_on,72,33,0
1,note_on,72,0,120
1,note_on,67,33,0
1,note_on,64,33,0
1,note_on,64,0,120
1,note_on,67,0,0
1,note_on,72,33,0
1,note_on,72,0,120
1,note_on,60,55,0
1,note_on,60,0,120
1,note_on,72,33,0
1,note_on,72,0,120
1,note_on,63,33,0
1,note_on,66,33,0
1,note_on,66,0,120
1,note_on,63,0,0
1,note_on,72,34,0
1,note_on,72,0,120
1,note_on,60,55,0
1,note_on,60,0,120
1,note_on,72,34,0
1,note_on,72,0,120
1,note_on,64,34,0
1,note_on,67,34,0
1,note_on,67,0,120
1,note_on,64,0,0
1,note_on,72,34,0
1,note_on,72,0,120
1,note_on,59,53,0
1,note_on,59,0,120
1,note_on,71,34,0
1,note_on,71,0,120
1,note_on,62,34,0
1,note_on,67,34,0
1,note_on,67,0,120
1,note_on,62,0,0
1,note_on,71,34,0
1,note_on,71,0,120
1,note_on,64,61,0
1,note_on,64,0,120
1,note_on,76,41,0
1,note_on,76,0,120
1,note_on,72,41,0
1,note_on,67,41,0
1,note_on,67,0,120
1,note_on,72,0,0
1,note_on,76,41,0
1,note_on,76,0,120
1,note_on,66,63,0
1,note_on,66,0,120
1,note_on,78,42,0
1,note_on,78,0,120
1,note_on,72,42,0
1,note_on,75,42,0
1,note_on,75,0,120
1,note_on,72,0,0
1,note_on,78,42,0
1,note_on,78,0,120
1,note_on,67,66,0
1,note_on,67,0,120
1,note_on,79,43,0
1,note_on,79,0,120
1,note_on,72,43,0
1,note_on,76,43,0
1,note_on,76,0,120
1,note_on,72,0,0
1,note_on,79,44,0
1,note_on,79,0,120
1,note_on,67,67,0
1,note_on,67,0,120
1,note_on,79,44,0
1,note_on,79,0,120
1,note_on,71,45,0
1,note_on,74,45,0
1,note_on,74,0,120
1,note_on,71,0,0
1,note_on,79,46,0
1,note_on,79,0,120
1,note_on,72,73,0
1,note_on,72,0,120
1,note_on,84,47,0
1,note_on,84,0,120
1,note_on,79,47,0
1,note_on,76,47,0
1,note_on,76,0,120
1,note_on,79,0,0
1,note_on,84,47,0
1,note_on,84,0,120
1,note_on,72,72,0
1,note_on,72,0,120
1,note_on,84,48,0
1,note_on,84,0,120
1,note_on,75,48,0
1,note_on,78,48,0
1,note_on,78,0,120
1,note_on,75,0,0
1,note_on,84,48,0
1,note_on,84,0,120
1,note_on,72,74,0
1,note_on,72,0,120
1,note_on,84,49,0
1,note_on,84,0,120
1,note_on,76,49,0
1,note_on,79,49,0
1,note_on,79,0,120
1,note_on,76,0,0
1,note_on,84,50,0
1,note_on,84,0,120
1,note_on,71,69,0
1,note_on,71,0,120
1,note_on,83,50,0
1,note_on,83,0,120
1,note_on,74,51,0
1,note_on,79,51,0
1,note_on,79,0,120
1,note_on,74,0,0
1,note_on,83,52,0
1,note_on,83,0,120
1,note_on,76,71,0
1,note_on,76,0,120
1,note_on,88,49,0
1,note_on,88,0,120
1,note_on,84,49,0
1,note_on,79,49,0
1,note_on,79,0,120
1,note_on,84,0,0
1,note_on,88,50,0
1,note_on,88,0,120
1,note_on,78,72,0
1,note_on,78,0,120
1,note_on,90,50,0
1,note_on,90,0,120
1,note_on,84,50,0
1,note_on,87,50,0
1,note_on,87,0,120
1,note_on,84,0,0
1,note_on,90,50,0
1,note_on,90,0,120
1,note_on,79,74,0
1,note_on,79,0,120
1,note_on,91,51,0
1,note_on,91,0,120
1,note_on,84,51,0
1,note_on,88,51,0
1,note_on,88,0,120
1,note_on,84,0,0
1,note_on,91,52,0
1,note_on,91,0,120
1,note_on,79,75,0
1,note_on,79,0,120
1,note_on,91,52,0
1,note_on,91,0,120
1,note_on,83,53,0
1,note_on,86,53,0
1,note_on,86,0,120
1,note_on,83,0,0
1,note_on,91,54,0
1,note_on,91,0,120
1,note_on,79,79,0
1,note_on,79,0,120
1,note_on,91,60,0
1,note_on,91,0,120
1,note_on,88,61,0
1,note_on,84,61,0
1,note_on,84,0,120
1,note_on,88,0,0
1,note_on,91,62,0
1,note_on,91,0,120
1,note_on,79,84,0
1,note_on,79,0,120
1,note_on,91,63,0
1,note_on,91,0,120
1,note_on,83,63,0
1,note_on,86,63,0
1,note_on,86,0,120
1,note_on,83,0,0
1,note_on,91,64,0
1,note_on,91,0,120
1,note_on,79,90,0
1,note_on,79,0,120
1,note_on,91,66,0
1,note_on,91,0,120
1,note_on,84,67,0
1,note_on,88,67,0
1,note_on,88,0,120
1,note_on,84,0,0
1,note_on,91,69,0
1,note_on,91,0,120
1,note_on,79,93,0
1,note_on,79,0,120
1,note_on,91,70,0
1,note_on,91,0,120
1,note_on,83,71,0
1,note_on,86,71,0
1,note_on,86,0,120
1,note_on,83,0,0
1,note_on,91,74,0
1,note_on,91,0,120
1,note_on,88,97,0
1,note_on,84,82,0
1,note_on,79,82,0
1,note_on,79,0,120
1,note_on,84,0,0
1,note_on,88,0,0
1,note_on,91,89,0
1,note_on,91,0,120
1,note_on,86,98,0
1,note_on,83,82,0
1,note_on,79,82,0
1,note_on,79,0,120
1,note_on,83,0,0
1,note_on,86,0,0
1,note_on,91,91,0
1,note_on,91,0,120
1,note_on,88,99,0
1,note_on,84,85,0
1,note_on,79,85,0
1,note_on,79,0,120
1,note_on,84,0,0
1,note_on,88,0,0
1,note_on,91,93,0
1,note_on,91,0,120
1,note_on,86,101,0
1,note_on,83,86,0
1,note_on,79,86,0
1,note_on,79,0,120
1,note_on,83,0,0
1,note_on,86,0,0
1,note_on,91,94,0
1,note_on,91,0,120
1,note_on,88,103,0
1,note_on,84,87,0
1,note_on,79,87,0
1,note_on,79,0,120
1,note_on,84,0,0
1,note_on,88,0,0
1,note_on,91,96,0
1,note_on,91,0,120
1,note_on,86,105,0
1,note_on,83,89,0
1,note_on,79,89,0
1,note_on,79,0,120
1,note_on,83,0,0
1,note_on,86,0,0
1,note_on,91,101,0
1,note_on,91,0,120
1,note_on,88,107,0
1,note_on,84,90,0
1,note_on,79,90,0
1,note_on,79,0,120
1,note_on,84,0,0
1,note_on,88,0,0
1,note_on,91,99,0
1,note_on,91,0,120
1,note_on,86,108,0
1,note_on,83,91,0
1,note_on,79,91,0
1,note_on,79,0,120
1,note_on,83,0,0
1,note_on,86,0,0
1,note_on,91,100,0
1,note_on,91,0,120
1,note_on,72,83,0
1,note_on,76,83,0
1,note_on,79,93,0
1,note_on,84,110,0
1,note_on,84,0,120
1,note_on,72,0,0
1,note_on,76,0,0
1,note_on,79,0,0
1,note_on,84,83,120
1,note_on,84,0,120
1,note_on,79,81,0
1,note_on,79,0,120
1,note_on,76,81,0
1,note_on,76,0,120
1,note_on,72,80,0
1,note_on,72,0,120
1,note_on,67,78,0
1,note_on,67,0,120
1,note_on,64,76,0
1,note_on,64,0,120
1,note_on,60,73,0
1,note_on,60,0,120
1,note_on,55,74,0
1,note_on,55,0,120
1,note_on,60,75,0
1,note_on,60,0,120
1,note_on,64,76,0
1,note_on,64,0,120
1,note_on,67,77,0
1,note_on,67,0,120
1,note_on,72,78,0
1,note_on,72,0,120
1,note_on,76,79,0
1,note_on,76,0,120
1,note_on,79,80,0
1,note_on,79,0,120
1,note_on,72,85,0
1,note_on,76,85,0
1,note_on,79,85,0
1,note_on,84,101,0
1,note_on,84,0,120
1,note_on,72,0,0
1,note_on,76,0,0
1,note_on,79,0,0
1,note_on,88,83,120
1,note_on,88,0,120
1,note_on,84,81,0
1,note_on,84,0,120
1,note_on,79,81,0
1,note_on,79,0,120
1,note_on,76,80,0
1,note_on,76,0,120
1,note_on,72,78,0
1,note_on,72,0,120
1,note_on,67,76,0
1,note_on,67,0,120
1,note_on,64,73,0
1,note_on,64,0,120
1,note_on,60,74,0
1,note_on,60,0,120
1,note_on,64,75,0
1,note_on,64,0,120
1,note_on,67,76,0
1,note_on,67,0,120
1,note_on,72,77,0
1,note_on,72,0,120
1,note_on,76,78,0
1,note_on,76,0,120
1,note_on,79,79,0
1,note_on,79,0,120
1,note_on,84,80,0
1,note_on,84,0,120
1,note_on,76,85,0
1,note_on,79,85,0
1,note_on,84,85,0
1,note_on,88,101,0
1,note_on,88,0,120
1,note_on,76,0,0
1,note_on,79,0,0
1,note_on,84,0,0
1,note_on,91,83,120
1,note_on,91,0,120
1,note_on,88,81,0
1,note_on,88,0,120
1,note_on,84,81,0
1,note_on,84,0,120
1,note_on,79,80,0
1,note_on,79,0,120
1,note_on,76,78,0
1,note_on,76,0,120
1,note_on,72,76,0
1,note_on,72,0,120
1,note_on,67,73,0
1,note_on,67,0,120
1,note_on,64,74,0
1,note_on,64,0,120
1,note_on,67,75,0
1,note_on,67,0,120
1,note_on,72,76,0
1,note_on,72,0,120
1,note_on,76,77,0
1,note_on,76,0,120
1,note_on,79,78,0
1,note_on,79,0,120
1,note_on,84,79,0
1,note_on,84,0,120
1,note_on,88,80,0
1,note_on,88,0,120
1,note_on,79,85,0
1,note_on,84,85,0
1,note_on,88,85,0
1,note_on,91,101,0
1,note_on,91,0,120
1,note_on,79,0,0
1,note_on,84,0,0
1,note_on,88,0,0
1,note_on,96,83,120
1,note_on,96,0,120
1,note_on,91,81,0
1,note_on,91,0,120
1,note_on,88,81,0
1,note_on,88,0,120
1,note_on,84,80,0
1,note_on,84,0,120
1,note_on,79,78,0
1,note_on,79,0,120
1,note_on,76,76,0
1,note_on,76,0,120
1,note_on,72,73,0
1,note_on,72,0,120
1,note_on,67,74,0
1,note_on,67,0,120
1,note_on,72,75,0
1,note_on,72,0,120
1,note_on,76,76,0
1,note_on,76,0,120
1,note_on,79,77,0
1,note_on,79,0,120
1,note_on,84,78,0
1,note_on,84,0,120
1,note_on,88,79,0
1,note_on,88,0,120
1,note_on,91,80,0
1,note_on,91,0,120
1,note_on,84,85,0
1,note_on,88,85,0
1,note_on,91,85,0
1,note_on,96,101,0
1,note_on,96,0,120
1,note_on,84,0,0
1,note_on,88,0,0
1,note_on,91,0,0
1,note_on,100,89,120
1,note_on,100,0,120
1,note_on,96,87,0
1,note_on,96,0,120
1,note_on,91,84,0
1,note_on,91,0,120
1,note_on,88,81,0
1,note_on,88,0,120
1,note_on,84,79,0
1,note_on,84,0,120
1,note_on,79,76,0
1,note_on,79,0,120
1,note_on,76,73,0
1,note_on,76,0,120
1,note_on,72,74,0
1,note_on,72,0,120
1,note_on,76,75,0
1,note_on,76,0,120
1,note_on,79,76,0
1,note_on,79,0,120
1,note_on,84,77,0
1,note_on,84,0,120
1,note_on,88,78,0
1,note_on,88,0,120
1,note_on,91,79,0
1,note_on,91,0,120
1,note_on,96,80,0
1,note_on,96,0,120
1,note_on,88,87,0
1,note_on,91,87,0
1,note_on,96,87,0
1,note_on,100,103,0
1,note_on,100,0,480
1,note_on,88,0,0
1,note_on,91,0,0
1,note_on,96,0,0
1,note_on,79,89,480
1,note_on,83,89,0
1,note_on,86,89,0
1,note_on,91,106,0
1,note_on,91,0,480
1,note_on,79,0,0
1,note_on,83,0,0
1,note_on,86,0,0
1,note_on,76,89,480
1,note_on,79,89,0
1,note_on,84,89,0
1,note_on,88,106,0
1,note_on,88,0,480
1,note_on,76,0,0
1,note_on,79,0,0
1,note_on,84,0,0
1,note_on,79,89,480
1,note_on,83,89,0
1,note_on,86,89,0
1,note_on,91,106,0
1,note_on,91,0,480
1,note_on,79,0,0
1,note_on,83,0,0
1,note_on,86,0,0
1,note_on,72,56,480
1,note_on,72,0,120
1,note_on,84,57,0
1,note_on,84,0,120
1,note_on,78,60,0
1,note_on,75,50,0
1,note_on,72,50,0
1,note_on,72,0,120
1,note_on,75,0,0
1,note_on,78,0,0
1,note_on,84,63,0
1,note_on,84,0,120
1,note_on,72,54,0
1,note_on,76,54,0
1,note_on,79,65,0
1,note_on,79,0,120
1,note_on,76,0,0
1,note_on,72,0,0
1,note_on,84,67,0
1,note_on,84,0,120
1,note_on,78,70,0
1,note_on,75,59,0
1,note_on,72,59,0
1,note_on,72,0,120
1,note_on,75,0,0
1,note_on,78,0,0
1,note_on,84,72,0
1,note_on,84,0,120
1,note_on,72,62,0
1,note_on,76,62,0
1,note_on,79,74,0
1,note_on,79,0,120
1,note_on,76,0,0
1,note_on,72,0,0
1,note_on,84,77,0
1,note_on,84,0,120
1,note_on,78,80,0
1,note_on,75,67,0
1,note_on,72,67,0
1,note_on,72,0,120
1,note_on,75,0,0
1,note_on,78,0,0
1,note_on,84,83,0
1,note_on,84,0,120
1,note_on,72,71,0
1,note_on,76,71,0
1,note_on,79,85,0
1,note_on,79,0,120
1,note_on,76,0,0
1,note_on,72,0,0
1,note_on,84,82,0
1,note_on,84,0,120
1,note_on,78,80,0
1,note_on,75,68,0
1,note_on,72,68,0
1,note_on,72,0,120
1,note_on,75,0,0
1,note_on,78,0,0
1,note_on,84,78,0
1,note_on,84,0,120
1,note_on,72,81,0
1,note_on,76,81,0
1,note_on,79,81,0
1,note_on,84,97,0
1,note_on,84,0,480
1,note_on,72,0,0
1,note_on,76,0,0
1,note_on,79,0,0
1,note_on,84,89,480
1,note_on,88,89,0
1,note_on,91,89,0
1,note_on,96,106,0
1,note_on,96,0,480
1,note_on,84,0,0
1,note_on,88,0,0
1,note_on,91,0,0
1,note_on,52,89,480
1,note_on,55,89,0
1,note_on,60,106,0
1,note_on,60,0,960
1,note_on,55,0,0
1,note_on,52,0,0
2,note_on,36,71,0
2,note_on,48,84,0
2,note_on,48,0,480
2,note_on,36,0,0
2,note_on,36,67,0
2,note_on,48,79,0
2,note_on,48,0,90
2,note_on,36,0,0
2,note_on,36,67,150
2,note_on,48,79,0
2,note_on,48,0,90
2,note_on,36,0,0
2,note_on,36,67,150
2,note_on,48,79,0
2,note_on,48,0,480
2,note_on,36,0,0
2,note_on,36,68,0
2,note_on,48,80,0
2,note_on,48,0,90
2,note_on,36,0,0
2,note_on,36,69,150
2,note_on,48,81,0
2,note_on,48,0,90
2,note_on,36,0,0
2,note_on,37,76,150
2,note_on,49,90,0
2,note_on,49,0,90
2,note_on,37,0,0
2,note_on,38,75,390
2,note_on,50,89,0
2,note_on,50,0,720
2,note_on,38,0,0
2,note_on,40,68,0
2,note_on,52,80,0
2,note_on,52,0,90
2,note_on,40,0,0
2,note_on,41,67,150
2,note_on,53,79,0
2,note_on,53,0,90
2,note_on,41,0,0
2,note_on,40,68,150
2,note_on,52,80,0
2,note_on,52,0,90
2,note_on,40,0,0
2,note_on,38,71,150
2,note_on,50,84,0
2,note_on,50,0,480
2,note_on,38,0,0
2,note_on,38,71,0
2,note_on,50,84,0
2,note_on,50,0,90
2,note_on,38,0,0
2,note_on,38,68,150
2,note_on,50,80,0
2,note_on,50,0,90
2,note_on,38,0,0
2,note_on,38,68,150
2,note_on,50,80,0
2,note_on,50,0,480
2,note_on,38,0,0
2,note_on,38,69,0
2,note_on,50,81,0
2,note_on,50,0,90
2,note_on,38,0,0
2,note_on,38,69,150
2,note_on,50,81,0
2,note_on,50,0,90
2,note_on,38,0,0
2,note_on,39,76,150
2,note_on,51,90,0
2,note_on,51,0,90
2,note_on,39,0,0
2,note_on,40,75,390
2,note_on,52,89,0
2,note_on,52,0,720
2,note_on,40,0,0
2,note_on,42,80,0
2,note_on,54,80,0
2,note_on,54,0,90
2,note_on,42,0,0
2,note_on,43,68,150
2,note_on,55,80,0
2,note_on,55,0,90
2,note_on,43,0,0
2,note_on,45,69,150
2,note_on,57,82,0
2,note_on,57,0,90
2,note_on,45,0,0
2,note_on,46,78,150
2,note_on,58,93,0
2,note_on,58,0,480
2,note_on,46,0,0
2,note_on,46,71,0
2,note_on,58,84,0
2,note_on,58,0,90
2,note_on,46,0,0
2,note_on,46,71,150
2,note_on,58,84,0
2,note_on,58,0,90
2,note_on,46,0,0
2,note_on,37,79,150
2,note_on,49,94,0
2,note_on,49,0,720
2,note_on,37,0,0
2,note_on,37,73,0
2,note_on,49,86,0
2,note_on,49,0,90
2,note_on,37,0,0
2,note_on,45,79,150
2,note_on,57,94,0
2,note_on,57,0,480
2,note_on,45,0,0
2,note_on,45,71,0
2,note_on,57,84,0
2,note_on,57,0,90
2,note_on,45,0,0
2,note_on,45,72,150
2,note_on,57,85,0
2,note_on,57,0,90
2,note_on,45,0,0
2,note_on,36,79,150
2,note_on,48,94,0
2,note_on,48,0,720
2,note_on,36,0,0
2,note_on,36,72,0
2,note_on,48,85,0
2,note_on,48,0,90
2,note_on,36,0,0
2,note_on,35,72,150
2,note_on,47,85,0
2,note_on,47,0,90
2,note_on,35,0,0
2,note_on,38,72,150
2,note_on,50,86,0
2,note_on,50,0,90
2,note_on,38,0,0
2,note_on,43,75,150
2,note_on,55,90,0
2,note_on,55,0,90
2,note_on,43,0,0
2,note_on,41,72,150
2,note_on,53,85,0
2,note_on,53,0,90
2,note_on,41,0,0
2,note_on,40,73,150
2,note_on,52,86,0
2,note_on,52,0,90
2,note_on,40,0,0
2,note_on,36,70,150
2,note_on,48,82,0
2,note_on,48,0,90
2,note_on,36,0,0
2,note_on,35,70,150
2,note_on,47,82,0
2,note_on,47,0,90
2,note_on,35,0,0
2,note_on,33,69,150
2,note_on,45,81,0
2,note_on,45,0,90
2,note_on,33,0,0
2,note_on,41,71,150
2,note_on,53,84,0
2,note_on,53,0,480
2,note_on,41,0,0
2,note_on,40,69,0
2,note_on,52,81,0
2,note_on,52,0,480
2,note_on,40,0,0
2,note_on,38,71,0
2,note_on,50,84,0
2,note_on,50,0,960
2,note_on,38,0,0
2,note_on,36,65,0
2,note_on,48,77,0
2,note_on,48,0,1200
2,note_on,36,0,0
2,note_on,38,61,0
2,note_on,50,73,0
2,note_on,50,0,90
2,note_on,38,0,0
2,note_on,40,61,150
2,note_on,52,73,0
2,note_on,52,0,90
2,note_on,40,0,0
2,note_on,41,61,150
2,note_on,53,73,0
2,note_on,53,0,90
2,note_on,41,0,0
2,note_on,40,65,150
2,note_on,52,77,0
2,note_on,52,0,90
2,note_on,40,0,0
2,note_on,38,63,150
2,note_on,50,74,0
2,note_on,50,0,90
2,note_on,38,0,0
2,note_on,36,63,150
2,note_on,48,74,0
2,note_on,48,0,90
2,note_on,36,0,0
2,note_on,35,63,150
2,note_on,47,74,0
2,note_on,47,0,90
2,note_on,35,0,0
2,note_on,33,67,150
2,note_on,45,79,0
2,note_on,45,0,720
2,note_on,33,0,0
2,note_on,40,64,0
2,note_on,52,75,0
2,note_on,52,0,90
2,note_on,40,0,0
2,note_on,41,65,150
2,note_on,53,77,0
2,note_on,53,0,1200
2,note_on,41,0,0
2,note_on,40,61,0
2,note_on,52,73,0
2,note_on,52,0,90
2,note_on,40,0,0
2,note_on,41,61,150
2,note_on,53,73,0
2,note_on,53,0,90
2,note_on,41,0,0
2,note_on,43,61,150
2,note_on,55,73,0
2,note_on,55,0,90
2,note_on,43,0,0
2,note_on,42,65,150
2,note_on,54,77,0
2,note_on,54,0,90
2,note_on,42,0,0
2,note_on,40,63,150
2,note_on,52,74,0
2,note_on,52,0,90
2,note_on,40,0,0
2,note_on,38,63,150
2,note_on,50,74,0
2,note_on,50,0,90
2,note_on,38,0,0
2,note_on,37,63,150
2,note_on,49,74,0
2,note_on,49,0,90
2,note_on,37,0,0
2,note_on,35,67,150
2,note_on,47,79,0
2,note_on,47,0,720
2,note_on,35,0,0
2,note_on,33,59,0
2,note_on,45,71,0
2,note_on,45,0,90
2,note_on,33,0,0
2,note_on,32,60,150
2,note_on,44,73,0
2,note_on,44,0,90
2,note_on,32,0,0
2,note_on,35,57,150
2,note_on,47,68,0
2,note_on,47,0,90
2,note_on,35,0,0
2,note_on,32,60,150
2,note_on,44,73,0
2,note_on,44,0,90
2,note_on,32,0,0
2,note_on,35,55,150
2,note_on,47,66,0
2,note_on,47,0,90
2,note_on,35,0,0
2,note_on,41,65,150
2,note_on,53,77,0
2,note_on,53,0,90
2,note_on,41,0,0
2,note_on,41,64,150
2,note_on,53,75,0
2,note_on,53,0,720
2,note_on,41,0,0
2,note_on,31,60,0
2,note_on,43,73,0
2,note_on,43,0,90
2,note_on,31,0,0
2,note_on,34,57,150
2,note_on,46,68,0
2,note_on,46,0,90
2,note_on,34,0,0
2,note_on,31,60,150
2,note_on,43,73,0
2,note_on,43,0,90
2,note_on,31,0,0
2,note_on,34,55,150
2,note_on,46,66,0
2,note_on,46,0,90
2,note_on,34,0,0
2,note_on,40,65,150
2,note_on,52,77,0
2,note_on,52,0,90
2,note_on,40,0,0
2,note_on,40,64,150
2,note_on,52,75,0
2,note_on,52,0,720
2,note_on,40,0,0
2,note_on,38,64,0
2,note_on,50,75,0
2,note_on,50,0,480
2,note_on,38,0,0
2,note_on,30,59,0
2,note_on,42,71,0
2,note_on,42,0,480
2,note_on,30,0,0
2,note_on,31,58,0
2,note_on,43,69,0
2,note_on,43,0,90
2,note_on,31,0,0
2,note_on,33,59,150
2,note_on,45,71,0
2,note_on,45,0,90
2,note_on,33,0,0
2,note_on,35,61,150
2,note_on,47,73,0
2,note_on,47,0,90
2,note_on,35,0,0
2,note_on,36,64,150
2,note_on,48,75,0
2,note_on,48,0,90
2,note_on,36,0,0
2,note_on,38,65,150
2,note_on,50,77,0
2,note_on,50,0,90
2,note_on,38,0,0
2,note_on,42,64,150
2,note_on,54,75,0
2,note_on,54,0,90
2,note_on,42,0,0
2,note_on,43,65,150
2,note_on,55,76,0
2,note_on,55,0,960
2,note_on,43,0,0
2,note_on,42,64,0
2,note_on,54,75,0
2,note_on,54,0,480
2,note_on,42,0,0
2,note_on,41,64,0
2,note_on,53,75,0
2,note_on,53,0,480
2,note_on,41,0,0
2,note_on,40,63,0
2,note_on,52,74,0
2,note_on,52,0,480
2,note_on,40,0,0
2,note_on,38,60,0
2,note_on,50,72,0
2,note_on,50,0,960
2,note_on,38,0,0
2,note_on,48,65,0
2,note_on,52,77,0
2,note_on,52,0,1200
2,note_on,48,0,0
2,note_on,52,61,0
2,note_on,55,73,0
2,note_on,55,0,90
2,note_on,52,0,0
2,note_on,53,61,150
2,note_on,57,73,0
2,note_on,57,0,90
2,note_on,53,0,0
2,note_on,55,61,150
2,note_on,58,73,0
2,note_on,58,0,90
2,note_on,55,0,0
2,note_on,53,65,150
2,note_on,57,77,0
2,note_on,57,0,90
2,note_on,53,0,0
2,note_on,52,63,150
2,note_on,55,74,0
2,note_on,55,0,90
2,note_on,52,0,0
2,note_on,50,63,150
2,note_on,53,74,0
2,note_on,53,0,90
2,note_on,50,0,0
2,note_on,45,63,150
2,note_on,52,74,0
2,note_on,52,0,90
2,note_on,45,0,0
2,note_on,41,67,150
2,note_on,50,79,0
2,note_on,50,0,720
2,note_on,41,0,0
2,note_on,45,64,0
2,note_on,49,75,0
2,note_on,49,0,90
2,note_on,45,0,0
2,note_on,46,65,150
2,note_on,50,77,0
2,note_on,50,0,1200
2,note_on,46,0,0
2,note_on,50,61,0
2,note_on,58,73,0
2,note_on,58,0,90
2,note_on,50,0,0
2,note_on,58,61,150
2,note_on,62,73,0
2,note_on,62,0,90
2,note_on,58,0,0
2,note_on,57,61,150
2,note_on,60,73,0
2,note_on,60,0,90
2,note_on,57,0,0
2,note_on,55,65,150
2,note_on,59,77,0
2,note_on,59,0,90
2,note_on,55,0,0
2,note_on,54,63,150
2,note_on,57,74,0
2,note_on,57,0,90
2,note_on,54,0,0
2,note_on,52,63,150
2,note_on,55,74,0
2,note_on,55,0,90
2,note_on,52,0,0
2,note_on,47,63,150
2,note_on,54,74,0
2,note_on,54,0,90
2,note_on,47,0,0
2,note_on,43,67,150
2,note_on,52,79,0
2,note_on,52,0,720
2,note_on,43,0,0
2,note_on,41,56,0
2,note_on,50,67,0
2,note_on,50,0,90
2,note_on,41,0,0
2,note_on,40,57,150
2,note_on,49,69,0
2,note_on,49,0,90
2,note_on,40,0,0
2,note_on,43,54,150
2,note_on,52,65,0
2,note_on,52,0,90
2,note_on,43,0,0
2,note_on,40,57,150
2,note_on,49,69,0
2,note_on,49,0,90
2,note_on,40,0,0
2,note_on,43,52,150
2,note_on,52,63,0
2,note_on,52,0,90
2,note_on,43,0,0
2,note_on,55,59,150
2,note_on,58,72,0
2,note_on,58,0,90
2,note_on,55,0,0
2,note_on,55,58,150
2,note_on,58,70,0
2,note_on,58,0,720
2,note_on,55,0,0
2,note_on,39,57,0
2,note_on,48,69,0
2,note_on,48,0,90
2,note_on,39,0,0
2,note_on,42,54,150
2,note_on,51,65,0
2,note_on,51,0,90
2,note_on,42,0,0
2,note_on,39,57,150
2,note_on,48,69,0
2,note_on,48,0,90
2,note_on,39,0,0
2,note_on,42,52,150
2,note_on,51,63,0
2,note_on,51,0,90
2,note_on,42,0,0
2,note_on,54,59,150
2,note_on,57,72,0
2,note_on,57,0,90
2,note_on,54,0,0
2,note_on,54,58,150
2,note_on,57,70,0
2,note_on,57,0,720
2,note_on,54,0,0
2,note_on,55,71,0
2,note_on,55,0,480
2,note_on,47,55,0
2,note_on,50,66,0
2,note_on,50,0,480
2,note_on,47,0,0
2,note_on,48,55,0
2,note_on,52,65,0
2,note_on,52,0,90
2,note_on,48,0,0
2,note_on,50,56,150
2,note_on,53,68,0
2,note_on,53,0,90
2,note_on,50,0,0
2,note_on,52,59,150
2,note_on,55,70,0
2,note_on,55,0,90
2,note_on,52,0,0
2,note_on,53,61,150
2,note_on,57,73,0
2,note_on,57,0,90
2,note_on,53,0,0
2,note_on,50,65,150
2,note_on,55,77,0
2,note_on,55,0,90
2,note_on,59,75,150
2,note_on,59,0,90
2,note_on,50,0,150
2,note_on,48,77,0
2,note_on,60,76,0
2,note_on,48,0,90
2,note_on,52,75,150
2,note_on,52,0,90
2,note_on,55,65,150
2,note_on,60,0,480
2,note_on,59,75,0
2,note_on,59,0,480
2,note_on,55,0,0
2,note_on,36,81,0
2,note_on,48,96,0
2,note_on,48,0,480
2,note_on,36,0,0
2,note_on,36,77,0
2,note_on,48,91,0
2,note_on,48,0,90
2,note_on,36,0,0
2,note_on,36,77,150
2,note_on,48,91,0
2,note_on,48,0,90
2,note_on,36,0,0
2,note_on,36,77,150
2,note_on,48,91,0
2,note_on,48,0,480
2,note_on,36,0,0
2,note_on,36,78,0
2,note_on,48,92,0
2,note_on,48,0,90
2,note_on,36,0,0
2,note_on,36,79,150
2,note_on,48,93,0
2,note_on,48,0,90
2,note_on,36,0,0
2,note_on,37,85,150
2,note_on,49,100,0
2,note_on,49,0,90
2,note_on,37,0,0
2,note_on,38,81,390
2,note_on,50,99,0
2,note_on,50,0,720
2,note_on,38,0,0
2,note_on,40,78,0
2,note_on,52,92,0
2,note_on,52,0,90
2,note_on,40,0,0
2,note_on,41,77,150
2,note_on,53,91,0
2,note_on,53,0,90
2,note_on,41,0,0
2,note_on,40,78,150
2,note_on,52,92,0
2,note_on,52,0,90
2,note_on,40,0,0
2,note_on,38,81,150
2,note_on,50,96,0
2,note_on,50,0,480
2,note_on,38,0,0
2,note_on,38,81,0
2,note_on,50,96,0
2,note_on,50,0,90
2,note_on,38,0,0
2,note_on,38,78,150
2,note_on,50,92,0
2,note_on,50,0,90
2,note_on,38,0,0
2,note_on,38,78,150
2,note_on,50,92,0
2,note_on,50,0,480
2,note_on,38,0,0
2,note_on,38,79,0
2,note_on,50,93,0
2,note_on,50,0,90
2,note_on,38,0,0
2,note_on,38,79,150
2,note_on,50,93,0
2,note_on,50,0,90
2,note_on,38,0,0
2,note_on,39,85,150
2,note_on,51,100,0
2,note_on,51,0,90
2,note_on,39,0,0
2,note_on,40,80,390
2,note_on,52,99,0
2,note_on,52,0,720
2,note_on,40,0,0
2,note_on,42,92,0
2,note_on,54,92,0
2,note_on,54,0,90
2,note_on,42,0,0
2,note_on,43,77,150
2,note_on,55,91,0
2,note_on,55,0,90
2,note_on,43,0,0
2,note_on,45,78,150
2,note_on,57,92,0
2,note_on,57,0,90
2,note_on,45,0,0
2,note_on,46,87,150
2,note_on,58,103,0
2,note_on,58,0,480
2,note_on,46,0,0
2,note_on,46,78,0
2,note_on,58,92,0
2,note_on,58,0,90
2,note_on,46,0,0
2,note_on,46,78,150
2,note_on,58,92,0
2,note_on,58,0,90
2,note_on,46,0,0
2,note_on,37,85,150
2,note_on,49,100,0
2,note_on,49,0,720
2,note_on,37,0,0
2,note_on,37,80,0
2,note_on,49,94,0
2,note_on,49,0,90
2,note_on,37,0,0
2,note_on,45,85,150
2,note_on,57,100,0
2,note_on,57,0,480
2,note_on,45,0,0
2,note_on,45,76,0
2,note_on,57,90,0
2,note_on,57,0,90
2,note_on,45,0,0
2,note_on,45,77,150
2,note_on,57,91,0
2,note_on,57,0,90
2,note_on,45,0,0
2,note_on,36,83,150
2,note_on,48,98,0
2,note_on,48,0,720
2,note_on,36,0,0
2,note_on,36,77,0
2,note_on,48,91,0
2,note_on,48,0,90
2,note_on,36,0,0
2,note_on,35,79,150
2,note_on,47,93,0
2,note_on,47,0,90
2,note_on,35,0,0
2,note_on,38,80,150
2,note_on,50,94,0
2,note_on,50,0,90
2,note_on,38,0,0
2,note_on,43,84,150
2,note_on,55,100,0
2,note_on,55,0,90
2,note_on,43,0,0
2,note_on,41,80,150
2,note_on,53,94,0
2,note_on,53,0,90
2,note_on,41,0,0
2,note_on,40,81,150
2,note_on,52,96,0
2,note_on,52,0,90
2,note_on,40,0,0
2,note_on,36,79,150
2,note_on,48,93,0
2,note_on,48,0,90
2,note_on,36,0,0
2,note_on,35,79,150
2,note_on,47,93,0
2,note_on,47,0,90
2,note_on,35,0,0
2,note_on,33,79,150
2,note_on,45,93,0
2,note_on,45,0,90
2,note_on,33,0,0
2,note_on,41,81,150
2,note_on,53,96,0
2,note_on,53,0,480
2,note_on,41,0,0
2,note_on,40,79,0
2,note_on,52,93,0
2,note_on,52,0,480
2,note_on,40,0,0
2,note_on,38,81,0
2,note_on,50,96,0
2,note_on,50,0,960
2,note_on,38,0,0
2,note_on,49,80,0
2,note_on,61,96,0
2,note_on,61,0,423
2,note_on,49,0,0
2,note_on,49,77,0
2,note_on,61,92,0
2,note_on,61,0,112
2,note_on,49,0,0
2,note_on,49,74,120
2,note_on,61,88,0
2,note_on,61,0,120
2,note_on,49,0,0
2,note_on,40,77,120
2,note_on,52,92,0
2,note_on,52,0,920
2,note_on,40,0,0
2,note_on,62,96,0
2,note_on,50,80,0
2,note_on,50,0,423
2,note_on,62,0,0
2,note_on,50,77,0
2,note_on,62,92,0
2,note_on,62,0,114
2,note_on,50,0,0
2,note_on,50,74,120
2,note_on,62,88,0
2,note_on,62,0,120
2,note_on,50,0,0
2,note_on,41,77,120
2,note_on,53,92,0
2,note_on,53,0,920
2,note_on,41,0,0
2,note_on,49,80,0
2,note_on,61,96,0
2,note_on,61,0,423
2,note_on,49,0,0
2,note_on,49,77,0
2,note_on,61,92,0
2,note_on,61,0,116
2,note_on,49,0,0
2,note_on,49,74,120
2,note_on,61,88,0
2,note_on,61,0,120
2,note_on,49,0,0
2,note_on,40,77,120
2,note_on,52,92,0
2,note_on,52,0,920
2,note_on,40,0,0
2,note_on,62,96,0
2,note_on,50,80,0
2,note_on,50,0,423
2,note_on,62,0,0
2,note_on,50,77,0
2,note_on,62,92,0
2,note_on,62,0,84
2,note_on,50,0,0
2,note_on,50,74,150
2,note_on,62,88,0
2,note_on,62,0,90
2,note_on,50,0,0
2,note_on,41,77,150
2,note_on,53,92,0
2,note_on,53,0,920
2,note_on,41,0,0
2,note_on,40,58,0
2,note_on,52,69,0
2,note_on,52,0,411
2,note_on,40,0,0
2,note_on,38,62,0
2,note_on,50,73,0
2,note_on,50,0,423
2,note_on,38,0,0
2,note_on,37,66,0
2,note_on,49,79,0
2,note_on,49,0,423
2,note_on,37,0,0
2,note_on,38,70,0
2,note_on,50,84,0
2,note_on,50,0,394
2,note_on,38,0,0
2,note_on,59,88,0
2,note_on,55,74,0
2,note_on,55,0,423
2,note_on,59,0,0
2,note_on,55,74,0
2,note_on,59,88,0
2,note_on,59,0,240
2,note_on,55,0,0
2,note_on,55,71,0
2,note_on,59,84,0
2,note_on,59,0,240
2,note_on,55,0,0
2,note_on,43,74,0
2,note_on,52,88,0
2,note_on,52,0,889
2,note_on,43,0,0
2,note_on,59,88,0
2,note_on,55,74,0
2,note_on,55,0,423
2,note_on,59,0,0
2,note_on,55,74,0
2,note_on,59,88,0
2,note_on,59,0,240
2,note_on,55,0,0
2,note_on,55,71,0
2,note_on,59,84,0
2,note_on,59,0,240
2,note_on,55,0,0
2,note_on,43,74,0
2,note_on,51,88,0
2,note_on,51,0,889
2,note_on,43,0,0
2,note_on,59,88,0
2,note_on,55,74,0
2,note_on,55,0,423
2,note_on,59,0,0
2,note_on,55,74,0
2,note_on,59,88,0
2,note_on,59,0,240
2,note_on,55,0,0
2,note_on,55,71,0
2,note_on,59,84,0
2,note_on,59,0,240
2,note_on,55,0,0
2,note_on,43,74,0
2,note_on,52,88,0
2,note_on,52,0,889
2,note_on,43,0,0
2,note_on,59,92,0
2,note_on,55,77,0
2,note_on,55,0,423
2,note_on,59,0,0
2,note_on,55,77,0
2,note_on,59,92,0
2,note_on,59,0,240
2,note_on,55,0,0
2,note_on,55,74,0
2,note_on,59,88,0
2,note_on,59,0,240
2,note_on,55,0,0
2,note_on,43,77,0
2,note_on,53,92,0
2,note_on,53,0,889
2,note_on,43,0,0
2,note_on,43,71,0
2,note_on,55,84,0
2,note_on,55,0,411
2,note_on,43,0,0
2,note_on,42,64,0
2,note_on,54,77,0
2,note_on,54,0,423
2,note_on,42,0,0
2,note_on,41,77,0
2,note_on,53,90,0
2,note_on,53,0,423
2,note_on,41,0,0
2,note_on,42,72,0
2,note_on,54,86,0
2,note_on,54,0,394
2,note_on,42,0,0
2,note_on,47,78,0
2,note_on,47,0,57
2,note_on,59,68,0
2,note_on,59,0,120
2,note_on,62,69,0
2,note_on,62,0,120
2,note_on,59,69,0
2,note_on,59,0,120
2,note_on,54,79,0
2,note_on,54,0,120
2,note_on,59,71,0
2,note_on,59,0,120
2,note_on,50,75,0
2,note_on,50,0,120
2,note_on,54,71,0
2,note_on,54,0,120
2,note_on,42,78,0
2,note_on,42,0,46
2,note_on,54,68,0
2,note_on,54,0,120
2,note_on,58,73,0
2,note_on,58,0,120
2,note_on,54,67,0
2,note_on,54,0,120
2,note_on,49,74,0
2,note_on,49,0,120
2,note_on,54,65,0
2,note_on,54,0,120
2,note_on,46,71,0
2,note_on,46,0,120
2,note_on,49,65,0
2,note_on,49,0,120
2,note_on,45,78,0
2,note_on,45,0,46
2,note_on,57,68,0
2,note_on,57,0,120
2,note_on,61,69,0
2,note_on,61,0,120
2,note_on,57,69,0
2,note_on,57,0,120
2,note_on,52,79,0
2,note_on,52,0,120
2,note_on,57,71,0
2,note_on,57,0,120
2,note_on,49,75,0
2,note_on,49,0,120
2,note_on,52,71,0
2,note_on,52,0,120
2,note_on,40,78,0
2,note_on,40,0,17
2,note_on,52,68,0
2,note_on,52,0,120
2,note_on,56,73,0
2,note_on,56,0,120
2,note_on,52,67,0
2,note_on,52,0,120
2,note_on,47,74,0
2,note_on,47,0,120
2,note_on,52,65,0
2,note_on,52,0,120
2,note_on,44,71,0
2,note_on,44,0,120
2,note_on,47,65,0
2,note_on,47,0,120
2,note_on,43,71,0
2,note_on,43,0,35
2,note_on,55,61,0
2,note_on,55,0,120
2,note_on,59,62,0
2,note_on,59,0,120
2,note_on,55,62,0
2,note_on,55,0,120
2,note_on,50,71,0
2,note_on,50,0,120
2,note_on,55,63,0
2,note_on,55,0,120
2,note_on,47,66,0
2,note_on,47,0,120
2,note_on,50,62,0
2,note_on,50,0,120
2,note_on,38,69,0
2,note_on,38,0,23
2,note_on,50,59,0
2,note_on,50,0,120
2,note_on,54,58,0
2,note_on,54,0,120
2,note_on,57,57,0
2,note_on,57,0,120
2,note_on,43,63,0
2,note_on,43,0,28
2,note_on,47,55,0
2,note_on,47,0,120
2,note_on,55,55,0
2,note_on,55,0,120
2,note_on,59,54,0
2,note_on,59,0,120
2,note_on,38,66,0
2,note_on,38,0,76
2,note_on,50,57,0
2,note_on,50,0,120
2,note_on,55,57,0
2,note_on,55,0,120
2,note_on,57,57,0
2,note_on,57,0,120
2,note_on,38,65,0
2,note_on,38,0,51
2,note_on,50,58,0
2,note_on,50,0,120
2,note_on,54,61,0
2,note_on,54,0,120
2,note_on,57,57,0
2,note_on,57,0,120
2,note_on,31,63,0
2,note_on,31,0,52
2,note_on,43,54,0
2,note_on,43,0,120
2,note_on,47,53,0
2,note_on,47,0,120
2,note_on,50,53,0
2,note_on,50,0,120
2,note_on,55,58,0
2,note_on,55,0,120
2,note_on,50,50,0
2,note_on,50,0,120
2,note_on,47,50,0
2,note_on,47,0,120
2,note_on,43,50,0
2,note_on,43,0,120
2,note_on,31,63,0
2,note_on,31,0,28
2,note_on,55,55,0
2,note_on,55,0,120
2,note_on,59,56,0
2,note_on,59,0,120
2,note_on,55,56,0
2,note_on,55,0,120
2,note_on,50,64,0
2,note_on,50,0,120
2,note_on,55,57,0
2,note_on,55,0,120
2,note_on,47,61,0
2,note_on,47,0,120
2,note_on,50,57,0
2,note_on,50,0,120
2,note_on,38,63,0
2,note_on,38,0,17
2,note_on,50,55,0
2,note_on,50,0,120
2,note_on,54,59,0
2,note_on,54,0,120
2,note_on,50,54,0
2,note_on,50,0,120
2,note_on,45,60,0
2,note_on,45,0,120
2,note_on,50,52,0
2,note_on,50,0,120
2,note_on,42,57,0
2,note_on,42,0,120
2,note_on,45,52,0
2,note_on,45,0,120
2,note_on,41,63,0
2,note_on,41,0,7
2,note_on,53,55,0
2,note_on,53,0,120
2,note_on,57,56,0
2,note_on,57,0,120
2,note_on,53,56,0
2,note_on,53,0,120
2,note_on,48,64,0
2,note_on,48,0,120
2,note_on,53,57,0
2,note_on,53,0,120
2,note_on,45,61,0
2,note_on,45,0,120
2,note_on,48,57,0
2,note_on,48,0,120
2,note_on,36,63,0
2,note_on,36,0,21
2,note_on,48,55,0
2,note_on,48,0,120
2,note_on,52,59,0
2,note_on,52,0,120
2,note_on,48,54,0
2,note_on,48,0,120
2,note_on,43,60,0
2,note_on,43,0,120
2,note_on,48,52,0
2,note_on,48,0,120
2,note_on,40,57,0
2,note_on,40,0,120
2,note_on,43,52,0
2,note_on,43,0,120
2,note_on,40,60,0
2,note_on,40,0,45
2,note_on,52,51,0
2,note_on,52,0,120
2,note_on,55,52,0
2,note_on,55,0,120
2,note_on,52,52,0
2,note_on,52,0,120
2,note_on,47,60,0
2,note_on,47,0,120
2,note_on,52,53,0
2,note_on,52,0,120
2,note_on,43,56,0
2,note_on,43,0,120
2,note_on,47,52,0
2,note_on,47,0,120
2,note_on,35,58,0
2,note_on,35,0,23
2,note_on,47,50,0
2,note_on,47,0,120
2,note_on,51,49,0
2,note_on,51,0,120
2,note_on,54,48,0
2,note_on,54,0,120
2,note_on,40,53,0
2,note_on,40,0,34
2,note_on,47,46,0
2,note_on,47,0,120
2,note_on,52,46,0
2,note_on,52,0,120
2,note_on,55,45,0
2,note_on,55,0,120
2,note_on,35,56,0
2,note_on,35,0,28
2,note_on,47,48,0
2,note_on,47,0,120
2,note_on,52,48,0
2,note_on,52,0,120
2,note_on,54,48,0
2,note_on,54,0,120
2,note_on,35,55,0
2,note_on,35,0,28
2,note_on,47,49,0
2,note_on,47,0,120
2,note_on,51,51,0
2,note_on,51,0,120
2,note_on,54,48,0
2,note_on,54,0,120
2,note_on,40,53,0
2,note_on,40,0,110
2,note_on,52,45,0
2,note_on,52,0,120
2,note_on,55,45,0
2,note_on,55,0,120
2,note_on,59,45,0
2,note_on,59,0,120
2,note_on,64,49,0
2,note_on,64,0,120
2,note_on,59,42,0
2,note_on,59,0,120
2,note_on,55,42,0
2,note_on,55,0,120
2,note_on,52,42,0
2,note_on,52,0,120
2,note_on,60,49,0
2,note_on,64,59,0
2,note_on,64,0,90
2,note_on,60,0,0
2,note_on,59,48,150
2,note_on,62,56,0
2,note_on,62,0,90
2,note_on,59,0,0
2,note_on,57,48,150
2,note_on,60,56,0
2,note_on,60,0,90
2,note_on,57,0,0
2,note_on,52,48,150
2,note_on,59,56,0
2,note_on,59,0,90
2,note_on,52,0,0
2,note_on,48,51,150
2,note_on,57,60,0
2,note_on,57,0,720
2,note_on,48,0,0
2,note_on,55,48,0
2,note_on,65,57,0
2,note_on,65,0,90
2,note_on,55,0,0
2,note_on,54,49,150
2,note_on,66,59,0
2,note_on,66,0,90
2,note_on,54,0,0
2,note_on,61,48,150
2,note_on,64,56,0
2,note_on,64,0,90
2,note_on,61,0,0
2,note_on,59,48,150
2,note_on,62,56,0
2,note_on,62,0,90
2,note_on,59,0,0
2,note_on,54,48,150
2,note_on,61,56,0
2,note_on,61,0,90
2,note_on,54,0,0
2,note_on,50,51,150
2,note_on,59,60,0
2,note_on,59,0,720
2,note_on,50,0,0
2,note_on,48,48,0
2,note_on,57,57,0
2,note_on,57,0,90
2,note_on,48,0,0
2,note_on,47,49,150
2,note_on,56,59,0
2,note_on,56,0,90
2,note_on,47,0,0
2,note_on,50,46,150
2,note_on,59,55,0
2,note_on,59,0,90
2,note_on,50,0,0
2,note_on,47,49,150
2,note_on,56,59,0
2,note_on,56,0,90
2,note_on,47,0,0
2,note_on,50,44,150
2,note_on,59,53,0
2,note_on,59,0,90
2,note_on,50,0,0
2,note_on,62,59,150
2,note_on,65,70,0
2,note_on,65,0,90
2,note_on,62,0,0
2,note_on,62,57,150
2,note_on,65,68,0
2,note_on,65,0,720
2,note_on,62,0,0
2,note_on,46,49,0
2,note_on,55,59,0
2,note_on,55,0,90
2,note_on,46,0,0
2,note_on,49,46,150
2,note_on,58,55,0
2,note_on,58,0,90
2,note_on,49,0,0
2,note_on,46,49,150
2,note_on,55,59,0
2,note_on,55,0,90
2,note_on,46,0,0
2,note_on,49,44,150
2,note_on,58,53,0
2,note_on,58,0,90
2,note_on,49,0,0
2,note_on,61,59,150
2,note_on,64,70,0
2,note_on,64,0,90
2,note_on,61,0,0
2,note_on,61,56,150
2,note_on,64,67,0
2,note_on,64,0,720
2,note_on,61,0,0
2,note_on,45,49,0
2,note_on,54,59,0
2,note_on,54,0,90
2,note_on,45,0,0
2,note_on,48,46,150
2,note_on,57,55,0
2,note_on,57,0,90
2,note_on,48,0,0
2,note_on,60,52,150
2,note_on,63,59,0
2,note_on,63,0,480
2,note_on,60,0,0
2,note_on,44,49,0
2,note_on,53,59,0
2,note_on,53,0,90
2,note_on,44,0,0
2,note_on,47,46,150
2,note_on,56,55,0
2,note_on,56,0,90
2,note_on,47,0,0
2,note_on,59,52,150
2,note_on,62,59,0
2,note_on,62,0,480
2,note_on,59,0,0
2,note_on,43,46,0
2,note_on,52,56,0
2,note_on,52,0,90
2,note_on,43,0,0
2,note_on,46,43,150
2,note_on,55,51,0
2,note_on,55,0,90
2,note_on,46,0,0
2,note_on,58,47,150
2,note_on,61,54,0
2,note_on,61,0,480
2,note_on,58,0,0
2,note_on,42,43,0
2,note_on,51,51,0
2,note_on,51,0,90
2,note_on,42,0,0
2,note_on,45,39,150
2,note_on,54,47,0
2,note_on,54,0,90
2,note_on,45,0,0
2,note_on,57,43,150
2,note_on,60,49,0
2,note_on,60,0,480
2,note_on,57,0,0
2,note_on,32,38,0
2,note_on,32,0,69
2,note_on,44,36,0
2,note_on,44,0,120
2,note_on,32,39,0
2,note_on,32,0,120
2,note_on,44,36,0
2,note_on,44,0,120
2,note_on,32,41,0
2,note_on,32,0,120
2,note_on,44,38,0
2,note_on,44,0,120
2,note_on,32,42,0
2,note_on,32,0,120
2,note_on,44,39,0
2,note_on,44,0,120
2,note_on,32,44,0
2,note_on,32,0,120
2,note_on,44,41,0
2,note_on,44,0,120
2,note_on,32,45,0
2,note_on,32,0,120
2,note_on,44,44,0
2,note_on,44,0,120
2,note_on,32,47,0
2,note_on,32,0,120
2,note_on,44,44,0
2,note_on,44,0,120
2,note_on,32,48,0
2,note_on,32,0,120
2,note_on,44,47,0
2,note_on,44,0,120
2,note_on,45,56,0
2,note_on,45,0,69
2,note_on,46,53,0
2,note_on,46,0,120
2,note_on,47,54,0
2,note_on,47,0,120
2,note_on,48,55,0
2,note_on,48,0,120
2,note_on,49,57,0
2,note_on,49,0,120
2,note_on,50,59,0
2,note_on,50,0,120
2,note_on,51,60,0
2,note_on,51,0,120
2,note_on,52,61,0
2,note_on,52,0,120
2,note_on,53,63,0
2,note_on,53,0,120
2,note_on,54,65,0
2,note_on,54,0,120
2,note_on,55,67,0
2,note_on,55,0,120
2,note_on,56,68,0
2,note_on,56,0,120
2,note_on,44,61,0
2,note_on,56,72,0
2,note_on,56,0,112
2,note_on,44,0,0
2,note_on,44,62,120
2,note_on,56,73,0
2,note_on,56,0,120
2,note_on,44,0,0
2,note_on,44,63,120
2,note_on,56,75,0
2,note_on,56,0,120
2,note_on,44,0,0
2,note_on,56,65,120
2,note_on,68,77,0
2,note_on,68,0,229
2,note_on,56,0,0
2,note_on,56,68,0
2,note_on,68,80,0
2,note_on,68,0,240
2,note_on,56,0,0
2,note_on,56,70,0
2,note_on,68,83,0
2,note_on,68,0,240
2,note_on,56,0,0
2,note_on,56,73,0
2,note_on,68,87,0
2,note_on,68,0,240
2,note_on,56,0,0
2,note_on,56,75,0
2,note_on,68,90,0
2,note_on,68,0,240
2,note_on,56,0,0
2,note_on,56,78,0
2,note_on,68,93,0
2,note_on,68,0,111
2,note_on,56,0,0
2,note_on,56,81,120
2,note_on,68,96,0
2,note_on,68,0,120
2,note_on,56,0,0
2,note_on,55,87,120
2,note_on,67,102,0
2,note_on,67,0,172
2,note_on,55,0,0
2,note_on,31,81,12
2,note_on,43,97,0
2,note_on,43,0,228
2,note_on,31,0,0
2,note_on,31,81,12
2,note_on,43,97,0
2,note_on,43,0,228
2,note_on,31,0,0
2,note_on,31,81,12
2,note_on,43,97,0
2,note_on,43,0,228
2,note_on,31,0,0
2,note_on,31,81,12
2,note_on,43,97,0
2,note_on,43,0,228
2,note_on,31,0,0
2,note_on,31,81,12
2,note_on,43,97,0
2,note_on,43,0,228
2,note_on,31,0,0
2,note_on,31,81,12
2,note_on,43,97,0
2,note_on,43,0,228
2,note_on,31,0,0
2,note_on,31,81,12
2,note_on,43,97,0
2,note_on,43,0,228
2,note_on,31,0,0
2,note_on,36,85,0
2,note_on,48,100,0
2,note_on,48,0,411
2,note_on,36,0,0
2,note_on,36,79,0
2,note_on,48,95,0
2,note_on,48,0,90
2,note_on,36,0,0
2,note_on,36,79,150
2,note_on,48,95,0
2,note_on,48,0,90
2,note_on,36,0,0
2,note_on,36,79,150
2,note_on,48,95,0
2,note_on,48,0,480
2,note_on,36,0,0
2,note_on,36,81,0
2,note_on,48,96,0
2,note_on,48,0,87
2,note_on,36,0,0
2,note_on,36,82,150
2,note_on,48,97,0
2,note_on,48,0,90
2,note_on,36,0,0
2,note_on,37,89,150
2,note_on,49,105,0
2,note_on,49,0,67
2,note_on,37,0,0
2,note_on,38,86,390
2,note_on,50,102,0
2,note_on,50,0,651
2,note_on,38,0,0
2,note_on,40,81,0
2,note_on,52,96,0
2,note_on,52,0,39
2,note_on,40,0,0
2,note_on,41,79,150
2,note_on,53,95,0
2,note_on,53,0,39
2,note_on,41,0,0
2,note_on,40,81,150
2,note_on,52,96,0
2,note_on,52,0,90
2,note_on,40,0,0
2,note_on,38,85,0
2,note_on,50,100,0
2,note_on,50,0,416
2,note_on,38,0,0
2,note_on,38,85,0
2,note_on,50,100,0
2,note_on,50,0,90
2,note_on,38,0,0
2,note_on,38,81,150
2,note_on,50,96,0
2,note_on,50,0,90
2,note_on,38,0,0
2,note_on,38,81,150
2,note_on,50,96,0
2,note_on,50,0,480
2,note_on,38,0,0
2,note_on,38,82,0
2,note_on,50,97,0
2,note_on,50,0,12
2,note_on,38,0,0
2,note_on,38,82,150
2,note_on,50,97,0
2,note_on,50,0,90
2,note_on,38,0,0
2,note_on,39,89,150
2,note_on,51,105,0
2,note_on,51,0,61
2,note_on,39,0,0
2,note_on,40,86,390
2,note_on,52,102,0
2,note_on,52,0,651
2,note_on,40,0,0
2,note_on,42,93,0
2,note_on,54,93,0
2,note_on,54,0,61
2,note_on,42,0,0
2,note_on,43,77,150
2,note_on,55,92,0
2,note_on,55,0,44
2,note_on,43,0,0
2,note_on,45,79,150
2,note_on,57,93,0
2,note_on,57,0,90
2,note_on,45,0,0
2,note_on,46,86,0
2,note_on,58,101,0
2,note_on,58,0,409
2,note_on,46,0,0
2,note_on,46,79,0
2,note_on,58,93,0
2,note_on,58,0,73
2,note_on,46,0,0
2,note_on,46,79,150
2,note_on,58,93,0
2,note_on,58,0,90
2,note_on,46,0,0
2,note_on,37,82,150
2,note_on,49,97,0
2,note_on,49,0,909
2,note_on,37,0,0
2,note_on,45,84,0
2,note_on,57,98,0
2,note_on,57,0,420
2,note_on,45,0,0
2,note_on,45,77,0
2,note_on,57,91,0
2,note_on,57,0,61
2,note_on,45,0,0
2,note_on,45,78,150
2,note_on,57,92,0
2,note_on,57,0,90
2,note_on,45,0,0
2,note_on,36,80,150
2,note_on,48,95,0
2,note_on,48,0,914
2,note_on,36,0,0
2,note_on,35,79,0
2,note_on,47,93,0
2,note_on,47,0,90
2,note_on,35,0,0
2,note_on,38,80,150
2,note_on,50,94,0
2,note_on,50,0,90
2,note_on,38,0,0
2,note_on,43,84,150
2,note_on,55,99,0
2,note_on,55,0,90
2,note_on,43,0,0
2,note_on,41,80,150
2,note_on,53,94,0
2,note_on,53,0,90
2,note_on,41,0,0
2,note_on,40,81,150
2,note_on,52,96,0
2,note_on,52,0,26
2,note_on,40,0,0
2,note_on,36,79,150
2,note_on,48,93,0
2,note_on,48,0,85
2,note_on,36,0,0
2,note_on,35,79,141
2,note_on,47,93,0
2,note_on,47,0,70
2,note_on,35,0,0
2,note_on,33,79,113
2,note_on,45,93,0
2,note_on,45,0,5
2,note_on,33,0,0
2,note_on,41,87,0
2,note_on,41,0,26
2,note_on,53,88,30
2,note_on,53,0,90
2,note_on,41,89,30
2,note_on,41,0,90
2,note_on,53,91,30
2,note_on,53,0,90
2,note_on,40,92,30
2,note_on,40,0,79
2,note_on,52,93,21
2,note_on,52,0,90
2,note_on,40,94,30
2,note_on,40,0,90
2,note_on,52,96,30
2,note_on,52,0,90
2,note_on,38,97,30
2,note_on,38,0,83
2,note_on,50,94,21
2,note_on,50,0,90
2,note_on,38,97,30
2,note_on,38,0,90
2,note_on,50,92,30
2,note_on,50,0,90
2,note_on,43,97,30
2,note_on,43,0,41
2,note_on,55,92,30
2,note_on,55,0,90
2,note_on,43,92,30
2,note_on,43,0,90
2,note_on,55,92,30
2,note_on,55,0,90
2,note_on,44,82,0
2,note_on,56,101,0
2,note_on,56,0,330
2,note_on,44,0,0
2,note_on,32,78,30
2,note_on,44,92,0
2,note_on,44,0,90
2,note_on,32,0,0
2,note_on,32,73,30
2,note_on,44,86,0
2,note_on,44,0,1440
2,note_on,32,0,0
2,note_on,31,34,0
2,note_on,31,0,42
2,note_on,43,34,0
2,note_on,43,0,120
2,note_on,31,35,0
2,note_on,31,0,120
2,note_on,43,35,0
2,note_on,43,0,120
2,note_on,31,36,0
2,note_on,31,0,120
2,note_on,43,36,0
2,note_on,43,0,120
2,note_on,31,37,0
2,note_on,31,0,120
2,note_on,43,37,0
2,note_on,43,0,120
2,note_on,31,38,0
2,note_on,31,0,120
2,note_on,43,38,0
2,note_on,43,0,120
2,note_on,31,39,0
2,note_on,31,0,120
2,note_on,43,39,0
2,note_on,43,0,120
2,note_on,31,40,0
2,note_on,31,0,120
2,note_on,43,40,0
2,note_on,43,0,120
2,note_on,31,41,0
2,note_on,31,0,120
2,note_on,43,41,0
2,note_on,43,0,120
2,note_on,43,46,0
2,note_on,43,0,88
2,note_on,55,43,0
2,note_on,55,0,120
2,note_on,43,45,0
2,note_on,43,0,120
2,note_on,55,47,0
2,note_on,55,0,120
2,note_on,43,49,0
2,note_on,43,0,120
2,note_on,55,51,0
2,note_on,55,0,120
2,note_on,43,53,0
2,note_on,43,0,120
2,note_on,55,56,0
2,note_on,55,0,120
2,note_on,55,57,0
2,note_on,55,0,71
2,note_on,67,59,0
2,note_on,67,0,120
2,note_on,55,61,0
2,note_on,55,0,120
2,note_on,67,63,0
2,note_on,67,0,120
2,note_on,55,65,0
2,note_on,55,0,120
2,note_on,67,68,0
2,note_on,67,0,120
2,note_on,55,70,0
2,note_on,55,0,120
2,note_on,67,72,0
2,note_on,67,0,120
2,note_on,65,85,0
2,note_on,53,72,0
2,note_on,53,0,293
2,note_on,65,0,0
2,note_on,62,83,0
2,note_on,50,71,0
2,note_on,50,0,267
2,note_on,62,0,0
2,note_on,67,86,0
2,note_on,55,73,0
2,note_on,55,0,320
2,note_on,67,0,0
2,note_on,43,70,0
2,note_on,55,82,0
2,note_on,55,0,320
2,note_on,43,0,0
2,note_on,44,82,0
2,note_on,56,99,0
2,note_on,56,0,330
2,note_on,44,0,0
2,note_on,32,79,30
2,note_on,44,94,0
2,note_on,44,0,90
2,note_on,32,0,0
2,note_on,32,70,30
2,note_on,44,83,0
2,note_on,44,0,1440
2,note_on,32,0,0
2,note_on,31,34,0
2,note_on,31,0,42
2,note_on,43,34,0
2,note_on,43,0,120
2,note_on,31,35,0
2,note_on,31,0,120
2,note_on,43,35,0
2,note_on,43,0,120
2,note_on,31,36,0
2,note_on,31,0,120
2,note_on,43,36,0
2,note_on,43,0,120
2,note_on,31,37,0
2,note_on,31,0,120
2,note_on,43,37,0
2,note_on,43,0,120
2,note_on,31,38,0
2,note_on,31,0,120
2,note_on,43,38,0
2,note_on,43,0,120
2,note_on,31,39,0
2,note_on,31,0,120
2,note_on,43,39,0
2,note_on,43,0,120
2,note_on,31,40,0
2,note_on,31,0,120
2,note_on,43,40,0
2,note_on,43,0,120
2,note_on,31,41,0
2,note_on,31,0,120
2,note_on,43,41,0
2,note_on,43,0,120
2,note_on,43,46,0
2,note_on,43,0,90
2,note_on,55,43,0
2,note_on,55,0,120
2,note_on,43,45,0
2,note_on,43,0,120
2,note_on,55,47,0
2,note_on,55,0,120
2,note_on,43,49,0
2,note_on,43,0,120
2,note_on,55,51,0
2,note_on,55,0,120
2,note_on,43,53,0
2,note_on,43,0,120
2,note_on,55,56,0
2,note_on,55,0,120
2,note_on,55,57,0
2,note_on,55,0,71
2,note_on,67,59,0
2,note_on,67,0,120
2,note_on,55,61,0
2,note_on,55,0,120
2,note_on,67,63,0
2,note_on,67,0,120
2,note_on,55,65,0
2,note_on,55,0,120
2,note_on,67,68,0
2,note_on,67,0,120
2,note_on,55,70,0
2,note_on,55,0,120
2,note_on,67,72,0
2,note_on,67,0,120
2,note_on,29,72,0
2,note_on,41,86,0
2,note_on,41,0,298
2,note_on,29,0,0
2,note_on,41,64,0
2,note_on,53,75,0
2,note_on,53,0,90
2,note_on,41,0,0
2,note_on,41,65,30
2,note_on,53,76,0
2,note_on,53,0,310
2,note_on,41,0,0
2,note_on,31,72,0
2,note_on,43,86,0
2,note_on,43,0,236
2,note_on,31,0,0
2,note_on,43,63,0
2,note_on,55,74,0
2,note_on,55,0,90
2,note_on,43,0,0
2,note_on,43,63,30
2,note_on,55,74,0
2,note_on,55,0,207
2,note_on,43,0,0
2,note_on,33,76,0
2,note_on,45,90,0
2,note_on,45,0,269
2,note_on,33,0,0
2,note_on,45,65,0
2,note_on,57,76,0
2,note_on,57,0,90
2,note_on,45,0,0
2,note_on,45,65,30
2,note_on,57,76,0
2,note_on,57,0,246
2,note_on,45,0,0
2,note_on,34,76,0
2,note_on,46,91,0
2,note_on,46,0,234
2,note_on,34,0,0
2,note_on,46,65,0
2,note_on,58,77,0
2,note_on,58,0,90
2,note_on,46,0,0
2,note_on,46,67,30
2,note_on,58,79,0
2,note_on,58,0,223
2,note_on,46,0,0
2,note_on,44,75,0
2,note_on,56,89,0
2,note_on,56,0,306
2,note_on,44,0,0
2,note_on,32,64,0
2,note_on,44,75,0
2,note_on,44,0,90
2,note_on,32,0,0
2,note_on,32,73,30
2,note_on,44,87,0
2,note_on,44,0,228
2,note_on,32,0,0
2,note_on,43,72,0
2,note_on,55,86,0
2,note_on,55,0,265
2,note_on,43,0,0
2,note_on,31,63,0
2,note_on,43,74,0
2,note_on,43,0,90
2,note_on,31,0,0
2,note_on,31,72,30
2,note_on,43,86,0
2,note_on,43,0,174
2,note_on,31,0,0
2,note_on,43,70,0
2,note_on,55,82,0
2,note_on,55,0,246
2,note_on,43,0,0
2,note_on,31,64,0
2,note_on,43,76,0
2,note_on,43,0,90
2,note_on,31,0,0
2,note_on,31,74,30
2,note_on,43,88,0
2,note_on,43,0,272
2,note_on,31,0,0
2,note_on,43,72,0
2,note_on,55,85,0
2,note_on,55,0,240
2,note_on,43,0,0
2,note_on,31,66,0
2,note_on,43,78,0
2,note_on,43,0,90
2,note_on,31,0,0
2,note_on,31,77,30
2,note_on,43,92,0
2,note_on,43,0,291
2,note_on,31,0,0
2,note_on,35,42,0
2,note_on,47,50,0
2,note_on,47,0,90
2,note_on,35,0,0
2,note_on,38,43,150
2,note_on,50,51,0
2,note_on,50,0,90
2,note_on,38,0,0
2,note_on,43,45,150
2,note_on,55,53,0
2,note_on,55,0,90
2,note_on,43,0,0
2,note_on,41,43,150
2,note_on,53,51,0
2,note_on,53,0,90
2,note_on,41,0,0
2,note_on,40,44,150
2,note_on,52,52,0
2,note_on,52,0,90
2,note_on,40,0,0
2,note_on,36,42,150
2,note_on,48,50,0
2,note_on,48,0,90
2,note_on,36,0,0
2,note_on,35,42,150
2,note_on,47,50,0
2,note_on,47,0,90
2,note_on,35,0,0
2,note_on,33,42,150
2,note_on,45,50,0
2,note_on,45,0,90
2,note_on,33,0,0
2,note_on,41,54,150
2,note_on,41,0,69
2,note_on,53,56,0
2,note_on,53,0,120
2,note_on,41,57,0
2,note_on,41,0,120
2,note_on,53,59,0
2,note_on,53,0,120
2,note_on,40,60,0
2,note_on,40,0,63
2,note_on,52,62,0
2,note_on,52,0,120
2,note_on,40,63,0
2,note_on,40,0,120
2,note_on,52,65,0
2,note_on,52,0,120
2,note_on,38,66,0
2,note_on,38,0,40
2,note_on,50,66,0
2,note_on,50,0,120
2,note_on,38,67,0
2,note_on,38,0,120
2,note_on,50,68,0
2,note_on,50,0,120
2,note_on,32,69,0
2,note_on,32,0,120
2,note_on,44,69,0
2,note_on,44,0,120
2,note_on,32,70,0
2,note_on,32,0,120
2,note_on,44,71,0
2,note_on,44,0,120
2,note_on,33,50,0
2,note_on,45,60,0
2,note_on,45,0,90
2,note_on,33,0,0
2,note_on,40,51,150
2,note_on,52,61,0
2,note_on,52,0,90
2,note_on,40,0,0
2,note_on,45,54,150
2,note_on,57,63,0
2,note_on,57,0,90
2,note_on,45,0,0
2,note_on,43,51,150
2,note_on,55,61,0
2,note_on,55,0,90
2,note_on,43,0,0
2,note_on,41,52,150
2,note_on,53,62,0
2,note_on,53,0,90
2,note_on,41,0,0
2,note_on,38,50,150
2,note_on,50,60,0
2,note_on,50,0,90
2,note_on,38,0,0
2,note_on,36,50,150
2,note_on,48,60,0
2,note_on,48,0,90
2,note_on,36,0,0
2,note_on,34,50,150
2,note_on,46,60,0
2,note_on,46,0,90
2,note_on,34,0,0
2,note_on,43,61,150
2,note_on,43,0,69
2,note_on,55,62,0
2,note_on,55,0,120
2,note_on,43,64,0
2,note_on,43,0,120
2,note_on,55,66,0
2,note_on,55,0,120
2,note_on,41,67,0
2,note_on,41,0,63
2,note_on,53,69,0
2,note_on,53,0,120
2,note_on,41,71,0
2,note_on,41,0,120
2,note_on,53,73,0
2,note_on,53,0,120
2,note_on,40,76,0
2,note_on,40,0,40
2,note_on,52,72,0
2,note_on,52,0,120
2,note_on,40,76,0
2,note_on,40,0,120
2,note_on,52,71,0
2,note_on,52,0,120
2,note_on,33,76,0
2,note_on,33,0,120
2,note_on,45,72,0
2,note_on,45,0,120
2,note_on,33,76,0
2,note_on,33,0,120
2,note_on,45,71,0
2,note_on,45,0,120
2,note_on,38,71,0
2,note_on,50,84,0
2,note_on,50,0,166
2,note_on,38,0,0
2,note_on,45,65,0
2,note_on,57,77,0
2,note_on,57,0,11
2,note_on,45,0,0
2,note_on,50,72,0
2,note_on,62,85,0
2,note_on,62,0,90
2,note_on,50,0,0
2,note_on,48,64,150
2,note_on,60,76,0
2,note_on,60,0,90
2,note_on,48,0,0
2,note_on,47,69,150
2,note_on,59,82,0
2,note_on,59,0,229
2,note_on,47,0,0
2,note_on,43,62,0
2,note_on,55,74,0
2,note_on,55,0,6
2,note_on,43,0,0
2,note_on,42,63,0
2,note_on,54,75,0
2,note_on,54,0,90
2,note_on,42,0,0
2,note_on,40,63,150
2,note_on,52,75,0
2,note_on,52,0,90
2,note_on,40,0,0
2,note_on,48,66,150
2,note_on,48,0,69
2,note_on,60,67,0
2,note_on,60,0,120
2,note_on,48,68,0
2,note_on,48,0,120
2,note_on,60,69,0
2,note_on,60,0,120
2,note_on,47,71,0
2,note_on,47,0,63
2,note_on,59,72,0
2,note_on,59,0,120
2,note_on,47,73,0
2,note_on,47,0,120
2,note_on,59,74,0
2,note_on,59,0,120
2,note_on,45,75,0
2,note_on,45,0,40
2,note_on,57,73,0
2,note_on,57,0,120
2,note_on,45,78,0
2,note_on,45,0,120
2,note_on,57,71,0
2,note_on,57,0,120
2,note_on,38,78,0
2,note_on,38,0,120
2,note_on,50,70,0
2,note_on,50,0,120
2,note_on,38,76,0
2,note_on,38,0,120
2,note_on,50,70,0
2,note_on,50,0,120
2,note_on,43,71,0
2,note_on,55,84,0
2,note_on,55,0,166
2,note_on,43,0,0
2,note_on,50,65,0
2,note_on,62,77,0
2,note_on,62,0,240
2,note_on,50,0,0
2,note_on,55,72,0
2,note_on,67,85,0
2,note_on,67,0,191
2,note_on,55,0,0
2,note_on,53,64,0
2,note_on,65,76,0
2,note_on,65,0,240
2,note_on,53,0,0
2,note_on,52,69,0
2,note_on,64,82,0
2,note_on,64,0,198
2,note_on,52,0,0
2,note_on,48,62,0
2,note_on,60,74,0
2,note_on,60,0,6
2,note_on,48,0,0
2,note_on,47,63,0
2,note_on,59,75,0
2,note_on,59,0,176
2,note_on,47,0,0
2,note_on,45,63,0
2,note_on,57,75,0
2,note_on,57,0,240
2,note_on,45,0,0
2,note_on,53,66,0
2,note_on,53,0,35
2,note_on,65,67,0
2,note_on,65,0,120
2,note_on,53,68,0
2,note_on,53,0,120
2,note_on,65,69,0
2,note_on,65,0,120
2,note_on,52,71,0
2,note_on,52,0,64
2,note_on,64,72,0
2,note_on,64,0,120
2,note_on,52,73,0
2,note_on,52,0,120
2,note_on,64,74,0
2,note_on,64,0,120
2,note_on,50,75,0
2,note_on,50,0,40
2,note_on,62,73,0
2,note_on,62,0,120
2,note_on,50,80,0
2,note_on,50,0,120
2,note_on,62,74,0
2,note_on,62,0,120
2,note_on,43,83,0
2,note_on,43,0,120
2,note_on,55,75,0
2,note_on,55,0,120
2,note_on,43,83,0
2,note_on,43,0,120
2,note_on,55,78,0
2,note_on,55,0,120
2,note_on,48,64,0
2,note_on,48,0,80
2,note_on,60,54,0
2,note_on,60,0,120
2,note_on,48,64,0
2,note_on,48,0,120
2,note_on,60,53,0
2,note_on,60,0,120
2,note_on,41,64,0
2,note_on,41,0,34
2,note_on,53,55,0
2,note_on,53,0,120
2,note_on,41,64,0
2,note_on,41,0,120
2,note_on,53,54,0
2,note_on,53,0,120
2,note_on,47,64,0
2,note_on,47,0,74
2,note_on,59,54,0
2,note_on,59,0,120
2,note_on,47,64,0
2,note_on,47,0,120
2,note_on,59,54,0
2,note_on,59,0,120
2,note_on,40,64,0
2,note_on,40,0,46
2,note_on,52,53,0
2,note_on,52,0,120
2,note_on,40,64,0
2,note_on,40,0,120
2,note_on,52,55,0
2,note_on,52,0,120
2,note_on,41,64,0
2,note_on,41,0,35
2,note_on,53,56,0
2,note_on,53,0,120
2,note_on,41,64,0
2,note_on,41,0,120
2,note_on,53,54,0
2,note_on,53,0,120
2,note_on,50,67,0
2,note_on,45,56,0
2,note_on,41,56,0
2,note_on,41,0,28
2,note_on,45,0,0
2,note_on,50,0,0
2,note_on,53,59,0
2,note_on,53,0,120
2,note_on,41,56,0
2,note_on,45,56,0
2,note_on,50,67,0
2,note_on,50,0,120
2,note_on,45,0,0
2,note_on,41,0,0
2,note_on,53,57,0
2,note_on,53,0,120
2,note_on,43,53,0
2,note_on,48,53,0
2,note_on,52,64,0
2,note_on,52,0,42
2,note_on,48,0,0
2,note_on,43,0,0
2,note_on,55,57,0
2,note_on,55,0,120
2,note_on,43,53,0
2,note_on,48,53,0
2,note_on,52,64,0
2,note_on,52,0,120
2,note_on,48,0,0
2,note_on,43,0,0
2,note_on,55,56,0
2,note_on,55,0,120
2,note_on,43,53,0
2,note_on,47,53,0
2,note_on,50,64,0
2,note_on,50,0,21
2,note_on,47,0,0
2,note_on,43,0,0
2,note_on,55,57,0
2,note_on,55,0,120
2,note_on,43,53,0
2,note_on,47,53,0
2,note_on,50,64,0
2,note_on,50,0,120
2,note_on,47,0,0
2,note_on,43,0,0
2,note_on,55,57,0
2,note_on,55,0,120
2,note_on,60,64,0
2,note_on,55,53,0
2,note_on,52,53,0
2,note_on,52,0,42
2,note_on,55,0,0
2,note_on,60,0,0
2,note_on,64,55,0
2,note_on,64,0,120
2,note_on,60,64,0
2,note_on,55,53,0
2,note_on,52,53,0
2,note_on,52,0,120
2,note_on,55,0,0
2,note_on,60,0,0
2,note_on,64,55,0
2,note_on,64,0,120
2,note_on,62,67,0
2,note_on,57,56,0
2,note_on,53,56,0
2,note_on,53,0,35
2,note_on,57,0,0
2,note_on,62,0,0
2,note_on,65,58,0
2,note_on,65,0,120
2,note_on,62,67,0
2,note_on,57,56,0
2,note_on,53,56,0
2,note_on,53,0,120
2,note_on,57,0,0
2,note_on,62,0,0
2,note_on,65,56,0
2,note_on,65,0,120
2,note_on,64,71,0
2,note_on,60,59,0
2,note_on,55,59,0
2,note_on,55,0,28
2,note_on,60,0,0
2,note_on,64,0,0
2,note_on,67,61,0
2,note_on,67,0,120
2,note_on,64,70,0
2,note_on,60,58,0
2,note_on,55,58,0
2,note_on,55,0,120
2,note_on,60,0,0
2,note_on,64,0,0
2,note_on,67,59,0
2,note_on,67,0,120
2,note_on,65,71,0
2,note_on,62,59,0
2,note_on,55,59,0
2,note_on,55,0,35
2,note_on,62,0,0
2,note_on,65,0,0
2,note_on,67,64,0
2,note_on,67,0,120
2,note_on,65,74,0
2,note_on,62,63,0
2,note_on,55,63,0
2,note_on,55,0,120
2,note_on,62,0,0
2,note_on,65,0,0
2,note_on,67,63,0
2,note_on,67,0,120
2,note_on,36,70,0
2,note_on,48,82,0
2,note_on,48,0,411
2,note_on,36,0,0
2,note_on,40,60,0
2,note_on,52,72,0
2,note_on,52,0,69
2,note_on,40,0,0
2,note_on,40,60,150
2,note_on,52,72,0
2,note_on,52,0,90
2,note_on,40,0,0
2,note_on,43,66,150
2,note_on,55,78,0
2,note_on,55,0,395
2,note_on,43,0,0
2,note_on,31,62,0
2,note_on,43,73,0
2,note_on,43,0,54
2,note_on,31,0,0
2,note_on,31,63,150
2,note_on,43,74,0
2,note_on,43,0,90
2,note_on,31,0,0
2,note_on,38,67,150
2,note_on,50,79,0
2,note_on,50,0,411
2,note_on,38,0,0
2,note_on,41,60,0
2,note_on,53,72,0
2,note_on,53,0,69
2,note_on,41,0,0
2,note_on,41,60,150
2,note_on,53,72,0
2,note_on,53,0,90
2,note_on,41,0,0
2,note_on,45,66,150
2,note_on,57,78,0
2,note_on,57,0,395
2,note_on,45,0,0
2,note_on,33,62,0
2,note_on,45,73,0
2,note_on,45,0,67
2,note_on,33,0,0
2,note_on,33,63,150
2,note_on,45,74,0
2,note_on,45,0,90
2,note_on,33,0,0
2,note_on,41,67,150
2,note_on,53,79,0
2,note_on,53,0,411
2,note_on,41,0,0
2,note_on,45,60,0
2,note_on,57,72,0
2,note_on,57,0,69
2,note_on,45,0,0
2,note_on,45,60,150
2,note_on,57,72,0
2,note_on,57,0,90
2,note_on,45,0,0
2,note_on,48,66,150
2,note_on,60,78,0
2,note_on,60,0,395
2,note_on,48,0,0
2,note_on,36,62,0
2,note_on,48,73,0
2,note_on,48,0,90
2,note_on,36,0,0
2,note_on,36,63,150
2,note_on,48,74,0
2,note_on,48,0,90
2,note_on,36,0,0
2,note_on,40,71,150
2,note_on,46,64,63
2,note_on,40,0,20
2,note_on,49,64,100
2,note_on,46,0,20
2,note_on,52,64,100
2,note_on,49,0,20
2,note_on,52,71,100
2,note_on,52,0,20
2,note_on,58,66,100
2,note_on,52,0,20
2,note_on,61,66,100
2,note_on,58,0,20
2,note_on,64,66,100
2,note_on,61,0,20
2,note_on,41,71,100
2,note_on,64,0,9
2,note_on,47,65,40
2,note_on,41,0,20
2,note_on,50,66,100
2,note_on,47,0,20
2,note_on,53,66,100
2,note_on,50,0,20
2,note_on,53,71,100
2,note_on,53,0,20
2,note_on,59,65,100
2,note_on,53,0,20
2,note_on,62,65,100
2,note_on,59,0,20
2,note_on,65,65,100
2,note_on,62,0,20
2,note_on,40,71,29
2,note_on,65,0,20
2,note_on,46,64,34
2,note_on,40,0,20
2,note_on,49,64,100
2,note_on,46,0,20
2,note_on,52,64,100
2,note_on,49,0,20
2,note_on,52,71,100
2,note_on,52,0,20
2,note_on,58,66,100
2,note_on,52,0,20
2,note_on,61,66,100
2,note_on,58,0,20
2,note_on,64,66,100
2,note_on,61,0,20
2,note_on,41,71,100
2,note_on,64,0,9
2,note_on,47,65,26
2,note_on,41,0,20
2,note_on,50,66,100
2,note_on,47,0,20
2,note_on,53,66,100
2,note_on,50,0,20
2,note_on,53,71,100
2,note_on,53,0,20
2,note_on,59,65,100
2,note_on,53,0,20
2,note_on,62,65,100
2,note_on,59,0,20
2,note_on,65,65,100
2,note_on,62,0,20
2,note_on,60,67,29
2,note_on,55,56,0
2,note_on,52,56,0
2,note_on,65,0,10
2,note_on,60,0,42
2,note_on,55,0,0
2,note_on,52,0,0
2,note_on,64,58,0
2,note_on,64,0,120
2,note_on,60,67,0
2,note_on,55,56,0
2,note_on,52,56,0
2,note_on,52,0,120
2,note_on,55,0,0
2,note_on,60,0,0
2,note_on,64,57,0
2,note_on,64,0,120
2,note_on,60,66,0
2,note_on,57,56,0
2,note_on,53,56,0
2,note_on,53,0,35
2,note_on,57,0,0
2,note_on,60,0,0
2,note_on,65,57,0
2,note_on,65,0,120
2,note_on,60,66,0
2,note_on,57,56,0
2,note_on,53,56,0
2,note_on,53,0,120
2,note_on,57,0,0
2,note_on,60,0,0
2,note_on,65,55,0
2,note_on,65,0,120
2,note_on,64,65,0
2,note_on,60,55,0
2,note_on,55,55,0
2,note_on,55,0,28
2,note_on,60,0,0
2,note_on,64,0,0
2,note_on,67,55,0
2,note_on,67,0,120
2,note_on,64,65,0
2,note_on,60,55,0
2,note_on,55,55,0
2,note_on,55,0,120
2,note_on,60,0,0
2,note_on,64,0,0
2,note_on,67,56,0
2,note_on,67,0,120
2,note_on,65,64,0
2,note_on,62,54,0
2,note_on,55,54,0
2,note_on,55,0,35
2,note_on,62,0,0
2,note_on,65,0,0
2,note_on,67,55,0
2,note_on,67,0,120
2,note_on,65,63,0
2,note_on,62,53,0
2,note_on,55,53,0
2,note_on,55,0,120
2,note_on,62,0,0
2,note_on,65,0,0
2,note_on,67,54,0
2,note_on,67,0,56
2,note_on,36,49,0
2,note_on,36,0,411
2,note_on,52,39,0
2,note_on,60,46,0
2,note_on,60,0,69
2,note_on,52,0,0
2,note_on,52,39,150
2,note_on,60,46,0
2,note_on,60,0,90
2,note_on,52,0,0
2,note_on,55,39,150
2,note_on,62,46,0
2,note_on,62,0,395
2,note_on,55,0,0
2,note_on,43,47,0
2,note_on,43,0,90
2,note_on,43,48,150
2,note_on,43,0,90
2,note_on,38,49,150
2,note_on,38,0,411
2,note_on,53,39,0
2,note_on,62,46,0
2,note_on,62,0,69
2,note_on,53,0,0
2,note_on,53,39,150
2,note_on,62,46,0
2,note_on,62,0,90
2,note_on,53,0,0
2,note_on,57,39,150
2,note_on,64,46,0
2,note_on,64,0,395
2,note_on,57,0,0
2,note_on,45,47,0
2,note_on,45,0,90
2,note_on,45,48,150
2,note_on,45,0,90
2,note_on,41,53,150
2,note_on,41,0,411
2,note_on,57,47,0
2,note_on,65,56,0
2,note_on,65,0,69
2,note_on,57,0,0
2,note_on,57,49,150
2,note_on,65,58,0
2,note_on,65,0,90
2,note_on,57,0,0
2,note_on,60,52,150
2,note_on,67,62,0
2,note_on,67,0,395
2,note_on,60,0,0
2,note_on,48,69,0
2,note_on,48,0,90
2,note_on,48,73,150
2,note_on,48,0,90
2,note_on,40,71,150
2,note_on,40,0,63
2,note_on,46,64,0
2,note_on,46,0,120
2,note_on,49,64,0
2,note_on,49,0,120
2,note_on,52,64,0
2,note_on,52,0,120
2,note_on,52,71,0
2,note_on,52,0,120
2,note_on,58,66,0
2,note_on,58,0,120
2,note_on,61,66,0
2,note_on,61,0,120
2,note_on,64,66,0
2,note_on,64,0,120
2,note_on,41,71,0
2,note_on,41,0,40
2,note_on,47,65,0
2,note_on,47,0,120
2,note_on,50,66,0
2,note_on,50,0,120
2,note_on,53,66,0
2,note_on,53,0,120
2,note_on,53,71,0
2,note_on,53,0,120
2,note_on,59,65,0
2,note_on,59,0,120
2,note_on,62,65,0
2,note_on,62,0,120
2,note_on,65,65,0
2,note_on,65,0,29
2,note_on,42,71,0
2,note_on,42,0,63
2,note_on,48,64,0
2,note_on,48,0,120
2,note_on,51,64,0
2,note_on,51,0,120
2,note_on,54,64,0
2,note_on,54,0,120
2,note_on,54,71,0
2,note_on,54,0,120
2,note_on,60,66,0
2,note_on,60,0,120
2,note_on,63,66,0
2,note_on,63,0,120
2,note_on,66,66,0
2,note_on,66,0,120
2,note_on,43,71,0
2,note_on,43,0,40
2,note_on,49,65,0
2,note_on,49,0,120
2,note_on,52,66,0
2,note_on,52,0,120
2,note_on,55,66,0
2,note_on,55,0,120
2,note_on,55,71,0
2,note_on,55,0,120
2,note_on,61,65,0
2,note_on,61,0,120
2,note_on,64,65,0
2,note_on,64,0,120
2,note_on,67,65,0
2,note_on,67,0,29
2,note_on,44,63,0
2,note_on,44,0,63
2,note_on,50,57,0
2,note_on,50,0,120
2,note_on,53,58,0
2,note_on,53,0,120
2,note_on,56,58,0
2,note_on,56,0,120
2,note_on,57,66,0
2,note_on,57,0,120
2,note_on,63,62,0
2,note_on,63,0,120
2,note_on,66,62,0
2,note_on,66,0,120
2,note_on,69,63,0
2,note_on,69,0,120
2,note_on,46,68,0
2,note_on,46,0,40
2,note_on,52,63,0
2,note_on,52,0,120
2,note_on,55,65,0
2,note_on,55,0,120
2,note_on,58,66,0
2,note_on,58,0,120
2,note_on,59,71,0
2,note_on,59,0,120
2,note_on,65,66,0
2,note_on,65,0,120
2,note_on,68,66,0
2,note_on,68,0,120
2,note_on,71,67,0
2,note_on,71,0,120
2,note_on,48,74,0
2,note_on,48,0,63
2,note_on,54,67,0
2,note_on,54,0,120
2,note_on,57,67,0
2,note_on,57,0,120
2,note_on,60,68,0
2,note_on,60,0,120
2,note_on,49,76,0
2,note_on,49,0,63
2,note_on,55,71,0
2,note_on,55,0,120
2,note_on,58,72,0
2,note_on,58,0,120
2,note_on,61,73,0
2,note_on,61,0,120
2,note_on,50,79,0
2,note_on,50,0,44
2,note_on,56,73,0
2,note_on,56,0,120
2,note_on,59,75,0
2,note_on,59,0,120
2,note_on,62,75,0
2,note_on,62,0,120
2,note_on,65,82,0
2,note_on,65,0,120
2,note_on,59,76,0
2,note_on,59,0,120
2,note_on,62,76,0
2,note_on,62,0,120
2,note_on,65,77,0
2,note_on,65,0,120
2,note_on,56,65,0
2,note_on,68,78,0
2,note_on,68,0,480
2,note_on,56,0,0
2,note_on,57,65,480
2,note_on,69,78,0
2,note_on,69,0,480
2,note_on,57,0,0
2,note_on,41,65,480
2,note_on,45,65,0
2,note_on,50,65,0
2,note_on,53,78,0
2,note_on,53,0,480
2,note_on,41,0,0
2,note_on,45,0,0
2,note_on,50,0,0
2,note_on,43,65,480
2,note_on,47,65,0
2,note_on,50,65,0
2,note_on,55,78,0
2,note_on,55,0,480
2,note_on,43,0,0
2,note_on,47,0,0
2,note_on,50,0,0
2,note_on,36,32,480
2,note_on,36,0,63
2,note_on,48,26,0
2,note_on,48,0,120
2,note_on,43,26,0
2,note_on,43,0,120
2,note_on,48,26,0
2,note_on,48,0,120
2,note_on,44,32,0
2,note_on,44,0,69
2,note_on,51,26,0
2,note_on,51,0,120
2,note_on,48,25,0
2,note_on,48,0,120
2,note_on,51,25,0
2,note_on,51,0,120
2,note_on,43,32,0
2,note_on,43,0,57
2,note_on,52,26,0
2,note_on,52,0,120
2,note_on,48,26,0
2,note_on,48,0,120
2,note_on,52,27,0
2,note_on,52,0,120
2,note_on,43,33,0
2,note_on,43,0,51
2,note_on,53,27,0
2,note_on,53,0,120
2,note_on,50,27,0
2,note_on,50,0,120
2,note_on,53,27,0
2,note_on,53,0,120
2,note_on,48,33,0
2,note_on,48,0,63
2,note_on,55,27,0
2,note_on,55,0,120
2,note_on,52,27,0
2,note_on,52,0,120
2,note_on,55,27,0
2,note_on,55,0,120
2,note_on,44,33,0
2,note_on,44,0,69
2,note_on,54,27,0
2,note_on,54,0,120
2,note_on,51,26,0
2,note_on,51,0,120
2,note_on,54,26,0
2,note_on,54,0,120
2,note_on,43,34,0
2,note_on,43,0,65
2,note_on,55,27,0
2,note_on,55,0,120
2,note_on,48,28,0
2,note_on,52,28,0
2,note_on,52,0,120
2,note_on,48,0,0
2,note_on,55,29,0
2,note_on,55,0,120
2,note_on,43,35,0
2,note_on,43,0,51
2,note_on,55,28,0
2,note_on,55,0,120
2,note_on,47,28,0
2,note_on,50,28,0
2,note_on,50,0,120
2,note_on,47,0,0
2,note_on,55,28,0
2,note_on,55,0,120
2,note_on,48,41,0
2,note_on,48,0,63
2,note_on,60,33,0
2,note_on,60,0,120
2,note_on,55,33,0
2,note_on,55,0,120
2,note_on,60,33,0
2,note_on,60,0,120
2,note_on,56,42,0
2,note_on,56,0,69
2,note_on,63,34,0
2,note_on,63,0,120
2,note_on,60,33,0
2,note_on,60,0,120
2,note_on,63,33,0
2,note_on,63,0,120
2,note_on,55,43,0
2,note_on,55,0,57
2,note_on,64,35,0
2,note_on,64,0,120
2,note_on,60,35,0
2,note_on,60,0,120
2,note_on,64,37,0
2,note_on,64,0,120
2,note_on,55,46,0
2,note_on,55,0,51
2,note_on,65,36,0
2,note_on,65,0,120
2,note_on,62,37,0
2,note_on,62,0,120
2,note_on,65,37,0
2,note_on,65,0,120
2,note_on,60,47,0
2,note_on,60,0,63
2,note_on,67,37,0
2,note_on,67,0,120
2,note_on,64,38,0
2,note_on,64,0,120
2,note_on,67,38,0
2,note_on,67,0,120
2,note_on,56,48,0
2,note_on,56,0,69
2,note_on,66,39,0
2,note_on,66,0,120
2,note_on,63,38,0
2,note_on,63,0,120
2,note_on,66,38,0
2,note_on,66,0,120
2,note_on,55,50,0
2,note_on,55,0,65
2,note_on,67,40,0
2,note_on,67,0,120
2,note_on,60,40,0
2,note_on,64,40,0
2,note_on,64,0,120
2,note_on,60,0,0
2,note_on,67,42,0
2,note_on,67,0,120
2,note_on,55,52,0
2,note_on,55,0,51
2,note_on,67,41,0
2,note_on,67,0,120
2,note_on,59,42,0
2,note_on,62,42,0
2,note_on,62,0,120
2,note_on,59,0,0
2,note_on,67,42,0
2,note_on,67,0,120
2,note_on,60,49,0
2,note_on,60,0,63
2,note_on,72,39,0
2,note_on,72,0,120
2,note_on,67,39,0
2,note_on,67,0,120
2,note_on,72,40,0
2,note_on,72,0,120
2,note_on,68,50,0
2,note_on,68,0,69
2,note_on,75,40,0
2,note_on,75,0,120
2,note_on,72,40,0
2,note_on,72,0,120
2,note_on,75,40,0
2,note_on,75,0,120
2,note_on,67,52,0
2,note_on,67,0,57
2,note_on,76,42,0
2,note_on,76,0,120
2,note_on,72,42,0
2,note_on,72,0,120
2,note_on,76,44,0
2,note_on,76,0,120
2,note_on,67,55,0
2,note_on,67,0,51
2,note_on,74,43,0
2,note_on,74,0,120
2,note_on,71,43,0
2,note_on,71,0,120
2,note_on,74,44,0
2,note_on,74,0,120
2,note_on,55,60,0
2,note_on,55,0,63
2,note_on,67,48,0
2,note_on,67,0,120
2,note_on,60,48,0
2,note_on,64,48,0
2,note_on,64,0,120
2,note_on,60,0,0
2,note_on,67,49,0
2,note_on,67,0,120
2,note_on,55,62,0
2,note_on,55,0,69
2,note_on,67,50,0
2,note_on,67,0,120
2,note_on,59,49,0
2,note_on,62,49,0
2,note_on,62,0,120
2,note_on,59,0,0
2,note_on,67,52,0
2,note_on,67,0,120
2,note_on,43,67,0
2,note_on,43,0,65
2,note_on,55,55,0
2,note_on,55,0,120
2,note_on,48,55,0
2,note_on,52,55,0
2,note_on,52,0,120
2,note_on,48,0,0
2,note_on,55,57,0
2,note_on,55,0,120
2,note_on,43,73,0
2,note_on,43,0,51
2,note_on,55,58,0
2,note_on,55,0,120
2,note_on,47,58,0
2,note_on,50,58,0
2,note_on,50,0,120
2,note_on,47,0,0
2,note_on,55,60,0
2,note_on,55,0,120
2,note_on,36,64,0
2,note_on,48,76,0
2,note_on,48,0,169
2,note_on,36,0,0
2,note_on,31,58,0
2,note_on,43,70,0
2,note_on,43,0,141
2,note_on,31,0,0
2,note_on,36,66,0
2,note_on,48,79,0
2,note_on,48,0,134
2,note_on,36,0,0
2,note_on,31,60,0
2,note_on,43,73,0
2,note_on,43,0,134
2,note_on,31,0,0
2,note_on,36,69,0
2,note_on,48,81,0
2,note_on,48,0,184
2,note_on,36,0,0
2,note_on,31,63,0
2,note_on,43,75,0
2,note_on,43,0,134
2,note_on,31,0,0
2,note_on,36,71,0
2,note_on,48,85,0
2,note_on,48,0,155
2,note_on,36,0,0
2,note_on,31,64,0
2,note_on,43,76,0
2,note_on,43,0,141
2,note_on,31,0,0
2,note_on,36,68,0
2,note_on,40,76,0
2,note_on,43,76,0
2,note_on,48,90,0
2,note_on,48,0,35
2,note_on,36,0,0
2,note_on,40,0,0
2,note_on,43,0,0
2,note_on,72,68,120
2,note_on,72,0,120
2,note_on,67,67,0
2,note_on,67,0,120
2,note_on,64,65,0
2,note_on,64,0,120
2,note_on,60,64,0
2,note_on,60,0,120
2,note_on,55,63,0
2,note_on,55,0,120
2,note_on,52,63,0
2,note_on,52,0,120
2,note_on,48,60,0
2,note_on,48,0,120
2,note_on,43,61,0
2,note_on,43,0,120
2,note_on,48,62,0
2,note_on,48,0,120
2,note_on,52,63,0
2,note_on,52,0,120
2,note_on,55,64,0
2,note_on,55,0,120
2,note_on,60,65,0
2,note_on,60,0,120
2,note_on,64,66,0
2,note_on,64,0,120
2,note_on,67,67,0
2,note_on,67,0,120
2,note_on,60,68,0
2,note_on,64,68,0
2,note_on,67,68,0
2,note_on,72,80,0
2,note_on,72,0,35
2,note_on,60,0,0
2,note_on,64,0,0
2,note_on,67,0,0
2,note_on,76,68,120
2,note_on,76,0,120
2,note_on,72,67,0
2,note_on,72,0,120
2,note_on,67,65,0
2,note_on,67,0,120
2,note_on,64,64,0
2,note_on,64,0,120
2,note_on,60,63,0
2,note_on,60,0,120
2,note_on,55,63,0
2,note_on,55,0,120
2,note_on,52,60,0
2,note_on,52,0,120
2,note_on,48,61,0
2,note_on,48,0,120
2,note_on,52,62,0
2,note_on,52,0,120
2,note_on,55,63,0
2,note_on,55,0,120
2,note_on,60,64,0
2,note_on,60,0,120
2,note_on,64,65,0
2,note_on,64,0,120
2,note_on,67,66,0
2,note_on,67,0,120
2,note_on,72,67,0
2,note_on,72,0,120
2,note_on,64,68,0
2,note_on,67,68,0
2,note_on,72,68,0
2,note_on,76,80,0
2,note_on,76,0,35
2,note_on,64,0,0
2,note_on,67,0,0
2,note_on,72,0,0
2,note_on,79,68,120
2,note_on,79,0,120
2,note_on,76,67,0
2,note_on,76,0,120
2,note_on,72,65,0
2,note_on,72,0,120
2,note_on,67,64,0
2,note_on,67,0,120
2,note_on,64,63,0
2,note_on,64,0,120
2,note_on,60,63,0
2,note_on,60,0,120
2,note_on,55,60,0
2,note_on,55,0,120
2,note_on,52,61,0
2,note_on,52,0,120
2,note_on,55,62,0
2,note_on,55,0,120
2,note_on,60,63,0
2,note_on,60,0,120
2,note_on,64,64,0
2,note_on,64,0,120
2,note_on,67,65,0
2,note_on,67,0,120
2,note_on,72,66,0
2,note_on,72,0,120
2,note_on,76,67,0
2,note_on,76,0,120
2,note_on,67,68,0
2,note_on,72,68,0
2,note_on,76,68,0
2,note_on,79,80,0
2,note_on,79,0,35
2,note_on,67,0,0
2,note_on,72,0,0
2,note_on,76,0,0
2,note_on,84,68,120
2,note_on,84,0,120
2,note_on,79,67,0
2,note_on,79,0,120
2,note_on,76,65,0
2,note_on,76,0,120
2,note_on,72,64,0
2,note_on,72,0,120
2,note_on,67,63,0
2,note_on,67,0,120
2,note_on,64,63,0
2,note_on,64,0,120
2,note_on,60,60,0
2,note_on,60,0,120
2,note_on,55,61,0
2,note_on,55,0,120
2,note_on,60,62,0
2,note_on,60,0,120
2,note_on,64,63,0
2,note_on,64,0,120
2,note_on,67,64,0
2,note_on,67,0,120
2,note_on,72,65,0
2,note_on,72,0,120
2,note_on,76,66,0
2,note_on,76,0,120
2,note_on,79,67,0
2,note_on,79,0,120
2,note_on,72,68,0
2,note_on,76,68,0
2,note_on,79,68,0
2,note_on,84,80,0
2,note_on,84,0,35
2,note_on,72,0,0
2,note_on,76,0,0
2,note_on,79,0,0
2,note_on,60,73,120
2,note_on,60,0,120
2,note_on,55,71,0
2,note_on,55,0,120
2,note_on,52,69,0
2,note_on,52,0,120
2,note_on,48,67,0
2,note_on,48,0,120
2,note_on,43,65,0
2,note_on,43,0,120
2,note_on,40,63,0
2,note_on,40,0,120
2,note_on,36,60,0
2,note_on,36,0,120
2,note_on,31,61,0
2,note_on,31,0,120
2,note_on,36,62,0
2,note_on,36,0,120
2,note_on,40,63,0
2,note_on,40,0,120
2,note_on,43,64,0
2,note_on,43,0,120
2,note_on,48,65,0
2,note_on,48,0,120
2,note_on,52,66,0
2,note_on,52,0,120
2,note_on,55,67,0
2,note_on,55,0,120
2,note_on,48,71,0
2,note_on,52,71,0
2,note_on,55,71,0
2,note_on,60,84,0
2,note_on,60,0,267
2,note_on,48,0,0
2,note_on,52,0,0
2,note_on,55,0,0
2,note_on,43,71,453
2,note_on,47,71,0
2,note_on,50,71,0
2,note_on,55,84,0
2,note_on,55,0,240
2,note_on,43,0,0
2,note_on,47,0,0
2,note_on,50,0,0
2,note_on,48,71,453
2,note_on,52,71,0
2,note_on,55,71,0
2,note_on,60,84,0
2,note_on,60,0,373
2,note_on,48,0,0
2,note_on,52,0,0
2,note_on,55,0,0
2,note_on,43,71,400
2,note_on,47,71,0
2,note_on,50,71,0
2,note_on,55,84,0
2,note_on,55,0,240
2,note_on,43,0,0
2,note_on,47,0,0
2,note_on,50,0,0
2,note_on,48,45,293
2,note_on,48,0,87
2,note_on,60,48,0
2,note_on,60,0,120
2,note_on,54,50,0
2,note_on,51,43,0
2,note_on,48,43,0
2,note_on,48,0,120
2,note_on,51,0,0
2,note_on,54,0,0
2,note_on,60,53,0
2,note_on,60,0,120
2,note_on,48,47,0
2,note_on,52,47,0
2,note_on,55,55,0
2,note_on,55,0,58
2,note_on,52,0,0
2,note_on,48,0,0
2,note_on,60,59,0
2,note_on,60,0,120
2,note_on,54,62,0
2,note_on,51,52,0
2,note_on,48,52,0
2,note_on,48,0,120
2,note_on,51,0,0
2,note_on,54,0,0
2,note_on,60,64,0
2,note_on,60,0,120
2,note_on,48,56,0
2,note_on,52,56,0
2,note_on,55,66,0
2,note_on,55,0,79
2,note_on,52,0,0
2,note_on,48,0,0
2,note_on,60,70,0
2,note_on,60,0,120
2,note_on,54,73,0
2,note_on,51,61,0
2,note_on,48,61,0
2,note_on,48,0,120
2,note_on,51,0,0
2,note_on,54,0,0
2,note_on,60,75,0
2,note_on,60,0,120
2,note_on,48,65,0
2,note_on,52,65,0
2,note_on,55,76,0
2,note_on,55,0,99
2,note_on,52,0,0
2,note_on,48,0,0
2,note_on,60,74,0
2,note_on,60,0,120
2,note_on,54,72,0
2,note_on,51,60,0
2,note_on,48,60,0
2,note_on,48,0,120
2,note_on,51,0,0
2,note_on,54,0,0
2,note_on,60,70,0
2,note_on,60,0,120
2,note_on,48,64,0
2,note_on,52,64,0
2,note_on,55,64,0
2,note_on,60,77,0
2,note_on,60,0,187
2,note_on,48,0,0
2,note_on,52,0,0
2,note_on,55,0,0
2,note_on,60,71,308
2,note_on,64,71,0
2,note_on,67,71,0
2,note_on,72,84,0
2,note_on,72,0,267
2,note_on,60,0,0
2,note_on,64,0,0
2,note_on,67,0,0
2,note_on,36,71,329
2,note_on,40,71,0
2,note_on,43,71,0
2,note_on,48,84,0
2,note_on,48,0,773
2,note_on,36,0,0
2,note_on,40,0,0
2,note_on,43,0,0
