Track,Message Type,Note,Velocity,Time
1,note_on,70,44,0
1,note_on,58,26,160
1,note_on,58,0,160
1,note_on,61,26,0
1,note_on,61,0,160
1,note_on,66,29,0
1,note_on,66,0,160
1,note_on,61,25,0
1,note_on,61,0,160
1,note_on,58,22,0
1,note_on,58,0,160
1,note_on,61,30,0
1,note_on,61,0,160
1,note_on,58,25,0
1,note_on,58,0,160
1,note_on,61,25,0
1,note_on,61,0,160
1,note_on,66,29,0
1,note_on,66,0,160
1,note_on,61,26,0
1,note_on,61,0,160
1,note_on,58,23,0
1,note_on,58,0,160
1,note_on,70,0,0
1,note_on,70,41,0
1,note_on,58,27,160
1,note_on,58,0,160
1,note_on,61,29,0
1,note_on,61,0,160
1,note_on,66,31,0
1,note_on,66,0,160
1,note_on,61,26,0
1,note_on,61,0,160
1,note_on,58,29,0
1,note_on,58,0,160
1,note_on,70,0,0
1,note_on,70,44,0
1,note_on,58,28,160
1,note_on,58,0,160
1,note_on,61,30,0
1,note_on,61,0,160
1,note_on,66,35,0
1,note_on,66,0,160
1,note_on,61,31,0
1,note_on,61,0,160
1,note_on,58,33,0
1,note_on,58,0,160
1,note_on,70,0,0
1,note_on,70,49,0
1,note_on,58,27,160
1,note_on,58,0,160
1,note_on,63,27,0
1,note_on,63,0,160
1,note_on,66,34,0
1,note_on,66,0,160
1,note_on,63,29,0
1,note_on,63,0,160
1,note_on,58,26,0
1,note_on,58,0,160
1,note_on,63,37,0
1,note_on,63,0,160
1,note_on,58,29,0
1,note_on,58,0,160
1,note_on,63,29,0
1,note_on,63,0,160
1,note_on,66,36,0
1,note_on,66,0,160
1,note_on,63,29,0
1,note_on,63,0,160
1,note_on,58,25,0
1,note_on,58,0,160
1,note_on,70,0,0
1,note_on,66,49,0
1,note_on,54,30,160
1,note_on,54,0,160
1,note_on,58,30,0
1,note_on,58,0,160
1,note_on,63,36,0
1,note_on,63,0,160
1,note_on,58,30,0
1,note_on,58,0,160
1,note_on,54,30,0
1,note_on,54,0,160
1,note_on,58,37,0
1,note_on,58,0,160
1,note_on,54,30,0
1,note_on,54,0,160
1,note_on,58,30,0
1,note_on,58,0,160
1,note_on,63,35,0
1,note_on,63,0,160
1,note_on,58,30,0
1,note_on,58,0,160
1,note_on,54,27,0
1,note_on,54,0,160
1,note_on,66,0,0
1,note_on,68,49,0
1,note_on,56,29,160
1,note_on,56,0,160
1,note_on,59,29,0
1,note_on,59,0,160
1,note_on,63,37,0
1,note_on,63,0,160
1,note_on,59,29,0
1,note_on,59,0,160
1,note_on,56,29,0
1,note_on,56,0,160
1,note_on,59,37,0
1,note_on,59,0,160
1,note_on,56,29,0
1,note_on,56,0,160
1,note_on,59,29,0
1,note_on,59,0,160
1,note_on,63,36,0
1,note_on,63,0,160
1,note_on,59,29,0
1,note_on,59,0,160
1,note_on,56,29,0
1,note_on,56,0,160
1,note_on,68,0,0
1,note_on,66,46,0
1,note_on,56,29,160
1,note_on,56,0,160
1,note_on,59,29,0
1,note_on,59,0,160
1,note_on,66,0,0
1,note_on,65,45,0
1,note_on,56,28,160
1,note_on,56,0,160
1,note_on,59,28,0
1,note_on,59,0,160
1,note_on,65,0,0
1,note_on,63,44,0
1,note_on,56,29,160
1,note_on,56,0,160
1,note_on,59,30,0
1,note_on,59,0,160
1,note_on,63,0,0
1,note_on,61,40,0
1,note_on,53,29,160
1,note_on,53,0,160
1,note_on,56,30,0
1,note_on,56,0,160
1,note_on,61,0,0
1,note_on,66,49,0
1,note_on,54,32,160
1,note_on,54,0,160
1,note_on,58,33,0
1,note_on,58,0,160
1,note_on,66,0,0
1,note_on,61,35,0
1,note_on,61,0,160
1,note_on,58,36,0
1,note_on,58,0,160
1,note_on,54,38,0
1,note_on,54,0,160
1,note_on,70,48,0
1,note_on,60,38,160
1,note_on,60,0,160
1,note_on,63,36,0
1,note_on,63,0,160
1,note_on,70,0,0
1,note_on,66,35,0
1,note_on,66,0,160
1,note_on,63,33,0
1,note_on,63,0,160
1,note_on,60,32,0
1,note_on,60,0,160
1,note_on,68,41,0
1,note_on,56,27,160
1,note_on,56,0,160
1,note_on,61,27,0
1,note_on,61,0,160
1,note_on,65,30,0
1,note_on,65,0,160
1,note_on,61,27,0
1,note_on,61,0,160
1,note_on,56,27,0
1,note_on,56,0,160
1,note_on,61,30,0
1,note_on,61,0,160
1,note_on,56,27,0
1,note_on,56,0,160
1,note_on,61,27,0
1,note_on,61,0,160
1,note_on,68,0,0
1,note_on,65,31,0
1,note_on,69,39,0
1,note_on,65,0,160
1,note_on,61,24,0
1,note_on,61,0,160
1,note_on,57,24,0
1,note_on,57,0,160
1,note_on,69,0,0
1,note_on,70,44,0
1,note_on,58,26,160
1,note_on,58,0,160
1,note_on,61,26,0
1,note_on,61,0,160
1,note_on,66,29,0
1,note_on,66,0,160
1,note_on,61,25,0
1,note_on,61,0,160
1,note_on,58,25,0
1,note_on,58,0,160
1,note_on,61,30,0
1,note_on,61,0,160
1,note_on,58,25,0
1,note_on,58,0,160
1,note_on,61,21,0
1,note_on,61,0,160
1,note_on,66,29,0
1,note_on,66,0,160
1,note_on,61,26,0
1,note_on,61,0,160
1,note_on,58,24,0
1,note_on,58,0,160
1,note_on,70,0,0
1,note_on,70,41,0
1,note_on,58,27,160
1,note_on,58,0,160
1,note_on,61,29,0
1,note_on,61,0,160
1,note_on,66,31,0
1,note_on,66,0,160
1,note_on,61,26,0
1,note_on,61,0,160
1,note_on,58,29,0
1,note_on,58,0,160
1,note_on,70,0,0
1,note_on,70,44,0
1,note_on,58,28,160
1,note_on,58,0,160
1,note_on,61,30,0
1,note_on,61,0,160
1,note_on,66,35,0
1,note_on,66,0,160
1,note_on,61,31,0
1,note_on,61,0,160
1,note_on,58,33,0
1,note_on,58,0,160
1,note_on,70,0,0
1,note_on,70,49,0
1,note_on,58,27,160
1,note_on,58,0,160
1,note_on,63,27,0
1,note_on,63,0,160
1,note_on,66,34,0
1,note_on,66,0,160
1,note_on,63,29,0
1,note_on,63,0,160
1,note_on,58,29,0
1,note_on,58,0,160
1,note_on,63,37,0
1,note_on,63,0,160
1,note_on,58,29,0
1,note_on,58,0,160
1,note_on,63,29,0
1,note_on,63,0,160
1,note_on,66,36,0
1,note_on,66,0,160
1,note_on,63,29,0
1,note_on,63,0,160
1,note_on,58,29,0
1,note_on,58,0,160
1,note_on,70,0,0
1,note_on,66,49,0
1,note_on,54,30,160
1,note_on,54,0,160
1,note_on,58,30,0
1,note_on,58,0,160
1,note_on,63,36,0
1,note_on,63,0,160
1,note_on,58,30,0
1,note_on,58,0,160
1,note_on,54,30,0
1,note_on,54,0,160
1,note_on,66,0,0
1,note_on,65,49,0
1,note_on,53,30,160
1,note_on,53,0,160
1,note_on,56,30,0
1,note_on,56,0,160
1,note_on,62,35,0
1,note_on,62,0,160
1,note_on,56,30,0
1,note_on,56,0,160
1,note_on,53,30,0
1,note_on,53,0,160
1,note_on,65,0,0
1,note_on,63,49,0
1,note_on,51,35,160
1,note_on,51,0,160
1,note_on,54,38,0
1,note_on,54,0,160
1,note_on,59,43,0
1,note_on,59,0,160
1,note_on,54,45,0
1,note_on,54,0,160
1,note_on,51,49,0
1,note_on,51,0,160
1,note_on,63,0,0
1,note_on,68,58,0
1,note_on,56,41,160
1,note_on,56,0,160
1,note_on,59,41,0
1,note_on,59,0,160
1,note_on,63,47,0
1,note_on,63,0,160
1,note_on,59,33,0
1,note_on,59,0,160
1,note_on,56,33,0
1,note_on,56,0,160
1,note_on,68,0,0
1,note_on,66,46,0
1,note_on,59,29,160
1,note_on,59,0,160
1,note_on,56,29,0
1,note_on,56,0,160
1,note_on,66,0,0
1,note_on,65,45,0
1,note_on,59,28,160
1,note_on,59,0,160
1,note_on,56,28,0
1,note_on,56,0,160
1,note_on,65,0,0
1,note_on,63,44,0
1,note_on,59,29,160
1,note_on,59,0,160
1,note_on,56,30,0
1,note_on,56,0,160
1,note_on,63,0,0
1,note_on,65,40,0
1,note_on,59,29,160
1,note_on,59,0,160
1,note_on,56,30,0
1,note_on,56,0,160
1,note_on,65,0,0
1,note_on,68,49,0
1,note_on,59,27,160
1,note_on,59,0,160
1,note_on,61,27,0
1,note_on,61,0,160
1,note_on,65,34,0
1,note_on,65,0,160
1,note_on,61,29,0
1,note_on,61,0,160
1,note_on,59,29,0
1,note_on,59,0,160
1,note_on,61,37,0
1,note_on,61,0,160
1,note_on,59,29,0
1,note_on,59,0,160
1,note_on,61,29,0
1,note_on,61,0,160
1,note_on,65,36,0
1,note_on,65,0,160
1,note_on,61,29,0
1,note_on,61,0,160
1,note_on,59,29,0
1,note_on,59,0,160
1,note_on,68,0,0
1,note_on,66,49,0
1,note_on,54,30,160
1,note_on,54,0,160
1,note_on,58,24,0
1,note_on,58,0,160
1,note_on,61,36,0
1,note_on,61,0,160
1,note_on,58,30,0
1,note_on,58,0,160
1,note_on,54,24,0
1,note_on,54,0,160
1,note_on,58,37,0
1,note_on,58,0,160
1,note_on,54,30,0
1,note_on,54,0,160
1,note_on,58,26,0
1,note_on,58,0,160
1,note_on,61,35,0
1,note_on,61,0,160
1,note_on,58,30,0
1,note_on,58,0,160
1,note_on,54,26,0
1,note_on,54,0,160
1,note_on,66,0,0
1,note_on,68,44,0
1,note_on,56,26,160
1,note_on,56,0,160
1,note_on,61,26,0
1,note_on,61,0,160
1,note_on,65,29,0
1,note_on,65,0,160
1,note_on,61,25,0
1,note_on,61,0,160
1,note_on,56,25,0
1,note_on,56,0,160
1,note_on,61,30,0
1,note_on,61,0,160
1,note_on,56,26,0
1,note_on,56,0,160
1,note_on,61,26,0
1,note_on,61,0,160
1,note_on,65,30,0
1,note_on,65,0,160
1,note_on,61,27,0
1,note_on,61,0,160
1,note_on,56,27,0
1,note_on,56,0,160
1,note_on,68,0,0
1,note_on,70,43,0
1,note_on,61,29,160
1,note_on,61,0,160
1,note_on,63,31,0
1,note_on,63,0,160
1,note_on,67,39,0
1,note_on,67,0,160
1,note_on,63,31,0
1,note_on,63,0,160
1,note_on,61,44,0
1,note_on,61,0,160
1,note_on,63,47,0
1,note_on,63,0,160
1,note_on,61,51,0
1,note_on,61,0,160
1,note_on,63,54,0
1,note_on,63,0,160
1,note_on,67,55,0
1,note_on,67,0,160
1,note_on,63,62,0
1,note_on,63,0,160
1,note_on,61,67,0
1,note_on,61,0,160
1,note_on,70,0,0
1,note_on,73,74,0
1,note_on,61,51,160
1,note_on,61,0,160
1,note_on,63,51,0
1,note_on,63,0,160
1,note_on,68,66,0
1,note_on,68,0,160
1,note_on,63,49,0
1,note_on,63,0,160
1,note_on,61,49,0
1,note_on,61,0,160
1,note_on,63,55,0
1,note_on,63,0,160
1,note_on,61,37,0
1,note_on,61,0,160
1,note_on,63,33,0
1,note_on,63,0,160
1,note_on,73,0,0
1,note_on,71,50,0
1,note_on,68,37,0
1,note_on,68,0,160
1,note_on,63,33,0
1,note_on,63,0,160
1,note_on,59,33,0
1,note_on,59,0,160
1,note_on,71,0,0
1,note_on,71,41,0
1,note_on,59,28,160
1,note_on,59,0,160
1,note_on,63,28,0
1,note_on,63,0,160
1,note_on,68,30,0
1,note_on,68,0,160
1,note_on,63,25,0
1,note_on,63,0,160
1,note_on,59,25,0
1,note_on,59,0,160
1,note_on,63,31,0
1,note_on,63,0,160
1,note_on,59,25,0
1,note_on,59,0,160
1,note_on,63,25,0
1,note_on,63,0,160
1,note_on,68,29,0
1,note_on,68,0,160
1,note_on,63,25,0
1,note_on,63,0,160
1,note_on,59,25,0
1,note_on,59,0,160
1,note_on,71,0,0
1,note_on,71,54,0
1,note_on,59,33,160
1,note_on,59,0,160
1,note_on,64,33,0
1,note_on,64,0,160
1,note_on,68,37,0
1,note_on,68,0,160
1,note_on,64,32,0
1,note_on,64,0,160
1,note_on,59,32,0
1,note_on,59,0,160
1,note_on,64,39,0
1,note_on,64,0,160
1,note_on,59,33,0
1,note_on,59,0,160
1,note_on,64,33,0
1,note_on,64,0,160
1,note_on,68,39,0
1,note_on,68,0,160
1,note_on,64,35,0
1,note_on,64,0,160
1,note_on,59,36,0
1,note_on,59,0,160
1,note_on,71,0,0
1,note_on,71,49,0
1,note_on,59,37,160
1,note_on,59,0,160
1,note_on,63,40,0
1,note_on,63,0,160
1,note_on,66,44,0
1,note_on,66,0,160
1,note_on,63,37,0
1,note_on,63,0,160
1,note_on,59,39,0
1,note_on,59,0,160
1,note_on,71,0,0
1,note_on,73,55,0
1,note_on,64,49,160
1,note_on,64,0,160
1,note_on,66,51,0
1,note_on,66,0,160
1,note_on,70,60,0
1,note_on,70,0,160
1,note_on,66,64,0
1,note_on,66,0,160
1,note_on,64,63,0
1,note_on,64,0,160
1,note_on,73,0,0
1,note_on,76,69,0
1,note_on,64,57,160
1,note_on,64,0,160
1,note_on,66,57,0
1,note_on,66,0,160
1,note_on,71,63,0
1,note_on,71,0,160
1,note_on,66,48,0
1,note_on,66,0,160
1,note_on,64,48,0
1,note_on,64,0,160
1,note_on,66,54,0
1,note_on,66,0,160
1,note_on,64,35,0
1,note_on,64,0,160
1,note_on,66,37,0
1,note_on,66,0,160
1,note_on,76,0,0
1,note_on,75,57,0
1,note_on,71,42,0
1,note_on,71,0,160
1,note_on,66,37,0
1,note_on,66,0,160
1,note_on,63,37,0
1,note_on,63,0,160
1,note_on,75,0,0
1,note_on,75,45,0
1,note_on,63,31,160
1,note_on,63,0,160
1,note_on,66,31,0
1,note_on,66,0,160
1,note_on,71,34,0
1,note_on,71,0,160
1,note_on,66,28,0
1,note_on,66,0,160
1,note_on,63,28,0
1,note_on,63,0,160
1,note_on,66,35,0
1,note_on,66,0,160
1,note_on,63,28,0
1,note_on,63,0,160
1,note_on,66,28,0
1,note_on,66,0,160
1,note_on,71,34,0
1,note_on,71,0,160
1,note_on,66,28,0
1,note_on,66,0,160
1,note_on,63,28,0
1,note_on,63,0,160
1,note_on,75,0,0
1,note_on,75,47,0
1,note_on,63,32,160
1,note_on,63,0,160
1,note_on,66,32,0
1,note_on,66,0,160
1,note_on,71,45,0
1,note_on,71,0,160
1,note_on,66,32,0
1,note_on,66,0,160
1,note_on,63,35,0
1,note_on,63,0,160
1,note_on,66,31,0
1,note_on,66,0,160
1,note_on,63,31,0
1,note_on,63,0,160
1,note_on,66,31,0
1,note_on,66,0,160
1,note_on,71,36,0
1,note_on,71,0,160
1,note_on,66,30,0
1,note_on,66,0,160
1,note_on,63,30,0
1,note_on,63,0,160
1,note_on,75,0,0
1,note_on,75,46,0
1,note_on,68,29,160
1,note_on,68,0,160
1,note_on,65,29,0
1,note_on,65,0,160
1,note_on,75,0,0
1,note_on,71,43,0
1,note_on,68,28,160
1,note_on,68,0,160
1,note_on,65,28,0
1,note_on,65,0,160
1,note_on,71,0,0
1,note_on,70,43,0
1,note_on,65,28,160
1,note_on,65,0,160
1,note_on,61,28,0
1,note_on,61,0,160
1,note_on,70,0,0
1,note_on,68,39,0
1,note_on,65,28,160
1,note_on,65,0,160
1,note_on,61,28,0
1,note_on,61,0,160
1,note_on,68,0,0
1,note_on,73,47,0
1,note_on,61,32,160
1,note_on,61,0,160
1,note_on,66,32,0
1,note_on,66,0,160
1,note_on,70,32,0
1,note_on,70,0,160
1,note_on,66,32,0
1,note_on,66,0,160
1,note_on,61,31,0
1,note_on,61,0,160
1,note_on,66,41,0
1,note_on,66,0,160
1,note_on,61,31,0
1,note_on,61,0,160
1,note_on,66,27,0
1,note_on,66,0,160
1,note_on,70,36,0
1,note_on,70,0,160
1,note_on,66,30,0
1,note_on,66,0,160
1,note_on,61,26,0
1,note_on,61,0,160
1,note_on,73,0,0
1,note_on,73,46,0
1,note_on,66,29,160
1,note_on,66,0,160
1,note_on,63,29,0
1,note_on,63,0,160
1,note_on,73,0,0
1,note_on,71,43,0
1,note_on,66,28,160
1,note_on,66,0,160
1,note_on,63,28,0
1,note_on,63,0,160
1,note_on,71,0,0
1,note_on,68,43,0
1,note_on,63,28,160
1,note_on,63,0,160
1,note_on,59,28,0
1,note_on,59,0,160
1,note_on,68,0,0
1,note_on,63,39,0
1,note_on,59,28,160
1,note_on,59,0,160
1,note_on,56,28,0
1,note_on,56,0,160
1,note_on,63,0,0
1,note_on,66,47,0
1,note_on,54,29,160
1,note_on,54,0,160
1,note_on,58,29,0
1,note_on,58,0,160
1,note_on,61,39,0
1,note_on,61,0,160
1,note_on,58,29,0
1,note_on,58,0,160
1,note_on,54,29,0
1,note_on,54,0,160
1,note_on,58,36,0
1,note_on,58,0,160
1,note_on,54,30,0
1,note_on,54,0,160
1,note_on,58,30,0
1,note_on,58,0,160
1,note_on,61,36,0
1,note_on,61,0,160
1,note_on,58,30,0
1,note_on,58,0,160
1,note_on,54,30,0
1,note_on,54,0,160
1,note_on,66,0,0
1,note_on,66,45,0
1,note_on,59,29,160
1,note_on,59,0,160
1,note_on,56,29,0
1,note_on,56,0,160
1,note_on,66,0,0
1,note_on,65,41,0
1,note_on,59,28,160
1,note_on,59,0,160
1,note_on,56,28,0
1,note_on,56,0,160
1,note_on,65,0,0
1,note_on,70,42,0
1,note_on,61,28,160
1,note_on,61,0,160
1,note_on,59,28,0
1,note_on,59,0,160
1,note_on,70,0,0
1,note_on,68,39,0
1,note_on,61,26,160
1,note_on,61,0,160
1,note_on,59,26,0
1,note_on,59,0,160
1,note_on,68,0,0
1,note_on,66,47,0
1,note_on,54,29,160
1,note_on,54,0,160
1,note_on,58,29,0
1,note_on,58,0,160
1,note_on,61,29,0
1,note_on,61,0,160
1,note_on,58,29,0
1,note_on,58,0,160
1,note_on,54,26,0
1,note_on,54,0,160
1,note_on,58,36,0
1,note_on,58,0,160
1,note_on,54,30,0
1,note_on,54,0,160
1,note_on,58,30,0
1,note_on,58,0,160
1,note_on,61,36,0
1,note_on,61,0,160
1,note_on,58,30,0
1,note_on,58,0,160
1,note_on,54,30,0
1,note_on,54,0,160
1,note_on,66,0,0
1,note_on,66,47,0
1,note_on,54,29,160
1,note_on,54,0,160
1,note_on,58,29,0
1,note_on,58,0,160
1,note_on,61,36,0
1,note_on,61,0,160
1,note_on,58,29,0
1,note_on,58,0,160
1,note_on,54,31,0
1,note_on,54,0,160
1,note_on,66,0,0
1,note_on,67,47,0
1,note_on,55,30,160
1,note_on,55,0,160
1,note_on,58,30,0
1,note_on,58,0,160
1,note_on,61,36,0
1,note_on,61,0,160
1,note_on,58,30,0
1,note_on,58,0,160
1,note_on,55,30,0
1,note_on,55,0,160
1,note_on,67,0,0
1,note_on,68,44,0
1,note_on,56,26,160
1,note_on,56,0,160
1,note_on,61,26,0
1,note_on,61,0,160
1,note_on,65,29,0
1,note_on,65,0,160
1,note_on,61,25,0
1,note_on,61,0,160
1,note_on,56,25,0
1,note_on,56,0,160
1,note_on,61,30,0
1,note_on,61,0,160
1,note_on,56,26,0
1,note_on,56,0,160
1,note_on,61,26,0
1,note_on,61,0,160
1,note_on,65,30,0
1,note_on,65,0,160
1,note_on,61,27,0
1,note_on,61,0,160
1,note_on,56,27,0
1,note_on,56,0,160
1,note_on,68,0,0
1,note_on,70,43,0
1,note_on,61,29,160
1,note_on,61,0,160
1,note_on,64,31,0
1,note_on,64,0,160
1,note_on,67,42,0
1,note_on,67,0,160
1,note_on,64,38,0
1,note_on,64,0,160
1,note_on,61,43,0
1,note_on,61,0,160
1,note_on,63,48,0
1,note_on,63,0,160
1,note_on,61,52,0
1,note_on,61,0,160
1,note_on,63,57,0
1,note_on,63,0,160
1,note_on,67,62,0
1,note_on,67,0,160
1,note_on,63,58,0
1,note_on,63,0,160
1,note_on,61,60,0
1,note_on,61,0,160
1,note_on,70,0,0
1,note_on,73,78,0
1,note_on,61,59,160
1,note_on,61,0,160
1,note_on,63,57,0
1,note_on,63,0,160
1,note_on,70,68,0
1,note_on,70,0,160
1,note_on,63,42,0
1,note_on,63,0,160
1,note_on,61,47,0
1,note_on,61,0,160
1,note_on,63,56,0
1,note_on,63,0,160
1,note_on,61,35,0
1,note_on,61,0,160
1,note_on,63,36,0
1,note_on,63,0,160
1,note_on,73,0,0
1,note_on,71,50,0
1,note_on,68,37,0
1,note_on,68,0,160
1,note_on,63,33,0
1,note_on,63,0,160
1,note_on,59,33,0
1,note_on,59,0,160
1,note_on,71,0,0
1,note_on,71,41,0
1,note_on,59,28,160
1,note_on,59,0,160
1,note_on,63,28,0
1,note_on,63,0,160
1,note_on,68,30,0
1,note_on,68,0,160
1,note_on,63,25,0
1,note_on,63,0,160
1,note_on,59,25,0
1,note_on,59,0,160
1,note_on,63,31,0
1,note_on,63,0,160
1,note_on,59,25,0
1,note_on,59,0,160
1,note_on,63,25,0
1,note_on,63,0,160
1,note_on,68,29,0
1,note_on,68,0,160
1,note_on,63,25,0
1,note_on,63,0,160
1,note_on,59,25,0
1,note_on,59,0,160
1,note_on,71,0,0
1,note_on,71,54,0
1,note_on,59,33,160
1,note_on,59,0,160
1,note_on,64,33,0
1,note_on,64,0,160
1,note_on,68,37,0
1,note_on,68,0,160
1,note_on,64,32,0
1,note_on,64,0,160
1,note_on,59,32,0
1,note_on,59,0,160
1,note_on,64,39,0
1,note_on,64,0,160
1,note_on,59,33,0
1,note_on,59,0,160
1,note_on,64,33,0
1,note_on,64,0,160
1,note_on,68,43,0
1,note_on,68,0,160
1,note_on,64,36,0
1,note_on,64,0,160
1,note_on,59,37,0
1,note_on,59,0,160
1,note_on,71,0,0
1,note_on,71,58,0
1,note_on,59,39,160
1,note_on,59,0,160
1,note_on,63,40,0
1,note_on,63,0,160
1,note_on,66,49,0
1,note_on,66,0,160
1,note_on,63,43,0
1,note_on,63,0,160
1,note_on,59,45,0
1,note_on,59,0,160
1,note_on,71,0,0
1,note_on,73,54,0
1,note_on,64,46,160
1,note_on,64,0,160
1,note_on,66,49,0
1,note_on,66,0,160
1,note_on,70,62,0
1,note_on,70,0,160
1,note_on,66,59,0
1,note_on,66,0,160
1,note_on,64,67,0
1,note_on,64,0,160
1,note_on,73,0,0
1,note_on,76,77,0
1,note_on,64,53,160
1,note_on,64,0,160
1,note_on,66,52,0
1,note_on,66,0,160
1,note_on,73,63,0
1,note_on,73,0,160
1,note_on,66,46,0
1,note_on,66,0,160
1,note_on,64,46,0
1,note_on,64,0,160
1,note_on,66,54,0
1,note_on,66,0,160
1,note_on,64,40,0
1,note_on,64,0,160
1,note_on,66,40,0
1,note_on,66,0,160
1,note_on,76,0,0
1,note_on,75,51,0
1,note_on,71,51,0
1,note_on,71,0,160
1,note_on,66,37,0
1,note_on,66,0,160
1,note_on,63,37,0
1,note_on,63,0,160
1,note_on,75,0,0
1,note_on,75,55,0
1,note_on,63,35,160
1,note_on,63,0,160
1,note_on,66,35,0
1,note_on,66,0,160
1,note_on,71,45,0
1,note_on,71,0,160
1,note_on,66,30,0
1,note_on,66,0,160
1,note_on,63,32,0
1,note_on,63,0,160
1,note_on,66,42,0
1,note_on,66,0,160
1,note_on,63,31,0
1,note_on,63,0,160
1,note_on,66,31,0
1,note_on,66,0,160
1,note_on,71,41,0
1,note_on,71,0,160
1,note_on,66,31,0
1,note_on,66,0,160
1,note_on,63,31,0
1,note_on,63,0,160
1,note_on,75,0,0
1,note_on,75,47,0
1,note_on,63,32,160
1,note_on,63,0,160
1,note_on,66,32,0
1,note_on,66,0,160
1,note_on,71,37,0
1,note_on,71,0,160
1,note_on,66,32,0
1,note_on,66,0,160
1,note_on,63,33,0
1,note_on,63,0,160
1,note_on,66,35,0
1,note_on,66,0,160
1,note_on,63,31,0
1,note_on,63,0,160
1,note_on,66,31,0
1,note_on,66,0,160
1,note_on,71,36,0
1,note_on,71,0,160
1,note_on,66,30,0
1,note_on,66,0,160
1,note_on,63,30,0
1,note_on,63,0,160
1,note_on,75,0,0
1,note_on,75,50,0
1,note_on,68,29,160
1,note_on,68,0,160
1,note_on,65,29,0
1,note_on,65,0,160
1,note_on,75,0,0
1,note_on,74,48,0
1,note_on,68,28,160
1,note_on,68,0,160
1,note_on,65,28,0
1,note_on,65,0,160
1,note_on,74,0,0
1,note_on,71,42,0
1,note_on,65,28,160
1,note_on,65,0,160
1,note_on,62,28,0
1,note_on,62,0,160
1,note_on,71,0,0
1,note_on,68,39,0
1,note_on,65,28,160
1,note_on,65,0,160
1,note_on,61,28,0
1,note_on,61,0,160
1,note_on,68,0,0
1,note_on,73,47,0
1,note_on,61,32,160
1,note_on,61,0,160
1,note_on,66,32,0
1,note_on,66,0,160
1,note_on,70,36,0
1,note_on,70,0,160
1,note_on,66,32,0
1,note_on,66,0,160
1,note_on,61,32,0
1,note_on,61,0,160
1,note_on,66,36,0
1,note_on,66,0,160
1,note_on,61,31,0
1,note_on,61,0,160
1,note_on,66,31,0
1,note_on,66,0,160
1,note_on,70,36,0
1,note_on,70,0,160
1,note_on,66,30,0
1,note_on,66,0,160
1,note_on,61,30,0
1,note_on,61,0,160
1,note_on,73,0,0
1,note_on,73,46,0
1,note_on,67,29,160
1,note_on,67,0,160
1,note_on,63,29,0
1,note_on,63,0,160
1,note_on,73,0,0
1,note_on,71,43,0
1,note_on,68,28,160
1,note_on,68,0,160
1,note_on,63,28,0
1,note_on,63,0,160
1,note_on,71,0,0
1,note_on,68,43,0
1,note_on,63,28,160
1,note_on,63,0,160
1,note_on,59,28,0
1,note_on,59,0,160
1,note_on,68,0,0
1,note_on,63,39,0
1,note_on,60,28,160
1,note_on,60,0,160
1,note_on,56,28,0
1,note_on,56,0,160
1,note_on,63,0,0
1,note_on,66,47,0
1,note_on,54,29,160
1,note_on,54,0,160
1,note_on,58,29,0
1,note_on,58,0,160
1,note_on,61,34,0
1,note_on,61,0,160
1,note_on,58,29,0
1,note_on,58,0,160
1,note_on,54,30,0
1,note_on,54,0,160
1,note_on,58,34,0
1,note_on,58,0,160
1,note_on,54,30,0
1,note_on,54,0,160
1,note_on,58,30,0
1,note_on,58,0,160
1,note_on,61,36,0
1,note_on,61,0,160
1,note_on,58,30,0
1,note_on,58,0,160
1,note_on,54,30,0
1,note_on,54,0,160
1,note_on,66,0,0
1,note_on,66,45,0
1,note_on,59,29,160
1,note_on,59,0,160
1,note_on,56,29,0
1,note_on,56,0,160
1,note_on,66,0,0
1,note_on,65,41,0
1,note_on,59,28,160
1,note_on,59,0,160
1,note_on,56,28,0
1,note_on,56,0,160
1,note_on,65,0,0
1,note_on,70,42,0
1,note_on,61,28,160
1,note_on,61,0,160
1,note_on,59,28,0
1,note_on,59,0,160
1,note_on,70,0,0
1,note_on,68,39,0
1,note_on,61,26,160
1,note_on,61,0,160
1,note_on,59,26,0
1,note_on,59,0,160
1,note_on,68,0,0
1,note_on,66,47,0
1,note_on,54,29,160
1,note_on,54,0,160
1,note_on,58,29,0
1,note_on,58,0,160
1,note_on,61,33,0
1,note_on,61,0,160
1,note_on,58,29,0
1,note_on,58,0,160
1,note_on,54,29,0
1,note_on,54,0,160
1,note_on,58,32,0
1,note_on,58,0,160
1,note_on,54,30,0
1,note_on,54,0,160
1,note_on,58,30,0
1,note_on,58,0,160
1,note_on,61,36,0
1,note_on,61,0,160
1,note_on,58,30,0
1,note_on,58,0,160
1,note_on,54,30,0
1,note_on,54,0,160
1,note_on,58,37,0
1,note_on,58,0,160
1,note_on,54,29,0
1,note_on,54,0,160
1,note_on,58,29,0
1,note_on,58,0,160
1,note_on,61,32,0
1,note_on,61,0,160
1,note_on,58,29,0
1,note_on,58,0,160
1,note_on,54,45,0
1,note_on,54,0,160
1,note_on,58,48,0
1,note_on,58,0,160
1,note_on,54,51,0
1,note_on,54,0,160
1,note_on,58,53,0
1,note_on,58,0,160
1,note_on,62,56,0
1,note_on,62,0,160
1,note_on,58,59,0
1,note_on,58,0,160
1,note_on,54,61,0
1,note_on,54,0,160
1,note_on,66,0,0
1,note_on,70,76,0
1,note_on,58,50,160
1,note_on,58,0,160
1,note_on,63,50,0
1,note_on,63,0,160
1,note_on,66,63,0
1,note_on,66,0,160
1,note_on,63,49,0
1,note_on,63,0,160
1,note_on,58,48,0
1,note_on,58,0,160
1,note_on,63,61,0
1,note_on,63,0,160
1,note_on,58,48,0
1,note_on,58,0,160
1,note_on,63,48,0
1,note_on,63,0,160
1,note_on,66,55,0
1,note_on,66,0,160
1,note_on,63,47,0
1,note_on,63,0,160
1,note_on,58,47,0
1,note_on,58,0,160
1,note_on,70,0,0
1,note_on,70,73,0
1,note_on,58,44,160
1,note_on,58,0,160
1,note_on,63,44,0
1,note_on,63,0,160
1,note_on,66,53,0
1,note_on,66,0,160
1,note_on,63,43,0
1,note_on,63,0,160
1,note_on,58,43,0
1,note_on,58,0,160
1,note_on,63,55,0
1,note_on,63,0,160
1,note_on,58,44,0
1,note_on,58,0,160
1,note_on,63,45,0
1,note_on,63,0,160
1,note_on,66,51,0
1,note_on,66,0,160
1,note_on,63,46,0
1,note_on,63,0,160
1,note_on,58,46,0
1,note_on,58,0,160
1,note_on,70,0,0
1,note_on,70,68,0
1,note_on,62,54,160
1,note_on,62,0,160
1,note_on,65,54,0
1,note_on,65,0,160
1,note_on,70,0,0
1,note_on,77,65,0
1,note_on,65,44,160
1,note_on,65,0,160
1,note_on,68,44,0
1,note_on,68,0,160
1,note_on,77,0,0
1,note_on,74,61,0
1,note_on,65,41,160
1,note_on,65,0,160
1,note_on,68,41,0
1,note_on,68,0,160
1,note_on,74,0,0
1,note_on,71,52,0
1,note_on,65,35,160
1,note_on,65,0,160
1,note_on,68,35,0
1,note_on,68,0,160
1,note_on,71,0,0
1,note_on,71,53,0
1,note_on,65,38,160
1,note_on,65,0,160
1,note_on,68,38,0
1,note_on,68,0,160
1,note_on,71,0,0
1,note_on,70,50,0
1,note_on,65,35,160
1,note_on,65,0,160
1,note_on,68,35,0
1,note_on,68,0,160
1,note_on,70,0,0
1,note_on,70,49,0
1,note_on,58,37,160
1,note_on,58,0,160
1,note_on,65,38,0
1,note_on,65,0,160
1,note_on,70,0,0
1,note_on,68,47,0
1,note_on,58,32,160
1,note_on,58,0,160
1,note_on,65,31,0
1,note_on,65,0,160
1,note_on,68,0,0
1,note_on,68,44,0
1,note_on,58,33,160
1,note_on,58,0,160
1,note_on,63,35,0
1,note_on,63,0,160
1,note_on,68,0,0
1,note_on,66,44,0
1,note_on,58,32,160
1,note_on,58,0,160
1,note_on,63,32,0
1,note_on,63,0,160
1,note_on,66,0,0
1,note_on,65,40,0
1,note_on,56,31,160
1,note_on,56,0,160
1,note_on,59,31,0
1,note_on,59,0,160
1,note_on,65,0,0
1,note_on,68,44,0
1,note_on,56,30,160
1,note_on,56,0,160
1,note_on,59,30,0
1,note_on,59,0,160
1,note_on,68,0,0
1,note_on,63,42,0
1,note_on,51,32,160
1,note_on,51,0,160
1,note_on,54,32,0
1,note_on,54,0,160
1,note_on,58,39,0
1,note_on,58,0,160
1,note_on,54,32,0
1,note_on,54,0,160
1,note_on,51,32,0
1,note_on,51,0,160
1,note_on,63,0,0
1,note_on,62,42,0
1,note_on,50,33,160
1,note_on,50,0,160
1,note_on,53,33,0
1,note_on,53,0,160
1,note_on,58,43,0
1,note_on,58,0,160
1,note_on,53,48,0
1,note_on,62,0,80
1,note_on,53,0,80
1,note_on,70,54,0
1,note_on,70,0,150
1,note_on,70,66,10
1,note_on,58,48,160
1,note_on,58,0,160
1,note_on,63,48,0
1,note_on,63,0,160
1,note_on,66,56,0
1,note_on,66,0,160
1,note_on,63,48,0
1,note_on,63,0,160
1,note_on,58,48,0
1,note_on,58,0,160
1,note_on,63,56,0
1,note_on,63,0,160
1,note_on,58,48,0
1,note_on,58,0,160
1,note_on,63,48,0
1,note_on,63,0,160
1,note_on,66,48,0
1,note_on,66,0,160
1,note_on,63,48,0
1,note_on,63,0,160
1,note_on,58,44,0
1,note_on,58,0,160
1,note_on,70,0,0
1,note_on,70,62,0
1,note_on,58,41,160
1,note_on,58,0,160
1,note_on,63,44,0
1,note_on,63,0,160
1,note_on,66,49,0
1,note_on,66,0,160
1,note_on,63,45,0
1,note_on,63,0,160
1,note_on,58,44,0
1,note_on,58,0,160
1,note_on,63,51,0
1,note_on,63,0,160
1,note_on,58,47,0
1,note_on,58,0,160
1,note_on,63,44,0
1,note_on,63,0,160
1,note_on,70,0,0
1,note_on,71,60,0
1,note_on,66,47,0
1,note_on,66,0,160
1,note_on,63,42,0
1,note_on,63,0,160
1,note_on,58,42,0
1,note_on,58,0,160
1,note_on,71,0,0
1,note_on,70,55,0
1,note_on,62,46,160
1,note_on,62,0,160
1,note_on,65,46,0
1,note_on,65,0,160
1,note_on,70,0,0
1,note_on,77,59,0
1,note_on,65,44,160
1,note_on,65,0,160
1,note_on,68,44,0
1,note_on,68,0,160
1,note_on,77,0,0
1,note_on,74,53,0
1,note_on,65,41,160
1,note_on,65,0,160
1,note_on,68,41,0
1,note_on,68,0,160
1,note_on,74,0,0
1,note_on,71,47,0
1,note_on,65,35,160
1,note_on,65,0,160
1,note_on,68,35,0
1,note_on,68,0,160
1,note_on,71,0,0
1,note_on,70,53,0
1,note_on,65,38,160
1,note_on,65,0,160
1,note_on,68,38,0
1,note_on,68,0,160
1,note_on,70,0,0
1,note_on,71,50,0
1,note_on,65,35,160
1,note_on,65,0,160
1,note_on,68,35,0
1,note_on,68,0,160
1,note_on,71,0,0
1,note_on,70,49,0
1,note_on,58,37,160
1,note_on,58,0,160
1,note_on,65,38,0
1,note_on,65,0,160
1,note_on,70,0,0
1,note_on,68,47,0
1,note_on,58,32,160
1,note_on,58,0,160
1,note_on,65,31,0
1,note_on,65,0,160
1,note_on,68,0,0
1,note_on,68,44,0
1,note_on,68,0,160
1,note_on,58,33,0
1,note_on,58,0,160
1,note_on,63,35,0
1,note_on,63,0,160
1,note_on,66,44,0
1,note_on,66,0,160
1,note_on,58,32,0
1,note_on,58,0,160
1,note_on,63,32,0
1,note_on,63,0,160
1,note_on,65,40,0
1,note_on,65,0,160
1,note_on,56,31,0
1,note_on,56,0,160
1,note_on,59,31,0
1,note_on,59,0,160
1,note_on,71,44,0
1,note_on,71,0,160
1,note_on,59,30,0
1,note_on,59,0,160
1,note_on,65,30,0
1,note_on,65,0,160
1,note_on,63,42,0
1,note_on,51,32,160
1,note_on,51,0,160
1,note_on,54,32,0
1,note_on,54,0,160
1,note_on,58,32,0
1,note_on,58,0,160
1,note_on,54,32,0
1,note_on,54,0,160
1,note_on,51,32,0
1,note_on,51,0,160
1,note_on,63,0,0
1,note_on,62,42,0
1,note_on,50,33,160
1,note_on,50,0,160
1,note_on,58,33,0
1,note_on,53,33,0
1,note_on,53,0,160
1,note_on,58,0,0
1,note_on,70,33,0
1,note_on,58,33,160
1,note_on,62,0,80
1,note_on,58,0,80
1,note_on,65,44,0
1,note_on,65,0,160
1,note_on,70,0,0
1,note_on,68,37,0
1,note_on,68,0,160
1,note_on,58,28,0
1,note_on,58,0,160
1,note_on,63,29,0
1,note_on,63,0,160
1,note_on,66,37,0
1,note_on,66,0,160
1,note_on,58,27,0
1,note_on,58,0,160
1,note_on,63,27,0
1,note_on,63,0,160
1,note_on,64,34,0
1,note_on,64,0,160
1,note_on,56,26,0
1,note_on,56,0,160
1,note_on,59,26,0
1,note_on,59,0,160
1,note_on,71,37,0
1,note_on,71,0,160
1,note_on,59,25,0
1,note_on,59,0,160
1,note_on,64,25,0
1,note_on,64,0,160
1,note_on,63,35,0
1,note_on,51,27,160
1,note_on,51,0,160
1,note_on,54,27,0
1,note_on,54,0,160
1,note_on,59,27,0
1,note_on,59,0,160
1,note_on,54,27,0
1,note_on,54,0,160
1,note_on,51,27,0
1,note_on,51,0,160
1,note_on,63,0,0
1,note_on,61,35,0
1,note_on,49,28,160
1,note_on,49,0,160
1,note_on,54,28,0
1,note_on,54,0,160
1,note_on,58,28,0
1,note_on,58,0,160
1,note_on,54,28,0
1,note_on,54,0,160
1,note_on,49,31,0
1,note_on,49,0,160
1,note_on,61,0,0
1,note_on,66,39,0
1,note_on,54,24,160
1,note_on,54,0,160
1,note_on,59,24,0
1,note_on,59,0,160
1,note_on,63,24,0
1,note_on,63,0,160
1,note_on,59,24,0
1,note_on,59,0,160
1,note_on,54,24,0
1,note_on,54,0,160
1,note_on,59,27,0
1,note_on,59,0,160
1,note_on,54,24,0
1,note_on,54,0,160
1,note_on,59,22,0
1,note_on,59,0,160
1,note_on,63,25,0
1,note_on,63,0,160
1,note_on,59,23,0
1,note_on,59,0,160
1,note_on,54,22,0
1,note_on,54,0,160
1,note_on,66,0,0
1,note_on,66,35,0
1,note_on,54,25,160
1,note_on,54,0,160
1,note_on,58,26,0
1,note_on,58,0,160
1,note_on,64,28,0
1,note_on,64,0,160
1,note_on,58,25,0
1,note_on,58,0,160
1,note_on,54,25,0
1,note_on,54,0,160
1,note_on,66,0,0
1,note_on,68,34,0
1,note_on,58,27,160
1,note_on,58,0,160
1,note_on,64,27,0
1,note_on,64,0,160
1,note_on,68,0,0
1,note_on,66,33,0
1,note_on,64,27,160
1,note_on,64,0,160
1,note_on,58,27,0
1,note_on,58,0,160
1,note_on,66,0,0
1,note_on,75,41,0
1,note_on,63,25,160
1,note_on,63,0,160
1,note_on,66,25,0
1,note_on,66,0,160
1,note_on,71,31,0
1,note_on,71,0,160
1,note_on,66,25,0
1,note_on,66,0,160
1,note_on,63,25,0
1,note_on,63,0,160
1,note_on,66,28,0
1,note_on,66,0,160
1,note_on,63,25,0
1,note_on,63,0,160
1,note_on,66,28,0
1,note_on,66,0,160
1,note_on,75,0,0
1,note_on,73,31,0
1,note_on,67,23,160
1,note_on,67,0,160
1,note_on,63,23,0
1,note_on,63,0,160
1,note_on,73,0,0
1,note_on,73,37,0
1,note_on,68,25,160
1,note_on,68,0,160
1,note_on,59,23,0
1,note_on,59,0,160
1,note_on,73,0,0
1,note_on,71,36,0
1,note_on,68,22,160
1,note_on,68,0,160
1,note_on,59,22,0
1,note_on,59,0,160
1,note_on,71,0,0
1,note_on,68,35,0
1,note_on,64,23,160
1,note_on,64,0,160
1,note_on,59,23,0
1,note_on,59,0,160
1,note_on,68,0,0
1,note_on,64,31,0
1,note_on,61,22,160
1,note_on,61,0,160
1,note_on,56,22,0
1,note_on,56,0,160
1,note_on,64,0,0
1,note_on,63,38,0
1,note_on,51,26,160
1,note_on,51,0,160
1,note_on,54,26,0
1,note_on,54,0,160
1,note_on,59,28,0
1,note_on,59,0,160
1,note_on,54,26,0
1,note_on,54,0,160
1,note_on,51,26,0
1,note_on,51,0,160
1,note_on,54,27,0
1,note_on,54,0,160
1,note_on,51,26,0
1,note_on,51,0,160
1,note_on,54,28,0
1,note_on,54,0,160
1,note_on,63,0,0
1,note_on,59,28,0
1,note_on,63,35,0
1,note_on,59,0,160
1,note_on,54,28,0
1,note_on,54,0,160
1,note_on,51,28,0
1,note_on,51,0,160
1,note_on,63,0,0
1,note_on,68,38,0
1,note_on,58,28,160
1,note_on,58,0,160
1,note_on,61,28,0
1,note_on,61,0,160
1,note_on,68,0,0
1,note_on,66,36,0
1,note_on,58,27,160
1,note_on,58,0,160
1,note_on,61,28,0
1,note_on,61,0,160
1,note_on,66,0,0
1,note_on,64,35,0
1,note_on,54,27,160
1,note_on,54,0,160
1,note_on,58,27,0
1,note_on,58,0,160
1,note_on,64,0,0
1,note_on,61,34,0
1,note_on,54,26,160
1,note_on,54,0,160
1,note_on,58,26,0
1,note_on,58,0,160
1,note_on,61,0,0
1,note_on,59,30,0
1,note_on,47,20,160
1,note_on,47,0,160
1,note_on,51,20,0
1,note_on,51,0,160
1,note_on,54,22,0
1,note_on,54,0,160
1,note_on,51,20,0
1,note_on,51,0,160
1,note_on,47,20,0
1,note_on,47,0,160
1,note_on,51,21,0
1,note_on,51,0,160
1,note_on,47,20,0
1,note_on,47,0,160
1,note_on,51,22,0
1,note_on,51,0,160
1,note_on,59,0,0
1,note_on,54,22,0
1,note_on,54,0,160
1,note_on,51,22,0
1,note_on,51,0,160
1,note_on,47,22,0
1,note_on,47,0,160
1,note_on,59,30,0
1,note_on,47,20,160
1,note_on,47,0,160
1,note_on,52,20,0
1,note_on,52,0,160
1,note_on,55,22,0
1,note_on,55,0,160
1,note_on,52,20,0
1,note_on,52,0,160
1,note_on,47,20,0
1,note_on,47,0,160
1,note_on,52,21,0
1,note_on,52,0,160
1,note_on,47,20,0
1,note_on,47,0,160
1,note_on,52,22,0
1,note_on,52,0,160
1,note_on,59,0,0
1,note_on,55,22,0
1,note_on,55,0,160
1,note_on,52,22,0
1,note_on,52,0,160
1,note_on,47,22,0
1,note_on,47,0,160
1,note_on,59,30,0
1,note_on,47,20,160
1,note_on,47,0,160
1,note_on,51,20,0
1,note_on,51,0,160
1,note_on,54,22,0
1,note_on,54,0,160
1,note_on,51,20,0
1,note_on,51,0,160
1,note_on,47,20,0
1,note_on,47,0,160
1,note_on,51,25,0
1,note_on,51,0,160
1,note_on,47,34,0
1,note_on,47,0,160
1,note_on,51,38,0
1,note_on,51,0,160
1,note_on,59,0,0
1,note_on,54,42,0
1,note_on,54,0,160
1,note_on,51,46,0
1,note_on,51,0,160
1,note_on,47,50,0
1,note_on,47,0,160
1,note_on,59,54,0
1,note_on,47,51,160
1,note_on,47,0,160
1,note_on,50,47,0
1,note_on,50,0,160
1,note_on,53,42,0
1,note_on,53,0,160
1,note_on,50,38,0
1,note_on,50,0,160
1,note_on,47,34,0
1,note_on,47,0,160
1,note_on,59,0,0
1,note_on,58,39,0
1,note_on,49,20,160
1,note_on,49,0,160
1,note_on,52,22,0
1,note_on,52,0,160
1,note_on,54,22,0
1,note_on,54,0,160
1,note_on,52,22,0
1,note_on,52,0,160
1,note_on,49,22,0
1,note_on,49,0,160
1,note_on,58,0,0
1,note_on,59,30,0
1,note_on,47,20,160
1,note_on,47,0,160
1,note_on,51,20,0
1,note_on,51,0,160
1,note_on,54,22,0
1,note_on,54,0,160
1,note_on,51,20,0
1,note_on,51,0,160
1,note_on,47,20,0
1,note_on,47,0,160
1,note_on,51,21,0
1,note_on,51,0,160
1,note_on,47,20,0
1,note_on,47,0,160
1,note_on,51,22,0
1,note_on,51,0,160
1,note_on,59,0,0
1,note_on,54,22,0
1,note_on,54,0,160
1,note_on,51,22,0
1,note_on,51,0,160
1,note_on,47,22,0
1,note_on,47,0,160
1,note_on,59,30,0
1,note_on,47,20,160
1,note_on,47,0,160
1,note_on,52,20,0
1,note_on,52,0,160
1,note_on,56,22,0
1,note_on,56,0,160
1,note_on,52,20,0
1,note_on,52,0,160
1,note_on,47,20,0
1,note_on,47,0,160
1,note_on,52,21,0
1,note_on,52,0,160
1,note_on,47,20,0
1,note_on,47,0,160
1,note_on,52,22,0
1,note_on,52,0,160
1,note_on,59,0,0
1,note_on,56,22,0
1,note_on,56,0,160
1,note_on,52,22,0
1,note_on,52,0,160
1,note_on,47,22,0
1,note_on,47,0,160
1,note_on,59,30,0
1,note_on,47,20,160
1,note_on,47,0,160
1,note_on,51,20,0
1,note_on,51,0,160
1,note_on,54,22,0
1,note_on,54,0,160
1,note_on,51,20,0
1,note_on,51,0,160
1,note_on,47,20,0
1,note_on,47,0,160
1,note_on,51,25,0
1,note_on,51,0,160
1,note_on,47,33,0
1,note_on,47,0,160
1,note_on,51,36,0
1,note_on,51,0,160
1,note_on,59,0,0
1,note_on,54,39,0
1,note_on,54,0,160
1,note_on,51,42,0
1,note_on,51,0,160
1,note_on,47,45,0
1,note_on,47,0,160
1,note_on,59,48,0
1,note_on,47,45,160
1,note_on,47,0,160
1,note_on,50,42,0
1,note_on,50,0,160
1,note_on,53,40,0
1,note_on,53,0,160
1,note_on,50,37,0
1,note_on,50,0,160
1,note_on,47,35,0
1,note_on,47,0,160
1,note_on,59,0,0
1,note_on,58,39,0
1,note_on,49,20,160
1,note_on,49,0,160
1,note_on,52,22,0
1,note_on,52,0,160
1,note_on,54,22,0
1,note_on,54,0,160
1,note_on,52,22,0
1,note_on,52,0,160
1,note_on,49,22,0
1,note_on,49,0,160
1,note_on,58,0,0
1,note_on,59,30,0
1,note_on,47,20,160
1,note_on,47,0,160
1,note_on,51,20,0
1,note_on,51,0,160
1,note_on,54,22,0
1,note_on,54,0,160
1,note_on,51,20,0
1,note_on,51,0,160
1,note_on,47,20,0
1,note_on,47,0,160
1,note_on,51,25,0
1,note_on,51,0,160
1,note_on,47,28,0
1,note_on,47,0,160
1,note_on,51,31,0
1,note_on,51,0,160
1,note_on,59,0,0
1,note_on,54,34,0
1,note_on,54,0,160
1,note_on,51,37,0
1,note_on,51,0,160
1,note_on,47,40,0
1,note_on,47,0,160
1,note_on,59,49,0
1,note_on,51,41,160
1,note_on,51,0,160
1,note_on,54,41,0
1,note_on,54,0,160
1,note_on,59,0,0
1,note_on,63,54,0
1,note_on,54,46,160
1,note_on,54,0,160
1,note_on,59,42,0
1,note_on,59,0,160
1,note_on,63,0,0
1,note_on,66,62,0
1,note_on,59,49,160
1,note_on,59,0,160
1,note_on,63,53,0
1,note_on,63,0,160
1,note_on,66,0,0
1,note_on,71,67,0
1,note_on,63,55,160
1,note_on,63,0,160
1,note_on,66,58,0
1,note_on,66,0,160
1,note_on,71,0,0
1,note_on,71,77,0
1,note_on,59,60,160
1,note_on,59,0,160
1,note_on,62,60,0
1,note_on,62,0,160
1,note_on,65,68,0
1,note_on,65,0,160
1,note_on,62,49,0
1,note_on,62,0,160
1,note_on,59,57,0
1,note_on,59,0,160
1,note_on,62,65,0
1,note_on,62,0,160
1,note_on,59,54,0
1,note_on,59,0,160
1,note_on,62,54,0
1,note_on,62,0,160
1,note_on,65,63,0
1,note_on,65,0,160
1,note_on,62,54,0
1,note_on,62,0,160
1,note_on,59,54,0
1,note_on,59,0,160
1,note_on,71,0,0
1,note_on,70,75,0
1,note_on,56,50,160
1,note_on,56,0,160
1,note_on,62,50,0
1,note_on,62,0,160
1,note_on,70,0,0
1,note_on,68,68,0
1,note_on,65,46,0
1,note_on,65,0,160
1,note_on,62,49,0
1,note_on,62,0,160
1,note_on,56,44,0
1,note_on,56,0,160
1,note_on,62,56,0
1,note_on,62,0,160
1,note_on,56,46,0
1,note_on,56,0,160
1,note_on,62,41,0
1,note_on,62,0,160
1,note_on,65,57,0
1,note_on,65,0,160
1,note_on,62,46,0
1,note_on,62,0,160
1,note_on,56,46,0
1,note_on,56,0,160
1,note_on,68,0,0
1,note_on,66,75,0
1,note_on,56,53,160
1,note_on,56,0,160
1,note_on,58,53,0
1,note_on,58,0,160
1,note_on,66,0,0
1,note_on,65,68,0
1,note_on,59,46,0
1,note_on,59,0,160
1,note_on,58,44,0
1,note_on,58,0,160
1,note_on,56,46,0
1,note_on,56,0,160
1,note_on,58,56,0
1,note_on,58,0,160
1,note_on,56,46,0
1,note_on,56,0,160
1,note_on,58,41,0
1,note_on,58,0,160
1,note_on,59,53,0
1,note_on,59,0,160
1,note_on,58,46,0
1,note_on,58,0,160
1,note_on,56,46,0
1,note_on,56,0,160
1,note_on,65,0,0
1,note_on,63,75,0
1,note_on,56,53,160
1,note_on,56,0,160
1,note_on,58,53,0
1,note_on,58,0,160
1,note_on,63,0,0
1,note_on,62,68,0
1,note_on,59,46,0
1,note_on,59,0,160
1,note_on,58,50,0
1,note_on,58,0,160
1,note_on,56,50,0
1,note_on,56,0,160
1,note_on,58,56,0
1,note_on,58,0,160
1,note_on,56,41,0
1,note_on,56,0,160
1,note_on,58,35,0
1,note_on,58,0,160
1,note_on,59,49,0
1,note_on,59,0,160
1,note_on,58,37,0
1,note_on,58,0,160
1,note_on,56,35,0
1,note_on,56,0,160
1,note_on,62,0,0
1,note_on,65,45,0
1,note_on,54,30,160
1,note_on,54,0,160
1,note_on,58,24,0
1,note_on,58,0,160
1,note_on,65,0,0
1,note_on,63,44,0
1,note_on,54,29,160
1,note_on,54,0,160
1,note_on,58,24,0
1,note_on,58,0,160
1,note_on,63,0,0
1,note_on,66,47,0
1,note_on,56,30,160
1,note_on,56,0,160
1,note_on,59,24,0
1,note_on,59,0,160
1,note_on,66,0,0
1,note_on,65,44,0
1,note_on,56,35,160
1,note_on,56,0,160
1,note_on,59,30,0
1,note_on,59,0,160
1,note_on,65,0,0
1,note_on,68,54,0
1,note_on,58,37,160
1,note_on,58,0,160
1,note_on,63,30,0
1,note_on,63,0,160
1,note_on,68,0,0
1,note_on,66,47,0
1,note_on,58,30,160
1,note_on,58,0,160
1,note_on,63,26,0
1,note_on,63,0,160
1,note_on,66,0,0
1,note_on,65,50,0
1,note_on,56,29,160
1,note_on,56,0,160
1,note_on,59,24,0
1,note_on,59,0,160
1,note_on,65,0,0
1,note_on,68,45,0
1,note_on,56,29,160
1,note_on,56,0,160
1,note_on,59,25,0
1,note_on,59,0,160
1,note_on,68,0,0
1,note_on,63,30,0
1,note_on,51,20,160
1,note_on,51,0,160
1,note_on,54,20,0
1,note_on,54,0,160
1,note_on,58,22,0
1,note_on,58,0,160
1,note_on,54,20,0
1,note_on,54,0,160
1,note_on,51,20,0
1,note_on,51,0,160
1,note_on,54,25,0
1,note_on,54,0,160
1,note_on,51,28,0
1,note_on,51,0,160
1,note_on,54,28,0
1,note_on,54,0,160
1,note_on,63,0,0
1,note_on,58,34,0
1,note_on,58,0,160
1,note_on,54,37,0
1,note_on,54,0,160
1,note_on,51,40,0
1,note_on,51,0,160
1,note_on,62,49,0
1,note_on,50,41,160
1,note_on,50,0,160
1,note_on,53,41,0
1,note_on,53,0,160
1,note_on,58,40,0
1,note_on,58,0,160
1,note_on,53,42,0
1,note_on,53,0,160
1,note_on,50,42,0
1,note_on,50,0,160
1,note_on,62,0,0
1,note_on,65,58,0
1,note_on,58,49,160
1,note_on,58,0,160
1,note_on,62,53,0
1,note_on,62,0,160
1,note_on,65,0,0
1,note_on,70,64,0
1,note_on,62,54,160
1,note_on,62,0,160
1,note_on,65,58,0
1,note_on,65,0,160
1,note_on,70,0,0
1,note_on,71,77,0
1,note_on,59,51,160
1,note_on,59,0,160
1,note_on,62,56,0
1,note_on,62,0,160
1,note_on,65,66,0
1,note_on,65,0,160
1,note_on,62,49,0
1,note_on,62,0,160
1,note_on,59,56,0
1,note_on,59,0,160
1,note_on,62,61,0
1,note_on,62,0,160
1,note_on,59,56,0
1,note_on,59,0,160
1,note_on,62,56,0
1,note_on,62,0,160
1,note_on,65,56,0
1,note_on,65,0,160
1,note_on,62,56,0
1,note_on,62,0,160
1,note_on,59,57,0
1,note_on,59,0,160
1,note_on,71,0,0
1,note_on,70,75,0
1,note_on,56,52,160
1,note_on,56,0,160
1,note_on,62,52,0
1,note_on,62,0,160
1,note_on,70,0,0
1,note_on,68,68,0
1,note_on,65,46,0
1,note_on,65,0,160
1,note_on,62,48,0
1,note_on,62,0,160
1,note_on,56,48,0
1,note_on,56,0,160
1,note_on,62,56,0
1,note_on,62,0,160
1,note_on,56,46,0
1,note_on,56,0,160
1,note_on,62,41,0
1,note_on,62,0,160
1,note_on,65,53,0
1,note_on,65,0,160
1,note_on,62,46,0
1,note_on,62,0,160
1,note_on,56,46,0
1,note_on,56,0,160
1,note_on,68,0,0
1,note_on,66,75,0
1,note_on,56,52,160
1,note_on,56,0,160
1,note_on,58,53,0
1,note_on,58,0,160
1,note_on,66,0,0
1,note_on,65,68,0
1,note_on,59,46,0
1,note_on,59,0,160
1,note_on,58,44,0
1,note_on,58,0,160
1,note_on,56,50,0
1,note_on,56,0,160
1,note_on,58,56,0
1,note_on,58,0,160
1,note_on,56,46,0
1,note_on,56,0,160
1,note_on,58,41,0
1,note_on,58,0,160
1,note_on,59,53,0
1,note_on,59,0,160
1,note_on,58,46,0
1,note_on,58,0,160
1,note_on,56,46,0
1,note_on,56,0,160
1,note_on,65,0,0
1,note_on,63,75,0
1,note_on,56,56,160
1,note_on,56,0,160
1,note_on,58,56,0
1,note_on,58,0,160
1,note_on,63,0,0
1,note_on,62,68,0
1,note_on,59,46,0
1,note_on,59,0,160
1,note_on,58,47,0
1,note_on,58,0,160
1,note_on,56,47,0
1,note_on,56,0,160
1,note_on,58,56,0
1,note_on,58,0,160
1,note_on,56,41,0
1,note_on,56,0,160
1,note_on,58,39,0
1,note_on,58,0,160
1,note_on,59,49,0
1,note_on,59,0,160
1,note_on,58,37,0
1,note_on,58,0,160
1,note_on,56,35,0
1,note_on,56,0,160
1,note_on,62,0,0
1,note_on,65,45,0
1,note_on,54,30,160
1,note_on,54,0,160
1,note_on,58,24,0
1,note_on,58,0,160
1,note_on,65,0,0
1,note_on,63,44,0
1,note_on,54,29,160
1,note_on,54,0,160
1,note_on,58,24,0
1,note_on,58,0,160
1,note_on,63,0,0
1,note_on,66,47,0
1,note_on,56,30,160
1,note_on,56,0,160
1,note_on,59,24,0
1,note_on,59,0,160
1,note_on,66,0,0
1,note_on,65,44,0
1,note_on,56,35,160
1,note_on,56,0,160
1,note_on,59,30,0
1,note_on,59,0,160
1,note_on,65,0,0
1,note_on,68,54,0
1,note_on,58,37,160
1,note_on,58,0,160
1,note_on,63,30,0
1,note_on,63,0,160
1,note_on,68,0,0
1,note_on,66,47,0
1,note_on,58,30,160
1,note_on,58,0,160
1,note_on,63,26,0
1,note_on,63,0,160
1,note_on,66,0,0
1,note_on,64,50,0
1,note_on,56,29,160
1,note_on,56,0,160
1,note_on,59,24,0
1,note_on,71,45,146
1,note_on,59,0,14
1,note_on,64,0,0
1,note_on,59,29,160
1,note_on,59,0,160
1,note_on,64,25,0
1,note_on,71,0,146
1,note_on,64,0,14
1,note_on,63,30,0
1,note_on,51,20,160
1,note_on,51,0,160
1,note_on,54,20,0
1,note_on,54,0,160
1,note_on,58,22,0
1,note_on,58,0,160
1,note_on,54,20,0
1,note_on,54,0,160
1,note_on,51,20,0
1,note_on,51,0,160
1,note_on,54,25,0
1,note_on,54,0,160
1,note_on,51,28,0
1,note_on,51,0,160
1,note_on,54,28,0
1,note_on,54,0,160
1,note_on,63,0,0
1,note_on,58,34,0
1,note_on,58,0,160
1,note_on,54,37,0
1,note_on,54,0,160
1,note_on,51,40,0
1,note_on,51,0,160
1,note_on,62,49,0
1,note_on,50,41,160
1,note_on,50,0,160
1,note_on,53,38,0
1,note_on,53,0,160
1,note_on,58,40,0
1,note_on,58,0,160
1,note_on,53,35,0
1,note_on,53,0,160
1,note_on,50,36,0
1,note_on,50,0,160
1,note_on,62,0,0
1,note_on,53,40,0
1,note_on,53,0,160
1,note_on,50,35,0
1,note_on,50,0,160
1,note_on,53,35,0
1,note_on,53,0,160
1,note_on,58,40,0
1,note_on,58,0,160
1,note_on,53,35,0
1,note_on,53,0,160
1,note_on,50,36,0
1,note_on,50,0,160
1,note_on,70,47,0
1,note_on,58,32,160
1,note_on,58,0,160
1,note_on,63,32,0
1,note_on,63,0,160
1,note_on,67,37,0
1,note_on,67,0,160
1,note_on,63,32,0
1,note_on,63,0,160
1,note_on,58,33,0
1,note_on,58,0,160
1,note_on,63,35,0
1,note_on,63,0,160
1,note_on,58,31,0
1,note_on,58,0,160
1,note_on,63,31,0
1,note_on,63,0,160
1,note_on,67,36,0
1,note_on,67,0,160
1,note_on,63,30,0
1,note_on,63,0,160
1,note_on,58,30,0
1,note_on,58,0,160
1,note_on,70,0,0
1,note_on,70,50,0
1,note_on,58,29,160
1,note_on,58,0,160
1,note_on,62,29,0
1,note_on,62,0,160
1,note_on,70,0,0
1,note_on,68,38,0
1,note_on,68,0,160
1,note_on,62,28,0
1,note_on,62,0,160
1,note_on,58,28,0
1,note_on,58,0,160
1,note_on,72,42,0
1,note_on,62,28,160
1,note_on,62,0,160
1,note_on,68,28,0
1,note_on,68,0,160
1,note_on,72,0,0
1,note_on,70,39,0
1,note_on,68,28,160
1,note_on,68,0,160
1,note_on,62,28,0
1,note_on,62,0,160
1,note_on,70,0,0
1,note_on,79,41,0
1,note_on,67,25,160
1,note_on,67,0,160
1,note_on,70,25,0
1,note_on,70,0,160
1,note_on,75,31,0
1,note_on,75,0,160
1,note_on,70,25,0
1,note_on,70,0,160
1,note_on,67,25,0
1,note_on,67,0,160
1,note_on,70,28,0
1,note_on,70,0,160
1,note_on,67,25,0
1,note_on,67,0,160
1,note_on,70,28,0
1,note_on,70,0,160
1,note_on,79,0,0
1,note_on,77,31,0
1,note_on,71,23,160
1,note_on,71,0,160
1,note_on,67,23,0
1,note_on,67,0,160
1,note_on,77,0,0
1,note_on,77,37,0
1,note_on,72,25,160
1,note_on,72,0,160
1,note_on,63,23,0
1,note_on,63,0,160
1,note_on,77,0,0
1,note_on,75,36,0
1,note_on,72,22,160
1,note_on,72,0,160
1,note_on,63,22,0
1,note_on,63,0,160
1,note_on,75,0,0
1,note_on,72,35,0
1,note_on,68,23,160
1,note_on,68,0,160
1,note_on,63,23,0
1,note_on,63,0,160
1,note_on,72,0,0
1,note_on,68,31,0
1,note_on,65,22,160
1,note_on,65,0,160
1,note_on,60,22,0
1,note_on,60,0,160
1,note_on,68,0,0
1,note_on,67,39,0
1,note_on,55,24,160
1,note_on,55,0,160
1,note_on,58,24,0
1,note_on,58,0,160
1,note_on,63,29,0
1,note_on,63,0,160
1,note_on,58,25,0
1,note_on,58,0,160
1,note_on,55,25,0
1,note_on,55,0,160
1,note_on,58,29,0
1,note_on,58,0,160
1,note_on,55,24,0
1,note_on,55,0,160
1,note_on,58,24,0
1,note_on,58,0,160
1,note_on,67,0,0
1,note_on,63,38,0
1,note_on,67,38,0
1,note_on,63,0,160
1,note_on,58,25,0
1,note_on,58,0,160
1,note_on,55,25,0
1,note_on,55,0,160
1,note_on,67,0,0
1,note_on,72,36,0
1,note_on,62,26,160
1,note_on,62,0,160
1,note_on,65,26,0
1,note_on,65,0,160
1,note_on,72,0,0
1,note_on,70,36,0
1,note_on,62,22,160
1,note_on,62,0,160
1,note_on,65,22,0
1,note_on,65,0,160
1,note_on,70,0,0
1,note_on,68,33,0
1,note_on,58,24,160
1,note_on,58,0,160
1,note_on,62,24,0
1,note_on,62,0,160
1,note_on,68,0,0
1,note_on,65,33,0
1,note_on,58,22,160
1,note_on,58,0,160
1,note_on,62,22,0
1,note_on,62,0,160
1,note_on,65,0,0
1,note_on,63,30,0
1,note_on,51,20,160
1,note_on,51,0,160
1,note_on,55,20,0
1,note_on,55,0,160
1,note_on,58,22,0
1,note_on,58,0,160
1,note_on,55,20,0
1,note_on,55,0,160
1,note_on,51,20,0
1,note_on,51,0,160
1,note_on,55,21,0
1,note_on,55,0,160
1,note_on,51,20,0
1,note_on,51,0,160
1,note_on,55,22,0
1,note_on,55,0,160
1,note_on,63,0,0
1,note_on,58,22,0
1,note_on,58,0,160
1,note_on,55,22,0
1,note_on,55,0,160
1,note_on,51,22,0
1,note_on,51,0,160
1,note_on,63,30,0
1,note_on,51,20,160
1,note_on,51,0,160
1,note_on,55,20,0
1,note_on,55,0,160
1,note_on,58,22,0
1,note_on,58,0,160
1,note_on,55,20,0
1,note_on,55,0,160
1,note_on,51,20,0
1,note_on,51,0,160
1,note_on,55,21,0
1,note_on,55,0,160
1,note_on,51,20,0
1,note_on,51,0,160
1,note_on,55,22,0
1,note_on,55,0,160
1,note_on,63,0,0
1,note_on,58,22,0
1,note_on,58,0,160
1,note_on,55,22,0
1,note_on,55,0,160
1,note_on,51,22,0
1,note_on,51,0,160
1,note_on,63,30,0
1,note_on,51,20,160
1,note_on,51,0,160
1,note_on,56,20,0
1,note_on,56,0,160
1,note_on,59,22,0
1,note_on,59,0,160
1,note_on,56,20,0
1,note_on,56,0,160
1,note_on,51,20,0
1,note_on,51,0,160
1,note_on,56,21,0
1,note_on,56,0,160
1,note_on,51,20,0
1,note_on,51,0,160
1,note_on,56,22,0
1,note_on,56,0,160
1,note_on,63,0,0
1,note_on,59,22,0
1,note_on,59,0,160
1,note_on,56,22,0
1,note_on,56,0,160
1,note_on,51,22,0
1,note_on,51,0,160
1,note_on,63,30,0
1,note_on,51,20,160
1,note_on,51,0,160
1,note_on,55,20,0
1,note_on,55,0,160
1,note_on,61,22,0
1,note_on,61,0,160
1,note_on,55,20,0
1,note_on,55,0,160
1,note_on,51,20,0
1,note_on,51,0,160
1,note_on,55,21,0
1,note_on,55,0,160
1,note_on,51,20,0
1,note_on,51,0,160
1,note_on,55,22,0
1,note_on,55,0,160
1,note_on,63,0,0
1,note_on,61,22,0
1,note_on,61,0,160
1,note_on,55,22,0
1,note_on,55,0,160
1,note_on,51,22,0
1,note_on,51,0,160
1,note_on,63,30,0
1,note_on,51,20,160
1,note_on,51,0,160
1,note_on,56,20,0
1,note_on,56,0,160
1,note_on,59,22,0
1,note_on,59,0,160
1,note_on,56,20,0
1,note_on,56,0,160
1,note_on,51,20,0
1,note_on,51,0,160
1,note_on,56,21,0
1,note_on,56,0,160
1,note_on,51,20,0
1,note_on,51,0,160
1,note_on,56,22,0
1,note_on,56,0,160
1,note_on,63,0,0
1,note_on,59,22,0
1,note_on,59,0,160
1,note_on,56,22,0
1,note_on,56,0,160
1,note_on,51,22,0
1,note_on,51,0,160
1,note_on,68,36,0
1,note_on,56,24,160
1,note_on,56,0,160
1,note_on,59,24,0
1,note_on,59,0,160
1,note_on,62,27,0
1,note_on,62,0,160
1,note_on,59,25,0
1,note_on,59,0,160
1,note_on,56,25,0
1,note_on,56,0,160
1,note_on,59,39,0
1,note_on,59,0,160
1,note_on,56,43,0
1,note_on,56,0,160
1,note_on,59,46,0
1,note_on,59,0,160
1,note_on,68,0,0
1,note_on,62,50,0
1,note_on,62,0,160
1,note_on,59,54,0
1,note_on,59,0,160
1,note_on,56,57,0
1,note_on,56,0,160
1,note_on,71,74,0
1,note_on,59,55,160
1,note_on,59,0,160
1,note_on,61,55,0
1,note_on,61,0,160
1,note_on,68,64,0
1,note_on,68,0,160
1,note_on,61,48,0
1,note_on,61,0,160
1,note_on,59,48,0
1,note_on,59,0,160
1,note_on,61,52,0
1,note_on,61,0,160
1,note_on,59,42,0
1,note_on,59,0,160
1,note_on,61,42,0
1,note_on,61,0,160
1,note_on,68,51,0
1,note_on,68,0,160
1,note_on,61,38,0
1,note_on,61,0,160
1,note_on,59,36,0
1,note_on,59,0,160
1,note_on,62,46,0
1,note_on,62,0,160
1,note_on,59,38,0
1,note_on,59,0,160
1,note_on,62,37,0
1,note_on,62,0,160
1,note_on,68,36,0
1,note_on,68,0,160
1,note_on,62,36,0
1,note_on,62,0,160
1,note_on,59,35,0
1,note_on,59,0,160
1,note_on,61,34,0
1,note_on,61,0,160
1,note_on,59,33,0
1,note_on,59,0,160
1,note_on,61,32,0
1,note_on,61,0,160
1,note_on,68,31,0
1,note_on,68,0,160
1,note_on,61,30,0
1,note_on,61,0,160
1,note_on,59,29,0
1,note_on,59,0,160
1,note_on,71,0,0
1,note_on,70,44,0
1,note_on,58,26,160
1,note_on,58,0,160
1,note_on,61,26,0
1,note_on,61,0,160
1,note_on,66,29,0
1,note_on,66,0,160
1,note_on,61,25,0
1,note_on,61,0,160
1,note_on,58,25,0
1,note_on,58,0,160
1,note_on,61,30,0
1,note_on,61,0,160
1,note_on,58,25,0
1,note_on,58,0,160
1,note_on,61,25,0
1,note_on,61,0,160
1,note_on,66,29,0
1,note_on,66,0,160
1,note_on,61,26,0
1,note_on,61,0,160
1,note_on,58,26,0
1,note_on,58,0,160
1,note_on,70,0,0
1,note_on,70,41,0
1,note_on,58,27,160
1,note_on,58,0,160
1,note_on,61,29,0
1,note_on,61,0,160
1,note_on,66,31,0
1,note_on,66,0,160
1,note_on,61,26,0
1,note_on,61,0,160
1,note_on,58,29,0
1,note_on,58,0,160
1,note_on,70,0,0
1,note_on,70,44,0
1,note_on,58,28,160
1,note_on,58,0,160
1,note_on,61,30,0
1,note_on,61,0,160
1,note_on,66,35,0
1,note_on,66,0,160
1,note_on,61,31,0
1,note_on,61,0,160
1,note_on,58,33,0
1,note_on,58,0,160
1,note_on,70,0,0
1,note_on,70,49,0
1,note_on,58,27,160
1,note_on,58,0,160
1,note_on,63,27,0
1,note_on,63,0,160
1,note_on,66,34,0
1,note_on,66,0,160
1,note_on,63,29,0
1,note_on,63,0,160
1,note_on,58,29,0
1,note_on,58,0,160
1,note_on,63,37,0
1,note_on,63,0,160
1,note_on,58,29,0
1,note_on,58,0,160
1,note_on,63,29,0
1,note_on,63,0,160
1,note_on,66,36,0
1,note_on,66,0,160
1,note_on,63,29,0
1,note_on,63,0,160
1,note_on,58,29,0
1,note_on,58,0,160
1,note_on,70,0,0
1,note_on,66,49,0
1,note_on,54,30,160
1,note_on,54,0,160
1,note_on,58,30,0
1,note_on,58,0,160
1,note_on,63,36,0
1,note_on,63,0,160
1,note_on,58,30,0
1,note_on,58,0,160
1,note_on,54,30,0
1,note_on,54,0,160
1,note_on,58,37,0
1,note_on,58,0,160
1,note_on,54,30,0
1,note_on,54,0,160
1,note_on,58,30,0
1,note_on,58,0,160
1,note_on,63,35,0
1,note_on,63,0,160
1,note_on,58,30,0
1,note_on,58,0,160
1,note_on,54,30,0
1,note_on,54,0,160
1,note_on,66,0,0
1,note_on,68,49,0
1,note_on,56,29,160
1,note_on,56,0,160
1,note_on,59,29,0
1,note_on,59,0,160
1,note_on,63,37,0
1,note_on,63,0,160
1,note_on,59,29,0
1,note_on,59,0,160
1,note_on,56,29,0
1,note_on,56,0,160
1,note_on,59,37,0
1,note_on,59,0,160
1,note_on,56,29,0
1,note_on,56,0,160
1,note_on,59,29,0
1,note_on,59,0,160
1,note_on,63,36,0
1,note_on,63,0,160
1,note_on,59,29,0
1,note_on,59,0,160
1,note_on,56,29,0
1,note_on,56,0,160
1,note_on,68,0,0
1,note_on,66,46,0
1,note_on,56,29,160
1,note_on,56,0,160
1,note_on,59,29,0
1,note_on,59,0,160
1,note_on,66,0,0
1,note_on,65,45,0
1,note_on,56,28,160
1,note_on,56,0,160
1,note_on,59,28,0
1,note_on,59,0,160
1,note_on,65,0,0
1,note_on,63,44,0
1,note_on,56,29,160
1,note_on,56,0,160
1,note_on,59,30,0
1,note_on,59,0,160
1,note_on,63,0,0
1,note_on,61,40,0
1,note_on,53,29,160
1,note_on,53,0,160
1,note_on,56,30,0
1,note_on,56,0,160
1,note_on,61,0,0
1,note_on,66,49,0
1,note_on,54,32,160
1,note_on,54,0,160
1,note_on,58,33,0
1,note_on,58,0,160
1,note_on,61,35,0
1,note_on,61,0,160
1,note_on,58,36,0
1,note_on,58,0,160
1,note_on,54,38,0
1,note_on,54,0,160
1,note_on,66,0,0
1,note_on,70,48,0
1,note_on,60,38,160
1,note_on,60,0,160
1,note_on,63,36,0
1,note_on,63,0,160
1,note_on,66,35,0
1,note_on,66,0,160
1,note_on,63,33,0
1,note_on,63,0,160
1,note_on,60,32,0
1,note_on,60,0,160
1,note_on,70,0,0
1,note_on,68,41,0
1,note_on,56,27,160
1,note_on,56,0,160
1,note_on,61,27,0
1,note_on,61,0,160
1,note_on,65,30,0
1,note_on,65,0,160
1,note_on,61,27,0
1,note_on,61,0,160
1,note_on,56,27,0
1,note_on,56,0,160
1,note_on,61,30,0
1,note_on,61,0,160
1,note_on,56,27,0
1,note_on,56,0,160
1,note_on,61,27,0
1,note_on,61,0,160
1,note_on,68,0,0
1,note_on,65,31,0
1,note_on,69,39,0
1,note_on,65,0,160
1,note_on,61,24,0
1,note_on,61,0,160
1,note_on,57,24,0
1,note_on,57,0,160
1,note_on,69,0,0
1,note_on,70,44,0
1,note_on,58,26,160
1,note_on,58,0,160
1,note_on,61,26,0
1,note_on,61,0,160
1,note_on,66,29,0
1,note_on,66,0,160
1,note_on,61,25,0
1,note_on,61,0,160
1,note_on,58,25,0
1,note_on,58,0,160
1,note_on,61,30,0
1,note_on,61,0,160
1,note_on,58,25,0
1,note_on,58,0,160
1,note_on,61,25,0
1,note_on,61,0,160
1,note_on,66,29,0
1,note_on,66,0,160
1,note_on,61,26,0
1,note_on,61,0,160
1,note_on,58,26,0
1,note_on,58,0,160
1,note_on,70,0,0
1,note_on,70,41,0
1,note_on,58,27,160
1,note_on,58,0,160
1,note_on,61,29,0
1,note_on,61,0,160
1,note_on,66,31,0
1,note_on,66,0,160
1,note_on,61,26,0
1,note_on,61,0,160
1,note_on,58,29,0
1,note_on,58,0,160
1,note_on,70,0,0
1,note_on,70,44,0
1,note_on,58,28,160
1,note_on,58,0,160
1,note_on,61,30,0
1,note_on,61,0,160
1,note_on,66,35,0
1,note_on,66,0,160
1,note_on,61,31,0
1,note_on,61,0,160
1,note_on,58,33,0
1,note_on,58,0,160
1,note_on,70,0,0
1,note_on,70,49,0
1,note_on,58,27,160
1,note_on,58,0,160
1,note_on,63,27,0
1,note_on,63,0,160
1,note_on,66,34,0
1,note_on,66,0,160
1,note_on,63,29,0
1,note_on,63,0,160
1,note_on,58,29,0
1,note_on,58,0,160
1,note_on,63,37,0
1,note_on,63,0,160
1,note_on,58,29,0
1,note_on,58,0,160
1,note_on,63,29,0
1,note_on,63,0,160
1,note_on,66,36,0
1,note_on,66,0,160
1,note_on,63,29,0
1,note_on,63,0,160
1,note_on,58,29,0
1,note_on,58,0,160
1,note_on,70,0,0
1,note_on,66,49,0
1,note_on,54,30,160
1,note_on,54,0,160
1,note_on,58,30,0
1,note_on,58,0,160
1,note_on,63,36,0
1,note_on,63,0,160
1,note_on,58,30,0
1,note_on,58,0,160
1,note_on,54,30,0
1,note_on,54,0,160
1,note_on,66,0,0
1,note_on,65,49,0
1,note_on,53,30,160
1,note_on,53,0,160
1,note_on,56,30,0
1,note_on,56,0,160
1,note_on,62,35,0
1,note_on,62,0,160
1,note_on,56,30,0
1,note_on,56,0,160
1,note_on,53,30,0
1,note_on,53,0,160
1,note_on,65,0,0
1,note_on,63,49,0
1,note_on,51,35,160
1,note_on,51,0,160
1,note_on,54,40,0
1,note_on,54,0,160
1,note_on,59,45,0
1,note_on,59,0,160
1,note_on,54,50,0
1,note_on,54,0,160
1,note_on,51,56,0
1,note_on,51,0,160
1,note_on,63,0,0
1,note_on,68,65,0
1,note_on,56,48,160
1,note_on,56,0,160
1,note_on,59,45,0
1,note_on,59,0,160
1,note_on,63,55,0
1,note_on,63,0,160
1,note_on,59,33,0
1,note_on,59,0,160
1,note_on,56,36,0
1,note_on,56,0,160
1,note_on,68,0,0
1,note_on,66,46,0
1,note_on,56,29,160
1,note_on,56,0,160
1,note_on,59,29,0
1,note_on,59,0,160
1,note_on,66,0,0
1,note_on,65,45,0
1,note_on,56,28,160
1,note_on,56,0,160
1,note_on,59,28,0
1,note_on,59,0,160
1,note_on,65,0,0
1,note_on,63,44,0
1,note_on,56,29,160
1,note_on,56,0,160
1,note_on,59,30,0
1,note_on,59,0,160
1,note_on,63,0,0
1,note_on,65,40,0
1,note_on,56,29,160
1,note_on,56,0,160
1,note_on,59,30,0
1,note_on,59,0,160
1,note_on,65,0,0
1,note_on,68,49,0
1,note_on,59,27,160
1,note_on,59,0,160
1,note_on,61,27,0
1,note_on,61,0,160
1,note_on,65,34,0
1,note_on,65,0,160
1,note_on,61,29,0
1,note_on,61,0,160
1,note_on,59,29,0
1,note_on,59,0,160
1,note_on,61,37,0
1,note_on,61,0,160
1,note_on,59,29,0
1,note_on,59,0,160
1,note_on,61,29,0
1,note_on,61,0,160
1,note_on,65,36,0
1,note_on,65,0,160
1,note_on,61,29,0
1,note_on,61,0,160
1,note_on,59,29,0
1,note_on,59,0,160
1,note_on,68,0,0
1,note_on,66,49,0
1,note_on,54,30,160
1,note_on,54,0,160
1,note_on,58,30,0
1,note_on,58,0,160
1,note_on,61,36,0
1,note_on,61,0,160
1,note_on,58,30,0
1,note_on,58,0,160
1,note_on,54,30,0
1,note_on,54,0,160
1,note_on,58,37,0
1,note_on,58,0,160
1,note_on,54,30,0
1,note_on,54,0,160
1,note_on,58,30,0
1,note_on,58,0,160
1,note_on,61,35,0
1,note_on,61,0,160
1,note_on,58,30,0
1,note_on,58,0,160
1,note_on,54,30,0
1,note_on,54,0,160
1,note_on,66,0,0
1,note_on,68,44,0
1,note_on,56,26,160
1,note_on,56,0,160
1,note_on,61,26,0
1,note_on,61,0,160
1,note_on,65,29,0
1,note_on,65,0,160
1,note_on,61,25,0
1,note_on,61,0,160
1,note_on,56,25,0
1,note_on,56,0,160
1,note_on,61,30,0
1,note_on,61,0,160
1,note_on,56,26,0
1,note_on,56,0,160
1,note_on,61,26,0
1,note_on,61,0,160
1,note_on,65,30,0
1,note_on,65,0,160
1,note_on,61,27,0
1,note_on,61,0,160
1,note_on,56,27,0
1,note_on,56,0,160
1,note_on,68,0,0
1,note_on,70,43,0
1,note_on,61,29,160
1,note_on,61,0,160
1,note_on,64,31,0
1,note_on,64,0,160
1,note_on,67,39,0
1,note_on,67,0,160
1,note_on,64,31,0
1,note_on,64,0,160
1,note_on,61,38,0
1,note_on,61,0,160
1,note_on,63,42,0
1,note_on,63,0,160
1,note_on,61,45,0
1,note_on,61,0,160
1,note_on,63,49,0
1,note_on,63,0,160
1,note_on,67,55,0
1,note_on,67,0,160
1,note_on,63,53,0
1,note_on,63,0,160
1,note_on,61,59,0
1,note_on,61,0,160
1,note_on,70,0,0
1,note_on,73,70,0
1,note_on,61,48,160
1,note_on,61,0,160
1,note_on,63,49,0
1,note_on,70,58,153
1,note_on,63,0,7
1,note_on,70,0,153
1,note_on,63,39,7
1,note_on,63,0,160
1,note_on,61,42,0
1,note_on,61,0,160
1,note_on,63,53,0
1,note_on,63,0,160
1,note_on,61,40,0
1,note_on,61,0,160
1,note_on,63,33,0
1,note_on,63,0,160
1,note_on,73,0,0
1,note_on,71,50,0
1,note_on,68,37,0
1,note_on,68,0,160
1,note_on,63,33,0
1,note_on,63,0,160
1,note_on,59,33,0
1,note_on,59,0,160
1,note_on,71,0,0
1,note_on,71,41,0
1,note_on,59,28,160
1,note_on,59,0,160
1,note_on,63,28,0
1,note_on,63,0,160
1,note_on,68,30,0
1,note_on,68,0,160
1,note_on,63,25,0
1,note_on,63,0,160
1,note_on,59,25,0
1,note_on,59,0,160
1,note_on,63,31,0
1,note_on,63,0,160
1,note_on,59,25,0
1,note_on,59,0,160
1,note_on,63,25,0
1,note_on,63,0,160
1,note_on,68,29,0
1,note_on,68,0,160
1,note_on,63,25,0
1,note_on,63,0,160
1,note_on,59,25,0
1,note_on,59,0,160
1,note_on,71,0,0
1,note_on,71,54,0
1,note_on,59,33,160
1,note_on,59,0,160
1,note_on,64,33,0
1,note_on,64,0,160
1,note_on,68,37,0
1,note_on,68,0,160
1,note_on,64,32,0
1,note_on,64,0,160
1,note_on,59,32,0
1,note_on,59,0,160
1,note_on,64,39,0
1,note_on,64,0,160
1,note_on,59,33,0
1,note_on,59,0,160
1,note_on,64,33,0
1,note_on,64,0,160
1,note_on,68,39,0
1,note_on,68,0,160
1,note_on,64,35,0
1,note_on,64,0,160
1,note_on,59,36,0
1,note_on,59,0,160
1,note_on,71,0,0
1,note_on,71,49,0
1,note_on,59,37,160
1,note_on,59,0,160
1,note_on,63,40,0
1,note_on,63,0,160
1,note_on,66,44,0
1,note_on,66,0,160
1,note_on,63,38,0
1,note_on,63,0,160
1,note_on,59,40,0
1,note_on,59,0,160
1,note_on,71,0,0
1,note_on,73,51,0
1,note_on,64,46,160
1,note_on,64,0,160
1,note_on,66,49,0
1,note_on,66,0,160
1,note_on,70,58,0
1,note_on,70,0,160
1,note_on,66,54,0
1,note_on,66,0,160
1,note_on,64,62,0
1,note_on,64,0,160
1,note_on,73,0,0
1,note_on,76,69,0
1,note_on,64,49,160
1,note_on,64,0,160
1,note_on,66,49,0
1,note_on,66,0,160
1,note_on,73,63,0
1,note_on,73,0,160
1,note_on,66,46,0
1,note_on,66,0,160
1,note_on,64,46,0
1,note_on,64,0,160
1,note_on,66,54,0
1,note_on,66,0,160
1,note_on,64,36,0
1,note_on,64,0,160
1,note_on,66,37,0
1,note_on,66,0,160
1,note_on,76,0,0
1,note_on,75,57,0
1,note_on,71,42,0
1,note_on,71,0,160
1,note_on,66,37,0
1,note_on,66,0,160
1,note_on,63,37,0
1,note_on,63,0,160
1,note_on,75,0,0
1,note_on,75,45,0
1,note_on,63,31,160
1,note_on,63,0,160
1,note_on,66,31,0
1,note_on,66,0,160
1,note_on,71,34,0
1,note_on,71,0,160
1,note_on,66,28,0
1,note_on,66,0,160
1,note_on,63,28,0
1,note_on,63,0,160
1,note_on,66,35,0
1,note_on,66,0,160
1,note_on,63,28,0
1,note_on,63,0,160
1,note_on,66,28,0
1,note_on,66,0,160
1,note_on,71,34,0
1,note_on,71,0,160
1,note_on,66,28,0
1,note_on,66,0,160
1,note_on,63,28,0
1,note_on,63,0,160
1,note_on,75,0,0
1,note_on,75,47,0
1,note_on,63,32,160
1,note_on,63,0,160
1,note_on,66,32,0
1,note_on,66,0,160
1,note_on,71,32,0
1,note_on,71,0,160
1,note_on,66,32,0
1,note_on,66,0,160
1,note_on,63,43,0
1,note_on,63,0,160
1,note_on,66,31,0
1,note_on,66,0,160
1,note_on,63,31,0
1,note_on,63,0,160
1,note_on,66,31,0
1,note_on,66,0,160
1,note_on,71,36,0
1,note_on,71,0,160
1,note_on,66,30,0
1,note_on,66,0,160
1,note_on,63,30,0
1,note_on,63,0,160
1,note_on,75,0,0
1,note_on,75,46,0
1,note_on,68,29,160
1,note_on,68,0,160
1,note_on,65,29,0
1,note_on,65,0,160
1,note_on,75,0,0
1,note_on,71,43,0
1,note_on,68,28,160
1,note_on,68,0,160
1,note_on,65,28,0
1,note_on,65,0,160
1,note_on,71,0,0
1,note_on,70,43,0
1,note_on,65,28,160
1,note_on,65,0,160
1,note_on,61,28,0
1,note_on,61,0,160
1,note_on,70,0,0
1,note_on,68,39,0
1,note_on,65,28,160
1,note_on,65,0,160
1,note_on,61,28,0
1,note_on,61,0,160
1,note_on,68,0,0
1,note_on,73,47,0
1,note_on,61,32,160
1,note_on,61,0,160
1,note_on,66,32,0
1,note_on,66,0,160
1,note_on,70,42,0
1,note_on,70,0,160
1,note_on,66,32,0
1,note_on,66,0,160
1,note_on,61,32,0
1,note_on,61,0,160
1,note_on,66,35,0
1,note_on,66,0,160
1,note_on,61,31,0
1,note_on,61,0,160
1,note_on,66,31,0
1,note_on,66,0,160
1,note_on,70,36,0
1,note_on,70,0,160
1,note_on,66,30,0
1,note_on,66,0,160
1,note_on,61,30,0
1,note_on,61,0,160
1,note_on,73,0,0
1,note_on,73,46,0
1,note_on,66,29,160
1,note_on,66,0,160
1,note_on,63,29,0
1,note_on,63,0,160
1,note_on,73,0,0
1,note_on,71,43,0
1,note_on,66,28,160
1,note_on,66,0,160
1,note_on,63,28,0
1,note_on,63,0,160
1,note_on,71,0,0
1,note_on,68,43,0
1,note_on,63,28,160
1,note_on,63,0,160
1,note_on,59,28,0
1,note_on,59,0,160
1,note_on,68,0,0
1,note_on,63,39,0
1,note_on,59,28,160
1,note_on,59,0,160
1,note_on,56,28,0
1,note_on,56,0,160
1,note_on,63,0,0
1,note_on,66,47,0
1,note_on,54,29,160
1,note_on,54,0,160
1,note_on,58,29,0
1,note_on,58,0,160
1,note_on,61,38,0
1,note_on,61,0,160
1,note_on,58,29,0
1,note_on,58,0,160
1,note_on,54,31,0
1,note_on,54,0,160
1,note_on,58,35,0
1,note_on,58,0,160
1,note_on,54,30,0
1,note_on,54,0,160
1,note_on,58,30,0
1,note_on,58,0,160
1,note_on,61,36,0
1,note_on,61,0,160
1,note_on,58,30,0
1,note_on,58,0,160
1,note_on,54,30,0
1,note_on,54,0,160
1,note_on,66,0,0
1,note_on,66,45,0
1,note_on,59,29,160
1,note_on,59,0,160
1,note_on,56,29,0
1,note_on,56,0,160
1,note_on,66,0,0
1,note_on,65,41,0
1,note_on,59,28,160
1,note_on,59,0,160
1,note_on,56,28,0
1,note_on,56,0,160
1,note_on,65,0,0
1,note_on,70,42,0
1,note_on,61,28,160
1,note_on,61,0,160
1,note_on,59,28,0
1,note_on,59,0,160
1,note_on,70,0,0
1,note_on,68,39,0
1,note_on,61,26,160
1,note_on,61,0,160
1,note_on,59,26,0
1,note_on,59,0,160
1,note_on,68,0,0
1,note_on,71,47,0
1,note_on,59,29,160
1,note_on,59,0,160
1,note_on,63,29,0
1,note_on,63,0,160
1,note_on,66,29,0
1,note_on,66,0,160
1,note_on,63,29,0
1,note_on,63,0,160
1,note_on,59,26,0
1,note_on,59,0,160
1,note_on,63,36,0
1,note_on,63,0,160
1,note_on,59,30,0
1,note_on,59,0,160
1,note_on,63,30,0
1,note_on,63,0,160
1,note_on,66,48,0
1,note_on,66,0,160
1,note_on,63,37,0
1,note_on,63,0,160
1,note_on,59,37,0
1,note_on,59,0,160
1,note_on,71,0,0
1,note_on,73,58,0
1,note_on,64,41,160
1,note_on,64,0,160
1,note_on,66,36,0
1,note_on,66,0,160
1,note_on,70,54,0
1,note_on,70,0,160
1,note_on,66,44,0
1,note_on,66,0,160
1,note_on,64,45,0
1,note_on,64,0,160
1,note_on,73,0,0
1,note_on,74,67,0
1,note_on,64,44,160
1,note_on,64,0,160
1,note_on,66,44,0
1,note_on,66,0,160
1,note_on,70,56,0
1,note_on,70,0,160
1,note_on,66,51,0
1,note_on,66,0,160
1,note_on,64,53,0
1,note_on,64,0,160
1,note_on,74,0,0
1,note_on,75,71,0
1,note_on,63,38,160
1,note_on,63,0,160
1,note_on,66,37,0
1,note_on,66,0,160
1,note_on,71,42,0
1,note_on,71,0,160
1,note_on,66,36,0
1,note_on,66,0,160
1,note_on,63,36,0
1,note_on,63,0,160
1,note_on,66,38,0
1,note_on,66,0,160
1,note_on,63,33,0
1,note_on,63,0,160
1,note_on,66,33,0
1,note_on,66,0,160
1,note_on,71,37,0
1,note_on,71,0,160
1,note_on,66,31,0
1,note_on,66,0,160
1,note_on,63,30,0
1,note_on,63,0,160
1,note_on,75,0,0
1,note_on,75,50,0
1,note_on,68,29,160
1,note_on,68,0,160
1,note_on,65,29,0
1,note_on,65,0,160
1,note_on,75,0,0
1,note_on,74,48,0
1,note_on,68,28,160
1,note_on,68,0,160
1,note_on,65,28,0
1,note_on,65,0,160
1,note_on,74,0,0
1,note_on,71,42,0
1,note_on,65,28,160
1,note_on,65,0,160
1,note_on,62,28,0
1,note_on,62,0,160
1,note_on,71,0,0
1,note_on,68,39,0
1,note_on,65,28,160
1,note_on,65,0,160
1,note_on,61,28,0
1,note_on,61,0,160
1,note_on,68,0,0
1,note_on,73,47,0
1,note_on,61,32,160
1,note_on,61,0,160
1,note_on,66,32,0
1,note_on,66,0,160
1,note_on,70,36,0
1,note_on,70,0,160
1,note_on,66,32,0
1,note_on,66,0,160
1,note_on,61,32,0
1,note_on,61,0,160
1,note_on,66,36,0
1,note_on,66,0,160
1,note_on,61,31,0
1,note_on,61,0,160
1,note_on,66,31,0
1,note_on,66,0,160
1,note_on,70,36,0
1,note_on,70,0,160
1,note_on,66,30,0
1,note_on,66,0,160
1,note_on,61,30,0
1,note_on,61,0,160
1,note_on,73,0,0
1,note_on,73,46,0
1,note_on,67,29,160
1,note_on,67,0,160
1,note_on,63,29,0
1,note_on,63,0,160
1,note_on,73,0,0
1,note_on,71,43,0
1,note_on,68,28,160
1,note_on,68,0,160
1,note_on,63,28,0
1,note_on,63,0,160
1,note_on,71,0,0
1,note_on,68,43,0
1,note_on,63,28,160
1,note_on,63,0,160
1,note_on,59,28,0
1,note_on,59,0,160
1,note_on,68,0,0
1,note_on,63,39,0
1,note_on,60,28,160
1,note_on,60,0,160
1,note_on,56,28,0
1,note_on,56,0,160
1,note_on,63,0,0
1,note_on,66,47,0
1,note_on,54,29,160
1,note_on,54,0,160
1,note_on,58,29,0
1,note_on,58,0,160
1,note_on,61,34,0
1,note_on,61,0,160
1,note_on,58,29,0
1,note_on,58,0,160
1,note_on,54,30,0
1,note_on,54,0,160
1,note_on,58,34,0
1,note_on,58,0,160
1,note_on,54,30,0
1,note_on,54,0,160
1,note_on,58,30,0
1,note_on,58,0,160
1,note_on,61,36,0
1,note_on,61,0,160
1,note_on,58,30,0
1,note_on,58,0,160
1,note_on,54,30,0
1,note_on,54,0,160
1,note_on,66,0,0
1,note_on,66,45,0
1,note_on,59,29,160
1,note_on,59,0,160
1,note_on,56,29,0
1,note_on,56,0,160
1,note_on,66,0,0
1,note_on,65,41,0
1,note_on,59,28,160
1,note_on,59,0,160
1,note_on,56,28,0
1,note_on,56,0,160
1,note_on,65,0,0
1,note_on,70,42,0
1,note_on,61,28,160
1,note_on,61,0,160
1,note_on,59,28,0
1,note_on,59,0,160
1,note_on,70,0,0
1,note_on,68,39,0
1,note_on,61,26,160
1,note_on,61,0,160
1,note_on,59,26,0
1,note_on,59,0,160
1,note_on,68,0,0
1,note_on,66,47,0
1,note_on,54,29,160
1,note_on,54,0,160
1,note_on,58,29,0
1,note_on,58,0,160
1,note_on,61,33,0
1,note_on,61,0,160
1,note_on,58,29,0
1,note_on,58,0,160
1,note_on,54,29,0
1,note_on,54,0,160
1,note_on,58,32,0
1,note_on,58,0,160
1,note_on,54,30,0
1,note_on,54,0,160
1,note_on,58,30,0
1,note_on,58,0,160
1,note_on,61,36,0
1,note_on,61,0,160
1,note_on,58,30,0
1,note_on,58,0,160
1,note_on,54,30,0
1,note_on,54,0,160
1,note_on,66,0,0
1,note_on,66,47,0
1,note_on,54,29,160
1,note_on,54,0,160
1,note_on,58,29,0
1,note_on,58,0,160
1,note_on,61,32,0
1,note_on,61,0,160
1,note_on,58,29,0
1,note_on,58,0,160
1,note_on,54,37,0
1,note_on,54,0,160
1,note_on,58,41,0
1,note_on,58,0,160
1,note_on,54,43,0
1,note_on,54,0,160
1,note_on,58,45,0
1,note_on,58,0,160
1,note_on,61,47,0
1,note_on,61,0,160
1,note_on,58,50,0
1,note_on,58,0,160
1,note_on,54,52,0
1,note_on,54,0,160
1,note_on,66,0,0
1,note_on,66,60,0
1,note_on,54,47,160
1,note_on,54,0,160
1,note_on,59,43,0
1,note_on,59,0,160
1,note_on,62,57,0
1,note_on,62,0,160
1,note_on,59,46,0
1,note_on,59,0,160
1,note_on,54,46,0
1,note_on,54,0,160
1,note_on,59,58,0
1,note_on,59,0,160
1,note_on,54,44,0
1,note_on,54,0,160
1,note_on,59,45,0
1,note_on,59,0,160
1,note_on,62,61,0
1,note_on,62,0,160
1,note_on,59,51,0
1,note_on,59,0,160
1,note_on,54,53,0
1,note_on,54,0,160
1,note_on,66,0,0
1,note_on,66,72,0
1,note_on,54,48,160
1,note_on,54,0,160
1,note_on,58,48,0
1,note_on,58,0,160
1,note_on,64,61,0
1,note_on,64,0,160
1,note_on,58,52,0
1,note_on,58,0,160
1,note_on,54,52,0
1,note_on,54,0,160
1,note_on,66,0,0
1,note_on,67,66,0
1,note_on,58,58,0
1,note_on,58,0,160
1,note_on,54,59,0
1,note_on,54,0,160
1,note_on,58,59,0
1,note_on,58,0,160
1,note_on,67,0,0
1,note_on,66,67,0
1,note_on,64,67,0
1,note_on,64,0,160
1,note_on,58,62,0
1,note_on,58,0,160
1,note_on,54,62,0
1,note_on,54,0,160
1,note_on,66,0,0
1,note_on,66,80,0
1,note_on,54,58,160
1,note_on,54,0,160
1,note_on,59,59,0
1,note_on,59,0,160
1,note_on,62,70,0
1,note_on,62,0,160
1,note_on,59,60,0
1,note_on,59,0,160
1,note_on,54,61,0
1,note_on,54,0,160
1,note_on,59,71,0
1,note_on,59,0,160
1,note_on,54,63,0
1,note_on,54,0,160
1,note_on,59,59,0
1,note_on,59,0,160
1,note_on,62,75,0
1,note_on,62,0,160
1,note_on,59,63,0
1,note_on,59,0,160
1,note_on,54,64,0
1,note_on,54,0,160
1,note_on,66,0,0
1,note_on,60,82,0
1,note_on,48,67,160
1,note_on,48,0,160
1,note_on,54,65,0
1,note_on,54,0,160
1,note_on,57,63,0
1,note_on,57,0,160
1,note_on,54,61,0
1,note_on,54,0,160
1,note_on,48,59,0
1,note_on,48,0,160
1,note_on,60,0,0
1,note_on,54,56,0
1,note_on,54,0,160
1,note_on,48,54,0
1,note_on,48,0,160
1,note_on,54,50,0
1,note_on,54,0,160
1,note_on,57,46,0
1,note_on,57,0,160
1,note_on,54,42,0
1,note_on,54,0,160
1,note_on,48,39,0
1,note_on,48,0,160
1,note_on,61,45,0
1,note_on,49,33,160
1,note_on,49,0,160
1,note_on,54,33,0
1,note_on,54,0,160
1,note_on,58,36,0
1,note_on,58,0,160
1,note_on,54,32,0
1,note_on,54,0,160
1,note_on,49,32,0
1,note_on,49,0,160
1,note_on,54,35,0
1,note_on,54,0,160
1,note_on,49,31,0
1,note_on,49,0,160
1,note_on,54,31,0
1,note_on,54,0,160
1,note_on,58,37,0
1,note_on,58,0,160
1,note_on,54,30,0
1,note_on,54,0,160
1,note_on,49,30,0
1,note_on,49,0,160
1,note_on,61,0,0
1,note_on,61,45,0
1,note_on,53,29,160
1,note_on,53,0,160
1,note_on,56,29,0
1,note_on,56,0,160
1,note_on,61,0,0
1,note_on,71,41,0
1,note_on,59,28,160
1,note_on,59,0,160
1,note_on,61,28,0
1,note_on,61,0,160
1,note_on,71,0,0
1,note_on,68,42,0
1,note_on,59,28,160
1,note_on,59,0,160
1,note_on,61,28,0
1,note_on,61,0,160
1,note_on,68,0,0
1,note_on,65,39,0
1,note_on,59,26,160
1,note_on,59,0,160
1,note_on,61,26,0
1,note_on,61,0,160
1,note_on,65,0,0
1,note_on,66,47,0
1,note_on,54,27,160
1,note_on,54,0,160
1,note_on,58,27,0
1,note_on,58,0,160
1,note_on,61,33,0
1,note_on,61,0,160
1,note_on,58,27,0
1,note_on,58,0,160
1,note_on,54,27,0
1,note_on,54,0,160
1,note_on,58,32,0
1,note_on,58,0,160
1,note_on,54,30,0
1,note_on,54,0,160
1,note_on,58,30,0
1,note_on,58,0,160
1,note_on,61,36,0
1,note_on,61,0,160
1,note_on,58,30,0
1,note_on,58,0,160
1,note_on,54,30,0
1,note_on,54,0,160
1,note_on,66,0,0
1,note_on,66,47,0
1,note_on,54,29,160
1,note_on,54,0,160
1,note_on,58,29,0
1,note_on,58,0,160
1,note_on,61,32,0
1,note_on,61,0,160
1,note_on,58,29,0
1,note_on,58,0,160
1,note_on,54,37,0
1,note_on,54,0,160
1,note_on,58,41,0
1,note_on,58,0,160
1,note_on,54,43,0
1,note_on,54,0,160
1,note_on,58,45,0
1,note_on,58,0,160
1,note_on,61,47,0
1,note_on,61,0,160
1,note_on,58,50,0
1,note_on,58,0,160
1,note_on,54,52,0
1,note_on,54,0,160
1,note_on,66,0,0
1,note_on,66,60,0
1,note_on,54,44,160
1,note_on,54,0,160
1,note_on,59,43,0
1,note_on,59,0,160
1,note_on,62,52,0
1,note_on,62,0,160
1,note_on,59,46,0
1,note_on,59,0,160
1,note_on,54,46,0
1,note_on,54,0,160
1,note_on,59,53,0
1,note_on,59,0,160
1,note_on,54,44,0
1,note_on,54,0,160
1,note_on,59,45,0
1,note_on,59,0,160
1,note_on,62,56,0
1,note_on,62,0,160
1,note_on,59,46,0
1,note_on,59,0,160
1,note_on,54,46,0
1,note_on,54,0,160
1,note_on,66,0,0
1,note_on,66,64,0
1,note_on,54,48,160
1,note_on,54,0,160
1,note_on,57,48,0
1,note_on,57,0,160
1,note_on,62,58,0
1,note_on,62,0,160
1,note_on,57,47,0
1,note_on,57,0,160
1,note_on,54,48,0
1,note_on,54,0,160
1,note_on,57,58,0
1,note_on,57,0,160
1,note_on,54,59,0
1,note_on,54,0,160
1,note_on,57,59,0
1,note_on,57,0,160
1,note_on,62,67,0
1,note_on,62,0,160
1,note_on,57,62,0
1,note_on,57,0,160
1,note_on,54,62,0
1,note_on,54,0,160
1,note_on,66,0,0
1,note_on,67,80,0
1,note_on,55,53,160
1,note_on,55,0,160
1,note_on,58,54,0
1,note_on,58,0,160
1,note_on,62,67,0
1,note_on,62,0,160
1,note_on,58,56,0
1,note_on,58,0,160
1,note_on,55,56,0
1,note_on,55,0,160
1,note_on,58,70,0
1,note_on,58,0,160
1,note_on,55,58,0
1,note_on,55,0,160
1,note_on,58,59,0
1,note_on,58,0,160
1,note_on,62,72,0
1,note_on,62,0,160
1,note_on,58,55,0
1,note_on,58,0,160
1,note_on,55,60,0
1,note_on,55,0,160
1,note_on,67,0,0
1,note_on,60,83,0
1,note_on,48,67,160
1,note_on,48,0,160
1,note_on,54,65,0
1,note_on,54,0,160
1,note_on,57,63,0
1,note_on,57,0,160
1,note_on,54,61,0
1,note_on,54,0,160
1,note_on,48,59,0
1,note_on,48,0,160
1,note_on,60,0,0
1,note_on,54,56,0
1,note_on,54,0,160
1,note_on,48,54,0
1,note_on,48,0,160
1,note_on,54,50,0
1,note_on,54,0,160
1,note_on,57,46,0
1,note_on,57,0,160
1,note_on,54,42,0
1,note_on,54,0,160
1,note_on,48,39,0
1,note_on,48,0,160
1,note_on,61,45,0
1,note_on,49,33,160
1,note_on,49,0,160
1,note_on,54,33,0
1,note_on,54,0,160
1,note_on,58,36,0
1,note_on,58,0,160
1,note_on,54,32,0
1,note_on,54,0,160
1,note_on,49,32,0
1,note_on,49,0,160
1,note_on,54,35,0
1,note_on,54,0,160
1,note_on,49,31,0
1,note_on,49,0,160
1,note_on,54,31,0
1,note_on,54,0,160
1,note_on,58,37,0
1,note_on,58,0,160
1,note_on,54,30,0
1,note_on,54,0,160
1,note_on,49,30,0
1,note_on,49,0,160
1,note_on,61,0,0
1,note_on,61,45,0
1,note_on,53,29,160
1,note_on,53,0,160
1,note_on,56,29,0
1,note_on,56,0,160
1,note_on,61,0,0
1,note_on,71,41,0
1,note_on,59,28,160
1,note_on,59,0,160
1,note_on,61,28,0
1,note_on,61,0,160
1,note_on,71,0,0
1,note_on,68,42,0
1,note_on,59,28,160
1,note_on,59,0,160
1,note_on,61,28,0
1,note_on,61,0,160
1,note_on,68,0,0
1,note_on,65,39,0
1,note_on,59,26,160
1,note_on,59,0,160
1,note_on,61,26,0
1,note_on,61,0,160
1,note_on,65,0,0
1,note_on,66,45,0
1,note_on,54,32,160
1,note_on,54,0,160
1,note_on,58,32,0
1,note_on,58,0,160
1,note_on,61,34,0
1,note_on,61,0,160
1,note_on,54,30,0
1,note_on,54,0,160
1,note_on,58,30,0
1,note_on,58,0,160
1,note_on,63,38,0
1,note_on,63,0,160
1,note_on,54,28,0
1,note_on,54,0,160
1,note_on,59,27,0
1,note_on,59,0,160
1,note_on,61,32,0
1,note_on,61,0,160
1,note_on,54,26,0
1,note_on,54,0,160
1,note_on,58,26,0
1,note_on,58,0,160
1,note_on,66,0,0
1,note_on,65,40,0
1,note_on,59,23,160
1,note_on,59,0,160
1,note_on,61,23,0
1,note_on,61,0,160
1,note_on,65,0,0
1,note_on,71,38,0
1,note_on,59,25,160
1,note_on,59,0,160
1,note_on,61,25,0
1,note_on,61,0,160
1,note_on,71,0,0
1,note_on,68,39,0
1,note_on,59,22,160
1,note_on,59,0,160
1,note_on,61,26,0
1,note_on,61,0,160
1,note_on,68,0,0
1,note_on,65,35,0
1,note_on,59,20,160
1,note_on,59,0,160
1,note_on,61,20,0
1,note_on,61,0,160
1,note_on,65,0,0
1,note_on,66,42,0
1,note_on,54,25,160
1,note_on,54,0,160
1,note_on,58,26,0
1,note_on,58,0,160
1,note_on,61,32,0
1,note_on,61,0,160
1,note_on,54,26,0
1,note_on,54,0,160
1,note_on,58,26,0
1,note_on,58,0,160
1,note_on,63,38,0
1,note_on,63,0,160
1,note_on,54,25,0
1,note_on,54,0,160
1,note_on,59,25,0
1,note_on,59,0,160
1,note_on,61,32,0
1,note_on,61,0,160
1,note_on,54,26,0
1,note_on,54,0,160
1,note_on,58,26,0
1,note_on,58,0,160
1,note_on,66,0,0
1,note_on,65,36,0
1,note_on,59,23,160
1,note_on,59,0,160
1,note_on,61,23,0
1,note_on,61,0,160
1,note_on,65,0,0
1,note_on,75,40,0
1,note_on,65,22,160
1,note_on,65,0,160
1,note_on,68,22,0
1,note_on,68,0,160
1,note_on,75,0,0
1,note_on,71,37,0
1,note_on,61,22,160
1,note_on,61,0,160
1,note_on,65,22,0
1,note_on,65,0,160
1,note_on,71,0,0
1,note_on,68,31,0
1,note_on,61,20,160
1,note_on,61,0,160
1,note_on,65,20,0
1,note_on,65,0,160
1,note_on,68,0,0
1,note_on,66,36,0
1,note_on,54,26,160
1,note_on,54,0,160
1,note_on,58,26,0
1,note_on,58,0,160
1,note_on,61,28,0
1,note_on,61,0,160
1,note_on,58,25,0
1,note_on,58,0,160
1,note_on,54,25,0
1,note_on,54,0,160
1,note_on,58,32,0
1,note_on,58,0,160
1,note_on,54,24,0
1,note_on,54,0,160
1,note_on,58,24,0
1,note_on,58,0,160
1,note_on,61,29,0
1,note_on,61,0,160
1,note_on,58,24,0
1,note_on,58,0,160
1,note_on,54,24,0
1,note_on,54,0,160
1,note_on,66,0,0
1,note_on,58,32,0
1,note_on,66,36,0
1,note_on,58,0,160
1,note_on,54,26,0
1,note_on,54,0,160
1,note_on,58,26,0
1,note_on,58,0,160
1,note_on,61,28,0
1,note_on,61,0,160
1,note_on,58,25,0
1,note_on,58,0,160
1,note_on,54,25,0
1,note_on,54,0,160
1,note_on,66,0,0
1,note_on,66,36,0
1,note_on,58,32,0
1,note_on,58,0,160
1,note_on,54,24,0
1,note_on,54,0,160
1,note_on,58,24,0
1,note_on,58,0,160
1,note_on,61,29,0
1,note_on,61,0,160
1,note_on,58,24,0
1,note_on,58,0,160
1,note_on,54,24,0
1,note_on,54,0,160
1,note_on,66,0,0
1,note_on,54,25,0
1,note_on,58,25,0
1,note_on,66,36,0
1,note_on,66,0,1920
1,note_on,58,0,0
1,note_on,54,0,0
1,note_on,54,22,0
1,note_on,58,22,0
1,note_on,66,32,0
1,note_on,66,0,960
1,note_on,58,0,0
1,note_on,54,0,0
1,note_on,54,20,0
1,note_on,58,20,0
1,note_on,66,30,0
1,note_on,66,0,960
1,note_on,58,0,0
1,note_on,54,0,0
1,note_on,54,19,0
1,note_on,58,19,0
1,note_on,66,28,0
1,note_on,66,0,3840
1,note_on,58,0,0
1,note_on,54,0,0
2,note_on,42,29,0
2,note_on,49,35,0
2,note_on,49,0,1920
2,note_on,42,0,0
2,note_on,49,35,0
2,note_on,42,29,0
2,note_on,42,0,960
2,note_on,49,0,0
2,note_on,42,29,0
2,note_on,49,35,0
2,note_on,49,0,960
2,note_on,42,0,0
2,note_on,51,35,0
2,note_on,39,29,0
2,note_on,39,0,3840
2,note_on,51,0,0
2,note_on,35,29,0
2,note_on,47,35,0
2,note_on,47,0,1920
2,note_on,35,0,0
2,note_on,37,29,0
2,note_on,49,35,0
2,note_on,49,0,1440
2,note_on,37,0,0
2,note_on,47,20,0
2,note_on,49,26,0
2,note_on,49,0,480
2,note_on,47,0,0
2,note_on,46,29,0
2,note_on,49,35,0
2,note_on,49,0,960
2,note_on,46,0,0
2,note_on,51,35,0
2,note_on,42,29,0
2,note_on,42,0,840
2,note_on,51,0,0
2,note_on,37,29,0
2,note_on,53,35,120
2,note_on,53,0,1920
2,note_on,37,0,0
2,note_on,49,35,0
2,note_on,42,29,0
2,note_on,42,0,1920
2,note_on,49,0,0
2,note_on,49,35,0
2,note_on,42,29,0
2,note_on,42,0,960
2,note_on,49,0,0
2,note_on,49,35,0
2,note_on,42,29,0
2,note_on,42,0,960
2,note_on,49,0,0
2,note_on,51,35,0
2,note_on,39,29,0
2,note_on,39,0,1920
2,note_on,51,0,0
2,note_on,39,29,0
2,note_on,51,35,0
2,note_on,51,0,960
2,note_on,39,0,0
2,note_on,46,35,0
2,note_on,34,29,0
2,note_on,34,0,960
2,note_on,46,0,0
2,note_on,35,29,0
2,note_on,47,35,0
2,note_on,47,0,960
2,note_on,35,0,0
2,note_on,44,35,0
2,note_on,32,29,0
2,note_on,32,0,960
2,note_on,44,0,0
2,note_on,37,29,0
2,note_on,49,35,0
2,note_on,49,0,1920
2,note_on,37,0,0
2,note_on,42,29,0
2,note_on,49,35,0
2,note_on,49,0,3840
2,note_on,42,0,0
2,note_on,53,35,0
2,note_on,49,29,0
2,note_on,49,0,1920
2,note_on,53,0,0
2,note_on,51,34,0
2,note_on,55,40,0
2,note_on,46,34,0
2,note_on,46,0,1920
2,note_on,55,0,0
2,note_on,51,0,0
2,note_on,56,50,0
2,note_on,44,41,0
2,note_on,51,41,0
2,note_on,51,0,1920
2,note_on,44,0,0
2,note_on,56,0,0
2,note_on,56,35,0
2,note_on,51,29,0
2,note_on,44,29,0
2,note_on,44,0,1920
2,note_on,51,0,0
2,note_on,56,0,0
2,note_on,52,33,0
2,note_on,56,40,0
2,note_on,56,0,1920
2,note_on,52,0,0
2,note_on,54,46,0
2,note_on,51,39,0
2,note_on,51,0,960
2,note_on,54,0,0
2,note_on,58,46,0
2,note_on,49,39,0
2,note_on,54,39,0
2,note_on,54,0,960
2,note_on,49,0,0
2,note_on,58,0,0
2,note_on,47,47,0
2,note_on,54,47,0
2,note_on,59,57,0
2,note_on,59,0,1920
2,note_on,54,0,0
2,note_on,47,0,0
2,note_on,47,33,0
2,note_on,54,33,0
2,note_on,59,40,0
2,note_on,59,0,1920
2,note_on,54,0,0
2,note_on,47,0,0
2,note_on,47,29,0
2,note_on,54,35,0
2,note_on,54,0,1920
2,note_on,47,0,0
2,note_on,56,35,0
2,note_on,47,29,0
2,note_on,56,0,960
2,note_on,53,35,0
2,note_on,53,0,960
2,note_on,47,0,0
2,note_on,46,29,0
2,note_on,54,35,0
2,note_on,54,0,1920
2,note_on,46,0,0
2,note_on,47,29,0
2,note_on,54,35,0
2,note_on,54,0,960
2,note_on,56,35,0
2,note_on,56,0,798
2,note_on,47,0,162
2,note_on,49,35,0
2,note_on,37,35,1800
2,note_on,37,0,120
2,note_on,49,0,0
2,note_on,49,35,0
2,note_on,54,35,960
2,note_on,54,0,480
2,note_on,53,35,0
2,note_on,53,0,480
2,note_on,49,0,0
2,note_on,42,30,0
2,note_on,49,35,0
2,note_on,49,0,1920
2,note_on,42,0,0
2,note_on,49,35,0
2,note_on,46,30,0
2,note_on,46,0,960
2,note_on,49,0,0
2,note_on,46,30,0
2,note_on,49,35,0
2,note_on,49,0,960
2,note_on,46,0,0
2,note_on,49,29,0
2,note_on,53,35,0
2,note_on,53,0,1920
2,note_on,49,0,0
2,note_on,46,34,0
2,note_on,55,40,0
2,note_on,52,34,0
2,note_on,52,0,960
2,note_on,51,55,6
2,note_on,55,0,954
2,note_on,46,0,0
2,note_on,44,41,0
2,note_on,51,41,0
2,note_on,55,50,0
2,note_on,51,0,6
2,note_on,55,0,1434
2,note_on,56,44,0
2,note_on,56,0,480
2,note_on,51,0,0
2,note_on,44,0,0
2,note_on,51,29,0
2,note_on,56,35,0
2,note_on,44,29,0
2,note_on,44,0,1680
2,note_on,42,60,0
2,note_on,42,0,240
2,note_on,56,0,0
2,note_on,51,0,0
2,note_on,40,68,0
2,note_on,40,0,1920
2,note_on,39,55,0
2,note_on,39,0,960
2,note_on,37,56,0
2,note_on,37,0,96
2,note_on,39,38,0
2,note_on,39,0,96
2,note_on,37,45,0
2,note_on,37,0,96
2,note_on,39,39,0
2,note_on,39,0,96
2,note_on,37,42,0
2,note_on,37,0,96
2,note_on,39,44,0
2,note_on,39,0,96
2,note_on,37,55,0
2,note_on,37,0,128
2,note_on,35,46,0
2,note_on,35,0,128
2,note_on,37,56,0
2,note_on,37,0,128
2,note_on,35,67,0
2,note_on,35,0,3840
2,note_on,47,29,0
2,note_on,54,35,0
2,note_on,54,0,1920
2,note_on,47,0,0
2,note_on,47,29,0
2,note_on,56,35,0
2,note_on,56,0,960
2,note_on,53,35,0
2,note_on,53,0,960
2,note_on,47,0,0
2,note_on,54,35,0
2,note_on,46,29,0
2,note_on,46,0,1920
2,note_on,54,0,0
2,note_on,55,35,0
2,note_on,47,29,0
2,note_on,55,0,480
2,note_on,56,35,0
2,note_on,56,0,480
2,note_on,51,35,0
2,note_on,47,0,480
2,note_on,48,29,0
2,note_on,48,0,480
2,note_on,51,0,0
2,note_on,49,35,0
2,note_on,37,35,1800
2,note_on,37,0,120
2,note_on,49,0,0
2,note_on,49,35,0
2,note_on,54,35,960
2,note_on,54,0,480
2,note_on,53,35,0
2,note_on,53,0,480
2,note_on,49,0,0
2,note_on,42,30,0
2,note_on,49,35,0
2,note_on,49,0,2880
2,note_on,42,0,0
2,note_on,50,55,0
2,note_on,41,55,0
2,note_on,41,0,960
2,note_on,50,0,0
2,note_on,39,58,0
2,note_on,51,58,0
2,note_on,51,0,1440
2,note_on,39,0,0
2,note_on,39,57,0
2,note_on,39,0,160
2,note_on,41,61,0
2,note_on,41,0,160
2,note_on,42,65,0
2,note_on,42,0,160
2,note_on,42,69,0
2,note_on,42,0,1440
2,note_on,42,60,0
2,note_on,42,0,160
2,note_on,44,63,0
2,note_on,44,0,160
2,note_on,46,67,0
2,note_on,46,0,160
2,note_on,46,77,0
2,note_on,59,56,480
2,note_on,59,0,480
2,note_on,56,54,0
2,note_on,56,0,480
2,note_on,53,49,0
2,note_on,53,0,480
2,note_on,50,49,0
2,note_on,50,0,1680
2,note_on,48,35,0
2,note_on,48,0,120
2,note_on,50,35,0
2,note_on,50,0,120
2,note_on,46,0,0
2,note_on,51,44,0
2,note_on,51,0,960
2,note_on,44,44,0
2,note_on,44,0,960
2,note_on,46,42,0
2,note_on,46,0,1440
2,note_on,44,59,0
2,note_on,44,0,160
2,note_on,42,62,0
2,note_on,42,0,160
2,note_on,41,66,0
2,note_on,41,0,160
2,note_on,39,69,0
2,note_on,51,69,0
2,note_on,51,0,1440
2,note_on,39,0,0
2,note_on,39,61,0
2,note_on,39,0,160
2,note_on,41,64,0
2,note_on,41,0,160
2,note_on,42,67,0
2,note_on,42,0,160
2,note_on,42,70,0
2,note_on,42,0,1440
2,note_on,42,58,0
2,note_on,42,0,160
2,note_on,44,61,0
2,note_on,44,0,160
2,note_on,46,64,0
2,note_on,46,0,160
2,note_on,46,74,0
2,note_on,59,56,480
2,note_on,59,0,480
2,note_on,56,54,0
2,note_on,56,0,480
2,note_on,53,49,0
2,note_on,53,0,480
2,note_on,50,49,0
2,note_on,50,0,960
2,note_on,50,35,0
2,note_on,50,0,96
2,note_on,51,30,0
2,note_on,51,0,96
2,note_on,50,35,0
2,note_on,50,0,86
2,note_on,51,30,0
2,note_on,51,0,85
2,note_on,50,35,0
2,note_on,50,0,86
2,note_on,51,30,0
2,note_on,51,0,85
2,note_on,50,35,0
2,note_on,51,32,85
2,note_on,50,0,1
2,note_on,51,0,85
2,note_on,50,35,0
2,note_on,50,0,85
2,note_on,48,32,0
2,note_on,50,38,85
2,note_on,48,0,1
2,note_on,50,0,84
2,note_on,46,0,0
2,note_on,51,44,0
2,note_on,51,0,960
2,note_on,44,44,0
2,note_on,44,0,960
2,note_on,46,42,0
2,note_on,46,0,1440
2,note_on,38,35,0
2,note_on,50,40,0
2,note_on,50,0,480
2,note_on,38,0,0
2,note_on,39,31,0
2,note_on,51,37,0
2,note_on,51,0,960
2,note_on,39,0,0
2,note_on,32,31,0
2,note_on,44,37,0
2,note_on,44,0,960
2,note_on,32,0,0
2,note_on,42,35,0
2,note_on,30,29,0
2,note_on,30,0,960
2,note_on,42,0,0
2,note_on,40,35,0
2,note_on,40,0,960
2,note_on,39,35,0
2,note_on,39,0,1920
2,note_on,37,32,0
2,note_on,37,0,1920
2,note_on,35,37,0
2,note_on,35,0,1920
2,note_on,40,33,0
2,note_on,40,0,1920
2,note_on,42,37,0
2,note_on,42,0,1920
2,note_on,49,33,0
2,note_on,42,33,0
2,note_on,49,0,1440
2,note_on,52,33,0
2,note_on,52,0,480
2,note_on,42,0,0
2,note_on,35,29,0
2,note_on,35,0,1920
2,note_on,31,29,0
2,note_on,31,0,1440
2,note_on,31,29,0
2,note_on,31,0,160
2,note_on,33,29,0
2,note_on,33,0,160
2,note_on,35,29,0
2,note_on,35,0,150
2,note_on,35,29,10
2,note_on,35,0,1440
2,note_on,37,49,0
2,note_on,37,0,120
2,note_on,39,51,0
2,note_on,39,0,120
2,note_on,40,54,0
2,note_on,40,0,120
2,note_on,42,58,0
2,note_on,42,0,120
2,note_on,43,61,0
2,note_on,43,0,960
2,note_on,42,38,0
2,note_on,42,0,960
2,note_on,35,29,0
2,note_on,35,0,1920
2,note_on,32,29,0
2,note_on,32,0,1440
2,note_on,32,29,0
2,note_on,32,0,160
2,note_on,34,29,0
2,note_on,34,0,160
2,note_on,35,29,0
2,note_on,35,0,150
2,note_on,35,29,10
2,note_on,35,0,1440
2,note_on,37,50,0
2,note_on,37,0,120
2,note_on,39,53,0
2,note_on,39,0,120
2,note_on,40,57,0
2,note_on,40,0,120
2,note_on,42,61,0
2,note_on,42,0,120
2,note_on,44,65,0
2,note_on,44,0,960
2,note_on,42,38,0
2,note_on,42,0,960
2,note_on,35,29,0
2,note_on,35,0,3840
2,note_on,44,74,0
2,note_on,44,0,1440
2,note_on,44,55,0
2,note_on,44,0,160
2,note_on,46,59,0
2,note_on,46,0,160
2,note_on,47,63,0
2,note_on,47,0,150
2,note_on,47,73,10
2,note_on,47,0,1440
2,note_on,47,56,0
2,note_on,47,0,160
2,note_on,49,61,0
2,note_on,49,0,160
2,note_on,50,64,0
2,note_on,50,0,150
2,note_on,50,73,10
2,note_on,50,0,1440
2,note_on,50,56,0
2,note_on,50,0,160
2,note_on,51,61,0
2,note_on,51,0,160
2,note_on,53,64,0
2,note_on,53,0,150
2,note_on,53,73,10
2,note_on,53,0,1440
2,note_on,41,56,0
2,note_on,41,0,480
2,note_on,42,40,0
2,note_on,42,0,960
2,note_on,38,40,0
2,note_on,38,0,960
2,note_on,39,49,0
2,note_on,39,0,960
2,note_on,32,40,0
2,note_on,32,0,960
2,note_on,34,29,0
2,note_on,34,0,1120
2,note_on,33,25,0
2,note_on,33,0,160
2,note_on,34,25,0
2,note_on,34,0,160
2,note_on,35,29,0
2,note_on,35,0,160
2,note_on,34,25,0
2,note_on,34,0,160
2,note_on,33,25,0
2,note_on,33,0,160
2,note_on,34,29,0
2,note_on,34,0,1440
2,note_on,46,29,0
2,note_on,34,29,0
2,note_on,34,0,480
2,note_on,46,0,0
2,note_on,44,74,0
2,note_on,32,64,0
2,note_on,32,0,1440
2,note_on,44,0,0
2,note_on,44,55,0
2,note_on,44,0,160
2,note_on,46,59,0
2,note_on,46,0,160
2,note_on,47,63,0
2,note_on,47,0,150
2,note_on,35,64,10
2,note_on,47,73,0
2,note_on,47,0,1440
2,note_on,35,0,0
2,note_on,47,56,0
2,note_on,47,0,160
2,note_on,49,61,0
2,note_on,49,0,160
2,note_on,50,64,0
2,note_on,50,0,150
2,note_on,50,73,10
2,note_on,38,64,7
2,note_on,50,0,1433
2,note_on,50,56,0
2,note_on,38,0,7
2,note_on,50,0,153
2,note_on,51,61,0
2,note_on,51,0,160
2,note_on,53,64,0
2,note_on,53,0,150
2,note_on,41,64,10
2,note_on,53,73,0
2,note_on,53,0,1440
2,note_on,41,0,0
2,note_on,41,56,0
2,note_on,41,0,480
2,note_on,42,40,0
2,note_on,42,0,960
2,note_on,38,40,0
2,note_on,38,0,137
2,note_on,39,36,0
2,note_on,38,40,137
2,note_on,39,0,0
2,note_on,38,0,137
2,note_on,39,36,0
2,note_on,38,40,136
2,note_on,39,0,1
2,note_on,38,0,136
2,note_on,36,35,0
2,note_on,36,0,137
2,note_on,38,36,0
2,note_on,38,0,139
2,note_on,39,49,0
2,note_on,39,0,960
2,note_on,32,40,0
2,note_on,32,0,960
2,note_on,34,29,0
2,note_on,34,0,1120
2,note_on,33,25,0
2,note_on,33,0,160
2,note_on,34,25,0
2,note_on,34,0,160
2,note_on,35,29,0
2,note_on,35,0,160
2,note_on,34,25,0
2,note_on,34,0,160
2,note_on,33,25,0
2,note_on,33,0,160
2,note_on,34,29,0
2,note_on,34,0,960
2,note_on,32,29,0
2,note_on,32,0,960
2,note_on,31,29,0
2,note_on,43,35,0
2,note_on,43,0,1920
2,note_on,31,0,0
2,note_on,41,35,0
2,note_on,41,0,1920
2,note_on,39,37,0
2,note_on,39,0,1920
2,note_on,44,33,0
2,note_on,44,0,1920
2,note_on,46,35,0
2,note_on,46,0,1920
2,note_on,53,35,0
2,note_on,46,29,0
2,note_on,53,0,1440
2,note_on,56,35,0
2,note_on,56,0,480
2,note_on,46,0,0
2,note_on,39,29,0
2,note_on,39,0,1920
2,note_on,37,35,0
2,note_on,37,0,1440
2,note_on,40,24,0
2,note_on,40,0,160
2,note_on,39,28,0
2,note_on,39,0,160
2,note_on,37,31,0
2,note_on,37,0,160
2,note_on,35,29,0
2,note_on,35,0,1920
2,note_on,34,35,0
2,note_on,34,0,1120
2,note_on,35,24,0
2,note_on,35,0,160
2,note_on,34,24,0
2,note_on,34,0,160
2,note_on,37,27,0
2,note_on,37,0,160
2,note_on,35,24,0
2,note_on,35,0,160
2,note_on,34,24,0
2,note_on,34,0,160
2,note_on,32,29,0
2,note_on,32,0,1920
2,note_on,30,22,0
2,note_on,30,0,96
2,note_on,32,18,0
2,note_on,32,0,96
2,note_on,30,24,0
2,note_on,30,0,96
2,note_on,32,21,0
2,note_on,32,0,96
2,note_on,30,22,0
2,note_on,30,0,96
2,note_on,32,18,0
2,note_on,32,0,96
2,note_on,30,24,0
2,note_on,30,0,96
2,note_on,32,21,0
2,note_on,32,0,96
2,note_on,30,27,0
2,note_on,30,0,96
2,note_on,32,23,0
2,note_on,32,0,96
2,note_on,30,31,0
2,note_on,30,0,96
2,note_on,32,26,0
2,note_on,32,0,96
2,note_on,30,35,0
2,note_on,30,0,96
2,note_on,32,29,0
2,note_on,32,0,96
2,note_on,30,38,0
2,note_on,30,0,96
2,note_on,32,32,0
2,note_on,32,0,96
2,note_on,30,42,0
2,note_on,30,0,128
2,note_on,29,37,0
2,note_on,29,0,128
2,note_on,30,38,0
2,note_on,30,0,128
2,note_on,41,68,0
2,note_on,29,60,0
2,note_on,29,0,960
2,note_on,41,0,0
2,note_on,41,50,0
2,note_on,44,41,240
2,note_on,44,0,240
2,note_on,47,41,0
2,note_on,47,0,240
2,note_on,49,41,0
2,note_on,49,0,240
2,note_on,41,0,0
2,note_on,41,40,0
2,note_on,50,49,0
2,note_on,50,0,960
2,note_on,41,0,0
2,note_on,49,31,0
2,note_on,49,0,960
2,note_on,42,29,0
2,note_on,49,35,0
2,note_on,49,0,1920
2,note_on,42,0,0
2,note_on,49,35,0
2,note_on,42,29,0
2,note_on,42,0,960
2,note_on,49,0,0
2,note_on,42,29,0
2,note_on,49,35,0
2,note_on,49,0,960
2,note_on,42,0,0
2,note_on,51,35,0
2,note_on,39,29,0
2,note_on,39,0,3840
2,note_on,51,0,0
2,note_on,35,29,4
2,note_on,47,35,3
2,note_on,37,29,1913
2,note_on,49,35,0
2,note_on,35,0,4
2,note_on,47,0,3
2,note_on,37,0,1433
2,note_on,49,0,0
2,note_on,47,20,0
2,note_on,49,26,0
2,note_on,49,0,480
2,note_on,47,0,0
2,note_on,46,29,0
2,note_on,49,35,0
2,note_on,49,0,960
2,note_on,46,0,0
2,note_on,51,35,0
2,note_on,42,29,0
2,note_on,42,0,840
2,note_on,51,0,0
2,note_on,37,29,0
2,note_on,53,35,120
2,note_on,53,0,1920
2,note_on,37,0,0
2,note_on,49,35,0
2,note_on,42,29,0
2,note_on,42,0,1920
2,note_on,49,0,0
2,note_on,49,35,0
2,note_on,42,29,0
2,note_on,42,0,960
2,note_on,49,0,0
2,note_on,49,35,0
2,note_on,42,29,0
2,note_on,42,0,960
2,note_on,49,0,0
2,note_on,39,29,0
2,note_on,51,35,0
2,note_on,51,0,2880
2,note_on,39,0,0
2,note_on,46,35,0
2,note_on,34,29,0
2,note_on,34,0,960
2,note_on,46,0,0
2,note_on,35,29,4
2,note_on,47,35,3
2,note_on,44,40,953
2,note_on,32,33,0
2,note_on,35,0,4
2,note_on,47,0,3
2,note_on,44,0,953
2,note_on,32,0,0
2,note_on,37,29,0
2,note_on,49,35,0
2,note_on,49,0,1920
2,note_on,37,0,0
2,note_on,42,29,0
2,note_on,49,35,0
2,note_on,49,0,3840
2,note_on,42,0,0
2,note_on,53,35,0
2,note_on,49,29,0
2,note_on,49,0,1920
2,note_on,53,0,0
2,note_on,52,34,0
2,note_on,55,40,0
2,note_on,46,34,0
2,note_on,52,0,960
2,note_on,51,41,0
2,note_on,51,0,960
2,note_on,46,0,0
2,note_on,55,0,0
2,note_on,44,41,0
2,note_on,51,41,0
2,note_on,55,50,7
2,note_on,55,0,1440
2,note_on,56,44,7
2,note_on,51,0,466
2,note_on,44,0,0
2,note_on,56,35,0
2,note_on,51,29,0
2,note_on,44,29,0
2,note_on,56,0,14
2,note_on,44,0,1666
2,note_on,42,43,0
2,note_on,42,0,240
2,note_on,51,0,0
2,note_on,56,0,0
2,note_on,40,68,0
2,note_on,40,0,1920
2,note_on,39,55,0
2,note_on,39,0,960
2,note_on,37,44,0
2,note_on,37,0,96
2,note_on,39,44,0
2,note_on,39,0,96
2,note_on,37,56,0
2,note_on,37,0,77
2,note_on,39,39,0
2,note_on,37,56,77
2,note_on,39,0,0
2,note_on,37,0,77
2,note_on,39,39,0
2,note_on,37,42,76
2,note_on,39,0,1
2,note_on,37,0,76
2,note_on,39,44,0
2,note_on,39,0,77
2,note_on,37,55,0
2,note_on,35,46,102
2,note_on,37,0,1
2,note_on,35,0,102
2,note_on,37,56,0
2,note_on,37,0,102
2,note_on,35,67,0
2,note_on,35,0,3840
2,note_on,54,35,0
2,note_on,47,29,4
2,note_on,54,0,1916
2,note_on,47,29,0
2,note_on,56,35,0
2,note_on,47,0,4
2,note_on,56,0,956
2,note_on,53,35,0
2,note_on,53,0,960
2,note_on,47,0,0
2,note_on,54,35,0
2,note_on,46,29,0
2,note_on,46,0,1920
2,note_on,54,0,0
2,note_on,54,35,0
2,note_on,47,29,0
2,note_on,54,0,960
2,note_on,56,35,0
2,note_on,56,0,790
2,note_on,47,0,170
2,note_on,49,35,0
2,note_on,37,35,1800
2,note_on,37,0,120
2,note_on,49,0,0
2,note_on,49,42,0
2,note_on,54,35,960
2,note_on,54,0,480
2,note_on,53,35,0
2,note_on,53,0,480
2,note_on,49,0,0
2,note_on,51,30,0
2,note_on,54,35,0
2,note_on,54,0,1920
2,note_on,51,0,0
2,note_on,54,35,0
2,note_on,58,42,0
2,note_on,58,0,1920
2,note_on,54,0,0
2,note_on,47,46,0
2,note_on,54,46,0
2,note_on,59,57,0
2,note_on,59,0,1920
2,note_on,54,0,0
2,note_on,47,0,0
2,note_on,47,29,0
2,note_on,56,35,0
2,note_on,56,0,960
2,note_on,53,35,0
2,note_on,53,0,960
2,note_on,47,0,0
2,note_on,54,35,0
2,note_on,46,29,0
2,note_on,46,0,1920
2,note_on,54,0,0
2,note_on,55,35,0
2,note_on,47,29,0
2,note_on,55,0,480
2,note_on,56,35,0
2,note_on,56,0,480
2,note_on,51,35,0
2,note_on,47,0,480
2,note_on,48,29,0
2,note_on,48,0,480
2,note_on,51,0,0
2,note_on,49,35,0
2,note_on,37,35,1800
2,note_on,37,0,120
2,note_on,49,0,0
2,note_on,49,35,0
2,note_on,54,35,960
2,note_on,54,0,480
2,note_on,53,35,0
2,note_on,53,0,480
2,note_on,49,0,0
2,note_on,42,35,0
2,note_on,42,0,1920
2,note_on,40,43,0
2,note_on,40,0,1920
2,note_on,38,63,0
2,note_on,38,0,1920
2,note_on,38,44,0
2,note_on,38,0,96
2,note_on,37,41,0
2,note_on,37,0,96
2,note_on,38,44,0
2,note_on,38,0,96
2,note_on,37,42,0
2,note_on,37,0,96
2,note_on,38,44,0
2,note_on,38,0,110
2,note_on,37,45,0
2,note_on,37,0,109
2,note_on,38,47,0
2,note_on,38,0,110
2,note_on,37,48,0
2,note_on,37,0,109
2,note_on,38,50,0
2,note_on,37,51,109
2,note_on,38,0,1
2,note_on,37,0,109
2,note_on,38,52,0
2,note_on,38,0,111
2,note_on,37,54,1
2,note_on,37,0,109
2,note_on,38,55,0
2,note_on,38,0,110
2,note_on,37,56,0
2,note_on,37,0,109
2,note_on,38,58,0
2,note_on,37,59,109
2,note_on,38,0,1
2,note_on,37,0,109
2,note_on,35,60,0
2,note_on,35,0,109
2,note_on,37,62,0
2,note_on,37,0,111
2,note_on,35,84,0
2,note_on,35,0,1920
2,note_on,38,77,0
2,note_on,38,0,1920
2,note_on,37,40,0
2,note_on,37,0,1920
2,note_on,37,35,0
2,note_on,37,0,480
2,note_on,49,35,0
2,note_on,53,31,480
2,note_on,53,0,480
2,note_on,56,31,0
2,note_on,56,0,480
2,note_on,49,0,0
2,note_on,42,35,0
2,note_on,42,0,1920
2,note_on,40,43,0
2,note_on,40,0,1920
2,note_on,38,63,0
2,note_on,38,0,1920
2,note_on,36,37,0
2,note_on,36,0,96
2,note_on,38,33,0
2,note_on,38,0,96
2,note_on,36,37,0
2,note_on,36,0,96
2,note_on,38,33,0
2,note_on,38,0,96
2,note_on,36,38,0
2,note_on,36,0,96
2,note_on,38,39,0
2,note_on,38,0,96
2,note_on,36,41,0
2,note_on,36,0,96
2,note_on,38,44,0
2,note_on,38,0,96
2,note_on,36,45,0
2,note_on,36,0,96
2,note_on,38,47,0
2,note_on,38,0,96
2,note_on,36,50,0
2,note_on,36,0,96
2,note_on,38,51,0
2,note_on,38,0,96
2,note_on,36,54,0
2,note_on,36,0,96
2,note_on,38,55,0
2,note_on,38,0,96
2,note_on,36,58,0
2,note_on,36,0,96
2,note_on,38,60,0
2,note_on,38,0,96
2,note_on,36,62,0
2,note_on,36,0,128
2,note_on,34,65,0
2,note_on,34,0,128
2,note_on,36,68,0
2,note_on,36,0,128
2,note_on,34,84,5
2,note_on,38,77,1915
2,note_on,34,0,5
2,note_on,38,0,1915
2,note_on,37,40,0
2,note_on,37,0,1920
2,note_on,37,35,0
2,note_on,37,0,480
2,note_on,49,35,0
2,note_on,53,31,480
2,note_on,53,0,480
2,note_on,56,31,0
2,note_on,56,0,480
2,note_on,49,0,0
2,note_on,42,40,0
2,note_on,49,27,480
2,note_on,46,27,0
2,note_on,46,0,480
2,note_on,49,0,0
2,note_on,47,26,0
2,note_on,51,30,0
2,note_on,51,0,480
2,note_on,47,0,0
2,note_on,49,24,0
2,note_on,46,24,0
2,note_on,46,0,480
2,note_on,49,0,0
2,note_on,42,0,0
2,note_on,37,28,0
2,note_on,37,0,480
2,note_on,49,28,0
2,note_on,53,24,480
2,note_on,53,0,480
2,note_on,56,24,0
2,note_on,56,0,480
2,note_on,49,0,0
2,note_on,42,40,0
2,note_on,49,24,480
2,note_on,46,24,0
2,note_on,46,0,480
2,note_on,49,0,0
2,note_on,47,23,0
2,note_on,51,27,0
2,note_on,51,0,480
2,note_on,47,0,0
2,note_on,49,21,0
2,note_on,46,21,0
2,note_on,46,0,480
2,note_on,49,0,0
2,note_on,42,0,0
2,note_on,37,28,0
2,note_on,37,0,480
2,note_on,49,28,0
2,note_on,56,24,480
2,note_on,56,0,480
2,note_on,59,24,0
2,note_on,59,0,480
2,note_on,49,0,0
2,note_on,49,32,0
2,note_on,42,28,0
2,note_on,42,0,1920
2,note_on,49,0,0
2,note_on,49,28,0
2,note_on,42,25,0
2,note_on,42,0,960
2,note_on,49,0,0
2,note_on,42,25,0
2,note_on,49,28,0
2,note_on,49,0,960
2,note_on,42,0,0
2,note_on,42,26,160
2,note_on,42,0,160
2,note_on,46,25,0
2,note_on,46,0,160
2,note_on,49,27,0
2,note_on,49,0,160
2,note_on,46,24,0
2,note_on,46,0,160
2,note_on,42,24,0
2,note_on,42,0,160
2,note_on,46,30,0
2,note_on,46,0,160
2,note_on,42,22,0
2,note_on,42,0,160
2,note_on,46,22,0
2,note_on,46,0,160
2,note_on,49,26,0
2,note_on,49,0,160
2,note_on,46,22,0
2,note_on,46,0,160
2,note_on,42,21,0
2,note_on,42,0,160
2,note_on,46,28,0
2,note_on,46,0,160
2,note_on,42,23,0
2,note_on,42,0,160
2,note_on,46,23,0
2,note_on,46,0,160
2,note_on,49,24,0
2,note_on,49,0,160
2,note_on,46,21,0
2,note_on,46,0,160
2,note_on,42,21,0
2,note_on,42,0,160
2,note_on,46,27,0
2,note_on,46,0,160
2,note_on,42,20,0
2,note_on,42,0,160
2,note_on,37,20,0
2,note_on,37,0,160
2,note_on,42,24,0
2,note_on,42,0,160
2,note_on,37,19,0
2,note_on,37,0,160
2,note_on,34,19,0
2,note_on,34,0,160
2,note_on,30,20,0
2,note_on,37,20,0
2,note_on,42,23,0
2,note_on,42,0,3840
2,note_on,37,0,0
2,note_on,30,0,0
