Track,Message Type,Note,Velocity,Time
1,note_on,68,60,4
1,note_on,68,0,240
1,note_on,64,66,0
1,note_on,64,0,120
1,note_on,61,60,0
1,note_on,61,0,120
1,note_on,64,60,0
1,note_on,64,0,120
1,note_on,68,60,0
1,note_on,68,0,120
1,note_on,64,64,0
1,note_on,64,0,120
1,note_on,61,60,0
1,note_on,61,0,120
1,note_on,64,60,0
1,note_on,64,0,120
1,note_on,69,60,0
1,note_on,69,0,120
1,note_on,63,63,0
1,note_on,63,0,120
1,note_on,60,60,0
1,note_on,60,0,120
1,note_on,63,60,0
1,note_on,63,0,120
1,note_on,69,60,0
1,note_on,69,0,120
1,note_on,63,63,0
1,note_on,63,0,120
1,note_on,60,60,0
1,note_on,60,0,120
1,note_on,63,60,0
1,note_on,63,0,120
1,note_on,68,60,0
1,note_on,68,0,120
1,note_on,68,66,0
1,note_on,68,0,120
1,note_on,64,63,0
1,note_on,64,0,120
1,note_on,68,63,0
1,note_on,68,0,120
1,note_on,76,63,0
1,note_on,76,0,120
1,note_on,68,66,0
1,note_on,68,0,120
1,note_on,64,63,0
1,note_on,64,0,120
1,note_on,68,63,0
1,note_on,68,0,120
1,note_on,73,63,0
1,note_on,73,0,120
1,note_on,69,67,0
1,note_on,69,0,120
1,note_on,68,60,0
1,note_on,68,0,120
1,note_on,66,61,0
1,note_on,66,0,120
1,note_on,73,62,0
1,note_on,73,0,120
1,note_on,72,68,0
1,note_on,72,0,120
1,note_on,66,65,0
1,note_on,66,0,120
1,note_on,68,66,0
1,note_on,68,0,120
1,note_on,72,67,0
1,note_on,72,0,120
1,note_on,73,72,0
1,note_on,73,0,120
1,note_on,64,63,0
1,note_on,64,0,120
1,note_on,68,65,0
1,note_on,68,0,120
1,note_on,73,67,0
1,note_on,73,0,120
1,note_on,76,69,0
1,note_on,76,0,120
1,note_on,68,64,0
1,note_on,68,0,120
1,note_on,76,66,0
1,note_on,76,0,120
1,note_on,80,68,0
1,note_on,80,0,120
1,note_on,76,73,0
1,note_on,76,0,120
1,note_on,69,64,0
1,note_on,69,0,120
1,note_on,76,66,0
1,note_on,76,0,120
1,note_on,80,68,0
1,note_on,80,0,120
1,note_on,74,70,0
1,note_on,74,0,120
1,note_on,78,67,0
1,note_on,78,0,120
1,note_on,73,70,0
1,note_on,73,0,120
1,note_on,76,67,0
1,note_on,76,0,120
1,note_on,72,68,0
1,note_on,72,0,120
1,note_on,75,65,0
1,note_on,75,0,120
1,note_on,73,67,0
1,note_on,73,0,120
1,note_on,76,65,0
1,note_on,76,0,120
1,note_on,75,68,0
1,note_on,75,0,120
1,note_on,78,64,0
1,note_on,78,0,120
1,note_on,72,69,0
1,note_on,72,0,120
1,note_on,75,64,0
1,note_on,75,0,120
1,note_on,76,68,0
1,note_on,76,0,120
1,note_on,73,67,0
1,note_on,73,0,120
1,note_on,71,66,0
1,note_on,71,0,120
1,note_on,69,64,0
1,note_on,69,0,120
1,note_on,68,63,0
1,note_on,68,0,120
1,note_on,66,62,0
1,note_on,66,0,120
1,note_on,64,60,0
1,note_on,64,0,120
1,note_on,63,59,0
1,note_on,63,0,120
1,note_on,64,62,0
1,note_on,64,0,120
1,note_on,61,57,0
1,note_on,61,0,120
1,note_on,64,57,0
1,note_on,64,0,120
1,note_on,68,57,0
1,note_on,68,0,120
1,note_on,64,60,0
1,note_on,64,0,120
1,note_on,61,57,0
1,note_on,61,0,120
1,note_on,64,57,0
1,note_on,64,0,120
1,note_on,69,57,0
1,note_on,69,0,120
1,note_on,63,59,0
1,note_on,63,0,120
1,note_on,59,57,0
1,note_on,59,0,120
1,note_on,63,57,0
1,note_on,63,0,120
1,note_on,69,57,0
1,note_on,69,0,120
1,note_on,63,59,0
1,note_on,63,0,120
1,note_on,59,57,0
1,note_on,59,0,120
1,note_on,63,57,0
1,note_on,63,0,120
1,note_on,68,57,0
1,note_on,68,0,120
1,note_on,68,62,0
1,note_on,68,0,120
1,note_on,61,59,0
1,note_on,61,0,120
1,note_on,68,59,0
1,note_on,68,0,120
1,note_on,73,59,0
1,note_on,73,0,120
1,note_on,66,62,0
1,note_on,66,0,120
1,note_on,63,59,0
1,note_on,63,0,120
1,note_on,66,59,0
1,note_on,66,0,120
1,note_on,73,59,0
1,note_on,73,0,120
1,note_on,68,63,0
1,note_on,68,0,120
1,note_on,64,59,0
1,note_on,64,0,120
1,note_on,68,59,0
1,note_on,68,0,120
1,note_on,73,59,0
1,note_on,73,0,120
1,note_on,68,62,0
1,note_on,68,0,120
1,note_on,64,60,0
1,note_on,64,0,120
1,note_on,68,60,0
1,note_on,68,0,120
1,note_on,71,60,0
1,note_on,71,0,120
1,note_on,67,68,0
1,note_on,67,0,120
1,note_on,64,59,0
1,note_on,64,0,120
1,note_on,67,61,0
1,note_on,67,0,120
1,note_on,70,63,0
1,note_on,70,0,120
1,note_on,76,65,0
1,note_on,76,0,120
1,note_on,70,60,0
1,note_on,70,0,120
1,note_on,76,62,0
1,note_on,76,0,120
1,note_on,79,64,0
1,note_on,79,0,120
1,note_on,75,64,0
1,note_on,75,0,120
1,note_on,79,62,0
1,note_on,79,0,120
1,note_on,75,63,0
1,note_on,75,0,120
1,note_on,78,61,0
1,note_on,78,0,120
1,note_on,69,62,0
1,note_on,69,0,120
1,note_on,76,61,0
1,note_on,76,0,120
1,note_on,69,62,0
1,note_on,69,0,120
1,note_on,75,60,0
1,note_on,75,0,120
1,note_on,69,59,0
1,note_on,69,0,120
1,note_on,78,56,0
1,note_on,78,0,120
1,note_on,68,59,0
1,note_on,68,0,120
1,note_on,76,56,0
1,note_on,76,0,120
1,note_on,64,58,0
1,note_on,64,0,120
1,note_on,73,55,0
1,note_on,73,0,120
1,note_on,61,57,0
1,note_on,61,0,120
1,note_on,69,55,0
1,note_on,69,0,120
1,note_on,59,57,0
1,note_on,59,0,120
1,note_on,68,55,0
1,note_on,68,0,120
1,note_on,64,57,0
1,note_on,64,0,120
1,note_on,71,56,0
1,note_on,71,0,120
1,note_on,59,57,0
1,note_on,59,0,120
1,note_on,69,56,0
1,note_on,69,0,120
1,note_on,63,57,0
1,note_on,63,0,120
1,note_on,71,56,0
1,note_on,71,0,120
1,note_on,69,57,0
1,note_on,63,54,120
1,note_on,63,0,120
1,note_on,59,54,0
1,note_on,59,0,120
1,note_on,69,0,0
1,note_on,69,57,0
1,note_on,69,0,120
1,note_on,68,57,0
1,note_on,68,0,120
1,note_on,64,53,0
1,note_on,64,0,120
1,note_on,68,55,0
1,note_on,68,0,120
1,note_on,69,57,0
1,note_on,69,0,120
1,note_on,71,59,0
1,note_on,71,0,120
1,note_on,68,50,0
1,note_on,68,0,120
1,note_on,71,53,0
1,note_on,71,0,120
1,note_on,80,46,0
1,note_on,80,0,120
1,note_on,71,49,0
1,note_on,71,0,120
1,note_on,78,44,0
1,note_on,78,0,120
1,note_on,72,49,0
1,note_on,72,0,120
1,note_on,76,46,0
1,note_on,76,0,120
1,note_on,73,53,0
1,note_on,73,0,120
1,note_on,64,56,0
1,note_on,64,0,120
1,note_on,73,54,0
1,note_on,73,0,120
1,note_on,76,55,0
1,note_on,76,0,120
1,note_on,71,59,0
1,note_on,71,0,120
1,note_on,75,54,0
1,note_on,75,0,120
1,note_on,69,57,0
1,note_on,69,0,120
1,note_on,73,54,0
1,note_on,73,0,120
1,note_on,68,57,0
1,note_on,68,0,120
1,note_on,59,54,0
1,note_on,59,0,120
1,note_on,68,54,0
1,note_on,68,0,120
1,note_on,71,54,0
1,note_on,71,0,120
1,note_on,64,57,0
1,note_on,64,0,120
1,note_on,58,51,0
1,note_on,58,0,120
1,note_on,64,52,0
1,note_on,64,0,120
1,note_on,73,52,0
1,note_on,73,0,120
1,note_on,66,54,0
1,note_on,66,0,120
1,note_on,57,49,0
1,note_on,57,0,120
1,note_on,66,49,0
1,note_on,66,0,120
1,note_on,71,49,0
1,note_on,71,0,120
1,note_on,66,53,0
1,note_on,66,0,120
1,note_on,57,48,0
1,note_on,57,0,120
1,note_on,66,48,0
1,note_on,66,0,120
1,note_on,71,48,0
1,note_on,71,0,120
1,note_on,64,48,0
1,note_on,64,0,120
1,note_on,56,44,0
1,note_on,56,0,120
1,note_on,64,44,0
1,note_on,64,0,120
1,note_on,68,44,0
1,note_on,68,0,120
1,note_on,63,48,480
1,note_on,63,0,120
1,note_on,57,43,0
1,note_on,57,0,120
1,note_on,63,43,0
1,note_on,63,0,120
1,note_on,71,43,0
1,note_on,71,0,120
1,note_on,64,48,480
1,note_on,64,0,120
1,note_on,56,45,0
1,note_on,56,0,120
1,note_on,64,45,0
1,note_on,64,0,120
1,note_on,68,45,0
1,note_on,68,0,120
1,note_on,68,44,0
1,note_on,68,0,120
1,note_on,71,49,0
1,note_on,71,0,120
1,note_on,76,53,0
1,note_on,76,0,120
1,note_on,80,58,0
1,note_on,80,0,120
1,note_on,80,62,0
1,note_on,68,46,120
1,note_on,68,0,120
1,note_on,80,0,0
1,note_on,76,56,0
1,note_on,68,47,120
1,note_on,68,0,120
1,note_on,76,0,0
1,note_on,75,53,0
1,note_on,68,44,120
1,note_on,68,0,120
1,note_on,75,0,0
1,note_on,74,50,0
1,note_on,68,44,120
1,note_on,68,0,120
1,note_on,74,0,0
1,note_on,73,48,0
1,note_on,73,0,120
1,note_on,61,43,0
1,note_on,61,0,120
1,note_on,69,43,0
1,note_on,69,0,120
1,note_on,73,43,0
1,note_on,73,0,120
1,note_on,68,48,480
1,note_on,68,0,120
1,note_on,62,42,0
1,note_on,62,0,120
1,note_on,68,42,0
1,note_on,68,0,120
1,note_on,76,42,0
1,note_on,76,0,120
1,note_on,69,48,480
1,note_on,69,0,120
1,note_on,61,42,0
1,note_on,61,0,120
1,note_on,69,42,0
1,note_on,69,0,120
1,note_on,73,43,0
1,note_on,73,0,120
1,note_on,73,43,0
1,note_on,73,0,120
1,note_on,76,48,0
1,note_on,76,0,120
1,note_on,81,53,0
1,note_on,81,0,120
1,note_on,85,59,0
1,note_on,85,0,120
1,note_on,85,64,0
1,note_on,85,0,120
1,note_on,73,56,0
1,note_on,73,0,120
1,note_on,81,61,0
1,note_on,81,0,120
1,note_on,73,56,0
1,note_on,73,0,120
1,note_on,80,61,0
1,note_on,80,0,120
1,note_on,76,56,0
1,note_on,76,0,120
1,note_on,78,61,0
1,note_on,78,0,120
1,note_on,75,55,0
1,note_on,75,0,120
1,note_on,64,66,0
1,note_on,68,66,0
1,note_on,76,66,0
1,note_on,76,0,120
1,note_on,68,0,0
1,note_on,64,0,0
1,note_on,68,61,0
1,note_on,68,0,120
1,note_on,66,61,0
1,note_on,66,0,120
1,note_on,68,61,0
1,note_on,68,0,120
1,note_on,64,58,0
1,note_on,64,0,120
1,note_on,68,62,0
1,note_on,68,0,120
1,note_on,63,66,0
1,note_on,63,0,120
1,note_on,68,69,0
1,note_on,68,0,120
1,note_on,64,80,0
1,note_on,64,0,120
1,note_on,61,74,0
1,note_on,61,0,120
1,note_on,64,74,0
1,note_on,64,0,120
1,note_on,68,74,0
1,note_on,68,0,120
1,note_on,64,78,0
1,note_on,64,0,120
1,note_on,61,74,0
1,note_on,61,0,120
1,note_on,64,74,0
1,note_on,64,0,120
1,note_on,69,74,0
1,note_on,69,0,120
1,note_on,63,76,0
1,note_on,63,0,120
1,note_on,60,74,0
1,note_on,60,0,120
1,note_on,63,74,0
1,note_on,63,0,120
1,note_on,69,74,0
1,note_on,69,0,120
1,note_on,63,76,0
1,note_on,63,0,120
1,note_on,60,74,0
1,note_on,60,0,120
1,note_on,63,74,0
1,note_on,63,0,120
1,note_on,68,74,0
1,note_on,68,0,120
1,note_on,68,80,0
1,note_on,68,0,120
1,note_on,64,76,0
1,note_on,64,0,120
1,note_on,68,76,0
1,note_on,68,0,120
1,note_on,76,76,0
1,note_on,76,0,120
1,note_on,68,80,0
1,note_on,68,0,120
1,note_on,64,76,0
1,note_on,64,0,120
1,note_on,68,76,0
1,note_on,68,0,120
1,note_on,73,76,0
1,note_on,73,0,120
1,note_on,69,82,0
1,note_on,69,0,120
1,note_on,68,74,0
1,note_on,68,0,120
1,note_on,66,75,0
1,note_on,66,0,120
1,note_on,73,76,0
1,note_on,73,0,120
1,note_on,72,83,0
1,note_on,72,0,120
1,note_on,63,79,0
1,note_on,63,0,120
1,note_on,68,80,0
1,note_on,68,0,120
1,note_on,72,82,0
1,note_on,72,0,120
1,note_on,73,88,0
1,note_on,73,0,120
1,note_on,68,76,0
1,note_on,68,0,120
1,note_on,73,79,0
1,note_on,73,0,120
1,note_on,76,82,0
1,note_on,76,0,120
1,note_on,76,84,0
1,note_on,76,0,120
1,note_on,68,82,0
1,note_on,68,0,120
1,note_on,76,86,0
1,note_on,76,0,120
1,note_on,80,90,0
1,note_on,80,0,120
1,note_on,76,93,0
1,note_on,76,0,120
1,note_on,69,90,0
1,note_on,69,0,120
1,note_on,76,88,0
1,note_on,76,0,120
1,note_on,80,85,0
1,note_on,80,0,120
1,note_on,74,86,0
1,note_on,74,0,120
1,note_on,78,82,0
1,note_on,78,0,120
1,note_on,73,86,0
1,note_on,73,0,120
1,note_on,76,82,0
1,note_on,76,0,120
1,note_on,72,83,0
1,note_on,72,0,120
1,note_on,75,79,0
1,note_on,75,0,120
1,note_on,73,82,0
1,note_on,73,0,120
1,note_on,76,76,0
1,note_on,76,0,120
1,note_on,75,81,0
1,note_on,75,0,120
1,note_on,78,75,0
1,note_on,78,0,120
1,note_on,72,79,0
1,note_on,72,0,120
1,note_on,75,72,0
1,note_on,75,0,120
1,note_on,76,79,0
1,note_on,76,0,120
1,note_on,73,74,0
1,note_on,73,0,120
1,note_on,71,69,0
1,note_on,71,0,120
1,note_on,69,65,0
1,note_on,69,0,120
1,note_on,68,61,0
1,note_on,68,0,120
1,note_on,66,57,0
1,note_on,66,0,120
1,note_on,64,53,0
1,note_on,64,0,120
1,note_on,63,48,0
1,note_on,63,0,120
1,note_on,64,42,0
1,note_on,64,0,120
1,note_on,61,45,0
1,note_on,61,0,120
1,note_on,64,45,0
1,note_on,64,0,120
1,note_on,68,45,0
1,note_on,68,0,120
1,note_on,64,48,0
1,note_on,64,0,120
1,note_on,61,45,0
1,note_on,61,0,120
1,note_on,64,45,0
1,note_on,64,0,120
1,note_on,69,45,0
1,note_on,69,0,120
1,note_on,63,47,0
1,note_on,63,0,120
1,note_on,59,45,0
1,note_on,59,0,120
1,note_on,63,45,0
1,note_on,63,0,120
1,note_on,69,45,0
1,note_on,69,0,120
1,note_on,63,47,0
1,note_on,63,0,120
1,note_on,59,45,0
1,note_on,59,0,120
1,note_on,63,45,0
1,note_on,63,0,120
1,note_on,68,45,0
1,note_on,68,0,120
1,note_on,68,49,0
1,note_on,68,0,120
1,note_on,61,47,0
1,note_on,61,0,120
1,note_on,68,47,0
1,note_on,68,0,120
1,note_on,73,47,0
1,note_on,73,0,120
1,note_on,66,49,0
1,note_on,66,0,120
1,note_on,63,47,0
1,note_on,63,0,120
1,note_on,66,47,0
1,note_on,66,0,120
1,note_on,73,47,0
1,note_on,73,0,120
1,note_on,68,50,0
1,note_on,68,0,120
1,note_on,64,47,0
1,note_on,64,0,120
1,note_on,68,47,0
1,note_on,68,0,120
1,note_on,73,47,0
1,note_on,73,0,120
1,note_on,68,49,0
1,note_on,68,0,120
1,note_on,64,48,0
1,note_on,64,0,120
1,note_on,68,48,0
1,note_on,68,0,120
1,note_on,71,48,0
1,note_on,71,0,120
1,note_on,67,54,0
1,note_on,67,0,120
1,note_on,64,47,0
1,note_on,64,0,120
1,note_on,67,48,0
1,note_on,67,0,120
1,note_on,70,50,0
1,note_on,70,0,120
1,note_on,76,52,0
1,note_on,76,0,120
1,note_on,70,48,0
1,note_on,70,0,120
1,note_on,76,49,0
1,note_on,76,0,120
1,note_on,79,51,0
1,note_on,79,0,120
1,note_on,75,51,0
1,note_on,75,0,120
1,note_on,79,49,0
1,note_on,79,0,120
1,note_on,75,50,0
1,note_on,75,0,120
1,note_on,78,48,0
1,note_on,78,0,120
1,note_on,69,49,0
1,note_on,69,0,120
1,note_on,76,48,0
1,note_on,76,0,120
1,note_on,69,49,0
1,note_on,69,0,120
1,note_on,75,48,0
1,note_on,75,0,120
1,note_on,69,47,0
1,note_on,69,0,120
1,note_on,78,44,0
1,note_on,78,0,120
1,note_on,68,47,0
1,note_on,68,0,120
1,note_on,76,44,0
1,note_on,76,0,120
1,note_on,64,46,0
1,note_on,64,0,120
1,note_on,73,44,0
1,note_on,73,0,120
1,note_on,61,45,0
1,note_on,61,0,120
1,note_on,69,44,0
1,note_on,69,0,120
1,note_on,59,45,0
1,note_on,59,0,120
1,note_on,68,44,0
1,note_on,68,0,120
1,note_on,64,45,0
1,note_on,64,0,120
1,note_on,71,44,0
1,note_on,71,0,120
1,note_on,59,45,0
1,note_on,59,0,120
1,note_on,69,44,0
1,note_on,69,0,120
1,note_on,63,45,0
1,note_on,63,0,120
1,note_on,71,44,0
1,note_on,71,0,120
1,note_on,69,45,0
1,note_on,63,43,120
1,note_on,63,0,120
1,note_on,59,43,0
1,note_on,59,0,120
1,note_on,69,0,0
1,note_on,69,45,0
1,note_on,69,0,120
1,note_on,68,45,0
1,note_on,68,0,120
1,note_on,59,42,0
1,note_on,59,0,120
1,note_on,64,44,0
1,note_on,64,0,120
1,note_on,66,45,0
1,note_on,66,0,120
1,note_on,68,47,0
1,note_on,68,0,120
1,note_on,64,43,0
1,note_on,64,0,120
1,note_on,68,45,0
1,note_on,68,0,120
1,note_on,76,44,0
1,note_on,76,0,120
1,note_on,68,47,0
1,note_on,68,0,120
1,note_on,75,44,0
1,note_on,75,0,120
1,note_on,68,48,0
1,note_on,68,0,120
1,note_on,73,44,0
1,note_on,73,0,120
1,note_on,69,48,0
1,note_on,69,0,120
1,note_on,61,44,0
1,note_on,61,0,120
1,note_on,69,46,0
1,note_on,69,0,120
1,note_on,73,46,0
1,note_on,73,0,120
1,note_on,68,47,0
1,note_on,68,0,120
1,note_on,71,43,0
1,note_on,71,0,120
1,note_on,66,45,0
1,note_on,66,0,120
1,note_on,69,43,0
1,note_on,69,0,120
1,note_on,64,45,0
1,note_on,64,0,120
1,note_on,56,43,0
1,note_on,56,0,120
1,note_on,64,43,0
1,note_on,64,0,120
1,note_on,68,43,0
1,note_on,68,0,120
1,note_on,61,45,0
1,note_on,61,0,120
1,note_on,55,40,0
1,note_on,55,0,120
1,note_on,61,41,0
1,note_on,61,0,120
1,note_on,69,41,0
1,note_on,69,0,120
1,note_on,63,43,0
1,note_on,63,0,120
1,note_on,54,39,0
1,note_on,54,0,120
1,note_on,63,39,0
1,note_on,63,0,120
1,note_on,68,39,0
1,note_on,68,0,120
1,note_on,63,42,0
1,note_on,63,0,120
1,note_on,54,38,0
1,note_on,54,0,120
1,note_on,63,38,0
1,note_on,63,0,120
1,note_on,68,38,0
1,note_on,68,0,120
1,note_on,61,38,0
1,note_on,61,0,120
1,note_on,52,35,0
1,note_on,52,0,120
1,note_on,61,35,0
1,note_on,61,0,120
1,note_on,64,35,0
1,note_on,64,0,120
1,note_on,61,38,480
1,note_on,61,0,120
1,note_on,52,34,0
1,note_on,52,0,120
1,note_on,61,34,0
1,note_on,61,0,120
1,note_on,64,34,0
1,note_on,64,0,120
1,note_on,62,38,480
1,note_on,62,0,120
1,note_on,57,36,0
1,note_on,57,0,120
1,note_on,62,36,0
1,note_on,62,0,120
1,note_on,66,36,0
1,note_on,66,0,120
1,note_on,66,35,0
1,note_on,66,0,120
1,note_on,69,39,0
1,note_on,69,0,120
1,note_on,74,42,0
1,note_on,74,0,120
1,note_on,78,46,0
1,note_on,78,0,120
1,note_on,81,49,0
1,note_on,74,36,120
1,note_on,74,0,120
1,note_on,81,0,0
1,note_on,69,37,0
1,note_on,78,44,0
1,note_on,69,0,120
1,note_on,71,37,0
1,note_on,71,0,120
1,note_on,78,0,0
1,note_on,73,35,0
1,note_on,76,42,0
1,note_on,73,0,120
1,note_on,68,35,0
1,note_on,68,0,120
1,note_on,76,0,0
1,note_on,72,35,0
1,note_on,75,40,0
1,note_on,72,0,120
1,note_on,68,35,0
1,note_on,68,0,120
1,note_on,75,0,0
1,note_on,73,38,0
1,note_on,73,0,120
1,note_on,64,34,0
1,note_on,64,0,120
1,note_on,73,34,0
1,note_on,73,0,120
1,note_on,76,34,0
1,note_on,76,0,120
1,note_on,73,38,480
1,note_on,73,0,120
1,note_on,64,33,0
1,note_on,64,0,120
1,note_on,73,33,0
1,note_on,73,0,120
1,note_on,76,33,0
1,note_on,76,0,120
1,note_on,74,38,480
1,note_on,74,0,120
1,note_on,69,39,0
1,note_on,69,0,120
1,note_on,74,44,0
1,note_on,74,0,120
1,note_on,78,49,0
1,note_on,78,0,120
1,note_on,81,55,0
1,note_on,81,0,120
1,note_on,78,53,0
1,note_on,78,0,120
1,note_on,74,50,0
1,note_on,74,0,120
1,note_on,69,47,0
1,note_on,69,0,120
1,note_on,68,44,0
1,note_on,68,0,120
1,note_on,76,44,0
1,note_on,76,0,120
1,note_on,64,48,0
1,note_on,64,0,120
1,note_on,73,44,0
1,note_on,73,0,120
1,note_on,66,48,0
1,note_on,66,0,120
1,note_on,75,44,0
1,note_on,75,0,120
1,note_on,63,48,0
1,note_on,63,0,120
1,note_on,72,44,0
1,note_on,72,0,120
1,note_on,64,51,0
1,note_on,64,0,120
1,note_on,73,42,0
1,note_on,73,0,120
1,note_on,61,43,0
1,note_on,64,43,0
1,note_on,64,0,120
1,note_on,61,0,0
1,note_on,68,35,0
1,note_on,68,0,120
1,note_on,63,38,0
1,note_on,66,38,0
1,note_on,66,0,120
1,note_on,63,0,0
1,note_on,68,31,0
1,note_on,68,0,120
1,note_on,60,34,0
1,note_on,63,34,0
1,note_on,63,0,120
1,note_on,60,0,0
1,note_on,68,30,0
1,note_on,68,0,120
1,note_on,65,36,0
1,note_on,65,0,120
1,note_on,68,36,0
1,note_on,68,0,120
1,note_on,66,32,0
1,note_on,70,32,0
1,note_on,70,0,480
1,note_on,66,0,0
1,note_on,65,28,0
1,note_on,68,28,0
1,note_on,68,0,180
1,note_on,65,0,0
1,note_on,65,36,60
1,note_on,65,0,120
1,note_on,68,36,0
1,note_on,68,0,120
1,note_on,66,33,0
1,note_on,70,33,0
1,note_on,73,33,0
1,note_on,73,0,480
1,note_on,70,0,0
1,note_on,66,0,0
1,note_on,65,30,0
1,note_on,68,30,0
1,note_on,68,0,180
1,note_on,65,0,0
1,note_on,65,37,60
1,note_on,68,37,0
1,note_on,68,0,120
1,note_on,65,0,0
1,note_on,62,37,0
1,note_on,62,0,120
1,note_on,63,39,0
1,note_on,66,39,0
1,note_on,66,0,480
1,note_on,63,0,0
1,note_on,66,36,0
1,note_on,75,36,0
1,note_on,75,0,240
1,note_on,66,0,0
1,note_on,68,39,0
1,note_on,77,39,0
1,note_on,77,0,120
1,note_on,68,0,0
1,note_on,66,37,0
1,note_on,75,37,0
1,note_on,75,0,120
1,note_on,66,0,0
1,note_on,65,38,0
1,note_on,73,38,0
1,note_on,73,0,480
1,note_on,65,0,0
1,note_on,65,31,0
1,note_on,68,31,0
1,note_on,68,0,180
1,note_on,65,0,0
1,note_on,65,36,0
1,note_on,65,0,120
1,note_on,68,36,0
1,note_on,68,0,120
1,note_on,66,32,0
1,note_on,70,32,0
1,note_on,70,0,480
1,note_on,66,0,0
1,note_on,65,30,0
1,note_on,68,30,0
1,note_on,68,0,180
1,note_on,65,0,0
1,note_on,65,36,60
1,note_on,65,0,120
1,note_on,68,36,0
1,note_on,68,0,120
1,note_on,66,32,0
1,note_on,70,32,0
1,note_on,73,32,0
1,note_on,73,0,480
1,note_on,70,0,0
1,note_on,66,0,0
1,note_on,65,28,0
1,note_on,68,28,0
1,note_on,68,0,180
1,note_on,65,0,0
1,note_on,65,37,60
1,note_on,68,37,0
1,note_on,68,0,120
1,note_on,65,0,0
1,note_on,62,37,0
1,note_on,62,0,120
1,note_on,63,39,0
1,note_on,66,39,0
1,note_on,66,0,360
1,note_on,63,0,0
1,note_on,66,36,0
1,note_on,75,36,0
1,note_on,75,0,120
1,note_on,66,0,0
1,note_on,68,37,0
1,note_on,77,37,0
1,note_on,77,0,120
1,note_on,68,0,0
1,note_on,66,36,0
1,note_on,75,36,0
1,note_on,75,0,120
1,note_on,66,0,0
1,note_on,65,37,0
1,note_on,73,37,0
1,note_on,73,0,120
1,note_on,65,0,0
1,note_on,66,37,0
1,note_on,75,37,0
1,note_on,75,0,120
1,note_on,66,0,0
1,note_on,65,40,0
1,note_on,73,40,0
1,note_on,73,0,720
1,note_on,65,0,0
1,note_on,56,43,0
1,note_on,56,0,120
1,note_on,60,43,0
1,note_on,60,0,120
1,note_on,52,47,0
1,note_on,56,47,0
1,note_on,61,47,0
1,note_on,61,0,480
1,note_on,56,0,0
1,note_on,52,0,0
1,note_on,51,38,0
1,note_on,56,38,0
1,note_on,60,38,0
1,note_on,60,0,240
1,note_on,56,0,0
1,note_on,51,0,0
1,note_on,56,48,0
1,note_on,56,0,120
1,note_on,60,48,0
1,note_on,60,0,120
1,note_on,56,53,0
1,note_on,64,53,0
1,note_on,61,53,0
1,note_on,61,0,480
1,note_on,64,0,0
1,note_on,56,0,0
1,note_on,56,45,0
1,note_on,63,45,0
1,note_on,60,45,0
1,note_on,60,0,240
1,note_on,63,0,0
1,note_on,56,0,0
1,note_on,60,53,0
1,note_on,63,53,0
1,note_on,63,0,120
1,note_on,60,0,0
1,note_on,69,53,0
1,note_on,69,0,120
1,note_on,61,56,0
1,note_on,64,56,0
1,note_on,68,56,0
1,note_on,68,0,480
1,note_on,64,0,0
1,note_on,61,0,0
1,note_on,60,38,0
1,note_on,63,38,0
1,note_on,68,38,0
1,note_on,68,0,240
1,note_on,63,0,0
1,note_on,60,0,0
1,note_on,59,25,0
1,note_on,63,25,0
1,note_on,69,27,0
1,note_on,69,0,120
1,note_on,71,27,0
1,note_on,71,0,120
1,note_on,63,0,0
1,note_on,59,0,0
1,note_on,59,24,0
1,note_on,64,24,0
1,note_on,68,26,0
1,note_on,68,0,720
1,note_on,64,0,0
1,note_on,59,0,0
1,note_on,65,32,0
1,note_on,65,0,120
1,note_on,68,32,0
1,note_on,68,0,120
1,note_on,66,23,0
1,note_on,70,27,0
1,note_on,70,0,480
1,note_on,66,0,0
1,note_on,65,21,0
1,note_on,68,25,0
1,note_on,68,0,180
1,note_on,65,0,0
1,note_on,65,32,60
1,note_on,65,0,120
1,note_on,68,32,0
1,note_on,68,0,120
1,note_on,66,25,0
1,note_on,70,25,0
1,note_on,73,30,0
1,note_on,73,0,480
1,note_on,70,0,0
1,note_on,66,0,0
1,note_on,65,20,0
1,note_on,68,24,0
1,note_on,68,0,180
1,note_on,65,0,0
1,note_on,65,28,60
1,note_on,68,33,0
1,note_on,68,0,120
1,note_on,65,0,0
1,note_on,62,33,0
1,note_on,62,0,120
1,note_on,63,32,0
1,note_on,66,38,0
1,note_on,66,0,480
1,note_on,63,0,0
1,note_on,66,26,0
1,note_on,75,31,0
1,note_on,75,0,240
1,note_on,66,0,0
1,note_on,68,31,0
1,note_on,77,37,0
1,note_on,77,0,120
1,note_on,68,0,0
1,note_on,66,28,0
1,note_on,75,33,0
1,note_on,75,0,120
1,note_on,66,0,0
1,note_on,65,34,0
1,note_on,73,40,0
1,note_on,73,0,480
1,note_on,65,0,0
1,note_on,65,25,0
1,note_on,68,30,0
1,note_on,68,0,180
1,note_on,65,0,0
1,note_on,65,32,0
1,note_on,65,0,120
1,note_on,68,32,0
1,note_on,68,0,120
1,note_on,66,26,0
1,note_on,70,31,0
1,note_on,70,0,480
1,note_on,66,0,0
1,note_on,65,25,0
1,note_on,68,30,0
1,note_on,68,0,180
1,note_on,65,0,0
1,note_on,65,32,60
1,note_on,65,0,120
1,note_on,68,32,0
1,note_on,68,0,120
1,note_on,66,26,0
1,note_on,70,26,0
1,note_on,73,31,0
1,note_on,73,0,480
1,note_on,70,0,0
1,note_on,66,0,0
1,note_on,65,22,0
1,note_on,68,26,0
1,note_on,68,0,180
1,note_on,65,0,0
1,note_on,65,28,60
1,note_on,68,33,0
1,note_on,68,0,120
1,note_on,65,0,0
1,note_on,62,33,0
1,note_on,62,0,120
1,note_on,63,34,0
1,note_on,66,40,0
1,note_on,66,0,360
1,note_on,63,0,0
1,note_on,66,27,0
1,note_on,75,32,0
1,note_on,75,0,120
1,note_on,66,0,0
1,note_on,68,28,0
1,note_on,77,33,0
1,note_on,77,0,120
1,note_on,68,0,0
1,note_on,66,27,0
1,note_on,75,32,0
1,note_on,75,0,120
1,note_on,66,0,0
1,note_on,65,28,0
1,note_on,73,33,0
1,note_on,73,0,120
1,note_on,65,0,0
1,note_on,66,28,0
1,note_on,75,33,0
1,note_on,75,0,120
1,note_on,66,0,0
1,note_on,65,30,0
1,note_on,73,36,0
1,note_on,73,0,720
1,note_on,65,0,0
1,note_on,56,36,0
1,note_on,56,0,120
1,note_on,60,36,0
1,note_on,60,0,120
1,note_on,52,36,0
1,note_on,56,36,0
1,note_on,61,39,0
1,note_on,61,0,480
1,note_on,56,0,0
1,note_on,52,0,0
1,note_on,51,29,0
1,note_on,56,29,0
1,note_on,60,31,0
1,note_on,60,0,240
1,note_on,56,0,0
1,note_on,51,0,0
1,note_on,56,39,0
1,note_on,56,0,120
1,note_on,60,39,0
1,note_on,60,0,120
1,note_on,56,40,0
1,note_on,64,44,0
1,note_on,61,40,0
1,note_on,61,0,480
1,note_on,64,0,0
1,note_on,56,0,0
1,note_on,56,34,0
1,note_on,63,37,0
1,note_on,60,34,0
1,note_on,60,0,240
1,note_on,63,0,0
1,note_on,56,0,0
1,note_on,60,40,0
1,note_on,63,44,0
1,note_on,63,0,120
1,note_on,60,0,0
1,note_on,69,44,0
1,note_on,69,0,120
1,note_on,61,44,0
1,note_on,64,44,0
1,note_on,68,48,0
1,note_on,68,0,480
1,note_on,64,0,0
1,note_on,61,0,0
1,note_on,60,35,0
1,note_on,63,35,0
1,note_on,68,38,0
1,note_on,68,0,240
1,note_on,63,0,0
1,note_on,60,0,0
1,note_on,59,24,0
1,note_on,63,24,0
1,note_on,69,26,0
1,note_on,69,0,120
1,note_on,71,26,0
1,note_on,71,0,120
1,note_on,63,0,0
1,note_on,59,0,0
1,note_on,59,24,0
1,note_on,64,24,0
1,note_on,68,26,0
1,note_on,68,0,720
1,note_on,64,0,0
1,note_on,59,0,0
1,note_on,59,47,0
1,note_on,64,47,0
1,note_on,68,47,0
1,note_on,68,0,120
1,note_on,69,47,0
1,note_on,69,0,120
1,note_on,64,0,0
1,note_on,59,0,0
1,note_on,59,51,0
1,note_on,63,51,0
1,note_on,66,51,0
1,note_on,66,0,480
1,note_on,63,0,0
1,note_on,59,0,0
1,note_on,59,44,0
1,note_on,64,44,0
1,note_on,68,44,0
1,note_on,68,0,240
1,note_on,64,0,0
1,note_on,59,0,0
1,note_on,59,49,0
1,note_on,64,49,0
1,note_on,68,49,0
1,note_on,68,0,120
1,note_on,69,49,0
1,note_on,69,0,120
1,note_on,64,0,0
1,note_on,59,0,0
1,note_on,59,53,0
1,note_on,63,53,0
1,note_on,66,53,0
1,note_on,66,0,480
1,note_on,63,0,0
1,note_on,59,0,0
1,note_on,59,48,0
1,note_on,64,48,0
1,note_on,68,48,0
1,note_on,68,0,240
1,note_on,64,0,0
1,note_on,59,0,0
1,note_on,59,53,0
1,note_on,63,53,0
1,note_on,66,53,0
1,note_on,66,0,120
1,note_on,68,53,0
1,note_on,68,0,120
1,note_on,63,0,0
1,note_on,59,0,0
1,note_on,56,56,0
1,note_on,61,56,0
1,note_on,64,56,0
1,note_on,64,0,480
1,note_on,61,0,0
1,note_on,56,0,0
1,note_on,57,60,0
1,note_on,61,60,0
1,note_on,66,60,0
1,note_on,66,0,240
1,note_on,61,0,0
1,note_on,57,0,0
1,note_on,57,56,0
1,note_on,63,56,0
1,note_on,63,0,120
1,note_on,66,56,0
1,note_on,66,0,120
1,note_on,57,0,0
1,note_on,56,52,0
1,note_on,64,52,0
1,note_on,64,0,440
1,note_on,56,0,0
1,note_on,68,45,40
1,note_on,76,45,0
1,note_on,76,0,240
1,note_on,68,0,0
1,note_on,69,48,0
1,note_on,76,48,0
1,note_on,76,0,120
1,note_on,80,48,0
1,note_on,80,0,120
1,note_on,69,0,0
1,note_on,69,51,0
1,note_on,78,51,0
1,note_on,78,0,480
1,note_on,69,0,0
1,note_on,66,47,0
1,note_on,69,47,0
1,note_on,69,0,240
1,note_on,66,0,0
1,note_on,64,53,0
1,note_on,68,53,0
1,note_on,68,0,120
1,note_on,64,0,0
1,note_on,66,53,0
1,note_on,69,53,0
1,note_on,69,0,120
1,note_on,66,0,0
1,note_on,68,54,0
1,note_on,71,54,0
1,note_on,71,0,480
1,note_on,68,0,0
1,note_on,68,48,0
1,note_on,76,48,0
1,note_on,76,0,240
1,note_on,68,0,0
1,note_on,69,54,0
1,note_on,76,54,0
1,note_on,76,0,120
1,note_on,80,54,0
1,note_on,80,0,120
1,note_on,69,0,0
1,note_on,69,55,0
1,note_on,78,55,0
1,note_on,78,0,480
1,note_on,69,0,0
1,note_on,75,51,0
1,note_on,69,51,0
1,note_on,69,0,240
1,note_on,75,0,0
1,note_on,68,51,0
1,note_on,76,51,0
1,note_on,76,0,120
1,note_on,68,0,0
1,note_on,69,51,0
1,note_on,73,51,0
1,note_on,73,0,120
1,note_on,69,0,0
1,note_on,68,50,0
1,note_on,71,50,0
1,note_on,71,0,480
1,note_on,68,0,0
1,note_on,59,47,0
1,note_on,68,47,0
1,note_on,64,47,0
1,note_on,64,0,240
1,note_on,68,0,0
1,note_on,59,0,0
1,note_on,59,60,0
1,note_on,64,60,0
1,note_on,68,60,0
1,note_on,68,0,120
1,note_on,69,60,0
1,note_on,69,0,120
1,note_on,64,0,0
1,note_on,59,0,0
1,note_on,59,65,0
1,note_on,63,65,0
1,note_on,66,65,0
1,note_on,66,0,480
1,note_on,63,0,0
1,note_on,59,0,0
1,note_on,59,55,0
1,note_on,64,55,0
1,note_on,68,55,0
1,note_on,68,0,240
1,note_on,64,0,0
1,note_on,59,0,0
1,note_on,59,62,0
1,note_on,64,62,0
1,note_on,68,62,0
1,note_on,68,0,120
1,note_on,69,62,0
1,note_on,69,0,120
1,note_on,64,0,0
1,note_on,59,0,0
1,note_on,59,67,0
1,note_on,63,67,0
1,note_on,66,67,0
1,note_on,66,0,480
1,note_on,63,0,0
1,note_on,59,0,0
1,note_on,59,61,0
1,note_on,64,61,0
1,note_on,68,61,0
1,note_on,68,0,240
1,note_on,64,0,0
1,note_on,59,0,0
1,note_on,59,67,0
1,note_on,63,67,0
1,note_on,66,67,0
1,note_on,66,0,120
1,note_on,68,67,0
1,note_on,68,0,120
1,note_on,63,0,0
1,note_on,59,0,0
1,note_on,56,72,0
1,note_on,61,72,0
1,note_on,64,72,0
1,note_on,64,0,480
1,note_on,61,0,0
1,note_on,56,0,0
1,note_on,63,72,0
1,note_on,63,0,120
1,note_on,61,70,0
1,note_on,61,0,120
1,note_on,60,72,0
1,note_on,60,0,120
1,note_on,63,70,0
1,note_on,63,0,120
1,note_on,61,66,0
1,note_on,61,0,440
1,note_on,65,40,40
1,note_on,73,40,0
1,note_on,73,0,240
1,note_on,65,0,0
1,note_on,66,42,0
1,note_on,74,42,0
1,note_on,74,0,120
1,note_on,77,42,0
1,note_on,77,0,120
1,note_on,66,0,0
1,note_on,66,40,0
1,note_on,75,40,0
1,note_on,75,0,480
1,note_on,66,0,0
1,note_on,63,34,0
1,note_on,66,34,0
1,note_on,66,0,240
1,note_on,63,0,0
1,note_on,65,37,0
1,note_on,65,0,120
1,note_on,63,37,0
1,note_on,66,37,0
1,note_on,66,0,120
1,note_on,63,0,0
1,note_on,65,40,0
1,note_on,68,40,0
1,note_on,68,0,480
1,note_on,65,0,0
1,note_on,73,38,0
1,note_on,65,38,0
1,note_on,65,0,240
1,note_on,73,0,0
1,note_on,66,40,0
1,note_on,74,40,0
1,note_on,74,0,120
1,note_on,77,40,0
1,note_on,77,0,120
1,note_on,66,0,0
1,note_on,66,38,0
1,note_on,75,38,0
1,note_on,75,0,480
1,note_on,66,0,0
1,note_on,71,32,0
1,note_on,77,32,0
1,note_on,77,0,240
1,note_on,71,0,0
1,note_on,72,35,0
1,note_on,77,35,0
1,note_on,77,0,120
1,note_on,80,35,0
1,note_on,80,0,120
1,note_on,72,0,0
1,note_on,72,32,0
1,note_on,78,32,0
1,note_on,78,0,720
1,note_on,72,0,0
1,note_on,65,31,0
1,note_on,65,0,120
1,note_on,68,31,0
1,note_on,68,0,120
1,note_on,66,27,0
1,note_on,70,29,0
1,note_on,70,0,480
1,note_on,66,0,0
1,note_on,65,25,0
1,note_on,68,27,0
1,note_on,68,0,180
1,note_on,65,0,0
1,note_on,65,31,60
1,note_on,65,0,120
1,note_on,68,31,0
1,note_on,68,0,120
1,note_on,66,26,0
1,note_on,70,26,0
1,note_on,73,28,0
1,note_on,73,0,480
1,note_on,70,0,0
1,note_on,66,0,0
1,note_on,65,24,0
1,note_on,68,26,0
1,note_on,68,0,180
1,note_on,65,0,0
1,note_on,65,30,60
1,note_on,68,33,0
1,note_on,68,0,120
1,note_on,65,0,0
1,note_on,62,33,0
1,note_on,62,0,120
1,note_on,63,31,0
1,note_on,66,34,0
1,note_on,66,0,480
1,note_on,63,0,0
1,note_on,66,29,0
1,note_on,75,31,0
1,note_on,75,0,240
1,note_on,66,0,0
1,note_on,68,33,0
1,note_on,77,36,0
1,note_on,77,0,120
1,note_on,68,0,0
1,note_on,66,30,0
1,note_on,75,33,0
1,note_on,75,0,120
1,note_on,66,0,0
1,note_on,65,32,0
1,note_on,73,35,0
1,note_on,73,0,480
1,note_on,65,0,0
1,note_on,65,27,0
1,note_on,68,29,0
1,note_on,68,0,180
1,note_on,65,0,0
1,note_on,65,31,0
1,note_on,65,0,120
1,note_on,68,31,0
1,note_on,68,0,120
1,note_on,66,26,0
1,note_on,70,28,0
1,note_on,70,0,480
1,note_on,66,0,0
1,note_on,65,26,0
1,note_on,68,28,0
1,note_on,68,0,180
1,note_on,65,0,0
1,note_on,65,31,60
1,note_on,65,0,120
1,note_on,68,31,0
1,note_on,68,0,120
1,note_on,66,27,0
1,note_on,70,27,0
1,note_on,73,29,0
1,note_on,73,0,480
1,note_on,70,0,0
1,note_on,66,0,0
1,note_on,65,24,0
1,note_on,68,26,0
1,note_on,68,0,180
1,note_on,65,0,0
1,note_on,65,30,60
1,note_on,68,33,0
1,note_on,68,0,120
1,note_on,65,0,0
1,note_on,62,33,0
1,note_on,62,0,120
1,note_on,63,36,0
1,note_on,66,39,0
1,note_on,66,0,360
1,note_on,63,0,0
1,note_on,66,29,0
1,note_on,75,31,0
1,note_on,75,0,120
1,note_on,66,0,0
1,note_on,68,30,0
1,note_on,77,33,0
1,note_on,77,0,120
1,note_on,68,0,0
1,note_on,66,29,0
1,note_on,75,31,0
1,note_on,75,0,120
1,note_on,66,0,0
1,note_on,65,30,0
1,note_on,73,33,0
1,note_on,73,0,120
1,note_on,65,0,0
1,note_on,66,30,0
1,note_on,75,33,0
1,note_on,75,0,120
1,note_on,66,0,0
1,note_on,65,32,0
1,note_on,73,35,0
1,note_on,73,0,720
1,note_on,65,0,0
1,note_on,60,42,1920
1,note_on,57,42,0
1,note_on,57,0,120
1,note_on,60,0,0
1,note_on,66,42,0
1,note_on,66,0,120
1,note_on,58,46,0
1,note_on,61,46,0
1,note_on,65,46,0
1,note_on,65,0,480
1,note_on,61,0,0
1,note_on,58,0,0
1,note_on,57,36,0
1,note_on,60,36,0
1,note_on,65,36,0
1,note_on,65,0,240
1,note_on,60,0,0
1,note_on,57,0,0
1,note_on,56,25,0
1,note_on,60,25,0
1,note_on,66,27,0
1,note_on,66,0,120
1,note_on,68,27,0
1,note_on,68,0,120
1,note_on,60,0,0
1,note_on,56,0,0
1,note_on,56,25,0
1,note_on,61,25,0
1,note_on,65,27,0
1,note_on,68,47,480
1,note_on,64,47,0
1,note_on,59,47,16
1,note_on,64,0,224
1,note_on,68,0,0
1,note_on,65,0,0
1,note_on,56,0,0
1,note_on,61,0,0
1,note_on,59,47,0
1,note_on,64,47,0
1,note_on,68,47,0
1,note_on,59,0,16
1,note_on,68,0,104
1,note_on,69,47,0
1,note_on,69,0,120
1,note_on,64,0,0
1,note_on,59,0,0
1,note_on,59,51,0
1,note_on,63,51,0
1,note_on,66,51,0
1,note_on,66,0,480
1,note_on,63,0,0
1,note_on,59,0,0
1,note_on,59,44,0
1,note_on,64,44,0
1,note_on,68,44,0
1,note_on,68,0,240
1,note_on,64,0,0
1,note_on,59,0,0
1,note_on,59,49,0
1,note_on,64,49,0
1,note_on,68,49,0
1,note_on,68,0,120
1,note_on,69,49,0
1,note_on,69,0,120
1,note_on,64,0,0
1,note_on,59,0,0
1,note_on,59,53,0
1,note_on,63,53,0
1,note_on,66,53,0
1,note_on,66,0,480
1,note_on,63,0,0
1,note_on,59,0,0
1,note_on,59,48,0
1,note_on,64,48,0
1,note_on,68,48,0
1,note_on,68,0,240
1,note_on,64,0,0
1,note_on,59,0,0
1,note_on,59,53,0
1,note_on,63,53,0
1,note_on,66,53,0
1,note_on,66,0,120
1,note_on,68,53,0
1,note_on,68,0,120
1,note_on,63,0,0
1,note_on,59,0,0
1,note_on,56,56,0
1,note_on,61,56,0
1,note_on,64,56,0
1,note_on,64,0,480
1,note_on,61,0,0
1,note_on,56,0,0
1,note_on,57,60,0
1,note_on,61,60,0
1,note_on,66,60,0
1,note_on,66,0,240
1,note_on,61,0,0
1,note_on,57,0,0
1,note_on,57,56,0
1,note_on,63,56,0
1,note_on,63,0,120
1,note_on,66,56,0
1,note_on,66,0,120
1,note_on,57,0,0
1,note_on,56,52,0
1,note_on,64,52,0
1,note_on,64,0,440
1,note_on,56,0,0
1,note_on,68,45,40
1,note_on,76,45,0
1,note_on,76,0,240
1,note_on,68,0,0
1,note_on,69,48,0
1,note_on,76,48,0
1,note_on,76,0,120
1,note_on,80,48,0
1,note_on,80,0,120
1,note_on,69,0,0
1,note_on,69,51,0
1,note_on,78,51,0
1,note_on,78,0,480
1,note_on,69,0,0
1,note_on,66,47,0
1,note_on,69,47,0
1,note_on,69,0,240
1,note_on,66,0,0
1,note_on,68,53,0
1,note_on,68,0,120
1,note_on,66,53,0
1,note_on,69,53,0
1,note_on,69,0,120
1,note_on,66,0,0
1,note_on,68,54,0
1,note_on,71,54,0
1,note_on,71,0,480
1,note_on,68,0,0
1,note_on,68,48,0
1,note_on,76,48,0
1,note_on,76,0,240
1,note_on,68,0,0
1,note_on,69,54,0
1,note_on,76,54,0
1,note_on,76,0,120
1,note_on,80,54,0
1,note_on,80,0,120
1,note_on,69,0,0
1,note_on,69,55,0
1,note_on,78,55,0
1,note_on,78,0,480
1,note_on,69,0,0
1,note_on,75,51,0
1,note_on,69,51,0
1,note_on,69,0,240
1,note_on,75,0,0
1,note_on,68,51,0
1,note_on,76,51,0
1,note_on,76,0,120
1,note_on,68,0,0
1,note_on,69,51,0
1,note_on,73,51,0
1,note_on,73,0,120
1,note_on,69,0,0
1,note_on,68,50,0
1,note_on,71,50,0
1,note_on,71,0,480
1,note_on,68,0,0
1,note_on,59,47,0
1,note_on,68,47,0
1,note_on,64,47,0
1,note_on,64,0,240
1,note_on,68,0,0
1,note_on,59,0,0
1,note_on,59,67,0
1,note_on,64,67,0
1,note_on,68,67,0
1,note_on,68,0,120
1,note_on,69,67,0
1,note_on,69,0,120
1,note_on,64,0,0
1,note_on,59,0,0
1,note_on,59,73,0
1,note_on,63,73,0
1,note_on,66,73,0
1,note_on,66,0,480
1,note_on,63,0,0
1,note_on,59,0,0
1,note_on,59,62,0
1,note_on,64,62,0
1,note_on,68,62,0
1,note_on,68,0,240
1,note_on,64,0,0
1,note_on,59,0,0
1,note_on,59,69,0
1,note_on,64,69,0
1,note_on,68,69,0
1,note_on,68,0,120
1,note_on,69,69,0
1,note_on,69,0,120
1,note_on,64,0,0
1,note_on,59,0,0
1,note_on,59,75,0
1,note_on,63,75,0
1,note_on,66,75,0
1,note_on,66,0,480
1,note_on,63,0,0
1,note_on,59,0,0
1,note_on,59,68,0
1,note_on,64,68,0
1,note_on,68,68,0
1,note_on,68,0,240
1,note_on,64,0,0
1,note_on,59,0,0
1,note_on,59,75,0
1,note_on,63,75,0
1,note_on,66,75,0
1,note_on,66,0,120
1,note_on,68,75,0
1,note_on,68,0,120
1,note_on,63,0,0
1,note_on,59,0,0
1,note_on,56,80,0
1,note_on,61,80,0
1,note_on,64,80,0
1,note_on,64,0,480
1,note_on,61,0,0
1,note_on,56,0,0
1,note_on,63,81,0
1,note_on,63,0,120
1,note_on,61,78,0
1,note_on,61,0,120
1,note_on,60,80,0
1,note_on,60,0,120
1,note_on,63,78,0
1,note_on,63,0,120
1,note_on,61,74,0
1,note_on,61,0,440
1,note_on,65,40,40
1,note_on,73,40,0
1,note_on,73,0,240
1,note_on,65,0,0
1,note_on,66,42,0
1,note_on,74,42,0
1,note_on,74,0,120
1,note_on,77,42,0
1,note_on,77,0,120
1,note_on,66,0,0
1,note_on,66,40,0
1,note_on,75,40,0
1,note_on,75,0,480
1,note_on,66,0,0
1,note_on,63,34,0
1,note_on,66,34,0
1,note_on,66,0,240
1,note_on,63,0,0
1,note_on,65,37,0
1,note_on,65,0,120
1,note_on,63,37,0
1,note_on,66,37,0
1,note_on,66,0,120
1,note_on,63,0,0
1,note_on,65,40,0
1,note_on,68,40,0
1,note_on,68,0,480
1,note_on,65,0,0
1,note_on,73,38,0
1,note_on,65,38,0
1,note_on,65,0,240
1,note_on,73,0,0
1,note_on,66,40,0
1,note_on,74,40,0
1,note_on,74,0,120
1,note_on,77,40,0
1,note_on,77,0,120
1,note_on,66,0,0
1,note_on,66,38,0
1,note_on,75,38,0
1,note_on,75,0,480
1,note_on,66,0,0
1,note_on,71,32,0
1,note_on,77,32,0
1,note_on,77,0,240
1,note_on,71,0,0
1,note_on,72,35,0
1,note_on,77,35,0
1,note_on,77,0,120
1,note_on,80,35,0
1,note_on,80,0,120
1,note_on,72,0,0
1,note_on,72,32,0
1,note_on,78,32,0
1,note_on,78,0,720
1,note_on,72,0,0
1,note_on,65,31,0
1,note_on,65,0,120
1,note_on,68,31,0
1,note_on,68,0,120
1,note_on,66,26,0
1,note_on,70,28,0
1,note_on,70,0,480
1,note_on,66,0,0
1,note_on,65,25,0
1,note_on,68,27,0
1,note_on,68,0,180
1,note_on,65,0,0
1,note_on,65,31,60
1,note_on,65,0,120
1,note_on,68,31,0
1,note_on,68,0,120
1,note_on,66,28,0
1,note_on,70,28,0
1,note_on,73,30,0
1,note_on,73,0,480
1,note_on,70,0,0
1,note_on,66,0,0
1,note_on,65,24,0
1,note_on,68,26,0
1,note_on,68,0,180
1,note_on,65,0,0
1,note_on,65,30,60
1,note_on,68,33,0
1,note_on,68,0,120
1,note_on,65,0,0
1,note_on,62,33,0
1,note_on,62,0,120
1,note_on,63,31,0
1,note_on,66,34,0
1,note_on,66,0,480
1,note_on,63,0,0
1,note_on,66,29,0
1,note_on,75,31,0
1,note_on,75,0,240
1,note_on,66,0,0
1,note_on,68,33,0
1,note_on,77,36,0
1,note_on,77,0,120
1,note_on,68,0,0
1,note_on,66,30,0
1,note_on,75,33,0
1,note_on,75,0,120
1,note_on,66,0,0
1,note_on,65,32,0
1,note_on,73,35,0
1,note_on,73,0,480
1,note_on,65,0,0
1,note_on,65,27,0
1,note_on,68,29,0
1,note_on,68,0,180
1,note_on,65,0,0
1,note_on,65,31,0
1,note_on,65,0,120
1,note_on,68,31,0
1,note_on,68,0,120
1,note_on,66,25,0
1,note_on,70,27,0
1,note_on,70,0,480
1,note_on,66,0,0
1,note_on,65,26,0
1,note_on,68,28,0
1,note_on,68,0,180
1,note_on,65,0,0
1,note_on,65,31,60
1,note_on,65,0,120
1,note_on,68,31,0
1,note_on,68,0,120
1,note_on,66,26,0
1,note_on,70,26,0
1,note_on,73,28,0
1,note_on,73,0,480
1,note_on,70,0,0
1,note_on,66,0,0
1,note_on,65,24,0
1,note_on,68,26,0
1,note_on,68,0,180
1,note_on,65,0,0
1,note_on,65,30,60
1,note_on,68,33,0
1,note_on,68,0,120
1,note_on,65,0,0
1,note_on,62,33,0
1,note_on,62,0,120
1,note_on,63,36,0
1,note_on,66,39,0
1,note_on,66,0,360
1,note_on,63,0,0
1,note_on,66,29,0
1,note_on,75,31,0
1,note_on,75,0,120
1,note_on,66,0,0
1,note_on,68,30,0
1,note_on,77,33,0
1,note_on,77,0,120
1,note_on,68,0,0
1,note_on,66,29,0
1,note_on,75,31,0
1,note_on,75,0,120
1,note_on,66,0,0
1,note_on,65,30,0
1,note_on,73,33,0
1,note_on,73,0,120
1,note_on,65,0,0
1,note_on,66,30,0
1,note_on,75,33,0
1,note_on,75,0,120
1,note_on,66,0,0
1,note_on,65,32,0
1,note_on,73,35,0
1,note_on,73,0,720
1,note_on,65,0,0
1,note_on,60,29,1920
1,note_on,57,29,0
1,note_on,57,0,120
1,note_on,60,0,0
1,note_on,66,29,0
1,note_on,66,0,120
1,note_on,58,33,0
1,note_on,61,33,0
1,note_on,65,33,0
1,note_on,65,0,480
1,note_on,61,0,0
1,note_on,58,0,0
1,note_on,57,24,0
1,note_on,60,24,0
1,note_on,65,28,0
1,note_on,65,0,240
1,note_on,60,0,0
1,note_on,57,0,0
1,note_on,56,18,0
1,note_on,60,18,0
1,note_on,66,22,0
1,note_on,66,0,120
1,note_on,68,22,0
1,note_on,68,0,120
1,note_on,60,0,0
1,note_on,56,0,0
1,note_on,56,18,0
1,note_on,61,18,0
1,note_on,65,22,0
1,note_on,68,60,480
1,note_on,68,0,240
1,note_on,56,0,0
1,note_on,61,0,0
1,note_on,65,0,0
1,note_on,64,66,0
1,note_on,64,0,120
1,note_on,61,60,0
1,note_on,61,0,120
1,note_on,64,60,0
1,note_on,64,0,120
1,note_on,68,60,0
1,note_on,68,0,120
1,note_on,64,64,0
1,note_on,64,0,120
1,note_on,61,60,0
1,note_on,61,0,120
1,note_on,64,60,0
1,note_on,64,0,120
1,note_on,69,60,0
1,note_on,69,0,120
1,note_on,63,63,0
1,note_on,63,0,120
1,note_on,60,60,0
1,note_on,60,0,120
1,note_on,63,60,0
1,note_on,63,0,120
1,note_on,69,60,0
1,note_on,69,0,120
1,note_on,63,63,0
1,note_on,63,0,120
1,note_on,60,60,0
1,note_on,60,0,120
1,note_on,63,60,0
1,note_on,63,0,120
1,note_on,68,60,0
1,note_on,68,0,120
1,note_on,68,66,0
1,note_on,68,0,120
1,note_on,64,63,0
1,note_on,64,0,120
1,note_on,68,63,0
1,note_on,68,0,120
1,note_on,76,63,0
1,note_on,76,0,120
1,note_on,68,66,0
1,note_on,68,0,120
1,note_on,64,63,0
1,note_on,64,0,120
1,note_on,68,63,0
1,note_on,68,0,120
1,note_on,73,63,0
1,note_on,73,0,120
1,note_on,69,67,0
1,note_on,69,0,120
1,note_on,68,60,0
1,note_on,68,0,120
1,note_on,66,61,0
1,note_on,66,0,120
1,note_on,73,62,0
1,note_on,73,0,120
1,note_on,72,68,0
1,note_on,72,0,120
1,note_on,66,65,0
1,note_on,66,0,120
1,note_on,68,66,0
1,note_on,68,0,120
1,note_on,72,67,0
1,note_on,72,0,120
1,note_on,73,72,0
1,note_on,73,0,120
1,note_on,64,63,0
1,note_on,64,0,120
1,note_on,68,65,0
1,note_on,68,0,120
1,note_on,73,67,0
1,note_on,73,0,120
1,note_on,76,69,0
1,note_on,76,0,120
1,note_on,68,64,0
1,note_on,68,0,120
1,note_on,76,66,0
1,note_on,76,0,120
1,note_on,80,68,0
1,note_on,80,0,120
1,note_on,76,73,0
1,note_on,76,0,120
1,note_on,69,64,0
1,note_on,69,0,120
1,note_on,76,66,0
1,note_on,76,0,120
1,note_on,80,68,0
1,note_on,80,0,120
1,note_on,74,70,0
1,note_on,74,0,120
1,note_on,78,67,0
1,note_on,78,0,120
1,note_on,73,70,0
1,note_on,73,0,120
1,note_on,76,67,0
1,note_on,76,0,120
1,note_on,72,68,0
1,note_on,72,0,120
1,note_on,75,65,0
1,note_on,75,0,120
1,note_on,73,67,0
1,note_on,73,0,120
1,note_on,76,65,0
1,note_on,76,0,120
1,note_on,75,68,0
1,note_on,75,0,120
1,note_on,78,64,0
1,note_on,78,0,120
1,note_on,72,69,0
1,note_on,72,0,120
1,note_on,75,64,0
1,note_on,75,0,120
1,note_on,76,68,0
1,note_on,76,0,120
1,note_on,73,67,0
1,note_on,73,0,120
1,note_on,71,66,0
1,note_on,71,0,120
1,note_on,69,64,0
1,note_on,69,0,120
1,note_on,68,63,0
1,note_on,68,0,120
1,note_on,66,62,0
1,note_on,66,0,120
1,note_on,64,60,0
1,note_on,64,0,120
1,note_on,63,59,0
1,note_on,63,0,120
1,note_on,64,62,0
1,note_on,64,0,120
1,note_on,61,57,0
1,note_on,61,0,120
1,note_on,64,57,0
1,note_on,64,0,120
1,note_on,68,57,0
1,note_on,68,0,120
1,note_on,64,60,0
1,note_on,64,0,120
1,note_on,61,57,0
1,note_on,61,0,120
1,note_on,64,57,0
1,note_on,64,0,120
1,note_on,69,57,0
1,note_on,69,0,120
1,note_on,63,59,0
1,note_on,63,0,120
1,note_on,59,57,0
1,note_on,59,0,120
1,note_on,63,57,0
1,note_on,63,0,120
1,note_on,69,57,0
1,note_on,69,0,120
1,note_on,63,59,0
1,note_on,63,0,120
1,note_on,59,57,0
1,note_on,59,0,120
1,note_on,63,57,0
1,note_on,63,0,120
1,note_on,68,57,0
1,note_on,68,0,120
1,note_on,68,62,0
1,note_on,68,0,120
1,note_on,61,59,0
1,note_on,61,0,120
1,note_on,68,59,0
1,note_on,68,0,120
1,note_on,73,59,0
1,note_on,73,0,120
1,note_on,66,62,0
1,note_on,66,0,120
1,note_on,63,59,0
1,note_on,63,0,120
1,note_on,66,59,0
1,note_on,66,0,120
1,note_on,73,59,0
1,note_on,73,0,120
1,note_on,68,63,0
1,note_on,68,0,120
1,note_on,64,59,0
1,note_on,64,0,120
1,note_on,68,59,0
1,note_on,68,0,120
1,note_on,73,59,0
1,note_on,73,0,120
1,note_on,68,62,0
1,note_on,68,0,120
1,note_on,64,60,0
1,note_on,64,0,120
1,note_on,68,60,0
1,note_on,68,0,120
1,note_on,71,60,0
1,note_on,71,0,120
1,note_on,67,68,0
1,note_on,67,0,120
1,note_on,64,59,0
1,note_on,64,0,120
1,note_on,67,61,0
1,note_on,67,0,120
1,note_on,70,63,0
1,note_on,70,0,120
1,note_on,76,65,0
1,note_on,76,0,120
1,note_on,70,60,0
1,note_on,70,0,120
1,note_on,76,62,0
1,note_on,76,0,120
1,note_on,79,64,0
1,note_on,79,0,120
1,note_on,75,64,0
1,note_on,75,0,120
1,note_on,79,62,0
1,note_on,79,0,120
1,note_on,75,63,0
1,note_on,75,0,120
1,note_on,78,61,0
1,note_on,78,0,120
1,note_on,69,62,0
1,note_on,69,0,120
1,note_on,76,61,0
1,note_on,76,0,120
1,note_on,69,62,0
1,note_on,69,0,120
1,note_on,75,60,0
1,note_on,75,0,120
1,note_on,69,59,0
1,note_on,69,0,120
1,note_on,78,56,0
1,note_on,78,0,120
1,note_on,68,59,0
1,note_on,68,0,120
1,note_on,76,56,0
1,note_on,76,0,120
1,note_on,64,58,0
1,note_on,64,0,120
1,note_on,73,55,0
1,note_on,73,0,120
1,note_on,61,57,0
1,note_on,61,0,120
1,note_on,69,55,0
1,note_on,69,0,120
1,note_on,59,57,0
1,note_on,59,0,120
1,note_on,68,55,0
1,note_on,68,0,120
1,note_on,64,57,0
1,note_on,64,0,120
1,note_on,71,56,0
1,note_on,71,0,120
1,note_on,59,57,0
1,note_on,59,0,120
1,note_on,69,56,0
1,note_on,69,0,120
1,note_on,63,57,0
1,note_on,63,0,120
1,note_on,71,56,0
1,note_on,71,0,120
1,note_on,69,57,0
1,note_on,63,54,120
1,note_on,63,0,120
1,note_on,59,54,0
1,note_on,59,0,120
1,note_on,69,0,0
1,note_on,69,57,0
1,note_on,69,0,120
1,note_on,68,57,0
1,note_on,68,0,120
1,note_on,64,53,0
1,note_on,64,0,120
1,note_on,68,55,0
1,note_on,68,0,120
1,note_on,69,57,0
1,note_on,69,0,120
1,note_on,71,59,0
1,note_on,71,0,120
1,note_on,68,50,0
1,note_on,68,0,120
1,note_on,71,53,0
1,note_on,71,0,120
1,note_on,80,46,0
1,note_on,80,0,120
1,note_on,71,49,0
1,note_on,71,0,120
1,note_on,78,44,0
1,note_on,78,0,120
1,note_on,72,49,0
1,note_on,72,0,120
1,note_on,76,46,0
1,note_on,76,0,120
1,note_on,73,53,0
1,note_on,73,0,120
1,note_on,64,56,0
1,note_on,64,0,120
1,note_on,73,54,0
1,note_on,73,0,120
1,note_on,76,55,0
1,note_on,76,0,120
1,note_on,71,59,0
1,note_on,71,0,120
1,note_on,75,54,0
1,note_on,75,0,120
1,note_on,69,57,0
1,note_on,69,0,120
1,note_on,73,54,0
1,note_on,73,0,120
1,note_on,68,57,0
1,note_on,68,0,120
1,note_on,59,54,0
1,note_on,59,0,120
1,note_on,68,54,0
1,note_on,68,0,120
1,note_on,71,54,0
1,note_on,71,0,120
1,note_on,64,57,0
1,note_on,64,0,120
1,note_on,58,51,0
1,note_on,58,0,120
1,note_on,64,52,0
1,note_on,64,0,120
1,note_on,73,52,0
1,note_on,73,0,120
1,note_on,66,54,0
1,note_on,66,0,120
1,note_on,57,49,0
1,note_on,57,0,120
1,note_on,66,49,0
1,note_on,66,0,120
1,note_on,71,49,0
1,note_on,71,0,120
1,note_on,66,53,0
1,note_on,66,0,120
1,note_on,57,48,0
1,note_on,57,0,120
1,note_on,66,48,0
1,note_on,66,0,120
1,note_on,71,48,0
1,note_on,71,0,120
1,note_on,64,48,0
1,note_on,64,0,120
1,note_on,56,44,0
1,note_on,56,0,120
1,note_on,64,44,0
1,note_on,64,0,120
1,note_on,68,44,0
1,note_on,68,0,120
1,note_on,63,48,480
1,note_on,63,0,120
1,note_on,57,43,0
1,note_on,57,0,120
1,note_on,63,43,0
1,note_on,63,0,120
1,note_on,71,43,0
1,note_on,71,0,120
1,note_on,64,48,480
1,note_on,64,0,120
1,note_on,56,45,0
1,note_on,56,0,120
1,note_on,64,45,0
1,note_on,64,0,120
1,note_on,68,45,0
1,note_on,68,0,120
1,note_on,68,44,0
1,note_on,68,0,120
1,note_on,71,49,0
1,note_on,71,0,120
1,note_on,76,53,0
1,note_on,76,0,120
1,note_on,80,58,0
1,note_on,80,0,120
1,note_on,80,62,0
1,note_on,68,46,120
1,note_on,68,0,120
1,note_on,80,0,0
1,note_on,76,56,0
1,note_on,68,47,120
1,note_on,68,0,120
1,note_on,76,0,0
1,note_on,75,53,0
1,note_on,68,44,120
1,note_on,68,0,120
1,note_on,75,0,0
1,note_on,74,50,0
1,note_on,68,44,120
1,note_on,68,0,120
1,note_on,74,0,0
1,note_on,73,48,0
1,note_on,73,0,120
1,note_on,61,43,0
1,note_on,61,0,120
1,note_on,69,43,0
1,note_on,69,0,120
1,note_on,73,43,0
1,note_on,73,0,120
1,note_on,68,48,480
1,note_on,68,0,120
1,note_on,62,42,0
1,note_on,62,0,120
1,note_on,68,42,0
1,note_on,68,0,120
1,note_on,76,42,0
1,note_on,76,0,120
1,note_on,69,48,480
1,note_on,69,0,120
1,note_on,61,42,0
1,note_on,61,0,120
1,note_on,69,42,0
1,note_on,69,0,120
1,note_on,73,43,0
1,note_on,73,0,120
1,note_on,73,43,0
1,note_on,73,0,120
1,note_on,76,48,0
1,note_on,76,0,120
1,note_on,81,53,0
1,note_on,81,0,120
1,note_on,85,59,0
1,note_on,85,0,120
1,note_on,85,64,0
1,note_on,85,0,120
1,note_on,73,56,0
1,note_on,73,0,120
1,note_on,81,61,0
1,note_on,81,0,120
1,note_on,73,56,0
1,note_on,73,0,120
1,note_on,80,61,0
1,note_on,80,0,120
1,note_on,76,56,0
1,note_on,76,0,120
1,note_on,78,61,0
1,note_on,78,0,120
1,note_on,75,55,0
1,note_on,75,0,120
1,note_on,64,66,0
1,note_on,68,66,0
1,note_on,76,66,0
1,note_on,76,0,120
1,note_on,68,0,0
1,note_on,64,0,0
1,note_on,68,61,0
1,note_on,68,0,120
1,note_on,66,61,0
1,note_on,66,0,120
1,note_on,68,61,0
1,note_on,68,0,120
1,note_on,64,58,0
1,note_on,64,0,120
1,note_on,68,62,0
1,note_on,68,0,120
1,note_on,63,66,0
1,note_on,63,0,120
1,note_on,68,69,0
1,note_on,68,0,120
1,note_on,64,80,0
1,note_on,64,0,120
1,note_on,61,74,0
1,note_on,61,0,120
1,note_on,64,74,0
1,note_on,64,0,120
1,note_on,68,74,0
1,note_on,68,0,120
1,note_on,64,78,0
1,note_on,64,0,120
1,note_on,61,74,0
1,note_on,61,0,120
1,note_on,64,74,0
1,note_on,64,0,120
1,note_on,69,74,0
1,note_on,69,0,120
1,note_on,63,76,0
1,note_on,63,0,120
1,note_on,60,74,0
1,note_on,60,0,120
1,note_on,63,74,0
1,note_on,63,0,120
1,note_on,69,74,0
1,note_on,69,0,120
1,note_on,63,76,0
1,note_on,63,0,120
1,note_on,60,74,0
1,note_on,60,0,120
1,note_on,63,74,0
1,note_on,63,0,120
1,note_on,68,74,0
1,note_on,68,0,120
1,note_on,68,80,0
1,note_on,68,0,120
1,note_on,64,76,0
1,note_on,64,0,120
1,note_on,68,76,0
1,note_on,68,0,120
1,note_on,76,76,0
1,note_on,76,0,120
1,note_on,68,80,0
1,note_on,68,0,120
1,note_on,64,76,0
1,note_on,64,0,120
1,note_on,68,76,0
1,note_on,68,0,120
1,note_on,73,76,0
1,note_on,73,0,120
1,note_on,69,82,0
1,note_on,69,0,120
1,note_on,68,74,0
1,note_on,68,0,120
1,note_on,66,75,0
1,note_on,66,0,120
1,note_on,73,76,0
1,note_on,73,0,120
1,note_on,72,83,0
1,note_on,72,0,120
1,note_on,63,79,0
1,note_on,63,0,120
1,note_on,68,80,0
1,note_on,68,0,120
1,note_on,72,82,0
1,note_on,72,0,120
1,note_on,73,88,0
1,note_on,73,0,120
1,note_on,68,76,0
1,note_on,68,0,120
1,note_on,73,79,0
1,note_on,73,0,120
1,note_on,76,82,0
1,note_on,76,0,120
1,note_on,76,84,0
1,note_on,76,0,120
1,note_on,68,82,0
1,note_on,68,0,120
1,note_on,76,86,0
1,note_on,76,0,120
1,note_on,80,90,0
1,note_on,80,0,120
1,note_on,76,93,0
1,note_on,76,0,120
1,note_on,69,90,0
1,note_on,69,0,120
1,note_on,76,88,0
1,note_on,76,0,120
1,note_on,80,85,0
1,note_on,80,0,120
1,note_on,74,86,0
1,note_on,74,0,120
1,note_on,78,82,0
1,note_on,78,0,120
1,note_on,73,86,0
1,note_on,73,0,120
1,note_on,76,82,0
1,note_on,76,0,120
1,note_on,72,83,0
1,note_on,72,0,120
1,note_on,75,79,0
1,note_on,75,0,120
1,note_on,73,82,0
1,note_on,73,0,120
1,note_on,76,76,0
1,note_on,76,0,120
1,note_on,75,81,0
1,note_on,75,0,120
1,note_on,78,75,0
1,note_on,78,0,120
1,note_on,72,79,0
1,note_on,72,0,120
1,note_on,75,72,0
1,note_on,75,0,120
1,note_on,76,79,0
1,note_on,76,0,120
1,note_on,73,74,0
1,note_on,73,0,120
1,note_on,71,69,0
1,note_on,71,0,120
1,note_on,69,65,0
1,note_on,69,0,120
1,note_on,68,61,0
1,note_on,68,0,120
1,note_on,66,57,0
1,note_on,66,0,120
1,note_on,64,53,0
1,note_on,64,0,120
1,note_on,63,48,0
1,note_on,63,0,120
1,note_on,64,42,0
1,note_on,64,0,120
1,note_on,61,45,0
1,note_on,61,0,120
1,note_on,64,45,0
1,note_on,64,0,120
1,note_on,68,45,0
1,note_on,68,0,120
1,note_on,64,48,0
1,note_on,64,0,120
1,note_on,61,45,0
1,note_on,61,0,120
1,note_on,64,45,0
1,note_on,64,0,120
1,note_on,69,45,0
1,note_on,69,0,120
1,note_on,63,47,0
1,note_on,63,0,120
1,note_on,59,45,0
1,note_on,59,0,120
1,note_on,63,45,0
1,note_on,63,0,120
1,note_on,69,45,0
1,note_on,69,0,120
1,note_on,63,47,0
1,note_on,63,0,120
1,note_on,59,45,0
1,note_on,59,0,120
1,note_on,63,45,0
1,note_on,63,0,120
1,note_on,68,45,0
1,note_on,68,0,120
1,note_on,68,49,0
1,note_on,68,0,120
1,note_on,61,47,0
1,note_on,61,0,120
1,note_on,68,47,0
1,note_on,68,0,120
1,note_on,73,47,0
1,note_on,73,0,120
1,note_on,66,49,0
1,note_on,66,0,120
1,note_on,63,47,0
1,note_on,63,0,120
1,note_on,66,47,0
1,note_on,66,0,120
1,note_on,73,47,0
1,note_on,73,0,120
1,note_on,68,50,0
1,note_on,68,0,120
1,note_on,64,47,0
1,note_on,64,0,120
1,note_on,68,47,0
1,note_on,68,0,120
1,note_on,73,47,0
1,note_on,73,0,120
1,note_on,68,49,0
1,note_on,68,0,120
1,note_on,64,48,0
1,note_on,64,0,120
1,note_on,68,48,0
1,note_on,68,0,120
1,note_on,71,48,0
1,note_on,71,0,120
1,note_on,67,54,0
1,note_on,67,0,120
1,note_on,64,47,0
1,note_on,64,0,120
1,note_on,67,48,0
1,note_on,67,0,120
1,note_on,70,50,0
1,note_on,70,0,120
1,note_on,76,52,0
1,note_on,76,0,120
1,note_on,70,48,0
1,note_on,70,0,120
1,note_on,76,49,0
1,note_on,76,0,120
1,note_on,79,51,0
1,note_on,79,0,120
1,note_on,75,51,0
1,note_on,75,0,120
1,note_on,79,49,0
1,note_on,79,0,120
1,note_on,75,50,0
1,note_on,75,0,120
1,note_on,78,48,0
1,note_on,78,0,120
1,note_on,69,49,0
1,note_on,69,0,120
1,note_on,76,48,0
1,note_on,76,0,120
1,note_on,69,49,0
1,note_on,69,0,120
1,note_on,75,48,0
1,note_on,75,0,120
1,note_on,69,47,0
1,note_on,69,0,120
1,note_on,78,44,0
1,note_on,78,0,120
1,note_on,68,47,0
1,note_on,68,0,120
1,note_on,76,44,0
1,note_on,76,0,120
1,note_on,64,46,0
1,note_on,64,0,120
1,note_on,73,44,0
1,note_on,73,0,120
1,note_on,61,45,0
1,note_on,61,0,120
1,note_on,69,44,0
1,note_on,69,0,120
1,note_on,59,45,0
1,note_on,59,0,120
1,note_on,68,44,0
1,note_on,68,0,120
1,note_on,64,45,0
1,note_on,64,0,120
1,note_on,71,44,0
1,note_on,71,0,120
1,note_on,59,45,0
1,note_on,59,0,120
1,note_on,69,44,0
1,note_on,69,0,120
1,note_on,63,45,0
1,note_on,63,0,120
1,note_on,71,44,0
1,note_on,71,0,120
1,note_on,69,45,0
1,note_on,63,43,120
1,note_on,63,0,120
1,note_on,59,43,0
1,note_on,59,0,120
1,note_on,69,0,0
1,note_on,69,45,0
1,note_on,69,0,120
1,note_on,68,45,0
1,note_on,68,0,120
1,note_on,59,42,0
1,note_on,59,0,120
1,note_on,64,44,0
1,note_on,64,0,120
1,note_on,66,45,0
1,note_on,66,0,120
1,note_on,68,47,0
1,note_on,68,0,120
1,note_on,64,43,0
1,note_on,64,0,120
1,note_on,68,45,0
1,note_on,68,0,120
1,note_on,76,44,0
1,note_on,76,0,120
1,note_on,68,47,0
1,note_on,68,0,120
1,note_on,75,44,0
1,note_on,75,0,120
1,note_on,68,48,0
1,note_on,68,0,120
1,note_on,73,44,0
1,note_on,73,0,120
1,note_on,69,48,0
1,note_on,69,0,120
1,note_on,61,44,0
1,note_on,61,0,120
1,note_on,69,46,0
1,note_on,69,0,120
1,note_on,73,46,0
1,note_on,73,0,120
1,note_on,68,47,0
1,note_on,68,0,120
1,note_on,71,43,0
1,note_on,71,0,120
1,note_on,66,45,0
1,note_on,66,0,120
1,note_on,69,43,0
1,note_on,69,0,120
1,note_on,64,45,0
1,note_on,64,0,120
1,note_on,56,43,0
1,note_on,56,0,120
1,note_on,64,43,0
1,note_on,64,0,120
1,note_on,68,43,0
1,note_on,68,0,120
1,note_on,61,45,0
1,note_on,61,0,120
1,note_on,55,40,0
1,note_on,55,0,120
1,note_on,61,41,0
1,note_on,61,0,120
1,note_on,69,41,0
1,note_on,69,0,120
1,note_on,63,43,0
1,note_on,63,0,120
1,note_on,54,39,0
1,note_on,54,0,120
1,note_on,63,39,0
1,note_on,63,0,120
1,note_on,68,39,0
1,note_on,68,0,120
1,note_on,63,42,0
1,note_on,63,0,120
1,note_on,54,38,0
1,note_on,54,0,120
1,note_on,63,38,0
1,note_on,63,0,120
1,note_on,68,38,0
1,note_on,68,0,120
1,note_on,61,38,0
1,note_on,61,0,120
1,note_on,52,35,0
1,note_on,52,0,120
1,note_on,61,35,0
1,note_on,61,0,120
1,note_on,64,35,0
1,note_on,64,0,120
1,note_on,61,38,480
1,note_on,61,0,120
1,note_on,52,34,0
1,note_on,52,0,120
1,note_on,61,34,0
1,note_on,61,0,120
1,note_on,64,34,0
1,note_on,64,0,120
1,note_on,62,38,480
1,note_on,62,0,120
1,note_on,57,36,0
1,note_on,57,0,120
1,note_on,62,36,0
1,note_on,62,0,120
1,note_on,66,36,0
1,note_on,66,0,120
1,note_on,66,35,0
1,note_on,66,0,120
1,note_on,69,39,0
1,note_on,69,0,120
1,note_on,74,42,0
1,note_on,74,0,120
1,note_on,78,46,0
1,note_on,78,0,120
1,note_on,81,49,0
1,note_on,74,36,120
1,note_on,74,0,120
1,note_on,81,0,0
1,note_on,69,37,0
1,note_on,78,44,0
1,note_on,69,0,120
1,note_on,71,37,0
1,note_on,71,0,120
1,note_on,78,0,0
1,note_on,73,35,0
1,note_on,76,42,0
1,note_on,73,0,120
1,note_on,68,35,0
1,note_on,68,0,120
1,note_on,76,0,0
1,note_on,72,35,0
1,note_on,75,40,0
1,note_on,72,0,120
1,note_on,68,35,0
1,note_on,68,0,120
1,note_on,75,0,0
1,note_on,73,38,0
1,note_on,73,0,120
1,note_on,64,34,0
1,note_on,64,0,120
1,note_on,73,34,0
1,note_on,73,0,120
1,note_on,76,34,0
1,note_on,76,0,120
1,note_on,73,38,480
1,note_on,73,0,120
1,note_on,64,33,0
1,note_on,64,0,120
1,note_on,73,33,0
1,note_on,73,0,120
1,note_on,76,33,0
1,note_on,76,0,120
1,note_on,74,38,480
1,note_on,74,0,120
1,note_on,69,39,0
1,note_on,69,0,120
1,note_on,74,44,0
1,note_on,74,0,120
1,note_on,78,49,0
1,note_on,78,0,120
1,note_on,81,55,0
1,note_on,81,0,120
1,note_on,78,53,0
1,note_on,78,0,120
1,note_on,74,50,0
1,note_on,74,0,120
1,note_on,69,47,0
1,note_on,69,0,120
1,note_on,68,44,0
1,note_on,68,0,120
1,note_on,76,43,0
1,note_on,76,0,120
1,note_on,64,47,0
1,note_on,64,0,120
1,note_on,73,42,0
1,note_on,73,0,120
1,note_on,66,46,0
1,note_on,66,0,120
1,note_on,75,41,0
1,note_on,75,0,120
1,note_on,63,44,0
1,note_on,63,0,120
1,note_on,72,40,0
1,note_on,72,0,120
1,note_on,64,46,0
1,note_on,64,0,120
1,note_on,73,37,0
1,note_on,73,0,120
1,note_on,61,37,0
1,note_on,64,37,0
1,note_on,64,0,120
1,note_on,61,0,0
1,note_on,68,30,0
1,note_on,68,0,120
1,note_on,63,32,0
1,note_on,66,32,0
1,note_on,66,0,120
1,note_on,63,0,0
1,note_on,68,26,0
1,note_on,68,0,120
1,note_on,60,28,0
1,note_on,63,28,0
1,note_on,63,0,120
1,note_on,60,0,0
1,note_on,68,24,0
1,note_on,68,0,120
1,note_on,65,25,960
1,note_on,65,0,120
1,note_on,68,25,0
1,note_on,68,0,120
1,note_on,66,18,0
1,note_on,70,21,0
1,note_on,70,0,480
1,note_on,66,0,0
1,note_on,65,16,0
1,note_on,68,19,0
1,note_on,68,0,240
1,note_on,65,0,0
1,note_on,65,25,0
1,note_on,65,0,120
1,note_on,68,25,0
1,note_on,68,0,120
1,note_on,66,20,0
1,note_on,70,20,0
1,note_on,73,24,0
1,note_on,73,0,480
1,note_on,70,0,0
1,note_on,66,0,0
1,note_on,65,16,0
1,note_on,68,22,0
1,note_on,68,0,240
1,note_on,65,0,0
1,note_on,65,17,0
1,note_on,68,21,0
1,note_on,68,0,480
1,note_on,65,0,0
2,note_on,49,54,244
2,note_on,49,0,120
2,note_on,56,50,120
2,note_on,56,0,120
2,note_on,49,54,120
2,note_on,49,0,120
2,note_on,57,50,120
2,note_on,57,0,120
2,note_on,48,54,120
2,note_on,48,0,120
2,note_on,57,51,120
2,note_on,57,0,120
2,note_on,48,54,120
2,note_on,48,0,120
2,note_on,56,50,120
2,note_on,56,0,120
2,note_on,49,55,120
2,note_on,49,0,120
2,note_on,56,51,120
2,note_on,56,0,120
2,note_on,52,55,120
2,note_on,52,0,120
2,note_on,56,52,120
2,note_on,56,0,120
2,note_on,51,56,120
2,note_on,51,0,120
2,note_on,57,52,120
2,note_on,57,0,120
2,note_on,51,55,120
2,note_on,51,0,120
2,note_on,56,52,120
2,note_on,56,0,120
2,note_on,49,56,120
2,note_on,49,0,120
2,note_on,61,50,120
2,note_on,61,0,120
2,note_on,49,55,120
2,note_on,49,0,120
2,note_on,59,51,120
2,note_on,59,0,120
2,note_on,54,57,120
2,note_on,54,0,120
2,note_on,57,56,120
2,note_on,57,0,120
2,note_on,54,57,120
2,note_on,54,0,120
2,note_on,57,54,120
2,note_on,57,0,120
2,note_on,45,58,120
2,note_on,45,0,120
2,note_on,54,54,120
2,note_on,54,0,120
2,note_on,44,56,120
2,note_on,44,0,120
2,note_on,56,54,120
2,note_on,56,0,120
2,note_on,49,54,120
2,note_on,49,0,120
2,note_on,51,54,120
2,note_on,51,0,120
2,note_on,52,55,120
2,note_on,52,0,120
2,note_on,56,56,120
2,note_on,56,0,120
2,note_on,49,51,120
2,note_on,49,0,120
2,note_on,56,47,120
2,note_on,56,0,120
2,note_on,49,51,120
2,note_on,49,0,120
2,note_on,57,47,120
2,note_on,57,0,120
2,note_on,47,51,120
2,note_on,47,0,120
2,note_on,57,48,120
2,note_on,57,0,120
2,note_on,47,51,120
2,note_on,47,0,120
2,note_on,56,47,120
2,note_on,56,0,120
2,note_on,52,52,120
2,note_on,52,0,120
2,note_on,56,48,120
2,note_on,56,0,120
2,note_on,45,52,120
2,note_on,45,0,120
2,note_on,57,49,120
2,note_on,57,0,120
2,note_on,44,51,120
2,note_on,44,0,120
2,note_on,59,49,120
2,note_on,59,0,120
2,note_on,56,52,120
2,note_on,56,0,120
2,note_on,59,49,120
2,note_on,59,0,120
2,note_on,49,52,120
2,note_on,49,0,120
2,note_on,52,47,120
2,note_on,52,0,120
2,note_on,48,52,120
2,note_on,48,0,120
2,note_on,58,44,120
2,note_on,58,0,120
2,note_on,47,48,120
2,note_on,47,0,120
2,note_on,59,45,120
2,note_on,59,0,120
2,note_on,48,48,120
2,note_on,48,0,120
2,note_on,54,43,120
2,note_on,54,0,120
2,note_on,49,45,120
2,note_on,49,0,120
2,note_on,52,39,120
2,note_on,52,0,120
2,note_on,45,46,120
2,note_on,45,0,120
2,note_on,54,40,120
2,note_on,54,0,120
2,note_on,47,46,120
2,note_on,47,0,120
2,note_on,56,43,120
2,note_on,56,0,120
2,note_on,47,45,120
2,note_on,47,0,120
2,note_on,57,41,120
2,note_on,57,0,120
2,note_on,47,46,120
2,note_on,47,0,120
2,note_on,54,39,120
2,note_on,54,0,120
2,note_on,52,47,120
2,note_on,52,0,120
2,note_on,54,41,120
2,note_on,54,0,120
2,note_on,56,45,120
2,note_on,56,0,120
2,note_on,59,36,120
2,note_on,59,0,120
2,note_on,56,34,120
2,note_on,56,0,120
2,note_on,64,31,120
2,note_on,64,0,120
2,note_on,57,45,120
2,note_on,57,0,120
2,note_on,45,40,120
2,note_on,45,0,120
2,note_on,47,41,120
2,note_on,47,0,120
2,note_on,49,42,120
2,note_on,49,0,120
2,note_on,47,45,120
2,note_on,47,0,120
2,note_on,52,39,120
2,note_on,52,0,120
2,note_on,47,43,120
2,note_on,47,0,120
2,note_on,55,41,120
2,note_on,55,0,120
2,note_on,47,41,120
2,note_on,47,0,120
2,note_on,52,39,120
2,note_on,52,0,120
2,note_on,47,41,120
2,note_on,47,0,120
2,note_on,51,37,120
2,note_on,51,0,120
2,note_on,52,48,120
2,note_on,52,0,183
2,note_on,47,48,240
2,note_on,47,0,21
2,note_on,40,44,0
2,note_on,40,0,120
2,note_on,47,44,0
2,note_on,47,0,120
2,note_on,52,45,0
2,note_on,52,0,120
2,note_on,47,48,381
2,note_on,47,0,42
2,note_on,40,44,0
2,note_on,40,0,120
2,note_on,47,44,0
2,note_on,47,0,120
2,note_on,54,44,0
2,note_on,54,0,120
2,note_on,52,46,395
2,note_on,52,0,120
2,note_on,56,47,0
2,note_on,56,0,120
2,note_on,59,52,0
2,note_on,59,0,120
2,note_on,64,56,0
2,note_on,64,0,120
2,note_on,64,58,0
2,note_on,64,0,169
2,note_on,61,55,0
2,note_on,61,0,240
2,note_on,60,52,0
2,note_on,60,0,233
2,note_on,59,49,0
2,note_on,59,0,240
2,note_on,57,46,0
2,note_on,57,0,176
2,note_on,52,48,240
2,note_on,52,0,120
2,note_on,45,44,0
2,note_on,45,0,120
2,note_on,52,44,0
2,note_on,52,0,120
2,note_on,57,44,0
2,note_on,57,0,120
2,note_on,52,48,377
2,note_on,52,0,120
2,note_on,45,41,0
2,note_on,45,0,120
2,note_on,52,41,0
2,note_on,52,0,120
2,note_on,59,41,0
2,note_on,59,0,120
2,note_on,57,44,353
2,note_on,57,0,120
2,note_on,61,49,0
2,note_on,61,0,120
2,note_on,64,54,0
2,note_on,64,0,120
2,note_on,69,59,0
2,note_on,69,0,120
2,note_on,69,62,0
2,note_on,69,0,176
2,note_on,66,51,0
2,note_on,66,0,240
2,note_on,71,51,0
2,note_on,71,0,219
2,note_on,69,51,0
2,note_on,59,51,0
2,note_on,59,0,240
2,note_on,69,0,0
2,note_on,54,62,240
2,note_on,56,62,0
2,note_on,54,0,240
2,note_on,52,71,0
2,note_on,52,0,240
2,note_on,51,78,0
2,note_on,51,0,240
2,note_on,56,0,0
2,note_on,49,85,0
2,note_on,49,0,120
2,note_on,48,77,120
2,note_on,48,0,120
2,note_on,49,76,120
2,note_on,49,0,120
2,note_on,52,76,120
2,note_on,52,0,120
2,note_on,48,82,120
2,note_on,48,0,120
2,note_on,51,76,120
2,note_on,51,0,120
2,note_on,56,76,120
2,note_on,56,0,120
2,note_on,48,76,120
2,note_on,48,0,120
2,note_on,49,80,120
2,note_on,49,0,120
2,note_on,51,76,120
2,note_on,51,0,120
2,note_on,52,76,120
2,note_on,52,0,120
2,note_on,49,76,120
2,note_on,49,0,120
2,note_on,51,76,120
2,note_on,51,0,120
2,note_on,57,83,120
2,note_on,57,0,120
2,note_on,56,81,120
2,note_on,56,0,120
2,note_on,54,76,120
2,note_on,54,0,120
2,note_on,52,74,120
2,note_on,52,0,120
2,note_on,51,76,120
2,note_on,51,0,120
2,note_on,49,79,120
2,note_on,49,0,120
2,note_on,47,80,120
2,note_on,47,0,120
2,note_on,45,84,120
2,note_on,45,0,120
2,note_on,42,78,120
2,note_on,42,0,60
2,note_on,44,78,60
2,note_on,44,0,60
2,note_on,45,83,60
2,note_on,45,0,120
2,note_on,42,79,120
2,note_on,42,0,120
2,note_on,44,85,120
2,note_on,44,0,120
2,note_on,42,80,120
2,note_on,42,0,60
2,note_on,40,80,60
2,note_on,40,0,60
2,note_on,39,85,60
2,note_on,39,0,120
2,note_on,44,80,120
2,note_on,44,0,120
2,note_on,37,88,120
2,note_on,37,0,120
2,note_on,44,70,120
2,note_on,44,0,240
2,note_on,46,58,0
2,note_on,46,0,240
2,note_on,48,48,0
2,note_on,48,0,240
2,note_on,49,40,0
2,note_on,49,0,240
2,note_on,52,37,0
2,note_on,52,0,240
2,note_on,51,38,0
2,note_on,51,0,240
2,note_on,49,37,0
2,note_on,49,0,240
2,note_on,47,40,0
2,note_on,47,0,240
2,note_on,51,38,0
2,note_on,51,0,240
2,note_on,56,40,0
2,note_on,56,0,240
2,note_on,47,37,0
2,note_on,47,0,240
2,note_on,45,41,0
2,note_on,45,0,240
2,note_on,49,38,0
2,note_on,49,0,240
2,note_on,47,38,0
2,note_on,47,0,240
2,note_on,45,39,0
2,note_on,45,0,240
2,note_on,44,40,0
2,note_on,44,0,240
2,note_on,47,39,0
2,note_on,47,0,240
2,note_on,52,41,0
2,note_on,52,0,240
2,note_on,44,39,0
2,note_on,44,0,240
2,note_on,40,41,0
2,note_on,40,0,240
2,note_on,52,37,0
2,note_on,52,0,120
2,note_on,51,37,0
2,note_on,51,0,120
2,note_on,49,36,0
2,note_on,49,0,240
2,note_on,48,38,0
2,note_on,48,0,240
2,note_on,47,43,0
2,note_on,47,0,240
2,note_on,54,39,0
2,note_on,54,0,240
2,note_on,59,47,0
2,note_on,59,0,240
2,note_on,47,34,0
2,note_on,47,0,240
2,note_on,48,36,0
2,note_on,48,0,240
2,note_on,49,31,0
2,note_on,49,0,240
2,note_on,44,36,0
2,note_on,44,0,240
2,note_on,45,32,0
2,note_on,45,0,240
2,note_on,47,36,0
2,note_on,47,0,240
2,note_on,56,34,0
2,note_on,56,0,240
2,note_on,47,36,0
2,note_on,47,0,240
2,note_on,57,32,0
2,note_on,57,0,240
2,note_on,47,36,0
2,note_on,47,0,240
2,note_on,54,31,0
2,note_on,54,0,240
2,note_on,52,37,0
2,note_on,52,0,240
2,note_on,49,32,0
2,note_on,49,0,120
2,note_on,51,32,0
2,note_on,51,0,120
2,note_on,52,36,0
2,note_on,52,0,240
2,note_on,56,33,0
2,note_on,56,0,240
2,note_on,53,36,0
2,note_on,53,0,240
2,note_on,61,33,0
2,note_on,61,0,240
2,note_on,54,36,0
2,note_on,54,0,240
2,note_on,42,32,0
2,note_on,42,0,240
2,note_on,44,32,0
2,note_on,44,0,240
2,note_on,45,33,0
2,note_on,45,0,240
2,note_on,44,36,0
2,note_on,44,0,240
2,note_on,49,31,0
2,note_on,49,0,240
2,note_on,44,34,0
2,note_on,44,0,240
2,note_on,52,32,0
2,note_on,52,0,240
2,note_on,44,32,0
2,note_on,44,0,240
2,note_on,49,31,0
2,note_on,49,0,240
2,note_on,44,32,0
2,note_on,44,0,240
2,note_on,48,29,0
2,note_on,48,0,240
2,note_on,49,38,0
2,note_on,49,0,240
2,note_on,44,38,240
2,note_on,44,0,35
2,note_on,37,35,0
2,note_on,37,0,120
2,note_on,44,35,0
2,note_on,44,0,120
2,note_on,49,36,0
2,note_on,49,0,120
2,note_on,45,38,0
2,note_on,45,0,141
2,note_on,40,38,240
2,note_on,40,0,49
2,note_on,33,35,0
2,note_on,33,0,120
2,note_on,40,35,0
2,note_on,40,0,120
2,note_on,45,35,0
2,note_on,45,0,120
2,note_on,42,38,0
2,note_on,42,0,160
2,note_on,50,36,240
2,note_on,50,0,34
2,note_on,54,37,0
2,note_on,54,0,120
2,note_on,57,41,0
2,note_on,57,0,120
2,note_on,62,44,0
2,note_on,62,0,120
2,note_on,66,46,0
2,note_on,66,0,165
2,note_on,54,44,0
2,note_on,62,44,0
2,note_on,62,0,240
2,note_on,54,0,0
2,note_on,56,41,0
2,note_on,64,41,0
2,note_on,64,0,125
2,note_on,56,0,0
2,note_on,56,39,0
2,note_on,66,39,0
2,note_on,66,0,160
2,note_on,56,0,0
2,note_on,64,36,0
2,note_on,61,36,0
2,note_on,64,0,9
2,note_on,61,0,125
2,note_on,56,38,240
2,note_on,56,0,7
2,note_on,49,35,0
2,note_on,49,0,120
2,note_on,56,35,0
2,note_on,56,0,120
2,note_on,61,35,0
2,note_on,61,0,120
2,note_on,57,36,0
2,note_on,57,0,162
2,note_on,52,38,240
2,note_on,52,0,21
2,note_on,45,32,0
2,note_on,45,0,120
2,note_on,52,32,0
2,note_on,52,0,120
2,note_on,57,32,0
2,note_on,57,0,120
2,note_on,54,38,0
2,note_on,54,0,148
2,note_on,57,41,0
2,note_on,57,0,120
2,note_on,62,47,0
2,note_on,62,0,120
2,note_on,66,53,0
2,note_on,66,0,120
2,note_on,62,50,0
2,note_on,62,0,120
2,note_on,57,48,0
2,note_on,57,0,120
2,note_on,54,46,0
2,note_on,54,0,120
2,note_on,56,44,0
2,note_on,56,0,165
2,note_on,56,40,0
2,note_on,56,0,240
2,note_on,56,40,0
2,note_on,56,0,154
2,note_on,56,40,0
2,note_on,56,0,177
2,note_on,56,39,0
2,note_on,56,0,165
2,note_on,44,37,0
2,note_on,44,0,194
2,note_on,44,32,0
2,note_on,44,0,165
2,note_on,44,29,0
2,note_on,44,0,171
2,note_on,49,22,960
2,note_on,56,22,0
2,note_on,61,22,0
2,note_on,61,0,208
2,note_on,56,0,0
2,note_on,49,0,0
2,note_on,49,20,0
2,note_on,56,20,0
2,note_on,61,20,0
2,note_on,61,0,395
2,note_on,56,0,0
2,note_on,49,0,0
2,note_on,49,18,0
2,note_on,56,18,0
2,note_on,61,18,0
2,note_on,61,0,179
2,note_on,56,0,0
2,note_on,49,0,0
2,note_on,49,19,60
2,note_on,56,19,0
2,note_on,61,19,0
2,note_on,61,0,208
2,note_on,56,0,0
2,note_on,49,0,0
2,note_on,49,20,0
2,note_on,56,20,0
2,note_on,61,20,0
2,note_on,61,0,360
2,note_on,56,0,0
2,note_on,49,0,0
2,note_on,49,18,0
2,note_on,56,18,0
2,note_on,61,18,0
2,note_on,61,0,177
2,note_on,56,0,0
2,note_on,49,0,0
2,note_on,56,19,60
2,note_on,60,19,0
2,note_on,60,0,177
2,note_on,56,0,0
2,note_on,56,19,0
2,note_on,60,19,0
2,note_on,60,0,308
2,note_on,56,0,0
2,note_on,56,25,0
2,note_on,60,25,0
2,note_on,60,0,234
2,note_on,56,0,0
2,note_on,49,25,0
2,note_on,56,25,0
2,note_on,61,25,0
2,note_on,61,0,201
2,note_on,56,0,0
2,note_on,49,0,0
2,note_on,49,26,0
2,note_on,56,26,0
2,note_on,61,26,0
2,note_on,61,0,392
2,note_on,56,0,0
2,note_on,49,0,0
2,note_on,49,22,0
2,note_on,56,22,0
2,note_on,61,22,0
2,note_on,61,0,173
2,note_on,56,0,0
2,note_on,49,0,0
2,note_on,49,22,60
2,note_on,56,22,0
2,note_on,61,22,0
2,note_on,61,0,201
2,note_on,56,0,0
2,note_on,49,0,0
2,note_on,49,21,0
2,note_on,56,21,0
2,note_on,61,21,0
2,note_on,61,0,353
2,note_on,56,0,0
2,note_on,49,0,0
2,note_on,49,21,0
2,note_on,56,21,0
2,note_on,61,21,0
2,note_on,61,0,177
2,note_on,56,0,0
2,note_on,49,0,0
2,note_on,49,23,60
2,note_on,56,23,0
2,note_on,61,23,0
2,note_on,61,0,208
2,note_on,56,0,0
2,note_on,49,0,0
2,note_on,49,21,0
2,note_on,56,21,0
2,note_on,61,21,0
2,note_on,61,0,367
2,note_on,56,0,0
2,note_on,49,0,0
2,note_on,49,19,0
2,note_on,56,19,0
2,note_on,61,19,0
2,note_on,61,0,176
2,note_on,56,0,0
2,note_on,49,0,0
2,note_on,56,25,60
2,note_on,60,25,0
2,note_on,60,0,183
2,note_on,56,0,0
2,note_on,56,28,0
2,note_on,60,28,0
2,note_on,60,0,400
2,note_on,56,0,0
2,note_on,56,24,0
2,note_on,60,24,0
2,note_on,60,0,177
2,note_on,56,0,0
2,note_on,49,25,0
2,note_on,56,25,0
2,note_on,61,25,0
2,note_on,61,0,148
2,note_on,56,0,0
2,note_on,49,0,0
2,note_on,49,25,0
2,note_on,56,25,0
2,note_on,61,25,0
2,note_on,56,0,562
2,note_on,61,0,2
2,note_on,49,0,0
2,note_on,32,40,0
2,note_on,44,40,0
2,note_on,44,0,148
2,note_on,32,0,0
2,note_on,37,42,0
2,note_on,44,42,0
2,note_on,44,0,381
2,note_on,37,0,0
2,note_on,32,36,0
2,note_on,44,36,0
2,note_on,44,0,237
2,note_on,32,0,0
2,note_on,32,37,0
2,note_on,44,37,0
2,note_on,44,0,204
2,note_on,32,0,0
2,note_on,37,45,0
2,note_on,44,45,0
2,note_on,44,0,388
2,note_on,37,0,0
2,note_on,32,40,0
2,note_on,44,40,0
2,note_on,44,0,229
2,note_on,32,0,0
2,note_on,32,46,0
2,note_on,44,46,0
2,note_on,44,0,192
2,note_on,32,0,0
2,note_on,37,49,0
2,note_on,44,49,0
2,note_on,44,0,384
2,note_on,37,0,0
2,note_on,32,36,0
2,note_on,44,36,0
2,note_on,44,0,163
2,note_on,32,0,0
2,note_on,42,21,0
2,note_on,47,21,0
2,note_on,47,0,168
2,note_on,42,0,0
2,note_on,40,21,0
2,note_on,47,21,0
2,note_on,47,0,633
2,note_on,40,0,0
2,note_on,49,18,0
2,note_on,56,18,0
2,note_on,61,18,0
2,note_on,61,0,190
2,note_on,56,0,0
2,note_on,49,0,0
2,note_on,49,18,0
2,note_on,56,18,0
2,note_on,61,18,0
2,note_on,61,0,377
2,note_on,56,0,0
2,note_on,49,0,0
2,note_on,49,15,0
2,note_on,56,15,0
2,note_on,61,15,0
2,note_on,61,0,176
2,note_on,56,0,0
2,note_on,49,0,0
2,note_on,49,18,60
2,note_on,56,18,0
2,note_on,61,18,0
2,note_on,61,0,208
2,note_on,56,0,0
2,note_on,49,0,0
2,note_on,49,18,0
2,note_on,56,18,0
2,note_on,61,18,0
2,note_on,61,0,377
2,note_on,56,0,0
2,note_on,49,0,0
2,note_on,49,15,0
2,note_on,56,15,0
2,note_on,61,15,0
2,note_on,61,0,173
2,note_on,56,0,0
2,note_on,49,0,0
2,note_on,56,18,60
2,note_on,60,18,0
2,note_on,60,0,183
2,note_on,56,0,0
2,note_on,56,18,0
2,note_on,60,18,0
2,note_on,60,0,331
2,note_on,56,0,0
2,note_on,56,18,0
2,note_on,60,18,0
2,note_on,60,0,235
2,note_on,56,0,0
2,note_on,49,20,0
2,note_on,56,20,0
2,note_on,61,20,0
2,note_on,61,0,204
2,note_on,56,0,0
2,note_on,49,0,0
2,note_on,49,21,0
2,note_on,56,21,0
2,note_on,61,21,0
2,note_on,61,0,377
2,note_on,56,0,0
2,note_on,49,0,0
2,note_on,49,18,0
2,note_on,56,18,0
2,note_on,61,18,0
2,note_on,61,0,171
2,note_on,56,0,0
2,note_on,49,0,0
2,note_on,49,18,60
2,note_on,56,18,0
2,note_on,61,18,0
2,note_on,61,0,204
2,note_on,56,0,0
2,note_on,49,0,0
2,note_on,49,18,0
2,note_on,56,18,0
2,note_on,61,18,0
2,note_on,61,0,356
2,note_on,56,0,0
2,note_on,49,0,0
2,note_on,49,18,0
2,note_on,56,18,0
2,note_on,61,18,0
2,note_on,61,0,177
2,note_on,56,0,0
2,note_on,49,0,0
2,note_on,49,18,60
2,note_on,56,18,0
2,note_on,61,18,0
2,note_on,61,0,190
2,note_on,56,0,0
2,note_on,49,0,0
2,note_on,49,18,0
2,note_on,56,18,0
2,note_on,61,18,0
2,note_on,61,0,388
2,note_on,56,0,0
2,note_on,49,0,0
2,note_on,49,17,0
2,note_on,56,17,0
2,note_on,61,17,0
2,note_on,61,0,170
2,note_on,56,0,0
2,note_on,49,0,0
2,note_on,56,20,60
2,note_on,60,20,0
2,note_on,60,0,171
2,note_on,56,0,0
2,note_on,56,22,0
2,note_on,60,22,0
2,note_on,60,0,388
2,note_on,56,0,0
2,note_on,56,19,0
2,note_on,60,19,0
2,note_on,60,0,148
2,note_on,56,0,0
2,note_on,49,20,0
2,note_on,56,20,0
2,note_on,61,20,0
2,note_on,61,0,127
2,note_on,56,0,0
2,note_on,49,0,0
2,note_on,49,21,0
2,note_on,56,21,0
2,note_on,61,21,0
2,note_on,56,0,591
2,note_on,61,0,2
2,note_on,49,0,0
2,note_on,32,30,0
2,note_on,44,30,0
2,note_on,44,0,106
2,note_on,32,0,0
2,note_on,37,32,0
2,note_on,44,32,0
2,note_on,44,0,381
2,note_on,37,0,0
2,note_on,32,27,0
2,note_on,44,27,0
2,note_on,44,0,228
2,note_on,32,0,0
2,note_on,32,30,0
2,note_on,44,30,0
2,note_on,44,0,183
2,note_on,32,0,0
2,note_on,37,34,0
2,note_on,44,34,0
2,note_on,44,0,374
2,note_on,37,0,0
2,note_on,32,30,0
2,note_on,44,30,0
2,note_on,44,0,233
2,note_on,32,0,0
2,note_on,32,34,0
2,note_on,44,34,0
2,note_on,44,0,201
2,note_on,32,0,0
2,note_on,37,36,0
2,note_on,44,36,0
2,note_on,44,0,422
2,note_on,37,0,0
2,note_on,32,31,0
2,note_on,44,31,0
2,note_on,44,0,144
2,note_on,32,0,0
2,note_on,42,19,0
2,note_on,47,19,0
2,note_on,47,0,187
2,note_on,42,0,0
2,note_on,40,19,0
2,note_on,47,19,0
2,note_on,47,0,648
2,note_on,40,0,0
2,note_on,40,45,0
2,note_on,52,45,0
2,note_on,52,0,153
2,note_on,40,0,0
2,note_on,35,48,0
2,note_on,47,48,0
2,note_on,47,0,317
2,note_on,35,0,0
2,note_on,40,46,0
2,note_on,52,46,0
2,note_on,52,0,231
2,note_on,40,0,0
2,note_on,40,50,0
2,note_on,52,50,0
2,note_on,52,0,211
2,note_on,40,0,0
2,note_on,35,53,0
2,note_on,47,53,0
2,note_on,47,0,317
2,note_on,35,0,0
2,note_on,40,50,0
2,note_on,52,50,0
2,note_on,52,0,231
2,note_on,40,0,0
2,note_on,35,54,0
2,note_on,47,54,0
2,note_on,47,0,226
2,note_on,35,0,0
2,note_on,37,58,0
2,note_on,49,58,0
2,note_on,49,0,388
2,note_on,37,0,0
2,note_on,33,60,0
2,note_on,45,60,0
2,note_on,45,0,134
2,note_on,33,0,0
2,note_on,35,57,0
2,note_on,47,57,0
2,note_on,47,0,176
2,note_on,35,0,0
2,note_on,40,54,0
2,note_on,47,54,0
2,note_on,47,0,348
2,note_on,40,0,0
2,note_on,59,45,40
2,note_on,59,0,237
2,note_on,63,39,0
2,note_on,59,39,0
2,note_on,59,0,171
2,note_on,63,0,0
2,note_on,59,48,0
2,note_on,63,48,0
2,note_on,63,0,337
2,note_on,59,0,0
2,note_on,59,48,0
2,note_on,63,48,0
2,note_on,63,0,226
2,note_on,59,0,0
2,note_on,64,53,0
2,note_on,59,53,0
2,note_on,59,0,187
2,note_on,64,0,0
2,note_on,59,54,0
2,note_on,64,54,0
2,note_on,64,0,403
2,note_on,59,0,0
2,note_on,59,47,0
2,note_on,64,47,0
2,note_on,64,0,235
2,note_on,59,0,0
2,note_on,63,51,0
2,note_on,59,51,0
2,note_on,59,0,217
2,note_on,63,0,0
2,note_on,59,54,0
2,note_on,63,54,0
2,note_on,63,0,388
2,note_on,59,0,0
2,note_on,59,51,0
2,note_on,66,51,0
2,note_on,66,0,230
2,note_on,59,0,0
2,note_on,64,53,0
2,note_on,59,53,0
2,note_on,52,53,0
2,note_on,52,0,192
2,note_on,59,0,0
2,note_on,64,0,0
2,note_on,59,53,0
2,note_on,64,53,0
2,note_on,52,53,0
2,note_on,64,0,406
2,note_on,59,0,0
2,note_on,52,0,2
2,note_on,40,47,0
2,note_on,52,47,0
2,note_on,52,0,235
2,note_on,40,0,0
2,note_on,40,56,0
2,note_on,52,56,0
2,note_on,52,0,211
2,note_on,40,0,0
2,note_on,35,61,0
2,note_on,47,61,0
2,note_on,47,0,393
2,note_on,35,0,0
2,note_on,40,59,0
2,note_on,52,59,0
2,note_on,52,0,231
2,note_on,40,0,0
2,note_on,40,64,0
2,note_on,52,64,0
2,note_on,52,0,192
2,note_on,40,0,0
2,note_on,35,67,0
2,note_on,47,67,0
2,note_on,47,0,384
2,note_on,35,0,0
2,note_on,40,64,0
2,note_on,52,64,0
2,note_on,52,0,234
2,note_on,40,0,0
2,note_on,35,69,0
2,note_on,47,69,0
2,note_on,47,0,169
2,note_on,35,0,0
2,note_on,37,73,0
2,note_on,49,73,0
2,note_on,49,0,360
2,note_on,37,0,0
2,note_on,57,72,0
2,note_on,54,61,0
2,note_on,30,61,0
2,note_on,42,61,0
2,note_on,42,0,141
2,note_on,57,0,0
2,note_on,54,0,0
2,note_on,30,0,0
2,note_on,54,72,0
2,note_on,32,61,0
2,note_on,44,61,0
2,note_on,44,0,194
2,note_on,32,0,0
2,note_on,54,0,0
2,note_on,53,69,0
2,note_on,37,58,0
2,note_on,44,58,0
2,note_on,44,0,87
2,note_on,37,0,0
2,note_on,53,0,0
2,note_on,56,28,40
2,note_on,61,28,0
2,note_on,61,0,240
2,note_on,56,0,0
2,note_on,60,29,0
2,note_on,56,29,0
2,note_on,56,0,194
2,note_on,60,0,0
2,note_on,60,28,0
2,note_on,56,28,0
2,note_on,56,0,383
2,note_on,60,0,0
2,note_on,60,24,0
2,note_on,56,24,0
2,note_on,56,0,234
2,note_on,60,0,0
2,note_on,61,26,0
2,note_on,56,26,0
2,note_on,56,0,169
2,note_on,61,0,0
2,note_on,61,28,0
2,note_on,56,28,0
2,note_on,56,0,353
2,note_on,61,0,0
2,note_on,61,26,0
2,note_on,56,26,0
2,note_on,56,0,229
2,note_on,61,0,0
2,note_on,60,28,0
2,note_on,56,28,0
2,note_on,56,0,188
2,note_on,60,0,0
2,note_on,60,25,0
2,note_on,56,25,0
2,note_on,56,0,337
2,note_on,60,0,0
2,note_on,62,25,0
2,note_on,56,25,0
2,note_on,56,0,233
2,note_on,62,0,0
2,note_on,63,26,0
2,note_on,56,26,0
2,note_on,56,0,197
2,note_on,63,0,0
2,note_on,63,23,0
2,note_on,56,23,0
2,note_on,56,0,515
2,note_on,63,0,0
2,note_on,49,16,0
2,note_on,56,16,0
2,note_on,61,16,0
2,note_on,61,0,190
2,note_on,56,0,0
2,note_on,49,0,0
2,note_on,49,18,0
2,note_on,56,18,0
2,note_on,61,18,0
2,note_on,61,0,377
2,note_on,56,0,0
2,note_on,49,0,0
2,note_on,49,15,0
2,note_on,56,15,0
2,note_on,61,15,0
2,note_on,61,0,177
2,note_on,56,0,0
2,note_on,49,0,0
2,note_on,49,18,60
2,note_on,56,18,0
2,note_on,61,18,0
2,note_on,61,0,190
2,note_on,56,0,0
2,note_on,49,0,0
2,note_on,49,18,0
2,note_on,56,18,0
2,note_on,61,18,0
2,note_on,61,0,384
2,note_on,56,0,0
2,note_on,49,0,0
2,note_on,49,16,0
2,note_on,56,16,0
2,note_on,61,16,0
2,note_on,61,0,170
2,note_on,56,0,0
2,note_on,49,0,0
2,note_on,56,20,60
2,note_on,60,20,0
2,note_on,60,0,183
2,note_on,56,0,0
2,note_on,56,22,0
2,note_on,60,22,0
2,note_on,60,0,314
2,note_on,56,0,0
2,note_on,56,20,0
2,note_on,60,20,0
2,note_on,60,0,229
2,note_on,56,0,0
2,note_on,49,20,0
2,note_on,56,20,0
2,note_on,61,20,0
2,note_on,61,0,208
2,note_on,56,0,0
2,note_on,49,0,0
2,note_on,49,21,0
2,note_on,56,21,0
2,note_on,61,21,0
2,note_on,61,0,370
2,note_on,56,0,0
2,note_on,49,0,0
2,note_on,49,18,0
2,note_on,56,18,0
2,note_on,61,18,0
2,note_on,61,0,174
2,note_on,56,0,0
2,note_on,49,0,0
2,note_on,49,18,60
2,note_on,56,18,0
2,note_on,61,18,0
2,note_on,61,0,204
2,note_on,56,0,0
2,note_on,49,0,0
2,note_on,49,19,0
2,note_on,56,19,0
2,note_on,61,19,0
2,note_on,61,0,381
2,note_on,56,0,0
2,note_on,49,0,0
2,note_on,49,17,0
2,note_on,56,17,0
2,note_on,61,17,0
2,note_on,61,0,170
2,note_on,56,0,0
2,note_on,49,0,0
2,note_on,49,18,60
2,note_on,56,18,0
2,note_on,61,18,0
2,note_on,61,0,201
2,note_on,56,0,0
2,note_on,49,0,0
2,note_on,49,18,0
2,note_on,56,18,0
2,note_on,61,18,0
2,note_on,61,0,377
2,note_on,56,0,0
2,note_on,49,0,0
2,note_on,49,17,0
2,note_on,56,17,0
2,note_on,61,17,0
2,note_on,61,0,173
2,note_on,56,0,0
2,note_on,49,0,0
2,note_on,56,20,60
2,note_on,60,20,0
2,note_on,60,0,188
2,note_on,56,0,0
2,note_on,56,22,0
2,note_on,60,22,0
2,note_on,60,0,377
2,note_on,56,0,0
2,note_on,56,19,0
2,note_on,60,19,0
2,note_on,60,0,160
2,note_on,56,0,0
2,note_on,49,20,0
2,note_on,56,20,0
2,note_on,61,20,0
2,note_on,61,0,127
2,note_on,56,0,0
2,note_on,49,0,0
2,note_on,49,21,0
2,note_on,56,21,0
2,note_on,61,21,0
2,note_on,61,0,600
2,note_on,56,0,0
2,note_on,49,0,0
2,note_on,53,35,0
2,note_on,29,32,0
2,note_on,41,32,0
2,note_on,53,0,34
2,note_on,57,35,0
2,note_on,57,0,120
2,note_on,41,0,0
2,note_on,29,0,0
2,note_on,49,38,0
2,note_on,53,38,0
2,note_on,58,38,0
2,note_on,34,34,0
2,note_on,41,34,0
2,note_on,41,0,394
2,note_on,58,0,0
2,note_on,49,0,0
2,note_on,53,0,0
2,note_on,34,0,0
2,note_on,48,31,0
2,note_on,53,31,0
2,note_on,57,31,0
2,note_on,29,29,0
2,note_on,41,29,0
2,note_on,41,0,235
2,note_on,57,0,0
2,note_on,48,0,0
2,note_on,53,0,0
2,note_on,29,0,0
2,note_on,53,39,0
2,note_on,29,32,0
2,note_on,41,32,0
2,note_on,53,0,63
2,note_on,57,39,0
2,note_on,57,0,120
2,note_on,41,0,0
2,note_on,29,0,0
2,note_on,61,43,0
2,note_on,58,43,0
2,note_on,53,43,0
2,note_on,34,36,0
2,note_on,41,36,0
2,note_on,41,0,394
2,note_on,53,0,0
2,note_on,61,0,0
2,note_on,58,0,0
2,note_on,34,0,0
2,note_on,60,36,0
2,note_on,57,36,0
2,note_on,53,36,0
2,note_on,29,32,0
2,note_on,41,32,0
2,note_on,57,0,227
2,note_on,60,0,0
2,note_on,29,0,2
2,note_on,53,0,0
2,note_on,41,0,0
2,note_on,29,36,0
2,note_on,41,36,0
2,note_on,41,0,160
2,note_on,29,0,0
2,note_on,34,38,0
2,note_on,41,38,0
2,note_on,41,0,383
2,note_on,34,0,0
2,note_on,29,33,0
2,note_on,41,33,0
2,note_on,41,0,143
2,note_on,29,0,0
2,note_on,39,21,0
2,note_on,44,21,0
2,note_on,44,0,155
2,note_on,39,0,0
2,note_on,37,21,0
2,note_on,44,21,0
2,note_on,40,45,395
2,note_on,52,45,0
2,note_on,52,0,226
2,note_on,37,0,0
2,note_on,44,0,0
2,note_on,40,0,0
2,note_on,40,45,0
2,note_on,52,45,0
2,note_on,52,0,182
2,note_on,40,0,0
2,note_on,35,48,0
2,note_on,47,48,0
2,note_on,47,0,369
2,note_on,35,0,0
2,note_on,40,46,0
2,note_on,52,46,0
2,note_on,52,0,229
2,note_on,40,0,0
2,note_on,40,50,0
2,note_on,52,50,0
2,note_on,52,0,201
2,note_on,40,0,0
2,note_on,35,53,0
2,note_on,47,53,0
2,note_on,47,0,345
2,note_on,35,0,0
2,note_on,40,50,0
2,note_on,52,50,0
2,note_on,52,0,235
2,note_on,40,0,0
2,note_on,35,54,0
2,note_on,47,54,0
2,note_on,47,0,169
2,note_on,35,0,0
2,note_on,37,58,0
2,note_on,49,58,0
2,note_on,49,0,367
2,note_on,37,0,0
2,note_on,33,60,0
2,note_on,45,60,0
2,note_on,45,0,233
2,note_on,33,0,0
2,note_on,35,57,0
2,note_on,47,57,0
2,note_on,47,0,194
2,note_on,35,0,0
2,note_on,40,54,0
2,note_on,47,54,0
2,note_on,47,0,62
2,note_on,40,0,0
2,note_on,59,45,40
2,note_on,59,0,240
2,note_on,63,39,0
2,note_on,59,39,0
2,note_on,59,0,177
2,note_on,63,0,0
2,note_on,59,48,0
2,note_on,63,48,0
2,note_on,63,0,343
2,note_on,59,0,0
2,note_on,59,48,0
2,note_on,63,48,0
2,note_on,63,0,229
2,note_on,59,0,0
2,note_on,64,53,0
2,note_on,59,53,0
2,note_on,59,0,197
2,note_on,64,0,0
2,note_on,59,54,0
2,note_on,64,54,0
2,note_on,64,0,355
2,note_on,59,0,0
2,note_on,59,47,0
2,note_on,64,47,0
2,note_on,64,0,234
2,note_on,59,0,0
2,note_on,63,51,0
2,note_on,59,51,0
2,note_on,59,0,194
2,note_on,63,0,0
2,note_on,59,54,0
2,note_on,63,54,0
2,note_on,63,0,348
2,note_on,59,0,0
2,note_on,59,51,0
2,note_on,66,51,0
2,note_on,66,0,235
2,note_on,59,0,0
2,note_on,64,53,0
2,note_on,59,53,0
2,note_on,52,53,0
2,note_on,52,0,187
2,note_on,59,0,0
2,note_on,64,0,0
2,note_on,59,53,0
2,note_on,64,53,0
2,note_on,52,53,0
2,note_on,64,0,343
2,note_on,59,0,0
2,note_on,52,0,2
2,note_on,40,47,0
2,note_on,52,47,0
2,note_on,52,0,235
2,note_on,40,0,0
2,note_on,40,63,0
2,note_on,52,63,0
2,note_on,52,0,177
2,note_on,40,0,0
2,note_on,35,68,0
2,note_on,47,68,0
2,note_on,47,0,384
2,note_on,35,0,0
2,note_on,40,66,0
2,note_on,52,66,0
2,note_on,52,0,231
2,note_on,40,0,0
2,note_on,40,72,0
2,note_on,52,72,0
2,note_on,52,0,192
2,note_on,40,0,0
2,note_on,35,75,0
2,note_on,47,75,0
2,note_on,47,0,312
2,note_on,35,0,0
2,note_on,40,72,0
2,note_on,52,72,0
2,note_on,52,0,229
2,note_on,40,0,0
2,note_on,35,77,0
2,note_on,47,77,0
2,note_on,47,0,169
2,note_on,35,0,0
2,note_on,37,82,0
2,note_on,49,82,0
2,note_on,49,0,469
2,note_on,37,0,0
2,note_on,57,85,0
2,note_on,54,68,0
2,note_on,30,68,0
2,note_on,42,68,0
2,note_on,42,0,155
2,note_on,57,0,0
2,note_on,54,0,0
2,note_on,30,0,0
2,note_on,54,85,0
2,note_on,32,68,0
2,note_on,44,68,0
2,note_on,44,0,169
2,note_on,32,0,0
2,note_on,54,0,0
2,note_on,53,85,0
2,note_on,37,65,0
2,note_on,44,65,0
2,note_on,44,0,13
2,note_on,37,0,0
2,note_on,53,0,0
2,note_on,56,28,40
2,note_on,61,28,0
2,note_on,61,0,240
2,note_on,56,0,0
2,note_on,60,29,0
2,note_on,56,29,0
2,note_on,56,0,171
2,note_on,60,0,0
2,note_on,60,28,0
2,note_on,56,28,0
2,note_on,56,0,314
2,note_on,60,0,0
2,note_on,60,24,0
2,note_on,56,24,0
2,note_on,56,0,237
2,note_on,60,0,0
2,note_on,61,26,0
2,note_on,56,26,0
2,note_on,56,0,176
2,note_on,61,0,0
2,note_on,61,28,0
2,note_on,56,28,0
2,note_on,56,0,310
2,note_on,61,0,0
2,note_on,61,26,0
2,note_on,56,26,0
2,note_on,56,0,233
2,note_on,61,0,0
2,note_on,60,28,0
2,note_on,56,28,0
2,note_on,56,0,205
2,note_on,60,0,0
2,note_on,60,25,0
2,note_on,56,25,0
2,note_on,56,0,348
2,note_on,60,0,0
2,note_on,62,25,0
2,note_on,56,25,0
2,note_on,56,0,237
2,note_on,62,0,0
2,note_on,63,26,0
2,note_on,56,26,0
2,note_on,56,0,190
2,note_on,63,0,0
2,note_on,63,23,0
2,note_on,56,23,0
2,note_on,56,0,579
2,note_on,63,0,0
2,note_on,49,16,0
2,note_on,56,16,0
2,note_on,61,16,0
2,note_on,61,0,190
2,note_on,56,0,0
2,note_on,49,0,0
2,note_on,49,18,0
2,note_on,56,18,0
2,note_on,61,18,0
2,note_on,61,0,381
2,note_on,56,0,0
2,note_on,49,0,0
2,note_on,49,15,0
2,note_on,56,15,0
2,note_on,61,15,0
2,note_on,61,0,177
2,note_on,56,0,0
2,note_on,49,0,0
2,note_on,49,18,60
2,note_on,56,18,0
2,note_on,61,18,0
2,note_on,61,0,204
2,note_on,56,0,0
2,note_on,49,0,0
2,note_on,49,18,0
2,note_on,56,18,0
2,note_on,61,18,0
2,note_on,61,0,367
2,note_on,56,0,0
2,note_on,49,0,0
2,note_on,49,16,0
2,note_on,56,16,0
2,note_on,61,16,0
2,note_on,61,0,177
2,note_on,56,0,0
2,note_on,49,0,0
2,note_on,56,20,60
2,note_on,60,20,0
2,note_on,60,0,194
2,note_on,56,0,0
2,note_on,56,22,0
2,note_on,60,22,0
2,note_on,60,0,308
2,note_on,56,0,0
2,note_on,56,20,0
2,note_on,60,20,0
2,note_on,60,0,235
2,note_on,56,0,0
2,note_on,49,20,0
2,note_on,56,20,0
2,note_on,61,20,0
2,note_on,61,0,201
2,note_on,56,0,0
2,note_on,49,0,0
2,note_on,49,21,0
2,note_on,56,21,0
2,note_on,61,21,0
2,note_on,61,0,374
2,note_on,56,0,0
2,note_on,49,0,0
2,note_on,49,18,0
2,note_on,56,18,0
2,note_on,61,18,0
2,note_on,61,0,170
2,note_on,56,0,0
2,note_on,49,0,0
2,note_on,49,18,60
2,note_on,56,18,0
2,note_on,61,18,0
2,note_on,61,0,208
2,note_on,56,0,0
2,note_on,49,0,0
2,note_on,49,19,0
2,note_on,56,19,0
2,note_on,61,19,0
2,note_on,61,0,377
2,note_on,56,0,0
2,note_on,49,0,0
2,note_on,49,17,0
2,note_on,56,17,0
2,note_on,61,17,0
2,note_on,61,0,174
2,note_on,56,0,0
2,note_on,49,0,0
2,note_on,49,18,60
2,note_on,56,18,0
2,note_on,61,18,0
2,note_on,61,0,190
2,note_on,56,0,0
2,note_on,49,0,0
2,note_on,49,18,0
2,note_on,56,18,0
2,note_on,61,18,0
2,note_on,61,0,353
2,note_on,56,0,0
2,note_on,49,0,0
2,note_on,49,17,0
2,note_on,56,17,0
2,note_on,61,17,0
2,note_on,61,0,176
2,note_on,56,0,0
2,note_on,49,0,0
2,note_on,56,20,60
2,note_on,60,20,0
2,note_on,60,0,183
2,note_on,56,0,0
2,note_on,56,22,0
2,note_on,60,22,0
2,note_on,60,0,371
2,note_on,56,0,0
2,note_on,56,19,0
2,note_on,60,19,0
2,note_on,60,0,148
2,note_on,56,0,0
2,note_on,49,20,0
2,note_on,56,20,0
2,note_on,61,20,0
2,note_on,61,0,148
2,note_on,56,0,0
2,note_on,49,0,0
2,note_on,49,21,0
2,note_on,56,21,0
2,note_on,61,21,0
2,note_on,61,0,579
2,note_on,56,0,0
2,note_on,49,0,0
2,note_on,53,35,0
2,note_on,29,32,0
2,note_on,41,32,0
2,note_on,53,0,5
2,note_on,57,35,0
2,note_on,57,0,120
2,note_on,41,0,0
2,note_on,29,0,0
2,note_on,49,38,0
2,note_on,53,38,0
2,note_on,58,38,0
2,note_on,34,34,0
2,note_on,41,34,0
2,note_on,41,0,394
2,note_on,58,0,0
2,note_on,49,0,0
2,note_on,53,0,0
2,note_on,34,0,0
2,note_on,48,31,0
2,note_on,53,31,0
2,note_on,57,31,0
2,note_on,29,29,0
2,note_on,41,29,0
2,note_on,41,0,236
2,note_on,57,0,0
2,note_on,48,0,0
2,note_on,53,0,0
2,note_on,29,0,0
2,note_on,53,39,0
2,note_on,29,32,0
2,note_on,41,32,0
2,note_on,53,0,85
2,note_on,57,39,0
2,note_on,57,0,120
2,note_on,41,0,0
2,note_on,29,0,0
2,note_on,61,43,0
2,note_on,58,43,0
2,note_on,53,43,0
2,note_on,34,36,0
2,note_on,41,36,0
2,note_on,41,0,383
2,note_on,53,0,0
2,note_on,61,0,0
2,note_on,58,0,0
2,note_on,34,0,0
2,note_on,60,31,0
2,note_on,53,31,0
2,note_on,57,31,0
2,note_on,29,31,0
2,note_on,41,31,0
2,note_on,57,0,232
2,note_on,60,0,0
2,note_on,53,0,0
2,note_on,29,0,2
2,note_on,41,0,0
2,note_on,29,24,0
2,note_on,41,24,0
2,note_on,41,0,154
2,note_on,29,0,0
2,note_on,34,24,0
2,note_on,41,24,0
2,note_on,41,0,360
2,note_on,34,0,0
2,note_on,29,20,0
2,note_on,41,20,0
2,note_on,41,0,131
2,note_on,29,0,0
2,note_on,39,17,0
2,note_on,44,17,0
2,note_on,44,0,141
2,note_on,39,0,0
2,note_on,37,17,0
2,note_on,44,17,0
2,note_on,44,0,234
2,note_on,37,0,0
2,note_on,49,54,0
2,note_on,49,0,120
2,note_on,56,50,120
2,note_on,56,0,120
2,note_on,49,54,120
2,note_on,49,0,120
2,note_on,57,50,120
2,note_on,57,0,120
2,note_on,48,54,120
2,note_on,48,0,120
2,note_on,57,51,120
2,note_on,57,0,120
2,note_on,48,54,120
2,note_on,48,0,120
2,note_on,56,50,120
2,note_on,56,0,120
2,note_on,49,55,120
2,note_on,49,0,120
2,note_on,56,51,120
2,note_on,56,0,120
2,note_on,52,55,120
2,note_on,52,0,120
2,note_on,56,52,120
2,note_on,56,0,120
2,note_on,51,56,120
2,note_on,51,0,120
2,note_on,57,52,120
2,note_on,57,0,120
2,note_on,51,55,120
2,note_on,51,0,120
2,note_on,56,52,120
2,note_on,56,0,120
2,note_on,49,56,120
2,note_on,49,0,120
2,note_on,61,50,120
2,note_on,61,0,120
2,note_on,49,55,120
2,note_on,49,0,120
2,note_on,59,51,120
2,note_on,59,0,120
2,note_on,54,57,120
2,note_on,54,0,120
2,note_on,57,56,120
2,note_on,57,0,120
2,note_on,54,57,120
2,note_on,54,0,120
2,note_on,57,54,120
2,note_on,57,0,120
2,note_on,45,58,120
2,note_on,45,0,120
2,note_on,54,54,120
2,note_on,54,0,120
2,note_on,44,56,120
2,note_on,44,0,120
2,note_on,56,54,120
2,note_on,56,0,120
2,note_on,49,54,120
2,note_on,49,0,120
2,note_on,51,54,120
2,note_on,51,0,120
2,note_on,52,55,120
2,note_on,52,0,120
2,note_on,56,56,120
2,note_on,56,0,120
2,note_on,49,51,120
2,note_on,49,0,120
2,note_on,56,47,120
2,note_on,56,0,120
2,note_on,49,51,120
2,note_on,49,0,120
2,note_on,57,47,120
2,note_on,57,0,120
2,note_on,47,51,120
2,note_on,47,0,120
2,note_on,57,48,120
2,note_on,57,0,120
2,note_on,47,51,120
2,note_on,47,0,120
2,note_on,56,47,120
2,note_on,56,0,120
2,note_on,52,52,120
2,note_on,52,0,120
2,note_on,56,48,120
2,note_on,56,0,120
2,note_on,45,52,120
2,note_on,45,0,120
2,note_on,57,49,120
2,note_on,57,0,120
2,note_on,44,51,120
2,note_on,44,0,120
2,note_on,59,49,120
2,note_on,59,0,120
2,note_on,56,52,120
2,note_on,56,0,120
2,note_on,59,49,120
2,note_on,59,0,120
2,note_on,49,52,120
2,note_on,49,0,120
2,note_on,52,47,120
2,note_on,52,0,120
2,note_on,48,52,120
2,note_on,48,0,120
2,note_on,58,44,120
2,note_on,58,0,120
2,note_on,47,48,120
2,note_on,47,0,120
2,note_on,59,45,120
2,note_on,59,0,120
2,note_on,48,48,120
2,note_on,48,0,120
2,note_on,54,43,120
2,note_on,54,0,120
2,note_on,49,45,120
2,note_on,49,0,120
2,note_on,52,39,120
2,note_on,52,0,120
2,note_on,45,46,120
2,note_on,45,0,120
2,note_on,54,40,120
2,note_on,54,0,120
2,note_on,47,46,120
2,note_on,47,0,120
2,note_on,56,43,120
2,note_on,56,0,120
2,note_on,47,45,120
2,note_on,47,0,120
2,note_on,57,41,120
2,note_on,57,0,120
2,note_on,47,46,120
2,note_on,47,0,120
2,note_on,54,39,120
2,note_on,54,0,120
2,note_on,52,47,120
2,note_on,52,0,120
2,note_on,54,41,120
2,note_on,54,0,120
2,note_on,56,45,120
2,note_on,56,0,120
2,note_on,59,36,120
2,note_on,59,0,120
2,note_on,56,34,120
2,note_on,56,0,120
2,note_on,64,31,120
2,note_on,64,0,120
2,note_on,57,45,120
2,note_on,57,0,120
2,note_on,45,40,120
2,note_on,45,0,120
2,note_on,47,41,120
2,note_on,47,0,120
2,note_on,49,42,120
2,note_on,49,0,120
2,note_on,47,45,120
2,note_on,47,0,120
2,note_on,52,39,120
2,note_on,52,0,120
2,note_on,47,43,120
2,note_on,47,0,120
2,note_on,55,41,120
2,note_on,55,0,120
2,note_on,47,41,120
2,note_on,47,0,120
2,note_on,52,39,120
2,note_on,52,0,120
2,note_on,47,41,120
2,note_on,47,0,120
2,note_on,51,37,120
2,note_on,51,0,120
2,note_on,52,48,120
2,note_on,52,0,212
2,note_on,47,48,240
2,note_on,47,0,108
2,note_on,40,44,0
2,note_on,40,0,113
2,note_on,47,44,0
2,note_on,47,0,120
2,note_on,52,45,0
2,note_on,52,0,120
2,note_on,47,48,374
2,note_on,47,0,7
2,note_on,40,44,0
2,note_on,40,0,120
2,note_on,47,44,0
2,note_on,47,0,120
2,note_on,54,44,0
2,note_on,54,0,120
2,note_on,52,46,381
2,note_on,52,0,120
2,note_on,56,47,0
2,note_on,56,0,120
2,note_on,59,52,0
2,note_on,59,0,120
2,note_on,64,56,0
2,note_on,64,0,120
2,note_on,64,58,0
2,note_on,64,0,169
2,note_on,61,55,0
2,note_on,61,0,240
2,note_on,60,52,0
2,note_on,60,0,169
2,note_on,59,49,0
2,note_on,59,0,141
2,note_on,57,46,0
2,note_on,57,0,134
2,note_on,52,48,240
2,note_on,52,0,120
2,note_on,45,44,0
2,note_on,45,0,120
2,note_on,52,44,0
2,note_on,52,0,120
2,note_on,57,44,0
2,note_on,57,0,120
2,note_on,52,48,405
2,note_on,52,0,51
2,note_on,45,41,0
2,note_on,45,0,120
2,note_on,52,41,0
2,note_on,52,0,120
2,note_on,59,41,0
2,note_on,59,0,120
2,note_on,57,44,367
2,note_on,57,0,120
2,note_on,61,49,0
2,note_on,61,0,120
2,note_on,64,54,0
2,note_on,64,0,120
2,note_on,69,59,0
2,note_on,69,0,120
2,note_on,69,62,0
2,note_on,69,0,162
2,note_on,66,51,0
2,note_on,66,0,240
2,note_on,71,51,0
2,note_on,71,0,148
2,note_on,59,51,0
2,note_on,69,51,0
2,note_on,69,0,183
2,note_on,59,0,0
2,note_on,56,62,238
2,note_on,54,62,0
2,note_on,54,0,240
2,note_on,52,71,0
2,note_on,52,0,240
2,note_on,51,78,0
2,note_on,51,0,240
2,note_on,56,0,0
2,note_on,49,85,0
2,note_on,49,0,120
2,note_on,48,77,120
2,note_on,48,0,120
2,note_on,49,76,120
2,note_on,49,0,120
2,note_on,52,76,120
2,note_on,52,0,120
2,note_on,48,82,120
2,note_on,48,0,120
2,note_on,51,76,120
2,note_on,51,0,120
2,note_on,56,76,120
2,note_on,56,0,120
2,note_on,48,76,120
2,note_on,48,0,120
2,note_on,49,80,120
2,note_on,49,0,120
2,note_on,51,76,120
2,note_on,51,0,120
2,note_on,52,76,120
2,note_on,52,0,120
2,note_on,49,76,120
2,note_on,49,0,120
2,note_on,51,76,120
2,note_on,51,0,120
2,note_on,57,83,120
2,note_on,57,0,120
2,note_on,56,81,120
2,note_on,56,0,120
2,note_on,54,76,120
2,note_on,54,0,120
2,note_on,52,74,120
2,note_on,52,0,120
2,note_on,51,76,120
2,note_on,51,0,120
2,note_on,49,79,120
2,note_on,49,0,120
2,note_on,47,80,120
2,note_on,47,0,120
2,note_on,45,84,120
2,note_on,45,0,120
2,note_on,42,78,120
2,note_on,42,0,60
2,note_on,44,78,60
2,note_on,44,0,60
2,note_on,45,83,60
2,note_on,45,0,120
2,note_on,42,79,120
2,note_on,42,0,120
2,note_on,44,85,120
2,note_on,44,0,120
2,note_on,42,80,120
2,note_on,42,0,60
2,note_on,40,80,60
2,note_on,40,0,60
2,note_on,39,85,60
2,note_on,39,0,120
2,note_on,44,80,120
2,note_on,44,0,120
2,note_on,37,88,120
2,note_on,37,0,120
2,note_on,44,70,120
2,note_on,44,0,240
2,note_on,46,58,0
2,note_on,46,0,240
2,note_on,48,48,0
2,note_on,48,0,240
2,note_on,49,40,0
2,note_on,49,0,240
2,note_on,52,37,0
2,note_on,52,0,240
2,note_on,51,38,0
2,note_on,51,0,240
2,note_on,49,37,0
2,note_on,49,0,240
2,note_on,47,40,0
2,note_on,47,0,240
2,note_on,51,38,0
2,note_on,51,0,240
2,note_on,56,40,0
2,note_on,56,0,240
2,note_on,47,37,0
2,note_on,47,0,240
2,note_on,45,41,0
2,note_on,45,0,240
2,note_on,49,38,0
2,note_on,49,0,240
2,note_on,47,38,0
2,note_on,47,0,240
2,note_on,45,39,0
2,note_on,45,0,240
2,note_on,44,40,0
2,note_on,44,0,240
2,note_on,47,39,0
2,note_on,47,0,240
2,note_on,52,41,0
2,note_on,52,0,240
2,note_on,44,39,0
2,note_on,44,0,240
2,note_on,40,41,0
2,note_on,40,0,240
2,note_on,52,37,0
2,note_on,52,0,120
2,note_on,51,37,0
2,note_on,51,0,120
2,note_on,49,36,0
2,note_on,49,0,240
2,note_on,48,38,0
2,note_on,48,0,240
2,note_on,47,43,0
2,note_on,47,0,240
2,note_on,54,39,0
2,note_on,54,0,240
2,note_on,59,47,0
2,note_on,59,0,240
2,note_on,47,34,0
2,note_on,47,0,240
2,note_on,48,36,0
2,note_on,48,0,240
2,note_on,49,31,0
2,note_on,49,0,240
2,note_on,44,36,0
2,note_on,44,0,240
2,note_on,45,32,0
2,note_on,45,0,240
2,note_on,47,36,0
2,note_on,47,0,240
2,note_on,56,34,0
2,note_on,56,0,240
2,note_on,47,36,0
2,note_on,47,0,240
2,note_on,57,32,0
2,note_on,57,0,240
2,note_on,47,36,0
2,note_on,47,0,240
2,note_on,54,31,0
2,note_on,54,0,240
2,note_on,52,37,0
2,note_on,52,0,240
2,note_on,49,32,0
2,note_on,49,0,120
2,note_on,51,32,0
2,note_on,51,0,120
2,note_on,52,36,0
2,note_on,52,0,240
2,note_on,56,33,0
2,note_on,56,0,240
2,note_on,53,36,0
2,note_on,53,0,240
2,note_on,61,33,0
2,note_on,61,0,240
2,note_on,54,36,0
2,note_on,54,0,240
2,note_on,42,32,0
2,note_on,42,0,240
2,note_on,44,32,0
2,note_on,44,0,240
2,note_on,45,33,0
2,note_on,45,0,240
2,note_on,44,36,0
2,note_on,44,0,240
2,note_on,49,31,0
2,note_on,49,0,240
2,note_on,44,34,0
2,note_on,44,0,240
2,note_on,52,32,0
2,note_on,52,0,240
2,note_on,44,32,0
2,note_on,44,0,240
2,note_on,49,31,0
2,note_on,49,0,240
2,note_on,44,32,0
2,note_on,44,0,240
2,note_on,48,29,0
2,note_on,48,0,240
2,note_on,49,38,0
2,note_on,49,0,190
2,note_on,44,38,240
2,note_on,44,0,28
2,note_on,37,35,0
2,note_on,37,0,120
2,note_on,44,35,0
2,note_on,44,0,120
2,note_on,49,36,0
2,note_on,49,0,120
2,note_on,45,38,0
2,note_on,45,0,169
2,note_on,40,38,240
2,note_on,40,0,35
2,note_on,33,35,0
2,note_on,33,0,120
2,note_on,40,35,0
2,note_on,40,0,120
2,note_on,45,35,0
2,note_on,45,0,120
2,note_on,42,38,0
2,note_on,42,0,160
2,note_on,50,36,240
2,note_on,50,0,120
2,note_on,54,37,0
2,note_on,54,0,120
2,note_on,57,41,0
2,note_on,57,0,120
2,note_on,62,44,0
2,note_on,62,0,120
2,note_on,66,46,0
2,note_on,66,0,143
2,note_on,54,44,0
2,note_on,62,44,0
2,note_on,62,0,240
2,note_on,54,0,0
2,note_on,56,41,0
2,note_on,64,41,0
2,note_on,64,0,160
2,note_on,56,0,0
2,note_on,56,39,0
2,note_on,66,39,0
2,note_on,66,0,160
2,note_on,56,0,0
2,note_on,64,36,0
2,note_on,61,36,0
2,note_on,64,0,44
2,note_on,61,0,125
2,note_on,56,38,240
2,note_on,56,0,14
2,note_on,49,35,0
2,note_on,49,0,120
2,note_on,56,35,0
2,note_on,56,0,120
2,note_on,61,35,0
2,note_on,61,0,120
2,note_on,57,36,0
2,note_on,57,0,134
2,note_on,52,38,240
2,note_on,52,0,120
2,note_on,45,32,0
2,note_on,45,0,120
2,note_on,52,32,0
2,note_on,52,0,120
2,note_on,57,32,0
2,note_on,57,0,120
2,note_on,54,38,0
2,note_on,54,0,137
2,note_on,57,41,0
2,note_on,57,0,120
2,note_on,62,47,0
2,note_on,62,0,120
2,note_on,66,53,0
2,note_on,66,0,120
2,note_on,62,50,0
2,note_on,62,0,120
2,note_on,57,48,0
2,note_on,57,0,120
2,note_on,54,46,0
2,note_on,54,0,120
2,note_on,56,44,0
2,note_on,56,0,143
2,note_on,56,39,0
2,note_on,56,0,240
2,note_on,56,38,0
2,note_on,56,0,165
2,note_on,56,37,0
2,note_on,56,0,177
2,note_on,56,35,0
2,note_on,44,32,165
2,note_on,44,0,160
2,note_on,56,0,0
2,note_on,44,27,0
2,note_on,44,0,160
2,note_on,44,24,0
2,note_on,44,0,165
2,note_on,49,14,960
2,note_on,56,14,0
2,note_on,61,14,0
2,note_on,61,0,219
2,note_on,56,0,0
2,note_on,49,0,0
2,note_on,49,14,0
2,note_on,56,14,0
2,note_on,61,14,0
2,note_on,61,0,374
2,note_on,56,0,0
2,note_on,49,0,0
2,note_on,49,12,0
2,note_on,56,12,0
2,note_on,61,12,0
2,note_on,61,0,236
2,note_on,56,0,0
2,note_on,49,0,0
2,note_on,49,14,0
2,note_on,56,14,0
2,note_on,61,14,0
2,note_on,61,0,240
2,note_on,56,0,0
2,note_on,49,0,0
2,note_on,49,14,0
2,note_on,56,14,0
2,note_on,61,14,0
2,note_on,61,0,381
2,note_on,56,0,0
2,note_on,49,0,0
2,note_on,49,14,0
2,note_on,56,14,0
2,note_on,61,14,0
2,note_on,61,0,148
2,note_on,56,0,0
2,note_on,49,0,0
2,note_on,49,12,0
2,note_on,56,12,0
2,note_on,61,12,0
2,note_on,61,0,480
2,note_on,56,0,0
2,note_on,49,0,0
2,note_on,54,24,0
2,note_on,44,24,0
2,note_on,54,0,34
2,note_on,63,20,0
2,note_on,63,0,120
2,note_on,44,0,0
2,note_on,51,24,0
2,note_on,44,24,0
2,note_on,51,0,51
2,note_on,60,19,0
2,note_on,60,0,120
2,note_on,44,0,0
2,note_on,52,27,0
2,note_on,44,27,0
2,note_on,52,0,51
2,note_on,61,22,0
2,note_on,61,0,120
2,note_on,44,0,0
2,note_on,56,28,0
2,note_on,44,28,0
2,note_on,56,0,45
2,note_on,64,25,0
2,note_on,64,0,120
2,note_on,44,0,0
2,note_on,54,23,0
2,note_on,44,23,0
2,note_on,54,0,57
2,note_on,63,19,0
2,note_on,63,0,120
2,note_on,44,0,0
2,note_on,51,22,0
2,note_on,44,22,0
2,note_on,51,0,63
2,note_on,60,17,0
2,note_on,60,0,120
2,note_on,44,0,0
2,note_on,37,14,0
2,note_on,44,14,0
2,note_on,49,14,0
2,note_on,52,14,0
2,note_on,56,14,0
2,note_on,61,17,0
2,note_on,61,0,666
2,note_on,44,0,0
2,note_on,49,0,0
2,note_on,37,0,0
2,note_on,56,0,0
2,note_on,52,0,0
