Track,Message Type,Note,Velocity,Time
1,note_on,64,33,0
1,note_on,68,39,0
1,note_on,73,26,720
1,note_on,73,0,240
1,note_on,68,0,0
1,note_on,64,0,0
1,note_on,64,29,0
1,note_on,68,34,0
1,note_on,68,0,360
1,note_on,64,0,0
1,note_on,66,34,0
1,note_on,63,28,0
1,note_on,63,0,120
1,note_on,66,0,0
1,note_on,63,34,0
1,note_on,66,41,0
1,note_on,73,26,720
1,note_on,73,0,240
1,note_on,66,0,0
1,note_on,63,0,0
1,note_on,66,37,0
1,note_on,63,31,0
1,note_on,63,0,480
1,note_on,66,0,0
1,note_on,69,41,0
1,note_on,66,34,0
1,note_on,73,28,720
1,note_on,73,0,240
1,note_on,66,0,0
1,note_on,69,0,0
1,note_on,66,28,0
1,note_on,69,33,0
1,note_on,69,0,240
1,note_on,66,0,0
1,note_on,68,30,0
1,note_on,64,25,0
1,note_on,64,0,120
1,note_on,68,0,0
1,note_on,63,23,0
1,note_on,66,28,0
1,note_on,66,0,120
1,note_on,63,0,0
1,note_on,68,39,0
1,note_on,64,33,0
1,note_on,73,28,720
1,note_on,73,0,240
1,note_on,64,0,0
1,note_on,68,0,0
1,note_on,64,29,0
1,note_on,68,34,0
1,note_on,68,0,480
1,note_on,64,0,0
1,note_on,65,34,0
1,note_on,71,41,0
1,note_on,73,34,720
1,note_on,73,0,240
1,note_on,71,0,0
1,note_on,65,0,0
1,note_on,65,28,0
1,note_on,71,33,0
1,note_on,65,0,120
1,note_on,68,28,0
1,note_on,68,0,120
1,note_on,71,0,0
1,note_on,69,30,0
1,note_on,66,25,0
1,note_on,66,0,120
1,note_on,69,0,0
1,note_on,68,28,0
1,note_on,65,23,0
1,note_on,65,0,120
1,note_on,68,0,0
1,note_on,66,34,0
1,note_on,69,41,0
1,note_on,69,0,720
1,note_on,66,0,0
1,note_on,73,34,0
1,note_on,66,23,0
1,note_on,69,28,0
1,note_on,69,0,228
1,note_on,66,0,0
1,note_on,73,0,0
1,note_on,66,34,12
1,note_on,69,40,0
1,note_on,69,0,228
1,note_on,66,0,0
1,note_on,69,41,12
1,note_on,66,34,0
1,note_on,66,0,228
1,note_on,69,0,0
1,note_on,73,49,12
1,note_on,69,41,0
1,note_on,73,38,720
1,note_on,73,0,240
1,note_on,69,0,0
1,note_on,73,0,0
1,note_on,69,33,0
1,note_on,73,39,0
1,note_on,73,0,360
1,note_on,69,0,0
1,note_on,69,28,0
1,note_on,66,23,0
1,note_on,66,0,120
1,note_on,69,0,0
1,note_on,64,30,0
1,note_on,68,37,0
1,note_on,73,28,720
1,note_on,73,0,240
1,note_on,68,0,240
1,note_on,64,0,0
1,note_on,64,34,0
1,note_on,68,41,0
1,note_on,68,0,240
1,note_on,64,0,0
1,note_on,64,42,0
1,note_on,69,42,0
1,note_on,73,50,0
1,note_on,73,0,360
1,note_on,69,0,0
1,note_on,64,0,0
1,note_on,72,44,0
1,note_on,63,37,0
1,note_on,68,37,0
1,note_on,68,0,120
1,note_on,63,0,0
1,note_on,72,0,0
1,note_on,63,42,0
1,note_on,68,42,0
1,note_on,72,49,0
1,note_on,80,43,240
1,note_on,80,0,240
1,note_on,63,0,240
1,note_on,68,0,0
1,note_on,72,0,0
1,note_on,72,55,0
1,note_on,68,45,0
1,note_on,68,0,240
1,note_on,72,0,0
1,note_on,67,51,0
1,note_on,73,51,0
1,note_on,76,60,0
1,note_on,76,0,360
1,note_on,73,0,0
1,note_on,67,0,0
1,note_on,72,45,0
1,note_on,68,45,0
1,note_on,75,53,0
1,note_on,75,0,120
1,note_on,68,0,0
1,note_on,72,0,0
1,note_on,68,50,0
1,note_on,75,60,0
1,note_on,72,50,0
1,note_on,80,53,240
1,note_on,80,0,240
1,note_on,68,0,240
1,note_on,75,0,0
1,note_on,72,0,0
1,note_on,68,52,0
1,note_on,72,52,0
1,note_on,75,63,0
1,note_on,75,0,240
1,note_on,72,0,0
1,note_on,68,0,0
1,note_on,80,69,0
1,note_on,68,58,0
1,note_on,76,58,0
1,note_on,76,0,360
1,note_on,68,0,0
1,note_on,80,0,0
1,note_on,69,52,0
1,note_on,75,52,0
1,note_on,78,61,0
1,note_on,78,0,120
1,note_on,75,0,0
1,note_on,69,0,0
1,note_on,78,69,0
1,note_on,75,58,0
1,note_on,69,58,0
1,note_on,80,61,240
1,note_on,80,0,240
1,note_on,78,0,240
1,note_on,75,0,0
1,note_on,69,0,0
1,note_on,69,60,0
1,note_on,78,73,0
1,note_on,75,60,0
1,note_on,75,0,240
1,note_on,78,0,0
1,note_on,69,0,0
1,note_on,73,68,0
1,note_on,76,68,0
1,note_on,81,80,0
1,note_on,81,0,360
1,note_on,76,0,0
1,note_on,73,0,0
1,note_on,80,68,0
1,note_on,75,58,0
1,note_on,72,58,0
1,note_on,72,0,120
1,note_on,75,0,0
1,note_on,80,0,0
1,note_on,72,65,0
1,note_on,75,65,0
1,note_on,80,77,0
1,note_on,80,0,2400
1,note_on,75,0,0
1,note_on,72,0,0
1,note_on,76,34,0
1,note_on,80,41,0
1,note_on,71,34,0
1,note_on,68,34,0
1,note_on,88,35,720
1,note_on,88,0,240
1,note_on,71,0,240
1,note_on,76,0,0
1,note_on,80,0,0
1,note_on,68,0,0
1,note_on,76,37,0
1,note_on,71,30,0
1,note_on,64,30,0
1,note_on,64,0,240
1,note_on,71,0,0
1,note_on,76,0,0
1,note_on,64,34,0
1,note_on,69,34,0
1,note_on,75,41,0
1,note_on,75,0,360
1,note_on,73,41,0
1,note_on,73,0,120
1,note_on,69,0,0
1,note_on,64,0,0
1,note_on,69,34,0
1,note_on,64,34,0
1,note_on,73,41,0
1,note_on,85,34,240
1,note_on,85,0,240
1,note_on,69,0,240
1,note_on,64,0,0
1,note_on,73,0,0
1,note_on,73,37,0
1,note_on,69,30,0
1,note_on,64,30,0
1,note_on,64,0,240
1,note_on,69,0,0
1,note_on,73,0,0
1,note_on,64,34,0
1,note_on,66,34,0
1,note_on,73,41,0
1,note_on,73,0,360
1,note_on,64,0,0
1,note_on,71,41,0
1,note_on,63,38,0
1,note_on,63,0,120
1,note_on,71,0,0
1,note_on,66,0,0
1,note_on,63,34,0
1,note_on,66,34,0
1,note_on,71,41,0
1,note_on,83,30,240
1,note_on,83,0,240
1,note_on,63,0,240
1,note_on,66,0,0
1,note_on,71,0,0
1,note_on,69,34,0
1,note_on,64,28,0
1,note_on,61,28,0
1,note_on,61,0,240
1,note_on,64,0,0
1,note_on,69,0,0
1,note_on,59,28,0
1,note_on,64,28,0
1,note_on,68,34,0
1,note_on,68,0,480
1,note_on,64,0,0
1,note_on,59,0,0
1,note_on,59,25,0
1,note_on,56,25,0
1,note_on,64,30,0
1,note_on,76,27,240
1,note_on,76,0,240
1,note_on,59,0,480
1,note_on,56,0,0
1,note_on,64,0,0
1,note_on,68,39,0
1,note_on,64,33,0
1,note_on,71,27,720
1,note_on,71,0,240
1,note_on,64,0,0
1,note_on,68,0,0
1,note_on,64,29,0
1,note_on,68,34,0
1,note_on,68,0,360
1,note_on,64,0,0
1,note_on,63,28,0
1,note_on,66,34,0
1,note_on,66,0,120
1,note_on,63,0,0
1,note_on,66,41,0
1,note_on,63,34,0
1,note_on,71,27,720
1,note_on,71,0,240
1,note_on,63,0,0
1,note_on,66,0,0
1,note_on,63,31,0
1,note_on,66,37,0
1,note_on,66,0,480
1,note_on,63,0,0
1,note_on,61,34,0
1,note_on,69,41,0
1,note_on,71,27,720
1,note_on,71,0,240
1,note_on,69,0,0
1,note_on,61,0,0
1,note_on,63,28,0
1,note_on,69,33,0
1,note_on,63,0,120
1,note_on,66,24,0
1,note_on,66,0,120
1,note_on,69,0,0
1,note_on,68,30,0
1,note_on,64,25,0
1,note_on,64,0,120
1,note_on,68,0,0
1,note_on,63,23,0
1,note_on,66,28,0
1,note_on,66,0,120
1,note_on,63,0,0
1,note_on,68,39,0
1,note_on,64,33,0
1,note_on,71,26,720
1,note_on,71,0,240
1,note_on,64,0,0
1,note_on,68,0,0
1,note_on,64,32,0
1,note_on,68,38,0
1,note_on,68,0,480
1,note_on,64,0,0
1,note_on,62,42,0
1,note_on,71,50,0
1,note_on,68,42,0
1,note_on,76,42,720
1,note_on,76,0,240
1,note_on,62,0,0
1,note_on,71,0,0
1,note_on,68,0,0
1,note_on,62,33,0
1,note_on,68,33,0
1,note_on,71,39,0
1,note_on,71,0,360
1,note_on,68,0,0
1,note_on,62,0,0
1,note_on,61,28,0
1,note_on,69,35,0
1,note_on,69,0,120
1,note_on,61,0,0
1,note_on,69,50,0
1,note_on,61,42,0
1,note_on,61,0,720
1,note_on,69,0,0
1,note_on,61,28,0
1,note_on,69,35,0
1,note_on,76,42,0
1,note_on,76,0,240
1,note_on,69,0,0
1,note_on,61,0,0
1,note_on,69,49,0
1,note_on,61,41,0
1,note_on,61,0,240
1,note_on,69,0,0
1,note_on,61,41,0
1,note_on,69,50,0
1,note_on,69,0,240
1,note_on,61,0,0
1,note_on,73,59,0
1,note_on,69,50,0
1,note_on,63,50,0
1,note_on,76,43,720
1,note_on,76,0,240
1,note_on,73,0,0
1,note_on,69,0,0
1,note_on,63,0,0
1,note_on,63,36,0
1,note_on,69,36,0
1,note_on,73,44,0
1,note_on,73,0,360
1,note_on,69,0,0
1,note_on,63,0,0
1,note_on,68,28,0
1,note_on,64,28,0
1,note_on,71,34,0
1,note_on,71,0,114
1,note_on,64,0,0
1,note_on,68,0,0
1,note_on,68,41,6
1,note_on,71,49,0
1,note_on,64,41,0
1,note_on,76,34,720
1,note_on,76,0,240
1,note_on,68,0,240
1,note_on,71,0,0
1,note_on,64,0,0
1,note_on,68,42,0
1,note_on,64,42,0
1,note_on,71,51,0
1,note_on,71,0,240
1,note_on,64,0,0
1,note_on,68,0,0
1,note_on,76,61,0
1,note_on,68,52,0
1,note_on,71,52,0
1,note_on,71,0,360
1,note_on,68,0,0
1,note_on,76,0,0
1,note_on,66,46,0
1,note_on,71,46,0
1,note_on,75,54,0
1,note_on,75,0,120
1,note_on,71,0,0
1,note_on,66,0,0
1,note_on,75,61,0
1,note_on,71,51,0
1,note_on,66,51,0
1,note_on,83,53,240
1,note_on,83,0,240
1,note_on,75,0,240
1,note_on,71,0,0
1,note_on,66,0,0
1,note_on,66,54,0
1,note_on,75,66,0
1,note_on,71,54,0
1,note_on,71,0,240
1,note_on,75,0,0
1,note_on,66,0,0
1,note_on,71,60,0
1,note_on,76,60,0
1,note_on,80,71,0
1,note_on,80,0,360
1,note_on,76,0,0
1,note_on,78,63,0
1,note_on,75,54,0
1,note_on,75,0,114
1,note_on,78,0,0
1,note_on,71,0,6
1,note_on,75,60,0
1,note_on,71,60,0
1,note_on,78,71,0
1,note_on,83,62,240
1,note_on,83,0,240
1,note_on,75,0,240
1,note_on,71,0,0
1,note_on,78,0,0
1,note_on,80,74,0
1,note_on,71,61,0
1,note_on,76,61,0
1,note_on,76,0,240
1,note_on,71,0,0
1,note_on,80,0,0
1,note_on,76,68,0
1,note_on,80,68,0
1,note_on,85,80,0
1,note_on,85,0,360
1,note_on,80,0,0
1,note_on,76,0,0
1,note_on,83,70,0
1,note_on,78,60,0
1,note_on,75,60,0
1,note_on,75,0,114
1,note_on,78,0,0
1,note_on,83,0,0
1,note_on,75,67,6
1,note_on,78,67,0
1,note_on,83,79,0
1,note_on,71,59,240
1,note_on,71,0,240
1,note_on,71,37,1200
1,note_on,71,0,240
1,note_on,83,0,240
1,note_on,81,41,0
1,note_on,81,0,240
1,note_on,78,0,0
1,note_on,75,0,0
1,note_on,68,34,0
1,note_on,80,41,0
1,note_on,76,34,0
1,note_on,73,32,720
1,note_on,73,0,240
1,note_on,68,0,240
1,note_on,80,0,0
1,note_on,76,0,0
1,note_on,64,30,0
1,note_on,68,30,0
1,note_on,76,37,0
1,note_on,76,0,240
1,note_on,68,0,0
1,note_on,64,0,0
1,note_on,75,41,0
1,note_on,66,34,0
1,note_on,69,34,0
1,note_on,75,0,360
1,note_on,73,41,0
1,note_on,73,0,120
1,note_on,69,0,0
1,note_on,66,0,0
1,note_on,66,34,0
1,note_on,73,41,0
1,note_on,69,34,0
1,note_on,81,30,240
1,note_on,81,0,240
1,note_on,66,0,240
1,note_on,73,0,0
1,note_on,69,0,0
1,note_on,63,30,0
1,note_on,69,30,0
1,note_on,73,37,0
1,note_on,73,0,240
1,note_on,69,0,0
1,note_on,63,0,0
1,note_on,73,41,0
1,note_on,64,34,0
1,note_on,68,34,0
1,note_on,73,0,480
1,note_on,71,41,0
1,note_on,80,32,240
1,note_on,80,0,240
1,note_on,64,0,0
1,note_on,60,27,0
1,note_on,71,0,240
1,note_on,68,0,0
1,note_on,66,28,0
1,note_on,69,34,0
1,note_on,69,0,240
1,note_on,66,0,0
1,note_on,60,0,0
1,note_on,61,28,0
1,note_on,64,28,0
1,note_on,68,34,0
1,note_on,68,0,480
1,note_on,64,0,0
1,note_on,61,0,0
1,note_on,64,30,0
1,note_on,56,25,0
1,note_on,61,25,0
1,note_on,73,27,240
1,note_on,73,0,240
1,note_on,64,0,240
1,note_on,56,0,0
1,note_on,61,0,0
1,note_on,56,25,0
1,note_on,64,30,0
1,note_on,61,25,0
1,note_on,61,0,240
1,note_on,64,0,0
1,note_on,56,0,0
1,note_on,61,28,0
1,note_on,55,28,0
1,note_on,64,34,0
1,note_on,64,0,360
1,note_on,63,34,0
1,note_on,63,0,120
1,note_on,55,0,0
1,note_on,61,0,0
1,note_on,61,25,0
1,note_on,63,30,0
1,note_on,55,25,0
1,note_on,69,29,0
1,note_on,69,0,240
1,note_on,81,27,0
1,note_on,81,0,240
1,note_on,55,0,240
1,note_on,63,0,0
1,note_on,61,0,0
1,note_on,63,33,0
1,note_on,61,28,0
1,note_on,55,28,0
1,note_on,55,0,240
1,note_on,61,0,0
1,note_on,63,0,0
1,note_on,54,31,0
1,note_on,61,31,0
1,note_on,64,37,0
1,note_on,64,0,360
1,note_on,63,34,0
1,note_on,63,0,120
1,note_on,61,0,0
1,note_on,54,0,0
1,note_on,54,25,0
1,note_on,63,30,0
1,note_on,61,25,0
1,note_on,69,29,0
1,note_on,69,0,240
1,note_on,81,27,0
1,note_on,81,0,240
1,note_on,61,0,240
1,note_on,63,0,0
1,note_on,54,0,0
1,note_on,63,30,0
1,note_on,61,25,0
1,note_on,54,25,0
1,note_on,54,0,240
1,note_on,61,0,0
1,note_on,63,0,0
1,note_on,54,28,0
1,note_on,60,28,0
1,note_on,63,34,0
1,note_on,68,29,480
1,note_on,68,0,240
1,note_on,54,0,0
1,note_on,60,0,0
1,note_on,63,0,0
1,note_on,64,29,0
1,note_on,80,29,0
1,note_on,64,0,120
1,note_on,66,29,0
1,note_on,66,0,120
1,note_on,80,0,0
1,note_on,68,29,0
1,note_on,68,0,240
1,note_on,63,30,0
1,note_on,60,25,0
1,note_on,57,25,0
1,note_on,57,0,240
1,note_on,60,0,0
1,note_on,63,0,0
1,note_on,56,28,0
1,note_on,61,28,0
1,note_on,64,34,0
1,note_on,73,28,720
1,note_on,73,0,240
1,note_on,56,0,240
1,note_on,61,0,0
1,note_on,64,0,0
1,note_on,56,25,0
1,note_on,61,25,0
1,note_on,64,30,0
1,note_on,64,0,240
1,note_on,61,0,0
1,note_on,56,0,0
1,note_on,64,30,0
1,note_on,61,25,0
1,note_on,55,25,0
1,note_on,64,0,360
1,note_on,63,30,0
1,note_on,63,0,120
1,note_on,55,0,0
1,note_on,61,0,0
1,note_on,55,22,0
1,note_on,61,22,0
1,note_on,63,27,0
1,note_on,69,26,240
1,note_on,69,0,240
1,note_on,55,0,240
1,note_on,61,0,0
1,note_on,63,0,0
1,note_on,55,25,0
1,note_on,61,25,0
1,note_on,63,29,0
1,note_on,63,0,240
1,note_on,61,0,0
1,note_on,55,0,0
1,note_on,64,33,0
1,note_on,61,27,0
1,note_on,54,27,0
1,note_on,64,0,360
1,note_on,63,30,0
1,note_on,63,0,120
1,note_on,54,0,0
1,note_on,61,0,0
1,note_on,54,22,0
1,note_on,61,22,0
1,note_on,63,27,0
1,note_on,69,26,240
1,note_on,69,0,240
1,note_on,54,0,240
1,note_on,61,0,0
1,note_on,63,0,0
1,note_on,54,22,0
1,note_on,61,22,0
1,note_on,63,27,0
1,note_on,63,0,240
1,note_on,61,0,0
1,note_on,54,0,0
1,note_on,63,25,0
1,note_on,60,20,0
1,note_on,54,20,0
1,note_on,54,0,720
1,note_on,60,0,0
1,note_on,63,0,0
1,note_on,64,21,0
1,note_on,64,0,120
1,note_on,66,21,0
1,note_on,66,0,120
1,note_on,68,21,0
1,note_on,68,0,240
1,note_on,60,22,0
1,note_on,54,18,0
1,note_on,57,18,0
1,note_on,57,0,240
1,note_on,54,0,0
1,note_on,60,0,0
1,note_on,73,26,720
1,note_on,73,0,240
1,note_on,73,26,1200
1,note_on,73,0,240
1,note_on,49,38,480
1,note_on,52,38,0
1,note_on,57,45,0
1,note_on,57,0,480
1,note_on,52,0,0
1,note_on,49,0,0
1,note_on,49,38,0
1,note_on,57,46,0
1,note_on,57,0,480
1,note_on,49,0,0
1,note_on,50,38,0
1,note_on,57,38,0
1,note_on,59,45,0
1,note_on,59,0,480
1,note_on,57,0,0
1,note_on,50,0,0
1,note_on,52,38,0
1,note_on,61,46,0
1,note_on,57,38,0
1,note_on,57,0,360
1,note_on,50,36,0
1,note_on,57,36,0
1,note_on,59,42,0
1,note_on,61,0,10
1,note_on,52,0,0
1,note_on,57,0,110
1,note_on,49,36,0
1,note_on,57,42,0
1,note_on,50,0,10
1,note_on,59,0,0
1,note_on,49,0,710
1,note_on,57,0,0
1,note_on,52,38,0
1,note_on,57,38,0
1,note_on,61,46,0
1,note_on,61,0,240
1,note_on,57,0,0
1,note_on,52,0,0
1,note_on,54,40,0
1,note_on,57,40,0
1,note_on,62,48,0
1,note_on,57,0,360
1,note_on,52,38,0
1,note_on,57,38,0
1,note_on,61,45,0
1,note_on,62,0,10
1,note_on,54,0,0
1,note_on,57,0,110
1,note_on,50,39,0
1,note_on,57,39,0
1,note_on,59,47,0
1,note_on,52,0,10
1,note_on,61,0,0
1,note_on,57,0,230
1,note_on,50,0,0
1,note_on,59,0,0
1,note_on,54,38,0
1,note_on,57,38,0
1,note_on,62,45,0
1,note_on,62,0,240
1,note_on,57,0,0
1,note_on,54,0,0
1,note_on,52,38,0
1,note_on,57,38,0
1,note_on,61,45,0
1,note_on,61,0,240
1,note_on,57,0,0
1,note_on,52,0,0
1,note_on,49,38,0
1,note_on,52,38,0
1,note_on,57,45,0
1,note_on,57,0,240
1,note_on,52,0,0
1,note_on,49,0,0
1,note_on,47,39,0
1,note_on,52,39,0
1,note_on,56,47,0
1,note_on,56,0,720
1,note_on,52,0,0
1,note_on,47,0,0
1,note_on,47,38,0
1,note_on,54,38,0
1,note_on,56,46,0
1,note_on,56,0,240
1,note_on,54,0,0
1,note_on,47,0,0
1,note_on,49,41,0
1,note_on,52,41,0
1,note_on,56,49,0
1,note_on,56,0,240
1,note_on,52,0,0
1,note_on,49,0,0
1,note_on,50,41,0
1,note_on,52,41,0
1,note_on,56,49,0
1,note_on,56,0,240
1,note_on,52,0,0
1,note_on,50,0,0
1,note_on,49,38,0
1,note_on,52,38,0
1,note_on,57,45,0
1,note_on,57,0,480
1,note_on,52,0,0
1,note_on,49,0,0
1,note_on,49,38,0
1,note_on,57,46,0
1,note_on,57,0,480
1,note_on,49,0,0
1,note_on,50,38,0
1,note_on,57,38,0
1,note_on,59,45,0
1,note_on,59,0,480
1,note_on,57,0,0
1,note_on,50,0,0
1,note_on,52,38,0
1,note_on,61,46,0
1,note_on,57,38,0
1,note_on,57,0,360
1,note_on,50,36,0
1,note_on,57,36,0
1,note_on,59,42,0
1,note_on,61,0,10
1,note_on,52,0,0
1,note_on,57,0,110
1,note_on,49,32,0
1,note_on,57,37,0
1,note_on,50,0,10
1,note_on,59,0,0
1,note_on,49,0,710
1,note_on,57,0,0
1,note_on,54,41,0
1,note_on,52,41,0
1,note_on,58,41,0
1,note_on,61,50,0
1,note_on,61,0,240
1,note_on,54,0,0
1,note_on,52,0,0
1,note_on,58,0,0
1,note_on,50,45,0
1,note_on,54,45,0
1,note_on,59,45,0
1,note_on,62,53,0
1,note_on,54,0,360
1,note_on,54,38,0
1,note_on,52,38,0
1,note_on,58,38,0
1,note_on,61,44,0
1,note_on,50,0,10
1,note_on,62,0,0
1,note_on,59,0,0
1,note_on,58,0,110
1,note_on,50,39,0
1,note_on,57,39,0
1,note_on,59,47,0
1,note_on,54,0,10
1,note_on,61,0,0
1,note_on,52,0,0
1,note_on,50,0,230
1,note_on,57,0,0
1,note_on,59,0,0
1,note_on,50,41,0
1,note_on,54,41,0
1,note_on,62,49,0
1,note_on,54,0,120
1,note_on,56,40,0
1,note_on,56,0,120
1,note_on,62,0,0
1,note_on,50,0,0
1,note_on,52,39,0
1,note_on,57,39,0
1,note_on,61,46,0
1,note_on,61,0,240
1,note_on,57,0,0
1,note_on,52,0,0
1,note_on,50,38,0
1,note_on,52,38,0
1,note_on,56,38,0
1,note_on,59,45,0
1,note_on,59,0,240
1,note_on,50,0,0
1,note_on,52,0,0
1,note_on,56,0,0
1,note_on,50,39,0
1,note_on,52,39,0
1,note_on,56,39,0
1,note_on,59,47,0
1,note_on,59,0,480
1,note_on,56,0,0
1,note_on,50,0,0
1,note_on,49,39,0
1,note_on,57,47,0
1,note_on,52,0,240
1,note_on,57,0,240
1,note_on,49,0,0
1,note_on,69,62,480
1,note_on,64,31,80
1,note_on,64,0,80
1,note_on,61,31,0
1,note_on,61,0,80
1,note_on,64,31,0
1,note_on,64,0,80
1,note_on,61,31,0
1,note_on,61,0,80
1,note_on,57,31,0
1,note_on,57,0,80
1,note_on,69,0,0
1,note_on,69,63,0
1,note_on,64,31,80
1,note_on,64,0,80
1,note_on,61,31,0
1,note_on,61,0,80
1,note_on,64,31,0
1,note_on,64,0,80
1,note_on,61,31,0
1,note_on,61,0,80
1,note_on,57,31,0
1,note_on,57,0,80
1,note_on,69,0,0
1,note_on,71,62,0
1,note_on,68,31,80
1,note_on,68,0,80
1,note_on,64,32,0
1,note_on,64,0,80
1,note_on,68,32,0
1,note_on,68,0,80
1,note_on,64,32,0
1,note_on,64,0,80
1,note_on,59,32,0
1,note_on,59,0,80
1,note_on,71,0,0
1,note_on,73,63,0
1,note_on,69,32,80
1,note_on,69,0,80
1,note_on,64,32,0
1,note_on,64,0,80
1,note_on,69,32,0
1,note_on,69,0,80
1,note_on,64,32,0
1,note_on,64,0,80
1,note_on,62,32,0
1,note_on,73,0,20
1,note_on,71,59,0
1,note_on,71,0,60
1,note_on,62,0,0
1,note_on,69,59,0
1,note_on,64,31,80
1,note_on,64,0,80
1,note_on,61,31,0
1,note_on,61,0,80
1,note_on,64,31,0
1,note_on,64,0,80
1,note_on,61,31,0
1,note_on,61,0,80
1,note_on,57,31,0
1,note_on,57,0,80
1,note_on,61,32,80
1,note_on,61,0,80
1,note_on,64,32,0
1,note_on,64,0,80
1,note_on,69,0,0
1,note_on,61,32,0
1,note_on,73,63,0
1,note_on,61,0,80
1,note_on,64,32,0
1,note_on,64,0,80
1,note_on,69,32,0
1,note_on,69,0,80
1,note_on,73,0,0
1,note_on,74,67,0
1,note_on,69,34,80
1,note_on,69,0,80
1,note_on,66,34,0
1,note_on,66,0,80
1,note_on,69,34,0
1,note_on,69,0,80
1,note_on,66,34,0
1,note_on,66,0,80
1,note_on,64,32,0
1,note_on,74,0,20
1,note_on,73,62,0
1,note_on,73,0,60
1,note_on,64,0,0
1,note_on,71,66,0
1,note_on,62,32,80
1,note_on,62,0,80
1,note_on,69,32,0
1,note_on,69,0,80
1,note_on,71,0,0
1,note_on,74,62,0
1,note_on,66,30,80
1,note_on,66,0,80
1,note_on,69,30,0
1,note_on,69,0,80
1,note_on,74,0,0
1,note_on,73,62,0
1,note_on,69,32,80
1,note_on,69,0,80
1,note_on,64,32,0
1,note_on,64,0,80
1,note_on,73,0,0
1,note_on,69,62,0
1,note_on,64,32,80
1,note_on,64,0,80
1,note_on,61,32,0
1,note_on,61,0,80
1,note_on,69,0,0
1,note_on,68,66,0
1,note_on,64,31,80
1,note_on,64,0,80
1,note_on,59,31,0
1,note_on,59,0,80
1,note_on,64,31,0
1,note_on,64,0,80
1,note_on,59,31,0
1,note_on,59,0,80
1,note_on,56,31,0
1,note_on,56,0,80
1,note_on,64,31,0
1,note_on,64,0,80
1,note_on,59,31,0
1,note_on,59,0,80
1,note_on,56,31,0
1,note_on,56,0,80
1,note_on,68,0,0
1,note_on,68,63,0
1,note_on,66,32,80
1,note_on,66,0,80
1,note_on,59,32,0
1,note_on,59,0,80
1,note_on,68,0,0
1,note_on,68,68,0
1,note_on,64,34,80
1,note_on,64,0,80
1,note_on,61,34,0
1,note_on,61,0,80
1,note_on,68,0,0
1,note_on,68,68,0
1,note_on,64,32,80
1,note_on,64,0,80
1,note_on,62,32,0
1,note_on,62,0,80
1,note_on,68,0,0
1,note_on,69,62,0
1,note_on,64,31,80
1,note_on,64,0,80
1,note_on,61,31,0
1,note_on,61,0,80
1,note_on,64,31,0
1,note_on,64,0,80
1,note_on,61,31,0
1,note_on,61,0,80
1,note_on,57,31,0
1,note_on,57,0,80
1,note_on,69,0,0
1,note_on,69,63,0
1,note_on,64,31,80
1,note_on,64,0,80
1,note_on,61,31,0
1,note_on,61,0,80
1,note_on,64,31,0
1,note_on,64,0,80
1,note_on,61,31,0
1,note_on,61,0,80
1,note_on,57,31,0
1,note_on,57,0,80
1,note_on,69,0,0
1,note_on,71,62,0
1,note_on,68,31,80
1,note_on,68,0,80
1,note_on,64,32,0
1,note_on,64,0,80
1,note_on,68,32,0
1,note_on,68,0,80
1,note_on,64,32,0
1,note_on,64,0,80
1,note_on,59,32,0
1,note_on,59,0,80
1,note_on,71,0,0
1,note_on,73,63,0
1,note_on,69,32,80
1,note_on,69,0,80
1,note_on,64,32,0
1,note_on,64,0,80
1,note_on,69,32,0
1,note_on,69,0,80
1,note_on,64,32,0
1,note_on,64,0,80
1,note_on,62,32,0
1,note_on,73,0,20
1,note_on,71,59,0
1,note_on,71,0,60
1,note_on,62,0,0
1,note_on,69,59,0
1,note_on,64,31,80
1,note_on,64,0,80
1,note_on,61,31,0
1,note_on,61,0,80
1,note_on,64,31,0
1,note_on,64,0,80
1,note_on,61,31,0
1,note_on,61,0,80
1,note_on,57,31,0
1,note_on,57,0,80
1,note_on,61,32,80
1,note_on,61,0,80
1,note_on,64,32,0
1,note_on,64,0,80
1,note_on,69,0,0
1,note_on,70,32,0
1,note_on,73,63,0
1,note_on,70,0,80
1,note_on,66,32,0
1,note_on,66,0,80
1,note_on,64,32,0
1,note_on,64,0,80
1,note_on,73,0,0
1,note_on,74,67,0
1,note_on,71,34,80
1,note_on,71,0,80
1,note_on,66,34,0
1,note_on,66,0,80
1,note_on,71,34,0
1,note_on,71,0,80
1,note_on,66,34,0
1,note_on,66,0,80
1,note_on,64,32,0
1,note_on,74,0,20
1,note_on,73,62,0
1,note_on,73,0,60
1,note_on,64,0,0
1,note_on,71,66,0
1,note_on,62,32,80
1,note_on,62,0,80
1,note_on,66,32,0
1,note_on,66,0,80
1,note_on,71,0,0
1,note_on,74,62,0
1,note_on,66,30,80
1,note_on,66,0,80
1,note_on,68,30,0
1,note_on,68,0,80
1,note_on,74,0,0
1,note_on,73,62,0
1,note_on,69,32,80
1,note_on,69,0,80
1,note_on,64,32,0
1,note_on,64,0,80
1,note_on,73,0,0
1,note_on,71,62,0
1,note_on,64,32,80
1,note_on,64,0,80
1,note_on,62,32,20
1,note_on,71,0,60
1,note_on,71,66,0
1,note_on,62,0,20
1,note_on,68,31,60
1,note_on,68,0,80
1,note_on,64,31,0
1,note_on,64,0,80
1,note_on,68,31,0
1,note_on,68,0,80
1,note_on,64,31,0
1,note_on,64,0,80
1,note_on,62,31,0
1,note_on,62,0,80
1,note_on,71,0,0
1,note_on,69,66,0
1,note_on,61,31,0
1,note_on,61,0,240
1,note_on,69,0,0
1,note_on,56,38,720
1,note_on,59,45,0
1,note_on,59,0,480
1,note_on,56,0,0
1,note_on,56,38,0
1,note_on,59,46,0
1,note_on,59,0,480
1,note_on,56,0,0
1,note_on,52,38,0
1,note_on,58,38,0
1,note_on,61,45,0
1,note_on,61,0,480
1,note_on,58,0,0
1,note_on,52,0,0
1,note_on,54,38,0
1,note_on,62,46,0
1,note_on,59,38,0
1,note_on,61,36,360
1,note_on,64,42,0
1,note_on,59,0,10
1,note_on,62,0,0
1,note_on,62,36,110
1,note_on,66,42,0
1,note_on,64,0,10
1,note_on,61,0,0
1,note_on,54,0,470
1,note_on,54,38,0
1,note_on,54,0,240
1,note_on,66,0,0
1,note_on,62,0,0
1,note_on,56,45,0
1,note_on,62,45,0
1,note_on,66,54,0
1,note_on,66,0,240
1,note_on,62,0,0
1,note_on,56,0,0
1,note_on,57,49,0
1,note_on,62,49,0
1,note_on,66,58,0
1,note_on,66,0,360
1,note_on,62,0,0
1,note_on,57,0,0
1,note_on,59,48,0
1,note_on,62,48,0
1,note_on,67,58,0
1,note_on,67,0,120
1,note_on,62,0,0
1,note_on,59,0,0
1,note_on,57,50,0
1,note_on,62,50,0
1,note_on,69,60,0
1,note_on,69,0,240
1,note_on,62,0,0
1,note_on,57,0,0
1,note_on,59,48,0
1,note_on,62,48,0
1,note_on,67,57,0
1,note_on,67,0,240
1,note_on,62,0,0
1,note_on,59,0,0
1,note_on,57,46,0
1,note_on,62,46,0
1,note_on,66,55,0
1,note_on,66,0,240
1,note_on,62,0,0
1,note_on,57,0,0
1,note_on,55,44,0
1,note_on,57,44,0
1,note_on,61,44,0
1,note_on,64,51,0
1,note_on,64,0,240
1,note_on,55,0,0
1,note_on,57,0,0
1,note_on,61,0,0
1,note_on,55,39,0
1,note_on,57,39,0
1,note_on,61,39,0
1,note_on,64,47,0
1,note_on,64,0,480
1,note_on,55,0,0
1,note_on,57,0,0
1,note_on,61,0,0
1,note_on,54,39,0
1,note_on,57,39,0
1,note_on,62,47,0
1,note_on,62,0,960
1,note_on,57,0,0
1,note_on,54,0,0
1,note_on,53,28,0
1,note_on,58,34,0
1,note_on,58,0,480
1,note_on,53,0,0
1,note_on,53,28,0
1,note_on,58,34,0
1,note_on,58,0,480
1,note_on,53,0,0
1,note_on,53,28,0
1,note_on,58,34,0
1,note_on,58,0,480
1,note_on,53,0,0
1,note_on,58,34,0
1,note_on,55,28,0
1,note_on,55,0,360
1,note_on,58,0,0
1,note_on,57,27,0
1,note_on,58,27,30
1,note_on,57,0,10
1,note_on,60,27,20
1,note_on,58,0,10
1,note_on,58,27,20
1,note_on,60,0,10
1,note_on,55,31,20
1,note_on,58,0,10
1,note_on,55,0,230
1,note_on,55,28,0
1,note_on,63,28,0
1,note_on,67,34,0
1,note_on,67,0,240
1,note_on,63,0,0
1,note_on,55,0,0
1,note_on,55,28,0
1,note_on,59,28,0
1,note_on,65,34,0
1,note_on,65,0,240
1,note_on,59,0,0
1,note_on,55,0,0
1,note_on,55,23,0
1,note_on,60,23,0
1,note_on,63,34,0
1,note_on,63,0,240
1,note_on,60,0,0
1,note_on,55,0,0
1,note_on,53,30,0
1,note_on,58,30,0
1,note_on,62,37,0
1,note_on,62,0,960
1,note_on,58,0,0
1,note_on,53,0,0
1,note_on,51,30,0
1,note_on,57,30,0
1,note_on,63,36,0
1,note_on,60,34,360
1,note_on,63,0,10
1,note_on,51,0,110
1,note_on,57,0,0
1,note_on,50,29,0
1,note_on,56,29,0
1,note_on,59,35,0
1,note_on,60,0,10
1,note_on,50,0,1430
1,note_on,56,0,0
1,note_on,59,0,0
1,note_on,50,36,0
1,note_on,56,36,0
1,note_on,59,44,0
1,note_on,59,0,720
1,note_on,61,46,0
1,note_on,62,46,120
1,note_on,61,0,10
1,note_on,50,0,110
1,note_on,56,0,0
1,note_on,64,45,0
1,note_on,62,0,10
1,note_on,64,0,230
1,note_on,50,44,0
1,note_on,52,44,0
1,note_on,56,44,0
1,note_on,56,0,240
1,note_on,52,0,0
1,note_on,50,0,0
1,note_on,49,38,0
1,note_on,52,38,0
1,note_on,57,45,0
1,note_on,57,0,480
1,note_on,52,0,0
1,note_on,49,0,0
1,note_on,49,38,0
1,note_on,57,46,0
1,note_on,57,0,480
1,note_on,49,0,0
1,note_on,50,38,0
1,note_on,57,38,0
1,note_on,59,45,0
1,note_on,59,0,480
1,note_on,57,0,0
1,note_on,50,0,0
1,note_on,52,38,0
1,note_on,61,46,0
1,note_on,57,38,0
1,note_on,57,0,360
1,note_on,50,36,0
1,note_on,57,36,0
1,note_on,59,42,0
1,note_on,61,0,10
1,note_on,52,0,0
1,note_on,57,0,110
1,note_on,49,36,0
1,note_on,57,42,0
1,note_on,50,0,10
1,note_on,59,0,0
1,note_on,49,0,710
1,note_on,57,0,0
1,note_on,52,41,0
1,note_on,57,41,0
1,note_on,61,50,0
1,note_on,61,0,240
1,note_on,57,0,0
1,note_on,52,0,0
1,note_on,53,44,0
1,note_on,57,44,0
1,note_on,62,52,0
1,note_on,57,0,360
1,note_on,52,41,0
1,note_on,57,41,0
1,note_on,61,49,0
1,note_on,62,0,10
1,note_on,53,0,0
1,note_on,57,0,110
1,note_on,50,42,0
1,note_on,57,42,0
1,note_on,59,51,0
1,note_on,52,0,10
1,note_on,61,0,0
1,note_on,57,0,230
1,note_on,50,0,0
1,note_on,59,0,0
1,note_on,53,41,0
1,note_on,57,41,0
1,note_on,62,49,0
1,note_on,62,0,240
1,note_on,57,0,0
1,note_on,53,0,0
1,note_on,52,41,0
1,note_on,57,41,0
1,note_on,61,49,0
1,note_on,61,0,240
1,note_on,57,0,0
1,note_on,52,0,0
1,note_on,49,41,0
1,note_on,52,41,0
1,note_on,57,49,0
1,note_on,57,0,240
1,note_on,52,0,0
1,note_on,49,0,0
1,note_on,47,42,0
1,note_on,52,42,0
1,note_on,56,51,0
1,note_on,56,0,720
1,note_on,52,0,0
1,note_on,47,0,0
1,note_on,47,49,0
1,note_on,53,49,0
1,note_on,56,60,0
1,note_on,56,0,240
1,note_on,53,0,0
1,note_on,47,0,0
1,note_on,48,56,0
1,note_on,52,56,0
1,note_on,56,66,0
1,note_on,56,0,240
1,note_on,52,0,0
1,note_on,48,0,0
1,note_on,50,59,0
1,note_on,52,59,0
1,note_on,56,69,0
1,note_on,56,0,240
1,note_on,52,0,0
1,note_on,50,0,0
1,note_on,48,63,0
1,note_on,52,63,0
1,note_on,57,76,0
1,note_on,57,0,480
1,note_on,52,0,0
1,note_on,48,0,0
1,note_on,52,63,0
1,note_on,48,63,0
1,note_on,57,77,0
1,note_on,57,0,480
1,note_on,48,0,0
1,note_on,52,0,0
1,note_on,50,66,0
1,note_on,53,66,0
1,note_on,59,79,0
1,note_on,59,0,480
1,note_on,53,0,0
1,note_on,50,0,0
1,note_on,52,69,0
1,note_on,60,84,0
1,note_on,55,69,0
1,note_on,53,66,360
1,note_on,57,66,0
1,note_on,55,0,10
1,note_on,52,0,0
1,note_on,60,0,110
1,note_on,55,66,0
1,note_on,52,66,0
1,note_on,60,77,0
1,note_on,57,0,10
1,note_on,53,0,0
1,note_on,52,0,710
1,note_on,55,0,0
1,note_on,60,0,0
1,note_on,57,66,0
1,note_on,62,80,0
1,note_on,62,0,240
1,note_on,57,0,0
1,note_on,56,71,0
1,note_on,59,71,0
1,note_on,64,85,0
1,note_on,62,59,360
1,note_on,64,0,10
1,note_on,56,0,110
1,note_on,59,0,0
1,note_on,57,52,0
1,note_on,61,63,0
1,note_on,62,0,10
1,note_on,61,0,230
1,note_on,57,0,0
1,note_on,54,35,0
1,note_on,57,35,0
1,note_on,64,41,0
1,note_on,64,0,120
1,note_on,57,0,0
1,note_on,54,0,0
1,note_on,62,41,0
1,note_on,62,0,120
1,note_on,52,41,0
1,note_on,57,41,0
1,note_on,61,49,0
1,note_on,61,0,240
1,note_on,57,0,0
1,note_on,52,0,0
1,note_on,50,38,0
1,note_on,52,38,0
1,note_on,56,38,0
1,note_on,59,45,0
1,note_on,59,0,240
1,note_on,50,0,0
1,note_on,52,0,0
1,note_on,56,0,0
1,note_on,50,39,0
1,note_on,52,39,0
1,note_on,56,39,0
1,note_on,59,47,0
1,note_on,59,0,480
1,note_on,56,0,0
1,note_on,50,0,0
1,note_on,49,39,0
1,note_on,57,47,0
1,note_on,52,0,240
1,note_on,57,0,240
1,note_on,49,0,0
1,note_on,71,62,480
1,note_on,68,31,80
1,note_on,68,0,80
1,note_on,64,31,0
1,note_on,64,0,80
1,note_on,68,31,0
1,note_on,68,0,80
1,note_on,64,31,0
1,note_on,64,0,80
1,note_on,59,31,0
1,note_on,59,0,80
1,note_on,71,0,0
1,note_on,71,63,0
1,note_on,68,31,80
1,note_on,68,0,80
1,note_on,64,31,0
1,note_on,64,0,80
1,note_on,68,31,0
1,note_on,68,0,80
1,note_on,64,31,0
1,note_on,64,0,80
1,note_on,59,31,0
1,note_on,59,0,80
1,note_on,71,0,0
1,note_on,73,62,0
1,note_on,70,31,80
1,note_on,70,0,80
1,note_on,66,32,0
1,note_on,66,0,80
1,note_on,70,32,0
1,note_on,70,0,80
1,note_on,66,32,0
1,note_on,66,0,80
1,note_on,64,32,0
1,note_on,64,0,80
1,note_on,73,0,0
1,note_on,74,63,0
1,note_on,71,32,80
1,note_on,71,0,80
1,note_on,66,32,0
1,note_on,66,0,80
1,note_on,71,32,0
1,note_on,71,0,80
1,note_on,66,32,0
1,note_on,66,0,80
1,note_on,73,25,0
1,note_on,74,0,20
1,note_on,76,56,0
1,note_on,76,0,60
1,note_on,73,0,0
1,note_on,78,59,0
1,note_on,74,31,80
1,note_on,74,0,80
1,note_on,71,31,0
1,note_on,71,0,80
1,note_on,74,31,0
1,note_on,74,0,80
1,note_on,71,31,0
1,note_on,71,0,80
1,note_on,66,31,0
1,note_on,66,0,80
1,note_on,74,32,80
1,note_on,74,0,80
1,note_on,71,32,0
1,note_on,71,0,80
1,note_on,78,0,0
1,note_on,74,32,0
1,note_on,78,63,0
1,note_on,74,0,80
1,note_on,71,32,0
1,note_on,71,0,80
1,note_on,68,32,0
1,note_on,68,0,80
1,note_on,78,0,0
1,note_on,78,67,0
1,note_on,74,34,80
1,note_on,74,0,80
1,note_on,69,34,0
1,note_on,69,0,80
1,note_on,74,34,0
1,note_on,74,0,80
1,note_on,69,34,0
1,note_on,69,0,80
1,note_on,71,32,0
1,note_on,78,0,20
1,note_on,79,62,0
1,note_on,79,0,60
1,note_on,71,0,0
1,note_on,81,66,0
1,note_on,69,32,80
1,note_on,69,0,80
1,note_on,74,32,0
1,note_on,74,0,80
1,note_on,81,0,0
1,note_on,79,62,0
1,note_on,71,30,80
1,note_on,71,0,80
1,note_on,74,30,0
1,note_on,74,0,80
1,note_on,79,0,0
1,note_on,78,62,0
1,note_on,69,32,80
1,note_on,69,0,80
1,note_on,74,32,0
1,note_on,74,0,80
1,note_on,78,0,0
1,note_on,76,62,0
1,note_on,67,32,80
1,note_on,67,0,80
1,note_on,69,32,0
1,note_on,69,0,80
1,note_on,76,0,0
1,note_on,76,66,0
1,note_on,73,31,80
1,note_on,73,0,80
1,note_on,69,31,0
1,note_on,69,0,80
1,note_on,73,31,0
1,note_on,73,0,80
1,note_on,69,31,0
1,note_on,69,0,80
1,note_on,67,31,0
1,note_on,67,0,80
1,note_on,76,0,0
1,note_on,74,66,0
1,note_on,69,31,80
1,note_on,69,0,80
1,note_on,66,31,0
1,note_on,66,0,80
1,note_on,69,34,0
1,note_on,69,0,80
1,note_on,66,32,0
1,note_on,66,0,80
1,note_on,62,32,0
1,note_on,62,0,80
1,note_on,66,33,80
1,note_on,66,0,80
1,note_on,62,32,0
1,note_on,62,0,80
1,note_on,69,32,0
1,note_on,69,0,80
1,note_on,66,28,0
1,note_on,66,0,80
1,note_on,62,27,0
1,note_on,62,0,80
1,note_on,74,0,0
1,note_on,70,44,0
1,note_on,65,24,80
1,note_on,65,0,80
1,note_on,62,24,0
1,note_on,62,0,80
1,note_on,65,24,0
1,note_on,65,0,80
1,note_on,62,24,0
1,note_on,62,0,80
1,note_on,58,24,0
1,note_on,58,0,80
1,note_on,70,0,0
1,note_on,70,45,0
1,note_on,65,24,80
1,note_on,65,0,80
1,note_on,62,24,0
1,note_on,62,0,80
1,note_on,65,24,0
1,note_on,65,0,80
1,note_on,62,24,0
1,note_on,62,0,80
1,note_on,58,24,0
1,note_on,58,0,80
1,note_on,70,0,0
1,note_on,70,44,0
1,note_on,65,24,80
1,note_on,65,0,80
1,note_on,62,25,0
1,note_on,62,0,80
1,note_on,65,25,0
1,note_on,65,0,80
1,note_on,62,25,0
1,note_on,62,0,80
1,note_on,58,25,0
1,note_on,58,0,80
1,note_on,70,0,0
1,note_on,70,45,0
1,note_on,67,25,80
1,note_on,67,0,80
1,note_on,63,25,0
1,note_on,63,0,80
1,note_on,67,25,0
1,note_on,67,0,80
1,note_on,63,25,0
1,note_on,63,0,80
1,note_on,58,25,0
1,note_on,58,0,80
1,note_on,70,0,0
1,note_on,67,39,0
1,note_on,63,24,80
1,note_on,63,0,80
1,note_on,58,24,0
1,note_on,58,0,80
1,note_on,67,0,0
1,note_on,79,42,0
1,note_on,75,24,80
1,note_on,75,0,80
1,note_on,67,24,0
1,note_on,67,0,80
1,note_on,79,0,0
1,note_on,77,42,0
1,note_on,71,25,80
1,note_on,71,0,80
1,note_on,67,25,0
1,note_on,67,0,80
1,note_on,77,0,0
1,note_on,75,45,0
1,note_on,72,25,80
1,note_on,72,0,80
1,note_on,67,25,0
1,note_on,67,0,80
1,note_on,75,0,0
1,note_on,74,45,0
1,note_on,70,27,80
1,note_on,70,0,80
1,note_on,65,27,0
1,note_on,65,0,80
1,note_on,70,27,0
1,note_on,70,0,80
1,note_on,65,27,0
1,note_on,65,0,80
1,note_on,62,25,0
1,note_on,62,0,80
1,note_on,70,27,80
1,note_on,70,0,80
1,note_on,65,27,0
1,note_on,65,0,80
1,note_on,70,27,0
1,note_on,70,0,80
1,note_on,65,25,0
1,note_on,65,0,80
1,note_on,62,25,0
1,note_on,62,0,80
1,note_on,74,0,0
1,note_on,75,44,0
1,note_on,72,25,80
1,note_on,72,0,80
1,note_on,69,25,0
1,note_on,69,0,80
1,note_on,72,27,0
1,note_on,69,25,80
1,note_on,69,0,80
1,note_on,63,25,0
1,note_on,75,0,20
1,note_on,72,39,0
1,note_on,72,0,60
1,note_on,63,0,0
1,note_on,72,0,0
1,note_on,71,43,0
1,note_on,68,24,80
1,note_on,68,0,80
1,note_on,62,24,0
1,note_on,62,0,80
1,note_on,68,24,0
1,note_on,68,0,80
1,note_on,62,24,0
1,note_on,62,0,80
1,note_on,59,24,0
1,note_on,59,0,80
1,note_on,68,24,80
1,note_on,68,0,80
1,note_on,62,24,0
1,note_on,62,0,80
1,note_on,68,27,0
1,note_on,68,0,80
1,note_on,62,25,0
1,note_on,62,0,80
1,note_on,59,25,0
1,note_on,59,0,80
1,note_on,68,27,80
1,note_on,68,0,80
1,note_on,62,27,0
1,note_on,62,0,80
1,note_on,68,28,0
1,note_on,68,0,80
1,note_on,62,25,0
1,note_on,62,0,80
1,note_on,59,25,0
1,note_on,59,0,80
1,note_on,71,0,0
1,note_on,71,42,0
1,note_on,68,24,80
1,note_on,68,0,80
1,note_on,61,24,0
1,note_on,61,0,80
1,note_on,68,24,0
1,note_on,68,0,80
1,note_on,61,24,0
1,note_on,61,0,80
1,note_on,59,24,0
1,note_on,59,0,80
1,note_on,68,24,80
1,note_on,68,0,80
1,note_on,61,24,0
1,note_on,61,0,80
1,note_on,68,27,0
1,note_on,68,0,80
1,note_on,61,25,0
1,note_on,61,0,80
1,note_on,59,25,0
1,note_on,59,0,80
1,note_on,71,0,0
1,note_on,71,43,0
1,note_on,68,27,80
1,note_on,68,0,80
1,note_on,62,27,0
1,note_on,62,0,80
1,note_on,68,28,0
1,note_on,68,0,80
1,note_on,62,26,0
1,note_on,62,0,80
1,note_on,59,27,0
1,note_on,59,0,80
1,note_on,71,0,0
1,note_on,71,44,0
1,note_on,66,26,80
1,note_on,66,0,80
1,note_on,62,26,0
1,note_on,62,0,80
1,note_on,66,25,0
1,note_on,66,0,80
1,note_on,62,25,0
1,note_on,62,0,80
1,note_on,61,24,0
1,note_on,71,0,20
1,note_on,69,41,0
1,note_on,69,0,50
1,note_on,61,0,10
1,note_on,69,42,0
1,note_on,66,24,80
1,note_on,66,0,80
1,note_on,61,24,0
1,note_on,61,0,80
1,note_on,66,27,0
1,note_on,66,0,80
1,note_on,61,25,0
1,note_on,61,0,80
1,note_on,57,25,0
1,note_on,57,0,80
1,note_on,66,27,80
1,note_on,66,0,80
1,note_on,61,27,0
1,note_on,61,0,80
1,note_on,66,28,0
1,note_on,66,0,80
1,note_on,61,25,0
1,note_on,61,0,80
1,note_on,57,25,0
1,note_on,57,0,80
1,note_on,69,0,0
1,note_on,69,43,0
1,note_on,66,24,80
1,note_on,66,0,80
1,note_on,61,24,0
1,note_on,61,0,80
1,note_on,66,24,0
1,note_on,66,0,80
1,note_on,61,24,0
1,note_on,61,0,80
1,note_on,57,24,0
1,note_on,57,0,80
1,note_on,66,24,80
1,note_on,66,0,80
1,note_on,61,24,0
1,note_on,61,0,80
1,note_on,66,27,0
1,note_on,66,0,80
1,note_on,61,25,0
1,note_on,61,0,80
1,note_on,57,25,0
1,note_on,57,0,80
1,note_on,69,0,0
1,note_on,69,41,0
1,note_on,66,27,80
1,note_on,66,0,80
1,note_on,62,27,0
1,note_on,62,0,80
1,note_on,66,28,0
1,note_on,66,0,80
1,note_on,62,26,0
1,note_on,62,0,80
1,note_on,57,27,0
1,note_on,57,0,80
1,note_on,69,0,0
1,note_on,69,45,0
1,note_on,66,26,80
1,note_on,66,0,80
1,note_on,61,26,0
1,note_on,61,0,80
1,note_on,66,25,0
1,note_on,66,0,80
1,note_on,61,25,0
1,note_on,61,0,80
1,note_on,64,24,0
1,note_on,69,0,20
1,note_on,68,43,0
1,note_on,68,0,53
1,note_on,64,0,7
1,note_on,68,41,0
1,note_on,64,24,80
1,note_on,64,0,80
1,note_on,61,24,0
1,note_on,61,0,80
1,note_on,64,27,0
1,note_on,64,0,80
1,note_on,61,25,0
1,note_on,61,0,80
1,note_on,56,25,0
1,note_on,56,0,80
1,note_on,64,27,80
1,note_on,64,0,80
1,note_on,61,27,0
1,note_on,61,0,80
1,note_on,64,28,0
1,note_on,64,0,80
1,note_on,61,25,0
1,note_on,61,0,80
1,note_on,56,25,0
1,note_on,56,0,80
1,note_on,68,0,0
1,note_on,68,40,0
1,note_on,63,23,80
1,note_on,63,0,80
1,note_on,61,23,0
1,note_on,61,0,80
1,note_on,63,23,0
1,note_on,63,0,80
1,note_on,61,22,0
1,note_on,61,0,80
1,note_on,56,22,0
1,note_on,56,0,80
1,note_on,63,22,80
1,note_on,63,0,80
1,note_on,61,22,0
1,note_on,61,0,80
1,note_on,63,23,0
1,note_on,63,0,80
1,note_on,61,22,0
1,note_on,61,0,80
1,note_on,56,22,0
1,note_on,56,0,80
1,note_on,68,0,0
1,note_on,68,37,0
1,note_on,63,22,80
1,note_on,63,0,80
1,note_on,60,22,0
1,note_on,60,0,80
1,note_on,63,23,0
1,note_on,63,0,80
1,note_on,60,21,0
1,note_on,60,0,80
1,note_on,56,22,0
1,note_on,56,0,80
1,note_on,68,0,0
1,note_on,64,33,1440
1,note_on,68,39,0
1,note_on,73,26,720
1,note_on,73,0,240
1,note_on,68,0,0
1,note_on,64,0,0
1,note_on,64,29,0
1,note_on,68,34,0
1,note_on,68,0,420
1,note_on,64,0,0
1,note_on,63,25,0
1,note_on,66,30,0
1,note_on,66,0,57
1,note_on,63,0,0
1,note_on,63,30,3
1,note_on,66,37,0
1,note_on,73,28,720
1,note_on,73,0,240
1,note_on,66,0,0
1,note_on,63,0,0
1,note_on,63,31,0
1,note_on,66,37,0
1,note_on,66,0,480
1,note_on,63,0,0
1,note_on,66,34,0
1,note_on,69,41,0
1,note_on,73,28,720
1,note_on,73,0,240
1,note_on,69,0,0
1,note_on,66,0,0
1,note_on,66,28,0
1,note_on,69,33,0
1,note_on,69,0,240
1,note_on,66,0,0
1,note_on,64,25,0
1,note_on,68,30,0
1,note_on,68,0,120
1,note_on,64,0,0
1,note_on,63,23,0
1,note_on,66,28,0
1,note_on,66,0,120
1,note_on,63,0,0
1,note_on,64,33,0
1,note_on,68,39,0
1,note_on,73,27,720
1,note_on,73,0,240
1,note_on,68,0,0
1,note_on,64,0,0
1,note_on,64,29,0
1,note_on,68,34,0
1,note_on,68,0,480
1,note_on,64,0,0
1,note_on,65,34,0
1,note_on,71,41,0
1,note_on,73,31,720
1,note_on,73,0,240
1,note_on,71,0,0
1,note_on,65,0,0
1,note_on,65,28,0
1,note_on,71,33,0
1,note_on,65,0,120
1,note_on,68,28,0
1,note_on,68,0,120
1,note_on,71,0,0
1,note_on,66,25,0
1,note_on,69,30,0
1,note_on,69,0,120
1,note_on,66,0,0
1,note_on,65,23,0
1,note_on,68,28,0
1,note_on,68,0,120
1,note_on,65,0,0
1,note_on,66,34,0
1,note_on,69,41,0
1,note_on,69,0,720
1,note_on,66,0,0
1,note_on,66,23,0
1,note_on,69,28,0
1,note_on,73,34,0
1,note_on,73,0,228
1,note_on,69,0,0
1,note_on,66,0,0
1,note_on,66,34,12
1,note_on,69,40,0
1,note_on,69,0,228
1,note_on,66,0,0
1,note_on,66,34,12
1,note_on,69,41,0
1,note_on,69,0,228
1,note_on,66,0,0
1,note_on,69,41,12
1,note_on,73,49,0
1,note_on,73,38,720
1,note_on,73,0,240
1,note_on,73,0,0
1,note_on,69,0,0
1,note_on,69,33,0
1,note_on,73,39,0
1,note_on,73,0,360
1,note_on,69,0,0
1,note_on,66,23,0
1,note_on,69,28,0
1,note_on,69,0,120
1,note_on,66,0,0
1,note_on,64,30,0
1,note_on,68,37,0
1,note_on,73,28,720
1,note_on,73,0,240
1,note_on,68,0,240
1,note_on,64,0,0
1,note_on,64,34,0
1,note_on,68,41,0
1,note_on,68,0,240
1,note_on,64,0,0
1,note_on,64,42,0
1,note_on,69,42,0
1,note_on,73,50,0
1,note_on,73,0,360
1,note_on,69,0,0
1,note_on,64,0,0
1,note_on,63,37,0
1,note_on,68,37,0
1,note_on,72,44,0
1,note_on,72,0,114
1,note_on,68,0,0
1,note_on,63,0,0
1,note_on,63,42,6
1,note_on,68,42,0
1,note_on,72,49,0
1,note_on,80,43,240
1,note_on,80,0,240
1,note_on,63,0,240
1,note_on,68,0,0
1,note_on,72,0,0
1,note_on,68,45,0
1,note_on,72,55,0
1,note_on,72,0,240
1,note_on,68,0,0
1,note_on,67,51,0
1,note_on,73,51,0
1,note_on,76,60,0
1,note_on,76,0,360
1,note_on,73,0,0
1,note_on,67,0,0
1,note_on,68,45,0
1,note_on,72,45,0
1,note_on,75,53,0
1,note_on,75,0,114
1,note_on,72,0,0
1,note_on,68,0,0
1,note_on,68,50,6
1,note_on,72,50,0
1,note_on,75,60,0
1,note_on,80,53,240
1,note_on,80,0,240
1,note_on,68,0,240
1,note_on,72,0,0
1,note_on,75,0,0
1,note_on,68,52,0
1,note_on,72,52,0
1,note_on,75,63,0
1,note_on,75,0,240
1,note_on,72,0,0
1,note_on,68,0,0
1,note_on,68,58,0
1,note_on,76,58,0
1,note_on,80,69,0
1,note_on,80,0,360
1,note_on,76,0,0
1,note_on,68,0,0
1,note_on,69,52,0
1,note_on,75,52,0
1,note_on,78,61,0
1,note_on,78,0,114
1,note_on,75,0,0
1,note_on,69,0,0
1,note_on,69,58,6
1,note_on,75,58,0
1,note_on,78,69,0
1,note_on,80,61,240
1,note_on,80,0,240
1,note_on,69,0,240
1,note_on,75,0,0
1,note_on,78,0,0
1,note_on,69,60,0
1,note_on,75,60,0
1,note_on,78,73,0
1,note_on,78,0,240
1,note_on,75,0,0
1,note_on,69,0,0
1,note_on,73,68,0
1,note_on,76,68,0
1,note_on,81,80,0
1,note_on,81,0,360
1,note_on,76,0,0
1,note_on,73,0,0
1,note_on,72,60,0
1,note_on,75,60,0
1,note_on,80,70,0
1,note_on,80,0,114
1,note_on,75,0,0
1,note_on,72,0,0
1,note_on,72,67,6
1,note_on,75,67,0
1,note_on,80,79,0
1,note_on,80,0,2400
1,note_on,75,0,0
1,note_on,72,0,0
1,note_on,72,34,0
1,note_on,76,34,0
1,note_on,79,41,0
1,note_on,79,0,1200
1,note_on,76,0,0
1,note_on,72,0,0
1,note_on,72,30,0
1,note_on,79,30,0
1,note_on,84,37,0
1,note_on,84,0,240
1,note_on,79,0,0
1,note_on,72,0,0
1,note_on,72,34,0
1,note_on,77,34,0
1,note_on,83,41,0
1,note_on,83,0,360
1,note_on,81,41,0
1,note_on,81,0,114
1,note_on,77,0,6
1,note_on,72,0,0
1,note_on,72,34,0
1,note_on,77,34,0
1,note_on,81,41,0
1,note_on,81,0,720
1,note_on,77,0,0
1,note_on,72,0,0
1,note_on,81,36,0
1,note_on,72,30,0
1,note_on,76,30,0
1,note_on,76,0,240
1,note_on,72,0,0
1,note_on,81,0,0
1,note_on,72,34,0
1,note_on,74,34,0
1,note_on,81,41,0
1,note_on,81,0,360
1,note_on,72,0,0
1,note_on,71,38,0
1,note_on,79,41,0
1,note_on,79,0,114
1,note_on,71,0,0
1,note_on,74,0,6
1,note_on,71,34,0
1,note_on,74,34,0
1,note_on,79,41,0
1,note_on,79,0,720
1,note_on,74,0,0
1,note_on,71,0,0
1,note_on,69,28,0
1,note_on,72,28,0
1,note_on,77,34,0
1,note_on,77,0,240
1,note_on,72,0,0
1,note_on,69,0,0
1,note_on,67,28,0
1,note_on,72,28,0
1,note_on,76,34,0
1,note_on,76,0,480
1,note_on,72,0,0
1,note_on,67,0,0
1,note_on,64,25,0
1,note_on,67,25,0
1,note_on,72,30,0
1,note_on,84,29,240
1,note_on,84,0,120
1,note_on,64,0,600
1,note_on,67,0,0
1,note_on,72,0,0
1,note_on,60,33,0
1,note_on,64,39,0
1,note_on,79,28,720
1,note_on,79,0,120
1,note_on,64,0,120
1,note_on,60,0,0
1,note_on,60,29,0
1,note_on,64,34,0
1,note_on,64,0,360
1,note_on,60,0,0
1,note_on,59,28,0
1,note_on,62,34,0
1,note_on,62,0,114
1,note_on,59,0,0
1,note_on,59,34,6
1,note_on,62,41,0
1,note_on,79,28,720
1,note_on,79,0,120
1,note_on,62,0,120
1,note_on,59,0,0
1,note_on,59,31,0
1,note_on,62,37,0
1,note_on,62,0,480
1,note_on,59,0,0
1,note_on,57,34,0
1,note_on,65,41,0
1,note_on,79,28,720
1,note_on,79,0,120
1,note_on,65,0,120
1,note_on,57,0,0
1,note_on,59,28,0
1,note_on,65,33,0
1,note_on,59,0,120
1,note_on,62,24,0
1,note_on,62,0,120
1,note_on,65,0,0
1,note_on,60,25,0
1,note_on,64,30,0
1,note_on,64,0,120
1,note_on,60,0,0
1,note_on,59,23,0
1,note_on,62,28,0
1,note_on,62,0,120
1,note_on,59,0,0
1,note_on,60,33,0
1,note_on,64,39,0
1,note_on,64,0,720
1,note_on,60,0,0
1,note_on,60,29,0
1,note_on,64,35,0
1,note_on,79,29,0
1,note_on,79,0,120
1,note_on,64,0,0
1,note_on,60,0,0
1,note_on,59,29,120
1,note_on,64,35,0
1,note_on,64,0,120
1,note_on,59,0,0
1,note_on,58,29,120
1,note_on,66,35,0
1,note_on,66,0,120
1,note_on,58,0,0
1,note_on,59,33,120
1,note_on,68,39,0
1,note_on,59,0,240
1,note_on,64,33,0
1,note_on,71,27,480
1,note_on,71,0,120
1,note_on,64,0,120
1,note_on,68,0,0
1,note_on,64,29,0
1,note_on,68,34,0
1,note_on,68,0,360
1,note_on,64,0,0
1,note_on,63,28,0
1,note_on,66,34,0
1,note_on,66,0,114
1,note_on,63,0,0
1,note_on,63,34,6
1,note_on,66,41,0
1,note_on,71,27,720
1,note_on,71,0,120
1,note_on,66,0,120
1,note_on,63,0,0
1,note_on,63,31,0
1,note_on,66,37,0
1,note_on,66,0,480
1,note_on,63,0,0
1,note_on,61,34,0
1,note_on,69,41,0
1,note_on,71,28,720
1,note_on,71,0,120
1,note_on,69,0,120
1,note_on,61,0,0
1,note_on,63,28,0
1,note_on,69,33,0
1,note_on,63,0,120
1,note_on,66,24,0
1,note_on,66,0,120
1,note_on,69,0,0
1,note_on,64,25,0
1,note_on,68,30,0
1,note_on,68,0,120
1,note_on,64,0,0
1,note_on,63,23,0
1,note_on,66,28,0
1,note_on,66,0,120
1,note_on,63,0,0
1,note_on,64,33,0
1,note_on,68,39,0
1,note_on,71,28,720
1,note_on,71,0,120
1,note_on,68,0,360
1,note_on,64,0,0
1,note_on,68,30,0
1,note_on,71,37,0
1,note_on,71,0,240
1,note_on,68,0,0
1,note_on,68,44,0
1,note_on,71,44,0
1,note_on,76,51,0
1,note_on,76,0,360
1,note_on,71,0,0
1,note_on,68,0,0
1,note_on,66,39,0
1,note_on,71,39,0
1,note_on,75,47,0
1,note_on,75,0,114
1,note_on,71,0,0
1,note_on,66,0,0
1,note_on,66,44,6
1,note_on,71,44,0
1,note_on,75,53,0
1,note_on,83,46,240
1,note_on,83,0,240
1,note_on,66,0,240
1,note_on,71,0,0
1,note_on,75,0,0
1,note_on,66,49,0
1,note_on,71,49,0
1,note_on,75,60,0
1,note_on,75,0,240
1,note_on,71,0,0
1,note_on,66,0,0
1,note_on,71,55,0
1,note_on,76,55,0
1,note_on,80,65,0
1,note_on,80,0,360
1,note_on,76,0,0
1,note_on,75,50,0
1,note_on,78,59,0
1,note_on,78,0,114
1,note_on,75,0,0
1,note_on,71,0,6
1,note_on,71,57,0
1,note_on,75,57,0
1,note_on,78,67,0
1,note_on,83,60,240
1,note_on,83,0,240
1,note_on,71,0,240
1,note_on,75,0,0
1,note_on,78,0,0
1,note_on,71,59,0
1,note_on,76,59,0
1,note_on,80,72,0
1,note_on,80,0,240
1,note_on,76,0,0
1,note_on,71,0,0
1,note_on,76,68,0
1,note_on,80,68,0
1,note_on,85,80,0
1,note_on,85,0,360
1,note_on,80,0,0
1,note_on,76,0,0
1,note_on,75,60,0
1,note_on,78,60,0
1,note_on,83,70,0
1,note_on,83,0,114
1,note_on,78,0,0
1,note_on,75,0,0
1,note_on,75,67,6
1,note_on,78,67,0
1,note_on,83,79,0
1,note_on,71,59,240
1,note_on,71,0,240
1,note_on,71,33,1200
1,note_on,71,0,240
1,note_on,83,0,240
1,note_on,81,42,0
1,note_on,81,0,240
1,note_on,78,0,0
1,note_on,75,0,0
1,note_on,68,34,0
1,note_on,76,34,0
1,note_on,80,41,0
1,note_on,73,31,720
1,note_on,73,0,240
1,note_on,68,0,240
1,note_on,76,0,0
1,note_on,80,0,0
1,note_on,68,30,0
1,note_on,73,30,0
1,note_on,76,37,0
1,note_on,76,0,240
1,note_on,73,0,0
1,note_on,68,0,0
1,note_on,66,34,0
1,note_on,69,34,0
1,note_on,75,41,0
1,note_on,75,0,360
1,note_on,73,41,0
1,note_on,73,0,120
1,note_on,69,0,0
1,note_on,66,0,0
1,note_on,66,34,0
1,note_on,69,34,0
1,note_on,73,41,0
1,note_on,66,0,236
1,note_on,73,0,484
1,note_on,69,0,0
1,note_on,63,30,0
1,note_on,69,30,0
1,note_on,73,37,0
1,note_on,73,0,240
1,note_on,69,0,0
1,note_on,63,0,0
1,note_on,64,34,0
1,note_on,68,34,0
1,note_on,73,41,0
1,note_on,73,0,480
1,note_on,71,41,0
1,note_on,80,29,240
1,note_on,80,0,240
1,note_on,64,0,0
1,note_on,60,25,0
1,note_on,71,0,240
1,note_on,68,0,0
1,note_on,66,28,0
1,note_on,69,34,0
1,note_on,69,0,240
1,note_on,66,0,0
1,note_on,60,0,0
1,note_on,61,28,0
1,note_on,64,28,0
1,note_on,68,34,0
1,note_on,68,0,480
1,note_on,64,0,0
1,note_on,61,0,0
1,note_on,56,25,0
1,note_on,61,25,0
1,note_on,64,30,0
1,note_on,73,29,240
1,note_on,73,0,240
1,note_on,56,0,240
1,note_on,61,0,0
1,note_on,64,0,0
1,note_on,61,27,240
1,note_on,65,27,0
1,note_on,68,33,0
1,note_on,73,28,720
1,note_on,73,0,240
1,note_on,61,0,240
1,note_on,65,0,0
1,note_on,68,0,0
1,note_on,61,23,0
1,note_on,68,23,0
1,note_on,73,29,0
1,note_on,73,0,240
1,note_on,68,0,0
1,note_on,61,0,0
1,note_on,61,27,0
1,note_on,66,27,0
1,note_on,72,33,0
1,note_on,72,0,480
1,note_on,70,33,0
1,note_on,82,27,240
1,note_on,82,0,240
1,note_on,61,0,0
1,note_on,66,0,0
1,note_on,70,0,240
1,note_on,61,23,0
1,note_on,65,23,0
1,note_on,70,29,0
1,note_on,70,0,240
1,note_on,65,0,0
1,note_on,61,0,0
1,note_on,61,27,0
1,note_on,63,27,0
1,note_on,70,33,0
1,note_on,70,0,480
1,note_on,63,0,0
1,note_on,61,0,0
1,note_on,60,22,0
1,note_on,63,24,0
1,note_on,68,30,0
1,note_on,80,24,240
1,note_on,80,0,240
1,note_on,60,0,240
1,note_on,63,0,0
1,note_on,68,0,0
1,note_on,58,24,0
1,note_on,61,24,0
1,note_on,66,29,0
1,note_on,66,0,240
1,note_on,61,0,0
1,note_on,58,0,0
1,note_on,56,24,0
1,note_on,61,24,0
1,note_on,65,29,0
1,note_on,65,0,480
1,note_on,61,0,0
1,note_on,56,0,0
1,note_on,53,22,0
1,note_on,56,22,0
1,note_on,61,25,0
1,note_on,73,25,240
1,note_on,73,0,240
1,note_on,53,0,240
1,note_on,56,0,0
1,note_on,61,0,0
1,note_on,56,24,0
1,note_on,61,24,0
1,note_on,65,29,0
1,note_on,65,0,240
1,note_on,61,0,0
1,note_on,56,0,0
1,note_on,55,28,0
1,note_on,61,28,0
1,note_on,65,34,0
1,note_on,70,29,240
1,note_on,70,0,120
1,note_on,65,0,0
1,note_on,63,34,0
1,note_on,63,0,120
1,note_on,61,0,0
1,note_on,55,0,0
1,note_on,82,29,0
1,note_on,55,25,0
1,note_on,61,25,0
1,note_on,63,30,0
1,note_on,82,0,240
1,note_on,55,0,480
1,note_on,61,0,0
1,note_on,63,0,0
1,note_on,55,28,0
1,note_on,61,28,0
1,note_on,63,33,0
1,note_on,63,0,240
1,note_on,61,0,0
1,note_on,55,0,0
1,note_on,54,31,0
1,note_on,61,31,0
1,note_on,64,37,0
1,note_on,69,29,240
1,note_on,69,0,120
1,note_on,64,0,0
1,note_on,63,34,0
1,note_on,63,0,120
1,note_on,61,0,0
1,note_on,54,0,0
1,note_on,81,29,0
1,note_on,54,25,0
1,note_on,61,25,0
1,note_on,63,30,0
1,note_on,81,0,240
1,note_on,54,0,480
1,note_on,61,0,0
1,note_on,63,0,0
1,note_on,54,25,0
1,note_on,61,25,0
1,note_on,63,30,0
1,note_on,63,0,240
1,note_on,61,0,0
1,note_on,54,0,0
1,note_on,54,28,0
1,note_on,60,28,0
1,note_on,63,34,0
1,note_on,68,27,240
1,note_on,68,0,120
1,note_on,80,28,120
1,note_on,80,0,240
1,note_on,63,0,0
1,note_on,60,0,0
1,note_on,54,0,0
1,note_on,65,29,0
1,note_on,65,0,120
1,note_on,66,29,0
1,note_on,66,0,120
1,note_on,68,29,0
1,note_on,68,0,240
1,note_on,56,25,0
1,note_on,60,25,0
1,note_on,64,30,0
1,note_on,64,0,240
1,note_on,60,0,0
1,note_on,56,0,0
1,note_on,56,28,0
1,note_on,61,28,0
1,note_on,65,34,0
1,note_on,73,29,480
1,note_on,73,0,480
1,note_on,56,0,240
1,note_on,61,0,0
1,note_on,65,0,0
1,note_on,56,25,0
1,note_on,61,25,0
1,note_on,65,30,0
1,note_on,65,0,240
1,note_on,61,0,0
1,note_on,56,0,0
1,note_on,55,23,0
1,note_on,61,23,0
1,note_on,65,28,0
1,note_on,65,0,360
1,note_on,63,28,0
1,note_on,63,0,120
1,note_on,61,0,0
1,note_on,55,0,0
1,note_on,70,24,0
1,note_on,55,21,0
1,note_on,61,21,0
1,note_on,63,25,0
1,note_on,70,0,480
1,note_on,55,0,240
1,note_on,61,0,0
1,note_on,63,0,0
1,note_on,55,23,0
1,note_on,61,23,0
1,note_on,63,28,0
1,note_on,63,0,240
1,note_on,61,0,0
1,note_on,55,0,0
1,note_on,54,26,0
1,note_on,61,26,0
1,note_on,64,31,0
1,note_on,64,0,360
1,note_on,63,28,0
1,note_on,63,0,120
1,note_on,61,0,0
1,note_on,54,0,0
1,note_on,69,24,0
1,note_on,54,21,0
1,note_on,61,21,0
1,note_on,63,25,0
1,note_on,69,0,240
1,note_on,54,0,480
1,note_on,61,0,0
1,note_on,63,0,0
1,note_on,54,21,0
1,note_on,61,21,0
1,note_on,63,25,0
1,note_on,63,0,240
1,note_on,61,0,0
1,note_on,54,0,0
1,note_on,54,23,0
1,note_on,60,23,0
1,note_on,63,28,0
1,note_on,63,0,720
1,note_on,60,0,0
1,note_on,54,0,0
1,note_on,65,24,0
1,note_on,65,0,120
1,note_on,66,24,0
1,note_on,66,0,120
1,note_on,68,24,0
1,note_on,68,0,240
1,note_on,54,21,0
1,note_on,57,21,0
1,note_on,60,25,0
1,note_on,60,0,240
1,note_on,57,0,0
1,note_on,54,0,0
1,note_on,73,24,480
1,note_on,73,0,480
1,note_on,73,24,960
1,note_on,73,0,480
1,note_on,73,24,960
1,note_on,73,0,480
1,note_on,68,22,720
1,note_on,68,0,60
1,note_on,73,23,180
1,note_on,73,0,60
1,note_on,80,23,180
1,note_on,80,0,60
1,note_on,85,23,180
1,note_on,85,0,60
2,note_on,37,26,0
2,note_on,37,0,226
2,note_on,49,22,180
2,note_on,49,0,60
2,note_on,61,27,0
2,note_on,61,0,240
2,note_on,37,26,424
2,note_on,37,0,166
2,note_on,49,22,180
2,note_on,49,0,60
2,note_on,61,27,0
2,note_on,61,0,240
2,note_on,37,26,409
2,note_on,37,0,166
2,note_on,49,22,180
2,note_on,49,0,60
2,note_on,61,27,0
2,note_on,61,0,240
2,note_on,37,26,0
2,note_on,37,0,187
2,note_on,49,22,180
2,note_on,49,0,60
2,note_on,61,27,0
2,note_on,61,0,240
2,note_on,37,26,424
2,note_on,37,0,166
2,note_on,49,22,180
2,note_on,49,0,60
2,note_on,61,27,0
2,note_on,61,0,240
2,note_on,37,26,424
2,note_on,37,0,166
2,note_on,49,22,180
2,note_on,49,0,60
2,note_on,61,27,0
2,note_on,61,0,240
2,note_on,37,31,424
2,note_on,37,0,166
2,note_on,49,25,180
2,note_on,49,0,60
2,note_on,61,30,0
2,note_on,61,0,240
2,note_on,37,26,424
2,note_on,37,0,166
2,note_on,49,22,180
2,note_on,49,0,60
2,note_on,61,27,0
2,note_on,61,0,240
2,note_on,32,28,424
2,note_on,44,34,0
2,note_on,44,0,166
2,note_on,32,0,0
2,note_on,44,36,180
2,note_on,44,0,60
2,note_on,56,41,0
2,note_on,56,0,169
2,note_on,32,35,720
2,note_on,44,41,0
2,note_on,44,0,166
2,note_on,32,0,0
2,note_on,44,43,180
2,note_on,44,0,60
2,note_on,56,50,0
2,note_on,56,0,204
2,note_on,44,47,720
2,note_on,32,39,0
2,note_on,32,0,166
2,note_on,44,0,0
2,note_on,44,49,180
2,note_on,44,0,3
2,note_on,56,57,0
2,note_on,56,0,204
2,note_on,44,55,720
2,note_on,32,46,0
2,note_on,32,0,166
2,note_on,44,0,0
2,note_on,44,50,180
2,note_on,44,0,60
2,note_on,56,58,0
2,note_on,56,0,173
2,note_on,68,56,0
2,note_on,68,0,240
2,note_on,32,33,480
2,note_on,44,40,0
2,note_on,44,0,240
2,note_on,32,0,0
2,note_on,44,34,180
2,note_on,44,0,60
2,note_on,56,39,0
2,note_on,56,0,240
2,note_on,68,35,0
2,note_on,68,0,240
2,note_on,32,22,480
2,note_on,44,26,0
2,note_on,44,0,166
2,note_on,32,0,0
2,note_on,47,22,180
2,note_on,47,0,60
2,note_on,59,27,0
2,note_on,59,0,240
2,note_on,45,26,0
2,note_on,33,22,0
2,note_on,33,0,166
2,note_on,45,0,0
2,note_on,49,22,180
2,note_on,49,0,60
2,note_on,61,27,0
2,note_on,61,0,190
2,note_on,47,26,720
2,note_on,35,22,0
2,note_on,35,0,166
2,note_on,47,0,0
2,note_on,47,22,180
2,note_on,47,0,60
2,note_on,59,27,0
2,note_on,59,0,190
2,note_on,40,26,222
2,note_on,40,0,205
2,note_on,47,22,180
2,note_on,47,0,60
2,note_on,52,27,0
2,note_on,52,0,240
2,note_on,40,26,720
2,note_on,40,0,169
2,note_on,47,22,180
2,note_on,47,0,60
2,note_on,59,27,0
2,note_on,59,0,240
2,note_on,40,26,424
2,note_on,40,0,166
2,note_on,47,22,180
2,note_on,47,0,60
2,note_on,59,27,0
2,note_on,59,0,240
2,note_on,40,26,409
2,note_on,40,0,166
2,note_on,47,22,180
2,note_on,47,0,60
2,note_on,59,27,0
2,note_on,59,0,240
2,note_on,40,26,0
2,note_on,40,0,187
2,note_on,47,22,180
2,note_on,47,0,60
2,note_on,59,27,0
2,note_on,59,0,240
2,note_on,40,31,424
2,note_on,40,0,166
2,note_on,52,30,180
2,note_on,52,0,60
2,note_on,64,36,0
2,note_on,64,0,240
2,note_on,40,31,424
2,note_on,40,0,166
2,note_on,52,30,180
2,note_on,52,0,60
2,note_on,64,36,0
2,note_on,64,0,240
2,note_on,40,37,424
2,note_on,40,0,166
2,note_on,52,33,180
2,note_on,52,0,60
2,note_on,64,40,0
2,note_on,64,0,240
2,note_on,40,31,424
2,note_on,40,0,166
2,note_on,52,30,180
2,note_on,52,0,60
2,note_on,64,36,0
2,note_on,64,0,240
2,note_on,35,35,424
2,note_on,47,42,0
2,note_on,47,0,166
2,note_on,35,0,0
2,note_on,47,44,180
2,note_on,47,0,60
2,note_on,59,50,0
2,note_on,59,0,190
2,note_on,35,41,720
2,note_on,47,49,0
2,note_on,47,0,166
2,note_on,35,0,0
2,note_on,47,51,180
2,note_on,47,0,60
2,note_on,59,59,0
2,note_on,59,0,187
2,note_on,35,46,720
2,note_on,47,55,0
2,note_on,47,0,166
2,note_on,35,0,0
2,note_on,47,52,180
2,note_on,47,0,60
2,note_on,59,60,0
2,note_on,59,0,173
2,note_on,35,36,720
2,note_on,35,0,240
2,note_on,47,39,180
2,note_on,47,0,60
2,note_on,59,44,0
2,note_on,59,0,240
2,note_on,37,26,720
2,note_on,37,0,166
2,note_on,49,25,180
2,note_on,49,0,60
2,note_on,61,30,0
2,note_on,61,0,240
2,note_on,42,22,720
2,note_on,30,19,0
2,note_on,30,0,166
2,note_on,42,0,0
2,note_on,42,25,180
2,note_on,42,0,60
2,note_on,54,30,0
2,note_on,54,0,240
2,note_on,32,22,720
2,note_on,44,26,0
2,note_on,44,0,166
2,note_on,32,0,0
2,note_on,44,22,180
2,note_on,44,0,60
2,note_on,56,27,0
2,note_on,56,0,240
2,note_on,37,26,424
2,note_on,37,0,205
2,note_on,37,22,180
2,note_on,37,0,60
2,note_on,49,27,0
2,note_on,49,0,240
2,note_on,33,26,720
2,note_on,45,26,0
2,note_on,45,0,205
2,note_on,33,0,0
2,note_on,33,26,1200
2,note_on,45,26,0
2,note_on,45,0,178
2,note_on,33,0,0
2,note_on,44,26,0
2,note_on,32,26,0
2,note_on,32,0,180
2,note_on,44,0,0
2,note_on,37,26,1200
2,note_on,37,0,99
2,note_on,49,27,240
2,note_on,49,0,240
2,note_on,33,23,0
2,note_on,33,0,205
2,note_on,45,26,240
2,note_on,45,0,240
2,note_on,33,23,0
2,note_on,33,0,205
2,note_on,45,26,240
2,note_on,45,0,240
2,note_on,32,19,0
2,note_on,32,0,205
2,note_on,44,21,240
2,note_on,44,0,240
2,note_on,56,21,0
2,note_on,56,0,240
2,note_on,61,27,480
2,note_on,52,22,0
2,note_on,56,22,0
2,note_on,37,23,0
2,note_on,37,0,42
2,note_on,49,24,240
2,note_on,49,0,240
2,note_on,37,23,720
2,note_on,37,0,240
2,note_on,49,24,240
2,note_on,49,0,240
2,note_on,32,37,494
2,note_on,56,0,226
2,note_on,61,0,0
2,note_on,52,0,0
2,note_on,33,34,0
2,note_on,32,0,3
2,note_on,33,0,106
2,note_on,45,28,0
2,note_on,45,0,21
2,note_on,45,28,60
2,note_on,45,0,60
2,note_on,45,28,60
2,note_on,45,0,60
2,note_on,33,33,60
2,note_on,33,0,74
2,note_on,45,28,0
2,note_on,45,0,46
2,note_on,45,28,60
2,note_on,45,0,60
2,note_on,45,28,60
2,note_on,45,0,60
2,note_on,33,32,60
2,note_on,33,0,81
2,note_on,45,28,0
2,note_on,45,0,39
2,note_on,45,28,60
2,note_on,45,0,60
2,note_on,45,28,60
2,note_on,45,0,60
2,note_on,33,34,60
2,note_on,33,0,63
2,note_on,45,29,0
2,note_on,45,0,14
2,note_on,45,29,60
2,note_on,45,0,60
2,note_on,45,29,60
2,note_on,45,0,60
2,note_on,45,29,60
2,note_on,45,0,60
2,note_on,45,29,60
2,note_on,45,0,60
2,note_on,45,29,60
2,note_on,45,0,60
2,note_on,45,29,60
2,note_on,45,0,60
2,note_on,33,34,60
2,note_on,33,0,92
2,note_on,45,26,0
2,note_on,45,0,39
2,note_on,45,29,60
2,note_on,45,0,60
2,note_on,45,31,60
2,note_on,45,0,60
2,note_on,33,34,60
2,note_on,33,0,42
2,note_on,45,31,0
2,note_on,45,0,60
2,note_on,45,31,42
2,note_on,45,0,60
2,note_on,45,31,60
2,note_on,45,0,60
2,note_on,45,31,60
2,note_on,45,0,60
2,note_on,45,30,60
2,note_on,45,0,60
2,note_on,33,31,60
2,note_on,33,0,28
2,note_on,45,31,0
2,note_on,45,0,120
2,note_on,33,31,0
2,note_on,33,0,28
2,note_on,45,31,0
2,note_on,45,0,120
2,note_on,37,31,0
2,note_on,37,0,120
2,note_on,49,31,0
2,note_on,49,0,120
2,note_on,40,34,0
2,note_on,40,0,64
2,note_on,40,33,0
2,note_on,40,0,120
2,note_on,40,36,0
2,note_on,40,0,120
2,note_on,40,39,0
2,note_on,40,0,120
2,note_on,40,37,0
2,note_on,40,0,46
2,note_on,40,35,60
2,note_on,40,0,60
2,note_on,38,33,60
2,note_on,38,0,60
2,note_on,38,31,60
2,note_on,38,0,60
2,note_on,37,30,60
2,note_on,37,0,60
2,note_on,37,30,60
2,note_on,37,0,60
2,note_on,35,29,60
2,note_on,35,0,60
2,note_on,35,29,60
2,note_on,35,0,60
2,note_on,33,34,60
2,note_on,33,0,42
2,note_on,45,28,0
2,note_on,45,0,60
2,note_on,45,28,0
2,note_on,45,0,60
2,note_on,45,28,60
2,note_on,45,0,60
2,note_on,33,33,60
2,note_on,33,0,67
2,note_on,45,28,0
2,note_on,45,0,7
2,note_on,45,28,60
2,note_on,45,0,60
2,note_on,45,28,60
2,note_on,45,0,60
2,note_on,33,32,60
2,note_on,33,0,88
2,note_on,45,28,0
2,note_on,45,0,39
2,note_on,45,28,60
2,note_on,45,0,60
2,note_on,45,28,60
2,note_on,45,0,60
2,note_on,33,34,60
2,note_on,33,0,63
2,note_on,45,29,0
2,note_on,45,0,7
2,note_on,45,29,60
2,note_on,45,0,60
2,note_on,45,29,60
2,note_on,45,0,60
2,note_on,45,29,60
2,note_on,45,0,60
2,note_on,45,29,60
2,note_on,45,0,60
2,note_on,33,29,60
2,note_on,33,0,60
2,note_on,45,30,60
2,note_on,45,0,60
2,note_on,31,42,60
2,note_on,31,0,97
2,note_on,43,36,0
2,note_on,43,0,120
2,note_on,28,39,0
2,note_on,28,0,44
2,note_on,42,43,30
2,note_on,42,0,90
2,note_on,35,47,0
2,note_on,35,0,42
2,note_on,47,36,0
2,note_on,47,0,62
2,note_on,47,34,0
2,note_on,47,0,120
2,note_on,49,32,0
2,note_on,49,0,120
2,note_on,50,31,0
2,note_on,50,0,56
2,note_on,47,30,0
2,note_on,47,0,120
2,note_on,35,34,0
2,note_on,35,0,28
2,note_on,47,33,0
2,note_on,47,0,120
2,note_on,37,32,0
2,note_on,37,0,28
2,note_on,49,31,0
2,note_on,49,0,120
2,note_on,40,31,0
2,note_on,40,0,120
2,note_on,52,31,0
2,note_on,52,0,120
2,note_on,40,29,64
2,note_on,40,0,120
2,note_on,44,31,0
2,note_on,44,0,120
2,note_on,40,33,0
2,note_on,40,0,120
2,note_on,45,35,0
2,note_on,45,0,90
2,note_on,37,32,30
2,note_on,37,0,60
2,note_on,38,32,60
2,note_on,38,0,60
2,note_on,40,32,60
2,note_on,40,0,60
2,note_on,42,32,60
2,note_on,42,0,60
2,note_on,40,32,60
2,note_on,40,0,60
2,note_on,42,31,60
2,note_on,42,0,60
2,note_on,44,31,60
2,note_on,44,0,60
2,note_on,45,36,60
2,note_on,45,0,81
2,note_on,49,23,120
2,note_on,52,27,0
2,note_on,52,0,120
2,note_on,49,0,0
2,note_on,45,36,120
2,note_on,45,0,120
2,note_on,49,24,120
2,note_on,52,28,0
2,note_on,52,0,120
2,note_on,49,0,0
2,note_on,45,36,120
2,note_on,45,0,21
2,note_on,50,25,120
2,note_on,52,29,0
2,note_on,52,0,120
2,note_on,50,0,0
2,note_on,45,36,120
2,note_on,45,0,63
2,note_on,52,30,120
2,note_on,52,0,120
2,note_on,45,36,120
2,note_on,45,0,6
2,note_on,52,29,120
2,note_on,49,25,0
2,note_on,49,0,120
2,note_on,52,0,0
2,note_on,45,36,120
2,note_on,45,0,120
2,note_on,52,29,120
2,note_on,57,29,0
2,note_on,57,0,120
2,note_on,52,0,0
2,note_on,45,36,120
2,note_on,45,0,42
2,note_on,57,28,120
2,note_on,54,24,0
2,note_on,54,0,120
2,note_on,57,0,0
2,note_on,45,36,120
2,note_on,45,0,56
2,note_on,54,27,120
2,note_on,57,32,0
2,note_on,57,0,148
2,note_on,54,0,0
2,note_on,52,27,0
2,note_on,57,32,0
2,note_on,57,0,148
2,note_on,52,0,0
2,note_on,49,28,0
2,note_on,57,33,0
2,note_on,57,0,240
2,note_on,49,0,0
2,note_on,40,36,0
2,note_on,40,0,64
2,note_on,52,33,120
2,note_on,52,0,120
2,note_on,40,33,120
2,note_on,40,0,120
2,note_on,50,27,14
2,note_on,52,32,0
2,note_on,52,0,166
2,note_on,50,0,0
2,note_on,49,30,60
2,note_on,52,36,0
2,note_on,52,0,145
2,note_on,49,0,0
2,note_on,47,28,60
2,note_on,52,33,0
2,note_on,52,0,127
2,note_on,47,0,0
2,note_on,45,36,60
2,note_on,45,0,60
2,note_on,49,23,120
2,note_on,52,27,0
2,note_on,52,0,120
2,note_on,49,0,0
2,note_on,45,36,120
2,note_on,45,0,120
2,note_on,49,24,120
2,note_on,52,28,0
2,note_on,52,0,120
2,note_on,49,0,0
2,note_on,45,36,120
2,note_on,45,0,21
2,note_on,50,25,120
2,note_on,52,29,0
2,note_on,52,0,120
2,note_on,50,0,0
2,note_on,45,36,120
2,note_on,45,0,63
2,note_on,52,30,120
2,note_on,52,0,120
2,note_on,45,36,120
2,note_on,45,0,6
2,note_on,45,26,120
2,note_on,52,30,0
2,note_on,49,26,0
2,note_on,49,0,120
2,note_on,52,0,0
2,note_on,45,0,0
2,note_on,43,27,120
2,note_on,49,27,0
2,note_on,52,31,0
2,note_on,52,0,120
2,note_on,49,0,0
2,note_on,43,0,0
2,note_on,42,32,120
2,note_on,49,32,0
2,note_on,54,32,0
2,note_on,54,0,120
2,note_on,49,0,0
2,note_on,42,0,0
2,note_on,47,40,120
2,note_on,47,0,42
2,note_on,54,28,120
2,note_on,54,0,180
2,note_on,58,28,0
2,note_on,58,0,60
2,note_on,59,36,0
2,note_on,59,0,176
2,note_on,47,27,0
2,note_on,54,32,0
2,note_on,54,0,88
2,note_on,56,32,0
2,note_on,56,0,60
2,note_on,47,0,0
2,note_on,49,27,0
2,note_on,57,32,0
2,note_on,57,0,148
2,note_on,49,0,0
2,note_on,52,28,0
2,note_on,56,33,0
2,note_on,56,0,240
2,note_on,52,0,0
2,note_on,45,36,0
2,note_on,45,0,64
2,note_on,52,33,120
2,note_on,56,33,0
2,note_on,56,0,120
2,note_on,52,0,0
2,note_on,52,28,120
2,note_on,57,33,0
2,note_on,45,31,0
2,note_on,45,0,90
2,note_on,57,0,11
2,note_on,52,0,0
2,note_on,45,38,0
2,note_on,45,0,60
2,note_on,47,37,60
2,note_on,47,0,60
2,note_on,49,35,60
2,note_on,49,0,60
2,note_on,47,34,60
2,note_on,47,0,60
2,note_on,45,32,60
2,note_on,45,0,60
2,note_on,44,31,60
2,note_on,44,0,60
2,note_on,42,31,60
2,note_on,42,0,60
2,note_on,40,34,60
2,note_on,40,0,42
2,note_on,52,28,0
2,note_on,52,0,7
2,note_on,52,28,60
2,note_on,52,0,60
2,note_on,52,28,60
2,note_on,52,0,60
2,note_on,40,33,60
2,note_on,40,0,95
2,note_on,52,28,0
2,note_on,52,0,18
2,note_on,52,28,60
2,note_on,52,0,60
2,note_on,52,28,60
2,note_on,52,0,60
2,note_on,37,32,60
2,note_on,37,0,78
2,note_on,49,28,0
2,note_on,49,0,25
2,note_on,49,28,60
2,note_on,49,0,60
2,note_on,49,28,60
2,note_on,49,0,60
2,note_on,35,34,60
2,note_on,35,0,102
2,note_on,47,29,0
2,note_on,47,0,60
2,note_on,47,29,53
2,note_on,47,0,60
2,note_on,47,29,60
2,note_on,47,0,60
2,note_on,35,29,60
2,note_on,35,0,37
2,note_on,47,29,30
2,note_on,47,0,60
2,note_on,47,29,53
2,note_on,47,0,60
2,note_on,47,29,60
2,note_on,47,0,60
2,note_on,35,34,60
2,note_on,35,0,97
2,note_on,47,32,0
2,note_on,47,0,120
2,note_on,35,35,0
2,note_on,35,0,44
2,note_on,47,39,30
2,note_on,47,0,90
2,note_on,33,42,0
2,note_on,33,0,42
2,note_on,45,38,0
2,note_on,45,0,120
2,note_on,45,40,0
2,note_on,45,0,120
2,note_on,43,41,0
2,note_on,43,0,120
2,note_on,30,43,0
2,note_on,30,0,56
2,note_on,42,37,0
2,note_on,42,0,120
2,note_on,31,39,0
2,note_on,31,0,28
2,note_on,43,37,0
2,note_on,43,0,120
2,note_on,33,37,0
2,note_on,33,0,28
2,note_on,45,36,0
2,note_on,45,0,120
2,note_on,33,35,0
2,note_on,33,0,120
2,note_on,45,34,0
2,note_on,45,0,120
2,note_on,33,31,0
2,note_on,33,0,64
2,note_on,45,29,0
2,note_on,45,0,120
2,note_on,49,31,0
2,note_on,49,0,120
2,note_on,45,33,0
2,note_on,45,0,120
2,note_on,38,35,0
2,note_on,38,0,90
2,note_on,50,29,30
2,note_on,50,0,60
2,note_on,50,28,60
2,note_on,50,0,60
2,note_on,50,28,60
2,note_on,50,0,60
2,note_on,50,27,60
2,note_on,50,0,60
2,note_on,50,26,60
2,note_on,50,0,60
2,note_on,50,25,60
2,note_on,50,0,60
2,note_on,50,24,60
2,note_on,50,0,90
2,note_on,38,25,30
2,note_on,38,0,109
2,note_on,50,21,0
2,note_on,50,0,35
2,note_on,50,21,60
2,note_on,50,0,60
2,note_on,50,21,60
2,note_on,50,0,60
2,note_on,38,24,60
2,note_on,38,0,92
2,note_on,50,21,0
2,note_on,50,0,18
2,note_on,50,21,60
2,note_on,50,0,60
2,note_on,50,21,60
2,note_on,50,0,60
2,note_on,38,23,60
2,note_on,38,0,88
2,note_on,50,21,0
2,note_on,50,0,11
2,note_on,50,21,60
2,note_on,50,0,60
2,note_on,50,21,60
2,note_on,50,0,60
2,note_on,39,25,60
2,note_on,39,0,114
2,note_on,51,22,0
2,note_on,51,0,43
2,note_on,51,22,60
2,note_on,51,0,60
2,note_on,51,22,60
2,note_on,51,0,60
2,note_on,39,22,60
2,note_on,39,0,90
2,note_on,51,22,30
2,note_on,51,0,90
2,note_on,36,22,30
2,note_on,36,0,80
2,note_on,48,22,30
2,note_on,48,0,90
2,note_on,38,25,30
2,note_on,38,0,74
2,note_on,50,19,0
2,note_on,50,0,120
2,note_on,39,22,0
2,note_on,39,0,44
2,note_on,51,22,30
2,note_on,51,0,90
2,note_on,29,26,0
2,note_on,29,0,80
2,note_on,41,22,0
2,note_on,41,0,43
2,note_on,41,22,60
2,note_on,41,0,60
2,note_on,41,22,60
2,note_on,41,0,60
2,note_on,29,22,60
2,note_on,29,0,89
2,note_on,41,22,0
2,note_on,41,0,37
2,note_on,41,22,60
2,note_on,41,0,60
2,note_on,41,22,60
2,note_on,41,0,60
2,note_on,29,22,60
2,note_on,29,0,80
2,note_on,41,22,0
2,note_on,41,0,20
2,note_on,41,22,60
2,note_on,41,0,60
2,note_on,41,22,60
2,note_on,41,0,60
2,note_on,29,26,60
2,note_on,29,0,120
2,note_on,41,23,0
2,note_on,41,0,60
2,note_on,41,23,60
2,note_on,41,0,60
2,note_on,41,24,60
2,note_on,41,0,60
2,note_on,29,24,60
2,note_on,29,0,120
2,note_on,41,23,0
2,note_on,41,0,60
2,note_on,41,23,60
2,note_on,41,0,60
2,note_on,41,23,60
2,note_on,41,0,60
2,note_on,29,24,60
2,note_on,29,0,120
2,note_on,41,23,0
2,note_on,41,0,60
2,note_on,41,23,60
2,note_on,41,0,60
2,note_on,41,22,60
2,note_on,41,0,60
2,note_on,40,31,0
2,note_on,40,0,71
2,note_on,52,28,0
2,note_on,52,0,60
2,note_on,52,28,46
2,note_on,52,0,60
2,note_on,52,29,60
2,note_on,52,0,60
2,note_on,40,29,60
2,note_on,40,0,99
2,note_on,52,29,0
2,note_on,52,0,46
2,note_on,52,31,60
2,note_on,52,0,60
2,note_on,52,30,60
2,note_on,52,0,60
2,note_on,40,30,60
2,note_on,40,0,28
2,note_on,52,29,0
2,note_on,52,0,120
2,note_on,40,30,0
2,note_on,40,0,120
2,note_on,40,29,0
2,note_on,40,0,120
2,note_on,33,34,0
2,note_on,33,0,42
2,note_on,45,28,0
2,note_on,45,0,60
2,note_on,45,28,60
2,note_on,45,0,53
2,note_on,45,28,60
2,note_on,45,0,60
2,note_on,33,33,60
2,note_on,33,0,67
2,note_on,45,28,0
2,note_on,45,0,18
2,note_on,45,28,60
2,note_on,45,0,60
2,note_on,45,28,60
2,note_on,45,0,60
2,note_on,33,32,60
2,note_on,33,0,81
2,note_on,45,28,0
2,note_on,45,0,14
2,note_on,45,28,60
2,note_on,45,0,60
2,note_on,45,28,60
2,note_on,45,0,60
2,note_on,33,34,60
2,note_on,33,0,63
2,note_on,45,29,0
2,note_on,45,0,60
2,note_on,45,29,60
2,note_on,45,0,60
2,note_on,45,29,60
2,note_on,45,0,60
2,note_on,45,29,60
2,note_on,45,0,60
2,note_on,45,29,60
2,note_on,45,0,60
2,note_on,45,29,60
2,note_on,45,0,60
2,note_on,45,29,60
2,note_on,45,0,60
2,note_on,45,37,60
2,note_on,45,0,60
2,note_on,45,28,60
2,note_on,45,0,60
2,note_on,45,31,60
2,note_on,45,0,60
2,note_on,45,34,60
2,note_on,45,0,60
2,note_on,33,37,60
2,note_on,33,0,95
2,note_on,45,34,0
2,note_on,45,0,11
2,note_on,45,34,60
2,note_on,45,0,60
2,note_on,45,34,60
2,note_on,45,0,60
2,note_on,33,34,60
2,note_on,33,0,60
2,note_on,45,33,60
2,note_on,45,0,60
2,note_on,45,34,60
2,note_on,45,0,60
2,note_on,45,34,60
2,note_on,45,0,60
2,note_on,33,34,60
2,note_on,33,0,28
2,note_on,45,34,0
2,note_on,45,0,120
2,note_on,37,34,0
2,note_on,37,0,120
2,note_on,49,34,0
2,note_on,49,0,120
2,note_on,28,37,0
2,note_on,28,0,64
2,note_on,40,31,0
2,note_on,40,0,120
2,note_on,40,34,0
2,note_on,40,0,120
2,note_on,40,36,0
2,note_on,40,0,120
2,note_on,40,40,0
2,note_on,40,0,51
2,note_on,40,41,60
2,note_on,40,0,60
2,note_on,38,46,60
2,note_on,38,0,60
2,note_on,38,47,60
2,note_on,38,0,60
2,note_on,36,48,60
2,note_on,36,0,60
2,note_on,36,49,60
2,note_on,36,0,60
2,note_on,35,51,60
2,note_on,35,0,60
2,note_on,35,53,60
2,note_on,35,0,60
2,note_on,33,57,60
2,note_on,33,0,106
2,note_on,45,46,0
2,note_on,45,0,40
2,note_on,45,46,60
2,note_on,45,0,60
2,note_on,45,46,60
2,note_on,45,0,60
2,note_on,33,57,60
2,note_on,33,0,94
2,note_on,45,46,0
2,note_on,45,0,34
2,note_on,45,47,60
2,note_on,45,0,60
2,note_on,45,47,60
2,note_on,45,0,60
2,note_on,31,55,60
2,note_on,31,0,97
2,note_on,43,47,0
2,note_on,43,0,37
2,note_on,43,48,60
2,note_on,43,0,60
2,note_on,43,48,60
2,note_on,43,0,60
2,note_on,36,60,60
2,note_on,36,0,114
2,note_on,48,49,0
2,note_on,48,0,51
2,note_on,48,50,60
2,note_on,48,0,60
2,note_on,48,50,60
2,note_on,48,0,60
2,note_on,36,50,60
2,note_on,36,0,50
2,note_on,48,50,30
2,note_on,48,0,60
2,note_on,48,51,60
2,note_on,48,0,60
2,note_on,48,51,60
2,note_on,48,0,60
2,note_on,36,57,60
2,note_on,36,0,97
2,note_on,48,51,0
2,note_on,48,0,120
2,note_on,41,54,0
2,note_on,41,0,44
2,note_on,53,57,30
2,note_on,53,0,90
2,note_on,40,60,0
2,note_on,40,0,88
2,note_on,52,50,0
2,note_on,52,0,4
2,note_on,52,50,60
2,note_on,52,0,60
2,note_on,52,48,60
2,note_on,52,0,60
2,note_on,42,41,60
2,note_on,42,0,56
2,note_on,54,39,0
2,note_on,54,0,120
2,note_on,38,34,0
2,note_on,38,0,28
2,note_on,50,34,0
2,note_on,50,0,120
2,note_on,40,34,0
2,note_on,40,0,28
2,note_on,52,34,0
2,note_on,52,0,120
2,note_on,40,31,0
2,note_on,40,0,120
2,note_on,52,31,0
2,note_on,52,0,120
2,note_on,40,29,64
2,note_on,40,0,120
2,note_on,44,31,0
2,note_on,44,0,120
2,note_on,40,33,0
2,note_on,40,0,120
2,note_on,45,35,0
2,note_on,45,0,90
2,note_on,45,32,30
2,note_on,45,0,60
2,note_on,47,32,60
2,note_on,47,0,60
2,note_on,49,32,60
2,note_on,49,0,60
2,note_on,47,32,60
2,note_on,47,0,60
2,note_on,45,32,60
2,note_on,45,0,60
2,note_on,44,31,60
2,note_on,44,0,60
2,note_on,42,31,60
2,note_on,42,0,60
2,note_on,40,36,60
2,note_on,40,0,116
2,note_on,52,23,120
2,note_on,56,27,0
2,note_on,56,0,120
2,note_on,52,0,0
2,note_on,40,36,120
2,note_on,40,0,120
2,note_on,52,24,120
2,note_on,56,28,0
2,note_on,56,0,120
2,note_on,52,0,0
2,note_on,49,36,120
2,note_on,49,0,21
2,note_on,54,25,120
2,note_on,58,29,0
2,note_on,58,0,120
2,note_on,54,0,0
2,note_on,47,36,120
2,note_on,47,0,63
2,note_on,54,25,120
2,note_on,59,30,0
2,note_on,59,0,120
2,note_on,54,0,0
2,note_on,47,36,120
2,note_on,47,0,6
2,note_on,59,29,120
2,note_on,54,25,0
2,note_on,54,0,120
2,note_on,59,0,0
2,note_on,47,36,120
2,note_on,47,0,39
2,note_on,62,29,120
2,note_on,56,25,0
2,note_on,59,25,0
2,note_on,59,0,120
2,note_on,56,0,0
2,note_on,62,0,0
2,note_on,45,36,120
2,note_on,45,0,42
2,note_on,62,28,120
2,note_on,57,24,0
2,note_on,57,0,180
2,note_on,55,24,0
2,note_on,55,0,60
2,note_on,62,0,0
2,note_on,54,27,0
2,note_on,62,36,0
2,note_on,62,0,176
2,note_on,54,0,0
2,note_on,55,27,0
2,note_on,62,32,0
2,note_on,62,0,148
2,note_on,55,0,0
2,note_on,57,27,0
2,note_on,62,32,0
2,note_on,62,0,148
2,note_on,57,0,0
2,note_on,57,28,0
2,note_on,61,33,0
2,note_on,61,0,240
2,note_on,57,0,0
2,note_on,50,36,0
2,note_on,50,0,64
2,note_on,57,27,120
2,note_on,61,33,0
2,note_on,61,0,120
2,note_on,57,0,0
2,note_on,50,33,120
2,note_on,50,0,71
2,note_on,57,27,120
2,note_on,62,32,0
2,note_on,62,0,180
2,note_on,57,0,0
2,note_on,50,36,60
2,note_on,50,0,180
2,note_on,54,26,60
2,note_on,57,30,0
2,note_on,57,0,180
2,note_on,54,0,0
2,note_on,38,25,60
2,note_on,38,0,69
2,note_on,50,16,120
2,note_on,53,18,0
2,note_on,53,0,120
2,note_on,50,0,0
2,note_on,38,25,120
2,note_on,38,0,120
2,note_on,50,17,120
2,note_on,53,19,0
2,note_on,53,0,120
2,note_on,50,0,0
2,note_on,38,25,120
2,note_on,38,0,120
2,note_on,50,17,120
2,note_on,53,20,0
2,note_on,53,0,120
2,note_on,50,0,0
2,note_on,39,25,120
2,note_on,39,0,63
2,note_on,51,17,120
2,note_on,55,21,0
2,note_on,55,0,120
2,note_on,51,0,0
2,note_on,39,25,120
2,note_on,39,0,126
2,note_on,51,17,0
2,note_on,55,17,0
2,note_on,58,20,0
2,note_on,58,0,191
2,note_on,55,0,0
2,note_on,51,0,0
2,note_on,50,17,0
2,note_on,55,17,0
2,note_on,59,20,0
2,note_on,59,0,188
2,note_on,55,0,0
2,note_on,50,0,0
2,note_on,48,17,0
2,note_on,55,17,0
2,note_on,60,20,0
2,note_on,60,0,203
2,note_on,55,0,0
2,note_on,48,0,0
2,note_on,41,25,0
2,note_on,41,0,42
2,note_on,58,19,120
2,note_on,53,17,0
2,note_on,53,0,120
2,note_on,58,0,0
2,note_on,41,25,120
2,note_on,41,0,120
2,note_on,53,17,120
2,note_on,58,19,0
2,note_on,58,0,120
2,note_on,53,0,0
2,note_on,41,25,120
2,note_on,41,0,28
2,note_on,53,17,120
2,note_on,57,19,0
2,note_on,57,0,120
2,note_on,53,0,0
2,note_on,41,25,120
2,note_on,41,0,64
2,note_on,53,23,120
2,note_on,53,0,120
2,note_on,41,23,120
2,note_on,41,0,120
2,note_on,53,22,120
2,note_on,53,0,180
2,note_on,41,25,60
2,note_on,41,0,180
2,note_on,53,23,60
2,note_on,53,0,180
2,note_on,41,25,60
2,note_on,41,0,64
2,note_on,53,23,120
2,note_on,53,0,120
2,note_on,41,23,120
2,note_on,41,0,120
2,note_on,53,22,120
2,note_on,53,0,180
2,note_on,41,25,60
2,note_on,41,0,84
2,note_on,53,24,60
2,note_on,53,0,180
2,note_on,42,28,60
2,note_on,42,0,64
2,note_on,54,24,120
2,note_on,54,0,120
2,note_on,42,23,120
2,note_on,42,0,120
2,note_on,54,22,120
2,note_on,54,0,180
2,note_on,42,25,60
2,note_on,42,0,180
2,note_on,54,23,60
2,note_on,54,0,180
2,note_on,30,25,60
2,note_on,30,0,64
2,note_on,42,23,120
2,note_on,42,0,120
2,note_on,30,23,120
2,note_on,30,0,120
2,note_on,42,22,120
2,note_on,42,0,180
2,note_on,30,25,60
2,note_on,30,0,84
2,note_on,42,24,60
2,note_on,42,0,180
2,note_on,32,28,60
2,note_on,32,0,64
2,note_on,44,24,120
2,note_on,44,0,120
2,note_on,32,23,120
2,note_on,32,0,120
2,note_on,44,22,120
2,note_on,44,0,180
2,note_on,32,25,60
2,note_on,32,0,180
2,note_on,44,23,60
2,note_on,44,0,180
2,note_on,32,25,60
2,note_on,32,0,64
2,note_on,44,22,120
2,note_on,44,0,120
2,note_on,32,22,120
2,note_on,32,0,120
2,note_on,44,20,120
2,note_on,44,0,180
2,note_on,32,22,60
2,note_on,32,0,114
2,note_on,44,20,60
2,note_on,44,0,180
2,note_on,37,26,1440
2,note_on,37,0,106
2,note_on,49,22,120
2,note_on,49,0,240
2,note_on,61,27,0
2,note_on,61,0,240
2,note_on,37,25,92
2,note_on,37,0,60
2,note_on,37,25,60
2,note_on,37,0,60
2,note_on,36,25,60
2,note_on,36,0,60
2,note_on,37,26,60
2,note_on,37,0,74
2,note_on,49,22,120
2,note_on,49,0,240
2,note_on,61,27,0
2,note_on,61,0,240
2,note_on,37,26,106
2,note_on,37,0,60
2,note_on,37,26,60
2,note_on,37,0,60
2,note_on,36,27,60
2,note_on,36,0,60
2,note_on,37,26,60
2,note_on,37,0,89
2,note_on,49,22,120
2,note_on,49,0,240
2,note_on,61,27,0
2,note_on,61,0,240
2,note_on,37,27,106
2,note_on,37,0,60
2,note_on,37,26,60
2,note_on,37,0,60
2,note_on,36,26,60
2,note_on,36,0,60
2,note_on,37,26,60
2,note_on,37,0,89
2,note_on,49,22,120
2,note_on,49,0,240
2,note_on,61,27,0
2,note_on,61,0,240
2,note_on,37,28,92
2,note_on,37,0,60
2,note_on,37,27,60
2,note_on,37,0,60
2,note_on,36,26,60
2,note_on,36,0,60
2,note_on,37,26,60
2,note_on,37,0,80
2,note_on,49,22,120
2,note_on,49,0,240
2,note_on,61,27,0
2,note_on,61,0,240
2,note_on,37,25,106
2,note_on,37,0,60
2,note_on,37,25,60
2,note_on,37,0,60
2,note_on,36,26,60
2,note_on,36,0,60
2,note_on,37,26,60
2,note_on,37,0,86
2,note_on,49,22,120
2,note_on,49,0,240
2,note_on,61,27,0
2,note_on,61,0,240
2,note_on,37,26,106
2,note_on,37,0,60
2,note_on,37,26,60
2,note_on,37,0,60
2,note_on,36,27,60
2,note_on,36,0,60
2,note_on,37,31,60
2,note_on,37,0,94
2,note_on,49,25,120
2,note_on,49,0,240
2,note_on,61,30,0
2,note_on,61,0,240
2,note_on,37,26,106
2,note_on,37,0,60
2,note_on,37,26,60
2,note_on,37,0,60
2,note_on,36,26,60
2,note_on,36,0,60
2,note_on,37,26,60
2,note_on,37,0,78
2,note_on,49,22,120
2,note_on,49,0,240
2,note_on,61,27,0
2,note_on,61,0,240
2,note_on,37,27,106
2,note_on,37,0,60
2,note_on,37,27,60
2,note_on,37,0,60
2,note_on,40,27,60
2,note_on,40,0,60
2,note_on,32,28,60
2,note_on,32,0,97
2,note_on,44,35,120
2,note_on,44,0,240
2,note_on,56,41,0
2,note_on,56,0,168
2,note_on,32,31,64
2,note_on,32,0,60
2,note_on,32,32,60
2,note_on,32,0,60
2,note_on,31,32,60
2,note_on,31,0,60
2,note_on,32,35,60
2,note_on,32,0,86
2,note_on,44,43,120
2,note_on,44,0,240
2,note_on,56,50,0
2,note_on,56,0,183
2,note_on,32,35,64
2,note_on,32,0,60
2,note_on,32,35,60
2,note_on,32,0,60
2,note_on,31,35,60
2,note_on,31,0,60
2,note_on,32,39,60
2,note_on,32,0,86
2,note_on,44,49,120
2,note_on,44,0,240
2,note_on,56,57,0
2,note_on,56,0,188
2,note_on,32,42,64
2,note_on,32,0,60
2,note_on,32,42,60
2,note_on,32,0,60
2,note_on,31,42,60
2,note_on,31,0,60
2,note_on,32,46,0
2,note_on,32,0,89
2,note_on,44,52,120
2,note_on,44,0,240
2,note_on,56,60,0
2,note_on,56,0,174
2,note_on,68,59,0
2,note_on,68,0,120
2,note_on,32,36,240
2,note_on,32,0,31
2,note_on,32,36,60
2,note_on,32,0,60
2,note_on,31,36,60
2,note_on,31,0,60
2,note_on,32,36,0
2,note_on,32,0,21
2,note_on,44,38,120
2,note_on,44,0,240
2,note_on,56,41,0
2,note_on,56,0,240
2,note_on,68,38,0
2,note_on,68,0,120
2,note_on,36,26,0
2,note_on,36,0,166
2,note_on,48,22,0
2,note_on,48,0,240
2,note_on,60,24,0
2,note_on,60,0,240
2,note_on,64,25,0
2,note_on,64,0,120
2,note_on,36,25,106
2,note_on,36,0,60
2,note_on,38,25,60
2,note_on,38,0,60
2,note_on,40,25,60
2,note_on,40,0,60
2,note_on,29,26,60
2,note_on,29,0,166
2,note_on,41,22,0
2,note_on,41,0,240
2,note_on,53,26,0
2,note_on,53,0,240
2,note_on,65,25,0
2,note_on,65,0,120
2,note_on,38,25,106
2,note_on,38,0,60
2,note_on,40,25,60
2,note_on,40,0,60
2,note_on,41,25,60
2,note_on,41,0,60
2,note_on,31,26,60
2,note_on,31,0,166
2,note_on,43,22,0
2,note_on,43,0,240
2,note_on,55,27,0
2,note_on,55,0,240
2,note_on,67,28,0
2,note_on,67,0,120
2,note_on,31,25,106
2,note_on,31,0,60
2,note_on,33,25,60
2,note_on,33,0,60
2,note_on,35,25,60
2,note_on,35,0,60
2,note_on,36,26,60
2,note_on,36,0,205
2,note_on,48,22,0
2,note_on,48,0,240
2,note_on,60,27,0
2,note_on,60,0,240
2,note_on,36,25,83
2,note_on,36,0,60
2,note_on,36,25,60
2,note_on,36,0,60
2,note_on,38,25,60
2,note_on,38,0,60
2,note_on,36,26,60
2,note_on,36,0,169
2,note_on,55,22,0
2,note_on,55,0,240
2,note_on,67,27,0
2,note_on,67,0,240
2,note_on,36,25,92
2,note_on,36,0,60
2,note_on,36,25,60
2,note_on,36,0,60
2,note_on,38,25,60
2,note_on,38,0,60
2,note_on,36,26,60
2,note_on,36,0,166
2,note_on,55,22,0
2,note_on,55,0,240
2,note_on,67,27,0
2,note_on,67,0,240
2,note_on,36,25,106
2,note_on,36,0,60
2,note_on,36,25,60
2,note_on,36,0,60
2,note_on,38,25,60
2,note_on,38,0,60
2,note_on,36,26,60
2,note_on,36,0,166
2,note_on,55,22,0
2,note_on,55,0,240
2,note_on,67,27,0
2,note_on,67,0,240
2,note_on,36,25,106
2,note_on,36,0,60
2,note_on,36,25,60
2,note_on,36,0,60
2,note_on,38,25,60
2,note_on,38,0,60
2,note_on,36,26,60
2,note_on,36,0,187
2,note_on,55,22,0
2,note_on,55,0,240
2,note_on,67,27,0
2,note_on,67,0,240
2,note_on,36,25,92
2,note_on,36,0,60
2,note_on,36,25,60
2,note_on,36,0,60
2,note_on,38,25,60
2,note_on,38,0,60
2,note_on,35,26,60
2,note_on,35,0,169
2,note_on,47,22,0
2,note_on,47,0,240
2,note_on,59,27,0
2,note_on,59,0,240
2,note_on,35,25,92
2,note_on,35,0,60
2,note_on,35,25,60
2,note_on,35,0,60
2,note_on,37,25,60
2,note_on,37,0,60
2,note_on,35,26,60
2,note_on,35,0,85
2,note_on,47,22,120
2,note_on,47,0,240
2,note_on,59,27,0
2,note_on,59,0,240
2,note_on,35,25,106
2,note_on,35,0,60
2,note_on,35,25,60
2,note_on,35,0,60
2,note_on,37,25,60
2,note_on,37,0,60
2,note_on,35,26,60
2,note_on,35,0,46
2,note_on,47,22,120
2,note_on,47,0,240
2,note_on,59,27,0
2,note_on,59,0,240
2,note_on,35,25,106
2,note_on,35,0,60
2,note_on,35,25,60
2,note_on,35,0,60
2,note_on,37,25,60
2,note_on,37,0,60
2,note_on,35,26,60
2,note_on,35,0,67
2,note_on,47,22,120
2,note_on,47,0,240
2,note_on,59,27,0
2,note_on,59,0,240
2,note_on,35,26,92
2,note_on,35,0,60
2,note_on,35,26,60
2,note_on,35,0,60
2,note_on,37,26,60
2,note_on,37,0,60
2,note_on,35,29,60
2,note_on,35,0,46
2,note_on,47,37,120
2,note_on,47,0,240
2,note_on,59,43,0
2,note_on,59,0,240
2,note_on,35,32,106
2,note_on,35,0,60
2,note_on,35,33,60
2,note_on,35,0,60
2,note_on,37,33,60
2,note_on,37,0,60
2,note_on,35,37,60
2,note_on,35,0,46
2,note_on,47,47,120
2,note_on,47,0,240
2,note_on,59,56,0
2,note_on,59,0,240
2,note_on,35,40,106
2,note_on,35,0,60
2,note_on,35,41,60
2,note_on,35,0,60
2,note_on,37,43,60
2,note_on,37,0,60
2,note_on,35,46,60
2,note_on,35,0,85
2,note_on,47,52,120
2,note_on,47,0,240
2,note_on,59,60,0
2,note_on,59,0,240
2,note_on,35,33,11
2,note_on,35,0,60
2,note_on,35,32,60
2,note_on,35,0,60
2,note_on,37,33,60
2,note_on,37,0,60
2,note_on,35,34,60
2,note_on,35,0,56
2,note_on,47,30,120
2,note_on,47,0,240
2,note_on,59,31,0
2,note_on,59,0,240
2,note_on,37,26,169
2,note_on,37,0,81
2,note_on,49,22,120
2,note_on,49,0,240
2,note_on,61,26,0
2,note_on,61,0,240
2,note_on,37,25,106
2,note_on,37,0,60
2,note_on,39,25,60
2,note_on,39,0,60
2,note_on,40,25,60
2,note_on,40,0,60
2,note_on,30,24,60
2,note_on,30,0,80
2,note_on,42,24,120
2,note_on,42,0,240
2,note_on,54,27,0
2,note_on,66,30,237
2,note_on,54,0,3
2,note_on,66,0,237
2,note_on,30,25,106
2,note_on,30,0,60
2,note_on,29,25,60
2,note_on,29,0,60
2,note_on,30,25,60
2,note_on,30,0,60
2,note_on,32,24,60
2,note_on,32,0,57
2,note_on,44,22,120
2,note_on,44,0,240
2,note_on,56,27,0
2,note_on,56,0,240
2,note_on,32,25,106
2,note_on,32,0,60
2,note_on,31,25,60
2,note_on,31,0,60
2,note_on,32,25,60
2,note_on,32,0,60
2,note_on,37,26,60
2,note_on,37,0,85
2,note_on,44,22,120
2,note_on,44,0,240
2,note_on,49,27,0
2,note_on,49,0,240
2,note_on,37,25,0
2,note_on,37,0,60
2,note_on,37,25,60
2,note_on,37,0,60
2,note_on,36,25,60
2,note_on,36,0,60
2,note_on,37,20,60
2,note_on,37,0,166
2,note_on,49,20,0
2,note_on,49,0,240
2,note_on,61,23,0
2,note_on,61,0,240
2,note_on,37,20,106
2,note_on,37,0,60
2,note_on,39,20,60
2,note_on,39,0,60
2,note_on,41,20,60
2,note_on,41,0,60
2,note_on,30,19,60
2,note_on,30,0,166
2,note_on,42,20,0
2,note_on,42,0,240
2,note_on,54,23,0
2,note_on,54,0,240
2,note_on,39,20,106
2,note_on,39,0,60
2,note_on,41,20,60
2,note_on,41,0,60
2,note_on,42,20,60
2,note_on,42,0,60
2,note_on,32,19,60
2,note_on,32,0,166
2,note_on,44,17,0
2,note_on,44,0,240
2,note_on,56,21,0
2,note_on,56,0,240
2,note_on,32,20,106
2,note_on,32,0,60
2,note_on,34,22,60
2,note_on,34,0,60
2,note_on,36,22,60
2,note_on,36,0,60
2,note_on,37,22,60
2,note_on,37,0,205
2,note_on,44,19,0
2,note_on,44,0,240
2,note_on,49,22,0
2,note_on,49,0,240
2,note_on,49,25,0
2,note_on,49,0,60
2,note_on,48,25,60
2,note_on,48,0,60
2,note_on,49,25,60
2,note_on,49,0,60
2,note_on,46,26,0
2,note_on,46,0,205
2,note_on,46,25,18
2,note_on,46,0,60
2,note_on,46,25,60
2,note_on,46,0,60
2,note_on,49,25,60
2,note_on,49,0,60
2,note_on,45,26,60
2,note_on,45,0,205
2,note_on,45,25,4
2,note_on,45,0,60
2,note_on,45,25,60
2,note_on,45,0,60
2,note_on,49,25,60
2,note_on,49,0,60
2,note_on,44,26,60
2,note_on,44,0,205
2,note_on,44,25,23
2,note_on,44,0,60
2,note_on,43,25,60
2,note_on,43,0,60
2,note_on,44,25,60
2,note_on,44,0,60
2,note_on,37,26,60
2,note_on,37,0,205
2,note_on,49,27,0
2,note_on,49,0,120
2,note_on,37,22,32
2,note_on,37,0,60
2,note_on,36,22,60
2,note_on,36,0,60
2,note_on,37,22,60
2,note_on,37,0,60
2,note_on,34,22,0
2,note_on,34,0,85
2,note_on,46,24,120
2,note_on,46,0,120
2,note_on,34,21,18
2,note_on,34,0,60
2,note_on,34,21,60
2,note_on,34,0,60
2,note_on,37,21,60
2,note_on,37,0,60
2,note_on,33,22,60
2,note_on,33,0,85
2,note_on,45,24,120
2,note_on,45,0,120
2,note_on,33,21,4
2,note_on,33,0,60
2,note_on,33,21,60
2,note_on,33,0,60
2,note_on,35,21,60
2,note_on,35,0,60
2,note_on,32,22,60
2,note_on,32,0,85
2,note_on,44,24,120
2,note_on,44,0,120
2,note_on,56,24,120
2,note_on,56,0,480
2,note_on,32,21,23
2,note_on,32,0,60
2,note_on,31,21,60
2,note_on,31,0,60
2,note_on,32,21,60
2,note_on,32,0,60
2,note_on,61,25,60
2,note_on,56,21,0
2,note_on,53,21,0
2,note_on,37,22,0
2,note_on,37,0,85
2,note_on,49,22,120
2,note_on,49,0,120
2,note_on,37,21,32
2,note_on,37,0,60
2,note_on,61,0,60
2,note_on,56,0,0
2,note_on,53,0,0
2,note_on,37,21,0
2,note_on,37,0,60
2,note_on,36,21,60
2,note_on,36,0,60
2,note_on,61,25,60
2,note_on,58,21,0
2,note_on,54,21,0
2,note_on,37,22,0
2,note_on,37,0,85
2,note_on,49,22,120
2,note_on,49,0,120
2,note_on,37,21,32
2,note_on,37,0,60
2,note_on,61,0,60
2,note_on,58,0,0
2,note_on,54,0,0
2,note_on,37,21,0
2,note_on,37,0,60
2,note_on,36,21,60
2,note_on,36,0,60
2,note_on,61,25,60
2,note_on,54,21,0
2,note_on,51,21,0
2,note_on,37,22,0
2,note_on,37,0,85
2,note_on,49,22,120
2,note_on,49,0,120
2,note_on,37,21,32
2,note_on,37,0,60
2,note_on,61,0,60
2,note_on,54,0,0
2,note_on,51,0,0
2,note_on,37,21,0
2,note_on,37,0,60
2,note_on,36,21,60
2,note_on,36,0,60
2,note_on,37,22,60
2,note_on,53,21,0
2,note_on,56,21,0
2,note_on,61,25,0
2,note_on,37,0,198
2,note_on,53,0,240
2,note_on,56,0,0
2,note_on,61,0,0
2,note_on,53,18,0
2,note_on,56,18,0
2,note_on,61,22,0
2,note_on,61,0,480
2,note_on,56,0,0
2,note_on,53,0,0
2,note_on,53,18,0
2,note_on,56,18,0
2,note_on,61,22,0
2,note_on,32,18,240
2,note_on,32,0,60
2,note_on,53,0,180
2,note_on,56,0,0
2,note_on,61,0,0
2,note_on,37,19,0
2,note_on,53,18,0
2,note_on,56,18,0
2,note_on,61,22,0
2,note_on,61,0,1440
2,note_on,37,0,0
2,note_on,53,0,0
2,note_on,56,0,0
