Track,Message Type,Note,Velocity,Time
1,note_on,67,60,1
1,note_on,69,50,419
1,note_on,67,0,1
1,note_on,69,0,59
1,note_on,67,60,0
1,note_on,67,0,160
1,note_on,64,57,0
1,note_on,64,0,160
1,note_on,60,53,0
1,note_on,60,0,160
1,note_on,67,60,0
1,note_on,67,0,360
1,note_on,76,56,0
1,note_on,76,0,120
1,note_on,76,60,0
1,note_on,76,0,960
1,note_on,72,44,0
1,note_on,72,0,240
1,note_on,67,59,240
1,note_on,67,0,420
1,note_on,65,50,0
1,note_on,65,0,60
1,note_on,64,60,0
1,note_on,64,0,160
1,note_on,60,56,0
1,note_on,60,0,160
1,note_on,55,52,0
1,note_on,55,0,160
1,note_on,60,60,0
1,note_on,60,0,160
1,note_on,64,57,0
1,note_on,64,0,160
1,note_on,67,54,0
1,note_on,67,0,160
1,note_on,55,56,0
1,note_on,64,56,0
1,note_on,67,56,0
1,note_on,67,0,120
1,note_on,64,0,0
1,note_on,55,0,0
1,note_on,65,53,120
1,note_on,62,53,0
1,note_on,55,53,0
1,note_on,55,0,120
1,note_on,62,0,0
1,note_on,65,0,0
1,note_on,55,56,120
1,note_on,60,56,0
1,note_on,64,56,0
1,note_on,64,0,90
1,note_on,60,0,0
1,note_on,55,0,0
1,note_on,59,50,150
1,note_on,55,50,0
1,note_on,62,50,0
1,note_on,62,0,90
1,note_on,55,0,0
1,note_on,59,0,0
1,note_on,55,56,150
1,note_on,64,56,0
1,note_on,60,56,0
1,note_on,60,0,90
1,note_on,64,0,0
1,note_on,55,0,0
1,note_on,55,41,390
1,note_on,63,41,0
1,note_on,67,41,0
1,note_on,67,0,120
1,note_on,63,0,0
1,note_on,55,0,0
1,note_on,65,37,120
1,note_on,55,37,0
1,note_on,62,37,0
1,note_on,62,0,120
1,note_on,55,0,0
1,note_on,65,0,0
1,note_on,55,41,120
1,note_on,60,41,0
1,note_on,63,41,0
1,note_on,63,0,90
1,note_on,60,0,0
1,note_on,55,0,0
1,note_on,62,38,150
1,note_on,55,38,0
1,note_on,59,38,0
1,note_on,59,0,90
1,note_on,55,0,0
1,note_on,62,0,0
1,note_on,55,43,150
1,note_on,60,43,0
1,note_on,63,43,0
1,note_on,63,0,90
1,note_on,60,0,0
1,note_on,55,0,0
1,note_on,65,38,150
1,note_on,58,38,0
1,note_on,62,38,0
1,note_on,62,0,90
1,note_on,58,0,0
1,note_on,65,0,0
1,note_on,58,53,150
1,note_on,62,53,0
1,note_on,65,53,0
1,note_on,65,0,240
1,note_on,62,0,0
1,note_on,58,0,0
1,note_on,63,49,0
1,note_on,58,49,0
1,note_on,67,49,0
1,note_on,67,0,180
1,note_on,58,0,0
1,note_on,63,0,0
1,note_on,58,58,60
1,note_on,67,58,0
1,note_on,63,58,0
1,note_on,63,0,240
1,note_on,67,0,0
1,note_on,58,0,0
1,note_on,62,53,0
1,note_on,66,53,0
1,note_on,69,53,0
1,note_on,69,0,180
1,note_on,66,0,0
1,note_on,62,0,0
1,note_on,69,63,60
1,note_on,66,63,0
1,note_on,62,63,0
1,note_on,62,0,240
1,note_on,66,0,0
1,note_on,69,0,0
1,note_on,62,58,0
1,note_on,67,58,0
1,note_on,70,58,0
1,note_on,70,0,180
1,note_on,67,0,0
1,note_on,62,0,0
1,note_on,70,68,60
1,note_on,62,68,0
1,note_on,67,68,0
1,note_on,67,0,240
1,note_on,62,0,0
1,note_on,70,0,0
1,note_on,62,66,0
1,note_on,67,66,0
1,note_on,71,66,0
1,note_on,71,0,240
1,note_on,67,0,0
1,note_on,62,0,0
1,note_on,67,71,0
1,note_on,62,71,0
1,note_on,71,71,0
1,note_on,71,0,720
1,note_on,62,0,0
1,note_on,67,0,0
1,note_on,65,54,0
1,note_on,77,54,0
1,note_on,71,54,0
1,note_on,71,0,240
1,note_on,77,0,0
1,note_on,65,0,0
1,note_on,64,54,0
1,note_on,72,54,0
1,note_on,76,54,0
1,note_on,76,0,1440
1,note_on,72,0,0
1,note_on,64,0,0
1,note_on,67,60,0
1,note_on,67,0,420
1,note_on,69,50,0
1,note_on,69,0,60
1,note_on,67,60,0
1,note_on,67,0,160
1,note_on,64,57,0
1,note_on,64,0,160
1,note_on,60,53,0
1,note_on,60,0,160
1,note_on,67,60,0
1,note_on,67,0,360
1,note_on,76,56,0
1,note_on,76,0,120
1,note_on,76,60,0
1,note_on,76,0,960
1,note_on,72,44,0
1,note_on,72,0,240
1,note_on,67,59,240
1,note_on,67,0,420
1,note_on,65,50,0
1,note_on,65,0,60
1,note_on,64,60,0
1,note_on,64,0,160
1,note_on,60,56,0
1,note_on,60,0,160
1,note_on,55,52,0
1,note_on,55,0,160
1,note_on,60,60,0
1,note_on,60,0,160
1,note_on,64,57,0
1,note_on,64,0,160
1,note_on,67,57,0
1,note_on,67,0,160
1,note_on,55,56,0
1,note_on,64,56,0
1,note_on,67,56,0
1,note_on,67,0,120
1,note_on,64,0,0
1,note_on,55,0,0
1,note_on,55,53,120
1,note_on,62,53,0
1,note_on,65,53,0
1,note_on,65,0,120
1,note_on,62,0,0
1,note_on,55,0,0
1,note_on,55,56,120
1,note_on,60,56,0
1,note_on,64,56,0
1,note_on,64,0,90
1,note_on,60,0,0
1,note_on,55,0,0
1,note_on,55,50,150
1,note_on,59,50,0
1,note_on,62,50,0
1,note_on,62,0,90
1,note_on,59,0,0
1,note_on,55,0,0
1,note_on,55,56,150
1,note_on,60,56,0
1,note_on,64,56,0
1,note_on,64,0,90
1,note_on,60,0,0
1,note_on,55,0,0
1,note_on,55,41,390
1,note_on,63,41,0
1,note_on,67,41,0
1,note_on,67,0,120
1,note_on,63,0,0
1,note_on,55,0,0
1,note_on,55,37,120
1,note_on,62,37,0
1,note_on,65,37,0
1,note_on,65,0,120
1,note_on,62,0,0
1,note_on,55,0,0
1,note_on,55,41,120
1,note_on,60,41,0
1,note_on,63,41,0
1,note_on,63,0,90
1,note_on,60,0,0
1,note_on,55,0,0
1,note_on,55,38,150
1,note_on,59,38,0
1,note_on,62,38,0
1,note_on,62,0,90
1,note_on,59,0,0
1,note_on,55,0,0
1,note_on,55,45,150
1,note_on,60,45,0
1,note_on,63,45,0
1,note_on,63,0,90
1,note_on,60,0,0
1,note_on,55,0,0
1,note_on,58,41,150
1,note_on,62,41,0
1,note_on,65,41,0
1,note_on,65,0,120
1,note_on,62,0,0
1,note_on,58,0,0
1,note_on,58,51,120
1,note_on,62,51,0
1,note_on,65,51,0
1,note_on,65,0,240
1,note_on,62,0,0
1,note_on,58,0,0
1,note_on,58,48,0
1,note_on,63,48,0
1,note_on,67,48,0
1,note_on,67,0,180
1,note_on,63,0,0
1,note_on,58,0,0
1,note_on,58,57,60
1,note_on,63,57,0
1,note_on,67,57,0
1,note_on,67,0,240
1,note_on,63,0,0
1,note_on,58,0,0
1,note_on,62,54,0
1,note_on,66,54,0
1,note_on,69,54,0
1,note_on,69,0,180
1,note_on,66,0,0
1,note_on,62,0,0
1,note_on,62,64,60
1,note_on,66,64,0
1,note_on,69,64,0
1,note_on,69,0,240
1,note_on,66,0,0
1,note_on,62,0,0
1,note_on,62,57,0
1,note_on,67,57,0
1,note_on,70,57,0
1,note_on,70,0,180
1,note_on,67,0,0
1,note_on,62,0,0
1,note_on,62,66,60
1,note_on,67,66,0
1,note_on,70,66,0
1,note_on,70,0,240
1,note_on,67,0,0
1,note_on,62,0,0
1,note_on,62,66,0
1,note_on,67,66,0
1,note_on,71,66,0
1,note_on,71,0,240
1,note_on,67,0,0
1,note_on,62,0,0
1,note_on,62,69,0
1,note_on,67,69,0
1,note_on,71,69,0
1,note_on,71,0,720
1,note_on,67,0,0
1,note_on,62,0,0
1,note_on,65,54,0
1,note_on,71,54,0
1,note_on,77,54,0
1,note_on,77,0,240
1,note_on,71,0,0
1,note_on,65,0,0
1,note_on,64,54,0
1,note_on,72,54,0
1,note_on,76,54,0
1,note_on,76,0,1440
1,note_on,72,0,0
1,note_on,64,0,0
1,note_on,76,54,0
1,note_on,76,0,420
1,note_on,77,44,0
1,note_on,77,0,60
1,note_on,76,54,0
1,note_on,76,0,160
1,note_on,72,50,0
1,note_on,72,0,160
1,note_on,69,47,0
1,note_on,69,0,100
1,note_on,74,44,0
1,note_on,74,0,60
1,note_on,72,54,0
1,note_on,72,0,160
1,note_on,69,51,0
1,note_on,69,0,160
1,note_on,64,47,0
1,note_on,64,0,160
1,note_on,64,54,0
1,note_on,69,54,0
1,note_on,72,54,0
1,note_on,72,0,240
1,note_on,69,0,0
1,note_on,68,43,0
1,note_on,71,51,0
1,note_on,71,0,240
1,note_on,68,0,0
1,note_on,64,0,0
1,note_on,68,45,0
1,note_on,64,45,0
1,note_on,71,54,0
1,note_on,71,0,240
1,note_on,64,0,0
1,note_on,68,0,0
1,note_on,66,43,0
1,note_on,64,43,0
1,note_on,69,51,0
1,note_on,69,0,240
1,note_on,64,0,0
1,note_on,66,0,0
1,note_on,64,45,0
1,note_on,68,45,0
1,note_on,71,54,0
1,note_on,71,0,480
1,note_on,68,0,0
1,note_on,64,0,0
1,note_on,64,45,0
1,note_on,67,45,0
1,note_on,72,54,0
1,note_on,72,0,240
1,note_on,71,51,0
1,note_on,71,0,240
1,note_on,67,0,0
1,note_on,64,0,0
1,note_on,64,45,0
1,note_on,67,45,0
1,note_on,71,54,0
1,note_on,71,0,240
1,note_on,67,0,0
1,note_on,64,0,0
1,note_on,64,44,0
1,note_on,67,44,0
1,note_on,72,52,0
1,note_on,72,0,240
1,note_on,67,0,0
1,note_on,64,0,0
1,note_on,67,45,0
1,note_on,71,54,0
1,note_on,71,0,240
1,note_on,77,53,0
1,note_on,77,0,240
1,note_on,67,0,0
1,note_on,76,54,0
1,note_on,76,0,420
1,note_on,74,43,0
1,note_on,74,0,60
1,note_on,72,53,0
1,note_on,72,0,160
1,note_on,71,51,0
1,note_on,71,0,160
1,note_on,69,52,0
1,note_on,69,0,160
1,note_on,71,55,0
1,note_on,71,0,480
1,note_on,71,68,0
1,note_on,71,0,420
1,note_on,72,58,0
1,note_on,72,0,60
1,note_on,71,68,0
1,note_on,71,0,160
1,note_on,67,66,0
1,note_on,67,0,160
1,note_on,64,64,0
1,note_on,64,0,120
1,note_on,79,82,40
1,note_on,79,0,240
1,note_on,76,72,0
1,note_on,76,0,90
1,note_on,71,70,150
1,note_on,71,0,420
1,note_on,72,60,0
1,note_on,72,0,60
1,note_on,71,71,0
1,note_on,71,0,160
1,note_on,67,69,0
1,note_on,67,0,160
1,note_on,64,66,0
1,note_on,64,0,120
1,note_on,79,85,40
1,note_on,79,0,240
1,note_on,76,74,0
1,note_on,76,0,90
1,note_on,83,90,150
1,note_on,75,90,0
1,note_on,78,90,0
1,note_on,78,0,240
1,note_on,75,0,0
1,note_on,83,0,0
1,note_on,71,87,0
1,note_on,71,0,90
1,note_on,81,70,90
1,note_on,81,0,60
1,note_on,79,87,0
1,note_on,79,0,160
1,note_on,78,83,0
1,note_on,78,0,160
1,note_on,76,78,0
1,note_on,76,0,160
1,note_on,83,93,0
1,note_on,75,93,0
1,note_on,78,93,0
1,note_on,78,0,240
1,note_on,75,0,0
1,note_on,83,0,0
1,note_on,71,86,0
1,note_on,71,0,90
1,note_on,81,74,90
1,note_on,81,0,60
1,note_on,79,89,0
1,note_on,79,0,160
1,note_on,78,85,0
1,note_on,78,0,160
1,note_on,76,82,0
1,note_on,76,0,160
1,note_on,83,95,0
1,note_on,75,95,0
1,note_on,78,95,0
1,note_on,78,0,240
1,note_on,75,0,0
1,note_on,83,0,0
1,note_on,71,89,0
1,note_on,71,0,90
1,note_on,95,117,150
1,note_on,95,0,240
1,note_on,83,93,0
1,note_on,83,0,90
1,note_on,79,45,1590
1,note_on,79,0,240
1,note_on,76,30,0
1,note_on,76,0,120
1,note_on,79,43,120
1,note_on,79,0,240
1,note_on,76,31,0
1,note_on,76,0,120
1,note_on,79,42,120
1,note_on,79,0,240
1,note_on,76,31,0
1,note_on,76,0,120
1,note_on,79,41,120
1,note_on,79,0,240
1,note_on,76,29,0
1,note_on,76,0,120
1,note_on,79,38,120
1,note_on,79,0,240
1,note_on,76,27,0
1,note_on,76,0,120
1,note_on,79,37,120
1,note_on,79,0,240
1,note_on,76,26,0
1,note_on,76,0,120
1,note_on,79,36,120
1,note_on,76,36,0
1,note_on,76,0,240
1,note_on,79,0,0
1,note_on,67,27,0
1,note_on,67,0,120
1,note_on,76,36,120
1,note_on,79,36,0
1,note_on,79,0,240
1,note_on,76,0,0
1,note_on,67,27,0
1,note_on,67,0,120
1,note_on,76,36,120
1,note_on,79,36,0
1,note_on,79,0,240
1,note_on,76,0,0
1,note_on,67,27,0
1,note_on,67,0,120
1,note_on,76,38,120
1,note_on,79,38,0
1,note_on,79,0,240
1,note_on,76,0,0
1,note_on,67,29,0
1,note_on,67,0,120
1,note_on,76,38,120
1,note_on,79,38,0
1,note_on,79,0,240
1,note_on,76,0,0
1,note_on,67,27,0
1,note_on,67,0,120
1,note_on,76,34,120
1,note_on,79,34,0
1,note_on,79,0,240
1,note_on,76,0,0
1,note_on,67,26,0
1,note_on,67,0,120
1,note_on,67,51,120
1,note_on,67,0,420
1,note_on,69,48,0
1,note_on,69,0,60
1,note_on,67,57,0
1,note_on,67,0,160
1,note_on,64,53,0
1,note_on,64,0,160
1,note_on,60,46,0
1,note_on,60,0,160
1,note_on,67,57,0
1,note_on,67,0,360
1,note_on,76,52,0
1,note_on,76,0,120
1,note_on,76,57,0
1,note_on,76,0,960
1,note_on,72,35,0
1,note_on,72,0,240
1,note_on,79,72,240
1,note_on,79,0,420
1,note_on,77,56,0
1,note_on,77,0,60
1,note_on,76,68,0
1,note_on,76,0,160
1,note_on,72,63,0
1,note_on,72,0,160
1,note_on,67,59,0
1,note_on,67,0,160
1,note_on,72,69,0
1,note_on,72,0,160
1,note_on,76,65,0
1,note_on,76,0,160
1,note_on,79,61,0
1,note_on,79,0,160
1,note_on,67,70,0
1,note_on,76,70,0
1,note_on,79,70,0
1,note_on,79,0,120
1,note_on,76,0,0
1,note_on,67,0,0
1,note_on,67,66,120
1,note_on,74,66,0
1,note_on,77,66,0
1,note_on,77,0,120
1,note_on,74,0,0
1,note_on,67,0,0
1,note_on,67,70,120
1,note_on,72,70,0
1,note_on,76,70,0
1,note_on,76,0,90
1,note_on,72,0,0
1,note_on,67,0,0
1,note_on,67,63,150
1,note_on,71,63,0
1,note_on,74,63,0
1,note_on,74,0,90
1,note_on,71,0,0
1,note_on,67,0,0
1,note_on,67,70,150
1,note_on,72,70,0
1,note_on,76,70,0
1,note_on,76,0,90
1,note_on,72,0,0
1,note_on,67,0,0
1,note_on,67,45,390
1,note_on,67,0,240
1,note_on,69,41,0
1,note_on,69,0,120
1,note_on,71,41,0
1,note_on,71,0,120
1,note_on,72,45,0
1,note_on,72,0,90
1,note_on,67,39,150
1,note_on,67,0,90
1,note_on,72,48,150
1,note_on,72,0,90
1,note_on,70,67,150
1,note_on,82,67,0
1,note_on,82,0,120
1,note_on,70,0,0
1,note_on,70,68,120
1,note_on,82,68,0
1,note_on,82,0,120
1,note_on,70,0,0
1,note_on,87,73,120
1,note_on,75,73,0
1,note_on,75,0,120
1,note_on,87,0,0
1,note_on,87,78,120
1,note_on,75,78,0
1,note_on,75,0,120
1,note_on,87,0,0
1,note_on,86,74,120
1,note_on,74,74,0
1,note_on,74,0,120
1,note_on,86,0,0
1,note_on,74,81,120
1,note_on,86,81,0
1,note_on,86,0,120
1,note_on,74,0,0
1,note_on,91,79,120
1,note_on,79,79,0
1,note_on,79,0,120
1,note_on,91,0,0
1,note_on,79,83,120
1,note_on,91,83,0
1,note_on,91,0,120
1,note_on,79,0,0
1,note_on,89,70,120
1,note_on,77,70,0
1,note_on,77,0,120
1,note_on,89,0,0
1,note_on,89,66,120
1,note_on,77,66,0
1,note_on,77,0,720
1,note_on,89,0,0
1,note_on,71,50,0
1,note_on,83,50,0
1,note_on,83,0,240
1,note_on,71,0,0
1,note_on,84,45,0
1,note_on,72,45,0
1,note_on,72,0,1440
1,note_on,84,0,0
1,note_on,76,54,0
1,note_on,76,0,420
1,note_on,77,44,0
1,note_on,77,0,60
1,note_on,76,54,0
1,note_on,76,0,160
1,note_on,72,50,0
1,note_on,72,0,160
1,note_on,69,47,0
1,note_on,69,0,100
1,note_on,74,44,0
1,note_on,74,0,60
1,note_on,72,54,0
1,note_on,72,0,160
1,note_on,69,51,0
1,note_on,69,0,160
1,note_on,64,47,0
1,note_on,64,0,160
1,note_on,64,45,0
1,note_on,69,45,0
1,note_on,72,54,0
1,note_on,72,0,240
1,note_on,69,0,0
1,note_on,68,43,0
1,note_on,71,51,0
1,note_on,71,0,240
1,note_on,68,0,0
1,note_on,64,0,0
1,note_on,68,45,0
1,note_on,64,45,0
1,note_on,71,54,0
1,note_on,71,0,240
1,note_on,64,0,0
1,note_on,68,0,0
1,note_on,66,43,0
1,note_on,64,43,0
1,note_on,69,51,0
1,note_on,69,0,240
1,note_on,64,0,0
1,note_on,66,0,0
1,note_on,64,45,0
1,note_on,68,45,0
1,note_on,71,54,0
1,note_on,71,0,480
1,note_on,68,0,0
1,note_on,64,0,0
1,note_on,64,45,0
1,note_on,67,45,0
1,note_on,72,54,0
1,note_on,72,0,240
1,note_on,71,51,0
1,note_on,71,0,240
1,note_on,67,0,0
1,note_on,64,0,0
1,note_on,64,45,0
1,note_on,67,45,0
1,note_on,71,54,0
1,note_on,71,0,240
1,note_on,67,0,0
1,note_on,64,0,0
1,note_on,64,44,0
1,note_on,67,44,0
1,note_on,72,52,0
1,note_on,72,0,240
1,note_on,67,0,0
1,note_on,64,0,0
1,note_on,67,45,0
1,note_on,71,54,0
1,note_on,71,0,240
1,note_on,77,53,0
1,note_on,77,0,240
1,note_on,67,0,0
1,note_on,76,54,0
1,note_on,76,0,420
1,note_on,74,43,0
1,note_on,74,0,60
1,note_on,72,53,0
1,note_on,72,0,160
1,note_on,71,51,0
1,note_on,71,0,160
1,note_on,69,52,0
1,note_on,69,0,160
1,note_on,71,55,0
1,note_on,71,0,480
1,note_on,71,68,0
1,note_on,71,0,420
1,note_on,72,58,0
1,note_on,72,0,60
1,note_on,71,68,0
1,note_on,71,0,160
1,note_on,67,66,0
1,note_on,67,0,160
1,note_on,64,64,0
1,note_on,64,0,120
1,note_on,79,82,40
1,note_on,79,0,240
1,note_on,76,72,0
1,note_on,76,0,90
1,note_on,71,70,150
1,note_on,71,0,420
1,note_on,72,56,0
1,note_on,72,0,60
1,note_on,71,71,0
1,note_on,71,0,160
1,note_on,67,69,0
1,note_on,67,0,160
1,note_on,64,66,0
1,note_on,64,0,120
1,note_on,79,85,40
1,note_on,79,0,240
1,note_on,76,74,0
1,note_on,76,0,90
1,note_on,83,90,150
1,note_on,75,90,0
1,note_on,78,90,0
1,note_on,78,0,240
1,note_on,75,0,0
1,note_on,83,0,0
1,note_on,71,87,0
1,note_on,71,0,90
1,note_on,81,71,90
1,note_on,81,0,60
1,note_on,79,87,0
1,note_on,79,0,160
1,note_on,78,83,0
1,note_on,78,0,160
1,note_on,76,78,0
1,note_on,76,0,160
1,note_on,83,93,0
1,note_on,75,93,0
1,note_on,78,93,0
1,note_on,78,0,240
1,note_on,75,0,0
1,note_on,83,0,0
1,note_on,71,86,0
1,note_on,71,0,90
1,note_on,81,74,90
1,note_on,81,0,60
1,note_on,79,89,0
1,note_on,79,0,160
1,note_on,78,85,0
1,note_on,78,0,160
1,note_on,76,82,0
1,note_on,76,0,160
1,note_on,83,95,0
1,note_on,75,95,0
1,note_on,78,95,0
1,note_on,78,0,240
1,note_on,75,0,0
1,note_on,83,0,0
1,note_on,71,89,0
1,note_on,71,0,90
1,note_on,95,114,150
1,note_on,95,0,240
1,note_on,83,93,0
1,note_on,83,0,90
1,note_on,79,45,1590
1,note_on,79,0,240
1,note_on,76,30,0
1,note_on,76,0,120
1,note_on,79,43,120
1,note_on,79,0,240
1,note_on,76,31,0
1,note_on,76,0,120
1,note_on,79,42,120
1,note_on,79,0,240
1,note_on,76,31,0
1,note_on,76,0,120
1,note_on,79,41,120
1,note_on,79,0,240
1,note_on,76,29,0
1,note_on,76,0,120
1,note_on,79,38,120
1,note_on,79,0,240
1,note_on,76,27,0
1,note_on,76,0,120
1,note_on,79,37,120
1,note_on,79,0,240
1,note_on,76,26,0
1,note_on,76,0,120
1,note_on,79,36,120
1,note_on,76,36,0
1,note_on,76,0,240
1,note_on,79,0,0
1,note_on,67,27,0
1,note_on,67,0,120
1,note_on,76,36,120
1,note_on,79,36,0
1,note_on,79,0,240
1,note_on,76,0,0
1,note_on,67,27,0
1,note_on,67,0,120
1,note_on,76,36,120
1,note_on,79,36,0
1,note_on,79,0,240
1,note_on,76,0,0
1,note_on,67,27,0
1,note_on,67,0,120
1,note_on,76,38,120
1,note_on,79,38,0
1,note_on,79,0,240
1,note_on,76,0,0
1,note_on,67,29,0
1,note_on,67,0,120
1,note_on,76,38,120
1,note_on,79,38,0
1,note_on,79,0,240
1,note_on,76,0,0
1,note_on,67,27,0
1,note_on,67,0,120
1,note_on,76,34,120
1,note_on,79,34,0
1,note_on,79,0,240
1,note_on,76,0,0
1,note_on,67,26,0
1,note_on,67,0,120
1,note_on,67,51,120
1,note_on,67,0,420
1,note_on,69,48,0
1,note_on,69,0,60
1,note_on,67,57,0
1,note_on,67,0,160
1,note_on,64,53,0
1,note_on,64,0,160
1,note_on,60,46,0
1,note_on,60,0,160
1,note_on,67,57,0
1,note_on,67,0,360
1,note_on,76,52,0
1,note_on,76,0,120
1,note_on,76,57,0
1,note_on,76,0,960
1,note_on,72,35,0
1,note_on,72,0,240
1,note_on,79,72,240
1,note_on,79,0,420
1,note_on,77,56,0
1,note_on,77,0,60
1,note_on,76,68,0
1,note_on,76,0,160
1,note_on,72,63,0
1,note_on,72,0,160
1,note_on,67,59,0
1,note_on,67,0,160
1,note_on,72,69,0
1,note_on,72,0,160
1,note_on,76,65,0
1,note_on,76,0,160
1,note_on,79,61,0
1,note_on,79,0,160
1,note_on,67,70,0
1,note_on,76,70,0
1,note_on,79,70,0
1,note_on,79,0,120
1,note_on,76,0,0
1,note_on,67,0,0
1,note_on,67,66,120
1,note_on,74,66,0
1,note_on,77,66,0
1,note_on,77,0,120
1,note_on,74,0,0
1,note_on,67,0,0
1,note_on,67,70,120
1,note_on,72,70,0
1,note_on,76,70,0
1,note_on,76,0,90
1,note_on,72,0,0
1,note_on,67,0,0
1,note_on,67,63,150
1,note_on,71,63,0
1,note_on,74,63,0
1,note_on,74,0,90
1,note_on,71,0,0
1,note_on,67,0,0
1,note_on,67,70,150
1,note_on,72,70,0
1,note_on,76,70,0
1,note_on,76,0,90
1,note_on,72,0,0
1,note_on,67,0,0
1,note_on,67,45,390
1,note_on,67,0,240
1,note_on,69,41,0
1,note_on,69,0,120
1,note_on,71,41,0
1,note_on,71,0,120
1,note_on,72,45,0
1,note_on,72,0,90
1,note_on,67,39,150
1,note_on,67,0,90
1,note_on,72,48,150
1,note_on,72,0,90
1,note_on,70,64,150
1,note_on,82,64,0
1,note_on,82,0,120
1,note_on,70,0,0
1,note_on,70,66,120
1,note_on,82,66,0
1,note_on,82,0,120
1,note_on,70,0,0
1,note_on,87,71,120
1,note_on,75,71,0
1,note_on,75,0,120
1,note_on,87,0,0
1,note_on,87,74,120
1,note_on,75,74,0
1,note_on,75,0,120
1,note_on,87,0,0
1,note_on,86,70,120
1,note_on,74,70,0
1,note_on,74,0,120
1,note_on,86,0,0
1,note_on,74,79,120
1,note_on,86,79,0
1,note_on,86,0,120
1,note_on,74,0,0
1,note_on,91,81,120
1,note_on,79,81,0
1,note_on,79,0,120
1,note_on,91,0,0
1,note_on,79,85,120
1,note_on,91,85,0
1,note_on,91,0,120
1,note_on,79,0,0
1,note_on,89,70,120
1,note_on,77,70,0
1,note_on,77,0,120
1,note_on,89,0,0
1,note_on,89,66,120
1,note_on,77,66,0
1,note_on,77,0,720
1,note_on,89,0,0
1,note_on,71,50,0
1,note_on,83,50,0
1,note_on,83,0,240
1,note_on,71,0,0
1,note_on,84,45,0
1,note_on,72,45,0
1,note_on,72,0,1410
1,note_on,84,0,0
1,note_on,67,50,30
1,note_on,67,0,160
1,note_on,62,40,0
1,note_on,62,0,160
1,note_on,59,34,0
1,note_on,59,0,160
1,note_on,67,47,0
1,note_on,67,0,160
1,note_on,62,37,0
1,note_on,62,0,160
1,note_on,59,32,0
1,note_on,59,0,160
1,note_on,66,47,0
1,note_on,66,0,160
1,note_on,62,38,0
1,note_on,62,0,160
1,note_on,57,33,0
1,note_on,57,0,160
1,note_on,69,50,0
1,note_on,69,0,160
1,note_on,62,41,0
1,note_on,62,0,160
1,note_on,60,33,0
1,note_on,60,0,160
1,note_on,69,48,0
1,note_on,69,0,160
1,note_on,62,38,0
1,note_on,62,0,160
1,note_on,60,30,0
1,note_on,60,0,160
1,note_on,67,48,0
1,note_on,67,0,160
1,note_on,62,38,0
1,note_on,62,0,160
1,note_on,59,31,0
1,note_on,59,0,160
1,note_on,67,47,0
1,note_on,67,0,160
1,note_on,62,38,0
1,note_on,62,0,160
1,note_on,59,31,0
1,note_on,59,0,160
1,note_on,62,47,0
1,note_on,66,47,0
1,note_on,69,56,0
1,note_on,69,0,240
1,note_on,66,0,0
1,note_on,62,0,0
1,note_on,62,51,0
1,note_on,67,51,0
1,note_on,71,61,0
1,note_on,71,0,240
1,note_on,67,0,0
1,note_on,62,0,0
1,note_on,62,55,0
1,note_on,69,55,0
1,note_on,72,64,0
1,note_on,72,0,360
1,note_on,69,0,0
1,note_on,62,0,0
1,note_on,62,49,0
1,note_on,67,49,0
1,note_on,71,59,0
1,note_on,71,0,120
1,note_on,67,0,0
1,note_on,62,0,0
1,note_on,62,45,0
1,note_on,67,45,0
1,note_on,71,53,0
1,note_on,71,0,480
1,note_on,67,0,0
1,note_on,62,0,0
1,note_on,62,31,0
1,note_on,66,31,0
1,note_on,69,37,0
1,note_on,69,0,240
1,note_on,66,0,0
1,note_on,62,0,0
1,note_on,62,29,0
1,note_on,64,29,0
1,note_on,67,35,0
1,note_on,67,0,240
1,note_on,64,0,0
1,note_on,62,0,0
1,note_on,62,31,0
1,note_on,66,31,0
1,note_on,69,37,0
1,note_on,69,0,480
1,note_on,66,0,0
1,note_on,62,0,0
1,note_on,74,53,0
1,note_on,67,50,0
1,note_on,67,0,160
1,note_on,62,40,0
1,note_on,62,0,160
1,note_on,71,34,0
1,note_on,71,0,160
1,note_on,67,47,0
1,note_on,67,0,160
1,note_on,62,37,0
1,note_on,62,0,160
1,note_on,71,32,0
1,note_on,71,0,160
1,note_on,66,47,0
1,note_on,66,0,160
1,note_on,62,38,0
1,note_on,62,0,160
1,note_on,69,33,0
1,note_on,69,0,160
1,note_on,74,0,0
1,note_on,74,53,0
1,note_on,69,50,0
1,note_on,69,0,160
1,note_on,62,41,0
1,note_on,62,0,160
1,note_on,72,33,0
1,note_on,72,0,160
1,note_on,69,48,0
1,note_on,69,0,160
1,note_on,62,38,0
1,note_on,62,0,160
1,note_on,72,30,0
1,note_on,72,0,160
1,note_on,67,48,0
1,note_on,67,0,160
1,note_on,62,38,0
1,note_on,62,0,160
1,note_on,71,31,0
1,note_on,71,0,160
1,note_on,74,0,0
1,note_on,62,70,0
1,note_on,62,0,240
1,note_on,74,68,0
1,note_on,74,0,240
1,note_on,64,56,0
1,note_on,76,66,0
1,note_on,76,0,240
1,note_on,64,0,0
1,note_on,66,61,0
1,note_on,78,72,0
1,note_on,78,0,240
1,note_on,66,0,0
1,note_on,67,69,0
1,note_on,79,82,0
1,note_on,79,0,360
1,note_on,67,0,0
1,note_on,62,46,0
1,note_on,67,46,0
1,note_on,71,55,0
1,note_on,71,0,120
1,note_on,67,0,0
1,note_on,62,0,0
1,note_on,62,51,0
1,note_on,71,51,0
1,note_on,74,61,0
1,note_on,74,0,480
1,note_on,71,0,0
1,note_on,62,0,0
1,note_on,62,42,0
1,note_on,66,42,0
1,note_on,72,50,0
1,note_on,72,0,360
1,note_on,66,0,0
1,note_on,62,0,0
1,note_on,62,37,0
1,note_on,67,37,0
1,note_on,71,44,0
1,note_on,71,0,120
1,note_on,67,0,0
1,note_on,62,0,0
1,note_on,62,34,0
1,note_on,67,34,0
1,note_on,71,41,0
1,note_on,71,0,480
1,note_on,67,0,0
1,note_on,62,0,0
1,note_on,67,50,0
1,note_on,67,0,160
1,note_on,62,40,0
1,note_on,62,0,160
1,note_on,59,34,0
1,note_on,59,0,160
1,note_on,67,47,0
1,note_on,67,0,160
1,note_on,62,37,0
1,note_on,62,0,160
1,note_on,59,32,0
1,note_on,59,0,160
1,note_on,66,47,0
1,note_on,66,0,160
1,note_on,62,38,0
1,note_on,62,0,160
1,note_on,57,33,0
1,note_on,57,0,160
1,note_on,69,50,0
1,note_on,69,0,160
1,note_on,62,41,0
1,note_on,62,0,160
1,note_on,60,33,0
1,note_on,60,0,160
1,note_on,69,48,0
1,note_on,69,0,160
1,note_on,62,38,0
1,note_on,62,0,160
1,note_on,60,30,0
1,note_on,60,0,160
1,note_on,67,48,0
1,note_on,67,0,160
1,note_on,62,38,0
1,note_on,62,0,160
1,note_on,59,31,0
1,note_on,59,0,160
1,note_on,67,47,0
1,note_on,67,0,160
1,note_on,62,38,0
1,note_on,62,0,160
1,note_on,59,31,0
1,note_on,59,0,160
1,note_on,62,49,0
1,note_on,66,49,0
1,note_on,69,59,0
1,note_on,69,0,240
1,note_on,66,0,0
1,note_on,62,0,0
1,note_on,62,51,0
1,note_on,67,51,0
1,note_on,71,61,0
1,note_on,71,0,240
1,note_on,67,0,0
1,note_on,62,0,0
1,note_on,62,53,0
1,note_on,69,53,0
1,note_on,72,63,0
1,note_on,72,0,360
1,note_on,69,0,0
1,note_on,62,0,0
1,note_on,62,49,0
1,note_on,67,49,0
1,note_on,71,59,0
1,note_on,71,0,120
1,note_on,67,0,0
1,note_on,62,0,0
1,note_on,62,45,0
1,note_on,67,45,0
1,note_on,71,53,0
1,note_on,71,0,480
1,note_on,67,0,0
1,note_on,62,0,0
1,note_on,62,31,0
1,note_on,66,31,0
1,note_on,69,37,0
1,note_on,69,0,240
1,note_on,66,0,0
1,note_on,62,0,0
1,note_on,62,29,0
1,note_on,64,29,0
1,note_on,67,29,0
1,note_on,67,0,240
1,note_on,64,0,0
1,note_on,62,0,0
1,note_on,62,31,0
1,note_on,66,31,0
1,note_on,69,37,0
1,note_on,69,0,480
1,note_on,66,0,0
1,note_on,62,0,0
1,note_on,74,53,0
1,note_on,67,50,0
1,note_on,67,0,160
1,note_on,62,40,0
1,note_on,62,0,160
1,note_on,71,34,0
1,note_on,71,0,160
1,note_on,67,47,0
1,note_on,67,0,160
1,note_on,62,37,0
1,note_on,62,0,160
1,note_on,71,32,0
1,note_on,71,0,160
1,note_on,66,47,0
1,note_on,66,0,160
1,note_on,62,38,0
1,note_on,62,0,160
1,note_on,69,33,0
1,note_on,69,0,160
1,note_on,74,0,0
1,note_on,74,53,0
1,note_on,69,50,0
1,note_on,69,0,160
1,note_on,62,41,0
1,note_on,62,0,160
1,note_on,72,33,0
1,note_on,72,0,160
1,note_on,69,48,0
1,note_on,69,0,160
1,note_on,62,38,0
1,note_on,62,0,160
1,note_on,72,30,0
1,note_on,72,0,160
1,note_on,67,48,0
1,note_on,67,0,160
1,note_on,62,38,0
1,note_on,62,0,160
1,note_on,71,31,0
1,note_on,71,0,160
1,note_on,74,0,0
1,note_on,62,70,0
1,note_on,62,0,240
1,note_on,74,68,0
1,note_on,74,0,240
1,note_on,64,56,0
1,note_on,76,66,0
1,note_on,76,0,240
1,note_on,64,0,0
1,note_on,66,61,0
1,note_on,78,72,0
1,note_on,78,0,240
1,note_on,66,0,0
1,note_on,67,68,0
1,note_on,79,81,0
1,note_on,79,0,360
1,note_on,67,0,0
1,note_on,62,46,0
1,note_on,67,46,0
1,note_on,71,55,0
1,note_on,71,0,120
1,note_on,67,0,0
1,note_on,62,0,0
1,note_on,62,51,0
1,note_on,71,51,0
1,note_on,74,61,0
1,note_on,74,0,480
1,note_on,71,0,0
1,note_on,62,0,0
1,note_on,62,42,0
1,note_on,66,42,0
1,note_on,72,50,0
1,note_on,72,0,360
1,note_on,66,0,0
1,note_on,62,0,0
1,note_on,62,37,0
1,note_on,67,37,0
1,note_on,71,44,0
1,note_on,71,0,120
1,note_on,67,0,0
1,note_on,62,0,0
1,note_on,62,34,0
1,note_on,67,34,0
1,note_on,71,41,0
1,note_on,71,0,470
1,note_on,67,0,0
1,note_on,62,0,0
1,note_on,57,37,10
1,note_on,66,37,0
1,note_on,69,44,0
1,note_on,69,0,480
1,note_on,66,0,0
1,note_on,57,0,0
1,note_on,57,32,0
1,note_on,64,32,0
1,note_on,67,38,0
1,note_on,67,0,360
1,note_on,64,0,0
1,note_on,57,0,0
1,note_on,57,30,0
1,note_on,62,30,0
1,note_on,66,36,0
1,note_on,66,0,120
1,note_on,62,0,0
1,note_on,57,0,0
1,note_on,57,32,0
1,note_on,62,32,0
1,note_on,66,38,0
1,note_on,66,0,480
1,note_on,62,0,0
1,note_on,57,0,0
1,note_on,66,37,0
1,note_on,74,44,0
1,note_on,74,0,360
1,note_on,66,0,0
1,note_on,67,35,0
1,note_on,76,41,0
1,note_on,76,0,120
1,note_on,67,0,0
1,note_on,66,40,0
1,note_on,74,48,0
1,note_on,74,0,480
1,note_on,66,0,0
1,note_on,69,37,0
1,note_on,76,44,0
1,note_on,76,0,240
1,note_on,69,0,0
1,note_on,57,47,240
1,note_on,67,47,0
1,note_on,71,56,0
1,note_on,71,0,480
1,note_on,67,0,0
1,note_on,57,0,0
1,note_on,57,40,0
1,note_on,66,40,0
1,note_on,69,48,0
1,note_on,69,0,360
1,note_on,66,0,0
1,note_on,57,0,0
1,note_on,57,32,0
1,note_on,64,32,0
1,note_on,67,38,0
1,note_on,67,0,120
1,note_on,64,0,0
1,note_on,57,0,0
1,note_on,57,35,0
1,note_on,64,35,0
1,note_on,67,42,0
1,note_on,67,0,480
1,note_on,64,0,0
1,note_on,57,0,0
1,note_on,69,42,0
1,note_on,76,50,0
1,note_on,76,0,360
1,note_on,69,0,0
1,note_on,74,39,0
1,note_on,78,47,0
1,note_on,78,0,120
1,note_on,74,0,0
1,note_on,69,44,0
1,note_on,76,52,0
1,note_on,76,0,480
1,note_on,69,0,0
1,note_on,74,41,0
1,note_on,78,49,0
1,note_on,78,0,240
1,note_on,74,0,0
1,note_on,66,56,240
1,note_on,74,67,0
1,note_on,74,0,480
1,note_on,66,0,0
1,note_on,69,38,0
1,note_on,73,45,0
1,note_on,73,0,240
1,note_on,69,0,0
1,note_on,67,38,0
1,note_on,71,45,0
1,note_on,71,0,240
1,note_on,67,0,0
1,note_on,57,48,0
1,note_on,66,48,0
1,note_on,69,57,0
1,note_on,69,0,480
1,note_on,66,0,0
1,note_on,57,0,0
1,note_on,57,38,0
1,note_on,64,38,0
1,note_on,67,45,0
1,note_on,67,0,240
1,note_on,64,0,0
1,note_on,57,0,0
1,note_on,57,38,0
1,note_on,62,38,0
1,note_on,66,45,0
1,note_on,66,0,240
1,note_on,62,0,0
1,note_on,57,0,0
1,note_on,57,49,0
1,note_on,67,49,0
1,note_on,71,58,0
1,note_on,71,0,480
1,note_on,67,0,0
1,note_on,57,0,0
1,note_on,57,42,0
1,note_on,66,42,0
1,note_on,69,50,0
1,note_on,69,0,240
1,note_on,66,0,0
1,note_on,57,0,0
1,note_on,57,41,0
1,note_on,64,41,0
1,note_on,67,49,0
1,note_on,67,0,240
1,note_on,64,0,0
1,note_on,57,0,0
1,note_on,62,44,0
1,note_on,66,52,0
1,note_on,66,0,240
1,note_on,62,0,0
1,note_on,57,40,0
1,note_on,64,48,0
1,note_on,64,0,240
1,note_on,57,0,0
1,note_on,54,45,0
1,note_on,62,53,0
1,note_on,62,0,960
1,note_on,54,0,0
1,note_on,57,42,0
1,note_on,66,42,0
1,note_on,69,50,0
1,note_on,69,0,480
1,note_on,66,0,0
1,note_on,57,0,0
1,note_on,57,39,0
1,note_on,64,39,0
1,note_on,67,47,0
1,note_on,67,0,360
1,note_on,64,0,0
1,note_on,57,0,0
1,note_on,57,39,0
1,note_on,62,39,0
1,note_on,66,46,0
1,note_on,66,0,120
1,note_on,62,0,0
1,note_on,57,0,0
1,note_on,57,40,0
1,note_on,62,40,0
1,note_on,66,48,0
1,note_on,66,0,480
1,note_on,62,0,0
1,note_on,57,0,0
1,note_on,57,48,0
1,note_on,66,48,0
1,note_on,69,57,0
1,note_on,69,0,480
1,note_on,66,0,0
1,note_on,57,0,0
1,note_on,57,45,0
1,note_on,64,45,0
1,note_on,67,54,0
1,note_on,67,0,360
1,note_on,64,0,0
1,note_on,57,0,0
1,note_on,57,45,0
1,note_on,62,45,0
1,note_on,66,45,0
1,note_on,66,0,120
1,note_on,62,0,0
1,note_on,57,0,0
1,note_on,57,47,0
1,note_on,62,47,0
1,note_on,66,56,0
1,note_on,66,0,480
1,note_on,62,0,0
1,note_on,57,0,0
1,note_on,72,70,0
1,note_on,62,59,0
1,note_on,66,59,0
1,note_on,66,0,480
1,note_on,62,0,0
1,note_on,72,0,0
1,note_on,67,54,0
1,note_on,62,54,0
1,note_on,71,64,0
1,note_on,71,0,360
1,note_on,62,0,0
1,note_on,67,0,0
1,note_on,69,59,0
1,note_on,62,50,0
1,note_on,66,50,0
1,note_on,66,0,120
1,note_on,62,0,0
1,note_on,69,0,0
1,note_on,69,61,0
1,note_on,62,51,0
1,note_on,66,51,0
1,note_on,66,0,480
1,note_on,62,0,0
1,note_on,69,0,0
1,note_on,62,62,0
1,note_on,72,62,0
1,note_on,76,74,0
1,note_on,76,0,480
1,note_on,72,0,0
1,note_on,62,0,0
1,note_on,62,59,0
1,note_on,71,59,0
1,note_on,74,70,0
1,note_on,74,0,360
1,note_on,71,0,0
1,note_on,62,0,0
1,note_on,62,56,0
1,note_on,69,56,0
1,note_on,72,67,0
1,note_on,72,0,120
1,note_on,69,0,0
1,note_on,62,0,0
1,note_on,62,59,0
1,note_on,72,70,0
1,note_on,69,59,0
1,note_on,69,0,480
1,note_on,72,0,0
1,note_on,62,0,0
1,note_on,57,44,0
1,note_on,62,44,0
1,note_on,72,52,0
1,note_on,72,0,480
1,note_on,62,0,0
1,note_on,57,0,0
1,note_on,59,39,0
1,note_on,62,39,0
1,note_on,71,46,0
1,note_on,71,0,360
1,note_on,62,0,0
1,note_on,59,0,0
1,note_on,60,35,0
1,note_on,62,35,0
1,note_on,69,42,0
1,note_on,69,0,120
1,note_on,62,0,0
1,note_on,60,0,0
1,note_on,60,35,0
1,note_on,62,35,0
1,note_on,69,42,0
1,note_on,69,0,1920
1,note_on,62,0,0
1,note_on,60,0,0
1,note_on,67,50,0
1,note_on,67,0,160
1,note_on,62,40,0
1,note_on,62,0,160
1,note_on,58,34,0
1,note_on,58,0,160
1,note_on,67,47,0
1,note_on,67,0,160
1,note_on,62,37,0
1,note_on,62,0,160
1,note_on,58,32,0
1,note_on,58,0,160
1,note_on,66,47,0
1,note_on,66,0,160
1,note_on,62,38,0
1,note_on,62,0,160
1,note_on,57,33,0
1,note_on,57,0,160
1,note_on,69,50,0
1,note_on,69,0,160
1,note_on,62,41,0
1,note_on,62,0,160
1,note_on,60,33,0
1,note_on,60,0,160
1,note_on,69,48,0
1,note_on,69,0,160
1,note_on,62,38,0
1,note_on,62,0,160
1,note_on,60,30,0
1,note_on,60,0,160
1,note_on,67,48,0
1,note_on,67,0,160
1,note_on,62,38,0
1,note_on,62,0,160
1,note_on,58,31,0
1,note_on,58,0,160
1,note_on,67,47,0
1,note_on,67,0,160
1,note_on,62,38,0
1,note_on,62,0,160
1,note_on,58,31,0
1,note_on,58,0,160
1,note_on,62,45,0
1,note_on,66,45,0
1,note_on,69,53,0
1,note_on,69,0,240
1,note_on,66,0,0
1,note_on,62,0,0
1,note_on,62,47,0
1,note_on,67,47,0
1,note_on,70,56,0
1,note_on,70,0,240
1,note_on,67,0,0
1,note_on,62,0,0
1,note_on,62,49,0
1,note_on,69,49,0
1,note_on,72,58,0
1,note_on,72,0,360
1,note_on,69,0,0
1,note_on,62,0,0
1,note_on,62,45,0
1,note_on,67,45,0
1,note_on,70,54,0
1,note_on,70,0,120
1,note_on,67,0,0
1,note_on,62,0,0
1,note_on,62,45,0
1,note_on,67,45,0
1,note_on,70,53,0
1,note_on,70,0,480
1,note_on,67,0,0
1,note_on,62,0,0
1,note_on,62,31,0
1,note_on,66,31,0
1,note_on,69,37,0
1,note_on,69,0,240
1,note_on,66,0,0
1,note_on,62,0,0
1,note_on,62,29,0
1,note_on,64,29,0
1,note_on,67,35,0
1,note_on,67,0,240
1,note_on,64,0,0
1,note_on,62,0,0
1,note_on,62,31,0
1,note_on,66,31,0
1,note_on,69,37,0
1,note_on,69,0,480
1,note_on,66,0,0
1,note_on,62,0,0
1,note_on,74,53,0
1,note_on,67,50,0
1,note_on,67,0,160
1,note_on,62,40,0
1,note_on,62,0,160
1,note_on,71,34,0
1,note_on,71,0,160
1,note_on,67,47,0
1,note_on,67,0,160
1,note_on,62,37,0
1,note_on,62,0,160
1,note_on,71,32,0
1,note_on,71,0,160
1,note_on,66,47,0
1,note_on,66,0,160
1,note_on,62,38,0
1,note_on,62,0,160
1,note_on,69,33,0
1,note_on,69,0,160
1,note_on,74,0,0
1,note_on,74,53,0
1,note_on,69,50,0
1,note_on,69,0,160
1,note_on,62,41,0
1,note_on,62,0,160
1,note_on,72,33,0
1,note_on,72,0,160
1,note_on,69,48,0
1,note_on,69,0,160
1,note_on,62,38,0
1,note_on,62,0,160
1,note_on,72,30,0
1,note_on,72,0,160
1,note_on,67,48,0
1,note_on,67,0,160
1,note_on,62,38,0
1,note_on,62,0,160
1,note_on,71,31,0
1,note_on,71,0,160
1,note_on,74,0,0
1,note_on,62,70,0
1,note_on,62,0,240
1,note_on,74,68,0
1,note_on,74,0,240
1,note_on,64,56,0
1,note_on,76,66,0
1,note_on,76,0,240
1,note_on,64,0,0
1,note_on,66,62,0
1,note_on,78,74,0
1,note_on,78,0,240
1,note_on,66,0,0
1,note_on,67,70,0
1,note_on,79,83,0
1,note_on,79,0,360
1,note_on,67,0,0
1,note_on,62,46,0
1,note_on,67,46,0
1,note_on,71,55,0
1,note_on,71,0,120
1,note_on,67,0,0
1,note_on,62,0,0
1,note_on,62,51,0
1,note_on,71,51,0
1,note_on,74,61,0
1,note_on,74,0,480
1,note_on,71,0,0
1,note_on,62,0,0
1,note_on,62,42,0
1,note_on,66,42,0
1,note_on,72,50,0
1,note_on,72,0,360
1,note_on,66,0,0
1,note_on,62,0,0
1,note_on,62,37,0
1,note_on,67,37,0
1,note_on,71,44,0
1,note_on,71,0,120
1,note_on,67,0,0
1,note_on,62,0,0
1,note_on,62,34,0
1,note_on,67,34,0
1,note_on,71,41,0
1,note_on,71,0,480
1,note_on,67,0,0
1,note_on,62,0,0
1,note_on,57,37,0
1,note_on,66,37,0
1,note_on,69,44,0
1,note_on,69,0,480
1,note_on,66,0,0
1,note_on,57,0,0
1,note_on,57,32,0
1,note_on,64,32,0
1,note_on,67,38,0
1,note_on,67,0,360
1,note_on,64,0,0
1,note_on,57,0,0
1,note_on,57,30,0
1,note_on,62,30,0
1,note_on,66,36,0
1,note_on,66,0,120
1,note_on,62,0,0
1,note_on,57,0,0
1,note_on,57,32,0
1,note_on,62,32,0
1,note_on,66,38,0
1,note_on,66,0,480
1,note_on,62,0,0
1,note_on,57,0,0
1,note_on,66,37,0
1,note_on,74,44,0
1,note_on,74,0,360
1,note_on,66,0,0
1,note_on,67,35,0
1,note_on,76,41,0
1,note_on,76,0,120
1,note_on,67,0,0
1,note_on,66,40,0
1,note_on,74,48,0
1,note_on,74,0,480
1,note_on,66,0,0
1,note_on,69,37,0
1,note_on,76,44,0
1,note_on,76,0,240
1,note_on,69,0,0
1,note_on,57,46,240
1,note_on,67,46,0
1,note_on,71,55,0
1,note_on,71,0,480
1,note_on,67,0,0
1,note_on,57,0,0
1,note_on,57,39,0
1,note_on,66,39,0
1,note_on,69,47,0
1,note_on,69,0,360
1,note_on,66,0,0
1,note_on,57,0,0
1,note_on,57,32,0
1,note_on,64,32,0
1,note_on,67,38,0
1,note_on,67,0,120
1,note_on,64,0,0
1,note_on,57,0,0
1,note_on,57,35,0
1,note_on,64,35,0
1,note_on,67,42,0
1,note_on,67,0,480
1,note_on,64,0,0
1,note_on,57,0,0
1,note_on,69,42,0
1,note_on,76,50,0
1,note_on,76,0,360
1,note_on,69,0,0
1,note_on,74,39,0
1,note_on,78,47,0
1,note_on,78,0,120
1,note_on,74,0,0
1,note_on,69,44,0
1,note_on,76,52,0
1,note_on,76,0,480
1,note_on,69,0,0
1,note_on,74,41,0
1,note_on,78,49,0
1,note_on,78,0,240
1,note_on,74,0,0
1,note_on,66,51,240
1,note_on,74,61,0
1,note_on,74,0,480
1,note_on,66,0,0
1,note_on,69,38,0
1,note_on,73,45,0
1,note_on,73,0,240
1,note_on,69,0,0
1,note_on,67,38,0
1,note_on,71,45,0
1,note_on,71,0,240
1,note_on,67,0,0
1,note_on,57,48,0
1,note_on,66,48,0
1,note_on,69,57,0
1,note_on,69,0,480
1,note_on,66,0,0
1,note_on,57,0,0
1,note_on,57,38,0
1,note_on,64,38,0
1,note_on,67,45,0
1,note_on,67,0,240
1,note_on,64,0,0
1,note_on,57,0,0
1,note_on,57,38,0
1,note_on,62,38,0
1,note_on,66,38,0
1,note_on,66,0,240
1,note_on,62,0,0
1,note_on,57,0,0
1,note_on,57,49,0
1,note_on,67,49,0
1,note_on,71,58,0
1,note_on,71,0,480
1,note_on,67,0,0
1,note_on,57,0,0
1,note_on,57,42,0
1,note_on,66,42,0
1,note_on,69,50,0
1,note_on,69,0,240
1,note_on,66,0,0
1,note_on,57,0,0
1,note_on,57,41,0
1,note_on,64,41,0
1,note_on,67,49,0
1,note_on,67,0,240
1,note_on,64,0,0
1,note_on,57,0,0
1,note_on,62,44,0
1,note_on,66,52,0
1,note_on,66,0,240
1,note_on,62,0,0
1,note_on,57,40,0
1,note_on,64,48,0
1,note_on,64,0,240
1,note_on,57,0,0
1,note_on,54,45,0
1,note_on,62,53,0
1,note_on,62,0,960
1,note_on,54,0,0
1,note_on,57,44,0
1,note_on,66,44,0
1,note_on,69,52,0
1,note_on,69,0,480
1,note_on,66,0,0
1,note_on,57,0,0
1,note_on,57,41,0
1,note_on,64,41,0
1,note_on,67,49,0
1,note_on,67,0,360
1,note_on,64,0,0
1,note_on,57,0,0
1,note_on,57,39,0
1,note_on,62,39,0
1,note_on,66,46,0
1,note_on,66,0,120
1,note_on,62,0,0
1,note_on,57,0,0
1,note_on,57,40,0
1,note_on,62,40,0
1,note_on,66,48,0
1,note_on,66,0,480
1,note_on,62,0,0
1,note_on,57,0,0
1,note_on,57,48,0
1,note_on,66,57,0
1,note_on,69,57,0
1,note_on,69,0,480
1,note_on,66,0,0
1,note_on,57,0,0
1,note_on,57,45,0
1,note_on,64,45,0
1,note_on,67,54,0
1,note_on,67,0,360
1,note_on,64,0,0
1,note_on,57,0,0
1,note_on,57,45,0
1,note_on,62,45,0
1,note_on,66,53,0
1,note_on,66,0,120
1,note_on,62,0,0
1,note_on,57,0,0
1,note_on,57,47,0
1,note_on,62,47,0
1,note_on,66,56,0
1,note_on,66,0,480
1,note_on,62,0,0
1,note_on,57,0,0
1,note_on,72,70,0
1,note_on,62,59,0
1,note_on,66,59,0
1,note_on,66,0,480
1,note_on,62,0,0
1,note_on,72,0,0
1,note_on,67,66,0
1,note_on,62,56,0
1,note_on,71,66,0
1,note_on,71,0,360
1,note_on,62,0,0
1,note_on,67,0,0
1,note_on,69,59,0
1,note_on,62,50,0
1,note_on,66,50,0
1,note_on,66,0,120
1,note_on,62,0,0
1,note_on,69,0,0
1,note_on,69,61,0
1,note_on,62,51,0
1,note_on,66,51,0
1,note_on,66,0,480
1,note_on,62,0,0
1,note_on,69,0,0
1,note_on,62,61,0
1,note_on,72,61,0
1,note_on,76,72,0
1,note_on,76,0,480
1,note_on,72,0,0
1,note_on,62,0,0
1,note_on,62,59,0
1,note_on,71,59,0
1,note_on,74,70,0
1,note_on,74,0,360
1,note_on,71,0,0
1,note_on,62,0,0
1,note_on,62,56,0
1,note_on,69,56,0
1,note_on,72,67,0
1,note_on,72,0,120
1,note_on,69,0,0
1,note_on,62,0,0
1,note_on,62,59,0
1,note_on,72,70,0
1,note_on,69,59,0
1,note_on,69,0,480
1,note_on,72,0,0
1,note_on,62,0,0
1,note_on,57,44,0
1,note_on,62,44,0
1,note_on,72,52,0
1,note_on,72,0,480
1,note_on,62,0,0
1,note_on,57,0,0
1,note_on,59,39,0
1,note_on,62,39,0
1,note_on,71,46,0
1,note_on,71,0,360
1,note_on,62,0,0
1,note_on,59,0,0
1,note_on,60,35,0
1,note_on,62,35,0
1,note_on,69,42,0
1,note_on,69,0,120
1,note_on,62,0,0
1,note_on,60,0,0
1,note_on,60,35,0
1,note_on,62,35,0
1,note_on,69,42,0
1,note_on,69,0,1920
1,note_on,62,0,0
1,note_on,60,0,0
1,note_on,67,50,0
1,note_on,67,0,160
1,note_on,62,40,0
1,note_on,62,0,160
1,note_on,58,34,0
1,note_on,58,0,160
1,note_on,67,47,0
1,note_on,67,0,160
1,note_on,62,37,0
1,note_on,62,0,160
1,note_on,58,32,0
1,note_on,58,0,160
1,note_on,66,47,0
1,note_on,66,0,160
1,note_on,62,38,0
1,note_on,62,0,160
1,note_on,57,33,0
1,note_on,57,0,160
1,note_on,69,50,0
1,note_on,69,0,160
1,note_on,62,41,0
1,note_on,62,0,160
1,note_on,60,33,0
1,note_on,60,0,160
1,note_on,69,48,0
1,note_on,69,0,160
1,note_on,62,38,0
1,note_on,62,0,160
1,note_on,60,30,0
1,note_on,60,0,160
1,note_on,67,48,0
1,note_on,67,0,160
1,note_on,62,38,0
1,note_on,62,0,160
1,note_on,58,31,0
1,note_on,58,0,160
1,note_on,67,47,0
1,note_on,67,0,160
1,note_on,62,38,0
1,note_on,62,0,160
1,note_on,58,31,0
1,note_on,58,0,160
1,note_on,62,45,0
1,note_on,66,45,0
1,note_on,69,53,0
1,note_on,69,0,240
1,note_on,66,0,0
1,note_on,62,0,0
1,note_on,62,46,0
1,note_on,67,46,0
1,note_on,70,55,0
1,note_on,70,0,240
1,note_on,67,0,0
1,note_on,62,0,0
1,note_on,62,50,0
1,note_on,69,59,0
1,note_on,72,59,0
1,note_on,72,0,360
1,note_on,69,0,0
1,note_on,62,0,0
1,note_on,62,45,0
1,note_on,67,45,0
1,note_on,70,54,0
1,note_on,70,0,120
1,note_on,67,0,0
1,note_on,62,0,0
1,note_on,62,45,0
1,note_on,67,45,0
1,note_on,70,53,0
1,note_on,70,0,480
1,note_on,67,0,0
1,note_on,62,0,0
1,note_on,62,31,0
1,note_on,66,31,0
1,note_on,69,37,0
1,note_on,69,0,240
1,note_on,66,0,0
1,note_on,62,0,0
1,note_on,62,29,0
1,note_on,64,29,0
1,note_on,67,35,0
1,note_on,67,0,240
1,note_on,64,0,0
1,note_on,62,0,0
1,note_on,62,31,0
1,note_on,66,31,0
1,note_on,69,37,0
1,note_on,69,0,480
1,note_on,66,0,0
1,note_on,62,0,0
1,note_on,74,53,0
1,note_on,67,50,0
1,note_on,67,0,160
1,note_on,62,40,0
1,note_on,62,0,160
1,note_on,71,34,0
1,note_on,71,0,160
1,note_on,67,47,0
1,note_on,67,0,160
1,note_on,62,37,0
1,note_on,62,0,160
1,note_on,71,32,0
1,note_on,71,0,160
1,note_on,66,47,0
1,note_on,66,0,160
1,note_on,62,38,0
1,note_on,62,0,160
1,note_on,69,33,0
1,note_on,69,0,160
1,note_on,74,0,0
1,note_on,74,53,0
1,note_on,69,50,0
1,note_on,69,0,160
1,note_on,62,41,0
1,note_on,62,0,160
1,note_on,72,33,0
1,note_on,72,0,160
1,note_on,69,48,0
1,note_on,69,0,160
1,note_on,62,38,0
1,note_on,62,0,160
1,note_on,72,30,0
1,note_on,72,0,160
1,note_on,67,48,0
1,note_on,67,0,160
1,note_on,62,38,0
1,note_on,62,0,160
1,note_on,71,31,0
1,note_on,71,0,160
1,note_on,74,0,0
1,note_on,62,70,0
1,note_on,62,0,240
1,note_on,74,68,0
1,note_on,74,0,240
1,note_on,64,56,0
1,note_on,76,66,0
1,note_on,76,0,240
1,note_on,64,0,0
1,note_on,66,62,0
1,note_on,78,73,0
1,note_on,78,0,240
1,note_on,66,0,0
1,note_on,67,69,0
1,note_on,79,82,0
1,note_on,79,0,360
1,note_on,67,0,0
1,note_on,62,46,0
1,note_on,67,46,0
1,note_on,71,55,0
1,note_on,71,0,120
1,note_on,67,0,0
1,note_on,62,0,0
1,note_on,71,61,0
1,note_on,74,61,0
1,note_on,74,0,480
1,note_on,71,0,0
1,note_on,62,42,0
1,note_on,66,42,0
1,note_on,72,50,0
1,note_on,72,0,360
1,note_on,66,0,0
1,note_on,62,0,0
1,note_on,62,37,0
1,note_on,67,37,0
1,note_on,71,44,0
1,note_on,71,0,120
1,note_on,67,0,0
1,note_on,62,0,0
1,note_on,62,34,0
1,note_on,67,34,0
1,note_on,71,41,0
1,note_on,71,0,480
1,note_on,67,0,0
1,note_on,62,0,0
1,note_on,64,40,0
1,note_on,67,40,0
1,note_on,72,40,0
1,note_on,72,0,480
1,note_on,67,0,0
1,note_on,64,0,0
1,note_on,62,38,0
1,note_on,67,38,0
1,note_on,71,38,0
1,note_on,71,0,360
1,note_on,67,0,0
1,note_on,62,0,0
1,note_on,60,36,0
1,note_on,67,36,0
1,note_on,69,36,0
1,note_on,69,0,120
1,note_on,67,0,0
1,note_on,60,0,0
1,note_on,60,38,0
1,note_on,67,38,0
1,note_on,69,38,0
1,note_on,69,0,480
1,note_on,67,0,0
1,note_on,60,0,0
1,note_on,62,40,0
1,note_on,71,40,0
1,note_on,71,0,480
1,note_on,62,0,0
1,note_on,60,38,0
1,note_on,62,38,0
1,note_on,69,38,0
1,note_on,69,0,360
1,note_on,62,0,0
1,note_on,60,0,0
1,note_on,59,36,0
1,note_on,62,36,0
1,note_on,67,36,0
1,note_on,67,0,120
1,note_on,62,0,0
1,note_on,59,0,0
1,note_on,59,38,0
1,note_on,62,38,0
1,note_on,67,38,0
1,note_on,67,0,480
1,note_on,62,0,0
1,note_on,59,0,0
1,note_on,60,40,0
1,note_on,62,40,0
1,note_on,69,40,0
1,note_on,69,0,480
1,note_on,62,0,0
1,note_on,60,0,0
1,note_on,59,38,0
1,note_on,62,38,0
1,note_on,67,38,0
1,note_on,67,0,360
1,note_on,62,0,0
1,note_on,59,0,0
1,note_on,57,36,0
1,note_on,60,36,0
1,note_on,66,36,0
1,note_on,66,0,120
1,note_on,60,0,0
1,note_on,57,0,0
1,note_on,57,38,0
1,note_on,60,38,0
1,note_on,66,38,0
1,note_on,66,0,480
1,note_on,60,0,0
1,note_on,57,0,0
1,note_on,59,40,0
1,note_on,67,40,0
1,note_on,67,0,480
1,note_on,59,0,0
1,note_on,57,38,0
1,note_on,62,38,0
1,note_on,62,0,360
1,note_on,57,0,0
1,note_on,55,36,0
1,note_on,59,36,0
1,note_on,59,0,120
1,note_on,55,0,0
1,note_on,55,38,0
1,note_on,59,38,0
1,note_on,59,0,480
1,note_on,55,0,0
1,note_on,55,38,0
1,note_on,62,38,0
1,note_on,65,38,0
1,note_on,65,0,480
1,note_on,62,0,0
1,note_on,55,0,0
1,note_on,55,36,0
1,note_on,60,36,0
1,note_on,64,36,0
1,note_on,64,0,360
1,note_on,60,0,0
1,note_on,55,0,0
1,note_on,55,34,0
1,note_on,59,34,0
1,note_on,62,34,0
1,note_on,62,0,120
1,note_on,59,0,0
1,note_on,55,0,0
1,note_on,55,36,0
1,note_on,59,36,0
1,note_on,62,36,0
1,note_on,62,0,480
1,note_on,59,0,0
1,note_on,55,0,0
1,note_on,59,38,0
1,note_on,69,38,0
1,note_on,65,38,0
1,note_on,65,0,480
1,note_on,69,0,0
1,note_on,59,0,0
1,note_on,59,34,0
1,note_on,67,34,0
1,note_on,64,34,0
1,note_on,64,0,360
1,note_on,67,0,0
1,note_on,59,0,0
1,note_on,62,31,0
1,note_on,59,31,0
1,note_on,65,31,0
1,note_on,65,0,120
1,note_on,59,0,0
1,note_on,62,0,0
1,note_on,65,32,0
1,note_on,59,32,0
1,note_on,62,32,0
1,note_on,62,0,480
1,note_on,59,0,0
1,note_on,65,0,0
1,note_on,69,36,0
1,note_on,59,36,0
1,note_on,65,36,0
1,note_on,69,0,720
1,note_on,68,36,0
1,note_on,68,0,240
1,note_on,67,36,0
1,note_on,67,0,240
1,note_on,69,36,0
1,note_on,69,0,240
1,note_on,65,0,0
1,note_on,59,0,0
1,note_on,69,36,0
1,note_on,59,36,0
1,note_on,65,36,0
1,note_on,69,0,480
1,note_on,67,36,0
1,note_on,67,0,960
1,note_on,65,0,0
1,note_on,59,0,0
1,note_on,67,60,1
1,note_on,69,50,419
1,note_on,67,0,1
1,note_on,69,0,59
1,note_on,67,60,0
1,note_on,67,0,160
1,note_on,64,57,0
1,note_on,64,0,160
1,note_on,60,53,0
1,note_on,60,0,160
1,note_on,67,60,0
1,note_on,67,0,360
1,note_on,76,56,0
1,note_on,76,0,120
1,note_on,76,60,0
1,note_on,76,0,960
1,note_on,72,44,0
1,note_on,72,0,240
1,note_on,67,59,240
1,note_on,67,0,420
1,note_on,65,50,0
1,note_on,65,0,60
1,note_on,64,60,0
1,note_on,64,0,160
1,note_on,60,56,0
1,note_on,60,0,160
1,note_on,55,52,0
1,note_on,55,0,160
1,note_on,60,60,0
1,note_on,60,0,160
1,note_on,64,57,0
1,note_on,64,0,160
1,note_on,67,54,0
1,note_on,67,0,160
1,note_on,55,56,0
1,note_on,64,56,0
1,note_on,67,56,0
1,note_on,67,0,120
1,note_on,64,0,0
1,note_on,55,0,0
1,note_on,55,53,120
1,note_on,62,53,0
1,note_on,65,53,0
1,note_on,65,0,120
1,note_on,62,0,0
1,note_on,55,0,0
1,note_on,55,56,120
1,note_on,60,56,0
1,note_on,64,56,0
1,note_on,64,0,90
1,note_on,60,0,0
1,note_on,55,0,0
1,note_on,55,50,150
1,note_on,59,50,0
1,note_on,62,50,0
1,note_on,62,0,90
1,note_on,59,0,0
1,note_on,55,0,0
1,note_on,55,56,150
1,note_on,60,56,0
1,note_on,64,56,0
1,note_on,64,0,120
1,note_on,60,0,0
1,note_on,55,0,0
1,note_on,55,41,360
1,note_on,63,41,0
1,note_on,67,41,0
1,note_on,67,0,120
1,note_on,63,0,0
1,note_on,55,0,0
1,note_on,55,37,120
1,note_on,62,37,0
1,note_on,65,37,0
1,note_on,65,0,120
1,note_on,62,0,0
1,note_on,55,0,0
1,note_on,55,41,120
1,note_on,60,41,0
1,note_on,63,41,0
1,note_on,63,0,90
1,note_on,60,0,0
1,note_on,55,0,0
1,note_on,55,38,150
1,note_on,59,38,0
1,note_on,62,38,0
1,note_on,62,0,90
1,note_on,59,0,0
1,note_on,55,0,0
1,note_on,55,41,150
1,note_on,60,41,0
1,note_on,63,41,0
1,note_on,63,0,90
1,note_on,60,0,0
1,note_on,55,0,0
1,note_on,58,38,150
1,note_on,62,38,0
1,note_on,65,38,0
1,note_on,65,0,90
1,note_on,62,0,0
1,note_on,58,0,0
1,note_on,58,50,150
1,note_on,62,50,0
1,note_on,65,50,0
1,note_on,65,0,240
1,note_on,62,0,0
1,note_on,58,0,0
1,note_on,58,48,0
1,note_on,63,48,0
1,note_on,67,48,0
1,note_on,67,0,180
1,note_on,63,0,0
1,note_on,58,0,0
1,note_on,58,52,60
1,note_on,63,52,0
1,note_on,67,52,0
1,note_on,67,0,240
1,note_on,63,0,0
1,note_on,58,0,0
1,note_on,62,54,0
1,note_on,66,54,0
1,note_on,69,54,0
1,note_on,69,0,180
1,note_on,66,0,0
1,note_on,62,0,0
1,note_on,62,60,60
1,note_on,66,60,0
1,note_on,69,60,0
1,note_on,69,0,240
1,note_on,66,0,0
1,note_on,62,0,0
1,note_on,62,57,0
1,note_on,67,57,0
1,note_on,70,57,0
1,note_on,70,0,180
1,note_on,67,0,0
1,note_on,62,0,0
1,note_on,62,66,60
1,note_on,67,66,0
1,note_on,70,66,0
1,note_on,70,0,240
1,note_on,67,0,0
1,note_on,62,0,0
1,note_on,62,64,0
1,note_on,67,64,0
1,note_on,71,64,0
1,note_on,71,0,240
1,note_on,67,0,0
1,note_on,62,0,0
1,note_on,62,70,0
1,note_on,67,70,0
1,note_on,71,70,0
1,note_on,71,0,720
1,note_on,67,0,0
1,note_on,62,0,0
1,note_on,65,54,0
1,note_on,71,54,0
1,note_on,77,54,0
1,note_on,77,0,240
1,note_on,71,0,0
1,note_on,65,0,0
1,note_on,64,54,0
1,note_on,72,54,0
1,note_on,76,54,0
1,note_on,76,0,1440
1,note_on,72,0,0
1,note_on,64,0,0
1,note_on,76,54,0
1,note_on,76,0,420
1,note_on,77,44,0
1,note_on,77,0,60
1,note_on,76,54,0
1,note_on,76,0,160
1,note_on,72,50,0
1,note_on,72,0,160
1,note_on,69,47,0
1,note_on,69,0,100
1,note_on,74,44,0
1,note_on,74,0,60
1,note_on,72,54,0
1,note_on,72,0,160
1,note_on,69,51,0
1,note_on,69,0,160
1,note_on,64,47,0
1,note_on,64,0,160
1,note_on,64,45,0
1,note_on,69,45,0
1,note_on,72,54,0
1,note_on,72,0,240
1,note_on,69,0,0
1,note_on,68,43,0
1,note_on,71,51,0
1,note_on,71,0,240
1,note_on,68,0,0
1,note_on,64,0,0
1,note_on,68,54,0
1,note_on,64,45,0
1,note_on,71,54,0
1,note_on,71,0,240
1,note_on,64,0,0
1,note_on,68,0,0
1,note_on,66,43,0
1,note_on,64,43,0
1,note_on,69,51,0
1,note_on,69,0,240
1,note_on,64,0,0
1,note_on,66,0,0
1,note_on,64,45,0
1,note_on,68,45,0
1,note_on,71,54,0
1,note_on,71,0,480
1,note_on,68,0,0
1,note_on,64,0,0
1,note_on,64,45,0
1,note_on,67,45,0
1,note_on,72,54,0
1,note_on,72,0,240
1,note_on,71,51,0
1,note_on,71,0,240
1,note_on,67,0,0
1,note_on,64,0,0
1,note_on,64,45,0
1,note_on,67,45,0
1,note_on,71,54,0
1,note_on,71,0,240
1,note_on,67,0,0
1,note_on,64,0,0
1,note_on,64,44,0
1,note_on,67,44,0
1,note_on,72,52,0
1,note_on,72,0,240
1,note_on,67,0,0
1,note_on,64,0,0
1,note_on,67,45,0
1,note_on,71,54,0
1,note_on,71,0,240
1,note_on,77,53,0
1,note_on,77,0,240
1,note_on,67,0,0
1,note_on,76,54,0
1,note_on,76,0,420
1,note_on,74,43,0
1,note_on,74,0,60
1,note_on,72,53,0
1,note_on,72,0,160
1,note_on,71,51,0
1,note_on,71,0,160
1,note_on,69,52,0
1,note_on,69,0,160
1,note_on,71,55,0
1,note_on,71,0,480
1,note_on,71,68,0
1,note_on,71,0,420
1,note_on,72,58,0
1,note_on,72,0,60
1,note_on,71,68,0
1,note_on,71,0,160
1,note_on,67,66,0
1,note_on,67,0,160
1,note_on,64,64,0
1,note_on,64,0,120
1,note_on,79,82,40
1,note_on,79,0,240
1,note_on,76,72,0
1,note_on,76,0,90
1,note_on,71,70,150
1,note_on,71,0,420
1,note_on,72,60,0
1,note_on,72,0,60
1,note_on,71,71,0
1,note_on,71,0,160
1,note_on,67,69,0
1,note_on,67,0,160
1,note_on,64,66,0
1,note_on,64,0,120
1,note_on,79,85,40
1,note_on,79,0,240
1,note_on,76,74,0
1,note_on,76,0,90
1,note_on,83,90,150
1,note_on,75,90,0
1,note_on,78,90,0
1,note_on,78,0,240
1,note_on,75,0,0
1,note_on,83,0,0
1,note_on,71,87,0
1,note_on,71,0,90
1,note_on,81,70,90
1,note_on,81,0,60
1,note_on,79,87,0
1,note_on,79,0,160
1,note_on,78,83,0
1,note_on,78,0,160
1,note_on,76,78,0
1,note_on,76,0,160
1,note_on,83,93,0
1,note_on,75,93,0
1,note_on,78,93,0
1,note_on,78,0,240
1,note_on,75,0,0
1,note_on,83,0,0
1,note_on,71,86,0
1,note_on,71,0,90
1,note_on,81,72,90
1,note_on,81,0,60
1,note_on,79,89,0
1,note_on,79,0,160
1,note_on,78,85,0
1,note_on,78,0,160
1,note_on,76,82,0
1,note_on,76,0,160
1,note_on,83,95,0
1,note_on,75,95,0
1,note_on,78,95,0
1,note_on,78,0,240
1,note_on,75,0,0
1,note_on,83,0,0
1,note_on,71,89,0
1,note_on,71,0,90
1,note_on,95,115,150
1,note_on,95,0,240
1,note_on,83,93,0
1,note_on,83,0,90
1,note_on,79,45,1590
1,note_on,79,0,240
1,note_on,76,30,0
1,note_on,76,0,120
1,note_on,79,43,120
1,note_on,79,0,240
1,note_on,76,31,0
1,note_on,76,0,120
1,note_on,79,42,120
1,note_on,79,0,240
1,note_on,76,31,0
1,note_on,76,0,120
1,note_on,79,41,120
1,note_on,79,0,240
1,note_on,76,29,0
1,note_on,76,0,120
1,note_on,79,38,120
1,note_on,79,0,240
1,note_on,76,27,0
1,note_on,76,0,120
1,note_on,79,37,120
1,note_on,79,0,240
1,note_on,76,26,0
1,note_on,76,0,120
1,note_on,79,36,120
1,note_on,76,36,0
1,note_on,76,0,240
1,note_on,79,0,0
1,note_on,67,27,0
1,note_on,67,0,120
1,note_on,76,36,120
1,note_on,79,36,0
1,note_on,79,0,240
1,note_on,76,0,0
1,note_on,67,27,0
1,note_on,67,0,120
1,note_on,76,36,120
1,note_on,79,36,0
1,note_on,79,0,240
1,note_on,76,0,0
1,note_on,67,27,0
1,note_on,67,0,120
1,note_on,76,38,120
1,note_on,79,38,0
1,note_on,79,0,240
1,note_on,76,0,0
1,note_on,67,29,0
1,note_on,67,0,120
1,note_on,76,38,120
1,note_on,79,38,0
1,note_on,79,0,240
1,note_on,76,0,0
1,note_on,67,27,0
1,note_on,67,0,120
1,note_on,76,34,120
1,note_on,79,34,0
1,note_on,79,0,240
1,note_on,76,0,0
1,note_on,67,26,0
1,note_on,67,0,120
1,note_on,67,47,120
1,note_on,67,0,420
1,note_on,69,44,0
1,note_on,69,0,60
1,note_on,67,52,0
1,note_on,67,0,160
1,note_on,64,49,0
1,note_on,64,0,160
1,note_on,60,42,0
1,note_on,60,0,160
1,note_on,67,52,0
1,note_on,67,0,360
1,note_on,76,48,0
1,note_on,76,0,120
1,note_on,76,52,0
1,note_on,76,0,960
1,note_on,72,35,0
1,note_on,72,0,240
1,note_on,79,70,240
1,note_on,79,0,420
1,note_on,77,51,0
1,note_on,77,0,60
1,note_on,76,61,0
1,note_on,76,0,160
1,note_on,72,57,0
1,note_on,72,0,160
1,note_on,67,55,0
1,note_on,67,0,160
1,note_on,72,63,0
1,note_on,72,0,160
1,note_on,76,59,0
1,note_on,76,0,160
1,note_on,79,56,0
1,note_on,79,0,160
1,note_on,67,70,0
1,note_on,76,70,0
1,note_on,79,70,0
1,note_on,79,0,120
1,note_on,76,0,0
1,note_on,67,0,0
1,note_on,67,66,120
1,note_on,74,66,0
1,note_on,77,66,0
1,note_on,77,0,120
1,note_on,74,0,0
1,note_on,67,0,0
1,note_on,67,70,120
1,note_on,72,70,0
1,note_on,76,70,0
1,note_on,76,0,90
1,note_on,72,0,0
1,note_on,67,0,0
1,note_on,67,63,150
1,note_on,71,63,0
1,note_on,74,63,0
1,note_on,74,0,90
1,note_on,71,0,0
1,note_on,67,0,0
1,note_on,67,70,150
1,note_on,72,70,0
1,note_on,76,70,0
1,note_on,76,0,120
1,note_on,72,0,0
1,note_on,67,0,0
1,note_on,67,45,360
1,note_on,67,0,240
1,note_on,69,41,0
1,note_on,69,0,120
1,note_on,71,41,0
1,note_on,71,0,120
1,note_on,72,45,0
1,note_on,72,0,90
1,note_on,67,39,150
1,note_on,67,0,90
1,note_on,72,48,150
1,note_on,72,0,90
1,note_on,70,65,150
1,note_on,82,65,0
1,note_on,82,0,120
1,note_on,70,0,0
1,note_on,70,67,120
1,note_on,82,67,0
1,note_on,82,0,120
1,note_on,70,0,0
1,note_on,87,70,120
1,note_on,75,70,0
1,note_on,75,0,120
1,note_on,87,0,0
1,note_on,87,73,120
1,note_on,75,73,0
1,note_on,75,0,120
1,note_on,87,0,0
1,note_on,86,71,120
1,note_on,74,71,0
1,note_on,74,0,120
1,note_on,86,0,0
1,note_on,74,78,120
1,note_on,86,78,0
1,note_on,86,0,120
1,note_on,74,0,0
1,note_on,91,77,120
1,note_on,79,77,0
1,note_on,79,0,120
1,note_on,91,0,0
1,note_on,79,84,120
1,note_on,91,84,0
1,note_on,91,0,120
1,note_on,79,0,0
1,note_on,89,70,120
1,note_on,77,70,0
1,note_on,77,0,120
1,note_on,89,0,0
1,note_on,89,66,120
1,note_on,77,66,0
1,note_on,77,0,720
1,note_on,89,0,0
1,note_on,71,48,0
1,note_on,83,48,0
1,note_on,83,0,240
1,note_on,71,0,0
1,note_on,84,45,0
1,note_on,72,45,0
1,note_on,72,0,1440
1,note_on,84,0,0
2,note_on,55,54,1
2,note_on,57,44,419
2,note_on,55,0,1
2,note_on,57,0,59
2,note_on,55,54,0
2,note_on,55,0,110
2,note_on,52,50,0
2,note_on,52,0,160
2,note_on,48,47,0
2,note_on,48,0,160
2,note_on,55,54,0
2,note_on,55,0,286
2,note_on,64,51,0
2,note_on,64,0,120
2,note_on,64,54,0
2,note_on,64,0,748
2,note_on,60,40,0
2,note_on,60,0,184
2,note_on,43,51,0
2,note_on,43,0,120
2,note_on,45,46,120
2,note_on,45,0,120
2,note_on,47,46,0
2,note_on,47,0,120
2,note_on,48,51,0
2,note_on,48,0,90
2,note_on,43,45,150
2,note_on,43,0,90
2,note_on,48,51,150
2,note_on,48,0,90
2,note_on,43,36,390
2,note_on,43,0,240
2,note_on,45,34,0
2,note_on,45,0,120
2,note_on,47,35,0
2,note_on,47,0,120
2,note_on,48,36,0
2,note_on,48,0,90
2,note_on,43,33,150
2,note_on,43,0,90
2,note_on,48,36,150
2,note_on,48,0,90
2,note_on,46,33,150
2,note_on,46,0,90
2,note_on,46,49,150
2,note_on,46,0,240
2,note_on,51,43,0
2,note_on,51,0,88
2,note_on,51,50,60
2,note_on,51,0,217
2,note_on,50,47,0
2,note_on,50,0,78
2,note_on,50,56,0
2,note_on,50,0,3
2,note_on,55,54,0
2,note_on,55,0,42
2,note_on,55,59,0
2,note_on,55,0,240
2,note_on,43,57,0
2,note_on,55,57,0
2,note_on,53,57,0
2,note_on,53,0,114
2,note_on,55,0,0
2,note_on,43,0,0
2,note_on,53,61,0
2,note_on,43,61,0
2,note_on,55,61,0
2,note_on,55,0,480
2,note_on,43,0,0
2,note_on,53,0,0
2,note_on,50,48,0
2,note_on,43,48,0
2,note_on,55,48,0
2,note_on,55,0,240
2,note_on,43,0,0
2,note_on,50,0,0
2,note_on,55,48,0
2,note_on,48,48,0
2,note_on,48,0,1040
2,note_on,55,0,0
2,note_on,55,54,0
2,note_on,55,0,349
2,note_on,57,44,0
2,note_on,57,0,60
2,note_on,55,54,0
2,note_on,55,0,103
2,note_on,52,50,0
2,note_on,52,0,160
2,note_on,48,47,0
2,note_on,48,0,160
2,note_on,55,54,0
2,note_on,55,0,286
2,note_on,64,51,0
2,note_on,64,0,120
2,note_on,64,54,0
2,note_on,64,0,734
2,note_on,60,40,0
2,note_on,60,0,240
2,note_on,43,51,413
2,note_on,43,0,99
2,note_on,45,46,120
2,note_on,45,0,120
2,note_on,47,46,0
2,note_on,47,0,120
2,note_on,48,51,0
2,note_on,48,0,90
2,note_on,43,45,150
2,note_on,43,0,90
2,note_on,48,51,150
2,note_on,48,0,90
2,note_on,43,36,390
2,note_on,43,0,240
2,note_on,45,34,0
2,note_on,45,0,120
2,note_on,47,35,0
2,note_on,47,0,120
2,note_on,48,36,0
2,note_on,48,0,90
2,note_on,43,33,150
2,note_on,43,0,90
2,note_on,48,38,150
2,note_on,48,0,90
2,note_on,46,36,150
2,note_on,46,0,120
2,note_on,46,47,120
2,note_on,46,0,229
2,note_on,51,43,0
2,note_on,51,0,81
2,note_on,51,50,60
2,note_on,51,0,219
2,note_on,50,48,0
2,note_on,50,0,71
2,note_on,50,56,60
2,note_on,50,0,229
2,note_on,55,52,0
2,note_on,55,0,56
2,note_on,55,59,60
2,note_on,55,0,167
2,note_on,43,56,0
2,note_on,53,56,0
2,note_on,55,56,0
2,note_on,55,0,114
2,note_on,53,0,0
2,note_on,43,0,0
2,note_on,43,63,0
2,note_on,53,63,0
2,note_on,55,63,0
2,note_on,55,0,525
2,note_on,53,0,0
2,note_on,43,0,0
2,note_on,43,48,0
2,note_on,50,48,0
2,note_on,55,48,0
2,note_on,55,0,240
2,note_on,50,0,0
2,note_on,43,0,0
2,note_on,48,48,0
2,note_on,55,48,0
2,note_on,55,0,1066
2,note_on,48,0,0
2,note_on,52,52,0
2,note_on,52,0,363
2,note_on,53,44,0
2,note_on,53,0,60
2,note_on,52,58,0
2,note_on,52,0,82
2,note_on,47,57,0
2,note_on,47,0,160
2,note_on,40,54,0
2,note_on,40,0,160
2,note_on,52,59,0
2,note_on,52,0,467
2,note_on,52,52,0
2,note_on,52,0,356
2,note_on,53,44,0
2,note_on,53,0,60
2,note_on,52,59,0
2,note_on,52,0,75
2,note_on,55,55,0
2,note_on,55,0,160
2,note_on,60,53,0
2,note_on,60,0,160
2,note_on,65,53,0
2,note_on,62,45,0
2,note_on,62,0,413
2,note_on,65,0,0
2,note_on,64,52,0
2,note_on,60,44,0
2,note_on,60,0,402
2,note_on,64,0,0
2,note_on,66,55,0
2,note_on,62,46,0
2,note_on,62,0,144
2,note_on,66,0,0
2,note_on,66,53,0
2,note_on,62,45,0
2,note_on,62,0,240
2,note_on,66,0,0
2,note_on,62,47,0
2,note_on,55,47,0
2,note_on,67,56,0
2,note_on,67,0,466
2,note_on,55,0,0
2,note_on,62,0,0
2,note_on,59,61,0
2,note_on,59,0,395
2,note_on,60,51,0
2,note_on,60,0,60
2,note_on,59,61,0
2,note_on,59,0,107
2,note_on,55,59,0
2,note_on,55,0,160
2,note_on,52,56,0
2,note_on,52,0,27
2,note_on,67,74,40
2,note_on,67,0,194
2,note_on,64,64,0
2,note_on,64,0,23
2,note_on,59,62,150
2,note_on,59,0,328
2,note_on,60,53,0
2,note_on,60,0,60
2,note_on,59,64,0
2,note_on,59,0,103
2,note_on,55,61,0
2,note_on,55,0,160
2,note_on,52,57,0
2,note_on,52,0,94
2,note_on,67,76,40
2,note_on,67,0,180
2,note_on,64,66,0
2,note_on,64,0,33
2,note_on,47,77,150
2,note_on,47,0,231
2,note_on,59,72,0
2,note_on,59,0,7
2,note_on,63,57,90
2,note_on,63,0,60
2,note_on,64,73,0
2,note_on,64,0,160
2,note_on,66,67,0
2,note_on,66,0,160
2,note_on,67,78,0
2,note_on,67,0,160
2,note_on,47,79,0
2,note_on,47,0,223
2,note_on,59,73,0
2,note_on,59,0,19
2,note_on,63,57,90
2,note_on,63,0,60
2,note_on,64,75,0
2,note_on,64,0,160
2,note_on,66,68,0
2,note_on,66,0,160
2,note_on,67,66,0
2,note_on,67,0,160
2,note_on,47,80,0
2,note_on,47,0,217
2,note_on,59,75,0
2,note_on,59,0,90
2,note_on,35,81,97
2,note_on,35,0,200
2,note_on,47,70,0
2,note_on,47,0,90
2,note_on,64,36,1566
2,note_on,64,0,219
2,note_on,67,25,0
2,note_on,67,0,120
2,note_on,64,34,113
2,note_on,64,0,226
2,note_on,67,25,0
2,note_on,67,0,49
2,note_on,64,33,7
2,note_on,64,0,240
2,note_on,67,26,0
2,note_on,67,0,120
2,note_on,64,33,0
2,note_on,64,0,240
2,note_on,67,24,0
2,note_on,67,0,120
2,note_on,64,31,113
2,note_on,64,0,226
2,note_on,67,23,0
2,note_on,67,0,120
2,note_on,64,30,99
2,note_on,64,0,219
2,note_on,67,21,0
2,note_on,67,0,120
2,note_on,55,48,78
2,note_on,55,0,392
2,note_on,57,40,0
2,note_on,57,0,60
2,note_on,55,48,0
2,note_on,55,0,117
2,note_on,52,45,0
2,note_on,52,0,160
2,note_on,48,39,0
2,note_on,48,0,160
2,note_on,55,48,0
2,note_on,55,0,293
2,note_on,64,45,0
2,note_on,64,0,120
2,note_on,64,48,0
2,note_on,64,0,762
2,note_on,60,36,0
2,note_on,60,0,240
2,note_on,55,48,409
2,note_on,55,0,374
2,note_on,57,40,0
2,note_on,57,0,60
2,note_on,55,48,0
2,note_on,55,0,93
2,note_on,52,45,0
2,note_on,52,0,160
2,note_on,48,41,0
2,note_on,48,0,160
2,note_on,55,48,0
2,note_on,55,0,307
2,note_on,64,45,0
2,note_on,64,0,120
2,note_on,64,48,0
2,note_on,64,0,430
2,note_on,60,38,0
2,note_on,60,0,180
2,note_on,43,61,0
2,note_on,43,0,120
2,note_on,45,55,120
2,note_on,45,0,120
2,note_on,47,55,0
2,note_on,47,0,120
2,note_on,48,61,0
2,note_on,48,0,90
2,note_on,43,53,150
2,note_on,43,0,90
2,note_on,48,61,150
2,note_on,48,0,90
2,note_on,51,38,390
2,note_on,55,38,0
2,note_on,55,0,120
2,note_on,51,0,0
2,note_on,50,35,120
2,note_on,53,35,0
2,note_on,55,35,0
2,note_on,55,0,120
2,note_on,53,0,0
2,note_on,50,0,0
2,note_on,48,38,120
2,note_on,51,38,0
2,note_on,55,38,0
2,note_on,55,0,90
2,note_on,51,0,0
2,note_on,48,0,0
2,note_on,47,35,150
2,note_on,50,35,0
2,note_on,55,35,0
2,note_on,55,0,90
2,note_on,50,0,0
2,note_on,47,0,0
2,note_on,48,42,150
2,note_on,51,42,0
2,note_on,55,42,0
2,note_on,55,0,90
2,note_on,51,0,0
2,note_on,48,0,0
2,note_on,50,51,150
2,note_on,53,51,0
2,note_on,58,51,0
2,note_on,58,0,120
2,note_on,53,0,0
2,note_on,50,0,0
2,note_on,53,55,120
2,note_on,56,55,0
2,note_on,58,55,0
2,note_on,58,0,120
2,note_on,56,0,0
2,note_on,53,0,0
2,note_on,51,50,120
2,note_on,55,50,0
2,note_on,58,50,0
2,note_on,58,0,120
2,note_on,55,0,0
2,note_on,51,0,0
2,note_on,51,55,120
2,note_on,55,55,0
2,note_on,58,55,0
2,note_on,58,0,120
2,note_on,55,0,0
2,note_on,51,0,0
2,note_on,54,51,120
2,note_on,57,51,0
2,note_on,62,51,0
2,note_on,62,0,120
2,note_on,57,0,0
2,note_on,54,0,0
2,note_on,57,64,120
2,note_on,60,64,0
2,note_on,62,64,0
2,note_on,62,0,120
2,note_on,60,0,0
2,note_on,57,0,0
2,note_on,55,60,120
2,note_on,58,60,0
2,note_on,62,60,0
2,note_on,62,0,120
2,note_on,58,0,0
2,note_on,55,0,0
2,note_on,55,65,120
2,note_on,58,65,0
2,note_on,62,65,0
2,note_on,62,0,120
2,note_on,58,0,0
2,note_on,55,0,0
2,note_on,43,49,120
2,note_on,50,49,0
2,note_on,59,49,0
2,note_on,59,0,120
2,note_on,50,0,0
2,note_on,43,0,0
2,note_on,43,47,0
2,note_on,50,47,0
2,note_on,59,47,0
2,note_on,59,0,720
2,note_on,50,0,0
2,note_on,43,0,0
2,note_on,65,37,0
2,note_on,67,37,0
2,note_on,55,37,0
2,note_on,55,0,240
2,note_on,67,0,0
2,note_on,65,0,0
2,note_on,67,35,0
2,note_on,64,35,0
2,note_on,60,35,0
2,note_on,60,0,1146
2,note_on,64,0,0
2,note_on,67,0,0
2,note_on,52,52,420
2,note_on,52,0,324
2,note_on,53,44,0
2,note_on,53,0,60
2,note_on,52,58,0
2,note_on,52,0,118
2,note_on,47,57,0
2,note_on,47,0,160
2,note_on,40,54,0
2,note_on,40,0,160
2,note_on,52,59,0
2,note_on,52,0,395
2,note_on,52,52,0
2,note_on,52,0,328
2,note_on,53,44,0
2,note_on,53,0,60
2,note_on,52,59,0
2,note_on,52,0,89
2,note_on,55,55,0
2,note_on,55,0,160
2,note_on,60,53,0
2,note_on,60,0,160
2,note_on,65,53,0
2,note_on,62,45,0
2,note_on,62,0,381
2,note_on,65,0,0
2,note_on,64,52,0
2,note_on,60,44,0
2,note_on,60,0,363
2,note_on,64,0,0
2,note_on,66,55,0
2,note_on,62,46,0
2,note_on,62,0,173
2,note_on,66,0,0
2,note_on,66,53,0
2,note_on,62,45,0
2,note_on,62,0,240
2,note_on,66,0,0
2,note_on,62,47,0
2,note_on,55,47,0
2,note_on,67,56,0
2,note_on,67,0,468
2,note_on,55,0,0
2,note_on,62,0,0
2,note_on,59,61,0
2,note_on,59,0,81
2,note_on,60,51,0
2,note_on,60,0,60
2,note_on,59,61,0
2,note_on,59,0,149
2,note_on,55,59,0
2,note_on,55,0,160
2,note_on,52,56,0
2,note_on,52,0,76
2,note_on,67,76,40
2,note_on,67,0,212
2,note_on,64,64,0
2,note_on,64,0,12
2,note_on,59,62,150
2,note_on,59,0,402
2,note_on,60,53,0
2,note_on,60,0,60
2,note_on,59,64,0
2,note_on,59,0,103
2,note_on,55,61,0
2,note_on,55,0,160
2,note_on,52,57,0
2,note_on,52,0,91
2,note_on,67,76,40
2,note_on,67,0,222
2,note_on,64,66,0
2,note_on,64,0,90
2,note_on,47,77,0
2,note_on,47,0,240
2,note_on,59,72,0
2,note_on,59,0,7
2,note_on,63,58,90
2,note_on,63,0,60
2,note_on,64,73,0
2,note_on,64,0,160
2,note_on,66,67,0
2,note_on,66,0,160
2,note_on,67,78,0
2,note_on,67,0,160
2,note_on,47,79,0
2,note_on,47,0,223
2,note_on,59,73,0
2,note_on,59,0,19
2,note_on,63,58,90
2,note_on,63,0,60
2,note_on,64,75,0
2,note_on,64,0,160
2,note_on,66,68,0
2,note_on,66,0,160
2,note_on,67,66,0
2,note_on,67,0,160
2,note_on,47,80,0
2,note_on,47,0,217
2,note_on,59,75,0
2,note_on,59,0,90
2,note_on,35,81,97
2,note_on,35,0,200
2,note_on,47,70,0
2,note_on,47,0,90
2,note_on,64,36,1566
2,note_on,64,0,219
2,note_on,67,25,0
2,note_on,67,0,120
2,note_on,64,34,113
2,note_on,64,0,226
2,note_on,67,25,0
2,note_on,67,0,49
2,note_on,64,33,7
2,note_on,64,0,240
2,note_on,67,26,0
2,note_on,67,0,120
2,note_on,64,33,0
2,note_on,64,0,240
2,note_on,67,24,0
2,note_on,67,0,120
2,note_on,64,31,113
2,note_on,64,0,226
2,note_on,67,23,0
2,note_on,67,0,120
2,note_on,64,30,99
2,note_on,64,0,219
2,note_on,67,21,0
2,note_on,67,0,120
2,note_on,55,48,78
2,note_on,55,0,392
2,note_on,57,40,0
2,note_on,57,0,60
2,note_on,55,48,0
2,note_on,55,0,117
2,note_on,52,45,0
2,note_on,52,0,160
2,note_on,48,39,0
2,note_on,48,0,160
2,note_on,55,48,0
2,note_on,55,0,310
2,note_on,64,45,0
2,note_on,64,0,120
2,note_on,64,48,0
2,note_on,64,0,847
2,note_on,60,36,0
2,note_on,60,0,240
2,note_on,55,48,0
2,note_on,55,0,363
2,note_on,57,40,0
2,note_on,57,0,60
2,note_on,55,48,0
2,note_on,55,0,103
2,note_on,52,45,0
2,note_on,52,0,160
2,note_on,48,41,0
2,note_on,48,0,160
2,note_on,55,48,0
2,note_on,55,0,296
2,note_on,64,45,0
2,note_on,64,0,120
2,note_on,64,48,0
2,note_on,64,0,423
2,note_on,60,38,0
2,note_on,60,0,187
2,note_on,43,61,0
2,note_on,43,0,120
2,note_on,45,55,120
2,note_on,45,0,120
2,note_on,47,55,0
2,note_on,47,0,120
2,note_on,48,61,0
2,note_on,48,0,90
2,note_on,43,53,150
2,note_on,43,0,90
2,note_on,48,61,150
2,note_on,48,0,90
2,note_on,51,38,390
2,note_on,55,38,0
2,note_on,55,0,120
2,note_on,51,0,0
2,note_on,50,35,120
2,note_on,53,35,0
2,note_on,55,35,0
2,note_on,55,0,120
2,note_on,53,0,0
2,note_on,50,0,0
2,note_on,48,38,120
2,note_on,51,38,0
2,note_on,55,38,0
2,note_on,55,0,90
2,note_on,51,0,0
2,note_on,48,0,0
2,note_on,47,35,150
2,note_on,50,35,0
2,note_on,55,35,0
2,note_on,55,0,90
2,note_on,50,0,0
2,note_on,47,0,0
2,note_on,48,42,150
2,note_on,51,42,0
2,note_on,55,42,0
2,note_on,55,0,90
2,note_on,51,0,0
2,note_on,48,0,0
2,note_on,50,49,150
2,note_on,53,49,0
2,note_on,58,49,0
2,note_on,58,0,120
2,note_on,53,0,0
2,note_on,50,0,0
2,note_on,53,52,120
2,note_on,56,52,0
2,note_on,58,52,0
2,note_on,58,0,120
2,note_on,56,0,0
2,note_on,53,0,0
2,note_on,51,52,120
2,note_on,55,52,0
2,note_on,58,52,0
2,note_on,58,0,120
2,note_on,55,0,0
2,note_on,51,0,0
2,note_on,51,56,120
2,note_on,55,56,0
2,note_on,58,56,0
2,note_on,58,0,120
2,note_on,55,0,0
2,note_on,51,0,0
2,note_on,54,54,120
2,note_on,57,54,0
2,note_on,62,54,0
2,note_on,62,0,120
2,note_on,57,0,0
2,note_on,54,0,0
2,note_on,57,59,120
2,note_on,60,59,0
2,note_on,62,59,0
2,note_on,62,0,120
2,note_on,60,0,0
2,note_on,57,0,0
2,note_on,55,56,120
2,note_on,58,56,0
2,note_on,62,56,0
2,note_on,62,0,120
2,note_on,58,0,0
2,note_on,55,0,0
2,note_on,55,64,120
2,note_on,58,64,0
2,note_on,62,64,0
2,note_on,62,0,120
2,note_on,58,0,0
2,note_on,55,0,0
2,note_on,43,49,120
2,note_on,50,49,0
2,note_on,59,49,0
2,note_on,59,0,120
2,note_on,50,0,0
2,note_on,43,0,0
2,note_on,43,47,120
2,note_on,50,47,0
2,note_on,59,47,0
2,note_on,59,0,714
2,note_on,50,0,0
2,note_on,43,0,0
2,note_on,65,37,0
2,note_on,67,37,0
2,note_on,55,37,0
2,note_on,55,0,240
2,note_on,67,0,0
2,note_on,65,0,0
2,note_on,67,35,0
2,note_on,64,35,0
2,note_on,60,35,0
2,note_on,60,0,1063
2,note_on,64,0,0
2,note_on,67,0,0
2,note_on,47,45,0
2,note_on,43,31,0
2,note_on,47,0,61
2,note_on,50,36,0
2,note_on,50,0,160
2,note_on,55,31,0
2,note_on,55,0,160
2,note_on,47,42,0
2,note_on,47,0,160
2,note_on,50,33,0
2,note_on,50,0,160
2,note_on,55,27,0
2,note_on,55,0,160
2,note_on,45,41,0
2,note_on,45,0,145
2,note_on,50,33,0
2,note_on,50,0,157
2,note_on,54,27,0
2,note_on,54,0,160
2,note_on,43,0,0
2,note_on,48,45,0
2,note_on,43,31,0
2,note_on,48,0,33
2,note_on,50,36,0
2,note_on,50,0,160
2,note_on,57,29,0
2,note_on,57,0,160
2,note_on,48,43,0
2,note_on,48,0,160
2,note_on,50,33,0
2,note_on,50,0,160
2,note_on,57,28,0
2,note_on,57,0,160
2,note_on,47,43,0
2,note_on,47,0,47
2,note_on,50,33,0
2,note_on,50,0,160
2,note_on,55,28,0
2,note_on,55,0,160
2,note_on,43,0,0
2,note_on,47,42,0
2,note_on,47,0,160
2,note_on,50,33,0
2,note_on,50,0,160
2,note_on,55,28,0
2,note_on,55,0,160
2,note_on,50,42,0
2,note_on,54,42,0
2,note_on,57,50,0
2,note_on,57,0,134
2,note_on,54,0,0
2,note_on,50,0,0
2,note_on,50,45,0
2,note_on,55,45,0
2,note_on,59,53,0
2,note_on,59,0,240
2,note_on,55,0,0
2,note_on,50,0,0
2,note_on,50,48,0
2,note_on,57,48,0
2,note_on,60,57,0
2,note_on,60,0,197
2,note_on,57,0,0
2,note_on,50,0,0
2,note_on,50,42,0
2,note_on,55,42,0
2,note_on,59,51,0
2,note_on,59,0,120
2,note_on,55,0,0
2,note_on,50,0,0
2,note_on,50,38,0
2,note_on,55,38,0
2,note_on,59,45,0
2,note_on,59,0,303
2,note_on,55,0,0
2,note_on,50,0,0
2,note_on,50,27,0
2,note_on,54,27,0
2,note_on,57,32,0
2,note_on,57,0,76
2,note_on,54,0,0
2,note_on,50,0,0
2,note_on,50,26,0
2,note_on,52,26,0
2,note_on,55,31,0
2,note_on,55,0,240
2,note_on,52,0,0
2,note_on,50,0,0
2,note_on,50,28,0
2,note_on,54,28,0
2,note_on,57,33,0
2,note_on,57,0,316
2,note_on,54,0,0
2,note_on,50,0,0
2,note_on,47,45,0
2,note_on,43,31,0
2,note_on,47,0,40
2,note_on,50,36,0
2,note_on,50,0,160
2,note_on,55,31,0
2,note_on,55,0,160
2,note_on,47,42,0
2,note_on,47,0,160
2,note_on,50,33,0
2,note_on,50,0,160
2,note_on,55,27,0
2,note_on,55,0,160
2,note_on,45,41,0
2,note_on,45,0,19
2,note_on,50,33,0
2,note_on,50,0,160
2,note_on,54,27,0
2,note_on,54,0,160
2,note_on,43,0,0
2,note_on,48,45,0
2,note_on,43,31,0
2,note_on,48,0,54
2,note_on,50,36,0
2,note_on,50,0,160
2,note_on,57,29,0
2,note_on,57,0,160
2,note_on,48,43,0
2,note_on,48,0,160
2,note_on,50,33,0
2,note_on,50,0,160
2,note_on,57,28,0
2,note_on,57,0,160
2,note_on,47,43,0
2,note_on,47,0,26
2,note_on,50,33,0
2,note_on,50,0,160
2,note_on,55,28,0
2,note_on,55,0,160
2,note_on,43,0,0
2,note_on,50,46,0
2,note_on,47,39,0
2,note_on,43,39,0
2,note_on,43,0,388
2,note_on,47,0,0
2,note_on,50,0,0
2,note_on,43,46,0
2,note_on,48,46,0
2,note_on,52,55,0
2,note_on,52,0,106
2,note_on,48,0,0
2,note_on,43,0,0
2,note_on,43,49,0
2,note_on,45,49,0
2,note_on,54,58,0
2,note_on,54,0,240
2,note_on,45,0,0
2,note_on,43,0,0
2,note_on,43,57,0
2,note_on,55,68,0
2,note_on,47,57,0
2,note_on,47,0,261
2,note_on,55,0,0
2,note_on,43,0,0
2,note_on,50,41,0
2,note_on,55,41,0
2,note_on,59,49,0
2,note_on,59,0,120
2,note_on,55,0,0
2,note_on,50,0,0
2,note_on,50,45,0
2,note_on,62,54,0
2,note_on,59,45,0
2,note_on,59,0,353
2,note_on,62,0,0
2,note_on,50,0,0
2,note_on,50,39,0
2,note_on,57,39,0
2,note_on,60,46,0
2,note_on,60,0,240
2,note_on,57,0,0
2,note_on,50,0,0
2,note_on,55,31,0
2,note_on,59,37,0
2,note_on,59,0,120
2,note_on,55,0,0
2,note_on,55,28,0
2,note_on,59,34,0
2,note_on,59,0,339
2,note_on,55,0,0
2,note_on,47,45,0
2,note_on,43,31,0
2,note_on,47,0,61
2,note_on,50,36,0
2,note_on,50,0,160
2,note_on,55,31,0
2,note_on,55,0,160
2,note_on,47,42,0
2,note_on,47,0,160
2,note_on,50,33,0
2,note_on,50,0,160
2,note_on,55,27,0
2,note_on,55,0,160
2,note_on,45,41,0
2,note_on,45,0,40
2,note_on,50,33,0
2,note_on,50,0,160
2,note_on,54,27,0
2,note_on,54,0,160
2,note_on,43,0,0
2,note_on,48,45,0
2,note_on,43,31,0
2,note_on,48,0,26
2,note_on,50,36,0
2,note_on,50,0,160
2,note_on,57,29,0
2,note_on,57,0,160
2,note_on,48,43,0
2,note_on,48,0,160
2,note_on,50,33,0
2,note_on,50,0,160
2,note_on,57,28,0
2,note_on,57,0,160
2,note_on,47,43,0
2,note_on,47,0,54
2,note_on,50,33,0
2,note_on,50,0,160
2,note_on,55,28,0
2,note_on,55,0,160
2,note_on,43,0,0
2,note_on,47,42,0
2,note_on,47,0,160
2,note_on,50,33,0
2,note_on,50,0,160
2,note_on,55,28,0
2,note_on,55,0,160
2,note_on,50,42,0
2,note_on,54,42,0
2,note_on,57,50,0
2,note_on,57,0,127
2,note_on,54,0,0
2,note_on,50,0,0
2,note_on,50,45,0
2,note_on,55,45,0
2,note_on,59,53,0
2,note_on,59,0,240
2,note_on,55,0,0
2,note_on,50,0,0
2,note_on,50,48,0
2,note_on,57,57,0
2,note_on,60,57,0
2,note_on,60,0,240
2,note_on,57,0,0
2,note_on,50,0,0
2,note_on,50,42,0
2,note_on,55,42,0
2,note_on,59,51,0
2,note_on,59,0,120
2,note_on,55,0,0
2,note_on,50,0,0
2,note_on,50,38,0
2,note_on,55,38,0
2,note_on,59,45,0
2,note_on,59,0,341
2,note_on,55,0,0
2,note_on,50,0,0
2,note_on,50,27,0
2,note_on,54,27,0
2,note_on,57,32,0
2,note_on,57,0,101
2,note_on,54,0,0
2,note_on,50,0,0
2,note_on,50,26,0
2,note_on,52,26,0
2,note_on,55,31,0
2,note_on,55,0,240
2,note_on,52,0,0
2,note_on,50,0,0
2,note_on,50,28,0
2,note_on,54,28,0
2,note_on,57,33,0
2,note_on,57,0,328
2,note_on,54,0,0
2,note_on,50,0,0
2,note_on,47,45,0
2,note_on,43,31,0
2,note_on,47,0,47
2,note_on,50,36,0
2,note_on,50,0,160
2,note_on,55,31,0
2,note_on,55,0,160
2,note_on,47,42,0
2,note_on,47,0,160
2,note_on,50,33,0
2,note_on,50,0,160
2,note_on,55,27,0
2,note_on,55,0,160
2,note_on,45,41,0
2,note_on,45,0,19
2,note_on,50,33,0
2,note_on,50,0,160
2,note_on,54,27,0
2,note_on,54,0,160
2,note_on,43,0,0
2,note_on,48,45,0
2,note_on,43,31,0
2,note_on,48,0,4
2,note_on,50,36,0
2,note_on,50,0,160
2,note_on,57,29,0
2,note_on,57,0,160
2,note_on,48,43,0
2,note_on,48,0,160
2,note_on,50,33,0
2,note_on,50,0,160
2,note_on,57,28,0
2,note_on,57,0,160
2,note_on,47,43,0
2,note_on,47,0,68
2,note_on,50,33,0
2,note_on,50,0,160
2,note_on,55,28,0
2,note_on,55,0,160
2,note_on,43,0,0
2,note_on,50,46,0
2,note_on,47,39,0
2,note_on,43,39,0
2,note_on,43,0,388
2,note_on,47,0,0
2,note_on,50,0,0
2,note_on,43,46,0
2,note_on,48,46,0
2,note_on,52,55,0
2,note_on,52,0,127
2,note_on,48,0,0
2,note_on,43,0,0
2,note_on,43,49,0
2,note_on,45,49,0
2,note_on,54,58,0
2,note_on,54,0,240
2,note_on,45,0,0
2,note_on,43,0,0
2,note_on,43,57,0
2,note_on,55,68,0
2,note_on,47,57,0
2,note_on,47,0,261
2,note_on,55,0,0
2,note_on,43,0,0
2,note_on,50,41,0
2,note_on,55,41,0
2,note_on,59,49,0
2,note_on,59,0,120
2,note_on,55,0,0
2,note_on,50,0,0
2,note_on,50,45,0
2,note_on,62,54,0
2,note_on,59,45,0
2,note_on,59,0,381
2,note_on,62,0,0
2,note_on,50,0,0
2,note_on,50,39,0
2,note_on,57,39,0
2,note_on,60,46,0
2,note_on,60,0,212
2,note_on,57,0,0
2,note_on,50,0,0
2,note_on,55,31,0
2,note_on,59,37,0
2,note_on,59,0,120
2,note_on,55,0,0
2,note_on,55,28,0
2,note_on,59,34,0
2,note_on,59,0,371
2,note_on,55,0,0
2,note_on,38,30,0
2,note_on,38,0,61
2,note_on,45,26,0
2,note_on,45,0,160
2,note_on,38,27,0
2,note_on,38,0,160
2,note_on,33,30,0
2,note_on,33,0,61
2,note_on,38,26,0
2,note_on,38,0,160
2,note_on,33,26,0
2,note_on,33,0,160
2,note_on,38,30,0
2,note_on,38,0,54
2,note_on,45,26,0
2,note_on,45,0,160
2,note_on,38,26,0
2,note_on,38,0,160
2,note_on,33,32,0
2,note_on,33,0,91
2,note_on,38,27,0
2,note_on,38,0,160
2,note_on,33,27,0
2,note_on,33,0,160
2,note_on,38,33,0
2,note_on,38,0,63
2,note_on,45,29,0
2,note_on,45,0,160
2,note_on,38,29,0
2,note_on,38,0,160
2,note_on,33,34,0
2,note_on,33,0,63
2,note_on,37,29,0
2,note_on,37,0,160
2,note_on,33,29,0
2,note_on,33,0,160
2,note_on,37,30,0
2,note_on,37,0,91
2,note_on,45,27,0
2,note_on,45,0,160
2,note_on,37,27,0
2,note_on,37,0,160
2,note_on,33,30,0
2,note_on,33,0,57
2,note_on,37,27,0
2,note_on,37,0,160
2,note_on,33,27,0
2,note_on,33,0,160
2,note_on,37,33,0
2,note_on,37,0,51
2,note_on,45,29,0
2,note_on,45,0,160
2,note_on,37,29,0
2,note_on,37,0,160
2,note_on,33,34,0
2,note_on,33,0,80
2,note_on,37,30,0
2,note_on,37,0,160
2,note_on,33,30,0
2,note_on,33,0,160
2,note_on,37,35,0
2,note_on,37,0,68
2,note_on,45,30,0
2,note_on,45,0,160
2,note_on,37,30,0
2,note_on,37,0,160
2,note_on,33,35,0
2,note_on,33,0,80
2,note_on,38,30,0
2,note_on,38,0,160
2,note_on,33,30,0
2,note_on,33,0,160
2,note_on,38,34,0
2,note_on,38,0,40
2,note_on,45,29,0
2,note_on,45,0,160
2,note_on,38,31,0
2,note_on,38,0,160
2,note_on,33,34,0
2,note_on,33,0,47
2,note_on,38,29,0
2,note_on,38,0,160
2,note_on,33,29,0
2,note_on,33,0,160
2,note_on,38,39,0
2,note_on,38,0,54
2,note_on,45,34,0
2,note_on,45,0,160
2,note_on,38,34,0
2,note_on,38,0,160
2,note_on,33,36,0
2,note_on,33,0,57
2,note_on,38,31,0
2,note_on,38,0,160
2,note_on,33,31,0
2,note_on,33,0,160
2,note_on,37,37,0
2,note_on,37,0,51
2,note_on,45,33,0
2,note_on,45,0,160
2,note_on,37,33,0
2,note_on,37,0,160
2,note_on,33,35,0
2,note_on,33,0,80
2,note_on,37,31,0
2,note_on,37,0,160
2,note_on,33,30,0
2,note_on,33,0,160
2,note_on,38,36,0
2,note_on,38,0,75
2,note_on,45,29,0
2,note_on,45,0,160
2,note_on,38,31,0
2,note_on,38,0,160
2,note_on,33,37,0
2,note_on,33,0,26
2,note_on,38,30,0
2,note_on,38,0,160
2,note_on,33,30,0
2,note_on,33,0,160
2,note_on,38,36,0
2,note_on,38,0,160
2,note_on,45,32,0
2,note_on,45,0,160
2,note_on,38,32,0
2,note_on,38,0,160
2,note_on,33,42,0
2,note_on,33,0,40
2,note_on,38,39,0
2,note_on,38,0,160
2,note_on,33,39,0
2,note_on,33,0,160
2,note_on,35,43,0
2,note_on,35,0,61
2,note_on,38,39,0
2,note_on,38,0,160
2,note_on,36,40,0
2,note_on,36,0,157
2,note_on,36,46,3
2,note_on,36,0,61
2,note_on,38,42,0
2,note_on,38,0,160
2,note_on,36,42,0
2,note_on,36,0,160
2,note_on,33,48,0
2,note_on,33,0,61
2,note_on,38,43,0
2,note_on,38,0,160
2,note_on,33,43,0
2,note_on,33,0,160
2,note_on,35,49,0
2,note_on,35,0,40
2,note_on,38,44,0
2,note_on,38,0,160
2,note_on,36,44,0
2,note_on,36,0,160
2,note_on,36,54,0
2,note_on,36,0,54
2,note_on,38,44,0
2,note_on,38,0,160
2,note_on,36,46,0
2,note_on,36,0,160
2,note_on,33,57,0
2,note_on,33,0,54
2,note_on,38,51,0
2,note_on,38,0,160
2,note_on,33,51,0
2,note_on,33,0,160
2,note_on,35,64,0
2,note_on,35,0,68
2,note_on,38,54,0
2,note_on,38,0,160
2,note_on,36,54,0
2,note_on,36,0,157
2,note_on,36,71,3
2,note_on,36,0,54
2,note_on,38,55,0
2,note_on,38,0,160
2,note_on,36,55,0
2,note_on,36,0,160
2,note_on,38,72,0
2,note_on,38,0,61
2,note_on,50,62,0
2,note_on,50,0,160
2,note_on,38,62,0
2,note_on,38,0,160
2,note_on,40,69,0
2,note_on,40,0,33
2,note_on,50,57,0
2,note_on,50,0,160
2,note_on,42,60,0
2,note_on,42,0,160
2,note_on,42,66,0
2,note_on,42,0,61
2,note_on,50,60,0
2,note_on,50,0,160
2,note_on,42,60,0
2,note_on,42,0,160
2,note_on,42,43,0
2,note_on,42,0,27
2,note_on,50,36,0
2,note_on,50,0,160
2,note_on,42,37,0
2,note_on,42,0,160
2,note_on,50,37,0
2,note_on,50,0,59
2,note_on,42,33,0
2,note_on,42,0,160
2,note_on,50,33,0
2,note_on,50,0,160
2,note_on,42,37,0
2,note_on,42,0,33
2,note_on,50,31,0
2,note_on,50,0,160
2,note_on,42,31,0
2,note_on,42,0,160
2,note_on,50,35,0
2,note_on,50,0,160
2,note_on,42,30,0
2,note_on,42,0,160
2,note_on,50,30,0
2,note_on,50,0,160
2,note_on,42,35,0
2,note_on,42,0,160
2,note_on,50,30,0
2,note_on,50,0,160
2,note_on,42,30,0
2,note_on,42,0,160
2,note_on,50,35,0
2,note_on,50,0,160
2,note_on,42,29,0
2,note_on,42,0,160
2,note_on,50,29,0
2,note_on,50,0,160
2,note_on,46,45,0
2,note_on,43,31,0
2,note_on,46,0,57
2,note_on,50,36,0
2,note_on,50,0,160
2,note_on,55,31,0
2,note_on,55,0,160
2,note_on,46,42,0
2,note_on,46,0,160
2,note_on,50,33,0
2,note_on,50,0,160
2,note_on,55,27,0
2,note_on,55,0,160
2,note_on,45,41,0
2,note_on,45,0,63
2,note_on,50,33,0
2,note_on,50,0,160
2,note_on,54,27,0
2,note_on,54,0,160
2,note_on,43,0,0
2,note_on,48,45,0
2,note_on,43,31,0
2,note_on,48,0,74
2,note_on,50,36,0
2,note_on,50,0,160
2,note_on,57,29,0
2,note_on,57,0,160
2,note_on,48,43,0
2,note_on,48,0,160
2,note_on,50,33,0
2,note_on,50,0,160
2,note_on,57,28,0
2,note_on,57,0,160
2,note_on,46,43,0
2,note_on,46,0,74
2,note_on,50,33,0
2,note_on,50,0,160
2,note_on,55,28,0
2,note_on,55,0,160
2,note_on,43,0,0
2,note_on,46,42,0
2,note_on,46,0,160
2,note_on,50,33,0
2,note_on,50,0,160
2,note_on,55,28,0
2,note_on,55,0,160
2,note_on,50,39,0
2,note_on,54,39,0
2,note_on,57,39,0
2,note_on,57,0,148
2,note_on,54,0,0
2,note_on,50,0,0
2,note_on,50,41,0
2,note_on,55,41,0
2,note_on,58,49,0
2,note_on,58,0,240
2,note_on,55,0,0
2,note_on,50,0,0
2,note_on,50,44,0
2,note_on,57,44,0
2,note_on,60,52,0
2,note_on,60,0,291
2,note_on,57,0,0
2,note_on,50,0,0
2,note_on,50,39,0
2,note_on,55,39,0
2,note_on,58,47,0
2,note_on,58,0,120
2,note_on,55,0,0
2,note_on,50,0,0
2,note_on,50,38,0
2,note_on,55,38,0
2,note_on,58,45,0
2,note_on,58,0,366
2,note_on,55,0,0
2,note_on,50,0,0
2,note_on,50,27,0
2,note_on,54,27,0
2,note_on,57,32,0
2,note_on,57,0,101
2,note_on,54,0,0
2,note_on,50,0,0
2,note_on,50,26,0
2,note_on,52,26,0
2,note_on,55,31,0
2,note_on,55,0,240
2,note_on,52,0,0
2,note_on,50,0,0
2,note_on,50,28,0
2,note_on,54,28,0
2,note_on,57,33,0
2,note_on,57,0,316
2,note_on,54,0,0
2,note_on,50,0,0
2,note_on,47,45,0
2,note_on,43,31,0
2,note_on,47,0,54
2,note_on,50,36,0
2,note_on,50,0,160
2,note_on,55,31,0
2,note_on,55,0,160
2,note_on,47,42,0
2,note_on,47,0,160
2,note_on,50,33,0
2,note_on,50,0,160
2,note_on,55,27,0
2,note_on,55,0,160
2,note_on,45,41,0
2,note_on,45,0,26
2,note_on,50,33,0
2,note_on,50,0,160
2,note_on,54,27,0
2,note_on,54,0,160
2,note_on,43,0,0
2,note_on,48,45,0
2,note_on,43,31,0
2,note_on,48,0,61
2,note_on,50,36,0
2,note_on,50,0,160
2,note_on,57,29,0
2,note_on,57,0,160
2,note_on,48,43,0
2,note_on,48,0,160
2,note_on,50,33,0
2,note_on,50,0,160
2,note_on,57,28,0
2,note_on,57,0,160
2,note_on,47,43,0
2,note_on,47,0,61
2,note_on,50,33,0
2,note_on,50,0,160
2,note_on,55,28,0
2,note_on,55,0,160
2,note_on,43,0,0
2,note_on,50,46,0
2,note_on,47,39,0
2,note_on,43,39,0
2,note_on,43,0,381
2,note_on,47,0,0
2,note_on,50,0,0
2,note_on,43,46,0
2,note_on,48,46,0
2,note_on,52,55,0
2,note_on,52,0,155
2,note_on,48,0,0
2,note_on,43,0,0
2,note_on,43,49,0
2,note_on,45,49,0
2,note_on,54,58,0
2,note_on,54,0,240
2,note_on,45,0,0
2,note_on,43,0,0
2,note_on,43,57,0
2,note_on,55,68,0
2,note_on,47,57,0
2,note_on,47,0,268
2,note_on,55,0,0
2,note_on,43,0,0
2,note_on,50,41,0
2,note_on,55,41,0
2,note_on,59,49,0
2,note_on,59,0,120
2,note_on,55,0,0
2,note_on,50,0,0
2,note_on,50,45,0
2,note_on,59,45,0
2,note_on,59,0,360
2,note_on,50,0,0
2,note_on,50,39,0
2,note_on,57,39,0
2,note_on,60,46,0
2,note_on,60,0,261
2,note_on,57,0,0
2,note_on,50,0,0
2,note_on,55,31,0
2,note_on,59,37,0
2,note_on,59,0,120
2,note_on,55,0,0
2,note_on,55,28,0
2,note_on,59,34,0
2,note_on,59,0,360
2,note_on,55,0,0
2,note_on,38,30,0
2,note_on,38,0,61
2,note_on,45,26,0
2,note_on,45,0,160
2,note_on,38,27,0
2,note_on,38,0,160
2,note_on,33,30,0
2,note_on,33,0,75
2,note_on,38,26,0
2,note_on,38,0,160
2,note_on,33,26,0
2,note_on,33,0,160
2,note_on,38,30,0
2,note_on,38,0,68
2,note_on,45,26,0
2,note_on,45,0,160
2,note_on,38,26,0
2,note_on,38,0,160
2,note_on,33,32,0
2,note_on,33,0,68
2,note_on,38,27,0
2,note_on,38,0,160
2,note_on,33,27,0
2,note_on,33,0,160
2,note_on,38,33,0
2,note_on,38,0,80
2,note_on,45,29,0
2,note_on,45,0,160
2,note_on,38,29,0
2,note_on,38,0,160
2,note_on,33,34,0
2,note_on,33,0,80
2,note_on,37,29,0
2,note_on,37,0,160
2,note_on,33,29,0
2,note_on,33,0,160
2,note_on,37,30,0
2,note_on,37,0,57
2,note_on,45,27,0
2,note_on,45,0,160
2,note_on,37,27,0
2,note_on,37,0,160
2,note_on,33,30,0
2,note_on,33,0,74
2,note_on,37,27,0
2,note_on,37,0,160
2,note_on,33,27,0
2,note_on,33,0,160
2,note_on,37,33,0
2,note_on,37,0,63
2,note_on,45,29,0
2,note_on,45,0,160
2,note_on,37,29,0
2,note_on,37,0,160
2,note_on,33,34,0
2,note_on,33,0,51
2,note_on,37,30,0
2,note_on,37,0,160
2,note_on,33,30,0
2,note_on,33,0,160
2,note_on,37,35,0
2,note_on,37,0,68
2,note_on,45,30,0
2,note_on,45,0,160
2,note_on,37,30,0
2,note_on,37,0,160
2,note_on,33,35,0
2,note_on,33,0,57
2,note_on,38,30,0
2,note_on,38,0,160
2,note_on,33,30,0
2,note_on,33,0,160
2,note_on,38,34,0
2,note_on,38,0,33
2,note_on,45,29,0
2,note_on,45,0,160
2,note_on,38,31,0
2,note_on,38,0,160
2,note_on,33,34,0
2,note_on,33,0,61
2,note_on,38,29,0
2,note_on,38,0,160
2,note_on,33,29,0
2,note_on,33,0,160
2,note_on,38,39,0
2,note_on,38,0,47
2,note_on,45,34,0
2,note_on,45,0,160
2,note_on,38,34,0
2,note_on,38,0,160
2,note_on,33,36,0
2,note_on,33,0,68
2,note_on,38,31,0
2,note_on,38,0,160
2,note_on,33,31,0
2,note_on,33,0,160
2,note_on,37,37,0
2,note_on,37,0,51
2,note_on,45,33,0
2,note_on,45,0,160
2,note_on,37,33,0
2,note_on,37,0,160
2,note_on,33,35,0
2,note_on,33,0,74
2,note_on,37,31,0
2,note_on,37,0,160
2,note_on,33,30,0
2,note_on,33,0,160
2,note_on,38,36,0
2,note_on,38,0,40
2,note_on,45,29,0
2,note_on,45,0,160
2,note_on,38,31,0
2,note_on,38,0,160
2,note_on,33,37,0
2,note_on,33,0,12
2,note_on,38,30,0
2,note_on,38,0,160
2,note_on,33,30,0
2,note_on,33,0,160
2,note_on,38,36,0
2,note_on,38,0,160
2,note_on,45,32,0
2,note_on,45,0,160
2,note_on,38,32,0
2,note_on,38,0,160
2,note_on,33,42,0
2,note_on,33,0,75
2,note_on,38,39,0
2,note_on,38,0,160
2,note_on,33,39,0
2,note_on,33,0,160
2,note_on,35,43,0
2,note_on,35,0,61
2,note_on,38,39,0
2,note_on,38,0,160
2,note_on,36,40,0
2,note_on,36,0,160
2,note_on,36,46,0
2,note_on,36,0,61
2,note_on,38,42,0
2,note_on,38,0,160
2,note_on,36,42,0
2,note_on,36,0,160
2,note_on,33,48,0
2,note_on,33,0,54
2,note_on,38,43,0
2,note_on,38,0,160
2,note_on,33,43,0
2,note_on,33,0,160
2,note_on,35,49,0
2,note_on,35,0,47
2,note_on,38,44,0
2,note_on,38,0,160
2,note_on,36,44,0
2,note_on,36,0,160
2,note_on,36,54,0
2,note_on,36,0,75
2,note_on,38,44,0
2,note_on,38,0,160
2,note_on,36,46,0
2,note_on,36,0,160
2,note_on,33,57,0
2,note_on,33,0,47
2,note_on,38,51,0
2,note_on,38,0,160
2,note_on,33,51,0
2,note_on,33,0,160
2,note_on,35,64,0
2,note_on,35,0,68
2,note_on,38,54,0
2,note_on,38,0,160
2,note_on,36,54,0
2,note_on,36,0,160
2,note_on,36,71,0
2,note_on,36,0,61
2,note_on,38,55,0
2,note_on,38,0,160
2,note_on,36,55,0
2,note_on,36,0,160
2,note_on,38,72,0
2,note_on,38,0,40
2,note_on,50,62,0
2,note_on,50,0,160
2,note_on,38,62,0
2,note_on,38,0,160
2,note_on,40,69,0
2,note_on,40,0,61
2,note_on,50,57,0
2,note_on,50,0,160
2,note_on,42,60,0
2,note_on,42,0,160
2,note_on,42,66,0
2,note_on,42,0,75
2,note_on,50,60,0
2,note_on,50,0,160
2,note_on,42,60,0
2,note_on,42,0,154
2,note_on,42,43,6
2,note_on,42,0,52
2,note_on,50,36,0
2,note_on,50,0,160
2,note_on,42,37,0
2,note_on,42,0,160
2,note_on,50,37,0
2,note_on,50,0,78
2,note_on,42,33,0
2,note_on,42,0,160
2,note_on,50,33,0
2,note_on,50,0,160
2,note_on,42,37,0
2,note_on,42,0,84
2,note_on,50,31,0
2,note_on,50,0,160
2,note_on,42,31,0
2,note_on,42,0,160
2,note_on,50,35,0
2,note_on,50,0,160
2,note_on,42,30,0
2,note_on,42,0,160
2,note_on,50,30,0
2,note_on,50,0,160
2,note_on,42,35,0
2,note_on,42,0,160
2,note_on,50,30,0
2,note_on,50,0,160
2,note_on,42,30,0
2,note_on,42,0,160
2,note_on,50,35,0
2,note_on,50,0,160
2,note_on,42,29,0
2,note_on,42,0,160
2,note_on,50,29,0
2,note_on,50,0,160
2,note_on,46,45,0
2,note_on,43,31,0
2,note_on,46,0,68
2,note_on,50,36,0
2,note_on,50,0,160
2,note_on,55,31,0
2,note_on,55,0,160
2,note_on,46,42,0
2,note_on,46,0,160
2,note_on,50,33,0
2,note_on,50,0,160
2,note_on,55,27,0
2,note_on,55,0,160
2,note_on,45,41,0
2,note_on,45,0,80
2,note_on,50,33,0
2,note_on,50,0,160
2,note_on,54,27,0
2,note_on,54,0,160
2,note_on,43,0,0
2,note_on,48,45,0
2,note_on,43,31,0
2,note_on,48,0,74
2,note_on,50,36,0
2,note_on,50,0,160
2,note_on,57,29,0
2,note_on,57,0,160
2,note_on,48,43,0
2,note_on,48,0,160
2,note_on,50,33,0
2,note_on,50,0,160
2,note_on,57,28,0
2,note_on,57,0,160
2,note_on,46,43,0
2,note_on,46,0,68
2,note_on,50,33,0
2,note_on,50,0,160
2,note_on,55,28,0
2,note_on,55,0,160
2,note_on,43,0,0
2,note_on,46,42,0
2,note_on,46,0,160
2,note_on,50,33,0
2,note_on,50,0,160
2,note_on,55,28,0
2,note_on,55,0,160
2,note_on,50,39,0
2,note_on,54,39,0
2,note_on,57,46,0
2,note_on,57,0,183
2,note_on,54,0,0
2,note_on,50,0,0
2,note_on,50,41,0
2,note_on,55,41,0
2,note_on,58,49,0
2,note_on,58,0,240
2,note_on,55,0,0
2,note_on,50,0,0
2,note_on,50,44,0
2,note_on,57,44,0
2,note_on,60,52,0
2,note_on,60,0,280
2,note_on,57,0,0
2,note_on,50,0,0
2,note_on,50,39,0
2,note_on,55,39,0
2,note_on,58,47,0
2,note_on,58,0,120
2,note_on,55,0,0
2,note_on,50,0,0
2,note_on,50,38,0
2,note_on,55,38,0
2,note_on,58,45,0
2,note_on,58,0,366
2,note_on,55,0,0
2,note_on,50,0,0
2,note_on,50,27,0
2,note_on,54,27,0
2,note_on,57,32,0
2,note_on,57,0,113
2,note_on,54,0,0
2,note_on,50,0,0
2,note_on,50,26,0
2,note_on,52,26,0
2,note_on,55,26,0
2,note_on,55,0,240
2,note_on,52,0,0
2,note_on,50,0,0
2,note_on,50,28,0
2,note_on,54,28,0
2,note_on,57,33,0
2,note_on,57,0,341
2,note_on,54,0,0
2,note_on,50,0,0
2,note_on,47,45,0
2,note_on,43,31,0
2,note_on,47,0,54
2,note_on,50,36,0
2,note_on,50,0,160
2,note_on,55,31,0
2,note_on,55,0,160
2,note_on,47,42,0
2,note_on,47,0,160
2,note_on,50,33,0
2,note_on,50,0,160
2,note_on,55,27,0
2,note_on,55,0,160
2,note_on,45,41,0
2,note_on,45,0,47
2,note_on,50,33,0
2,note_on,50,0,160
2,note_on,54,27,0
2,note_on,54,0,160
2,note_on,43,0,0
2,note_on,48,45,0
2,note_on,43,31,0
2,note_on,48,0,40
2,note_on,50,36,0
2,note_on,50,0,160
2,note_on,57,29,0
2,note_on,57,0,160
2,note_on,48,43,0
2,note_on,48,0,160
2,note_on,50,33,0
2,note_on,50,0,160
2,note_on,57,28,0
2,note_on,57,0,160
2,note_on,47,43,0
2,note_on,47,0,54
2,note_on,50,33,0
2,note_on,50,0,160
2,note_on,55,28,0
2,note_on,55,0,160
2,note_on,43,0,0
2,note_on,50,46,0
2,note_on,47,39,0
2,note_on,43,39,0
2,note_on,43,0,395
2,note_on,47,0,0
2,note_on,50,0,0
2,note_on,43,46,0
2,note_on,48,46,0
2,note_on,52,55,0
2,note_on,52,0,141
2,note_on,48,0,0
2,note_on,43,0,0
2,note_on,43,49,0
2,note_on,45,49,0
2,note_on,54,58,0
2,note_on,54,0,240
2,note_on,45,0,0
2,note_on,43,0,0
2,note_on,43,57,0
2,note_on,55,68,0
2,note_on,47,57,0
2,note_on,47,0,254
2,note_on,55,0,0
2,note_on,43,0,0
2,note_on,50,41,0
2,note_on,55,41,0
2,note_on,59,49,0
2,note_on,59,0,120
2,note_on,55,0,0
2,note_on,50,0,0
2,note_on,50,45,0
2,note_on,62,54,0
2,note_on,59,45,0
2,note_on,59,0,409
2,note_on,62,0,0
2,note_on,50,0,0
2,note_on,50,39,0
2,note_on,57,39,0
2,note_on,60,46,0
2,note_on,60,0,261
2,note_on,57,0,0
2,note_on,50,0,0
2,note_on,55,31,0
2,note_on,59,37,0
2,note_on,59,0,120
2,note_on,55,0,0
2,note_on,55,28,0
2,note_on,59,34,0
2,note_on,59,0,409
2,note_on,55,0,0
2,note_on,43,30,0
2,note_on,43,0,84
2,note_on,55,26,0
2,note_on,55,0,160
2,note_on,43,27,0
2,note_on,43,0,160
2,note_on,55,30,0
2,note_on,55,0,59
2,note_on,43,26,0
2,note_on,43,0,160
2,note_on,55,26,0
2,note_on,55,0,160
2,note_on,43,30,0
2,note_on,43,0,52
2,note_on,55,26,0
2,note_on,55,0,160
2,note_on,43,26,0
2,note_on,43,0,157
2,note_on,43,30,3
2,note_on,43,0,68
2,note_on,55,26,0
2,note_on,55,0,160
2,note_on,43,27,0
2,note_on,43,0,160
2,note_on,55,30,0
2,note_on,55,0,54
2,note_on,43,26,0
2,note_on,43,0,160
2,note_on,55,26,0
2,note_on,55,0,160
2,note_on,43,30,0
2,note_on,43,0,61
2,note_on,55,26,0
2,note_on,55,0,160
2,note_on,43,26,0
2,note_on,43,0,160
2,note_on,31,30,0
2,note_on,31,0,61
2,note_on,43,26,0
2,note_on,43,0,160
2,note_on,31,27,0
2,note_on,31,0,160
2,note_on,43,30,0
2,note_on,43,0,68
2,note_on,31,26,0
2,note_on,31,0,160
2,note_on,43,26,0
2,note_on,43,0,160
2,note_on,31,30,0
2,note_on,31,0,68
2,note_on,43,26,0
2,note_on,43,0,160
2,note_on,31,26,0
2,note_on,31,0,157
2,note_on,31,30,3
2,note_on,31,0,40
2,note_on,43,26,0
2,note_on,43,0,160
2,note_on,31,27,0
2,note_on,31,0,160
2,note_on,43,30,0
2,note_on,43,0,75
2,note_on,31,26,0
2,note_on,31,0,160
2,note_on,43,26,0
2,note_on,43,0,160
2,note_on,31,30,0
2,note_on,31,0,47
2,note_on,43,26,0
2,note_on,43,0,160
2,note_on,31,26,0
2,note_on,31,0,157
2,note_on,31,28,3
2,note_on,31,0,75
2,note_on,43,24,0
2,note_on,43,0,160
2,note_on,31,25,0
2,note_on,31,0,160
2,note_on,43,28,0
2,note_on,43,0,68
2,note_on,31,24,0
2,note_on,31,0,160
2,note_on,43,24,0
2,note_on,43,0,160
2,note_on,31,28,0
2,note_on,31,0,54
2,note_on,43,24,0
2,note_on,43,0,160
2,note_on,31,24,0
2,note_on,31,0,157
2,note_on,31,28,3
2,note_on,31,0,75
2,note_on,43,24,0
2,note_on,43,0,160
2,note_on,31,24,0
2,note_on,31,0,160
2,note_on,43,27,0
2,note_on,43,0,47
2,note_on,31,23,0
2,note_on,31,0,160
2,note_on,43,22,0
2,note_on,43,0,160
2,note_on,31,25,0
2,note_on,31,0,61
2,note_on,43,21,0
2,note_on,43,0,160
2,note_on,31,21,0
2,note_on,31,0,157
2,note_on,31,27,3
2,note_on,31,0,68
2,note_on,43,23,0
2,note_on,43,0,160
2,note_on,31,24,0
2,note_on,31,0,160
2,note_on,43,27,0
2,note_on,43,0,160
2,note_on,31,23,0
2,note_on,31,0,160
2,note_on,43,23,0
2,note_on,43,0,160
2,note_on,31,27,0
2,note_on,31,0,47
2,note_on,43,23,0
2,note_on,43,0,160
2,note_on,31,23,0
2,note_on,31,0,160
2,note_on,43,23,0
2,note_on,50,23,0
2,note_on,50,0,1040
2,note_on,43,0,0
2,note_on,55,54,1
2,note_on,57,44,342
2,note_on,55,0,1
2,note_on,57,0,59
2,note_on,55,54,0
2,note_on,55,0,128
2,note_on,52,50,0
2,note_on,52,0,160
2,note_on,48,47,0
2,note_on,48,0,160
2,note_on,55,54,0
2,note_on,55,0,300
2,note_on,64,51,0
2,note_on,64,0,120
2,note_on,64,54,0
2,note_on,64,0,706
2,note_on,60,40,0
2,note_on,60,0,226
2,note_on,43,51,0
2,note_on,43,0,120
2,note_on,45,46,120
2,note_on,45,0,120
2,note_on,47,46,0
2,note_on,47,0,120
2,note_on,48,51,0
2,note_on,48,0,90
2,note_on,43,45,150
2,note_on,43,0,90
2,note_on,48,51,150
2,note_on,48,0,120
2,note_on,43,36,360
2,note_on,43,0,240
2,note_on,45,34,0
2,note_on,45,0,120
2,note_on,47,35,0
2,note_on,47,0,120
2,note_on,48,36,0
2,note_on,48,0,120
2,note_on,43,33,120
2,note_on,43,0,90
2,note_on,48,36,150
2,note_on,48,0,90
2,note_on,46,33,150
2,note_on,46,0,90
2,note_on,46,46,0
2,note_on,46,0,240
2,note_on,51,43,0
2,note_on,51,0,100
2,note_on,51,48,11
2,note_on,51,0,240
2,note_on,50,46,0
2,note_on,50,0,116
2,note_on,50,54,0
2,note_on,50,0,240
2,note_on,55,51,0
2,note_on,55,0,109
2,note_on,55,59,0
2,note_on,55,0,240
2,note_on,43,55,0
2,note_on,53,55,0
2,note_on,55,55,0
2,note_on,55,0,160
2,note_on,53,0,0
2,note_on,43,0,0
2,note_on,43,61,0
2,note_on,53,61,0
2,note_on,55,61,0
2,note_on,55,0,525
2,note_on,53,0,0
2,note_on,43,0,0
2,note_on,43,48,0
2,note_on,50,48,0
2,note_on,55,48,0
2,note_on,55,0,240
2,note_on,50,0,0
2,note_on,43,0,0
2,note_on,48,48,0
2,note_on,55,48,0
2,note_on,55,0,1120
2,note_on,48,0,0
2,note_on,52,52,423
2,note_on,52,0,356
2,note_on,53,44,0
2,note_on,53,0,60
2,note_on,52,58,0
2,note_on,52,0,89
2,note_on,47,57,0
2,note_on,47,0,160
2,note_on,40,54,0
2,note_on,40,0,160
2,note_on,52,59,0
2,note_on,52,0,473
2,note_on,52,52,0
2,note_on,52,0,416
2,note_on,53,44,0
2,note_on,53,0,60
2,note_on,52,59,0
2,note_on,52,0,110
2,note_on,55,55,0
2,note_on,55,0,160
2,note_on,60,53,0
2,note_on,60,0,160
2,note_on,65,53,0
2,note_on,62,45,0
2,note_on,62,0,416
2,note_on,65,0,0
2,note_on,64,52,0
2,note_on,60,44,0
2,note_on,60,0,395
2,note_on,64,0,0
2,note_on,66,55,0
2,note_on,62,46,0
2,note_on,62,0,183
2,note_on,66,0,0
2,note_on,66,53,0
2,note_on,62,45,0
2,note_on,62,0,240
2,note_on,66,0,0
2,note_on,62,47,0
2,note_on,55,47,0
2,note_on,67,56,0
2,note_on,67,0,462
2,note_on,55,0,0
2,note_on,62,0,0
2,note_on,59,61,0
2,note_on,59,0,42
2,note_on,60,51,0
2,note_on,60,0,60
2,note_on,59,61,0
2,note_on,59,0,146
2,note_on,55,59,0
2,note_on,55,0,160
2,note_on,52,56,0
2,note_on,52,0,48
2,note_on,67,76,40
2,note_on,67,0,215
2,note_on,64,64,0
2,note_on,64,0,90
2,note_on,59,62,134
2,note_on,59,0,35
2,note_on,60,53,0
2,note_on,60,0,60
2,note_on,59,64,0
2,note_on,59,0,160
2,note_on,55,61,0
2,note_on,55,0,160
2,note_on,52,57,0
2,note_on,52,0,76
2,note_on,67,76,40
2,note_on,67,0,212
2,note_on,64,66,0
2,note_on,64,0,90
2,note_on,47,77,109
2,note_on,47,0,229
2,note_on,59,72,0
2,note_on,59,0,7
2,note_on,63,55,90
2,note_on,63,0,60
2,note_on,64,73,0
2,note_on,64,0,160
2,note_on,66,67,0
2,note_on,66,0,160
2,note_on,67,78,0
2,note_on,67,0,160
2,note_on,47,79,0
2,note_on,47,0,223
2,note_on,59,73,0
2,note_on,59,0,19
2,note_on,63,58,90
2,note_on,63,0,60
2,note_on,64,75,0
2,note_on,64,0,160
2,note_on,66,68,0
2,note_on,66,0,160
2,note_on,67,66,0
2,note_on,67,0,160
2,note_on,47,80,0
2,note_on,47,0,217
2,note_on,59,75,0
2,note_on,59,0,90
2,note_on,35,81,97
2,note_on,35,0,200
2,note_on,47,70,0
2,note_on,47,0,90
2,note_on,64,36,1566
2,note_on,64,0,219
2,note_on,67,25,0
2,note_on,67,0,120
2,note_on,64,34,113
2,note_on,64,0,226
2,note_on,67,25,0
2,note_on,67,0,49
2,note_on,64,33,7
2,note_on,64,0,240
2,note_on,67,26,0
2,note_on,67,0,120
2,note_on,64,33,0
2,note_on,64,0,240
2,note_on,67,24,0
2,note_on,67,0,120
2,note_on,64,31,113
2,note_on,64,0,226
2,note_on,67,23,0
2,note_on,67,0,120
2,note_on,64,30,99
2,note_on,64,0,219
2,note_on,67,21,0
2,note_on,67,0,120
2,note_on,55,48,78
2,note_on,55,0,392
2,note_on,57,40,0
2,note_on,57,0,60
2,note_on,55,48,0
2,note_on,55,0,107
2,note_on,52,45,0
2,note_on,52,0,160
2,note_on,48,39,0
2,note_on,48,0,160
2,note_on,55,48,0
2,note_on,55,0,282
2,note_on,64,45,0
2,note_on,64,0,120
2,note_on,64,48,0
2,note_on,64,0,819
2,note_on,60,36,0
2,note_on,60,0,240
2,note_on,55,48,413
2,note_on,55,0,374
2,note_on,57,40,0
2,note_on,57,0,60
2,note_on,55,48,0
2,note_on,55,0,103
2,note_on,52,45,0
2,note_on,52,0,160
2,note_on,48,41,0
2,note_on,48,0,160
2,note_on,55,48,0
2,note_on,55,0,286
2,note_on,64,45,0
2,note_on,64,0,120
2,note_on,64,48,0
2,note_on,64,0,413
2,note_on,60,38,0
2,note_on,60,0,194
2,note_on,43,61,0
2,note_on,43,0,120
2,note_on,45,55,120
2,note_on,45,0,120
2,note_on,47,55,0
2,note_on,47,0,120
2,note_on,48,61,0
2,note_on,48,0,90
2,note_on,43,53,150
2,note_on,43,0,90
2,note_on,48,61,150
2,note_on,48,0,120
2,note_on,51,38,360
2,note_on,55,38,0
2,note_on,55,0,120
2,note_on,51,0,0
2,note_on,50,35,120
2,note_on,53,35,0
2,note_on,55,35,0
2,note_on,55,0,120
2,note_on,53,0,0
2,note_on,50,0,0
2,note_on,48,38,120
2,note_on,51,38,0
2,note_on,55,38,0
2,note_on,55,0,90
2,note_on,51,0,0
2,note_on,48,0,0
2,note_on,47,35,150
2,note_on,50,35,0
2,note_on,55,35,0
2,note_on,55,0,90
2,note_on,50,0,0
2,note_on,47,0,0
2,note_on,48,42,150
2,note_on,51,42,0
2,note_on,55,42,0
2,note_on,55,0,90
2,note_on,51,0,0
2,note_on,48,0,0
2,note_on,50,49,150
2,note_on,53,49,0
2,note_on,58,49,0
2,note_on,58,0,120
2,note_on,53,0,0
2,note_on,50,0,0
2,note_on,53,52,120
2,note_on,56,52,0
2,note_on,58,52,0
2,note_on,58,0,120
2,note_on,56,0,0
2,note_on,53,0,0
2,note_on,51,49,120
2,note_on,55,49,0
2,note_on,58,49,0
2,note_on,58,0,120
2,note_on,55,0,0
2,note_on,51,0,0
2,note_on,51,53,120
2,note_on,55,53,0
2,note_on,58,53,0
2,note_on,58,0,120
2,note_on,55,0,0
2,note_on,51,0,0
2,note_on,54,51,120
2,note_on,57,51,0
2,note_on,62,51,0
2,note_on,62,0,120
2,note_on,57,0,0
2,note_on,54,0,0
2,note_on,57,57,120
2,note_on,60,57,0
2,note_on,62,57,0
2,note_on,62,0,120
2,note_on,60,0,0
2,note_on,57,0,0
2,note_on,55,55,120
2,note_on,58,55,0
2,note_on,62,55,0
2,note_on,62,0,120
2,note_on,58,0,0
2,note_on,55,0,0
2,note_on,55,62,120
2,note_on,58,62,0
2,note_on,62,62,0
2,note_on,62,0,120
2,note_on,58,0,0
2,note_on,55,0,0
2,note_on,43,49,120
2,note_on,50,49,0
2,note_on,59,49,0
2,note_on,59,0,120
2,note_on,50,0,0
2,note_on,43,0,0
2,note_on,43,47,0
2,note_on,50,47,0
2,note_on,59,47,0
2,note_on,59,0,720
2,note_on,50,0,0
2,note_on,43,0,0
2,note_on,65,37,0
2,note_on,67,37,0
2,note_on,55,37,0
2,note_on,55,0,240
2,note_on,67,0,0
2,note_on,65,0,0
2,note_on,67,35,0
2,note_on,64,35,0
2,note_on,60,35,0
2,note_on,60,0,1093
2,note_on,64,0,0
2,note_on,67,0,0
