Track,Message Type,Note,Velocity,Time
1,note_on,73,40,0
1,note_on,73,0,60
1,note_on,72,51,0
1,note_on,72,0,60
1,note_on,72,45,120
1,note_on,72,0,120
1,note_on,73,39,0
1,note_on,73,0,120
1,note_on,72,46,0
1,note_on,72,0,60
1,note_on,73,40,180
1,note_on,73,0,60
1,note_on,72,49,0
1,note_on,72,0,60
1,note_on,72,44,120
1,note_on,72,0,120
1,note_on,73,36,0
1,note_on,73,0,120
1,note_on,72,42,0
1,note_on,72,0,60
1,note_on,72,40,180
1,note_on,72,0,60
1,note_on,71,52,0
1,note_on,71,0,60
1,note_on,71,47,120
1,note_on,71,0,120
1,note_on,74,40,0
1,note_on,74,0,120
1,note_on,72,45,0
1,note_on,72,0,120
1,note_on,71,36,0
1,note_on,71,0,120
1,note_on,72,46,0
1,note_on,72,0,60
1,note_on,67,39,180
1,note_on,67,0,480
1,note_on,72,46,0
1,note_on,72,0,60
1,note_on,67,39,180
1,note_on,67,0,60
1,note_on,72,46,180
1,note_on,72,0,60
1,note_on,70,46,180
1,note_on,70,0,240
1,note_on,68,39,0
1,note_on,68,0,120
1,note_on,67,39,0
1,note_on,67,0,120
1,note_on,65,43,0
1,note_on,65,0,240
1,note_on,67,46,0
1,note_on,67,0,120
1,note_on,70,38,0
1,note_on,70,0,120
1,note_on,67,46,0
1,note_on,67,0,120
1,note_on,70,40,0
1,note_on,70,0,120
1,note_on,64,46,0
1,note_on,64,0,120
1,note_on,67,40,0
1,note_on,67,0,120
1,note_on,65,46,0
1,note_on,65,0,120
1,note_on,68,37,0
1,note_on,68,0,120
1,note_on,72,42,0
1,note_on,72,0,120
1,note_on,77,47,0
1,note_on,77,0,120
1,note_on,80,52,0
1,note_on,80,0,120
1,note_on,82,57,0
1,note_on,82,0,120
1,note_on,84,65,0
1,note_on,84,0,60
1,note_on,84,54,180
1,note_on,84,0,120
1,note_on,85,46,0
1,note_on,85,0,120
1,note_on,84,55,0
1,note_on,84,0,60
1,note_on,85,48,180
1,note_on,85,0,60
1,note_on,84,64,0
1,note_on,84,0,60
1,note_on,84,52,120
1,note_on,84,0,120
1,note_on,85,43,0
1,note_on,85,0,120
1,note_on,84,50,0
1,note_on,84,0,60
1,note_on,84,61,180
1,note_on,84,0,120
1,note_on,83,48,0
1,note_on,83,0,120
1,note_on,89,56,0
1,note_on,89,0,120
1,note_on,83,48,0
1,note_on,83,0,120
1,note_on,89,54,0
1,note_on,89,0,120
1,note_on,83,43,0
1,note_on,83,0,120
1,note_on,84,55,0
1,note_on,84,0,60
1,note_on,79,46,180
1,note_on,79,0,480
1,note_on,84,57,0
1,note_on,84,0,60
1,note_on,79,46,180
1,note_on,79,0,60
1,note_on,84,55,180
1,note_on,84,0,60
1,note_on,82,55,180
1,note_on,82,0,240
1,note_on,80,46,0
1,note_on,80,0,120
1,note_on,79,46,0
1,note_on,79,0,120
1,note_on,77,51,0
1,note_on,77,0,240
1,note_on,79,55,0
1,note_on,79,0,120
1,note_on,82,45,0
1,note_on,82,0,120
1,note_on,79,55,0
1,note_on,79,0,120
1,note_on,82,48,0
1,note_on,82,0,120
1,note_on,76,55,0
1,note_on,76,0,120
1,note_on,79,48,0
1,note_on,79,0,120
1,note_on,77,55,0
1,note_on,77,0,240
1,note_on,65,68,0
1,note_on,65,0,120
1,note_on,67,69,0
1,note_on,67,0,120
1,note_on,68,71,0
1,note_on,68,0,120
1,note_on,70,73,0
1,note_on,70,0,120
1,note_on,72,74,0
1,note_on,72,0,60
1,note_on,60,68,180
1,note_on,60,0,60
1,note_on,72,75,180
1,note_on,72,0,60
1,note_on,60,60,180
1,note_on,60,0,60
1,note_on,72,74,180
1,note_on,72,0,60
1,note_on,60,60,180
1,note_on,60,0,60
1,note_on,70,59,180
1,note_on,67,59,0
1,note_on,67,0,60
1,note_on,70,0,0
1,note_on,65,46,180
1,note_on,68,46,0
1,note_on,68,0,120
1,note_on,65,0,0
1,note_on,64,46,0
1,note_on,67,46,0
1,note_on,67,0,120
1,note_on,64,0,0
1,note_on,68,46,0
1,note_on,65,46,0
1,note_on,65,0,120
1,note_on,68,0,0
1,note_on,70,46,0
1,note_on,67,46,0
1,note_on,67,0,120
1,note_on,70,0,0
1,note_on,67,52,0
1,note_on,64,52,0
1,note_on,64,0,720
1,note_on,67,0,0
1,note_on,72,74,0
1,note_on,72,0,60
1,note_on,60,68,180
1,note_on,60,0,60
1,note_on,72,75,180
1,note_on,72,0,240
1,note_on,73,77,0
1,note_on,73,0,240
1,note_on,61,62,0
1,note_on,61,0,60
1,note_on,73,74,180
1,note_on,73,0,60
1,note_on,68,52,180
1,note_on,72,52,0
1,note_on,72,0,120
1,note_on,68,0,0
1,note_on,70,46,0
1,note_on,67,46,0
1,note_on,67,0,120
1,note_on,70,0,0
1,note_on,68,44,0
1,note_on,65,44,0
1,note_on,65,0,120
1,note_on,68,0,0
1,note_on,67,42,0
1,note_on,70,42,0
1,note_on,70,0,120
1,note_on,67,0,0
1,note_on,68,40,0
1,note_on,65,40,0
1,note_on,65,0,120
1,note_on,68,0,0
1,note_on,64,38,0
1,note_on,67,38,0
1,note_on,67,0,120
1,note_on,64,0,0
1,note_on,65,49,0
1,note_on,65,0,240
1,note_on,77,74,0
1,note_on,77,0,120
1,note_on,79,75,0
1,note_on,79,0,120
1,note_on,80,78,0
1,note_on,80,0,120
1,note_on,82,80,0
1,note_on,82,0,120
1,note_on,84,81,0
1,note_on,84,0,60
1,note_on,72,74,180
1,note_on,72,0,60
1,note_on,84,82,180
1,note_on,84,0,60
1,note_on,72,66,180
1,note_on,72,0,60
1,note_on,84,81,180
1,note_on,84,0,60
1,note_on,72,66,180
1,note_on,72,0,60
1,note_on,82,64,180
1,note_on,79,64,0
1,note_on,79,0,60
1,note_on,82,0,0
1,note_on,80,50,180
1,note_on,77,50,0
1,note_on,77,0,120
1,note_on,80,0,0
1,note_on,79,50,0
1,note_on,76,50,0
1,note_on,76,0,120
1,note_on,79,0,0
1,note_on,80,50,0
1,note_on,77,50,0
1,note_on,77,0,120
1,note_on,80,0,0
1,note_on,82,50,0
1,note_on,79,50,0
1,note_on,79,0,120
1,note_on,82,0,0
1,note_on,79,57,0
1,note_on,76,57,0
1,note_on,76,0,720
1,note_on,79,0,0
1,note_on,84,81,0
1,note_on,84,0,60
1,note_on,72,74,180
1,note_on,72,0,60
1,note_on,84,82,180
1,note_on,84,0,240
1,note_on,85,84,0
1,note_on,85,0,240
1,note_on,73,68,0
1,note_on,73,0,60
1,note_on,85,81,180
1,note_on,85,0,60
1,note_on,73,52,180
1,note_on,70,52,0
1,note_on,70,0,120
1,note_on,73,0,0
1,note_on,71,46,0
1,note_on,68,46,0
1,note_on,68,0,120
1,note_on,71,0,0
1,note_on,70,44,0
1,note_on,66,44,0
1,note_on,66,0,120
1,note_on,70,0,0
1,note_on,68,42,0
1,note_on,71,42,0
1,note_on,71,0,120
1,note_on,68,0,0
1,note_on,70,40,0
1,note_on,66,40,0
1,note_on,66,0,120
1,note_on,70,0,0
1,note_on,65,38,0
1,note_on,68,38,0
1,note_on,68,0,120
1,note_on,65,0,0
1,note_on,66,46,0
1,note_on,70,46,0
1,note_on,70,0,120
1,note_on,66,0,0
1,note_on,70,38,120
1,note_on,66,38,0
1,note_on,66,0,120
1,note_on,70,0,0
1,note_on,70,38,120
1,note_on,66,38,0
1,note_on,66,0,120
1,note_on,70,0,0
1,note_on,71,50,120
1,note_on,65,42,0
1,note_on,68,50,0
1,note_on,68,0,120
1,note_on,65,0,0
1,note_on,71,0,0
1,note_on,68,51,120
1,note_on,65,43,0
1,note_on,71,51,0
1,note_on,71,0,120
1,note_on,65,0,0
1,note_on,68,0,0
1,note_on,68,56,120
1,note_on,71,56,0
1,note_on,65,47,0
1,note_on,65,0,120
1,note_on,71,0,0
1,note_on,68,0,0
1,note_on,80,59,120
1,note_on,83,59,0
1,note_on,77,50,0
1,note_on,77,0,120
1,note_on,83,0,0
1,note_on,80,0,0
1,note_on,77,54,120
1,note_on,80,64,0
1,note_on,83,64,0
1,note_on,83,0,120
1,note_on,80,0,0
1,note_on,77,0,0
1,note_on,83,70,120
1,note_on,80,70,0
1,note_on,77,59,0
1,note_on,77,0,120
1,note_on,80,0,0
1,note_on,83,0,0
1,note_on,92,62,120
1,note_on,96,74,0
1,note_on,96,0,120
1,note_on,92,0,0
1,note_on,94,66,0
1,note_on,91,56,0
1,note_on,91,0,120
1,note_on,94,0,0
1,note_on,92,73,0
1,note_on,89,61,0
1,note_on,89,0,120
1,note_on,92,0,0
1,note_on,91,55,0
1,note_on,94,64,0
1,note_on,94,0,120
1,note_on,91,0,0
1,note_on,92,73,0
1,note_on,89,61,0
1,note_on,89,0,120
1,note_on,92,0,0
1,note_on,91,64,0
1,note_on,88,55,0
1,note_on,88,0,120
1,note_on,91,0,0
1,note_on,89,73,0
1,note_on,89,0,120
1,note_on,65,68,120
1,note_on,65,0,120
1,note_on,67,69,0
1,note_on,67,0,120
1,note_on,68,71,0
1,note_on,68,0,120
1,note_on,70,73,0
1,note_on,70,0,120
1,note_on,72,74,0
1,note_on,72,0,60
1,note_on,60,68,180
1,note_on,60,0,60
1,note_on,72,75,180
1,note_on,72,0,60
1,note_on,60,60,180
1,note_on,60,0,60
1,note_on,72,74,180
1,note_on,72,0,60
1,note_on,60,60,180
1,note_on,60,0,60
1,note_on,67,59,180
1,note_on,70,59,0
1,note_on,70,0,60
1,note_on,67,0,0
1,note_on,65,46,180
1,note_on,68,46,0
1,note_on,68,0,120
1,note_on,65,0,0
1,note_on,67,46,0
1,note_on,64,46,0
1,note_on,64,0,120
1,note_on,67,0,0
1,note_on,68,46,0
1,note_on,65,46,0
1,note_on,65,0,120
1,note_on,68,0,0
1,note_on,67,46,0
1,note_on,70,46,0
1,note_on,70,0,120
1,note_on,67,0,0
1,note_on,64,52,0
1,note_on,67,52,0
1,note_on,67,0,720
1,note_on,64,0,0
1,note_on,72,74,0
1,note_on,72,0,60
1,note_on,60,68,180
1,note_on,60,0,60
1,note_on,72,75,180
1,note_on,72,0,240
1,note_on,73,77,0
1,note_on,73,0,240
1,note_on,61,62,0
1,note_on,61,0,60
1,note_on,73,74,180
1,note_on,73,0,60
1,note_on,68,52,180
1,note_on,72,52,0
1,note_on,72,0,120
1,note_on,68,0,0
1,note_on,70,46,0
1,note_on,67,46,0
1,note_on,67,0,120
1,note_on,70,0,0
1,note_on,68,44,0
1,note_on,65,44,0
1,note_on,65,0,120
1,note_on,68,0,0
1,note_on,67,42,0
1,note_on,70,42,0
1,note_on,70,0,120
1,note_on,67,0,0
1,note_on,65,40,0
1,note_on,68,40,0
1,note_on,68,0,120
1,note_on,65,0,0
1,note_on,67,38,0
1,note_on,64,38,0
1,note_on,64,0,120
1,note_on,67,0,0
1,note_on,65,49,0
1,note_on,65,0,240
1,note_on,77,74,0
1,note_on,77,0,120
1,note_on,79,75,0
1,note_on,79,0,120
1,note_on,80,78,0
1,note_on,80,0,120
1,note_on,82,80,0
1,note_on,82,0,120
1,note_on,84,81,0
1,note_on,84,0,60
1,note_on,72,74,180
1,note_on,72,0,60
1,note_on,84,82,180
1,note_on,84,0,60
1,note_on,72,66,180
1,note_on,72,0,60
1,note_on,84,81,180
1,note_on,84,0,60
1,note_on,72,66,180
1,note_on,72,0,60
1,note_on,82,64,180
1,note_on,79,64,0
1,note_on,79,0,60
1,note_on,82,0,0
1,note_on,77,50,180
1,note_on,80,50,0
1,note_on,80,0,120
1,note_on,77,0,0
1,note_on,79,50,0
1,note_on,76,50,0
1,note_on,76,0,120
1,note_on,79,0,0
1,note_on,77,50,0
1,note_on,80,50,0
1,note_on,80,0,120
1,note_on,77,0,0
1,note_on,79,50,0
1,note_on,82,50,0
1,note_on,82,0,120
1,note_on,79,0,0
1,note_on,79,57,0
1,note_on,76,57,0
1,note_on,76,0,720
1,note_on,79,0,0
1,note_on,84,81,0
1,note_on,84,0,60
1,note_on,72,74,180
1,note_on,72,0,60
1,note_on,84,82,180
1,note_on,84,0,240
1,note_on,85,84,0
1,note_on,85,0,240
1,note_on,73,68,0
1,note_on,73,0,60
1,note_on,85,81,180
1,note_on,85,0,60
1,note_on,73,52,180
1,note_on,70,52,0
1,note_on,70,0,120
1,note_on,73,0,0
1,note_on,68,46,0
1,note_on,71,46,0
1,note_on,71,0,120
1,note_on,68,0,0
1,note_on,66,44,0
1,note_on,70,44,0
1,note_on,70,0,120
1,note_on,66,0,0
1,note_on,68,42,0
1,note_on,71,42,0
1,note_on,71,0,120
1,note_on,68,0,0
1,note_on,66,40,0
1,note_on,70,40,0
1,note_on,70,0,120
1,note_on,66,0,0
1,note_on,68,38,0
1,note_on,65,38,0
1,note_on,65,0,120
1,note_on,68,0,0
1,note_on,66,46,0
1,note_on,70,46,0
1,note_on,70,0,120
1,note_on,66,0,0
1,note_on,66,38,120
1,note_on,70,38,0
1,note_on,70,0,120
1,note_on,66,0,0
1,note_on,70,38,120
1,note_on,66,38,0
1,note_on,66,0,120
1,note_on,70,0,0
1,note_on,71,50,120
1,note_on,68,50,0
1,note_on,65,42,0
1,note_on,65,0,120
1,note_on,68,0,0
1,note_on,71,0,0
1,note_on,68,51,120
1,note_on,71,51,0
1,note_on,65,43,0
1,note_on,65,0,120
1,note_on,71,0,0
1,note_on,68,0,0
1,note_on,68,56,120
1,note_on,71,56,0
1,note_on,65,47,0
1,note_on,65,0,120
1,note_on,71,0,0
1,note_on,68,0,0
1,note_on,83,59,120
1,note_on,80,59,0
1,note_on,77,50,0
1,note_on,77,0,120
1,note_on,80,0,0
1,note_on,83,0,0
1,note_on,83,64,120
1,note_on,80,64,0
1,note_on,77,54,0
1,note_on,77,0,120
1,note_on,80,0,0
1,note_on,83,0,0
1,note_on,77,59,120
1,note_on,80,70,0
1,note_on,83,70,0
1,note_on,83,0,120
1,note_on,80,0,0
1,note_on,77,0,0
1,note_on,96,74,120
1,note_on,92,62,0
1,note_on,92,0,120
1,note_on,96,0,0
1,note_on,94,66,0
1,note_on,91,56,0
1,note_on,91,0,120
1,note_on,94,0,0
1,note_on,92,73,0
1,note_on,89,61,0
1,note_on,89,0,120
1,note_on,92,0,0
1,note_on,91,55,0
1,note_on,94,64,0
1,note_on,94,0,120
1,note_on,91,0,0
1,note_on,89,61,0
1,note_on,92,73,0
1,note_on,92,0,120
1,note_on,89,0,0
1,note_on,91,64,0
1,note_on,88,55,0
1,note_on,88,0,120
1,note_on,91,0,0
1,note_on,89,73,0
1,note_on,89,0,120
1,note_on,91,73,120
1,note_on,91,0,60
1,note_on,92,67,0
1,note_on,92,0,60
1,note_on,91,58,0
1,note_on,91,0,60
1,note_on,92,54,0
1,note_on,92,0,60
1,note_on,91,58,0
1,note_on,91,0,60
1,note_on,92,52,0
1,note_on,92,0,60
1,note_on,91,58,0
1,note_on,91,0,60
1,note_on,92,52,0
1,note_on,92,0,60
1,note_on,91,58,0
1,note_on,91,0,60
1,note_on,92,52,0
1,note_on,92,0,60
1,note_on,91,58,0
1,note_on,91,0,80
1,note_on,92,54,0
1,note_on,92,0,80
1,note_on,91,58,0
1,note_on,91,0,80
1,note_on,90,54,0
1,note_on,90,0,60
1,note_on,91,56,0
1,note_on,91,0,60
1,note_on,92,69,0
1,note_on,92,0,120
1,note_on,91,61,0
1,note_on,91,0,120
1,note_on,89,81,0
1,note_on,89,0,120
1,note_on,79,73,120
1,note_on,79,0,60
1,note_on,80,67,0
1,note_on,80,0,60
1,note_on,79,58,0
1,note_on,79,0,60
1,note_on,80,54,0
1,note_on,80,0,60
1,note_on,79,58,0
1,note_on,79,0,60
1,note_on,80,52,0
1,note_on,80,0,60
1,note_on,79,58,0
1,note_on,79,0,60
1,note_on,80,52,0
1,note_on,80,0,60
1,note_on,79,58,0
1,note_on,79,0,60
1,note_on,80,52,0
1,note_on,80,0,60
1,note_on,79,58,0
1,note_on,79,0,80
1,note_on,80,54,0
1,note_on,80,0,80
1,note_on,79,58,0
1,note_on,79,0,80
1,note_on,78,54,0
1,note_on,78,0,60
1,note_on,79,56,0
1,note_on,79,0,60
1,note_on,80,69,0
1,note_on,80,0,120
1,note_on,79,63,0
1,note_on,79,0,120
1,note_on,77,81,0
1,note_on,77,0,120
1,note_on,91,73,120
1,note_on,91,0,60
1,note_on,92,67,0
1,note_on,92,0,60
1,note_on,91,58,0
1,note_on,91,0,60
1,note_on,92,54,0
1,note_on,92,0,60
1,note_on,91,58,0
1,note_on,91,0,60
1,note_on,92,52,0
1,note_on,92,0,60
1,note_on,91,58,0
1,note_on,91,0,60
1,note_on,92,52,0
1,note_on,92,0,60
1,note_on,90,58,0
1,note_on,90,0,60
1,note_on,91,53,0
1,note_on,91,0,60
1,note_on,92,54,0
1,note_on,92,0,60
1,note_on,94,56,0
1,note_on,94,0,60
1,note_on,96,57,0
1,note_on,96,0,60
1,note_on,97,58,0
1,note_on,97,0,60
1,note_on,100,60,0
1,note_on,100,0,60
1,note_on,101,62,0
1,note_on,101,0,60
1,note_on,100,63,0
1,note_on,100,0,40
1,note_on,97,62,0
1,note_on,97,0,40
1,note_on,96,61,1
1,note_on,96,0,40
1,note_on,94,61,0
1,note_on,92,60,39
1,note_on,94,0,1
1,note_on,92,0,39
1,note_on,91,59,0
1,note_on,91,0,40
1,note_on,89,81,0
1,note_on,89,0,120
1,note_on,79,73,120
1,note_on,79,0,60
1,note_on,80,53,0
1,note_on,80,0,60
1,note_on,79,58,0
1,note_on,79,0,60
1,note_on,80,54,0
1,note_on,80,0,60
1,note_on,79,58,0
1,note_on,79,0,60
1,note_on,80,52,0
1,note_on,80,0,60
1,note_on,79,58,0
1,note_on,79,0,60
1,note_on,80,52,0
1,note_on,80,0,60
1,note_on,78,58,0
1,note_on,78,0,48
1,note_on,79,53,0
1,note_on,79,0,48
1,note_on,80,54,0
1,note_on,80,0,48
1,note_on,82,56,0
1,note_on,82,0,48
1,note_on,84,57,0
1,note_on,84,0,48
1,note_on,85,58,0
1,note_on,85,0,48
1,note_on,88,60,0
1,note_on,88,0,48
1,note_on,89,62,0
1,note_on,89,0,48
1,note_on,91,62,0
1,note_on,91,0,48
1,note_on,89,62,0
1,note_on,89,0,48
1,note_on,88,63,0
1,note_on,88,0,33
1,note_on,85,63,0
1,note_on,85,0,33
1,note_on,84,62,0
1,note_on,84,0,33
1,note_on,82,61,0
1,note_on,82,0,33
1,note_on,80,61,0
1,note_on,80,0,33
1,note_on,79,60,0
1,note_on,79,0,33
1,note_on,77,59,0
1,note_on,77,0,42
1,note_on,76,58,0
1,note_on,76,0,60
1,note_on,73,55,0
1,note_on,73,0,60
1,note_on,72,53,0
1,note_on,72,0,60
1,note_on,70,51,0
1,note_on,70,0,60
1,note_on,68,49,0
1,note_on,68,0,60
1,note_on,67,47,0
1,note_on,67,0,60
1,note_on,66,45,0
1,note_on,66,0,60
1,note_on,67,42,0
1,note_on,67,0,60
1,note_on,68,40,0
1,note_on,68,0,40
1,note_on,69,40,0
1,note_on,69,0,40
1,note_on,70,39,0
1,note_on,70,0,40
1,note_on,71,39,0
1,note_on,71,0,40
1,note_on,72,37,0
1,note_on,72,0,40
1,note_on,73,37,0
1,note_on,73,0,40
1,note_on,72,56,0
1,note_on,72,0,60
1,note_on,72,45,180
1,note_on,72,0,120
1,note_on,73,39,0
1,note_on,73,0,120
1,note_on,72,46,0
1,note_on,72,0,60
1,note_on,73,40,180
1,note_on,73,0,60
1,note_on,72,49,0
1,note_on,72,0,60
1,note_on,72,44,120
1,note_on,72,0,120
1,note_on,73,36,0
1,note_on,73,0,120
1,note_on,72,42,0
1,note_on,72,0,60
1,note_on,72,40,180
1,note_on,72,0,120
1,note_on,71,52,0
1,note_on,71,0,60
1,note_on,71,47,60
1,note_on,71,0,120
1,note_on,74,40,0
1,note_on,74,0,120
1,note_on,72,45,0
1,note_on,72,0,120
1,note_on,71,36,0
1,note_on,71,0,120
1,note_on,72,46,0
1,note_on,72,0,60
1,note_on,67,39,180
1,note_on,67,0,480
1,note_on,72,46,0
1,note_on,72,0,60
1,note_on,67,39,180
1,note_on,67,0,60
1,note_on,72,46,180
1,note_on,72,0,60
1,note_on,70,46,180
1,note_on,70,0,240
1,note_on,68,39,0
1,note_on,68,0,120
1,note_on,67,39,0
1,note_on,67,0,120
1,note_on,65,43,0
1,note_on,65,0,240
1,note_on,67,46,0
1,note_on,67,0,120
1,note_on,70,38,0
1,note_on,70,0,120
1,note_on,67,46,0
1,note_on,67,0,120
1,note_on,70,40,0
1,note_on,70,0,120
1,note_on,64,46,0
1,note_on,64,0,120
1,note_on,67,40,0
1,note_on,67,0,120
1,note_on,65,46,0
1,note_on,65,0,120
1,note_on,68,37,0
1,note_on,68,0,120
1,note_on,72,42,0
1,note_on,72,0,120
1,note_on,77,47,0
1,note_on,77,0,120
1,note_on,80,52,0
1,note_on,80,0,120
1,note_on,82,57,0
1,note_on,82,0,120
1,note_on,84,65,0
1,note_on,84,0,60
1,note_on,84,54,180
1,note_on,84,0,120
1,note_on,85,46,0
1,note_on,85,0,120
1,note_on,84,55,0
1,note_on,84,0,60
1,note_on,85,48,180
1,note_on,85,0,60
1,note_on,84,64,0
1,note_on,84,0,60
1,note_on,84,52,120
1,note_on,84,0,120
1,note_on,85,43,0
1,note_on,85,0,120
1,note_on,84,50,0
1,note_on,84,0,60
1,note_on,84,61,180
1,note_on,84,0,120
1,note_on,83,48,0
1,note_on,83,0,120
1,note_on,89,56,0
1,note_on,89,0,120
1,note_on,83,48,0
1,note_on,83,0,120
1,note_on,89,54,0
1,note_on,89,0,120
1,note_on,83,43,0
1,note_on,83,0,120
1,note_on,84,55,0
1,note_on,84,0,60
1,note_on,79,46,180
1,note_on,79,0,480
1,note_on,84,57,0
1,note_on,84,0,60
1,note_on,79,46,180
1,note_on,79,0,60
1,note_on,84,55,180
1,note_on,84,0,60
1,note_on,82,62,180
1,note_on,82,0,240
1,note_on,80,49,0
1,note_on,80,0,120
1,note_on,79,49,0
1,note_on,79,0,120
1,note_on,77,57,0
1,note_on,77,0,240
1,note_on,82,61,0
1,note_on,82,0,60
1,note_on,77,48,180
1,note_on,77,0,60
1,note_on,82,57,180
1,note_on,82,0,60
1,note_on,80,63,180
1,note_on,80,0,240
1,note_on,79,50,0
1,note_on,79,0,120
1,note_on,77,50,0
1,note_on,77,0,120
1,note_on,75,55,0
1,note_on,75,0,240
1,note_on,80,64,0
1,note_on,80,0,60
1,note_on,75,49,180
1,note_on,75,0,60
1,note_on,80,58,180
1,note_on,80,0,60
1,note_on,81,63,180
1,note_on,81,0,60
1,note_on,75,53,180
1,note_on,75,0,60
1,note_on,81,61,180
1,note_on,81,0,60
1,note_on,82,75,180
1,note_on,82,0,60
1,note_on,74,69,180
1,note_on,77,69,0
1,note_on,77,0,60
1,note_on,74,0,0
1,note_on,86,80,180
1,note_on,86,0,60
1,note_on,82,71,180
1,note_on,77,71,0
1,note_on,77,0,60
1,note_on,82,0,0
1,note_on,89,83,180
1,note_on,89,0,60
1,note_on,82,73,180
1,note_on,86,73,0
1,note_on,86,0,60
1,note_on,82,0,0
1,note_on,92,78,180
1,note_on,92,0,120
1,note_on,90,66,0
1,note_on,90,0,120
1,note_on,89,77,0
1,note_on,89,0,120
1,note_on,90,62,0
1,note_on,90,0,120
1,note_on,87,71,0
1,note_on,87,0,120
1,note_on,84,66,120
1,note_on,84,0,120
1,note_on,81,61,120
1,note_on,81,0,120
1,note_on,78,52,120
1,note_on,78,0,120
1,note_on,82,75,120
1,note_on,82,0,60
1,note_on,77,69,180
1,note_on,74,69,0
1,note_on,74,0,60
1,note_on,77,0,0
1,note_on,86,80,180
1,note_on,86,0,60
1,note_on,77,71,180
1,note_on,82,71,0
1,note_on,82,0,60
1,note_on,77,0,0
1,note_on,89,83,180
1,note_on,89,0,60
1,note_on,86,73,180
1,note_on,82,73,0
1,note_on,82,0,60
1,note_on,86,0,0
1,note_on,92,78,180
1,note_on,92,0,120
1,note_on,90,66,0
1,note_on,90,0,120
1,note_on,89,77,0
1,note_on,89,0,120
1,note_on,90,62,0
1,note_on,90,0,120
1,note_on,87,69,0
1,note_on,87,0,120
1,note_on,84,66,120
1,note_on,84,0,120
1,note_on,81,61,120
1,note_on,81,0,120
1,note_on,78,52,120
1,note_on,78,0,120
1,note_on,82,75,120
1,note_on,82,0,60
1,note_on,77,69,180
1,note_on,74,69,0
1,note_on,74,0,60
1,note_on,77,0,0
1,note_on,83,77,180
1,note_on,83,0,60
1,note_on,74,71,180
1,note_on,77,71,0
1,note_on,77,0,60
1,note_on,74,0,0
1,note_on,86,83,180
1,note_on,86,0,60
1,note_on,83,73,180
1,note_on,77,73,0
1,note_on,77,0,60
1,note_on,83,0,0
1,note_on,84,75,180
1,note_on,84,0,60
1,note_on,76,69,180
1,note_on,79,69,0
1,note_on,79,0,60
1,note_on,76,0,0
1,note_on,88,77,180
1,note_on,88,0,60
1,note_on,79,71,180
1,note_on,85,71,0
1,note_on,85,0,60
1,note_on,79,0,0
1,note_on,91,83,180
1,note_on,91,0,60
1,note_on,85,73,180
1,note_on,82,73,0
1,note_on,88,73,0
1,note_on,88,0,60
1,note_on,82,0,0
1,note_on,85,0,0
1,note_on,89,75,180
1,note_on,89,0,60
1,note_on,77,69,180
1,note_on,84,69,0
1,note_on,84,0,60
1,note_on,77,0,0
1,note_on,94,77,180
1,note_on,94,0,60
1,note_on,82,71,180
1,note_on,82,0,60
1,note_on,96,83,180
1,note_on,96,0,60
1,note_on,84,73,180
1,note_on,84,0,60
1,note_on,101,87,180
1,note_on,89,73,0
1,note_on,89,0,120
1,note_on,101,0,0
1,note_on,91,73,120
1,note_on,91,0,60
1,note_on,92,67,0
1,note_on,92,0,60
1,note_on,91,58,0
1,note_on,91,0,60
1,note_on,92,54,0
1,note_on,92,0,60
1,note_on,91,58,0
1,note_on,91,0,60
1,note_on,92,52,0
1,note_on,92,0,60
1,note_on,91,58,0
1,note_on,91,0,60
1,note_on,92,52,0
1,note_on,92,0,60
1,note_on,91,58,0
1,note_on,91,0,60
1,note_on,92,52,0
1,note_on,92,0,60
1,note_on,91,58,0
1,note_on,91,0,80
1,note_on,92,54,0
1,note_on,92,0,80
1,note_on,91,58,0
1,note_on,91,0,80
1,note_on,90,54,0
1,note_on,90,0,60
1,note_on,91,56,0
1,note_on,91,0,60
1,note_on,92,64,0
1,note_on,92,0,120
1,note_on,91,58,0
1,note_on,91,0,120
1,note_on,89,81,0
1,note_on,89,0,120
1,note_on,79,73,120
1,note_on,79,0,60
1,note_on,80,67,0
1,note_on,80,0,60
1,note_on,79,58,0
1,note_on,79,0,60
1,note_on,80,54,0
1,note_on,80,0,60
1,note_on,79,58,0
1,note_on,79,0,60
1,note_on,80,52,0
1,note_on,80,0,60
1,note_on,79,58,0
1,note_on,79,0,60
1,note_on,80,52,0
1,note_on,80,0,60
1,note_on,79,58,0
1,note_on,79,0,60
1,note_on,80,52,0
1,note_on,80,0,60
1,note_on,79,58,0
1,note_on,79,0,80
1,note_on,80,54,0
1,note_on,80,0,80
1,note_on,79,58,0
1,note_on,79,0,80
1,note_on,78,54,0
1,note_on,78,0,60
1,note_on,79,56,0
1,note_on,79,0,60
1,note_on,80,64,0
1,note_on,80,0,120
1,note_on,79,58,0
1,note_on,79,0,120
1,note_on,77,81,0
1,note_on,77,0,120
1,note_on,91,73,120
1,note_on,91,0,60
1,note_on,92,67,0
1,note_on,92,0,60
1,note_on,91,58,0
1,note_on,91,0,60
1,note_on,92,54,0
1,note_on,92,0,60
1,note_on,91,58,0
1,note_on,91,0,60
1,note_on,92,52,0
1,note_on,92,0,60
1,note_on,91,58,0
1,note_on,91,0,60
1,note_on,92,52,0
1,note_on,92,0,60
1,note_on,90,58,0
1,note_on,90,0,60
1,note_on,91,53,0
1,note_on,91,0,60
1,note_on,92,54,0
1,note_on,92,0,60
1,note_on,94,56,0
1,note_on,94,0,60
1,note_on,96,57,0
1,note_on,96,0,60
1,note_on,97,58,0
1,note_on,97,0,60
1,note_on,100,60,0
1,note_on,100,0,60
1,note_on,101,62,0
1,note_on,101,0,60
1,note_on,100,63,0
1,note_on,100,0,40
1,note_on,97,62,0
1,note_on,97,0,40
1,note_on,96,61,1
1,note_on,96,0,40
1,note_on,94,61,0
1,note_on,92,60,39
1,note_on,94,0,1
1,note_on,92,0,39
1,note_on,91,59,0
1,note_on,91,0,40
1,note_on,89,81,0
1,note_on,89,0,120
1,note_on,79,73,120
1,note_on,79,0,60
1,note_on,80,67,0
1,note_on,80,0,60
1,note_on,79,58,0
1,note_on,79,0,60
1,note_on,80,54,0
1,note_on,80,0,60
1,note_on,79,58,0
1,note_on,79,0,60
1,note_on,80,52,0
1,note_on,80,0,60
1,note_on,79,58,0
1,note_on,79,0,60
1,note_on,80,52,0
1,note_on,80,0,60
1,note_on,78,58,0
1,note_on,78,0,48
1,note_on,79,53,0
1,note_on,79,0,48
1,note_on,80,54,0
1,note_on,80,0,48
1,note_on,82,56,0
1,note_on,82,0,48
1,note_on,84,57,0
1,note_on,84,0,48
1,note_on,86,58,0
1,note_on,86,0,48
1,note_on,88,60,0
1,note_on,88,0,48
1,note_on,89,62,0
1,note_on,89,0,48
1,note_on,91,62,0
1,note_on,91,0,48
1,note_on,89,62,0
1,note_on,89,0,48
1,note_on,88,60,0
1,note_on,88,0,17
1,note_on,86,59,0
1,note_on,84,57,17
1,note_on,86,0,0
1,note_on,84,0,17
1,note_on,82,56,0
1,note_on,80,55,16
1,note_on,82,0,1
1,note_on,80,0,16
1,note_on,79,53,0
1,note_on,79,0,17
1,note_on,77,51,0
1,note_on,76,50,17
1,note_on,77,0,0
1,note_on,76,0,17
1,note_on,73,48,0
1,note_on,72,47,16
1,note_on,73,0,1
1,note_on,72,0,21
1,note_on,70,46,0
1,note_on,70,0,22
1,note_on,68,44,0
1,note_on,68,0,22
1,note_on,67,42,0
1,note_on,67,0,23
1,note_on,65,70,0
1,note_on,65,0,240
1,note_on,73,67,480
1,note_on,70,67,0
1,note_on,75,67,0
1,note_on,67,67,0
1,note_on,79,79,0
1,note_on,79,0,240
1,note_on,75,0,0
1,note_on,73,0,0
1,note_on,70,0,0
1,note_on,67,0,0
1,note_on,80,40,480
1,note_on,80,0,120
1,note_on,82,39,0
1,note_on,82,0,120
1,note_on,84,41,0
1,note_on,84,0,120
1,note_on,85,43,0
1,note_on,85,0,120
1,note_on,87,46,0
1,note_on,87,0,120
1,note_on,85,46,0
1,note_on,85,0,120
1,note_on,84,46,0
1,note_on,84,0,120
1,note_on,82,45,0
1,note_on,82,0,120
1,note_on,80,44,0
1,note_on,80,0,120
1,note_on,79,43,0
1,note_on,79,0,120
1,note_on,77,42,0
1,note_on,77,0,120
1,note_on,75,41,0
1,note_on,75,0,120
1,note_on,73,41,0
1,note_on,73,0,120
1,note_on,72,39,0
1,note_on,72,0,120
1,note_on,70,38,0
1,note_on,70,0,120
1,note_on,68,38,0
1,note_on,68,0,120
1,note_on,67,36,0
1,note_on,67,0,120
1,note_on,68,35,0
1,note_on,68,0,120
1,note_on,70,33,0
1,note_on,70,0,120
1,note_on,72,33,0
1,note_on,72,0,120
1,note_on,73,34,0
1,note_on,73,0,120
1,note_on,75,36,0
1,note_on,75,0,120
1,note_on,77,37,0
1,note_on,77,0,120
1,note_on,79,39,0
1,note_on,79,0,120
1,note_on,80,40,0
1,note_on,80,0,120
1,note_on,82,39,0
1,note_on,82,0,120
1,note_on,84,41,0
1,note_on,84,0,120
1,note_on,85,43,0
1,note_on,89,46,113
1,note_on,85,0,7
1,note_on,89,0,113
1,note_on,87,46,7
1,note_on,87,0,120
1,note_on,85,46,0
1,note_on,85,0,120
1,note_on,84,45,0
1,note_on,84,0,120
1,note_on,82,44,0
1,note_on,82,0,120
1,note_on,80,43,0
1,note_on,80,0,120
1,note_on,79,42,0
1,note_on,79,0,120
1,note_on,77,41,0
1,note_on,77,0,120
1,note_on,75,41,0
1,note_on,75,0,120
1,note_on,77,33,0
1,note_on,77,0,120
1,note_on,73,38,0
1,note_on,73,0,120
1,note_on,75,32,0
1,note_on,75,0,120
1,note_on,72,36,0
1,note_on,72,0,120
1,note_on,75,29,0
1,note_on,75,0,120
1,note_on,70,33,0
1,note_on,70,0,120
1,note_on,75,30,0
1,note_on,75,0,120
1,note_on,68,38,0
1,note_on,68,0,120
1,note_on,75,31,0
1,note_on,75,0,120
1,note_on,67,40,0
1,note_on,67,0,120
1,note_on,75,33,0
1,note_on,75,0,120
1,note_on,80,40,0
1,note_on,80,0,120
1,note_on,82,39,0
1,note_on,82,0,120
1,note_on,83,41,0
1,note_on,83,0,120
1,note_on,85,43,0
1,note_on,85,0,120
1,note_on,87,46,0
1,note_on,87,0,120
1,note_on,85,46,0
1,note_on,85,0,120
1,note_on,83,46,0
1,note_on,83,0,120
1,note_on,82,45,0
1,note_on,82,0,120
1,note_on,80,44,0
1,note_on,80,0,120
1,note_on,78,43,0
1,note_on,78,0,120
1,note_on,76,42,0
1,note_on,76,0,120
1,note_on,75,41,0
1,note_on,75,0,120
1,note_on,73,41,0
1,note_on,73,0,120
1,note_on,71,39,0
1,note_on,71,0,120
1,note_on,70,38,0
1,note_on,70,0,120
1,note_on,68,38,0
1,note_on,68,0,120
1,note_on,67,36,0
1,note_on,67,0,120
1,note_on,68,35,0
1,note_on,68,0,120
1,note_on,70,33,0
1,note_on,70,0,120
1,note_on,71,33,0
1,note_on,71,0,120
1,note_on,73,34,0
1,note_on,73,0,120
1,note_on,75,36,0
1,note_on,75,0,120
1,note_on,76,37,0
1,note_on,76,0,120
1,note_on,79,39,0
1,note_on,79,0,120
1,note_on,80,40,0
1,note_on,80,0,120
1,note_on,82,39,0
1,note_on,82,0,120
1,note_on,83,41,0
1,note_on,83,0,120
1,note_on,85,43,0
1,note_on,85,0,120
1,note_on,88,46,0
1,note_on,88,0,120
1,note_on,87,46,0
1,note_on,87,0,120
1,note_on,85,46,0
1,note_on,85,0,120
1,note_on,83,45,0
1,note_on,83,0,120
1,note_on,82,44,0
1,note_on,82,0,120
1,note_on,80,43,0
1,note_on,80,0,120
1,note_on,78,42,0
1,note_on,78,0,120
1,note_on,76,41,0
1,note_on,76,0,120
1,note_on,75,46,0
1,note_on,75,0,240
1,note_on,73,38,0
1,note_on,73,0,120
1,note_on,75,32,0
1,note_on,75,0,120
1,note_on,71,36,0
1,note_on,71,0,120
1,note_on,75,29,0
1,note_on,75,0,120
1,note_on,70,33,0
1,note_on,70,0,120
1,note_on,75,30,0
1,note_on,75,0,120
1,note_on,68,38,0
1,note_on,68,0,120
1,note_on,75,31,0
1,note_on,75,0,120
1,note_on,67,40,0
1,note_on,67,0,120
1,note_on,80,46,120
1,note_on,80,0,120
1,note_on,82,44,0
1,note_on,82,0,120
1,note_on,84,47,0
1,note_on,84,0,120
1,note_on,85,49,0
1,note_on,85,0,120
1,note_on,87,52,0
1,note_on,87,0,120
1,note_on,85,52,0
1,note_on,85,0,120
1,note_on,84,52,0
1,note_on,84,0,120
1,note_on,82,51,0
1,note_on,82,0,120
1,note_on,80,50,0
1,note_on,80,0,120
1,note_on,79,49,0
1,note_on,79,0,120
1,note_on,77,48,0
1,note_on,77,0,120
1,note_on,75,47,0
1,note_on,75,0,120
1,note_on,73,47,0
1,note_on,73,0,120
1,note_on,72,44,0
1,note_on,72,0,120
1,note_on,70,43,0
1,note_on,70,0,120
1,note_on,68,43,0
1,note_on,68,0,120
1,note_on,67,41,0
1,note_on,67,0,120
1,note_on,68,40,0
1,note_on,68,0,120
1,note_on,70,37,0
1,note_on,70,0,120
1,note_on,72,37,0
1,note_on,72,0,120
1,note_on,73,39,0
1,note_on,73,0,120
1,note_on,75,41,0
1,note_on,75,0,120
1,note_on,77,42,0
1,note_on,77,0,120
1,note_on,79,44,0
1,note_on,79,0,120
1,note_on,80,46,0
1,note_on,80,0,120
1,note_on,82,47,0
1,note_on,82,0,120
1,note_on,84,49,0
1,note_on,84,0,120
1,note_on,85,52,0
1,note_on,85,0,120
1,note_on,87,54,0
1,note_on,87,0,120
1,note_on,89,56,0
1,note_on,89,0,120
1,note_on,91,59,0
1,note_on,91,0,120
1,note_on,92,61,0
1,note_on,92,0,120
1,note_on,94,63,0
1,note_on,94,0,120
1,note_on,96,66,0
1,note_on,96,0,120
1,note_on,97,68,0
1,note_on,97,0,120
1,note_on,99,70,0
1,note_on,99,0,120
1,note_on,101,73,0
1,note_on,101,0,120
1,note_on,99,73,0
1,note_on,99,0,120
1,note_on,97,72,0
1,note_on,97,0,120
1,note_on,96,71,0
1,note_on,96,0,120
1,note_on,94,70,0
1,note_on,94,0,120
1,note_on,92,69,0
1,note_on,92,0,120
1,note_on,91,68,0
1,note_on,91,0,120
1,note_on,89,67,0
1,note_on,89,0,120
1,note_on,87,66,0
1,note_on,87,0,120
1,note_on,85,66,0
1,note_on,85,0,120
1,note_on,84,65,0
1,note_on,84,0,120
1,note_on,82,64,0
1,note_on,82,0,120
1,note_on,80,67,0
1,note_on,80,0,120
1,note_on,82,68,0
1,note_on,82,0,120
1,note_on,83,69,0
1,note_on,83,0,120
1,note_on,85,71,0
1,note_on,85,0,120
1,note_on,87,72,0
1,note_on,87,0,120
1,note_on,85,73,0
1,note_on,85,0,120
1,note_on,83,74,0
1,note_on,83,0,120
1,note_on,82,73,0
1,note_on,82,0,120
1,note_on,80,71,0
1,note_on,80,0,120
1,note_on,78,70,0
1,note_on,78,0,120
1,note_on,76,68,0
1,note_on,76,0,120
1,note_on,75,67,0
1,note_on,75,0,120
1,note_on,73,65,0
1,note_on,73,0,120
1,note_on,71,64,0
1,note_on,71,0,120
1,note_on,70,62,0
1,note_on,70,0,120
1,note_on,68,61,0
1,note_on,68,0,120
1,note_on,67,59,0
1,note_on,67,0,120
1,note_on,68,58,0
1,note_on,68,0,120
1,note_on,70,56,0
1,note_on,70,0,120
1,note_on,71,55,0
1,note_on,71,0,120
1,note_on,73,56,0
1,note_on,73,0,120
1,note_on,75,58,0
1,note_on,75,0,120
1,note_on,76,60,0
1,note_on,76,0,120
1,note_on,79,62,0
1,note_on,79,0,120
1,note_on,80,65,0
1,note_on,80,0,120
1,note_on,82,63,0
1,note_on,82,0,120
1,note_on,83,65,0
1,note_on,83,0,120
1,note_on,85,66,0
1,note_on,85,0,120
1,note_on,87,67,0
1,note_on,87,0,120
1,note_on,89,68,0
1,note_on,89,0,120
1,note_on,91,69,0
1,note_on,91,0,120
1,note_on,92,70,0
1,note_on,92,0,120
1,note_on,94,72,0
1,note_on,94,0,120
1,note_on,95,73,0
1,note_on,95,0,120
1,note_on,97,74,0
1,note_on,97,0,120
1,note_on,99,75,0
1,note_on,99,0,120
1,note_on,100,76,0
1,note_on,100,0,120
1,note_on,99,77,0
1,note_on,99,0,120
1,note_on,97,72,0
1,note_on,97,0,120
1,note_on,95,71,0
1,note_on,95,0,120
1,note_on,94,70,0
1,note_on,94,0,120
1,note_on,92,69,0
1,note_on,92,0,120
1,note_on,91,71,0
1,note_on,91,0,120
1,note_on,88,68,0
1,note_on,88,0,120
1,note_on,87,65,0
1,note_on,87,0,120
1,note_on,85,62,0
1,note_on,85,0,120
1,note_on,83,60,0
1,note_on,83,0,120
1,note_on,82,57,0
1,note_on,82,0,120
1,note_on,87,63,0
1,note_on,87,0,120
1,note_on,85,62,0
1,note_on,85,0,120
1,note_on,83,60,0
1,note_on,83,0,120
1,note_on,82,58,0
1,note_on,82,0,120
1,note_on,80,57,0
1,note_on,80,0,120
1,note_on,78,55,0
1,note_on,78,0,120
1,note_on,76,53,0
1,note_on,76,0,120
1,note_on,75,52,0
1,note_on,75,0,120
1,note_on,73,50,0
1,note_on,73,0,120
1,note_on,71,48,0
1,note_on,71,0,120
1,note_on,70,46,0
1,note_on,70,0,120
1,note_on,68,45,0
1,note_on,68,0,120
1,note_on,69,46,0
1,note_on,69,0,120
1,note_on,73,43,0
1,note_on,73,0,120
1,note_on,69,48,0
1,note_on,69,0,120
1,note_on,73,42,0
1,note_on,73,0,120
1,note_on,76,53,0
1,note_on,76,0,120
1,note_on,67,46,120
1,note_on,67,0,120
1,note_on,70,43,0
1,note_on,70,0,120
1,note_on,67,48,0
1,note_on,67,0,120
1,note_on,70,42,0
1,note_on,70,0,120
1,note_on,75,53,0
1,note_on,75,0,120
1,note_on,99,70,120
1,note_on,99,0,120
1,note_on,97,69,0
1,note_on,97,0,120
1,note_on,95,67,0
1,note_on,95,0,120
1,note_on,94,65,0
1,note_on,94,0,120
1,note_on,92,63,0
1,note_on,92,0,120
1,note_on,90,62,0
1,note_on,90,0,120
1,note_on,88,60,0
1,note_on,88,0,120
1,note_on,87,58,0
1,note_on,87,0,120
1,note_on,85,57,0
1,note_on,85,0,120
1,note_on,83,55,0
1,note_on,83,0,120
1,note_on,82,53,0
1,note_on,82,0,120
1,note_on,80,52,0
1,note_on,80,0,120
1,note_on,81,50,0
1,note_on,81,0,120
1,note_on,85,45,0
1,note_on,85,0,120
1,note_on,81,52,0
1,note_on,81,0,120
1,note_on,85,46,0
1,note_on,85,0,120
1,note_on,88,54,0
1,note_on,88,0,120
1,note_on,79,51,120
1,note_on,79,0,120
1,note_on,82,44,0
1,note_on,82,0,120
1,note_on,79,51,0
1,note_on,79,0,120
1,note_on,82,45,0
1,note_on,82,0,120
1,note_on,87,53,0
1,note_on,87,0,120
1,note_on,92,70,120
1,note_on,92,0,120
1,note_on,87,68,0
1,note_on,87,0,120
1,note_on,85,66,0
1,note_on,85,0,120
1,note_on,83,64,0
1,note_on,83,0,120
1,note_on,82,62,0
1,note_on,82,0,80
1,note_on,80,60,0
1,note_on,80,0,80
1,note_on,78,59,0
1,note_on,78,0,80
1,note_on,76,57,0
1,note_on,76,0,120
1,note_on,75,55,0
1,note_on,75,0,120
1,note_on,73,53,0
1,note_on,73,0,120
1,note_on,71,51,0
1,note_on,71,0,120
1,note_on,70,49,0
1,note_on,70,0,120
1,note_on,68,47,0
1,note_on,68,0,120
1,note_on,69,51,0
1,note_on,69,0,120
1,note_on,73,45,0
1,note_on,73,0,120
1,note_on,69,50,0
1,note_on,69,0,120
1,note_on,73,45,0
1,note_on,73,0,120
1,note_on,76,50,0
1,note_on,76,0,480
1,note_on,75,39,0
1,note_on,75,0,240
1,note_on,67,34,0
1,note_on,67,0,240
1,note_on,68,42,0
1,note_on,68,0,120
1,note_on,71,35,0
1,note_on,71,0,120
1,note_on,68,42,0
1,note_on,68,0,120
1,note_on,71,35,0
1,note_on,71,0,120
1,note_on,80,53,0
1,note_on,80,0,120
1,note_on,70,42,120
1,note_on,70,0,120
1,note_on,73,35,0
1,note_on,73,0,120
1,note_on,70,42,0
1,note_on,70,0,120
1,note_on,73,35,0
1,note_on,73,0,120
1,note_on,82,53,0
1,note_on,82,0,120
1,note_on,71,42,120
1,note_on,71,0,120
1,note_on,75,35,0
1,note_on,75,0,120
1,note_on,71,42,0
1,note_on,71,0,120
1,note_on,75,35,0
1,note_on,75,0,120
1,note_on,83,53,0
1,note_on,83,0,120
1,note_on,70,39,120
1,note_on,73,39,0
1,note_on,82,46,0
1,note_on,82,0,60
1,note_on,73,0,0
1,note_on,70,0,0
1,note_on,73,36,180
1,note_on,70,36,0
1,note_on,82,43,0
1,note_on,82,0,60
1,note_on,70,0,0
1,note_on,73,0,0
1,note_on,68,36,180
1,note_on,71,36,0
1,note_on,80,43,0
1,note_on,80,0,60
1,note_on,71,0,0
1,note_on,68,0,0
1,note_on,67,42,180
1,note_on,67,0,120
1,note_on,70,35,0
1,note_on,70,0,120
1,note_on,67,42,0
1,note_on,67,0,120
1,note_on,70,35,0
1,note_on,70,0,120
1,note_on,79,53,0
1,note_on,79,0,120
1,note_on,68,42,120
1,note_on,68,0,120
1,note_on,71,35,0
1,note_on,71,0,120
1,note_on,68,42,0
1,note_on,68,0,120
1,note_on,71,35,0
1,note_on,71,0,120
1,note_on,80,53,0
1,note_on,80,0,120
1,note_on,70,42,120
1,note_on,70,0,120
1,note_on,73,35,0
1,note_on,73,0,120
1,note_on,70,42,0
1,note_on,70,0,120
1,note_on,73,35,0
1,note_on,73,0,120
1,note_on,82,53,0
1,note_on,82,0,120
1,note_on,71,39,120
1,note_on,68,39,0
1,note_on,80,46,0
1,note_on,80,0,60
1,note_on,68,0,0
1,note_on,71,0,0
1,note_on,68,36,180
1,note_on,80,43,0
1,note_on,71,36,0
1,note_on,71,0,60
1,note_on,80,0,0
1,note_on,68,0,0
1,note_on,70,36,180
1,note_on,79,43,0
1,note_on,67,36,0
1,note_on,67,0,60
1,note_on,79,0,0
1,note_on,70,0,0
1,note_on,68,46,180
1,note_on,68,0,120
1,note_on,71,38,0
1,note_on,71,0,120
1,note_on,68,46,0
1,note_on,68,0,120
1,note_on,71,38,0
1,note_on,71,0,120
1,note_on,80,58,0
1,note_on,80,0,120
1,note_on,70,46,120
1,note_on,70,0,120
1,note_on,73,38,0
1,note_on,73,0,120
1,note_on,70,46,0
1,note_on,70,0,120
1,note_on,73,38,0
1,note_on,73,0,120
1,note_on,82,58,0
1,note_on,82,0,120
1,note_on,71,46,120
1,note_on,71,0,120
1,note_on,75,38,0
1,note_on,75,0,120
1,note_on,71,46,0
1,note_on,71,0,120
1,note_on,75,38,0
1,note_on,75,0,120
1,note_on,83,58,0
1,note_on,83,0,120
1,note_on,76,50,120
1,note_on,85,59,0
1,note_on,73,50,0
1,note_on,73,0,60
1,note_on,85,0,0
1,note_on,76,0,0
1,note_on,76,46,180
1,note_on,73,46,0
1,note_on,85,55,0
1,note_on,85,0,60
1,note_on,73,0,0
1,note_on,76,0,0
1,note_on,78,46,180
1,note_on,75,46,0
1,note_on,87,55,0
1,note_on,87,0,60
1,note_on,75,0,0
1,note_on,78,0,0
1,note_on,71,46,180
1,note_on,71,0,120
1,note_on,75,38,0
1,note_on,75,0,120
1,note_on,71,46,0
1,note_on,71,0,120
1,note_on,75,38,0
1,note_on,75,0,120
1,note_on,83,58,0
1,note_on,83,0,120
1,note_on,85,59,120
1,note_on,73,50,0
1,note_on,76,50,0
1,note_on,76,0,60
1,note_on,73,0,0
1,note_on,85,0,0
1,note_on,76,46,180
1,note_on,73,46,0
1,note_on,85,55,0
1,note_on,85,0,60
1,note_on,73,0,0
1,note_on,76,0,0
1,note_on,75,46,180
1,note_on,78,46,0
1,note_on,87,55,0
1,note_on,87,0,60
1,note_on,78,0,0
1,note_on,75,0,0
1,note_on,70,52,180
1,note_on,70,0,120
1,note_on,75,43,0
1,note_on,75,0,120
1,note_on,70,52,0
1,note_on,70,0,120
1,note_on,75,43,0
1,note_on,75,0,120
1,note_on,82,66,0
1,note_on,82,0,180
1,note_on,71,52,60
1,note_on,71,0,120
1,note_on,75,43,0
1,note_on,75,0,120
1,note_on,71,52,0
1,note_on,71,0,120
1,note_on,75,43,0
1,note_on,75,0,120
1,note_on,83,66,0
1,note_on,83,0,180
1,note_on,73,52,60
1,note_on,73,0,120
1,note_on,76,43,0
1,note_on,76,0,120
1,note_on,73,52,0
1,note_on,73,0,120
1,note_on,76,43,0
1,note_on,76,0,120
1,note_on,85,66,0
1,note_on,85,0,180
1,note_on,75,57,60
1,note_on,83,67,0
1,note_on,80,57,0
1,note_on,71,57,0
1,note_on,71,0,60
1,note_on,75,0,0
1,note_on,83,0,0
1,note_on,80,0,0
1,note_on,75,52,180
1,note_on,83,63,0
1,note_on,71,52,0
1,note_on,80,52,0
1,note_on,80,0,60
1,note_on,75,0,0
1,note_on,83,0,0
1,note_on,71,0,0
1,note_on,70,52,180
1,note_on,82,63,0
1,note_on,75,52,0
1,note_on,79,52,0
1,note_on,79,0,60
1,note_on,70,0,0
1,note_on,82,0,0
1,note_on,75,0,0
1,note_on,70,57,180
1,note_on,70,0,120
1,note_on,75,47,0
1,note_on,75,0,120
1,note_on,70,57,0
1,note_on,70,0,120
1,note_on,75,47,0
1,note_on,75,0,120
1,note_on,82,72,0
1,note_on,82,0,180
1,note_on,71,57,60
1,note_on,71,0,120
1,note_on,75,47,0
1,note_on,75,0,120
1,note_on,71,57,0
1,note_on,71,0,120
1,note_on,75,47,0
1,note_on,75,0,120
1,note_on,83,72,0
1,note_on,83,0,180
1,note_on,73,57,60
1,note_on,73,0,120
1,note_on,76,47,0
1,note_on,76,0,120
1,note_on,73,57,0
1,note_on,73,0,120
1,note_on,76,47,0
1,note_on,76,0,120
1,note_on,85,72,0
1,note_on,85,0,180
1,note_on,83,67,60
1,note_on,80,57,0
1,note_on,71,57,0
1,note_on,75,57,0
1,note_on,75,0,60
1,note_on,83,0,0
1,note_on,80,0,0
1,note_on,71,0,0
1,note_on,83,63,180
1,note_on,71,52,0
1,note_on,80,52,0
1,note_on,75,52,0
1,note_on,75,0,60
1,note_on,83,0,0
1,note_on,71,0,0
1,note_on,80,0,0
1,note_on,79,52,180
1,note_on,70,52,0
1,note_on,82,63,0
1,note_on,75,52,0
1,note_on,75,0,60
1,note_on,79,0,0
1,note_on,70,0,0
1,note_on,82,0,0
1,note_on,73,62,180
1,note_on,73,0,120
1,note_on,82,51,0
1,note_on,82,0,120
1,note_on,73,62,0
1,note_on,73,0,120
1,note_on,82,51,0
1,note_on,82,0,120
1,note_on,85,79,0
1,note_on,85,0,180
1,note_on,75,62,60
1,note_on,75,0,120
1,note_on,83,51,0
1,note_on,83,0,120
1,note_on,75,62,0
1,note_on,75,0,120
1,note_on,83,51,0
1,note_on,83,0,120
1,note_on,87,79,0
1,note_on,87,0,180
1,note_on,76,62,60
1,note_on,76,0,120
1,note_on,85,51,0
1,note_on,85,0,120
1,note_on,76,62,0
1,note_on,76,0,120
1,note_on,85,51,0
1,note_on,85,0,120
1,note_on,88,79,0
1,note_on,88,0,180
1,note_on,85,73,60
1,note_on,82,62,0
1,note_on,73,62,0
1,note_on,73,0,60
1,note_on,82,0,0
1,note_on,85,0,0
1,note_on,82,57,180
1,note_on,73,57,0
1,note_on,85,69,0
1,note_on,85,0,60
1,note_on,73,0,0
1,note_on,82,0,0
1,note_on,70,57,180
1,note_on,82,69,0
1,note_on,79,57,0
1,note_on,79,0,60
1,note_on,82,0,0
1,note_on,70,0,0
1,note_on,76,62,180
1,note_on,76,0,120
1,note_on,85,51,0
1,note_on,85,0,120
1,note_on,76,62,0
1,note_on,76,0,120
1,note_on,85,51,0
1,note_on,85,0,120
1,note_on,88,79,0
1,note_on,88,0,180
1,note_on,73,62,60
1,note_on,82,62,0
1,note_on,85,73,0
1,note_on,85,0,60
1,note_on,82,0,0
1,note_on,73,0,0
1,note_on,85,69,180
1,note_on,73,57,0
1,note_on,82,57,0
1,note_on,82,0,60
1,note_on,73,0,0
1,note_on,85,0,0
1,note_on,70,57,180
1,note_on,79,57,0
1,note_on,82,69,0
1,note_on,82,0,60
1,note_on,79,0,0
1,note_on,70,0,0
1,note_on,76,62,180
1,note_on,76,0,120
1,note_on,85,51,0
1,note_on,85,0,120
1,note_on,76,62,0
1,note_on,76,0,120
1,note_on,85,51,0
1,note_on,85,0,120
1,note_on,88,79,0
1,note_on,88,0,180
1,note_on,79,68,60
1,note_on,79,0,120
1,note_on,88,56,0
1,note_on,88,0,120
1,note_on,79,68,0
1,note_on,79,0,120
1,note_on,88,57,0
1,note_on,88,0,120
1,note_on,91,89,0
1,note_on,91,0,180
1,note_on,82,71,60
1,note_on,82,0,120
1,note_on,91,58,0
1,note_on,91,0,120
1,note_on,82,71,0
1,note_on,82,0,120
1,note_on,91,59,0
1,note_on,91,0,120
1,note_on,94,93,0
1,note_on,94,0,180
1,note_on,85,74,60
1,note_on,85,0,120
1,note_on,94,61,0
1,note_on,94,0,120
1,note_on,85,75,0
1,note_on,85,0,120
1,note_on,94,62,0
1,note_on,94,0,120
1,note_on,97,97,0
1,note_on,97,0,180
1,note_on,88,77,60
1,note_on,88,0,120
1,note_on,97,63,0
1,note_on,97,0,120
1,note_on,88,78,0
1,note_on,88,0,120
1,note_on,97,64,0
1,note_on,97,0,120
1,note_on,100,101,0
1,note_on,100,0,180
1,note_on,76,42,780
1,note_on,76,0,120
1,note_on,85,35,0
1,note_on,85,0,120
1,note_on,76,42,0
1,note_on,76,0,120
1,note_on,85,35,0
1,note_on,85,0,120
1,note_on,88,53,0
1,note_on,88,0,120
1,note_on,76,42,120
1,note_on,76,0,120
1,note_on,85,35,0
1,note_on,85,0,120
1,note_on,76,42,0
1,note_on,76,0,120
1,note_on,85,35,0
1,note_on,85,0,120
1,note_on,88,53,0
1,note_on,88,0,120
1,note_on,76,42,120
1,note_on,76,0,120
1,note_on,85,35,0
1,note_on,85,0,120
1,note_on,76,42,0
1,note_on,76,0,120
1,note_on,85,35,0
1,note_on,85,0,120
1,note_on,88,53,0
1,note_on,88,0,120
1,note_on,83,39,120
1,note_on,74,39,0
1,note_on,86,46,0
1,note_on,86,0,60
1,note_on,74,0,0
1,note_on,83,0,0
1,note_on,83,36,180
1,note_on,86,43,0
1,note_on,74,36,0
1,note_on,74,0,60
1,note_on,86,0,0
1,note_on,83,0,0
1,note_on,85,43,180
1,note_on,73,36,0
1,note_on,81,36,0
1,note_on,81,0,60
1,note_on,73,0,0
1,note_on,85,0,0
1,note_on,74,42,180
1,note_on,74,0,120
1,note_on,83,35,0
1,note_on,83,0,120
1,note_on,74,42,0
1,note_on,74,0,120
1,note_on,83,35,0
1,note_on,83,0,120
1,note_on,86,53,0
1,note_on,86,0,120
1,note_on,74,42,120
1,note_on,74,0,120
1,note_on,83,35,0
1,note_on,83,0,120
1,note_on,74,42,0
1,note_on,74,0,120
1,note_on,83,35,0
1,note_on,83,0,120
1,note_on,86,53,0
1,note_on,86,0,120
1,note_on,74,42,120
1,note_on,74,0,120
1,note_on,83,35,0
1,note_on,83,0,120
1,note_on,74,42,0
1,note_on,74,0,120
1,note_on,83,35,0
1,note_on,83,0,120
1,note_on,86,53,0
1,note_on,86,0,120
1,note_on,81,39,120
1,note_on,85,46,0
1,note_on,73,39,0
1,note_on,73,0,60
1,note_on,85,0,0
1,note_on,81,0,0
1,note_on,73,36,180
1,note_on,85,43,0
1,note_on,81,36,0
1,note_on,81,0,60
1,note_on,85,0,0
1,note_on,73,0,0
1,note_on,80,36,180
1,note_on,83,43,0
1,note_on,71,36,0
1,note_on,71,0,60
1,note_on,83,0,0
1,note_on,80,0,0
1,note_on,76,42,180
1,note_on,76,0,120
1,note_on,85,35,0
1,note_on,85,0,120
1,note_on,76,42,0
1,note_on,76,0,120
1,note_on,85,35,0
1,note_on,85,0,120
1,note_on,88,53,0
1,note_on,88,0,120
1,note_on,76,42,120
1,note_on,76,0,120
1,note_on,85,35,0
1,note_on,85,0,120
1,note_on,76,42,0
1,note_on,76,0,120
1,note_on,85,35,0
1,note_on,85,0,120
1,note_on,88,53,0
1,note_on,88,0,120
1,note_on,76,42,120
1,note_on,76,0,120
1,note_on,85,35,0
1,note_on,85,0,120
1,note_on,76,42,0
1,note_on,76,0,120
1,note_on,85,35,0
1,note_on,85,0,120
1,note_on,88,53,0
1,note_on,88,0,120
1,note_on,92,60,120
1,note_on,80,50,0
1,note_on,88,50,0
1,note_on,88,0,60
1,note_on,80,0,0
1,note_on,92,0,0
1,note_on,80,46,180
1,note_on,92,56,0
1,note_on,88,46,0
1,note_on,88,0,60
1,note_on,92,0,0
1,note_on,80,0,0
1,note_on,81,46,180
1,note_on,88,46,0
1,note_on,93,56,0
1,note_on,93,0,60
1,note_on,88,0,0
1,note_on,81,0,0
1,note_on,74,42,180
1,note_on,74,0,120
1,note_on,83,35,0
1,note_on,83,0,120
1,note_on,74,42,0
1,note_on,74,0,120
1,note_on,83,35,0
1,note_on,83,0,120
1,note_on,86,53,0
1,note_on,86,0,120
1,note_on,74,42,120
1,note_on,74,0,120
1,note_on,83,35,0
1,note_on,83,0,120
1,note_on,74,42,0
1,note_on,74,0,120
1,note_on,83,35,0
1,note_on,83,0,120
1,note_on,86,53,0
1,note_on,86,0,120
1,note_on,74,42,120
1,note_on,74,0,120
1,note_on,83,35,0
1,note_on,83,0,120
1,note_on,74,42,0
1,note_on,74,0,120
1,note_on,83,35,0
1,note_on,83,0,120
1,note_on,86,53,0
1,note_on,86,0,120
1,note_on,81,50,120
1,note_on,85,50,0
1,note_on,93,60,0
1,note_on,93,0,60
1,note_on,85,0,0
1,note_on,81,0,0
1,note_on,81,46,180
1,note_on,93,56,0
1,note_on,85,46,0
1,note_on,85,0,60
1,note_on,93,0,0
1,note_on,81,0,0
1,note_on,83,46,180
1,note_on,86,46,0
1,note_on,95,56,0
1,note_on,95,0,60
1,note_on,86,0,0
1,note_on,83,0,0
1,note_on,73,46,180
1,note_on,73,0,120
1,note_on,81,38,0
1,note_on,81,0,120
1,note_on,73,47,0
1,note_on,73,0,120
1,note_on,81,39,0
1,note_on,81,0,120
1,note_on,85,60,0
1,note_on,85,0,120
1,note_on,71,49,120
1,note_on,71,0,120
1,note_on,80,41,0
1,note_on,80,0,120
1,note_on,71,50,0
1,note_on,71,0,120
1,note_on,80,42,0
1,note_on,80,0,120
1,note_on,83,64,0
1,note_on,83,0,120
1,note_on,73,52,120
1,note_on,73,0,120
1,note_on,81,44,0
1,note_on,81,0,120
1,note_on,73,53,0
1,note_on,73,0,120
1,note_on,81,44,0
1,note_on,81,0,120
1,note_on,85,68,0
1,note_on,85,0,120
1,note_on,74,55,120
1,note_on,74,0,120
1,note_on,83,46,0
1,note_on,83,0,120
1,note_on,74,56,0
1,note_on,74,0,120
1,note_on,83,47,0
1,note_on,83,0,120
1,note_on,86,72,0
1,note_on,86,0,120
1,note_on,84,74,120
1,note_on,84,0,120
1,note_on,87,66,0
1,note_on,87,0,120
1,note_on,84,71,0
1,note_on,84,0,120
1,note_on,87,62,0
1,note_on,87,0,120
1,note_on,92,74,0
1,note_on,92,0,120
1,note_on,91,65,0
1,note_on,91,0,120
1,note_on,89,73,0
1,note_on,89,0,120
1,note_on,87,60,0
1,note_on,87,0,120
1,note_on,85,66,0
1,note_on,85,0,120
1,note_on,84,64,0
1,note_on,84,0,120
1,note_on,82,62,0
1,note_on,82,0,120
1,note_on,80,60,0
1,note_on,80,0,120
1,note_on,79,58,0
1,note_on,79,0,120
1,note_on,77,56,0
1,note_on,77,0,120
1,note_on,75,54,0
1,note_on,75,0,120
1,note_on,73,52,0
1,note_on,73,0,120
1,note_on,72,50,0
1,note_on,72,0,120
1,note_on,70,48,0
1,note_on,70,0,120
1,note_on,68,45,0
1,note_on,68,0,120
1,note_on,67,44,0
1,note_on,67,0,120
1,note_on,65,41,0
1,note_on,65,0,120
1,note_on,64,39,0
1,note_on,64,0,120
1,note_on,63,37,0
1,note_on,63,0,240
1,note_on,87,74,0
1,note_on,87,0,120
1,note_on,92,66,0
1,note_on,92,0,120
1,note_on,87,71,0
1,note_on,87,0,120
1,note_on,92,62,0
1,note_on,92,0,120
1,note_on,96,74,0
1,note_on,96,0,120
1,note_on,94,65,0
1,note_on,94,0,120
1,note_on,92,73,0
1,note_on,92,0,120
1,note_on,91,60,0
1,note_on,91,0,120
1,note_on,89,66,0
1,note_on,89,0,120
1,note_on,87,64,0
1,note_on,87,0,120
1,note_on,85,62,0
1,note_on,85,0,120
1,note_on,84,60,0
1,note_on,84,0,120
1,note_on,82,58,0
1,note_on,82,0,120
1,note_on,80,56,0
1,note_on,80,0,120
1,note_on,79,54,0
1,note_on,79,0,120
1,note_on,77,52,0
1,note_on,77,0,120
1,note_on,75,50,0
1,note_on,75,0,120
1,note_on,73,48,0
1,note_on,73,0,120
1,note_on,72,45,0
1,note_on,72,0,120
1,note_on,70,44,0
1,note_on,70,0,120
1,note_on,68,41,0
1,note_on,68,0,120
1,note_on,67,39,0
1,note_on,67,0,120
1,note_on,65,37,0
1,note_on,65,0,120
1,note_on,63,37,0
1,note_on,63,0,120
1,note_on,92,76,0
1,note_on,92,0,120
1,note_on,96,66,0
1,note_on,96,0,120
1,note_on,92,71,0
1,note_on,92,0,120
1,note_on,96,62,0
1,note_on,96,0,120
1,note_on,99,77,0
1,note_on,99,0,120
1,note_on,97,69,0
1,note_on,97,0,120
1,note_on,96,79,0
1,note_on,96,0,120
1,note_on,94,71,0
1,note_on,94,0,120
1,note_on,92,74,0
1,note_on,92,0,120
1,note_on,91,72,0
1,note_on,91,0,120
1,note_on,89,70,0
1,note_on,89,0,120
1,note_on,87,68,0
1,note_on,87,0,120
1,note_on,85,65,0
1,note_on,85,0,120
1,note_on,84,63,0
1,note_on,84,0,120
1,note_on,82,61,0
1,note_on,82,0,120
1,note_on,80,59,0
1,note_on,80,0,120
1,note_on,79,57,0
1,note_on,79,0,120
1,note_on,77,54,0
1,note_on,77,0,120
1,note_on,75,52,0
1,note_on,75,0,80
1,note_on,73,52,0
1,note_on,73,0,80
1,note_on,72,53,0
1,note_on,72,0,80
1,note_on,70,53,0
1,note_on,70,0,60
1,note_on,68,54,0
1,note_on,68,0,60
1,note_on,67,55,0
1,note_on,67,0,60
1,note_on,65,56,0
1,note_on,65,0,60
1,note_on,63,57,0
1,note_on,63,0,60
1,note_on,61,58,0
1,note_on,61,0,60
1,note_on,60,60,0
1,note_on,60,0,60
1,note_on,58,61,0
1,note_on,58,0,60
1,note_on,56,70,0
1,note_on,56,0,240
1,note_on,56,70,0
1,note_on,60,62,120
1,note_on,56,0,12
1,note_on,63,70,108
1,note_on,60,0,12
1,note_on,61,68,108
1,note_on,63,0,12
1,note_on,60,68,108
1,note_on,61,0,12
1,note_on,58,67,108
1,note_on,60,0,12
1,note_on,56,66,108
1,note_on,58,0,12
1,note_on,55,65,108
1,note_on,56,0,12
1,note_on,53,64,108
1,note_on,55,0,12
1,note_on,51,63,108
1,note_on,53,0,12
1,note_on,49,62,108
1,note_on,51,0,12
1,note_on,48,61,108
1,note_on,49,0,12
1,note_on,46,60,108
1,note_on,48,0,12
1,note_on,44,59,108
1,note_on,46,0,12
1,note_on,43,58,108
1,note_on,44,0,12
1,note_on,44,57,108
1,note_on,43,0,12
1,note_on,46,56,108
1,note_on,44,0,12
1,note_on,48,58,108
1,note_on,46,0,12
1,note_on,49,59,108
1,note_on,48,0,12
1,note_on,51,60,108
1,note_on,49,0,12
1,note_on,53,61,108
1,note_on,51,0,12
1,note_on,55,62,108
1,note_on,53,0,12
1,note_on,56,63,108
1,note_on,55,0,12
1,note_on,58,64,108
1,note_on,56,0,12
1,note_on,60,65,108
1,note_on,58,0,12
1,note_on,61,66,108
1,note_on,60,0,12
1,note_on,63,67,108
1,note_on,61,0,12
1,note_on,65,68,108
1,note_on,63,0,12
1,note_on,67,70,108
1,note_on,65,0,12
1,note_on,68,71,108
1,note_on,67,0,12
1,note_on,70,73,108
1,note_on,68,0,12
1,note_on,72,74,108
1,note_on,70,0,12
1,note_on,73,76,108
1,note_on,72,0,12
1,note_on,75,78,108
1,note_on,73,0,12
1,note_on,77,79,108
1,note_on,75,0,12
1,note_on,75,79,108
1,note_on,77,0,12
1,note_on,73,77,108
1,note_on,75,0,12
1,note_on,72,75,108
1,note_on,73,0,12
1,note_on,70,73,108
1,note_on,72,0,12
1,note_on,68,71,108
1,note_on,70,0,12
1,note_on,67,69,108
1,note_on,68,0,12
1,note_on,65,67,108
1,note_on,67,0,12
1,note_on,63,65,108
1,note_on,65,0,12
1,note_on,61,63,108
1,note_on,63,0,12
1,note_on,60,61,108
1,note_on,61,0,12
1,note_on,58,59,108
1,note_on,60,0,12
1,note_on,56,62,108
1,note_on,58,0,12
1,note_on,56,0,228
1,note_on,68,49,0
1,note_on,72,43,120
1,note_on,68,0,12
1,note_on,75,49,108
1,note_on,72,0,12
1,note_on,73,47,108
1,note_on,75,0,12
1,note_on,72,47,108
1,note_on,73,0,12
1,note_on,70,46,108
1,note_on,72,0,12
1,note_on,68,46,108
1,note_on,70,0,12
1,note_on,67,45,108
1,note_on,68,0,12
1,note_on,65,44,108
1,note_on,67,0,12
1,note_on,63,44,108
1,note_on,65,0,12
1,note_on,61,43,108
1,note_on,63,0,12
1,note_on,60,42,108
1,note_on,61,0,12
1,note_on,58,42,108
1,note_on,60,0,12
1,note_on,56,41,108
1,note_on,58,0,12
1,note_on,55,40,108
1,note_on,56,0,12
1,note_on,56,39,108
1,note_on,55,0,12
1,note_on,58,39,108
1,note_on,56,0,12
1,note_on,60,40,108
1,note_on,58,0,12
1,note_on,61,41,108
1,note_on,60,0,12
1,note_on,63,42,108
1,note_on,61,0,12
1,note_on,65,42,108
1,note_on,63,0,12
1,note_on,67,43,108
1,note_on,65,0,12
1,note_on,68,44,108
1,note_on,67,0,12
1,note_on,70,44,108
1,note_on,68,0,12
1,note_on,72,45,108
1,note_on,70,0,12
1,note_on,73,46,108
1,note_on,72,0,12
1,note_on,75,46,108
1,note_on,73,0,12
1,note_on,77,47,108
1,note_on,75,0,12
1,note_on,79,49,108
1,note_on,77,0,12
1,note_on,80,49,108
1,note_on,79,0,12
1,note_on,82,51,108
1,note_on,80,0,12
1,note_on,84,51,108
1,note_on,82,0,12
1,note_on,85,53,108
1,note_on,84,0,12
1,note_on,87,54,108
1,note_on,85,0,12
1,note_on,89,55,108
1,note_on,87,0,12
1,note_on,87,55,108
1,note_on,89,0,12
1,note_on,85,53,108
1,note_on,87,0,12
1,note_on,84,52,108
1,note_on,85,0,12
1,note_on,82,51,108
1,note_on,84,0,12
1,note_on,80,49,108
1,note_on,82,0,12
1,note_on,79,48,108
1,note_on,80,0,12
1,note_on,77,46,108
1,note_on,79,0,12
1,note_on,75,45,108
1,note_on,77,0,12
1,note_on,73,44,108
1,note_on,75,0,12
1,note_on,72,42,108
1,note_on,73,0,12
1,note_on,70,41,108
1,note_on,72,0,12
1,note_on,68,43,108
1,note_on,70,0,12
1,note_on,68,0,228
1,note_on,68,70,0
1,note_on,71,62,120
1,note_on,68,0,12
1,note_on,75,70,108
1,note_on,71,0,12
1,note_on,73,68,108
1,note_on,75,0,12
1,note_on,71,68,108
1,note_on,73,0,12
1,note_on,70,67,108
1,note_on,71,0,12
1,note_on,68,66,108
1,note_on,70,0,12
1,note_on,66,65,108
1,note_on,68,0,12
1,note_on,64,64,108
1,note_on,66,0,12
1,note_on,63,63,108
1,note_on,64,0,12
1,note_on,61,62,108
1,note_on,63,0,12
1,note_on,59,61,108
1,note_on,61,0,12
1,note_on,58,60,108
1,note_on,59,0,12
1,note_on,56,59,108
1,note_on,58,0,12
1,note_on,55,58,108
1,note_on,56,0,12
1,note_on,56,57,108
1,note_on,55,0,12
1,note_on,58,56,108
1,note_on,56,0,12
1,note_on,59,58,108
1,note_on,58,0,12
1,note_on,61,59,108
1,note_on,59,0,12
1,note_on,63,60,108
1,note_on,61,0,12
1,note_on,65,61,108
1,note_on,63,0,12
1,note_on,67,62,108
1,note_on,65,0,12
1,note_on,68,63,108
1,note_on,67,0,12
1,note_on,70,65,108
1,note_on,68,0,12
1,note_on,71,67,108
1,note_on,70,0,12
1,note_on,73,68,108
1,note_on,71,0,12
1,note_on,75,70,108
1,note_on,73,0,12
1,note_on,77,72,108
1,note_on,75,0,12
1,note_on,79,74,108
1,note_on,77,0,12
1,note_on,80,76,108
1,note_on,79,0,12
1,note_on,82,78,108
1,note_on,80,0,12
1,note_on,83,80,108
1,note_on,82,0,12
1,note_on,85,83,108
1,note_on,83,0,12
1,note_on,87,85,108
1,note_on,85,0,12
1,note_on,88,90,108
1,note_on,87,0,12
1,note_on,86,89,108
1,note_on,88,0,12
1,note_on,85,88,108
1,note_on,86,0,12
1,note_on,83,86,108
1,note_on,85,0,12
1,note_on,81,85,108
1,note_on,83,0,12
1,note_on,80,83,108
1,note_on,81,0,12
1,note_on,78,82,108
1,note_on,80,0,12
1,note_on,76,81,108
1,note_on,78,0,12
1,note_on,74,79,108
1,note_on,76,0,12
1,note_on,73,78,108
1,note_on,74,0,12
1,note_on,71,76,108
1,note_on,73,0,12
1,note_on,69,75,108
1,note_on,71,0,12
1,note_on,68,74,108
1,note_on,69,0,12
1,note_on,66,72,108
1,note_on,68,0,12
1,note_on,64,71,108
1,note_on,66,0,12
1,note_on,62,69,108
1,note_on,64,0,12
1,note_on,61,68,108
1,note_on,62,0,12
1,note_on,59,67,108
1,note_on,61,0,12
1,note_on,57,69,108
1,note_on,59,0,12
1,note_on,56,71,108
1,note_on,57,0,12
1,note_on,54,73,108
1,note_on,56,0,12
1,note_on,52,75,108
1,note_on,54,0,12
1,note_on,50,77,108
1,note_on,52,0,12
1,note_on,49,78,69
1,note_on,50,0,8
1,note_on,47,79,71
1,note_on,49,0,9
1,note_on,47,0,71
1,note_on,45,78,0
1,note_on,45,0,120
1,note_on,49,67,0
1,note_on,49,0,120
1,note_on,45,78,0
1,note_on,45,0,120
1,note_on,49,65,0
1,note_on,49,0,120
1,note_on,52,73,0
1,note_on,52,0,240
1,note_on,49,62,0
1,note_on,49,0,120
1,note_on,52,53,0
1,note_on,52,0,120
1,note_on,49,62,0
1,note_on,49,0,120
1,note_on,52,52,0
1,note_on,52,0,120
1,note_on,57,58,0
1,note_on,57,0,240
1,note_on,52,62,0
1,note_on,52,0,120
1,note_on,57,53,0
1,note_on,57,0,120
1,note_on,52,62,0
1,note_on,52,0,120
1,note_on,57,52,0
1,note_on,57,0,120
1,note_on,61,58,0
1,note_on,61,0,240
1,note_on,57,62,0
1,note_on,57,0,120
1,note_on,61,53,0
1,note_on,61,0,120
1,note_on,57,62,0
1,note_on,57,0,120
1,note_on,61,52,0
1,note_on,61,0,120
1,note_on,64,58,0
1,note_on,64,0,240
1,note_on,61,62,0
1,note_on,61,0,120
1,note_on,64,53,0
1,note_on,64,0,120
1,note_on,61,62,0
1,note_on,61,0,120
1,note_on,64,52,0
1,note_on,64,0,120
1,note_on,69,58,0
1,note_on,69,0,240
1,note_on,64,62,0
1,note_on,64,0,120
1,note_on,69,53,0
1,note_on,69,0,120
1,note_on,64,62,0
1,note_on,64,0,120
1,note_on,69,52,0
1,note_on,69,0,120
1,note_on,73,58,0
1,note_on,73,0,240
1,note_on,69,58,0
1,note_on,69,0,120
1,note_on,73,46,0
1,note_on,73,0,120
1,note_on,69,56,0
1,note_on,69,0,120
1,note_on,73,45,0
1,note_on,73,0,120
1,note_on,76,58,0
1,note_on,76,0,240
1,note_on,71,49,0
1,note_on,71,0,120
1,note_on,74,42,0
1,note_on,74,0,120
1,note_on,71,49,0
1,note_on,71,0,120
1,note_on,74,41,0
1,note_on,74,0,120
1,note_on,83,54,0
1,note_on,83,0,240
1,note_on,72,49,0
1,note_on,72,0,120
1,note_on,75,42,0
1,note_on,75,0,120
1,note_on,72,49,0
1,note_on,72,0,120
1,note_on,75,41,0
1,note_on,75,0,120
1,note_on,84,54,0
1,note_on,84,0,120
1,note_on,75,49,120
1,note_on,75,0,120
1,note_on,84,42,0
1,note_on,84,0,120
1,note_on,75,49,0
1,note_on,75,0,120
1,note_on,84,41,0
1,note_on,84,0,120
1,note_on,87,56,0
1,note_on,87,0,120
1,note_on,73,49,120
1,note_on,73,0,120
1,note_on,82,42,0
1,note_on,82,0,120
1,note_on,73,49,0
1,note_on,73,0,120
1,note_on,82,41,0
1,note_on,82,0,120
1,note_on,85,55,0
1,note_on,85,0,120
1,note_on,70,49,120
1,note_on,70,0,120
1,note_on,79,42,0
1,note_on,79,0,120
1,note_on,70,49,0
1,note_on,70,0,120
1,note_on,79,41,0
1,note_on,79,0,120
1,note_on,82,55,0
1,note_on,82,0,120
1,note_on,72,49,120
1,note_on,72,0,120
1,note_on,75,42,0
1,note_on,75,0,120
1,note_on,72,49,0
1,note_on,72,0,120
1,note_on,75,41,0
1,note_on,75,0,120
1,note_on,84,56,0
1,note_on,84,0,120
1,note_on,80,57,120
1,note_on,80,0,120
1,note_on,87,47,0
1,note_on,87,0,120
1,note_on,80,56,0
1,note_on,80,0,120
1,note_on,87,49,0
1,note_on,87,0,120
1,note_on,92,59,0
1,note_on,92,0,120
1,note_on,79,58,120
1,note_on,79,0,120
1,note_on,85,50,0
1,note_on,85,0,120
1,note_on,79,58,0
1,note_on,79,0,120
1,note_on,85,49,0
1,note_on,85,0,120
1,note_on,91,65,0
1,note_on,91,0,120
1,note_on,73,58,120
1,note_on,73,0,120
1,note_on,79,50,0
1,note_on,79,0,120
1,note_on,73,58,0
1,note_on,73,0,120
1,note_on,79,49,0
1,note_on,79,0,120
1,note_on,85,66,0
1,note_on,85,0,120
1,note_on,72,58,120
1,note_on,72,0,120
1,note_on,80,50,0
1,note_on,80,0,120
1,note_on,72,58,0
1,note_on,72,0,120
1,note_on,80,49,0
1,note_on,80,0,120
1,note_on,84,66,0
1,note_on,84,0,120
1,note_on,87,72,120
1,note_on,87,0,120
1,note_on,96,64,0
1,note_on,96,0,120
1,note_on,87,73,0
1,note_on,87,0,120
1,note_on,96,64,0
1,note_on,96,0,120
1,note_on,99,78,0
1,note_on,99,0,120
1,note_on,85,70,120
1,note_on,85,0,120
1,note_on,94,61,0
1,note_on,94,0,120
1,note_on,85,71,0
1,note_on,85,0,120
1,note_on,94,61,0
1,note_on,94,0,120
1,note_on,97,78,0
1,note_on,97,0,120
1,note_on,82,69,120
1,note_on,82,0,120
1,note_on,91,60,0
1,note_on,91,0,120
1,note_on,82,67,0
1,note_on,82,0,120
1,note_on,91,61,0
1,note_on,91,0,120
1,note_on,94,75,0
1,note_on,94,0,120
1,note_on,72,49,120
1,note_on,72,0,120
1,note_on,79,42,0
1,note_on,79,0,120
1,note_on,72,49,0
1,note_on,72,0,120
1,note_on,79,41,0
1,note_on,79,0,120
1,note_on,84,46,0
1,note_on,84,0,120
1,note_on,72,49,120
1,note_on,72,0,120
1,note_on,79,42,0
1,note_on,79,0,120
1,note_on,72,49,0
1,note_on,72,0,120
1,note_on,79,41,0
1,note_on,79,0,120
1,note_on,84,46,0
1,note_on,84,0,120
1,note_on,79,49,120
1,note_on,79,0,120
1,note_on,84,42,0
1,note_on,84,0,120
1,note_on,79,49,0
1,note_on,79,0,120
1,note_on,84,41,0
1,note_on,84,0,120
1,note_on,91,46,0
1,note_on,91,0,120
1,note_on,84,49,120
1,note_on,84,0,120
1,note_on,91,42,0
1,note_on,91,0,120
1,note_on,84,49,0
1,note_on,84,0,120
1,note_on,91,41,0
1,note_on,91,0,120
1,note_on,96,46,0
1,note_on,96,0,120
1,note_on,84,53,120
1,note_on,84,0,120
1,note_on,87,46,0
1,note_on,87,0,120
1,note_on,84,58,0
1,note_on,84,0,120
1,note_on,87,50,0
1,note_on,87,0,120
1,note_on,92,61,0
1,note_on,92,0,120
1,note_on,91,49,0
1,note_on,91,0,120
1,note_on,89,64,0
1,note_on,89,0,120
1,note_on,87,51,0
1,note_on,87,0,120
1,note_on,85,52,0
1,note_on,85,0,120
1,note_on,84,51,0
1,note_on,84,0,120
1,note_on,82,50,0
1,note_on,82,0,120
1,note_on,80,49,0
1,note_on,80,0,120
1,note_on,79,47,0
1,note_on,79,0,120
1,note_on,77,46,0
1,note_on,77,0,120
1,note_on,75,45,0
1,note_on,75,0,120
1,note_on,73,44,0
1,note_on,73,0,120
1,note_on,72,42,0
1,note_on,72,0,120
1,note_on,70,41,0
1,note_on,70,0,120
1,note_on,68,40,0
1,note_on,68,0,120
1,note_on,67,38,0
1,note_on,67,0,120
1,note_on,65,37,0
1,note_on,65,0,120
1,note_on,64,36,0
1,note_on,64,0,120
1,note_on,63,34,0
1,note_on,63,0,240
1,note_on,72,58,0
1,note_on,72,0,120
1,note_on,79,50,0
1,note_on,79,0,120
1,note_on,72,58,0
1,note_on,72,0,120
1,note_on,79,49,0
1,note_on,79,0,120
1,note_on,84,55,0
1,note_on,84,0,120
1,note_on,72,58,120
1,note_on,72,0,120
1,note_on,79,50,0
1,note_on,79,0,120
1,note_on,72,58,0
1,note_on,72,0,120
1,note_on,79,49,0
1,note_on,79,0,120
1,note_on,84,55,0
1,note_on,84,0,120
1,note_on,79,58,120
1,note_on,79,0,120
1,note_on,84,50,0
1,note_on,84,0,120
1,note_on,79,58,0
1,note_on,79,0,120
1,note_on,84,49,0
1,note_on,84,0,120
1,note_on,91,55,0
1,note_on,91,0,120
1,note_on,84,58,120
1,note_on,84,0,120
1,note_on,91,50,0
1,note_on,91,0,120
1,note_on,84,58,0
1,note_on,84,0,120
1,note_on,91,49,0
1,note_on,91,0,120
1,note_on,96,55,0
1,note_on,96,0,120
1,note_on,87,63,120
1,note_on,87,0,120
1,note_on,92,55,0
1,note_on,92,0,120
1,note_on,87,69,0
1,note_on,87,0,120
1,note_on,92,60,0
1,note_on,92,0,120
1,note_on,96,73,0
1,note_on,96,0,120
1,note_on,94,58,0
1,note_on,94,0,120
1,note_on,92,76,0
1,note_on,92,0,120
1,note_on,91,61,0
1,note_on,91,0,120
1,note_on,89,62,0
1,note_on,89,0,120
1,note_on,87,61,0
1,note_on,87,0,120
1,note_on,85,60,0
1,note_on,85,0,120
1,note_on,84,58,0
1,note_on,84,0,120
1,note_on,82,56,0
1,note_on,82,0,120
1,note_on,80,55,0
1,note_on,80,0,120
1,note_on,79,54,0
1,note_on,79,0,120
1,note_on,77,52,0
1,note_on,77,0,120
1,note_on,75,50,0
1,note_on,75,0,120
1,note_on,73,49,0
1,note_on,73,0,120
1,note_on,72,48,0
1,note_on,72,0,120
1,note_on,70,45,0
1,note_on,70,0,120
1,note_on,68,44,0
1,note_on,68,0,80
1,note_on,67,43,0
1,note_on,67,0,80
1,note_on,65,42,0
1,note_on,65,0,80
1,note_on,63,40,0
1,note_on,63,0,240
1,note_on,72,69,0
1,note_on,72,0,120
1,note_on,79,60,0
1,note_on,79,0,120
1,note_on,72,69,0
1,note_on,72,0,120
1,note_on,79,58,0
1,note_on,79,0,120
1,note_on,84,66,0
1,note_on,84,0,120
1,note_on,72,69,120
1,note_on,72,0,120
1,note_on,79,60,0
1,note_on,79,0,120
1,note_on,72,69,0
1,note_on,72,0,120
1,note_on,79,58,0
1,note_on,79,0,120
1,note_on,84,66,0
1,note_on,84,0,120
1,note_on,79,69,120
1,note_on,79,0,120
1,note_on,84,60,0
1,note_on,84,0,120
1,note_on,79,69,0
1,note_on,79,0,120
1,note_on,84,58,0
1,note_on,84,0,120
1,note_on,91,66,0
1,note_on,91,0,120
1,note_on,84,69,120
1,note_on,84,0,120
1,note_on,91,60,0
1,note_on,91,0,120
1,note_on,84,69,0
1,note_on,84,0,120
1,note_on,91,58,0
1,note_on,91,0,120
1,note_on,96,66,0
1,note_on,96,0,120
1,note_on,91,75,120
1,note_on,91,0,120
1,note_on,96,66,0
1,note_on,96,0,120
1,note_on,91,82,0
1,note_on,91,0,120
1,note_on,96,72,0
1,note_on,96,0,120
1,note_on,100,87,0
1,note_on,100,0,120
1,note_on,98,69,0
1,note_on,98,0,120
1,note_on,96,87,0
1,note_on,96,0,120
1,note_on,95,73,0
1,note_on,95,0,120
1,note_on,93,74,0
1,note_on,93,0,120
1,note_on,91,73,0
1,note_on,91,0,120
1,note_on,89,72,0
1,note_on,89,0,120
1,note_on,88,69,0
1,note_on,88,0,120
1,note_on,86,67,0
1,note_on,86,0,120
1,note_on,84,66,0
1,note_on,84,0,120
1,note_on,83,64,0
1,note_on,83,0,120
1,note_on,81,62,0
1,note_on,81,0,120
1,note_on,79,60,0
1,note_on,79,0,81
1,note_on,77,58,0
1,note_on,76,57,79
1,note_on,77,0,1
1,note_on,76,0,79
1,note_on,74,54,0
1,note_on,74,0,120
1,note_on,72,52,0
1,note_on,72,0,120
1,note_on,71,51,0
1,note_on,71,0,120
1,note_on,69,51,0
1,note_on,69,0,120
1,note_on,67,48,0
1,note_on,67,0,240
1,note_on,92,76,0
1,note_on,92,0,120
1,note_on,96,66,0
1,note_on,96,0,120
1,note_on,92,71,0
1,note_on,92,0,120
1,note_on,96,68,0
1,note_on,96,0,120
1,note_on,99,77,0
1,note_on,99,0,120
1,note_on,97,69,0
1,note_on,97,0,120
1,note_on,96,82,0
1,note_on,96,0,120
1,note_on,94,71,0
1,note_on,94,0,120
1,note_on,92,80,0
1,note_on,92,0,120
1,note_on,91,78,0
1,note_on,91,0,120
1,note_on,89,77,0
1,note_on,89,0,120
1,note_on,87,75,0
1,note_on,87,0,120
1,note_on,85,74,0
1,note_on,85,0,120
1,note_on,84,72,0
1,note_on,84,0,120
1,note_on,82,70,0
1,note_on,82,0,120
1,note_on,80,69,0
1,note_on,80,0,120
1,note_on,79,67,0
1,note_on,79,0,120
1,note_on,77,66,0
1,note_on,77,0,120
1,note_on,75,64,0
1,note_on,75,0,80
1,note_on,73,61,0
1,note_on,73,0,80
1,note_on,72,63,0
1,note_on,72,0,80
1,note_on,70,65,0
1,note_on,70,0,81
1,note_on,68,66,0
1,note_on,67,68,79
1,note_on,68,0,1
1,note_on,67,0,79
1,note_on,65,69,0
1,note_on,65,0,48
1,note_on,63,70,0
1,note_on,63,0,48
1,note_on,61,71,0
1,note_on,61,0,48
1,note_on,60,72,0
1,note_on,60,0,48
1,note_on,58,73,0
1,note_on,58,0,48
1,note_on,56,90,0
1,note_on,56,0,240
1,note_on,68,77,0
1,note_on,72,68,120
1,note_on,68,0,12
1,note_on,75,77,108
1,note_on,72,0,12
1,note_on,73,74,108
1,note_on,75,0,12
1,note_on,72,74,108
1,note_on,73,0,12
1,note_on,70,73,108
1,note_on,72,0,12
1,note_on,68,72,108
1,note_on,70,0,12
1,note_on,67,71,108
1,note_on,68,0,12
1,note_on,65,70,108
1,note_on,67,0,12
1,note_on,63,69,108
1,note_on,65,0,12
1,note_on,61,68,108
1,note_on,63,0,12
1,note_on,60,67,108
1,note_on,61,0,12
1,note_on,58,66,108
1,note_on,60,0,12
1,note_on,56,64,108
1,note_on,58,0,12
1,note_on,55,63,108
1,note_on,56,0,12
1,note_on,53,62,108
1,note_on,55,0,12
1,note_on,51,61,108
1,note_on,53,0,12
1,note_on,53,65,108
1,note_on,51,0,12
1,note_on,51,67,108
1,note_on,53,0,12
1,note_on,49,69,108
1,note_on,51,0,12
1,note_on,48,71,108
1,note_on,49,0,12
1,note_on,46,73,108
1,note_on,48,0,12
1,note_on,44,78,108
1,note_on,46,0,12
1,note_on,44,0,108
1,note_on,48,67,0
1,note_on,48,0,120
1,note_on,44,78,0
1,note_on,44,0,120
1,note_on,48,65,0
1,note_on,48,0,120
1,note_on,51,73,0
1,note_on,51,0,120
1,note_on,44,78,120
1,note_on,44,0,120
1,note_on,48,67,0
1,note_on,48,0,120
1,note_on,44,78,0
1,note_on,44,0,120
1,note_on,48,65,0
1,note_on,48,0,120
1,note_on,51,73,0
1,note_on,51,0,120
1,note_on,44,78,120
1,note_on,44,0,120
1,note_on,48,67,0
1,note_on,48,0,120
1,note_on,44,78,0
1,note_on,44,0,120
1,note_on,48,65,0
1,note_on,48,0,120
1,note_on,51,73,0
1,note_on,51,0,120
1,note_on,44,78,120
1,note_on,44,0,120
1,note_on,48,67,0
1,note_on,48,0,120
1,note_on,44,78,0
1,note_on,44,0,120
1,note_on,48,65,0
1,note_on,48,0,120
1,note_on,51,73,0
1,note_on,51,0,120
1,note_on,44,70,120
1,note_on,44,0,120
1,note_on,48,59,0
1,note_on,48,0,120
1,note_on,44,67,0
1,note_on,44,0,120
1,note_on,48,55,0
1,note_on,48,0,120
1,note_on,51,61,0
1,note_on,51,0,120
1,note_on,48,62,120
1,note_on,48,0,120
1,note_on,51,52,0
1,note_on,51,0,120
1,note_on,48,60,0
1,note_on,48,0,120
1,note_on,51,48,0
1,note_on,51,0,120
1,note_on,56,54,0
1,note_on,56,0,120
1,note_on,51,54,120
1,note_on,51,0,120
1,note_on,56,46,0
1,note_on,56,0,120
1,note_on,51,52,0
1,note_on,51,0,120
1,note_on,56,42,0
1,note_on,56,0,120
1,note_on,60,46,0
1,note_on,60,0,120
1,note_on,56,46,120
1,note_on,56,0,120
1,note_on,60,39,0
1,note_on,60,0,120
1,note_on,56,44,0
1,note_on,56,0,120
1,note_on,60,35,0
1,note_on,60,0,120
1,note_on,63,39,0
1,note_on,63,0,120
1,note_on,56,46,120
1,note_on,56,0,120
1,note_on,60,39,0
1,note_on,60,0,120
1,note_on,56,46,0
1,note_on,56,0,120
1,note_on,60,39,0
1,note_on,60,0,120
1,note_on,63,46,0
1,note_on,63,0,120
1,note_on,61,46,0
1,note_on,61,0,120
1,note_on,60,42,0
1,note_on,60,0,132
1,note_on,60,47,2268
1,note_on,61,50,120
1,note_on,60,0,12
1,note_on,63,52,108
1,note_on,61,0,12
1,note_on,64,55,108
1,note_on,63,0,12
1,note_on,64,0,98
1,note_on,58,58,10
1,note_on,61,58,0
1,note_on,64,58,0
1,note_on,64,0,2880
1,note_on,61,0,0
1,note_on,58,0,0
1,note_on,68,46,720
1,note_on,68,0,120
1,note_on,72,39,0
1,note_on,72,0,120
1,note_on,68,46,0
1,note_on,68,0,120
1,note_on,72,39,0
1,note_on,72,0,120
1,note_on,75,46,0
1,note_on,75,0,120
1,note_on,73,43,0
1,note_on,73,0,120
1,note_on,72,45,0
1,note_on,70,45,120
1,note_on,72,0,12
1,note_on,70,0,108
1,note_on,68,44,0
1,note_on,68,0,120
1,note_on,67,44,0
1,note_on,67,0,120
1,note_on,65,43,0
1,note_on,65,0,120
1,note_on,63,42,0
1,note_on,63,0,120
1,note_on,61,42,0
1,note_on,61,0,120
1,note_on,60,41,0
1,note_on,60,0,120
1,note_on,58,41,0
1,note_on,58,0,120
1,note_on,56,40,0
1,note_on,56,0,120
1,note_on,55,40,0
1,note_on,55,0,120
1,note_on,56,40,0
1,note_on,56,0,120
1,note_on,58,41,0
1,note_on,58,0,120
1,note_on,60,41,0
1,note_on,60,0,120
1,note_on,61,42,0
1,note_on,61,0,120
1,note_on,63,42,0
1,note_on,63,0,120
1,note_on,65,43,0
1,note_on,65,0,120
1,note_on,67,44,0
1,note_on,67,0,120
1,note_on,68,44,0
1,note_on,68,0,120
1,note_on,70,47,0
1,note_on,70,0,120
1,note_on,72,47,0
1,note_on,73,50,120
1,note_on,72,0,12
1,note_on,75,52,108
1,note_on,73,0,12
1,note_on,76,55,108
1,note_on,75,0,12
1,note_on,76,0,108
1,note_on,76,58,0
1,note_on,70,58,0
1,note_on,73,58,0
1,note_on,73,0,2880
1,note_on,70,0,0
1,note_on,76,0,0
1,note_on,79,42,720
1,note_on,79,0,120
1,note_on,82,43,0
1,note_on,82,0,120
1,note_on,85,45,0
1,note_on,85,0,120
1,note_on,84,46,0
1,note_on,84,0,120
1,note_on,82,47,0
1,note_on,82,0,120
1,note_on,80,46,0
1,note_on,80,0,120
1,note_on,79,45,0
1,note_on,79,0,120
1,note_on,77,45,0
1,note_on,77,0,120
1,note_on,76,44,0
1,note_on,76,0,120
1,note_on,73,43,0
1,note_on,73,0,120
1,note_on,72,42,0
1,note_on,72,0,120
1,note_on,73,41,0
1,note_on,73,0,120
1,note_on,76,43,0
1,note_on,76,0,120
1,note_on,77,45,0
1,note_on,77,0,120
1,note_on,79,47,0
1,note_on,79,0,120
1,note_on,80,48,0
1,note_on,80,0,120
1,note_on,82,49,0
1,note_on,82,0,120
1,note_on,84,49,0
1,note_on,84,0,120
1,note_on,85,53,0
1,note_on,82,53,0
1,note_on,79,53,0
1,note_on,79,0,2160
1,note_on,82,0,0
1,note_on,85,0,0
1,note_on,88,42,720
1,note_on,88,0,120
1,note_on,91,43,0
1,note_on,91,0,120
1,note_on,94,45,0
1,note_on,94,0,120
1,note_on,92,46,0
1,note_on,92,0,120
1,note_on,91,47,0
1,note_on,91,0,120
1,note_on,89,46,0
1,note_on,89,0,120
1,note_on,88,45,0
1,note_on,88,0,120
1,note_on,85,45,0
1,note_on,85,0,120
1,note_on,84,44,0
1,note_on,84,0,120
1,note_on,82,43,0
1,note_on,82,0,120
1,note_on,81,42,0
1,note_on,81,0,120
1,note_on,82,41,0
1,note_on,82,0,120
1,note_on,84,43,0
1,note_on,84,0,120
1,note_on,85,45,0
1,note_on,85,0,120
1,note_on,88,47,0
1,note_on,88,0,120
1,note_on,89,48,0
1,note_on,89,0,120
1,note_on,91,49,0
1,note_on,91,0,120
1,note_on,92,49,0
1,note_on,92,0,120
1,note_on,88,53,0
1,note_on,91,53,0
1,note_on,94,53,0
1,note_on,94,0,2160
1,note_on,91,0,0
1,note_on,88,0,0
1,note_on,77,48,720
1,note_on,80,48,0
1,note_on,83,48,0
1,note_on,83,0,2160
1,note_on,80,0,0
1,note_on,77,0,0
1,note_on,72,38,720
1,note_on,67,38,0
1,note_on,64,38,0
1,note_on,64,0,2160
1,note_on,67,0,0
1,note_on,72,0,0
1,note_on,72,51,0
1,note_on,72,0,60
1,note_on,60,43,180
1,note_on,60,0,60
1,note_on,72,51,180
1,note_on,72,0,60
1,note_on,60,44,180
1,note_on,60,0,60
1,note_on,72,51,180
1,note_on,72,0,60
1,note_on,60,42,180
1,note_on,60,0,60
1,note_on,73,40,1620
1,note_on,73,0,60
1,note_on,72,51,0
1,note_on,72,0,60
1,note_on,72,45,120
1,note_on,72,0,120
1,note_on,73,39,0
1,note_on,73,0,120
1,note_on,72,46,0
1,note_on,72,0,60
1,note_on,72,49,180
1,note_on,72,0,60
1,note_on,72,44,180
1,note_on,72,0,60
1,note_on,72,42,180
1,note_on,72,0,60
1,note_on,73,40,180
1,note_on,73,0,60
1,note_on,72,51,0
1,note_on,72,0,60
1,note_on,72,45,120
1,note_on,72,0,120
1,note_on,73,39,0
1,note_on,73,0,120
1,note_on,72,46,0
1,note_on,72,0,60
1,note_on,72,49,180
1,note_on,72,0,60
1,note_on,72,44,180
1,note_on,72,0,60
1,note_on,72,42,180
1,note_on,72,0,60
1,note_on,73,40,180
1,note_on,73,0,60
1,note_on,72,51,0
1,note_on,72,0,60
1,note_on,72,45,120
1,note_on,72,0,120
1,note_on,73,39,0
1,note_on,73,0,120
1,note_on,72,46,0
1,note_on,72,0,60
1,note_on,73,40,180
1,note_on,73,0,60
1,note_on,72,51,0
1,note_on,72,0,60
1,note_on,72,45,120
1,note_on,72,0,120
1,note_on,73,39,0
1,note_on,73,0,120
1,note_on,72,46,0
1,note_on,72,0,60
1,note_on,72,51,180
1,note_on,72,0,60
1,note_on,72,52,180
1,note_on,72,0,60
1,note_on,72,54,180
1,note_on,72,0,60
1,note_on,72,56,180
1,note_on,72,0,60
1,note_on,72,56,180
1,note_on,72,0,60
1,note_on,72,53,180
1,note_on,72,0,60
1,note_on,73,40,180
1,note_on,73,0,60
1,note_on,72,51,0
1,note_on,72,0,60
1,note_on,72,45,120
1,note_on,72,0,120
1,note_on,73,39,0
1,note_on,73,0,120
1,note_on,72,46,0
1,note_on,72,0,60
1,note_on,73,40,180
1,note_on,73,0,60
1,note_on,72,49,0
1,note_on,72,0,60
1,note_on,72,44,120
1,note_on,72,0,120
1,note_on,73,36,0
1,note_on,73,0,120
1,note_on,72,42,0
1,note_on,72,0,60
1,note_on,72,40,180
1,note_on,72,0,120
1,note_on,71,52,0
1,note_on,71,0,110
1,note_on,71,47,10
1,note_on,71,0,120
1,note_on,74,40,0
1,note_on,74,0,120
1,note_on,72,45,0
1,note_on,72,0,120
1,note_on,71,36,0
1,note_on,71,0,120
1,note_on,72,46,0
1,note_on,72,0,60
1,note_on,67,39,180
1,note_on,67,0,480
1,note_on,72,46,0
1,note_on,72,0,60
1,note_on,67,39,180
1,note_on,67,0,60
1,note_on,72,46,180
1,note_on,72,0,60
1,note_on,70,46,180
1,note_on,70,0,240
1,note_on,68,39,0
1,note_on,68,0,120
1,note_on,67,39,0
1,note_on,67,0,120
1,note_on,65,43,0
1,note_on,65,0,240
1,note_on,67,46,0
1,note_on,67,0,120
1,note_on,70,38,0
1,note_on,70,0,120
1,note_on,67,46,0
1,note_on,67,0,120
1,note_on,70,40,0
1,note_on,70,0,120
1,note_on,64,46,0
1,note_on,64,0,120
1,note_on,67,40,0
1,note_on,67,0,120
1,note_on,65,46,0
1,note_on,65,0,120
1,note_on,68,37,0
1,note_on,68,0,120
1,note_on,72,42,0
1,note_on,72,0,120
1,note_on,77,47,0
1,note_on,77,0,120
1,note_on,80,52,0
1,note_on,80,0,120
1,note_on,82,57,0
1,note_on,82,0,120
1,note_on,84,65,0
1,note_on,84,0,60
1,note_on,84,54,180
1,note_on,84,0,120
1,note_on,85,46,0
1,note_on,85,0,120
1,note_on,84,55,0
1,note_on,84,0,60
1,note_on,85,48,180
1,note_on,85,0,60
1,note_on,84,64,0
1,note_on,84,0,60
1,note_on,84,52,120
1,note_on,84,0,120
1,note_on,85,43,0
1,note_on,85,0,120
1,note_on,84,50,0
1,note_on,84,0,60
1,note_on,84,61,180
1,note_on,84,0,120
1,note_on,83,48,0
1,note_on,83,0,120
1,note_on,89,56,0
1,note_on,89,0,120
1,note_on,83,48,0
1,note_on,83,0,120
1,note_on,89,54,0
1,note_on,89,0,120
1,note_on,83,43,0
1,note_on,83,0,120
1,note_on,84,55,0
1,note_on,84,0,60
1,note_on,79,46,180
1,note_on,79,0,240
1,note_on,84,57,240
1,note_on,84,0,60
1,note_on,79,46,180
1,note_on,79,0,60
1,note_on,84,55,180
1,note_on,84,0,60
1,note_on,82,55,180
1,note_on,82,0,240
1,note_on,80,46,0
1,note_on,80,0,120
1,note_on,79,46,0
1,note_on,79,0,120
1,note_on,77,51,0
1,note_on,77,0,240
1,note_on,79,55,0
1,note_on,79,0,120
1,note_on,82,45,0
1,note_on,82,0,120
1,note_on,79,55,0
1,note_on,79,0,120
1,note_on,82,48,0
1,note_on,82,0,120
1,note_on,76,55,0
1,note_on,76,0,120
1,note_on,79,48,0
1,note_on,79,0,120
1,note_on,77,55,0
1,note_on,77,0,240
1,note_on,65,68,0
1,note_on,65,0,120
1,note_on,67,69,0
1,note_on,67,0,120
1,note_on,68,71,0
1,note_on,68,0,120
1,note_on,70,73,0
1,note_on,70,0,120
1,note_on,72,74,0
1,note_on,72,0,60
1,note_on,60,68,180
1,note_on,60,0,60
1,note_on,72,75,180
1,note_on,72,0,60
1,note_on,60,60,180
1,note_on,60,0,60
1,note_on,72,74,180
1,note_on,72,0,60
1,note_on,60,60,180
1,note_on,60,0,60
1,note_on,67,59,180
1,note_on,70,59,0
1,note_on,70,0,60
1,note_on,67,0,0
1,note_on,68,46,180
1,note_on,65,46,0
1,note_on,65,0,120
1,note_on,68,0,0
1,note_on,67,46,0
1,note_on,64,46,0
1,note_on,64,0,120
1,note_on,67,0,0
1,note_on,68,46,0
1,note_on,65,46,0
1,note_on,65,0,120
1,note_on,68,0,0
1,note_on,67,46,0
1,note_on,70,46,0
1,note_on,70,0,120
1,note_on,67,0,0
1,note_on,67,52,0
1,note_on,64,52,0
1,note_on,64,0,720
1,note_on,67,0,0
1,note_on,72,74,0
1,note_on,72,0,60
1,note_on,60,68,180
1,note_on,60,0,60
1,note_on,72,75,180
1,note_on,72,0,240
1,note_on,73,77,0
1,note_on,73,0,240
1,note_on,61,62,0
1,note_on,61,0,60
1,note_on,73,74,180
1,note_on,73,0,60
1,note_on,68,52,180
1,note_on,72,52,0
1,note_on,72,0,120
1,note_on,68,0,0
1,note_on,70,46,0
1,note_on,67,46,0
1,note_on,67,0,120
1,note_on,70,0,0
1,note_on,68,44,0
1,note_on,65,44,0
1,note_on,65,0,120
1,note_on,68,0,0
1,note_on,70,42,0
1,note_on,67,42,0
1,note_on,67,0,120
1,note_on,70,0,0
1,note_on,65,40,0
1,note_on,68,40,0
1,note_on,68,0,120
1,note_on,65,0,0
1,note_on,64,38,0
1,note_on,67,38,0
1,note_on,67,0,120
1,note_on,64,0,0
1,note_on,65,49,0
1,note_on,65,0,240
1,note_on,77,74,0
1,note_on,77,0,120
1,note_on,79,75,0
1,note_on,79,0,120
1,note_on,80,78,0
1,note_on,80,0,120
1,note_on,82,80,0
1,note_on,82,0,120
1,note_on,84,81,0
1,note_on,84,0,60
1,note_on,72,74,180
1,note_on,72,0,60
1,note_on,84,82,180
1,note_on,84,0,60
1,note_on,72,66,180
1,note_on,72,0,60
1,note_on,84,81,180
1,note_on,84,0,60
1,note_on,72,66,180
1,note_on,72,0,60
1,note_on,82,64,180
1,note_on,79,64,0
1,note_on,79,0,60
1,note_on,82,0,0
1,note_on,77,50,180
1,note_on,80,50,0
1,note_on,80,0,120
1,note_on,77,0,0
1,note_on,76,50,0
1,note_on,79,50,0
1,note_on,79,0,120
1,note_on,76,0,0
1,note_on,77,50,0
1,note_on,80,50,0
1,note_on,80,0,120
1,note_on,77,0,0
1,note_on,79,50,0
1,note_on,82,50,0
1,note_on,82,0,120
1,note_on,79,0,0
1,note_on,79,57,0
1,note_on,76,57,0
1,note_on,76,0,720
1,note_on,79,0,0
1,note_on,84,81,0
1,note_on,84,0,60
1,note_on,72,74,180
1,note_on,72,0,60
1,note_on,84,82,180
1,note_on,84,0,240
1,note_on,85,84,0
1,note_on,85,0,240
1,note_on,73,68,0
1,note_on,73,0,60
1,note_on,85,81,180
1,note_on,85,0,60
1,note_on,73,52,180
1,note_on,70,52,0
1,note_on,70,0,120
1,note_on,73,0,0
1,note_on,68,46,0
1,note_on,71,46,0
1,note_on,71,0,120
1,note_on,68,0,0
1,note_on,66,44,0
1,note_on,70,44,0
1,note_on,70,0,120
1,note_on,66,0,0
1,note_on,68,42,0
1,note_on,71,42,0
1,note_on,71,0,120
1,note_on,68,0,0
1,note_on,66,40,0
1,note_on,70,40,0
1,note_on,70,0,120
1,note_on,66,0,0
1,note_on,65,38,0
1,note_on,68,38,0
1,note_on,68,0,120
1,note_on,65,0,0
1,note_on,66,46,0
1,note_on,70,46,0
1,note_on,70,0,120
1,note_on,66,0,0
1,note_on,70,38,120
1,note_on,66,38,0
1,note_on,66,0,120
1,note_on,70,0,0
1,note_on,70,38,120
1,note_on,66,38,0
1,note_on,66,0,120
1,note_on,70,0,0
1,note_on,65,42,120
1,note_on,68,50,0
1,note_on,71,50,0
1,note_on,71,0,120
1,note_on,68,0,0
1,note_on,65,0,0
1,note_on,71,51,120
1,note_on,68,51,0
1,note_on,65,43,0
1,note_on,65,0,120
1,note_on,68,0,0
1,note_on,71,0,0
1,note_on,68,56,120
1,note_on,65,47,0
1,note_on,71,56,0
1,note_on,71,0,120
1,note_on,65,0,0
1,note_on,68,0,0
1,note_on,77,50,120
1,note_on,83,59,0
1,note_on,80,59,0
1,note_on,80,0,120
1,note_on,83,0,0
1,note_on,77,0,0
1,note_on,80,64,120
1,note_on,77,54,0
1,note_on,83,64,0
1,note_on,83,0,120
1,note_on,77,0,0
1,note_on,80,0,0
1,note_on,83,70,120
1,note_on,77,59,0
1,note_on,80,70,0
1,note_on,80,0,120
1,note_on,77,0,0
1,note_on,83,0,0
1,note_on,96,74,120
1,note_on,92,62,0
1,note_on,92,0,120
1,note_on,96,0,0
1,note_on,94,66,0
1,note_on,91,56,0
1,note_on,91,0,120
1,note_on,94,0,0
1,note_on,89,61,0
1,note_on,92,73,0
1,note_on,92,0,120
1,note_on,89,0,0
1,note_on,91,55,0
1,note_on,94,64,0
1,note_on,94,0,120
1,note_on,91,0,0
1,note_on,92,73,0
1,note_on,89,61,0
1,note_on,89,0,120
1,note_on,92,0,0
1,note_on,91,64,0
1,note_on,88,55,0
1,note_on,88,0,120
1,note_on,91,0,0
1,note_on,89,73,0
1,note_on,89,0,120
1,note_on,91,73,120
1,note_on,91,0,60
1,note_on,92,67,0
1,note_on,92,0,60
1,note_on,91,58,0
1,note_on,91,0,60
1,note_on,92,54,0
1,note_on,92,0,60
1,note_on,91,58,0
1,note_on,91,0,60
1,note_on,92,52,0
1,note_on,92,0,60
1,note_on,91,58,0
1,note_on,91,0,60
1,note_on,92,52,0
1,note_on,92,0,60
1,note_on,91,58,0
1,note_on,91,0,60
1,note_on,92,52,0
1,note_on,92,0,60
1,note_on,91,58,0
1,note_on,91,0,80
1,note_on,92,54,0
1,note_on,92,0,80
1,note_on,91,58,0
1,note_on,91,0,80
1,note_on,90,54,0
1,note_on,90,0,60
1,note_on,91,56,0
1,note_on,91,0,60
1,note_on,92,64,0
1,note_on,92,0,120
1,note_on,91,58,0
1,note_on,91,0,120
1,note_on,89,81,0
1,note_on,89,0,120
1,note_on,79,73,120
1,note_on,79,0,60
1,note_on,80,67,0
1,note_on,80,0,60
1,note_on,79,58,0
1,note_on,79,0,60
1,note_on,80,54,0
1,note_on,80,0,60
1,note_on,79,58,0
1,note_on,79,0,60
1,note_on,80,52,0
1,note_on,80,0,60
1,note_on,79,58,0
1,note_on,79,0,60
1,note_on,80,52,0
1,note_on,80,0,60
1,note_on,79,58,0
1,note_on,79,0,60
1,note_on,80,52,0
1,note_on,80,0,60
1,note_on,79,58,0
1,note_on,79,0,80
1,note_on,80,54,0
1,note_on,80,0,80
1,note_on,79,58,0
1,note_on,79,0,80
1,note_on,78,54,0
1,note_on,78,0,60
1,note_on,79,56,0
1,note_on,79,0,60
1,note_on,80,64,0
1,note_on,80,0,120
1,note_on,79,58,0
1,note_on,79,0,120
1,note_on,77,81,0
1,note_on,77,0,120
1,note_on,91,73,120
1,note_on,91,0,60
1,note_on,92,67,0
1,note_on,92,0,60
1,note_on,91,58,0
1,note_on,91,0,60
1,note_on,92,54,0
1,note_on,92,0,60
1,note_on,91,58,0
1,note_on,91,0,60
1,note_on,92,52,0
1,note_on,92,0,60
1,note_on,91,58,0
1,note_on,91,0,60
1,note_on,92,52,0
1,note_on,92,0,60
1,note_on,90,58,0
1,note_on,90,0,60
1,note_on,91,53,0
1,note_on,91,0,60
1,note_on,92,54,0
1,note_on,92,0,60
1,note_on,94,56,0
1,note_on,94,0,60
1,note_on,96,57,0
1,note_on,96,0,60
1,note_on,97,58,0
1,note_on,97,0,60
1,note_on,100,60,0
1,note_on,100,0,60
1,note_on,101,62,0
1,note_on,101,0,60
1,note_on,100,63,0
1,note_on,100,0,40
1,note_on,97,62,0
1,note_on,97,0,40
1,note_on,96,61,1
1,note_on,96,0,40
1,note_on,94,61,0
1,note_on,92,60,39
1,note_on,94,0,1
1,note_on,92,0,39
1,note_on,91,59,0
1,note_on,91,0,40
1,note_on,89,81,0
1,note_on,89,0,120
1,note_on,79,73,120
1,note_on,79,0,60
1,note_on,80,67,0
1,note_on,80,0,60
1,note_on,79,58,0
1,note_on,79,0,60
1,note_on,80,54,0
1,note_on,80,0,60
1,note_on,79,58,0
1,note_on,79,0,60
1,note_on,80,52,0
1,note_on,80,0,60
1,note_on,79,58,0
1,note_on,79,0,60
1,note_on,80,52,0
1,note_on,80,0,60
1,note_on,78,58,0
1,note_on,78,0,48
1,note_on,79,53,0
1,note_on,79,0,48
1,note_on,80,54,0
1,note_on,80,0,48
1,note_on,82,56,0
1,note_on,82,0,48
1,note_on,84,57,0
1,note_on,84,0,48
1,note_on,86,58,0
1,note_on,86,0,48
1,note_on,88,60,0
1,note_on,88,0,48
1,note_on,89,62,0
1,note_on,89,0,48
1,note_on,91,62,0
1,note_on,91,0,48
1,note_on,89,62,0
1,note_on,89,0,48
1,note_on,88,63,0
1,note_on,88,0,33
1,note_on,86,63,0
1,note_on,86,0,33
1,note_on,84,62,0
1,note_on,84,0,33
1,note_on,82,61,0
1,note_on,82,0,33
1,note_on,80,61,0
1,note_on,80,0,33
1,note_on,79,60,0
1,note_on,79,0,33
1,note_on,77,59,0
1,note_on,77,0,42
1,note_on,76,58,0
1,note_on,76,0,60
1,note_on,73,56,0
1,note_on,73,0,60
1,note_on,72,54,0
1,note_on,72,0,60
1,note_on,70,52,0
1,note_on,70,0,60
1,note_on,68,49,0
1,note_on,68,0,60
1,note_on,67,48,0
1,note_on,67,0,60
1,note_on,66,45,0
1,note_on,66,0,60
1,note_on,67,42,0
1,note_on,67,0,60
1,note_on,68,39,0
1,note_on,68,0,40
1,note_on,69,40,0
1,note_on,69,0,40
1,note_on,70,38,0
1,note_on,70,0,40
1,note_on,71,36,0
1,note_on,71,0,40
1,note_on,72,34,0
1,note_on,72,0,40
1,note_on,73,33,0
1,note_on,73,0,40
1,note_on,72,56,0
1,note_on,72,0,60
1,note_on,72,45,180
1,note_on,72,0,120
1,note_on,73,39,0
1,note_on,73,0,120
1,note_on,72,46,0
1,note_on,72,0,60
1,note_on,73,40,180
1,note_on,73,0,60
1,note_on,72,49,0
1,note_on,72,0,60
1,note_on,72,44,120
1,note_on,72,0,120
1,note_on,73,36,0
1,note_on,73,0,120
1,note_on,72,42,0
1,note_on,72,0,60
1,note_on,72,40,180
1,note_on,72,0,120
1,note_on,71,52,0
1,note_on,71,0,110
1,note_on,71,47,10
1,note_on,71,0,120
1,note_on,74,40,0
1,note_on,74,0,120
1,note_on,72,45,0
1,note_on,72,0,120
1,note_on,71,36,0
1,note_on,71,0,120
1,note_on,72,46,0
1,note_on,72,0,60
1,note_on,67,39,180
1,note_on,67,0,240
1,note_on,72,46,240
1,note_on,72,0,60
1,note_on,67,39,180
1,note_on,67,0,60
1,note_on,72,46,180
1,note_on,72,0,60
1,note_on,70,46,180
1,note_on,70,0,240
1,note_on,68,39,0
1,note_on,68,0,120
1,note_on,67,39,0
1,note_on,67,0,120
1,note_on,65,43,0
1,note_on,65,0,240
1,note_on,67,46,0
1,note_on,67,0,120
1,note_on,70,38,0
1,note_on,70,0,120
1,note_on,67,46,0
1,note_on,67,0,120
1,note_on,70,40,0
1,note_on,70,0,120
1,note_on,64,46,0
1,note_on,64,0,120
1,note_on,67,40,0
1,note_on,67,0,120
1,note_on,65,46,0
1,note_on,65,0,120
1,note_on,68,37,0
1,note_on,68,0,120
1,note_on,72,42,0
1,note_on,72,0,120
1,note_on,77,47,0
1,note_on,77,0,120
1,note_on,80,52,0
1,note_on,80,0,120
1,note_on,82,57,0
1,note_on,82,0,120
1,note_on,84,65,0
1,note_on,84,0,60
1,note_on,84,54,180
1,note_on,84,0,120
1,note_on,85,46,0
1,note_on,85,0,120
1,note_on,84,55,0
1,note_on,84,0,60
1,note_on,85,48,180
1,note_on,85,0,60
1,note_on,84,64,0
1,note_on,84,0,60
1,note_on,84,52,120
1,note_on,84,0,120
1,note_on,85,43,0
1,note_on,85,0,120
1,note_on,84,50,0
1,note_on,84,0,60
1,note_on,84,61,180
1,note_on,84,0,120
1,note_on,83,48,0
1,note_on,83,0,120
1,note_on,89,56,0
1,note_on,89,0,120
1,note_on,83,48,0
1,note_on,83,0,120
1,note_on,89,54,0
1,note_on,89,0,120
1,note_on,83,43,0
1,note_on,83,0,120
1,note_on,84,55,0
1,note_on,84,0,60
1,note_on,79,46,180
1,note_on,79,0,480
1,note_on,84,57,0
1,note_on,84,0,60
1,note_on,79,46,180
1,note_on,79,0,60
1,note_on,84,55,180
1,note_on,84,0,60
1,note_on,82,62,180
1,note_on,82,0,240
1,note_on,80,49,0
1,note_on,80,0,120
1,note_on,79,49,0
1,note_on,79,0,120
1,note_on,77,57,0
1,note_on,77,0,240
1,note_on,82,61,0
1,note_on,82,0,60
1,note_on,77,48,180
1,note_on,77,0,60
1,note_on,82,57,180
1,note_on,82,0,60
1,note_on,80,63,180
1,note_on,80,0,240
1,note_on,79,50,0
1,note_on,79,0,120
1,note_on,77,50,0
1,note_on,77,0,120
1,note_on,75,55,0
1,note_on,75,0,240
1,note_on,80,64,0
1,note_on,80,0,60
1,note_on,75,49,180
1,note_on,75,0,60
1,note_on,80,58,180
1,note_on,80,0,60
1,note_on,81,63,180
1,note_on,81,0,60
1,note_on,75,53,180
1,note_on,75,0,60
1,note_on,81,61,180
1,note_on,81,0,60
1,note_on,82,75,180
1,note_on,82,0,60
1,note_on,74,69,180
1,note_on,77,69,0
1,note_on,77,0,60
1,note_on,74,0,0
1,note_on,86,77,180
1,note_on,86,0,60
1,note_on,77,71,180
1,note_on,82,71,0
1,note_on,82,0,60
1,note_on,77,0,0
1,note_on,89,83,180
1,note_on,89,0,60
1,note_on,86,73,180
1,note_on,82,73,0
1,note_on,82,0,60
1,note_on,86,0,0
1,note_on,92,78,180
1,note_on,92,0,120
1,note_on,90,66,0
1,note_on,90,0,120
1,note_on,89,77,0
1,note_on,89,0,120
1,note_on,90,62,0
1,note_on,90,0,120
1,note_on,87,69,0
1,note_on,87,0,120
1,note_on,84,66,120
1,note_on,84,0,120
1,note_on,81,61,120
1,note_on,81,0,120
1,note_on,78,52,120
1,note_on,78,0,120
1,note_on,82,75,120
1,note_on,82,0,60
1,note_on,77,69,180
1,note_on,74,69,0
1,note_on,74,0,60
1,note_on,77,0,0
1,note_on,86,77,180
1,note_on,86,0,60
1,note_on,82,71,180
1,note_on,77,71,0
1,note_on,77,0,60
1,note_on,82,0,0
1,note_on,89,83,180
1,note_on,89,0,60
1,note_on,86,73,180
1,note_on,82,73,0
1,note_on,82,0,60
1,note_on,86,0,0
1,note_on,92,78,180
1,note_on,92,0,120
1,note_on,90,66,0
1,note_on,90,0,120
1,note_on,89,77,0
1,note_on,89,0,120
1,note_on,90,62,0
1,note_on,90,0,120
1,note_on,87,69,0
1,note_on,87,0,120
1,note_on,84,66,120
1,note_on,84,0,120
1,note_on,81,61,120
1,note_on,81,0,120
1,note_on,78,52,120
1,note_on,78,0,120
1,note_on,82,75,120
1,note_on,82,0,60
1,note_on,77,69,180
1,note_on,74,69,0
1,note_on,74,0,60
1,note_on,77,0,0
1,note_on,83,77,180
1,note_on,83,0,60
1,note_on,77,71,180
1,note_on,74,71,0
1,note_on,74,0,60
1,note_on,77,0,0
1,note_on,86,85,180
1,note_on,86,0,60
1,note_on,83,73,180
1,note_on,77,73,0
1,note_on,77,0,60
1,note_on,83,0,0
1,note_on,84,75,180
1,note_on,84,0,60
1,note_on,76,69,180
1,note_on,79,69,0
1,note_on,79,0,60
1,note_on,76,0,0
1,note_on,88,77,180
1,note_on,88,0,60
1,note_on,85,71,180
1,note_on,79,71,0
1,note_on,79,0,60
1,note_on,85,0,0
1,note_on,91,83,180
1,note_on,91,0,60
1,note_on,82,73,180
1,note_on,85,73,0
1,note_on,88,73,0
1,note_on,88,0,60
1,note_on,85,0,0
1,note_on,82,0,0
1,note_on,89,75,180
1,note_on,89,0,60
1,note_on,77,69,180
1,note_on,84,69,0
1,note_on,84,0,60
1,note_on,77,0,0
1,note_on,94,77,180
1,note_on,94,0,60
1,note_on,82,71,180
1,note_on,82,0,60
1,note_on,96,83,180
1,note_on,96,0,60
1,note_on,84,73,180
1,note_on,84,0,60
1,note_on,89,73,180
1,note_on,101,87,0
1,note_on,101,0,120
1,note_on,89,0,0
1,note_on,91,73,120
1,note_on,91,0,60
1,note_on,92,53,0
1,note_on,92,0,60
1,note_on,91,58,0
1,note_on,91,0,60
1,note_on,92,54,0
1,note_on,92,0,60
1,note_on,91,58,0
1,note_on,91,0,60
1,note_on,92,52,0
1,note_on,92,0,60
1,note_on,91,58,0
1,note_on,91,0,60
1,note_on,92,52,0
1,note_on,92,0,60
1,note_on,91,58,0
1,note_on,91,0,60
1,note_on,92,52,0
1,note_on,92,0,60
1,note_on,91,58,0
1,note_on,91,0,80
1,note_on,92,54,0
1,note_on,92,0,80
1,note_on,91,58,0
1,note_on,91,0,80
1,note_on,90,54,0
1,note_on,90,0,60
1,note_on,91,56,0
1,note_on,91,0,60
1,note_on,92,64,0
1,note_on,92,0,120
1,note_on,91,58,0
1,note_on,91,0,120
1,note_on,89,81,0
1,note_on,89,0,120
1,note_on,79,73,120
1,note_on,79,0,60
1,note_on,80,67,0
1,note_on,80,0,60
1,note_on,79,58,0
1,note_on,79,0,60
1,note_on,80,54,0
1,note_on,80,0,60
1,note_on,79,58,0
1,note_on,79,0,60
1,note_on,80,52,0
1,note_on,80,0,60
1,note_on,79,58,0
1,note_on,79,0,60
1,note_on,80,52,0
1,note_on,80,0,60
1,note_on,79,58,0
1,note_on,79,0,60
1,note_on,80,52,0
1,note_on,80,0,60
1,note_on,79,58,0
1,note_on,79,0,80
1,note_on,80,54,0
1,note_on,80,0,80
1,note_on,79,58,0
1,note_on,79,0,80
1,note_on,78,54,0
1,note_on,78,0,60
1,note_on,79,56,0
1,note_on,79,0,60
1,note_on,80,64,0
1,note_on,80,0,120
1,note_on,79,58,0
1,note_on,79,0,120
1,note_on,77,81,0
1,note_on,77,0,120
1,note_on,91,73,120
1,note_on,91,0,60
1,note_on,92,67,0
1,note_on,92,0,60
1,note_on,91,58,0
1,note_on,91,0,60
1,note_on,92,54,0
1,note_on,92,0,60
1,note_on,91,58,0
1,note_on,91,0,60
1,note_on,92,52,0
1,note_on,92,0,60
1,note_on,91,58,0
1,note_on,91,0,60
1,note_on,92,52,0
1,note_on,92,0,60
1,note_on,90,58,0
1,note_on,90,0,60
1,note_on,91,53,0
1,note_on,91,0,60
1,note_on,92,54,0
1,note_on,92,0,60
1,note_on,94,56,0
1,note_on,94,0,60
1,note_on,96,57,0
1,note_on,96,0,60
1,note_on,97,58,0
1,note_on,97,0,60
1,note_on,100,60,0
1,note_on,100,0,60
1,note_on,101,62,0
1,note_on,101,0,60
1,note_on,100,63,0
1,note_on,100,0,40
1,note_on,97,62,0
1,note_on,97,0,40
1,note_on,96,61,1
1,note_on,96,0,40
1,note_on,94,61,0
1,note_on,92,60,39
1,note_on,94,0,1
1,note_on,92,0,39
1,note_on,91,59,0
1,note_on,91,0,40
1,note_on,89,81,0
1,note_on,89,0,120
1,note_on,79,73,120
1,note_on,79,0,60
1,note_on,80,67,0
1,note_on,80,0,60
1,note_on,79,58,0
1,note_on,79,0,60
1,note_on,80,54,0
1,note_on,80,0,60
1,note_on,79,58,0
1,note_on,79,0,60
1,note_on,80,52,0
1,note_on,80,0,60
1,note_on,79,58,0
1,note_on,79,0,60
1,note_on,80,52,0
1,note_on,80,0,60
1,note_on,78,55,0
1,note_on,78,0,32
1,note_on,79,55,0
1,note_on,79,0,31
1,note_on,80,57,1
1,note_on,80,0,31
1,note_on,82,57,0
1,note_on,82,0,32
1,note_on,84,60,0
1,note_on,84,0,31
1,note_on,85,62,0
1,note_on,85,0,31
1,note_on,88,64,1
1,note_on,88,0,32
1,note_on,89,67,0
1,note_on,89,0,32
1,note_on,91,68,0
1,note_on,91,0,31
1,note_on,89,68,0
1,note_on,89,0,32
1,note_on,88,65,0
1,note_on,85,63,30
1,note_on,88,0,1
1,note_on,85,0,30
1,note_on,84,61,1
1,note_on,84,0,31
1,note_on,82,59,0
1,note_on,80,57,30
1,note_on,82,0,1
1,note_on,80,0,30
1,note_on,79,57,0
1,note_on,77,54,31
1,note_on,79,0,0
1,note_on,77,0,31
1,note_on,76,50,0
1,note_on,76,0,31
1,note_on,73,49,0
1,note_on,72,47,30
1,note_on,73,0,1
1,note_on,72,0,30
1,note_on,70,46,0
1,note_on,70,0,31
1,note_on,68,44,0
1,note_on,67,42,30
1,note_on,68,0,1
1,note_on,67,0,33
1,note_on,65,64,0
1,note_on,65,0,60
1,note_on,60,43,180
1,note_on,60,0,60
1,note_on,65,51,180
1,note_on,65,0,60
1,note_on,60,44,180
1,note_on,60,0,60
1,note_on,65,51,180
1,note_on,65,0,60
1,note_on,60,42,180
1,note_on,60,0,60
1,note_on,65,52,180
1,note_on,65,0,60
1,note_on,60,43,180
1,note_on,60,0,60
1,note_on,65,51,180
1,note_on,65,0,60
1,note_on,60,44,180
1,note_on,60,0,60
1,note_on,65,51,180
1,note_on,65,0,60
1,note_on,60,42,180
1,note_on,60,0,60
1,note_on,68,52,180
1,note_on,65,52,0
1,note_on,65,0,60
1,note_on,68,0,0
1,note_on,60,42,180
1,note_on,65,42,0
1,note_on,65,0,60
1,note_on,60,0,0
1,note_on,68,49,180
1,note_on,65,49,0
1,note_on,65,0,60
1,note_on,68,0,0
1,note_on,60,41,180
1,note_on,65,41,0
1,note_on,65,0,60
1,note_on,60,0,0
1,note_on,65,47,180
1,note_on,68,40,0
1,note_on,68,0,60
1,note_on,65,0,0
1,note_on,60,38,180
1,note_on,65,40,0
1,note_on,65,0,60
1,note_on,60,0,0
1,note_on,68,46,180
1,note_on,65,46,0
1,note_on,65,0,60
1,note_on,68,0,0
1,note_on,65,38,180
1,note_on,60,38,0
1,note_on,60,0,60
1,note_on,65,0,0
1,note_on,65,44,180
1,note_on,68,44,0
1,note_on,68,0,60
1,note_on,65,0,0
1,note_on,65,37,180
1,note_on,60,37,0
1,note_on,60,0,60
1,note_on,65,0,0
1,note_on,65,42,180
1,note_on,68,36,0
1,note_on,68,0,60
1,note_on,65,0,0
1,note_on,65,36,180
1,note_on,60,34,0
1,note_on,60,0,60
1,note_on,65,0,0
1,note_on,68,41,180
1,note_on,65,41,0
1,note_on,65,0,60
1,note_on,68,0,0
1,note_on,65,34,180
1,note_on,61,34,0
1,note_on,61,0,60
1,note_on,65,0,0
1,note_on,68,40,180
1,note_on,65,40,0
1,note_on,65,0,60
1,note_on,68,0,0
1,note_on,61,35,180
1,note_on,65,35,0
1,note_on,65,0,60
1,note_on,61,0,0
1,note_on,65,40,180
1,note_on,68,35,0
1,note_on,68,0,60
1,note_on,65,0,0
1,note_on,65,35,180
1,note_on,61,33,0
1,note_on,61,0,60
1,note_on,65,0,0
1,note_on,65,41,180
1,note_on,68,41,0
1,note_on,68,0,60
1,note_on,65,0,0
1,note_on,61,34,180
1,note_on,65,34,0
1,note_on,65,0,60
1,note_on,61,0,0
1,note_on,68,40,180
1,note_on,65,40,0
1,note_on,65,0,60
1,note_on,68,0,0
1,note_on,65,35,180
1,note_on,61,35,0
1,note_on,61,0,60
1,note_on,65,0,0
1,note_on,68,35,180
1,note_on,65,40,0
1,note_on,65,0,60
1,note_on,68,0,0
1,note_on,61,33,180
1,note_on,65,35,0
1,note_on,65,0,60
1,note_on,61,0,0
1,note_on,68,41,180
1,note_on,66,41,0
1,note_on,66,0,60
1,note_on,68,0,0
1,note_on,66,34,180
1,note_on,63,34,0
1,note_on,63,0,60
1,note_on,66,0,0
1,note_on,68,40,180
1,note_on,66,40,0
1,note_on,66,0,60
1,note_on,68,0,0
1,note_on,66,35,180
1,note_on,63,35,0
1,note_on,63,0,60
1,note_on,66,0,0
1,note_on,68,35,180
1,note_on,66,40,0
1,note_on,66,0,60
1,note_on,68,0,0
1,note_on,66,35,180
1,note_on,63,33,0
1,note_on,63,0,60
1,note_on,66,0,0
1,note_on,68,41,180
1,note_on,66,41,0
1,note_on,66,0,60
1,note_on,68,0,0
1,note_on,68,43,180
1,note_on,75,43,0
1,note_on,75,0,60
1,note_on,68,0,0
1,note_on,78,45,180
1,note_on,75,45,0
1,note_on,75,0,60
1,note_on,78,0,0
1,note_on,78,48,180
1,note_on,80,48,0
1,note_on,80,0,60
1,note_on,78,0,0
1,note_on,80,50,180
1,note_on,87,50,0
1,note_on,87,0,60
1,note_on,80,0,0
1,note_on,90,53,180
1,note_on,87,53,0
1,note_on,87,0,60
1,note_on,90,0,0
1,note_on,85,55,180
1,note_on,89,55,0
1,note_on,89,0,60
1,note_on,85,0,0
1,note_on,80,53,180
1,note_on,77,53,0
1,note_on,77,0,60
1,note_on,80,0,0
1,note_on,89,57,180
1,note_on,85,57,0
1,note_on,85,0,60
1,note_on,89,0,0
1,note_on,77,49,180
1,note_on,80,49,0
1,note_on,80,0,60
1,note_on,77,0,0
1,note_on,89,56,180
1,note_on,85,56,0
1,note_on,85,0,60
1,note_on,89,0,0
1,note_on,77,50,180
1,note_on,80,50,0
1,note_on,80,0,60
1,note_on,77,0,0
1,note_on,89,56,180
1,note_on,85,56,0
1,note_on,85,0,60
1,note_on,89,0,0
1,note_on,80,54,180
1,note_on,85,54,0
1,note_on,85,0,60
1,note_on,80,0,0
1,note_on,77,51,180
1,note_on,80,51,0
1,note_on,80,0,60
1,note_on,77,0,0
1,note_on,77,47,180
1,note_on,73,47,0
1,note_on,73,0,60
1,note_on,77,0,0
1,note_on,73,44,180
1,note_on,68,44,0
1,note_on,68,0,60
1,note_on,73,0,0
1,note_on,68,41,180
1,note_on,65,41,0
1,note_on,65,0,60
1,note_on,68,0,0
1,note_on,68,41,180
1,note_on,66,41,0
1,note_on,66,0,60
1,note_on,68,0,0
1,note_on,63,34,180
1,note_on,66,34,0
1,note_on,66,0,60
1,note_on,63,0,0
1,note_on,68,40,180
1,note_on,66,40,0
1,note_on,66,0,60
1,note_on,68,0,0
1,note_on,66,44,180
1,note_on,69,44,0
1,note_on,69,0,60
1,note_on,66,0,0
1,note_on,66,35,180
1,note_on,63,40,0
1,note_on,63,0,60
1,note_on,66,0,0
1,note_on,69,35,180
1,note_on,66,33,0
1,note_on,66,0,60
1,note_on,69,0,0
1,note_on,66,41,180
1,note_on,68,41,0
1,note_on,68,0,60
1,note_on,66,0,0
1,note_on,68,43,180
1,note_on,75,43,0
1,note_on,75,0,60
1,note_on,68,0,0
1,note_on,78,45,180
1,note_on,75,45,0
1,note_on,75,0,60
1,note_on,78,0,0
1,note_on,80,48,180
1,note_on,78,48,0
1,note_on,78,0,60
1,note_on,80,0,0
1,note_on,80,50,180
1,note_on,87,50,0
1,note_on,87,0,60
1,note_on,80,0,0
1,note_on,90,53,180
1,note_on,87,53,0
1,note_on,87,0,60
1,note_on,90,0,0
1,note_on,85,55,180
1,note_on,89,55,0
1,note_on,89,0,60
1,note_on,85,0,0
1,note_on,77,53,180
1,note_on,80,53,0
1,note_on,80,0,60
1,note_on,77,0,0
1,note_on,89,57,180
1,note_on,85,57,0
1,note_on,85,0,60
1,note_on,89,0,0
1,note_on,82,49,180
1,note_on,77,49,0
1,note_on,77,0,60
1,note_on,82,0,0
1,note_on,85,56,180
1,note_on,89,56,0
1,note_on,89,0,60
1,note_on,85,0,0
1,note_on,77,50,180
1,note_on,82,50,0
1,note_on,82,0,60
1,note_on,77,0,0
1,note_on,85,56,180
1,note_on,89,56,0
1,note_on,89,0,60
1,note_on,85,0,0
1,note_on,80,54,180
1,note_on,85,54,0
1,note_on,85,0,60
1,note_on,80,0,0
1,note_on,77,51,180
1,note_on,80,51,0
1,note_on,80,0,60
1,note_on,77,0,0
1,note_on,73,47,180
1,note_on,77,47,0
1,note_on,77,0,60
1,note_on,73,0,0
1,note_on,73,44,180
1,note_on,68,44,0
1,note_on,68,0,60
1,note_on,73,0,0
1,note_on,68,41,180
1,note_on,65,41,0
1,note_on,65,0,60
1,note_on,68,0,0
1,note_on,75,41,180
1,note_on,77,41,0
1,note_on,77,0,60
1,note_on,75,0,0
1,note_on,69,34,180
1,note_on,65,34,0
1,note_on,65,0,60
1,note_on,69,0,0
1,note_on,75,40,180
1,note_on,77,40,0
1,note_on,77,0,60
1,note_on,75,0,0
1,note_on,69,35,180
1,note_on,66,35,0
1,note_on,66,0,60
1,note_on,69,0,0
1,note_on,78,35,180
1,note_on,75,40,0
1,note_on,75,0,60
1,note_on,78,0,0
1,note_on,66,33,180
1,note_on,69,35,0
1,note_on,69,0,60
1,note_on,66,0,0
1,note_on,75,41,180
1,note_on,77,41,0
1,note_on,77,0,60
1,note_on,75,0,0
1,note_on,65,43,180
1,note_on,69,43,0
1,note_on,69,0,60
1,note_on,65,0,0
1,note_on,75,45,180
1,note_on,77,45,0
1,note_on,77,0,60
1,note_on,75,0,0
1,note_on,77,48,180
1,note_on,81,48,0
1,note_on,81,0,60
1,note_on,77,0,0
1,note_on,87,50,180
1,note_on,81,50,0
1,note_on,81,0,60
1,note_on,87,0,0
1,note_on,87,53,180
1,note_on,89,53,0
1,note_on,89,0,60
1,note_on,87,0,0
1,note_on,85,55,180
1,note_on,89,55,0
1,note_on,89,0,60
1,note_on,85,0,0
1,note_on,82,53,180
1,note_on,77,53,0
1,note_on,77,0,60
1,note_on,82,0,0
1,note_on,89,57,180
1,note_on,85,57,0
1,note_on,85,0,60
1,note_on,89,0,0
1,note_on,82,49,180
1,note_on,78,49,0
1,note_on,78,0,60
1,note_on,82,0,0
1,note_on,85,56,180
1,note_on,90,56,0
1,note_on,90,0,60
1,note_on,85,0,0
1,note_on,82,50,180
1,note_on,78,50,0
1,note_on,78,0,60
1,note_on,82,0,0
1,note_on,89,56,180
1,note_on,85,56,0
1,note_on,85,0,60
1,note_on,89,0,0
1,note_on,85,54,180
1,note_on,82,54,0
1,note_on,82,0,60
1,note_on,85,0,0
1,note_on,77,51,180
1,note_on,82,51,0
1,note_on,82,0,60
1,note_on,77,0,0
1,note_on,77,47,180
1,note_on,73,47,0
1,note_on,73,0,60
1,note_on,77,0,0
1,note_on,70,44,180
1,note_on,73,44,0
1,note_on,73,0,60
1,note_on,70,0,0
1,note_on,70,41,180
1,note_on,65,41,0
1,note_on,65,0,60
1,note_on,70,0,0
1,note_on,65,41,180
1,note_on,73,41,0
1,note_on,73,0,60
1,note_on,65,0,0
1,note_on,65,34,180
1,note_on,61,34,0
1,note_on,61,0,60
1,note_on,65,0,0
1,note_on,73,40,180
1,note_on,65,40,0
1,note_on,65,0,60
1,note_on,73,0,0
1,note_on,65,35,180
1,note_on,61,35,0
1,note_on,61,0,60
1,note_on,65,0,0
1,note_on,65,40,180
1,note_on,73,35,0
1,note_on,73,0,60
1,note_on,65,0,0
1,note_on,65,35,180
1,note_on,61,33,0
1,note_on,61,0,60
1,note_on,65,0,0
1,note_on,72,45,180
1,note_on,65,45,0
1,note_on,65,0,60
1,note_on,72,0,0
1,note_on,65,40,180
1,note_on,60,40,0
1,note_on,60,0,60
1,note_on,65,0,0
1,note_on,65,45,180
1,note_on,72,45,0
1,note_on,72,0,60
1,note_on,65,0,0
1,note_on,65,43,180
1,note_on,60,43,0
1,note_on,60,0,60
1,note_on,65,0,0
1,note_on,72,43,180
1,note_on,65,43,0
1,note_on,65,0,60
1,note_on,72,0,0
1,note_on,65,35,180
1,note_on,60,33,0
1,note_on,60,0,60
1,note_on,65,0,0
1,note_on,71,55,180
1,note_on,68,55,0
1,note_on,68,0,60
1,note_on,71,0,0
1,note_on,68,43,180
1,note_on,65,43,0
1,note_on,65,0,60
1,note_on,68,0,0
1,note_on,68,45,180
1,note_on,71,45,0
1,note_on,71,0,60
1,note_on,68,0,0
1,note_on,68,48,180
1,note_on,65,48,0
1,note_on,65,0,60
1,note_on,68,0,0
1,note_on,68,50,180
1,note_on,71,50,0
1,note_on,71,0,60
1,note_on,68,0,0
1,note_on,77,53,180
1,note_on,71,53,0
1,note_on,71,0,60
1,note_on,77,0,0
1,note_on,80,56,180
1,note_on,77,56,0
1,note_on,77,0,60
1,note_on,80,0,0
1,note_on,80,54,180
1,note_on,83,54,0
1,note_on,83,0,60
1,note_on,80,0,0
1,note_on,77,51,180
1,note_on,80,51,0
1,note_on,80,0,60
1,note_on,77,0,0
1,note_on,71,47,180
1,note_on,77,47,0
1,note_on,77,0,60
1,note_on,71,0,0
1,note_on,68,44,180
1,note_on,71,44,0
1,note_on,71,0,60
1,note_on,68,0,0
1,note_on,68,41,180
1,note_on,65,41,0
1,note_on,65,0,60
1,note_on,68,0,0
1,note_on,70,41,180
1,note_on,67,41,0
1,note_on,67,0,60
1,note_on,70,0,0
1,note_on,67,34,180
1,note_on,61,34,0
1,note_on,61,0,60
1,note_on,67,0,0
1,note_on,67,40,180
1,note_on,70,40,0
1,note_on,70,0,60
1,note_on,67,0,0
1,note_on,67,35,180
1,note_on,61,35,0
1,note_on,61,0,60
1,note_on,67,0,0
1,note_on,70,35,180
1,note_on,67,40,0
1,note_on,67,0,60
1,note_on,70,0,0
1,note_on,67,35,180
1,note_on,61,33,0
1,note_on,61,0,60
1,note_on,67,0,0
1,note_on,65,45,180
1,note_on,69,45,0
1,note_on,69,0,60
1,note_on,65,0,0
1,note_on,65,40,180
1,note_on,60,40,0
1,note_on,60,0,60
1,note_on,65,0,0
1,note_on,65,45,180
1,note_on,69,45,0
1,note_on,69,0,60
1,note_on,65,0,0
1,note_on,65,43,180
1,note_on,60,43,0
1,note_on,60,0,60
1,note_on,65,0,0
1,note_on,65,43,180
1,note_on,69,43,0
1,note_on,69,0,60
1,note_on,65,0,0
1,note_on,65,35,180
1,note_on,60,33,0
1,note_on,60,0,60
1,note_on,65,0,0
1,note_on,65,55,180
1,note_on,68,55,0
1,note_on,68,0,60
1,note_on,65,0,0
1,note_on,65,43,180
1,note_on,62,43,0
1,note_on,62,0,60
1,note_on,65,0,0
1,note_on,65,45,180
1,note_on,68,45,0
1,note_on,68,0,60
1,note_on,65,0,0
1,note_on,62,48,180
1,note_on,65,48,0
1,note_on,65,0,60
1,note_on,62,0,0
1,note_on,68,46,180
1,note_on,65,46,0
1,note_on,65,0,60
1,note_on,68,0,0
1,note_on,65,44,180
1,note_on,62,44,0
1,note_on,62,0,60
1,note_on,65,0,0
1,note_on,67,45,180
1,note_on,62,45,0
1,note_on,62,0,60
1,note_on,67,0,0
1,note_on,55,38,180
1,note_on,62,38,0
1,note_on,62,0,60
1,note_on,55,0,0
1,note_on,62,45,180
1,note_on,67,45,0
1,note_on,67,0,60
1,note_on,62,0,0
1,note_on,65,38,180
1,note_on,62,38,0
1,note_on,62,0,60
1,note_on,65,0,0
1,note_on,62,44,180
1,note_on,56,44,0
1,note_on,56,0,60
1,note_on,62,0,0
1,note_on,62,40,180
1,note_on,65,40,0
1,note_on,65,0,60
1,note_on,62,0,0
1,note_on,60,39,180
1,note_on,65,39,0
1,note_on,65,0,60
1,note_on,60,0,0
1,note_on,56,35,180
1,note_on,60,35,0
1,note_on,60,0,60
1,note_on,56,0,0
1,note_on,60,41,180
1,note_on,65,41,0
1,note_on,65,0,60
1,note_on,60,0,0
1,note_on,60,35,180
1,note_on,56,35,0
1,note_on,56,0,60
1,note_on,60,0,0
1,note_on,60,41,180
1,note_on,65,41,0
1,note_on,65,0,60
1,note_on,60,0,0
1,note_on,56,35,180
1,note_on,60,35,0
1,note_on,60,0,60
1,note_on,56,0,0
1,note_on,60,40,180
1,note_on,65,40,0
1,note_on,65,0,60
1,note_on,60,0,0
1,note_on,55,31,180
1,note_on,60,31,0
1,note_on,60,0,60
1,note_on,55,0,0
1,note_on,65,45,180
1,note_on,60,45,0
1,note_on,60,0,60
1,note_on,65,0,0
1,note_on,60,40,180
1,note_on,55,40,0
1,note_on,55,0,60
1,note_on,60,0,0
1,note_on,60,48,180
1,note_on,64,48,0
1,note_on,64,0,60
1,note_on,60,0,0
1,note_on,64,42,180
1,note_on,68,42,0
1,note_on,68,0,60
1,note_on,64,0,0
1,note_on,68,56,180
1,note_on,65,56,0
1,note_on,65,0,60
1,note_on,68,0,0
1,note_on,65,44,180
1,note_on,61,44,0
1,note_on,61,0,60
1,note_on,65,0,0
1,note_on,68,51,180
1,note_on,65,51,0
1,note_on,65,0,60
1,note_on,68,0,0
1,note_on,61,35,180
1,note_on,65,35,0
1,note_on,65,0,60
1,note_on,61,0,0
1,note_on,65,44,180
1,note_on,68,44,0
1,note_on,68,0,60
1,note_on,65,0,0
1,note_on,61,35,180
1,note_on,65,35,0
1,note_on,65,0,60
1,note_on,61,0,0
1,note_on,65,43,180
1,note_on,67,43,0
1,note_on,67,0,60
1,note_on,65,0,0
1,note_on,61,34,180
1,note_on,65,34,0
1,note_on,65,0,60
1,note_on,61,0,0
1,note_on,65,43,180
1,note_on,67,43,0
1,note_on,67,0,60
1,note_on,65,0,0
1,note_on,62,34,180
1,note_on,65,34,0
1,note_on,65,0,60
1,note_on,62,0,0
1,note_on,62,41,180
1,note_on,55,41,0
1,note_on,55,0,60
1,note_on,62,0,0
1,note_on,65,36,180
1,note_on,62,36,0
1,note_on,62,0,60
1,note_on,65,0,0
1,note_on,65,39,180
1,note_on,60,39,0
1,note_on,60,0,60
1,note_on,65,0,0
1,note_on,56,35,180
1,note_on,60,35,0
1,note_on,60,0,60
1,note_on,56,0,0
1,note_on,60,41,180
1,note_on,65,41,0
1,note_on,65,0,60
1,note_on,60,0,0
1,note_on,56,35,180
1,note_on,60,35,0
1,note_on,60,0,60
1,note_on,56,0,0
1,note_on,65,41,180
1,note_on,60,41,0
1,note_on,60,0,60
1,note_on,65,0,0
1,note_on,56,35,180
1,note_on,60,35,0
1,note_on,60,0,60
1,note_on,56,0,0
1,note_on,65,40,180
1,note_on,60,40,0
1,note_on,60,0,60
1,note_on,65,0,0
1,note_on,56,31,180
1,note_on,60,31,0
1,note_on,60,0,60
1,note_on,56,0,0
1,note_on,60,38,180
1,note_on,65,38,0
1,note_on,65,0,60
1,note_on,60,0,0
1,note_on,60,30,180
1,note_on,56,30,0
1,note_on,56,0,60
1,note_on,60,0,0
1,note_on,60,39,180
1,note_on,65,39,0
1,note_on,65,0,60
1,note_on,60,0,0
1,note_on,56,32,180
1,note_on,60,32,0
1,note_on,60,0,60
1,note_on,56,0,0
1,note_on,65,39,180
1,note_on,60,39,0
1,note_on,60,0,60
1,note_on,65,0,0
1,note_on,60,34,180
1,note_on,55,34,0
1,note_on,55,0,60
1,note_on,60,0,0
1,note_on,65,38,180
1,note_on,60,38,0
1,note_on,60,0,60
1,note_on,65,0,0
1,note_on,55,32,180
1,note_on,60,32,0
1,note_on,60,0,60
1,note_on,55,0,0
1,note_on,65,36,180
1,note_on,60,36,0
1,note_on,60,0,60
1,note_on,65,0,0
1,note_on,55,30,180
1,note_on,60,30,0
1,note_on,60,0,60
1,note_on,55,0,0
1,note_on,64,34,180
1,note_on,60,34,0
1,note_on,60,0,60
1,note_on,64,0,0
1,note_on,60,25,180
1,note_on,55,25,0
1,note_on,55,0,60
1,note_on,60,0,0
1,note_on,64,30,180
1,note_on,60,30,0
1,note_on,60,0,60
1,note_on,64,0,0
1,note_on,60,23,180
1,note_on,55,23,0
1,note_on,55,0,60
1,note_on,60,0,0
1,note_on,60,29,180
1,note_on,64,29,0
1,note_on,64,0,60
1,note_on,60,0,0
1,note_on,55,23,180
1,note_on,60,23,0
1,note_on,60,0,60
1,note_on,55,0,0
1,note_on,77,88,1620
1,note_on,77,0,240
1,note_on,65,80,0
1,note_on,65,0,240
1,note_on,77,80,0
1,note_on,77,0,60
1,note_on,80,88,180
1,note_on,80,0,240
1,note_on,68,80,0
1,note_on,68,0,240
1,note_on,80,80,0
1,note_on,80,0,60
1,note_on,84,88,180
1,note_on,84,0,240
1,note_on,72,80,0
1,note_on,72,0,240
1,note_on,84,80,0
1,note_on,84,0,60
1,note_on,79,88,180
1,note_on,79,0,240
1,note_on,67,80,0
1,note_on,67,0,240
1,note_on,79,80,0
1,note_on,79,0,60
1,note_on,82,88,180
1,note_on,82,0,240
1,note_on,70,80,0
1,note_on,70,0,240
1,note_on,82,80,0
1,note_on,82,0,60
1,note_on,77,88,180
1,note_on,77,0,240
1,note_on,65,80,0
1,note_on,65,0,240
1,note_on,77,80,0
1,note_on,77,0,60
1,note_on,80,88,180
1,note_on,77,74,0
1,note_on,77,0,240
1,note_on,80,0,0
1,note_on,68,80,0
1,note_on,68,0,240
1,note_on,77,68,0
1,note_on,80,80,0
1,note_on,80,0,60
1,note_on,77,0,0
1,note_on,79,88,180
1,note_on,76,60,0
1,note_on,76,0,240
1,note_on,79,0,0
1,note_on,67,80,0
1,note_on,67,0,240
1,note_on,79,80,0
1,note_on,76,68,0
1,note_on,76,0,60
1,note_on,79,0,0
1,note_on,77,88,180
1,note_on,77,0,240
1,note_on,65,80,0
1,note_on,65,0,240
1,note_on,77,80,0
1,note_on,77,0,60
1,note_on,80,88,180
1,note_on,77,74,0
1,note_on,77,0,240
1,note_on,80,0,0
1,note_on,68,80,0
1,note_on,68,0,240
1,note_on,77,68,0
1,note_on,80,80,0
1,note_on,80,0,60
1,note_on,77,0,0
1,note_on,75,60,180
1,note_on,84,88,0
1,note_on,84,0,240
1,note_on,75,0,0
1,note_on,72,80,0
1,note_on,72,0,240
1,note_on,75,68,0
1,note_on,84,80,0
1,note_on,84,0,60
1,note_on,75,0,0
1,note_on,75,74,180
1,note_on,79,88,0
1,note_on,79,0,240
1,note_on,75,0,0
1,note_on,70,80,0
1,note_on,70,0,240
1,note_on,79,80,0
1,note_on,75,68,0
1,note_on,75,0,60
1,note_on,79,0,0
1,note_on,77,74,180
1,note_on,82,88,0
1,note_on,73,74,0
1,note_on,73,0,240
1,note_on,82,0,0
1,note_on,77,0,0
1,note_on,70,80,0
1,note_on,70,0,240
1,note_on,77,68,0
1,note_on,73,68,0
1,note_on,82,80,0
1,note_on,82,0,60
1,note_on,73,0,0
1,note_on,77,0,0
1,note_on,68,60,180
1,note_on,77,88,0
1,note_on,77,0,240
1,note_on,68,0,0
1,note_on,65,80,0
1,note_on,65,0,240
1,note_on,68,68,0
1,note_on,77,80,0
1,note_on,77,0,60
1,note_on,68,0,0
1,note_on,77,74,180
1,note_on,80,88,0
1,note_on,80,0,240
1,note_on,77,0,0
1,note_on,68,80,0
1,note_on,68,0,240
1,note_on,77,68,0
1,note_on,80,80,0
1,note_on,80,0,60
1,note_on,77,0,0
1,note_on,76,74,180
1,note_on,79,88,0
1,note_on,79,0,240
1,note_on,76,0,0
1,note_on,67,80,0
1,note_on,67,0,240
1,note_on,79,80,0
1,note_on,76,68,0
1,note_on,76,0,60
1,note_on,79,0,0
1,note_on,89,88,180
1,note_on,89,0,240
1,note_on,77,72,0
1,note_on,77,0,120
1,note_on,89,72,0
1,note_on,89,0,120
1,note_on,77,80,0
1,note_on,77,0,60
1,note_on,92,88,180
1,note_on,89,74,0
1,note_on,89,0,240
1,note_on,92,0,0
1,note_on,80,72,0
1,note_on,80,0,120
1,note_on,92,59,0
1,note_on,89,50,0
1,note_on,89,0,120
1,note_on,92,0,0
1,note_on,80,80,0
1,note_on,80,0,60
1,note_on,96,88,180
1,note_on,87,74,0
1,note_on,87,0,240
1,note_on,96,0,0
1,note_on,84,72,0
1,note_on,84,0,120
1,note_on,87,52,0
1,note_on,96,62,0
1,note_on,96,0,120
1,note_on,87,0,0
1,note_on,84,80,0
1,note_on,84,0,60
1,note_on,87,74,180
1,note_on,91,88,0
1,note_on,91,0,240
1,note_on,87,0,0
1,note_on,82,72,0
1,note_on,82,0,120
1,note_on,91,64,0
1,note_on,87,54,0
1,note_on,87,0,120
1,note_on,91,0,0
1,note_on,82,80,0
1,note_on,82,0,60
1,note_on,89,74,180
1,note_on,85,74,0
1,note_on,94,88,0
1,note_on,94,0,240
1,note_on,85,0,0
1,note_on,89,0,0
1,note_on,82,72,0
1,note_on,82,0,120
1,note_on,94,64,0
1,note_on,85,54,0
1,note_on,89,54,0
1,note_on,89,0,120
1,note_on,85,0,0
1,note_on,94,0,0
1,note_on,82,80,0
1,note_on,82,0,60
1,note_on,80,74,180
1,note_on,89,88,0
1,note_on,89,0,240
1,note_on,80,0,0
1,note_on,77,72,0
1,note_on,77,0,120
1,note_on,80,53,0
1,note_on,89,63,0
1,note_on,89,0,120
1,note_on,80,0,0
1,note_on,77,80,0
1,note_on,77,0,60
1,note_on,89,74,180
1,note_on,92,88,0
1,note_on,92,0,240
1,note_on,89,0,0
1,note_on,80,72,0
1,note_on,80,0,120
1,note_on,89,53,0
1,note_on,92,63,0
1,note_on,92,0,120
1,note_on,89,0,0
1,note_on,80,80,0
1,note_on,80,0,60
1,note_on,88,60,180
1,note_on,91,88,0
1,note_on,91,0,240
1,note_on,88,0,0
1,note_on,79,72,0
1,note_on,79,0,120
1,note_on,88,52,0
1,note_on,91,62,0
1,note_on,91,0,120
1,note_on,88,0,0
1,note_on,79,80,0
1,note_on,79,0,60
1,note_on,92,88,180
1,note_on,89,74,0
1,note_on,89,0,240
1,note_on,92,0,0
1,note_on,80,72,0
1,note_on,80,0,120
1,note_on,92,64,0
1,note_on,89,54,0
1,note_on,89,0,120
1,note_on,92,0,0
1,note_on,80,81,0
1,note_on,80,0,60
1,note_on,88,77,180
1,note_on,96,91,0
1,note_on,91,77,0
1,note_on,91,0,240
1,note_on,96,0,0
1,note_on,88,0,0
1,note_on,84,75,0
1,note_on,84,0,120
1,note_on,96,66,0
1,note_on,88,56,0
1,note_on,91,66,0
1,note_on,91,0,120
1,note_on,88,0,0
1,note_on,96,0,0
1,note_on,84,84,0
1,note_on,84,0,60
1,note_on,96,95,180
1,note_on,92,64,0
1,note_on,89,64,0
1,note_on,89,0,240
1,note_on,92,0,0
1,note_on,96,0,0
1,note_on,84,78,0
1,note_on,84,0,120
1,note_on,96,69,0
1,note_on,89,58,0
1,note_on,92,58,0
1,note_on,92,0,120
1,note_on,89,0,0
1,note_on,96,0,0
1,note_on,84,88,0
1,note_on,84,0,60
1,note_on,91,83,180
1,note_on,96,83,0
1,note_on,100,98,0
1,note_on,100,0,240
1,note_on,96,0,0
1,note_on,91,0,0
1,note_on,88,81,0
1,note_on,88,0,120
1,note_on,96,61,0
1,note_on,91,61,0
1,note_on,100,72,0
1,note_on,100,0,120
1,note_on,91,0,0
1,note_on,96,0,0
1,note_on,88,91,0
1,note_on,88,0,60
1,note_on,89,85,60
1,note_on,89,0,40
1,note_on,92,90,0
1,note_on,92,0,40
1,note_on,96,96,0
1,note_on,96,0,40
1,note_on,101,105,0
1,note_on,101,0,120
1,note_on,99,103,0
1,note_on,99,0,120
1,note_on,97,101,0
1,note_on,97,0,120
1,note_on,96,98,0
1,note_on,96,0,120
1,note_on,94,96,0
1,note_on,94,0,120
1,note_on,92,94,0
1,note_on,92,0,120
1,note_on,91,92,0
1,note_on,91,0,120
1,note_on,89,89,0
1,note_on,89,0,120
1,note_on,87,87,0
1,note_on,87,0,120
1,note_on,85,85,0
1,note_on,85,0,120
1,note_on,84,82,0
1,note_on,84,0,120
1,note_on,82,80,0
1,note_on,82,0,120
1,note_on,80,80,0
1,note_on,80,0,120
1,note_on,79,79,0
1,note_on,79,0,120
1,note_on,77,78,0
1,note_on,77,0,120
1,note_on,75,78,0
1,note_on,75,0,120
1,note_on,73,77,0
1,note_on,73,0,120
1,note_on,72,76,0
1,note_on,72,0,120
1,note_on,70,75,0
1,note_on,70,0,120
1,note_on,68,74,0
1,note_on,68,0,120
1,note_on,67,73,0
1,note_on,67,0,120
1,note_on,65,72,0
1,note_on,65,0,120
1,note_on,63,71,0
1,note_on,63,0,120
1,note_on,61,70,0
1,note_on,61,0,120
2,note_on,53,35,0
2,note_on,53,0,60
2,note_on,56,25,180
2,note_on,60,25,0
2,note_on,65,30,0
2,note_on,65,0,60
2,note_on,60,0,0
2,note_on,56,0,0
2,note_on,53,30,180
2,note_on,53,0,60
2,note_on,60,29,180
2,note_on,56,29,0
2,note_on,65,35,0
2,note_on,65,0,60
2,note_on,56,0,0
2,note_on,60,0,0
2,note_on,53,31,180
2,note_on,53,0,60
2,note_on,56,26,180
2,note_on,65,31,0
2,note_on,60,26,0
2,note_on,60,0,60
2,note_on,65,0,0
2,note_on,56,0,0
2,note_on,53,35,180
2,note_on,53,0,60
2,note_on,62,31,180
2,note_on,59,26,0
2,note_on,56,26,0
2,note_on,56,0,60
2,note_on,59,0,0
2,note_on,62,0,0
2,note_on,53,31,180
2,note_on,53,0,60
2,note_on,48,35,180
2,note_on,48,0,60
2,note_on,60,32,180
2,note_on,55,27,0
2,note_on,52,27,0
2,note_on,52,0,60
2,note_on,55,0,0
2,note_on,60,0,0
2,note_on,48,32,180
2,note_on,48,0,60
2,note_on,60,35,180
2,note_on,52,29,0
2,note_on,55,29,0
2,note_on,55,0,60
2,note_on,52,0,0
2,note_on,60,0,0
2,note_on,48,31,180
2,note_on,48,0,60
2,note_on,52,26,180
2,note_on,60,31,0
2,note_on,55,26,0
2,note_on,55,0,60
2,note_on,60,0,0
2,note_on,52,0,0
2,note_on,49,35,180
2,note_on,49,0,60
2,note_on,61,31,180
2,note_on,53,26,0
2,note_on,53,0,60
2,note_on,61,0,0
2,note_on,49,31,180
2,note_on,49,0,60
2,note_on,46,35,180
2,note_on,46,0,240
2,note_on,58,33,0
2,note_on,55,28,0
2,note_on,55,0,240
2,note_on,58,0,0
2,note_on,48,28,0
2,note_on,58,33,0
2,note_on,55,28,0
2,note_on,55,0,120
2,note_on,58,0,0
2,note_on,48,0,0
2,note_on,53,34,120
2,note_on,56,40,0
2,note_on,56,0,480
2,note_on,53,0,0
2,note_on,53,35,240
2,note_on,53,0,60
2,note_on,60,25,180
2,note_on,65,30,0
2,note_on,56,25,0
2,note_on,56,0,60
2,note_on,65,0,0
2,note_on,60,0,0
2,note_on,53,30,180
2,note_on,53,0,60
2,note_on,60,29,180
2,note_on,65,35,0
2,note_on,56,29,0
2,note_on,56,0,60
2,note_on,65,0,0
2,note_on,60,0,0
2,note_on,53,31,180
2,note_on,53,0,60
2,note_on,56,26,180
2,note_on,65,31,0
2,note_on,60,26,0
2,note_on,60,0,60
2,note_on,65,0,0
2,note_on,56,0,0
2,note_on,53,35,180
2,note_on,53,0,60
2,note_on,56,26,180
2,note_on,59,26,0
2,note_on,62,31,0
2,note_on,62,0,60
2,note_on,59,0,0
2,note_on,56,0,0
2,note_on,53,31,180
2,note_on,53,0,60
2,note_on,48,35,180
2,note_on,48,0,60
2,note_on,52,27,180
2,note_on,55,27,0
2,note_on,60,32,0
2,note_on,60,0,60
2,note_on,55,0,0
2,note_on,52,0,0
2,note_on,48,32,180
2,note_on,48,0,60
2,note_on,60,35,180
2,note_on,55,29,0
2,note_on,52,29,0
2,note_on,52,0,60
2,note_on,55,0,0
2,note_on,60,0,0
2,note_on,48,31,180
2,note_on,48,0,60
2,note_on,52,26,180
2,note_on,60,31,0
2,note_on,55,26,0
2,note_on,55,0,60
2,note_on,60,0,0
2,note_on,52,0,0
2,note_on,49,35,180
2,note_on,49,0,60
2,note_on,61,31,180
2,note_on,53,26,0
2,note_on,53,0,60
2,note_on,61,0,0
2,note_on,49,31,180
2,note_on,49,0,60
2,note_on,46,35,180
2,note_on,46,0,240
2,note_on,55,28,0
2,note_on,58,33,0
2,note_on,58,0,240
2,note_on,55,0,0
2,note_on,58,33,0
2,note_on,48,28,0
2,note_on,55,28,0
2,note_on,55,0,240
2,note_on,48,0,0
2,note_on,58,0,0
2,note_on,56,40,0
2,note_on,53,34,0
2,note_on,53,0,240
2,note_on,56,0,0
2,note_on,36,60,480
2,note_on,36,0,60
2,note_on,48,55,180
2,note_on,48,0,60
2,note_on,36,60,180
2,note_on,36,0,60
2,note_on,48,53,180
2,note_on,48,0,60
2,note_on,36,60,180
2,note_on,36,0,60
2,note_on,48,52,180
2,note_on,48,0,60
2,note_on,36,49,180
2,note_on,36,0,60
2,note_on,48,43,180
2,note_on,48,0,60
2,note_on,36,43,180
2,note_on,36,0,60
2,note_on,48,43,180
2,note_on,48,0,60
2,note_on,36,41,180
2,note_on,36,0,60
2,note_on,48,43,180
2,note_on,48,0,60
2,note_on,36,60,180
2,note_on,36,0,60
2,note_on,48,55,180
2,note_on,48,0,60
2,note_on,36,60,180
2,note_on,36,0,240
2,note_on,37,60,0
2,note_on,37,0,240
2,note_on,49,49,0
2,note_on,49,0,60
2,note_on,37,57,180
2,note_on,37,0,60
2,note_on,36,49,180
2,note_on,36,0,60
2,note_on,48,43,180
2,note_on,48,0,60
2,note_on,36,43,180
2,note_on,36,0,60
2,note_on,41,43,180
2,note_on,41,0,240
2,note_on,48,60,480
2,note_on,48,0,60
2,note_on,60,55,180
2,note_on,60,0,60
2,note_on,48,60,180
2,note_on,48,0,60
2,note_on,60,53,180
2,note_on,60,0,60
2,note_on,48,60,180
2,note_on,48,0,60
2,note_on,60,52,180
2,note_on,60,0,60
2,note_on,47,49,180
2,note_on,47,0,60
2,note_on,59,43,180
2,note_on,59,0,60
2,note_on,47,43,180
2,note_on,47,0,60
2,note_on,60,43,180
2,note_on,60,0,60
2,note_on,48,41,180
2,note_on,48,0,60
2,note_on,60,43,180
2,note_on,60,0,60
2,note_on,48,60,180
2,note_on,48,0,60
2,note_on,60,55,180
2,note_on,60,0,60
2,note_on,48,60,180
2,note_on,48,0,240
2,note_on,49,60,0
2,note_on,49,0,240
2,note_on,61,49,0
2,note_on,61,0,60
2,note_on,49,57,180
2,note_on,49,0,60
2,note_on,49,49,180
2,note_on,49,0,60
2,note_on,61,43,180
2,note_on,61,0,60
2,note_on,49,43,180
2,note_on,49,0,60
2,note_on,61,43,180
2,note_on,61,0,120
2,note_on,49,43,120
2,note_on,49,0,120
2,note_on,61,43,120
2,note_on,61,0,120
2,note_on,49,43,120
2,note_on,49,0,120
2,note_on,61,43,120
2,note_on,61,0,120
2,note_on,49,44,120
2,note_on,49,0,120
2,note_on,61,45,120
2,note_on,61,0,120
2,note_on,49,50,120
2,note_on,49,0,120
2,note_on,61,51,120
2,note_on,61,0,120
2,note_on,48,51,120
2,note_on,48,0,120
2,note_on,60,53,120
2,note_on,60,0,120
2,note_on,48,57,120
2,note_on,48,0,120
2,note_on,53,60,120
2,note_on,53,0,120
2,note_on,36,60,600
2,note_on,36,0,60
2,note_on,48,55,180
2,note_on,48,0,60
2,note_on,36,60,180
2,note_on,36,0,60
2,note_on,48,53,180
2,note_on,48,0,60
2,note_on,36,60,180
2,note_on,36,0,60
2,note_on,48,52,180
2,note_on,48,0,60
2,note_on,36,49,180
2,note_on,36,0,60
2,note_on,48,43,180
2,note_on,48,0,60
2,note_on,36,43,180
2,note_on,36,0,60
2,note_on,48,43,180
2,note_on,48,0,60
2,note_on,36,41,180
2,note_on,36,0,60
2,note_on,48,43,180
2,note_on,48,0,60
2,note_on,36,60,180
2,note_on,36,0,60
2,note_on,48,55,180
2,note_on,48,0,60
2,note_on,36,60,180
2,note_on,36,0,240
2,note_on,37,60,0
2,note_on,37,0,240
2,note_on,49,49,0
2,note_on,49,0,60
2,note_on,37,57,180
2,note_on,37,0,60
2,note_on,36,49,180
2,note_on,36,0,60
2,note_on,48,43,180
2,note_on,48,0,60
2,note_on,36,43,180
2,note_on,36,0,60
2,note_on,41,43,180
2,note_on,41,0,240
2,note_on,48,60,480
2,note_on,48,0,60
2,note_on,60,55,180
2,note_on,60,0,60
2,note_on,48,60,180
2,note_on,48,0,60
2,note_on,60,53,180
2,note_on,60,0,60
2,note_on,48,60,180
2,note_on,48,0,60
2,note_on,60,52,180
2,note_on,60,0,60
2,note_on,47,49,180
2,note_on,47,0,60
2,note_on,59,43,180
2,note_on,59,0,60
2,note_on,47,43,180
2,note_on,47,0,60
2,note_on,60,43,180
2,note_on,60,0,60
2,note_on,48,41,180
2,note_on,48,0,60
2,note_on,60,43,180
2,note_on,60,0,60
2,note_on,48,60,180
2,note_on,48,0,60
2,note_on,60,55,180
2,note_on,60,0,60
2,note_on,48,60,180
2,note_on,48,0,240
2,note_on,49,60,0
2,note_on,49,0,240
2,note_on,61,49,0
2,note_on,61,0,60
2,note_on,49,57,180
2,note_on,49,0,60
2,note_on,49,49,180
2,note_on,49,0,60
2,note_on,61,43,180
2,note_on,61,0,60
2,note_on,49,43,180
2,note_on,49,0,60
2,note_on,61,43,180
2,note_on,61,0,120
2,note_on,49,43,120
2,note_on,49,0,120
2,note_on,61,43,120
2,note_on,61,0,120
2,note_on,49,43,120
2,note_on,49,0,120
2,note_on,61,43,120
2,note_on,61,0,120
2,note_on,49,44,120
2,note_on,49,0,120
2,note_on,61,45,120
2,note_on,61,0,120
2,note_on,49,50,120
2,note_on,49,0,120
2,note_on,61,51,120
2,note_on,61,0,120
2,note_on,48,51,120
2,note_on,48,0,120
2,note_on,60,53,120
2,note_on,60,0,120
2,note_on,48,57,120
2,note_on,48,0,120
2,note_on,53,60,120
2,note_on,53,0,120
2,note_on,61,51,120
2,note_on,53,51,0
2,note_on,58,51,0
2,note_on,64,61,0
2,note_on,64,0,1200
2,note_on,61,0,0
2,note_on,53,0,0
2,note_on,58,0,0
2,note_on,60,52,0
2,note_on,53,52,0
2,note_on,65,62,0
2,note_on,56,52,0
2,note_on,56,0,120
2,note_on,60,0,0
2,note_on,53,0,0
2,note_on,65,0,0
2,note_on,53,51,120
2,note_on,64,61,0
2,note_on,61,51,0
2,note_on,58,51,0
2,note_on,58,0,1200
2,note_on,53,0,0
2,note_on,64,0,0
2,note_on,61,0,0
2,note_on,53,52,0
2,note_on,60,52,0
2,note_on,65,62,0
2,note_on,56,52,0
2,note_on,56,0,120
2,note_on,53,0,0
2,note_on,60,0,0
2,note_on,65,0,0
2,note_on,61,51,120
2,note_on,58,51,0
2,note_on,64,61,0
2,note_on,53,51,0
2,note_on,53,0,1200
2,note_on,61,0,0
2,note_on,58,0,0
2,note_on,64,0,0
2,note_on,56,52,0
2,note_on,53,52,0
2,note_on,60,52,0
2,note_on,65,62,0
2,note_on,65,0,120
2,note_on,56,0,0
2,note_on,53,0,0
2,note_on,60,0,0
2,note_on,53,51,120
2,note_on,58,51,0
2,note_on,61,51,0
2,note_on,64,61,0
2,note_on,64,0,1920
2,note_on,53,0,0
2,note_on,58,0,0
2,note_on,61,0,0
2,note_on,53,35,0
2,note_on,53,0,60
2,note_on,56,25,180
2,note_on,65,30,0
2,note_on,60,25,0
2,note_on,60,0,60
2,note_on,65,0,0
2,note_on,56,0,0
2,note_on,53,30,180
2,note_on,53,0,60
2,note_on,56,29,180
2,note_on,60,29,0
2,note_on,65,35,0
2,note_on,65,0,60
2,note_on,60,0,0
2,note_on,56,0,0
2,note_on,53,31,180
2,note_on,53,0,60
2,note_on,56,26,180
2,note_on,65,31,0
2,note_on,60,26,0
2,note_on,60,0,60
2,note_on,65,0,0
2,note_on,56,0,0
2,note_on,53,35,180
2,note_on,53,0,60
2,note_on,62,31,180
2,note_on,56,26,0
2,note_on,59,26,0
2,note_on,59,0,60
2,note_on,56,0,0
2,note_on,62,0,0
2,note_on,53,31,180
2,note_on,53,0,60
2,note_on,48,35,180
2,note_on,48,0,60
2,note_on,52,27,180
2,note_on,60,32,0
2,note_on,55,27,0
2,note_on,55,0,60
2,note_on,60,0,0
2,note_on,52,0,0
2,note_on,48,32,180
2,note_on,48,0,60
2,note_on,52,29,180
2,note_on,60,35,0
2,note_on,55,29,0
2,note_on,55,0,60
2,note_on,60,0,0
2,note_on,52,0,0
2,note_on,48,31,180
2,note_on,48,0,60
2,note_on,52,26,180
2,note_on,55,26,0
2,note_on,60,31,0
2,note_on,60,0,60
2,note_on,55,0,0
2,note_on,52,0,0
2,note_on,49,35,180
2,note_on,49,0,60
2,note_on,53,26,180
2,note_on,61,31,0
2,note_on,61,0,60
2,note_on,53,0,0
2,note_on,49,31,180
2,note_on,49,0,60
2,note_on,46,35,180
2,note_on,46,0,240
2,note_on,58,33,0
2,note_on,55,28,0
2,note_on,55,0,240
2,note_on,58,0,0
2,note_on,48,28,0
2,note_on,55,28,0
2,note_on,58,33,0
2,note_on,58,0,120
2,note_on,55,0,0
2,note_on,48,0,0
2,note_on,53,34,120
2,note_on,56,40,0
2,note_on,56,0,480
2,note_on,53,0,0
2,note_on,53,35,240
2,note_on,53,0,60
2,note_on,60,25,180
2,note_on,65,30,0
2,note_on,56,25,0
2,note_on,56,0,60
2,note_on,65,0,0
2,note_on,60,0,0
2,note_on,53,30,180
2,note_on,53,0,60
2,note_on,60,29,180
2,note_on,65,35,0
2,note_on,56,29,0
2,note_on,56,0,60
2,note_on,65,0,0
2,note_on,60,0,0
2,note_on,53,31,180
2,note_on,53,0,60
2,note_on,60,26,180
2,note_on,65,31,0
2,note_on,56,26,0
2,note_on,56,0,60
2,note_on,65,0,0
2,note_on,60,0,0
2,note_on,53,35,180
2,note_on,53,0,60
2,note_on,56,26,180
2,note_on,59,26,0
2,note_on,62,31,0
2,note_on,62,0,60
2,note_on,59,0,0
2,note_on,56,0,0
2,note_on,53,31,180
2,note_on,53,0,60
2,note_on,48,35,180
2,note_on,48,0,60
2,note_on,60,32,180
2,note_on,52,27,0
2,note_on,55,27,0
2,note_on,55,0,60
2,note_on,52,0,0
2,note_on,60,0,0
2,note_on,48,32,180
2,note_on,48,0,60
2,note_on,55,29,180
2,note_on,60,35,0
2,note_on,52,29,0
2,note_on,52,0,60
2,note_on,60,0,0
2,note_on,55,0,0
2,note_on,48,31,180
2,note_on,48,0,60
2,note_on,60,31,180
2,note_on,52,26,0
2,note_on,55,26,0
2,note_on,55,0,60
2,note_on,52,0,0
2,note_on,60,0,0
2,note_on,49,35,180
2,note_on,49,0,60
2,note_on,61,31,180
2,note_on,53,26,0
2,note_on,53,0,60
2,note_on,61,0,0
2,note_on,49,31,180
2,note_on,49,0,60
2,note_on,50,35,180
2,note_on,50,0,60
2,note_on,62,31,180
2,note_on,58,31,0
2,note_on,58,0,60
2,note_on,62,0,0
2,note_on,50,31,180
2,note_on,50,0,60
2,note_on,51,39,180
2,note_on,51,0,60
2,note_on,63,33,180
2,note_on,58,33,0
2,note_on,58,0,60
2,note_on,63,0,0
2,note_on,51,33,180
2,note_on,51,0,60
2,note_on,48,41,180
2,note_on,48,0,60
2,note_on,60,32,180
2,note_on,60,0,60
2,note_on,48,31,180
2,note_on,48,0,60
2,note_on,47,40,180
2,note_on,47,0,60
2,note_on,59,36,180
2,note_on,59,0,60
2,note_on,47,36,180
2,note_on,47,0,60
2,note_on,46,51,180
2,note_on,46,0,60
2,note_on,58,36,180
2,note_on,53,36,0
2,note_on,62,43,0
2,note_on,62,0,60
2,note_on,53,0,0
2,note_on,58,0,0
2,note_on,46,57,180
2,note_on,46,0,60
2,note_on,58,39,180
2,note_on,53,39,0
2,note_on,62,46,0
2,note_on,62,0,60
2,note_on,53,0,0
2,note_on,58,0,0
2,note_on,46,55,180
2,note_on,46,0,60
2,note_on,53,40,180
2,note_on,62,48,0
2,note_on,58,40,0
2,note_on,58,0,60
2,note_on,62,0,0
2,note_on,53,0,0
2,note_on,46,61,180
2,note_on,46,0,60
2,note_on,57,39,180
2,note_on,63,47,0
2,note_on,54,39,0
2,note_on,54,0,60
2,note_on,63,0,0
2,note_on,57,0,0
2,note_on,46,60,180
2,note_on,46,0,60
2,note_on,63,57,180
2,note_on,54,48,0
2,note_on,57,48,0
2,note_on,57,0,60
2,note_on,54,0,0
2,note_on,63,0,0
2,note_on,46,46,180
2,note_on,46,0,60
2,note_on,57,38,180
2,note_on,63,45,0
2,note_on,54,38,0
2,note_on,54,0,60
2,note_on,63,0,0
2,note_on,57,0,0
2,note_on,46,51,180
2,note_on,46,0,60
2,note_on,58,36,180
2,note_on,62,43,0
2,note_on,53,36,0
2,note_on,53,0,60
2,note_on,62,0,0
2,note_on,58,0,0
2,note_on,46,57,180
2,note_on,46,0,60
2,note_on,53,39,180
2,note_on,62,46,0
2,note_on,58,39,0
2,note_on,58,0,60
2,note_on,62,0,0
2,note_on,53,0,0
2,note_on,46,55,180
2,note_on,46,0,60
2,note_on,62,48,180
2,note_on,53,40,0
2,note_on,58,40,0
2,note_on,58,0,60
2,note_on,53,0,0
2,note_on,62,0,0
2,note_on,46,61,180
2,note_on,46,0,60
2,note_on,63,47,180
2,note_on,54,39,0
2,note_on,57,39,0
2,note_on,57,0,60
2,note_on,54,0,0
2,note_on,63,0,0
2,note_on,46,60,180
2,note_on,46,0,60
2,note_on,57,48,180
2,note_on,54,48,0
2,note_on,63,57,0
2,note_on,63,0,60
2,note_on,54,0,0
2,note_on,57,0,0
2,note_on,46,46,180
2,note_on,46,0,60
2,note_on,54,38,180
2,note_on,63,45,0
2,note_on,57,38,0
2,note_on,57,0,60
2,note_on,63,0,0
2,note_on,54,0,0
2,note_on,46,51,180
2,note_on,46,0,60
2,note_on,58,36,180
2,note_on,62,43,0
2,note_on,53,36,0
2,note_on,53,0,60
2,note_on,62,0,0
2,note_on,58,0,0
2,note_on,44,57,180
2,note_on,44,0,60
2,note_on,56,46,180
2,note_on,56,0,60
2,note_on,43,55,180
2,note_on,43,0,60
2,note_on,55,48,180
2,note_on,55,0,60
2,note_on,48,51,180
2,note_on,48,0,60
2,note_on,60,43,180
2,note_on,60,0,60
2,note_on,46,57,180
2,note_on,46,0,60
2,note_on,58,46,180
2,note_on,58,0,60
2,note_on,43,55,180
2,note_on,43,0,60
2,note_on,55,48,180
2,note_on,55,0,60
2,note_on,44,57,180
2,note_on,44,0,60
2,note_on,56,49,180
2,note_on,56,0,60
2,note_on,34,57,180
2,note_on,34,0,60
2,note_on,46,46,180
2,note_on,46,0,60
2,note_on,36,64,180
2,note_on,36,0,60
2,note_on,48,58,180
2,note_on,48,0,60
2,note_on,29,60,180
2,note_on,41,65,0
2,note_on,41,0,120
2,note_on,29,0,0
2,note_on,61,51,120
2,note_on,58,51,0
2,note_on,53,51,0
2,note_on,64,61,0
2,note_on,64,0,1200
2,note_on,61,0,0
2,note_on,58,0,0
2,note_on,53,0,0
2,note_on,53,52,0
2,note_on,60,52,0
2,note_on,65,62,0
2,note_on,56,52,0
2,note_on,56,0,120
2,note_on,53,0,0
2,note_on,60,0,0
2,note_on,65,0,0
2,note_on,61,51,120
2,note_on,64,61,0
2,note_on,58,51,0
2,note_on,53,51,0
2,note_on,53,0,1200
2,note_on,61,0,0
2,note_on,64,0,0
2,note_on,58,0,0
2,note_on,56,52,0
2,note_on,60,52,0
2,note_on,53,52,0
2,note_on,65,62,0
2,note_on,65,0,120
2,note_on,56,0,0
2,note_on,60,0,0
2,note_on,53,0,0
2,note_on,58,51,120
2,note_on,61,51,0
2,note_on,64,61,0
2,note_on,53,51,0
2,note_on,53,0,1200
2,note_on,58,0,0
2,note_on,61,0,0
2,note_on,64,0,0
2,note_on,56,52,0
2,note_on,60,52,0
2,note_on,65,62,0
2,note_on,53,52,0
2,note_on,53,0,120
2,note_on,56,0,0
2,note_on,60,0,0
2,note_on,65,0,0
2,note_on,64,61,120
2,note_on,53,51,0
2,note_on,61,51,0
2,note_on,58,51,0
2,note_on,58,0,1200
2,note_on,64,0,0
2,note_on,53,0,0
2,note_on,61,0,0
2,note_on,53,67,0
2,note_on,56,67,0
2,note_on,60,79,0
2,note_on,60,0,240
2,note_on,56,0,0
2,note_on,53,0,0
2,note_on,51,67,480
2,note_on,63,79,0
2,note_on,58,67,0
2,note_on,61,67,0
2,note_on,61,0,240
2,note_on,51,0,0
2,note_on,63,0,0
2,note_on,58,0,0
2,note_on,60,32,480
2,note_on,56,27,0
2,note_on,63,32,0
2,note_on,63,0,216
2,note_on,56,0,0
2,note_on,60,0,0
2,note_on,63,29,24
2,note_on,56,24,0
2,note_on,60,29,0
2,note_on,60,0,216
2,note_on,56,0,0
2,note_on,63,0,0
2,note_on,63,29,24
2,note_on,56,24,0
2,note_on,60,29,0
2,note_on,60,0,960
2,note_on,63,0,0
2,note_on,65,31,0
2,note_on,61,26,0
2,note_on,61,0,1440
2,note_on,65,0,0
2,note_on,56,0,0
2,note_on,56,27,0
2,note_on,63,32,0
2,note_on,60,27,0
2,note_on,60,0,216
2,note_on,63,0,0
2,note_on,56,0,0
2,note_on,60,24,24
2,note_on,56,24,0
2,note_on,63,29,0
2,note_on,63,0,216
2,note_on,56,0,0
2,note_on,60,0,0
2,note_on,63,29,24
2,note_on,60,24,0
2,note_on,56,24,0
2,note_on,60,0,960
2,note_on,61,31,0
2,note_on,61,0,240
2,note_on,58,30,0
2,note_on,58,0,240
2,note_on,60,30,0
2,note_on,60,0,240
2,note_on,61,31,0
2,note_on,61,0,240
2,note_on,60,28,0
2,note_on,60,0,240
2,note_on,58,31,0
2,note_on,58,0,240
2,note_on,56,0,0
2,note_on,63,0,0
2,note_on,59,27,0
2,note_on,56,27,0
2,note_on,63,32,0
2,note_on,63,0,216
2,note_on,56,0,0
2,note_on,59,0,0
2,note_on,63,29,24
2,note_on,59,24,0
2,note_on,56,24,0
2,note_on,56,0,216
2,note_on,59,0,0
2,note_on,63,0,0
2,note_on,59,24,24
2,note_on,56,24,0
2,note_on,63,29,0
2,note_on,63,0,960
2,note_on,59,0,0
2,note_on,61,26,0
2,note_on,64,31,0
2,note_on,64,0,1440
2,note_on,61,0,0
2,note_on,56,0,0
2,note_on,59,27,0
2,note_on,63,32,0
2,note_on,56,27,0
2,note_on,56,0,216
2,note_on,63,0,0
2,note_on,59,0,0
2,note_on,59,24,24
2,note_on,63,29,0
2,note_on,56,24,0
2,note_on,56,0,216
2,note_on,63,0,0
2,note_on,59,0,0
2,note_on,59,24,24
2,note_on,56,24,0
2,note_on,63,29,0
2,note_on,59,0,960
2,note_on,61,31,0
2,note_on,61,0,240
2,note_on,58,30,0
2,note_on,58,0,240
2,note_on,59,30,0
2,note_on,59,0,240
2,note_on,61,31,0
2,note_on,61,0,240
2,note_on,59,28,0
2,note_on,59,0,240
2,note_on,58,31,0
2,note_on,58,0,120
2,note_on,63,0,120
2,note_on,56,0,0
2,note_on,60,27,0
2,note_on,56,27,0
2,note_on,63,32,0
2,note_on,63,0,216
2,note_on,56,0,0
2,note_on,60,0,0
2,note_on,56,24,24
2,note_on,60,24,0
2,note_on,63,29,0
2,note_on,63,0,216
2,note_on,60,0,0
2,note_on,56,0,0
2,note_on,60,24,24
2,note_on,56,24,0
2,note_on,63,29,0
2,note_on,63,0,960
2,note_on,60,0,0
2,note_on,65,31,0
2,note_on,61,26,0
2,note_on,61,0,1440
2,note_on,65,0,0
2,note_on,56,0,0
2,note_on,56,32,0
2,note_on,60,32,0
2,note_on,63,38,0
2,note_on,63,0,216
2,note_on,60,0,0
2,note_on,56,0,0
2,note_on,63,35,24
2,note_on,56,29,0
2,note_on,60,29,0
2,note_on,60,0,216
2,note_on,56,0,0
2,note_on,63,0,0
2,note_on,60,30,24
2,note_on,56,30,0
2,note_on,63,36,0
2,note_on,56,0,960
2,note_on,60,0,0
2,note_on,58,33,0
2,note_on,55,33,0
2,note_on,61,33,0
2,note_on,61,0,1440
2,note_on,63,0,0
2,note_on,58,0,0
2,note_on,55,0,0
2,note_on,59,40,0
2,note_on,56,40,0
2,note_on,63,48,0
2,note_on,63,0,216
2,note_on,56,0,0
2,note_on,59,0,0
2,note_on,59,36,24
2,note_on,63,43,0
2,note_on,56,36,0
2,note_on,56,0,216
2,note_on,63,0,0
2,note_on,59,0,0
2,note_on,63,43,24
2,note_on,59,36,0
2,note_on,56,36,0
2,note_on,59,0,960
2,note_on,63,0,0
2,note_on,61,39,0
2,note_on,64,46,0
2,note_on,64,0,1440
2,note_on,61,0,0
2,note_on,56,0,0
2,note_on,59,40,0
2,note_on,56,40,0
2,note_on,63,48,0
2,note_on,63,0,216
2,note_on,56,0,0
2,note_on,59,0,0
2,note_on,56,36,24
2,note_on,63,43,0
2,note_on,59,36,0
2,note_on,59,0,216
2,note_on,63,0,0
2,note_on,56,0,0
2,note_on,63,43,24
2,note_on,59,36,0
2,note_on,56,36,0
2,note_on,56,0,960
2,note_on,59,0,0
2,note_on,63,0,0
2,note_on,58,36,0
2,note_on,61,36,0
2,note_on,55,36,0
2,note_on,64,43,0
2,note_on,64,0,720
2,note_on,63,43,0
2,note_on,63,0,720
2,note_on,55,0,0
2,note_on,61,0,0
2,note_on,58,0,0
2,note_on,63,41,0
2,note_on,59,34,0
2,note_on,56,34,0
2,note_on,56,0,720
2,note_on,59,0,0
2,note_on,63,0,0
2,note_on,56,35,0
2,note_on,51,29,0
2,note_on,47,29,0
2,note_on,47,0,720
2,note_on,51,0,0
2,note_on,56,0,0
2,note_on,49,36,0
2,note_on,61,29,480
2,note_on,57,29,0
2,note_on,57,0,120
2,note_on,61,0,0
2,note_on,49,0,120
2,note_on,51,36,0
2,note_on,61,29,480
2,note_on,58,29,0
2,note_on,58,0,120
2,note_on,61,0,0
2,note_on,51,0,120
2,note_on,47,41,0
2,note_on,51,29,480
2,note_on,59,35,0
2,note_on,56,29,0
2,note_on,56,0,960
2,note_on,47,0,0
2,note_on,51,0,0
2,note_on,59,0,0
2,note_on,49,36,0
2,note_on,57,24,480
2,note_on,61,29,0
2,note_on,61,0,120
2,note_on,57,0,0
2,note_on,49,0,120
2,note_on,51,36,0
2,note_on,58,24,480
2,note_on,61,29,0
2,note_on,61,0,120
2,note_on,58,0,0
2,note_on,51,0,120
2,note_on,47,41,0
2,note_on,51,29,480
2,note_on,59,35,0
2,note_on,56,29,0
2,note_on,56,0,960
2,note_on,47,0,0
2,note_on,51,0,0
2,note_on,59,0,0
2,note_on,49,36,0
2,note_on,61,29,480
2,note_on,57,24,0
2,note_on,57,0,240
2,note_on,61,0,0
2,note_on,49,0,0
2,note_on,51,35,0
2,note_on,58,25,480
2,note_on,61,30,0
2,note_on,61,0,240
2,note_on,58,0,0
2,note_on,51,0,0
2,note_on,44,44,0
2,note_on,44,0,240
2,note_on,56,24,240
2,note_on,59,29,0
2,note_on,59,0,120
2,note_on,56,0,0
2,note_on,44,44,120
2,note_on,44,0,240
2,note_on,58,24,240
2,note_on,61,29,0
2,note_on,61,0,120
2,note_on,58,0,0
2,note_on,44,44,120
2,note_on,44,0,240
2,note_on,63,29,240
2,note_on,59,24,0
2,note_on,59,0,120
2,note_on,63,0,0
2,note_on,63,31,120
2,note_on,58,26,0
2,note_on,61,26,0
2,note_on,61,0,60
2,note_on,58,0,0
2,note_on,63,0,0
2,note_on,58,24,180
2,note_on,63,29,0
2,note_on,61,24,0
2,note_on,61,0,60
2,note_on,63,0,0
2,note_on,58,0,0
2,note_on,59,24,180
2,note_on,56,24,0
2,note_on,63,29,0
2,note_on,63,0,60
2,note_on,56,0,0
2,note_on,59,0,0
2,note_on,51,44,180
2,note_on,51,0,480
2,note_on,55,24,0
2,note_on,58,29,0
2,note_on,58,0,120
2,note_on,55,0,0
2,note_on,51,44,120
2,note_on,51,0,480
2,note_on,56,24,0
2,note_on,59,29,0
2,note_on,59,0,120
2,note_on,56,0,0
2,note_on,51,44,120
2,note_on,51,0,480
2,note_on,58,24,0
2,note_on,61,29,0
2,note_on,61,0,120
2,note_on,58,0,0
2,note_on,56,26,120
2,note_on,51,26,0
2,note_on,59,31,0
2,note_on,59,0,60
2,note_on,51,0,0
2,note_on,56,0,0
2,note_on,59,29,180
2,note_on,51,24,0
2,note_on,56,24,0
2,note_on,56,0,60
2,note_on,51,0,0
2,note_on,59,0,0
2,note_on,51,24,180
2,note_on,58,29,0
2,note_on,55,24,0
2,note_on,55,0,60
2,note_on,58,0,0
2,note_on,51,0,0
2,note_on,44,48,180
2,note_on,44,0,480
2,note_on,56,26,0
2,note_on,59,31,0
2,note_on,59,0,120
2,note_on,56,0,0
2,note_on,44,48,120
2,note_on,44,0,480
2,note_on,58,26,0
2,note_on,61,31,0
2,note_on,61,0,120
2,note_on,58,0,0
2,note_on,44,48,120
2,note_on,44,0,480
2,note_on,59,26,0
2,note_on,63,31,0
2,note_on,63,0,120
2,note_on,59,0,0
2,note_on,64,40,120
2,note_on,54,33,0
2,note_on,61,33,0
2,note_on,61,0,60
2,note_on,54,0,0
2,note_on,64,0,0
2,note_on,64,37,180
2,note_on,61,31,0
2,note_on,54,31,0
2,note_on,54,0,60
2,note_on,61,0,0
2,note_on,64,0,0
2,note_on,54,31,180
2,note_on,58,31,0
2,note_on,66,37,0
2,note_on,66,0,60
2,note_on,58,0,0
2,note_on,54,0,0
2,note_on,54,48,180
2,note_on,59,26,480
2,note_on,63,31,0
2,note_on,63,0,120
2,note_on,59,0,0
2,note_on,54,0,120
2,note_on,64,40,0
2,note_on,61,33,0
2,note_on,54,33,0
2,note_on,54,0,60
2,note_on,61,0,0
2,note_on,64,0,0
2,note_on,64,37,180
2,note_on,61,31,0
2,note_on,54,31,0
2,note_on,54,0,60
2,note_on,61,0,0
2,note_on,64,0,0
2,note_on,58,31,180
2,note_on,54,31,0
2,note_on,66,37,0
2,note_on,66,0,60
2,note_on,54,0,0
2,note_on,58,0,0
2,note_on,55,69,180
2,note_on,63,35,480
2,note_on,58,29,0
2,note_on,58,0,180
2,note_on,63,0,0
2,note_on,55,0,60
2,note_on,56,68,0
2,note_on,59,29,480
2,note_on,63,35,0
2,note_on,63,0,180
2,note_on,59,0,0
2,note_on,56,0,60
2,note_on,49,65,0
2,note_on,49,0,480
2,note_on,61,29,0
2,note_on,64,35,0
2,note_on,64,0,180
2,note_on,61,0,0
2,note_on,63,46,60
2,note_on,59,37,0
2,note_on,51,37,0
2,note_on,51,0,60
2,note_on,59,0,0
2,note_on,63,0,0
2,note_on,63,42,180
2,note_on,51,35,0
2,note_on,59,35,0
2,note_on,59,0,60
2,note_on,51,0,0
2,note_on,63,0,0
2,note_on,51,35,180
2,note_on,58,35,0
2,note_on,63,42,0
2,note_on,63,0,60
2,note_on,58,0,0
2,note_on,51,0,0
2,note_on,55,69,180
2,note_on,58,29,480
2,note_on,63,35,0
2,note_on,63,0,180
2,note_on,58,0,0
2,note_on,55,0,60
2,note_on,56,68,0
2,note_on,59,29,480
2,note_on,63,35,0
2,note_on,63,0,180
2,note_on,59,0,0
2,note_on,56,0,60
2,note_on,49,65,0
2,note_on,49,0,480
2,note_on,64,35,0
2,note_on,61,29,0
2,note_on,61,0,180
2,note_on,64,0,0
2,note_on,51,37,60
2,note_on,63,46,0
2,note_on,59,37,0
2,note_on,59,0,60
2,note_on,63,0,0
2,note_on,51,0,0
2,note_on,63,42,180
2,note_on,51,35,0
2,note_on,59,35,0
2,note_on,59,0,60
2,note_on,51,0,0
2,note_on,63,0,0
2,note_on,51,35,180
2,note_on,63,42,0
2,note_on,58,35,0
2,note_on,58,0,60
2,note_on,63,0,0
2,note_on,51,0,0
2,note_on,51,75,180
2,note_on,51,0,480
2,note_on,58,31,0
2,note_on,61,38,0
2,note_on,61,0,180
2,note_on,58,0,0
2,note_on,51,74,60
2,note_on,51,0,480
2,note_on,63,38,0
2,note_on,59,31,0
2,note_on,59,0,180
2,note_on,63,0,0
2,note_on,51,71,60
2,note_on,51,0,480
2,note_on,64,38,0
2,note_on,61,31,0
2,note_on,61,0,180
2,note_on,64,0,0
2,note_on,51,40,60
2,note_on,58,40,0
2,note_on,61,50,0
2,note_on,61,0,60
2,note_on,58,0,0
2,note_on,51,0,0
2,note_on,58,38,180
2,note_on,51,38,0
2,note_on,61,46,0
2,note_on,61,0,60
2,note_on,51,0,0
2,note_on,58,0,0
2,note_on,58,46,180
2,note_on,55,38,0
2,note_on,51,38,0
2,note_on,51,0,60
2,note_on,55,0,0
2,note_on,58,0,0
2,note_on,51,71,180
2,note_on,51,0,480
2,note_on,61,31,0
2,note_on,64,38,0
2,note_on,64,0,180
2,note_on,61,0,0
2,note_on,58,40,60
2,note_on,51,40,0
2,note_on,61,50,0
2,note_on,61,0,60
2,note_on,51,0,0
2,note_on,58,0,0
2,note_on,51,38,180
2,note_on,61,46,0
2,note_on,58,38,0
2,note_on,58,0,60
2,note_on,61,0,0
2,note_on,51,0,0
2,note_on,51,38,180
2,note_on,55,38,0
2,note_on,58,46,0
2,note_on,58,0,60
2,note_on,55,0,0
2,note_on,51,0,0
2,note_on,51,71,180
2,note_on,51,0,480
2,note_on,64,38,0
2,note_on,61,31,0
2,note_on,61,0,180
2,note_on,64,0,0
2,note_on,51,68,60
2,note_on,51,0,480
2,note_on,61,35,0
2,note_on,64,42,0
2,note_on,64,0,180
2,note_on,61,0,0
2,note_on,51,72,60
2,note_on,51,0,480
2,note_on,61,36,0
2,note_on,64,44,0
2,note_on,64,0,180
2,note_on,61,0,0
2,note_on,51,75,60
2,note_on,51,0,480
2,note_on,64,46,0
2,note_on,61,38,0
2,note_on,61,0,180
2,note_on,64,0,0
2,note_on,51,76,60
2,note_on,51,0,480
2,note_on,61,39,0
2,note_on,64,48,0
2,note_on,64,0,180
2,note_on,61,0,0
2,note_on,52,44,780
2,note_on,52,0,480
2,note_on,61,24,0
2,note_on,64,29,0
2,note_on,64,0,120
2,note_on,61,0,0
2,note_on,52,44,120
2,note_on,52,0,480
2,note_on,64,29,0
2,note_on,61,24,0
2,note_on,61,0,120
2,note_on,64,0,0
2,note_on,52,44,120
2,note_on,52,0,480
2,note_on,64,29,0
2,note_on,61,24,0
2,note_on,61,0,120
2,note_on,64,0,0
2,note_on,52,26,120
2,note_on,59,26,0
2,note_on,62,31,0
2,note_on,62,0,60
2,note_on,59,0,0
2,note_on,52,0,0
2,note_on,62,29,180
2,note_on,52,24,0
2,note_on,59,24,0
2,note_on,59,0,60
2,note_on,52,0,0
2,note_on,62,0,0
2,note_on,57,24,180
2,note_on,61,29,0
2,note_on,52,24,0
2,note_on,52,0,60
2,note_on,61,0,0
2,note_on,57,0,0
2,note_on,52,44,180
2,note_on,52,0,480
2,note_on,62,29,0
2,note_on,59,24,0
2,note_on,59,0,120
2,note_on,62,0,0
2,note_on,52,44,120
2,note_on,52,0,480
2,note_on,59,24,0
2,note_on,62,29,0
2,note_on,62,0,120
2,note_on,59,0,0
2,note_on,52,44,120
2,note_on,52,0,480
2,note_on,62,29,0
2,note_on,59,24,0
2,note_on,59,0,120
2,note_on,62,0,0
2,note_on,52,26,120
2,note_on,57,26,0
2,note_on,61,31,0
2,note_on,61,0,60
2,note_on,57,0,0
2,note_on,52,0,0
2,note_on,52,24,180
2,note_on,57,24,0
2,note_on,61,29,0
2,note_on,61,0,60
2,note_on,57,0,0
2,note_on,52,0,0
2,note_on,52,24,180
2,note_on,59,29,0
2,note_on,56,24,0
2,note_on,56,0,60
2,note_on,59,0,0
2,note_on,52,0,0
2,note_on,52,44,180
2,note_on,52,0,480
2,note_on,61,24,0
2,note_on,64,29,0
2,note_on,64,0,120
2,note_on,61,0,0
2,note_on,52,44,120
2,note_on,52,0,480
2,note_on,61,24,0
2,note_on,64,29,0
2,note_on,64,0,120
2,note_on,61,0,0
2,note_on,52,44,120
2,note_on,52,0,480
2,note_on,64,29,0
2,note_on,61,24,0
2,note_on,61,0,120
2,note_on,64,0,0
2,note_on,62,37,120
2,note_on,59,30,0
2,note_on,52,30,0
2,note_on,52,0,60
2,note_on,59,0,0
2,note_on,62,0,0
2,note_on,52,28,180
2,note_on,62,34,0
2,note_on,59,28,0
2,note_on,59,0,60
2,note_on,62,0,0
2,note_on,52,0,0
2,note_on,57,28,180
2,note_on,52,28,0
2,note_on,61,34,0
2,note_on,61,0,60
2,note_on,52,0,0
2,note_on,57,0,0
2,note_on,52,44,180
2,note_on,52,0,480
2,note_on,62,29,0
2,note_on,59,24,0
2,note_on,59,0,120
2,note_on,62,0,0
2,note_on,52,44,120
2,note_on,52,0,480
2,note_on,62,29,0
2,note_on,59,24,0
2,note_on,59,0,120
2,note_on,62,0,0
2,note_on,52,44,120
2,note_on,52,0,480
2,note_on,59,24,0
2,note_on,62,29,0
2,note_on,62,0,120
2,note_on,59,0,0
2,note_on,61,37,120
2,note_on,52,30,0
2,note_on,57,30,0
2,note_on,57,0,60
2,note_on,52,0,0
2,note_on,61,0,0
2,note_on,57,28,180
2,note_on,61,34,0
2,note_on,52,28,0
2,note_on,52,0,60
2,note_on,61,0,0
2,note_on,57,0,0
2,note_on,52,28,180
2,note_on,59,34,0
2,note_on,56,28,0
2,note_on,56,0,60
2,note_on,59,0,0
2,note_on,52,0,0
2,note_on,52,48,180
2,note_on,52,0,480
2,note_on,61,33,0
2,note_on,57,27,0
2,note_on,57,0,120
2,note_on,61,0,0
2,note_on,52,51,120
2,note_on,52,0,480
2,note_on,59,35,0
2,note_on,56,29,0
2,note_on,56,0,120
2,note_on,59,0,0
2,note_on,52,55,120
2,note_on,52,0,480
2,note_on,61,37,0
2,note_on,57,31,0
2,note_on,57,0,120
2,note_on,61,0,0
2,note_on,52,58,120
2,note_on,52,0,480
2,note_on,62,39,0
2,note_on,59,32,0
2,note_on,59,0,120
2,note_on,62,0,0
2,note_on,63,67,120
2,note_on,60,56,0
2,note_on,51,56,0
2,note_on,56,56,0
2,note_on,56,0,216
2,note_on,63,0,0
2,note_on,60,0,0
2,note_on,51,0,0
2,note_on,60,34,24
2,note_on,63,41,0
2,note_on,51,34,0
2,note_on,56,34,0
2,note_on,56,0,216
2,note_on,60,0,0
2,note_on,63,0,0
2,note_on,51,0,0
2,note_on,63,41,24
2,note_on,51,34,0
2,note_on,60,34,0
2,note_on,56,34,0
2,note_on,56,0,960
2,note_on,60,0,0
2,note_on,61,41,0
2,note_on,58,34,0
2,note_on,58,0,1440
2,note_on,63,0,0
2,note_on,51,0,0
2,note_on,61,0,0
2,note_on,60,56,0
2,note_on,63,67,0
2,note_on,51,56,0
2,note_on,56,56,0
2,note_on,56,0,216
2,note_on,60,0,0
2,note_on,63,0,0
2,note_on,51,0,0
2,note_on,60,34,24
2,note_on,63,41,0
2,note_on,51,34,0
2,note_on,56,34,0
2,note_on,56,0,216
2,note_on,60,0,0
2,note_on,63,0,0
2,note_on,51,0,0
2,note_on,56,34,24
2,note_on,63,41,0
2,note_on,51,34,0
2,note_on,60,34,0
2,note_on,60,0,960
2,note_on,56,0,0
2,note_on,55,34,0
2,note_on,61,41,0
2,note_on,61,0,1440
2,note_on,63,0,0
2,note_on,51,0,0
2,note_on,55,0,0
2,note_on,51,56,0
2,note_on,60,56,0
2,note_on,63,67,0
2,note_on,56,56,0
2,note_on,56,0,216
2,note_on,51,0,0
2,note_on,60,0,0
2,note_on,63,0,0
2,note_on,60,34,24
2,note_on,51,34,0
2,note_on,63,41,0
2,note_on,56,34,0
2,note_on,56,0,216
2,note_on,60,0,0
2,note_on,51,0,0
2,note_on,63,0,0
2,note_on,51,34,24
2,note_on,63,41,0
2,note_on,56,34,0
2,note_on,60,34,0
2,note_on,60,0,960
2,note_on,56,0,0
2,note_on,55,34,0
2,note_on,61,41,0
2,note_on,61,0,960
2,note_on,51,0,0
2,note_on,63,0,0
2,note_on,55,0,0
2,note_on,44,56,720
2,note_on,48,49,120
2,note_on,44,0,12
2,note_on,51,56,108
2,note_on,48,0,12
2,note_on,49,54,108
2,note_on,51,0,12
2,note_on,48,54,108
2,note_on,49,0,12
2,note_on,46,53,108
2,note_on,48,0,12
2,note_on,44,52,108
2,note_on,46,0,12
2,note_on,43,52,108
2,note_on,44,0,12
2,note_on,41,51,108
2,note_on,43,0,12
2,note_on,39,50,108
2,note_on,41,0,12
2,note_on,37,49,108
2,note_on,39,0,12
2,note_on,36,48,108
2,note_on,37,0,12
2,note_on,34,48,108
2,note_on,36,0,12
2,note_on,32,47,108
2,note_on,34,0,12
2,note_on,31,46,108
2,note_on,32,0,12
2,note_on,32,45,108
2,note_on,31,0,12
2,note_on,34,44,108
2,note_on,32,0,12
2,note_on,36,46,108
2,note_on,34,0,12
2,note_on,37,47,108
2,note_on,36,0,12
2,note_on,39,48,108
2,note_on,37,0,12
2,note_on,41,48,108
2,note_on,39,0,12
2,note_on,43,49,108
2,note_on,41,0,12
2,note_on,44,50,108
2,note_on,43,0,12
2,note_on,46,51,108
2,note_on,44,0,12
2,note_on,48,52,108
2,note_on,46,0,12
2,note_on,49,52,108
2,note_on,48,0,12
2,note_on,51,53,108
2,note_on,49,0,12
2,note_on,53,54,108
2,note_on,51,0,12
2,note_on,55,56,108
2,note_on,53,0,12
2,note_on,56,56,108
2,note_on,55,0,12
2,note_on,58,58,108
2,note_on,56,0,12
2,note_on,60,59,108
2,note_on,58,0,12
2,note_on,61,60,108
2,note_on,60,0,12
2,note_on,63,62,108
2,note_on,61,0,12
2,note_on,65,63,108
2,note_on,63,0,12
2,note_on,63,63,108
2,note_on,65,0,12
2,note_on,61,61,108
2,note_on,63,0,12
2,note_on,60,60,108
2,note_on,61,0,12
2,note_on,58,58,108
2,note_on,60,0,12
2,note_on,56,56,108
2,note_on,58,0,12
2,note_on,55,55,108
2,note_on,56,0,12
2,note_on,53,53,108
2,note_on,55,0,12
2,note_on,51,52,108
2,note_on,53,0,12
2,note_on,49,50,108
2,note_on,51,0,12
2,note_on,48,48,108
2,note_on,49,0,12
2,note_on,46,47,108
2,note_on,48,0,12
2,note_on,44,49,108
2,note_on,46,0,12
2,note_on,44,0,228
2,note_on,56,39,0
2,note_on,60,34,120
2,note_on,56,0,12
2,note_on,63,39,108
2,note_on,60,0,12
2,note_on,61,37,108
2,note_on,63,0,12
2,note_on,60,37,108
2,note_on,61,0,12
2,note_on,58,37,108
2,note_on,60,0,12
2,note_on,56,36,108
2,note_on,58,0,12
2,note_on,55,36,108
2,note_on,56,0,12
2,note_on,53,35,108
2,note_on,55,0,12
2,note_on,51,35,108
2,note_on,53,0,12
2,note_on,49,34,108
2,note_on,51,0,12
2,note_on,48,33,108
2,note_on,49,0,12
2,note_on,46,33,108
2,note_on,48,0,12
2,note_on,44,32,108
2,note_on,46,0,12
2,note_on,43,32,108
2,note_on,44,0,12
2,note_on,44,31,108
2,note_on,43,0,12
2,note_on,46,30,108
2,note_on,44,0,12
2,note_on,48,32,108
2,note_on,46,0,12
2,note_on,49,32,108
2,note_on,48,0,12
2,note_on,51,33,108
2,note_on,49,0,12
2,note_on,53,33,108
2,note_on,51,0,12
2,note_on,55,34,108
2,note_on,53,0,12
2,note_on,56,35,108
2,note_on,55,0,12
2,note_on,58,35,108
2,note_on,56,0,12
2,note_on,60,36,108
2,note_on,58,0,12
2,note_on,61,36,108
2,note_on,60,0,12
2,note_on,63,37,108
2,note_on,61,0,12
2,note_on,65,37,108
2,note_on,63,0,12
2,note_on,67,39,108
2,note_on,65,0,12
2,note_on,68,39,108
2,note_on,67,0,12
2,note_on,70,40,108
2,note_on,68,0,12
2,note_on,72,41,108
2,note_on,70,0,12
2,note_on,73,42,108
2,note_on,72,0,12
2,note_on,75,43,108
2,note_on,73,0,12
2,note_on,77,44,108
2,note_on,75,0,12
2,note_on,75,44,108
2,note_on,77,0,12
2,note_on,73,42,108
2,note_on,75,0,12
2,note_on,72,42,108
2,note_on,73,0,12
2,note_on,70,40,108
2,note_on,72,0,12
2,note_on,68,39,108
2,note_on,70,0,12
2,note_on,67,38,108
2,note_on,68,0,12
2,note_on,65,37,108
2,note_on,67,0,12
2,note_on,63,36,108
2,note_on,65,0,12
2,note_on,61,35,108
2,note_on,63,0,12
2,note_on,60,33,108
2,note_on,61,0,12
2,note_on,58,32,108
2,note_on,60,0,12
2,note_on,56,34,108
2,note_on,58,0,12
2,note_on,56,0,228
2,note_on,56,56,0
2,note_on,59,49,120
2,note_on,56,0,12
2,note_on,63,56,108
2,note_on,59,0,12
2,note_on,61,54,108
2,note_on,63,0,12
2,note_on,59,54,108
2,note_on,61,0,12
2,note_on,58,53,108
2,note_on,59,0,12
2,note_on,56,52,108
2,note_on,58,0,12
2,note_on,54,52,108
2,note_on,56,0,12
2,note_on,52,51,108
2,note_on,54,0,12
2,note_on,51,50,108
2,note_on,52,0,12
2,note_on,49,49,108
2,note_on,51,0,12
2,note_on,47,48,108
2,note_on,49,0,12
2,note_on,46,48,108
2,note_on,47,0,12
2,note_on,44,47,108
2,note_on,46,0,12
2,note_on,43,46,108
2,note_on,44,0,12
2,note_on,44,45,108
2,note_on,43,0,12
2,note_on,46,44,108
2,note_on,44,0,12
2,note_on,47,46,108
2,note_on,46,0,12
2,note_on,49,47,108
2,note_on,47,0,12
2,note_on,51,48,108
2,note_on,49,0,12
2,note_on,53,48,108
2,note_on,51,0,12
2,note_on,55,49,108
2,note_on,53,0,12
2,note_on,56,50,108
2,note_on,55,0,12
2,note_on,58,55,108
2,note_on,56,0,12
2,note_on,59,56,108
2,note_on,58,0,12
2,note_on,61,57,108
2,note_on,59,0,12
2,note_on,63,59,108
2,note_on,61,0,12
2,note_on,65,60,108
2,note_on,63,0,12
2,note_on,67,62,108
2,note_on,65,0,12
2,note_on,68,60,108
2,note_on,67,0,12
2,note_on,70,63,108
2,note_on,68,0,12
2,note_on,71,65,108
2,note_on,70,0,12
2,note_on,73,68,108
2,note_on,71,0,12
2,note_on,75,71,108
2,note_on,73,0,12
2,note_on,76,73,108
2,note_on,75,0,12
2,note_on,74,74,108
2,note_on,76,0,12
2,note_on,73,73,108
2,note_on,74,0,12
2,note_on,71,72,108
2,note_on,73,0,12
2,note_on,69,70,108
2,note_on,71,0,12
2,note_on,68,69,108
2,note_on,69,0,12
2,note_on,66,68,108
2,note_on,68,0,12
2,note_on,64,66,108
2,note_on,66,0,12
2,note_on,62,65,108
2,note_on,64,0,12
2,note_on,61,64,108
2,note_on,62,0,12
2,note_on,59,62,108
2,note_on,61,0,12
2,note_on,57,61,108
2,note_on,59,0,12
2,note_on,56,60,108
2,note_on,57,0,12
2,note_on,54,58,108
2,note_on,56,0,12
2,note_on,52,57,108
2,note_on,54,0,12
2,note_on,50,56,108
2,note_on,52,0,12
2,note_on,49,54,108
2,note_on,50,0,12
2,note_on,47,53,108
2,note_on,49,0,12
2,note_on,45,58,108
2,note_on,47,0,12
2,note_on,44,60,108
2,note_on,45,0,12
2,note_on,42,62,108
2,note_on,44,0,12
2,note_on,40,64,108
2,note_on,42,0,12
2,note_on,38,66,108
2,note_on,40,0,12
2,note_on,37,67,69
2,note_on,38,0,8
2,note_on,35,68,71
2,note_on,37,0,9
2,note_on,35,0,71
2,note_on,33,66,0
2,note_on,33,0,720
2,note_on,33,56,0
2,note_on,45,66,0
2,note_on,45,0,720
2,note_on,33,0,0
2,note_on,45,62,0
2,note_on,33,52,0
2,note_on,33,0,720
2,note_on,45,0,0
2,note_on,45,62,0
2,note_on,33,52,0
2,note_on,33,0,720
2,note_on,45,0,0
2,note_on,33,54,0
2,note_on,45,64,0
2,note_on,45,0,720
2,note_on,33,0,0
2,note_on,49,54,0
2,note_on,52,64,0
2,note_on,45,54,0
2,note_on,45,0,720
2,note_on,52,0,0
2,note_on,49,0,0
2,note_on,57,64,0
2,note_on,52,54,0
2,note_on,49,54,0
2,note_on,45,54,0
2,note_on,45,0,720
2,note_on,57,0,0
2,note_on,52,0,0
2,note_on,49,0,0
2,note_on,52,43,0
2,note_on,56,43,0
2,note_on,59,51,0
2,note_on,59,0,720
2,note_on,56,0,0
2,note_on,52,0,0
2,note_on,51,43,0
2,note_on,56,28,480
2,note_on,60,34,0
2,note_on,60,0,120
2,note_on,56,0,0
2,note_on,51,0,120
2,note_on,51,43,0
2,note_on,63,34,480
2,note_on,60,28,0
2,note_on,60,0,120
2,note_on,63,0,0
2,note_on,51,0,120
2,note_on,51,43,0
2,note_on,58,28,480
2,note_on,61,34,0
2,note_on,61,0,120
2,note_on,58,0,0
2,note_on,51,0,120
2,note_on,51,43,0
2,note_on,55,28,480
2,note_on,58,34,0
2,note_on,58,0,120
2,note_on,55,0,0
2,note_on,51,0,120
2,note_on,51,43,0
2,note_on,56,28,480
2,note_on,60,34,0
2,note_on,60,0,120
2,note_on,56,0,0
2,note_on,51,0,120
2,note_on,51,43,0
2,note_on,60,28,480
2,note_on,63,34,0
2,note_on,63,0,120
2,note_on,60,0,0
2,note_on,51,0,120
2,note_on,51,56,0
2,note_on,61,44,480
2,note_on,58,37,0
2,note_on,58,0,120
2,note_on,61,0,0
2,note_on,51,0,120
2,note_on,51,56,0
2,note_on,55,37,480
2,note_on,58,44,0
2,note_on,58,0,120
2,note_on,55,0,0
2,note_on,51,0,120
2,note_on,51,56,0
2,note_on,60,44,480
2,note_on,56,37,0
2,note_on,56,0,120
2,note_on,60,0,0
2,note_on,51,0,120
2,note_on,48,56,0
2,note_on,51,37,480
2,note_on,57,37,0
2,note_on,54,37,0
2,note_on,60,44,0
2,note_on,60,0,120
2,note_on,57,0,0
2,note_on,54,0,0
2,note_on,51,0,0
2,note_on,48,0,120
2,note_on,49,56,0
2,note_on,53,37,480
2,note_on,58,37,0
2,note_on,61,44,0
2,note_on,61,0,120
2,note_on,58,0,0
2,note_on,53,0,0
2,note_on,49,0,120
2,note_on,51,56,0
2,note_on,55,37,480
2,note_on,58,44,0
2,note_on,58,0,120
2,note_on,55,0,0
2,note_on,51,0,120
2,note_on,40,40,0
2,note_on,40,0,480
2,note_on,52,27,0
2,note_on,60,32,0
2,note_on,55,27,0
2,note_on,55,0,120
2,note_on,60,0,0
2,note_on,52,0,0
2,note_on,40,40,120
2,note_on,40,0,480
2,note_on,60,32,0
2,note_on,55,27,0
2,note_on,52,27,0
2,note_on,52,0,120
2,note_on,55,0,0
2,note_on,60,0,0
2,note_on,40,40,120
2,note_on,40,0,480
2,note_on,60,32,0
2,note_on,52,27,0
2,note_on,55,27,0
2,note_on,55,0,120
2,note_on,52,0,0
2,note_on,60,0,0
2,note_on,40,40,120
2,note_on,40,0,480
2,note_on,55,27,0
2,note_on,52,27,0
2,note_on,60,32,0
2,note_on,60,0,120
2,note_on,52,0,0
2,note_on,55,0,0
2,note_on,39,43,120
2,note_on,39,0,480
2,note_on,51,27,0
2,note_on,60,27,0
2,note_on,56,27,0
2,note_on,56,0,960
2,note_on,60,0,0
2,note_on,61,32,0
2,note_on,58,27,0
2,note_on,58,0,1440
2,note_on,61,0,0
2,note_on,51,0,0
2,note_on,40,48,0
2,note_on,40,0,240
2,note_on,60,38,240
2,note_on,52,32,0
2,note_on,55,32,0
2,note_on,55,0,120
2,note_on,52,0,0
2,note_on,60,0,0
2,note_on,40,48,120
2,note_on,40,0,240
2,note_on,55,32,240
2,note_on,52,32,0
2,note_on,60,38,0
2,note_on,60,0,120
2,note_on,52,0,0
2,note_on,55,0,0
2,note_on,40,48,120
2,note_on,40,0,240
2,note_on,60,38,240
2,note_on,52,32,0
2,note_on,55,32,0
2,note_on,55,0,120
2,note_on,52,0,0
2,note_on,60,0,0
2,note_on,40,48,120
2,note_on,40,0,240
2,note_on,60,38,240
2,note_on,52,32,0
2,note_on,55,32,0
2,note_on,55,0,120
2,note_on,52,0,0
2,note_on,60,0,0
2,note_on,39,51,120
2,note_on,39,0,240
2,note_on,56,32,240
2,note_on,51,32,0
2,note_on,60,32,0
2,note_on,60,0,960
2,note_on,56,0,0
2,note_on,55,32,0
2,note_on,61,38,0
2,note_on,61,0,1440
2,note_on,55,0,0
2,note_on,51,0,0
2,note_on,40,57,0
2,note_on,40,0,480
2,note_on,52,38,0
2,note_on,60,45,0
2,note_on,55,38,0
2,note_on,55,0,120
2,note_on,60,0,0
2,note_on,52,0,0
2,note_on,40,57,120
2,note_on,40,0,480
2,note_on,55,38,0
2,note_on,60,45,0
2,note_on,52,38,0
2,note_on,52,0,120
2,note_on,60,0,0
2,note_on,55,0,0
2,note_on,40,57,120
2,note_on,40,0,480
2,note_on,60,45,0
2,note_on,52,38,0
2,note_on,55,38,0
2,note_on,55,0,120
2,note_on,52,0,0
2,note_on,60,0,0
2,note_on,40,57,120
2,note_on,40,0,480
2,note_on,60,45,0
2,note_on,52,38,0
2,note_on,55,38,0
2,note_on,55,0,120
2,note_on,52,0,0
2,note_on,60,0,0
2,note_on,43,61,120
2,note_on,43,0,480
2,note_on,60,38,0
2,note_on,52,38,0
2,note_on,55,38,0
2,note_on,55,0,960
2,note_on,52,0,0
2,note_on,60,0,0
2,note_on,53,38,0
2,note_on,59,45,0
2,note_on,55,38,0
2,note_on,55,0,1440
2,note_on,59,0,0
2,note_on,53,0,0
2,note_on,39,67,0
2,note_on,39,0,240
2,note_on,60,61,240
2,note_on,51,51,0
2,note_on,56,51,0
2,note_on,56,0,960
2,note_on,60,0,0
2,note_on,55,51,0
2,note_on,61,61,0
2,note_on,58,51,0
2,note_on,58,0,1200
2,note_on,61,0,0
2,note_on,51,0,0
2,note_on,55,0,240
2,note_on,44,83,0
2,note_on,44,0,240
2,note_on,56,61,0
2,note_on,60,53,120
2,note_on,56,0,12
2,note_on,63,61,108
2,note_on,60,0,12
2,note_on,61,59,108
2,note_on,63,0,12
2,note_on,60,59,108
2,note_on,61,0,12
2,note_on,58,58,108
2,note_on,60,0,12
2,note_on,56,57,108
2,note_on,58,0,12
2,note_on,55,57,108
2,note_on,56,0,12
2,note_on,53,56,108
2,note_on,55,0,12
2,note_on,51,55,108
2,note_on,53,0,12
2,note_on,49,53,108
2,note_on,51,0,12
2,note_on,48,52,108
2,note_on,49,0,12
2,note_on,46,52,108
2,note_on,48,0,12
2,note_on,44,51,108
2,note_on,46,0,12
2,note_on,43,50,108
2,note_on,44,0,12
2,note_on,41,49,108
2,note_on,43,0,12
2,note_on,39,48,108
2,note_on,41,0,12
2,note_on,41,50,108
2,note_on,39,0,12
2,note_on,39,53,108
2,note_on,41,0,12
2,note_on,37,55,108
2,note_on,39,0,12
2,note_on,36,57,108
2,note_on,37,0,12
2,note_on,34,59,108
2,note_on,36,0,12
2,note_on,32,62,108
2,note_on,34,0,12
2,note_on,32,0,108
2,note_on,36,53,0
2,note_on,36,0,120
2,note_on,32,62,0
2,note_on,32,0,120
2,note_on,36,52,0
2,note_on,36,0,120
2,note_on,39,58,0
2,note_on,39,0,120
2,note_on,32,62,120
2,note_on,32,0,120
2,note_on,36,53,0
2,note_on,36,0,120
2,note_on,32,62,0
2,note_on,32,0,120
2,note_on,36,52,0
2,note_on,36,0,120
2,note_on,39,58,0
2,note_on,39,0,120
2,note_on,32,62,120
2,note_on,32,0,120
2,note_on,36,53,0
2,note_on,36,0,120
2,note_on,32,62,0
2,note_on,32,0,120
2,note_on,36,52,0
2,note_on,36,0,120
2,note_on,39,58,0
2,note_on,39,0,120
2,note_on,32,62,120
2,note_on,32,0,120
2,note_on,36,53,0
2,note_on,36,0,120
2,note_on,32,62,0
2,note_on,32,0,120
2,note_on,36,52,0
2,note_on,36,0,120
2,note_on,39,58,0
2,note_on,39,0,120
2,note_on,32,55,120
2,note_on,32,0,240
2,note_on,58,45,3480
2,note_on,56,45,120
2,note_on,58,0,12
2,note_on,55,44,108
2,note_on,56,0,12
2,note_on,53,44,108
2,note_on,55,0,12
2,note_on,51,43,108
2,note_on,53,0,12
2,note_on,49,43,108
2,note_on,51,0,12
2,note_on,48,42,108
2,note_on,49,0,12
2,note_on,46,41,108
2,note_on,48,0,12
2,note_on,44,41,108
2,note_on,46,0,12
2,note_on,43,40,108
2,note_on,44,0,12
2,note_on,44,40,108
2,note_on,43,0,12
2,note_on,46,40,108
2,note_on,44,0,12
2,note_on,48,41,108
2,note_on,46,0,12
2,note_on,49,41,108
2,note_on,48,0,12
2,note_on,51,42,108
2,note_on,49,0,12
2,note_on,53,43,108
2,note_on,51,0,12
2,note_on,55,44,108
2,note_on,53,0,12
2,note_on,56,45,108
2,note_on,55,0,12
2,note_on,58,46,108
2,note_on,56,0,12
2,note_on,58,0,108
2,note_on,43,70,1200
2,note_on,43,0,120
2,note_on,46,55,0
2,note_on,46,0,120
2,note_on,43,65,0
2,note_on,43,0,120
2,note_on,46,56,0
2,note_on,46,0,120
2,note_on,49,65,0
2,note_on,49,0,120
2,note_on,43,71,120
2,note_on,43,0,120
2,note_on,46,54,0
2,note_on,46,0,120
2,note_on,43,63,0
2,note_on,43,0,120
2,note_on,46,54,0
2,note_on,46,0,120
2,note_on,49,66,0
2,note_on,49,0,120
2,note_on,43,71,120
2,note_on,43,0,120
2,note_on,46,62,0
2,note_on,46,0,120
2,note_on,43,66,0
2,note_on,43,0,120
2,note_on,46,54,0
2,note_on,46,0,120
2,note_on,49,65,0
2,note_on,49,0,120
2,note_on,55,70,5160
2,note_on,55,0,120
2,note_on,58,55,0
2,note_on,58,0,120
2,note_on,55,65,0
2,note_on,55,0,120
2,note_on,58,56,0
2,note_on,58,0,120
2,note_on,61,65,0
2,note_on,61,0,120
2,note_on,55,71,120
2,note_on,55,0,120
2,note_on,58,54,0
2,note_on,58,0,120
2,note_on,55,63,0
2,note_on,55,0,120
2,note_on,58,54,0
2,note_on,58,0,120
2,note_on,61,66,0
2,note_on,61,0,120
2,note_on,55,71,120
2,note_on,55,0,120
2,note_on,58,62,0
2,note_on,58,0,120
2,note_on,55,66,0
2,note_on,55,0,120
2,note_on,58,54,0
2,note_on,58,0,120
2,note_on,61,65,0
2,note_on,61,0,120
2,note_on,64,42,3720
2,note_on,64,0,120
2,note_on,67,33,0
2,note_on,67,0,120
2,note_on,64,39,0
2,note_on,64,0,120
2,note_on,67,33,0
2,note_on,67,0,120
2,note_on,70,39,0
2,note_on,70,0,120
2,note_on,64,42,120
2,note_on,64,0,120
2,note_on,67,32,0
2,note_on,67,0,120
2,note_on,64,37,0
2,note_on,64,0,120
2,note_on,67,32,0
2,note_on,67,0,120
2,note_on,70,39,0
2,note_on,70,0,120
2,note_on,72,42,3720
2,note_on,72,0,120
2,note_on,79,33,0
2,note_on,79,0,120
2,note_on,72,39,0
2,note_on,72,0,120
2,note_on,79,33,0
2,note_on,79,0,120
2,note_on,82,39,0
2,note_on,82,0,120
2,note_on,72,42,120
2,note_on,72,0,120
2,note_on,79,32,0
2,note_on,79,0,120
2,note_on,72,37,0
2,note_on,72,0,120
2,note_on,79,32,0
2,note_on,79,0,120
2,note_on,82,39,0
2,note_on,82,0,120
2,note_on,60,35,1560
2,note_on,60,0,120
2,note_on,68,28,0
2,note_on,68,0,120
2,note_on,60,33,0
2,note_on,60,0,120
2,note_on,68,28,0
2,note_on,68,0,120
2,note_on,71,33,0
2,note_on,71,0,120
2,note_on,60,35,120
2,note_on,60,0,120
2,note_on,68,27,0
2,note_on,68,0,120
2,note_on,60,31,0
2,note_on,60,0,120
2,note_on,68,27,0
2,note_on,68,0,120
2,note_on,71,33,0
2,note_on,71,0,120
2,note_on,48,28,1560
2,note_on,48,0,120
2,note_on,55,22,0
2,note_on,55,0,120
2,note_on,48,26,0
2,note_on,48,0,120
2,note_on,55,22,0
2,note_on,55,0,120
2,note_on,60,26,0
2,note_on,60,0,240
2,note_on,48,28,0
2,note_on,48,0,120
2,note_on,55,21,0
2,note_on,55,0,120
2,note_on,48,24,0
2,note_on,48,0,120
2,note_on,55,21,0
2,note_on,55,0,120
2,note_on,60,26,0
2,note_on,60,0,240
2,note_on,48,47,1440
2,note_on,48,0,60
2,note_on,60,39,180
2,note_on,60,0,60
2,note_on,48,47,180
2,note_on,48,0,60
2,note_on,60,39,180
2,note_on,60,0,60
2,note_on,48,47,180
2,note_on,48,0,60
2,note_on,60,43,180
2,note_on,60,0,60
2,note_on,52,35,180
2,note_on,48,29,0
2,note_on,48,0,60
2,note_on,52,0,0
2,note_on,60,30,180
2,note_on,60,0,60
2,note_on,52,30,180
2,note_on,48,25,0
2,note_on,48,0,60
2,note_on,52,0,0
2,note_on,60,35,180
2,note_on,60,0,60
2,note_on,52,31,180
2,note_on,48,26,0
2,note_on,48,0,60
2,note_on,52,0,0
2,note_on,60,31,180
2,note_on,60,0,60
2,note_on,49,29,180
2,note_on,53,35,0
2,note_on,53,0,60
2,note_on,49,0,0
2,note_on,60,30,180
2,note_on,60,0,60
2,note_on,53,30,180
2,note_on,49,25,0
2,note_on,49,0,60
2,note_on,53,0,0
2,note_on,60,35,180
2,note_on,60,0,60
2,note_on,49,26,180
2,note_on,53,31,0
2,note_on,53,0,60
2,note_on,49,0,0
2,note_on,60,31,180
2,note_on,60,0,60
2,note_on,55,35,180
2,note_on,52,29,0
2,note_on,52,0,60
2,note_on,55,0,0
2,note_on,60,30,180
2,note_on,60,0,60
2,note_on,52,25,180
2,note_on,55,30,0
2,note_on,55,0,60
2,note_on,52,0,0
2,note_on,56,35,180
2,note_on,53,29,0
2,note_on,53,0,60
2,note_on,56,0,0
2,note_on,60,30,180
2,note_on,60,0,60
2,note_on,53,25,180
2,note_on,56,30,0
2,note_on,56,0,60
2,note_on,53,0,0
2,note_on,58,33,180
2,note_on,55,28,0
2,note_on,55,0,60
2,note_on,58,0,0
2,note_on,55,30,180
2,note_on,58,30,0
2,note_on,60,36,0
2,note_on,60,0,60
2,note_on,58,0,0
2,note_on,55,0,0
2,note_on,55,34,180
2,note_on,61,40,0
2,note_on,58,34,0
2,note_on,58,0,60
2,note_on,61,0,0
2,note_on,55,0,0
2,note_on,55,36,180
2,note_on,58,36,0
2,note_on,62,43,0
2,note_on,62,0,60
2,note_on,58,0,0
2,note_on,55,0,0
2,note_on,63,40,180
2,note_on,55,34,0
2,note_on,58,34,0
2,note_on,58,0,60
2,note_on,55,0,0
2,note_on,63,0,0
2,note_on,55,32,180
2,note_on,64,38,0
2,note_on,58,32,0
2,note_on,58,0,60
2,note_on,64,0,0
2,note_on,55,0,0
2,note_on,53,35,180
2,note_on,53,0,60
2,note_on,60,25,180
2,note_on,65,30,0
2,note_on,56,25,0
2,note_on,56,0,60
2,note_on,65,0,0
2,note_on,60,0,0
2,note_on,53,30,180
2,note_on,53,0,60
2,note_on,60,29,180
2,note_on,65,35,0
2,note_on,56,29,0
2,note_on,56,0,60
2,note_on,65,0,0
2,note_on,60,0,0
2,note_on,53,31,180
2,note_on,53,0,60
2,note_on,65,31,180
2,note_on,60,26,0
2,note_on,56,26,0
2,note_on,56,0,60
2,note_on,60,0,0
2,note_on,65,0,0
2,note_on,53,35,180
2,note_on,53,0,60
2,note_on,62,31,180
2,note_on,59,26,0
2,note_on,56,26,0
2,note_on,56,0,60
2,note_on,59,0,0
2,note_on,62,0,0
2,note_on,53,31,180
2,note_on,53,0,60
2,note_on,48,35,180
2,note_on,48,0,60
2,note_on,60,32,180
2,note_on,52,27,0
2,note_on,55,27,0
2,note_on,55,0,60
2,note_on,52,0,0
2,note_on,60,0,0
2,note_on,48,32,180
2,note_on,48,0,60
2,note_on,60,35,180
2,note_on,55,29,0
2,note_on,52,29,0
2,note_on,52,0,60
2,note_on,55,0,0
2,note_on,60,0,0
2,note_on,48,31,180
2,note_on,48,0,60
2,note_on,55,26,180
2,note_on,52,26,0
2,note_on,60,31,0
2,note_on,60,0,60
2,note_on,52,0,0
2,note_on,55,0,0
2,note_on,49,35,180
2,note_on,49,0,60
2,note_on,53,26,180
2,note_on,61,31,0
2,note_on,61,0,60
2,note_on,53,0,0
2,note_on,49,31,180
2,note_on,49,0,60
2,note_on,46,35,180
2,note_on,46,0,240
2,note_on,55,28,0
2,note_on,58,33,0
2,note_on,58,0,240
2,note_on,55,0,0
2,note_on,48,28,0
2,note_on,58,33,0
2,note_on,55,28,0
2,note_on,55,0,120
2,note_on,58,0,0
2,note_on,48,0,0
2,note_on,53,34,120
2,note_on,56,40,0
2,note_on,56,0,480
2,note_on,53,0,0
2,note_on,53,35,240
2,note_on,53,0,60
2,note_on,60,25,180
2,note_on,56,25,0
2,note_on,65,30,0
2,note_on,65,0,60
2,note_on,56,0,0
2,note_on,60,0,0
2,note_on,53,30,180
2,note_on,53,0,60
2,note_on,65,35,180
2,note_on,56,29,0
2,note_on,60,29,0
2,note_on,60,0,60
2,note_on,56,0,0
2,note_on,65,0,0
2,note_on,53,31,180
2,note_on,53,0,60
2,note_on,56,26,180
2,note_on,60,26,0
2,note_on,65,31,0
2,note_on,65,0,60
2,note_on,60,0,0
2,note_on,56,0,0
2,note_on,53,35,180
2,note_on,53,0,60
2,note_on,59,26,180
2,note_on,62,31,0
2,note_on,56,26,0
2,note_on,56,0,60
2,note_on,62,0,0
2,note_on,59,0,0
2,note_on,53,31,180
2,note_on,53,0,60
2,note_on,48,35,180
2,note_on,48,0,60
2,note_on,52,27,180
2,note_on,60,32,0
2,note_on,55,27,0
2,note_on,55,0,60
2,note_on,60,0,0
2,note_on,52,0,0
2,note_on,48,32,180
2,note_on,48,0,60
2,note_on,52,29,180
2,note_on,60,35,0
2,note_on,55,29,0
2,note_on,55,0,60
2,note_on,60,0,0
2,note_on,52,0,0
2,note_on,48,31,180
2,note_on,48,0,60
2,note_on,60,31,180
2,note_on,52,26,0
2,note_on,55,26,0
2,note_on,55,0,60
2,note_on,52,0,0
2,note_on,60,0,0
2,note_on,49,35,180
2,note_on,49,0,60
2,note_on,61,31,180
2,note_on,53,26,0
2,note_on,53,0,60
2,note_on,61,0,0
2,note_on,49,31,180
2,note_on,49,0,60
2,note_on,46,35,180
2,note_on,46,0,240
2,note_on,58,33,0
2,note_on,55,28,0
2,note_on,55,0,240
2,note_on,58,0,0
2,note_on,55,28,0
2,note_on,48,28,0
2,note_on,58,33,0
2,note_on,58,0,240
2,note_on,48,0,0
2,note_on,55,0,0
2,note_on,56,40,0
2,note_on,53,34,0
2,note_on,53,0,480
2,note_on,56,0,0
2,note_on,36,60,240
2,note_on,36,0,60
2,note_on,48,55,180
2,note_on,48,0,60
2,note_on,36,60,180
2,note_on,36,0,60
2,note_on,48,53,180
2,note_on,48,0,60
2,note_on,36,60,180
2,note_on,36,0,60
2,note_on,48,52,180
2,note_on,48,0,60
2,note_on,36,49,180
2,note_on,36,0,60
2,note_on,48,43,180
2,note_on,48,0,60
2,note_on,36,43,180
2,note_on,36,0,60
2,note_on,48,43,180
2,note_on,48,0,60
2,note_on,36,41,180
2,note_on,36,0,60
2,note_on,48,43,180
2,note_on,48,0,60
2,note_on,36,60,180
2,note_on,36,0,60
2,note_on,48,55,180
2,note_on,48,0,60
2,note_on,36,60,180
2,note_on,36,0,240
2,note_on,37,60,0
2,note_on,37,0,240
2,note_on,49,49,0
2,note_on,49,0,60
2,note_on,37,57,180
2,note_on,37,0,60
2,note_on,36,49,180
2,note_on,36,0,60
2,note_on,48,43,180
2,note_on,48,0,60
2,note_on,36,43,180
2,note_on,36,0,60
2,note_on,41,43,180
2,note_on,41,0,240
2,note_on,48,60,480
2,note_on,48,0,60
2,note_on,60,55,180
2,note_on,60,0,60
2,note_on,48,60,180
2,note_on,48,0,60
2,note_on,60,53,180
2,note_on,60,0,60
2,note_on,48,60,180
2,note_on,48,0,60
2,note_on,60,52,180
2,note_on,60,0,60
2,note_on,59,49,180
2,note_on,59,0,60
2,note_on,47,43,180
2,note_on,47,0,60
2,note_on,59,43,180
2,note_on,59,0,60
2,note_on,60,43,180
2,note_on,60,0,60
2,note_on,48,41,180
2,note_on,48,0,60
2,note_on,60,43,180
2,note_on,60,0,60
2,note_on,48,60,180
2,note_on,48,0,60
2,note_on,60,55,180
2,note_on,60,0,60
2,note_on,48,60,180
2,note_on,48,0,240
2,note_on,49,60,0
2,note_on,49,0,240
2,note_on,61,49,0
2,note_on,61,0,60
2,note_on,49,57,180
2,note_on,49,0,60
2,note_on,61,49,180
2,note_on,61,0,60
2,note_on,49,43,180
2,note_on,49,0,60
2,note_on,61,43,180
2,note_on,61,0,60
2,note_on,49,43,180
2,note_on,49,0,120
2,note_on,61,43,120
2,note_on,61,0,120
2,note_on,49,43,120
2,note_on,49,0,120
2,note_on,61,43,120
2,note_on,61,0,120
2,note_on,49,43,120
2,note_on,49,0,120
2,note_on,61,44,120
2,note_on,61,0,120
2,note_on,49,45,120
2,note_on,49,0,120
2,note_on,61,50,120
2,note_on,61,0,120
2,note_on,49,51,120
2,note_on,49,0,120
2,note_on,48,51,120
2,note_on,48,0,120
2,note_on,60,53,120
2,note_on,60,0,120
2,note_on,48,57,120
2,note_on,48,0,120
2,note_on,53,60,120
2,note_on,53,0,120
2,note_on,53,51,120
2,note_on,64,61,0
2,note_on,61,51,0
2,note_on,58,51,0
2,note_on,58,0,1200
2,note_on,53,0,0
2,note_on,64,0,0
2,note_on,61,0,0
2,note_on,60,52,0
2,note_on,53,52,0
2,note_on,65,62,0
2,note_on,56,52,0
2,note_on,56,0,120
2,note_on,60,0,0
2,note_on,53,0,0
2,note_on,65,0,0
2,note_on,61,51,120
2,note_on,53,51,0
2,note_on,58,51,0
2,note_on,64,61,0
2,note_on,64,0,1200
2,note_on,61,0,0
2,note_on,53,0,0
2,note_on,58,0,0
2,note_on,56,52,0
2,note_on,53,52,0
2,note_on,65,62,0
2,note_on,60,52,0
2,note_on,60,0,120
2,note_on,56,0,0
2,note_on,53,0,0
2,note_on,65,0,0
2,note_on,64,61,120
2,note_on,58,51,0
2,note_on,53,51,0
2,note_on,61,51,0
2,note_on,61,0,1200
2,note_on,64,0,0
2,note_on,58,0,0
2,note_on,53,0,0
2,note_on,60,52,0
2,note_on,53,52,0
2,note_on,65,62,0
2,note_on,56,52,0
2,note_on,56,0,120
2,note_on,60,0,0
2,note_on,53,0,0
2,note_on,65,0,0
2,note_on,61,51,120
2,note_on,64,61,0
2,note_on,53,51,0
2,note_on,58,51,0
2,note_on,58,0,1920
2,note_on,61,0,0
2,note_on,64,0,0
2,note_on,53,0,0
2,note_on,53,35,0
2,note_on,53,0,60
2,note_on,56,25,180
2,note_on,60,25,0
2,note_on,65,30,0
2,note_on,65,0,60
2,note_on,60,0,0
2,note_on,56,0,0
2,note_on,53,30,180
2,note_on,53,0,60
2,note_on,65,35,180
2,note_on,60,29,0
2,note_on,56,29,0
2,note_on,56,0,60
2,note_on,60,0,0
2,note_on,65,0,0
2,note_on,53,31,180
2,note_on,53,0,60
2,note_on,65,31,180
2,note_on,56,26,0
2,note_on,60,26,0
2,note_on,60,0,60
2,note_on,56,0,0
2,note_on,65,0,0
2,note_on,53,35,180
2,note_on,53,0,60
2,note_on,62,31,180
2,note_on,59,26,0
2,note_on,56,26,0
2,note_on,56,0,60
2,note_on,59,0,0
2,note_on,62,0,0
2,note_on,53,31,180
2,note_on,53,0,60
2,note_on,48,35,180
2,note_on,48,0,60
2,note_on,52,27,180
2,note_on,60,32,0
2,note_on,55,27,0
2,note_on,55,0,60
2,note_on,60,0,0
2,note_on,52,0,0
2,note_on,48,32,180
2,note_on,48,0,60
2,note_on,60,35,180
2,note_on,52,29,0
2,note_on,55,29,0
2,note_on,55,0,60
2,note_on,52,0,0
2,note_on,60,0,0
2,note_on,48,31,180
2,note_on,48,0,60
2,note_on,60,31,180
2,note_on,52,26,0
2,note_on,55,26,0
2,note_on,55,0,60
2,note_on,52,0,0
2,note_on,60,0,0
2,note_on,49,35,180
2,note_on,49,0,60
2,note_on,61,31,180
2,note_on,53,26,0
2,note_on,53,0,60
2,note_on,61,0,0
2,note_on,49,31,180
2,note_on,49,0,60
2,note_on,46,35,180
2,note_on,46,0,240
2,note_on,58,33,0
2,note_on,55,28,0
2,note_on,55,0,240
2,note_on,58,0,0
2,note_on,48,28,0
2,note_on,58,33,0
2,note_on,55,28,0
2,note_on,55,0,120
2,note_on,58,0,0
2,note_on,48,0,0
2,note_on,56,40,120
2,note_on,53,34,0
2,note_on,53,0,480
2,note_on,56,0,0
2,note_on,53,35,240
2,note_on,53,0,60
2,note_on,65,30,180
2,note_on,56,25,0
2,note_on,60,25,0
2,note_on,60,0,60
2,note_on,56,0,0
2,note_on,65,0,0
2,note_on,53,30,180
2,note_on,53,0,60
2,note_on,65,35,180
2,note_on,56,29,0
2,note_on,60,29,0
2,note_on,60,0,60
2,note_on,56,0,0
2,note_on,65,0,0
2,note_on,53,31,180
2,note_on,53,0,60
2,note_on,65,31,180
2,note_on,60,26,0
2,note_on,56,26,0
2,note_on,56,0,60
2,note_on,60,0,0
2,note_on,65,0,0
2,note_on,53,35,180
2,note_on,53,0,60
2,note_on,62,31,180
2,note_on,56,26,0
2,note_on,59,26,0
2,note_on,59,0,60
2,note_on,56,0,0
2,note_on,62,0,0
2,note_on,53,31,180
2,note_on,53,0,60
2,note_on,48,35,180
2,note_on,48,0,60
2,note_on,55,27,180
2,note_on,52,27,0
2,note_on,60,32,0
2,note_on,60,0,60
2,note_on,52,0,0
2,note_on,55,0,0
2,note_on,48,32,180
2,note_on,48,0,60
2,note_on,52,29,180
2,note_on,55,29,0
2,note_on,60,35,0
2,note_on,60,0,60
2,note_on,55,0,0
2,note_on,52,0,0
2,note_on,48,31,180
2,note_on,48,0,60
2,note_on,52,26,180
2,note_on,55,26,0
2,note_on,60,31,0
2,note_on,60,0,60
2,note_on,55,0,0
2,note_on,52,0,0
2,note_on,49,35,180
2,note_on,49,0,60
2,note_on,53,26,180
2,note_on,61,31,0
2,note_on,61,0,60
2,note_on,53,0,0
2,note_on,49,31,180
2,note_on,49,0,60
2,note_on,50,35,180
2,note_on,50,0,60
2,note_on,62,31,180
2,note_on,58,31,0
2,note_on,58,0,60
2,note_on,62,0,0
2,note_on,50,31,180
2,note_on,50,0,60
2,note_on,51,39,180
2,note_on,51,0,60
2,note_on,58,33,180
2,note_on,63,33,0
2,note_on,63,0,60
2,note_on,58,0,0
2,note_on,51,33,180
2,note_on,51,0,60
2,note_on,48,41,180
2,note_on,48,0,60
2,note_on,60,32,180
2,note_on,60,0,60
2,note_on,48,31,180
2,note_on,48,0,60
2,note_on,47,40,180
2,note_on,47,0,60
2,note_on,59,36,180
2,note_on,59,0,60
2,note_on,47,36,180
2,note_on,47,0,60
2,note_on,46,51,180
2,note_on,46,0,60
2,note_on,53,36,180
2,note_on,58,36,0
2,note_on,62,43,0
2,note_on,62,0,60
2,note_on,58,0,0
2,note_on,53,0,0
2,note_on,46,57,180
2,note_on,46,0,60
2,note_on,53,39,180
2,note_on,62,46,0
2,note_on,58,39,0
2,note_on,58,0,60
2,note_on,62,0,0
2,note_on,53,0,0
2,note_on,46,55,180
2,note_on,46,0,60
2,note_on,53,40,180
2,note_on,58,40,0
2,note_on,62,48,0
2,note_on,62,0,60
2,note_on,58,0,0
2,note_on,53,0,0
2,note_on,46,61,180
2,note_on,46,0,60
2,note_on,54,39,180
2,note_on,57,39,0
2,note_on,63,47,0
2,note_on,63,0,60
2,note_on,57,0,0
2,note_on,54,0,0
2,note_on,46,60,180
2,note_on,46,0,60
2,note_on,57,48,180
2,note_on,63,57,0
2,note_on,54,48,0
2,note_on,54,0,60
2,note_on,63,0,0
2,note_on,57,0,0
2,note_on,46,46,180
2,note_on,46,0,60
2,note_on,63,45,180
2,note_on,57,38,0
2,note_on,54,38,0
2,note_on,54,0,60
2,note_on,57,0,0
2,note_on,63,0,0
2,note_on,46,51,180
2,note_on,46,0,60
2,note_on,58,36,180
2,note_on,53,36,0
2,note_on,62,43,0
2,note_on,62,0,60
2,note_on,53,0,0
2,note_on,58,0,0
2,note_on,46,57,180
2,note_on,46,0,60
2,note_on,62,46,180
2,note_on,58,39,0
2,note_on,53,39,0
2,note_on,53,0,60
2,note_on,58,0,0
2,note_on,62,0,0
2,note_on,46,55,180
2,note_on,46,0,60
2,note_on,58,40,180
2,note_on,53,40,0
2,note_on,62,48,0
2,note_on,62,0,60
2,note_on,53,0,0
2,note_on,58,0,0
2,note_on,46,61,180
2,note_on,46,0,60
2,note_on,57,39,180
2,note_on,54,39,0
2,note_on,63,47,0
2,note_on,63,0,60
2,note_on,54,0,0
2,note_on,57,0,0
2,note_on,46,60,180
2,note_on,46,0,60
2,note_on,54,48,180
2,note_on,57,48,0
2,note_on,63,57,0
2,note_on,63,0,60
2,note_on,57,0,0
2,note_on,54,0,0
2,note_on,46,46,180
2,note_on,46,0,60
2,note_on,57,38,180
2,note_on,54,38,0
2,note_on,63,45,0
2,note_on,63,0,60
2,note_on,54,0,0
2,note_on,57,0,0
2,note_on,46,51,180
2,note_on,46,0,60
2,note_on,53,36,180
2,note_on,58,36,0
2,note_on,62,43,0
2,note_on,62,0,60
2,note_on,58,0,0
2,note_on,53,0,0
2,note_on,44,57,180
2,note_on,44,0,60
2,note_on,56,46,180
2,note_on,56,0,60
2,note_on,43,55,180
2,note_on,43,0,60
2,note_on,55,48,180
2,note_on,55,0,60
2,note_on,48,51,180
2,note_on,48,0,60
2,note_on,60,43,180
2,note_on,60,0,60
2,note_on,46,57,180
2,note_on,46,0,60
2,note_on,58,46,180
2,note_on,58,0,60
2,note_on,43,55,180
2,note_on,43,0,60
2,note_on,55,48,180
2,note_on,55,0,60
2,note_on,44,57,180
2,note_on,44,0,60
2,note_on,56,49,180
2,note_on,56,0,60
2,note_on,34,57,180
2,note_on,34,0,60
2,note_on,46,46,180
2,note_on,46,0,60
2,note_on,36,64,180
2,note_on,36,0,60
2,note_on,48,58,180
2,note_on,48,0,60
2,note_on,29,58,180
2,note_on,41,65,0
2,note_on,41,0,120
2,note_on,29,0,0
2,note_on,61,51,120
2,note_on,53,51,0
2,note_on,64,61,0
2,note_on,58,51,0
2,note_on,58,0,1200
2,note_on,61,0,0
2,note_on,53,0,0
2,note_on,64,0,0
2,note_on,56,52,0
2,note_on,60,52,0
2,note_on,53,52,0
2,note_on,65,62,0
2,note_on,65,0,120
2,note_on,56,0,0
2,note_on,60,0,0
2,note_on,53,0,0
2,note_on,58,51,120
2,note_on,53,51,0
2,note_on,64,61,0
2,note_on,61,51,0
2,note_on,61,0,1200
2,note_on,58,0,0
2,note_on,53,0,0
2,note_on,64,0,0
2,note_on,60,52,0
2,note_on,56,52,0
2,note_on,65,62,0
2,note_on,53,52,0
2,note_on,53,0,120
2,note_on,60,0,0
2,note_on,56,0,0
2,note_on,65,0,0
2,note_on,64,61,120
2,note_on,58,51,0
2,note_on,53,51,0
2,note_on,61,51,0
2,note_on,61,0,1200
2,note_on,64,0,0
2,note_on,58,0,0
2,note_on,53,0,0
2,note_on,56,52,0
2,note_on,65,62,0
2,note_on,53,52,0
2,note_on,60,52,0
2,note_on,60,0,120
2,note_on,56,0,0
2,note_on,65,0,0
2,note_on,53,0,0
2,note_on,58,51,120
2,note_on,64,61,0
2,note_on,53,51,0
2,note_on,61,51,0
2,note_on,61,0,1200
2,note_on,58,0,0
2,note_on,64,0,0
2,note_on,53,0,0
2,note_on,60,72,0
2,note_on,53,61,0
2,note_on,56,61,0
2,note_on,56,0,60
2,note_on,53,0,0
2,note_on,60,0,0
2,note_on,44,35,5700
2,note_on,49,35,0
2,note_on,37,35,0
2,note_on,37,0,2880
2,note_on,49,0,0
2,note_on,44,0,0
2,note_on,36,35,0
2,note_on,44,35,0
2,note_on,48,35,0
2,note_on,48,0,2880
2,note_on,44,0,0
2,note_on,36,0,0
2,note_on,44,35,0
2,note_on,37,35,0
2,note_on,49,35,0
2,note_on,49,0,2880
2,note_on,37,0,0
2,note_on,44,0,0
2,note_on,48,35,0
2,note_on,44,35,0
2,note_on,36,35,0
2,note_on,44,0,720
2,note_on,45,41,0
2,note_on,45,0,720
2,note_on,44,35,0
2,note_on,44,0,1440
2,note_on,36,0,0
2,note_on,48,0,0
2,note_on,37,35,0
2,note_on,49,35,0
2,note_on,44,35,0
2,note_on,44,0,720
2,note_on,46,43,0
2,note_on,46,0,720
2,note_on,44,35,0
2,note_on,44,0,1440
2,note_on,49,0,0
2,note_on,37,0,0
2,note_on,36,35,0
2,note_on,41,35,0
2,note_on,48,35,0
2,note_on,41,0,720
2,note_on,42,41,0
2,note_on,42,0,720
2,note_on,41,35,0
2,note_on,41,0,1440
2,note_on,48,0,0
2,note_on,36,0,0
2,note_on,41,35,0
2,note_on,46,35,0
2,note_on,34,35,0
2,note_on,41,0,720
2,note_on,42,42,0
2,note_on,42,0,720
2,note_on,41,35,0
2,note_on,41,0,1440
2,note_on,34,0,0
2,note_on,46,0,0
2,note_on,46,35,0
2,note_on,58,35,0
2,note_on,58,0,1440
2,note_on,46,0,0
2,note_on,44,35,0
2,note_on,56,35,0
2,note_on,56,0,1440
2,note_on,44,0,0
2,note_on,50,44,0
2,note_on,38,44,0
2,note_on,38,0,2880
2,note_on,50,0,0
2,note_on,52,35,0
2,note_on,40,35,0
2,note_on,40,0,1440
2,note_on,52,0,0
2,note_on,53,35,0
2,note_on,41,35,0
2,note_on,41,0,1440
2,note_on,53,0,0
2,note_on,47,44,0
2,note_on,35,44,0
2,note_on,35,0,2880
2,note_on,47,0,0
2,note_on,36,36,0
2,note_on,48,36,0
2,note_on,48,0,2880
2,note_on,36,0,0
2,note_on,46,36,0
2,note_on,34,36,0
2,note_on,34,0,2160
2,note_on,46,0,0
2,note_on,47,31,0
2,note_on,35,31,0
2,note_on,35,0,720
2,note_on,47,0,0
2,note_on,36,36,0
2,note_on,48,36,0
2,note_on,48,0,2880
2,note_on,36,0,0
2,note_on,36,36,0
2,note_on,48,36,0
2,note_on,48,0,2880
2,note_on,36,0,0
2,note_on,41,80,1440
2,note_on,41,0,240
2,note_on,53,71,0
2,note_on,53,0,240
2,note_on,41,71,0
2,note_on,41,0,60
2,note_on,44,80,180
2,note_on,44,0,240
2,note_on,56,75,0
2,note_on,56,0,240
2,note_on,44,80,0
2,note_on,44,0,60
2,note_on,48,80,180
2,note_on,48,0,240
2,note_on,60,74,0
2,note_on,60,0,240
2,note_on,48,74,0
2,note_on,48,0,60
2,note_on,43,80,180
2,note_on,43,0,240
2,note_on,55,71,0
2,note_on,55,0,240
2,note_on,43,71,0
2,note_on,43,0,60
2,note_on,46,80,180
2,note_on,46,0,240
2,note_on,58,75,0
2,note_on,58,0,240
2,note_on,46,80,0
2,note_on,46,0,60
2,note_on,41,80,180
2,note_on,41,0,240
2,note_on,53,74,0
2,note_on,53,0,240
2,note_on,41,74,0
2,note_on,41,0,60
2,note_on,36,80,180
2,note_on,36,0,240
2,note_on,48,71,0
2,note_on,48,0,240
2,note_on,36,71,0
2,note_on,36,0,60
2,note_on,36,80,180
2,note_on,36,0,240
2,note_on,48,75,0
2,note_on,48,0,240
2,note_on,36,80,0
2,note_on,36,0,60
2,note_on,41,80,180
2,note_on,41,0,240
2,note_on,53,74,0
2,note_on,53,0,240
2,note_on,41,74,0
2,note_on,41,0,60
2,note_on,37,80,180
2,note_on,37,0,240
2,note_on,49,71,0
2,note_on,49,0,240
2,note_on,37,71,0
2,note_on,37,0,60
2,note_on,32,80,180
2,note_on,32,0,240
2,note_on,44,75,0
2,note_on,44,0,240
2,note_on,32,80,0
2,note_on,32,0,60
2,note_on,39,80,180
2,note_on,39,0,240
2,note_on,51,74,0
2,note_on,51,0,240
2,note_on,39,74,0
2,note_on,39,0,60
2,note_on,34,80,180
2,note_on,34,0,240
2,note_on,46,71,0
2,note_on,46,0,240
2,note_on,34,71,0
2,note_on,34,0,60
2,note_on,37,80,180
2,note_on,37,0,240
2,note_on,49,75,0
2,note_on,49,0,240
2,note_on,37,80,0
2,note_on,37,0,60
2,note_on,36,80,180
2,note_on,36,0,240
2,note_on,48,74,0
2,note_on,48,0,240
2,note_on,36,74,0
2,note_on,36,0,60
2,note_on,36,80,180
2,note_on,36,0,240
2,note_on,48,74,0
2,note_on,48,0,240
2,note_on,36,74,0
2,note_on,36,0,60
2,note_on,53,80,180
2,note_on,53,0,240
2,note_on,65,63,0
2,note_on,65,0,120
2,note_on,53,54,0
2,note_on,53,0,120
2,note_on,65,71,0
2,note_on,65,0,60
2,note_on,49,80,180
2,note_on,49,0,240
2,note_on,61,67,0
2,note_on,61,0,120
2,note_on,49,57,0
2,note_on,49,0,120
2,note_on,61,80,0
2,note_on,61,0,60
2,note_on,44,80,180
2,note_on,44,0,240
2,note_on,56,66,0
2,note_on,56,0,120
2,note_on,44,56,0
2,note_on,44,0,120
2,note_on,56,74,0
2,note_on,56,0,60
2,note_on,51,80,180
2,note_on,51,0,240
2,note_on,63,63,0
2,note_on,63,0,120
2,note_on,51,56,0
2,note_on,51,0,120
2,note_on,63,71,0
2,note_on,63,0,60
2,note_on,46,80,180
2,note_on,46,0,240
2,note_on,58,67,0
2,note_on,58,0,120
2,note_on,46,59,0
2,note_on,46,0,120
2,note_on,58,80,0
2,note_on,58,0,60
2,note_on,49,80,180
2,note_on,49,0,240
2,note_on,61,66,0
2,note_on,61,0,120
2,note_on,49,59,0
2,note_on,49,0,120
2,note_on,61,74,0
2,note_on,61,0,60
2,note_on,48,80,180
2,note_on,48,0,240
2,note_on,60,63,0
2,note_on,60,0,120
2,note_on,48,54,0
2,note_on,48,0,120
2,note_on,60,71,0
2,note_on,60,0,60
2,note_on,48,80,180
2,note_on,48,0,240
2,note_on,60,67,0
2,note_on,60,0,120
2,note_on,48,59,0
2,note_on,48,0,120
2,note_on,60,80,0
2,note_on,60,0,60
2,note_on,48,80,180
2,note_on,48,0,240
2,note_on,60,66,0
2,note_on,60,0,120
2,note_on,48,58,0
2,note_on,48,0,120
2,note_on,60,75,0
2,note_on,60,0,60
2,note_on,48,83,180
2,note_on,48,0,240
2,note_on,60,66,0
2,note_on,60,0,120
2,note_on,48,58,0
2,note_on,48,0,120
2,note_on,60,75,0
2,note_on,60,0,60
2,note_on,48,86,180
2,note_on,48,0,240
2,note_on,60,73,0
2,note_on,60,0,120
2,note_on,48,64,0
2,note_on,48,0,120
2,note_on,60,88,0
2,note_on,60,0,60
2,note_on,48,89,180
2,note_on,48,0,240
2,note_on,60,74,0
2,note_on,60,0,120
2,note_on,48,64,0
2,note_on,48,0,120
2,note_on,60,84,0
2,note_on,60,0,60
2,note_on,65,67,180
2,note_on,60,56,0
2,note_on,56,56,0
2,note_on,53,56,0
2,note_on,53,0,216
2,note_on,65,0,0
2,note_on,60,0,0
2,note_on,56,0,0
2,note_on,65,57,24
2,note_on,60,48,0
2,note_on,56,48,0
2,note_on,53,48,0
2,note_on,53,0,216
2,note_on,65,0,0
2,note_on,60,0,0
2,note_on,56,0,0
2,note_on,65,57,24
2,note_on,60,48,0
2,note_on,56,48,0
2,note_on,53,48,0
2,note_on,53,0,1920
2,note_on,65,0,0
2,note_on,60,0,0
2,note_on,56,0,0
2,note_on,60,68,480
2,note_on,60,0,120
2,note_on,58,67,0
2,note_on,58,0,120
2,note_on,56,67,0
2,note_on,56,0,120
2,note_on,55,66,0
2,note_on,55,0,120
2,note_on,53,65,0
2,note_on,53,0,120
2,note_on,51,64,0
2,note_on,51,0,120
2,note_on,49,63,0
2,note_on,49,0,120
2,note_on,48,63,0
2,note_on,48,0,120
2,note_on,46,64,0
2,note_on,46,0,120
2,note_on,44,65,0
2,note_on,44,0,120
2,note_on,43,66,0
2,note_on,43,0,120
2,note_on,41,67,0
2,note_on,41,0,120
2,note_on,39,68,0
2,note_on,39,0,120
2,note_on,37,69,0
2,note_on,37,0,120
2,note_on,36,70,0
2,note_on,36,0,120
2,note_on,34,74,0
2,note_on,34,0,120
2,note_on,32,79,0
2,note_on,32,0,120
2,note_on,31,83,0
2,note_on,31,0,120
2,note_on,29,102,0
2,note_on,29,0,240
