Track,Message Type,Note,Velocity,Time
1,note_on,81,55,2880
1,note_on,81,0,360
1,note_on,83,51,0
1,note_on,83,0,120
1,note_on,81,55,0
1,note_on,81,0,360
1,note_on,78,48,0
1,note_on,78,0,120
1,note_on,74,55,0
1,note_on,74,0,240
1,note_on,74,49,240
1,note_on,74,0,240
1,note_on,74,50,180
1,note_on,74,0,60
1,note_on,73,57,0
1,note_on,73,0,360
1,note_on,71,51,0
1,note_on,71,0,120
1,note_on,73,55,0
1,note_on,73,0,360
1,note_on,76,55,0
1,note_on,76,0,120
1,note_on,69,60,0
1,note_on,69,0,480
1,note_on,74,55,0
1,note_on,74,0,240
1,note_on,76,59,240
1,note_on,76,0,360
1,note_on,79,57,0
1,note_on,79,0,50
1,note_on,79,45,10
1,note_on,79,0,60
1,note_on,83,66,0
1,note_on,83,0,360
1,note_on,81,56,0
1,note_on,81,0,111
1,note_on,81,63,9
1,note_on,81,0,240
1,note_on,81,52,240
1,note_on,81,0,240
1,note_on,85,53,180
1,note_on,85,0,60
1,note_on,83,68,0
1,note_on,83,0,360
1,note_on,82,57,0
1,note_on,82,0,120
1,note_on,83,68,0
1,note_on,83,0,360
1,note_on,86,64,0
1,note_on,86,0,120
1,note_on,81,67,0
1,note_on,81,0,960
1,note_on,81,55,0
1,note_on,81,0,360
1,note_on,83,49,0
1,note_on,83,0,120
1,note_on,81,60,0
1,note_on,81,0,360
1,note_on,78,57,0
1,note_on,78,0,120
1,note_on,74,55,0
1,note_on,74,0,240
1,note_on,74,49,240
1,note_on,74,0,240
1,note_on,73,57,240
1,note_on,73,0,360
1,note_on,71,51,0
1,note_on,71,0,120
1,note_on,73,62,0
1,note_on,73,0,360
1,note_on,78,59,0
1,note_on,78,0,110
1,note_on,78,69,10
1,note_on,78,0,960
1,note_on,79,69,0
1,note_on,79,0,160
1,note_on,83,61,0
1,note_on,83,0,160
1,note_on,88,61,0
1,note_on,88,0,160
1,note_on,86,69,1
1,note_on,83,65,159
1,note_on,86,0,1
1,note_on,83,0,159
1,note_on,79,58,0
1,note_on,79,0,160
1,note_on,78,61,0
1,note_on,78,0,240
1,note_on,78,58,240
1,note_on,78,0,240
1,note_on,76,60,240
1,note_on,76,0,160
1,note_on,79,56,0
1,note_on,79,0,160
1,note_on,83,55,0
1,note_on,83,0,160
1,note_on,81,64,0
1,note_on,81,0,160
1,note_on,79,55,0
1,note_on,79,0,160
1,note_on,73,56,0
1,note_on,73,0,160
1,note_on,74,67,0
1,note_on,74,0,960
1,note_on,62,68,0
1,note_on,62,0,160
1,note_on,66,58,0
1,note_on,66,0,160
1,note_on,71,58,0
1,note_on,71,0,160
1,note_on,69,68,0
1,note_on,69,0,160
1,note_on,66,58,0
1,note_on,66,0,160
1,note_on,62,58,0
1,note_on,62,0,160
1,note_on,64,69,0
1,note_on,57,58,0
1,note_on,57,0,240
1,note_on,64,0,0
1,note_on,64,64,240
1,note_on,57,54,0
1,note_on,57,0,240
1,note_on,64,0,0
1,note_on,64,68,240
1,note_on,64,0,160
1,note_on,67,58,0
1,note_on,67,0,160
1,note_on,73,58,0
1,note_on,73,0,160
1,note_on,71,68,0
1,note_on,71,0,160
1,note_on,67,58,0
1,note_on,67,0,160
1,note_on,64,58,0
1,note_on,64,0,160
1,note_on,57,52,0
1,note_on,62,52,0
1,note_on,66,62,0
1,note_on,66,0,960
1,note_on,62,0,0
1,note_on,57,0,0
1,note_on,74,75,0
1,note_on,74,0,160
1,note_on,78,58,0
1,note_on,78,0,160
1,note_on,83,58,0
1,note_on,83,0,160
1,note_on,81,68,0
1,note_on,81,0,160
1,note_on,78,58,0
1,note_on,78,0,160
1,note_on,74,58,0
1,note_on,74,0,160
1,note_on,73,75,0
1,note_on,73,0,160
1,note_on,69,58,0
1,note_on,69,0,160
1,note_on,78,58,0
1,note_on,78,0,160
1,note_on,76,68,0
1,note_on,76,0,160
1,note_on,73,58,0
1,note_on,73,0,160
1,note_on,69,58,0
1,note_on,69,0,160
1,note_on,68,75,0
1,note_on,68,0,160
1,note_on,64,58,0
1,note_on,64,0,160
1,note_on,68,58,0
1,note_on,68,0,160
1,note_on,76,68,0
1,note_on,76,0,160
1,note_on,74,58,0
1,note_on,74,0,160
1,note_on,71,58,0
1,note_on,71,0,160
1,note_on,69,68,0
1,note_on,69,0,480
1,note_on,73,51,0
1,note_on,76,61,0
1,note_on,76,0,240
1,note_on,73,0,0
1,note_on,73,51,240
1,note_on,76,61,0
1,note_on,69,51,0
1,note_on,69,0,240
1,note_on,76,0,0
1,note_on,73,0,0
1,note_on,73,51,240
1,note_on,76,61,0
1,note_on,76,0,240
1,note_on,73,0,0
1,note_on,74,55,240
1,note_on,78,65,0
1,note_on,78,0,240
1,note_on,74,0,0
1,note_on,74,47,240
1,note_on,71,47,0
1,note_on,76,56,0
1,note_on,76,0,240
1,note_on,71,0,0
1,note_on,74,0,0
1,note_on,68,51,240
1,note_on,71,51,0
1,note_on,76,61,0
1,note_on,76,0,240
1,note_on,71,0,0
1,note_on,68,0,0
1,note_on,74,51,240
1,note_on,71,51,0
1,note_on,76,61,0
1,note_on,76,0,240
1,note_on,71,0,0
1,note_on,74,0,0
1,note_on,78,65,240
1,note_on,73,55,0
1,note_on,69,55,0
1,note_on,69,0,240
1,note_on,73,0,0
1,note_on,78,0,0
1,note_on,69,47,240
1,note_on,76,56,0
1,note_on,73,47,0
1,note_on,73,0,240
1,note_on,76,0,0
1,note_on,69,0,0
1,note_on,73,47,240
1,note_on,81,56,0
1,note_on,76,47,0
1,note_on,69,47,0
1,note_on,69,0,240
1,note_on,73,0,0
1,note_on,81,0,0
1,note_on,76,0,0
1,note_on,73,51,240
1,note_on,76,51,0
1,note_on,81,61,0
1,note_on,69,51,0
1,note_on,69,0,240
1,note_on,73,0,0
1,note_on,76,0,0
1,note_on,81,0,0
1,note_on,74,59,240
1,note_on,81,70,0
1,note_on,69,59,0
1,note_on,69,0,240
1,note_on,81,0,0
1,note_on,74,0,0
1,note_on,71,51,240
1,note_on,83,61,0
1,note_on,74,51,0
1,note_on,74,0,240
1,note_on,83,0,0
1,note_on,71,0,0
1,note_on,73,63,240
1,note_on,76,74,0
1,note_on,76,0,240
1,note_on,73,0,0
1,note_on,80,56,240
1,note_on,68,47,0
1,note_on,76,47,0
1,note_on,74,47,0
1,note_on,74,0,240
1,note_on,80,0,0
1,note_on,68,0,0
1,note_on,76,0,0
1,note_on,73,51,240
1,note_on,81,61,0
1,note_on,76,51,0
1,note_on,69,51,0
1,note_on,69,0,478
1,note_on,73,0,482
1,note_on,81,0,0
1,note_on,76,0,0
1,note_on,81,55,1920
1,note_on,81,0,360
1,note_on,83,51,0
1,note_on,83,0,120
1,note_on,81,55,0
1,note_on,81,0,360
1,note_on,78,48,0
1,note_on,78,0,120
1,note_on,74,55,0
1,note_on,74,0,240
1,note_on,74,49,240
1,note_on,74,0,240
1,note_on,74,50,180
1,note_on,74,0,60
1,note_on,73,57,0
1,note_on,73,0,360
1,note_on,71,51,0
1,note_on,71,0,120
1,note_on,73,55,0
1,note_on,73,0,360
1,note_on,76,55,0
1,note_on,76,0,120
1,note_on,69,60,0
1,note_on,69,0,480
1,note_on,74,55,0
1,note_on,74,0,240
1,note_on,76,59,240
1,note_on,76,0,360
1,note_on,79,57,0
1,note_on,79,0,50
1,note_on,79,45,10
1,note_on,79,0,60
1,note_on,83,66,0
1,note_on,83,0,360
1,note_on,81,56,0
1,note_on,81,0,110
1,note_on,81,66,10
1,note_on,81,0,240
1,note_on,81,54,240
1,note_on,81,0,240
1,note_on,85,53,180
1,note_on,85,0,60
1,note_on,83,68,0
1,note_on,83,0,360
1,note_on,82,57,0
1,note_on,82,0,120
1,note_on,83,68,0
1,note_on,83,0,360
1,note_on,86,66,0
1,note_on,86,0,120
1,note_on,81,70,0
1,note_on,81,0,960
1,note_on,81,49,0
1,note_on,81,0,360
1,note_on,82,44,0
1,note_on,82,0,120
1,note_on,81,53,0
1,note_on,81,0,360
1,note_on,77,50,0
1,note_on,77,0,120
1,note_on,74,49,0
1,note_on,74,0,240
1,note_on,74,44,240
1,note_on,74,0,240
1,note_on,74,52,180
1,note_on,74,0,60
1,note_on,77,52,0
1,note_on,69,52,0
1,note_on,69,0,360
1,note_on,77,0,0
1,note_on,77,57,120
1,note_on,69,57,0
1,note_on,69,0,360
1,note_on,77,0,0
1,note_on,77,65,120
1,note_on,70,55,0
1,note_on,70,0,480
1,note_on,77,0,0
1,note_on,82,65,0
1,note_on,82,0,240
1,note_on,86,71,240
1,note_on,86,0,160
1,note_on,88,59,0
1,note_on,88,0,160
1,note_on,85,70,0
1,note_on,85,0,160
1,note_on,86,73,1
1,note_on,88,76,159
1,note_on,86,0,1
1,note_on,88,0,159
1,note_on,89,63,0
1,note_on,89,0,160
1,note_on,81,72,0
1,note_on,81,0,240
1,note_on,81,65,240
1,note_on,81,0,480
1,note_on,76,70,0
1,note_on,76,0,160
1,note_on,79,63,0
1,note_on,79,0,160
1,note_on,83,53,0
1,note_on,83,0,160
1,note_on,81,70,0
1,note_on,81,0,160
1,note_on,79,60,0
1,note_on,79,0,160
1,note_on,73,60,0
1,note_on,73,0,160
1,note_on,81,70,0
1,note_on,81,0,960
1,note_on,79,66,0
1,note_on,79,0,160
1,note_on,83,59,0
1,note_on,83,0,160
1,note_on,88,59,0
1,note_on,88,0,160
1,note_on,86,66,1
1,note_on,83,62,159
1,note_on,86,0,1
1,note_on,83,0,159
1,note_on,79,56,0
1,note_on,79,0,160
1,note_on,78,61,0
1,note_on,78,0,120
1,note_on,81,66,0
1,note_on,81,0,240
1,note_on,81,67,120
1,note_on,81,0,480
1,note_on,76,64,0
1,note_on,76,0,160
1,note_on,79,59,0
1,note_on,79,0,160
1,note_on,83,53,0
1,note_on,83,0,160
1,note_on,81,67,0
1,note_on,81,0,160
1,note_on,79,59,0
1,note_on,79,0,160
1,note_on,73,59,0
1,note_on,73,0,160
1,note_on,74,67,0
1,note_on,74,0,960
1,note_on,62,68,0
1,note_on,62,0,160
1,note_on,66,58,0
1,note_on,66,0,160
1,note_on,71,58,0
1,note_on,71,0,160
1,note_on,69,68,0
1,note_on,69,0,160
1,note_on,66,58,0
1,note_on,66,0,160
1,note_on,62,58,0
1,note_on,62,0,160
1,note_on,64,69,0
1,note_on,57,58,0
1,note_on,57,0,240
1,note_on,64,0,0
1,note_on,64,64,240
1,note_on,57,54,0
1,note_on,57,0,240
1,note_on,64,0,0
1,note_on,64,68,240
1,note_on,64,0,160
1,note_on,67,58,0
1,note_on,67,0,160
1,note_on,73,58,0
1,note_on,73,0,160
1,note_on,71,68,0
1,note_on,71,0,160
1,note_on,67,58,0
1,note_on,67,0,160
1,note_on,64,58,0
1,note_on,64,0,160
1,note_on,66,62,0
1,note_on,57,52,0
1,note_on,62,52,0
1,note_on,62,0,960
1,note_on,57,0,0
1,note_on,66,0,0
1,note_on,74,75,0
1,note_on,74,0,160
1,note_on,78,58,0
1,note_on,78,0,160
1,note_on,83,58,0
1,note_on,83,0,160
1,note_on,81,68,0
1,note_on,81,0,160
1,note_on,78,58,0
1,note_on,78,0,160
1,note_on,74,58,0
1,note_on,74,0,160
1,note_on,73,75,0
1,note_on,73,0,160
1,note_on,69,58,0
1,note_on,69,0,160
1,note_on,78,58,0
1,note_on,78,0,160
1,note_on,76,68,0
1,note_on,76,0,160
1,note_on,73,58,0
1,note_on,73,0,160
1,note_on,69,58,0
1,note_on,69,0,160
1,note_on,68,75,0
1,note_on,68,0,160
1,note_on,64,58,0
1,note_on,64,0,160
1,note_on,68,58,0
1,note_on,68,0,160
1,note_on,76,68,0
1,note_on,76,0,160
1,note_on,74,58,0
1,note_on,74,0,160
1,note_on,71,58,0
1,note_on,71,0,160
1,note_on,69,68,0
1,note_on,69,0,480
1,note_on,73,51,0
1,note_on,76,61,0
1,note_on,76,0,240
1,note_on,73,0,0
1,note_on,69,51,240
1,note_on,76,61,0
1,note_on,73,51,0
1,note_on,73,0,240
1,note_on,76,0,0
1,note_on,69,0,0
1,note_on,73,51,240
1,note_on,76,61,0
1,note_on,76,0,240
1,note_on,73,0,0
1,note_on,78,65,240
1,note_on,74,55,0
1,note_on,74,0,240
1,note_on,78,0,0
1,note_on,71,47,240
1,note_on,76,56,0
1,note_on,74,47,0
1,note_on,74,0,240
1,note_on,76,0,0
1,note_on,71,0,0
1,note_on,71,51,240
1,note_on,76,61,0
1,note_on,68,51,0
1,note_on,68,0,240
1,note_on,76,0,0
1,note_on,71,0,0
1,note_on,71,51,240
1,note_on,76,61,0
1,note_on,74,51,0
1,note_on,74,0,240
1,note_on,76,0,0
1,note_on,71,0,0
1,note_on,78,65,240
1,note_on,69,55,0
1,note_on,73,55,0
1,note_on,73,0,240
1,note_on,69,0,0
1,note_on,78,0,0
1,note_on,73,47,240
1,note_on,76,56,0
1,note_on,69,47,0
1,note_on,69,0,240
1,note_on,76,0,0
1,note_on,73,0,0
1,note_on,81,56,240
1,note_on,76,47,0
1,note_on,69,47,0
1,note_on,73,47,0
1,note_on,73,0,240
1,note_on,81,0,0
1,note_on,76,0,0
1,note_on,69,0,0
1,note_on,73,51,240
1,note_on,81,61,0
1,note_on,69,51,0
1,note_on,76,51,0
1,note_on,76,0,240
1,note_on,73,0,0
1,note_on,81,0,0
1,note_on,69,0,0
1,note_on,74,59,240
1,note_on,69,59,0
1,note_on,81,70,0
1,note_on,81,0,240
1,note_on,69,0,0
1,note_on,74,0,0
1,note_on,74,51,240
1,note_on,71,51,0
1,note_on,83,61,0
1,note_on,83,0,240
1,note_on,71,0,0
1,note_on,74,0,0
1,note_on,76,74,240
1,note_on,73,63,0
1,note_on,73,0,240
1,note_on,76,0,0
1,note_on,74,47,240
1,note_on,80,56,0
1,note_on,68,47,0
1,note_on,76,47,0
1,note_on,76,0,240
1,note_on,74,0,0
1,note_on,80,0,0
1,note_on,68,0,0
1,note_on,81,61,240
1,note_on,76,51,0
1,note_on,69,51,0
1,note_on,73,51,0
1,note_on,69,0,478
1,note_on,81,0,482
1,note_on,76,0,0
1,note_on,73,0,0
1,note_on,81,55,1920
1,note_on,81,0,360
1,note_on,83,51,0
1,note_on,83,0,120
1,note_on,81,55,0
1,note_on,81,0,360
1,note_on,78,48,0
1,note_on,78,0,120
1,note_on,74,55,0
1,note_on,74,0,240
1,note_on,74,49,240
1,note_on,74,0,240
1,note_on,74,50,180
1,note_on,74,0,60
1,note_on,73,57,0
1,note_on,73,0,360
1,note_on,71,51,0
1,note_on,71,0,120
1,note_on,73,55,0
1,note_on,73,0,360
1,note_on,76,55,0
1,note_on,76,0,120
1,note_on,69,60,0
1,note_on,69,0,480
1,note_on,74,55,0
1,note_on,74,0,240
1,note_on,76,59,240
1,note_on,76,0,360
1,note_on,79,57,0
1,note_on,79,0,50
1,note_on,79,45,10
1,note_on,79,0,60
1,note_on,83,66,0
1,note_on,83,0,358
1,note_on,81,56,2
1,note_on,81,0,110
1,note_on,81,66,10
1,note_on,81,0,240
1,note_on,81,54,240
1,note_on,81,0,240
1,note_on,85,53,180
1,note_on,85,0,60
1,note_on,83,68,0
1,note_on,83,0,360
1,note_on,82,57,0
1,note_on,82,0,120
1,note_on,83,68,0
1,note_on,83,0,360
1,note_on,86,66,0
1,note_on,86,0,120
1,note_on,81,70,0
1,note_on,81,0,960
1,note_on,81,49,0
1,note_on,81,0,360
1,note_on,82,44,0
1,note_on,82,0,120
1,note_on,81,53,0
1,note_on,81,0,360
1,note_on,77,50,0
1,note_on,77,0,120
1,note_on,74,49,0
1,note_on,74,0,240
1,note_on,74,44,240
1,note_on,74,0,240
1,note_on,74,52,180
1,note_on,74,0,60
1,note_on,77,52,0
1,note_on,69,52,0
1,note_on,69,0,360
1,note_on,77,0,0
1,note_on,69,57,120
1,note_on,77,57,0
1,note_on,77,0,360
1,note_on,69,0,0
1,note_on,77,65,120
1,note_on,70,55,0
1,note_on,70,0,480
1,note_on,77,0,0
1,note_on,82,65,0
1,note_on,82,0,240
1,note_on,86,71,240
1,note_on,86,0,160
1,note_on,88,59,0
1,note_on,88,0,160
1,note_on,85,70,0
1,note_on,85,0,160
1,note_on,86,73,1
1,note_on,88,76,159
1,note_on,86,0,1
1,note_on,88,0,159
1,note_on,89,63,0
1,note_on,89,0,160
1,note_on,81,72,0
1,note_on,81,0,240
1,note_on,81,65,240
1,note_on,81,0,480
1,note_on,76,70,0
1,note_on,76,0,160
1,note_on,79,63,0
1,note_on,79,0,160
1,note_on,83,53,0
1,note_on,83,0,160
1,note_on,81,70,0
1,note_on,81,0,160
1,note_on,79,60,0
1,note_on,79,0,160
1,note_on,73,60,0
1,note_on,73,0,160
1,note_on,81,70,0
1,note_on,81,0,960
1,note_on,79,66,0
1,note_on,79,0,160
1,note_on,83,59,0
1,note_on,83,0,160
1,note_on,88,59,0
1,note_on,88,0,160
1,note_on,86,66,1
1,note_on,83,62,159
1,note_on,86,0,1
1,note_on,83,0,159
1,note_on,79,56,0
1,note_on,79,0,160
1,note_on,78,61,0
1,note_on,78,0,120
1,note_on,81,66,0
1,note_on,81,0,240
1,note_on,81,67,120
1,note_on,81,0,480
1,note_on,76,64,0
1,note_on,76,0,160
1,note_on,79,59,0
1,note_on,79,0,160
1,note_on,83,53,0
1,note_on,83,0,160
1,note_on,81,67,0
1,note_on,81,0,160
1,note_on,79,59,0
1,note_on,79,0,160
1,note_on,73,59,0
1,note_on,73,0,160
1,note_on,74,67,0
1,note_on,74,0,958
1,note_on,62,57,2
1,note_on,62,0,120
1,note_on,64,52,0
1,note_on,64,0,120
1,note_on,66,57,0
1,note_on,66,0,120
1,note_on,67,53,0
1,note_on,67,0,120
1,note_on,68,57,0
1,note_on,68,0,120
1,note_on,69,52,0
1,note_on,69,0,120
1,note_on,68,54,0
1,note_on,68,0,120
1,note_on,69,57,0
1,note_on,69,0,120
1,note_on,71,65,0
1,note_on,67,55,0
1,note_on,67,0,480
1,note_on,71,0,0
1,note_on,69,53,0
1,note_on,62,39,0
1,note_on,66,41,0
1,note_on,66,0,240
1,note_on,62,0,0
1,note_on,69,0,0
1,note_on,74,64,240
1,note_on,74,0,160
1,note_on,73,58,0
1,note_on,73,0,160
1,note_on,71,58,0
1,note_on,71,0,160
1,note_on,69,64,0
1,note_on,69,0,160
1,note_on,67,58,0
1,note_on,67,0,160
1,note_on,66,58,0
1,note_on,66,0,160
1,note_on,69,64,0
1,note_on,69,0,360
1,note_on,67,55,0
1,note_on,67,0,120
1,note_on,64,61,0
1,note_on,64,0,240
1,note_on,69,64,240
1,note_on,69,0,120
1,note_on,71,58,0
1,note_on,71,0,120
1,note_on,73,64,0
1,note_on,73,0,120
1,note_on,74,59,0
1,note_on,74,0,120
1,note_on,75,69,0
1,note_on,75,0,120
1,note_on,76,58,0
1,note_on,76,0,120
1,note_on,75,61,0
1,note_on,75,0,120
1,note_on,76,64,0
1,note_on,76,0,120
1,note_on,74,69,0
1,note_on,74,0,120
1,note_on,76,58,0
1,note_on,76,0,120
1,note_on,78,64,0
1,note_on,78,0,120
1,note_on,79,59,0
1,note_on,79,0,120
1,note_on,80,70,0
1,note_on,80,0,120
1,note_on,81,58,0
1,note_on,81,0,120
1,note_on,80,61,0
1,note_on,80,0,120
1,note_on,81,64,0
1,note_on,81,0,120
1,note_on,83,72,0
1,note_on,83,0,120
1,note_on,81,66,0
1,note_on,81,0,120
1,note_on,79,64,0
1,note_on,79,0,120
1,note_on,78,63,0
1,note_on,78,0,120
1,note_on,81,67,0
1,note_on,81,0,120
1,note_on,79,64,0
1,note_on,79,0,120
1,note_on,78,61,0
1,note_on,78,0,120
1,note_on,76,59,0
1,note_on,76,0,120
1,note_on,74,67,0
1,note_on,74,0,960
1,note_on,67,73,0
1,note_on,67,0,120
1,note_on,69,66,0
1,note_on,69,0,120
1,note_on,71,73,0
1,note_on,71,0,120
1,note_on,72,67,0
1,note_on,72,0,120
1,note_on,73,79,0
1,note_on,73,0,120
1,note_on,74,74,0
1,note_on,74,0,120
1,note_on,73,76,0
1,note_on,73,0,120
1,note_on,74,73,0
1,note_on,74,0,120
1,note_on,78,84,0
1,note_on,78,0,120
1,note_on,76,77,0
1,note_on,76,0,120
1,note_on,74,74,0
1,note_on,74,0,120
1,note_on,73,71,0
1,note_on,73,0,120
1,note_on,76,80,0
1,note_on,76,0,120
1,note_on,74,75,0
1,note_on,74,0,120
1,note_on,73,71,0
1,note_on,73,0,120
1,note_on,71,73,0
1,note_on,71,0,120
1,note_on,69,82,0
1,note_on,69,0,120
1,note_on,68,75,0
1,note_on,68,0,120
1,note_on,66,73,0
1,note_on,66,0,120
1,note_on,64,72,0
1,note_on,64,0,120
1,note_on,63,77,0
1,note_on,63,0,120
1,note_on,64,73,0
1,note_on,64,0,120
1,note_on,66,70,0
1,note_on,66,0,120
1,note_on,68,67,0
1,note_on,68,0,120
1,note_on,73,76,0
1,note_on,73,0,120
1,note_on,57,51,0
1,note_on,57,0,120
1,note_on,59,57,0
1,note_on,59,0,120
1,note_on,57,49,0
1,note_on,57,0,120
1,note_on,59,56,0
1,note_on,59,0,120
1,note_on,57,48,0
1,note_on,57,0,120
1,note_on,59,47,0
1,note_on,59,0,120
1,note_on,61,45,0
1,note_on,61,0,120
1,note_on,62,57,0
1,note_on,62,0,120
1,note_on,64,52,0
1,note_on,64,0,120
1,note_on,66,57,0
1,note_on,66,0,120
1,note_on,67,53,0
1,note_on,67,0,120
1,note_on,68,57,0
1,note_on,68,0,120
1,note_on,69,52,0
1,note_on,69,0,120
1,note_on,68,54,0
1,note_on,68,0,120
1,note_on,69,57,0
1,note_on,69,0,120
1,note_on,71,65,0
1,note_on,67,55,0
1,note_on,67,0,480
1,note_on,71,0,0
1,note_on,66,41,0
1,note_on,69,53,0
1,note_on,62,39,0
1,note_on,62,0,240
1,note_on,69,0,0
1,note_on,66,0,0
1,note_on,74,64,240
1,note_on,74,0,160
1,note_on,73,58,0
1,note_on,73,0,160
1,note_on,71,58,0
1,note_on,71,0,160
1,note_on,69,64,0
1,note_on,69,0,160
1,note_on,67,58,0
1,note_on,67,0,160
1,note_on,66,58,0
1,note_on,66,0,160
1,note_on,69,64,0
1,note_on,69,0,360
1,note_on,67,55,0
1,note_on,67,0,120
1,note_on,64,61,0
1,note_on,64,0,240
1,note_on,69,64,240
1,note_on,69,0,120
1,note_on,71,58,0
1,note_on,71,0,120
1,note_on,73,64,0
1,note_on,73,0,120
1,note_on,74,59,0
1,note_on,74,0,120
1,note_on,75,69,0
1,note_on,75,0,120
1,note_on,76,58,0
1,note_on,76,0,120
1,note_on,75,61,0
1,note_on,75,0,120
1,note_on,76,64,0
1,note_on,76,0,120
1,note_on,74,69,0
1,note_on,74,0,120
1,note_on,76,58,0
1,note_on,76,0,120
1,note_on,78,64,0
1,note_on,78,0,120
1,note_on,79,59,0
1,note_on,79,0,120
1,note_on,80,70,0
1,note_on,80,0,120
1,note_on,81,63,0
1,note_on,81,0,120
1,note_on,80,66,0
1,note_on,80,0,120
1,note_on,81,68,0
1,note_on,81,0,120
1,note_on,90,75,0
1,note_on,90,0,120
1,note_on,88,71,0
1,note_on,88,0,120
1,note_on,86,67,0
1,note_on,86,0,120
1,note_on,85,64,0
1,note_on,85,0,120
1,note_on,88,73,0
1,note_on,88,0,120
1,note_on,86,67,0
1,note_on,86,0,120
1,note_on,85,64,0
1,note_on,85,0,120
1,note_on,83,61,0
1,note_on,83,0,120
1,note_on,81,76,0
1,note_on,81,0,960
1,note_on,62,73,0
1,note_on,62,0,120
1,note_on,64,66,0
1,note_on,64,0,120
1,note_on,66,73,0
1,note_on,66,0,120
1,note_on,67,67,0
1,note_on,67,0,120
1,note_on,68,79,0
1,note_on,68,0,120
1,note_on,69,74,0
1,note_on,69,0,120
1,note_on,68,76,0
1,note_on,68,0,120
1,note_on,69,73,0
1,note_on,69,0,120
1,note_on,73,84,0
1,note_on,73,0,120
1,note_on,71,77,0
1,note_on,71,0,120
1,note_on,69,74,0
1,note_on,69,0,120
1,note_on,68,71,0
1,note_on,68,0,120
1,note_on,71,80,0
1,note_on,71,0,120
1,note_on,69,75,0
1,note_on,69,0,120
1,note_on,68,71,0
1,note_on,68,0,120
1,note_on,66,73,0
1,note_on,66,0,120
1,note_on,64,82,0
1,note_on,64,0,120
1,note_on,66,75,0
1,note_on,66,0,120
1,note_on,64,73,0
1,note_on,64,0,120
1,note_on,66,72,0
1,note_on,66,0,120
1,note_on,64,77,0
1,note_on,64,0,120
1,note_on,62,73,0
1,note_on,62,0,120
1,note_on,61,70,0
1,note_on,61,0,120
1,note_on,59,67,0
1,note_on,59,0,120
1,note_on,57,76,0
1,note_on,57,0,120
1,note_on,61,51,0
1,note_on,61,0,120
1,note_on,64,57,0
1,note_on,64,0,120
1,note_on,68,49,0
1,note_on,68,0,120
1,note_on,69,56,0
1,note_on,69,0,120
1,note_on,71,48,0
1,note_on,71,0,120
1,note_on,73,47,0
1,note_on,73,0,120
1,note_on,74,45,0
1,note_on,74,0,110
1,note_on,76,69,10
1,note_on,76,0,120
1,note_on,78,58,0
1,note_on,78,0,120
1,note_on,80,64,0
1,note_on,80,0,120
1,note_on,81,59,0
1,note_on,81,0,120
1,note_on,82,70,0
1,note_on,82,0,120
1,note_on,83,63,0
1,note_on,83,0,120
1,note_on,82,66,0
1,note_on,82,0,120
1,note_on,83,68,0
1,note_on,83,0,120
1,note_on,81,69,0
1,note_on,81,0,120
1,note_on,83,58,0
1,note_on,83,0,120
1,note_on,85,64,0
1,note_on,85,0,120
1,note_on,86,59,0
1,note_on,86,0,120
1,note_on,87,70,0
1,note_on,87,0,120
1,note_on,88,63,0
1,note_on,88,0,120
1,note_on,87,66,0
1,note_on,87,0,120
1,note_on,88,68,0
1,note_on,88,0,120
1,note_on,90,75,0
1,note_on,90,0,120
1,note_on,88,65,0
1,note_on,88,0,120
1,note_on,90,67,0
1,note_on,90,0,120
1,note_on,88,64,0
1,note_on,88,0,120
1,note_on,83,75,0
1,note_on,83,0,120
1,note_on,80,67,0
1,note_on,80,0,120
1,note_on,83,70,0
1,note_on,83,0,120
1,note_on,80,65,0
1,note_on,80,0,120
1,note_on,90,75,0
1,note_on,90,0,120
1,note_on,88,65,0
1,note_on,88,0,120
1,note_on,90,67,0
1,note_on,90,0,120
1,note_on,88,64,0
1,note_on,88,0,120
1,note_on,85,75,0
1,note_on,85,0,120
1,note_on,81,67,0
1,note_on,81,0,120
1,note_on,85,70,0
1,note_on,85,0,120
1,note_on,81,65,0
1,note_on,81,0,120
1,note_on,86,77,0
1,note_on,86,0,120
1,note_on,83,64,120
1,note_on,83,0,120
1,note_on,80,64,120
1,note_on,80,0,120
1,note_on,76,64,120
1,note_on,76,0,120
1,note_on,85,78,120
1,note_on,85,0,120
1,note_on,81,67,120
1,note_on,81,0,120
1,note_on,97,81,120
1,note_on,97,0,120
1,note_on,93,75,120
1,note_on,93,0,120
1,note_on,92,75,120
1,note_on,92,0,120
1,note_on,90,65,0
1,note_on,90,0,120
1,note_on,92,67,0
1,note_on,92,0,120
1,note_on,90,64,0
1,note_on,90,0,120
1,note_on,86,75,0
1,note_on,86,0,120
1,note_on,83,67,0
1,note_on,83,0,120
1,note_on,86,70,0
1,note_on,86,0,120
1,note_on,83,65,0
1,note_on,83,0,118
1,note_on,83,71,2
1,note_on,83,0,120
1,note_on,81,61,0
1,note_on,81,0,120
1,note_on,83,65,0
1,note_on,83,0,120
1,note_on,81,61,0
1,note_on,81,0,120
1,note_on,93,79,0
1,note_on,93,0,120
1,note_on,81,69,120
1,note_on,81,0,120
1,note_on,74,86,120
1,note_on,76,73,0
1,note_on,76,0,120
1,note_on,74,0,0
1,note_on,71,66,120
1,note_on,76,56,0
1,note_on,76,0,120
1,note_on,71,0,0
1,note_on,68,76,120
1,note_on,76,64,0
1,note_on,76,0,120
1,note_on,68,0,0
1,note_on,64,65,120
1,note_on,76,55,0
1,note_on,76,0,120
1,note_on,64,0,0
1,note_on,74,86,120
1,note_on,76,73,0
1,note_on,76,0,120
1,note_on,74,0,0
1,note_on,71,66,120
1,note_on,76,56,0
1,note_on,76,0,120
1,note_on,71,0,0
1,note_on,76,64,120
1,note_on,68,76,0
1,note_on,68,0,120
1,note_on,76,0,0
1,note_on,76,55,120
1,note_on,64,65,0
1,note_on,64,0,120
1,note_on,76,0,0
1,note_on,62,86,120
1,note_on,64,73,0
1,note_on,64,0,120
1,note_on,62,0,0
1,note_on,59,66,120
1,note_on,64,56,0
1,note_on,64,0,120
1,note_on,59,0,0
1,note_on,56,76,120
1,note_on,64,64,0
1,note_on,64,0,120
1,note_on,56,0,0
1,note_on,64,55,120
1,note_on,52,65,0
1,note_on,52,0,120
1,note_on,64,0,0
1,note_on,69,76,1080
1,note_on,69,0,120
1,note_on,71,70,0
1,note_on,71,0,120
1,note_on,72,76,0
1,note_on,72,0,120
1,note_on,74,71,0
1,note_on,74,0,120
1,note_on,75,76,0
1,note_on,75,0,120
1,note_on,76,75,0
1,note_on,76,0,120
1,note_on,75,79,0
1,note_on,75,0,120
1,note_on,76,82,0
1,note_on,76,0,120
1,note_on,77,89,0
1,note_on,74,75,0
1,note_on,69,75,0
1,note_on,74,0,480
1,note_on,77,0,0
1,note_on,72,67,0
1,note_on,76,79,0
1,note_on,76,0,240
1,note_on,72,0,0
1,note_on,69,0,0
1,note_on,69,75,240
1,note_on,81,89,0
1,note_on,72,75,0
1,note_on,77,75,0
1,note_on,77,0,480
1,note_on,69,0,0
1,note_on,81,0,0
1,note_on,76,67,0
1,note_on,79,79,0
1,note_on,67,67,0
1,note_on,67,0,240
1,note_on,72,0,0
1,note_on,76,0,0
1,note_on,79,0,0
1,note_on,76,73,240
1,note_on,72,73,0
1,note_on,84,86,0
1,note_on,84,0,120
1,note_on,72,0,0
1,note_on,76,0,0
1,note_on,83,72,120
1,note_on,76,61,0
1,note_on,71,61,0
1,note_on,71,0,120
1,note_on,76,0,0
1,note_on,83,0,0
1,note_on,69,66,120
1,note_on,81,78,0
1,note_on,72,66,0
1,note_on,72,0,120
1,note_on,81,0,0
1,note_on,69,0,0
1,note_on,79,70,120
1,note_on,72,59,0
1,note_on,67,59,0
1,note_on,67,0,120
1,note_on,72,0,0
1,note_on,79,0,0
1,note_on,69,73,120
1,note_on,77,86,0
1,note_on,65,73,0
1,note_on,65,0,120
1,note_on,77,0,0
1,note_on,69,0,0
1,note_on,76,70,120
1,note_on,64,59,0
1,note_on,69,59,0
1,note_on,69,0,120
1,note_on,64,0,0
1,note_on,76,0,0
1,note_on,65,68,120
1,note_on,69,68,0
1,note_on,74,80,0
1,note_on,74,0,120
1,note_on,69,0,0
1,note_on,65,0,0
1,note_on,72,70,120
1,note_on,69,59,0
1,note_on,66,59,0
1,note_on,66,0,120
1,note_on,69,0,0
1,note_on,72,0,0
1,note_on,76,86,120
1,note_on,68,73,0
1,note_on,64,73,0
1,note_on,71,73,0
1,note_on,71,0,480
1,note_on,76,0,0
1,note_on,68,0,0
1,note_on,64,0,0
1,note_on,64,65,480
1,note_on,64,0,120
1,note_on,66,59,0
1,note_on,66,0,120
1,note_on,68,59,0
1,note_on,68,0,120
1,note_on,69,61,0
1,note_on,69,0,120
1,note_on,70,64,0
1,note_on,70,0,120
1,note_on,71,59,0
1,note_on,71,0,120
1,note_on,70,65,0
1,note_on,70,0,120
1,note_on,71,59,0
1,note_on,71,0,120
1,note_on,69,70,0
1,note_on,69,0,120
1,note_on,71,64,0
1,note_on,71,0,120
1,note_on,72,64,0
1,note_on,72,0,120
1,note_on,74,64,0
1,note_on,74,0,120
1,note_on,75,69,0
1,note_on,75,0,120
1,note_on,76,64,0
1,note_on,76,0,120
1,note_on,75,68,0
1,note_on,75,0,120
1,note_on,76,64,0
1,note_on,76,0,120
1,note_on,77,76,0
1,note_on,77,0,120
1,note_on,76,69,0
1,note_on,76,0,120
1,note_on,74,67,0
1,note_on,74,0,120
1,note_on,72,66,0
1,note_on,72,0,120
1,note_on,76,77,0
1,note_on,76,0,120
1,note_on,74,69,0
1,note_on,74,0,120
1,note_on,72,67,0
1,note_on,72,0,120
1,note_on,71,65,0
1,note_on,71,0,120
1,note_on,69,73,0
1,note_on,69,0,120
1,note_on,71,65,0
1,note_on,71,0,120
1,note_on,72,66,0
1,note_on,72,0,120
1,note_on,74,68,0
1,note_on,74,0,120
1,note_on,76,69,0
1,note_on,76,0,120
1,note_on,78,70,0
1,note_on,78,0,120
1,note_on,80,72,0
1,note_on,80,0,120
1,note_on,81,73,0
1,note_on,81,0,120
1,note_on,70,80,0
1,note_on,82,96,0
1,note_on,82,0,120
1,note_on,70,0,0
1,note_on,81,67,120
1,note_on,69,56,0
1,note_on,69,0,120
1,note_on,81,0,0
1,note_on,82,70,120
1,note_on,70,60,0
1,note_on,70,0,120
1,note_on,82,0,0
1,note_on,84,68,120
1,note_on,72,57,0
1,note_on,72,0,120
1,note_on,84,0,0
1,note_on,69,80,120
1,note_on,81,96,0
1,note_on,81,0,120
1,note_on,69,0,0
1,note_on,65,56,120
1,note_on,77,67,0
1,note_on,77,0,120
1,note_on,65,0,0
1,note_on,79,70,120
1,note_on,67,60,0
1,note_on,67,0,120
1,note_on,79,0,0
1,note_on,69,57,120
1,note_on,81,68,0
1,note_on,81,0,120
1,note_on,69,0,0
1,note_on,70,80,120
1,note_on,82,96,0
1,note_on,82,0,120
1,note_on,70,0,0
1,note_on,67,56,120
1,note_on,79,67,0
1,note_on,79,0,120
1,note_on,67,0,0
1,note_on,69,69,120
1,note_on,81,91,0
1,note_on,81,0,120
1,note_on,69,0,0
1,note_on,84,68,120
1,note_on,72,57,0
1,note_on,72,0,120
1,note_on,84,0,0
1,note_on,65,80,120
1,note_on,77,96,0
1,note_on,77,0,120
1,note_on,65,0,0
1,note_on,72,67,120
1,note_on,72,0,120
1,note_on,69,70,120
1,note_on,69,0,120
1,note_on,65,68,120
1,note_on,65,0,110
1,note_on,69,68,130
1,note_on,69,0,120
1,note_on,71,61,0
1,note_on,71,0,120
1,note_on,73,61,0
1,note_on,73,0,120
1,note_on,74,64,0
1,note_on,74,0,120
1,note_on,75,67,0
1,note_on,75,0,120
1,note_on,76,61,0
1,note_on,76,0,120
1,note_on,75,68,0
1,note_on,75,0,120
1,note_on,76,61,0
1,note_on,76,0,120
1,note_on,74,73,0
1,note_on,74,0,120
1,note_on,76,67,0
1,note_on,76,0,120
1,note_on,77,67,0
1,note_on,77,0,120
1,note_on,79,67,0
1,note_on,79,0,120
1,note_on,80,72,0
1,note_on,80,0,120
1,note_on,81,67,0
1,note_on,81,0,120
1,note_on,80,71,0
1,note_on,80,0,120
1,note_on,81,67,0
1,note_on,81,0,120
1,note_on,82,76,0
1,note_on,82,0,120
1,note_on,81,72,0
1,note_on,81,0,120
1,note_on,79,70,0
1,note_on,79,0,120
1,note_on,77,69,0
1,note_on,77,0,120
1,note_on,81,77,0
1,note_on,81,0,120
1,note_on,79,72,0
1,note_on,79,0,120
1,note_on,77,70,0
1,note_on,77,0,120
1,note_on,76,68,0
1,note_on,76,0,120
1,note_on,74,76,0
1,note_on,74,0,120
1,note_on,76,68,0
1,note_on,76,0,120
1,note_on,77,69,0
1,note_on,77,0,120
1,note_on,79,71,0
1,note_on,79,0,120
1,note_on,81,72,0
1,note_on,81,0,120
1,note_on,83,73,0
1,note_on,83,0,120
1,note_on,85,75,0
1,note_on,85,0,120
1,note_on,86,76,0
1,note_on,86,0,120
1,note_on,87,105,0
1,note_on,75,88,0
1,note_on,75,0,120
1,note_on,87,0,0
1,note_on,86,70,120
1,note_on,74,58,0
1,note_on,74,0,120
1,note_on,86,0,0
1,note_on,75,63,120
1,note_on,87,73,0
1,note_on,87,0,120
1,note_on,75,0,0
1,note_on,77,59,120
1,note_on,89,71,0
1,note_on,89,0,120
1,note_on,77,0,0
1,note_on,74,88,120
1,note_on,86,105,0
1,note_on,86,0,120
1,note_on,74,0,0
1,note_on,82,70,120
1,note_on,70,58,0
1,note_on,70,0,120
1,note_on,82,0,0
1,note_on,84,73,120
1,note_on,72,63,0
1,note_on,72,0,120
1,note_on,84,0,0
1,note_on,86,71,120
1,note_on,74,59,0
1,note_on,74,0,120
1,note_on,86,0,0
1,note_on,87,105,120
1,note_on,75,88,0
1,note_on,75,0,120
1,note_on,87,0,0
1,note_on,84,70,120
1,note_on,72,58,0
1,note_on,72,0,120
1,note_on,84,0,0
1,note_on,86,95,120
1,note_on,74,72,0
1,note_on,74,0,120
1,note_on,86,0,0
1,note_on,89,71,120
1,note_on,77,59,0
1,note_on,77,0,120
1,note_on,89,0,0
1,note_on,74,84,120
1,note_on,86,100,0
1,note_on,86,0,120
1,note_on,74,0,0
1,note_on,82,70,120
1,note_on,70,58,0
1,note_on,70,0,120
1,note_on,82,0,0
1,note_on,72,63,120
1,note_on,84,73,0
1,note_on,84,0,120
1,note_on,72,0,0
1,note_on,87,71,120
1,note_on,75,59,0
1,note_on,75,0,120
1,note_on,87,0,0
1,note_on,72,79,120
1,note_on,84,95,0
1,note_on,84,0,120
1,note_on,72,0,0
1,note_on,69,58,120
1,note_on,81,70,0
1,note_on,81,0,120
1,note_on,69,0,0
1,note_on,82,95,120
1,note_on,70,72,0
1,note_on,70,0,120
1,note_on,82,0,0
1,note_on,74,59,120
1,note_on,86,71,0
1,note_on,86,0,120
1,note_on,74,0,0
1,note_on,86,73,120
1,note_on,86,0,120
1,note_on,84,67,0
1,note_on,84,0,120
1,note_on,82,67,0
1,note_on,82,0,120
1,note_on,81,67,0
1,note_on,81,0,120
1,note_on,84,72,0
1,note_on,84,0,120
1,note_on,82,67,0
1,note_on,82,0,120
1,note_on,81,71,0
1,note_on,81,0,120
1,note_on,82,67,0
1,note_on,82,0,120
1,note_on,84,76,0
1,note_on,84,0,120
1,note_on,82,72,0
1,note_on,82,0,120
1,note_on,81,70,0
1,note_on,81,0,120
1,note_on,79,69,0
1,note_on,79,0,120
1,note_on,82,77,0
1,note_on,82,0,120
1,note_on,81,72,0
1,note_on,81,0,120
1,note_on,79,70,0
1,note_on,79,0,120
1,note_on,81,68,0
1,note_on,81,0,120
1,note_on,82,73,0
1,note_on,82,0,120
1,note_on,81,67,0
1,note_on,81,0,120
1,note_on,79,67,0
1,note_on,79,0,120
1,note_on,77,67,0
1,note_on,77,0,120
1,note_on,81,72,0
1,note_on,81,0,120
1,note_on,79,67,0
1,note_on,79,0,120
1,note_on,77,71,0
1,note_on,77,0,120
1,note_on,76,67,0
1,note_on,76,0,120
1,note_on,79,76,0
1,note_on,79,0,120
1,note_on,77,72,0
1,note_on,77,0,120
1,note_on,76,70,0
1,note_on,76,0,120
1,note_on,74,69,0
1,note_on,74,0,120
1,note_on,77,77,0
1,note_on,77,0,120
1,note_on,76,72,0
1,note_on,76,0,120
1,note_on,74,70,0
1,note_on,74,0,120
1,note_on,76,68,0
1,note_on,76,0,120
1,note_on,77,73,0
1,note_on,77,0,120
1,note_on,76,67,0
1,note_on,76,0,120
1,note_on,74,67,0
1,note_on,74,0,120
1,note_on,76,67,0
1,note_on,76,0,120
1,note_on,74,72,0
1,note_on,74,0,120
1,note_on,72,67,0
1,note_on,72,0,120
1,note_on,71,71,0
1,note_on,71,0,120
1,note_on,72,67,0
1,note_on,72,0,120
1,note_on,71,76,0
1,note_on,71,0,120
1,note_on,69,72,0
1,note_on,69,0,120
1,note_on,68,70,0
1,note_on,68,0,120
1,note_on,69,69,0
1,note_on,69,0,120
1,note_on,68,77,0
1,note_on,68,0,120
1,note_on,66,72,0
1,note_on,66,0,120
1,note_on,64,70,0
1,note_on,64,0,120
1,note_on,66,68,0
1,note_on,66,0,120
1,note_on,68,73,0
1,note_on,68,0,120
1,note_on,66,67,0
1,note_on,66,0,120
1,note_on,64,67,0
1,note_on,64,0,120
1,note_on,66,67,0
1,note_on,66,0,120
1,note_on,68,72,0
1,note_on,68,0,120
1,note_on,66,67,0
1,note_on,66,0,120
1,note_on,64,71,0
1,note_on,64,0,120
1,note_on,66,67,0
1,note_on,66,0,120
1,note_on,68,76,0
1,note_on,68,0,120
1,note_on,66,72,0
1,note_on,66,0,120
1,note_on,64,70,0
1,note_on,64,0,120
1,note_on,66,69,0
1,note_on,66,0,120
1,note_on,68,77,0
1,note_on,68,0,120
1,note_on,66,72,0
1,note_on,66,0,120
1,note_on,64,70,0
1,note_on,64,0,120
1,note_on,66,68,0
1,note_on,66,0,120
1,note_on,64,77,0
1,note_on,64,0,480
1,note_on,62,45,480
1,note_on,64,54,0
1,note_on,64,0,120
1,note_on,62,0,0
1,note_on,64,49,120
1,note_on,59,41,0
1,note_on,59,0,120
1,note_on,64,0,0
1,note_on,56,45,120
1,note_on,64,54,0
1,note_on,64,0,120
1,note_on,56,0,0
1,note_on,52,40,120
1,note_on,64,48,0
1,note_on,64,0,120
1,note_on,52,0,0
1,note_on,74,38,1080
1,note_on,76,45,0
1,note_on,76,0,120
1,note_on,74,0,0
1,note_on,76,41,120
1,note_on,71,34,0
1,note_on,71,0,120
1,note_on,76,0,0
1,note_on,68,38,120
1,note_on,76,45,0
1,note_on,76,0,120
1,note_on,68,0,0
1,note_on,76,40,120
1,note_on,64,34,0
1,note_on,64,0,120
1,note_on,76,0,0
1,note_on,69,53,1080
1,note_on,69,0,120
1,note_on,71,49,0
1,note_on,71,0,120
1,note_on,73,53,0
1,note_on,73,0,120
1,note_on,74,49,0
1,note_on,74,0,120
1,note_on,75,53,0
1,note_on,75,0,120
1,note_on,76,52,0
1,note_on,76,0,120
1,note_on,75,55,0
1,note_on,75,0,120
1,note_on,76,57,0
1,note_on,76,0,120
1,note_on,69,52,0
1,note_on,74,52,0
1,note_on,78,62,0
1,note_on,78,0,480
1,note_on,74,0,0
1,note_on,73,46,0
1,note_on,76,55,0
1,note_on,76,0,240
1,note_on,73,0,0
1,note_on,69,0,0
1,note_on,81,64,240
1,note_on,81,0,160
1,note_on,80,58,0
1,note_on,80,0,160
1,note_on,78,58,0
1,note_on,78,0,160
1,note_on,76,64,0
1,note_on,76,0,160
1,note_on,74,58,0
1,note_on,74,0,160
1,note_on,73,58,0
1,note_on,73,0,160
1,note_on,76,64,0
1,note_on,76,0,360
1,note_on,74,55,0
1,note_on,74,0,120
1,note_on,71,61,0
1,note_on,71,0,240
1,note_on,76,69,241
1,note_on,76,0,120
1,note_on,78,58,0
1,note_on,78,0,120
1,note_on,80,64,0
1,note_on,80,0,120
1,note_on,81,59,0
1,note_on,81,0,120
1,note_on,82,70,0
1,note_on,82,0,120
1,note_on,83,63,0
1,note_on,83,0,120
1,note_on,82,66,0
1,note_on,82,0,120
1,note_on,83,68,0
1,note_on,83,0,120
1,note_on,81,69,0
1,note_on,81,0,120
1,note_on,83,58,0
1,note_on,83,0,120
1,note_on,85,64,0
1,note_on,85,0,120
1,note_on,86,59,0
1,note_on,86,0,120
1,note_on,87,70,0
1,note_on,87,0,120
1,note_on,88,63,0
1,note_on,88,0,120
1,note_on,87,66,0
1,note_on,87,0,120
1,note_on,88,68,0
1,note_on,88,0,120
1,note_on,90,75,0
1,note_on,90,0,120
1,note_on,88,59,0
1,note_on,88,0,120
1,note_on,90,67,0
1,note_on,90,0,120
1,note_on,88,59,0
1,note_on,88,0,120
1,note_on,83,75,0
1,note_on,80,58,119
1,note_on,83,0,1
1,note_on,80,0,119
1,note_on,83,70,1
1,note_on,83,0,120
1,note_on,80,59,0
1,note_on,80,0,120
1,note_on,90,75,0
1,note_on,90,0,120
1,note_on,88,60,0
1,note_on,88,0,120
1,note_on,90,67,0
1,note_on,90,0,120
1,note_on,88,61,0
1,note_on,88,0,120
1,note_on,85,75,0
1,note_on,85,0,120
1,note_on,81,67,0
1,note_on,81,0,120
1,note_on,85,70,0
1,note_on,85,0,120
1,note_on,81,65,0
1,note_on,81,0,120
1,note_on,86,77,0
1,note_on,86,0,120
1,note_on,83,64,120
1,note_on,83,0,120
1,note_on,80,64,120
1,note_on,80,0,120
1,note_on,76,64,120
1,note_on,76,0,120
1,note_on,85,78,120
1,note_on,85,0,120
1,note_on,81,67,120
1,note_on,81,0,120
1,note_on,97,81,120
1,note_on,97,0,120
1,note_on,93,75,120
1,note_on,93,0,120
1,note_on,92,75,120
1,note_on,92,0,120
1,note_on,90,57,0
1,note_on,90,0,120
1,note_on,92,67,0
1,note_on,92,0,120
1,note_on,90,59,0
1,note_on,90,0,120
1,note_on,86,75,0
1,note_on,86,0,120
1,note_on,83,61,0
1,note_on,83,0,120
1,note_on,86,70,0
1,note_on,83,59,119
1,note_on,86,0,1
1,note_on,83,0,117
1,note_on,83,71,3
1,note_on,83,0,120
1,note_on,81,61,0
1,note_on,81,0,120
1,note_on,83,65,0
1,note_on,83,0,120
1,note_on,81,61,0
1,note_on,97,79,119
1,note_on,81,0,1
1,note_on,97,0,119
1,note_on,93,69,120
1,note_on,93,0,120
1,note_on,92,75,121
1,note_on,92,0,120
1,note_on,90,59,0
1,note_on,90,0,120
1,note_on,92,67,0
1,note_on,92,0,120
1,note_on,90,59,0
1,note_on,90,0,120
1,note_on,86,75,0
1,note_on,86,0,120
1,note_on,83,67,0
1,note_on,83,0,120
1,note_on,86,70,0
1,note_on,83,65,119
1,note_on,86,0,1
1,note_on,83,0,114
1,note_on,83,60,6
1,note_on,83,0,120
1,note_on,81,48,0
1,note_on,81,0,120
1,note_on,83,55,0
1,note_on,83,0,120
1,note_on,81,47,0
1,note_on,97,53,119
1,note_on,100,63,0
1,note_on,81,0,1
1,note_on,100,0,119
1,note_on,97,0,0
1,note_on,97,55,120
1,note_on,93,46,0
1,note_on,93,0,120
1,note_on,97,0,0
1,note_on,92,75,121
1,note_on,92,0,120
1,note_on,90,60,0
1,note_on,90,0,120
1,note_on,92,67,0
1,note_on,92,0,120
1,note_on,90,60,0
1,note_on,90,0,120
1,note_on,86,75,0
1,note_on,86,0,120
1,note_on,83,67,0
1,note_on,83,0,120
1,note_on,86,70,0
1,note_on,83,65,119
1,note_on,86,0,1
1,note_on,83,0,114
1,note_on,83,63,6
1,note_on,83,0,120
1,note_on,81,54,0
1,note_on,81,0,120
1,note_on,83,58,0
1,note_on,83,0,120
1,note_on,81,54,0
1,note_on,81,0,120
1,note_on,93,71,0
1,note_on,93,0,120
1,note_on,81,69,120
1,note_on,81,0,120
1,note_on,81,73,119
1,note_on,79,86,0
1,note_on,79,0,120
1,note_on,81,0,0
1,note_on,81,56,120
1,note_on,76,56,1
1,note_on,81,0,119
1,note_on,76,0,1
1,note_on,73,64,119
1,note_on,81,64,0
1,note_on,81,0,120
1,note_on,73,0,0
1,note_on,81,55,120
1,note_on,69,65,0
1,note_on,69,0,120
1,note_on,81,0,0
1,note_on,67,86,120
1,note_on,69,73,0
1,note_on,69,0,120
1,note_on,67,0,0
1,note_on,64,66,120
1,note_on,69,56,0
1,note_on,69,0,120
1,note_on,64,0,0
1,note_on,69,64,120
1,note_on,61,76,0
1,note_on,61,0,120
1,note_on,69,0,0
1,note_on,57,65,120
1,note_on,69,55,0
1,note_on,69,0,120
1,note_on,57,0,0
1,note_on,66,64,1320
1,note_on,66,0,120
1,note_on,68,63,0
1,note_on,68,0,120
1,note_on,69,67,0
1,note_on,69,0,120
1,note_on,71,52,0
1,note_on,71,0,120
1,note_on,73,52,0
1,note_on,73,0,120
1,note_on,74,52,0
1,note_on,74,0,120
1,note_on,75,52,0
1,note_on,75,0,120
1,note_on,76,49,0
1,note_on,76,0,120
1,note_on,75,49,0
1,note_on,75,0,120
1,note_on,76,49,0
1,note_on,76,0,120
1,note_on,78,54,0
1,note_on,78,0,120
1,note_on,80,52,0
1,note_on,80,0,120
1,note_on,81,49,0
1,note_on,81,0,120
1,note_on,83,47,0
1,note_on,83,0,120
1,note_on,81,53,0
1,note_on,81,0,120
1,note_on,83,43,0
1,note_on,83,0,120
1,note_on,81,48,0
1,note_on,81,0,120
1,note_on,83,45,0
1,note_on,83,0,120
1,note_on,81,53,1
1,note_on,83,43,119
1,note_on,81,0,1
1,note_on,83,0,119
1,note_on,81,48,0
1,note_on,81,0,120
1,note_on,83,43,0
1,note_on,83,0,120
1,note_on,81,64,0
1,note_on,81,0,120
1,note_on,83,41,0
1,note_on,83,0,120
1,note_on,81,48,0
1,note_on,81,0,120
1,note_on,83,41,0
1,note_on,83,0,120
1,note_on,81,49,0
1,note_on,81,0,120
1,note_on,83,43,0
1,note_on,83,0,120
1,note_on,81,48,0
1,note_on,81,0,120
1,note_on,83,43,0
1,note_on,83,0,120
1,note_on,81,48,0
1,note_on,81,0,120
1,note_on,83,50,0
1,note_on,83,0,120
1,note_on,81,53,0
1,note_on,81,0,120
1,note_on,83,56,0
1,note_on,83,0,120
1,note_on,81,63,1
1,note_on,83,63,119
1,note_on,81,0,1
1,note_on,83,0,119
1,note_on,81,67,0
1,note_on,81,0,120
1,note_on,83,70,0
1,note_on,83,0,120
1,note_on,81,75,0
1,note_on,81,0,120
1,note_on,83,72,0
1,note_on,83,0,120
1,note_on,81,67,0
1,note_on,81,0,120
1,note_on,83,63,0
1,note_on,83,0,120
1,note_on,81,58,0
1,note_on,81,0,120
1,note_on,83,54,0
1,note_on,83,0,120
1,note_on,81,50,0
1,note_on,81,0,120
1,note_on,78,46,0
1,note_on,78,0,120
1,note_on,74,49,0
1,note_on,74,0,240
1,note_on,74,44,240
1,note_on,74,0,480
1,note_on,73,51,0
1,note_on,73,0,120
1,note_on,71,41,0
1,note_on,71,0,120
1,note_on,73,47,0
1,note_on,73,0,120
1,note_on,74,43,0
1,note_on,74,0,120
1,note_on,73,49,0
1,note_on,73,0,120
1,note_on,74,42,0
1,note_on,74,0,120
1,note_on,76,45,0
1,note_on,76,0,120
1,note_on,73,49,0
1,note_on,73,0,120
1,note_on,69,59,0
1,note_on,69,0,240
1,note_on,74,55,240
1,note_on,74,0,240
1,note_on,76,58,240
1,note_on,76,0,120
1,note_on,79,47,0
1,note_on,79,0,120
1,note_on,76,56,0
1,note_on,76,0,120
1,note_on,79,48,0
1,note_on,83,62,120
1,note_on,79,0,9
1,note_on,83,0,111
1,note_on,81,48,0
1,note_on,81,0,120
1,note_on,83,57,0
1,note_on,83,0,120
1,note_on,81,50,0
1,note_on,81,0,111
1,note_on,81,56,9
1,note_on,81,0,240
1,note_on,81,60,240
1,note_on,81,0,600
1,note_on,79,56,0
1,note_on,79,0,120
1,note_on,81,58,0
1,note_on,81,0,120
1,note_on,83,60,0
1,note_on,83,0,120
1,note_on,85,66,0
1,note_on,85,0,120
1,note_on,86,54,0
1,note_on,86,0,120
1,note_on,85,62,0
1,note_on,85,0,120
1,note_on,83,54,0
1,note_on,83,0,120
1,note_on,81,60,0
1,note_on,81,0,950
1,note_on,81,53,10
1,note_on,81,0,120
1,note_on,83,40,0
1,note_on,83,0,120
1,note_on,81,48,0
1,note_on,81,0,120
1,note_on,83,39,0
1,note_on,83,0,120
1,note_on,81,53,0
1,note_on,81,0,120
1,note_on,83,37,0
1,note_on,83,0,120
1,note_on,81,47,0
1,note_on,81,0,120
1,note_on,78,44,0
1,note_on,78,0,120
1,note_on,74,49,0
1,note_on,74,0,240
1,note_on,74,44,240
1,note_on,74,0,480
1,note_on,73,51,0
1,note_on,73,0,120
1,note_on,71,45,0
1,note_on,71,0,120
1,note_on,73,48,0
1,note_on,73,0,120
1,note_on,74,50,0
1,note_on,74,0,120
1,note_on,73,55,0
1,note_on,73,0,120
1,note_on,74,54,0
1,note_on,74,0,120
1,note_on,76,60,0
1,note_on,76,0,120
1,note_on,77,65,0
1,note_on,77,0,110
1,note_on,78,72,10
1,note_on,78,0,960
1,note_on,79,56,0
1,note_on,79,0,120
1,note_on,83,42,0
1,note_on,83,0,120
1,note_on,79,45,0
1,note_on,79,0,120
1,note_on,83,42,0
1,note_on,83,0,120
1,note_on,88,65,0
1,note_on,88,0,120
1,note_on,86,52,0
1,note_on,86,0,120
1,note_on,83,55,0
1,note_on,83,0,120
1,note_on,79,49,0
1,note_on,79,0,120
1,note_on,78,64,0
1,note_on,78,0,240
1,note_on,78,52,240
1,note_on,78,0,240
1,note_on,76,54,240
1,note_on,76,0,120
1,note_on,79,42,0
1,note_on,79,0,120
1,note_on,76,50,0
1,note_on,76,0,120
1,note_on,79,42,0
1,note_on,79,0,120
1,note_on,83,56,0
1,note_on,83,0,120
1,note_on,81,45,0
1,note_on,81,0,120
1,note_on,79,51,0
1,note_on,79,0,120
1,note_on,73,45,0
1,note_on,73,0,120
1,note_on,74,58,0
1,note_on,74,0,960
1,note_on,62,68,0
1,note_on,62,0,120
1,note_on,66,58,0
1,note_on,66,0,120
1,note_on,62,60,0
1,note_on,62,0,120
1,note_on,66,58,0
1,note_on,66,0,120
1,note_on,71,68,0
1,note_on,71,0,120
1,note_on,69,58,0
1,note_on,69,0,120
1,note_on,66,62,0
1,note_on,66,0,120
1,note_on,62,58,0
1,note_on,62,0,120
1,note_on,64,69,0
1,note_on,57,58,0
1,note_on,57,0,240
1,note_on,64,0,0
1,note_on,64,64,240
1,note_on,57,54,0
1,note_on,57,0,470
1,note_on,64,0,0
1,note_on,64,68,10
1,note_on,64,0,120
1,note_on,67,58,0
1,note_on,67,0,120
1,note_on,64,62,0
1,note_on,64,0,120
1,note_on,67,58,0
1,note_on,67,0,120
1,note_on,73,68,0
1,note_on,73,0,120
1,note_on,71,58,0
1,note_on,71,0,120
1,note_on,67,62,0
1,note_on,67,0,120
1,note_on,64,58,0
1,note_on,64,0,120
1,note_on,57,52,0
1,note_on,66,62,0
1,note_on,62,52,0
1,note_on,62,0,960
1,note_on,66,0,0
1,note_on,57,0,0
1,note_on,74,75,0
1,note_on,74,0,120
1,note_on,78,58,0
1,note_on,78,0,120
1,note_on,74,62,0
1,note_on,74,0,120
1,note_on,78,58,0
1,note_on,78,0,120
1,note_on,83,68,0
1,note_on,83,0,120
1,note_on,81,58,0
1,note_on,81,0,120
1,note_on,78,62,0
1,note_on,78,0,120
1,note_on,74,58,0
1,note_on,74,0,120
1,note_on,73,75,0
1,note_on,73,0,120
1,note_on,69,58,0
1,note_on,69,0,120
1,note_on,73,61,0
1,note_on,73,0,120
1,note_on,69,58,0
1,note_on,69,0,120
1,note_on,78,68,0
1,note_on,78,0,120
1,note_on,76,58,0
1,note_on,76,0,120
1,note_on,73,62,0
1,note_on,73,0,120
1,note_on,69,58,0
1,note_on,69,0,120
1,note_on,68,75,0
1,note_on,68,0,120
1,note_on,64,54,0
1,note_on,64,0,120
1,note_on,68,62,0
1,note_on,68,0,120
1,note_on,64,52,0
1,note_on,64,0,120
1,note_on,68,68,0
1,note_on,68,0,120
1,note_on,76,50,0
1,note_on,76,0,120
1,note_on,74,58,0
1,note_on,74,0,120
1,note_on,71,50,0
1,note_on,71,0,120
1,note_on,69,68,0
1,note_on,69,0,480
1,note_on,73,51,0
1,note_on,76,61,0
1,note_on,76,0,240
1,note_on,73,0,0
1,note_on,69,51,240
1,note_on,73,51,0
1,note_on,76,61,0
1,note_on,76,0,240
1,note_on,73,0,0
1,note_on,69,0,0
1,note_on,73,51,240
1,note_on,76,61,0
1,note_on,76,0,240
1,note_on,73,0,0
1,note_on,78,65,240
1,note_on,74,55,0
1,note_on,74,0,240
1,note_on,78,0,0
1,note_on,76,56,240
1,note_on,74,47,0
1,note_on,71,47,0
1,note_on,71,0,240
1,note_on,74,0,0
1,note_on,76,0,0
1,note_on,68,51,240
1,note_on,76,61,0
1,note_on,71,51,0
1,note_on,71,0,240
1,note_on,76,0,0
1,note_on,68,0,0
1,note_on,76,61,240
1,note_on,71,51,0
1,note_on,74,51,0
1,note_on,74,0,240
1,note_on,71,0,0
1,note_on,76,0,0
1,note_on,69,55,240
1,note_on,73,55,0
1,note_on,78,65,0
1,note_on,78,0,240
1,note_on,73,0,0
1,note_on,69,0,0
1,note_on,73,47,240
1,note_on,76,56,0
1,note_on,69,47,0
1,note_on,69,0,240
1,note_on,76,0,0
1,note_on,73,0,0
1,note_on,73,47,240
1,note_on,69,47,0
1,note_on,81,56,0
1,note_on,76,47,0
1,note_on,76,0,240
1,note_on,73,0,0
1,note_on,69,0,0
1,note_on,81,0,0
1,note_on,76,51,240
1,note_on,81,61,0
1,note_on,69,51,0
1,note_on,73,51,0
1,note_on,73,0,240
1,note_on,76,0,0
1,note_on,81,0,0
1,note_on,69,0,0
1,note_on,81,70,240
1,note_on,74,59,0
1,note_on,69,59,0
1,note_on,69,0,240
1,note_on,74,0,0
1,note_on,81,0,0
1,note_on,74,51,240
1,note_on,71,51,0
1,note_on,83,61,0
1,note_on,83,0,240
1,note_on,71,0,0
1,note_on,74,0,0
1,note_on,76,74,240
1,note_on,73,63,0
1,note_on,73,0,240
1,note_on,76,0,0
1,note_on,68,47,240
1,note_on,74,47,0
1,note_on,80,56,0
1,note_on,76,47,0
1,note_on,76,0,240
1,note_on,68,0,0
1,note_on,74,0,0
1,note_on,80,0,0
1,note_on,69,51,240
1,note_on,76,51,0
1,note_on,81,61,0
1,note_on,73,51,0
1,note_on,69,0,478
1,note_on,76,0,482
1,note_on,81,0,0
1,note_on,73,0,0
1,note_on,81,56,1920
1,note_on,81,0,120
1,note_on,83,53,0
1,note_on,83,0,120
1,note_on,81,55,0
1,note_on,81,0,120
1,note_on,83,53,0
1,note_on,83,0,120
1,note_on,81,53,0
1,note_on,81,0,120
1,note_on,83,49,0
1,note_on,83,0,120
1,note_on,81,50,0
1,note_on,81,0,120
1,note_on,78,45,0
1,note_on,78,0,120
1,note_on,74,49,0
1,note_on,74,0,240
1,note_on,74,44,240
1,note_on,74,0,480
1,note_on,73,51,0
1,note_on,73,0,120
1,note_on,71,41,0
1,note_on,71,0,120
1,note_on,73,45,0
1,note_on,73,0,120
1,note_on,74,43,0
1,note_on,74,0,120
1,note_on,73,49,0
1,note_on,73,0,120
1,note_on,74,42,0
1,note_on,74,0,120
1,note_on,76,45,0
1,note_on,76,0,120
1,note_on,73,49,0
1,note_on,73,0,120
1,note_on,69,59,0
1,note_on,69,0,240
1,note_on,74,55,240
1,note_on,74,0,240
1,note_on,76,53,240
1,note_on,76,0,120
1,note_on,79,47,0
1,note_on,79,0,120
1,note_on,76,51,0
1,note_on,76,0,120
1,note_on,79,48,0
1,note_on,83,59,120
1,note_on,79,0,9
1,note_on,83,0,111
1,note_on,81,48,0
1,note_on,81,0,120
1,note_on,83,51,0
1,note_on,83,0,120
1,note_on,81,47,0
1,note_on,81,0,111
1,note_on,81,56,9
1,note_on,81,0,240
1,note_on,81,60,240
1,note_on,81,0,600
1,note_on,79,52,0
1,note_on,79,0,120
1,note_on,81,54,0
1,note_on,81,0,120
1,note_on,83,56,0
1,note_on,83,0,120
1,note_on,85,61,0
1,note_on,85,0,120
1,note_on,86,54,0
1,note_on,86,0,120
1,note_on,85,56,0
1,note_on,85,0,120
1,note_on,83,54,0
1,note_on,83,0,120
1,note_on,81,60,0
1,note_on,81,0,950
1,note_on,81,41,10
1,note_on,81,0,120
1,note_on,82,32,0
1,note_on,82,0,120
1,note_on,81,37,0
1,note_on,81,0,120
1,note_on,82,33,0
1,note_on,82,0,120
1,note_on,81,42,0
1,note_on,81,0,120
1,note_on,82,34,0
1,note_on,82,0,120
1,note_on,81,39,0
1,note_on,81,0,120
1,note_on,77,34,0
1,note_on,77,0,120
1,note_on,74,41,0
1,note_on,74,0,240
1,note_on,74,37,240
1,note_on,74,0,480
1,note_on,77,43,0
1,note_on,69,37,0
1,note_on,77,0,120
1,note_on,76,38,0
1,note_on,76,0,120
1,note_on,77,41,0
1,note_on,77,0,120
1,note_on,76,38,0
1,note_on,69,0,116
1,note_on,76,0,4
1,note_on,69,37,0
1,note_on,79,46,0
1,note_on,79,0,120
1,note_on,77,45,0
1,note_on,77,0,120
1,note_on,79,51,0
1,note_on,79,0,120
1,note_on,77,55,5
1,note_on,77,0,110
1,note_on,69,0,5
1,note_on,77,61,0
1,note_on,70,37,0
1,note_on,77,0,480
1,note_on,82,57,0
1,note_on,82,0,240
1,note_on,70,0,0
1,note_on,86,56,240
1,note_on,86,0,120
1,note_on,88,51,0
1,note_on,88,0,120
1,note_on,86,58,0
1,note_on,86,0,120
1,note_on,85,56,0
1,note_on,85,0,120
1,note_on,86,65,0
1,note_on,86,0,120
1,note_on,88,56,0
1,note_on,88,0,120
1,note_on,89,55,0
1,note_on,86,49,115
1,note_on,89,0,5
1,note_on,86,0,115
1,note_on,81,64,5
1,note_on,81,0,240
1,note_on,81,52,240
1,note_on,76,54,480
1,note_on,76,0,120
1,note_on,79,42,0
1,note_on,79,0,120
1,note_on,76,48,0
1,note_on,76,0,120
1,note_on,79,45,0
1,note_on,79,0,120
1,note_on,81,0,0
1,note_on,83,56,0
1,note_on,83,0,120
1,note_on,81,45,0
1,note_on,81,0,120
1,note_on,79,51,0
1,note_on,79,0,120
1,note_on,76,45,0
1,note_on,76,0,120
1,note_on,81,58,0
1,note_on,81,0,960
1,note_on,79,60,0
1,note_on,79,0,120
1,note_on,83,51,0
1,note_on,83,0,120
1,note_on,79,55,0
1,note_on,79,0,120
1,note_on,83,58,0
1,note_on,83,0,120
1,note_on,88,61,0
1,note_on,88,0,120
1,note_on,86,56,0
1,note_on,86,0,120
1,note_on,83,53,0
1,note_on,83,0,120
1,note_on,79,50,0
1,note_on,79,0,120
1,note_on,78,54,0
1,note_on,78,0,120
1,note_on,81,60,0
1,note_on,81,0,120
1,note_on,81,61,240
1,note_on,81,0,480
1,note_on,76,53,0
1,note_on,76,0,120
1,note_on,79,45,0
1,note_on,79,0,120
1,note_on,76,49,0
1,note_on,76,0,120
1,note_on,79,46,0
1,note_on,79,0,120
1,note_on,83,59,0
1,note_on,83,0,120
1,note_on,81,57,0
1,note_on,81,0,120
1,note_on,79,55,0
1,note_on,79,0,120
1,note_on,76,53,0
1,note_on,76,0,120
1,note_on,74,57,0
1,note_on,74,0,960
1,note_on,67,42,0
1,note_on,74,50,0
1,note_on,71,42,0
1,note_on,71,0,216
1,note_on,74,0,0
1,note_on,67,0,0
1,note_on,71,38,24
1,note_on,76,45,0
1,note_on,67,38,0
1,note_on,67,0,216
1,note_on,76,0,0
1,note_on,71,0,0
1,note_on,71,38,24
1,note_on,67,38,0
1,note_on,78,45,0
1,note_on,78,0,216
1,note_on,67,0,0
1,note_on,71,0,0
1,note_on,71,38,24
1,note_on,67,38,0
1,note_on,79,45,0
1,note_on,79,0,216
1,note_on,67,0,0
1,note_on,71,0,0
1,note_on,67,45,24
1,note_on,79,53,0
1,note_on,71,53,0
1,note_on,71,0,216
1,note_on,79,0,0
1,note_on,67,0,0
1,note_on,71,41,24
1,note_on,67,35,0
1,note_on,67,0,216
1,note_on,71,0,0
1,note_on,71,44,24
1,note_on,67,37,0
1,note_on,67,0,216
1,note_on,71,0,0
1,note_on,71,41,24
1,note_on,67,35,0
1,note_on,67,0,216
1,note_on,71,0,0
1,note_on,67,44,24
1,note_on,79,52,0
1,note_on,70,44,0
1,note_on,70,0,216
1,note_on,79,0,0
1,note_on,67,0,0
1,note_on,73,42,24
1,note_on,70,36,0
1,note_on,67,36,0
1,note_on,67,0,216
1,note_on,70,0,0
1,note_on,73,0,0
1,note_on,67,38,24
1,note_on,70,38,0
1,note_on,73,45,0
1,note_on,73,0,216
1,note_on,70,0,0
1,note_on,67,0,0
1,note_on,67,36,24
1,note_on,73,42,0
1,note_on,70,36,0
1,note_on,70,0,216
1,note_on,73,0,0
1,note_on,67,0,0
1,note_on,67,48,24
1,note_on,71,48,0
1,note_on,74,57,0
1,note_on,74,0,960
1,note_on,71,0,0
1,note_on,67,0,0
1,note_on,67,42,0
1,note_on,71,42,0
1,note_on,76,50,0
1,note_on,76,0,216
1,note_on,71,0,0
1,note_on,67,0,0
1,note_on,74,45,24
1,note_on,71,38,0
1,note_on,67,38,0
1,note_on,67,0,216
1,note_on,71,0,0
1,note_on,74,0,0
1,note_on,67,38,24
1,note_on,71,45,0
1,note_on,71,0,216
1,note_on,67,0,0
1,note_on,67,45,24
1,note_on,67,0,216
1,note_on,62,45,24
1,note_on,71,53,0
1,note_on,67,53,0
1,note_on,67,0,216
1,note_on,71,0,0
1,note_on,62,0,0
1,note_on,66,35,24
1,note_on,69,41,0
1,note_on,62,35,0
1,note_on,62,0,216
1,note_on,69,0,0
1,note_on,66,0,24
1,note_on,69,44,0
1,note_on,66,37,0
1,note_on,62,37,0
1,note_on,62,0,216
1,note_on,69,0,0
1,note_on,66,0,24
1,note_on,62,35,0
1,note_on,66,35,0
1,note_on,69,41,0
1,note_on,69,0,216
1,note_on,62,0,0
1,note_on,66,0,24
1,note_on,67,44,0
1,note_on,70,44,0
1,note_on,76,52,0
1,note_on,76,0,216
1,note_on,70,0,0
1,note_on,67,0,0
1,note_on,67,36,24
1,note_on,73,42,0
1,note_on,70,36,0
1,note_on,70,0,216
1,note_on,73,0,0
1,note_on,67,0,0
1,note_on,67,38,24
1,note_on,70,38,0
1,note_on,73,45,0
1,note_on,73,0,216
1,note_on,70,0,0
1,note_on,67,0,0
1,note_on,73,42,24
1,note_on,70,36,0
1,note_on,67,36,0
1,note_on,67,0,216
1,note_on,70,0,0
1,note_on,73,0,0
1,note_on,74,57,24
1,note_on,66,48,0
1,note_on,69,48,0
1,note_on,69,0,960
1,note_on,66,0,0
1,note_on,74,0,0
1,note_on,65,42,0
1,note_on,74,50,0
1,note_on,69,42,0
1,note_on,69,0,216
1,note_on,74,0,0
1,note_on,65,0,0
1,note_on,69,39,24
1,note_on,65,39,0
1,note_on,74,47,0
1,note_on,74,0,216
1,note_on,65,0,0
1,note_on,69,0,0
1,note_on,76,49,24
1,note_on,69,41,0
1,note_on,65,41,0
1,note_on,65,0,216
1,note_on,69,0,0
1,note_on,76,0,0
1,note_on,77,51,24
1,note_on,69,43,0
1,note_on,69,0,216
1,note_on,77,0,0
1,note_on,77,53,24
1,note_on,68,53,0
1,note_on,64,45,0
1,note_on,64,0,216
1,note_on,68,0,0
1,note_on,77,0,0
1,note_on,68,37,24
1,note_on,71,44,0
1,note_on,64,37,0
1,note_on,64,0,216
1,note_on,71,0,0
1,note_on,68,0,24
1,note_on,68,37,0
1,note_on,64,37,0
1,note_on,71,44,0
1,note_on,71,0,216
1,note_on,64,0,0
1,note_on,68,0,24
1,note_on,68,37,0
1,note_on,71,44,0
1,note_on,64,37,0
1,note_on,64,0,216
1,note_on,71,0,0
1,note_on,68,0,24
1,note_on,64,44,0
1,note_on,69,44,0
1,note_on,72,52,0
1,note_on,72,0,216
1,note_on,69,0,0
1,note_on,64,0,0
1,note_on,72,45,24
1,note_on,69,38,0
1,note_on,64,38,0
1,note_on,64,0,216
1,note_on,69,0,0
1,note_on,72,0,0
1,note_on,64,39,24
1,note_on,74,46,0
1,note_on,69,39,0
1,note_on,69,0,216
1,note_on,74,0,0
1,note_on,64,0,0
1,note_on,64,40,24
1,note_on,67,40,0
1,note_on,76,48,0
1,note_on,76,0,216
1,note_on,67,0,0
1,note_on,64,0,0
1,note_on,66,53,24
1,note_on,76,53,0
1,note_on,62,45,0
1,note_on,62,0,216
1,note_on,76,0,0
1,note_on,66,0,0
1,note_on,66,33,24
1,note_on,62,33,0
1,note_on,69,39,0
1,note_on,69,0,216
1,note_on,62,0,0
1,note_on,66,0,24
1,note_on,62,37,0
1,note_on,66,37,0
1,note_on,69,44,0
1,note_on,69,0,216
1,note_on,62,0,0
1,note_on,66,0,24
1,note_on,66,33,0
1,note_on,69,39,0
1,note_on,62,33,0
1,note_on,62,0,216
1,note_on,69,0,0
1,note_on,66,0,24
1,note_on,62,44,0
1,note_on,71,52,0
1,note_on,67,44,0
1,note_on,67,0,216
1,note_on,71,0,0
1,note_on,62,0,0
1,note_on,76,54,24
1,note_on,67,45,0
1,note_on,62,45,0
1,note_on,62,0,216
1,note_on,67,0,0
1,note_on,76,0,0
1,note_on,62,43,24
1,note_on,67,43,0
1,note_on,74,51,0
1,note_on,74,0,216
1,note_on,67,0,0
1,note_on,62,0,0
1,note_on,62,40,24
1,note_on,71,48,0
1,note_on,67,40,0
1,note_on,67,0,216
1,note_on,71,0,0
1,note_on,62,0,0
1,note_on,66,53,24
1,note_on,62,45,0
1,note_on,74,53,0
1,note_on,74,0,216
1,note_on,62,0,0
1,note_on,66,0,0
1,note_on,62,33,24
1,note_on,66,33,0
1,note_on,69,39,0
1,note_on,69,0,216
1,note_on,62,0,0
1,note_on,66,0,24
1,note_on,66,33,0
1,note_on,69,39,0
1,note_on,62,33,0
1,note_on,62,0,216
1,note_on,69,0,0
1,note_on,66,0,24
1,note_on,62,33,0
1,note_on,66,33,0
1,note_on,69,39,0
1,note_on,69,0,216
1,note_on,62,0,0
1,note_on,66,0,24
1,note_on,71,52,0
1,note_on,67,44,0
1,note_on,62,44,0
1,note_on,62,0,216
1,note_on,67,0,0
1,note_on,71,0,0
1,note_on,76,54,24
1,note_on,67,45,0
1,note_on,62,45,0
1,note_on,62,0,216
1,note_on,67,0,0
1,note_on,76,0,0
1,note_on,74,51,24
1,note_on,62,43,0
1,note_on,67,43,0
1,note_on,67,0,216
1,note_on,62,0,0
1,note_on,74,0,0
1,note_on,62,40,24
1,note_on,67,40,0
1,note_on,71,48,0
1,note_on,71,0,216
1,note_on,67,0,0
1,note_on,62,0,0
1,note_on,66,39,24
1,note_on,62,39,0
1,note_on,74,47,0
1,note_on,74,0,216
1,note_on,62,0,0
1,note_on,66,0,0
1,note_on,62,34,24
1,note_on,66,34,0
1,note_on,69,40,0
1,note_on,69,0,216
1,note_on,62,0,0
1,note_on,66,0,24
1,note_on,69,30,0
1,note_on,74,36,0
1,note_on,66,30,0
1,note_on,74,0,216
1,note_on,69,0,0
1,note_on,66,0,24
1,note_on,70,28,0
1,note_on,74,33,0
1,note_on,66,28,0
1,note_on,74,0,216
1,note_on,70,0,0
1,note_on,66,0,24
1,note_on,71,37,0
1,note_on,74,45,0
1,note_on,67,37,0
1,note_on,67,0,216
1,note_on,74,0,0
1,note_on,71,0,0
1,note_on,76,45,24
1,note_on,71,38,0
1,note_on,67,38,0
1,note_on,67,0,216
1,note_on,71,0,0
1,note_on,76,0,0
1,note_on,71,38,24
1,note_on,67,38,0
1,note_on,78,45,0
1,note_on,78,0,216
1,note_on,67,0,0
1,note_on,71,0,0
1,note_on,67,38,24
1,note_on,79,45,0
1,note_on,71,38,0
1,note_on,71,0,216
1,note_on,79,0,0
1,note_on,67,0,0
1,note_on,71,53,24
1,note_on,79,53,0
1,note_on,67,45,0
1,note_on,67,0,216
1,note_on,79,0,0
1,note_on,71,0,0
1,note_on,67,33,24
1,note_on,71,39,0
1,note_on,71,0,216
1,note_on,67,0,0
1,note_on,71,44,24
1,note_on,67,37,0
1,note_on,67,0,216
1,note_on,71,0,0
1,note_on,67,33,24
1,note_on,71,39,0
1,note_on,71,0,216
1,note_on,67,0,0
1,note_on,70,44,24
1,note_on,67,44,0
1,note_on,79,52,0
1,note_on,79,0,216
1,note_on,67,0,0
1,note_on,70,0,0
1,note_on,67,34,24
1,note_on,73,40,0
1,note_on,70,34,0
1,note_on,70,0,216
1,note_on,73,0,0
1,note_on,67,0,0
1,note_on,73,45,24
1,note_on,67,38,0
1,note_on,70,38,0
1,note_on,70,0,216
1,note_on,67,0,0
1,note_on,73,0,0
1,note_on,67,38,24
1,note_on,70,38,0
1,note_on,73,45,0
1,note_on,73,0,216
1,note_on,70,0,0
1,note_on,67,0,0
1,note_on,71,48,24
1,note_on,74,57,0
1,note_on,67,48,0
1,note_on,67,0,960
1,note_on,74,0,0
1,note_on,71,0,0
1,note_on,67,51,0
1,note_on,77,61,0
1,note_on,71,51,0
1,note_on,71,0,216
1,note_on,77,0,0
1,note_on,67,0,0
1,note_on,71,44,24
1,note_on,76,52,0
1,note_on,67,44,0
1,note_on,67,0,216
1,note_on,76,0,0
1,note_on,71,0,0
1,note_on,67,48,24
1,note_on,71,48,0
1,note_on,77,57,0
1,note_on,77,0,216
1,note_on,67,0,0
1,note_on,71,0,24
1,note_on,79,52,0
1,note_on,71,44,0
1,note_on,79,0,216
1,note_on,71,0,24
1,note_on,67,53,0
1,note_on,77,63,0
1,note_on,72,53,0
1,note_on,72,0,216
1,note_on,77,0,0
1,note_on,67,0,0
1,note_on,72,43,24
1,note_on,67,43,0
1,note_on,76,52,0
1,note_on,76,0,216
1,note_on,67,0,0
1,note_on,72,0,24
1,note_on,67,46,0
1,note_on,74,55,0
1,note_on,74,0,216
1,note_on,67,0,24
1,note_on,72,51,0
1,note_on,64,42,0
1,note_on,67,42,0
1,note_on,64,0,216
1,note_on,72,0,0
1,note_on,67,0,24
1,note_on,62,50,0
1,note_on,67,50,0
1,note_on,72,59,0
1,note_on,72,0,216
1,note_on,67,0,0
1,note_on,62,0,0
1,note_on,67,45,24
1,note_on,71,53,0
1,note_on,62,45,0
1,note_on,62,0,216
1,note_on,71,0,0
1,note_on,67,0,0
1,note_on,62,47,24
1,note_on,66,47,0
1,note_on,74,56,0
1,note_on,74,0,216
1,note_on,66,0,0
1,note_on,62,0,0
1,note_on,66,45,24
1,note_on,62,45,0
1,note_on,72,53,0
1,note_on,72,0,216
1,note_on,62,0,0
1,note_on,66,0,0
1,note_on,62,51,24
1,note_on,71,61,0
1,note_on,67,51,0
1,note_on,67,0,480
1,note_on,71,0,0
1,note_on,62,0,0
1,note_on,67,51,0
1,note_on,71,51,0
1,note_on,74,60,0
1,note_on,74,0,240
1,note_on,71,0,0
1,note_on,67,0,0
1,note_on,76,62,0
1,note_on,71,52,0
1,note_on,67,52,0
1,note_on,67,0,240
1,note_on,71,0,0
1,note_on,76,0,0
1,note_on,67,56,0
1,note_on,71,56,0
1,note_on,77,66,0
1,note_on,77,0,216
1,note_on,71,0,0
1,note_on,67,0,0
1,note_on,67,52,24
1,note_on,71,52,0
1,note_on,76,62,0
1,note_on,76,0,216
1,note_on,71,0,0
1,note_on,67,0,0
1,note_on,71,58,24
1,note_on,67,58,0
1,note_on,77,69,0
1,note_on,77,0,120
1,note_on,81,65,0
1,note_on,67,0,96
1,note_on,71,0,0
1,note_on,81,0,24
1,note_on,71,56,0
1,note_on,79,66,0
1,note_on,79,0,216
1,note_on,71,0,0
1,note_on,77,66,24
1,note_on,72,56,0
1,note_on,67,56,0
1,note_on,67,0,216
1,note_on,72,0,0
1,note_on,77,0,0
1,note_on,67,43,24
1,note_on,72,43,0
1,note_on,76,51,0
1,note_on,76,0,216
1,note_on,67,0,0
1,note_on,72,0,24
1,note_on,74,50,0
1,note_on,67,42,0
1,note_on,65,42,0
1,note_on,65,0,216
1,note_on,74,0,0
1,note_on,67,0,24
1,note_on,72,52,0
1,note_on,67,44,0
1,note_on,64,44,0
1,note_on,64,0,216
1,note_on,72,0,0
1,note_on,67,0,24
1,note_on,62,53,0
1,note_on,72,63,0
1,note_on,67,53,0
1,note_on,67,0,216
1,note_on,72,0,0
1,note_on,62,0,0
1,note_on,67,45,24
1,note_on,62,45,0
1,note_on,71,54,0
1,note_on,71,0,216
1,note_on,62,0,0
1,note_on,67,0,0
1,note_on,62,47,24
1,note_on,72,56,0
1,note_on,66,47,0
1,note_on,66,0,216
1,note_on,72,0,0
1,note_on,62,0,0
1,note_on,66,45,24
1,note_on,71,53,0
1,note_on,62,45,0
1,note_on,62,0,216
1,note_on,71,0,0
1,note_on,66,0,0
1,note_on,62,38,24
1,note_on,59,45,0
1,note_on,67,53,0
1,note_on,67,0,960
1,note_on,59,0,0
1,note_on,62,0,0
1,note_on,58,71,0
1,note_on,58,0,120
1,note_on,57,60,0
1,note_on,57,0,120
1,note_on,55,61,0
1,note_on,55,0,120
1,note_on,57,61,0
1,note_on,57,0,120
1,note_on,58,71,0
1,note_on,58,0,120
1,note_on,55,62,0
1,note_on,55,0,120
1,note_on,58,62,0
1,note_on,58,0,120
1,note_on,55,62,0
1,note_on,55,0,110
1,note_on,67,82,10
1,note_on,67,0,230
1,note_on,55,68,10
1,note_on,55,0,120
1,note_on,55,68,120
1,note_on,55,0,120
1,note_on,55,68,120
1,note_on,55,0,120
1,note_on,60,64,120
1,note_on,67,76,0
1,note_on,63,64,0
1,note_on,60,0,216
1,note_on,63,0,24
1,note_on,67,0,0
1,note_on,55,62,0
1,note_on,55,0,120
1,note_on,55,62,120
1,note_on,55,0,120
1,note_on,55,62,120
1,note_on,55,0,120
1,note_on,67,76,120
1,note_on,58,64,0
1,note_on,62,64,0
1,note_on,62,0,240
1,note_on,58,0,0
1,note_on,67,0,0
1,note_on,55,61,0
1,note_on,55,0,120
1,note_on,55,61,120
1,note_on,55,0,120
1,note_on,55,61,120
1,note_on,55,0,120
1,note_on,62,56,120
1,note_on,74,81,0
1,note_on,68,56,0
1,note_on,68,0,120
1,note_on,74,0,0
1,note_on,62,0,0
1,note_on,73,69,0
1,note_on,73,0,120
1,note_on,71,72,0
1,note_on,62,57,0
1,note_on,68,57,0
1,note_on,68,0,120
1,note_on,62,0,0
1,note_on,71,0,0
1,note_on,73,73,0
1,note_on,73,0,120
1,note_on,68,59,0
1,note_on,65,59,0
1,note_on,74,86,0
1,note_on,74,0,120
1,note_on,65,0,0
1,note_on,68,0,0
1,note_on,71,77,0
1,note_on,71,0,120
1,note_on,74,78,0
1,note_on,68,62,0
1,note_on,65,62,0
1,note_on,65,0,120
1,note_on,68,0,0
1,note_on,74,0,0
1,note_on,71,80,0
1,note_on,71,0,120
1,note_on,78,95,0
1,note_on,66,81,0
1,note_on,71,81,0
1,note_on,74,81,0
1,note_on,74,0,240
1,note_on,78,0,0
1,note_on,66,0,0
1,note_on,71,0,0
1,note_on,66,71,0
1,note_on,62,59,0
1,note_on,62,0,120
1,note_on,66,0,0
1,note_on,62,59,120
1,note_on,66,71,0
1,note_on,66,0,120
1,note_on,62,0,0
1,note_on,66,71,120
1,note_on,62,59,0
1,note_on,62,0,120
1,note_on,66,0,0
1,note_on,67,60,120
1,note_on,61,47,0
1,note_on,61,0,120
1,note_on,67,0,0
1,note_on,66,50,0
1,note_on,66,0,120
1,note_on,69,51,0
1,note_on,61,47,0
1,note_on,61,0,120
1,note_on,69,0,0
1,note_on,67,51,0
1,note_on,67,0,120
1,note_on,66,60,0
1,note_on,64,47,0
1,note_on,64,0,120
1,note_on,66,0,0
1,note_on,66,52,120
1,note_on,64,47,0
1,note_on,64,0,120
1,note_on,66,0,0
1,note_on,71,73,120
1,note_on,59,62,0
1,note_on,66,62,0
1,note_on,62,62,0
1,note_on,62,0,120
1,note_on,71,0,0
1,note_on,59,0,0
1,note_on,66,0,0
1,note_on,62,63,120
1,note_on,62,0,120
1,note_on,62,63,120
1,note_on,57,63,0
1,note_on,60,63,0
1,note_on,66,75,0
1,note_on,66,0,120
1,note_on,62,0,0
1,note_on,57,0,0
1,note_on,60,0,0
1,note_on,62,78,120
1,note_on,62,0,120
1,note_on,62,69,120
1,note_on,58,69,0
1,note_on,67,81,0
1,note_on,67,0,120
1,note_on,58,0,0
1,note_on,62,0,0
1,note_on,57,69,0
1,note_on,57,0,120
1,note_on,55,70,0
1,note_on,55,0,120
1,note_on,57,70,0
1,note_on,57,0,120
1,note_on,58,81,0
1,note_on,58,0,120
1,note_on,55,71,0
1,note_on,55,0,120
1,note_on,58,71,0
1,note_on,58,0,120
1,note_on,55,71,0
1,note_on,55,0,110
1,note_on,67,82,10
1,note_on,67,0,230
1,note_on,55,68,10
1,note_on,55,0,120
1,note_on,55,68,120
1,note_on,55,0,120
1,note_on,55,68,120
1,note_on,55,0,120
1,note_on,60,67,120
1,note_on,67,79,0
1,note_on,63,67,0
1,note_on,63,0,120
1,note_on,67,0,0
1,note_on,60,0,0
1,note_on,55,62,120
1,note_on,55,0,120
1,note_on,55,62,120
1,note_on,55,0,120
1,note_on,55,62,120
1,note_on,55,0,120
1,note_on,58,64,120
1,note_on,62,64,0
1,note_on,67,76,0
1,note_on,67,0,240
1,note_on,62,0,0
1,note_on,58,0,0
1,note_on,55,61,0
1,note_on,55,0,120
1,note_on,55,61,120
1,note_on,55,0,120
1,note_on,55,61,120
1,note_on,55,0,120
1,note_on,77,89,120
1,note_on,65,61,0
1,note_on,71,61,0
1,note_on,71,0,120
1,note_on,65,0,0
1,note_on,77,0,0
1,note_on,76,75,0
1,note_on,76,0,120
1,note_on,65,62,0
1,note_on,71,62,0
1,note_on,74,79,0
1,note_on,74,0,120
1,note_on,71,0,0
1,note_on,65,0,0
1,note_on,76,80,0
1,note_on,76,0,120
1,note_on,71,64,0
1,note_on,77,94,0
1,note_on,68,64,0
1,note_on,68,0,120
1,note_on,77,0,0
1,note_on,71,0,0
1,note_on,74,84,0
1,note_on,74,0,120
1,note_on,77,85,0
1,note_on,71,68,0
1,note_on,68,68,0
1,note_on,68,0,120
1,note_on,71,0,0
1,note_on,77,0,0
1,note_on,74,88,0
1,note_on,74,0,120
1,note_on,69,81,0
1,note_on,81,95,0
1,note_on,74,81,0
1,note_on,77,81,0
1,note_on,77,0,240
1,note_on,69,0,0
1,note_on,81,0,0
1,note_on,74,0,0
1,note_on,69,78,0
1,note_on,65,64,0
1,note_on,65,0,120
1,note_on,69,0,0
1,note_on,69,78,120
1,note_on,65,64,0
1,note_on,65,0,120
1,note_on,69,0,0
1,note_on,69,78,120
1,note_on,65,64,0
1,note_on,65,0,120
1,note_on,69,0,0
1,note_on,70,60,120
1,note_on,64,47,0
1,note_on,64,0,120
1,note_on,70,0,0
1,note_on,69,51,0
1,note_on,69,0,120
1,note_on,64,47,0
1,note_on,72,51,0
1,note_on,72,0,120
1,note_on,64,0,0
1,note_on,70,51,0
1,note_on,70,0,120
1,note_on,67,47,0
1,note_on,69,60,0
1,note_on,69,0,120
1,note_on,67,0,0
1,note_on,67,47,120
1,note_on,69,52,0
1,note_on,69,0,120
1,note_on,67,0,0
1,note_on,74,73,120
1,note_on,69,62,0
1,note_on,65,62,0
1,note_on,62,62,0
1,note_on,62,0,238
1,note_on,74,0,2
1,note_on,69,0,0
1,note_on,65,0,0
1,note_on,62,63,0
1,note_on,62,0,120
1,note_on,62,75,120
1,note_on,62,0,120
1,note_on,62,78,120
1,note_on,62,0,120
1,note_on,65,47,120
1,note_on,69,60,0
1,note_on,69,0,120
1,note_on,68,51,0
1,note_on,68,0,120
1,note_on,70,53,0
1,note_on,70,0,120
1,note_on,69,51,0
1,note_on,69,0,110
1,note_on,65,0,0
1,note_on,65,47,10
1,note_on,69,60,0
1,note_on,69,0,120
1,note_on,65,0,0
1,note_on,69,52,120
1,note_on,65,47,0
1,note_on,65,0,120
1,note_on,69,0,0
1,note_on,64,59,120
1,note_on,72,70,0
1,note_on,72,0,240
1,note_on,67,53,0
1,note_on,67,0,120
1,note_on,64,0,110
1,note_on,64,56,10
1,note_on,67,66,0
1,note_on,67,0,120
1,note_on,64,0,0
1,note_on,64,52,120
1,note_on,67,62,0
1,note_on,67,0,120
1,note_on,64,0,0
1,note_on,67,69,120
1,note_on,70,69,0
1,note_on,70,0,120
1,note_on,69,57,0
1,note_on,69,0,120
1,note_on,72,57,0
1,note_on,72,0,120
1,note_on,70,57,0
1,note_on,70,0,110
1,note_on,67,0,0
1,note_on,70,69,10
1,note_on,67,69,0
1,note_on,67,0,120
1,note_on,70,0,0
1,note_on,67,49,120
1,note_on,70,54,0
1,note_on,70,0,120
1,note_on,67,0,0
1,note_on,74,73,120
1,note_on,66,61,0
1,note_on,74,0,240
1,note_on,69,55,0
1,note_on,69,0,120
1,note_on,66,0,110
1,note_on,66,58,10
1,note_on,69,69,0
1,note_on,69,0,120
1,note_on,66,0,0
1,note_on,66,54,120
1,note_on,69,65,0
1,note_on,69,0,120
1,note_on,66,0,0
1,note_on,74,72,120
1,note_on,70,72,0
1,note_on,74,0,120
1,note_on,73,59,0
1,note_on,73,0,120
1,note_on,76,62,0
1,note_on,76,0,120
1,note_on,74,61,0
1,note_on,74,0,110
1,note_on,70,0,0
1,note_on,74,72,10
1,note_on,70,72,0
1,note_on,70,0,120
1,note_on,74,0,0
1,note_on,70,51,120
1,note_on,74,56,0
1,note_on,74,0,120
1,note_on,70,0,0
1,note_on,69,64,120
1,note_on,77,76,0
1,note_on,77,0,240
1,note_on,72,57,0
1,note_on,72,0,120
1,note_on,69,0,110
1,note_on,72,72,10
1,note_on,69,60,0
1,note_on,69,0,120
1,note_on,72,0,0
1,note_on,72,68,120
1,note_on,69,56,0
1,note_on,69,0,120
1,note_on,72,0,0
1,note_on,67,64,120
1,note_on,79,79,0
1,note_on,79,0,240
1,note_on,76,63,0
1,note_on,76,0,120
1,note_on,67,0,110
1,note_on,72,72,10
1,note_on,67,60,0
1,note_on,67,0,120
1,note_on,72,0,0
1,note_on,70,68,120
1,note_on,67,56,0
1,note_on,67,0,120
1,note_on,70,0,0
1,note_on,70,68,120
1,note_on,65,68,0
1,note_on,70,0,120
1,note_on,69,53,0
1,note_on,69,0,120
1,note_on,74,56,0
1,note_on,74,0,120
1,note_on,72,55,0
1,note_on,72,0,110
1,note_on,65,0,0
1,note_on,72,68,10
1,note_on,65,57,0
1,note_on,65,0,120
1,note_on,72,0,0
1,note_on,72,53,120
1,note_on,64,48,0
1,note_on,64,0,120
1,note_on,72,0,0
1,note_on,72,72,120
1,note_on,62,60,0
1,note_on,62,0,230
1,note_on,72,0,10
1,note_on,70,54,0
1,note_on,62,48,0
1,note_on,62,0,120
1,note_on,70,0,0
1,note_on,58,57,120
1,note_on,67,68,0
1,note_on,64,57,0
1,note_on,64,0,120
1,note_on,67,0,0
1,note_on,58,0,0
1,note_on,69,64,120
1,note_on,64,53,0
1,note_on,60,53,0
1,note_on,60,0,120
1,note_on,64,0,0
1,note_on,69,0,0
1,note_on,57,68,120
1,note_on,65,68,0
1,note_on,65,0,120
1,note_on,64,52,0
1,note_on,64,0,120
1,note_on,67,56,0
1,note_on,67,0,120
1,note_on,65,52,0
1,note_on,65,0,110
1,note_on,57,0,0
1,note_on,57,57,10
1,note_on,65,68,0
1,note_on,65,0,120
1,note_on,57,0,0
1,note_on,57,48,120
1,note_on,65,53,0
1,note_on,65,0,120
1,note_on,57,0,0
1,note_on,57,64,120
1,note_on,62,64,0
1,note_on,60,64,0
1,note_on,66,76,0
1,note_on,66,0,120
1,note_on,57,0,0
1,note_on,62,0,0
1,note_on,60,0,0
1,note_on,66,71,120
1,note_on,60,60,0
1,note_on,57,60,0
1,note_on,62,60,0
1,note_on,62,0,120
1,note_on,66,0,0
1,note_on,60,0,0
1,note_on,57,0,0
1,note_on,60,59,120
1,note_on,62,59,0
1,note_on,57,59,0
1,note_on,66,70,0
1,note_on,66,0,120
1,note_on,60,0,0
1,note_on,62,0,0
1,note_on,57,0,0
1,note_on,66,70,120
1,note_on,62,59,0
1,note_on,60,59,0
1,note_on,57,59,0
1,note_on,57,0,120
1,note_on,66,0,0
1,note_on,62,0,0
1,note_on,60,0,0
1,note_on,62,58,120
1,note_on,66,58,0
1,note_on,74,69,0
1,note_on,69,58,0
1,note_on,69,0,120
1,note_on,62,0,0
1,note_on,66,0,0
1,note_on,74,0,0
1,note_on,69,53,120
1,note_on,66,53,0
1,note_on,74,63,0
1,note_on,62,53,0
1,note_on,62,0,120
1,note_on,69,0,0
1,note_on,66,0,0
1,note_on,74,0,0
1,note_on,74,63,120
1,note_on,62,53,0
1,note_on,66,53,0
1,note_on,69,53,0
1,note_on,69,0,120
1,note_on,74,0,0
1,note_on,62,0,0
1,note_on,66,0,0
1,note_on,62,53,120
1,note_on,66,53,0
1,note_on,74,63,0
1,note_on,69,53,0
1,note_on,69,0,120
1,note_on,62,0,0
1,note_on,66,0,0
1,note_on,74,0,0
1,note_on,58,81,120
1,note_on,58,0,120
1,note_on,57,68,0
1,note_on,57,0,120
1,note_on,55,70,0
1,note_on,55,0,120
1,note_on,57,70,0
1,note_on,57,0,120
1,note_on,58,81,0
1,note_on,58,0,120
1,note_on,55,71,0
1,note_on,55,0,120
1,note_on,58,71,0
1,note_on,58,0,120
1,note_on,55,71,0
1,note_on,55,0,110
1,note_on,67,82,10
1,note_on,67,0,230
1,note_on,55,68,10
1,note_on,55,0,120
1,note_on,55,68,120
1,note_on,55,0,120
1,note_on,55,68,120
1,note_on,55,0,120
1,note_on,60,67,120
1,note_on,63,67,0
1,note_on,67,79,0
1,note_on,67,0,120
1,note_on,63,0,0
1,note_on,60,0,0
1,note_on,55,62,120
1,note_on,55,0,120
1,note_on,55,62,120
1,note_on,55,0,120
1,note_on,55,62,120
1,note_on,55,0,120
1,note_on,67,76,120
1,note_on,62,64,0
1,note_on,58,64,0
1,note_on,58,0,240
1,note_on,62,0,0
1,note_on,67,0,0
1,note_on,55,61,0
1,note_on,55,0,120
1,note_on,55,61,120
1,note_on,55,0,120
1,note_on,55,61,120
1,note_on,55,0,120
1,note_on,62,56,120
1,note_on,74,81,0
1,note_on,68,56,0
1,note_on,74,0,120
1,note_on,73,69,0
1,note_on,73,0,120
1,note_on,71,72,0
1,note_on,71,0,120
1,note_on,73,73,0
1,note_on,68,0,110
1,note_on,62,0,0
1,note_on,73,0,10
1,note_on,74,86,0
1,note_on,65,59,0
1,note_on,68,59,0
1,note_on,68,0,120
1,note_on,65,0,0
1,note_on,74,0,0
1,note_on,71,77,0
1,note_on,71,0,120
1,note_on,68,62,0
1,note_on,74,78,0
1,note_on,65,62,0
1,note_on,65,0,120
1,note_on,74,0,0
1,note_on,68,0,0
1,note_on,71,80,0
1,note_on,71,0,120
1,note_on,71,81,0
1,note_on,66,81,0
1,note_on,74,81,0
1,note_on,78,95,0
1,note_on,66,0,238
1,note_on,71,0,2
1,note_on,74,0,0
1,note_on,78,0,0
1,note_on,62,59,0
1,note_on,66,71,0
1,note_on,66,0,120
1,note_on,62,0,0
1,note_on,62,59,120
1,note_on,66,71,0
1,note_on,66,0,120
1,note_on,62,0,0
1,note_on,62,59,120
1,note_on,66,71,0
1,note_on,66,0,120
1,note_on,62,0,0
1,note_on,67,60,120
1,note_on,61,47,0
1,note_on,61,0,120
1,note_on,67,0,0
1,note_on,66,51,0
1,note_on,66,0,120
1,note_on,69,51,0
1,note_on,61,47,0
1,note_on,61,0,120
1,note_on,69,0,0
1,note_on,67,51,0
1,note_on,67,0,120
1,note_on,64,47,0
1,note_on,66,60,0
1,note_on,66,0,120
1,note_on,64,0,0
1,note_on,66,52,120
1,note_on,64,47,0
1,note_on,64,0,120
1,note_on,66,0,0
1,note_on,66,62,120
1,note_on,71,73,0
1,note_on,62,62,0
1,note_on,59,62,0
1,note_on,62,0,238
1,note_on,66,0,2
1,note_on,71,0,0
1,note_on,59,0,0
1,note_on,62,63,0
1,note_on,62,0,120
1,note_on,62,63,120
1,note_on,66,75,0
1,note_on,57,63,0
1,note_on,60,63,0
1,note_on,60,0,120
1,note_on,62,0,0
1,note_on,66,0,0
1,note_on,57,0,0
1,note_on,62,78,120
1,note_on,62,0,120
1,note_on,58,69,120
1,note_on,62,69,0
1,note_on,67,81,0
1,note_on,67,0,120
1,note_on,62,0,0
1,note_on,58,0,0
1,note_on,57,69,0
1,note_on,57,0,120
1,note_on,55,70,0
1,note_on,55,0,120
1,note_on,57,70,0
1,note_on,57,0,120
1,note_on,58,81,0
1,note_on,58,0,120
1,note_on,55,71,0
1,note_on,55,0,120
1,note_on,58,71,0
1,note_on,58,0,120
1,note_on,55,71,0
1,note_on,55,0,120
1,note_on,67,82,0
1,note_on,67,0,230
1,note_on,55,68,10
1,note_on,55,0,120
1,note_on,55,68,120
1,note_on,55,0,120
1,note_on,55,68,120
1,note_on,55,0,120
1,note_on,63,67,120
1,note_on,67,79,0
1,note_on,60,67,0
1,note_on,60,0,120
1,note_on,67,0,0
1,note_on,63,0,0
1,note_on,55,62,120
1,note_on,55,0,120
1,note_on,55,62,120
1,note_on,55,0,120
1,note_on,55,62,120
1,note_on,55,0,120
1,note_on,62,64,120
1,note_on,67,76,0
1,note_on,58,64,0
1,note_on,58,0,240
1,note_on,67,0,0
1,note_on,62,0,0
1,note_on,55,61,0
1,note_on,55,0,120
1,note_on,55,61,120
1,note_on,55,0,120
1,note_on,55,61,120
1,note_on,55,0,120
1,note_on,65,61,120
1,note_on,71,61,0
1,note_on,77,89,0
1,note_on,77,0,120
1,note_on,76,75,0
1,note_on,76,0,120
1,note_on,74,79,0
1,note_on,74,0,120
1,note_on,76,80,0
1,note_on,71,0,110
1,note_on,65,0,0
1,note_on,76,0,10
1,note_on,68,64,0
1,note_on,77,94,0
1,note_on,71,64,0
1,note_on,71,0,120
1,note_on,77,0,0
1,note_on,68,0,0
1,note_on,74,84,0
1,note_on,74,0,120
1,note_on,77,85,0
1,note_on,71,68,0
1,note_on,68,68,0
1,note_on,68,0,120
1,note_on,71,0,0
1,note_on,77,0,0
1,note_on,74,88,0
1,note_on,74,0,118
1,note_on,81,95,2
1,note_on,74,81,0
1,note_on,69,81,0
1,note_on,77,81,0
1,note_on,69,0,230
1,note_on,81,0,10
1,note_on,74,0,0
1,note_on,77,0,0
1,note_on,69,78,0
1,note_on,65,64,0
1,note_on,65,0,120
1,note_on,69,0,0
1,note_on,65,64,120
1,note_on,69,78,0
1,note_on,69,0,120
1,note_on,65,0,0
1,note_on,65,64,120
1,note_on,69,78,0
1,note_on,69,0,120
1,note_on,65,0,0
1,note_on,81,97,120
1,note_on,75,67,0
1,note_on,69,67,0
1,note_on,81,0,120
1,note_on,80,82,0
1,note_on,80,0,120
1,note_on,78,86,0
1,note_on,78,0,120
1,note_on,80,88,0
1,note_on,69,0,110
1,note_on,75,0,0
1,note_on,80,0,10
1,note_on,75,70,0
1,note_on,81,103,0
1,note_on,71,70,0
1,note_on,71,0,120
1,note_on,81,0,0
1,note_on,75,0,0
1,note_on,78,92,0
1,note_on,78,0,120
1,note_on,71,74,0
1,note_on,75,74,0
1,note_on,81,93,0
1,note_on,81,0,120
1,note_on,75,0,0
1,note_on,71,0,0
1,note_on,78,96,0
1,note_on,78,0,120
1,note_on,78,89,0
1,note_on,73,89,0
1,note_on,85,104,0
1,note_on,81,89,0
1,note_on,73,0,230
1,note_on,78,0,10
1,note_on,85,0,0
1,note_on,81,0,0
1,note_on,69,64,0
1,note_on,73,78,0
1,note_on,73,0,120
1,note_on,69,0,0
1,note_on,73,78,120
1,note_on,69,64,0
1,note_on,69,0,120
1,note_on,73,0,0
1,note_on,69,64,120
1,note_on,73,78,0
1,note_on,73,0,120
1,note_on,69,0,0
1,note_on,68,47,120
1,note_on,74,60,0
1,note_on,74,0,120
1,note_on,73,49,0
1,note_on,73,0,120
1,note_on,76,51,0
1,note_on,76,0,120
1,note_on,74,48,0
1,note_on,74,0,110
1,note_on,68,0,0
1,note_on,73,60,10
1,note_on,71,47,0
1,note_on,71,0,120
1,note_on,73,0,0
1,note_on,71,47,120
1,note_on,73,52,0
1,note_on,73,0,120
1,note_on,71,0,0
1,note_on,78,61,120
1,note_on,66,51,0
1,note_on,69,51,0
1,note_on,73,51,0
1,note_on,73,0,120
1,note_on,78,0,0
1,note_on,66,0,0
1,note_on,69,0,0
1,note_on,66,43,120
1,note_on,69,43,0
1,note_on,73,51,0
1,note_on,73,0,120
1,note_on,69,0,0
1,note_on,66,0,0
1,note_on,66,43,120
1,note_on,69,43,0
1,note_on,73,51,0
1,note_on,73,0,120
1,note_on,69,0,0
1,note_on,66,0,0
1,note_on,73,51,120
1,note_on,66,43,0
1,note_on,69,43,0
1,note_on,69,0,120
1,note_on,66,0,0
1,note_on,73,0,0
1,note_on,78,61,120
1,note_on,66,51,0
1,note_on,69,51,0
1,note_on,73,51,0
1,note_on,73,0,120
1,note_on,78,0,0
1,note_on,66,0,0
1,note_on,69,0,0
1,note_on,69,43,120
1,note_on,73,51,0
1,note_on,66,43,0
1,note_on,66,0,120
1,note_on,73,0,0
1,note_on,69,0,0
1,note_on,73,51,120
1,note_on,69,43,0
1,note_on,66,43,0
1,note_on,66,0,120
1,note_on,69,0,0
1,note_on,73,0,0
1,note_on,69,43,120
1,note_on,66,43,0
1,note_on,73,51,0
1,note_on,73,0,120
1,note_on,66,0,0
1,note_on,69,0,0
1,note_on,74,51,120
1,note_on,72,51,0
1,note_on,66,51,0
1,note_on,69,51,0
1,note_on,78,61,0
1,note_on,78,0,240
1,note_on,66,0,0
1,note_on,74,0,0
1,note_on,72,0,0
1,note_on,69,0,0
1,note_on,74,50,0
1,note_on,72,42,0
1,note_on,66,42,0
1,note_on,69,42,0
1,note_on,69,0,216
1,note_on,74,0,0
1,note_on,72,0,0
1,note_on,66,0,0
1,note_on,74,49,24
1,note_on,72,41,0
1,note_on,66,41,0
1,note_on,69,41,0
1,note_on,69,0,120
1,note_on,74,0,0
1,note_on,72,0,0
1,note_on,66,0,0
1,note_on,69,40,120
1,note_on,72,40,0
1,note_on,74,48,0
1,note_on,66,40,0
1,note_on,66,0,120
1,note_on,69,0,0
1,note_on,72,0,0
1,note_on,74,0,0
1,note_on,72,47,120
1,note_on,74,47,0
1,note_on,66,47,0
1,note_on,78,56,0
1,note_on,69,47,0
1,note_on,69,0,240
1,note_on,66,0,0
1,note_on,72,0,0
1,note_on,74,0,0
1,note_on,78,0,0
1,note_on,74,46,0
1,note_on,72,39,0
1,note_on,66,39,0
1,note_on,69,39,0
1,note_on,69,0,216
1,note_on,74,0,0
1,note_on,72,0,0
1,note_on,66,0,0
1,note_on,74,45,24
1,note_on,66,38,0
1,note_on,69,38,0
1,note_on,72,38,0
1,note_on,72,0,120
1,note_on,74,0,0
1,note_on,66,0,0
1,note_on,69,0,0
1,note_on,72,37,120
1,note_on,69,37,0
1,note_on,66,37,0
1,note_on,74,44,0
1,note_on,74,0,120
1,note_on,72,0,0
1,note_on,69,0,0
1,note_on,66,0,0
1,note_on,72,43,120
1,note_on,74,43,0
1,note_on,69,43,0
1,note_on,66,43,0
1,note_on,78,51,0
1,note_on,66,0,238
1,note_on,69,0,0
1,note_on,74,0,0
1,note_on,72,0,2
1,note_on,78,0,0
1,note_on,69,34,0
1,note_on,66,34,0
1,note_on,74,40,0
1,note_on,74,0,216
1,note_on,66,0,0
1,note_on,69,0,0
1,note_on,74,38,24
1,note_on,71,32,0
1,note_on,67,32,0
1,note_on,67,0,120
1,note_on,71,0,0
1,note_on,74,0,0
1,note_on,69,30,120
1,note_on,74,35,0
1,note_on,72,30,0
1,note_on,72,0,120
1,note_on,74,0,0
1,note_on,69,0,0
1,note_on,71,42,120
1,note_on,67,42,0
1,note_on,74,50,0
1,note_on,74,0,216
1,note_on,67,0,0
1,note_on,71,0,0
1,note_on,76,45,24
1,note_on,71,38,0
1,note_on,67,38,0
1,note_on,67,0,216
1,note_on,71,0,0
1,note_on,76,0,0
1,note_on,71,38,24
1,note_on,78,45,0
1,note_on,67,38,0
1,note_on,67,0,216
1,note_on,78,0,0
1,note_on,71,0,0
1,note_on,79,45,24
1,note_on,67,38,0
1,note_on,71,38,0
1,note_on,71,0,216
1,note_on,67,0,0
1,note_on,79,0,0
1,note_on,71,53,24
1,note_on,67,45,0
1,note_on,79,53,0
1,note_on,79,0,216
1,note_on,67,0,0
1,note_on,71,0,0
1,note_on,67,35,24
1,note_on,71,41,0
1,note_on,71,0,216
1,note_on,67,0,0
1,note_on,67,37,24
1,note_on,71,44,0
1,note_on,71,0,216
1,note_on,67,0,0
1,note_on,71,41,24
1,note_on,67,35,0
1,note_on,67,0,216
1,note_on,71,0,0
1,note_on,67,44,24
1,note_on,79,52,0
1,note_on,70,44,0
1,note_on,70,0,216
1,note_on,79,0,0
1,note_on,67,0,0
1,note_on,73,42,24
1,note_on,67,36,0
1,note_on,70,36,0
1,note_on,70,0,216
1,note_on,67,0,0
1,note_on,73,0,0
1,note_on,67,38,24
1,note_on,73,45,0
1,note_on,70,38,0
1,note_on,70,0,216
1,note_on,73,0,0
1,note_on,67,0,0
1,note_on,73,42,24
1,note_on,70,36,0
1,note_on,67,36,0
1,note_on,67,0,216
1,note_on,70,0,0
1,note_on,73,0,0
1,note_on,71,48,24
1,note_on,74,57,0
1,note_on,67,48,0
1,note_on,67,0,960
1,note_on,74,0,0
1,note_on,71,0,0
1,note_on,71,42,0
1,note_on,67,42,0
1,note_on,76,50,0
1,note_on,76,0,216
1,note_on,67,0,0
1,note_on,71,0,0
1,note_on,74,45,24
1,note_on,71,38,0
1,note_on,67,38,0
1,note_on,67,0,216
1,note_on,71,0,0
1,note_on,74,0,0
1,note_on,67,38,24
1,note_on,71,45,0
1,note_on,71,0,216
1,note_on,67,0,0
1,note_on,67,45,24
1,note_on,67,0,216
1,note_on,67,53,24
1,note_on,71,53,0
1,note_on,62,45,0
1,note_on,62,0,216
1,note_on,71,0,0
1,note_on,67,0,0
1,note_on,69,41,24
1,note_on,62,35,0
1,note_on,66,35,0
1,note_on,62,0,216
1,note_on,69,0,0
1,note_on,66,0,24
1,note_on,66,37,0
1,note_on,62,37,0
1,note_on,69,44,0
1,note_on,69,0,216
1,note_on,62,0,0
1,note_on,66,0,24
1,note_on,66,35,0
1,note_on,69,41,0
1,note_on,62,35,0
1,note_on,62,0,216
1,note_on,69,0,0
1,note_on,66,0,24
1,note_on,76,52,0
1,note_on,70,44,0
1,note_on,67,44,0
1,note_on,67,0,216
1,note_on,70,0,0
1,note_on,76,0,0
1,note_on,73,42,24
1,note_on,67,36,0
1,note_on,70,36,0
1,note_on,70,0,216
1,note_on,67,0,0
1,note_on,73,0,0
1,note_on,70,38,24
1,note_on,73,45,0
1,note_on,67,38,0
1,note_on,67,0,216
1,note_on,73,0,0
1,note_on,70,0,0
1,note_on,70,36,24
1,note_on,73,42,0
1,note_on,67,36,0
1,note_on,67,0,216
1,note_on,73,0,0
1,note_on,70,0,0
1,note_on,74,57,24
1,note_on,66,48,0
1,note_on,69,48,0
1,note_on,69,0,960
1,note_on,66,0,0
1,note_on,74,0,0
1,note_on,74,50,0
1,note_on,69,42,0
1,note_on,65,42,0
1,note_on,65,0,216
1,note_on,69,0,0
1,note_on,74,0,0
1,note_on,69,39,24
1,note_on,65,39,0
1,note_on,74,47,0
1,note_on,74,0,216
1,note_on,65,0,0
1,note_on,69,0,0
1,note_on,69,41,24
1,note_on,65,41,0
1,note_on,76,49,0
1,note_on,76,0,216
1,note_on,65,0,0
1,note_on,69,0,0
1,note_on,69,43,24
1,note_on,77,51,0
1,note_on,77,0,216
1,note_on,69,0,0
1,note_on,68,53,24
1,note_on,77,53,0
1,note_on,64,45,0
1,note_on,64,0,216
1,note_on,77,0,0
1,note_on,68,0,0
1,note_on,68,35,24
1,note_on,64,35,0
1,note_on,71,41,0
1,note_on,71,0,216
1,note_on,64,0,0
1,note_on,68,0,24
1,note_on,68,37,0
1,note_on,71,44,0
1,note_on,64,37,0
1,note_on,64,0,216
1,note_on,71,0,0
1,note_on,68,0,24
1,note_on,68,35,0
1,note_on,64,35,0
1,note_on,71,41,0
1,note_on,71,0,216
1,note_on,64,0,0
1,note_on,68,0,24
1,note_on,64,44,0
1,note_on,69,44,0
1,note_on,72,52,0
1,note_on,72,0,216
1,note_on,69,0,0
1,note_on,64,0,0
1,note_on,72,45,24
1,note_on,64,38,0
1,note_on,69,38,0
1,note_on,69,0,216
1,note_on,64,0,0
1,note_on,72,0,0
1,note_on,74,45,24
1,note_on,64,38,0
1,note_on,69,38,0
1,note_on,69,0,216
1,note_on,64,0,0
1,note_on,74,0,0
1,note_on,76,45,24
1,note_on,64,38,0
1,note_on,67,38,0
1,note_on,67,0,216
1,note_on,64,0,0
1,note_on,76,0,0
1,note_on,66,53,24
1,note_on,76,53,0
1,note_on,62,45,0
1,note_on,62,0,216
1,note_on,76,0,0
1,note_on,66,0,0
1,note_on,62,35,24
1,note_on,69,41,0
1,note_on,66,35,0
1,note_on,69,0,216
1,note_on,62,0,0
1,note_on,66,0,24
1,note_on,62,37,0
1,note_on,66,37,0
1,note_on,69,44,0
1,note_on,69,0,216
1,note_on,62,0,0
1,note_on,66,0,24
1,note_on,62,35,0
1,note_on,66,35,0
1,note_on,69,41,0
1,note_on,69,0,216
1,note_on,62,0,0
1,note_on,66,0,24
1,note_on,71,52,0
1,note_on,67,44,0
1,note_on,62,44,0
1,note_on,62,0,216
1,note_on,67,0,0
1,note_on,71,0,0
1,note_on,62,45,24
1,note_on,76,54,0
1,note_on,67,45,0
1,note_on,67,0,216
1,note_on,76,0,0
1,note_on,62,0,0
1,note_on,67,43,24
1,note_on,74,51,0
1,note_on,62,43,0
1,note_on,62,0,216
1,note_on,74,0,0
1,note_on,67,0,0
1,note_on,62,40,24
1,note_on,67,40,0
1,note_on,71,48,0
1,note_on,71,0,216
1,note_on,67,0,0
1,note_on,62,0,0
1,note_on,66,53,24
1,note_on,62,45,0
1,note_on,74,53,0
1,note_on,74,0,216
1,note_on,62,0,0
1,note_on,66,0,0
1,note_on,69,41,24
1,note_on,62,35,0
1,note_on,66,35,0
1,note_on,62,0,216
1,note_on,69,0,0
1,note_on,66,0,24
1,note_on,62,37,0
1,note_on,69,44,0
1,note_on,66,37,0
1,note_on,69,0,216
1,note_on,62,0,0
1,note_on,66,0,24
1,note_on,66,35,0
1,note_on,69,41,0
1,note_on,62,35,0
1,note_on,62,0,216
1,note_on,69,0,0
1,note_on,66,0,24
1,note_on,71,52,0
1,note_on,62,44,0
1,note_on,67,44,0
1,note_on,67,0,216
1,note_on,62,0,0
1,note_on,71,0,0
1,note_on,62,45,24
1,note_on,76,54,0
1,note_on,67,45,0
1,note_on,67,0,216
1,note_on,76,0,0
1,note_on,62,0,0
1,note_on,74,51,24
1,note_on,67,43,0
1,note_on,62,43,0
1,note_on,62,0,216
1,note_on,67,0,0
1,note_on,74,0,0
1,note_on,62,40,24
1,note_on,67,40,0
1,note_on,71,48,0
1,note_on,71,0,216
1,note_on,67,0,0
1,note_on,62,0,0
1,note_on,66,39,24
1,note_on,74,47,0
1,note_on,62,39,0
1,note_on,62,0,216
1,note_on,74,0,0
1,note_on,66,0,0
1,note_on,66,34,24
1,note_on,62,34,0
1,note_on,69,40,0
1,note_on,69,0,216
1,note_on,62,0,0
1,note_on,66,0,24
1,note_on,74,36,0
1,note_on,66,30,0
1,note_on,69,30,0
1,note_on,69,0,216
1,note_on,74,0,0
1,note_on,66,0,24
1,note_on,66,28,0
1,note_on,74,33,0
1,note_on,70,28,0
1,note_on,70,0,216
1,note_on,74,0,0
1,note_on,66,0,24
1,note_on,71,37,0
1,note_on,74,45,0
1,note_on,67,37,0
1,note_on,67,0,216
1,note_on,74,0,0
1,note_on,71,0,0
1,note_on,76,45,24
1,note_on,67,38,0
1,note_on,71,38,0
1,note_on,71,0,216
1,note_on,67,0,0
1,note_on,76,0,0
1,note_on,78,45,24
1,note_on,71,38,0
1,note_on,67,38,0
1,note_on,67,0,216
1,note_on,71,0,0
1,note_on,78,0,0
1,note_on,67,38,24
1,note_on,79,45,0
1,note_on,71,38,0
1,note_on,71,0,216
1,note_on,79,0,0
1,note_on,67,0,0
1,note_on,71,53,24
1,note_on,67,45,0
1,note_on,79,53,0
1,note_on,79,0,216
1,note_on,67,0,0
1,note_on,71,0,0
1,note_on,67,35,24
1,note_on,71,41,0
1,note_on,71,0,216
1,note_on,67,0,0
1,note_on,67,37,24
1,note_on,71,44,0
1,note_on,71,0,216
1,note_on,67,0,0
1,note_on,67,35,24
1,note_on,71,41,0
1,note_on,71,0,216
1,note_on,67,0,0
1,note_on,79,52,24
1,note_on,67,44,0
1,note_on,70,44,0
1,note_on,70,0,216
1,note_on,67,0,0
1,note_on,79,0,0
1,note_on,67,38,24
1,note_on,70,38,0
1,note_on,73,45,0
1,note_on,73,0,216
1,note_on,70,0,0
1,note_on,67,0,0
1,note_on,70,38,24
1,note_on,67,38,0
1,note_on,73,45,0
1,note_on,73,0,216
1,note_on,67,0,0
1,note_on,70,0,0
1,note_on,67,38,24
1,note_on,73,45,0
1,note_on,70,38,0
1,note_on,70,0,216
1,note_on,73,0,0
1,note_on,67,0,0
1,note_on,74,57,24
1,note_on,71,48,0
1,note_on,67,48,0
1,note_on,67,0,960
1,note_on,71,0,0
1,note_on,74,0,0
1,note_on,71,51,0
1,note_on,77,61,0
1,note_on,67,51,0
1,note_on,67,0,216
1,note_on,77,0,0
1,note_on,71,0,0
1,note_on,67,44,24
1,note_on,71,44,0
1,note_on,76,52,0
1,note_on,76,0,216
1,note_on,71,0,0
1,note_on,67,0,0
1,note_on,77,57,24
1,note_on,67,48,0
1,note_on,71,48,0
1,note_on,67,0,216
1,note_on,77,0,0
1,note_on,71,0,24
1,note_on,71,44,0
1,note_on,79,52,0
1,note_on,79,0,216
1,note_on,71,0,24
1,note_on,77,63,0
1,note_on,72,53,0
1,note_on,67,53,0
1,note_on,67,0,216
1,note_on,72,0,0
1,note_on,77,0,0
1,note_on,72,46,24
1,note_on,76,55,0
1,note_on,67,46,0
1,note_on,67,0,216
1,note_on,76,0,0
1,note_on,72,0,24
1,note_on,67,46,0
1,note_on,74,55,0
1,note_on,74,0,216
1,note_on,67,0,24
1,note_on,64,45,0
1,note_on,67,45,0
1,note_on,72,54,0
1,note_on,72,0,216
1,note_on,64,0,0
1,note_on,67,0,24
1,note_on,62,50,0
1,note_on,67,50,0
1,note_on,72,59,0
1,note_on,72,0,216
1,note_on,67,0,0
1,note_on,62,0,0
1,note_on,67,45,24
1,note_on,62,45,0
1,note_on,71,53,0
1,note_on,71,0,216
1,note_on,62,0,0
1,note_on,67,0,0
1,note_on,74,56,24
1,note_on,62,47,0
1,note_on,66,47,0
1,note_on,66,0,216
1,note_on,62,0,0
1,note_on,74,0,0
1,note_on,72,53,24
1,note_on,66,45,0
1,note_on,62,45,0
1,note_on,62,0,216
1,note_on,66,0,0
1,note_on,72,0,0
1,note_on,71,61,24
1,note_on,67,51,0
1,note_on,62,51,0
1,note_on,62,0,480
1,note_on,67,0,0
1,note_on,71,0,0
1,note_on,71,51,0
1,note_on,74,60,0
1,note_on,67,51,0
1,note_on,67,0,240
1,note_on,74,0,0
1,note_on,71,0,0
1,note_on,67,52,0
1,note_on,71,52,0
1,note_on,76,62,0
1,note_on,76,0,240
1,note_on,71,0,0
1,note_on,67,0,0
1,note_on,71,56,0
1,note_on,67,56,0
1,note_on,77,66,0
1,note_on,77,0,216
1,note_on,67,0,0
1,note_on,71,0,0
1,note_on,71,52,24
1,note_on,67,52,0
1,note_on,76,62,0
1,note_on,76,0,216
1,note_on,67,0,0
1,note_on,71,0,0
1,note_on,77,69,24
1,note_on,71,58,0
1,note_on,67,58,0
1,note_on,77,0,120
1,note_on,81,65,0
1,note_on,67,0,96
1,note_on,71,0,0
1,note_on,81,0,24
1,note_on,71,56,0
1,note_on,79,66,0
1,note_on,79,0,216
1,note_on,71,0,0
1,note_on,67,56,24
1,note_on,77,66,0
1,note_on,72,56,0
1,note_on,72,0,216
1,note_on,77,0,0
1,note_on,67,0,0
1,note_on,67,43,24
1,note_on,76,51,0
1,note_on,72,43,0
1,note_on,76,0,216
1,note_on,67,0,0
1,note_on,72,0,24
1,note_on,74,50,0
1,note_on,67,42,0
1,note_on,65,42,0
1,note_on,65,0,216
1,note_on,74,0,0
1,note_on,67,0,24
1,note_on,67,44,0
1,note_on,64,44,0
1,note_on,72,52,0
1,note_on,72,0,216
1,note_on,64,0,0
1,note_on,67,0,24
1,note_on,67,53,0
1,note_on,72,63,0
1,note_on,62,53,0
1,note_on,62,0,216
1,note_on,72,0,0
1,note_on,67,0,0
1,note_on,62,45,24
1,note_on,71,54,0
1,note_on,67,45,0
1,note_on,67,0,216
1,note_on,71,0,0
1,note_on,62,0,0
1,note_on,62,47,24
1,note_on,72,56,0
1,note_on,66,47,0
1,note_on,66,0,216
1,note_on,72,0,0
1,note_on,62,0,0
1,note_on,66,45,24
1,note_on,62,45,0
1,note_on,71,53,0
1,note_on,71,0,216
1,note_on,62,0,0
1,note_on,66,0,0
1,note_on,59,45,24
1,note_on,62,38,0
1,note_on,67,53,0
1,note_on,67,0,710
1,note_on,62,0,0
1,note_on,59,0,0
1,note_on,62,41,10
1,note_on,59,41,0
1,note_on,71,49,0
1,note_on,71,0,216
1,note_on,59,0,0
1,note_on,62,0,24
1,note_on,71,59,0
1,note_on,60,50,0
1,note_on,62,50,0
1,note_on,62,0,216
1,note_on,60,0,0
1,note_on,71,0,0
1,note_on,60,42,24
1,note_on,62,42,0
1,note_on,72,51,0
1,note_on,72,0,216
1,note_on,62,0,0
1,note_on,60,0,0
1,note_on,62,44,24
1,note_on,69,53,0
1,note_on,60,44,0
1,note_on,60,0,216
1,note_on,69,0,0
1,note_on,62,0,0
1,note_on,60,39,24
1,note_on,62,39,0
1,note_on,69,47,0
1,note_on,69,0,216
1,note_on,62,0,0
1,note_on,60,0,0
1,note_on,59,50,24
1,note_on,69,59,0
1,note_on,62,50,0
1,note_on,62,0,216
1,note_on,69,0,0
1,note_on,59,0,0
1,note_on,59,42,24
1,note_on,62,42,0
1,note_on,71,51,0
1,note_on,71,0,216
1,note_on,62,0,0
1,note_on,59,0,0
1,note_on,67,53,24
1,note_on,62,44,0
1,note_on,59,44,0
1,note_on,59,0,216
1,note_on,62,0,0
1,note_on,67,0,0
1,note_on,67,47,24
1,note_on,59,39,0
1,note_on,62,39,0
1,note_on,62,0,216
1,note_on,59,0,0
1,note_on,67,0,0
1,note_on,62,50,24
1,note_on,60,50,0
1,note_on,67,59,0
1,note_on,67,0,216
1,note_on,60,0,0
1,note_on,62,0,0
1,note_on,62,42,24
1,note_on,60,42,0
1,note_on,66,51,0
1,note_on,66,0,216
1,note_on,60,0,0
1,note_on,62,0,0
1,note_on,69,44,24
1,note_on,66,44,0
1,note_on,76,65,0
1,note_on,76,0,216
1,note_on,66,0,0
1,note_on,69,0,0
1,note_on,74,60,24
1,note_on,66,42,0
1,note_on,69,42,0
1,note_on,69,0,216
1,note_on,66,0,0
1,note_on,74,0,0
1,note_on,71,38,24
1,note_on,67,45,0
1,note_on,74,59,0
1,note_on,74,0,710
1,note_on,67,0,0
1,note_on,71,0,0
1,note_on,62,41,10
1,note_on,59,41,0
1,note_on,71,49,0
1,note_on,71,0,216
1,note_on,59,0,0
1,note_on,62,0,24
1,note_on,62,50,0
1,note_on,60,50,0
1,note_on,71,59,0
1,note_on,71,0,216
1,note_on,60,0,0
1,note_on,62,0,0
1,note_on,72,51,24
1,note_on,62,42,0
1,note_on,60,42,0
1,note_on,60,0,216
1,note_on,62,0,0
1,note_on,72,0,0
1,note_on,69,53,24
1,note_on,60,44,0
1,note_on,62,44,0
1,note_on,62,0,216
1,note_on,60,0,0
1,note_on,69,0,0
1,note_on,60,39,24
1,note_on,62,39,0
1,note_on,69,47,0
1,note_on,69,0,216
1,note_on,62,0,0
1,note_on,60,0,0
1,note_on,69,59,24
1,note_on,62,50,0
1,note_on,59,50,0
1,note_on,59,0,216
1,note_on,62,0,0
1,note_on,69,0,0
1,note_on,62,42,24
1,note_on,59,42,0
1,note_on,71,51,0
1,note_on,71,0,216
1,note_on,59,0,0
1,note_on,62,0,0
1,note_on,67,53,24
1,note_on,59,44,0
1,note_on,62,44,0
1,note_on,62,0,216
1,note_on,59,0,0
1,note_on,67,0,0
1,note_on,59,39,24
1,note_on,62,39,0
1,note_on,67,47,0
1,note_on,67,0,216
1,note_on,62,0,0
1,note_on,59,0,0
1,note_on,67,59,24
1,note_on,62,50,0
1,note_on,60,50,0
1,note_on,60,0,216
1,note_on,62,0,0
1,note_on,67,0,0
1,note_on,66,51,24
1,note_on,60,42,0
1,note_on,62,42,0
1,note_on,62,0,216
1,note_on,60,0,0
1,note_on,66,0,0
1,note_on,62,44,24
1,note_on,60,44,0
1,note_on,71,57,0
1,note_on,71,0,216
1,note_on,60,0,0
1,note_on,62,0,0
1,note_on,69,54,24
1,note_on,60,42,0
1,note_on,62,42,0
1,note_on,62,0,216
1,note_on,60,0,0
1,note_on,69,0,0
1,note_on,59,45,24
1,note_on,67,53,0
1,note_on,62,38,0
1,note_on,62,0,960
1,note_on,67,0,0
1,note_on,59,0,0
1,note_on,58,49,0
1,note_on,58,0,120
1,note_on,57,42,0
1,note_on,57,0,120
1,note_on,55,42,0
1,note_on,55,0,120
1,note_on,57,42,0
1,note_on,57,0,120
1,note_on,58,49,0
1,note_on,58,0,120
1,note_on,55,43,0
1,note_on,55,0,120
1,note_on,58,43,0
1,note_on,58,0,120
1,note_on,55,43,0
1,note_on,55,0,120
1,note_on,58,49,0
1,note_on,58,0,120
1,note_on,57,42,0
1,note_on,57,0,120
1,note_on,55,42,0
1,note_on,55,0,120
1,note_on,57,42,0
1,note_on,57,0,120
1,note_on,58,49,0
1,note_on,58,0,120
1,note_on,55,43,0
1,note_on,55,0,120
1,note_on,58,43,0
1,note_on,58,0,120
1,note_on,55,43,0
1,note_on,55,0,120
1,note_on,64,44,0
1,note_on,61,44,0
1,note_on,67,44,0
1,note_on,70,53,0
1,note_on,61,0,216
1,note_on,64,0,24
1,note_on,67,0,0
1,note_on,70,0,0
1,note_on,69,43,0
1,note_on,64,36,0
1,note_on,61,36,0
1,note_on,67,36,0
1,note_on,67,0,120
1,note_on,69,0,0
1,note_on,64,0,0
1,note_on,61,0,0
1,note_on,61,36,120
1,note_on,64,36,0
1,note_on,67,36,0
1,note_on,69,43,0
1,note_on,69,0,120
1,note_on,61,0,0
1,note_on,64,0,0
1,note_on,67,0,0
1,note_on,64,36,120
1,note_on,61,36,0
1,note_on,67,36,0
1,note_on,69,43,0
1,note_on,69,0,120
1,note_on,64,0,0
1,note_on,61,0,0
1,note_on,67,0,0
1,note_on,67,44,120
1,note_on,61,44,0
1,note_on,69,53,0
1,note_on,64,44,0
1,note_on,64,0,960
1,note_on,67,0,0
1,note_on,61,0,0
1,note_on,69,0,0
1,note_on,58,49,0
1,note_on,58,0,120
1,note_on,57,41,0
1,note_on,57,0,120
1,note_on,55,42,0
1,note_on,55,0,120
1,note_on,57,41,0
1,note_on,57,0,120
1,note_on,58,49,0
1,note_on,58,0,120
1,note_on,55,41,0
1,note_on,55,0,120
1,note_on,58,43,0
1,note_on,58,0,120
1,note_on,55,41,0
1,note_on,55,0,120
1,note_on,58,49,0
1,note_on,58,0,120
1,note_on,57,41,0
1,note_on,57,0,120
1,note_on,55,42,0
1,note_on,55,0,120
1,note_on,57,40,0
1,note_on,57,0,120
1,note_on,58,49,0
1,note_on,58,0,120
1,note_on,55,41,0
1,note_on,55,0,120
1,note_on,58,43,0
1,note_on,58,0,120
1,note_on,55,41,0
1,note_on,55,0,120
1,note_on,64,44,0
1,note_on,70,53,0
1,note_on,61,44,0
1,note_on,67,44,0
1,note_on,61,0,216
1,note_on,64,0,24
1,note_on,70,0,0
1,note_on,67,0,0
1,note_on,69,43,0
1,note_on,61,36,0
1,note_on,67,36,0
1,note_on,64,36,0
1,note_on,64,0,120
1,note_on,69,0,0
1,note_on,61,0,0
1,note_on,67,0,0
1,note_on,67,36,120
1,note_on,61,36,0
1,note_on,69,43,0
1,note_on,64,36,0
1,note_on,64,0,120
1,note_on,67,0,0
1,note_on,61,0,0
1,note_on,69,0,0
1,note_on,69,43,120
1,note_on,61,36,0
1,note_on,64,36,0
1,note_on,67,36,0
1,note_on,67,0,120
1,note_on,69,0,0
1,note_on,61,0,0
1,note_on,64,0,0
1,note_on,64,44,120
1,note_on,69,53,0
1,note_on,61,44,0
1,note_on,67,44,0
1,note_on,67,0,1910
1,note_on,64,0,0
1,note_on,69,0,0
1,note_on,61,0,0
1,note_on,69,43,10
1,note_on,69,0,120
1,note_on,57,37,0
1,note_on,57,0,120
1,note_on,61,37,0
1,note_on,61,0,120
1,note_on,64,38,0
1,note_on,64,0,120
1,note_on,69,43,0
1,note_on,69,0,120
1,note_on,57,38,0
1,note_on,57,0,120
1,note_on,69,39,0
1,note_on,69,0,120
1,note_on,57,39,0
1,note_on,57,0,120
1,note_on,73,43,0
1,note_on,73,0,120
1,note_on,61,39,0
1,note_on,61,0,120
1,note_on,64,39,0
1,note_on,64,0,120
1,note_on,69,40,0
1,note_on,69,0,120
1,note_on,73,45,0
1,note_on,73,0,120
1,note_on,61,40,0
1,note_on,61,0,120
1,note_on,73,40,0
1,note_on,73,0,120
1,note_on,61,41,0
1,note_on,61,0,120
1,note_on,76,47,0
1,note_on,76,0,120
1,note_on,64,41,0
1,note_on,64,0,120
1,note_on,69,41,0
1,note_on,69,0,120
1,note_on,73,42,0
1,note_on,73,0,120
1,note_on,76,49,0
1,note_on,76,0,120
1,note_on,64,44,0
1,note_on,64,0,120
1,note_on,76,45,0
1,note_on,76,0,120
1,note_on,64,46,0
1,note_on,64,0,120
1,note_on,81,53,0
1,note_on,81,0,120
1,note_on,69,46,0
1,note_on,69,0,120
1,note_on,73,48,0
1,note_on,73,0,120
1,note_on,76,46,0
1,note_on,76,0,120
1,note_on,81,53,0
1,note_on,81,0,120
1,note_on,69,45,0
1,note_on,69,0,120
1,note_on,81,47,0
1,note_on,81,0,120
1,note_on,69,46,0
1,note_on,69,0,120
1,note_on,81,53,0
1,note_on,81,0,120
1,note_on,69,45,0
1,note_on,69,0,120
1,note_on,75,48,0
1,note_on,75,0,120
1,note_on,78,47,0
1,note_on,78,0,120
1,note_on,81,53,0
1,note_on,81,0,120
1,note_on,69,45,0
1,note_on,69,0,120
1,note_on,81,47,0
1,note_on,81,0,120
1,note_on,69,45,0
1,note_on,69,0,120
1,note_on,81,53,0
1,note_on,81,0,120
1,note_on,69,46,0
1,note_on,69,0,120
1,note_on,76,48,0
1,note_on,76,0,120
1,note_on,79,47,0
1,note_on,79,0,120
1,note_on,81,53,0
1,note_on,81,0,120
1,note_on,69,45,0
1,note_on,69,0,120
1,note_on,81,47,0
1,note_on,81,0,120
1,note_on,69,45,0
1,note_on,69,0,120
1,note_on,81,53,0
1,note_on,81,0,120
1,note_on,69,46,0
1,note_on,69,0,120
1,note_on,76,48,0
1,note_on,76,0,120
1,note_on,79,46,0
1,note_on,79,0,120
1,note_on,81,53,0
1,note_on,81,0,120
1,note_on,69,45,0
1,note_on,69,0,120
1,note_on,81,47,0
1,note_on,81,0,120
1,note_on,69,46,0
1,note_on,69,0,120
1,note_on,81,53,0
1,note_on,81,0,120
1,note_on,73,45,0
1,note_on,73,0,120
1,note_on,81,47,0
1,note_on,81,0,120
1,note_on,73,45,0
1,note_on,73,0,120
1,note_on,81,53,0
1,note_on,81,0,120
1,note_on,76,45,0
1,note_on,76,0,120
1,note_on,81,47,0
1,note_on,81,0,120
1,note_on,76,45,0
1,note_on,76,0,120
1,note_on,81,58,0
1,note_on,81,0,120
1,note_on,79,47,0
1,note_on,79,0,120
1,note_on,81,49,0
1,note_on,81,0,120
1,note_on,79,48,0
1,note_on,79,0,120
1,note_on,81,58,0
1,note_on,81,0,120
1,note_on,80,48,0
1,note_on,80,0,120
1,note_on,81,52,0
1,note_on,81,0,120
1,note_on,80,50,0
1,note_on,80,0,120
1,note_on,83,59,0
1,note_on,83,0,120
1,note_on,81,50,0
1,note_on,81,0,120
1,note_on,83,54,0
1,note_on,83,0,120
1,note_on,81,51,0
1,note_on,81,0,120
1,note_on,83,63,0
1,note_on,83,0,120
1,note_on,81,51,0
1,note_on,81,0,120
1,note_on,83,56,0
1,note_on,83,0,120
1,note_on,81,51,0
1,note_on,81,0,120
1,note_on,83,61,0
1,note_on,83,0,120
1,note_on,81,55,0
1,note_on,81,0,120
1,note_on,83,56,0
1,note_on,83,0,120
1,note_on,81,57,0
1,note_on,81,0,120
1,note_on,83,66,0
1,note_on,83,0,120
1,note_on,81,60,0
1,note_on,81,0,120
1,note_on,83,60,0
1,note_on,83,0,120
1,note_on,81,61,0
1,note_on,81,0,120
1,note_on,83,70,0
1,note_on,83,0,120
1,note_on,81,58,0
1,note_on,81,0,120
1,note_on,86,57,0
1,note_on,86,0,120
1,note_on,81,56,0
1,note_on,81,0,120
1,note_on,80,62,0
1,note_on,80,0,120
1,note_on,83,55,0
1,note_on,83,0,120
1,note_on,81,53,0
1,note_on,81,0,120
1,note_on,78,52,0
1,note_on,78,0,120
1,note_on,74,49,0
1,note_on,74,0,240
1,note_on,76,49,0
1,note_on,76,0,120
1,note_on,74,35,0
1,note_on,74,0,120
1,note_on,76,48,0
1,note_on,76,0,120
1,note_on,74,34,0
1,note_on,74,0,120
1,note_on,78,48,0
1,note_on,78,0,120
1,note_on,76,36,0
1,note_on,76,0,120
1,note_on,74,51,0
1,note_on,74,0,120
1,note_on,73,44,0
1,note_on,73,0,120
1,note_on,71,46,0
1,note_on,71,0,120
1,note_on,69,43,0
1,note_on,69,0,120
1,note_on,71,49,0
1,note_on,71,0,120
1,note_on,73,45,0
1,note_on,73,0,120
1,note_on,74,47,0
1,note_on,74,0,120
1,note_on,76,49,0
1,note_on,76,0,120
1,note_on,69,54,0
1,note_on,69,0,240
1,note_on,71,54,0
1,note_on,71,0,120
1,note_on,69,37,0
1,note_on,69,0,120
1,note_on,71,54,0
1,note_on,71,0,120
1,note_on,69,45,0
1,note_on,69,0,120
1,note_on,78,60,0
1,note_on,78,0,120
1,note_on,74,48,0
1,note_on,74,0,120
1,note_on,73,53,0
1,note_on,73,0,120
1,note_on,74,50,0
1,note_on,74,0,120
1,note_on,76,53,0
1,note_on,76,0,120
1,note_on,78,51,0
1,note_on,78,0,120
1,note_on,79,59,0
1,note_on,79,0,120
1,note_on,81,55,0
1,note_on,81,0,120
1,note_on,83,64,0
1,note_on,83,0,120
1,note_on,81,57,0
1,note_on,81,0,111
1,note_on,81,63,9
1,note_on,81,0,240
1,note_on,83,56,0
1,note_on,83,0,120
1,note_on,81,43,0
1,note_on,81,0,120
1,note_on,83,56,0
1,note_on,83,0,120
1,note_on,81,45,0
1,note_on,81,0,120
1,note_on,86,60,0
1,note_on,86,0,120
1,note_on,85,43,0
1,note_on,85,0,120
1,note_on,83,53,0
1,note_on,83,0,30
1,note_on,85,53,0
1,note_on,85,0,30
1,note_on,83,61,0
1,note_on,83,0,60
1,note_on,82,56,0
1,note_on,82,0,120
1,note_on,83,61,0
1,note_on,83,0,120
1,note_on,85,56,0
1,note_on,85,0,120
1,note_on,83,61,0
1,note_on,83,0,120
1,note_on,91,67,0
1,note_on,91,0,120
1,note_on,90,61,0
1,note_on,90,0,120
1,note_on,86,57,0
1,note_on,86,0,120
1,note_on,81,70,0
1,note_on,81,0,240
1,note_on,83,66,0
1,note_on,83,0,120
1,note_on,81,47,0
1,note_on,81,0,120
1,note_on,83,66,0
1,note_on,83,0,120
1,note_on,81,47,0
1,note_on,81,0,120
1,note_on,83,68,0
1,note_on,83,0,120
1,note_on,81,49,0
1,note_on,81,0,120
1,note_on,83,69,0
1,note_on,83,0,120
1,note_on,81,56,0
1,note_on,81,0,120
1,note_on,86,63,0
1,note_on,86,0,120
1,note_on,81,47,0
1,note_on,81,0,120
1,note_on,80,61,0
1,note_on,80,0,120
1,note_on,83,54,0
1,note_on,83,0,120
1,note_on,81,59,0
1,note_on,81,0,120
1,note_on,78,51,0
1,note_on,78,0,120
1,note_on,74,49,0
1,note_on,74,0,240
1,note_on,76,49,0
1,note_on,76,0,120
1,note_on,74,35,0
1,note_on,74,0,120
1,note_on,76,50,0
1,note_on,76,0,120
1,note_on,74,35,0
1,note_on,74,0,120
1,note_on,78,54,0
1,note_on,78,0,120
1,note_on,76,40,0
1,note_on,76,0,120
1,note_on,74,51,0
1,note_on,74,0,120
1,note_on,73,45,0
1,note_on,73,0,120
1,note_on,71,51,0
1,note_on,71,0,120
1,note_on,69,46,0
1,note_on,69,0,120
1,note_on,71,56,0
1,note_on,71,0,120
1,note_on,73,58,0
1,note_on,73,0,120
1,note_on,74,61,0
1,note_on,74,0,120
1,note_on,76,63,0
1,note_on,76,0,110
1,note_on,78,66,10
1,note_on,78,0,240
1,note_on,77,62,0
1,note_on,77,0,120
1,note_on,78,52,0
1,note_on,78,0,120
1,note_on,77,62,0
1,note_on,77,0,120
1,note_on,78,45,0
1,note_on,78,0,120
1,note_on,77,62,0
1,note_on,77,0,120
1,note_on,78,45,0
1,note_on,78,0,120
1,note_on,79,62,0
1,note_on,79,0,120
1,note_on,83,57,0
1,note_on,83,0,120
1,note_on,88,67,0
1,note_on,88,0,120
1,note_on,86,54,0
1,note_on,86,0,120
1,note_on,85,62,0
1,note_on,85,0,120
1,note_on,83,54,0
1,note_on,83,0,120
1,note_on,81,52,0
1,note_on,81,0,120
1,note_on,79,52,0
1,note_on,79,0,120
1,note_on,78,58,0
1,note_on,78,0,240
1,note_on,81,54,0
1,note_on,81,0,120
1,note_on,78,41,0
1,note_on,78,0,120
1,note_on,81,55,0
1,note_on,81,0,120
1,note_on,78,41,0
1,note_on,78,0,120
1,note_on,81,56,0
1,note_on,81,0,120
1,note_on,78,46,0
1,note_on,78,0,120
1,note_on,76,54,0
1,note_on,76,0,120
1,note_on,78,50,0
1,note_on,78,0,120
1,note_on,79,54,0
1,note_on,79,0,120
1,note_on,83,60,0
1,note_on,83,0,120
1,note_on,81,57,0
1,note_on,81,0,120
1,note_on,79,49,0
1,note_on,79,0,120
1,note_on,78,57,0
1,note_on,78,0,120
1,note_on,76,46,0
1,note_on,76,0,120
1,note_on,74,49,0
1,note_on,74,0,240
1,note_on,76,49,0
1,note_on,76,0,120
1,note_on,74,33,0
1,note_on,74,0,120
1,note_on,76,49,0
1,note_on,76,0,120
1,note_on,74,34,0
1,note_on,74,0,120
1,note_on,76,48,0
1,note_on,76,0,120
1,note_on,74,40,0
1,note_on,74,0,120
1,note_on,62,61,0
1,note_on,62,0,120
1,note_on,64,52,0
1,note_on,64,0,120
1,note_on,66,55,0
1,note_on,66,0,120
1,note_on,71,52,0
1,note_on,71,0,120
1,note_on,69,61,0
1,note_on,69,0,120
1,note_on,66,52,0
1,note_on,66,0,120
1,note_on,64,55,0
1,note_on,64,0,120
1,note_on,62,52,0
1,note_on,62,0,120
1,note_on,64,62,0
1,note_on,64,0,240
1,note_on,66,59,0
1,note_on,66,0,120
1,note_on,64,44,0
1,note_on,64,0,120
1,note_on,66,57,0
1,note_on,66,0,120
1,note_on,64,44,0
1,note_on,64,0,120
1,note_on,66,57,0
1,note_on,66,0,120
1,note_on,64,44,0
1,note_on,64,0,120
1,note_on,64,57,0
1,note_on,64,0,120
1,note_on,66,52,0
1,note_on,66,0,120
1,note_on,67,52,0
1,note_on,67,0,120
1,note_on,73,60,0
1,note_on,73,0,120
1,note_on,71,61,0
1,note_on,71,0,120
1,note_on,69,49,0
1,note_on,69,0,120
1,note_on,67,55,0
1,note_on,67,0,120
1,note_on,64,49,0
1,note_on,64,0,120
1,note_on,66,58,0
1,note_on,66,0,240
1,note_on,65,51,0
1,note_on,65,0,120
1,note_on,66,39,0
1,note_on,66,0,120
1,note_on,65,51,0
1,note_on,65,0,120
1,note_on,66,40,0
1,note_on,66,0,120
1,note_on,69,51,0
1,note_on,69,0,120
1,note_on,73,56,0
1,note_on,73,0,120
1,note_on,74,63,0
1,note_on,74,0,120
1,note_on,76,59,0
1,note_on,76,0,120
1,note_on,78,64,0
1,note_on,78,0,120
1,note_on,83,69,0
1,note_on,83,0,120
1,note_on,81,65,0
1,note_on,81,0,120
1,note_on,78,56,0
1,note_on,78,0,120
1,note_on,76,60,0
1,note_on,76,0,120
1,note_on,74,56,0
1,note_on,74,0,120
1,note_on,73,67,0
1,note_on,73,0,120
1,note_on,71,55,0
1,note_on,71,0,120
1,note_on,69,58,0
1,note_on,69,0,120
1,note_on,78,67,0
1,note_on,78,0,120
1,note_on,76,61,0
1,note_on,76,0,120
1,note_on,73,55,0
1,note_on,73,0,120
1,note_on,71,60,0
1,note_on,71,0,120
1,note_on,69,52,0
1,note_on,69,0,120
1,note_on,68,67,0
1,note_on,68,0,120
1,note_on,66,52,0
1,note_on,66,0,120
1,note_on,64,62,0
1,note_on,64,0,120
1,note_on,68,52,0
1,note_on,68,0,120
1,note_on,76,64,0
1,note_on,76,0,120
1,note_on,74,55,0
1,note_on,74,0,120
1,note_on,73,59,0
1,note_on,73,0,120
1,note_on,71,52,0
1,note_on,71,0,120
1,note_on,69,61,0
1,note_on,69,0,240
1,note_on,71,61,0
1,note_on,71,0,120
1,note_on,69,53,0
1,note_on,69,0,120
1,note_on,76,60,0
1,note_on,73,51,0
1,note_on,73,0,120
1,note_on,76,0,0
1,note_on,76,56,120
1,note_on,73,47,0
1,note_on,73,0,120
1,note_on,76,0,0
1,note_on,69,38,120
1,note_on,73,38,0
1,note_on,76,54,0
1,note_on,76,0,120
1,note_on,73,0,0
1,note_on,69,0,0
1,note_on,76,51,120
1,note_on,69,43,0
1,note_on,73,43,0
1,note_on,73,0,120
1,note_on,69,0,0
1,note_on,76,0,0
1,note_on,73,49,120
1,note_on,76,58,0
1,note_on,76,0,120
1,note_on,73,0,0
1,note_on,73,47,120
1,note_on,76,56,0
1,note_on,76,0,120
1,note_on,73,0,0
1,note_on,71,49,120
1,note_on,74,49,0
1,note_on,78,58,0
1,note_on,78,0,120
1,note_on,74,0,0
1,note_on,71,0,0
1,note_on,78,53,120
1,note_on,71,45,0
1,note_on,74,45,0
1,note_on,74,0,120
1,note_on,71,0,0
1,note_on,78,0,0
1,note_on,74,47,120
1,note_on,71,47,0
1,note_on,76,56,0
1,note_on,76,0,120
1,note_on,71,0,0
1,note_on,74,0,0
1,note_on,74,45,120
1,note_on,76,53,0
1,note_on,71,45,0
1,note_on,71,0,120
1,note_on,76,0,0
1,note_on,74,0,0
1,note_on,71,48,120
1,note_on,68,48,0
1,note_on,76,57,0
1,note_on,76,0,120
1,note_on,68,0,0
1,note_on,71,0,0
1,note_on,71,41,120
1,note_on,68,41,0
1,note_on,76,49,0
1,note_on,76,0,120
1,note_on,68,0,0
1,note_on,71,0,0
1,note_on,74,46,120
1,note_on,76,55,0
1,note_on,71,46,0
1,note_on,71,0,120
1,note_on,76,0,0
1,note_on,74,0,0
1,note_on,76,50,120
1,note_on,74,42,0
1,note_on,71,42,0
1,note_on,71,0,120
1,note_on,74,0,0
1,note_on,76,0,0
1,note_on,78,58,120
1,note_on,73,49,0
1,note_on,69,49,0
1,note_on,69,0,120
1,note_on,73,0,0
1,note_on,78,0,0
1,note_on,73,45,120
1,note_on,69,45,0
1,note_on,78,53,0
1,note_on,78,0,120
1,note_on,69,0,0
1,note_on,73,0,0
1,note_on,69,45,120
1,note_on,76,53,0
1,note_on,73,45,0
1,note_on,73,0,120
1,note_on,76,0,0
1,note_on,69,0,0
1,note_on,69,42,120
1,note_on,73,42,0
1,note_on,76,50,0
1,note_on,76,0,120
1,note_on,73,0,0
1,note_on,69,0,0
1,note_on,73,45,120
1,note_on,81,54,0
1,note_on,76,45,0
1,note_on,69,45,0
1,note_on,69,0,120
1,note_on,73,0,0
1,note_on,81,0,0
1,note_on,76,0,0
1,note_on,69,41,120
1,note_on,73,41,0
1,note_on,81,49,0
1,note_on,76,41,0
1,note_on,76,0,120
1,note_on,69,0,0
1,note_on,73,0,0
1,note_on,81,0,0
1,note_on,81,57,120
1,note_on,69,48,0
1,note_on,76,48,0
1,note_on,73,48,0
1,note_on,73,0,120
1,note_on,81,0,0
1,note_on,69,0,0
1,note_on,76,0,0
1,note_on,69,46,120
1,note_on,73,46,0
1,note_on,81,55,0
1,note_on,76,46,0
1,note_on,76,0,120
1,note_on,69,0,0
1,note_on,73,0,0
1,note_on,81,0,0
1,note_on,74,45,120
1,note_on,81,63,0
1,note_on,69,45,0
1,note_on,69,0,120
1,note_on,81,0,0
1,note_on,74,0,0
1,note_on,74,51,120
1,note_on,81,61,0
1,note_on,69,51,0
1,note_on,69,0,120
1,note_on,81,0,0
1,note_on,74,0,0
1,note_on,71,52,120
1,note_on,74,52,0
1,note_on,83,62,0
1,note_on,83,0,120
1,note_on,74,0,0
1,note_on,71,0,0
1,note_on,74,46,120
1,note_on,83,55,0
1,note_on,71,46,0
1,note_on,71,0,120
1,note_on,83,0,0
1,note_on,74,0,0
1,note_on,76,67,120
1,note_on,73,56,0
1,note_on,73,0,120
1,note_on,76,0,0
1,note_on,76,61,120
1,note_on,73,51,0
1,note_on,73,0,120
1,note_on,76,0,0
1,note_on,76,51,120
1,note_on,68,51,0
1,note_on,80,60,0
1,note_on,74,51,0
1,note_on,74,0,120
1,note_on,76,0,0
1,note_on,68,0,0
1,note_on,80,0,0
1,note_on,68,44,120
1,note_on,80,52,0
1,note_on,74,44,0
1,note_on,76,44,0
1,note_on,76,0,120
1,note_on,68,0,0
1,note_on,80,0,0
1,note_on,74,0,0
1,note_on,73,50,120
1,note_on,81,59,0
1,note_on,69,50,0
1,note_on,76,50,0
1,note_on,69,0,478
1,note_on,73,0,482
1,note_on,81,0,0
1,note_on,76,0,0
1,note_on,83,65,1920
1,note_on,83,0,120
1,note_on,81,53,0
1,note_on,81,0,120
1,note_on,86,57,0
1,note_on,86,0,120
1,note_on,81,56,0
1,note_on,81,0,120
1,note_on,80,62,0
1,note_on,80,0,120
1,note_on,83,55,0
1,note_on,83,0,120
1,note_on,81,53,0
1,note_on,81,0,120
1,note_on,78,52,0
1,note_on,78,0,120
1,note_on,74,49,0
1,note_on,74,0,240
1,note_on,76,49,0
1,note_on,76,0,120
1,note_on,74,35,0
1,note_on,74,0,120
1,note_on,76,49,0
1,note_on,76,0,120
1,note_on,74,33,0
1,note_on,74,0,120
1,note_on,78,48,0
1,note_on,78,0,120
1,note_on,76,41,0
1,note_on,76,0,120
1,note_on,74,51,0
1,note_on,74,0,120
1,note_on,73,44,0
1,note_on,73,0,120
1,note_on,71,46,0
1,note_on,71,0,120
1,note_on,69,45,0
1,note_on,69,0,120
1,note_on,71,49,0
1,note_on,71,0,120
1,note_on,73,45,0
1,note_on,73,0,120
1,note_on,74,47,0
1,note_on,74,0,120
1,note_on,76,49,0
1,note_on,76,0,120
1,note_on,69,54,0
1,note_on,69,0,240
1,note_on,71,54,0
1,note_on,71,0,120
1,note_on,69,39,0
1,note_on,69,0,120
1,note_on,71,54,0
1,note_on,71,0,120
1,note_on,69,45,0
1,note_on,69,0,120
1,note_on,78,60,0
1,note_on,78,0,120
1,note_on,74,48,0
1,note_on,74,0,120
1,note_on,73,53,0
1,note_on,73,0,120
1,note_on,74,50,0
1,note_on,74,0,120
1,note_on,76,53,0
1,note_on,76,0,120
1,note_on,78,51,0
1,note_on,78,0,120
1,note_on,79,59,0
1,note_on,79,0,120
1,note_on,81,53,0
1,note_on,81,0,120
1,note_on,83,64,0
1,note_on,83,0,120
1,note_on,81,57,0
1,note_on,81,0,111
1,note_on,81,63,9
1,note_on,81,0,240
1,note_on,83,56,0
1,note_on,83,0,120
1,note_on,81,48,0
1,note_on,81,0,120
1,note_on,83,55,0
1,note_on,83,0,120
1,note_on,81,46,0
1,note_on,81,0,120
1,note_on,86,60,0
1,note_on,86,0,120
1,note_on,85,52,0
1,note_on,85,0,120
1,note_on,83,48,0
1,note_on,83,0,30
1,note_on,85,47,0
1,note_on,85,0,30
1,note_on,83,61,0
1,note_on,83,0,60
1,note_on,82,56,0
1,note_on,82,0,120
1,note_on,83,61,0
1,note_on,83,0,120
1,note_on,85,56,0
1,note_on,85,0,120
1,note_on,83,61,0
1,note_on,83,0,120
1,note_on,91,67,0
1,note_on,91,0,120
1,note_on,86,61,0
1,note_on,86,0,120
1,note_on,83,57,0
1,note_on,83,0,120
1,note_on,81,70,0
1,note_on,81,0,240
1,note_on,83,66,0
1,note_on,83,0,120
1,note_on,81,54,0
1,note_on,81,0,120
1,note_on,83,67,0
1,note_on,83,0,120
1,note_on,81,53,0
1,note_on,81,0,120
1,note_on,83,68,0
1,note_on,83,0,120
1,note_on,81,63,0
1,note_on,81,0,120
1,note_on,82,58,0
1,note_on,82,0,120
1,note_on,81,42,0
1,note_on,81,0,120
1,note_on,86,53,0
1,note_on,86,0,120
1,note_on,81,43,0
1,note_on,81,0,120
1,note_on,80,51,0
1,note_on,80,0,120
1,note_on,82,43,0
1,note_on,82,0,120
1,note_on,81,50,0
1,note_on,81,0,120
1,note_on,77,43,0
1,note_on,77,0,120
1,note_on,74,41,0
1,note_on,74,0,240
1,note_on,76,41,0
1,note_on,76,0,120
1,note_on,74,33,0
1,note_on,74,0,120
1,note_on,76,42,0
1,note_on,76,0,120
1,note_on,74,31,0
1,note_on,74,0,120
1,note_on,76,45,0
1,note_on,76,0,120
1,note_on,74,34,0
1,note_on,74,0,120
1,note_on,79,43,0
1,note_on,79,0,120
1,note_on,77,38,0
1,note_on,77,0,120
1,note_on,76,44,0
1,note_on,76,0,120
1,note_on,77,41,0
1,note_on,77,0,120
1,note_on,79,51,0
1,note_on,79,0,120
1,note_on,81,54,0
1,note_on,81,0,120
1,note_on,82,58,0
1,note_on,82,0,120
1,note_on,84,61,0
1,note_on,84,0,110
1,note_on,86,66,10
1,note_on,86,0,240
1,note_on,85,62,0
1,note_on,85,0,120
1,note_on,86,50,0
1,note_on,86,0,120
1,note_on,85,62,0
1,note_on,85,0,120
1,note_on,86,48,0
1,note_on,86,0,120
1,note_on,88,62,0
1,note_on,88,0,120
1,note_on,86,53,0
1,note_on,86,0,120
1,note_on,88,62,0
1,note_on,88,0,120
1,note_on,86,60,0
1,note_on,86,0,120
1,note_on,89,67,0
1,note_on,89,0,120
1,note_on,88,60,0
1,note_on,88,0,120
1,note_on,86,69,0
1,note_on,86,0,120
1,note_on,88,66,0
1,note_on,88,0,120
1,note_on,89,68,0
1,note_on,89,0,120
1,note_on,92,71,0
1,note_on,92,0,120
1,note_on,93,74,0
1,note_on,93,0,360
1,note_on,90,61,0
1,note_on,90,0,120
1,note_on,93,69,0
1,note_on,93,0,120
1,note_on,90,54,0
1,note_on,90,0,120
1,note_on,93,64,0
1,note_on,93,0,120
1,note_on,90,56,0
1,note_on,90,0,120
1,note_on,88,62,0
1,note_on,88,0,120
1,note_on,90,57,0
1,note_on,90,0,120
1,note_on,91,62,0
1,note_on,91,0,120
1,note_on,95,69,0
1,note_on,95,0,120
1,note_on,93,65,0
1,note_on,93,0,120
1,note_on,91,56,0
1,note_on,91,0,120
1,note_on,90,65,0
1,note_on,90,0,120
1,note_on,88,57,0
1,note_on,88,0,120
1,note_on,93,74,0
1,note_on,93,0,360
1,note_on,90,61,0
1,note_on,90,0,120
1,note_on,93,69,0
1,note_on,93,0,120
1,note_on,90,54,0
1,note_on,90,0,120
1,note_on,86,64,0
1,note_on,86,0,120
1,note_on,85,56,0
1,note_on,85,0,120
1,note_on,83,62,0
1,note_on,83,0,120
1,note_on,86,56,0
1,note_on,86,0,120
1,note_on,91,60,0
1,note_on,91,0,120
1,note_on,90,65,0
1,note_on,90,0,120
1,note_on,88,60,0
1,note_on,88,0,120
1,note_on,86,50,0
1,note_on,86,0,120
1,note_on,85,57,0
1,note_on,85,0,120
1,note_on,83,49,0
1,note_on,83,0,120
1,note_on,81,55,0
1,note_on,81,0,360
1,note_on,78,45,0
1,note_on,78,0,120
1,note_on,81,51,0
1,note_on,81,0,120
1,note_on,78,40,0
1,note_on,78,0,120
1,note_on,81,48,0
1,note_on,81,0,120
1,note_on,78,42,0
1,note_on,78,0,120
1,note_on,76,46,0
1,note_on,76,0,120
1,note_on,78,42,0
1,note_on,78,0,120
1,note_on,79,46,0
1,note_on,79,0,120
1,note_on,83,51,0
1,note_on,83,0,120
1,note_on,81,48,0
1,note_on,81,0,120
1,note_on,79,42,0
1,note_on,79,0,120
1,note_on,78,48,0
1,note_on,78,0,120
1,note_on,76,42,0
1,note_on,76,0,120
1,note_on,81,55,0
1,note_on,81,0,360
1,note_on,78,45,0
1,note_on,78,0,120
1,note_on,81,51,0
1,note_on,81,0,120
1,note_on,78,40,0
1,note_on,78,0,120
1,note_on,74,48,0
1,note_on,74,0,120
1,note_on,73,42,0
1,note_on,73,0,120
1,note_on,71,46,0
1,note_on,71,0,120
1,note_on,74,42,0
1,note_on,74,0,120
1,note_on,79,46,0
1,note_on,79,0,120
1,note_on,78,51,0
1,note_on,78,0,120
1,note_on,76,48,0
1,note_on,76,0,120
1,note_on,74,42,0
1,note_on,74,0,120
1,note_on,73,48,0
1,note_on,73,0,120
1,note_on,71,42,0
1,note_on,71,0,120
1,note_on,69,55,0
1,note_on,69,0,360
1,note_on,90,49,0
1,note_on,90,0,120
1,note_on,93,56,0
1,note_on,93,0,120
1,note_on,90,44,0
1,note_on,90,0,120
1,note_on,93,52,0
1,note_on,93,0,120
1,note_on,90,46,0
1,note_on,90,0,120
1,note_on,88,50,0
1,note_on,88,0,120
1,note_on,90,46,0
1,note_on,90,0,120
1,note_on,91,50,0
1,note_on,91,0,120
1,note_on,95,56,0
1,note_on,95,0,120
1,note_on,93,52,0
1,note_on,93,0,120
1,note_on,91,46,0
1,note_on,91,0,120
1,note_on,90,52,0
1,note_on,90,0,120
1,note_on,88,46,0
1,note_on,88,0,120
1,note_on,93,60,0
1,note_on,93,0,360
1,note_on,90,49,0
1,note_on,90,0,120
1,note_on,93,56,0
1,note_on,93,0,120
1,note_on,90,44,0
1,note_on,90,0,120
1,note_on,86,52,0
1,note_on,86,0,120
1,note_on,85,46,0
1,note_on,85,0,120
1,note_on,83,50,0
1,note_on,83,0,120
1,note_on,86,46,0
1,note_on,86,0,120
1,note_on,91,50,0
1,note_on,91,0,120
1,note_on,90,55,0
1,note_on,90,0,120
1,note_on,88,51,0
1,note_on,88,0,120
1,note_on,86,45,0
1,note_on,86,0,120
1,note_on,85,50,0
1,note_on,85,0,120
1,note_on,83,45,0
1,note_on,83,0,120
1,note_on,81,53,0
1,note_on,81,0,360
1,note_on,78,43,0
1,note_on,78,0,120
1,note_on,81,48,0
1,note_on,81,0,120
1,note_on,78,38,0
1,note_on,78,0,120
1,note_on,81,45,0
1,note_on,81,0,120
1,note_on,78,39,0
1,note_on,78,0,120
1,note_on,76,43,0
1,note_on,76,0,120
1,note_on,78,39,0
1,note_on,78,0,120
1,note_on,79,43,0
1,note_on,79,0,120
1,note_on,83,47,0
1,note_on,83,0,120
1,note_on,81,44,0
1,note_on,81,0,120
1,note_on,79,39,0
1,note_on,79,0,120
1,note_on,78,44,0
1,note_on,78,0,120
1,note_on,76,38,0
1,note_on,76,0,120
1,note_on,81,50,0
1,note_on,81,0,360
1,note_on,78,40,0
1,note_on,78,0,120
1,note_on,81,45,0
1,note_on,81,0,120
1,note_on,78,36,0
1,note_on,78,0,120
1,note_on,81,42,0
1,note_on,81,0,120
1,note_on,78,37,0
1,note_on,78,0,120
1,note_on,76,40,0
1,note_on,76,0,120
1,note_on,78,36,0
1,note_on,78,0,120
1,note_on,79,40,0
1,note_on,79,0,120
1,note_on,83,44,0
1,note_on,83,0,120
1,note_on,81,41,0
1,note_on,81,0,120
1,note_on,79,36,0
1,note_on,79,0,120
1,note_on,78,41,0
1,note_on,78,0,120
1,note_on,76,36,0
1,note_on,76,0,120
1,note_on,74,44,0
1,note_on,74,0,240
1,note_on,76,44,0
1,note_on,76,0,120
1,note_on,74,36,0
1,note_on,74,0,120
1,note_on,76,41,0
1,note_on,76,0,120
1,note_on,74,36,0
1,note_on,74,0,120
1,note_on,73,43,0
1,note_on,73,0,120
1,note_on,71,39,0
1,note_on,71,0,120
1,note_on,69,44,0
1,note_on,69,0,240
1,note_on,71,44,0
1,note_on,71,0,120
1,note_on,69,36,0
1,note_on,69,0,120
1,note_on,71,44,0
1,note_on,71,0,120
1,note_on,69,40,0
1,note_on,69,0,120
1,note_on,78,47,0
1,note_on,78,0,120
1,note_on,76,39,0
1,note_on,76,0,120
1,note_on,74,44,0
1,note_on,74,0,240
1,note_on,76,43,0
1,note_on,76,0,120
1,note_on,74,36,0
1,note_on,74,0,120
1,note_on,76,40,0
1,note_on,76,0,120
1,note_on,74,36,0
1,note_on,74,0,120
1,note_on,73,43,0
1,note_on,73,0,120
1,note_on,71,39,0
1,note_on,71,0,120
1,note_on,69,44,0
1,note_on,69,0,240
1,note_on,71,44,0
1,note_on,71,0,120
1,note_on,69,36,0
1,note_on,69,0,120
1,note_on,71,44,0
1,note_on,71,0,120
1,note_on,69,40,0
1,note_on,69,0,120
1,note_on,78,42,0
1,note_on,78,0,120
1,note_on,76,40,0
1,note_on,76,0,120
1,note_on,74,44,0
1,note_on,74,0,120
1,note_on,86,36,0
1,note_on,86,0,120
1,note_on,88,44,0
1,note_on,88,0,120
1,note_on,86,36,0
1,note_on,86,0,120
1,note_on,88,44,0
1,note_on,88,0,120
1,note_on,86,36,0
1,note_on,86,0,120
1,note_on,85,43,0
1,note_on,85,0,120
1,note_on,83,39,0
1,note_on,83,0,120
1,note_on,81,44,0
1,note_on,81,0,240
1,note_on,83,44,0
1,note_on,83,0,120
1,note_on,81,36,0
1,note_on,81,0,120
1,note_on,83,44,0
1,note_on,83,0,120
1,note_on,81,40,0
1,note_on,81,0,120
1,note_on,90,42,0
1,note_on,90,0,120
1,note_on,88,40,0
1,note_on,88,0,120
1,note_on,86,44,0
1,note_on,86,0,240
1,note_on,88,44,0
1,note_on,88,0,120
1,note_on,86,36,0
1,note_on,86,0,120
1,note_on,88,44,0
1,note_on,88,0,120
1,note_on,86,36,0
1,note_on,86,0,120
1,note_on,85,43,0
1,note_on,85,0,120
1,note_on,83,39,0
1,note_on,83,0,120
1,note_on,81,44,0
1,note_on,81,0,240
1,note_on,83,44,0
1,note_on,83,0,120
1,note_on,81,36,0
1,note_on,81,0,120
1,note_on,83,44,0
1,note_on,83,0,120
1,note_on,81,40,0
1,note_on,81,0,120
1,note_on,90,42,0
1,note_on,90,0,120
1,note_on,88,40,0
1,note_on,88,0,120
1,note_on,86,44,0
1,note_on,86,0,240
1,note_on,90,44,0
1,note_on,90,0,120
1,note_on,86,36,0
1,note_on,86,0,120
1,note_on,90,44,0
1,note_on,90,0,120
1,note_on,86,36,0
1,note_on,86,0,120
1,note_on,90,43,0
1,note_on,90,0,120
1,note_on,86,39,0
1,note_on,86,0,120
1,note_on,90,44,0
1,note_on,90,0,240
1,note_on,93,44,0
1,note_on,93,0,120
1,note_on,90,36,0
1,note_on,90,0,120
1,note_on,93,44,0
1,note_on,93,0,120
1,note_on,90,40,0
1,note_on,90,0,120
1,note_on,93,42,0
1,note_on,93,0,120
1,note_on,90,39,0
1,note_on,90,0,120
1,note_on,93,44,0
1,note_on,93,0,240
1,note_on,98,49,0
1,note_on,98,0,120
1,note_on,93,36,0
1,note_on,93,0,120
1,note_on,98,49,0
1,note_on,98,0,120
1,note_on,93,36,0
1,note_on,93,0,120
1,note_on,98,43,0
1,note_on,98,0,120
1,note_on,93,39,0
1,note_on,93,0,120
1,note_on,98,47,0
1,note_on,98,0,120
1,note_on,93,39,0
1,note_on,93,0,120
1,note_on,98,44,0
1,note_on,98,0,120
1,note_on,93,36,0
1,note_on,93,0,120
1,note_on,98,44,0
1,note_on,98,0,120
1,note_on,93,40,0
1,note_on,93,0,120
1,note_on,90,42,0
1,note_on,90,0,120
1,note_on,93,37,0
1,note_on,93,0,120
1,note_on,98,47,0
1,note_on,90,39,0
1,note_on,90,0,240
1,note_on,98,0,0
1,note_on,98,44,240
1,note_on,98,0,120
1,note_on,93,36,0
1,note_on,93,0,120
1,note_on,90,43,0
1,note_on,90,0,120
1,note_on,93,39,0
1,note_on,93,0,120
1,note_on,90,34,0
1,note_on,98,44,0
1,note_on,98,0,240
1,note_on,90,0,0
1,note_on,98,44,240
1,note_on,98,0,120
1,note_on,93,40,0
1,note_on,93,0,120
1,note_on,90,44,0
1,note_on,90,0,120
1,note_on,93,39,0
1,note_on,93,0,120
1,note_on,98,45,0
1,note_on,90,38,0
1,note_on,90,0,240
1,note_on,98,0,0
1,note_on,81,38,720
1,note_on,81,0,360
1,note_on,83,34,0
1,note_on,83,0,120
1,note_on,81,38,0
1,note_on,81,0,360
1,note_on,78,34,0
1,note_on,78,0,120
1,note_on,74,38,0
1,note_on,74,0,360
1,note_on,62,27,600
1,note_on,66,27,0
1,note_on,74,32,0
1,note_on,74,0,360
1,note_on,66,0,0
1,note_on,62,0,0
1,note_on,62,27,600
1,note_on,66,27,0
1,note_on,74,32,0
1,note_on,74,0,960
1,note_on,66,0,0
1,note_on,62,0,0
2,note_on,62,34,0
2,note_on,66,40,0
2,note_on,66,0,180
2,note_on,62,0,0
2,note_on,66,32,300
2,note_on,57,27,0
2,note_on,57,0,180
2,note_on,66,0,0
2,note_on,62,34,300
2,note_on,66,40,0
2,note_on,66,0,180
2,note_on,62,0,0
2,note_on,66,34,300
2,note_on,57,28,0
2,note_on,57,0,180
2,note_on,66,0,0
2,note_on,62,34,300
2,note_on,66,40,0
2,note_on,66,0,180
2,note_on,62,0,0
2,note_on,66,34,300
2,note_on,57,28,0
2,note_on,57,0,180
2,note_on,66,0,0
2,note_on,66,40,300
2,note_on,62,34,0
2,note_on,62,0,240
2,note_on,66,0,0
2,note_on,66,37,240
2,note_on,57,31,0
2,note_on,57,0,240
2,note_on,66,0,0
2,note_on,62,34,240
2,note_on,66,40,0
2,note_on,66,0,240
2,note_on,62,0,0
2,note_on,57,29,240
2,note_on,66,35,0
2,note_on,66,0,240
2,note_on,57,0,0
2,note_on,64,34,240
2,note_on,67,40,0
2,note_on,67,0,240
2,note_on,64,0,0
2,note_on,67,35,240
2,note_on,57,29,0
2,note_on,57,0,240
2,note_on,67,0,0
2,note_on,62,34,240
2,note_on,66,40,0
2,note_on,66,0,240
2,note_on,62,0,0
2,note_on,66,34,240
2,note_on,57,28,0
2,note_on,57,0,240
2,note_on,66,0,0
2,note_on,67,40,240
2,note_on,61,34,0
2,note_on,61,0,240
2,note_on,67,0,0
2,note_on,57,30,240
2,note_on,67,36,0
2,note_on,67,0,240
2,note_on,57,0,0
2,note_on,62,34,240
2,note_on,66,40,0
2,note_on,66,0,240
2,note_on,62,0,0
2,note_on,57,29,240
2,note_on,66,35,0
2,note_on,66,0,240
2,note_on,57,0,0
2,note_on,67,40,240
2,note_on,62,34,0
2,note_on,55,34,0
2,note_on,55,0,240
2,note_on,62,0,0
2,note_on,67,0,0
2,note_on,67,35,240
2,note_on,59,29,0
2,note_on,62,29,0
2,note_on,62,0,240
2,note_on,59,0,0
2,note_on,67,0,0
2,note_on,62,34,240
2,note_on,66,40,0
2,note_on,66,0,240
2,note_on,62,0,0
2,note_on,66,34,240
2,note_on,57,28,0
2,note_on,57,0,240
2,note_on,66,0,0
2,note_on,66,40,240
2,note_on,62,34,0
2,note_on,62,0,240
2,note_on,66,0,0
2,note_on,57,30,240
2,note_on,66,36,0
2,note_on,66,0,240
2,note_on,57,0,0
2,note_on,66,40,240
2,note_on,62,34,0
2,note_on,62,0,240
2,note_on,66,0,0
2,note_on,57,29,240
2,note_on,66,35,0
2,note_on,66,0,240
2,note_on,57,0,0
2,note_on,64,34,240
2,note_on,67,40,0
2,note_on,67,0,240
2,note_on,64,0,0
2,note_on,67,35,240
2,note_on,57,29,0
2,note_on,57,0,240
2,note_on,67,0,0
2,note_on,66,40,240
2,note_on,58,34,0
2,note_on,58,0,240
2,note_on,66,0,0
2,note_on,58,28,240
2,note_on,61,34,0
2,note_on,61,0,240
2,note_on,58,0,0
2,note_on,59,34,240
2,note_on,62,40,0
2,note_on,62,0,240
2,note_on,59,0,0
2,note_on,62,30,240
2,note_on,55,30,0
2,note_on,67,36,0
2,note_on,67,0,240
2,note_on,55,0,0
2,note_on,62,0,0
2,note_on,66,40,240
2,note_on,62,34,0
2,note_on,62,0,240
2,note_on,66,0,0
2,note_on,57,29,240
2,note_on,66,35,0
2,note_on,66,0,240
2,note_on,57,0,0
2,note_on,67,40,240
2,note_on,61,34,0
2,note_on,61,0,240
2,note_on,67,0,0
2,note_on,67,35,240
2,note_on,57,29,0
2,note_on,57,0,240
2,note_on,67,0,0
2,note_on,62,34,240
2,note_on,66,40,0
2,note_on,62,0,950
2,note_on,66,0,10
2,note_on,50,58,0
2,note_on,50,0,160
2,note_on,54,52,0
2,note_on,54,0,160
2,note_on,59,52,0
2,note_on,59,0,160
2,note_on,57,58,0
2,note_on,57,0,160
2,note_on,54,52,0
2,note_on,54,0,160
2,note_on,50,52,0
2,note_on,50,0,160
2,note_on,49,49,0
2,note_on,55,58,0
2,note_on,55,0,240
2,note_on,49,0,0
2,note_on,45,47,240
2,note_on,55,56,0
2,note_on,55,0,240
2,note_on,45,0,0
2,note_on,49,47,240
2,note_on,55,56,0
2,note_on,55,0,240
2,note_on,49,0,0
2,note_on,45,47,240
2,note_on,55,56,0
2,note_on,55,0,240
2,note_on,45,0,0
2,note_on,50,49,240
2,note_on,54,58,0
2,note_on,54,0,240
2,note_on,50,0,0
2,note_on,45,47,240
2,note_on,54,56,0
2,note_on,54,0,240
2,note_on,45,0,0
2,note_on,54,56,240
2,note_on,50,47,0
2,note_on,50,0,240
2,note_on,54,0,0
2,note_on,57,56,240
2,note_on,54,47,0
2,note_on,54,0,240
2,note_on,57,0,0
2,note_on,52,47,240
2,note_on,61,56,0
2,note_on,61,0,240
2,note_on,52,0,0
2,note_on,61,56,240
2,note_on,57,47,0
2,note_on,57,0,240
2,note_on,61,0,0
2,note_on,59,47,240
2,note_on,62,56,0
2,note_on,62,0,240
2,note_on,59,0,0
2,note_on,62,56,240
2,note_on,52,47,0
2,note_on,52,0,240
2,note_on,62,0,0
2,note_on,57,56,240
2,note_on,61,63,0
2,note_on,57,0,957
2,note_on,61,0,3
2,note_on,57,68,0
2,note_on,57,0,160
2,note_on,61,58,0
2,note_on,61,0,160
2,note_on,66,58,0
2,note_on,66,0,160
2,note_on,64,68,0
2,note_on,64,0,160
2,note_on,61,58,0
2,note_on,61,0,160
2,note_on,57,58,0
2,note_on,57,0,160
2,note_on,57,72,0
2,note_on,57,0,480
2,note_on,56,64,0
2,note_on,56,0,240
2,note_on,59,68,240
2,note_on,59,0,160
2,note_on,62,58,0
2,note_on,62,0,160
2,note_on,66,58,0
2,note_on,66,0,160
2,note_on,64,68,0
2,note_on,64,0,160
2,note_on,62,58,0
2,note_on,62,0,160
2,note_on,59,58,0
2,note_on,59,0,160
2,note_on,61,72,0
2,note_on,61,0,480
2,note_on,57,64,0
2,note_on,57,0,240
2,note_on,55,63,240
2,note_on,55,0,160
2,note_on,61,54,0
2,note_on,61,0,160
2,note_on,66,54,0
2,note_on,66,0,160
2,note_on,64,61,0
2,note_on,64,0,160
2,note_on,61,59,0
2,note_on,61,0,160
2,note_on,55,62,0
2,note_on,55,0,160
2,note_on,54,67,0
2,note_on,54,0,160
2,note_on,57,58,0
2,note_on,57,0,160
2,note_on,62,58,0
2,note_on,62,0,160
2,note_on,53,65,0
2,note_on,53,0,160
2,note_on,57,52,0
2,note_on,57,0,160
2,note_on,62,52,0
2,note_on,62,0,160
2,note_on,52,63,0
2,note_on,52,0,160
2,note_on,57,52,0
2,note_on,57,0,160
2,note_on,61,52,0
2,note_on,61,0,160
2,note_on,64,60,0
2,note_on,64,0,160
2,note_on,62,52,0
2,note_on,62,0,160
2,note_on,59,52,0
2,note_on,59,0,160
2,note_on,57,62,0
2,note_on,57,0,478
2,note_on,69,54,2
2,note_on,61,45,0
2,note_on,57,45,0
2,note_on,57,0,480
2,note_on,61,0,0
2,note_on,69,0,0
2,note_on,59,41,0
2,note_on,68,49,0
2,note_on,62,41,0
2,note_on,62,0,480
2,note_on,68,0,0
2,note_on,59,0,0
2,note_on,64,39,0
2,note_on,67,47,0
2,note_on,61,39,0
2,note_on,61,0,480
2,note_on,67,0,0
2,note_on,64,0,0
2,note_on,66,40,0
2,note_on,62,34,0
2,note_on,62,0,180
2,note_on,66,0,0
2,note_on,66,34,300
2,note_on,57,28,0
2,note_on,57,0,180
2,note_on,66,0,0
2,note_on,66,40,300
2,note_on,62,34,0
2,note_on,62,0,240
2,note_on,66,0,0
2,note_on,66,37,240
2,note_on,57,31,0
2,note_on,57,0,240
2,note_on,66,0,0
2,note_on,62,34,240
2,note_on,66,40,0
2,note_on,66,0,240
2,note_on,62,0,0
2,note_on,57,29,240
2,note_on,66,35,0
2,note_on,66,0,240
2,note_on,57,0,0
2,note_on,67,40,240
2,note_on,64,34,0
2,note_on,64,0,240
2,note_on,67,0,0
2,note_on,57,29,240
2,note_on,67,35,0
2,note_on,67,0,240
2,note_on,57,0,0
2,note_on,62,34,240
2,note_on,66,40,0
2,note_on,66,0,240
2,note_on,62,0,0
2,note_on,57,28,240
2,note_on,66,34,0
2,note_on,66,0,240
2,note_on,57,0,0
2,note_on,61,34,240
2,note_on,67,40,0
2,note_on,67,0,240
2,note_on,61,0,0
2,note_on,57,30,240
2,note_on,67,36,0
2,note_on,67,0,240
2,note_on,57,0,0
2,note_on,66,40,240
2,note_on,62,34,0
2,note_on,62,0,240
2,note_on,66,0,0
2,note_on,57,29,240
2,note_on,66,35,0
2,note_on,66,0,240
2,note_on,57,0,0
2,note_on,67,40,240
2,note_on,55,34,0
2,note_on,62,34,0
2,note_on,62,0,240
2,note_on,55,0,0
2,note_on,67,0,0
2,note_on,67,35,240
2,note_on,62,29,0
2,note_on,59,29,0
2,note_on,59,0,240
2,note_on,62,0,0
2,note_on,67,0,0
2,note_on,62,34,240
2,note_on,66,40,0
2,note_on,66,0,240
2,note_on,62,0,0
2,note_on,57,28,240
2,note_on,66,34,0
2,note_on,66,0,240
2,note_on,57,0,0
2,note_on,65,36,240
2,note_on,62,30,0
2,note_on,62,0,240
2,note_on,65,0,0
2,note_on,65,32,240
2,note_on,57,27,0
2,note_on,57,0,240
2,note_on,65,0,0
2,note_on,62,30,240
2,note_on,65,36,0
2,note_on,65,0,240
2,note_on,62,0,0
2,note_on,65,31,240
2,note_on,57,26,0
2,note_on,57,0,240
2,note_on,65,0,0
2,note_on,65,40,240
2,note_on,60,34,0
2,note_on,63,40,0
2,note_on,63,0,240
2,note_on,60,0,0
2,note_on,65,0,0
2,note_on,53,29,240
2,note_on,63,29,0
2,note_on,60,29,0
2,note_on,65,35,0
2,note_on,65,0,240
2,note_on,53,0,0
2,note_on,63,0,0
2,note_on,60,0,0
2,note_on,65,40,240
2,note_on,62,34,0
2,note_on,58,34,0
2,note_on,58,0,240
2,note_on,62,0,0
2,note_on,65,0,0
2,note_on,62,28,240
2,note_on,65,34,0
2,note_on,65,0,240
2,note_on,62,0,0
2,note_on,58,39,240
2,note_on,62,39,0
2,note_on,65,47,0
2,note_on,65,0,240
2,note_on,62,0,0
2,note_on,58,0,0
2,note_on,62,39,240
2,note_on,58,39,0
2,note_on,68,47,0
2,note_on,68,0,240
2,note_on,58,0,0
2,note_on,62,0,0
2,note_on,62,43,240
2,note_on,69,51,0
2,note_on,66,43,0
2,note_on,66,0,240
2,note_on,69,0,0
2,note_on,62,0,0
2,note_on,69,41,240
2,note_on,66,34,0
2,note_on,57,34,0
2,note_on,57,0,240
2,note_on,66,0,0
2,note_on,69,0,0
2,note_on,61,40,240
2,note_on,67,40,0
2,note_on,69,48,0
2,note_on,69,0,240
2,note_on,67,0,0
2,note_on,61,0,0
2,note_on,67,36,240
2,note_on,69,43,0
2,note_on,57,36,0
2,note_on,57,0,240
2,note_on,69,0,0
2,note_on,67,0,0
2,note_on,69,53,240
2,note_on,66,45,0
2,note_on,66,0,240
2,note_on,69,0,0
2,note_on,62,35,240
2,note_on,69,41,0
2,note_on,66,35,0
2,note_on,66,0,240
2,note_on,69,0,0
2,note_on,62,0,0
2,note_on,67,51,240
2,note_on,62,43,0
2,note_on,59,43,0
2,note_on,59,0,240
2,note_on,62,0,0
2,note_on,67,0,0
2,note_on,55,37,240
2,note_on,62,37,0
2,note_on,67,44,0
2,note_on,67,0,240
2,note_on,62,0,0
2,note_on,55,0,0
2,note_on,62,43,240
2,note_on,66,51,0
2,note_on,66,0,240
2,note_on,62,0,0
2,note_on,66,45,240
2,note_on,57,38,0
2,note_on,57,0,240
2,note_on,66,0,0
2,note_on,67,53,240
2,note_on,61,45,0
2,note_on,61,0,240
2,note_on,67,0,0
2,note_on,57,39,240
2,note_on,67,46,0
2,note_on,67,0,240
2,note_on,57,0,0
2,note_on,66,59,240
2,note_on,62,50,0
2,note_on,62,0,950
2,note_on,66,0,10
2,note_on,50,58,0
2,note_on,50,0,160
2,note_on,54,52,0
2,note_on,54,0,160
2,note_on,59,52,0
2,note_on,59,0,160
2,note_on,57,58,0
2,note_on,57,0,160
2,note_on,54,52,0
2,note_on,54,0,160
2,note_on,50,52,0
2,note_on,50,0,160
2,note_on,49,49,0
2,note_on,55,58,0
2,note_on,55,0,240
2,note_on,49,0,0
2,note_on,45,47,240
2,note_on,55,56,0
2,note_on,55,0,240
2,note_on,45,0,0
2,note_on,49,47,240
2,note_on,55,56,0
2,note_on,55,0,240
2,note_on,49,0,0
2,note_on,45,47,240
2,note_on,55,56,0
2,note_on,55,0,240
2,note_on,45,0,0
2,note_on,50,49,240
2,note_on,54,58,0
2,note_on,54,0,240
2,note_on,50,0,0
2,note_on,54,56,240
2,note_on,45,47,0
2,note_on,45,0,240
2,note_on,54,0,0
2,note_on,54,56,240
2,note_on,50,47,0
2,note_on,50,0,240
2,note_on,54,0,0
2,note_on,57,56,240
2,note_on,54,47,0
2,note_on,54,0,240
2,note_on,57,0,0
2,note_on,52,47,240
2,note_on,61,56,0
2,note_on,61,0,240
2,note_on,52,0,0
2,note_on,61,56,240
2,note_on,57,47,0
2,note_on,57,0,240
2,note_on,61,0,0
2,note_on,62,56,240
2,note_on,59,47,0
2,note_on,59,0,240
2,note_on,62,0,0
2,note_on,52,47,240
2,note_on,62,56,0
2,note_on,62,0,240
2,note_on,52,0,0
2,note_on,61,63,240
2,note_on,57,56,0
2,note_on,57,0,958
2,note_on,61,0,2
2,note_on,57,68,0
2,note_on,57,0,160
2,note_on,61,58,0
2,note_on,61,0,160
2,note_on,66,58,0
2,note_on,66,0,160
2,note_on,64,68,0
2,note_on,64,0,160
2,note_on,61,58,0
2,note_on,61,0,160
2,note_on,57,58,0
2,note_on,57,0,158
2,note_on,57,72,2
2,note_on,57,0,480
2,note_on,56,64,0
2,note_on,56,0,240
2,note_on,59,68,240
2,note_on,59,0,160
2,note_on,62,58,0
2,note_on,62,0,160
2,note_on,66,58,0
2,note_on,66,0,160
2,note_on,64,68,0
2,note_on,64,0,160
2,note_on,62,58,0
2,note_on,62,0,160
2,note_on,59,58,0
2,note_on,59,0,160
2,note_on,61,72,0
2,note_on,61,0,480
2,note_on,57,64,0
2,note_on,57,0,240
2,note_on,55,63,240
2,note_on,55,0,160
2,note_on,61,54,0
2,note_on,61,0,160
2,note_on,66,54,0
2,note_on,66,0,160
2,note_on,64,61,0
2,note_on,64,0,160
2,note_on,61,59,0
2,note_on,61,0,160
2,note_on,55,62,0
2,note_on,55,0,160
2,note_on,54,67,0
2,note_on,54,0,160
2,note_on,57,58,0
2,note_on,57,0,160
2,note_on,62,58,0
2,note_on,62,0,160
2,note_on,53,65,0
2,note_on,53,0,160
2,note_on,57,52,0
2,note_on,57,0,160
2,note_on,62,52,0
2,note_on,62,0,160
2,note_on,52,63,0
2,note_on,52,0,160
2,note_on,57,52,0
2,note_on,57,0,160
2,note_on,61,52,0
2,note_on,61,0,160
2,note_on,64,60,0
2,note_on,64,0,160
2,note_on,62,52,0
2,note_on,62,0,160
2,note_on,59,52,0
2,note_on,59,0,160
2,note_on,57,62,0
2,note_on,57,0,478
2,note_on,61,45,2
2,note_on,69,54,0
2,note_on,57,45,0
2,note_on,57,0,480
2,note_on,69,0,0
2,note_on,61,0,0
2,note_on,62,41,0
2,note_on,68,49,0
2,note_on,59,41,0
2,note_on,59,0,480
2,note_on,68,0,0
2,note_on,62,0,0
2,note_on,61,39,0
2,note_on,64,39,0
2,note_on,67,47,0
2,note_on,67,0,480
2,note_on,64,0,0
2,note_on,61,0,0
2,note_on,62,34,0
2,note_on,66,40,0
2,note_on,66,0,180
2,note_on,62,0,0
2,note_on,66,34,300
2,note_on,57,28,0
2,note_on,57,0,180
2,note_on,66,0,0
2,note_on,62,34,300
2,note_on,66,40,0
2,note_on,66,0,240
2,note_on,62,0,0
2,note_on,66,37,240
2,note_on,57,31,0
2,note_on,57,0,240
2,note_on,66,0,0
2,note_on,66,40,240
2,note_on,62,34,0
2,note_on,62,0,240
2,note_on,66,0,0
2,note_on,57,29,240
2,note_on,66,35,0
2,note_on,66,0,240
2,note_on,57,0,0
2,note_on,64,34,240
2,note_on,67,40,0
2,note_on,67,0,240
2,note_on,64,0,0
2,note_on,57,29,240
2,note_on,67,35,0
2,note_on,67,0,240
2,note_on,57,0,0
2,note_on,62,34,240
2,note_on,66,40,0
2,note_on,66,0,240
2,note_on,62,0,0
2,note_on,57,28,240
2,note_on,66,34,0
2,note_on,66,0,240
2,note_on,57,0,0
2,note_on,61,34,240
2,note_on,67,40,0
2,note_on,67,0,240
2,note_on,61,0,0
2,note_on,67,36,240
2,note_on,57,30,0
2,note_on,57,0,240
2,note_on,67,0,0
2,note_on,62,34,240
2,note_on,66,40,0
2,note_on,66,0,240
2,note_on,62,0,0
2,note_on,57,29,240
2,note_on,66,35,0
2,note_on,66,0,240
2,note_on,57,0,0
2,note_on,67,40,240
2,note_on,62,34,0
2,note_on,55,34,0
2,note_on,55,0,240
2,note_on,62,0,0
2,note_on,67,0,0
2,note_on,62,29,240
2,note_on,59,29,0
2,note_on,67,35,0
2,note_on,67,0,240
2,note_on,59,0,0
2,note_on,62,0,0
2,note_on,66,40,240
2,note_on,62,34,0
2,note_on,62,0,240
2,note_on,66,0,0
2,note_on,66,34,240
2,note_on,57,28,0
2,note_on,57,0,240
2,note_on,66,0,0
2,note_on,62,30,240
2,note_on,65,36,0
2,note_on,65,0,240
2,note_on,62,0,0
2,note_on,65,32,240
2,note_on,57,27,0
2,note_on,57,0,240
2,note_on,65,0,0
2,note_on,62,30,240
2,note_on,65,36,0
2,note_on,65,0,240
2,note_on,62,0,0
2,note_on,65,31,240
2,note_on,57,26,0
2,note_on,57,0,240
2,note_on,65,0,0
2,note_on,63,40,240
2,note_on,65,40,0
2,note_on,60,34,0
2,note_on,60,0,240
2,note_on,65,0,0
2,note_on,63,0,0
2,note_on,60,29,240
2,note_on,65,35,0
2,note_on,53,29,0
2,note_on,63,29,0
2,note_on,63,0,240
2,note_on,60,0,0
2,note_on,65,0,0
2,note_on,53,0,0
2,note_on,65,40,240
2,note_on,62,34,0
2,note_on,58,34,0
2,note_on,58,0,240
2,note_on,62,0,0
2,note_on,65,0,0
2,note_on,62,28,240
2,note_on,65,34,0
2,note_on,65,0,240
2,note_on,62,0,0
2,note_on,65,47,240
2,note_on,62,39,0
2,note_on,58,39,0
2,note_on,58,0,240
2,note_on,62,0,0
2,note_on,65,0,0
2,note_on,68,47,240
2,note_on,62,39,0
2,note_on,58,39,0
2,note_on,58,0,240
2,note_on,62,0,0
2,note_on,68,0,0
2,note_on,62,43,240
2,note_on,66,43,0
2,note_on,69,51,0
2,note_on,69,0,240
2,note_on,66,0,0
2,note_on,62,0,0
2,note_on,66,34,240
2,note_on,57,34,0
2,note_on,69,41,0
2,note_on,69,0,240
2,note_on,57,0,0
2,note_on,66,0,0
2,note_on,67,40,240
2,note_on,69,48,0
2,note_on,61,40,0
2,note_on,61,0,240
2,note_on,69,0,0
2,note_on,67,0,0
2,note_on,67,36,240
2,note_on,69,43,0
2,note_on,57,36,0
2,note_on,57,0,240
2,note_on,69,0,0
2,note_on,67,0,0
2,note_on,69,53,240
2,note_on,66,45,0
2,note_on,66,0,240
2,note_on,69,0,0
2,note_on,62,35,240
2,note_on,66,35,0
2,note_on,69,41,0
2,note_on,69,0,240
2,note_on,66,0,0
2,note_on,62,0,0
2,note_on,59,43,240
2,note_on,62,43,0
2,note_on,67,51,0
2,note_on,67,0,240
2,note_on,62,0,0
2,note_on,59,0,0
2,note_on,67,44,240
2,note_on,62,37,0
2,note_on,55,37,0
2,note_on,55,0,240
2,note_on,62,0,0
2,note_on,67,0,0
2,note_on,62,43,240
2,note_on,66,51,0
2,note_on,66,0,240
2,note_on,62,0,0
2,note_on,57,38,240
2,note_on,66,45,0
2,note_on,66,0,240
2,note_on,57,0,0
2,note_on,61,45,240
2,note_on,67,53,0
2,note_on,67,0,240
2,note_on,61,0,0
2,note_on,57,39,240
2,note_on,67,46,0
2,note_on,67,0,240
2,note_on,57,0,0
2,note_on,66,59,240
2,note_on,62,50,0
2,note_on,62,0,958
2,note_on,66,0,0
2,note_on,50,45,2
2,note_on,50,0,120
2,note_on,52,41,0
2,note_on,52,0,120
2,note_on,54,45,0
2,note_on,54,0,120
2,note_on,55,42,0
2,note_on,55,0,120
2,note_on,56,45,0
2,note_on,56,0,120
2,note_on,57,41,0
2,note_on,57,0,120
2,note_on,56,43,0
2,note_on,56,0,120
2,note_on,57,45,0
2,note_on,57,0,120
2,note_on,59,52,0
2,note_on,55,44,0
2,note_on,55,0,480
2,note_on,59,0,0
2,note_on,57,42,0
2,note_on,50,36,0
2,note_on,50,0,240
2,note_on,57,0,0
2,note_on,54,51,240
2,note_on,54,0,160
2,note_on,57,45,0
2,note_on,57,0,160
2,note_on,55,45,0
2,note_on,55,0,160
2,note_on,54,54,0
2,note_on,54,0,160
2,note_on,57,43,0
2,note_on,57,0,160
2,note_on,62,43,0
2,note_on,62,0,160
2,note_on,64,57,0
2,note_on,64,0,478
2,note_on,57,50,2
2,note_on,57,0,240
2,note_on,67,51,240
2,note_on,67,0,120
2,note_on,66,45,120
2,note_on,66,0,120
2,note_on,67,45,120
2,note_on,67,0,120
2,note_on,69,45,120
2,note_on,69,0,120
2,note_on,66,51,120
2,note_on,66,0,120
2,note_on,62,47,120
2,note_on,62,0,120
2,note_on,64,47,120
2,note_on,64,0,120
2,note_on,66,47,120
2,note_on,66,0,120
2,note_on,67,51,120
2,note_on,67,0,120
2,note_on,64,46,120
2,note_on,64,0,120
2,note_on,66,46,120
2,note_on,66,0,120
2,note_on,69,46,120
2,note_on,69,0,120
2,note_on,62,55,120
2,note_on,66,55,0
2,note_on,66,0,120
2,note_on,62,0,0
2,note_on,57,48,120
2,note_on,57,0,120
2,note_on,54,54,120
2,note_on,54,0,120
2,note_on,50,51,120
2,note_on,50,0,120
2,note_on,55,58,120
2,note_on,55,0,120
2,note_on,57,52,0
2,note_on,57,0,120
2,note_on,59,58,0
2,note_on,59,0,120
2,note_on,60,53,0
2,note_on,60,0,120
2,note_on,61,63,0
2,note_on,61,0,120
2,note_on,62,59,0
2,note_on,62,0,120
2,note_on,61,60,0
2,note_on,61,0,120
2,note_on,62,58,0
2,note_on,62,0,120
2,note_on,66,67,0
2,note_on,66,0,120
2,note_on,64,61,0
2,note_on,64,0,120
2,note_on,62,59,0
2,note_on,62,0,120
2,note_on,61,56,0
2,note_on,61,0,120
2,note_on,64,64,0
2,note_on,64,0,120
2,note_on,62,60,0
2,note_on,62,0,120
2,note_on,61,56,0
2,note_on,61,0,120
2,note_on,59,58,0
2,note_on,59,0,120
2,note_on,57,65,0
2,note_on,57,0,120
2,note_on,56,60,0
2,note_on,56,0,120
2,note_on,54,58,0
2,note_on,54,0,120
2,note_on,52,57,0
2,note_on,52,0,120
2,note_on,51,61,0
2,note_on,51,0,120
2,note_on,52,58,0
2,note_on,52,0,120
2,note_on,54,56,0
2,note_on,54,0,120
2,note_on,56,53,0
2,note_on,56,0,120
2,note_on,57,61,0
2,note_on,57,0,117
2,note_on,50,45,843
2,note_on,50,0,120
2,note_on,52,41,0
2,note_on,52,0,120
2,note_on,54,45,0
2,note_on,54,0,120
2,note_on,55,42,0
2,note_on,55,0,120
2,note_on,56,45,0
2,note_on,56,0,120
2,note_on,57,41,0
2,note_on,57,0,120
2,note_on,56,43,0
2,note_on,56,0,120
2,note_on,57,45,0
2,note_on,57,0,120
2,note_on,59,52,0
2,note_on,55,44,0
2,note_on,55,0,480
2,note_on,59,0,0
2,note_on,50,36,0
2,note_on,57,42,0
2,note_on,57,0,240
2,note_on,50,0,0
2,note_on,54,51,240
2,note_on,54,0,160
2,note_on,57,45,0
2,note_on,57,0,160
2,note_on,55,45,0
2,note_on,55,0,160
2,note_on,54,54,0
2,note_on,54,0,160
2,note_on,57,43,0
2,note_on,57,0,160
2,note_on,62,43,0
2,note_on,62,0,160
2,note_on,64,57,0
2,note_on,64,0,478
2,note_on,57,50,2
2,note_on,57,0,240
2,note_on,67,51,240
2,note_on,67,0,120
2,note_on,66,45,120
2,note_on,66,0,120
2,note_on,67,45,120
2,note_on,67,0,120
2,note_on,69,45,120
2,note_on,69,0,120
2,note_on,66,51,120
2,note_on,66,0,120
2,note_on,69,47,120
2,note_on,69,0,120
2,note_on,66,47,120
2,note_on,66,0,120
2,note_on,64,47,120
2,note_on,64,0,120
2,note_on,62,51,120
2,note_on,62,0,120
2,note_on,59,46,120
2,note_on,59,0,120
2,note_on,61,46,120
2,note_on,61,0,120
2,note_on,64,46,120
2,note_on,64,0,120
2,note_on,57,55,120
2,note_on,61,55,0
2,note_on,61,0,120
2,note_on,57,0,0
2,note_on,52,48,120
2,note_on,52,0,120
2,note_on,49,54,120
2,note_on,49,0,120
2,note_on,45,51,120
2,note_on,45,0,120
2,note_on,50,58,120
2,note_on,50,0,120
2,note_on,52,52,0
2,note_on,52,0,120
2,note_on,54,58,0
2,note_on,54,0,120
2,note_on,55,53,0
2,note_on,55,0,120
2,note_on,56,63,0
2,note_on,56,0,120
2,note_on,57,59,0
2,note_on,57,0,120
2,note_on,56,60,0
2,note_on,56,0,120
2,note_on,57,58,0
2,note_on,57,0,120
2,note_on,61,67,0
2,note_on,61,0,120
2,note_on,59,61,0
2,note_on,59,0,120
2,note_on,57,59,0
2,note_on,57,0,120
2,note_on,56,56,0
2,note_on,56,0,120
2,note_on,59,64,0
2,note_on,59,0,120
2,note_on,57,60,0
2,note_on,57,0,120
2,note_on,56,56,0
2,note_on,56,0,120
2,note_on,54,58,0
2,note_on,54,0,120
2,note_on,52,65,0
2,note_on,52,0,120
2,note_on,54,60,0
2,note_on,54,0,120
2,note_on,52,58,0
2,note_on,52,0,120
2,note_on,54,57,0
2,note_on,54,0,120
2,note_on,52,61,0
2,note_on,52,0,120
2,note_on,50,58,0
2,note_on,50,0,120
2,note_on,49,56,0
2,note_on,49,0,120
2,note_on,47,53,0
2,note_on,47,0,120
2,note_on,45,61,0
2,note_on,45,0,240
2,note_on,74,51,720
2,note_on,74,0,120
2,note_on,71,47,120
2,note_on,71,0,120
2,note_on,68,47,120
2,note_on,68,0,120
2,note_on,64,47,120
2,note_on,64,0,120
2,note_on,73,51,120
2,note_on,73,0,120
2,note_on,69,47,120
2,note_on,69,0,120
2,note_on,64,47,120
2,note_on,64,0,120
2,note_on,61,47,120
2,note_on,61,0,120
2,note_on,62,51,120
2,note_on,62,0,120
2,note_on,64,42,0
2,note_on,64,0,120
2,note_on,62,46,0
2,note_on,62,0,120
2,note_on,64,42,0
2,note_on,64,0,120
2,note_on,68,51,0
2,note_on,68,0,120
2,note_on,71,41,0
2,note_on,71,0,120
2,note_on,68,45,0
2,note_on,68,0,120
2,note_on,71,41,0
2,note_on,71,0,120
2,note_on,61,51,0
2,note_on,61,0,120
2,note_on,64,42,0
2,note_on,64,0,120
2,note_on,61,46,0
2,note_on,61,0,120
2,note_on,64,42,0
2,note_on,64,0,120
2,note_on,69,51,0
2,note_on,69,0,120
2,note_on,73,41,0
2,note_on,73,0,120
2,note_on,69,45,0
2,note_on,69,0,120
2,note_on,73,41,0
2,note_on,73,0,120
2,note_on,64,69,0
2,note_on,64,0,120
2,note_on,66,58,0
2,note_on,66,0,120
2,note_on,68,64,0
2,note_on,68,0,120
2,note_on,69,59,0
2,note_on,69,0,120
2,note_on,70,69,0
2,note_on,70,0,120
2,note_on,71,56,0
2,note_on,71,0,120
2,note_on,70,65,0
2,note_on,70,0,120
2,note_on,71,59,0
2,note_on,71,0,120
2,note_on,69,69,0
2,note_on,69,0,120
2,note_on,71,58,0
2,note_on,71,0,120
2,note_on,73,64,0
2,note_on,73,0,120
2,note_on,74,59,0
2,note_on,74,0,120
2,note_on,75,70,0
2,note_on,75,0,120
2,note_on,76,57,0
2,note_on,76,0,120
2,note_on,75,62,0
2,note_on,75,0,120
2,note_on,76,49,0
2,note_on,76,0,120
2,note_on,62,58,0
2,note_on,62,0,120
2,note_on,71,42,0
2,note_on,71,0,120
2,note_on,62,46,0
2,note_on,62,0,120
2,note_on,71,42,0
2,note_on,71,0,120
2,note_on,64,51,0
2,note_on,64,0,120
2,note_on,75,41,0
2,note_on,75,0,120
2,note_on,64,45,0
2,note_on,64,0,120
2,note_on,75,41,0
2,note_on,75,0,120
2,note_on,69,51,0
2,note_on,69,0,120
2,note_on,73,42,0
2,note_on,73,0,120
2,note_on,69,46,0
2,note_on,69,0,120
2,note_on,73,42,0
2,note_on,73,0,120
2,note_on,57,51,0
2,note_on,57,0,120
2,note_on,69,45,120
2,note_on,69,0,120
2,note_on,52,75,120
2,note_on,52,0,120
2,note_on,54,58,0
2,note_on,54,0,120
2,note_on,56,64,0
2,note_on,56,0,120
2,note_on,57,59,0
2,note_on,57,0,120
2,note_on,58,70,0
2,note_on,58,0,120
2,note_on,59,61,0
2,note_on,59,0,120
2,note_on,58,68,0
2,note_on,58,0,120
2,note_on,59,59,0
2,note_on,59,0,120
2,note_on,52,75,0
2,note_on,52,0,120
2,note_on,54,58,0
2,note_on,54,0,120
2,note_on,56,64,0
2,note_on,56,0,120
2,note_on,57,59,0
2,note_on,57,0,120
2,note_on,58,70,0
2,note_on,58,0,120
2,note_on,59,61,0
2,note_on,59,0,120
2,note_on,58,68,0
2,note_on,58,0,120
2,note_on,59,59,0
2,note_on,59,0,120
2,note_on,40,75,0
2,note_on,40,0,120
2,note_on,42,58,0
2,note_on,42,0,120
2,note_on,44,64,0
2,note_on,44,0,120
2,note_on,45,59,0
2,note_on,45,0,120
2,note_on,46,70,0
2,note_on,46,0,120
2,note_on,47,61,0
2,note_on,47,0,120
2,note_on,46,68,0
2,note_on,46,0,120
2,note_on,47,59,0
2,note_on,47,0,120
2,note_on,46,75,0
2,note_on,46,0,120
2,note_on,47,62,0
2,note_on,47,0,120
2,note_on,49,66,0
2,note_on,49,0,120
2,note_on,50,62,0
2,note_on,50,0,120
2,note_on,51,74,0
2,note_on,51,0,120
2,note_on,52,63,0
2,note_on,52,0,120
2,note_on,54,64,0
2,note_on,54,0,120
2,note_on,56,65,0
2,note_on,56,0,120
2,note_on,57,60,0
2,note_on,57,0,120
2,note_on,59,55,0
2,note_on,59,0,120
2,note_on,60,60,0
2,note_on,60,0,120
2,note_on,62,56,0
2,note_on,62,0,120
2,note_on,63,60,0
2,note_on,63,0,120
2,note_on,64,55,0
2,note_on,64,0,120
2,note_on,63,58,0
2,note_on,63,0,120
2,note_on,64,60,0
2,note_on,64,0,120
2,note_on,62,59,0
2,note_on,65,70,0
2,note_on,65,0,480
2,note_on,62,0,0
2,note_on,64,56,0
2,note_on,57,48,0
2,note_on,57,0,240
2,note_on,64,0,0
2,note_on,53,59,240
2,note_on,60,59,0
2,note_on,65,70,0
2,note_on,65,0,480
2,note_on,60,0,0
2,note_on,53,0,0
2,note_on,48,48,0
2,note_on,60,56,0
2,note_on,60,0,240
2,note_on,48,0,0
2,note_on,57,65,240
2,note_on,45,55,0
2,note_on,45,0,120
2,note_on,57,0,0
2,note_on,43,45,120
2,note_on,55,54,0
2,note_on,55,0,120
2,note_on,43,0,0
2,note_on,41,50,120
2,note_on,53,59,0
2,note_on,53,0,120
2,note_on,41,0,0
2,note_on,40,45,120
2,note_on,52,53,0
2,note_on,52,0,120
2,note_on,40,0,0
2,note_on,50,65,120
2,note_on,38,55,0
2,note_on,38,0,120
2,note_on,50,0,0
2,note_on,48,53,120
2,note_on,36,45,0
2,note_on,36,0,120
2,note_on,48,0,0
2,note_on,50,61,120
2,note_on,38,51,0
2,note_on,38,0,120
2,note_on,50,0,0
2,note_on,39,45,120
2,note_on,51,53,0
2,note_on,51,0,120
2,note_on,39,0,0
2,note_on,52,69,120
2,note_on,40,69,0
2,note_on,40,0,120
2,note_on,52,0,0
2,note_on,44,63,0
2,note_on,44,0,120
2,note_on,47,63,0
2,note_on,47,0,120
2,note_on,52,63,0
2,note_on,52,0,120
2,note_on,56,65,0
2,note_on,56,0,120
2,note_on,57,61,0
2,note_on,57,0,120
2,note_on,59,61,0
2,note_on,59,0,120
2,note_on,60,61,0
2,note_on,60,0,120
2,note_on,50,69,0
2,note_on,62,81,0
2,note_on,62,0,120
2,note_on,50,0,0
2,note_on,61,55,120
2,note_on,49,46,0
2,note_on,49,0,120
2,note_on,61,0,0
2,note_on,50,51,120
2,note_on,62,61,0
2,note_on,62,0,120
2,note_on,50,0,0
2,note_on,52,48,120
2,note_on,64,57,0
2,note_on,64,0,120
2,note_on,52,0,0
2,note_on,48,67,120
2,note_on,60,80,0
2,note_on,60,0,120
2,note_on,48,0,0
2,note_on,45,47,120
2,note_on,57,56,0
2,note_on,57,0,120
2,note_on,45,0,0
2,note_on,59,59,120
2,note_on,47,50,0
2,note_on,47,0,120
2,note_on,59,0,0
2,note_on,48,48,120
2,note_on,60,57,0
2,note_on,60,0,120
2,note_on,48,0,0
2,note_on,62,81,120
2,note_on,50,69,0
2,note_on,50,0,120
2,note_on,62,0,0
2,note_on,59,57,120
2,note_on,47,48,0
2,note_on,47,0,120
2,note_on,59,0,0
2,note_on,60,60,120
2,note_on,48,51,0
2,note_on,48,0,120
2,note_on,60,0,0
2,note_on,64,57,120
2,note_on,52,48,0
2,note_on,52,0,120
2,note_on,64,0,0
2,note_on,57,81,120
2,note_on,45,69,0
2,note_on,45,0,120
2,note_on,57,0,0
2,note_on,52,55,120
2,note_on,52,0,120
2,note_on,48,61,120
2,note_on,48,0,120
2,note_on,45,57,120
2,note_on,45,0,120
2,note_on,48,63,120
2,note_on,50,57,120
2,note_on,48,0,12
2,note_on,52,57,108
2,note_on,50,0,12
2,note_on,53,57,108
2,note_on,52,0,12
2,note_on,54,62,108
2,note_on,53,0,12
2,note_on,55,57,108
2,note_on,54,0,12
2,note_on,54,61,108
2,note_on,55,0,12
2,note_on,55,57,108
2,note_on,54,0,12
2,note_on,55,0,108
2,note_on,53,63,0
2,note_on,55,57,120
2,note_on,53,0,12
2,note_on,57,57,108
2,note_on,55,0,12
2,note_on,58,57,108
2,note_on,57,0,12
2,note_on,59,62,108
2,note_on,58,0,12
2,note_on,60,57,108
2,note_on,59,0,12
2,note_on,59,61,108
2,note_on,60,0,12
2,note_on,60,57,108
2,note_on,59,0,12
2,note_on,60,0,108
2,note_on,62,63,0
2,note_on,60,57,120
2,note_on,62,0,12
2,note_on,58,57,108
2,note_on,60,0,12
2,note_on,57,57,108
2,note_on,58,0,12
2,note_on,60,62,108
2,note_on,57,0,12
2,note_on,58,57,108
2,note_on,60,0,12
2,note_on,57,61,108
2,note_on,58,0,12
2,note_on,55,57,108
2,note_on,57,0,12
2,note_on,55,0,108
2,note_on,53,63,0
2,note_on,55,57,120
2,note_on,53,0,12
2,note_on,57,57,108
2,note_on,55,0,12
2,note_on,58,57,108
2,note_on,57,0,12
2,note_on,60,62,108
2,note_on,58,0,12
2,note_on,62,57,108
2,note_on,60,0,12
2,note_on,64,61,108
2,note_on,62,0,12
2,note_on,65,57,108
2,note_on,64,0,12
2,note_on,65,0,108
2,note_on,55,69,0
2,note_on,67,81,0
2,note_on,67,0,120
2,note_on,55,0,0
2,note_on,66,55,120
2,note_on,54,46,0
2,note_on,54,0,120
2,note_on,66,0,0
2,note_on,55,51,120
2,note_on,67,61,0
2,note_on,67,0,120
2,note_on,55,0,0
2,note_on,69,57,120
2,note_on,57,48,0
2,note_on,57,0,120
2,note_on,69,0,0
2,note_on,65,80,120
2,note_on,53,67,0
2,note_on,53,0,120
2,note_on,65,0,0
2,note_on,62,56,120
2,note_on,50,47,0
2,note_on,50,0,120
2,note_on,62,0,0
2,note_on,52,50,120
2,note_on,64,59,0
2,note_on,64,0,120
2,note_on,52,0,0
2,note_on,53,48,120
2,note_on,65,57,0
2,note_on,65,0,120
2,note_on,53,0,0
2,note_on,67,81,120
2,note_on,55,69,0
2,note_on,55,0,120
2,note_on,67,0,0
2,note_on,64,57,120
2,note_on,52,48,0
2,note_on,52,0,120
2,note_on,64,0,0
2,note_on,53,51,120
2,note_on,65,60,0
2,note_on,65,0,120
2,note_on,53,0,0
2,note_on,69,57,120
2,note_on,57,48,0
2,note_on,57,0,120
2,note_on,69,0,0
2,note_on,62,81,120
2,note_on,50,69,0
2,note_on,50,0,120
2,note_on,62,0,0
2,note_on,57,55,120
2,note_on,57,0,120
2,note_on,53,61,120
2,note_on,53,0,120
2,note_on,50,57,120
2,note_on,50,0,120
2,note_on,53,63,120
2,note_on,55,57,120
2,note_on,53,0,12
2,note_on,57,57,108
2,note_on,55,0,12
2,note_on,58,57,108
2,note_on,57,0,12
2,note_on,59,62,108
2,note_on,58,0,12
2,note_on,60,57,108
2,note_on,59,0,12
2,note_on,59,61,108
2,note_on,60,0,12
2,note_on,60,57,108
2,note_on,59,0,12
2,note_on,60,0,108
2,note_on,58,63,0
2,note_on,60,57,120
2,note_on,58,0,12
2,note_on,62,57,108
2,note_on,60,0,12
2,note_on,63,57,108
2,note_on,62,0,12
2,note_on,64,62,108
2,note_on,63,0,12
2,note_on,65,57,108
2,note_on,64,0,12
2,note_on,64,61,108
2,note_on,65,0,12
2,note_on,65,57,108
2,note_on,64,0,12
2,note_on,65,0,108
2,note_on,67,63,0
2,note_on,65,57,120
2,note_on,67,0,12
2,note_on,63,57,108
2,note_on,65,0,12
2,note_on,62,57,108
2,note_on,63,0,12
2,note_on,65,62,108
2,note_on,62,0,12
2,note_on,63,57,108
2,note_on,65,0,12
2,note_on,62,61,108
2,note_on,63,0,12
2,note_on,60,57,108
2,note_on,62,0,12
2,note_on,60,0,108
2,note_on,65,63,0
2,note_on,63,57,120
2,note_on,65,0,12
2,note_on,62,57,108
2,note_on,63,0,12
2,note_on,60,57,108
2,note_on,62,0,12
2,note_on,63,62,108
2,note_on,60,0,12
2,note_on,62,57,108
2,note_on,63,0,12
2,note_on,60,61,108
2,note_on,62,0,12
2,note_on,62,57,108
2,note_on,60,0,12
2,note_on,62,0,108
2,note_on,63,63,0
2,note_on,62,57,120
2,note_on,63,0,12
2,note_on,60,57,108
2,note_on,62,0,12
2,note_on,58,57,108
2,note_on,60,0,12
2,note_on,62,62,108
2,note_on,58,0,12
2,note_on,60,57,108
2,note_on,62,0,12
2,note_on,58,61,108
2,note_on,60,0,12
2,note_on,60,57,108
2,note_on,58,0,12
2,note_on,60,0,108
2,note_on,58,80,0
2,note_on,46,67,0
2,note_on,46,0,120
2,note_on,58,0,0
2,note_on,43,47,120
2,note_on,55,56,0
2,note_on,55,0,120
2,note_on,43,0,0
2,note_on,57,59,120
2,note_on,45,50,0
2,note_on,45,0,120
2,note_on,57,0,0
2,note_on,60,57,120
2,note_on,48,48,0
2,note_on,48,0,120
2,note_on,60,0,0
2,note_on,45,69,120
2,note_on,57,81,0
2,note_on,57,0,120
2,note_on,45,0,0
2,note_on,54,57,120
2,note_on,42,48,0
2,note_on,42,0,120
2,note_on,54,0,0
2,note_on,43,51,120
2,note_on,55,60,0
2,note_on,55,0,120
2,note_on,43,0,0
2,note_on,58,57,120
2,note_on,46,48,0
2,note_on,46,0,120
2,note_on,58,0,0
2,note_on,43,67,120
2,note_on,55,80,0
2,note_on,55,0,120
2,note_on,43,0,0
2,note_on,46,47,120
2,note_on,58,56,0
2,note_on,58,0,120
2,note_on,46,0,0
2,note_on,53,67,120
2,note_on,41,57,0
2,note_on,41,0,120
2,note_on,53,0,0
2,note_on,57,57,120
2,note_on,45,48,0
2,note_on,45,0,120
2,note_on,57,0,0
2,note_on,52,81,120
2,note_on,40,69,0
2,note_on,40,0,120
2,note_on,52,0,0
2,note_on,43,48,120
2,note_on,55,57,0
2,note_on,55,0,120
2,note_on,43,0,0
2,note_on,38,58,120
2,note_on,50,69,0
2,note_on,50,0,120
2,note_on,38,0,0
2,note_on,41,48,120
2,note_on,53,57,0
2,note_on,53,0,120
2,note_on,41,0,0
2,note_on,38,67,120
2,note_on,50,80,0
2,note_on,50,0,120
2,note_on,38,0,0
2,note_on,53,56,120
2,note_on,41,47,0
2,note_on,41,0,120
2,note_on,53,0,0
2,note_on,35,57,120
2,note_on,47,67,0
2,note_on,47,0,120
2,note_on,35,0,0
2,note_on,38,48,120
2,note_on,50,57,0
2,note_on,50,0,120
2,note_on,38,0,0
2,note_on,32,69,120
2,note_on,44,81,0
2,note_on,44,0,120
2,note_on,32,0,0
2,note_on,35,48,120
2,note_on,47,57,0
2,note_on,47,0,120
2,note_on,35,0,0
2,note_on,40,69,120
2,note_on,40,0,120
2,note_on,44,57,120
2,note_on,44,0,120
2,note_on,40,80,120
2,note_on,40,0,120
2,note_on,44,56,120
2,note_on,44,0,120
2,note_on,40,67,120
2,note_on,40,0,120
2,note_on,44,57,120
2,note_on,44,0,120
2,note_on,40,81,120
2,note_on,40,0,120
2,note_on,44,57,120
2,note_on,44,0,120
2,note_on,40,69,120
2,note_on,40,0,120
2,note_on,44,57,120
2,note_on,44,0,120
2,note_on,40,60,120
2,note_on,40,0,120
2,note_on,42,52,0
2,note_on,42,0,120
2,note_on,44,52,0
2,note_on,44,0,120
2,note_on,45,52,0
2,note_on,45,0,120
2,note_on,46,60,0
2,note_on,46,0,120
2,note_on,47,51,0
2,note_on,47,0,120
2,note_on,46,58,0
2,note_on,46,0,120
2,note_on,47,51,0
2,note_on,47,0,120
2,note_on,40,60,0
2,note_on,40,0,120
2,note_on,42,52,0
2,note_on,42,0,120
2,note_on,44,52,0
2,note_on,44,0,120
2,note_on,45,52,0
2,note_on,45,0,120
2,note_on,46,60,0
2,note_on,46,0,120
2,note_on,47,51,0
2,note_on,47,0,120
2,note_on,46,58,0
2,note_on,46,0,120
2,note_on,47,51,0
2,note_on,47,0,120
2,note_on,40,51,0
2,note_on,40,0,120
2,note_on,42,44,0
2,note_on,42,0,120
2,note_on,44,44,0
2,note_on,44,0,120
2,note_on,45,44,0
2,note_on,45,0,120
2,note_on,46,51,0
2,note_on,46,0,120
2,note_on,47,43,0
2,note_on,47,0,120
2,note_on,46,49,0
2,note_on,46,0,120
2,note_on,47,43,0
2,note_on,47,0,120
2,note_on,40,51,0
2,note_on,40,0,120
2,note_on,42,44,0
2,note_on,42,0,120
2,note_on,44,44,0
2,note_on,44,0,120
2,note_on,45,44,0
2,note_on,45,0,120
2,note_on,46,51,0
2,note_on,46,0,120
2,note_on,47,43,0
2,note_on,47,0,120
2,note_on,46,49,0
2,note_on,46,0,120
2,note_on,47,43,0
2,note_on,47,0,120
2,note_on,46,52,0
2,note_on,46,0,120
2,note_on,47,43,0
2,note_on,47,0,120
2,note_on,49,46,0
2,note_on,49,0,120
2,note_on,50,43,0
2,note_on,50,0,120
2,note_on,51,51,0
2,note_on,51,0,120
2,note_on,52,44,0
2,note_on,52,0,120
2,note_on,54,44,0
2,note_on,54,0,120
2,note_on,56,45,0
2,note_on,56,0,120
2,note_on,57,42,0
2,note_on,57,0,120
2,note_on,59,38,0
2,note_on,59,0,120
2,note_on,61,42,0
2,note_on,61,0,120
2,note_on,62,39,0
2,note_on,62,0,120
2,note_on,63,42,0
2,note_on,63,0,120
2,note_on,64,38,0
2,note_on,64,0,120
2,note_on,63,40,0
2,note_on,63,0,120
2,note_on,64,42,0
2,note_on,64,0,120
2,note_on,66,49,0
2,note_on,62,41,0
2,note_on,57,41,0
2,note_on,62,0,480
2,note_on,66,0,0
2,note_on,64,39,0
2,note_on,61,33,0
2,note_on,61,0,240
2,note_on,64,0,0
2,note_on,57,0,0
2,note_on,61,51,240
2,note_on,61,0,160
2,note_on,64,45,0
2,note_on,64,0,160
2,note_on,62,45,0
2,note_on,62,0,160
2,note_on,61,54,0
2,note_on,61,0,160
2,note_on,64,43,0
2,note_on,64,0,160
2,note_on,69,43,0
2,note_on,69,0,160
2,note_on,71,57,0
2,note_on,71,0,473
2,note_on,64,50,7
2,note_on,64,0,240
2,note_on,74,51,241
2,note_on,74,0,120
2,note_on,71,47,120
2,note_on,71,0,120
2,note_on,68,47,120
2,note_on,68,0,120
2,note_on,64,47,120
2,note_on,64,0,120
2,note_on,73,51,120
2,note_on,73,0,120
2,note_on,69,47,120
2,note_on,69,0,120
2,note_on,64,47,120
2,note_on,64,0,120
2,note_on,61,47,120
2,note_on,61,0,120
2,note_on,62,51,120
2,note_on,62,0,120
2,note_on,64,39,0
2,note_on,64,0,120
2,note_on,62,46,0
2,note_on,62,0,120
2,note_on,64,38,0
2,note_on,64,0,120
2,note_on,68,51,0
2,note_on,68,0,120
2,note_on,71,38,0
2,note_on,71,0,120
2,note_on,68,45,0
2,note_on,68,0,120
2,note_on,71,39,0
2,note_on,71,0,120
2,note_on,61,51,0
2,note_on,61,0,120
2,note_on,64,42,0
2,note_on,64,0,120
2,note_on,61,46,0
2,note_on,61,0,120
2,note_on,64,42,0
2,note_on,64,0,120
2,note_on,69,51,0
2,note_on,69,0,120
2,note_on,73,41,0
2,note_on,73,0,120
2,note_on,69,45,0
2,note_on,69,0,120
2,note_on,73,41,0
2,note_on,73,0,120
2,note_on,64,69,0
2,note_on,64,0,120
2,note_on,66,58,0
2,note_on,66,0,120
2,note_on,68,64,0
2,note_on,68,0,120
2,note_on,69,59,0
2,note_on,69,0,120
2,note_on,70,69,0
2,note_on,70,0,120
2,note_on,71,56,0
2,note_on,71,0,120
2,note_on,70,65,0
2,note_on,70,0,120
2,note_on,71,59,0
2,note_on,71,0,120
2,note_on,69,69,0
2,note_on,69,0,120
2,note_on,71,58,0
2,note_on,71,0,120
2,note_on,73,64,0
2,note_on,73,0,120
2,note_on,74,59,0
2,note_on,75,70,119
2,note_on,74,0,1
2,note_on,75,0,119
2,note_on,76,57,1
2,note_on,75,62,119
2,note_on,76,0,1
2,note_on,75,0,119
2,note_on,76,49,1
2,note_on,76,0,120
2,note_on,62,58,0
2,note_on,62,0,120
2,note_on,71,37,0
2,note_on,71,0,120
2,note_on,62,46,0
2,note_on,62,0,120
2,note_on,71,38,0
2,note_on,71,0,120
2,note_on,64,51,0
2,note_on,74,38,119
2,note_on,64,0,1
2,note_on,74,0,119
2,note_on,64,45,1
2,note_on,74,41,119
2,note_on,64,0,1
2,note_on,74,0,119
2,note_on,69,51,1
2,note_on,69,0,120
2,note_on,73,42,0
2,note_on,73,0,120
2,note_on,69,46,0
2,note_on,69,0,120
2,note_on,73,42,0
2,note_on,73,0,120
2,note_on,57,51,0
2,note_on,57,0,120
2,note_on,61,45,119
2,note_on,61,0,120
2,note_on,62,58,121
2,note_on,62,0,120
2,note_on,71,40,0
2,note_on,71,0,120
2,note_on,62,46,0
2,note_on,62,0,120
2,note_on,71,38,0
2,note_on,71,0,120
2,note_on,64,51,0
2,note_on,74,41,119
2,note_on,64,0,1
2,note_on,74,0,119
2,note_on,64,45,1
2,note_on,74,41,119
2,note_on,64,0,1
2,note_on,74,0,119
2,note_on,69,43,1
2,note_on,69,0,120
2,note_on,73,35,0
2,note_on,73,0,120
2,note_on,69,39,0
2,note_on,69,0,120
2,note_on,73,35,0
2,note_on,61,40,119
2,note_on,73,0,1
2,note_on,57,34,0
2,note_on,61,0,119
2,note_on,57,0,1
2,note_on,64,36,119
2,note_on,61,30,0
2,note_on,61,0,120
2,note_on,64,0,0
2,note_on,62,58,121
2,note_on,62,0,120
2,note_on,71,38,0
2,note_on,71,0,120
2,note_on,62,46,0
2,note_on,62,0,120
2,note_on,71,38,0
2,note_on,71,0,120
2,note_on,64,51,0
2,note_on,74,41,119
2,note_on,64,0,1
2,note_on,74,0,119
2,note_on,64,45,1
2,note_on,74,41,119
2,note_on,64,0,1
2,note_on,74,0,119
2,note_on,69,45,1
2,note_on,69,0,120
2,note_on,73,37,0
2,note_on,73,0,120
2,note_on,69,41,0
2,note_on,69,0,120
2,note_on,73,37,0
2,note_on,73,0,120
2,note_on,57,45,0
2,note_on,57,0,120
2,note_on,69,45,120
2,note_on,69,0,119
2,note_on,57,75,120
2,note_on,57,0,120
2,note_on,59,58,0
2,note_on,59,0,120
2,note_on,61,64,0
2,note_on,61,0,120
2,note_on,62,59,0
2,note_on,62,0,120
2,note_on,63,70,0
2,note_on,63,0,120
2,note_on,64,61,0
2,note_on,64,0,120
2,note_on,63,68,0
2,note_on,63,0,120
2,note_on,64,59,0
2,note_on,64,0,120
2,note_on,45,75,0
2,note_on,45,0,120
2,note_on,47,58,0
2,note_on,47,0,120
2,note_on,49,64,0
2,note_on,49,0,120
2,note_on,50,59,0
2,note_on,50,0,120
2,note_on,51,70,0
2,note_on,51,0,120
2,note_on,52,61,0
2,note_on,52,0,120
2,note_on,51,68,0
2,note_on,51,0,120
2,note_on,52,59,0
2,note_on,52,0,120
2,note_on,51,75,0
2,note_on,51,0,120
2,note_on,52,62,0
2,note_on,52,0,120
2,note_on,54,66,0
2,note_on,54,0,120
2,note_on,56,62,0
2,note_on,56,0,120
2,note_on,57,74,0
2,note_on,57,0,120
2,note_on,59,63,0
2,note_on,59,0,120
2,note_on,61,64,0
2,note_on,61,0,120
2,note_on,62,65,0
2,note_on,62,0,120
2,note_on,63,65,0
2,note_on,63,0,120
2,note_on,64,60,0
2,note_on,64,0,120
2,note_on,62,30,5520
2,note_on,66,36,0
2,note_on,66,0,240
2,note_on,62,0,0
2,note_on,57,26,240
2,note_on,66,31,0
2,note_on,66,0,240
2,note_on,57,0,0
2,note_on,67,36,240
2,note_on,64,30,0
2,note_on,64,0,240
2,note_on,67,0,0
2,note_on,57,26,240
2,note_on,67,31,0
2,note_on,67,0,240
2,note_on,57,0,0
2,note_on,62,30,240
2,note_on,66,36,0
2,note_on,66,0,240
2,note_on,62,0,0
2,note_on,57,25,240
2,note_on,66,30,0
2,note_on,66,0,240
2,note_on,57,0,0
2,note_on,61,30,240
2,note_on,67,36,0
2,note_on,67,0,240
2,note_on,61,0,0
2,note_on,67,32,240
2,note_on,57,27,0
2,note_on,57,0,240
2,note_on,67,0,0
2,note_on,62,30,240
2,note_on,66,36,0
2,note_on,66,0,240
2,note_on,62,0,0
2,note_on,57,26,240
2,note_on,66,31,0
2,note_on,66,0,240
2,note_on,57,0,0
2,note_on,67,36,240
2,note_on,62,30,0
2,note_on,59,30,0
2,note_on,59,0,240
2,note_on,62,0,0
2,note_on,67,0,0
2,note_on,67,31,240
2,note_on,62,26,0
2,note_on,55,26,0
2,note_on,55,0,240
2,note_on,62,0,0
2,note_on,67,0,0
2,note_on,66,36,240
2,note_on,62,30,0
2,note_on,62,0,240
2,note_on,66,0,0
2,note_on,57,25,240
2,note_on,66,30,0
2,note_on,66,0,240
2,note_on,57,0,0
2,note_on,66,36,240
2,note_on,62,30,0
2,note_on,62,0,240
2,note_on,66,0,0
2,note_on,66,32,240
2,note_on,57,27,0
2,note_on,57,0,240
2,note_on,66,0,0
2,note_on,66,36,240
2,note_on,62,30,0
2,note_on,62,0,240
2,note_on,66,0,0
2,note_on,66,31,240
2,note_on,57,26,0
2,note_on,57,0,240
2,note_on,66,0,0
2,note_on,64,30,240
2,note_on,67,36,0
2,note_on,67,0,240
2,note_on,64,0,0
2,note_on,67,35,240
2,note_on,57,26,0
2,note_on,57,0,240
2,note_on,67,0,0
2,note_on,58,30,240
2,note_on,66,41,0
2,note_on,66,0,240
2,note_on,58,0,0
2,note_on,61,30,240
2,note_on,58,25,0
2,note_on,58,0,240
2,note_on,61,0,0
2,note_on,59,30,240
2,note_on,62,36,0
2,note_on,62,0,240
2,note_on,59,0,0
2,note_on,67,32,240
2,note_on,55,27,0
2,note_on,62,27,0
2,note_on,62,0,240
2,note_on,55,0,0
2,note_on,67,0,0
2,note_on,66,36,240
2,note_on,62,30,0
2,note_on,62,0,240
2,note_on,66,0,0
2,note_on,57,26,240
2,note_on,66,31,0
2,note_on,66,0,240
2,note_on,57,0,0
2,note_on,67,36,240
2,note_on,61,30,0
2,note_on,61,0,240
2,note_on,67,0,0
2,note_on,67,31,240
2,note_on,57,26,0
2,note_on,57,0,240
2,note_on,67,0,0
2,note_on,66,36,240
2,note_on,62,30,0
2,note_on,62,0,950
2,note_on,66,0,10
2,note_on,50,58,0
2,note_on,50,0,120
2,note_on,54,52,0
2,note_on,54,0,120
2,note_on,50,54,0
2,note_on,50,0,120
2,note_on,54,52,0
2,note_on,54,0,120
2,note_on,59,58,0
2,note_on,59,0,120
2,note_on,57,52,0
2,note_on,57,0,120
2,note_on,54,55,0
2,note_on,54,0,120
2,note_on,50,52,0
2,note_on,50,0,120
2,note_on,49,49,0
2,note_on,55,58,0
2,note_on,55,0,240
2,note_on,49,0,0
2,note_on,45,42,240
2,note_on,55,50,0
2,note_on,55,0,240
2,note_on,45,0,0
2,note_on,49,47,240
2,note_on,55,56,0
2,note_on,55,0,240
2,note_on,49,0,0
2,note_on,45,47,240
2,note_on,55,56,0
2,note_on,55,0,240
2,note_on,45,0,0
2,note_on,50,49,240
2,note_on,54,58,0
2,note_on,54,0,240
2,note_on,50,0,0
2,note_on,45,37,240
2,note_on,54,44,0
2,note_on,54,0,240
2,note_on,45,0,0
2,note_on,54,56,240
2,note_on,50,47,0
2,note_on,50,0,240
2,note_on,54,0,0
2,note_on,54,47,240
2,note_on,57,56,0
2,note_on,57,0,240
2,note_on,54,0,0
2,note_on,61,56,240
2,note_on,52,47,0
2,note_on,52,0,240
2,note_on,61,0,0
2,note_on,57,42,240
2,note_on,61,50,0
2,note_on,61,0,240
2,note_on,57,0,0
2,note_on,59,47,240
2,note_on,62,56,0
2,note_on,62,0,240
2,note_on,59,0,0
2,note_on,62,50,240
2,note_on,52,42,0
2,note_on,52,0,240
2,note_on,62,0,0
2,note_on,61,63,240
2,note_on,57,56,0
2,note_on,57,0,960
2,note_on,61,0,0
2,note_on,57,68,0
2,note_on,57,0,120
2,note_on,61,53,0
2,note_on,61,0,120
2,note_on,57,61,0
2,note_on,57,0,120
2,note_on,61,53,0
2,note_on,61,0,120
2,note_on,66,68,0
2,note_on,66,0,120
2,note_on,64,58,0
2,note_on,64,0,120
2,note_on,61,63,0
2,note_on,61,0,120
2,note_on,57,58,0
2,note_on,57,0,110
2,note_on,57,72,10
2,note_on,57,0,480
2,note_on,56,64,0
2,note_on,56,0,240
2,note_on,59,68,240
2,note_on,59,0,120
2,note_on,62,53,0
2,note_on,62,0,120
2,note_on,59,62,0
2,note_on,59,0,120
2,note_on,62,53,0
2,note_on,62,0,120
2,note_on,66,68,0
2,note_on,66,0,120
2,note_on,64,58,0
2,note_on,64,0,120
2,note_on,62,61,0
2,note_on,62,0,120
2,note_on,59,58,0
2,note_on,59,0,120
2,note_on,61,72,0
2,note_on,61,0,480
2,note_on,57,64,0
2,note_on,57,0,240
2,note_on,55,66,240
2,note_on,55,0,120
2,note_on,61,54,0
2,note_on,61,0,120
2,note_on,55,58,0
2,note_on,55,0,120
2,note_on,61,54,0
2,note_on,61,0,120
2,note_on,66,61,0
2,note_on,66,0,120
2,note_on,64,59,0
2,note_on,64,0,120
2,note_on,61,62,0
2,note_on,61,0,120
2,note_on,55,60,0
2,note_on,55,0,120
2,note_on,54,67,0
2,note_on,54,0,120
2,note_on,57,58,0
2,note_on,57,0,120
2,note_on,54,62,0
2,note_on,54,0,120
2,note_on,62,58,0
2,note_on,62,0,120
2,note_on,53,65,0
2,note_on,53,0,120
2,note_on,57,52,0
2,note_on,57,0,120
2,note_on,53,56,0
2,note_on,53,0,120
2,note_on,62,52,0
2,note_on,62,0,120
2,note_on,52,63,0
2,note_on,52,0,120
2,note_on,61,52,0
2,note_on,61,0,120
2,note_on,57,57,0
2,note_on,57,0,120
2,note_on,61,52,0
2,note_on,61,0,120
2,note_on,64,60,0
2,note_on,64,0,120
2,note_on,62,52,0
2,note_on,62,0,120
2,note_on,59,56,0
2,note_on,59,0,120
2,note_on,61,52,0
2,note_on,61,0,120
2,note_on,57,62,0
2,note_on,57,0,478
2,note_on,57,45,2
2,note_on,69,54,0
2,note_on,61,45,0
2,note_on,61,0,480
2,note_on,69,0,0
2,note_on,57,0,0
2,note_on,59,41,0
2,note_on,68,49,0
2,note_on,62,41,0
2,note_on,62,0,480
2,note_on,68,0,0
2,note_on,59,0,0
2,note_on,64,39,0
2,note_on,67,47,0
2,note_on,61,39,0
2,note_on,61,0,480
2,note_on,67,0,0
2,note_on,64,0,0
2,note_on,66,36,0
2,note_on,62,30,0
2,note_on,62,0,240
2,note_on,66,0,0
2,note_on,66,31,240
2,note_on,57,26,0
2,note_on,57,0,240
2,note_on,66,0,0
2,note_on,67,36,240
2,note_on,64,30,0
2,note_on,64,0,240
2,note_on,67,0,0
2,note_on,66,31,240
2,note_on,57,26,0
2,note_on,57,0,240
2,note_on,66,0,0
2,note_on,66,36,240
2,note_on,62,30,0
2,note_on,62,0,240
2,note_on,66,0,0
2,note_on,66,31,240
2,note_on,57,26,0
2,note_on,57,0,240
2,note_on,66,0,0
2,note_on,67,36,240
2,note_on,64,30,0
2,note_on,64,0,240
2,note_on,67,0,0
2,note_on,57,26,240
2,note_on,67,31,0
2,note_on,67,0,240
2,note_on,57,0,0
2,note_on,66,36,240
2,note_on,62,30,0
2,note_on,62,0,240
2,note_on,66,0,0
2,note_on,66,30,240
2,note_on,57,25,0
2,note_on,57,0,240
2,note_on,66,0,0
2,note_on,67,36,240
2,note_on,61,30,0
2,note_on,61,0,240
2,note_on,67,0,0
2,note_on,57,27,240
2,note_on,67,32,0
2,note_on,67,0,240
2,note_on,57,0,0
2,note_on,66,36,240
2,note_on,62,30,0
2,note_on,62,0,240
2,note_on,66,0,0
2,note_on,57,26,240
2,note_on,66,31,0
2,note_on,66,0,240
2,note_on,57,0,0
2,note_on,59,30,240
2,note_on,67,36,0
2,note_on,62,30,0
2,note_on,62,0,240
2,note_on,67,0,0
2,note_on,59,0,0
2,note_on,55,26,240
2,note_on,62,26,0
2,note_on,67,31,0
2,note_on,67,0,240
2,note_on,62,0,0
2,note_on,55,0,0
2,note_on,66,36,240
2,note_on,62,30,0
2,note_on,62,0,240
2,note_on,66,0,0
2,note_on,66,30,240
2,note_on,57,25,0
2,note_on,57,0,240
2,note_on,66,0,0
2,note_on,62,25,240
2,note_on,65,30,0
2,note_on,65,0,240
2,note_on,62,0,0
2,note_on,65,27,240
2,note_on,57,22,0
2,note_on,57,0,240
2,note_on,65,0,0
2,note_on,62,25,240
2,note_on,65,30,0
2,note_on,65,0,240
2,note_on,62,0,0
2,note_on,57,22,240
2,note_on,65,26,0
2,note_on,65,0,240
2,note_on,57,0,0
2,note_on,65,30,240
2,note_on,63,25,0
2,note_on,60,25,0
2,note_on,60,0,240
2,note_on,63,0,0
2,note_on,65,0,0
2,note_on,63,22,240
2,note_on,65,29,0
2,note_on,53,22,0
2,note_on,53,0,240
2,note_on,65,0,0
2,note_on,63,0,0
2,note_on,62,25,240
2,note_on,58,25,0
2,note_on,65,34,0
2,note_on,65,0,240
2,note_on,58,0,0
2,note_on,62,0,0
2,note_on,65,25,240
2,note_on,53,21,0
2,note_on,62,21,0
2,note_on,62,0,240
2,note_on,53,0,0
2,note_on,65,0,0
2,note_on,58,30,240
2,note_on,62,30,0
2,note_on,65,36,0
2,note_on,65,0,240
2,note_on,62,0,0
2,note_on,58,0,0
2,note_on,68,38,240
2,note_on,62,32,0
2,note_on,58,32,0
2,note_on,58,0,240
2,note_on,62,0,0
2,note_on,68,0,0
2,note_on,62,30,240
2,note_on,69,36,0
2,note_on,66,30,0
2,note_on,66,0,240
2,note_on,69,0,0
2,note_on,62,0,0
2,note_on,69,31,240
2,note_on,66,26,0
2,note_on,57,26,0
2,note_on,57,0,240
2,note_on,66,0,0
2,note_on,69,0,0
2,note_on,67,30,240
2,note_on,61,30,0
2,note_on,69,36,0
2,note_on,69,0,240
2,note_on,61,0,0
2,note_on,67,0,0
2,note_on,57,26,240
2,note_on,67,26,0
2,note_on,69,31,0
2,note_on,69,0,240
2,note_on,67,0,0
2,note_on,57,0,0
2,note_on,69,36,240
2,note_on,66,30,0
2,note_on,66,0,240
2,note_on,69,0,0
2,note_on,62,26,240
2,note_on,66,26,0
2,note_on,69,31,0
2,note_on,69,0,240
2,note_on,66,0,0
2,note_on,62,0,0
2,note_on,62,30,240
2,note_on,67,36,0
2,note_on,59,30,0
2,note_on,59,0,240
2,note_on,67,0,0
2,note_on,62,0,0
2,note_on,55,26,240
2,note_on,67,31,0
2,note_on,62,26,0
2,note_on,62,0,240
2,note_on,67,0,0
2,note_on,55,0,0
2,note_on,62,35,240
2,note_on,66,42,0
2,note_on,66,0,240
2,note_on,62,0,0
2,note_on,57,28,240
2,note_on,66,34,0
2,note_on,66,0,240
2,note_on,57,0,0
2,note_on,67,40,240
2,note_on,61,34,0
2,note_on,61,0,240
2,note_on,67,0,0
2,note_on,57,30,240
2,note_on,67,36,0
2,note_on,67,0,240
2,note_on,57,0,0
2,note_on,66,43,240
2,note_on,62,36,0
2,note_on,62,0,960
2,note_on,66,0,0
2,note_on,43,45,960
2,note_on,43,0,60
2,note_on,55,35,60
2,note_on,55,0,120
2,note_on,59,38,0
2,note_on,59,0,120
2,note_on,55,37,0
2,note_on,55,0,120
2,note_on,62,42,0
2,note_on,62,0,120
2,note_on,55,32,0
2,note_on,55,0,120
2,note_on,59,36,0
2,note_on,59,0,120
2,note_on,55,36,0
2,note_on,55,0,120
2,note_on,43,49,0
2,note_on,43,0,60
2,note_on,55,33,60
2,note_on,55,0,120
2,note_on,58,36,0
2,note_on,58,0,120
2,note_on,55,33,0
2,note_on,55,0,120
2,note_on,64,42,0
2,note_on,64,0,120
2,note_on,55,35,0
2,note_on,55,0,120
2,note_on,58,37,0
2,note_on,58,0,120
2,note_on,55,35,0
2,note_on,55,0,120
2,note_on,43,45,0
2,note_on,43,0,60
2,note_on,55,36,60
2,note_on,55,0,120
2,note_on,59,38,0
2,note_on,59,0,120
2,note_on,55,36,0
2,note_on,55,0,120
2,note_on,62,42,0
2,note_on,62,0,120
2,note_on,55,36,0
2,note_on,55,0,120
2,note_on,59,36,0
2,note_on,59,0,120
2,note_on,55,33,0
2,note_on,55,0,120
2,note_on,64,35,0
2,note_on,64,0,216
2,note_on,62,32,24
2,note_on,62,0,216
2,note_on,59,32,24
2,note_on,59,0,216
2,note_on,55,38,24
2,note_on,55,0,216
2,note_on,38,45,24
2,note_on,38,0,60
2,note_on,50,37,60
2,note_on,50,0,120
2,note_on,54,38,0
2,note_on,54,0,120
2,note_on,50,36,0
2,note_on,50,0,120
2,note_on,57,42,0
2,note_on,57,0,120
2,note_on,50,34,0
2,note_on,50,0,120
2,note_on,54,36,0
2,note_on,54,0,120
2,note_on,50,34,0
2,note_on,50,0,120
2,note_on,45,49,0
2,note_on,45,0,60
2,note_on,52,33,60
2,note_on,52,0,120
2,note_on,55,36,0
2,note_on,55,0,120
2,note_on,52,33,0
2,note_on,52,0,120
2,note_on,57,42,0
2,note_on,57,0,120
2,note_on,52,34,0
2,note_on,52,0,120
2,note_on,55,37,0
2,note_on,55,0,120
2,note_on,52,35,0
2,note_on,52,0,120
2,note_on,38,45,0
2,note_on,38,0,60
2,note_on,50,37,60
2,note_on,50,0,120
2,note_on,54,38,0
2,note_on,54,0,120
2,note_on,50,37,0
2,note_on,50,0,120
2,note_on,57,42,0
2,note_on,57,0,120
2,note_on,50,35,0
2,note_on,50,0,120
2,note_on,61,36,0
2,note_on,61,0,120
2,note_on,50,33,0
2,note_on,50,0,120
2,note_on,62,35,0
2,note_on,62,0,216
2,note_on,62,33,24
2,note_on,62,0,216
2,note_on,64,35,24
2,note_on,64,0,216
2,note_on,65,36,24
2,note_on,65,0,216
2,note_on,40,45,24
2,note_on,40,0,60
2,note_on,52,35,60
2,note_on,52,0,120
2,note_on,56,38,0
2,note_on,56,0,120
2,note_on,52,38,0
2,note_on,52,0,120
2,note_on,62,42,0
2,note_on,62,0,120
2,note_on,52,34,0
2,note_on,52,0,120
2,note_on,56,36,0
2,note_on,56,0,120
2,note_on,52,36,0
2,note_on,52,0,120
2,note_on,45,49,0
2,note_on,45,0,60
2,note_on,52,37,60
2,note_on,52,0,120
2,note_on,57,36,0
2,note_on,57,0,120
2,note_on,52,36,0
2,note_on,52,0,120
2,note_on,60,46,0
2,note_on,60,0,120
2,note_on,52,39,0
2,note_on,52,0,120
2,note_on,59,40,0
2,note_on,59,0,120
2,note_on,52,42,0
2,note_on,52,0,120
2,note_on,38,45,0
2,note_on,38,0,60
2,note_on,50,35,60
2,note_on,50,0,120
2,note_on,54,38,0
2,note_on,54,0,120
2,note_on,50,36,0
2,note_on,50,0,120
2,note_on,60,42,0
2,note_on,60,0,120
2,note_on,50,33,0
2,note_on,50,0,120
2,note_on,54,36,0
2,note_on,54,0,120
2,note_on,50,34,0
2,note_on,50,0,120
2,note_on,55,42,0
2,note_on,55,0,120
2,note_on,50,40,0
2,note_on,50,0,120
2,note_on,60,47,0
2,note_on,60,0,120
2,note_on,50,42,0
2,note_on,50,0,120
2,note_on,59,47,0
2,note_on,59,0,120
2,note_on,50,40,0
2,note_on,50,0,120
2,note_on,55,39,0
2,note_on,55,0,120
2,note_on,50,38,0
2,note_on,50,0,120
2,note_on,38,45,0
2,note_on,38,0,60
2,note_on,50,37,60
2,note_on,50,0,120
2,note_on,54,38,0
2,note_on,54,0,120
2,note_on,50,35,0
2,note_on,50,0,120
2,note_on,60,42,0
2,note_on,60,0,120
2,note_on,50,34,0
2,note_on,50,0,120
2,note_on,54,36,0
2,note_on,54,0,120
2,note_on,50,34,0
2,note_on,50,0,120
2,note_on,55,42,0
2,note_on,55,0,120
2,note_on,50,44,0
2,note_on,50,0,120
2,note_on,60,43,0
2,note_on,60,0,120
2,note_on,50,42,0
2,note_on,50,0,120
2,note_on,59,47,0
2,note_on,59,0,120
2,note_on,50,40,0
2,note_on,50,0,120
2,note_on,55,39,0
2,note_on,55,0,120
2,note_on,50,38,0
2,note_on,50,0,120
2,note_on,38,45,0
2,note_on,38,0,60
2,note_on,50,38,60
2,note_on,50,0,120
2,note_on,54,38,0
2,note_on,54,0,120
2,note_on,50,38,0
2,note_on,50,0,120
2,note_on,62,42,0
2,note_on,62,0,120
2,note_on,50,29,0
2,note_on,50,0,120
2,note_on,60,36,0
2,note_on,60,0,120
2,note_on,50,28,0
2,note_on,50,0,120
2,note_on,55,30,0
2,note_on,59,36,0
2,note_on,59,0,240
2,note_on,55,0,0
2,note_on,43,45,720
2,note_on,43,0,60
2,note_on,55,35,60
2,note_on,55,0,120
2,note_on,59,38,0
2,note_on,59,0,120
2,note_on,55,36,0
2,note_on,55,0,120
2,note_on,62,42,0
2,note_on,62,0,120
2,note_on,55,34,0
2,note_on,55,0,120
2,note_on,59,36,0
2,note_on,59,0,120
2,note_on,55,34,0
2,note_on,55,0,120
2,note_on,43,49,0
2,note_on,43,0,60
2,note_on,55,37,60
2,note_on,55,0,120
2,note_on,58,40,0
2,note_on,58,0,120
2,note_on,55,36,0
2,note_on,55,0,120
2,note_on,64,42,0
2,note_on,64,0,120
2,note_on,55,35,0
2,note_on,55,0,120
2,note_on,58,37,0
2,note_on,58,0,120
2,note_on,55,35,0
2,note_on,55,0,120
2,note_on,43,45,0
2,note_on,43,0,60
2,note_on,55,36,60
2,note_on,55,0,120
2,note_on,59,38,0
2,note_on,59,0,120
2,note_on,55,37,0
2,note_on,55,0,120
2,note_on,62,45,0
2,note_on,62,0,120
2,note_on,55,43,0
2,note_on,55,0,120
2,note_on,59,46,0
2,note_on,59,0,120
2,note_on,62,48,0
2,note_on,62,0,120
2,note_on,65,50,0
2,note_on,65,0,216
2,note_on,64,42,24
2,note_on,64,0,216
2,note_on,65,42,24
2,note_on,65,0,216
2,note_on,67,47,24
2,note_on,67,0,216
2,note_on,48,51,24
2,note_on,48,0,60
2,note_on,55,40,60
2,note_on,55,0,120
2,note_on,60,43,0
2,note_on,60,0,120
2,note_on,55,40,0
2,note_on,55,0,120
2,note_on,64,48,0
2,note_on,64,0,120
2,note_on,55,38,0
2,note_on,55,0,120
2,note_on,60,41,0
2,note_on,60,0,120
2,note_on,55,40,0
2,note_on,55,0,120
2,note_on,38,56,0
2,note_on,38,0,60
2,note_on,50,39,60
2,note_on,50,0,120
2,note_on,55,41,0
2,note_on,55,0,120
2,note_on,50,39,0
2,note_on,50,0,120
2,note_on,59,48,0
2,note_on,59,0,120
2,note_on,50,40,0
2,note_on,50,0,120
2,note_on,57,42,0
2,note_on,57,0,120
2,note_on,50,38,0
2,note_on,50,0,120
2,note_on,38,51,0
2,note_on,38,0,60
2,note_on,50,40,60
2,note_on,50,0,120
2,note_on,55,40,0
2,note_on,55,0,120
2,note_on,50,38,0
2,note_on,50,0,120
2,note_on,55,51,0
2,note_on,55,0,120
2,note_on,59,41,0
2,note_on,59,0,120
2,note_on,62,44,0
2,note_on,62,0,120
2,note_on,64,41,0
2,note_on,64,0,120
2,note_on,65,51,0
2,note_on,65,0,216
2,note_on,64,40,24
2,note_on,64,0,216
2,note_on,65,42,24
2,note_on,65,0,120
2,note_on,69,39,0
2,note_on,69,0,120
2,note_on,67,47,0
2,note_on,67,0,216
2,note_on,48,53,24
2,note_on,48,0,60
2,note_on,55,40,60
2,note_on,55,0,120
2,note_on,60,42,0
2,note_on,60,0,120
2,note_on,55,39,0
2,note_on,55,0,120
2,note_on,59,50,0
2,note_on,59,0,120
2,note_on,55,36,0
2,note_on,55,0,120
2,note_on,60,39,0
2,note_on,60,0,120
2,note_on,55,36,0
2,note_on,55,0,120
2,note_on,38,49,0
2,note_on,38,0,60
2,note_on,50,35,60
2,note_on,50,0,120
2,note_on,55,36,0
2,note_on,55,0,120
2,note_on,50,35,0
2,note_on,50,0,120
2,note_on,57,42,0
2,note_on,57,0,120
2,note_on,50,36,0
2,note_on,50,0,120
2,note_on,60,37,0
2,note_on,60,0,120
2,note_on,50,34,0
2,note_on,50,0,120
2,note_on,43,45,0
2,note_on,43,0,60
2,note_on,50,36,60
2,note_on,50,0,120
2,note_on,55,38,0
2,note_on,55,0,120
2,note_on,50,37,0
2,note_on,50,0,120
2,note_on,55,42,0
2,note_on,55,0,120
2,note_on,50,36,0
2,note_on,50,0,120
2,note_on,43,39,0
2,note_on,43,0,120
2,note_on,45,36,0
2,note_on,45,0,120
2,note_on,46,56,0
2,note_on,46,0,120
2,note_on,45,48,0
2,note_on,45,0,120
2,note_on,43,48,0
2,note_on,43,0,120
2,note_on,45,48,0
2,note_on,45,0,120
2,note_on,46,56,0
2,note_on,46,0,120
2,note_on,43,49,0
2,note_on,43,0,120
2,note_on,46,49,0
2,note_on,46,0,120
2,note_on,43,49,0
2,note_on,43,0,120
2,note_on,55,65,0
2,note_on,55,0,230
2,note_on,43,51,10
2,note_on,43,0,120
2,note_on,43,52,120
2,note_on,43,0,120
2,note_on,43,52,120
2,note_on,43,0,120
2,note_on,39,62,120
2,note_on,39,0,120
2,note_on,38,49,0
2,note_on,38,0,120
2,note_on,36,49,0
2,note_on,36,0,120
2,note_on,38,49,0
2,note_on,38,0,120
2,note_on,39,63,0
2,note_on,39,0,120
2,note_on,36,52,0
2,note_on,36,0,120
2,note_on,39,52,0
2,note_on,39,0,120
2,note_on,36,50,0
2,note_on,36,0,120
2,note_on,43,65,0
2,note_on,43,0,240
2,note_on,31,48,0
2,note_on,31,0,120
2,note_on,31,48,120
2,note_on,31,0,120
2,note_on,31,48,120
2,note_on,31,0,120
2,note_on,53,56,120
2,note_on,41,56,0
2,note_on,41,0,120
2,note_on,53,0,0
2,note_on,56,49,120
2,note_on,44,57,0
2,note_on,44,0,120
2,note_on,56,0,0
2,note_on,47,59,120
2,note_on,59,59,0
2,note_on,59,0,120
2,note_on,47,0,0
2,note_on,50,62,120
2,note_on,62,54,0
2,note_on,62,0,120
2,note_on,50,0,0
2,note_on,42,64,120
2,note_on,50,64,0
2,note_on,47,64,0
2,note_on,54,75,0
2,note_on,54,0,240
2,note_on,42,0,0
2,note_on,50,0,0
2,note_on,47,0,0
2,note_on,54,47,0
2,note_on,59,56,0
2,note_on,59,0,120
2,note_on,54,0,0
2,note_on,54,47,120
2,note_on,59,56,0
2,note_on,59,0,120
2,note_on,54,0,0
2,note_on,59,56,120
2,note_on,54,47,0
2,note_on,54,0,120
2,note_on,59,0,0
2,note_on,52,47,120
2,note_on,59,47,0
2,note_on,59,0,120
2,note_on,52,0,0
2,note_on,52,47,120
2,note_on,59,40,0
2,note_on,59,0,120
2,note_on,52,0,0
2,note_on,54,47,120
2,note_on,58,47,0
2,note_on,58,0,120
2,note_on,54,0,0
2,note_on,54,47,120
2,note_on,58,41,0
2,note_on,58,0,120
2,note_on,54,0,0
2,note_on,54,58,120
2,note_on,47,49,0
2,note_on,47,0,120
2,note_on,54,0,0
2,note_on,50,50,120
2,note_on,50,0,120
2,note_on,38,49,120
2,note_on,50,59,0
2,note_on,50,0,120
2,note_on,38,0,0
2,note_on,50,62,120
2,note_on,50,0,120
2,note_on,46,64,120
2,note_on,46,0,120
2,note_on,45,55,0
2,note_on,45,0,120
2,note_on,43,55,0
2,note_on,43,0,120
2,note_on,45,55,0
2,note_on,45,0,120
2,note_on,46,64,0
2,note_on,46,0,120
2,note_on,43,56,0
2,note_on,43,0,120
2,note_on,46,56,0
2,note_on,46,0,120
2,note_on,43,56,0
2,note_on,43,0,120
2,note_on,55,65,0
2,note_on,55,0,230
2,note_on,43,51,10
2,note_on,43,0,120
2,note_on,43,52,120
2,note_on,43,0,120
2,note_on,43,52,120
2,note_on,43,0,120
2,note_on,39,62,120
2,note_on,39,0,120
2,note_on,38,49,0
2,note_on,38,0,120
2,note_on,36,49,0
2,note_on,36,0,120
2,note_on,38,49,0
2,note_on,38,0,120
2,note_on,39,63,0
2,note_on,39,0,120
2,note_on,36,52,0
2,note_on,36,0,120
2,note_on,39,52,0
2,note_on,39,0,120
2,note_on,36,50,0
2,note_on,36,0,120
2,note_on,43,65,0
2,note_on,43,0,240
2,note_on,31,48,0
2,note_on,31,0,120
2,note_on,31,48,120
2,note_on,31,0,120
2,note_on,31,48,120
2,note_on,31,0,120
2,note_on,32,61,120
2,note_on,44,61,0
2,note_on,44,0,120
2,note_on,32,0,0
2,note_on,47,53,120
2,note_on,35,62,0
2,note_on,35,0,120
2,note_on,47,0,0
2,note_on,50,64,120
2,note_on,38,64,0
2,note_on,38,0,120
2,note_on,50,0,0
2,note_on,41,68,120
2,note_on,53,59,0
2,note_on,53,0,120
2,note_on,41,0,0
2,note_on,53,64,120
2,note_on,57,75,0
2,note_on,45,64,0
2,note_on,50,64,0
2,note_on,57,0,238
2,note_on,53,0,2
2,note_on,45,0,0
2,note_on,50,0,0
2,note_on,57,51,0
2,note_on,62,61,0
2,note_on,62,0,120
2,note_on,57,0,0
2,note_on,62,61,120
2,note_on,57,51,0
2,note_on,57,0,120
2,note_on,62,0,0
2,note_on,57,51,120
2,note_on,62,61,0
2,note_on,62,0,120
2,note_on,57,0,0
2,note_on,62,47,120
2,note_on,55,47,0
2,note_on,55,0,120
2,note_on,62,0,0
2,note_on,55,47,120
2,note_on,62,40,0
2,note_on,62,0,120
2,note_on,55,0,0
2,note_on,61,47,120
2,note_on,57,47,0
2,note_on,57,0,120
2,note_on,61,0,0
2,note_on,57,47,120
2,note_on,61,41,0
2,note_on,61,0,120
2,note_on,57,0,0
2,note_on,50,49,120
2,note_on,57,58,0
2,note_on,50,0,238
2,note_on,57,0,2
2,note_on,50,50,0
2,note_on,50,0,120
2,note_on,50,59,120
2,note_on,50,0,120
2,note_on,50,62,120
2,note_on,50,0,120
2,note_on,60,47,120
2,note_on,53,47,0
2,note_on,53,0,480
2,note_on,60,0,0
2,note_on,48,60,480
2,note_on,48,0,120
2,note_on,47,54,0
2,note_on,47,0,120
2,note_on,50,60,0
2,note_on,50,0,120
2,note_on,48,54,0
2,note_on,48,0,110
2,note_on,48,59,10
2,note_on,48,0,120
2,note_on,48,56,120
2,note_on,48,0,120
2,note_on,55,66,120
2,note_on,55,0,240
2,note_on,50,55,0
2,note_on,50,0,120
2,note_on,50,55,120
2,note_on,50,0,120
2,note_on,49,55,120
2,note_on,49,0,120
2,note_on,50,63,120
2,note_on,50,0,120
2,note_on,49,56,0
2,note_on,49,0,120
2,note_on,52,63,0
2,note_on,52,0,120
2,note_on,50,56,0
2,note_on,50,0,110
2,note_on,50,61,10
2,note_on,50,0,120
2,note_on,50,58,120
2,note_on,50,0,120
2,note_on,58,69,120
2,note_on,58,0,240
2,note_on,53,57,0
2,note_on,53,0,120
2,note_on,53,57,120
2,note_on,53,0,120
2,note_on,53,57,120
2,note_on,53,0,120
2,note_on,53,66,120
2,note_on,53,0,120
2,note_on,52,58,0
2,note_on,52,0,120
2,note_on,55,66,0
2,note_on,55,0,120
2,note_on,53,58,0
2,note_on,53,0,110
2,note_on,53,64,10
2,note_on,53,0,120
2,note_on,53,60,120
2,note_on,53,0,120
2,note_on,52,66,120
2,note_on,55,66,240
2,note_on,55,0,120
2,note_on,52,0,120
2,note_on,52,54,0
2,note_on,60,64,0
2,note_on,60,0,120
2,note_on,52,0,0
2,note_on,52,51,120
2,note_on,60,60,0
2,note_on,60,0,120
2,note_on,52,0,0
2,note_on,60,65,120
2,note_on,53,56,0
2,note_on,60,0,240
2,note_on,58,54,0
2,note_on,58,0,120
2,note_on,57,48,0
2,note_on,57,0,120
2,note_on,53,0,0
2,note_on,57,54,0
2,note_on,53,45,0
2,note_on,53,0,120
2,note_on,57,0,0
2,note_on,57,54,120
2,note_on,53,45,0
2,note_on,53,0,120
2,note_on,57,0,0
2,note_on,46,62,120
2,note_on,46,0,120
2,note_on,45,55,0
2,note_on,45,0,120
2,note_on,48,62,0
2,note_on,48,0,120
2,note_on,46,55,0
2,note_on,46,0,110
2,note_on,48,60,10
2,note_on,48,0,120
2,note_on,48,57,120
2,note_on,48,0,120
2,note_on,41,56,120
2,note_on,41,0,480
2,note_on,41,54,0
2,note_on,41,0,120
2,note_on,39,51,120
2,note_on,39,0,120
2,note_on,38,63,120
2,note_on,38,0,120
2,note_on,38,58,120
2,note_on,38,0,120
2,note_on,38,58,120
2,note_on,38,0,120
2,note_on,38,58,120
2,note_on,38,0,120
2,note_on,60,69,120
2,note_on,57,58,0
2,note_on,50,58,0
2,note_on,50,0,120
2,note_on,57,0,0
2,note_on,60,0,0
2,note_on,57,51,120
2,note_on,50,51,0
2,note_on,60,60,0
2,note_on,60,0,120
2,note_on,50,0,0
2,note_on,57,0,0
2,note_on,57,51,120
2,note_on,50,51,0
2,note_on,60,60,0
2,note_on,60,0,120
2,note_on,50,0,0
2,note_on,57,0,0
2,note_on,50,51,120
2,note_on,57,51,0
2,note_on,60,60,0
2,note_on,60,0,120
2,note_on,57,0,0
2,note_on,50,0,0
2,note_on,46,64,120
2,note_on,46,0,120
2,note_on,45,55,0
2,note_on,45,0,120
2,note_on,43,55,0
2,note_on,43,0,120
2,note_on,45,55,0
2,note_on,45,0,120
2,note_on,46,64,0
2,note_on,46,0,120
2,note_on,43,56,0
2,note_on,43,0,120
2,note_on,46,56,0
2,note_on,46,0,120
2,note_on,43,56,0
2,note_on,43,0,120
2,note_on,55,65,0
2,note_on,55,0,230
2,note_on,43,51,10
2,note_on,43,0,120
2,note_on,43,52,120
2,note_on,43,0,120
2,note_on,43,52,120
2,note_on,43,0,120
2,note_on,39,62,120
2,note_on,39,0,120
2,note_on,38,49,0
2,note_on,38,0,120
2,note_on,36,49,0
2,note_on,36,0,120
2,note_on,38,49,0
2,note_on,38,0,120
2,note_on,39,63,0
2,note_on,39,0,120
2,note_on,36,52,0
2,note_on,36,0,120
2,note_on,39,52,0
2,note_on,39,0,120
2,note_on,36,50,0
2,note_on,36,0,120
2,note_on,43,65,0
2,note_on,43,0,240
2,note_on,31,48,0
2,note_on,31,0,120
2,note_on,31,48,120
2,note_on,31,0,120
2,note_on,31,48,120
2,note_on,31,0,120
2,note_on,53,56,120
2,note_on,41,56,0
2,note_on,41,0,120
2,note_on,53,0,0
2,note_on,44,57,120
2,note_on,56,49,0
2,note_on,56,0,120
2,note_on,44,0,0
2,note_on,59,59,120
2,note_on,47,59,0
2,note_on,47,0,120
2,note_on,59,0,0
2,note_on,62,54,120
2,note_on,50,62,0
2,note_on,50,0,120
2,note_on,62,0,0
2,note_on,47,64,120
2,note_on,42,64,0
2,note_on,50,64,0
2,note_on,54,75,0
2,note_on,54,0,238
2,note_on,47,0,2
2,note_on,42,0,0
2,note_on,50,0,0
2,note_on,54,47,0
2,note_on,59,56,0
2,note_on,59,0,120
2,note_on,54,0,0
2,note_on,54,47,120
2,note_on,59,56,0
2,note_on,59,0,120
2,note_on,54,0,0
2,note_on,54,47,120
2,note_on,59,56,0
2,note_on,59,0,120
2,note_on,54,0,0
2,note_on,52,47,120
2,note_on,59,47,0
2,note_on,59,0,120
2,note_on,52,0,0
2,note_on,59,40,120
2,note_on,52,47,0
2,note_on,52,0,120
2,note_on,59,0,0
2,note_on,58,47,120
2,note_on,54,47,0
2,note_on,54,0,120
2,note_on,58,0,0
2,note_on,58,41,120
2,note_on,54,47,0
2,note_on,54,0,120
2,note_on,58,0,0
2,note_on,47,49,120
2,note_on,54,58,0
2,note_on,54,0,240
2,note_on,47,0,0
2,note_on,50,50,0
2,note_on,50,0,120
2,note_on,50,59,120
2,note_on,38,49,0
2,note_on,38,0,120
2,note_on,50,0,0
2,note_on,50,62,120
2,note_on,50,0,120
2,note_on,46,64,120
2,note_on,46,0,120
2,note_on,45,55,0
2,note_on,45,0,120
2,note_on,43,55,0
2,note_on,43,0,120
2,note_on,45,55,0
2,note_on,45,0,120
2,note_on,46,64,0
2,note_on,46,0,120
2,note_on,43,56,0
2,note_on,43,0,120
2,note_on,46,56,0
2,note_on,46,0,120
2,note_on,43,56,0
2,note_on,43,0,120
2,note_on,55,65,0
2,note_on,55,0,230
2,note_on,43,51,10
2,note_on,43,0,120
2,note_on,43,52,120
2,note_on,43,0,120
2,note_on,43,52,120
2,note_on,43,0,120
2,note_on,39,62,120
2,note_on,39,0,120
2,note_on,38,49,0
2,note_on,38,0,120
2,note_on,36,49,0
2,note_on,36,0,120
2,note_on,38,49,0
2,note_on,38,0,120
2,note_on,39,63,0
2,note_on,39,0,120
2,note_on,36,52,0
2,note_on,36,0,120
2,note_on,39,52,0
2,note_on,39,0,120
2,note_on,36,50,0
2,note_on,36,0,120
2,note_on,43,65,0
2,note_on,43,0,240
2,note_on,31,48,0
2,note_on,31,0,120
2,note_on,31,48,120
2,note_on,31,0,120
2,note_on,31,48,120
2,note_on,31,0,120
2,note_on,44,61,120
2,note_on,32,61,0
2,note_on,32,0,120
2,note_on,44,0,0
2,note_on,47,53,120
2,note_on,35,62,0
2,note_on,35,0,120
2,note_on,47,0,0
2,note_on,38,64,120
2,note_on,50,64,0
2,note_on,50,0,120
2,note_on,38,0,0
2,note_on,41,68,120
2,note_on,53,59,0
2,note_on,53,0,120
2,note_on,41,0,0
2,note_on,53,64,120
2,note_on,57,75,0
2,note_on,50,64,0
2,note_on,45,64,0
2,note_on,57,0,238
2,note_on,53,0,2
2,note_on,50,0,0
2,note_on,45,0,0
2,note_on,57,51,0
2,note_on,62,61,0
2,note_on,62,0,120
2,note_on,57,0,0
2,note_on,57,51,120
2,note_on,62,61,0
2,note_on,62,0,120
2,note_on,57,0,0
2,note_on,57,51,120
2,note_on,62,61,0
2,note_on,62,0,120
2,note_on,57,0,0
2,note_on,36,67,120
2,note_on,48,67,0
2,note_on,48,0,120
2,note_on,36,0,0
2,note_on,51,58,120
2,note_on,39,68,0
2,note_on,39,0,120
2,note_on,51,0,0
2,note_on,42,70,120
2,note_on,54,70,0
2,note_on,54,0,120
2,note_on,42,0,0
2,note_on,57,64,120
2,note_on,45,74,0
2,note_on,45,0,120
2,note_on,57,0,0
2,note_on,61,82,120
2,note_on,54,70,0
2,note_on,57,70,0
2,note_on,49,70,0
2,note_on,61,0,238
2,note_on,54,0,2
2,note_on,57,0,0
2,note_on,49,0,0
2,note_on,61,51,0
2,note_on,66,61,0
2,note_on,66,0,120
2,note_on,61,0,0
2,note_on,61,51,120
2,note_on,66,61,0
2,note_on,66,0,120
2,note_on,61,0,0
2,note_on,61,51,120
2,note_on,66,61,0
2,note_on,66,0,120
2,note_on,61,0,0
2,note_on,59,38,120
2,note_on,66,45,0
2,note_on,66,0,120
2,note_on,59,0,0
2,note_on,59,34,120
2,note_on,66,41,0
2,note_on,66,0,120
2,note_on,59,0,0
2,note_on,61,38,120
2,note_on,65,45,0
2,note_on,65,0,120
2,note_on,61,0,0
2,note_on,61,36,120
2,note_on,65,43,0
2,note_on,65,0,120
2,note_on,61,0,0
2,note_on,54,38,120
2,note_on,61,45,0
2,note_on,61,0,480
2,note_on,54,0,0
2,note_on,62,45,1440
2,note_on,62,0,1200
2,note_on,62,37,0
2,note_on,62,0,216
2,note_on,62,36,24
2,note_on,62,0,120
2,note_on,62,35,120
2,note_on,62,0,120
2,note_on,62,38,120
2,note_on,62,0,1176
2,note_on,64,32,24
2,note_on,64,0,216
2,note_on,66,32,24
2,note_on,66,0,216
2,note_on,67,32,24
2,note_on,67,0,216
2,note_on,43,45,24
2,note_on,43,0,60
2,note_on,55,36,60
2,note_on,55,0,120
2,note_on,59,38,0
2,note_on,59,0,120
2,note_on,55,37,0
2,note_on,55,0,120
2,note_on,62,42,0
2,note_on,62,0,120
2,note_on,55,34,0
2,note_on,55,0,120
2,note_on,59,36,0
2,note_on,59,0,120
2,note_on,55,36,0
2,note_on,55,0,120
2,note_on,43,49,0
2,note_on,43,0,60
2,note_on,55,36,60
2,note_on,55,0,120
2,note_on,58,36,0
2,note_on,58,0,120
2,note_on,55,34,0
2,note_on,55,0,120
2,note_on,64,42,0
2,note_on,64,0,120
2,note_on,55,35,0
2,note_on,55,0,120
2,note_on,58,37,0
2,note_on,58,0,120
2,note_on,55,35,0
2,note_on,55,0,120
2,note_on,43,45,0
2,note_on,43,0,60
2,note_on,55,35,60
2,note_on,55,0,120
2,note_on,59,38,0
2,note_on,59,0,120
2,note_on,55,34,0
2,note_on,55,0,120
2,note_on,62,42,0
2,note_on,62,0,120
2,note_on,55,33,0
2,note_on,55,0,120
2,note_on,59,36,0
2,note_on,59,0,120
2,note_on,55,34,0
2,note_on,55,0,120
2,note_on,64,35,0
2,note_on,64,0,216
2,note_on,62,32,24
2,note_on,62,0,216
2,note_on,59,32,24
2,note_on,59,0,216
2,note_on,55,38,24
2,note_on,55,0,216
2,note_on,38,45,24
2,note_on,38,0,60
2,note_on,50,36,60
2,note_on,50,0,120
2,note_on,54,38,0
2,note_on,54,0,120
2,note_on,50,36,0
2,note_on,50,0,120
2,note_on,57,42,0
2,note_on,57,0,120
2,note_on,50,35,0
2,note_on,50,0,120
2,note_on,54,36,0
2,note_on,54,0,120
2,note_on,50,35,0
2,note_on,50,0,120
2,note_on,45,49,0
2,note_on,45,0,60
2,note_on,52,35,60
2,note_on,52,0,120
2,note_on,55,36,0
2,note_on,55,0,120
2,note_on,52,35,0
2,note_on,52,0,120
2,note_on,57,42,0
2,note_on,57,0,120
2,note_on,52,35,0
2,note_on,52,0,120
2,note_on,55,37,0
2,note_on,55,0,120
2,note_on,52,36,0
2,note_on,52,0,120
2,note_on,38,45,0
2,note_on,38,0,60
2,note_on,50,35,60
2,note_on,50,0,120
2,note_on,54,38,0
2,note_on,54,0,120
2,note_on,50,36,0
2,note_on,50,0,120
2,note_on,57,42,0
2,note_on,57,0,120
2,note_on,50,34,0
2,note_on,50,0,120
2,note_on,61,36,0
2,note_on,61,0,120
2,note_on,50,34,0
2,note_on,50,0,120
2,note_on,62,35,0
2,note_on,62,0,216
2,note_on,62,33,24
2,note_on,62,0,216
2,note_on,64,35,24
2,note_on,64,0,216
2,note_on,65,36,24
2,note_on,65,0,216
2,note_on,40,45,24
2,note_on,40,0,60
2,note_on,52,36,60
2,note_on,52,0,120
2,note_on,56,38,0
2,note_on,56,0,120
2,note_on,52,36,0
2,note_on,52,0,120
2,note_on,62,42,0
2,note_on,62,0,120
2,note_on,52,35,0
2,note_on,52,0,120
2,note_on,56,36,0
2,note_on,56,0,120
2,note_on,52,35,0
2,note_on,52,0,120
2,note_on,45,49,0
2,note_on,45,0,60
2,note_on,52,34,60
2,note_on,52,0,120
2,note_on,57,36,0
2,note_on,57,0,120
2,note_on,52,35,0
2,note_on,52,0,120
2,note_on,60,42,0
2,note_on,60,0,120
2,note_on,52,36,0
2,note_on,52,0,120
2,note_on,59,37,0
2,note_on,59,0,120
2,note_on,52,35,0
2,note_on,52,0,120
2,note_on,38,45,0
2,note_on,38,0,60
2,note_on,50,36,60
2,note_on,50,0,120
2,note_on,54,38,0
2,note_on,54,0,120
2,note_on,50,35,0
2,note_on,50,0,120
2,note_on,60,42,0
2,note_on,60,0,120
2,note_on,50,36,0
2,note_on,50,0,120
2,note_on,54,36,0
2,note_on,54,0,120
2,note_on,50,36,0
2,note_on,50,0,120
2,note_on,55,42,0
2,note_on,55,0,120
2,note_on,50,43,0
2,note_on,50,0,120
2,note_on,60,43,0
2,note_on,60,0,120
2,note_on,50,42,0
2,note_on,50,0,120
2,note_on,59,47,0
2,note_on,59,0,120
2,note_on,50,40,0
2,note_on,50,0,120
2,note_on,55,39,0
2,note_on,55,0,120
2,note_on,50,38,0
2,note_on,50,0,120
2,note_on,38,45,0
2,note_on,38,0,60
2,note_on,50,36,60
2,note_on,50,0,120
2,note_on,54,38,0
2,note_on,54,0,120
2,note_on,50,38,0
2,note_on,50,0,120
2,note_on,60,42,0
2,note_on,60,0,120
2,note_on,50,34,0
2,note_on,50,0,120
2,note_on,54,36,0
2,note_on,54,0,120
2,note_on,50,34,0
2,note_on,50,0,120
2,note_on,55,42,0
2,note_on,55,0,120
2,note_on,50,44,0
2,note_on,50,0,120
2,note_on,60,43,0
2,note_on,60,0,120
2,note_on,50,42,0
2,note_on,50,0,120
2,note_on,59,47,0
2,note_on,59,0,120
2,note_on,50,40,0
2,note_on,50,0,120
2,note_on,55,39,0
2,note_on,55,0,120
2,note_on,50,38,0
2,note_on,50,0,120
2,note_on,38,45,0
2,note_on,38,0,60
2,note_on,50,36,60
2,note_on,50,0,120
2,note_on,54,38,0
2,note_on,54,0,120
2,note_on,50,35,0
2,note_on,50,0,120
2,note_on,57,42,0
2,note_on,57,0,120
2,note_on,50,29,0
2,note_on,50,0,120
2,note_on,60,36,0
2,note_on,60,0,120
2,note_on,50,28,0
2,note_on,50,0,120
2,note_on,59,36,0
2,note_on,55,30,0
2,note_on,55,0,240
2,note_on,59,0,0
2,note_on,43,45,720
2,note_on,43,0,60
2,note_on,55,36,60
2,note_on,55,0,120
2,note_on,59,38,0
2,note_on,59,0,120
2,note_on,55,36,0
2,note_on,55,0,120
2,note_on,62,42,0
2,note_on,62,0,120
2,note_on,55,34,0
2,note_on,55,0,120
2,note_on,59,36,0
2,note_on,59,0,120
2,note_on,55,34,0
2,note_on,55,0,120
2,note_on,43,49,0
2,note_on,43,0,60
2,note_on,55,35,60
2,note_on,55,0,120
2,note_on,58,36,0
2,note_on,58,0,120
2,note_on,55,35,0
2,note_on,55,0,120
2,note_on,64,42,0
2,note_on,64,0,120
2,note_on,55,36,0
2,note_on,55,0,120
2,note_on,58,37,0
2,note_on,58,0,120
2,note_on,55,37,0
2,note_on,55,0,120
2,note_on,43,45,0
2,note_on,43,0,60
2,note_on,55,37,60
2,note_on,55,0,120
2,note_on,59,38,0
2,note_on,59,0,120
2,note_on,55,36,0
2,note_on,55,0,120
2,note_on,62,45,0
2,note_on,62,0,120
2,note_on,55,43,0
2,note_on,55,0,120
2,note_on,59,46,0
2,note_on,59,0,120
2,note_on,55,48,0
2,note_on,55,0,120
2,note_on,65,50,0
2,note_on,65,0,216
2,note_on,64,42,24
2,note_on,64,0,216
2,note_on,65,42,24
2,note_on,65,0,216
2,note_on,67,47,24
2,note_on,67,0,216
2,note_on,48,51,24
2,note_on,48,0,60
2,note_on,55,40,60
2,note_on,55,0,120
2,note_on,60,43,0
2,note_on,60,0,120
2,note_on,55,40,0
2,note_on,55,0,120
2,note_on,64,48,0
2,note_on,64,0,120
2,note_on,55,38,0
2,note_on,55,0,120
2,note_on,60,41,0
2,note_on,60,0,120
2,note_on,55,40,0
2,note_on,55,0,120
2,note_on,38,56,0
2,note_on,38,0,60
2,note_on,50,39,60
2,note_on,50,0,120
2,note_on,55,41,0
2,note_on,55,0,120
2,note_on,50,38,0
2,note_on,50,0,120
2,note_on,59,48,0
2,note_on,59,0,120
2,note_on,50,39,0
2,note_on,50,0,120
2,note_on,57,42,0
2,note_on,57,0,120
2,note_on,50,41,0
2,note_on,50,0,120
2,note_on,38,51,0
2,note_on,38,0,60
2,note_on,50,38,60
2,note_on,50,0,120
2,note_on,55,40,0
2,note_on,55,0,120
2,note_on,50,38,0
2,note_on,50,0,120
2,note_on,55,51,0
2,note_on,55,0,120
2,note_on,59,41,0
2,note_on,59,0,120
2,note_on,62,45,0
2,note_on,62,0,120
2,note_on,64,46,0
2,note_on,64,0,120
2,note_on,65,52,0
2,note_on,65,0,216
2,note_on,64,40,24
2,note_on,64,0,216
2,note_on,65,42,24
2,note_on,65,0,120
2,note_on,69,39,0
2,note_on,69,0,120
2,note_on,67,47,0
2,note_on,67,0,216
2,note_on,48,53,24
2,note_on,48,0,60
2,note_on,55,40,60
2,note_on,55,0,120
2,note_on,60,42,0
2,note_on,60,0,120
2,note_on,55,39,0
2,note_on,55,0,120
2,note_on,59,50,0
2,note_on,59,0,120
2,note_on,55,34,0
2,note_on,55,0,120
2,note_on,60,36,0
2,note_on,60,0,120
2,note_on,55,35,0
2,note_on,55,0,120
2,note_on,38,49,0
2,note_on,38,0,60
2,note_on,50,35,60
2,note_on,50,0,120
2,note_on,55,36,0
2,note_on,55,0,120
2,note_on,50,35,0
2,note_on,50,0,120
2,note_on,57,42,0
2,note_on,57,0,120
2,note_on,50,35,0
2,note_on,50,0,120
2,note_on,60,37,0
2,note_on,60,0,120
2,note_on,50,35,0
2,note_on,50,0,120
2,note_on,43,45,0
2,note_on,43,0,60
2,note_on,50,37,60
2,note_on,50,0,120
2,note_on,55,38,0
2,note_on,55,0,120
2,note_on,50,36,0
2,note_on,50,0,120
2,note_on,55,42,0
2,note_on,55,0,120
2,note_on,50,36,0
2,note_on,50,0,120
2,note_on,55,39,0
2,note_on,55,0,120
2,note_on,50,34,0
2,note_on,50,0,120
2,note_on,43,46,0
2,note_on,43,0,60
2,note_on,50,33,60
2,note_on,50,0,120
2,note_on,54,34,0
2,note_on,54,0,120
2,note_on,50,32,0
2,note_on,50,0,120
2,note_on,54,39,0
2,note_on,54,0,120
2,note_on,50,33,0
2,note_on,50,0,120
2,note_on,54,35,0
2,note_on,54,0,120
2,note_on,50,34,0
2,note_on,50,0,120
2,note_on,43,46,0
2,note_on,43,0,60
2,note_on,50,33,60
2,note_on,50,0,120
2,note_on,55,34,0
2,note_on,55,0,120
2,note_on,50,33,0
2,note_on,50,0,120
2,note_on,55,39,0
2,note_on,55,0,120
2,note_on,50,33,0
2,note_on,50,0,120
2,note_on,55,35,0
2,note_on,55,0,120
2,note_on,50,34,0
2,note_on,50,0,120
2,note_on,43,46,0
2,note_on,43,0,60
2,note_on,50,33,60
2,note_on,50,0,120
2,note_on,57,34,0
2,note_on,57,0,120
2,note_on,50,33,0
2,note_on,50,0,120
2,note_on,60,39,0
2,note_on,60,0,120
2,note_on,50,33,0
2,note_on,50,0,120
2,note_on,60,35,0
2,note_on,60,0,120
2,note_on,50,34,0
2,note_on,50,0,120
2,note_on,43,45,0
2,note_on,43,0,60
2,note_on,50,38,60
2,note_on,50,0,120
2,note_on,59,42,0
2,note_on,59,0,120
2,note_on,50,38,0
2,note_on,50,0,120
2,note_on,59,42,0
2,note_on,59,0,120
2,note_on,50,36,0
2,note_on,50,0,120
2,note_on,55,39,0
2,note_on,55,0,120
2,note_on,50,34,0
2,note_on,50,0,120
2,note_on,43,46,0
2,note_on,43,0,60
2,note_on,50,33,60
2,note_on,50,0,120
2,note_on,54,34,0
2,note_on,54,0,120
2,note_on,50,32,0
2,note_on,50,0,120
2,note_on,54,39,0
2,note_on,54,0,120
2,note_on,50,32,0
2,note_on,50,0,120
2,note_on,54,35,0
2,note_on,54,0,120
2,note_on,50,34,0
2,note_on,50,0,120
2,note_on,43,46,0
2,note_on,43,0,60
2,note_on,50,32,60
2,note_on,50,0,120
2,note_on,55,34,0
2,note_on,55,0,120
2,note_on,50,32,0
2,note_on,50,0,120
2,note_on,55,39,0
2,note_on,55,0,120
2,note_on,50,33,0
2,note_on,50,0,120
2,note_on,55,35,0
2,note_on,55,0,120
2,note_on,50,34,0
2,note_on,50,0,120
2,note_on,43,46,0
2,note_on,43,0,60
2,note_on,50,33,60
2,note_on,50,0,120
2,note_on,57,34,0
2,note_on,57,0,120
2,note_on,50,33,0
2,note_on,50,0,120
2,note_on,55,39,0
2,note_on,55,0,120
2,note_on,50,33,0
2,note_on,50,0,120
2,note_on,54,35,0
2,note_on,54,0,120
2,note_on,50,34,0
2,note_on,50,0,120
2,note_on,43,45,0
2,note_on,43,0,60
2,note_on,50,35,60
2,note_on,50,0,120
2,note_on,55,38,0
2,note_on,55,0,120
2,note_on,50,36,0
2,note_on,50,0,120
2,note_on,55,42,0
2,note_on,55,0,120
2,note_on,50,33,0
2,note_on,50,0,120
2,note_on,43,36,0
2,note_on,43,0,120
2,note_on,45,36,0
2,note_on,45,0,120
2,note_on,46,39,0
2,note_on,46,0,120
2,note_on,45,33,0
2,note_on,45,0,120
2,note_on,43,33,0
2,note_on,43,0,120
2,note_on,45,33,0
2,note_on,45,0,120
2,note_on,46,39,0
2,note_on,46,0,120
2,note_on,43,34,0
2,note_on,43,0,120
2,note_on,46,34,0
2,note_on,46,0,120
2,note_on,43,34,0
2,note_on,43,0,120
2,note_on,46,39,0
2,note_on,46,0,120
2,note_on,45,31,0
2,note_on,45,0,120
2,note_on,43,33,0
2,note_on,43,0,120
2,note_on,45,32,0
2,note_on,45,0,120
2,note_on,46,39,0
2,note_on,46,0,120
2,note_on,43,34,0
2,note_on,43,0,120
2,note_on,46,34,0
2,note_on,46,0,120
2,note_on,43,34,0
2,note_on,43,0,120
2,note_on,45,43,0
2,note_on,45,0,120
2,note_on,40,32,0
2,note_on,40,0,120
2,note_on,33,34,0
2,note_on,33,0,120
2,note_on,40,32,0
2,note_on,40,0,120
2,note_on,45,44,0
2,note_on,45,0,120
2,note_on,33,34,0
2,note_on,33,0,120
2,note_on,45,36,0
2,note_on,45,0,120
2,note_on,33,34,0
2,note_on,33,0,120
2,note_on,45,43,0
2,note_on,45,0,120
2,note_on,40,32,0
2,note_on,40,0,120
2,note_on,33,34,0
2,note_on,33,0,120
2,note_on,40,33,0
2,note_on,40,0,120
2,note_on,45,44,0
2,note_on,45,0,120
2,note_on,33,33,0
2,note_on,33,0,120
2,note_on,45,36,0
2,note_on,45,0,120
2,note_on,33,33,0
2,note_on,33,0,120
2,note_on,46,39,0
2,note_on,46,0,120
2,note_on,45,33,0
2,note_on,45,0,120
2,note_on,43,33,0
2,note_on,43,0,120
2,note_on,45,33,0
2,note_on,45,0,120
2,note_on,46,39,0
2,note_on,46,0,120
2,note_on,43,34,0
2,note_on,43,0,120
2,note_on,46,34,0
2,note_on,46,0,120
2,note_on,43,34,0
2,note_on,43,0,120
2,note_on,46,39,0
2,note_on,46,0,120
2,note_on,45,33,0
2,note_on,45,0,120
2,note_on,43,33,0
2,note_on,43,0,120
2,note_on,45,33,0
2,note_on,45,0,120
2,note_on,46,39,0
2,note_on,46,0,120
2,note_on,43,34,0
2,note_on,43,0,120
2,note_on,46,34,0
2,note_on,46,0,120
2,note_on,43,34,0
2,note_on,43,0,120
2,note_on,45,43,0
2,note_on,45,0,120
2,note_on,40,32,0
2,note_on,40,0,120
2,note_on,33,34,0
2,note_on,33,0,120
2,note_on,40,32,0
2,note_on,40,0,120
2,note_on,45,44,0
2,note_on,45,0,120
2,note_on,33,34,0
2,note_on,33,0,120
2,note_on,45,36,0
2,note_on,45,0,120
2,note_on,33,35,0
2,note_on,33,0,120
2,note_on,45,43,0
2,note_on,45,0,120
2,note_on,40,34,0
2,note_on,40,0,120
2,note_on,33,37,0
2,note_on,33,0,120
2,note_on,40,34,0
2,note_on,40,0,120
2,note_on,45,44,0
2,note_on,45,0,120
2,note_on,33,36,0
2,note_on,33,0,120
2,note_on,45,36,0
2,note_on,45,0,120
2,note_on,33,35,0
2,note_on,33,0,120
2,note_on,45,43,0
2,note_on,45,0,120
2,note_on,40,34,0
2,note_on,40,0,120
2,note_on,33,37,0
2,note_on,33,0,120
2,note_on,40,34,0
2,note_on,40,0,120
2,note_on,45,44,0
2,note_on,45,0,120
2,note_on,33,35,0
2,note_on,33,0,120
2,note_on,45,36,0
2,note_on,45,0,120
2,note_on,33,35,0
2,note_on,33,0,120
2,note_on,45,36,0
2,note_on,45,0,240
2,note_on,52,30,240
2,note_on,45,30,0
2,note_on,55,36,0
2,note_on,55,0,480
2,note_on,45,0,0
2,note_on,52,0,0
2,note_on,45,31,480
2,note_on,52,31,0
2,note_on,55,37,0
2,note_on,55,0,480
2,note_on,52,0,0
2,note_on,45,0,0
2,note_on,45,34,480
2,note_on,55,41,0
2,note_on,52,34,0
2,note_on,52,0,480
2,note_on,55,0,0
2,note_on,45,0,0
2,note_on,57,37,480
2,note_on,61,37,0
2,note_on,64,45,0
2,note_on,64,0,480
2,note_on,61,0,0
2,note_on,57,0,0
2,note_on,66,45,480
2,note_on,63,37,0
2,note_on,57,37,0
2,note_on,57,0,480
2,note_on,63,0,0
2,note_on,66,0,0
2,note_on,64,37,480
2,note_on,67,45,0
2,note_on,57,37,0
2,note_on,57,0,480
2,note_on,67,0,0
2,note_on,64,0,0
2,note_on,57,37,480
2,note_on,67,45,0
2,note_on,64,37,0
2,note_on,64,0,1440
2,note_on,67,0,0
2,note_on,57,0,0
2,note_on,62,30,3840
2,note_on,66,36,0
2,note_on,66,0,120
2,note_on,62,0,0
2,note_on,66,31,120
2,note_on,57,26,0
2,note_on,57,0,120
2,note_on,66,0,0
2,note_on,62,30,120
2,note_on,66,36,0
2,note_on,66,0,120
2,note_on,62,0,0
2,note_on,57,26,120
2,note_on,66,31,0
2,note_on,66,0,120
2,note_on,57,0,0
2,note_on,67,36,120
2,note_on,64,30,0
2,note_on,64,0,120
2,note_on,67,0,0
2,note_on,57,26,120
2,note_on,67,31,0
2,note_on,67,0,120
2,note_on,57,0,0
2,note_on,67,36,120
2,note_on,61,30,0
2,note_on,61,0,120
2,note_on,67,0,0
2,note_on,57,26,120
2,note_on,67,31,0
2,note_on,67,0,120
2,note_on,57,0,0
2,note_on,62,30,120
2,note_on,66,36,0
2,note_on,66,0,120
2,note_on,62,0,0
2,note_on,57,25,120
2,note_on,66,30,0
2,note_on,66,0,120
2,note_on,57,0,0
2,note_on,66,36,120
2,note_on,62,30,0
2,note_on,62,0,120
2,note_on,66,0,0
2,note_on,66,30,120
2,note_on,57,25,0
2,note_on,57,0,120
2,note_on,66,0,0
2,note_on,67,36,120
2,note_on,64,30,0
2,note_on,64,0,120
2,note_on,67,0,0
2,note_on,67,32,120
2,note_on,57,27,0
2,note_on,57,0,120
2,note_on,67,0,0
2,note_on,61,30,120
2,note_on,67,36,0
2,note_on,67,0,120
2,note_on,61,0,0
2,note_on,57,27,120
2,note_on,67,32,0
2,note_on,67,0,120
2,note_on,57,0,0
2,note_on,62,30,120
2,note_on,66,36,0
2,note_on,66,0,120
2,note_on,62,0,0
2,note_on,57,26,120
2,note_on,66,31,0
2,note_on,66,0,120
2,note_on,57,0,0
2,note_on,62,30,120
2,note_on,66,36,0
2,note_on,66,0,120
2,note_on,62,0,0
2,note_on,66,31,120
2,note_on,57,26,0
2,note_on,57,0,120
2,note_on,66,0,0
2,note_on,62,30,120
2,note_on,67,36,0
2,note_on,67,0,120
2,note_on,62,0,0
2,note_on,55,26,120
2,note_on,62,26,0
2,note_on,67,31,0
2,note_on,67,0,120
2,note_on,62,0,0
2,note_on,55,0,0
2,note_on,67,36,120
2,note_on,62,30,0
2,note_on,62,0,120
2,note_on,67,0,0
2,note_on,59,26,120
2,note_on,62,26,0
2,note_on,67,31,0
2,note_on,67,0,120
2,note_on,62,0,0
2,note_on,59,0,0
2,note_on,66,36,120
2,note_on,62,30,0
2,note_on,62,0,120
2,note_on,66,0,0
2,note_on,66,30,120
2,note_on,57,25,0
2,note_on,57,0,120
2,note_on,66,0,0
2,note_on,66,36,120
2,note_on,62,30,0
2,note_on,62,0,120
2,note_on,66,0,0
2,note_on,57,25,120
2,note_on,66,30,0
2,note_on,66,0,120
2,note_on,57,0,0
2,note_on,62,30,120
2,note_on,66,36,0
2,note_on,66,0,120
2,note_on,62,0,0
2,note_on,66,32,120
2,note_on,57,27,0
2,note_on,57,0,120
2,note_on,66,0,0
2,note_on,66,36,120
2,note_on,62,30,0
2,note_on,62,0,120
2,note_on,66,0,0
2,note_on,57,27,120
2,note_on,66,32,0
2,note_on,66,0,120
2,note_on,57,0,0
2,note_on,62,30,120
2,note_on,66,36,0
2,note_on,66,0,120
2,note_on,62,0,0
2,note_on,57,26,120
2,note_on,66,31,0
2,note_on,66,0,120
2,note_on,57,0,0
2,note_on,62,30,120
2,note_on,66,36,0
2,note_on,66,0,120
2,note_on,62,0,0
2,note_on,57,26,120
2,note_on,66,31,0
2,note_on,66,0,120
2,note_on,57,0,0
2,note_on,64,30,120
2,note_on,67,36,0
2,note_on,67,0,120
2,note_on,64,0,0
2,note_on,57,26,120
2,note_on,67,31,0
2,note_on,67,0,120
2,note_on,57,0,0
2,note_on,67,36,120
2,note_on,64,30,0
2,note_on,64,0,120
2,note_on,67,0,0
2,note_on,57,26,120
2,note_on,67,31,0
2,note_on,67,0,120
2,note_on,57,0,0
2,note_on,66,36,120
2,note_on,58,30,0
2,note_on,58,0,120
2,note_on,66,0,0
2,note_on,58,25,120
2,note_on,61,30,0
2,note_on,61,0,120
2,note_on,58,0,0
2,note_on,58,30,120
2,note_on,66,36,0
2,note_on,66,0,120
2,note_on,58,0,0
2,note_on,58,25,120
2,note_on,61,30,0
2,note_on,61,0,120
2,note_on,58,0,0
2,note_on,62,36,120
2,note_on,59,30,0
2,note_on,59,0,120
2,note_on,62,0,0
2,note_on,67,32,120
2,note_on,62,27,0
2,note_on,59,27,0
2,note_on,59,0,120
2,note_on,62,0,0
2,note_on,67,0,0
2,note_on,62,30,120
2,note_on,55,30,0
2,note_on,67,36,0
2,note_on,67,0,120
2,note_on,55,0,0
2,note_on,62,0,0
2,note_on,67,32,120
2,note_on,59,27,0
2,note_on,62,27,0
2,note_on,62,0,120
2,note_on,59,0,0
2,note_on,67,0,0
2,note_on,66,36,120
2,note_on,62,30,0
2,note_on,62,0,120
2,note_on,66,0,0
2,note_on,66,31,120
2,note_on,57,26,0
2,note_on,57,0,120
2,note_on,66,0,0
2,note_on,66,36,120
2,note_on,62,30,0
2,note_on,62,0,120
2,note_on,66,0,0
2,note_on,66,31,120
2,note_on,57,26,0
2,note_on,57,0,120
2,note_on,66,0,0
2,note_on,67,36,120
2,note_on,61,30,0
2,note_on,61,0,120
2,note_on,67,0,0
2,note_on,57,26,120
2,note_on,67,31,0
2,note_on,67,0,120
2,note_on,57,0,0
2,note_on,67,36,120
2,note_on,61,30,0
2,note_on,61,0,120
2,note_on,67,0,0
2,note_on,57,26,120
2,note_on,67,31,0
2,note_on,67,0,120
2,note_on,57,0,0
2,note_on,62,30,120
2,note_on,66,36,0
2,note_on,66,0,120
2,note_on,62,0,0
2,note_on,66,31,120
2,note_on,57,26,0
2,note_on,57,0,120
2,note_on,66,0,0
2,note_on,66,36,120
2,note_on,62,30,0
2,note_on,62,0,120
2,note_on,66,0,0
2,note_on,57,26,120
2,note_on,66,31,0
2,note_on,66,0,120
2,note_on,57,0,0
2,note_on,50,52,120
2,note_on,50,0,120
2,note_on,52,46,0
2,note_on,52,0,120
2,note_on,54,46,0
2,note_on,54,0,120
2,note_on,59,46,0
2,note_on,59,0,120
2,note_on,57,52,0
2,note_on,57,0,120
2,note_on,54,46,0
2,note_on,54,0,120
2,note_on,52,46,0
2,note_on,52,0,120
2,note_on,50,46,0
2,note_on,50,0,120
2,note_on,49,44,0
2,note_on,55,52,0
2,note_on,55,0,120
2,note_on,49,0,0
2,note_on,55,46,120
2,note_on,45,46,0
2,note_on,45,0,120
2,note_on,55,0,0
2,note_on,49,44,120
2,note_on,55,52,0
2,note_on,55,0,120
2,note_on,49,0,0
2,note_on,55,50,120
2,note_on,45,42,0
2,note_on,45,0,120
2,note_on,55,0,0
2,note_on,55,50,120
2,note_on,49,42,0
2,note_on,49,0,120
2,note_on,55,0,0
2,note_on,55,50,120
2,note_on,45,42,0
2,note_on,45,0,120
2,note_on,55,0,0
2,note_on,55,50,120
2,note_on,49,42,0
2,note_on,49,0,120
2,note_on,55,0,0
2,note_on,45,46,120
2,note_on,55,46,0
2,note_on,55,0,120
2,note_on,45,0,0
2,note_on,50,44,120
2,note_on,54,52,0
2,note_on,54,0,120
2,note_on,50,0,0
2,note_on,54,50,120
2,note_on,45,42,0
2,note_on,45,0,120
2,note_on,54,0,0
2,note_on,50,44,120
2,note_on,54,52,0
2,note_on,54,0,120
2,note_on,50,0,0
2,note_on,54,50,120
2,note_on,45,42,0
2,note_on,45,0,120
2,note_on,54,0,0
2,note_on,54,50,120
2,note_on,50,42,0
2,note_on,50,0,120
2,note_on,54,0,0
2,note_on,45,42,120
2,note_on,54,50,0
2,note_on,54,0,120
2,note_on,45,0,0
2,note_on,54,50,120
2,note_on,50,42,0
2,note_on,50,0,120
2,note_on,54,0,0
2,note_on,57,50,120
2,note_on,54,42,0
2,note_on,54,0,120
2,note_on,57,0,0
2,note_on,57,42,120
2,note_on,61,50,0
2,note_on,61,0,120
2,note_on,57,0,0
2,note_on,61,50,120
2,note_on,52,42,0
2,note_on,52,0,120
2,note_on,61,0,0
2,note_on,57,42,120
2,note_on,61,50,0
2,note_on,61,0,120
2,note_on,57,0,0
2,note_on,61,50,120
2,note_on,52,42,0
2,note_on,52,0,120
2,note_on,61,0,0
2,note_on,62,50,120
2,note_on,59,42,0
2,note_on,59,0,120
2,note_on,62,0,0
2,note_on,52,42,120
2,note_on,62,50,0
2,note_on,62,0,120
2,note_on,52,0,0
2,note_on,62,42,120
2,note_on,56,42,0
2,note_on,56,0,120
2,note_on,62,0,0
2,note_on,52,42,120
2,note_on,62,50,0
2,note_on,62,0,120
2,note_on,52,0,0
2,note_on,57,50,120
2,note_on,61,56,0
2,note_on,61,0,480
2,note_on,57,0,0
2,note_on,57,54,480
2,note_on,57,0,120
2,note_on,59,41,0
2,note_on,59,0,120
2,note_on,61,51,0
2,note_on,61,0,120
2,note_on,66,42,0
2,note_on,66,0,120
2,note_on,64,54,0
2,note_on,64,0,120
2,note_on,61,40,0
2,note_on,61,0,120
2,note_on,59,50,0
2,note_on,59,0,120
2,note_on,57,46,0
2,note_on,57,0,120
2,note_on,57,57,0
2,note_on,57,0,240
2,note_on,59,57,0
2,note_on,59,0,120
2,note_on,57,42,0
2,note_on,57,0,120
2,note_on,56,53,0
2,note_on,56,0,120
2,note_on,57,38,0
2,note_on,57,0,120
2,note_on,56,54,0
2,note_on,56,0,120
2,note_on,57,39,0
2,note_on,57,0,120
2,note_on,59,54,0
2,note_on,59,0,120
2,note_on,61,43,0
2,note_on,61,0,120
2,note_on,62,49,0
2,note_on,62,0,120
2,note_on,66,43,0
2,note_on,66,0,120
2,note_on,64,54,0
2,note_on,64,0,120
2,note_on,62,44,0
2,note_on,62,0,120
2,note_on,61,50,0
2,note_on,61,0,120
2,note_on,59,44,0
2,note_on,59,0,120
2,note_on,61,57,0
2,note_on,61,0,240
2,note_on,60,57,0
2,note_on,60,0,120
2,note_on,61,50,0
2,note_on,61,0,120
2,note_on,64,54,0
2,note_on,64,0,120
2,note_on,61,51,0
2,note_on,61,0,120
2,note_on,59,54,0
2,note_on,59,0,120
2,note_on,57,51,0
2,note_on,57,0,120
2,note_on,55,50,0
2,note_on,55,0,120
2,note_on,57,46,0
2,note_on,57,0,120
2,note_on,61,50,0
2,note_on,61,0,120
2,note_on,66,43,0
2,note_on,66,0,120
2,note_on,64,48,0
2,note_on,64,0,120
2,note_on,61,47,0
2,note_on,61,0,120
2,note_on,57,53,0
2,note_on,57,0,120
2,note_on,55,49,0
2,note_on,55,0,120
2,note_on,54,58,0
2,note_on,54,0,120
2,note_on,56,46,0
2,note_on,56,0,120
2,note_on,57,51,0
2,note_on,57,0,120
2,note_on,62,46,0
2,note_on,62,0,120
2,note_on,53,52,0
2,note_on,53,0,120
2,note_on,56,41,0
2,note_on,56,0,120
2,note_on,57,46,0
2,note_on,57,0,120
2,note_on,62,41,0
2,note_on,62,0,120
2,note_on,52,50,0
2,note_on,52,0,120
2,note_on,57,41,0
2,note_on,57,0,120
2,note_on,59,46,0
2,note_on,59,0,120
2,note_on,61,41,0
2,note_on,61,0,120
2,note_on,64,48,0
2,note_on,64,0,120
2,note_on,62,41,0
2,note_on,62,0,120
2,note_on,61,44,0
2,note_on,61,0,120
2,note_on,59,41,0
2,note_on,59,0,120
2,note_on,57,49,0
2,note_on,57,0,115
2,note_on,57,49,125
2,note_on,57,0,115
2,note_on,57,34,125
2,note_on,61,34,0
2,note_on,69,48,0
2,note_on,69,0,120
2,note_on,61,0,0
2,note_on,57,0,0
2,note_on,61,45,120
2,note_on,69,53,0
2,note_on,57,45,0
2,note_on,57,0,120
2,note_on,69,0,0
2,note_on,61,0,0
2,note_on,59,48,120
2,note_on,62,48,0
2,note_on,68,57,0
2,note_on,68,0,120
2,note_on,62,0,0
2,note_on,59,0,0
2,note_on,68,54,120
2,note_on,59,45,0
2,note_on,62,45,0
2,note_on,62,0,120
2,note_on,59,0,0
2,note_on,68,0,0
2,note_on,64,40,120
2,note_on,61,40,0
2,note_on,67,48,0
2,note_on,67,0,120
2,note_on,61,0,0
2,note_on,64,0,0
2,note_on,61,36,120
2,note_on,67,44,0
2,note_on,64,36,0
2,note_on,64,0,120
2,note_on,67,0,0
2,note_on,61,0,0
2,note_on,66,36,120
2,note_on,62,30,0
2,note_on,62,0,120
2,note_on,66,0,0
2,note_on,57,26,120
2,note_on,66,31,0
2,note_on,66,0,120
2,note_on,57,0,0
2,note_on,66,36,120
2,note_on,62,30,0
2,note_on,62,0,120
2,note_on,66,0,0
2,note_on,57,26,120
2,note_on,66,31,0
2,note_on,66,0,120
2,note_on,57,0,0
2,note_on,62,30,120
2,note_on,66,36,0
2,note_on,66,0,120
2,note_on,62,0,0
2,note_on,66,31,120
2,note_on,57,26,0
2,note_on,57,0,120
2,note_on,66,0,0
2,note_on,62,30,120
2,note_on,66,36,0
2,note_on,66,0,120
2,note_on,62,0,0
2,note_on,57,26,120
2,note_on,66,31,0
2,note_on,66,0,120
2,note_on,57,0,0
2,note_on,66,36,120
2,note_on,62,30,0
2,note_on,62,0,120
2,note_on,66,0,0
2,note_on,66,31,120
2,note_on,57,26,0
2,note_on,57,0,120
2,note_on,66,0,0
2,note_on,62,30,120
2,note_on,66,36,0
2,note_on,66,0,120
2,note_on,62,0,0
2,note_on,57,26,120
2,note_on,66,31,0
2,note_on,66,0,120
2,note_on,57,0,0
2,note_on,64,30,120
2,note_on,67,36,0
2,note_on,67,0,120
2,note_on,64,0,0
2,note_on,57,26,120
2,note_on,67,31,0
2,note_on,67,0,120
2,note_on,57,0,0
2,note_on,61,30,120
2,note_on,67,36,0
2,note_on,67,0,120
2,note_on,61,0,0
2,note_on,57,26,120
2,note_on,67,31,0
2,note_on,67,0,120
2,note_on,57,0,0
2,note_on,66,36,120
2,note_on,62,30,0
2,note_on,62,0,120
2,note_on,66,0,0
2,note_on,66,30,120
2,note_on,57,25,0
2,note_on,57,0,120
2,note_on,66,0,0
2,note_on,66,36,120
2,note_on,62,30,0
2,note_on,62,0,120
2,note_on,66,0,0
2,note_on,66,30,120
2,note_on,57,25,0
2,note_on,57,0,120
2,note_on,66,0,0
2,note_on,64,30,120
2,note_on,67,36,0
2,note_on,67,0,120
2,note_on,64,0,0
2,note_on,57,27,120
2,note_on,67,32,0
2,note_on,67,0,120
2,note_on,57,0,0
2,note_on,67,36,120
2,note_on,61,30,0
2,note_on,61,0,120
2,note_on,67,0,0
2,note_on,67,32,120
2,note_on,57,27,0
2,note_on,57,0,120
2,note_on,67,0,0
2,note_on,66,36,120
2,note_on,62,30,0
2,note_on,62,0,120
2,note_on,66,0,0
2,note_on,57,26,120
2,note_on,66,31,0
2,note_on,66,0,120
2,note_on,57,0,0
2,note_on,62,30,120
2,note_on,66,36,0
2,note_on,66,0,120
2,note_on,62,0,0
2,note_on,57,26,120
2,note_on,66,31,0
2,note_on,66,0,120
2,note_on,57,0,0
2,note_on,67,36,120
2,note_on,62,30,0
2,note_on,62,0,120
2,note_on,67,0,0
2,note_on,67,31,120
2,note_on,62,26,0
2,note_on,55,26,0
2,note_on,55,0,120
2,note_on,62,0,0
2,note_on,67,0,0
2,note_on,62,30,120
2,note_on,67,36,0
2,note_on,67,0,120
2,note_on,62,0,0
2,note_on,67,31,120
2,note_on,62,26,0
2,note_on,59,26,0
2,note_on,59,0,120
2,note_on,62,0,0
2,note_on,67,0,0
2,note_on,62,30,120
2,note_on,66,36,0
2,note_on,66,0,120
2,note_on,62,0,0
2,note_on,57,25,120
2,note_on,66,30,0
2,note_on,66,0,120
2,note_on,57,0,0
2,note_on,66,36,120
2,note_on,62,30,0
2,note_on,62,0,120
2,note_on,66,0,0
2,note_on,57,25,120
2,note_on,66,30,0
2,note_on,66,0,120
2,note_on,57,0,0
2,note_on,62,25,120
2,note_on,65,30,0
2,note_on,65,0,120
2,note_on,62,0,0
2,note_on,65,27,120
2,note_on,57,22,0
2,note_on,57,0,120
2,note_on,65,0,0
2,note_on,62,25,120
2,note_on,65,30,0
2,note_on,65,0,120
2,note_on,62,0,0
2,note_on,57,22,120
2,note_on,65,27,0
2,note_on,65,0,120
2,note_on,57,0,0
2,note_on,62,25,120
2,note_on,65,30,0
2,note_on,65,0,120
2,note_on,62,0,0
2,note_on,65,26,120
2,note_on,57,22,0
2,note_on,57,0,120
2,note_on,65,0,0
2,note_on,62,25,120
2,note_on,65,30,0
2,note_on,65,0,120
2,note_on,62,0,0
2,note_on,65,26,120
2,note_on,57,22,0
2,note_on,57,0,120
2,note_on,65,0,0
2,note_on,63,25,120
2,note_on,65,30,0
2,note_on,65,0,120
2,note_on,63,0,0
2,note_on,65,27,120
2,note_on,63,22,0
2,note_on,57,22,0
2,note_on,57,0,120
2,note_on,63,0,0
2,note_on,65,0,0
2,note_on,60,27,120
2,note_on,65,33,0
2,note_on,63,27,0
2,note_on,63,0,120
2,note_on,65,0,0
2,note_on,60,0,0
2,note_on,63,24,120
2,note_on,65,29,0
2,note_on,53,24,0
2,note_on,53,0,120
2,note_on,65,0,0
2,note_on,63,0,0
2,note_on,58,30,120
2,note_on,65,36,0
2,note_on,62,30,0
2,note_on,62,0,120
2,note_on,65,0,0
2,note_on,58,0,0
2,note_on,65,30,120
2,note_on,62,25,0
2,note_on,62,0,120
2,note_on,65,0,0
2,note_on,58,30,120
2,note_on,62,30,0
2,note_on,65,36,0
2,note_on,65,0,120
2,note_on,62,0,0
2,note_on,58,0,0
2,note_on,62,25,120
2,note_on,65,30,0
2,note_on,65,0,120
2,note_on,62,0,0
2,note_on,68,36,120
2,note_on,62,30,0
2,note_on,58,30,0
2,note_on,58,0,120
2,note_on,62,0,0
2,note_on,68,0,0
2,note_on,65,32,120
2,note_on,62,27,0
2,note_on,58,27,0
2,note_on,58,0,120
2,note_on,62,0,0
2,note_on,65,0,0
2,note_on,62,31,120
2,note_on,68,38,0
2,note_on,58,31,0
2,note_on,58,0,120
2,note_on,68,0,0
2,note_on,62,0,0
2,note_on,62,29,120
2,note_on,65,35,0
2,note_on,58,29,0
2,note_on,58,0,120
2,note_on,65,0,0
2,note_on,62,0,0
2,note_on,69,40,120
2,note_on,62,33,0
2,note_on,57,33,0
2,note_on,66,33,0
2,note_on,66,0,120
2,note_on,69,0,0
2,note_on,62,0,0
2,note_on,57,0,0
2,note_on,66,26,120
2,note_on,62,26,0
2,note_on,69,31,0
2,note_on,69,0,120
2,note_on,62,0,0
2,note_on,66,0,0
2,note_on,57,30,120
2,note_on,69,36,0
2,note_on,66,30,0
2,note_on,66,0,120
2,note_on,69,0,0
2,note_on,57,0,0
2,note_on,66,26,120
2,note_on,62,26,0
2,note_on,69,31,0
2,note_on,69,0,120
2,note_on,62,0,0
2,note_on,66,0,0
2,note_on,67,30,120
2,note_on,69,36,0
2,note_on,61,30,0
2,note_on,61,0,120
2,note_on,69,0,0
2,note_on,67,0,0
2,note_on,57,26,120
2,note_on,67,26,0
2,note_on,69,31,0
2,note_on,69,0,120
2,note_on,67,0,0
2,note_on,57,0,0
2,note_on,69,36,120
2,note_on,67,30,0
2,note_on,61,30,0
2,note_on,61,0,120
2,note_on,67,0,0
2,note_on,69,0,0
2,note_on,69,31,120
2,note_on,57,26,0
2,note_on,67,26,0
2,note_on,67,0,120
2,note_on,57,0,0
2,note_on,69,0,0
2,note_on,57,33,120
2,note_on,66,33,0
2,note_on,69,40,0
2,note_on,69,0,120
2,note_on,66,0,0
2,note_on,57,0,0
2,note_on,66,26,120
2,note_on,69,31,0
2,note_on,62,26,0
2,note_on,62,0,120
2,note_on,69,0,0
2,note_on,66,0,0
2,note_on,57,30,120
2,note_on,69,36,0
2,note_on,66,30,0
2,note_on,66,0,120
2,note_on,69,0,0
2,note_on,57,0,0
2,note_on,69,31,120
2,note_on,66,26,0
2,note_on,62,26,0
2,note_on,62,0,120
2,note_on,66,0,0
2,note_on,69,0,0
2,note_on,62,30,120
2,note_on,55,30,0
2,note_on,67,36,0
2,note_on,67,0,120
2,note_on,55,0,0
2,note_on,62,0,0
2,note_on,59,25,120
2,note_on,67,30,0
2,note_on,62,25,0
2,note_on,62,0,120
2,note_on,67,0,0
2,note_on,59,0,0
2,note_on,62,27,120
2,note_on,59,27,0
2,note_on,67,33,0
2,note_on,67,0,120
2,note_on,59,0,0
2,note_on,62,0,0
2,note_on,62,23,120
2,note_on,67,27,0
2,note_on,67,0,120
2,note_on,62,0,0
2,note_on,66,24,120
2,note_on,69,30,0
2,note_on,62,24,0
2,note_on,62,0,120
2,note_on,69,0,0
2,note_on,66,0,0
2,note_on,69,23,120
2,note_on,66,19,0
2,note_on,57,19,0
2,note_on,57,0,120
2,note_on,66,0,0
2,note_on,69,0,0
2,note_on,69,27,120
2,note_on,62,22,0
2,note_on,66,22,0
2,note_on,66,0,120
2,note_on,62,0,0
2,note_on,69,0,0
2,note_on,69,23,120
2,note_on,57,19,0
2,note_on,66,19,0
2,note_on,66,0,120
2,note_on,57,0,0
2,note_on,69,0,0
2,note_on,67,22,120
2,note_on,69,27,0
2,note_on,61,22,0
2,note_on,61,0,120
2,note_on,69,0,0
2,note_on,67,0,0
2,note_on,57,19,120
2,note_on,67,19,0
2,note_on,69,23,0
2,note_on,69,0,120
2,note_on,67,0,0
2,note_on,57,0,0
2,note_on,67,22,120
2,note_on,61,22,0
2,note_on,69,27,0
2,note_on,69,0,120
2,note_on,61,0,0
2,note_on,67,0,0
2,note_on,57,19,120
2,note_on,67,19,0
2,note_on,69,23,0
2,note_on,69,0,120
2,note_on,67,0,0
2,note_on,57,0,0
2,note_on,57,24,120
2,note_on,69,30,0
2,note_on,66,24,0
2,note_on,66,0,120
2,note_on,69,0,0
2,note_on,57,0,0
2,note_on,66,19,120
2,note_on,62,19,0
2,note_on,69,23,0
2,note_on,69,0,120
2,note_on,62,0,0
2,note_on,66,0,0
2,note_on,69,27,120
2,note_on,57,22,0
2,note_on,66,22,0
2,note_on,66,0,120
2,note_on,57,0,0
2,note_on,69,0,0
2,note_on,62,19,120
2,note_on,66,19,0
2,note_on,69,23,0
2,note_on,69,0,120
2,note_on,66,0,0
2,note_on,62,0,0
2,note_on,67,27,120
2,note_on,55,22,0
2,note_on,62,22,0
2,note_on,62,0,120
2,note_on,55,0,0
2,note_on,67,0,0
2,note_on,62,19,120
2,note_on,59,19,0
2,note_on,67,23,0
2,note_on,67,0,120
2,note_on,59,0,0
2,note_on,62,0,0
2,note_on,62,22,120
2,note_on,59,22,0
2,note_on,67,27,0
2,note_on,67,0,120
2,note_on,59,0,0
2,note_on,62,0,0
2,note_on,62,19,120
2,note_on,67,23,0
2,note_on,67,0,120
2,note_on,62,0,0
2,note_on,66,30,120
2,note_on,62,24,0
2,note_on,62,0,120
2,note_on,66,0,0
2,note_on,66,23,120
2,note_on,57,19,0
2,note_on,57,0,120
2,note_on,66,0,0
2,note_on,66,27,120
2,note_on,62,22,0
2,note_on,62,0,120
2,note_on,66,0,0
2,note_on,57,19,120
2,note_on,66,23,0
2,note_on,66,0,120
2,note_on,57,0,0
2,note_on,61,22,120
2,note_on,67,27,0
2,note_on,67,0,120
2,note_on,61,0,0
2,note_on,67,23,120
2,note_on,57,19,0
2,note_on,57,0,120
2,note_on,67,0,0
2,note_on,61,22,120
2,note_on,67,27,0
2,note_on,67,0,120
2,note_on,61,0,0
2,note_on,57,19,120
2,note_on,67,23,0
2,note_on,67,0,120
2,note_on,57,0,0
2,note_on,57,24,120
2,note_on,66,30,0
2,note_on,66,0,120
2,note_on,57,0,0
2,note_on,62,19,120
2,note_on,66,23,0
2,note_on,66,0,120
2,note_on,62,0,0
2,note_on,66,27,120
2,note_on,57,22,0
2,note_on,57,0,120
2,note_on,66,0,0
2,note_on,62,19,120
2,note_on,66,23,0
2,note_on,66,0,120
2,note_on,62,0,0
2,note_on,62,22,120
2,note_on,67,27,0
2,note_on,55,22,0
2,note_on,55,0,120
2,note_on,67,0,0
2,note_on,62,0,0
2,note_on,62,19,120
2,note_on,59,19,0
2,note_on,67,23,0
2,note_on,67,0,120
2,note_on,59,0,0
2,note_on,62,0,0
2,note_on,67,26,120
2,note_on,59,21,0
2,note_on,62,21,0
2,note_on,62,0,120
2,note_on,59,0,0
2,note_on,67,0,0
2,note_on,67,22,120
2,note_on,62,18,0
2,note_on,62,0,120
2,note_on,67,0,0
2,note_on,62,23,120
2,note_on,66,29,0
2,note_on,66,0,120
2,note_on,62,0,0
2,note_on,57,18,120
2,note_on,66,22,0
2,note_on,66,0,120
2,note_on,57,0,0
2,note_on,62,21,120
2,note_on,66,25,0
2,note_on,66,0,120
2,note_on,62,0,0
2,note_on,57,18,120
2,note_on,66,21,0
2,note_on,66,0,120
2,note_on,57,0,0
2,note_on,67,25,120
2,note_on,61,20,0
2,note_on,61,0,120
2,note_on,67,0,0
2,note_on,67,21,120
2,note_on,57,17,0
2,note_on,57,0,120
2,note_on,67,0,0
2,note_on,67,25,120
2,note_on,61,20,0
2,note_on,61,0,120
2,note_on,67,0,0
2,note_on,57,17,120
2,note_on,67,21,0
2,note_on,67,0,120
2,note_on,57,0,0
2,note_on,62,21,120
2,note_on,66,27,0
2,note_on,66,0,120
2,note_on,62,0,0
2,note_on,66,20,120
2,note_on,57,17,0
2,note_on,57,0,120
2,note_on,66,0,0
2,note_on,62,19,120
2,note_on,66,24,0
2,note_on,66,0,120
2,note_on,62,0,0
2,note_on,57,16,120
2,note_on,66,20,0
2,note_on,66,0,120
2,note_on,57,0,0
2,note_on,61,19,120
2,note_on,67,23,0
2,note_on,67,0,120
2,note_on,61,0,0
2,note_on,57,16,120
2,note_on,67,20,0
2,note_on,67,0,120
2,note_on,57,0,0
2,note_on,67,23,120
2,note_on,61,19,0
2,note_on,61,0,120
2,note_on,67,0,0
2,note_on,57,16,120
2,note_on,67,19,0
2,note_on,67,0,120
2,note_on,57,0,0
2,note_on,62,24,120
2,note_on,66,28,0
2,note_on,66,0,120
2,note_on,62,0,0
2,note_on,66,24,120
2,note_on,61,20,0
2,note_on,61,0,120
2,note_on,66,0,0
2,note_on,59,24,120
2,note_on,66,28,0
2,note_on,66,0,120
2,note_on,59,0,0
2,note_on,66,24,120
2,note_on,57,20,0
2,note_on,57,0,120
2,note_on,66,0,0
2,note_on,61,24,120
2,note_on,67,28,0
2,note_on,67,0,120
2,note_on,61,0,0
2,note_on,64,20,120
2,note_on,67,24,0
2,note_on,67,0,120
2,note_on,64,0,0
2,note_on,61,24,120
2,note_on,67,28,0
2,note_on,67,0,120
2,note_on,61,0,0
2,note_on,57,20,120
2,note_on,67,24,0
2,note_on,67,0,120
2,note_on,57,0,0
2,note_on,66,28,120
2,note_on,62,24,0
2,note_on,62,0,120
2,note_on,66,0,0
2,note_on,66,24,120
2,note_on,61,20,0
2,note_on,61,0,120
2,note_on,66,0,0
2,note_on,59,24,120
2,note_on,66,28,0
2,note_on,66,0,120
2,note_on,59,0,0
2,note_on,57,20,120
2,note_on,66,24,0
2,note_on,66,0,120
2,note_on,57,0,0
2,note_on,67,28,120
2,note_on,61,24,0
2,note_on,61,0,120
2,note_on,67,0,0
2,note_on,67,24,120
2,note_on,64,20,0
2,note_on,64,0,120
2,note_on,67,0,0
2,note_on,67,28,120
2,note_on,61,24,0
2,note_on,61,0,120
2,note_on,67,0,0
2,note_on,67,24,120
2,note_on,57,20,0
2,note_on,57,0,120
2,note_on,67,0,0
2,note_on,50,24,120
2,note_on,54,28,0
2,note_on,54,0,120
2,note_on,50,0,0
2,note_on,49,20,120
2,note_on,54,24,0
2,note_on,54,0,120
2,note_on,49,0,0
2,note_on,47,24,120
2,note_on,54,28,0
2,note_on,54,0,120
2,note_on,47,0,0
2,note_on,45,20,120
2,note_on,54,24,0
2,note_on,54,0,120
2,note_on,45,0,0
2,note_on,55,28,120
2,note_on,49,24,0
2,note_on,49,0,120
2,note_on,55,0,0
2,note_on,52,20,120
2,note_on,55,24,0
2,note_on,55,0,120
2,note_on,52,0,0
2,note_on,55,28,120
2,note_on,49,24,0
2,note_on,49,0,120
2,note_on,55,0,0
2,note_on,45,20,120
2,note_on,55,24,0
2,note_on,55,0,120
2,note_on,45,0,0
2,note_on,50,24,120
2,note_on,54,28,0
2,note_on,54,0,120
2,note_on,50,0,0
2,note_on,49,20,120
2,note_on,54,24,0
2,note_on,54,0,120
2,note_on,49,0,0
2,note_on,47,24,120
2,note_on,54,28,0
2,note_on,54,0,120
2,note_on,47,0,0
2,note_on,45,20,120
2,note_on,54,24,0
2,note_on,54,0,120
2,note_on,45,0,0
2,note_on,55,28,120
2,note_on,49,24,0
2,note_on,49,0,120
2,note_on,55,0,0
2,note_on,52,20,120
2,note_on,55,24,0
2,note_on,55,0,120
2,note_on,52,0,0
2,note_on,55,28,120
2,note_on,49,24,0
2,note_on,49,0,120
2,note_on,55,0,0
2,note_on,45,20,120
2,note_on,55,24,0
2,note_on,55,0,120
2,note_on,45,0,0
2,note_on,50,24,120
2,note_on,54,28,0
2,note_on,54,0,120
2,note_on,50,0,0
2,note_on,45,20,120
2,note_on,54,24,0
2,note_on,54,0,120
2,note_on,45,0,0
2,note_on,54,27,120
2,note_on,50,23,0
2,note_on,50,0,120
2,note_on,54,0,0
2,note_on,45,19,120
2,note_on,54,23,0
2,note_on,54,0,120
2,note_on,45,0,0
2,note_on,50,23,120
2,note_on,54,27,0
2,note_on,54,0,120
2,note_on,50,0,0
2,note_on,45,19,120
2,note_on,54,23,0
2,note_on,54,0,120
2,note_on,45,0,0
2,note_on,50,23,120
2,note_on,54,26,0
2,note_on,54,0,120
2,note_on,50,0,0
2,note_on,54,22,120
2,note_on,45,19,0
2,note_on,45,0,120
2,note_on,54,0,0
2,note_on,50,26,120
2,note_on,42,22,0
2,note_on,42,0,120
2,note_on,50,0,0
2,note_on,45,18,120
2,note_on,45,0,120
2,note_on,42,22,120
2,note_on,50,25,0
2,note_on,50,0,120
2,note_on,42,0,0
2,note_on,45,18,120
2,note_on,45,0,120
2,note_on,50,25,120
2,note_on,42,21,0
2,note_on,42,0,120
2,note_on,50,0,0
2,note_on,45,18,120
2,note_on,45,0,120
2,note_on,42,21,120
2,note_on,50,24,0
2,note_on,50,0,120
2,note_on,42,0,0
2,note_on,45,17,120
2,note_on,45,0,120
2,note_on,50,24,120
2,note_on,38,20,0
2,note_on,38,0,120
2,note_on,50,0,0
2,note_on,42,24,360
2,note_on,42,0,120
2,note_on,45,20,120
2,note_on,45,0,120
2,note_on,50,23,120
2,note_on,38,20,0
2,note_on,38,0,120
2,note_on,50,0,0
2,note_on,42,23,360
2,note_on,42,0,120
2,note_on,45,19,120
2,note_on,45,0,120
2,note_on,50,22,120
2,note_on,38,19,0
2,note_on,38,0,120
2,note_on,50,0,0
2,note_on,66,22,840
2,note_on,57,18,0
2,note_on,57,0,360
2,note_on,66,0,0
2,note_on,57,18,120
2,note_on,66,22,0
2,note_on,66,0,360
2,note_on,57,0,0
2,note_on,66,22,120
2,note_on,62,18,0
2,note_on,62,0,360
2,note_on,66,0,0
2,note_on,38,18,600
2,note_on,45,22,0
2,note_on,45,0,360
2,note_on,38,0,0
2,note_on,45,22,120
2,note_on,45,0,360
2,note_on,38,18,120
2,note_on,45,18,0
2,note_on,50,22,0
2,note_on,50,0,960
2,note_on,45,0,0
2,note_on,38,0,0
