Track,Message Type,Note,Velocity,Time
1,note_on,65,40,1440
1,note_on,70,48,0
1,note_on,58,36,0
1,note_on,58,0,480
1,note_on,70,0,0
1,note_on,65,0,0
1,note_on,70,50,0
1,note_on,58,37,0
1,note_on,65,42,0
1,note_on,65,0,480
1,note_on,58,0,0
1,note_on,70,0,0
1,note_on,69,48,0
1,note_on,57,31,0
1,note_on,65,40,0
1,note_on,65,0,480
1,note_on,57,0,0
1,note_on,69,0,0
1,note_on,70,50,0
1,note_on,58,37,0
1,note_on,65,42,0
1,note_on,65,0,480
1,note_on,58,0,0
1,note_on,70,0,0
1,note_on,72,48,0
1,note_on,60,36,0
1,note_on,65,40,0
1,note_on,65,0,480
1,note_on,60,0,0
1,note_on,72,0,0
1,note_on,62,40,0
1,note_on,65,45,0
1,note_on,74,53,0
1,note_on,74,0,1440
1,note_on,65,0,0
1,note_on,62,0,0
1,note_on,60,37,0
1,note_on,65,42,0
1,note_on,72,50,0
1,note_on,72,0,240
1,note_on,65,0,0
1,note_on,60,0,0
1,note_on,58,35,0
1,note_on,65,39,0
1,note_on,70,46,0
1,note_on,70,0,240
1,note_on,65,0,0
1,note_on,58,0,0
1,note_on,60,35,0
1,note_on,72,47,0
1,note_on,65,39,0
1,note_on,65,0,452
1,note_on,60,0,0
1,note_on,72,0,0
1,note_on,65,38,28
1,note_on,60,34,0
1,note_on,72,46,0
1,note_on,72,0,452
1,note_on,60,0,0
1,note_on,65,0,0
1,note_on,65,38,28
1,note_on,60,34,0
1,note_on,72,46,0
1,note_on,72,0,452
1,note_on,60,0,0
1,note_on,65,0,0
1,note_on,65,42,28
1,note_on,58,37,0
1,note_on,70,50,0
1,note_on,70,0,240
1,note_on,58,0,0
1,note_on,65,0,0
1,note_on,65,38,0
1,note_on,57,30,0
1,note_on,69,45,0
1,note_on,69,0,240
1,note_on,57,0,0
1,note_on,65,0,0
1,note_on,58,37,0
1,note_on,70,52,0
1,note_on,65,52,0
1,note_on,65,0,480
1,note_on,63,42,0
1,note_on,67,50,0
1,note_on,67,0,480
1,note_on,63,0,0
1,note_on,62,36,0
1,note_on,65,44,0
1,note_on,65,0,480
1,note_on,58,0,0
1,note_on,70,0,0
1,note_on,62,0,0
1,note_on,70,61,0
1,note_on,70,0,480
1,note_on,63,45,0
1,note_on,70,51,0
1,note_on,75,60,0
1,note_on,75,0,1440
1,note_on,70,0,0
1,note_on,63,0,0
1,note_on,62,41,0
1,note_on,74,55,0
1,note_on,70,46,0
1,note_on,70,0,240
1,note_on,74,0,0
1,note_on,62,0,0
1,note_on,70,42,0
1,note_on,60,37,0
1,note_on,72,50,0
1,note_on,72,0,240
1,note_on,60,0,0
1,note_on,70,0,0
1,note_on,70,45,0
1,note_on,62,45,0
1,note_on,74,53,0
1,note_on,74,0,480
1,note_on,62,0,0
1,note_on,70,0,0
1,note_on,65,42,0
1,note_on,57,37,0
1,note_on,69,50,0
1,note_on,69,0,480
1,note_on,57,0,0
1,note_on,65,0,0
1,note_on,65,44,0
1,note_on,58,39,0
1,note_on,70,52,0
1,note_on,70,0,480
1,note_on,58,0,0
1,note_on,65,0,0
1,note_on,65,42,0
1,note_on,72,50,0
1,note_on,60,37,0
1,note_on,60,0,480
1,note_on,72,0,0
1,note_on,65,0,0
1,note_on,70,52,0
1,note_on,58,39,0
1,note_on,65,44,0
1,note_on,65,0,480
1,note_on,58,0,0
1,note_on,70,0,0
1,note_on,70,44,0
1,note_on,74,52,0
1,note_on,62,39,0
1,note_on,65,44,0
1,note_on,65,0,480
1,note_on,70,0,0
1,note_on,74,0,0
1,note_on,62,0,0
1,note_on,65,42,0
1,note_on,60,37,0
1,note_on,72,50,0
1,note_on,69,42,0
1,note_on,69,0,3120
1,note_on,65,0,0
1,note_on,60,0,0
1,note_on,72,0,0
1,note_on,65,40,1200
1,note_on,58,36,0
1,note_on,70,48,0
1,note_on,70,0,480
1,note_on,58,0,0
1,note_on,65,0,0
1,note_on,65,42,0
1,note_on,58,37,0
1,note_on,70,50,0
1,note_on,70,0,480
1,note_on,58,0,0
1,note_on,65,0,0
1,note_on,65,40,0
1,note_on,57,31,0
1,note_on,69,48,0
1,note_on,69,0,480
1,note_on,57,0,0
1,note_on,65,0,0
1,note_on,65,42,0
1,note_on,58,37,0
1,note_on,70,50,0
1,note_on,70,0,480
1,note_on,58,0,0
1,note_on,65,0,0
1,note_on,65,40,0
1,note_on,72,48,0
1,note_on,60,36,0
1,note_on,60,0,480
1,note_on,72,0,0
1,note_on,65,0,0
1,note_on,74,53,0
1,note_on,62,40,0
1,note_on,65,45,0
1,note_on,65,0,1440
1,note_on,62,0,0
1,note_on,74,0,0
1,note_on,72,50,0
1,note_on,60,37,0
1,note_on,65,42,0
1,note_on,65,0,240
1,note_on,60,0,0
1,note_on,72,0,0
1,note_on,70,46,0
1,note_on,58,35,0
1,note_on,65,39,0
1,note_on,65,0,240
1,note_on,58,0,0
1,note_on,70,0,0
1,note_on,72,47,0
1,note_on,65,39,0
1,note_on,60,35,0
1,note_on,60,0,475
1,note_on,65,0,0
1,note_on,72,0,0
1,note_on,65,38,5
1,note_on,60,34,0
1,note_on,72,46,0
1,note_on,72,0,475
1,note_on,60,0,0
1,note_on,65,0,0
1,note_on,65,38,5
1,note_on,60,34,0
1,note_on,72,46,0
1,note_on,72,0,475
1,note_on,60,0,0
1,note_on,65,0,0
1,note_on,65,42,5
1,note_on,58,37,0
1,note_on,70,50,0
1,note_on,70,0,240
1,note_on,58,0,0
1,note_on,65,0,0
1,note_on,65,38,0
1,note_on,57,30,0
1,note_on,69,45,0
1,note_on,69,0,240
1,note_on,57,0,0
1,note_on,65,0,0
1,note_on,58,37,0
1,note_on,70,52,0
1,note_on,65,52,0
1,note_on,65,0,480
1,note_on,63,42,0
1,note_on,67,50,0
1,note_on,67,0,480
1,note_on,63,0,0
1,note_on,62,36,0
1,note_on,65,44,0
1,note_on,65,0,480
1,note_on,58,0,0
1,note_on,70,0,0
1,note_on,62,0,0
1,note_on,65,51,0
1,note_on,62,45,0
1,note_on,74,61,0
1,note_on,74,0,480
1,note_on,62,0,0
1,note_on,65,0,0
1,note_on,67,51,0
1,note_on,62,45,0
1,note_on,74,60,0
1,note_on,74,0,1440
1,note_on,62,0,0
1,note_on,67,0,0
1,note_on,67,46,0
1,note_on,72,55,0
1,note_on,60,41,0
1,note_on,60,0,240
1,note_on,72,0,0
1,note_on,67,0,0
1,note_on,71,50,0
1,note_on,59,37,0
1,note_on,67,42,0
1,note_on,67,0,240
1,note_on,59,0,0
1,note_on,71,0,0
1,note_on,75,65,0
1,note_on,63,53,0
1,note_on,67,54,0
1,note_on,67,0,480
1,note_on,63,0,0
1,note_on,75,0,0
1,note_on,74,59,0
1,note_on,62,50,0
1,note_on,67,50,0
1,note_on,67,0,480
1,note_on,62,0,0
1,note_on,74,0,0
1,note_on,72,57,0
1,note_on,60,48,0
1,note_on,67,48,0
1,note_on,67,0,480
1,note_on,60,0,0
1,note_on,72,0,0
1,note_on,60,45,0
1,note_on,69,51,0
1,note_on,72,61,0
1,note_on,72,0,480
1,note_on,69,0,0
1,note_on,60,0,0
1,note_on,65,45,0
1,note_on,72,60,0
1,note_on,60,45,0
1,note_on,69,51,0
1,note_on,69,0,1440
1,note_on,65,0,0
1,note_on,72,0,0
1,note_on,60,0,0
1,note_on,70,55,0
1,note_on,58,41,0
1,note_on,65,46,0
1,note_on,65,0,240
1,note_on,58,0,0
1,note_on,70,0,0
1,note_on,69,50,0
1,note_on,57,37,0
1,note_on,65,42,0
1,note_on,65,0,240
1,note_on,57,0,0
1,note_on,69,0,0
1,note_on,62,51,0
1,note_on,65,55,0
1,note_on,74,65,0
1,note_on,74,0,480
1,note_on,65,0,0
1,note_on,62,0,0
1,note_on,57,47,0
1,note_on,65,47,0
1,note_on,69,56,0
1,note_on,69,0,480
1,note_on,65,0,0
1,note_on,57,0,0
1,note_on,58,50,0
1,note_on,65,50,0
1,note_on,70,59,0
1,note_on,70,0,480
1,note_on,65,0,0
1,note_on,58,0,0
1,note_on,65,45,0
1,note_on,72,54,0
1,note_on,60,40,0
1,note_on,69,45,0
1,note_on,69,0,480
1,note_on,65,0,0
1,note_on,72,0,0
1,note_on,60,0,0
1,note_on,65,40,0
1,note_on,72,54,0
1,note_on,60,40,0
1,note_on,69,45,0
1,note_on,69,0,960
1,note_on,60,0,0
1,note_on,72,0,0
1,note_on,58,48,0
1,note_on,70,48,0
1,note_on,70,0,240
1,note_on,58,0,0
1,note_on,65,0,0
1,note_on,70,51,2160
1,note_on,70,0,480
1,note_on,70,52,0
1,note_on,70,0,480
1,note_on,68,51,0
1,note_on,68,0,480
1,note_on,70,52,0
1,note_on,70,0,480
1,note_on,71,50,0
1,note_on,71,0,480
1,note_on,73,52,0
1,note_on,73,0,1440
1,note_on,71,56,0
1,note_on,71,0,240
1,note_on,70,53,0
1,note_on,70,0,240
1,note_on,75,58,0
1,note_on,75,0,240
1,note_on,75,54,240
1,note_on,75,0,240
1,note_on,75,54,240
1,note_on,75,0,240
1,note_on,77,56,240
1,note_on,77,0,240
1,note_on,78,51,0
1,note_on,78,0,240
1,note_on,73,54,0
1,note_on,73,0,1440
1,note_on,71,52,0
1,note_on,71,0,240
1,note_on,70,51,0
1,note_on,70,0,240
1,note_on,71,52,0
1,note_on,71,0,480
1,note_on,75,52,0
1,note_on,75,0,480
1,note_on,68,52,0
1,note_on,68,0,480
1,note_on,71,52,0
1,note_on,71,0,480
1,note_on,70,54,0
1,note_on,70,0,480
1,note_on,66,51,0
1,note_on,78,61,0
1,note_on,78,0,720
1,note_on,66,0,0
1,note_on,65,45,0
1,note_on,77,53,0
1,note_on,77,0,240
1,note_on,65,0,0
1,note_on,75,56,0
1,note_on,63,47,0
1,note_on,63,0,240
1,note_on,75,0,0
1,note_on,61,43,0
1,note_on,73,51,0
1,note_on,73,0,240
1,note_on,61,0,0
1,note_on,59,46,0
1,note_on,71,54,0
1,note_on,71,0,480
1,note_on,59,0,0
1,note_on,75,56,0
1,note_on,75,0,480
1,note_on,68,54,0
1,note_on,68,0,480
1,note_on,70,52,0
1,note_on,70,0,240
1,note_on,71,52,0
1,note_on,71,0,240
1,note_on,70,55,0
1,note_on,70,0,240
1,note_on,73,52,0
1,note_on,73,0,240
1,note_on,82,56,0
1,note_on,82,0,240
1,note_on,78,52,0
1,note_on,78,0,240
1,note_on,73,56,0
1,note_on,73,0,240
1,note_on,70,52,0
1,note_on,70,0,240
1,note_on,78,55,0
1,note_on,78,0,240
1,note_on,74,52,0
1,note_on,74,0,240
1,note_on,75,55,0
1,note_on,75,0,240
1,note_on,71,52,0
1,note_on,71,0,240
1,note_on,83,56,0
1,note_on,83,0,240
1,note_on,80,54,0
1,note_on,80,0,240
1,note_on,77,58,0
1,note_on,77,0,240
1,note_on,80,56,0
1,note_on,80,0,240
1,note_on,85,58,0
1,note_on,85,0,240
1,note_on,81,54,0
1,note_on,81,0,240
1,note_on,82,57,0
1,note_on,82,0,240
1,note_on,78,54,0
1,note_on,78,0,240
1,note_on,82,57,0
1,note_on,82,0,120
1,note_on,78,51,0
1,note_on,78,0,120
1,note_on,82,56,0
1,note_on,82,0,120
1,note_on,78,50,0
1,note_on,78,0,120
1,note_on,73,56,0
1,note_on,73,0,120
1,note_on,70,52,0
1,note_on,70,0,120
1,note_on,73,56,0
1,note_on,73,0,120
1,note_on,70,53,0
1,note_on,70,0,120
1,note_on,78,58,0
1,note_on,78,0,120
1,note_on,74,53,0
1,note_on,74,0,120
1,note_on,78,57,0
1,note_on,78,0,120
1,note_on,74,52,0
1,note_on,74,0,120
1,note_on,75,57,0
1,note_on,75,0,120
1,note_on,71,52,0
1,note_on,71,0,120
1,note_on,75,54,0
1,note_on,75,0,120
1,note_on,71,52,0
1,note_on,71,0,120
1,note_on,83,57,0
1,note_on,83,0,120
1,note_on,80,51,0
1,note_on,80,0,120
1,note_on,83,56,0
1,note_on,83,0,120
1,note_on,80,50,0
1,note_on,80,0,120
1,note_on,77,56,0
1,note_on,77,0,120
1,note_on,80,52,0
1,note_on,80,0,120
1,note_on,77,56,0
1,note_on,77,0,120
1,note_on,80,53,0
1,note_on,80,0,120
1,note_on,85,58,0
1,note_on,85,0,120
1,note_on,81,53,0
1,note_on,81,0,120
1,note_on,85,57,0
1,note_on,85,0,120
1,note_on,81,52,0
1,note_on,81,0,120
1,note_on,82,57,0
1,note_on,82,0,120
1,note_on,81,53,0
1,note_on,81,0,120
1,note_on,82,52,0
1,note_on,82,0,120
1,note_on,77,52,0
1,note_on,77,0,120
1,note_on,78,57,0
1,note_on,78,0,120
1,note_on,77,51,0
1,note_on,77,0,120
1,note_on,78,51,0
1,note_on,78,0,120
1,note_on,72,50,0
1,note_on,72,0,120
1,note_on,73,55,0
1,note_on,73,0,120
1,note_on,72,51,0
1,note_on,72,0,120
1,note_on,73,51,0
1,note_on,73,0,120
1,note_on,69,51,0
1,note_on,69,0,120
1,note_on,70,54,0
1,note_on,70,0,120
1,note_on,69,47,0
1,note_on,69,0,120
1,note_on,70,49,0
1,note_on,70,0,120
1,note_on,65,47,0
1,note_on,65,0,120
1,note_on,66,57,0
1,note_on,66,0,120
1,note_on,81,53,0
1,note_on,81,0,120
1,note_on,82,52,0
1,note_on,82,0,120
1,note_on,77,52,0
1,note_on,77,0,120
1,note_on,78,57,0
1,note_on,78,0,120
1,note_on,77,51,0
1,note_on,77,0,120
1,note_on,78,51,0
1,note_on,78,0,120
1,note_on,72,50,0
1,note_on,72,0,120
1,note_on,73,55,0
1,note_on,73,0,120
1,note_on,72,51,0
1,note_on,72,0,120
1,note_on,73,51,0
1,note_on,73,0,120
1,note_on,69,51,0
1,note_on,69,0,120
1,note_on,70,54,0
1,note_on,70,0,120
1,note_on,69,47,0
1,note_on,69,0,120
1,note_on,70,49,0
1,note_on,70,0,120
1,note_on,65,47,0
1,note_on,65,0,120
1,note_on,66,53,0
1,note_on,66,0,120
1,note_on,65,49,0
1,note_on,65,0,120
1,note_on,66,49,0
1,note_on,66,0,120
1,note_on,68,49,0
1,note_on,68,0,120
1,note_on,70,55,0
1,note_on,70,0,120
1,note_on,71,49,0
1,note_on,71,0,120
1,note_on,70,49,0
1,note_on,70,0,120
1,note_on,68,49,0
1,note_on,68,0,120
1,note_on,66,55,0
1,note_on,66,0,120
1,note_on,68,50,0
1,note_on,68,0,120
1,note_on,70,50,0
1,note_on,70,0,120
1,note_on,68,50,0
1,note_on,68,0,120
1,note_on,66,55,0
1,note_on,66,0,120
1,note_on,68,50,0
1,note_on,68,0,120
1,note_on,66,52,0
1,note_on,66,0,120
1,note_on,65,51,0
1,note_on,65,0,120
1,note_on,64,57,0
1,note_on,64,0,160
1,note_on,70,52,0
1,note_on,70,0,152
1,note_on,58,45,8
1,note_on,64,45,0
1,note_on,70,54,0
1,note_on,70,0,152
1,note_on,64,0,0
1,note_on,58,0,0
1,note_on,58,50,8
1,note_on,70,59,0
1,note_on,64,50,0
1,note_on,64,0,152
1,note_on,70,0,0
1,note_on,58,0,0
1,note_on,64,47,8
1,note_on,70,56,0
1,note_on,58,47,0
1,note_on,58,0,152
1,note_on,70,0,0
1,note_on,64,0,0
1,note_on,70,57,8
1,note_on,58,48,0
1,note_on,64,48,0
1,note_on,64,0,152
1,note_on,58,0,0
1,note_on,70,0,0
1,note_on,70,62,8
1,note_on,58,52,0
1,note_on,64,52,0
1,note_on,64,0,152
1,note_on,58,0,0
1,note_on,70,0,0
1,note_on,70,56,8
1,note_on,58,47,0
1,note_on,64,47,0
1,note_on,64,0,152
1,note_on,58,0,0
1,note_on,70,0,0
1,note_on,70,57,8
1,note_on,58,47,0
1,note_on,64,47,0
1,note_on,64,0,152
1,note_on,58,0,0
1,note_on,70,0,0
1,note_on,58,55,8
1,note_on,64,55,0
1,note_on,70,65,0
1,note_on,70,0,152
1,note_on,64,0,0
1,note_on,58,0,0
1,note_on,58,51,8
1,note_on,64,51,0
1,note_on,70,61,0
1,note_on,70,0,152
1,note_on,64,0,0
1,note_on,58,0,0
1,note_on,58,52,8
1,note_on,64,52,0
1,note_on,70,62,0
1,note_on,70,0,152
1,note_on,64,0,0
1,note_on,58,0,0
1,note_on,58,57,8
1,note_on,70,67,0
1,note_on,64,57,0
1,note_on,64,0,152
1,note_on,70,0,0
1,note_on,58,0,0
1,note_on,64,53,8
1,note_on,58,53,0
1,note_on,70,64,0
1,note_on,70,0,152
1,note_on,58,0,0
1,note_on,64,0,0
1,note_on,64,55,8
1,note_on,58,55,0
1,note_on,70,65,0
1,note_on,70,0,152
1,note_on,58,0,0
1,note_on,64,0,0
1,note_on,64,59,8
1,note_on,58,59,0
1,note_on,70,71,0
1,note_on,70,0,152
1,note_on,58,0,0
1,note_on,64,0,0
1,note_on,64,56,8
1,note_on,58,56,0
1,note_on,70,67,0
1,note_on,70,0,152
1,note_on,58,0,0
1,note_on,64,0,0
1,note_on,64,57,8
1,note_on,70,69,0
1,note_on,58,57,0
1,note_on,58,0,152
1,note_on,70,0,0
1,note_on,64,0,0
1,note_on,70,74,8
1,note_on,58,62,0
1,note_on,64,62,0
1,note_on,64,0,152
1,note_on,58,0,0
1,note_on,70,0,0
1,note_on,70,71,8
1,note_on,58,59,0
1,note_on,64,59,0
1,note_on,64,0,152
1,note_on,58,0,0
1,note_on,70,0,0
1,note_on,70,72,8
1,note_on,58,60,0
1,note_on,64,60,0
1,note_on,64,0,152
1,note_on,58,0,0
1,note_on,70,0,0
1,note_on,70,85,8
1,note_on,65,72,0
1,note_on,58,72,0
1,note_on,58,0,152
1,note_on,65,0,0
1,note_on,70,0,0
1,note_on,65,67,8
1,note_on,58,67,0
1,note_on,70,80,0
1,note_on,70,0,152
1,note_on,58,0,0
1,note_on,65,0,0
1,note_on,65,67,8
1,note_on,58,67,0
1,note_on,70,80,0
1,note_on,70,0,152
1,note_on,58,0,0
1,note_on,65,0,0
1,note_on,58,63,8
1,note_on,65,77,0
1,note_on,70,90,0
1,note_on,70,0,480
1,note_on,65,0,0
1,note_on,58,0,0
1,note_on,57,60,0
1,note_on,69,85,0
1,note_on,65,72,0
1,note_on,65,0,480
1,note_on,69,0,0
1,note_on,57,0,0
1,note_on,65,72,0
1,note_on,58,60,0
1,note_on,70,85,0
1,note_on,70,0,480
1,note_on,58,0,0
1,note_on,65,0,0
1,note_on,65,72,0
1,note_on,60,60,0
1,note_on,72,85,0
1,note_on,72,0,480
1,note_on,60,0,0
1,note_on,65,0,0
1,note_on,65,78,0
1,note_on,62,64,0
1,note_on,74,92,0
1,note_on,74,0,1440
1,note_on,62,0,0
1,note_on,65,0,0
1,note_on,65,74,0
1,note_on,60,62,0
1,note_on,72,89,0
1,note_on,72,0,240
1,note_on,60,0,0
1,note_on,65,0,0
1,note_on,65,69,0
1,note_on,70,82,0
1,note_on,58,58,0
1,note_on,58,0,240
1,note_on,70,0,0
1,note_on,65,0,0
1,note_on,72,88,0
1,note_on,60,61,0
1,note_on,65,73,0
1,note_on,65,0,475
1,note_on,60,0,0
1,note_on,72,0,0
1,note_on,72,84,5
1,note_on,60,59,0
1,note_on,65,71,0
1,note_on,65,0,475
1,note_on,60,0,0
1,note_on,72,0,0
1,note_on,72,83,5
1,note_on,60,59,0
1,note_on,65,70,0
1,note_on,65,0,475
1,note_on,60,0,0
1,note_on,72,0,0
1,note_on,70,88,5
1,note_on,58,61,0
1,note_on,65,73,0
1,note_on,65,0,240
1,note_on,58,0,0
1,note_on,70,0,0
1,note_on,57,58,0
1,note_on,65,69,0
1,note_on,69,82,0
1,note_on,69,0,240
1,note_on,65,0,0
1,note_on,57,0,0
1,note_on,65,82,0
1,note_on,58,75,0
1,note_on,70,90,0
1,note_on,65,0,480
1,note_on,63,73,0
1,note_on,67,88,0
1,note_on,67,0,480
1,note_on,63,0,0
1,note_on,65,83,0
1,note_on,62,70,0
1,note_on,62,0,480
1,note_on,58,0,0
1,note_on,70,0,0
1,note_on,65,0,0
1,note_on,74,89,0
1,note_on,65,75,0
1,note_on,62,64,0
1,note_on,62,0,480
1,note_on,65,0,0
1,note_on,74,0,0
1,note_on,67,75,0
1,note_on,74,89,0
1,note_on,62,64,0
1,note_on,62,0,1440
1,note_on,74,0,0
1,note_on,67,0,0
1,note_on,72,84,0
1,note_on,60,59,0
1,note_on,67,71,0
1,note_on,67,0,240
1,note_on,60,0,0
1,note_on,72,0,0
1,note_on,71,79,0
1,note_on,59,56,0
1,note_on,67,67,0
1,note_on,67,0,240
1,note_on,59,0,0
1,note_on,71,0,0
1,note_on,75,94,0
1,note_on,63,67,0
1,note_on,67,79,0
1,note_on,67,0,480
1,note_on,63,0,0
1,note_on,75,0,0
1,note_on,74,91,0
1,note_on,62,65,0
1,note_on,67,76,0
1,note_on,67,0,480
1,note_on,62,0,0
1,note_on,74,0,0
1,note_on,60,63,0
1,note_on,67,74,0
1,note_on,72,88,0
1,note_on,72,0,480
1,note_on,67,0,0
1,note_on,60,0,0
1,note_on,60,60,0
1,note_on,69,72,0
1,note_on,72,86,0
1,note_on,72,0,480
1,note_on,69,0,0
1,note_on,60,0,0
1,note_on,65,76,0
1,note_on,72,89,0
1,note_on,60,65,0
1,note_on,69,78,0
1,note_on,69,0,1440
1,note_on,65,0,0
1,note_on,72,0,0
1,note_on,60,0,0
1,note_on,70,88,0
1,note_on,58,63,0
1,note_on,65,74,0
1,note_on,65,0,240
1,note_on,58,0,0
1,note_on,70,0,0
1,note_on,57,57,0
1,note_on,65,68,0
1,note_on,69,80,0
1,note_on,69,0,240
1,note_on,65,0,0
1,note_on,57,0,0
1,note_on,62,65,0
1,note_on,65,77,0
1,note_on,74,92,0
1,note_on,74,0,480
1,note_on,65,0,0
1,note_on,62,0,0
1,note_on,57,61,0
1,note_on,65,73,0
1,note_on,69,87,0
1,note_on,69,0,480
1,note_on,65,0,0
1,note_on,57,0,0
1,note_on,58,65,0
1,note_on,70,92,0
1,note_on,65,77,0
1,note_on,65,0,480
1,note_on,70,0,0
1,note_on,58,0,0
1,note_on,60,59,0
1,note_on,72,82,0
1,note_on,69,70,0
1,note_on,65,70,0
1,note_on,65,0,480
1,note_on,60,0,0
1,note_on,72,0,0
1,note_on,69,0,0
1,note_on,65,75,0
1,note_on,72,89,0
1,note_on,60,64,0
1,note_on,69,75,0
1,note_on,69,0,1920
1,note_on,60,0,0
1,note_on,72,0,0
1,note_on,71,73,0
1,note_on,59,61,0
1,note_on,68,61,0
1,note_on,65,0,960
1,note_on,71,0,480
1,note_on,59,0,0
1,note_on,68,0,0
1,note_on,68,55,0
1,note_on,71,66,0
1,note_on,62,55,0
1,note_on,65,55,0
1,note_on,65,0,480
1,note_on,68,0,0
1,note_on,71,0,0
1,note_on,62,0,0
1,note_on,68,55,0
1,note_on,62,55,0
1,note_on,65,55,0
1,note_on,71,66,0
1,note_on,71,0,1440
1,note_on,68,0,0
1,note_on,62,0,0
1,note_on,65,0,0
1,note_on,68,66,0
1,note_on,74,78,0
1,note_on,71,66,0
1,note_on,65,66,0
1,note_on,65,0,480
1,note_on,68,0,0
1,note_on,74,0,0
1,note_on,71,0,0
1,note_on,65,72,0
1,note_on,74,86,0
1,note_on,68,72,0
1,note_on,71,72,0
1,note_on,74,0,960
1,note_on,73,86,0
1,note_on,73,0,240
1,note_on,71,0,0
1,note_on,68,0,0
1,note_on,65,0,0
1,note_on,73,80,240
1,note_on,68,80,0
1,note_on,71,80,0
1,note_on,77,96,0
1,note_on,77,0,240
1,note_on,73,0,0
1,note_on,68,0,0
1,note_on,71,0,0
1,note_on,73,77,240
1,note_on,69,77,0
1,note_on,78,92,0
1,note_on,78,0,160
1,note_on,69,0,0
1,note_on,73,0,0
1,note_on,73,34,0
1,note_on,69,28,0
1,note_on,69,0,152
1,note_on,73,0,0
1,note_on,73,36,8
1,note_on,69,30,0
1,note_on,69,0,152
1,note_on,73,0,0
1,note_on,73,38,8
1,note_on,69,32,0
1,note_on,69,0,152
1,note_on,73,0,0
1,note_on,69,29,8
1,note_on,73,35,0
1,note_on,73,0,152
1,note_on,69,0,0
1,note_on,69,29,8
1,note_on,73,35,0
1,note_on,73,0,152
1,note_on,69,0,0
1,note_on,73,38,8
1,note_on,69,32,0
1,note_on,69,0,152
1,note_on,73,0,0
1,note_on,69,29,8
1,note_on,73,35,0
1,note_on,73,0,152
1,note_on,69,0,0
1,note_on,69,29,8
1,note_on,73,35,0
1,note_on,73,0,152
1,note_on,69,0,0
1,note_on,78,54,8
1,note_on,73,32,160
1,note_on,69,27,0
1,note_on,69,0,152
1,note_on,73,0,0
1,note_on,69,27,8
1,note_on,73,32,0
1,note_on,73,0,152
1,note_on,69,0,0
1,note_on,78,0,8
1,note_on,78,53,0
1,note_on,69,27,160
1,note_on,73,32,0
1,note_on,73,0,152
1,note_on,69,0,0
1,note_on,69,27,8
1,note_on,73,32,0
1,note_on,73,0,152
1,note_on,69,0,0
1,note_on,78,0,8
1,note_on,81,53,0
1,note_on,69,26,160
1,note_on,73,31,0
1,note_on,73,0,152
1,note_on,69,0,0
1,note_on,69,26,8
1,note_on,73,31,0
1,note_on,73,0,152
1,note_on,69,0,0
1,note_on,81,0,8
1,note_on,78,53,0
1,note_on,69,27,160
1,note_on,73,32,0
1,note_on,73,0,152
1,note_on,69,0,0
1,note_on,73,32,8
1,note_on,69,27,0
1,note_on,69,0,152
1,note_on,73,0,0
1,note_on,78,0,8
1,note_on,81,53,0
1,note_on,73,31,160
1,note_on,69,26,0
1,note_on,69,0,152
1,note_on,73,0,0
1,note_on,69,26,8
1,note_on,73,31,0
1,note_on,73,0,152
1,note_on,69,0,0
1,note_on,81,0,8
1,note_on,81,56,0
1,note_on,78,32,160
1,note_on,73,27,0
1,note_on,73,0,152
1,note_on,78,0,0
1,note_on,78,32,8
1,note_on,73,27,0
1,note_on,73,0,152
1,note_on,78,0,0
1,note_on,81,0,8
1,note_on,85,55,0
1,note_on,78,32,160
1,note_on,73,27,0
1,note_on,73,0,152
1,note_on,78,0,0
1,note_on,73,27,8
1,note_on,78,32,0
1,note_on,78,0,152
1,note_on,73,0,0
1,note_on,85,0,8
1,note_on,81,55,0
1,note_on,73,27,160
1,note_on,78,32,0
1,note_on,78,0,152
1,note_on,73,0,0
1,note_on,73,27,8
1,note_on,78,32,0
1,note_on,78,0,152
1,note_on,73,0,0
1,note_on,81,0,8
1,note_on,85,56,0
1,note_on,78,32,160
1,note_on,73,27,0
1,note_on,73,0,152
1,note_on,78,0,0
1,note_on,73,27,8
1,note_on,78,32,0
1,note_on,78,0,152
1,note_on,73,0,0
1,note_on,85,0,8
1,note_on,73,56,0
1,note_on,66,27,160
1,note_on,69,32,0
1,note_on,69,0,152
1,note_on,66,0,0
1,note_on,66,27,8
1,note_on,69,32,0
1,note_on,69,0,152
1,note_on,66,0,0
1,note_on,73,0,8
1,note_on,77,56,0
1,note_on,73,33,160
1,note_on,71,33,0
1,note_on,65,27,0
1,note_on,65,0,152
1,note_on,71,0,0
1,note_on,73,0,0
1,note_on,65,27,8
1,note_on,73,34,0
1,note_on,71,34,0
1,note_on,71,0,152
1,note_on,73,0,0
1,note_on,65,0,0
1,note_on,77,0,8
1,note_on,78,58,0
1,note_on,73,34,160
1,note_on,66,28,0
1,note_on,69,34,0
1,note_on,69,0,152
1,note_on,66,0,0
1,note_on,73,0,0
1,note_on,73,35,8
1,note_on,66,29,0
1,note_on,69,35,0
1,note_on,69,0,152
1,note_on,66,0,0
1,note_on,73,0,0
1,note_on,78,0,8
1,note_on,80,62,0
1,note_on,74,36,160
1,note_on,76,36,0
1,note_on,68,29,0
1,note_on,68,0,152
1,note_on,76,0,0
1,note_on,74,0,0
1,note_on,76,36,8
1,note_on,68,29,0
1,note_on,74,36,0
1,note_on,74,0,152
1,note_on,68,0,0
1,note_on,76,0,0
1,note_on,80,0,8
1,note_on,81,61,0
1,note_on,76,36,160
1,note_on,69,30,0
1,note_on,73,30,0
1,note_on,73,0,152
1,note_on,69,0,0
1,note_on,76,0,0
1,note_on,76,36,8
1,note_on,69,29,0
1,note_on,73,29,0
1,note_on,73,0,152
1,note_on,69,0,0
1,note_on,76,0,0
1,note_on,81,0,8
1,note_on,83,60,0
1,note_on,71,28,160
1,note_on,73,35,0
1,note_on,77,35,0
1,note_on,77,0,152
1,note_on,73,0,0
1,note_on,71,0,0
1,note_on,73,34,8
1,note_on,77,34,0
1,note_on,71,28,0
1,note_on,71,0,152
1,note_on,77,0,0
1,note_on,73,0,0
1,note_on,83,0,8
1,note_on,81,57,0
1,note_on,69,27,160
1,note_on,78,33,0
1,note_on,73,33,0
1,note_on,73,0,152
1,note_on,78,0,0
1,note_on,69,0,0
1,note_on,69,27,8
1,note_on,78,32,0
1,note_on,73,32,0
1,note_on,73,0,152
1,note_on,78,0,0
1,note_on,69,0,0
1,note_on,81,0,8
1,note_on,80,56,0
1,note_on,68,27,160
1,note_on,76,32,0
1,note_on,71,32,0
1,note_on,71,0,152
1,note_on,76,0,0
1,note_on,68,0,0
1,note_on,68,27,8
1,note_on,76,32,0
1,note_on,71,32,0
1,note_on,71,0,152
1,note_on,76,0,0
1,note_on,68,0,0
1,note_on,80,0,8
1,note_on,80,54,0
1,note_on,68,26,160
1,note_on,71,26,0
1,note_on,76,31,0
1,note_on,76,0,152
1,note_on,71,0,0
1,note_on,68,0,0
1,note_on,68,26,8
1,note_on,76,31,0
1,note_on,71,26,0
1,note_on,71,0,152
1,note_on,76,0,0
1,note_on,68,0,0
1,note_on,71,26,8
1,note_on,68,26,0
1,note_on,76,31,0
1,note_on,76,0,152
1,note_on,68,0,0
1,note_on,71,0,0
1,note_on,71,26,8
1,note_on,68,26,0
1,note_on,76,31,0
1,note_on,76,0,152
1,note_on,68,0,0
1,note_on,71,0,0
1,note_on,71,27,8
1,note_on,68,27,0
1,note_on,76,32,0
1,note_on,76,0,152
1,note_on,68,0,0
1,note_on,71,0,0
1,note_on,80,0,8
1,note_on,80,55,0
1,note_on,68,25,160
1,note_on,73,29,0
1,note_on,71,25,0
1,note_on,71,0,152
1,note_on,73,0,0
1,note_on,68,0,0
1,note_on,71,25,8
1,note_on,73,30,0
1,note_on,68,25,0
1,note_on,68,0,152
1,note_on,73,0,0
1,note_on,71,0,0
1,note_on,80,0,8
1,note_on,81,54,0
1,note_on,73,29,160
1,note_on,69,25,0
1,note_on,69,0,152
1,note_on,73,0,0
1,note_on,69,25,8
1,note_on,73,29,0
1,note_on,73,0,160
1,note_on,69,0,0
1,note_on,81,0,0
1,note_on,78,53,0
1,note_on,69,27,160
1,note_on,73,32,0
1,note_on,73,0,152
1,note_on,69,0,0
1,note_on,69,27,8
1,note_on,73,32,0
1,note_on,73,0,152
1,note_on,69,0,0
1,note_on,78,0,8
1,note_on,81,53,0
1,note_on,73,31,160
1,note_on,69,26,0
1,note_on,69,0,152
1,note_on,73,0,0
1,note_on,69,26,8
1,note_on,73,31,0
1,note_on,73,0,152
1,note_on,69,0,0
1,note_on,81,0,8
1,note_on,78,53,0
1,note_on,69,27,160
1,note_on,73,32,0
1,note_on,73,0,152
1,note_on,69,0,0
1,note_on,69,27,8
1,note_on,73,32,0
1,note_on,73,0,152
1,note_on,69,0,0
1,note_on,78,0,8
1,note_on,81,53,0
1,note_on,69,26,160
1,note_on,73,31,0
1,note_on,73,0,152
1,note_on,69,0,0
1,note_on,73,31,8
1,note_on,69,26,0
1,note_on,69,0,152
1,note_on,73,0,0
1,note_on,81,0,8
1,note_on,81,56,0
1,note_on,73,27,160
1,note_on,78,32,0
1,note_on,78,0,152
1,note_on,73,0,0
1,note_on,73,27,8
1,note_on,78,32,0
1,note_on,78,0,152
1,note_on,73,0,0
1,note_on,81,0,8
1,note_on,85,55,0
1,note_on,73,27,160
1,note_on,78,32,0
1,note_on,78,0,152
1,note_on,73,0,0
1,note_on,78,32,8
1,note_on,73,27,0
1,note_on,73,0,152
1,note_on,78,0,0
1,note_on,85,0,8
1,note_on,81,55,0
1,note_on,78,32,160
1,note_on,73,27,0
1,note_on,73,0,152
1,note_on,78,0,0
1,note_on,73,27,8
1,note_on,78,32,0
1,note_on,78,0,152
1,note_on,73,0,0
1,note_on,81,0,8
1,note_on,85,56,0
1,note_on,73,27,160
1,note_on,78,32,0
1,note_on,78,0,152
1,note_on,73,0,0
1,note_on,78,32,8
1,note_on,73,27,0
1,note_on,73,0,152
1,note_on,78,0,0
1,note_on,85,0,8
1,note_on,73,56,0
1,note_on,69,32,160
1,note_on,66,27,0
1,note_on,66,0,152
1,note_on,69,0,0
1,note_on,69,32,8
1,note_on,66,27,0
1,note_on,66,0,152
1,note_on,69,0,0
1,note_on,73,0,8
1,note_on,77,56,0
1,note_on,73,33,160
1,note_on,65,27,0
1,note_on,71,33,0
1,note_on,71,0,152
1,note_on,65,0,0
1,note_on,73,0,0
1,note_on,73,34,8
1,note_on,65,27,0
1,note_on,71,34,0
1,note_on,71,0,152
1,note_on,65,0,0
1,note_on,73,0,0
1,note_on,77,0,8
1,note_on,78,58,0
1,note_on,69,34,160
1,note_on,73,34,0
1,note_on,66,28,0
1,note_on,66,0,152
1,note_on,73,0,0
1,note_on,69,0,0
1,note_on,69,35,8
1,note_on,73,35,0
1,note_on,66,29,0
1,note_on,66,0,152
1,note_on,73,0,0
1,note_on,69,0,0
1,note_on,78,0,8
1,note_on,80,62,0
1,note_on,74,36,160
1,note_on,76,36,0
1,note_on,68,29,0
1,note_on,68,0,152
1,note_on,76,0,0
1,note_on,74,0,0
1,note_on,74,36,8
1,note_on,76,36,0
1,note_on,68,29,0
1,note_on,68,0,152
1,note_on,76,0,0
1,note_on,74,0,0
1,note_on,80,0,8
1,note_on,81,61,0
1,note_on,73,30,160
1,note_on,69,30,0
1,note_on,76,36,0
1,note_on,76,0,152
1,note_on,69,0,0
1,note_on,73,0,0
1,note_on,73,29,8
1,note_on,76,36,0
1,note_on,69,29,0
1,note_on,69,0,152
1,note_on,76,0,0
1,note_on,73,0,0
1,note_on,81,0,8
1,note_on,83,60,0
1,note_on,71,28,160
1,note_on,77,35,0
1,note_on,73,35,0
1,note_on,73,0,152
1,note_on,77,0,0
1,note_on,71,0,0
1,note_on,71,28,8
1,note_on,77,34,0
1,note_on,73,34,0
1,note_on,73,0,152
1,note_on,77,0,0
1,note_on,71,0,0
1,note_on,83,0,8
1,note_on,81,57,0
1,note_on,78,33,160
1,note_on,73,33,0
1,note_on,69,27,0
1,note_on,69,0,152
1,note_on,73,0,0
1,note_on,78,0,0
1,note_on,69,27,8
1,note_on,78,32,0
1,note_on,73,32,0
1,note_on,73,0,152
1,note_on,78,0,0
1,note_on,69,0,0
1,note_on,81,0,8
1,note_on,80,56,0
1,note_on,76,32,160
1,note_on,68,27,0
1,note_on,71,32,0
1,note_on,71,0,152
1,note_on,68,0,0
1,note_on,76,0,0
1,note_on,76,32,8
1,note_on,68,27,0
1,note_on,71,32,0
1,note_on,71,0,152
1,note_on,68,0,0
1,note_on,76,0,0
1,note_on,80,0,8
1,note_on,80,54,0
1,note_on,76,31,160
1,note_on,71,26,0
1,note_on,68,26,0
1,note_on,68,0,152
1,note_on,71,0,0
1,note_on,76,0,0
1,note_on,71,26,8
1,note_on,68,26,0
1,note_on,76,31,0
1,note_on,76,0,152
1,note_on,68,0,0
1,note_on,71,0,0
1,note_on,71,26,8
1,note_on,68,26,0
1,note_on,76,31,0
1,note_on,76,0,152
1,note_on,68,0,0
1,note_on,71,0,0
1,note_on,71,26,8
1,note_on,68,26,0
1,note_on,76,31,0
1,note_on,76,0,152
1,note_on,68,0,0
1,note_on,71,0,0
1,note_on,71,27,8
1,note_on,68,27,0
1,note_on,76,32,0
1,note_on,76,0,152
1,note_on,68,0,0
1,note_on,71,0,0
1,note_on,80,0,8
1,note_on,73,41,0
1,note_on,76,41,0
1,note_on,69,41,0
1,note_on,81,49,0
1,note_on,81,0,240
1,note_on,73,0,0
1,note_on,76,0,0
1,note_on,69,0,0
1,note_on,76,52,240
1,note_on,76,0,480
1,note_on,76,54,0
1,note_on,76,0,720
1,note_on,74,51,0
1,note_on,74,0,240
1,note_on,73,51,0
1,note_on,73,0,240
1,note_on,73,52,240
1,note_on,73,0,480
1,note_on,73,54,0
1,note_on,73,0,720
1,note_on,71,51,0
1,note_on,71,0,240
1,note_on,70,51,0
1,note_on,70,0,240
1,note_on,70,52,240
1,note_on,66,52,0
1,note_on,66,0,480
1,note_on,70,0,0
1,note_on,70,52,0
1,note_on,66,44,0
1,note_on,66,0,480
1,note_on,70,0,0
1,note_on,66,47,0
1,note_on,71,55,0
1,note_on,71,0,480
1,note_on,66,0,0
1,note_on,66,47,0
1,note_on,70,47,0
1,note_on,73,56,0
1,note_on,73,0,480
1,note_on,70,0,0
1,note_on,66,0,0
1,note_on,66,48,0
1,note_on,71,48,0
1,note_on,74,57,0
1,note_on,74,0,480
1,note_on,71,0,0
1,note_on,66,0,0
1,note_on,66,50,0
1,note_on,76,59,0
1,note_on,73,50,0
1,note_on,73,0,480
1,note_on,76,0,0
1,note_on,66,0,0
1,note_on,73,51,0
1,note_on,67,51,0
1,note_on,76,60,0
1,note_on,76,0,480
1,note_on,67,0,0
1,note_on,73,0,0
1,note_on,73,52,0
1,note_on,68,52,0
1,note_on,76,61,0
1,note_on,76,0,480
1,note_on,68,0,0
1,note_on,73,0,0
1,note_on,73,53,0
1,note_on,69,53,0
1,note_on,76,63,0
1,note_on,76,0,480
1,note_on,69,0,0
1,note_on,73,0,0
1,note_on,76,59,0
1,note_on,76,0,600
1,note_on,77,51,0
1,note_on,77,0,120
1,note_on,76,53,0
1,note_on,76,0,120
1,note_on,74,51,0
1,note_on,74,0,120
1,note_on,73,56,0
1,note_on,73,0,240
1,note_on,73,57,240
1,note_on,73,0,480
1,note_on,73,59,0
1,note_on,73,0,600
1,note_on,74,53,0
1,note_on,74,0,120
1,note_on,73,53,0
1,note_on,73,0,120
1,note_on,71,53,0
1,note_on,71,0,120
1,note_on,70,56,0
1,note_on,70,0,240
1,note_on,66,57,240
1,note_on,70,57,0
1,note_on,70,0,480
1,note_on,66,0,0
1,note_on,70,57,0
1,note_on,66,48,0
1,note_on,66,0,360
1,note_on,70,0,0
1,note_on,70,57,0
1,note_on,66,48,0
1,note_on,66,0,120
1,note_on,70,0,0
1,note_on,71,60,0
1,note_on,66,51,0
1,note_on,66,0,360
1,note_on,71,0,0
1,note_on,66,51,0
1,note_on,71,60,0
1,note_on,71,0,120
1,note_on,66,0,0
1,note_on,66,51,0
1,note_on,70,51,0
1,note_on,73,61,0
1,note_on,73,0,360
1,note_on,70,0,0
1,note_on,66,0,0
1,note_on,66,51,0
1,note_on,70,51,0
1,note_on,73,61,0
1,note_on,73,0,120
1,note_on,70,0,0
1,note_on,66,0,0
1,note_on,66,52,0
1,note_on,74,62,0
1,note_on,71,52,0
1,note_on,71,0,360
1,note_on,74,0,0
1,note_on,66,0,0
1,note_on,71,52,0
1,note_on,66,52,0
1,note_on,74,62,0
1,note_on,74,0,120
1,note_on,66,0,0
1,note_on,71,0,0
1,note_on,73,55,0
1,note_on,66,55,0
1,note_on,76,64,0
1,note_on,76,0,360
1,note_on,66,0,0
1,note_on,73,0,0
1,note_on,73,55,0
1,note_on,66,55,0
1,note_on,76,64,0
1,note_on,76,0,120
1,note_on,66,0,0
1,note_on,73,0,0
1,note_on,73,56,0
1,note_on,67,56,0
1,note_on,76,66,0
1,note_on,76,0,360
1,note_on,67,0,0
1,note_on,73,0,0
1,note_on,73,56,0
1,note_on,76,66,0
1,note_on,67,56,0
1,note_on,67,0,120
1,note_on,76,0,0
1,note_on,73,0,0
1,note_on,76,67,0
1,note_on,68,57,0
1,note_on,73,57,0
1,note_on,73,0,360
1,note_on,68,0,0
1,note_on,76,0,0
1,note_on,76,67,0
1,note_on,68,57,0
1,note_on,73,57,0
1,note_on,73,0,120
1,note_on,68,0,0
1,note_on,76,0,0
1,note_on,76,69,0
1,note_on,69,58,0
1,note_on,73,58,0
1,note_on,73,0,480
1,note_on,69,0,0
1,note_on,76,0,0
1,note_on,76,59,0
1,note_on,76,0,840
1,note_on,74,56,0
1,note_on,74,0,120
1,note_on,73,56,0
1,note_on,73,0,240
1,note_on,73,57,240
1,note_on,76,49,420
1,note_on,76,0,60
1,note_on,73,0,0
1,note_on,74,60,0
1,note_on,74,0,120
1,note_on,73,57,0
1,note_on,73,0,120
1,note_on,74,57,0
1,note_on,74,0,120
1,note_on,76,57,0
1,note_on,79,49,60
1,note_on,79,0,60
1,note_on,76,0,0
1,note_on,77,60,0
1,note_on,77,0,120
1,note_on,76,57,0
1,note_on,76,0,120
1,note_on,77,57,0
1,note_on,77,0,120
1,note_on,79,57,0
1,note_on,79,0,120
1,note_on,81,59,0
1,note_on,81,0,240
1,note_on,81,59,240
1,note_on,81,0,240
1,note_on,77,57,0
1,note_on,77,0,240
1,note_on,76,59,0
1,note_on,76,0,840
1,note_on,74,56,0
1,note_on,74,0,120
1,note_on,73,56,0
1,note_on,73,0,240
1,note_on,85,63,240
1,note_on,73,63,0
1,note_on,73,0,480
1,note_on,85,0,0
1,note_on,74,63,0
1,note_on,86,63,0
1,note_on,86,0,240
1,note_on,74,0,0
1,note_on,77,64,0
1,note_on,89,64,0
1,note_on,89,0,240
1,note_on,77,0,0
1,note_on,79,64,0
1,note_on,91,64,0
1,note_on,91,0,240
1,note_on,79,0,0
1,note_on,81,65,0
1,note_on,93,65,0
1,note_on,93,0,240
1,note_on,81,0,0
1,note_on,82,66,0
1,note_on,94,66,0
1,note_on,94,0,480
1,note_on,82,0,0
1,note_on,91,69,0
1,note_on,79,69,0
1,note_on,79,0,480
1,note_on,91,0,0
1,note_on,89,70,0
1,note_on,77,70,0
1,note_on,77,0,480
1,note_on,89,0,0
1,note_on,87,69,0
1,note_on,75,69,0
1,note_on,75,0,480
1,note_on,87,0,0
1,note_on,86,66,0
1,note_on,74,66,0
1,note_on,74,0,480
1,note_on,86,0,0
1,note_on,84,65,0
1,note_on,72,65,0
1,note_on,72,0,480
1,note_on,84,0,0
1,note_on,71,61,0
1,note_on,83,61,0
1,note_on,83,0,2160
1,note_on,71,0,0
1,note_on,71,51,0
1,note_on,71,0,228
1,note_on,71,51,12
1,note_on,71,0,228
1,note_on,71,51,12
1,note_on,71,0,228
1,note_on,71,50,12
1,note_on,71,0,228
1,note_on,71,50,12
1,note_on,71,0,228
1,note_on,71,50,12
1,note_on,71,0,228
1,note_on,71,50,12
1,note_on,71,0,228
1,note_on,72,53,12
1,note_on,72,0,840
1,note_on,74,47,0
1,note_on,74,0,120
1,note_on,72,52,0
1,note_on,72,0,240
1,note_on,77,49,240
1,note_on,77,0,60
1,note_on,79,43,0
1,note_on,79,0,60
1,note_on,77,44,0
1,note_on,77,0,60
1,note_on,79,44,0
1,note_on,79,0,60
1,note_on,77,44,0
1,note_on,77,0,60
1,note_on,79,46,0
1,note_on,79,0,60
1,note_on,76,51,0
1,note_on,76,0,60
1,note_on,77,44,0
1,note_on,77,0,60
1,note_on,81,58,0
1,note_on,69,46,0
1,note_on,69,0,840
1,note_on,81,0,0
1,note_on,67,40,0
1,note_on,79,51,0
1,note_on,79,0,120
1,note_on,67,0,0
1,note_on,65,43,0
1,note_on,77,53,0
1,note_on,77,0,240
1,note_on,65,0,0
1,note_on,74,54,240
1,note_on,74,0,480
1,note_on,72,58,0
1,note_on,72,0,840
1,note_on,74,53,0
1,note_on,74,0,120
1,note_on,72,60,0
1,note_on,72,0,240
1,note_on,89,53,240
1,note_on,89,0,60
1,note_on,91,47,0
1,note_on,91,0,60
1,note_on,89,48,0
1,note_on,89,0,60
1,note_on,91,48,0
1,note_on,91,0,60
1,note_on,89,48,0
1,note_on,89,0,60
1,note_on,91,50,0
1,note_on,91,0,60
1,note_on,88,55,0
1,note_on,88,0,60
1,note_on,89,48,0
1,note_on,89,0,60
1,note_on,93,69,0
1,note_on,81,63,0
1,note_on,81,0,840
1,note_on,93,0,0
1,note_on,79,62,0
1,note_on,91,62,0
1,note_on,91,0,120
1,note_on,79,0,0
1,note_on,77,67,0
1,note_on,89,67,0
1,note_on,89,0,240
1,note_on,77,0,0
1,note_on,74,48,240
1,note_on,77,48,0
1,note_on,82,69,0
1,note_on,86,69,0
1,note_on,86,0,480
1,note_on,74,0,0
1,note_on,77,0,0
1,note_on,82,0,0
1,note_on,72,58,0
1,note_on,77,58,0
1,note_on,81,69,0
1,note_on,84,69,0
1,note_on,84,0,480
1,note_on,72,0,0
1,note_on,77,0,0
1,note_on,81,0,0
1,note_on,74,61,0
1,note_on,77,61,0
1,note_on,82,72,0
1,note_on,86,72,0
1,note_on,86,0,480
1,note_on,74,0,0
1,note_on,77,0,0
1,note_on,82,0,0
1,note_on,77,62,0
1,note_on,81,62,0
1,note_on,84,74,0
1,note_on,89,74,0
1,note_on,89,0,480
1,note_on,77,0,0
1,note_on,81,0,0
1,note_on,84,0,0
1,note_on,79,66,0
1,note_on,84,66,0
1,note_on,88,78,0
1,note_on,91,78,0
1,note_on,91,0,480
1,note_on,79,0,0
1,note_on,84,0,0
1,note_on,88,0,0
1,note_on,79,63,0
1,note_on,84,63,0
1,note_on,88,75,0
1,note_on,91,75,0
1,note_on,91,0,960
1,note_on,79,0,0
1,note_on,84,0,0
1,note_on,88,0,0
1,note_on,88,63,0
1,note_on,88,0,160
1,note_on,84,54,0
1,note_on,84,0,160
1,note_on,79,54,0
1,note_on,79,0,160
1,note_on,76,54,0
1,note_on,76,0,160
1,note_on,79,52,0
1,note_on,79,0,160
1,note_on,84,51,0
1,note_on,84,0,160
1,note_on,77,53,0
1,note_on,77,0,160
1,note_on,84,49,0
1,note_on,84,0,160
1,note_on,81,49,0
1,note_on,81,0,80
1,note_on,77,53,80
1,note_on,77,0,80
1,note_on,72,48,80
1,note_on,72,0,80
1,note_on,69,46,80
1,note_on,69,0,80
1,note_on,65,51,80
1,note_on,65,0,80
1,note_on,69,46,80
1,note_on,69,0,80
1,note_on,72,46,80
1,note_on,72,0,80
1,note_on,69,53,80
1,note_on,69,0,80
1,note_on,72,50,80
1,note_on,72,0,80
1,note_on,77,50,80
1,note_on,77,0,80
1,note_on,77,53,80
1,note_on,77,0,160
1,note_on,86,49,0
1,note_on,86,0,160
1,note_on,82,49,0
1,note_on,82,0,80
1,note_on,77,53,80
1,note_on,77,0,80
1,note_on,74,48,80
1,note_on,74,0,80
1,note_on,70,46,80
1,note_on,70,0,80
1,note_on,65,51,80
1,note_on,65,0,80
1,note_on,70,46,80
1,note_on,70,0,80
1,note_on,74,46,80
1,note_on,74,0,80
1,note_on,70,53,80
1,note_on,70,0,80
1,note_on,74,50,80
1,note_on,74,0,80
1,note_on,77,50,80
1,note_on,77,0,80
1,note_on,77,53,80
1,note_on,77,0,160
1,note_on,89,49,0
1,note_on,89,0,160
1,note_on,84,49,0
1,note_on,84,0,80
1,note_on,81,53,80
1,note_on,81,0,80
1,note_on,77,48,80
1,note_on,77,0,80
1,note_on,72,46,80
1,note_on,72,0,80
1,note_on,69,51,80
1,note_on,69,0,80
1,note_on,65,46,80
1,note_on,65,0,80
1,note_on,60,46,80
1,note_on,60,0,80
1,note_on,65,53,80
1,note_on,65,0,80
1,note_on,69,50,80
1,note_on,69,0,80
1,note_on,72,50,80
1,note_on,72,0,80
1,note_on,72,51,80
1,note_on,72,0,160
1,note_on,77,47,0
1,note_on,77,0,160
1,note_on,77,47,0
1,note_on,77,0,80
1,note_on,74,51,80
1,note_on,74,0,160
1,note_on,79,48,0
1,note_on,79,0,160
1,note_on,79,48,0
1,note_on,79,0,80
1,note_on,72,51,80
1,note_on,72,0,160
1,note_on,77,47,0
1,note_on,77,0,160
1,note_on,77,47,0
1,note_on,77,0,80
1,note_on,72,51,80
1,note_on,72,0,160
1,note_on,76,47,0
1,note_on,76,0,160
1,note_on,76,47,0
1,note_on,76,0,80
1,note_on,72,51,80
1,note_on,72,0,160
1,note_on,75,47,0
1,note_on,75,0,160
1,note_on,75,47,0
1,note_on,75,0,80
1,note_on,72,52,80
1,note_on,72,0,160
1,note_on,74,50,0
1,note_on,74,0,160
1,note_on,74,50,0
1,note_on,74,0,80
1,note_on,66,46,80
1,note_on,69,54,0
1,note_on,69,0,160
1,note_on,66,0,0
1,note_on,75,50,0
1,note_on,75,0,160
1,note_on,75,51,0
1,note_on,75,0,80
1,note_on,66,47,80
1,note_on,69,56,0
1,note_on,69,0,160
1,note_on,66,0,0
1,note_on,74,52,0
1,note_on,74,0,160
1,note_on,74,53,0
1,note_on,74,0,80
1,note_on,65,49,80
1,note_on,70,58,0
1,note_on,70,0,160
1,note_on,65,0,0
1,note_on,75,54,0
1,note_on,75,0,160
1,note_on,75,54,0
1,note_on,75,0,80
1,note_on,65,49,80
1,note_on,70,58,0
1,note_on,70,0,160
1,note_on,65,0,0
1,note_on,74,54,0
1,note_on,74,0,160
1,note_on,74,54,0
1,note_on,74,0,80
1,note_on,65,48,80
1,note_on,69,57,0
1,note_on,69,0,160
1,note_on,65,0,0
1,note_on,72,53,0
1,note_on,72,0,160
1,note_on,72,52,0
1,note_on,72,0,80
1,note_on,64,48,80
1,note_on,67,57,0
1,note_on,67,0,160
1,note_on,64,0,0
1,note_on,72,52,0
1,note_on,72,0,160
1,note_on,72,52,0
1,note_on,72,0,80
1,note_on,65,41,80
1,note_on,69,41,0
1,note_on,72,49,0
1,note_on,72,0,480
1,note_on,69,0,0
1,note_on,65,0,0
1,note_on,77,49,480
1,note_on,69,40,0
1,note_on,72,40,0
1,note_on,72,0,240
1,note_on,69,0,0
1,note_on,77,0,0
1,note_on,72,40,240
1,note_on,75,40,0
1,note_on,77,49,0
1,note_on,77,0,240
1,note_on,75,0,0
1,note_on,72,0,0
1,note_on,70,45,240
1,note_on,74,45,0
1,note_on,77,53,0
1,note_on,77,0,480
1,note_on,74,0,0
1,note_on,70,0,0
1,note_on,70,40,480
1,note_on,74,40,0
1,note_on,77,49,0
1,note_on,77,0,240
1,note_on,74,0,0
1,note_on,70,0,0
1,note_on,74,40,240
1,note_on,77,49,0
1,note_on,77,0,240
1,note_on,74,0,0
1,note_on,69,45,240
1,note_on,72,45,0
1,note_on,77,53,0
1,note_on,77,0,480
1,note_on,72,0,0
1,note_on,69,0,0
1,note_on,72,44,480
1,note_on,77,44,0
1,note_on,81,53,0
1,note_on,81,0,240
1,note_on,77,0,0
1,note_on,72,0,0
1,note_on,72,44,240
1,note_on,81,44,0
1,note_on,84,53,0
1,note_on,84,0,240
1,note_on,81,0,0
1,note_on,72,0,0
1,note_on,84,56,240
1,note_on,84,0,160
1,note_on,89,51,0
1,note_on,89,0,160
1,note_on,89,51,0
1,note_on,89,0,80
1,note_on,86,56,80
1,note_on,86,0,160
1,note_on,91,52,0
1,note_on,91,0,160
1,note_on,91,52,0
1,note_on,91,0,80
1,note_on,84,56,80
1,note_on,84,0,160
1,note_on,89,51,0
1,note_on,89,0,160
1,note_on,89,51,0
1,note_on,89,0,80
1,note_on,84,56,80
1,note_on,84,0,160
1,note_on,88,51,0
1,note_on,88,0,160
1,note_on,88,51,0
1,note_on,88,0,80
1,note_on,84,56,80
1,note_on,84,0,160
1,note_on,87,51,0
1,note_on,87,0,160
1,note_on,87,51,0
1,note_on,87,0,80
1,note_on,84,57,80
1,note_on,84,0,160
1,note_on,86,55,0
1,note_on,86,0,160
1,note_on,86,55,0
1,note_on,86,0,80
1,note_on,78,58,80
1,note_on,81,58,0
1,note_on,81,0,160
1,note_on,78,0,0
1,note_on,87,53,0
1,note_on,87,0,160
1,note_on,87,53,0
1,note_on,87,0,80
1,note_on,78,48,80
1,note_on,81,57,0
1,note_on,81,0,160
1,note_on,78,0,0
1,note_on,86,54,0
1,note_on,86,0,160
1,note_on,86,54,0
1,note_on,86,0,80
1,note_on,77,48,80
1,note_on,82,57,0
1,note_on,82,0,160
1,note_on,77,0,0
1,note_on,87,52,0
1,note_on,87,0,160
1,note_on,87,52,0
1,note_on,87,0,80
1,note_on,77,48,80
1,note_on,82,57,0
1,note_on,82,0,160
1,note_on,77,0,0
1,note_on,86,53,0
1,note_on,86,0,160
1,note_on,86,52,0
1,note_on,86,0,80
1,note_on,77,48,80
1,note_on,81,57,0
1,note_on,81,0,160
1,note_on,77,0,0
1,note_on,84,53,0
1,note_on,84,0,160
1,note_on,84,49,0
1,note_on,84,0,80
1,note_on,76,45,80
1,note_on,79,54,0
1,note_on,79,0,160
1,note_on,76,0,0
1,note_on,84,48,0
1,note_on,84,0,160
1,note_on,84,48,0
1,note_on,84,0,80
1,note_on,70,45,80
1,note_on,70,0,160
1,note_on,73,42,0
1,note_on,73,0,160
1,note_on,73,42,0
1,note_on,73,0,80
1,note_on,70,46,80
1,note_on,70,0,160
1,note_on,72,45,0
1,note_on,72,0,160
1,note_on,72,45,0
1,note_on,72,0,80
1,note_on,64,41,80
1,note_on,67,48,0
1,note_on,67,0,160
1,note_on,64,0,0
1,note_on,73,45,0
1,note_on,73,0,160
1,note_on,73,45,0
1,note_on,73,0,80
1,note_on,64,42,80
1,note_on,67,50,0
1,note_on,67,0,160
1,note_on,64,0,0
1,note_on,72,46,0
1,note_on,72,0,160
1,note_on,72,47,0
1,note_on,72,0,80
1,note_on,63,44,80
1,note_on,68,52,0
1,note_on,68,0,160
1,note_on,63,0,0
1,note_on,73,48,0
1,note_on,73,0,160
1,note_on,73,48,0
1,note_on,73,0,80
1,note_on,63,44,80
1,note_on,68,52,0
1,note_on,68,0,160
1,note_on,63,0,0
1,note_on,72,48,0
1,note_on,72,0,160
1,note_on,72,48,0
1,note_on,72,0,80
1,note_on,63,43,80
1,note_on,67,51,0
1,note_on,67,0,160
1,note_on,63,0,0
1,note_on,70,47,0
1,note_on,70,0,160
1,note_on,70,46,0
1,note_on,70,0,80
1,note_on,62,43,80
1,note_on,65,51,0
1,note_on,65,0,160
1,note_on,62,0,0
1,note_on,70,46,0
1,note_on,70,0,160
1,note_on,70,46,0
1,note_on,70,0,80
1,note_on,73,41,1040
1,note_on,78,48,0
1,note_on,78,0,160
1,note_on,73,0,0
1,note_on,82,45,0
1,note_on,82,0,160
1,note_on,82,45,0
1,note_on,82,0,80
1,note_on,73,41,80
1,note_on,78,49,0
1,note_on,78,0,160
1,note_on,73,0,0
1,note_on,81,44,0
1,note_on,81,0,160
1,note_on,81,44,0
1,note_on,81,0,80
1,note_on,73,42,80
1,note_on,77,50,0
1,note_on,77,0,160
1,note_on,73,0,0
1,note_on,80,46,0
1,note_on,80,0,160
1,note_on,80,46,0
1,note_on,80,0,80
1,note_on,72,40,80
1,note_on,75,48,0
1,note_on,75,0,160
1,note_on,72,0,0
1,note_on,80,44,0
1,note_on,80,0,160
1,note_on,80,44,0
1,note_on,80,0,80
1,note_on,61,37,560
1,note_on,64,44,0
1,note_on,64,0,160
1,note_on,61,0,0
1,note_on,68,39,0
1,note_on,68,0,160
1,note_on,68,39,0
1,note_on,68,0,80
1,note_on,60,38,80
1,note_on,63,45,0
1,note_on,63,0,160
1,note_on,60,0,0
1,note_on,68,41,0
1,note_on,68,0,160
1,note_on,68,41,0
1,note_on,68,0,80
1,note_on,60,33,560
1,note_on,63,39,0
1,note_on,63,0,160
1,note_on,60,0,0
1,note_on,66,35,0
1,note_on,66,0,160
1,note_on,66,35,0
1,note_on,66,0,80
1,note_on,60,34,80
1,note_on,63,40,0
1,note_on,63,0,160
1,note_on,60,0,0
1,note_on,65,36,0
1,note_on,65,0,160
1,note_on,65,36,0
1,note_on,65,0,80
1,note_on,72,40,560
1,note_on,75,40,0
1,note_on,75,0,160
1,note_on,72,0,0
1,note_on,77,36,0
1,note_on,77,0,160
1,note_on,77,36,0
1,note_on,77,0,80
1,note_on,70,45,80
1,note_on,75,45,0
1,note_on,75,0,160
1,note_on,70,0,0
1,note_on,79,37,0
1,note_on,79,0,160
1,note_on,79,37,0
1,note_on,79,0,80
1,note_on,70,45,80
1,note_on,74,45,0
1,note_on,74,0,160
1,note_on,70,0,0
1,note_on,77,39,0
1,note_on,77,0,160
1,note_on,77,39,0
1,note_on,77,0,80
1,note_on,58,39,80
1,note_on,62,47,0
1,note_on,62,0,160
1,note_on,58,0,0
1,note_on,65,40,0
1,note_on,65,0,160
1,note_on,65,40,0
1,note_on,65,0,80
1,note_on,57,43,80
1,note_on,60,51,0
1,note_on,60,0,160
1,note_on,57,0,0
1,note_on,65,46,0
1,note_on,65,0,160
1,note_on,65,46,0
1,note_on,65,0,80
1,note_on,60,49,80
1,note_on,65,58,0
1,note_on,65,0,160
1,note_on,60,0,0
1,note_on,72,50,0
1,note_on,72,0,160
1,note_on,72,50,0
1,note_on,72,0,80
1,note_on,60,50,80
1,note_on,64,60,0
1,note_on,64,0,160
1,note_on,60,0,0
1,note_on,72,53,0
1,note_on,72,0,160
1,note_on,72,53,0
1,note_on,72,0,80
1,note_on,57,58,80
1,note_on,60,58,0
1,note_on,65,58,0
1,note_on,65,0,120
1,note_on,60,0,0
1,note_on,57,0,0
1,note_on,60,47,40
1,note_on,60,0,160
1,note_on,57,47,0
1,note_on,57,0,160
1,note_on,60,47,0
1,note_on,60,0,160
1,note_on,65,51,0
1,note_on,65,0,160
1,note_on,69,55,0
1,note_on,69,0,160
1,note_on,72,68,0
1,note_on,62,48,480
1,note_on,62,0,240
1,note_on,72,0,0
1,note_on,64,45,0
1,note_on,70,54,0
1,note_on,70,0,240
1,note_on,64,0,0
1,note_on,60,47,0
1,note_on,65,47,0
1,note_on,69,56,0
1,note_on,69,0,480
1,note_on,65,0,0
1,note_on,60,0,0
1,note_on,61,52,0
1,note_on,67,52,0
1,note_on,69,62,0
1,note_on,69,0,480
1,note_on,67,0,0
1,note_on,61,0,0
1,note_on,62,54,0
1,note_on,60,54,0
1,note_on,66,54,0
1,note_on,69,64,0
1,note_on,69,0,480
1,note_on,62,0,0
1,note_on,60,0,0
1,note_on,66,0,0
1,note_on,70,65,0
1,note_on,58,55,0
1,note_on,62,55,0
1,note_on,67,55,0
1,note_on,70,0,360
1,note_on,69,55,0
1,note_on,69,0,120
1,note_on,67,0,0
1,note_on,62,0,0
1,note_on,58,0,0
1,note_on,60,44,0
1,note_on,64,44,0
1,note_on,67,52,0
1,note_on,67,0,720
1,note_on,68,47,0
1,note_on,68,0,240
1,note_on,64,0,0
1,note_on,65,43,0
1,note_on,69,51,0
1,note_on,69,0,120
1,note_on,65,0,0
1,note_on,60,0,0
1,note_on,60,39,360
1,note_on,65,39,0
1,note_on,69,46,0
1,note_on,69,0,120
1,note_on,65,0,0
1,note_on,60,0,0
1,note_on,48,47,520
1,note_on,48,0,160
1,note_on,45,47,0
1,note_on,45,0,160
1,note_on,48,47,0
1,note_on,48,0,160
1,note_on,53,51,0
1,note_on,53,0,160
1,note_on,57,55,0
1,note_on,57,0,160
1,note_on,60,65,0
1,note_on,48,46,240
1,note_on,50,48,240
1,note_on,50,0,240
1,note_on,48,0,0
1,note_on,60,0,0
1,note_on,48,45,0
1,note_on,52,45,0
1,note_on,58,54,0
1,note_on,58,0,240
1,note_on,52,0,0
1,note_on,48,0,0
1,note_on,48,47,0
1,note_on,53,47,0
1,note_on,57,56,0
1,note_on,57,0,480
1,note_on,53,0,0
1,note_on,48,0,0
1,note_on,49,52,0
1,note_on,55,52,0
1,note_on,57,62,0
1,note_on,57,0,480
1,note_on,55,0,0
1,note_on,49,0,0
1,note_on,50,54,0
1,note_on,48,54,0
1,note_on,54,54,0
1,note_on,57,64,0
1,note_on,57,0,480
1,note_on,50,0,0
1,note_on,48,0,0
1,note_on,54,0,0
1,note_on,58,71,0
1,note_on,46,60,0
1,note_on,50,60,0
1,note_on,55,60,0
1,note_on,55,0,240
1,note_on,58,0,0
1,note_on,46,0,0
1,note_on,50,0,0
1,note_on,62,62,720
1,note_on,68,62,0
1,note_on,70,74,0
1,note_on,70,0,480
1,note_on,68,0,0
1,note_on,62,0,0
1,note_on,63,64,0
1,note_on,61,64,0
1,note_on,67,64,0
1,note_on,70,77,0
1,note_on,70,0,480
1,note_on,63,0,0
1,note_on,61,0,0
1,note_on,67,0,0
1,note_on,71,85,0
1,note_on,59,72,0
1,note_on,63,72,0
1,note_on,68,72,0
1,note_on,68,0,240
1,note_on,71,0,0
1,note_on,59,0,0
1,note_on,63,0,0
1,note_on,74,82,720
1,note_on,76,82,0
1,note_on,83,99,0
1,note_on,80,99,0
1,note_on,80,0,480
1,note_on,74,0,0
1,note_on,76,0,0
1,note_on,83,0,0
1,note_on,72,88,0
1,note_on,76,88,0
1,note_on,81,103,0
1,note_on,84,103,0
1,note_on,84,0,240
1,note_on,72,0,0
1,note_on,76,0,0
1,note_on,81,0,0
1,note_on,77,52,720
1,note_on,81,52,0
1,note_on,84,62,0
1,note_on,84,0,720
1,note_on,85,56,0
1,note_on,85,0,240
1,note_on,81,0,0
1,note_on,82,51,0
1,note_on,86,61,0
1,note_on,86,0,120
1,note_on,82,0,0
1,note_on,77,0,0
1,note_on,77,46,360
1,note_on,82,46,0
1,note_on,86,55,0
1,note_on,86,0,120
1,note_on,82,0,0
1,note_on,77,0,0
1,note_on,77,51,360
1,note_on,86,61,0
1,note_on,89,61,0
1,note_on,89,0,1440
1,note_on,86,0,0
1,note_on,77,0,0
1,note_on,77,54,480
1,note_on,77,0,1200
1,note_on,74,45,0
1,note_on,74,0,240
1,note_on,70,50,0
1,note_on,70,0,240
1,note_on,69,45,0
1,note_on,69,0,240
1,note_on,60,34,0
1,note_on,64,34,0
1,note_on,69,49,0
1,note_on,69,0,480
1,note_on,67,44,0
1,note_on,67,0,360
1,note_on,68,44,0
1,note_on,68,0,120
1,note_on,64,0,0
1,note_on,65,40,0
1,note_on,69,48,0
1,note_on,69,0,120
1,note_on,65,0,0
1,note_on,60,0,0
1,note_on,60,30,360
1,note_on,65,36,0
1,note_on,69,44,0
1,note_on,69,0,120
1,note_on,65,0,0
1,note_on,60,0,0
1,note_on,69,48,360
1,note_on,72,48,0
1,note_on,72,0,1440
1,note_on,69,0,0
1,note_on,77,52,480
1,note_on,81,52,0
1,note_on,84,62,0
1,note_on,84,0,720
1,note_on,85,56,0
1,note_on,85,0,240
1,note_on,81,0,0
1,note_on,82,51,0
1,note_on,86,61,0
1,note_on,86,0,120
1,note_on,82,0,0
1,note_on,77,0,0
1,note_on,77,55,360
1,note_on,82,55,0
1,note_on,86,66,0
1,note_on,86,0,120
1,note_on,82,0,0
1,note_on,77,0,0
1,note_on,70,80,360
1,note_on,70,0,60
1,note_on,74,79,0
1,note_on,74,0,60
1,note_on,77,77,0
1,note_on,77,0,60
1,note_on,82,74,0
1,note_on,82,0,60
1,note_on,86,71,0
1,note_on,86,0,60
1,note_on,89,68,0
1,note_on,89,0,60
1,note_on,94,65,0
1,note_on,94,0,60
1,note_on,98,61,0
1,note_on,98,0,60
1,note_on,101,58,0
1,note_on,101,0,60
1,note_on,77,62,1380
1,note_on,77,0,1680
1,note_on,76,50,0
1,note_on,76,0,240
1,note_on,76,53,0
1,note_on,76,0,480
1,note_on,74,51,0
1,note_on,74,0,360
1,note_on,72,47,0
1,note_on,72,0,120
1,note_on,72,51,0
1,note_on,72,0,480
1,note_on,70,48,0
1,note_on,70,0,360
1,note_on,69,41,0
1,note_on,69,0,120
1,note_on,60,30,0
1,note_on,64,30,0
1,note_on,69,44,0
1,note_on,69,0,480
1,note_on,67,39,0
1,note_on,67,0,360
1,note_on,68,39,0
1,note_on,68,0,120
1,note_on,64,0,0
1,note_on,65,36,0
1,note_on,69,43,0
1,note_on,69,0,120
1,note_on,65,0,0
1,note_on,60,0,0
1,note_on,60,27,360
1,note_on,65,32,0
1,note_on,69,39,0
1,note_on,69,0,120
1,note_on,65,0,0
1,note_on,60,0,0
1,note_on,69,43,360
1,note_on,72,43,0
1,note_on,72,0,1440
1,note_on,69,0,0
1,note_on,65,48,1440
1,note_on,65,0,120
1,note_on,66,53,0
1,note_on,66,0,120
1,note_on,63,48,240
1,note_on,63,0,120
1,note_on,66,52,0
1,note_on,66,0,120
1,note_on,72,36,240
1,note_on,81,43,0
1,note_on,81,0,120
1,note_on,72,0,0
1,note_on,72,32,360
1,note_on,81,39,0
1,note_on,81,0,120
1,note_on,72,0,0
1,note_on,81,43,360
1,note_on,84,43,0
1,note_on,84,0,960
1,note_on,81,0,0
1,note_on,53,42,960
1,note_on,53,0,120
1,note_on,54,48,0
1,note_on,54,0,120
1,note_on,51,41,240
1,note_on,51,0,120
1,note_on,54,48,0
1,note_on,54,0,120
1,note_on,60,32,240
1,note_on,69,38,0
1,note_on,69,0,120
1,note_on,60,0,0
1,note_on,60,28,360
1,note_on,69,35,0
1,note_on,69,0,120
1,note_on,60,0,0
1,note_on,69,38,360
1,note_on,72,38,0
1,note_on,72,0,960
1,note_on,69,0,0
1,note_on,63,54,480
1,note_on,63,0,120
1,note_on,66,61,0
1,note_on,66,0,120
1,note_on,63,55,720
1,note_on,63,0,120
1,note_on,66,62,0
1,note_on,66,0,120
1,note_on,63,77,720
1,note_on,63,0,120
1,note_on,66,83,0
1,note_on,66,0,120
1,note_on,59,81,240
1,note_on,59,0,120
1,note_on,66,88,0
1,note_on,66,0,120
1,note_on,58,88,240
1,note_on,58,0,120
1,note_on,66,94,0
1,note_on,66,0,120
1,note_on,57,95,240
1,note_on,57,0,120
1,note_on,65,103,0
1,note_on,65,0,120
1,note_on,65,85,240
1,note_on,72,85,0
1,note_on,75,101,0
1,note_on,77,101,0
1,note_on,77,0,80
1,note_on,65,0,0
1,note_on,72,0,0
1,note_on,75,0,0
1,note_on,65,85,80
1,note_on,72,85,0
1,note_on,75,101,0
1,note_on,77,101,0
1,note_on,77,0,80
1,note_on,65,0,0
1,note_on,72,0,0
1,note_on,75,0,0
1,note_on,65,85,80
1,note_on,72,85,0
1,note_on,75,101,0
1,note_on,77,101,0
1,note_on,77,0,80
1,note_on,65,0,0
1,note_on,72,0,0
1,note_on,75,0,0
1,note_on,77,94,80
1,note_on,84,94,0
1,note_on,87,112,0
1,note_on,89,112,0
1,note_on,89,0,120
1,note_on,77,0,0
1,note_on,84,0,0
1,note_on,87,0,0
1,note_on,58,36,4200
1,note_on,65,40,0
1,note_on,70,48,0
1,note_on,70,0,480
1,note_on,65,0,0
1,note_on,58,0,0
1,note_on,58,37,0
1,note_on,65,42,0
1,note_on,70,50,0
1,note_on,70,0,480
1,note_on,65,0,0
1,note_on,58,0,0
1,note_on,57,31,0
1,note_on,65,40,0
1,note_on,69,48,0
1,note_on,69,0,480
1,note_on,65,0,0
1,note_on,57,0,0
1,note_on,58,37,0
1,note_on,65,42,0
1,note_on,70,50,0
1,note_on,70,0,480
1,note_on,65,0,0
1,note_on,58,0,0
1,note_on,60,36,0
1,note_on,65,40,0
1,note_on,72,48,0
1,note_on,72,0,480
1,note_on,65,0,0
1,note_on,60,0,0
1,note_on,62,40,0
1,note_on,65,45,0
1,note_on,74,53,0
1,note_on,74,0,1440
1,note_on,65,0,0
1,note_on,62,0,0
1,note_on,60,37,0
1,note_on,65,42,0
1,note_on,72,50,0
1,note_on,72,0,240
1,note_on,65,0,0
1,note_on,60,0,0
1,note_on,58,35,0
1,note_on,65,39,0
1,note_on,70,46,0
1,note_on,70,0,240
1,note_on,65,0,0
1,note_on,58,0,0
1,note_on,60,35,0
1,note_on,65,39,0
1,note_on,72,47,0
1,note_on,72,0,475
1,note_on,65,0,0
1,note_on,60,0,0
1,note_on,60,34,5
1,note_on,65,38,0
1,note_on,72,46,0
1,note_on,72,0,475
1,note_on,65,0,0
1,note_on,60,0,0
1,note_on,60,34,5
1,note_on,65,38,0
1,note_on,72,46,0
1,note_on,72,0,475
1,note_on,65,0,0
1,note_on,60,0,0
1,note_on,58,37,5
1,note_on,65,42,0
1,note_on,70,50,0
1,note_on,70,0,240
1,note_on,65,0,0
1,note_on,58,0,0
1,note_on,57,30,0
1,note_on,65,38,0
1,note_on,69,45,0
1,note_on,69,0,240
1,note_on,65,0,0
1,note_on,57,0,0
1,note_on,65,52,0
1,note_on,58,37,0
1,note_on,70,52,0
1,note_on,65,0,480
1,note_on,63,42,0
1,note_on,67,50,0
1,note_on,67,0,480
1,note_on,63,0,0
1,note_on,62,36,0
1,note_on,65,44,0
1,note_on,65,0,480
1,note_on,58,0,0
1,note_on,70,0,0
1,note_on,62,0,0
1,note_on,70,61,0
1,note_on,70,0,480
1,note_on,63,45,0
1,note_on,70,51,0
1,note_on,75,60,0
1,note_on,75,0,1440
1,note_on,70,0,0
1,note_on,63,0,0
1,note_on,62,41,0
1,note_on,70,46,0
1,note_on,74,55,0
1,note_on,74,0,240
1,note_on,70,0,0
1,note_on,62,0,0
1,note_on,60,37,0
1,note_on,70,42,0
1,note_on,72,50,0
1,note_on,72,0,240
1,note_on,70,0,0
1,note_on,60,0,0
1,note_on,62,45,0
1,note_on,70,45,0
1,note_on,74,53,0
1,note_on,74,0,480
1,note_on,70,0,0
1,note_on,62,0,0
1,note_on,57,37,0
1,note_on,65,42,0
1,note_on,69,50,0
1,note_on,69,0,480
1,note_on,65,0,0
1,note_on,57,0,0
1,note_on,58,39,0
1,note_on,65,44,0
1,note_on,70,52,0
1,note_on,70,0,480
1,note_on,65,0,0
1,note_on,58,0,0
1,note_on,60,37,0
1,note_on,65,42,0
1,note_on,72,50,0
1,note_on,72,0,480
1,note_on,65,0,0
1,note_on,60,0,0
1,note_on,58,39,0
1,note_on,65,44,0
1,note_on,70,52,0
1,note_on,70,0,480
1,note_on,65,0,0
1,note_on,58,0,0
1,note_on,65,44,0
1,note_on,62,39,0
1,note_on,70,44,0
1,note_on,74,52,0
1,note_on,74,0,480
1,note_on,65,0,0
1,note_on,62,0,0
1,note_on,70,0,0
1,note_on,60,37,0
1,note_on,65,42,0
1,note_on,69,42,0
1,note_on,72,50,0
1,note_on,72,0,3120
1,note_on,60,0,0
1,note_on,65,0,0
1,note_on,69,0,0
1,note_on,58,36,1200
1,note_on,65,40,0
1,note_on,70,48,0
1,note_on,70,0,480
1,note_on,65,0,0
1,note_on,58,0,0
1,note_on,58,37,0
1,note_on,65,42,0
1,note_on,70,50,0
1,note_on,70,0,480
1,note_on,65,0,0
1,note_on,58,0,0
1,note_on,57,31,0
1,note_on,65,40,0
1,note_on,69,48,0
1,note_on,69,0,480
1,note_on,65,0,0
1,note_on,57,0,0
1,note_on,58,37,0
1,note_on,65,42,0
1,note_on,70,50,0
1,note_on,70,0,480
1,note_on,65,0,0
1,note_on,58,0,0
1,note_on,60,36,0
1,note_on,65,40,0
1,note_on,72,48,0
1,note_on,72,0,480
1,note_on,65,0,0
1,note_on,60,0,0
1,note_on,62,40,0
1,note_on,65,45,0
1,note_on,74,53,0
1,note_on,74,0,1440
1,note_on,65,0,0
1,note_on,62,0,0
1,note_on,60,37,0
1,note_on,65,42,0
1,note_on,72,50,0
1,note_on,72,0,240
1,note_on,65,0,0
1,note_on,60,0,0
1,note_on,58,35,0
1,note_on,65,39,0
1,note_on,70,46,0
1,note_on,70,0,240
1,note_on,65,0,0
1,note_on,58,0,0
1,note_on,60,35,0
1,note_on,65,39,0
1,note_on,72,47,0
1,note_on,72,0,475
1,note_on,65,0,0
1,note_on,60,0,0
1,note_on,60,34,5
1,note_on,65,38,0
1,note_on,72,46,0
1,note_on,72,0,475
1,note_on,65,0,0
1,note_on,60,0,0
1,note_on,60,34,5
1,note_on,65,38,0
1,note_on,72,46,0
1,note_on,72,0,475
1,note_on,65,0,0
1,note_on,60,0,0
1,note_on,58,37,5
1,note_on,65,42,0
1,note_on,70,50,0
1,note_on,70,0,240
1,note_on,65,0,0
1,note_on,58,0,0
1,note_on,57,30,0
1,note_on,65,38,0
1,note_on,69,45,0
1,note_on,69,0,240
1,note_on,65,0,0
1,note_on,57,0,0
1,note_on,65,52,0
1,note_on,58,37,0
1,note_on,70,52,0
1,note_on,65,0,480
1,note_on,63,42,0
1,note_on,67,50,0
1,note_on,67,0,480
1,note_on,63,0,0
1,note_on,62,36,0
1,note_on,65,44,0
1,note_on,65,0,480
1,note_on,58,0,0
1,note_on,70,0,0
1,note_on,62,0,0
1,note_on,62,45,0
1,note_on,65,51,0
1,note_on,74,61,0
1,note_on,74,0,480
1,note_on,65,0,0
1,note_on,62,0,0
1,note_on,62,45,0
1,note_on,67,51,0
1,note_on,74,60,0
1,note_on,74,0,1440
1,note_on,67,0,0
1,note_on,62,0,0
1,note_on,60,41,0
1,note_on,67,46,0
1,note_on,72,55,0
1,note_on,72,0,240
1,note_on,67,0,0
1,note_on,60,0,0
1,note_on,59,37,0
1,note_on,67,42,0
1,note_on,71,50,0
1,note_on,71,0,240
1,note_on,67,0,0
1,note_on,59,0,0
1,note_on,63,53,0
1,note_on,67,54,0
1,note_on,75,65,0
1,note_on,75,0,480
1,note_on,67,0,0
1,note_on,63,0,0
1,note_on,62,50,0
1,note_on,67,50,0
1,note_on,74,59,0
1,note_on,74,0,480
1,note_on,67,0,0
1,note_on,62,0,0
1,note_on,60,48,0
1,note_on,67,48,0
1,note_on,72,57,0
1,note_on,72,0,480
1,note_on,67,0,0
1,note_on,60,0,0
1,note_on,60,45,0
1,note_on,69,51,0
1,note_on,72,61,0
1,note_on,72,0,480
1,note_on,69,0,0
1,note_on,60,0,0
1,note_on,65,45,0
1,note_on,60,45,0
1,note_on,69,51,0
1,note_on,72,60,0
1,note_on,72,0,1440
1,note_on,65,0,0
1,note_on,60,0,0
1,note_on,69,0,0
1,note_on,58,41,0
1,note_on,65,46,0
1,note_on,70,55,0
1,note_on,70,0,240
1,note_on,65,0,0
1,note_on,58,0,0
1,note_on,57,37,0
1,note_on,65,42,0
1,note_on,69,50,0
1,note_on,69,0,240
1,note_on,65,0,0
1,note_on,57,0,0
1,note_on,62,51,0
1,note_on,65,55,0
1,note_on,74,65,0
1,note_on,74,0,480
1,note_on,65,0,0
1,note_on,62,0,0
1,note_on,57,47,0
1,note_on,65,47,0
1,note_on,69,56,0
1,note_on,69,0,480
1,note_on,65,0,0
1,note_on,57,0,0
1,note_on,58,50,0
1,note_on,65,50,0
1,note_on,70,59,0
1,note_on,70,0,480
1,note_on,65,0,0
1,note_on,58,0,0
1,note_on,65,45,0
1,note_on,60,40,0
1,note_on,69,45,0
1,note_on,72,54,0
1,note_on,72,0,480
1,note_on,65,0,0
1,note_on,60,0,0
1,note_on,69,0,0
1,note_on,65,40,0
1,note_on,60,40,0
1,note_on,69,45,0
1,note_on,72,54,0
1,note_on,72,0,960
1,note_on,69,0,0
1,note_on,60,0,0
1,note_on,58,48,0
1,note_on,70,48,0
1,note_on,70,0,240
1,note_on,58,0,0
1,note_on,65,0,0
1,note_on,70,51,2160
1,note_on,70,0,480
1,note_on,70,52,0
1,note_on,70,0,480
1,note_on,68,51,0
1,note_on,68,0,480
1,note_on,70,52,0
1,note_on,70,0,480
1,note_on,71,50,0
1,note_on,71,0,480
1,note_on,73,52,0
1,note_on,73,0,1440
1,note_on,71,55,0
1,note_on,71,0,240
1,note_on,70,52,0
1,note_on,70,0,240
1,note_on,75,58,0
1,note_on,75,0,240
1,note_on,75,54,240
1,note_on,75,0,240
1,note_on,75,54,240
1,note_on,75,0,240
1,note_on,77,56,240
1,note_on,77,0,240
1,note_on,78,51,0
1,note_on,78,0,240
1,note_on,73,54,0
1,note_on,73,0,1440
1,note_on,71,52,0
1,note_on,71,0,240
1,note_on,70,51,0
1,note_on,70,0,240
1,note_on,71,52,0
1,note_on,71,0,480
1,note_on,75,52,0
1,note_on,75,0,480
1,note_on,68,52,0
1,note_on,68,0,480
1,note_on,71,52,0
1,note_on,71,0,480
1,note_on,70,54,0
1,note_on,70,0,480
1,note_on,66,51,0
1,note_on,78,61,0
1,note_on,78,0,720
1,note_on,66,0,0
1,note_on,65,45,0
1,note_on,77,53,0
1,note_on,77,0,240
1,note_on,65,0,0
1,note_on,63,47,0
1,note_on,75,56,0
1,note_on,75,0,240
1,note_on,63,0,0
1,note_on,61,43,0
1,note_on,73,51,0
1,note_on,73,0,240
1,note_on,61,0,0
1,note_on,59,46,0
1,note_on,71,54,0
1,note_on,71,0,480
1,note_on,59,0,0
1,note_on,75,56,0
1,note_on,75,0,480
1,note_on,68,54,0
1,note_on,68,0,480
1,note_on,70,52,0
1,note_on,70,0,240
1,note_on,71,52,0
1,note_on,71,0,240
1,note_on,70,55,0
1,note_on,70,0,240
1,note_on,73,52,0
1,note_on,73,0,240
1,note_on,82,56,0
1,note_on,82,0,240
1,note_on,78,52,0
1,note_on,78,0,240
1,note_on,73,56,0
1,note_on,73,0,240
1,note_on,70,52,0
1,note_on,70,0,240
1,note_on,78,55,0
1,note_on,78,0,240
1,note_on,74,52,0
1,note_on,74,0,240
1,note_on,75,55,0
1,note_on,75,0,240
1,note_on,71,52,0
1,note_on,71,0,240
1,note_on,83,56,0
1,note_on,83,0,240
1,note_on,80,54,0
1,note_on,80,0,240
1,note_on,77,58,0
1,note_on,77,0,240
1,note_on,80,56,0
1,note_on,80,0,240
1,note_on,85,58,0
1,note_on,85,0,240
1,note_on,81,54,0
1,note_on,81,0,240
1,note_on,82,57,0
1,note_on,82,0,240
1,note_on,78,54,0
1,note_on,78,0,240
1,note_on,82,57,0
1,note_on,82,0,120
1,note_on,78,51,0
1,note_on,78,0,120
1,note_on,82,56,0
1,note_on,82,0,120
1,note_on,78,50,0
1,note_on,78,0,120
1,note_on,73,56,0
1,note_on,73,0,120
1,note_on,70,52,0
1,note_on,70,0,120
1,note_on,73,56,0
1,note_on,73,0,120
1,note_on,70,53,0
1,note_on,70,0,120
1,note_on,78,58,0
1,note_on,78,0,120
1,note_on,74,53,0
1,note_on,74,0,120
1,note_on,78,57,0
1,note_on,78,0,120
1,note_on,74,52,0
1,note_on,74,0,120
1,note_on,75,57,0
1,note_on,75,0,120
1,note_on,71,52,0
1,note_on,71,0,120
1,note_on,75,54,0
1,note_on,75,0,120
1,note_on,71,52,0
1,note_on,71,0,120
1,note_on,83,57,0
1,note_on,83,0,120
1,note_on,80,51,0
1,note_on,80,0,120
1,note_on,83,56,0
1,note_on,83,0,120
1,note_on,80,50,0
1,note_on,80,0,120
1,note_on,77,56,0
1,note_on,77,0,120
1,note_on,80,52,0
1,note_on,80,0,120
1,note_on,77,56,0
1,note_on,77,0,120
1,note_on,80,53,0
1,note_on,80,0,120
1,note_on,85,58,0
1,note_on,85,0,120
1,note_on,81,53,0
1,note_on,81,0,120
1,note_on,85,57,0
1,note_on,85,0,120
1,note_on,81,52,0
1,note_on,81,0,120
1,note_on,82,57,0
1,note_on,82,0,120
1,note_on,81,53,0
1,note_on,81,0,120
1,note_on,82,52,0
1,note_on,82,0,120
1,note_on,77,52,0
1,note_on,77,0,120
1,note_on,78,57,0
1,note_on,78,0,120
1,note_on,77,51,0
1,note_on,77,0,120
1,note_on,78,51,0
1,note_on,78,0,120
1,note_on,72,50,0
1,note_on,72,0,120
1,note_on,73,55,0
1,note_on,73,0,120
1,note_on,72,51,0
1,note_on,72,0,120
1,note_on,73,51,0
1,note_on,73,0,120
1,note_on,69,51,0
1,note_on,69,0,120
1,note_on,70,54,0
1,note_on,70,0,120
1,note_on,69,47,0
1,note_on,69,0,120
1,note_on,70,49,0
1,note_on,70,0,120
1,note_on,65,47,0
1,note_on,65,0,120
1,note_on,66,57,0
1,note_on,66,0,120
1,note_on,81,53,0
1,note_on,81,0,120
1,note_on,82,52,0
1,note_on,82,0,120
1,note_on,77,52,0
1,note_on,77,0,120
1,note_on,78,57,0
1,note_on,78,0,120
1,note_on,77,51,0
1,note_on,77,0,120
1,note_on,78,51,0
1,note_on,78,0,120
1,note_on,72,50,0
1,note_on,72,0,120
1,note_on,73,55,0
1,note_on,73,0,120
1,note_on,72,51,0
1,note_on,72,0,120
1,note_on,73,51,0
1,note_on,73,0,120
1,note_on,69,51,0
1,note_on,69,0,120
1,note_on,70,54,0
1,note_on,70,0,120
1,note_on,69,47,0
1,note_on,69,0,120
1,note_on,70,49,0
1,note_on,70,0,120
1,note_on,65,47,0
1,note_on,65,0,120
1,note_on,66,53,0
1,note_on,66,0,120
1,note_on,65,49,0
1,note_on,65,0,120
1,note_on,66,49,0
1,note_on,66,0,120
1,note_on,68,49,0
1,note_on,68,0,120
1,note_on,70,55,0
1,note_on,70,0,120
1,note_on,71,49,0
1,note_on,71,0,120
1,note_on,70,49,0
1,note_on,70,0,120
1,note_on,68,49,0
1,note_on,68,0,120
1,note_on,66,55,0
1,note_on,66,0,120
1,note_on,68,50,0
1,note_on,68,0,120
1,note_on,70,50,0
1,note_on,70,0,120
1,note_on,68,50,0
1,note_on,68,0,120
1,note_on,66,55,0
1,note_on,66,0,120
1,note_on,68,50,0
1,note_on,68,0,120
1,note_on,66,52,0
1,note_on,66,0,120
1,note_on,65,51,0
1,note_on,65,0,120
1,note_on,64,57,0
1,note_on,64,0,160
1,note_on,70,52,0
1,note_on,70,0,152
1,note_on,58,45,8
1,note_on,64,45,0
1,note_on,70,54,0
1,note_on,70,0,152
1,note_on,64,0,0
1,note_on,58,0,0
1,note_on,58,50,8
1,note_on,64,50,0
1,note_on,70,59,0
1,note_on,70,0,152
1,note_on,64,0,0
1,note_on,58,0,0
1,note_on,58,47,8
1,note_on,64,47,0
1,note_on,70,56,0
1,note_on,70,0,152
1,note_on,64,0,0
1,note_on,58,0,0
1,note_on,58,48,8
1,note_on,64,48,0
1,note_on,70,57,0
1,note_on,70,0,152
1,note_on,64,0,0
1,note_on,58,0,0
1,note_on,58,52,8
1,note_on,64,52,0
1,note_on,70,62,0
1,note_on,70,0,152
1,note_on,64,0,0
1,note_on,58,0,0
1,note_on,58,47,8
1,note_on,64,47,0
1,note_on,70,56,0
1,note_on,70,0,152
1,note_on,64,0,0
1,note_on,58,0,0
1,note_on,58,47,8
1,note_on,64,47,0
1,note_on,70,57,0
1,note_on,70,0,152
1,note_on,64,0,0
1,note_on,58,0,0
1,note_on,58,55,8
1,note_on,64,55,0
1,note_on,70,65,0
1,note_on,70,0,152
1,note_on,64,0,0
1,note_on,58,0,0
1,note_on,58,51,8
1,note_on,64,51,0
1,note_on,70,61,0
1,note_on,70,0,152
1,note_on,64,0,0
1,note_on,58,0,0
1,note_on,58,52,8
1,note_on,64,52,0
1,note_on,70,62,0
1,note_on,70,0,152
1,note_on,64,0,0
1,note_on,58,0,0
1,note_on,58,57,8
1,note_on,64,57,0
1,note_on,70,67,0
1,note_on,70,0,152
1,note_on,64,0,0
1,note_on,58,0,0
1,note_on,58,53,8
1,note_on,64,53,0
1,note_on,70,64,0
1,note_on,70,0,152
1,note_on,64,0,0
1,note_on,58,0,0
1,note_on,58,55,8
1,note_on,64,55,0
1,note_on,70,65,0
1,note_on,70,0,152
1,note_on,64,0,0
1,note_on,58,0,0
1,note_on,58,59,8
1,note_on,64,59,0
1,note_on,70,71,0
1,note_on,70,0,152
1,note_on,64,0,0
1,note_on,58,0,0
1,note_on,58,56,8
1,note_on,64,56,0
1,note_on,70,67,0
1,note_on,70,0,152
1,note_on,64,0,0
1,note_on,58,0,0
1,note_on,58,57,8
1,note_on,64,57,0
1,note_on,70,69,0
1,note_on,70,0,152
1,note_on,64,0,0
1,note_on,58,0,0
1,note_on,58,62,8
1,note_on,64,62,0
1,note_on,70,74,0
1,note_on,70,0,152
1,note_on,64,0,0
1,note_on,58,0,0
1,note_on,58,59,8
1,note_on,64,59,0
1,note_on,70,71,0
1,note_on,70,0,152
1,note_on,64,0,0
1,note_on,58,0,0
1,note_on,58,60,8
1,note_on,64,60,0
1,note_on,70,72,0
1,note_on,70,0,152
1,note_on,64,0,0
1,note_on,58,0,0
1,note_on,65,72,8
1,note_on,58,72,0
1,note_on,70,85,0
1,note_on,70,0,152
1,note_on,58,0,0
1,note_on,65,0,0
1,note_on,65,67,8
1,note_on,58,67,0
1,note_on,70,80,0
1,note_on,70,0,152
1,note_on,58,0,0
1,note_on,65,0,0
1,note_on,65,67,8
1,note_on,58,67,0
1,note_on,70,80,0
1,note_on,70,0,152
1,note_on,58,0,0
1,note_on,65,0,0
1,note_on,58,63,8
1,note_on,65,77,0
1,note_on,70,90,0
1,note_on,70,0,480
1,note_on,65,0,0
1,note_on,58,0,0
1,note_on,57,60,0
1,note_on,65,72,0
1,note_on,69,85,0
1,note_on,69,0,480
1,note_on,65,0,0
1,note_on,57,0,0
1,note_on,58,60,0
1,note_on,65,72,0
1,note_on,70,85,0
1,note_on,70,0,480
1,note_on,65,0,0
1,note_on,58,0,0
1,note_on,60,60,0
1,note_on,65,72,0
1,note_on,72,85,0
1,note_on,72,0,480
1,note_on,65,0,0
1,note_on,60,0,0
1,note_on,62,64,0
1,note_on,65,78,0
1,note_on,74,92,0
1,note_on,74,0,1440
1,note_on,65,0,0
1,note_on,62,0,0
1,note_on,60,62,0
1,note_on,65,74,0
1,note_on,72,89,0
1,note_on,72,0,240
1,note_on,65,0,0
1,note_on,60,0,0
1,note_on,58,58,0
1,note_on,65,69,0
1,note_on,70,82,0
1,note_on,70,0,240
1,note_on,65,0,0
1,note_on,58,0,0
1,note_on,60,61,0
1,note_on,65,73,0
1,note_on,72,88,0
1,note_on,72,0,475
1,note_on,65,0,0
1,note_on,60,0,0
1,note_on,60,59,5
1,note_on,65,71,0
1,note_on,72,84,0
1,note_on,72,0,475
1,note_on,65,0,0
1,note_on,60,0,0
1,note_on,60,59,5
1,note_on,65,70,0
1,note_on,72,83,0
1,note_on,72,0,475
1,note_on,65,0,0
1,note_on,60,0,0
1,note_on,58,61,5
1,note_on,65,73,0
1,note_on,70,88,0
1,note_on,70,0,240
1,note_on,65,0,0
1,note_on,58,0,0
1,note_on,57,58,0
1,note_on,65,69,0
1,note_on,69,82,0
1,note_on,69,0,240
1,note_on,65,0,0
1,note_on,57,0,0
1,note_on,65,77,0
1,note_on,58,75,0
1,note_on,70,90,0
1,note_on,65,0,480
1,note_on,63,73,0
1,note_on,67,88,0
1,note_on,67,0,480
1,note_on,63,0,0
1,note_on,62,70,0
1,note_on,65,83,0
1,note_on,65,0,480
1,note_on,58,0,0
1,note_on,70,0,0
1,note_on,62,0,0
1,note_on,62,64,0
1,note_on,65,75,0
1,note_on,74,89,0
1,note_on,74,0,480
1,note_on,65,0,0
1,note_on,62,0,0
1,note_on,62,64,0
1,note_on,67,75,0
1,note_on,74,89,0
1,note_on,74,0,1440
1,note_on,67,0,0
1,note_on,62,0,0
1,note_on,60,59,0
1,note_on,67,71,0
1,note_on,72,84,0
1,note_on,72,0,240
1,note_on,67,0,0
1,note_on,60,0,0
1,note_on,59,56,0
1,note_on,67,67,0
1,note_on,71,79,0
1,note_on,71,0,240
1,note_on,67,0,0
1,note_on,59,0,0
1,note_on,63,67,0
1,note_on,67,79,0
1,note_on,75,94,0
1,note_on,75,0,480
1,note_on,67,0,0
1,note_on,63,0,0
1,note_on,62,65,0
1,note_on,67,76,0
1,note_on,74,91,0
1,note_on,74,0,480
1,note_on,67,0,0
1,note_on,62,0,0
1,note_on,60,63,0
1,note_on,67,74,0
1,note_on,72,88,0
1,note_on,72,0,480
1,note_on,67,0,0
1,note_on,60,0,0
1,note_on,60,60,0
1,note_on,69,72,0
1,note_on,72,86,0
1,note_on,72,0,480
1,note_on,69,0,0
1,note_on,60,0,0
1,note_on,65,76,0
1,note_on,60,65,0
1,note_on,69,78,0
1,note_on,72,89,0
1,note_on,72,0,1440
1,note_on,65,0,0
1,note_on,60,0,0
1,note_on,69,0,0
1,note_on,58,63,0
1,note_on,65,74,0
1,note_on,70,88,0
1,note_on,70,0,240
1,note_on,65,0,0
1,note_on,58,0,0
1,note_on,57,57,0
1,note_on,65,68,0
1,note_on,69,80,0
1,note_on,69,0,240
1,note_on,65,0,0
1,note_on,57,0,0
1,note_on,62,65,0
1,note_on,65,77,0
1,note_on,74,92,0
1,note_on,74,0,480
1,note_on,65,0,0
1,note_on,62,0,0
1,note_on,57,61,0
1,note_on,65,73,0
1,note_on,69,87,0
1,note_on,69,0,480
1,note_on,65,0,0
1,note_on,57,0,0
1,note_on,58,65,0
1,note_on,65,77,0
1,note_on,70,92,0
1,note_on,70,0,480
1,note_on,65,0,0
1,note_on,58,0,0
1,note_on,65,70,0
1,note_on,60,59,0
1,note_on,69,70,0
1,note_on,72,82,0
1,note_on,72,0,480
1,note_on,65,0,0
1,note_on,60,0,0
1,note_on,69,0,0
1,note_on,65,75,0
1,note_on,60,64,0
1,note_on,69,75,0
1,note_on,72,89,0
1,note_on,72,0,1920
1,note_on,69,0,0
1,note_on,60,0,0
1,note_on,59,61,0
1,note_on,68,61,0
1,note_on,71,73,0
1,note_on,65,0,960
1,note_on,59,0,480
1,note_on,68,0,0
1,note_on,71,0,0
1,note_on,62,55,0
1,note_on,65,55,0
1,note_on,68,55,0
1,note_on,71,66,0
1,note_on,71,0,480
1,note_on,62,0,0
1,note_on,65,0,0
1,note_on,68,0,0
1,note_on,62,55,0
1,note_on,65,55,0
1,note_on,68,55,0
1,note_on,71,66,0
1,note_on,71,0,1440
1,note_on,62,0,0
1,note_on,65,0,0
1,note_on,68,0,0
1,note_on,65,66,0
1,note_on,68,66,0
1,note_on,71,66,0
1,note_on,74,78,0
1,note_on,74,0,480
1,note_on,65,0,0
1,note_on,68,0,0
1,note_on,71,0,0
1,note_on,65,72,0
1,note_on,68,72,0
1,note_on,71,72,0
1,note_on,74,86,0
1,note_on,74,0,960
1,note_on,73,86,0
1,note_on,73,0,240
1,note_on,71,0,0
1,note_on,68,0,0
1,note_on,65,0,0
1,note_on,68,80,240
1,note_on,71,80,0
1,note_on,73,80,0
1,note_on,77,96,0
1,note_on,77,0,240
1,note_on,68,0,0
1,note_on,71,0,0
1,note_on,73,0,0
1,note_on,69,77,240
1,note_on,73,77,0
1,note_on,78,92,0
1,note_on,78,0,152
1,note_on,73,0,0
1,note_on,69,0,0
1,note_on,69,28,8
1,note_on,73,34,0
1,note_on,73,0,152
1,note_on,69,0,0
1,note_on,69,30,8
1,note_on,73,36,0
1,note_on,73,0,152
1,note_on,69,0,0
1,note_on,69,32,8
1,note_on,73,38,0
1,note_on,73,0,152
1,note_on,69,0,0
1,note_on,69,29,8
1,note_on,73,35,0
1,note_on,73,0,152
1,note_on,69,0,0
1,note_on,69,29,8
1,note_on,73,35,0
1,note_on,73,0,152
1,note_on,69,0,0
1,note_on,69,32,8
1,note_on,73,38,0
1,note_on,73,0,152
1,note_on,69,0,0
1,note_on,69,29,8
1,note_on,73,35,0
1,note_on,73,0,152
1,note_on,69,0,0
1,note_on,69,29,8
1,note_on,73,35,0
1,note_on,73,0,160
1,note_on,69,0,0
1,note_on,78,54,0
1,note_on,69,27,160
1,note_on,73,32,0
1,note_on,73,0,152
1,note_on,69,0,0
1,note_on,69,27,8
1,note_on,73,32,0
1,note_on,73,0,152
1,note_on,69,0,0
1,note_on,78,0,8
1,note_on,78,53,0
1,note_on,69,27,160
1,note_on,73,32,0
1,note_on,73,0,152
1,note_on,69,0,0
1,note_on,69,27,8
1,note_on,73,32,0
1,note_on,73,0,152
1,note_on,69,0,0
1,note_on,78,0,8
1,note_on,81,53,0
1,note_on,69,26,160
1,note_on,73,31,0
1,note_on,73,0,152
1,note_on,69,0,0
1,note_on,69,26,8
1,note_on,73,31,0
1,note_on,73,0,152
1,note_on,69,0,0
1,note_on,81,0,8
1,note_on,78,53,0
1,note_on,69,27,160
1,note_on,73,32,0
1,note_on,73,0,152
1,note_on,69,0,0
1,note_on,69,27,8
1,note_on,73,32,0
1,note_on,73,0,152
1,note_on,69,0,0
1,note_on,78,0,8
1,note_on,81,53,0
1,note_on,69,26,160
1,note_on,73,31,0
1,note_on,73,0,152
1,note_on,69,0,0
1,note_on,69,26,8
1,note_on,73,31,0
1,note_on,73,0,152
1,note_on,69,0,0
1,note_on,81,0,8
1,note_on,81,56,0
1,note_on,73,27,160
1,note_on,78,32,0
1,note_on,78,0,152
1,note_on,73,0,0
1,note_on,73,27,8
1,note_on,78,32,0
1,note_on,78,0,152
1,note_on,73,0,0
1,note_on,81,0,8
1,note_on,85,55,0
1,note_on,73,27,160
1,note_on,78,32,0
1,note_on,78,0,152
1,note_on,73,0,0
1,note_on,73,27,8
1,note_on,78,32,0
1,note_on,78,0,152
1,note_on,73,0,0
1,note_on,85,0,8
1,note_on,81,55,0
1,note_on,73,27,160
1,note_on,78,32,0
1,note_on,78,0,152
1,note_on,73,0,0
1,note_on,73,27,8
1,note_on,78,32,0
1,note_on,78,0,152
1,note_on,73,0,0
1,note_on,81,0,8
1,note_on,85,56,0
1,note_on,73,27,160
1,note_on,78,32,0
1,note_on,78,0,152
1,note_on,73,0,0
1,note_on,73,27,8
1,note_on,78,32,0
1,note_on,78,0,152
1,note_on,73,0,0
1,note_on,85,0,8
1,note_on,73,56,0
1,note_on,66,27,160
1,note_on,69,32,0
1,note_on,69,0,152
1,note_on,66,0,0
1,note_on,66,27,8
1,note_on,69,32,0
1,note_on,69,0,152
1,note_on,66,0,0
1,note_on,73,0,8
1,note_on,77,56,0
1,note_on,73,33,160
1,note_on,65,27,0
1,note_on,71,33,0
1,note_on,71,0,152
1,note_on,65,0,0
1,note_on,73,0,0
1,note_on,73,34,8
1,note_on,65,27,0
1,note_on,71,34,0
1,note_on,71,0,152
1,note_on,65,0,0
1,note_on,73,0,0
1,note_on,77,0,8
1,note_on,78,58,0
1,note_on,73,34,160
1,note_on,66,28,0
1,note_on,69,34,0
1,note_on,69,0,152
1,note_on,66,0,0
1,note_on,73,0,0
1,note_on,73,35,8
1,note_on,66,29,0
1,note_on,69,35,0
1,note_on,69,0,152
1,note_on,66,0,0
1,note_on,73,0,0
1,note_on,78,0,8
1,note_on,80,62,0
1,note_on,76,36,160
1,note_on,68,29,0
1,note_on,74,36,0
1,note_on,74,0,152
1,note_on,68,0,0
1,note_on,76,0,0
1,note_on,76,36,8
1,note_on,68,29,0
1,note_on,74,36,0
1,note_on,74,0,152
1,note_on,68,0,0
1,note_on,76,0,0
1,note_on,80,0,8
1,note_on,81,61,0
1,note_on,69,30,160
1,note_on,73,30,0
1,note_on,76,36,0
1,note_on,76,0,152
1,note_on,73,0,0
1,note_on,69,0,0
1,note_on,69,29,8
1,note_on,73,29,0
1,note_on,76,36,0
1,note_on,76,0,152
1,note_on,73,0,0
1,note_on,69,0,0
1,note_on,81,0,8
1,note_on,83,60,0
1,note_on,77,35,160
1,note_on,71,28,0
1,note_on,73,35,0
1,note_on,73,0,152
1,note_on,71,0,0
1,note_on,77,0,0
1,note_on,77,34,8
1,note_on,71,28,0
1,note_on,73,34,0
1,note_on,73,0,152
1,note_on,71,0,0
1,note_on,77,0,0
1,note_on,83,0,8
1,note_on,81,57,0
1,note_on,78,33,160
1,note_on,69,27,0
1,note_on,73,33,0
1,note_on,73,0,152
1,note_on,69,0,0
1,note_on,78,0,0
1,note_on,78,32,8
1,note_on,69,27,0
1,note_on,73,32,0
1,note_on,73,0,152
1,note_on,69,0,0
1,note_on,78,0,0
1,note_on,81,0,8
1,note_on,80,56,0
1,note_on,76,32,160
1,note_on,68,27,0
1,note_on,71,32,0
1,note_on,71,0,152
1,note_on,68,0,0
1,note_on,76,0,0
1,note_on,76,32,8
1,note_on,68,27,0
1,note_on,71,32,0
1,note_on,71,0,152
1,note_on,68,0,0
1,note_on,76,0,0
1,note_on,80,0,8
1,note_on,80,54,0
1,note_on,68,26,160
1,note_on,71,26,0
1,note_on,76,31,0
1,note_on,76,0,152
1,note_on,71,0,0
1,note_on,68,0,0
1,note_on,68,26,8
1,note_on,71,26,0
1,note_on,76,31,0
1,note_on,76,0,152
1,note_on,71,0,0
1,note_on,68,0,0
1,note_on,68,26,8
1,note_on,71,26,0
1,note_on,76,31,0
1,note_on,76,0,152
1,note_on,71,0,0
1,note_on,68,0,0
1,note_on,68,26,8
1,note_on,71,26,0
1,note_on,76,31,0
1,note_on,76,0,152
1,note_on,71,0,0
1,note_on,68,0,0
1,note_on,68,27,8
1,note_on,71,27,0
1,note_on,76,32,0
1,note_on,76,0,152
1,note_on,71,0,0
1,note_on,68,0,0
1,note_on,80,0,8
1,note_on,80,55,0
1,note_on,68,25,160
1,note_on,71,25,0
1,note_on,73,29,0
1,note_on,73,0,152
1,note_on,71,0,0
1,note_on,68,0,0
1,note_on,68,25,8
1,note_on,71,25,0
1,note_on,73,30,0
1,note_on,73,0,152
1,note_on,71,0,0
1,note_on,68,0,0
1,note_on,80,0,8
1,note_on,81,54,0
1,note_on,69,25,160
1,note_on,73,29,0
1,note_on,73,0,152
1,note_on,69,0,0
1,note_on,69,25,8
1,note_on,73,29,0
1,note_on,73,0,152
1,note_on,69,0,0
1,note_on,81,0,8
1,note_on,78,53,0
1,note_on,69,27,160
1,note_on,73,32,0
1,note_on,73,0,152
1,note_on,69,0,0
1,note_on,69,27,8
1,note_on,73,32,0
1,note_on,73,0,152
1,note_on,69,0,0
1,note_on,78,0,8
1,note_on,81,53,0
1,note_on,69,26,160
1,note_on,73,31,0
1,note_on,73,0,152
1,note_on,69,0,0
1,note_on,69,26,8
1,note_on,73,31,0
1,note_on,73,0,152
1,note_on,69,0,0
1,note_on,81,0,8
1,note_on,78,53,0
1,note_on,69,27,160
1,note_on,73,32,0
1,note_on,73,0,152
1,note_on,69,0,0
1,note_on,69,27,8
1,note_on,73,32,0
1,note_on,73,0,152
1,note_on,69,0,0
1,note_on,78,0,8
1,note_on,81,53,0
1,note_on,69,26,160
1,note_on,73,31,0
1,note_on,73,0,152
1,note_on,69,0,0
1,note_on,69,26,8
1,note_on,73,31,0
1,note_on,73,0,152
1,note_on,69,0,0
1,note_on,81,0,8
1,note_on,81,56,0
1,note_on,73,27,160
1,note_on,78,32,0
1,note_on,78,0,152
1,note_on,73,0,0
1,note_on,73,27,8
1,note_on,78,32,0
1,note_on,78,0,152
1,note_on,73,0,0
1,note_on,81,0,8
1,note_on,85,55,0
1,note_on,73,27,160
1,note_on,78,32,0
1,note_on,78,0,152
1,note_on,73,0,0
1,note_on,73,27,8
1,note_on,78,32,0
1,note_on,78,0,152
1,note_on,73,0,0
1,note_on,85,0,8
1,note_on,81,55,0
1,note_on,73,27,160
1,note_on,78,32,0
1,note_on,78,0,152
1,note_on,73,0,0
1,note_on,73,27,8
1,note_on,78,32,0
1,note_on,78,0,152
1,note_on,73,0,0
1,note_on,81,0,8
1,note_on,85,56,0
1,note_on,73,27,160
1,note_on,78,32,0
1,note_on,78,0,152
1,note_on,73,0,0
1,note_on,73,27,8
1,note_on,78,32,0
1,note_on,78,0,152
1,note_on,73,0,0
1,note_on,85,0,8
1,note_on,73,56,0
1,note_on,66,27,160
1,note_on,69,32,0
1,note_on,69,0,152
1,note_on,66,0,0
1,note_on,66,27,8
1,note_on,69,32,0
1,note_on,69,0,160
1,note_on,66,0,0
1,note_on,73,0,0
1,note_on,77,56,0
1,note_on,73,33,160
1,note_on,65,27,0
1,note_on,71,33,0
1,note_on,71,0,152
1,note_on,65,0,0
1,note_on,73,0,0
1,note_on,73,34,8
1,note_on,65,27,0
1,note_on,71,34,0
1,note_on,71,0,152
1,note_on,65,0,0
1,note_on,73,0,0
1,note_on,77,0,8
1,note_on,78,58,0
1,note_on,73,34,160
1,note_on,66,28,0
1,note_on,69,34,0
1,note_on,69,0,152
1,note_on,66,0,0
1,note_on,73,0,0
1,note_on,73,35,8
1,note_on,66,29,0
1,note_on,69,35,0
1,note_on,69,0,152
1,note_on,66,0,0
1,note_on,73,0,0
1,note_on,78,0,8
1,note_on,80,62,0
1,note_on,76,36,160
1,note_on,68,29,0
1,note_on,74,36,0
1,note_on,74,0,152
1,note_on,68,0,0
1,note_on,76,0,0
1,note_on,76,36,8
1,note_on,68,29,0
1,note_on,74,36,0
1,note_on,74,0,152
1,note_on,68,0,0
1,note_on,76,0,0
1,note_on,80,0,8
1,note_on,81,61,0
1,note_on,69,30,160
1,note_on,73,30,0
1,note_on,76,36,0
1,note_on,76,0,152
1,note_on,73,0,0
1,note_on,69,0,0
1,note_on,69,29,8
1,note_on,73,29,0
1,note_on,76,36,0
1,note_on,76,0,152
1,note_on,73,0,0
1,note_on,69,0,0
1,note_on,81,0,8
1,note_on,83,60,0
1,note_on,77,35,160
1,note_on,71,28,0
1,note_on,73,35,0
1,note_on,73,0,152
1,note_on,71,0,0
1,note_on,77,0,0
1,note_on,77,34,8
1,note_on,71,28,0
1,note_on,73,34,0
1,note_on,73,0,152
1,note_on,71,0,0
1,note_on,77,0,0
1,note_on,83,0,8
1,note_on,81,57,0
1,note_on,78,33,160
1,note_on,69,27,0
1,note_on,73,33,0
1,note_on,73,0,152
1,note_on,69,0,0
1,note_on,78,0,0
1,note_on,78,32,8
1,note_on,69,27,0
1,note_on,73,32,0
1,note_on,73,0,152
1,note_on,69,0,0
1,note_on,78,0,0
1,note_on,81,0,8
1,note_on,80,56,0
1,note_on,76,32,160
1,note_on,68,27,0
1,note_on,71,32,0
1,note_on,71,0,152
1,note_on,68,0,0
1,note_on,76,0,0
1,note_on,76,32,8
1,note_on,68,27,0
1,note_on,71,32,0
1,note_on,71,0,152
1,note_on,68,0,0
1,note_on,76,0,0
1,note_on,80,0,8
1,note_on,80,54,0
1,note_on,68,26,160
1,note_on,71,26,0
1,note_on,76,31,0
1,note_on,76,0,152
1,note_on,71,0,0
1,note_on,68,0,0
1,note_on,68,26,8
1,note_on,71,26,0
1,note_on,76,31,0
1,note_on,76,0,152
1,note_on,71,0,0
1,note_on,68,0,0
1,note_on,68,26,8
1,note_on,71,26,0
1,note_on,76,31,0
1,note_on,76,0,152
1,note_on,71,0,0
1,note_on,68,0,0
1,note_on,68,26,8
1,note_on,71,26,0
1,note_on,76,31,0
1,note_on,76,0,152
1,note_on,71,0,0
1,note_on,68,0,0
1,note_on,68,27,8
1,note_on,71,27,0
1,note_on,76,32,0
1,note_on,76,0,152
1,note_on,71,0,0
1,note_on,68,0,0
1,note_on,80,0,8
1,note_on,69,41,0
1,note_on,73,41,0
1,note_on,76,41,0
1,note_on,81,49,0
1,note_on,81,0,240
1,note_on,69,0,0
1,note_on,73,0,0
1,note_on,76,0,0
1,note_on,76,52,240
1,note_on,76,0,480
1,note_on,76,54,0
1,note_on,76,0,720
1,note_on,74,51,0
1,note_on,74,0,240
1,note_on,73,51,0
1,note_on,73,0,240
1,note_on,73,52,240
1,note_on,73,0,480
1,note_on,73,54,0
1,note_on,73,0,720
1,note_on,71,51,0
1,note_on,71,0,240
1,note_on,70,51,0
1,note_on,70,0,240
1,note_on,66,52,240
1,note_on,70,52,0
1,note_on,70,0,480
1,note_on,66,0,0
1,note_on,66,44,0
1,note_on,70,52,0
1,note_on,70,0,480
1,note_on,66,0,0
1,note_on,66,47,0
1,note_on,71,55,0
1,note_on,71,0,480
1,note_on,66,0,0
1,note_on,66,47,0
1,note_on,70,47,0
1,note_on,73,56,0
1,note_on,73,0,480
1,note_on,70,0,0
1,note_on,66,0,0
1,note_on,66,48,0
1,note_on,71,48,0
1,note_on,74,57,0
1,note_on,74,0,480
1,note_on,71,0,0
1,note_on,66,0,0
1,note_on,66,50,0
1,note_on,73,50,0
1,note_on,76,59,0
1,note_on,76,0,480
1,note_on,73,0,0
1,note_on,66,0,0
1,note_on,67,51,0
1,note_on,73,51,0
1,note_on,76,60,0
1,note_on,76,0,480
1,note_on,73,0,0
1,note_on,67,0,0
1,note_on,68,52,0
1,note_on,73,52,0
1,note_on,76,61,0
1,note_on,76,0,480
1,note_on,73,0,0
1,note_on,68,0,0
1,note_on,69,53,0
1,note_on,73,53,0
1,note_on,76,63,0
1,note_on,76,0,480
1,note_on,73,0,0
1,note_on,69,0,0
1,note_on,76,59,0
1,note_on,76,0,600
1,note_on,77,51,0
1,note_on,77,0,120
1,note_on,76,53,0
1,note_on,76,0,120
1,note_on,74,51,0
1,note_on,74,0,120
1,note_on,73,56,0
1,note_on,73,0,240
1,note_on,73,57,240
1,note_on,73,0,480
1,note_on,73,59,0
1,note_on,73,0,600
1,note_on,74,53,0
1,note_on,74,0,120
1,note_on,73,53,0
1,note_on,73,0,120
1,note_on,71,53,0
1,note_on,71,0,120
1,note_on,70,56,0
1,note_on,70,0,240
1,note_on,66,57,240
1,note_on,70,57,0
1,note_on,70,0,480
1,note_on,66,0,0
1,note_on,66,48,0
1,note_on,70,57,0
1,note_on,70,0,360
1,note_on,66,0,0
1,note_on,66,48,0
1,note_on,70,57,0
1,note_on,70,0,120
1,note_on,66,0,0
1,note_on,66,51,0
1,note_on,71,60,0
1,note_on,71,0,360
1,note_on,66,0,0
1,note_on,66,51,0
1,note_on,71,60,0
1,note_on,71,0,120
1,note_on,66,0,0
1,note_on,66,51,0
1,note_on,70,51,0
1,note_on,73,61,0
1,note_on,73,0,360
1,note_on,70,0,0
1,note_on,66,0,0
1,note_on,66,51,0
1,note_on,70,51,0
1,note_on,73,61,0
1,note_on,73,0,120
1,note_on,70,0,0
1,note_on,66,0,0
1,note_on,66,52,0
1,note_on,71,52,0
1,note_on,74,62,0
1,note_on,74,0,360
1,note_on,71,0,0
1,note_on,66,0,0
1,note_on,66,52,0
1,note_on,71,52,0
1,note_on,74,62,0
1,note_on,74,0,120
1,note_on,71,0,0
1,note_on,66,0,0
1,note_on,66,55,0
1,note_on,73,55,0
1,note_on,76,64,0
1,note_on,76,0,360
1,note_on,73,0,0
1,note_on,66,0,0
1,note_on,66,55,0
1,note_on,73,55,0
1,note_on,76,64,0
1,note_on,76,0,120
1,note_on,73,0,0
1,note_on,66,0,0
1,note_on,67,56,0
1,note_on,73,56,0
1,note_on,76,66,0
1,note_on,76,0,360
1,note_on,73,0,0
1,note_on,67,0,0
1,note_on,67,56,0
1,note_on,73,56,0
1,note_on,76,66,0
1,note_on,76,0,120
1,note_on,73,0,0
1,note_on,67,0,0
1,note_on,68,57,0
1,note_on,73,57,0
1,note_on,76,67,0
1,note_on,76,0,360
1,note_on,73,0,0
1,note_on,68,0,0
1,note_on,68,57,0
1,note_on,73,57,0
1,note_on,76,67,0
1,note_on,76,0,120
1,note_on,73,0,0
1,note_on,68,0,0
1,note_on,69,58,0
1,note_on,73,58,0
1,note_on,76,69,0
1,note_on,76,0,480
1,note_on,73,0,0
1,note_on,69,0,0
1,note_on,76,59,0
1,note_on,76,0,840
1,note_on,74,56,0
1,note_on,74,0,120
1,note_on,73,56,0
1,note_on,73,0,240
1,note_on,73,57,240
1,note_on,76,49,420
1,note_on,76,0,60
1,note_on,73,0,0
1,note_on,74,60,0
1,note_on,74,0,120
1,note_on,73,57,0
1,note_on,73,0,120
1,note_on,74,57,0
1,note_on,74,0,120
1,note_on,76,57,0
1,note_on,79,49,60
1,note_on,79,0,60
1,note_on,76,0,0
1,note_on,77,60,0
1,note_on,77,0,120
1,note_on,76,57,0
1,note_on,76,0,120
1,note_on,77,57,0
1,note_on,77,0,120
1,note_on,79,57,0
1,note_on,79,0,120
1,note_on,81,59,0
1,note_on,81,0,240
1,note_on,81,59,240
1,note_on,81,0,240
1,note_on,77,57,0
1,note_on,77,0,240
1,note_on,76,59,0
1,note_on,76,0,840
1,note_on,74,56,0
1,note_on,74,0,120
1,note_on,73,56,0
1,note_on,73,0,240
1,note_on,85,63,240
1,note_on,73,63,0
1,note_on,73,0,480
1,note_on,85,0,0
1,note_on,74,63,0
1,note_on,86,63,0
1,note_on,86,0,240
1,note_on,74,0,0
1,note_on,77,64,0
1,note_on,89,64,0
1,note_on,89,0,240
1,note_on,77,0,0
1,note_on,79,64,0
1,note_on,91,64,0
1,note_on,91,0,240
1,note_on,79,0,0
1,note_on,81,65,0
1,note_on,93,65,0
1,note_on,93,0,240
1,note_on,81,0,0
1,note_on,82,66,0
1,note_on,94,66,0
1,note_on,94,0,480
1,note_on,82,0,0
1,note_on,91,69,0
1,note_on,79,69,0
1,note_on,79,0,480
1,note_on,91,0,0
1,note_on,89,70,0
1,note_on,77,70,0
1,note_on,77,0,480
1,note_on,89,0,0
1,note_on,87,69,0
1,note_on,75,69,0
1,note_on,75,0,480
1,note_on,87,0,0
1,note_on,86,66,0
1,note_on,74,66,0
1,note_on,74,0,480
1,note_on,86,0,0
1,note_on,84,65,0
1,note_on,72,65,0
1,note_on,72,0,480
1,note_on,84,0,0
1,note_on,71,61,0
1,note_on,83,61,0
1,note_on,83,0,2160
1,note_on,71,0,0
1,note_on,71,51,0
1,note_on,71,0,228
1,note_on,71,51,12
1,note_on,71,0,228
1,note_on,71,51,12
1,note_on,71,0,228
1,note_on,71,50,12
1,note_on,71,0,228
1,note_on,71,50,12
1,note_on,71,0,228
1,note_on,71,50,12
1,note_on,71,0,228
1,note_on,71,50,12
1,note_on,71,0,228
1,note_on,72,53,12
1,note_on,72,0,840
1,note_on,74,47,0
1,note_on,74,0,120
1,note_on,72,52,0
1,note_on,72,0,240
1,note_on,77,49,240
1,note_on,77,0,60
1,note_on,79,43,0
1,note_on,79,0,60
1,note_on,77,44,0
1,note_on,77,0,60
1,note_on,79,44,0
1,note_on,79,0,60
1,note_on,77,44,0
1,note_on,77,0,60
1,note_on,79,46,0
1,note_on,79,0,60
1,note_on,76,51,0
1,note_on,76,0,60
1,note_on,77,44,0
1,note_on,77,0,60
1,note_on,81,58,0
1,note_on,69,46,0
1,note_on,69,0,840
1,note_on,81,0,0
1,note_on,67,40,0
1,note_on,79,51,0
1,note_on,79,0,120
1,note_on,67,0,0
1,note_on,65,43,0
1,note_on,77,53,0
1,note_on,77,0,240
1,note_on,65,0,0
1,note_on,74,54,240
1,note_on,74,0,480
1,note_on,72,58,0
1,note_on,72,0,840
1,note_on,74,53,0
1,note_on,74,0,120
1,note_on,72,60,0
1,note_on,72,0,240
1,note_on,89,53,240
1,note_on,89,0,60
1,note_on,91,47,0
1,note_on,91,0,60
1,note_on,89,48,0
1,note_on,89,0,60
1,note_on,91,48,0
1,note_on,91,0,60
1,note_on,89,48,0
1,note_on,89,0,60
1,note_on,91,50,0
1,note_on,91,0,60
1,note_on,88,55,0
1,note_on,88,0,60
1,note_on,89,48,0
1,note_on,89,0,60
1,note_on,93,69,0
1,note_on,81,63,0
1,note_on,81,0,840
1,note_on,93,0,0
1,note_on,79,62,0
1,note_on,91,62,0
1,note_on,91,0,120
1,note_on,79,0,0
1,note_on,77,67,0
1,note_on,89,67,0
1,note_on,89,0,240
1,note_on,77,0,0
1,note_on,74,48,240
1,note_on,77,48,0
1,note_on,82,69,0
1,note_on,86,69,0
1,note_on,86,0,480
1,note_on,74,0,0
1,note_on,77,0,0
1,note_on,82,0,0
1,note_on,72,58,0
1,note_on,77,58,0
1,note_on,81,69,0
1,note_on,84,69,0
1,note_on,84,0,480
1,note_on,72,0,0
1,note_on,77,0,0
1,note_on,81,0,0
1,note_on,74,61,0
1,note_on,77,61,0
1,note_on,82,72,0
1,note_on,86,72,0
1,note_on,86,0,480
1,note_on,74,0,0
1,note_on,77,0,0
1,note_on,82,0,0
1,note_on,77,62,0
1,note_on,81,62,0
1,note_on,84,74,0
1,note_on,89,74,0
1,note_on,89,0,480
1,note_on,77,0,0
1,note_on,81,0,0
1,note_on,84,0,0
1,note_on,79,66,0
1,note_on,84,66,0
1,note_on,88,78,0
1,note_on,91,78,0
1,note_on,91,0,480
1,note_on,79,0,0
1,note_on,84,0,0
1,note_on,88,0,0
1,note_on,79,63,0
1,note_on,84,63,0
1,note_on,88,75,0
1,note_on,91,75,0
1,note_on,91,0,960
1,note_on,79,0,0
1,note_on,84,0,0
1,note_on,88,0,0
1,note_on,88,63,0
1,note_on,88,0,160
1,note_on,84,54,0
1,note_on,84,0,160
1,note_on,79,54,0
1,note_on,79,0,160
1,note_on,76,54,0
1,note_on,76,0,160
1,note_on,79,52,0
1,note_on,79,0,160
1,note_on,84,51,0
1,note_on,84,0,160
1,note_on,77,53,0
1,note_on,77,0,160
1,note_on,84,49,0
1,note_on,84,0,160
1,note_on,81,49,0
1,note_on,81,0,80
1,note_on,77,53,80
1,note_on,77,0,80
1,note_on,72,48,80
1,note_on,72,0,80
1,note_on,69,46,80
1,note_on,69,0,80
1,note_on,65,51,80
1,note_on,65,0,80
1,note_on,69,46,80
1,note_on,69,0,80
1,note_on,72,46,80
1,note_on,72,0,80
1,note_on,69,53,80
1,note_on,69,0,80
1,note_on,72,50,80
1,note_on,72,0,80
1,note_on,77,50,80
1,note_on,77,0,80
1,note_on,77,53,80
1,note_on,77,0,160
1,note_on,86,49,0
1,note_on,86,0,160
1,note_on,82,49,0
1,note_on,82,0,80
1,note_on,77,53,80
1,note_on,77,0,80
1,note_on,74,48,80
1,note_on,74,0,80
1,note_on,70,46,80
1,note_on,70,0,80
1,note_on,65,51,80
1,note_on,65,0,80
1,note_on,70,46,80
1,note_on,70,0,80
1,note_on,74,46,80
1,note_on,74,0,80
1,note_on,70,53,80
1,note_on,70,0,80
1,note_on,74,50,80
1,note_on,74,0,80
1,note_on,77,50,80
1,note_on,77,0,80
1,note_on,77,53,80
1,note_on,77,0,160
1,note_on,89,49,0
1,note_on,89,0,160
1,note_on,84,49,0
1,note_on,84,0,80
1,note_on,81,53,80
1,note_on,81,0,80
1,note_on,77,48,80
1,note_on,77,0,80
1,note_on,72,46,80
1,note_on,72,0,80
1,note_on,69,51,80
1,note_on,69,0,80
1,note_on,65,46,80
1,note_on,65,0,80
1,note_on,60,46,80
1,note_on,60,0,80
1,note_on,65,53,80
1,note_on,65,0,80
1,note_on,69,50,80
1,note_on,69,0,80
1,note_on,72,50,80
1,note_on,72,0,80
1,note_on,72,51,80
1,note_on,72,0,160
1,note_on,77,47,0
1,note_on,77,0,160
1,note_on,77,47,0
1,note_on,77,0,80
1,note_on,74,51,80
1,note_on,74,0,160
1,note_on,79,48,0
1,note_on,79,0,160
1,note_on,79,48,0
1,note_on,79,0,80
1,note_on,72,51,80
1,note_on,72,0,160
1,note_on,77,47,0
1,note_on,77,0,160
1,note_on,77,47,0
1,note_on,77,0,80
1,note_on,72,51,80
1,note_on,72,0,160
1,note_on,76,47,0
1,note_on,76,0,160
1,note_on,76,47,0
1,note_on,76,0,80
1,note_on,72,51,80
1,note_on,72,0,160
1,note_on,75,47,0
1,note_on,75,0,160
1,note_on,75,47,0
1,note_on,75,0,80
1,note_on,72,52,80
1,note_on,72,0,160
1,note_on,74,50,0
1,note_on,74,0,160
1,note_on,74,50,0
1,note_on,74,0,80
1,note_on,66,46,80
1,note_on,69,54,0
1,note_on,69,0,160
1,note_on,66,0,0
1,note_on,75,50,0
1,note_on,75,0,160
1,note_on,75,51,0
1,note_on,75,0,80
1,note_on,66,47,80
1,note_on,69,56,0
1,note_on,69,0,160
1,note_on,66,0,0
1,note_on,74,52,0
1,note_on,74,0,160
1,note_on,74,53,0
1,note_on,74,0,80
1,note_on,65,49,80
1,note_on,70,58,0
1,note_on,70,0,160
1,note_on,65,0,0
1,note_on,75,54,0
1,note_on,75,0,160
1,note_on,75,54,0
1,note_on,75,0,80
1,note_on,65,49,80
1,note_on,70,58,0
1,note_on,70,0,160
1,note_on,65,0,0
1,note_on,74,54,0
1,note_on,74,0,160
1,note_on,74,54,0
1,note_on,74,0,80
1,note_on,65,48,80
1,note_on,69,57,0
1,note_on,69,0,160
1,note_on,65,0,0
1,note_on,72,53,0
1,note_on,72,0,160
1,note_on,72,52,0
1,note_on,72,0,80
1,note_on,64,48,80
1,note_on,67,57,0
1,note_on,67,0,160
1,note_on,64,0,0
1,note_on,72,52,0
1,note_on,72,0,160
1,note_on,72,52,0
1,note_on,72,0,80
1,note_on,65,41,80
1,note_on,69,41,0
1,note_on,72,49,0
1,note_on,72,0,480
1,note_on,69,0,0
1,note_on,65,0,0
1,note_on,77,49,480
1,note_on,69,40,0
1,note_on,72,40,0
1,note_on,72,0,240
1,note_on,69,0,0
1,note_on,77,0,0
1,note_on,72,40,240
1,note_on,75,40,0
1,note_on,77,49,0
1,note_on,77,0,240
1,note_on,75,0,0
1,note_on,72,0,0
1,note_on,70,45,240
1,note_on,74,45,0
1,note_on,77,53,0
1,note_on,77,0,480
1,note_on,74,0,0
1,note_on,70,0,0
1,note_on,70,40,480
1,note_on,74,40,0
1,note_on,77,49,0
1,note_on,77,0,240
1,note_on,74,0,0
1,note_on,70,0,0
1,note_on,74,40,240
1,note_on,77,49,0
1,note_on,77,0,240
1,note_on,74,0,0
1,note_on,69,45,240
1,note_on,72,45,0
1,note_on,77,53,0
1,note_on,77,0,480
1,note_on,72,0,0
1,note_on,69,0,0
1,note_on,72,44,480
1,note_on,77,44,0
1,note_on,81,53,0
1,note_on,81,0,240
1,note_on,77,0,0
1,note_on,72,0,0
1,note_on,72,44,240
1,note_on,81,44,0
1,note_on,84,53,0
1,note_on,84,0,240
1,note_on,81,0,0
1,note_on,72,0,0
1,note_on,84,56,240
1,note_on,84,0,160
1,note_on,89,51,0
1,note_on,89,0,160
1,note_on,89,51,0
1,note_on,89,0,80
1,note_on,86,56,80
1,note_on,86,0,160
1,note_on,91,52,0
1,note_on,91,0,160
1,note_on,91,52,0
1,note_on,91,0,80
1,note_on,84,56,80
1,note_on,84,0,160
1,note_on,89,51,0
1,note_on,89,0,160
1,note_on,89,51,0
1,note_on,89,0,80
1,note_on,84,56,80
1,note_on,84,0,160
1,note_on,88,51,0
1,note_on,88,0,160
1,note_on,88,51,0
1,note_on,88,0,80
1,note_on,84,56,80
1,note_on,84,0,160
1,note_on,87,51,0
1,note_on,87,0,160
1,note_on,87,51,0
1,note_on,87,0,80
1,note_on,84,57,80
1,note_on,84,0,160
1,note_on,86,55,0
1,note_on,86,0,160
1,note_on,86,55,0
1,note_on,86,0,80
1,note_on,78,58,80
1,note_on,81,58,0
1,note_on,81,0,160
1,note_on,78,0,0
1,note_on,87,53,0
1,note_on,87,0,160
1,note_on,87,53,0
1,note_on,87,0,80
1,note_on,78,48,80
1,note_on,81,57,0
1,note_on,81,0,160
1,note_on,78,0,0
1,note_on,86,54,0
1,note_on,86,0,160
1,note_on,86,54,0
1,note_on,86,0,80
1,note_on,77,48,80
1,note_on,82,57,0
1,note_on,82,0,160
1,note_on,77,0,0
1,note_on,87,52,0
1,note_on,87,0,160
1,note_on,87,52,0
1,note_on,87,0,80
1,note_on,77,48,80
1,note_on,82,57,0
1,note_on,82,0,160
1,note_on,77,0,0
1,note_on,86,53,0
1,note_on,86,0,160
1,note_on,86,52,0
1,note_on,86,0,80
1,note_on,77,48,80
1,note_on,81,57,0
1,note_on,81,0,160
1,note_on,77,0,0
1,note_on,84,53,0
1,note_on,84,0,160
1,note_on,84,49,0
1,note_on,84,0,80
1,note_on,76,45,80
1,note_on,79,54,0
1,note_on,79,0,160
1,note_on,76,0,0
1,note_on,84,48,0
1,note_on,84,0,160
1,note_on,84,48,0
1,note_on,84,0,80
1,note_on,70,45,80
1,note_on,70,0,160
1,note_on,73,42,0
1,note_on,73,0,160
1,note_on,73,42,0
1,note_on,73,0,80
1,note_on,70,46,80
1,note_on,70,0,160
1,note_on,72,45,0
1,note_on,72,0,160
1,note_on,72,45,0
1,note_on,72,0,80
1,note_on,64,41,80
1,note_on,67,48,0
1,note_on,67,0,160
1,note_on,64,0,0
1,note_on,73,45,0
1,note_on,73,0,160
1,note_on,73,45,0
1,note_on,73,0,80
1,note_on,64,42,80
1,note_on,67,50,0
1,note_on,67,0,160
1,note_on,64,0,0
1,note_on,72,46,0
1,note_on,72,0,160
1,note_on,72,47,0
1,note_on,72,0,80
1,note_on,63,44,80
1,note_on,68,52,0
1,note_on,68,0,160
1,note_on,63,0,0
1,note_on,73,48,0
1,note_on,73,0,160
1,note_on,73,48,0
1,note_on,73,0,80
1,note_on,63,44,80
1,note_on,68,52,0
1,note_on,68,0,160
1,note_on,63,0,0
1,note_on,72,48,0
1,note_on,72,0,160
1,note_on,72,48,0
1,note_on,72,0,80
1,note_on,63,43,80
1,note_on,67,51,0
1,note_on,67,0,160
1,note_on,63,0,0
1,note_on,70,47,0
1,note_on,70,0,160
1,note_on,70,46,0
1,note_on,70,0,80
1,note_on,62,43,80
1,note_on,65,51,0
1,note_on,65,0,160
1,note_on,62,0,0
1,note_on,70,46,0
1,note_on,70,0,160
1,note_on,70,46,0
1,note_on,70,0,80
1,note_on,73,41,1040
1,note_on,78,48,0
1,note_on,78,0,160
1,note_on,73,0,0
1,note_on,82,45,0
1,note_on,82,0,160
1,note_on,82,45,0
1,note_on,82,0,80
1,note_on,73,41,80
1,note_on,78,49,0
1,note_on,78,0,160
1,note_on,73,0,0
1,note_on,81,44,0
1,note_on,81,0,160
1,note_on,81,44,0
1,note_on,81,0,80
1,note_on,73,42,80
1,note_on,77,50,0
1,note_on,77,0,160
1,note_on,73,0,0
1,note_on,80,46,0
1,note_on,80,0,160
1,note_on,80,46,0
1,note_on,80,0,80
1,note_on,72,40,80
1,note_on,75,48,0
1,note_on,75,0,160
1,note_on,72,0,0
1,note_on,80,44,0
1,note_on,80,0,160
1,note_on,80,44,0
1,note_on,80,0,80
1,note_on,61,37,560
1,note_on,64,44,0
1,note_on,64,0,160
1,note_on,61,0,0
1,note_on,68,39,0
1,note_on,68,0,160
1,note_on,68,39,0
1,note_on,68,0,80
1,note_on,60,38,80
1,note_on,63,45,0
1,note_on,63,0,160
1,note_on,60,0,0
1,note_on,68,41,0
1,note_on,68,0,160
1,note_on,68,41,0
1,note_on,68,0,80
1,note_on,60,33,560
1,note_on,63,39,0
1,note_on,63,0,160
1,note_on,60,0,0
1,note_on,66,35,0
1,note_on,66,0,160
1,note_on,66,35,0
1,note_on,66,0,80
1,note_on,60,34,80
1,note_on,63,40,0
1,note_on,63,0,160
1,note_on,60,0,0
1,note_on,65,36,0
1,note_on,65,0,160
1,note_on,65,36,0
1,note_on,65,0,80
1,note_on,72,40,560
1,note_on,75,40,0
1,note_on,75,0,160
1,note_on,72,0,0
1,note_on,77,36,0
1,note_on,77,0,160
1,note_on,77,36,0
1,note_on,77,0,80
1,note_on,70,45,80
1,note_on,75,45,0
1,note_on,75,0,160
1,note_on,70,0,0
1,note_on,79,37,0
1,note_on,79,0,160
1,note_on,79,37,0
1,note_on,79,0,80
1,note_on,70,45,80
1,note_on,74,45,0
1,note_on,74,0,160
1,note_on,70,0,0
1,note_on,77,39,0
1,note_on,77,0,160
1,note_on,77,39,0
1,note_on,77,0,80
1,note_on,58,39,80
1,note_on,62,47,0
1,note_on,62,0,160
1,note_on,58,0,0
1,note_on,65,40,0
1,note_on,65,0,160
1,note_on,65,40,0
1,note_on,65,0,80
1,note_on,57,43,80
1,note_on,60,51,0
1,note_on,60,0,160
1,note_on,57,0,0
1,note_on,65,46,0
1,note_on,65,0,160
1,note_on,65,46,0
1,note_on,65,0,80
1,note_on,60,49,80
1,note_on,65,58,0
1,note_on,65,0,160
1,note_on,60,0,0
1,note_on,72,50,0
1,note_on,72,0,160
1,note_on,72,50,0
1,note_on,72,0,80
1,note_on,60,50,80
1,note_on,64,60,0
1,note_on,64,0,160
1,note_on,60,0,0
1,note_on,72,53,0
1,note_on,72,0,160
1,note_on,72,53,0
1,note_on,72,0,80
1,note_on,57,58,80
1,note_on,60,58,0
1,note_on,65,58,0
1,note_on,65,0,120
1,note_on,60,0,0
1,note_on,57,0,0
1,note_on,60,47,40
1,note_on,60,0,160
1,note_on,57,47,0
1,note_on,57,0,160
1,note_on,60,47,0
1,note_on,60,0,160
1,note_on,65,51,0
1,note_on,65,0,160
1,note_on,69,55,0
1,note_on,69,0,160
1,note_on,72,68,0
1,note_on,62,48,480
1,note_on,62,0,240
1,note_on,72,0,0
1,note_on,64,45,0
1,note_on,70,54,0
1,note_on,70,0,240
1,note_on,64,0,0
1,note_on,60,47,0
1,note_on,65,47,0
1,note_on,69,56,0
1,note_on,69,0,480
1,note_on,65,0,0
1,note_on,60,0,0
1,note_on,61,52,0
1,note_on,67,52,0
1,note_on,69,62,0
1,note_on,69,0,480
1,note_on,67,0,0
1,note_on,61,0,0
1,note_on,62,54,0
1,note_on,60,54,0
1,note_on,66,54,0
1,note_on,69,64,0
1,note_on,69,0,480
1,note_on,62,0,0
1,note_on,60,0,0
1,note_on,66,0,0
1,note_on,70,65,0
1,note_on,58,55,0
1,note_on,62,55,0
1,note_on,67,55,0
1,note_on,70,0,360
1,note_on,69,55,0
1,note_on,69,0,120
1,note_on,67,0,0
1,note_on,62,0,0
1,note_on,58,0,0
1,note_on,60,44,0
1,note_on,64,44,0
1,note_on,67,52,0
1,note_on,67,0,720
1,note_on,68,47,0
1,note_on,68,0,240
1,note_on,64,0,0
1,note_on,65,43,0
1,note_on,69,51,0
1,note_on,69,0,120
1,note_on,65,0,0
1,note_on,60,0,0
1,note_on,60,39,360
1,note_on,65,39,0
1,note_on,69,46,0
1,note_on,69,0,120
1,note_on,65,0,0
1,note_on,60,0,0
1,note_on,48,47,520
1,note_on,48,0,160
1,note_on,45,47,0
1,note_on,45,0,160
1,note_on,48,47,0
1,note_on,48,0,160
1,note_on,53,51,0
1,note_on,53,0,160
1,note_on,57,55,0
1,note_on,57,0,160
1,note_on,60,65,0
1,note_on,48,46,240
1,note_on,50,48,240
1,note_on,50,0,240
1,note_on,48,0,0
1,note_on,60,0,0
1,note_on,48,45,0
1,note_on,52,45,0
1,note_on,58,54,0
1,note_on,58,0,240
1,note_on,52,0,0
1,note_on,48,0,0
1,note_on,48,47,0
1,note_on,53,47,0
1,note_on,57,56,0
1,note_on,57,0,480
1,note_on,53,0,0
1,note_on,48,0,0
1,note_on,49,52,0
1,note_on,55,52,0
1,note_on,57,62,0
1,note_on,57,0,480
1,note_on,55,0,0
1,note_on,49,0,0
1,note_on,50,54,0
1,note_on,48,54,0
1,note_on,54,54,0
1,note_on,57,64,0
1,note_on,57,0,480
1,note_on,50,0,0
1,note_on,48,0,0
1,note_on,54,0,0
1,note_on,58,71,0
1,note_on,46,60,0
1,note_on,50,60,0
1,note_on,55,60,0
1,note_on,55,0,240
1,note_on,58,0,0
1,note_on,46,0,0
1,note_on,50,0,0
1,note_on,62,62,720
1,note_on,68,62,0
1,note_on,70,74,0
1,note_on,70,0,480
1,note_on,68,0,0
1,note_on,62,0,0
1,note_on,63,64,0
1,note_on,61,64,0
1,note_on,67,64,0
1,note_on,70,77,0
1,note_on,70,0,480
1,note_on,63,0,0
1,note_on,61,0,0
1,note_on,67,0,0
1,note_on,71,85,0
1,note_on,59,72,0
1,note_on,63,72,0
1,note_on,68,72,0
1,note_on,68,0,240
1,note_on,71,0,0
1,note_on,59,0,0
1,note_on,63,0,0
1,note_on,74,82,720
1,note_on,76,82,0
1,note_on,83,99,0
1,note_on,80,99,0
1,note_on,80,0,480
1,note_on,74,0,0
1,note_on,76,0,0
1,note_on,83,0,0
1,note_on,72,88,0
1,note_on,76,88,0
1,note_on,81,103,0
1,note_on,84,103,0
1,note_on,84,0,240
1,note_on,72,0,0
1,note_on,76,0,0
1,note_on,81,0,0
1,note_on,77,52,720
1,note_on,81,52,0
1,note_on,84,62,0
1,note_on,84,0,720
1,note_on,85,56,0
1,note_on,85,0,240
1,note_on,81,0,0
1,note_on,82,51,0
1,note_on,86,61,0
1,note_on,86,0,120
1,note_on,82,0,0
1,note_on,77,0,0
1,note_on,77,46,360
1,note_on,82,46,0
1,note_on,86,55,0
1,note_on,86,0,120
1,note_on,82,0,0
1,note_on,77,0,0
1,note_on,77,51,360
1,note_on,86,61,0
1,note_on,89,61,0
1,note_on,89,0,1440
1,note_on,86,0,0
1,note_on,77,0,0
1,note_on,77,54,480
1,note_on,77,0,1200
1,note_on,74,45,0
1,note_on,74,0,240
1,note_on,70,50,0
1,note_on,70,0,240
1,note_on,69,45,0
1,note_on,69,0,240
1,note_on,60,34,0
1,note_on,64,34,0
1,note_on,69,49,0
1,note_on,69,0,480
1,note_on,67,44,0
1,note_on,67,0,360
1,note_on,68,44,0
1,note_on,68,0,120
1,note_on,64,0,0
1,note_on,65,40,0
1,note_on,69,48,0
1,note_on,69,0,120
1,note_on,65,0,0
1,note_on,60,0,0
1,note_on,60,30,360
1,note_on,65,36,0
1,note_on,69,44,0
1,note_on,69,0,120
1,note_on,65,0,0
1,note_on,60,0,0
1,note_on,69,48,360
1,note_on,72,48,0
1,note_on,72,0,1440
1,note_on,69,0,0
1,note_on,77,52,480
1,note_on,81,52,0
1,note_on,84,62,0
1,note_on,84,0,720
1,note_on,85,56,0
1,note_on,85,0,240
1,note_on,81,0,0
1,note_on,82,51,0
1,note_on,86,61,0
1,note_on,86,0,120
1,note_on,82,0,0
1,note_on,77,0,0
1,note_on,77,55,360
1,note_on,82,55,0
1,note_on,86,66,0
1,note_on,86,0,120
1,note_on,82,0,0
1,note_on,77,0,0
1,note_on,70,79,360
1,note_on,70,0,60
1,note_on,74,77,0
1,note_on,74,0,60
1,note_on,77,76,0
1,note_on,77,0,60
1,note_on,82,74,0
1,note_on,82,0,60
1,note_on,86,71,0
1,note_on,86,0,60
1,note_on,89,65,0
1,note_on,89,0,60
1,note_on,94,61,0
1,note_on,94,0,60
1,note_on,98,61,0
1,note_on,98,0,60
1,note_on,101,57,0
1,note_on,101,0,60
1,note_on,77,62,1380
1,note_on,77,0,1680
1,note_on,76,50,0
1,note_on,76,0,240
1,note_on,76,53,0
1,note_on,76,0,480
1,note_on,74,51,0
1,note_on,74,0,360
1,note_on,72,47,0
1,note_on,72,0,120
1,note_on,72,51,0
1,note_on,72,0,480
1,note_on,70,48,0
1,note_on,70,0,360
1,note_on,69,41,0
1,note_on,69,0,120
1,note_on,60,30,0
1,note_on,64,30,0
1,note_on,69,44,0
1,note_on,69,0,480
1,note_on,67,39,0
1,note_on,67,0,360
1,note_on,68,39,0
1,note_on,68,0,120
1,note_on,64,0,0
1,note_on,65,36,0
1,note_on,69,43,0
1,note_on,69,0,120
1,note_on,65,0,0
1,note_on,60,0,0
1,note_on,60,27,360
1,note_on,65,32,0
1,note_on,69,39,0
1,note_on,69,0,120
1,note_on,65,0,0
1,note_on,60,0,0
1,note_on,69,43,360
1,note_on,72,43,0
1,note_on,72,0,1440
1,note_on,69,0,0
1,note_on,64,32,480
1,note_on,68,32,0
1,note_on,73,38,0
1,note_on,73,0,120
1,note_on,68,0,0
1,note_on,64,0,0
1,note_on,64,24,360
1,note_on,68,28,0
1,note_on,73,35,0
1,note_on,73,0,120
1,note_on,68,0,0
1,note_on,64,0,0
1,note_on,64,38,360
1,note_on,68,38,0
1,note_on,76,38,0
1,note_on,76,0,480
1,note_on,68,0,0
1,note_on,64,0,0
1,note_on,64,50,0
1,note_on,64,0,480
1,note_on,64,54,0
1,note_on,64,0,480
1,note_on,63,52,0
1,note_on,63,0,480
1,note_on,64,54,0
1,note_on,64,0,480
1,note_on,66,51,0
1,note_on,66,0,480
1,note_on,68,54,0
1,note_on,68,0,1440
1,note_on,68,52,0
1,note_on,68,0,480
1,note_on,68,55,0
1,note_on,68,0,240
1,note_on,66,52,0
1,note_on,66,0,240
1,note_on,68,55,0
1,note_on,68,0,240
1,note_on,69,51,0
1,note_on,69,0,240
1,note_on,71,55,0
1,note_on,71,0,240
1,note_on,74,57,0
1,note_on,74,0,240
1,note_on,73,55,0
1,note_on,73,0,240
1,note_on,68,53,0
1,note_on,68,0,240
1,note_on,69,54,0
1,note_on,69,0,1440
1,note_on,69,42,0
1,note_on,81,50,0
1,note_on,81,0,480
1,note_on,69,0,0
1,note_on,69,45,0
1,note_on,81,54,0
1,note_on,81,0,480
1,note_on,69,0,0
1,note_on,68,44,0
1,note_on,80,52,0
1,note_on,80,0,480
1,note_on,68,0,0
1,note_on,69,45,0
1,note_on,81,54,0
1,note_on,81,0,480
1,note_on,69,0,0
1,note_on,71,43,0
1,note_on,83,51,0
1,note_on,83,0,480
1,note_on,71,0,0
1,note_on,73,45,0
1,note_on,85,54,0
1,note_on,85,0,1440
1,note_on,73,0,0
1,note_on,73,44,0
1,note_on,85,52,0
1,note_on,85,0,480
1,note_on,73,0,0
1,note_on,73,46,0
1,note_on,85,55,0
1,note_on,85,0,240
1,note_on,73,0,0
1,note_on,71,44,0
1,note_on,83,52,0
1,note_on,83,0,240
1,note_on,71,0,0
1,note_on,73,46,0
1,note_on,85,55,0
1,note_on,85,0,240
1,note_on,73,0,0
1,note_on,74,43,0
1,note_on,86,51,0
1,note_on,86,0,240
1,note_on,74,0,0
1,note_on,76,46,0
1,note_on,88,55,0
1,note_on,88,0,240
1,note_on,76,0,0
1,note_on,79,48,0
1,note_on,91,57,0
1,note_on,91,0,240
1,note_on,79,0,0
1,note_on,78,46,0
1,note_on,90,55,0
1,note_on,90,0,240
1,note_on,78,0,0
1,note_on,73,45,0
1,note_on,85,53,0
1,note_on,85,0,240
1,note_on,73,0,0
1,note_on,74,45,0
1,note_on,86,54,0
1,note_on,86,0,1440
1,note_on,74,0,0
1,note_on,74,54,0
1,note_on,86,54,0
1,note_on,86,0,480
1,note_on,74,0,0
1,note_on,73,58,0
1,note_on,85,58,0
1,note_on,85,0,720
1,note_on,73,0,0
1,note_on,71,54,0
1,note_on,83,54,0
1,note_on,83,0,240
1,note_on,71,0,0
1,note_on,69,54,0
1,note_on,81,54,0
1,note_on,81,0,240
1,note_on,69,0,0
1,note_on,69,54,240
1,note_on,81,54,0
1,note_on,81,0,480
1,note_on,69,0,0
1,note_on,68,57,0
1,note_on,80,57,0
1,note_on,80,0,720
1,note_on,68,0,0
1,note_on,66,52,0
1,note_on,78,52,0
1,note_on,78,0,240
1,note_on,66,0,0
1,note_on,64,54,0
1,note_on,76,54,0
1,note_on,76,0,240
1,note_on,64,0,0
1,note_on,64,51,240
1,note_on,76,51,0
1,note_on,76,0,480
1,note_on,64,0,0
1,note_on,62,54,0
1,note_on,74,54,0
1,note_on,74,0,480
1,note_on,62,0,0
1,note_on,66,50,0
1,note_on,78,50,0
1,note_on,78,0,480
1,note_on,66,0,0
1,note_on,61,54,0
1,note_on,73,54,0
1,note_on,73,0,480
1,note_on,61,0,0
1,note_on,60,52,0
1,note_on,72,52,0
1,note_on,72,0,480
1,note_on,60,0,0
1,note_on,62,62,0
1,note_on,74,62,0
1,note_on,74,0,1440
1,note_on,62,0,0
1,note_on,64,54,0
1,note_on,76,54,0
1,note_on,76,0,240
1,note_on,64,0,0
1,note_on,66,49,0
1,note_on,78,49,0
1,note_on,78,0,240
1,note_on,66,0,0
1,note_on,68,57,0
1,note_on,80,57,0
1,note_on,80,0,480
1,note_on,68,0,0
1,note_on,69,55,0
1,note_on,81,55,0
1,note_on,81,0,480
1,note_on,69,0,0
1,note_on,61,54,0
1,note_on,73,54,0
1,note_on,73,0,480
1,note_on,61,0,0
1,note_on,60,52,0
1,note_on,72,52,0
1,note_on,72,0,480
1,note_on,60,0,0
1,note_on,73,60,0
1,note_on,73,0,160
1,note_on,85,49,0
1,note_on,85,0,160
1,note_on,81,49,0
1,note_on,81,0,80
1,note_on,76,53,80
1,note_on,76,0,80
1,note_on,73,48,80
1,note_on,73,0,80
1,note_on,69,46,80
1,note_on,69,0,80
1,note_on,64,51,80
1,note_on,64,0,160
1,note_on,61,46,0
1,note_on,61,0,160
1,note_on,57,46,0
1,note_on,57,0,160
1,note_on,61,53,0
1,note_on,61,0,160
1,note_on,64,50,0
1,note_on,64,0,160
1,note_on,69,50,0
1,note_on,69,0,160
1,note_on,73,57,0
1,note_on,73,0,160
1,note_on,85,49,0
1,note_on,85,0,160
1,note_on,81,49,0
1,note_on,81,0,80
1,note_on,76,53,80
1,note_on,76,0,80
1,note_on,73,48,80
1,note_on,73,0,80
1,note_on,69,46,80
1,note_on,69,0,80
1,note_on,64,51,80
1,note_on,64,0,160
1,note_on,61,46,0
1,note_on,61,0,160
1,note_on,57,46,0
1,note_on,57,0,160
1,note_on,61,53,0
1,note_on,61,0,160
1,note_on,64,50,0
1,note_on,64,0,160
1,note_on,69,50,0
1,note_on,69,0,160
1,note_on,73,53,0
1,note_on,73,0,160
1,note_on,69,48,0
1,note_on,69,0,160
1,note_on,64,48,0
1,note_on,64,0,160
1,note_on,76,53,0
1,note_on,69,47,160
1,note_on,69,0,160
1,note_on,64,45,0
1,note_on,64,0,160
1,note_on,76,0,0
1,note_on,77,55,0
1,note_on,74,46,0
1,note_on,74,0,160
1,note_on,68,42,0
1,note_on,68,0,160
1,note_on,65,41,0
1,note_on,65,0,160
1,note_on,77,0,0
1,note_on,76,55,0
1,note_on,71,46,0
1,note_on,71,0,160
1,note_on,68,42,0
1,note_on,68,0,160
1,note_on,64,42,0
1,note_on,64,0,160
1,note_on,76,0,0
1,note_on,73,53,0
1,note_on,69,48,160
1,note_on,69,0,160
1,note_on,64,48,0
1,note_on,64,0,160
1,note_on,73,0,0
1,note_on,76,53,0
1,note_on,69,47,160
1,note_on,69,0,160
1,note_on,64,45,0
1,note_on,64,0,160
1,note_on,76,0,0
1,note_on,77,55,0
1,note_on,74,46,0
1,note_on,74,0,160
1,note_on,68,42,0
1,note_on,68,0,160
1,note_on,65,41,0
1,note_on,65,0,160
1,note_on,77,0,0
1,note_on,76,55,0
1,note_on,71,46,0
1,note_on,71,0,160
1,note_on,68,42,0
1,note_on,68,0,160
1,note_on,64,42,0
1,note_on,64,0,160
1,note_on,76,0,0
1,note_on,73,77,0
1,note_on,73,0,160
1,note_on,85,68,0
1,note_on,85,0,160
1,note_on,81,58,0
1,note_on,81,0,80
1,note_on,76,63,80
1,note_on,76,0,80
1,note_on,73,57,80
1,note_on,73,0,80
1,note_on,69,55,80
1,note_on,69,0,80
1,note_on,64,61,80
1,note_on,64,0,160
1,note_on,61,55,0
1,note_on,61,0,160
1,note_on,57,55,0
1,note_on,57,0,160
1,note_on,61,63,0
1,note_on,61,0,160
1,note_on,64,56,0
1,note_on,64,0,160
1,note_on,69,57,0
1,note_on,69,0,160
1,note_on,73,59,0
1,note_on,73,0,160
1,note_on,67,56,0
1,note_on,67,0,160
1,note_on,64,56,0
1,note_on,64,0,160
1,note_on,76,63,0
1,note_on,76,0,160
1,note_on,70,58,0
1,note_on,70,0,160
1,note_on,67,58,0
1,note_on,67,0,160
1,note_on,82,66,0
1,note_on,82,0,160
1,note_on,76,58,0
1,note_on,76,0,160
1,note_on,73,60,0
1,note_on,73,0,160
1,note_on,79,63,0
1,note_on,79,0,160
1,note_on,75,58,0
1,note_on,75,0,160
1,note_on,73,58,0
1,note_on,73,0,160
1,note_on,71,69,0
1,note_on,71,0,160
1,note_on,83,49,0
1,note_on,83,0,160
1,note_on,80,49,0
1,note_on,80,0,80
1,note_on,75,53,80
1,note_on,75,0,80
1,note_on,71,48,80
1,note_on,71,0,80
1,note_on,68,46,80
1,note_on,68,0,80
1,note_on,63,51,80
1,note_on,63,0,160
1,note_on,59,46,0
1,note_on,59,0,160
1,note_on,56,46,0
1,note_on,56,0,160
1,note_on,59,53,0
1,note_on,59,0,160
1,note_on,63,50,0
1,note_on,63,0,160
1,note_on,68,50,0
1,note_on,68,0,160
1,note_on,71,67,0
1,note_on,71,0,160
1,note_on,83,49,0
1,note_on,83,0,160
1,note_on,80,49,0
1,note_on,80,0,80
1,note_on,75,53,80
1,note_on,75,0,80
1,note_on,71,48,80
1,note_on,71,0,80
1,note_on,68,46,80
1,note_on,68,0,80
1,note_on,63,51,80
1,note_on,63,0,160
1,note_on,59,46,0
1,note_on,59,0,160
1,note_on,56,46,0
1,note_on,56,0,160
1,note_on,59,53,0
1,note_on,59,0,160
1,note_on,63,50,0
1,note_on,63,0,160
1,note_on,68,50,0
1,note_on,68,0,160
1,note_on,71,55,0
1,note_on,71,0,160
1,note_on,68,52,0
1,note_on,68,0,160
1,note_on,63,52,0
1,note_on,63,0,160
1,note_on,75,60,0
1,note_on,75,0,160
1,note_on,71,56,0
1,note_on,71,0,160
1,note_on,68,56,0
1,note_on,68,0,160
1,note_on,80,65,0
1,note_on,80,0,160
1,note_on,74,59,0
1,note_on,74,0,160
1,note_on,71,59,0
1,note_on,71,0,160
1,note_on,82,70,0
1,note_on,78,70,0
1,note_on,78,0,160
1,note_on,82,0,0
1,note_on,76,63,0
1,note_on,76,0,160
1,note_on,73,63,0
1,note_on,73,0,160
1,note_on,75,86,0
1,note_on,75,0,160
1,note_on,87,78,0
1,note_on,87,0,160
1,note_on,83,57,0
1,note_on,83,0,160
1,note_on,78,65,0
1,note_on,78,0,160
1,note_on,75,56,0
1,note_on,75,0,160
1,note_on,71,50,0
1,note_on,71,0,160
1,note_on,66,51,0
1,note_on,66,0,160
1,note_on,63,46,0
1,note_on,63,0,160
1,note_on,59,46,0
1,note_on,59,0,160
1,note_on,63,53,0
1,note_on,63,0,160
1,note_on,66,50,0
1,note_on,66,0,160
1,note_on,71,50,0
1,note_on,71,0,160
1,note_on,75,79,0
1,note_on,75,0,160
1,note_on,87,66,0
1,note_on,87,0,160
1,note_on,83,57,0
1,note_on,83,0,160
1,note_on,78,65,0
1,note_on,78,0,160
1,note_on,75,56,0
1,note_on,75,0,160
1,note_on,71,50,0
1,note_on,71,0,160
1,note_on,66,51,0
1,note_on,66,0,160
1,note_on,63,46,0
1,note_on,63,0,160
1,note_on,59,46,0
1,note_on,59,0,160
1,note_on,63,53,0
1,note_on,63,0,160
1,note_on,66,50,0
1,note_on,66,0,160
1,note_on,71,50,0
1,note_on,71,0,160
1,note_on,75,53,0
1,note_on,75,0,160
1,note_on,71,48,0
1,note_on,71,0,160
1,note_on,66,48,0
1,note_on,66,0,160
1,note_on,78,53,0
1,note_on,71,47,160
1,note_on,71,0,160
1,note_on,66,45,0
1,note_on,66,0,160
1,note_on,78,0,0
1,note_on,79,55,0
1,note_on,76,46,0
1,note_on,76,0,160
1,note_on,70,42,0
1,note_on,70,0,160
1,note_on,67,41,0
1,note_on,67,0,160
1,note_on,79,0,0
1,note_on,78,55,0
1,note_on,73,46,0
1,note_on,73,0,160
1,note_on,70,42,0
1,note_on,70,0,160
1,note_on,66,42,0
1,note_on,66,0,160
1,note_on,78,0,0
1,note_on,75,53,0
1,note_on,71,48,160
1,note_on,71,0,160
1,note_on,66,48,0
1,note_on,66,0,160
1,note_on,75,0,0
1,note_on,78,53,0
1,note_on,75,46,0
1,note_on,75,0,160
1,note_on,71,47,0
1,note_on,71,0,160
1,note_on,66,45,0
1,note_on,66,0,160
1,note_on,78,0,0
1,note_on,79,55,0
1,note_on,76,46,0
1,note_on,76,0,160
1,note_on,70,42,0
1,note_on,70,0,160
1,note_on,67,41,0
1,note_on,67,0,160
1,note_on,79,0,0
1,note_on,78,55,0
1,note_on,73,46,0
1,note_on,73,0,160
1,note_on,70,42,0
1,note_on,70,0,160
1,note_on,66,42,0
1,note_on,66,0,160
1,note_on,78,0,0
1,note_on,75,79,0
1,note_on,75,0,160
1,note_on,87,70,0
1,note_on,87,0,160
1,note_on,83,62,0
1,note_on,83,0,160
1,note_on,78,69,0
1,note_on,78,0,160
1,note_on,75,64,0
1,note_on,75,0,160
1,note_on,71,63,0
1,note_on,71,0,160
1,note_on,66,73,0
1,note_on,66,0,160
1,note_on,63,66,0
1,note_on,63,0,160
1,note_on,59,66,0
1,note_on,59,0,160
1,note_on,63,70,0
1,note_on,63,0,160
1,note_on,66,67,0
1,note_on,66,0,160
1,note_on,71,68,0
1,note_on,71,0,160
1,note_on,75,70,0
1,note_on,75,0,160
1,note_on,69,67,0
1,note_on,69,0,160
1,note_on,66,67,0
1,note_on,66,0,160
1,note_on,78,75,0
1,note_on,78,0,160
1,note_on,72,69,0
1,note_on,72,0,160
1,note_on,69,69,0
1,note_on,69,0,160
1,note_on,84,76,0
1,note_on,84,0,160
1,note_on,78,69,0
1,note_on,78,0,160
1,note_on,75,72,0
1,note_on,75,0,160
1,note_on,81,75,0
1,note_on,81,0,160
1,note_on,77,67,0
1,note_on,77,0,160
1,note_on,75,61,0
1,note_on,75,0,160
1,note_on,73,66,0
1,note_on,73,0,160
1,note_on,85,49,0
1,note_on,85,0,160
1,note_on,82,49,0
1,note_on,82,0,160
1,note_on,77,53,0
1,note_on,77,0,160
1,note_on,73,48,0
1,note_on,73,0,160
1,note_on,70,46,0
1,note_on,70,0,160
1,note_on,65,51,0
1,note_on,65,0,160
1,note_on,61,46,0
1,note_on,61,0,160
1,note_on,58,46,0
1,note_on,58,0,160
1,note_on,61,57,0
1,note_on,61,0,160
1,note_on,65,50,0
1,note_on,65,0,160
1,note_on,70,50,0
1,note_on,70,0,160
1,note_on,73,53,0
1,note_on,73,0,160
1,note_on,85,49,0
1,note_on,85,0,160
1,note_on,82,49,0
1,note_on,82,0,160
1,note_on,77,53,0
1,note_on,77,0,160
1,note_on,73,48,0
1,note_on,73,0,160
1,note_on,70,46,0
1,note_on,70,0,160
1,note_on,65,51,0
1,note_on,65,0,160
1,note_on,61,46,0
1,note_on,61,0,160
1,note_on,58,46,0
1,note_on,58,0,160
1,note_on,61,53,0
1,note_on,61,0,160
1,note_on,65,50,0
1,note_on,65,0,160
1,note_on,70,50,0
1,note_on,70,0,160
1,note_on,73,60,0
1,note_on,73,0,160
1,note_on,70,57,0
1,note_on,70,0,160
1,note_on,65,57,0
1,note_on,65,0,160
1,note_on,77,66,0
1,note_on,77,0,160
1,note_on,73,61,0
1,note_on,73,0,160
1,note_on,70,61,0
1,note_on,70,0,160
1,note_on,82,71,0
1,note_on,82,0,160
1,note_on,76,64,0
1,note_on,76,0,160
1,note_on,73,64,0
1,note_on,73,0,160
1,note_on,84,77,0
1,note_on,80,77,0
1,note_on,80,0,160
1,note_on,84,0,0
1,note_on,78,69,0
1,note_on,78,0,160
1,note_on,75,69,0
1,note_on,75,0,160
1,note_on,77,86,0
1,note_on,77,0,160
1,note_on,89,77,0
1,note_on,89,0,160
1,note_on,85,72,0
1,note_on,85,0,160
1,note_on,80,75,0
1,note_on,80,0,160
1,note_on,77,68,0
1,note_on,77,0,160
1,note_on,73,60,0
1,note_on,73,0,160
1,note_on,68,57,0
1,note_on,68,0,160
1,note_on,65,49,0
1,note_on,65,0,160
1,note_on,61,47,0
1,note_on,61,0,160
1,note_on,53,40,2400
1,note_on,56,40,0
1,note_on,61,47,0
1,note_on,61,0,960
1,note_on,56,0,0
1,note_on,53,0,0
1,note_on,65,46,0
1,note_on,65,0,240
1,note_on,68,46,240
1,note_on,68,0,240
1,note_on,54,40,240
1,note_on,58,40,0
1,note_on,63,47,0
1,note_on,63,0,960
1,note_on,58,0,0
1,note_on,54,0,0
1,note_on,66,45,0
1,note_on,66,0,240
1,note_on,70,45,240
1,note_on,70,0,240
1,note_on,70,48,240
1,note_on,70,0,240
1,note_on,68,45,0
1,note_on,68,0,240
1,note_on,60,40,0
1,note_on,68,48,0
1,note_on,68,0,240
1,note_on,66,45,0
1,note_on,60,0,235
1,note_on,66,0,5
1,note_on,60,42,0
1,note_on,66,50,0
1,note_on,66,0,240
1,note_on,65,45,0
1,note_on,60,0,235
1,note_on,65,0,5
1,note_on,60,41,0
1,note_on,65,49,0
1,note_on,65,0,240
1,note_on,64,45,0
1,note_on,60,0,235
1,note_on,64,0,5
1,note_on,61,45,0
1,note_on,65,45,0
1,note_on,65,0,1920
1,note_on,61,0,0
1,note_on,53,40,0
1,note_on,56,40,0
1,note_on,61,47,0
1,note_on,61,0,960
1,note_on,56,0,0
1,note_on,53,0,0
1,note_on,65,46,0
1,note_on,65,0,240
1,note_on,68,46,240
1,note_on,68,0,240
1,note_on,54,40,240
1,note_on,57,40,0
1,note_on,63,47,0
1,note_on,63,0,960
1,note_on,57,0,0
1,note_on,54,0,0
1,note_on,66,45,0
1,note_on,66,0,240
1,note_on,69,45,240
1,note_on,69,0,240
1,note_on,69,48,240
1,note_on,69,0,240
1,note_on,68,45,0
1,note_on,68,0,240
1,note_on,63,40,0
1,note_on,71,48,0
1,note_on,71,0,240
1,note_on,69,45,0
1,note_on,69,0,240
1,note_on,63,0,0
1,note_on,63,42,0
1,note_on,69,50,0
1,note_on,69,0,240
1,note_on,68,45,0
1,note_on,68,0,240
1,note_on,63,0,0
1,note_on,63,41,0
1,note_on,68,49,0
1,note_on,68,0,240
1,note_on,67,45,0
1,note_on,67,0,240
1,note_on,63,0,0
1,note_on,64,45,0
1,note_on,68,45,0
1,note_on,68,0,1920
1,note_on,64,0,0
1,note_on,64,35,0
1,note_on,64,0,228
1,note_on,64,35,12
1,note_on,64,0,228
1,note_on,64,35,12
1,note_on,64,0,228
1,note_on,64,35,12
1,note_on,64,0,228
1,note_on,64,35,12
1,note_on,64,0,228
1,note_on,64,35,12
1,note_on,64,0,228
1,note_on,64,35,12
1,note_on,64,0,228
1,note_on,64,35,12
1,note_on,64,0,228
1,note_on,65,35,12
1,note_on,64,35,0
1,note_on,64,0,228
1,note_on,65,0,0
1,note_on,65,35,12
1,note_on,64,35,0
1,note_on,64,0,228
1,note_on,65,0,0
1,note_on,65,35,12
1,note_on,64,35,0
1,note_on,64,0,228
1,note_on,65,0,0
1,note_on,65,35,12
1,note_on,64,35,0
1,note_on,64,0,228
1,note_on,65,0,0
1,note_on,65,35,12
1,note_on,64,35,0
1,note_on,64,0,228
1,note_on,65,0,0
1,note_on,65,35,12
1,note_on,64,35,0
1,note_on,64,0,228
1,note_on,65,0,0
1,note_on,65,35,12
1,note_on,64,35,0
1,note_on,64,0,228
1,note_on,65,0,0
1,note_on,65,35,12
1,note_on,64,35,0
1,note_on,64,0,228
1,note_on,65,0,0
1,note_on,64,36,12
1,note_on,65,36,0
1,note_on,65,0,228
1,note_on,64,0,0
1,note_on,64,38,12
1,note_on,65,38,0
1,note_on,65,0,228
1,note_on,64,0,0
1,note_on,64,39,12
1,note_on,65,39,0
1,note_on,65,0,228
1,note_on,64,0,0
1,note_on,64,41,12
1,note_on,65,41,0
1,note_on,65,0,228
1,note_on,64,0,0
1,note_on,62,43,12
1,note_on,65,43,0
1,note_on,65,0,228
1,note_on,62,0,0
1,note_on,62,45,12
1,note_on,65,45,0
1,note_on,65,0,228
1,note_on,62,0,0
1,note_on,60,47,12
1,note_on,62,47,0
1,note_on,66,47,0
1,note_on,66,0,228
1,note_on,62,0,0
1,note_on,60,0,0
1,note_on,60,48,12
1,note_on,62,48,0
1,note_on,66,48,0
1,note_on,66,0,228
1,note_on,62,0,0
1,note_on,60,0,0
1,note_on,59,49,12
1,note_on,62,49,0
1,note_on,67,49,0
1,note_on,67,0,228
1,note_on,62,0,0
1,note_on,59,0,0
1,note_on,59,48,12
1,note_on,62,48,0
1,note_on,67,48,0
1,note_on,67,0,228
1,note_on,62,0,0
1,note_on,59,0,0
1,note_on,59,46,12
1,note_on,62,46,0
1,note_on,67,46,0
1,note_on,67,0,228
1,note_on,62,0,0
1,note_on,59,0,0
1,note_on,59,44,12
1,note_on,62,44,0
1,note_on,67,44,0
1,note_on,67,0,228
1,note_on,62,0,0
1,note_on,59,0,0
1,note_on,60,42,12
1,note_on,64,42,0
1,note_on,67,42,0
1,note_on,67,0,228
1,note_on,64,0,0
1,note_on,60,0,0
1,note_on,60,40,12
1,note_on,64,40,0
1,note_on,67,40,0
1,note_on,67,0,228
1,note_on,64,0,0
1,note_on,60,0,0
1,note_on,59,38,12
1,note_on,65,38,0
1,note_on,67,38,0
1,note_on,67,0,228
1,note_on,65,0,0
1,note_on,59,0,0
1,note_on,59,36,12
1,note_on,65,36,0
1,note_on,67,36,0
1,note_on,67,0,228
1,note_on,65,0,0
1,note_on,59,0,0
1,note_on,72,41,12
1,note_on,72,0,228
1,note_on,72,41,12
1,note_on,72,0,228
1,note_on,72,42,12
1,note_on,72,0,228
1,note_on,72,42,12
1,note_on,72,0,228
1,note_on,72,42,12
1,note_on,72,0,228
1,note_on,72,43,12
1,note_on,72,0,228
1,note_on,72,43,12
1,note_on,72,0,228
1,note_on,72,44,12
1,note_on,72,0,228
1,note_on,73,45,12
1,note_on,72,45,0
1,note_on,72,0,228
1,note_on,73,0,0
1,note_on,73,45,12
1,note_on,72,45,0
1,note_on,72,0,228
1,note_on,73,0,0
1,note_on,73,45,12
1,note_on,72,45,0
1,note_on,72,0,228
1,note_on,73,0,0
1,note_on,73,45,12
1,note_on,72,45,0
1,note_on,72,0,228
1,note_on,73,0,0
1,note_on,73,47,12
1,note_on,72,47,0
1,note_on,72,0,228
1,note_on,73,0,0
1,note_on,73,47,12
1,note_on,72,47,0
1,note_on,72,0,228
1,note_on,73,0,0
1,note_on,73,47,12
1,note_on,72,47,0
1,note_on,72,0,228
1,note_on,73,0,0
1,note_on,73,47,12
1,note_on,72,47,0
1,note_on,72,0,228
1,note_on,73,0,0
1,note_on,72,51,12
1,note_on,73,51,0
1,note_on,73,0,228
1,note_on,72,0,0
1,note_on,72,53,12
1,note_on,73,53,0
1,note_on,73,0,228
1,note_on,72,0,0
1,note_on,72,55,12
1,note_on,73,55,0
1,note_on,73,0,228
1,note_on,72,0,0
1,note_on,72,59,12
1,note_on,73,59,0
1,note_on,73,0,228
1,note_on,72,0,0
1,note_on,70,61,12
1,note_on,73,61,0
1,note_on,73,0,228
1,note_on,70,0,0
1,note_on,70,63,12
1,note_on,73,63,0
1,note_on,73,0,228
1,note_on,70,0,0
1,note_on,68,68,12
1,note_on,70,68,0
1,note_on,74,68,0
1,note_on,74,0,228
1,note_on,70,0,0
1,note_on,68,0,0
1,note_on,68,69,12
1,note_on,70,69,0
1,note_on,74,69,0
1,note_on,74,0,228
1,note_on,70,0,0
1,note_on,68,0,0
1,note_on,67,59,12
1,note_on,70,59,0
1,note_on,75,70,0
1,note_on,75,0,228
1,note_on,70,0,0
1,note_on,67,0,0
1,note_on,67,67,12
1,note_on,70,67,0
1,note_on,75,67,0
1,note_on,75,0,228
1,note_on,70,0,0
1,note_on,67,0,0
1,note_on,68,56,12
1,note_on,71,56,0
1,note_on,75,66,0
1,note_on,75,0,228
1,note_on,71,0,0
1,note_on,68,0,0
1,note_on,68,55,12
1,note_on,71,55,0
1,note_on,75,64,0
1,note_on,75,0,228
1,note_on,71,0,0
1,note_on,68,0,0
1,note_on,67,53,12
1,note_on,73,53,0
1,note_on,75,63,0
1,note_on,75,0,228
1,note_on,73,0,0
1,note_on,67,0,0
1,note_on,67,52,12
1,note_on,73,52,0
1,note_on,75,62,0
1,note_on,75,0,228
1,note_on,73,0,0
1,note_on,67,0,0
1,note_on,68,51,12
1,note_on,71,51,0
1,note_on,75,61,0
1,note_on,75,0,228
1,note_on,71,0,0
1,note_on,68,0,0
1,note_on,75,60,12
1,note_on,75,0,228
1,note_on,75,67,12
1,note_on,76,80,0
1,note_on,76,0,160
1,note_on,75,0,0
1,note_on,64,70,0
1,note_on,64,0,160
1,note_on,75,60,0
1,note_on,76,70,0
1,note_on,76,0,120
1,note_on,75,0,0
1,note_on,75,67,40
1,note_on,76,79,0
1,note_on,76,0,160
1,note_on,75,0,0
1,note_on,64,72,0
1,note_on,64,0,160
1,note_on,75,61,0
1,note_on,76,72,0
1,note_on,76,0,120
1,note_on,75,0,0
1,note_on,73,67,40
1,note_on,76,79,0
1,note_on,76,0,160
1,note_on,73,0,0
1,note_on,64,70,0
1,note_on,64,0,160
1,note_on,73,60,0
1,note_on,76,70,0
1,note_on,76,0,120
1,note_on,73,0,0
1,note_on,71,67,40
1,note_on,73,67,0
1,note_on,77,79,0
1,note_on,77,0,160
1,note_on,73,0,0
1,note_on,71,0,0
1,note_on,65,69,0
1,note_on,65,0,160
1,note_on,71,60,0
1,note_on,73,60,0
1,note_on,77,70,0
1,note_on,77,0,120
1,note_on,73,0,0
1,note_on,71,0,0
1,note_on,70,67,40
1,note_on,73,67,0
1,note_on,78,80,0
1,note_on,78,0,160
1,note_on,73,0,0
1,note_on,70,0,0
1,note_on,66,70,0
1,note_on,66,0,160
1,note_on,70,69,0
1,note_on,73,61,0
1,note_on,78,72,0
1,note_on,78,0,160
1,note_on,73,0,0
1,note_on,70,0,0
1,note_on,71,63,0
1,note_on,74,69,0
1,note_on,78,82,0
1,note_on,78,0,160
1,note_on,74,0,0
1,note_on,71,0,0
1,note_on,66,75,0
1,note_on,66,0,160
1,note_on,71,64,0
1,note_on,74,64,0
1,note_on,78,77,0
1,note_on,78,0,160
1,note_on,74,0,0
1,note_on,71,0,0
1,note_on,70,69,0
1,note_on,76,69,0
1,note_on,78,82,0
1,note_on,78,0,160
1,note_on,76,0,0
1,note_on,70,0,0
1,note_on,66,73,0
1,note_on,66,0,160
1,note_on,70,68,0
1,note_on,76,61,0
1,note_on,78,73,0
1,note_on,78,0,160
1,note_on,76,0,0
1,note_on,70,0,0
1,note_on,71,67,0
1,note_on,74,67,0
1,note_on,78,80,0
1,note_on,78,0,160
1,note_on,74,0,0
1,note_on,71,0,0
1,note_on,66,70,0
1,note_on,66,0,160
1,note_on,71,60,0
1,note_on,74,60,0
1,note_on,78,70,0
1,note_on,78,0,160
1,note_on,74,0,0
1,note_on,71,0,0
1,note_on,78,67,0
1,note_on,79,80,0
1,note_on,79,0,160
1,note_on,78,0,0
1,note_on,67,70,0
1,note_on,67,0,160
1,note_on,78,60,0
1,note_on,79,70,0
1,note_on,79,0,120
1,note_on,78,0,0
1,note_on,78,67,40
1,note_on,79,80,0
1,note_on,79,0,160
1,note_on,78,0,0
1,note_on,67,73,0
1,note_on,67,0,160
1,note_on,78,62,0
1,note_on,79,74,0
1,note_on,79,0,120
1,note_on,78,0,0
1,note_on,76,69,40
1,note_on,79,82,0
1,note_on,79,0,160
1,note_on,76,0,0
1,note_on,67,73,0
1,note_on,67,0,160
1,note_on,76,62,0
1,note_on,79,74,0
1,note_on,79,0,120
1,note_on,76,0,0
1,note_on,74,70,40
1,note_on,76,70,0
1,note_on,80,84,0
1,note_on,80,0,160
1,note_on,76,0,0
1,note_on,74,0,0
1,note_on,68,74,0
1,note_on,68,0,160
1,note_on,74,64,0
1,note_on,76,64,0
1,note_on,80,77,0
1,note_on,80,0,120
1,note_on,76,0,0
1,note_on,74,0,0
1,note_on,73,74,40
1,note_on,76,74,0
1,note_on,81,88,0
1,note_on,81,0,160
1,note_on,76,0,0
1,note_on,73,0,0
1,note_on,69,77,0
1,note_on,69,0,160
1,note_on,73,74,0
1,note_on,76,66,0
1,note_on,81,78,0
1,note_on,81,0,120
1,note_on,76,0,0
1,note_on,73,0,0
1,note_on,73,67,40
1,note_on,76,74,0
1,note_on,81,88,0
1,note_on,81,0,160
1,note_on,76,0,0
1,note_on,73,0,0
1,note_on,69,80,0
1,note_on,69,0,160
1,note_on,73,68,0
1,note_on,76,68,0
1,note_on,81,81,0
1,note_on,81,0,120
1,note_on,76,0,0
1,note_on,73,0,0
1,note_on,74,67,40
1,note_on,77,75,0
1,note_on,81,90,0
1,note_on,81,0,160
1,note_on,77,0,0
1,note_on,74,0,0
1,note_on,69,80,0
1,note_on,69,0,160
1,note_on,74,68,0
1,note_on,77,68,0
1,note_on,81,81,0
1,note_on,81,0,120
1,note_on,77,0,0
1,note_on,74,0,0
1,note_on,73,78,40
1,note_on,79,78,0
1,note_on,81,92,0
1,note_on,81,0,160
1,note_on,79,0,0
1,note_on,73,0,0
1,note_on,69,81,0
1,note_on,69,0,160
1,note_on,73,70,0
1,note_on,79,70,0
1,note_on,81,84,0
1,note_on,81,0,120
1,note_on,79,0,0
1,note_on,73,0,0
1,note_on,74,81,40
1,note_on,77,81,0
1,note_on,81,96,0
1,note_on,81,0,160
1,note_on,77,0,0
1,note_on,74,0,0
1,note_on,69,84,0
1,note_on,69,0,160
1,note_on,74,81,0
1,note_on,77,70,0
1,note_on,81,84,0
1,note_on,81,0,120
1,note_on,77,0,0
1,note_on,74,0,0
1,note_on,73,73,40
1,note_on,79,80,0
1,note_on,81,94,0
1,note_on,81,0,160
1,note_on,79,0,0
1,note_on,73,0,0
1,note_on,69,86,0
1,note_on,69,0,160
1,note_on,73,73,0
1,note_on,79,73,0
1,note_on,81,86,0
1,note_on,81,0,120
1,note_on,79,0,0
1,note_on,73,0,0
1,note_on,74,70,40
1,note_on,77,80,0
1,note_on,81,94,0
1,note_on,81,0,160
1,note_on,77,0,0
1,note_on,74,0,0
1,note_on,69,84,0
1,note_on,69,0,160
1,note_on,74,70,0
1,note_on,77,70,0
1,note_on,81,84,0
1,note_on,81,0,120
1,note_on,77,0,0
1,note_on,74,0,0
1,note_on,73,80,40
1,note_on,79,80,0
1,note_on,81,94,0
1,note_on,81,0,160
1,note_on,79,0,0
1,note_on,73,0,0
1,note_on,69,82,0
1,note_on,69,0,160
1,note_on,73,70,0
1,note_on,79,70,0
1,note_on,81,84,0
1,note_on,81,0,120
1,note_on,79,0,0
1,note_on,73,0,0
1,note_on,86,96,40
1,note_on,77,81,0
1,note_on,81,81,0
1,note_on,81,0,160
1,note_on,77,0,0
1,note_on,86,0,0
1,note_on,74,84,0
1,note_on,74,0,160
1,note_on,86,97,0
1,note_on,77,72,0
1,note_on,81,72,0
1,note_on,81,0,120
1,note_on,77,0,0
1,note_on,86,0,0
1,note_on,85,88,40
1,note_on,79,81,0
1,note_on,81,81,0
1,note_on,81,0,160
1,note_on,79,0,0
1,note_on,85,0,0
1,note_on,73,88,0
1,note_on,73,0,160
1,note_on,85,89,0
1,note_on,79,74,0
1,note_on,81,74,0
1,note_on,81,0,120
1,note_on,79,0,0
1,note_on,85,0,0
1,note_on,86,88,40
1,note_on,77,81,0
1,note_on,81,81,0
1,note_on,81,0,160
1,note_on,77,0,0
1,note_on,86,0,0
1,note_on,74,88,0
1,note_on,74,0,160
1,note_on,86,89,0
1,note_on,77,74,0
1,note_on,81,74,0
1,note_on,81,0,120
1,note_on,77,0,0
1,note_on,86,0,0
1,note_on,85,100,40
1,note_on,79,84,0
1,note_on,81,84,0
1,note_on,81,0,160
1,note_on,79,0,0
1,note_on,85,0,0
1,note_on,73,89,0
1,note_on,73,0,160
1,note_on,85,91,0
1,note_on,79,77,0
1,note_on,81,77,0
1,note_on,81,0,120
1,note_on,79,0,0
1,note_on,85,0,0
1,note_on,74,88,40
1,note_on,77,88,0
1,note_on,81,88,0
1,note_on,86,103,0
1,note_on,86,0,240
1,note_on,74,0,0
1,note_on,77,0,0
1,note_on,81,0,0
1,note_on,74,71,1680
1,note_on,74,0,960
1,note_on,77,61,0
1,note_on,77,0,240
1,note_on,81,61,240
1,note_on,81,0,240
1,note_on,69,71,240
1,note_on,69,0,956
1,note_on,77,59,4
1,note_on,77,0,240
1,note_on,81,59,240
1,note_on,81,0,240
1,note_on,74,71,240
1,note_on,74,0,960
1,note_on,77,60,0
1,note_on,77,0,240
1,note_on,81,60,240
1,note_on,81,0,240
1,note_on,84,66,240
1,note_on,84,0,240
1,note_on,81,57,0
1,note_on,81,0,228
1,note_on,81,60,12
1,note_on,81,0,240
1,note_on,79,55,0
1,note_on,79,0,228
1,note_on,79,58,12
1,note_on,79,0,240
1,note_on,77,54,0
1,note_on,77,0,228
1,note_on,77,56,12
1,note_on,77,0,240
1,note_on,76,52,0
1,note_on,76,0,228
1,note_on,76,55,12
1,note_on,76,0,240
1,note_on,77,51,0
1,note_on,77,0,228
1,note_on,77,56,12
1,note_on,77,0,240
1,note_on,74,52,0
1,note_on,74,0,228
1,note_on,74,55,12
1,note_on,74,0,240
1,note_on,72,50,0
1,note_on,72,0,228
1,note_on,74,55,12
1,note_on,74,0,240
1,note_on,72,51,0
1,note_on,72,0,228
1,note_on,69,52,12
1,note_on,69,0,228
1,note_on,69,31,12
1,note_on,65,25,0
1,note_on,62,21,0
1,note_on,62,0,228
1,note_on,65,0,0
1,note_on,69,0,0
1,note_on,69,32,12
1,note_on,65,26,0
1,note_on,62,22,0
1,note_on,62,0,228
1,note_on,65,0,0
1,note_on,69,0,0
1,note_on,69,32,12
1,note_on,65,26,0
1,note_on,62,22,0
1,note_on,62,0,228
1,note_on,65,0,0
1,note_on,69,0,0
1,note_on,69,31,12
1,note_on,65,25,0
1,note_on,62,21,0
1,note_on,62,0,228
1,note_on,65,0,0
1,note_on,69,0,0
1,note_on,69,31,12
1,note_on,65,25,0
1,note_on,62,21,0
1,note_on,62,0,228
1,note_on,65,0,0
1,note_on,69,0,0
1,note_on,69,29,12
1,note_on,65,24,0
1,note_on,62,20,0
1,note_on,62,0,228
1,note_on,65,0,0
1,note_on,69,0,0
1,note_on,69,29,12
1,note_on,65,24,0
1,note_on,62,20,0
1,note_on,62,0,228
1,note_on,65,0,0
1,note_on,69,0,0
1,note_on,74,32,12
1,note_on,69,27,0
1,note_on,65,22,0
1,note_on,65,0,228
1,note_on,69,0,0
1,note_on,74,0,0
1,note_on,74,32,12
1,note_on,69,27,0
1,note_on,65,22,0
1,note_on,65,0,228
1,note_on,69,0,0
1,note_on,74,0,0
1,note_on,74,32,12
1,note_on,69,27,0
1,note_on,65,22,0
1,note_on,65,0,228
1,note_on,69,0,0
1,note_on,74,0,0
1,note_on,74,32,12
1,note_on,69,27,0
1,note_on,65,22,0
1,note_on,65,0,228
1,note_on,69,0,0
1,note_on,74,0,0
1,note_on,74,32,12
1,note_on,69,27,0
1,note_on,65,22,0
1,note_on,65,0,228
1,note_on,69,0,0
1,note_on,74,0,0
1,note_on,74,32,12
1,note_on,69,27,0
1,note_on,65,22,0
1,note_on,65,0,228
1,note_on,69,0,0
1,note_on,74,0,0
1,note_on,74,32,12
1,note_on,69,27,0
1,note_on,65,22,0
1,note_on,65,0,228
1,note_on,69,0,0
1,note_on,74,0,0
1,note_on,74,32,12
1,note_on,69,27,0
1,note_on,65,22,0
1,note_on,74,0,224
1,note_on,65,0,4
1,note_on,69,0,0
1,note_on,65,22,12
1,note_on,69,27,0
1,note_on,73,32,0
1,note_on,73,0,228
1,note_on,69,0,0
1,note_on,65,0,0
1,note_on,65,22,12
1,note_on,69,27,0
1,note_on,73,32,0
1,note_on,73,0,228
1,note_on,69,0,0
1,note_on,65,0,0
1,note_on,65,22,12
1,note_on,69,27,0
1,note_on,73,32,0
1,note_on,73,0,228
1,note_on,69,0,0
1,note_on,65,0,0
1,note_on,65,22,12
1,note_on,69,27,0
1,note_on,73,32,0
1,note_on,73,0,228
1,note_on,69,0,0
1,note_on,65,0,0
1,note_on,65,22,12
1,note_on,69,27,0
1,note_on,73,32,0
1,note_on,73,0,228
1,note_on,69,0,0
1,note_on,65,0,0
1,note_on,65,22,12
1,note_on,69,27,0
1,note_on,73,32,0
1,note_on,73,0,228
1,note_on,69,0,0
1,note_on,65,0,0
1,note_on,65,22,12
1,note_on,69,27,0
1,note_on,73,32,0
1,note_on,73,0,228
1,note_on,69,0,0
1,note_on,65,0,0
1,note_on,65,22,12
1,note_on,69,27,0
1,note_on,73,32,0
1,note_on,73,0,228
1,note_on,69,0,0
1,note_on,65,0,0
1,note_on,69,27,12
1,note_on,65,22,0
1,note_on,74,32,0
1,note_on,74,0,228
1,note_on,65,0,0
1,note_on,69,0,0
1,note_on,69,27,12
1,note_on,65,22,0
1,note_on,74,32,0
1,note_on,74,0,228
1,note_on,65,0,0
1,note_on,69,0,0
1,note_on,69,27,12
1,note_on,65,22,0
1,note_on,74,32,0
1,note_on,74,0,228
1,note_on,65,0,0
1,note_on,69,0,0
1,note_on,65,22,12
1,note_on,74,32,0
1,note_on,69,27,0
1,note_on,69,0,228
1,note_on,74,0,0
1,note_on,65,0,0
1,note_on,74,32,12
1,note_on,69,27,0
1,note_on,65,22,0
1,note_on,65,0,228
1,note_on,69,0,0
1,note_on,74,0,0
1,note_on,74,32,12
1,note_on,69,27,0
1,note_on,65,22,0
1,note_on,65,0,228
1,note_on,69,0,0
1,note_on,74,0,0
1,note_on,73,33,12
1,note_on,69,27,0
1,note_on,65,22,0
1,note_on,65,0,228
1,note_on,69,0,0
1,note_on,73,0,0
1,note_on,73,34,12
1,note_on,69,28,0
1,note_on,65,23,0
1,note_on,65,0,228
1,note_on,69,0,0
1,note_on,73,0,0
1,note_on,65,27,12
1,note_on,69,32,0
1,note_on,72,39,0
1,note_on,72,0,228
1,note_on,69,0,0
1,note_on,65,0,0
1,note_on,65,27,12
1,note_on,69,32,0
1,note_on,72,39,0
1,note_on,72,0,228
1,note_on,69,0,0
1,note_on,65,0,0
1,note_on,65,26,12
1,note_on,69,31,0
1,note_on,72,37,0
1,note_on,72,0,228
1,note_on,69,0,0
1,note_on,65,0,0
1,note_on,65,26,12
1,note_on,69,31,0
1,note_on,72,37,0
1,note_on,72,0,228
1,note_on,69,0,0
1,note_on,65,0,0
1,note_on,65,24,12
1,note_on,69,29,0
1,note_on,72,35,0
1,note_on,72,0,228
1,note_on,69,0,0
1,note_on,65,0,0
1,note_on,65,24,12
1,note_on,69,29,0
1,note_on,72,35,0
1,note_on,72,0,228
1,note_on,69,0,0
1,note_on,65,0,0
1,note_on,65,23,12
1,note_on,69,28,0
1,note_on,73,34,0
1,note_on,73,0,228
1,note_on,69,0,0
1,note_on,65,0,0
1,note_on,65,23,12
1,note_on,69,28,0
1,note_on,73,34,0
1,note_on,73,0,228
1,note_on,69,0,0
1,note_on,65,0,0
1,note_on,65,32,12
1,note_on,69,38,0
1,note_on,74,38,0
1,note_on,74,0,228
1,note_on,69,0,0
1,note_on,65,0,0
1,note_on,65,32,12
1,note_on,69,38,0
1,note_on,74,38,0
1,note_on,74,0,228
1,note_on,69,0,0
1,note_on,65,0,0
1,note_on,77,38,12
1,note_on,65,32,0
1,note_on,69,38,0
1,note_on,69,0,228
1,note_on,65,0,0
1,note_on,77,0,0
1,note_on,77,38,12
1,note_on,65,32,0
1,note_on,69,38,0
1,note_on,69,0,228
1,note_on,65,0,0
1,note_on,77,0,0
1,note_on,81,38,12
1,note_on,69,32,0
1,note_on,69,0,228
1,note_on,81,0,0
1,note_on,81,38,12
1,note_on,69,32,0
1,note_on,69,0,228
1,note_on,81,0,0
1,note_on,70,32,12
1,note_on,76,38,0
1,note_on,82,38,0
1,note_on,82,0,228
1,note_on,76,0,0
1,note_on,70,0,0
1,note_on,70,32,12
1,note_on,76,38,0
1,note_on,82,38,0
1,note_on,82,0,228
1,note_on,76,0,0
1,note_on,70,0,0
1,note_on,69,32,12
1,note_on,77,32,0
1,note_on,81,38,0
1,note_on,81,0,240
1,note_on,77,0,0
1,note_on,69,0,0
1,note_on,69,27,0
1,note_on,65,23,0
1,note_on,62,19,0
1,note_on,62,0,228
1,note_on,65,0,0
1,note_on,69,0,0
1,note_on,69,27,12
1,note_on,65,23,0
1,note_on,62,19,0
1,note_on,62,0,228
1,note_on,65,0,0
1,note_on,69,0,0
1,note_on,69,27,12
1,note_on,65,23,0
1,note_on,62,19,0
1,note_on,62,0,228
1,note_on,65,0,0
1,note_on,69,0,0
1,note_on,69,27,12
1,note_on,65,23,0
1,note_on,62,19,0
1,note_on,62,0,228
1,note_on,65,0,0
1,note_on,69,0,0
1,note_on,69,27,12
1,note_on,65,23,0
1,note_on,62,19,0
1,note_on,62,0,228
1,note_on,65,0,0
1,note_on,69,0,0
1,note_on,69,27,12
1,note_on,65,23,0
1,note_on,62,19,0
1,note_on,62,0,228
1,note_on,65,0,0
1,note_on,69,0,0
1,note_on,69,27,12
1,note_on,65,23,0
1,note_on,62,19,0
1,note_on,62,0,228
1,note_on,65,0,0
1,note_on,69,0,0
1,note_on,62,19,12
1,note_on,65,23,0
1,note_on,69,27,0
1,note_on,69,0,228
1,note_on,65,0,0
1,note_on,62,0,0
1,note_on,69,27,12
1,note_on,65,23,0
1,note_on,62,19,0
1,note_on,62,0,228
1,note_on,65,0,0
1,note_on,69,0,0
1,note_on,69,27,12
1,note_on,65,23,0
1,note_on,62,19,0
1,note_on,62,0,228
1,note_on,65,0,0
1,note_on,69,0,0
1,note_on,69,27,12
1,note_on,65,23,0
1,note_on,62,19,0
1,note_on,62,0,228
1,note_on,65,0,0
1,note_on,69,0,0
1,note_on,69,27,12
1,note_on,65,23,0
1,note_on,62,19,0
1,note_on,62,0,228
1,note_on,65,0,0
1,note_on,69,0,0
1,note_on,69,27,12
1,note_on,65,23,0
1,note_on,62,19,0
1,note_on,62,0,228
1,note_on,65,0,0
1,note_on,69,0,0
1,note_on,69,27,12
1,note_on,65,23,0
1,note_on,62,19,0
1,note_on,62,0,228
1,note_on,65,0,0
1,note_on,69,0,0
1,note_on,69,27,12
1,note_on,65,23,0
1,note_on,62,19,0
1,note_on,62,0,228
1,note_on,65,0,0
1,note_on,69,0,0
1,note_on,69,27,12
1,note_on,65,23,0
1,note_on,62,19,0
1,note_on,62,0,228
1,note_on,65,0,0
1,note_on,69,0,0
1,note_on,69,27,12
1,note_on,65,23,0
1,note_on,62,19,0
1,note_on,62,0,228
1,note_on,65,0,0
1,note_on,69,0,0
1,note_on,69,27,12
1,note_on,65,23,0
1,note_on,62,19,0
1,note_on,62,0,228
1,note_on,65,0,0
1,note_on,69,0,0
1,note_on,69,27,12
1,note_on,65,23,0
1,note_on,62,19,0
1,note_on,62,0,228
1,note_on,65,0,0
1,note_on,69,0,0
1,note_on,77,50,492
1,note_on,77,0,480
1,note_on,77,54,0
1,note_on,77,0,480
1,note_on,76,52,0
1,note_on,76,0,480
1,note_on,77,54,0
1,note_on,77,0,480
1,note_on,79,51,0
1,note_on,79,0,480
1,note_on,81,54,0
1,note_on,81,0,1440
1,note_on,79,54,0
1,note_on,79,0,240
1,note_on,77,54,0
1,note_on,77,0,240
1,note_on,79,54,0
1,note_on,79,0,480
1,note_on,79,54,0
1,note_on,79,0,480
1,note_on,79,54,0
1,note_on,79,0,480
1,note_on,77,54,0
1,note_on,77,0,240
1,note_on,76,54,0
1,note_on,76,0,240
1,note_on,77,54,0
1,note_on,77,0,480
1,note_on,69,27,480
1,note_on,65,23,0
1,note_on,62,19,0
1,note_on,62,0,228
1,note_on,65,0,0
1,note_on,69,0,0
1,note_on,69,27,12
1,note_on,65,23,0
1,note_on,62,19,0
1,note_on,62,0,228
1,note_on,65,0,0
1,note_on,69,0,0
1,note_on,69,27,12
1,note_on,65,23,0
1,note_on,62,19,0
1,note_on,62,0,228
1,note_on,65,0,0
1,note_on,69,0,0
1,note_on,69,27,12
1,note_on,65,23,0
1,note_on,62,19,0
1,note_on,62,0,228
1,note_on,65,0,0
1,note_on,69,0,0
1,note_on,62,19,12
1,note_on,65,23,0
1,note_on,69,27,0
1,note_on,69,0,228
1,note_on,65,0,0
1,note_on,62,0,0
1,note_on,69,27,12
1,note_on,65,23,0
1,note_on,62,19,0
1,note_on,62,0,228
1,note_on,65,0,0
1,note_on,69,0,0
1,note_on,69,27,12
1,note_on,65,23,0
1,note_on,62,19,0
1,note_on,62,0,228
1,note_on,65,0,0
1,note_on,69,0,0
1,note_on,69,27,12
1,note_on,65,23,0
1,note_on,62,19,0
1,note_on,62,0,228
1,note_on,65,0,0
1,note_on,69,0,0
1,note_on,69,27,12
1,note_on,65,23,0
1,note_on,62,19,0
1,note_on,62,0,228
1,note_on,65,0,0
1,note_on,69,0,0
1,note_on,69,27,12
1,note_on,65,23,0
1,note_on,62,19,0
1,note_on,62,0,228
1,note_on,65,0,0
1,note_on,69,0,0
1,note_on,69,27,12
1,note_on,65,23,0
1,note_on,62,19,0
1,note_on,62,0,228
1,note_on,65,0,0
1,note_on,69,0,0
1,note_on,69,27,12
1,note_on,65,23,0
1,note_on,62,19,0
1,note_on,62,0,228
1,note_on,65,0,0
1,note_on,69,0,0
1,note_on,70,27,12
1,note_on,65,23,0
1,note_on,62,19,0
1,note_on,62,0,228
1,note_on,65,0,0
1,note_on,70,0,0
1,note_on,70,27,12
1,note_on,65,23,0
1,note_on,62,19,0
1,note_on,62,0,228
1,note_on,65,0,0
1,note_on,70,0,0
1,note_on,70,27,12
1,note_on,65,23,0
1,note_on,62,19,0
1,note_on,62,0,228
1,note_on,65,0,0
1,note_on,70,0,0
1,note_on,70,27,12
1,note_on,65,23,0
1,note_on,62,19,0
1,note_on,62,0,228
1,note_on,65,0,0
1,note_on,70,0,0
1,note_on,82,52,492
1,note_on,82,0,480
1,note_on,82,56,0
1,note_on,82,0,480
1,note_on,81,54,0
1,note_on,81,0,480
1,note_on,82,56,0
1,note_on,82,0,480
1,note_on,84,53,0
1,note_on,84,0,480
1,note_on,86,60,0
1,note_on,86,0,1440
1,note_on,84,56,0
1,note_on,84,0,240
1,note_on,82,56,0
1,note_on,82,0,240
1,note_on,84,56,0
1,note_on,84,0,480
1,note_on,84,56,0
1,note_on,84,0,480
1,note_on,84,56,0
1,note_on,84,0,480
1,note_on,82,56,0
1,note_on,82,0,240
1,note_on,81,56,0
1,note_on,81,0,240
1,note_on,82,56,0
1,note_on,82,0,480
1,note_on,70,24,480
1,note_on,65,20,0
1,note_on,62,17,0
1,note_on,62,0,228
1,note_on,65,0,0
1,note_on,70,0,0
1,note_on,70,24,12
1,note_on,65,20,0
1,note_on,62,17,0
1,note_on,62,0,228
1,note_on,65,0,0
1,note_on,70,0,0
1,note_on,70,24,12
1,note_on,65,20,0
1,note_on,62,17,0
1,note_on,62,0,228
1,note_on,65,0,0
1,note_on,70,0,0
1,note_on,70,24,12
1,note_on,65,20,0
1,note_on,62,17,0
1,note_on,62,0,228
1,note_on,65,0,0
1,note_on,70,0,0
1,note_on,62,19,12
1,note_on,65,23,0
1,note_on,70,27,0
1,note_on,70,0,228
1,note_on,65,0,0
1,note_on,62,0,0
1,note_on,70,27,12
1,note_on,65,23,0
1,note_on,62,19,0
1,note_on,62,0,228
1,note_on,65,0,0
1,note_on,70,0,0
1,note_on,70,28,12
1,note_on,65,24,0
1,note_on,62,20,0
1,note_on,62,0,228
1,note_on,65,0,0
1,note_on,70,0,0
1,note_on,70,29,12
1,note_on,65,25,0
1,note_on,62,21,0
1,note_on,62,0,228
1,note_on,65,0,0
1,note_on,70,0,0
1,note_on,70,30,12
1,note_on,65,25,0
1,note_on,62,21,0
1,note_on,62,0,228
1,note_on,65,0,0
1,note_on,70,0,0
1,note_on,70,31,12
1,note_on,65,26,0
1,note_on,62,22,0
1,note_on,62,0,228
1,note_on,65,0,0
1,note_on,70,0,0
1,note_on,70,32,12
1,note_on,65,27,0
1,note_on,62,22,0
1,note_on,62,0,228
1,note_on,65,0,0
1,note_on,70,0,0
1,note_on,70,33,12
1,note_on,65,28,0
1,note_on,62,23,0
1,note_on,62,0,228
1,note_on,65,0,0
1,note_on,70,0,0
1,note_on,69,34,12
1,note_on,65,28,0
1,note_on,62,23,0
1,note_on,62,0,228
1,note_on,65,0,0
1,note_on,69,0,0
1,note_on,69,27,12
1,note_on,65,23,0
1,note_on,62,19,0
1,note_on,62,0,228
1,note_on,65,0,0
1,note_on,69,0,0
1,note_on,69,27,12
1,note_on,65,23,0
1,note_on,62,19,0
1,note_on,62,0,228
1,note_on,65,0,0
1,note_on,69,0,0
1,note_on,69,27,12
1,note_on,65,23,0
1,note_on,62,19,0
1,note_on,62,0,228
1,note_on,65,0,0
1,note_on,69,0,0
1,note_on,77,50,492
1,note_on,77,0,480
1,note_on,77,54,0
1,note_on,77,0,480
1,note_on,76,52,0
1,note_on,76,0,480
1,note_on,77,54,0
1,note_on,77,0,480
1,note_on,79,51,0
1,note_on,79,0,480
1,note_on,81,54,0
1,note_on,81,0,1440
1,note_on,79,54,0
1,note_on,79,0,240
1,note_on,77,53,0
1,note_on,77,0,240
1,note_on,79,54,0
1,note_on,79,0,480
1,note_on,79,54,0
1,note_on,79,0,480
1,note_on,79,54,0
1,note_on,79,0,480
1,note_on,77,54,0
1,note_on,77,0,240
1,note_on,76,50,0
1,note_on,76,0,240
1,note_on,77,66,0
1,note_on,77,0,2160
1,note_on,81,50,0
1,note_on,81,0,240
1,note_on,79,50,0
1,note_on,79,0,240
1,note_on,77,48,0
1,note_on,77,0,240
1,note_on,84,54,0
1,note_on,84,0,240
1,note_on,82,50,0
1,note_on,82,0,240
1,note_on,81,50,0
1,note_on,81,0,240
1,note_on,87,54,0
1,note_on,87,0,240
1,note_on,86,54,0
1,note_on,86,0,240
1,note_on,84,50,0
1,note_on,84,0,240
1,note_on,91,54,0
1,note_on,91,0,240
1,note_on,89,52,0
1,note_on,89,0,240
1,note_on,87,52,0
1,note_on,87,0,240
1,note_on,86,51,0
1,note_on,86,0,240
1,note_on,84,54,0
1,note_on,84,0,240
1,note_on,86,57,0
1,note_on,86,0,240
1,note_on,87,66,0
1,note_on,87,0,2160
1,note_on,84,53,0
1,note_on,84,0,240
1,note_on,90,58,0
1,note_on,90,0,240
1,note_on,89,54,0
1,note_on,89,0,240
1,note_on,87,56,0
1,note_on,87,0,240
1,note_on,86,51,0
1,note_on,86,0,240
1,note_on,84,51,0
1,note_on,84,0,240
1,note_on,86,51,0
1,note_on,86,0,240
1,note_on,87,53,0
1,note_on,87,0,2160
1,note_on,84,53,0
1,note_on,84,0,240
1,note_on,91,56,0
1,note_on,91,0,120
1,note_on,89,53,120
1,note_on,89,0,120
1,note_on,87,53,120
1,note_on,87,0,120
1,note_on,86,51,120
1,note_on,86,0,120
1,note_on,84,53,120
1,note_on,84,0,120
1,note_on,82,52,120
1,note_on,82,0,120
1,note_on,81,53,120
1,note_on,81,0,120
1,note_on,79,49,120
1,note_on,79,0,120
1,note_on,77,53,120
1,note_on,77,0,120
1,note_on,76,49,120
1,note_on,76,0,120
1,note_on,75,44,120
1,note_on,75,0,160
1,note_on,74,44,0
1,note_on,74,0,160
1,note_on,72,43,0
1,note_on,72,0,160
1,note_on,70,42,0
1,note_on,70,0,160
1,note_on,69,42,0
1,note_on,69,0,160
1,note_on,67,41,0
1,note_on,67,0,160
1,note_on,65,40,0
1,note_on,65,0,160
1,note_on,64,40,0
1,note_on,64,0,160
1,note_on,63,39,0
1,note_on,63,0,160
1,note_on,62,38,0
1,note_on,62,0,160
1,note_on,61,38,0
1,note_on,61,0,160
1,note_on,60,37,0
1,note_on,60,0,160
1,note_on,58,32,8160
1,note_on,65,36,0
1,note_on,70,43,0
1,note_on,70,0,480
1,note_on,65,0,0
1,note_on,58,0,0
1,note_on,58,33,0
1,note_on,65,37,0
1,note_on,70,45,0
1,note_on,70,0,480
1,note_on,65,0,0
1,note_on,58,0,0
1,note_on,57,27,0
1,note_on,65,36,0
1,note_on,69,43,0
1,note_on,69,0,480
1,note_on,65,0,0
1,note_on,57,0,0
1,note_on,58,33,0
1,note_on,65,37,0
1,note_on,70,45,0
1,note_on,70,0,480
1,note_on,65,0,0
1,note_on,58,0,0
1,note_on,60,32,0
1,note_on,65,36,0
1,note_on,72,43,0
1,note_on,72,0,480
1,note_on,65,0,0
1,note_on,60,0,0
1,note_on,62,36,0
1,note_on,65,40,0
1,note_on,74,47,0
1,note_on,74,0,1440
1,note_on,65,0,0
1,note_on,62,0,0
1,note_on,60,33,0
1,note_on,65,37,0
1,note_on,72,45,0
1,note_on,72,0,240
1,note_on,60,0,0
1,note_on,58,31,0
1,note_on,70,41,0
1,note_on,70,0,240
1,note_on,58,0,0
1,note_on,65,0,0
1,note_on,60,31,0
1,note_on,65,35,0
1,note_on,72,42,0
1,note_on,72,0,475
1,note_on,65,0,0
1,note_on,60,0,0
1,note_on,60,30,5
1,note_on,65,34,0
1,note_on,72,41,0
1,note_on,72,0,475
1,note_on,65,0,0
1,note_on,60,0,0
1,note_on,60,30,5
1,note_on,65,34,0
1,note_on,72,41,0
1,note_on,72,0,475
1,note_on,65,0,0
1,note_on,60,0,0
1,note_on,58,33,5
1,note_on,65,37,0
1,note_on,70,45,0
1,note_on,70,0,240
1,note_on,58,0,0
1,note_on,57,27,0
1,note_on,69,40,0
1,note_on,69,0,240
1,note_on,57,0,0
1,note_on,65,0,0
1,note_on,65,46,0
1,note_on,58,33,0
1,note_on,70,46,0
1,note_on,65,0,480
1,note_on,63,37,0
1,note_on,67,45,0
1,note_on,67,0,480
1,note_on,63,0,0
1,note_on,62,32,0
1,note_on,65,39,0
1,note_on,65,0,480
1,note_on,58,0,0
1,note_on,70,0,0
1,note_on,62,0,0
1,note_on,70,54,0
1,note_on,70,0,480
1,note_on,63,40,0
1,note_on,70,45,0
1,note_on,75,54,0
1,note_on,75,0,1440
1,note_on,70,0,0
1,note_on,63,0,0
1,note_on,62,36,0
1,note_on,70,41,0
1,note_on,74,49,0
1,note_on,74,0,240
1,note_on,70,0,0
1,note_on,62,0,0
1,note_on,60,33,0
1,note_on,70,37,0
1,note_on,72,45,0
1,note_on,72,0,240
1,note_on,70,0,0
1,note_on,60,0,0
1,note_on,62,40,0
1,note_on,70,40,0
1,note_on,74,47,0
1,note_on,74,0,480
1,note_on,70,0,0
1,note_on,62,0,0
1,note_on,57,33,0
1,note_on,65,37,0
1,note_on,69,45,0
1,note_on,69,0,480
1,note_on,65,0,0
1,note_on,57,0,0
1,note_on,58,35,0
1,note_on,65,39,0
1,note_on,70,46,0
1,note_on,70,0,480
1,note_on,65,0,0
1,note_on,58,0,0
1,note_on,60,33,0
1,note_on,65,37,0
1,note_on,72,45,0
1,note_on,72,0,480
1,note_on,65,0,0
1,note_on,60,0,0
1,note_on,58,35,0
1,note_on,65,39,0
1,note_on,70,46,0
1,note_on,70,0,480
1,note_on,65,0,0
1,note_on,58,0,0
1,note_on,65,39,0
1,note_on,62,35,0
1,note_on,70,39,0
1,note_on,74,46,0
1,note_on,74,0,480
1,note_on,65,0,0
1,note_on,62,0,0
1,note_on,70,0,0
1,note_on,60,33,0
1,note_on,65,37,0
1,note_on,69,37,0
1,note_on,72,45,0
1,note_on,72,0,3120
1,note_on,60,0,0
1,note_on,65,0,0
1,note_on,69,0,0
1,note_on,58,32,1200
1,note_on,65,36,0
1,note_on,70,43,0
1,note_on,70,0,480
1,note_on,65,0,0
1,note_on,58,0,0
1,note_on,58,33,0
1,note_on,65,37,0
1,note_on,70,45,0
1,note_on,70,0,480
1,note_on,65,0,0
1,note_on,58,0,0
1,note_on,57,27,0
1,note_on,65,36,0
1,note_on,69,43,0
1,note_on,69,0,480
1,note_on,65,0,0
1,note_on,57,0,0
1,note_on,58,33,0
1,note_on,65,37,0
1,note_on,70,45,0
1,note_on,70,0,480
1,note_on,65,0,0
1,note_on,58,0,0
1,note_on,60,32,0
1,note_on,65,36,0
1,note_on,72,43,0
1,note_on,72,0,480
1,note_on,65,0,0
1,note_on,60,0,0
1,note_on,62,36,0
1,note_on,65,40,0
1,note_on,74,47,0
1,note_on,74,0,1440
1,note_on,65,0,0
1,note_on,62,0,0
1,note_on,60,33,0
1,note_on,65,37,0
1,note_on,72,45,0
1,note_on,72,0,240
1,note_on,60,0,0
1,note_on,58,31,0
1,note_on,70,41,0
1,note_on,70,0,240
1,note_on,58,0,0
1,note_on,65,0,0
1,note_on,60,31,0
1,note_on,65,35,0
1,note_on,72,42,0
1,note_on,72,0,475
1,note_on,65,0,0
1,note_on,60,0,0
1,note_on,60,30,5
1,note_on,65,34,0
1,note_on,72,41,0
1,note_on,72,0,475
1,note_on,65,0,0
1,note_on,60,0,0
1,note_on,60,30,5
1,note_on,65,34,0
1,note_on,72,41,0
1,note_on,72,0,475
1,note_on,65,0,0
1,note_on,60,0,0
1,note_on,58,33,5
1,note_on,65,37,0
1,note_on,70,45,0
1,note_on,70,0,240
1,note_on,58,0,0
1,note_on,57,27,0
1,note_on,69,40,0
1,note_on,69,0,240
1,note_on,57,0,0
1,note_on,65,0,0
1,note_on,65,46,0
1,note_on,58,33,0
1,note_on,70,46,0
1,note_on,65,0,480
1,note_on,63,37,0
1,note_on,67,45,0
1,note_on,67,0,480
1,note_on,63,0,0
1,note_on,62,32,0
1,note_on,65,39,0
1,note_on,65,0,480
1,note_on,58,0,0
1,note_on,70,0,0
1,note_on,62,0,0
1,note_on,62,40,0
1,note_on,65,45,0
1,note_on,74,54,0
1,note_on,74,0,480
1,note_on,65,0,0
1,note_on,62,0,0
1,note_on,62,40,0
1,note_on,67,45,0
1,note_on,74,54,0
1,note_on,74,0,1440
1,note_on,67,0,0
1,note_on,62,0,0
1,note_on,60,36,0
1,note_on,67,41,0
1,note_on,72,49,0
1,note_on,72,0,240
1,note_on,67,0,0
1,note_on,60,0,0
1,note_on,59,33,0
1,note_on,67,37,0
1,note_on,71,45,0
1,note_on,71,0,240
1,note_on,67,0,0
1,note_on,59,0,0
1,note_on,63,47,0
1,note_on,67,48,0
1,note_on,75,58,0
1,note_on,75,0,480
1,note_on,67,0,0
1,note_on,63,0,0
1,note_on,62,45,0
1,note_on,67,45,0
1,note_on,74,53,0
1,note_on,74,0,480
1,note_on,67,0,0
1,note_on,62,0,0
1,note_on,60,43,0
1,note_on,67,43,0
1,note_on,72,51,0
1,note_on,72,0,480
1,note_on,67,0,0
1,note_on,60,0,0
1,note_on,60,40,0
1,note_on,69,45,0
1,note_on,72,54,0
1,note_on,72,0,480
1,note_on,69,0,0
1,note_on,60,0,0
1,note_on,65,40,0
1,note_on,60,40,0
1,note_on,69,45,0
1,note_on,72,54,0
1,note_on,72,0,1440
1,note_on,65,0,0
1,note_on,60,0,0
1,note_on,69,0,0
1,note_on,58,36,0
1,note_on,65,41,0
1,note_on,70,49,0
1,note_on,70,0,240
1,note_on,65,0,0
1,note_on,58,0,0
1,note_on,57,33,0
1,note_on,65,37,0
1,note_on,69,45,0
1,note_on,69,0,240
1,note_on,65,0,0
1,note_on,57,0,0
1,note_on,62,45,0
1,note_on,65,49,0
1,note_on,74,58,0
1,note_on,74,0,480
1,note_on,65,0,0
1,note_on,62,0,0
1,note_on,57,42,0
1,note_on,65,42,0
1,note_on,69,50,0
1,note_on,69,0,480
1,note_on,65,0,0
1,note_on,57,0,0
1,note_on,58,45,0
1,note_on,65,45,0
1,note_on,70,53,0
1,note_on,70,0,480
1,note_on,65,0,0
1,note_on,58,0,0
1,note_on,65,40,0
1,note_on,60,36,0
1,note_on,69,40,0
1,note_on,72,48,0
1,note_on,72,0,480
1,note_on,65,0,0
1,note_on,60,0,0
1,note_on,69,0,0
1,note_on,65,36,0
1,note_on,60,36,0
1,note_on,69,40,0
1,note_on,72,48,0
1,note_on,72,0,960
1,note_on,69,0,0
1,note_on,60,0,0
1,note_on,58,43,0
1,note_on,70,43,0
1,note_on,70,0,240
1,note_on,58,0,0
1,note_on,65,0,0
1,note_on,70,51,2160
1,note_on,70,0,480
1,note_on,70,52,0
1,note_on,70,0,480
1,note_on,68,51,0
1,note_on,68,0,480
1,note_on,70,52,0
1,note_on,70,0,480
1,note_on,71,50,0
1,note_on,71,0,480
1,note_on,73,52,0
1,note_on,73,0,1440
1,note_on,71,56,0
1,note_on,71,0,240
1,note_on,70,53,0
1,note_on,70,0,240
1,note_on,75,58,0
1,note_on,75,0,240
1,note_on,75,54,240
1,note_on,75,0,240
1,note_on,75,54,240
1,note_on,75,0,240
1,note_on,77,56,240
1,note_on,77,0,240
1,note_on,78,51,0
1,note_on,78,0,240
1,note_on,73,54,0
1,note_on,73,0,1440
1,note_on,69,51,0
1,note_on,69,0,480
1,note_on,69,52,0
1,note_on,69,0,480
1,note_on,68,51,0
1,note_on,68,0,480
1,note_on,69,52,0
1,note_on,69,0,480
1,note_on,71,50,0
1,note_on,71,0,480
1,note_on,73,52,0
1,note_on,73,0,1440
1,note_on,74,56,0
1,note_on,74,0,240
1,note_on,76,53,0
1,note_on,76,0,240
1,note_on,78,58,0
1,note_on,78,0,240
1,note_on,78,54,240
1,note_on,78,0,240
1,note_on,78,54,240
1,note_on,78,0,240
1,note_on,80,56,240
1,note_on,80,0,240
1,note_on,81,51,0
1,note_on,81,0,240
1,note_on,76,54,0
1,note_on,76,0,1440
1,note_on,74,53,0
1,note_on,74,0,240
1,note_on,73,51,0
1,note_on,73,0,240
1,note_on,74,54,0
1,note_on,74,0,480
1,note_on,78,52,0
1,note_on,78,0,480
1,note_on,71,52,0
1,note_on,71,0,480
1,note_on,74,52,0
1,note_on,74,0,480
1,note_on,73,54,0
1,note_on,73,0,480
1,note_on,69,51,0
1,note_on,81,61,0
1,note_on,81,0,720
1,note_on,69,0,0
1,note_on,68,45,0
1,note_on,80,53,0
1,note_on,80,0,240
1,note_on,68,0,0
1,note_on,66,47,0
1,note_on,78,56,0
1,note_on,78,0,240
1,note_on,66,0,0
1,note_on,64,43,0
1,note_on,76,51,0
1,note_on,76,0,240
1,note_on,64,0,0
1,note_on,62,46,0
1,note_on,74,54,0
1,note_on,74,0,480
1,note_on,62,0,0
1,note_on,78,56,0
1,note_on,78,0,480
1,note_on,71,54,0
1,note_on,71,0,480
1,note_on,73,52,0
1,note_on,73,0,240
1,note_on,74,52,0
1,note_on,74,0,240
1,note_on,73,55,0
1,note_on,73,0,240
1,note_on,76,52,0
1,note_on,76,0,240
1,note_on,85,56,0
1,note_on,85,0,240
1,note_on,81,52,0
1,note_on,81,0,240
1,note_on,76,56,0
1,note_on,76,0,240
1,note_on,73,52,0
1,note_on,73,0,240
1,note_on,81,55,0
1,note_on,81,0,240
1,note_on,77,52,0
1,note_on,77,0,240
1,note_on,78,55,0
1,note_on,78,0,240
1,note_on,74,52,0
1,note_on,74,0,240
1,note_on,86,56,0
1,note_on,86,0,240
1,note_on,83,54,0
1,note_on,83,0,240
1,note_on,80,58,0
1,note_on,80,0,240
1,note_on,83,56,0
1,note_on,83,0,240
1,note_on,88,58,0
1,note_on,88,0,240
1,note_on,84,54,0
1,note_on,84,0,240
1,note_on,85,57,0
1,note_on,85,0,240
1,note_on,81,54,0
1,note_on,81,0,240
1,note_on,85,57,0
1,note_on,85,0,120
1,note_on,81,51,0
1,note_on,81,0,120
1,note_on,85,56,0
1,note_on,85,0,120
1,note_on,81,50,0
1,note_on,81,0,120
1,note_on,76,56,0
1,note_on,76,0,120
1,note_on,73,52,0
1,note_on,73,0,120
1,note_on,76,56,0
1,note_on,76,0,120
1,note_on,73,53,0
1,note_on,73,0,120
1,note_on,81,58,0
1,note_on,81,0,120
1,note_on,77,53,0
1,note_on,77,0,120
1,note_on,81,57,0
1,note_on,81,0,120
1,note_on,77,52,0
1,note_on,77,0,120
1,note_on,78,57,0
1,note_on,78,0,120
1,note_on,74,52,0
1,note_on,74,0,120
1,note_on,78,54,0
1,note_on,78,0,120
1,note_on,74,52,0
1,note_on,74,0,120
1,note_on,86,57,0
1,note_on,86,0,120
1,note_on,83,51,0
1,note_on,83,0,120
1,note_on,86,56,0
1,note_on,86,0,120
1,note_on,83,50,0
1,note_on,83,0,120
1,note_on,80,56,0
1,note_on,80,0,120
1,note_on,83,52,0
1,note_on,83,0,120
1,note_on,80,56,0
1,note_on,80,0,120
1,note_on,83,53,0
1,note_on,83,0,120
1,note_on,88,58,0
1,note_on,88,0,120
1,note_on,84,53,0
1,note_on,84,0,120
1,note_on,88,57,0
1,note_on,88,0,120
1,note_on,84,52,0
1,note_on,84,0,120
1,note_on,85,57,0
1,note_on,85,0,120
1,note_on,84,53,0
1,note_on,84,0,120
1,note_on,85,52,0
1,note_on,85,0,120
1,note_on,80,52,0
1,note_on,80,0,120
1,note_on,81,57,0
1,note_on,81,0,120
1,note_on,80,51,0
1,note_on,80,0,120
1,note_on,81,51,0
1,note_on,81,0,120
1,note_on,75,50,0
1,note_on,75,0,120
1,note_on,76,55,0
1,note_on,76,0,120
1,note_on,75,51,0
1,note_on,75,0,120
1,note_on,76,51,0
1,note_on,76,0,120
1,note_on,72,51,0
1,note_on,72,0,120
1,note_on,73,54,0
1,note_on,73,0,120
1,note_on,72,47,0
1,note_on,72,0,120
1,note_on,73,49,0
1,note_on,73,0,120
1,note_on,68,47,0
1,note_on,68,0,120
1,note_on,69,57,0
1,note_on,69,0,120
1,note_on,84,53,0
1,note_on,84,0,120
1,note_on,85,52,0
1,note_on,85,0,120
1,note_on,80,52,0
1,note_on,80,0,120
1,note_on,81,57,0
1,note_on,81,0,120
1,note_on,80,51,0
1,note_on,80,0,120
1,note_on,81,51,0
1,note_on,81,0,120
1,note_on,75,50,0
1,note_on,75,0,120
1,note_on,76,55,0
1,note_on,76,0,120
1,note_on,75,51,0
1,note_on,75,0,120
1,note_on,76,51,0
1,note_on,76,0,120
1,note_on,72,51,0
1,note_on,72,0,120
1,note_on,73,54,0
1,note_on,73,0,120
1,note_on,72,47,0
1,note_on,72,0,120
1,note_on,73,49,0
1,note_on,73,0,120
1,note_on,68,47,0
1,note_on,68,0,120
1,note_on,69,53,0
1,note_on,69,0,120
1,note_on,68,49,0
1,note_on,68,0,120
1,note_on,69,49,0
1,note_on,69,0,120
1,note_on,71,49,0
1,note_on,71,0,120
1,note_on,73,55,0
1,note_on,73,0,120
1,note_on,74,49,0
1,note_on,74,0,120
1,note_on,73,49,0
1,note_on,73,0,120
1,note_on,71,49,0
1,note_on,71,0,120
1,note_on,69,55,0
1,note_on,69,0,120
1,note_on,71,50,0
1,note_on,71,0,120
1,note_on,73,50,0
1,note_on,73,0,120
1,note_on,71,50,0
1,note_on,71,0,120
1,note_on,69,55,0
1,note_on,69,0,120
1,note_on,71,50,0
1,note_on,71,0,120
1,note_on,69,52,0
1,note_on,69,0,120
1,note_on,68,51,0
1,note_on,68,0,120
1,note_on,67,57,0
1,note_on,67,0,160
1,note_on,73,52,0
1,note_on,73,0,152
1,note_on,61,45,8
1,note_on,67,45,0
1,note_on,73,54,0
1,note_on,73,0,152
1,note_on,67,0,0
1,note_on,61,0,0
1,note_on,61,50,8
1,note_on,67,50,0
1,note_on,73,59,0
1,note_on,73,0,152
1,note_on,67,0,0
1,note_on,61,0,0
1,note_on,61,47,8
1,note_on,67,47,0
1,note_on,73,56,0
1,note_on,73,0,152
1,note_on,67,0,0
1,note_on,61,0,0
1,note_on,61,48,8
1,note_on,67,48,0
1,note_on,73,57,0
1,note_on,73,0,152
1,note_on,67,0,0
1,note_on,61,0,0
1,note_on,61,52,8
1,note_on,67,52,0
1,note_on,73,62,0
1,note_on,73,0,152
1,note_on,67,0,0
1,note_on,61,0,0
1,note_on,61,47,8
1,note_on,67,47,0
1,note_on,73,56,0
1,note_on,73,0,152
1,note_on,67,0,0
1,note_on,61,0,0
1,note_on,61,47,8
1,note_on,67,47,0
1,note_on,73,57,0
1,note_on,73,0,152
1,note_on,67,0,0
1,note_on,61,0,0
1,note_on,61,55,8
1,note_on,67,55,0
1,note_on,73,65,0
1,note_on,73,0,152
1,note_on,67,0,0
1,note_on,61,0,0
1,note_on,61,51,8
1,note_on,67,51,0
1,note_on,73,61,0
1,note_on,73,0,152
1,note_on,67,0,0
1,note_on,61,0,0
1,note_on,61,52,8
1,note_on,67,52,0
1,note_on,73,62,0
1,note_on,73,0,152
1,note_on,67,0,0
1,note_on,61,0,0
1,note_on,61,57,8
1,note_on,67,57,0
1,note_on,73,67,0
1,note_on,73,0,152
1,note_on,67,0,0
1,note_on,61,0,0
1,note_on,61,53,8
1,note_on,67,53,0
1,note_on,73,64,0
1,note_on,73,0,152
1,note_on,67,0,0
1,note_on,61,0,0
1,note_on,61,55,8
1,note_on,67,55,0
1,note_on,73,65,0
1,note_on,73,0,152
1,note_on,67,0,0
1,note_on,61,0,0
1,note_on,61,59,8
1,note_on,67,59,0
1,note_on,73,71,0
1,note_on,73,0,152
1,note_on,67,0,0
1,note_on,61,0,0
1,note_on,61,56,8
1,note_on,67,56,0
1,note_on,73,67,0
1,note_on,73,0,152
1,note_on,67,0,0
1,note_on,61,0,0
1,note_on,61,57,8
1,note_on,67,57,0
1,note_on,73,69,0
1,note_on,73,0,152
1,note_on,67,0,0
1,note_on,61,0,0
1,note_on,61,62,8
1,note_on,67,62,0
1,note_on,73,74,0
1,note_on,73,0,152
1,note_on,67,0,0
1,note_on,61,0,0
1,note_on,61,59,8
1,note_on,67,59,0
1,note_on,73,71,0
1,note_on,73,0,152
1,note_on,67,0,0
1,note_on,61,0,0
1,note_on,61,60,8
1,note_on,67,60,0
1,note_on,73,72,0
1,note_on,73,0,152
1,note_on,67,0,0
1,note_on,61,0,0
1,note_on,65,72,8
1,note_on,62,72,0
1,note_on,74,85,0
1,note_on,74,0,152
1,note_on,62,0,0
1,note_on,65,0,0
1,note_on,65,67,8
1,note_on,62,67,0
1,note_on,74,80,0
1,note_on,74,0,152
1,note_on,62,0,0
1,note_on,65,0,0
1,note_on,65,67,8
1,note_on,62,67,0
1,note_on,74,80,0
1,note_on,74,0,152
1,note_on,62,0,0
1,note_on,65,0,0
1,note_on,62,63,8
1,note_on,65,77,0
1,note_on,74,90,0
1,note_on,74,0,480
1,note_on,65,0,0
1,note_on,62,0,0
1,note_on,60,60,0
1,note_on,69,72,0
1,note_on,72,85,0
1,note_on,72,0,480
1,note_on,69,0,0
1,note_on,60,0,0
1,note_on,58,60,0
1,note_on,65,72,0
1,note_on,70,85,0
1,note_on,70,0,480
1,note_on,65,0,0
1,note_on,58,0,0
1,note_on,60,60,0
1,note_on,65,72,0
1,note_on,72,85,0
1,note_on,72,0,480
1,note_on,65,0,0
1,note_on,60,0,0
1,note_on,62,64,0
1,note_on,65,78,0
1,note_on,74,92,0
1,note_on,74,0,1440
1,note_on,65,0,0
1,note_on,62,0,0
1,note_on,60,62,0
1,note_on,65,74,0
1,note_on,72,89,0
1,note_on,72,0,240
1,note_on,65,0,0
1,note_on,60,0,0
1,note_on,58,58,0
1,note_on,65,69,0
1,note_on,70,82,0
1,note_on,70,0,240
1,note_on,65,0,0
1,note_on,58,0,0
1,note_on,60,61,0
1,note_on,65,73,0
1,note_on,72,88,0
1,note_on,72,0,475
1,note_on,65,0,0
1,note_on,60,0,0
1,note_on,60,59,5
1,note_on,65,71,0
1,note_on,72,84,0
1,note_on,72,0,475
1,note_on,65,0,0
1,note_on,60,0,0
1,note_on,60,59,5
1,note_on,65,70,0
1,note_on,72,83,0
1,note_on,72,0,475
1,note_on,65,0,0
1,note_on,60,0,0
1,note_on,58,61,5
1,note_on,65,73,0
1,note_on,70,88,0
1,note_on,70,0,240
1,note_on,65,0,0
1,note_on,58,0,0
1,note_on,57,58,0
1,note_on,65,69,0
1,note_on,69,82,0
1,note_on,69,0,240
1,note_on,65,0,0
1,note_on,57,0,0
1,note_on,65,75,0
1,note_on,58,75,0
1,note_on,70,90,0
1,note_on,65,0,480
1,note_on,63,73,0
1,note_on,67,88,0
1,note_on,67,0,480
1,note_on,63,0,0
1,note_on,62,70,0
1,note_on,65,83,0
1,note_on,65,0,480
1,note_on,58,0,0
1,note_on,70,0,0
1,note_on,62,0,0
1,note_on,62,64,0
1,note_on,65,75,0
1,note_on,74,89,0
1,note_on,74,0,480
1,note_on,65,0,0
1,note_on,62,0,0
1,note_on,62,64,0
1,note_on,67,75,0
1,note_on,74,89,0
1,note_on,74,0,1440
1,note_on,67,0,0
1,note_on,62,0,0
1,note_on,60,59,0
1,note_on,67,71,0
1,note_on,72,84,0
1,note_on,72,0,240
1,note_on,67,0,0
1,note_on,60,0,0
1,note_on,59,56,0
1,note_on,67,67,0
1,note_on,71,79,0
1,note_on,71,0,240
1,note_on,67,0,0
1,note_on,59,0,0
1,note_on,63,67,0
1,note_on,67,79,0
1,note_on,75,94,0
1,note_on,75,0,480
1,note_on,67,0,0
1,note_on,63,0,0
1,note_on,62,65,0
1,note_on,67,76,0
1,note_on,74,91,0
1,note_on,74,0,480
1,note_on,67,0,0
1,note_on,62,0,0
1,note_on,60,63,0
1,note_on,67,74,0
1,note_on,72,88,0
1,note_on,72,0,480
1,note_on,67,0,0
1,note_on,60,0,0
1,note_on,60,60,0
1,note_on,69,72,0
1,note_on,72,86,0
1,note_on,72,0,480
1,note_on,69,0,0
1,note_on,60,0,0
1,note_on,65,76,0
1,note_on,60,65,0
1,note_on,69,78,0
1,note_on,72,89,0
1,note_on,72,0,1440
1,note_on,65,0,0
1,note_on,60,0,0
1,note_on,69,0,0
1,note_on,58,63,0
1,note_on,65,74,0
1,note_on,70,88,0
1,note_on,70,0,240
1,note_on,65,0,0
1,note_on,58,0,0
1,note_on,57,57,0
1,note_on,65,68,0
1,note_on,69,80,0
1,note_on,69,0,240
1,note_on,65,0,0
1,note_on,57,0,0
1,note_on,62,65,0
1,note_on,65,77,0
1,note_on,74,92,0
1,note_on,74,0,480
1,note_on,65,0,0
1,note_on,62,0,0
1,note_on,57,61,0
1,note_on,65,73,0
1,note_on,69,87,0
1,note_on,69,0,480
1,note_on,65,0,0
1,note_on,57,0,0
1,note_on,58,65,0
1,note_on,65,77,0
1,note_on,70,92,0
1,note_on,70,0,480
1,note_on,65,0,0
1,note_on,58,0,0
1,note_on,65,70,0
1,note_on,60,59,0
1,note_on,69,70,0
1,note_on,72,82,0
1,note_on,72,0,480
1,note_on,65,0,0
1,note_on,60,0,0
1,note_on,69,0,0
1,note_on,65,75,0
1,note_on,60,64,0
1,note_on,69,75,0
1,note_on,72,89,0
1,note_on,72,0,1920
1,note_on,69,0,0
1,note_on,60,0,0
1,note_on,59,61,0
1,note_on,68,61,0
1,note_on,71,73,0
1,note_on,65,0,960
1,note_on,59,0,480
1,note_on,68,0,0
1,note_on,71,0,0
1,note_on,62,55,0
1,note_on,65,55,0
1,note_on,68,55,0
1,note_on,71,66,0
1,note_on,71,0,480
1,note_on,62,0,0
1,note_on,65,0,0
1,note_on,68,0,0
1,note_on,62,55,0
1,note_on,65,55,0
1,note_on,68,55,0
1,note_on,71,66,0
1,note_on,71,0,1440
1,note_on,62,0,0
1,note_on,65,0,0
1,note_on,68,0,0
1,note_on,65,66,0
1,note_on,71,66,0
1,note_on,74,78,0
1,note_on,74,0,480
1,note_on,71,0,0
1,note_on,65,0,0
1,note_on,66,72,0
1,note_on,71,72,0
1,note_on,74,86,0
1,note_on,74,0,960
1,note_on,71,0,0
1,note_on,70,73,0
1,note_on,73,86,0
1,note_on,73,0,240
1,note_on,70,0,0
1,note_on,66,0,0
1,note_on,73,80,240
1,note_on,76,80,0
1,note_on,78,80,0
1,note_on,82,96,0
1,note_on,82,0,240
1,note_on,73,0,0
1,note_on,76,0,0
1,note_on,78,0,0
1,note_on,78,77,240
1,note_on,74,77,0
1,note_on,83,92,0
1,note_on,83,0,152
1,note_on,74,0,0
1,note_on,78,0,0
1,note_on,74,28,8
1,note_on,78,34,0
1,note_on,78,0,152
1,note_on,74,0,0
1,note_on,74,30,8
1,note_on,78,36,0
1,note_on,78,0,152
1,note_on,74,0,0
1,note_on,74,32,8
1,note_on,78,38,0
1,note_on,78,0,152
1,note_on,74,0,0
1,note_on,74,29,8
1,note_on,78,35,0
1,note_on,78,0,152
1,note_on,74,0,0
1,note_on,74,29,8
1,note_on,78,35,0
1,note_on,78,0,152
1,note_on,74,0,0
1,note_on,74,32,8
1,note_on,78,38,0
1,note_on,78,0,152
1,note_on,74,0,0
1,note_on,74,29,8
1,note_on,78,35,0
1,note_on,78,0,152
1,note_on,74,0,0
1,note_on,74,29,8
1,note_on,78,35,0
1,note_on,78,0,160
1,note_on,74,0,0
1,note_on,83,54,0
1,note_on,74,27,160
1,note_on,78,32,0
1,note_on,78,0,152
1,note_on,74,0,0
1,note_on,74,27,8
1,note_on,78,32,0
1,note_on,78,0,152
1,note_on,74,0,0
1,note_on,83,0,8
1,note_on,83,53,0
1,note_on,74,27,160
1,note_on,78,32,0
1,note_on,78,0,152
1,note_on,74,0,0
1,note_on,74,27,8
1,note_on,78,32,0
1,note_on,78,0,152
1,note_on,74,0,0
1,note_on,83,0,8
1,note_on,86,53,0
1,note_on,74,26,160
1,note_on,78,31,0
1,note_on,78,0,152
1,note_on,74,0,0
1,note_on,74,26,8
1,note_on,78,31,0
1,note_on,78,0,152
1,note_on,74,0,0
1,note_on,86,0,8
1,note_on,83,53,0
1,note_on,74,27,160
1,note_on,78,32,0
1,note_on,78,0,152
1,note_on,74,0,0
1,note_on,74,27,8
1,note_on,78,32,0
1,note_on,78,0,152
1,note_on,74,0,0
1,note_on,83,0,8
1,note_on,86,53,0
1,note_on,74,26,160
1,note_on,78,31,0
1,note_on,78,0,152
1,note_on,74,0,0
1,note_on,74,26,8
1,note_on,78,31,0
1,note_on,78,0,152
1,note_on,74,0,0
1,note_on,86,0,8
1,note_on,86,56,0
1,note_on,78,27,160
1,note_on,83,32,0
1,note_on,83,0,160
1,note_on,78,0,0
1,note_on,78,27,0
1,note_on,83,32,0
1,note_on,83,0,152
1,note_on,78,0,0
1,note_on,86,0,8
1,note_on,90,55,0
1,note_on,78,27,160
1,note_on,83,32,0
1,note_on,83,0,152
1,note_on,78,0,0
1,note_on,78,27,8
1,note_on,83,32,0
1,note_on,83,0,152
1,note_on,78,0,0
1,note_on,90,0,8
1,note_on,86,55,0
1,note_on,78,27,160
1,note_on,83,32,0
1,note_on,83,0,152
1,note_on,78,0,0
1,note_on,78,27,8
1,note_on,83,32,0
1,note_on,83,0,152
1,note_on,78,0,0
1,note_on,86,0,8
1,note_on,90,56,0
1,note_on,78,27,160
1,note_on,83,32,0
1,note_on,83,0,152
1,note_on,78,0,0
1,note_on,78,27,8
1,note_on,83,32,0
1,note_on,83,0,152
1,note_on,78,0,0
1,note_on,90,0,8
1,note_on,78,56,0
1,note_on,71,27,160
1,note_on,74,32,0
1,note_on,74,0,152
1,note_on,71,0,0
1,note_on,71,27,8
1,note_on,74,32,0
1,note_on,74,0,152
1,note_on,71,0,0
1,note_on,78,0,8
1,note_on,82,56,0
1,note_on,78,33,160
1,note_on,70,27,0
1,note_on,76,33,0
1,note_on,76,0,152
1,note_on,70,0,0
1,note_on,78,0,0
1,note_on,78,34,8
1,note_on,70,27,0
1,note_on,76,34,0
1,note_on,76,0,160
1,note_on,82,0,0
1,note_on,78,0,0
1,note_on,70,0,0
1,note_on,83,58,0
1,note_on,78,34,160
1,note_on,71,28,0
1,note_on,74,34,0
1,note_on,74,0,152
1,note_on,71,0,0
1,note_on,78,0,0
1,note_on,78,35,8
1,note_on,71,29,0
1,note_on,74,35,0
1,note_on,74,0,160
1,note_on,83,0,0
1,note_on,78,0,0
1,note_on,71,0,0
1,note_on,85,62,0
1,note_on,81,36,160
1,note_on,73,29,0
1,note_on,79,36,0
1,note_on,79,0,152
1,note_on,73,0,0
1,note_on,81,0,0
1,note_on,81,36,8
1,note_on,73,29,0
1,note_on,79,36,0
1,note_on,79,0,152
1,note_on,73,0,0
1,note_on,81,0,0
1,note_on,85,0,8
1,note_on,86,61,0
1,note_on,74,30,160
1,note_on,78,30,0
1,note_on,81,36,0
1,note_on,81,0,152
1,note_on,78,0,0
1,note_on,74,0,0
1,note_on,74,29,8
1,note_on,78,29,0
1,note_on,81,36,0
1,note_on,81,0,152
1,note_on,78,0,0
1,note_on,74,0,0
1,note_on,86,0,8
1,note_on,88,60,0
1,note_on,82,35,160
1,note_on,76,28,0
1,note_on,78,35,0
1,note_on,78,0,152
1,note_on,76,0,0
1,note_on,82,0,0
1,note_on,82,34,8
1,note_on,76,28,0
1,note_on,78,34,0
1,note_on,78,0,152
1,note_on,76,0,0
1,note_on,82,0,0
1,note_on,88,0,8
1,note_on,86,57,0
1,note_on,74,27,160
1,note_on,83,33,0
1,note_on,78,33,0
1,note_on,78,0,152
1,note_on,83,0,0
1,note_on,74,0,0
1,note_on,74,27,8
1,note_on,83,32,0
1,note_on,78,32,0
1,note_on,78,0,152
1,note_on,83,0,0
1,note_on,74,0,0
1,note_on,86,0,8
1,note_on,85,56,0
1,note_on,81,32,160
1,note_on,73,27,0
1,note_on,76,32,0
1,note_on,76,0,152
1,note_on,73,0,0
1,note_on,81,0,0
1,note_on,81,32,8
1,note_on,73,27,0
1,note_on,76,32,0
1,note_on,76,0,152
1,note_on,73,0,0
1,note_on,81,0,0
1,note_on,85,0,8
1,note_on,85,54,0
1,note_on,73,26,160
1,note_on,76,26,0
1,note_on,81,31,0
1,note_on,81,0,152
1,note_on,76,0,0
1,note_on,73,0,0
1,note_on,73,26,8
1,note_on,76,26,0
1,note_on,81,31,0
1,note_on,81,0,152
1,note_on,76,0,0
1,note_on,73,0,0
1,note_on,73,26,8
1,note_on,76,26,0
1,note_on,81,31,0
1,note_on,81,0,152
1,note_on,76,0,0
1,note_on,73,0,0
1,note_on,73,26,8
1,note_on,76,26,0
1,note_on,81,31,0
1,note_on,81,0,152
1,note_on,76,0,0
1,note_on,73,0,0
1,note_on,73,27,8
1,note_on,76,27,0
1,note_on,81,32,0
1,note_on,81,0,160
1,note_on,85,0,0
1,note_on,73,0,0
1,note_on,76,0,0
1,note_on,85,55,0
1,note_on,73,25,160
1,note_on,76,25,0
1,note_on,78,29,0
1,note_on,78,0,152
1,note_on,76,0,0
1,note_on,73,0,0
1,note_on,73,25,8
1,note_on,76,25,0
1,note_on,78,30,0
1,note_on,78,0,152
1,note_on,76,0,0
1,note_on,73,0,0
1,note_on,85,0,8
1,note_on,86,54,0
1,note_on,74,25,160
1,note_on,78,29,0
1,note_on,78,0,152
1,note_on,74,0,0
1,note_on,74,25,8
1,note_on,78,29,0
1,note_on,78,0,152
1,note_on,74,0,0
1,note_on,86,0,8
1,note_on,83,53,0
1,note_on,74,27,160
1,note_on,78,32,0
1,note_on,78,0,152
1,note_on,74,0,0
1,note_on,74,27,8
1,note_on,78,32,0
1,note_on,78,0,152
1,note_on,74,0,0
1,note_on,83,0,8
1,note_on,86,53,0
1,note_on,74,26,160
1,note_on,78,31,0
1,note_on,78,0,152
1,note_on,74,0,0
1,note_on,74,26,8
1,note_on,78,31,0
1,note_on,78,0,152
1,note_on,74,0,0
1,note_on,86,0,8
1,note_on,83,53,0
1,note_on,74,27,160
1,note_on,78,32,0
1,note_on,78,0,152
1,note_on,74,0,0
1,note_on,74,27,8
1,note_on,78,32,0
1,note_on,78,0,152
1,note_on,74,0,0
1,note_on,83,0,8
1,note_on,86,53,0
1,note_on,74,26,160
1,note_on,78,31,0
1,note_on,78,0,152
1,note_on,74,0,0
1,note_on,74,26,8
1,note_on,78,31,0
1,note_on,78,0,152
1,note_on,74,0,0
1,note_on,86,0,8
1,note_on,86,56,0
1,note_on,78,27,160
1,note_on,83,32,0
1,note_on,83,0,152
1,note_on,78,0,0
1,note_on,78,27,8
1,note_on,83,32,0
1,note_on,83,0,152
1,note_on,78,0,0
1,note_on,86,0,8
1,note_on,90,55,0
1,note_on,78,27,160
1,note_on,83,32,0
1,note_on,83,0,152
1,note_on,78,0,0
1,note_on,78,27,8
1,note_on,83,32,0
1,note_on,83,0,152
1,note_on,78,0,0
1,note_on,90,0,8
1,note_on,86,55,0
1,note_on,78,27,160
1,note_on,83,32,0
1,note_on,83,0,152
1,note_on,78,0,0
1,note_on,78,27,8
1,note_on,83,32,0
1,note_on,83,0,152
1,note_on,78,0,0
1,note_on,86,0,8
1,note_on,90,56,0
1,note_on,78,27,160
1,note_on,83,32,0
1,note_on,83,0,152
1,note_on,78,0,0
1,note_on,78,27,8
1,note_on,83,32,0
1,note_on,83,0,152
1,note_on,78,0,0
1,note_on,90,0,8
1,note_on,78,56,0
1,note_on,71,27,160
1,note_on,74,32,0
1,note_on,74,0,152
1,note_on,71,0,0
1,note_on,71,27,8
1,note_on,74,32,0
1,note_on,74,0,160
1,note_on,71,0,0
1,note_on,78,0,0
1,note_on,82,56,0
1,note_on,78,33,160
1,note_on,70,27,0
1,note_on,76,33,0
1,note_on,76,0,152
1,note_on,70,0,0
1,note_on,78,0,0
1,note_on,78,34,8
1,note_on,70,27,0
1,note_on,76,34,0
1,note_on,76,0,152
1,note_on,70,0,0
1,note_on,78,0,0
1,note_on,82,0,8
1,note_on,83,58,0
1,note_on,78,34,160
1,note_on,71,28,0
1,note_on,74,34,0
1,note_on,74,0,152
1,note_on,71,0,0
1,note_on,78,0,0
1,note_on,78,35,8
1,note_on,71,29,0
1,note_on,74,35,0
1,note_on,74,0,152
1,note_on,71,0,0
1,note_on,78,0,0
1,note_on,83,0,8
1,note_on,85,62,0
1,note_on,81,36,160
1,note_on,73,29,0
1,note_on,79,36,0
1,note_on,79,0,152
1,note_on,73,0,0
1,note_on,81,0,0
1,note_on,81,36,8
1,note_on,73,29,0
1,note_on,79,36,0
1,note_on,79,0,152
1,note_on,73,0,0
1,note_on,81,0,0
1,note_on,85,0,8
1,note_on,86,61,0
1,note_on,74,30,160
1,note_on,78,30,0
1,note_on,81,36,0
1,note_on,81,0,152
1,note_on,78,0,0
1,note_on,74,0,0
1,note_on,74,29,8
1,note_on,78,29,0
1,note_on,81,36,0
1,note_on,81,0,152
1,note_on,78,0,0
1,note_on,74,0,0
1,note_on,86,0,8
1,note_on,88,60,0
1,note_on,82,35,160
1,note_on,76,28,0
1,note_on,78,35,0
1,note_on,78,0,152
1,note_on,76,0,0
1,note_on,82,0,0
1,note_on,82,34,8
1,note_on,76,28,0
1,note_on,78,34,0
1,note_on,78,0,152
1,note_on,76,0,0
1,note_on,82,0,0
1,note_on,88,0,8
1,note_on,86,57,0
1,note_on,83,33,160
1,note_on,74,27,0
1,note_on,78,33,0
1,note_on,78,0,152
1,note_on,74,0,0
1,note_on,83,0,0
1,note_on,83,32,8
1,note_on,74,27,0
1,note_on,78,32,0
1,note_on,78,0,152
1,note_on,74,0,0
1,note_on,83,0,0
1,note_on,86,0,8
1,note_on,85,56,0
1,note_on,81,32,160
1,note_on,73,27,0
1,note_on,76,32,0
1,note_on,76,0,152
1,note_on,73,0,0
1,note_on,81,0,0
1,note_on,81,32,8
1,note_on,73,27,0
1,note_on,76,32,0
1,note_on,76,0,152
1,note_on,73,0,0
1,note_on,81,0,0
1,note_on,85,0,8
1,note_on,85,54,0
1,note_on,73,26,160
1,note_on,76,26,0
1,note_on,81,31,0
1,note_on,81,0,152
1,note_on,76,0,0
1,note_on,73,0,0
1,note_on,73,26,8
1,note_on,76,26,0
1,note_on,81,31,0
1,note_on,81,0,152
1,note_on,76,0,0
1,note_on,73,0,0
1,note_on,73,26,8
1,note_on,76,26,0
1,note_on,81,31,0
1,note_on,81,0,152
1,note_on,76,0,0
1,note_on,73,0,0
1,note_on,73,26,8
1,note_on,76,26,0
1,note_on,81,31,0
1,note_on,81,0,152
1,note_on,76,0,0
1,note_on,73,0,0
1,note_on,73,27,8
1,note_on,76,27,0
1,note_on,81,32,0
1,note_on,81,0,152
1,note_on,76,0,0
1,note_on,73,0,0
1,note_on,85,0,8
1,note_on,74,41,0
1,note_on,78,41,0
1,note_on,81,41,0
1,note_on,86,49,0
1,note_on,86,0,240
1,note_on,74,0,0
1,note_on,78,0,0
1,note_on,81,0,0
1,note_on,81,52,240
1,note_on,81,0,480
1,note_on,81,54,0
1,note_on,81,0,720
1,note_on,79,51,0
1,note_on,79,0,240
1,note_on,78,51,0
1,note_on,78,0,240
1,note_on,78,52,240
1,note_on,78,0,480
1,note_on,78,54,0
1,note_on,78,0,720
1,note_on,76,51,0
1,note_on,76,0,240
1,note_on,75,51,0
1,note_on,75,0,240
1,note_on,71,52,240
1,note_on,75,52,0
1,note_on,75,0,480
1,note_on,71,0,0
1,note_on,71,44,0
1,note_on,75,52,0
1,note_on,75,0,480
1,note_on,71,0,0
1,note_on,71,47,0
1,note_on,76,55,0
1,note_on,76,0,480
1,note_on,71,0,0
1,note_on,71,47,0
1,note_on,75,47,0
1,note_on,78,56,0
1,note_on,78,0,480
1,note_on,75,0,0
1,note_on,71,0,0
1,note_on,71,48,0
1,note_on,76,48,0
1,note_on,79,57,0
1,note_on,79,0,480
1,note_on,76,0,0
1,note_on,71,0,0
1,note_on,71,50,0
1,note_on,78,50,0
1,note_on,81,59,0
1,note_on,81,0,480
1,note_on,78,0,0
1,note_on,71,0,0
1,note_on,72,51,0
1,note_on,78,51,0
1,note_on,81,60,0
1,note_on,81,0,480
1,note_on,78,0,0
1,note_on,72,0,0
1,note_on,73,52,0
1,note_on,78,52,0
1,note_on,81,61,0
1,note_on,81,0,480
1,note_on,78,0,0
1,note_on,73,0,0
1,note_on,74,53,0
1,note_on,78,53,0
1,note_on,81,63,0
1,note_on,81,0,480
1,note_on,78,0,0
1,note_on,74,0,0
1,note_on,81,59,0
1,note_on,81,0,600
1,note_on,82,51,0
1,note_on,82,0,120
1,note_on,81,53,0
1,note_on,81,0,120
1,note_on,79,51,0
1,note_on,79,0,120
1,note_on,78,56,0
1,note_on,78,0,240
1,note_on,78,57,240
1,note_on,78,0,480
1,note_on,78,59,0
1,note_on,78,0,600
1,note_on,79,53,0
1,note_on,79,0,120
1,note_on,78,53,0
1,note_on,78,0,120
1,note_on,76,53,0
1,note_on,76,0,120
1,note_on,75,56,0
1,note_on,75,0,240
1,note_on,71,57,240
1,note_on,75,57,0
1,note_on,75,0,480
1,note_on,71,0,0
1,note_on,71,48,0
1,note_on,75,57,0
1,note_on,75,0,360
1,note_on,71,0,0
1,note_on,71,48,0
1,note_on,75,57,0
1,note_on,75,0,120
1,note_on,71,0,0
1,note_on,71,51,0
1,note_on,76,60,0
1,note_on,76,0,360
1,note_on,71,0,0
1,note_on,71,51,0
1,note_on,76,60,0
1,note_on,76,0,120
1,note_on,71,0,0
1,note_on,71,51,0
1,note_on,75,51,0
1,note_on,78,61,0
1,note_on,78,0,360
1,note_on,75,0,0
1,note_on,71,0,0
1,note_on,71,51,0
1,note_on,75,51,0
1,note_on,78,61,0
1,note_on,78,0,120
1,note_on,75,0,0
1,note_on,71,0,0
1,note_on,71,52,0
1,note_on,76,52,0
1,note_on,79,62,0
1,note_on,79,0,360
1,note_on,76,0,0
1,note_on,71,0,0
1,note_on,71,52,0
1,note_on,76,52,0
1,note_on,79,62,0
1,note_on,79,0,120
1,note_on,76,0,0
1,note_on,71,0,0
1,note_on,71,55,0
1,note_on,78,55,0
1,note_on,81,64,0
1,note_on,81,0,360
1,note_on,78,0,0
1,note_on,71,0,0
1,note_on,71,55,0
1,note_on,78,55,0
1,note_on,81,64,0
1,note_on,81,0,120
1,note_on,78,0,0
1,note_on,71,0,0
1,note_on,72,56,0
1,note_on,78,56,0
1,note_on,81,66,0
1,note_on,81,0,360
1,note_on,78,0,0
1,note_on,72,0,0
1,note_on,72,56,0
1,note_on,78,56,0
1,note_on,81,66,0
1,note_on,81,0,120
1,note_on,78,0,0
1,note_on,72,0,0
1,note_on,73,57,0
1,note_on,78,57,0
1,note_on,81,67,0
1,note_on,81,0,360
1,note_on,78,0,0
1,note_on,73,0,0
1,note_on,73,57,0
1,note_on,78,57,0
1,note_on,81,67,0
1,note_on,81,0,120
1,note_on,78,0,0
1,note_on,73,0,0
1,note_on,74,58,0
1,note_on,78,58,0
1,note_on,81,69,0
1,note_on,81,0,480
1,note_on,78,0,0
1,note_on,74,0,0
1,note_on,81,59,0
1,note_on,81,0,840
1,note_on,79,56,0
1,note_on,79,0,120
1,note_on,78,56,0
1,note_on,78,0,240
1,note_on,78,57,240
1,note_on,81,49,420
1,note_on,81,0,60
1,note_on,78,0,0
1,note_on,79,60,0
1,note_on,79,0,120
1,note_on,78,57,0
1,note_on,78,0,120
1,note_on,79,57,0
1,note_on,79,0,120
1,note_on,81,57,0
1,note_on,84,49,60
1,note_on,84,0,60
1,note_on,81,0,0
1,note_on,82,60,0
1,note_on,82,0,120
1,note_on,81,57,0
1,note_on,81,0,120
1,note_on,82,57,0
1,note_on,82,0,120
1,note_on,84,57,0
1,note_on,84,0,120
1,note_on,86,59,0
1,note_on,86,0,240
1,note_on,86,59,240
1,note_on,86,0,240
1,note_on,82,57,0
1,note_on,82,0,240
1,note_on,81,59,0
1,note_on,81,0,840
1,note_on,79,56,0
1,note_on,79,0,120
1,note_on,78,56,0
1,note_on,78,0,240
1,note_on,90,63,240
1,note_on,78,63,0
1,note_on,78,0,480
1,note_on,90,0,0
1,note_on,79,63,0
1,note_on,91,63,0
1,note_on,91,0,240
1,note_on,79,0,0
1,note_on,82,64,0
1,note_on,94,64,0
1,note_on,94,0,240
1,note_on,82,0,0
1,note_on,84,64,0
1,note_on,96,64,0
1,note_on,96,0,240
1,note_on,84,0,0
1,note_on,86,65,0
1,note_on,98,65,0
1,note_on,98,0,240
1,note_on,86,0,0
1,note_on,87,66,0
1,note_on,99,66,0
1,note_on,99,0,480
1,note_on,87,0,0
1,note_on,96,69,0
1,note_on,84,69,0
1,note_on,84,0,480
1,note_on,96,0,0
1,note_on,94,70,0
1,note_on,82,70,0
1,note_on,82,0,480
1,note_on,94,0,0
1,note_on,92,69,0
1,note_on,80,69,0
1,note_on,80,0,480
1,note_on,92,0,0
1,note_on,91,66,0
1,note_on,79,66,0
1,note_on,79,0,480
1,note_on,91,0,0
1,note_on,89,65,0
1,note_on,77,65,0
1,note_on,77,0,480
1,note_on,89,0,0
1,note_on,76,61,0
1,note_on,88,61,0
1,note_on,88,0,2160
1,note_on,76,0,0
1,note_on,76,51,0
1,note_on,76,0,228
1,note_on,76,51,12
1,note_on,76,0,228
1,note_on,76,51,12
1,note_on,76,0,228
1,note_on,76,50,12
1,note_on,76,0,228
1,note_on,76,50,12
1,note_on,76,0,228
1,note_on,76,50,12
1,note_on,76,0,228
1,note_on,76,50,12
1,note_on,76,0,228
1,note_on,77,53,12
1,note_on,77,0,840
1,note_on,79,47,0
1,note_on,79,0,120
1,note_on,77,52,0
1,note_on,77,0,240
1,note_on,82,49,240
1,note_on,82,0,60
1,note_on,84,43,0
1,note_on,84,0,60
1,note_on,82,44,0
1,note_on,82,0,60
1,note_on,84,44,0
1,note_on,84,0,60
1,note_on,82,44,0
1,note_on,82,0,60
1,note_on,84,46,0
1,note_on,84,0,60
1,note_on,81,51,0
1,note_on,81,0,60
1,note_on,82,44,0
1,note_on,82,0,60
1,note_on,86,67,0
1,note_on,74,52,0
1,note_on,74,0,840
1,note_on,86,0,0
1,note_on,72,46,0
1,note_on,84,57,0
1,note_on,84,0,120
1,note_on,72,0,0
1,note_on,70,49,0
1,note_on,82,60,0
1,note_on,82,0,240
1,note_on,70,0,0
1,note_on,79,54,240
1,note_on,79,0,480
1,note_on,77,58,0
1,note_on,77,0,840
1,note_on,79,53,0
1,note_on,79,0,120
1,note_on,77,60,0
1,note_on,77,0,240
1,note_on,82,53,240
1,note_on,82,0,60
1,note_on,84,47,0
1,note_on,84,0,60
1,note_on,82,48,0
1,note_on,82,0,60
1,note_on,84,48,0
1,note_on,84,0,60
1,note_on,82,48,0
1,note_on,82,0,60
1,note_on,84,50,0
1,note_on,84,0,60
1,note_on,81,55,0
1,note_on,81,0,60
1,note_on,82,48,0
1,note_on,82,0,60
1,note_on,86,69,0
1,note_on,74,63,0
1,note_on,74,0,840
1,note_on,86,0,0
1,note_on,72,62,0
1,note_on,84,62,0
1,note_on,84,0,120
1,note_on,72,0,0
1,note_on,70,67,0
1,note_on,82,67,0
1,note_on,82,0,240
1,note_on,70,0,0
1,note_on,70,48,240
1,note_on,75,69,0
1,note_on,79,69,0
1,note_on,79,0,480
1,note_on,75,0,0
1,note_on,70,0,0
1,note_on,70,58,0
1,note_on,74,69,0
1,note_on,77,69,0
1,note_on,77,0,480
1,note_on,74,0,0
1,note_on,70,0,0
1,note_on,70,61,0
1,note_on,75,72,0
1,note_on,79,72,0
1,note_on,79,0,480
1,note_on,75,0,0
1,note_on,70,0,0
1,note_on,70,62,0
1,note_on,74,62,0
1,note_on,77,74,0
1,note_on,82,74,0
1,note_on,82,0,480
1,note_on,70,0,0
1,note_on,74,0,0
1,note_on,77,0,0
1,note_on,72,66,0
1,note_on,77,66,0
1,note_on,81,78,0
1,note_on,84,78,0
1,note_on,84,0,480
1,note_on,72,0,0
1,note_on,77,0,0
1,note_on,81,0,0
1,note_on,72,63,0
1,note_on,77,63,0
1,note_on,81,75,0
1,note_on,84,75,0
1,note_on,84,0,960
1,note_on,72,0,0
1,note_on,77,0,0
1,note_on,81,0,0
1,note_on,81,63,0
1,note_on,81,0,160
1,note_on,77,54,0
1,note_on,77,0,160
1,note_on,72,54,0
1,note_on,72,0,160
1,note_on,77,54,0
1,note_on,77,0,160
1,note_on,81,52,0
1,note_on,81,0,160
1,note_on,84,51,0
1,note_on,84,0,160
1,note_on,82,53,0
1,note_on,82,0,160
1,note_on,89,49,0
1,note_on,89,0,160
1,note_on,86,49,0
1,note_on,86,0,80
1,note_on,82,53,80
1,note_on,82,0,80
1,note_on,77,48,80
1,note_on,77,0,80
1,note_on,74,46,80
1,note_on,74,0,80
1,note_on,70,51,80
1,note_on,70,0,80
1,note_on,74,46,80
1,note_on,74,0,80
1,note_on,77,46,80
1,note_on,77,0,80
1,note_on,74,53,80
1,note_on,74,0,80
1,note_on,77,50,80
1,note_on,77,0,80
1,note_on,82,50,80
1,note_on,82,0,80
1,note_on,82,53,80
1,note_on,82,0,160
1,note_on,91,49,0
1,note_on,91,0,160
1,note_on,87,49,0
1,note_on,87,0,80
1,note_on,82,53,80
1,note_on,82,0,80
1,note_on,79,48,80
1,note_on,79,0,80
1,note_on,75,46,80
1,note_on,75,0,80
1,note_on,70,51,80
1,note_on,70,0,80
1,note_on,75,46,80
1,note_on,75,0,80
1,note_on,79,46,80
1,note_on,79,0,80
1,note_on,75,53,80
1,note_on,75,0,80
1,note_on,79,50,80
1,note_on,79,0,80
1,note_on,82,50,80
1,note_on,82,0,80
1,note_on,82,53,80
1,note_on,82,0,160
1,note_on,94,49,0
1,note_on,94,0,160
1,note_on,89,49,0
1,note_on,89,0,80
1,note_on,86,53,80
1,note_on,86,0,80
1,note_on,82,48,80
1,note_on,82,0,80
1,note_on,77,46,80
1,note_on,77,0,80
1,note_on,74,51,80
1,note_on,74,0,80
1,note_on,70,46,80
1,note_on,70,0,80
1,note_on,65,46,80
1,note_on,65,0,80
1,note_on,70,53,80
1,note_on,70,0,80
1,note_on,74,50,80
1,note_on,74,0,80
1,note_on,77,50,80
1,note_on,77,0,80
1,note_on,77,51,80
1,note_on,77,0,160
1,note_on,82,47,0
1,note_on,82,0,160
1,note_on,82,47,0
1,note_on,82,0,80
1,note_on,79,51,80
1,note_on,79,0,160
1,note_on,84,48,0
1,note_on,84,0,160
1,note_on,84,48,0
1,note_on,84,0,80
1,note_on,77,51,80
1,note_on,77,0,160
1,note_on,82,47,0
1,note_on,82,0,160
1,note_on,82,47,0
1,note_on,82,0,80
1,note_on,77,51,80
1,note_on,77,0,160
1,note_on,81,47,0
1,note_on,81,0,160
1,note_on,81,47,0
1,note_on,81,0,80
1,note_on,77,51,80
1,note_on,77,0,160
1,note_on,80,47,0
1,note_on,80,0,160
1,note_on,80,47,0
1,note_on,80,0,80
1,note_on,77,52,80
1,note_on,77,0,160
1,note_on,79,50,0
1,note_on,79,0,160
1,note_on,79,50,0
1,note_on,79,0,80
1,note_on,71,46,80
1,note_on,74,54,0
1,note_on,74,0,160
1,note_on,71,0,0
1,note_on,80,50,0
1,note_on,80,0,160
1,note_on,80,51,0
1,note_on,80,0,80
1,note_on,71,47,80
1,note_on,74,56,0
1,note_on,74,0,160
1,note_on,71,0,0
1,note_on,79,52,0
1,note_on,79,0,160
1,note_on,79,53,0
1,note_on,79,0,80
1,note_on,70,49,80
1,note_on,75,58,0
1,note_on,75,0,160
1,note_on,70,0,0
1,note_on,80,54,0
1,note_on,80,0,160
1,note_on,80,54,0
1,note_on,80,0,80
1,note_on,70,49,80
1,note_on,75,58,0
1,note_on,75,0,160
1,note_on,70,0,0
1,note_on,79,54,0
1,note_on,79,0,160
1,note_on,79,54,0
1,note_on,79,0,80
1,note_on,70,48,80
1,note_on,74,57,0
1,note_on,74,0,160
1,note_on,70,0,0
1,note_on,77,53,0
1,note_on,77,0,160
1,note_on,77,52,0
1,note_on,77,0,80
1,note_on,69,48,80
1,note_on,72,57,0
1,note_on,72,0,160
1,note_on,69,0,0
1,note_on,77,52,0
1,note_on,77,0,160
1,note_on,77,52,0
1,note_on,77,0,80
1,note_on,70,41,80
1,note_on,74,41,0
1,note_on,77,49,0
1,note_on,77,0,480
1,note_on,74,0,0
1,note_on,70,0,0
1,note_on,82,49,480
1,note_on,74,40,0
1,note_on,77,40,0
1,note_on,77,0,240
1,note_on,74,0,0
1,note_on,82,0,0
1,note_on,77,40,240
1,note_on,80,40,0
1,note_on,82,49,0
1,note_on,82,0,240
1,note_on,80,0,0
1,note_on,77,0,0
1,note_on,75,45,240
1,note_on,79,45,0
1,note_on,82,53,0
1,note_on,82,0,480
1,note_on,79,0,0
1,note_on,75,0,0
1,note_on,75,40,480
1,note_on,79,40,0
1,note_on,82,49,0
1,note_on,82,0,240
1,note_on,79,0,0
1,note_on,75,0,0
1,note_on,79,40,240
1,note_on,82,49,0
1,note_on,82,0,240
1,note_on,79,0,0
1,note_on,74,45,240
1,note_on,77,45,0
1,note_on,82,53,0
1,note_on,82,0,480
1,note_on,77,0,0
1,note_on,74,0,0
1,note_on,77,44,480
1,note_on,82,44,0
1,note_on,86,53,0
1,note_on,86,0,240
1,note_on,82,0,0
1,note_on,77,0,0
1,note_on,77,44,240
1,note_on,86,44,0
1,note_on,89,53,0
1,note_on,89,0,240
1,note_on,86,0,0
1,note_on,77,0,0
1,note_on,89,56,240
1,note_on,89,0,160
1,note_on,94,51,0
1,note_on,94,0,160
1,note_on,94,51,0
1,note_on,94,0,80
1,note_on,91,56,80
1,note_on,91,0,160
1,note_on,96,52,0
1,note_on,96,0,160
1,note_on,96,52,0
1,note_on,96,0,80
1,note_on,89,56,80
1,note_on,89,0,160
1,note_on,94,51,0
1,note_on,94,0,160
1,note_on,94,51,0
1,note_on,94,0,80
1,note_on,89,56,80
1,note_on,89,0,160
1,note_on,93,51,0
1,note_on,93,0,160
1,note_on,93,51,0
1,note_on,93,0,80
1,note_on,89,56,80
1,note_on,89,0,160
1,note_on,92,51,0
1,note_on,92,0,160
1,note_on,92,51,0
1,note_on,92,0,80
1,note_on,89,57,80
1,note_on,89,0,160
1,note_on,91,55,0
1,note_on,91,0,160
1,note_on,91,55,0
1,note_on,91,0,80
1,note_on,83,58,80
1,note_on,86,58,0
1,note_on,86,0,160
1,note_on,83,0,0
1,note_on,92,53,0
1,note_on,92,0,160
1,note_on,92,53,0
1,note_on,92,0,80
1,note_on,83,48,80
1,note_on,86,57,0
1,note_on,86,0,160
1,note_on,83,0,0
1,note_on,91,54,0
1,note_on,91,0,160
1,note_on,91,54,0
1,note_on,91,0,80
1,note_on,82,48,80
1,note_on,87,57,0
1,note_on,87,0,160
1,note_on,82,0,0
1,note_on,92,52,0
1,note_on,92,0,160
1,note_on,92,52,0
1,note_on,92,0,80
1,note_on,82,48,80
1,note_on,87,57,0
1,note_on,87,0,160
1,note_on,82,0,0
1,note_on,91,53,0
1,note_on,91,0,160
1,note_on,91,52,0
1,note_on,91,0,80
1,note_on,82,48,80
1,note_on,86,57,0
1,note_on,86,0,160
1,note_on,82,0,0
1,note_on,89,53,0
1,note_on,89,0,160
1,note_on,89,49,0
1,note_on,89,0,80
1,note_on,81,45,80
1,note_on,84,54,0
1,note_on,84,0,160
1,note_on,81,0,0
1,note_on,89,48,0
1,note_on,89,0,160
1,note_on,89,48,0
1,note_on,89,0,80
1,note_on,75,45,80
1,note_on,75,0,160
1,note_on,78,42,0
1,note_on,78,0,160
1,note_on,78,42,0
1,note_on,78,0,80
1,note_on,75,46,80
1,note_on,75,0,160
1,note_on,77,45,0
1,note_on,77,0,160
1,note_on,77,45,0
1,note_on,77,0,80
1,note_on,69,41,80
1,note_on,72,48,0
1,note_on,72,0,160
1,note_on,69,0,0
1,note_on,78,45,0
1,note_on,78,0,160
1,note_on,78,45,0
1,note_on,78,0,80
1,note_on,69,42,80
1,note_on,72,50,0
1,note_on,72,0,160
1,note_on,69,0,0
1,note_on,77,46,0
1,note_on,77,0,160
1,note_on,77,47,0
1,note_on,77,0,80
1,note_on,68,44,80
1,note_on,73,52,0
1,note_on,73,0,160
1,note_on,68,0,0
1,note_on,78,48,0
1,note_on,78,0,160
1,note_on,78,48,0
1,note_on,78,0,80
1,note_on,68,44,80
1,note_on,73,52,0
1,note_on,73,0,160
1,note_on,68,0,0
1,note_on,77,48,0
1,note_on,77,0,160
1,note_on,77,48,0
1,note_on,77,0,80
1,note_on,68,43,80
1,note_on,72,51,0
1,note_on,72,0,160
1,note_on,68,0,0
1,note_on,75,47,0
1,note_on,75,0,160
1,note_on,75,46,0
1,note_on,75,0,80
1,note_on,67,43,80
1,note_on,70,51,0
1,note_on,70,0,160
1,note_on,67,0,0
1,note_on,75,46,0
1,note_on,75,0,160
1,note_on,75,46,0
1,note_on,75,0,80
1,note_on,78,41,1040
1,note_on,83,48,0
1,note_on,83,0,160
1,note_on,78,0,0
1,note_on,87,45,0
1,note_on,87,0,160
1,note_on,87,45,0
1,note_on,87,0,80
1,note_on,78,41,80
1,note_on,83,49,0
1,note_on,83,0,160
1,note_on,78,0,0
1,note_on,86,44,0
1,note_on,86,0,160
1,note_on,86,44,0
1,note_on,86,0,80
1,note_on,78,42,80
1,note_on,82,50,0
1,note_on,82,0,160
1,note_on,78,0,0
1,note_on,85,46,0
1,note_on,85,0,160
1,note_on,85,46,0
1,note_on,85,0,80
1,note_on,77,40,80
1,note_on,80,48,0
1,note_on,80,0,160
1,note_on,77,0,0
1,note_on,85,44,0
1,note_on,85,0,160
1,note_on,85,44,0
1,note_on,85,0,80
1,note_on,66,37,560
1,note_on,69,44,0
1,note_on,69,0,160
1,note_on,66,0,0
1,note_on,73,39,0
1,note_on,73,0,160
1,note_on,73,39,0
1,note_on,73,0,80
1,note_on,65,38,80
1,note_on,68,45,0
1,note_on,68,0,160
1,note_on,65,0,0
1,note_on,73,41,0
1,note_on,73,0,160
1,note_on,73,41,0
1,note_on,73,0,80
1,note_on,65,33,560
1,note_on,68,39,0
1,note_on,68,0,160
1,note_on,65,0,0
1,note_on,71,35,0
1,note_on,71,0,160
1,note_on,71,35,0
1,note_on,71,0,80
1,note_on,65,34,80
1,note_on,68,40,0
1,note_on,68,0,160
1,note_on,65,0,0
1,note_on,70,36,0
1,note_on,70,0,160
1,note_on,70,36,0
1,note_on,70,0,80
1,note_on,77,40,560
1,note_on,80,40,0
1,note_on,80,0,160
1,note_on,77,0,0
1,note_on,82,36,0
1,note_on,82,0,160
1,note_on,82,36,0
1,note_on,82,0,80
1,note_on,75,45,80
1,note_on,80,45,0
1,note_on,80,0,160
1,note_on,75,0,0
1,note_on,84,37,0
1,note_on,84,0,160
1,note_on,84,37,0
1,note_on,84,0,80
1,note_on,75,45,80
1,note_on,79,45,0
1,note_on,79,0,160
1,note_on,75,0,0
1,note_on,82,39,0
1,note_on,82,0,160
1,note_on,82,39,0
1,note_on,82,0,80
1,note_on,63,39,80
1,note_on,67,47,0
1,note_on,67,0,160
1,note_on,63,0,0
1,note_on,70,40,0
1,note_on,70,0,160
1,note_on,70,40,0
1,note_on,70,0,80
1,note_on,62,43,80
1,note_on,65,51,0
1,note_on,65,0,160
1,note_on,62,0,0
1,note_on,70,46,0
1,note_on,70,0,160
1,note_on,70,46,0
1,note_on,70,0,80
1,note_on,65,49,80
1,note_on,70,58,0
1,note_on,70,0,160
1,note_on,65,0,0
1,note_on,77,50,0
1,note_on,77,0,160
1,note_on,77,50,0
1,note_on,77,0,80
1,note_on,65,50,80
1,note_on,69,60,0
1,note_on,69,0,160
1,note_on,65,0,0
1,note_on,77,53,0
1,note_on,77,0,160
1,note_on,77,53,0
1,note_on,77,0,80
1,note_on,62,58,80
1,note_on,65,58,0
1,note_on,70,58,0
1,note_on,70,0,120
1,note_on,65,0,0
1,note_on,62,0,0
1,note_on,65,47,40
1,note_on,65,0,160
1,note_on,62,47,0
1,note_on,62,0,160
1,note_on,65,47,0
1,note_on,65,0,160
1,note_on,70,51,0
1,note_on,70,0,160
1,note_on,74,55,0
1,note_on,74,0,160
1,note_on,77,68,0
1,note_on,67,48,480
1,note_on,67,0,240
1,note_on,77,0,0
1,note_on,69,45,0
1,note_on,75,54,0
1,note_on,75,0,240
1,note_on,69,0,0
1,note_on,65,47,0
1,note_on,70,47,0
1,note_on,74,56,0
1,note_on,74,0,480
1,note_on,70,0,0
1,note_on,65,0,0
1,note_on,66,52,0
1,note_on,72,52,0
1,note_on,74,62,0
1,note_on,74,0,480
1,note_on,72,0,0
1,note_on,66,0,0
1,note_on,67,54,0
1,note_on,65,54,0
1,note_on,71,54,0
1,note_on,74,64,0
1,note_on,74,0,480
1,note_on,67,0,0
1,note_on,65,0,0
1,note_on,71,0,0
1,note_on,75,65,0
1,note_on,63,55,0
1,note_on,67,55,0
1,note_on,72,55,0
1,note_on,75,0,360
1,note_on,74,55,0
1,note_on,74,0,120
1,note_on,72,0,0
1,note_on,67,0,0
1,note_on,63,0,0
1,note_on,65,44,0
1,note_on,69,44,0
1,note_on,72,52,0
1,note_on,72,0,720
1,note_on,73,47,0
1,note_on,73,0,240
1,note_on,69,0,0
1,note_on,70,43,0
1,note_on,74,51,0
1,note_on,74,0,120
1,note_on,70,0,0
1,note_on,65,0,0
1,note_on,65,39,360
1,note_on,70,39,0
1,note_on,74,46,0
1,note_on,74,0,120
1,note_on,70,0,0
1,note_on,65,0,0
1,note_on,53,47,520
1,note_on,53,0,160
1,note_on,50,47,0
1,note_on,50,0,160
1,note_on,53,47,0
1,note_on,53,0,160
1,note_on,58,51,0
1,note_on,58,0,160
1,note_on,62,55,0
1,note_on,62,0,160
1,note_on,65,65,0
1,note_on,53,46,240
1,note_on,55,48,240
1,note_on,55,0,240
1,note_on,53,0,0
1,note_on,65,0,0
1,note_on,53,45,0
1,note_on,57,45,0
1,note_on,63,54,0
1,note_on,63,0,240
1,note_on,57,0,0
1,note_on,53,0,0
1,note_on,53,47,0
1,note_on,58,47,0
1,note_on,62,56,0
1,note_on,62,0,480
1,note_on,58,0,0
1,note_on,53,0,0
1,note_on,54,52,0
1,note_on,60,52,0
1,note_on,62,62,0
1,note_on,62,0,480
1,note_on,60,0,0
1,note_on,54,0,0
1,note_on,55,54,0
1,note_on,53,54,0
1,note_on,59,54,0
1,note_on,62,64,0
1,note_on,62,0,390
1,note_on,59,0,0
1,note_on,55,0,0
1,note_on,51,50,45
1,note_on,55,56,15
1,note_on,60,63,15
1,note_on,53,0,15
1,note_on,63,71,0
1,note_on,63,0,240
1,note_on,60,0,0
1,note_on,55,0,0
1,note_on,51,0,0
1,note_on,67,62,720
1,note_on,73,62,0
1,note_on,75,74,0
1,note_on,75,0,480
1,note_on,73,0,0
1,note_on,67,0,0
1,note_on,68,64,0
1,note_on,66,64,0
1,note_on,72,64,0
1,note_on,75,77,0
1,note_on,75,0,390
1,note_on,68,0,0
1,note_on,66,0,0
1,note_on,72,0,0
1,note_on,64,65,45
1,note_on,68,70,15
1,note_on,73,72,15
1,note_on,76,85,15
1,note_on,76,0,240
1,note_on,64,0,0
1,note_on,68,0,0
1,note_on,73,0,0
1,note_on,79,82,720
1,note_on,81,82,0
1,note_on,88,99,0
1,note_on,85,99,0
1,note_on,85,0,390
1,note_on,79,0,0
1,note_on,81,0,0
1,note_on,88,0,0
1,note_on,77,86,45
1,note_on,81,89,15
1,note_on,86,94,15
1,note_on,89,103,15
1,note_on,89,0,240
1,note_on,77,0,0
1,note_on,81,0,0
1,note_on,86,0,0
1,note_on,70,52,720
1,note_on,74,52,0
1,note_on,77,62,0
1,note_on,77,0,720
1,note_on,78,56,0
1,note_on,78,0,240
1,note_on,74,0,0
1,note_on,75,51,0
1,note_on,79,61,0
1,note_on,79,0,120
1,note_on,75,0,0
1,note_on,70,0,0
1,note_on,70,46,360
1,note_on,75,46,0
1,note_on,79,55,0
1,note_on,79,0,120
1,note_on,75,0,0
1,note_on,70,0,0
1,note_on,79,61,360
1,note_on,82,61,0
1,note_on,82,0,1440
1,note_on,79,0,0
1,note_on,70,54,480
1,note_on,70,0,1200
1,note_on,67,45,0
1,note_on,67,0,240
1,note_on,63,50,0
1,note_on,63,0,240
1,note_on,62,45,0
1,note_on,62,0,240
1,note_on,53,34,0
1,note_on,57,34,0
1,note_on,62,49,0
1,note_on,62,0,480
1,note_on,60,44,0
1,note_on,60,0,360
1,note_on,61,44,0
1,note_on,61,0,120
1,note_on,57,0,0
1,note_on,58,40,0
1,note_on,62,48,0
1,note_on,62,0,120
1,note_on,58,0,0
1,note_on,53,0,0
1,note_on,53,30,360
1,note_on,58,36,0
1,note_on,62,44,0
1,note_on,62,0,120
1,note_on,58,0,0
1,note_on,53,0,0
1,note_on,62,48,360
1,note_on,65,48,0
1,note_on,65,0,1440
1,note_on,62,0,0
1,note_on,70,52,480
1,note_on,74,52,0
1,note_on,77,62,0
1,note_on,77,0,720
1,note_on,78,56,0
1,note_on,78,0,240
1,note_on,74,0,0
1,note_on,75,51,0
1,note_on,79,61,0
1,note_on,79,0,120
1,note_on,75,0,0
1,note_on,70,0,0
1,note_on,70,55,360
1,note_on,75,55,0
1,note_on,79,66,0
1,note_on,79,0,120
1,note_on,75,0,0
1,note_on,70,0,0
1,note_on,63,79,360
1,note_on,63,0,60
1,note_on,67,78,0
1,note_on,67,0,60
1,note_on,70,72,0
1,note_on,70,0,60
1,note_on,75,68,0
1,note_on,75,0,60
1,note_on,79,66,0
1,note_on,79,0,60
1,note_on,82,64,0
1,note_on,82,0,60
1,note_on,87,61,0
1,note_on,87,0,60
1,note_on,91,59,0
1,note_on,91,0,60
1,note_on,94,58,0
1,note_on,94,0,60
1,note_on,82,62,1380
1,note_on,82,0,1680
1,note_on,81,50,0
1,note_on,81,0,240
1,note_on,81,53,0
1,note_on,81,0,480
1,note_on,79,51,0
1,note_on,79,0,360
1,note_on,77,47,0
1,note_on,77,0,120
1,note_on,77,51,0
1,note_on,77,0,480
1,note_on,75,48,0
1,note_on,75,0,360
1,note_on,74,41,0
1,note_on,74,0,120
1,note_on,65,30,0
1,note_on,69,30,0
1,note_on,74,44,0
1,note_on,74,0,480
1,note_on,72,39,0
1,note_on,72,0,360
1,note_on,73,39,0
1,note_on,73,0,120
1,note_on,69,0,0
1,note_on,70,36,0
1,note_on,74,43,0
1,note_on,74,0,120
1,note_on,70,0,0
1,note_on,65,0,0
1,note_on,65,27,360
1,note_on,70,32,0
1,note_on,74,39,0
1,note_on,74,0,120
1,note_on,70,0,0
1,note_on,65,0,0
1,note_on,74,43,360
1,note_on,77,43,0
1,note_on,77,0,1440
1,note_on,74,0,0
1,note_on,74,55,480
1,note_on,72,55,0
1,note_on,77,55,0
1,note_on,77,0,1440
1,note_on,72,0,0
1,note_on,74,0,0
1,note_on,71,53,480
1,note_on,74,56,0
1,note_on,68,51,0
1,note_on,80,67,0
1,note_on,80,0,1440
1,note_on,68,0,0
1,note_on,67,44,0
1,note_on,79,52,0
1,note_on,79,0,480
1,note_on,71,0,0
1,note_on,74,0,0
1,note_on,67,0,0
1,note_on,67,45,0
1,note_on,72,53,0
1,note_on,77,53,0
1,note_on,77,0,480
1,note_on,72,0,0
1,note_on,67,0,0
1,note_on,75,52,0
1,note_on,75,0,240
1,note_on,66,40,0
1,note_on,74,48,0
1,note_on,74,0,240
1,note_on,66,0,0
1,note_on,67,46,0
1,note_on,77,55,0
1,note_on,77,0,480
1,note_on,75,52,0
1,note_on,75,0,240
1,note_on,67,0,0
1,note_on,63,39,0
1,note_on,72,47,0
1,note_on,72,0,240
1,note_on,63,0,0
1,note_on,70,53,0
1,note_on,70,0,360
1,note_on,69,50,0
1,note_on,69,0,120
1,note_on,65,40,0
1,note_on,69,48,0
1,note_on,69,0,480
1,note_on,65,0,0
1,note_on,66,37,0
1,note_on,69,55,0
1,note_on,69,0,480
1,note_on,66,0,0
1,note_on,65,44,0
1,note_on,69,52,0
1,note_on,65,0,240
1,note_on,63,48,0
1,note_on,63,0,240
1,note_on,69,0,0
1,note_on,62,45,0
1,note_on,70,54,0
1,note_on,70,0,240
1,note_on,62,0,0
1,note_on,62,43,240
1,note_on,65,43,0
1,note_on,65,0,1440
1,note_on,62,0,0
1,note_on,62,55,480
1,note_on,60,55,0
1,note_on,65,55,0
1,note_on,65,0,1440
1,note_on,60,0,0
1,note_on,62,0,0
1,note_on,59,56,0
1,note_on,62,56,0
1,note_on,56,56,0
1,note_on,68,67,0
1,note_on,68,0,1440
1,note_on,56,0,0
1,note_on,55,39,0
1,note_on,67,46,0
1,note_on,67,0,480
1,note_on,59,0,0
1,note_on,62,0,0
1,note_on,55,0,0
1,note_on,55,40,0
1,note_on,60,47,0
1,note_on,65,47,0
1,note_on,65,0,480
1,note_on,60,0,0
1,note_on,55,0,0
1,note_on,63,46,0
1,note_on,63,0,240
1,note_on,54,36,0
1,note_on,62,43,0
1,note_on,62,0,240
1,note_on,54,0,0
1,note_on,55,41,0
1,note_on,65,49,0
1,note_on,65,0,480
1,note_on,63,46,0
1,note_on,63,0,240
1,note_on,55,0,0
1,note_on,51,35,0
1,note_on,60,42,0
1,note_on,60,0,240
1,note_on,51,0,0
1,note_on,58,47,0
1,note_on,58,0,360
1,note_on,57,45,0
1,note_on,57,0,120
1,note_on,53,36,0
1,note_on,57,43,0
1,note_on,57,0,480
1,note_on,53,0,0
1,note_on,54,33,0
1,note_on,57,49,0
1,note_on,57,0,480
1,note_on,54,0,0
1,note_on,53,39,0
1,note_on,57,46,0
1,note_on,53,0,240
1,note_on,51,43,0
1,note_on,51,0,240
1,note_on,57,0,0
1,note_on,58,48,0
1,note_on,58,0,240
1,note_on,58,28,1200
1,note_on,65,32,0
1,note_on,70,38,0
1,note_on,70,0,480
1,note_on,65,0,0
1,note_on,58,0,0
1,note_on,58,29,0
1,note_on,65,33,0
1,note_on,70,40,0
1,note_on,70,0,480
1,note_on,65,0,0
1,note_on,58,0,0
1,note_on,57,24,0
1,note_on,65,32,0
1,note_on,69,38,0
1,note_on,69,0,480
1,note_on,65,0,0
1,note_on,57,0,0
1,note_on,58,29,0
1,note_on,65,33,0
1,note_on,70,40,0
1,note_on,70,0,480
1,note_on,65,0,0
1,note_on,58,0,0
1,note_on,65,32,0
1,note_on,60,28,0
1,note_on,69,32,0
1,note_on,72,38,0
1,note_on,72,0,480
1,note_on,65,0,0
1,note_on,60,0,0
1,note_on,69,0,0
1,note_on,58,32,0
1,note_on,65,36,0
1,note_on,70,42,0
1,note_on,70,0,960
1,note_on,65,0,0
1,note_on,58,0,0
1,note_on,74,38,480
1,note_on,62,28,0
1,note_on,65,32,0
1,note_on,65,0,480
1,note_on,62,0,0
1,note_on,74,0,0
1,note_on,62,29,0
1,note_on,65,34,0
1,note_on,74,41,0
1,note_on,74,0,480
1,note_on,65,0,0
1,note_on,62,0,0
1,note_on,60,25,0
1,note_on,72,40,0
1,note_on,65,34,0
1,note_on,65,0,480
1,note_on,72,0,0
1,note_on,60,0,0
1,note_on,74,44,0
1,note_on,62,31,0
1,note_on,65,36,0
1,note_on,65,0,480
1,note_on,62,0,0
1,note_on,74,0,0
1,note_on,75,43,0
1,note_on,63,36,0
1,note_on,69,36,0
1,note_on,69,0,480
1,note_on,63,0,0
1,note_on,75,0,0
1,note_on,62,32,0
1,note_on,70,36,0
1,note_on,74,42,0
1,note_on,74,0,960
1,note_on,70,0,0
1,note_on,62,0,0
1,note_on,58,28,480
1,note_on,65,32,0
1,note_on,70,38,0
1,note_on,70,0,480
1,note_on,65,0,0
1,note_on,58,0,0
1,note_on,58,29,0
1,note_on,65,33,0
1,note_on,70,40,0
1,note_on,70,0,480
1,note_on,65,0,0
1,note_on,58,0,0
1,note_on,57,24,0
1,note_on,65,32,0
1,note_on,69,38,0
1,note_on,69,0,480
1,note_on,65,0,0
1,note_on,57,0,0
1,note_on,58,29,0
1,note_on,65,33,0
1,note_on,70,40,0
1,note_on,70,0,480
1,note_on,65,0,0
1,note_on,58,0,0
1,note_on,65,32,0
1,note_on,60,28,0
1,note_on,69,32,0
1,note_on,72,38,0
1,note_on,72,0,480
1,note_on,65,0,0
1,note_on,60,0,0
1,note_on,69,0,0
1,note_on,69,36,0
1,note_on,60,32,0
1,note_on,65,36,0
1,note_on,72,42,0
1,note_on,72,0,4320
1,note_on,69,0,0
1,note_on,60,0,0
1,note_on,65,0,0
1,note_on,63,30,480
1,note_on,69,30,0
1,note_on,77,36,0
1,note_on,77,0,480
1,note_on,69,0,0
1,note_on,63,0,0
1,note_on,62,30,480
1,note_on,70,36,0
1,note_on,70,0,480
1,note_on,62,0,0
2,note_on,50,33,1440
2,note_on,46,27,0
2,note_on,50,0,240
2,note_on,53,28,0
2,note_on,53,0,240
2,note_on,46,0,0
2,note_on,46,28,0
2,note_on,50,34,0
2,note_on,50,0,240
2,note_on,53,28,0
2,note_on,53,0,240
2,note_on,46,0,0
2,note_on,48,31,0
2,note_on,46,24,0
2,note_on,48,0,240
2,note_on,53,27,0
2,note_on,53,0,240
2,note_on,46,0,0
2,note_on,46,28,0
2,note_on,50,34,0
2,note_on,50,0,240
2,note_on,53,27,0
2,note_on,53,0,240
2,note_on,46,0,0
2,note_on,51,33,0
2,note_on,46,27,0
2,note_on,51,0,240
2,note_on,53,26,0
2,note_on,53,0,240
2,note_on,46,0,0
2,note_on,46,28,0
2,note_on,52,34,0
2,note_on,52,0,240
2,note_on,53,26,0
2,note_on,53,0,120
2,note_on,53,26,120
2,note_on,53,0,120
2,note_on,53,26,120
2,note_on,53,0,120
2,note_on,53,26,120
2,note_on,53,0,120
2,note_on,53,26,120
2,note_on,53,0,120
2,note_on,46,0,120
2,note_on,46,27,0
2,note_on,51,33,0
2,note_on,51,0,240
2,note_on,50,27,0
2,note_on,50,0,240
2,note_on,46,0,0
2,note_on,41,26,0
2,note_on,51,31,0
2,note_on,51,0,240
2,note_on,53,25,0
2,note_on,53,0,240
2,note_on,41,0,0
2,note_on,51,29,0
2,note_on,41,26,0
2,note_on,51,0,240
2,note_on,53,25,0
2,note_on,53,0,240
2,note_on,41,0,0
2,note_on,41,26,0
2,note_on,51,29,0
2,note_on,51,0,240
2,note_on,53,26,0
2,note_on,53,0,240
2,note_on,41,0,0
2,note_on,50,33,0
2,note_on,41,27,0
2,note_on,50,0,240
2,note_on,48,25,0
2,note_on,48,0,240
2,note_on,41,0,0
2,note_on,46,28,0
2,note_on,50,34,0
2,note_on,50,0,240
2,note_on,53,30,0
2,note_on,53,0,240
2,note_on,51,33,0
2,note_on,51,0,240
2,note_on,55,28,0
2,note_on,55,0,240
2,note_on,50,29,0
2,note_on,50,0,240
2,note_on,53,30,0
2,note_on,53,0,240
2,note_on,46,0,0
2,note_on,46,28,0
2,note_on,50,39,0
2,note_on,50,0,240
2,note_on,58,34,0
2,note_on,58,0,240
2,note_on,46,0,0
2,note_on,55,36,0
2,note_on,46,30,0
2,note_on,58,32,240
2,note_on,58,0,120
2,note_on,58,33,120
2,note_on,58,0,120
2,note_on,58,30,120
2,note_on,58,0,120
2,note_on,58,34,120
2,note_on,58,0,120
2,note_on,58,31,120
2,note_on,58,0,120
2,note_on,46,0,120
2,note_on,55,0,0
2,note_on,46,27,0
2,note_on,53,33,0
2,note_on,53,0,240
2,note_on,51,31,0
2,note_on,51,0,240
2,note_on,46,0,0
2,note_on,53,33,0
2,note_on,46,27,0
2,note_on,53,0,240
2,note_on,50,28,0
2,note_on,50,0,240
2,note_on,46,0,0
2,note_on,41,27,0
2,note_on,48,33,0
2,note_on,48,0,240
2,note_on,53,28,0
2,note_on,53,0,240
2,note_on,41,0,0
2,note_on,50,33,0
2,note_on,41,27,0
2,note_on,50,0,240
2,note_on,53,30,0
2,note_on,53,0,240
2,note_on,41,0,0
2,note_on,51,32,0
2,note_on,41,27,0
2,note_on,51,0,240
2,note_on,53,29,0
2,note_on,53,0,240
2,note_on,41,0,0
2,note_on,50,32,0
2,note_on,41,27,0
2,note_on,50,0,240
2,note_on,53,29,0
2,note_on,53,0,240
2,note_on,50,32,0
2,note_on,50,0,240
2,note_on,46,29,0
2,note_on,46,0,240
2,note_on,41,0,0
2,note_on,41,32,0
2,note_on,41,0,480
2,note_on,29,27,240
2,note_on,30,22,80
2,note_on,29,0,20
2,note_on,32,22,60
2,note_on,30,0,20
2,note_on,30,27,60
2,note_on,32,0,20
2,note_on,32,23,40
2,note_on,30,0,40
2,note_on,30,24,20
2,note_on,32,0,40
2,note_on,32,22,20
2,note_on,30,0,40
2,note_on,30,24,20
2,note_on,32,0,40
2,note_on,32,22,20
2,note_on,30,0,40
2,note_on,30,25,20
2,note_on,32,0,40
2,note_on,32,24,20
2,note_on,30,0,40
2,note_on,30,26,20
2,note_on,32,0,40
2,note_on,32,23,20
2,note_on,30,0,40
2,note_on,30,26,20
2,note_on,32,0,40
2,note_on,32,22,20
2,note_on,30,0,40
2,note_on,30,25,20
2,note_on,32,0,40
2,note_on,32,23,20
2,note_on,30,0,40
2,note_on,30,24,20
2,note_on,32,0,40
2,note_on,32,22,20
2,note_on,30,0,40
2,note_on,30,26,20
2,note_on,32,0,40
2,note_on,32,23,20
2,note_on,30,0,40
2,note_on,30,25,20
2,note_on,32,0,40
2,note_on,32,23,20
2,note_on,30,0,40
2,note_on,30,25,20
2,note_on,32,0,40
2,note_on,32,22,20
2,note_on,30,0,40
2,note_on,30,25,20
2,note_on,32,0,40
2,note_on,32,22,20
2,note_on,30,0,40
2,note_on,30,27,20
2,note_on,32,0,40
2,note_on,32,23,20
2,note_on,30,0,40
2,note_on,30,26,20
2,note_on,32,0,40
2,note_on,32,22,20
2,note_on,30,0,40
2,note_on,29,22,20
2,note_on,32,0,40
2,note_on,30,18,80
2,note_on,29,0,20
2,note_on,29,23,100
2,note_on,30,0,20
2,note_on,29,0,100
2,note_on,46,27,1320
2,note_on,50,33,0
2,note_on,50,0,240
2,note_on,53,28,0
2,note_on,53,0,240
2,note_on,46,0,0
2,note_on,50,34,0
2,note_on,46,28,0
2,note_on,50,0,240
2,note_on,53,28,0
2,note_on,53,0,240
2,note_on,46,0,0
2,note_on,46,24,0
2,note_on,48,31,0
2,note_on,48,0,240
2,note_on,53,27,0
2,note_on,53,0,240
2,note_on,46,0,0
2,note_on,46,28,0
2,note_on,50,34,0
2,note_on,50,0,240
2,note_on,53,27,0
2,note_on,53,0,240
2,note_on,46,0,0
2,note_on,51,33,0
2,note_on,46,27,0
2,note_on,51,0,240
2,note_on,53,26,0
2,note_on,53,0,240
2,note_on,46,0,0
2,note_on,52,34,0
2,note_on,46,28,0
2,note_on,52,0,240
2,note_on,53,26,0
2,note_on,53,0,120
2,note_on,53,26,120
2,note_on,53,0,120
2,note_on,53,26,120
2,note_on,53,0,120
2,note_on,53,26,120
2,note_on,53,0,120
2,note_on,53,26,120
2,note_on,53,0,120
2,note_on,46,0,120
2,note_on,46,27,0
2,note_on,51,33,0
2,note_on,51,0,240
2,note_on,50,27,0
2,note_on,50,0,240
2,note_on,46,0,0
2,note_on,51,31,0
2,note_on,41,26,0
2,note_on,51,0,240
2,note_on,53,25,0
2,note_on,53,0,240
2,note_on,41,0,0
2,note_on,51,29,0
2,note_on,41,26,0
2,note_on,51,0,240
2,note_on,53,25,0
2,note_on,53,0,240
2,note_on,41,0,0
2,note_on,51,29,0
2,note_on,41,26,0
2,note_on,51,0,240
2,note_on,53,28,0
2,note_on,53,0,240
2,note_on,41,0,0
2,note_on,41,27,0
2,note_on,50,33,0
2,note_on,50,0,240
2,note_on,48,25,0
2,note_on,48,0,240
2,note_on,41,0,0
2,note_on,46,28,0
2,note_on,50,34,0
2,note_on,50,0,240
2,note_on,53,30,0
2,note_on,53,0,240
2,note_on,51,33,0
2,note_on,51,0,240
2,note_on,55,28,0
2,note_on,55,0,240
2,note_on,50,29,0
2,note_on,50,0,240
2,note_on,53,30,0
2,note_on,53,0,240
2,note_on,46,0,0
2,note_on,50,39,0
2,note_on,44,28,0
2,note_on,50,0,240
2,note_on,53,34,0
2,note_on,53,0,240
2,note_on,44,0,0
2,note_on,53,36,0
2,note_on,43,30,0
2,note_on,55,32,240
2,note_on,55,0,120
2,note_on,55,33,120
2,note_on,55,0,120
2,note_on,55,30,120
2,note_on,55,0,120
2,note_on,55,34,120
2,note_on,55,0,120
2,note_on,55,31,120
2,note_on,55,0,120
2,note_on,43,0,120
2,note_on,53,0,0
2,note_on,43,24,0
2,note_on,51,27,0
2,note_on,55,33,0
2,note_on,55,0,240
2,note_on,51,0,0
2,note_on,43,0,0
2,note_on,50,27,0
2,note_on,55,31,0
2,note_on,43,24,0
2,note_on,43,0,240
2,note_on,55,0,0
2,note_on,50,0,0
2,note_on,48,34,0
2,note_on,43,28,0
2,note_on,48,0,240
2,note_on,55,30,0
2,note_on,55,0,240
2,note_on,43,0,0
2,note_on,53,33,0
2,note_on,43,28,0
2,note_on,53,0,240
2,note_on,55,28,0
2,note_on,55,0,240
2,note_on,43,0,0
2,note_on,51,28,0
2,note_on,43,27,0
2,note_on,51,0,240
2,note_on,55,29,0
2,note_on,55,0,240
2,note_on,43,0,0
2,note_on,42,28,0
2,note_on,51,39,0
2,note_on,51,0,240
2,note_on,54,34,0
2,note_on,54,0,240
2,note_on,42,0,0
2,note_on,41,30,0
2,note_on,51,36,0
2,note_on,53,32,240
2,note_on,53,0,120
2,note_on,53,33,120
2,note_on,53,0,120
2,note_on,53,30,120
2,note_on,53,0,120
2,note_on,53,34,120
2,note_on,53,0,120
2,note_on,53,31,120
2,note_on,53,0,120
2,note_on,51,0,120
2,note_on,41,0,0
2,note_on,41,24,0
2,note_on,53,33,0
2,note_on,50,27,0
2,note_on,50,0,240
2,note_on,53,0,0
2,note_on,41,0,0
2,note_on,41,24,0
2,note_on,53,31,0
2,note_on,48,27,0
2,note_on,48,0,240
2,note_on,53,0,0
2,note_on,41,0,0
2,note_on,41,28,0
2,note_on,46,34,0
2,note_on,46,0,240
2,note_on,53,30,0
2,note_on,53,0,240
2,note_on,41,0,0
2,note_on,48,31,0
2,note_on,41,26,0
2,note_on,48,0,240
2,note_on,53,26,0
2,note_on,53,0,240
2,note_on,41,0,0
2,note_on,50,29,0
2,note_on,41,28,0
2,note_on,50,0,240
2,note_on,53,27,0
2,note_on,53,0,240
2,note_on,41,0,0
2,note_on,41,25,0
2,note_on,51,35,0
2,note_on,51,0,240
2,note_on,53,30,0
2,note_on,53,0,240
2,note_on,41,0,0
2,note_on,41,27,0
2,note_on,51,32,0
2,note_on,53,32,0
2,note_on,51,0,960
2,note_on,41,0,0
2,note_on,50,28,0
2,note_on,46,28,0
2,note_on,46,0,240
2,note_on,50,0,0
2,note_on,53,0,0
2,note_on,34,30,240
2,note_on,34,0,240
2,note_on,34,30,240
2,note_on,35,26,60
2,note_on,34,0,30
2,note_on,34,27,30
2,note_on,35,0,30
2,note_on,35,25,30
2,note_on,34,0,30
2,note_on,34,27,30
2,note_on,35,0,30
2,note_on,35,25,30
2,note_on,34,0,30
2,note_on,34,28,30
2,note_on,35,0,30
2,note_on,35,27,30
2,note_on,34,0,30
2,note_on,34,29,30
2,note_on,35,0,30
2,note_on,35,26,30
2,note_on,34,0,30
2,note_on,34,29,30
2,note_on,35,0,30
2,note_on,35,25,30
2,note_on,34,0,30
2,note_on,34,28,30
2,note_on,35,0,30
2,note_on,35,26,30
2,note_on,34,0,30
2,note_on,34,27,30
2,note_on,35,0,30
2,note_on,35,25,30
2,note_on,34,0,30
2,note_on,34,29,30
2,note_on,35,0,30
2,note_on,35,26,30
2,note_on,34,0,30
2,note_on,34,28,30
2,note_on,35,0,30
2,note_on,35,26,30
2,note_on,34,0,30
2,note_on,34,28,30
2,note_on,35,0,30
2,note_on,35,25,30
2,note_on,34,0,30
2,note_on,34,28,30
2,note_on,35,0,30
2,note_on,35,25,30
2,note_on,34,0,30
2,note_on,34,30,30
2,note_on,35,0,30
2,note_on,33,26,90
2,note_on,34,0,20
2,note_on,32,30,100
2,note_on,33,0,20
2,note_on,31,26,100
2,note_on,32,0,20
2,note_on,30,30,100
2,note_on,31,0,20
2,note_on,30,0,100
2,note_on,49,26,0
2,note_on,49,0,120
2,note_on,54,26,0
2,note_on,54,0,120
2,note_on,49,26,0
2,note_on,49,0,120
2,note_on,42,31,0
2,note_on,42,0,120
2,note_on,49,26,0
2,note_on,49,0,120
2,note_on,53,26,0
2,note_on,53,0,120
2,note_on,49,25,0
2,note_on,49,0,120
2,note_on,42,30,0
2,note_on,42,0,120
2,note_on,49,27,0
2,note_on,49,0,120
2,note_on,54,27,0
2,note_on,54,0,120
2,note_on,49,27,0
2,note_on,49,0,120
2,note_on,42,30,0
2,note_on,42,0,120
2,note_on,49,27,0
2,note_on,49,0,120
2,note_on,56,27,0
2,note_on,56,0,120
2,note_on,49,27,0
2,note_on,49,0,120
2,note_on,42,33,0
2,note_on,42,0,120
2,note_on,49,27,0
2,note_on,49,0,120
2,note_on,58,27,0
2,note_on,58,0,120
2,note_on,49,27,0
2,note_on,49,0,120
2,note_on,42,31,0
2,note_on,42,0,120
2,note_on,49,27,0
2,note_on,49,0,120
2,note_on,58,27,0
2,note_on,58,0,120
2,note_on,49,27,0
2,note_on,49,0,120
2,note_on,42,30,0
2,note_on,42,0,120
2,note_on,49,27,0
2,note_on,49,0,120
2,note_on,58,27,0
2,note_on,58,0,120
2,note_on,49,27,0
2,note_on,49,0,120
2,note_on,42,31,0
2,note_on,42,0,120
2,note_on,49,25,0
2,note_on,49,0,120
2,note_on,54,28,0
2,note_on,54,0,120
2,note_on,49,27,0
2,note_on,49,0,120
2,note_on,42,33,0
2,note_on,42,0,120
2,note_on,51,27,0
2,note_on,51,0,120
2,note_on,59,27,0
2,note_on,59,0,120
2,note_on,51,27,0
2,note_on,51,0,120
2,note_on,42,32,0
2,note_on,42,0,120
2,note_on,51,27,0
2,note_on,51,0,120
2,note_on,59,27,0
2,note_on,59,0,120
2,note_on,51,27,0
2,note_on,51,0,120
2,note_on,42,32,0
2,note_on,42,0,120
2,note_on,51,27,0
2,note_on,51,0,120
2,note_on,59,27,0
2,note_on,59,0,120
2,note_on,51,27,0
2,note_on,51,0,120
2,note_on,42,33,0
2,note_on,42,0,120
2,note_on,51,27,0
2,note_on,51,0,120
2,note_on,59,31,0
2,note_on,59,0,120
2,note_on,51,27,0
2,note_on,51,0,120
2,note_on,42,33,0
2,note_on,42,0,120
2,note_on,49,28,0
2,note_on,49,0,120
2,note_on,58,28,0
2,note_on,58,0,120
2,note_on,49,28,0
2,note_on,49,0,120
2,note_on,42,33,0
2,note_on,42,0,120
2,note_on,49,27,0
2,note_on,49,0,120
2,note_on,58,28,0
2,note_on,58,0,120
2,note_on,49,27,0
2,note_on,49,0,120
2,note_on,42,33,0
2,note_on,42,0,120
2,note_on,49,28,0
2,note_on,49,0,120
2,note_on,58,29,0
2,note_on,58,0,120
2,note_on,49,29,0
2,note_on,49,0,120
2,note_on,42,33,0
2,note_on,42,0,120
2,note_on,49,27,0
2,note_on,49,0,120
2,note_on,54,31,0
2,note_on,54,0,120
2,note_on,49,27,0
2,note_on,49,0,120
2,note_on,42,33,0
2,note_on,42,0,120
2,note_on,51,28,0
2,note_on,51,0,120
2,note_on,59,28,0
2,note_on,59,0,120
2,note_on,51,28,0
2,note_on,51,0,120
2,note_on,42,33,0
2,note_on,42,0,120
2,note_on,51,29,0
2,note_on,51,0,120
2,note_on,59,29,0
2,note_on,59,0,120
2,note_on,51,29,0
2,note_on,51,0,120
2,note_on,42,33,0
2,note_on,42,0,120
2,note_on,49,28,0
2,note_on,49,0,120
2,note_on,53,28,0
2,note_on,53,0,120
2,note_on,49,27,0
2,note_on,49,0,120
2,note_on,42,31,0
2,note_on,42,0,120
2,note_on,49,27,0
2,note_on,49,0,120
2,note_on,56,28,0
2,note_on,56,0,120
2,note_on,49,28,0
2,note_on,49,0,120
2,note_on,42,33,0
2,note_on,42,0,120
2,note_on,49,28,0
2,note_on,49,0,120
2,note_on,58,28,0
2,note_on,58,0,120
2,note_on,49,28,0
2,note_on,49,0,120
2,note_on,42,33,0
2,note_on,42,0,120
2,note_on,49,27,0
2,note_on,49,0,120
2,note_on,58,28,0
2,note_on,58,0,120
2,note_on,49,27,0
2,note_on,49,0,120
2,note_on,42,33,0
2,note_on,42,0,120
2,note_on,49,28,0
2,note_on,49,0,120
2,note_on,58,29,0
2,note_on,58,0,120
2,note_on,49,29,0
2,note_on,49,0,120
2,note_on,42,33,0
2,note_on,42,0,120
2,note_on,49,27,0
2,note_on,49,0,120
2,note_on,58,31,0
2,note_on,58,0,120
2,note_on,49,27,0
2,note_on,49,0,120
2,note_on,42,33,0
2,note_on,42,0,120
2,note_on,51,28,0
2,note_on,51,0,120
2,note_on,54,28,0
2,note_on,54,0,120
2,note_on,51,28,0
2,note_on,51,0,120
2,note_on,42,33,0
2,note_on,42,0,120
2,note_on,51,29,0
2,note_on,51,0,120
2,note_on,59,29,0
2,note_on,59,0,120
2,note_on,51,29,0
2,note_on,51,0,120
2,note_on,42,33,0
2,note_on,42,0,120
2,note_on,49,28,0
2,note_on,49,0,120
2,note_on,53,28,0
2,note_on,53,0,120
2,note_on,49,27,0
2,note_on,49,0,120
2,note_on,42,31,0
2,note_on,42,0,120
2,note_on,49,27,0
2,note_on,49,0,120
2,note_on,56,28,0
2,note_on,56,0,120
2,note_on,49,28,0
2,note_on,49,0,120
2,note_on,42,33,0
2,note_on,42,0,120
2,note_on,58,28,0
2,note_on,58,0,120
2,note_on,54,28,0
2,note_on,54,0,120
2,note_on,58,28,0
2,note_on,58,0,120
2,note_on,54,33,0
2,note_on,54,0,120
2,note_on,58,29,0
2,note_on,58,0,120
2,note_on,54,29,0
2,note_on,54,0,120
2,note_on,58,29,0
2,note_on,58,0,120
2,note_on,42,33,0
2,note_on,42,0,120
2,note_on,58,28,0
2,note_on,58,0,120
2,note_on,54,28,0
2,note_on,54,0,120
2,note_on,58,27,0
2,note_on,58,0,120
2,note_on,54,31,0
2,note_on,54,0,120
2,note_on,58,27,0
2,note_on,58,0,120
2,note_on,54,28,0
2,note_on,54,0,120
2,note_on,58,28,0
2,note_on,58,0,120
2,note_on,42,33,0
2,note_on,42,0,120
2,note_on,59,28,0
2,note_on,59,0,120
2,note_on,54,28,0
2,note_on,54,0,120
2,note_on,59,28,0
2,note_on,59,0,120
2,note_on,54,33,0
2,note_on,54,0,120
2,note_on,59,29,0
2,note_on,59,0,120
2,note_on,54,29,0
2,note_on,54,0,120
2,note_on,59,29,0
2,note_on,59,0,120
2,note_on,42,33,0
2,note_on,42,0,120
2,note_on,59,28,0
2,note_on,59,0,120
2,note_on,54,28,0
2,note_on,54,0,120
2,note_on,59,27,0
2,note_on,59,0,120
2,note_on,54,31,0
2,note_on,54,0,120
2,note_on,59,27,0
2,note_on,59,0,120
2,note_on,54,28,0
2,note_on,54,0,120
2,note_on,59,28,0
2,note_on,59,0,120
2,note_on,42,33,0
2,note_on,42,0,60
2,note_on,58,28,60
2,note_on,58,0,120
2,note_on,54,28,0
2,note_on,54,0,120
2,note_on,58,28,0
2,note_on,58,0,120
2,note_on,54,33,0
2,note_on,54,0,120
2,note_on,58,29,0
2,note_on,58,0,120
2,note_on,54,29,0
2,note_on,54,0,120
2,note_on,58,29,0
2,note_on,58,0,120
2,note_on,42,33,0
2,note_on,42,0,60
2,note_on,58,28,60
2,note_on,58,0,120
2,note_on,54,28,0
2,note_on,54,0,120
2,note_on,58,27,0
2,note_on,58,0,120
2,note_on,54,31,0
2,note_on,54,0,120
2,note_on,58,27,0
2,note_on,58,0,120
2,note_on,54,28,0
2,note_on,54,0,120
2,note_on,58,28,0
2,note_on,58,0,120
2,note_on,42,33,0
2,note_on,42,0,60
2,note_on,59,28,60
2,note_on,59,0,120
2,note_on,54,28,0
2,note_on,54,0,120
2,note_on,59,28,0
2,note_on,59,0,120
2,note_on,54,33,0
2,note_on,54,0,120
2,note_on,59,29,0
2,note_on,59,0,120
2,note_on,54,29,0
2,note_on,54,0,120
2,note_on,59,29,0
2,note_on,59,0,120
2,note_on,42,33,0
2,note_on,42,0,60
2,note_on,59,28,60
2,note_on,59,0,120
2,note_on,54,28,0
2,note_on,54,0,120
2,note_on,59,27,0
2,note_on,59,0,120
2,note_on,54,31,0
2,note_on,54,0,120
2,note_on,59,27,0
2,note_on,59,0,120
2,note_on,54,28,0
2,note_on,54,0,120
2,note_on,59,28,0
2,note_on,59,0,120
2,note_on,42,33,0
2,note_on,42,0,60
2,note_on,58,28,60
2,note_on,58,0,120
2,note_on,54,28,0
2,note_on,54,0,120
2,note_on,58,28,0
2,note_on,58,0,120
2,note_on,54,33,0
2,note_on,54,0,120
2,note_on,58,29,0
2,note_on,58,0,120
2,note_on,54,29,0
2,note_on,54,0,120
2,note_on,58,29,0
2,note_on,58,0,120
2,note_on,54,33,0
2,note_on,54,0,120
2,note_on,58,28,0
2,note_on,58,0,120
2,note_on,54,28,0
2,note_on,54,0,120
2,note_on,58,27,0
2,note_on,58,0,120
2,note_on,54,31,0
2,note_on,54,0,120
2,note_on,58,27,0
2,note_on,58,0,120
2,note_on,54,28,0
2,note_on,54,0,120
2,note_on,58,28,0
2,note_on,58,0,120
2,note_on,42,33,0
2,note_on,42,0,60
2,note_on,58,28,60
2,note_on,58,0,120
2,note_on,54,28,0
2,note_on,54,0,120
2,note_on,58,28,0
2,note_on,58,0,120
2,note_on,54,33,0
2,note_on,54,0,120
2,note_on,58,29,0
2,note_on,58,0,120
2,note_on,54,29,0
2,note_on,54,0,120
2,note_on,58,29,0
2,note_on,58,0,120
2,note_on,54,33,0
2,note_on,54,0,120
2,note_on,58,28,0
2,note_on,58,0,120
2,note_on,54,28,0
2,note_on,54,0,120
2,note_on,58,27,0
2,note_on,58,0,120
2,note_on,54,31,0
2,note_on,54,0,120
2,note_on,58,27,0
2,note_on,58,0,120
2,note_on,54,28,0
2,note_on,54,0,120
2,note_on,58,28,0
2,note_on,58,0,120
2,note_on,54,33,0
2,note_on,54,0,57
2,note_on,58,28,0
2,note_on,58,0,120
2,note_on,54,28,0
2,note_on,54,0,120
2,note_on,58,28,0
2,note_on,58,0,120
2,note_on,54,33,0
2,note_on,54,0,120
2,note_on,58,29,0
2,note_on,58,0,120
2,note_on,54,29,0
2,note_on,54,0,120
2,note_on,58,30,0
2,note_on,58,0,120
2,note_on,54,34,0
2,note_on,54,0,120
2,note_on,58,29,0
2,note_on,58,0,120
2,note_on,54,29,0
2,note_on,54,0,120
2,note_on,58,28,0
2,note_on,58,0,120
2,note_on,54,33,0
2,note_on,54,0,120
2,note_on,58,29,0
2,note_on,58,0,120
2,note_on,54,30,0
2,note_on,54,0,120
2,note_on,58,30,0
2,note_on,58,0,120
2,note_on,42,34,0
2,note_on,42,0,160
2,note_on,54,31,0
2,note_on,54,0,152
2,note_on,54,31,8
2,note_on,42,25,0
2,note_on,42,0,152
2,note_on,54,0,0
2,note_on,42,29,8
2,note_on,54,35,0
2,note_on,54,0,152
2,note_on,42,0,0
2,note_on,42,25,8
2,note_on,54,31,0
2,note_on,54,0,152
2,note_on,42,0,0
2,note_on,42,27,8
2,note_on,54,33,0
2,note_on,54,0,152
2,note_on,42,0,0
2,note_on,54,37,8
2,note_on,42,31,0
2,note_on,42,0,152
2,note_on,54,0,0
2,note_on,42,29,8
2,note_on,54,35,0
2,note_on,54,0,152
2,note_on,42,0,0
2,note_on,42,29,8
2,note_on,54,35,0
2,note_on,54,0,152
2,note_on,42,0,0
2,note_on,49,32,8
2,note_on,54,38,0
2,note_on,42,32,0
2,note_on,42,0,152
2,note_on,54,0,0
2,note_on,49,0,0
2,note_on,42,28,8
2,note_on,54,35,0
2,note_on,49,32,0
2,note_on,49,0,152
2,note_on,54,0,0
2,note_on,42,0,0
2,note_on,42,29,8
2,note_on,49,33,0
2,note_on,54,35,0
2,note_on,54,0,152
2,note_on,49,0,0
2,note_on,42,0,0
2,note_on,42,33,8
2,note_on,49,33,0
2,note_on,54,40,0
2,note_on,54,0,152
2,note_on,49,0,0
2,note_on,42,0,0
2,note_on,42,30,8
2,note_on,54,36,0
2,note_on,49,34,0
2,note_on,49,0,152
2,note_on,54,0,0
2,note_on,42,0,0
2,note_on,49,35,8
2,note_on,54,37,0
2,note_on,42,30,0
2,note_on,42,0,152
2,note_on,54,0,0
2,note_on,49,0,0
2,note_on,42,36,8
2,note_on,49,36,0
2,note_on,54,44,0
2,note_on,54,0,152
2,note_on,49,0,0
2,note_on,42,0,0
2,note_on,42,33,8
2,note_on,54,40,0
2,note_on,49,37,0
2,note_on,49,0,152
2,note_on,54,0,0
2,note_on,42,0,0
2,note_on,49,39,8
2,note_on,54,42,0
2,note_on,42,34,0
2,note_on,42,0,152
2,note_on,54,0,0
2,note_on,49,0,0
2,note_on,42,40,8
2,note_on,49,40,0
2,note_on,54,48,0
2,note_on,54,0,152
2,note_on,49,0,0
2,note_on,42,0,0
2,note_on,42,37,8
2,note_on,54,44,0
2,note_on,49,41,0
2,note_on,49,0,152
2,note_on,54,0,0
2,note_on,42,0,0
2,note_on,49,43,8
2,note_on,54,46,0
2,note_on,42,37,0
2,note_on,42,0,152
2,note_on,54,0,0
2,note_on,49,0,0
2,note_on,41,48,8
2,note_on,50,48,0
2,note_on,53,57,0
2,note_on,53,0,152
2,note_on,50,0,0
2,note_on,41,0,0
2,note_on,41,42,8
2,note_on,50,48,0
2,note_on,53,52,0
2,note_on,53,0,152
2,note_on,50,0,0
2,note_on,41,0,0
2,note_on,53,52,8
2,note_on,50,48,0
2,note_on,41,42,0
2,note_on,41,0,152
2,note_on,50,0,0
2,note_on,53,0,0
2,note_on,50,63,8
2,note_on,41,63,0
2,note_on,50,0,160
2,note_on,53,58,0
2,note_on,53,0,160
2,note_on,53,58,0
2,note_on,53,0,80
2,note_on,41,0,80
2,note_on,48,62,0
2,note_on,41,62,0
2,note_on,48,0,160
2,note_on,53,58,0
2,note_on,53,0,160
2,note_on,53,58,0
2,note_on,53,0,80
2,note_on,41,0,80
2,note_on,41,60,0
2,note_on,50,60,0
2,note_on,50,0,160
2,note_on,53,58,0
2,note_on,53,0,160
2,note_on,53,58,0
2,note_on,53,0,80
2,note_on,41,0,80
2,note_on,41,61,0
2,note_on,51,61,0
2,note_on,51,0,160
2,note_on,53,58,0
2,note_on,53,0,160
2,note_on,53,58,0
2,note_on,53,0,80
2,note_on,41,0,80
2,note_on,41,60,0
2,note_on,52,60,0
2,note_on,52,0,160
2,note_on,53,58,0
2,note_on,53,0,160
2,note_on,53,58,0
2,note_on,53,0,80
2,note_on,53,60,80
2,note_on,53,0,160
2,note_on,53,58,0
2,note_on,53,0,160
2,note_on,53,58,0
2,note_on,53,0,80
2,note_on,53,62,80
2,note_on,53,0,152
2,note_on,53,58,8
2,note_on,53,0,152
2,note_on,53,58,8
2,note_on,53,0,152
2,note_on,41,0,8
2,note_on,51,61,0
2,note_on,41,55,0
2,note_on,51,0,160
2,note_on,53,53,0
2,note_on,53,0,160
2,note_on,50,53,0
2,note_on,50,0,160
2,note_on,41,0,0
2,note_on,51,60,0
2,note_on,41,60,0
2,note_on,51,0,160
2,note_on,53,55,0
2,note_on,53,0,152
2,note_on,53,55,8
2,note_on,53,0,152
2,note_on,41,0,8
2,note_on,41,60,0
2,note_on,51,60,0
2,note_on,51,0,160
2,note_on,53,56,0
2,note_on,53,0,152
2,note_on,53,56,8
2,note_on,53,0,152
2,note_on,41,0,8
2,note_on,41,62,0
2,note_on,51,62,0
2,note_on,51,0,160
2,note_on,53,58,0
2,note_on,53,0,152
2,note_on,53,58,8
2,note_on,53,0,152
2,note_on,41,0,8
2,note_on,41,62,0
2,note_on,50,62,0
2,note_on,50,0,160
2,note_on,53,59,0
2,note_on,53,0,160
2,note_on,48,59,0
2,note_on,48,0,160
2,note_on,41,0,0
2,note_on,50,62,0
2,note_on,46,62,0
2,note_on,50,0,160
2,note_on,53,56,0
2,note_on,53,0,152
2,note_on,53,56,8
2,note_on,53,0,152
2,note_on,51,60,8
2,note_on,51,0,160
2,note_on,55,56,0
2,note_on,55,0,152
2,note_on,55,56,8
2,note_on,55,0,152
2,note_on,50,60,8
2,note_on,50,0,160
2,note_on,53,56,0
2,note_on,53,0,152
2,note_on,53,57,8
2,note_on,53,0,152
2,note_on,46,0,8
2,note_on,44,59,0
2,note_on,50,59,0
2,note_on,50,0,160
2,note_on,53,54,0
2,note_on,53,0,152
2,note_on,53,54,8
2,note_on,53,0,152
2,note_on,44,0,8
2,note_on,43,59,0
2,note_on,53,59,0
2,note_on,53,0,160
2,note_on,55,53,0
2,note_on,55,0,152
2,note_on,55,53,8
2,note_on,55,0,152
2,note_on,53,56,8
2,note_on,53,0,160
2,note_on,55,53,0
2,note_on,55,0,152
2,note_on,55,53,8
2,note_on,55,0,152
2,note_on,53,57,8
2,note_on,53,0,160
2,note_on,55,51,0
2,note_on,55,0,152
2,note_on,55,51,8
2,note_on,55,0,152
2,note_on,43,0,8
2,note_on,51,56,0
2,note_on,43,56,0
2,note_on,51,0,160
2,note_on,55,51,0
2,note_on,55,0,160
2,note_on,50,51,0
2,note_on,50,0,160
2,note_on,43,0,0
2,note_on,43,54,0
2,note_on,48,54,0
2,note_on,48,0,160
2,note_on,55,50,0
2,note_on,55,0,152
2,note_on,55,50,8
2,note_on,55,0,152
2,note_on,43,0,8
2,note_on,43,54,0
2,note_on,53,54,0
2,note_on,53,0,160
2,note_on,55,50,0
2,note_on,55,0,152
2,note_on,55,50,8
2,note_on,55,0,152
2,note_on,43,0,8
2,note_on,43,55,0
2,note_on,51,55,0
2,note_on,51,0,160
2,note_on,55,50,0
2,note_on,55,0,152
2,note_on,55,50,8
2,note_on,55,0,152
2,note_on,43,0,8
2,note_on,42,57,0
2,note_on,51,57,0
2,note_on,51,0,160
2,note_on,54,52,0
2,note_on,54,0,152
2,note_on,54,52,8
2,note_on,54,0,152
2,note_on,42,0,8
2,note_on,51,58,0
2,note_on,41,58,0
2,note_on,51,0,160
2,note_on,53,52,0
2,note_on,53,0,152
2,note_on,53,52,8
2,note_on,53,0,152
2,note_on,51,56,8
2,note_on,51,0,160
2,note_on,53,52,0
2,note_on,53,0,152
2,note_on,53,53,8
2,note_on,53,0,152
2,note_on,51,57,8
2,note_on,51,0,160
2,note_on,53,52,0
2,note_on,53,0,152
2,note_on,53,52,8
2,note_on,53,0,152
2,note_on,41,0,8
2,note_on,50,57,0
2,note_on,41,57,0
2,note_on,50,0,160
2,note_on,53,54,0
2,note_on,53,0,160
2,note_on,48,51,0
2,note_on,48,0,160
2,note_on,41,0,0
2,note_on,46,58,0
2,note_on,41,58,0
2,note_on,46,0,160
2,note_on,53,53,0
2,note_on,53,0,152
2,note_on,53,53,8
2,note_on,53,0,152
2,note_on,41,0,8
2,note_on,48,58,0
2,note_on,41,58,0
2,note_on,48,0,160
2,note_on,53,52,0
2,note_on,53,0,152
2,note_on,53,52,8
2,note_on,53,0,152
2,note_on,41,0,8
2,note_on,41,56,0
2,note_on,50,56,0
2,note_on,50,0,160
2,note_on,53,52,0
2,note_on,53,0,152
2,note_on,53,52,8
2,note_on,53,0,152
2,note_on,41,0,8
2,note_on,41,56,0
2,note_on,51,56,0
2,note_on,51,0,160
2,note_on,53,52,0
2,note_on,53,0,152
2,note_on,53,52,8
2,note_on,53,0,152
2,note_on,41,0,8
2,note_on,41,51,0
2,note_on,51,51,0
2,note_on,53,50,160
2,note_on,53,0,152
2,note_on,53,50,8
2,note_on,53,0,152
2,note_on,53,50,8
2,note_on,53,0,152
2,note_on,53,50,8
2,note_on,53,0,152
2,note_on,53,49,8
2,note_on,53,0,152
2,note_on,51,0,8
2,note_on,41,0,0
2,note_on,53,49,0
2,note_on,53,0,152
2,note_on,53,49,8
2,note_on,53,0,152
2,note_on,53,49,8
2,note_on,53,0,152
2,note_on,53,48,8
2,note_on,53,0,152
2,note_on,53,48,8
2,note_on,53,0,152
2,note_on,53,48,8
2,note_on,53,0,152
2,note_on,50,48,8
2,note_on,41,45,0
2,note_on,53,42,160
2,note_on,53,0,152
2,note_on,53,39,8
2,note_on,53,0,152
2,note_on,53,38,8
2,note_on,53,0,152
2,note_on,53,38,8
2,note_on,53,0,152
2,note_on,53,37,8
2,note_on,53,0,152
2,note_on,53,37,8
2,note_on,53,0,152
2,note_on,53,36,8
2,note_on,53,0,152
2,note_on,53,35,8
2,note_on,53,0,152
2,note_on,53,36,8
2,note_on,53,0,152
2,note_on,53,40,8
2,note_on,53,0,152
2,note_on,53,44,8
2,note_on,53,0,152
2,note_on,41,0,8
2,note_on,50,0,0
2,note_on,53,50,0
2,note_on,53,0,160
2,note_on,44,42,0
2,note_on,44,0,152
2,note_on,44,42,8
2,note_on,44,0,152
2,note_on,44,42,8
2,note_on,44,0,152
2,note_on,44,42,8
2,note_on,44,0,152
2,note_on,44,42,8
2,note_on,44,0,152
2,note_on,44,42,8
2,note_on,44,0,152
2,note_on,44,42,8
2,note_on,44,0,152
2,note_on,44,42,8
2,note_on,44,0,152
2,note_on,44,42,8
2,note_on,44,0,152
2,note_on,44,42,8
2,note_on,44,0,152
2,note_on,44,42,8
2,note_on,44,0,152
2,note_on,44,46,8
2,note_on,44,0,160
2,note_on,37,46,0
2,note_on,37,0,152
2,note_on,37,46,8
2,note_on,37,0,152
2,note_on,37,53,8
2,note_on,37,0,152
2,note_on,37,53,8
2,note_on,37,0,152
2,note_on,37,53,8
2,note_on,37,0,152
2,note_on,37,53,8
2,note_on,37,0,152
2,note_on,37,52,8
2,note_on,37,0,152
2,note_on,37,52,8
2,note_on,37,0,152
2,note_on,37,65,8
2,note_on,37,0,120
2,note_on,35,59,0
2,note_on,35,0,120
2,note_on,33,61,0
2,note_on,33,0,120
2,note_on,32,59,0
2,note_on,32,0,120
2,note_on,30,65,0
2,note_on,30,0,120
2,note_on,61,42,1320
2,note_on,54,42,0
2,note_on,54,0,480
2,note_on,61,0,0
2,note_on,54,42,0
2,note_on,61,42,0
2,note_on,61,0,720
2,note_on,59,38,0
2,note_on,59,0,240
2,note_on,57,41,0
2,note_on,57,0,240
2,note_on,54,0,0
2,note_on,57,38,240
2,note_on,54,38,0
2,note_on,54,0,480
2,note_on,57,0,0
2,note_on,57,41,0
2,note_on,54,41,0
2,note_on,57,0,720
2,note_on,56,41,0
2,note_on,56,0,240
2,note_on,54,0,0
2,note_on,54,44,0
2,note_on,54,0,240
2,note_on,54,34,240
2,note_on,54,0,480
2,note_on,54,41,0
2,note_on,54,0,480
2,note_on,56,42,0
2,note_on,56,0,480
2,note_on,57,47,0
2,note_on,57,0,480
2,note_on,52,31,0
2,note_on,59,37,0
2,note_on,59,0,480
2,note_on,52,0,0
2,note_on,61,47,0
2,note_on,57,39,0
2,note_on,57,0,480
2,note_on,61,0,0
2,note_on,56,38,0
2,note_on,61,45,0
2,note_on,61,0,480
2,note_on,56,0,0
2,note_on,61,46,0
2,note_on,54,38,0
2,note_on,54,0,480
2,note_on,61,0,0
2,note_on,62,39,0
2,note_on,52,33,0
2,note_on,52,0,480
2,note_on,62,0,0
2,note_on,62,39,0
2,note_on,52,33,0
2,note_on,52,0,960
2,note_on,62,0,0
2,note_on,53,30,0
2,note_on,61,37,0
2,note_on,61,0,480
2,note_on,53,0,0
2,note_on,54,30,0
2,note_on,61,36,0
2,note_on,61,0,480
2,note_on,54,0,0
2,note_on,54,32,0
2,note_on,61,42,0
2,note_on,61,0,720
2,note_on,59,38,0
2,note_on,59,0,240
2,note_on,57,41,0
2,note_on,57,0,240
2,note_on,54,0,0
2,note_on,57,38,240
2,note_on,54,32,0
2,note_on,54,0,480
2,note_on,57,0,0
2,note_on,57,41,0
2,note_on,54,34,0
2,note_on,57,0,720
2,note_on,56,41,0
2,note_on,56,0,240
2,note_on,54,0,0
2,note_on,54,44,0
2,note_on,54,0,240
2,note_on,54,34,240
2,note_on,54,0,480
2,note_on,54,41,0
2,note_on,54,0,480
2,note_on,56,42,0
2,note_on,56,0,480
2,note_on,57,47,0
2,note_on,57,0,480
2,note_on,52,31,0
2,note_on,59,37,0
2,note_on,59,0,480
2,note_on,52,0,0
2,note_on,57,39,0
2,note_on,61,47,0
2,note_on,61,0,480
2,note_on,57,0,0
2,note_on,61,45,0
2,note_on,56,38,0
2,note_on,56,0,480
2,note_on,61,0,0
2,note_on,54,38,0
2,note_on,61,46,0
2,note_on,61,0,480
2,note_on,54,0,0
2,note_on,52,33,0
2,note_on,62,39,0
2,note_on,62,0,480
2,note_on,52,0,0
2,note_on,52,33,0
2,note_on,62,39,0
2,note_on,62,0,960
2,note_on,52,0,0
2,note_on,61,37,0
2,note_on,57,37,0
2,note_on,57,0,160
2,note_on,61,0,0
2,note_on,64,29,0
2,note_on,64,0,152
2,note_on,64,29,8
2,note_on,64,0,152
2,note_on,64,33,8
2,note_on,64,0,152
2,note_on,64,29,8
2,note_on,64,0,152
2,note_on,64,29,8
2,note_on,64,0,152
2,note_on,58,33,8
2,note_on,58,0,120
2,note_on,64,27,0
2,note_on,64,0,120
2,note_on,61,27,0
2,note_on,61,0,120
2,note_on,64,27,0
2,note_on,64,0,120
2,note_on,58,33,0
2,note_on,58,0,120
2,note_on,64,28,0
2,note_on,64,0,120
2,note_on,61,28,0
2,note_on,61,0,120
2,note_on,64,29,0
2,note_on,64,0,120
2,note_on,58,33,0
2,note_on,58,0,120
2,note_on,64,29,0
2,note_on,64,0,120
2,note_on,61,29,0
2,note_on,61,0,120
2,note_on,64,29,0
2,note_on,64,0,120
2,note_on,57,33,0
2,note_on,57,0,120
2,note_on,64,29,0
2,note_on,64,0,120
2,note_on,61,29,0
2,note_on,61,0,120
2,note_on,64,29,0
2,note_on,64,0,120
2,note_on,55,33,0
2,note_on,55,0,120
2,note_on,64,27,0
2,note_on,64,0,120
2,note_on,61,27,0
2,note_on,61,0,120
2,note_on,64,27,0
2,note_on,64,0,120
2,note_on,55,33,0
2,note_on,55,0,120
2,note_on,64,28,0
2,note_on,64,0,120
2,note_on,61,28,0
2,note_on,61,0,120
2,note_on,64,29,0
2,note_on,64,0,120
2,note_on,55,33,0
2,note_on,55,0,120
2,note_on,64,29,0
2,note_on,64,0,120
2,note_on,61,29,0
2,note_on,61,0,120
2,note_on,64,29,0
2,note_on,64,0,120
2,note_on,54,33,0
2,note_on,54,0,120
2,note_on,64,29,0
2,note_on,64,0,120
2,note_on,61,29,0
2,note_on,61,0,120
2,note_on,64,29,0
2,note_on,64,0,120
2,note_on,54,33,0
2,note_on,54,0,120
2,note_on,64,28,0
2,note_on,64,0,120
2,note_on,61,28,0
2,note_on,61,0,120
2,note_on,64,28,0
2,note_on,64,0,120
2,note_on,54,34,0
2,note_on,54,0,120
2,note_on,62,28,0
2,note_on,62,0,120
2,note_on,59,28,0
2,note_on,59,0,120
2,note_on,62,29,0
2,note_on,62,0,120
2,note_on,54,35,0
2,note_on,54,0,120
2,note_on,61,29,0
2,note_on,61,0,120
2,note_on,58,29,0
2,note_on,58,0,120
2,note_on,61,29,0
2,note_on,61,0,120
2,note_on,54,36,0
2,note_on,54,0,120
2,note_on,62,31,0
2,note_on,62,0,120
2,note_on,59,31,0
2,note_on,59,0,120
2,note_on,62,31,0
2,note_on,62,0,120
2,note_on,54,37,0
2,note_on,54,0,120
2,note_on,64,31,0
2,note_on,64,0,120
2,note_on,61,32,0
2,note_on,61,0,120
2,note_on,64,32,0
2,note_on,64,0,120
2,note_on,55,37,0
2,note_on,55,0,120
2,note_on,64,31,0
2,note_on,64,0,120
2,note_on,61,31,0
2,note_on,61,0,120
2,note_on,64,31,0
2,note_on,64,0,120
2,note_on,56,38,0
2,note_on,56,0,120
2,note_on,64,32,0
2,note_on,64,0,120
2,note_on,61,32,0
2,note_on,61,0,120
2,note_on,64,33,0
2,note_on,64,0,120
2,note_on,57,39,0
2,note_on,57,0,120
2,note_on,64,32,0
2,note_on,64,0,120
2,note_on,61,34,0
2,note_on,61,0,120
2,note_on,64,34,0
2,note_on,64,0,120
2,note_on,57,33,0
2,note_on,57,0,120
2,note_on,64,27,0
2,note_on,64,0,120
2,note_on,61,27,0
2,note_on,61,0,120
2,note_on,64,27,0
2,note_on,64,0,120
2,note_on,58,33,0
2,note_on,58,0,120
2,note_on,64,28,0
2,note_on,64,0,120
2,note_on,61,28,0
2,note_on,61,0,120
2,note_on,64,29,0
2,note_on,64,0,120
2,note_on,58,33,0
2,note_on,58,0,120
2,note_on,64,29,0
2,note_on,64,0,120
2,note_on,61,29,0
2,note_on,61,0,120
2,note_on,64,29,0
2,note_on,64,0,120
2,note_on,57,33,0
2,note_on,57,0,120
2,note_on,64,29,0
2,note_on,64,0,120
2,note_on,61,29,0
2,note_on,61,0,120
2,note_on,64,29,0
2,note_on,64,0,120
2,note_on,55,33,0
2,note_on,55,0,120
2,note_on,64,27,0
2,note_on,64,0,120
2,note_on,61,27,0
2,note_on,61,0,120
2,note_on,64,27,0
2,note_on,64,0,120
2,note_on,55,33,0
2,note_on,55,0,120
2,note_on,64,28,0
2,note_on,64,0,120
2,note_on,61,28,0
2,note_on,61,0,120
2,note_on,64,29,0
2,note_on,64,0,120
2,note_on,55,33,0
2,note_on,55,0,120
2,note_on,64,29,0
2,note_on,64,0,120
2,note_on,61,29,0
2,note_on,61,0,120
2,note_on,64,31,0
2,note_on,64,0,120
2,note_on,54,36,0
2,note_on,54,0,120
2,note_on,64,31,0
2,note_on,64,0,120
2,note_on,61,31,0
2,note_on,61,0,120
2,note_on,64,31,0
2,note_on,64,0,120
2,note_on,54,36,0
2,note_on,54,0,120
2,note_on,64,30,0
2,note_on,64,0,120
2,note_on,61,30,0
2,note_on,61,0,120
2,note_on,64,30,0
2,note_on,64,0,120
2,note_on,54,37,0
2,note_on,54,0,120
2,note_on,62,30,0
2,note_on,62,0,120
2,note_on,59,30,0
2,note_on,59,0,120
2,note_on,62,31,0
2,note_on,62,0,120
2,note_on,54,38,0
2,note_on,54,0,120
2,note_on,61,31,0
2,note_on,61,0,120
2,note_on,58,31,0
2,note_on,58,0,120
2,note_on,61,31,0
2,note_on,61,0,120
2,note_on,54,39,0
2,note_on,54,0,120
2,note_on,62,34,0
2,note_on,62,0,120
2,note_on,59,34,0
2,note_on,59,0,120
2,note_on,62,34,0
2,note_on,62,0,120
2,note_on,54,40,0
2,note_on,54,0,120
2,note_on,64,34,0
2,note_on,64,0,120
2,note_on,61,35,0
2,note_on,61,0,120
2,note_on,64,35,0
2,note_on,64,0,120
2,note_on,55,40,0
2,note_on,55,0,120
2,note_on,64,34,0
2,note_on,64,0,120
2,note_on,61,34,0
2,note_on,61,0,120
2,note_on,64,34,0
2,note_on,64,0,120
2,note_on,56,41,0
2,note_on,56,0,120
2,note_on,64,35,0
2,note_on,64,0,120
2,note_on,61,35,0
2,note_on,61,0,120
2,note_on,64,36,0
2,note_on,64,0,120
2,note_on,57,42,0
2,note_on,57,0,120
2,note_on,64,35,0
2,note_on,64,0,120
2,note_on,61,37,0
2,note_on,61,0,120
2,note_on,64,37,0
2,note_on,64,0,120
2,note_on,57,36,0
2,note_on,57,0,120
2,note_on,64,29,0
2,note_on,64,0,120
2,note_on,61,29,0
2,note_on,61,0,120
2,note_on,64,29,0
2,note_on,64,0,120
2,note_on,58,36,0
2,note_on,58,0,120
2,note_on,64,30,0
2,note_on,64,0,120
2,note_on,61,30,0
2,note_on,61,0,120
2,note_on,64,31,0
2,note_on,64,0,120
2,note_on,57,36,0
2,note_on,57,0,120
2,note_on,64,31,0
2,note_on,64,0,120
2,note_on,61,31,0
2,note_on,61,0,120
2,note_on,64,31,0
2,note_on,64,0,120
2,note_on,55,36,0
2,note_on,55,0,120
2,note_on,64,31,0
2,note_on,64,0,120
2,note_on,61,31,0
2,note_on,61,0,120
2,note_on,64,31,0
2,note_on,64,0,120
2,note_on,53,36,0
2,note_on,53,0,120
2,note_on,62,29,0
2,note_on,62,0,120
2,note_on,57,29,0
2,note_on,57,0,120
2,note_on,62,29,0
2,note_on,62,0,120
2,note_on,52,36,0
2,note_on,52,0,120
2,note_on,62,30,0
2,note_on,62,0,120
2,note_on,55,30,0
2,note_on,55,0,120
2,note_on,62,31,0
2,note_on,62,0,120
2,note_on,50,36,0
2,note_on,50,0,120
2,note_on,62,31,0
2,note_on,62,0,120
2,note_on,53,31,0
2,note_on,53,0,120
2,note_on,62,31,0
2,note_on,62,0,120
2,note_on,53,36,0
2,note_on,53,0,120
2,note_on,62,31,0
2,note_on,62,0,120
2,note_on,57,31,0
2,note_on,57,0,120
2,note_on,62,31,0
2,note_on,62,0,120
2,note_on,57,36,0
2,note_on,57,0,120
2,note_on,64,29,0
2,note_on,64,0,120
2,note_on,61,29,0
2,note_on,61,0,120
2,note_on,64,29,0
2,note_on,64,0,120
2,note_on,58,36,0
2,note_on,58,0,120
2,note_on,64,30,0
2,note_on,64,0,120
2,note_on,61,30,0
2,note_on,61,0,120
2,note_on,64,31,0
2,note_on,64,0,120
2,note_on,57,36,0
2,note_on,57,0,120
2,note_on,64,31,0
2,note_on,64,0,120
2,note_on,61,31,0
2,note_on,61,0,120
2,note_on,64,31,0
2,note_on,64,0,120
2,note_on,55,37,0
2,note_on,55,0,120
2,note_on,64,32,0
2,note_on,64,0,120
2,note_on,61,32,0
2,note_on,61,0,120
2,note_on,64,32,0
2,note_on,64,0,120
2,note_on,53,37,0
2,note_on,53,0,120
2,note_on,65,31,0
2,note_on,65,0,120
2,note_on,62,32,0
2,note_on,62,0,120
2,note_on,65,32,0
2,note_on,65,0,120
2,note_on,53,39,0
2,note_on,53,0,120
2,note_on,65,34,0
2,note_on,65,0,120
2,note_on,62,34,0
2,note_on,62,0,120
2,note_on,65,35,0
2,note_on,65,0,120
2,note_on,53,42,0
2,note_on,53,0,120
2,note_on,65,37,0
2,note_on,65,0,120
2,note_on,62,37,0
2,note_on,62,0,120
2,note_on,65,37,0
2,note_on,65,0,120
2,note_on,53,44,0
2,note_on,53,0,120
2,note_on,67,39,0
2,note_on,67,0,120
2,note_on,63,40,0
2,note_on,63,0,120
2,note_on,67,40,0
2,note_on,67,0,120
2,note_on,53,48,0
2,note_on,53,0,120
2,note_on,65,38,0
2,note_on,65,0,120
2,note_on,62,38,0
2,note_on,62,0,120
2,note_on,65,38,0
2,note_on,65,0,120
2,note_on,53,47,0
2,note_on,53,0,120
2,note_on,63,39,0
2,note_on,63,0,120
2,note_on,60,39,0
2,note_on,60,0,120
2,note_on,63,39,0
2,note_on,63,0,120
2,note_on,53,42,0
2,note_on,53,0,120
2,note_on,62,36,0
2,note_on,62,0,120
2,note_on,58,36,0
2,note_on,58,0,120
2,note_on,62,37,0
2,note_on,62,0,120
2,note_on,53,42,0
2,note_on,53,0,120
2,note_on,60,35,0
2,note_on,60,0,120
2,note_on,56,35,0
2,note_on,56,0,120
2,note_on,60,35,0
2,note_on,60,0,120
2,note_on,53,35,0
2,note_on,53,0,120
2,note_on,59,29,0
2,note_on,59,0,120
2,note_on,56,29,0
2,note_on,56,0,120
2,note_on,59,29,0
2,note_on,59,0,120
2,note_on,53,34,0
2,note_on,53,0,120
2,note_on,59,29,0
2,note_on,59,0,120
2,note_on,56,29,0
2,note_on,56,0,120
2,note_on,59,29,0
2,note_on,59,0,120
2,note_on,53,33,0
2,note_on,53,0,120
2,note_on,59,29,0
2,note_on,59,0,120
2,note_on,56,29,0
2,note_on,56,0,120
2,note_on,59,29,0
2,note_on,59,0,120
2,note_on,53,33,0
2,note_on,53,0,120
2,note_on,59,29,0
2,note_on,59,0,120
2,note_on,56,29,0
2,note_on,56,0,120
2,note_on,59,29,0
2,note_on,59,0,120
2,note_on,53,31,0
2,note_on,53,0,120
2,note_on,59,27,0
2,note_on,59,0,120
2,note_on,56,27,0
2,note_on,56,0,120
2,note_on,59,27,0
2,note_on,59,0,120
2,note_on,53,32,0
2,note_on,53,0,120
2,note_on,59,27,0
2,note_on,59,0,120
2,note_on,56,27,0
2,note_on,56,0,120
2,note_on,59,27,0
2,note_on,59,0,120
2,note_on,52,32,0
2,note_on,52,0,120
2,note_on,59,26,0
2,note_on,59,0,120
2,note_on,56,26,0
2,note_on,56,0,120
2,note_on,59,26,0
2,note_on,59,0,120
2,note_on,50,31,0
2,note_on,50,0,120
2,note_on,59,26,0
2,note_on,59,0,120
2,note_on,56,26,0
2,note_on,56,0,120
2,note_on,59,26,0
2,note_on,59,0,120
2,note_on,48,31,0
2,note_on,48,0,120
2,note_on,60,24,0
2,note_on,60,0,120
2,note_on,57,24,0
2,note_on,57,0,120
2,note_on,60,24,0
2,note_on,60,0,120
2,note_on,48,30,0
2,note_on,48,0,120
2,note_on,62,25,0
2,note_on,62,0,120
2,note_on,58,25,0
2,note_on,58,0,120
2,note_on,62,26,0
2,note_on,62,0,120
2,note_on,48,29,0
2,note_on,48,0,120
2,note_on,60,26,0
2,note_on,60,0,120
2,note_on,57,26,0
2,note_on,57,0,120
2,note_on,60,26,0
2,note_on,60,0,120
2,note_on,48,30,0
2,note_on,48,0,120
2,note_on,62,26,0
2,note_on,62,0,120
2,note_on,58,26,0
2,note_on,58,0,120
2,note_on,62,26,0
2,note_on,62,0,120
2,note_on,48,31,0
2,note_on,48,0,120
2,note_on,60,24,0
2,note_on,60,0,120
2,note_on,57,24,0
2,note_on,57,0,120
2,note_on,60,24,0
2,note_on,60,0,120
2,note_on,48,30,0
2,note_on,48,0,120
2,note_on,62,25,0
2,note_on,62,0,120
2,note_on,58,25,0
2,note_on,58,0,120
2,note_on,62,26,0
2,note_on,62,0,120
2,note_on,48,29,0
2,note_on,48,0,120
2,note_on,60,26,0
2,note_on,60,0,120
2,note_on,57,26,0
2,note_on,57,0,120
2,note_on,60,26,0
2,note_on,60,0,120
2,note_on,48,30,0
2,note_on,48,0,120
2,note_on,62,26,0
2,note_on,62,0,120
2,note_on,58,26,0
2,note_on,58,0,120
2,note_on,62,26,0
2,note_on,62,0,120
2,note_on,48,31,0
2,note_on,48,0,120
2,note_on,60,24,0
2,note_on,60,0,120
2,note_on,57,24,0
2,note_on,57,0,120
2,note_on,60,24,0
2,note_on,60,0,120
2,note_on,48,30,0
2,note_on,48,0,120
2,note_on,62,26,0
2,note_on,62,0,120
2,note_on,58,26,0
2,note_on,58,0,120
2,note_on,62,27,0
2,note_on,62,0,120
2,note_on,48,30,0
2,note_on,48,0,120
2,note_on,60,27,0
2,note_on,60,0,120
2,note_on,57,28,0
2,note_on,57,0,120
2,note_on,60,28,0
2,note_on,60,0,120
2,note_on,48,33,0
2,note_on,48,0,120
2,note_on,62,28,0
2,note_on,62,0,120
2,note_on,58,28,0
2,note_on,58,0,120
2,note_on,62,28,0
2,note_on,62,0,120
2,note_on,48,34,0
2,note_on,48,0,120
2,note_on,60,26,0
2,note_on,60,0,120
2,note_on,57,26,0
2,note_on,57,0,120
2,note_on,60,26,0
2,note_on,60,0,120
2,note_on,48,33,0
2,note_on,48,0,120
2,note_on,62,27,0
2,note_on,62,0,120
2,note_on,58,27,0
2,note_on,58,0,120
2,note_on,62,28,0
2,note_on,62,0,120
2,note_on,48,31,0
2,note_on,48,0,120
2,note_on,60,28,0
2,note_on,60,0,120
2,note_on,57,28,0
2,note_on,57,0,120
2,note_on,60,28,0
2,note_on,60,0,120
2,note_on,48,36,0
2,note_on,48,0,120
2,note_on,62,30,0
2,note_on,62,0,120
2,note_on,58,30,0
2,note_on,58,0,120
2,note_on,62,30,0
2,note_on,62,0,120
2,note_on,48,42,0
2,note_on,48,0,120
2,note_on,60,35,0
2,note_on,60,0,120
2,note_on,57,35,0
2,note_on,57,0,120
2,note_on,60,35,0
2,note_on,60,0,120
2,note_on,48,44,0
2,note_on,48,0,120
2,note_on,62,37,0
2,note_on,62,0,120
2,note_on,58,38,0
2,note_on,58,0,120
2,note_on,62,37,0
2,note_on,62,0,120
2,note_on,48,47,0
2,note_on,48,0,120
2,note_on,60,37,0
2,note_on,60,0,120
2,note_on,57,38,0
2,note_on,57,0,120
2,note_on,60,38,0
2,note_on,60,0,120
2,note_on,48,49,0
2,note_on,48,0,120
2,note_on,60,40,0
2,note_on,60,0,120
2,note_on,58,40,0
2,note_on,58,0,120
2,note_on,60,40,0
2,note_on,60,0,120
2,note_on,48,41,0
2,note_on,60,49,0
2,note_on,58,41,0
2,note_on,58,0,1920
2,note_on,60,0,0
2,note_on,48,0,0
2,note_on,53,32,0
2,note_on,57,32,0
2,note_on,60,38,0
2,note_on,60,0,480
2,note_on,57,0,0
2,note_on,53,0,0
2,note_on,53,29,480
2,note_on,57,29,0
2,note_on,60,35,0
2,note_on,60,0,240
2,note_on,57,0,0
2,note_on,53,0,0
2,note_on,53,29,240
2,note_on,60,29,0
2,note_on,63,35,0
2,note_on,63,0,240
2,note_on,60,0,0
2,note_on,53,0,0
2,note_on,53,32,240
2,note_on,58,32,0
2,note_on,62,38,0
2,note_on,62,0,480
2,note_on,58,0,0
2,note_on,53,0,0
2,note_on,53,29,480
2,note_on,58,29,0
2,note_on,62,35,0
2,note_on,62,0,240
2,note_on,58,0,0
2,note_on,53,0,0
2,note_on,53,29,240
2,note_on,62,29,0
2,note_on,65,35,0
2,note_on,65,0,240
2,note_on,62,0,0
2,note_on,53,0,0
2,note_on,53,32,240
2,note_on,57,32,0
2,note_on,60,38,0
2,note_on,60,0,480
2,note_on,57,0,0
2,note_on,53,0,0
2,note_on,53,29,480
2,note_on,57,35,0
2,note_on,57,0,240
2,note_on,53,0,0
2,note_on,57,29,240
2,note_on,60,35,0
2,note_on,60,0,240
2,note_on,57,0,0
2,note_on,48,29,240
2,note_on,57,29,0
2,note_on,60,35,0
2,note_on,60,0,240
2,note_on,57,0,0
2,note_on,48,0,0
2,note_on,48,28,240
2,note_on,62,34,0
2,note_on,58,28,0
2,note_on,58,0,240
2,note_on,62,0,0
2,note_on,48,0,0
2,note_on,48,28,240
2,note_on,57,28,0
2,note_on,60,33,0
2,note_on,60,0,240
2,note_on,57,0,0
2,note_on,48,0,0
2,note_on,48,28,240
2,note_on,55,28,0
2,note_on,58,34,0
2,note_on,58,0,240
2,note_on,55,0,0
2,note_on,48,0,0
2,note_on,48,29,240
2,note_on,54,29,0
2,note_on,57,35,0
2,note_on,57,0,240
2,note_on,54,0,0
2,note_on,48,0,0
2,note_on,48,28,240
2,note_on,57,35,0
2,note_on,54,28,0
2,note_on,54,0,240
2,note_on,57,0,0
2,note_on,48,0,0
2,note_on,48,29,240
2,note_on,54,29,0
2,note_on,57,35,0
2,note_on,57,0,240
2,note_on,54,0,0
2,note_on,48,0,0
2,note_on,48,31,240
2,note_on,54,31,0
2,note_on,57,37,0
2,note_on,57,0,240
2,note_on,54,0,0
2,note_on,48,0,0
2,note_on,46,33,240
2,note_on,53,33,0
2,note_on,58,40,0
2,note_on,58,0,240
2,note_on,53,0,0
2,note_on,46,0,0
2,note_on,46,31,240
2,note_on,58,38,0
2,note_on,53,31,0
2,note_on,53,0,240
2,note_on,58,0,0
2,note_on,46,0,0
2,note_on,48,31,240
2,note_on,53,31,0
2,note_on,57,37,0
2,note_on,57,0,240
2,note_on,53,0,0
2,note_on,48,0,0
2,note_on,48,31,240
2,note_on,55,31,0
2,note_on,58,38,0
2,note_on,58,0,240
2,note_on,55,0,0
2,note_on,48,0,0
2,note_on,53,47,240
2,note_on,53,0,160
2,note_on,60,44,0
2,note_on,60,0,160
2,note_on,57,44,0
2,note_on,57,0,80
2,note_on,53,47,80
2,note_on,53,0,80
2,note_on,48,43,80
2,note_on,48,0,80
2,note_on,45,41,80
2,note_on,45,0,80
2,note_on,41,45,80
2,note_on,41,0,80
2,note_on,45,41,80
2,note_on,45,0,80
2,note_on,48,41,80
2,note_on,48,0,80
2,note_on,45,47,80
2,note_on,45,0,80
2,note_on,48,45,80
2,note_on,48,0,80
2,note_on,53,45,80
2,note_on,53,0,80
2,note_on,53,47,80
2,note_on,53,0,160
2,note_on,62,44,0
2,note_on,62,0,160
2,note_on,58,44,0
2,note_on,58,0,80
2,note_on,53,47,80
2,note_on,53,0,80
2,note_on,50,43,80
2,note_on,50,0,80
2,note_on,46,41,80
2,note_on,46,0,80
2,note_on,41,45,80
2,note_on,41,0,80
2,note_on,46,41,80
2,note_on,46,0,80
2,note_on,50,41,80
2,note_on,50,0,80
2,note_on,46,47,80
2,note_on,46,0,80
2,note_on,50,45,80
2,note_on,50,0,80
2,note_on,53,45,80
2,note_on,53,0,80
2,note_on,53,47,80
2,note_on,53,0,160
2,note_on,65,44,0
2,note_on,65,0,160
2,note_on,60,44,0
2,note_on,60,0,80
2,note_on,57,47,80
2,note_on,57,0,80
2,note_on,53,43,80
2,note_on,53,0,80
2,note_on,48,41,80
2,note_on,48,0,80
2,note_on,45,45,80
2,note_on,45,0,80
2,note_on,41,41,80
2,note_on,41,0,80
2,note_on,36,41,80
2,note_on,36,0,80
2,note_on,41,47,80
2,note_on,41,0,80
2,note_on,45,45,80
2,note_on,45,0,80
2,note_on,48,45,80
2,note_on,48,0,80
2,note_on,48,29,80
2,note_on,57,29,0
2,note_on,60,35,0
2,note_on,60,0,240
2,note_on,57,0,0
2,note_on,48,0,0
2,note_on,60,28,240
2,note_on,74,34,0
2,note_on,70,28,0
2,note_on,70,0,240
2,note_on,74,0,0
2,note_on,60,0,0
2,note_on,60,28,240
2,note_on,69,28,0
2,note_on,72,33,0
2,note_on,72,0,240
2,note_on,69,0,0
2,note_on,60,0,0
2,note_on,60,28,240
2,note_on,67,28,0
2,note_on,70,34,0
2,note_on,70,0,240
2,note_on,67,0,0
2,note_on,60,0,0
2,note_on,60,29,240
2,note_on,66,29,0
2,note_on,69,35,0
2,note_on,69,0,240
2,note_on,66,0,0
2,note_on,60,0,0
2,note_on,60,28,240
2,note_on,69,35,0
2,note_on,66,28,0
2,note_on,66,0,240
2,note_on,69,0,0
2,note_on,60,0,0
2,note_on,60,29,240
2,note_on,66,29,0
2,note_on,69,35,0
2,note_on,69,0,240
2,note_on,66,0,0
2,note_on,60,0,0
2,note_on,60,31,240
2,note_on,66,31,0
2,note_on,69,37,0
2,note_on,69,0,240
2,note_on,66,0,0
2,note_on,60,0,0
2,note_on,58,33,240
2,note_on,65,33,0
2,note_on,70,40,0
2,note_on,70,0,240
2,note_on,65,0,0
2,note_on,58,0,0
2,note_on,58,31,240
2,note_on,70,38,0
2,note_on,65,31,0
2,note_on,65,0,240
2,note_on,70,0,0
2,note_on,58,0,0
2,note_on,60,31,240
2,note_on,65,31,0
2,note_on,69,37,0
2,note_on,69,0,240
2,note_on,65,0,0
2,note_on,60,0,0
2,note_on,60,31,240
2,note_on,67,31,0
2,note_on,70,38,0
2,note_on,70,0,240
2,note_on,67,0,0
2,note_on,60,0,0
2,note_on,46,26,240
2,note_on,52,26,0
2,note_on,55,31,0
2,note_on,55,0,240
2,note_on,52,0,0
2,note_on,46,0,0
2,note_on,46,25,240
2,note_on,55,31,0
2,note_on,52,25,0
2,note_on,52,0,240
2,note_on,55,0,0
2,note_on,46,0,0
2,note_on,46,26,240
2,note_on,52,26,0
2,note_on,55,31,0
2,note_on,55,0,240
2,note_on,52,0,0
2,note_on,46,0,0
2,note_on,46,27,240
2,note_on,52,27,0
2,note_on,55,33,0
2,note_on,55,0,240
2,note_on,52,0,0
2,note_on,46,0,0
2,note_on,44,29,240
2,note_on,51,29,0
2,note_on,56,36,0
2,note_on,56,0,240
2,note_on,51,0,0
2,note_on,44,0,0
2,note_on,44,27,240
2,note_on,56,34,0
2,note_on,51,27,0
2,note_on,51,0,240
2,note_on,56,0,0
2,note_on,44,0,0
2,note_on,46,27,240
2,note_on,51,27,0
2,note_on,55,33,0
2,note_on,55,0,240
2,note_on,51,0,0
2,note_on,46,0,0
2,note_on,46,27,240
2,note_on,53,27,0
2,note_on,56,34,0
2,note_on,56,0,240
2,note_on,53,0,0
2,note_on,46,0,0
2,note_on,66,31,1200
2,note_on,66,0,240
2,note_on,63,33,240
2,note_on,63,0,240
2,note_on,68,33,240
2,note_on,68,0,240
2,note_on,68,31,240
2,note_on,68,0,240
2,note_on,44,29,720
2,note_on,44,0,240
2,note_on,44,29,240
2,note_on,44,0,240
2,note_on,45,26,720
2,note_on,45,0,240
2,note_on,45,26,240
2,note_on,45,0,240
2,note_on,57,26,720
2,note_on,57,0,240
2,note_on,58,27,240
2,note_on,58,0,240
2,note_on,46,30,240
2,note_on,46,0,240
2,note_on,48,33,240
2,note_on,48,0,240
2,note_on,48,35,240
2,note_on,48,0,240
2,note_on,58,41,240
2,note_on,55,35,0
2,note_on,48,35,0
2,note_on,48,0,240
2,note_on,55,0,0
2,note_on,58,0,0
2,note_on,48,36,240
2,note_on,55,36,0
2,note_on,58,42,0
2,note_on,58,0,240
2,note_on,55,0,0
2,note_on,48,0,0
2,note_on,41,36,240
2,note_on,53,42,0
2,note_on,53,0,120
2,note_on,41,0,0
2,note_on,57,36,840
2,note_on,60,44,0
2,note_on,57,0,720
2,note_on,55,30,0
2,note_on,58,36,0
2,note_on,58,0,240
2,note_on,55,0,0
2,note_on,60,0,0
2,note_on,53,36,0
2,note_on,57,44,0
2,note_on,57,0,480
2,note_on,53,0,0
2,note_on,51,38,0
2,note_on,57,45,0
2,note_on,57,0,480
2,note_on,51,0,0
2,note_on,50,40,0
2,note_on,57,48,0
2,note_on,57,0,480
2,note_on,50,0,0
2,note_on,43,37,0
2,note_on,50,37,0
2,note_on,55,44,0
2,note_on,55,0,480
2,note_on,50,0,0
2,note_on,43,0,0
2,note_on,48,41,0
2,note_on,58,49,0
2,note_on,58,0,960
2,note_on,48,0,0
2,note_on,53,32,0
2,note_on,57,38,0
2,note_on,57,0,120
2,note_on,53,0,0
2,note_on,53,28,360
2,note_on,57,34,0
2,note_on,57,0,120
2,note_on,53,0,0
2,note_on,45,35,1320
2,note_on,48,42,0
2,note_on,48,0,237
2,note_on,45,0,483
2,note_on,43,30,0
2,note_on,46,36,0
2,note_on,46,0,240
2,note_on,43,0,0
2,note_on,41,36,0
2,note_on,45,44,0
2,note_on,45,0,480
2,note_on,41,0,0
2,note_on,39,38,0
2,note_on,45,45,0
2,note_on,45,0,480
2,note_on,39,0,0
2,note_on,38,40,0
2,note_on,45,48,0
2,note_on,45,0,480
2,note_on,38,0,0
2,note_on,31,40,0
2,note_on,38,40,0
2,note_on,43,48,0
2,note_on,43,0,240
2,note_on,38,0,0
2,note_on,31,0,0
2,note_on,53,45,720
2,note_on,58,53,0
2,note_on,58,0,480
2,note_on,53,0,0
2,note_on,51,49,0
2,note_on,58,59,0
2,note_on,58,0,480
2,note_on,51,0,0
2,note_on,44,50,0
2,note_on,51,50,0
2,note_on,56,60,0
2,note_on,56,0,240
2,note_on,51,0,0
2,note_on,44,0,0
2,note_on,40,70,720
2,note_on,47,70,0
2,note_on,52,84,0
2,note_on,52,0,480
2,note_on,47,0,0
2,note_on,40,0,0
2,note_on,33,70,0
2,note_on,40,70,0
2,note_on,45,84,0
2,note_on,45,0,240
2,note_on,40,0,0
2,note_on,33,0,0
2,note_on,65,49,720
2,note_on,75,58,0
2,note_on,75,0,960
2,note_on,65,0,0
2,note_on,70,38,0
2,note_on,74,45,0
2,note_on,74,0,120
2,note_on,70,0,0
2,note_on,70,33,360
2,note_on,74,40,0
2,note_on,74,0,120
2,note_on,70,0,0
2,note_on,70,38,360
2,note_on,74,45,0
2,note_on,74,0,1440
2,note_on,70,0,0
2,note_on,48,33,2400
2,note_on,58,39,0
2,note_on,58,0,960
2,note_on,48,0,0
2,note_on,53,30,0
2,note_on,57,36,0
2,note_on,57,0,120
2,note_on,53,0,0
2,note_on,53,24,360
2,note_on,57,32,0
2,note_on,57,0,120
2,note_on,53,0,0
2,note_on,53,30,360
2,note_on,60,36,0
2,note_on,60,0,1440
2,note_on,53,0,0
2,note_on,65,49,480
2,note_on,75,58,0
2,note_on,75,0,960
2,note_on,65,0,0
2,note_on,70,38,0
2,note_on,74,45,0
2,note_on,74,0,120
2,note_on,70,0,0
2,note_on,70,39,360
2,note_on,74,48,0
2,note_on,74,0,120
2,note_on,70,0,0
2,note_on,48,29,6120
2,note_on,58,35,0
2,note_on,58,0,960
2,note_on,48,0,0
2,note_on,53,27,0
2,note_on,57,32,0
2,note_on,57,0,120
2,note_on,53,0,0
2,note_on,53,21,360
2,note_on,57,28,0
2,note_on,57,0,120
2,note_on,53,0,0
2,note_on,53,27,360
2,note_on,60,32,0
2,note_on,60,0,1440
2,note_on,53,0,0
2,note_on,53,42,480
2,note_on,53,0,120
2,note_on,54,47,0
2,note_on,54,0,120
2,note_on,51,43,240
2,note_on,51,0,120
2,note_on,54,49,0
2,note_on,54,0,120
2,note_on,53,33,240
2,note_on,53,0,120
2,note_on,54,37,0
2,note_on,54,0,120
2,note_on,51,33,240
2,note_on,51,0,120
2,note_on,54,39,0
2,note_on,54,0,120
2,note_on,60,27,240
2,note_on,69,32,0
2,note_on,69,0,120
2,note_on,60,0,0
2,note_on,60,21,360
2,note_on,69,28,0
2,note_on,69,0,120
2,note_on,60,0,0
2,note_on,69,27,360
2,note_on,72,32,0
2,note_on,72,0,960
2,note_on,69,0,0
2,note_on,41,35,0
2,note_on,41,0,120
2,note_on,42,40,0
2,note_on,42,0,120
2,note_on,39,36,240
2,note_on,39,0,120
2,note_on,42,40,0
2,note_on,42,0,120
2,note_on,41,31,240
2,note_on,41,0,120
2,note_on,42,35,0
2,note_on,42,0,120
2,note_on,39,30,240
2,note_on,39,0,120
2,note_on,42,35,0
2,note_on,42,0,120
2,note_on,48,24,240
2,note_on,57,28,0
2,note_on,57,0,120
2,note_on,48,0,0
2,note_on,48,18,360
2,note_on,57,25,0
2,note_on,57,0,120
2,note_on,48,0,0
2,note_on,57,24,360
2,note_on,60,28,0
2,note_on,60,0,960
2,note_on,57,0,0
2,note_on,53,47,0
2,note_on,53,0,120
2,note_on,54,52,0
2,note_on,54,0,120
2,note_on,51,42,240
2,note_on,51,0,120
2,note_on,54,47,0
2,note_on,54,0,120
2,note_on,41,48,240
2,note_on,41,0,120
2,note_on,42,52,0
2,note_on,42,0,120
2,note_on,39,43,240
2,note_on,39,0,120
2,note_on,42,47,0
2,note_on,42,0,120
2,note_on,38,68,240
2,note_on,38,0,120
2,note_on,42,75,0
2,note_on,42,0,120
2,note_on,39,61,240
2,note_on,39,0,120
2,note_on,42,69,0
2,note_on,42,0,120
2,note_on,35,66,240
2,note_on,35,0,120
2,note_on,42,72,0
2,note_on,42,0,120
2,note_on,34,70,240
2,note_on,34,0,120
2,note_on,42,75,0
2,note_on,42,0,120
2,note_on,33,72,240
2,note_on,33,0,120
2,note_on,41,78,0
2,note_on,41,0,120
2,note_on,33,62,240
2,note_on,41,62,0
2,note_on,45,74,0
2,note_on,45,0,80
2,note_on,41,0,0
2,note_on,33,0,0
2,note_on,33,62,80
2,note_on,41,62,0
2,note_on,45,74,0
2,note_on,45,0,80
2,note_on,41,0,0
2,note_on,33,0,0
2,note_on,33,62,80
2,note_on,41,62,0
2,note_on,45,74,0
2,note_on,45,0,80
2,note_on,41,0,0
2,note_on,33,0,0
2,note_on,33,70,80
2,note_on,41,70,0
2,note_on,45,83,0
2,note_on,45,0,120
2,note_on,41,0,0
2,note_on,33,0,0
2,note_on,29,86,600
2,note_on,30,70,80
2,note_on,29,0,20
2,note_on,32,70,60
2,note_on,30,0,20
2,note_on,30,86,60
2,note_on,32,0,20
2,note_on,32,73,40
2,note_on,30,0,30
2,note_on,30,76,30
2,note_on,32,0,30
2,note_on,32,70,30
2,note_on,30,0,30
2,note_on,30,76,30
2,note_on,32,0,30
2,note_on,32,70,30
2,note_on,30,0,30
2,note_on,30,80,30
2,note_on,32,0,30
2,note_on,32,76,30
2,note_on,30,0,30
2,note_on,30,83,30
2,note_on,32,0,30
2,note_on,32,73,30
2,note_on,30,0,30
2,note_on,30,83,30
2,note_on,32,0,30
2,note_on,32,70,30
2,note_on,30,0,30
2,note_on,30,80,30
2,note_on,32,0,30
2,note_on,32,73,30
2,note_on,30,0,30
2,note_on,30,76,30
2,note_on,32,0,30
2,note_on,32,70,30
2,note_on,30,0,30
2,note_on,30,83,30
2,note_on,32,0,30
2,note_on,32,72,30
2,note_on,30,0,30
2,note_on,30,77,30
2,note_on,32,0,30
2,note_on,32,69,30
2,note_on,30,0,30
2,note_on,30,74,30
2,note_on,32,0,30
2,note_on,32,63,30
2,note_on,30,0,30
2,note_on,30,72,30
2,note_on,32,0,30
2,note_on,32,61,30
2,note_on,30,0,30
2,note_on,30,73,30
2,note_on,32,0,30
2,note_on,32,61,30
2,note_on,30,0,30
2,note_on,30,68,30
2,note_on,32,0,30
2,note_on,32,56,30
2,note_on,30,0,30
2,note_on,29,67,30
2,note_on,32,0,30
2,note_on,30,61,90
2,note_on,29,0,20
2,note_on,29,75,100
2,note_on,30,0,20
2,note_on,29,0,100
2,note_on,46,27,1320
2,note_on,50,33,0
2,note_on,50,0,240
2,note_on,53,28,0
2,note_on,53,0,240
2,note_on,46,0,0
2,note_on,46,28,0
2,note_on,50,34,0
2,note_on,50,0,240
2,note_on,53,28,0
2,note_on,53,0,240
2,note_on,46,0,0
2,note_on,46,24,0
2,note_on,48,31,0
2,note_on,48,0,240
2,note_on,53,27,0
2,note_on,53,0,240
2,note_on,46,0,0
2,note_on,46,28,0
2,note_on,50,34,0
2,note_on,50,0,240
2,note_on,53,27,0
2,note_on,53,0,240
2,note_on,46,0,0
2,note_on,46,27,0
2,note_on,51,33,0
2,note_on,51,0,240
2,note_on,53,26,0
2,note_on,53,0,240
2,note_on,46,0,0
2,note_on,52,34,0
2,note_on,46,28,0
2,note_on,52,0,240
2,note_on,53,26,0
2,note_on,53,0,120
2,note_on,53,26,120
2,note_on,53,0,120
2,note_on,53,26,120
2,note_on,53,0,120
2,note_on,53,26,120
2,note_on,53,0,120
2,note_on,53,26,120
2,note_on,53,0,120
2,note_on,46,0,120
2,note_on,46,27,0
2,note_on,51,33,0
2,note_on,51,0,240
2,note_on,50,27,0
2,note_on,50,0,240
2,note_on,46,0,0
2,note_on,41,26,0
2,note_on,51,31,0
2,note_on,51,0,240
2,note_on,53,25,0
2,note_on,53,0,240
2,note_on,41,0,0
2,note_on,41,26,0
2,note_on,51,29,0
2,note_on,51,0,240
2,note_on,53,25,0
2,note_on,53,0,240
2,note_on,41,0,0
2,note_on,41,26,0
2,note_on,51,29,0
2,note_on,51,0,240
2,note_on,53,26,0
2,note_on,53,0,240
2,note_on,41,0,0
2,note_on,41,27,0
2,note_on,50,33,0
2,note_on,50,0,240
2,note_on,48,25,0
2,note_on,48,0,240
2,note_on,41,0,0
2,note_on,46,28,0
2,note_on,50,34,0
2,note_on,50,0,240
2,note_on,53,30,0
2,note_on,53,0,240
2,note_on,51,33,0
2,note_on,51,0,240
2,note_on,55,28,0
2,note_on,55,0,240
2,note_on,50,29,0
2,note_on,50,0,240
2,note_on,53,30,0
2,note_on,53,0,240
2,note_on,46,0,0
2,note_on,46,28,0
2,note_on,50,39,0
2,note_on,50,0,240
2,note_on,58,34,0
2,note_on,58,0,240
2,note_on,46,0,0
2,note_on,46,30,0
2,note_on,55,36,0
2,note_on,58,32,240
2,note_on,58,0,120
2,note_on,58,33,120
2,note_on,58,0,120
2,note_on,58,30,120
2,note_on,58,0,120
2,note_on,58,34,120
2,note_on,58,0,120
2,note_on,58,31,120
2,note_on,58,0,120
2,note_on,55,0,120
2,note_on,46,0,0
2,note_on,46,27,0
2,note_on,53,33,0
2,note_on,53,0,240
2,note_on,51,31,0
2,note_on,51,0,240
2,note_on,46,0,0
2,note_on,46,27,0
2,note_on,53,33,0
2,note_on,53,0,240
2,note_on,50,28,0
2,note_on,50,0,240
2,note_on,46,0,0
2,note_on,41,27,0
2,note_on,48,33,0
2,note_on,48,0,240
2,note_on,53,28,0
2,note_on,53,0,240
2,note_on,41,0,0
2,note_on,41,27,0
2,note_on,50,33,0
2,note_on,50,0,240
2,note_on,53,30,0
2,note_on,53,0,240
2,note_on,41,0,0
2,note_on,41,27,0
2,note_on,51,32,0
2,note_on,51,0,240
2,note_on,53,29,0
2,note_on,53,0,240
2,note_on,41,0,0
2,note_on,41,27,0
2,note_on,50,32,0
2,note_on,50,0,240
2,note_on,53,29,0
2,note_on,53,0,240
2,note_on,50,32,0
2,note_on,50,0,240
2,note_on,46,29,0
2,note_on,46,0,240
2,note_on,41,0,0
2,note_on,41,32,0
2,note_on,41,0,480
2,note_on,29,27,240
2,note_on,30,22,80
2,note_on,29,0,20
2,note_on,32,22,60
2,note_on,30,0,20
2,note_on,30,27,60
2,note_on,32,0,20
2,note_on,32,23,40
2,note_on,30,0,40
2,note_on,30,24,20
2,note_on,32,0,40
2,note_on,32,22,20
2,note_on,30,0,40
2,note_on,30,24,20
2,note_on,32,0,40
2,note_on,32,22,20
2,note_on,30,0,40
2,note_on,30,25,20
2,note_on,32,0,40
2,note_on,32,24,20
2,note_on,30,0,40
2,note_on,30,26,20
2,note_on,32,0,40
2,note_on,32,23,20
2,note_on,30,0,40
2,note_on,30,26,20
2,note_on,32,0,40
2,note_on,32,22,20
2,note_on,30,0,40
2,note_on,30,25,20
2,note_on,32,0,40
2,note_on,32,23,20
2,note_on,30,0,40
2,note_on,30,24,20
2,note_on,32,0,40
2,note_on,32,22,20
2,note_on,30,0,40
2,note_on,30,26,20
2,note_on,32,0,40
2,note_on,32,23,20
2,note_on,30,0,40
2,note_on,30,25,20
2,note_on,32,0,40
2,note_on,32,23,20
2,note_on,30,0,40
2,note_on,30,25,20
2,note_on,32,0,40
2,note_on,32,22,20
2,note_on,30,0,40
2,note_on,30,25,20
2,note_on,32,0,40
2,note_on,32,22,20
2,note_on,30,0,40
2,note_on,30,27,20
2,note_on,32,0,40
2,note_on,32,23,20
2,note_on,30,0,40
2,note_on,30,26,20
2,note_on,32,0,40
2,note_on,32,22,20
2,note_on,30,0,40
2,note_on,29,22,20
2,note_on,32,0,40
2,note_on,30,18,80
2,note_on,29,0,20
2,note_on,29,23,100
2,note_on,30,0,20
2,note_on,29,0,100
2,note_on,46,27,1320
2,note_on,50,33,0
2,note_on,50,0,240
2,note_on,53,28,0
2,note_on,53,0,240
2,note_on,46,0,0
2,note_on,46,28,0
2,note_on,50,34,0
2,note_on,50,0,240
2,note_on,53,28,0
2,note_on,53,0,240
2,note_on,46,0,0
2,note_on,46,24,0
2,note_on,48,31,0
2,note_on,48,0,240
2,note_on,53,27,0
2,note_on,53,0,240
2,note_on,46,0,0
2,note_on,46,28,0
2,note_on,50,34,0
2,note_on,50,0,240
2,note_on,53,27,0
2,note_on,53,0,240
2,note_on,46,0,0
2,note_on,46,27,0
2,note_on,51,33,0
2,note_on,51,0,240
2,note_on,53,26,0
2,note_on,53,0,240
2,note_on,46,0,0
2,note_on,52,34,0
2,note_on,46,28,0
2,note_on,52,0,240
2,note_on,53,26,0
2,note_on,53,0,120
2,note_on,53,26,120
2,note_on,53,0,120
2,note_on,53,26,120
2,note_on,53,0,120
2,note_on,53,26,120
2,note_on,53,0,120
2,note_on,53,26,120
2,note_on,53,0,120
2,note_on,46,0,120
2,note_on,46,27,0
2,note_on,51,33,0
2,note_on,51,0,240
2,note_on,50,27,0
2,note_on,50,0,240
2,note_on,46,0,0
2,note_on,41,26,0
2,note_on,51,31,0
2,note_on,51,0,240
2,note_on,53,25,0
2,note_on,53,0,240
2,note_on,41,0,0
2,note_on,41,26,0
2,note_on,51,29,0
2,note_on,51,0,240
2,note_on,53,25,0
2,note_on,53,0,240
2,note_on,41,0,0
2,note_on,41,26,0
2,note_on,51,29,0
2,note_on,51,0,240
2,note_on,53,28,0
2,note_on,53,0,240
2,note_on,41,0,0
2,note_on,41,27,0
2,note_on,50,33,0
2,note_on,50,0,240
2,note_on,48,25,0
2,note_on,48,0,240
2,note_on,41,0,0
2,note_on,46,28,0
2,note_on,50,34,0
2,note_on,50,0,240
2,note_on,53,30,0
2,note_on,53,0,240
2,note_on,51,33,0
2,note_on,51,0,240
2,note_on,55,28,0
2,note_on,55,0,240
2,note_on,50,29,0
2,note_on,50,0,240
2,note_on,53,30,0
2,note_on,53,0,240
2,note_on,46,0,0
2,note_on,44,28,0
2,note_on,50,39,0
2,note_on,50,0,240
2,note_on,53,34,0
2,note_on,53,0,240
2,note_on,44,0,0
2,note_on,43,30,0
2,note_on,53,36,0
2,note_on,55,32,240
2,note_on,55,0,120
2,note_on,55,33,120
2,note_on,55,0,120
2,note_on,55,30,120
2,note_on,55,0,120
2,note_on,55,34,120
2,note_on,55,0,120
2,note_on,55,31,120
2,note_on,55,0,120
2,note_on,53,0,120
2,note_on,43,0,0
2,note_on,43,24,0
2,note_on,51,27,0
2,note_on,55,33,0
2,note_on,55,0,240
2,note_on,51,0,0
2,note_on,43,0,0
2,note_on,43,24,0
2,note_on,50,27,0
2,note_on,55,31,0
2,note_on,55,0,240
2,note_on,50,0,0
2,note_on,43,0,0
2,note_on,43,28,0
2,note_on,48,34,0
2,note_on,48,0,240
2,note_on,55,30,0
2,note_on,55,0,240
2,note_on,43,0,0
2,note_on,43,28,0
2,note_on,53,33,0
2,note_on,53,0,240
2,note_on,55,28,0
2,note_on,55,0,240
2,note_on,43,0,0
2,note_on,43,27,0
2,note_on,51,28,0
2,note_on,51,0,240
2,note_on,55,29,0
2,note_on,55,0,240
2,note_on,43,0,0
2,note_on,42,28,0
2,note_on,51,39,0
2,note_on,51,0,240
2,note_on,54,34,0
2,note_on,54,0,240
2,note_on,42,0,0
2,note_on,41,30,0
2,note_on,51,36,0
2,note_on,53,32,240
2,note_on,53,0,120
2,note_on,53,33,120
2,note_on,53,0,120
2,note_on,53,30,120
2,note_on,53,0,120
2,note_on,53,34,120
2,note_on,53,0,120
2,note_on,53,31,120
2,note_on,53,0,120
2,note_on,51,0,120
2,note_on,41,0,0
2,note_on,41,24,0
2,note_on,50,27,0
2,note_on,53,33,0
2,note_on,53,0,240
2,note_on,50,0,0
2,note_on,41,0,0
2,note_on,41,24,0
2,note_on,48,27,0
2,note_on,53,31,0
2,note_on,53,0,240
2,note_on,48,0,0
2,note_on,41,0,0
2,note_on,41,28,0
2,note_on,46,34,0
2,note_on,46,0,240
2,note_on,53,30,0
2,note_on,53,0,240
2,note_on,41,0,0
2,note_on,41,26,0
2,note_on,48,31,0
2,note_on,48,0,240
2,note_on,53,26,0
2,note_on,53,0,240
2,note_on,41,0,0
2,note_on,41,28,0
2,note_on,50,29,0
2,note_on,50,0,240
2,note_on,53,27,0
2,note_on,53,0,240
2,note_on,41,0,0
2,note_on,41,25,0
2,note_on,51,35,0
2,note_on,51,0,240
2,note_on,53,30,0
2,note_on,53,0,240
2,note_on,41,0,0
2,note_on,53,32,0
2,note_on,41,27,0
2,note_on,51,32,0
2,note_on,51,0,960
2,note_on,41,0,0
2,note_on,46,28,0
2,note_on,50,28,0
2,note_on,50,0,240
2,note_on,46,0,0
2,note_on,53,0,0
2,note_on,34,30,240
2,note_on,34,0,240
2,note_on,34,30,240
2,note_on,35,26,60
2,note_on,34,0,30
2,note_on,34,27,30
2,note_on,35,0,30
2,note_on,35,25,30
2,note_on,34,0,30
2,note_on,34,27,30
2,note_on,35,0,30
2,note_on,35,25,30
2,note_on,34,0,30
2,note_on,34,28,30
2,note_on,35,0,30
2,note_on,35,27,30
2,note_on,34,0,30
2,note_on,34,29,30
2,note_on,35,0,30
2,note_on,35,26,30
2,note_on,34,0,30
2,note_on,34,29,30
2,note_on,35,0,30
2,note_on,35,25,30
2,note_on,34,0,30
2,note_on,34,28,30
2,note_on,35,0,30
2,note_on,35,26,30
2,note_on,34,0,30
2,note_on,34,27,30
2,note_on,35,0,30
2,note_on,35,25,30
2,note_on,34,0,30
2,note_on,34,29,30
2,note_on,35,0,30
2,note_on,35,26,30
2,note_on,34,0,30
2,note_on,34,28,30
2,note_on,35,0,30
2,note_on,35,26,30
2,note_on,34,0,30
2,note_on,34,28,30
2,note_on,35,0,30
2,note_on,35,25,30
2,note_on,34,0,30
2,note_on,34,28,30
2,note_on,35,0,30
2,note_on,35,25,30
2,note_on,34,0,30
2,note_on,34,30,30
2,note_on,35,0,30
2,note_on,33,26,90
2,note_on,34,0,20
2,note_on,32,30,100
2,note_on,33,0,20
2,note_on,31,26,100
2,note_on,32,0,20
2,note_on,30,30,100
2,note_on,31,0,20
2,note_on,30,0,100
2,note_on,49,26,0
2,note_on,49,0,120
2,note_on,54,26,0
2,note_on,54,0,120
2,note_on,49,26,0
2,note_on,49,0,120
2,note_on,42,31,0
2,note_on,42,0,120
2,note_on,49,26,0
2,note_on,49,0,120
2,note_on,53,26,0
2,note_on,53,0,120
2,note_on,49,25,0
2,note_on,49,0,120
2,note_on,42,30,0
2,note_on,42,0,120
2,note_on,49,27,0
2,note_on,49,0,120
2,note_on,54,27,0
2,note_on,54,0,120
2,note_on,49,27,0
2,note_on,49,0,120
2,note_on,42,30,0
2,note_on,42,0,120
2,note_on,49,27,0
2,note_on,49,0,120
2,note_on,56,27,0
2,note_on,56,0,120
2,note_on,49,27,0
2,note_on,49,0,120
2,note_on,42,33,0
2,note_on,42,0,120
2,note_on,49,27,0
2,note_on,49,0,120
2,note_on,58,27,0
2,note_on,58,0,120
2,note_on,49,27,0
2,note_on,49,0,120
2,note_on,42,31,0
2,note_on,42,0,120
2,note_on,49,27,0
2,note_on,49,0,120
2,note_on,58,27,0
2,note_on,58,0,120
2,note_on,49,27,0
2,note_on,49,0,120
2,note_on,42,30,0
2,note_on,42,0,120
2,note_on,49,27,0
2,note_on,49,0,120
2,note_on,58,27,0
2,note_on,58,0,120
2,note_on,49,27,0
2,note_on,49,0,120
2,note_on,42,31,0
2,note_on,42,0,120
2,note_on,49,25,0
2,note_on,49,0,120
2,note_on,54,28,0
2,note_on,54,0,120
2,note_on,49,27,0
2,note_on,49,0,120
2,note_on,42,33,0
2,note_on,42,0,120
2,note_on,51,27,0
2,note_on,51,0,120
2,note_on,59,27,0
2,note_on,59,0,120
2,note_on,51,27,0
2,note_on,51,0,120
2,note_on,42,32,0
2,note_on,42,0,120
2,note_on,51,27,0
2,note_on,51,0,120
2,note_on,59,27,0
2,note_on,59,0,120
2,note_on,51,27,0
2,note_on,51,0,120
2,note_on,42,32,0
2,note_on,42,0,120
2,note_on,51,27,0
2,note_on,51,0,120
2,note_on,59,27,0
2,note_on,59,0,120
2,note_on,51,27,0
2,note_on,51,0,120
2,note_on,42,33,0
2,note_on,42,0,120
2,note_on,51,27,0
2,note_on,51,0,120
2,note_on,59,31,0
2,note_on,59,0,120
2,note_on,51,27,0
2,note_on,51,0,120
2,note_on,42,33,0
2,note_on,42,0,120
2,note_on,49,28,0
2,note_on,49,0,120
2,note_on,58,28,0
2,note_on,58,0,120
2,note_on,49,28,0
2,note_on,49,0,120
2,note_on,42,33,0
2,note_on,42,0,120
2,note_on,49,27,0
2,note_on,49,0,120
2,note_on,58,28,0
2,note_on,58,0,120
2,note_on,49,27,0
2,note_on,49,0,120
2,note_on,42,33,0
2,note_on,42,0,120
2,note_on,49,28,0
2,note_on,49,0,120
2,note_on,58,29,0
2,note_on,58,0,120
2,note_on,49,29,0
2,note_on,49,0,120
2,note_on,42,33,0
2,note_on,42,0,120
2,note_on,49,27,0
2,note_on,49,0,120
2,note_on,54,31,0
2,note_on,54,0,120
2,note_on,49,27,0
2,note_on,49,0,120
2,note_on,42,33,0
2,note_on,42,0,120
2,note_on,51,28,0
2,note_on,51,0,120
2,note_on,59,28,0
2,note_on,59,0,120
2,note_on,51,28,0
2,note_on,51,0,120
2,note_on,42,33,0
2,note_on,42,0,120
2,note_on,51,29,0
2,note_on,51,0,120
2,note_on,59,29,0
2,note_on,59,0,120
2,note_on,51,29,0
2,note_on,51,0,120
2,note_on,42,33,0
2,note_on,42,0,120
2,note_on,49,28,0
2,note_on,49,0,120
2,note_on,53,28,0
2,note_on,53,0,120
2,note_on,49,27,0
2,note_on,49,0,120
2,note_on,42,31,0
2,note_on,42,0,120
2,note_on,49,27,0
2,note_on,49,0,120
2,note_on,56,28,0
2,note_on,56,0,120
2,note_on,49,28,0
2,note_on,49,0,120
2,note_on,42,33,0
2,note_on,42,0,120
2,note_on,49,28,0
2,note_on,49,0,120
2,note_on,58,28,0
2,note_on,58,0,120
2,note_on,49,28,0
2,note_on,49,0,120
2,note_on,42,33,0
2,note_on,42,0,120
2,note_on,49,27,0
2,note_on,49,0,120
2,note_on,58,28,0
2,note_on,58,0,120
2,note_on,49,27,0
2,note_on,49,0,120
2,note_on,42,33,0
2,note_on,42,0,120
2,note_on,49,28,0
2,note_on,49,0,120
2,note_on,58,29,0
2,note_on,58,0,120
2,note_on,49,29,0
2,note_on,49,0,120
2,note_on,42,33,0
2,note_on,42,0,120
2,note_on,49,27,0
2,note_on,49,0,120
2,note_on,58,31,0
2,note_on,58,0,120
2,note_on,49,27,0
2,note_on,49,0,120
2,note_on,42,33,0
2,note_on,42,0,120
2,note_on,51,28,0
2,note_on,51,0,120
2,note_on,54,28,0
2,note_on,54,0,120
2,note_on,51,28,0
2,note_on,51,0,120
2,note_on,42,33,0
2,note_on,42,0,120
2,note_on,51,29,0
2,note_on,51,0,120
2,note_on,59,29,0
2,note_on,59,0,120
2,note_on,51,29,0
2,note_on,51,0,120
2,note_on,42,33,0
2,note_on,42,0,120
2,note_on,49,28,0
2,note_on,49,0,120
2,note_on,53,28,0
2,note_on,53,0,120
2,note_on,49,27,0
2,note_on,49,0,120
2,note_on,42,31,0
2,note_on,42,0,120
2,note_on,49,27,0
2,note_on,49,0,120
2,note_on,56,28,0
2,note_on,56,0,120
2,note_on,49,28,0
2,note_on,49,0,120
2,note_on,42,33,0
2,note_on,42,0,60
2,note_on,58,28,60
2,note_on,58,0,120
2,note_on,54,28,0
2,note_on,54,0,120
2,note_on,58,28,0
2,note_on,58,0,120
2,note_on,54,33,0
2,note_on,54,0,120
2,note_on,58,29,0
2,note_on,58,0,120
2,note_on,54,29,0
2,note_on,54,0,120
2,note_on,58,29,0
2,note_on,58,0,120
2,note_on,42,33,0
2,note_on,42,0,60
2,note_on,58,28,60
2,note_on,58,0,120
2,note_on,54,28,0
2,note_on,54,0,120
2,note_on,58,27,0
2,note_on,58,0,120
2,note_on,54,31,0
2,note_on,54,0,120
2,note_on,58,27,0
2,note_on,58,0,120
2,note_on,54,28,0
2,note_on,54,0,120
2,note_on,58,28,0
2,note_on,58,0,120
2,note_on,42,33,0
2,note_on,42,0,60
2,note_on,59,28,60
2,note_on,59,0,120
2,note_on,54,28,0
2,note_on,54,0,120
2,note_on,59,28,0
2,note_on,59,0,120
2,note_on,54,33,0
2,note_on,54,0,120
2,note_on,59,29,0
2,note_on,59,0,120
2,note_on,54,29,0
2,note_on,54,0,120
2,note_on,59,29,0
2,note_on,59,0,120
2,note_on,42,33,0
2,note_on,42,0,60
2,note_on,59,28,60
2,note_on,59,0,120
2,note_on,54,28,0
2,note_on,54,0,120
2,note_on,59,27,0
2,note_on,59,0,120
2,note_on,54,31,0
2,note_on,54,0,120
2,note_on,59,27,0
2,note_on,59,0,120
2,note_on,54,28,0
2,note_on,54,0,120
2,note_on,59,28,0
2,note_on,59,0,120
2,note_on,42,33,0
2,note_on,42,0,60
2,note_on,58,28,60
2,note_on,58,0,120
2,note_on,54,28,0
2,note_on,54,0,120
2,note_on,58,28,0
2,note_on,58,0,120
2,note_on,54,33,0
2,note_on,54,0,120
2,note_on,58,29,0
2,note_on,58,0,120
2,note_on,54,29,0
2,note_on,54,0,120
2,note_on,58,29,0
2,note_on,58,0,120
2,note_on,42,33,0
2,note_on,42,0,60
2,note_on,58,28,60
2,note_on,58,0,120
2,note_on,54,28,0
2,note_on,54,0,120
2,note_on,58,27,0
2,note_on,58,0,120
2,note_on,54,31,0
2,note_on,54,0,120
2,note_on,58,27,0
2,note_on,58,0,120
2,note_on,54,28,0
2,note_on,54,0,120
2,note_on,58,28,0
2,note_on,58,0,120
2,note_on,42,33,0
2,note_on,42,0,60
2,note_on,59,28,60
2,note_on,59,0,120
2,note_on,54,28,0
2,note_on,54,0,120
2,note_on,59,28,0
2,note_on,59,0,120
2,note_on,54,33,0
2,note_on,54,0,120
2,note_on,59,29,0
2,note_on,59,0,120
2,note_on,54,29,0
2,note_on,54,0,120
2,note_on,59,29,0
2,note_on,59,0,120
2,note_on,42,33,0
2,note_on,42,0,60
2,note_on,59,28,60
2,note_on,59,0,120
2,note_on,54,28,0
2,note_on,54,0,120
2,note_on,59,27,0
2,note_on,59,0,120
2,note_on,54,31,0
2,note_on,54,0,120
2,note_on,59,27,0
2,note_on,59,0,120
2,note_on,54,28,0
2,note_on,54,0,120
2,note_on,59,28,0
2,note_on,59,0,120
2,note_on,42,33,0
2,note_on,42,0,60
2,note_on,58,28,60
2,note_on,58,0,120
2,note_on,54,28,0
2,note_on,54,0,120
2,note_on,58,28,0
2,note_on,58,0,120
2,note_on,54,33,0
2,note_on,54,0,120
2,note_on,58,29,0
2,note_on,58,0,120
2,note_on,54,29,0
2,note_on,54,0,120
2,note_on,58,29,0
2,note_on,58,0,120
2,note_on,54,33,0
2,note_on,54,0,120
2,note_on,58,28,0
2,note_on,58,0,120
2,note_on,54,28,0
2,note_on,54,0,120
2,note_on,58,27,0
2,note_on,58,0,120
2,note_on,54,31,0
2,note_on,54,0,120
2,note_on,58,27,0
2,note_on,58,0,120
2,note_on,54,28,0
2,note_on,54,0,120
2,note_on,58,28,0
2,note_on,58,0,120
2,note_on,42,33,0
2,note_on,42,0,60
2,note_on,58,28,60
2,note_on,58,0,120
2,note_on,54,28,0
2,note_on,54,0,120
2,note_on,58,28,0
2,note_on,58,0,120
2,note_on,54,33,0
2,note_on,54,0,120
2,note_on,58,29,0
2,note_on,58,0,120
2,note_on,54,29,0
2,note_on,54,0,120
2,note_on,58,29,0
2,note_on,58,0,120
2,note_on,54,33,0
2,note_on,54,0,120
2,note_on,58,28,0
2,note_on,58,0,120
2,note_on,54,28,0
2,note_on,54,0,120
2,note_on,58,27,0
2,note_on,58,0,120
2,note_on,54,31,0
2,note_on,54,0,120
2,note_on,58,27,0
2,note_on,58,0,120
2,note_on,54,28,0
2,note_on,54,0,120
2,note_on,58,28,0
2,note_on,58,0,120
2,note_on,54,33,0
2,note_on,54,0,120
2,note_on,58,28,0
2,note_on,58,0,120
2,note_on,54,28,0
2,note_on,54,0,120
2,note_on,58,28,0
2,note_on,58,0,120
2,note_on,54,33,0
2,note_on,54,0,120
2,note_on,58,29,0
2,note_on,58,0,120
2,note_on,54,29,0
2,note_on,54,0,120
2,note_on,58,30,0
2,note_on,58,0,120
2,note_on,54,34,0
2,note_on,54,0,120
2,note_on,58,29,0
2,note_on,58,0,120
2,note_on,54,29,0
2,note_on,54,0,120
2,note_on,58,28,0
2,note_on,58,0,120
2,note_on,54,33,0
2,note_on,54,0,120
2,note_on,58,29,0
2,note_on,58,0,120
2,note_on,54,30,0
2,note_on,54,0,120
2,note_on,58,30,0
2,note_on,58,0,120
2,note_on,42,34,0
2,note_on,42,0,160
2,note_on,54,31,0
2,note_on,54,0,152
2,note_on,54,31,8
2,note_on,42,25,0
2,note_on,42,0,152
2,note_on,54,0,0
2,note_on,42,29,8
2,note_on,54,35,0
2,note_on,54,0,152
2,note_on,42,0,0
2,note_on,42,25,8
2,note_on,54,31,0
2,note_on,54,0,152
2,note_on,42,0,0
2,note_on,42,27,8
2,note_on,54,33,0
2,note_on,54,0,152
2,note_on,42,0,0
2,note_on,42,31,8
2,note_on,54,37,0
2,note_on,54,0,152
2,note_on,42,0,0
2,note_on,42,29,8
2,note_on,54,35,0
2,note_on,54,0,152
2,note_on,42,0,0
2,note_on,42,29,8
2,note_on,54,35,0
2,note_on,54,0,152
2,note_on,42,0,0
2,note_on,49,32,8
2,note_on,42,32,0
2,note_on,54,38,0
2,note_on,54,0,152
2,note_on,42,0,0
2,note_on,49,0,0
2,note_on,49,32,8
2,note_on,42,28,0
2,note_on,54,35,0
2,note_on,54,0,152
2,note_on,42,0,0
2,note_on,49,0,0
2,note_on,49,33,8
2,note_on,42,29,0
2,note_on,54,35,0
2,note_on,54,0,152
2,note_on,42,0,0
2,note_on,49,0,0
2,note_on,49,33,8
2,note_on,42,33,0
2,note_on,54,40,0
2,note_on,54,0,152
2,note_on,42,0,0
2,note_on,49,0,0
2,note_on,49,34,8
2,note_on,42,30,0
2,note_on,54,36,0
2,note_on,54,0,152
2,note_on,42,0,0
2,note_on,49,0,0
2,note_on,49,35,8
2,note_on,42,30,0
2,note_on,54,37,0
2,note_on,54,0,152
2,note_on,42,0,0
2,note_on,49,0,0
2,note_on,49,36,8
2,note_on,42,36,0
2,note_on,54,44,0
2,note_on,54,0,152
2,note_on,42,0,0
2,note_on,49,0,0
2,note_on,49,37,8
2,note_on,42,33,0
2,note_on,54,40,0
2,note_on,54,0,152
2,note_on,42,0,0
2,note_on,49,0,0
2,note_on,49,39,8
2,note_on,42,34,0
2,note_on,54,42,0
2,note_on,54,0,152
2,note_on,42,0,0
2,note_on,49,0,0
2,note_on,49,40,8
2,note_on,42,40,0
2,note_on,54,48,0
2,note_on,54,0,152
2,note_on,42,0,0
2,note_on,49,0,0
2,note_on,49,41,8
2,note_on,42,37,0
2,note_on,54,44,0
2,note_on,54,0,152
2,note_on,42,0,0
2,note_on,49,0,0
2,note_on,49,43,8
2,note_on,42,37,0
2,note_on,54,46,0
2,note_on,54,0,152
2,note_on,42,0,0
2,note_on,49,0,0
2,note_on,53,57,8
2,note_on,41,48,0
2,note_on,50,48,0
2,note_on,50,0,152
2,note_on,41,0,0
2,note_on,53,0,0
2,note_on,53,52,8
2,note_on,41,42,0
2,note_on,50,48,0
2,note_on,50,0,152
2,note_on,41,0,0
2,note_on,53,0,0
2,note_on,53,52,8
2,note_on,41,42,0
2,note_on,50,48,0
2,note_on,50,0,152
2,note_on,41,0,0
2,note_on,53,0,0
2,note_on,50,63,8
2,note_on,41,63,0
2,note_on,50,0,160
2,note_on,53,58,0
2,note_on,53,0,160
2,note_on,53,58,0
2,note_on,53,0,80
2,note_on,41,0,80
2,note_on,48,62,0
2,note_on,41,62,0
2,note_on,48,0,160
2,note_on,53,58,0
2,note_on,53,0,160
2,note_on,53,58,0
2,note_on,53,0,80
2,note_on,41,0,80
2,note_on,50,60,0
2,note_on,41,60,0
2,note_on,50,0,160
2,note_on,53,58,0
2,note_on,53,0,160
2,note_on,53,58,0
2,note_on,53,0,80
2,note_on,41,0,80
2,note_on,51,61,0
2,note_on,41,61,0
2,note_on,51,0,160
2,note_on,53,58,0
2,note_on,53,0,160
2,note_on,53,58,0
2,note_on,53,0,80
2,note_on,41,0,80
2,note_on,52,60,0
2,note_on,41,60,0
2,note_on,52,0,160
2,note_on,53,58,0
2,note_on,53,0,160
2,note_on,53,58,0
2,note_on,53,0,80
2,note_on,53,60,80
2,note_on,53,0,160
2,note_on,53,58,0
2,note_on,53,0,160
2,note_on,53,58,0
2,note_on,53,0,80
2,note_on,53,62,80
2,note_on,53,0,152
2,note_on,53,58,8
2,note_on,53,0,152
2,note_on,53,58,8
2,note_on,53,0,152
2,note_on,41,0,8
2,note_on,51,61,0
2,note_on,41,53,0
2,note_on,51,0,160
2,note_on,53,53,0
2,note_on,53,0,160
2,note_on,50,53,0
2,note_on,50,0,160
2,note_on,41,0,0
2,note_on,51,60,0
2,note_on,41,60,0
2,note_on,51,0,160
2,note_on,53,55,0
2,note_on,53,0,152
2,note_on,53,55,8
2,note_on,53,0,152
2,note_on,41,0,8
2,note_on,51,60,0
2,note_on,41,60,0
2,note_on,51,0,160
2,note_on,53,56,0
2,note_on,53,0,152
2,note_on,53,56,8
2,note_on,53,0,152
2,note_on,41,0,8
2,note_on,51,62,0
2,note_on,41,62,0
2,note_on,51,0,160
2,note_on,53,58,0
2,note_on,53,0,152
2,note_on,53,58,8
2,note_on,53,0,152
2,note_on,41,0,8
2,note_on,50,62,0
2,note_on,41,62,0
2,note_on,50,0,160
2,note_on,53,59,0
2,note_on,53,0,160
2,note_on,48,59,0
2,note_on,48,0,160
2,note_on,41,0,0
2,note_on,50,62,0
2,note_on,46,62,0
2,note_on,50,0,160
2,note_on,53,56,0
2,note_on,53,0,159
2,note_on,53,56,1
2,note_on,53,0,159
2,note_on,51,60,1
2,note_on,51,0,160
2,note_on,55,56,0
2,note_on,55,0,159
2,note_on,55,56,1
2,note_on,55,0,159
2,note_on,50,60,1
2,note_on,50,0,160
2,note_on,53,56,0
2,note_on,53,0,159
2,note_on,53,57,1
2,note_on,53,0,159
2,note_on,46,0,1
2,note_on,50,59,0
2,note_on,44,59,0
2,note_on,50,0,160
2,note_on,53,54,0
2,note_on,53,0,159
2,note_on,53,54,1
2,note_on,53,0,159
2,note_on,44,0,1
2,note_on,53,59,0
2,note_on,43,59,0
2,note_on,53,0,160
2,note_on,55,53,0
2,note_on,55,0,159
2,note_on,55,53,1
2,note_on,55,0,159
2,note_on,53,56,1
2,note_on,53,0,160
2,note_on,55,53,0
2,note_on,55,0,159
2,note_on,55,53,1
2,note_on,55,0,159
2,note_on,53,57,1
2,note_on,53,0,160
2,note_on,55,51,0
2,note_on,55,0,159
2,note_on,55,51,1
2,note_on,55,0,160
2,note_on,43,0,0
2,note_on,51,56,0
2,note_on,43,56,0
2,note_on,51,0,160
2,note_on,55,51,0
2,note_on,55,0,160
2,note_on,50,51,0
2,note_on,50,0,160
2,note_on,43,0,0
2,note_on,48,54,0
2,note_on,43,54,0
2,note_on,48,0,160
2,note_on,55,50,0
2,note_on,55,0,159
2,note_on,55,50,1
2,note_on,55,0,159
2,note_on,43,0,1
2,note_on,53,54,0
2,note_on,43,54,0
2,note_on,53,0,160
2,note_on,55,50,0
2,note_on,55,0,159
2,note_on,55,50,1
2,note_on,55,0,159
2,note_on,43,0,1
2,note_on,51,55,0
2,note_on,43,55,0
2,note_on,51,0,160
2,note_on,55,50,0
2,note_on,55,0,159
2,note_on,55,50,1
2,note_on,55,0,159
2,note_on,43,0,1
2,note_on,51,57,0
2,note_on,42,57,0
2,note_on,51,0,160
2,note_on,54,52,0
2,note_on,54,0,159
2,note_on,54,52,1
2,note_on,54,0,159
2,note_on,42,0,1
2,note_on,51,58,0
2,note_on,41,58,0
2,note_on,51,0,160
2,note_on,53,52,0
2,note_on,53,0,152
2,note_on,53,52,8
2,note_on,53,0,152
2,note_on,51,56,8
2,note_on,51,0,160
2,note_on,53,52,0
2,note_on,53,0,152
2,note_on,53,53,8
2,note_on,53,0,152
2,note_on,51,57,8
2,note_on,51,0,160
2,note_on,53,52,0
2,note_on,53,0,152
2,note_on,53,52,8
2,note_on,53,0,152
2,note_on,41,0,8
2,note_on,50,57,0
2,note_on,41,57,0
2,note_on,50,0,160
2,note_on,53,54,0
2,note_on,53,0,160
2,note_on,48,51,0
2,note_on,48,0,160
2,note_on,41,0,0
2,note_on,46,58,0
2,note_on,41,58,0
2,note_on,46,0,160
2,note_on,53,53,0
2,note_on,53,0,152
2,note_on,53,53,8
2,note_on,53,0,152
2,note_on,41,0,8
2,note_on,48,58,0
2,note_on,41,58,0
2,note_on,48,0,160
2,note_on,53,52,0
2,note_on,53,0,152
2,note_on,53,52,8
2,note_on,53,0,152
2,note_on,41,0,8
2,note_on,50,56,0
2,note_on,41,56,0
2,note_on,50,0,160
2,note_on,53,52,0
2,note_on,53,0,152
2,note_on,53,52,8
2,note_on,53,0,152
2,note_on,41,0,8
2,note_on,51,56,0
2,note_on,41,56,0
2,note_on,51,0,160
2,note_on,53,52,0
2,note_on,53,0,152
2,note_on,53,52,8
2,note_on,53,0,152
2,note_on,41,0,8
2,note_on,41,51,0
2,note_on,51,51,0
2,note_on,53,50,160
2,note_on,53,0,152
2,note_on,53,50,8
2,note_on,53,0,152
2,note_on,53,50,8
2,note_on,53,0,152
2,note_on,53,50,8
2,note_on,53,0,152
2,note_on,53,49,8
2,note_on,53,0,152
2,note_on,51,0,8
2,note_on,41,0,0
2,note_on,53,49,0
2,note_on,53,0,152
2,note_on,53,49,8
2,note_on,53,0,152
2,note_on,53,49,8
2,note_on,53,0,152
2,note_on,53,48,8
2,note_on,53,0,152
2,note_on,53,48,8
2,note_on,53,0,152
2,note_on,53,48,8
2,note_on,53,0,152
2,note_on,41,45,8
2,note_on,50,48,0
2,note_on,53,42,160
2,note_on,53,0,160
2,note_on,53,39,0
2,note_on,53,0,152
2,note_on,53,38,8
2,note_on,53,0,152
2,note_on,53,38,8
2,note_on,53,0,152
2,note_on,53,37,8
2,note_on,53,0,152
2,note_on,53,37,8
2,note_on,53,0,152
2,note_on,53,36,8
2,note_on,53,0,152
2,note_on,53,35,8
2,note_on,53,0,152
2,note_on,53,36,8
2,note_on,53,0,152
2,note_on,53,40,8
2,note_on,53,0,152
2,note_on,53,44,8
2,note_on,53,0,152
2,note_on,50,0,8
2,note_on,41,0,0
2,note_on,53,50,0
2,note_on,53,0,160
2,note_on,44,42,0
2,note_on,44,0,152
2,note_on,44,42,8
2,note_on,44,0,152
2,note_on,44,42,8
2,note_on,44,0,152
2,note_on,44,42,8
2,note_on,44,0,152
2,note_on,44,42,8
2,note_on,44,0,152
2,note_on,44,42,8
2,note_on,44,0,152
2,note_on,44,42,8
2,note_on,44,0,152
2,note_on,44,42,8
2,note_on,44,0,152
2,note_on,44,42,8
2,note_on,44,0,152
2,note_on,44,42,8
2,note_on,44,0,152
2,note_on,44,42,8
2,note_on,44,0,152
2,note_on,44,46,8
2,note_on,44,0,160
2,note_on,37,46,0
2,note_on,37,0,152
2,note_on,37,46,8
2,note_on,37,0,152
2,note_on,37,53,8
2,note_on,37,0,152
2,note_on,37,53,8
2,note_on,37,0,152
2,note_on,37,53,8
2,note_on,37,0,152
2,note_on,37,53,8
2,note_on,37,0,152
2,note_on,37,52,8
2,note_on,37,0,152
2,note_on,37,52,8
2,note_on,37,0,152
2,note_on,37,65,8
2,note_on,37,0,120
2,note_on,35,59,0
2,note_on,35,0,120
2,note_on,33,61,0
2,note_on,33,0,120
2,note_on,32,59,0
2,note_on,32,0,120
2,note_on,30,65,0
2,note_on,30,0,120
2,note_on,54,42,1320
2,note_on,61,42,0
2,note_on,61,0,480
2,note_on,54,0,0
2,note_on,54,42,0
2,note_on,61,42,0
2,note_on,61,0,720
2,note_on,59,38,0
2,note_on,59,0,240
2,note_on,57,41,0
2,note_on,57,0,240
2,note_on,54,0,0
2,note_on,54,38,240
2,note_on,57,38,0
2,note_on,57,0,480
2,note_on,54,0,0
2,note_on,54,41,0
2,note_on,57,41,0
2,note_on,57,0,720
2,note_on,56,41,0
2,note_on,56,0,240
2,note_on,54,0,0
2,note_on,54,44,0
2,note_on,54,0,240
2,note_on,54,34,240
2,note_on,54,0,480
2,note_on,54,41,0
2,note_on,54,0,480
2,note_on,56,42,0
2,note_on,56,0,480
2,note_on,57,47,0
2,note_on,57,0,480
2,note_on,52,31,0
2,note_on,59,37,0
2,note_on,59,0,480
2,note_on,52,0,0
2,note_on,57,39,0
2,note_on,61,47,0
2,note_on,61,0,480
2,note_on,57,0,0
2,note_on,56,38,0
2,note_on,61,45,0
2,note_on,61,0,480
2,note_on,56,0,0
2,note_on,54,38,0
2,note_on,61,46,0
2,note_on,61,0,480
2,note_on,54,0,0
2,note_on,52,33,0
2,note_on,62,39,0
2,note_on,62,0,480
2,note_on,52,0,0
2,note_on,52,33,0
2,note_on,62,39,0
2,note_on,62,0,960
2,note_on,52,0,0
2,note_on,53,30,0
2,note_on,61,37,0
2,note_on,61,0,480
2,note_on,53,0,0
2,note_on,54,30,0
2,note_on,61,36,0
2,note_on,61,0,480
2,note_on,54,0,0
2,note_on,54,32,0
2,note_on,61,42,0
2,note_on,61,0,720
2,note_on,59,38,0
2,note_on,59,0,240
2,note_on,57,41,0
2,note_on,57,0,240
2,note_on,54,0,0
2,note_on,54,32,240
2,note_on,57,38,0
2,note_on,57,0,480
2,note_on,54,0,0
2,note_on,54,34,0
2,note_on,57,41,0
2,note_on,57,0,720
2,note_on,56,41,0
2,note_on,56,0,240
2,note_on,54,0,0
2,note_on,54,44,0
2,note_on,54,0,240
2,note_on,54,34,240
2,note_on,54,0,480
2,note_on,54,41,0
2,note_on,54,0,480
2,note_on,56,42,0
2,note_on,56,0,480
2,note_on,57,47,0
2,note_on,57,0,480
2,note_on,52,31,0
2,note_on,59,37,0
2,note_on,59,0,480
2,note_on,52,0,0
2,note_on,57,39,0
2,note_on,61,47,0
2,note_on,61,0,480
2,note_on,57,0,0
2,note_on,56,38,0
2,note_on,61,45,0
2,note_on,61,0,480
2,note_on,56,0,0
2,note_on,54,38,0
2,note_on,61,46,0
2,note_on,61,0,480
2,note_on,54,0,0
2,note_on,52,33,0
2,note_on,62,39,0
2,note_on,62,0,480
2,note_on,52,0,0
2,note_on,52,33,0
2,note_on,62,39,0
2,note_on,62,0,960
2,note_on,52,0,0
2,note_on,57,37,0
2,note_on,61,37,0
2,note_on,61,0,160
2,note_on,57,0,0
2,note_on,64,29,0
2,note_on,64,0,152
2,note_on,64,29,8
2,note_on,64,0,152
2,note_on,64,33,8
2,note_on,64,0,152
2,note_on,64,29,8
2,note_on,64,0,152
2,note_on,64,29,8
2,note_on,64,0,152
2,note_on,58,33,8
2,note_on,58,0,120
2,note_on,64,27,0
2,note_on,64,0,120
2,note_on,61,27,0
2,note_on,61,0,120
2,note_on,64,27,0
2,note_on,64,0,120
2,note_on,58,33,0
2,note_on,58,0,120
2,note_on,64,28,0
2,note_on,64,0,120
2,note_on,61,28,0
2,note_on,61,0,120
2,note_on,64,29,0
2,note_on,64,0,120
2,note_on,58,33,0
2,note_on,58,0,120
2,note_on,64,29,0
2,note_on,64,0,120
2,note_on,61,29,0
2,note_on,61,0,120
2,note_on,64,29,0
2,note_on,64,0,120
2,note_on,57,33,0
2,note_on,57,0,120
2,note_on,64,29,0
2,note_on,64,0,120
2,note_on,61,29,0
2,note_on,61,0,120
2,note_on,64,29,0
2,note_on,64,0,120
2,note_on,55,33,0
2,note_on,55,0,120
2,note_on,64,27,0
2,note_on,64,0,120
2,note_on,61,27,0
2,note_on,61,0,120
2,note_on,64,27,0
2,note_on,64,0,120
2,note_on,55,33,0
2,note_on,55,0,120
2,note_on,64,28,0
2,note_on,64,0,120
2,note_on,61,28,0
2,note_on,61,0,120
2,note_on,64,29,0
2,note_on,64,0,120
2,note_on,55,33,0
2,note_on,55,0,120
2,note_on,64,29,0
2,note_on,64,0,120
2,note_on,61,29,0
2,note_on,61,0,120
2,note_on,64,29,0
2,note_on,64,0,120
2,note_on,54,33,0
2,note_on,54,0,120
2,note_on,64,29,0
2,note_on,64,0,120
2,note_on,61,29,0
2,note_on,61,0,120
2,note_on,64,29,0
2,note_on,64,0,120
2,note_on,54,33,0
2,note_on,54,0,120
2,note_on,64,28,0
2,note_on,64,0,120
2,note_on,61,28,0
2,note_on,61,0,120
2,note_on,64,28,0
2,note_on,64,0,120
2,note_on,54,34,0
2,note_on,54,0,120
2,note_on,62,28,0
2,note_on,62,0,120
2,note_on,59,28,0
2,note_on,59,0,120
2,note_on,62,29,0
2,note_on,62,0,120
2,note_on,54,35,0
2,note_on,54,0,120
2,note_on,61,29,0
2,note_on,61,0,120
2,note_on,58,29,0
2,note_on,58,0,120
2,note_on,61,29,0
2,note_on,61,0,120
2,note_on,54,36,0
2,note_on,54,0,120
2,note_on,62,31,0
2,note_on,62,0,120
2,note_on,59,31,0
2,note_on,59,0,120
2,note_on,62,31,0
2,note_on,62,0,120
2,note_on,54,37,0
2,note_on,54,0,120
2,note_on,64,31,0
2,note_on,64,0,120
2,note_on,61,32,0
2,note_on,61,0,120
2,note_on,64,32,0
2,note_on,64,0,120
2,note_on,55,37,0
2,note_on,55,0,120
2,note_on,64,31,0
2,note_on,64,0,120
2,note_on,61,31,0
2,note_on,61,0,120
2,note_on,64,31,0
2,note_on,64,0,120
2,note_on,56,38,0
2,note_on,56,0,120
2,note_on,64,32,0
2,note_on,64,0,120
2,note_on,61,32,0
2,note_on,61,0,120
2,note_on,64,33,0
2,note_on,64,0,120
2,note_on,57,39,0
2,note_on,57,0,120
2,note_on,64,32,0
2,note_on,64,0,120
2,note_on,61,34,0
2,note_on,61,0,120
2,note_on,64,34,0
2,note_on,64,0,120
2,note_on,57,33,0
2,note_on,57,0,120
2,note_on,64,27,0
2,note_on,64,0,120
2,note_on,61,27,0
2,note_on,61,0,120
2,note_on,64,27,0
2,note_on,64,0,120
2,note_on,58,33,0
2,note_on,58,0,120
2,note_on,64,28,0
2,note_on,64,0,120
2,note_on,61,28,0
2,note_on,61,0,120
2,note_on,64,29,0
2,note_on,64,0,120
2,note_on,58,33,0
2,note_on,58,0,120
2,note_on,64,29,0
2,note_on,64,0,120
2,note_on,61,29,0
2,note_on,61,0,120
2,note_on,64,29,0
2,note_on,64,0,120
2,note_on,57,33,0
2,note_on,57,0,120
2,note_on,64,29,0
2,note_on,64,0,120
2,note_on,61,29,0
2,note_on,61,0,120
2,note_on,64,29,0
2,note_on,64,0,120
2,note_on,55,33,0
2,note_on,55,0,120
2,note_on,64,27,0
2,note_on,64,0,120
2,note_on,61,27,0
2,note_on,61,0,120
2,note_on,64,27,0
2,note_on,64,0,120
2,note_on,55,33,0
2,note_on,55,0,120
2,note_on,64,28,0
2,note_on,64,0,120
2,note_on,61,28,0
2,note_on,61,0,120
2,note_on,64,29,0
2,note_on,64,0,120
2,note_on,55,33,0
2,note_on,55,0,120
2,note_on,64,29,0
2,note_on,64,0,120
2,note_on,61,29,0
2,note_on,61,0,120
2,note_on,64,31,0
2,note_on,64,0,120
2,note_on,54,36,0
2,note_on,54,0,120
2,note_on,64,31,0
2,note_on,64,0,120
2,note_on,61,31,0
2,note_on,61,0,120
2,note_on,64,31,0
2,note_on,64,0,120
2,note_on,54,36,0
2,note_on,54,0,120
2,note_on,64,30,0
2,note_on,64,0,120
2,note_on,61,30,0
2,note_on,61,0,120
2,note_on,64,30,0
2,note_on,64,0,120
2,note_on,54,37,0
2,note_on,54,0,120
2,note_on,62,30,0
2,note_on,62,0,120
2,note_on,59,30,0
2,note_on,59,0,120
2,note_on,62,31,0
2,note_on,62,0,120
2,note_on,54,38,0
2,note_on,54,0,120
2,note_on,61,31,0
2,note_on,61,0,120
2,note_on,58,31,0
2,note_on,58,0,120
2,note_on,61,31,0
2,note_on,61,0,120
2,note_on,54,39,0
2,note_on,54,0,120
2,note_on,62,34,0
2,note_on,62,0,120
2,note_on,59,34,0
2,note_on,59,0,120
2,note_on,62,34,0
2,note_on,62,0,120
2,note_on,54,40,0
2,note_on,54,0,120
2,note_on,64,34,0
2,note_on,64,0,120
2,note_on,61,35,0
2,note_on,61,0,120
2,note_on,64,35,0
2,note_on,64,0,120
2,note_on,55,40,0
2,note_on,55,0,120
2,note_on,64,34,0
2,note_on,64,0,120
2,note_on,61,34,0
2,note_on,61,0,120
2,note_on,64,34,0
2,note_on,64,0,120
2,note_on,56,41,0
2,note_on,56,0,120
2,note_on,64,35,0
2,note_on,64,0,120
2,note_on,61,35,0
2,note_on,61,0,120
2,note_on,64,36,0
2,note_on,64,0,120
2,note_on,57,42,0
2,note_on,57,0,120
2,note_on,64,35,0
2,note_on,64,0,120
2,note_on,61,37,0
2,note_on,61,0,120
2,note_on,64,37,0
2,note_on,64,0,120
2,note_on,57,36,0
2,note_on,57,0,120
2,note_on,64,29,0
2,note_on,64,0,120
2,note_on,61,29,0
2,note_on,61,0,120
2,note_on,64,29,0
2,note_on,64,0,120
2,note_on,58,36,0
2,note_on,58,0,120
2,note_on,64,30,0
2,note_on,64,0,120
2,note_on,61,30,0
2,note_on,61,0,120
2,note_on,64,31,0
2,note_on,64,0,120
2,note_on,57,36,0
2,note_on,57,0,120
2,note_on,64,31,0
2,note_on,64,0,120
2,note_on,61,31,0
2,note_on,61,0,120
2,note_on,64,31,0
2,note_on,64,0,120
2,note_on,55,36,0
2,note_on,55,0,120
2,note_on,64,31,0
2,note_on,64,0,120
2,note_on,61,31,0
2,note_on,61,0,120
2,note_on,64,31,0
2,note_on,64,0,120
2,note_on,53,36,0
2,note_on,53,0,120
2,note_on,62,29,0
2,note_on,62,0,120
2,note_on,57,29,0
2,note_on,57,0,120
2,note_on,62,29,0
2,note_on,62,0,120
2,note_on,52,36,0
2,note_on,52,0,120
2,note_on,62,30,0
2,note_on,62,0,120
2,note_on,55,30,0
2,note_on,55,0,120
2,note_on,62,31,0
2,note_on,62,0,120
2,note_on,50,36,0
2,note_on,50,0,120
2,note_on,62,31,0
2,note_on,62,0,120
2,note_on,53,31,0
2,note_on,53,0,120
2,note_on,62,31,0
2,note_on,62,0,120
2,note_on,53,36,0
2,note_on,53,0,120
2,note_on,62,31,0
2,note_on,62,0,120
2,note_on,57,31,0
2,note_on,57,0,120
2,note_on,62,31,0
2,note_on,62,0,120
2,note_on,57,36,0
2,note_on,57,0,120
2,note_on,64,29,0
2,note_on,64,0,120
2,note_on,61,29,0
2,note_on,61,0,120
2,note_on,64,29,0
2,note_on,64,0,120
2,note_on,58,36,0
2,note_on,58,0,120
2,note_on,64,30,0
2,note_on,64,0,120
2,note_on,61,30,0
2,note_on,61,0,120
2,note_on,64,31,0
2,note_on,64,0,120
2,note_on,57,36,0
2,note_on,57,0,120
2,note_on,64,31,0
2,note_on,64,0,120
2,note_on,61,31,0
2,note_on,61,0,120
2,note_on,64,31,0
2,note_on,64,0,120
2,note_on,55,37,0
2,note_on,55,0,120
2,note_on,64,32,0
2,note_on,64,0,120
2,note_on,61,32,0
2,note_on,61,0,120
2,note_on,64,32,0
2,note_on,64,0,120
2,note_on,53,37,0
2,note_on,53,0,120
2,note_on,65,31,0
2,note_on,65,0,120
2,note_on,62,32,0
2,note_on,62,0,120
2,note_on,65,32,0
2,note_on,65,0,120
2,note_on,53,39,0
2,note_on,53,0,120
2,note_on,65,34,0
2,note_on,65,0,120
2,note_on,62,34,0
2,note_on,62,0,120
2,note_on,65,35,0
2,note_on,65,0,120
2,note_on,53,42,0
2,note_on,53,0,120
2,note_on,65,37,0
2,note_on,65,0,120
2,note_on,62,37,0
2,note_on,62,0,120
2,note_on,65,37,0
2,note_on,65,0,120
2,note_on,53,44,0
2,note_on,53,0,120
2,note_on,67,39,0
2,note_on,67,0,120
2,note_on,63,40,0
2,note_on,63,0,120
2,note_on,67,40,0
2,note_on,67,0,120
2,note_on,53,48,0
2,note_on,53,0,120
2,note_on,65,38,0
2,note_on,65,0,120
2,note_on,62,38,0
2,note_on,62,0,120
2,note_on,65,38,0
2,note_on,65,0,120
2,note_on,53,47,0
2,note_on,53,0,120
2,note_on,63,39,0
2,note_on,63,0,120
2,note_on,60,39,0
2,note_on,60,0,120
2,note_on,63,39,0
2,note_on,63,0,120
2,note_on,53,42,0
2,note_on,53,0,120
2,note_on,62,36,0
2,note_on,62,0,120
2,note_on,58,36,0
2,note_on,58,0,120
2,note_on,62,37,0
2,note_on,62,0,120
2,note_on,53,42,0
2,note_on,53,0,120
2,note_on,60,35,0
2,note_on,60,0,120
2,note_on,56,35,0
2,note_on,56,0,120
2,note_on,60,35,0
2,note_on,60,0,120
2,note_on,53,35,0
2,note_on,53,0,120
2,note_on,59,29,0
2,note_on,59,0,120
2,note_on,56,29,0
2,note_on,56,0,120
2,note_on,59,29,0
2,note_on,59,0,120
2,note_on,53,34,0
2,note_on,53,0,120
2,note_on,59,29,0
2,note_on,59,0,120
2,note_on,56,29,0
2,note_on,56,0,120
2,note_on,59,29,0
2,note_on,59,0,120
2,note_on,53,33,0
2,note_on,53,0,120
2,note_on,59,29,0
2,note_on,59,0,120
2,note_on,56,29,0
2,note_on,56,0,120
2,note_on,59,29,0
2,note_on,59,0,120
2,note_on,53,33,0
2,note_on,53,0,120
2,note_on,59,29,0
2,note_on,59,0,120
2,note_on,56,29,0
2,note_on,56,0,120
2,note_on,59,29,0
2,note_on,59,0,120
2,note_on,53,31,0
2,note_on,53,0,120
2,note_on,59,27,0
2,note_on,59,0,120
2,note_on,56,27,0
2,note_on,56,0,120
2,note_on,59,27,0
2,note_on,59,0,120
2,note_on,53,32,0
2,note_on,53,0,120
2,note_on,59,27,0
2,note_on,59,0,120
2,note_on,56,27,0
2,note_on,56,0,120
2,note_on,59,27,0
2,note_on,59,0,120
2,note_on,52,32,0
2,note_on,52,0,120
2,note_on,59,26,0
2,note_on,59,0,120
2,note_on,56,26,0
2,note_on,56,0,120
2,note_on,59,26,0
2,note_on,59,0,120
2,note_on,50,31,0
2,note_on,50,0,120
2,note_on,59,26,0
2,note_on,59,0,120
2,note_on,56,26,0
2,note_on,56,0,120
2,note_on,59,26,0
2,note_on,59,0,120
2,note_on,48,31,0
2,note_on,48,0,120
2,note_on,60,24,0
2,note_on,60,0,120
2,note_on,57,24,0
2,note_on,57,0,120
2,note_on,60,24,0
2,note_on,60,0,120
2,note_on,48,30,0
2,note_on,48,0,120
2,note_on,62,25,0
2,note_on,62,0,120
2,note_on,58,25,0
2,note_on,58,0,120
2,note_on,62,26,0
2,note_on,62,0,120
2,note_on,48,29,0
2,note_on,48,0,120
2,note_on,60,26,0
2,note_on,60,0,120
2,note_on,57,26,0
2,note_on,57,0,120
2,note_on,60,26,0
2,note_on,60,0,120
2,note_on,48,30,0
2,note_on,48,0,120
2,note_on,62,26,0
2,note_on,62,0,120
2,note_on,58,26,0
2,note_on,58,0,120
2,note_on,62,26,0
2,note_on,62,0,120
2,note_on,48,31,0
2,note_on,48,0,120
2,note_on,60,24,0
2,note_on,60,0,120
2,note_on,57,24,0
2,note_on,57,0,120
2,note_on,60,24,0
2,note_on,60,0,120
2,note_on,48,30,0
2,note_on,48,0,120
2,note_on,62,25,0
2,note_on,62,0,120
2,note_on,58,25,0
2,note_on,58,0,120
2,note_on,62,26,0
2,note_on,62,0,120
2,note_on,48,29,0
2,note_on,48,0,120
2,note_on,60,26,0
2,note_on,60,0,120
2,note_on,57,26,0
2,note_on,57,0,120
2,note_on,60,26,0
2,note_on,60,0,120
2,note_on,48,30,0
2,note_on,48,0,120
2,note_on,62,26,0
2,note_on,62,0,120
2,note_on,58,26,0
2,note_on,58,0,120
2,note_on,62,26,0
2,note_on,62,0,120
2,note_on,48,31,0
2,note_on,48,0,120
2,note_on,60,24,0
2,note_on,60,0,120
2,note_on,57,24,0
2,note_on,57,0,120
2,note_on,60,24,0
2,note_on,60,0,120
2,note_on,48,30,0
2,note_on,48,0,120
2,note_on,62,26,0
2,note_on,62,0,120
2,note_on,58,26,0
2,note_on,58,0,120
2,note_on,62,27,0
2,note_on,62,0,120
2,note_on,48,30,0
2,note_on,48,0,120
2,note_on,60,27,0
2,note_on,60,0,120
2,note_on,57,28,0
2,note_on,57,0,120
2,note_on,60,28,0
2,note_on,60,0,120
2,note_on,48,33,0
2,note_on,48,0,120
2,note_on,62,28,0
2,note_on,62,0,120
2,note_on,58,28,0
2,note_on,58,0,120
2,note_on,62,28,0
2,note_on,62,0,120
2,note_on,48,34,0
2,note_on,48,0,120
2,note_on,60,26,0
2,note_on,60,0,120
2,note_on,57,26,0
2,note_on,57,0,120
2,note_on,60,26,0
2,note_on,60,0,120
2,note_on,48,33,0
2,note_on,48,0,120
2,note_on,62,27,0
2,note_on,62,0,120
2,note_on,58,27,0
2,note_on,58,0,120
2,note_on,62,28,0
2,note_on,62,0,120
2,note_on,48,31,0
2,note_on,48,0,120
2,note_on,60,28,0
2,note_on,60,0,120
2,note_on,57,28,0
2,note_on,57,0,120
2,note_on,60,28,0
2,note_on,60,0,120
2,note_on,48,36,0
2,note_on,48,0,120
2,note_on,62,30,0
2,note_on,62,0,120
2,note_on,58,30,0
2,note_on,58,0,120
2,note_on,62,30,0
2,note_on,62,0,120
2,note_on,48,42,0
2,note_on,48,0,120
2,note_on,60,35,0
2,note_on,60,0,120
2,note_on,57,35,0
2,note_on,57,0,120
2,note_on,60,35,0
2,note_on,60,0,120
2,note_on,48,44,0
2,note_on,48,0,120
2,note_on,62,37,0
2,note_on,62,0,120
2,note_on,58,38,0
2,note_on,58,0,120
2,note_on,62,37,0
2,note_on,62,0,120
2,note_on,48,47,0
2,note_on,48,0,120
2,note_on,60,37,0
2,note_on,60,0,120
2,note_on,57,38,0
2,note_on,57,0,120
2,note_on,60,38,0
2,note_on,60,0,120
2,note_on,48,49,0
2,note_on,48,0,120
2,note_on,60,40,0
2,note_on,60,0,120
2,note_on,58,40,0
2,note_on,58,0,120
2,note_on,60,40,0
2,note_on,60,0,120
2,note_on,48,41,0
2,note_on,60,49,0
2,note_on,58,41,0
2,note_on,58,0,1920
2,note_on,60,0,0
2,note_on,48,0,0
2,note_on,53,32,0
2,note_on,57,32,0
2,note_on,60,38,0
2,note_on,60,0,480
2,note_on,57,0,0
2,note_on,53,0,0
2,note_on,53,29,480
2,note_on,57,29,0
2,note_on,60,35,0
2,note_on,60,0,240
2,note_on,57,0,0
2,note_on,53,0,0
2,note_on,53,29,240
2,note_on,60,29,0
2,note_on,63,35,0
2,note_on,63,0,240
2,note_on,60,0,0
2,note_on,53,0,0
2,note_on,53,32,240
2,note_on,58,32,0
2,note_on,62,38,0
2,note_on,62,0,480
2,note_on,58,0,0
2,note_on,53,0,0
2,note_on,53,29,480
2,note_on,58,29,0
2,note_on,62,35,0
2,note_on,62,0,240
2,note_on,58,0,0
2,note_on,53,0,0
2,note_on,53,29,240
2,note_on,62,29,0
2,note_on,65,35,0
2,note_on,65,0,240
2,note_on,62,0,0
2,note_on,53,0,0
2,note_on,53,32,240
2,note_on,57,32,0
2,note_on,60,38,0
2,note_on,60,0,480
2,note_on,57,0,0
2,note_on,53,0,0
2,note_on,53,29,480
2,note_on,57,35,0
2,note_on,57,0,240
2,note_on,53,0,0
2,note_on,57,29,240
2,note_on,60,35,0
2,note_on,60,0,240
2,note_on,57,0,0
2,note_on,48,29,240
2,note_on,57,29,0
2,note_on,60,35,0
2,note_on,60,0,240
2,note_on,57,0,0
2,note_on,48,0,0
2,note_on,48,28,240
2,note_on,62,34,0
2,note_on,58,28,0
2,note_on,58,0,240
2,note_on,62,0,0
2,note_on,48,0,0
2,note_on,48,28,159
2,note_on,57,28,0
2,note_on,60,33,0
2,note_on,60,0,240
2,note_on,57,0,0
2,note_on,48,0,0
2,note_on,48,28,240
2,note_on,55,28,0
2,note_on,58,34,0
2,note_on,58,0,240
2,note_on,55,0,0
2,note_on,48,0,0
2,note_on,48,29,240
2,note_on,54,29,0
2,note_on,57,35,0
2,note_on,57,0,240
2,note_on,54,0,0
2,note_on,48,0,0
2,note_on,48,28,240
2,note_on,57,35,0
2,note_on,54,28,0
2,note_on,54,0,240
2,note_on,57,0,0
2,note_on,48,0,0
2,note_on,48,29,240
2,note_on,54,29,0
2,note_on,57,35,0
2,note_on,57,0,240
2,note_on,54,0,0
2,note_on,48,0,0
2,note_on,48,31,240
2,note_on,54,31,0
2,note_on,57,37,0
2,note_on,57,0,240
2,note_on,54,0,0
2,note_on,48,0,0
2,note_on,46,33,240
2,note_on,53,33,0
2,note_on,58,40,0
2,note_on,58,0,240
2,note_on,53,0,0
2,note_on,46,0,0
2,note_on,46,31,240
2,note_on,58,38,0
2,note_on,53,31,0
2,note_on,53,0,240
2,note_on,58,0,0
2,note_on,46,0,0
2,note_on,48,31,240
2,note_on,53,31,0
2,note_on,57,37,0
2,note_on,57,0,240
2,note_on,53,0,0
2,note_on,48,0,0
2,note_on,48,31,240
2,note_on,55,31,0
2,note_on,58,38,0
2,note_on,58,0,240
2,note_on,55,0,0
2,note_on,48,0,0
2,note_on,53,47,240
2,note_on,53,0,160
2,note_on,60,44,0
2,note_on,60,0,160
2,note_on,57,44,0
2,note_on,57,0,80
2,note_on,53,47,80
2,note_on,53,0,80
2,note_on,48,43,80
2,note_on,48,0,80
2,note_on,45,41,80
2,note_on,45,0,80
2,note_on,41,45,80
2,note_on,41,0,80
2,note_on,45,41,80
2,note_on,45,0,80
2,note_on,48,41,80
2,note_on,48,0,80
2,note_on,45,47,80
2,note_on,45,0,80
2,note_on,48,45,80
2,note_on,48,0,80
2,note_on,53,45,80
2,note_on,53,0,80
2,note_on,53,47,80
2,note_on,53,0,160
2,note_on,62,44,0
2,note_on,62,0,160
2,note_on,58,44,0
2,note_on,58,0,80
2,note_on,53,47,80
2,note_on,53,0,80
2,note_on,50,43,80
2,note_on,50,0,80
2,note_on,46,41,80
2,note_on,46,0,80
2,note_on,41,45,80
2,note_on,41,0,80
2,note_on,46,41,80
2,note_on,46,0,80
2,note_on,50,41,80
2,note_on,50,0,80
2,note_on,46,47,80
2,note_on,46,0,80
2,note_on,50,45,80
2,note_on,50,0,80
2,note_on,53,45,80
2,note_on,53,0,80
2,note_on,53,47,80
2,note_on,53,0,160
2,note_on,65,44,0
2,note_on,65,0,160
2,note_on,60,44,0
2,note_on,60,0,80
2,note_on,57,47,80
2,note_on,57,0,80
2,note_on,53,43,80
2,note_on,53,0,80
2,note_on,48,41,80
2,note_on,48,0,80
2,note_on,45,45,80
2,note_on,45,0,80
2,note_on,41,41,80
2,note_on,41,0,80
2,note_on,36,41,80
2,note_on,36,0,80
2,note_on,41,47,80
2,note_on,41,0,80
2,note_on,45,45,80
2,note_on,45,0,80
2,note_on,48,45,80
2,note_on,48,0,80
2,note_on,48,29,80
2,note_on,57,29,0
2,note_on,60,35,0
2,note_on,60,0,240
2,note_on,57,0,0
2,note_on,48,0,0
2,note_on,60,28,240
2,note_on,74,34,0
2,note_on,70,28,0
2,note_on,70,0,240
2,note_on,74,0,0
2,note_on,60,0,0
2,note_on,60,28,240
2,note_on,69,28,0
2,note_on,72,33,0
2,note_on,72,0,240
2,note_on,69,0,0
2,note_on,60,0,0
2,note_on,60,28,240
2,note_on,67,28,0
2,note_on,70,34,0
2,note_on,70,0,240
2,note_on,67,0,0
2,note_on,60,0,0
2,note_on,60,29,240
2,note_on,66,29,0
2,note_on,69,35,0
2,note_on,69,0,240
2,note_on,66,0,0
2,note_on,60,0,0
2,note_on,60,28,240
2,note_on,69,35,0
2,note_on,66,28,0
2,note_on,66,0,240
2,note_on,69,0,0
2,note_on,60,0,0
2,note_on,60,29,240
2,note_on,66,29,0
2,note_on,69,35,0
2,note_on,69,0,240
2,note_on,66,0,0
2,note_on,60,0,0
2,note_on,60,31,240
2,note_on,66,31,0
2,note_on,69,37,0
2,note_on,69,0,240
2,note_on,66,0,0
2,note_on,60,0,0
2,note_on,58,33,240
2,note_on,65,33,0
2,note_on,70,40,0
2,note_on,70,0,240
2,note_on,65,0,0
2,note_on,58,0,0
2,note_on,58,31,240
2,note_on,70,38,0
2,note_on,65,31,0
2,note_on,65,0,240
2,note_on,70,0,0
2,note_on,58,0,0
2,note_on,60,31,240
2,note_on,65,31,0
2,note_on,69,37,0
2,note_on,69,0,240
2,note_on,65,0,0
2,note_on,60,0,0
2,note_on,60,31,240
2,note_on,67,31,0
2,note_on,70,38,0
2,note_on,70,0,240
2,note_on,67,0,0
2,note_on,60,0,0
2,note_on,46,26,240
2,note_on,51,26,0
2,note_on,55,31,0
2,note_on,55,0,240
2,note_on,51,0,0
2,note_on,46,0,0
2,note_on,46,25,240
2,note_on,55,31,0
2,note_on,51,25,0
2,note_on,51,0,240
2,note_on,55,0,0
2,note_on,46,0,0
2,note_on,46,26,240
2,note_on,51,26,0
2,note_on,55,31,0
2,note_on,55,0,240
2,note_on,51,0,0
2,note_on,46,0,0
2,note_on,46,27,240
2,note_on,51,27,0
2,note_on,55,33,0
2,note_on,55,0,240
2,note_on,51,0,0
2,note_on,46,0,0
2,note_on,44,29,240
2,note_on,51,29,0
2,note_on,56,36,0
2,note_on,56,0,240
2,note_on,51,0,0
2,note_on,44,0,0
2,note_on,44,27,240
2,note_on,56,34,0
2,note_on,51,27,0
2,note_on,51,0,240
2,note_on,56,0,0
2,note_on,44,0,0
2,note_on,46,27,240
2,note_on,51,27,0
2,note_on,55,33,0
2,note_on,55,0,240
2,note_on,51,0,0
2,note_on,46,0,0
2,note_on,46,27,240
2,note_on,53,27,0
2,note_on,56,34,0
2,note_on,56,0,240
2,note_on,53,0,0
2,note_on,46,0,0
2,note_on,66,31,1200
2,note_on,66,0,240
2,note_on,63,33,240
2,note_on,63,0,240
2,note_on,68,33,240
2,note_on,68,0,240
2,note_on,68,31,240
2,note_on,68,0,240
2,note_on,44,29,720
2,note_on,44,0,240
2,note_on,44,29,240
2,note_on,44,0,240
2,note_on,45,26,720
2,note_on,45,0,240
2,note_on,45,26,240
2,note_on,45,0,240
2,note_on,57,26,720
2,note_on,57,0,240
2,note_on,58,27,240
2,note_on,58,0,240
2,note_on,46,30,240
2,note_on,46,0,240
2,note_on,48,33,240
2,note_on,48,0,240
2,note_on,48,35,240
2,note_on,48,0,240
2,note_on,58,41,240
2,note_on,55,35,0
2,note_on,48,35,0
2,note_on,48,0,240
2,note_on,55,0,0
2,note_on,58,0,0
2,note_on,48,36,240
2,note_on,55,36,0
2,note_on,58,42,0
2,note_on,58,0,240
2,note_on,55,0,0
2,note_on,48,0,0
2,note_on,41,36,240
2,note_on,53,42,0
2,note_on,53,0,120
2,note_on,41,0,0
2,note_on,57,36,840
2,note_on,60,44,0
2,note_on,57,0,720
2,note_on,55,30,0
2,note_on,58,36,0
2,note_on,58,0,240
2,note_on,55,0,0
2,note_on,60,0,0
2,note_on,53,36,0
2,note_on,57,44,0
2,note_on,57,0,480
2,note_on,53,0,0
2,note_on,51,38,0
2,note_on,57,45,0
2,note_on,57,0,480
2,note_on,51,0,0
2,note_on,50,40,0
2,note_on,57,48,0
2,note_on,57,0,480
2,note_on,50,0,0
2,note_on,43,37,0
2,note_on,50,37,0
2,note_on,55,44,0
2,note_on,55,0,480
2,note_on,50,0,0
2,note_on,43,0,0
2,note_on,48,41,0
2,note_on,58,49,0
2,note_on,58,0,960
2,note_on,48,0,0
2,note_on,53,32,0
2,note_on,57,38,0
2,note_on,57,0,120
2,note_on,53,0,0
2,note_on,53,28,360
2,note_on,57,34,0
2,note_on,57,0,120
2,note_on,53,0,0
2,note_on,45,35,1320
2,note_on,48,42,0
2,note_on,48,0,237
2,note_on,45,0,483
2,note_on,43,30,0
2,note_on,46,36,0
2,note_on,46,0,240
2,note_on,43,0,0
2,note_on,41,36,0
2,note_on,45,44,0
2,note_on,45,0,480
2,note_on,41,0,0
2,note_on,39,38,0
2,note_on,45,45,0
2,note_on,45,0,480
2,note_on,39,0,0
2,note_on,38,40,0
2,note_on,45,48,0
2,note_on,45,0,480
2,note_on,38,0,0
2,note_on,31,40,0
2,note_on,38,40,0
2,note_on,43,48,0
2,note_on,43,0,240
2,note_on,38,0,0
2,note_on,31,0,0
2,note_on,53,45,720
2,note_on,58,53,0
2,note_on,58,0,480
2,note_on,53,0,0
2,note_on,51,49,0
2,note_on,58,59,0
2,note_on,58,0,480
2,note_on,51,0,0
2,note_on,44,50,0
2,note_on,51,50,0
2,note_on,56,60,0
2,note_on,56,0,240
2,note_on,51,0,0
2,note_on,44,0,0
2,note_on,40,70,720
2,note_on,47,70,0
2,note_on,52,84,0
2,note_on,52,0,480
2,note_on,47,0,0
2,note_on,40,0,0
2,note_on,33,70,0
2,note_on,40,70,0
2,note_on,45,84,0
2,note_on,45,0,240
2,note_on,40,0,0
2,note_on,33,0,0
2,note_on,65,49,720
2,note_on,75,58,0
2,note_on,75,0,960
2,note_on,65,0,0
2,note_on,70,38,0
2,note_on,74,45,0
2,note_on,74,0,120
2,note_on,70,0,0
2,note_on,70,33,360
2,note_on,74,40,0
2,note_on,74,0,120
2,note_on,70,0,0
2,note_on,70,38,360
2,note_on,74,45,0
2,note_on,74,0,1440
2,note_on,70,0,0
2,note_on,48,33,2400
2,note_on,58,39,0
2,note_on,58,0,960
2,note_on,48,0,0
2,note_on,53,30,0
2,note_on,57,36,0
2,note_on,57,0,120
2,note_on,53,0,0
2,note_on,53,24,360
2,note_on,57,32,0
2,note_on,57,0,120
2,note_on,53,0,0
2,note_on,53,30,360
2,note_on,60,36,0
2,note_on,60,0,1440
2,note_on,53,0,0
2,note_on,65,49,480
2,note_on,75,58,0
2,note_on,75,0,960
2,note_on,65,0,0
2,note_on,70,38,0
2,note_on,74,45,0
2,note_on,74,0,120
2,note_on,70,0,0
2,note_on,70,39,360
2,note_on,74,48,0
2,note_on,74,0,120
2,note_on,70,0,0
2,note_on,48,29,6120
2,note_on,58,35,0
2,note_on,58,0,960
2,note_on,48,0,0
2,note_on,53,27,0
2,note_on,57,32,0
2,note_on,57,0,120
2,note_on,53,0,0
2,note_on,53,21,360
2,note_on,57,28,0
2,note_on,57,0,120
2,note_on,53,0,0
2,note_on,53,27,360
2,note_on,60,32,0
2,note_on,60,0,1440
2,note_on,53,0,0
2,note_on,52,24,480
2,note_on,56,24,0
2,note_on,61,28,0
2,note_on,61,0,120
2,note_on,56,0,0
2,note_on,52,0,0
2,note_on,52,18,360
2,note_on,56,18,0
2,note_on,61,25,0
2,note_on,61,0,120
2,note_on,56,0,0
2,note_on,52,0,0
2,note_on,49,24,360
2,note_on,56,24,0
2,note_on,61,28,0
2,note_on,61,0,480
2,note_on,56,0,0
2,note_on,49,0,0
2,note_on,49,34,0
2,note_on,49,0,240
2,note_on,56,29,0
2,note_on,56,0,240
2,note_on,49,33,0
2,note_on,49,0,240
2,note_on,56,28,0
2,note_on,56,0,240
2,note_on,48,33,0
2,note_on,48,0,240
2,note_on,56,28,0
2,note_on,56,0,240
2,note_on,49,33,0
2,note_on,49,0,240
2,note_on,56,28,0
2,note_on,56,0,240
2,note_on,51,34,0
2,note_on,51,0,240
2,note_on,56,28,0
2,note_on,56,0,240
2,note_on,52,33,0
2,note_on,52,0,240
2,note_on,56,27,0
2,note_on,56,0,240
2,note_on,61,30,0
2,note_on,61,0,240
2,note_on,56,27,0
2,note_on,56,0,240
2,note_on,52,33,0
2,note_on,52,0,240
2,note_on,56,28,0
2,note_on,56,0,240
2,note_on,51,34,0
2,note_on,51,0,240
2,note_on,56,29,0
2,note_on,56,0,240
2,note_on,52,33,0
2,note_on,52,0,240
2,note_on,56,28,0
2,note_on,56,0,240
2,note_on,61,31,0
2,note_on,61,0,240
2,note_on,56,28,0
2,note_on,56,0,240
2,note_on,53,31,0
2,note_on,53,0,240
2,note_on,56,25,0
2,note_on,56,0,240
2,note_on,53,34,0
2,note_on,53,0,240
2,note_on,61,28,0
2,note_on,61,0,240
2,note_on,54,37,0
2,note_on,54,0,240
2,note_on,61,27,0
2,note_on,61,0,240
2,note_on,54,31,0
2,note_on,54,0,240
2,note_on,62,27,0
2,note_on,62,0,240
2,note_on,54,31,0
2,note_on,54,0,240
2,note_on,61,25,0
2,note_on,61,0,240
2,note_on,54,34,0
2,note_on,54,0,240
2,note_on,60,29,0
2,note_on,60,0,240
2,note_on,54,33,0
2,note_on,54,0,240
2,note_on,61,28,0
2,note_on,61,0,240
2,note_on,53,33,0
2,note_on,53,0,240
2,note_on,61,28,0
2,note_on,61,0,240
2,note_on,54,33,0
2,note_on,54,0,240
2,note_on,61,28,0
2,note_on,61,0,240
2,note_on,56,34,0
2,note_on,56,0,240
2,note_on,61,28,0
2,note_on,61,0,240
2,note_on,57,33,0
2,note_on,57,0,240
2,note_on,61,27,0
2,note_on,61,0,240
2,note_on,66,31,0
2,note_on,66,0,240
2,note_on,61,27,0
2,note_on,61,0,240
2,note_on,57,33,0
2,note_on,57,0,240
2,note_on,61,28,0
2,note_on,61,0,240
2,note_on,56,34,0
2,note_on,56,0,240
2,note_on,61,29,0
2,note_on,61,0,240
2,note_on,57,33,0
2,note_on,57,0,240
2,note_on,61,28,0
2,note_on,61,0,240
2,note_on,66,33,0
2,note_on,66,0,240
2,note_on,61,28,0
2,note_on,61,0,240
2,note_on,58,35,0
2,note_on,58,0,240
2,note_on,61,29,0
2,note_on,61,0,240
2,note_on,58,35,0
2,note_on,58,0,240
2,note_on,66,28,0
2,note_on,66,0,240
2,note_on,59,37,0
2,note_on,59,0,240
2,note_on,66,40,0
2,note_on,66,0,240
2,note_on,59,33,0
2,note_on,59,0,240
2,note_on,67,39,0
2,note_on,67,0,240
2,note_on,59,33,0
2,note_on,59,0,240
2,note_on,66,36,0
2,note_on,66,0,240
2,note_on,59,33,0
2,note_on,59,0,240
2,note_on,65,29,0
2,note_on,65,0,240
2,note_on,57,35,0
2,note_on,57,0,240
2,note_on,66,31,0
2,note_on,66,0,240
2,note_on,56,33,0
2,note_on,56,0,240
2,note_on,65,30,0
2,note_on,65,0,240
2,note_on,54,33,0
2,note_on,54,0,240
2,note_on,66,30,0
2,note_on,66,0,240
2,note_on,51,33,0
2,note_on,51,0,240
2,note_on,60,29,0
2,note_on,60,0,240
2,note_on,52,36,0
2,note_on,52,0,240
2,note_on,61,30,0
2,note_on,61,0,240
2,note_on,48,33,0
2,note_on,48,0,240
2,note_on,57,29,0
2,note_on,57,0,240
2,note_on,49,33,0
2,note_on,49,0,240
2,note_on,56,29,0
2,note_on,56,0,240
2,note_on,52,33,0
2,note_on,52,0,240
2,note_on,56,30,0
2,note_on,56,0,240
2,note_on,54,33,0
2,note_on,54,0,240
2,note_on,57,30,0
2,note_on,57,0,240
2,note_on,54,34,0
2,note_on,54,0,240
2,note_on,57,30,0
2,note_on,57,0,240
2,note_on,44,35,0
2,note_on,52,35,0
2,note_on,52,0,240
2,note_on,44,0,0
2,note_on,56,31,0
2,note_on,56,0,240
2,note_on,44,35,0
2,note_on,51,35,0
2,note_on,51,0,240
2,note_on,44,0,0
2,note_on,56,33,0
2,note_on,56,0,240
2,note_on,42,39,0
2,note_on,50,39,0
2,note_on,50,0,240
2,note_on,42,0,0
2,note_on,57,29,0
2,note_on,57,0,240
2,note_on,54,35,0
2,note_on,54,0,240
2,note_on,57,31,0
2,note_on,57,0,240
2,note_on,54,36,0
2,note_on,54,0,240
2,note_on,57,33,0
2,note_on,57,0,240
2,note_on,50,31,0
2,note_on,50,0,240
2,note_on,57,27,0
2,note_on,57,0,240
2,note_on,52,33,0
2,note_on,52,0,240
2,note_on,56,28,0
2,note_on,56,0,240
2,note_on,54,33,0
2,note_on,54,0,240
2,note_on,56,28,0
2,note_on,56,0,240
2,note_on,44,33,0
2,note_on,52,33,0
2,note_on,52,0,240
2,note_on,44,0,0
2,note_on,56,28,0
2,note_on,56,0,240
2,note_on,44,33,0
2,note_on,54,33,0
2,note_on,54,0,240
2,note_on,44,0,0
2,note_on,56,29,0
2,note_on,56,0,240
2,note_on,45,32,0
2,note_on,52,32,0
2,note_on,57,38,0
2,note_on,57,0,960
2,note_on,52,0,0
2,note_on,45,0,0
2,note_on,49,35,0
2,note_on,49,0,240
2,note_on,52,35,240
2,note_on,52,0,240
2,note_on,45,32,240
2,note_on,52,32,0
2,note_on,57,38,0
2,note_on,57,0,960
2,note_on,52,0,0
2,note_on,45,0,0
2,note_on,49,35,0
2,note_on,49,0,240
2,note_on,52,35,240
2,note_on,52,0,240
2,note_on,45,35,240
2,note_on,45,0,240
2,note_on,52,28,240
2,note_on,61,33,0
2,note_on,61,0,480
2,note_on,59,35,0
2,note_on,59,0,480
2,note_on,62,32,0
2,note_on,62,0,480
2,note_on,52,0,0
2,note_on,45,35,0
2,note_on,45,0,240
2,note_on,52,28,240
2,note_on,61,33,0
2,note_on,61,0,480
2,note_on,59,35,0
2,note_on,59,0,480
2,note_on,62,32,0
2,note_on,62,0,480
2,note_on,52,0,0
2,note_on,45,38,0
2,note_on,52,38,0
2,note_on,57,45,0
2,note_on,57,0,960
2,note_on,52,0,0
2,note_on,45,0,0
2,note_on,49,37,0
2,note_on,49,0,240
2,note_on,52,37,240
2,note_on,52,0,240
2,note_on,46,37,240
2,note_on,46,0,240
2,note_on,49,37,240
2,note_on,49,0,240
2,note_on,43,42,240
2,note_on,43,0,240
2,note_on,51,37,240
2,note_on,51,0,240
2,note_on,44,32,240
2,note_on,51,32,0
2,note_on,56,38,0
2,note_on,56,0,960
2,note_on,51,0,0
2,note_on,44,0,0
2,note_on,47,35,0
2,note_on,47,0,240
2,note_on,51,35,240
2,note_on,51,0,240
2,note_on,44,32,240
2,note_on,51,32,0
2,note_on,56,38,0
2,note_on,56,0,960
2,note_on,51,0,0
2,note_on,44,0,0
2,note_on,47,35,0
2,note_on,47,0,240
2,note_on,51,35,240
2,note_on,51,0,240
2,note_on,44,36,240
2,note_on,44,0,240
2,note_on,47,40,240
2,note_on,47,0,240
2,note_on,41,44,240
2,note_on,41,0,240
2,note_on,42,48,240
2,note_on,42,0,240
2,note_on,35,47,240
2,note_on,42,47,0
2,note_on,47,56,0
2,note_on,47,0,960
2,note_on,42,0,0
2,note_on,35,0,0
2,note_on,39,35,0
2,note_on,39,0,240
2,note_on,42,35,240
2,note_on,42,0,240
2,note_on,35,47,240
2,note_on,42,47,0
2,note_on,47,56,0
2,note_on,47,0,960
2,note_on,42,0,0
2,note_on,35,0,0
2,note_on,39,35,0
2,note_on,39,0,240
2,note_on,42,35,240
2,note_on,42,0,240
2,note_on,35,35,240
2,note_on,35,0,240
2,note_on,54,28,240
2,note_on,63,33,0
2,note_on,63,0,480
2,note_on,61,35,0
2,note_on,61,0,480
2,note_on,64,32,0
2,note_on,64,0,480
2,note_on,54,0,0
2,note_on,47,35,0
2,note_on,47,0,240
2,note_on,54,28,240
2,note_on,63,33,0
2,note_on,63,0,480
2,note_on,61,35,0
2,note_on,61,0,480
2,note_on,64,32,0
2,note_on,64,0,480
2,note_on,54,0,0
2,note_on,47,45,0
2,note_on,54,45,0
2,note_on,59,53,0
2,note_on,59,0,960
2,note_on,54,0,0
2,note_on,47,0,0
2,note_on,51,42,0
2,note_on,51,0,240
2,note_on,54,42,240
2,note_on,54,0,240
2,note_on,48,50,240
2,note_on,48,0,240
2,note_on,51,41,240
2,note_on,51,0,240
2,note_on,45,50,240
2,note_on,45,0,240
2,note_on,53,40,240
2,note_on,53,0,240
2,note_on,46,32,240
2,note_on,53,32,0
2,note_on,58,38,0
2,note_on,58,0,960
2,note_on,53,0,0
2,note_on,46,0,0
2,note_on,49,35,0
2,note_on,49,0,240
2,note_on,53,35,240
2,note_on,53,0,240
2,note_on,46,32,240
2,note_on,53,32,0
2,note_on,58,38,0
2,note_on,58,0,960
2,note_on,53,0,0
2,note_on,46,0,0
2,note_on,49,35,0
2,note_on,49,0,240
2,note_on,53,35,240
2,note_on,53,0,240
2,note_on,46,39,240
2,note_on,46,0,240
2,note_on,49,47,240
2,note_on,49,0,240
2,note_on,43,53,240
2,note_on,43,0,240
2,note_on,44,58,240
2,note_on,44,0,240
2,note_on,37,58,240
2,note_on,44,58,0
2,note_on,49,70,0
2,note_on,49,0,1440
2,note_on,44,0,0
2,note_on,37,0,0
2,note_on,56,50,0
2,note_on,56,0,160
2,note_on,53,44,0
2,note_on,53,0,160
2,note_on,49,37,0
2,note_on,49,0,160
2,note_on,37,36,0
2,note_on,37,0,228
2,note_on,37,30,12
2,note_on,37,0,228
2,note_on,37,31,12
2,note_on,37,0,228
2,note_on,37,31,12
2,note_on,37,0,228
2,note_on,37,30,12
2,note_on,37,0,228
2,note_on,37,30,12
2,note_on,37,0,228
2,note_on,37,29,12
2,note_on,37,0,228
2,note_on,37,29,12
2,note_on,37,0,228
2,note_on,37,26,12
2,note_on,37,0,228
2,note_on,37,26,12
2,note_on,37,0,228
2,note_on,37,26,12
2,note_on,37,0,228
2,note_on,37,26,12
2,note_on,37,0,228
2,note_on,37,26,12
2,note_on,37,0,228
2,note_on,37,26,12
2,note_on,37,0,228
2,note_on,37,26,12
2,note_on,37,0,228
2,note_on,37,26,12
2,note_on,37,0,228
2,note_on,37,26,12
2,note_on,37,0,228
2,note_on,37,26,12
2,note_on,37,0,228
2,note_on,37,26,12
2,note_on,37,0,228
2,note_on,37,26,12
2,note_on,37,0,228
2,note_on,37,26,12
2,note_on,37,0,228
2,note_on,37,26,12
2,note_on,37,0,228
2,note_on,37,26,12
2,note_on,37,0,228
2,note_on,37,26,12
2,note_on,37,0,228
2,note_on,37,26,12
2,note_on,37,0,228
2,note_on,37,26,12
2,note_on,37,0,228
2,note_on,39,26,12
2,note_on,37,26,0
2,note_on,37,0,228
2,note_on,37,26,12
2,note_on,37,0,228
2,note_on,39,0,12
2,note_on,44,26,0
2,note_on,37,26,0
2,note_on,37,0,228
2,note_on,37,26,12
2,note_on,37,0,228
2,note_on,44,0,12
2,note_on,45,26,0
2,note_on,37,26,0
2,note_on,37,0,228
2,note_on,37,26,12
2,note_on,37,0,228
2,note_on,45,0,12
2,note_on,44,31,0
2,note_on,37,26,0
2,note_on,44,0,160
2,note_on,43,28,0
2,note_on,43,0,160
2,note_on,44,28,0
2,note_on,44,0,160
2,note_on,45,31,0
2,note_on,45,0,160
2,note_on,44,27,0
2,note_on,44,0,160
2,note_on,43,27,0
2,note_on,43,0,160
2,note_on,44,32,0
2,note_on,44,0,160
2,note_on,41,28,0
2,note_on,41,0,160
2,note_on,40,28,0
2,note_on,40,0,160
2,note_on,37,0,0
2,note_on,41,32,0
2,note_on,41,0,160
2,note_on,37,27,0
2,note_on,37,0,160
2,note_on,38,28,0
2,note_on,38,0,160
2,note_on,37,26,0
2,note_on,37,0,228
2,note_on,37,26,12
2,note_on,37,0,228
2,note_on,37,26,12
2,note_on,37,0,228
2,note_on,37,26,12
2,note_on,37,0,228
2,note_on,37,26,12
2,note_on,37,0,228
2,note_on,37,26,12
2,note_on,37,0,228
2,note_on,37,26,12
2,note_on,37,0,228
2,note_on,37,26,12
2,note_on,37,0,228
2,note_on,36,26,12
2,note_on,36,0,228
2,note_on,36,26,12
2,note_on,36,0,228
2,note_on,36,26,12
2,note_on,36,0,228
2,note_on,36,26,12
2,note_on,36,0,228
2,note_on,36,26,12
2,note_on,36,0,228
2,note_on,36,26,12
2,note_on,36,0,228
2,note_on,36,26,12
2,note_on,36,0,228
2,note_on,36,26,12
2,note_on,36,0,228
2,note_on,35,26,12
2,note_on,35,0,228
2,note_on,35,26,12
2,note_on,35,0,228
2,note_on,42,26,12
2,note_on,35,26,0
2,note_on,35,0,228
2,note_on,35,26,12
2,note_on,35,0,228
2,note_on,42,0,12
2,note_on,47,26,0
2,note_on,35,26,0
2,note_on,35,0,228
2,note_on,35,26,12
2,note_on,35,0,228
2,note_on,47,0,12
2,note_on,48,26,0
2,note_on,35,26,0
2,note_on,35,0,228
2,note_on,35,26,12
2,note_on,35,0,228
2,note_on,48,0,12
2,note_on,47,31,0
2,note_on,40,26,0
2,note_on,47,0,160
2,note_on,46,28,0
2,note_on,46,0,160
2,note_on,47,28,0
2,note_on,47,0,160
2,note_on,48,31,0
2,note_on,48,0,160
2,note_on,47,27,0
2,note_on,47,0,160
2,note_on,46,27,0
2,note_on,46,0,160
2,note_on,47,32,0
2,note_on,47,0,160
2,note_on,44,28,0
2,note_on,44,0,160
2,note_on,43,28,0
2,note_on,43,0,160
2,note_on,40,0,0
2,note_on,44,32,0
2,note_on,44,0,160
2,note_on,40,27,0
2,note_on,40,0,160
2,note_on,41,28,0
2,note_on,41,0,160
2,note_on,40,38,0
2,note_on,40,0,960
2,note_on,44,37,0
2,note_on,44,0,240
2,note_on,47,37,240
2,note_on,47,0,240
2,note_on,40,38,240
2,note_on,40,0,960
2,note_on,45,37,0
2,note_on,45,0,240
2,note_on,48,37,240
2,note_on,48,0,240
2,note_on,50,41,240
2,note_on,50,0,240
2,note_on,48,42,0
2,note_on,48,0,228
2,note_on,48,44,12
2,note_on,48,0,240
2,note_on,47,46,0
2,note_on,47,0,228
2,note_on,47,47,12
2,note_on,47,0,240
2,note_on,45,49,0
2,note_on,45,0,228
2,note_on,45,51,12
2,note_on,45,0,240
2,note_on,43,53,0
2,note_on,43,0,228
2,note_on,43,53,12
2,note_on,43,0,240
2,note_on,41,52,0
2,note_on,41,0,228
2,note_on,41,50,12
2,note_on,41,0,240
2,note_on,40,48,0
2,note_on,40,0,228
2,note_on,40,47,12
2,note_on,40,0,240
2,note_on,38,45,0
2,note_on,38,0,228
2,note_on,38,44,12
2,note_on,38,0,240
2,note_on,36,42,0
2,note_on,36,0,228
2,note_on,36,44,12
2,note_on,48,44,0
2,note_on,48,0,960
2,note_on,36,0,0
2,note_on,52,44,0
2,note_on,52,0,240
2,note_on,55,45,240
2,note_on,55,0,240
2,note_on,48,49,240
2,note_on,48,0,960
2,note_on,53,50,0
2,note_on,53,0,240
2,note_on,56,50,240
2,note_on,56,0,240
2,note_on,58,59,240
2,note_on,58,0,240
2,note_on,56,60,0
2,note_on,56,0,228
2,note_on,56,62,12
2,note_on,56,0,240
2,note_on,55,64,0
2,note_on,55,0,228
2,note_on,55,68,12
2,note_on,55,0,240
2,note_on,53,70,0
2,note_on,53,0,228
2,note_on,53,72,12
2,note_on,53,0,240
2,note_on,51,75,0
2,note_on,51,0,228
2,note_on,51,75,12
2,note_on,51,0,240
2,note_on,49,73,0
2,note_on,49,0,228
2,note_on,49,71,12
2,note_on,49,0,240
2,note_on,47,69,0
2,note_on,47,0,228
2,note_on,47,68,12
2,note_on,47,0,240
2,note_on,46,63,0
2,note_on,46,0,228
2,note_on,44,62,12
2,note_on,44,0,240
2,note_on,59,60,0
2,note_on,59,0,228
2,note_on,61,72,12
2,note_on,61,0,240
2,note_on,59,63,0
2,note_on,59,0,228
2,note_on,59,70,12
2,note_on,59,0,240
2,note_on,58,63,0
2,note_on,58,0,228
2,note_on,58,70,12
2,note_on,58,0,240
2,note_on,56,64,0
2,note_on,56,0,228
2,note_on,56,70,12
2,note_on,56,0,240
2,note_on,54,64,0
2,note_on,54,0,228
2,note_on,54,72,12
2,note_on,54,0,240
2,note_on,52,64,0
2,note_on,52,0,228
2,note_on,52,73,12
2,note_on,52,0,240
2,note_on,50,67,0
2,note_on,50,0,228
2,note_on,50,73,12
2,note_on,50,0,240
2,note_on,49,67,0
2,note_on,49,0,240
2,note_on,47,72,0
2,note_on,47,0,240
2,note_on,62,66,0
2,note_on,50,55,0
2,note_on,50,0,240
2,note_on,62,0,0
2,note_on,64,72,0
2,note_on,52,72,0
2,note_on,52,0,240
2,note_on,64,0,0
2,note_on,62,63,0
2,note_on,50,53,0
2,note_on,50,0,228
2,note_on,62,0,0
2,note_on,62,72,12
2,note_on,50,61,0
2,note_on,50,0,240
2,note_on,62,0,0
2,note_on,61,64,0
2,note_on,49,53,0
2,note_on,49,0,228
2,note_on,61,0,0
2,note_on,61,73,12
2,note_on,49,61,0
2,note_on,49,0,240
2,note_on,61,0,0
2,note_on,59,68,0
2,note_on,47,57,0
2,note_on,47,0,228
2,note_on,59,0,0
2,note_on,59,75,12
2,note_on,47,63,0
2,note_on,47,0,240
2,note_on,59,0,0
2,note_on,57,69,0
2,note_on,45,58,0
2,note_on,45,0,228
2,note_on,57,0,0
2,note_on,57,79,12
2,note_on,45,67,0
2,note_on,45,0,240
2,note_on,57,0,0
2,note_on,55,69,0
2,note_on,43,58,0
2,note_on,43,0,228
2,note_on,55,0,0
2,note_on,55,79,12
2,note_on,43,67,0
2,note_on,43,0,240
2,note_on,55,0,0
2,note_on,53,70,0
2,note_on,41,60,0
2,note_on,41,0,228
2,note_on,53,0,0
2,note_on,53,80,12
2,note_on,41,67,0
2,note_on,41,0,240
2,note_on,53,0,0
2,note_on,52,74,0
2,note_on,40,62,0
2,note_on,40,0,228
2,note_on,52,0,0
2,note_on,52,82,12
2,note_on,40,69,0
2,note_on,40,0,240
2,note_on,52,0,0
2,note_on,50,75,0
2,note_on,38,63,0
2,note_on,38,0,228
2,note_on,50,0,0
2,note_on,38,86,12
2,note_on,50,75,240
2,note_on,45,63,0
2,note_on,45,0,240
2,note_on,50,0,0
2,note_on,38,0,0
2,note_on,38,84,0
2,note_on,52,75,240
2,note_on,45,63,0
2,note_on,45,0,240
2,note_on,52,0,0
2,note_on,38,0,0
2,note_on,38,84,0
2,note_on,50,77,240
2,note_on,45,64,0
2,note_on,45,0,240
2,note_on,50,0,0
2,note_on,38,0,0
2,note_on,38,84,0
2,note_on,52,77,240
2,note_on,45,64,0
2,note_on,45,0,240
2,note_on,52,0,0
2,note_on,38,0,0
2,note_on,38,86,0
2,note_on,50,77,240
2,note_on,45,64,0
2,note_on,45,0,240
2,note_on,50,0,0
2,note_on,38,0,0
2,note_on,38,85,0
2,note_on,52,78,240
2,note_on,45,66,0
2,note_on,45,0,240
2,note_on,52,0,0
2,note_on,38,0,0
2,note_on,38,88,0
2,note_on,50,81,240
2,note_on,45,68,0
2,note_on,45,0,240
2,note_on,50,0,0
2,note_on,38,0,0
2,note_on,38,89,0
2,note_on,52,82,240
2,note_on,45,69,0
2,note_on,45,0,240
2,note_on,52,0,0
2,note_on,38,0,0
2,note_on,38,77,0
2,note_on,45,77,0
2,note_on,50,91,0
2,note_on,50,0,240
2,note_on,45,0,0
2,note_on,38,0,0
2,note_on,69,29,0
2,note_on,65,24,0
2,note_on,62,20,0
2,note_on,62,0,228
2,note_on,65,0,0
2,note_on,69,0,0
2,note_on,69,30,12
2,note_on,65,25,0
2,note_on,62,21,0
2,note_on,62,0,228
2,note_on,65,0,0
2,note_on,69,0,0
2,note_on,69,30,12
2,note_on,65,25,0
2,note_on,62,21,0
2,note_on,62,0,228
2,note_on,65,0,0
2,note_on,69,0,0
2,note_on,69,29,12
2,note_on,65,24,0
2,note_on,62,20,0
2,note_on,62,0,228
2,note_on,65,0,0
2,note_on,69,0,0
2,note_on,69,29,12
2,note_on,65,24,0
2,note_on,62,20,0
2,note_on,62,0,228
2,note_on,65,0,0
2,note_on,69,0,0
2,note_on,69,27,12
2,note_on,65,23,0
2,note_on,62,19,0
2,note_on,62,0,228
2,note_on,65,0,0
2,note_on,69,0,0
2,note_on,69,27,12
2,note_on,65,23,0
2,note_on,62,19,0
2,note_on,62,0,228
2,note_on,65,0,0
2,note_on,69,0,0
2,note_on,69,28,12
2,note_on,65,24,0
2,note_on,62,20,0
2,note_on,62,0,228
2,note_on,65,0,0
2,note_on,69,0,0
2,note_on,69,25,12
2,note_on,65,21,0
2,note_on,62,17,0
2,note_on,62,0,228
2,note_on,65,0,0
2,note_on,69,0,0
2,note_on,69,25,12
2,note_on,65,21,0
2,note_on,62,17,0
2,note_on,62,0,228
2,note_on,65,0,0
2,note_on,69,0,0
2,note_on,69,25,12
2,note_on,65,21,0
2,note_on,62,17,0
2,note_on,62,0,228
2,note_on,65,0,0
2,note_on,69,0,0
2,note_on,69,25,12
2,note_on,65,21,0
2,note_on,62,17,0
2,note_on,62,0,228
2,note_on,65,0,0
2,note_on,69,0,0
2,note_on,69,25,12
2,note_on,65,21,0
2,note_on,62,17,0
2,note_on,62,0,228
2,note_on,65,0,0
2,note_on,69,0,0
2,note_on,69,25,12
2,note_on,65,21,0
2,note_on,62,17,0
2,note_on,62,0,228
2,note_on,65,0,0
2,note_on,69,0,0
2,note_on,69,25,12
2,note_on,65,21,0
2,note_on,62,17,0
2,note_on,69,0,224
2,note_on,62,0,4
2,note_on,65,0,0
2,note_on,61,20,12
2,note_on,65,24,0
2,note_on,65,0,228
2,note_on,61,0,0
2,note_on,61,17,12
2,note_on,65,21,0
2,note_on,65,0,228
2,note_on,61,0,0
2,note_on,61,17,12
2,note_on,65,21,0
2,note_on,65,0,228
2,note_on,61,0,0
2,note_on,61,17,12
2,note_on,65,21,0
2,note_on,65,0,228
2,note_on,61,0,0
2,note_on,61,17,12
2,note_on,65,21,0
2,note_on,69,25,0
2,note_on,69,0,228
2,note_on,65,0,0
2,note_on,61,0,0
2,note_on,61,17,12
2,note_on,65,21,0
2,note_on,69,25,0
2,note_on,69,0,228
2,note_on,65,0,0
2,note_on,61,0,0
2,note_on,61,17,12
2,note_on,65,21,0
2,note_on,69,25,0
2,note_on,69,0,228
2,note_on,65,0,0
2,note_on,61,0,0
2,note_on,61,17,12
2,note_on,65,21,0
2,note_on,69,25,0
2,note_on,69,0,228
2,note_on,65,0,0
2,note_on,61,0,0
2,note_on,65,24,12
2,note_on,62,20,0
2,note_on,69,28,0
2,note_on,69,0,228
2,note_on,62,0,0
2,note_on,65,0,0
2,note_on,65,21,12
2,note_on,62,17,0
2,note_on,69,25,0
2,note_on,69,0,228
2,note_on,62,0,0
2,note_on,65,0,0
2,note_on,65,21,12
2,note_on,62,17,0
2,note_on,69,25,0
2,note_on,69,0,228
2,note_on,62,0,0
2,note_on,65,0,0
2,note_on,62,17,12
2,note_on,69,25,0
2,note_on,65,21,0
2,note_on,65,0,228
2,note_on,69,0,0
2,note_on,62,0,0
2,note_on,69,25,12
2,note_on,65,21,0
2,note_on,62,17,0
2,note_on,62,0,228
2,note_on,65,0,0
2,note_on,69,0,0
2,note_on,69,25,12
2,note_on,65,21,0
2,note_on,62,17,0
2,note_on,62,0,228
2,note_on,65,0,0
2,note_on,69,0,0
2,note_on,69,26,12
2,note_on,65,21,0
2,note_on,61,17,0
2,note_on,61,0,228
2,note_on,65,0,0
2,note_on,69,0,0
2,note_on,69,27,12
2,note_on,65,22,0
2,note_on,61,18,0
2,note_on,61,0,228
2,note_on,65,0,0
2,note_on,69,0,0
2,note_on,60,23,12
2,note_on,65,28,0
2,note_on,69,34,0
2,note_on,69,0,228
2,note_on,65,0,0
2,note_on,60,0,0
2,note_on,60,23,12
2,note_on,65,28,0
2,note_on,69,34,0
2,note_on,69,0,228
2,note_on,65,0,0
2,note_on,60,0,0
2,note_on,60,22,12
2,note_on,65,27,0
2,note_on,69,33,0
2,note_on,69,0,228
2,note_on,65,0,0
2,note_on,60,0,0
2,note_on,60,22,12
2,note_on,65,27,0
2,note_on,69,33,0
2,note_on,69,0,228
2,note_on,65,0,0
2,note_on,60,0,0
2,note_on,60,22,12
2,note_on,65,26,0
2,note_on,69,31,0
2,note_on,69,0,228
2,note_on,65,0,0
2,note_on,60,0,0
2,note_on,60,22,12
2,note_on,65,26,0
2,note_on,69,31,0
2,note_on,69,0,228
2,note_on,65,0,0
2,note_on,60,0,0
2,note_on,61,21,12
2,note_on,65,25,0
2,note_on,69,30,0
2,note_on,69,0,228
2,note_on,65,0,0
2,note_on,61,0,0
2,note_on,61,21,12
2,note_on,65,25,0
2,note_on,69,30,0
2,note_on,69,0,228
2,note_on,65,0,0
2,note_on,61,0,0
2,note_on,62,26,12
2,note_on,65,31,0
2,note_on,69,31,0
2,note_on,69,0,228
2,note_on,65,0,0
2,note_on,62,0,0
2,note_on,62,26,12
2,note_on,65,31,0
2,note_on,69,31,0
2,note_on,69,0,228
2,note_on,65,0,0
2,note_on,62,0,0
2,note_on,65,26,12
2,note_on,69,31,0
2,note_on,69,0,228
2,note_on,65,0,0
2,note_on,65,26,12
2,note_on,69,31,0
2,note_on,69,0,228
2,note_on,65,0,0
2,note_on,69,31,12
2,note_on,69,0,228
2,note_on,69,31,12
2,note_on,69,0,228
2,note_on,60,26,12
2,note_on,64,31,0
2,note_on,70,31,0
2,note_on,70,0,228
2,note_on,64,0,0
2,note_on,60,0,0
2,note_on,60,26,12
2,note_on,64,31,0
2,note_on,70,31,0
2,note_on,70,0,228
2,note_on,64,0,0
2,note_on,60,0,0
2,note_on,50,56,1932
2,note_on,50,0,960
2,note_on,53,48,0
2,note_on,53,0,240
2,note_on,57,48,240
2,note_on,57,0,240
2,note_on,45,56,240
2,note_on,45,0,960
2,note_on,53,47,0
2,note_on,53,0,240
2,note_on,57,47,240
2,note_on,57,0,240
2,note_on,50,56,240
2,note_on,50,0,960
2,note_on,53,48,0
2,note_on,53,0,240
2,note_on,57,48,240
2,note_on,57,0,240
2,note_on,60,52,240
2,note_on,60,0,240
2,note_on,57,45,0
2,note_on,57,0,228
2,note_on,57,48,12
2,note_on,57,0,240
2,note_on,55,44,0
2,note_on,55,0,228
2,note_on,55,46,12
2,note_on,55,0,240
2,note_on,53,43,0
2,note_on,53,0,228
2,note_on,53,44,12
2,note_on,53,0,240
2,note_on,52,41,0
2,note_on,52,0,228
2,note_on,52,44,12
2,note_on,52,0,240
2,note_on,53,40,0
2,note_on,53,0,228
2,note_on,53,44,12
2,note_on,53,0,240
2,note_on,50,41,0
2,note_on,50,0,228
2,note_on,50,44,12
2,note_on,50,0,240
2,note_on,48,40,0
2,note_on,48,0,228
2,note_on,50,44,12
2,note_on,50,0,240
2,note_on,48,40,0
2,note_on,48,0,228
2,note_on,50,44,12
2,note_on,50,0,480
2,note_on,40,27,1380
2,note_on,40,0,60
2,note_on,38,27,0
2,note_on,40,23,60
2,note_on,38,0,30
2,note_on,38,24,30
2,note_on,40,0,30
2,note_on,40,22,30
2,note_on,38,0,30
2,note_on,38,24,30
2,note_on,40,0,30
2,note_on,40,22,30
2,note_on,38,0,30
2,note_on,38,25,30
2,note_on,40,0,30
2,note_on,40,24,30
2,note_on,38,0,30
2,note_on,38,26,30
2,note_on,40,0,30
2,note_on,40,23,30
2,note_on,38,0,30
2,note_on,38,26,30
2,note_on,40,0,30
2,note_on,40,22,30
2,note_on,38,0,30
2,note_on,38,25,30
2,note_on,40,0,30
2,note_on,40,23,30
2,note_on,38,0,30
2,note_on,38,24,30
2,note_on,40,0,30
2,note_on,40,22,30
2,note_on,38,0,30
2,note_on,38,26,30
2,note_on,40,0,30
2,note_on,40,23,30
2,note_on,38,0,30
2,note_on,38,25,30
2,note_on,40,0,30
2,note_on,40,23,30
2,note_on,38,0,30
2,note_on,38,25,30
2,note_on,40,0,30
2,note_on,40,22,30
2,note_on,38,0,30
2,note_on,38,25,30
2,note_on,40,0,30
2,note_on,40,22,30
2,note_on,38,0,30
2,note_on,38,27,30
2,note_on,40,0,30
2,note_on,40,23,30
2,note_on,38,0,30
2,note_on,38,26,30
2,note_on,40,0,30
2,note_on,40,22,30
2,note_on,38,0,30
2,note_on,37,28,30
2,note_on,40,0,30
2,note_on,38,31,50
2,note_on,37,0,20
2,note_on,40,32,60
2,note_on,38,0,20
2,note_on,38,34,60
2,note_on,40,0,20
2,note_on,38,0,100
2,note_on,69,27,840
2,note_on,65,23,0
2,note_on,62,19,0
2,note_on,62,0,228
2,note_on,65,0,0
2,note_on,69,0,0
2,note_on,69,27,12
2,note_on,65,23,0
2,note_on,62,19,0
2,note_on,62,0,228
2,note_on,65,0,0
2,note_on,69,0,0
2,note_on,69,24,12
2,note_on,65,20,0
2,note_on,62,17,0
2,note_on,62,0,228
2,note_on,65,0,0
2,note_on,69,0,0
2,note_on,69,24,12
2,note_on,65,20,0
2,note_on,62,17,0
2,note_on,62,0,228
2,note_on,65,0,0
2,note_on,69,0,0
2,note_on,69,24,12
2,note_on,65,20,0
2,note_on,62,17,0
2,note_on,62,0,228
2,note_on,65,0,0
2,note_on,69,0,0
2,note_on,69,24,12
2,note_on,65,20,0
2,note_on,62,17,0
2,note_on,62,0,228
2,note_on,65,0,0
2,note_on,69,0,0
2,note_on,69,24,12
2,note_on,65,20,0
2,note_on,62,17,0
2,note_on,62,0,228
2,note_on,65,0,0
2,note_on,69,0,0
2,note_on,69,24,12
2,note_on,65,20,0
2,note_on,62,17,0
2,note_on,62,0,228
2,note_on,65,0,0
2,note_on,69,0,0
2,note_on,69,24,12
2,note_on,65,20,0
2,note_on,62,17,0
2,note_on,62,0,228
2,note_on,65,0,0
2,note_on,69,0,0
2,note_on,69,24,12
2,note_on,65,20,0
2,note_on,62,17,0
2,note_on,62,0,228
2,note_on,65,0,0
2,note_on,69,0,0
2,note_on,69,24,12
2,note_on,65,20,0
2,note_on,62,17,0
2,note_on,62,0,228
2,note_on,65,0,0
2,note_on,69,0,0
2,note_on,69,24,12
2,note_on,65,20,0
2,note_on,62,17,0
2,note_on,62,0,228
2,note_on,65,0,0
2,note_on,69,0,0
2,note_on,69,24,12
2,note_on,65,20,0
2,note_on,62,17,0
2,note_on,62,0,228
2,note_on,65,0,0
2,note_on,69,0,0
2,note_on,69,24,12
2,note_on,65,20,0
2,note_on,62,17,0
2,note_on,62,0,228
2,note_on,65,0,0
2,note_on,69,0,0
2,note_on,69,25,12
2,note_on,65,21,0
2,note_on,61,17,0
2,note_on,61,0,228
2,note_on,65,0,0
2,note_on,69,0,0
2,note_on,69,25,12
2,note_on,65,21,0
2,note_on,61,17,0
2,note_on,61,0,228
2,note_on,65,0,0
2,note_on,69,0,0
2,note_on,69,25,12
2,note_on,65,21,0
2,note_on,60,17,0
2,note_on,60,0,228
2,note_on,65,0,0
2,note_on,69,0,0
2,note_on,69,25,12
2,note_on,65,21,0
2,note_on,60,17,0
2,note_on,60,0,228
2,note_on,65,0,0
2,note_on,69,0,0
2,note_on,69,28,12
2,note_on,65,24,0
2,note_on,59,20,0
2,note_on,59,0,228
2,note_on,65,0,0
2,note_on,69,0,0
2,note_on,69,28,12
2,note_on,65,24,0
2,note_on,59,20,0
2,note_on,59,0,228
2,note_on,65,0,0
2,note_on,69,0,0
2,note_on,58,20,12
2,note_on,65,24,0
2,note_on,67,28,0
2,note_on,67,0,228
2,note_on,65,0,0
2,note_on,58,0,0
2,note_on,58,20,12
2,note_on,65,24,0
2,note_on,67,28,0
2,note_on,67,0,228
2,note_on,65,0,0
2,note_on,58,0,0
2,note_on,58,20,12
2,note_on,62,24,0
2,note_on,67,28,0
2,note_on,67,0,228
2,note_on,62,0,0
2,note_on,58,0,0
2,note_on,58,20,12
2,note_on,62,24,0
2,note_on,67,28,0
2,note_on,67,0,228
2,note_on,62,0,0
2,note_on,58,0,0
2,note_on,58,20,12
2,note_on,64,24,0
2,note_on,67,28,0
2,note_on,67,0,228
2,note_on,64,0,0
2,note_on,58,0,0
2,note_on,58,20,12
2,note_on,64,24,0
2,note_on,67,28,0
2,note_on,67,0,228
2,note_on,64,0,0
2,note_on,58,0,0
2,note_on,57,20,12
2,note_on,61,24,0
2,note_on,67,28,0
2,note_on,67,0,228
2,note_on,61,0,0
2,note_on,57,0,0
2,note_on,57,20,12
2,note_on,61,24,0
2,note_on,67,28,0
2,note_on,67,0,228
2,note_on,61,0,0
2,note_on,57,0,0
2,note_on,62,24,12
2,note_on,65,28,0
2,note_on,65,0,228
2,note_on,62,0,0
2,note_on,62,24,12
2,note_on,65,28,0
2,note_on,65,0,228
2,note_on,62,0,0
2,note_on,62,24,12
2,note_on,65,28,0
2,note_on,65,0,228
2,note_on,62,0,0
2,note_on,62,24,12
2,note_on,65,28,0
2,note_on,65,0,228
2,note_on,62,0,0
2,note_on,40,27,912
2,note_on,40,0,60
2,note_on,38,27,0
2,note_on,40,23,60
2,note_on,38,0,30
2,note_on,38,24,30
2,note_on,40,0,30
2,note_on,40,22,30
2,note_on,38,0,30
2,note_on,38,24,30
2,note_on,40,0,30
2,note_on,40,22,30
2,note_on,38,0,30
2,note_on,38,25,30
2,note_on,40,0,30
2,note_on,40,24,30
2,note_on,38,0,30
2,note_on,38,26,30
2,note_on,40,0,30
2,note_on,40,23,30
2,note_on,38,0,30
2,note_on,38,26,30
2,note_on,40,0,30
2,note_on,40,22,30
2,note_on,38,0,30
2,note_on,38,25,30
2,note_on,40,0,30
2,note_on,40,23,30
2,note_on,38,0,30
2,note_on,38,24,30
2,note_on,40,0,30
2,note_on,40,22,30
2,note_on,38,0,30
2,note_on,38,26,30
2,note_on,40,0,30
2,note_on,40,23,30
2,note_on,38,0,30
2,note_on,38,25,30
2,note_on,40,0,30
2,note_on,40,23,30
2,note_on,38,0,30
2,note_on,38,25,30
2,note_on,40,0,30
2,note_on,40,22,30
2,note_on,38,0,30
2,note_on,38,25,30
2,note_on,40,0,30
2,note_on,40,22,30
2,note_on,38,0,30
2,note_on,38,27,30
2,note_on,40,0,30
2,note_on,40,23,30
2,note_on,38,0,30
2,note_on,38,26,30
2,note_on,40,0,30
2,note_on,40,22,30
2,note_on,38,0,30
2,note_on,38,26,30
2,note_on,40,0,30
2,note_on,40,22,30
2,note_on,38,0,30
2,note_on,36,28,30
2,note_on,40,0,30
2,note_on,36,0,90
2,note_on,34,34,0
2,note_on,34,0,120
2,note_on,70,24,840
2,note_on,65,20,0
2,note_on,62,17,0
2,note_on,62,0,228
2,note_on,65,0,0
2,note_on,70,0,0
2,note_on,70,24,12
2,note_on,65,20,0
2,note_on,62,17,0
2,note_on,62,0,228
2,note_on,65,0,0
2,note_on,70,0,0
2,note_on,70,21,12
2,note_on,65,18,0
2,note_on,62,15,0
2,note_on,62,0,228
2,note_on,65,0,0
2,note_on,70,0,0
2,note_on,70,21,12
2,note_on,65,18,0
2,note_on,62,15,0
2,note_on,62,0,228
2,note_on,65,0,0
2,note_on,70,0,0
2,note_on,70,21,12
2,note_on,65,18,0
2,note_on,62,15,0
2,note_on,62,0,228
2,note_on,65,0,0
2,note_on,70,0,0
2,note_on,70,21,12
2,note_on,65,18,0
2,note_on,62,15,0
2,note_on,62,0,228
2,note_on,65,0,0
2,note_on,70,0,0
2,note_on,72,21,12
2,note_on,65,18,0
2,note_on,62,15,0
2,note_on,62,0,228
2,note_on,65,0,0
2,note_on,72,0,0
2,note_on,72,21,12
2,note_on,65,18,0
2,note_on,62,15,0
2,note_on,62,0,228
2,note_on,65,0,0
2,note_on,72,0,0
2,note_on,74,21,12
2,note_on,65,18,0
2,note_on,62,15,0
2,note_on,62,0,228
2,note_on,65,0,0
2,note_on,74,0,0
2,note_on,74,21,12
2,note_on,65,18,0
2,note_on,62,15,0
2,note_on,62,0,228
2,note_on,65,0,0
2,note_on,74,0,0
2,note_on,69,21,12
2,note_on,65,18,0
2,note_on,62,15,0
2,note_on,62,0,228
2,note_on,65,0,0
2,note_on,69,0,0
2,note_on,69,21,12
2,note_on,65,18,0
2,note_on,62,15,0
2,note_on,62,0,228
2,note_on,65,0,0
2,note_on,69,0,0
2,note_on,70,21,12
2,note_on,65,18,0
2,note_on,62,15,0
2,note_on,62,0,228
2,note_on,65,0,0
2,note_on,70,0,0
2,note_on,70,21,12
2,note_on,65,18,0
2,note_on,62,15,0
2,note_on,62,0,228
2,note_on,65,0,0
2,note_on,70,0,0
2,note_on,70,22,12
2,note_on,65,18,0
2,note_on,62,15,0
2,note_on,62,0,228
2,note_on,65,0,0
2,note_on,70,0,0
2,note_on,70,22,12
2,note_on,65,18,0
2,note_on,62,15,0
2,note_on,62,0,228
2,note_on,65,0,0
2,note_on,70,0,0
2,note_on,70,22,12
2,note_on,65,18,0
2,note_on,62,15,0
2,note_on,62,0,228
2,note_on,65,0,0
2,note_on,70,0,0
2,note_on,70,22,12
2,note_on,65,18,0
2,note_on,62,15,0
2,note_on,62,0,228
2,note_on,65,0,0
2,note_on,70,0,0
2,note_on,70,22,12
2,note_on,65,18,0
2,note_on,62,15,0
2,note_on,62,0,228
2,note_on,65,0,0
2,note_on,70,0,0
2,note_on,70,22,12
2,note_on,65,18,0
2,note_on,62,15,0
2,note_on,62,0,228
2,note_on,65,0,0
2,note_on,70,0,0
2,note_on,63,15,12
2,note_on,66,18,0
2,note_on,70,22,0
2,note_on,70,0,228
2,note_on,66,0,0
2,note_on,63,0,0
2,note_on,63,15,12
2,note_on,66,18,0
2,note_on,70,22,0
2,note_on,70,0,228
2,note_on,66,0,0
2,note_on,63,0,0
2,note_on,63,15,12
2,note_on,66,18,0
2,note_on,70,22,0
2,note_on,70,0,228
2,note_on,66,0,0
2,note_on,63,0,0
2,note_on,63,15,12
2,note_on,66,18,0
2,note_on,70,22,0
2,note_on,70,0,228
2,note_on,66,0,0
2,note_on,63,0,0
2,note_on,63,15,12
2,note_on,66,18,0
2,note_on,70,22,0
2,note_on,70,0,228
2,note_on,66,0,0
2,note_on,63,0,0
2,note_on,63,15,12
2,note_on,66,18,0
2,note_on,70,22,0
2,note_on,70,0,228
2,note_on,66,0,0
2,note_on,63,0,0
2,note_on,63,15,12
2,note_on,66,18,0
2,note_on,70,22,0
2,note_on,70,0,228
2,note_on,66,0,0
2,note_on,63,0,0
2,note_on,63,15,12
2,note_on,66,18,0
2,note_on,70,22,0
2,note_on,70,0,228
2,note_on,66,0,0
2,note_on,63,0,0
2,note_on,65,18,12
2,note_on,62,15,0
2,note_on,70,22,0
2,note_on,70,0,228
2,note_on,62,0,0
2,note_on,65,0,0
2,note_on,65,18,12
2,note_on,62,15,0
2,note_on,70,22,0
2,note_on,70,0,228
2,note_on,62,0,0
2,note_on,65,0,0
2,note_on,65,18,12
2,note_on,62,15,0
2,note_on,70,22,0
2,note_on,70,0,228
2,note_on,62,0,0
2,note_on,65,0,0
2,note_on,65,18,12
2,note_on,62,15,0
2,note_on,70,22,0
2,note_on,70,0,228
2,note_on,62,0,0
2,note_on,65,0,0
2,note_on,36,27,912
2,note_on,36,0,60
2,note_on,34,27,0
2,note_on,36,23,60
2,note_on,34,0,30
2,note_on,34,24,30
2,note_on,36,0,30
2,note_on,36,22,30
2,note_on,34,0,30
2,note_on,34,24,30
2,note_on,36,0,30
2,note_on,36,22,30
2,note_on,34,0,30
2,note_on,34,26,30
2,note_on,36,0,30
2,note_on,36,25,30
2,note_on,34,0,30
2,note_on,34,27,30
2,note_on,36,0,30
2,note_on,36,24,30
2,note_on,34,0,30
2,note_on,34,28,30
2,note_on,36,0,30
2,note_on,36,23,30
2,note_on,34,0,30
2,note_on,34,27,30
2,note_on,36,0,30
2,note_on,36,25,30
2,note_on,34,0,30
2,note_on,34,26,30
2,note_on,36,0,30
2,note_on,36,24,30
2,note_on,34,0,30
2,note_on,34,29,30
2,note_on,36,0,30
2,note_on,36,26,30
2,note_on,34,0,30
2,note_on,34,28,30
2,note_on,36,0,30
2,note_on,36,26,30
2,note_on,34,0,30
2,note_on,34,29,30
2,note_on,36,0,30
2,note_on,36,25,30
2,note_on,34,0,30
2,note_on,34,29,30
2,note_on,36,0,30
2,note_on,36,26,30
2,note_on,34,0,30
2,note_on,34,32,30
2,note_on,36,0,30
2,note_on,36,27,30
2,note_on,34,0,30
2,note_on,34,31,30
2,note_on,36,0,30
2,note_on,36,26,30
2,note_on,34,0,30
2,note_on,33,34,30
2,note_on,36,0,30
2,note_on,34,38,50
2,note_on,33,0,20
2,note_on,36,40,60
2,note_on,34,0,20
2,note_on,38,42,60
2,note_on,36,0,20
2,note_on,38,0,100
2,note_on,69,27,840
2,note_on,65,23,0
2,note_on,62,19,0
2,note_on,62,0,228
2,note_on,65,0,0
2,note_on,69,0,0
2,note_on,69,27,12
2,note_on,65,23,0
2,note_on,62,19,0
2,note_on,62,0,228
2,note_on,65,0,0
2,note_on,69,0,0
2,note_on,69,24,12
2,note_on,65,20,0
2,note_on,62,17,0
2,note_on,62,0,228
2,note_on,65,0,0
2,note_on,69,0,0
2,note_on,69,24,12
2,note_on,65,20,0
2,note_on,62,17,0
2,note_on,62,0,228
2,note_on,65,0,0
2,note_on,69,0,0
2,note_on,69,24,12
2,note_on,65,20,0
2,note_on,62,17,0
2,note_on,62,0,228
2,note_on,65,0,0
2,note_on,69,0,0
2,note_on,69,24,12
2,note_on,65,20,0
2,note_on,62,17,0
2,note_on,62,0,228
2,note_on,65,0,0
2,note_on,69,0,0
2,note_on,69,24,12
2,note_on,65,20,0
2,note_on,62,17,0
2,note_on,62,0,228
2,note_on,65,0,0
2,note_on,69,0,0
2,note_on,69,24,12
2,note_on,65,20,0
2,note_on,62,17,0
2,note_on,62,0,228
2,note_on,65,0,0
2,note_on,69,0,0
2,note_on,69,24,12
2,note_on,65,20,0
2,note_on,62,17,0
2,note_on,62,0,228
2,note_on,65,0,0
2,note_on,69,0,0
2,note_on,69,24,12
2,note_on,65,20,0
2,note_on,62,17,0
2,note_on,62,0,228
2,note_on,65,0,0
2,note_on,69,0,0
2,note_on,69,24,12
2,note_on,65,20,0
2,note_on,62,17,0
2,note_on,62,0,228
2,note_on,65,0,0
2,note_on,69,0,0
2,note_on,69,24,12
2,note_on,65,20,0
2,note_on,62,17,0
2,note_on,62,0,228
2,note_on,65,0,0
2,note_on,69,0,0
2,note_on,69,24,12
2,note_on,65,20,0
2,note_on,62,17,0
2,note_on,62,0,228
2,note_on,65,0,0
2,note_on,69,0,0
2,note_on,69,24,12
2,note_on,65,20,0
2,note_on,62,17,0
2,note_on,62,0,228
2,note_on,65,0,0
2,note_on,69,0,0
2,note_on,69,25,12
2,note_on,65,21,0
2,note_on,61,17,0
2,note_on,61,0,228
2,note_on,65,0,0
2,note_on,69,0,0
2,note_on,69,25,12
2,note_on,65,21,0
2,note_on,61,17,0
2,note_on,61,0,228
2,note_on,65,0,0
2,note_on,69,0,0
2,note_on,69,25,12
2,note_on,65,21,0
2,note_on,60,17,0
2,note_on,60,0,228
2,note_on,65,0,0
2,note_on,69,0,0
2,note_on,69,25,12
2,note_on,65,21,0
2,note_on,60,17,0
2,note_on,60,0,228
2,note_on,65,0,0
2,note_on,69,0,0
2,note_on,69,25,12
2,note_on,65,21,0
2,note_on,59,17,0
2,note_on,59,0,228
2,note_on,65,0,0
2,note_on,69,0,0
2,note_on,69,25,12
2,note_on,65,21,0
2,note_on,59,17,0
2,note_on,59,0,228
2,note_on,65,0,0
2,note_on,69,0,0
2,note_on,58,17,12
2,note_on,65,21,0
2,note_on,67,25,0
2,note_on,67,0,228
2,note_on,65,0,0
2,note_on,58,0,0
2,note_on,58,17,12
2,note_on,65,21,0
2,note_on,67,25,0
2,note_on,67,0,228
2,note_on,65,0,0
2,note_on,58,0,0
2,note_on,58,17,12
2,note_on,62,21,0
2,note_on,67,25,0
2,note_on,67,0,228
2,note_on,62,0,0
2,note_on,58,0,0
2,note_on,58,17,12
2,note_on,62,21,0
2,note_on,67,25,0
2,note_on,67,0,228
2,note_on,62,0,0
2,note_on,58,0,0
2,note_on,58,17,12
2,note_on,64,21,0
2,note_on,67,25,0
2,note_on,67,0,228
2,note_on,64,0,0
2,note_on,58,0,0
2,note_on,58,17,12
2,note_on,64,21,0
2,note_on,67,25,0
2,note_on,67,0,228
2,note_on,64,0,0
2,note_on,58,0,0
2,note_on,58,17,12
2,note_on,60,21,0
2,note_on,67,25,0
2,note_on,67,0,228
2,note_on,60,0,0
2,note_on,58,0,0
2,note_on,58,17,12
2,note_on,60,21,0
2,note_on,67,25,0
2,note_on,67,0,228
2,note_on,60,0,0
2,note_on,58,0,0
2,note_on,57,24,12
2,note_on,60,29,0
2,note_on,63,35,0
2,note_on,65,35,0
2,note_on,65,0,228
2,note_on,57,0,0
2,note_on,60,0,0
2,note_on,63,0,0
2,note_on,57,18,12
2,note_on,60,22,0
2,note_on,63,27,0
2,note_on,65,27,0
2,note_on,65,0,228
2,note_on,57,0,0
2,note_on,60,0,0
2,note_on,63,0,0
2,note_on,57,19,12
2,note_on,60,23,0
2,note_on,63,27,0
2,note_on,65,27,0
2,note_on,65,0,228
2,note_on,57,0,0
2,note_on,60,0,0
2,note_on,63,0,0
2,note_on,57,19,12
2,note_on,60,23,0
2,note_on,63,27,0
2,note_on,65,27,0
2,note_on,65,0,228
2,note_on,57,0,0
2,note_on,60,0,0
2,note_on,63,0,0
2,note_on,57,19,12
2,note_on,60,23,0
2,note_on,63,27,0
2,note_on,65,27,0
2,note_on,65,0,228
2,note_on,57,0,0
2,note_on,60,0,0
2,note_on,63,0,0
2,note_on,57,19,12
2,note_on,60,23,0
2,note_on,63,27,0
2,note_on,65,27,0
2,note_on,65,0,228
2,note_on,57,0,0
2,note_on,60,0,0
2,note_on,63,0,0
2,note_on,57,19,12
2,note_on,60,23,0
2,note_on,63,27,0
2,note_on,65,27,0
2,note_on,65,0,228
2,note_on,57,0,0
2,note_on,60,0,0
2,note_on,63,0,0
2,note_on,57,19,12
2,note_on,60,23,0
2,note_on,63,27,0
2,note_on,65,27,0
2,note_on,65,0,228
2,note_on,57,0,0
2,note_on,60,0,0
2,note_on,63,0,0
2,note_on,57,21,12
2,note_on,60,25,0
2,note_on,63,30,0
2,note_on,65,30,0
2,note_on,65,0,456
2,note_on,57,0,0
2,note_on,60,0,0
2,note_on,63,0,0
2,note_on,57,22,3384
2,note_on,60,26,0
2,note_on,63,31,0
2,note_on,66,31,0
2,note_on,66,0,228
2,note_on,57,0,0
2,note_on,60,0,0
2,note_on,63,0,0
2,note_on,57,17,12
2,note_on,60,20,0
2,note_on,63,24,0
2,note_on,66,24,0
2,note_on,66,0,228
2,note_on,57,0,0
2,note_on,60,0,0
2,note_on,63,0,0
2,note_on,57,17,12
2,note_on,60,20,0
2,note_on,63,24,0
2,note_on,66,24,0
2,note_on,66,0,228
2,note_on,57,0,0
2,note_on,60,0,0
2,note_on,63,0,0
2,note_on,57,17,12
2,note_on,60,20,0
2,note_on,63,24,0
2,note_on,66,24,0
2,note_on,66,0,228
2,note_on,57,0,0
2,note_on,60,0,0
2,note_on,63,0,0
2,note_on,57,17,12
2,note_on,60,20,0
2,note_on,63,24,0
2,note_on,66,24,0
2,note_on,66,0,228
2,note_on,57,0,0
2,note_on,60,0,0
2,note_on,63,0,0
2,note_on,57,17,12
2,note_on,60,20,0
2,note_on,63,24,0
2,note_on,66,24,0
2,note_on,66,0,228
2,note_on,57,0,0
2,note_on,60,0,0
2,note_on,63,0,0
2,note_on,57,17,12
2,note_on,60,20,0
2,note_on,63,24,0
2,note_on,66,24,0
2,note_on,66,0,228
2,note_on,57,0,0
2,note_on,60,0,0
2,note_on,63,0,0
2,note_on,57,17,12
2,note_on,60,20,0
2,note_on,63,24,0
2,note_on,66,24,0
2,note_on,66,0,228
2,note_on,57,0,0
2,note_on,60,0,0
2,note_on,63,0,0
2,note_on,57,18,12
2,note_on,60,22,0
2,note_on,63,27,0
2,note_on,66,27,0
2,note_on,66,0,456
2,note_on,57,0,0
2,note_on,60,0,0
2,note_on,63,0,0
2,note_on,57,17,1464
2,note_on,60,21,0
2,note_on,63,21,0
2,note_on,65,25,0
2,note_on,65,0,228
2,note_on,57,0,0
2,note_on,60,0,0
2,note_on,63,0,0
2,note_on,57,17,12
2,note_on,60,21,0
2,note_on,63,25,0
2,note_on,65,25,0
2,note_on,65,0,228
2,note_on,57,0,0
2,note_on,60,0,0
2,note_on,63,0,0
2,note_on,57,18,12
2,note_on,60,22,0
2,note_on,63,26,0
2,note_on,65,26,0
2,note_on,65,0,228
2,note_on,57,0,0
2,note_on,60,0,0
2,note_on,63,0,0
2,note_on,57,18,12
2,note_on,60,22,0
2,note_on,63,26,0
2,note_on,65,26,0
2,note_on,65,0,228
2,note_on,57,0,0
2,note_on,60,0,0
2,note_on,63,0,0
2,note_on,57,18,12
2,note_on,60,22,0
2,note_on,63,26,0
2,note_on,65,26,0
2,note_on,65,0,228
2,note_on,57,0,0
2,note_on,60,0,0
2,note_on,63,0,0
2,note_on,57,18,12
2,note_on,60,22,0
2,note_on,63,26,0
2,note_on,65,26,0
2,note_on,65,0,228
2,note_on,57,0,0
2,note_on,60,0,0
2,note_on,63,0,0
2,note_on,57,18,12
2,note_on,60,22,0
2,note_on,63,26,0
2,note_on,65,26,0
2,note_on,65,0,228
2,note_on,57,0,0
2,note_on,60,0,0
2,note_on,63,0,0
2,note_on,57,18,12
2,note_on,60,22,0
2,note_on,63,26,0
2,note_on,65,26,0
2,note_on,65,0,228
2,note_on,57,0,0
2,note_on,60,0,0
2,note_on,63,0,0
2,note_on,57,22,12
2,note_on,60,22,0
2,note_on,63,27,0
2,note_on,65,27,0
2,note_on,65,0,480
2,note_on,57,0,0
2,note_on,60,0,0
2,note_on,63,0,0
2,note_on,59,33,4320
2,note_on,59,0,160
2,note_on,58,32,0
2,note_on,58,0,160
2,note_on,57,31,0
2,note_on,57,0,160
2,note_on,56,30,0
2,note_on,56,0,160
2,note_on,55,29,0
2,note_on,55,0,160
2,note_on,54,27,0
2,note_on,54,0,160
2,note_on,56,22,0
2,note_on,54,19,60
2,note_on,56,0,30
2,note_on,56,20,30
2,note_on,54,0,30
2,note_on,54,18,30
2,note_on,56,0,30
2,note_on,56,20,30
2,note_on,54,0,30
2,note_on,54,18,30
2,note_on,56,0,30
2,note_on,56,21,30
2,note_on,54,0,30
2,note_on,54,20,30
2,note_on,56,0,30
2,note_on,56,22,30
2,note_on,54,0,30
2,note_on,54,19,30
2,note_on,56,0,30
2,note_on,56,22,30
2,note_on,54,0,30
2,note_on,54,18,30
2,note_on,56,0,30
2,note_on,56,21,30
2,note_on,54,0,30
2,note_on,54,19,30
2,note_on,56,0,30
2,note_on,56,20,30
2,note_on,54,0,30
2,note_on,54,18,30
2,note_on,56,0,30
2,note_on,56,22,30
2,note_on,54,0,30
2,note_on,54,19,30
2,note_on,56,0,30
2,note_on,56,21,30
2,note_on,54,0,30
2,note_on,54,19,30
2,note_on,56,0,30
2,note_on,56,21,30
2,note_on,54,0,30
2,note_on,54,18,30
2,note_on,56,0,30
2,note_on,56,21,30
2,note_on,54,0,30
2,note_on,54,18,30
2,note_on,56,0,30
2,note_on,56,22,30
2,note_on,54,0,30
2,note_on,54,19,30
2,note_on,56,0,30
2,note_on,56,22,30
2,note_on,54,0,30
2,note_on,54,18,30
2,note_on,56,0,30
2,note_on,53,20,30
2,note_on,54,0,30
2,note_on,54,23,90
2,note_on,53,0,20
2,note_on,53,25,100
2,note_on,54,0,20
2,note_on,53,0,100
2,note_on,29,27,1560
2,note_on,30,22,80
2,note_on,29,0,20
2,note_on,32,22,60
2,note_on,30,0,20
2,note_on,30,27,60
2,note_on,32,0,20
2,note_on,32,23,40
2,note_on,30,0,30
2,note_on,30,24,30
2,note_on,32,0,30
2,note_on,32,22,30
2,note_on,30,0,30
2,note_on,30,24,30
2,note_on,32,0,30
2,note_on,32,22,30
2,note_on,30,0,30
2,note_on,30,25,30
2,note_on,32,0,30
2,note_on,32,24,30
2,note_on,30,0,30
2,note_on,30,26,30
2,note_on,32,0,30
2,note_on,32,23,30
2,note_on,30,0,30
2,note_on,30,26,30
2,note_on,32,0,30
2,note_on,32,22,30
2,note_on,30,0,30
2,note_on,30,25,30
2,note_on,32,0,30
2,note_on,32,23,30
2,note_on,30,0,30
2,note_on,30,24,30
2,note_on,32,0,30
2,note_on,32,22,30
2,note_on,30,0,30
2,note_on,30,26,30
2,note_on,32,0,30
2,note_on,32,23,30
2,note_on,30,0,30
2,note_on,30,25,30
2,note_on,32,0,30
2,note_on,32,23,30
2,note_on,30,0,30
2,note_on,30,25,30
2,note_on,32,0,30
2,note_on,32,22,30
2,note_on,30,0,30
2,note_on,30,25,30
2,note_on,32,0,30
2,note_on,32,22,30
2,note_on,30,0,30
2,note_on,30,27,30
2,note_on,32,0,30
2,note_on,32,23,30
2,note_on,30,0,30
2,note_on,30,26,30
2,note_on,32,0,30
2,note_on,32,22,30
2,note_on,30,0,30
2,note_on,29,22,30
2,note_on,32,0,30
2,note_on,30,18,90
2,note_on,29,0,20
2,note_on,29,23,100
2,note_on,30,0,20
2,note_on,29,0,100
2,note_on,46,24,1320
2,note_on,50,29,0
2,note_on,50,0,240
2,note_on,53,25,0
2,note_on,53,0,240
2,note_on,46,0,0
2,note_on,46,25,0
2,note_on,50,30,0
2,note_on,50,0,240
2,note_on,53,25,0
2,note_on,53,0,240
2,note_on,46,0,0
2,note_on,46,21,0
2,note_on,48,27,0
2,note_on,48,0,240
2,note_on,53,24,0
2,note_on,53,0,240
2,note_on,46,0,0
2,note_on,46,25,0
2,note_on,50,30,0
2,note_on,50,0,240
2,note_on,53,24,0
2,note_on,53,0,240
2,note_on,46,0,0
2,note_on,46,24,0
2,note_on,51,29,0
2,note_on,51,0,240
2,note_on,53,23,0
2,note_on,53,0,240
2,note_on,46,0,0
2,note_on,52,30,0
2,note_on,46,25,0
2,note_on,52,0,240
2,note_on,53,23,0
2,note_on,53,0,120
2,note_on,53,23,120
2,note_on,53,0,120
2,note_on,53,23,120
2,note_on,53,0,120
2,note_on,53,23,120
2,note_on,53,0,120
2,note_on,53,23,120
2,note_on,53,0,120
2,note_on,46,0,120
2,note_on,46,24,0
2,note_on,51,29,0
2,note_on,51,0,240
2,note_on,50,24,0
2,note_on,50,0,240
2,note_on,46,0,0
2,note_on,41,23,0
2,note_on,51,27,0
2,note_on,51,0,240
2,note_on,53,22,0
2,note_on,53,0,240
2,note_on,41,0,0
2,note_on,41,23,0
2,note_on,51,26,0
2,note_on,51,0,240
2,note_on,53,22,0
2,note_on,53,0,240
2,note_on,41,0,0
2,note_on,41,23,0
2,note_on,51,26,0
2,note_on,51,0,240
2,note_on,53,23,0
2,note_on,53,0,240
2,note_on,41,0,0
2,note_on,41,24,0
2,note_on,50,29,0
2,note_on,50,0,240
2,note_on,48,22,0
2,note_on,48,0,240
2,note_on,41,0,0
2,note_on,46,25,0
2,note_on,50,30,0
2,note_on,50,0,240
2,note_on,53,27,0
2,note_on,53,0,240
2,note_on,51,29,0
2,note_on,51,0,240
2,note_on,55,25,0
2,note_on,55,0,240
2,note_on,50,26,0
2,note_on,50,0,240
2,note_on,53,27,0
2,note_on,53,0,240
2,note_on,46,0,0
2,note_on,46,25,0
2,note_on,50,35,0
2,note_on,50,0,240
2,note_on,58,30,0
2,note_on,58,0,240
2,note_on,46,0,0
2,note_on,46,27,0
2,note_on,55,32,0
2,note_on,58,28,240
2,note_on,58,0,120
2,note_on,58,29,120
2,note_on,58,0,120
2,note_on,58,27,120
2,note_on,58,0,120
2,note_on,58,30,120
2,note_on,58,0,120
2,note_on,58,27,120
2,note_on,58,0,120
2,note_on,55,0,120
2,note_on,46,0,0
2,note_on,46,24,0
2,note_on,53,29,0
2,note_on,53,0,240
2,note_on,51,27,0
2,note_on,51,0,240
2,note_on,46,0,0
2,note_on,46,24,0
2,note_on,53,29,0
2,note_on,53,0,240
2,note_on,50,25,0
2,note_on,50,0,240
2,note_on,46,0,0
2,note_on,46,24,0
2,note_on,48,29,0
2,note_on,48,0,240
2,note_on,53,25,0
2,note_on,53,0,240
2,note_on,46,0,0
2,note_on,46,24,0
2,note_on,50,29,0
2,note_on,50,0,240
2,note_on,53,27,0
2,note_on,53,0,240
2,note_on,46,0,0
2,note_on,46,24,0
2,note_on,51,28,0
2,note_on,51,0,240
2,note_on,53,26,0
2,note_on,53,0,240
2,note_on,46,0,0
2,note_on,46,24,0
2,note_on,50,28,0
2,note_on,50,0,240
2,note_on,53,26,0
2,note_on,53,0,240
2,note_on,46,0,0
2,note_on,46,28,0
2,note_on,53,26,240
2,note_on,53,0,240
2,note_on,46,0,0
2,note_on,41,28,0
2,note_on,41,0,480
2,note_on,29,24,240
2,note_on,30,19,80
2,note_on,29,0,20
2,note_on,32,19,60
2,note_on,30,0,20
2,note_on,30,24,60
2,note_on,32,0,20
2,note_on,32,20,40
2,note_on,30,0,40
2,note_on,30,21,20
2,note_on,32,0,40
2,note_on,32,19,20
2,note_on,30,0,40
2,note_on,30,21,20
2,note_on,32,0,40
2,note_on,32,19,20
2,note_on,30,0,40
2,note_on,30,22,20
2,note_on,32,0,40
2,note_on,32,21,20
2,note_on,30,0,40
2,note_on,30,23,20
2,note_on,32,0,40
2,note_on,32,20,20
2,note_on,30,0,40
2,note_on,30,23,20
2,note_on,32,0,40
2,note_on,32,19,20
2,note_on,30,0,40
2,note_on,30,22,20
2,note_on,32,0,40
2,note_on,32,20,20
2,note_on,30,0,40
2,note_on,30,21,20
2,note_on,32,0,40
2,note_on,32,19,20
2,note_on,30,0,40
2,note_on,30,23,20
2,note_on,32,0,40
2,note_on,32,20,20
2,note_on,30,0,40
2,note_on,30,22,20
2,note_on,32,0,40
2,note_on,32,20,20
2,note_on,30,0,40
2,note_on,30,22,20
2,note_on,32,0,40
2,note_on,32,19,20
2,note_on,30,0,40
2,note_on,30,22,20
2,note_on,32,0,40
2,note_on,32,19,20
2,note_on,30,0,40
2,note_on,30,24,20
2,note_on,32,0,40
2,note_on,32,20,20
2,note_on,30,0,40
2,note_on,30,23,20
2,note_on,32,0,40
2,note_on,32,19,20
2,note_on,30,0,40
2,note_on,29,19,20
2,note_on,32,0,40
2,note_on,30,16,80
2,note_on,29,0,20
2,note_on,29,20,100
2,note_on,30,0,20
2,note_on,29,0,100
2,note_on,46,24,1320
2,note_on,50,29,0
2,note_on,50,0,240
2,note_on,53,25,0
2,note_on,53,0,240
2,note_on,46,0,0
2,note_on,46,25,0
2,note_on,50,30,0
2,note_on,50,0,240
2,note_on,53,25,0
2,note_on,53,0,240
2,note_on,46,0,0
2,note_on,46,21,0
2,note_on,48,27,0
2,note_on,48,0,240
2,note_on,53,24,0
2,note_on,53,0,240
2,note_on,46,0,0
2,note_on,46,25,0
2,note_on,50,30,0
2,note_on,50,0,240
2,note_on,53,24,0
2,note_on,53,0,240
2,note_on,46,0,0
2,note_on,46,24,0
2,note_on,51,29,0
2,note_on,51,0,240
2,note_on,53,23,0
2,note_on,53,0,240
2,note_on,46,0,0
2,note_on,52,30,0
2,note_on,46,25,0
2,note_on,52,0,240
2,note_on,53,23,0
2,note_on,53,0,120
2,note_on,53,23,120
2,note_on,53,0,120
2,note_on,53,23,120
2,note_on,53,0,120
2,note_on,53,23,120
2,note_on,53,0,120
2,note_on,53,23,120
2,note_on,53,0,120
2,note_on,46,0,120
2,note_on,46,24,0
2,note_on,51,29,0
2,note_on,51,0,240
2,note_on,50,24,0
2,note_on,50,0,240
2,note_on,46,0,0
2,note_on,41,23,0
2,note_on,51,27,0
2,note_on,51,0,240
2,note_on,53,22,0
2,note_on,53,0,240
2,note_on,41,0,0
2,note_on,41,23,0
2,note_on,51,26,0
2,note_on,51,0,240
2,note_on,53,22,0
2,note_on,53,0,240
2,note_on,41,0,0
2,note_on,41,23,0
2,note_on,51,26,0
2,note_on,51,0,240
2,note_on,53,25,0
2,note_on,53,0,240
2,note_on,41,0,0
2,note_on,41,24,0
2,note_on,50,29,0
2,note_on,50,0,240
2,note_on,48,22,0
2,note_on,48,0,240
2,note_on,41,0,0
2,note_on,46,25,0
2,note_on,50,30,0
2,note_on,50,0,240
2,note_on,53,27,0
2,note_on,53,0,240
2,note_on,51,29,0
2,note_on,51,0,240
2,note_on,55,25,0
2,note_on,55,0,240
2,note_on,50,26,0
2,note_on,50,0,240
2,note_on,53,27,0
2,note_on,53,0,240
2,note_on,46,0,0
2,note_on,44,25,0
2,note_on,50,35,0
2,note_on,50,0,240
2,note_on,53,30,0
2,note_on,53,0,240
2,note_on,44,0,0
2,note_on,43,27,0
2,note_on,53,32,0
2,note_on,55,28,240
2,note_on,55,0,120
2,note_on,55,29,120
2,note_on,55,0,120
2,note_on,55,27,120
2,note_on,55,0,120
2,note_on,55,30,120
2,note_on,55,0,120
2,note_on,55,27,120
2,note_on,55,0,120
2,note_on,53,0,120
2,note_on,43,0,0
2,note_on,43,21,0
2,note_on,51,24,0
2,note_on,55,29,0
2,note_on,55,0,240
2,note_on,51,0,0
2,note_on,43,0,0
2,note_on,43,21,0
2,note_on,50,24,0
2,note_on,55,27,0
2,note_on,55,0,240
2,note_on,50,0,0
2,note_on,43,0,0
2,note_on,43,25,0
2,note_on,48,30,0
2,note_on,48,0,240
2,note_on,55,27,0
2,note_on,55,0,240
2,note_on,43,0,0
2,note_on,43,25,0
2,note_on,53,29,0
2,note_on,53,0,240
2,note_on,55,25,0
2,note_on,55,0,240
2,note_on,43,0,0
2,note_on,43,24,0
2,note_on,51,25,0
2,note_on,51,0,240
2,note_on,55,26,0
2,note_on,55,0,240
2,note_on,43,0,0
2,note_on,42,25,0
2,note_on,51,35,0
2,note_on,51,0,240
2,note_on,54,30,0
2,note_on,54,0,240
2,note_on,42,0,0
2,note_on,41,27,0
2,note_on,51,32,0
2,note_on,53,28,240
2,note_on,53,0,120
2,note_on,53,29,120
2,note_on,53,0,120
2,note_on,53,27,120
2,note_on,53,0,120
2,note_on,53,30,120
2,note_on,53,0,120
2,note_on,53,27,120
2,note_on,53,0,120
2,note_on,51,0,120
2,note_on,41,0,0
2,note_on,41,21,0
2,note_on,50,24,0
2,note_on,53,29,0
2,note_on,53,0,240
2,note_on,50,0,0
2,note_on,41,0,0
2,note_on,41,21,0
2,note_on,48,24,0
2,note_on,53,27,0
2,note_on,53,0,240
2,note_on,48,0,0
2,note_on,41,0,0
2,note_on,41,25,0
2,note_on,46,30,0
2,note_on,46,0,240
2,note_on,53,27,0
2,note_on,53,0,240
2,note_on,41,0,0
2,note_on,41,23,0
2,note_on,48,27,0
2,note_on,48,0,240
2,note_on,53,23,0
2,note_on,53,0,240
2,note_on,41,0,0
2,note_on,41,25,0
2,note_on,50,26,0
2,note_on,50,0,240
2,note_on,53,24,0
2,note_on,53,0,240
2,note_on,41,0,0
2,note_on,41,22,0
2,note_on,51,31,0
2,note_on,51,0,240
2,note_on,53,27,0
2,note_on,53,0,240
2,note_on,41,0,0
2,note_on,53,28,0
2,note_on,41,24,0
2,note_on,51,28,0
2,note_on,51,0,960
2,note_on,41,0,0
2,note_on,46,25,0
2,note_on,50,25,0
2,note_on,50,0,240
2,note_on,46,0,0
2,note_on,53,0,0
2,note_on,34,30,240
2,note_on,34,0,240
2,note_on,34,30,240
2,note_on,35,26,60
2,note_on,34,0,30
2,note_on,34,27,30
2,note_on,35,0,30
2,note_on,35,25,30
2,note_on,34,0,30
2,note_on,34,27,30
2,note_on,35,0,30
2,note_on,35,25,30
2,note_on,34,0,30
2,note_on,34,28,30
2,note_on,35,0,30
2,note_on,35,27,30
2,note_on,34,0,30
2,note_on,34,29,30
2,note_on,35,0,30
2,note_on,35,26,30
2,note_on,34,0,30
2,note_on,34,29,30
2,note_on,35,0,30
2,note_on,35,25,30
2,note_on,34,0,30
2,note_on,34,28,30
2,note_on,35,0,30
2,note_on,35,26,30
2,note_on,34,0,30
2,note_on,34,27,30
2,note_on,35,0,30
2,note_on,35,25,30
2,note_on,34,0,30
2,note_on,34,29,30
2,note_on,35,0,30
2,note_on,35,26,30
2,note_on,34,0,30
2,note_on,34,28,30
2,note_on,35,0,30
2,note_on,35,26,30
2,note_on,34,0,30
2,note_on,34,28,30
2,note_on,35,0,30
2,note_on,35,25,30
2,note_on,34,0,30
2,note_on,34,28,30
2,note_on,35,0,30
2,note_on,35,25,30
2,note_on,34,0,30
2,note_on,34,30,30
2,note_on,35,0,30
2,note_on,33,26,90
2,note_on,34,0,20
2,note_on,32,30,100
2,note_on,33,0,20
2,note_on,31,26,100
2,note_on,32,0,20
2,note_on,30,30,100
2,note_on,31,0,20
2,note_on,30,0,40
2,note_on,49,26,60
2,note_on,49,0,120
2,note_on,54,26,0
2,note_on,54,0,120
2,note_on,49,26,0
2,note_on,49,0,120
2,note_on,42,31,0
2,note_on,42,0,120
2,note_on,49,26,0
2,note_on,49,0,120
2,note_on,53,26,0
2,note_on,53,0,120
2,note_on,49,25,0
2,note_on,49,0,120
2,note_on,42,30,0
2,note_on,42,0,120
2,note_on,49,27,0
2,note_on,49,0,120
2,note_on,54,27,0
2,note_on,54,0,120
2,note_on,49,27,0
2,note_on,49,0,120
2,note_on,42,30,0
2,note_on,42,0,120
2,note_on,49,27,0
2,note_on,49,0,120
2,note_on,56,27,0
2,note_on,56,0,120
2,note_on,49,27,0
2,note_on,49,0,120
2,note_on,42,33,0
2,note_on,42,0,120
2,note_on,49,27,0
2,note_on,49,0,120
2,note_on,58,27,0
2,note_on,58,0,120
2,note_on,49,27,0
2,note_on,49,0,120
2,note_on,42,31,0
2,note_on,42,0,120
2,note_on,49,27,0
2,note_on,49,0,120
2,note_on,58,27,0
2,note_on,58,0,120
2,note_on,49,27,0
2,note_on,49,0,120
2,note_on,42,30,0
2,note_on,42,0,120
2,note_on,49,27,0
2,note_on,49,0,120
2,note_on,58,27,0
2,note_on,58,0,120
2,note_on,49,27,0
2,note_on,49,0,120
2,note_on,42,31,0
2,note_on,42,0,120
2,note_on,49,25,0
2,note_on,49,0,120
2,note_on,54,28,0
2,note_on,54,0,120
2,note_on,49,27,0
2,note_on,49,0,120
2,note_on,42,33,0
2,note_on,42,0,120
2,note_on,51,27,0
2,note_on,51,0,120
2,note_on,59,27,0
2,note_on,59,0,120
2,note_on,51,27,0
2,note_on,51,0,120
2,note_on,42,32,0
2,note_on,42,0,120
2,note_on,51,27,0
2,note_on,51,0,120
2,note_on,59,27,0
2,note_on,59,0,120
2,note_on,51,27,0
2,note_on,51,0,120
2,note_on,42,32,0
2,note_on,42,0,120
2,note_on,51,27,0
2,note_on,51,0,120
2,note_on,59,27,0
2,note_on,59,0,120
2,note_on,51,27,0
2,note_on,51,0,120
2,note_on,42,33,0
2,note_on,42,0,120
2,note_on,51,27,0
2,note_on,51,0,120
2,note_on,59,31,0
2,note_on,59,0,120
2,note_on,51,27,0
2,note_on,51,0,120
2,note_on,42,33,0
2,note_on,42,0,120
2,note_on,49,28,0
2,note_on,49,0,120
2,note_on,58,28,0
2,note_on,58,0,120
2,note_on,49,28,0
2,note_on,49,0,120
2,note_on,42,33,0
2,note_on,42,0,120
2,note_on,49,27,0
2,note_on,49,0,120
2,note_on,58,28,0
2,note_on,58,0,120
2,note_on,49,27,0
2,note_on,49,0,120
2,note_on,42,33,0
2,note_on,42,0,120
2,note_on,49,28,0
2,note_on,49,0,120
2,note_on,58,29,0
2,note_on,58,0,120
2,note_on,49,29,0
2,note_on,49,0,120
2,note_on,42,33,0
2,note_on,42,0,120
2,note_on,49,28,0
2,note_on,49,0,120
2,note_on,54,28,0
2,note_on,54,0,120
2,note_on,49,28,0
2,note_on,49,0,120
2,note_on,42,30,0
2,note_on,42,0,120
2,note_on,49,26,0
2,note_on,49,0,120
2,note_on,54,26,0
2,note_on,54,0,120
2,note_on,49,26,0
2,note_on,49,0,120
2,note_on,42,31,0
2,note_on,42,0,120
2,note_on,49,26,0
2,note_on,49,0,120
2,note_on,53,26,0
2,note_on,53,0,120
2,note_on,49,25,0
2,note_on,49,0,120
2,note_on,42,30,0
2,note_on,42,0,120
2,note_on,49,27,0
2,note_on,49,0,120
2,note_on,54,27,0
2,note_on,54,0,120
2,note_on,49,27,0
2,note_on,49,0,120
2,note_on,42,30,0
2,note_on,42,0,120
2,note_on,49,27,0
2,note_on,49,0,120
2,note_on,56,27,0
2,note_on,56,0,120
2,note_on,49,27,0
2,note_on,49,0,120
2,note_on,42,33,0
2,note_on,42,0,120
2,note_on,49,27,0
2,note_on,49,0,120
2,note_on,57,27,0
2,note_on,57,0,120
2,note_on,49,27,0
2,note_on,49,0,120
2,note_on,44,31,0
2,note_on,44,0,120
2,note_on,49,27,0
2,note_on,49,0,120
2,note_on,57,27,0
2,note_on,57,0,120
2,note_on,49,27,0
2,note_on,49,0,120
2,note_on,45,30,0
2,note_on,45,0,120
2,note_on,49,27,0
2,note_on,49,0,120
2,note_on,57,27,0
2,note_on,57,0,120
2,note_on,49,27,0
2,note_on,49,0,120
2,note_on,45,31,0
2,note_on,45,0,120
2,note_on,49,25,0
2,note_on,49,0,120
2,note_on,57,28,0
2,note_on,57,0,120
2,note_on,49,27,0
2,note_on,49,0,120
2,note_on,45,33,0
2,note_on,45,0,120
2,note_on,54,27,0
2,note_on,54,0,120
2,note_on,62,27,0
2,note_on,62,0,120
2,note_on,54,27,0
2,note_on,54,0,120
2,note_on,45,32,0
2,note_on,45,0,120
2,note_on,54,27,0
2,note_on,54,0,120
2,note_on,62,27,0
2,note_on,62,0,120
2,note_on,54,27,0
2,note_on,54,0,120
2,note_on,45,32,0
2,note_on,45,0,120
2,note_on,54,27,0
2,note_on,54,0,120
2,note_on,62,27,0
2,note_on,62,0,120
2,note_on,54,27,0
2,note_on,54,0,120
2,note_on,45,33,0
2,note_on,45,0,120
2,note_on,54,27,0
2,note_on,54,0,120
2,note_on,62,31,0
2,note_on,62,0,120
2,note_on,54,27,0
2,note_on,54,0,120
2,note_on,45,33,0
2,note_on,45,0,120
2,note_on,52,28,0
2,note_on,52,0,120
2,note_on,61,28,0
2,note_on,61,0,120
2,note_on,52,28,0
2,note_on,52,0,120
2,note_on,45,33,0
2,note_on,45,0,120
2,note_on,52,27,0
2,note_on,52,0,120
2,note_on,61,28,0
2,note_on,61,0,120
2,note_on,52,27,0
2,note_on,52,0,120
2,note_on,45,33,0
2,note_on,45,0,120
2,note_on,52,28,0
2,note_on,52,0,120
2,note_on,61,29,0
2,note_on,61,0,120
2,note_on,52,29,0
2,note_on,52,0,120
2,note_on,45,33,0
2,note_on,45,0,120
2,note_on,52,27,0
2,note_on,52,0,120
2,note_on,57,31,0
2,note_on,57,0,120
2,note_on,52,27,0
2,note_on,52,0,120
2,note_on,45,33,0
2,note_on,45,0,120
2,note_on,54,28,0
2,note_on,54,0,120
2,note_on,62,28,0
2,note_on,62,0,120
2,note_on,54,28,0
2,note_on,54,0,120
2,note_on,45,33,0
2,note_on,45,0,120
2,note_on,54,29,0
2,note_on,54,0,120
2,note_on,62,29,0
2,note_on,62,0,120
2,note_on,54,29,0
2,note_on,54,0,120
2,note_on,45,33,0
2,note_on,45,0,120
2,note_on,52,28,0
2,note_on,52,0,120
2,note_on,56,28,0
2,note_on,56,0,120
2,note_on,52,27,0
2,note_on,52,0,120
2,note_on,45,31,0
2,note_on,45,0,120
2,note_on,52,27,0
2,note_on,52,0,120
2,note_on,59,28,0
2,note_on,59,0,120
2,note_on,52,28,0
2,note_on,52,0,120
2,note_on,45,33,0
2,note_on,45,0,120
2,note_on,52,28,0
2,note_on,52,0,120
2,note_on,57,28,0
2,note_on,57,0,120
2,note_on,52,28,0
2,note_on,52,0,120
2,note_on,45,33,0
2,note_on,45,0,120
2,note_on,52,27,0
2,note_on,52,0,120
2,note_on,61,28,0
2,note_on,61,0,120
2,note_on,52,27,0
2,note_on,52,0,120
2,note_on,45,33,0
2,note_on,45,0,120
2,note_on,52,28,0
2,note_on,52,0,120
2,note_on,61,29,0
2,note_on,61,0,120
2,note_on,52,29,0
2,note_on,52,0,120
2,note_on,45,33,0
2,note_on,45,0,120
2,note_on,52,27,0
2,note_on,52,0,120
2,note_on,61,31,0
2,note_on,61,0,120
2,note_on,52,27,0
2,note_on,52,0,120
2,note_on,45,33,0
2,note_on,45,0,120
2,note_on,54,28,0
2,note_on,54,0,120
2,note_on,62,28,0
2,note_on,62,0,120
2,note_on,54,28,0
2,note_on,54,0,120
2,note_on,45,33,0
2,note_on,45,0,120
2,note_on,54,29,0
2,note_on,54,0,120
2,note_on,62,29,0
2,note_on,62,0,120
2,note_on,54,29,0
2,note_on,54,0,120
2,note_on,45,33,0
2,note_on,45,0,120
2,note_on,52,28,0
2,note_on,52,0,120
2,note_on,56,28,0
2,note_on,56,0,120
2,note_on,52,27,0
2,note_on,52,0,120
2,note_on,45,31,0
2,note_on,45,0,120
2,note_on,52,27,0
2,note_on,52,0,120
2,note_on,59,28,0
2,note_on,59,0,120
2,note_on,52,28,0
2,note_on,52,0,120
2,note_on,45,33,0
2,note_on,45,0,60
2,note_on,61,28,60
2,note_on,61,0,120
2,note_on,57,28,0
2,note_on,57,0,120
2,note_on,61,28,0
2,note_on,61,0,120
2,note_on,57,33,0
2,note_on,57,0,120
2,note_on,61,29,0
2,note_on,61,0,120
2,note_on,57,29,0
2,note_on,57,0,120
2,note_on,61,29,0
2,note_on,61,0,120
2,note_on,45,33,0
2,note_on,45,0,60
2,note_on,61,28,60
2,note_on,61,0,120
2,note_on,57,28,0
2,note_on,57,0,120
2,note_on,61,27,0
2,note_on,61,0,120
2,note_on,57,31,0
2,note_on,57,0,120
2,note_on,61,27,0
2,note_on,61,0,120
2,note_on,57,28,0
2,note_on,57,0,120
2,note_on,61,28,0
2,note_on,61,0,120
2,note_on,45,33,0
2,note_on,45,0,60
2,note_on,62,28,60
2,note_on,62,0,120
2,note_on,57,28,0
2,note_on,57,0,120
2,note_on,62,28,0
2,note_on,62,0,120
2,note_on,57,33,0
2,note_on,57,0,120
2,note_on,62,29,0
2,note_on,62,0,120
2,note_on,57,29,0
2,note_on,57,0,120
2,note_on,62,29,0
2,note_on,62,0,120
2,note_on,45,33,0
2,note_on,45,0,60
2,note_on,62,28,60
2,note_on,62,0,120
2,note_on,57,28,0
2,note_on,57,0,120
2,note_on,62,27,0
2,note_on,62,0,120
2,note_on,57,31,0
2,note_on,57,0,120
2,note_on,62,27,0
2,note_on,62,0,120
2,note_on,57,28,0
2,note_on,57,0,120
2,note_on,62,28,0
2,note_on,62,0,120
2,note_on,45,33,0
2,note_on,45,0,60
2,note_on,61,28,60
2,note_on,61,0,120
2,note_on,57,28,0
2,note_on,57,0,120
2,note_on,61,28,0
2,note_on,61,0,120
2,note_on,57,33,0
2,note_on,57,0,120
2,note_on,61,29,0
2,note_on,61,0,120
2,note_on,57,29,0
2,note_on,57,0,120
2,note_on,61,29,0
2,note_on,61,0,120
2,note_on,45,33,0
2,note_on,45,0,60
2,note_on,61,28,60
2,note_on,61,0,120
2,note_on,57,28,0
2,note_on,57,0,120
2,note_on,61,27,0
2,note_on,61,0,120
2,note_on,57,31,0
2,note_on,57,0,120
2,note_on,61,27,0
2,note_on,61,0,120
2,note_on,57,28,0
2,note_on,57,0,120
2,note_on,61,28,0
2,note_on,61,0,120
2,note_on,45,33,0
2,note_on,45,0,60
2,note_on,62,28,60
2,note_on,62,0,120
2,note_on,57,28,0
2,note_on,57,0,120
2,note_on,62,28,0
2,note_on,62,0,120
2,note_on,57,33,0
2,note_on,57,0,120
2,note_on,62,29,0
2,note_on,62,0,120
2,note_on,57,29,0
2,note_on,57,0,120
2,note_on,62,29,0
2,note_on,62,0,120
2,note_on,45,33,0
2,note_on,45,0,60
2,note_on,62,28,60
2,note_on,62,0,120
2,note_on,57,28,0
2,note_on,57,0,120
2,note_on,62,27,0
2,note_on,62,0,120
2,note_on,57,31,0
2,note_on,57,0,120
2,note_on,62,27,0
2,note_on,62,0,120
2,note_on,57,28,0
2,note_on,57,0,120
2,note_on,62,28,0
2,note_on,62,0,120
2,note_on,45,33,0
2,note_on,45,0,60
2,note_on,61,28,60
2,note_on,61,0,120
2,note_on,57,28,0
2,note_on,57,0,120
2,note_on,61,28,0
2,note_on,61,0,120
2,note_on,57,33,0
2,note_on,57,0,120
2,note_on,61,29,0
2,note_on,61,0,120
2,note_on,57,29,0
2,note_on,57,0,120
2,note_on,61,29,0
2,note_on,61,0,120
2,note_on,57,33,0
2,note_on,57,0,120
2,note_on,61,28,0
2,note_on,61,0,120
2,note_on,57,28,0
2,note_on,57,0,120
2,note_on,61,27,0
2,note_on,61,0,120
2,note_on,57,31,0
2,note_on,57,0,120
2,note_on,61,27,0
2,note_on,61,0,120
2,note_on,57,28,0
2,note_on,57,0,120
2,note_on,61,28,0
2,note_on,61,0,120
2,note_on,45,33,0
2,note_on,45,0,60
2,note_on,61,28,60
2,note_on,61,0,120
2,note_on,57,28,0
2,note_on,57,0,120
2,note_on,61,28,0
2,note_on,61,0,120
2,note_on,57,33,0
2,note_on,57,0,120
2,note_on,61,29,0
2,note_on,61,0,120
2,note_on,57,29,0
2,note_on,57,0,120
2,note_on,61,29,0
2,note_on,61,0,120
2,note_on,57,33,0
2,note_on,57,0,120
2,note_on,61,28,0
2,note_on,61,0,120
2,note_on,57,28,0
2,note_on,57,0,120
2,note_on,61,27,0
2,note_on,61,0,120
2,note_on,57,31,0
2,note_on,57,0,120
2,note_on,61,27,0
2,note_on,61,0,120
2,note_on,57,28,0
2,note_on,57,0,120
2,note_on,61,28,0
2,note_on,61,0,120
2,note_on,57,33,0
2,note_on,57,0,120
2,note_on,61,28,0
2,note_on,61,0,120
2,note_on,57,28,0
2,note_on,57,0,120
2,note_on,61,28,0
2,note_on,61,0,120
2,note_on,57,33,0
2,note_on,57,0,120
2,note_on,61,29,0
2,note_on,61,0,120
2,note_on,57,29,0
2,note_on,57,0,120
2,note_on,61,30,0
2,note_on,61,0,120
2,note_on,57,34,0
2,note_on,57,0,120
2,note_on,61,29,0
2,note_on,61,0,120
2,note_on,57,29,0
2,note_on,57,0,120
2,note_on,61,28,0
2,note_on,61,0,120
2,note_on,57,33,0
2,note_on,57,0,120
2,note_on,61,29,0
2,note_on,61,0,120
2,note_on,57,30,0
2,note_on,57,0,120
2,note_on,61,30,0
2,note_on,61,0,120
2,note_on,45,34,0
2,note_on,45,0,160
2,note_on,57,31,0
2,note_on,57,0,152
2,note_on,57,31,8
2,note_on,45,25,0
2,note_on,45,0,152
2,note_on,57,0,0
2,note_on,45,29,8
2,note_on,57,35,0
2,note_on,57,0,152
2,note_on,45,0,0
2,note_on,45,25,8
2,note_on,57,31,0
2,note_on,57,0,152
2,note_on,45,0,0
2,note_on,45,27,8
2,note_on,57,33,0
2,note_on,57,0,152
2,note_on,45,0,0
2,note_on,45,31,8
2,note_on,57,37,0
2,note_on,57,0,152
2,note_on,45,0,0
2,note_on,45,29,8
2,note_on,57,35,0
2,note_on,57,0,152
2,note_on,45,0,0
2,note_on,45,29,8
2,note_on,57,35,0
2,note_on,57,0,152
2,note_on,45,0,0
2,note_on,55,32,8
2,note_on,52,32,0
2,note_on,45,32,0
2,note_on,57,38,0
2,note_on,57,0,152
2,note_on,55,0,0
2,note_on,52,0,0
2,note_on,45,0,0
2,note_on,55,32,8
2,note_on,52,32,0
2,note_on,45,28,0
2,note_on,57,35,0
2,note_on,57,0,152
2,note_on,55,0,0
2,note_on,52,0,0
2,note_on,45,0,0
2,note_on,55,32,8
2,note_on,52,33,0
2,note_on,45,29,0
2,note_on,57,35,0
2,note_on,57,0,152
2,note_on,55,0,0
2,note_on,52,0,0
2,note_on,45,0,0
2,note_on,55,33,8
2,note_on,52,33,0
2,note_on,45,33,0
2,note_on,57,40,0
2,note_on,57,0,152
2,note_on,55,0,0
2,note_on,52,0,0
2,note_on,45,0,0
2,note_on,55,33,8
2,note_on,52,34,0
2,note_on,45,30,0
2,note_on,57,36,0
2,note_on,57,0,152
2,note_on,55,0,0
2,note_on,52,0,0
2,note_on,45,0,0
2,note_on,55,33,8
2,note_on,52,35,0
2,note_on,45,30,0
2,note_on,57,37,0
2,note_on,57,0,152
2,note_on,55,0,0
2,note_on,52,0,0
2,note_on,45,0,0
2,note_on,55,44,8
2,note_on,52,36,0
2,note_on,45,36,0
2,note_on,57,44,0
2,note_on,57,0,152
2,note_on,55,0,0
2,note_on,52,0,0
2,note_on,45,0,0
2,note_on,55,44,8
2,note_on,52,37,0
2,note_on,45,33,0
2,note_on,57,40,0
2,note_on,57,0,152
2,note_on,55,0,0
2,note_on,52,0,0
2,note_on,45,0,0
2,note_on,55,45,8
2,note_on,52,39,0
2,note_on,45,34,0
2,note_on,57,42,0
2,note_on,57,0,152
2,note_on,55,0,0
2,note_on,52,0,0
2,note_on,45,0,0
2,note_on,55,48,8
2,note_on,52,40,0
2,note_on,45,40,0
2,note_on,57,48,0
2,note_on,57,0,152
2,note_on,55,0,0
2,note_on,52,0,0
2,note_on,45,0,0
2,note_on,55,49,8
2,note_on,52,41,0
2,note_on,45,37,0
2,note_on,57,44,0
2,note_on,57,0,152
2,note_on,55,0,0
2,note_on,52,0,0
2,note_on,45,0,0
2,note_on,55,49,8
2,note_on,52,43,0
2,note_on,45,37,0
2,note_on,57,46,0
2,note_on,57,0,152
2,note_on,55,0,0
2,note_on,52,0,0
2,note_on,45,0,0
2,note_on,50,48,8
2,note_on,58,57,0
2,note_on,46,48,0
2,note_on,53,48,0
2,note_on,53,0,152
2,note_on,50,0,0
2,note_on,58,0,0
2,note_on,46,0,0
2,note_on,50,48,8
2,note_on,58,52,0
2,note_on,46,42,0
2,note_on,53,48,0
2,note_on,53,0,152
2,note_on,50,0,0
2,note_on,58,0,0
2,note_on,46,0,0
2,note_on,50,48,8
2,note_on,58,52,0
2,note_on,46,42,0
2,note_on,53,48,0
2,note_on,53,0,152
2,note_on,50,0,0
2,note_on,58,0,0
2,note_on,46,0,0
2,note_on,46,63,8
2,note_on,58,63,0
2,note_on,41,63,0
2,note_on,58,0,160
2,note_on,53,58,0
2,note_on,53,0,160
2,note_on,53,58,0
2,note_on,53,0,80
2,note_on,41,0,80
2,note_on,46,0,0
2,note_on,51,62,0
2,note_on,46,62,0
2,note_on,51,0,160
2,note_on,53,58,0
2,note_on,53,0,160
2,note_on,53,58,0
2,note_on,53,0,80
2,note_on,46,0,80
2,note_on,50,60,0
2,note_on,46,60,0
2,note_on,50,0,160
2,note_on,53,58,0
2,note_on,53,0,160
2,note_on,53,58,0
2,note_on,53,0,80
2,note_on,46,0,80
2,note_on,51,61,0
2,note_on,46,61,0
2,note_on,51,0,160
2,note_on,53,58,0
2,note_on,53,0,160
2,note_on,53,58,0
2,note_on,53,0,80
2,note_on,46,0,80
2,note_on,52,60,0
2,note_on,46,60,0
2,note_on,52,0,160
2,note_on,53,58,0
2,note_on,53,0,160
2,note_on,53,58,0
2,note_on,53,0,80
2,note_on,53,60,80
2,note_on,53,0,160
2,note_on,53,58,0
2,note_on,53,0,160
2,note_on,53,58,0
2,note_on,53,0,80
2,note_on,53,62,80
2,note_on,53,0,160
2,note_on,53,58,0
2,note_on,53,0,160
2,note_on,53,58,0
2,note_on,53,0,160
2,note_on,46,0,0
2,note_on,51,61,0
2,note_on,46,61,0
2,note_on,51,0,160
2,note_on,53,53,0
2,note_on,53,0,160
2,note_on,50,53,0
2,note_on,50,0,160
2,note_on,46,0,0
2,note_on,51,60,0
2,note_on,41,60,0
2,note_on,51,0,160
2,note_on,53,55,0
2,note_on,53,0,152
2,note_on,53,55,8
2,note_on,53,0,152
2,note_on,41,0,8
2,note_on,51,60,0
2,note_on,41,60,0
2,note_on,51,0,160
2,note_on,53,56,0
2,note_on,53,0,152
2,note_on,53,56,8
2,note_on,53,0,152
2,note_on,41,0,8
2,note_on,51,62,0
2,note_on,41,62,0
2,note_on,51,0,160
2,note_on,53,58,0
2,note_on,53,0,152
2,note_on,53,58,8
2,note_on,53,0,152
2,note_on,41,0,8
2,note_on,50,62,0
2,note_on,41,62,0
2,note_on,50,0,160
2,note_on,53,59,0
2,note_on,53,0,160
2,note_on,48,59,0
2,note_on,48,0,160
2,note_on,41,0,0
2,note_on,50,62,0
2,note_on,46,62,0
2,note_on,50,0,160
2,note_on,53,56,0
2,note_on,53,0,152
2,note_on,53,56,8
2,note_on,53,0,152
2,note_on,51,60,8
2,note_on,51,0,160
2,note_on,55,56,0
2,note_on,55,0,152
2,note_on,55,56,8
2,note_on,55,0,152
2,note_on,50,60,8
2,note_on,50,0,160
2,note_on,53,56,0
2,note_on,53,0,152
2,note_on,53,57,8
2,note_on,53,0,152
2,note_on,46,0,8
2,note_on,50,59,0
2,note_on,44,59,0
2,note_on,50,0,160
2,note_on,53,54,0
2,note_on,53,0,152
2,note_on,53,54,8
2,note_on,53,0,152
2,note_on,44,0,8
2,note_on,53,59,0
2,note_on,43,59,0
2,note_on,53,0,160
2,note_on,55,53,0
2,note_on,55,0,152
2,note_on,55,53,8
2,note_on,55,0,152
2,note_on,53,56,8
2,note_on,53,0,160
2,note_on,55,53,0
2,note_on,55,0,152
2,note_on,55,53,8
2,note_on,55,0,152
2,note_on,53,57,8
2,note_on,53,0,160
2,note_on,55,51,0
2,note_on,55,0,152
2,note_on,55,51,8
2,note_on,55,0,152
2,note_on,43,0,8
2,note_on,51,56,0
2,note_on,43,56,0
2,note_on,51,0,160
2,note_on,55,51,0
2,note_on,55,0,160
2,note_on,50,51,0
2,note_on,50,0,160
2,note_on,43,0,0
2,note_on,48,54,0
2,note_on,43,54,0
2,note_on,48,0,160
2,note_on,55,50,0
2,note_on,55,0,152
2,note_on,55,50,8
2,note_on,55,0,152
2,note_on,43,0,8
2,note_on,53,54,0
2,note_on,43,54,0
2,note_on,53,0,160
2,note_on,55,50,0
2,note_on,55,0,152
2,note_on,55,50,8
2,note_on,55,0,152
2,note_on,43,0,8
2,note_on,51,55,0
2,note_on,43,55,0
2,note_on,51,0,160
2,note_on,55,50,0
2,note_on,55,0,152
2,note_on,55,50,8
2,note_on,55,0,152
2,note_on,43,0,8
2,note_on,51,57,0
2,note_on,42,57,0
2,note_on,51,0,160
2,note_on,54,52,0
2,note_on,54,0,152
2,note_on,54,52,8
2,note_on,54,0,152
2,note_on,42,0,8
2,note_on,51,58,0
2,note_on,41,58,0
2,note_on,51,0,160
2,note_on,53,52,0
2,note_on,53,0,152
2,note_on,53,52,8
2,note_on,53,0,152
2,note_on,51,56,8
2,note_on,51,0,160
2,note_on,53,52,0
2,note_on,53,0,152
2,note_on,53,53,8
2,note_on,53,0,152
2,note_on,51,57,8
2,note_on,51,0,160
2,note_on,53,52,0
2,note_on,53,0,152
2,note_on,53,52,8
2,note_on,53,0,152
2,note_on,41,0,8
2,note_on,50,57,0
2,note_on,41,57,0
2,note_on,50,0,160
2,note_on,53,54,0
2,note_on,53,0,160
2,note_on,48,51,0
2,note_on,48,0,160
2,note_on,41,0,0
2,note_on,46,58,0
2,note_on,41,58,0
2,note_on,46,0,160
2,note_on,53,53,0
2,note_on,53,0,152
2,note_on,53,53,8
2,note_on,53,0,152
2,note_on,41,0,8
2,note_on,48,58,0
2,note_on,41,58,0
2,note_on,48,0,160
2,note_on,53,52,0
2,note_on,53,0,152
2,note_on,53,52,8
2,note_on,53,0,152
2,note_on,41,0,8
2,note_on,50,56,0
2,note_on,41,56,0
2,note_on,50,0,160
2,note_on,53,52,0
2,note_on,53,0,152
2,note_on,53,52,8
2,note_on,53,0,152
2,note_on,41,0,8
2,note_on,51,56,0
2,note_on,41,56,0
2,note_on,51,0,160
2,note_on,53,52,0
2,note_on,53,0,152
2,note_on,53,52,8
2,note_on,53,0,152
2,note_on,41,0,8
2,note_on,41,51,0
2,note_on,51,51,0
2,note_on,53,50,160
2,note_on,53,0,152
2,note_on,53,50,8
2,note_on,53,0,152
2,note_on,53,50,8
2,note_on,53,0,152
2,note_on,53,50,8
2,note_on,53,0,152
2,note_on,53,49,8
2,note_on,53,0,152
2,note_on,51,0,8
2,note_on,41,0,0
2,note_on,53,49,0
2,note_on,53,0,152
2,note_on,53,49,8
2,note_on,53,0,152
2,note_on,53,49,8
2,note_on,53,0,152
2,note_on,53,48,8
2,note_on,53,0,152
2,note_on,53,48,8
2,note_on,53,0,152
2,note_on,53,48,8
2,note_on,53,0,152
2,note_on,41,45,8
2,note_on,50,48,0
2,note_on,53,42,160
2,note_on,53,0,152
2,note_on,53,39,8
2,note_on,53,0,152
2,note_on,53,38,8
2,note_on,53,0,152
2,note_on,53,38,8
2,note_on,53,0,152
2,note_on,53,37,8
2,note_on,53,0,152
2,note_on,53,37,8
2,note_on,53,0,152
2,note_on,53,36,8
2,note_on,53,0,152
2,note_on,53,35,8
2,note_on,53,0,152
2,note_on,53,36,8
2,note_on,53,0,152
2,note_on,53,40,8
2,note_on,53,0,152
2,note_on,53,44,8
2,note_on,53,0,152
2,note_on,50,0,8
2,note_on,41,0,0
2,note_on,53,50,0
2,note_on,53,0,160
2,note_on,44,42,0
2,note_on,44,0,152
2,note_on,44,42,8
2,note_on,44,0,152
2,note_on,44,42,8
2,note_on,44,0,152
2,note_on,44,42,8
2,note_on,44,0,152
2,note_on,44,42,8
2,note_on,44,0,152
2,note_on,44,42,8
2,note_on,44,0,152
2,note_on,44,42,8
2,note_on,44,0,152
2,note_on,44,42,8
2,note_on,44,0,152
2,note_on,44,44,8
2,note_on,44,0,152
2,note_on,44,44,8
2,note_on,44,0,152
2,note_on,44,44,8
2,note_on,44,0,152
2,note_on,44,49,8
2,note_on,44,0,160
2,note_on,42,49,0
2,note_on,42,0,152
2,note_on,42,49,8
2,note_on,42,0,152
2,note_on,42,55,8
2,note_on,42,0,152
2,note_on,42,55,8
2,note_on,42,0,152
2,note_on,42,56,8
2,note_on,42,0,152
2,note_on,42,63,8
2,note_on,42,0,240
2,note_on,42,65,240
2,note_on,42,0,360
2,note_on,39,59,0
2,note_on,39,0,40
2,note_on,38,61,0
2,note_on,38,0,40
2,note_on,37,59,0
2,note_on,37,0,40
2,note_on,35,65,0
2,note_on,35,0,120
2,note_on,59,42,1320
2,note_on,66,42,0
2,note_on,66,0,480
2,note_on,59,0,0
2,note_on,59,42,0
2,note_on,66,42,0
2,note_on,66,0,720
2,note_on,64,38,0
2,note_on,64,0,240
2,note_on,62,41,0
2,note_on,62,0,240
2,note_on,59,0,0
2,note_on,59,38,240
2,note_on,62,38,0
2,note_on,62,0,480
2,note_on,59,0,0
2,note_on,59,41,0
2,note_on,62,41,0
2,note_on,62,0,720
2,note_on,61,41,0
2,note_on,61,0,240
2,note_on,59,0,0
2,note_on,59,44,0
2,note_on,59,0,240
2,note_on,59,34,240
2,note_on,59,0,480
2,note_on,59,41,0
2,note_on,59,0,480
2,note_on,61,42,0
2,note_on,61,0,480
2,note_on,62,47,0
2,note_on,62,0,480
2,note_on,57,31,0
2,note_on,64,37,0
2,note_on,64,0,480
2,note_on,57,0,0
2,note_on,62,39,0
2,note_on,66,47,0
2,note_on,66,0,480
2,note_on,62,0,0
2,note_on,61,38,0
2,note_on,66,45,0
2,note_on,66,0,480
2,note_on,61,0,0
2,note_on,59,38,0
2,note_on,66,46,0
2,note_on,66,0,480
2,note_on,59,0,0
2,note_on,57,33,0
2,note_on,67,39,0
2,note_on,67,0,480
2,note_on,57,0,0
2,note_on,57,33,0
2,note_on,67,39,0
2,note_on,67,0,960
2,note_on,57,0,0
2,note_on,58,30,0
2,note_on,66,37,0
2,note_on,66,0,480
2,note_on,58,0,0
2,note_on,59,30,0
2,note_on,66,36,0
2,note_on,66,0,480
2,note_on,59,0,0
2,note_on,59,32,0
2,note_on,66,42,0
2,note_on,66,0,720
2,note_on,64,38,0
2,note_on,64,0,240
2,note_on,62,41,0
2,note_on,62,0,240
2,note_on,59,0,0
2,note_on,59,32,240
2,note_on,62,38,0
2,note_on,62,0,480
2,note_on,59,0,0
2,note_on,59,34,0
2,note_on,62,41,0
2,note_on,62,0,720
2,note_on,61,41,0
2,note_on,61,0,240
2,note_on,59,0,0
2,note_on,59,44,0
2,note_on,59,0,240
2,note_on,59,34,240
2,note_on,59,0,480
2,note_on,59,41,0
2,note_on,59,0,480
2,note_on,61,42,0
2,note_on,61,0,480
2,note_on,62,47,0
2,note_on,62,0,480
2,note_on,57,31,0
2,note_on,64,37,0
2,note_on,64,0,480
2,note_on,57,0,0
2,note_on,62,39,0
2,note_on,66,47,0
2,note_on,66,0,480
2,note_on,62,0,0
2,note_on,61,38,0
2,note_on,66,45,0
2,note_on,66,0,480
2,note_on,61,0,0
2,note_on,59,38,0
2,note_on,66,46,0
2,note_on,66,0,480
2,note_on,59,0,0
2,note_on,57,33,0
2,note_on,67,39,0
2,note_on,67,0,480
2,note_on,57,0,0
2,note_on,57,33,0
2,note_on,67,39,0
2,note_on,67,0,960
2,note_on,57,0,0
2,note_on,62,37,0
2,note_on,66,37,0
2,note_on,66,0,160
2,note_on,62,0,0
2,note_on,69,29,0
2,note_on,69,0,152
2,note_on,69,29,8
2,note_on,69,0,152
2,note_on,69,33,8
2,note_on,69,0,152
2,note_on,69,29,8
2,note_on,69,0,152
2,note_on,69,29,8
2,note_on,69,0,152
2,note_on,63,33,8
2,note_on,63,0,120
2,note_on,69,27,0
2,note_on,69,0,120
2,note_on,66,27,0
2,note_on,66,0,120
2,note_on,69,27,0
2,note_on,69,0,120
2,note_on,63,33,0
2,note_on,63,0,120
2,note_on,69,28,0
2,note_on,69,0,120
2,note_on,66,28,0
2,note_on,66,0,120
2,note_on,69,29,0
2,note_on,69,0,120
2,note_on,63,33,0
2,note_on,63,0,120
2,note_on,69,29,0
2,note_on,69,0,120
2,note_on,66,29,0
2,note_on,66,0,120
2,note_on,69,29,0
2,note_on,69,0,120
2,note_on,62,33,0
2,note_on,62,0,120
2,note_on,69,29,0
2,note_on,69,0,120
2,note_on,66,29,0
2,note_on,66,0,120
2,note_on,69,29,0
2,note_on,69,0,120
2,note_on,60,33,0
2,note_on,60,0,120
2,note_on,69,27,0
2,note_on,69,0,120
2,note_on,66,27,0
2,note_on,66,0,120
2,note_on,69,27,0
2,note_on,69,0,120
2,note_on,60,33,0
2,note_on,60,0,120
2,note_on,69,28,0
2,note_on,69,0,120
2,note_on,66,28,0
2,note_on,66,0,120
2,note_on,69,29,0
2,note_on,69,0,120
2,note_on,60,33,0
2,note_on,60,0,120
2,note_on,69,29,0
2,note_on,69,0,120
2,note_on,66,29,0
2,note_on,66,0,120
2,note_on,69,29,0
2,note_on,69,0,120
2,note_on,59,33,0
2,note_on,59,0,120
2,note_on,69,29,0
2,note_on,69,0,120
2,note_on,66,29,0
2,note_on,66,0,120
2,note_on,69,29,0
2,note_on,69,0,120
2,note_on,59,33,0
2,note_on,59,0,120
2,note_on,69,28,0
2,note_on,69,0,120
2,note_on,66,28,0
2,note_on,66,0,120
2,note_on,69,28,0
2,note_on,69,0,120
2,note_on,59,34,0
2,note_on,59,0,120
2,note_on,67,28,0
2,note_on,67,0,120
2,note_on,64,28,0
2,note_on,64,0,120
2,note_on,67,29,0
2,note_on,67,0,120
2,note_on,59,35,0
2,note_on,59,0,120
2,note_on,66,29,0
2,note_on,66,0,120
2,note_on,63,29,0
2,note_on,63,0,120
2,note_on,66,29,0
2,note_on,66,0,120
2,note_on,59,36,0
2,note_on,59,0,120
2,note_on,67,31,0
2,note_on,67,0,120
2,note_on,64,31,0
2,note_on,64,0,120
2,note_on,67,31,0
2,note_on,67,0,120
2,note_on,59,37,0
2,note_on,59,0,120
2,note_on,69,31,0
2,note_on,69,0,120
2,note_on,66,32,0
2,note_on,66,0,120
2,note_on,69,32,0
2,note_on,69,0,120
2,note_on,60,37,0
2,note_on,60,0,120
2,note_on,69,31,0
2,note_on,69,0,120
2,note_on,66,31,0
2,note_on,66,0,120
2,note_on,69,31,0
2,note_on,69,0,120
2,note_on,61,38,0
2,note_on,61,0,120
2,note_on,69,32,0
2,note_on,69,0,120
2,note_on,66,32,0
2,note_on,66,0,120
2,note_on,69,33,0
2,note_on,69,0,120
2,note_on,62,39,0
2,note_on,62,0,120
2,note_on,69,32,0
2,note_on,69,0,120
2,note_on,66,34,0
2,note_on,66,0,120
2,note_on,69,34,0
2,note_on,69,0,120
2,note_on,62,33,0
2,note_on,62,0,120
2,note_on,69,27,0
2,note_on,69,0,120
2,note_on,66,27,0
2,note_on,66,0,120
2,note_on,69,27,0
2,note_on,69,0,120
2,note_on,63,33,0
2,note_on,63,0,120
2,note_on,69,28,0
2,note_on,69,0,120
2,note_on,66,28,0
2,note_on,66,0,120
2,note_on,69,29,0
2,note_on,69,0,120
2,note_on,63,33,0
2,note_on,63,0,120
2,note_on,69,29,0
2,note_on,69,0,120
2,note_on,66,29,0
2,note_on,66,0,120
2,note_on,69,29,0
2,note_on,69,0,120
2,note_on,62,33,0
2,note_on,62,0,120
2,note_on,69,29,0
2,note_on,69,0,120
2,note_on,66,29,0
2,note_on,66,0,120
2,note_on,69,29,0
2,note_on,69,0,120
2,note_on,60,33,0
2,note_on,60,0,120
2,note_on,69,27,0
2,note_on,69,0,120
2,note_on,66,27,0
2,note_on,66,0,120
2,note_on,69,27,0
2,note_on,69,0,120
2,note_on,60,33,0
2,note_on,60,0,120
2,note_on,69,28,0
2,note_on,69,0,120
2,note_on,66,28,0
2,note_on,66,0,120
2,note_on,69,29,0
2,note_on,69,0,120
2,note_on,60,33,0
2,note_on,60,0,120
2,note_on,69,29,0
2,note_on,69,0,120
2,note_on,66,29,0
2,note_on,66,0,120
2,note_on,69,31,0
2,note_on,69,0,120
2,note_on,59,36,0
2,note_on,59,0,120
2,note_on,69,31,0
2,note_on,69,0,120
2,note_on,66,31,0
2,note_on,66,0,120
2,note_on,69,31,0
2,note_on,69,0,120
2,note_on,59,36,0
2,note_on,59,0,120
2,note_on,69,30,0
2,note_on,69,0,120
2,note_on,66,30,0
2,note_on,66,0,120
2,note_on,69,30,0
2,note_on,69,0,120
2,note_on,59,37,0
2,note_on,59,0,120
2,note_on,67,30,0
2,note_on,67,0,120
2,note_on,64,30,0
2,note_on,64,0,120
2,note_on,67,31,0
2,note_on,67,0,120
2,note_on,59,38,0
2,note_on,59,0,120
2,note_on,66,31,0
2,note_on,66,0,120
2,note_on,63,31,0
2,note_on,63,0,120
2,note_on,66,31,0
2,note_on,66,0,120
2,note_on,59,39,0
2,note_on,59,0,120
2,note_on,67,34,0
2,note_on,67,0,120
2,note_on,64,34,0
2,note_on,64,0,120
2,note_on,67,34,0
2,note_on,67,0,120
2,note_on,59,40,0
2,note_on,59,0,120
2,note_on,69,34,0
2,note_on,69,0,120
2,note_on,66,35,0
2,note_on,66,0,120
2,note_on,69,35,0
2,note_on,69,0,120
2,note_on,60,40,0
2,note_on,60,0,120
2,note_on,69,34,0
2,note_on,69,0,120
2,note_on,66,34,0
2,note_on,66,0,120
2,note_on,69,34,0
2,note_on,69,0,120
2,note_on,61,41,0
2,note_on,61,0,120
2,note_on,69,35,0
2,note_on,69,0,120
2,note_on,66,35,0
2,note_on,66,0,120
2,note_on,69,36,0
2,note_on,69,0,120
2,note_on,62,42,0
2,note_on,62,0,120
2,note_on,69,35,0
2,note_on,69,0,120
2,note_on,66,37,0
2,note_on,66,0,120
2,note_on,69,37,0
2,note_on,69,0,120
2,note_on,62,36,0
2,note_on,62,0,120
2,note_on,69,29,0
2,note_on,69,0,120
2,note_on,66,29,0
2,note_on,66,0,120
2,note_on,69,29,0
2,note_on,69,0,120
2,note_on,63,36,0
2,note_on,63,0,120
2,note_on,69,30,0
2,note_on,69,0,120
2,note_on,66,30,0
2,note_on,66,0,120
2,note_on,69,31,0
2,note_on,69,0,120
2,note_on,62,36,0
2,note_on,62,0,120
2,note_on,69,31,0
2,note_on,69,0,120
2,note_on,66,31,0
2,note_on,66,0,120
2,note_on,69,31,0
2,note_on,69,0,120
2,note_on,60,36,0
2,note_on,60,0,120
2,note_on,69,31,0
2,note_on,69,0,120
2,note_on,66,31,0
2,note_on,66,0,120
2,note_on,69,31,0
2,note_on,69,0,120
2,note_on,58,36,0
2,note_on,58,0,120
2,note_on,67,29,0
2,note_on,67,0,120
2,note_on,62,29,0
2,note_on,62,0,120
2,note_on,67,29,0
2,note_on,67,0,120
2,note_on,57,36,0
2,note_on,57,0,120
2,note_on,67,30,0
2,note_on,67,0,120
2,note_on,60,30,0
2,note_on,60,0,120
2,note_on,67,31,0
2,note_on,67,0,120
2,note_on,55,36,0
2,note_on,55,0,120
2,note_on,67,31,0
2,note_on,67,0,120
2,note_on,58,31,0
2,note_on,58,0,120
2,note_on,67,31,0
2,note_on,67,0,120
2,note_on,58,36,0
2,note_on,58,0,120
2,note_on,67,31,0
2,note_on,67,0,120
2,note_on,62,31,0
2,note_on,62,0,120
2,note_on,67,31,0
2,note_on,67,0,120
2,note_on,62,36,0
2,note_on,62,0,120
2,note_on,69,29,0
2,note_on,69,0,120
2,note_on,66,29,0
2,note_on,66,0,120
2,note_on,69,29,0
2,note_on,69,0,120
2,note_on,63,36,0
2,note_on,63,0,120
2,note_on,69,30,0
2,note_on,69,0,120
2,note_on,66,30,0
2,note_on,66,0,120
2,note_on,69,31,0
2,note_on,69,0,120
2,note_on,62,36,0
2,note_on,62,0,120
2,note_on,69,31,0
2,note_on,69,0,120
2,note_on,66,31,0
2,note_on,66,0,120
2,note_on,69,31,0
2,note_on,69,0,120
2,note_on,60,37,0
2,note_on,60,0,120
2,note_on,69,32,0
2,note_on,69,0,120
2,note_on,66,32,0
2,note_on,66,0,120
2,note_on,69,32,0
2,note_on,69,0,120
2,note_on,58,37,0
2,note_on,58,0,120
2,note_on,70,31,0
2,note_on,70,0,120
2,note_on,67,32,0
2,note_on,67,0,120
2,note_on,70,32,0
2,note_on,70,0,120
2,note_on,58,39,0
2,note_on,58,0,120
2,note_on,70,34,0
2,note_on,70,0,120
2,note_on,67,34,0
2,note_on,67,0,120
2,note_on,70,35,0
2,note_on,70,0,120
2,note_on,58,42,0
2,note_on,58,0,120
2,note_on,70,37,0
2,note_on,70,0,120
2,note_on,67,37,0
2,note_on,67,0,120
2,note_on,70,37,0
2,note_on,70,0,120
2,note_on,58,44,0
2,note_on,58,0,120
2,note_on,72,39,0
2,note_on,72,0,120
2,note_on,68,40,0
2,note_on,68,0,120
2,note_on,72,40,0
2,note_on,72,0,120
2,note_on,58,48,0
2,note_on,58,0,120
2,note_on,70,38,0
2,note_on,70,0,120
2,note_on,67,38,0
2,note_on,67,0,120
2,note_on,70,38,0
2,note_on,70,0,120
2,note_on,58,47,0
2,note_on,58,0,120
2,note_on,68,39,0
2,note_on,68,0,120
2,note_on,65,39,0
2,note_on,65,0,120
2,note_on,68,39,0
2,note_on,68,0,120
2,note_on,58,42,0
2,note_on,58,0,120
2,note_on,67,36,0
2,note_on,67,0,120
2,note_on,63,36,0
2,note_on,63,0,120
2,note_on,67,37,0
2,note_on,67,0,120
2,note_on,58,42,0
2,note_on,58,0,120
2,note_on,65,35,0
2,note_on,65,0,120
2,note_on,61,35,0
2,note_on,61,0,120
2,note_on,65,35,0
2,note_on,65,0,120
2,note_on,58,35,0
2,note_on,58,0,120
2,note_on,64,29,0
2,note_on,64,0,120
2,note_on,61,29,0
2,note_on,61,0,120
2,note_on,64,29,0
2,note_on,64,0,120
2,note_on,58,34,0
2,note_on,58,0,120
2,note_on,64,29,0
2,note_on,64,0,120
2,note_on,61,29,0
2,note_on,61,0,120
2,note_on,64,29,0
2,note_on,64,0,120
2,note_on,58,33,0
2,note_on,58,0,120
2,note_on,64,29,0
2,note_on,64,0,120
2,note_on,61,29,0
2,note_on,61,0,120
2,note_on,64,29,0
2,note_on,64,0,120
2,note_on,58,33,0
2,note_on,58,0,120
2,note_on,64,29,0
2,note_on,64,0,120
2,note_on,61,29,0
2,note_on,61,0,120
2,note_on,64,29,0
2,note_on,64,0,120
2,note_on,58,31,0
2,note_on,58,0,120
2,note_on,64,27,0
2,note_on,64,0,120
2,note_on,61,27,0
2,note_on,61,0,120
2,note_on,64,27,0
2,note_on,64,0,120
2,note_on,58,32,0
2,note_on,58,0,120
2,note_on,64,27,0
2,note_on,64,0,120
2,note_on,61,27,0
2,note_on,61,0,120
2,note_on,64,27,0
2,note_on,64,0,120
2,note_on,57,32,0
2,note_on,57,0,120
2,note_on,64,26,0
2,note_on,64,0,120
2,note_on,61,26,0
2,note_on,61,0,120
2,note_on,64,26,0
2,note_on,64,0,120
2,note_on,55,31,0
2,note_on,55,0,120
2,note_on,64,26,0
2,note_on,64,0,120
2,note_on,61,26,0
2,note_on,61,0,120
2,note_on,64,26,0
2,note_on,64,0,120
2,note_on,53,31,0
2,note_on,53,0,120
2,note_on,65,24,0
2,note_on,65,0,120
2,note_on,62,24,0
2,note_on,62,0,120
2,note_on,65,24,0
2,note_on,65,0,120
2,note_on,53,30,0
2,note_on,53,0,120
2,note_on,67,25,0
2,note_on,67,0,120
2,note_on,63,25,0
2,note_on,63,0,120
2,note_on,67,26,0
2,note_on,67,0,120
2,note_on,53,29,0
2,note_on,53,0,120
2,note_on,65,26,0
2,note_on,65,0,120
2,note_on,62,26,0
2,note_on,62,0,120
2,note_on,65,26,0
2,note_on,65,0,120
2,note_on,53,30,0
2,note_on,53,0,120
2,note_on,67,26,0
2,note_on,67,0,120
2,note_on,63,26,0
2,note_on,63,0,120
2,note_on,67,26,0
2,note_on,67,0,120
2,note_on,53,31,0
2,note_on,53,0,120
2,note_on,65,24,0
2,note_on,65,0,120
2,note_on,62,24,0
2,note_on,62,0,120
2,note_on,65,24,0
2,note_on,65,0,120
2,note_on,53,30,0
2,note_on,53,0,120
2,note_on,67,25,0
2,note_on,67,0,120
2,note_on,63,25,0
2,note_on,63,0,120
2,note_on,67,26,0
2,note_on,67,0,120
2,note_on,53,29,0
2,note_on,53,0,120
2,note_on,65,26,0
2,note_on,65,0,120
2,note_on,62,26,0
2,note_on,62,0,120
2,note_on,65,26,0
2,note_on,65,0,120
2,note_on,53,30,0
2,note_on,53,0,120
2,note_on,67,26,0
2,note_on,67,0,120
2,note_on,63,26,0
2,note_on,63,0,120
2,note_on,67,26,0
2,note_on,67,0,120
2,note_on,53,31,0
2,note_on,53,0,120
2,note_on,65,24,0
2,note_on,65,0,120
2,note_on,62,24,0
2,note_on,62,0,120
2,note_on,65,24,0
2,note_on,65,0,120
2,note_on,53,30,0
2,note_on,53,0,120
2,note_on,67,26,0
2,note_on,67,0,120
2,note_on,63,26,0
2,note_on,63,0,120
2,note_on,67,27,0
2,note_on,67,0,120
2,note_on,53,30,0
2,note_on,53,0,120
2,note_on,65,27,0
2,note_on,65,0,120
2,note_on,62,28,0
2,note_on,62,0,120
2,note_on,65,28,0
2,note_on,65,0,120
2,note_on,53,33,0
2,note_on,53,0,120
2,note_on,67,28,0
2,note_on,67,0,120
2,note_on,63,28,0
2,note_on,63,0,120
2,note_on,67,28,0
2,note_on,67,0,120
2,note_on,53,34,0
2,note_on,53,0,120
2,note_on,65,26,0
2,note_on,65,0,120
2,note_on,62,26,0
2,note_on,62,0,120
2,note_on,65,26,0
2,note_on,65,0,120
2,note_on,53,33,0
2,note_on,53,0,120
2,note_on,67,27,0
2,note_on,67,0,120
2,note_on,63,27,0
2,note_on,63,0,120
2,note_on,67,28,0
2,note_on,67,0,120
2,note_on,53,31,0
2,note_on,53,0,120
2,note_on,65,28,0
2,note_on,65,0,120
2,note_on,62,28,0
2,note_on,62,0,120
2,note_on,65,28,0
2,note_on,65,0,120
2,note_on,53,36,0
2,note_on,53,0,120
2,note_on,67,30,0
2,note_on,67,0,120
2,note_on,63,30,0
2,note_on,63,0,120
2,note_on,67,30,0
2,note_on,67,0,120
2,note_on,53,42,0
2,note_on,53,0,120
2,note_on,65,35,0
2,note_on,65,0,120
2,note_on,62,35,0
2,note_on,62,0,120
2,note_on,65,35,0
2,note_on,65,0,120
2,note_on,53,44,0
2,note_on,53,0,120
2,note_on,67,37,0
2,note_on,67,0,120
2,note_on,63,38,0
2,note_on,63,0,120
2,note_on,67,37,0
2,note_on,67,0,120
2,note_on,53,47,0
2,note_on,53,0,120
2,note_on,65,37,0
2,note_on,65,0,120
2,note_on,62,38,0
2,note_on,62,0,120
2,note_on,65,38,0
2,note_on,65,0,120
2,note_on,53,49,0
2,note_on,53,0,120
2,note_on,65,40,0
2,note_on,65,0,120
2,note_on,63,40,0
2,note_on,63,0,120
2,note_on,65,40,0
2,note_on,65,0,120
2,note_on,53,41,0
2,note_on,65,49,0
2,note_on,63,41,0
2,note_on,63,0,1920
2,note_on,65,0,0
2,note_on,53,0,0
2,note_on,58,32,0
2,note_on,62,32,0
2,note_on,65,38,0
2,note_on,65,0,480
2,note_on,62,0,0
2,note_on,58,0,0
2,note_on,58,29,480
2,note_on,62,29,0
2,note_on,65,35,0
2,note_on,65,0,240
2,note_on,62,0,0
2,note_on,58,0,0
2,note_on,58,29,240
2,note_on,65,29,0
2,note_on,68,35,0
2,note_on,68,0,240
2,note_on,65,0,0
2,note_on,58,0,0
2,note_on,58,32,240
2,note_on,63,32,0
2,note_on,67,38,0
2,note_on,67,0,480
2,note_on,63,0,0
2,note_on,58,0,0
2,note_on,58,29,480
2,note_on,63,29,0
2,note_on,67,35,0
2,note_on,67,0,240
2,note_on,63,0,0
2,note_on,58,0,0
2,note_on,58,29,240
2,note_on,67,29,0
2,note_on,70,35,0
2,note_on,70,0,240
2,note_on,67,0,0
2,note_on,58,0,0
2,note_on,58,32,240
2,note_on,62,32,0
2,note_on,65,38,0
2,note_on,65,0,480
2,note_on,62,0,0
2,note_on,58,0,0
2,note_on,58,29,480
2,note_on,62,35,0
2,note_on,62,0,240
2,note_on,58,0,0
2,note_on,62,29,240
2,note_on,65,35,0
2,note_on,65,0,240
2,note_on,62,0,0
2,note_on,53,29,240
2,note_on,62,29,0
2,note_on,65,35,0
2,note_on,65,0,240
2,note_on,62,0,0
2,note_on,53,0,0
2,note_on,53,28,240
2,note_on,67,34,0
2,note_on,63,28,0
2,note_on,63,0,240
2,note_on,67,0,0
2,note_on,53,0,0
2,note_on,53,28,240
2,note_on,62,28,0
2,note_on,65,33,0
2,note_on,65,0,240
2,note_on,62,0,0
2,note_on,53,0,0
2,note_on,53,28,240
2,note_on,60,28,0
2,note_on,63,34,0
2,note_on,63,0,240
2,note_on,60,0,0
2,note_on,53,0,0
2,note_on,53,29,240
2,note_on,59,29,0
2,note_on,62,35,0
2,note_on,62,0,240
2,note_on,59,0,0
2,note_on,53,0,0
2,note_on,53,28,240
2,note_on,62,35,0
2,note_on,59,28,0
2,note_on,59,0,240
2,note_on,62,0,0
2,note_on,53,0,0
2,note_on,53,29,240
2,note_on,59,29,0
2,note_on,62,35,0
2,note_on,62,0,240
2,note_on,59,0,0
2,note_on,53,0,0
2,note_on,53,31,240
2,note_on,59,31,0
2,note_on,62,37,0
2,note_on,62,0,240
2,note_on,59,0,0
2,note_on,53,0,0
2,note_on,51,33,240
2,note_on,58,33,0
2,note_on,63,40,0
2,note_on,63,0,240
2,note_on,58,0,0
2,note_on,51,0,0
2,note_on,51,31,240
2,note_on,63,38,0
2,note_on,58,31,0
2,note_on,58,0,240
2,note_on,63,0,0
2,note_on,51,0,0
2,note_on,53,31,240
2,note_on,58,31,0
2,note_on,62,37,0
2,note_on,62,0,240
2,note_on,58,0,0
2,note_on,53,0,0
2,note_on,53,31,240
2,note_on,60,31,0
2,note_on,63,38,0
2,note_on,63,0,240
2,note_on,60,0,0
2,note_on,53,0,0
2,note_on,58,47,240
2,note_on,58,0,160
2,note_on,65,44,0
2,note_on,65,0,160
2,note_on,62,44,0
2,note_on,62,0,80
2,note_on,58,47,80
2,note_on,58,0,80
2,note_on,53,43,80
2,note_on,53,0,80
2,note_on,50,41,80
2,note_on,50,0,80
2,note_on,46,45,80
2,note_on,46,0,80
2,note_on,50,41,80
2,note_on,50,0,80
2,note_on,53,41,80
2,note_on,53,0,80
2,note_on,50,47,80
2,note_on,50,0,80
2,note_on,53,45,80
2,note_on,53,0,80
2,note_on,58,45,80
2,note_on,58,0,80
2,note_on,58,47,80
2,note_on,58,0,160
2,note_on,67,44,0
2,note_on,67,0,160
2,note_on,63,44,0
2,note_on,63,0,80
2,note_on,58,47,80
2,note_on,58,0,80
2,note_on,55,43,80
2,note_on,55,0,80
2,note_on,51,41,80
2,note_on,51,0,80
2,note_on,46,45,80
2,note_on,46,0,80
2,note_on,51,41,80
2,note_on,51,0,80
2,note_on,55,41,80
2,note_on,55,0,80
2,note_on,51,47,80
2,note_on,51,0,80
2,note_on,55,45,80
2,note_on,55,0,80
2,note_on,58,45,80
2,note_on,58,0,80
2,note_on,58,47,80
2,note_on,58,0,160
2,note_on,70,44,0
2,note_on,70,0,160
2,note_on,65,44,0
2,note_on,65,0,80
2,note_on,62,47,80
2,note_on,62,0,80
2,note_on,58,43,80
2,note_on,58,0,80
2,note_on,53,41,80
2,note_on,53,0,80
2,note_on,50,45,80
2,note_on,50,0,80
2,note_on,46,41,80
2,note_on,46,0,80
2,note_on,41,41,80
2,note_on,41,0,80
2,note_on,46,47,80
2,note_on,46,0,80
2,note_on,50,45,80
2,note_on,50,0,80
2,note_on,53,45,80
2,note_on,53,0,80
2,note_on,53,29,80
2,note_on,62,29,0
2,note_on,65,35,0
2,note_on,65,0,240
2,note_on,62,0,0
2,note_on,53,0,0
2,note_on,65,28,240
2,note_on,79,34,0
2,note_on,75,28,0
2,note_on,75,0,240
2,note_on,79,0,0
2,note_on,65,0,0
2,note_on,65,28,240
2,note_on,74,28,0
2,note_on,77,33,0
2,note_on,77,0,240
2,note_on,74,0,0
2,note_on,65,0,0
2,note_on,65,28,240
2,note_on,72,28,0
2,note_on,75,34,0
2,note_on,75,0,240
2,note_on,72,0,0
2,note_on,65,0,0
2,note_on,65,29,240
2,note_on,71,29,0
2,note_on,74,35,0
2,note_on,74,0,240
2,note_on,71,0,0
2,note_on,65,0,0
2,note_on,65,28,240
2,note_on,74,35,0
2,note_on,71,28,0
2,note_on,71,0,240
2,note_on,74,0,0
2,note_on,65,0,0
2,note_on,65,29,240
2,note_on,71,29,0
2,note_on,74,35,0
2,note_on,74,0,240
2,note_on,71,0,0
2,note_on,65,0,0
2,note_on,65,31,240
2,note_on,71,31,0
2,note_on,74,37,0
2,note_on,74,0,240
2,note_on,71,0,0
2,note_on,65,0,0
2,note_on,63,33,240
2,note_on,70,33,0
2,note_on,75,40,0
2,note_on,75,0,240
2,note_on,70,0,0
2,note_on,63,0,0
2,note_on,63,31,240
2,note_on,75,38,0
2,note_on,70,31,0
2,note_on,70,0,240
2,note_on,75,0,0
2,note_on,63,0,0
2,note_on,65,31,240
2,note_on,70,31,0
2,note_on,74,37,0
2,note_on,74,0,240
2,note_on,70,0,0
2,note_on,65,0,0
2,note_on,65,31,240
2,note_on,72,31,0
2,note_on,75,38,0
2,note_on,75,0,240
2,note_on,72,0,0
2,note_on,65,0,0
2,note_on,51,26,240
2,note_on,57,26,0
2,note_on,60,31,0
2,note_on,60,0,240
2,note_on,57,0,0
2,note_on,51,0,0
2,note_on,51,25,240
2,note_on,60,31,0
2,note_on,57,25,0
2,note_on,57,0,240
2,note_on,60,0,0
2,note_on,51,0,0
2,note_on,51,26,240
2,note_on,57,26,0
2,note_on,60,31,0
2,note_on,60,0,240
2,note_on,57,0,0
2,note_on,51,0,0
2,note_on,51,27,240
2,note_on,57,27,0
2,note_on,60,33,0
2,note_on,60,0,240
2,note_on,57,0,0
2,note_on,51,0,0
2,note_on,49,29,240
2,note_on,56,29,0
2,note_on,61,36,0
2,note_on,61,0,240
2,note_on,56,0,0
2,note_on,49,0,0
2,note_on,49,27,240
2,note_on,61,34,0
2,note_on,56,27,0
2,note_on,56,0,240
2,note_on,61,0,0
2,note_on,49,0,0
2,note_on,51,27,240
2,note_on,56,27,0
2,note_on,60,33,0
2,note_on,60,0,240
2,note_on,56,0,0
2,note_on,51,0,0
2,note_on,51,27,240
2,note_on,58,27,0
2,note_on,61,34,0
2,note_on,61,0,240
2,note_on,58,0,0
2,note_on,51,0,0
2,note_on,71,31,1200
2,note_on,71,0,240
2,note_on,68,33,240
2,note_on,68,0,240
2,note_on,73,33,240
2,note_on,73,0,240
2,note_on,73,31,240
2,note_on,73,0,240
2,note_on,49,29,720
2,note_on,49,0,240
2,note_on,49,29,240
2,note_on,49,0,240
2,note_on,50,26,720
2,note_on,50,0,240
2,note_on,50,26,240
2,note_on,50,0,240
2,note_on,62,26,720
2,note_on,62,0,240
2,note_on,63,27,240
2,note_on,63,0,240
2,note_on,51,30,240
2,note_on,51,0,240
2,note_on,53,33,240
2,note_on,53,0,240
2,note_on,53,35,240
2,note_on,53,0,240
2,note_on,63,41,240
2,note_on,60,35,0
2,note_on,53,35,0
2,note_on,53,0,240
2,note_on,60,0,0
2,note_on,63,0,0
2,note_on,53,36,240
2,note_on,60,36,0
2,note_on,63,42,0
2,note_on,63,0,240
2,note_on,60,0,0
2,note_on,53,0,0
2,note_on,53,36,240
2,note_on,46,36,0
2,note_on,58,42,0
2,note_on,58,0,120
2,note_on,46,0,0
2,note_on,53,0,0
2,note_on,62,36,840
2,note_on,65,44,0
2,note_on,62,0,720
2,note_on,60,30,0
2,note_on,63,36,0
2,note_on,63,0,240
2,note_on,60,0,0
2,note_on,65,0,0
2,note_on,58,36,0
2,note_on,62,44,0
2,note_on,62,0,480
2,note_on,58,0,0
2,note_on,56,38,0
2,note_on,62,45,0
2,note_on,62,0,480
2,note_on,56,0,0
2,note_on,55,40,0
2,note_on,62,48,0
2,note_on,62,0,480
2,note_on,55,0,0
2,note_on,48,37,0
2,note_on,55,37,0
2,note_on,60,44,0
2,note_on,60,0,480
2,note_on,55,0,0
2,note_on,48,0,0
2,note_on,53,41,0
2,note_on,63,49,0
2,note_on,63,0,960
2,note_on,53,0,0
2,note_on,58,32,0
2,note_on,62,38,0
2,note_on,62,0,120
2,note_on,58,0,0
2,note_on,58,28,360
2,note_on,62,34,0
2,note_on,62,0,120
2,note_on,58,0,0
2,note_on,50,35,1320
2,note_on,53,42,0
2,note_on,53,0,237
2,note_on,50,0,483
2,note_on,48,30,0
2,note_on,51,36,0
2,note_on,51,0,240
2,note_on,48,0,0
2,note_on,46,36,0
2,note_on,50,44,0
2,note_on,50,0,480
2,note_on,46,0,0
2,note_on,44,38,0
2,note_on,50,45,0
2,note_on,50,0,480
2,note_on,44,0,0
2,note_on,43,40,0
2,note_on,50,48,0
2,note_on,50,0,390
2,note_on,43,0,0
2,note_on,36,35,0
2,note_on,43,37,15
2,note_on,48,40,15
2,note_on,48,0,300
2,note_on,43,0,0
2,note_on,36,0,0
2,note_on,58,45,720
2,note_on,63,53,0
2,note_on,63,0,480
2,note_on,58,0,0
2,note_on,56,49,0
2,note_on,63,59,0
2,note_on,63,0,390
2,note_on,56,0,0
2,note_on,49,49,0
2,note_on,56,52,15
2,note_on,61,56,15
2,note_on,56,0,290
2,note_on,61,0,10
2,note_on,49,0,0
2,note_on,45,70,720
2,note_on,49,70,0
2,note_on,52,84,0
2,note_on,52,0,390
2,note_on,49,0,0
2,note_on,45,0,0
2,note_on,38,70,0
2,note_on,45,73,15
2,note_on,50,77,15
2,note_on,50,0,300
2,note_on,45,0,0
2,note_on,38,0,0
2,note_on,58,49,720
2,note_on,68,58,0
2,note_on,68,0,960
2,note_on,58,0,0
2,note_on,63,38,0
2,note_on,67,45,0
2,note_on,67,0,120
2,note_on,63,0,0
2,note_on,63,33,360
2,note_on,67,40,0
2,note_on,67,0,120
2,note_on,63,0,0
2,note_on,63,38,360
2,note_on,70,45,0
2,note_on,70,0,1440
2,note_on,63,0,0
2,note_on,41,33,2400
2,note_on,51,39,0
2,note_on,51,0,960
2,note_on,41,0,0
2,note_on,46,30,0
2,note_on,50,36,0
2,note_on,50,0,120
2,note_on,46,0,0
2,note_on,46,24,360
2,note_on,50,32,0
2,note_on,50,0,120
2,note_on,46,0,0
2,note_on,46,30,360
2,note_on,53,36,0
2,note_on,53,0,1440
2,note_on,46,0,0
2,note_on,58,49,480
2,note_on,68,58,0
2,note_on,68,0,960
2,note_on,58,0,0
2,note_on,63,38,0
2,note_on,67,45,0
2,note_on,67,0,120
2,note_on,63,0,0
2,note_on,63,39,360
2,note_on,67,48,0
2,note_on,67,0,120
2,note_on,63,0,0
2,note_on,53,24,6120
2,note_on,63,32,0
2,note_on,63,0,960
2,note_on,53,0,0
2,note_on,58,27,0
2,note_on,62,32,0
2,note_on,62,0,120
2,note_on,58,0,0
2,note_on,58,21,360
2,note_on,62,28,0
2,note_on,62,0,120
2,note_on,58,0,0
2,note_on,58,27,360
2,note_on,65,32,0
2,note_on,65,0,1440
2,note_on,58,0,0
2,note_on,56,35,480
2,note_on,62,35,0
2,note_on,65,41,0
2,note_on,65,0,1440
2,note_on,62,0,0
2,note_on,56,0,0
2,note_on,65,41,480
2,note_on,62,34,0
2,note_on,55,34,0
2,note_on,55,0,1920
2,note_on,62,0,0
2,note_on,65,0,0
2,note_on,63,34,0
2,note_on,60,28,0
2,note_on,60,0,480
2,note_on,63,0,0
2,note_on,60,36,1440
2,note_on,60,0,240
2,note_on,53,30,240
2,note_on,60,36,0
2,note_on,60,0,360
2,note_on,62,31,0
2,note_on,62,0,120
2,note_on,53,0,0
2,note_on,53,28,0
2,note_on,63,32,0
2,note_on,63,0,480
2,note_on,53,0,0
2,note_on,53,27,0
2,note_on,60,32,0
2,note_on,60,0,480
2,note_on,53,0,0
2,note_on,46,30,0
2,note_on,58,36,0
2,note_on,58,0,240
2,note_on,46,0,0
2,note_on,46,27,240
2,note_on,53,32,0
2,note_on,53,0,1440
2,note_on,46,0,0
2,note_on,44,35,480
2,note_on,53,41,0
2,note_on,53,0,1440
2,note_on,44,0,0
2,note_on,53,41,0
2,note_on,50,34,0
2,note_on,43,34,0
2,note_on,43,0,1920
2,note_on,50,0,0
2,note_on,53,0,0
2,note_on,51,30,0
2,note_on,48,25,0
2,note_on,48,0,480
2,note_on,51,0,0
2,note_on,48,32,1440
2,note_on,48,0,240
2,note_on,41,27,240
2,note_on,48,32,0
2,note_on,48,0,360
2,note_on,50,27,0
2,note_on,50,0,120
2,note_on,41,0,0
2,note_on,41,25,0
2,note_on,51,28,0
2,note_on,51,0,480
2,note_on,41,0,0
2,note_on,41,24,0
2,note_on,48,28,0
2,note_on,48,0,480
2,note_on,41,0,0
2,note_on,50,34,0
2,note_on,46,28,0
2,note_on,50,0,240
2,note_on,53,26,0
2,note_on,53,0,120
2,note_on,46,0,120
2,note_on,53,26,0
2,note_on,53,0,120
2,note_on,53,26,120
2,note_on,53,0,120
2,note_on,53,26,120
2,note_on,53,0,120
2,note_on,53,26,120
2,note_on,53,0,120
2,note_on,50,26,120
2,note_on,41,21,0
2,note_on,50,0,240
2,note_on,53,22,0
2,note_on,53,0,240
2,note_on,41,0,0
2,note_on,41,22,0
2,note_on,50,27,0
2,note_on,50,0,240
2,note_on,53,22,0
2,note_on,53,0,240
2,note_on,41,0,0
2,note_on,41,18,0
2,note_on,48,24,0
2,note_on,48,0,240
2,note_on,53,21,0
2,note_on,53,0,240
2,note_on,41,0,0
2,note_on,41,22,0
2,note_on,50,27,0
2,note_on,50,0,240
2,note_on,53,21,0
2,note_on,53,0,240
2,note_on,41,0,0
2,note_on,51,26,0
2,note_on,41,21,0
2,note_on,51,0,240
2,note_on,53,20,0
2,note_on,53,0,240
2,note_on,41,0,0
2,note_on,46,22,0
2,note_on,50,27,0
2,note_on,50,0,240
2,note_on,53,20,0
2,note_on,53,0,120
2,note_on,53,20,120
2,note_on,53,0,120
2,note_on,53,20,120
2,note_on,53,0,120
2,note_on,46,0,120
2,note_on,53,20,0
2,note_on,53,0,120
2,note_on,53,20,120
2,note_on,53,0,120
2,note_on,46,26,120
2,note_on,41,21,0
2,note_on,46,0,240
2,note_on,53,22,0
2,note_on,53,0,240
2,note_on,41,0,0
2,note_on,41,22,0
2,note_on,46,27,0
2,note_on,46,0,240
2,note_on,53,23,0
2,note_on,53,0,240
2,note_on,41,0,0
2,note_on,41,19,0
2,note_on,45,25,0
2,note_on,45,0,240
2,note_on,53,22,0
2,note_on,53,0,240
2,note_on,41,0,0
2,note_on,41,24,0
2,note_on,46,28,0
2,note_on,46,0,240
2,note_on,53,23,0
2,note_on,53,0,240
2,note_on,41,0,0
2,note_on,48,28,0
2,note_on,41,23,0
2,note_on,48,0,240
2,note_on,53,22,0
2,note_on,53,0,240
2,note_on,41,0,0
2,note_on,46,22,0
2,note_on,53,20,240
2,note_on,53,0,120
2,note_on,53,20,120
2,note_on,53,0,120
2,note_on,53,20,120
2,note_on,53,0,120
2,note_on,46,0,120
2,note_on,53,20,0
2,note_on,53,0,120
2,note_on,53,20,120
2,note_on,53,0,120
2,note_on,50,26,120
2,note_on,41,21,0
2,note_on,50,0,240
2,note_on,53,22,0
2,note_on,53,0,240
2,note_on,41,0,0
2,note_on,41,22,0
2,note_on,50,27,0
2,note_on,50,0,240
2,note_on,53,22,0
2,note_on,53,0,240
2,note_on,41,0,0
2,note_on,41,18,0
2,note_on,48,24,0
2,note_on,48,0,240
2,note_on,53,21,0
2,note_on,53,0,240
2,note_on,41,0,0
2,note_on,41,22,0
2,note_on,50,27,0
2,note_on,50,0,240
2,note_on,53,21,0
2,note_on,53,0,240
2,note_on,41,0,0
2,note_on,51,26,0
2,note_on,41,21,0
2,note_on,51,0,240
2,note_on,53,20,0
2,note_on,53,0,240
2,note_on,41,0,0
2,note_on,41,22,0
2,note_on,51,22,0
2,note_on,53,27,0
2,note_on,53,0,1680
2,note_on,51,0,0
2,note_on,41,0,0
2,note_on,29,20,0
2,note_on,30,16,80
2,note_on,29,0,40
2,note_on,32,16,40
2,note_on,30,0,40
2,note_on,30,20,40
2,note_on,32,0,40
2,note_on,32,17,20
2,note_on,30,0,40
2,note_on,30,18,20
2,note_on,32,0,40
2,note_on,32,16,20
2,note_on,30,0,40
2,note_on,30,18,20
2,note_on,32,0,40
2,note_on,32,16,20
2,note_on,30,0,40
2,note_on,30,18,20
2,note_on,32,0,40
2,note_on,32,18,20
2,note_on,30,0,40
2,note_on,30,19,20
2,note_on,32,0,40
2,note_on,32,17,20
2,note_on,30,0,40
2,note_on,30,19,20
2,note_on,32,0,40
2,note_on,32,16,20
2,note_on,30,0,40
2,note_on,30,18,20
2,note_on,32,0,40
2,note_on,32,17,20
2,note_on,30,0,40
2,note_on,30,17,20
2,note_on,32,0,40
2,note_on,32,16,20
2,note_on,30,0,40
2,note_on,30,18,20
2,note_on,32,0,40
2,note_on,32,17,20
2,note_on,30,0,40
2,note_on,30,18,20
2,note_on,32,0,40
2,note_on,32,16,20
2,note_on,30,0,40
2,note_on,30,18,20
2,note_on,32,0,40
2,note_on,32,15,20
2,note_on,30,0,40
2,note_on,30,18,20
2,note_on,32,0,40
2,note_on,32,15,20
2,note_on,30,0,40
2,note_on,30,19,20
2,note_on,32,0,40
2,note_on,32,16,20
2,note_on,30,0,40
2,note_on,30,18,20
2,note_on,32,0,40
2,note_on,32,15,20
2,note_on,30,0,40
2,note_on,29,18,20
2,note_on,32,0,40
2,note_on,30,14,80
2,note_on,29,0,40
2,note_on,29,18,80
2,note_on,30,0,40
2,note_on,29,0,80
2,note_on,41,25,840
2,note_on,48,25,0
2,note_on,53,29,0
2,note_on,53,0,480
2,note_on,48,0,0
2,note_on,41,0,0
2,note_on,46,25,480
2,note_on,53,30,0
2,note_on,53,0,480
2,note_on,46,0,0
2,note_on,34,24,1440
2,note_on,46,24,0
2,note_on,50,24,0
2,note_on,53,24,0
2,note_on,58,28,0
2,note_on,58,0,480
2,note_on,50,0,0
2,note_on,34,0,0
2,note_on,46,0,0
2,note_on,53,0,0
2,note_on,34,24,1440
2,note_on,46,24,0
2,note_on,50,24,0
2,note_on,53,24,0
2,note_on,58,28,0
2,note_on,58,0,2400
2,note_on,50,0,0
2,note_on,34,0,0
2,note_on,46,0,0
2,note_on,53,0,0
