Track,Message Type,Note,Velocity,Time
1,note_on,61,39,720
1,note_on,64,46,0
1,note_on,64,0,240
1,note_on,61,0,0
1,note_on,62,42,0
1,note_on,66,50,0
1,note_on,66,0,216
1,note_on,62,0,0
1,note_on,60,34,24
1,note_on,63,40,0
1,note_on,63,0,216
1,note_on,60,0,0
1,note_on,61,39,24
1,note_on,64,47,0
1,note_on,64,0,710
1,note_on,61,0,0
1,note_on,61,42,10
1,note_on,64,42,0
1,note_on,69,55,0
1,note_on,69,0,240
1,note_on,71,57,0
1,note_on,71,0,240
1,note_on,64,0,0
1,note_on,61,0,0
1,note_on,61,47,0
1,note_on,65,47,0
1,note_on,73,61,0
1,note_on,73,0,216
1,note_on,65,0,0
1,note_on,61,0,0
1,note_on,62,38,24
1,note_on,66,45,0
1,note_on,73,58,0
1,note_on,73,0,480
1,note_on,71,44,0
1,note_on,71,0,240
1,note_on,66,0,0
1,note_on,62,0,0
1,note_on,62,40,0
1,note_on,69,56,0
1,note_on,69,0,240
1,note_on,68,53,0
1,note_on,68,0,240
1,note_on,62,0,0
1,note_on,62,37,0
1,note_on,66,48,0
1,note_on,66,0,216
1,note_on,62,0,0
1,note_on,62,42,24
1,note_on,64,50,0
1,note_on,64,0,710
1,note_on,62,0,0
1,note_on,62,42,10
1,note_on,64,50,0
1,note_on,64,0,110
1,note_on,62,0,10
1,note_on,64,40,0
1,note_on,64,0,40
1,note_on,66,40,0
1,note_on,66,0,40
1,note_on,68,40,0
1,note_on,68,0,40
1,note_on,62,42,0
1,note_on,66,50,0
1,note_on,66,0,216
1,note_on,62,0,0
1,note_on,62,35,24
1,note_on,64,42,0
1,note_on,64,0,216
1,note_on,62,0,0
1,note_on,62,42,24
1,note_on,66,50,0
1,note_on,66,0,480
1,note_on,62,0,0
1,note_on,61,37,0
1,note_on,64,44,0
1,note_on,64,0,230
1,note_on,61,0,0
1,note_on,57,48,10
1,note_on,61,57,0
1,note_on,61,0,240
1,note_on,57,0,0
1,note_on,62,52,0
1,note_on,66,62,0
1,note_on,66,0,216
1,note_on,62,0,0
1,note_on,60,42,24
1,note_on,63,50,0
1,note_on,63,0,216
1,note_on,60,0,0
1,note_on,61,48,24
1,note_on,64,59,0
1,note_on,64,0,710
1,note_on,61,0,0
1,note_on,64,59,10
1,note_on,69,69,0
1,note_on,73,78,240
1,note_on,69,0,230
1,note_on,64,0,0
1,note_on,73,0,10
1,note_on,69,63,0
1,note_on,64,63,0
1,note_on,73,63,0
1,note_on,76,75,0
1,note_on,76,0,216
1,note_on,69,0,0
1,note_on,64,0,0
1,note_on,73,0,0
1,note_on,73,67,24
1,note_on,64,67,0
1,note_on,68,67,0
1,note_on,76,79,0
1,note_on,76,0,710
1,note_on,68,0,0
1,note_on,73,0,0
1,note_on,64,0,10
1,note_on,64,40,0
1,note_on,68,40,0
1,note_on,76,56,0
1,note_on,68,0,230
1,note_on,76,0,10
1,note_on,64,0,0
1,note_on,66,42,0
1,note_on,68,42,0
1,note_on,75,53,0
1,note_on,68,0,230
1,note_on,66,0,0
1,note_on,75,0,10
1,note_on,66,37,0
1,note_on,68,48,0
1,note_on,68,0,216
1,note_on,66,0,0
1,note_on,68,42,24
1,note_on,64,42,0
1,note_on,73,55,0
1,note_on,73,0,710
1,note_on,64,0,0
1,note_on,68,0,10
1,note_on,61,42,0
1,note_on,64,42,0
1,note_on,73,50,0
1,note_on,64,0,230
1,note_on,73,0,10
1,note_on,61,0,0
1,note_on,62,42,0
1,note_on,64,42,0
1,note_on,71,50,0
1,note_on,71,0,216
1,note_on,64,0,0
1,note_on,62,0,24
1,note_on,62,35,0
1,note_on,64,42,0
1,note_on,64,0,216
1,note_on,62,0,0
1,note_on,61,42,24
1,note_on,69,50,0
1,note_on,69,0,480
1,note_on,61,0,0
1,note_on,61,39,240
1,note_on,64,46,0
1,note_on,64,0,240
1,note_on,61,0,0
1,note_on,62,42,0
1,note_on,66,50,0
1,note_on,66,0,216
1,note_on,62,0,0
1,note_on,60,34,24
1,note_on,63,40,0
1,note_on,63,0,216
1,note_on,60,0,0
1,note_on,61,39,24
1,note_on,64,47,0
1,note_on,64,0,710
1,note_on,61,0,0
1,note_on,61,42,10
1,note_on,64,42,0
1,note_on,69,55,0
1,note_on,69,0,240
1,note_on,71,57,0
1,note_on,71,0,240
1,note_on,64,0,0
1,note_on,61,0,0
1,note_on,61,47,0
1,note_on,65,47,0
1,note_on,73,61,0
1,note_on,73,0,216
1,note_on,65,0,0
1,note_on,61,0,0
1,note_on,62,38,24
1,note_on,66,45,0
1,note_on,73,58,0
1,note_on,73,0,480
1,note_on,71,44,0
1,note_on,71,0,240
1,note_on,66,0,0
1,note_on,62,0,0
1,note_on,62,40,0
1,note_on,69,56,0
1,note_on,69,0,240
1,note_on,68,53,0
1,note_on,68,0,240
1,note_on,62,0,0
1,note_on,62,37,0
1,note_on,66,48,0
1,note_on,66,0,216
1,note_on,62,0,0
1,note_on,62,42,24
1,note_on,64,50,0
1,note_on,64,0,710
1,note_on,62,0,0
1,note_on,62,42,10
1,note_on,64,50,0
1,note_on,64,0,110
1,note_on,62,0,10
1,note_on,64,40,0
1,note_on,64,0,40
1,note_on,66,40,0
1,note_on,66,0,40
1,note_on,68,40,0
1,note_on,68,0,40
1,note_on,62,42,0
1,note_on,66,50,0
1,note_on,66,0,216
1,note_on,62,0,0
1,note_on,62,35,24
1,note_on,64,42,0
1,note_on,64,0,216
1,note_on,62,0,0
1,note_on,62,42,24
1,note_on,66,50,0
1,note_on,66,0,480
1,note_on,62,0,0
1,note_on,61,37,0
1,note_on,64,44,0
1,note_on,64,0,230
1,note_on,61,0,0
1,note_on,57,48,10
1,note_on,61,57,0
1,note_on,61,0,240
1,note_on,57,0,0
1,note_on,62,52,0
1,note_on,66,62,0
1,note_on,66,0,216
1,note_on,62,0,0
1,note_on,60,42,24
1,note_on,63,50,0
1,note_on,63,0,216
1,note_on,60,0,0
1,note_on,61,48,24
1,note_on,64,59,0
1,note_on,64,0,710
1,note_on,61,0,0
1,note_on,64,59,10
1,note_on,69,69,0
1,note_on,73,78,240
1,note_on,69,0,230
1,note_on,64,0,0
1,note_on,73,0,10
1,note_on,69,63,0
1,note_on,64,63,0
1,note_on,73,63,0
1,note_on,76,75,0
1,note_on,76,0,216
1,note_on,69,0,0
1,note_on,64,0,0
1,note_on,73,0,0
1,note_on,73,67,24
1,note_on,64,67,0
1,note_on,68,67,0
1,note_on,76,79,0
1,note_on,76,0,710
1,note_on,68,0,0
1,note_on,73,0,0
1,note_on,64,0,10
1,note_on,64,40,0
1,note_on,68,40,0
1,note_on,76,56,0
1,note_on,68,0,230
1,note_on,76,0,10
1,note_on,64,0,0
1,note_on,66,42,0
1,note_on,68,42,0
1,note_on,75,53,0
1,note_on,68,0,230
1,note_on,66,0,0
1,note_on,75,0,10
1,note_on,66,37,0
1,note_on,68,48,0
1,note_on,68,0,216
1,note_on,66,0,0
1,note_on,68,42,24
1,note_on,64,42,0
1,note_on,73,55,0
1,note_on,73,0,710
1,note_on,64,0,0
1,note_on,68,0,10
1,note_on,61,42,0
1,note_on,64,42,0
1,note_on,73,50,0
1,note_on,64,0,230
1,note_on,73,0,10
1,note_on,61,0,0
1,note_on,62,42,0
1,note_on,64,42,0
1,note_on,71,50,0
1,note_on,71,0,216
1,note_on,64,0,0
1,note_on,62,0,24
1,note_on,62,35,0
1,note_on,64,42,0
1,note_on,64,0,216
1,note_on,62,0,0
1,note_on,61,42,24
1,note_on,69,50,0
1,note_on,69,0,720
1,note_on,61,0,0
1,note_on,61,50,0
1,note_on,67,50,0
1,note_on,70,59,0
1,note_on,70,0,230
1,note_on,67,0,0
1,note_on,61,0,0
1,note_on,62,54,10
1,note_on,67,54,0
1,note_on,71,64,0
1,note_on,71,0,240
1,note_on,67,0,0
1,note_on,62,0,0
1,note_on,64,57,0
1,note_on,70,68,0
1,note_on,67,57,0
1,note_on,73,68,0
1,note_on,73,0,216
1,note_on,64,0,0
1,note_on,70,0,0
1,note_on,67,0,0
1,note_on,62,61,24
1,note_on,67,61,0
1,note_on,71,61,0
1,note_on,74,72,0
1,note_on,74,0,720
1,note_on,62,0,0
1,note_on,67,0,0
1,note_on,71,0,0
1,note_on,62,40,0
1,note_on,71,56,0
1,note_on,62,0,230
1,note_on,71,0,10
1,note_on,62,40,0
1,note_on,67,51,0
1,note_on,62,0,230
1,note_on,67,0,10
1,note_on,59,37,0
1,note_on,62,48,0
1,note_on,62,0,216
1,note_on,59,0,0
1,note_on,60,37,24
1,note_on,64,49,0
1,note_on,64,0,710
1,note_on,60,0,0
1,note_on,59,34,10
1,note_on,62,47,0
1,note_on,62,0,240
1,note_on,59,0,0
1,note_on,60,34,0
1,note_on,64,43,0
1,note_on,60,0,230
1,note_on,64,0,10
1,note_on,59,31,0
1,note_on,65,40,0
1,note_on,65,0,216
1,note_on,59,0,0
1,note_on,60,35,24
1,note_on,64,46,0
1,note_on,64,0,220
1,note_on,60,0,0
1,note_on,71,34,20
1,note_on,74,47,0
1,note_on,74,0,240
1,note_on,71,0,0
1,note_on,72,34,0
1,note_on,76,43,0
1,note_on,72,0,230
1,note_on,76,0,10
1,note_on,71,31,0
1,note_on,77,40,0
1,note_on,77,0,216
1,note_on,71,0,0
1,note_on,72,35,24
1,note_on,76,46,0
1,note_on,76,0,220
1,note_on,72,0,0
1,note_on,59,34,20
1,note_on,62,47,0
1,note_on,62,0,240
1,note_on,59,0,0
1,note_on,60,34,0
1,note_on,64,43,0
1,note_on,67,37,180
1,note_on,60,0,50
1,note_on,67,0,10
1,note_on,64,0,0
1,note_on,59,31,0
1,note_on,65,40,0
1,note_on,65,0,216
1,note_on,59,0,0
1,note_on,60,35,24
1,note_on,64,46,0
1,note_on,64,0,220
1,note_on,60,0,0
1,note_on,62,45,20
1,note_on,64,53,0
1,note_on,64,0,240
1,note_on,62,0,0
1,note_on,62,45,0
1,note_on,64,45,0
1,note_on,66,53,0
1,note_on,66,0,240
1,note_on,64,0,0
1,note_on,62,0,0
1,note_on,68,60,0
1,note_on,62,48,0
1,note_on,64,48,0
1,note_on,64,0,240
1,note_on,62,0,0
1,note_on,68,0,0
1,note_on,57,56,0
1,note_on,61,56,0
1,note_on,69,66,0
1,note_on,69,0,240
1,note_on,61,0,0
1,note_on,57,0,0
1,note_on,63,59,0
1,note_on,71,70,0
1,note_on,69,59,0
1,note_on,69,0,240
1,note_on,71,0,0
1,note_on,63,0,0
1,note_on,64,62,0
1,note_on,69,62,0
1,note_on,73,74,0
1,note_on,73,0,480
1,note_on,69,0,0
1,note_on,64,0,0
1,note_on,62,62,0
1,note_on,64,62,0
1,note_on,68,62,0
1,note_on,73,74,0
1,note_on,73,0,360
1,note_on,71,61,0
1,note_on,71,0,120
1,note_on,68,0,0
1,note_on,64,0,0
1,note_on,62,0,0
1,note_on,61,44,0
1,note_on,64,44,0
1,note_on,69,52,0
1,note_on,69,0,720
1,note_on,64,0,0
1,note_on,61,0,0
1,note_on,64,47,0
1,note_on,64,0,240
1,note_on,61,51,0
1,note_on,61,0,240
1,note_on,57,43,0
1,note_on,57,0,170
1,note_on,57,37,10
1,note_on,64,49,60
1,note_on,57,0,9
1,note_on,64,0,701
1,note_on,64,51,10
1,note_on,64,0,240
1,note_on,61,56,0
1,note_on,61,0,240
1,note_on,58,47,0
1,note_on,58,0,170
1,note_on,58,40,10
1,note_on,64,53,60
1,note_on,58,0,9
1,note_on,64,0,701
1,note_on,64,56,10
1,note_on,64,0,240
1,note_on,62,65,0
1,note_on,62,0,240
1,note_on,59,58,0
1,note_on,59,0,170
1,note_on,59,52,10
1,note_on,66,69,60
1,note_on,59,0,9
1,note_on,66,0,207
1,note_on,61,56,24
1,note_on,66,56,0
1,note_on,70,67,0
1,note_on,70,0,216
1,note_on,66,0,0
1,note_on,61,0,0
1,note_on,59,54,24
1,note_on,66,54,0
1,note_on,71,64,0
1,note_on,71,0,216
1,note_on,66,0,0
1,note_on,59,0,0
1,note_on,61,51,24
1,note_on,66,51,0
1,note_on,73,61,0
1,note_on,73,0,216
1,note_on,66,0,0
1,note_on,61,0,0
1,note_on,62,49,24
1,note_on,66,49,0
1,note_on,74,58,0
1,note_on,74,0,216
1,note_on,66,0,0
1,note_on,62,0,0
1,note_on,71,57,24
1,note_on,74,57,0
1,note_on,83,69,0
1,note_on,83,0,216
1,note_on,74,0,0
1,note_on,71,0,0
1,note_on,71,53,24
1,note_on,74,53,0
1,note_on,81,63,0
1,note_on,81,0,480
1,note_on,80,55,0
1,note_on,80,0,240
1,note_on,74,0,0
1,note_on,71,0,0
1,note_on,64,47,0
1,note_on,64,0,240
1,note_on,59,51,0
1,note_on,59,0,240
1,note_on,56,43,0
1,note_on,56,0,170
1,note_on,56,37,10
1,note_on,64,49,60
1,note_on,56,0,9
1,note_on,64,0,701
1,note_on,64,51,10
1,note_on,64,0,240
1,note_on,60,56,0
1,note_on,60,0,240
1,note_on,57,47,0
1,note_on,57,0,170
1,note_on,57,40,10
1,note_on,64,53,60
1,note_on,57,0,9
1,note_on,64,0,701
1,note_on,64,56,10
1,note_on,64,0,240
1,note_on,61,65,0
1,note_on,61,0,240
1,note_on,58,58,0
1,note_on,58,0,170
1,note_on,58,52,10
1,note_on,65,69,60
1,note_on,58,0,9
1,note_on,65,0,207
1,note_on,60,56,24
1,note_on,65,56,0
1,note_on,69,67,0
1,note_on,69,0,216
1,note_on,65,0,0
1,note_on,60,0,0
1,note_on,58,54,24
1,note_on,65,54,0
1,note_on,70,64,0
1,note_on,70,0,216
1,note_on,65,0,0
1,note_on,58,0,0
1,note_on,60,51,24
1,note_on,65,51,0
1,note_on,72,61,0
1,note_on,72,0,216
1,note_on,65,0,0
1,note_on,60,0,0
1,note_on,62,49,24
1,note_on,65,49,0
1,note_on,74,58,0
1,note_on,74,0,216
1,note_on,65,0,0
1,note_on,62,0,0
1,note_on,65,57,24
1,note_on,69,57,0
1,note_on,77,68,0
1,note_on,77,0,120
1,note_on,75,65,0
1,note_on,69,0,96
1,note_on,65,0,0
1,note_on,75,0,14
1,note_on,65,53,10
1,note_on,69,53,0
1,note_on,75,63,0
1,note_on,75,0,480
1,note_on,69,0,0
1,note_on,70,52,0
1,note_on,74,55,0
1,note_on,74,0,220
1,note_on,70,0,0
1,note_on,65,0,20
1,note_on,65,65,0
1,note_on,74,65,0
1,note_on,77,78,0
1,note_on,77,0,228
1,note_on,74,0,0
1,note_on,65,0,0
1,note_on,70,72,12
1,note_on,77,72,0
1,note_on,82,86,0
1,note_on,82,0,228
1,note_on,77,0,0
1,note_on,70,0,0
1,note_on,84,88,12
1,note_on,77,74,0
1,note_on,72,74,0
1,note_on,72,0,216
1,note_on,77,0,0
1,note_on,84,0,0
1,note_on,74,78,24
1,note_on,77,78,0
1,note_on,86,92,0
1,note_on,86,0,710
1,note_on,77,0,0
1,note_on,74,0,0
1,note_on,70,56,10
1,note_on,74,56,0
1,note_on,82,78,0
1,note_on,82,0,240
1,note_on,77,69,0
1,note_on,77,0,240
1,note_on,74,0,0
1,note_on,70,0,0
1,note_on,69,49,0
1,note_on,72,49,0
1,note_on,75,64,0
1,note_on,75,0,216
1,note_on,72,0,0
1,note_on,69,0,24
1,note_on,70,48,0
1,note_on,74,63,0
1,note_on,74,0,710
1,note_on,70,0,0
1,note_on,63,40,10
1,note_on,65,40,0
1,note_on,72,56,0
1,note_on,72,0,240
1,note_on,63,0,0
1,note_on,62,40,0
1,note_on,70,51,0
1,note_on,62,0,230
1,note_on,65,0,0
1,note_on,70,0,10
1,note_on,57,34,0
1,note_on,65,48,0
1,note_on,65,0,216
1,note_on,57,0,0
1,note_on,58,37,24
1,note_on,62,49,0
1,note_on,62,0,710
1,note_on,58,0,0
1,note_on,57,34,10
1,note_on,60,47,0
1,note_on,60,0,240
1,note_on,57,0,0
1,note_on,58,34,0
1,note_on,62,43,0
1,note_on,58,0,230
1,note_on,62,0,10
1,note_on,57,31,0
1,note_on,63,40,0
1,note_on,63,0,216
1,note_on,57,0,0
1,note_on,58,35,24
1,note_on,62,46,0
1,note_on,62,0,220
1,note_on,58,0,0
1,note_on,69,34,20
1,note_on,72,47,0
1,note_on,72,0,240
1,note_on,69,0,0
1,note_on,70,34,0
1,note_on,74,43,0
1,note_on,70,0,230
1,note_on,74,0,10
1,note_on,69,31,0
1,note_on,75,40,0
1,note_on,75,0,216
1,note_on,69,0,0
1,note_on,70,35,24
1,note_on,74,46,0
1,note_on,74,0,220
1,note_on,70,0,0
1,note_on,57,51,20
1,note_on,60,61,0
1,note_on,60,0,216
1,note_on,57,0,0
1,note_on,58,49,24
1,note_on,62,58,0
1,note_on,62,0,216
1,note_on,58,0,0
1,note_on,57,57,24
1,note_on,65,68,0
1,note_on,65,0,120
1,note_on,63,65,0
1,note_on,57,0,96
1,note_on,63,0,24
1,note_on,58,53,0
1,note_on,62,63,0
1,note_on,62,0,230
1,note_on,58,0,0
1,note_on,53,52,10
1,note_on,56,52,0
1,note_on,62,62,0
1,note_on,62,0,216
1,note_on,56,0,0
1,note_on,53,0,0
1,note_on,53,56,24
1,note_on,57,56,0
1,note_on,62,66,0
1,note_on,62,0,216
1,note_on,57,0,0
1,note_on,53,0,0
1,note_on,62,69,24
1,note_on,52,58,0
1,note_on,59,58,0
1,note_on,59,0,216
1,note_on,52,0,0
1,note_on,62,0,0
1,note_on,62,66,24
1,note_on,52,56,0
1,note_on,57,56,0
1,note_on,62,0,120
1,note_on,61,64,0
1,note_on,61,0,120
1,note_on,57,0,0
1,note_on,52,0,0
1,note_on,54,59,0
1,note_on,59,70,0
1,note_on,59,0,120
1,note_on,54,0,0
1,note_on,66,68,0
1,note_on,66,0,120
1,note_on,52,62,0
1,note_on,57,62,0
1,note_on,61,74,0
1,note_on,61,0,480
1,note_on,57,0,0
1,note_on,52,0,0
1,note_on,56,57,0
1,note_on,61,68,0
1,note_on,61,0,240
1,note_on,59,61,0
1,note_on,59,0,180
1,note_on,57,57,0
1,note_on,57,0,60
1,note_on,56,0,0
1,note_on,49,44,0
1,note_on,57,52,0
1,note_on,57,0,360
1,note_on,61,51,0
1,note_on,61,0,120
1,note_on,49,0,0
1,note_on,64,58,0
1,note_on,64,0,120
1,note_on,69,51,0
1,note_on,69,0,120
1,note_on,73,56,0
1,note_on,73,0,120
1,note_on,76,52,0
1,note_on,76,0,120
1,note_on,74,51,0
1,note_on,78,60,0
1,note_on,78,0,216
1,note_on,74,0,0
1,note_on,72,45,24
1,note_on,75,54,0
1,note_on,75,0,216
1,note_on,72,0,0
1,note_on,73,47,24
1,note_on,76,56,0
1,note_on,76,0,720
1,note_on,73,0,0
1,note_on,73,50,0
1,note_on,76,50,0
1,note_on,81,66,0
1,note_on,81,0,240
1,note_on,83,68,0
1,note_on,83,0,240
1,note_on,76,0,0
1,note_on,73,0,0
1,note_on,73,56,0
1,note_on,77,56,0
1,note_on,85,73,0
1,note_on,85,0,216
1,note_on,77,0,0
1,note_on,73,0,0
1,note_on,74,45,24
1,note_on,78,54,0
1,note_on,85,71,0
1,note_on,85,0,480
1,note_on,83,52,0
1,note_on,83,0,240
1,note_on,78,0,0
1,note_on,74,0,0
1,note_on,62,40,0
1,note_on,69,56,0
1,note_on,69,0,240
1,note_on,68,51,0
1,note_on,68,0,240
1,note_on,62,0,0
1,note_on,62,37,0
1,note_on,66,48,0
1,note_on,66,0,216
1,note_on,62,0,0
1,note_on,62,42,24
1,note_on,64,50,0
1,note_on,64,0,710
1,note_on,62,0,0
1,note_on,74,48,10
1,note_on,76,57,0
1,note_on,76,0,110
1,note_on,74,0,10
1,note_on,76,46,0
1,note_on,76,0,40
1,note_on,78,46,0
1,note_on,78,0,40
1,note_on,80,46,0
1,note_on,80,0,40
1,note_on,74,48,0
1,note_on,78,57,0
1,note_on,78,0,216
1,note_on,74,0,0
1,note_on,74,40,24
1,note_on,76,48,0
1,note_on,76,0,216
1,note_on,74,0,0
1,note_on,74,48,24
1,note_on,78,57,0
1,note_on,78,0,480
1,note_on,74,0,0
1,note_on,73,42,0
1,note_on,76,50,0
1,note_on,76,0,230
1,note_on,73,0,0
1,note_on,59,63,10
1,note_on,61,75,0
1,note_on,61,0,230
1,note_on,59,0,10
1,note_on,57,68,0
1,note_on,61,68,0
1,note_on,66,81,0
1,note_on,66,0,216
1,note_on,61,0,0
1,note_on,57,0,24
1,note_on,59,61,0
1,note_on,61,61,0
1,note_on,65,72,0
1,note_on,65,0,216
1,note_on,61,0,0
1,note_on,59,0,24
1,note_on,57,66,0
1,note_on,62,66,0
1,note_on,66,78,0
1,note_on,66,0,710
1,note_on,62,0,0
1,note_on,57,0,10
1,note_on,69,55,0
1,note_on,69,0,240
1,note_on,67,63,0
1,note_on,71,63,0
1,note_on,71,0,240
1,note_on,67,0,0
1,note_on,67,56,0
1,note_on,69,56,0
1,note_on,73,56,0
1,note_on,73,0,216
1,note_on,69,0,0
1,note_on,67,0,0
1,note_on,73,58,24
1,note_on,67,58,0
1,note_on,70,58,0
1,note_on,76,69,0
1,note_on,76,0,1440
1,note_on,70,0,0
1,note_on,73,0,0
1,note_on,71,47,0
1,note_on,74,56,0
1,note_on,74,0,240
1,note_on,71,0,0
1,note_on,67,0,0
1,note_on,62,36,1200
1,note_on,66,36,0
1,note_on,72,56,0
1,note_on,72,0,720
1,note_on,74,45,0
1,note_on,74,0,60
1,note_on,72,42,0
1,note_on,72,0,60
1,note_on,71,45,0
1,note_on,71,0,60
1,note_on,72,42,0
1,note_on,72,0,60
1,note_on,71,53,0
1,note_on,71,0,120
1,note_on,72,49,0
1,note_on,72,0,120
1,note_on,76,56,0
1,note_on,76,0,120
1,note_on,74,50,0
1,note_on,74,0,120
1,note_on,66,0,0
1,note_on,67,40,0
1,note_on,71,46,0
1,note_on,71,0,240
1,note_on,67,0,0
1,note_on,62,0,0
1,note_on,71,53,420
1,note_on,71,0,60
1,note_on,67,59,0
1,note_on,62,59,0
1,note_on,74,69,0
1,note_on,74,0,240
1,note_on,67,0,0
1,note_on,69,59,0
1,note_on,73,78,0
1,note_on,62,0,230
1,note_on,73,0,10
1,note_on,69,0,0
1,note_on,62,61,0
1,note_on,71,72,0
1,note_on,71,0,216
1,note_on,62,0,0
1,note_on,62,67,24
1,note_on,69,79,0
1,note_on,69,0,710
1,note_on,62,0,0
1,note_on,62,56,10
1,note_on,69,66,0
1,note_on,69,0,240
1,note_on,62,0,0
1,note_on,64,58,0
1,note_on,68,69,0
1,note_on,64,0,230
1,note_on,68,0,10
1,note_on,66,75,0
1,note_on,66,0,216
1,note_on,64,66,24
1,note_on,64,0,240
1,note_on,63,62,0
1,note_on,69,74,0
1,note_on,69,0,240
1,note_on,63,0,0
1,note_on,64,67,0
1,note_on,69,67,0
1,note_on,73,80,0
1,note_on,73,0,480
1,note_on,69,0,0
1,note_on,64,0,0
1,note_on,64,64,0
1,note_on,62,64,0
1,note_on,68,64,0
1,note_on,73,76,0
1,note_on,73,0,360
1,note_on,71,69,0
1,note_on,71,0,120
1,note_on,68,0,0
1,note_on,62,0,0
1,note_on,64,0,0
1,note_on,64,50,0
1,note_on,61,50,0
1,note_on,69,59,0
1,note_on,69,0,720
1,note_on,61,0,0
1,note_on,64,0,0
1,note_on,69,76,0
1,note_on,69,0,240
1,note_on,66,68,0
1,note_on,74,81,0
1,note_on,74,0,108
1,note_on,66,0,0
1,note_on,74,75,12
1,note_on,66,63,0
1,note_on,66,0,240
1,note_on,74,0,0
1,note_on,69,64,0
1,note_on,76,76,0
1,note_on,76,0,120
1,note_on,69,0,0
1,note_on,74,73,0
1,note_on,78,86,0
1,note_on,78,0,216
1,note_on,74,0,0
1,note_on,74,72,24
1,note_on,78,85,0
1,note_on,78,0,357
1,note_on,74,0,0
1,note_on,74,73,3
1,note_on,78,86,0
1,note_on,78,0,240
1,note_on,74,0,0
1,note_on,69,61,0
1,note_on,76,73,0
1,note_on,76,0,120
1,note_on,69,0,0
1,note_on,66,65,0
1,note_on,74,77,0
1,note_on,74,0,108
1,note_on,66,0,0
1,note_on,71,73,12
1,note_on,74,86,0
1,note_on,74,0,240
1,note_on,71,0,0
1,note_on,66,64,0
1,note_on,73,76,0
1,note_on,73,0,120
1,note_on,66,0,0
1,note_on,62,68,0
1,note_on,71,80,0
1,note_on,71,0,216
1,note_on,62,0,0
1,note_on,62,73,24
1,note_on,71,86,0
1,note_on,71,0,480
1,note_on,62,0,0
1,note_on,71,76,0
1,note_on,71,0,240
1,note_on,67,68,0
1,note_on,76,81,0
1,note_on,76,0,108
1,note_on,67,0,0
1,note_on,76,75,12
1,note_on,67,63,0
1,note_on,67,0,240
1,note_on,76,0,0
1,note_on,71,64,0
1,note_on,78,76,0
1,note_on,78,0,120
1,note_on,71,0,0
1,note_on,76,73,0
1,note_on,79,86,0
1,note_on,79,0,216
1,note_on,76,0,0
1,note_on,76,72,24
1,note_on,79,85,0
1,note_on,79,0,357
1,note_on,76,0,0
1,note_on,76,73,3
1,note_on,79,86,0
1,note_on,79,0,240
1,note_on,76,0,0
1,note_on,71,61,0
1,note_on,78,73,0
1,note_on,78,0,120
1,note_on,71,0,0
1,note_on,67,65,0
1,note_on,76,77,0
1,note_on,76,0,108
1,note_on,67,0,0
1,note_on,73,73,12
1,note_on,76,86,0
1,note_on,76,0,240
1,note_on,73,0,0
1,note_on,68,64,0
1,note_on,74,76,0
1,note_on,74,0,120
1,note_on,68,0,0
1,note_on,64,68,0
1,note_on,73,80,0
1,note_on,73,0,108
1,note_on,64,0,0
1,note_on,64,73,132
1,note_on,73,86,0
1,note_on,73,0,357
1,note_on,64,0,0
1,note_on,69,73,3
1,note_on,73,86,0
1,note_on,69,0,238
1,note_on,73,0,2
1,note_on,69,61,0
1,note_on,74,73,0
1,note_on,74,0,120
1,note_on,64,65,0
1,note_on,76,77,0
1,note_on,76,0,108
1,note_on,64,0,0
1,note_on,69,0,12
1,note_on,66,73,0
1,note_on,74,73,0
1,note_on,78,86,0
1,note_on,78,0,240
1,note_on,74,0,0
1,note_on,66,0,0
1,note_on,74,64,0
1,note_on,67,64,0
1,note_on,79,76,0
1,note_on,79,0,120
1,note_on,67,0,0
1,note_on,74,0,0
1,note_on,69,68,0
1,note_on,74,68,0
1,note_on,81,80,0
1,note_on,81,0,108
1,note_on,74,0,0
1,note_on,69,0,12
1,note_on,69,73,120
1,note_on,74,73,0
1,note_on,81,86,0
1,note_on,81,0,357
1,note_on,74,0,0
1,note_on,69,0,0
1,note_on,74,70,3
1,note_on,81,83,0
1,note_on,81,0,118
1,note_on,74,0,0
1,note_on,74,73,2
1,note_on,78,73,0
1,note_on,86,86,0
1,note_on,86,0,118
1,note_on,78,0,0
1,note_on,74,0,0
1,note_on,74,69,2
1,note_on,81,82,0
1,note_on,81,0,118
1,note_on,74,0,0
1,note_on,74,73,2
1,note_on,78,86,0
1,note_on,78,0,118
1,note_on,74,0,0
1,note_on,74,83,2
1,note_on,74,0,118
1,note_on,74,70,2
1,note_on,78,83,0
1,note_on,78,0,118
1,note_on,74,0,0
1,note_on,74,70,2
1,note_on,81,83,0
1,note_on,78,70,0
1,note_on,78,0,120
1,note_on,81,0,0
1,note_on,74,0,0
1,note_on,79,68,0
1,note_on,71,68,0
1,note_on,74,68,0
1,note_on,83,80,0
1,note_on,83,0,108
1,note_on,74,0,0
1,note_on,71,0,12
1,note_on,79,0,0
1,note_on,79,73,120
1,note_on,71,73,0
1,note_on,74,73,0
1,note_on,83,86,0
1,note_on,83,0,357
1,note_on,79,0,0
1,note_on,71,0,0
1,note_on,74,0,0
1,note_on,71,77,3
1,note_on,74,77,0
1,note_on,83,91,0
1,note_on,74,0,238
1,note_on,83,0,2
1,note_on,71,0,0
1,note_on,69,69,0
1,note_on,74,69,0
1,note_on,81,82,0
1,note_on,81,0,120
1,note_on,74,0,0
1,note_on,69,0,0
1,note_on,71,73,0
1,note_on,74,73,0
1,note_on,83,86,0
1,note_on,83,0,114
1,note_on,74,0,0
1,note_on,71,0,0
1,note_on,71,83,6
1,note_on,74,83,0
1,note_on,83,83,0
1,note_on,83,0,240
1,note_on,74,0,0
1,note_on,71,0,0
1,note_on,72,70,0
1,note_on,84,83,0
1,note_on,74,70,0
1,note_on,74,0,120
1,note_on,84,0,0
1,note_on,72,0,0
1,note_on,71,68,0
1,note_on,74,68,0
1,note_on,83,80,0
1,note_on,83,0,108
1,note_on,74,0,0
1,note_on,71,0,12
1,note_on,71,73,120
1,note_on,74,73,0
1,note_on,83,86,0
1,note_on,83,0,360
1,note_on,74,0,0
1,note_on,71,0,0
1,note_on,67,70,0
1,note_on,74,83,0
1,note_on,74,0,118
1,note_on,67,0,0
1,note_on,67,73,2
1,note_on,71,73,0
1,note_on,79,86,0
1,note_on,79,0,118
1,note_on,71,0,0
1,note_on,67,0,0
1,note_on,67,69,2
1,note_on,74,82,0
1,note_on,74,0,118
1,note_on,67,0,0
1,note_on,67,73,2
1,note_on,71,86,0
1,note_on,71,0,118
1,note_on,67,0,0
1,note_on,67,69,2
1,note_on,74,78,0
1,note_on,74,0,118
1,note_on,67,0,0
1,note_on,71,70,2
1,note_on,67,70,0
1,note_on,79,83,0
1,note_on,79,0,118
1,note_on,67,0,0
1,note_on,71,0,0
1,note_on,69,70,2
1,note_on,81,83,0
1,note_on,74,70,0
1,note_on,74,0,120
1,note_on,81,0,0
1,note_on,69,0,0
1,note_on,79,68,0
1,note_on,71,68,0
1,note_on,83,80,0
1,note_on,83,0,108
1,note_on,71,0,12
1,note_on,79,0,0
1,note_on,79,73,120
1,note_on,71,73,0
1,note_on,83,86,0
1,note_on,83,0,357
1,note_on,71,0,0
1,note_on,79,0,0
1,note_on,79,78,3
1,note_on,83,78,0
1,note_on,91,92,0
1,note_on,91,0,230
1,note_on,83,0,0
1,note_on,79,0,0
1,note_on,79,83,10
1,note_on,83,83,0
1,note_on,91,98,0
1,note_on,91,0,120
1,note_on,83,0,0
1,note_on,79,0,0
1,note_on,79,68,0
1,note_on,73,68,0
1,note_on,85,80,0
1,note_on,85,0,108
1,note_on,73,0,12
1,note_on,79,0,0
1,note_on,79,73,120
1,note_on,73,73,0
1,note_on,85,86,0
1,note_on,85,0,360
1,note_on,73,0,0
1,note_on,79,0,0
1,note_on,74,78,0
1,note_on,78,78,0
1,note_on,86,92,0
1,note_on,86,0,230
1,note_on,78,0,0
1,note_on,74,0,0
1,note_on,74,83,10
1,note_on,78,83,0
1,note_on,86,98,0
1,note_on,86,0,120
1,note_on,78,0,0
1,note_on,74,0,0
1,note_on,66,68,0
1,note_on,62,68,0
1,note_on,74,80,0
1,note_on,74,0,108
1,note_on,62,0,12
1,note_on,66,0,0
1,note_on,66,73,120
1,note_on,62,73,0
1,note_on,74,86,0
1,note_on,74,0,360
1,note_on,62,0,0
1,note_on,66,0,0
1,note_on,62,37,0
1,note_on,62,0,120
1,note_on,59,37,0
1,note_on,67,37,0
1,note_on,67,0,120
1,note_on,59,0,0
1,note_on,62,37,0
1,note_on,69,37,0
1,note_on,69,0,120
1,note_on,62,0,0
1,note_on,67,34,0
1,note_on,71,40,0
1,note_on,71,0,108
1,note_on,67,0,0
1,note_on,67,39,132
1,note_on,71,47,0
1,note_on,71,0,350
1,note_on,67,0,0
1,note_on,62,35,10
1,note_on,69,41,0
1,note_on,69,0,118
1,note_on,62,0,0
1,note_on,67,36,2
1,note_on,71,43,0
1,note_on,71,0,118
1,note_on,67,0,0
1,note_on,69,34,2
1,note_on,74,41,0
1,note_on,74,0,118
1,note_on,69,0,0
1,note_on,67,36,2
1,note_on,71,43,0
1,note_on,71,0,118
1,note_on,67,0,0
1,note_on,62,38,2
1,note_on,69,38,0
1,note_on,69,0,118
1,note_on,62,0,0
1,note_on,67,35,2
1,note_on,71,41,0
1,note_on,71,0,118
1,note_on,67,0,0
1,note_on,69,38,2
1,note_on,74,38,0
1,note_on,74,0,120
1,note_on,69,0,0
1,note_on,67,34,0
1,note_on,71,40,0
1,note_on,71,0,108
1,note_on,67,0,0
1,note_on,67,39,132
1,note_on,71,47,0
1,note_on,71,0,350
1,note_on,67,0,0
1,note_on,62,35,10
1,note_on,69,41,0
1,note_on,69,0,118
1,note_on,62,0,0
1,note_on,67,37,2
1,note_on,71,44,0
1,note_on,71,0,118
1,note_on,67,0,0
1,note_on,69,35,2
1,note_on,74,43,0
1,note_on,74,0,118
1,note_on,69,0,0
1,note_on,67,38,2
1,note_on,71,46,0
1,note_on,71,0,118
1,note_on,67,0,0
1,note_on,62,41,2
1,note_on,69,41,0
1,note_on,69,0,118
1,note_on,62,0,0
1,note_on,67,38,2
1,note_on,71,45,0
1,note_on,71,0,118
1,note_on,67,0,0
1,note_on,69,42,2
1,note_on,74,42,0
1,note_on,74,0,120
1,note_on,69,0,0
1,note_on,72,39,0
1,note_on,76,46,0
1,note_on,76,0,108
1,note_on,72,0,0
1,note_on,76,49,132
1,note_on,72,41,0
1,note_on,72,0,350
1,note_on,76,0,0
1,note_on,67,40,10
1,note_on,74,47,0
1,note_on,67,0,117
1,note_on,74,0,1
1,note_on,72,41,2
1,note_on,76,49,0
1,note_on,72,0,117
1,note_on,76,0,1
1,note_on,67,39,2
1,note_on,74,47,0
1,note_on,67,0,117
1,note_on,74,0,1
1,note_on,64,41,2
1,note_on,72,49,0
1,note_on,72,0,117
1,note_on,64,0,1
1,note_on,62,43,2
1,note_on,67,43,0
1,note_on,67,0,117
1,note_on,62,0,1
1,note_on,64,40,2
1,note_on,72,47,0
1,note_on,72,0,117
1,note_on,64,0,1
1,note_on,67,43,2
1,note_on,77,43,0
1,note_on,77,0,120
1,note_on,67,0,0
1,note_on,72,39,0
1,note_on,76,46,0
1,note_on,76,0,108
1,note_on,72,0,0
1,note_on,76,49,132
1,note_on,72,41,0
1,note_on,72,0,350
1,note_on,76,0,0
1,note_on,72,45,10
1,note_on,76,53,0
1,note_on,72,0,117
1,note_on,76,0,1
1,note_on,76,49,2
1,note_on,79,58,0
1,note_on,79,0,117
1,note_on,76,0,0
1,note_on,74,45,3
1,note_on,78,54,0
1,note_on,74,0,117
1,note_on,78,0,1
1,note_on,72,50,2
1,note_on,76,59,0
1,note_on,76,0,117
1,note_on,72,0,0
1,note_on,69,43,3
1,note_on,72,51,0
1,note_on,72,0,117
1,note_on,69,0,1
1,note_on,72,47,2
1,note_on,76,56,0
1,note_on,76,0,117
1,note_on,72,0,0
1,note_on,69,43,3
1,note_on,72,51,0
1,note_on,72,0,120
1,note_on,69,0,0
1,note_on,66,39,0
1,note_on,69,46,0
1,note_on,69,0,108
1,note_on,66,0,0
1,note_on,69,53,132
1,note_on,66,45,0
1,note_on,66,0,350
1,note_on,69,0,0
1,note_on,66,45,10
1,note_on,69,53,0
1,note_on,66,0,117
1,note_on,69,0,1
1,note_on,69,49,2
1,note_on,72,58,0
1,note_on,72,0,117
1,note_on,69,0,0
1,note_on,67,45,3
1,note_on,71,54,0
1,note_on,67,0,117
1,note_on,71,0,1
1,note_on,66,50,2
1,note_on,69,59,0
1,note_on,69,0,117
1,note_on,66,0,0
1,note_on,67,43,3
1,note_on,71,51,0
1,note_on,71,0,117
1,note_on,67,0,0
1,note_on,66,47,3
1,note_on,69,56,0
1,note_on,69,0,117
1,note_on,66,0,0
1,note_on,64,43,3
1,note_on,66,51,0
1,note_on,66,0,120
1,note_on,64,0,0
1,note_on,63,39,0
1,note_on,71,46,0
1,note_on,71,0,108
1,note_on,63,0,0
1,note_on,71,49,132
1,note_on,63,41,0
1,note_on,63,0,350
1,note_on,71,0,0
1,note_on,66,45,10
1,note_on,69,53,0
1,note_on,66,0,117
1,note_on,69,0,1
1,note_on,69,49,2
1,note_on,72,58,0
1,note_on,72,0,117
1,note_on,69,0,0
1,note_on,67,45,3
1,note_on,71,54,0
1,note_on,67,0,117
1,note_on,71,0,1
1,note_on,66,50,2
1,note_on,69,59,0
1,note_on,69,0,117
1,note_on,66,0,0
1,note_on,67,43,3
1,note_on,71,51,0
1,note_on,71,0,117
1,note_on,67,0,0
1,note_on,66,47,3
1,note_on,69,56,0
1,note_on,69,0,117
1,note_on,66,0,0
1,note_on,64,43,3
1,note_on,66,51,0
1,note_on,66,0,120
1,note_on,64,0,0
1,note_on,63,39,0
1,note_on,71,46,0
1,note_on,71,0,108
1,note_on,63,0,0
1,note_on,71,49,132
1,note_on,63,41,0
1,note_on,63,0,350
1,note_on,71,0,0
1,note_on,66,45,10
1,note_on,69,53,0
1,note_on,66,0,117
1,note_on,69,0,1
1,note_on,69,49,2
1,note_on,72,58,0
1,note_on,72,0,117
1,note_on,69,0,0
1,note_on,67,45,3
1,note_on,71,54,0
1,note_on,67,0,117
1,note_on,71,0,1
1,note_on,66,50,2
1,note_on,69,59,0
1,note_on,69,0,117
1,note_on,66,0,0
1,note_on,67,43,3
1,note_on,71,51,0
1,note_on,71,0,117
1,note_on,67,0,0
1,note_on,66,47,3
1,note_on,69,56,0
1,note_on,69,0,117
1,note_on,66,0,0
1,note_on,64,43,3
1,note_on,66,51,0
1,note_on,66,0,120
1,note_on,64,0,0
1,note_on,63,39,0
1,note_on,71,46,0
1,note_on,71,0,108
1,note_on,63,0,0
1,note_on,71,48,132
1,note_on,63,40,0
1,note_on,63,0,470
1,note_on,71,0,0
1,note_on,63,46,10
1,note_on,71,46,0
1,note_on,71,0,480
1,note_on,63,0,0
1,note_on,63,45,0
1,note_on,71,45,0
1,note_on,71,0,240
1,note_on,63,0,0
1,note_on,63,35,0
1,note_on,71,41,0
1,note_on,71,0,108
1,note_on,63,0,0
1,note_on,71,43,132
1,note_on,63,36,0
1,note_on,63,0,470
1,note_on,71,0,0
1,note_on,63,41,10
1,note_on,71,41,0
1,note_on,71,0,480
1,note_on,63,0,0
1,note_on,63,40,0
1,note_on,71,40,0
1,note_on,71,0,240
1,note_on,63,0,0
1,note_on,67,34,0
1,note_on,71,40,0
1,note_on,71,0,108
1,note_on,67,0,0
1,note_on,67,39,132
1,note_on,71,47,0
1,note_on,71,0,350
1,note_on,67,0,0
1,note_on,62,35,10
1,note_on,69,41,0
1,note_on,69,0,118
1,note_on,62,0,0
1,note_on,67,36,2
1,note_on,71,43,0
1,note_on,71,0,118
1,note_on,67,0,0
1,note_on,74,41,2
1,note_on,69,34,0
1,note_on,74,0,117
1,note_on,69,0,1
1,note_on,67,36,2
1,note_on,71,43,0
1,note_on,71,0,118
1,note_on,67,0,0
1,note_on,62,38,2
1,note_on,69,38,0
1,note_on,69,0,118
1,note_on,62,0,0
1,note_on,67,35,2
1,note_on,71,41,0
1,note_on,71,0,118
1,note_on,67,0,0
1,note_on,69,38,2
1,note_on,74,38,0
1,note_on,74,0,120
1,note_on,69,0,0
1,note_on,67,34,0
1,note_on,71,40,0
1,note_on,71,0,108
1,note_on,67,0,0
1,note_on,67,39,132
1,note_on,71,47,0
1,note_on,71,0,350
1,note_on,67,0,0
1,note_on,62,35,10
1,note_on,69,41,0
1,note_on,69,0,118
1,note_on,62,0,0
1,note_on,67,37,2
1,note_on,71,44,0
1,note_on,71,0,118
1,note_on,67,0,0
1,note_on,69,35,2
1,note_on,74,43,0
1,note_on,74,0,118
1,note_on,69,0,0
1,note_on,67,38,2
1,note_on,71,46,0
1,note_on,71,0,118
1,note_on,67,0,0
1,note_on,62,41,2
1,note_on,69,41,0
1,note_on,69,0,118
1,note_on,62,0,0
1,note_on,67,38,2
1,note_on,71,45,0
1,note_on,71,0,118
1,note_on,67,0,0
1,note_on,69,42,2
1,note_on,74,42,0
1,note_on,74,0,120
1,note_on,69,0,0
1,note_on,72,39,0
1,note_on,76,46,0
1,note_on,76,0,108
1,note_on,72,0,0
1,note_on,76,49,132
1,note_on,72,41,0
1,note_on,72,0,350
1,note_on,76,0,0
1,note_on,67,40,10
1,note_on,74,47,0
1,note_on,67,0,117
1,note_on,74,0,1
1,note_on,72,41,2
1,note_on,76,49,0
1,note_on,72,0,117
1,note_on,76,0,1
1,note_on,67,39,2
1,note_on,74,47,0
1,note_on,67,0,117
1,note_on,74,0,1
1,note_on,64,41,2
1,note_on,72,49,0
1,note_on,72,0,117
1,note_on,64,0,1
1,note_on,62,43,2
1,note_on,67,43,0
1,note_on,67,0,117
1,note_on,62,0,1
1,note_on,64,40,2
1,note_on,72,47,0
1,note_on,72,0,117
1,note_on,64,0,1
1,note_on,67,43,2
1,note_on,77,43,0
1,note_on,77,0,120
1,note_on,67,0,0
1,note_on,72,39,0
1,note_on,76,46,0
1,note_on,76,0,108
1,note_on,72,0,0
1,note_on,76,49,132
1,note_on,72,41,0
1,note_on,72,0,350
1,note_on,76,0,0
1,note_on,72,45,10
1,note_on,76,53,0
1,note_on,72,0,117
1,note_on,76,0,1
1,note_on,72,49,2
1,note_on,76,58,0
1,note_on,76,0,117
1,note_on,72,0,0
1,note_on,72,45,3
1,note_on,76,54,0
1,note_on,72,0,117
1,note_on,76,0,1
1,note_on,74,58,2
1,note_on,76,61,0
1,note_on,74,0,117
1,note_on,71,55,3
1,note_on,71,0,117
1,note_on,73,56,3
1,note_on,73,0,117
1,note_on,74,53,3
1,note_on,76,0,110
1,note_on,74,0,10
1,note_on,73,60,0
1,note_on,76,60,0
1,note_on,76,0,108
1,note_on,73,0,0
1,note_on,76,63,132
1,note_on,73,63,0
1,note_on,73,0,350
1,note_on,76,0,0
1,note_on,76,49,10
1,note_on,79,58,0
1,note_on,79,0,117
1,note_on,76,0,0
1,note_on,79,53,3
1,note_on,82,63,0
1,note_on,82,0,117
1,note_on,79,0,0
1,note_on,77,48,3
1,note_on,81,58,0
1,note_on,77,0,117
1,note_on,81,0,1
1,note_on,76,53,2
1,note_on,79,62,0
1,note_on,79,0,117
1,note_on,76,0,0
1,note_on,77,45,3
1,note_on,81,53,0
1,note_on,81,0,117
1,note_on,77,0,0
1,note_on,76,48,3
1,note_on,79,57,0
1,note_on,79,0,117
1,note_on,76,0,0
1,note_on,74,43,3
1,note_on,76,52,0
1,note_on,76,0,120
1,note_on,74,0,0
1,note_on,73,39,0
1,note_on,81,46,0
1,note_on,81,0,108
1,note_on,73,0,0
1,note_on,81,53,132
1,note_on,73,45,0
1,note_on,73,0,350
1,note_on,81,0,0
1,note_on,76,45,10
1,note_on,79,53,0
1,note_on,79,0,117
1,note_on,76,0,0
1,note_on,79,49,3
1,note_on,82,58,0
1,note_on,82,0,117
1,note_on,79,0,0
1,note_on,77,45,3
1,note_on,81,54,0
1,note_on,77,0,117
1,note_on,81,0,1
1,note_on,76,50,2
1,note_on,79,59,0
1,note_on,79,0,117
1,note_on,76,0,0
1,note_on,77,43,3
1,note_on,81,51,0
1,note_on,81,0,117
1,note_on,77,0,0
1,note_on,76,47,3
1,note_on,79,56,0
1,note_on,79,0,117
1,note_on,76,0,0
1,note_on,74,43,3
1,note_on,76,51,0
1,note_on,76,0,120
1,note_on,74,0,0
1,note_on,73,39,0
1,note_on,81,46,0
1,note_on,81,0,108
1,note_on,73,0,0
1,note_on,81,48,132
1,note_on,73,40,0
1,note_on,73,0,470
1,note_on,81,0,0
1,note_on,73,46,10
1,note_on,81,46,0
1,note_on,81,0,480
1,note_on,73,0,0
1,note_on,73,45,0
1,note_on,81,45,0
1,note_on,81,0,240
1,note_on,73,0,0
1,note_on,73,40,0
1,note_on,81,48,0
1,note_on,81,0,108
1,note_on,73,0,0
1,note_on,81,56,132
1,note_on,73,47,0
1,note_on,73,0,470
1,note_on,81,0,0
1,note_on,69,76,130
1,note_on,69,0,120
1,note_on,66,68,0
1,note_on,74,81,0
1,note_on,74,0,108
1,note_on,66,0,0
1,note_on,74,75,12
1,note_on,66,63,0
1,note_on,66,0,240
1,note_on,74,0,0
1,note_on,69,64,0
1,note_on,76,76,0
1,note_on,76,0,120
1,note_on,69,0,0
1,note_on,74,73,0
1,note_on,78,86,0
1,note_on,78,0,216
1,note_on,74,0,0
1,note_on,74,72,24
1,note_on,78,85,0
1,note_on,78,0,357
1,note_on,74,0,0
1,note_on,74,73,3
1,note_on,78,86,0
1,note_on,78,0,240
1,note_on,74,0,0
1,note_on,69,65,0
1,note_on,76,77,0
1,note_on,76,0,120
1,note_on,69,0,0
1,note_on,66,65,0
1,note_on,74,77,0
1,note_on,74,0,108
1,note_on,66,0,0
1,note_on,71,73,12
1,note_on,74,86,0
1,note_on,74,0,240
1,note_on,71,0,0
1,note_on,66,64,0
1,note_on,73,76,0
1,note_on,73,0,120
1,note_on,66,0,0
1,note_on,62,68,0
1,note_on,71,80,0
1,note_on,71,0,216
1,note_on,62,0,0
1,note_on,67,73,24
1,note_on,71,86,0
1,note_on,71,0,480
1,note_on,67,0,0
1,note_on,71,76,0
1,note_on,71,0,240
1,note_on,67,68,0
1,note_on,76,81,0
1,note_on,76,0,108
1,note_on,67,0,0
1,note_on,76,75,12
1,note_on,67,63,0
1,note_on,67,0,240
1,note_on,76,0,0
1,note_on,71,64,0
1,note_on,78,76,0
1,note_on,78,0,120
1,note_on,71,0,0
1,note_on,76,73,0
1,note_on,79,86,0
1,note_on,79,0,216
1,note_on,76,0,0
1,note_on,76,72,24
1,note_on,79,85,0
1,note_on,79,0,357
1,note_on,76,0,0
1,note_on,76,73,3
1,note_on,79,86,0
1,note_on,79,0,240
1,note_on,76,0,0
1,note_on,71,63,0
1,note_on,77,74,0
1,note_on,77,0,120
1,note_on,71,0,0
1,note_on,67,65,0
1,note_on,76,77,0
1,note_on,76,0,108
1,note_on,67,0,0
1,note_on,72,73,12
1,note_on,76,86,0
1,note_on,76,0,240
1,note_on,72,0,0
1,note_on,68,62,0
1,note_on,74,73,0
1,note_on,74,0,120
1,note_on,68,0,0
1,note_on,64,68,0
1,note_on,72,80,0
1,note_on,72,0,108
1,note_on,64,0,0
1,note_on,64,73,132
1,note_on,72,86,0
1,note_on,72,0,356
1,note_on,64,0,1
1,note_on,60,73,3
1,note_on,69,73,0
1,note_on,72,86,0
1,note_on,69,0,238
1,note_on,72,0,2
1,note_on,60,0,0
1,note_on,62,63,0
1,note_on,69,63,0
1,note_on,74,74,0
1,note_on,74,0,120
1,note_on,62,0,0
1,note_on,64,65,0
1,note_on,76,77,0
1,note_on,76,0,108
1,note_on,64,0,0
1,note_on,69,0,12
1,note_on,65,73,0
1,note_on,74,73,0
1,note_on,77,86,0
1,note_on,77,0,240
1,note_on,74,0,0
1,note_on,65,0,0
1,note_on,74,64,0
1,note_on,67,64,0
1,note_on,79,76,0
1,note_on,79,0,120
1,note_on,67,0,0
1,note_on,74,0,0
1,note_on,69,68,0
1,note_on,72,68,0
1,note_on,81,80,0
1,note_on,81,0,108
1,note_on,72,0,0
1,note_on,69,0,12
1,note_on,69,73,120
1,note_on,72,73,0
1,note_on,81,86,0
1,note_on,72,0,356
1,note_on,81,0,1
1,note_on,69,0,0
1,note_on,65,70,3
1,note_on,72,83,0
1,note_on,72,0,117
1,note_on,65,0,0
1,note_on,65,73,3
1,note_on,69,73,0
1,note_on,77,86,0
1,note_on,77,0,117
1,note_on,65,0,0
1,note_on,69,0,1
1,note_on,65,69,2
1,note_on,72,82,0
1,note_on,72,0,117
1,note_on,65,0,0
1,note_on,65,73,3
1,note_on,69,86,0
1,note_on,65,0,117
1,note_on,69,0,1
1,note_on,65,80,2
1,note_on,65,0,117
1,note_on,65,70,3
1,note_on,69,83,0
1,note_on,65,0,117
1,note_on,69,0,1
1,note_on,65,67,2
1,note_on,72,80,0
1,note_on,69,67,0
1,note_on,69,0,120
1,note_on,72,0,0
1,note_on,65,0,0
1,note_on,70,68,0
1,note_on,62,68,0
1,note_on,65,68,0
1,note_on,74,80,0
1,note_on,74,0,108
1,note_on,65,0,0
1,note_on,62,0,12
1,note_on,70,0,0
1,note_on,70,73,120
1,note_on,62,73,0
1,note_on,65,73,0
1,note_on,74,86,0
1,note_on,65,0,356
1,note_on,70,0,0
1,note_on,62,0,1
1,note_on,74,0,0
1,note_on,62,77,3
1,note_on,65,77,0
1,note_on,74,91,0
1,note_on,65,0,238
1,note_on,74,0,2
1,note_on,62,0,0
1,note_on,60,69,0
1,note_on,65,69,0
1,note_on,72,82,0
1,note_on,72,0,120
1,note_on,65,0,0
1,note_on,60,0,0
1,note_on,62,73,0
1,note_on,65,73,0
1,note_on,74,86,0
1,note_on,74,0,114
1,note_on,65,0,0
1,note_on,62,0,0
1,note_on,62,83,6
1,note_on,65,83,0
1,note_on,74,83,0
1,note_on,74,0,240
1,note_on,65,0,0
1,note_on,62,0,0
1,note_on,63,70,0
1,note_on,75,83,0
1,note_on,65,70,0
1,note_on,65,0,120
1,note_on,75,0,0
1,note_on,63,0,0
1,note_on,62,68,0
1,note_on,65,68,0
1,note_on,74,80,0
1,note_on,74,0,108
1,note_on,65,0,0
1,note_on,62,0,12
1,note_on,62,73,120
1,note_on,65,73,0
1,note_on,74,86,0
1,note_on,74,0,360
1,note_on,65,0,0
1,note_on,62,0,0
1,note_on,70,70,0
1,note_on,77,83,0
1,note_on,77,0,117
1,note_on,70,0,0
1,note_on,70,73,3
1,note_on,74,73,0
1,note_on,82,86,0
1,note_on,82,0,117
1,note_on,70,0,0
1,note_on,74,0,1
1,note_on,70,69,2
1,note_on,77,82,0
1,note_on,77,0,117
1,note_on,70,0,0
1,note_on,70,73,3
1,note_on,74,86,0
1,note_on,70,0,117
1,note_on,74,0,1
1,note_on,70,70,2
1,note_on,77,80,0
1,note_on,77,0,117
1,note_on,70,0,0
1,note_on,74,70,3
1,note_on,70,70,0
1,note_on,82,83,0
1,note_on,82,0,117
1,note_on,70,0,0
1,note_on,74,0,1
1,note_on,72,70,2
1,note_on,84,84,0
1,note_on,77,70,0
1,note_on,77,0,120
1,note_on,84,0,0
1,note_on,72,0,0
1,note_on,82,78,0
1,note_on,74,78,0
1,note_on,86,92,0
1,note_on,86,0,108
1,note_on,74,0,12
1,note_on,82,0,0
1,note_on,82,83,120
1,note_on,74,83,0
1,note_on,86,98,0
1,note_on,82,0,356
1,note_on,86,0,1
1,note_on,74,0,0
1,note_on,82,90,3
1,note_on,86,90,0
1,note_on,94,106,0
1,note_on,94,0,230
1,note_on,86,0,0
1,note_on,82,0,0
1,note_on,82,87,10
1,note_on,86,87,0
1,note_on,94,102,0
1,note_on,94,0,120
1,note_on,86,0,0
1,note_on,82,0,0
1,note_on,82,78,0
1,note_on,76,78,0
1,note_on,88,92,0
1,note_on,88,0,108
1,note_on,76,0,12
1,note_on,82,0,0
1,note_on,82,83,120
1,note_on,76,83,0
1,note_on,88,98,0
1,note_on,88,0,360
1,note_on,76,0,0
1,note_on,82,0,0
1,note_on,77,90,0
1,note_on,81,90,0
1,note_on,89,106,0
1,note_on,89,0,230
1,note_on,81,0,0
1,note_on,77,0,0
1,note_on,77,87,10
1,note_on,81,87,0
1,note_on,89,102,0
1,note_on,89,0,120
1,note_on,81,0,0
1,note_on,77,0,0
1,note_on,69,68,0
1,note_on,65,68,0
1,note_on,77,80,0
1,note_on,77,0,108
1,note_on,65,0,0
1,note_on,69,0,12
1,note_on,65,73,120
1,note_on,69,73,0
1,note_on,77,86,0
1,note_on,77,0,355
1,note_on,65,0,0
1,note_on,69,0,5
1,note_on,69,47,0
1,note_on,65,47,0
1,note_on,77,56,0
1,note_on,77,0,230
1,note_on,65,0,0
1,note_on,69,0,0
1,note_on,65,51,10
1,note_on,69,51,0
1,note_on,77,60,0
1,note_on,77,0,120
1,note_on,69,0,0
1,note_on,65,0,0
1,note_on,69,47,0
1,note_on,66,47,0
1,note_on,78,56,0
1,note_on,78,0,108
1,note_on,66,0,0
1,note_on,69,0,12
1,note_on,66,51,120
1,note_on,69,51,0
1,note_on,78,60,0
1,note_on,78,0,355
1,note_on,66,0,0
1,note_on,69,0,5
1,note_on,69,40,0
1,note_on,78,48,0
1,note_on,66,40,0
1,note_on,66,0,120
1,note_on,78,0,0
1,note_on,69,0,0
1,note_on,69,44,0
1,note_on,72,44,0
1,note_on,81,52,0
1,note_on,81,0,120
1,note_on,72,0,0
1,note_on,69,0,0
1,note_on,67,40,0
1,note_on,70,40,0
1,note_on,79,48,0
1,note_on,79,0,120
1,note_on,70,0,0
1,note_on,67,0,0
1,note_on,66,44,0
1,note_on,69,44,0
1,note_on,78,52,0
1,note_on,78,0,120
1,note_on,69,0,0
1,note_on,66,0,0
1,note_on,67,39,0
1,note_on,70,39,0
1,note_on,79,47,0
1,note_on,79,0,120
1,note_on,70,0,0
1,note_on,67,0,0
1,note_on,66,39,0
1,note_on,69,39,0
1,note_on,78,47,0
1,note_on,78,0,120
1,note_on,69,0,0
1,note_on,66,0,0
1,note_on,63,37,0
1,note_on,67,37,0
1,note_on,75,45,0
1,note_on,75,0,120
1,note_on,67,0,0
1,note_on,63,0,0
1,note_on,66,39,0
1,note_on,62,39,0
1,note_on,74,46,0
1,note_on,74,0,108
1,note_on,62,0,0
1,note_on,66,0,12
1,note_on,62,42,120
1,note_on,66,42,0
1,note_on,74,51,0
1,note_on,74,0,355
1,note_on,62,0,0
1,note_on,66,0,5
1,note_on,69,40,0
1,note_on,78,48,0
1,note_on,66,40,0
1,note_on,66,0,120
1,note_on,78,0,0
1,note_on,69,0,0
1,note_on,69,44,0
1,note_on,72,44,0
1,note_on,81,52,0
1,note_on,81,0,120
1,note_on,72,0,0
1,note_on,69,0,0
1,note_on,67,40,0
1,note_on,70,40,0
1,note_on,79,48,0
1,note_on,79,0,120
1,note_on,70,0,0
1,note_on,67,0,0
1,note_on,66,44,0
1,note_on,69,44,0
1,note_on,78,52,0
1,note_on,78,0,120
1,note_on,69,0,0
1,note_on,66,0,0
1,note_on,67,39,0
1,note_on,70,39,0
1,note_on,79,47,0
1,note_on,79,0,120
1,note_on,70,0,0
1,note_on,67,0,0
1,note_on,66,39,0
1,note_on,69,39,0
1,note_on,78,47,0
1,note_on,78,0,120
1,note_on,69,0,0
1,note_on,66,0,0
1,note_on,63,37,0
1,note_on,67,37,0
1,note_on,75,45,0
1,note_on,75,0,120
1,note_on,67,0,0
1,note_on,63,0,0
1,note_on,66,39,0
1,note_on,62,39,0
1,note_on,74,46,0
1,note_on,74,0,108
1,note_on,62,0,0
1,note_on,66,0,12
1,note_on,62,42,120
1,note_on,66,42,0
1,note_on,74,51,0
1,note_on,74,0,355
1,note_on,62,0,0
1,note_on,66,0,5
1,note_on,66,44,0
1,note_on,62,44,0
1,note_on,74,52,0
1,note_on,74,0,220
1,note_on,62,0,0
1,note_on,66,0,0
1,note_on,62,39,20
1,note_on,66,39,0
1,note_on,74,47,0
1,note_on,74,0,110
1,note_on,66,0,0
1,note_on,62,0,0
1,note_on,66,44,10
1,note_on,62,44,0
1,note_on,74,52,0
1,note_on,74,0,108
1,note_on,62,0,0
1,note_on,66,0,12
1,note_on,62,39,120
1,note_on,66,39,0
1,note_on,74,47,0
1,note_on,74,0,355
1,note_on,62,0,0
1,note_on,66,0,5
1,note_on,66,44,0
1,note_on,63,44,0
1,note_on,75,52,0
1,note_on,75,0,108
1,note_on,63,0,0
1,note_on,66,0,12
1,note_on,63,39,120
1,note_on,66,39,0
1,note_on,75,47,0
1,note_on,75,0,110
1,note_on,66,0,0
1,note_on,63,0,0
1,note_on,66,44,10
1,note_on,63,44,0
1,note_on,75,52,0
1,note_on,75,0,220
1,note_on,63,0,0
1,note_on,66,0,0
1,note_on,63,39,20
1,note_on,66,39,0
1,note_on,75,47,0
1,note_on,75,0,355
1,note_on,63,0,0
1,note_on,66,0,5
1,note_on,78,48,0
1,note_on,75,48,0
1,note_on,87,57,0
1,note_on,87,0,108
1,note_on,75,0,0
1,note_on,78,0,12
1,note_on,75,39,120
1,note_on,78,39,0
1,note_on,87,47,0
1,note_on,87,0,110
1,note_on,78,0,0
1,note_on,75,0,0
1,note_on,78,44,10
1,note_on,75,44,0
1,note_on,87,52,0
1,note_on,87,0,220
1,note_on,75,0,0
1,note_on,78,0,0
1,note_on,75,39,20
1,note_on,78,39,0
1,note_on,87,47,0
1,note_on,87,0,355
1,note_on,75,0,0
1,note_on,78,0,5
1,note_on,64,40,0
1,note_on,61,40,0
1,note_on,73,48,0
1,note_on,73,0,108
1,note_on,61,0,0
1,note_on,64,0,12
1,note_on,61,33,120
1,note_on,64,33,0
1,note_on,73,39,0
1,note_on,73,0,110
1,note_on,64,0,0
1,note_on,61,0,0
1,note_on,64,37,10
1,note_on,61,37,0
1,note_on,73,44,0
1,note_on,73,0,220
1,note_on,61,0,0
1,note_on,64,0,0
1,note_on,61,33,20
1,note_on,64,33,0
1,note_on,73,39,0
1,note_on,73,0,355
1,note_on,61,0,0
1,note_on,64,0,5
1,note_on,77,37,0
1,note_on,73,37,0
1,note_on,85,44,0
1,note_on,85,0,108
1,note_on,73,0,0
1,note_on,77,0,12
1,note_on,73,33,120
1,note_on,77,33,0
1,note_on,85,39,0
1,note_on,85,0,110
1,note_on,77,0,0
1,note_on,73,0,0
1,note_on,77,37,10
1,note_on,73,37,0
1,note_on,85,44,0
1,note_on,85,0,220
1,note_on,73,0,0
1,note_on,77,0,0
1,note_on,73,33,20
1,note_on,77,33,0
1,note_on,85,39,0
1,note_on,85,0,355
1,note_on,73,0,0
1,note_on,77,0,5
1,note_on,62,31,0
1,note_on,59,31,0
1,note_on,71,37,0
1,note_on,71,0,108
1,note_on,59,0,0
1,note_on,62,0,12
1,note_on,59,28,120
1,note_on,62,28,0
1,note_on,71,33,0
1,note_on,71,0,110
1,note_on,62,0,0
1,note_on,59,0,0
1,note_on,75,31,130
1,note_on,71,31,0
1,note_on,83,37,0
1,note_on,83,0,108
1,note_on,71,0,0
1,note_on,75,0,12
1,note_on,71,28,120
1,note_on,75,28,0
1,note_on,83,33,0
1,note_on,83,0,110
1,note_on,75,0,0
1,note_on,71,0,0
1,note_on,60,26,130
1,note_on,57,26,0
1,note_on,69,31,0
1,note_on,69,0,108
1,note_on,57,0,0
1,note_on,60,0,12
1,note_on,57,23,120
1,note_on,60,23,0
1,note_on,69,28,0
1,note_on,69,0,110
1,note_on,60,0,0
1,note_on,57,0,0
1,note_on,73,26,130
1,note_on,69,26,0
1,note_on,81,31,0
1,note_on,81,0,108
1,note_on,69,0,0
1,note_on,73,0,12
1,note_on,69,23,120
1,note_on,73,23,0
1,note_on,81,28,0
1,note_on,81,0,110
1,note_on,73,0,0
1,note_on,69,0,0
1,note_on,59,60,250
1,note_on,62,60,0
1,note_on,65,60,0
1,note_on,69,72,0
1,note_on,69,0,456
1,note_on,59,0,0
1,note_on,62,0,0
1,note_on,65,0,0
1,note_on,59,41,24
1,note_on,62,41,0
1,note_on,65,41,0
1,note_on,69,49,0
1,note_on,69,0,240
1,note_on,59,0,0
1,note_on,62,0,0
1,note_on,65,0,0
1,note_on,59,28,240
1,note_on,62,28,0
1,note_on,64,28,0
1,note_on,68,33,0
1,note_on,68,0,480
1,note_on,59,0,0
1,note_on,62,0,0
1,note_on,64,0,0
1,note_on,59,24,0
1,note_on,62,24,0
1,note_on,64,24,0
1,note_on,68,29,0
1,note_on,68,0,216
1,note_on,59,0,0
1,note_on,62,0,0
1,note_on,64,0,0
1,note_on,76,52,384
1,note_on,76,0,90
1,note_on,80,52,150
1,note_on,80,0,60
1,note_on,78,46,0
1,note_on,78,0,60
1,note_on,76,54,120
1,note_on,76,0,60
1,note_on,75,46,0
1,note_on,75,0,60
1,note_on,76,50,120
1,note_on,76,0,240
1,note_on,73,54,0
1,note_on,73,0,120
1,note_on,76,55,0
1,note_on,76,0,120
1,note_on,81,55,0
1,note_on,81,0,90
1,note_on,81,61,150
1,note_on,81,0,90
1,note_on,80,65,150
1,note_on,80,0,90
1,note_on,81,67,150
1,note_on,81,0,90
1,note_on,82,69,270
1,note_on,82,0,360
1,note_on,83,63,0
1,note_on,83,0,120
1,note_on,85,64,120
1,note_on,85,0,90
1,note_on,86,72,150
1,note_on,86,0,90
1,note_on,87,78,150
1,note_on,87,0,90
1,note_on,88,77,270
1,note_on,88,0,360
1,note_on,90,68,0
1,note_on,90,0,120
1,note_on,88,71,120
1,note_on,88,0,90
1,note_on,86,66,150
1,note_on,86,0,90
1,note_on,83,62,150
1,note_on,83,0,90
1,note_on,81,62,30
1,note_on,81,0,120
1,note_on,93,75,0
1,note_on,93,0,180
1,note_on,92,54,0
1,note_on,92,0,30
1,note_on,90,53,0
1,note_on,90,0,30
1,note_on,88,51,0
1,note_on,88,0,30
1,note_on,86,50,0
1,note_on,86,0,30
1,note_on,85,48,0
1,note_on,85,0,30
1,note_on,83,46,0
1,note_on,83,0,30
1,note_on,81,53,0
1,note_on,81,0,90
1,note_on,76,62,270
1,note_on,76,0,90
1,note_on,80,62,150
1,note_on,80,0,60
1,note_on,78,59,0
1,note_on,78,0,60
1,note_on,76,62,120
1,note_on,76,0,60
1,note_on,75,57,0
1,note_on,75,0,60
1,note_on,76,66,120
1,note_on,76,0,240
1,note_on,73,66,0
1,note_on,73,0,120
1,note_on,76,69,0
1,note_on,76,0,120
1,note_on,81,66,0
1,note_on,81,0,90
1,note_on,81,75,150
1,note_on,81,0,90
1,note_on,85,81,150
1,note_on,85,0,90
1,note_on,87,85,150
1,note_on,87,0,90
1,note_on,88,80,150
1,note_on,88,0,240
1,note_on,90,76,0
1,note_on,90,0,120
1,note_on,92,82,0
1,note_on,92,0,120
1,note_on,97,75,0
1,note_on,97,0,90
1,note_on,85,62,150
1,note_on,85,0,60
1,note_on,88,56,0
1,note_on,88,0,60
1,note_on,88,62,120
1,note_on,88,0,60
1,note_on,87,57,0
1,note_on,87,0,60
1,note_on,87,62,120
1,note_on,87,0,60
1,note_on,80,56,0
1,note_on,80,0,60
1,note_on,80,62,120
1,note_on,80,0,180
1,note_on,81,57,0
1,note_on,81,0,60
1,note_on,83,59,0
1,note_on,83,0,60
1,note_on,84,60,0
1,note_on,84,0,60
1,note_on,85,62,0
1,note_on,85,0,90
1,note_on,85,62,30
1,note_on,85,0,90
1,note_on,93,62,150
1,note_on,93,0,60
1,note_on,97,57,0
1,note_on,97,0,60
1,note_on,97,62,120
1,note_on,97,0,60
1,note_on,95,57,0
1,note_on,95,0,60
1,note_on,95,62,120
1,note_on,95,0,60
1,note_on,88,57,0
1,note_on,88,0,60
1,note_on,88,62,120
1,note_on,88,0,180
1,note_on,90,56,0
1,note_on,90,0,60
1,note_on,91,58,0
1,note_on,91,0,60
1,note_on,92,60,0
1,note_on,92,0,60
1,note_on,93,62,0
1,note_on,93,0,120
1,note_on,81,44,120
1,note_on,73,44,0
1,note_on,76,52,0
1,note_on,76,0,240
1,note_on,73,0,0
1,note_on,81,0,0
1,note_on,81,48,0
1,note_on,74,48,0
1,note_on,78,57,0
1,note_on,78,0,216
1,note_on,74,0,0
1,note_on,81,0,24
1,note_on,81,39,0
1,note_on,72,39,0
1,note_on,75,46,0
1,note_on,75,0,216
1,note_on,72,0,0
1,note_on,81,0,24
1,note_on,81,44,0
1,note_on,73,44,0
1,note_on,76,54,0
1,note_on,76,0,710
1,note_on,73,0,0
1,note_on,81,0,0
1,note_on,73,48,10
1,note_on,76,48,0
1,note_on,81,63,0
1,note_on,81,0,240
1,note_on,83,65,0
1,note_on,83,0,240
1,note_on,76,0,0
1,note_on,73,0,0
1,note_on,73,54,0
1,note_on,76,54,0
1,note_on,85,70,0
1,note_on,85,0,216
1,note_on,76,0,0
1,note_on,73,0,0
1,note_on,74,43,24
1,note_on,78,51,0
1,note_on,85,66,0
1,note_on,85,0,480
1,note_on,83,50,0
1,note_on,83,0,240
1,note_on,78,0,0
1,note_on,74,0,0
1,note_on,74,46,0
1,note_on,81,64,0
1,note_on,74,0,230
1,note_on,81,0,10
1,note_on,74,46,0
1,note_on,80,58,0
1,note_on,74,0,230
1,note_on,80,0,10
1,note_on,74,42,0
1,note_on,78,55,0
1,note_on,78,0,216
1,note_on,74,0,0
1,note_on,74,48,24
1,note_on,76,57,0
1,note_on,76,0,710
1,note_on,74,0,0
1,note_on,68,50,10
1,note_on,74,50,0
1,note_on,76,59,0
1,note_on,76,0,230
1,note_on,74,0,0
1,note_on,68,0,0
1,note_on,68,55,10
1,note_on,74,56,0
1,note_on,78,65,0
1,note_on,78,0,216
1,note_on,74,0,0
1,note_on,68,0,0
1,note_on,68,50,24
1,note_on,74,50,0
1,note_on,76,59,0
1,note_on,76,0,216
1,note_on,74,0,0
1,note_on,68,0,0
1,note_on,74,58,24
1,note_on,78,69,0
1,note_on,78,0,480
1,note_on,74,0,0
1,note_on,73,42,0
1,note_on,76,50,0
1,note_on,76,0,230
1,note_on,73,0,0
1,note_on,76,60,10
1,note_on,69,60,0
1,note_on,73,71,0
1,note_on,69,0,230
1,note_on,73,0,10
1,note_on,76,0,0
1,note_on,69,64,0
1,note_on,74,64,0
1,note_on,78,78,0
1,note_on,78,0,216
1,note_on,74,0,0
1,note_on,69,0,0
1,note_on,69,59,24
1,note_on,72,59,0
1,note_on,75,71,0
1,note_on,75,0,216
1,note_on,72,0,0
1,note_on,69,0,0
1,note_on,69,66,24
1,note_on,73,66,0
1,note_on,76,82,0
1,note_on,76,0,710
1,note_on,73,0,0
1,note_on,69,0,10
1,note_on,69,66,0
1,note_on,73,66,0
1,note_on,76,78,0
1,note_on,76,0,230
1,note_on,73,0,0
1,note_on,69,0,0
1,note_on,73,78,10
1,note_on,76,78,0
1,note_on,81,88,0
1,note_on,76,0,230
1,note_on,73,0,0
1,note_on,81,0,10
1,note_on,76,70,0
1,note_on,81,70,0
1,note_on,85,84,0
1,note_on,85,0,216
1,note_on,81,0,0
1,note_on,76,0,0
1,note_on,85,75,24
1,note_on,76,75,0
1,note_on,80,75,0
1,note_on,88,89,0
1,note_on,88,0,710
1,note_on,80,0,0
1,note_on,85,0,0
1,note_on,76,0,10
1,note_on,73,61,0
1,note_on,80,61,0
1,note_on,85,84,0
1,note_on,80,0,230
1,note_on,85,0,10
1,note_on,73,0,0
1,note_on,75,68,0
1,note_on,78,73,0
1,note_on,87,84,0
1,note_on,87,0,230
1,note_on,78,0,0
1,note_on,75,0,0
1,note_on,84,56,10
1,note_on,78,56,0
1,note_on,87,56,0
1,note_on,92,72,0
1,note_on,92,0,216
1,note_on,87,0,0
1,note_on,78,0,0
1,note_on,84,0,24
1,note_on,80,62,0
1,note_on,76,62,0
1,note_on,73,62,0
1,note_on,85,84,0
1,note_on,85,0,710
1,note_on,73,0,0
1,note_on,76,0,10
1,note_on,80,0,0
1,note_on,64,37,0
1,note_on,69,46,0
1,note_on,69,0,240
1,note_on,64,0,0
1,note_on,63,37,0
1,note_on,69,37,0
1,note_on,71,46,0
1,note_on,71,0,216
1,note_on,69,0,0
1,note_on,63,0,24
1,note_on,68,32,0
1,note_on,62,32,0
1,note_on,71,32,0
1,note_on,76,37,0
1,note_on,76,0,216
1,note_on,71,0,0
1,note_on,62,0,0
1,note_on,68,0,24
1,note_on,61,37,0
1,note_on,69,46,0
1,note_on,69,0,720
1,note_on,61,0,0
1,note_on,73,47,0
1,note_on,79,47,0
1,note_on,82,77,0
1,note_on,79,0,230
1,note_on,82,0,10
1,note_on,73,0,0
1,note_on,74,68,0
1,note_on,79,68,0
1,note_on,83,80,0
1,note_on,79,0,230
1,note_on,74,0,0
1,note_on,83,0,10
1,note_on,79,71,0
1,note_on,76,71,0
1,note_on,85,84,0
1,note_on,85,0,216
1,note_on,76,0,0
1,note_on,79,0,24
1,note_on,79,69,0
1,note_on,83,76,0
1,note_on,74,69,0
1,note_on,86,102,0
1,note_on,86,0,590
1,note_on,79,0,0
1,note_on,83,0,0
1,note_on,74,0,0
1,note_on,83,52,10
1,note_on,86,62,0
1,note_on,86,0,90
1,note_on,83,0,0
1,note_on,79,58,30
1,note_on,83,69,0
1,note_on,83,0,90
1,note_on,79,0,0
1,note_on,74,51,30
1,note_on,79,61,0
1,note_on,79,0,90
1,note_on,74,0,0
1,note_on,71,56,30
1,note_on,74,66,0
1,note_on,74,0,90
1,note_on,71,0,0
1,note_on,67,46,30
1,note_on,71,55,0
1,note_on,71,0,90
1,note_on,67,0,0
1,note_on,62,52,30
1,note_on,67,62,0
1,note_on,67,0,90
1,note_on,62,0,0
1,note_on,59,45,30
1,note_on,62,53,0
1,note_on,62,0,90
1,note_on,59,0,0
1,note_on,60,52,30
1,note_on,64,62,0
1,note_on,64,0,720
1,note_on,60,0,0
1,note_on,59,41,0
1,note_on,62,49,0
1,note_on,62,0,90
1,note_on,59,0,0
1,note_on,62,36,30
1,note_on,67,43,0
1,note_on,67,0,90
1,note_on,62,0,0
1,note_on,60,41,30
1,note_on,64,49,0
1,note_on,64,0,90
1,note_on,60,0,0
1,note_on,64,34,30
1,note_on,72,40,0
1,note_on,72,0,90
1,note_on,64,0,0
1,note_on,71,49,30
1,note_on,65,41,0
1,note_on,65,0,90
1,note_on,71,0,0
1,note_on,71,36,30
1,note_on,77,43,0
1,note_on,77,0,90
1,note_on,71,0,0
1,note_on,72,41,30
1,note_on,76,49,0
1,note_on,76,0,180
1,note_on,72,0,0
1,note_on,59,41,60
1,note_on,62,49,0
1,note_on,62,0,90
1,note_on,59,0,0
1,note_on,62,36,30
1,note_on,67,43,0
1,note_on,67,0,90
1,note_on,62,0,0
1,note_on,60,41,30
1,note_on,64,49,0
1,note_on,64,0,90
1,note_on,60,0,0
1,note_on,64,34,30
1,note_on,72,40,0
1,note_on,72,0,90
1,note_on,64,0,0
1,note_on,71,49,30
1,note_on,65,41,0
1,note_on,65,0,90
1,note_on,71,0,0
1,note_on,71,36,30
1,note_on,77,43,0
1,note_on,77,0,90
1,note_on,71,0,0
1,note_on,72,41,30
1,note_on,76,49,0
1,note_on,76,0,180
1,note_on,72,0,0
1,note_on,77,54,60
1,note_on,83,64,0
1,note_on,83,0,90
1,note_on,77,0,0
1,note_on,83,47,30
1,note_on,89,56,0
1,note_on,89,0,90
1,note_on,83,0,0
1,note_on,84,51,30
1,note_on,88,61,0
1,note_on,88,0,90
1,note_on,84,0,0
1,note_on,76,45,30
1,note_on,84,54,0
1,note_on,84,0,90
1,note_on,76,0,0
1,note_on,83,49,30
1,note_on,77,41,0
1,note_on,77,0,90
1,note_on,83,0,0
1,note_on,71,36,30
1,note_on,77,43,0
1,note_on,77,0,90
1,note_on,71,0,0
1,note_on,72,41,30
1,note_on,76,49,0
1,note_on,76,0,180
1,note_on,72,0,0
1,note_on,68,55,60
1,note_on,64,55,0
1,note_on,74,55,0
1,note_on,76,65,0
1,note_on,74,0,173
1,note_on,68,0,7
1,note_on,64,0,0
1,note_on,76,0,0
1,note_on,69,58,60
1,note_on,66,58,0
1,note_on,74,58,0
1,note_on,78,69,0
1,note_on,74,0,173
1,note_on,66,0,0
1,note_on,69,0,7
1,note_on,78,0,0
1,note_on,71,63,60
1,note_on,76,63,0
1,note_on,68,63,0
1,note_on,80,75,0
1,note_on,80,0,162
1,note_on,68,0,0
1,note_on,76,0,18
1,note_on,71,0,0
1,note_on,73,68,60
1,note_on,76,68,0
1,note_on,69,68,0
1,note_on,81,81,0
1,note_on,81,0,180
1,note_on,73,0,0
1,note_on,76,0,0
1,note_on,69,0,0
1,note_on,71,73,60
1,note_on,75,73,0
1,note_on,83,87,0
1,note_on,81,73,0
1,note_on,81,0,180
1,note_on,71,0,0
1,note_on,75,0,0
1,note_on,83,0,0
1,note_on,85,92,60
1,note_on,81,78,0
1,note_on,73,78,0
1,note_on,76,78,0
1,note_on,76,0,360
1,note_on,85,0,0
1,note_on,81,0,0
1,note_on,73,0,0
1,note_on,69,66,0
1,note_on,69,0,120
1,note_on,62,63,0
1,note_on,64,63,0
1,note_on,68,63,0
1,note_on,73,75,0
1,note_on,73,0,360
1,note_on,71,64,0
1,note_on,71,0,120
1,note_on,68,0,0
1,note_on,64,0,0
1,note_on,62,0,0
1,note_on,61,53,0
1,note_on,64,53,0
1,note_on,69,63,0
1,note_on,69,0,720
1,note_on,64,0,0
1,note_on,61,0,0
1,note_on,76,53,0
1,note_on,76,0,120
1,note_on,74,48,0
1,note_on,74,0,90
1,note_on,74,53,30
1,note_on,74,0,120
1,note_on,73,47,0
1,note_on,73,0,120
1,note_on,71,53,0
1,note_on,71,0,120
1,note_on,69,49,0
1,note_on,69,0,45
1,note_on,69,45,15
1,note_on,69,0,60
1,note_on,76,56,0
1,note_on,76,0,720
1,note_on,76,53,0
1,note_on,76,0,120
1,note_on,74,48,0
1,note_on,74,0,90
1,note_on,74,53,30
1,note_on,74,0,80
1,note_on,73,47,0
1,note_on,73,0,80
1,note_on,71,47,0
1,note_on,71,0,80
1,note_on,70,53,0
1,note_on,70,0,80
1,note_on,73,47,0
1,note_on,73,0,80
1,note_on,74,47,0
1,note_on,73,45,40
1,note_on,73,0,40
1,note_on,74,0,0
1,note_on,76,53,0
1,note_on,76,0,720
1,note_on,70,62,0
1,note_on,70,0,120
1,note_on,78,57,0
1,note_on,78,0,120
1,note_on,74,61,0
1,note_on,74,0,60
1,note_on,76,59,0
1,note_on,76,0,60
1,note_on,74,59,0
1,note_on,74,0,60
1,note_on,73,60,0
1,note_on,73,0,60
1,note_on,71,63,0
1,note_on,71,0,60
1,note_on,73,65,0
1,note_on,73,0,60
1,note_on,74,68,0
1,note_on,74,0,60
1,note_on,76,71,0
1,note_on,76,0,60
1,note_on,78,78,0
1,note_on,70,68,240
1,note_on,70,0,240
1,note_on,71,70,0
1,note_on,71,0,240
1,note_on,78,0,0
1,note_on,82,77,0
1,note_on,73,65,0
1,note_on,73,0,240
1,note_on,82,0,0
1,note_on,83,81,0
1,note_on,74,68,0
1,note_on,74,0,240
1,note_on,83,0,0
1,note_on,78,60,0
1,note_on,71,51,0
1,note_on,78,0,120
1,note_on,74,45,0
1,note_on,74,0,120
1,note_on,71,0,0
1,note_on,69,46,0
1,note_on,73,55,0
1,note_on,73,0,480
1,note_on,69,0,0
1,note_on,68,43,0
1,note_on,71,51,0
1,note_on,71,0,240
1,note_on,68,0,0
1,note_on,64,60,0
1,note_on,63,55,120
1,note_on,64,0,20
1,note_on,63,0,70
1,note_on,64,60,30
1,note_on,64,0,120
1,note_on,59,54,0
1,note_on,59,0,120
1,note_on,57,55,0
1,note_on,57,0,30
1,note_on,59,56,0
1,note_on,59,0,30
1,note_on,57,60,0
1,note_on,57,0,60
1,note_on,56,56,0
1,note_on,56,0,45
1,note_on,56,51,15
1,note_on,56,0,60
1,note_on,64,64,0
1,note_on,64,0,120
1,note_on,64,68,120
1,note_on,64,0,470
1,note_on,64,60,10
1,note_on,63,55,120
1,note_on,64,0,20
1,note_on,63,0,70
1,note_on,64,60,30
1,note_on,64,0,120
1,note_on,60,54,0
1,note_on,60,0,120
1,note_on,59,55,0
1,note_on,59,0,30
1,note_on,60,56,0
1,note_on,60,0,30
1,note_on,59,60,0
1,note_on,59,0,60
1,note_on,57,56,0
1,note_on,57,0,45
1,note_on,57,51,15
1,note_on,57,0,60
1,note_on,65,64,0
1,note_on,65,0,120
1,note_on,65,68,120
1,note_on,65,0,470
1,note_on,65,66,10
1,note_on,64,61,120
1,note_on,65,0,20
1,note_on,64,0,70
1,note_on,65,68,30
1,note_on,65,0,120
1,note_on,62,62,0
1,note_on,62,0,120
1,note_on,60,65,0
1,note_on,60,0,30
1,note_on,62,66,0
1,note_on,62,0,30
1,note_on,60,72,0
1,note_on,60,0,60
1,note_on,59,67,0
1,note_on,59,0,45
1,note_on,59,62,15
1,note_on,59,0,60
1,note_on,67,78,0
1,note_on,67,0,230
1,note_on,62,42,10
1,note_on,67,42,0
1,note_on,71,50,0
1,note_on,71,0,228
1,note_on,67,0,0
1,note_on,62,0,0
1,note_on,60,42,12
1,note_on,67,42,0
1,note_on,72,50,0
1,note_on,72,0,228
1,note_on,67,0,0
1,note_on,60,0,0
1,note_on,62,46,12
1,note_on,67,46,0
1,note_on,74,55,0
1,note_on,74,0,228
1,note_on,67,0,0
1,note_on,62,0,0
1,note_on,64,53,12
1,note_on,67,53,0
1,note_on,76,63,0
1,note_on,76,0,228
1,note_on,67,0,0
1,note_on,64,0,0
1,note_on,79,59,12
1,note_on,67,50,0
1,note_on,71,50,0
1,note_on,79,0,120
1,note_on,77,52,0
1,note_on,71,0,108
1,note_on,67,0,0
1,note_on,77,0,2
1,note_on,67,42,10
1,note_on,71,42,0
1,note_on,77,50,0
1,note_on,77,0,480
1,note_on,71,0,0
1,note_on,72,37,0
1,note_on,76,44,0
1,note_on,76,0,240
1,note_on,72,0,0
1,note_on,67,0,0
1,note_on,67,62,0
1,note_on,76,62,0
1,note_on,79,73,0
1,note_on,79,0,230
1,note_on,76,0,0
1,note_on,67,0,0
1,note_on,72,67,10
1,note_on,79,67,0
1,note_on,84,80,0
1,note_on,79,0,230
1,note_on,84,0,10
1,note_on,72,0,0
1,note_on,79,85,0
1,note_on,74,71,0
1,note_on,86,85,0
1,note_on,86,0,216
1,note_on,74,0,0
1,note_on,79,0,0
1,note_on,76,80,24
1,note_on,79,80,0
1,note_on,88,96,0
1,note_on,88,0,180
1,note_on,79,0,0
1,note_on,76,0,0
1,note_on,76,75,60
1,note_on,79,75,0
1,note_on,88,89,0
1,note_on,88,0,460
1,note_on,79,0,0
1,note_on,76,0,0
1,note_on,72,40,20
1,note_on,76,40,0
1,note_on,84,56,0
1,note_on,84,0,240
1,note_on,79,55,0
1,note_on,76,0,230
1,note_on,79,0,10
1,note_on,72,0,0
1,note_on,71,37,0
1,note_on,74,37,0
1,note_on,77,48,0
1,note_on,77,0,216
1,note_on,74,0,0
1,note_on,71,0,24
1,note_on,72,55,0
1,note_on,76,73,0
1,note_on,76,0,180
1,note_on,72,0,0
1,note_on,72,38,60
1,note_on,76,50,0
1,note_on,76,0,480
1,note_on,72,0,0
1,note_on,65,34,0
1,note_on,67,34,0
1,note_on,74,47,0
1,note_on,74,0,240
1,note_on,65,0,0
1,note_on,64,34,0
1,note_on,72,43,0
1,note_on,67,0,230
1,note_on,72,0,10
1,note_on,64,0,0
1,note_on,59,31,0
1,note_on,67,40,0
1,note_on,67,0,216
1,note_on,59,0,24
1,note_on,60,31,0
1,note_on,64,41,0
1,note_on,64,0,180
1,note_on,60,0,0
1,note_on,60,30,60
1,note_on,64,39,0
1,note_on,64,0,480
1,note_on,60,0,0
1,note_on,64,41,0
1,note_on,60,34,0
1,note_on,60,0,120
1,note_on,64,0,0
1,note_on,59,29,0
1,note_on,62,35,0
1,note_on,62,0,108
1,note_on,59,0,0
1,note_on,59,34,12
1,note_on,62,41,0
1,note_on,62,0,120
1,note_on,59,0,0
1,note_on,60,30,0
1,note_on,64,36,0
1,note_on,64,0,108
1,note_on,60,0,0
1,note_on,60,34,12
1,note_on,64,41,0
1,note_on,64,0,120
1,note_on,60,0,0
1,note_on,59,29,0
1,note_on,65,35,0
1,note_on,65,0,120
1,note_on,59,0,0
1,note_on,60,34,0
1,note_on,64,41,0
1,note_on,64,0,240
1,note_on,60,0,0
1,note_on,76,45,0
1,note_on,72,37,0
1,note_on,72,0,120
1,note_on,76,0,0
1,note_on,71,31,0
1,note_on,74,38,0
1,note_on,74,0,108
1,note_on,71,0,0
1,note_on,71,37,12
1,note_on,74,45,0
1,note_on,74,0,120
1,note_on,71,0,0
1,note_on,72,33,0
1,note_on,76,39,0
1,note_on,76,0,108
1,note_on,72,0,0
1,note_on,71,37,12
1,note_on,79,49,0
1,note_on,79,0,120
1,note_on,77,41,0
1,note_on,77,0,120
1,note_on,71,0,0
1,note_on,72,37,0
1,note_on,76,45,0
1,note_on,76,0,240
1,note_on,72,0,0
1,note_on,64,38,0
1,note_on,60,31,0
1,note_on,60,0,120
1,note_on,64,0,0
1,note_on,59,26,0
1,note_on,62,32,0
1,note_on,62,0,108
1,note_on,59,0,0
1,note_on,59,31,12
1,note_on,62,38,0
1,note_on,62,0,120
1,note_on,59,0,0
1,note_on,60,28,0
1,note_on,64,33,0
1,note_on,64,0,108
1,note_on,60,0,0
1,note_on,59,31,12
1,note_on,67,41,0
1,note_on,67,0,120
1,note_on,65,34,0
1,note_on,65,0,120
1,note_on,59,0,0
1,note_on,60,31,0
1,note_on,64,38,0
1,note_on,64,0,240
1,note_on,60,0,0
1,note_on,72,45,0
1,note_on,76,45,0
1,note_on,76,0,240
1,note_on,72,0,0
1,note_on,74,49,0
1,note_on,76,49,0
1,note_on,76,0,120
1,note_on,74,0,0
1,note_on,78,48,0
1,note_on,78,0,30
1,note_on,76,48,0
1,note_on,76,0,30
1,note_on,74,48,0
1,note_on,74,0,3
1,note_on,76,48,27
1,note_on,76,0,30
1,note_on,78,61,0
1,note_on,74,51,0
1,note_on,78,0,180
1,note_on,76,53,0
1,note_on,76,0,60
1,note_on,74,0,0
1,note_on,73,49,0
1,note_on,76,68,0
1,note_on,76,0,120
1,note_on,81,61,0
1,note_on,73,0,110
1,note_on,81,0,10
1,note_on,73,45,0
1,note_on,76,64,0
1,note_on,76,0,120
1,note_on,85,59,0
1,note_on,85,0,120
1,note_on,73,0,0
1,note_on,71,39,0
1,note_on,76,39,0
1,note_on,80,56,0
1,note_on,80,0,480
1,note_on,76,0,0
1,note_on,71,0,0
1,note_on,69,39,0
1,note_on,75,39,0
1,note_on,80,55,0
1,note_on,80,0,240
1,note_on,78,48,0
1,note_on,78,0,180
1,note_on,76,45,0
1,note_on,76,0,60
1,note_on,75,0,0
1,note_on,69,0,0
1,note_on,68,48,0
1,note_on,76,48,0
1,note_on,76,0,360
1,note_on,68,0,0
1,note_on,56,34,0
1,note_on,56,0,108
1,note_on,59,41,12
1,note_on,59,0,108
1,note_on,64,35,12
1,note_on,64,0,108
1,note_on,68,41,12
1,note_on,71,33,120
1,note_on,71,0,120
1,note_on,68,0,0
1,note_on,69,41,0
1,note_on,73,41,0
1,note_on,73,0,216
1,note_on,69,0,0
1,note_on,67,36,24
1,note_on,70,36,0
1,note_on,70,0,216
1,note_on,67,0,0
1,note_on,68,48,24
1,note_on,71,48,0
1,note_on,71,0,360
1,note_on,68,0,0
1,note_on,59,34,0
1,note_on,59,0,108
1,note_on,64,41,12
1,note_on,64,0,108
1,note_on,68,35,12
1,note_on,68,0,108
1,note_on,68,41,12
1,note_on,71,41,0
1,note_on,71,0,120
1,note_on,76,33,0
1,note_on,68,0,110
1,note_on,76,0,10
1,note_on,68,41,0
1,note_on,71,41,0
1,note_on,78,45,0
1,note_on,78,0,216
1,note_on,71,0,0
1,note_on,68,0,14
1,note_on,68,36,10
1,note_on,72,36,0
1,note_on,80,43,0
1,note_on,80,0,216
1,note_on,72,0,0
1,note_on,68,0,24
1,note_on,69,43,0
1,note_on,73,43,0
1,note_on,80,51,0
1,note_on,80,0,480
1,note_on,78,47,0
1,note_on,78,0,120
1,note_on,73,0,0
1,note_on,69,0,0
1,note_on,69,41,0
1,note_on,69,0,108
1,note_on,69,38,12
1,note_on,73,45,0
1,note_on,76,36,120
1,note_on,69,0,102
1,note_on,76,0,18
1,note_on,73,0,0
1,note_on,69,39,0
1,note_on,75,46,0
1,note_on,75,0,216
1,note_on,69,0,0
1,note_on,69,35,24
1,note_on,73,42,0
1,note_on,73,0,216
1,note_on,69,0,0
1,note_on,69,45,24
1,note_on,71,53,0
1,note_on,69,0,240
1,note_on,71,0,120
1,note_on,71,40,0
1,note_on,71,0,108
1,note_on,75,43,12
1,note_on,75,0,108
1,note_on,78,45,12
1,note_on,78,0,108
1,note_on,81,47,12
1,note_on,83,49,120
1,note_on,83,0,60
1,note_on,85,44,0
1,note_on,85,0,30
1,note_on,87,44,0
1,note_on,81,0,20
1,note_on,87,0,10
1,note_on,81,44,0
1,note_on,85,52,0
1,note_on,85,0,216
1,note_on,81,0,0
1,note_on,81,39,24
1,note_on,83,46,0
1,note_on,83,0,216
1,note_on,81,0,0
1,note_on,81,45,24
1,note_on,85,54,0
1,note_on,85,0,480
1,note_on,81,0,0
1,note_on,83,56,0
1,note_on,83,0,120
1,note_on,64,52,120
1,note_on,68,62,0
1,note_on,73,74,240
1,note_on,73,0,240
1,note_on,68,0,0
1,note_on,64,0,0
1,note_on,66,64,0
1,note_on,68,64,0
1,note_on,72,77,0
1,note_on,72,0,240
1,note_on,68,0,0
1,note_on,66,0,0
1,note_on,64,71,0
1,note_on,69,71,0
1,note_on,73,84,0
1,note_on,73,0,360
1,note_on,69,0,0
1,note_on,64,0,0
1,note_on,63,50,0
1,note_on,63,0,120
1,note_on,64,57,0
1,note_on,64,0,120
1,note_on,69,55,0
1,note_on,69,0,120
1,note_on,73,57,0
1,note_on,73,0,120
1,note_on,76,59,0
1,note_on,76,0,110
1,note_on,78,62,10
1,note_on,76,52,0
1,note_on,76,0,230
1,note_on,78,0,10
1,note_on,74,55,0
1,note_on,80,65,0
1,note_on,76,55,0
1,note_on,76,0,180
1,note_on,80,0,0
1,note_on,74,0,0
1,note_on,74,68,60
1,note_on,83,81,0
1,note_on,80,68,0
1,note_on,80,0,1440
1,note_on,83,0,0
1,note_on,78,50,0
1,note_on,81,50,0
1,note_on,81,0,240
1,note_on,78,0,0
1,note_on,74,0,0
1,note_on,69,39,1200
1,note_on,73,39,0
1,note_on,79,47,0
1,note_on,79,0,720
1,note_on,81,39,0
1,note_on,81,0,60
1,note_on,79,36,0
1,note_on,79,0,60
1,note_on,78,39,0
1,note_on,78,0,60
1,note_on,79,36,0
1,note_on,79,0,60
1,note_on,78,46,0
1,note_on,78,0,120
1,note_on,79,39,0
1,note_on,79,0,120
1,note_on,83,47,0
1,note_on,83,0,120
1,note_on,81,37,0
1,note_on,81,0,120
1,note_on,73,0,0
1,note_on,74,39,0
1,note_on,78,46,0
1,note_on,78,0,240
1,note_on,74,0,0
1,note_on,69,0,0
1,note_on,66,50,120
1,note_on,66,0,120
1,note_on,69,57,0
1,note_on,69,0,120
1,note_on,74,55,0
1,note_on,74,0,120
1,note_on,78,57,0
1,note_on,78,0,120
1,note_on,69,51,0
1,note_on,74,51,0
1,note_on,81,59,0
1,note_on,81,0,120
1,note_on,74,0,0
1,note_on,80,62,0
1,note_on,76,52,0
1,note_on,69,0,230
1,note_on,76,0,10
1,note_on,80,0,0
1,note_on,69,46,0
1,note_on,78,65,0
1,note_on,78,0,180
1,note_on,69,0,0
1,note_on,69,58,60
1,note_on,76,69,0
1,note_on,76,0,360
1,note_on,69,0,0
1,note_on,61,50,0
1,note_on,61,0,120
1,note_on,64,57,0
1,note_on,64,0,120
1,note_on,69,55,0
1,note_on,69,0,120
1,note_on,73,57,0
1,note_on,73,0,120
1,note_on,64,51,0
1,note_on,69,51,0
1,note_on,76,59,0
1,note_on,76,0,120
1,note_on,69,0,0
1,note_on,75,62,0
1,note_on,71,52,0
1,note_on,71,0,240
1,note_on,75,0,0
1,note_on,64,0,0
1,note_on,64,46,0
1,note_on,73,65,0
1,note_on,73,0,180
1,note_on,64,0,0
1,note_on,64,58,60
1,note_on,71,69,0
1,note_on,71,0,180
1,note_on,64,0,0
1,note_on,66,73,60
1,note_on,70,73,0
1,note_on,76,73,0
1,note_on,76,0,180
1,note_on,70,0,0
1,note_on,66,0,0
1,note_on,68,65,60
1,note_on,71,65,0
1,note_on,80,77,0
1,note_on,76,65,0
1,note_on,76,0,480
1,note_on,68,0,0
1,note_on,71,0,0
1,note_on,80,0,0
1,note_on,69,52,0
1,note_on,71,52,0
1,note_on,75,52,0
1,note_on,80,62,0
1,note_on,80,0,360
1,note_on,78,42,0
1,note_on,71,0,110
1,note_on,69,0,10
1,note_on,75,0,0
1,note_on,78,0,0
1,note_on,68,41,0
1,note_on,71,41,0
1,note_on,76,49,0
1,note_on,76,0,720
1,note_on,71,0,0
1,note_on,68,0,0
1,note_on,64,76,0
1,note_on,64,0,240
1,note_on,61,68,0
1,note_on,69,81,0
1,note_on,69,0,108
1,note_on,61,0,0
1,note_on,69,75,12
1,note_on,61,63,0
1,note_on,61,0,240
1,note_on,69,0,0
1,note_on,64,64,0
1,note_on,71,76,0
1,note_on,71,0,120
1,note_on,64,0,0
1,note_on,69,73,0
1,note_on,73,86,0
1,note_on,73,0,216
1,note_on,69,0,0
1,note_on,69,72,24
1,note_on,73,85,0
1,note_on,73,0,357
1,note_on,69,0,0
1,note_on,69,73,3
1,note_on,73,86,0
1,note_on,73,0,240
1,note_on,69,0,0
1,note_on,64,63,0
1,note_on,71,74,0
1,note_on,71,0,120
1,note_on,64,0,0
1,note_on,61,65,0
1,note_on,69,77,0
1,note_on,69,0,108
1,note_on,61,0,0
1,note_on,66,73,12
1,note_on,69,86,0
1,note_on,69,0,240
1,note_on,66,0,0
1,note_on,61,64,0
1,note_on,68,76,0
1,note_on,68,0,120
1,note_on,61,0,0
1,note_on,57,68,0
1,note_on,66,80,0
1,note_on,66,0,216
1,note_on,57,0,0
1,note_on,57,73,24
1,note_on,66,86,0
1,note_on,66,0,480
1,note_on,57,0,0
1,note_on,66,76,0
1,note_on,66,0,240
1,note_on,62,68,0
1,note_on,71,81,0
1,note_on,71,0,108
1,note_on,62,0,0
1,note_on,71,75,12
1,note_on,62,63,0
1,note_on,62,0,240
1,note_on,71,0,0
1,note_on,66,64,0
1,note_on,73,76,0
1,note_on,73,0,120
1,note_on,66,0,0
1,note_on,71,73,0
1,note_on,74,86,0
1,note_on,74,0,216
1,note_on,71,0,0
1,note_on,71,72,24
1,note_on,74,85,0
1,note_on,74,0,357
1,note_on,71,0,0
1,note_on,71,73,3
1,note_on,74,86,0
1,note_on,74,0,240
1,note_on,71,0,0
1,note_on,66,63,0
1,note_on,73,74,0
1,note_on,73,0,120
1,note_on,66,0,0
1,note_on,62,65,0
1,note_on,71,77,0
1,note_on,71,0,108
1,note_on,62,0,0
1,note_on,68,73,12
1,note_on,71,86,0
1,note_on,71,0,240
1,note_on,68,0,0
1,note_on,63,64,0
1,note_on,69,76,0
1,note_on,69,0,120
1,note_on,63,0,0
1,note_on,59,68,0
1,note_on,68,80,0
1,note_on,68,0,108
1,note_on,59,0,0
1,note_on,59,73,132
1,note_on,68,86,0
1,note_on,68,0,357
1,note_on,59,0,0
1,note_on,56,73,3
1,note_on,64,73,0
1,note_on,68,86,0
1,note_on,64,0,238
1,note_on,68,0,2
1,note_on,56,0,0
1,note_on,57,63,0
1,note_on,64,63,0
1,note_on,69,74,0
1,note_on,64,0,110
1,note_on,69,0,10
1,note_on,57,0,0
1,note_on,64,65,0
1,note_on,59,65,0
1,note_on,71,77,0
1,note_on,71,0,108
1,note_on,59,0,0
1,note_on,64,0,12
1,note_on,61,73,0
1,note_on,69,73,0
1,note_on,73,86,0
1,note_on,73,0,240
1,note_on,69,0,0
1,note_on,61,0,0
1,note_on,69,64,0
1,note_on,62,64,0
1,note_on,74,76,0
1,note_on,74,0,120
1,note_on,62,0,0
1,note_on,69,0,0
1,note_on,64,68,0
1,note_on,69,68,0
1,note_on,76,80,0
1,note_on,76,0,108
1,note_on,69,0,0
1,note_on,64,0,12
1,note_on,64,73,120
1,note_on,69,73,0
1,note_on,76,86,0
1,note_on,76,0,357
1,note_on,69,0,0
1,note_on,64,0,0
1,note_on,69,70,3
1,note_on,76,83,0
1,note_on,76,0,118
1,note_on,69,0,0
1,note_on,69,73,2
1,note_on,73,73,0
1,note_on,81,86,0
1,note_on,81,0,118
1,note_on,73,0,0
1,note_on,69,0,0
1,note_on,69,69,2
1,note_on,76,82,0
1,note_on,76,0,118
1,note_on,69,0,0
1,note_on,69,73,2
1,note_on,73,86,0
1,note_on,73,0,118
1,note_on,69,0,0
1,note_on,69,80,2
1,note_on,69,0,118
1,note_on,69,70,2
1,note_on,73,83,0
1,note_on,73,0,118
1,note_on,69,0,0
1,note_on,69,70,2
1,note_on,76,83,0
1,note_on,76,0,120
1,note_on,69,0,0
1,note_on,74,68,0
1,note_on,66,68,0
1,note_on,69,68,0
1,note_on,78,80,0
1,note_on,78,0,108
1,note_on,69,0,0
1,note_on,66,0,12
1,note_on,74,0,0
1,note_on,74,73,120
1,note_on,66,73,0
1,note_on,69,73,0
1,note_on,78,86,0
1,note_on,78,0,357
1,note_on,74,0,0
1,note_on,66,0,0
1,note_on,69,0,0
1,note_on,66,77,3
1,note_on,69,77,0
1,note_on,78,91,0
1,note_on,69,0,238
1,note_on,78,0,2
1,note_on,66,0,0
1,note_on,64,69,0
1,note_on,69,69,0
1,note_on,76,82,0
1,note_on,76,0,120
1,note_on,69,0,0
1,note_on,64,0,0
1,note_on,66,73,0
1,note_on,69,73,0
1,note_on,78,86,0
1,note_on,78,0,114
1,note_on,69,0,0
1,note_on,66,0,0
1,note_on,66,83,6
1,note_on,69,83,0
1,note_on,78,83,0
1,note_on,78,0,240
1,note_on,69,0,0
1,note_on,66,0,0
1,note_on,67,70,0
1,note_on,79,83,0
1,note_on,69,70,0
1,note_on,69,0,120
1,note_on,79,0,0
1,note_on,67,0,0
1,note_on,66,74,0
1,note_on,74,74,0
1,note_on,78,88,0
1,note_on,78,0,108
1,note_on,74,0,0
1,note_on,66,0,12
1,note_on,66,73,120
1,note_on,74,73,0
1,note_on,78,86,0
1,note_on,78,0,360
1,note_on,74,0,0
1,note_on,66,0,0
1,note_on,62,70,0
1,note_on,69,83,0
1,note_on,69,0,118
1,note_on,62,0,0
1,note_on,62,73,2
1,note_on,66,73,0
1,note_on,74,86,0
1,note_on,74,0,118
1,note_on,66,0,0
1,note_on,62,0,0
1,note_on,62,69,2
1,note_on,69,82,0
1,note_on,69,0,118
1,note_on,62,0,0
1,note_on,62,70,2
1,note_on,66,83,0
1,note_on,66,0,118
1,note_on,62,0,0
1,note_on,62,73,2
1,note_on,69,83,0
1,note_on,69,0,118
1,note_on,62,0,0
1,note_on,66,67,2
1,note_on,62,67,0
1,note_on,74,80,0
1,note_on,74,0,118
1,note_on,62,0,0
1,note_on,66,0,0
1,note_on,64,70,2
1,note_on,76,83,0
1,note_on,69,70,0
1,note_on,69,0,120
1,note_on,76,0,0
1,note_on,64,0,0
1,note_on,74,68,0
1,note_on,66,68,0
1,note_on,78,80,0
1,note_on,78,0,108
1,note_on,66,0,12
1,note_on,74,0,0
1,note_on,74,73,120
1,note_on,66,73,0
1,note_on,78,86,0
1,note_on,78,0,357
1,note_on,66,0,0
1,note_on,74,0,0
1,note_on,74,85,3
1,note_on,78,85,0
1,note_on,86,101,0
1,note_on,86,0,230
1,note_on,78,0,0
1,note_on,74,0,0
1,note_on,74,83,10
1,note_on,78,83,0
1,note_on,86,98,0
1,note_on,86,0,120
1,note_on,78,0,0
1,note_on,74,0,0
1,note_on,74,68,0
1,note_on,68,68,0
1,note_on,80,80,0
1,note_on,80,0,108
1,note_on,68,0,12
1,note_on,74,0,0
1,note_on,74,73,120
1,note_on,68,73,0
1,note_on,80,86,0
1,note_on,80,0,360
1,note_on,68,0,0
1,note_on,74,0,0
1,note_on,69,85,0
1,note_on,73,85,0
1,note_on,81,101,0
1,note_on,81,0,230
1,note_on,73,0,0
1,note_on,69,0,0
1,note_on,69,74,10
1,note_on,73,74,0
1,note_on,81,88,0
1,note_on,81,0,120
1,note_on,73,0,0
1,note_on,69,0,0
1,note_on,61,68,0
1,note_on,57,68,0
1,note_on,69,80,0
1,note_on,69,0,108
1,note_on,57,0,12
1,note_on,61,0,0
1,note_on,61,73,120
1,note_on,57,73,0
1,note_on,69,86,0
1,note_on,69,0,360
1,note_on,57,0,0
1,note_on,61,0,0
1,note_on,69,37,0
1,note_on,69,0,120
1,note_on,66,37,0
1,note_on,74,37,0
1,note_on,74,0,120
1,note_on,66,0,0
1,note_on,69,37,0
1,note_on,76,37,0
1,note_on,76,0,120
1,note_on,69,0,0
1,note_on,74,34,0
1,note_on,78,40,0
1,note_on,78,0,108
1,note_on,74,0,0
1,note_on,74,36,132
1,note_on,78,43,0
1,note_on,78,0,350
1,note_on,74,0,0
1,note_on,69,35,10
1,note_on,76,41,0
1,note_on,76,0,118
1,note_on,69,0,0
1,note_on,74,36,2
1,note_on,78,43,0
1,note_on,78,0,118
1,note_on,74,0,0
1,note_on,76,34,2
1,note_on,81,41,0
1,note_on,81,0,118
1,note_on,76,0,0
1,note_on,74,36,2
1,note_on,78,43,0
1,note_on,78,0,118
1,note_on,74,0,0
1,note_on,69,38,2
1,note_on,76,38,0
1,note_on,76,0,118
1,note_on,69,0,0
1,note_on,74,35,2
1,note_on,78,41,0
1,note_on,78,0,118
1,note_on,74,0,0
1,note_on,76,38,2
1,note_on,81,38,0
1,note_on,81,0,120
1,note_on,76,0,0
1,note_on,74,34,0
1,note_on,78,40,0
1,note_on,78,0,108
1,note_on,74,0,0
1,note_on,74,36,132
1,note_on,78,43,0
1,note_on,78,0,350
1,note_on,74,0,0
1,note_on,69,35,10
1,note_on,76,41,0
1,note_on,76,0,118
1,note_on,69,0,0
1,note_on,74,37,2
1,note_on,78,44,0
1,note_on,78,0,118
1,note_on,74,0,0
1,note_on,76,35,2
1,note_on,81,43,0
1,note_on,81,0,118
1,note_on,76,0,0
1,note_on,74,38,2
1,note_on,78,46,0
1,note_on,78,0,118
1,note_on,74,0,0
1,note_on,69,41,2
1,note_on,76,41,0
1,note_on,76,0,118
1,note_on,69,0,0
1,note_on,74,38,2
1,note_on,78,45,0
1,note_on,78,0,118
1,note_on,74,0,0
1,note_on,76,42,2
1,note_on,81,42,0
1,note_on,81,0,120
1,note_on,76,0,0
1,note_on,79,39,0
1,note_on,83,46,0
1,note_on,83,0,108
1,note_on,79,0,0
1,note_on,83,49,132
1,note_on,79,41,0
1,note_on,79,0,350
1,note_on,83,0,0
1,note_on,74,40,10
1,note_on,81,47,0
1,note_on,74,0,117
1,note_on,81,0,1
1,note_on,79,41,2
1,note_on,83,49,0
1,note_on,79,0,117
1,note_on,83,0,1
1,note_on,74,39,2
1,note_on,81,47,0
1,note_on,74,0,117
1,note_on,81,0,1
1,note_on,71,41,2
1,note_on,79,49,0
1,note_on,79,0,117
1,note_on,71,0,1
1,note_on,69,43,2
1,note_on,74,43,0
1,note_on,74,0,117
1,note_on,69,0,1
1,note_on,71,40,2
1,note_on,79,47,0
1,note_on,79,0,117
1,note_on,71,0,1
1,note_on,74,43,2
1,note_on,84,43,0
1,note_on,84,0,120
1,note_on,74,0,0
1,note_on,79,39,0
1,note_on,83,46,0
1,note_on,83,0,108
1,note_on,79,0,0
1,note_on,83,49,132
1,note_on,79,41,0
1,note_on,79,0,350
1,note_on,83,0,0
1,note_on,79,45,10
1,note_on,83,53,0
1,note_on,79,0,117
1,note_on,83,0,1
1,note_on,83,49,2
1,note_on,86,58,0
1,note_on,86,0,117
1,note_on,83,0,0
1,note_on,81,45,3
1,note_on,85,54,0
1,note_on,81,0,117
1,note_on,85,0,1
1,note_on,79,50,2
1,note_on,83,59,0
1,note_on,83,0,117
1,note_on,79,0,0
1,note_on,76,43,3
1,note_on,79,51,0
1,note_on,79,0,117
1,note_on,76,0,1
1,note_on,79,47,2
1,note_on,83,56,0
1,note_on,83,0,117
1,note_on,79,0,0
1,note_on,76,43,3
1,note_on,79,51,0
1,note_on,79,0,120
1,note_on,76,0,0
1,note_on,73,39,0
1,note_on,76,46,0
1,note_on,76,0,108
1,note_on,73,0,0
1,note_on,76,49,132
1,note_on,73,41,0
1,note_on,73,0,350
1,note_on,76,0,0
1,note_on,73,45,10
1,note_on,76,53,0
1,note_on,73,0,117
1,note_on,76,0,1
1,note_on,76,49,2
1,note_on,79,58,0
1,note_on,79,0,117
1,note_on,76,0,0
1,note_on,74,45,3
1,note_on,78,54,0
1,note_on,74,0,117
1,note_on,78,0,1
1,note_on,73,50,2
1,note_on,76,59,0
1,note_on,76,0,117
1,note_on,73,0,0
1,note_on,74,43,3
1,note_on,78,51,0
1,note_on,78,0,117
1,note_on,74,0,0
1,note_on,73,47,3
1,note_on,76,56,0
1,note_on,76,0,117
1,note_on,73,0,0
1,note_on,71,43,3
1,note_on,73,51,0
1,note_on,73,0,120
1,note_on,71,0,0
1,note_on,70,39,0
1,note_on,78,46,0
1,note_on,78,0,108
1,note_on,70,0,0
1,note_on,78,49,132
1,note_on,70,41,0
1,note_on,70,0,350
1,note_on,78,0,0
1,note_on,73,45,10
1,note_on,76,53,0
1,note_on,73,0,117
1,note_on,76,0,1
1,note_on,76,49,2
1,note_on,79,58,0
1,note_on,79,0,117
1,note_on,76,0,0
1,note_on,74,45,3
1,note_on,78,54,0
1,note_on,74,0,117
1,note_on,78,0,1
1,note_on,73,50,2
1,note_on,76,59,0
1,note_on,76,0,117
1,note_on,73,0,0
1,note_on,74,43,3
1,note_on,78,51,0
1,note_on,78,0,117
1,note_on,74,0,0
1,note_on,73,47,3
1,note_on,76,56,0
1,note_on,76,0,117
1,note_on,73,0,0
1,note_on,71,43,3
1,note_on,73,51,0
1,note_on,73,0,120
1,note_on,71,0,0
1,note_on,70,39,0
1,note_on,78,46,0
1,note_on,78,0,108
1,note_on,70,0,0
1,note_on,78,49,132
1,note_on,70,41,0
1,note_on,70,0,470
1,note_on,78,0,0
1,note_on,70,46,10
1,note_on,78,46,0
1,note_on,78,0,470
1,note_on,70,0,0
1,note_on,70,45,10
1,note_on,78,45,0
1,note_on,78,0,216
1,note_on,70,0,0
1,note_on,69,39,24
1,note_on,78,46,0
1,note_on,78,0,108
1,note_on,69,0,0
1,note_on,78,48,132
1,note_on,69,40,0
1,note_on,69,0,470
1,note_on,78,0,0
1,note_on,69,46,10
1,note_on,78,46,0
1,note_on,78,0,470
1,note_on,69,0,0
1,note_on,69,45,10
1,note_on,78,45,0
1,note_on,78,0,216
1,note_on,69,0,0
1,note_on,68,35,24
1,note_on,76,41,0
1,note_on,76,0,108
1,note_on,68,0,0
1,note_on,76,43,132
1,note_on,68,36,0
1,note_on,71,39,360
1,note_on,74,46,0
1,note_on,68,0,110
1,note_on,76,0,0
1,note_on,71,0,7
1,note_on,74,0,0
1,note_on,74,42,3
1,note_on,77,50,0
1,note_on,77,0,117
1,note_on,74,0,0
1,note_on,72,38,3
1,note_on,76,46,0
1,note_on,72,0,117
1,note_on,76,0,1
1,note_on,71,42,2
1,note_on,74,49,0
1,note_on,74,0,117
1,note_on,71,0,0
1,note_on,72,36,3
1,note_on,76,42,0
1,note_on,76,0,117
1,note_on,72,0,0
1,note_on,71,38,3
1,note_on,74,45,0
1,note_on,74,0,117
1,note_on,71,0,0
1,note_on,69,34,3
1,note_on,71,41,0
1,note_on,71,0,120
1,note_on,69,0,0
1,note_on,68,31,0
1,note_on,76,36,0
1,note_on,76,0,108
1,note_on,68,0,0
1,note_on,76,39,132
1,note_on,68,32,0
1,note_on,68,0,350
1,note_on,76,0,0
1,note_on,71,36,10
1,note_on,74,42,0
1,note_on,74,0,117
1,note_on,71,0,0
1,note_on,74,39,3
1,note_on,77,46,0
1,note_on,77,0,117
1,note_on,74,0,0
1,note_on,72,36,3
1,note_on,76,43,0
1,note_on,72,0,117
1,note_on,76,0,1
1,note_on,71,40,2
1,note_on,74,47,0
1,note_on,74,0,117
1,note_on,71,0,0
1,note_on,72,34,3
1,note_on,76,40,0
1,note_on,76,0,117
1,note_on,72,0,0
1,note_on,71,37,3
1,note_on,74,44,0
1,note_on,74,0,117
1,note_on,71,0,0
1,note_on,69,34,3
1,note_on,71,40,0
1,note_on,71,0,120
1,note_on,69,0,0
1,note_on,68,31,0
1,note_on,76,36,0
1,note_on,76,0,108
1,note_on,68,0,0
1,note_on,76,38,132
1,note_on,68,32,0
1,note_on,68,0,470
1,note_on,76,0,0
1,note_on,64,76,130
1,note_on,64,0,120
1,note_on,61,68,0
1,note_on,69,81,0
1,note_on,69,0,108
1,note_on,61,0,0
1,note_on,69,75,12
1,note_on,61,63,0
1,note_on,61,0,240
1,note_on,69,0,0
1,note_on,64,64,0
1,note_on,71,76,0
1,note_on,71,0,120
1,note_on,64,0,0
1,note_on,69,73,0
1,note_on,73,86,0
1,note_on,73,0,216
1,note_on,69,0,0
1,note_on,69,72,24
1,note_on,73,85,0
1,note_on,73,0,357
1,note_on,69,0,0
1,note_on,69,73,3
1,note_on,73,86,0
1,note_on,73,0,240
1,note_on,69,0,0
1,note_on,64,63,0
1,note_on,71,74,0
1,note_on,71,0,120
1,note_on,64,0,0
1,note_on,61,65,0
1,note_on,69,77,0
1,note_on,69,0,108
1,note_on,61,0,0
1,note_on,66,73,12
1,note_on,69,86,0
1,note_on,69,0,240
1,note_on,66,0,0
1,note_on,61,64,0
1,note_on,68,76,0
1,note_on,68,0,120
1,note_on,61,0,0
1,note_on,57,68,0
1,note_on,66,80,0
1,note_on,66,0,216
1,note_on,57,0,0
1,note_on,57,73,24
1,note_on,66,86,0
1,note_on,66,0,480
1,note_on,57,0,0
1,note_on,66,76,0
1,note_on,66,0,240
1,note_on,62,68,0
1,note_on,71,81,0
1,note_on,71,0,108
1,note_on,62,0,0
1,note_on,71,75,12
1,note_on,62,63,0
1,note_on,62,0,240
1,note_on,71,0,0
1,note_on,66,64,0
1,note_on,73,76,0
1,note_on,73,0,120
1,note_on,66,0,0
1,note_on,71,73,0
1,note_on,74,86,0
1,note_on,74,0,216
1,note_on,71,0,0
1,note_on,71,72,24
1,note_on,74,85,0
1,note_on,74,0,357
1,note_on,71,0,0
1,note_on,71,73,3
1,note_on,74,86,0
1,note_on,74,0,240
1,note_on,71,0,0
1,note_on,66,63,0
1,note_on,72,74,0
1,note_on,72,0,120
1,note_on,66,0,0
1,note_on,62,65,0
1,note_on,71,77,0
1,note_on,71,0,108
1,note_on,62,0,0
1,note_on,67,73,12
1,note_on,71,86,0
1,note_on,71,0,240
1,note_on,67,0,0
1,note_on,63,64,0
1,note_on,69,76,0
1,note_on,69,0,120
1,note_on,63,0,0
1,note_on,59,68,0
1,note_on,67,80,0
1,note_on,67,0,108
1,note_on,59,0,0
1,note_on,59,73,132
1,note_on,67,86,0
1,note_on,67,0,356
1,note_on,59,0,1
1,note_on,55,73,3
1,note_on,64,73,0
1,note_on,67,86,0
1,note_on,64,0,238
1,note_on,67,0,2
1,note_on,55,0,0
1,note_on,57,64,0
1,note_on,64,64,0
1,note_on,69,77,0
1,note_on,64,0,118
1,note_on,69,0,2
1,note_on,57,0,0
1,note_on,64,67,0
1,note_on,59,68,0
1,note_on,71,81,0
1,note_on,71,0,108
1,note_on,59,0,0
1,note_on,64,0,12
1,note_on,60,75,0
1,note_on,69,75,0
1,note_on,72,89,0
1,note_on,72,0,240
1,note_on,69,0,0
1,note_on,60,0,0
1,note_on,67,71,0
1,note_on,62,71,0
1,note_on,74,85,0
1,note_on,74,0,120
1,note_on,62,0,0
1,note_on,67,0,0
1,note_on,64,78,0
1,note_on,67,78,0
1,note_on,76,92,0
1,note_on,76,0,108
1,note_on,67,0,0
1,note_on,64,0,12
1,note_on,64,83,120
1,note_on,67,83,0
1,note_on,76,98,0
1,note_on,67,0,356
1,note_on,76,0,1
1,note_on,64,0,0
1,note_on,72,80,3
1,note_on,79,95,0
1,note_on,79,0,117
1,note_on,72,0,0
1,note_on,72,83,3
1,note_on,76,83,0
1,note_on,84,98,0
1,note_on,84,0,117
1,note_on,72,0,0
1,note_on,76,0,1
1,note_on,72,79,2
1,note_on,79,94,0
1,note_on,79,0,117
1,note_on,72,0,0
1,note_on,72,83,3
1,note_on,76,98,0
1,note_on,72,0,117
1,note_on,76,0,1
1,note_on,72,92,2
1,note_on,72,0,117
1,note_on,72,80,3
1,note_on,76,95,0
1,note_on,72,0,117
1,note_on,76,0,1
1,note_on,79,95,2
1,note_on,72,80,0
1,note_on,72,0,120
1,note_on,79,0,0
1,note_on,77,78,0
1,note_on,69,78,0
1,note_on,72,78,0
1,note_on,81,92,0
1,note_on,81,0,108
1,note_on,72,0,0
1,note_on,69,0,12
1,note_on,77,0,0
1,note_on,77,78,120
1,note_on,69,78,0
1,note_on,72,78,0
1,note_on,81,93,0
1,note_on,72,0,356
1,note_on,77,0,0
1,note_on,69,0,1
1,note_on,81,0,0
1,note_on,69,80,3
1,note_on,72,80,0
1,note_on,81,95,0
1,note_on,72,0,238
1,note_on,81,0,2
1,note_on,69,0,0
1,note_on,70,75,0
1,note_on,72,75,0
1,note_on,82,89,0
1,note_on,82,0,120
1,note_on,72,0,0
1,note_on,70,0,0
1,note_on,69,78,0
1,note_on,72,78,0
1,note_on,81,93,0
1,note_on,81,0,114
1,note_on,72,0,0
1,note_on,69,0,0
1,note_on,69,90,6
1,note_on,72,90,0
1,note_on,81,90,0
1,note_on,81,0,240
1,note_on,72,0,0
1,note_on,69,0,0
1,note_on,67,80,0
1,note_on,79,95,0
1,note_on,73,80,0
1,note_on,73,0,120
1,note_on,79,0,0
1,note_on,67,0,0
1,note_on,74,78,0
1,note_on,69,78,0
1,note_on,78,78,0
1,note_on,81,92,0
1,note_on,81,0,108
1,note_on,78,0,0
1,note_on,74,0,0
1,note_on,69,0,12
1,note_on,74,83,120
1,note_on,69,83,0
1,note_on,78,83,0
1,note_on,81,98,0
1,note_on,81,0,350
1,note_on,74,0,0
1,note_on,78,0,10
1,note_on,69,0,0
1,note_on,74,80,0
1,note_on,81,95,0
1,note_on,81,0,118
1,note_on,74,0,0
1,note_on,74,83,2
1,note_on,78,83,0
1,note_on,86,98,0
1,note_on,74,0,117
1,note_on,86,0,1
1,note_on,78,0,0
1,note_on,74,79,2
1,note_on,81,94,0
1,note_on,81,0,118
1,note_on,74,0,0
1,note_on,74,83,2
1,note_on,78,98,0
1,note_on,74,0,117
1,note_on,78,0,1
1,note_on,74,92,2
1,note_on,74,0,118
1,note_on,74,80,2
1,note_on,78,95,0
1,note_on,78,0,117
1,note_on,74,0,0
1,note_on,74,77,3
1,note_on,81,92,0
1,note_on,78,77,0
1,note_on,78,0,120
1,note_on,81,0,0
1,note_on,74,0,0
1,note_on,74,78,0
1,note_on,79,78,0
1,note_on,71,78,0
1,note_on,83,92,0
1,note_on,83,0,108
1,note_on,74,0,12
1,note_on,79,0,0
1,note_on,71,0,0
1,note_on,74,83,120
1,note_on,79,83,0
1,note_on,71,83,0
1,note_on,83,98,0
1,note_on,79,0,356
1,note_on,83,0,1
1,note_on,71,0,0
1,note_on,74,0,3
1,note_on,71,81,0
1,note_on,74,81,0
1,note_on,83,96,0
1,note_on,83,0,230
1,note_on,74,0,0
1,note_on,71,0,10
1,note_on,72,79,0
1,note_on,74,79,0
1,note_on,84,93,0
1,note_on,84,0,120
1,note_on,74,0,0
1,note_on,72,0,0
1,note_on,71,84,0
1,note_on,74,84,0
1,note_on,83,99,0
1,note_on,83,0,114
1,note_on,74,0,0
1,note_on,71,0,0
1,note_on,71,80,6
1,note_on,74,80,0
1,note_on,83,95,0
1,note_on,83,0,240
1,note_on,74,0,0
1,note_on,71,0,0
1,note_on,69,80,0
1,note_on,81,95,0
1,note_on,75,80,0
1,note_on,75,0,120
1,note_on,81,0,0
1,note_on,69,0,0
1,note_on,76,78,0
1,note_on,71,78,0
1,note_on,80,78,0
1,note_on,83,92,0
1,note_on,83,0,108
1,note_on,80,0,0
1,note_on,76,0,0
1,note_on,71,0,12
1,note_on,76,83,120
1,note_on,71,83,0
1,note_on,80,83,0
1,note_on,83,98,0
1,note_on,83,0,350
1,note_on,76,0,0
1,note_on,80,0,10
1,note_on,71,0,0
1,note_on,76,80,0
1,note_on,83,95,0
1,note_on,83,0,118
1,note_on,76,0,0
1,note_on,76,83,2
1,note_on,80,83,0
1,note_on,88,98,0
1,note_on,76,0,117
1,note_on,88,0,1
1,note_on,80,0,0
1,note_on,76,79,2
1,note_on,83,94,0
1,note_on,83,0,118
1,note_on,76,0,0
1,note_on,76,83,2
1,note_on,80,98,0
1,note_on,76,0,117
1,note_on,80,0,1
1,note_on,76,95,2
1,note_on,76,0,118
1,note_on,76,80,2
1,note_on,80,95,0
1,note_on,80,0,117
1,note_on,76,0,0
1,note_on,76,77,3
1,note_on,83,92,0
1,note_on,80,77,0
1,note_on,80,0,120
1,note_on,83,0,0
1,note_on,76,0,0
1,note_on,76,78,0
1,note_on,81,78,0
1,note_on,72,78,0
1,note_on,84,92,0
1,note_on,84,0,108
1,note_on,76,0,12
1,note_on,81,0,0
1,note_on,72,0,0
1,note_on,76,80,120
1,note_on,81,80,0
1,note_on,72,80,0
1,note_on,84,95,0
1,note_on,84,0,356
1,note_on,72,0,0
1,note_on,81,0,0
1,note_on,76,0,4
1,note_on,81,80,0
1,note_on,72,80,0
1,note_on,76,80,0
1,note_on,84,95,0
1,note_on,84,0,230
1,note_on,81,0,0
1,note_on,72,0,0
1,note_on,76,0,0
1,note_on,81,75,10
1,note_on,72,75,0
1,note_on,76,75,0
1,note_on,84,89,0
1,note_on,76,0,112
1,note_on,81,0,8
1,note_on,72,0,0
1,note_on,84,0,0
1,note_on,72,77,0
1,note_on,81,77,0
1,note_on,76,77,0
1,note_on,84,92,0
1,note_on,84,0,108
1,note_on,72,0,12
1,note_on,81,0,0
1,note_on,76,0,0
1,note_on,81,78,120
1,note_on,76,78,0
1,note_on,72,78,0
1,note_on,84,93,0
1,note_on,84,0,360
1,note_on,81,0,0
1,note_on,76,0,0
1,note_on,72,0,0
1,note_on,81,83,0
1,note_on,72,83,0
1,note_on,76,83,0
1,note_on,84,98,0
1,note_on,84,0,230
1,note_on,81,0,0
1,note_on,72,0,0
1,note_on,76,0,0
1,note_on,72,76,10
1,note_on,76,76,0
1,note_on,81,76,0
1,note_on,84,91,0
1,note_on,84,0,120
1,note_on,72,0,0
1,note_on,76,0,0
1,note_on,81,0,0
1,note_on,83,74,0
1,note_on,74,74,0
1,note_on,79,74,0
1,note_on,86,93,0
1,note_on,86,0,108
1,note_on,79,0,0
1,note_on,74,0,12
1,note_on,83,0,0
1,note_on,83,80,120
1,note_on,74,80,0
1,note_on,79,80,0
1,note_on,86,96,0
1,note_on,86,0,355
1,note_on,74,0,0
1,note_on,79,0,5
1,note_on,83,0,0
1,note_on,83,84,0
1,note_on,79,84,0
1,note_on,74,84,0
1,note_on,86,99,0
1,note_on,86,0,108
1,note_on,74,0,0
1,note_on,79,0,12
1,note_on,83,0,0
1,note_on,83,81,120
1,note_on,74,81,0
1,note_on,79,81,0
1,note_on,86,96,0
1,note_on,86,0,120
1,note_on,83,0,0
1,note_on,74,0,0
1,note_on,79,0,0
1,note_on,79,84,0
1,note_on,83,84,0
1,note_on,74,84,0
1,note_on,86,99,0
1,note_on,86,0,108
1,note_on,79,0,12
1,note_on,83,0,0
1,note_on,74,0,0
1,note_on,79,87,120
1,note_on,83,87,0
1,note_on,74,87,0
1,note_on,86,103,0
1,note_on,86,0,356
1,note_on,74,0,0
1,note_on,83,0,0
1,note_on,79,0,4
1,note_on,83,88,0
1,note_on,74,88,0
1,note_on,79,88,0
1,note_on,86,104,0
1,note_on,86,0,230
1,note_on,83,0,0
1,note_on,74,0,0
1,note_on,79,0,0
1,note_on,83,81,10
1,note_on,74,81,0
1,note_on,79,81,0
1,note_on,86,96,0
1,note_on,79,0,112
1,note_on,83,0,8
1,note_on,74,0,0
1,note_on,86,0,0
1,note_on,88,100,0
1,note_on,76,84,0
1,note_on,84,84,0
1,note_on,79,84,0
1,note_on,88,0,108
1,note_on,76,0,12
1,note_on,84,0,0
1,note_on,79,0,0
1,note_on,84,86,120
1,note_on,79,86,0
1,note_on,76,86,0
1,note_on,88,101,0
1,note_on,88,0,360
1,note_on,84,0,0
1,note_on,79,0,0
1,note_on,76,0,0
1,note_on,84,89,0
1,note_on,76,89,0
1,note_on,79,89,0
1,note_on,88,106,0
1,note_on,88,0,230
1,note_on,84,0,0
1,note_on,76,0,0
1,note_on,79,0,0
1,note_on,76,82,10
1,note_on,79,82,0
1,note_on,84,82,0
1,note_on,88,98,0
1,note_on,88,0,120
1,note_on,76,0,0
1,note_on,79,0,0
1,note_on,84,0,0
1,note_on,84,73,0
1,note_on,76,73,0
1,note_on,79,73,0
1,note_on,88,103,0
1,note_on,88,0,108
1,note_on,79,0,0
1,note_on,76,0,12
1,note_on,84,0,0
1,note_on,84,83,120
1,note_on,76,83,0
1,note_on,79,83,0
1,note_on,88,99,0
1,note_on,88,0,355
1,note_on,76,0,0
1,note_on,79,0,5
1,note_on,84,0,0
1,note_on,72,48,0
1,note_on,67,48,0
1,note_on,64,48,0
1,note_on,76,57,0
1,note_on,76,0,108
1,note_on,64,0,0
1,note_on,67,0,12
1,note_on,72,0,0
1,note_on,72,45,120
1,note_on,64,45,0
1,note_on,67,45,0
1,note_on,76,54,0
1,note_on,76,0,108
1,note_on,72,0,0
1,note_on,64,0,0
1,note_on,67,0,0
1,note_on,67,45,12
1,note_on,72,45,0
1,note_on,64,45,0
1,note_on,76,53,0
1,note_on,76,0,108
1,note_on,67,0,12
1,note_on,72,0,0
1,note_on,64,0,0
1,note_on,67,45,120
1,note_on,72,45,0
1,note_on,64,45,0
1,note_on,76,53,0
1,note_on,76,0,356
1,note_on,64,0,0
1,note_on,72,0,0
1,note_on,67,0,4
1,note_on,72,44,0
1,note_on,64,44,0
1,note_on,67,44,0
1,note_on,76,52,0
1,note_on,76,0,230
1,note_on,72,0,0
1,note_on,64,0,0
1,note_on,67,0,0
1,note_on,72,39,10
1,note_on,64,39,0
1,note_on,67,39,0
1,note_on,76,47,0
1,note_on,67,0,101
1,note_on,72,0,7
1,note_on,64,0,0
1,note_on,76,0,0
1,note_on,76,50,12
1,note_on,65,42,0
1,note_on,72,42,0
1,note_on,76,0,108
1,note_on,72,0,12
1,note_on,65,0,0
1,note_on,71,38,120
1,note_on,65,38,0
1,note_on,74,45,0
1,note_on,74,0,357
1,note_on,65,0,0
1,note_on,71,0,0
1,note_on,71,40,3
1,note_on,65,40,0
1,note_on,74,47,0
1,note_on,74,0,230
1,note_on,65,0,0
1,note_on,71,0,0
1,note_on,71,36,10
1,note_on,65,36,0
1,note_on,74,42,0
1,note_on,65,0,112
1,note_on,74,0,8
1,note_on,71,0,0
1,note_on,74,45,0
1,note_on,64,38,0
1,note_on,71,38,0
1,note_on,74,0,108
1,note_on,71,0,12
1,note_on,64,0,0
1,note_on,69,34,120
1,note_on,64,34,0
1,note_on,72,41,0
1,note_on,72,0,357
1,note_on,64,0,0
1,note_on,69,0,0
1,note_on,69,35,3
1,note_on,64,35,0
1,note_on,72,42,0
1,note_on,72,0,230
1,note_on,64,0,0
1,note_on,69,0,0
1,note_on,69,32,10
1,note_on,64,32,0
1,note_on,72,38,0
1,note_on,64,0,112
1,note_on,72,0,8
1,note_on,69,0,0
1,note_on,72,40,0
1,note_on,64,34,0
1,note_on,69,34,0
1,note_on,72,0,108
1,note_on,69,0,12
1,note_on,64,0,0
1,note_on,68,30,120
1,note_on,64,30,0
1,note_on,71,36,0
1,note_on,71,0,360
1,note_on,64,0,0
1,note_on,68,0,0
1,note_on,61,39,120
1,note_on,64,46,0
1,note_on,64,0,216
1,note_on,61,0,0
1,note_on,62,42,24
1,note_on,66,50,0
1,note_on,66,0,216
1,note_on,62,0,0
1,note_on,60,34,24
1,note_on,63,40,0
1,note_on,63,0,216
1,note_on,60,0,0
1,note_on,61,39,24
1,note_on,64,47,0
1,note_on,69,38,120
1,note_on,73,38,0
1,note_on,73,0,230
1,note_on,69,0,0
1,note_on,69,38,10
1,note_on,73,38,0
1,note_on,73,0,120
1,note_on,69,0,0
1,note_on,69,38,0
1,note_on,73,38,0
1,note_on,64,0,230
1,note_on,61,0,0
1,note_on,69,0,10
1,note_on,73,0,0
1,note_on,73,31,0
1,note_on,61,42,0
1,note_on,64,42,0
1,note_on,69,55,0
1,note_on,64,0,230
1,note_on,61,0,0
1,note_on,73,0,10
1,note_on,69,0,0
1,note_on,61,42,0
1,note_on,64,42,0
1,note_on,71,57,0
1,note_on,71,0,240
1,note_on,64,0,0
1,note_on,61,0,0
1,note_on,61,47,0
1,note_on,65,47,0
1,note_on,73,61,0
1,note_on,73,0,216
1,note_on,65,0,0
1,note_on,61,0,0
1,note_on,66,45,24
1,note_on,73,58,0
1,note_on,78,48,120
1,note_on,76,48,0
1,note_on,76,0,230
1,note_on,78,0,0
1,note_on,78,41,10
1,note_on,76,41,0
1,note_on,76,0,120
1,note_on,78,0,0
1,note_on,73,0,0
1,note_on,74,38,0
1,note_on,78,38,0
1,note_on,71,48,0
1,note_on,78,0,230
1,note_on,66,0,0
1,note_on,74,0,0
1,note_on,71,0,10
1,note_on,66,56,0
1,note_on,74,35,0
1,note_on,78,35,0
1,note_on,71,51,0
1,note_on,71,0,120
1,note_on,69,48,0
1,note_on,69,0,120
1,note_on,78,0,0
1,note_on,74,0,0
1,note_on,66,0,0
1,note_on,62,37,0
1,note_on,68,51,0
1,note_on,68,0,240
1,note_on,62,0,0
1,note_on,62,37,0
1,note_on,66,48,0
1,note_on,66,0,216
1,note_on,62,0,0
1,note_on,62,42,24
1,note_on,64,50,0
1,note_on,74,40,120
1,note_on,76,40,0
1,note_on,76,0,230
1,note_on,74,0,0
1,note_on,74,35,10
1,note_on,76,35,0
1,note_on,76,0,110
1,note_on,74,0,0
1,note_on,74,40,10
1,note_on,76,40,0
1,note_on,76,0,230
1,note_on,62,0,0
1,note_on,64,0,0
1,note_on,74,0,0
1,note_on,74,40,10
1,note_on,76,40,0
1,note_on,62,42,0
1,note_on,64,50,0
1,note_on,64,0,110
1,note_on,62,0,10
1,note_on,66,40,40
1,note_on,66,0,40
1,note_on,68,40,0
1,note_on,68,0,40
1,note_on,76,0,0
1,note_on,74,0,0
1,note_on,62,42,0
1,note_on,66,50,0
1,note_on,66,0,216
1,note_on,62,0,0
1,note_on,62,35,24
1,note_on,64,42,0
1,note_on,64,0,216
1,note_on,62,0,0
1,note_on,62,42,24
1,note_on,66,50,0
1,note_on,69,35,120
1,note_on,69,0,230
1,note_on,69,31,10
1,note_on,69,0,110
1,note_on,66,0,10
1,note_on,62,0,0
1,note_on,69,36,0
1,note_on,61,37,0
1,note_on,64,44,0
1,note_on,64,0,230
1,note_on,61,0,0
1,note_on,69,0,10
1,note_on,69,65,0
1,note_on,73,65,0
1,note_on,76,77,0
1,note_on,69,0,230
1,note_on,76,0,10
1,note_on,73,0,0
1,note_on,69,72,0
1,note_on,74,72,0
1,note_on,78,85,0
1,note_on,78,0,216
1,note_on,74,0,0
1,note_on,69,0,14
1,note_on,69,63,10
1,note_on,72,63,0
1,note_on,75,75,0
1,note_on,75,0,216
1,note_on,72,0,0
1,note_on,69,0,24
1,note_on,69,71,0
1,note_on,73,71,0
1,note_on,76,84,0
1,note_on,76,0,110
1,note_on,73,0,0
1,note_on,69,0,0
1,note_on,85,77,10
1,note_on,81,65,0
1,note_on,76,65,0
1,note_on,73,65,0
1,note_on,73,0,240
1,note_on,85,0,0
1,note_on,81,0,0
1,note_on,76,0,0
1,note_on,73,57,0
1,note_on,76,57,0
1,note_on,81,57,0
1,note_on,85,68,0
1,note_on,85,0,120
1,note_on,73,0,0
1,note_on,76,0,0
1,note_on,81,0,0
1,note_on,73,66,0
1,note_on,76,66,0
1,note_on,81,66,0
1,note_on,85,78,0
1,note_on,85,0,240
1,note_on,73,0,0
1,note_on,76,0,0
1,note_on,81,0,0
1,note_on,73,60,0
1,note_on,76,60,0
1,note_on,81,60,0
1,note_on,85,71,0
1,note_on,85,0,120
1,note_on,73,0,0
1,note_on,76,0,0
1,note_on,81,0,0
1,note_on,69,50,0
1,note_on,64,50,0
1,note_on,73,50,0
1,note_on,73,0,115
1,note_on,64,0,0
1,note_on,69,0,0
1,note_on,64,56,5
1,note_on,69,56,0
1,note_on,73,56,0
1,note_on,76,78,0
1,note_on,76,0,216
1,note_on,64,0,0
1,note_on,69,0,0
1,note_on,73,0,0
1,note_on,73,65,24
1,note_on,66,65,0
1,note_on,75,65,0
1,note_on,78,77,0
1,note_on,78,0,216
1,note_on,73,0,0
1,note_on,66,0,0
1,note_on,75,0,0
1,note_on,73,71,24
1,note_on,68,71,0
1,note_on,76,71,0
1,note_on,80,84,0
1,note_on,80,0,110
1,note_on,76,0,0
1,note_on,68,0,0
1,note_on,73,0,10
1,note_on,92,77,0
1,note_on,88,65,0
1,note_on,85,65,0
1,note_on,80,65,0
1,note_on,80,0,240
1,note_on,92,0,0
1,note_on,88,0,0
1,note_on,85,0,0
1,note_on,80,57,0
1,note_on,85,57,0
1,note_on,88,57,0
1,note_on,92,68,0
1,note_on,92,0,120
1,note_on,80,0,0
1,note_on,85,0,0
1,note_on,88,0,0
1,note_on,80,66,0
1,note_on,85,66,0
1,note_on,88,66,0
1,note_on,92,78,0
1,note_on,92,0,240
1,note_on,80,0,0
1,note_on,85,0,0
1,note_on,88,0,0
1,note_on,80,60,0
1,note_on,85,60,0
1,note_on,88,60,0
1,note_on,92,71,0
1,note_on,92,0,120
1,note_on,80,0,0
1,note_on,85,0,0
1,note_on,88,0,0
1,note_on,68,56,0
1,note_on,64,56,0
1,note_on,76,67,0
1,note_on,76,0,115
1,note_on,64,0,0
1,note_on,68,0,0
1,note_on,66,56,5
1,note_on,68,56,0
1,note_on,75,78,0
1,note_on,75,0,216
1,note_on,68,0,0
1,note_on,66,0,0
1,note_on,66,62,24
1,note_on,68,75,0
1,note_on,68,0,216
1,note_on,66,0,0
1,note_on,64,63,24
1,note_on,68,63,0
1,note_on,73,75,0
1,note_on,73,0,110
1,note_on,68,0,0
1,note_on,64,0,0
1,note_on,85,69,10
1,note_on,80,58,0
1,note_on,76,58,0
1,note_on,73,58,0
1,note_on,73,0,240
1,note_on,85,0,0
1,note_on,80,0,0
1,note_on,76,0,0
1,note_on,73,51,0
1,note_on,76,51,0
1,note_on,80,51,0
1,note_on,85,61,0
1,note_on,85,0,120
1,note_on,73,0,0
1,note_on,76,0,0
1,note_on,80,0,0
1,note_on,73,59,0
1,note_on,76,59,0
1,note_on,80,59,0
1,note_on,85,70,0
1,note_on,85,0,240
1,note_on,73,0,0
1,note_on,76,0,0
1,note_on,80,0,0
1,note_on,73,53,0
1,note_on,76,53,0
1,note_on,80,53,0
1,note_on,85,63,0
1,note_on,85,0,120
1,note_on,73,0,0
1,note_on,76,0,0
1,note_on,80,0,0
1,note_on,64,39,0
1,note_on,61,39,0
1,note_on,73,46,0
1,note_on,73,0,115
1,note_on,61,0,0
1,note_on,64,0,0
1,note_on,62,39,5
1,note_on,64,39,0
1,note_on,71,54,0
1,note_on,71,0,216
1,note_on,64,0,0
1,note_on,62,0,0
1,note_on,62,45,24
1,note_on,64,53,0
1,note_on,64,0,216
1,note_on,62,0,0
1,note_on,61,49,24
1,note_on,69,58,0
1,note_on,69,0,110
1,note_on,61,0,0
1,note_on,81,53,10
1,note_on,78,53,0
1,note_on,73,45,0
1,note_on,69,45,0
1,note_on,69,0,240
1,note_on,81,0,0
1,note_on,78,0,0
1,note_on,73,0,0
1,note_on,69,39,0
1,note_on,73,39,0
1,note_on,78,47,0
1,note_on,81,47,0
1,note_on,81,0,120
1,note_on,69,0,0
1,note_on,73,0,0
1,note_on,78,0,0
1,note_on,69,45,0
1,note_on,73,45,0
1,note_on,78,54,0
1,note_on,81,54,0
1,note_on,81,0,240
1,note_on,69,0,0
1,note_on,73,0,0
1,note_on,78,0,0
1,note_on,69,41,0
1,note_on,73,41,0
1,note_on,78,49,0
1,note_on,81,49,0
1,note_on,81,0,120
1,note_on,69,0,0
1,note_on,73,0,0
1,note_on,78,0,0
1,note_on,68,56,0
1,note_on,61,56,0
1,note_on,70,67,0
1,note_on,70,0,115
1,note_on,61,0,0
1,note_on,68,0,0
1,note_on,62,56,5
1,note_on,68,56,0
1,note_on,71,80,0
1,note_on,71,0,216
1,note_on,68,0,0
1,note_on,62,0,0
1,note_on,68,70,24
1,note_on,64,70,0
1,note_on,70,70,0
1,note_on,73,83,0
1,note_on,73,0,216
1,note_on,68,0,0
1,note_on,64,0,0
1,note_on,70,0,0
1,note_on,67,85,24
1,note_on,62,85,0
1,note_on,71,85,0
1,note_on,74,100,0
1,note_on,74,0,110
1,note_on,71,0,0
1,note_on,62,0,0
1,note_on,67,0,10
1,note_on,86,101,0
1,note_on,83,85,0
1,note_on,79,85,0
1,note_on,74,85,0
1,note_on,74,0,240
1,note_on,86,0,0
1,note_on,83,0,0
1,note_on,79,0,0
1,note_on,74,74,0
1,note_on,79,74,0
1,note_on,83,74,0
1,note_on,86,89,0
1,note_on,86,0,120
1,note_on,74,0,0
1,note_on,79,0,0
1,note_on,83,0,0
1,note_on,74,86,0
1,note_on,79,86,0
1,note_on,83,86,0
1,note_on,86,102,0
1,note_on,86,0,240
1,note_on,74,0,0
1,note_on,79,0,0
1,note_on,83,0,0
1,note_on,74,79,0
1,note_on,79,79,0
1,note_on,83,79,0
1,note_on,86,93,0
1,note_on,86,0,350
1,note_on,74,0,0
1,note_on,79,0,0
1,note_on,83,0,0
1,note_on,74,50,10
1,note_on,66,42,0
1,note_on,62,42,0
1,note_on,69,42,6
1,note_on,62,0,234
1,note_on,74,0,0
1,note_on,66,0,0
1,note_on,62,37,0
1,note_on,66,37,0
1,note_on,69,37,0
1,note_on,74,44,0
1,note_on,69,0,6
1,note_on,69,0,114
1,note_on,62,0,0
1,note_on,66,0,0
1,note_on,74,0,0
1,note_on,62,43,0
1,note_on,66,43,0
1,note_on,69,43,0
1,note_on,74,51,0
1,note_on,74,0,240
1,note_on,62,0,0
1,note_on,66,0,0
1,note_on,69,0,0
1,note_on,69,39,0
1,note_on,62,39,0
1,note_on,66,39,0
1,note_on,74,46,0
1,note_on,74,0,350
1,note_on,69,0,0
1,note_on,62,0,0
1,note_on,66,0,0
1,note_on,86,101,10
1,note_on,83,85,0
1,note_on,79,85,0
1,note_on,74,85,0
1,note_on,74,0,240
1,note_on,86,0,0
1,note_on,83,0,0
1,note_on,79,0,0
1,note_on,74,74,0
1,note_on,79,74,0
1,note_on,83,74,0
1,note_on,86,89,0
1,note_on,86,0,120
1,note_on,74,0,0
1,note_on,79,0,0
1,note_on,83,0,0
1,note_on,74,86,0
1,note_on,79,86,0
1,note_on,83,86,0
1,note_on,86,102,0
1,note_on,86,0,240
1,note_on,74,0,0
1,note_on,79,0,0
1,note_on,83,0,0
1,note_on,74,79,0
1,note_on,79,79,0
1,note_on,83,79,0
1,note_on,86,93,0
1,note_on,86,0,350
1,note_on,74,0,0
1,note_on,79,0,0
1,note_on,83,0,0
1,note_on,74,50,10
1,note_on,66,42,0
1,note_on,62,42,0
1,note_on,69,42,6
1,note_on,62,0,234
1,note_on,74,0,0
1,note_on,66,0,0
1,note_on,62,37,0
1,note_on,66,37,0
1,note_on,69,37,0
1,note_on,74,44,0
1,note_on,69,0,6
1,note_on,69,0,114
1,note_on,62,0,0
1,note_on,66,0,0
1,note_on,74,0,0
1,note_on,62,43,0
1,note_on,66,43,0
1,note_on,69,43,0
1,note_on,74,51,0
1,note_on,74,0,240
1,note_on,62,0,0
1,note_on,66,0,0
1,note_on,69,0,0
1,note_on,69,39,0
1,note_on,62,39,0
1,note_on,66,39,0
1,note_on,74,46,0
1,note_on,74,0,350
1,note_on,69,0,0
1,note_on,62,0,0
1,note_on,66,0,0
1,note_on,86,101,10
1,note_on,83,72,0
1,note_on,79,72,0
1,note_on,74,72,0
1,note_on,74,0,228
1,note_on,86,0,0
1,note_on,83,0,0
1,note_on,79,0,0
1,note_on,74,62,12
1,note_on,79,62,0
1,note_on,83,62,0
1,note_on,86,89,0
1,note_on,86,0,114
1,note_on,74,0,0
1,note_on,79,0,0
1,note_on,83,0,0
1,note_on,74,78,6
1,note_on,79,78,0
1,note_on,83,78,0
1,note_on,86,92,0
1,note_on,86,0,120
1,note_on,74,0,0
1,note_on,79,0,0
1,note_on,83,0,0
1,note_on,74,74,120
1,note_on,79,74,0
1,note_on,83,88,0
1,note_on,83,0,120
1,note_on,79,0,0
1,note_on,74,0,0
1,note_on,71,72,120
1,note_on,74,72,0
1,note_on,79,85,0
1,note_on,79,0,120
1,note_on,74,0,0
1,note_on,71,0,0
1,note_on,67,69,120
1,note_on,71,69,0
1,note_on,74,82,0
1,note_on,74,0,120
1,note_on,71,0,0
1,note_on,67,0,0
1,note_on,62,67,120
1,note_on,67,67,0
1,note_on,71,79,0
1,note_on,71,0,120
1,note_on,67,0,0
1,note_on,62,0,0
1,note_on,59,64,120
1,note_on,62,64,0
1,note_on,67,76,0
1,note_on,67,0,120
1,note_on,62,0,0
1,note_on,59,0,0
1,note_on,55,80,120
1,note_on,62,80,0
1,note_on,65,95,0
1,note_on,65,0,1440
1,note_on,62,0,0
1,note_on,55,0,0
1,note_on,55,75,0
1,note_on,62,75,0
1,note_on,65,89,0
1,note_on,65,0,1440
1,note_on,62,0,0
1,note_on,55,0,0
1,note_on,56,39,0
1,note_on,62,47,0
1,note_on,64,47,0
1,note_on,64,0,775
1,note_on,64,42,5
1,note_on,64,0,60
1,note_on,66,42,0
1,note_on,66,0,60
1,note_on,68,42,0
1,note_on,68,0,60
1,note_on,62,0,0
1,note_on,56,0,0
1,note_on,66,49,0
1,note_on,66,0,360
1,note_on,64,48,0
1,note_on,64,0,110
1,note_on,56,39,10
1,note_on,62,47,0
1,note_on,64,47,0
1,note_on,64,0,775
1,note_on,64,42,5
1,note_on,64,0,60
1,note_on,66,42,0
1,note_on,66,0,60
1,note_on,68,42,0
1,note_on,68,0,60
1,note_on,62,0,0
1,note_on,56,0,0
1,note_on,66,49,0
1,note_on,66,0,360
1,note_on,64,42,0
1,note_on,64,0,110
1,note_on,61,40,10
1,note_on,64,48,0
1,note_on,64,0,120
1,note_on,69,42,0
1,note_on,69,0,120
1,note_on,61,0,0
1,note_on,63,40,0
1,note_on,68,48,0
1,note_on,68,0,120
1,note_on,69,43,0
1,note_on,69,0,120
1,note_on,63,0,0
1,note_on,64,40,0
1,note_on,69,40,0
1,note_on,73,48,0
1,note_on,73,0,480
1,note_on,69,0,0
1,note_on,64,0,0
1,note_on,62,38,0
1,note_on,64,38,0
1,note_on,68,38,0
1,note_on,73,45,0
1,note_on,73,0,360
1,note_on,71,41,0
1,note_on,71,0,120
1,note_on,68,0,0
1,note_on,64,0,0
1,note_on,62,0,0
1,note_on,61,31,0
1,note_on,64,31,0
1,note_on,69,37,0
1,note_on,69,0,120
1,note_on,64,0,0
1,note_on,61,0,0
1,note_on,57,34,0
1,note_on,61,34,0
1,note_on,64,34,0
1,note_on,69,41,0
1,note_on,69,0,180
1,note_on,57,0,0
1,note_on,61,0,0
1,note_on,64,0,0
1,note_on,57,27,60
1,note_on,61,27,0
1,note_on,64,27,0
1,note_on,69,32,0
1,note_on,69,0,90
1,note_on,57,0,0
1,note_on,61,0,0
1,note_on,64,0,0
1,note_on,57,29,30
1,note_on,61,29,0
1,note_on,64,29,0
1,note_on,69,35,0
1,note_on,69,0,180
1,note_on,57,0,0
1,note_on,61,0,0
1,note_on,64,0,0
1,note_on,57,27,60
1,note_on,61,27,0
1,note_on,64,27,0
1,note_on,69,32,0
1,note_on,69,0,180
1,note_on,57,0,0
1,note_on,61,0,0
1,note_on,64,0,0
1,note_on,57,34,660
1,note_on,61,34,0
1,note_on,67,34,0
1,note_on,69,41,0
1,note_on,69,0,180
1,note_on,57,0,0
1,note_on,61,0,0
1,note_on,67,0,0
1,note_on,57,27,60
1,note_on,61,27,0
1,note_on,67,27,0
1,note_on,69,32,0
1,note_on,69,0,90
1,note_on,57,0,0
1,note_on,61,0,0
1,note_on,67,0,0
1,note_on,57,29,30
1,note_on,61,29,0
1,note_on,67,29,0
1,note_on,69,35,0
1,note_on,69,0,180
1,note_on,57,0,0
1,note_on,61,0,0
1,note_on,67,0,0
1,note_on,57,27,60
1,note_on,61,27,0
1,note_on,67,27,0
1,note_on,69,32,0
1,note_on,69,0,180
1,note_on,57,0,0
1,note_on,61,0,0
1,note_on,67,0,0
1,note_on,57,34,660
1,note_on,62,34,0
1,note_on,66,34,0
1,note_on,69,41,0
1,note_on,69,0,180
1,note_on,57,0,0
1,note_on,62,0,0
1,note_on,66,0,0
1,note_on,57,27,60
1,note_on,62,27,0
1,note_on,66,27,0
1,note_on,69,32,0
1,note_on,69,0,90
1,note_on,57,0,0
1,note_on,62,0,0
1,note_on,66,0,0
1,note_on,57,29,30
1,note_on,62,29,0
1,note_on,66,29,0
1,note_on,69,35,0
1,note_on,69,0,180
1,note_on,57,0,0
1,note_on,62,0,0
1,note_on,66,0,0
1,note_on,57,27,60
1,note_on,62,27,0
1,note_on,66,27,0
1,note_on,69,32,0
1,note_on,69,0,180
1,note_on,57,0,0
1,note_on,62,0,0
1,note_on,66,0,0
1,note_on,57,34,660
1,note_on,62,34,0
1,note_on,65,34,0
1,note_on,68,41,0
1,note_on,68,0,180
1,note_on,57,0,0
1,note_on,62,0,0
1,note_on,65,0,0
1,note_on,57,27,60
1,note_on,62,27,0
1,note_on,65,27,0
1,note_on,68,32,0
1,note_on,68,0,90
1,note_on,57,0,0
1,note_on,62,0,0
1,note_on,65,0,0
1,note_on,57,29,30
1,note_on,62,29,0
1,note_on,65,29,0
1,note_on,68,35,0
1,note_on,68,0,180
1,note_on,57,0,0
1,note_on,62,0,0
1,note_on,65,0,0
1,note_on,57,27,60
1,note_on,62,27,0
1,note_on,65,27,0
1,note_on,68,32,0
1,note_on,68,0,180
1,note_on,57,0,0
1,note_on,62,0,0
1,note_on,65,0,0
1,note_on,57,30,660
1,note_on,61,30,0
1,note_on,64,30,0
1,note_on,69,36,0
1,note_on,69,0,180
1,note_on,57,0,0
1,note_on,61,0,0
1,note_on,64,0,0
1,note_on,57,23,60
1,note_on,61,23,0
1,note_on,64,23,0
1,note_on,69,27,0
1,note_on,69,0,90
1,note_on,57,0,0
1,note_on,61,0,0
1,note_on,64,0,0
1,note_on,57,25,30
1,note_on,61,25,0
1,note_on,64,25,0
1,note_on,69,30,0
1,note_on,69,0,180
1,note_on,57,0,0
1,note_on,61,0,0
1,note_on,64,0,0
1,note_on,57,23,60
1,note_on,61,23,0
1,note_on,64,23,0
1,note_on,69,27,0
1,note_on,69,0,180
1,note_on,57,0,0
1,note_on,61,0,0
1,note_on,64,0,0
1,note_on,58,23,660
1,note_on,61,23,0
1,note_on,64,28,0
1,note_on,67,34,0
1,note_on,67,0,180
1,note_on,58,0,0
1,note_on,61,0,0
1,note_on,64,0,0
1,note_on,58,18,60
1,note_on,61,18,0
1,note_on,64,22,0
1,note_on,67,26,0
1,note_on,67,0,90
1,note_on,58,0,0
1,note_on,61,0,0
1,note_on,64,0,0
1,note_on,58,20,30
1,note_on,61,20,0
1,note_on,64,24,0
1,note_on,67,29,0
1,note_on,67,0,180
1,note_on,58,0,0
1,note_on,61,0,0
1,note_on,64,0,0
1,note_on,58,18,60
1,note_on,61,18,0
1,note_on,64,22,0
1,note_on,67,26,0
1,note_on,67,0,180
1,note_on,58,0,0
1,note_on,61,0,0
1,note_on,64,0,0
1,note_on,57,22,660
1,note_on,62,27,0
1,note_on,66,32,0
1,note_on,66,0,180
1,note_on,62,0,0
1,note_on,57,0,0
1,note_on,57,17,60
1,note_on,62,21,0
1,note_on,66,24,0
1,note_on,66,0,90
1,note_on,62,0,0
1,note_on,57,0,0
1,note_on,57,19,30
1,note_on,62,23,0
1,note_on,66,27,0
1,note_on,66,0,180
1,note_on,62,0,0
1,note_on,57,0,0
1,note_on,57,17,60
1,note_on,62,21,0
1,note_on,66,24,0
1,note_on,66,0,180
1,note_on,62,0,0
1,note_on,57,0,0
1,note_on,56,25,660
1,note_on,59,25,0
1,note_on,62,25,0
1,note_on,65,30,0
1,note_on,65,0,180
1,note_on,56,0,0
1,note_on,59,0,0
1,note_on,62,0,0
1,note_on,56,20,60
1,note_on,59,20,0
1,note_on,62,20,0
1,note_on,65,23,0
1,note_on,65,0,90
1,note_on,56,0,0
1,note_on,59,0,0
1,note_on,62,0,0
1,note_on,56,21,30
1,note_on,59,21,0
1,note_on,62,21,0
1,note_on,65,26,0
1,note_on,65,0,180
1,note_on,56,0,0
1,note_on,59,0,0
1,note_on,62,0,0
1,note_on,56,19,60
1,note_on,59,19,0
1,note_on,62,19,0
1,note_on,65,23,0
1,note_on,65,0,180
1,note_on,56,0,0
1,note_on,59,0,0
1,note_on,62,0,0
1,note_on,52,22,660
1,note_on,57,22,0
1,note_on,61,22,0
1,note_on,64,27,0
1,note_on,64,0,180
1,note_on,52,0,0
1,note_on,57,0,0
1,note_on,61,0,0
1,note_on,52,17,60
1,note_on,57,17,0
1,note_on,61,17,0
1,note_on,64,19,0
1,note_on,64,0,90
1,note_on,52,0,0
1,note_on,57,0,0
1,note_on,61,0,0
1,note_on,52,20,30
1,note_on,57,20,0
1,note_on,61,20,0
1,note_on,64,24,0
1,note_on,64,0,180
1,note_on,52,0,0
1,note_on,57,0,0
1,note_on,61,0,0
1,note_on,52,18,60
1,note_on,57,18,0
1,note_on,61,18,0
1,note_on,64,21,0
1,note_on,64,0,180
1,note_on,52,0,0
1,note_on,57,0,0
1,note_on,61,0,0
1,note_on,52,19,60
1,note_on,57,19,0
1,note_on,61,23,0
1,note_on,61,0,180
1,note_on,57,0,0
1,note_on,52,0,0
1,note_on,52,17,60
1,note_on,57,17,0
1,note_on,61,20,0
1,note_on,61,0,180
1,note_on,57,0,0
1,note_on,52,0,0
1,note_on,49,16,60
1,note_on,52,16,0
1,note_on,57,19,0
1,note_on,57,0,1440
1,note_on,52,0,0
1,note_on,49,0,0
2,note_on,45,28,720
2,note_on,52,34,0
2,note_on,52,0,240
2,note_on,45,0,0
2,note_on,45,34,0
2,note_on,54,40,0
2,note_on,54,0,216
2,note_on,45,0,0
2,note_on,45,24,24
2,note_on,51,29,0
2,note_on,51,0,216
2,note_on,45,0,0
2,note_on,45,31,24
2,note_on,52,37,0
2,note_on,52,0,710
2,note_on,45,0,0
2,note_on,45,34,10
2,note_on,52,34,0
2,note_on,57,41,0
2,note_on,57,0,240
2,note_on,59,43,0
2,note_on,59,0,240
2,note_on,52,0,0
2,note_on,45,0,0
2,note_on,45,38,0
2,note_on,53,38,0
2,note_on,57,45,0
2,note_on,57,0,216
2,note_on,53,0,0
2,note_on,45,0,0
2,note_on,50,29,24
2,note_on,54,35,0
2,note_on,58,42,0
2,note_on,58,0,480
2,note_on,59,37,0
2,note_on,59,0,240
2,note_on,54,0,0
2,note_on,50,0,0
2,note_on,50,32,0
2,note_on,54,38,0
2,note_on,54,0,240
2,note_on,50,0,0
2,note_on,52,29,0
2,note_on,56,35,0
2,note_on,56,0,240
2,note_on,52,0,0
2,note_on,54,28,0
2,note_on,57,34,0
2,note_on,57,0,216
2,note_on,54,0,0
2,note_on,44,31,24
2,note_on,52,37,0
2,note_on,52,0,710
2,note_on,44,0,0
2,note_on,44,34,10
2,note_on,52,40,0
2,note_on,52,0,240
2,note_on,44,0,0
2,note_on,44,31,0
2,note_on,54,37,0
2,note_on,54,0,216
2,note_on,44,0,0
2,note_on,44,29,24
2,note_on,52,35,0
2,note_on,52,0,216
2,note_on,44,0,0
2,note_on,45,34,24
2,note_on,54,40,0
2,note_on,54,0,480
2,note_on,52,36,0
2,note_on,52,0,230
2,note_on,45,0,10
2,note_on,45,35,0
2,note_on,49,42,0
2,note_on,49,0,240
2,note_on,45,0,0
2,note_on,45,42,0
2,note_on,54,50,0
2,note_on,54,0,216
2,note_on,45,0,0
2,note_on,45,29,24
2,note_on,51,36,0
2,note_on,51,0,216
2,note_on,45,0,0
2,note_on,45,38,24
2,note_on,52,46,0
2,note_on,52,0,710
2,note_on,45,0,0
2,note_on,61,57,10
2,note_on,61,0,240
2,note_on,57,61,0
2,note_on,57,0,240
2,note_on,45,54,0
2,note_on,52,64,0
2,note_on,52,0,216
2,note_on,45,0,0
2,note_on,44,59,24
2,note_on,52,59,0
2,note_on,56,70,0
2,note_on,56,0,720
2,note_on,52,0,0
2,note_on,44,0,0
2,note_on,56,32,0
2,note_on,61,38,0
2,note_on,56,0,230
2,note_on,61,0,10
2,note_on,56,29,0
2,note_on,60,35,0
2,note_on,56,0,230
2,note_on,60,0,10
2,note_on,56,28,0
2,note_on,63,34,0
2,note_on,63,0,216
2,note_on,56,0,0
2,note_on,56,31,24
2,note_on,49,31,0
2,note_on,61,37,0
2,note_on,61,0,710
2,note_on,49,0,0
2,note_on,56,0,10
2,note_on,52,34,0
2,note_on,57,40,0
2,note_on,52,0,230
2,note_on,57,0,10
2,note_on,52,31,0
2,note_on,56,37,0
2,note_on,56,0,216
2,note_on,52,0,0
2,note_on,52,29,24
2,note_on,59,35,0
2,note_on,59,0,216
2,note_on,52,0,0
2,note_on,52,34,24
2,note_on,45,34,0
2,note_on,57,40,0
2,note_on,57,0,480
2,note_on,45,0,0
2,note_on,52,0,0
2,note_on,45,28,240
2,note_on,52,34,0
2,note_on,52,0,240
2,note_on,45,0,0
2,note_on,45,34,0
2,note_on,54,40,0
2,note_on,54,0,216
2,note_on,45,0,0
2,note_on,45,24,24
2,note_on,51,29,0
2,note_on,51,0,216
2,note_on,45,0,0
2,note_on,45,31,24
2,note_on,52,37,0
2,note_on,52,0,710
2,note_on,45,0,0
2,note_on,45,34,10
2,note_on,52,34,0
2,note_on,57,41,0
2,note_on,57,0,240
2,note_on,59,43,0
2,note_on,59,0,240
2,note_on,52,0,0
2,note_on,45,0,0
2,note_on,45,38,0
2,note_on,53,38,0
2,note_on,57,45,0
2,note_on,57,0,216
2,note_on,53,0,0
2,note_on,45,0,0
2,note_on,50,29,24
2,note_on,54,35,0
2,note_on,58,42,0
2,note_on,58,0,480
2,note_on,59,37,0
2,note_on,59,0,240
2,note_on,54,0,0
2,note_on,50,0,0
2,note_on,50,32,0
2,note_on,54,38,0
2,note_on,54,0,240
2,note_on,50,0,0
2,note_on,52,29,0
2,note_on,56,35,0
2,note_on,56,0,240
2,note_on,52,0,0
2,note_on,54,28,0
2,note_on,57,34,0
2,note_on,57,0,216
2,note_on,54,0,0
2,note_on,44,31,24
2,note_on,52,37,0
2,note_on,52,0,710
2,note_on,44,0,0
2,note_on,44,34,10
2,note_on,52,40,0
2,note_on,52,0,240
2,note_on,44,0,0
2,note_on,44,31,0
2,note_on,54,37,0
2,note_on,54,0,216
2,note_on,44,0,0
2,note_on,44,29,24
2,note_on,52,35,0
2,note_on,52,0,216
2,note_on,44,0,0
2,note_on,45,34,24
2,note_on,54,40,0
2,note_on,54,0,480
2,note_on,52,36,0
2,note_on,52,0,230
2,note_on,45,0,10
2,note_on,45,35,0
2,note_on,49,42,0
2,note_on,49,0,240
2,note_on,45,0,0
2,note_on,45,42,0
2,note_on,54,50,0
2,note_on,54,0,216
2,note_on,45,0,0
2,note_on,45,29,24
2,note_on,51,36,0
2,note_on,51,0,216
2,note_on,45,0,0
2,note_on,45,38,24
2,note_on,52,46,0
2,note_on,52,0,710
2,note_on,45,0,0
2,note_on,61,57,10
2,note_on,61,0,240
2,note_on,57,61,0
2,note_on,57,0,240
2,note_on,45,54,0
2,note_on,52,64,0
2,note_on,52,0,216
2,note_on,45,0,0
2,note_on,44,59,24
2,note_on,52,59,0
2,note_on,56,70,0
2,note_on,56,0,720
2,note_on,52,0,0
2,note_on,44,0,0
2,note_on,56,32,0
2,note_on,61,38,0
2,note_on,56,0,230
2,note_on,61,0,10
2,note_on,56,29,0
2,note_on,60,35,0
2,note_on,60,0,230
2,note_on,56,0,0
2,note_on,56,28,10
2,note_on,63,34,0
2,note_on,63,0,216
2,note_on,56,0,0
2,note_on,56,31,24
2,note_on,49,31,0
2,note_on,61,37,0
2,note_on,61,0,710
2,note_on,49,0,0
2,note_on,56,0,10
2,note_on,52,34,0
2,note_on,57,40,0
2,note_on,52,0,230
2,note_on,57,0,10
2,note_on,52,31,0
2,note_on,56,37,0
2,note_on,56,0,216
2,note_on,52,0,0
2,note_on,52,29,24
2,note_on,59,35,0
2,note_on,59,0,216
2,note_on,52,0,0
2,note_on,54,34,24
2,note_on,57,40,0
2,note_on,57,0,720
2,note_on,54,0,0
2,note_on,52,36,0
2,note_on,55,43,0
2,note_on,55,0,230
2,note_on,52,0,0
2,note_on,50,39,10
2,note_on,55,46,0
2,note_on,55,0,240
2,note_on,50,0,0
2,note_on,49,40,0
2,note_on,55,48,0
2,note_on,55,0,216
2,note_on,49,0,0
2,note_on,47,43,24
2,note_on,55,51,0
2,note_on,55,0,720
2,note_on,47,0,0
2,note_on,50,32,0
2,note_on,55,38,0
2,note_on,55,0,230
2,note_on,50,0,0
2,note_on,53,28,10
2,note_on,55,34,0
2,note_on,53,0,230
2,note_on,55,0,10
2,note_on,55,34,0
2,note_on,55,0,216
2,note_on,48,27,24
2,note_on,55,33,0
2,note_on,55,0,710
2,note_on,48,0,0
2,note_on,43,27,10
2,note_on,55,32,0
2,note_on,43,0,230
2,note_on,55,0,10
2,note_on,48,23,0
2,note_on,55,28,0
2,note_on,48,0,230
2,note_on,55,0,10
2,note_on,50,23,0
2,note_on,55,28,0
2,note_on,55,0,216
2,note_on,50,0,24
2,note_on,48,26,0
2,note_on,55,31,0
2,note_on,55,0,220
2,note_on,48,0,0
2,note_on,55,27,20
2,note_on,67,32,0
2,note_on,55,0,230
2,note_on,67,0,10
2,note_on,60,23,0
2,note_on,67,28,0
2,note_on,60,0,230
2,note_on,67,0,10
2,note_on,62,23,0
2,note_on,67,28,0
2,note_on,67,0,216
2,note_on,62,0,24
2,note_on,60,26,0
2,note_on,67,31,0
2,note_on,67,0,220
2,note_on,60,0,0
2,note_on,43,27,20
2,note_on,55,32,0
2,note_on,43,0,230
2,note_on,55,0,10
2,note_on,48,23,0
2,note_on,55,28,0
2,note_on,48,0,230
2,note_on,55,0,10
2,note_on,50,23,0
2,note_on,55,28,0
2,note_on,55,0,216
2,note_on,50,0,24
2,note_on,48,26,0
2,note_on,55,31,0
2,note_on,55,0,220
2,note_on,48,0,0
2,note_on,47,29,20
2,note_on,52,29,0
2,note_on,56,35,0
2,note_on,56,0,240
2,note_on,52,0,0
2,note_on,47,0,0
2,note_on,47,31,0
2,note_on,52,31,0
2,note_on,56,38,0
2,note_on,56,0,240
2,note_on,52,0,0
2,note_on,47,0,0
2,note_on,47,37,0
2,note_on,52,37,0
2,note_on,56,44,0
2,note_on,56,0,240
2,note_on,52,0,0
2,note_on,47,0,0
2,note_on,49,42,0
2,note_on,52,42,0
2,note_on,57,51,0
2,note_on,57,0,240
2,note_on,52,0,0
2,note_on,49,0,0
2,note_on,54,47,0
2,note_on,57,47,0
2,note_on,59,56,0
2,note_on,59,0,240
2,note_on,57,0,0
2,note_on,54,0,0
2,note_on,52,49,0
2,note_on,57,49,0
2,note_on,61,59,0
2,note_on,61,0,480
2,note_on,57,0,0
2,note_on,52,0,0
2,note_on,40,42,0
2,note_on,52,50,0
2,note_on,52,0,480
2,note_on,40,0,0
2,note_on,45,34,0
2,note_on,52,41,0
2,note_on,52,0,720
2,note_on,45,0,0
2,note_on,52,30,0
2,note_on,52,0,230
2,note_on,49,34,10
2,note_on,49,0,240
2,note_on,45,34,0
2,note_on,45,0,170
2,note_on,45,27,10
2,note_on,45,0,60
2,note_on,52,33,0
2,note_on,52,0,710
2,note_on,52,33,10
2,note_on,52,0,230
2,note_on,49,37,10
2,note_on,49,0,240
2,note_on,46,37,0
2,note_on,46,0,170
2,note_on,46,29,10
2,note_on,46,0,60
2,note_on,52,36,0
2,note_on,52,0,710
2,note_on,52,36,10
2,note_on,52,0,230
2,note_on,50,43,10
2,note_on,50,0,240
2,note_on,47,46,0
2,note_on,47,0,170
2,note_on,47,37,10
2,note_on,47,0,60
2,note_on,54,54,0
2,note_on,54,0,216
2,note_on,52,45,24
2,note_on,54,54,0
2,note_on,54,0,216
2,note_on,52,0,0
2,note_on,50,44,24
2,note_on,54,52,0
2,note_on,54,0,216
2,note_on,50,0,0
2,note_on,46,41,24
2,note_on,54,49,0
2,note_on,54,0,216
2,note_on,46,0,0
2,note_on,47,38,24
2,note_on,54,45,0
2,note_on,54,0,216
2,note_on,47,0,0
2,note_on,41,45,24
2,note_on,50,53,0
2,note_on,50,0,216
2,note_on,41,0,0
2,note_on,40,39,24
2,note_on,52,46,0
2,note_on,52,0,720
2,note_on,40,0,0
2,note_on,52,30,0
2,note_on,52,0,230
2,note_on,47,34,10
2,note_on,47,0,240
2,note_on,44,34,0
2,note_on,44,0,170
2,note_on,44,27,10
2,note_on,44,0,60
2,note_on,52,33,0
2,note_on,52,0,710
2,note_on,52,33,10
2,note_on,52,0,230
2,note_on,48,37,10
2,note_on,48,0,240
2,note_on,45,37,0
2,note_on,45,0,170
2,note_on,45,29,10
2,note_on,45,0,60
2,note_on,52,36,0
2,note_on,52,0,710
2,note_on,52,36,10
2,note_on,52,0,230
2,note_on,49,43,10
2,note_on,49,0,240
2,note_on,46,46,0
2,note_on,46,0,170
2,note_on,46,37,10
2,note_on,46,0,60
2,note_on,53,54,0
2,note_on,53,0,216
2,note_on,51,45,24
2,note_on,53,54,0
2,note_on,53,0,216
2,note_on,51,0,0
2,note_on,50,44,24
2,note_on,53,52,0
2,note_on,53,0,216
2,note_on,50,0,0
2,note_on,45,41,24
2,note_on,53,49,0
2,note_on,53,0,216
2,note_on,45,0,0
2,note_on,46,38,24
2,note_on,53,45,0
2,note_on,53,0,216
2,note_on,46,0,0
2,note_on,48,45,24
2,note_on,53,53,0
2,note_on,53,0,216
2,note_on,48,0,0
2,note_on,48,39,24
2,note_on,53,46,0
2,note_on,48,0,480
2,note_on,46,39,0
2,note_on,46,0,220
2,note_on,53,0,20
2,note_on,41,50,0
2,note_on,53,59,0
2,note_on,53,0,228
2,note_on,41,0,0
2,note_on,43,54,12
2,note_on,53,54,0
2,note_on,55,64,0
2,note_on,55,0,228
2,note_on,53,0,0
2,note_on,43,0,0
2,note_on,45,58,12
2,note_on,53,58,0
2,note_on,57,69,0
2,note_on,57,0,216
2,note_on,53,0,0
2,note_on,45,0,0
2,note_on,46,63,24
2,note_on,53,63,0
2,note_on,58,74,0
2,note_on,58,0,710
2,note_on,46,0,0
2,note_on,53,0,10
2,note_on,50,44,0
2,note_on,58,44,0
2,note_on,62,53,0
2,note_on,50,0,240
2,note_on,53,46,0
2,note_on,53,0,240
2,note_on,62,0,0
2,note_on,58,0,0
2,note_on,53,38,0
2,note_on,60,38,0
2,note_on,63,45,0
2,note_on,63,0,216
2,note_on,60,0,24
2,note_on,53,0,0
2,note_on,55,35,0
2,note_on,58,35,0
2,note_on,62,42,0
2,note_on,62,0,710
2,note_on,58,0,0
2,note_on,55,0,10
2,note_on,45,32,0
2,note_on,53,38,0
2,note_on,45,0,230
2,note_on,46,28,10
2,note_on,46,0,230
2,note_on,53,0,0
2,note_on,48,25,10
2,note_on,53,31,0
2,note_on,53,0,216
2,note_on,48,0,24
2,note_on,46,27,0
2,note_on,53,33,0
2,note_on,53,0,710
2,note_on,46,0,0
2,note_on,41,27,10
2,note_on,53,32,0
2,note_on,41,0,230
2,note_on,53,0,10
2,note_on,46,23,0
2,note_on,53,28,0
2,note_on,46,0,230
2,note_on,53,0,10
2,note_on,48,23,0
2,note_on,53,28,0
2,note_on,53,0,216
2,note_on,48,0,24
2,note_on,46,26,0
2,note_on,53,31,0
2,note_on,53,0,220
2,note_on,46,0,0
2,note_on,53,27,20
2,note_on,65,32,0
2,note_on,53,0,230
2,note_on,65,0,10
2,note_on,58,23,0
2,note_on,65,28,0
2,note_on,58,0,230
2,note_on,65,0,10
2,note_on,60,23,0
2,note_on,65,28,0
2,note_on,65,0,216
2,note_on,60,0,24
2,note_on,58,26,0
2,note_on,65,31,0
2,note_on,65,0,220
2,note_on,58,0,0
2,note_on,41,41,20
2,note_on,53,49,0
2,note_on,41,0,216
2,note_on,46,45,24
2,note_on,46,0,216
2,note_on,53,0,14
2,note_on,48,45,10
2,note_on,53,53,0
2,note_on,48,0,216
2,note_on,46,46,24
2,note_on,46,0,230
2,note_on,53,0,10
2,note_on,46,47,0
2,note_on,46,0,216
2,note_on,45,50,24
2,note_on,45,0,216
2,note_on,44,53,24
2,note_on,44,0,216
2,note_on,45,51,24
2,note_on,45,0,240
2,note_on,38,47,0
2,note_on,50,56,0
2,note_on,50,0,240
2,note_on,38,0,0
2,note_on,40,49,0
2,note_on,49,59,0
2,note_on,49,0,480
2,note_on,40,0,0
2,note_on,40,42,0
2,note_on,50,50,0
2,note_on,50,0,480
2,note_on,40,0,0
2,note_on,33,34,0
2,note_on,45,41,0
2,note_on,45,0,720
2,note_on,33,0,0
2,note_on,64,39,0
2,note_on,57,33,0
2,note_on,57,0,240
2,note_on,64,0,0
2,note_on,66,41,0
2,note_on,57,34,0
2,note_on,57,0,216
2,note_on,66,0,0
2,note_on,63,38,24
2,note_on,57,32,0
2,note_on,57,0,216
2,note_on,63,0,0
2,note_on,64,41,24
2,note_on,57,34,0
2,note_on,57,0,720
2,note_on,64,0,0
2,note_on,57,40,0
2,note_on,64,40,0
2,note_on,69,49,0
2,note_on,69,0,240
2,note_on,71,51,0
2,note_on,71,0,240
2,note_on,64,0,0
2,note_on,57,0,0
2,note_on,57,45,0
2,note_on,65,45,0
2,note_on,69,54,0
2,note_on,69,0,216
2,note_on,65,0,0
2,note_on,57,0,0
2,note_on,62,34,24
2,note_on,66,42,0
2,note_on,70,50,0
2,note_on,70,0,480
2,note_on,71,44,0
2,note_on,71,0,240
2,note_on,66,0,0
2,note_on,62,0,0
2,note_on,50,32,0
2,note_on,54,38,0
2,note_on,54,0,240
2,note_on,50,0,0
2,note_on,52,28,0
2,note_on,56,34,0
2,note_on,56,0,240
2,note_on,52,0,0
2,note_on,54,28,0
2,note_on,57,34,0
2,note_on,57,0,216
2,note_on,54,0,0
2,note_on,44,31,24
2,note_on,52,37,0
2,note_on,52,0,710
2,note_on,44,0,0
2,note_on,56,39,10
2,note_on,64,46,0
2,note_on,64,0,240
2,note_on,56,0,0
2,note_on,56,35,0
2,note_on,66,42,0
2,note_on,66,0,216
2,note_on,56,0,0
2,note_on,56,33,24
2,note_on,64,40,0
2,note_on,64,0,216
2,note_on,56,0,0
2,note_on,57,39,24
2,note_on,66,46,0
2,note_on,66,0,480
2,note_on,64,41,0
2,note_on,64,0,230
2,note_on,57,0,10
2,note_on,47,48,0
2,note_on,49,57,0
2,note_on,49,0,240
2,note_on,47,0,0
2,note_on,49,51,0
2,note_on,45,51,0
2,note_on,54,61,0
2,note_on,54,0,216
2,note_on,45,0,0
2,note_on,49,0,14
2,note_on,49,45,10
2,note_on,44,45,0
2,note_on,53,53,0
2,note_on,53,0,216
2,note_on,44,0,0
2,note_on,49,0,24
2,note_on,50,56,0
2,note_on,42,56,0
2,note_on,45,56,0
2,note_on,54,66,0
2,note_on,54,0,710
2,note_on,45,0,0
2,note_on,42,0,10
2,note_on,50,0,0
2,note_on,54,44,0
2,note_on,57,44,0
2,note_on,54,0,240
2,note_on,52,49,0
2,note_on,57,0,230
2,note_on,52,0,10
2,note_on,57,45,0
2,note_on,57,0,216
2,note_on,50,48,24
2,note_on,58,48,0
2,note_on,61,57,0
2,note_on,61,0,1440
2,note_on,58,0,0
2,note_on,62,39,0
2,note_on,59,33,0
2,note_on,59,0,240
2,note_on,62,0,0
2,note_on,50,0,0
2,note_on,50,29,1200
2,note_on,57,29,0
2,note_on,57,0,1440
2,note_on,50,0,0
2,note_on,43,29,0
2,note_on,55,32,0
2,note_on,55,0,240
2,note_on,43,0,0
2,note_on,47,57,480
2,note_on,47,0,240
2,note_on,45,54,0
2,note_on,49,61,0
2,note_on,49,0,240
2,note_on,45,0,0
2,note_on,43,52,0
2,note_on,50,62,0
2,note_on,50,0,216
2,note_on,43,0,0
2,note_on,42,59,24
2,note_on,50,70,0
2,note_on,50,0,720
2,note_on,42,0,0
2,note_on,54,29,0
2,note_on,57,41,0
2,note_on,54,0,230
2,note_on,52,25,10
2,note_on,56,37,0
2,note_on,52,0,230
2,note_on,57,0,0
2,note_on,56,0,10
2,note_on,50,38,0
2,note_on,57,47,0
2,note_on,57,0,216
2,note_on,50,0,0
2,note_on,49,42,24
2,note_on,57,50,0
2,note_on,57,0,240
2,note_on,49,0,0
2,note_on,54,40,0
2,note_on,59,48,0
2,note_on,57,40,0
2,note_on,57,0,240
2,note_on,59,0,0
2,note_on,54,0,0
2,note_on,57,46,0
2,note_on,52,46,0
2,note_on,61,54,0
2,note_on,52,0,470
2,note_on,61,0,10
2,note_on,57,0,0
2,note_on,52,47,0
2,note_on,40,39,0
2,note_on,52,0,470
2,note_on,40,0,10
2,note_on,45,28,0
2,note_on,52,40,0
2,note_on,52,0,720
2,note_on,45,0,0
2,note_on,57,66,480
2,note_on,57,0,120
2,note_on,61,61,0
2,note_on,61,0,120
2,note_on,62,66,0
2,note_on,62,0,120
2,note_on,50,77,0
2,note_on,50,0,240
2,note_on,38,59,0
2,note_on,38,0,120
2,note_on,50,65,0
2,note_on,50,0,120
2,note_on,57,73,120
2,note_on,57,0,120
2,note_on,61,61,0
2,note_on,61,0,120
2,note_on,59,65,0
2,note_on,59,0,120
2,note_on,54,71,120
2,note_on,54,0,120
2,note_on,57,63,0
2,note_on,57,0,120
2,note_on,55,65,0
2,note_on,55,0,120
2,note_on,43,74,0
2,note_on,43,0,240
2,note_on,31,65,0
2,note_on,31,0,120
2,note_on,43,65,0
2,note_on,43,0,120
2,note_on,47,58,0
2,note_on,47,0,120
2,note_on,43,61,0
2,note_on,43,0,120
2,note_on,42,64,0
2,note_on,42,0,120
2,note_on,40,68,0
2,note_on,40,0,120
2,note_on,59,66,120
2,note_on,59,0,120
2,note_on,63,61,0
2,note_on,63,0,120
2,note_on,64,66,0
2,note_on,64,0,120
2,note_on,52,77,0
2,note_on,52,0,240
2,note_on,40,59,0
2,note_on,40,0,120
2,note_on,52,65,0
2,note_on,52,0,120
2,note_on,59,73,120
2,note_on,59,0,120
2,note_on,62,62,0
2,note_on,62,0,120
2,note_on,61,65,0
2,note_on,61,0,120
2,note_on,56,71,120
2,note_on,56,0,120
2,note_on,59,63,0
2,note_on,59,0,120
2,note_on,57,65,0
2,note_on,57,0,120
2,note_on,45,74,0
2,note_on,45,0,240
2,note_on,33,65,0
2,note_on,33,0,120
2,note_on,45,70,0
2,note_on,57,73,240
2,note_on,57,0,120
2,note_on,45,0,0
2,note_on,47,58,0
2,note_on,57,58,0
2,note_on,59,65,0
2,note_on,59,0,120
2,note_on,47,0,0
2,note_on,49,55,0
2,note_on,61,65,0
2,note_on,61,0,120
2,note_on,49,0,0
2,note_on,57,0,0
2,note_on,50,63,0
2,note_on,62,71,120
2,note_on,62,0,120
2,note_on,50,0,0
2,note_on,62,61,0
2,note_on,52,61,0
2,note_on,64,63,0
2,note_on,64,0,120
2,note_on,52,0,0
2,note_on,62,0,0
2,note_on,54,55,0
2,note_on,62,55,0
2,note_on,66,65,0
2,note_on,66,0,120
2,note_on,62,0,0
2,note_on,54,0,0
2,note_on,54,62,120
2,note_on,62,62,0
2,note_on,66,74,0
2,note_on,66,0,357
2,note_on,62,0,0
2,note_on,54,0,0
2,note_on,66,71,3
2,note_on,54,60,0
2,note_on,54,0,120
2,note_on,66,0,0
2,note_on,69,74,0
2,note_on,57,62,0
2,note_on,57,0,120
2,note_on,69,0,0
2,note_on,66,70,0
2,note_on,54,59,0
2,note_on,54,0,120
2,note_on,66,0,0
2,note_on,50,62,0
2,note_on,62,74,0
2,note_on,62,0,120
2,note_on,50,0,0
2,note_on,49,58,0
2,note_on,61,68,0
2,note_on,61,0,120
2,note_on,49,0,0
2,note_on,47,60,0
2,note_on,59,71,0
2,note_on,59,0,120
2,note_on,47,0,0
2,note_on,45,58,0
2,note_on,57,68,0
2,note_on,57,0,120
2,note_on,45,0,0
2,note_on,43,55,0
2,note_on,50,55,0
2,note_on,55,65,0
2,note_on,55,0,120
2,note_on,50,0,0
2,note_on,43,0,0
2,note_on,43,62,120
2,note_on,50,62,0
2,note_on,55,74,0
2,note_on,55,0,357
2,note_on,50,0,0
2,note_on,43,0,0
2,note_on,50,71,3
2,note_on,43,60,0
2,note_on,43,0,120
2,note_on,50,0,0
2,note_on,55,82,0
2,note_on,55,0,120
2,note_on,50,59,0
2,note_on,54,70,0
2,note_on,42,59,0
2,note_on,42,0,120
2,note_on,54,0,0
2,note_on,50,0,0
2,note_on,43,62,0
2,note_on,50,62,0
2,note_on,55,74,0
2,note_on,55,0,114
2,note_on,50,0,0
2,note_on,43,0,0
2,note_on,43,60,6
2,note_on,50,71,0
2,note_on,50,0,120
2,note_on,55,71,0
2,note_on,55,0,120
2,note_on,43,0,0
2,note_on,50,67,0
2,note_on,45,65,0
2,note_on,57,71,0
2,note_on,57,0,120
2,note_on,45,0,0
2,note_on,50,0,0
2,note_on,43,55,0
2,note_on,50,55,0
2,note_on,55,65,0
2,note_on,55,0,120
2,note_on,50,0,0
2,note_on,43,0,0
2,note_on,43,62,120
2,note_on,50,62,0
2,note_on,55,74,0
2,note_on,55,0,360
2,note_on,50,0,0
2,note_on,43,0,0
2,note_on,59,71,0
2,note_on,47,60,0
2,note_on,47,0,120
2,note_on,59,0,0
2,note_on,62,74,0
2,note_on,50,62,0
2,note_on,50,0,120
2,note_on,62,0,0
2,note_on,59,70,0
2,note_on,47,59,0
2,note_on,47,0,120
2,note_on,59,0,0
2,note_on,43,62,0
2,note_on,55,74,0
2,note_on,55,0,120
2,note_on,43,0,0
2,note_on,47,58,0
2,note_on,59,68,0
2,note_on,59,0,120
2,note_on,47,0,0
2,note_on,43,60,0
2,note_on,55,71,0
2,note_on,55,0,120
2,note_on,43,0,0
2,note_on,42,58,0
2,note_on,54,68,0
2,note_on,54,0,120
2,note_on,42,0,0
2,note_on,40,55,0
2,note_on,47,55,0
2,note_on,52,65,0
2,note_on,52,0,120
2,note_on,47,0,0
2,note_on,40,0,0
2,note_on,40,62,120
2,note_on,47,62,0
2,note_on,52,74,0
2,note_on,52,0,357
2,note_on,47,0,0
2,note_on,40,0,0
2,note_on,40,55,3
2,note_on,47,55,0
2,note_on,52,65,0
2,note_on,52,0,230
2,note_on,47,0,0
2,note_on,40,0,0
2,note_on,40,62,10
2,note_on,47,62,0
2,note_on,52,74,0
2,note_on,52,0,120
2,note_on,47,0,0
2,note_on,40,0,0
2,note_on,45,55,0
2,note_on,52,55,0
2,note_on,57,65,0
2,note_on,57,0,120
2,note_on,52,0,0
2,note_on,45,0,0
2,note_on,45,62,120
2,note_on,52,62,0
2,note_on,57,74,0
2,note_on,57,0,360
2,note_on,52,0,0
2,note_on,45,0,0
2,note_on,38,55,0
2,note_on,45,55,0
2,note_on,50,65,0
2,note_on,50,0,230
2,note_on,45,0,0
2,note_on,38,0,0
2,note_on,38,62,10
2,note_on,45,62,0
2,note_on,50,74,0
2,note_on,50,0,120
2,note_on,45,0,0
2,note_on,38,0,0
2,note_on,50,55,0
2,note_on,57,65,0
2,note_on,57,0,120
2,note_on,50,0,0
2,note_on,50,62,120
2,note_on,57,74,0
2,note_on,57,0,360
2,note_on,50,0,0
2,note_on,43,32,480
2,note_on,43,0,120
2,note_on,50,35,0
2,note_on,50,0,120
2,note_on,43,32,0
2,note_on,50,36,120
2,note_on,50,0,230
2,note_on,43,0,0
2,note_on,50,37,10
2,note_on,43,31,0
2,note_on,43,0,720
2,note_on,50,0,0
2,note_on,43,32,120
2,note_on,43,0,120
2,note_on,50,35,0
2,note_on,50,0,120
2,note_on,43,32,0
2,note_on,50,36,120
2,note_on,50,0,230
2,note_on,43,0,0
2,note_on,50,38,10
2,note_on,43,31,0
2,note_on,43,0,360
2,note_on,42,32,0
2,note_on,42,0,120
2,note_on,40,35,0
2,note_on,40,0,120
2,note_on,38,39,0
2,note_on,38,0,120
2,note_on,50,0,0
2,note_on,36,36,120
2,note_on,36,0,120
2,note_on,43,40,0
2,note_on,43,0,120
2,note_on,36,36,0
2,note_on,43,41,120
2,note_on,43,0,230
2,note_on,36,0,0
2,note_on,43,42,10
2,note_on,36,35,0
2,note_on,36,0,720
2,note_on,43,0,0
2,note_on,36,36,120
2,note_on,36,0,120
2,note_on,43,40,0
2,note_on,43,0,120
2,note_on,36,36,0
2,note_on,43,41,120
2,note_on,43,0,230
2,note_on,36,0,0
2,note_on,43,42,10
2,note_on,36,35,0
2,note_on,43,0,480
2,note_on,45,39,0
2,note_on,45,0,240
2,note_on,36,0,0
2,note_on,36,36,120
2,note_on,36,0,120
2,note_on,45,40,0
2,note_on,45,0,120
2,note_on,36,36,0
2,note_on,45,41,120
2,note_on,45,0,230
2,note_on,36,0,0
2,note_on,45,42,10
2,note_on,36,35,0
2,note_on,36,0,480
2,note_on,45,0,0
2,note_on,48,35,0
2,note_on,57,42,0
2,note_on,57,0,240
2,note_on,48,0,0
2,note_on,47,36,120
2,note_on,47,0,120
2,note_on,57,40,0
2,note_on,57,0,120
2,note_on,47,36,0
2,note_on,57,41,120
2,note_on,57,0,230
2,note_on,47,0,0
2,note_on,57,42,10
2,note_on,47,35,0
2,note_on,47,0,480
2,note_on,57,0,0
2,note_on,48,35,0
2,note_on,57,42,0
2,note_on,57,0,240
2,note_on,48,0,0
2,note_on,47,36,120
2,note_on,47,0,120
2,note_on,57,40,0
2,note_on,57,0,120
2,note_on,47,36,0
2,note_on,57,41,120
2,note_on,57,0,230
2,note_on,47,0,0
2,note_on,57,42,10
2,note_on,47,35,0
2,note_on,47,0,480
2,note_on,57,0,0
2,note_on,48,35,0
2,note_on,57,42,0
2,note_on,57,0,240
2,note_on,48,0,0
2,note_on,47,36,120
2,note_on,47,0,120
2,note_on,57,39,0
2,note_on,57,0,120
2,note_on,47,35,0
2,note_on,57,39,120
2,note_on,57,0,230
2,note_on,47,0,0
2,note_on,57,39,10
2,note_on,47,33,0
2,note_on,47,0,470
2,note_on,57,0,0
2,note_on,47,32,10
2,note_on,57,38,0
2,note_on,57,0,240
2,note_on,47,0,0
2,note_on,47,32,120
2,note_on,47,0,120
2,note_on,57,35,0
2,note_on,57,0,120
2,note_on,47,31,0
2,note_on,57,35,120
2,note_on,57,0,230
2,note_on,47,0,0
2,note_on,57,35,10
2,note_on,47,29,0
2,note_on,47,0,470
2,note_on,57,0,0
2,note_on,47,28,10
2,note_on,57,34,0
2,note_on,57,0,240
2,note_on,47,0,0
2,note_on,43,32,120
2,note_on,43,0,120
2,note_on,50,35,0
2,note_on,50,0,120
2,note_on,43,32,0
2,note_on,50,36,120
2,note_on,50,0,230
2,note_on,43,0,0
2,note_on,50,37,10
2,note_on,43,31,0
2,note_on,43,0,720
2,note_on,50,0,0
2,note_on,43,32,120
2,note_on,43,0,120
2,note_on,50,35,0
2,note_on,50,0,120
2,note_on,43,32,0
2,note_on,50,36,120
2,note_on,50,0,230
2,note_on,43,0,0
2,note_on,50,38,10
2,note_on,43,31,0
2,note_on,43,0,360
2,note_on,42,32,0
2,note_on,42,0,120
2,note_on,40,35,0
2,note_on,40,0,120
2,note_on,38,39,0
2,note_on,38,0,120
2,note_on,50,0,0
2,note_on,36,36,120
2,note_on,36,0,120
2,note_on,43,40,0
2,note_on,43,0,120
2,note_on,36,36,0
2,note_on,43,41,120
2,note_on,43,0,230
2,note_on,36,0,0
2,note_on,43,42,10
2,note_on,36,35,0
2,note_on,36,0,720
2,note_on,43,0,0
2,note_on,36,36,120
2,note_on,36,0,120
2,note_on,43,40,0
2,note_on,43,0,120
2,note_on,36,36,0
2,note_on,43,41,120
2,note_on,43,0,230
2,note_on,36,0,0
2,note_on,43,45,10
2,note_on,36,45,0
2,note_on,36,0,240
2,note_on,43,0,0
2,note_on,35,44,0
2,note_on,44,48,0
2,note_on,35,0,240
2,note_on,40,42,0
2,note_on,40,0,240
2,note_on,44,0,0
2,note_on,33,41,0
2,note_on,45,46,0
2,note_on,45,0,110
2,note_on,33,0,10
2,note_on,45,36,0
2,note_on,45,0,120
2,note_on,55,46,0
2,note_on,55,0,120
2,note_on,45,41,0
2,note_on,55,45,120
2,note_on,55,0,230
2,note_on,45,0,0
2,note_on,55,45,10
2,note_on,45,38,0
2,note_on,45,0,480
2,note_on,55,0,0
2,note_on,46,36,0
2,note_on,55,43,0
2,note_on,55,0,240
2,note_on,46,0,0
2,note_on,45,36,120
2,note_on,45,0,120
2,note_on,55,40,0
2,note_on,55,0,120
2,note_on,45,36,0
2,note_on,55,41,120
2,note_on,55,0,230
2,note_on,45,0,0
2,note_on,55,42,10
2,note_on,45,35,0
2,note_on,45,0,480
2,note_on,55,0,0
2,note_on,46,35,0
2,note_on,55,42,0
2,note_on,55,0,240
2,note_on,46,0,0
2,note_on,45,29,0
2,note_on,55,37,0
2,note_on,45,0,116
2,note_on,55,0,4
2,note_on,45,34,0
2,note_on,45,0,120
2,note_on,55,37,0
2,note_on,55,0,120
2,note_on,45,33,0
2,note_on,55,37,120
2,note_on,55,0,230
2,note_on,45,0,0
2,note_on,55,37,10
2,note_on,45,31,0
2,note_on,45,0,470
2,note_on,55,0,0
2,note_on,45,30,10
2,note_on,55,36,0
2,note_on,55,0,240
2,note_on,45,0,0
2,note_on,57,38,120
2,note_on,57,0,120
2,note_on,67,43,0
2,note_on,67,0,120
2,note_on,57,38,0
2,note_on,67,47,120
2,note_on,67,0,230
2,note_on,57,0,0
2,note_on,57,30,10
2,note_on,67,39,0
2,note_on,67,0,216
2,note_on,57,0,0
2,note_on,57,66,264
2,note_on,57,0,120
2,note_on,61,61,0
2,note_on,61,0,120
2,note_on,62,66,0
2,note_on,62,0,120
2,note_on,50,77,0
2,note_on,50,0,240
2,note_on,38,59,0
2,note_on,38,0,120
2,note_on,50,65,0
2,note_on,50,0,120
2,note_on,57,73,120
2,note_on,57,0,120
2,note_on,61,65,0
2,note_on,61,0,120
2,note_on,59,65,0
2,note_on,59,0,120
2,note_on,54,71,120
2,note_on,54,0,120
2,note_on,57,65,0
2,note_on,57,0,120
2,note_on,55,65,0
2,note_on,55,0,120
2,note_on,43,74,0
2,note_on,43,0,240
2,note_on,31,65,0
2,note_on,31,0,120
2,note_on,43,65,0
2,note_on,43,0,120
2,note_on,47,58,0
2,note_on,47,0,120
2,note_on,43,61,0
2,note_on,43,0,120
2,note_on,42,64,0
2,note_on,42,0,120
2,note_on,40,68,0
2,note_on,40,0,120
2,note_on,59,66,120
2,note_on,59,0,120
2,note_on,63,61,0
2,note_on,63,0,120
2,note_on,64,66,0
2,note_on,64,0,120
2,note_on,52,77,0
2,note_on,52,0,240
2,note_on,40,59,0
2,note_on,40,0,120
2,note_on,52,65,0
2,note_on,52,0,120
2,note_on,59,70,120
2,note_on,59,0,120
2,note_on,62,63,0
2,note_on,62,0,120
2,note_on,60,65,0
2,note_on,60,0,120
2,note_on,56,71,120
2,note_on,56,0,120
2,note_on,59,63,0
2,note_on,59,0,120
2,note_on,57,65,0
2,note_on,57,0,120
2,note_on,45,74,0
2,note_on,45,0,240
2,note_on,33,65,0
2,note_on,33,0,120
2,note_on,45,65,0
2,note_on,57,73,240
2,note_on,57,0,120
2,note_on,45,0,0
2,note_on,47,56,0
2,note_on,57,56,0
2,note_on,59,63,0
2,note_on,59,0,120
2,note_on,47,0,0
2,note_on,48,55,0
2,note_on,60,65,0
2,note_on,60,0,120
2,note_on,48,0,0
2,note_on,57,0,0
2,note_on,57,58,0
2,note_on,50,63,0
2,note_on,62,71,120
2,note_on,62,0,120
2,note_on,50,0,0
2,note_on,57,0,0
2,note_on,60,63,0
2,note_on,52,63,0
2,note_on,64,65,0
2,note_on,64,0,120
2,note_on,52,0,0
2,note_on,60,0,0
2,note_on,53,55,0
2,note_on,60,55,0
2,note_on,65,65,0
2,note_on,65,0,120
2,note_on,60,0,0
2,note_on,53,0,0
2,note_on,53,62,120
2,note_on,60,62,0
2,note_on,65,74,0
2,note_on,65,0,356
2,note_on,60,0,0
2,note_on,53,0,0
2,note_on,57,71,4
2,note_on,45,60,0
2,note_on,45,0,120
2,note_on,57,0,0
2,note_on,60,74,0
2,note_on,48,62,0
2,note_on,48,0,120
2,note_on,60,0,0
2,note_on,57,70,0
2,note_on,45,59,0
2,note_on,45,0,120
2,note_on,57,0,0
2,note_on,41,62,0
2,note_on,53,74,0
2,note_on,53,0,120
2,note_on,41,0,0
2,note_on,40,58,0
2,note_on,52,68,0
2,note_on,52,0,120
2,note_on,40,0,0
2,note_on,38,60,0
2,note_on,50,71,0
2,note_on,50,0,120
2,note_on,38,0,0
2,note_on,36,58,0
2,note_on,48,68,0
2,note_on,48,0,120
2,note_on,36,0,0
2,note_on,34,55,0
2,note_on,46,65,0
2,note_on,46,0,120
2,note_on,34,0,0
2,note_on,46,62,120
2,note_on,53,62,0
2,note_on,58,74,0
2,note_on,58,0,356
2,note_on,53,0,0
2,note_on,46,0,0
2,note_on,53,71,4
2,note_on,46,60,0
2,note_on,46,0,120
2,note_on,53,0,0
2,note_on,58,82,0
2,note_on,58,0,120
2,note_on,53,59,0
2,note_on,57,70,0
2,note_on,45,59,0
2,note_on,45,0,120
2,note_on,57,0,0
2,note_on,53,0,0
2,note_on,46,62,0
2,note_on,53,62,0
2,note_on,58,74,0
2,note_on,58,0,114
2,note_on,53,0,0
2,note_on,46,0,0
2,note_on,46,60,6
2,note_on,53,71,0
2,note_on,53,0,120
2,note_on,58,71,0
2,note_on,58,0,120
2,note_on,46,0,0
2,note_on,53,60,0
2,note_on,48,60,0
2,note_on,60,71,0
2,note_on,60,0,120
2,note_on,48,0,0
2,note_on,53,0,0
2,note_on,46,55,0
2,note_on,53,55,0
2,note_on,58,65,0
2,note_on,58,0,120
2,note_on,53,0,0
2,note_on,46,0,0
2,note_on,46,62,120
2,note_on,53,62,0
2,note_on,58,74,0
2,note_on,58,0,360
2,note_on,53,0,0
2,note_on,46,0,0
2,note_on,62,71,0
2,note_on,50,60,0
2,note_on,50,0,120
2,note_on,62,0,0
2,note_on,65,74,0
2,note_on,53,62,0
2,note_on,53,0,120
2,note_on,65,0,0
2,note_on,62,70,0
2,note_on,50,59,0
2,note_on,50,0,120
2,note_on,62,0,0
2,note_on,46,62,0
2,note_on,58,74,0
2,note_on,58,0,120
2,note_on,46,0,0
2,note_on,50,58,0
2,note_on,62,68,0
2,note_on,62,0,120
2,note_on,50,0,0
2,note_on,46,60,0
2,note_on,58,71,0
2,note_on,58,0,120
2,note_on,46,0,0
2,note_on,45,60,0
2,note_on,57,71,0
2,note_on,57,0,120
2,note_on,45,0,0
2,note_on,43,63,0
2,note_on,55,74,0
2,note_on,55,0,120
2,note_on,43,0,0
2,note_on,43,71,120
2,note_on,55,85,0
2,note_on,55,0,356
2,note_on,43,0,0
2,note_on,31,64,4
2,note_on,43,74,0
2,note_on,43,0,230
2,note_on,31,0,0
2,note_on,31,64,10
2,note_on,43,77,0
2,note_on,43,0,120
2,note_on,31,0,0
2,note_on,36,63,0
2,note_on,48,74,0
2,note_on,48,0,120
2,note_on,36,0,0
2,note_on,36,71,120
2,note_on,48,85,0
2,note_on,48,0,360
2,note_on,36,0,0
2,note_on,29,64,0
2,note_on,41,74,0
2,note_on,41,0,230
2,note_on,29,0,0
2,note_on,29,64,10
2,note_on,41,77,0
2,note_on,41,0,120
2,note_on,29,0,0
2,note_on,41,55,0
2,note_on,48,55,0
2,note_on,53,65,0
2,note_on,53,0,120
2,note_on,48,0,0
2,note_on,41,0,0
2,note_on,41,62,120
2,note_on,48,62,0
2,note_on,53,74,0
2,note_on,53,0,355
2,note_on,48,0,0
2,note_on,41,0,0
2,note_on,53,38,5
2,note_on,60,45,0
2,note_on,60,0,230
2,note_on,53,0,0
2,note_on,51,43,10
2,note_on,60,51,0
2,note_on,60,0,116
2,note_on,51,0,4
2,note_on,50,38,0
2,note_on,60,45,0
2,note_on,60,0,120
2,note_on,50,0,0
2,note_on,50,43,120
2,note_on,60,51,0
2,note_on,60,0,355
2,note_on,50,0,0
2,note_on,48,38,725
2,note_on,57,38,0
2,note_on,57,0,120
2,note_on,48,0,0
2,note_on,50,33,0
2,note_on,60,39,0
2,note_on,60,0,120
2,note_on,50,0,0
2,note_on,50,36,120
2,note_on,60,42,0
2,note_on,60,0,355
2,note_on,50,0,0
2,note_on,48,38,725
2,note_on,57,38,0
2,note_on,57,0,120
2,note_on,48,0,0
2,note_on,50,33,0
2,note_on,60,39,0
2,note_on,60,0,120
2,note_on,50,0,0
2,note_on,50,36,120
2,note_on,60,42,0
2,note_on,60,0,355
2,note_on,50,0,0
2,note_on,50,37,5
2,note_on,60,44,0
2,note_on,60,0,220
2,note_on,50,0,0
2,note_on,50,33,20
2,note_on,60,39,0
2,note_on,60,0,110
2,note_on,50,0,0
2,note_on,50,37,10
2,note_on,60,44,0
2,note_on,60,0,120
2,note_on,50,0,0
2,note_on,50,33,120
2,note_on,60,39,0
2,note_on,60,0,355
2,note_on,50,0,0
2,note_on,47,37,5
2,note_on,57,44,0
2,note_on,57,0,120
2,note_on,47,0,0
2,note_on,47,33,120
2,note_on,57,39,0
2,note_on,57,0,110
2,note_on,47,0,0
2,note_on,47,37,10
2,note_on,57,44,0
2,note_on,57,0,220
2,note_on,47,0,0
2,note_on,47,33,20
2,note_on,57,39,0
2,note_on,57,0,355
2,note_on,47,0,0
2,note_on,46,40,5
2,note_on,58,48,0
2,note_on,58,0,120
2,note_on,46,0,0
2,note_on,46,33,120
2,note_on,58,39,0
2,note_on,58,0,110
2,note_on,46,0,0
2,note_on,46,37,10
2,note_on,58,44,0
2,note_on,58,0,220
2,note_on,46,0,0
2,note_on,46,33,20
2,note_on,58,39,0
2,note_on,58,0,355
2,note_on,46,0,0
2,note_on,45,34,5
2,note_on,55,40,0
2,note_on,55,0,120
2,note_on,45,0,0
2,note_on,45,28,120
2,note_on,55,33,0
2,note_on,55,0,110
2,note_on,45,0,0
2,note_on,45,31,10
2,note_on,55,37,0
2,note_on,55,0,220
2,note_on,45,0,0
2,note_on,45,28,20
2,note_on,55,33,0
2,note_on,55,0,355
2,note_on,45,0,0
2,note_on,44,31,5
2,note_on,56,37,0
2,note_on,56,0,120
2,note_on,44,0,0
2,note_on,44,28,120
2,note_on,56,33,0
2,note_on,56,0,110
2,note_on,44,0,0
2,note_on,44,31,10
2,note_on,56,37,0
2,note_on,56,0,220
2,note_on,44,0,0
2,note_on,44,28,20
2,note_on,56,33,0
2,note_on,56,0,355
2,note_on,44,0,0
2,note_on,43,26,5
2,note_on,53,31,0
2,note_on,53,0,120
2,note_on,43,0,0
2,note_on,43,23,120
2,note_on,53,28,0
2,note_on,53,0,110
2,note_on,43,0,0
2,note_on,42,26,130
2,note_on,54,31,0
2,note_on,54,0,120
2,note_on,42,0,0
2,note_on,42,23,120
2,note_on,54,28,0
2,note_on,54,0,110
2,note_on,42,0,0
2,note_on,41,22,130
2,note_on,51,26,0
2,note_on,51,0,120
2,note_on,41,0,0
2,note_on,41,19,120
2,note_on,51,23,0
2,note_on,51,0,110
2,note_on,41,0,0
2,note_on,40,22,130
2,note_on,52,26,0
2,note_on,52,0,120
2,note_on,40,0,0
2,note_on,40,19,120
2,note_on,52,23,0
2,note_on,52,0,110
2,note_on,40,0,0
2,note_on,40,51,250
2,note_on,52,60,0
2,note_on,52,0,456
2,note_on,40,0,0
2,note_on,40,34,24
2,note_on,52,41,0
2,note_on,52,0,240
2,note_on,40,0,0
2,note_on,40,25,240
2,note_on,52,30,0
2,note_on,52,0,480
2,note_on,40,0,0
2,note_on,40,22,0
2,note_on,52,26,0
2,note_on,52,0,216
2,note_on,40,0,0
2,note_on,57,39,264
2,note_on,61,39,0
2,note_on,64,46,0
2,note_on,57,0,216
2,note_on,64,0,24
2,note_on,61,0,0
2,note_on,57,42,0
2,note_on,62,42,0
2,note_on,66,50,0
2,note_on,66,0,216
2,note_on,62,0,0
2,note_on,57,0,0
2,note_on,57,28,24
2,note_on,60,28,0
2,note_on,63,34,0
2,note_on,63,0,216
2,note_on,60,0,0
2,note_on,57,0,0
2,note_on,57,37,24
2,note_on,61,37,0
2,note_on,64,44,0
2,note_on,64,0,710
2,note_on,61,0,0
2,note_on,57,0,10
2,note_on,61,42,0
2,note_on,64,42,0
2,note_on,69,55,0
2,note_on,64,0,230
2,note_on,61,0,0
2,note_on,69,0,10
2,note_on,61,42,0
2,note_on,64,42,0
2,note_on,71,57,0
2,note_on,61,0,230
2,note_on,71,0,10
2,note_on,64,0,0
2,note_on,61,47,0
2,note_on,64,47,0
2,note_on,73,61,0
2,note_on,73,0,216
2,note_on,64,0,0
2,note_on,61,0,0
2,note_on,62,38,24
2,note_on,66,45,0
2,note_on,73,58,0
2,note_on,73,0,480
2,note_on,71,44,0
2,note_on,71,0,240
2,note_on,66,0,0
2,note_on,62,0,0
2,note_on,61,40,0
2,note_on,64,40,0
2,note_on,69,56,0
2,note_on,69,0,240
2,note_on,64,0,0
2,note_on,61,0,0
2,note_on,59,40,0
2,note_on,62,40,0
2,note_on,68,51,0
2,note_on,68,0,240
2,note_on,62,0,0
2,note_on,59,0,0
2,note_on,57,37,0
2,note_on,61,37,0
2,note_on,66,48,0
2,note_on,66,0,216
2,note_on,61,0,0
2,note_on,57,0,24
2,note_on,59,42,0
2,note_on,56,42,0
2,note_on,64,50,0
2,note_on,59,0,360
2,note_on,61,42,0
2,note_on,61,0,120
2,note_on,62,42,0
2,note_on,64,0,230
2,note_on,56,0,0
2,note_on,62,0,10
2,note_on,56,42,0
2,note_on,62,42,0
2,note_on,64,50,0
2,note_on,64,0,110
2,note_on,56,0,0
2,note_on,62,0,10
2,note_on,66,40,0
2,note_on,66,0,60
2,note_on,68,40,0
2,note_on,68,0,60
2,note_on,56,42,0
2,note_on,62,42,0
2,note_on,66,50,0
2,note_on,66,0,216
2,note_on,62,0,0
2,note_on,56,0,0
2,note_on,56,35,24
2,note_on,62,35,0
2,note_on,64,42,0
2,note_on,64,0,216
2,note_on,62,0,0
2,note_on,56,0,0
2,note_on,57,42,24
2,note_on,62,42,0
2,note_on,66,50,0
2,note_on,66,0,480
2,note_on,62,0,0
2,note_on,61,37,0
2,note_on,64,44,0
2,note_on,64,0,230
2,note_on,61,0,0
2,note_on,57,0,0
2,note_on,57,48,10
2,note_on,61,57,0
2,note_on,61,0,240
2,note_on,57,0,0
2,note_on,57,52,0
2,note_on,62,52,0
2,note_on,66,62,0
2,note_on,66,0,216
2,note_on,62,0,0
2,note_on,57,0,0
2,note_on,57,37,24
2,note_on,60,37,0
2,note_on,63,45,0
2,note_on,63,0,216
2,note_on,60,0,0
2,note_on,57,0,0
2,note_on,57,43,24
2,note_on,61,43,0
2,note_on,64,53,0
2,note_on,64,0,710
2,note_on,61,0,0
2,note_on,57,0,10
2,note_on,57,53,0
2,note_on,61,62,0
2,note_on,61,0,230
2,note_on,57,0,0
2,note_on,57,62,10
2,note_on,61,62,0
2,note_on,64,70,0
2,note_on,61,0,230
2,note_on,57,0,0
2,note_on,64,0,10
2,note_on,61,56,0
2,note_on,57,56,0
2,note_on,63,56,0
2,note_on,66,67,0
2,note_on,66,0,216
2,note_on,61,0,0
2,note_on,57,0,0
2,note_on,63,0,0
2,note_on,64,60,24
2,note_on,56,60,0
2,note_on,61,60,0
2,note_on,68,71,0
2,note_on,68,0,710
2,note_on,61,0,0
2,note_on,64,0,0
2,note_on,56,0,10
2,note_on,56,32,0
2,note_on,64,32,0
2,note_on,68,44,0
2,note_on,64,0,230
2,note_on,68,0,10
2,note_on,56,0,0
2,note_on,56,32,0
2,note_on,66,32,0
2,note_on,68,40,0
2,note_on,66,0,230
2,note_on,56,0,0
2,note_on,68,0,10
2,note_on,56,29,0
2,note_on,63,29,0
2,note_on,68,38,0
2,note_on,68,0,216
2,note_on,63,0,0
2,note_on,56,0,0
2,note_on,64,33,24
2,note_on,61,33,0
2,note_on,68,44,0
2,note_on,68,0,710
2,note_on,61,0,0
2,note_on,64,0,10
2,note_on,52,33,0
2,note_on,61,33,0
2,note_on,64,40,0
2,note_on,61,0,230
2,note_on,64,0,10
2,note_on,52,0,0
2,note_on,52,33,0
2,note_on,62,33,0
2,note_on,64,40,0
2,note_on,64,0,216
2,note_on,62,0,0
2,note_on,52,0,24
2,note_on,52,28,0
2,note_on,59,28,0
2,note_on,64,33,0
2,note_on,64,0,216
2,note_on,59,0,0
2,note_on,52,0,0
2,note_on,57,33,24
2,note_on,61,33,0
2,note_on,64,40,0
2,note_on,64,0,720
2,note_on,61,0,0
2,note_on,57,0,0
2,note_on,71,52,120
2,note_on,71,0,90
2,note_on,69,48,150
2,note_on,69,0,90
2,note_on,66,52,150
2,note_on,66,0,90
2,note_on,64,54,150
2,note_on,64,0,180
2,note_on,69,47,0
2,note_on,69,0,60
2,note_on,64,44,0
2,note_on,64,0,60
2,note_on,61,44,0
2,note_on,61,0,60
2,note_on,57,52,0
2,note_on,57,0,90
2,note_on,57,52,30
2,note_on,57,0,90
2,note_on,61,48,150
2,note_on,61,0,90
2,note_on,64,52,150
2,note_on,64,0,90
2,note_on,69,54,150
2,note_on,69,0,90
2,note_on,70,58,150
2,note_on,70,0,180
2,note_on,73,47,0
2,note_on,73,0,60
2,note_on,71,48,0
2,note_on,71,0,60
2,note_on,70,48,0
2,note_on,70,0,60
2,note_on,71,52,0
2,note_on,71,0,90
2,note_on,71,51,30
2,note_on,71,0,90
2,note_on,62,39,150
2,note_on,66,46,0
2,note_on,66,0,90
2,note_on,62,0,0
2,note_on,64,35,150
2,note_on,68,42,0
2,note_on,68,0,90
2,note_on,64,0,0
2,note_on,66,39,150
2,note_on,69,46,0
2,note_on,69,0,90
2,note_on,66,0,0
2,note_on,68,39,150
2,note_on,71,46,0
2,note_on,71,0,180
2,note_on,68,0,0
2,note_on,69,35,0
2,note_on,73,41,0
2,note_on,73,0,60
2,note_on,69,0,0
2,note_on,68,35,0
2,note_on,71,41,0
2,note_on,71,0,60
2,note_on,68,0,0
2,note_on,66,35,0
2,note_on,69,41,0
2,note_on,69,0,60
2,note_on,66,0,0
2,note_on,68,38,0
2,note_on,71,45,0
2,note_on,71,0,90
2,note_on,68,0,0
2,note_on,68,39,30
2,note_on,71,46,0
2,note_on,71,0,90
2,note_on,68,0,0
2,note_on,64,52,150
2,note_on,64,0,90
2,note_on,62,54,150
2,note_on,62,0,90
2,note_on,59,59,150
2,note_on,59,0,90
2,note_on,57,62,30
2,note_on,57,0,120
2,note_on,69,71,0
2,note_on,69,0,180
2,note_on,68,46,0
2,note_on,68,0,30
2,note_on,66,45,0
2,note_on,66,0,30
2,note_on,64,44,0
2,note_on,64,0,30
2,note_on,62,43,0
2,note_on,62,0,30
2,note_on,61,42,0
2,note_on,61,0,30
2,note_on,59,40,0
2,note_on,59,0,30
2,note_on,57,47,0
2,note_on,57,0,68
2,note_on,57,52,52
2,note_on,57,0,90
2,note_on,47,53,150
2,note_on,59,63,0
2,note_on,59,0,90
2,note_on,47,0,0
2,note_on,45,60,150
2,note_on,57,71,0
2,note_on,57,0,90
2,note_on,45,0,0
2,note_on,42,62,150
2,note_on,54,66,0
2,note_on,54,0,90
2,note_on,42,0,0
2,note_on,40,60,150
2,note_on,52,71,0
2,note_on,52,0,240
2,note_on,40,0,0
2,note_on,37,51,0
2,note_on,49,60,0
2,note_on,49,0,90
2,note_on,37,0,0
2,note_on,40,56,30
2,note_on,52,66,0
2,note_on,52,0,90
2,note_on,40,0,0
2,note_on,45,51,30
2,note_on,57,60,0
2,note_on,57,0,90
2,note_on,45,0,0
2,note_on,61,60,150
2,note_on,49,51,0
2,note_on,49,0,90
2,note_on,61,0,0
2,note_on,47,56,150
2,note_on,59,66,0
2,note_on,59,0,90
2,note_on,47,0,0
2,note_on,45,57,150
2,note_on,57,68,0
2,note_on,57,0,90
2,note_on,45,0,0
2,note_on,44,61,150
2,note_on,56,72,0
2,note_on,56,0,240
2,note_on,44,0,0
2,note_on,40,49,0
2,note_on,52,58,0
2,note_on,52,0,120
2,note_on,40,0,0
2,note_on,44,51,0
2,note_on,56,61,0
2,note_on,56,0,90
2,note_on,44,0,0
2,note_on,61,57,30
2,note_on,49,48,0
2,note_on,49,0,90
2,note_on,61,0,0
2,note_on,64,61,150
2,note_on,52,51,0
2,note_on,52,0,90
2,note_on,64,0,0
2,note_on,69,56,150
2,note_on,57,47,0
2,note_on,57,0,90
2,note_on,69,0,0
2,note_on,44,51,150
2,note_on,56,61,0
2,note_on,56,0,90
2,note_on,44,0,0
2,note_on,49,59,150
2,note_on,61,70,0
2,note_on,61,0,240
2,note_on,49,0,0
2,note_on,44,50,0
2,note_on,56,59,0
2,note_on,56,0,120
2,note_on,44,0,0
2,note_on,40,53,0
2,note_on,52,63,0
2,note_on,52,0,90
2,note_on,40,0,0
2,note_on,37,51,30
2,note_on,49,60,0
2,note_on,49,0,90
2,note_on,37,0,0
2,note_on,49,39,150
2,note_on,49,0,90
2,note_on,54,44,150
2,note_on,54,0,90
2,note_on,52,41,150
2,note_on,52,0,90
2,note_on,54,51,150
2,note_on,54,0,240
2,note_on,49,39,0
2,note_on,49,0,90
2,note_on,45,44,30
2,note_on,45,0,120
2,note_on,42,39,0
2,note_on,42,0,120
2,note_on,40,50,120
2,note_on,52,59,0
2,note_on,52,0,120
2,note_on,40,0,0
2,note_on,38,52,120
2,note_on,50,62,0
2,note_on,50,0,120
2,note_on,38,0,0
2,note_on,37,56,120
2,note_on,49,67,0
2,note_on,49,0,120
2,note_on,37,0,0
2,note_on,35,56,240
2,note_on,38,56,0
2,note_on,43,56,0
2,note_on,47,67,0
2,note_on,47,0,240
2,note_on,35,0,0
2,note_on,38,0,0
2,note_on,43,0,0
2,note_on,43,45,840
2,note_on,55,53,0
2,note_on,55,0,90
2,note_on,43,0,0
2,note_on,48,45,30
2,note_on,55,53,0
2,note_on,55,0,720
2,note_on,48,0,0
2,note_on,43,33,0
2,note_on,55,39,0
2,note_on,55,0,90
2,note_on,43,0,0
2,note_on,47,28,30
2,note_on,55,33,0
2,note_on,55,0,90
2,note_on,47,0,0
2,note_on,48,33,30
2,note_on,55,39,0
2,note_on,55,0,90
2,note_on,48,0,0
2,note_on,48,27,30
2,note_on,55,32,0
2,note_on,55,0,90
2,note_on,48,0,0
2,note_on,50,33,30
2,note_on,55,39,0
2,note_on,55,0,90
2,note_on,50,0,0
2,note_on,43,28,30
2,note_on,55,33,0
2,note_on,55,0,90
2,note_on,43,0,0
2,note_on,48,33,30
2,note_on,55,39,0
2,note_on,55,0,180
2,note_on,48,0,0
2,note_on,43,33,60
2,note_on,55,39,0
2,note_on,55,0,90
2,note_on,43,0,0
2,note_on,47,28,30
2,note_on,55,33,0
2,note_on,55,0,90
2,note_on,47,0,0
2,note_on,48,33,30
2,note_on,55,39,0
2,note_on,55,0,90
2,note_on,48,0,0
2,note_on,48,27,30
2,note_on,55,32,0
2,note_on,55,0,90
2,note_on,48,0,0
2,note_on,50,33,30
2,note_on,55,39,0
2,note_on,55,0,90
2,note_on,50,0,0
2,note_on,43,28,30
2,note_on,55,33,0
2,note_on,55,0,90
2,note_on,43,0,0
2,note_on,48,33,30
2,note_on,55,39,0
2,note_on,55,0,180
2,note_on,48,0,0
2,note_on,50,33,60
2,note_on,55,39,0
2,note_on,55,0,90
2,note_on,50,0,0
2,note_on,43,28,30
2,note_on,55,33,0
2,note_on,55,0,90
2,note_on,43,0,0
2,note_on,48,33,30
2,note_on,55,39,0
2,note_on,55,0,90
2,note_on,48,0,0
2,note_on,48,27,30
2,note_on,55,32,0
2,note_on,55,0,90
2,note_on,48,0,0
2,note_on,50,33,30
2,note_on,55,39,0
2,note_on,55,0,90
2,note_on,50,0,0
2,note_on,43,28,30
2,note_on,55,33,0
2,note_on,55,0,90
2,note_on,43,0,0
2,note_on,48,33,30
2,note_on,55,39,0
2,note_on,55,0,180
2,note_on,48,0,0
2,note_on,35,53,180
2,note_on,47,63,0
2,note_on,47,0,120
2,note_on,35,0,0
2,note_on,40,56,120
2,note_on,52,66,0
2,note_on,52,0,120
2,note_on,40,0,0
2,note_on,38,47,120
2,note_on,50,67,0
2,note_on,50,0,120
2,note_on,38,0,0
2,note_on,37,56,120
2,note_on,49,66,0
2,note_on,49,0,120
2,note_on,37,0,0
2,note_on,42,56,120
2,note_on,54,67,0
2,note_on,54,0,120
2,note_on,42,0,0
2,note_on,40,64,0
2,note_on,52,76,0
2,note_on,52,0,480
2,note_on,40,0,0
2,note_on,40,52,0
2,note_on,52,62,0
2,note_on,52,0,480
2,note_on,40,0,0
2,note_on,45,41,0
2,note_on,52,49,0
2,note_on,52,0,720
2,note_on,45,0,0
2,note_on,64,45,0
2,note_on,64,0,120
2,note_on,62,40,0
2,note_on,62,0,90
2,note_on,62,45,30
2,note_on,62,0,120
2,note_on,61,39,0
2,note_on,61,0,120
2,note_on,59,45,0
2,note_on,59,0,120
2,note_on,57,41,0
2,note_on,57,0,45
2,note_on,57,38,15
2,note_on,57,0,60
2,note_on,64,47,0
2,note_on,64,0,720
2,note_on,64,45,0
2,note_on,64,0,120
2,note_on,62,40,0
2,note_on,62,0,90
2,note_on,62,45,30
2,note_on,62,0,80
2,note_on,61,39,0
2,note_on,61,0,80
2,note_on,59,39,0
2,note_on,59,0,80
2,note_on,58,45,0
2,note_on,58,0,80
2,note_on,61,39,0
2,note_on,61,0,80
2,note_on,62,39,0
2,note_on,61,38,40
2,note_on,61,0,40
2,note_on,62,0,0
2,note_on,64,45,0
2,note_on,64,0,720
2,note_on,58,52,0
2,note_on,58,0,120
2,note_on,66,48,0
2,note_on,66,0,120
2,note_on,62,52,0
2,note_on,62,0,60
2,note_on,64,49,0
2,note_on,64,0,60
2,note_on,62,50,0
2,note_on,62,0,60
2,note_on,61,51,0
2,note_on,61,0,60
2,note_on,59,53,0
2,note_on,59,0,60
2,note_on,61,55,0
2,note_on,61,0,60
2,note_on,62,57,0
2,note_on,62,0,60
2,note_on,64,60,0
2,note_on,64,0,60
2,note_on,66,66,0
2,note_on,64,45,240
2,note_on,64,0,240
2,note_on,62,38,0
2,note_on,62,0,240
2,note_on,66,0,0
2,note_on,66,38,0
2,note_on,64,32,0
2,note_on,61,32,0
2,note_on,66,0,230
2,note_on,61,0,10
2,note_on,64,0,0
2,note_on,62,38,0
2,note_on,66,45,0
2,note_on,59,38,0
2,note_on,62,0,230
2,note_on,59,0,10
2,note_on,62,37,0
2,note_on,62,0,240
2,note_on,66,0,0
2,note_on,63,42,0
2,note_on,63,0,480
2,note_on,64,39,0
2,note_on,64,0,240
2,note_on,52,51,0
2,note_on,51,46,120
2,note_on,52,0,20
2,note_on,51,0,70
2,note_on,52,51,30
2,note_on,52,0,120
2,note_on,47,44,0
2,note_on,47,0,120
2,note_on,45,47,0
2,note_on,45,0,30
2,note_on,47,47,0
2,note_on,47,0,30
2,note_on,45,51,0
2,note_on,45,0,60
2,note_on,44,47,0
2,note_on,44,0,45
2,note_on,44,43,15
2,note_on,44,0,60
2,note_on,52,54,0
2,note_on,52,0,120
2,note_on,52,56,120
2,note_on,52,0,470
2,note_on,52,51,10
2,note_on,51,46,120
2,note_on,52,0,20
2,note_on,51,0,70
2,note_on,52,51,30
2,note_on,52,0,120
2,note_on,48,44,0
2,note_on,48,0,120
2,note_on,47,47,0
2,note_on,47,0,30
2,note_on,48,47,0
2,note_on,48,0,30
2,note_on,47,51,0
2,note_on,47,0,60
2,note_on,45,47,0
2,note_on,45,0,45
2,note_on,45,43,15
2,note_on,45,0,60
2,note_on,53,54,0
2,note_on,53,0,120
2,note_on,53,56,120
2,note_on,53,0,470
2,note_on,53,56,10
2,note_on,52,51,120
2,note_on,53,0,20
2,note_on,52,0,70
2,note_on,53,58,30
2,note_on,53,0,120
2,note_on,50,51,0
2,note_on,50,0,120
2,note_on,48,55,0
2,note_on,48,0,30
2,note_on,50,55,0
2,note_on,50,0,30
2,note_on,48,61,0
2,note_on,48,0,60
2,note_on,47,56,0
2,note_on,47,0,45
2,note_on,47,52,15
2,note_on,47,0,60
2,note_on,55,66,0
2,note_on,55,0,230
2,note_on,53,34,10
2,note_on,55,40,0
2,note_on,55,0,228
2,note_on,53,0,0
2,note_on,52,34,12
2,note_on,55,40,0
2,note_on,55,0,228
2,note_on,52,0,0
2,note_on,47,38,12
2,note_on,55,45,0
2,note_on,55,0,228
2,note_on,47,0,0
2,note_on,48,43,12
2,note_on,55,51,0
2,note_on,55,0,228
2,note_on,48,0,0
2,note_on,50,34,12
2,note_on,55,41,0
2,note_on,55,0,228
2,note_on,50,0,0
2,note_on,50,34,12
2,note_on,55,40,0
2,note_on,50,0,480
2,note_on,48,35,0
2,note_on,48,0,240
2,note_on,55,0,0
2,note_on,43,45,0
2,note_on,55,53,0
2,note_on,43,0,230
2,note_on,45,48,10
2,note_on,57,57,0
2,note_on,55,0,230
2,note_on,57,0,10
2,note_on,45,0,0
2,note_on,47,50,0
2,note_on,55,50,0
2,note_on,59,60,0
2,note_on,59,0,216
2,note_on,55,0,0
2,note_on,47,0,24
2,note_on,48,56,0
2,note_on,55,56,0
2,note_on,60,66,0
2,note_on,60,0,180
2,note_on,55,0,0
2,note_on,48,0,0
2,note_on,48,52,60
2,note_on,55,52,0
2,note_on,60,61,0
2,note_on,60,0,460
2,note_on,55,0,0
2,note_on,48,0,0
2,note_on,52,32,20
2,note_on,60,32,0
2,note_on,64,38,0
2,note_on,52,0,240
2,note_on,55,35,0
2,note_on,55,0,230
2,note_on,64,0,10
2,note_on,60,0,0
2,note_on,62,34,0
2,note_on,59,28,0
2,note_on,55,28,0
2,note_on,55,0,216
2,note_on,59,0,24
2,note_on,62,0,0
2,note_on,57,39,0
2,note_on,60,49,0
2,note_on,60,0,180
2,note_on,57,0,0
2,note_on,57,27,60
2,note_on,60,34,0
2,note_on,60,0,480
2,note_on,57,0,0
2,note_on,47,27,0
2,note_on,55,32,0
2,note_on,47,0,240
2,note_on,48,23,0
2,note_on,48,0,230
2,note_on,55,0,10
2,note_on,55,28,0
2,note_on,50,23,0
2,note_on,50,0,240
2,note_on,48,28,0
2,note_on,48,0,180
2,note_on,55,0,0
2,note_on,48,21,60
2,note_on,55,27,0
2,note_on,55,0,480
2,note_on,48,0,0
2,note_on,55,38,0
2,note_on,48,38,0
2,note_on,48,0,120
2,note_on,43,34,0
2,note_on,43,0,108
2,note_on,55,0,2
2,note_on,55,38,10
2,note_on,43,40,0
2,note_on,43,0,120
2,note_on,48,35,0
2,note_on,48,0,108
2,note_on,55,0,2
2,note_on,55,38,10
2,note_on,48,40,0
2,note_on,48,0,120
2,note_on,50,34,0
2,note_on,55,0,110
2,note_on,50,0,10
2,note_on,48,34,0
2,note_on,55,40,0
2,note_on,55,0,240
2,note_on,48,0,0
2,note_on,67,41,0
2,note_on,60,41,0
2,note_on,60,0,120
2,note_on,55,37,0
2,note_on,55,0,108
2,note_on,67,0,2
2,note_on,67,41,10
2,note_on,55,44,0
2,note_on,55,0,120
2,note_on,60,38,0
2,note_on,60,0,108
2,note_on,67,0,2
2,note_on,67,41,10
2,note_on,64,44,0
2,note_on,64,0,120
2,note_on,62,37,0
2,note_on,67,0,110
2,note_on,62,0,10
2,note_on,60,37,0
2,note_on,67,44,0
2,note_on,67,0,240
2,note_on,60,0,0
2,note_on,55,34,0
2,note_on,48,34,0
2,note_on,48,0,120
2,note_on,43,31,0
2,note_on,43,0,108
2,note_on,55,0,2
2,note_on,55,34,10
2,note_on,43,37,0
2,note_on,43,0,120
2,note_on,48,32,0
2,note_on,48,0,108
2,note_on,55,0,2
2,note_on,55,34,10
2,note_on,52,37,0
2,note_on,52,0,120
2,note_on,50,31,0
2,note_on,55,0,110
2,note_on,50,0,10
2,note_on,48,31,0
2,note_on,55,37,0
2,note_on,55,0,240
2,note_on,48,0,0
2,note_on,60,31,0
2,note_on,67,37,0
2,note_on,67,0,216
2,note_on,60,0,0
2,note_on,59,32,24
2,note_on,68,38,0
2,note_on,68,0,216
2,note_on,59,0,0
2,note_on,59,35,24
2,note_on,68,42,0
2,note_on,68,0,216
2,note_on,59,0,0
2,note_on,57,34,24
2,note_on,69,40,0
2,note_on,69,0,216
2,note_on,57,0,0
2,note_on,57,28,24
2,note_on,64,28,0
2,note_on,69,34,0
2,note_on,69,0,216
2,note_on,64,0,0
2,note_on,57,0,0
2,note_on,59,28,24
2,note_on,64,28,0
2,note_on,68,33,0
2,note_on,68,0,480
2,note_on,64,0,0
2,note_on,59,0,0
2,note_on,47,28,0
2,note_on,59,33,0
2,note_on,59,0,480
2,note_on,47,0,0
2,note_on,52,28,0
2,note_on,59,34,0
2,note_on,59,0,480
2,note_on,52,0,0
2,note_on,52,31,240
2,note_on,59,31,0
2,note_on,59,0,240
2,note_on,52,0,0
2,note_on,61,36,0
2,note_on,52,36,0
2,note_on,52,0,216
2,note_on,61,0,0
2,note_on,52,33,24
2,note_on,58,33,0
2,note_on,58,0,216
2,note_on,52,0,0
2,note_on,52,28,24
2,note_on,59,34,0
2,note_on,59,0,350
2,note_on,52,0,360
2,note_on,59,31,10
2,note_on,52,31,0
2,note_on,64,31,0
2,note_on,59,0,230
2,note_on,64,0,10
2,note_on,52,0,0
2,note_on,59,36,0
2,note_on,66,36,0
2,note_on,52,36,0
2,note_on,52,0,216
2,note_on,66,0,0
2,note_on,59,0,14
2,note_on,60,33,10
2,note_on,52,33,0
2,note_on,64,33,0
2,note_on,64,0,216
2,note_on,52,0,0
2,note_on,60,0,24
2,note_on,57,37,0
2,note_on,61,37,0
2,note_on,65,44,0
2,note_on,65,0,480
2,note_on,61,0,120
2,note_on,57,0,0
2,note_on,57,31,120
2,note_on,61,31,0
2,note_on,61,0,240
2,note_on,57,0,0
2,note_on,63,36,0
2,note_on,59,36,0
2,note_on,59,0,216
2,note_on,63,0,0
2,note_on,61,33,24
2,note_on,64,33,0
2,note_on,64,0,216
2,note_on,61,0,0
2,note_on,51,28,24
2,note_on,59,34,0
2,note_on,59,0,710
2,note_on,51,0,0
2,note_on,63,31,10
2,note_on,71,31,0
2,note_on,63,0,230
2,note_on,71,0,10
2,note_on,63,36,0
2,note_on,73,36,0
2,note_on,73,0,216
2,note_on,63,0,14
2,note_on,63,33,10
2,note_on,71,33,0
2,note_on,71,0,216
2,note_on,63,0,24
2,note_on,64,37,0
2,note_on,73,44,0
2,note_on,73,0,480
2,note_on,71,44,0
2,note_on,71,0,120
2,note_on,64,0,0
2,note_on,59,55,0
2,note_on,59,0,120
2,note_on,56,57,0
2,note_on,54,60,120
2,note_on,54,0,120
2,note_on,52,51,0
2,note_on,52,0,240
2,note_on,56,0,0
2,note_on,60,61,0
2,note_on,56,51,0
2,note_on,51,51,0
2,note_on,51,0,240
2,note_on,56,0,0
2,note_on,60,0,0
2,note_on,49,58,0
2,note_on,52,58,0
2,note_on,57,58,0
2,note_on,61,70,0
2,note_on,61,0,720
2,note_on,49,0,0
2,note_on,52,0,0
2,note_on,57,0,0
2,note_on,64,54,120
2,note_on,61,45,0
2,note_on,61,0,120
2,note_on,59,60,0
2,note_on,59,0,240
2,note_on,64,0,0
2,note_on,64,58,0
2,note_on,64,0,180
2,note_on,68,69,60
2,note_on,65,58,0
2,note_on,57,58,0
2,note_on,65,0,1440
2,note_on,68,0,0
2,note_on,69,44,0
2,note_on,66,37,0
2,note_on,66,0,240
2,note_on,69,0,0
2,note_on,57,0,0
2,note_on,64,39,1200
2,note_on,57,33,0
2,note_on,64,0,1440
2,note_on,50,30,0
2,note_on,62,36,0
2,note_on,62,0,240
2,note_on,50,0,0
2,note_on,57,0,0
2,note_on,54,45,600
2,note_on,54,0,120
2,note_on,52,60,0
2,note_on,56,60,0
2,note_on,56,0,240
2,note_on,52,0,0
2,note_on,50,49,0
2,note_on,57,58,0
2,note_on,57,0,180
2,note_on,50,0,0
2,note_on,49,55,60
2,note_on,57,65,0
2,note_on,57,0,720
2,note_on,49,0,0
2,note_on,61,45,120
2,note_on,61,0,120
2,note_on,59,60,0
2,note_on,63,60,0
2,note_on,63,0,240
2,note_on,59,0,0
2,note_on,57,49,0
2,note_on,64,58,0
2,note_on,64,0,180
2,note_on,57,0,0
2,note_on,56,65,60
2,note_on,56,0,180
2,note_on,64,67,60
2,note_on,61,67,0
2,note_on,61,0,180
2,note_on,64,0,0
2,note_on,59,61,60
2,note_on,64,72,0
2,note_on,64,0,480
2,note_on,59,0,0
2,note_on,47,38,0
2,note_on,59,45,0
2,note_on,59,0,470
2,note_on,47,0,0
2,note_on,52,31,10
2,note_on,59,37,0
2,note_on,59,0,720
2,note_on,52,0,0
2,note_on,52,66,480
2,note_on,52,0,120
2,note_on,56,61,0
2,note_on,56,0,120
2,note_on,57,66,0
2,note_on,57,0,120
2,note_on,45,77,0
2,note_on,45,0,240
2,note_on,33,59,0
2,note_on,33,0,120
2,note_on,45,65,0
2,note_on,45,0,120
2,note_on,52,73,120
2,note_on,52,0,120
2,note_on,56,63,0
2,note_on,56,0,120
2,note_on,54,65,0
2,note_on,54,0,120
2,note_on,49,71,120
2,note_on,49,0,120
2,note_on,52,62,0
2,note_on,52,0,120
2,note_on,50,65,0
2,note_on,50,0,120
2,note_on,38,74,0
2,note_on,38,0,240
2,note_on,33,65,0
2,note_on,33,0,120
2,note_on,38,65,0
2,note_on,38,0,120
2,note_on,42,58,0
2,note_on,42,0,120
2,note_on,38,61,0
2,note_on,38,0,120
2,note_on,37,64,0
2,note_on,37,0,120
2,note_on,35,68,0
2,note_on,35,0,120
2,note_on,54,66,120
2,note_on,54,0,120
2,note_on,58,61,0
2,note_on,58,0,120
2,note_on,59,66,0
2,note_on,59,0,120
2,note_on,47,77,0
2,note_on,47,0,240
2,note_on,35,59,0
2,note_on,35,0,120
2,note_on,47,65,0
2,note_on,47,0,120
2,note_on,54,73,120
2,note_on,54,0,120
2,note_on,57,63,0
2,note_on,57,0,120
2,note_on,56,65,0
2,note_on,56,0,120
2,note_on,51,71,120
2,note_on,51,0,120
2,note_on,54,65,0
2,note_on,54,0,120
2,note_on,52,65,0
2,note_on,52,0,120
2,note_on,40,74,0
2,note_on,40,0,240
2,note_on,35,65,0
2,note_on,35,0,120
2,note_on,40,65,0
2,note_on,40,73,120
2,note_on,52,73,0
2,note_on,40,0,110
2,note_on,52,0,120
2,note_on,40,0,0
2,note_on,42,56,10
2,note_on,52,56,0
2,note_on,54,63,0
2,note_on,54,0,120
2,note_on,42,0,0
2,note_on,44,55,0
2,note_on,56,65,0
2,note_on,56,0,120
2,note_on,44,0,0
2,note_on,52,0,0
2,note_on,57,71,0
2,note_on,45,63,0
2,note_on,57,0,230
2,note_on,45,0,10
2,note_on,57,63,0
2,note_on,47,63,0
2,note_on,59,65,0
2,note_on,59,0,120
2,note_on,47,0,0
2,note_on,57,0,0
2,note_on,49,55,0
2,note_on,57,55,0
2,note_on,61,65,0
2,note_on,61,0,120
2,note_on,57,0,0
2,note_on,49,0,0
2,note_on,49,62,120
2,note_on,57,62,0
2,note_on,61,74,0
2,note_on,61,0,357
2,note_on,57,0,0
2,note_on,49,0,0
2,note_on,61,71,3
2,note_on,49,60,0
2,note_on,49,0,120
2,note_on,61,0,0
2,note_on,64,74,0
2,note_on,52,62,0
2,note_on,52,0,120
2,note_on,64,0,0
2,note_on,61,70,0
2,note_on,49,59,0
2,note_on,49,0,120
2,note_on,61,0,0
2,note_on,45,62,0
2,note_on,57,74,0
2,note_on,57,0,120
2,note_on,45,0,0
2,note_on,44,58,0
2,note_on,56,68,0
2,note_on,56,0,120
2,note_on,44,0,0
2,note_on,42,60,0
2,note_on,54,71,0
2,note_on,54,0,120
2,note_on,42,0,0
2,note_on,40,60,0
2,note_on,52,71,0
2,note_on,52,0,120
2,note_on,40,0,0
2,note_on,38,55,0
2,note_on,45,55,0
2,note_on,50,65,0
2,note_on,50,0,120
2,note_on,45,0,0
2,note_on,38,0,0
2,note_on,38,62,120
2,note_on,45,62,0
2,note_on,50,74,0
2,note_on,50,0,357
2,note_on,45,0,0
2,note_on,38,0,0
2,note_on,45,71,3
2,note_on,38,60,0
2,note_on,45,0,120
2,note_on,50,82,0
2,note_on,50,0,120
2,note_on,38,0,0
2,note_on,45,59,0
2,note_on,49,70,0
2,note_on,37,59,0
2,note_on,37,0,120
2,note_on,49,0,0
2,note_on,45,0,0
2,note_on,38,62,0
2,note_on,45,62,0
2,note_on,50,74,0
2,note_on,50,0,114
2,note_on,45,0,0
2,note_on,38,0,0
2,note_on,38,60,6
2,note_on,45,71,0
2,note_on,45,0,120
2,note_on,50,68,0
2,note_on,50,0,120
2,note_on,38,0,0
2,note_on,47,60,0
2,note_on,40,60,0
2,note_on,52,71,0
2,note_on,52,0,120
2,note_on,40,0,0
2,note_on,47,0,0
2,note_on,38,60,0
2,note_on,45,60,0
2,note_on,50,71,0
2,note_on,50,0,120
2,note_on,45,0,0
2,note_on,38,0,0
2,note_on,38,62,120
2,note_on,45,62,0
2,note_on,50,74,0
2,note_on,50,0,360
2,note_on,45,0,0
2,note_on,38,0,0
2,note_on,54,71,0
2,note_on,42,60,0
2,note_on,42,0,120
2,note_on,54,0,0
2,note_on,57,74,0
2,note_on,45,62,0
2,note_on,45,0,120
2,note_on,57,0,0
2,note_on,54,70,0
2,note_on,42,59,0
2,note_on,42,0,120
2,note_on,54,0,0
2,note_on,38,60,0
2,note_on,50,71,0
2,note_on,50,0,120
2,note_on,38,0,0
2,note_on,42,60,0
2,note_on,54,71,0
2,note_on,54,0,120
2,note_on,42,0,0
2,note_on,38,58,0
2,note_on,50,68,0
2,note_on,50,0,120
2,note_on,38,0,0
2,note_on,37,60,0
2,note_on,49,71,0
2,note_on,49,0,120
2,note_on,37,0,0
2,note_on,35,55,0
2,note_on,47,65,0
2,note_on,47,0,120
2,note_on,35,0,0
2,note_on,35,62,120
2,note_on,42,62,0
2,note_on,47,74,0
2,note_on,47,0,357
2,note_on,42,0,0
2,note_on,35,0,0
2,note_on,35,60,3
2,note_on,42,60,0
2,note_on,47,71,0
2,note_on,47,0,230
2,note_on,42,0,0
2,note_on,35,0,0
2,note_on,35,62,10
2,note_on,42,62,0
2,note_on,47,74,0
2,note_on,47,0,120
2,note_on,42,0,0
2,note_on,35,0,0
2,note_on,40,55,0
2,note_on,47,55,0
2,note_on,52,65,0
2,note_on,52,0,120
2,note_on,47,0,0
2,note_on,40,0,0
2,note_on,40,62,120
2,note_on,47,62,0
2,note_on,52,74,0
2,note_on,52,0,360
2,note_on,47,0,0
2,note_on,40,0,0
2,note_on,33,60,0
2,note_on,40,60,0
2,note_on,45,71,0
2,note_on,45,0,230
2,note_on,40,0,0
2,note_on,33,0,0
2,note_on,33,55,10
2,note_on,40,55,0
2,note_on,45,66,0
2,note_on,45,0,120
2,note_on,40,0,0
2,note_on,33,0,0
2,note_on,45,55,0
2,note_on,52,65,0
2,note_on,52,0,120
2,note_on,45,0,0
2,note_on,45,62,120
2,note_on,52,74,0
2,note_on,52,0,360
2,note_on,45,0,0
2,note_on,50,32,480
2,note_on,50,0,120
2,note_on,57,35,0
2,note_on,57,0,120
2,note_on,50,32,0
2,note_on,57,36,120
2,note_on,57,0,210
2,note_on,50,0,0
2,note_on,57,37,30
2,note_on,50,31,0
2,note_on,50,0,720
2,note_on,57,0,0
2,note_on,50,32,120
2,note_on,50,0,120
2,note_on,57,35,0
2,note_on,57,0,120
2,note_on,50,32,0
2,note_on,57,36,120
2,note_on,57,0,210
2,note_on,50,0,0
2,note_on,57,38,30
2,note_on,50,31,0
2,note_on,50,0,360
2,note_on,49,32,0
2,note_on,49,0,120
2,note_on,47,35,0
2,note_on,47,0,120
2,note_on,45,39,0
2,note_on,45,0,120
2,note_on,57,0,0
2,note_on,43,36,120
2,note_on,43,0,120
2,note_on,50,40,0
2,note_on,50,0,120
2,note_on,43,36,0
2,note_on,50,41,120
2,note_on,50,0,210
2,note_on,43,0,0
2,note_on,50,42,30
2,note_on,43,35,0
2,note_on,43,0,720
2,note_on,50,0,0
2,note_on,43,36,120
2,note_on,43,0,120
2,note_on,50,40,0
2,note_on,50,0,120
2,note_on,43,36,0
2,note_on,50,41,120
2,note_on,50,0,210
2,note_on,43,0,0
2,note_on,50,42,30
2,note_on,43,35,0
2,note_on,43,0,598
2,note_on,50,0,2
2,note_on,43,31,0
2,note_on,52,39,0
2,note_on,52,0,120
2,note_on,43,0,0
2,note_on,43,36,120
2,note_on,43,0,120
2,note_on,52,40,0
2,note_on,52,0,120
2,note_on,43,36,0
2,note_on,52,41,120
2,note_on,52,0,210
2,note_on,43,0,0
2,note_on,52,42,30
2,note_on,43,35,0
2,note_on,43,0,480
2,note_on,52,0,0
2,note_on,55,35,0
2,note_on,64,42,0
2,note_on,64,0,240
2,note_on,55,0,0
2,note_on,54,36,120
2,note_on,54,0,120
2,note_on,64,40,0
2,note_on,64,0,120
2,note_on,54,36,0
2,note_on,64,41,120
2,note_on,64,0,210
2,note_on,54,0,0
2,note_on,64,42,30
2,note_on,54,35,0
2,note_on,54,0,480
2,note_on,64,0,0
2,note_on,55,35,0
2,note_on,64,42,0
2,note_on,64,0,240
2,note_on,55,0,0
2,note_on,54,36,120
2,note_on,54,0,120
2,note_on,64,40,0
2,note_on,64,0,120
2,note_on,54,36,0
2,note_on,64,41,120
2,note_on,64,0,210
2,note_on,54,0,0
2,note_on,64,42,30
2,note_on,54,35,0
2,note_on,54,0,480
2,note_on,64,0,0
2,note_on,54,35,0
2,note_on,64,42,0
2,note_on,64,0,216
2,note_on,54,0,0
2,note_on,47,36,144
2,note_on,47,0,120
2,note_on,63,39,0
2,note_on,63,0,120
2,note_on,47,35,0
2,note_on,63,39,120
2,note_on,63,0,210
2,note_on,47,0,0
2,note_on,63,39,30
2,note_on,47,33,0
2,note_on,47,0,470
2,note_on,63,0,0
2,note_on,47,32,10
2,note_on,63,38,0
2,note_on,63,0,216
2,note_on,47,0,0
2,note_on,52,32,144
2,note_on,52,0,120
2,note_on,62,35,0
2,note_on,62,0,120
2,note_on,52,31,0
2,note_on,62,35,120
2,note_on,62,0,210
2,note_on,52,0,0
2,note_on,62,36,30
2,note_on,52,30,0
2,note_on,52,0,480
2,note_on,62,0,0
2,note_on,53,28,0
2,note_on,62,34,0
2,note_on,62,0,240
2,note_on,53,0,0
2,note_on,52,28,120
2,note_on,52,0,120
2,note_on,62,32,0
2,note_on,62,0,120
2,note_on,52,28,0
2,note_on,62,32,120
2,note_on,62,0,210
2,note_on,52,0,0
2,note_on,62,33,30
2,note_on,52,28,0
2,note_on,52,0,480
2,note_on,62,0,0
2,note_on,53,28,0
2,note_on,62,33,0
2,note_on,62,0,240
2,note_on,53,0,0
2,note_on,52,28,120
2,note_on,52,0,120
2,note_on,62,31,0
2,note_on,62,0,120
2,note_on,52,28,0
2,note_on,62,31,120
2,note_on,62,0,210
2,note_on,52,0,0
2,note_on,52,31,30
2,note_on,62,35,0
2,note_on,52,0,116
2,note_on,62,0,4
2,note_on,52,66,360
2,note_on,52,0,120
2,note_on,56,61,0
2,note_on,56,0,120
2,note_on,57,66,0
2,note_on,57,0,120
2,note_on,45,77,0
2,note_on,45,0,240
2,note_on,33,59,0
2,note_on,33,0,120
2,note_on,45,65,0
2,note_on,45,0,120
2,note_on,52,73,120
2,note_on,52,0,120
2,note_on,56,63,0
2,note_on,56,0,120
2,note_on,54,65,0
2,note_on,54,0,120
2,note_on,49,71,120
2,note_on,49,0,120
2,note_on,52,65,0
2,note_on,52,0,120
2,note_on,50,65,0
2,note_on,50,0,120
2,note_on,38,74,0
2,note_on,38,0,240
2,note_on,33,65,0
2,note_on,33,0,120
2,note_on,38,65,0
2,note_on,38,0,120
2,note_on,42,58,0
2,note_on,42,0,120
2,note_on,38,61,0
2,note_on,38,0,120
2,note_on,37,64,0
2,note_on,37,0,120
2,note_on,35,68,0
2,note_on,35,0,120
2,note_on,54,66,120
2,note_on,54,0,120
2,note_on,58,61,0
2,note_on,58,0,120
2,note_on,59,66,0
2,note_on,59,0,120
2,note_on,47,77,0
2,note_on,47,0,240
2,note_on,35,59,0
2,note_on,35,0,120
2,note_on,47,65,0
2,note_on,47,0,120
2,note_on,54,73,120
2,note_on,54,0,120
2,note_on,57,63,0
2,note_on,57,0,120
2,note_on,55,65,0
2,note_on,55,0,120
2,note_on,51,71,120
2,note_on,51,0,120
2,note_on,54,65,0
2,note_on,54,0,120
2,note_on,52,65,0
2,note_on,52,0,120
2,note_on,40,74,0
2,note_on,40,0,240
2,note_on,35,65,0
2,note_on,35,0,120
2,note_on,40,65,0
2,note_on,40,73,120
2,note_on,52,73,0
2,note_on,40,0,110
2,note_on,52,0,120
2,note_on,40,0,0
2,note_on,42,60,10
2,note_on,52,58,0
2,note_on,54,64,0
2,note_on,52,0,118
2,note_on,54,0,2
2,note_on,42,0,0
2,note_on,52,60,0
2,note_on,43,58,0
2,note_on,55,68,0
2,note_on,55,0,120
2,note_on,43,0,0
2,note_on,52,0,0
2,note_on,52,65,0
2,note_on,57,73,0
2,note_on,45,65,0
2,note_on,57,0,230
2,note_on,45,0,10
2,note_on,52,0,0
2,note_on,55,70,0
2,note_on,47,70,0
2,note_on,59,72,0
2,note_on,59,0,120
2,note_on,47,0,0
2,note_on,55,0,0
2,note_on,48,63,0
2,note_on,55,63,0
2,note_on,60,74,0
2,note_on,60,0,120
2,note_on,55,0,0
2,note_on,48,0,0
2,note_on,48,71,120
2,note_on,55,71,0
2,note_on,60,85,0
2,note_on,60,0,356
2,note_on,55,0,0
2,note_on,48,0,0
2,note_on,64,81,4
2,note_on,52,69,0
2,note_on,52,0,120
2,note_on,64,0,0
2,note_on,67,85,0
2,note_on,55,71,0
2,note_on,55,0,120
2,note_on,67,0,0
2,note_on,64,80,0
2,note_on,52,67,0
2,note_on,52,0,120
2,note_on,64,0,0
2,note_on,48,71,0
2,note_on,60,85,0
2,note_on,60,0,120
2,note_on,48,0,0
2,note_on,47,66,0
2,note_on,59,78,0
2,note_on,59,0,120
2,note_on,47,0,0
2,note_on,45,69,0
2,note_on,57,81,0
2,note_on,57,0,120
2,note_on,45,0,0
2,note_on,43,69,0
2,note_on,55,81,0
2,note_on,55,0,120
2,note_on,43,0,0
2,note_on,41,63,0
2,note_on,48,63,0
2,note_on,53,74,0
2,note_on,53,0,120
2,note_on,48,0,0
2,note_on,41,0,0
2,note_on,41,67,120
2,note_on,48,67,0
2,note_on,53,80,0
2,note_on,53,0,356
2,note_on,48,0,0
2,note_on,41,0,0
2,note_on,48,76,4
2,note_on,41,55,0
2,note_on,48,0,120
2,note_on,53,81,0
2,note_on,53,0,120
2,note_on,41,0,0
2,note_on,48,63,0
2,note_on,55,76,0
2,note_on,43,63,0
2,note_on,43,0,110
2,note_on,48,0,0
2,note_on,55,0,10
2,note_on,41,67,0
2,note_on,48,67,0
2,note_on,53,80,0
2,note_on,53,0,114
2,note_on,48,0,0
2,note_on,41,0,0
2,note_on,41,65,6
2,note_on,48,76,0
2,note_on,48,0,120
2,note_on,53,76,0
2,note_on,53,0,120
2,note_on,41,0,0
2,note_on,39,69,0
2,note_on,51,81,0
2,note_on,51,0,120
2,note_on,39,0,0
2,note_on,38,63,0
2,note_on,50,74,0
2,note_on,50,0,120
2,note_on,38,0,0
2,note_on,38,71,120
2,note_on,50,85,0
2,note_on,50,0,360
2,note_on,38,0,0
2,note_on,66,81,0
2,note_on,54,69,0
2,note_on,54,0,120
2,note_on,66,0,0
2,note_on,69,85,0
2,note_on,57,71,0
2,note_on,57,0,120
2,note_on,69,0,0
2,note_on,66,80,0
2,note_on,54,67,0
2,note_on,54,0,120
2,note_on,66,0,0
2,note_on,50,71,0
2,note_on,62,85,0
2,note_on,62,0,120
2,note_on,50,0,0
2,note_on,49,66,0
2,note_on,61,78,0
2,note_on,61,0,120
2,note_on,49,0,0
2,note_on,47,69,0
2,note_on,59,81,0
2,note_on,59,0,120
2,note_on,47,0,0
2,note_on,45,66,0
2,note_on,57,78,0
2,note_on,57,0,120
2,note_on,45,0,0
2,note_on,50,63,0
2,note_on,43,63,0
2,note_on,55,74,0
2,note_on,55,0,120
2,note_on,43,0,0
2,note_on,50,0,0
2,note_on,43,71,120
2,note_on,50,71,0
2,note_on,55,85,0
2,note_on,55,0,356
2,note_on,43,0,0
2,note_on,50,0,1
2,note_on,43,53,3
2,note_on,50,53,0
2,note_on,55,74,0
2,note_on,55,0,230
2,note_on,50,0,0
2,note_on,43,0,0
2,note_on,45,68,10
2,note_on,50,68,0
2,note_on,57,80,0
2,note_on,57,0,120
2,note_on,50,0,0
2,note_on,45,0,0
2,note_on,43,60,0
2,note_on,50,60,0
2,note_on,55,85,0
2,note_on,55,0,114
2,note_on,50,0,0
2,note_on,43,0,0
2,note_on,50,58,6
2,note_on,43,58,0
2,note_on,55,81,0
2,note_on,55,0,240
2,note_on,43,0,0
2,note_on,50,0,0
2,note_on,41,69,0
2,note_on,53,81,0
2,note_on,53,0,120
2,note_on,41,0,0
2,note_on,40,63,0
2,note_on,52,74,0
2,note_on,52,0,120
2,note_on,40,0,0
2,note_on,40,71,120
2,note_on,52,85,0
2,note_on,52,0,360
2,note_on,40,0,0
2,note_on,64,81,0
2,note_on,56,69,0
2,note_on,56,0,120
2,note_on,64,0,0
2,note_on,71,85,0
2,note_on,59,71,0
2,note_on,59,0,120
2,note_on,71,0,0
2,note_on,68,80,0
2,note_on,56,67,0
2,note_on,56,0,120
2,note_on,68,0,0
2,note_on,52,71,0
2,note_on,64,85,0
2,note_on,64,0,120
2,note_on,52,0,0
2,note_on,50,69,0
2,note_on,62,81,0
2,note_on,62,0,120
2,note_on,50,0,0
2,note_on,48,69,0
2,note_on,60,81,0
2,note_on,60,0,120
2,note_on,48,0,0
2,note_on,47,66,0
2,note_on,59,78,0
2,note_on,59,0,120
2,note_on,47,0,0
2,note_on,52,63,0
2,note_on,45,63,0
2,note_on,57,74,0
2,note_on,57,0,120
2,note_on,45,0,0
2,note_on,52,0,0
2,note_on,45,69,120
2,note_on,52,69,0
2,note_on,57,81,0
2,note_on,57,0,356
2,note_on,45,0,0
2,note_on,52,0,1
2,note_on,52,60,3
2,note_on,45,60,0
2,note_on,57,85,0
2,note_on,57,0,230
2,note_on,45,0,0
2,note_on,52,0,0
2,note_on,52,65,10
2,note_on,45,65,0
2,note_on,57,76,0
2,note_on,57,0,120
2,note_on,45,0,0
2,note_on,52,0,0
2,note_on,52,71,0
2,note_on,45,71,0
2,note_on,57,83,0
2,note_on,57,0,120
2,note_on,45,0,0
2,note_on,52,0,0
2,note_on,52,74,120
2,note_on,45,74,0
2,note_on,57,88,0
2,note_on,57,0,360
2,note_on,45,0,0
2,note_on,52,0,0
2,note_on,52,62,0
2,note_on,45,62,0
2,note_on,57,88,0
2,note_on,57,0,230
2,note_on,45,0,0
2,note_on,52,0,0
2,note_on,52,70,10
2,note_on,45,70,0
2,note_on,57,84,0
2,note_on,57,0,120
2,note_on,45,0,0
2,note_on,52,0,0
2,note_on,43,71,0
2,note_on,50,71,0
2,note_on,55,86,0
2,note_on,55,0,120
2,note_on,50,0,0
2,note_on,43,0,0
2,note_on,43,85,120
2,note_on,50,85,0
2,note_on,55,99,0
2,note_on,55,0,355
2,note_on,50,0,0
2,note_on,43,0,0
2,note_on,50,84,5
2,note_on,43,84,0
2,note_on,55,99,0
2,note_on,55,0,120
2,note_on,43,0,0
2,note_on,50,0,0
2,note_on,50,81,120
2,note_on,43,81,0
2,note_on,55,96,0
2,note_on,55,0,116
2,note_on,43,0,4
2,note_on,50,0,0
2,note_on,50,68,0
2,note_on,43,68,0
2,note_on,55,79,0
2,note_on,55,0,120
2,note_on,43,0,0
2,note_on,50,0,0
2,note_on,43,75,120
2,note_on,50,75,0
2,note_on,55,88,0
2,note_on,55,0,356
2,note_on,43,0,0
2,note_on,50,0,1
2,note_on,50,66,3
2,note_on,43,66,0
2,note_on,55,93,0
2,note_on,55,0,230
2,note_on,43,0,0
2,note_on,50,0,0
2,note_on,50,70,10
2,note_on,43,70,0
2,note_on,55,82,0
2,note_on,55,0,120
2,note_on,43,0,0
2,note_on,50,0,0
2,note_on,43,74,0
2,note_on,36,74,0
2,note_on,48,88,0
2,note_on,48,0,120
2,note_on,36,0,0
2,note_on,43,0,0
2,note_on,43,83,120
2,note_on,36,83,0
2,note_on,48,100,0
2,note_on,48,0,360
2,note_on,36,0,0
2,note_on,43,0,0
2,note_on,43,67,0
2,note_on,36,67,0
2,note_on,48,95,0
2,note_on,48,0,230
2,note_on,36,0,0
2,note_on,43,0,0
2,note_on,43,75,10
2,note_on,36,75,0
2,note_on,48,90,0
2,note_on,48,0,120
2,note_on,36,0,0
2,note_on,43,0,0
2,note_on,36,80,0
2,note_on,43,80,0
2,note_on,48,96,0
2,note_on,48,0,120
2,note_on,43,0,0
2,note_on,36,0,0
2,note_on,36,87,120
2,note_on,43,87,0
2,note_on,48,102,0
2,note_on,48,0,355
2,note_on,43,0,0
2,note_on,36,0,0
2,note_on,55,48,5
2,note_on,48,48,0
2,note_on,60,57,0
2,note_on,60,0,120
2,note_on,48,0,0
2,note_on,55,0,0
2,note_on,55,45,120
2,note_on,48,45,0
2,note_on,60,54,0
2,note_on,60,0,105
2,note_on,48,0,3
2,note_on,55,0,0
2,note_on,55,36,12
2,note_on,48,36,0
2,note_on,60,42,0
2,note_on,60,0,120
2,note_on,48,0,0
2,note_on,55,0,0
2,note_on,48,39,120
2,note_on,55,39,0
2,note_on,60,45,0
2,note_on,60,0,356
2,note_on,55,0,0
2,note_on,48,0,0
2,note_on,55,33,4
2,note_on,48,33,0
2,note_on,60,46,0
2,note_on,60,0,230
2,note_on,48,0,0
2,note_on,55,0,0
2,note_on,55,34,10
2,note_on,48,34,0
2,note_on,60,40,0
2,note_on,60,0,108
2,note_on,48,0,0
2,note_on,55,0,0
2,note_on,59,37,12
2,note_on,50,37,0
2,note_on,62,44,0
2,note_on,62,0,120
2,note_on,50,0,0
2,note_on,59,0,0
2,note_on,59,37,120
2,note_on,50,37,0
2,note_on,62,45,0
2,note_on,62,0,357
2,note_on,50,0,0
2,note_on,59,0,0
2,note_on,59,30,3
2,note_on,50,30,0
2,note_on,62,42,0
2,note_on,62,0,230
2,note_on,50,0,0
2,note_on,59,0,0
2,note_on,59,31,10
2,note_on,50,31,0
2,note_on,62,36,0
2,note_on,62,0,120
2,note_on,50,0,0
2,note_on,59,0,0
2,note_on,57,34,0
2,note_on,52,34,0
2,note_on,60,39,0
2,note_on,60,0,120
2,note_on,52,0,0
2,note_on,57,0,0
2,note_on,57,33,120
2,note_on,52,33,0
2,note_on,60,41,0
2,note_on,60,0,357
2,note_on,52,0,0
2,note_on,57,0,0
2,note_on,57,26,3
2,note_on,52,26,0
2,note_on,60,37,0
2,note_on,60,0,230
2,note_on,52,0,0
2,note_on,57,0,0
2,note_on,57,28,10
2,note_on,52,28,0
2,note_on,60,32,0
2,note_on,60,0,120
2,note_on,52,0,0
2,note_on,57,0,0
2,note_on,52,30,0
2,note_on,62,35,0
2,note_on,62,0,120
2,note_on,52,0,0
2,note_on,52,30,120
2,note_on,62,36,0
2,note_on,62,0,360
2,note_on,52,0,0
2,note_on,57,34,120
2,note_on,57,0,216
2,note_on,57,40,24
2,note_on,57,0,216
2,note_on,57,29,24
2,note_on,57,0,216
2,note_on,57,37,24
2,note_on,45,31,120
2,note_on,52,31,0
2,note_on,52,0,230
2,note_on,45,0,0
2,note_on,45,31,10
2,note_on,52,31,0
2,note_on,52,0,120
2,note_on,45,0,0
2,note_on,45,31,0
2,note_on,52,31,0
2,note_on,52,0,230
2,note_on,45,0,0
2,note_on,57,0,0
2,note_on,45,34,10
2,note_on,52,34,0
2,note_on,57,41,0
2,note_on,57,0,240
2,note_on,52,0,0
2,note_on,45,0,0
2,note_on,57,43,0
2,note_on,57,0,240
2,note_on,57,45,0
2,note_on,57,0,216
2,note_on,62,38,24
2,note_on,50,29,120
2,note_on,58,35,0
2,note_on,58,0,240
2,note_on,50,0,0
2,note_on,50,31,0
2,note_on,58,31,0
2,note_on,58,0,120
2,note_on,50,0,0
2,note_on,50,32,0
2,note_on,59,38,0
2,note_on,59,0,240
2,note_on,50,0,0
2,note_on,62,0,0
2,note_on,50,28,0
2,note_on,59,34,0
2,note_on,62,40,0
2,note_on,62,0,240
2,note_on,59,0,0
2,note_on,50,0,0
2,note_on,59,34,0
2,note_on,59,0,240
2,note_on,57,34,0
2,note_on,57,0,216
2,note_on,56,37,24
2,note_on,47,35,120
2,note_on,52,35,0
2,note_on,52,0,240
2,note_on,47,0,0
2,note_on,47,31,0
2,note_on,52,31,0
2,note_on,52,0,120
2,note_on,47,0,0
2,note_on,47,35,0
2,note_on,52,35,0
2,note_on,56,0,230
2,note_on,52,0,10
2,note_on,47,0,0
2,note_on,52,35,0
2,note_on,47,34,0
2,note_on,56,40,0
2,note_on,56,0,240
2,note_on,47,0,0
2,note_on,52,0,0
2,note_on,56,37,0
2,note_on,56,0,216
2,note_on,56,35,24
2,note_on,56,0,216
2,note_on,57,40,24
2,note_on,45,29,120
2,note_on,50,29,0
2,note_on,54,35,0
2,note_on,54,0,240
2,note_on,50,0,0
2,note_on,45,0,0
2,note_on,45,26,0
2,note_on,50,26,0
2,note_on,54,31,0
2,note_on,45,0,110
2,note_on,54,0,10
2,note_on,50,0,0
2,note_on,45,29,0
2,note_on,49,35,0
2,note_on,52,36,0
2,note_on,57,0,24
2,note_on,52,0,206
2,note_on,49,0,10
2,note_on,45,0,0
2,note_on,45,48,0
2,note_on,57,57,0
2,note_on,57,0,240
2,note_on,45,0,0
2,note_on,38,47,0
2,note_on,50,67,0
2,note_on,50,0,216
2,note_on,38,0,0
2,note_on,42,48,24
2,note_on,54,57,0
2,note_on,54,0,216
2,note_on,42,0,0
2,note_on,45,60,24
2,note_on,57,60,0
2,note_on,57,0,110
2,note_on,45,0,0
2,note_on,33,46,10
2,note_on,40,46,0
2,note_on,45,55,0
2,note_on,45,0,240
2,note_on,40,0,0
2,note_on,33,0,0
2,note_on,33,39,0
2,note_on,40,39,0
2,note_on,45,47,0
2,note_on,45,0,120
2,note_on,40,0,0
2,note_on,33,0,0
2,note_on,33,46,0
2,note_on,40,46,0
2,note_on,45,55,0
2,note_on,45,0,240
2,note_on,40,0,0
2,note_on,33,0,0
2,note_on,33,43,0
2,note_on,40,43,0
2,note_on,45,51,0
2,note_on,45,0,120
2,note_on,40,0,0
2,note_on,33,0,0
2,note_on,49,41,0
2,note_on,61,49,0
2,note_on,61,0,120
2,note_on,49,0,0
2,note_on,47,55,0
2,note_on,59,65,0
2,note_on,59,0,240
2,note_on,47,0,0
2,note_on,45,45,0
2,note_on,57,64,0
2,note_on,57,0,216
2,note_on,45,0,0
2,note_on,44,51,24
2,note_on,56,60,0
2,note_on,56,0,110
2,note_on,44,0,0
2,note_on,32,46,10
2,note_on,37,46,0
2,note_on,44,55,0
2,note_on,44,0,240
2,note_on,37,0,0
2,note_on,32,0,0
2,note_on,32,39,0
2,note_on,37,39,0
2,note_on,44,47,0
2,note_on,44,0,120
2,note_on,37,0,0
2,note_on,32,0,0
2,note_on,32,46,0
2,note_on,37,46,0
2,note_on,44,55,0
2,note_on,44,0,240
2,note_on,37,0,0
2,note_on,32,0,0
2,note_on,32,43,0
2,note_on,37,43,0
2,note_on,44,51,0
2,note_on,44,0,120
2,note_on,37,0,0
2,note_on,32,0,0
2,note_on,56,46,0
2,note_on,61,55,0
2,note_on,61,0,120
2,note_on,56,0,0
2,note_on,56,55,0
2,note_on,60,65,0
2,note_on,60,0,240
2,note_on,56,0,0
2,note_on,56,45,0
2,note_on,63,64,0
2,note_on,63,0,216
2,note_on,56,0,0
2,note_on,56,45,24
2,note_on,49,45,0
2,note_on,61,54,0
2,note_on,61,0,110
2,note_on,49,0,0
2,note_on,56,0,0
2,note_on,37,41,10
2,note_on,40,41,0
2,note_on,44,41,0
2,note_on,49,49,0
2,note_on,49,0,240
2,note_on,37,0,0
2,note_on,40,0,0
2,note_on,44,0,0
2,note_on,37,35,0
2,note_on,40,35,0
2,note_on,44,35,0
2,note_on,49,42,0
2,note_on,49,0,120
2,note_on,37,0,0
2,note_on,40,0,0
2,note_on,44,0,0
2,note_on,37,41,0
2,note_on,40,41,0
2,note_on,44,41,0
2,note_on,49,49,0
2,note_on,49,0,240
2,note_on,37,0,0
2,note_on,40,0,0
2,note_on,44,0,0
2,note_on,37,38,0
2,note_on,40,38,0
2,note_on,44,38,0
2,note_on,49,45,0
2,note_on,49,0,120
2,note_on,37,0,0
2,note_on,40,0,0
2,note_on,44,0,0
2,note_on,52,38,0
2,note_on,57,38,0
2,note_on,57,0,120
2,note_on,52,0,0
2,note_on,52,45,0
2,note_on,56,38,0
2,note_on,56,0,240
2,note_on,52,0,0
2,note_on,52,37,0
2,note_on,59,44,0
2,note_on,59,0,216
2,note_on,52,0,0
2,note_on,54,35,24
2,note_on,57,42,0
2,note_on,57,0,110
2,note_on,54,0,0
2,note_on,42,32,10
2,note_on,49,32,0
2,note_on,54,38,0
2,note_on,54,0,240
2,note_on,49,0,0
2,note_on,42,0,0
2,note_on,42,27,0
2,note_on,49,27,0
2,note_on,54,32,0
2,note_on,54,0,120
2,note_on,49,0,0
2,note_on,42,0,0
2,note_on,42,32,0
2,note_on,49,32,0
2,note_on,54,38,0
2,note_on,54,0,240
2,note_on,49,0,0
2,note_on,42,0,0
2,note_on,42,29,0
2,note_on,49,29,0
2,note_on,54,35,0
2,note_on,54,0,120
2,note_on,49,0,0
2,note_on,42,0,0
2,note_on,40,46,0
2,note_on,52,55,0
2,note_on,52,0,120
2,note_on,40,0,0
2,note_on,38,56,0
2,note_on,50,66,0
2,note_on,50,0,240
2,note_on,38,0,0
2,note_on,37,49,0
2,note_on,49,69,0
2,note_on,49,0,216
2,note_on,37,0,0
2,note_on,35,61,24
2,note_on,47,72,0
2,note_on,47,0,110
2,note_on,35,0,0
2,note_on,35,56,10
2,note_on,43,56,0
2,note_on,38,56,0
2,note_on,47,66,0
2,note_on,47,0,240
2,note_on,35,0,0
2,note_on,43,0,0
2,note_on,38,0,0
2,note_on,43,47,0
2,note_on,38,47,0
2,note_on,35,47,0
2,note_on,47,56,0
2,note_on,47,0,120
2,note_on,43,0,0
2,note_on,38,0,0
2,note_on,35,0,0
2,note_on,43,56,0
2,note_on,38,56,0
2,note_on,35,56,0
2,note_on,47,66,0
2,note_on,47,0,240
2,note_on,43,0,0
2,note_on,38,0,0
2,note_on,35,0,0
2,note_on,43,51,0
2,note_on,35,51,0
2,note_on,38,51,0
2,note_on,47,61,0
2,note_on,47,0,350
2,note_on,43,0,0
2,note_on,35,0,0
2,note_on,38,0,0
2,note_on,48,30,10
2,note_on,54,30,0
2,note_on,50,30,0
2,note_on,57,36,0
2,note_on,57,0,240
2,note_on,48,0,0
2,note_on,54,0,0
2,note_on,50,0,0
2,note_on,54,25,0
2,note_on,50,25,0
2,note_on,48,25,0
2,note_on,57,30,0
2,note_on,57,0,120
2,note_on,54,0,0
2,note_on,50,0,0
2,note_on,48,0,0
2,note_on,54,30,0
2,note_on,50,30,0
2,note_on,48,30,0
2,note_on,57,36,0
2,note_on,57,0,240
2,note_on,54,0,0
2,note_on,50,0,0
2,note_on,48,0,0
2,note_on,54,28,0
2,note_on,48,28,0
2,note_on,50,28,0
2,note_on,57,33,0
2,note_on,57,0,350
2,note_on,54,0,0
2,note_on,48,0,0
2,note_on,50,0,0
2,note_on,35,56,10
2,note_on,43,56,0
2,note_on,38,56,0
2,note_on,47,66,0
2,note_on,47,0,240
2,note_on,35,0,0
2,note_on,43,0,0
2,note_on,38,0,0
2,note_on,43,47,0
2,note_on,38,47,0
2,note_on,35,47,0
2,note_on,47,56,0
2,note_on,47,0,120
2,note_on,43,0,0
2,note_on,38,0,0
2,note_on,35,0,0
2,note_on,43,56,0
2,note_on,38,56,0
2,note_on,35,56,0
2,note_on,47,66,0
2,note_on,47,0,240
2,note_on,43,0,0
2,note_on,38,0,0
2,note_on,35,0,0
2,note_on,43,51,0
2,note_on,35,51,0
2,note_on,38,51,0
2,note_on,47,61,0
2,note_on,47,0,350
2,note_on,43,0,0
2,note_on,35,0,0
2,note_on,38,0,0
2,note_on,48,30,10
2,note_on,54,30,0
2,note_on,50,30,0
2,note_on,57,36,0
2,note_on,57,0,240
2,note_on,48,0,0
2,note_on,54,0,0
2,note_on,50,0,0
2,note_on,54,25,0
2,note_on,50,25,0
2,note_on,48,25,0
2,note_on,57,30,0
2,note_on,57,0,120
2,note_on,54,0,0
2,note_on,50,0,0
2,note_on,48,0,0
2,note_on,54,30,0
2,note_on,50,30,0
2,note_on,48,30,0
2,note_on,57,36,0
2,note_on,57,0,240
2,note_on,54,0,0
2,note_on,50,0,0
2,note_on,48,0,0
2,note_on,54,28,0
2,note_on,48,28,0
2,note_on,50,28,0
2,note_on,57,33,0
2,note_on,57,0,350
2,note_on,54,0,0
2,note_on,48,0,0
2,note_on,50,0,0
2,note_on,35,47,10
2,note_on,43,47,0
2,note_on,38,47,0
2,note_on,47,66,0
2,note_on,47,0,228
2,note_on,35,0,0
2,note_on,43,0,0
2,note_on,38,0,0
2,note_on,43,39,12
2,note_on,38,39,0
2,note_on,35,39,0
2,note_on,47,56,0
2,note_on,47,0,114
2,note_on,43,0,0
2,note_on,38,0,0
2,note_on,35,0,0
2,note_on,35,56,6
2,note_on,38,56,0
2,note_on,43,56,0
2,note_on,47,66,0
2,note_on,47,0,120
2,note_on,35,0,0
2,note_on,38,0,0
2,note_on,43,0,0
2,note_on,35,56,120
2,note_on,47,66,0
2,note_on,47,0,120
2,note_on,35,0,0
2,note_on,35,54,120
2,note_on,47,64,0
2,note_on,47,0,120
2,note_on,35,0,0
2,note_on,35,52,120
2,note_on,47,62,0
2,note_on,47,0,120
2,note_on,35,0,0
2,note_on,35,51,120
2,note_on,47,60,0
2,note_on,47,0,120
2,note_on,35,0,0
2,note_on,35,49,120
2,note_on,47,58,0
2,note_on,47,0,120
2,note_on,35,0,0
2,note_on,35,60,120
2,note_on,47,71,0
2,note_on,47,0,1440
2,note_on,35,0,0
2,note_on,35,56,0
2,note_on,47,66,0
2,note_on,47,0,1440
2,note_on,35,0,0
2,note_on,47,33,0
2,note_on,50,33,0
2,note_on,52,39,0
2,note_on,52,0,1440
2,note_on,50,0,0
2,note_on,47,0,0
2,note_on,47,33,0
2,note_on,50,33,0
2,note_on,52,39,0
2,note_on,52,0,1440
2,note_on,50,0,0
2,note_on,47,0,0
2,note_on,49,36,0
2,note_on,52,36,0
2,note_on,57,43,0
2,note_on,57,0,240
2,note_on,52,0,0
2,note_on,49,0,0
2,note_on,57,30,0
2,note_on,59,36,0
2,note_on,54,30,0
2,note_on,54,0,240
2,note_on,59,0,0
2,note_on,57,0,0
2,note_on,61,43,0
2,note_on,52,36,0
2,note_on,57,36,0
2,note_on,57,0,480
2,note_on,52,0,0
2,note_on,61,0,0
2,note_on,40,34,0
2,note_on,52,41,0
2,note_on,52,0,480
2,note_on,40,0,0
2,note_on,45,28,0
2,note_on,52,33,0
2,note_on,52,0,120
2,note_on,45,0,0
2,note_on,45,36,600
2,note_on,45,0,216
2,note_on,47,44,24
2,note_on,47,0,216
2,note_on,44,40,24
2,note_on,44,0,216
2,note_on,45,48,24
2,note_on,45,0,720
2,note_on,55,39,0
2,note_on,55,0,216
2,note_on,52,48,24
2,note_on,52,0,216
2,note_on,49,44,24
2,note_on,49,0,216
2,note_on,45,48,24
2,note_on,45,0,720
2,note_on,45,36,0
2,note_on,45,0,216
2,note_on,47,44,24
2,note_on,47,0,216
2,note_on,44,40,24
2,note_on,44,0,216
2,note_on,45,44,24
2,note_on,45,0,720
2,note_on,53,39,0
2,note_on,53,0,216
2,note_on,50,45,24
2,note_on,50,0,360
2,note_on,47,37,0
2,note_on,47,0,120
2,note_on,45,42,0
2,note_on,45,0,720
2,note_on,33,31,0
2,note_on,33,0,216
2,note_on,35,37,24
2,note_on,35,0,216
2,note_on,32,34,24
2,note_on,32,0,216
2,note_on,33,37,24
2,note_on,33,0,720
2,note_on,37,36,0
2,note_on,37,0,180
2,note_on,40,28,0
2,note_on,40,0,60
2,note_on,43,40,0
2,note_on,43,0,216
2,note_on,46,32,24
2,note_on,46,0,216
2,note_on,33,35,24
2,note_on,33,0,720
2,note_on,33,28,0
2,note_on,33,0,216
2,note_on,35,33,24
2,note_on,35,0,216
2,note_on,32,30,24
2,note_on,32,0,216
2,note_on,33,33,24
2,note_on,33,0,720
2,note_on,41,32,0
2,note_on,41,0,180
2,note_on,40,27,0
2,note_on,38,31,46
2,note_on,40,0,14
2,note_on,38,0,16
2,note_on,40,24,0
2,note_on,40,0,30
2,note_on,38,31,0
2,note_on,38,0,30
2,note_on,40,25,0
2,note_on,40,0,30
2,note_on,38,31,0
2,note_on,38,0,40
2,note_on,40,26,0
2,note_on,40,0,4
2,note_on,38,31,36
2,note_on,38,0,40
2,note_on,37,25,14
2,note_on,37,0,180
2,note_on,35,23,0
2,note_on,35,0,60
2,note_on,33,33,0
2,note_on,33,0,480
2,note_on,37,31,0
2,note_on,37,0,480
2,note_on,40,29,0
2,note_on,40,0,480
2,note_on,33,18,0
2,note_on,37,18,0
2,note_on,40,18,0
2,note_on,45,21,0
2,note_on,45,0,1440
2,note_on,33,0,0
2,note_on,37,0,0
2,note_on,40,0,0
