Track,Message Type,Note,Velocity,Time
1,note_on,81,56,960
1,note_on,69,45,0
1,note_on,69,0,480
1,note_on,81,0,0
1,note_on,70,48,0
1,note_on,82,59,0
1,note_on,82,0,480
1,note_on,70,0,0
1,note_on,76,51,0
1,note_on,88,63,0
1,note_on,88,0,480
1,note_on,76,0,0
1,note_on,79,54,0
1,note_on,91,67,0
1,note_on,91,0,480
1,note_on,79,0,0
1,note_on,91,69,0
1,note_on,79,56,0
1,note_on,79,0,960
1,note_on,91,0,0
1,note_on,68,51,0
1,note_on,80,63,0
1,note_on,80,0,480
1,note_on,68,0,0
1,note_on,81,69,0
1,note_on,69,56,0
1,note_on,69,0,480
1,note_on,81,0,0
1,note_on,72,51,0
1,note_on,84,63,0
1,note_on,84,0,480
1,note_on,72,0,0
1,note_on,89,68,0
1,note_on,77,55,0
1,note_on,77,0,480
1,note_on,89,0,0
1,note_on,77,55,0
1,note_on,89,68,0
1,note_on,89,0,960
1,note_on,77,0,0
1,note_on,78,56,0
1,note_on,66,45,0
1,note_on,66,0,480
1,note_on,78,0,0
1,note_on,67,48,0
1,note_on,79,59,0
1,note_on,79,0,480
1,note_on,67,0,0
1,note_on,70,51,0
1,note_on,82,63,0
1,note_on,82,0,480
1,note_on,70,0,0
1,note_on,74,54,0
1,note_on,86,67,0
1,note_on,86,0,480
1,note_on,74,0,0
1,note_on,86,69,0
1,note_on,74,56,0
1,note_on,74,0,960
1,note_on,86,0,0
1,note_on,64,51,0
1,note_on,76,63,0
1,note_on,76,0,480
1,note_on,64,0,0
1,note_on,77,69,0
1,note_on,65,56,0
1,note_on,65,0,480
1,note_on,77,0,0
1,note_on,69,47,0
1,note_on,81,58,0
1,note_on,81,0,480
1,note_on,69,0,0
1,note_on,84,58,0
1,note_on,72,47,0
1,note_on,72,0,480
1,note_on,84,0,0
1,note_on,72,44,0
1,note_on,84,54,0
1,note_on,69,38,900
1,note_on,84,0,60
1,note_on,72,0,0
1,note_on,81,45,0
1,note_on,69,0,420
1,note_on,70,40,0
1,note_on,81,0,60
1,note_on,82,48,0
1,note_on,70,0,420
1,note_on,76,43,0
1,note_on,82,0,60
1,note_on,88,51,0
1,note_on,76,0,420
1,note_on,79,45,0
1,note_on,88,0,60
1,note_on,91,54,0
1,note_on,79,0,420
1,note_on,79,47,0
1,note_on,91,0,60
1,note_on,91,56,0
1,note_on,91,0,960
1,note_on,79,0,0
1,note_on,68,43,0
1,note_on,80,51,0
1,note_on,80,0,480
1,note_on,68,0,0
1,note_on,81,53,0
1,note_on,69,44,0
1,note_on,69,0,480
1,note_on,81,0,0
1,note_on,72,43,0
1,note_on,84,51,0
1,note_on,84,0,480
1,note_on,72,0,0
1,note_on,89,55,0
1,note_on,77,46,0
1,note_on,77,0,480
1,note_on,89,0,0
1,note_on,77,46,0
1,note_on,89,55,0
1,note_on,89,0,960
1,note_on,77,0,0
1,note_on,78,45,0
1,note_on,66,38,0
1,note_on,66,0,480
1,note_on,78,0,0
1,note_on,67,40,0
1,note_on,79,48,0
1,note_on,79,0,480
1,note_on,67,0,0
1,note_on,70,43,0
1,note_on,82,51,0
1,note_on,82,0,480
1,note_on,70,0,0
1,note_on,74,45,0
1,note_on,86,54,0
1,note_on,86,0,480
1,note_on,74,0,0
1,note_on,86,56,0
1,note_on,74,47,0
1,note_on,74,0,960
1,note_on,86,0,0
1,note_on,64,43,0
1,note_on,76,51,0
1,note_on,76,0,480
1,note_on,64,0,0
1,note_on,77,56,0
1,note_on,65,47,0
1,note_on,65,0,480
1,note_on,77,0,0
1,note_on,69,39,0
1,note_on,81,47,0
1,note_on,81,0,480
1,note_on,69,0,0
1,note_on,84,47,0
1,note_on,72,39,0
1,note_on,72,0,480
1,note_on,84,0,0
1,note_on,72,37,0
1,note_on,84,44,0
1,note_on,84,0,960
1,note_on,72,0,0
1,note_on,79,53,0
1,note_on,91,66,0
1,note_on,91,0,480
1,note_on,79,0,0
1,note_on,91,72,0
1,note_on,79,58,0
1,note_on,79,0,480
1,note_on,91,0,0
1,note_on,76,53,0
1,note_on,88,66,0
1,note_on,88,0,480
1,note_on,76,0,0
1,note_on,82,68,0
1,note_on,70,55,0
1,note_on,70,0,480
1,note_on,82,0,0
1,note_on,69,55,0
1,note_on,81,69,0
1,note_on,81,0,960
1,note_on,69,0,0
1,note_on,81,55,0
1,note_on,93,69,0
1,note_on,93,0,480
1,note_on,81,0,0
1,note_on,93,75,0
1,note_on,81,60,0
1,note_on,81,0,480
1,note_on,93,0,0
1,note_on,77,55,0
1,note_on,89,69,0
1,note_on,89,0,480
1,note_on,77,0,0
1,note_on,86,74,0
1,note_on,74,59,0
1,note_on,74,0,480
1,note_on,86,0,0
1,note_on,72,57,0
1,note_on,84,72,0
1,note_on,84,0,960
1,note_on,72,0,0
1,note_on,84,57,0
1,note_on,96,72,0
1,note_on,96,0,480
1,note_on,84,0,0
1,note_on,96,79,0
1,note_on,84,64,0
1,note_on,84,0,480
1,note_on,96,0,0
1,note_on,81,60,0
1,note_on,93,75,0
1,note_on,93,0,480
1,note_on,81,0,0
1,note_on,89,77,0
1,note_on,77,63,0
1,note_on,77,0,480
1,note_on,89,0,0
1,note_on,74,67,0
1,note_on,86,83,0
1,note_on,86,0,960
1,note_on,74,0,0
1,note_on,86,55,0
1,note_on,98,68,0
1,note_on,98,0,480
1,note_on,86,0,0
1,note_on,98,73,0
1,note_on,86,59,0
1,note_on,86,0,480
1,note_on,98,0,0
1,note_on,82,52,0
1,note_on,94,65,0
1,note_on,94,0,480
1,note_on,82,0,0
1,note_on,91,69,0
1,note_on,79,55,0
1,note_on,79,0,480
1,note_on,91,0,0
1,note_on,77,52,0
1,note_on,89,65,0
1,note_on,79,44,900
1,note_on,89,0,60
1,note_on,77,0,0
1,note_on,91,49,0
1,note_on,79,0,420
1,note_on,79,43,0
1,note_on,91,0,60
1,note_on,91,54,0
1,note_on,79,0,420
1,note_on,76,39,0
1,note_on,91,0,60
1,note_on,88,49,0
1,note_on,76,0,420
1,note_on,70,43,0
1,note_on,88,0,60
1,note_on,82,53,0
1,note_on,70,0,420
1,note_on,69,43,0
1,note_on,82,0,60
1,note_on,81,53,0
1,note_on,81,0,960
1,note_on,69,0,0
1,note_on,81,44,0
1,note_on,93,55,0
1,note_on,93,0,480
1,note_on,81,0,0
1,note_on,93,60,0
1,note_on,81,48,0
1,note_on,81,0,480
1,note_on,93,0,0
1,note_on,77,45,0
1,note_on,89,56,0
1,note_on,89,0,480
1,note_on,77,0,0
1,note_on,86,61,0
1,note_on,74,50,0
1,note_on,74,0,480
1,note_on,86,0,0
1,note_on,72,50,0
1,note_on,84,62,0
1,note_on,84,0,960
1,note_on,72,0,0
1,note_on,84,50,0
1,note_on,96,62,0
1,note_on,96,0,480
1,note_on,84,0,0
1,note_on,96,69,0
1,note_on,84,56,0
1,note_on,84,0,480
1,note_on,96,0,0
1,note_on,81,52,0
1,note_on,93,66,0
1,note_on,93,0,480
1,note_on,81,0,0
1,note_on,89,67,0
1,note_on,77,55,0
1,note_on,77,0,480
1,note_on,89,0,0
1,note_on,74,60,0
1,note_on,86,74,0
1,note_on,86,0,960
1,note_on,74,0,0
1,note_on,86,48,0
1,note_on,98,60,0
1,note_on,98,0,480
1,note_on,86,0,0
1,note_on,98,64,0
1,note_on,86,52,0
1,note_on,86,0,480
1,note_on,98,0,0
1,note_on,82,43,0
1,note_on,94,54,0
1,note_on,94,0,480
1,note_on,82,0,0
1,note_on,91,54,0
1,note_on,79,43,0
1,note_on,79,0,480
1,note_on,91,0,0
1,note_on,77,40,0
1,note_on,89,50,0
1,note_on,89,0,480
1,note_on,77,0,0
1,note_on,57,28,60
1,note_on,60,28,30
1,note_on,65,34,30
1,note_on,60,0,330
1,note_on,65,0,30
1,note_on,57,0,0
1,note_on,57,69,1200
1,note_on,51,58,0
1,note_on,48,58,0
1,note_on,48,0,240
1,note_on,51,0,0
1,note_on,57,0,0
1,note_on,48,64,0
1,note_on,52,64,0
1,note_on,58,75,0
1,note_on,58,0,240
1,note_on,52,0,0
1,note_on,48,0,0
1,note_on,60,59,0
1,note_on,69,71,0
1,note_on,63,59,0
1,note_on,63,0,240
1,note_on,69,0,0
1,note_on,60,0,0
1,note_on,64,64,0
1,note_on,60,64,0
1,note_on,70,76,0
1,note_on,70,0,240
1,note_on,60,0,0
1,note_on,64,0,0
1,note_on,75,60,0
1,note_on,72,60,0
1,note_on,81,72,0
1,note_on,81,0,240
1,note_on,72,0,0
1,note_on,75,0,0
1,note_on,76,65,0
1,note_on,82,77,0
1,note_on,72,65,0
1,note_on,72,0,240
1,note_on,82,0,0
1,note_on,76,0,0
1,note_on,93,74,0
1,note_on,84,63,0
1,note_on,87,63,0
1,note_on,87,0,240
1,note_on,84,0,0
1,note_on,93,0,0
1,note_on,84,66,0
1,note_on,84,0,120
1,note_on,94,73,0
1,note_on,94,0,120
1,note_on,91,64,0
1,note_on,96,75,0
1,note_on,91,0,120
1,note_on,88,73,0
1,note_on,88,0,120
1,note_on,96,0,0
1,note_on,84,75,0
1,note_on,84,0,120
1,note_on,82,74,0
1,note_on,82,0,120
1,note_on,79,72,0
1,note_on,79,0,120
1,note_on,76,71,0
1,note_on,76,0,120
1,note_on,72,69,0
1,note_on,72,0,240
1,note_on,50,58,0
1,note_on,53,58,0
1,note_on,59,69,0
1,note_on,59,0,240
1,note_on,53,0,0
1,note_on,50,0,0
1,note_on,48,64,0
1,note_on,60,75,0
1,note_on,53,64,0
1,note_on,53,0,240
1,note_on,60,0,0
1,note_on,48,0,0
1,note_on,65,59,0
1,note_on,62,59,0
1,note_on,71,71,0
1,note_on,71,0,240
1,note_on,62,0,0
1,note_on,65,0,0
1,note_on,65,64,0
1,note_on,60,64,0
1,note_on,72,76,0
1,note_on,72,0,240
1,note_on,60,0,0
1,note_on,65,0,0
1,note_on,77,60,0
1,note_on,83,72,0
1,note_on,74,60,0
1,note_on,74,0,240
1,note_on,83,0,0
1,note_on,77,0,0
1,note_on,84,77,0
1,note_on,72,65,0
1,note_on,77,65,0
1,note_on,77,0,240
1,note_on,72,0,0
1,note_on,84,0,0
1,note_on,95,74,0
1,note_on,86,63,0
1,note_on,89,63,0
1,note_on,89,0,240
1,note_on,86,0,0
1,note_on,95,0,0
1,note_on,84,66,0
1,note_on,84,0,120
1,note_on,101,77,0
1,note_on,101,0,120
1,note_on,96,75,0
1,note_on,93,73,120
1,note_on,93,0,120
1,note_on,96,0,0
1,note_on,89,76,0
1,note_on,89,0,120
1,note_on,84,73,0
1,note_on,84,0,120
1,note_on,81,71,0
1,note_on,81,0,120
1,note_on,77,69,0
1,note_on,77,0,120
1,note_on,78,67,0
1,note_on,78,0,120
1,note_on,81,63,0
1,note_on,84,57,120
1,note_on,84,0,120
1,note_on,87,54,0
1,note_on,81,0,120
1,note_on,79,56,0
1,note_on,87,0,120
1,note_on,86,48,0
1,note_on,86,0,120
1,note_on,85,48,0
1,note_on,85,0,120
1,note_on,86,48,0
1,note_on,86,0,120
1,note_on,91,54,0
1,note_on,79,0,120
1,note_on,80,47,0
1,note_on,91,0,100
1,note_on,91,54,20
1,note_on,81,47,0
1,note_on,80,0,20
1,note_on,82,47,100
1,note_on,81,0,20
1,note_on,91,0,80
1,note_on,83,47,20
1,note_on,91,54,0
1,note_on,82,0,20
1,note_on,84,48,100
1,note_on,83,0,20
1,note_on,91,0,80
1,note_on,85,49,20
1,note_on,91,56,0
1,note_on,84,0,20
1,note_on,86,50,100
1,note_on,85,0,20
1,note_on,91,0,80
1,note_on,89,49,20
1,note_on,91,56,0
1,note_on,86,0,20
1,note_on,88,49,100
1,note_on,89,0,20
1,note_on,91,0,80
1,note_on,91,56,20
1,note_on,87,50,0
1,note_on,88,0,20
1,note_on,88,49,100
1,note_on,87,0,20
1,note_on,91,0,80
1,note_on,84,50,20
1,note_on,96,56,0
1,note_on,88,0,20
1,note_on,85,51,100
1,note_on,84,0,20
1,note_on,96,0,80
1,note_on,96,56,20
1,note_on,86,50,0
1,note_on,85,0,20
1,note_on,87,51,100
1,note_on,86,0,20
1,note_on,96,0,80
1,note_on,96,58,20
1,note_on,88,51,0
1,note_on,87,0,20
1,note_on,89,53,100
1,note_on,88,0,20
1,note_on,96,0,80
1,note_on,90,53,20
1,note_on,96,60,0
1,note_on,89,0,20
1,note_on,91,55,100
1,note_on,90,0,20
1,note_on,96,0,80
1,note_on,94,54,20
1,note_on,96,61,0
1,note_on,91,0,20
1,note_on,93,56,100
1,note_on,94,0,20
1,note_on,96,0,80
1,note_on,92,56,20
1,note_on,96,65,0
1,note_on,93,0,20
1,note_on,93,57,100
1,note_on,92,0,20
1,note_on,96,0,80
1,note_on,101,65,20
1,note_on,89,56,0
1,note_on,93,0,20
1,note_on,90,56,100
1,note_on,89,0,20
1,note_on,101,0,80
1,note_on,91,57,20
1,note_on,101,67,0
1,note_on,90,0,20
1,note_on,92,57,100
1,note_on,91,0,20
1,note_on,101,0,80
1,note_on,101,67,20
1,note_on,93,57,0
1,note_on,92,0,20
1,note_on,94,58,100
1,note_on,93,0,20
1,note_on,101,0,80
1,note_on,101,69,20
1,note_on,95,59,0
1,note_on,94,0,20
1,note_on,98,60,100
1,note_on,95,0,20
1,note_on,101,0,80
1,note_on,100,69,20
1,note_on,96,69,0
1,note_on,98,0,20
1,note_on,96,0,220
1,note_on,100,0,0
1,note_on,72,47,0
1,note_on,72,0,120
1,note_on,76,52,0
1,note_on,76,0,120
1,note_on,79,56,0
1,note_on,79,0,120
1,note_on,84,54,0
1,note_on,84,0,120
1,note_on,88,52,0
1,note_on,88,0,120
1,note_on,91,50,0
1,note_on,91,0,120
1,note_on,90,52,0
1,note_on,90,0,120
1,note_on,99,55,0
1,note_on,99,0,120
1,note_on,87,45,0
1,note_on,87,0,120
1,note_on,96,52,0
1,note_on,96,0,120
1,note_on,91,45,0
1,note_on,91,0,120
1,note_on,100,39,0
1,note_on,100,0,120
1,note_on,88,40,0
1,note_on,88,0,90
1,note_on,88,40,30
1,note_on,88,0,90
1,note_on,96,48,30
1,note_on,96,0,120
1,note_on,84,41,0
1,note_on,84,0,90
1,note_on,84,41,30
1,note_on,84,0,120
1,note_on,91,42,0
1,note_on,91,0,90
1,note_on,79,51,30
1,note_on,79,0,90
1,note_on,79,43,30
1,note_on,79,0,120
1,note_on,88,45,0
1,note_on,88,0,120
1,note_on,76,45,0
1,note_on,76,0,90
1,note_on,76,54,30
1,note_on,76,0,120
1,note_on,84,48,0
1,note_on,84,0,120
1,note_on,72,48,0
1,note_on,72,0,90
1,note_on,72,48,30
1,note_on,72,0,90
1,note_on,79,56,30
1,note_on,79,0,120
1,note_on,67,48,0
1,note_on,67,0,90
1,note_on,67,48,30
1,note_on,67,0,120
1,note_on,79,48,0
1,note_on,79,0,90
1,note_on,64,56,30
1,note_on,64,0,90
1,note_on,64,49,30
1,note_on,64,0,120
1,note_on,72,49,0
1,note_on,72,0,120
1,note_on,60,50,0
1,note_on,60,0,120
1,note_on,65,64,0
1,note_on,65,0,120
1,note_on,72,51,0
1,note_on,72,0,120
1,note_on,60,51,0
1,note_on,60,0,120
1,note_on,69,52,0
1,note_on,69,0,120
1,note_on,77,63,0
1,note_on,77,0,120
1,note_on,65,53,0
1,note_on,65,0,120
1,note_on,72,53,0
1,note_on,72,0,120
1,note_on,81,54,0
1,note_on,81,0,120
1,note_on,69,66,0
1,note_on,69,0,120
1,note_on,77,55,0
1,note_on,77,0,120
1,note_on,84,57,0
1,note_on,84,0,120
1,note_on,72,57,0
1,note_on,72,0,120
1,note_on,84,69,0
1,note_on,84,0,120
1,note_on,89,59,0
1,note_on,89,0,120
1,note_on,77,60,0
1,note_on,77,0,120
1,note_on,84,64,0
1,note_on,84,0,120
1,note_on,93,75,0
1,note_on,93,0,120
1,note_on,81,67,0
1,note_on,81,0,120
1,note_on,89,68,0
1,note_on,89,0,120
1,note_on,96,68,0
1,note_on,96,0,120
1,note_on,84,78,0
1,note_on,84,0,120
1,note_on,93,72,0
1,note_on,93,0,120
1,note_on,101,73,0
1,note_on,101,0,120
1,note_on,89,74,0
1,note_on,89,0,120
1,note_on,92,76,0
1,note_on,92,0,120
1,note_on,101,80,0
1,note_on,101,0,120
1,note_on,100,79,0
1,note_on,100,0,120
1,note_on,99,76,0
1,note_on,99,0,120
1,note_on,98,75,0
1,note_on,101,70,0
1,note_on,98,0,120
1,note_on,97,72,0
1,note_on,97,0,120
1,note_on,96,72,0
1,note_on,96,0,120
1,note_on,95,70,0
1,note_on,95,0,120
1,note_on,101,0,0
1,note_on,92,62,0
1,note_on,98,74,0
1,note_on,92,0,120
1,note_on,86,70,0
1,note_on,86,0,120
1,note_on,98,0,0
1,note_on,91,57,0
1,note_on,95,69,0
1,note_on,91,0,120
1,note_on,89,67,0
1,note_on,89,0,120
1,note_on,95,0,0
1,note_on,96,74,0
1,note_on,88,63,0
1,note_on,88,0,120
1,note_on,94,64,0
1,note_on,94,0,120
1,note_on,93,63,0
1,note_on,93,0,120
1,note_on,92,61,0
1,note_on,92,0,120
1,note_on,96,0,0
1,note_on,91,56,0
1,note_on,96,67,0
1,note_on,91,0,120
1,note_on,90,54,0
1,note_on,90,0,120
1,note_on,89,53,0
1,note_on,89,0,120
1,note_on,88,53,0
1,note_on,88,0,120
1,note_on,96,0,0
1,note_on,85,48,0
1,note_on,91,56,0
1,note_on,85,0,120
1,note_on,79,46,0
1,note_on,79,0,120
1,note_on,91,0,0
1,note_on,88,51,0
1,note_on,84,43,0
1,note_on,84,0,120
1,note_on,82,43,0
1,note_on,82,0,120
1,note_on,88,0,0
1,note_on,84,43,0
1,note_on,84,0,120
1,note_on,89,38,0
1,note_on,93,47,0
1,note_on,89,0,120
1,note_on,81,43,0
1,note_on,81,0,120
1,note_on,93,0,0
1,note_on,78,43,0
1,note_on,78,0,120
1,note_on,77,43,0
1,note_on,77,0,120
1,note_on,86,38,0
1,note_on,89,47,0
1,note_on,86,0,120
1,note_on,77,44,0
1,note_on,77,0,120
1,note_on,89,0,0
1,note_on,73,44,0
1,note_on,73,0,120
1,note_on,72,44,0
1,note_on,72,0,120
1,note_on,84,48,0
1,note_on,81,40,0
1,note_on,81,0,120
1,note_on,72,44,0
1,note_on,72,0,120
1,note_on,84,0,0
1,note_on,70,44,0
1,note_on,70,0,120
1,note_on,69,44,0
1,note_on,69,0,120
1,note_on,77,40,0
1,note_on,81,48,0
1,note_on,77,0,120
1,note_on,69,44,0
1,note_on,69,0,120
1,note_on,81,0,0
1,note_on,65,44,0
1,note_on,65,0,120
1,note_on,57,36,90
1,note_on,60,40,30
1,note_on,60,0,360
1,note_on,57,0,0
1,note_on,93,65,240
1,note_on,96,77,0
1,note_on,93,0,120
1,note_on,84,59,0
1,note_on,90,71,0
1,note_on,90,0,120
1,note_on,84,0,0
1,note_on,96,0,0
1,note_on,91,75,0
1,note_on,84,68,120
1,note_on,84,0,120
1,note_on,91,0,0
1,note_on,81,63,0
1,note_on,84,74,0
1,note_on,81,0,120
1,note_on,72,54,0
1,note_on,78,65,0
1,note_on,78,0,120
1,note_on,72,0,0
1,note_on,84,0,0
1,note_on,79,71,0
1,note_on,72,63,120
1,note_on,72,0,120
1,note_on,79,0,0
1,note_on,69,58,0
1,note_on,72,69,0
1,note_on,69,0,120
1,note_on,60,51,0
1,note_on,66,60,0
1,note_on,66,0,120
1,note_on,60,0,0
1,note_on,72,0,0
1,note_on,67,64,0
1,note_on,65,63,120
1,note_on,65,0,120
1,note_on,67,0,0
1,note_on,67,71,0
1,note_on,64,59,0
1,note_on,64,0,120
1,note_on,62,65,0
1,note_on,62,0,120
1,note_on,67,0,0
1,note_on,69,69,0
1,note_on,61,58,0
1,note_on,61,0,120
1,note_on,58,58,0
1,note_on,58,0,120
1,note_on,69,0,0
1,note_on,64,58,0
1,note_on,67,63,240
1,note_on,67,0,240
1,note_on,70,68,0
1,note_on,70,0,240
1,note_on,69,57,0
1,note_on,73,70,0
1,note_on,69,0,240
1,note_on,67,69,0
1,note_on,67,0,240
1,note_on,73,0,0
1,note_on,64,0,0
1,note_on,74,66,0
1,note_on,65,63,0
1,note_on,65,0,240
1,note_on,74,0,0
1,note_on,85,65,0
1,note_on,93,77,0
1,note_on,85,0,120
1,note_on,79,59,0
1,note_on,88,71,0
1,note_on,88,0,120
1,note_on,79,0,0
1,note_on,93,0,0
1,note_on,86,65,0
1,note_on,89,75,0
1,note_on,86,0,120
1,note_on,77,68,0
1,note_on,77,0,120
1,note_on,89,0,0
1,note_on,72,63,0
1,note_on,81,74,0
1,note_on,72,0,120
1,note_on,67,54,0
1,note_on,76,65,0
1,note_on,76,0,120
1,note_on,67,0,0
1,note_on,81,0,0
1,note_on,74,65,0
1,note_on,77,71,0
1,note_on,74,0,120
1,note_on,64,63,0
1,note_on,64,0,120
1,note_on,77,0,0
1,note_on,65,58,0
1,note_on,71,69,0
1,note_on,65,0,120
1,note_on,67,60,0
1,note_on,67,0,120
1,note_on,71,0,0
1,note_on,68,63,0
1,note_on,72,68,0
1,note_on,68,0,120
1,note_on,65,63,0
1,note_on,65,0,120
1,note_on,64,58,0
1,note_on,64,0,120
1,note_on,67,63,0
1,note_on,67,0,120
1,note_on,72,0,0
1,note_on,70,55,0
1,note_on,70,0,120
1,note_on,73,53,0
1,note_on,73,0,120
1,note_on,76,52,0
1,note_on,76,0,120
1,note_on,79,52,0
1,note_on,79,0,120
1,note_on,82,49,0
1,note_on,82,0,120
1,note_on,84,51,0
1,note_on,88,51,120
1,note_on,91,52,120
1,note_on,96,54,120
1,note_on,91,0,120
1,note_on,84,0,0
1,note_on,88,0,0
1,note_on,84,48,0
1,note_on,96,0,120
1,note_on,96,53,0
1,note_on,84,0,120
1,note_on,89,49,0
1,note_on,89,0,120
1,note_on,96,0,0
1,note_on,83,56,0
1,note_on,95,56,0
1,note_on,95,0,120
1,note_on,92,51,0
1,note_on,92,0,120
1,note_on,83,0,0
1,note_on,86,52,0
1,note_on,91,52,0
1,note_on,91,0,120
1,note_on,89,54,0
1,note_on,93,46,90
1,note_on,93,0,30
1,note_on,89,0,0
1,note_on,86,0,0
1,note_on,91,54,0
1,note_on,88,46,0
1,note_on,88,0,180
1,note_on,85,52,0
1,note_on,89,45,30
1,note_on,89,0,30
1,note_on,85,0,0
1,note_on,91,0,0
1,note_on,88,56,0
1,note_on,84,47,0
1,note_on,84,0,180
1,note_on,82,52,0
1,note_on,86,45,30
1,note_on,86,0,30
1,note_on,82,0,0
1,note_on,88,0,0
1,note_on,84,54,0
1,note_on,81,46,0
1,note_on,81,0,180
1,note_on,78,52,0
1,note_on,82,49,30
1,note_on,82,0,30
1,note_on,78,0,0
1,note_on,84,0,0
1,note_on,81,54,0
1,note_on,77,47,0
1,note_on,77,0,180
1,note_on,75,52,0
1,note_on,75,0,60
1,note_on,81,0,0
1,note_on,82,67,0
1,note_on,74,67,0
1,note_on,74,0,120
1,note_on,79,61,0
1,note_on,79,0,120
1,note_on,82,64,0
1,note_on,82,0,120
1,note_on,85,66,0
1,note_on,85,0,120
1,note_on,82,0,0
1,note_on,86,68,0
1,note_on,86,0,120
1,note_on,91,70,0
1,note_on,91,0,120
1,note_on,94,72,0
1,note_on,94,0,120
1,note_on,97,74,0
1,note_on,97,0,120
1,note_on,98,76,0
1,note_on,88,54,120
1,note_on,90,68,0
1,note_on,90,0,120
1,note_on,91,63,0
1,note_on,91,0,120
1,note_on,98,0,0
1,note_on,96,60,0
1,note_on,96,0,120
1,note_on,88,0,0
1,note_on,93,76,0
1,note_on,84,52,120
1,note_on,87,65,0
1,note_on,87,0,120
1,note_on,88,60,0
1,note_on,88,0,120
1,note_on,93,0,0
1,note_on,91,59,0
1,note_on,91,0,120
1,note_on,84,0,0
1,note_on,89,75,0
1,note_on,82,52,120
1,note_on,85,60,0
1,note_on,85,0,120
1,note_on,84,56,0
1,note_on,84,0,120
1,note_on,89,0,0
1,note_on,88,56,0
1,note_on,88,0,120
1,note_on,82,0,0
1,note_on,89,73,0
1,note_on,89,0,120
1,note_on,84,63,0
1,note_on,84,0,120
1,note_on,81,66,0
1,note_on,81,0,120
1,note_on,93,60,0
1,note_on,93,0,120
1,note_on,57,49,90
1,note_on,60,49,30
1,note_on,65,58,30
1,note_on,65,0,330
1,note_on,60,0,0
1,note_on,57,0,0
1,note_on,93,65,240
1,note_on,96,77,0
1,note_on,93,0,120
1,note_on,84,59,0
1,note_on,90,71,0
1,note_on,90,0,120
1,note_on,84,0,0
1,note_on,96,0,0
1,note_on,91,75,0
1,note_on,84,68,120
1,note_on,84,0,120
1,note_on,91,0,0
1,note_on,81,63,0
1,note_on,84,74,0
1,note_on,81,0,120
1,note_on,72,54,0
1,note_on,78,65,0
1,note_on,78,0,120
1,note_on,72,0,0
1,note_on,84,0,0
1,note_on,79,71,0
1,note_on,72,63,120
1,note_on,72,0,120
1,note_on,79,0,0
1,note_on,69,58,0
1,note_on,72,69,0
1,note_on,69,0,120
1,note_on,60,51,0
1,note_on,66,60,0
1,note_on,66,0,120
1,note_on,60,0,0
1,note_on,72,0,0
1,note_on,67,65,0
1,note_on,65,63,120
1,note_on,65,0,120
1,note_on,67,0,0
1,note_on,67,71,0
1,note_on,64,59,0
1,note_on,64,0,120
1,note_on,62,65,0
1,note_on,62,0,120
1,note_on,67,0,0
1,note_on,69,69,0
1,note_on,61,58,0
1,note_on,61,0,120
1,note_on,58,58,0
1,note_on,58,0,120
1,note_on,69,0,0
1,note_on,64,58,0
1,note_on,67,63,240
1,note_on,67,0,240
1,note_on,70,68,0
1,note_on,70,0,240
1,note_on,69,58,0
1,note_on,73,70,0
1,note_on,69,0,240
1,note_on,67,69,0
1,note_on,67,0,240
1,note_on,73,0,0
1,note_on,64,0,0
1,note_on,74,66,0
1,note_on,65,63,0
1,note_on,65,0,240
1,note_on,74,0,0
1,note_on,85,65,0
1,note_on,93,77,0
1,note_on,85,0,120
1,note_on,79,59,0
1,note_on,88,71,0
1,note_on,88,0,120
1,note_on,79,0,0
1,note_on,93,0,0
1,note_on,86,65,0
1,note_on,89,75,0
1,note_on,86,0,120
1,note_on,77,68,0
1,note_on,77,0,120
1,note_on,89,0,0
1,note_on,72,63,0
1,note_on,81,74,0
1,note_on,72,0,120
1,note_on,67,54,0
1,note_on,76,65,0
1,note_on,76,0,120
1,note_on,67,0,0
1,note_on,81,0,0
1,note_on,74,65,0
1,note_on,77,71,0
1,note_on,74,0,120
1,note_on,64,63,0
1,note_on,64,0,120
1,note_on,77,0,0
1,note_on,65,58,0
1,note_on,71,69,0
1,note_on,65,0,120
1,note_on,67,60,0
1,note_on,67,0,120
1,note_on,71,0,0
1,note_on,68,63,0
1,note_on,72,68,0
1,note_on,68,0,120
1,note_on,65,63,0
1,note_on,65,0,120
1,note_on,64,59,0
1,note_on,64,0,120
1,note_on,67,65,0
1,note_on,67,0,120
1,note_on,72,0,0
1,note_on,70,56,0
1,note_on,70,0,120
1,note_on,73,54,0
1,note_on,73,0,120
1,note_on,76,53,0
1,note_on,76,0,120
1,note_on,79,52,0
1,note_on,79,0,120
1,note_on,82,50,0
1,note_on,82,0,120
1,note_on,84,52,0
1,note_on,88,52,120
1,note_on,91,53,120
1,note_on,96,55,120
1,note_on,91,0,120
1,note_on,84,0,0
1,note_on,88,0,0
1,note_on,84,49,0
1,note_on,96,0,120
1,note_on,96,53,0
1,note_on,84,0,120
1,note_on,89,49,0
1,note_on,89,0,120
1,note_on,96,0,0
1,note_on,83,56,0
1,note_on,95,56,0
1,note_on,95,0,120
1,note_on,92,51,0
1,note_on,92,0,120
1,note_on,83,0,0
1,note_on,86,52,0
1,note_on,91,52,0
1,note_on,91,0,120
1,note_on,89,54,0
1,note_on,93,46,90
1,note_on,93,0,30
1,note_on,89,0,0
1,note_on,86,0,0
1,note_on,91,54,0
1,note_on,88,46,0
1,note_on,88,0,180
1,note_on,85,52,0
1,note_on,89,45,30
1,note_on,89,0,30
1,note_on,85,0,0
1,note_on,91,0,0
1,note_on,88,56,0
1,note_on,84,47,0
1,note_on,84,0,180
1,note_on,82,52,0
1,note_on,86,45,30
1,note_on,86,0,30
1,note_on,82,0,0
1,note_on,88,0,0
1,note_on,84,54,0
1,note_on,81,46,0
1,note_on,81,0,180
1,note_on,78,52,0
1,note_on,82,49,30
1,note_on,82,0,30
1,note_on,78,0,0
1,note_on,84,0,0
1,note_on,81,54,0
1,note_on,77,47,0
1,note_on,77,0,180
1,note_on,75,52,0
1,note_on,75,0,60
1,note_on,81,0,0
1,note_on,82,60,0
1,note_on,74,60,0
1,note_on,74,0,120
1,note_on,79,58,0
1,note_on,79,0,120
1,note_on,82,61,0
1,note_on,82,0,120
1,note_on,85,64,0
1,note_on,85,0,120
1,note_on,82,0,0
1,note_on,86,68,0
1,note_on,86,0,120
1,note_on,91,70,0
1,note_on,91,0,120
1,note_on,94,72,0
1,note_on,94,0,120
1,note_on,97,74,0
1,note_on,97,0,120
1,note_on,98,75,0
1,note_on,88,54,120
1,note_on,90,68,0
1,note_on,90,0,120
1,note_on,91,62,0
1,note_on,91,0,120
1,note_on,98,0,0
1,note_on,96,62,0
1,note_on,96,0,120
1,note_on,88,0,0
1,note_on,93,76,0
1,note_on,84,52,120
1,note_on,87,65,0
1,note_on,87,0,120
1,note_on,88,61,0
1,note_on,88,0,120
1,note_on,93,0,0
1,note_on,91,62,0
1,note_on,91,0,120
1,note_on,84,0,0
1,note_on,89,75,0
1,note_on,82,52,120
1,note_on,85,60,0
1,note_on,85,0,120
1,note_on,84,58,0
1,note_on,84,0,120
1,note_on,89,0,0
1,note_on,88,59,0
1,note_on,88,0,120
1,note_on,82,0,0
1,note_on,89,73,0
1,note_on,89,0,120
1,note_on,84,63,0
1,note_on,84,0,120
1,note_on,81,66,0
1,note_on,81,0,120
1,note_on,93,60,0
1,note_on,93,0,120
1,note_on,57,49,90
1,note_on,60,49,30
1,note_on,65,58,30
1,note_on,65,0,330
1,note_on,60,0,0
1,note_on,57,0,0
1,note_on,69,48,960
1,note_on,60,32,120
1,note_on,63,38,0
1,note_on,63,0,217
1,note_on,60,0,0
1,note_on,63,38,23
1,note_on,60,32,0
1,note_on,60,0,120
1,note_on,63,0,0
1,note_on,70,49,0
1,note_on,69,0,20
1,note_on,64,41,100
1,note_on,60,34,0
1,note_on,60,0,217
1,note_on,64,0,0
1,note_on,64,41,23
1,note_on,60,34,0
1,note_on,60,0,120
1,note_on,64,0,0
1,note_on,71,54,0
1,note_on,70,0,20
1,note_on,62,36,100
1,note_on,65,43,0
1,note_on,65,0,217
1,note_on,62,0,0
1,note_on,65,44,23
1,note_on,62,37,0
1,note_on,62,0,120
1,note_on,65,0,0
1,note_on,72,60,0
1,note_on,71,0,20
1,note_on,60,38,100
1,note_on,65,46,0
1,note_on,65,0,217
1,note_on,60,0,0
1,note_on,65,47,23
1,note_on,60,39,0
1,note_on,60,0,120
1,note_on,65,0,0
1,note_on,73,65,0
1,note_on,72,0,20
1,note_on,67,48,100
1,note_on,64,40,0
1,note_on,64,0,217
1,note_on,67,0,0
1,note_on,67,49,23
1,note_on,64,41,0
1,note_on,64,0,120
1,note_on,67,0,0
1,note_on,74,68,0
1,note_on,73,0,20
1,note_on,65,43,100
1,note_on,68,51,0
1,note_on,68,0,217
1,note_on,65,0,0
1,note_on,68,52,23
1,note_on,65,43,0
1,note_on,65,0,120
1,note_on,68,0,0
1,note_on,72,68,0
1,note_on,74,0,20
1,note_on,64,44,100
1,note_on,67,53,0
1,note_on,67,0,217
1,note_on,64,0,0
1,note_on,67,53,23
1,note_on,64,45,0
1,note_on,64,0,120
1,note_on,67,0,0
1,note_on,72,0,0
1,note_on,72,73,0
1,note_on,65,46,120
1,note_on,69,55,0
1,note_on,69,0,228
1,note_on,65,0,0
1,note_on,65,46,12
1,note_on,69,55,0
1,note_on,69,0,120
1,note_on,65,0,0
1,note_on,72,0,0
1,note_on,74,77,0
1,note_on,69,55,120
1,note_on,62,47,0
1,note_on,62,0,228
1,note_on,69,0,0
1,note_on,62,47,12
1,note_on,69,55,0
1,note_on,69,0,120
1,note_on,62,0,0
1,note_on,70,73,0
1,note_on,74,0,20
1,note_on,67,53,100
1,note_on,62,45,0
1,note_on,62,0,228
1,note_on,67,0,0
1,note_on,67,50,12
1,note_on,62,42,0
1,note_on,62,0,120
1,note_on,67,0,0
1,note_on,72,69,0
1,note_on,70,0,20
1,note_on,60,44,100
1,note_on,67,53,0
1,note_on,67,0,228
1,note_on,60,0,0
1,note_on,60,44,12
1,note_on,67,53,0
1,note_on,67,0,120
1,note_on,60,0,0
1,note_on,69,70,0
1,note_on,72,0,20
1,note_on,65,49,100
1,note_on,60,41,0
1,note_on,60,0,228
1,note_on,65,0,0
1,note_on,60,41,12
1,note_on,65,49,0
1,note_on,65,0,120
1,note_on,60,0,0
1,note_on,67,65,0
1,note_on,69,0,20
1,note_on,61,49,100
1,note_on,57,41,0
1,note_on,57,0,228
1,note_on,61,0,0
1,note_on,57,41,12
1,note_on,61,49,0
1,note_on,61,0,120
1,note_on,57,0,0
1,note_on,65,61,0
1,note_on,67,0,20
1,note_on,57,40,100
1,note_on,62,48,0
1,note_on,62,0,228
1,note_on,57,0,0
1,note_on,62,48,12
1,note_on,57,40,0
1,note_on,57,0,120
1,note_on,62,0,0
1,note_on,63,59,0
1,note_on,65,0,20
1,note_on,57,46,100
1,note_on,53,39,0
1,note_on,53,0,228
1,note_on,57,0,0
1,note_on,53,39,12
1,note_on,57,46,0
1,note_on,57,0,120
1,note_on,53,0,0
1,note_on,62,57,0
1,note_on,63,0,20
1,note_on,53,38,100
1,note_on,58,45,0
1,note_on,58,0,228
1,note_on,53,0,0
1,note_on,53,38,12
1,note_on,58,45,0
1,note_on,58,0,120
1,note_on,53,0,0
1,note_on,60,56,0
1,note_on,62,0,20
1,note_on,50,36,100
1,note_on,54,43,0
1,note_on,54,0,228
1,note_on,50,0,0
1,note_on,54,42,12
1,note_on,50,35,0
1,note_on,50,0,120
1,note_on,54,0,0
1,note_on,58,54,0
1,note_on,60,0,20
1,note_on,55,42,100
1,note_on,50,35,0
1,note_on,50,0,228
1,note_on,55,0,0
1,note_on,50,34,12
1,note_on,55,41,0
1,note_on,55,0,120
1,note_on,50,0,0
1,note_on,59,49,0
1,note_on,58,0,20
1,note_on,50,32,100
1,note_on,56,38,0
1,note_on,56,0,228
1,note_on,50,0,0
1,note_on,50,32,12
1,note_on,56,38,0
1,note_on,56,0,120
1,note_on,50,0,0
1,note_on,58,41,0
1,note_on,60,49,0
1,note_on,59,0,20
1,note_on,48,30,100
1,note_on,55,36,0
1,note_on,55,0,228
1,note_on,48,0,0
1,note_on,55,36,12
1,note_on,48,30,0
1,note_on,48,0,114
1,note_on,55,0,0
1,note_on,60,0,6
1,note_on,58,0,0
1,note_on,58,40,0
1,note_on,60,48,0
1,note_on,54,37,120
1,note_on,48,31,0
1,note_on,48,0,228
1,note_on,54,0,0
1,note_on,48,31,12
1,note_on,54,37,0
1,note_on,54,0,120
1,note_on,58,0,0
1,note_on,60,0,0
1,note_on,48,0,0
1,note_on,60,47,0
1,note_on,58,39,0
1,note_on,48,30,120
1,note_on,55,35,0
1,note_on,55,0,228
1,note_on,48,0,0
1,note_on,55,35,12
1,note_on,48,30,0
1,note_on,48,0,120
1,note_on,60,0,0
1,note_on,58,0,0
1,note_on,55,0,0
1,note_on,60,43,0
1,note_on,57,31,120
1,note_on,53,26,0
1,note_on,53,0,228
1,note_on,57,0,0
1,note_on,57,30,12
1,note_on,53,25,0
1,note_on,53,0,120
1,note_on,57,0,0
1,note_on,60,0,0
1,note_on,65,43,0
1,note_on,57,25,120
1,note_on,60,30,0
1,note_on,60,0,228
1,note_on,57,0,0
1,note_on,60,30,12
1,note_on,57,25,0
1,note_on,57,0,120
1,note_on,60,0,0
1,note_on,65,0,0
1,note_on,69,45,0
1,note_on,60,28,120
1,note_on,63,34,0
1,note_on,63,0,228
1,note_on,60,0,0
1,note_on,60,32,12
1,note_on,63,38,0
1,note_on,63,0,120
1,note_on,60,0,0
1,note_on,70,49,0
1,note_on,69,0,20
1,note_on,60,34,100
1,note_on,64,41,0
1,note_on,64,0,228
1,note_on,60,0,0
1,note_on,60,34,12
1,note_on,64,41,0
1,note_on,64,0,120
1,note_on,60,0,0
1,note_on,71,54,0
1,note_on,70,0,20
1,note_on,62,36,100
1,note_on,65,43,0
1,note_on,65,0,228
1,note_on,62,0,0
1,note_on,62,37,12
1,note_on,65,44,0
1,note_on,65,0,120
1,note_on,62,0,0
1,note_on,72,60,0
1,note_on,71,0,20
1,note_on,60,38,100
1,note_on,65,46,0
1,note_on,65,0,228
1,note_on,60,0,0
1,note_on,60,39,12
1,note_on,65,47,0
1,note_on,65,0,120
1,note_on,60,0,0
1,note_on,73,65,0
1,note_on,72,0,20
1,note_on,64,40,100
1,note_on,67,48,0
1,note_on,67,0,228
1,note_on,64,0,0
1,note_on,64,41,12
1,note_on,67,49,0
1,note_on,67,0,120
1,note_on,64,0,0
1,note_on,74,68,0
1,note_on,73,0,20
1,note_on,65,43,100
1,note_on,68,51,0
1,note_on,68,0,228
1,note_on,65,0,0
1,note_on,65,43,12
1,note_on,68,52,0
1,note_on,68,0,120
1,note_on,65,0,0
1,note_on,72,68,0
1,note_on,74,0,20
1,note_on,64,44,100
1,note_on,67,53,0
1,note_on,67,0,228
1,note_on,64,0,0
1,note_on,64,45,12
1,note_on,67,53,0
1,note_on,67,0,120
1,note_on,64,0,0
1,note_on,72,0,0
1,note_on,72,73,0
1,note_on,65,46,120
1,note_on,69,55,0
1,note_on,69,0,228
1,note_on,65,0,0
1,note_on,65,46,12
1,note_on,69,55,0
1,note_on,69,0,120
1,note_on,65,0,0
1,note_on,72,0,0
1,note_on,74,77,0
1,note_on,62,47,120
1,note_on,69,55,0
1,note_on,69,0,228
1,note_on,62,0,0
1,note_on,62,47,12
1,note_on,69,55,0
1,note_on,69,0,120
1,note_on,62,0,0
1,note_on,70,73,0
1,note_on,74,0,20
1,note_on,62,45,100
1,note_on,67,53,0
1,note_on,67,0,228
1,note_on,62,0,0
1,note_on,62,42,12
1,note_on,67,50,0
1,note_on,67,0,120
1,note_on,62,0,0
1,note_on,72,69,0
1,note_on,70,0,20
1,note_on,60,44,100
1,note_on,67,53,0
1,note_on,67,0,228
1,note_on,60,0,0
1,note_on,60,44,12
1,note_on,67,53,0
1,note_on,67,0,120
1,note_on,60,0,0
1,note_on,69,70,0
1,note_on,72,0,20
1,note_on,60,41,100
1,note_on,65,49,0
1,note_on,65,0,228
1,note_on,60,0,0
1,note_on,60,41,12
1,note_on,65,49,0
1,note_on,65,0,120
1,note_on,60,0,0
1,note_on,67,65,0
1,note_on,69,0,20
1,note_on,57,41,100
1,note_on,61,49,0
1,note_on,61,0,228
1,note_on,57,0,0
1,note_on,57,41,12
1,note_on,61,49,0
1,note_on,61,0,120
1,note_on,57,0,0
1,note_on,65,61,0
1,note_on,67,0,20
1,note_on,57,40,100
1,note_on,62,48,0
1,note_on,62,0,228
1,note_on,57,0,0
1,note_on,57,40,12
1,note_on,62,48,0
1,note_on,62,0,120
1,note_on,57,0,0
1,note_on,63,59,0
1,note_on,65,0,20
1,note_on,53,39,100
1,note_on,57,46,0
1,note_on,57,0,228
1,note_on,53,0,0
1,note_on,53,39,12
1,note_on,57,46,0
1,note_on,57,0,120
1,note_on,53,0,0
1,note_on,62,57,0
1,note_on,63,0,20
1,note_on,53,38,100
1,note_on,58,45,0
1,note_on,58,0,228
1,note_on,53,0,0
1,note_on,53,38,12
1,note_on,58,45,0
1,note_on,58,0,120
1,note_on,53,0,0
1,note_on,60,56,0
1,note_on,62,0,20
1,note_on,50,36,100
1,note_on,54,43,0
1,note_on,54,0,228
1,note_on,50,0,0
1,note_on,50,35,12
1,note_on,54,42,0
1,note_on,54,0,120
1,note_on,50,0,0
1,note_on,58,54,0
1,note_on,60,0,20
1,note_on,50,35,100
1,note_on,55,42,0
1,note_on,55,0,228
1,note_on,50,0,0
1,note_on,50,34,12
1,note_on,55,41,0
1,note_on,55,0,120
1,note_on,50,0,0
1,note_on,59,49,0
1,note_on,58,0,20
1,note_on,50,32,100
1,note_on,56,38,0
1,note_on,56,0,228
1,note_on,50,0,0
1,note_on,50,32,12
1,note_on,56,38,0
1,note_on,56,0,120
1,note_on,50,0,0
1,note_on,60,49,0
1,note_on,58,41,0
1,note_on,59,0,20
1,note_on,48,30,100
1,note_on,55,36,0
1,note_on,55,0,228
1,note_on,48,0,0
1,note_on,48,30,12
1,note_on,55,36,0
1,note_on,55,0,120
1,note_on,60,0,0
1,note_on,58,0,0
1,note_on,48,0,0
1,note_on,60,48,0
1,note_on,58,40,0
1,note_on,48,31,120
1,note_on,54,37,0
1,note_on,54,0,228
1,note_on,48,0,0
1,note_on,48,31,12
1,note_on,54,37,0
1,note_on,54,0,120
1,note_on,60,0,0
1,note_on,58,0,0
1,note_on,48,0,0
1,note_on,60,47,0
1,note_on,58,39,0
1,note_on,48,30,120
1,note_on,55,35,0
1,note_on,55,0,228
1,note_on,48,0,0
1,note_on,48,30,12
1,note_on,55,35,0
1,note_on,55,0,120
1,note_on,60,0,0
1,note_on,58,0,0
1,note_on,48,0,0
1,note_on,57,36,0
1,note_on,60,43,0
1,note_on,48,26,120
1,note_on,53,31,0
1,note_on,53,0,228
1,note_on,48,0,0
1,note_on,48,25,12
1,note_on,53,30,0
1,note_on,53,0,120
1,note_on,57,0,0
1,note_on,60,0,0
1,note_on,48,0,0
1,note_on,57,36,0
1,note_on,60,43,0
1,note_on,48,25,120
1,note_on,53,30,0
1,note_on,53,0,228
1,note_on,48,0,0
1,note_on,48,25,12
1,note_on,53,30,0
1,note_on,53,0,120
1,note_on,57,0,0
1,note_on,60,0,0
1,note_on,48,0,0
1,note_on,65,48,0
1,note_on,57,30,120
1,note_on,60,36,0
1,note_on,60,0,228
1,note_on,57,0,0
1,note_on,57,32,12
1,note_on,60,38,0
1,note_on,60,0,120
1,note_on,57,0,0
1,note_on,64,49,0
1,note_on,65,0,20
1,note_on,55,34,100
1,note_on,58,41,0
1,note_on,58,0,228
1,note_on,55,0,0
1,note_on,55,34,12
1,note_on,58,41,0
1,note_on,58,0,120
1,note_on,55,0,0
1,note_on,62,54,0
1,note_on,64,0,20
1,note_on,53,36,100
1,note_on,59,43,0
1,note_on,59,0,228
1,note_on,53,0,0
1,note_on,53,37,12
1,note_on,59,44,0
1,note_on,59,0,120
1,note_on,53,0,0
1,note_on,61,60,0
1,note_on,62,0,20
1,note_on,52,38,100
1,note_on,57,46,0
1,note_on,57,0,228
1,note_on,52,0,0
1,note_on,52,39,12
1,note_on,57,47,0
1,note_on,57,0,120
1,note_on,52,0,0
1,note_on,62,65,0
1,note_on,61,0,20
1,note_on,53,40,100
1,note_on,56,48,0
1,note_on,56,0,228
1,note_on,53,0,0
1,note_on,53,41,12
1,note_on,56,49,0
1,note_on,56,0,120
1,note_on,53,0,0
1,note_on,63,68,0
1,note_on,62,0,20
1,note_on,54,43,100
1,note_on,57,51,0
1,note_on,57,0,228
1,note_on,54,0,0
1,note_on,54,43,12
1,note_on,57,52,0
1,note_on,57,0,120
1,note_on,54,0,0
1,note_on,64,68,0
1,note_on,63,0,20
1,note_on,55,44,100
1,note_on,57,53,0
1,note_on,57,0,228
1,note_on,55,0,0
1,note_on,55,45,12
1,note_on,57,53,0
1,note_on,57,0,120
1,note_on,55,0,0
1,note_on,65,73,0
1,note_on,64,0,20
1,note_on,53,46,100
1,note_on,57,55,0
1,note_on,57,0,228
1,note_on,53,0,0
1,note_on,53,46,12
1,note_on,57,55,0
1,note_on,57,0,120
1,note_on,53,0,0
1,note_on,65,0,0
1,note_on,61,77,0
1,note_on,55,47,120
1,note_on,58,55,0
1,note_on,58,0,228
1,note_on,55,0,0
1,note_on,55,47,12
1,note_on,58,55,0
1,note_on,58,0,120
1,note_on,55,0,0
1,note_on,62,73,0
1,note_on,61,0,20
1,note_on,53,45,100
1,note_on,57,53,0
1,note_on,57,0,228
1,note_on,53,0,0
1,note_on,53,42,12
1,note_on,57,50,0
1,note_on,57,0,120
1,note_on,53,0,0
1,note_on,60,69,0
1,note_on,62,0,20
1,note_on,50,44,100
1,note_on,57,53,0
1,note_on,57,0,228
1,note_on,50,0,0
1,note_on,50,44,12
1,note_on,57,53,0
1,note_on,57,0,120
1,note_on,50,0,0
1,note_on,58,70,0
1,note_on,60,0,20
1,note_on,50,41,100
1,note_on,55,49,0
1,note_on,55,0,228
1,note_on,50,0,0
1,note_on,50,41,12
1,note_on,55,49,0
1,note_on,55,0,120
1,note_on,50,0,0
1,note_on,58,0,0
1,note_on,59,65,0
1,note_on,50,41,120
1,note_on,53,49,0
1,note_on,53,0,228
1,note_on,50,0,0
1,note_on,50,41,12
1,note_on,53,49,0
1,note_on,53,0,120
1,note_on,50,0,0
1,note_on,60,61,0
1,note_on,59,0,20
1,note_on,48,40,100
1,note_on,53,48,0
1,note_on,53,0,228
1,note_on,48,0,0
1,note_on,48,40,12
1,note_on,53,48,0
1,note_on,53,0,120
1,note_on,48,0,0
1,note_on,59,59,0
1,note_on,60,0,20
1,note_on,50,39,100
1,note_on,53,46,0
1,note_on,53,0,228
1,note_on,50,0,0
1,note_on,50,39,12
1,note_on,53,46,0
1,note_on,53,0,120
1,note_on,50,0,0
1,note_on,60,57,0
1,note_on,59,0,20
1,note_on,48,38,100
1,note_on,53,45,0
1,note_on,53,0,228
1,note_on,48,0,0
1,note_on,48,38,12
1,note_on,53,45,0
1,note_on,53,0,120
1,note_on,48,0,0
1,note_on,59,56,0
1,note_on,60,0,20
1,note_on,50,36,100
1,note_on,53,43,0
1,note_on,53,0,228
1,note_on,50,0,0
1,note_on,50,35,12
1,note_on,53,42,0
1,note_on,53,0,120
1,note_on,50,0,0
1,note_on,60,54,0
1,note_on,59,0,20
1,note_on,50,35,100
1,note_on,53,42,0
1,note_on,53,0,228
1,note_on,50,0,0
1,note_on,50,34,12
1,note_on,53,41,0
1,note_on,53,0,120
1,note_on,50,0,0
1,note_on,59,49,0
1,note_on,60,0,20
1,note_on,50,32,100
1,note_on,53,38,0
1,note_on,53,0,228
1,note_on,50,0,0
1,note_on,50,32,12
1,note_on,53,38,0
1,note_on,53,0,120
1,note_on,50,0,0
1,note_on,59,0,0
1,note_on,60,49,0
1,note_on,58,41,0
1,note_on,48,30,120
1,note_on,55,36,0
1,note_on,55,0,228
1,note_on,48,0,0
1,note_on,48,30,12
1,note_on,55,36,0
1,note_on,55,0,120
1,note_on,60,0,0
1,note_on,58,0,0
1,note_on,48,0,0
1,note_on,60,48,0
1,note_on,58,40,0
1,note_on,48,31,120
1,note_on,54,37,0
1,note_on,54,0,228
1,note_on,48,0,0
1,note_on,48,31,12
1,note_on,54,37,0
1,note_on,54,0,120
1,note_on,60,0,0
1,note_on,58,0,0
1,note_on,48,0,0
1,note_on,60,47,0
1,note_on,58,39,0
1,note_on,48,30,120
1,note_on,55,35,0
1,note_on,55,0,228
1,note_on,48,0,0
1,note_on,48,30,12
1,note_on,55,35,0
1,note_on,55,0,120
1,note_on,60,0,0
1,note_on,58,0,0
1,note_on,48,0,0
1,note_on,57,36,0
1,note_on,60,43,0
1,note_on,48,26,120
1,note_on,53,31,0
1,note_on,53,0,228
1,note_on,48,0,0
1,note_on,48,25,12
1,note_on,53,30,0
1,note_on,53,0,120
1,note_on,57,0,0
1,note_on,60,0,0
1,note_on,48,0,0
1,note_on,57,36,0
1,note_on,60,43,0
1,note_on,48,25,120
1,note_on,53,30,0
1,note_on,53,0,228
1,note_on,48,0,0
1,note_on,48,25,12
1,note_on,53,30,0
1,note_on,53,0,120
1,note_on,57,0,0
1,note_on,60,0,0
1,note_on,48,0,0
1,note_on,65,48,0
1,note_on,57,30,120
1,note_on,60,36,0
1,note_on,60,0,228
1,note_on,57,0,0
1,note_on,57,32,12
1,note_on,60,38,0
1,note_on,60,0,120
1,note_on,57,0,0
1,note_on,64,49,0
1,note_on,65,0,20
1,note_on,55,34,100
1,note_on,58,41,0
1,note_on,58,0,228
1,note_on,55,0,0
1,note_on,55,34,12
1,note_on,58,41,0
1,note_on,58,0,120
1,note_on,55,0,0
1,note_on,62,54,0
1,note_on,64,0,20
1,note_on,53,36,100
1,note_on,59,43,0
1,note_on,59,0,228
1,note_on,53,0,0
1,note_on,53,37,12
1,note_on,59,44,0
1,note_on,59,0,120
1,note_on,53,0,0
1,note_on,61,60,0
1,note_on,62,0,20
1,note_on,52,38,100
1,note_on,57,46,0
1,note_on,57,0,228
1,note_on,52,0,0
1,note_on,52,39,12
1,note_on,57,47,0
1,note_on,57,0,120
1,note_on,52,0,0
1,note_on,62,65,0
1,note_on,61,0,20
1,note_on,53,40,100
1,note_on,56,48,0
1,note_on,56,0,228
1,note_on,53,0,0
1,note_on,53,41,12
1,note_on,56,49,0
1,note_on,56,0,120
1,note_on,53,0,0
1,note_on,63,68,0
1,note_on,62,0,20
1,note_on,54,43,100
1,note_on,57,51,0
1,note_on,57,0,228
1,note_on,54,0,0
1,note_on,54,43,12
1,note_on,57,52,0
1,note_on,57,0,120
1,note_on,54,0,0
1,note_on,64,68,0
1,note_on,63,0,20
1,note_on,55,44,100
1,note_on,57,53,0
1,note_on,57,0,228
1,note_on,55,0,0
1,note_on,55,45,12
1,note_on,57,53,0
1,note_on,57,0,120
1,note_on,55,0,0
1,note_on,65,73,0
1,note_on,64,0,20
1,note_on,53,46,100
1,note_on,57,55,0
1,note_on,57,0,228
1,note_on,53,0,0
1,note_on,53,46,12
1,note_on,57,55,0
1,note_on,57,0,120
1,note_on,53,0,0
1,note_on,65,0,0
1,note_on,61,77,0
1,note_on,55,47,120
1,note_on,58,55,0
1,note_on,58,0,228
1,note_on,55,0,0
1,note_on,55,47,12
1,note_on,58,55,0
1,note_on,58,0,120
1,note_on,55,0,0
1,note_on,62,73,0
1,note_on,61,0,20
1,note_on,53,45,100
1,note_on,57,53,0
1,note_on,57,0,228
1,note_on,53,0,0
1,note_on,53,42,12
1,note_on,57,50,0
1,note_on,57,0,120
1,note_on,53,0,0
1,note_on,60,69,0
1,note_on,62,0,20
1,note_on,50,44,100
1,note_on,57,53,0
1,note_on,57,0,228
1,note_on,50,0,0
1,note_on,50,44,12
1,note_on,57,53,0
1,note_on,57,0,120
1,note_on,50,0,0
1,note_on,60,0,0
1,note_on,58,70,0
1,note_on,50,41,120
1,note_on,55,49,0
1,note_on,55,0,228
1,note_on,50,0,0
1,note_on,50,41,12
1,note_on,55,49,0
1,note_on,55,0,120
1,note_on,50,0,0
1,note_on,58,0,0
1,note_on,59,65,0
1,note_on,50,41,120
1,note_on,53,49,0
1,note_on,53,0,228
1,note_on,50,0,0
1,note_on,50,41,12
1,note_on,53,49,0
1,note_on,53,0,120
1,note_on,50,0,0
1,note_on,60,61,0
1,note_on,59,0,20
1,note_on,48,40,100
1,note_on,53,48,0
1,note_on,53,0,228
1,note_on,48,0,0
1,note_on,48,40,12
1,note_on,53,48,0
1,note_on,53,0,120
1,note_on,48,0,0
1,note_on,59,59,0
1,note_on,60,0,20
1,note_on,50,39,100
1,note_on,53,46,0
1,note_on,53,0,228
1,note_on,50,0,0
1,note_on,50,39,12
1,note_on,53,46,0
1,note_on,53,0,120
1,note_on,50,0,0
1,note_on,60,57,0
1,note_on,59,0,20
1,note_on,48,38,100
1,note_on,53,45,0
1,note_on,53,0,228
1,note_on,48,0,0
1,note_on,48,38,12
1,note_on,53,45,0
1,note_on,53,0,120
1,note_on,48,0,0
1,note_on,59,56,0
1,note_on,60,0,20
1,note_on,50,36,100
1,note_on,53,43,0
1,note_on,53,0,228
1,note_on,50,0,0
1,note_on,50,35,12
1,note_on,53,42,0
1,note_on,53,0,120
1,note_on,50,0,0
1,note_on,60,54,0
1,note_on,59,0,20
1,note_on,50,35,100
1,note_on,53,42,0
1,note_on,53,0,228
1,note_on,50,0,0
1,note_on,50,34,12
1,note_on,53,41,0
1,note_on,53,0,120
1,note_on,50,0,0
1,note_on,59,49,0
1,note_on,60,0,20
1,note_on,50,32,100
1,note_on,53,38,0
1,note_on,53,0,228
1,note_on,50,0,0
1,note_on,50,32,12
1,note_on,53,38,0
1,note_on,53,0,120
1,note_on,50,0,0
1,note_on,59,0,0
1,note_on,60,49,0
1,note_on,58,41,0
1,note_on,48,29,120
1,note_on,55,35,0
1,note_on,55,0,228
1,note_on,48,0,0
1,note_on,48,29,12
1,note_on,55,34,0
1,note_on,55,0,120
1,note_on,60,0,0
1,note_on,58,0,0
1,note_on,48,0,0
1,note_on,60,45,0
1,note_on,58,37,0
1,note_on,48,29,120
1,note_on,54,34,0
1,note_on,54,0,228
1,note_on,48,0,0
1,note_on,48,28,12
1,note_on,54,33,0
1,note_on,54,0,120
1,note_on,60,0,0
1,note_on,58,0,0
1,note_on,48,0,0
1,note_on,60,42,0
1,note_on,58,34,0
1,note_on,48,26,120
1,note_on,55,31,0
1,note_on,55,0,228
1,note_on,48,0,0
1,note_on,48,25,12
1,note_on,55,31,0
1,note_on,55,0,120
1,note_on,60,0,0
1,note_on,58,0,0
1,note_on,48,0,0
1,note_on,57,31,0
1,note_on,60,36,0
1,note_on,48,21,120
1,note_on,53,26,0
1,note_on,53,0,228
1,note_on,48,0,0
1,note_on,48,21,12
1,note_on,53,25,0
1,note_on,53,0,120
1,note_on,57,0,0
1,note_on,60,0,0
1,note_on,48,0,0
1,note_on,57,25,0
1,note_on,60,30,0
1,note_on,48,18,120
1,note_on,53,23,0
1,note_on,53,0,228
1,note_on,48,0,0
1,note_on,48,15,12
1,note_on,53,21,0
1,note_on,53,0,120
1,note_on,57,0,0
1,note_on,60,0,0
1,note_on,48,0,0
1,note_on,66,44,960
1,note_on,67,45,80
1,note_on,66,0,20
1,note_on,69,46,60
1,note_on,67,0,20
1,note_on,70,46,60
1,note_on,69,0,20
1,note_on,72,47,60
1,note_on,70,0,20
1,note_on,74,48,60
1,note_on,72,0,20
1,note_on,76,49,60
1,note_on,74,0,20
1,note_on,79,47,60
1,note_on,76,0,20
1,note_on,79,0,60
1,note_on,72,47,0
1,note_on,73,51,80
1,note_on,72,0,20
1,note_on,82,47,60
1,note_on,73,0,20
1,note_on,82,0,60
1,note_on,69,48,0
1,note_on,70,51,80
1,note_on,69,0,20
1,note_on,79,45,60
1,note_on,70,0,20
1,note_on,79,0,60
1,note_on,66,45,0
1,note_on,67,51,80
1,note_on,66,0,20
1,note_on,69,46,60
1,note_on,67,0,20
1,note_on,70,46,60
1,note_on,69,0,20
1,note_on,72,51,60
1,note_on,70,0,20
1,note_on,74,51,60
1,note_on,72,0,20
1,note_on,76,53,60
1,note_on,74,0,20
1,note_on,77,54,60
1,note_on,76,0,20
1,note_on,79,55,60
1,note_on,77,0,20
1,note_on,81,55,60
1,note_on,79,0,20
1,note_on,84,56,60
1,note_on,81,0,20
1,note_on,76,53,60
1,note_on,79,53,80
1,note_on,76,0,20
1,note_on,82,54,60
1,note_on,79,0,20
1,note_on,84,55,60
1,note_on,82,0,20
1,note_on,86,56,60
1,note_on,84,0,20
1,note_on,84,0,60
1,note_on,87,57,0
1,note_on,86,0,20
1,note_on,88,58,60
1,note_on,87,0,20
1,note_on,89,59,60
1,note_on,88,0,20
1,note_on,90,60,60
1,note_on,89,0,20
1,note_on,91,61,60
1,note_on,90,0,20
1,note_on,93,62,60
1,note_on,91,0,20
1,note_on,94,63,60
1,note_on,93,0,20
1,note_on,95,64,60
1,note_on,94,0,20
1,note_on,96,65,60
1,note_on,95,0,20
1,note_on,97,66,60
1,note_on,96,0,20
1,note_on,98,67,60
1,note_on,97,0,20
1,note_on,100,68,60
1,note_on,98,0,20
1,note_on,101,74,60
1,note_on,100,0,20
1,note_on,96,69,60
1,note_on,101,0,20
1,note_on,93,68,60
1,note_on,96,0,20
1,note_on,93,0,60
1,note_on,92,72,0
1,note_on,98,66,80
1,note_on,95,66,80
1,note_on,98,0,20
1,note_on,95,0,60
1,note_on,92,0,0
1,note_on,96,74,0
1,note_on,93,66,80
1,note_on,96,0,20
1,note_on,89,66,60
1,note_on,93,0,20
1,note_on,89,0,60
1,note_on,86,71,0
1,note_on,92,66,80
1,note_on,89,66,80
1,note_on,92,0,20
1,note_on,89,0,60
1,note_on,86,0,0
1,note_on,93,70,0
1,note_on,89,66,80
1,note_on,93,0,20
1,note_on,84,66,60
1,note_on,89,0,20
1,note_on,84,0,60
1,note_on,92,71,0
1,note_on,86,66,80
1,note_on,92,0,20
1,note_on,83,66,60
1,note_on,86,0,20
1,note_on,83,0,60
1,note_on,84,71,0
1,note_on,84,0,80
1,note_on,81,60,0
1,note_on,81,0,80
1,note_on,77,60,0
1,note_on,77,0,80
1,note_on,76,54,0
1,note_on,84,64,0
1,note_on,84,0,80
1,note_on,81,46,0
1,note_on,84,55,0
1,note_on,76,0,40
1,note_on,84,0,40
1,note_on,81,0,0
1,note_on,72,55,0
1,note_on,72,0,80
1,note_on,71,50,0
1,note_on,81,59,0
1,note_on,81,0,80
1,note_on,72,45,0
1,note_on,77,53,0
1,note_on,71,0,40
1,note_on,77,0,40
1,note_on,72,0,0
1,note_on,69,52,0
1,note_on,69,0,80
1,note_on,68,50,0
1,note_on,77,59,0
1,note_on,77,0,80
1,note_on,72,50,0
1,note_on,69,42,0
1,note_on,68,0,40
1,note_on,69,0,40
1,note_on,72,0,0
1,note_on,65,50,0
1,note_on,65,0,80
1,note_on,72,54,0
1,note_on,64,45,0
1,note_on,72,0,80
1,note_on,65,39,0
1,note_on,69,47,0
1,note_on,64,0,40
1,note_on,69,0,40
1,note_on,65,0,0
1,note_on,60,46,0
1,note_on,60,0,80
1,note_on,59,42,0
1,note_on,69,50,0
1,note_on,69,0,80
1,note_on,60,37,0
1,note_on,65,44,0
1,note_on,59,0,40
1,note_on,65,0,40
1,note_on,60,0,0
1,note_on,57,45,0
1,note_on,57,0,80
1,note_on,67,57,0
1,note_on,67,0,80
1,note_on,62,51,0
1,note_on,63,51,80
1,note_on,62,0,20
1,note_on,64,52,60
1,note_on,63,0,20
1,note_on,65,52,60
1,note_on,64,0,20
1,note_on,66,53,60
1,note_on,65,0,20
1,note_on,67,53,60
1,note_on,66,0,20
1,note_on,68,54,60
1,note_on,67,0,20
1,note_on,69,54,60
1,note_on,68,0,20
1,note_on,70,55,60
1,note_on,69,0,20
1,note_on,71,55,60
1,note_on,70,0,20
1,note_on,72,56,60
1,note_on,71,0,20
1,note_on,73,56,60
1,note_on,72,0,20
1,note_on,74,57,60
1,note_on,73,0,20
1,note_on,75,57,60
1,note_on,74,0,20
1,note_on,76,58,60
1,note_on,75,0,20
1,note_on,77,58,60
1,note_on,76,0,20
1,note_on,78,59,60
1,note_on,77,0,20
1,note_on,79,59,60
1,note_on,78,0,20
1,note_on,79,0,60
1,note_on,72,61,0
1,note_on,73,61,80
1,note_on,72,0,20
1,note_on,74,62,60
1,note_on,73,0,20
1,note_on,75,63,60
1,note_on,74,0,20
1,note_on,76,63,60
1,note_on,75,0,20
1,note_on,77,64,60
1,note_on,76,0,20
1,note_on,78,65,60
1,note_on,77,0,20
1,note_on,79,65,60
1,note_on,78,0,20
1,note_on,80,66,60
1,note_on,79,0,20
1,note_on,81,67,60
1,note_on,80,0,20
1,note_on,82,67,60
1,note_on,81,0,20
1,note_on,83,67,60
1,note_on,82,0,20
1,note_on,84,68,60
1,note_on,83,0,20
1,note_on,85,69,60
1,note_on,84,0,20
1,note_on,86,71,60
1,note_on,85,0,20
1,note_on,87,72,60
1,note_on,86,0,20
1,note_on,88,73,60
1,note_on,87,0,20
1,note_on,89,75,60
1,note_on,88,0,20
1,note_on,89,0,60
1,note_on,84,70,0
1,note_on,84,0,80
1,note_on,81,70,0
1,note_on,81,0,80
1,note_on,80,74,0
1,note_on,80,0,80
1,note_on,85,70,0
1,note_on,85,0,80
1,note_on,89,70,0
1,note_on,89,0,80
1,note_on,101,77,0
1,note_on,101,0,80
1,note_on,95,72,0
1,note_on,95,0,80
1,note_on,92,72,0
1,note_on,92,0,80
1,note_on,89,71,0
1,note_on,89,0,80
1,note_on,86,70,0
1,note_on,86,0,80
1,note_on,83,69,0
1,note_on,83,0,80
1,note_on,80,69,0
1,note_on,80,0,80
1,note_on,77,68,0
1,note_on,77,0,80
1,note_on,74,67,0
1,note_on,74,0,80
1,note_on,71,66,0
1,note_on,71,0,80
1,note_on,68,66,0
1,note_on,68,0,80
1,note_on,65,65,0
1,note_on,65,0,80
1,note_on,72,66,0
1,note_on,72,0,80
1,note_on,67,60,0
1,note_on,68,60,80
1,note_on,67,0,20
1,note_on,69,65,60
1,note_on,68,0,20
1,note_on,70,60,60
1,note_on,69,0,20
1,note_on,71,60,60
1,note_on,70,0,20
1,note_on,72,62,60
1,note_on,71,0,20
1,note_on,73,61,60
1,note_on,72,0,20
1,note_on,74,60,60
1,note_on,73,0,20
1,note_on,75,59,60
1,note_on,74,0,20
1,note_on,76,58,60
1,note_on,75,0,20
1,note_on,77,57,60
1,note_on,76,0,20
1,note_on,77,0,60
1,note_on,78,55,0
1,note_on,84,56,0
1,note_on,78,0,80
1,note_on,79,54,0
1,note_on,79,0,80
1,note_on,81,53,0
1,note_on,81,0,80
1,note_on,82,52,0
1,note_on,82,0,80
1,note_on,84,51,0
1,note_on,84,0,80
1,note_on,86,50,0
1,note_on,86,0,80
1,note_on,84,0,0
1,note_on,84,50,0
1,note_on,88,50,0
1,note_on,88,0,80
1,note_on,91,52,0
1,note_on,91,0,80
1,note_on,84,52,0
1,note_on,84,0,80
1,note_on,84,0,0
1,note_on,85,48,0
1,note_on,85,0,80
1,note_on,94,41,0
1,note_on,94,0,80
1,note_on,81,42,0
1,note_on,81,0,80
1,note_on,82,47,0
1,note_on,82,0,80
1,note_on,91,42,0
1,note_on,91,0,80
1,note_on,78,42,0
1,note_on,78,0,80
1,note_on,79,47,0
1,note_on,79,0,80
1,note_on,81,42,0
1,note_on,81,0,80
1,note_on,82,42,0
1,note_on,82,0,80
1,note_on,84,47,0
1,note_on,84,0,80
1,note_on,86,42,0
1,note_on,86,0,80
1,note_on,88,42,0
1,note_on,88,0,80
1,note_on,89,45,0
1,note_on,89,0,80
1,note_on,91,42,0
1,note_on,91,0,80
1,note_on,93,42,0
1,note_on,93,0,80
1,note_on,96,51,0
1,note_on,96,0,80
1,note_on,94,42,0
1,note_on,94,0,80
1,note_on,91,42,0
1,note_on,91,0,80
1,note_on,88,48,0
1,note_on,88,0,80
1,note_on,84,48,0
1,note_on,84,0,80
1,note_on,86,49,0
1,note_on,86,0,80
1,note_on,87,49,0
1,note_on,87,0,80
1,note_on,88,50,0
1,note_on,88,0,80
1,note_on,89,52,0
1,note_on,89,0,80
1,note_on,90,54,0
1,note_on,90,0,80
1,note_on,91,55,0
1,note_on,91,0,80
1,note_on,93,57,0
1,note_on,93,0,80
1,note_on,94,59,0
1,note_on,94,0,80
1,note_on,95,60,0
1,note_on,95,0,80
1,note_on,96,62,0
1,note_on,96,0,80
1,note_on,97,64,0
1,note_on,97,0,80
1,note_on,98,65,0
1,note_on,98,0,80
1,note_on,100,67,0
1,note_on,100,0,80
1,note_on,101,69,0
1,note_on,101,0,80
1,note_on,96,57,0
1,note_on,96,0,80
1,note_on,93,58,0
1,note_on,93,0,80
1,note_on,92,65,0
1,note_on,92,0,80
1,note_on,95,55,0
1,note_on,95,0,80
1,note_on,98,55,0
1,note_on,98,0,80
1,note_on,96,61,0
1,note_on,96,0,80
1,note_on,93,55,0
1,note_on,93,0,80
1,note_on,89,55,0
1,note_on,89,0,80
1,note_on,94,58,0
1,note_on,100,53,80
1,note_on,100,0,80
1,note_on,88,53,0
1,note_on,88,0,80
1,note_on,94,0,0
1,note_on,93,57,0
1,note_on,98,52,80
1,note_on,98,0,80
1,note_on,86,52,0
1,note_on,86,0,80
1,note_on,93,0,0
1,note_on,91,56,0
1,note_on,96,51,80
1,note_on,96,0,80
1,note_on,84,51,0
1,note_on,84,0,80
1,note_on,91,0,0
1,note_on,89,54,0
1,note_on,94,49,80
1,note_on,94,0,80
1,note_on,82,49,0
1,note_on,82,0,80
1,note_on,89,0,0
1,note_on,88,53,0
1,note_on,93,49,80
1,note_on,93,0,80
1,note_on,81,49,0
1,note_on,81,0,80
1,note_on,88,0,0
1,note_on,86,52,0
1,note_on,91,48,80
1,note_on,91,0,80
1,note_on,79,48,0
1,note_on,79,0,80
1,note_on,86,0,0
1,note_on,84,50,0
1,note_on,89,46,80
1,note_on,89,0,80
1,note_on,77,46,0
1,note_on,77,0,80
1,note_on,84,0,0
1,note_on,83,49,0
1,note_on,89,45,80
1,note_on,89,0,80
1,note_on,77,45,0
1,note_on,77,0,80
1,note_on,83,0,0
1,note_on,84,48,0
1,note_on,89,44,80
1,note_on,89,0,80
1,note_on,77,44,0
1,note_on,77,0,80
1,note_on,84,0,0
1,note_on,86,52,0
1,note_on,86,0,80
1,note_on,79,44,0
1,note_on,80,45,80
1,note_on,79,0,20
1,note_on,81,45,60
1,note_on,80,0,20
1,note_on,82,46,60
1,note_on,81,0,20
1,note_on,83,47,60
1,note_on,82,0,20
1,note_on,84,48,60
1,note_on,83,0,20
1,note_on,85,49,60
1,note_on,84,0,20
1,note_on,86,50,60
1,note_on,85,0,20
1,note_on,87,51,60
1,note_on,86,0,20
1,note_on,88,51,60
1,note_on,87,0,20
1,note_on,89,52,60
1,note_on,88,0,20
1,note_on,90,54,60
1,note_on,89,0,20
1,note_on,91,55,60
1,note_on,90,0,20
1,note_on,92,56,60
1,note_on,91,0,20
1,note_on,93,57,60
1,note_on,92,0,20
1,note_on,94,58,60
1,note_on,93,0,20
1,note_on,95,58,60
1,note_on,94,0,20
1,note_on,96,59,60
1,note_on,95,0,20
1,note_on,96,0,60
1,note_on,84,60,0
1,note_on,85,61,80
1,note_on,84,0,20
1,note_on,86,62,60
1,note_on,85,0,20
1,note_on,87,63,60
1,note_on,86,0,20
1,note_on,88,64,60
1,note_on,87,0,20
1,note_on,89,64,60
1,note_on,88,0,20
1,note_on,90,64,60
1,note_on,89,0,20
1,note_on,91,65,60
1,note_on,90,0,20
1,note_on,92,66,60
1,note_on,91,0,20
1,note_on,93,67,60
1,note_on,92,0,20
1,note_on,94,68,60
1,note_on,93,0,20
1,note_on,95,69,60
1,note_on,94,0,20
1,note_on,95,0,60
1,note_on,96,70,0
1,note_on,96,0,80
1,note_on,97,71,0
1,note_on,97,0,80
1,note_on,98,72,0
1,note_on,98,0,80
1,note_on,99,72,0
1,note_on,99,0,80
1,note_on,100,73,0
1,note_on,100,0,80
1,note_on,101,79,0
1,note_on,101,0,80
1,note_on,96,71,0
1,note_on,96,0,80
1,note_on,93,71,0
1,note_on,93,0,80
1,note_on,89,77,0
1,note_on,89,0,76
1,note_on,89,69,4
1,note_on,89,0,80
1,note_on,84,69,0
1,note_on,84,0,80
1,note_on,96,77,0
1,note_on,96,0,80
1,note_on,93,71,0
1,note_on,93,0,80
1,note_on,89,71,0
1,note_on,89,0,80
1,note_on,84,76,0
1,note_on,84,0,76
1,note_on,84,69,4
1,note_on,84,0,80
1,note_on,81,70,0
1,note_on,81,0,80
1,note_on,93,74,0
1,note_on,93,0,80
1,note_on,89,70,0
1,note_on,89,0,80
1,note_on,84,70,0
1,note_on,84,0,80
1,note_on,81,74,0
1,note_on,81,0,76
1,note_on,81,69,4
1,note_on,81,0,80
1,note_on,77,70,0
1,note_on,77,0,76
1,note_on,89,74,4
1,note_on,89,0,240
1,note_on,57,72,0
1,note_on,57,0,80
1,note_on,60,67,0
1,note_on,60,0,80
1,note_on,65,68,0
1,note_on,65,0,80
1,note_on,69,75,240
1,note_on,69,0,80
1,note_on,72,71,0
1,note_on,72,0,80
1,note_on,77,70,0
1,note_on,77,0,80
1,note_on,81,74,0
1,note_on,81,0,80
1,note_on,84,72,0
1,note_on,84,0,80
1,note_on,89,72,0
1,note_on,89,0,80
1,note_on,93,54,0
1,note_on,91,53,80
1,note_on,93,0,20
1,note_on,89,52,60
1,note_on,91,0,20
1,note_on,88,49,60
1,note_on,89,0,20
1,note_on,89,47,60
1,note_on,88,0,20
1,note_on,91,47,60
1,note_on,89,0,20
1,note_on,91,0,60
1,note_on,79,51,0
1,note_on,82,47,80
1,note_on,79,0,20
1,note_on,84,48,60
1,note_on,82,0,20
1,note_on,85,55,60
1,note_on,84,0,20
1,note_on,88,45,60
1,note_on,85,0,20
1,note_on,91,45,60
1,note_on,88,0,20
1,note_on,91,0,60
1,note_on,79,51,0
1,note_on,82,46,80
1,note_on,79,0,20
1,note_on,84,46,60
1,note_on,82,0,20
1,note_on,85,56,60
1,note_on,84,0,20
1,note_on,88,50,60
1,note_on,85,0,20
1,note_on,91,50,60
1,note_on,88,0,20
1,note_on,91,0,60
1,note_on,79,54,0
1,note_on,82,50,80
1,note_on,79,0,20
1,note_on,89,50,60
1,note_on,82,0,20
1,note_on,88,49,60
1,note_on,89,0,20
1,note_on,87,47,60
1,note_on,88,0,20
1,note_on,88,47,60
1,note_on,87,0,20
1,note_on,100,48,60
1,note_on,88,0,20
1,note_on,97,44,60
1,note_on,100,0,20
1,note_on,91,44,60
1,note_on,97,0,20
1,note_on,91,0,60
1,note_on,88,50,0
1,note_on,85,40,80
1,note_on,88,0,20
1,note_on,88,40,60
1,note_on,85,0,20
1,note_on,76,45,60
1,note_on,88,0,20
1,note_on,73,40,60
1,note_on,76,0,20
1,note_on,76,40,60
1,note_on,73,0,20
1,note_on,76,0,60
1,note_on,64,48,0
1,note_on,64,0,80
1,note_on,61,42,0
1,note_on,61,0,80
1,note_on,64,42,0
1,note_on,64,0,80
1,note_on,57,44,0
1,note_on,59,41,80
1,note_on,57,0,20
1,note_on,61,40,60
1,note_on,59,0,20
1,note_on,62,41,60
1,note_on,61,0,20
1,note_on,69,39,60
1,note_on,62,0,20
1,note_on,66,39,60
1,note_on,69,0,20
1,note_on,66,0,60
1,note_on,57,43,0
1,note_on,60,39,80
1,note_on,57,0,20
1,note_on,63,40,60
1,note_on,60,0,20
1,note_on,62,46,60
1,note_on,63,0,20
1,note_on,69,38,60
1,note_on,62,0,20
1,note_on,66,38,60
1,note_on,69,0,20
1,note_on,66,0,60
1,note_on,57,43,0
1,note_on,60,39,80
1,note_on,57,0,20
1,note_on,63,39,60
1,note_on,60,0,20
1,note_on,62,47,60
1,note_on,63,0,20
1,note_on,69,42,60
1,note_on,62,0,20
1,note_on,66,42,60
1,note_on,69,0,20
1,note_on,66,0,60
1,note_on,57,45,0
1,note_on,60,42,80
1,note_on,57,0,20
1,note_on,63,42,60
1,note_on,60,0,20
1,note_on,62,46,60
1,note_on,63,0,20
1,note_on,62,0,60
1,note_on,65,47,0
1,note_on,65,0,80
1,note_on,68,49,0
1,note_on,68,0,80
1,note_on,71,50,0
1,note_on,71,0,80
1,note_on,74,51,0
1,note_on,74,0,80
1,note_on,77,53,0
1,note_on,77,0,80
1,note_on,80,54,0
1,note_on,80,0,80
1,note_on,77,55,0
1,note_on,77,0,80
1,note_on,80,57,0
1,note_on,80,0,80
1,note_on,83,58,0
1,note_on,83,0,80
1,note_on,86,59,0
1,note_on,86,0,80
1,note_on,89,61,0
1,note_on,89,0,80
1,note_on,92,62,0
1,note_on,92,0,80
1,note_on,85,63,0
1,note_on,85,0,80
1,note_on,86,65,0
1,note_on,86,0,80
1,note_on,89,66,0
1,note_on,89,0,80
1,note_on,92,67,0
1,note_on,92,0,80
1,note_on,95,72,0
1,note_on,98,65,50
1,note_on,98,0,30
1,note_on,95,0,0
1,note_on,101,74,0
1,note_on,101,0,80
1,note_on,100,72,0
1,note_on,100,0,80
1,note_on,98,70,0
1,note_on,98,0,80
1,note_on,96,68,0
1,note_on,96,0,80
1,note_on,94,64,0
1,note_on,94,0,80
1,note_on,98,65,0
1,note_on,98,0,80
1,note_on,91,66,0
1,note_on,91,0,80
1,note_on,88,61,0
1,note_on,88,0,80
1,note_on,96,61,0
1,note_on,96,0,80
1,note_on,84,65,0
1,note_on,84,0,80
1,note_on,82,60,0
1,note_on,82,0,80
1,note_on,86,60,0
1,note_on,86,0,80
1,note_on,79,57,0
1,note_on,79,0,80
1,note_on,76,51,0
1,note_on,76,0,80
1,note_on,84,51,0
1,note_on,84,0,80
1,note_on,72,55,0
1,note_on,72,0,80
1,note_on,74,49,0
1,note_on,74,0,80
1,note_on,76,49,0
1,note_on,76,0,80
1,note_on,77,52,0
1,note_on,77,0,80
1,note_on,81,48,0
1,note_on,81,0,80
1,note_on,82,48,0
1,note_on,82,0,80
1,note_on,84,52,0
1,note_on,84,0,80
1,note_on,89,48,0
1,note_on,89,0,80
1,note_on,93,48,0
1,note_on,93,0,80
1,note_on,96,59,0
1,note_on,96,0,80
1,note_on,94,53,0
1,note_on,94,0,80
1,note_on,93,53,0
1,note_on,93,0,50
1,note_on,94,53,0
1,note_on,94,0,30
1,note_on,93,58,0
1,note_on,93,0,80
1,note_on,91,53,0
1,note_on,91,0,80
1,note_on,89,53,0
1,note_on,89,0,50
1,note_on,91,58,0
1,note_on,91,0,30
1,note_on,89,60,0
1,note_on,89,0,80
1,note_on,88,53,0
1,note_on,88,0,80
1,note_on,86,53,0
1,note_on,86,0,50
1,note_on,88,58,0
1,note_on,88,0,30
1,note_on,86,59,0
1,note_on,86,0,80
1,note_on,84,52,0
1,note_on,84,0,80
1,note_on,83,52,0
1,note_on,83,0,50
1,note_on,84,53,0
1,note_on,84,0,30
1,note_on,93,57,0
1,note_on,93,0,120
1,note_on,89,56,40
1,note_on,89,0,80
1,note_on,84,56,0
1,note_on,84,0,80
1,note_on,81,56,0
1,note_on,81,0,80
1,note_on,77,55,0
1,note_on,77,0,80
1,note_on,72,55,0
1,note_on,72,0,80
1,note_on,84,54,0
1,note_on,84,0,80
1,note_on,81,54,0
1,note_on,81,0,80
1,note_on,77,53,0
1,note_on,77,0,80
1,note_on,72,53,0
1,note_on,72,0,80
1,note_on,69,53,0
1,note_on,69,0,80
1,note_on,72,52,0
1,note_on,72,0,80
1,note_on,67,52,0
1,note_on,67,0,80
1,note_on,64,51,0
1,note_on,64,0,80
1,note_on,60,51,0
1,note_on,60,0,80
1,note_on,58,50,0
1,note_on,58,0,80
1,note_on,55,50,0
1,note_on,55,0,80
1,note_on,53,50,0
1,note_on,53,0,76
1,note_on,53,51,4
1,note_on,53,0,80
1,note_on,57,52,0
1,note_on,57,0,80
1,note_on,65,53,0
1,note_on,65,0,76
1,note_on,65,55,4
1,note_on,65,0,80
1,note_on,69,56,0
1,note_on,69,0,80
1,note_on,77,57,0
1,note_on,77,0,76
1,note_on,77,58,4
1,note_on,77,0,80
1,note_on,81,60,0
1,note_on,81,0,80
1,note_on,89,61,0
1,note_on,89,0,76
1,note_on,89,62,4
1,note_on,89,0,80
1,note_on,93,63,0
1,note_on,93,0,80
1,note_on,101,71,0
1,note_on,101,0,240
1,note_on,93,54,0
1,note_on,91,53,80
1,note_on,93,0,20
1,note_on,89,52,60
1,note_on,91,0,20
1,note_on,88,49,60
1,note_on,89,0,20
1,note_on,89,47,60
1,note_on,88,0,20
1,note_on,91,47,60
1,note_on,89,0,20
1,note_on,91,0,60
1,note_on,79,51,0
1,note_on,82,47,80
1,note_on,79,0,20
1,note_on,84,48,60
1,note_on,82,0,20
1,note_on,85,55,60
1,note_on,84,0,20
1,note_on,88,45,60
1,note_on,85,0,20
1,note_on,91,45,60
1,note_on,88,0,20
1,note_on,91,0,60
1,note_on,79,51,0
1,note_on,82,46,80
1,note_on,79,0,20
1,note_on,84,46,60
1,note_on,82,0,20
1,note_on,85,56,60
1,note_on,84,0,20
1,note_on,88,50,60
1,note_on,85,0,20
1,note_on,91,50,60
1,note_on,88,0,20
1,note_on,91,0,60
1,note_on,79,54,0
1,note_on,82,50,80
1,note_on,79,0,20
1,note_on,89,50,60
1,note_on,82,0,20
1,note_on,88,49,60
1,note_on,89,0,20
1,note_on,87,47,60
1,note_on,88,0,20
1,note_on,88,47,60
1,note_on,87,0,20
1,note_on,100,48,60
1,note_on,88,0,20
1,note_on,97,44,60
1,note_on,100,0,20
1,note_on,91,44,60
1,note_on,97,0,20
1,note_on,91,0,60
1,note_on,88,50,0
1,note_on,85,40,80
1,note_on,88,0,20
1,note_on,88,40,60
1,note_on,85,0,20
1,note_on,76,45,60
1,note_on,88,0,20
1,note_on,73,40,60
1,note_on,76,0,20
1,note_on,76,40,60
1,note_on,73,0,20
1,note_on,76,0,60
1,note_on,64,48,0
1,note_on,64,0,80
1,note_on,61,42,0
1,note_on,61,0,80
1,note_on,64,42,0
1,note_on,64,0,80
1,note_on,57,44,0
1,note_on,59,41,80
1,note_on,57,0,20
1,note_on,61,40,60
1,note_on,59,0,20
1,note_on,62,41,60
1,note_on,61,0,20
1,note_on,69,39,60
1,note_on,62,0,20
1,note_on,66,39,60
1,note_on,69,0,20
1,note_on,66,0,60
1,note_on,57,43,0
1,note_on,60,39,80
1,note_on,57,0,20
1,note_on,63,40,60
1,note_on,60,0,20
1,note_on,62,46,60
1,note_on,63,0,20
1,note_on,69,38,60
1,note_on,62,0,20
1,note_on,66,38,60
1,note_on,69,0,20
1,note_on,66,0,60
1,note_on,57,43,0
1,note_on,60,39,80
1,note_on,57,0,20
1,note_on,63,39,60
1,note_on,60,0,20
1,note_on,62,47,60
1,note_on,63,0,20
1,note_on,69,42,60
1,note_on,62,0,20
1,note_on,66,42,60
1,note_on,69,0,20
1,note_on,66,0,60
1,note_on,57,45,0
1,note_on,60,42,80
1,note_on,57,0,20
1,note_on,63,42,60
1,note_on,60,0,20
1,note_on,62,46,60
1,note_on,63,0,20
1,note_on,62,0,60
1,note_on,65,47,0
1,note_on,65,0,80
1,note_on,68,49,0
1,note_on,68,0,80
1,note_on,71,50,0
1,note_on,71,0,80
1,note_on,74,51,0
1,note_on,74,0,80
1,note_on,77,53,0
1,note_on,77,0,80
1,note_on,80,54,0
1,note_on,80,0,80
1,note_on,77,55,0
1,note_on,77,0,80
1,note_on,80,57,0
1,note_on,80,0,80
1,note_on,83,58,0
1,note_on,83,0,80
1,note_on,86,59,0
1,note_on,86,0,80
1,note_on,89,61,0
1,note_on,89,0,80
1,note_on,92,62,0
1,note_on,92,0,80
1,note_on,85,63,0
1,note_on,85,0,80
1,note_on,86,65,0
1,note_on,86,0,80
1,note_on,89,66,0
1,note_on,89,0,80
1,note_on,92,67,0
1,note_on,92,0,80
1,note_on,95,72,0
1,note_on,98,65,50
1,note_on,98,0,30
1,note_on,95,0,0
1,note_on,101,74,0
1,note_on,101,0,80
1,note_on,100,72,0
1,note_on,100,0,80
1,note_on,98,70,0
1,note_on,98,0,80
1,note_on,96,68,0
1,note_on,96,0,80
1,note_on,94,64,0
1,note_on,94,0,80
1,note_on,98,65,0
1,note_on,98,0,80
1,note_on,91,66,0
1,note_on,91,0,80
1,note_on,88,61,0
1,note_on,88,0,80
1,note_on,96,61,0
1,note_on,96,0,80
1,note_on,84,65,0
1,note_on,84,0,80
1,note_on,82,60,0
1,note_on,82,0,80
1,note_on,86,60,0
1,note_on,86,0,80
1,note_on,79,57,0
1,note_on,79,0,80
1,note_on,76,51,0
1,note_on,76,0,80
1,note_on,84,51,0
1,note_on,84,0,80
1,note_on,72,55,0
1,note_on,72,0,80
1,note_on,74,49,0
1,note_on,74,0,80
1,note_on,76,49,0
1,note_on,76,0,80
1,note_on,77,52,0
1,note_on,77,0,80
1,note_on,81,48,0
1,note_on,81,0,80
1,note_on,82,48,0
1,note_on,82,0,80
1,note_on,84,52,0
1,note_on,84,0,80
1,note_on,89,48,0
1,note_on,89,0,80
1,note_on,93,48,0
1,note_on,93,0,80
1,note_on,96,59,0
1,note_on,96,0,80
1,note_on,94,53,0
1,note_on,94,0,80
1,note_on,93,53,0
1,note_on,93,0,50
1,note_on,94,53,0
1,note_on,94,0,30
1,note_on,93,58,0
1,note_on,93,0,80
1,note_on,91,53,0
1,note_on,91,0,80
1,note_on,89,53,0
1,note_on,89,0,50
1,note_on,91,58,0
1,note_on,91,0,30
1,note_on,89,60,0
1,note_on,89,0,80
1,note_on,88,53,0
1,note_on,88,0,80
1,note_on,86,53,0
1,note_on,86,0,50
1,note_on,88,58,0
1,note_on,88,0,30
1,note_on,86,59,0
1,note_on,86,0,80
1,note_on,84,52,0
1,note_on,84,0,80
1,note_on,83,52,0
1,note_on,83,0,50
1,note_on,84,53,0
1,note_on,84,0,30
1,note_on,93,57,0
1,note_on,93,0,120
1,note_on,89,56,40
1,note_on,89,0,80
1,note_on,84,56,0
1,note_on,84,0,80
1,note_on,81,56,0
1,note_on,81,0,80
1,note_on,77,55,0
1,note_on,77,0,80
1,note_on,72,55,0
1,note_on,72,0,80
1,note_on,84,54,0
1,note_on,84,0,80
1,note_on,81,54,0
1,note_on,81,0,80
1,note_on,77,53,0
1,note_on,77,0,80
1,note_on,72,53,0
1,note_on,72,0,80
1,note_on,69,53,0
1,note_on,69,0,80
1,note_on,72,52,0
1,note_on,72,0,80
1,note_on,67,52,0
1,note_on,67,0,80
1,note_on,64,51,0
1,note_on,64,0,80
1,note_on,60,51,0
1,note_on,60,0,80
1,note_on,58,50,0
1,note_on,58,0,80
1,note_on,55,50,0
1,note_on,55,0,80
1,note_on,53,50,0
1,note_on,53,0,80
1,note_on,57,51,0
1,note_on,57,0,80
1,note_on,60,52,0
1,note_on,60,0,80
1,note_on,65,52,0
1,note_on,65,0,60
1,note_on,69,52,0
1,note_on,69,0,60
1,note_on,72,53,0
1,note_on,72,0,60
1,note_on,77,53,0
1,note_on,77,0,60
1,note_on,77,53,120
1,note_on,81,56,30
1,note_on,84,60,30
1,note_on,89,63,30
1,note_on,89,0,30
1,note_on,77,0,0
1,note_on,81,0,0
1,note_on,84,0,0
1,note_on,86,50,2160
1,note_on,74,42,0
1,note_on,74,0,720
1,note_on,86,0,0
1,note_on,87,53,0
1,note_on,75,45,0
1,note_on,75,0,720
1,note_on,87,0,0
1,note_on,92,58,0
1,note_on,80,49,0
1,note_on,80,0,720
1,note_on,92,0,0
1,note_on,96,63,0
1,note_on,84,52,0
1,note_on,84,0,720
1,note_on,96,0,0
1,note_on,89,60,0
1,note_on,101,70,0
1,note_on,101,0,1440
1,note_on,89,0,0
1,note_on,99,60,0
1,note_on,87,50,0
1,note_on,87,0,720
1,note_on,99,0,0
1,note_on,97,55,0
1,note_on,85,47,0
1,note_on,85,0,480
1,note_on,97,0,0
1,note_on,85,47,0
1,note_on,85,0,120
1,note_on,89,45,0
1,note_on,84,33,0
1,note_on,84,0,120
1,note_on,83,33,0
1,note_on,83,0,120
1,note_on,89,0,0
1,note_on,89,45,0
1,note_on,82,32,0
1,note_on,82,0,120
1,note_on,81,32,0
1,note_on,81,0,120
1,note_on,89,0,0
1,note_on,89,44,0
1,note_on,80,32,0
1,note_on,80,0,120
1,note_on,79,32,0
1,note_on,79,0,120
1,note_on,89,0,0
1,note_on,82,44,0
1,note_on,78,32,0
1,note_on,78,0,120
1,note_on,77,31,0
1,note_on,77,0,120
1,note_on,82,0,0
1,note_on,82,43,0
1,note_on,76,31,0
1,note_on,76,0,120
1,note_on,75,30,0
1,note_on,75,0,120
1,note_on,82,0,0
1,note_on,82,42,0
1,note_on,74,30,0
1,note_on,74,0,120
1,note_on,73,30,0
1,note_on,73,0,120
1,note_on,82,0,0
1,note_on,82,41,0
1,note_on,72,29,0
1,note_on,72,0,120
1,note_on,72,37,0
1,note_on,72,0,60
1,note_on,70,32,0
1,note_on,70,0,60
1,note_on,82,0,0
1,note_on,72,37,0
1,note_on,72,0,60
1,note_on,70,32,0
1,note_on,70,0,60
1,note_on,72,37,0
1,note_on,72,0,60
1,note_on,70,32,0
1,note_on,70,0,60
1,note_on,72,37,0
1,note_on,72,0,60
1,note_on,70,31,0
1,note_on,70,0,60
1,note_on,72,37,0
1,note_on,72,0,60
1,note_on,70,32,0
1,note_on,70,0,60
1,note_on,72,37,0
1,note_on,72,0,60
1,note_on,70,32,0
1,note_on,70,0,60
1,note_on,72,37,0
1,note_on,72,0,60
1,note_on,70,33,0
1,note_on,70,0,60
1,note_on,72,37,0
1,note_on,72,0,60
1,note_on,70,33,0
1,note_on,70,0,60
1,note_on,72,37,0
1,note_on,72,0,60
1,note_on,70,31,0
1,note_on,70,0,60
1,note_on,72,37,0
1,note_on,72,0,60
1,note_on,70,31,0
1,note_on,70,0,60
1,note_on,72,37,0
1,note_on,72,0,60
1,note_on,70,32,0
1,note_on,70,0,60
1,note_on,72,37,0
1,note_on,72,0,60
1,note_on,70,32,0
1,note_on,70,0,60
1,note_on,72,37,0
1,note_on,75,50,0
1,note_on,72,0,60
1,note_on,70,31,0
1,note_on,70,0,60
1,note_on,72,36,0
1,note_on,72,0,60
1,note_on,70,27,0
1,note_on,70,0,60
1,note_on,72,34,0
1,note_on,72,0,60
1,note_on,70,28,0
1,note_on,70,0,60
1,note_on,72,32,0
1,note_on,72,0,60
1,note_on,70,27,0
1,note_on,70,0,60
1,note_on,72,31,0
1,note_on,72,0,60
1,note_on,70,26,0
1,note_on,70,0,60
1,note_on,72,29,0
1,note_on,72,0,60
1,note_on,70,23,0
1,note_on,70,0,60
1,note_on,75,0,0
1,note_on,74,51,0
1,note_on,71,29,0
1,note_on,71,0,60
1,note_on,70,26,0
1,note_on,70,0,60
1,note_on,71,30,0
1,note_on,71,0,60
1,note_on,70,27,0
1,note_on,70,0,60
1,note_on,71,31,0
1,note_on,71,0,60
1,note_on,70,27,0
1,note_on,70,0,60
1,note_on,71,32,0
1,note_on,71,0,60
1,note_on,70,27,0
1,note_on,70,0,60
1,note_on,71,33,0
1,note_on,71,0,60
1,note_on,70,28,0
1,note_on,70,0,60
1,note_on,71,34,0
1,note_on,71,0,60
1,note_on,70,29,0
1,note_on,70,0,60
1,note_on,74,0,0
1,note_on,77,56,0
1,note_on,71,35,0
1,note_on,71,0,60
1,note_on,70,31,0
1,note_on,70,0,60
1,note_on,71,36,0
1,note_on,71,0,60
1,note_on,70,32,0
1,note_on,70,0,60
1,note_on,71,36,0
1,note_on,71,0,60
1,note_on,70,31,0
1,note_on,70,0,60
1,note_on,71,37,0
1,note_on,71,0,60
1,note_on,70,31,0
1,note_on,70,0,60
1,note_on,71,37,0
1,note_on,71,0,60
1,note_on,70,32,0
1,note_on,70,0,60
1,note_on,71,37,0
1,note_on,71,0,60
1,note_on,70,32,0
1,note_on,70,0,60
1,note_on,77,0,0
1,note_on,71,37,0
1,note_on,80,59,0
1,note_on,71,0,60
1,note_on,70,32,0
1,note_on,70,0,60
1,note_on,71,37,0
1,note_on,71,0,60
1,note_on,70,33,0
1,note_on,70,0,60
1,note_on,71,37,0
1,note_on,71,0,60
1,note_on,70,32,0
1,note_on,70,0,60
1,note_on,71,37,0
1,note_on,71,0,60
1,note_on,70,32,0
1,note_on,70,0,60
1,note_on,71,37,0
1,note_on,71,0,60
1,note_on,70,32,0
1,note_on,70,0,60
1,note_on,71,37,0
1,note_on,71,0,60
1,note_on,70,31,0
1,note_on,70,0,60
1,note_on,80,0,0
1,note_on,80,61,0
1,note_on,71,37,0
1,note_on,71,0,60
1,note_on,70,31,0
1,note_on,70,0,60
1,note_on,71,36,0
1,note_on,71,0,60
1,note_on,70,31,0
1,note_on,70,0,60
1,note_on,71,36,0
1,note_on,71,0,60
1,note_on,70,30,0
1,note_on,70,0,60
1,note_on,71,36,0
1,note_on,71,0,60
1,note_on,70,29,0
1,note_on,70,0,60
1,note_on,71,35,0
1,note_on,71,0,60
1,note_on,70,29,0
1,note_on,70,0,60
1,note_on,71,35,0
1,note_on,71,0,60
1,note_on,70,29,0
1,note_on,70,0,60
1,note_on,71,34,0
1,note_on,71,0,60
1,note_on,70,29,0
1,note_on,70,0,60
1,note_on,71,33,0
1,note_on,71,0,60
1,note_on,70,29,0
1,note_on,70,0,60
1,note_on,71,33,0
1,note_on,71,0,60
1,note_on,70,27,0
1,note_on,70,0,60
1,note_on,71,32,0
1,note_on,71,0,60
1,note_on,70,27,0
1,note_on,70,0,60
1,note_on,71,32,0
1,note_on,71,0,60
1,note_on,70,27,0
1,note_on,70,0,60
1,note_on,71,31,0
1,note_on,71,0,60
1,note_on,70,27,0
1,note_on,70,0,60
1,note_on,80,0,0
1,note_on,74,50,0
1,note_on,71,30,0
1,note_on,71,0,60
1,note_on,70,26,0
1,note_on,70,0,60
1,note_on,71,30,0
1,note_on,71,0,60
1,note_on,70,26,0
1,note_on,70,0,60
1,note_on,71,22,0
1,note_on,71,0,60
1,note_on,70,24,0
1,note_on,70,0,60
1,note_on,71,27,0
1,note_on,71,0,60
1,note_on,70,24,0
1,note_on,70,0,60
1,note_on,71,27,0
1,note_on,71,0,60
1,note_on,70,24,0
1,note_on,70,0,60
1,note_on,71,27,0
1,note_on,71,0,60
1,note_on,70,23,0
1,note_on,70,0,60
1,note_on,74,0,0
1,note_on,75,51,0
1,note_on,72,29,0
1,note_on,72,0,60
1,note_on,70,26,0
1,note_on,70,0,60
1,note_on,72,30,0
1,note_on,72,0,60
1,note_on,70,26,0
1,note_on,70,0,60
1,note_on,72,30,0
1,note_on,72,0,60
1,note_on,70,27,0
1,note_on,70,0,60
1,note_on,72,31,0
1,note_on,72,0,60
1,note_on,70,26,0
1,note_on,70,0,60
1,note_on,72,32,0
1,note_on,72,0,60
1,note_on,70,27,0
1,note_on,70,0,60
1,note_on,72,32,0
1,note_on,72,0,60
1,note_on,70,28,0
1,note_on,70,0,60
1,note_on,75,0,0
1,note_on,79,56,0
1,note_on,72,33,0
1,note_on,72,0,60
1,note_on,70,29,0
1,note_on,70,0,60
1,note_on,72,34,0
1,note_on,72,0,60
1,note_on,70,30,0
1,note_on,70,0,60
1,note_on,72,35,0
1,note_on,72,0,60
1,note_on,70,28,0
1,note_on,70,0,60
1,note_on,72,35,0
1,note_on,72,0,60
1,note_on,70,29,0
1,note_on,70,0,60
1,note_on,72,36,0
1,note_on,72,0,60
1,note_on,70,30,0
1,note_on,70,0,60
1,note_on,72,36,0
1,note_on,72,0,60
1,note_on,70,31,0
1,note_on,70,0,60
1,note_on,79,0,0
1,note_on,72,36,0
1,note_on,82,59,0
1,note_on,72,0,60
1,note_on,70,32,0
1,note_on,70,0,60
1,note_on,72,37,0
1,note_on,72,0,60
1,note_on,70,32,0
1,note_on,70,0,60
1,note_on,72,37,0
1,note_on,72,0,60
1,note_on,70,32,0
1,note_on,70,0,60
1,note_on,72,37,0
1,note_on,72,0,60
1,note_on,70,32,0
1,note_on,70,0,60
1,note_on,72,37,0
1,note_on,72,0,60
1,note_on,70,32,0
1,note_on,70,0,60
1,note_on,72,37,0
1,note_on,72,0,60
1,note_on,70,31,0
1,note_on,70,0,60
1,note_on,82,0,0
1,note_on,70,55,0
1,note_on,82,61,0
1,note_on,82,0,600
1,note_on,70,0,0
1,note_on,69,43,0
1,note_on,69,0,60
1,note_on,70,46,0
1,note_on,70,0,60
1,note_on,71,48,0
1,note_on,71,0,72
1,note_on,72,49,0
1,note_on,72,0,68
1,note_on,73,50,0
1,note_on,73,0,68
1,note_on,74,50,0
1,note_on,74,0,68
1,note_on,75,51,0
1,note_on,75,0,68
1,note_on,76,52,0
1,note_on,76,0,68
1,note_on,77,53,0
1,note_on,77,0,68
1,note_on,78,53,0
1,note_on,78,0,60
1,note_on,79,54,0
1,note_on,79,0,60
1,note_on,80,55,0
1,note_on,80,0,60
1,note_on,81,55,0
1,note_on,81,0,60
1,note_on,82,56,0
1,note_on,82,0,96
1,note_on,83,57,0
1,note_on,83,0,96
1,note_on,84,58,0
1,note_on,84,0,96
1,note_on,85,59,0
1,note_on,85,0,96
1,note_on,86,60,0
1,note_on,86,0,96
1,note_on,87,61,0
1,note_on,87,0,48
1,note_on,87,61,0
1,note_on,87,0,48
1,note_on,87,62,0
1,note_on,87,0,48
1,note_on,87,62,0
1,note_on,87,0,48
1,note_on,87,62,4
1,note_on,87,62,44
1,note_on,87,0,4
1,note_on,87,0,56
1,note_on,91,57,60
1,note_on,91,0,60
1,note_on,89,57,60
1,note_on,89,0,60
1,note_on,87,57,60
1,note_on,87,0,60
1,note_on,86,56,60
1,note_on,86,0,60
1,note_on,84,57,60
1,note_on,84,0,60
1,note_on,82,62,60
1,note_on,82,0,120
1,note_on,81,54,0
1,note_on,81,0,120
1,note_on,84,57,0
1,note_on,84,0,120
1,note_on,82,56,0
1,note_on,82,0,120
1,note_on,80,55,0
1,note_on,80,0,120
1,note_on,79,54,0
1,note_on,79,0,120
1,note_on,76,50,0
1,note_on,76,0,60
1,note_on,77,50,0
1,note_on,77,0,60
1,note_on,76,50,0
1,note_on,76,0,60
1,note_on,77,50,0
1,note_on,77,0,60
1,note_on,76,50,0
1,note_on,76,0,60
1,note_on,77,50,0
1,note_on,77,0,60
1,note_on,76,50,0
1,note_on,76,0,60
1,note_on,77,52,0
1,note_on,77,0,60
1,note_on,80,56,0
1,note_on,80,0,180
1,note_on,79,52,0
1,note_on,79,0,60
1,note_on,70,53,0
1,note_on,72,49,480
1,note_on,72,0,120
1,note_on,74,50,0
1,note_on,74,0,120
1,note_on,75,53,0
1,note_on,75,0,240
1,note_on,69,44,420
1,note_on,69,0,60
1,note_on,70,0,0
1,note_on,73,55,0
1,note_on,69,53,0
1,note_on,73,0,480
1,note_on,72,53,0
1,note_on,77,56,240
1,note_on,72,0,720
1,note_on,69,0,0
1,note_on,70,53,0
1,note_on,70,0,720
1,note_on,77,0,0
1,note_on,45,46,0
1,note_on,45,0,60
1,note_on,48,47,0
1,note_on,48,0,60
1,note_on,51,47,0
1,note_on,51,0,60
1,note_on,53,48,0
1,note_on,53,0,60
1,note_on,54,49,0
1,note_on,54,0,60
1,note_on,57,50,0
1,note_on,57,0,60
1,note_on,60,50,0
1,note_on,60,0,60
1,note_on,63,51,0
1,note_on,63,0,57
1,note_on,65,52,3
1,note_on,65,0,48
1,note_on,66,52,0
1,note_on,66,0,48
1,note_on,69,53,0
1,note_on,69,0,48
1,note_on,72,54,0
1,note_on,72,0,48
1,note_on,78,54,0
1,note_on,78,0,48
1,note_on,77,57,0
1,note_on,77,0,480
1,note_on,76,52,0
1,note_on,76,0,40
1,note_on,77,47,0
1,note_on,77,0,40
1,note_on,76,51,0
1,note_on,76,0,40
1,note_on,77,47,0
1,note_on,77,0,40
1,note_on,76,51,0
1,note_on,76,0,40
1,note_on,77,46,0
1,note_on,77,0,40
1,note_on,82,53,0
1,note_on,82,0,480
1,note_on,82,53,0
1,note_on,82,0,120
1,note_on,83,56,0
1,note_on,83,0,120
1,note_on,84,55,0
1,note_on,84,0,60
1,note_on,83,55,0
1,note_on,83,0,60
1,note_on,84,56,0
1,note_on,84,0,60
1,note_on,83,57,0
1,note_on,83,0,60
1,note_on,84,58,0
1,note_on,84,0,60
1,note_on,83,59,0
1,note_on,83,0,60
1,note_on,84,60,0
1,note_on,84,0,60
1,note_on,83,60,0
1,note_on,83,0,60
1,note_on,84,62,0
1,note_on,84,0,72
1,note_on,83,63,0
1,note_on,83,0,72
1,note_on,82,64,0
1,note_on,82,0,48
1,note_on,83,66,0
1,note_on,83,0,48
1,note_on,84,70,0
1,note_on,84,0,840
1,note_on,79,64,0
1,note_on,79,0,120
1,note_on,76,62,0
1,note_on,76,0,120
1,note_on,72,61,0
1,note_on,72,0,120
1,note_on,67,60,0
1,note_on,67,0,120
1,note_on,64,59,0
1,note_on,64,0,120
1,note_on,68,58,0
1,note_on,68,0,120
1,note_on,65,56,0
1,note_on,65,0,120
1,note_on,61,56,0
1,note_on,61,0,120
1,note_on,59,55,0
1,note_on,59,0,120
1,note_on,56,54,0
1,note_on,56,0,120
1,note_on,53,52,0
1,note_on,53,0,120
1,note_on,52,55,0
1,note_on,52,0,120
1,note_on,55,52,0
1,note_on,55,0,120
1,note_on,60,52,0
1,note_on,60,0,120
1,note_on,64,52,0
1,note_on,64,0,120
1,note_on,54,49,0
1,note_on,54,0,120
1,note_on,63,49,0
1,note_on,63,0,120
1,note_on,53,55,0
1,note_on,53,0,120
1,note_on,56,52,0
1,note_on,56,0,120
1,note_on,61,52,0
1,note_on,61,0,120
1,note_on,65,52,0
1,note_on,65,0,120
1,note_on,56,49,0
1,note_on,56,0,120
1,note_on,68,49,0
1,note_on,68,0,120
1,note_on,59,57,0
1,note_on,59,0,120
1,note_on,62,53,0
1,note_on,62,0,120
1,note_on,65,53,0
1,note_on,65,0,120
1,note_on,71,53,0
1,note_on,71,0,120
1,note_on,65,48,0
1,note_on,65,0,120
1,note_on,77,49,0
1,note_on,77,0,120
1,note_on,64,58,0
1,note_on,64,0,120
1,note_on,67,53,0
1,note_on,67,0,120
1,note_on,72,53,0
1,note_on,72,0,120
1,note_on,76,54,0
1,note_on,76,0,120
1,note_on,66,52,0
1,note_on,66,0,120
1,note_on,75,52,0
1,note_on,75,0,120
1,note_on,65,60,0
1,note_on,65,0,120
1,note_on,68,57,0
1,note_on,68,0,120
1,note_on,73,57,0
1,note_on,73,0,120
1,note_on,77,58,0
1,note_on,77,0,120
1,note_on,68,55,0
1,note_on,68,0,120
1,note_on,80,55,0
1,note_on,80,0,120
1,note_on,71,67,0
1,note_on,71,0,120
1,note_on,74,60,0
1,note_on,74,0,120
1,note_on,77,60,0
1,note_on,77,0,120
1,note_on,83,62,0
1,note_on,83,0,120
1,note_on,77,58,0
1,note_on,77,0,120
1,note_on,89,58,0
1,note_on,89,0,120
1,note_on,76,67,0
1,note_on,76,0,120
1,note_on,79,64,0
1,note_on,79,0,120
1,note_on,84,65,0
1,note_on,84,0,120
1,note_on,88,66,0
1,note_on,88,0,120
1,note_on,78,63,0
1,note_on,78,0,120
1,note_on,87,63,0
1,note_on,87,0,120
1,note_on,77,71,0
1,note_on,77,0,120
1,note_on,80,68,0
1,note_on,80,0,120
1,note_on,85,70,0
1,note_on,85,0,120
1,note_on,89,70,0
1,note_on,89,0,120
1,note_on,80,66,0
1,note_on,80,0,120
1,note_on,92,66,0
1,note_on,92,0,120
1,note_on,83,77,0
1,note_on,83,0,120
1,note_on,86,73,0
1,note_on,86,0,120
1,note_on,89,74,0
1,note_on,89,0,120
1,note_on,95,74,0
1,note_on,95,0,120
1,note_on,89,68,0
1,note_on,89,0,120
1,note_on,101,69,0
1,note_on,101,0,120
1,note_on,88,71,0
1,note_on,88,0,120
1,note_on,100,72,0
1,note_on,100,0,120
1,note_on,95,79,0
1,note_on,95,0,120
1,note_on,100,73,0
1,note_on,100,0,120
1,note_on,96,70,0
1,note_on,96,0,120
1,note_on,91,70,0
1,note_on,91,0,120
1,note_on,88,73,0
1,note_on,88,0,120
1,note_on,96,73,0
1,note_on,96,0,120
1,note_on,90,79,0
1,note_on,90,0,120
1,note_on,96,73,0
1,note_on,96,0,120
1,note_on,91,73,0
1,note_on,91,0,120
1,note_on,88,71,0
1,note_on,88,0,120
1,note_on,84,73,0
1,note_on,84,0,120
1,note_on,91,73,0
1,note_on,91,0,120
1,note_on,87,78,0
1,note_on,87,0,120
1,note_on,91,73,0
1,note_on,91,0,120
1,note_on,88,71,0
1,note_on,88,0,120
1,note_on,84,72,0
1,note_on,84,0,120
1,note_on,79,73,0
1,note_on,79,0,120
1,note_on,88,73,0
1,note_on,88,0,120
1,note_on,83,77,0
1,note_on,83,0,120
1,note_on,88,73,0
1,note_on,88,0,120
1,note_on,84,70,0
1,note_on,84,0,120
1,note_on,79,70,0
1,note_on,79,0,120
1,note_on,76,73,0
1,note_on,76,0,120
1,note_on,84,73,0
1,note_on,84,0,120
1,note_on,78,78,0
1,note_on,78,0,120
1,note_on,84,73,0
1,note_on,84,0,120
1,note_on,79,71,0
1,note_on,79,0,120
1,note_on,76,71,0
1,note_on,76,0,120
1,note_on,72,71,0
1,note_on,72,0,120
1,note_on,79,70,0
1,note_on,79,0,120
1,note_on,75,73,0
1,note_on,75,0,120
1,note_on,79,68,0
1,note_on,79,0,120
1,note_on,76,65,0
1,note_on,76,0,120
1,note_on,72,65,0
1,note_on,72,0,120
1,note_on,67,66,0
1,note_on,67,0,120
1,note_on,76,61,0
1,note_on,76,0,120
1,note_on,71,67,0
1,note_on,71,0,120
1,note_on,76,59,0
1,note_on,76,0,120
1,note_on,72,59,0
1,note_on,72,0,120
1,note_on,70,57,0
1,note_on,70,0,120
1,note_on,67,56,0
1,note_on,67,0,120
1,note_on,64,55,0
1,note_on,64,0,120
1,note_on,60,55,0
1,note_on,60,0,120
1,note_on,58,54,0
1,note_on,58,0,120
1,note_on,55,53,0
1,note_on,55,0,120
1,note_on,52,52,0
1,note_on,52,0,120
1,note_on,69,61,960
1,note_on,69,0,120
1,note_on,70,56,0
1,note_on,72,56,120
1,note_on,72,0,120
1,note_on,70,0,0
1,note_on,76,56,0
1,note_on,76,0,120
1,note_on,81,64,0
1,note_on,81,0,120
1,note_on,82,55,0
1,note_on,84,55,120
1,note_on,84,0,120
1,note_on,82,0,0
1,note_on,88,56,0
1,note_on,88,0,120
1,note_on,93,64,0
1,note_on,93,0,96
1,note_on,91,58,0
1,note_on,91,0,96
1,note_on,90,59,0
1,note_on,90,0,96
1,note_on,91,59,0
1,note_on,91,0,96
1,note_on,93,65,0
1,note_on,93,0,96
1,note_on,91,44,0
1,note_on,91,0,60
1,note_on,93,38,0
1,note_on,93,0,60
1,note_on,91,42,0
1,note_on,91,0,60
1,note_on,93,37,0
1,note_on,93,0,60
1,note_on,91,43,0
1,note_on,91,0,60
1,note_on,93,37,0
1,note_on,93,0,60
1,note_on,91,43,0
1,note_on,91,0,60
1,note_on,93,38,0
1,note_on,93,0,60
1,note_on,91,44,0
1,note_on,91,0,60
1,note_on,93,40,0
1,note_on,93,0,60
1,note_on,91,44,0
1,note_on,91,0,60
1,note_on,93,40,0
1,note_on,93,0,60
1,note_on,91,45,0
1,note_on,91,0,60
1,note_on,93,41,0
1,note_on,93,0,60
1,note_on,91,46,0
1,note_on,91,0,60
1,note_on,93,43,0
1,note_on,93,0,60
1,note_on,91,48,0
1,note_on,91,0,60
1,note_on,93,43,0
1,note_on,93,0,60
1,note_on,91,48,0
1,note_on,91,0,60
1,note_on,93,44,0
1,note_on,93,0,60
1,note_on,91,50,0
1,note_on,91,0,60
1,note_on,93,44,0
1,note_on,93,0,60
1,note_on,91,51,0
1,note_on,91,0,60
1,note_on,93,44,0
1,note_on,93,0,60
1,note_on,91,51,0
1,note_on,91,0,60
1,note_on,93,45,0
1,note_on,93,0,60
1,note_on,91,50,0
1,note_on,91,0,60
1,note_on,93,45,0
1,note_on,93,0,60
1,note_on,91,50,0
1,note_on,91,0,60
1,note_on,93,43,0
1,note_on,93,0,60
1,note_on,91,49,0
1,note_on,91,0,60
1,note_on,93,43,0
1,note_on,93,0,60
1,note_on,91,48,0
1,note_on,91,0,60
1,note_on,93,43,0
1,note_on,93,0,60
1,note_on,91,47,0
1,note_on,91,0,60
1,note_on,93,38,0
1,note_on,93,0,60
1,note_on,91,44,0
1,note_on,91,0,60
1,note_on,93,36,0
1,note_on,93,0,60
1,note_on,91,46,0
1,note_on,91,0,60
1,note_on,93,37,0
1,note_on,93,0,60
1,note_on,91,45,0
1,note_on,91,0,80
1,note_on,93,40,0
1,note_on,93,0,80
1,note_on,91,38,0
1,note_on,91,0,80
1,note_on,90,44,0
1,note_on,90,0,80
1,note_on,91,46,0
1,note_on,91,0,80
1,note_on,93,46,0
1,note_on,93,0,80
1,note_on,91,52,0
1,note_on,91,0,480
1,note_on,63,37,720
1,note_on,69,45,0
1,note_on,69,0,475
1,note_on,63,0,0
1,note_on,63,36,5
1,note_on,69,44,0
1,note_on,69,0,238
1,note_on,63,0,0
1,note_on,64,41,2
1,note_on,70,50,0
1,note_on,70,0,475
1,note_on,64,0,0
1,note_on,64,40,5
1,note_on,70,48,0
1,note_on,70,0,238
1,note_on,64,0,0
1,note_on,65,44,2
1,note_on,71,53,0
1,note_on,71,0,475
1,note_on,65,0,0
1,note_on,65,43,5
1,note_on,71,51,0
1,note_on,71,0,238
1,note_on,65,0,0
1,note_on,65,47,2
1,note_on,72,56,0
1,note_on,72,0,475
1,note_on,65,0,0
1,note_on,65,48,5
1,note_on,65,0,238
1,note_on,69,53,2
1,note_on,74,63,0
1,note_on,74,0,475
1,note_on,69,0,0
1,note_on,69,51,5
1,note_on,72,61,0
1,note_on,72,0,238
1,note_on,69,0,0
1,note_on,67,50,2
1,note_on,70,60,0
1,note_on,70,0,475
1,note_on,67,0,0
1,note_on,68,42,5
1,note_on,71,50,0
1,note_on,71,0,238
1,note_on,68,0,0
1,note_on,67,45,2
1,note_on,72,54,0
1,note_on,72,0,475
1,note_on,67,0,0
1,note_on,64,40,5
1,note_on,70,48,0
1,note_on,70,0,238
1,note_on,64,0,0
1,note_on,65,39,2
1,note_on,69,46,0
1,note_on,69,0,480
1,note_on,65,0,0
1,note_on,99,38,240
1,note_on,99,0,120
1,note_on,98,36,0
1,note_on,98,0,120
1,note_on,101,40,0
1,note_on,101,0,120
1,note_on,99,37,0
1,note_on,99,0,120
1,note_on,98,37,0
1,note_on,98,0,120
1,note_on,96,37,0
1,note_on,96,0,120
1,note_on,94,40,0
1,note_on,94,0,120
1,note_on,93,37,0
1,note_on,93,0,120
1,note_on,96,41,0
1,note_on,96,0,120
1,note_on,94,38,0
1,note_on,94,0,120
1,note_on,93,39,0
1,note_on,93,0,120
1,note_on,91,39,0
1,note_on,91,0,120
1,note_on,89,42,0
1,note_on,89,0,120
1,note_on,88,39,0
1,note_on,88,0,120
1,note_on,91,44,0
1,note_on,91,0,120
1,note_on,89,41,0
1,note_on,89,0,120
1,note_on,88,41,0
1,note_on,88,0,120
1,note_on,86,41,0
1,note_on,86,0,120
1,note_on,84,43,0
1,note_on,84,0,120
1,note_on,83,41,0
1,note_on,83,0,120
1,note_on,86,47,0
1,note_on,86,0,120
1,note_on,84,44,0
1,note_on,84,0,120
1,note_on,82,44,0
1,note_on,82,0,120
1,note_on,81,44,0
1,note_on,81,0,120
1,note_on,86,47,0
1,note_on,86,0,120
1,note_on,85,45,0
1,note_on,85,0,120
1,note_on,87,51,0
1,note_on,87,0,120
1,note_on,86,46,0
1,note_on,86,0,120
1,note_on,84,46,0
1,note_on,84,0,120
1,note_on,81,47,0
1,note_on,81,0,120
1,note_on,82,51,0
1,note_on,82,0,120
1,note_on,81,47,0
1,note_on,81,0,120
1,note_on,84,52,0
1,note_on,84,0,120
1,note_on,82,48,0
1,note_on,82,0,120
1,note_on,79,48,0
1,note_on,79,0,120
1,note_on,74,48,0
1,note_on,74,0,120
1,note_on,72,53,0
1,note_on,72,0,120
1,note_on,71,49,0
1,note_on,71,0,120
1,note_on,74,54,0
1,note_on,74,0,120
1,note_on,72,49,0
1,note_on,72,0,120
1,note_on,70,49,0
1,note_on,70,0,120
1,note_on,67,49,0
1,note_on,67,0,120
1,note_on,69,52,0
1,note_on,69,0,120
1,note_on,68,49,0
1,note_on,68,0,120
1,note_on,69,56,0
1,note_on,69,0,120
1,note_on,70,50,0
1,note_on,70,0,120
1,note_on,65,51,0
1,note_on,65,0,120
1,note_on,69,51,0
1,note_on,69,0,120
1,note_on,63,60,0
1,note_on,69,56,120
1,note_on,69,0,120
1,note_on,68,56,0
1,note_on,68,0,120
1,note_on,69,56,0
1,note_on,69,0,120
1,note_on,63,0,0
1,note_on,70,53,0
1,note_on,70,0,120
1,note_on,69,53,0
1,note_on,69,0,120
1,note_on,64,60,0
1,note_on,70,57,120
1,note_on,70,0,120
1,note_on,69,57,0
1,note_on,69,0,120
1,note_on,70,57,0
1,note_on,70,0,120
1,note_on,64,0,0
1,note_on,72,55,0
1,note_on,72,0,120
1,note_on,70,55,0
1,note_on,70,0,120
1,note_on,65,63,0
1,note_on,71,58,120
1,note_on,71,0,120
1,note_on,70,58,0
1,note_on,70,0,120
1,note_on,71,58,0
1,note_on,71,0,120
1,note_on,65,0,0
1,note_on,72,56,0
1,note_on,72,0,120
1,note_on,71,56,0
1,note_on,71,0,120
1,note_on,65,65,0
1,note_on,72,59,120
1,note_on,72,0,120
1,note_on,71,59,0
1,note_on,71,0,120
1,note_on,72,59,0
1,note_on,72,0,120
1,note_on,65,0,0
1,note_on,74,56,0
1,note_on,74,0,120
1,note_on,72,56,0
1,note_on,72,0,120
1,note_on,69,65,0
1,note_on,74,60,120
1,note_on,74,0,120
1,note_on,73,60,0
1,note_on,73,0,120
1,note_on,74,60,0
1,note_on,74,0,120
1,note_on,69,0,0
1,note_on,76,58,0
1,note_on,76,0,120
1,note_on,74,58,0
1,note_on,74,0,120
1,note_on,74,66,0
1,note_on,79,61,120
1,note_on,79,0,120
1,note_on,78,61,0
1,note_on,78,0,120
1,note_on,79,61,0
1,note_on,79,0,120
1,note_on,74,0,0
1,note_on,81,59,0
1,note_on,81,0,120
1,note_on,79,60,0
1,note_on,79,0,120
1,note_on,79,69,0
1,note_on,84,63,120
1,note_on,84,0,120
1,note_on,83,63,0
1,note_on,83,0,120
1,note_on,84,63,0
1,note_on,84,0,120
1,note_on,79,0,0
1,note_on,86,61,0
1,note_on,86,0,120
1,note_on,84,61,0
1,note_on,84,0,120
1,note_on,84,70,0
1,note_on,89,63,120
1,note_on,89,0,120
1,note_on,88,63,0
1,note_on,88,0,120
1,note_on,89,59,0
1,note_on,89,0,120
1,note_on,84,0,0
1,note_on,91,61,0
1,note_on,91,0,120
1,note_on,89,61,0
1,note_on,89,0,120
1,note_on,86,65,0
1,note_on,86,0,120
1,note_on,85,60,0
1,note_on,85,0,120
1,note_on,88,66,0
1,note_on,88,0,120
1,note_on,86,63,0
1,note_on,86,0,120
1,note_on,79,72,0
1,note_on,79,0,240
1,note_on,88,75,0
1,note_on,93,68,120
1,note_on,93,0,120
1,note_on,92,69,0
1,note_on,92,0,120
1,note_on,93,63,0
1,note_on,93,0,120
1,note_on,88,0,0
1,note_on,94,64,0
1,note_on,94,0,120
1,note_on,93,64,0
1,note_on,93,0,120
1,note_on,89,71,0
1,note_on,89,0,120
1,note_on,88,64,0
1,note_on,88,0,120
1,note_on,91,72,0
1,note_on,91,0,120
1,note_on,89,66,0
1,note_on,89,0,120
1,note_on,86,77,0
1,note_on,86,0,240
1,note_on,91,79,0
1,note_on,96,71,120
1,note_on,96,0,120
1,note_on,95,73,0
1,note_on,95,0,120
1,note_on,96,67,0
1,note_on,96,0,120
1,note_on,91,0,0
1,note_on,98,67,0
1,note_on,98,0,120
1,note_on,96,69,0
1,note_on,96,0,120
1,note_on,93,74,0
1,note_on,93,0,120
1,note_on,92,68,0
1,note_on,92,0,120
1,note_on,94,75,0
1,note_on,94,0,120
1,note_on,93,68,0
1,note_on,93,0,120
1,note_on,89,77,0
1,note_on,89,0,240
1,note_on,93,83,0
1,note_on,98,76,120
1,note_on,98,0,120
1,note_on,97,76,0
1,note_on,97,0,120
1,note_on,98,70,0
1,note_on,98,0,120
1,note_on,93,0,0
1,note_on,99,70,0
1,note_on,99,0,120
1,note_on,98,70,0
1,note_on,98,0,120
1,note_on,94,76,0
1,note_on,94,0,120
1,note_on,93,69,0
1,note_on,93,0,120
1,note_on,96,76,0
1,note_on,96,0,120
1,note_on,94,69,0
1,note_on,94,0,120
1,note_on,91,80,0
1,note_on,91,0,240
1,note_on,94,50,0
1,note_on,94,0,120
1,note_on,100,45,0
1,note_on,100,0,120
1,note_on,91,45,0
1,note_on,91,0,120
1,note_on,94,42,0
1,note_on,94,0,30
1,note_on,96,42,0
1,note_on,96,0,30
1,note_on,94,45,0
1,note_on,94,0,60
1,note_on,93,48,0
1,note_on,93,0,120
1,note_on,91,45,0
1,note_on,91,0,120
1,note_on,90,50,0
1,note_on,90,0,120
1,note_on,96,45,0
1,note_on,96,0,120
1,note_on,84,45,0
1,note_on,84,0,120
1,note_on,87,40,0
1,note_on,87,0,30
1,note_on,89,40,0
1,note_on,89,0,30
1,note_on,87,45,0
1,note_on,87,0,60
1,note_on,86,45,0
1,note_on,86,0,120
1,note_on,84,45,0
1,note_on,84,0,120
1,note_on,83,49,0
1,note_on,83,0,120
1,note_on,89,45,0
1,note_on,89,0,120
1,note_on,77,45,0
1,note_on,77,0,120
1,note_on,80,39,0
1,note_on,80,0,30
1,note_on,82,39,0
1,note_on,82,0,30
1,note_on,80,42,0
1,note_on,80,0,60
1,note_on,79,49,0
1,note_on,79,0,120
1,note_on,77,45,0
1,note_on,77,0,120
1,note_on,76,51,0
1,note_on,76,0,120
1,note_on,82,45,0
1,note_on,82,0,120
1,note_on,74,45,0
1,note_on,74,0,120
1,note_on,73,39,0
1,note_on,73,0,30
1,note_on,75,39,0
1,note_on,75,0,30
1,note_on,73,43,0
1,note_on,73,0,60
1,note_on,72,45,0
1,note_on,72,0,120
1,note_on,70,45,0
1,note_on,70,0,240
1,note_on,69,41,0
1,note_on,69,0,120
1,note_on,72,43,0
1,note_on,72,0,120
1,note_on,76,45,0
1,note_on,76,0,120
1,note_on,77,47,0
1,note_on,77,0,120
1,note_on,81,49,0
1,note_on,81,0,120
1,note_on,84,51,0
1,note_on,84,0,120
1,note_on,88,52,0
1,note_on,88,0,120
1,note_on,89,54,0
1,note_on,89,0,120
1,note_on,93,56,0
1,note_on,93,0,120
1,note_on,96,58,0
1,note_on,96,0,120
1,note_on,100,60,0
1,note_on,100,0,120
1,note_on,101,60,0
1,note_on,101,0,120
1,note_on,100,60,0
1,note_on,100,0,120
1,note_on,99,59,0
1,note_on,99,0,120
1,note_on,98,59,0
1,note_on,98,0,120
1,note_on,97,58,0
1,note_on,97,0,120
1,note_on,96,58,0
1,note_on,96,0,120
1,note_on,95,57,0
1,note_on,95,0,120
1,note_on,94,57,0
1,note_on,94,0,120
1,note_on,93,56,0
1,note_on,93,0,120
1,note_on,92,55,0
1,note_on,92,0,120
1,note_on,91,55,0
1,note_on,91,0,120
1,note_on,90,54,0
1,note_on,90,0,120
1,note_on,89,52,0
1,note_on,89,0,120
1,note_on,93,51,0
1,note_on,93,0,120
1,note_on,92,50,0
1,note_on,92,0,120
1,note_on,91,49,0
1,note_on,91,0,120
1,note_on,90,48,0
1,note_on,90,0,120
1,note_on,89,47,0
1,note_on,89,0,120
1,note_on,88,46,0
1,note_on,88,0,120
1,note_on,87,46,0
1,note_on,87,0,120
1,note_on,86,45,0
1,note_on,86,0,120
1,note_on,85,44,0
1,note_on,85,0,120
1,note_on,84,43,0
1,note_on,84,0,120
1,note_on,83,42,0
1,note_on,83,0,120
1,note_on,82,46,0
1,note_on,82,0,120
1,note_on,88,40,0
1,note_on,88,0,120
1,note_on,87,39,0
1,note_on,87,0,120
1,note_on,86,39,0
1,note_on,86,0,120
1,note_on,85,39,0
1,note_on,85,0,120
1,note_on,84,38,0
1,note_on,84,0,120
1,note_on,83,38,0
1,note_on,83,0,120
1,note_on,82,37,0
1,note_on,82,0,120
1,note_on,81,37,0
1,note_on,81,0,120
1,note_on,80,37,0
1,note_on,80,0,120
1,note_on,79,36,0
1,note_on,79,0,120
1,note_on,78,36,0
1,note_on,78,0,120
1,note_on,77,45,0
1,note_on,77,0,120
1,note_on,69,47,1080
1,note_on,81,44,120
1,note_on,81,0,120
1,note_on,69,0,0
1,note_on,70,49,0
1,note_on,82,45,120
1,note_on,82,0,120
1,note_on,70,0,0
1,note_on,71,51,0
1,note_on,83,48,120
1,note_on,83,0,120
1,note_on,71,0,0
1,note_on,72,54,0
1,note_on,84,50,120
1,note_on,84,0,120
1,note_on,72,0,0
1,note_on,74,56,0
1,note_on,86,51,120
1,note_on,86,0,120
1,note_on,74,0,0
1,note_on,76,58,0
1,note_on,88,54,120
1,note_on,88,0,120
1,note_on,76,0,0
1,note_on,77,60,0
1,note_on,89,56,120
1,note_on,89,0,60
1,note_on,79,57,0
1,note_on,79,0,60
1,note_on,77,0,0
1,note_on,91,63,0
1,note_on,91,0,240
1,note_on,69,54,480
1,note_on,81,49,120
1,note_on,81,0,120
1,note_on,69,0,0
1,note_on,70,55,0
1,note_on,82,51,120
1,note_on,82,0,120
1,note_on,70,0,0
1,note_on,71,57,0
1,note_on,83,52,120
1,note_on,83,0,120
1,note_on,71,0,0
1,note_on,72,58,0
1,note_on,84,52,120
1,note_on,84,0,120
1,note_on,72,0,0
1,note_on,74,60,0
1,note_on,86,53,120
1,note_on,86,0,120
1,note_on,74,0,0
1,note_on,76,62,0
1,note_on,88,55,120
1,note_on,88,0,120
1,note_on,76,0,0
1,note_on,77,63,0
1,note_on,89,55,120
1,note_on,89,0,120
1,note_on,77,0,0
1,note_on,79,65,0
1,note_on,91,56,120
1,note_on,91,0,120
1,note_on,79,0,0
1,note_on,80,66,0
1,note_on,92,54,120
1,note_on,92,0,60
1,note_on,81,54,0
1,note_on,81,0,60
1,note_on,80,0,0
1,note_on,93,68,0
1,note_on,93,0,120
1,note_on,81,66,600
1,note_on,93,63,120
1,note_on,93,0,120
1,note_on,81,0,0
1,note_on,83,68,0
1,note_on,95,66,120
1,note_on,95,0,120
1,note_on,83,0,0
1,note_on,85,71,0
1,note_on,97,69,120
1,note_on,97,0,60
1,note_on,86,69,0
1,note_on,85,0,60
1,note_on,98,74,0
1,note_on,98,0,420
1,note_on,86,0,0
1,note_on,88,71,0
1,note_on,100,76,60
1,note_on,100,0,180
1,note_on,88,0,0
1,note_on,89,71,0
1,note_on,101,76,60
1,note_on,101,0,660
1,note_on,89,0,0
1,note_on,86,70,0
1,note_on,98,77,60
1,note_on,98,0,420
1,note_on,86,0,0
1,note_on,88,73,0
1,note_on,100,78,60
1,note_on,100,0,180
1,note_on,88,0,0
1,note_on,89,71,0
1,note_on,101,76,60
1,note_on,101,0,720
1,note_on,86,83,0
1,note_on,89,0,20
1,note_on,86,0,100
1,note_on,98,76,0
1,note_on,98,0,120
1,note_on,89,76,0
1,note_on,89,0,120
1,note_on,94,76,0
1,note_on,94,0,120
1,note_on,92,76,0
1,note_on,92,0,120
1,note_on,89,76,0
1,note_on,89,0,120
1,note_on,86,84,0
1,note_on,86,0,120
1,note_on,82,83,0
1,note_on,82,0,120
1,note_on,80,81,0
1,note_on,80,0,120
1,note_on,77,80,0
1,note_on,77,0,120
1,note_on,74,79,0
1,note_on,74,0,120
1,note_on,70,77,0
1,note_on,70,0,120
1,note_on,68,76,0
1,note_on,68,0,120
1,note_on,68,75,600
1,note_on,62,62,0
1,note_on,64,62,0
1,note_on,64,0,720
1,note_on,62,0,0
1,note_on,68,0,0
1,note_on,61,65,0
1,note_on,69,65,0
1,note_on,62,66,120
1,note_on,69,0,20
1,note_on,61,0,0
1,note_on,64,66,100
1,note_on,62,0,20
1,note_on,66,67,100
1,note_on,64,0,20
1,note_on,68,68,100
1,note_on,66,0,20
1,note_on,69,69,100
1,note_on,68,0,20
1,note_on,71,70,100
1,note_on,69,0,20
1,note_on,73,71,100
1,note_on,71,0,20
1,note_on,74,72,100
1,note_on,73,0,20
1,note_on,76,73,100
1,note_on,74,0,20
1,note_on,78,74,100
1,note_on,76,0,20
1,note_on,80,74,100
1,note_on,78,0,20
1,note_on,81,75,100
1,note_on,80,0,20
1,note_on,83,76,100
1,note_on,81,0,20
1,note_on,85,77,100
1,note_on,83,0,20
1,note_on,86,78,100
1,note_on,85,0,20
1,note_on,88,79,100
1,note_on,86,0,20
1,note_on,90,80,100
1,note_on,88,0,20
1,note_on,92,81,100
1,note_on,90,0,20
1,note_on,93,81,100
1,note_on,92,0,20
1,note_on,95,82,100
1,note_on,93,0,20
1,note_on,97,83,100
1,note_on,95,0,20
1,note_on,98,84,100
1,note_on,97,0,20
1,note_on,99,85,100
1,note_on,98,0,20
1,note_on,100,91,100
1,note_on,99,0,20
1,note_on,100,0,100
1,note_on,97,82,0
1,note_on,97,0,120
1,note_on,93,82,0
1,note_on,93,0,120
1,note_on,88,85,0
1,note_on,88,0,120
1,note_on,86,81,0
1,note_on,86,0,120
1,note_on,92,82,0
1,note_on,92,0,120
1,note_on,93,90,0
1,note_on,93,0,120
1,note_on,88,85,0
1,note_on,88,0,120
1,note_on,85,81,0
1,note_on,85,0,120
1,note_on,81,81,0
1,note_on,81,0,120
1,note_on,80,77,0
1,note_on,80,0,120
1,note_on,86,77,0
1,note_on,86,0,120
1,note_on,88,83,0
1,note_on,88,0,120
1,note_on,85,76,0
1,note_on,85,0,120
1,note_on,81,76,0
1,note_on,81,0,120
1,note_on,76,76,0
1,note_on,76,0,120
1,note_on,74,72,0
1,note_on,74,0,120
1,note_on,80,73,0
1,note_on,80,0,120
1,note_on,81,82,0
1,note_on,81,0,120
1,note_on,76,76,0
1,note_on,76,0,120
1,note_on,73,76,0
1,note_on,73,0,120
1,note_on,69,76,0
1,note_on,69,0,120
1,note_on,68,72,0
1,note_on,68,0,120
1,note_on,74,72,0
1,note_on,74,0,120
1,note_on,76,70,0
1,note_on,76,0,120
1,note_on,73,63,0
1,note_on,73,0,120
1,note_on,69,63,0
1,note_on,69,0,120
1,note_on,64,62,0
1,note_on,64,0,120
1,note_on,62,57,0
1,note_on,62,0,120
1,note_on,68,57,0
1,note_on,68,0,120
1,note_on,69,63,0
1,note_on,69,0,120
1,note_on,64,57,0
1,note_on,64,0,120
1,note_on,61,55,0
1,note_on,61,0,120
1,note_on,57,53,0
1,note_on,57,0,120
1,note_on,56,48,0
1,note_on,56,0,120
1,note_on,62,46,0
1,note_on,62,0,120
1,note_on,64,48,0
1,note_on,61,51,120
1,note_on,64,0,20
1,note_on,57,54,100
1,note_on,61,0,20
1,note_on,52,51,100
1,note_on,57,0,20
1,note_on,56,48,100
1,note_on,52,0,20
1,note_on,62,48,100
1,note_on,56,0,20
1,note_on,64,48,100
1,note_on,62,0,20
1,note_on,61,51,100
1,note_on,64,0,20
1,note_on,57,54,100
1,note_on,61,0,20
1,note_on,52,51,100
1,note_on,57,0,20
1,note_on,56,48,100
1,note_on,52,0,20
1,note_on,62,47,100
1,note_on,56,0,20
1,note_on,64,36,100
1,note_on,62,0,20
1,note_on,61,38,100
1,note_on,64,0,20
1,note_on,57,40,100
1,note_on,61,0,20
1,note_on,52,38,100
1,note_on,57,0,20
1,note_on,56,35,100
1,note_on,52,0,20
1,note_on,62,35,100
1,note_on,56,0,20
1,note_on,64,36,100
1,note_on,62,0,20
1,note_on,61,38,100
1,note_on,64,0,20
1,note_on,57,40,100
1,note_on,61,0,20
1,note_on,52,38,100
1,note_on,57,0,20
1,note_on,56,35,100
1,note_on,52,0,20
1,note_on,62,35,100
1,note_on,56,0,20
1,note_on,57,36,100
1,note_on,64,36,0
1,note_on,62,0,20
1,note_on,58,36,100
1,note_on,64,0,20
1,note_on,57,0,0
1,note_on,59,36,100
1,note_on,58,0,20
1,note_on,60,35,100
1,note_on,59,0,20
1,note_on,61,35,100
1,note_on,60,0,20
1,note_on,62,35,100
1,note_on,61,0,20
1,note_on,63,35,100
1,note_on,62,0,20
1,note_on,64,34,100
1,note_on,63,0,20
1,note_on,65,34,100
1,note_on,64,0,20
1,note_on,66,34,100
1,note_on,65,0,20
1,note_on,67,33,100
1,note_on,66,0,20
1,note_on,68,33,100
1,note_on,67,0,20
1,note_on,69,33,100
1,note_on,68,0,20
1,note_on,68,29,100
1,note_on,69,0,20
1,note_on,69,33,100
1,note_on,68,0,20
1,note_on,68,30,100
1,note_on,69,0,20
1,note_on,69,33,100
1,note_on,68,0,20
1,note_on,68,29,100
1,note_on,69,0,20
1,note_on,69,33,100
1,note_on,68,0,20
1,note_on,68,30,100
1,note_on,69,0,20
1,note_on,69,33,100
1,note_on,68,0,20
1,note_on,68,30,100
1,note_on,69,0,20
1,note_on,69,33,100
1,note_on,68,0,20
1,note_on,68,29,100
1,note_on,69,0,20
1,note_on,69,33,100
1,note_on,68,0,20
1,note_on,68,29,100
1,note_on,69,0,20
1,note_on,69,33,100
1,note_on,68,0,20
1,note_on,68,30,100
1,note_on,69,0,20
1,note_on,69,33,100
1,note_on,68,0,20
1,note_on,68,30,100
1,note_on,69,0,20
1,note_on,68,0,40
1,note_on,70,39,0
1,note_on,70,0,60
1,note_on,69,41,0
1,note_on,69,0,120
1,note_on,64,34,0
1,note_on,64,0,120
1,note_on,68,42,0
1,note_on,68,0,120
1,note_on,64,34,0
1,note_on,64,0,120
1,note_on,69,42,0
1,note_on,69,0,120
1,note_on,64,36,0
1,note_on,64,0,60
1,note_on,72,38,0
1,note_on,72,0,60
1,note_on,70,44,0
1,note_on,70,0,120
1,note_on,64,38,0
1,note_on,64,0,120
1,note_on,69,47,0
1,note_on,69,0,120
1,note_on,64,38,0
1,note_on,64,0,120
1,note_on,70,48,0
1,note_on,70,0,120
1,note_on,64,40,0
1,note_on,64,0,120
1,note_on,71,50,0
1,note_on,71,0,120
1,note_on,65,41,0
1,note_on,65,0,120
1,note_on,77,51,0
1,note_on,65,41,120
1,note_on,65,0,120
1,note_on,71,47,0
1,note_on,71,0,120
1,note_on,65,39,0
1,note_on,65,0,60
1,note_on,74,41,0
1,note_on,74,0,60
1,note_on,72,50,0
1,note_on,72,0,120
1,note_on,65,42,0
1,note_on,65,0,120
1,note_on,71,49,0
1,note_on,71,0,120
1,note_on,65,41,0
1,note_on,65,0,120
1,note_on,72,49,0
1,note_on,72,0,120
1,note_on,65,44,0
1,note_on,65,0,120
1,note_on,72,51,0
1,note_on,72,0,120
1,note_on,69,44,0
1,note_on,69,0,120
1,note_on,77,0,0
1,note_on,81,56,0
1,note_on,75,47,0
1,note_on,75,0,120
1,note_on,65,47,0
1,note_on,65,0,120
1,note_on,74,52,0
1,note_on,74,0,120
1,note_on,65,45,0
1,note_on,65,0,120
1,note_on,74,53,0
1,note_on,74,0,120
1,note_on,67,45,0
1,note_on,67,0,120
1,note_on,81,0,0
1,note_on,79,58,0
1,note_on,70,53,0
1,note_on,70,0,120
1,note_on,67,45,0
1,note_on,67,0,120
1,note_on,70,51,0
1,note_on,70,0,120
1,note_on,67,45,0
1,note_on,67,0,120
1,note_on,70,51,0
1,note_on,70,0,120
1,note_on,67,45,0
1,note_on,67,0,120
1,note_on,79,0,0
1,note_on,79,58,0
1,note_on,73,42,0
1,note_on,73,0,120
1,note_on,67,45,0
1,note_on,67,0,120
1,note_on,72,51,0
1,note_on,72,0,120
1,note_on,67,45,0
1,note_on,67,0,120
1,note_on,72,51,0
1,note_on,72,0,120
1,note_on,65,45,0
1,note_on,65,0,120
1,note_on,79,0,0
1,note_on,77,58,0
1,note_on,69,45,0
1,note_on,69,0,120
1,note_on,65,45,0
1,note_on,65,0,120
1,note_on,69,45,0
1,note_on,69,0,120
1,note_on,65,45,0
1,note_on,65,0,120
1,note_on,77,0,0
1,note_on,64,55,0
1,note_on,60,42,120
1,note_on,60,0,120
1,note_on,72,43,0
1,note_on,72,0,120
1,note_on,60,43,0
1,note_on,60,0,120
1,note_on,64,0,0
1,note_on,65,51,0
1,note_on,60,44,120
1,note_on,60,0,120
1,note_on,65,0,0
1,note_on,66,57,0
1,note_on,62,45,120
1,note_on,62,0,120
1,note_on,74,45,0
1,note_on,74,0,120
1,note_on,62,45,0
1,note_on,62,0,120
1,note_on,66,0,0
1,note_on,67,54,0
1,note_on,62,45,120
1,note_on,62,0,120
1,note_on,67,0,0
1,note_on,68,59,0
1,note_on,64,46,120
1,note_on,64,0,120
1,note_on,76,47,0
1,note_on,76,0,120
1,note_on,64,47,0
1,note_on,64,0,120
1,note_on,68,0,0
1,note_on,69,56,0
1,note_on,64,48,120
1,note_on,64,0,120
1,note_on,69,0,0
1,note_on,69,62,0
1,note_on,65,48,120
1,note_on,65,0,120
1,note_on,77,49,0
1,note_on,77,0,120
1,note_on,65,49,0
1,note_on,65,0,120
1,note_on,69,0,0
1,note_on,70,58,0
1,note_on,65,49,120
1,note_on,65,0,120
1,note_on,70,0,0
1,note_on,71,64,0
1,note_on,67,50,120
1,note_on,67,0,120
1,note_on,79,50,0
1,note_on,67,51,120
1,note_on,67,0,120
1,note_on,71,0,0
1,note_on,72,60,0
1,note_on,67,49,120
1,note_on,67,0,120
1,note_on,72,0,0
1,note_on,79,0,0
1,note_on,81,67,0
1,note_on,69,57,120
1,note_on,69,0,120
1,note_on,72,57,0
1,note_on,72,0,120
1,note_on,69,57,0
1,note_on,69,0,120
1,note_on,81,0,0
1,note_on,71,53,0
1,note_on,68,46,120
1,note_on,68,0,120
1,note_on,71,0,0
1,note_on,70,53,0
1,note_on,67,46,120
1,note_on,67,0,120
1,note_on,70,0,0
1,note_on,76,53,0
1,note_on,67,45,120
1,note_on,67,0,120
1,note_on,76,0,0
1,note_on,79,53,0
1,note_on,67,46,120
1,note_on,67,0,120
1,note_on,79,0,0
1,note_on,81,53,0
1,note_on,69,45,120
1,note_on,69,0,120
1,note_on,72,48,0
1,note_on,72,0,120
1,note_on,69,44,0
1,note_on,69,0,120
1,note_on,81,0,0
1,note_on,71,46,0
1,note_on,68,36,120
1,note_on,68,0,120
1,note_on,71,0,0
1,note_on,70,42,0
1,note_on,67,37,120
1,note_on,67,0,120
1,note_on,70,0,0
1,note_on,76,42,0
1,note_on,67,36,120
1,note_on,67,0,120
1,note_on,76,0,0
1,note_on,79,43,0
1,note_on,67,37,120
1,note_on,67,0,120
1,note_on,79,0,0
1,note_on,81,43,0
1,note_on,69,37,120
1,note_on,69,0,120
1,note_on,68,41,0
1,note_on,68,0,120
1,note_on,69,36,0
1,note_on,69,0,120
1,note_on,81,0,0
1,note_on,81,47,0
1,note_on,69,37,120
1,note_on,69,0,120
1,note_on,81,0,0
1,note_on,77,50,0
1,note_on,69,38,120
1,note_on,69,0,120
1,note_on,77,0,0
1,note_on,72,47,0
1,note_on,69,38,120
1,note_on,69,0,120
1,note_on,72,0,0
1,note_on,81,47,0
1,note_on,69,38,120
1,note_on,69,0,120
1,note_on,81,0,0
1,note_on,76,52,0
1,note_on,69,38,120
1,note_on,69,0,120
1,note_on,76,0,0
1,note_on,72,48,0
1,note_on,69,38,120
1,note_on,69,0,120
1,note_on,72,0,0
1,note_on,81,49,0
1,note_on,69,40,120
1,note_on,69,0,120
1,note_on,81,0,0
1,note_on,77,54,0
1,note_on,69,41,120
1,note_on,69,0,120
1,note_on,77,0,0
1,note_on,72,53,0
1,note_on,69,42,120
1,note_on,69,0,120
1,note_on,72,0,0
1,note_on,81,60,0
1,note_on,69,44,120
1,note_on,69,0,120
1,note_on,81,0,0
1,note_on,72,56,0
1,note_on,69,45,120
1,note_on,69,0,120
1,note_on,72,0,0
1,note_on,81,63,0
1,note_on,69,45,120
1,note_on,69,0,120
1,note_on,81,0,0
1,note_on,73,59,0
1,note_on,69,46,120
1,note_on,69,0,120
1,note_on,73,0,0
1,note_on,81,70,0
1,note_on,69,49,120
1,note_on,69,0,120
1,note_on,81,0,0
1,note_on,74,59,0
1,note_on,69,49,120
1,note_on,69,0,120
1,note_on,74,0,0
1,note_on,81,71,0
1,note_on,69,50,120
1,note_on,69,0,120
1,note_on,81,0,0
1,note_on,75,66,0
1,note_on,69,52,120
1,note_on,69,0,120
1,note_on,75,0,0
1,note_on,82,74,0
1,note_on,70,54,120
1,note_on,70,0,120
1,note_on,82,0,0
1,note_on,75,68,0
1,note_on,70,55,120
1,note_on,70,0,120
1,note_on,75,0,0
1,note_on,83,80,0
1,note_on,71,57,120
1,note_on,71,0,120
1,note_on,83,0,0
1,note_on,75,72,0
1,note_on,71,58,120
1,note_on,71,0,120
1,note_on,75,0,0
1,note_on,84,84,0
1,note_on,72,59,120
1,note_on,72,0,120
1,note_on,84,0,0
1,note_on,73,73,0
1,note_on,85,86,0
1,note_on,85,0,240
1,note_on,73,0,0
1,note_on,59,65,0
1,note_on,59,0,120
1,note_on,61,69,0
1,note_on,61,0,120
1,note_on,65,73,0
1,note_on,65,0,120
1,note_on,68,77,0
1,note_on,68,0,120
1,note_on,71,86,0
1,note_on,71,0,120
1,note_on,83,81,0
1,note_on,83,0,120
1,note_on,71,77,0
1,note_on,71,0,120
1,note_on,73,78,0
1,note_on,73,0,120
1,note_on,77,79,0
1,note_on,77,0,120
1,note_on,80,81,0
1,note_on,80,0,120
1,note_on,83,88,0
1,note_on,83,0,120
1,note_on,95,85,0
1,note_on,95,0,120
1,note_on,92,81,0
1,note_on,92,0,120
1,note_on,89,80,0
1,note_on,89,0,120
1,note_on,85,79,0
1,note_on,85,0,120
1,note_on,83,78,0
1,note_on,83,0,120
1,note_on,80,76,0
1,note_on,80,0,120
1,note_on,77,75,0
1,note_on,77,0,120
1,note_on,73,74,0
1,note_on,73,0,120
1,note_on,71,73,0
1,note_on,71,0,120
1,note_on,68,72,0
1,note_on,68,0,120
1,note_on,65,71,0
1,note_on,65,0,120
1,note_on,70,67,0
1,note_on,64,61,120
1,note_on,70,0,20
1,note_on,63,62,100
1,note_on,64,0,20
1,note_on,69,62,100
1,note_on,63,0,20
1,note_on,68,64,100
1,note_on,69,0,20
1,note_on,62,63,100
1,note_on,68,0,20
1,note_on,61,70,100
1,note_on,62,0,20
1,note_on,67,63,100
1,note_on,61,0,20
1,note_on,66,63,100
1,note_on,67,0,20
1,note_on,60,63,100
1,note_on,66,0,20
1,note_on,59,63,100
1,note_on,60,0,20
1,note_on,65,63,100
1,note_on,59,0,20
1,note_on,64,66,100
1,note_on,65,0,20
1,note_on,58,56,100
1,note_on,64,0,20
1,note_on,55,58,100
1,note_on,58,0,20
1,note_on,63,60,100
1,note_on,55,0,20
1,note_on,62,62,100
1,note_on,63,0,20
1,note_on,55,64,100
1,note_on,62,0,20
1,note_on,58,70,100
1,note_on,55,0,20
1,note_on,61,64,100
1,note_on,58,0,20
1,note_on,60,66,100
1,note_on,61,0,20
1,note_on,55,67,100
1,note_on,60,0,20
1,note_on,57,69,100
1,note_on,55,0,20
1,note_on,60,70,100
1,note_on,57,0,20
1,note_on,60,0,100
1,note_on,62,70,0
1,note_on,56,64,120
1,note_on,62,0,20
1,note_on,55,64,100
1,note_on,56,0,20
1,note_on,61,64,100
1,note_on,55,0,20
1,note_on,60,63,100
1,note_on,61,0,20
1,note_on,54,63,100
1,note_on,60,0,20
1,note_on,53,70,100
1,note_on,54,0,20
1,note_on,59,60,100
1,note_on,53,0,20
1,note_on,58,60,100
1,note_on,59,0,20
1,note_on,52,57,100
1,note_on,58,0,20
1,note_on,51,55,100
1,note_on,52,0,20
1,note_on,57,53,100
1,note_on,51,0,20
1,note_on,56,62,100
1,note_on,57,0,20
1,note_on,50,56,100
1,note_on,56,0,20
1,note_on,47,54,100
1,note_on,50,0,20
1,note_on,56,53,100
1,note_on,47,0,20
1,note_on,52,51,100
1,note_on,56,0,20
1,note_on,47,50,100
1,note_on,52,0,20
1,note_on,56,57,100
1,note_on,47,0,20
1,note_on,53,55,100
1,note_on,56,0,20
1,note_on,48,54,100
1,note_on,53,0,20
1,note_on,56,52,100
1,note_on,48,0,20
1,note_on,53,51,100
1,note_on,56,0,20
1,note_on,51,49,100
1,note_on,53,0,20
1,note_on,51,0,100
1,note_on,57,51,0
1,note_on,48,42,120
1,note_on,57,0,20
1,note_on,51,42,100
1,note_on,48,0,20
1,note_on,54,42,100
1,note_on,51,0,20
1,note_on,55,42,100
1,note_on,54,0,20
1,note_on,50,42,100
1,note_on,55,0,20
1,note_on,49,51,100
1,note_on,50,0,20
1,note_on,52,41,100
1,note_on,49,0,20
1,note_on,53,41,100
1,note_on,52,0,20
1,note_on,48,41,100
1,note_on,53,0,20
1,note_on,53,41,100
1,note_on,48,0,20
1,note_on,60,41,100
1,note_on,53,0,20
1,note_on,58,50,100
1,note_on,60,0,20
1,note_on,52,40,100
1,note_on,58,0,20
1,note_on,56,41,100
1,note_on,52,0,20
1,note_on,59,41,100
1,note_on,56,0,20
1,note_on,60,41,100
1,note_on,59,0,20
1,note_on,55,41,100
1,note_on,60,0,20
1,note_on,58,52,100
1,note_on,55,0,20
1,note_on,61,42,100
1,note_on,58,0,20
1,note_on,62,41,100
1,note_on,61,0,20
1,note_on,55,41,100
1,note_on,62,0,20
1,note_on,58,41,100
1,note_on,55,0,20
1,note_on,65,41,100
1,note_on,58,0,20
1,note_on,64,50,100
1,note_on,65,0,20
1,note_on,55,42,100
1,note_on,64,0,20
1,note_on,63,42,100
1,note_on,55,0,20
1,note_on,66,42,100
1,note_on,63,0,20
1,note_on,67,42,100
1,note_on,66,0,20
1,note_on,62,43,100
1,note_on,67,0,20
1,note_on,61,52,100
1,note_on,62,0,20
1,note_on,64,42,100
1,note_on,61,0,20
1,note_on,65,43,100
1,note_on,64,0,20
1,note_on,60,43,100
1,note_on,65,0,20
1,note_on,65,43,100
1,note_on,60,0,20
1,note_on,72,43,100
1,note_on,65,0,20
1,note_on,70,53,100
1,note_on,72,0,20
1,note_on,64,43,100
1,note_on,70,0,20
1,note_on,68,44,100
1,note_on,64,0,20
1,note_on,71,44,100
1,note_on,68,0,20
1,note_on,72,44,100
1,note_on,71,0,20
1,note_on,67,45,100
1,note_on,72,0,20
1,note_on,70,57,100
1,note_on,67,0,20
1,note_on,73,49,100
1,note_on,70,0,20
1,note_on,74,45,100
1,note_on,73,0,20
1,note_on,67,46,100
1,note_on,74,0,20
1,note_on,70,46,100
1,note_on,67,0,20
1,note_on,77,46,100
1,note_on,70,0,20
1,note_on,75,57,100
1,note_on,77,0,20
1,note_on,76,55,100
1,note_on,75,0,20
1,note_on,76,0,100
1,note_on,67,56,0
1,note_on,67,0,120
1,note_on,69,57,0
1,note_on,69,0,120
1,note_on,70,58,0
1,note_on,70,0,120
1,note_on,72,59,0
1,note_on,72,0,120
1,note_on,73,60,0
1,note_on,73,0,120
1,note_on,76,61,0
1,note_on,76,0,120
1,note_on,79,62,0
1,note_on,79,0,120
1,note_on,81,63,0
1,note_on,81,0,120
1,note_on,82,64,0
1,note_on,82,0,120
1,note_on,84,65,0
1,note_on,84,0,120
1,note_on,85,68,0
1,note_on,91,67,120
1,note_on,85,0,20
1,note_on,91,0,100
1,note_on,88,66,0
1,note_on,88,0,120
1,note_on,85,65,0
1,note_on,85,0,120
1,note_on,82,64,0
1,note_on,82,0,120
1,note_on,79,63,0
1,note_on,79,0,120
1,note_on,76,62,0
1,note_on,73,61,120
1,note_on,76,0,20
1,note_on,73,0,100
1,note_on,70,60,0
1,note_on,70,0,120
1,note_on,67,59,0
1,note_on,67,0,120
1,note_on,64,58,0
1,note_on,64,0,120
1,note_on,61,57,0
1,note_on,61,0,120
1,note_on,62,56,0
1,note_on,74,55,120
1,note_on,62,0,20
1,note_on,74,0,100
1,note_on,62,57,0
1,note_on,62,0,120
1,note_on,64,59,0
1,note_on,64,0,120
1,note_on,65,60,0
1,note_on,65,0,120
1,note_on,67,62,0
1,note_on,67,0,120
1,note_on,68,63,0
1,note_on,71,65,120
1,note_on,68,0,20
1,note_on,71,0,100
1,note_on,74,66,0
1,note_on,74,0,120
1,note_on,76,68,0
1,note_on,76,0,120
1,note_on,77,69,0
1,note_on,77,0,120
1,note_on,79,71,0
1,note_on,79,0,120
1,note_on,80,72,0
1,note_on,86,67,120
1,note_on,80,0,20
1,note_on,86,0,100
1,note_on,83,68,0
1,note_on,83,0,120
1,note_on,80,67,0
1,note_on,80,0,120
1,note_on,77,66,0
1,note_on,77,0,120
1,note_on,74,66,0
1,note_on,74,0,120
1,note_on,71,65,0
1,note_on,68,64,120
1,note_on,71,0,20
1,note_on,68,0,100
1,note_on,65,63,0
1,note_on,65,0,120
1,note_on,62,62,0
1,note_on,62,0,120
1,note_on,59,61,0
1,note_on,59,0,120
1,note_on,56,60,0
1,note_on,56,0,120
1,note_on,57,68,0
1,note_on,57,0,120
1,note_on,69,59,0
1,note_on,69,0,120
1,note_on,61,59,0
1,note_on,61,0,120
1,note_on,67,59,0
1,note_on,67,0,120
1,note_on,65,59,0
1,note_on,65,0,120
1,note_on,62,59,0
1,note_on,62,0,120
1,note_on,64,67,0
1,note_on,64,0,120
1,note_on,70,57,0
1,note_on,70,0,120
1,note_on,69,57,0
1,note_on,69,0,120
1,note_on,65,57,0
1,note_on,65,0,120
1,note_on,68,57,0
1,note_on,68,0,120
1,note_on,74,56,0
1,note_on,74,0,120
1,note_on,72,66,0
1,note_on,72,0,120
1,note_on,69,57,0
1,note_on,69,0,120
1,note_on,71,57,0
1,note_on,71,0,120
1,note_on,77,57,0
1,note_on,77,0,120
1,note_on,76,56,0
1,note_on,76,0,120
1,note_on,72,55,0
1,note_on,72,0,120
1,note_on,73,65,0
1,note_on,73,0,120
1,note_on,79,56,0
1,note_on,79,0,120
1,note_on,77,56,0
1,note_on,77,0,120
1,note_on,74,56,0
1,note_on,74,0,120
1,note_on,76,56,0
1,note_on,76,0,120
1,note_on,82,56,0
1,note_on,82,0,120
1,note_on,81,69,0
1,note_on,81,0,120
1,note_on,77,57,0
1,note_on,77,0,120
1,note_on,73,57,0
1,note_on,73,0,120
1,note_on,81,58,0
1,note_on,81,0,120
1,note_on,77,58,0
1,note_on,77,0,120
1,note_on,74,60,0
1,note_on,74,0,120
1,note_on,76,71,0
1,note_on,76,0,120
1,note_on,84,60,0
1,note_on,84,0,120
1,note_on,81,61,0
1,note_on,81,0,120
1,note_on,77,60,0
1,note_on,77,0,120
1,note_on,80,61,0
1,note_on,80,0,120
1,note_on,88,61,0
1,note_on,88,0,120
1,note_on,84,76,0
1,note_on,84,0,120
1,note_on,81,66,0
1,note_on,81,0,120
1,note_on,83,67,0
1,note_on,83,0,120
1,note_on,91,67,0
1,note_on,91,0,120
1,note_on,88,68,0
1,note_on,88,0,120
1,note_on,84,68,0
1,note_on,84,0,120
1,note_on,85,82,0
1,note_on,85,0,120
1,note_on,93,67,0
1,note_on,93,0,120
1,note_on,89,68,0
1,note_on,89,0,120
1,note_on,86,69,0
1,note_on,86,0,120
1,note_on,88,69,0
1,note_on,88,0,120
1,note_on,96,70,0
1,note_on,96,0,120
1,note_on,93,82,0
1,note_on,93,0,120
1,note_on,89,70,0
1,note_on,89,0,120
1,note_on,95,70,0
1,note_on,95,0,120
1,note_on,101,71,0
1,note_on,101,0,120
1,note_on,96,78,0
1,note_on,96,0,120
1,note_on,89,71,0
1,note_on,89,0,120
1,note_on,95,80,0
1,note_on,95,0,120
1,note_on,101,71,0
1,note_on,101,0,120
1,note_on,96,80,0
1,note_on,96,0,120
1,note_on,89,72,0
1,note_on,89,0,120
1,note_on,95,79,0
1,note_on,95,0,120
1,note_on,101,72,0
1,note_on,101,0,120
1,note_on,96,78,0
1,note_on,96,0,120
1,note_on,89,72,0
1,note_on,89,0,120
1,note_on,95,78,0
1,note_on,95,0,120
1,note_on,101,72,0
1,note_on,101,0,120
1,note_on,96,77,0
1,note_on,96,0,120
1,note_on,89,71,0
1,note_on,89,0,120
1,note_on,95,78,0
1,note_on,95,0,120
1,note_on,101,70,0
1,note_on,101,0,120
1,note_on,96,79,0
1,note_on,96,0,120
1,note_on,89,70,0
1,note_on,89,0,120
1,note_on,95,78,0
1,note_on,95,0,120
1,note_on,101,68,0
1,note_on,101,0,120
1,note_on,96,78,0
1,note_on,89,78,0
1,note_on,89,0,120
1,note_on,96,0,0
1,note_on,63,56,600
1,note_on,66,56,0
1,note_on,72,66,0
1,note_on,72,0,720
1,note_on,66,0,0
1,note_on,63,0,0
1,note_on,67,56,0
1,note_on,64,56,0
1,note_on,72,68,0
1,note_on,64,0,720
1,note_on,64,61,0
1,note_on,64,0,720
1,note_on,67,0,0
1,note_on,67,61,0
1,note_on,67,0,720
1,note_on,67,60,0
1,note_on,72,0,480
1,note_on,67,0,480
1,note_on,63,42,480
1,note_on,69,50,0
1,note_on,69,0,475
1,note_on,63,0,0
1,note_on,63,40,5
1,note_on,69,48,0
1,note_on,69,0,238
1,note_on,63,0,0
1,note_on,64,45,2
1,note_on,70,54,0
1,note_on,70,0,475
1,note_on,64,0,0
1,note_on,64,43,5
1,note_on,70,52,0
1,note_on,70,0,238
1,note_on,64,0,0
1,note_on,65,47,2
1,note_on,71,56,0
1,note_on,71,0,475
1,note_on,65,0,0
1,note_on,65,45,5
1,note_on,77,54,0
1,note_on,77,0,238
1,note_on,65,0,0
1,note_on,65,49,2
1,note_on,72,58,0
1,note_on,72,0,475
1,note_on,65,0,0
1,note_on,65,49,5
1,note_on,65,0,238
1,note_on,69,53,2
1,note_on,74,63,0
1,note_on,74,0,475
1,note_on,69,0,0
1,note_on,69,51,5
1,note_on,74,61,0
1,note_on,74,0,238
1,note_on,69,0,0
1,note_on,70,50,2
1,note_on,74,60,0
1,note_on,74,0,360
1,note_on,70,0,0
1,note_on,70,44,72
1,note_on,74,52,24
1,note_on,82,58,24
1,note_on,82,0,120
1,note_on,74,0,0
1,note_on,70,0,0
1,note_on,69,40,72
1,note_on,72,49,24
1,note_on,81,56,24
1,note_on,81,0,360
1,note_on,72,0,0
1,note_on,69,0,0
1,note_on,70,39,72
1,note_on,72,46,24
1,note_on,79,52,24
1,note_on,79,0,120
1,note_on,72,0,0
1,note_on,70,0,0
1,note_on,69,34,72
1,note_on,72,39,24
1,note_on,77,50,24
1,note_on,77,0,480
1,note_on,72,0,0
1,note_on,69,0,0
1,note_on,99,40,240
1,note_on,99,0,120
1,note_on,98,39,0
1,note_on,98,0,120
1,note_on,101,42,0
1,note_on,101,0,120
1,note_on,99,39,0
1,note_on,99,0,120
1,note_on,98,39,0
1,note_on,98,0,120
1,note_on,96,39,0
1,note_on,96,0,120
1,note_on,94,41,0
1,note_on,94,0,120
1,note_on,93,39,0
1,note_on,93,0,120
1,note_on,96,43,0
1,note_on,96,0,120
1,note_on,94,39,0
1,note_on,94,0,120
1,note_on,93,39,0
1,note_on,93,0,120
1,note_on,91,39,0
1,note_on,91,0,120
1,note_on,89,42,0
1,note_on,89,0,120
1,note_on,88,39,0
1,note_on,88,0,120
1,note_on,91,44,0
1,note_on,91,0,120
1,note_on,89,40,0
1,note_on,89,0,120
1,note_on,88,40,0
1,note_on,88,0,120
1,note_on,86,40,0
1,note_on,86,0,120
1,note_on,84,42,0
1,note_on,84,0,120
1,note_on,83,40,0
1,note_on,83,0,120
1,note_on,86,45,0
1,note_on,86,0,120
1,note_on,84,41,0
1,note_on,84,0,120
1,note_on,82,41,0
1,note_on,82,0,120
1,note_on,81,42,0
1,note_on,81,0,120
1,note_on,86,44,0
1,note_on,86,0,120
1,note_on,85,42,0
1,note_on,85,0,120
1,note_on,87,47,0
1,note_on,87,0,120
1,note_on,86,43,0
1,note_on,86,0,120
1,note_on,84,43,0
1,note_on,84,0,120
1,note_on,81,43,0
1,note_on,81,0,120
1,note_on,82,47,0
1,note_on,82,0,120
1,note_on,81,43,0
1,note_on,81,0,120
1,note_on,84,48,0
1,note_on,84,0,120
1,note_on,82,44,0
1,note_on,82,0,120
1,note_on,79,44,0
1,note_on,79,0,120
1,note_on,74,44,0
1,note_on,74,0,120
1,note_on,72,48,0
1,note_on,72,0,120
1,note_on,71,45,0
1,note_on,71,0,120
1,note_on,74,50,0
1,note_on,74,0,120
1,note_on,72,45,0
1,note_on,72,0,120
1,note_on,70,45,0
1,note_on,70,0,120
1,note_on,67,45,0
1,note_on,67,0,120
1,note_on,69,48,0
1,note_on,69,0,120
1,note_on,68,45,0
1,note_on,68,0,120
1,note_on,70,51,0
1,note_on,70,0,120
1,note_on,69,45,0
1,note_on,69,0,120
1,note_on,65,47,0
1,note_on,65,0,120
1,note_on,69,47,0
1,note_on,69,0,120
1,note_on,63,55,0
1,note_on,69,51,120
1,note_on,69,0,120
1,note_on,68,51,0
1,note_on,68,0,120
1,note_on,69,51,0
1,note_on,69,0,120
1,note_on,63,0,0
1,note_on,63,52,0
1,note_on,70,48,0
1,note_on,70,0,120
1,note_on,69,48,0
1,note_on,69,0,120
1,note_on,63,0,0
1,note_on,64,56,0
1,note_on,70,53,120
1,note_on,70,0,120
1,note_on,69,53,0
1,note_on,69,0,120
1,note_on,70,53,0
1,note_on,70,0,120
1,note_on,64,0,0
1,note_on,64,53,0
1,note_on,72,51,0
1,note_on,72,0,120
1,note_on,70,51,0
1,note_on,70,0,120
1,note_on,64,0,0
1,note_on,65,58,0
1,note_on,71,54,120
1,note_on,71,0,120
1,note_on,70,54,0
1,note_on,70,0,120
1,note_on,71,54,0
1,note_on,71,0,120
1,note_on,65,0,0
1,note_on,65,56,0
1,note_on,72,53,0
1,note_on,72,0,120
1,note_on,71,53,0
1,note_on,71,0,120
1,note_on,65,0,0
1,note_on,65,61,0
1,note_on,72,55,120
1,note_on,72,0,120
1,note_on,71,55,0
1,note_on,71,0,120
1,note_on,72,56,0
1,note_on,72,0,120
1,note_on,65,0,0
1,note_on,74,53,0
1,note_on,74,0,120
1,note_on,72,53,0
1,note_on,72,0,120
1,note_on,69,62,0
1,note_on,74,57,120
1,note_on,74,0,120
1,note_on,73,57,0
1,note_on,73,0,120
1,note_on,74,57,0
1,note_on,74,0,120
1,note_on,69,0,0
1,note_on,69,59,0
1,note_on,76,56,0
1,note_on,76,0,120
1,note_on,74,56,0
1,note_on,74,0,120
1,note_on,69,0,0
1,note_on,74,63,0
1,note_on,79,58,120
1,note_on,79,0,120
1,note_on,78,58,0
1,note_on,78,0,120
1,note_on,79,58,0
1,note_on,79,0,120
1,note_on,74,0,0
1,note_on,74,60,0
1,note_on,81,57,0
1,note_on,81,0,120
1,note_on,79,58,0
1,note_on,79,0,120
1,note_on,74,0,0
1,note_on,79,67,0
1,note_on,84,61,120
1,note_on,84,0,120
1,note_on,83,61,0
1,note_on,83,0,120
1,note_on,84,61,0
1,note_on,84,0,120
1,note_on,79,0,0
1,note_on,79,67,0
1,note_on,86,59,0
1,note_on,86,0,120
1,note_on,84,59,0
1,note_on,84,0,120
1,note_on,79,0,0
1,note_on,84,69,0
1,note_on,89,61,120
1,note_on,89,0,120
1,note_on,88,63,0
1,note_on,88,0,120
1,note_on,89,59,0
1,note_on,89,0,120
1,note_on,84,0,0
1,note_on,84,66,0
1,note_on,91,61,0
1,note_on,91,0,120
1,note_on,89,61,0
1,note_on,89,0,120
1,note_on,84,0,0
1,note_on,86,65,0
1,note_on,86,0,120
1,note_on,85,60,0
1,note_on,85,0,120
1,note_on,88,66,0
1,note_on,88,0,120
1,note_on,86,63,0
1,note_on,86,0,120
1,note_on,79,72,0
1,note_on,79,0,240
1,note_on,88,75,0
1,note_on,93,68,120
1,note_on,93,0,120
1,note_on,92,69,0
1,note_on,92,0,120
1,note_on,93,63,0
1,note_on,93,0,120
1,note_on,88,0,0
1,note_on,88,72,0
1,note_on,94,64,0
1,note_on,94,0,120
1,note_on,93,65,0
1,note_on,93,0,120
1,note_on,88,0,0
1,note_on,89,72,0
1,note_on,89,0,120
1,note_on,88,65,0
1,note_on,88,0,120
1,note_on,91,73,0
1,note_on,91,0,120
1,note_on,89,67,0
1,note_on,89,0,120
1,note_on,86,75,0
1,note_on,86,0,240
1,note_on,91,85,0
1,note_on,96,76,120
1,note_on,96,0,120
1,note_on,95,78,0
1,note_on,95,0,120
1,note_on,96,72,0
1,note_on,96,0,120
1,note_on,91,0,0
1,note_on,91,81,0
1,note_on,98,72,0
1,note_on,98,0,120
1,note_on,96,74,0
1,note_on,96,0,120
1,note_on,91,0,0
1,note_on,93,79,0
1,note_on,93,0,120
1,note_on,92,73,0
1,note_on,92,0,120
1,note_on,94,80,0
1,note_on,94,0,120
1,note_on,93,73,0
1,note_on,93,0,120
1,note_on,89,82,0
1,note_on,89,0,240
1,note_on,91,48,0
1,note_on,91,0,120
1,note_on,90,42,0
1,note_on,90,0,120
1,note_on,93,48,0
1,note_on,93,0,120
1,note_on,91,42,0
1,note_on,91,0,120
1,note_on,86,43,0
1,note_on,86,0,240
1,note_on,91,48,0
1,note_on,91,0,120
1,note_on,90,42,0
1,note_on,90,0,120
1,note_on,93,48,0
1,note_on,93,0,120
1,note_on,91,42,0
1,note_on,91,0,120
1,note_on,85,43,0
1,note_on,85,0,240
1,note_on,91,48,0
1,note_on,91,0,120
1,note_on,90,42,0
1,note_on,90,0,120
1,note_on,93,48,0
1,note_on,93,0,120
1,note_on,91,42,0
1,note_on,91,0,120
1,note_on,84,43,0
1,note_on,84,0,240
1,note_on,89,48,0
1,note_on,89,0,480
1,note_on,101,43,0
1,note_on,101,0,240
1,note_on,90,48,0
1,note_on,90,0,120
1,note_on,93,42,0
1,note_on,93,0,120
1,note_on,91,48,0
1,note_on,91,0,120
1,note_on,86,42,0
1,note_on,86,0,120
1,note_on,98,50,0
1,note_on,98,0,120
1,note_on,90,48,120
1,note_on,90,0,120
1,note_on,93,42,0
1,note_on,93,0,120
1,note_on,91,48,0
1,note_on,91,0,120
1,note_on,85,42,0
1,note_on,85,0,120
1,note_on,97,49,0
1,note_on,97,0,120
1,note_on,90,48,120
1,note_on,90,0,120
1,note_on,93,42,0
1,note_on,93,0,120
1,note_on,91,48,0
1,note_on,91,0,120
1,note_on,84,42,0
1,note_on,84,0,120
1,note_on,96,49,0
1,note_on,96,0,120
1,note_on,92,48,120
1,note_on,92,0,120
1,note_on,94,42,0
1,note_on,94,0,120
1,note_on,93,48,0
1,note_on,93,0,120
1,note_on,89,42,0
1,note_on,89,0,120
1,note_on,101,50,0
1,note_on,101,0,240
1,note_on,98,60,0
1,note_on,98,0,120
1,note_on,97,55,0
1,note_on,97,0,120
1,note_on,100,55,0
1,note_on,100,0,120
1,note_on,98,55,0
1,note_on,98,0,120
1,note_on,95,57,0
1,note_on,95,0,120
1,note_on,91,53,0
1,note_on,91,0,120
1,note_on,97,60,0
1,note_on,97,0,120
1,note_on,96,55,0
1,note_on,96,0,120
1,note_on,99,55,0
1,note_on,99,0,120
1,note_on,97,55,0
1,note_on,97,0,120
1,note_on,94,57,0
1,note_on,94,0,120
1,note_on,91,54,0
1,note_on,91,0,120
1,note_on,94,61,0
1,note_on,94,0,120
1,note_on,93,55,0
1,note_on,93,0,120
1,note_on,96,55,0
1,note_on,96,0,120
1,note_on,94,55,0
1,note_on,94,0,120
1,note_on,91,58,0
1,note_on,91,0,120
1,note_on,88,55,0
1,note_on,88,0,120
1,note_on,93,60,0
1,note_on,93,0,120
1,note_on,92,55,0
1,note_on,92,0,120
1,note_on,94,55,0
1,note_on,94,0,120
1,note_on,93,55,0
1,note_on,93,0,120
1,note_on,89,56,0
1,note_on,89,0,120
1,note_on,84,55,0
1,note_on,84,0,120
1,note_on,86,60,0
1,note_on,86,0,120
1,note_on,85,55,0
1,note_on,85,0,120
1,note_on,88,54,0
1,note_on,88,0,120
1,note_on,86,53,0
1,note_on,86,0,120
1,note_on,83,55,0
1,note_on,83,0,120
1,note_on,79,50,0
1,note_on,79,0,120
1,note_on,85,57,0
1,note_on,85,0,120
1,note_on,84,52,0
1,note_on,84,0,120
1,note_on,87,51,0
1,note_on,87,0,120
1,note_on,85,51,0
1,note_on,85,0,120
1,note_on,82,52,0
1,note_on,82,0,120
1,note_on,79,49,0
1,note_on,79,0,120
1,note_on,82,54,0
1,note_on,82,0,120
1,note_on,81,49,0
1,note_on,81,0,120
1,note_on,84,48,0
1,note_on,84,0,120
1,note_on,82,48,0
1,note_on,82,0,120
1,note_on,79,50,0
1,note_on,79,0,120
1,note_on,76,47,0
1,note_on,76,0,120
1,note_on,81,51,0
1,note_on,81,0,120
1,note_on,80,46,0
1,note_on,80,0,120
1,note_on,82,46,0
1,note_on,82,0,120
1,note_on,81,45,0
1,note_on,81,0,120
1,note_on,77,45,0
1,note_on,77,0,120
1,note_on,72,44,0
1,note_on,72,0,120
1,note_on,74,48,0
1,note_on,74,0,120
1,note_on,73,44,0
1,note_on,73,0,120
1,note_on,76,44,0
1,note_on,76,0,120
1,note_on,74,44,0
1,note_on,74,0,120
1,note_on,71,45,0
1,note_on,71,0,120
1,note_on,67,42,0
1,note_on,67,0,120
1,note_on,73,48,0
1,note_on,73,0,120
1,note_on,72,44,0
1,note_on,72,0,120
1,note_on,75,44,0
1,note_on,75,0,120
1,note_on,73,44,0
1,note_on,73,0,120
1,note_on,70,45,0
1,note_on,70,0,120
1,note_on,67,43,0
1,note_on,67,0,120
1,note_on,70,48,0
1,note_on,70,0,120
1,note_on,69,44,0
1,note_on,69,0,120
1,note_on,72,44,0
1,note_on,72,0,120
1,note_on,70,44,0
1,note_on,70,0,120
1,note_on,67,46,0
1,note_on,67,0,120
1,note_on,64,44,0
1,note_on,64,0,120
1,note_on,69,48,0
1,note_on,69,0,120
1,note_on,68,44,0
1,note_on,68,0,120
1,note_on,70,44,0
1,note_on,70,0,120
1,note_on,69,44,0
1,note_on,69,0,120
1,note_on,65,44,0
1,note_on,65,0,120
1,note_on,60,44,0
1,note_on,60,0,120
1,note_on,62,40,0
1,note_on,61,37,120
1,note_on,62,0,20
1,note_on,64,37,100
1,note_on,61,0,20
1,note_on,62,36,100
1,note_on,64,0,20
1,note_on,59,37,100
1,note_on,62,0,20
1,note_on,55,34,100
1,note_on,59,0,20
1,note_on,61,39,100
1,note_on,55,0,20
1,note_on,60,36,100
1,note_on,61,0,20
1,note_on,63,35,100
1,note_on,60,0,20
1,note_on,61,35,100
1,note_on,63,0,20
1,note_on,58,36,100
1,note_on,61,0,20
1,note_on,55,34,100
1,note_on,58,0,20
1,note_on,58,38,100
1,note_on,55,0,20
1,note_on,57,35,100
1,note_on,58,0,20
1,note_on,60,35,100
1,note_on,57,0,20
1,note_on,58,34,100
1,note_on,60,0,20
1,note_on,55,36,100
1,note_on,58,0,20
1,note_on,52,34,100
1,note_on,55,0,20
1,note_on,55,37,100
1,note_on,52,0,20
1,note_on,54,34,100
1,note_on,55,0,20
1,note_on,57,34,100
1,note_on,54,0,20
1,note_on,55,34,100
1,note_on,57,0,20
1,note_on,52,33,100
1,note_on,55,0,20
1,note_on,48,33,100
1,note_on,52,0,20
1,note_on,48,0,100
1,note_on,53,36,0
1,note_on,52,33,120
1,note_on,53,0,20
1,note_on,53,33,100
1,note_on,52,0,20
1,note_on,48,32,100
1,note_on,53,0,20
1,note_on,45,34,100
1,note_on,48,0,20
1,note_on,48,32,100
1,note_on,45,0,20
1,note_on,52,35,100
1,note_on,48,0,20
1,note_on,51,32,100
1,note_on,52,0,20
1,note_on,52,32,100
1,note_on,51,0,20
1,note_on,46,32,100
1,note_on,52,0,20
1,note_on,43,31,100
1,note_on,46,0,20
1,note_on,46,31,100
1,note_on,43,0,20
1,note_on,53,34,100
1,note_on,46,0,20
1,note_on,52,31,100
1,note_on,53,0,20
1,note_on,53,31,100
1,note_on,52,0,20
1,note_on,48,31,100
1,note_on,53,0,20
1,note_on,45,33,100
1,note_on,48,0,20
1,note_on,48,31,100
1,note_on,45,0,20
1,note_on,52,34,100
1,note_on,48,0,20
1,note_on,51,31,100
1,note_on,52,0,20
1,note_on,52,31,100
1,note_on,51,0,20
1,note_on,46,31,100
1,note_on,52,0,20
1,note_on,43,31,100
1,note_on,46,0,20
1,note_on,46,31,100
1,note_on,43,0,20
1,note_on,53,34,100
1,note_on,46,0,20
1,note_on,52,31,100
1,note_on,53,0,20
1,note_on,53,31,100
1,note_on,52,0,20
1,note_on,48,31,100
1,note_on,53,0,20
1,note_on,45,33,100
1,note_on,48,0,20
1,note_on,48,31,100
1,note_on,45,0,20
1,note_on,52,34,100
1,note_on,48,0,20
1,note_on,51,31,100
1,note_on,52,0,20
1,note_on,52,31,100
1,note_on,51,0,20
1,note_on,46,31,100
1,note_on,52,0,20
1,note_on,43,31,100
1,note_on,46,0,20
1,note_on,46,31,100
1,note_on,43,0,20
1,note_on,46,0,100
1,note_on,53,31,0
1,note_on,45,26,0
1,note_on,45,0,240
1,note_on,53,0,0
1,note_on,64,26,480
1,note_on,72,31,0
1,note_on,72,0,120
1,note_on,64,0,0
1,note_on,57,26,600
1,note_on,65,31,0
1,note_on,65,0,120
1,note_on,57,0,0
2,note_on,48,45,0
2,note_on,48,0,228
2,note_on,64,35,12
2,note_on,60,29,0
2,note_on,58,29,0
2,note_on,58,0,228
2,note_on,60,0,0
2,note_on,64,0,0
2,note_on,58,30,12
2,note_on,60,30,0
2,note_on,64,36,0
2,note_on,64,0,228
2,note_on,60,0,0
2,note_on,58,0,0
2,note_on,58,30,12
2,note_on,60,30,0
2,note_on,64,36,0
2,note_on,64,0,228
2,note_on,60,0,0
2,note_on,58,0,0
2,note_on,58,32,12
2,note_on,60,32,0
2,note_on,64,38,0
2,note_on,64,0,228
2,note_on,60,0,0
2,note_on,58,0,0
2,note_on,58,33,12
2,note_on,60,33,0
2,note_on,64,39,0
2,note_on,64,0,228
2,note_on,60,0,0
2,note_on,58,0,0
2,note_on,48,50,12
2,note_on,48,0,102
2,note_on,64,35,12
2,note_on,60,29,0
2,note_on,58,29,0
2,note_on,58,0,228
2,note_on,60,0,0
2,note_on,64,0,0
2,note_on,64,36,12
2,note_on,60,30,0
2,note_on,58,30,0
2,note_on,58,0,228
2,note_on,60,0,0
2,note_on,64,0,0
2,note_on,64,37,12
2,note_on,60,31,0
2,note_on,58,31,0
2,note_on,58,0,228
2,note_on,60,0,0
2,note_on,64,0,0
2,note_on,64,38,12
2,note_on,60,32,0
2,note_on,58,32,0
2,note_on,58,0,114
2,note_on,60,0,0
2,note_on,64,0,0
2,note_on,64,39,12
2,note_on,60,33,0
2,note_on,58,33,0
2,note_on,58,0,228
2,note_on,60,0,0
2,note_on,64,0,0
2,note_on,53,50,12
2,note_on,53,0,87
2,note_on,65,35,12
2,note_on,60,29,0
2,note_on,57,29,0
2,note_on,57,0,228
2,note_on,60,0,0
2,note_on,65,0,0
2,note_on,57,30,12
2,note_on,60,30,0
2,note_on,65,36,0
2,note_on,65,0,228
2,note_on,60,0,0
2,note_on,57,0,0
2,note_on,57,31,12
2,note_on,60,31,0
2,note_on,65,37,0
2,note_on,65,0,228
2,note_on,60,0,0
2,note_on,57,0,0
2,note_on,57,32,12
2,note_on,60,32,0
2,note_on,65,38,0
2,note_on,65,0,228
2,note_on,60,0,0
2,note_on,57,0,0
2,note_on,57,33,12
2,note_on,60,33,0
2,note_on,65,39,0
2,note_on,65,0,228
2,note_on,60,0,0
2,note_on,57,0,0
2,note_on,45,50,0
2,note_on,45,0,101
2,note_on,65,41,12
2,note_on,60,34,0
2,note_on,57,34,0
2,note_on,57,0,228
2,note_on,60,0,0
2,note_on,65,0,0
2,note_on,65,41,12
2,note_on,60,34,0
2,note_on,57,34,0
2,note_on,57,0,228
2,note_on,60,0,0
2,note_on,65,0,0
2,note_on,65,42,12
2,note_on,60,35,0
2,note_on,57,35,0
2,note_on,57,0,228
2,note_on,60,0,0
2,note_on,65,0,0
2,note_on,57,35,12
2,note_on,60,35,0
2,note_on,63,42,0
2,note_on,63,0,148
2,note_on,60,0,0
2,note_on,57,0,0
2,note_on,57,35,12
2,note_on,60,35,0
2,note_on,63,42,0
2,note_on,63,0,228
2,note_on,60,0,0
2,note_on,57,0,0
2,note_on,46,45,12
2,note_on,46,0,140
2,note_on,62,35,12
2,note_on,58,29,0
2,note_on,55,29,0
2,note_on,55,0,228
2,note_on,58,0,0
2,note_on,62,0,0
2,note_on,55,30,12
2,note_on,58,30,0
2,note_on,62,36,0
2,note_on,62,0,228
2,note_on,58,0,0
2,note_on,55,0,0
2,note_on,55,30,12
2,note_on,58,30,0
2,note_on,62,36,0
2,note_on,62,0,228
2,note_on,58,0,0
2,note_on,55,0,0
2,note_on,55,32,12
2,note_on,58,32,0
2,note_on,62,38,0
2,note_on,62,0,228
2,note_on,58,0,0
2,note_on,55,0,0
2,note_on,55,33,12
2,note_on,58,33,0
2,note_on,62,39,0
2,note_on,62,0,228
2,note_on,58,0,0
2,note_on,55,0,0
2,note_on,48,50,0
2,note_on,48,0,102
2,note_on,60,35,12
2,note_on,58,29,0
2,note_on,55,29,0
2,note_on,55,0,228
2,note_on,58,0,0
2,note_on,60,0,0
2,note_on,60,36,12
2,note_on,58,30,0
2,note_on,55,30,0
2,note_on,55,0,228
2,note_on,58,0,0
2,note_on,60,0,0
2,note_on,60,37,12
2,note_on,58,31,0
2,note_on,55,31,0
2,note_on,55,0,228
2,note_on,58,0,0
2,note_on,60,0,0
2,note_on,60,38,12
2,note_on,58,32,0
2,note_on,55,32,0
2,note_on,55,0,114
2,note_on,58,0,0
2,note_on,60,0,0
2,note_on,60,39,12
2,note_on,58,33,0
2,note_on,55,33,0
2,note_on,55,0,228
2,note_on,58,0,0
2,note_on,60,0,0
2,note_on,53,50,12
2,note_on,53,0,87
2,note_on,57,33,12
2,note_on,53,28,0
2,note_on,53,0,228
2,note_on,57,0,0
2,note_on,53,28,12
2,note_on,57,33,0
2,note_on,57,0,228
2,note_on,53,0,0
2,note_on,53,28,12
2,note_on,57,33,0
2,note_on,57,0,228
2,note_on,53,0,0
2,note_on,53,28,12
2,note_on,57,33,0
2,note_on,57,0,228
2,note_on,53,0,0
2,note_on,53,27,12
2,note_on,57,32,0
2,note_on,57,0,228
2,note_on,53,0,0
2,note_on,53,40,12
2,note_on,53,0,101
2,note_on,65,32,12
2,note_on,60,27,0
2,note_on,57,27,0
2,note_on,57,0,228
2,note_on,60,0,0
2,note_on,65,0,0
2,note_on,65,32,12
2,note_on,60,27,0
2,note_on,57,27,0
2,note_on,57,0,228
2,note_on,60,0,0
2,note_on,65,0,0
2,note_on,65,33,12
2,note_on,60,28,0
2,note_on,57,28,0
2,note_on,57,0,228
2,note_on,60,0,0
2,note_on,65,0,0
2,note_on,57,28,12
2,note_on,60,28,0
2,note_on,65,33,0
2,note_on,65,0,228
2,note_on,60,0,0
2,note_on,57,0,0
2,note_on,57,28,12
2,note_on,60,28,0
2,note_on,65,33,0
2,note_on,65,0,228
2,note_on,60,0,0
2,note_on,57,0,0
2,note_on,60,38,12
2,note_on,48,29,0
2,note_on,48,0,102
2,note_on,60,0,0
2,note_on,64,29,12
2,note_on,58,24,0
2,note_on,58,0,228
2,note_on,64,0,0
2,note_on,58,25,12
2,note_on,64,30,0
2,note_on,64,0,228
2,note_on,58,0,0
2,note_on,58,25,12
2,note_on,64,30,0
2,note_on,64,0,228
2,note_on,58,0,0
2,note_on,58,27,12
2,note_on,64,32,0
2,note_on,64,0,228
2,note_on,58,0,0
2,note_on,58,28,12
2,note_on,64,33,0
2,note_on,64,0,228
2,note_on,58,0,0
2,note_on,60,42,12
2,note_on,48,32,0
2,note_on,48,0,102
2,note_on,60,0,0
2,note_on,64,29,12
2,note_on,58,24,0
2,note_on,58,0,228
2,note_on,64,0,0
2,note_on,64,30,12
2,note_on,58,25,0
2,note_on,58,0,228
2,note_on,64,0,0
2,note_on,64,31,12
2,note_on,58,26,0
2,note_on,58,0,228
2,note_on,64,0,0
2,note_on,64,32,12
2,note_on,58,27,0
2,note_on,58,0,114
2,note_on,64,0,0
2,note_on,64,33,12
2,note_on,58,28,0
2,note_on,58,0,228
2,note_on,64,0,0
2,note_on,65,37,12
2,note_on,53,30,0
2,note_on,53,0,87
2,note_on,65,0,0
2,note_on,60,29,12
2,note_on,57,24,0
2,note_on,57,0,228
2,note_on,60,0,0
2,note_on,57,25,12
2,note_on,60,30,0
2,note_on,60,0,228
2,note_on,57,0,0
2,note_on,57,26,12
2,note_on,60,31,0
2,note_on,60,0,228
2,note_on,57,0,0
2,note_on,57,27,12
2,note_on,60,32,0
2,note_on,60,0,228
2,note_on,57,0,0
2,note_on,57,28,12
2,note_on,60,33,0
2,note_on,60,0,228
2,note_on,57,0,0
2,note_on,57,42,12
2,note_on,45,35,0
2,note_on,45,0,101
2,note_on,57,0,0
2,note_on,60,34,12
2,note_on,53,28,0
2,note_on,53,0,228
2,note_on,60,0,0
2,note_on,60,34,12
2,note_on,53,28,0
2,note_on,53,0,228
2,note_on,60,0,0
2,note_on,60,35,12
2,note_on,53,29,0
2,note_on,53,0,228
2,note_on,60,0,0
2,note_on,51,29,12
2,note_on,60,35,0
2,note_on,60,0,137
2,note_on,51,0,0
2,note_on,51,29,12
2,note_on,60,35,0
2,note_on,60,0,228
2,note_on,51,0,0
2,note_on,58,38,12
2,note_on,46,32,0
2,note_on,46,0,140
2,note_on,58,0,0
2,note_on,62,29,12
2,note_on,55,24,0
2,note_on,50,24,0
2,note_on,50,0,228
2,note_on,55,0,0
2,note_on,62,0,0
2,note_on,50,25,12
2,note_on,55,25,0
2,note_on,62,30,0
2,note_on,62,0,228
2,note_on,55,0,0
2,note_on,50,0,0
2,note_on,50,25,12
2,note_on,55,25,0
2,note_on,62,30,0
2,note_on,62,0,228
2,note_on,55,0,0
2,note_on,50,0,0
2,note_on,50,27,12
2,note_on,55,27,0
2,note_on,62,32,0
2,note_on,62,0,228
2,note_on,55,0,0
2,note_on,50,0,0
2,note_on,50,28,12
2,note_on,55,28,0
2,note_on,62,33,0
2,note_on,62,0,228
2,note_on,55,0,0
2,note_on,50,0,0
2,note_on,60,42,12
2,note_on,48,35,0
2,note_on,48,0,102
2,note_on,60,0,0
2,note_on,64,29,12
2,note_on,58,24,0
2,note_on,55,24,0
2,note_on,55,0,228
2,note_on,58,0,0
2,note_on,64,0,0
2,note_on,64,30,12
2,note_on,58,25,0
2,note_on,55,25,0
2,note_on,55,0,228
2,note_on,58,0,0
2,note_on,64,0,0
2,note_on,64,31,12
2,note_on,58,26,0
2,note_on,55,26,0
2,note_on,55,0,228
2,note_on,58,0,0
2,note_on,64,0,0
2,note_on,60,32,12
2,note_on,58,27,0
2,note_on,55,27,0
2,note_on,55,0,114
2,note_on,58,0,0
2,note_on,60,0,0
2,note_on,60,33,12
2,note_on,58,28,0
2,note_on,55,28,0
2,note_on,55,0,228
2,note_on,58,0,0
2,note_on,60,0,0
2,note_on,41,37,12
2,note_on,53,42,0
2,note_on,53,0,87
2,note_on,41,0,0
2,note_on,48,23,12
2,note_on,60,28,0
2,note_on,57,23,0
2,note_on,57,0,228
2,note_on,60,0,0
2,note_on,48,0,0
2,note_on,48,23,12
2,note_on,57,23,0
2,note_on,60,28,0
2,note_on,60,0,228
2,note_on,57,0,0
2,note_on,48,0,0
2,note_on,48,23,12
2,note_on,57,23,0
2,note_on,60,28,0
2,note_on,60,0,228
2,note_on,57,0,0
2,note_on,48,0,0
2,note_on,48,23,12
2,note_on,57,23,0
2,note_on,60,28,0
2,note_on,60,0,228
2,note_on,57,0,0
2,note_on,48,0,0
2,note_on,48,22,12
2,note_on,57,22,0
2,note_on,60,27,0
2,note_on,60,0,228
2,note_on,57,0,0
2,note_on,48,0,0
2,note_on,41,26,12
2,note_on,53,34,0
2,note_on,53,0,101
2,note_on,41,0,0
2,note_on,65,27,12
2,note_on,60,22,0
2,note_on,57,22,0
2,note_on,57,0,228
2,note_on,60,0,0
2,note_on,65,0,0
2,note_on,65,27,12
2,note_on,60,22,0
2,note_on,57,22,0
2,note_on,57,0,228
2,note_on,60,0,0
2,note_on,65,0,0
2,note_on,65,28,12
2,note_on,60,23,0
2,note_on,57,23,0
2,note_on,57,0,228
2,note_on,60,0,0
2,note_on,65,0,0
2,note_on,65,38,12
2,note_on,59,32,0
2,note_on,55,32,0
2,note_on,55,0,114
2,note_on,59,0,0
2,note_on,65,0,0
2,note_on,65,39,12
2,note_on,59,33,0
2,note_on,55,33,0
2,note_on,55,0,228
2,note_on,59,0,0
2,note_on,65,0,0
2,note_on,48,50,0
2,note_on,48,0,87
2,note_on,64,38,12
2,note_on,60,31,0
2,note_on,55,31,0
2,note_on,55,0,228
2,note_on,60,0,0
2,note_on,64,0,0
2,note_on,55,33,12
2,note_on,60,33,0
2,note_on,64,39,0
2,note_on,64,0,228
2,note_on,60,0,0
2,note_on,55,0,0
2,note_on,55,34,12
2,note_on,60,34,0
2,note_on,64,40,0
2,note_on,64,0,228
2,note_on,60,0,0
2,note_on,55,0,0
2,note_on,55,35,12
2,note_on,60,35,0
2,note_on,64,41,0
2,note_on,64,0,228
2,note_on,60,0,0
2,note_on,55,0,0
2,note_on,55,36,12
2,note_on,60,36,0
2,note_on,64,42,0
2,note_on,64,0,228
2,note_on,60,0,0
2,note_on,55,0,0
2,note_on,49,55,12
2,note_on,49,0,101
2,note_on,67,45,12
2,note_on,64,37,0
2,note_on,57,37,0
2,note_on,57,0,228
2,note_on,64,0,0
2,note_on,67,0,0
2,note_on,67,45,12
2,note_on,64,37,0
2,note_on,57,37,0
2,note_on,57,0,228
2,note_on,64,0,0
2,note_on,67,0,0
2,note_on,67,46,12
2,note_on,64,38,0
2,note_on,57,38,0
2,note_on,57,0,228
2,note_on,64,0,0
2,note_on,67,0,0
2,note_on,67,41,12
2,note_on,64,35,0
2,note_on,57,35,0
2,note_on,57,0,114
2,note_on,64,0,0
2,note_on,67,0,0
2,note_on,67,42,12
2,note_on,64,36,0
2,note_on,57,36,0
2,note_on,57,0,228
2,note_on,64,0,0
2,note_on,67,0,0
2,note_on,50,55,12
2,note_on,50,0,87
2,note_on,65,41,12
2,note_on,62,34,0
2,note_on,57,34,0
2,note_on,57,0,228
2,note_on,62,0,0
2,note_on,65,0,0
2,note_on,57,36,12
2,note_on,62,36,0
2,note_on,65,42,0
2,note_on,65,0,228
2,note_on,62,0,0
2,note_on,57,0,0
2,note_on,57,37,12
2,note_on,62,37,0
2,note_on,65,44,0
2,note_on,65,0,228
2,note_on,62,0,0
2,note_on,57,0,0
2,note_on,57,38,12
2,note_on,62,38,0
2,note_on,65,45,0
2,note_on,65,0,228
2,note_on,62,0,0
2,note_on,57,0,0
2,note_on,57,39,12
2,note_on,62,39,0
2,note_on,65,46,0
2,note_on,65,0,228
2,note_on,62,0,0
2,note_on,57,0,0
2,note_on,52,55,12
2,note_on,52,0,101
2,note_on,67,49,12
2,note_on,60,40,0
2,note_on,58,40,0
2,note_on,58,0,228
2,note_on,60,0,0
2,note_on,67,0,0
2,note_on,67,49,12
2,note_on,60,40,0
2,note_on,58,40,0
2,note_on,58,0,228
2,note_on,60,0,0
2,note_on,67,0,0
2,note_on,67,51,12
2,note_on,60,42,0
2,note_on,58,42,0
2,note_on,58,0,228
2,note_on,60,0,0
2,note_on,67,0,0
2,note_on,67,46,12
2,note_on,60,39,0
2,note_on,58,39,0
2,note_on,58,0,114
2,note_on,60,0,0
2,note_on,67,0,0
2,note_on,67,49,12
2,note_on,60,40,0
2,note_on,58,40,0
2,note_on,58,0,228
2,note_on,60,0,0
2,note_on,67,0,0
2,note_on,53,58,12
2,note_on,53,0,87
2,note_on,65,44,12
2,note_on,60,37,0
2,note_on,57,37,0
2,note_on,57,0,228
2,note_on,60,0,0
2,note_on,65,0,0
2,note_on,57,39,12
2,note_on,60,39,0
2,note_on,65,46,0
2,note_on,65,0,228
2,note_on,60,0,0
2,note_on,57,0,0
2,note_on,57,40,12
2,note_on,60,40,0
2,note_on,65,49,0
2,note_on,65,0,228
2,note_on,60,0,0
2,note_on,57,0,0
2,note_on,57,41,12
2,note_on,60,41,0
2,note_on,65,50,0
2,note_on,65,0,228
2,note_on,60,0,0
2,note_on,57,0,0
2,note_on,57,44,12
2,note_on,60,44,0
2,note_on,65,52,0
2,note_on,65,0,228
2,note_on,60,0,0
2,note_on,57,0,0
2,note_on,47,62,12
2,note_on,47,0,101
2,note_on,65,51,12
2,note_on,62,42,0
2,note_on,55,42,0
2,note_on,55,0,228
2,note_on,62,0,0
2,note_on,65,0,0
2,note_on,65,51,12
2,note_on,62,42,0
2,note_on,55,42,0
2,note_on,55,0,228
2,note_on,62,0,0
2,note_on,65,0,0
2,note_on,65,52,12
2,note_on,62,44,0
2,note_on,55,44,0
2,note_on,55,0,228
2,note_on,62,0,0
2,note_on,65,0,0
2,note_on,65,45,12
2,note_on,62,38,0
2,note_on,55,38,0
2,note_on,55,0,114
2,note_on,62,0,0
2,note_on,65,0,0
2,note_on,65,39,12
2,note_on,62,33,0
2,note_on,55,33,0
2,note_on,55,0,228
2,note_on,62,0,0
2,note_on,65,0,0
2,note_on,48,45,12
2,note_on,48,0,87
2,note_on,62,35,12
2,note_on,58,29,0
2,note_on,58,0,228
2,note_on,62,0,0
2,note_on,58,29,12
2,note_on,62,35,0
2,note_on,62,0,228
2,note_on,58,0,0
2,note_on,58,30,12
2,note_on,62,36,0
2,note_on,62,0,228
2,note_on,58,0,0
2,note_on,58,30,12
2,note_on,64,37,0
2,note_on,64,0,228
2,note_on,58,0,0
2,note_on,58,31,12
2,note_on,64,37,0
2,note_on,64,0,228
2,note_on,58,0,0
2,note_on,41,47,12
2,note_on,41,0,101
2,note_on,65,34,12
2,note_on,60,28,0
2,note_on,57,28,0
2,note_on,57,0,228
2,note_on,60,0,0
2,note_on,65,0,0
2,note_on,65,34,12
2,note_on,60,28,0
2,note_on,57,28,0
2,note_on,57,0,228
2,note_on,60,0,0
2,note_on,65,0,0
2,note_on,65,35,12
2,note_on,60,29,0
2,note_on,57,29,0
2,note_on,57,0,228
2,note_on,60,0,0
2,note_on,65,0,0
2,note_on,65,27,12
2,note_on,59,22,0
2,note_on,55,22,0
2,note_on,55,0,114
2,note_on,59,0,0
2,note_on,65,0,0
2,note_on,65,27,12
2,note_on,59,23,0
2,note_on,55,23,0
2,note_on,55,0,228
2,note_on,59,0,0
2,note_on,65,0,0
2,note_on,48,31,12
2,note_on,60,36,0
2,note_on,60,0,87
2,note_on,48,0,0
2,note_on,64,25,12
2,note_on,55,20,0
2,note_on,55,0,228
2,note_on,64,0,0
2,note_on,55,21,12
2,note_on,64,25,0
2,note_on,64,0,228
2,note_on,55,0,0
2,note_on,55,21,12
2,note_on,64,26,0
2,note_on,64,0,228
2,note_on,55,0,0
2,note_on,55,22,12
2,note_on,64,27,0
2,note_on,64,0,228
2,note_on,55,0,0
2,note_on,55,23,12
2,note_on,64,27,0
2,note_on,64,0,228
2,note_on,55,0,0
2,note_on,61,36,12
2,note_on,49,31,0
2,note_on,49,0,101
2,note_on,61,0,0
2,note_on,67,29,12
2,note_on,64,24,0
2,note_on,57,24,0
2,note_on,57,0,228
2,note_on,64,0,0
2,note_on,67,0,0
2,note_on,67,30,12
2,note_on,64,25,0
2,note_on,57,25,0
2,note_on,57,0,228
2,note_on,64,0,0
2,note_on,67,0,0
2,note_on,67,32,12
2,note_on,64,27,0
2,note_on,57,27,0
2,note_on,57,0,228
2,note_on,64,0,0
2,note_on,67,0,0
2,note_on,67,30,12
2,note_on,64,25,0
2,note_on,57,25,0
2,note_on,57,0,114
2,note_on,64,0,0
2,note_on,67,0,0
2,note_on,67,31,12
2,note_on,64,26,0
2,note_on,57,26,0
2,note_on,57,0,228
2,note_on,64,0,0
2,note_on,67,0,0
2,note_on,62,40,12
2,note_on,50,33,0
2,note_on,50,0,87
2,note_on,62,0,0
2,note_on,65,28,12
2,note_on,57,23,0
2,note_on,57,0,228
2,note_on,65,0,0
2,note_on,57,24,12
2,note_on,65,28,0
2,note_on,65,0,228
2,note_on,57,0,0
2,note_on,57,24,12
2,note_on,65,30,0
2,note_on,65,0,228
2,note_on,57,0,0
2,note_on,57,26,12
2,note_on,65,31,0
2,note_on,65,0,228
2,note_on,57,0,0
2,note_on,57,27,12
2,note_on,65,32,0
2,note_on,65,0,228
2,note_on,57,0,0
2,note_on,64,42,12
2,note_on,52,38,0
2,note_on,52,0,101
2,note_on,64,0,0
2,note_on,67,34,12
2,note_on,60,28,0
2,note_on,58,28,0
2,note_on,58,0,228
2,note_on,60,0,0
2,note_on,67,0,0
2,note_on,67,34,12
2,note_on,60,29,0
2,note_on,58,29,0
2,note_on,58,0,228
2,note_on,60,0,0
2,note_on,67,0,0
2,note_on,67,37,12
2,note_on,60,30,0
2,note_on,58,30,0
2,note_on,58,0,228
2,note_on,60,0,0
2,note_on,67,0,0
2,note_on,67,34,12
2,note_on,60,28,0
2,note_on,58,28,0
2,note_on,58,0,114
2,note_on,60,0,0
2,note_on,67,0,0
2,note_on,67,35,12
2,note_on,60,29,0
2,note_on,58,29,0
2,note_on,58,0,228
2,note_on,60,0,0
2,note_on,67,0,0
2,note_on,65,46,12
2,note_on,53,41,0
2,note_on,53,0,87
2,note_on,65,0,0
2,note_on,69,37,12
2,note_on,60,30,0
2,note_on,60,0,228
2,note_on,69,0,0
2,note_on,60,33,12
2,note_on,69,40,0
2,note_on,69,0,228
2,note_on,60,0,0
2,note_on,60,34,12
2,note_on,69,41,0
2,note_on,69,0,228
2,note_on,60,0,0
2,note_on,60,36,12
2,note_on,69,42,0
2,note_on,69,0,228
2,note_on,60,0,0
2,note_on,60,37,12
2,note_on,69,45,0
2,note_on,69,0,228
2,note_on,60,0,0
2,note_on,59,53,12
2,note_on,47,45,0
2,note_on,47,0,101
2,note_on,59,0,0
2,note_on,65,41,12
2,note_on,56,34,0
2,note_on,56,0,228
2,note_on,65,0,0
2,note_on,65,41,12
2,note_on,56,34,0
2,note_on,56,0,228
2,note_on,65,0,0
2,note_on,65,42,12
2,note_on,56,36,0
2,note_on,56,0,228
2,note_on,65,0,0
2,note_on,65,32,12
2,note_on,56,28,0
2,note_on,56,0,114
2,note_on,65,0,0
2,note_on,65,33,12
2,note_on,56,28,0
2,note_on,56,0,228
2,note_on,65,0,0
2,note_on,60,43,12
2,note_on,48,37,0
2,note_on,48,0,87
2,note_on,60,0,0
2,note_on,62,28,12
2,note_on,58,23,0
2,note_on,58,0,228
2,note_on,62,0,0
2,note_on,58,22,12
2,note_on,62,27,0
2,note_on,62,0,228
2,note_on,58,0,0
2,note_on,58,23,12
2,note_on,62,27,0
2,note_on,62,0,228
2,note_on,58,0,0
2,note_on,58,22,12
2,note_on,64,27,0
2,note_on,64,0,228
2,note_on,58,0,0
2,note_on,58,22,12
2,note_on,64,27,0
2,note_on,64,0,228
2,note_on,58,0,0
2,note_on,57,28,12
2,note_on,65,34,0
2,note_on,65,0,353
2,note_on,57,0,0
2,note_on,41,17,0
2,note_on,48,20,30
2,note_on,48,0,155
2,note_on,41,0,0
2,note_on,30,49,1680
2,note_on,42,58,0
2,note_on,42,0,240
2,note_on,30,0,0
2,note_on,31,53,0
2,note_on,43,64,0
2,note_on,43,0,240
2,note_on,31,0,0
2,note_on,42,50,0
2,note_on,54,59,0
2,note_on,54,0,240
2,note_on,42,0,0
2,note_on,43,53,0
2,note_on,55,64,0
2,note_on,55,0,240
2,note_on,43,0,0
2,note_on,54,51,0
2,note_on,66,60,0
2,note_on,66,0,240
2,note_on,54,0,0
2,note_on,55,57,0
2,note_on,67,67,0
2,note_on,67,0,240
2,note_on,55,0,0
2,note_on,66,52,0
2,note_on,78,63,0
2,note_on,78,0,240
2,note_on,66,0,0
2,note_on,67,60,0
2,note_on,79,72,0
2,note_on,79,0,148
2,note_on,67,0,0
2,note_on,82,65,0
2,note_on,82,0,120
2,note_on,79,58,0
2,note_on,79,0,120
2,note_on,76,59,0
2,note_on,76,0,120
2,note_on,72,57,0
2,note_on,72,0,120
2,note_on,70,56,0
2,note_on,70,0,120
2,note_on,67,54,0
2,note_on,67,0,120
2,note_on,64,52,0
2,note_on,64,0,148
2,note_on,32,49,0
2,note_on,44,58,0
2,note_on,44,0,240
2,note_on,32,0,0
2,note_on,33,53,0
2,note_on,45,64,0
2,note_on,45,0,240
2,note_on,33,0,0
2,note_on,44,50,0
2,note_on,56,59,0
2,note_on,56,0,240
2,note_on,44,0,0
2,note_on,45,53,0
2,note_on,57,64,0
2,note_on,57,0,240
2,note_on,45,0,0
2,note_on,56,51,0
2,note_on,68,60,0
2,note_on,68,0,240
2,note_on,56,0,0
2,note_on,57,57,0
2,note_on,69,67,0
2,note_on,69,0,240
2,note_on,57,0,0
2,note_on,68,52,0
2,note_on,80,63,0
2,note_on,80,0,240
2,note_on,68,0,0
2,note_on,69,60,0
2,note_on,81,72,0
2,note_on,81,0,120
2,note_on,69,0,0
2,note_on,60,47,720
2,note_on,63,47,0
2,note_on,69,47,0
2,note_on,69,0,457
2,note_on,63,0,0
2,note_on,60,0,0
2,note_on,46,47,0
2,note_on,46,0,240
2,note_on,55,37,0
2,note_on,62,37,240
2,note_on,58,37,0
2,note_on,62,0,240
2,note_on,67,37,0
2,note_on,67,0,240
2,note_on,58,0,0
2,note_on,55,0,0
2,note_on,43,40,0
2,note_on,43,0,120
2,note_on,65,37,120
2,note_on,59,37,0
2,note_on,59,0,240
2,note_on,65,0,0
2,note_on,48,47,0
2,note_on,48,0,120
2,note_on,60,50,120
2,note_on,67,45,240
2,note_on,64,45,0
2,note_on,64,0,240
2,note_on,67,0,0
2,note_on,72,40,0
2,note_on,72,0,240
2,note_on,60,0,0
2,note_on,58,46,0
2,note_on,58,0,120
2,note_on,72,42,120
2,note_on,67,42,0
2,note_on,67,0,240
2,note_on,72,0,0
2,note_on,57,45,0
2,note_on,57,0,120
2,note_on,60,49,120
2,note_on,69,47,240
2,note_on,65,47,0
2,note_on,65,0,240
2,note_on,69,0,0
2,note_on,72,40,0
2,note_on,72,0,240
2,note_on,60,0,0
2,note_on,53,48,0
2,note_on,53,0,120
2,note_on,65,41,120
2,note_on,57,41,0
2,note_on,57,0,240
2,note_on,65,0,0
2,note_on,48,48,0
2,note_on,52,36,240
2,note_on,52,0,109
2,note_on,55,39,0
2,note_on,55,0,120
2,note_on,48,0,0
2,note_on,64,45,0
2,note_on,64,0,120
2,note_on,57,42,360
2,note_on,54,35,0
2,note_on,48,35,0
2,note_on,48,0,477
2,note_on,54,0,0
2,note_on,57,0,0
2,note_on,48,32,0
2,note_on,58,39,0
2,note_on,55,32,0
2,note_on,55,0,416
2,note_on,58,0,0
2,note_on,64,40,0
2,note_on,60,33,0
2,note_on,58,33,0
2,note_on,58,0,388
2,note_on,48,0,0
2,note_on,64,0,0
2,note_on,60,0,0
2,note_on,67,43,0
2,note_on,60,36,0
2,note_on,58,36,0
2,note_on,58,0,402
2,note_on,60,0,0
2,note_on,67,0,0
2,note_on,67,46,0
2,note_on,60,39,0
2,note_on,58,39,0
2,note_on,58,0,925
2,note_on,60,0,0
2,note_on,67,0,0
2,note_on,56,44,0
2,note_on,56,0,318
2,note_on,41,34,0
2,note_on,48,38,60
2,note_on,57,51,60
2,note_on,57,0,405
2,note_on,48,0,0
2,note_on,41,0,0
2,note_on,60,52,0
2,note_on,57,43,0
2,note_on,57,0,480
2,note_on,60,0,0
2,note_on,65,55,0
2,note_on,57,46,0
2,note_on,57,0,480
2,note_on,65,0,0
2,note_on,65,59,0
2,note_on,57,49,0
2,note_on,57,0,960
2,note_on,65,0,0
2,note_on,47,63,480
2,note_on,47,0,149
2,note_on,62,51,0
2,note_on,65,53,240
2,note_on,68,56,240
2,note_on,68,0,240
2,note_on,71,58,0
2,note_on,67,56,160
2,note_on,67,0,240
2,note_on,62,0,0
2,note_on,65,0,0
2,note_on,71,0,0
2,note_on,48,63,0
2,note_on,48,0,177
2,note_on,55,46,0
2,note_on,58,48,240
2,note_on,61,50,240
2,note_on,61,0,240
2,note_on,64,52,0
2,note_on,60,49,206
2,note_on,60,0,240
2,note_on,55,0,0
2,note_on,58,0,0
2,note_on,64,0,0
2,note_on,41,43,0
2,note_on,41,0,160
2,note_on,63,35,0
2,note_on,72,43,0
2,note_on,72,0,240
2,note_on,63,0,0
2,note_on,62,32,0
2,note_on,70,38,0
2,note_on,70,0,166
2,note_on,62,0,0
2,note_on,61,37,0
2,note_on,65,44,0
2,note_on,58,37,0
2,note_on,58,0,240
2,note_on,60,44,0
2,note_on,57,37,0
2,note_on,57,0,200
2,note_on,61,0,0
2,note_on,65,0,0
2,note_on,64,38,0
2,note_on,55,32,0
2,note_on,55,0,240
2,note_on,64,0,0
2,note_on,53,38,0
2,note_on,65,38,0
2,note_on,65,0,180
2,note_on,53,0,0
2,note_on,60,0,0
2,note_on,41,27,240
2,note_on,48,28,21
2,note_on,53,29,30
2,note_on,53,0,395
2,note_on,48,0,0
2,note_on,41,0,0
2,note_on,87,72,230
2,note_on,87,0,205
2,note_on,88,77,0
2,note_on,88,0,177
2,note_on,75,71,0
2,note_on,75,0,183
2,note_on,76,76,0
2,note_on,76,0,165
2,note_on,63,66,0
2,note_on,63,0,171
2,note_on,64,72,0
2,note_on,64,0,183
2,note_on,34,55,0
2,note_on,46,67,0
2,note_on,46,0,189
2,note_on,34,0,0
2,note_on,33,64,0
2,note_on,45,76,0
2,note_on,45,0,160
2,note_on,33,0,0
2,note_on,57,54,0
2,note_on,57,0,57
2,note_on,52,47,0
2,note_on,52,0,120
2,note_on,49,52,0
2,note_on,49,0,120
2,note_on,46,51,0
2,note_on,46,0,120
2,note_on,45,49,0
2,note_on,45,0,120
2,note_on,43,48,0
2,note_on,43,0,120
2,note_on,40,47,0
2,note_on,40,0,28
2,note_on,37,50,0
2,note_on,37,0,120
2,note_on,34,53,0
2,note_on,34,0,120
2,note_on,33,55,0
2,note_on,33,0,120
2,note_on,38,58,0
2,note_on,38,0,120
2,note_on,41,58,0
2,note_on,41,0,120
2,note_on,45,59,0
2,note_on,45,0,69
2,note_on,49,60,0
2,note_on,49,0,120
2,note_on,50,60,0
2,note_on,50,0,57
2,note_on,53,61,0
2,note_on,53,0,120
2,note_on,57,62,0
2,note_on,57,0,68
2,note_on,61,63,0
2,note_on,61,0,120
2,note_on,62,63,0
2,note_on,62,0,46
2,note_on,37,55,120
2,note_on,49,67,0
2,note_on,49,0,177
2,note_on,37,0,0
2,note_on,36,64,0
2,note_on,48,76,0
2,note_on,48,0,189
2,note_on,36,0,0
2,note_on,55,57,0
2,note_on,58,61,240
2,note_on,58,0,120
2,note_on,61,64,0
2,note_on,61,0,240
2,note_on,60,57,0
2,note_on,64,68,0
2,note_on,60,0,166
2,note_on,58,63,0
2,note_on,58,0,240
2,note_on,55,0,0
2,note_on,60,59,0
2,note_on,57,59,0
2,note_on,57,0,203
2,note_on,60,0,0
2,note_on,64,0,0
2,note_on,60,42,0
2,note_on,65,50,0
2,note_on,55,54,214
2,note_on,65,0,169
2,note_on,60,0,0
2,note_on,65,49,0
2,note_on,59,42,0
2,note_on,59,0,200
2,note_on,65,0,0
2,note_on,55,0,0
2,note_on,60,45,0
2,note_on,48,37,0
2,note_on,60,0,234
2,note_on,58,37,0
2,note_on,55,37,0
2,note_on,64,44,0
2,note_on,64,0,240
2,note_on,48,0,0
2,note_on,58,0,0
2,note_on,55,0,0
2,note_on,65,45,0
2,note_on,53,37,0
2,note_on,65,0,240
2,note_on,63,33,0
2,note_on,60,33,0
2,note_on,69,40,0
2,note_on,69,0,240
2,note_on,53,0,0
2,note_on,63,0,0
2,note_on,60,0,0
2,note_on,58,67,0
2,note_on,67,51,163
2,note_on,65,43,0
2,note_on,62,43,0
2,note_on,62,0,417
2,note_on,58,0,0
2,note_on,67,0,0
2,note_on,65,0,0
2,note_on,48,51,0
2,note_on,60,60,0
2,note_on,60,0,177
2,note_on,48,0,0
2,note_on,64,68,0
2,note_on,60,57,0
2,note_on,58,57,0
2,note_on,55,57,0
2,note_on,55,0,160
2,note_on,64,0,0
2,note_on,60,0,0
2,note_on,58,0,0
2,note_on,70,68,0
2,note_on,67,57,0
2,note_on,60,57,0
2,note_on,60,0,160
2,note_on,67,0,0
2,note_on,70,0,0
2,note_on,52,56,0
2,note_on,58,67,0
2,note_on,58,0,206
2,note_on,52,0,0
2,note_on,57,47,0
2,note_on,60,56,0
2,note_on,60,0,199
2,note_on,57,0,0
2,note_on,41,47,240
2,note_on,48,47,23
2,note_on,53,56,13
2,note_on,53,0,206
2,note_on,48,0,0
2,note_on,41,0,0
2,note_on,87,72,240
2,note_on,87,0,205
2,note_on,88,77,0
2,note_on,88,0,177
2,note_on,75,71,0
2,note_on,75,0,183
2,note_on,76,76,0
2,note_on,76,0,217
2,note_on,63,66,0
2,note_on,63,0,206
2,note_on,64,72,0
2,note_on,64,0,183
2,note_on,34,55,0
2,note_on,46,67,0
2,note_on,46,0,189
2,note_on,34,0,0
2,note_on,33,64,0
2,note_on,45,76,0
2,note_on,45,0,160
2,note_on,33,0,0
2,note_on,57,54,0
2,note_on,57,0,57
2,note_on,52,47,0
2,note_on,52,0,120
2,note_on,49,52,0
2,note_on,49,0,120
2,note_on,46,51,0
2,note_on,46,0,120
2,note_on,45,49,0
2,note_on,45,0,120
2,note_on,43,48,0
2,note_on,43,0,120
2,note_on,40,47,0
2,note_on,40,0,74
2,note_on,37,49,0
2,note_on,37,0,120
2,note_on,34,51,0
2,note_on,34,0,120
2,note_on,33,53,0
2,note_on,33,0,120
2,note_on,38,55,0
2,note_on,38,0,120
2,note_on,41,55,0
2,note_on,41,0,120
2,note_on,45,56,0
2,note_on,45,0,69
2,note_on,49,57,0
2,note_on,49,0,120
2,note_on,50,57,0
2,note_on,50,0,74
2,note_on,53,58,0
2,note_on,53,0,120
2,note_on,57,59,0
2,note_on,57,0,91
2,note_on,61,60,0
2,note_on,61,0,120
2,note_on,62,60,0
2,note_on,62,0,46
2,note_on,37,55,120
2,note_on,49,67,0
2,note_on,49,0,177
2,note_on,37,0,0
2,note_on,36,64,0
2,note_on,48,76,0
2,note_on,48,0,189
2,note_on,36,0,0
2,note_on,55,58,0
2,note_on,58,62,240
2,note_on,58,0,120
2,note_on,61,65,0
2,note_on,61,0,240
2,note_on,60,57,0
2,note_on,64,69,0
2,note_on,60,0,166
2,note_on,58,64,0
2,note_on,58,0,240
2,note_on,55,0,0
2,note_on,60,60,0
2,note_on,57,60,0
2,note_on,57,0,203
2,note_on,60,0,0
2,note_on,64,0,0
2,note_on,60,42,0
2,note_on,65,50,0
2,note_on,55,54,214
2,note_on,65,0,169
2,note_on,60,0,0
2,note_on,65,49,0
2,note_on,59,42,0
2,note_on,59,0,200
2,note_on,65,0,0
2,note_on,55,0,0
2,note_on,60,45,0
2,note_on,48,37,0
2,note_on,60,0,234
2,note_on,58,37,0
2,note_on,55,37,0
2,note_on,64,44,0
2,note_on,64,0,240
2,note_on,48,0,0
2,note_on,58,0,0
2,note_on,55,0,0
2,note_on,65,45,0
2,note_on,53,37,0
2,note_on,65,0,240
2,note_on,63,33,0
2,note_on,60,33,0
2,note_on,69,40,0
2,note_on,69,0,240
2,note_on,53,0,0
2,note_on,63,0,0
2,note_on,60,0,0
2,note_on,58,60,0
2,note_on,67,51,163
2,note_on,65,43,0
2,note_on,62,43,0
2,note_on,62,0,417
2,note_on,58,0,0
2,note_on,67,0,0
2,note_on,65,0,0
2,note_on,48,51,0
2,note_on,60,60,0
2,note_on,60,0,177
2,note_on,48,0,0
2,note_on,64,68,0
2,note_on,60,57,0
2,note_on,58,57,0
2,note_on,55,57,0
2,note_on,55,0,160
2,note_on,64,0,0
2,note_on,60,0,0
2,note_on,58,0,0
2,note_on,70,68,0
2,note_on,67,57,0
2,note_on,60,57,0
2,note_on,60,0,160
2,note_on,67,0,0
2,note_on,70,0,0
2,note_on,52,56,0
2,note_on,58,67,0
2,note_on,58,0,206
2,note_on,52,0,0
2,note_on,57,47,0
2,note_on,60,56,0
2,note_on,60,0,199
2,note_on,57,0,0
2,note_on,41,47,240
2,note_on,48,47,9
2,note_on,53,56,30
2,note_on,53,0,206
2,note_on,48,0,0
2,note_on,41,0,0
2,note_on,54,44,1680
2,note_on,54,0,480
2,note_on,55,46,0
2,note_on,55,0,480
2,note_on,56,49,0
2,note_on,56,0,480
2,note_on,57,51,0
2,note_on,57,0,480
2,note_on,58,53,0
2,note_on,58,0,480
2,note_on,59,55,0
2,note_on,59,0,480
2,note_on,60,58,0
2,note_on,60,0,480
2,note_on,53,61,0
2,note_on,53,0,480
2,note_on,54,63,0
2,note_on,54,0,480
2,note_on,55,60,0
2,note_on,55,0,480
2,note_on,52,58,0
2,note_on,52,0,480
2,note_on,53,54,0
2,note_on,53,0,480
2,note_on,52,51,0
2,note_on,52,0,480
2,note_on,50,49,0
2,note_on,50,0,480
2,note_on,48,49,0
2,note_on,48,0,480
2,note_on,46,48,0
2,note_on,46,0,480
2,note_on,45,47,0
2,note_on,45,0,480
2,note_on,43,46,0
2,note_on,43,0,480
2,note_on,41,45,0
2,note_on,41,0,480
2,note_on,40,41,0
2,note_on,40,0,480
2,note_on,39,40,0
2,note_on,39,0,480
2,note_on,40,35,0
2,note_on,40,0,480
2,note_on,41,35,0
2,note_on,41,0,445
2,note_on,36,35,0
2,note_on,36,0,240
2,note_on,78,48,231
2,note_on,78,0,480
2,note_on,79,49,0
2,note_on,79,0,480
2,note_on,80,53,0
2,note_on,80,0,480
2,note_on,81,56,0
2,note_on,81,0,480
2,note_on,82,58,0
2,note_on,82,0,480
2,note_on,83,60,0
2,note_on,83,0,480
2,note_on,84,63,0
2,note_on,84,0,480
2,note_on,77,66,0
2,note_on,77,0,480
2,note_on,78,69,0
2,note_on,78,0,480
2,note_on,79,66,0
2,note_on,79,0,480
2,note_on,76,63,0
2,note_on,76,0,480
2,note_on,77,59,0
2,note_on,77,0,480
2,note_on,76,56,0
2,note_on,76,0,480
2,note_on,74,54,0
2,note_on,74,0,480
2,note_on,72,53,0
2,note_on,72,0,480
2,note_on,70,52,0
2,note_on,70,0,480
2,note_on,69,51,0
2,note_on,69,0,480
2,note_on,67,50,0
2,note_on,67,0,480
2,note_on,65,49,0
2,note_on,65,0,480
2,note_on,64,45,0
2,note_on,64,0,480
2,note_on,63,44,0
2,note_on,63,0,480
2,note_on,64,38,0
2,note_on,64,0,480
2,note_on,65,38,0
2,note_on,65,0,367
2,note_on,72,38,0
2,note_on,72,0,56
2,note_on,29,35,240
2,note_on,41,44,0
2,note_on,41,0,480
2,note_on,29,0,0
2,note_on,31,36,0
2,note_on,43,46,0
2,note_on,43,0,480
2,note_on,31,0,0
2,note_on,32,39,0
2,note_on,44,49,0
2,note_on,44,0,480
2,note_on,32,0,0
2,note_on,33,40,0
2,note_on,45,51,0
2,note_on,45,0,480
2,note_on,33,0,0
2,note_on,35,42,0
2,note_on,47,53,0
2,note_on,47,0,480
2,note_on,35,0,0
2,note_on,36,44,0
2,note_on,48,55,0
2,note_on,48,0,480
2,note_on,36,0,0
2,note_on,37,46,0
2,note_on,49,58,0
2,note_on,49,0,480
2,note_on,37,0,0
2,note_on,38,48,0
2,note_on,50,61,0
2,note_on,50,0,480
2,note_on,38,0,0
2,note_on,64,69,0
2,note_on,64,0,480
2,note_on,65,66,0
2,note_on,65,0,480
2,note_on,66,63,0
2,note_on,66,0,480
2,note_on,67,59,0
2,note_on,67,0,480
2,note_on,68,56,0
2,note_on,68,0,480
2,note_on,69,54,0
2,note_on,69,0,480
2,note_on,68,53,0
2,note_on,68,0,480
2,note_on,69,52,0
2,note_on,69,0,480
2,note_on,67,51,0
2,note_on,67,0,480
2,note_on,68,50,0
2,note_on,68,0,480
2,note_on,67,49,0
2,note_on,67,0,480
2,note_on,64,45,0
2,note_on,64,0,480
2,note_on,63,44,0
2,note_on,63,0,480
2,note_on,64,38,0
2,note_on,64,0,480
2,note_on,65,38,0
2,note_on,65,0,409
2,note_on,72,38,0
2,note_on,72,0,42
2,note_on,29,35,240
2,note_on,41,44,0
2,note_on,41,0,480
2,note_on,29,0,0
2,note_on,31,36,0
2,note_on,43,46,0
2,note_on,43,0,480
2,note_on,31,0,0
2,note_on,32,39,0
2,note_on,44,49,0
2,note_on,44,0,480
2,note_on,32,0,0
2,note_on,33,40,0
2,note_on,45,51,0
2,note_on,45,0,480
2,note_on,33,0,0
2,note_on,35,42,0
2,note_on,47,53,0
2,note_on,47,0,480
2,note_on,35,0,0
2,note_on,36,44,0
2,note_on,48,55,0
2,note_on,48,0,480
2,note_on,36,0,0
2,note_on,37,46,0
2,note_on,49,58,0
2,note_on,49,0,480
2,note_on,37,0,0
2,note_on,38,48,0
2,note_on,50,61,0
2,note_on,50,0,480
2,note_on,38,0,0
2,note_on,64,69,0
2,note_on,64,0,480
2,note_on,65,66,0
2,note_on,65,0,480
2,note_on,66,63,0
2,note_on,66,0,480
2,note_on,67,59,0
2,note_on,67,0,480
2,note_on,68,56,0
2,note_on,68,0,480
2,note_on,69,54,0
2,note_on,69,0,480
2,note_on,68,53,0
2,note_on,68,0,480
2,note_on,69,52,0
2,note_on,69,0,480
2,note_on,67,51,0
2,note_on,67,0,480
2,note_on,68,50,0
2,note_on,68,0,480
2,note_on,67,49,0
2,note_on,67,0,480
2,note_on,64,44,0
2,note_on,64,0,480
2,note_on,63,40,0
2,note_on,63,0,480
2,note_on,64,33,0
2,note_on,64,0,480
2,note_on,65,32,0
2,note_on,65,0,434
2,note_on,72,32,0
2,note_on,72,0,7
2,note_on,36,50,1920
2,note_on,36,0,120
2,note_on,64,41,120
2,note_on,60,41,0
2,note_on,60,0,120
2,note_on,64,0,0
2,note_on,40,51,120
2,note_on,40,0,120
2,note_on,64,41,120
2,note_on,60,41,0
2,note_on,60,0,120
2,note_on,64,0,0
2,note_on,43,53,120
2,note_on,43,0,120
2,note_on,64,44,120
2,note_on,60,44,0
2,note_on,60,0,120
2,note_on,64,0,0
2,note_on,48,54,120
2,note_on,48,0,120
2,note_on,64,44,120
2,note_on,60,44,0
2,note_on,60,0,120
2,note_on,64,0,0
2,note_on,52,56,120
2,note_on,52,0,120
2,note_on,64,45,120
2,note_on,60,45,0
2,note_on,60,0,120
2,note_on,64,0,0
2,note_on,55,58,120
2,note_on,55,0,120
2,note_on,64,49,120
2,note_on,60,49,0
2,note_on,60,0,120
2,note_on,64,0,0
2,note_on,41,58,120
2,note_on,41,0,240
2,note_on,62,62,0
2,note_on,58,62,0
2,note_on,53,62,0
2,note_on,58,0,240
2,note_on,62,0,0
2,note_on,60,56,0
2,note_on,57,56,0
2,note_on,57,0,240
2,note_on,60,0,0
2,note_on,53,0,0
2,note_on,65,61,0
2,note_on,59,61,0
2,note_on,68,61,0
2,note_on,68,0,240
2,note_on,59,0,0
2,note_on,65,0,0
2,note_on,60,54,0
2,note_on,69,54,0
2,note_on,69,0,240
2,note_on,60,0,0
2,note_on,65,62,0
2,note_on,71,62,0
2,note_on,74,62,0
2,note_on,74,0,240
2,note_on,71,0,0
2,note_on,69,55,0
2,note_on,72,55,0
2,note_on,72,0,234
2,note_on,69,0,0
2,note_on,65,0,0
2,note_on,47,54,0
2,note_on,59,41,240
2,note_on,55,34,0
2,note_on,55,0,120
2,note_on,59,0,0
2,note_on,47,0,120
2,note_on,50,55,0
2,note_on,59,35,240
2,note_on,62,42,0
2,note_on,62,0,120
2,note_on,59,0,0
2,note_on,50,0,120
2,note_on,55,56,0
2,note_on,62,44,240
2,note_on,59,37,0
2,note_on,59,0,120
2,note_on,62,0,0
2,note_on,55,0,120
2,note_on,48,56,0
2,note_on,60,45,240
2,note_on,58,38,0
2,note_on,58,0,240
2,note_on,60,0,0
2,note_on,48,0,0
2,note_on,52,58,0
2,note_on,60,47,240
2,note_on,58,39,0
2,note_on,58,0,240
2,note_on,60,0,0
2,note_on,52,0,0
2,note_on,55,61,0
2,note_on,60,51,240
2,note_on,58,43,0
2,note_on,58,0,240
2,note_on,60,0,0
2,note_on,55,0,0
2,note_on,53,43,0
2,note_on,60,56,0
2,note_on,57,43,0
2,note_on,57,0,89
2,note_on,60,0,0
2,note_on,53,0,0
2,note_on,53,43,120
2,note_on,56,43,0
2,note_on,61,56,0
2,note_on,61,0,94
2,note_on,56,0,0
2,note_on,53,0,0
2,note_on,56,46,120
2,note_on,62,60,0
2,note_on,59,46,0
2,note_on,53,46,0
2,note_on,56,0,663
2,note_on,55,49,0
2,note_on,62,0,240
2,note_on,53,0,0
2,note_on,59,0,0
2,note_on,52,45,0
2,note_on,60,53,0
2,note_on,60,0,469
2,note_on,52,0,0
2,note_on,55,0,0
2,note_on,57,53,480
2,note_on,75,38,211
2,note_on,72,32,0
2,note_on,66,32,0
2,note_on,66,0,240
2,note_on,57,0,0
2,note_on,75,0,0
2,note_on,72,0,0
2,note_on,58,56,0
2,note_on,76,41,200
2,note_on,72,34,0
2,note_on,67,34,0
2,note_on,67,0,240
2,note_on,58,0,0
2,note_on,76,0,0
2,note_on,72,0,0
2,note_on,64,57,0
2,note_on,70,34,194
2,note_on,72,34,0
2,note_on,76,41,0
2,note_on,76,0,240
2,note_on,64,0,0
2,note_on,70,0,0
2,note_on,72,0,0
2,note_on,67,60,0
2,note_on,70,34,172
2,note_on,72,34,0
2,note_on,76,41,0
2,note_on,67,0,20
2,note_on,67,60,0
2,note_on,70,0,197
2,note_on,76,0,0
2,note_on,72,0,0
2,note_on,72,40,0
2,note_on,76,48,0
2,note_on,76,0,228
2,note_on,72,0,0
2,note_on,72,40,12
2,note_on,76,48,0
2,note_on,76,0,228
2,note_on,72,0,0
2,note_on,72,40,12
2,note_on,76,48,0
2,note_on,76,0,228
2,note_on,72,0,0
2,note_on,67,0,12
2,note_on,70,57,0
2,note_on,72,40,197
2,note_on,76,48,0
2,note_on,76,0,240
2,note_on,70,0,0
2,note_on,69,40,0
2,note_on,77,48,0
2,note_on,77,0,209
2,note_on,69,0,0
2,note_on,72,0,0
2,note_on,68,40,0
2,note_on,65,40,0
2,note_on,71,48,0
2,note_on,74,57,0
2,note_on,74,0,209
2,note_on,71,0,0
2,note_on,69,41,0
2,note_on,72,49,0
2,note_on,72,0,203
2,note_on,68,0,0
2,note_on,65,0,0
2,note_on,69,0,0
2,note_on,88,51,0
2,note_on,79,43,0
2,note_on,79,0,43
2,note_on,88,0,0
2,note_on,86,59,180
2,note_on,77,50,0
2,note_on,77,0,60
2,note_on,86,0,0
2,note_on,84,58,180
2,note_on,76,49,0
2,note_on,76,0,60
2,note_on,84,0,0
2,note_on,82,57,180
2,note_on,74,48,0
2,note_on,74,0,60
2,note_on,82,0,0
2,note_on,81,55,180
2,note_on,72,46,0
2,note_on,72,0,60
2,note_on,81,0,0
2,note_on,79,54,180
2,note_on,70,45,0
2,note_on,70,0,60
2,note_on,79,0,0
2,note_on,77,53,180
2,note_on,69,45,0
2,note_on,69,0,60
2,note_on,77,0,0
2,note_on,74,51,180
2,note_on,68,43,0
2,note_on,68,0,60
2,note_on,74,0,0
2,note_on,69,42,180
2,note_on,72,50,0
2,note_on,72,0,60
2,note_on,69,0,0
2,note_on,67,42,180
2,note_on,71,50,0
2,note_on,71,0,240
2,note_on,67,0,0
2,note_on,62,43,0
2,note_on,74,51,0
2,note_on,74,0,120
2,note_on,62,0,0
2,note_on,59,44,120
2,note_on,71,52,0
2,note_on,71,0,120
2,note_on,59,0,0
2,note_on,55,45,120
2,note_on,67,53,0
2,note_on,67,0,120
2,note_on,55,0,0
2,note_on,65,54,120
2,note_on,53,45,0
2,note_on,53,0,120
2,note_on,65,0,0
2,note_on,62,57,120
2,note_on,50,47,0
2,note_on,50,0,120
2,note_on,62,0,0
2,note_on,48,48,120
2,note_on,60,58,0
2,note_on,60,0,120
2,note_on,48,0,0
2,note_on,43,50,120
2,note_on,55,59,0
2,note_on,55,0,120
2,note_on,43,0,0
2,note_on,40,52,120
2,note_on,52,62,0
2,note_on,52,0,120
2,note_on,40,0,0
2,note_on,36,54,120
2,note_on,48,64,0
2,note_on,48,0,120
2,note_on,36,0,0
2,note_on,34,57,120
2,note_on,46,67,0
2,note_on,46,0,91
2,note_on,34,0,0
2,note_on,31,59,120
2,note_on,43,70,0
2,note_on,43,0,120
2,note_on,31,0,0
2,note_on,29,58,0
2,note_on,41,74,0
2,note_on,41,0,191
2,note_on,29,0,0
2,note_on,48,55,0
2,note_on,53,55,0
2,note_on,57,65,0
2,note_on,57,0,240
2,note_on,53,0,0
2,note_on,48,0,0
2,note_on,33,58,0
2,note_on,45,73,0
2,note_on,45,0,201
2,note_on,33,0,0
2,note_on,48,54,0
2,note_on,53,54,0
2,note_on,57,64,0
2,note_on,57,0,240
2,note_on,53,0,0
2,note_on,48,0,0
2,note_on,36,60,0
2,note_on,48,75,0
2,note_on,48,0,191
2,note_on,36,0,0
2,note_on,48,54,0
2,note_on,53,54,0
2,note_on,57,64,0
2,note_on,57,0,240
2,note_on,53,0,0
2,note_on,48,0,0
2,note_on,41,60,0
2,note_on,53,74,0
2,note_on,53,0,153
2,note_on,41,0,0
2,note_on,57,72,240
2,note_on,57,0,80
2,note_on,60,68,0
2,note_on,60,0,80
2,note_on,65,68,0
2,note_on,65,0,80
2,note_on,48,50,240
2,note_on,48,0,120
2,note_on,64,41,120
2,note_on,60,41,0
2,note_on,60,0,120
2,note_on,64,0,0
2,note_on,55,51,120
2,note_on,55,0,120
2,note_on,64,41,120
2,note_on,60,41,0
2,note_on,60,0,120
2,note_on,64,0,0
2,note_on,52,53,120
2,note_on,52,0,120
2,note_on,64,44,120
2,note_on,60,44,0
2,note_on,60,0,120
2,note_on,64,0,0
2,note_on,45,50,120
2,note_on,45,0,120
2,note_on,61,38,120
2,note_on,57,38,0
2,note_on,57,0,120
2,note_on,61,0,0
2,note_on,52,46,120
2,note_on,52,0,120
2,note_on,61,36,120
2,note_on,57,36,0
2,note_on,57,0,120
2,note_on,61,0,0
2,note_on,45,45,120
2,note_on,45,0,120
2,note_on,52,36,120
2,note_on,49,36,0
2,note_on,49,0,120
2,note_on,52,0,0
2,note_on,38,42,120
2,note_on,38,0,120
2,note_on,54,34,120
2,note_on,50,34,0
2,note_on,50,0,120
2,note_on,54,0,0
2,note_on,45,43,120
2,note_on,45,0,120
2,note_on,54,34,120
2,note_on,50,34,0
2,note_on,50,0,120
2,note_on,54,0,0
2,note_on,38,45,120
2,note_on,38,0,120
2,note_on,54,37,120
2,note_on,50,37,0
2,note_on,50,0,120
2,note_on,54,0,0
2,note_on,43,50,120
2,note_on,43,0,83
2,note_on,58,40,120
2,note_on,55,40,0
2,note_on,55,0,240
2,note_on,58,0,0
2,note_on,50,52,0
2,note_on,50,0,120
2,note_on,58,45,120
2,note_on,55,45,0
2,note_on,55,0,240
2,note_on,58,0,0
2,note_on,43,59,0
2,note_on,43,0,120
2,note_on,58,50,120
2,note_on,55,50,0
2,note_on,55,0,240
2,note_on,58,0,0
2,note_on,48,66,0
2,note_on,55,56,201
2,note_on,55,0,240
2,note_on,48,0,0
2,note_on,60,65,0
2,note_on,64,65,0
2,note_on,64,0,240
2,note_on,55,51,0
2,note_on,55,0,240
2,note_on,60,0,0
2,note_on,64,54,0
2,note_on,58,54,0
2,note_on,64,0,173
2,note_on,55,47,0
2,note_on,55,0,240
2,note_on,58,0,0
2,note_on,45,54,0
2,note_on,45,0,80
2,note_on,65,47,120
2,note_on,60,47,0
2,note_on,60,0,240
2,note_on,65,0,0
2,note_on,57,54,0
2,note_on,57,0,87
2,note_on,65,48,120
2,note_on,60,48,0
2,note_on,60,0,240
2,note_on,65,0,0
2,note_on,47,54,0
2,note_on,47,0,68
2,note_on,65,47,120
2,note_on,62,47,0
2,note_on,55,47,0
2,note_on,55,0,240
2,note_on,62,0,0
2,note_on,65,0,0
2,note_on,48,54,0
2,note_on,48,0,81
2,note_on,65,47,120
2,note_on,60,47,0
2,note_on,57,47,0
2,note_on,57,0,240
2,note_on,60,0,0
2,note_on,65,0,0
2,note_on,36,54,480
2,note_on,36,0,56
2,note_on,52,47,120
2,note_on,55,47,0
2,note_on,55,0,240
2,note_on,52,0,0
2,note_on,41,54,0
2,note_on,48,48,198
2,note_on,48,0,120
2,note_on,60,50,120
2,note_on,60,0,120
2,note_on,72,52,120
2,note_on,72,0,120
2,note_on,41,0,120
2,note_on,81,59,0
2,note_on,81,0,59
2,note_on,84,62,0
2,note_on,84,0,80
2,note_on,89,65,0
2,note_on,89,0,80
2,note_on,48,50,240
2,note_on,48,0,120
2,note_on,64,41,120
2,note_on,60,41,0
2,note_on,60,0,120
2,note_on,64,0,0
2,note_on,55,51,120
2,note_on,55,0,120
2,note_on,64,41,120
2,note_on,60,41,0
2,note_on,60,0,120
2,note_on,64,0,0
2,note_on,52,53,120
2,note_on,52,0,120
2,note_on,64,44,120
2,note_on,60,44,0
2,note_on,60,0,120
2,note_on,64,0,0
2,note_on,45,50,120
2,note_on,45,0,120
2,note_on,61,38,120
2,note_on,57,38,0
2,note_on,57,0,120
2,note_on,61,0,0
2,note_on,52,46,120
2,note_on,52,0,120
2,note_on,61,36,120
2,note_on,57,36,0
2,note_on,57,0,120
2,note_on,61,0,0
2,note_on,45,45,120
2,note_on,45,0,120
2,note_on,52,36,120
2,note_on,49,36,0
2,note_on,49,0,120
2,note_on,52,0,0
2,note_on,38,42,120
2,note_on,38,0,120
2,note_on,54,34,120
2,note_on,50,34,0
2,note_on,50,0,120
2,note_on,54,0,0
2,note_on,45,43,120
2,note_on,45,0,120
2,note_on,54,34,120
2,note_on,50,34,0
2,note_on,50,0,120
2,note_on,54,0,0
2,note_on,38,45,120
2,note_on,38,0,120
2,note_on,54,37,120
2,note_on,50,37,0
2,note_on,50,0,120
2,note_on,54,0,0
2,note_on,43,50,120
2,note_on,43,0,83
2,note_on,58,40,120
2,note_on,55,40,0
2,note_on,55,0,240
2,note_on,58,0,0
2,note_on,50,52,0
2,note_on,50,0,120
2,note_on,58,45,120
2,note_on,55,45,0
2,note_on,55,0,240
2,note_on,58,0,0
2,note_on,43,59,0
2,note_on,43,0,120
2,note_on,58,50,120
2,note_on,55,50,0
2,note_on,55,0,240
2,note_on,58,0,0
2,note_on,48,66,0
2,note_on,55,56,201
2,note_on,55,0,240
2,note_on,48,0,0
2,note_on,60,65,0
2,note_on,64,65,0
2,note_on,64,0,240
2,note_on,55,51,0
2,note_on,55,0,240
2,note_on,60,0,0
2,note_on,64,54,0
2,note_on,58,54,0
2,note_on,64,0,173
2,note_on,55,47,0
2,note_on,55,0,240
2,note_on,58,0,0
2,note_on,45,54,0
2,note_on,45,0,80
2,note_on,65,47,120
2,note_on,60,47,0
2,note_on,60,0,240
2,note_on,65,0,0
2,note_on,57,54,0
2,note_on,57,0,87
2,note_on,65,48,120
2,note_on,60,48,0
2,note_on,60,0,240
2,note_on,65,0,0
2,note_on,47,54,0
2,note_on,47,0,68
2,note_on,65,47,120
2,note_on,62,47,0
2,note_on,55,47,0
2,note_on,55,0,240
2,note_on,62,0,0
2,note_on,65,0,0
2,note_on,48,54,0
2,note_on,48,0,81
2,note_on,65,47,120
2,note_on,60,47,0
2,note_on,57,47,0
2,note_on,57,0,240
2,note_on,60,0,0
2,note_on,65,0,0
2,note_on,36,54,480
2,note_on,36,0,63
2,note_on,52,47,120
2,note_on,55,47,0
2,note_on,55,0,240
2,note_on,52,0,0
2,note_on,41,54,0
2,note_on,41,0,198
2,note_on,53,41,240
2,note_on,57,45,30
2,note_on,60,49,30
2,note_on,65,53,30
2,note_on,65,0,150
2,note_on,53,0,0
2,note_on,57,0,0
2,note_on,60,0,0
2,note_on,44,36,0
2,note_on,44,0,480
2,note_on,63,32,0
2,note_on,60,27,0
2,note_on,51,27,0
2,note_on,51,0,238
2,note_on,60,0,0
2,note_on,63,0,0
2,note_on,63,38,2
2,note_on,60,31,0
2,note_on,56,31,0
2,note_on,56,0,475
2,note_on,60,0,0
2,note_on,63,0,0
2,note_on,63,35,5
2,note_on,60,29,0
2,note_on,51,29,0
2,note_on,51,0,238
2,note_on,60,0,0
2,note_on,63,0,0
2,note_on,56,33,2
2,note_on,60,33,0
2,note_on,63,40,0
2,note_on,63,0,475
2,note_on,60,0,0
2,note_on,56,0,0
2,note_on,51,30,5
2,note_on,60,30,0
2,note_on,63,36,0
2,note_on,63,0,238
2,note_on,60,0,0
2,note_on,51,0,0
2,note_on,41,50,2
2,note_on,41,0,341
2,note_on,65,43,0
2,note_on,63,36,0
2,note_on,53,36,0
2,note_on,53,0,238
2,note_on,63,0,0
2,note_on,65,0,0
2,note_on,65,43,2
2,note_on,63,36,0
2,note_on,57,36,0
2,note_on,57,0,475
2,note_on,63,0,0
2,note_on,65,0,0
2,note_on,65,40,5
2,note_on,63,33,0
2,note_on,53,33,0
2,note_on,53,0,238
2,note_on,63,0,0
2,note_on,65,0,0
2,note_on,65,39,2
2,note_on,63,33,0
2,note_on,57,33,0
2,note_on,57,0,475
2,note_on,63,0,0
2,note_on,65,0,0
2,note_on,65,34,5
2,note_on,63,29,0
2,note_on,53,29,0
2,note_on,53,0,238
2,note_on,63,0,0
2,note_on,65,0,0
2,note_on,46,34,2
2,note_on,46,0,274
2,note_on,65,31,0
2,note_on,61,26,0
2,note_on,53,26,0
2,note_on,53,0,238
2,note_on,61,0,0
2,note_on,65,0,0
2,note_on,58,26,2
2,note_on,61,26,0
2,note_on,65,31,0
2,note_on,65,0,475
2,note_on,61,0,0
2,note_on,58,0,0
2,note_on,53,25,5
2,note_on,61,25,0
2,note_on,65,30,0
2,note_on,65,0,238
2,note_on,61,0,0
2,note_on,53,0,0
2,note_on,58,25,2
2,note_on,61,25,0
2,note_on,65,30,0
2,note_on,65,0,412
2,note_on,61,0,0
2,note_on,58,0,0
2,note_on,53,26,5
2,note_on,61,26,0
2,note_on,65,31,0
2,note_on,65,0,238
2,note_on,61,0,0
2,note_on,53,0,0
2,note_on,51,35,2
2,note_on,58,25,416
2,note_on,67,30,0
2,note_on,67,0,238
2,note_on,58,0,0
2,note_on,63,35,2
2,note_on,60,29,0
2,note_on,60,0,475
2,note_on,63,0,0
2,note_on,67,31,5
2,note_on,58,26,0
2,note_on,58,0,238
2,note_on,67,0,0
2,note_on,67,35,2
2,note_on,63,29,0
2,note_on,63,0,475
2,note_on,67,0,0
2,note_on,67,31,5
2,note_on,58,26,0
2,note_on,58,0,238
2,note_on,67,0,0
2,note_on,51,0,2
2,note_on,53,35,0
2,note_on,68,30,339
2,note_on,58,25,0
2,note_on,58,0,238
2,note_on,68,0,0
2,note_on,68,35,2
2,note_on,62,29,0
2,note_on,62,0,475
2,note_on,68,0,0
2,note_on,68,31,5
2,note_on,58,26,0
2,note_on,58,0,238
2,note_on,68,0,0
2,note_on,62,29,2
2,note_on,68,35,0
2,note_on,68,0,475
2,note_on,62,0,0
2,note_on,58,26,5
2,note_on,68,31,0
2,note_on,68,0,238
2,note_on,58,0,0
2,note_on,53,0,2
2,note_on,50,35,0
2,note_on,58,26,341
2,note_on,62,31,0
2,note_on,62,0,240
2,note_on,58,0,0
2,note_on,50,0,0
2,note_on,53,35,0
2,note_on,58,26,480
2,note_on,62,31,0
2,note_on,62,0,240
2,note_on,58,0,0
2,note_on,53,0,0
2,note_on,56,35,0
2,note_on,62,26,480
2,note_on,65,31,0
2,note_on,58,26,0
2,note_on,58,0,240
2,note_on,56,0,0
2,note_on,62,0,0
2,note_on,65,0,0
2,note_on,55,35,0
2,note_on,67,30,339
2,note_on,58,25,0
2,note_on,58,0,238
2,note_on,67,0,0
2,note_on,67,35,2
2,note_on,63,29,0
2,note_on,63,0,475
2,note_on,67,0,0
2,note_on,67,31,5
2,note_on,58,26,0
2,note_on,58,0,238
2,note_on,67,0,0
2,note_on,63,29,2
2,note_on,67,35,0
2,note_on,67,0,475
2,note_on,63,0,0
2,note_on,58,26,5
2,note_on,67,31,0
2,note_on,67,0,238
2,note_on,58,0,0
2,note_on,55,0,2
2,note_on,51,35,0
2,note_on,63,27,341
2,note_on,67,32,0
2,note_on,67,0,240
2,note_on,63,0,0
2,note_on,51,0,0
2,note_on,55,37,0
2,note_on,63,28,480
2,note_on,67,34,0
2,note_on,67,0,240
2,note_on,63,0,0
2,note_on,55,0,0
2,note_on,57,39,0
2,note_on,63,30,480
2,note_on,66,30,0
2,note_on,66,0,240
2,note_on,63,0,0
2,note_on,57,0,0
2,note_on,58,31,0
2,note_on,70,37,0
2,note_on,63,29,431
2,note_on,67,35,0
2,note_on,67,0,238
2,note_on,63,0,0
2,note_on,63,29,2
2,note_on,67,35,0
2,note_on,67,0,475
2,note_on,63,0,0
2,note_on,63,29,5
2,note_on,67,35,0
2,note_on,67,0,238
2,note_on,63,0,0
2,note_on,63,33,2
2,note_on,68,39,0
2,note_on,68,0,429
2,note_on,58,0,0
2,note_on,70,0,0
2,note_on,63,0,0
2,note_on,62,29,0
2,note_on,68,35,0
2,note_on,68,0,214
2,note_on,62,0,0
2,note_on,63,32,0
2,note_on,65,32,0
2,note_on,68,38,0
2,note_on,68,0,474
2,note_on,65,0,0
2,note_on,63,0,0
2,note_on,63,29,5
2,note_on,65,29,0
2,note_on,68,35,0
2,note_on,68,0,238
2,note_on,65,0,0
2,note_on,63,0,0
2,note_on,63,30,2
2,note_on,67,36,0
2,note_on,67,0,475
2,note_on,63,0,0
2,note_on,63,36,5
2,note_on,67,36,0
2,note_on,67,0,120
2,note_on,63,0,0
2,note_on,51,39,0
2,note_on,51,0,60
2,note_on,54,44,0
2,note_on,54,0,60
2,note_on,66,50,0
2,note_on,66,0,475
2,note_on,63,36,5
2,note_on,66,36,0
2,note_on,66,0,120
2,note_on,63,0,0
2,note_on,49,35,0
2,note_on,49,0,60
2,note_on,53,37,0
2,note_on,53,0,60
2,note_on,65,45,0
2,note_on,65,0,424
2,note_on,61,36,5
2,note_on,65,36,0
2,note_on,61,0,238
2,note_on,65,0,0
2,note_on,61,39,2
2,note_on,65,39,0
2,note_on,65,0,441
2,note_on,61,0,0
2,note_on,61,36,5
2,note_on,65,36,0
2,note_on,65,0,238
2,note_on,61,0,0
2,note_on,60,39,2
2,note_on,63,39,0
2,note_on,65,39,0
2,note_on,63,0,384
2,note_on,65,0,62
2,note_on,60,0,0
2,note_on,60,36,0
2,note_on,63,36,0
2,note_on,63,0,240
2,note_on,60,0,0
2,note_on,61,39,0
2,note_on,65,39,0
2,note_on,65,0,352
2,note_on,61,0,0
2,note_on,61,36,5
2,note_on,65,36,0
2,note_on,65,0,238
2,note_on,61,0,0
2,note_on,61,36,2
2,note_on,65,36,0
2,note_on,65,0,424
2,note_on,61,0,0
2,note_on,61,39,5
2,note_on,65,39,0
2,note_on,65,0,238
2,note_on,61,0,0
2,note_on,61,40,2
2,note_on,65,40,0
2,note_on,67,40,0
2,note_on,67,0,436
2,note_on,65,0,0
2,note_on,61,0,0
2,note_on,61,45,5
2,note_on,65,45,0
2,note_on,67,45,0
2,note_on,67,0,238
2,note_on,65,0,0
2,note_on,61,0,0
2,note_on,60,49,2
2,note_on,64,49,0
2,note_on,67,49,0
2,note_on,67,0,355
2,note_on,64,0,0
2,note_on,60,0,0
2,note_on,60,39,5
2,note_on,64,39,0
2,note_on,67,39,0
2,note_on,67,0,238
2,note_on,64,0,0
2,note_on,60,0,0
2,note_on,60,42,2
2,note_on,64,42,0
2,note_on,67,42,0
2,note_on,67,0,475
2,note_on,64,0,0
2,note_on,60,0,0
2,note_on,60,37,5
2,note_on,64,37,0
2,note_on,64,0,118
2,note_on,60,0,120
2,note_on,48,42,2
2,note_on,53,42,0
2,note_on,53,0,189
2,note_on,48,0,0
2,note_on,47,41,360
2,note_on,47,0,120
2,note_on,48,46,0
2,note_on,48,0,239
2,note_on,36,41,0
2,note_on,36,0,91
2,note_on,44,41,120
2,note_on,44,0,240
2,note_on,49,47,0
2,note_on,49,0,234
2,note_on,37,41,0
2,note_on,37,0,91
2,note_on,53,41,120
2,note_on,53,0,240
2,note_on,55,47,0
2,note_on,55,0,231
2,note_on,43,41,0
2,note_on,43,0,74
2,note_on,59,41,120
2,note_on,59,0,240
2,note_on,60,47,0
2,note_on,60,0,231
2,note_on,48,42,0
2,note_on,48,0,91
2,note_on,56,43,120
2,note_on,56,0,240
2,note_on,61,50,0
2,note_on,61,0,231
2,note_on,49,44,0
2,note_on,49,0,114
2,note_on,65,46,120
2,note_on,65,0,240
2,note_on,67,54,0
2,note_on,67,0,230
2,note_on,55,48,0
2,note_on,55,0,91
2,note_on,71,49,120
2,note_on,71,0,240
2,note_on,72,56,0
2,note_on,72,0,237
2,note_on,60,51,0
2,note_on,60,0,69
2,note_on,68,52,120
2,note_on,68,0,240
2,note_on,73,60,0
2,note_on,73,0,230
2,note_on,61,55,0
2,note_on,61,0,74
2,note_on,77,56,120
2,note_on,77,0,240
2,note_on,79,64,0
2,note_on,79,0,230
2,note_on,67,57,0
2,note_on,67,0,74
2,note_on,83,58,120
2,note_on,83,0,240
2,note_on,84,61,0
2,note_on,84,0,114
2,note_on,60,63,510
2,note_on,67,66,30
2,note_on,70,68,30
2,note_on,76,71,30
2,note_on,76,0,452
2,note_on,60,0,0
2,note_on,67,0,0
2,note_on,70,0,0
2,note_on,36,58,480
2,note_on,36,0,109
2,note_on,46,54,0
2,note_on,46,0,120
2,note_on,48,55,0
2,note_on,48,0,120
2,note_on,52,55,0
2,note_on,52,0,120
2,note_on,57,58,0
2,note_on,57,0,120
2,note_on,58,55,0
2,note_on,60,55,120
2,note_on,60,0,120
2,note_on,58,0,0
2,note_on,64,55,0
2,note_on,64,0,120
2,note_on,48,50,479
2,note_on,48,0,209
2,note_on,58,45,240
2,note_on,58,0,240
2,note_on,64,47,240
2,note_on,64,0,240
2,note_on,70,51,240
2,note_on,70,0,240
2,note_on,76,46,240
2,note_on,76,0,240
2,note_on,82,43,240
2,note_on,82,0,240
2,note_on,88,41,240
2,note_on,88,0,480
2,note_on,48,30,13
2,note_on,54,30,0
2,note_on,60,36,0
2,note_on,60,0,475
2,note_on,54,0,0
2,note_on,48,0,0
2,note_on,48,27,5
2,note_on,54,27,0
2,note_on,60,33,0
2,note_on,60,0,238
2,note_on,54,0,0
2,note_on,48,0,0
2,note_on,48,31,2
2,note_on,55,31,0
2,note_on,60,37,0
2,note_on,60,0,235
2,note_on,55,0,0
2,note_on,48,0,0
2,note_on,48,29,5
2,note_on,55,29,0
2,note_on,60,34,0
2,note_on,60,0,238
2,note_on,55,0,0
2,note_on,48,0,0
2,note_on,48,36,2
2,note_on,56,36,0
2,note_on,62,43,0
2,note_on,62,0,248
2,note_on,56,0,0
2,note_on,48,0,0
2,note_on,48,34,5
2,note_on,56,34,0
2,note_on,62,40,0
2,note_on,62,0,238
2,note_on,56,0,0
2,note_on,48,0,0
2,note_on,48,39,2
2,note_on,57,39,0
2,note_on,60,47,0
2,note_on,60,0,315
2,note_on,57,0,0
2,note_on,48,0,0
2,note_on,48,38,5
2,note_on,57,38,0
2,note_on,60,45,0
2,note_on,60,0,238
2,note_on,57,0,0
2,note_on,48,0,0
2,note_on,48,45,0
2,note_on,54,45,0
2,note_on,62,53,0
2,note_on,62,0,288
2,note_on,54,0,0
2,note_on,48,0,0
2,note_on,48,40,5
2,note_on,54,40,0
2,note_on,62,48,0
2,note_on,62,0,238
2,note_on,54,0,0
2,note_on,48,0,0
2,note_on,48,41,2
2,note_on,55,41,0
2,note_on,62,49,0
2,note_on,62,0,306
2,note_on,55,0,0
2,note_on,48,0,0
2,note_on,48,30,5
2,note_on,53,30,0
2,note_on,62,36,0
2,note_on,62,0,238
2,note_on,53,0,0
2,note_on,48,0,0
2,note_on,48,34,2
2,note_on,52,34,0
2,note_on,60,40,0
2,note_on,60,0,274
2,note_on,52,0,0
2,note_on,48,0,0
2,note_on,48,31,5
2,note_on,55,31,0
2,note_on,60,37,0
2,note_on,60,0,238
2,note_on,55,0,0
2,note_on,48,0,0
2,note_on,48,30,0
2,note_on,53,30,0
2,note_on,60,36,0
2,note_on,60,0,480
2,note_on,53,0,0
2,note_on,48,0,0
2,note_on,48,33,0
2,note_on,48,0,240
2,note_on,48,32,0
2,note_on,54,38,0
2,note_on,57,38,0
2,note_on,57,0,475
2,note_on,54,0,0
2,note_on,48,0,0
2,note_on,48,27,5
2,note_on,54,32,0
2,note_on,57,39,0
2,note_on,57,0,238
2,note_on,54,0,0
2,note_on,48,0,0
2,note_on,48,36,2
2,note_on,55,36,0
2,note_on,58,44,0
2,note_on,58,0,411
2,note_on,55,0,0
2,note_on,48,0,0
2,note_on,48,34,5
2,note_on,55,34,0
2,note_on,58,42,0
2,note_on,58,0,238
2,note_on,55,0,0
2,note_on,48,0,0
2,note_on,48,38,2
2,note_on,56,45,0
2,note_on,59,45,0
2,note_on,59,0,397
2,note_on,56,0,0
2,note_on,48,0,0
2,note_on,48,36,5
2,note_on,56,43,0
2,note_on,59,43,0
2,note_on,59,0,238
2,note_on,56,0,0
2,note_on,48,0,0
2,note_on,48,37,2
2,note_on,57,37,0
2,note_on,60,46,0
2,note_on,48,0,424
2,note_on,48,45,5
2,note_on,60,0,233
2,note_on,57,0,0
2,note_on,48,0,5
2,note_on,48,45,2
2,note_on,54,45,0
2,note_on,62,55,0
2,note_on,62,0,418
2,note_on,54,0,0
2,note_on,48,0,0
2,note_on,48,43,5
2,note_on,57,43,0
2,note_on,62,51,0
2,note_on,62,0,238
2,note_on,57,0,0
2,note_on,48,0,0
2,note_on,48,46,2
2,note_on,55,46,0
2,note_on,62,55,0
2,note_on,62,0,401
2,note_on,55,0,0
2,note_on,48,0,0
2,note_on,48,43,5
2,note_on,53,43,0
2,note_on,62,51,0
2,note_on,62,0,238
2,note_on,53,0,0
2,note_on,48,0,0
2,note_on,48,47,2
2,note_on,52,47,0
2,note_on,60,57,0
2,note_on,60,0,424
2,note_on,52,0,0
2,note_on,48,0,0
2,note_on,48,46,5
2,note_on,55,46,0
2,note_on,60,54,0
2,note_on,60,0,238
2,note_on,55,0,0
2,note_on,48,0,0
2,note_on,48,49,0
2,note_on,53,49,0
2,note_on,60,57,0
2,note_on,60,0,427
2,note_on,53,0,0
2,note_on,48,0,0
2,note_on,48,46,5
2,note_on,48,0,238
2,note_on,48,46,2
2,note_on,54,49,0
2,note_on,57,55,0
2,note_on,57,0,400
2,note_on,54,0,0
2,note_on,48,0,0
2,note_on,48,39,5
2,note_on,54,46,0
2,note_on,57,55,0
2,note_on,57,0,238
2,note_on,54,0,0
2,note_on,48,0,0
2,note_on,48,52,2
2,note_on,55,52,0
2,note_on,58,62,0
2,note_on,58,0,412
2,note_on,55,0,0
2,note_on,48,0,0
2,note_on,48,48,5
2,note_on,55,48,0
2,note_on,58,57,0
2,note_on,58,0,238
2,note_on,55,0,0
2,note_on,48,0,0
2,note_on,48,51,2
2,note_on,56,51,0
2,note_on,59,61,0
2,note_on,59,0,412
2,note_on,56,0,0
2,note_on,48,0,0
2,note_on,48,48,5
2,note_on,56,57,0
2,note_on,59,57,0
2,note_on,59,0,238
2,note_on,56,0,0
2,note_on,48,0,0
2,note_on,48,50,2
2,note_on,57,50,0
2,note_on,60,60,0
2,note_on,48,0,418
2,note_on,48,57,5
2,note_on,60,0,233
2,note_on,57,0,0
2,note_on,48,0,5
2,note_on,48,56,2
2,note_on,54,56,0
2,note_on,62,65,0
2,note_on,62,0,418
2,note_on,54,0,0
2,note_on,48,0,0
2,note_on,48,53,5
2,note_on,57,53,0
2,note_on,62,63,0
2,note_on,62,0,238
2,note_on,57,0,0
2,note_on,48,0,0
2,note_on,46,67,2
2,note_on,46,0,194
2,note_on,62,58,0
2,note_on,62,0,240
2,note_on,67,59,0
2,note_on,67,0,240
2,note_on,58,68,0
2,note_on,60,58,166
2,note_on,60,0,240
2,note_on,64,60,0
2,note_on,64,0,240
2,note_on,58,0,0
2,note_on,57,69,0
2,note_on,60,59,171
2,note_on,60,0,240
2,note_on,65,61,0
2,note_on,65,0,240
2,note_on,57,0,0
2,note_on,58,71,0
2,note_on,62,62,154
2,note_on,62,0,240
2,note_on,67,63,0
2,note_on,67,0,240
2,note_on,58,0,0
2,note_on,60,74,0
2,note_on,64,65,194
2,note_on,64,0,240
2,note_on,69,66,0
2,note_on,69,0,240
2,note_on,60,0,0
2,note_on,62,77,0
2,note_on,65,67,166
2,note_on,65,0,240
2,note_on,70,68,0
2,note_on,70,0,240
2,note_on,62,0,0
2,note_on,64,78,0
2,note_on,67,68,177
2,note_on,67,0,240
2,note_on,72,69,0
2,note_on,72,0,240
2,note_on,64,0,0
2,note_on,65,81,0
2,note_on,69,68,189
2,note_on,69,0,240
2,note_on,72,68,0
2,note_on,72,0,240
2,note_on,65,0,0
2,note_on,66,82,0
2,note_on,69,71,177
2,note_on,69,0,240
2,note_on,74,71,0
2,note_on,74,0,240
2,note_on,66,0,0
2,note_on,67,82,0
2,note_on,70,71,160
2,note_on,70,0,240
2,note_on,74,71,0
2,note_on,74,0,240
2,note_on,67,0,0
2,note_on,61,48,0
2,note_on,61,0,174
2,note_on,70,42,0
2,note_on,76,43,240
2,note_on,76,0,240
2,note_on,70,0,0
2,note_on,62,47,0
2,note_on,62,0,159
2,note_on,69,43,0
2,note_on,78,43,240
2,note_on,78,0,240
2,note_on,69,0,0
2,note_on,55,47,0
2,note_on,55,0,159
2,note_on,62,42,0
2,note_on,71,43,240
2,note_on,71,0,240
2,note_on,62,0,0
2,note_on,48,46,0
2,note_on,48,0,178
2,note_on,55,45,0
2,note_on,64,46,240
2,note_on,64,0,240
2,note_on,55,0,0
2,note_on,53,50,0
2,note_on,57,43,176
2,note_on,60,46,240
2,note_on,60,0,240
2,note_on,69,50,0
2,note_on,69,0,480
2,note_on,57,0,0
2,note_on,53,0,0
2,note_on,47,55,240
2,note_on,47,0,160
2,note_on,56,50,0
2,note_on,62,50,240
2,note_on,65,53,240
2,note_on,65,0,480
2,note_on,62,0,0
2,note_on,56,0,0
2,note_on,48,47,240
2,note_on,48,0,120
2,note_on,57,42,0
2,note_on,60,42,240
2,note_on,65,45,240
2,note_on,65,0,480
2,note_on,60,0,0
2,note_on,57,0,0
2,note_on,36,40,240
2,note_on,36,0,83
2,note_on,55,36,60
2,note_on,58,36,240
2,note_on,64,40,240
2,note_on,64,0,480
2,note_on,58,0,0
2,note_on,55,0,0
2,note_on,41,38,240
2,note_on,41,0,81
2,note_on,53,32,60
2,note_on,53,0,240
2,note_on,57,32,0
2,note_on,57,0,240
2,note_on,65,37,0
2,note_on,65,0,240
2,note_on,57,36,0
2,note_on,57,0,240
2,note_on,60,36,0
2,note_on,60,0,176
2,note_on,53,46,0
2,note_on,55,38,240
2,note_on,55,0,240
2,note_on,60,40,0
2,note_on,60,0,240
2,note_on,64,42,0
2,note_on,64,0,215
2,note_on,55,44,0
2,note_on,55,0,240
2,note_on,60,47,0
2,note_on,60,0,240
2,note_on,53,0,0
2,note_on,53,46,0
2,note_on,58,42,194
2,note_on,58,0,240
2,note_on,60,42,0
2,note_on,60,0,240
2,note_on,64,45,0
2,note_on,64,0,177
2,note_on,58,46,0
2,note_on,58,0,240
2,note_on,60,47,0
2,note_on,60,0,240
2,note_on,53,0,0
2,note_on,53,53,0
2,note_on,57,48,174
2,note_on,57,0,240
2,note_on,60,48,0
2,note_on,60,0,240
2,note_on,65,49,0
2,note_on,65,0,240
2,note_on,57,50,0
2,note_on,57,0,240
2,note_on,60,50,0
2,note_on,60,0,240
2,note_on,53,0,0
2,note_on,52,55,0
2,note_on,52,0,240
2,note_on,57,51,0
2,note_on,61,51,240
2,note_on,61,0,240
2,note_on,67,54,0
2,note_on,67,0,209
2,note_on,57,0,0
2,note_on,57,50,0
2,note_on,61,51,240
2,note_on,61,0,240
2,note_on,57,0,0
2,note_on,50,55,0
2,note_on,50,0,198
2,note_on,57,65,0
2,note_on,62,53,240
2,note_on,62,0,240
2,note_on,65,58,0
2,note_on,65,0,196
2,note_on,57,0,0
2,note_on,57,67,0
2,note_on,62,53,240
2,note_on,62,0,240
2,note_on,57,0,0
2,note_on,48,58,0
2,note_on,48,0,201
2,note_on,57,66,0
2,note_on,62,53,240
2,note_on,62,0,240
2,note_on,65,58,0
2,note_on,65,0,169
2,note_on,57,0,0
2,note_on,57,71,0
2,note_on,62,61,240
2,note_on,62,0,240
2,note_on,57,0,0
2,note_on,46,76,0
2,note_on,46,0,63
2,note_on,65,76,600
2,note_on,58,64,0
2,note_on,56,64,0
2,note_on,53,64,0
2,note_on,53,0,81
2,note_on,65,0,0
2,note_on,58,0,0
2,note_on,56,0,0
2,note_on,65,70,0
2,note_on,65,0,120
2,note_on,62,69,0
2,note_on,62,0,120
2,note_on,58,68,0
2,note_on,58,0,120
2,note_on,56,67,0
2,note_on,56,0,120
2,note_on,53,66,0
2,note_on,53,0,120
2,note_on,50,65,0
2,note_on,50,0,73
2,note_on,46,64,0
2,note_on,46,0,120
2,note_on,44,63,0
2,note_on,44,0,120
2,note_on,41,62,0
2,note_on,41,0,120
2,note_on,38,61,0
2,note_on,38,0,120
2,note_on,34,60,0
2,note_on,34,0,120
2,note_on,33,52,0
2,note_on,35,53,120
2,note_on,33,0,20
2,note_on,37,54,100
2,note_on,35,0,20
2,note_on,38,55,100
2,note_on,37,0,20
2,note_on,40,56,100
2,note_on,38,0,20
2,note_on,42,57,100
2,note_on,40,0,20
2,note_on,44,58,100
2,note_on,42,0,20
2,note_on,45,59,100
2,note_on,44,0,20
2,note_on,47,60,100
2,note_on,45,0,20
2,note_on,49,61,100
2,note_on,47,0,20
2,note_on,50,62,100
2,note_on,49,0,20
2,note_on,52,63,100
2,note_on,50,0,20
2,note_on,54,64,100
2,note_on,52,0,20
2,note_on,56,65,100
2,note_on,54,0,20
2,note_on,57,66,100
2,note_on,56,0,20
2,note_on,59,67,100
2,note_on,57,0,20
2,note_on,61,69,100
2,note_on,59,0,20
2,note_on,62,70,100
2,note_on,61,0,20
2,note_on,64,71,100
2,note_on,62,0,20
2,note_on,66,72,100
2,note_on,64,0,20
2,note_on,68,73,100
2,note_on,66,0,20
2,note_on,69,74,100
2,note_on,68,0,20
2,note_on,71,75,100
2,note_on,69,0,20
2,note_on,72,76,100
2,note_on,71,0,20
2,note_on,73,79,100
2,note_on,72,0,20
2,note_on,73,0,86
2,note_on,76,70,0
2,note_on,76,0,120
2,note_on,81,68,0
2,note_on,81,0,120
2,note_on,85,73,0
2,note_on,85,0,120
2,note_on,83,70,0
2,note_on,83,0,120
2,note_on,76,70,0
2,note_on,76,0,120
2,note_on,73,77,0
2,note_on,73,0,69
2,note_on,69,73,0
2,note_on,69,0,120
2,note_on,64,71,0
2,note_on,64,0,120
2,note_on,61,71,0
2,note_on,61,0,120
2,note_on,64,66,0
2,note_on,64,0,120
2,note_on,71,66,0
2,note_on,71,0,120
2,note_on,61,71,0
2,note_on,61,0,69
2,note_on,64,65,0
2,note_on,64,0,120
2,note_on,69,65,0
2,note_on,69,0,120
2,note_on,73,65,0
2,note_on,73,0,120
2,note_on,71,63,0
2,note_on,71,0,120
2,note_on,64,63,0
2,note_on,64,0,120
2,note_on,61,71,0
2,note_on,61,0,46
2,note_on,57,65,0
2,note_on,57,0,120
2,note_on,52,65,0
2,note_on,52,0,120
2,note_on,49,65,0
2,note_on,49,0,120
2,note_on,52,63,0
2,note_on,52,0,120
2,note_on,59,63,0
2,note_on,59,0,120
2,note_on,49,60,0
2,note_on,49,0,74
2,note_on,52,54,0
2,note_on,52,0,120
2,note_on,57,53,0
2,note_on,57,0,120
2,note_on,61,53,0
2,note_on,61,0,120
2,note_on,59,50,0
2,note_on,59,0,120
2,note_on,52,49,0
2,note_on,52,0,120
2,note_on,49,56,0
2,note_on,49,0,69
2,note_on,45,49,0
2,note_on,45,0,120
2,note_on,40,46,0
2,note_on,40,0,120
2,note_on,37,45,0
2,note_on,37,0,120
2,note_on,40,42,0
2,note_on,40,0,120
2,note_on,47,41,0
2,note_on,47,0,120
2,note_on,33,41,0
2,note_on,40,45,110
2,note_on,33,0,20
2,note_on,48,48,100
2,note_on,40,0,20
2,note_on,49,45,100
2,note_on,48,0,20
2,note_on,47,40,100
2,note_on,49,0,20
2,note_on,40,40,100
2,note_on,47,0,20
2,note_on,33,41,100
2,note_on,40,0,20
2,note_on,40,45,100
2,note_on,33,0,20
2,note_on,48,48,100
2,note_on,40,0,20
2,note_on,49,45,100
2,note_on,48,0,20
2,note_on,47,40,100
2,note_on,49,0,20
2,note_on,40,41,100
2,note_on,47,0,20
2,note_on,33,31,100
2,note_on,40,0,20
2,note_on,40,33,100
2,note_on,33,0,20
2,note_on,48,36,100
2,note_on,40,0,20
2,note_on,49,34,100
2,note_on,48,0,20
2,note_on,47,29,100
2,note_on,49,0,20
2,note_on,40,30,100
2,note_on,47,0,20
2,note_on,33,31,100
2,note_on,40,0,20
2,note_on,40,33,100
2,note_on,33,0,20
2,note_on,48,36,100
2,note_on,40,0,20
2,note_on,49,34,100
2,note_on,48,0,20
2,note_on,47,27,100
2,note_on,49,0,20
2,note_on,40,27,100
2,note_on,47,0,20
2,note_on,33,31,100
2,note_on,40,0,20
2,note_on,33,0,220
2,note_on,48,34,3360
2,note_on,48,0,81
2,note_on,60,29,0
2,note_on,60,0,120
2,note_on,54,34,0
2,note_on,54,0,120
2,note_on,60,30,0
2,note_on,60,0,120
2,note_on,54,34,0
2,note_on,54,0,120
2,note_on,60,30,0
2,note_on,60,0,120
2,note_on,48,38,0
2,note_on,48,0,81
2,note_on,60,31,0
2,note_on,60,0,120
2,note_on,55,40,0
2,note_on,55,0,120
2,note_on,60,32,0
2,note_on,60,0,120
2,note_on,55,42,0
2,note_on,55,0,120
2,note_on,60,31,0
2,note_on,60,0,120
2,note_on,48,43,0
2,note_on,48,0,92
2,note_on,62,32,0
2,note_on,62,0,120
2,note_on,56,48,0
2,note_on,56,0,65
2,note_on,62,39,0
2,note_on,62,0,120
2,note_on,56,45,0
2,note_on,56,0,120
2,note_on,62,33,0
2,note_on,62,0,120
2,note_on,48,44,0
2,note_on,48,0,57
2,note_on,60,34,0
2,note_on,60,0,120
2,note_on,57,46,0
2,note_on,57,0,120
2,note_on,60,35,0
2,note_on,60,0,120
2,note_on,55,47,0
2,note_on,55,0,120
2,note_on,60,36,0
2,note_on,60,0,120
2,note_on,48,48,0
2,note_on,48,0,74
2,note_on,62,37,0
2,note_on,62,0,120
2,note_on,54,49,0
2,note_on,54,0,57
2,note_on,62,39,0
2,note_on,62,0,120
2,note_on,57,48,0
2,note_on,57,0,120
2,note_on,62,38,0
2,note_on,62,0,120
2,note_on,48,49,0
2,note_on,48,0,63
2,note_on,62,40,0
2,note_on,62,0,120
2,note_on,55,47,0
2,note_on,55,0,64
2,note_on,62,40,0
2,note_on,62,0,120
2,note_on,53,51,0
2,note_on,53,0,120
2,note_on,62,38,0
2,note_on,62,0,120
2,note_on,48,49,0
2,note_on,48,0,69
2,note_on,60,38,0
2,note_on,60,0,120
2,note_on,52,47,0
2,note_on,52,0,51
2,note_on,60,38,0
2,note_on,60,0,120
2,note_on,55,47,0
2,note_on,55,0,120
2,note_on,60,38,0
2,note_on,60,0,120
2,note_on,48,48,0
2,note_on,48,0,56
2,note_on,60,38,0
2,note_on,60,0,120
2,note_on,53,47,0
2,note_on,53,0,120
2,note_on,60,37,0
2,note_on,60,0,120
2,note_on,48,46,0
2,note_on,48,0,120
2,note_on,60,37,0
2,note_on,60,0,120
2,note_on,52,46,0
2,note_on,57,36,71
2,note_on,57,0,120
2,note_on,45,37,0
2,note_on,45,0,120
2,note_on,57,37,0
2,note_on,57,0,120
2,note_on,52,0,0
2,note_on,53,43,0
2,note_on,57,38,120
2,note_on,57,0,120
2,note_on,53,0,0
2,note_on,54,48,0
2,note_on,58,38,56
2,note_on,58,0,120
2,note_on,46,39,0
2,note_on,46,0,120
2,note_on,58,39,0
2,note_on,58,0,120
2,note_on,54,0,0
2,note_on,55,45,0
2,note_on,58,38,120
2,note_on,58,0,120
2,note_on,55,0,0
2,note_on,56,50,0
2,note_on,60,37,56
2,note_on,60,0,120
2,note_on,48,38,0
2,note_on,48,0,120
2,note_on,60,38,0
2,note_on,60,0,120
2,note_on,56,0,0
2,note_on,57,47,0
2,note_on,60,40,120
2,note_on,60,0,120
2,note_on,57,0,0
2,note_on,57,52,0
2,note_on,62,41,49
2,note_on,62,0,120
2,note_on,50,41,0
2,note_on,50,0,120
2,note_on,62,41,0
2,note_on,62,0,120
2,note_on,57,0,0
2,note_on,58,49,0
2,note_on,62,42,120
2,note_on,62,0,120
2,note_on,58,0,0
2,note_on,59,54,0
2,note_on,64,43,35
2,note_on,64,0,120
2,note_on,52,44,0
2,note_on,52,0,120
2,note_on,64,44,0
2,note_on,64,0,120
2,note_on,59,0,0
2,note_on,60,51,0
2,note_on,64,42,120
2,note_on,64,0,120
2,note_on,60,0,0
2,note_on,53,55,0
2,note_on,65,45,42
2,note_on,65,0,120
2,note_on,60,45,0
2,note_on,60,0,120
2,note_on,65,46,0
2,note_on,65,0,120
2,note_on,53,0,0
2,note_on,62,40,0
2,note_on,65,37,120
2,note_on,65,0,120
2,note_on,62,0,0
2,note_on,61,43,0
2,note_on,64,31,65
2,note_on,64,0,120
2,note_on,61,0,0
2,note_on,60,43,0
2,note_on,64,32,120
2,note_on,64,0,120
2,note_on,60,0,0
2,note_on,58,42,0
2,note_on,64,31,120
2,note_on,64,0,120
2,note_on,58,0,0
2,note_on,53,43,0
2,note_on,57,43,0
2,note_on,53,0,49
2,note_on,65,30,0
2,note_on,65,0,120
2,note_on,60,33,0
2,note_on,60,0,120
2,note_on,65,29,0
2,note_on,65,0,42
2,note_on,57,0,0
2,note_on,62,32,0
2,note_on,65,29,120
2,note_on,65,0,120
2,note_on,62,0,0
2,note_on,61,34,0
2,note_on,64,25,65
2,note_on,64,0,120
2,note_on,61,0,0
2,note_on,60,34,0
2,note_on,64,25,120
2,note_on,64,0,120
2,note_on,60,0,0
2,note_on,58,34,0
2,note_on,64,25,120
2,note_on,64,0,120
2,note_on,58,0,0
2,note_on,53,34,0
2,note_on,57,34,0
2,note_on,53,0,49
2,note_on,65,26,0
2,note_on,65,0,120
2,note_on,57,0,0
2,note_on,64,26,0
2,note_on,64,0,120
2,note_on,65,26,0
2,note_on,65,0,120
2,note_on,53,39,0
2,note_on,65,27,63
2,note_on,65,0,120
2,note_on,53,0,0
2,note_on,57,45,0
2,note_on,65,27,120
2,note_on,65,0,120
2,note_on,57,0,0
2,note_on,60,38,0
2,note_on,65,27,120
2,note_on,65,0,120
2,note_on,60,0,0
2,note_on,48,39,0
2,note_on,65,27,69
2,note_on,65,0,120
2,note_on,48,0,0
2,note_on,57,46,0
2,note_on,64,28,120
2,note_on,64,0,120
2,note_on,57,0,0
2,note_on,60,40,0
2,note_on,64,28,120
2,note_on,64,0,120
2,note_on,60,0,0
2,note_on,51,42,0
2,note_on,63,29,74
2,note_on,63,0,120
2,note_on,51,0,0
2,note_on,57,49,0
2,note_on,63,29,120
2,note_on,63,0,120
2,note_on,57,0,0
2,note_on,60,44,0
2,note_on,63,31,120
2,note_on,63,0,120
2,note_on,60,0,0
2,note_on,50,55,0
2,note_on,62,31,80
2,note_on,62,0,120
2,note_on,50,0,0
2,note_on,54,48,0
2,note_on,62,31,120
2,note_on,62,0,120
2,note_on,54,0,0
2,note_on,49,55,0
2,note_on,61,33,86
2,note_on,61,0,120
2,note_on,49,0,0
2,note_on,54,48,0
2,note_on,61,34,120
2,note_on,61,0,120
2,note_on,54,0,0
2,note_on,48,59,0
2,note_on,60,35,91
2,note_on,60,0,120
2,note_on,48,0,0
2,note_on,54,51,0
2,note_on,60,35,120
2,note_on,60,0,120
2,note_on,54,0,0
2,note_on,47,64,0
2,note_on,59,37,74
2,note_on,59,0,120
2,note_on,47,0,0
2,note_on,54,53,0
2,note_on,59,37,120
2,note_on,59,0,120
2,note_on,54,0,0
2,note_on,46,69,0
2,note_on,58,39,74
2,note_on,58,0,120
2,note_on,46,0,0
2,note_on,54,55,0
2,note_on,58,39,120
2,note_on,58,0,120
2,note_on,54,0,0
2,note_on,45,70,0
2,note_on,57,40,57
2,note_on,57,0,120
2,note_on,45,0,0
2,note_on,54,57,0
2,note_on,57,42,120
2,note_on,57,0,120
2,note_on,54,0,0
2,note_on,44,72,0
2,note_on,56,43,69
2,note_on,56,0,120
2,note_on,44,0,0
2,note_on,37,61,0
2,note_on,49,73,0
2,note_on,49,0,240
2,note_on,37,0,0
2,note_on,53,58,880
2,note_on,61,69,0
2,note_on,61,0,240
2,note_on,53,0,0
2,note_on,56,61,0
2,note_on,65,72,0
2,note_on,65,0,183
2,note_on,56,0,0
2,note_on,61,56,0
2,note_on,68,67,0
2,note_on,68,0,240
2,note_on,61,0,0
2,note_on,65,56,0
2,note_on,73,67,0
2,note_on,73,0,240
2,note_on,65,0,0
2,note_on,65,61,0
2,note_on,73,72,0
2,note_on,73,0,160
2,note_on,65,0,0
2,note_on,42,61,480
2,note_on,54,61,0
2,note_on,54,0,229
2,note_on,47,55,0
2,note_on,47,0,240
2,note_on,42,0,0
2,note_on,40,61,0
2,note_on,52,61,0
2,note_on,52,0,240
2,note_on,45,54,0
2,note_on,45,0,240
2,note_on,40,0,0
2,note_on,38,61,0
2,note_on,50,61,0
2,note_on,50,0,240
2,note_on,43,54,0
2,note_on,43,0,240
2,note_on,38,0,0
2,note_on,36,56,0
2,note_on,48,56,0
2,note_on,48,0,240
2,note_on,36,0,0
2,note_on,37,58,0
2,note_on,49,58,0
2,note_on,49,0,240
2,note_on,37,0,0
2,note_on,38,59,0
2,note_on,50,59,0
2,note_on,50,0,240
2,note_on,38,0,0
2,note_on,39,61,0
2,note_on,51,61,0
2,note_on,51,0,240
2,note_on,39,0,0
2,note_on,40,63,0
2,note_on,52,63,0
2,note_on,52,0,240
2,note_on,40,0,0
2,note_on,41,65,0
2,note_on,51,65,0
2,note_on,51,0,240
2,note_on,41,0,0
2,note_on,46,63,0
2,note_on,50,63,0
2,note_on,50,0,240
2,note_on,46,0,0
2,note_on,39,54,0
2,note_on,39,0,120
2,note_on,44,54,120
2,note_on,44,0,120
2,note_on,49,60,120
2,note_on,49,0,120
2,note_on,54,52,120
2,note_on,54,0,120
2,note_on,59,52,120
2,note_on,59,0,120
2,note_on,64,58,120
2,note_on,64,0,120
2,note_on,63,50,120
2,note_on,63,0,120
2,note_on,62,50,120
2,note_on,62,0,120
2,note_on,61,57,120
2,note_on,61,0,120
2,note_on,60,49,120
2,note_on,60,0,120
2,note_on,59,49,120
2,note_on,59,0,120
2,note_on,60,49,120
2,note_on,60,0,240
2,note_on,72,46,0
2,note_on,71,47,240
2,note_on,72,0,20
2,note_on,70,47,220
2,note_on,71,0,20
2,note_on,69,47,220
2,note_on,70,0,20
2,note_on,68,48,220
2,note_on,69,0,20
2,note_on,67,49,220
2,note_on,68,0,20
2,note_on,65,45,220
2,note_on,67,0,20
2,note_on,64,45,220
2,note_on,65,0,20
2,note_on,63,45,220
2,note_on,64,0,20
2,note_on,62,45,220
2,note_on,63,0,20
2,note_on,61,45,220
2,note_on,62,0,20
2,note_on,60,51,220
2,note_on,61,0,20
2,note_on,60,0,200
2,note_on,60,49,20
2,note_on,59,50,240
2,note_on,60,0,20
2,note_on,58,54,220
2,note_on,59,0,20
2,note_on,57,52,220
2,note_on,58,0,20
2,note_on,56,53,220
2,note_on,57,0,20
2,note_on,55,57,220
2,note_on,56,0,20
2,note_on,53,53,220
2,note_on,55,0,20
2,note_on,52,54,220
2,note_on,53,0,20
2,note_on,51,55,220
2,note_on,52,0,20
2,note_on,50,58,220
2,note_on,51,0,20
2,note_on,49,60,220
2,note_on,50,0,20
2,note_on,48,62,220
2,note_on,49,0,20
2,note_on,48,0,100
2,note_on,58,57,120
2,note_on,60,68,0
2,note_on,60,0,223
2,note_on,64,63,0
2,note_on,64,0,46
2,note_on,58,0,0
2,note_on,46,60,0
2,note_on,46,0,120
2,note_on,55,56,120
2,note_on,58,67,0
2,note_on,58,0,194
2,note_on,64,62,0
2,note_on,64,0,240
2,note_on,55,0,0
2,note_on,45,60,0
2,note_on,45,0,120
2,note_on,52,55,120
2,note_on,55,65,0
2,note_on,55,0,223
2,note_on,64,61,0
2,note_on,64,0,6
2,note_on,52,0,0
2,note_on,45,56,0
2,note_on,45,0,120
2,note_on,49,51,120
2,note_on,52,61,0
2,note_on,52,0,217
2,note_on,57,53,0
2,note_on,57,0,240
2,note_on,49,0,0
2,note_on,50,58,0
2,note_on,50,0,120
2,note_on,53,56,120
2,note_on,57,66,0
2,note_on,57,0,223
2,note_on,62,61,0
2,note_on,62,0,6
2,note_on,53,0,0
2,note_on,48,58,0
2,note_on,48,0,120
2,note_on,53,56,120
2,note_on,56,67,0
2,note_on,56,0,200
2,note_on,62,61,0
2,note_on,62,0,240
2,note_on,53,0,0
2,note_on,47,56,0
2,note_on,47,0,120
2,note_on,50,56,120
2,note_on,53,66,0
2,note_on,53,0,229
2,note_on,62,59,0
2,note_on,62,0,240
2,note_on,50,0,0
2,note_on,40,56,0
2,note_on,40,0,114
2,note_on,44,54,120
2,note_on,47,64,0
2,note_on,47,0,229
2,note_on,52,57,0
2,note_on,52,0,240
2,note_on,44,0,0
2,note_on,45,68,0
2,note_on,45,0,182
2,note_on,45,62,0
2,note_on,52,73,0
2,note_on,52,0,177
2,note_on,45,0,0
2,note_on,50,57,0
2,note_on,53,68,0
2,note_on,53,0,185
2,note_on,50,0,0
2,note_on,48,61,0
2,note_on,55,72,0
2,note_on,55,0,188
2,note_on,48,0,0
2,note_on,53,56,0
2,note_on,57,67,0
2,note_on,57,0,184
2,note_on,53,0,0
2,note_on,52,61,0
2,note_on,59,72,0
2,note_on,59,0,187
2,note_on,52,0,0
2,note_on,60,67,0
2,note_on,57,56,0
2,note_on,57,0,183
2,note_on,60,0,0
2,note_on,55,63,0
2,note_on,62,75,0
2,note_on,62,0,186
2,note_on,55,0,0
2,note_on,64,69,0
2,note_on,60,58,0
2,note_on,60,0,188
2,note_on,64,0,0
2,note_on,64,75,0
2,note_on,57,63,0
2,note_on,57,0,179
2,note_on,64,0,0
2,note_on,65,70,0
2,note_on,62,59,0
2,note_on,62,0,179
2,note_on,65,0,0
2,note_on,60,63,0
2,note_on,67,75,0
2,note_on,67,0,182
2,note_on,60,0,0
2,note_on,69,69,0
2,note_on,65,58,0
2,note_on,65,0,171
2,note_on,69,0,0
2,note_on,57,54,0
2,note_on,57,0,63
2,note_on,64,55,0
2,note_on,64,0,120
2,note_on,62,56,0
2,note_on,62,0,120
2,note_on,65,58,0
2,note_on,65,0,120
2,note_on,60,70,0
2,note_on,60,0,71
2,note_on,67,58,0
2,note_on,67,0,120
2,note_on,65,59,0
2,note_on,65,0,120
2,note_on,69,59,0
2,note_on,69,0,120
2,note_on,64,61,0
2,note_on,64,0,66
2,note_on,71,61,0
2,note_on,71,0,120
2,note_on,69,75,0
2,note_on,69,0,67
2,note_on,72,63,0
2,note_on,72,0,120
2,note_on,67,61,0
2,note_on,67,0,120
2,note_on,74,63,0
2,note_on,74,0,120
2,note_on,72,64,0
2,note_on,72,0,63
2,note_on,76,65,0
2,note_on,76,0,120
2,note_on,69,80,0
2,note_on,69,0,40
2,note_on,76,66,0
2,note_on,76,0,120
2,note_on,74,66,0
2,note_on,74,0,120
2,note_on,77,68,0
2,note_on,77,0,120
2,note_on,72,68,0
2,note_on,72,0,61
2,note_on,79,68,0
2,note_on,79,0,120
2,note_on,81,72,0
2,note_on,77,66,0
2,note_on,77,0,120
2,note_on,81,0,0
2,note_on,73,53,0
2,note_on,80,63,0
2,note_on,80,0,240
2,note_on,73,0,0
2,note_on,81,66,0
2,note_on,72,56,0
2,note_on,72,0,210
2,note_on,81,0,0
2,note_on,73,56,0
2,note_on,80,66,0
2,note_on,80,0,208
2,note_on,73,0,0
2,note_on,81,66,0
2,note_on,72,56,0
2,note_on,72,0,208
2,note_on,81,0,0
2,note_on,73,56,0
2,note_on,80,66,0
2,note_on,80,0,214
2,note_on,73,0,0
2,note_on,72,56,0
2,note_on,81,66,0
2,note_on,81,0,189
2,note_on,72,0,0
2,note_on,73,56,0
2,note_on,80,66,0
2,note_on,80,0,171
2,note_on,73,0,0
2,note_on,72,56,0
2,note_on,81,66,0
2,note_on,81,0,189
2,note_on,72,0,0
2,note_on,73,56,0
2,note_on,80,66,0
2,note_on,80,0,194
2,note_on,73,0,0
2,note_on,72,56,0
2,note_on,81,66,0
2,note_on,81,0,194
2,note_on,72,0,0
2,note_on,73,56,0
2,note_on,80,66,0
2,note_on,80,0,200
2,note_on,73,0,0
2,note_on,72,55,0
2,note_on,81,64,0
2,note_on,81,0,115
2,note_on,72,0,0
2,note_on,48,59,600
2,note_on,57,70,0
2,note_on,57,0,720
2,note_on,48,0,0
2,note_on,48,59,0
2,note_on,58,77,0
2,note_on,58,0,466
2,note_on,48,0,0
2,note_on,48,34,169
2,note_on,54,34,0
2,note_on,60,40,0
2,note_on,60,0,362
2,note_on,54,0,0
2,note_on,48,0,0
2,note_on,48,30,5
2,note_on,54,30,0
2,note_on,60,36,0
2,note_on,60,0,238
2,note_on,54,0,0
2,note_on,48,0,0
2,note_on,48,34,2
2,note_on,55,34,0
2,note_on,60,40,0
2,note_on,60,0,222
2,note_on,55,0,0
2,note_on,48,0,0
2,note_on,48,31,5
2,note_on,55,31,0
2,note_on,60,37,0
2,note_on,60,0,238
2,note_on,55,0,0
2,note_on,48,0,0
2,note_on,48,38,2
2,note_on,56,38,0
2,note_on,62,46,0
2,note_on,62,0,222
2,note_on,56,0,0
2,note_on,48,0,0
2,note_on,48,36,5
2,note_on,56,36,0
2,note_on,62,42,0
2,note_on,62,0,238
2,note_on,56,0,0
2,note_on,48,0,0
2,note_on,48,41,2
2,note_on,57,41,0
2,note_on,60,49,0
2,note_on,60,0,208
2,note_on,57,0,0
2,note_on,48,0,0
2,note_on,48,39,5
2,note_on,57,39,0
2,note_on,60,46,0
2,note_on,60,0,238
2,note_on,57,0,0
2,note_on,48,0,0
2,note_on,48,45,0
2,note_on,54,45,0
2,note_on,62,53,0
2,note_on,62,0,275
2,note_on,54,0,0
2,note_on,48,0,0
2,note_on,48,40,5
2,note_on,54,40,0
2,note_on,62,48,0
2,note_on,62,0,238
2,note_on,54,0,0
2,note_on,48,0,0
2,note_on,48,41,2
2,note_on,55,41,0
2,note_on,62,49,0
2,note_on,62,0,191
2,note_on,55,0,0
2,note_on,48,0,0
2,note_on,48,25,0
2,note_on,55,32,24
2,note_on,62,33,24
2,note_on,62,0,192
2,note_on,55,0,0
2,note_on,48,0,0
2,note_on,48,30,0
2,note_on,54,30,24
2,note_on,63,37,24
2,note_on,63,0,159
2,note_on,54,0,0
2,note_on,48,0,0
2,note_on,48,28,0
2,note_on,55,28,24
2,note_on,64,34,24
2,note_on,64,0,192
2,note_on,55,0,0
2,note_on,48,0,0
2,note_on,48,27,0
2,note_on,57,27,24
2,note_on,65,33,24
2,note_on,65,0,480
2,note_on,57,0,0
2,note_on,48,0,0
2,note_on,48,31,0
2,note_on,48,0,180
2,note_on,48,34,0
2,note_on,54,40,30
2,note_on,63,40,0
2,note_on,63,0,480
2,note_on,54,0,0
2,note_on,48,0,0
2,note_on,48,40,0
2,note_on,48,0,180
2,note_on,48,38,0
2,note_on,55,38,30
2,note_on,62,45,30
2,note_on,62,0,416
2,note_on,55,0,0
2,note_on,48,0,0
2,note_on,48,42,0
2,note_on,48,0,180
2,note_on,48,37,0
2,note_on,56,45,30
2,note_on,65,45,30
2,note_on,65,0,402
2,note_on,56,0,0
2,note_on,48,0,0
2,note_on,48,42,0
2,note_on,48,0,180
2,note_on,48,37,0
2,note_on,57,37,30
2,note_on,60,45,30
2,note_on,60,0,429
2,note_on,57,0,0
2,note_on,48,0,0
2,note_on,48,42,0
2,note_on,48,0,180
2,note_on,48,42,0
2,note_on,54,42,30
2,note_on,62,51,30
2,note_on,62,0,423
2,note_on,54,0,0
2,note_on,48,0,0
2,note_on,48,47,0
2,note_on,48,0,180
2,note_on,48,42,0
2,note_on,55,42,30
2,note_on,62,51,30
2,note_on,62,0,406
2,note_on,55,0,0
2,note_on,48,0,0
2,note_on,48,47,0
2,note_on,48,0,180
2,note_on,48,43,0
2,note_on,52,43,30
2,note_on,60,52,30
2,note_on,60,0,429
2,note_on,52,0,0
2,note_on,48,0,0
2,note_on,48,50,0
2,note_on,48,0,180
2,note_on,48,45,0
2,note_on,53,45,30
2,note_on,60,53,0
2,note_on,60,0,432
2,note_on,53,0,0
2,note_on,48,0,0
2,note_on,48,51,0
2,note_on,48,0,240
2,note_on,48,41,0
2,note_on,54,44,0
2,note_on,60,51,0
2,note_on,60,0,429
2,note_on,54,0,0
2,note_on,48,0,0
2,note_on,48,35,5
2,note_on,54,41,0
2,note_on,60,51,0
2,note_on,60,0,238
2,note_on,54,0,0
2,note_on,48,0,0
2,note_on,48,47,2
2,note_on,55,47,0
2,note_on,60,58,0
2,note_on,60,0,412
2,note_on,55,0,0
2,note_on,48,0,0
2,note_on,48,44,5
2,note_on,55,44,0
2,note_on,60,53,0
2,note_on,60,0,238
2,note_on,55,0,0
2,note_on,48,0,0
2,note_on,48,46,2
2,note_on,56,46,0
2,note_on,62,57,0
2,note_on,62,0,412
2,note_on,56,0,0
2,note_on,48,0,0
2,note_on,48,44,5
2,note_on,56,54,0
2,note_on,62,54,0
2,note_on,62,0,238
2,note_on,56,0,0
2,note_on,48,0,0
2,note_on,48,46,2
2,note_on,57,46,0
2,note_on,60,56,0
2,note_on,48,0,423
2,note_on,48,54,0
2,note_on,48,0,240
2,note_on,60,0,0
2,note_on,57,0,0
2,note_on,48,53,0
2,note_on,54,53,0
2,note_on,62,62,0
2,note_on,62,0,423
2,note_on,54,0,0
2,note_on,48,0,0
2,note_on,48,51,0
2,note_on,54,51,0
2,note_on,62,60,0
2,note_on,62,0,240
2,note_on,54,0,0
2,note_on,48,0,0
2,note_on,46,64,0
2,note_on,46,0,200
2,note_on,62,56,0
2,note_on,62,0,240
2,note_on,67,57,0
2,note_on,67,0,240
2,note_on,58,66,0
2,note_on,60,56,166
2,note_on,60,0,240
2,note_on,64,58,0
2,note_on,64,0,240
2,note_on,58,0,0
2,note_on,57,67,0
2,note_on,60,59,171
2,note_on,60,0,240
2,note_on,65,61,0
2,note_on,65,0,240
2,note_on,57,0,0
2,note_on,58,70,0
2,note_on,62,62,154
2,note_on,62,0,240
2,note_on,67,63,0
2,note_on,67,0,240
2,note_on,58,0,0
2,note_on,60,74,0
2,note_on,64,65,194
2,note_on,64,0,240
2,note_on,69,66,0
2,note_on,69,0,240
2,note_on,60,0,0
2,note_on,62,75,0
2,note_on,65,68,166
2,note_on,65,0,240
2,note_on,70,69,0
2,note_on,70,0,240
2,note_on,62,0,0
2,note_on,64,84,0
2,note_on,67,73,177
2,note_on,67,0,240
2,note_on,72,74,0
2,note_on,72,0,240
2,note_on,64,0,0
2,note_on,65,82,0
2,note_on,69,73,189
2,note_on,69,0,240
2,note_on,72,73,0
2,note_on,72,0,240
2,note_on,65,0,0
2,note_on,53,40,0
2,note_on,59,30,189
2,note_on,62,30,0
2,note_on,67,36,0
2,note_on,67,0,228
2,note_on,62,0,0
2,note_on,59,0,0
2,note_on,59,30,12
2,note_on,62,30,0
2,note_on,67,36,0
2,note_on,67,0,228
2,note_on,62,0,0
2,note_on,59,0,0
2,note_on,53,0,12
2,note_on,53,40,0
2,note_on,58,30,189
2,note_on,61,30,0
2,note_on,67,36,0
2,note_on,67,0,228
2,note_on,61,0,0
2,note_on,58,0,0
2,note_on,58,30,12
2,note_on,61,30,0
2,note_on,67,36,0
2,note_on,67,0,228
2,note_on,61,0,0
2,note_on,58,0,0
2,note_on,53,0,12
2,note_on,53,40,0
2,note_on,58,30,189
2,note_on,60,30,0
2,note_on,64,36,0
2,note_on,64,0,228
2,note_on,60,0,0
2,note_on,58,0,0
2,note_on,58,30,12
2,note_on,60,30,0
2,note_on,64,36,0
2,note_on,64,0,228
2,note_on,60,0,0
2,note_on,58,0,0
2,note_on,53,0,12
2,note_on,53,40,0
2,note_on,57,30,189
2,note_on,60,30,0
2,note_on,65,36,0
2,note_on,65,0,228
2,note_on,60,0,0
2,note_on,57,0,0
2,note_on,57,30,12
2,note_on,60,30,0
2,note_on,65,36,0
2,note_on,65,0,228
2,note_on,60,0,0
2,note_on,57,0,0
2,note_on,53,0,12
2,note_on,53,40,0
2,note_on,59,30,189
2,note_on,62,30,0
2,note_on,67,36,0
2,note_on,67,0,228
2,note_on,62,0,0
2,note_on,59,0,0
2,note_on,59,30,12
2,note_on,62,30,0
2,note_on,67,36,0
2,note_on,67,0,228
2,note_on,62,0,0
2,note_on,59,0,0
2,note_on,53,0,12
2,note_on,53,40,0
2,note_on,58,30,189
2,note_on,61,30,0
2,note_on,67,36,0
2,note_on,67,0,228
2,note_on,61,0,0
2,note_on,58,0,0
2,note_on,58,30,12
2,note_on,61,30,0
2,note_on,67,36,0
2,note_on,67,0,228
2,note_on,61,0,0
2,note_on,58,0,0
2,note_on,53,0,12
2,note_on,53,40,0
2,note_on,58,30,189
2,note_on,60,30,0
2,note_on,64,36,0
2,note_on,64,0,228
2,note_on,60,0,0
2,note_on,58,0,0
2,note_on,58,30,12
2,note_on,60,30,0
2,note_on,64,36,0
2,note_on,64,0,228
2,note_on,60,0,0
2,note_on,58,0,0
2,note_on,53,0,12
2,note_on,53,40,0
2,note_on,57,30,189
2,note_on,60,30,0
2,note_on,65,36,0
2,note_on,65,0,228
2,note_on,60,0,0
2,note_on,57,0,0
2,note_on,57,30,12
2,note_on,60,30,0
2,note_on,65,36,0
2,note_on,65,0,228
2,note_on,60,0,0
2,note_on,57,0,0
2,note_on,53,0,12
2,note_on,53,45,0
2,note_on,62,40,194
2,note_on,59,40,0
2,note_on,62,0,240
2,note_on,67,40,0
2,note_on,67,0,240
2,note_on,59,0,0
2,note_on,53,0,0
2,note_on,53,47,0
2,note_on,61,40,183
2,note_on,58,40,0
2,note_on,61,0,240
2,note_on,67,40,0
2,note_on,67,0,240
2,note_on,58,0,0
2,note_on,53,0,0
2,note_on,53,46,0
2,note_on,60,40,191
2,note_on,58,40,0
2,note_on,60,0,240
2,note_on,64,40,0
2,note_on,64,0,240
2,note_on,58,0,0
2,note_on,53,0,0
2,note_on,53,47,0
2,note_on,60,40,183
2,note_on,57,40,0
2,note_on,60,0,240
2,note_on,65,40,0
2,note_on,65,0,240
2,note_on,57,0,0
2,note_on,53,0,0
2,note_on,53,45,0
2,note_on,62,39,160
2,note_on,59,39,0
2,note_on,62,0,240
2,note_on,67,38,0
2,note_on,67,0,240
2,note_on,59,0,0
2,note_on,53,0,0
2,note_on,53,44,0
2,note_on,61,37,189
2,note_on,58,37,0
2,note_on,61,0,240
2,note_on,67,36,0
2,note_on,67,0,240
2,note_on,58,0,0
2,note_on,53,0,0
2,note_on,53,41,0
2,note_on,60,35,183
2,note_on,58,35,0
2,note_on,60,0,240
2,note_on,64,34,0
2,note_on,64,0,240
2,note_on,58,0,0
2,note_on,53,0,0
2,note_on,53,39,0
2,note_on,60,33,166
2,note_on,57,33,0
2,note_on,60,0,240
2,note_on,65,32,0
2,note_on,65,0,240
2,note_on,57,0,0
2,note_on,53,0,0
2,note_on,41,36,0
2,note_on,50,32,183
2,note_on,47,32,0
2,note_on,50,0,240
2,note_on,55,32,0
2,note_on,55,0,240
2,note_on,47,0,0
2,note_on,41,0,0
2,note_on,41,37,0
2,note_on,49,32,166
2,note_on,46,32,0
2,note_on,49,0,240
2,note_on,55,32,0
2,note_on,55,0,240
2,note_on,46,0,0
2,note_on,41,0,0
2,note_on,41,36,0
2,note_on,48,32,177
2,note_on,46,32,0
2,note_on,48,0,240
2,note_on,52,32,0
2,note_on,52,0,240
2,note_on,46,0,0
2,note_on,41,0,0
2,note_on,41,37,0
2,note_on,48,32,183
2,note_on,45,32,0
2,note_on,48,0,240
2,note_on,53,32,0
2,note_on,53,0,240
2,note_on,45,0,0
2,note_on,41,0,0
2,note_on,29,30,0
2,note_on,38,27,240
2,note_on,38,0,240
2,note_on,43,26,0
2,note_on,43,0,240
2,note_on,29,0,0
2,note_on,29,30,0
2,note_on,37,26,240
2,note_on,37,0,240
2,note_on,43,25,0
2,note_on,43,0,240
2,note_on,29,0,0
2,note_on,29,28,0
2,note_on,36,25,240
2,note_on,36,0,240
2,note_on,40,25,0
2,note_on,40,0,240
2,note_on,29,0,0
2,note_on,29,28,0
2,note_on,36,30,240
2,note_on,36,0,480
2,note_on,29,0,0
2,note_on,29,27,0
2,note_on,36,29,240
2,note_on,36,0,480
2,note_on,29,0,0
2,note_on,29,27,0
2,note_on,37,29,240
2,note_on,37,0,480
2,note_on,29,0,0
2,note_on,29,25,0
2,note_on,36,27,240
2,note_on,36,0,480
2,note_on,29,0,0
2,note_on,29,26,0
2,note_on,37,28,240
2,note_on,37,0,480
2,note_on,29,0,0
2,note_on,29,25,0
2,note_on,36,29,240
2,note_on,36,0,480
2,note_on,29,0,0
2,note_on,29,26,0
2,note_on,37,28,240
2,note_on,37,0,480
2,note_on,36,24,0
2,note_on,36,0,240
2,note_on,29,0,0
2,note_on,48,22,480
2,note_on,58,26,0
2,note_on,58,0,120
2,note_on,48,0,0
2,note_on,41,22,600
2,note_on,48,26,0
2,note_on,48,0,120
2,note_on,41,0,0
