Track,Message Type,Note,Velocity,Time
1,note_on,67,84,0
1,note_on,79,95,0
1,note_on,79,0,1410
1,note_on,67,0,0
1,note_on,71,44,30
1,note_on,71,0,360
1,note_on,72,38,0
1,note_on,72,0,120
1,note_on,74,51,0
1,note_on,74,0,338
1,note_on,74,42,142
1,note_on,74,0,338
1,note_on,74,42,142
1,note_on,74,0,338
1,note_on,72,46,142
1,note_on,72,0,360
1,note_on,74,47,0
1,note_on,74,0,120
1,note_on,75,53,0
1,note_on,75,0,720
1,note_on,74,44,0
1,note_on,74,0,240
1,note_on,72,39,0
1,note_on,72,0,480
1,note_on,74,49,0
1,note_on,74,0,360
1,note_on,72,42,0
1,note_on,72,0,120
1,note_on,71,46,0
1,note_on,71,0,480
1,note_on,69,44,0
1,note_on,69,0,360
1,note_on,71,36,0
1,note_on,71,0,120
1,note_on,72,48,0
1,note_on,72,0,480
1,note_on,74,43,0
1,note_on,74,0,360
1,note_on,75,44,0
1,note_on,75,0,120
1,note_on,74,51,0
1,note_on,74,0,1440
1,note_on,62,37,0
1,note_on,67,37,0
1,note_on,71,44,0
1,note_on,71,0,241
1,note_on,67,0,0
1,note_on,62,0,0
1,note_on,63,35,119
1,note_on,67,35,0
1,note_on,72,42,0
1,note_on,72,0,60
1,note_on,67,0,0
1,note_on,63,0,0
1,note_on,65,43,60
1,note_on,67,43,0
1,note_on,74,51,0
1,note_on,74,0,241
1,note_on,67,0,0
1,note_on,65,0,0
1,note_on,65,35,239
1,note_on,67,35,0
1,note_on,74,42,0
1,note_on,74,0,241
1,note_on,67,0,0
1,note_on,65,0,0
1,note_on,65,35,239
1,note_on,67,35,0
1,note_on,74,42,0
1,note_on,74,0,241
1,note_on,67,0,0
1,note_on,65,0,0
1,note_on,63,39,239
1,note_on,67,39,0
1,note_on,72,39,0
1,note_on,72,0,241
1,note_on,67,0,0
1,note_on,63,0,0
1,note_on,65,39,119
1,note_on,67,39,0
1,note_on,74,47,0
1,note_on,74,0,60
1,note_on,67,0,0
1,note_on,65,0,0
1,note_on,67,45,60
1,note_on,75,53,0
1,note_on,75,0,840
1,note_on,67,0,0
1,note_on,65,37,0
1,note_on,67,37,0
1,note_on,74,44,0
1,note_on,74,0,60
1,note_on,67,0,0
1,note_on,65,0,0
1,note_on,63,33,60
1,note_on,67,33,0
1,note_on,72,39,0
1,note_on,72,0,240
1,note_on,67,0,0
1,note_on,63,0,0
1,note_on,65,41,240
1,note_on,68,41,0
1,note_on,74,49,0
1,note_on,74,0,241
1,note_on,68,0,0
1,note_on,65,0,0
1,note_on,63,35,119
1,note_on,68,42,0
1,note_on,72,42,0
1,note_on,72,0,60
1,note_on,68,0,0
1,note_on,63,0,0
1,note_on,62,39,60
1,note_on,67,39,0
1,note_on,71,46,0
1,note_on,71,0,240
1,note_on,67,0,0
1,note_on,62,0,0
1,note_on,60,37,240
1,note_on,67,37,0
1,note_on,69,44,0
1,note_on,69,0,241
1,note_on,67,0,0
1,note_on,60,0,0
1,note_on,62,30,119
1,note_on,67,30,0
1,note_on,71,36,0
1,note_on,71,0,60
1,note_on,67,0,0
1,note_on,62,0,0
1,note_on,63,40,60
1,note_on,67,40,0
1,note_on,72,48,0
1,note_on,72,0,240
1,note_on,67,0,0
1,note_on,63,0,0
1,note_on,67,45,240
1,note_on,75,53,0
1,note_on,75,0,241
1,note_on,67,0,0
1,note_on,65,37,119
1,note_on,67,37,0
1,note_on,74,44,0
1,note_on,74,0,60
1,note_on,67,0,0
1,note_on,65,0,0
1,note_on,63,43,60
1,note_on,67,43,0
1,note_on,72,51,0
1,note_on,72,0,1440
1,note_on,67,0,0
1,note_on,63,0,0
1,note_on,74,44,0
1,note_on,74,0,360
1,note_on,75,38,0
1,note_on,75,0,120
1,note_on,77,51,0
1,note_on,77,0,338
1,note_on,77,42,142
1,note_on,77,0,338
1,note_on,77,42,142
1,note_on,77,0,338
1,note_on,75,46,142
1,note_on,75,0,360
1,note_on,74,47,0
1,note_on,74,0,120
1,note_on,79,53,0
1,note_on,79,0,720
1,note_on,77,44,0
1,note_on,77,0,240
1,note_on,75,39,0
1,note_on,75,0,480
1,note_on,74,49,0
1,note_on,74,0,360
1,note_on,72,42,0
1,note_on,72,0,120
1,note_on,71,46,0
1,note_on,71,0,480
1,note_on,69,44,0
1,note_on,69,0,360
1,note_on,71,36,0
1,note_on,71,0,120
1,note_on,72,48,0
1,note_on,72,0,480
1,note_on,77,43,0
1,note_on,77,0,360
1,note_on,75,44,0
1,note_on,75,0,120
1,note_on,74,51,0
1,note_on,74,0,1440
1,note_on,65,37,0
1,note_on,70,37,0
1,note_on,74,44,0
1,note_on,74,0,241
1,note_on,70,0,0
1,note_on,65,0,0
1,note_on,67,35,119
1,note_on,70,35,0
1,note_on,75,42,0
1,note_on,75,0,60
1,note_on,70,0,0
1,note_on,67,0,0
1,note_on,68,43,60
1,note_on,70,43,0
1,note_on,77,51,0
1,note_on,77,0,241
1,note_on,70,0,0
1,note_on,68,0,0
1,note_on,68,35,239
1,note_on,70,35,0
1,note_on,77,42,0
1,note_on,77,0,241
1,note_on,70,0,0
1,note_on,68,0,0
1,note_on,68,35,239
1,note_on,70,35,0
1,note_on,77,42,0
1,note_on,77,0,241
1,note_on,70,0,0
1,note_on,68,0,0
1,note_on,67,39,239
1,note_on,70,39,0
1,note_on,75,46,0
1,note_on,75,0,241
1,note_on,70,0,0
1,note_on,67,0,0
1,note_on,65,39,119
1,note_on,70,39,0
1,note_on,74,47,0
1,note_on,74,0,60
1,note_on,70,0,0
1,note_on,65,0,0
1,note_on,70,47,60
1,note_on,79,56,0
1,note_on,79,0,840
1,note_on,70,0,0
1,note_on,68,41,0
1,note_on,70,41,0
1,note_on,77,49,0
1,note_on,77,0,60
1,note_on,70,0,0
1,note_on,68,0,0
1,note_on,67,35,60
1,note_on,70,35,0
1,note_on,75,42,0
1,note_on,75,0,240
1,note_on,70,0,0
1,note_on,67,0,0
1,note_on,65,44,240
1,note_on,68,44,0
1,note_on,74,52,0
1,note_on,74,0,241
1,note_on,68,0,0
1,note_on,65,0,0
1,note_on,63,35,119
1,note_on,68,35,0
1,note_on,72,42,0
1,note_on,72,0,60
1,note_on,68,0,0
1,note_on,63,0,0
1,note_on,62,39,60
1,note_on,67,39,0
1,note_on,71,46,0
1,note_on,71,0,240
1,note_on,67,0,0
1,note_on,62,0,0
1,note_on,60,37,240
1,note_on,67,37,0
1,note_on,69,44,0
1,note_on,69,0,241
1,note_on,67,0,0
1,note_on,60,0,0
1,note_on,62,30,119
1,note_on,67,30,0
1,note_on,71,36,0
1,note_on,71,0,60
1,note_on,67,0,0
1,note_on,62,0,0
1,note_on,63,40,60
1,note_on,67,40,0
1,note_on,72,48,0
1,note_on,72,0,240
1,note_on,67,0,0
1,note_on,63,0,0
1,note_on,67,45,240
1,note_on,75,53,0
1,note_on,75,0,241
1,note_on,67,0,0
1,note_on,65,37,119
1,note_on,67,37,0
1,note_on,74,44,0
1,note_on,74,0,60
1,note_on,67,0,0
1,note_on,65,0,0
1,note_on,63,43,60
1,note_on,67,43,0
1,note_on,72,51,0
1,note_on,72,0,1440
1,note_on,67,0,0
1,note_on,63,0,0
1,note_on,71,48,0
1,note_on,71,0,360
1,note_on,72,41,0
1,note_on,72,0,120
1,note_on,74,56,0
1,note_on,74,0,338
1,note_on,68,39,142
1,note_on,71,46,0
1,note_on,74,46,0
1,note_on,74,0,338
1,note_on,71,0,22
1,note_on,68,0,0
1,note_on,69,39,120
1,note_on,72,39,0
1,note_on,74,46,0
1,note_on,74,0,338
1,note_on,72,0,22
1,note_on,69,0,0
1,note_on,69,39,120
1,note_on,72,50,0
1,note_on,72,0,360
1,note_on,74,51,0
1,note_on,74,0,120
1,note_on,69,0,0
1,note_on,72,50,0
1,note_on,69,49,0
1,note_on,72,0,60
1,note_on,74,53,0
1,note_on,74,0,60
1,note_on,75,58,0
1,note_on,75,0,600
1,note_on,74,48,0
1,note_on,74,0,240
1,note_on,72,42,0
1,note_on,72,0,480
1,note_on,69,0,0
1,note_on,69,40,0
1,note_on,74,55,0
1,note_on,74,0,360
1,note_on,72,48,0
1,note_on,72,0,120
1,note_on,69,0,0
1,note_on,67,44,0
1,note_on,71,52,0
1,note_on,71,0,480
1,note_on,67,0,0
1,note_on,67,46,0
1,note_on,69,54,0
1,note_on,69,0,360
1,note_on,67,0,0
1,note_on,67,36,0
1,note_on,71,44,0
1,note_on,71,0,120
1,note_on,67,0,0
1,note_on,67,50,0
1,note_on,72,59,0
1,note_on,72,0,480
1,note_on,67,0,0
1,note_on,67,51,0
1,note_on,74,61,0
1,note_on,74,0,360
1,note_on,67,0,0
1,note_on,67,52,0
1,note_on,75,62,0
1,note_on,75,0,120
1,note_on,67,0,0
1,note_on,67,61,0
1,note_on,74,73,0
1,note_on,74,0,1440
1,note_on,67,0,0
1,note_on,62,64,0
1,note_on,67,64,0
1,note_on,71,77,0
1,note_on,71,0,241
1,note_on,67,0,0
1,note_on,62,0,0
1,note_on,63,61,119
1,note_on,67,61,0
1,note_on,72,73,0
1,note_on,72,0,60
1,note_on,67,0,0
1,note_on,63,0,0
1,note_on,65,74,60
1,note_on,67,74,0
1,note_on,74,89,0
1,note_on,74,0,241
1,note_on,67,0,0
1,note_on,65,0,0
1,note_on,65,68,239
1,note_on,67,68,0
1,note_on,74,81,0
1,note_on,74,0,241
1,note_on,67,0,0
1,note_on,65,0,0
1,note_on,65,68,239
1,note_on,67,68,0
1,note_on,74,81,0
1,note_on,74,0,241
1,note_on,67,0,0
1,note_on,65,0,0
1,note_on,63,68,239
1,note_on,67,68,0
1,note_on,72,80,0
1,note_on,72,0,241
1,note_on,67,0,0
1,note_on,63,0,0
1,note_on,65,69,119
1,note_on,67,69,0
1,note_on,74,82,0
1,note_on,74,0,60
1,note_on,67,0,0
1,note_on,65,0,0
1,note_on,67,78,60
1,note_on,75,92,0
1,note_on,75,0,840
1,note_on,67,0,0
1,note_on,65,64,0
1,note_on,67,64,0
1,note_on,74,77,0
1,note_on,74,0,120
1,note_on,67,0,0
1,note_on,65,0,0
1,note_on,63,57,0
1,note_on,67,57,0
1,note_on,72,68,0
1,note_on,72,0,240
1,note_on,67,0,0
1,note_on,63,0,0
1,note_on,65,72,240
1,note_on,68,72,0
1,note_on,74,85,0
1,note_on,74,0,241
1,note_on,68,0,0
1,note_on,65,0,0
1,note_on,63,61,119
1,note_on,68,61,0
1,note_on,72,73,0
1,note_on,72,0,60
1,note_on,68,0,0
1,note_on,63,0,0
1,note_on,62,68,60
1,note_on,67,68,0
1,note_on,71,80,0
1,note_on,71,0,240
1,note_on,67,0,0
1,note_on,62,0,0
1,note_on,60,64,240
1,note_on,67,64,0
1,note_on,69,77,0
1,note_on,69,0,241
1,note_on,67,0,0
1,note_on,60,0,0
1,note_on,62,52,119
1,note_on,67,52,0
1,note_on,71,62,0
1,note_on,71,0,60
1,note_on,67,0,0
1,note_on,62,0,0
1,note_on,63,70,60
1,note_on,67,70,0
1,note_on,72,83,0
1,note_on,72,0,240
1,note_on,67,0,0
1,note_on,63,0,0
1,note_on,67,78,240
1,note_on,75,92,0
1,note_on,75,0,241
1,note_on,67,0,0
1,note_on,65,64,119
1,note_on,67,64,0
1,note_on,74,77,0
1,note_on,74,0,60
1,note_on,67,0,0
1,note_on,65,0,0
1,note_on,63,74,60
1,note_on,67,74,0
1,note_on,72,89,0
1,note_on,72,0,1440
1,note_on,67,0,0
1,note_on,63,0,0
1,note_on,74,55,0
1,note_on,74,0,360
1,note_on,75,47,0
1,note_on,75,0,120
1,note_on,77,64,0
1,note_on,77,0,338
1,note_on,71,44,142
1,note_on,68,44,0
1,note_on,74,44,0
1,note_on,77,52,0
1,note_on,77,0,338
1,note_on,71,0,22
1,note_on,68,0,0
1,note_on,74,0,0
1,note_on,68,44,120
1,note_on,70,44,0
1,note_on,77,52,0
1,note_on,77,0,338
1,note_on,70,0,22
1,note_on,68,0,0
1,note_on,70,39,120
1,note_on,68,39,0
1,note_on,75,47,0
1,note_on,75,0,60
1,note_on,77,47,0
1,note_on,77,0,60
1,note_on,75,70,0
1,note_on,75,0,240
1,note_on,74,58,0
1,note_on,74,0,120
1,note_on,68,0,0
1,note_on,70,0,0
1,note_on,70,56,0
1,note_on,67,56,0
1,note_on,79,66,0
1,note_on,67,0,480
1,note_on,70,0,0
1,note_on,74,44,0
1,note_on,68,36,0
1,note_on,79,0,360
1,note_on,77,55,0
1,note_on,77,0,120
1,note_on,68,0,0
1,note_on,74,0,0
1,note_on,67,56,0
1,note_on,75,48,0
1,note_on,75,0,480
1,note_on,67,0,0
1,note_on,65,53,0
1,note_on,68,46,0
1,note_on,74,63,0
1,note_on,74,0,360
1,note_on,65,0,0
1,note_on,63,46,0
1,note_on,72,54,0
1,note_on,72,0,120
1,note_on,63,0,0
1,note_on,68,0,0
1,note_on,62,50,0
1,note_on,67,50,0
1,note_on,71,59,0
1,note_on,71,0,480
1,note_on,67,0,0
1,note_on,62,0,0
1,note_on,60,52,0
1,note_on,67,52,0
1,note_on,69,61,0
1,note_on,69,0,360
1,note_on,67,0,0
1,note_on,60,0,0
1,note_on,62,42,0
1,note_on,67,42,0
1,note_on,71,50,0
1,note_on,71,0,120
1,note_on,67,0,0
1,note_on,62,0,0
1,note_on,63,57,0
1,note_on,67,57,0
1,note_on,72,68,0
1,note_on,72,0,480
1,note_on,67,0,0
1,note_on,63,0,0
1,note_on,67,59,0
1,note_on,77,78,0
1,note_on,77,0,360
1,note_on,67,0,0
1,note_on,67,60,0
1,note_on,75,71,0
1,note_on,75,0,120
1,note_on,67,0,0
1,note_on,67,71,0
1,note_on,74,84,0
1,note_on,74,0,1440
1,note_on,67,0,0
1,note_on,65,70,0
1,note_on,70,70,0
1,note_on,74,83,0
1,note_on,74,0,241
1,note_on,70,0,0
1,note_on,65,0,0
1,note_on,67,67,119
1,note_on,70,67,0
1,note_on,75,79,0
1,note_on,75,0,60
1,note_on,70,0,0
1,note_on,67,0,0
1,note_on,68,64,60
1,note_on,70,81,0
1,note_on,77,96,0
1,note_on,77,0,241
1,note_on,70,0,0
1,note_on,68,0,0
1,note_on,68,60,239
1,note_on,70,75,0
1,note_on,77,88,0
1,note_on,77,0,241
1,note_on,70,0,0
1,note_on,68,0,0
1,note_on,68,60,239
1,note_on,70,75,0
1,note_on,77,88,0
1,note_on,77,0,241
1,note_on,70,0,0
1,note_on,68,0,0
1,note_on,67,58,239
1,note_on,70,73,0
1,note_on,75,86,0
1,note_on,75,0,241
1,note_on,70,0,0
1,note_on,67,0,0
1,note_on,65,60,119
1,note_on,70,76,0
1,note_on,74,89,0
1,note_on,74,0,60
1,note_on,70,0,0
1,note_on,65,0,0
1,note_on,70,84,60
1,note_on,79,99,0
1,note_on,79,0,840
1,note_on,70,0,0
1,note_on,68,70,0
1,note_on,70,70,0
1,note_on,77,83,0
1,note_on,77,0,120
1,note_on,70,0,0
1,note_on,68,0,0
1,note_on,67,62,0
1,note_on,70,62,0
1,note_on,75,74,0
1,note_on,75,0,240
1,note_on,70,0,0
1,note_on,67,0,0
1,note_on,65,77,240
1,note_on,68,77,0
1,note_on,74,92,0
1,note_on,74,0,241
1,note_on,68,0,0
1,note_on,65,0,0
1,note_on,63,67,119
1,note_on,68,67,0
1,note_on,72,79,0
1,note_on,72,0,60
1,note_on,68,0,0
1,note_on,63,0,0
1,note_on,62,73,60
1,note_on,67,73,0
1,note_on,71,86,0
1,note_on,71,0,240
1,note_on,67,0,0
1,note_on,62,0,0
1,note_on,60,70,240
1,note_on,67,70,0
1,note_on,69,83,0
1,note_on,69,0,241
1,note_on,67,0,0
1,note_on,60,0,0
1,note_on,62,57,119
1,note_on,67,57,0
1,note_on,71,67,0
1,note_on,71,0,60
1,note_on,67,0,0
1,note_on,62,0,0
1,note_on,63,76,60
1,note_on,67,76,0
1,note_on,72,90,0
1,note_on,72,0,240
1,note_on,67,0,0
1,note_on,63,0,0
1,note_on,67,84,240
1,note_on,75,99,0
1,note_on,75,0,241
1,note_on,67,0,0
1,note_on,65,70,119
1,note_on,67,70,0
1,note_on,74,83,0
1,note_on,74,0,60
1,note_on,67,0,0
1,note_on,65,0,0
1,note_on,63,81,60
1,note_on,67,81,0
1,note_on,72,96,0
1,note_on,72,0,1440
1,note_on,67,0,0
1,note_on,63,0,0
1,note_on,75,78,0
1,note_on,75,0,360
1,note_on,74,70,0
1,note_on,74,0,120
1,note_on,63,71,0
1,note_on,68,71,0
1,note_on,72,83,0
1,note_on,72,0,1440
1,note_on,68,0,0
1,note_on,63,0,0
1,note_on,72,69,0
1,note_on,72,0,60
1,note_on,75,78,0
1,note_on,75,0,300
1,note_on,74,70,0
1,note_on,74,0,120
1,note_on,67,71,0
1,note_on,72,83,0
1,note_on,72,0,1440
1,note_on,67,0,0
1,note_on,74,78,0
1,note_on,74,0,360
1,note_on,75,67,0
1,note_on,75,0,120
1,note_on,68,62,0
1,note_on,72,62,0
1,note_on,77,73,0
1,note_on,77,0,480
1,note_on,72,0,0
1,note_on,68,0,0
1,note_on,67,59,0
1,note_on,72,59,0
1,note_on,75,70,0
1,note_on,75,0,241
1,note_on,72,0,0
1,note_on,67,0,0
1,note_on,65,48,119
1,note_on,74,57,0
1,note_on,74,0,60
1,note_on,65,0,0
1,note_on,63,64,60
1,note_on,72,76,0
1,note_on,72,0,480
1,note_on,63,0,0
1,note_on,67,60,0
1,note_on,62,60,0
1,note_on,71,71,0
1,note_on,67,0,480
1,note_on,63,57,0
1,note_on,67,57,0
1,note_on,72,68,0
1,note_on,71,0,2
1,note_on,62,0,0
1,note_on,67,0,1438
1,note_on,63,0,0
1,note_on,72,0,0
1,note_on,75,60,0
1,note_on,75,0,360
1,note_on,74,54,0
1,note_on,74,0,120
1,note_on,63,55,0
1,note_on,68,55,0
1,note_on,72,65,0
1,note_on,72,0,1440
1,note_on,68,0,0
1,note_on,63,0,0
1,note_on,75,59,0
1,note_on,75,0,360
1,note_on,74,52,0
1,note_on,74,0,120
1,note_on,67,51,0
1,note_on,72,61,0
1,note_on,72,0,1440
1,note_on,67,0,0
1,note_on,73,54,0
1,note_on,73,0,360
1,note_on,75,46,0
1,note_on,75,0,120
1,note_on,73,40,0
1,note_on,68,40,0
1,note_on,73,0,60
1,note_on,75,43,0
1,note_on,75,0,60
1,note_on,77,51,0
1,note_on,77,0,360
1,note_on,68,0,0
1,note_on,68,41,0
1,note_on,75,49,0
1,note_on,75,0,241
1,note_on,68,0,0
1,note_on,68,33,119
1,note_on,73,39,0
1,note_on,73,0,60
1,note_on,68,0,0
1,note_on,68,44,60
1,note_on,72,53,0
1,note_on,72,0,240
1,note_on,68,0,0
1,note_on,63,37,240
1,note_on,67,37,0
1,note_on,61,37,0
1,note_on,70,44,0
1,note_on,67,0,240
1,note_on,63,0,0
1,note_on,61,0,1
1,note_on,70,0,0
1,note_on,60,39,239
1,note_on,63,39,0
1,note_on,68,47,0
1,note_on,68,0,960
1,note_on,63,0,0
1,note_on,60,0,0
1,note_on,68,53,480
1,note_on,68,0,360
1,note_on,72,47,0
1,note_on,72,0,120
1,note_on,75,57,0
1,note_on,75,0,360
1,note_on,75,51,120
1,note_on,75,0,360
1,note_on,75,53,120
1,note_on,75,0,360
1,note_on,75,52,120
1,note_on,75,0,360
1,note_on,77,58,120
1,note_on,77,0,960
1,note_on,75,55,0
1,note_on,75,0,960
1,note_on,73,58,0
1,note_on,73,0,960
1,note_on,72,52,0
1,note_on,72,0,960
1,note_on,70,40,0
1,note_on,70,0,480
1,note_on,73,34,0
1,note_on,73,0,480
1,note_on,72,40,0
1,note_on,72,0,480
1,note_on,70,37,0
1,note_on,70,0,480
1,note_on,68,48,0
1,note_on,68,0,960
1,note_on,68,53,480
1,note_on,68,0,360
1,note_on,72,47,0
1,note_on,72,0,120
1,note_on,75,57,0
1,note_on,75,0,338
1,note_on,63,42,142
1,note_on,75,51,0
1,note_on,75,0,360
1,note_on,63,0,0
1,note_on,63,45,120
1,note_on,75,53,0
1,note_on,75,0,360
1,note_on,63,0,0
1,note_on,63,44,120
1,note_on,75,52,0
1,note_on,75,0,360
1,note_on,63,0,0
1,note_on,64,49,120
1,note_on,76,58,0
1,note_on,76,0,960
1,note_on,64,0,0
1,note_on,63,46,0
1,note_on,75,55,0
1,note_on,75,0,960
1,note_on,63,0,0
1,note_on,73,58,0
1,note_on,73,0,960
1,note_on,71,52,0
1,note_on,71,0,720
1,note_on,70,45,0
1,note_on,70,0,240
1,note_on,68,40,0
1,note_on,68,0,480
1,note_on,68,33,0
1,note_on,68,0,60
1,note_on,76,52,0
1,note_on,76,0,420
1,note_on,75,46,0
1,note_on,75,0,480
1,note_on,73,42,0
1,note_on,73,0,480
1,note_on,71,48,0
1,note_on,71,0,1440
1,note_on,71,57,0
1,note_on,71,0,360
1,note_on,75,50,0
1,note_on,75,0,120
1,note_on,66,46,0
1,note_on,78,62,0
1,note_on,78,0,479
1,note_on,66,0,0
1,note_on,66,48,1
1,note_on,78,59,0
1,note_on,78,0,479
1,note_on,66,0,0
1,note_on,67,57,1
1,note_on,79,67,0
1,note_on,79,0,479
1,note_on,67,0,0
1,note_on,68,59,1
1,note_on,80,71,0
1,note_on,80,0,479
1,note_on,68,0,0
1,note_on,70,64,1
1,note_on,82,79,0
1,note_on,82,0,479
1,note_on,70,0,0
1,note_on,73,64,1
1,note_on,85,77,0
1,note_on,85,0,479
1,note_on,73,0,0
1,note_on,71,62,1
1,note_on,83,74,0
1,note_on,83,0,479
1,note_on,71,0,0
1,note_on,70,49,1
1,note_on,82,58,0
1,note_on,82,0,360
1,note_on,70,0,0
1,note_on,68,42,0
1,note_on,80,51,0
1,note_on,80,0,120
1,note_on,68,0,0
1,note_on,67,49,0
1,note_on,79,58,0
1,note_on,79,0,480
1,note_on,67,0,0
1,note_on,67,46,0
1,note_on,79,55,0
1,note_on,79,0,480
1,note_on,67,0,0
1,note_on,68,45,0
1,note_on,80,53,0
1,note_on,80,0,240
1,note_on,68,0,0
1,note_on,67,37,0
1,note_on,79,45,0
1,note_on,79,0,240
1,note_on,67,0,0
1,note_on,65,38,0
1,note_on,77,46,0
1,note_on,77,0,240
1,note_on,65,0,0
1,note_on,67,37,0
1,note_on,79,45,0
1,note_on,79,0,240
1,note_on,67,0,0
1,note_on,68,40,0
1,note_on,80,48,0
1,note_on,80,0,1440
1,note_on,68,0,0
1,note_on,80,57,0
1,note_on,80,0,360
1,note_on,84,50,0
1,note_on,84,0,120
1,note_on,75,57,0
1,note_on,87,68,0
1,note_on,87,0,360
1,note_on,75,0,0
1,note_on,75,52,120
1,note_on,87,62,0
1,note_on,87,0,360
1,note_on,75,0,0
1,note_on,75,56,120
1,note_on,87,67,0
1,note_on,87,0,360
1,note_on,75,0,0
1,note_on,75,60,120
1,note_on,87,71,0
1,note_on,87,0,360
1,note_on,75,0,0
1,note_on,77,58,120
1,note_on,89,69,0
1,note_on,89,0,479
1,note_on,77,0,0
1,note_on,79,57,1
1,note_on,91,72,0
1,note_on,91,0,479
1,note_on,79,0,0
1,note_on,80,58,1
1,note_on,92,69,0
1,note_on,92,0,479
1,note_on,80,0,0
1,note_on,75,51,1
1,note_on,87,61,0
1,note_on,87,0,360
1,note_on,75,0,0
1,note_on,75,56,120
1,note_on,87,66,0
1,note_on,87,0,480
1,note_on,75,0,0
1,note_on,73,45,0
1,note_on,85,54,0
1,note_on,85,0,240
1,note_on,73,0,0
1,note_on,73,52,240
1,note_on,85,62,0
1,note_on,85,0,480
1,note_on,73,0,0
1,note_on,72,46,0
1,note_on,84,55,0
1,note_on,84,0,240
1,note_on,72,0,0
1,note_on,82,56,240
1,note_on,82,0,480
1,note_on,85,50,0
1,note_on,85,0,480
1,note_on,84,57,0
1,note_on,84,0,480
1,note_on,82,49,0
1,note_on,82,0,480
1,note_on,80,53,0
1,note_on,80,0,160
1,note_on,63,48,0
1,note_on,63,0,160
1,note_on,68,48,0
1,note_on,68,0,160
1,note_on,72,59,0
1,note_on,72,0,160
1,note_on,68,48,0
1,note_on,68,0,160
1,note_on,63,49,0
1,note_on,63,0,160
1,note_on,75,59,0
1,note_on,75,0,160
1,note_on,72,53,0
1,note_on,72,0,160
1,note_on,68,54,0
1,note_on,68,0,160
1,note_on,68,59,0
1,note_on,68,0,160
1,note_on,72,53,0
1,note_on,72,0,160
1,note_on,75,53,0
1,note_on,75,0,160
1,note_on,75,59,0
1,note_on,75,0,160
1,note_on,70,53,0
1,note_on,70,0,160
1,note_on,67,53,0
1,note_on,67,0,160
1,note_on,75,59,0
1,note_on,75,0,160
1,note_on,70,52,0
1,note_on,70,0,160
1,note_on,67,52,0
1,note_on,67,0,160
1,note_on,75,59,0
1,note_on,75,0,160
1,note_on,72,51,0
1,note_on,72,0,160
1,note_on,68,51,0
1,note_on,68,0,160
1,note_on,70,62,0
1,note_on,70,0,160
1,note_on,75,55,0
1,note_on,75,0,160
1,note_on,79,57,0
1,note_on,79,0,160
1,note_on,80,66,0
1,note_on,80,0,160
1,note_on,75,59,0
1,note_on,75,0,160
1,note_on,68,59,0
1,note_on,68,0,160
1,note_on,80,67,0
1,note_on,80,0,160
1,note_on,74,59,0
1,note_on,74,0,160
1,note_on,68,59,0
1,note_on,68,0,160
1,note_on,80,65,0
1,note_on,80,0,160
1,note_on,75,54,0
1,note_on,75,0,160
1,note_on,70,54,0
1,note_on,70,0,150
1,note_on,70,61,10
1,note_on,70,0,160
1,note_on,75,52,0
1,note_on,75,0,160
1,note_on,79,52,0
1,note_on,79,0,160
1,note_on,77,59,0
1,note_on,77,0,160
1,note_on,70,51,0
1,note_on,70,0,160
1,note_on,67,52,0
1,note_on,67,0,160
1,note_on,77,59,0
1,note_on,77,0,160
1,note_on,71,53,0
1,note_on,71,0,160
1,note_on,67,53,0
1,note_on,67,0,160
1,note_on,77,57,0
1,note_on,77,0,160
1,note_on,72,51,0
1,note_on,72,0,160
1,note_on,68,51,0
1,note_on,68,0,150
1,note_on,68,59,10
1,note_on,68,0,160
1,note_on,72,52,0
1,note_on,72,0,160
1,note_on,75,52,0
1,note_on,75,0,160
1,note_on,61,59,0
1,note_on,61,0,160
1,note_on,68,54,0
1,note_on,68,0,160
1,note_on,73,54,0
1,note_on,73,0,160
1,note_on,65,59,0
1,note_on,65,0,160
1,note_on,68,55,0
1,note_on,68,0,160
1,note_on,70,56,0
1,note_on,70,0,160
1,note_on,63,59,0
1,note_on,63,0,160
1,note_on,68,54,0
1,note_on,68,0,160
1,note_on,72,54,0
1,note_on,72,0,160
1,note_on,63,59,0
1,note_on,67,70,0
1,note_on,75,63,160
1,note_on,75,0,160
1,note_on,73,67,0
1,note_on,73,0,160
1,note_on,67,0,0
1,note_on,63,0,0
1,note_on,63,60,0
1,note_on,68,60,0
1,note_on,72,71,0
1,note_on,72,0,160
1,note_on,68,0,0
1,note_on,63,0,0
1,note_on,63,59,0
1,note_on,63,0,160
1,note_on,68,59,0
1,note_on,68,0,160
1,note_on,72,67,0
1,note_on,72,0,160
1,note_on,68,56,0
1,note_on,68,0,160
1,note_on,63,56,0
1,note_on,63,0,160
1,note_on,75,66,0
1,note_on,75,0,160
1,note_on,72,57,0
1,note_on,72,0,160
1,note_on,68,57,0
1,note_on,68,0,150
1,note_on,68,68,10
1,note_on,68,0,160
1,note_on,72,60,0
1,note_on,72,0,160
1,note_on,75,60,0
1,note_on,75,0,160
1,note_on,75,69,0
1,note_on,75,0,160
1,note_on,70,59,0
1,note_on,70,0,160
1,note_on,67,59,0
1,note_on,67,0,160
1,note_on,75,70,0
1,note_on,75,0,160
1,note_on,70,57,0
1,note_on,70,0,160
1,note_on,67,57,0
1,note_on,67,0,160
1,note_on,75,71,0
1,note_on,75,0,160
1,note_on,71,61,0
1,note_on,71,0,160
1,note_on,68,59,0
1,note_on,68,0,160
1,note_on,70,68,0
1,note_on,70,0,160
1,note_on,75,62,0
1,note_on,75,0,160
1,note_on,79,63,0
1,note_on,79,0,160
1,note_on,80,68,0
1,note_on,80,0,160
1,note_on,75,58,0
1,note_on,75,0,160
1,note_on,68,58,0
1,note_on,68,0,160
1,note_on,80,67,0
1,note_on,80,0,160
1,note_on,73,59,0
1,note_on,73,0,160
1,note_on,70,59,0
1,note_on,70,0,160
1,note_on,80,67,0
1,note_on,80,0,160
1,note_on,75,57,0
1,note_on,75,0,160
1,note_on,71,57,0
1,note_on,71,0,150
1,note_on,71,65,10
1,note_on,71,0,160
1,note_on,75,57,0
1,note_on,75,0,160
1,note_on,78,57,0
1,note_on,78,0,160
1,note_on,76,65,0
1,note_on,76,0,160
1,note_on,71,55,0
1,note_on,71,0,160
1,note_on,67,55,0
1,note_on,67,0,160
1,note_on,76,62,0
1,note_on,76,0,160
1,note_on,70,53,0
1,note_on,70,0,160
1,note_on,67,53,0
1,note_on,67,0,160
1,note_on,76,64,0
1,note_on,76,0,160
1,note_on,71,55,0
1,note_on,71,0,160
1,note_on,68,55,0
1,note_on,68,0,150
1,note_on,68,65,10
1,note_on,68,0,160
1,note_on,71,56,0
1,note_on,71,0,160
1,note_on,75,56,0
1,note_on,75,0,160
1,note_on,68,66,0
1,note_on,68,0,160
1,note_on,71,59,0
1,note_on,71,0,160
1,note_on,73,57,0
1,note_on,73,0,160
1,note_on,68,67,0
1,note_on,68,0,160
1,note_on,71,56,0
1,note_on,71,0,160
1,note_on,76,56,0
1,note_on,76,0,160
1,note_on,66,66,0
1,note_on,66,0,160
1,note_on,71,56,0
1,note_on,71,0,160
1,note_on,75,56,0
1,note_on,75,0,160
1,note_on,66,56,0
1,note_on,70,67,0
1,note_on,78,57,160
1,note_on,78,0,160
1,note_on,76,57,0
1,note_on,76,0,160
1,note_on,70,0,0
1,note_on,66,0,0
1,note_on,66,53,0
1,note_on,71,53,0
1,note_on,75,53,0
1,note_on,75,0,160
1,note_on,71,0,0
1,note_on,66,0,0
1,note_on,63,48,0
1,note_on,63,0,160
1,note_on,66,48,0
1,note_on,66,0,160
1,note_on,71,59,0
1,note_on,71,0,160
1,note_on,66,48,0
1,note_on,66,0,160
1,note_on,63,49,0
1,note_on,63,0,160
1,note_on,75,59,0
1,note_on,75,0,160
1,note_on,71,53,0
1,note_on,71,0,160
1,note_on,66,54,0
1,note_on,66,0,160
1,note_on,71,59,0
1,note_on,71,0,160
1,note_on,75,53,0
1,note_on,75,0,160
1,note_on,78,53,0
1,note_on,78,0,160
1,note_on,66,46,0
1,note_on,78,62,0
1,note_on,78,0,360
1,note_on,66,0,0
1,note_on,66,48,120
1,note_on,78,59,0
1,note_on,78,0,479
1,note_on,66,0,0
1,note_on,67,57,1
1,note_on,79,67,0
1,note_on,79,0,479
1,note_on,67,0,0
1,note_on,68,60,1
1,note_on,80,72,0
1,note_on,80,0,479
1,note_on,68,0,0
1,note_on,70,64,1
1,note_on,82,79,0
1,note_on,82,0,479
1,note_on,70,0,0
1,note_on,73,64,1
1,note_on,85,77,0
1,note_on,85,0,479
1,note_on,73,0,0
1,note_on,71,62,1
1,note_on,83,74,0
1,note_on,83,0,479
1,note_on,71,0,0
1,note_on,70,49,1
1,note_on,82,58,0
1,note_on,82,0,360
1,note_on,70,0,0
1,note_on,68,42,0
1,note_on,80,51,0
1,note_on,80,0,120
1,note_on,68,0,0
1,note_on,67,49,0
1,note_on,79,58,0
1,note_on,79,0,480
1,note_on,67,0,0
1,note_on,67,46,0
1,note_on,79,55,0
1,note_on,79,0,480
1,note_on,67,0,0
1,note_on,68,45,0
1,note_on,80,53,0
1,note_on,80,0,240
1,note_on,68,0,0
1,note_on,67,37,0
1,note_on,79,45,0
1,note_on,79,0,240
1,note_on,67,0,0
1,note_on,65,38,0
1,note_on,77,46,0
1,note_on,77,0,240
1,note_on,65,0,0
1,note_on,67,37,0
1,note_on,79,45,0
1,note_on,79,0,240
1,note_on,67,0,0
1,note_on,68,40,0
1,note_on,80,48,0
1,note_on,80,0,960
1,note_on,68,0,0
1,note_on,73,53,0
1,note_on,72,53,240
1,note_on,73,0,12
1,note_on,71,53,228
1,note_on,72,0,12
1,note_on,72,53,228
1,note_on,71,0,12
1,note_on,72,0,228
1,note_on,72,48,0
1,note_on,72,0,120
1,note_on,77,48,0
1,note_on,77,0,840
1,note_on,72,53,0
1,note_on,70,53,240
1,note_on,72,0,12
1,note_on,69,53,228
1,note_on,70,0,12
1,note_on,70,53,228
1,note_on,69,0,12
1,note_on,70,0,228
1,note_on,70,48,0
1,note_on,70,0,120
1,note_on,75,48,0
1,note_on,75,0,840
1,note_on,73,58,0
1,note_on,72,60,240
1,note_on,73,0,12
1,note_on,70,63,228
1,note_on,72,0,12
1,note_on,68,66,228
1,note_on,70,0,12
1,note_on,68,0,228
1,note_on,67,57,0
1,note_on,75,68,0
1,note_on,75,0,240
1,note_on,67,0,0
1,note_on,65,56,0
1,note_on,73,66,0
1,note_on,73,0,240
1,note_on,65,0,0
1,note_on,63,53,0
1,note_on,72,63,0
1,note_on,72,0,240
1,note_on,63,0,0
1,note_on,61,51,0
1,note_on,70,60,0
1,note_on,70,0,240
1,note_on,61,0,0
1,note_on,60,49,0
1,note_on,68,58,0
1,note_on,68,0,480
1,note_on,60,0,0
1,note_on,63,55,0
1,note_on,72,55,0
1,note_on,72,0,360
1,note_on,63,0,0
1,note_on,61,54,0
1,note_on,70,54,0
1,note_on,70,0,120
1,note_on,61,0,0
1,note_on,60,40,0
1,note_on,68,48,0
1,note_on,68,0,480
1,note_on,60,0,0
1,note_on,73,53,480
1,note_on,72,53,240
1,note_on,73,0,12
1,note_on,71,53,228
1,note_on,72,0,12
1,note_on,72,53,228
1,note_on,71,0,12
1,note_on,72,0,228
1,note_on,84,53,0
1,note_on,77,48,0
1,note_on,82,53,240
1,note_on,84,0,12
1,note_on,81,53,228
1,note_on,82,0,12
1,note_on,82,53,228
1,note_on,81,0,12
1,note_on,82,0,228
1,note_on,77,0,0
1,note_on,72,53,0
1,note_on,70,53,240
1,note_on,72,0,12
1,note_on,69,53,228
1,note_on,70,0,12
1,note_on,70,53,228
1,note_on,69,0,12
1,note_on,70,0,228
1,note_on,82,58,0
1,note_on,75,48,0
1,note_on,82,0,240
1,note_on,80,60,0
1,note_on,80,0,240
1,note_on,79,63,0
1,note_on,79,0,240
1,note_on,80,66,0
1,note_on,80,0,240
1,note_on,75,0,0
1,note_on,73,58,0
1,note_on,72,60,240
1,note_on,73,0,12
1,note_on,70,63,228
1,note_on,72,0,12
1,note_on,68,66,228
1,note_on,70,0,12
1,note_on,68,0,228
1,note_on,75,57,0
1,note_on,67,57,0
1,note_on,79,68,0
1,note_on,79,0,240
1,note_on,67,0,0
1,note_on,75,0,0
1,note_on,73,56,0
1,note_on,65,56,0
1,note_on,77,66,0
1,note_on,77,0,240
1,note_on,65,0,0
1,note_on,73,0,0
1,note_on,72,53,0
1,note_on,63,53,0
1,note_on,75,63,0
1,note_on,75,0,240
1,note_on,63,0,0
1,note_on,72,0,0
1,note_on,70,51,0
1,note_on,61,51,0
1,note_on,73,60,0
1,note_on,73,0,240
1,note_on,61,0,0
1,note_on,70,0,0
1,note_on,72,58,0
1,note_on,60,49,0
1,note_on,68,49,0
1,note_on,68,0,480
1,note_on,60,0,0
1,note_on,72,0,0
1,note_on,61,46,0
1,note_on,67,46,0
1,note_on,73,55,0
1,note_on,73,0,360
1,note_on,70,54,0
1,note_on,70,0,120
1,note_on,67,0,0
1,note_on,61,0,0
1,note_on,56,40,0
1,note_on,63,40,0
1,note_on,60,40,0
1,note_on,68,48,0
1,note_on,68,0,1440
1,note_on,56,0,0
1,note_on,63,0,0
1,note_on,60,0,0
1,note_on,60,40,0
1,note_on,60,0,360
1,note_on,63,37,0
1,note_on,63,0,120
1,note_on,56,37,0
1,note_on,68,44,0
1,note_on,68,0,360
1,note_on,56,0,0
1,note_on,56,34,120
1,note_on,68,40,0
1,note_on,68,0,360
1,note_on,56,0,0
1,note_on,56,34,120
1,note_on,68,40,0
1,note_on,68,0,360
1,note_on,56,0,0
1,note_on,56,34,120
1,note_on,68,40,0
1,note_on,68,0,360
1,note_on,56,0,0
1,note_on,55,40,120
1,note_on,67,48,0
1,note_on,67,0,1440
1,note_on,55,0,0
1,note_on,60,40,0
1,note_on,60,0,360
1,note_on,63,37,0
1,note_on,63,0,120
1,note_on,55,37,0
1,note_on,67,44,0
1,note_on,67,0,360
1,note_on,55,0,0
1,note_on,67,43,120
1,note_on,55,37,0
1,note_on,55,0,360
1,note_on,67,0,0
1,note_on,55,42,120
1,note_on,67,50,0
1,note_on,67,0,360
1,note_on,55,0,0
1,note_on,55,47,120
1,note_on,67,56,0
1,note_on,67,0,360
1,note_on,55,0,0
1,note_on,53,60,120
1,note_on,65,73,0
1,note_on,65,0,960
1,note_on,53,0,0
1,note_on,54,60,0
1,note_on,66,73,0
1,note_on,66,0,960
1,note_on,54,0,0
1,note_on,67,39,0
1,note_on,55,39,0
1,note_on,55,0,120
1,note_on,67,0,0
1,note_on,55,22,40
1,note_on,67,27,0
1,note_on,67,0,120
1,note_on,55,0,0
1,note_on,55,22,40
1,note_on,67,27,0
1,note_on,67,0,120
1,note_on,55,0,0
1,note_on,55,25,40
1,note_on,67,30,0
1,note_on,67,0,120
1,note_on,55,0,0
1,note_on,55,25,40
1,note_on,67,30,0
1,note_on,67,0,120
1,note_on,55,0,0
1,note_on,55,25,40
1,note_on,67,30,0
1,note_on,67,0,120
1,note_on,55,0,0
1,note_on,55,32,40
1,note_on,67,38,0
1,note_on,67,0,120
1,note_on,55,0,0
1,note_on,55,24,40
1,note_on,67,28,0
1,note_on,67,0,120
1,note_on,55,0,0
1,note_on,55,25,40
1,note_on,67,30,0
1,note_on,67,0,120
1,note_on,55,0,0
1,note_on,55,33,40
1,note_on,67,39,0
1,note_on,67,0,120
1,note_on,55,0,0
1,note_on,55,25,40
1,note_on,67,30,0
1,note_on,67,0,120
1,note_on,55,0,0
1,note_on,55,25,40
1,note_on,67,30,0
1,note_on,67,0,120
1,note_on,55,0,0
1,note_on,67,39,40
1,note_on,55,39,0
1,note_on,55,0,120
1,note_on,67,0,0
1,note_on,55,22,40
1,note_on,67,27,0
1,note_on,67,0,120
1,note_on,55,0,0
1,note_on,55,22,40
1,note_on,67,27,0
1,note_on,67,0,120
1,note_on,55,0,0
1,note_on,55,25,40
1,note_on,67,30,0
1,note_on,67,0,120
1,note_on,55,0,0
1,note_on,55,25,40
1,note_on,67,30,0
1,note_on,67,0,120
1,note_on,55,0,0
1,note_on,55,25,40
1,note_on,67,30,0
1,note_on,67,0,120
1,note_on,55,0,0
1,note_on,55,32,40
1,note_on,67,38,0
1,note_on,67,0,120
1,note_on,55,0,0
1,note_on,55,24,40
1,note_on,67,28,0
1,note_on,67,0,120
1,note_on,55,0,0
1,note_on,55,25,40
1,note_on,67,30,0
1,note_on,67,0,120
1,note_on,55,0,0
1,note_on,55,33,40
1,note_on,67,39,0
1,note_on,67,0,120
1,note_on,55,0,0
1,note_on,55,25,40
1,note_on,67,30,0
1,note_on,67,0,120
1,note_on,55,0,0
1,note_on,55,25,40
1,note_on,67,30,0
1,note_on,67,0,120
1,note_on,55,0,0
1,note_on,67,39,40
1,note_on,55,39,0
1,note_on,55,0,120
1,note_on,67,0,0
1,note_on,55,22,40
1,note_on,67,27,0
1,note_on,67,0,120
1,note_on,55,0,0
1,note_on,55,22,40
1,note_on,67,27,0
1,note_on,67,0,120
1,note_on,55,0,0
1,note_on,55,25,40
1,note_on,67,30,0
1,note_on,67,0,120
1,note_on,55,0,0
1,note_on,55,25,40
1,note_on,67,30,0
1,note_on,67,0,120
1,note_on,55,0,0
1,note_on,55,25,40
1,note_on,67,30,0
1,note_on,67,0,120
1,note_on,55,0,0
1,note_on,55,32,40
1,note_on,67,38,0
1,note_on,67,0,120
1,note_on,55,0,0
1,note_on,55,24,40
1,note_on,67,28,0
1,note_on,67,0,120
1,note_on,55,0,0
1,note_on,55,25,40
1,note_on,67,30,0
1,note_on,67,0,120
1,note_on,55,0,0
1,note_on,55,33,40
1,note_on,67,39,0
1,note_on,67,0,120
1,note_on,55,0,0
1,note_on,55,25,40
1,note_on,67,30,0
1,note_on,67,0,120
1,note_on,55,0,0
1,note_on,53,25,40
1,note_on,65,30,0
1,note_on,65,0,120
1,note_on,53,0,0
1,note_on,63,39,40
1,note_on,60,39,0
1,note_on,67,39,0
1,note_on,55,39,0
1,note_on,55,0,120
1,note_on,63,0,0
1,note_on,60,0,0
1,note_on,67,0,0
1,note_on,63,22,40
1,note_on,60,22,0
1,note_on,55,22,0
1,note_on,67,27,0
1,note_on,67,0,120
1,note_on,63,0,0
1,note_on,60,0,0
1,note_on,55,0,0
1,note_on,63,22,40
1,note_on,60,22,0
1,note_on,55,22,0
1,note_on,67,27,0
1,note_on,67,0,120
1,note_on,63,0,0
1,note_on,60,0,0
1,note_on,55,0,0
1,note_on,63,22,40
1,note_on,60,22,0
1,note_on,55,25,0
1,note_on,67,30,0
1,note_on,67,0,120
1,note_on,63,0,0
1,note_on,60,0,0
1,note_on,55,0,0
1,note_on,63,22,40
1,note_on,60,22,0
1,note_on,55,25,0
1,note_on,67,30,0
1,note_on,67,0,120
1,note_on,63,0,0
1,note_on,60,0,0
1,note_on,55,0,0
1,note_on,63,22,40
1,note_on,60,22,0
1,note_on,55,25,0
1,note_on,67,30,0
1,note_on,67,0,120
1,note_on,63,0,0
1,note_on,60,0,0
1,note_on,55,0,0
1,note_on,62,32,40
1,note_on,59,32,0
1,note_on,55,32,0
1,note_on,67,38,0
1,note_on,67,0,120
1,note_on,62,0,0
1,note_on,59,0,0
1,note_on,55,0,0
1,note_on,62,32,40
1,note_on,59,32,0
1,note_on,55,24,0
1,note_on,67,28,0
1,note_on,67,0,120
1,note_on,62,0,0
1,note_on,59,0,0
1,note_on,55,0,0
1,note_on,62,32,40
1,note_on,59,32,0
1,note_on,55,25,0
1,note_on,67,30,0
1,note_on,67,0,120
1,note_on,62,0,0
1,note_on,59,0,0
1,note_on,55,0,0
1,note_on,62,33,40
1,note_on,59,33,0
1,note_on,55,33,0
1,note_on,67,39,0
1,note_on,67,0,120
1,note_on,62,0,0
1,note_on,59,0,0
1,note_on,55,0,0
1,note_on,62,25,40
1,note_on,59,25,0
1,note_on,55,25,0
1,note_on,67,30,0
1,note_on,67,0,120
1,note_on,62,0,0
1,note_on,59,0,0
1,note_on,55,0,0
1,note_on,62,25,40
1,note_on,59,25,0
1,note_on,55,25,0
1,note_on,67,30,0
1,note_on,67,0,120
1,note_on,62,0,0
1,note_on,59,0,0
1,note_on,55,0,0
1,note_on,63,39,40
1,note_on,60,39,0
1,note_on,67,39,0
1,note_on,55,39,0
1,note_on,55,0,120
1,note_on,63,0,0
1,note_on,60,0,0
1,note_on,67,0,0
1,note_on,55,22,40
1,note_on,67,27,0
1,note_on,67,0,120
1,note_on,55,0,0
1,note_on,55,22,40
1,note_on,67,27,0
1,note_on,67,0,120
1,note_on,55,0,0
1,note_on,55,28,40
1,note_on,67,34,0
1,note_on,67,0,120
1,note_on,55,0,0
1,note_on,55,29,40
1,note_on,67,35,0
1,note_on,67,0,120
1,note_on,55,0,0
1,note_on,55,30,40
1,note_on,67,36,0
1,note_on,67,0,120
1,note_on,55,0,0
1,note_on,55,40,40
1,note_on,67,48,0
1,note_on,67,0,120
1,note_on,55,0,0
1,note_on,55,32,40
1,note_on,67,36,0
1,note_on,67,0,120
1,note_on,55,0,0
1,note_on,55,34,40
1,note_on,67,41,0
1,note_on,67,0,120
1,note_on,55,0,0
1,note_on,55,47,40
1,note_on,67,56,0
1,note_on,67,0,120
1,note_on,55,0,0
1,note_on,55,36,40
1,note_on,67,43,0
1,note_on,67,0,120
1,note_on,55,0,0
1,note_on,55,37,40
1,note_on,67,44,0
1,note_on,67,0,120
1,note_on,55,0,0
1,note_on,67,59,40
1,note_on,55,59,0
1,note_on,55,0,120
1,note_on,67,0,0
1,note_on,55,33,40
1,note_on,67,41,0
1,note_on,67,0,120
1,note_on,55,0,0
1,note_on,55,33,40
1,note_on,67,41,0
1,note_on,67,0,120
1,note_on,55,0,0
1,note_on,55,37,40
1,note_on,67,46,0
1,note_on,67,0,120
1,note_on,55,0,0
1,note_on,55,37,40
1,note_on,67,46,0
1,note_on,67,0,120
1,note_on,55,0,0
1,note_on,55,37,40
1,note_on,67,46,0
1,note_on,67,0,120
1,note_on,55,0,0
1,note_on,55,49,40
1,note_on,67,58,0
1,note_on,67,0,120
1,note_on,55,0,0
1,note_on,55,36,40
1,note_on,67,42,0
1,note_on,67,0,120
1,note_on,55,0,0
1,note_on,55,37,40
1,note_on,67,46,0
1,note_on,67,0,120
1,note_on,55,0,0
1,note_on,56,55,40
1,note_on,68,65,0
1,note_on,68,0,120
1,note_on,56,0,0
1,note_on,56,42,40
1,note_on,68,52,0
1,note_on,68,0,120
1,note_on,56,0,0
1,note_on,56,44,40
1,note_on,68,55,0
1,note_on,68,0,120
1,note_on,56,0,0
1,note_on,67,70,40
1,note_on,55,70,0
1,note_on,55,0,120
1,note_on,67,0,0
1,note_on,55,40,40
1,note_on,67,50,0
1,note_on,67,0,120
1,note_on,55,0,0
1,note_on,55,40,40
1,note_on,67,50,0
1,note_on,67,0,120
1,note_on,55,0,0
1,note_on,55,46,40
1,note_on,67,55,0
1,note_on,67,0,120
1,note_on,55,0,0
1,note_on,55,44,40
1,note_on,67,55,0
1,note_on,67,0,120
1,note_on,55,0,0
1,note_on,55,44,40
1,note_on,67,54,0
1,note_on,67,0,120
1,note_on,55,0,0
1,note_on,55,57,40
1,note_on,67,69,0
1,note_on,67,0,120
1,note_on,55,0,0
1,note_on,55,42,40
1,note_on,67,49,0
1,note_on,67,0,120
1,note_on,55,0,0
1,note_on,55,42,40
1,note_on,67,52,0
1,note_on,67,0,120
1,note_on,55,0,0
1,note_on,55,57,40
1,note_on,67,67,0
1,note_on,67,0,120
1,note_on,55,0,0
1,note_on,55,42,40
1,note_on,67,51,0
1,note_on,67,0,120
1,note_on,55,0,0
1,note_on,53,41,40
1,note_on,65,50,0
1,note_on,65,0,120
1,note_on,53,0,0
1,note_on,63,59,40
1,note_on,60,59,0
1,note_on,67,59,0
1,note_on,55,59,0
1,note_on,55,0,120
1,note_on,63,0,0
1,note_on,60,0,0
1,note_on,67,0,0
1,note_on,63,33,40
1,note_on,60,33,0
1,note_on,55,33,0
1,note_on,67,41,0
1,note_on,67,0,120
1,note_on,63,0,0
1,note_on,60,0,0
1,note_on,55,0,0
1,note_on,63,33,40
1,note_on,60,33,0
1,note_on,55,33,0
1,note_on,67,41,0
1,note_on,67,0,120
1,note_on,63,0,0
1,note_on,60,0,0
1,note_on,55,0,0
1,note_on,63,33,40
1,note_on,60,33,0
1,note_on,55,37,0
1,note_on,67,46,0
1,note_on,67,0,120
1,note_on,63,0,0
1,note_on,60,0,0
1,note_on,55,0,0
1,note_on,63,33,40
1,note_on,60,33,0
1,note_on,55,37,0
1,note_on,67,46,0
1,note_on,67,0,120
1,note_on,63,0,0
1,note_on,60,0,0
1,note_on,55,0,0
1,note_on,63,33,40
1,note_on,60,33,0
1,note_on,55,37,0
1,note_on,67,46,0
1,note_on,67,0,120
1,note_on,63,0,0
1,note_on,60,0,0
1,note_on,55,0,0
1,note_on,62,49,40
1,note_on,59,49,0
1,note_on,55,49,0
1,note_on,67,58,0
1,note_on,67,0,120
1,note_on,62,0,0
1,note_on,59,0,0
1,note_on,55,0,0
1,note_on,62,49,40
1,note_on,59,49,0
1,note_on,55,36,0
1,note_on,67,42,0
1,note_on,67,0,120
1,note_on,62,0,0
1,note_on,59,0,0
1,note_on,55,0,0
1,note_on,62,49,40
1,note_on,59,49,0
1,note_on,55,37,0
1,note_on,67,46,0
1,note_on,67,0,120
1,note_on,62,0,0
1,note_on,59,0,0
1,note_on,55,0,0
1,note_on,62,50,40
1,note_on,59,50,0
1,note_on,55,50,0
1,note_on,67,59,0
1,note_on,67,0,120
1,note_on,62,0,0
1,note_on,59,0,0
1,note_on,55,0,0
1,note_on,62,37,40
1,note_on,59,37,0
1,note_on,55,37,0
1,note_on,67,46,0
1,note_on,67,0,120
1,note_on,62,0,0
1,note_on,59,0,0
1,note_on,55,0,0
1,note_on,62,37,40
1,note_on,59,37,0
1,note_on,55,37,0
1,note_on,67,46,0
1,note_on,67,0,120
1,note_on,62,0,0
1,note_on,59,0,0
1,note_on,55,0,0
1,note_on,55,40,40
1,note_on,60,40,0
1,note_on,63,40,0
1,note_on,67,48,0
1,note_on,67,0,960
1,note_on,55,0,0
1,note_on,60,0,0
1,note_on,63,0,0
1,note_on,71,44,480
1,note_on,71,0,360
1,note_on,72,38,0
1,note_on,72,0,120
1,note_on,74,51,0
1,note_on,74,0,338
1,note_on,65,35,142
1,note_on,74,42,0
1,note_on,74,0,338
1,note_on,65,0,22
1,note_on,68,35,120
1,note_on,74,42,0
1,note_on,74,0,338
1,note_on,68,0,22
1,note_on,72,46,120
1,note_on,72,0,360
1,note_on,74,47,0
1,note_on,74,0,120
1,note_on,75,53,0
1,note_on,63,39,480
1,note_on,75,0,240
1,note_on,74,44,0
1,note_on,74,0,240
1,note_on,63,0,0
1,note_on,67,33,0
1,note_on,72,39,0
1,note_on,72,0,480
1,note_on,67,0,0
1,note_on,74,49,0
1,note_on,74,0,360
1,note_on,72,42,0
1,note_on,72,0,120
1,note_on,71,46,0
1,note_on,71,0,480
1,note_on,65,37,0
1,note_on,69,44,0
1,note_on,69,0,360
1,note_on,71,36,0
1,note_on,71,0,120
1,note_on,65,0,0
1,note_on,63,37,0
1,note_on,72,48,0
1,note_on,72,0,480
1,note_on,63,0,0
1,note_on,60,37,0
1,note_on,74,43,0
1,note_on,74,0,360
1,note_on,75,44,0
1,note_on,75,0,120
1,note_on,60,0,0
1,note_on,68,47,0
1,note_on,74,51,0
1,note_on,68,0,120
1,note_on,67,43,0
1,note_on,67,0,1320
1,note_on,74,0,0
1,note_on,59,52,0
1,note_on,67,52,0
1,note_on,71,62,0
1,note_on,71,0,360
1,note_on,67,0,0
1,note_on,59,0,0
1,note_on,60,50,0
1,note_on,69,50,0
1,note_on,72,60,0
1,note_on,72,0,120
1,note_on,69,0,0
1,note_on,60,0,0
1,note_on,62,61,0
1,note_on,71,61,0
1,note_on,74,73,0
1,note_on,74,0,480
1,note_on,71,0,0
1,note_on,62,0,0
1,note_on,62,55,0
1,note_on,71,55,0
1,note_on,74,66,0
1,note_on,74,0,480
1,note_on,71,0,0
1,note_on,62,0,0
1,note_on,62,55,0
1,note_on,71,55,0
1,note_on,74,66,0
1,note_on,74,0,480
1,note_on,71,0,0
1,note_on,62,0,0
1,note_on,60,63,0
1,note_on,67,64,0
1,note_on,72,66,0
1,note_on,72,0,360
1,note_on,67,0,0
1,note_on,60,0,0
1,note_on,62,55,0
1,note_on,67,55,0
1,note_on,74,67,0
1,note_on,74,0,120
1,note_on,67,0,0
1,note_on,62,0,0
1,note_on,67,64,0
1,note_on,63,64,0
1,note_on,75,75,0
1,note_on,75,0,840
1,note_on,63,0,0
1,note_on,62,69,0
1,note_on,74,69,0
1,note_on,74,0,120
1,note_on,62,0,0
1,note_on,67,0,0
1,note_on,60,60,0
1,note_on,67,64,0
1,note_on,72,76,0
1,note_on,72,0,480
1,note_on,67,0,0
1,note_on,60,0,0
1,note_on,66,58,0
1,note_on,62,58,0
1,note_on,74,69,0
1,note_on,74,0,360
1,note_on,72,60,0
1,note_on,72,0,120
1,note_on,62,0,0
1,note_on,66,0,0
1,note_on,62,55,0
1,note_on,65,55,0
1,note_on,71,66,0
1,note_on,71,0,480
1,note_on,65,0,0
1,note_on,62,0,0
1,note_on,62,52,0
1,note_on,67,52,0
1,note_on,71,62,0
1,note_on,67,0,360
1,note_on,68,51,0
1,note_on,68,0,120
1,note_on,71,0,0
1,note_on,62,0,0
1,note_on,60,57,0
1,note_on,67,59,0
1,note_on,72,73,0
1,note_on,72,0,480
1,note_on,67,0,0
1,note_on,60,0,0
1,note_on,65,64,0
1,note_on,71,64,0
1,note_on,75,75,0
1,note_on,75,0,360
1,note_on,74,62,0
1,note_on,74,0,120
1,note_on,71,0,0
1,note_on,65,0,0
1,note_on,63,61,0
1,note_on,72,73,0
1,note_on,72,0,1440
1,note_on,63,0,0
1,note_on,74,44,0
1,note_on,74,0,360
1,note_on,75,38,0
1,note_on,75,0,120
1,note_on,77,51,0
1,note_on,77,0,480
1,note_on,65,35,0
1,note_on,77,42,0
1,note_on,77,0,480
1,note_on,65,0,0
1,note_on,68,35,0
1,note_on,77,42,0
1,note_on,77,0,480
1,note_on,68,0,0
1,note_on,75,46,0
1,note_on,75,0,360
1,note_on,74,47,0
1,note_on,74,0,120
1,note_on,79,53,0
1,note_on,67,50,480
1,note_on,79,0,240
1,note_on,77,44,0
1,note_on,67,0,120
1,note_on,68,53,0
1,note_on,68,0,120
1,note_on,77,0,0
1,note_on,75,39,0
1,note_on,75,0,480
1,note_on,74,49,0
1,note_on,74,0,360
1,note_on,72,42,0
1,note_on,72,0,120
1,note_on,71,46,0
1,note_on,71,0,480
1,note_on,68,41,0
1,note_on,71,44,0
1,note_on,68,0,240
1,note_on,67,40,0
1,note_on,67,0,240
1,note_on,71,0,0
1,note_on,65,41,0
1,note_on,72,48,0
1,note_on,65,0,240
1,note_on,63,41,0
1,note_on,63,0,240
1,note_on,72,0,0
1,note_on,62,41,0
1,note_on,77,43,0
1,note_on,62,0,240
1,note_on,60,41,0
1,note_on,77,0,120
1,note_on,75,44,0
1,note_on,75,0,120
1,note_on,60,0,0
1,note_on,68,41,0
1,note_on,74,51,0
1,note_on,68,0,120
1,note_on,67,47,0
1,note_on,67,0,1320
1,note_on,74,0,0
1,note_on,74,62,0
1,note_on,74,0,360
1,note_on,75,60,0
1,note_on,75,0,120
1,note_on,65,61,0
1,note_on,74,61,0
1,note_on,77,73,0
1,note_on,77,0,480
1,note_on,74,0,0
1,note_on,65,0,0
1,note_on,65,50,0
1,note_on,74,50,0
1,note_on,77,60,0
1,note_on,77,0,480
1,note_on,74,0,0
1,note_on,65,0,0
1,note_on,65,50,0
1,note_on,74,50,0
1,note_on,77,60,0
1,note_on,77,0,480
1,note_on,74,0,0
1,note_on,65,0,0
1,note_on,67,63,0
1,note_on,75,63,0
1,note_on,79,63,0
1,note_on,79,0,360
1,note_on,75,0,0
1,note_on,67,0,0
1,note_on,68,55,0
1,note_on,77,55,0
1,note_on,80,67,0
1,note_on,80,0,120
1,note_on,77,0,0
1,note_on,68,0,0
1,note_on,79,64,0
1,note_on,70,64,0
1,note_on,82,75,0
1,note_on,82,0,480
1,note_on,70,0,0
1,note_on,79,0,0
1,note_on,68,69,0
1,note_on,80,69,0
1,note_on,80,0,480
1,note_on,68,0,0
1,note_on,75,64,0
1,note_on,79,76,0
1,note_on,79,0,480
1,note_on,75,0,0
1,note_on,65,58,0
1,note_on,77,69,0
1,note_on,77,0,360
1,note_on,74,60,0
1,note_on,74,0,120
1,note_on,65,0,0
1,note_on,62,55,0
1,note_on,65,55,0
1,note_on,71,66,0
1,note_on,71,0,480
1,note_on,65,0,0
1,note_on,62,0,0
1,note_on,62,52,0
1,note_on,67,52,0
1,note_on,71,62,0
1,note_on,67,0,360
1,note_on,68,51,0
1,note_on,68,0,120
1,note_on,71,0,0
1,note_on,62,0,0
1,note_on,60,57,0
1,note_on,67,59,0
1,note_on,72,73,0
1,note_on,72,0,480
1,note_on,67,0,0
1,note_on,60,0,0
1,note_on,65,64,0
1,note_on,71,64,0
1,note_on,75,75,0
1,note_on,75,0,360
1,note_on,74,62,0
1,note_on,74,0,120
1,note_on,71,0,0
1,note_on,65,0,0
1,note_on,63,64,0
1,note_on,72,76,0
1,note_on,72,0,1440
1,note_on,63,0,0
1,note_on,60,72,0
1,note_on,72,86,0
1,note_on,72,0,144
1,note_on,60,0,0
1,note_on,60,72,16
1,note_on,72,86,0
1,note_on,72,0,144
1,note_on,60,0,0
1,note_on,60,72,16
1,note_on,72,86,0
1,note_on,72,0,144
1,note_on,60,0,0
1,note_on,84,94,16
1,note_on,80,79,0
1,note_on,74,79,0
1,note_on,72,79,0
1,note_on,72,0,1440
1,note_on,84,0,0
1,note_on,80,0,0
1,note_on,74,0,0
1,note_on,60,71,0
1,note_on,72,83,0
1,note_on,72,0,144
1,note_on,60,0,0
1,note_on,60,71,16
1,note_on,72,83,0
1,note_on,72,0,144
1,note_on,60,0,0
1,note_on,60,71,16
1,note_on,72,83,0
1,note_on,72,0,144
1,note_on,60,0,0
1,note_on,84,95,16
1,note_on,79,80,0
1,note_on,75,80,0
1,note_on,72,80,0
1,note_on,72,0,1440
1,note_on,84,0,0
1,note_on,79,0,0
1,note_on,75,0,0
1,note_on,60,71,0
1,note_on,72,83,0
1,note_on,72,0,144
1,note_on,60,0,0
1,note_on,60,71,16
1,note_on,72,83,0
1,note_on,72,0,144
1,note_on,60,0,0
1,note_on,60,71,16
1,note_on,72,83,0
1,note_on,72,0,144
1,note_on,60,0,0
1,note_on,73,90,16
1,note_on,65,77,0
1,note_on,61,77,0
1,note_on,61,0,480
1,note_on,65,0,0
1,note_on,73,0,0
1,note_on,65,74,0
1,note_on,77,88,0
1,note_on,77,0,360
1,note_on,65,0,0
1,note_on,68,66,0
1,note_on,80,79,0
1,note_on,80,0,120
1,note_on,68,0,0
1,note_on,67,75,0
1,note_on,72,75,0
1,note_on,75,75,0
1,note_on,79,89,0
1,note_on,79,0,480
1,note_on,67,0,0
1,note_on,72,0,0
1,note_on,75,0,0
1,note_on,67,71,0
1,note_on,71,71,0
1,note_on,74,71,0
1,note_on,79,83,0
1,note_on,79,0,480
1,note_on,67,0,0
1,note_on,71,0,0
1,note_on,74,0,0
1,note_on,67,64,0
1,note_on,60,64,0
1,note_on,63,64,0
1,note_on,72,76,0
1,note_on,72,0,1440
1,note_on,67,0,0
1,note_on,60,0,0
1,note_on,63,0,0
1,note_on,60,72,0
1,note_on,72,86,0
1,note_on,72,0,144
1,note_on,60,0,0
1,note_on,60,72,16
1,note_on,72,86,0
1,note_on,72,0,144
1,note_on,60,0,0
1,note_on,60,72,16
1,note_on,72,86,0
1,note_on,72,0,144
1,note_on,60,0,0
1,note_on,84,94,16
1,note_on,74,79,0
1,note_on,72,79,0
1,note_on,72,0,1440
1,note_on,74,0,0
1,note_on,84,0,0
1,note_on,60,71,0
1,note_on,72,83,0
1,note_on,72,0,144
1,note_on,60,0,0
1,note_on,60,71,16
1,note_on,72,83,0
1,note_on,72,0,144
1,note_on,60,0,0
1,note_on,60,71,16
1,note_on,72,83,0
1,note_on,72,0,144
1,note_on,60,0,0
1,note_on,84,95,16
1,note_on,79,80,0
1,note_on,72,80,0
1,note_on,72,0,1440
1,note_on,79,0,0
1,note_on,84,0,0
1,note_on,60,71,0
1,note_on,72,83,0
1,note_on,72,0,144
1,note_on,60,0,0
1,note_on,60,71,16
1,note_on,72,83,0
1,note_on,72,0,144
1,note_on,60,0,0
1,note_on,60,71,16
1,note_on,72,83,0
1,note_on,72,0,144
1,note_on,60,0,0
1,note_on,73,90,16
1,note_on,65,77,0
1,note_on,61,77,0
1,note_on,61,0,480
1,note_on,65,0,0
1,note_on,73,0,0
1,note_on,65,74,0
1,note_on,77,88,0
1,note_on,77,0,360
1,note_on,65,0,0
1,note_on,68,66,0
1,note_on,80,79,0
1,note_on,80,0,120
1,note_on,68,0,0
1,note_on,67,75,0
1,note_on,72,75,0
1,note_on,75,75,0
1,note_on,79,89,0
1,note_on,79,0,480
1,note_on,67,0,0
1,note_on,72,0,0
1,note_on,75,0,0
1,note_on,67,71,0
1,note_on,71,71,0
1,note_on,74,71,0
1,note_on,79,83,0
1,note_on,79,0,480
1,note_on,67,0,0
1,note_on,71,0,0
1,note_on,74,0,0
1,note_on,67,64,0
1,note_on,60,64,0
1,note_on,63,64,0
1,note_on,72,76,0
1,note_on,72,0,1440
1,note_on,67,0,0
1,note_on,60,0,0
1,note_on,63,0,0
1,note_on,60,68,0
1,note_on,72,57,0
1,note_on,72,0,120
1,note_on,60,0,0
1,note_on,60,63,40
1,note_on,72,53,0
1,note_on,72,0,120
1,note_on,60,0,0
1,note_on,60,63,40
1,note_on,72,53,0
1,note_on,72,0,120
1,note_on,60,0,0
1,note_on,61,62,40
1,note_on,72,52,0
1,note_on,72,0,120
1,note_on,61,0,0
1,note_on,72,46,40
1,note_on,61,55,0
1,note_on,61,0,120
1,note_on,72,0,0
1,note_on,61,55,40
1,note_on,72,46,0
1,note_on,72,0,120
1,note_on,61,0,0
1,note_on,62,58,40
1,note_on,72,49,0
1,note_on,72,0,120
1,note_on,62,0,0
1,note_on,72,42,40
1,note_on,62,50,0
1,note_on,62,0,120
1,note_on,72,0,0
1,note_on,62,50,40
1,note_on,72,42,0
1,note_on,72,0,120
1,note_on,62,0,0
1,note_on,72,46,40
1,note_on,63,55,0
1,note_on,63,0,120
1,note_on,72,0,0
1,note_on,72,42,40
1,note_on,63,50,0
1,note_on,63,0,120
1,note_on,72,0,0
1,note_on,63,54,40
1,note_on,72,45,0
1,note_on,72,0,120
1,note_on,63,0,0
1,note_on,64,54,40
1,note_on,72,49,0
1,note_on,72,0,120
1,note_on,64,0,0
1,note_on,72,37,40
1,note_on,64,44,0
1,note_on,64,0,120
1,note_on,72,0,0
1,note_on,72,37,40
1,note_on,64,44,0
1,note_on,64,0,120
1,note_on,72,0,0
1,note_on,64,47,40
1,note_on,72,39,0
1,note_on,72,0,120
1,note_on,64,0,0
1,note_on,64,37,40
1,note_on,72,31,0
1,note_on,72,0,120
1,note_on,64,0,0
1,note_on,64,37,40
1,note_on,72,31,0
1,note_on,72,0,120
1,note_on,64,0,0
1,note_on,64,46,40
1,note_on,72,38,0
1,note_on,72,0,120
1,note_on,64,0,0
1,note_on,64,37,40
1,note_on,72,30,0
1,note_on,72,0,120
1,note_on,64,0,0
1,note_on,64,36,40
1,note_on,72,30,0
1,note_on,72,0,120
1,note_on,64,0,0
1,note_on,65,45,40
1,note_on,72,38,0
1,note_on,72,0,120
1,note_on,65,0,0
1,note_on,65,36,40
1,note_on,72,29,0
1,note_on,72,0,120
1,note_on,65,0,0
1,note_on,65,35,40
1,note_on,72,29,0
1,note_on,72,0,120
1,note_on,65,0,0
1,note_on,63,31,40
1,note_on,66,31,0
1,note_on,72,37,0
1,note_on,72,0,120
1,note_on,66,0,0
1,note_on,63,0,0
1,note_on,63,26,40
1,note_on,66,26,0
1,note_on,72,31,0
1,note_on,72,0,120
1,note_on,66,0,0
1,note_on,63,0,0
1,note_on,63,26,40
1,note_on,66,26,0
1,note_on,72,31,0
1,note_on,72,0,120
1,note_on,66,0,0
1,note_on,63,0,0
1,note_on,63,31,40
1,note_on,66,31,0
1,note_on,72,37,0
1,note_on,72,0,120
1,note_on,66,0,0
1,note_on,63,0,0
1,note_on,62,27,40
1,note_on,66,27,0
1,note_on,72,32,0
1,note_on,72,0,120
1,note_on,66,0,0
1,note_on,62,0,0
1,note_on,62,27,40
1,note_on,66,27,0
1,note_on,72,32,0
1,note_on,72,0,120
1,note_on,66,0,0
1,note_on,62,0,0
1,note_on,62,31,40
1,note_on,66,31,0
1,note_on,72,37,0
1,note_on,72,0,120
1,note_on,66,0,0
1,note_on,62,0,0
1,note_on,62,26,40
1,note_on,66,26,0
1,note_on,72,31,0
1,note_on,72,0,120
1,note_on,66,0,0
1,note_on,62,0,0
1,note_on,62,26,40
1,note_on,66,26,0
1,note_on,72,31,0
1,note_on,72,0,120
1,note_on,66,0,0
1,note_on,62,0,0
1,note_on,62,31,40
1,note_on,67,31,0
1,note_on,72,37,0
1,note_on,72,0,120
1,note_on,67,0,0
1,note_on,62,0,0
1,note_on,62,27,40
1,note_on,67,27,0
1,note_on,72,32,0
1,note_on,72,0,120
1,note_on,67,0,0
1,note_on,62,0,0
1,note_on,62,27,40
1,note_on,67,27,0
1,note_on,72,32,0
1,note_on,72,0,120
1,note_on,67,0,0
1,note_on,62,0,0
1,note_on,62,31,40
1,note_on,67,31,0
1,note_on,70,37,0
1,note_on,70,0,120
1,note_on,67,0,0
1,note_on,62,0,0
1,note_on,62,27,40
1,note_on,67,27,0
1,note_on,70,32,0
1,note_on,70,0,120
1,note_on,67,0,0
1,note_on,62,0,0
1,note_on,62,27,40
1,note_on,67,27,0
1,note_on,70,32,0
1,note_on,70,0,120
1,note_on,67,0,0
1,note_on,62,0,0
1,note_on,60,31,40
1,note_on,63,31,0
1,note_on,70,37,0
1,note_on,70,0,120
1,note_on,63,0,0
1,note_on,60,0,0
1,note_on,60,26,40
1,note_on,63,26,0
1,note_on,70,31,0
1,note_on,70,0,120
1,note_on,63,0,0
1,note_on,60,0,0
1,note_on,60,26,40
1,note_on,63,26,0
1,note_on,70,31,0
1,note_on,70,0,120
1,note_on,63,0,0
1,note_on,60,0,0
1,note_on,60,31,40
1,note_on,63,31,0
1,note_on,69,37,0
1,note_on,69,0,120
1,note_on,63,0,0
1,note_on,60,0,0
1,note_on,60,27,40
1,note_on,63,27,0
1,note_on,69,32,0
1,note_on,69,0,120
1,note_on,63,0,0
1,note_on,60,0,0
1,note_on,60,27,40
1,note_on,63,27,0
1,note_on,69,32,0
1,note_on,69,0,120
1,note_on,63,0,0
1,note_on,60,0,0
1,note_on,58,31,40
1,note_on,62,31,0
1,note_on,67,37,0
1,note_on,67,0,120
1,note_on,62,0,0
1,note_on,58,0,0
1,note_on,58,26,40
1,note_on,62,26,0
1,note_on,67,31,0
1,note_on,67,0,120
1,note_on,62,0,0
1,note_on,58,0,0
1,note_on,58,26,40
1,note_on,62,26,0
1,note_on,67,31,0
1,note_on,67,0,120
1,note_on,62,0,0
1,note_on,58,0,0
1,note_on,57,31,40
1,note_on,62,31,0
1,note_on,66,37,0
1,note_on,66,0,120
1,note_on,62,0,0
1,note_on,57,0,0
1,note_on,57,27,40
1,note_on,62,27,0
1,note_on,66,32,0
1,note_on,66,0,120
1,note_on,62,0,0
1,note_on,57,0,0
1,note_on,57,27,40
1,note_on,62,27,0
1,note_on,66,32,0
1,note_on,66,0,120
1,note_on,62,0,0
1,note_on,57,0,0
1,note_on,58,31,40
1,note_on,62,31,0
1,note_on,67,37,0
1,note_on,67,0,960
1,note_on,62,0,0
1,note_on,58,0,0
1,note_on,67,39,480
1,note_on,67,0,360
1,note_on,70,39,0
1,note_on,70,0,120
1,note_on,74,44,0
1,note_on,62,29,120
1,note_on,67,30,120
1,note_on,62,0,12
1,note_on,70,28,108
1,note_on,67,0,12
1,note_on,70,0,108
1,note_on,74,0,0
1,note_on,74,40,0
1,note_on,62,28,120
1,note_on,67,30,120
1,note_on,62,0,12
1,note_on,70,28,108
1,note_on,67,0,12
1,note_on,70,0,108
1,note_on,74,0,0
1,note_on,74,45,0
1,note_on,62,27,120
1,note_on,66,30,120
1,note_on,62,0,12
1,note_on,69,28,108
1,note_on,66,0,12
1,note_on,69,0,108
1,note_on,74,0,0
1,note_on,74,46,0
1,note_on,62,27,120
1,note_on,67,30,120
1,note_on,62,0,12
1,note_on,70,26,108
1,note_on,67,0,12
1,note_on,70,0,108
1,note_on,74,0,0
1,note_on,75,51,0
1,note_on,63,31,120
1,note_on,67,33,120
1,note_on,63,0,12
1,note_on,72,31,108
1,note_on,67,0,12
1,note_on,66,36,108
1,note_on,72,0,12
1,note_on,72,27,108
1,note_on,66,0,12
1,note_on,69,30,108
1,note_on,72,0,12
1,note_on,66,27,108
1,note_on,69,0,12
1,note_on,66,0,108
1,note_on,75,0,0
1,note_on,74,41,0
1,note_on,62,27,120
1,note_on,67,30,120
1,note_on,62,0,12
1,note_on,70,26,108
1,note_on,67,0,12
1,note_on,62,30,108
1,note_on,70,0,12
1,note_on,70,28,108
1,note_on,62,0,12
1,note_on,67,30,108
1,note_on,70,0,12
1,note_on,62,27,108
1,note_on,67,0,12
1,note_on,62,0,108
1,note_on,74,0,0
1,note_on,72,50,0
1,note_on,60,28,120
1,note_on,63,30,120
1,note_on,60,0,12
1,note_on,66,28,108
1,note_on,63,0,12
1,note_on,60,30,108
1,note_on,66,0,12
1,note_on,66,30,108
1,note_on,60,0,12
1,note_on,63,30,108
1,note_on,66,0,12
1,note_on,60,27,108
1,note_on,63,0,12
1,note_on,60,0,108
1,note_on,72,0,0
1,note_on,70,45,0
1,note_on,58,27,120
1,note_on,62,30,120
1,note_on,58,0,12
1,note_on,67,27,108
1,note_on,62,0,12
1,note_on,58,30,108
1,note_on,67,0,12
1,note_on,67,28,108
1,note_on,58,0,12
1,note_on,62,30,108
1,note_on,67,0,12
1,note_on,58,28,108
1,note_on,62,0,12
1,note_on,58,0,108
1,note_on,70,0,0
1,note_on,69,50,0
1,note_on,57,28,120
1,note_on,60,30,120
1,note_on,57,0,12
1,note_on,67,28,108
1,note_on,60,0,12
1,note_on,67,0,108
1,note_on,69,0,0
1,note_on,72,46,0
1,note_on,63,29,120
1,note_on,67,30,120
1,note_on,63,0,12
1,note_on,69,28,108
1,note_on,67,0,12
1,note_on,69,0,108
1,note_on,72,0,0
1,note_on,70,49,0
1,note_on,58,27,120
1,note_on,62,30,120
1,note_on,58,0,12
1,note_on,67,27,108
1,note_on,62,0,12
1,note_on,67,0,108
1,note_on,70,0,0
1,note_on,69,45,0
1,note_on,60,26,120
1,note_on,62,30,120
1,note_on,60,0,12
1,note_on,66,27,108
1,note_on,62,0,12
1,note_on,66,0,108
1,note_on,69,0,0
1,note_on,67,50,0
1,note_on,55,28,120
1,note_on,58,32,120
1,note_on,55,0,12
1,note_on,62,34,108
1,note_on,58,0,12
1,note_on,63,35,108
1,note_on,62,0,12
1,note_on,60,37,108
1,note_on,63,0,12
1,note_on,57,39,108
1,note_on,60,0,12
1,note_on,63,44,108
1,note_on,57,0,12
1,note_on,62,44,108
1,note_on,63,0,12
1,note_on,58,33,108
1,note_on,62,0,12
1,note_on,62,37,108
1,note_on,58,0,12
1,note_on,66,28,108
1,note_on,62,0,12
1,note_on,67,0,108
1,note_on,67,34,0
1,note_on,66,0,12
1,note_on,62,26,108
1,note_on,67,0,12
1,note_on,67,30,108
1,note_on,62,0,12
1,note_on,70,26,108
1,note_on,67,0,12
1,note_on,70,0,108
1,note_on,74,44,0
1,note_on,62,29,120
1,note_on,67,30,120
1,note_on,62,0,12
1,note_on,70,28,108
1,note_on,67,0,12
1,note_on,70,0,108
1,note_on,74,0,0
1,note_on,74,40,0
1,note_on,62,28,120
1,note_on,67,30,120
1,note_on,62,0,12
1,note_on,70,28,108
1,note_on,67,0,12
1,note_on,70,0,108
1,note_on,74,0,0
1,note_on,74,45,0
1,note_on,62,27,120
1,note_on,66,30,120
1,note_on,62,0,12
1,note_on,69,28,108
1,note_on,66,0,12
1,note_on,69,0,108
1,note_on,74,0,0
1,note_on,74,46,0
1,note_on,62,27,120
1,note_on,67,30,120
1,note_on,62,0,12
1,note_on,70,26,108
1,note_on,67,0,12
1,note_on,70,0,108
1,note_on,74,0,0
1,note_on,75,51,0
1,note_on,63,31,120
1,note_on,67,33,120
1,note_on,63,0,12
1,note_on,72,31,108
1,note_on,67,0,12
1,note_on,69,41,108
1,note_on,72,0,12
1,note_on,72,33,108
1,note_on,69,0,12
1,note_on,69,41,108
1,note_on,72,0,12
1,note_on,65,34,108
1,note_on,69,0,12
1,note_on,65,0,108
1,note_on,75,0,0
1,note_on,74,57,0
1,note_on,62,34,120
1,note_on,65,40,120
1,note_on,62,0,12
1,note_on,70,33,108
1,note_on,65,0,12
1,note_on,65,41,108
1,note_on,70,0,12
1,note_on,70,28,108
1,note_on,65,0,12
1,note_on,65,35,108
1,note_on,70,0,12
1,note_on,62,27,108
1,note_on,65,0,12
1,note_on,62,0,108
1,note_on,74,0,0
1,note_on,72,60,0
1,note_on,60,35,120
1,note_on,63,39,120
1,note_on,60,0,12
1,note_on,69,28,108
1,note_on,63,0,12
1,note_on,66,40,108
1,note_on,69,0,12
1,note_on,69,27,108
1,note_on,66,0,12
1,note_on,66,30,108
1,note_on,69,0,12
1,note_on,62,27,108
1,note_on,66,0,12
1,note_on,62,0,108
1,note_on,72,0,0
1,note_on,70,45,0
1,note_on,58,27,120
1,note_on,62,30,120
1,note_on,58,0,12
1,note_on,67,27,108
1,note_on,62,0,12
1,note_on,58,30,108
1,note_on,67,0,12
1,note_on,67,28,108
1,note_on,58,0,12
1,note_on,62,30,108
1,note_on,67,0,12
1,note_on,58,28,108
1,note_on,62,0,12
1,note_on,58,0,108
1,note_on,70,0,0
1,note_on,67,50,0
1,note_on,63,28,120
1,note_on,62,30,120
1,note_on,63,0,12
1,note_on,60,28,108
1,note_on,62,0,12
1,note_on,60,0,108
1,note_on,67,0,0
1,note_on,75,46,0
1,note_on,63,29,120
1,note_on,67,30,120
1,note_on,63,0,12
1,note_on,72,28,108
1,note_on,67,0,12
1,note_on,72,0,108
1,note_on,75,0,0
1,note_on,74,49,0
1,note_on,62,27,120
1,note_on,65,30,120
1,note_on,62,0,12
1,note_on,70,27,108
1,note_on,65,0,12
1,note_on,70,0,108
1,note_on,74,0,0
1,note_on,72,45,0
1,note_on,63,26,120
1,note_on,65,30,120
1,note_on,63,0,12
1,note_on,69,27,108
1,note_on,65,0,12
1,note_on,69,0,108
1,note_on,72,0,0
1,note_on,70,50,0
1,note_on,58,28,120
1,note_on,62,32,120
1,note_on,58,0,12
1,note_on,65,34,108
1,note_on,62,0,12
1,note_on,66,35,108
1,note_on,65,0,12
1,note_on,63,37,108
1,note_on,66,0,12
1,note_on,60,39,108
1,note_on,63,0,12
1,note_on,66,44,108
1,note_on,60,0,12
1,note_on,65,44,108
1,note_on,66,0,12
1,note_on,62,33,108
1,note_on,65,0,12
1,note_on,65,37,108
1,note_on,62,0,12
1,note_on,69,34,108
1,note_on,65,0,12
1,note_on,70,0,108
1,note_on,70,40,0
1,note_on,69,0,12
1,note_on,65,43,108
1,note_on,70,0,12
1,note_on,70,46,108
1,note_on,65,0,12
1,note_on,74,49,108
1,note_on,70,0,12
1,note_on,74,0,108
1,note_on,65,41,0
1,note_on,77,55,0
1,note_on,77,0,360
1,note_on,65,0,0
1,note_on,65,44,120
1,note_on,77,54,0
1,note_on,77,0,479
1,note_on,65,0,0
1,note_on,66,54,1
1,note_on,78,64,0
1,note_on,78,0,479
1,note_on,66,0,0
1,note_on,67,60,1
1,note_on,79,72,0
1,note_on,79,0,479
1,note_on,67,0,0
1,note_on,69,61,1
1,note_on,81,75,0
1,note_on,81,0,479
1,note_on,69,0,0
1,note_on,72,64,1
1,note_on,84,78,0
1,note_on,84,0,479
1,note_on,72,0,0
1,note_on,70,63,1
1,note_on,82,77,0
1,note_on,82,0,479
1,note_on,70,0,0
1,note_on,69,49,1
1,note_on,81,58,0
1,note_on,81,0,360
1,note_on,69,0,0
1,note_on,67,42,0
1,note_on,79,51,0
1,note_on,79,0,120
1,note_on,67,0,0
1,note_on,66,49,0
1,note_on,78,58,0
1,note_on,78,0,480
1,note_on,66,0,0
1,note_on,66,46,0
1,note_on,78,55,0
1,note_on,78,0,480
1,note_on,66,0,0
1,note_on,67,45,0
1,note_on,79,53,0
1,note_on,79,0,240
1,note_on,67,0,0
1,note_on,66,37,0
1,note_on,78,45,0
1,note_on,78,0,240
1,note_on,66,0,0
1,note_on,64,38,0
1,note_on,76,46,0
1,note_on,76,0,240
1,note_on,64,0,0
1,note_on,66,37,0
1,note_on,78,45,0
1,note_on,78,0,240
1,note_on,66,0,0
1,note_on,67,40,0
1,note_on,79,48,0
1,note_on,79,0,960
1,note_on,67,0,0
1,note_on,67,53,120
1,note_on,67,0,120
1,note_on,70,55,0
1,note_on,70,0,120
1,note_on,74,57,0
1,note_on,74,0,120
1,note_on,79,59,0
1,note_on,79,0,120
1,note_on,70,61,0
1,note_on,70,0,120
1,note_on,74,63,0
1,note_on,74,0,120
1,note_on,79,65,0
1,note_on,79,0,120
1,note_on,69,63,240
1,note_on,74,63,0
1,note_on,78,74,0
1,note_on,78,0,120
1,note_on,74,0,0
1,note_on,69,0,0
1,note_on,81,74,360
1,note_on,72,63,0
1,note_on,74,63,0
1,note_on,74,0,120
1,note_on,72,0,0
1,note_on,81,0,0
1,note_on,70,63,360
1,note_on,74,63,0
1,note_on,79,74,0
1,note_on,79,0,120
1,note_on,74,0,0
1,note_on,70,0,0
1,note_on,69,63,360
1,note_on,74,63,0
1,note_on,78,74,0
1,note_on,78,0,120
1,note_on,74,0,0
1,note_on,69,0,0
1,note_on,67,65,360
1,note_on,74,65,0
1,note_on,79,78,0
1,note_on,79,0,120
1,note_on,74,0,0
1,note_on,67,0,0
1,note_on,67,66,120
1,note_on,72,66,0
1,note_on,79,79,0
1,note_on,79,0,120
1,note_on,72,0,0
1,note_on,67,0,0
1,note_on,85,83,120
1,note_on,79,71,0
1,note_on,73,71,0
1,note_on,73,0,120
1,note_on,79,0,0
1,note_on,85,0,0
1,note_on,86,83,360
1,note_on,81,83,0
1,note_on,79,71,0
1,note_on,74,71,0
1,note_on,74,0,120
1,note_on,86,0,0
1,note_on,81,0,0
1,note_on,79,0,0
1,note_on,74,69,120
1,note_on,78,69,0
1,note_on,81,69,0
1,note_on,86,81,0
1,note_on,86,0,120
1,note_on,74,0,0
1,note_on,78,0,0
1,note_on,81,0,0
1,note_on,66,66,120
1,note_on,69,66,0
1,note_on,74,79,0
1,note_on,74,0,120
1,note_on,69,0,0
1,note_on,66,0,0
1,note_on,63,63,360
1,note_on,70,63,0
1,note_on,75,74,0
1,note_on,75,0,120
1,note_on,70,0,0
1,note_on,63,0,0
1,note_on,63,69,120
1,note_on,69,69,0
1,note_on,75,81,0
1,note_on,75,0,120
1,note_on,69,0,0
1,note_on,63,0,0
1,note_on,81,74,120
1,note_on,75,63,0
1,note_on,69,63,0
1,note_on,69,0,120
1,note_on,75,0,0
1,note_on,81,0,0
1,note_on,82,74,360
1,note_on,77,63,0
1,note_on,75,63,0
1,note_on,70,63,0
1,note_on,70,0,120
1,note_on,82,0,0
1,note_on,77,0,0
1,note_on,75,0,0
1,note_on,70,66,120
1,note_on,74,66,0
1,note_on,77,66,0
1,note_on,82,79,0
1,note_on,82,0,120
1,note_on,70,0,0
1,note_on,74,0,0
1,note_on,77,0,0
1,note_on,62,63,120
1,note_on,65,63,0
1,note_on,70,74,0
1,note_on,70,0,120
1,note_on,65,0,0
1,note_on,62,0,0
1,note_on,63,63,360
1,note_on,67,63,0
1,note_on,72,74,0
1,note_on,72,0,120
1,note_on,67,0,0
1,note_on,63,0,0
1,note_on,66,63,360
1,note_on,69,63,0
1,note_on,75,74,0
1,note_on,75,0,120
1,note_on,69,0,0
1,note_on,66,0,0
1,note_on,67,65,360
1,note_on,70,65,0
1,note_on,74,78,0
1,note_on,74,0,120
1,note_on,70,0,0
1,note_on,67,0,0
1,note_on,72,66,360
1,note_on,74,66,0
1,note_on,78,79,0
1,note_on,78,0,120
1,note_on,74,0,0
1,note_on,72,0,0
1,note_on,70,69,360
1,note_on,74,69,0
1,note_on,79,81,0
1,note_on,79,0,240
1,note_on,74,0,0
1,note_on,70,0,0
1,note_on,62,67,0
1,note_on,70,67,0
1,note_on,74,80,0
1,note_on,74,0,240
1,note_on,70,0,0
1,note_on,62,0,0
1,note_on,62,65,0
1,note_on,69,65,0
1,note_on,72,78,0
1,note_on,72,0,240
1,note_on,69,0,0
1,note_on,62,0,0
1,note_on,62,64,0
1,note_on,67,64,0
1,note_on,70,64,0
1,note_on,70,0,240
1,note_on,67,0,0
1,note_on,62,0,0
1,note_on,67,63,0
1,note_on,70,63,0
1,note_on,74,74,0
1,note_on,74,0,240
1,note_on,70,0,0
1,note_on,67,0,0
1,note_on,70,63,0
1,note_on,74,63,0
1,note_on,79,74,0
1,note_on,79,0,240
1,note_on,74,0,0
1,note_on,70,0,0
1,note_on,67,63,0
1,note_on,70,63,0
1,note_on,74,74,0
1,note_on,74,0,240
1,note_on,70,0,0
1,note_on,67,0,0
1,note_on,66,63,240
1,note_on,69,63,0
1,note_on,74,74,0
1,note_on,74,0,120
1,note_on,69,0,0
1,note_on,66,0,0
1,note_on,81,74,360
1,note_on,72,63,0
1,note_on,74,63,0
1,note_on,74,0,120
1,note_on,72,0,0
1,note_on,81,0,0
1,note_on,70,63,360
1,note_on,74,63,0
1,note_on,79,74,0
1,note_on,79,0,120
1,note_on,74,0,0
1,note_on,70,0,0
1,note_on,69,63,360
1,note_on,74,63,0
1,note_on,78,74,0
1,note_on,78,0,120
1,note_on,74,0,0
1,note_on,69,0,0
1,note_on,67,65,360
1,note_on,74,65,0
1,note_on,79,78,0
1,note_on,79,0,120
1,note_on,74,0,0
1,note_on,67,0,0
1,note_on,67,66,120
1,note_on,72,66,0
1,note_on,79,79,0
1,note_on,79,0,120
1,note_on,72,0,0
1,note_on,67,0,0
1,note_on,85,83,120
1,note_on,79,71,0
1,note_on,73,71,0
1,note_on,73,0,120
1,note_on,79,0,0
1,note_on,85,0,0
1,note_on,86,83,360
1,note_on,81,83,0
1,note_on,79,71,0
1,note_on,74,71,0
1,note_on,74,0,120
1,note_on,86,0,0
1,note_on,81,0,0
1,note_on,79,0,0
1,note_on,74,69,120
1,note_on,77,69,0
1,note_on,81,69,0
1,note_on,86,81,0
1,note_on,86,0,120
1,note_on,74,0,0
1,note_on,77,0,0
1,note_on,81,0,0
1,note_on,65,66,120
1,note_on,69,66,0
1,note_on,74,79,0
1,note_on,74,0,120
1,note_on,69,0,0
1,note_on,65,0,0
1,note_on,63,63,360
1,note_on,70,63,0
1,note_on,75,74,0
1,note_on,75,0,120
1,note_on,70,0,0
1,note_on,63,0,0
1,note_on,63,69,120
1,note_on,69,69,0
1,note_on,75,81,0
1,note_on,75,0,120
1,note_on,69,0,0
1,note_on,63,0,0
1,note_on,81,74,120
1,note_on,75,63,0
1,note_on,69,63,0
1,note_on,69,0,120
1,note_on,75,0,0
1,note_on,81,0,0
1,note_on,82,74,360
1,note_on,77,63,0
1,note_on,75,63,0
1,note_on,70,63,0
1,note_on,70,0,120
1,note_on,82,0,0
1,note_on,77,0,0
1,note_on,75,0,0
1,note_on,70,66,120
1,note_on,74,66,0
1,note_on,77,66,0
1,note_on,82,79,0
1,note_on,82,0,120
1,note_on,70,0,0
1,note_on,74,0,0
1,note_on,77,0,0
1,note_on,65,63,120
1,note_on,72,74,0
1,note_on,72,0,120
1,note_on,65,0,0
1,note_on,63,63,360
1,note_on,70,63,0
1,note_on,75,74,0
1,note_on,75,0,120
1,note_on,70,0,0
1,note_on,63,0,0
1,note_on,67,63,360
1,note_on,70,63,0
1,note_on,72,74,0
1,note_on,72,0,120
1,note_on,70,0,0
1,note_on,67,0,0
1,note_on,65,65,360
1,note_on,70,65,0
1,note_on,77,78,0
1,note_on,77,0,120
1,note_on,70,0,0
1,note_on,65,0,0
1,note_on,69,50,360
1,note_on,75,66,0
1,note_on,77,66,0
1,note_on,81,79,0
1,note_on,81,0,120
1,note_on,69,0,0
1,note_on,75,0,0
1,note_on,77,0,0
1,note_on,75,69,360
1,note_on,70,69,0
1,note_on,77,69,0
1,note_on,82,81,0
1,note_on,82,0,240
1,note_on,75,0,0
1,note_on,70,0,0
1,note_on,77,0,0
1,note_on,74,67,0
1,note_on,70,67,0
1,note_on,77,67,0
1,note_on,82,80,0
1,note_on,82,0,240
1,note_on,74,0,0
1,note_on,70,0,0
1,note_on,77,0,0
1,note_on,70,65,0
1,note_on,74,65,0
1,note_on,77,78,0
1,note_on,77,0,240
1,note_on,74,0,0
1,note_on,70,0,0
1,note_on,65,54,0
1,note_on,70,54,0
1,note_on,74,64,0
1,note_on,74,0,240
1,note_on,70,0,0
1,note_on,65,0,0
1,note_on,62,53,0
1,note_on,65,53,0
1,note_on,70,63,0
1,note_on,70,0,240
1,note_on,65,0,0
1,note_on,62,0,0
1,note_on,58,46,0
1,note_on,70,55,0
1,note_on,70,0,360
1,note_on,58,0,0
1,note_on,62,46,0
1,note_on,74,55,0
1,note_on,74,0,120
1,note_on,62,0,0
1,note_on,65,41,0
1,note_on,77,55,0
1,note_on,77,0,360
1,note_on,65,0,0
1,note_on,65,44,120
1,note_on,77,54,0
1,note_on,77,0,479
1,note_on,65,0,0
1,note_on,66,53,1
1,note_on,78,63,0
1,note_on,78,0,479
1,note_on,66,0,0
1,note_on,67,57,1
1,note_on,79,68,0
1,note_on,79,0,479
1,note_on,67,0,0
1,note_on,69,58,1
1,note_on,81,71,0
1,note_on,81,0,479
1,note_on,69,0,0
1,note_on,72,60,1
1,note_on,84,72,0
1,note_on,84,0,479
1,note_on,72,0,0
1,note_on,70,58,1
1,note_on,82,70,0
1,note_on,82,0,479
1,note_on,70,0,0
1,note_on,69,49,1
1,note_on,81,58,0
1,note_on,81,0,360
1,note_on,69,0,0
1,note_on,67,42,0
1,note_on,79,51,0
1,note_on,79,0,120
1,note_on,67,0,0
1,note_on,66,49,0
1,note_on,78,58,0
1,note_on,78,0,480
1,note_on,66,0,0
1,note_on,66,46,0
1,note_on,78,55,0
1,note_on,78,0,480
1,note_on,66,0,0
1,note_on,67,45,0
1,note_on,79,53,0
1,note_on,79,0,240
1,note_on,67,0,0
1,note_on,66,37,0
1,note_on,78,45,0
1,note_on,78,0,240
1,note_on,66,0,0
1,note_on,64,38,0
1,note_on,76,46,0
1,note_on,76,0,240
1,note_on,64,0,0
1,note_on,66,37,0
1,note_on,78,45,0
1,note_on,78,0,240
1,note_on,66,0,0
1,note_on,67,40,0
1,note_on,79,48,0
1,note_on,79,0,960
1,note_on,67,0,0
1,note_on,72,53,0
1,note_on,71,53,240
1,note_on,72,0,12
1,note_on,70,53,228
1,note_on,71,0,12
1,note_on,71,53,228
1,note_on,70,0,12
1,note_on,71,0,228
1,note_on,71,48,0
1,note_on,71,0,120
1,note_on,76,48,0
1,note_on,76,0,840
1,note_on,71,53,0
1,note_on,69,53,240
1,note_on,71,0,12
1,note_on,68,53,228
1,note_on,69,0,12
1,note_on,69,53,228
1,note_on,68,0,12
1,note_on,69,0,228
1,note_on,69,48,0
1,note_on,69,0,120
1,note_on,74,48,0
1,note_on,74,0,840
1,note_on,72,58,0
1,note_on,71,60,240
1,note_on,72,0,12
1,note_on,69,63,228
1,note_on,71,0,12
1,note_on,67,66,228
1,note_on,69,0,12
1,note_on,67,0,228
1,note_on,66,57,0
1,note_on,74,68,0
1,note_on,74,0,240
1,note_on,66,0,0
1,note_on,64,56,0
1,note_on,72,66,0
1,note_on,72,0,240
1,note_on,64,0,0
1,note_on,62,53,0
1,note_on,71,63,0
1,note_on,71,0,240
1,note_on,62,0,0
1,note_on,60,51,0
1,note_on,69,60,0
1,note_on,69,0,240
1,note_on,60,0,0
1,note_on,59,49,0
1,note_on,67,58,0
1,note_on,67,0,480
1,note_on,59,0,0
1,note_on,62,55,0
1,note_on,71,55,0
1,note_on,71,0,360
1,note_on,62,0,0
1,note_on,60,54,0
1,note_on,69,54,0
1,note_on,69,0,120
1,note_on,60,0,0
1,note_on,59,40,0
1,note_on,67,48,0
1,note_on,67,0,480
1,note_on,59,0,0
1,note_on,72,53,480
1,note_on,71,53,240
1,note_on,72,0,12
1,note_on,70,53,228
1,note_on,71,0,12
1,note_on,71,53,228
1,note_on,70,0,12
1,note_on,71,0,228
1,note_on,83,53,0
1,note_on,76,48,0
1,note_on,81,53,240
1,note_on,83,0,12
1,note_on,80,53,228
1,note_on,81,0,12
1,note_on,81,53,228
1,note_on,80,0,12
1,note_on,81,0,228
1,note_on,76,0,0
1,note_on,71,53,0
1,note_on,69,53,240
1,note_on,71,0,12
1,note_on,68,53,228
1,note_on,69,0,12
1,note_on,69,53,228
1,note_on,68,0,12
1,note_on,69,0,228
1,note_on,81,58,0
1,note_on,74,48,0
1,note_on,81,0,240
1,note_on,79,60,0
1,note_on,79,0,240
1,note_on,78,63,0
1,note_on,78,0,240
1,note_on,79,66,0
1,note_on,79,0,240
1,note_on,74,0,0
1,note_on,72,58,0
1,note_on,71,60,240
1,note_on,72,0,12
1,note_on,69,63,228
1,note_on,71,0,12
1,note_on,67,66,228
1,note_on,69,0,12
1,note_on,67,0,228
1,note_on,74,57,0
1,note_on,66,57,0
1,note_on,78,68,0
1,note_on,78,0,240
1,note_on,66,0,0
1,note_on,74,0,0
1,note_on,72,56,0
1,note_on,64,56,0
1,note_on,76,66,0
1,note_on,76,0,240
1,note_on,64,0,0
1,note_on,72,0,0
1,note_on,71,53,0
1,note_on,62,53,0
1,note_on,74,63,0
1,note_on,74,0,240
1,note_on,62,0,0
1,note_on,71,0,0
1,note_on,69,51,0
1,note_on,60,51,0
1,note_on,72,60,0
1,note_on,72,0,240
1,note_on,60,0,0
1,note_on,69,0,0
1,note_on,71,58,0
1,note_on,59,49,0
1,note_on,67,49,0
1,note_on,67,0,480
1,note_on,59,0,0
1,note_on,71,0,0
1,note_on,60,46,0
1,note_on,66,46,0
1,note_on,72,55,0
1,note_on,72,0,360
1,note_on,69,54,0
1,note_on,69,0,120
1,note_on,66,0,0
1,note_on,60,0,0
1,note_on,67,39,0
1,note_on,55,39,0
1,note_on,55,0,120
1,note_on,67,0,0
1,note_on,55,22,40
1,note_on,67,27,0
1,note_on,67,0,120
1,note_on,55,0,0
1,note_on,55,22,40
1,note_on,67,27,0
1,note_on,67,0,120
1,note_on,55,0,0
1,note_on,55,25,40
1,note_on,67,30,0
1,note_on,67,0,120
1,note_on,55,0,0
1,note_on,55,25,40
1,note_on,67,30,0
1,note_on,67,0,120
1,note_on,55,0,0
1,note_on,55,25,40
1,note_on,67,30,0
1,note_on,67,0,120
1,note_on,55,0,0
1,note_on,55,32,40
1,note_on,67,38,0
1,note_on,67,0,120
1,note_on,55,0,0
1,note_on,55,24,40
1,note_on,67,28,0
1,note_on,67,0,120
1,note_on,55,0,0
1,note_on,55,25,40
1,note_on,67,30,0
1,note_on,67,0,120
1,note_on,55,0,0
1,note_on,55,33,40
1,note_on,67,39,0
1,note_on,67,0,120
1,note_on,55,0,0
1,note_on,55,25,40
1,note_on,67,30,0
1,note_on,67,0,120
1,note_on,55,0,0
1,note_on,55,25,40
1,note_on,67,30,0
1,note_on,67,0,120
1,note_on,55,0,0
1,note_on,67,39,40
1,note_on,55,39,0
1,note_on,55,0,120
1,note_on,67,0,0
1,note_on,55,22,40
1,note_on,67,27,0
1,note_on,67,0,120
1,note_on,55,0,0
1,note_on,55,22,40
1,note_on,67,27,0
1,note_on,67,0,120
1,note_on,55,0,0
1,note_on,55,25,40
1,note_on,67,30,0
1,note_on,67,0,120
1,note_on,55,0,0
1,note_on,55,25,40
1,note_on,67,30,0
1,note_on,67,0,120
1,note_on,55,0,0
1,note_on,55,25,40
1,note_on,67,30,0
1,note_on,67,0,120
1,note_on,55,0,0
1,note_on,55,32,40
1,note_on,67,38,0
1,note_on,67,0,120
1,note_on,55,0,0
1,note_on,55,24,40
1,note_on,67,28,0
1,note_on,67,0,120
1,note_on,55,0,0
1,note_on,55,25,40
1,note_on,67,30,0
1,note_on,67,0,120
1,note_on,55,0,0
1,note_on,55,33,40
1,note_on,67,39,0
1,note_on,67,0,120
1,note_on,55,0,0
1,note_on,55,25,40
1,note_on,67,30,0
1,note_on,67,0,120
1,note_on,55,0,0
1,note_on,55,25,40
1,note_on,67,30,0
1,note_on,67,0,120
1,note_on,55,0,0
1,note_on,67,39,40
1,note_on,55,39,0
1,note_on,55,0,120
1,note_on,67,0,0
1,note_on,55,22,40
1,note_on,67,27,0
1,note_on,67,0,120
1,note_on,55,0,0
1,note_on,55,22,40
1,note_on,67,27,0
1,note_on,67,0,120
1,note_on,55,0,0
1,note_on,55,25,40
1,note_on,67,30,0
1,note_on,67,0,120
1,note_on,55,0,0
1,note_on,55,25,40
1,note_on,67,30,0
1,note_on,67,0,120
1,note_on,55,0,0
1,note_on,55,25,40
1,note_on,67,30,0
1,note_on,67,0,120
1,note_on,55,0,0
1,note_on,55,32,40
1,note_on,67,38,0
1,note_on,67,0,120
1,note_on,55,0,0
1,note_on,55,24,40
1,note_on,67,28,0
1,note_on,67,0,120
1,note_on,55,0,0
1,note_on,55,25,40
1,note_on,67,30,0
1,note_on,67,0,120
1,note_on,55,0,0
1,note_on,55,33,40
1,note_on,67,39,0
1,note_on,67,0,120
1,note_on,55,0,0
1,note_on,55,25,40
1,note_on,67,30,0
1,note_on,67,0,120
1,note_on,55,0,0
1,note_on,53,25,40
1,note_on,65,30,0
1,note_on,65,0,120
1,note_on,53,0,0
1,note_on,63,39,40
1,note_on,60,39,0
1,note_on,67,39,0
1,note_on,55,39,0
1,note_on,55,0,120
1,note_on,63,0,0
1,note_on,60,0,0
1,note_on,67,0,0
1,note_on,63,22,40
1,note_on,60,22,0
1,note_on,55,22,0
1,note_on,67,27,0
1,note_on,67,0,120
1,note_on,63,0,0
1,note_on,60,0,0
1,note_on,55,0,0
1,note_on,63,22,40
1,note_on,60,22,0
1,note_on,55,22,0
1,note_on,67,27,0
1,note_on,67,0,120
1,note_on,63,0,0
1,note_on,60,0,0
1,note_on,55,0,0
1,note_on,63,22,40
1,note_on,60,22,0
1,note_on,55,25,0
1,note_on,67,30,0
1,note_on,67,0,120
1,note_on,63,0,0
1,note_on,60,0,0
1,note_on,55,0,0
1,note_on,63,22,40
1,note_on,60,22,0
1,note_on,55,25,0
1,note_on,67,30,0
1,note_on,67,0,120
1,note_on,63,0,0
1,note_on,60,0,0
1,note_on,55,0,0
1,note_on,63,22,40
1,note_on,60,22,0
1,note_on,55,25,0
1,note_on,67,30,0
1,note_on,67,0,120
1,note_on,63,0,0
1,note_on,60,0,0
1,note_on,55,0,0
1,note_on,62,32,40
1,note_on,59,32,0
1,note_on,55,32,0
1,note_on,67,38,0
1,note_on,67,0,120
1,note_on,62,0,0
1,note_on,59,0,0
1,note_on,55,0,0
1,note_on,62,32,40
1,note_on,59,32,0
1,note_on,55,24,0
1,note_on,67,28,0
1,note_on,67,0,120
1,note_on,62,0,0
1,note_on,59,0,0
1,note_on,55,0,0
1,note_on,62,32,40
1,note_on,59,32,0
1,note_on,55,25,0
1,note_on,67,30,0
1,note_on,67,0,120
1,note_on,62,0,0
1,note_on,59,0,0
1,note_on,55,0,0
1,note_on,62,33,40
1,note_on,59,33,0
1,note_on,55,33,0
1,note_on,67,39,0
1,note_on,67,0,120
1,note_on,62,0,0
1,note_on,59,0,0
1,note_on,55,0,0
1,note_on,62,25,40
1,note_on,59,25,0
1,note_on,55,25,0
1,note_on,67,30,0
1,note_on,67,0,120
1,note_on,62,0,0
1,note_on,59,0,0
1,note_on,55,0,0
1,note_on,62,25,40
1,note_on,59,25,0
1,note_on,55,25,0
1,note_on,67,30,0
1,note_on,67,0,120
1,note_on,62,0,0
1,note_on,59,0,0
1,note_on,55,0,0
1,note_on,63,39,40
1,note_on,60,39,0
1,note_on,67,39,0
1,note_on,55,39,0
1,note_on,55,0,120
1,note_on,63,0,0
1,note_on,60,0,0
1,note_on,67,0,0
1,note_on,55,22,40
1,note_on,67,27,0
1,note_on,67,0,120
1,note_on,55,0,0
1,note_on,55,22,40
1,note_on,67,27,0
1,note_on,67,0,120
1,note_on,55,0,0
1,note_on,55,28,40
1,note_on,67,34,0
1,note_on,67,0,120
1,note_on,55,0,0
1,note_on,55,29,40
1,note_on,67,35,0
1,note_on,67,0,120
1,note_on,55,0,0
1,note_on,55,30,40
1,note_on,67,36,0
1,note_on,67,0,120
1,note_on,55,0,0
1,note_on,55,40,40
1,note_on,67,48,0
1,note_on,67,0,120
1,note_on,55,0,0
1,note_on,55,32,40
1,note_on,67,36,0
1,note_on,67,0,120
1,note_on,55,0,0
1,note_on,55,34,40
1,note_on,67,41,0
1,note_on,67,0,120
1,note_on,55,0,0
1,note_on,55,47,40
1,note_on,67,56,0
1,note_on,67,0,120
1,note_on,55,0,0
1,note_on,55,36,40
1,note_on,67,43,0
1,note_on,67,0,120
1,note_on,55,0,0
1,note_on,55,37,40
1,note_on,67,44,0
1,note_on,67,0,120
1,note_on,55,0,0
1,note_on,67,59,40
1,note_on,55,59,0
1,note_on,55,0,120
1,note_on,67,0,0
1,note_on,55,33,40
1,note_on,67,41,0
1,note_on,67,0,120
1,note_on,55,0,0
1,note_on,55,33,40
1,note_on,67,41,0
1,note_on,67,0,120
1,note_on,55,0,0
1,note_on,55,37,40
1,note_on,67,46,0
1,note_on,67,0,120
1,note_on,55,0,0
1,note_on,55,37,40
1,note_on,67,46,0
1,note_on,67,0,120
1,note_on,55,0,0
1,note_on,55,37,40
1,note_on,67,46,0
1,note_on,67,0,120
1,note_on,55,0,0
1,note_on,55,49,40
1,note_on,67,58,0
1,note_on,67,0,120
1,note_on,55,0,0
1,note_on,55,36,40
1,note_on,67,42,0
1,note_on,67,0,120
1,note_on,55,0,0
1,note_on,55,37,40
1,note_on,67,46,0
1,note_on,67,0,120
1,note_on,55,0,0
1,note_on,56,55,40
1,note_on,68,65,0
1,note_on,68,0,120
1,note_on,56,0,0
1,note_on,56,42,40
1,note_on,68,52,0
1,note_on,68,0,120
1,note_on,56,0,0
1,note_on,56,44,40
1,note_on,68,55,0
1,note_on,68,0,120
1,note_on,56,0,0
1,note_on,67,70,40
1,note_on,55,70,0
1,note_on,55,0,120
1,note_on,67,0,0
1,note_on,55,40,40
1,note_on,67,50,0
1,note_on,67,0,120
1,note_on,55,0,0
1,note_on,55,40,40
1,note_on,67,50,0
1,note_on,67,0,120
1,note_on,55,0,0
1,note_on,55,46,40
1,note_on,67,55,0
1,note_on,67,0,120
1,note_on,55,0,0
1,note_on,55,44,40
1,note_on,67,55,0
1,note_on,67,0,120
1,note_on,55,0,0
1,note_on,55,44,40
1,note_on,67,54,0
1,note_on,67,0,120
1,note_on,55,0,0
1,note_on,55,57,40
1,note_on,67,69,0
1,note_on,67,0,120
1,note_on,55,0,0
1,note_on,55,42,40
1,note_on,67,49,0
1,note_on,67,0,120
1,note_on,55,0,0
1,note_on,55,42,40
1,note_on,67,52,0
1,note_on,67,0,120
1,note_on,55,0,0
1,note_on,55,57,40
1,note_on,67,67,0
1,note_on,67,0,120
1,note_on,55,0,0
1,note_on,55,42,40
1,note_on,67,51,0
1,note_on,67,0,120
1,note_on,55,0,0
1,note_on,53,41,40
1,note_on,65,50,0
1,note_on,65,0,120
1,note_on,53,0,0
1,note_on,64,59,40
1,note_on,60,59,0
1,note_on,67,59,0
1,note_on,55,59,0
1,note_on,55,0,120
1,note_on,64,0,0
1,note_on,60,0,0
1,note_on,67,0,0
1,note_on,64,33,40
1,note_on,60,33,0
1,note_on,55,33,0
1,note_on,67,41,0
1,note_on,67,0,120
1,note_on,64,0,0
1,note_on,60,0,0
1,note_on,55,0,0
1,note_on,64,33,40
1,note_on,60,33,0
1,note_on,55,33,0
1,note_on,67,41,0
1,note_on,67,0,120
1,note_on,64,0,0
1,note_on,60,0,0
1,note_on,55,0,0
1,note_on,64,33,40
1,note_on,60,33,0
1,note_on,55,37,0
1,note_on,67,46,0
1,note_on,67,0,120
1,note_on,64,0,0
1,note_on,60,0,0
1,note_on,55,0,0
1,note_on,64,33,40
1,note_on,60,33,0
1,note_on,55,37,0
1,note_on,67,46,0
1,note_on,67,0,120
1,note_on,64,0,0
1,note_on,60,0,0
1,note_on,55,0,0
1,note_on,64,33,40
1,note_on,60,33,0
1,note_on,55,37,0
1,note_on,67,46,0
1,note_on,67,0,120
1,note_on,64,0,0
1,note_on,60,0,0
1,note_on,55,0,0
1,note_on,62,49,40
1,note_on,59,49,0
1,note_on,55,49,0
1,note_on,67,58,0
1,note_on,67,0,120
1,note_on,62,0,0
1,note_on,59,0,0
1,note_on,55,0,0
1,note_on,62,49,40
1,note_on,59,49,0
1,note_on,55,36,0
1,note_on,67,42,0
1,note_on,67,0,120
1,note_on,62,0,0
1,note_on,59,0,0
1,note_on,55,0,0
1,note_on,62,49,40
1,note_on,59,49,0
1,note_on,55,37,0
1,note_on,67,46,0
1,note_on,67,0,120
1,note_on,62,0,0
1,note_on,59,0,0
1,note_on,55,0,0
1,note_on,62,50,40
1,note_on,59,50,0
1,note_on,55,50,0
1,note_on,67,59,0
1,note_on,67,0,120
1,note_on,62,0,0
1,note_on,59,0,0
1,note_on,55,0,0
1,note_on,62,37,40
1,note_on,59,37,0
1,note_on,55,37,0
1,note_on,67,46,0
1,note_on,67,0,120
1,note_on,62,0,0
1,note_on,59,0,0
1,note_on,55,0,0
1,note_on,62,37,40
1,note_on,59,37,0
1,note_on,55,37,0
1,note_on,67,46,0
1,note_on,67,0,120
1,note_on,62,0,0
1,note_on,59,0,0
1,note_on,55,0,0
1,note_on,55,40,40
1,note_on,60,40,0
1,note_on,64,40,0
1,note_on,67,48,0
1,note_on,67,0,960
1,note_on,55,0,0
1,note_on,60,0,0
1,note_on,64,0,0
1,note_on,62,37,480
1,note_on,67,37,0
1,note_on,71,44,0
1,note_on,71,0,360
1,note_on,67,0,0
1,note_on,62,0,0
1,note_on,64,32,0
1,note_on,67,32,0
1,note_on,72,38,0
1,note_on,72,0,120
1,note_on,67,0,0
1,note_on,64,0,0
1,note_on,65,35,0
1,note_on,67,35,0
1,note_on,74,51,0
1,note_on,74,0,338
1,note_on,67,0,22
1,note_on,65,0,0
1,note_on,67,35,120
1,note_on,65,35,0
1,note_on,74,42,0
1,note_on,74,0,338
1,note_on,65,0,22
1,note_on,67,0,0
1,note_on,65,35,120
1,note_on,67,35,0
1,note_on,74,42,0
1,note_on,74,0,338
1,note_on,67,0,22
1,note_on,65,0,0
1,note_on,64,39,120
1,note_on,67,39,0
1,note_on,72,46,0
1,note_on,72,0,360
1,note_on,67,0,0
1,note_on,64,0,0
1,note_on,65,39,0
1,note_on,67,39,0
1,note_on,74,47,0
1,note_on,74,0,120
1,note_on,67,0,0
1,note_on,65,0,0
1,note_on,67,45,0
1,note_on,76,53,0
1,note_on,76,0,720
1,note_on,67,0,0
1,note_on,65,37,0
1,note_on,67,37,0
1,note_on,74,44,0
1,note_on,74,0,240
1,note_on,67,0,0
1,note_on,65,0,0
1,note_on,64,33,0
1,note_on,67,33,0
1,note_on,72,39,0
1,note_on,72,0,480
1,note_on,67,0,0
1,note_on,64,0,0
1,note_on,65,41,0
1,note_on,67,41,0
1,note_on,74,49,0
1,note_on,74,0,360
1,note_on,67,0,0
1,note_on,65,0,0
1,note_on,64,35,0
1,note_on,67,35,0
1,note_on,72,42,0
1,note_on,72,0,120
1,note_on,67,0,0
1,note_on,64,0,0
1,note_on,62,39,0
1,note_on,67,39,0
1,note_on,71,46,0
1,note_on,71,0,480
1,note_on,67,0,0
1,note_on,62,0,0
1,note_on,60,37,0
1,note_on,67,37,0
1,note_on,69,44,0
1,note_on,69,0,360
1,note_on,67,0,0
1,note_on,60,0,0
1,note_on,62,30,0
1,note_on,67,30,0
1,note_on,71,36,0
1,note_on,71,0,120
1,note_on,67,0,0
1,note_on,62,0,0
1,note_on,64,40,0
1,note_on,67,40,0
1,note_on,72,48,0
1,note_on,72,0,480
1,note_on,67,0,0
1,note_on,64,0,0
1,note_on,67,36,0
1,note_on,71,36,0
1,note_on,74,43,0
1,note_on,74,0,360
1,note_on,71,0,0
1,note_on,67,0,0
1,note_on,67,37,0
1,note_on,72,37,0
1,note_on,76,44,0
1,note_on,76,0,120
1,note_on,72,0,0
1,note_on,67,0,0
1,note_on,71,43,0
1,note_on,67,43,0
1,note_on,74,51,0
1,note_on,74,0,1440
1,note_on,67,0,0
1,note_on,71,0,0
1,note_on,59,52,0
1,note_on,67,52,0
1,note_on,71,62,0
1,note_on,71,0,360
1,note_on,67,0,0
1,note_on,59,0,0
1,note_on,60,50,0
1,note_on,69,50,0
1,note_on,72,60,0
1,note_on,72,0,120
1,note_on,69,0,0
1,note_on,60,0,0
1,note_on,62,61,0
1,note_on,71,61,0
1,note_on,74,73,0
1,note_on,74,0,480
1,note_on,71,0,0
1,note_on,62,0,0
1,note_on,62,50,0
1,note_on,71,50,0
1,note_on,74,60,0
1,note_on,74,0,480
1,note_on,71,0,0
1,note_on,62,0,0
1,note_on,62,50,0
1,note_on,71,50,0
1,note_on,74,60,0
1,note_on,74,0,480
1,note_on,71,0,0
1,note_on,62,0,0
1,note_on,64,49,0
1,note_on,72,51,0
1,note_on,76,61,0
1,note_on,76,0,360
1,note_on,72,0,0
1,note_on,64,0,0
1,note_on,65,46,0
1,note_on,74,46,0
1,note_on,77,67,0
1,note_on,77,0,120
1,note_on,74,0,0
1,note_on,65,0,0
1,note_on,76,54,0
1,note_on,67,54,0
1,note_on,79,75,0
1,note_on,79,0,480
1,note_on,67,0,0
1,note_on,76,0,0
1,note_on,74,58,0
1,note_on,71,58,0
1,note_on,77,69,0
1,note_on,77,0,480
1,note_on,71,0,0
1,note_on,74,0,0
1,note_on,72,54,0
1,note_on,76,76,0
1,note_on,76,0,480
1,note_on,72,0,0
1,note_on,69,58,0
1,note_on,77,69,0
1,note_on,77,0,360
1,note_on,69,0,0
1,note_on,65,51,0
1,note_on,69,51,0
1,note_on,74,60,0
1,note_on,74,0,120
1,note_on,69,0,0
1,note_on,65,0,0
1,note_on,62,55,0
1,note_on,65,55,0
1,note_on,71,66,0
1,note_on,71,0,480
1,note_on,65,0,0
1,note_on,62,0,0
1,note_on,65,55,0
1,note_on,71,66,0
1,note_on,62,55,0
1,note_on,62,0,480
1,note_on,71,0,0
1,note_on,65,0,0
1,note_on,71,66,0
1,note_on,65,55,0
1,note_on,62,55,0
1,note_on,62,0,480
1,note_on,65,0,0
1,note_on,71,0,0
1,note_on,76,75,0
1,note_on,67,64,0
1,note_on,67,0,360
1,note_on,76,0,0
1,note_on,65,52,0
1,note_on,67,52,0
1,note_on,74,62,0
1,note_on,74,0,120
1,note_on,67,0,0
1,note_on,65,0,0
1,note_on,67,61,0
1,note_on,64,61,0
1,note_on,72,73,0
1,note_on,72,0,960
1,note_on,64,0,0
1,note_on,67,0,0
1,note_on,83,52,480
1,note_on,83,0,360
1,note_on,84,45,0
1,note_on,84,0,120
1,note_on,86,61,0
1,note_on,86,0,480
1,note_on,77,35,0
1,note_on,80,35,0
1,note_on,83,35,0
1,note_on,86,50,0
1,note_on,86,0,480
1,note_on,77,0,0
1,note_on,80,0,0
1,note_on,83,0,0
1,note_on,78,35,0
1,note_on,81,35,0
1,note_on,84,35,0
1,note_on,86,50,0
1,note_on,86,0,480
1,note_on,78,0,0
1,note_on,81,0,0
1,note_on,84,0,0
1,note_on,78,35,0
1,note_on,81,35,0
1,note_on,84,55,0
1,note_on,84,0,360
1,note_on,86,56,0
1,note_on,86,0,120
1,note_on,81,0,0
1,note_on,78,0,0
1,note_on,78,35,0
1,note_on,81,35,0
1,note_on,87,63,0
1,note_on,87,0,720
1,note_on,86,52,0
1,note_on,86,0,240
1,note_on,84,46,0
1,note_on,84,0,480
1,note_on,81,0,0
1,note_on,78,0,0
1,note_on,74,35,0
1,note_on,81,35,0
1,note_on,86,58,0
1,note_on,86,0,360
1,note_on,84,50,0
1,note_on,84,0,120
1,note_on,81,0,0
1,note_on,74,0,0
1,note_on,74,35,0
1,note_on,79,35,0
1,note_on,83,55,0
1,note_on,83,0,480
1,note_on,79,0,0
1,note_on,74,0,0
1,note_on,74,35,0
1,note_on,79,35,0
1,note_on,81,52,0
1,note_on,81,0,360
1,note_on,83,52,0
1,note_on,83,0,120
1,note_on,79,0,0
1,note_on,74,0,0
1,note_on,72,35,0
1,note_on,79,35,0
1,note_on,84,57,0
1,note_on,84,0,480
1,note_on,79,0,0
1,note_on,72,0,0
1,note_on,79,35,0
1,note_on,83,39,0
1,note_on,86,51,0
1,note_on,86,0,360
1,note_on,83,0,0
1,note_on,84,40,0
1,note_on,87,52,0
1,note_on,87,0,120
1,note_on,84,0,0
1,note_on,79,0,0
1,note_on,79,39,0
1,note_on,83,39,0
1,note_on,86,51,0
1,note_on,86,0,1440
1,note_on,83,0,0
1,note_on,79,0,0
1,note_on,74,55,0
1,note_on,74,0,360
1,note_on,75,47,0
1,note_on,75,0,120
1,note_on,77,64,0
1,note_on,77,0,338
1,note_on,71,44,142
1,note_on,68,44,0
1,note_on,74,44,0
1,note_on,77,52,0
1,note_on,77,0,338
1,note_on,71,0,22
1,note_on,68,0,0
1,note_on,74,0,0
1,note_on,68,44,120
1,note_on,70,44,0
1,note_on,77,52,0
1,note_on,77,0,338
1,note_on,70,0,22
1,note_on,68,0,0
1,note_on,70,39,120
1,note_on,68,39,0
1,note_on,75,47,0
1,note_on,75,0,60
1,note_on,77,47,0
1,note_on,77,0,60
1,note_on,75,70,0
1,note_on,75,0,240
1,note_on,74,58,0
1,note_on,74,0,120
1,note_on,68,0,0
1,note_on,70,0,0
1,note_on,70,56,0
1,note_on,67,56,0
1,note_on,79,66,0
1,note_on,67,0,480
1,note_on,70,0,0
1,note_on,74,44,0
1,note_on,68,36,0
1,note_on,79,0,240
1,note_on,77,55,0
1,note_on,77,0,240
1,note_on,68,0,0
1,note_on,74,0,0
1,note_on,67,56,0
1,note_on,75,48,0
1,note_on,75,0,480
1,note_on,67,0,0
1,note_on,65,53,0
1,note_on,68,46,0
1,note_on,74,63,0
1,note_on,74,0,360
1,note_on,65,0,0
1,note_on,63,46,0
1,note_on,72,54,0
1,note_on,72,0,120
1,note_on,63,0,0
1,note_on,68,0,0
1,note_on,62,50,0
1,note_on,67,50,0
1,note_on,71,59,0
1,note_on,71,0,480
1,note_on,67,0,0
1,note_on,62,0,0
1,note_on,62,49,0
1,note_on,67,47,0
1,note_on,69,61,0
1,note_on,69,0,360
1,note_on,71,50,0
1,note_on,71,0,120
1,note_on,67,0,0
1,note_on,62,0,0
1,note_on,60,63,0
1,note_on,67,63,0
1,note_on,72,63,0
1,note_on,72,0,480
1,note_on,67,0,0
1,note_on,60,0,0
1,note_on,67,53,0
1,note_on,77,63,0
1,note_on,77,0,360
1,note_on,72,46,0
1,note_on,75,55,0
1,note_on,75,0,120
1,note_on,72,0,0
1,note_on,67,0,0
1,note_on,71,43,0
1,note_on,67,43,0
1,note_on,74,51,0
1,note_on,74,0,1440
1,note_on,67,0,0
1,note_on,71,0,0
1,note_on,59,57,0
1,note_on,67,57,0
1,note_on,71,68,0
1,note_on,71,0,360
1,note_on,67,0,0
1,note_on,59,0,0
1,note_on,60,55,0
1,note_on,69,55,0
1,note_on,72,66,0
1,note_on,72,0,120
1,note_on,69,0,0
1,note_on,60,0,0
1,note_on,62,67,0
1,note_on,71,67,0
1,note_on,74,80,0
1,note_on,74,0,480
1,note_on,71,0,0
1,note_on,62,0,0
1,note_on,62,55,0
1,note_on,71,55,0
1,note_on,74,66,0
1,note_on,74,0,480
1,note_on,71,0,0
1,note_on,62,0,0
1,note_on,62,56,0
1,note_on,71,56,0
1,note_on,74,67,0
1,note_on,74,0,480
1,note_on,71,0,0
1,note_on,62,0,0
1,note_on,64,53,0
1,note_on,72,53,0
1,note_on,76,63,0
1,note_on,76,0,360
1,note_on,72,0,0
1,note_on,64,0,0
1,note_on,65,54,0
1,note_on,74,54,0
1,note_on,77,79,0
1,note_on,77,0,120
1,note_on,74,0,0
1,note_on,65,0,0
1,note_on,76,67,0
1,note_on,67,67,0
1,note_on,79,93,0
1,note_on,79,0,720
1,note_on,67,0,0
1,note_on,76,0,0
1,note_on,74,62,0
1,note_on,65,62,0
1,note_on,77,74,0
1,note_on,77,0,240
1,note_on,65,0,0
1,note_on,74,0,0
1,note_on,64,55,0
1,note_on,73,55,0
1,note_on,76,77,0
1,note_on,76,0,480
1,note_on,73,0,0
1,note_on,64,0,0
1,note_on,55,51,480
1,note_on,61,51,0
1,note_on,64,60,0
1,note_on,64,0,720
1,note_on,65,54,0
1,note_on,65,0,240
1,note_on,64,50,0
1,note_on,64,0,480
1,note_on,61,0,0
1,note_on,55,0,0
1,note_on,74,67,480
1,note_on,65,67,0
1,note_on,77,93,0
1,note_on,77,0,720
1,note_on,65,0,0
1,note_on,74,0,0
1,note_on,72,62,0
1,note_on,63,62,0
1,note_on,75,74,0
1,note_on,75,0,240
1,note_on,63,0,0
1,note_on,72,0,0
1,note_on,62,55,0
1,note_on,71,55,0
1,note_on,74,77,0
1,note_on,74,0,480
1,note_on,71,0,0
1,note_on,62,0,0
1,note_on,53,51,480
1,note_on,59,51,0
1,note_on,62,60,0
1,note_on,62,0,720
1,note_on,63,54,0
1,note_on,63,0,240
1,note_on,62,50,0
1,note_on,62,0,480
1,note_on,59,0,0
1,note_on,53,0,0
1,note_on,69,43,480
1,note_on,75,60,0
1,note_on,75,0,960
1,note_on,74,53,0
1,note_on,74,0,480
1,note_on,72,50,0
1,note_on,72,0,480
1,note_on,69,0,0
1,note_on,67,51,0
1,note_on,67,0,960
1,note_on,72,51,0
1,note_on,65,36,0
1,note_on,72,0,240
1,note_on,71,46,0
1,note_on,71,0,240
1,note_on,69,49,0
1,note_on,69,0,240
1,note_on,71,41,0
1,note_on,71,0,240
1,note_on,65,0,0
1,note_on,64,34,0
1,note_on,72,48,0
1,note_on,64,0,2880
1,note_on,72,0,480
1,note_on,71,37,0
1,note_on,71,0,360
1,note_on,72,32,0
1,note_on,72,0,120
1,note_on,74,43,0
1,note_on,74,0,338
1,note_on,74,35,142
1,note_on,74,0,338
1,note_on,74,35,142
1,note_on,74,0,338
1,note_on,72,39,142
1,note_on,72,0,240
1,note_on,71,39,0
1,note_on,71,0,240
1,note_on,75,45,0
1,note_on,75,0,720
1,note_on,74,37,0
1,note_on,74,0,240
1,note_on,72,33,0
1,note_on,72,0,240
1,note_on,67,33,0
1,note_on,67,0,240
1,note_on,72,35,0
1,note_on,72,0,240
1,note_on,74,40,0
1,note_on,74,0,240
1,note_on,75,45,0
1,note_on,75,0,480
1,note_on,74,45,0
1,note_on,74,0,240
1,note_on,72,42,0
1,note_on,72,0,240
1,note_on,67,46,0
1,note_on,67,0,360
1,note_on,71,38,120
1,note_on,65,32,0
1,note_on,65,0,360
1,note_on,71,0,0
1,note_on,64,36,120
1,note_on,72,43,0
1,note_on,72,0,1440
1,note_on,64,0,0
1,note_on,67,29,960
1,note_on,79,37,0
1,note_on,79,0,960
1,note_on,67,0,0
1,note_on,67,29,960
1,note_on,79,36,0
1,note_on,79,0,960
1,note_on,67,0,0
1,note_on,75,35,0
1,note_on,75,0,240
1,note_on,77,40,0
1,note_on,77,0,240
1,note_on,79,45,0
1,note_on,79,0,240
1,note_on,75,40,0
1,note_on,75,0,240
1,note_on,71,45,0
1,note_on,71,0,240
1,note_on,72,42,0
1,note_on,72,0,240
1,note_on,67,46,0
1,note_on,67,0,360
1,note_on,71,38,120
1,note_on,65,32,0
1,note_on,65,0,360
1,note_on,71,0,0
1,note_on,64,36,120
1,note_on,72,43,0
1,note_on,72,0,960
1,note_on,64,0,0
1,note_on,67,46,0
1,note_on,67,0,360
1,note_on,71,38,120
1,note_on,65,32,0
1,note_on,65,0,360
1,note_on,71,0,0
1,note_on,64,36,120
1,note_on,72,43,0
1,note_on,72,0,960
1,note_on,64,0,0
1,note_on,55,48,0
1,note_on,55,0,480
1,note_on,59,41,0
1,note_on,53,34,0
1,note_on,53,0,480
1,note_on,59,0,0
1,note_on,52,40,0
1,note_on,60,48,0
1,note_on,60,0,960
1,note_on,52,0,0
1,note_on,55,38,0
1,note_on,52,38,0
1,note_on,60,46,0
1,note_on,60,0,960
1,note_on,52,0,0
1,note_on,55,0,0
1,note_on,55,38,0
1,note_on,52,38,0
1,note_on,60,46,0
1,note_on,60,0,1920
1,note_on,52,0,0
1,note_on,55,0,0
2,note_on,43,70,0
2,note_on,31,60,0
2,note_on,31,0,1410
2,note_on,43,0,0
2,note_on,55,35,7710
2,note_on,55,0,240
2,note_on,55,33,120
2,note_on,55,0,60
2,note_on,55,40,60
2,note_on,55,0,240
2,note_on,55,33,240
2,note_on,55,0,240
2,note_on,55,33,240
2,note_on,55,0,240
2,note_on,55,46,240
2,note_on,55,0,240
2,note_on,55,47,120
2,note_on,55,0,60
2,note_on,55,53,60
2,note_on,55,0,120
2,note_on,57,53,360
2,note_on,57,0,120
2,note_on,59,43,240
2,note_on,59,0,60
2,note_on,60,49,60
2,note_on,60,0,240
2,note_on,53,45,240
2,note_on,53,0,240
2,note_on,53,36,120
2,note_on,53,0,60
2,note_on,55,44,60
2,note_on,55,0,840
2,note_on,55,36,0
2,note_on,53,30,0
2,note_on,53,0,60
2,note_on,55,0,0
2,note_on,51,40,60
2,note_on,55,48,0
2,note_on,55,0,240
2,note_on,51,0,0
2,note_on,43,45,240
2,note_on,55,53,0
2,note_on,55,0,240
2,note_on,43,0,0
2,note_on,55,44,120
2,note_on,43,37,0
2,note_on,43,0,60
2,note_on,55,0,0
2,note_on,48,46,60
2,note_on,55,55,0
2,note_on,55,0,1440
2,note_on,48,0,0
2,note_on,58,35,7680
2,note_on,58,0,240
2,note_on,58,33,120
2,note_on,58,0,60
2,note_on,58,40,60
2,note_on,58,0,240
2,note_on,58,33,240
2,note_on,58,0,240
2,note_on,58,33,240
2,note_on,58,0,240
2,note_on,58,46,240
2,note_on,58,0,240
2,note_on,58,47,120
2,note_on,58,0,60
2,note_on,58,53,60
2,note_on,58,0,120
2,note_on,60,53,360
2,note_on,60,0,120
2,note_on,62,43,240
2,note_on,62,0,60
2,note_on,63,49,60
2,note_on,63,0,240
2,note_on,53,45,240
2,note_on,53,0,240
2,note_on,53,36,120
2,note_on,53,0,60
2,note_on,55,44,60
2,note_on,55,0,840
2,note_on,53,30,0
2,note_on,55,36,0
2,note_on,55,0,60
2,note_on,53,0,0
2,note_on,51,40,60
2,note_on,55,48,0
2,note_on,55,0,240
2,note_on,51,0,0
2,note_on,55,53,240
2,note_on,43,45,0
2,note_on,43,0,240
2,note_on,55,0,0
2,note_on,55,44,120
2,note_on,43,37,0
2,note_on,43,0,60
2,note_on,55,0,0
2,note_on,48,46,60
2,note_on,55,55,0
2,note_on,55,0,1440
2,note_on,48,0,0
2,note_on,65,36,960
2,note_on,65,0,360
2,note_on,66,36,120
2,note_on,66,0,360
2,note_on,66,36,120
2,note_on,62,30,0
2,note_on,62,0,480
2,note_on,66,0,0
2,note_on,66,39,0
2,note_on,60,46,0
2,note_on,60,0,720
2,note_on,62,46,0
2,note_on,62,0,240
2,note_on,63,46,0
2,note_on,63,0,480
2,note_on,66,0,0
2,note_on,54,31,0
2,note_on,62,37,0
2,note_on,62,0,480
2,note_on,54,0,0
2,note_on,55,35,0
2,note_on,62,42,0
2,note_on,62,0,480
2,note_on,55,0,0
2,note_on,53,35,0
2,note_on,62,43,0
2,note_on,55,35,0
2,note_on,55,0,360
2,note_on,62,0,0
2,note_on,53,0,0
2,note_on,55,29,0
2,note_on,53,29,0
2,note_on,62,35,0
2,note_on,62,0,120
2,note_on,53,0,0
2,note_on,55,0,0
2,note_on,55,39,0
2,note_on,51,39,0
2,note_on,60,47,0
2,note_on,60,0,480
2,note_on,51,0,0
2,note_on,55,0,0
2,note_on,59,48,0
2,note_on,55,40,0
2,note_on,50,40,0
2,note_on,50,0,360
2,note_on,55,0,0
2,note_on,59,0,0
2,note_on,48,41,0
2,note_on,60,49,0
2,note_on,55,41,0
2,note_on,55,0,120
2,note_on,60,0,0
2,note_on,48,0,0
2,note_on,59,57,0
2,note_on,55,48,0
2,note_on,55,0,1440
2,note_on,59,0,0
2,note_on,55,61,0
2,note_on,43,51,0
2,note_on,43,0,240
2,note_on,55,0,0
2,note_on,55,57,120
2,note_on,43,48,0
2,note_on,43,0,60
2,note_on,55,0,0
2,note_on,55,70,60
2,note_on,43,59,0
2,note_on,43,0,240
2,note_on,55,0,0
2,note_on,55,64,240
2,note_on,43,55,0
2,note_on,43,0,240
2,note_on,55,0,0
2,note_on,55,66,240
2,note_on,43,56,0
2,note_on,43,0,240
2,note_on,55,0,0
2,note_on,55,80,240
2,note_on,43,68,0
2,note_on,43,0,240
2,note_on,55,0,0
2,note_on,43,56,120
2,note_on,55,66,0
2,note_on,55,0,60
2,note_on,43,0,0
2,note_on,55,73,60
2,note_on,43,61,0
2,note_on,43,0,120
2,note_on,55,0,0
2,note_on,57,84,360
2,note_on,45,70,0
2,note_on,45,0,120
2,note_on,57,0,0
2,note_on,47,56,240
2,note_on,59,68,0
2,note_on,59,0,120
2,note_on,47,0,0
2,note_on,48,64,0
2,note_on,60,78,0
2,note_on,60,0,240
2,note_on,48,0,0
2,note_on,53,62,240
2,note_on,41,52,0
2,note_on,41,0,240
2,note_on,53,0,0
2,note_on,53,49,120
2,note_on,41,41,0
2,note_on,41,0,60
2,note_on,53,0,0
2,note_on,43,51,60
2,note_on,55,61,0
2,note_on,55,0,240
2,note_on,43,0,0
2,note_on,55,61,240
2,note_on,55,0,240
2,note_on,55,49,120
2,note_on,53,41,0
2,note_on,53,0,60
2,note_on,55,0,0
2,note_on,51,56,60
2,note_on,55,66,0
2,note_on,55,0,240
2,note_on,51,0,0
2,note_on,31,61,240
2,note_on,43,73,0
2,note_on,43,0,240
2,note_on,31,0,0
2,note_on,43,61,120
2,note_on,31,51,0
2,note_on,31,0,60
2,note_on,43,0,0
2,note_on,43,77,60
2,note_on,36,64,0
2,note_on,36,0,1440
2,note_on,43,0,0
2,note_on,65,41,960
2,note_on,65,0,360
2,note_on,62,34,120
2,note_on,65,41,0
2,note_on,65,0,360
2,note_on,62,0,0
2,note_on,58,34,120
2,note_on,65,41,0
2,note_on,65,0,480
2,note_on,58,0,0
2,note_on,63,52,0
2,note_on,63,0,480
2,note_on,59,30,0
2,note_on,65,36,0
2,note_on,62,30,0
2,note_on,62,0,480
2,note_on,65,0,0
2,note_on,59,0,0
2,note_on,60,44,0
2,note_on,63,52,0
2,note_on,63,0,480
2,note_on,60,0,0
2,note_on,53,43,0
2,note_on,53,0,480
2,note_on,55,48,0
2,note_on,55,0,480
2,note_on,55,49,0
2,note_on,55,0,360
2,note_on,53,34,0
2,note_on,55,40,0
2,note_on,55,0,120
2,note_on,53,0,0
2,note_on,51,45,0
2,note_on,55,53,0
2,note_on,55,0,480
2,note_on,51,0,0
2,note_on,50,46,0
2,note_on,55,46,0
2,note_on,59,55,0
2,note_on,59,0,360
2,note_on,55,0,0
2,note_on,50,0,0
2,note_on,60,56,0
2,note_on,55,47,0
2,note_on,48,47,0
2,note_on,48,0,120
2,note_on,55,0,0
2,note_on,60,0,0
2,note_on,55,55,0
2,note_on,59,64,0
2,note_on,59,0,1440
2,note_on,55,0,0
2,note_on,34,56,0
2,note_on,46,66,0
2,note_on,46,0,240
2,note_on,34,0,0
2,note_on,46,60,120
2,note_on,34,52,0
2,note_on,34,0,60
2,note_on,46,0,0
2,note_on,46,76,60
2,note_on,34,64,0
2,note_on,34,0,240
2,note_on,46,0,0
2,note_on,34,57,240
2,note_on,46,69,0
2,note_on,46,0,240
2,note_on,34,0,0
2,note_on,46,71,240
2,note_on,34,59,0
2,note_on,34,0,240
2,note_on,46,0,0
2,note_on,46,86,240
2,note_on,34,73,0
2,note_on,34,0,240
2,note_on,46,0,0
2,note_on,34,59,120
2,note_on,46,71,0
2,note_on,46,0,60
2,note_on,34,0,0
2,note_on,34,67,60
2,note_on,46,79,0
2,note_on,46,0,120
2,note_on,34,0,0
2,note_on,36,76,360
2,note_on,48,91,0
2,note_on,48,0,120
2,note_on,36,0,0
2,note_on,38,60,240
2,note_on,50,74,0
2,note_on,50,0,120
2,note_on,38,0,0
2,note_on,39,71,0
2,note_on,51,84,0
2,note_on,51,0,240
2,note_on,39,0,0
2,note_on,41,57,240
2,note_on,53,67,0
2,note_on,53,0,240
2,note_on,41,0,0
2,note_on,41,44,120
2,note_on,53,53,0
2,note_on,53,0,60
2,note_on,41,0,0
2,note_on,55,66,60
2,note_on,43,56,0
2,note_on,43,0,240
2,note_on,55,0,0
2,note_on,55,66,240
2,note_on,55,0,240
2,note_on,55,53,120
2,note_on,53,44,0
2,note_on,53,0,60
2,note_on,55,0,0
2,note_on,51,59,60
2,note_on,55,71,0
2,note_on,55,0,240
2,note_on,51,0,0
2,note_on,43,79,240
2,note_on,31,67,0
2,note_on,31,0,240
2,note_on,43,0,0
2,note_on,43,66,120
2,note_on,31,56,0
2,note_on,31,0,60
2,note_on,43,0,0
2,note_on,43,83,60
2,note_on,36,70,0
2,note_on,36,0,1440
2,note_on,43,0,0
2,note_on,44,61,480
2,note_on,51,61,0
2,note_on,56,72,0
2,note_on,56,0,1440
2,note_on,51,0,0
2,note_on,44,0,0
2,note_on,48,61,480
2,note_on,39,61,0
2,note_on,51,72,0
2,note_on,51,0,1440
2,note_on,39,0,0
2,note_on,48,0,0
2,note_on,48,48,0
2,note_on,60,57,0
2,note_on,60,0,480
2,note_on,48,0,0
2,note_on,53,56,0
2,note_on,41,47,0
2,note_on,41,0,480
2,note_on,53,0,0
2,note_on,43,47,0
2,note_on,55,56,0
2,note_on,55,0,240
2,note_on,43,0,0
2,note_on,44,38,120
2,note_on,56,45,0
2,note_on,56,0,60
2,note_on,44,0,0
2,note_on,55,60,60
2,note_on,43,51,0
2,note_on,43,0,480
2,note_on,55,0,0
2,note_on,43,56,0
2,note_on,31,47,0
2,note_on,31,0,480
2,note_on,43,0,0
2,note_on,48,59,0
2,note_on,43,50,0
2,note_on,36,50,0
2,note_on,36,0,1440
2,note_on,43,0,0
2,note_on,48,0,0
2,note_on,44,47,480
2,note_on,51,47,0
2,note_on,56,56,0
2,note_on,56,0,1440
2,note_on,51,0,0
2,note_on,44,0,0
2,note_on,39,50,480
2,note_on,48,50,0
2,note_on,51,59,0
2,note_on,51,0,1440
2,note_on,48,0,0
2,note_on,39,0,0
2,note_on,49,39,480
2,note_on,49,0,480
2,note_on,51,39,0
2,note_on,51,0,240
2,note_on,53,31,120
2,note_on,53,0,60
2,note_on,51,42,60
2,note_on,51,0,240
2,note_on,51,35,240
2,note_on,39,28,0
2,note_on,39,0,240
2,note_on,51,0,0
2,note_on,44,40,240
2,note_on,44,0,160
2,note_on,48,33,0
2,note_on,48,0,160
2,note_on,51,33,0
2,note_on,51,0,160
2,note_on,48,40,0
2,note_on,48,0,160
2,note_on,51,29,0
2,note_on,51,0,160
2,note_on,56,30,0
2,note_on,56,0,160
2,note_on,47,40,0
2,note_on,47,0,160
2,note_on,50,33,0
2,note_on,50,0,160
2,note_on,56,33,0
2,note_on,56,0,160
2,note_on,48,40,0
2,note_on,48,0,160
2,note_on,51,35,0
2,note_on,51,0,160
2,note_on,56,35,0
2,note_on,56,0,160
2,note_on,44,40,0
2,note_on,44,0,160
2,note_on,48,33,0
2,note_on,48,0,160
2,note_on,56,33,0
2,note_on,56,0,160
2,note_on,48,40,0
2,note_on,48,0,160
2,note_on,51,29,0
2,note_on,51,0,160
2,note_on,56,30,0
2,note_on,56,0,160
2,note_on,47,40,0
2,note_on,47,0,160
2,note_on,50,33,0
2,note_on,50,0,160
2,note_on,56,33,0
2,note_on,56,0,160
2,note_on,48,40,0
2,note_on,48,0,160
2,note_on,51,35,0
2,note_on,51,0,160
2,note_on,56,35,0
2,note_on,56,0,160
2,note_on,49,40,0
2,note_on,49,0,160
2,note_on,53,33,0
2,note_on,53,0,160
2,note_on,56,33,0
2,note_on,56,0,160
2,note_on,49,40,0
2,note_on,49,0,160
2,note_on,55,29,0
2,note_on,55,0,160
2,note_on,58,30,0
2,note_on,58,0,160
2,note_on,48,40,0
2,note_on,48,0,160
2,note_on,56,33,0
2,note_on,56,0,160
2,note_on,60,33,0
2,note_on,60,0,160
2,note_on,48,40,0
2,note_on,48,0,160
2,note_on,51,35,0
2,note_on,51,0,160
2,note_on,56,35,0
2,note_on,56,0,160
2,note_on,46,40,0
2,note_on,46,0,160
2,note_on,51,33,0
2,note_on,51,0,160
2,note_on,56,33,0
2,note_on,56,0,160
2,note_on,46,40,0
2,note_on,46,0,160
2,note_on,51,29,0
2,note_on,51,0,160
2,note_on,55,30,0
2,note_on,55,0,160
2,note_on,44,35,0
2,note_on,44,0,160
2,note_on,51,28,0
2,note_on,51,0,160
2,note_on,58,28,0
2,note_on,58,0,160
2,note_on,44,35,0
2,note_on,44,0,160
2,note_on,51,27,0
2,note_on,51,0,160
2,note_on,56,35,0
2,note_on,56,0,160
2,note_on,49,30,0
2,note_on,49,0,160
2,note_on,56,24,0
2,note_on,56,0,160
2,note_on,58,24,0
2,note_on,58,0,160
2,note_on,53,32,0
2,note_on,53,0,160
2,note_on,56,23,0
2,note_on,56,0,160
2,note_on,61,24,0
2,note_on,61,0,160
2,note_on,51,30,0
2,note_on,51,0,160
2,note_on,56,23,0
2,note_on,56,0,160
2,note_on,60,23,0
2,note_on,60,0,160
2,note_on,51,29,0
2,note_on,51,0,160
2,note_on,55,23,0
2,note_on,55,0,160
2,note_on,58,23,0
2,note_on,58,0,160
2,note_on,44,33,0
2,note_on,44,0,160
2,note_on,48,23,0
2,note_on,48,0,160
2,note_on,56,23,0
2,note_on,56,0,160
2,note_on,48,31,0
2,note_on,48,0,160
2,note_on,51,25,0
2,note_on,51,0,160
2,note_on,56,26,0
2,note_on,56,0,160
2,note_on,47,40,0
2,note_on,47,0,160
2,note_on,50,31,0
2,note_on,50,0,160
2,note_on,56,31,0
2,note_on,56,0,160
2,note_on,48,40,0
2,note_on,48,0,160
2,note_on,51,35,0
2,note_on,51,0,160
2,note_on,56,35,0
2,note_on,56,0,160
2,note_on,44,40,0
2,note_on,44,0,160
2,note_on,48,33,0
2,note_on,48,0,160
2,note_on,56,33,0
2,note_on,56,0,160
2,note_on,48,40,0
2,note_on,48,0,160
2,note_on,51,29,0
2,note_on,51,0,160
2,note_on,56,30,0
2,note_on,56,0,160
2,note_on,47,40,0
2,note_on,47,0,160
2,note_on,50,33,0
2,note_on,50,0,160
2,note_on,56,33,0
2,note_on,56,0,160
2,note_on,48,40,0
2,note_on,48,0,160
2,note_on,51,35,0
2,note_on,51,0,160
2,note_on,56,35,0
2,note_on,56,0,160
2,note_on,49,40,0
2,note_on,49,0,160
2,note_on,52,33,0
2,note_on,52,0,160
2,note_on,56,33,0
2,note_on,56,0,160
2,note_on,49,40,0
2,note_on,49,0,160
2,note_on,52,29,0
2,note_on,52,0,160
2,note_on,58,30,0
2,note_on,58,0,160
2,note_on,47,40,0
2,note_on,47,0,160
2,note_on,54,33,0
2,note_on,54,0,160
2,note_on,59,33,0
2,note_on,59,0,160
2,note_on,47,40,0
2,note_on,47,0,160
2,note_on,54,35,0
2,note_on,54,0,160
2,note_on,59,35,0
2,note_on,59,0,160
2,note_on,52,40,0
2,note_on,52,0,160
2,note_on,56,33,0
2,note_on,56,0,160
2,note_on,61,33,0
2,note_on,61,0,160
2,note_on,52,40,0
2,note_on,52,0,160
2,note_on,54,29,0
2,note_on,54,0,160
2,note_on,58,30,0
2,note_on,58,0,160
2,note_on,51,35,0
2,note_on,51,0,160
2,note_on,54,28,0
2,note_on,54,0,160
2,note_on,59,28,0
2,note_on,59,0,160
2,note_on,51,35,0
2,note_on,51,0,160
2,note_on,55,27,0
2,note_on,55,0,160
2,note_on,61,35,0
2,note_on,61,0,160
2,note_on,52,30,0
2,note_on,52,0,160
2,note_on,56,24,0
2,note_on,56,0,160
2,note_on,59,24,0
2,note_on,59,0,160
2,note_on,56,32,0
2,note_on,56,0,160
2,note_on,59,23,0
2,note_on,59,0,160
2,note_on,64,24,0
2,note_on,64,0,160
2,note_on,54,30,0
2,note_on,54,0,160
2,note_on,59,23,0
2,note_on,59,0,160
2,note_on,63,23,0
2,note_on,63,0,160
2,note_on,54,29,0
2,note_on,54,0,160
2,note_on,58,23,0
2,note_on,58,0,160
2,note_on,61,23,0
2,note_on,61,0,160
2,note_on,47,33,0
2,note_on,47,0,160
2,note_on,51,23,0
2,note_on,51,0,160
2,note_on,59,23,0
2,note_on,59,0,160
2,note_on,51,31,0
2,note_on,51,0,160
2,note_on,54,25,0
2,note_on,54,0,160
2,note_on,59,27,0
2,note_on,59,0,160
2,note_on,50,42,0
2,note_on,50,0,160
2,note_on,53,32,0
2,note_on,53,0,160
2,note_on,59,32,0
2,note_on,59,0,160
2,note_on,51,42,0
2,note_on,51,0,160
2,note_on,54,37,0
2,note_on,54,0,160
2,note_on,59,38,0
2,note_on,59,0,160
2,note_on,47,44,0
2,note_on,47,0,160
2,note_on,51,36,0
2,note_on,51,0,160
2,note_on,54,37,0
2,note_on,54,0,160
2,note_on,47,47,0
2,note_on,47,0,160
2,note_on,51,34,0
2,note_on,51,0,160
2,note_on,54,36,0
2,note_on,54,0,160
2,note_on,46,51,0
2,note_on,46,0,160
2,note_on,49,48,0
2,note_on,49,0,160
2,note_on,51,49,0
2,note_on,51,0,160
2,note_on,44,62,0
2,note_on,44,0,160
2,note_on,49,55,0
2,note_on,49,0,160
2,note_on,51,56,0
2,note_on,51,0,160
2,note_on,43,72,0
2,note_on,43,0,160
2,note_on,49,58,0
2,note_on,49,0,160
2,note_on,51,62,0
2,note_on,51,0,160
2,note_on,43,69,0
2,note_on,43,0,160
2,note_on,46,48,0
2,note_on,46,0,160
2,note_on,51,55,0
2,note_on,51,0,160
2,note_on,44,62,0
2,note_on,44,0,160
2,note_on,47,49,0
2,note_on,47,0,160
2,note_on,51,48,0
2,note_on,51,0,160
2,note_on,49,44,0
2,note_on,49,0,160
2,note_on,52,38,0
2,note_on,52,0,160
2,note_on,58,38,0
2,note_on,58,0,160
2,note_on,51,33,0
2,note_on,51,0,160
2,note_on,58,27,0
2,note_on,58,0,160
2,note_on,61,27,0
2,note_on,61,0,160
2,note_on,51,34,0
2,note_on,51,0,160
2,note_on,58,25,0
2,note_on,58,0,160
2,note_on,61,26,0
2,note_on,61,0,160
2,note_on,51,36,0
2,note_on,51,0,160
2,note_on,58,29,0
2,note_on,58,0,160
2,note_on,61,29,0
2,note_on,61,0,160
2,note_on,51,35,0
2,note_on,51,0,160
2,note_on,58,28,0
2,note_on,58,0,160
2,note_on,61,28,0
2,note_on,61,0,160
2,note_on,56,33,0
2,note_on,56,0,160
2,note_on,60,23,0
2,note_on,60,0,160
2,note_on,63,23,0
2,note_on,63,0,160
2,note_on,60,31,0
2,note_on,60,0,160
2,note_on,63,25,0
2,note_on,63,0,160
2,note_on,68,27,0
2,note_on,68,0,160
2,note_on,59,38,0
2,note_on,59,0,160
2,note_on,62,32,0
2,note_on,62,0,160
2,note_on,68,32,0
2,note_on,68,0,160
2,note_on,60,42,0
2,note_on,60,0,160
2,note_on,63,37,0
2,note_on,63,0,160
2,note_on,68,38,0
2,note_on,68,0,160
2,note_on,56,44,0
2,note_on,56,0,160
2,note_on,60,36,0
2,note_on,60,0,160
2,note_on,68,37,0
2,note_on,68,0,160
2,note_on,60,47,0
2,note_on,60,0,160
2,note_on,63,34,0
2,note_on,63,0,160
2,note_on,68,36,0
2,note_on,68,0,160
2,note_on,59,50,0
2,note_on,59,0,160
2,note_on,62,42,0
2,note_on,62,0,160
2,note_on,68,43,0
2,note_on,68,0,160
2,note_on,60,55,0
2,note_on,60,0,160
2,note_on,63,47,0
2,note_on,63,0,160
2,note_on,68,45,0
2,note_on,68,0,160
2,note_on,61,61,0
2,note_on,61,0,160
2,note_on,65,46,0
2,note_on,65,0,160
2,note_on,68,51,0
2,note_on,68,0,160
2,note_on,61,61,0
2,note_on,61,0,160
2,note_on,63,49,0
2,note_on,63,0,160
2,note_on,70,49,0
2,note_on,70,0,160
2,note_on,60,57,0
2,note_on,60,0,160
2,note_on,63,45,0
2,note_on,63,0,160
2,note_on,68,44,0
2,note_on,68,0,160
2,note_on,60,44,0
2,note_on,60,0,160
2,note_on,63,38,0
2,note_on,63,0,160
2,note_on,68,38,0
2,note_on,68,0,160
2,note_on,58,44,0
2,note_on,58,0,160
2,note_on,63,36,0
2,note_on,63,0,160
2,note_on,70,37,0
2,note_on,70,0,160
2,note_on,58,47,0
2,note_on,58,0,160
2,note_on,63,34,0
2,note_on,63,0,160
2,note_on,67,36,0
2,note_on,67,0,160
2,note_on,56,45,0
2,note_on,56,0,160
2,note_on,63,36,0
2,note_on,63,0,160
2,note_on,68,36,0
2,note_on,68,0,160
2,note_on,56,46,0
2,note_on,56,0,160
2,note_on,63,37,0
2,note_on,63,0,160
2,note_on,68,36,0
2,note_on,68,0,160
2,note_on,61,30,0
2,note_on,61,0,160
2,note_on,68,24,0
2,note_on,68,0,160
2,note_on,70,24,0
2,note_on,70,0,160
2,note_on,65,32,0
2,note_on,65,0,160
2,note_on,68,23,0
2,note_on,68,0,160
2,note_on,73,24,0
2,note_on,73,0,160
2,note_on,63,30,0
2,note_on,63,0,160
2,note_on,68,23,0
2,note_on,68,0,160
2,note_on,72,23,0
2,note_on,72,0,160
2,note_on,63,29,0
2,note_on,63,0,160
2,note_on,67,23,0
2,note_on,67,0,160
2,note_on,70,23,0
2,note_on,70,0,160
2,note_on,60,25,0
2,note_on,56,25,0
2,note_on,68,30,0
2,note_on,68,0,240
2,note_on,56,0,0
2,note_on,60,0,0
2,note_on,56,58,1200
2,note_on,56,0,360
2,note_on,60,51,0
2,note_on,60,0,120
2,note_on,63,62,0
2,note_on,63,0,360
2,note_on,63,56,120
2,note_on,63,0,360
2,note_on,63,58,120
2,note_on,63,0,360
2,note_on,63,57,120
2,note_on,63,0,360
2,note_on,65,63,120
2,note_on,65,0,960
2,note_on,63,60,0
2,note_on,63,0,960
2,note_on,61,63,0
2,note_on,61,0,960
2,note_on,60,57,0
2,note_on,60,0,960
2,note_on,58,57,0
2,note_on,58,0,480
2,note_on,61,55,0
2,note_on,61,0,480
2,note_on,60,61,0
2,note_on,60,0,480
2,note_on,51,45,0
2,note_on,58,54,0
2,note_on,58,0,480
2,note_on,51,0,0
2,note_on,56,60,0
2,note_on,51,51,0
2,note_on,44,51,0
2,note_on,44,0,480
2,note_on,51,0,0
2,note_on,56,0,0
2,note_on,56,63,960
2,note_on,44,63,0
2,note_on,44,0,360
2,note_on,56,0,0
2,note_on,48,56,0
2,note_on,60,56,0
2,note_on,60,0,120
2,note_on,48,0,0
2,note_on,51,68,0
2,note_on,63,68,0
2,note_on,63,0,338
2,note_on,51,0,22
2,note_on,63,61,120
2,note_on,51,50,0
2,note_on,51,0,360
2,note_on,63,0,0
2,note_on,51,53,120
2,note_on,63,63,0
2,note_on,63,0,360
2,note_on,51,0,0
2,note_on,51,52,120
2,note_on,63,62,0
2,note_on,63,0,360
2,note_on,51,0,0
2,note_on,52,58,120
2,note_on,64,69,0
2,note_on,64,0,960
2,note_on,52,0,0
2,note_on,51,55,0
2,note_on,63,66,0
2,note_on,63,0,960
2,note_on,51,0,0
2,note_on,49,58,0
2,note_on,61,69,0
2,note_on,61,0,960
2,note_on,49,0,0
2,note_on,59,62,0
2,note_on,47,52,0
2,note_on,59,0,720
2,note_on,58,68,0
2,note_on,58,0,240
2,note_on,47,0,0
2,note_on,56,61,0
2,note_on,52,52,0
2,note_on,52,0,480
2,note_on,56,0,0
2,note_on,49,46,0
2,note_on,56,46,0
2,note_on,64,55,0
2,note_on,64,0,480
2,note_on,56,0,0
2,note_on,49,0,0
2,note_on,63,56,0
2,note_on,54,47,0
2,note_on,54,0,480
2,note_on,63,0,0
2,note_on,54,42,0
2,note_on,61,50,0
2,note_on,61,0,480
2,note_on,54,0,0
2,note_on,47,50,0
2,note_on,54,50,0
2,note_on,59,59,0
2,note_on,59,0,480
2,note_on,54,0,0
2,note_on,47,0,0
2,note_on,47,44,1440
2,note_on,47,0,160
2,note_on,51,36,0
2,note_on,51,0,160
2,note_on,54,37,0
2,note_on,54,0,160
2,note_on,47,47,0
2,note_on,47,0,160
2,note_on,51,34,0
2,note_on,51,0,160
2,note_on,54,36,0
2,note_on,54,0,160
2,note_on,46,51,0
2,note_on,46,0,160
2,note_on,49,48,0
2,note_on,49,0,160
2,note_on,51,49,0
2,note_on,51,0,160
2,note_on,44,62,0
2,note_on,44,0,160
2,note_on,49,55,0
2,note_on,49,0,160
2,note_on,51,56,0
2,note_on,51,0,160
2,note_on,43,72,0
2,note_on,43,0,160
2,note_on,49,58,0
2,note_on,49,0,160
2,note_on,51,62,0
2,note_on,51,0,160
2,note_on,43,69,0
2,note_on,43,0,160
2,note_on,46,48,0
2,note_on,46,0,160
2,note_on,51,55,0
2,note_on,51,0,160
2,note_on,44,62,0
2,note_on,44,0,160
2,note_on,47,49,0
2,note_on,47,0,160
2,note_on,51,48,0
2,note_on,51,0,160
2,note_on,49,44,0
2,note_on,49,0,160
2,note_on,52,38,0
2,note_on,52,0,160
2,note_on,58,38,0
2,note_on,58,0,160
2,note_on,51,33,0
2,note_on,51,0,160
2,note_on,58,27,0
2,note_on,58,0,160
2,note_on,61,27,0
2,note_on,61,0,160
2,note_on,51,34,0
2,note_on,51,0,160
2,note_on,58,25,0
2,note_on,58,0,160
2,note_on,61,26,0
2,note_on,61,0,160
2,note_on,51,36,0
2,note_on,51,0,160
2,note_on,58,29,0
2,note_on,58,0,160
2,note_on,61,29,0
2,note_on,61,0,160
2,note_on,51,35,0
2,note_on,51,0,160
2,note_on,58,28,0
2,note_on,58,0,160
2,note_on,61,28,0
2,note_on,61,0,160
2,note_on,44,33,0
2,note_on,44,0,120
2,note_on,51,19,40
2,note_on,56,19,0
2,note_on,60,23,0
2,note_on,60,0,120
2,note_on,56,0,0
2,note_on,51,0,0
2,note_on,51,19,40
2,note_on,56,19,0
2,note_on,60,23,0
2,note_on,60,0,120
2,note_on,56,0,0
2,note_on,51,0,0
2,note_on,51,21,40
2,note_on,56,21,0
2,note_on,60,25,0
2,note_on,60,0,120
2,note_on,56,0,0
2,note_on,51,0,0
2,note_on,51,21,40
2,note_on,60,25,0
2,note_on,56,21,0
2,note_on,56,0,120
2,note_on,60,0,0
2,note_on,51,0,0
2,note_on,60,25,40
2,note_on,56,21,0
2,note_on,51,21,0
2,note_on,51,0,120
2,note_on,56,0,0
2,note_on,60,0,0
2,note_on,60,32,40
2,note_on,51,27,0
2,note_on,56,27,0
2,note_on,56,0,120
2,note_on,51,0,0
2,note_on,60,0,0
2,note_on,60,24,40
2,note_on,51,20,0
2,note_on,56,20,0
2,note_on,56,0,120
2,note_on,51,0,0
2,note_on,60,0,0
2,note_on,51,21,40
2,note_on,60,25,0
2,note_on,56,21,0
2,note_on,56,0,120
2,note_on,60,0,0
2,note_on,51,0,0
2,note_on,60,33,40
2,note_on,56,28,0
2,note_on,51,28,0
2,note_on,51,0,120
2,note_on,56,0,0
2,note_on,60,0,0
2,note_on,56,21,40
2,note_on,60,25,0
2,note_on,51,21,0
2,note_on,51,0,120
2,note_on,60,0,0
2,note_on,56,0,0
2,note_on,60,25,40
2,note_on,56,21,0
2,note_on,51,21,0
2,note_on,51,0,120
2,note_on,56,0,0
2,note_on,60,0,0
2,note_on,37,33,40
2,note_on,37,0,120
2,note_on,53,19,40
2,note_on,60,23,0
2,note_on,49,19,0
2,note_on,49,0,120
2,note_on,60,0,0
2,note_on,53,0,0
2,note_on,60,23,40
2,note_on,53,19,0
2,note_on,49,19,0
2,note_on,49,0,120
2,note_on,53,0,0
2,note_on,60,0,0
2,note_on,57,30,40
2,note_on,49,25,0
2,note_on,53,25,0
2,note_on,53,0,120
2,note_on,49,0,0
2,note_on,57,0,0
2,note_on,53,21,40
2,note_on,49,21,0
2,note_on,57,25,0
2,note_on,57,0,120
2,note_on,49,0,0
2,note_on,53,0,0
2,note_on,49,21,40
2,note_on,57,25,0
2,note_on,53,21,0
2,note_on,53,0,120
2,note_on,57,0,0
2,note_on,49,0,0
2,note_on,49,27,40
2,note_on,58,32,0
2,note_on,53,27,0
2,note_on,53,0,120
2,note_on,58,0,0
2,note_on,49,0,0
2,note_on,49,20,40
2,note_on,53,20,0
2,note_on,58,24,0
2,note_on,58,0,120
2,note_on,53,0,0
2,note_on,49,0,0
2,note_on,58,25,40
2,note_on,49,21,0
2,note_on,53,21,0
2,note_on,53,0,120
2,note_on,49,0,0
2,note_on,58,0,0
2,note_on,49,28,40
2,note_on,58,33,0
2,note_on,53,28,0
2,note_on,53,0,120
2,note_on,58,0,0
2,note_on,49,0,0
2,note_on,49,21,40
2,note_on,53,21,0
2,note_on,58,25,0
2,note_on,58,0,120
2,note_on,53,0,0
2,note_on,49,0,0
2,note_on,53,21,40
2,note_on,49,21,0
2,note_on,58,25,0
2,note_on,58,0,120
2,note_on,49,0,0
2,note_on,53,0,0
2,note_on,36,33,40
2,note_on,36,0,120
2,note_on,48,19,40
2,note_on,51,19,0
2,note_on,58,23,0
2,note_on,58,0,120
2,note_on,51,0,0
2,note_on,48,0,0
2,note_on,51,19,40
2,note_on,48,19,0
2,note_on,58,23,0
2,note_on,58,0,120
2,note_on,48,0,0
2,note_on,51,0,0
2,note_on,48,25,40
2,note_on,55,30,0
2,note_on,51,25,0
2,note_on,51,0,120
2,note_on,55,0,0
2,note_on,48,0,0
2,note_on,55,25,40
2,note_on,51,21,0
2,note_on,48,21,0
2,note_on,48,0,120
2,note_on,51,0,0
2,note_on,55,0,0
2,note_on,48,21,40
2,note_on,51,21,0
2,note_on,55,25,0
2,note_on,55,0,120
2,note_on,51,0,0
2,note_on,48,0,0
2,note_on,56,35,40
2,note_on,51,29,0
2,note_on,48,29,0
2,note_on,48,0,120
2,note_on,51,0,0
2,note_on,56,0,0
2,note_on,51,22,40
2,note_on,48,22,0
2,note_on,56,27,0
2,note_on,56,0,120
2,note_on,48,0,0
2,note_on,51,0,0
2,note_on,51,24,40
2,note_on,56,29,0
2,note_on,48,24,0
2,note_on,48,0,120
2,note_on,56,0,0
2,note_on,51,0,0
2,note_on,48,33,40
2,note_on,56,39,0
2,note_on,51,33,0
2,note_on,51,0,120
2,note_on,56,0,0
2,note_on,48,0,0
2,note_on,48,25,40
2,note_on,56,30,0
2,note_on,51,25,0
2,note_on,51,0,120
2,note_on,56,0,0
2,note_on,48,0,0
2,note_on,51,26,40
2,note_on,48,26,0
2,note_on,56,31,0
2,note_on,56,0,120
2,note_on,48,0,0
2,note_on,51,0,0
2,note_on,37,42,40
2,note_on,37,0,120
2,note_on,53,30,40
2,note_on,49,25,0
2,note_on,49,0,120
2,note_on,53,0,0
2,note_on,53,31,40
2,note_on,49,26,0
2,note_on,49,0,120
2,note_on,53,0,0
2,note_on,49,33,40
2,note_on,53,39,0
2,note_on,53,0,120
2,note_on,49,0,0
2,note_on,49,24,40
2,note_on,53,29,0
2,note_on,53,0,120
2,note_on,49,0,0
2,note_on,53,28,40
2,note_on,49,23,0
2,note_on,49,0,120
2,note_on,53,0,0
2,note_on,39,36,40
2,note_on,39,0,120
2,note_on,51,21,40
2,note_on,56,26,0
2,note_on,56,0,120
2,note_on,51,0,0
2,note_on,56,26,40
2,note_on,51,22,0
2,note_on,51,0,120
2,note_on,56,0,0
2,note_on,39,34,40
2,note_on,39,0,120
2,note_on,51,21,40
2,note_on,55,26,0
2,note_on,55,0,120
2,note_on,51,0,0
2,note_on,51,21,40
2,note_on,55,25,0
2,note_on,55,0,120
2,note_on,51,0,0
2,note_on,44,33,40
2,note_on,44,0,120
2,note_on,60,23,40
2,note_on,51,19,0
2,note_on,56,19,0
2,note_on,56,0,120
2,note_on,51,0,0
2,note_on,60,0,0
2,note_on,56,19,40
2,note_on,60,23,0
2,note_on,51,19,0
2,note_on,51,0,120
2,note_on,60,0,0
2,note_on,56,0,0
2,note_on,60,25,40
2,note_on,51,21,0
2,note_on,56,21,0
2,note_on,56,0,120
2,note_on,51,0,0
2,note_on,60,0,0
2,note_on,60,25,40
2,note_on,56,21,0
2,note_on,51,21,0
2,note_on,51,0,120
2,note_on,56,0,0
2,note_on,60,0,0
2,note_on,60,25,40
2,note_on,51,21,0
2,note_on,56,21,0
2,note_on,56,0,120
2,note_on,51,0,0
2,note_on,60,0,0
2,note_on,60,32,40
2,note_on,51,27,0
2,note_on,56,27,0
2,note_on,56,0,120
2,note_on,51,0,0
2,note_on,60,0,0
2,note_on,56,20,40
2,note_on,60,24,0
2,note_on,51,20,0
2,note_on,51,0,120
2,note_on,60,0,0
2,note_on,56,0,0
2,note_on,51,21,40
2,note_on,56,21,0
2,note_on,60,25,0
2,note_on,60,0,120
2,note_on,56,0,0
2,note_on,51,0,0
2,note_on,60,33,40
2,note_on,56,28,0
2,note_on,51,28,0
2,note_on,51,0,120
2,note_on,56,0,0
2,note_on,60,0,0
2,note_on,51,21,40
2,note_on,56,21,0
2,note_on,60,25,0
2,note_on,60,0,120
2,note_on,56,0,0
2,note_on,51,0,0
2,note_on,51,21,40
2,note_on,60,25,0
2,note_on,56,21,0
2,note_on,56,0,120
2,note_on,60,0,0
2,note_on,51,0,0
2,note_on,37,33,40
2,note_on,37,0,120
2,note_on,49,19,40
2,note_on,53,19,0
2,note_on,60,23,0
2,note_on,60,0,120
2,note_on,53,0,0
2,note_on,49,0,0
2,note_on,60,23,40
2,note_on,53,19,0
2,note_on,49,19,0
2,note_on,49,0,120
2,note_on,53,0,0
2,note_on,60,0,0
2,note_on,49,25,40
2,note_on,60,30,0
2,note_on,53,25,0
2,note_on,53,0,120
2,note_on,60,0,0
2,note_on,49,0,0
2,note_on,53,21,40
2,note_on,60,25,0
2,note_on,49,21,0
2,note_on,49,0,120
2,note_on,60,0,0
2,note_on,53,0,0
2,note_on,53,21,40
2,note_on,49,21,0
2,note_on,60,25,0
2,note_on,60,0,120
2,note_on,49,0,0
2,note_on,53,0,0
2,note_on,58,32,40
2,note_on,53,27,0
2,note_on,49,27,0
2,note_on,49,0,120
2,note_on,53,0,0
2,note_on,58,0,0
2,note_on,53,20,40
2,note_on,58,24,0
2,note_on,49,20,0
2,note_on,49,0,120
2,note_on,58,0,0
2,note_on,53,0,0
2,note_on,53,21,40
2,note_on,58,25,0
2,note_on,49,21,0
2,note_on,49,0,120
2,note_on,58,0,0
2,note_on,53,0,0
2,note_on,53,28,40
2,note_on,58,33,0
2,note_on,49,28,0
2,note_on,49,0,120
2,note_on,58,0,0
2,note_on,53,0,0
2,note_on,53,21,40
2,note_on,49,21,0
2,note_on,58,25,0
2,note_on,58,0,120
2,note_on,49,0,0
2,note_on,53,0,0
2,note_on,49,21,40
2,note_on,58,25,0
2,note_on,53,21,0
2,note_on,53,0,120
2,note_on,58,0,0
2,note_on,49,0,0
2,note_on,36,33,40
2,note_on,36,0,120
2,note_on,58,23,40
2,note_on,51,19,0
2,note_on,48,19,0
2,note_on,48,0,120
2,note_on,51,0,0
2,note_on,58,0,0
2,note_on,58,23,40
2,note_on,48,19,0
2,note_on,51,19,0
2,note_on,51,0,120
2,note_on,48,0,0
2,note_on,58,0,0
2,note_on,51,25,40
2,note_on,58,30,0
2,note_on,48,25,0
2,note_on,48,0,120
2,note_on,58,0,0
2,note_on,51,0,0
2,note_on,51,21,40
2,note_on,48,21,0
2,note_on,58,25,0
2,note_on,58,0,120
2,note_on,48,0,0
2,note_on,51,0,0
2,note_on,58,25,40
2,note_on,48,21,0
2,note_on,51,21,0
2,note_on,51,0,120
2,note_on,48,0,0
2,note_on,58,0,0
2,note_on,51,29,40
2,note_on,48,29,0
2,note_on,56,35,0
2,note_on,56,0,120
2,note_on,48,0,0
2,note_on,51,0,0
2,note_on,56,27,40
2,note_on,48,22,0
2,note_on,51,22,0
2,note_on,51,0,120
2,note_on,48,0,0
2,note_on,56,0,0
2,note_on,51,24,40
2,note_on,48,24,0
2,note_on,56,29,0
2,note_on,56,0,120
2,note_on,48,0,0
2,note_on,51,0,0
2,note_on,51,33,40
2,note_on,56,39,0
2,note_on,48,33,0
2,note_on,48,0,120
2,note_on,56,0,0
2,note_on,51,0,0
2,note_on,51,25,40
2,note_on,48,25,0
2,note_on,56,30,0
2,note_on,56,0,120
2,note_on,48,0,0
2,note_on,51,0,0
2,note_on,51,26,40
2,note_on,56,31,0
2,note_on,48,26,0
2,note_on,48,0,120
2,note_on,56,0,0
2,note_on,51,0,0
2,note_on,37,42,40
2,note_on,37,0,120
2,note_on,56,30,40
2,note_on,49,25,0
2,note_on,53,25,0
2,note_on,53,0,120
2,note_on,49,0,0
2,note_on,56,0,0
2,note_on,53,26,40
2,note_on,56,31,0
2,note_on,49,26,0
2,note_on,49,0,120
2,note_on,56,0,0
2,note_on,53,0,0
2,note_on,53,33,40
2,note_on,57,39,0
2,note_on,49,33,0
2,note_on,49,0,120
2,note_on,57,0,0
2,note_on,53,0,0
2,note_on,53,24,40
2,note_on,49,24,0
2,note_on,57,29,0
2,note_on,57,0,120
2,note_on,49,0,0
2,note_on,53,0,0
2,note_on,58,28,40
2,note_on,49,23,0
2,note_on,53,23,0
2,note_on,53,0,120
2,note_on,49,0,0
2,note_on,58,0,0
2,note_on,39,36,40
2,note_on,39,0,120
2,note_on,51,21,40
2,note_on,56,26,0
2,note_on,56,0,120
2,note_on,51,0,0
2,note_on,51,22,40
2,note_on,56,26,0
2,note_on,56,0,120
2,note_on,51,0,0
2,note_on,39,34,40
2,note_on,39,0,120
2,note_on,58,26,40
2,note_on,55,21,0
2,note_on,51,21,0
2,note_on,51,0,120
2,note_on,55,0,0
2,note_on,58,0,0
2,note_on,58,25,40
2,note_on,55,21,0
2,note_on,51,21,0
2,note_on,51,0,120
2,note_on,55,0,0
2,note_on,58,0,0
2,note_on,32,33,40
2,note_on,44,33,0
2,note_on,44,0,120
2,note_on,51,23,40
2,note_on,44,19,0
2,note_on,48,21,0
2,note_on,48,0,120
2,note_on,44,0,0
2,note_on,51,0,0
2,note_on,48,19,40
2,note_on,44,19,0
2,note_on,51,23,0
2,note_on,51,0,120
2,note_on,44,0,0
2,note_on,48,0,0
2,note_on,44,21,40
2,note_on,48,21,0
2,note_on,51,25,0
2,note_on,51,0,120
2,note_on,48,0,0
2,note_on,44,0,0
2,note_on,48,21,40
2,note_on,51,25,0
2,note_on,44,21,0
2,note_on,44,0,120
2,note_on,51,0,0
2,note_on,48,0,0
2,note_on,51,25,40
2,note_on,48,21,0
2,note_on,44,21,0
2,note_on,44,0,120
2,note_on,48,0,0
2,note_on,51,0,0
2,note_on,44,27,40
2,note_on,51,32,0
2,note_on,48,27,0
2,note_on,48,0,120
2,note_on,51,0,0
2,note_on,44,0,0
2,note_on,44,20,40
2,note_on,51,24,0
2,note_on,48,27,0
2,note_on,48,0,120
2,note_on,51,0,0
2,note_on,44,0,0
2,note_on,44,21,40
2,note_on,48,21,0
2,note_on,51,25,0
2,note_on,51,0,120
2,note_on,48,0,0
2,note_on,44,0,0
2,note_on,32,0,40
2,note_on,51,33,0
2,note_on,48,28,0
2,note_on,44,28,0
2,note_on,44,0,120
2,note_on,48,0,0
2,note_on,51,0,0
2,note_on,44,21,40
2,note_on,48,21,0
2,note_on,51,25,0
2,note_on,51,0,120
2,note_on,48,0,0
2,note_on,44,0,0
2,note_on,44,21,40
2,note_on,48,21,0
2,note_on,51,25,0
2,note_on,51,0,120
2,note_on,48,0,0
2,note_on,44,0,0
2,note_on,44,33,40
2,note_on,32,33,0
2,note_on,44,0,120
2,note_on,51,23,40
2,note_on,44,19,0
2,note_on,48,21,0
2,note_on,48,0,120
2,note_on,44,0,0
2,note_on,51,0,0
2,note_on,48,19,40
2,note_on,44,19,0
2,note_on,51,23,0
2,note_on,51,0,120
2,note_on,44,0,0
2,note_on,48,0,0
2,note_on,44,21,40
2,note_on,48,21,0
2,note_on,51,25,0
2,note_on,51,0,120
2,note_on,48,0,0
2,note_on,44,0,0
2,note_on,48,21,40
2,note_on,51,25,0
2,note_on,44,21,0
2,note_on,44,0,120
2,note_on,51,0,0
2,note_on,48,0,0
2,note_on,48,21,40
2,note_on,44,21,0
2,note_on,51,25,0
2,note_on,51,0,120
2,note_on,44,0,0
2,note_on,48,0,0
2,note_on,32,0,40
2,note_on,51,32,0
2,note_on,48,27,0
2,note_on,44,27,0
2,note_on,44,0,120
2,note_on,48,0,0
2,note_on,51,0,0
2,note_on,48,27,40
2,note_on,44,20,0
2,note_on,51,24,0
2,note_on,51,0,120
2,note_on,44,0,0
2,note_on,48,0,0
2,note_on,51,25,40
2,note_on,44,21,0
2,note_on,48,21,0
2,note_on,48,0,120
2,note_on,44,0,0
2,note_on,51,0,0
2,note_on,44,28,40
2,note_on,51,33,0
2,note_on,48,28,0
2,note_on,48,0,120
2,note_on,51,0,0
2,note_on,44,0,0
2,note_on,51,25,40
2,note_on,48,21,0
2,note_on,44,21,0
2,note_on,44,0,120
2,note_on,48,0,0
2,note_on,51,0,0
2,note_on,44,21,40
2,note_on,51,25,0
2,note_on,48,21,0
2,note_on,48,0,120
2,note_on,51,0,0
2,note_on,44,0,0
2,note_on,31,33,40
2,note_on,43,33,0
2,note_on,43,0,120
2,note_on,43,19,40
2,note_on,51,23,0
2,note_on,48,21,0
2,note_on,48,0,120
2,note_on,51,0,0
2,note_on,43,0,0
2,note_on,48,19,40
2,note_on,51,23,0
2,note_on,43,19,0
2,note_on,43,0,120
2,note_on,51,0,0
2,note_on,48,0,0
2,note_on,48,21,40
2,note_on,51,25,0
2,note_on,43,21,0
2,note_on,43,0,120
2,note_on,51,0,0
2,note_on,48,0,0
2,note_on,43,21,40
2,note_on,48,21,0
2,note_on,51,25,0
2,note_on,51,0,120
2,note_on,48,0,0
2,note_on,43,0,0
2,note_on,48,21,40
2,note_on,43,21,0
2,note_on,51,25,0
2,note_on,51,0,120
2,note_on,43,0,0
2,note_on,48,0,0
2,note_on,31,0,40
2,note_on,43,27,0
2,note_on,51,32,0
2,note_on,48,27,0
2,note_on,48,0,120
2,note_on,51,0,0
2,note_on,43,0,0
2,note_on,51,24,40
2,note_on,48,27,0
2,note_on,43,20,0
2,note_on,43,0,120
2,note_on,48,0,0
2,note_on,51,0,0
2,note_on,48,21,40
2,note_on,51,25,0
2,note_on,43,21,0
2,note_on,43,0,120
2,note_on,51,0,0
2,note_on,48,0,0
2,note_on,43,28,40
2,note_on,51,33,0
2,note_on,48,28,0
2,note_on,48,0,120
2,note_on,51,0,0
2,note_on,43,0,0
2,note_on,51,25,40
2,note_on,43,21,0
2,note_on,48,21,0
2,note_on,48,0,120
2,note_on,43,0,0
2,note_on,51,0,0
2,note_on,48,21,40
2,note_on,43,21,0
2,note_on,51,25,0
2,note_on,51,0,120
2,note_on,43,0,0
2,note_on,48,0,0
2,note_on,31,33,40
2,note_on,43,33,0
2,note_on,43,0,120
2,note_on,51,23,40
2,note_on,43,19,0
2,note_on,48,21,0
2,note_on,48,0,120
2,note_on,43,0,0
2,note_on,51,0,0
2,note_on,51,24,40
2,note_on,48,19,0
2,note_on,43,19,0
2,note_on,43,0,120
2,note_on,48,0,0
2,note_on,51,0,0
2,note_on,43,22,40
2,note_on,48,22,0
2,note_on,51,26,0
2,note_on,51,0,120
2,note_on,48,0,0
2,note_on,43,0,0
2,note_on,48,24,40
2,note_on,43,24,0
2,note_on,51,28,0
2,note_on,51,0,120
2,note_on,43,0,0
2,note_on,48,0,0
2,note_on,51,29,40
2,note_on,48,24,0
2,note_on,43,24,0
2,note_on,43,0,120
2,note_on,48,0,0
2,note_on,51,0,0
2,note_on,31,0,40
2,note_on,51,39,0
2,note_on,48,33,0
2,note_on,43,33,0
2,note_on,43,0,120
2,note_on,48,0,0
2,note_on,51,0,0
2,note_on,51,31,40
2,note_on,43,24,0
2,note_on,48,34,0
2,note_on,48,0,120
2,note_on,43,0,0
2,note_on,51,0,0
2,note_on,51,34,40
2,note_on,48,28,0
2,note_on,43,28,0
2,note_on,43,0,120
2,note_on,48,0,0
2,note_on,51,0,0
2,note_on,43,39,40
2,note_on,48,39,0
2,note_on,51,46,0
2,note_on,51,0,120
2,note_on,48,0,0
2,note_on,43,0,0
2,note_on,43,31,40
2,note_on,51,36,0
2,note_on,48,31,0
2,note_on,48,0,120
2,note_on,51,0,0
2,note_on,43,0,0
2,note_on,51,37,40
2,note_on,48,31,0
2,note_on,43,31,0
2,note_on,43,0,120
2,note_on,48,0,0
2,note_on,51,0,0
2,note_on,29,55,40
2,note_on,41,55,0
2,note_on,41,0,120
2,note_on,41,28,40
2,note_on,51,35,0
2,note_on,48,32,0
2,note_on,48,0,120
2,note_on,51,0,0
2,note_on,41,0,0
2,note_on,41,28,40
2,note_on,51,35,0
2,note_on,48,28,0
2,note_on,48,0,120
2,note_on,51,0,0
2,note_on,41,0,0
2,note_on,41,32,40
2,note_on,48,32,0
2,note_on,51,37,0
2,note_on,51,0,120
2,note_on,48,0,0
2,note_on,41,0,0
2,note_on,48,32,40
2,note_on,41,32,0
2,note_on,51,37,0
2,note_on,51,0,120
2,note_on,41,0,0
2,note_on,48,0,0
2,note_on,51,37,40
2,note_on,48,32,0
2,note_on,41,32,0
2,note_on,41,0,120
2,note_on,48,0,0
2,note_on,51,0,0
2,note_on,29,0,40
2,note_on,30,55,0
2,note_on,42,55,0
2,note_on,42,0,120
2,note_on,48,32,40
2,note_on,42,28,0
2,note_on,51,35,0
2,note_on,51,0,120
2,note_on,42,0,0
2,note_on,48,0,0
2,note_on,51,35,40
2,note_on,42,28,0
2,note_on,48,28,0
2,note_on,48,0,120
2,note_on,42,0,0
2,note_on,51,0,0
2,note_on,51,37,40
2,note_on,48,32,0
2,note_on,42,32,0
2,note_on,42,0,120
2,note_on,48,0,0
2,note_on,51,0,0
2,note_on,51,37,40
2,note_on,48,32,0
2,note_on,42,32,0
2,note_on,42,0,120
2,note_on,48,0,0
2,note_on,51,0,0
2,note_on,42,32,40
2,note_on,48,32,0
2,note_on,51,37,0
2,note_on,51,0,120
2,note_on,48,0,0
2,note_on,42,0,0
2,note_on,30,0,40
2,note_on,43,48,0
2,note_on,47,48,0
2,note_on,50,48,0
2,note_on,50,0,1440
2,note_on,47,0,0
2,note_on,43,0,0
2,note_on,47,35,0
2,note_on,47,0,360
2,note_on,48,30,0
2,note_on,48,0,120
2,note_on,50,40,0
2,note_on,50,0,338
2,note_on,50,33,142
2,note_on,50,0,338
2,note_on,50,33,142
2,note_on,50,0,338
2,note_on,48,36,142
2,note_on,48,0,360
2,note_on,50,37,0
2,note_on,50,0,120
2,note_on,51,42,0
2,note_on,51,0,720
2,note_on,50,35,0
2,note_on,50,0,240
2,note_on,48,31,0
2,note_on,48,0,480
2,note_on,46,39,0
2,note_on,46,0,360
2,note_on,44,33,0
2,note_on,44,0,120
2,note_on,43,36,0
2,note_on,43,0,480
2,note_on,43,36,0
2,note_on,43,0,480
2,note_on,43,36,0
2,note_on,43,0,480
2,note_on,43,36,0
2,note_on,43,0,480
2,note_on,48,48,0
2,note_on,48,0,960
2,note_on,35,42,480
2,note_on,47,50,0
2,note_on,47,0,360
2,note_on,35,0,0
2,note_on,36,37,0
2,note_on,48,44,0
2,note_on,48,0,120
2,note_on,36,0,0
2,note_on,50,62,0
2,note_on,38,51,0
2,note_on,50,0,338
2,note_on,38,0,22
2,note_on,38,42,120
2,note_on,50,50,0
2,note_on,50,0,338
2,note_on,38,0,22
2,note_on,38,42,120
2,note_on,50,50,0
2,note_on,50,0,338
2,note_on,38,0,22
2,note_on,36,50,120
2,note_on,48,59,0
2,note_on,48,0,360
2,note_on,36,0,0
2,note_on,38,57,0
2,note_on,50,67,0
2,note_on,50,0,120
2,note_on,38,0,0
2,note_on,39,63,0
2,note_on,51,76,0
2,note_on,51,0,720
2,note_on,39,0,0
2,note_on,38,54,0
2,note_on,50,64,0
2,note_on,50,0,240
2,note_on,38,0,0
2,note_on,36,46,0
2,note_on,48,55,0
2,note_on,48,0,480
2,note_on,36,0,0
2,note_on,34,57,0
2,note_on,46,67,0
2,note_on,46,0,360
2,note_on,34,0,0
2,note_on,44,55,0
2,note_on,32,46,0
2,note_on,32,0,120
2,note_on,44,0,0
2,note_on,31,46,0
2,note_on,43,55,0
2,note_on,43,0,480
2,note_on,31,0,0
2,note_on,31,46,0
2,note_on,43,55,0
2,note_on,43,0,480
2,note_on,31,0,0
2,note_on,43,55,0
2,note_on,31,46,0
2,note_on,31,0,480
2,note_on,43,0,0
2,note_on,43,55,0
2,note_on,31,46,0
2,note_on,31,0,480
2,note_on,43,0,0
2,note_on,36,40,0
2,note_on,48,40,0
2,note_on,48,0,160
2,note_on,36,0,0
2,note_on,55,31,0
2,note_on,55,0,120
2,note_on,55,31,40
2,note_on,55,0,120
2,note_on,55,31,40
2,note_on,55,0,120
2,note_on,55,29,40
2,note_on,55,0,120
2,note_on,55,29,40
2,note_on,55,0,120
2,note_on,55,29,40
2,note_on,55,0,120
2,note_on,55,28,40
2,note_on,55,0,120
2,note_on,55,28,40
2,note_on,55,0,120
2,note_on,55,31,40
2,note_on,55,0,120
2,note_on,55,30,40
2,note_on,55,0,120
2,note_on,55,30,40
2,note_on,55,0,120
2,note_on,55,31,40
2,note_on,55,0,120
2,note_on,55,27,40
2,note_on,55,0,120
2,note_on,55,27,40
2,note_on,55,0,120
2,note_on,55,31,40
2,note_on,55,0,120
2,note_on,55,28,40
2,note_on,55,0,120
2,note_on,55,28,40
2,note_on,55,0,120
2,note_on,55,31,40
2,note_on,55,0,120
2,note_on,55,31,40
2,note_on,55,0,120
2,note_on,55,31,40
2,note_on,55,0,120
2,note_on,55,31,40
2,note_on,55,0,120
2,note_on,55,31,40
2,note_on,55,0,120
2,note_on,55,32,40
2,note_on,55,0,120
2,note_on,55,40,40
2,note_on,55,0,120
2,note_on,55,31,40
2,note_on,55,0,120
2,note_on,55,26,40
2,note_on,55,0,120
2,note_on,55,33,40
2,note_on,55,0,120
2,note_on,55,29,40
2,note_on,55,0,120
2,note_on,55,26,40
2,note_on,55,0,120
2,note_on,55,33,40
2,note_on,55,0,120
2,note_on,55,30,40
2,note_on,55,0,120
2,note_on,55,29,40
2,note_on,55,0,120
2,note_on,55,33,40
2,note_on,55,0,120
2,note_on,55,30,40
2,note_on,55,0,120
2,note_on,55,30,40
2,note_on,55,0,120
2,note_on,55,31,40
2,note_on,55,0,120
2,note_on,55,28,40
2,note_on,55,0,120
2,note_on,55,28,40
2,note_on,55,0,120
2,note_on,55,31,40
2,note_on,55,0,120
2,note_on,55,28,40
2,note_on,55,0,120
2,note_on,55,31,40
2,note_on,55,0,120
2,note_on,55,36,40
2,note_on,55,0,120
2,note_on,55,29,40
2,note_on,55,0,120
2,note_on,55,29,40
2,note_on,55,0,120
2,note_on,55,36,40
2,note_on,55,0,120
2,note_on,55,31,40
2,note_on,55,0,120
2,note_on,55,31,40
2,note_on,55,0,120
2,note_on,55,37,40
2,note_on,55,0,120
2,note_on,55,29,40
2,note_on,55,0,120
2,note_on,55,29,40
2,note_on,55,0,120
2,note_on,55,44,40
2,note_on,55,0,120
2,note_on,55,37,40
2,note_on,55,0,120
2,note_on,55,39,40
2,note_on,55,0,120
2,note_on,55,53,40
2,note_on,55,0,120
2,note_on,55,39,40
2,note_on,55,0,120
2,note_on,55,40,40
2,note_on,55,0,120
2,note_on,55,52,40
2,note_on,55,0,120
2,note_on,55,45,40
2,note_on,55,0,120
2,note_on,55,52,40
2,note_on,55,0,120
2,note_on,55,59,40
2,note_on,55,0,120
2,note_on,55,47,40
2,note_on,55,0,120
2,note_on,55,47,40
2,note_on,55,0,120
2,note_on,55,52,40
2,note_on,54,52,0
2,note_on,54,0,120
2,note_on,55,0,0
2,note_on,55,43,40
2,note_on,54,43,0
2,note_on,54,0,120
2,note_on,55,0,0
2,note_on,55,43,40
2,note_on,54,43,0
2,note_on,54,0,120
2,note_on,55,0,0
2,note_on,53,54,40
2,note_on,55,54,0
2,note_on,55,0,120
2,note_on,53,0,0
2,note_on,55,45,40
2,note_on,53,45,0
2,note_on,53,0,120
2,note_on,55,0,0
2,note_on,55,45,40
2,note_on,53,45,0
2,note_on,53,0,120
2,note_on,55,0,0
2,note_on,55,53,40
2,note_on,51,53,0
2,note_on,51,0,120
2,note_on,55,0,0
2,note_on,50,43,40
2,note_on,55,43,0
2,note_on,55,0,120
2,note_on,50,0,0
2,note_on,48,44,40
2,note_on,55,44,0
2,note_on,55,0,120
2,note_on,48,0,0
2,note_on,48,57,40
2,note_on,55,57,0
2,note_on,55,0,120
2,note_on,48,0,0
2,note_on,48,45,40
2,note_on,55,45,0
2,note_on,55,0,120
2,note_on,48,0,0
2,note_on,55,45,40
2,note_on,48,45,0
2,note_on,48,0,120
2,note_on,55,0,0
2,note_on,55,54,40
2,note_on,46,54,0
2,note_on,46,0,120
2,note_on,55,0,0
2,note_on,55,45,40
2,note_on,46,45,0
2,note_on,46,0,120
2,note_on,55,0,0
2,note_on,46,45,40
2,note_on,55,45,0
2,note_on,55,0,120
2,note_on,46,0,0
2,note_on,45,55,40
2,note_on,55,55,0
2,note_on,55,0,120
2,note_on,45,0,0
2,note_on,45,43,40
2,note_on,55,43,0
2,note_on,55,0,120
2,note_on,45,0,0
2,note_on,45,43,40
2,note_on,55,43,0
2,note_on,55,0,120
2,note_on,45,0,0
2,note_on,44,52,40
2,note_on,54,52,0
2,note_on,54,0,120
2,note_on,44,0,0
2,note_on,44,43,40
2,note_on,54,43,0
2,note_on,54,0,120
2,note_on,44,0,0
2,note_on,54,42,40
2,note_on,44,42,0
2,note_on,44,0,120
2,note_on,54,0,0
2,note_on,43,54,40
2,note_on,53,54,0
2,note_on,53,0,120
2,note_on,43,0,0
2,note_on,43,45,40
2,note_on,53,45,0
2,note_on,53,0,120
2,note_on,43,0,0
2,note_on,43,45,40
2,note_on,53,45,0
2,note_on,53,0,120
2,note_on,43,0,0
2,note_on,43,54,40
2,note_on,41,54,0
2,note_on,41,0,120
2,note_on,43,0,0
2,note_on,41,43,40
2,note_on,43,43,0
2,note_on,43,0,120
2,note_on,41,0,0
2,note_on,43,43,40
2,note_on,41,43,0
2,note_on,41,0,120
2,note_on,43,0,0
2,note_on,39,55,40
2,note_on,43,55,0
2,note_on,43,0,120
2,note_on,39,0,0
2,note_on,43,43,40
2,note_on,39,43,0
2,note_on,39,0,120
2,note_on,43,0,0
2,note_on,39,43,40
2,note_on,43,43,0
2,note_on,43,0,120
2,note_on,39,0,0
2,note_on,31,57,40
2,note_on,43,57,0
2,note_on,43,0,120
2,note_on,31,0,0
2,note_on,43,43,40
2,note_on,31,43,0
2,note_on,31,0,120
2,note_on,43,0,0
2,note_on,43,43,40
2,note_on,31,43,0
2,note_on,31,0,120
2,note_on,43,0,0
2,note_on,36,40,40
2,note_on,48,40,0
2,note_on,48,0,160
2,note_on,36,0,0
2,note_on,55,31,0
2,note_on,55,0,120
2,note_on,55,31,40
2,note_on,55,0,120
2,note_on,55,31,40
2,note_on,55,0,120
2,note_on,55,29,40
2,note_on,55,0,120
2,note_on,55,29,40
2,note_on,55,0,120
2,note_on,55,29,40
2,note_on,55,0,120
2,note_on,55,28,40
2,note_on,55,0,120
2,note_on,55,28,40
2,note_on,55,0,120
2,note_on,55,31,40
2,note_on,55,0,120
2,note_on,55,30,40
2,note_on,55,0,120
2,note_on,55,30,40
2,note_on,55,0,120
2,note_on,56,31,40
2,note_on,56,0,120
2,note_on,56,27,40
2,note_on,56,0,120
2,note_on,56,27,40
2,note_on,56,0,120
2,note_on,57,31,40
2,note_on,57,0,120
2,note_on,57,28,40
2,note_on,57,0,120
2,note_on,57,28,40
2,note_on,57,0,120
2,note_on,58,31,40
2,note_on,58,0,120
2,note_on,58,31,40
2,note_on,58,0,120
2,note_on,58,31,40
2,note_on,58,0,120
2,note_on,58,31,40
2,note_on,58,0,120
2,note_on,58,31,40
2,note_on,58,0,120
2,note_on,58,32,40
2,note_on,58,0,120
2,note_on,58,40,40
2,note_on,58,0,120
2,note_on,58,31,40
2,note_on,58,0,120
2,note_on,58,26,40
2,note_on,58,0,120
2,note_on,59,33,40
2,note_on,59,0,120
2,note_on,59,29,40
2,note_on,59,0,120
2,note_on,59,26,40
2,note_on,59,0,120
2,note_on,60,33,40
2,note_on,60,0,120
2,note_on,55,30,40
2,note_on,55,0,120
2,note_on,55,29,40
2,note_on,55,0,120
2,note_on,55,33,40
2,note_on,55,0,120
2,note_on,55,30,40
2,note_on,55,0,120
2,note_on,55,30,40
2,note_on,55,0,120
2,note_on,55,31,40
2,note_on,55,0,120
2,note_on,55,28,40
2,note_on,55,0,120
2,note_on,55,28,40
2,note_on,55,0,120
2,note_on,55,31,40
2,note_on,55,0,120
2,note_on,55,28,40
2,note_on,55,0,120
2,note_on,55,31,40
2,note_on,55,0,120
2,note_on,55,36,40
2,note_on,55,0,120
2,note_on,55,29,40
2,note_on,55,0,120
2,note_on,55,29,40
2,note_on,55,0,120
2,note_on,55,36,40
2,note_on,55,0,120
2,note_on,55,31,40
2,note_on,55,0,120
2,note_on,55,31,40
2,note_on,55,0,120
2,note_on,55,37,40
2,note_on,55,0,120
2,note_on,55,29,40
2,note_on,55,0,120
2,note_on,55,29,40
2,note_on,55,0,120
2,note_on,55,42,40
2,note_on,55,0,120
2,note_on,55,35,40
2,note_on,55,0,120
2,note_on,55,37,40
2,note_on,55,0,120
2,note_on,55,49,40
2,note_on,55,0,160
2,note_on,56,36,0
2,note_on,56,0,160
2,note_on,57,36,0
2,note_on,57,0,160
2,note_on,58,52,0
2,note_on,58,0,120
2,note_on,58,45,40
2,note_on,58,0,120
2,note_on,58,52,40
2,note_on,58,0,120
2,note_on,58,59,40
2,note_on,58,0,120
2,note_on,58,47,40
2,note_on,58,0,120
2,note_on,58,47,40
2,note_on,58,0,120
2,note_on,57,44,40
2,note_on,58,52,0
2,note_on,58,0,120
2,note_on,57,0,0
2,note_on,58,43,40
2,note_on,57,36,0
2,note_on,57,0,120
2,note_on,58,0,0
2,note_on,58,43,40
2,note_on,57,36,0
2,note_on,57,0,120
2,note_on,58,0,0
2,note_on,58,54,40
2,note_on,56,45,0
2,note_on,56,0,120
2,note_on,58,0,0
2,note_on,56,38,40
2,note_on,58,45,0
2,note_on,58,0,120
2,note_on,56,0,0
2,note_on,56,38,40
2,note_on,58,45,0
2,note_on,58,0,120
2,note_on,56,0,0
2,note_on,58,53,40
2,note_on,55,45,0
2,note_on,55,0,120
2,note_on,58,0,0
2,note_on,58,43,40
2,note_on,55,36,0
2,note_on,55,0,120
2,note_on,58,0,0
2,note_on,53,37,40
2,note_on,58,44,0
2,note_on,56,37,0
2,note_on,56,0,120
2,note_on,58,0,0
2,note_on,53,0,0
2,note_on,51,48,40
2,note_on,58,57,0
2,note_on,55,57,0
2,note_on,55,0,120
2,note_on,58,0,0
2,note_on,51,0,0
2,note_on,51,38,40
2,note_on,55,45,0
2,note_on,58,45,0
2,note_on,58,0,120
2,note_on,55,0,0
2,note_on,51,0,0
2,note_on,51,38,40
2,note_on,58,45,0
2,note_on,55,45,0
2,note_on,55,0,120
2,note_on,58,0,0
2,note_on,51,0,0
2,note_on,47,45,40
2,note_on,53,45,0
2,note_on,56,54,0
2,note_on,56,0,120
2,note_on,53,0,0
2,note_on,47,0,0
2,note_on,47,38,40
2,note_on,53,45,0
2,note_on,56,45,0
2,note_on,56,0,120
2,note_on,53,0,0
2,note_on,47,0,0
2,note_on,47,38,40
2,note_on,53,45,0
2,note_on,56,45,0
2,note_on,56,0,120
2,note_on,53,0,0
2,note_on,47,0,0
2,note_on,48,46,40
2,note_on,55,55,0
2,note_on,51,46,0
2,note_on,51,0,120
2,note_on,55,0,0
2,note_on,48,0,0
2,note_on,48,36,40
2,note_on,51,36,0
2,note_on,55,43,0
2,note_on,55,0,120
2,note_on,51,0,0
2,note_on,48,0,0
2,note_on,48,36,40
2,note_on,51,36,0
2,note_on,55,43,0
2,note_on,55,0,120
2,note_on,51,0,0
2,note_on,48,0,0
2,note_on,44,44,40
2,note_on,53,52,0
2,note_on,53,0,120
2,note_on,44,0,0
2,note_on,53,43,40
2,note_on,46,36,0
2,note_on,46,0,120
2,note_on,53,0,0
2,note_on,53,42,40
2,note_on,44,35,0
2,note_on,44,0,120
2,note_on,53,0,0
2,note_on,43,47,40
2,note_on,53,56,0
2,note_on,53,0,120
2,note_on,43,0,0
2,note_on,44,40,40
2,note_on,53,47,0
2,note_on,53,0,120
2,note_on,44,0,0
2,note_on,43,40,40
2,note_on,53,48,0
2,note_on,53,0,120
2,note_on,43,0,0
2,note_on,43,58,40
2,note_on,41,48,0
2,note_on,41,0,120
2,note_on,43,0,0
2,note_on,43,47,40
2,note_on,43,0,120
2,note_on,43,47,40
2,note_on,41,39,0
2,note_on,41,0,120
2,note_on,43,0,0
2,note_on,39,51,40
2,note_on,43,61,0
2,note_on,43,0,120
2,note_on,39,0,0
2,note_on,41,41,40
2,note_on,43,49,0
2,note_on,43,0,120
2,note_on,41,0,0
2,note_on,43,49,40
2,note_on,39,41,0
2,note_on,39,0,120
2,note_on,43,0,0
2,note_on,31,55,40
2,note_on,43,66,0
2,note_on,43,0,120
2,note_on,31,0,0
2,note_on,43,50,40
2,note_on,32,42,0
2,note_on,32,0,120
2,note_on,43,0,0
2,note_on,43,51,40
2,note_on,31,42,0
2,note_on,31,0,120
2,note_on,43,0,0
2,note_on,36,53,40
2,note_on,43,53,0
2,note_on,48,63,0
2,note_on,48,0,160
2,note_on,43,0,0
2,note_on,36,0,0
2,note_on,50,60,0
2,note_on,50,0,160
2,note_on,48,60,0
2,note_on,48,0,160
2,note_on,46,68,0
2,note_on,46,0,160
2,note_on,48,62,0
2,note_on,48,0,160
2,note_on,46,62,0
2,note_on,46,0,160
2,note_on,44,73,0
2,note_on,48,62,0
2,note_on,48,0,144
2,note_on,44,0,0
2,note_on,46,63,16
2,note_on,48,53,0
2,note_on,48,0,144
2,note_on,46,0,0
2,note_on,44,64,16
2,note_on,48,54,0
2,note_on,48,0,144
2,note_on,44,0,0
2,note_on,43,78,16
2,note_on,48,65,0
2,note_on,48,0,144
2,note_on,43,0,0
2,note_on,44,65,16
2,note_on,48,55,0
2,note_on,48,0,144
2,note_on,44,0,0
2,note_on,43,65,16
2,note_on,48,55,0
2,note_on,48,0,144
2,note_on,43,0,0
2,note_on,41,79,16
2,note_on,48,66,0
2,note_on,48,0,160
2,note_on,41,0,0
2,note_on,43,65,0
2,note_on,48,55,0
2,note_on,48,0,160
2,note_on,43,0,0
2,note_on,41,65,0
2,note_on,48,55,0
2,note_on,48,0,160
2,note_on,41,0,0
2,note_on,44,78,0
2,note_on,48,65,0
2,note_on,48,0,160
2,note_on,44,0,0
2,note_on,46,65,0
2,note_on,48,55,0
2,note_on,48,0,160
2,note_on,46,0,0
2,note_on,44,65,0
2,note_on,48,55,0
2,note_on,48,0,160
2,note_on,44,0,0
2,note_on,43,73,0
2,note_on,48,62,0
2,note_on,48,0,144
2,note_on,43,0,0
2,note_on,44,65,16
2,note_on,48,55,0
2,note_on,48,0,144
2,note_on,44,0,0
2,note_on,43,65,16
2,note_on,48,55,0
2,note_on,48,0,144
2,note_on,43,0,0
2,note_on,41,74,16
2,note_on,48,63,0
2,note_on,48,0,144
2,note_on,41,0,0
2,note_on,43,65,16
2,note_on,48,55,0
2,note_on,48,0,144
2,note_on,43,0,0
2,note_on,41,65,16
2,note_on,48,55,0
2,note_on,48,0,144
2,note_on,41,0,0
2,note_on,39,79,16
2,note_on,48,66,0
2,note_on,48,0,144
2,note_on,39,0,0
2,note_on,41,65,16
2,note_on,48,55,0
2,note_on,48,0,144
2,note_on,41,0,0
2,note_on,39,65,16
2,note_on,48,55,0
2,note_on,48,0,144
2,note_on,39,0,0
2,note_on,43,77,16
2,note_on,48,64,0
2,note_on,48,0,144
2,note_on,43,0,0
2,note_on,44,65,16
2,note_on,48,55,0
2,note_on,48,0,144
2,note_on,44,0,0
2,note_on,43,65,16
2,note_on,48,55,0
2,note_on,48,0,144
2,note_on,43,0,0
2,note_on,41,75,16
2,note_on,48,64,0
2,note_on,48,0,144
2,note_on,41,0,0
2,note_on,43,65,16
2,note_on,48,55,0
2,note_on,48,0,144
2,note_on,43,0,0
2,note_on,41,65,16
2,note_on,48,55,0
2,note_on,48,0,144
2,note_on,41,0,0
2,note_on,39,74,16
2,note_on,48,63,0
2,note_on,48,0,144
2,note_on,39,0,0
2,note_on,41,66,16
2,note_on,48,56,0
2,note_on,48,0,144
2,note_on,41,0,0
2,note_on,39,66,16
2,note_on,48,56,0
2,note_on,48,0,144
2,note_on,39,0,0
2,note_on,37,75,16
2,note_on,44,64,0
2,note_on,44,0,144
2,note_on,37,0,0
2,note_on,39,64,16
2,note_on,44,54,0
2,note_on,44,0,144
2,note_on,39,0,0
2,note_on,36,64,16
2,note_on,44,54,0
2,note_on,44,0,144
2,note_on,36,0,0
2,note_on,37,72,16
2,note_on,44,60,0
2,note_on,44,0,144
2,note_on,37,0,0
2,note_on,39,63,16
2,note_on,44,52,0
2,note_on,44,0,144
2,note_on,39,0,0
2,note_on,41,63,16
2,note_on,44,52,0
2,note_on,44,0,144
2,note_on,41,0,0
2,note_on,31,62,16
2,note_on,43,73,0
2,note_on,43,0,144
2,note_on,31,0,0
2,note_on,43,65,16
2,note_on,43,0,144
2,note_on,43,60,16
2,note_on,43,0,144
2,note_on,31,59,16
2,note_on,43,71,0
2,note_on,43,0,144
2,note_on,31,0,0
2,note_on,43,63,16
2,note_on,43,0,144
2,note_on,43,63,16
2,note_on,43,0,144
2,note_on,36,53,16
2,note_on,43,53,0
2,note_on,48,63,0
2,note_on,48,0,160
2,note_on,43,0,0
2,note_on,36,0,0
2,note_on,51,60,0
2,note_on,51,0,160
2,note_on,50,60,0
2,note_on,50,0,160
2,note_on,48,68,0
2,note_on,48,0,160
2,note_on,50,62,0
2,note_on,50,0,160
2,note_on,48,62,0
2,note_on,48,0,160
2,note_on,47,73,0
2,note_on,47,0,160
2,note_on,48,63,0
2,note_on,48,0,160
2,note_on,47,64,0
2,note_on,47,0,160
2,note_on,46,78,0
2,note_on,46,0,160
2,note_on,48,65,0
2,note_on,48,0,160
2,note_on,46,65,0
2,note_on,46,0,160
2,note_on,45,79,0
2,note_on,48,66,0
2,note_on,48,0,144
2,note_on,45,0,0
2,note_on,46,65,16
2,note_on,48,55,0
2,note_on,48,0,144
2,note_on,46,0,0
2,note_on,45,65,16
2,note_on,48,55,0
2,note_on,48,0,144
2,note_on,45,0,0
2,note_on,44,78,16
2,note_on,48,65,0
2,note_on,48,0,144
2,note_on,44,0,0
2,note_on,46,65,16
2,note_on,48,55,0
2,note_on,48,0,144
2,note_on,46,0,0
2,note_on,44,65,16
2,note_on,48,55,0
2,note_on,48,0,144
2,note_on,44,0,0
2,note_on,43,73,16
2,note_on,48,62,0
2,note_on,48,0,144
2,note_on,43,0,0
2,note_on,44,65,16
2,note_on,48,55,0
2,note_on,48,0,144
2,note_on,44,0,0
2,note_on,43,65,16
2,note_on,48,55,0
2,note_on,48,0,144
2,note_on,43,0,0
2,note_on,41,74,16
2,note_on,48,63,0
2,note_on,48,0,144
2,note_on,41,0,0
2,note_on,43,65,16
2,note_on,48,55,0
2,note_on,48,0,144
2,note_on,43,0,0
2,note_on,41,65,16
2,note_on,48,55,0
2,note_on,48,0,144
2,note_on,41,0,0
2,note_on,40,79,16
2,note_on,48,66,0
2,note_on,48,0,144
2,note_on,40,0,0
2,note_on,41,65,16
2,note_on,48,55,0
2,note_on,48,0,144
2,note_on,41,0,0
2,note_on,40,65,16
2,note_on,48,55,0
2,note_on,48,0,144
2,note_on,40,0,0
2,note_on,39,77,16
2,note_on,48,64,0
2,note_on,48,0,144
2,note_on,39,0,0
2,note_on,41,65,16
2,note_on,48,55,0
2,note_on,48,0,144
2,note_on,41,0,0
2,note_on,39,65,16
2,note_on,48,55,0
2,note_on,48,0,144
2,note_on,39,0,0
2,note_on,38,75,16
2,note_on,48,64,0
2,note_on,48,0,144
2,note_on,38,0,0
2,note_on,39,65,16
2,note_on,48,55,0
2,note_on,48,0,144
2,note_on,39,0,0
2,note_on,38,65,16
2,note_on,48,55,0
2,note_on,48,0,144
2,note_on,38,0,0
2,note_on,36,74,16
2,note_on,48,63,0
2,note_on,48,0,144
2,note_on,36,0,0
2,note_on,38,66,16
2,note_on,48,56,0
2,note_on,48,0,144
2,note_on,38,0,0
2,note_on,39,66,16
2,note_on,48,56,0
2,note_on,48,0,144
2,note_on,39,0,0
2,note_on,41,75,16
2,note_on,44,64,0
2,note_on,44,0,144
2,note_on,41,0,0
2,note_on,39,64,16
2,note_on,44,54,0
2,note_on,44,0,144
2,note_on,39,0,0
2,note_on,37,64,16
2,note_on,44,54,0
2,note_on,44,0,135
2,note_on,37,0,0
2,note_on,37,72,25
2,note_on,44,60,0
2,note_on,44,0,144
2,note_on,37,0,0
2,note_on,39,63,16
2,note_on,44,52,0
2,note_on,44,0,144
2,note_on,39,0,0
2,note_on,41,63,16
2,note_on,44,52,0
2,note_on,44,0,144
2,note_on,41,0,0
2,note_on,31,62,16
2,note_on,43,73,0
2,note_on,43,0,144
2,note_on,31,0,0
2,note_on,43,65,16
2,note_on,43,0,144
2,note_on,43,60,16
2,note_on,43,0,144
2,note_on,31,59,16
2,note_on,43,71,0
2,note_on,43,0,144
2,note_on,31,0,0
2,note_on,43,63,16
2,note_on,43,0,144
2,note_on,43,63,16
2,note_on,43,0,144
2,note_on,36,74,16
2,note_on,48,62,0
2,note_on,48,0,120
2,note_on,36,0,0
2,note_on,36,67,40
2,note_on,48,56,0
2,note_on,48,0,120
2,note_on,36,0,0
2,note_on,36,67,40
2,note_on,48,56,0
2,note_on,48,0,120
2,note_on,36,0,0
2,note_on,38,74,40
2,note_on,48,62,0
2,note_on,48,0,120
2,note_on,38,0,0
2,note_on,38,69,40
2,note_on,48,58,0
2,note_on,48,0,120
2,note_on,38,0,0
2,note_on,38,65,40
2,note_on,48,55,0
2,note_on,48,0,120
2,note_on,38,0,0
2,note_on,39,74,40
2,note_on,48,62,0
2,note_on,48,0,120
2,note_on,39,0,0
2,note_on,39,67,40
2,note_on,48,56,0
2,note_on,48,0,120
2,note_on,39,0,0
2,note_on,39,67,40
2,note_on,48,56,0
2,note_on,48,0,120
2,note_on,39,0,0
2,note_on,40,73,40
2,note_on,48,62,0
2,note_on,48,0,120
2,note_on,40,0,0
2,note_on,40,66,40
2,note_on,48,56,0
2,note_on,48,0,120
2,note_on,40,0,0
2,note_on,40,66,40
2,note_on,48,56,0
2,note_on,48,0,120
2,note_on,40,0,0
2,note_on,41,72,40
2,note_on,48,61,0
2,note_on,48,0,120
2,note_on,41,0,0
2,note_on,41,68,40
2,note_on,48,57,0
2,note_on,48,0,120
2,note_on,41,0,0
2,note_on,41,68,40
2,note_on,48,57,0
2,note_on,48,0,120
2,note_on,41,0,0
2,note_on,42,69,40
2,note_on,46,58,0
2,note_on,46,0,120
2,note_on,42,0,0
2,note_on,42,63,40
2,note_on,46,53,0
2,note_on,46,0,120
2,note_on,42,0,0
2,note_on,42,63,40
2,note_on,46,53,0
2,note_on,46,0,120
2,note_on,42,0,0
2,note_on,43,66,40
2,note_on,48,56,0
2,note_on,48,0,120
2,note_on,43,0,0
2,note_on,43,60,40
2,note_on,48,51,0
2,note_on,48,0,120
2,note_on,43,0,0
2,note_on,43,66,40
2,note_on,48,56,0
2,note_on,48,0,120
2,note_on,43,0,0
2,note_on,44,69,40
2,note_on,48,61,0
2,note_on,48,0,120
2,note_on,44,0,0
2,note_on,44,57,40
2,note_on,48,48,0
2,note_on,48,0,120
2,note_on,44,0,0
2,note_on,44,57,40
2,note_on,48,48,0
2,note_on,48,0,120
2,note_on,44,0,0
2,note_on,44,55,40
2,note_on,48,46,0
2,note_on,48,0,120
2,note_on,44,0,0
2,note_on,44,54,40
2,note_on,48,42,0
2,note_on,48,0,120
2,note_on,44,0,0
2,note_on,44,53,40
2,note_on,48,41,0
2,note_on,48,0,120
2,note_on,44,0,0
2,note_on,44,53,40
2,note_on,48,45,0
2,note_on,48,0,120
2,note_on,44,0,0
2,note_on,44,47,40
2,note_on,48,40,0
2,note_on,48,0,120
2,note_on,44,0,0
2,note_on,44,46,40
2,note_on,48,39,0
2,note_on,48,0,120
2,note_on,44,0,0
2,note_on,44,51,40
2,note_on,48,43,0
2,note_on,48,0,120
2,note_on,44,0,0
2,note_on,44,46,40
2,note_on,48,39,0
2,note_on,48,0,120
2,note_on,44,0,0
2,note_on,44,46,40
2,note_on,48,39,0
2,note_on,48,0,120
2,note_on,44,0,0
2,note_on,45,31,40
2,note_on,48,37,0
2,note_on,48,0,120
2,note_on,45,0,0
2,note_on,45,26,40
2,note_on,48,31,0
2,note_on,48,0,120
2,note_on,45,0,0
2,note_on,45,26,40
2,note_on,48,31,0
2,note_on,48,0,120
2,note_on,45,0,0
2,note_on,45,34,40
2,note_on,48,40,0
2,note_on,48,0,120
2,note_on,45,0,0
2,note_on,45,27,40
2,note_on,50,32,0
2,note_on,50,0,120
2,note_on,45,0,0
2,note_on,45,28,40
2,note_on,50,33,0
2,note_on,50,0,120
2,note_on,45,0,0
2,note_on,45,31,40
2,note_on,50,37,0
2,note_on,50,0,120
2,note_on,45,0,0
2,note_on,45,28,40
2,note_on,50,33,0
2,note_on,50,0,120
2,note_on,45,0,0
2,note_on,45,28,40
2,note_on,50,33,0
2,note_on,50,0,120
2,note_on,45,0,0
2,note_on,46,32,40
2,note_on,50,38,0
2,note_on,50,0,120
2,note_on,46,0,0
2,note_on,46,28,40
2,note_on,50,34,0
2,note_on,50,0,120
2,note_on,46,0,0
2,note_on,46,28,40
2,note_on,50,34,0
2,note_on,50,0,120
2,note_on,46,0,0
2,note_on,46,31,40
2,note_on,50,37,0
2,note_on,50,0,120
2,note_on,46,0,0
2,note_on,46,28,40
2,note_on,50,33,0
2,note_on,50,0,120
2,note_on,46,0,0
2,note_on,46,28,40
2,note_on,50,33,0
2,note_on,50,0,120
2,note_on,46,0,0
2,note_on,48,31,40
2,note_on,51,37,0
2,note_on,51,0,120
2,note_on,48,0,0
2,note_on,48,27,40
2,note_on,51,32,0
2,note_on,51,0,120
2,note_on,48,0,0
2,note_on,48,27,40
2,note_on,51,32,0
2,note_on,51,0,120
2,note_on,48,0,0
2,note_on,48,31,40
2,note_on,51,37,0
2,note_on,51,0,120
2,note_on,48,0,0
2,note_on,48,26,40
2,note_on,51,31,0
2,note_on,51,0,120
2,note_on,48,0,0
2,note_on,48,26,40
2,note_on,51,31,0
2,note_on,51,0,120
2,note_on,48,0,0
2,note_on,50,37,40
2,note_on,50,0,120
2,note_on,50,32,40
2,note_on,50,0,120
2,note_on,50,32,40
2,note_on,50,0,120
2,note_on,50,37,40
2,note_on,50,0,120
2,note_on,50,32,40
2,note_on,50,0,120
2,note_on,50,32,40
2,note_on,50,0,120
2,note_on,50,37,40
2,note_on,43,31,0
2,note_on,50,0,120
2,note_on,50,29,40
2,note_on,50,0,120
2,note_on,50,29,40
2,note_on,50,0,120
2,note_on,50,32,40
2,note_on,50,0,120
2,note_on,50,29,40
2,note_on,50,0,120
2,note_on,50,29,40
2,note_on,50,0,120
2,note_on,43,0,40
2,note_on,50,31,0
2,note_on,50,0,120
2,note_on,50,29,40
2,note_on,50,0,120
2,note_on,50,29,40
2,note_on,50,0,120
2,note_on,50,32,40
2,note_on,50,0,120
2,note_on,50,29,40
2,note_on,50,0,120
2,note_on,50,29,40
2,note_on,50,0,120
2,note_on,43,32,280
2,note_on,43,0,120
2,note_on,43,32,360
2,note_on,43,0,120
2,note_on,38,36,360
2,note_on,38,0,120
2,note_on,43,32,360
2,note_on,43,0,120
2,note_on,36,38,360
2,note_on,36,0,120
2,note_on,36,35,360
2,note_on,36,0,120
2,note_on,43,37,360
2,note_on,43,0,120
2,note_on,43,32,360
2,note_on,43,0,120
2,note_on,44,36,360
2,note_on,44,0,120
2,note_on,45,32,360
2,note_on,45,0,120
2,note_on,46,32,360
2,note_on,46,0,120
2,note_on,50,32,360
2,note_on,50,0,120
2,note_on,51,39,360
2,note_on,51,0,120
2,note_on,48,32,360
2,note_on,48,0,120
2,note_on,50,32,360
2,note_on,50,0,120
2,note_on,38,32,360
2,note_on,38,0,120
2,note_on,43,30,360
2,note_on,43,0,120
2,note_on,45,37,120
2,note_on,45,0,120
2,note_on,48,40,120
2,note_on,48,0,120
2,note_on,50,44,120
2,note_on,50,0,120
2,note_on,55,35,120
2,note_on,55,0,120
2,note_on,50,39,120
2,note_on,50,0,120
2,note_on,46,32,120
2,note_on,46,0,120
2,note_on,43,32,360
2,note_on,43,0,120
2,note_on,43,32,360
2,note_on,43,0,120
2,note_on,38,36,360
2,note_on,38,0,120
2,note_on,43,32,360
2,note_on,43,0,120
2,note_on,36,38,360
2,note_on,36,0,120
2,note_on,41,43,360
2,note_on,41,0,120
2,note_on,34,45,360
2,note_on,34,0,120
2,note_on,46,43,360
2,note_on,46,0,120
2,note_on,45,50,360
2,note_on,45,0,120
2,note_on,38,42,360
2,note_on,38,0,120
2,note_on,43,42,360
2,note_on,43,0,120
2,note_on,31,41,360
2,note_on,31,0,120
2,note_on,39,39,360
2,note_on,39,0,120
2,note_on,36,32,360
2,note_on,36,0,120
2,note_on,41,32,360
2,note_on,41,0,120
2,note_on,29,32,360
2,note_on,29,0,120
2,note_on,46,30,360
2,note_on,46,0,120
2,note_on,48,37,120
2,note_on,48,0,120
2,note_on,51,40,120
2,note_on,51,0,120
2,note_on,50,44,120
2,note_on,50,0,120
2,note_on,58,35,120
2,note_on,58,0,120
2,note_on,53,39,120
2,note_on,53,0,120
2,note_on,50,32,120
2,note_on,50,0,120
2,note_on,46,44,120
2,note_on,46,0,120
2,note_on,50,36,0
2,note_on,50,0,120
2,note_on,53,36,0
2,note_on,53,0,120
2,note_on,50,36,0
2,note_on,50,0,120
2,note_on,46,45,0
2,note_on,46,0,120
2,note_on,50,38,0
2,note_on,50,0,120
2,note_on,53,38,0
2,note_on,53,0,120
2,note_on,50,46,0
2,note_on,50,0,120
2,note_on,45,55,0
2,note_on,45,0,120
2,note_on,48,46,0
2,note_on,48,0,120
2,note_on,50,47,0
2,note_on,50,0,120
2,note_on,48,50,0
2,note_on,48,0,120
2,note_on,43,60,0
2,note_on,43,0,120
2,note_on,48,52,0
2,note_on,48,0,120
2,note_on,50,49,0
2,note_on,50,0,120
2,note_on,48,50,0
2,note_on,48,0,120
2,note_on,42,72,0
2,note_on,42,0,120
2,note_on,48,55,0
2,note_on,48,0,120
2,note_on,50,59,0
2,note_on,50,0,120
2,note_on,48,59,0
2,note_on,48,0,120
2,note_on,42,68,0
2,note_on,42,0,120
2,note_on,45,53,0
2,note_on,45,0,120
2,note_on,50,53,0
2,note_on,50,0,120
2,note_on,45,53,0
2,note_on,45,0,120
2,note_on,43,63,0
2,note_on,43,0,120
2,note_on,46,48,0
2,note_on,46,0,120
2,note_on,50,48,0
2,note_on,50,0,120
2,note_on,46,48,0
2,note_on,46,0,120
2,note_on,48,48,0
2,note_on,48,0,120
2,note_on,51,35,0
2,note_on,51,0,120
2,note_on,57,35,0
2,note_on,57,0,120
2,note_on,51,36,0
2,note_on,51,0,120
2,note_on,50,50,0
2,note_on,50,0,120
2,note_on,57,39,0
2,note_on,57,0,120
2,note_on,60,39,0
2,note_on,60,0,120
2,note_on,57,39,0
2,note_on,57,0,120
2,note_on,50,47,0
2,note_on,50,0,120
2,note_on,57,39,0
2,note_on,57,0,120
2,note_on,60,39,0
2,note_on,60,0,120
2,note_on,57,39,0
2,note_on,57,0,120
2,note_on,50,47,0
2,note_on,50,0,120
2,note_on,57,40,0
2,note_on,57,0,120
2,note_on,60,40,0
2,note_on,60,0,120
2,note_on,57,40,0
2,note_on,57,0,120
2,note_on,50,44,0
2,note_on,50,0,120
2,note_on,57,36,0
2,note_on,57,0,120
2,note_on,60,36,0
2,note_on,60,0,120
2,note_on,57,36,0
2,note_on,57,0,120
2,note_on,55,44,0
2,note_on,55,0,120
2,note_on,58,37,0
2,note_on,58,0,120
2,note_on,55,37,0
2,note_on,55,0,120
2,note_on,50,37,0
2,note_on,50,0,120
2,note_on,46,44,0
2,note_on,46,0,120
2,note_on,55,38,0
2,note_on,55,0,120
2,note_on,50,38,0
2,note_on,50,0,120
2,note_on,46,38,0
2,note_on,46,0,120
2,note_on,43,44,0
2,note_on,43,0,120
2,note_on,43,58,360
2,note_on,55,69,0
2,note_on,55,0,360
2,note_on,43,0,0
2,note_on,46,51,0
2,note_on,58,61,0
2,note_on,58,0,120
2,note_on,46,0,0
2,note_on,50,62,0
2,note_on,62,74,0
2,note_on,62,0,360
2,note_on,50,0,0
2,note_on,50,56,120
2,note_on,62,67,0
2,note_on,62,0,360
2,note_on,50,0,0
2,note_on,50,58,120
2,note_on,62,69,0
2,note_on,62,0,360
2,note_on,50,0,0
2,note_on,50,57,120
2,note_on,62,68,0
2,note_on,62,0,360
2,note_on,50,0,0
2,note_on,51,63,120
2,note_on,63,75,0
2,note_on,63,0,960
2,note_on,51,0,0
2,note_on,50,61,0
2,note_on,62,72,0
2,note_on,62,0,960
2,note_on,50,0,0
2,note_on,48,63,0
2,note_on,60,75,0
2,note_on,60,0,960
2,note_on,48,0,0
2,note_on,46,57,0
2,note_on,58,68,0
2,note_on,58,0,960
2,note_on,46,0,0
2,note_on,45,57,0
2,note_on,57,68,0
2,note_on,57,0,480
2,note_on,45,0,0
2,note_on,48,56,0
2,note_on,60,66,0
2,note_on,60,0,480
2,note_on,48,0,0
2,note_on,46,62,0
2,note_on,58,73,0
2,note_on,58,0,480
2,note_on,46,0,0
2,note_on,45,45,0
2,note_on,57,64,0
2,note_on,57,0,480
2,note_on,45,0,0
2,note_on,55,72,0
2,note_on,43,51,0
2,note_on,43,0,1440
2,note_on,55,0,0
2,note_on,55,69,0
2,note_on,43,69,0
2,note_on,43,0,360
2,note_on,55,0,0
2,note_on,46,61,0
2,note_on,58,61,0
2,note_on,58,0,120
2,note_on,46,0,0
2,note_on,50,74,0
2,note_on,62,74,0
2,note_on,62,0,338
2,note_on,50,0,22
2,note_on,62,67,120
2,note_on,50,55,0
2,note_on,50,0,360
2,note_on,62,0,0
2,note_on,50,58,120
2,note_on,62,69,0
2,note_on,62,0,360
2,note_on,50,0,0
2,note_on,50,57,120
2,note_on,62,68,0
2,note_on,62,0,360
2,note_on,50,0,0
2,note_on,51,63,120
2,note_on,63,75,0
2,note_on,63,0,960
2,note_on,51,0,0
2,note_on,50,60,0
2,note_on,62,72,0
2,note_on,62,0,960
2,note_on,50,0,0
2,note_on,48,63,0
2,note_on,60,75,0
2,note_on,60,0,960
2,note_on,48,0,0
2,note_on,58,68,0
2,note_on,46,57,0
2,note_on,46,0,720
2,note_on,58,0,0
2,note_on,45,60,0
2,note_on,57,66,0
2,note_on,57,0,240
2,note_on,45,0,0
2,note_on,55,70,0
2,note_on,43,60,0
2,note_on,43,0,480
2,note_on,55,0,0
2,note_on,51,55,0
2,note_on,63,66,0
2,note_on,63,0,480
2,note_on,51,0,0
2,note_on,62,67,0
2,note_on,50,56,0
2,note_on,50,0,480
2,note_on,62,0,0
2,note_on,48,50,0
2,note_on,60,60,0
2,note_on,60,0,480
2,note_on,48,0,0
2,note_on,46,60,0
2,note_on,58,70,0
2,note_on,58,0,1440
2,note_on,46,0,0
2,note_on,46,44,480
2,note_on,46,0,120
2,note_on,50,36,0
2,note_on,50,0,120
2,note_on,53,36,0
2,note_on,53,0,120
2,note_on,50,36,0
2,note_on,50,0,120
2,note_on,46,45,0
2,note_on,46,0,120
2,note_on,50,38,0
2,note_on,50,0,120
2,note_on,53,38,0
2,note_on,53,0,120
2,note_on,50,46,0
2,note_on,50,0,120
2,note_on,45,54,0
2,note_on,45,0,120
2,note_on,48,45,0
2,note_on,48,0,120
2,note_on,50,45,0
2,note_on,50,0,120
2,note_on,48,48,0
2,note_on,48,0,120
2,note_on,43,57,0
2,note_on,43,0,120
2,note_on,48,49,0
2,note_on,48,0,120
2,note_on,50,46,0
2,note_on,50,0,120
2,note_on,48,46,0
2,note_on,48,0,120
2,note_on,42,66,0
2,note_on,42,0,120
2,note_on,48,50,0
2,note_on,48,0,120
2,note_on,50,54,0
2,note_on,50,0,120
2,note_on,48,54,0
2,note_on,48,0,120
2,note_on,42,62,0
2,note_on,42,0,120
2,note_on,45,49,0
2,note_on,45,0,120
2,note_on,50,49,0
2,note_on,50,0,120
2,note_on,45,49,0
2,note_on,45,0,120
2,note_on,43,58,0
2,note_on,43,0,120
2,note_on,46,44,0
2,note_on,46,0,120
2,note_on,50,44,0
2,note_on,50,0,120
2,note_on,46,44,0
2,note_on,46,0,120
2,note_on,48,48,0
2,note_on,48,0,120
2,note_on,51,35,0
2,note_on,51,0,120
2,note_on,57,35,0
2,note_on,57,0,120
2,note_on,51,36,0
2,note_on,51,0,120
2,note_on,50,50,0
2,note_on,50,0,120
2,note_on,57,39,0
2,note_on,57,0,120
2,note_on,60,39,0
2,note_on,60,0,120
2,note_on,57,39,0
2,note_on,57,0,120
2,note_on,50,47,0
2,note_on,50,0,120
2,note_on,57,39,0
2,note_on,57,0,120
2,note_on,60,39,0
2,note_on,60,0,120
2,note_on,57,39,0
2,note_on,57,0,120
2,note_on,50,47,0
2,note_on,50,0,120
2,note_on,57,40,0
2,note_on,57,0,120
2,note_on,60,40,0
2,note_on,60,0,120
2,note_on,57,40,0
2,note_on,57,0,120
2,note_on,50,44,0
2,note_on,50,0,120
2,note_on,57,36,0
2,note_on,57,0,120
2,note_on,60,36,0
2,note_on,60,0,120
2,note_on,57,36,0
2,note_on,57,0,120
2,note_on,43,33,0
2,note_on,43,0,120
2,note_on,50,19,40
2,note_on,55,19,0
2,note_on,59,23,0
2,note_on,59,0,120
2,note_on,55,0,0
2,note_on,50,0,0
2,note_on,50,19,40
2,note_on,55,19,0
2,note_on,59,23,0
2,note_on,59,0,120
2,note_on,55,0,0
2,note_on,50,0,0
2,note_on,50,21,40
2,note_on,55,21,0
2,note_on,59,25,0
2,note_on,59,0,120
2,note_on,55,0,0
2,note_on,50,0,0
2,note_on,50,21,40
2,note_on,59,25,0
2,note_on,55,21,0
2,note_on,55,0,120
2,note_on,59,0,0
2,note_on,50,0,0
2,note_on,59,25,40
2,note_on,55,21,0
2,note_on,50,21,0
2,note_on,50,0,120
2,note_on,55,0,0
2,note_on,59,0,0
2,note_on,59,32,40
2,note_on,50,27,0
2,note_on,55,27,0
2,note_on,55,0,120
2,note_on,50,0,0
2,note_on,59,0,0
2,note_on,59,24,40
2,note_on,50,20,0
2,note_on,55,20,0
2,note_on,55,0,120
2,note_on,50,0,0
2,note_on,59,0,0
2,note_on,50,21,40
2,note_on,59,25,0
2,note_on,55,21,0
2,note_on,55,0,120
2,note_on,59,0,0
2,note_on,50,0,0
2,note_on,59,33,40
2,note_on,55,28,0
2,note_on,50,28,0
2,note_on,50,0,120
2,note_on,55,0,0
2,note_on,59,0,0
2,note_on,55,21,40
2,note_on,59,25,0
2,note_on,50,21,0
2,note_on,50,0,120
2,note_on,59,0,0
2,note_on,55,0,0
2,note_on,59,25,40
2,note_on,55,21,0
2,note_on,50,21,0
2,note_on,50,0,120
2,note_on,55,0,0
2,note_on,59,0,0
2,note_on,36,33,40
2,note_on,36,0,120
2,note_on,52,19,40
2,note_on,59,23,0
2,note_on,48,19,0
2,note_on,48,0,120
2,note_on,59,0,0
2,note_on,52,0,0
2,note_on,59,23,40
2,note_on,52,19,0
2,note_on,48,19,0
2,note_on,48,0,120
2,note_on,52,0,0
2,note_on,59,0,0
2,note_on,56,30,40
2,note_on,48,25,0
2,note_on,52,25,0
2,note_on,52,0,120
2,note_on,48,0,0
2,note_on,56,0,0
2,note_on,52,21,40
2,note_on,48,21,0
2,note_on,56,25,0
2,note_on,56,0,120
2,note_on,48,0,0
2,note_on,52,0,0
2,note_on,48,21,40
2,note_on,56,25,0
2,note_on,52,21,0
2,note_on,52,0,120
2,note_on,56,0,0
2,note_on,48,0,0
2,note_on,48,27,40
2,note_on,57,32,0
2,note_on,52,27,0
2,note_on,52,0,120
2,note_on,57,0,0
2,note_on,48,0,0
2,note_on,48,20,40
2,note_on,52,20,0
2,note_on,57,24,0
2,note_on,57,0,120
2,note_on,52,0,0
2,note_on,48,0,0
2,note_on,57,25,40
2,note_on,48,21,0
2,note_on,52,21,0
2,note_on,52,0,120
2,note_on,48,0,0
2,note_on,57,0,0
2,note_on,48,28,40
2,note_on,57,33,0
2,note_on,52,28,0
2,note_on,52,0,120
2,note_on,57,0,0
2,note_on,48,0,0
2,note_on,48,21,40
2,note_on,52,21,0
2,note_on,57,25,0
2,note_on,57,0,120
2,note_on,52,0,0
2,note_on,48,0,0
2,note_on,52,21,40
2,note_on,48,21,0
2,note_on,57,25,0
2,note_on,57,0,120
2,note_on,48,0,0
2,note_on,52,0,0
2,note_on,35,33,40
2,note_on,35,0,120
2,note_on,47,19,40
2,note_on,50,19,0
2,note_on,57,23,0
2,note_on,57,0,120
2,note_on,50,0,0
2,note_on,47,0,0
2,note_on,50,19,40
2,note_on,47,19,0
2,note_on,57,23,0
2,note_on,57,0,120
2,note_on,47,0,0
2,note_on,50,0,0
2,note_on,47,25,40
2,note_on,54,30,0
2,note_on,50,25,0
2,note_on,50,0,120
2,note_on,54,0,0
2,note_on,47,0,0
2,note_on,54,25,40
2,note_on,50,21,0
2,note_on,47,21,0
2,note_on,47,0,120
2,note_on,50,0,0
2,note_on,54,0,0
2,note_on,47,21,40
2,note_on,50,21,0
2,note_on,54,25,0
2,note_on,54,0,120
2,note_on,50,0,0
2,note_on,47,0,0
2,note_on,55,35,40
2,note_on,50,29,0
2,note_on,47,29,0
2,note_on,47,0,120
2,note_on,50,0,0
2,note_on,55,0,0
2,note_on,50,22,40
2,note_on,47,22,0
2,note_on,55,27,0
2,note_on,55,0,120
2,note_on,47,0,0
2,note_on,50,0,0
2,note_on,50,24,40
2,note_on,55,29,0
2,note_on,47,24,0
2,note_on,47,0,120
2,note_on,55,0,0
2,note_on,50,0,0
2,note_on,47,33,40
2,note_on,55,39,0
2,note_on,50,33,0
2,note_on,50,0,120
2,note_on,55,0,0
2,note_on,47,0,0
2,note_on,47,25,40
2,note_on,55,30,0
2,note_on,50,25,0
2,note_on,50,0,120
2,note_on,55,0,0
2,note_on,47,0,0
2,note_on,50,26,40
2,note_on,47,26,0
2,note_on,55,31,0
2,note_on,55,0,120
2,note_on,47,0,0
2,note_on,50,0,0
2,note_on,36,42,40
2,note_on,36,0,120
2,note_on,52,30,40
2,note_on,48,25,0
2,note_on,48,0,120
2,note_on,52,0,0
2,note_on,52,31,40
2,note_on,48,26,0
2,note_on,48,0,120
2,note_on,52,0,0
2,note_on,48,33,40
2,note_on,52,39,0
2,note_on,52,0,120
2,note_on,48,0,0
2,note_on,48,24,40
2,note_on,52,29,0
2,note_on,52,0,120
2,note_on,48,0,0
2,note_on,52,28,40
2,note_on,48,23,0
2,note_on,48,0,120
2,note_on,52,0,0
2,note_on,38,36,40
2,note_on,38,0,120
2,note_on,50,21,40
2,note_on,55,26,0
2,note_on,55,0,120
2,note_on,50,0,0
2,note_on,55,26,40
2,note_on,50,22,0
2,note_on,50,0,120
2,note_on,55,0,0
2,note_on,38,34,40
2,note_on,38,0,120
2,note_on,50,21,40
2,note_on,54,26,0
2,note_on,54,0,120
2,note_on,50,0,0
2,note_on,50,21,40
2,note_on,54,25,0
2,note_on,54,0,120
2,note_on,50,0,0
2,note_on,43,33,40
2,note_on,43,0,120
2,note_on,59,23,40
2,note_on,50,19,0
2,note_on,55,19,0
2,note_on,55,0,120
2,note_on,50,0,0
2,note_on,59,0,0
2,note_on,55,19,40
2,note_on,59,23,0
2,note_on,50,19,0
2,note_on,50,0,120
2,note_on,59,0,0
2,note_on,55,0,0
2,note_on,59,25,40
2,note_on,50,21,0
2,note_on,55,21,0
2,note_on,55,0,120
2,note_on,50,0,0
2,note_on,59,0,0
2,note_on,59,25,40
2,note_on,55,21,0
2,note_on,50,21,0
2,note_on,50,0,120
2,note_on,55,0,0
2,note_on,59,0,0
2,note_on,59,25,40
2,note_on,50,21,0
2,note_on,55,21,0
2,note_on,55,0,120
2,note_on,50,0,0
2,note_on,59,0,0
2,note_on,59,32,40
2,note_on,50,27,0
2,note_on,55,27,0
2,note_on,55,0,120
2,note_on,50,0,0
2,note_on,59,0,0
2,note_on,55,20,40
2,note_on,59,24,0
2,note_on,50,20,0
2,note_on,50,0,120
2,note_on,59,0,0
2,note_on,55,0,0
2,note_on,50,21,40
2,note_on,55,21,0
2,note_on,59,25,0
2,note_on,59,0,120
2,note_on,55,0,0
2,note_on,50,0,0
2,note_on,59,33,40
2,note_on,55,28,0
2,note_on,50,28,0
2,note_on,50,0,120
2,note_on,55,0,0
2,note_on,59,0,0
2,note_on,50,21,40
2,note_on,55,21,0
2,note_on,59,25,0
2,note_on,59,0,120
2,note_on,55,0,0
2,note_on,50,0,0
2,note_on,50,21,40
2,note_on,59,25,0
2,note_on,55,21,0
2,note_on,55,0,120
2,note_on,59,0,0
2,note_on,50,0,0
2,note_on,36,33,40
2,note_on,36,0,120
2,note_on,48,19,40
2,note_on,52,19,0
2,note_on,59,23,0
2,note_on,59,0,120
2,note_on,52,0,0
2,note_on,48,0,0
2,note_on,59,23,40
2,note_on,52,19,0
2,note_on,48,19,0
2,note_on,48,0,120
2,note_on,52,0,0
2,note_on,59,0,0
2,note_on,48,25,40
2,note_on,59,30,0
2,note_on,52,25,0
2,note_on,52,0,120
2,note_on,59,0,0
2,note_on,48,0,0
2,note_on,52,21,40
2,note_on,59,25,0
2,note_on,48,21,0
2,note_on,48,0,120
2,note_on,59,0,0
2,note_on,52,0,0
2,note_on,52,21,40
2,note_on,48,21,0
2,note_on,59,25,0
2,note_on,59,0,120
2,note_on,48,0,0
2,note_on,52,0,0
2,note_on,57,32,40
2,note_on,52,27,0
2,note_on,48,27,0
2,note_on,48,0,120
2,note_on,52,0,0
2,note_on,57,0,0
2,note_on,52,20,40
2,note_on,57,24,0
2,note_on,48,20,0
2,note_on,48,0,120
2,note_on,57,0,0
2,note_on,52,0,0
2,note_on,52,21,40
2,note_on,57,25,0
2,note_on,48,21,0
2,note_on,48,0,120
2,note_on,57,0,0
2,note_on,52,0,0
2,note_on,52,28,40
2,note_on,57,33,0
2,note_on,48,28,0
2,note_on,48,0,120
2,note_on,57,0,0
2,note_on,52,0,0
2,note_on,52,21,40
2,note_on,48,21,0
2,note_on,57,25,0
2,note_on,57,0,120
2,note_on,48,0,0
2,note_on,52,0,0
2,note_on,48,21,40
2,note_on,57,25,0
2,note_on,52,21,0
2,note_on,52,0,120
2,note_on,57,0,0
2,note_on,48,0,0
2,note_on,35,33,40
2,note_on,35,0,120
2,note_on,57,23,40
2,note_on,50,19,0
2,note_on,47,19,0
2,note_on,47,0,120
2,note_on,50,0,0
2,note_on,57,0,0
2,note_on,57,23,40
2,note_on,47,19,0
2,note_on,50,19,0
2,note_on,50,0,120
2,note_on,47,0,0
2,note_on,57,0,0
2,note_on,50,25,40
2,note_on,57,30,0
2,note_on,47,25,0
2,note_on,47,0,120
2,note_on,57,0,0
2,note_on,50,0,0
2,note_on,50,21,40
2,note_on,47,21,0
2,note_on,57,25,0
2,note_on,57,0,120
2,note_on,47,0,0
2,note_on,50,0,0
2,note_on,57,25,40
2,note_on,47,21,0
2,note_on,50,21,0
2,note_on,50,0,120
2,note_on,47,0,0
2,note_on,57,0,0
2,note_on,50,29,40
2,note_on,47,29,0
2,note_on,55,35,0
2,note_on,55,0,120
2,note_on,47,0,0
2,note_on,50,0,0
2,note_on,55,27,40
2,note_on,47,22,0
2,note_on,50,22,0
2,note_on,50,0,120
2,note_on,47,0,0
2,note_on,55,0,0
2,note_on,50,24,40
2,note_on,47,24,0
2,note_on,55,29,0
2,note_on,55,0,120
2,note_on,47,0,0
2,note_on,50,0,0
2,note_on,50,33,40
2,note_on,55,39,0
2,note_on,47,33,0
2,note_on,47,0,120
2,note_on,55,0,0
2,note_on,50,0,0
2,note_on,50,25,40
2,note_on,47,25,0
2,note_on,55,30,0
2,note_on,55,0,120
2,note_on,47,0,0
2,note_on,50,0,0
2,note_on,50,26,40
2,note_on,55,31,0
2,note_on,47,26,0
2,note_on,47,0,120
2,note_on,55,0,0
2,note_on,50,0,0
2,note_on,36,42,40
2,note_on,36,0,120
2,note_on,55,30,40
2,note_on,48,25,0
2,note_on,52,25,0
2,note_on,52,0,120
2,note_on,48,0,0
2,note_on,55,0,0
2,note_on,52,26,40
2,note_on,55,31,0
2,note_on,48,26,0
2,note_on,48,0,120
2,note_on,55,0,0
2,note_on,52,0,0
2,note_on,52,33,40
2,note_on,56,39,0
2,note_on,48,33,0
2,note_on,48,0,120
2,note_on,56,0,0
2,note_on,52,0,0
2,note_on,52,24,40
2,note_on,48,24,0
2,note_on,56,29,0
2,note_on,56,0,120
2,note_on,48,0,0
2,note_on,52,0,0
2,note_on,57,28,40
2,note_on,48,23,0
2,note_on,52,23,0
2,note_on,52,0,120
2,note_on,48,0,0
2,note_on,57,0,0
2,note_on,38,36,40
2,note_on,38,0,120
2,note_on,50,21,40
2,note_on,55,26,0
2,note_on,55,0,120
2,note_on,50,0,0
2,note_on,50,22,40
2,note_on,55,26,0
2,note_on,55,0,120
2,note_on,50,0,0
2,note_on,38,34,40
2,note_on,38,0,120
2,note_on,54,21,40
2,note_on,57,26,0
2,note_on,50,21,0
2,note_on,50,0,120
2,note_on,57,0,0
2,note_on,54,0,0
2,note_on,54,21,40
2,note_on,57,25,0
2,note_on,50,21,0
2,note_on,50,0,120
2,note_on,57,0,0
2,note_on,54,0,0
2,note_on,43,48,40
2,note_on,50,48,0
2,note_on,55,48,0
2,note_on,55,0,480
2,note_on,50,0,0
2,note_on,43,0,0
2,note_on,47,35,960
2,note_on,47,0,360
2,note_on,48,30,0
2,note_on,48,0,120
2,note_on,50,40,0
2,note_on,50,0,338
2,note_on,50,33,142
2,note_on,50,0,338
2,note_on,50,33,142
2,note_on,50,0,338
2,note_on,48,36,142
2,note_on,48,0,360
2,note_on,50,37,0
2,note_on,50,0,120
2,note_on,51,42,0
2,note_on,51,0,720
2,note_on,50,35,0
2,note_on,50,0,240
2,note_on,48,31,0
2,note_on,48,0,480
2,note_on,46,39,0
2,note_on,46,0,360
2,note_on,44,33,0
2,note_on,44,0,120
2,note_on,43,36,0
2,note_on,43,0,480
2,note_on,43,36,0
2,note_on,43,0,480
2,note_on,43,36,0
2,note_on,43,0,480
2,note_on,43,36,0
2,note_on,43,0,480
2,note_on,48,48,0
2,note_on,48,0,960
2,note_on,35,42,480
2,note_on,47,50,0
2,note_on,47,0,360
2,note_on,35,0,0
2,note_on,36,37,0
2,note_on,48,44,0
2,note_on,48,0,120
2,note_on,36,0,0
2,note_on,50,62,0
2,note_on,38,51,0
2,note_on,50,0,338
2,note_on,38,0,22
2,note_on,38,42,120
2,note_on,50,50,0
2,note_on,50,0,338
2,note_on,38,0,22
2,note_on,38,42,120
2,note_on,50,50,0
2,note_on,50,0,338
2,note_on,38,0,22
2,note_on,36,50,120
2,note_on,48,59,0
2,note_on,48,0,360
2,note_on,36,0,0
2,note_on,38,57,0
2,note_on,50,67,0
2,note_on,50,0,120
2,note_on,38,0,0
2,note_on,39,63,0
2,note_on,51,76,0
2,note_on,51,0,720
2,note_on,39,0,0
2,note_on,38,54,0
2,note_on,50,64,0
2,note_on,50,0,240
2,note_on,38,0,0
2,note_on,36,46,0
2,note_on,48,55,0
2,note_on,48,0,480
2,note_on,36,0,0
2,note_on,34,57,0
2,note_on,46,67,0
2,note_on,46,0,360
2,note_on,34,0,0
2,note_on,44,55,0
2,note_on,32,46,0
2,note_on,32,0,120
2,note_on,44,0,0
2,note_on,31,46,0
2,note_on,43,55,0
2,note_on,43,0,480
2,note_on,31,0,0
2,note_on,31,46,0
2,note_on,43,55,0
2,note_on,43,0,480
2,note_on,31,0,0
2,note_on,43,55,0
2,note_on,31,46,0
2,note_on,31,0,480
2,note_on,43,0,0
2,note_on,43,55,0
2,note_on,31,46,0
2,note_on,31,0,480
2,note_on,43,0,0
2,note_on,36,40,0
2,note_on,48,40,0
2,note_on,48,0,160
2,note_on,36,0,0
2,note_on,55,31,0
2,note_on,55,0,120
2,note_on,55,31,40
2,note_on,55,0,120
2,note_on,55,31,40
2,note_on,55,0,120
2,note_on,55,29,40
2,note_on,55,0,120
2,note_on,55,29,40
2,note_on,55,0,120
2,note_on,55,29,40
2,note_on,55,0,120
2,note_on,55,28,40
2,note_on,55,0,120
2,note_on,55,28,40
2,note_on,55,0,120
2,note_on,55,31,40
2,note_on,55,0,120
2,note_on,55,30,40
2,note_on,55,0,120
2,note_on,55,30,40
2,note_on,55,0,120
2,note_on,55,31,40
2,note_on,55,0,120
2,note_on,55,27,40
2,note_on,55,0,120
2,note_on,55,27,40
2,note_on,55,0,120
2,note_on,55,31,40
2,note_on,55,0,120
2,note_on,55,28,40
2,note_on,55,0,120
2,note_on,55,28,40
2,note_on,55,0,120
2,note_on,55,31,40
2,note_on,55,0,120
2,note_on,55,31,40
2,note_on,55,0,120
2,note_on,55,31,40
2,note_on,55,0,120
2,note_on,55,31,40
2,note_on,55,0,120
2,note_on,55,31,40
2,note_on,55,0,120
2,note_on,55,32,40
2,note_on,55,0,120
2,note_on,55,40,40
2,note_on,55,0,120
2,note_on,55,31,40
2,note_on,55,0,120
2,note_on,55,26,40
2,note_on,55,0,120
2,note_on,55,33,40
2,note_on,55,0,120
2,note_on,55,29,40
2,note_on,55,0,120
2,note_on,55,26,40
2,note_on,55,0,120
2,note_on,55,33,40
2,note_on,55,0,120
2,note_on,55,30,40
2,note_on,55,0,120
2,note_on,55,29,40
2,note_on,55,0,120
2,note_on,55,33,40
2,note_on,55,0,120
2,note_on,55,30,40
2,note_on,55,0,120
2,note_on,55,30,40
2,note_on,55,0,120
2,note_on,55,31,40
2,note_on,55,0,120
2,note_on,55,28,40
2,note_on,55,0,120
2,note_on,55,28,40
2,note_on,55,0,120
2,note_on,55,31,40
2,note_on,55,0,120
2,note_on,55,28,40
2,note_on,55,0,120
2,note_on,53,26,40
2,note_on,55,31,0
2,note_on,55,0,120
2,note_on,53,0,0
2,note_on,52,30,40
2,note_on,55,36,0
2,note_on,55,0,120
2,note_on,52,0,0
2,note_on,55,29,40
2,note_on,55,0,120
2,note_on,55,29,40
2,note_on,55,0,120
2,note_on,48,30,40
2,note_on,55,36,0
2,note_on,55,0,120
2,note_on,48,0,0
2,note_on,55,31,40
2,note_on,55,0,120
2,note_on,55,31,40
2,note_on,55,0,120
2,note_on,43,35,40
2,note_on,55,37,0
2,note_on,55,0,120
2,note_on,43,0,0
2,note_on,55,29,40
2,note_on,55,0,120
2,note_on,55,29,40
2,note_on,55,0,120
2,note_on,55,44,40
2,note_on,55,0,120
2,note_on,55,37,40
2,note_on,55,0,120
2,note_on,55,39,40
2,note_on,55,0,120
2,note_on,55,53,40
2,note_on,55,0,120
2,note_on,55,39,40
2,note_on,55,0,120
2,note_on,55,40,40
2,note_on,55,0,120
2,note_on,55,52,40
2,note_on,55,0,120
2,note_on,55,45,40
2,note_on,55,0,120
2,note_on,55,52,40
2,note_on,55,0,120
2,note_on,55,59,40
2,note_on,55,0,120
2,note_on,55,47,40
2,note_on,55,0,120
2,note_on,55,47,40
2,note_on,55,0,120
2,note_on,55,52,40
2,note_on,54,52,0
2,note_on,54,0,120
2,note_on,55,0,0
2,note_on,55,43,40
2,note_on,54,43,0
2,note_on,54,0,120
2,note_on,55,0,0
2,note_on,55,43,40
2,note_on,54,43,0
2,note_on,54,0,120
2,note_on,55,0,0
2,note_on,53,54,40
2,note_on,55,54,0
2,note_on,55,0,120
2,note_on,53,0,0
2,note_on,55,45,40
2,note_on,53,45,0
2,note_on,53,0,120
2,note_on,55,0,0
2,note_on,55,45,40
2,note_on,53,45,0
2,note_on,53,0,120
2,note_on,55,0,0
2,note_on,55,53,40
2,note_on,52,53,0
2,note_on,52,0,120
2,note_on,55,0,0
2,note_on,52,43,40
2,note_on,55,43,0
2,note_on,55,0,120
2,note_on,52,0,0
2,note_on,53,44,40
2,note_on,50,44,0
2,note_on,55,44,0
2,note_on,55,0,120
2,note_on,50,0,0
2,note_on,53,0,0
2,note_on,52,57,40
2,note_on,48,57,0
2,note_on,55,57,0
2,note_on,55,0,120
2,note_on,48,0,0
2,note_on,52,0,0
2,note_on,52,45,40
2,note_on,48,45,0
2,note_on,55,45,0
2,note_on,55,0,120
2,note_on,48,0,0
2,note_on,52,0,0
2,note_on,52,45,40
2,note_on,55,45,0
2,note_on,48,45,0
2,note_on,48,0,120
2,note_on,55,0,0
2,note_on,52,0,0
2,note_on,44,54,40
2,note_on,53,54,0
2,note_on,50,54,0
2,note_on,50,0,120
2,note_on,53,0,0
2,note_on,44,0,0
2,note_on,44,45,40
2,note_on,53,45,0
2,note_on,50,45,0
2,note_on,50,0,120
2,note_on,53,0,0
2,note_on,44,0,0
2,note_on,44,45,40
2,note_on,50,45,0
2,note_on,53,45,0
2,note_on,53,0,120
2,note_on,50,0,0
2,note_on,44,0,0
2,note_on,48,55,40
2,note_on,45,55,0
2,note_on,52,55,0
2,note_on,52,0,120
2,note_on,45,0,0
2,note_on,48,0,0
2,note_on,48,43,40
2,note_on,45,43,0
2,note_on,52,43,0
2,note_on,52,0,120
2,note_on,45,0,0
2,note_on,48,0,0
2,note_on,48,43,40
2,note_on,45,43,0
2,note_on,52,43,0
2,note_on,52,0,120
2,note_on,45,0,0
2,note_on,48,0,0
2,note_on,41,52,40
2,note_on,41,0,160
2,note_on,53,43,0
2,note_on,57,43,0
2,note_on,57,0,120
2,note_on,53,0,0
2,note_on,57,42,40
2,note_on,53,42,0
2,note_on,53,0,120
2,note_on,57,0,0
2,note_on,43,54,40
2,note_on,43,0,160
2,note_on,55,45,0
2,note_on,55,0,120
2,note_on,55,45,40
2,note_on,55,0,120
2,note_on,43,54,40
2,note_on,43,0,160
2,note_on,55,45,0
2,note_on,55,0,120
2,note_on,55,45,40
2,note_on,55,0,120
2,note_on,43,54,40
2,note_on,43,0,160
2,note_on,55,45,0
2,note_on,55,0,120
2,note_on,55,45,40
2,note_on,55,0,120
2,note_on,55,57,40
2,note_on,55,0,120
2,note_on,57,43,40
2,note_on,55,43,0
2,note_on,55,0,120
2,note_on,57,0,0
2,note_on,59,43,40
2,note_on,55,43,0
2,note_on,55,0,120
2,note_on,59,0,0
2,note_on,55,40,40
2,note_on,48,40,0
2,note_on,60,40,0
2,note_on,60,0,160
2,note_on,48,0,0
2,note_on,55,31,0
2,note_on,55,0,20
2,note_on,55,0,100
2,note_on,55,31,40
2,note_on,55,0,120
2,note_on,55,31,40
2,note_on,55,0,120
2,note_on,55,29,40
2,note_on,55,0,120
2,note_on,55,29,40
2,note_on,55,0,120
2,note_on,55,29,40
2,note_on,55,0,120
2,note_on,55,28,40
2,note_on,55,0,120
2,note_on,55,28,40
2,note_on,55,0,120
2,note_on,55,31,40
2,note_on,55,0,120
2,note_on,55,30,40
2,note_on,55,0,120
2,note_on,55,30,40
2,note_on,55,0,120
2,note_on,55,31,40
2,note_on,55,0,120
2,note_on,55,27,40
2,note_on,55,0,120
2,note_on,55,27,40
2,note_on,55,0,120
2,note_on,55,31,40
2,note_on,55,0,120
2,note_on,55,28,40
2,note_on,55,0,120
2,note_on,55,28,40
2,note_on,55,0,120
2,note_on,55,31,40
2,note_on,55,0,120
2,note_on,55,31,40
2,note_on,55,0,120
2,note_on,55,31,40
2,note_on,55,0,120
2,note_on,55,31,40
2,note_on,55,0,120
2,note_on,55,31,40
2,note_on,55,0,120
2,note_on,55,32,40
2,note_on,55,0,120
2,note_on,60,53,40
2,note_on,55,40,0
2,note_on,55,0,120
2,note_on,55,31,40
2,note_on,55,0,120
2,note_on,55,26,40
2,note_on,55,0,120
2,note_on,55,33,40
2,note_on,55,0,120
2,note_on,55,29,40
2,note_on,60,0,80
2,note_on,62,44,0
2,note_on,55,0,40
2,note_on,55,26,40
2,note_on,55,0,120
2,note_on,62,0,40
2,note_on,63,39,0
2,note_on,55,33,0
2,note_on,55,0,120
2,note_on,55,30,40
2,note_on,55,0,120
2,note_on,55,29,40
2,note_on,55,0,120
2,note_on,63,0,40
2,note_on,66,39,0
2,note_on,55,33,0
2,note_on,55,0,120
2,note_on,55,30,40
2,note_on,55,0,120
2,note_on,55,30,40
2,note_on,55,0,120
2,note_on,66,0,40
2,note_on,67,39,0
2,note_on,55,31,0
2,note_on,55,0,120
2,note_on,55,28,40
2,note_on,55,0,120
2,note_on,55,28,40
2,note_on,55,0,120
2,note_on,67,0,40
2,note_on,65,39,0
2,note_on,55,31,0
2,note_on,55,0,120
2,note_on,55,28,40
2,note_on,55,0,120
2,note_on,55,31,40
2,note_on,55,0,120
2,note_on,65,0,40
2,note_on,63,37,0
2,note_on,55,36,0
2,note_on,55,0,120
2,note_on,55,29,40
2,note_on,55,0,120
2,note_on,55,29,40
2,note_on,55,0,120
2,note_on,63,0,40
2,note_on,60,35,0
2,note_on,55,36,0
2,note_on,55,0,120
2,note_on,55,31,40
2,note_on,55,0,120
2,note_on,55,31,40
2,note_on,55,0,120
2,note_on,60,0,40
2,note_on,67,35,0
2,note_on,55,37,0
2,note_on,55,0,120
2,note_on,55,29,40
2,note_on,55,0,120
2,note_on,55,29,40
2,note_on,55,0,120
2,note_on,55,42,40
2,note_on,55,0,120
2,note_on,55,35,40
2,note_on,55,0,120
2,note_on,55,37,40
2,note_on,55,0,120
2,note_on,67,0,40
2,note_on,55,49,0
2,note_on,55,0,160
2,note_on,56,36,0
2,note_on,56,0,160
2,note_on,57,36,0
2,note_on,57,0,160
2,note_on,58,52,0
2,note_on,58,0,120
2,note_on,58,45,40
2,note_on,58,0,120
2,note_on,58,52,40
2,note_on,58,0,120
2,note_on,58,52,40
2,note_on,58,0,120
2,note_on,58,46,40
2,note_on,58,0,120
2,note_on,58,46,40
2,note_on,58,0,120
2,note_on,58,44,40
2,note_on,65,52,0
2,note_on,65,0,120
2,note_on,58,0,0
2,note_on,58,39,40
2,note_on,65,46,0
2,note_on,65,0,120
2,note_on,58,0,0
2,note_on,58,39,40
2,note_on,65,46,0
2,note_on,65,0,120
2,note_on,58,0,0
2,note_on,58,44,40
2,note_on,62,52,0
2,note_on,62,0,120
2,note_on,58,0,0
2,note_on,58,38,40
2,note_on,62,45,0
2,note_on,62,0,120
2,note_on,58,0,0
2,note_on,58,45,40
2,note_on,62,45,0
2,note_on,62,0,120
2,note_on,58,0,0
2,note_on,58,52,40
2,note_on,58,0,120
2,note_on,58,47,40
2,note_on,58,0,120
2,note_on,58,47,40
2,note_on,58,0,120
2,note_on,63,56,40
2,note_on,63,0,120
2,note_on,63,39,40
2,note_on,63,0,120
2,note_on,63,39,40
2,note_on,63,0,120
2,note_on,59,38,40
2,note_on,62,38,0
2,note_on,65,45,0
2,note_on,65,0,120
2,note_on,62,0,0
2,note_on,59,0,0
2,note_on,59,32,40
2,note_on,62,32,0
2,note_on,65,38,0
2,note_on,65,0,120
2,note_on,62,0,0
2,note_on,59,0,0
2,note_on,59,32,40
2,note_on,62,32,0
2,note_on,65,38,0
2,note_on,65,0,120
2,note_on,62,0,0
2,note_on,59,0,0
2,note_on,63,47,40
2,note_on,60,39,0
2,note_on,60,0,120
2,note_on,63,0,0
2,note_on,63,42,40
2,note_on,60,35,0
2,note_on,60,0,120
2,note_on,63,0,0
2,note_on,63,42,40
2,note_on,60,35,0
2,note_on,60,0,120
2,note_on,63,0,0
2,note_on,53,44,40
2,note_on,56,52,0
2,note_on,56,0,120
2,note_on,53,0,0
2,note_on,53,38,40
2,note_on,56,45,0
2,note_on,56,0,120
2,note_on,53,0,0
2,note_on,53,38,40
2,note_on,56,45,0
2,note_on,56,0,120
2,note_on,53,0,0
2,note_on,55,50,40
2,note_on,55,0,120
2,note_on,55,40,40
2,note_on,55,0,120
2,note_on,55,40,40
2,note_on,55,0,120
2,note_on,53,42,40
2,note_on,55,50,0
2,note_on,55,0,120
2,note_on,53,0,0
2,note_on,55,39,40
2,note_on,55,0,120
2,note_on,55,39,40
2,note_on,55,0,120
2,note_on,51,39,40
2,note_on,55,47,0
2,note_on,55,0,120
2,note_on,51,0,0
2,note_on,55,38,40
2,note_on,55,0,120
2,note_on,55,38,40
2,note_on,55,0,120
2,note_on,48,40,40
2,note_on,55,48,0
2,note_on,55,0,120
2,note_on,48,0,0
2,note_on,55,38,40
2,note_on,55,0,120
2,note_on,55,38,40
2,note_on,55,0,120
2,note_on,43,45,40
2,note_on,55,45,0
2,note_on,55,0,120
2,note_on,43,0,0
2,note_on,55,36,40
2,note_on,55,0,120
2,note_on,55,36,40
2,note_on,55,0,120
2,note_on,55,42,40
2,note_on,55,0,120
2,note_on,55,35,40
2,note_on,55,0,120
2,note_on,55,37,40
2,note_on,55,0,120
2,note_on,55,49,40
2,note_on,55,0,120
2,note_on,55,36,40
2,note_on,55,0,120
2,note_on,55,36,40
2,note_on,55,0,120
2,note_on,55,57,40
2,note_on,55,0,120
2,note_on,55,49,40
2,note_on,55,0,120
2,note_on,55,57,40
2,note_on,55,0,120
2,note_on,55,64,40
2,note_on,55,0,120
2,note_on,55,51,40
2,note_on,55,0,120
2,note_on,55,51,40
2,note_on,55,0,120
2,note_on,55,57,40
2,note_on,54,57,0
2,note_on,54,0,120
2,note_on,55,0,0
2,note_on,55,47,40
2,note_on,54,47,0
2,note_on,54,0,120
2,note_on,55,0,0
2,note_on,55,47,40
2,note_on,54,47,0
2,note_on,54,0,120
2,note_on,55,0,0
2,note_on,53,60,40
2,note_on,55,60,0
2,note_on,55,0,120
2,note_on,53,0,0
2,note_on,55,50,40
2,note_on,52,50,0
2,note_on,52,0,120
2,note_on,55,0,0
2,note_on,55,51,40
2,note_on,50,51,0
2,note_on,50,0,120
2,note_on,55,0,0
2,note_on,55,61,40
2,note_on,48,61,0
2,note_on,48,0,120
2,note_on,55,0,0
2,note_on,47,50,40
2,note_on,55,50,0
2,note_on,55,0,120
2,note_on,47,0,0
2,note_on,55,51,40
2,note_on,46,52,0
2,note_on,46,0,120
2,note_on,55,0,0
2,note_on,45,71,40
2,note_on,55,71,0
2,note_on,55,0,120
2,note_on,45,0,0
2,note_on,45,54,40
2,note_on,55,54,0
2,note_on,55,0,120
2,note_on,45,0,0
2,note_on,55,53,40
2,note_on,45,53,0
2,note_on,45,0,120
2,note_on,55,0,0
2,note_on,45,61,40
2,note_on,55,61,0
2,note_on,55,0,120
2,note_on,45,0,0
2,note_on,45,49,40
2,note_on,55,49,0
2,note_on,55,0,120
2,note_on,45,0,0
2,note_on,45,47,40
2,note_on,55,47,0
2,note_on,55,0,120
2,note_on,45,0,0
2,note_on,45,56,40
2,note_on,55,56,0
2,note_on,55,0,120
2,note_on,45,0,0
2,note_on,45,43,40
2,note_on,45,0,120
2,note_on,45,43,40
2,note_on,45,0,120
2,note_on,45,54,40
2,note_on,45,0,120
2,note_on,45,46,40
2,note_on,45,0,120
2,note_on,45,46,40
2,note_on,45,0,120
2,note_on,46,50,40
2,note_on,46,0,120
2,note_on,45,41,40
2,note_on,45,0,120
2,note_on,45,41,40
2,note_on,45,0,120
2,note_on,45,48,40
2,note_on,45,0,120
2,note_on,45,41,40
2,note_on,45,0,120
2,note_on,45,41,40
2,note_on,45,0,120
2,note_on,45,49,40
2,note_on,45,0,120
2,note_on,45,41,40
2,note_on,45,0,120
2,note_on,45,41,40
2,note_on,45,0,120
2,note_on,45,41,40
2,note_on,45,0,120
2,note_on,45,41,40
2,note_on,45,0,120
2,note_on,45,41,40
2,note_on,45,0,120
2,note_on,44,71,40
2,note_on,44,0,120
2,note_on,44,54,40
2,note_on,44,0,120
2,note_on,44,53,40
2,note_on,44,0,120
2,note_on,44,61,40
2,note_on,44,0,120
2,note_on,44,49,40
2,note_on,44,0,120
2,note_on,44,47,40
2,note_on,44,0,120
2,note_on,44,56,40
2,note_on,44,0,120
2,note_on,44,43,40
2,note_on,44,0,120
2,note_on,44,43,40
2,note_on,44,0,120
2,note_on,44,54,40
2,note_on,44,0,120
2,note_on,44,46,40
2,note_on,44,0,120
2,note_on,44,46,40
2,note_on,44,0,120
2,note_on,43,50,40
2,note_on,43,0,120
2,note_on,44,41,40
2,note_on,44,0,120
2,note_on,44,41,40
2,note_on,44,0,120
2,note_on,44,48,40
2,note_on,44,0,120
2,note_on,44,41,40
2,note_on,44,0,120
2,note_on,44,41,40
2,note_on,44,0,120
2,note_on,44,49,40
2,note_on,44,0,120
2,note_on,44,41,40
2,note_on,44,0,120
2,note_on,44,41,40
2,note_on,44,0,120
2,note_on,43,41,40
2,note_on,43,0,120
2,note_on,43,41,40
2,note_on,43,0,120
2,note_on,43,41,40
2,note_on,43,0,120
2,note_on,42,34,40
2,note_on,48,53,0
2,note_on,42,0,120
2,note_on,42,34,40
2,note_on,42,0,120
2,note_on,42,34,40
2,note_on,42,0,120
2,note_on,42,41,40
2,note_on,42,0,120
2,note_on,42,33,40
2,note_on,42,0,120
2,note_on,42,33,40
2,note_on,42,0,120
2,note_on,48,0,40
2,note_on,42,34,0
2,note_on,50,43,0
2,note_on,42,0,120
2,note_on,42,32,40
2,note_on,42,0,120
2,note_on,42,32,40
2,note_on,42,0,120
2,note_on,50,0,40
2,note_on,42,34,0
2,note_on,51,44,0
2,note_on,42,0,120
2,note_on,42,33,40
2,note_on,42,0,120
2,note_on,42,33,40
2,note_on,42,0,120
2,note_on,51,0,40
2,note_on,43,34,0
2,note_on,52,46,0
2,note_on,43,0,120
2,note_on,43,34,40
2,note_on,43,0,120
2,note_on,43,34,40
2,note_on,43,0,120
2,note_on,43,34,40
2,note_on,43,0,120
2,note_on,43,34,40
2,note_on,43,0,120
2,note_on,43,34,40
2,note_on,43,0,120
2,note_on,52,0,40
2,note_on,43,34,0
2,note_on,50,45,0
2,note_on,43,0,120
2,note_on,43,34,40
2,note_on,43,0,120
2,note_on,43,35,40
2,note_on,43,0,120
2,note_on,43,35,40
2,note_on,43,0,120
2,note_on,43,30,40
2,note_on,43,0,120
2,note_on,43,30,40
2,note_on,43,0,120
2,note_on,50,0,40
2,note_on,36,32,0
2,note_on,48,38,0
2,note_on,36,0,120
2,note_on,36,38,40
2,note_on,36,0,120
2,note_on,36,37,40
2,note_on,36,0,120
2,note_on,36,37,40
2,note_on,36,0,120
2,note_on,36,36,40
2,note_on,36,0,120
2,note_on,36,35,40
2,note_on,36,0,120
2,note_on,36,35,40
2,note_on,36,0,120
2,note_on,36,34,40
2,note_on,36,0,120
2,note_on,36,34,40
2,note_on,36,0,120
2,note_on,36,33,40
2,note_on,36,0,120
2,note_on,36,33,40
2,note_on,36,0,120
2,note_on,36,32,40
2,note_on,36,0,120
2,note_on,36,31,40
2,note_on,36,0,120
2,note_on,36,31,40
2,note_on,36,0,120
2,note_on,36,30,40
2,note_on,36,0,120
2,note_on,36,30,40
2,note_on,36,0,120
2,note_on,36,29,40
2,note_on,36,0,120
2,note_on,36,28,40
2,note_on,36,0,120
2,note_on,48,0,40
2,note_on,36,34,0
2,note_on,36,0,480
2,note_on,67,29,960
2,note_on,55,24,0
2,note_on,55,0,960
2,note_on,67,0,0
2,note_on,55,24,960
2,note_on,67,29,0
2,note_on,67,0,960
2,note_on,55,0,0
2,note_on,60,29,0
2,note_on,60,0,240
2,note_on,62,35,0
2,note_on,62,0,240
2,note_on,63,40,0
2,note_on,63,0,480
2,note_on,62,33,0
2,note_on,62,0,240
2,note_on,60,30,0
2,note_on,60,0,240
2,note_on,64,33,0
2,note_on,55,28,0
2,note_on,55,0,360
2,note_on,64,0,0
2,note_on,62,30,120
2,note_on,55,25,0
2,note_on,55,0,360
2,note_on,62,0,0
2,note_on,48,24,120
2,note_on,55,27,0
2,note_on,60,33,0
2,note_on,60,0,1440
2,note_on,55,0,0
2,note_on,48,0,0
2,note_on,59,33,0
2,note_on,59,0,360
2,note_on,60,28,0
2,note_on,60,0,120
2,note_on,62,38,0
2,note_on,62,0,338
2,note_on,62,31,142
2,note_on,62,0,338
2,note_on,62,31,142
2,note_on,62,0,338
2,note_on,60,35,142
2,note_on,60,0,360
2,note_on,62,35,0
2,note_on,62,0,120
2,note_on,63,40,0
2,note_on,63,0,720
2,note_on,62,33,0
2,note_on,62,0,240
2,note_on,60,29,0
2,note_on,60,0,240
2,note_on,55,29,0
2,note_on,55,0,240
2,note_on,60,29,0
2,note_on,60,0,240
2,note_on,62,35,0
2,note_on,62,0,240
2,note_on,63,40,0
2,note_on,63,0,480
2,note_on,62,33,0
2,note_on,62,0,240
2,note_on,60,30,0
2,note_on,60,0,240
2,note_on,64,33,0
2,note_on,55,28,0
2,note_on,55,0,360
2,note_on,64,0,0
2,note_on,62,30,120
2,note_on,55,25,0
2,note_on,55,0,360
2,note_on,62,0,0
2,note_on,48,25,120
2,note_on,55,25,0
2,note_on,60,30,0
2,note_on,60,0,960
2,note_on,55,0,0
2,note_on,48,0,0
2,note_on,64,33,0
2,note_on,55,28,0
2,note_on,55,0,360
2,note_on,64,0,0
2,note_on,62,30,120
2,note_on,55,25,0
2,note_on,55,0,360
2,note_on,62,0,0
2,note_on,48,25,120
2,note_on,55,25,0
2,note_on,60,30,0
2,note_on,60,0,960
2,note_on,55,0,0
2,note_on,48,0,0
2,note_on,52,34,0
2,note_on,43,29,0
2,note_on,43,0,480
2,note_on,52,0,0
2,note_on,50,32,0
2,note_on,43,27,0
2,note_on,43,0,480
2,note_on,50,0,0
2,note_on,36,29,0
2,note_on,43,29,0
2,note_on,48,36,0
2,note_on,48,0,960
2,note_on,43,0,0
2,note_on,36,0,0
2,note_on,36,28,0
2,note_on,43,28,0
2,note_on,48,34,0
2,note_on,48,0,960
2,note_on,43,0,0
2,note_on,36,0,0
2,note_on,36,28,0
2,note_on,43,28,0
2,note_on,48,34,0
2,note_on,48,0,1920
2,note_on,43,0,0
2,note_on,36,0,0
