Track,Message Type,Note,Velocity,Time
1,note_on,83,40,4
1,note_on,87,34,116
1,note_on,83,0,4
1,note_on,87,0,116
1,note_on,83,40,0
1,note_on,83,0,120
1,note_on,80,34,0
1,note_on,80,0,90
1,note_on,80,40,30
1,note_on,80,0,120
1,note_on,83,34,0
1,note_on,83,0,120
1,note_on,80,40,0
1,note_on,80,0,120
1,note_on,75,34,0
1,note_on,75,0,90
1,note_on,75,40,30
1,note_on,75,0,120
1,note_on,80,34,0
1,note_on,80,0,120
1,note_on,75,40,0
1,note_on,75,0,120
1,note_on,71,34,0
1,note_on,71,0,90
1,note_on,71,40,30
1,note_on,71,0,120
1,note_on,75,34,0
1,note_on,75,0,120
1,note_on,71,40,0
1,note_on,71,0,120
1,note_on,68,34,0
1,note_on,68,0,90
1,note_on,68,40,30
1,note_on,68,0,120
1,note_on,71,34,0
1,note_on,71,0,120
1,note_on,68,40,0
1,note_on,68,0,120
1,note_on,63,34,0
1,note_on,63,0,120
1,note_on,67,30,0
1,note_on,70,36,0
1,note_on,70,0,240
1,note_on,67,0,0
1,note_on,83,40,240
1,note_on,83,0,120
1,note_on,87,34,0
1,note_on,87,0,120
1,note_on,83,40,0
1,note_on,83,0,120
1,note_on,80,34,0
1,note_on,80,0,90
1,note_on,80,40,30
1,note_on,80,0,120
1,note_on,83,34,0
1,note_on,83,0,120
1,note_on,80,40,0
1,note_on,80,0,120
1,note_on,75,34,0
1,note_on,75,0,90
1,note_on,75,40,30
1,note_on,75,0,120
1,note_on,80,34,0
1,note_on,80,0,120
1,note_on,75,40,0
1,note_on,75,0,120
1,note_on,71,34,0
1,note_on,71,0,90
1,note_on,71,40,30
1,note_on,71,0,120
1,note_on,75,34,0
1,note_on,75,0,120
1,note_on,71,40,0
1,note_on,71,0,120
1,note_on,68,34,0
1,note_on,68,0,90
1,note_on,68,40,30
1,note_on,68,0,120
1,note_on,71,34,0
1,note_on,71,0,120
1,note_on,68,40,0
1,note_on,68,0,120
1,note_on,63,34,0
1,note_on,63,0,120
1,note_on,67,30,0
1,note_on,70,36,0
1,note_on,70,0,240
1,note_on,67,0,0
1,note_on,68,31,240
1,note_on,71,31,0
1,note_on,71,0,456
1,note_on,68,0,0
1,note_on,67,31,24
1,note_on,70,31,0
1,note_on,76,31,0
1,note_on,76,0,456
1,note_on,70,0,0
1,note_on,67,0,0
1,note_on,67,36,24
1,note_on,70,36,0
1,note_on,76,36,0
1,note_on,76,0,456
1,note_on,70,0,0
1,note_on,67,0,0
1,note_on,67,37,24
1,note_on,70,37,0
1,note_on,76,37,0
1,note_on,76,0,456
1,note_on,70,0,0
1,note_on,67,0,0
1,note_on,67,31,24
1,note_on,70,31,0
1,note_on,75,31,0
1,note_on,75,0,456
1,note_on,70,0,0
1,note_on,67,0,0
1,note_on,67,31,24
1,note_on,70,31,0
1,note_on,73,31,0
1,note_on,73,0,456
1,note_on,70,0,0
1,note_on,67,0,0
1,note_on,83,40,24
1,note_on,83,0,120
1,note_on,87,34,0
1,note_on,87,0,120
1,note_on,83,40,0
1,note_on,83,0,120
1,note_on,80,34,0
1,note_on,80,0,90
1,note_on,80,40,30
1,note_on,80,0,120
1,note_on,83,34,0
1,note_on,83,0,120
1,note_on,80,40,0
1,note_on,80,0,120
1,note_on,75,34,0
1,note_on,75,0,90
1,note_on,75,40,30
1,note_on,75,0,120
1,note_on,80,34,0
1,note_on,80,0,120
1,note_on,75,40,0
1,note_on,75,0,120
1,note_on,71,34,0
1,note_on,71,0,90
1,note_on,71,40,30
1,note_on,71,0,120
1,note_on,75,34,0
1,note_on,75,0,120
1,note_on,71,40,0
1,note_on,71,0,120
1,note_on,68,34,0
1,note_on,68,0,90
1,note_on,68,40,30
1,note_on,68,0,120
1,note_on,71,34,0
1,note_on,71,0,120
1,note_on,68,40,0
1,note_on,68,0,120
1,note_on,63,34,0
1,note_on,63,0,120
1,note_on,67,30,0
1,note_on,70,36,0
1,note_on,70,0,240
1,note_on,67,0,0
1,note_on,83,40,240
1,note_on,83,0,120
1,note_on,87,34,0
1,note_on,87,0,120
1,note_on,83,40,0
1,note_on,83,0,120
1,note_on,80,34,0
1,note_on,80,0,90
1,note_on,80,40,30
1,note_on,80,0,120
1,note_on,83,34,0
1,note_on,83,0,120
1,note_on,80,40,0
1,note_on,80,0,120
1,note_on,75,34,0
1,note_on,75,0,90
1,note_on,75,40,30
1,note_on,75,0,120
1,note_on,80,34,0
1,note_on,80,0,120
1,note_on,75,40,0
1,note_on,75,0,120
1,note_on,71,34,0
1,note_on,71,0,90
1,note_on,71,40,30
1,note_on,71,0,120
1,note_on,75,34,0
1,note_on,75,0,120
1,note_on,71,40,0
1,note_on,71,0,120
1,note_on,68,34,0
1,note_on,68,0,90
1,note_on,68,40,30
1,note_on,68,0,120
1,note_on,71,34,0
1,note_on,71,0,120
1,note_on,68,40,0
1,note_on,68,0,120
1,note_on,63,34,0
1,note_on,63,0,120
1,note_on,70,36,0
1,note_on,67,30,0
1,note_on,67,0,240
1,note_on,70,0,0
1,note_on,68,31,240
1,note_on,71,31,0
1,note_on,71,0,456
1,note_on,68,0,0
1,note_on,76,31,24
1,note_on,70,31,0
1,note_on,66,31,0
1,note_on,66,0,456
1,note_on,70,0,0
1,note_on,76,0,0
1,note_on,66,36,24
1,note_on,70,36,0
1,note_on,76,36,0
1,note_on,76,0,456
1,note_on,70,0,0
1,note_on,66,0,0
1,note_on,66,37,24
1,note_on,70,37,0
1,note_on,76,37,0
1,note_on,76,0,456
1,note_on,70,0,0
1,note_on,66,0,0
1,note_on,75,31,24
1,note_on,70,31,0
1,note_on,66,31,0
1,note_on,66,0,456
1,note_on,70,0,0
1,note_on,75,0,0
1,note_on,70,31,24
1,note_on,66,31,0
1,note_on,74,31,0
1,note_on,74,0,456
1,note_on,66,0,0
1,note_on,70,0,0
1,note_on,87,50,24
1,note_on,87,0,120
1,note_on,90,42,0
1,note_on,90,0,120
1,note_on,87,50,0
1,note_on,87,0,120
1,note_on,83,42,0
1,note_on,83,0,90
1,note_on,83,50,30
1,note_on,83,0,120
1,note_on,87,42,0
1,note_on,87,0,120
1,note_on,83,50,0
1,note_on,83,0,120
1,note_on,78,42,0
1,note_on,78,0,90
1,note_on,78,50,30
1,note_on,78,0,120
1,note_on,83,42,0
1,note_on,83,0,120
1,note_on,78,50,0
1,note_on,78,0,120
1,note_on,75,42,0
1,note_on,75,0,90
1,note_on,75,50,30
1,note_on,75,0,120
1,note_on,78,42,0
1,note_on,78,0,120
1,note_on,75,50,0
1,note_on,75,0,120
1,note_on,71,42,0
1,note_on,71,0,90
1,note_on,71,50,30
1,note_on,71,0,120
1,note_on,75,42,0
1,note_on,75,0,120
1,note_on,71,50,0
1,note_on,71,0,120
1,note_on,66,42,0
1,note_on,66,0,120
1,note_on,70,37,0
1,note_on,73,45,0
1,note_on,73,0,240
1,note_on,70,0,0
1,note_on,87,50,240
1,note_on,87,0,120
1,note_on,90,42,0
1,note_on,90,0,120
1,note_on,87,50,0
1,note_on,87,0,120
1,note_on,83,42,0
1,note_on,83,0,90
1,note_on,83,50,30
1,note_on,83,0,120
1,note_on,87,42,0
1,note_on,87,0,120
1,note_on,83,50,0
1,note_on,83,0,120
1,note_on,78,42,0
1,note_on,78,0,90
1,note_on,78,50,30
1,note_on,78,0,120
1,note_on,83,42,0
1,note_on,83,0,120
1,note_on,78,50,0
1,note_on,78,0,120
1,note_on,75,42,0
1,note_on,75,0,90
1,note_on,75,50,30
1,note_on,75,0,120
1,note_on,78,42,0
1,note_on,78,0,120
1,note_on,75,50,0
1,note_on,75,0,120
1,note_on,71,42,0
1,note_on,71,0,90
1,note_on,71,50,30
1,note_on,71,0,120
1,note_on,75,42,0
1,note_on,75,0,120
1,note_on,71,50,0
1,note_on,71,0,120
1,note_on,66,42,0
1,note_on,66,0,120
1,note_on,70,37,0
1,note_on,73,45,0
1,note_on,73,0,240
1,note_on,70,0,0
1,note_on,71,41,240
1,note_on,75,41,0
1,note_on,75,0,456
1,note_on,71,0,0
1,note_on,70,47,24
1,note_on,80,47,0
1,note_on,73,47,0
1,note_on,73,0,456
1,note_on,80,0,0
1,note_on,70,0,0
1,note_on,80,48,24
1,note_on,73,48,0
1,note_on,70,48,0
1,note_on,70,0,456
1,note_on,73,0,0
1,note_on,80,0,0
1,note_on,80,49,24
1,note_on,73,49,0
1,note_on,70,49,0
1,note_on,70,0,456
1,note_on,73,0,0
1,note_on,80,0,0
1,note_on,78,39,24
1,note_on,70,39,0
1,note_on,75,39,0
1,note_on,75,0,456
1,note_on,70,0,0
1,note_on,78,0,0
1,note_on,76,39,24
1,note_on,70,39,0
1,note_on,70,0,456
1,note_on,76,0,0
1,note_on,86,50,24
1,note_on,86,0,120
1,note_on,90,42,0
1,note_on,90,0,120
1,note_on,86,50,0
1,note_on,86,0,120
1,note_on,83,42,0
1,note_on,83,0,90
1,note_on,83,50,30
1,note_on,83,0,120
1,note_on,86,42,0
1,note_on,86,0,120
1,note_on,83,50,0
1,note_on,83,0,120
1,note_on,78,42,0
1,note_on,78,0,90
1,note_on,78,50,30
1,note_on,78,0,120
1,note_on,83,42,0
1,note_on,83,0,120
1,note_on,78,50,0
1,note_on,78,0,120
1,note_on,74,42,0
1,note_on,74,0,90
1,note_on,74,50,30
1,note_on,74,0,120
1,note_on,78,42,0
1,note_on,78,0,120
1,note_on,74,50,0
1,note_on,74,0,120
1,note_on,71,42,0
1,note_on,71,0,90
1,note_on,71,50,30
1,note_on,71,0,120
1,note_on,74,42,0
1,note_on,74,0,120
1,note_on,71,50,0
1,note_on,71,0,120
1,note_on,66,42,0
1,note_on,66,0,120
1,note_on,73,45,0
1,note_on,70,37,0
1,note_on,70,0,240
1,note_on,73,0,0
1,note_on,86,50,240
1,note_on,86,0,120
1,note_on,90,42,0
1,note_on,90,0,120
1,note_on,86,50,0
1,note_on,86,0,120
1,note_on,83,42,0
1,note_on,83,0,90
1,note_on,83,50,30
1,note_on,83,0,120
1,note_on,86,42,0
1,note_on,86,0,120
1,note_on,83,50,0
1,note_on,83,0,120
1,note_on,78,42,0
1,note_on,78,0,90
1,note_on,78,50,30
1,note_on,78,0,120
1,note_on,83,43,0
1,note_on,83,0,120
1,note_on,78,50,0
1,note_on,78,0,120
1,note_on,74,42,0
1,note_on,74,0,90
1,note_on,74,50,30
1,note_on,74,0,120
1,note_on,78,42,0
1,note_on,78,0,120
1,note_on,74,50,0
1,note_on,74,0,120
1,note_on,71,42,0
1,note_on,71,0,90
1,note_on,71,50,30
1,note_on,71,0,120
1,note_on,74,42,0
1,note_on,74,0,120
1,note_on,71,50,0
1,note_on,71,0,120
1,note_on,66,42,0
1,note_on,66,0,120
1,note_on,70,45,0
1,note_on,73,45,0
1,note_on,73,0,240
1,note_on,70,0,0
1,note_on,74,41,240
1,note_on,66,41,0
1,note_on,71,41,0
1,note_on,71,0,456
1,note_on,66,0,0
1,note_on,74,0,0
1,note_on,73,50,24
1,note_on,76,50,0
1,note_on,83,50,0
1,note_on,83,0,456
1,note_on,76,0,0
1,note_on,73,0,0
1,note_on,83,48,24
1,note_on,76,48,0
1,note_on,73,48,0
1,note_on,73,0,456
1,note_on,76,0,0
1,note_on,83,0,0
1,note_on,83,46,24
1,note_on,73,46,0
1,note_on,76,46,0
1,note_on,76,0,456
1,note_on,73,0,0
1,note_on,83,0,0
1,note_on,73,44,24
1,note_on,78,44,0
1,note_on,81,44,0
1,note_on,81,0,456
1,note_on,78,0,0
1,note_on,73,0,0
1,note_on,73,42,24
1,note_on,79,42,0
1,note_on,79,0,456
1,note_on,73,0,0
1,note_on,74,38,24
1,note_on,78,38,0
1,note_on,78,0,456
1,note_on,74,0,0
1,note_on,79,46,24
1,note_on,73,46,0
1,note_on,70,46,0
1,note_on,70,0,456
1,note_on,73,0,0
1,note_on,79,0,0
1,note_on,79,46,24
1,note_on,73,46,0
1,note_on,70,46,0
1,note_on,70,0,456
1,note_on,73,0,0
1,note_on,79,0,0
1,note_on,73,46,24
1,note_on,70,46,0
1,note_on,79,46,0
1,note_on,79,0,456
1,note_on,70,0,0
1,note_on,73,0,0
1,note_on,70,44,24
1,note_on,73,44,0
1,note_on,78,44,0
1,note_on,78,0,456
1,note_on,73,0,0
1,note_on,70,0,0
1,note_on,76,42,24
1,note_on,73,42,0
1,note_on,73,0,456
1,note_on,76,0,0
1,note_on,75,41,24
1,note_on,71,41,0
1,note_on,71,0,456
1,note_on,75,0,0
1,note_on,76,49,24
1,note_on,64,49,0
1,note_on,68,49,0
1,note_on,68,0,456
1,note_on,64,0,0
1,note_on,76,0,0
1,note_on,76,49,24
1,note_on,68,49,0
1,note_on,64,49,0
1,note_on,64,0,456
1,note_on,68,0,0
1,note_on,76,0,0
1,note_on,68,49,24
1,note_on,64,49,0
1,note_on,76,49,0
1,note_on,76,0,456
1,note_on,64,0,0
1,note_on,68,0,0
1,note_on,63,49,24
1,note_on,75,49,0
1,note_on,68,49,0
1,note_on,68,0,456
1,note_on,75,0,0
1,note_on,63,0,0
1,note_on,68,47,24
1,note_on,73,47,0
1,note_on,61,47,0
1,note_on,61,0,456
1,note_on,73,0,0
1,note_on,68,0,0
1,note_on,71,48,24
1,note_on,68,48,0
1,note_on,63,48,0
1,note_on,63,0,456
1,note_on,68,0,0
1,note_on,71,0,0
1,note_on,63,48,24
1,note_on,68,48,0
1,note_on,71,48,0
1,note_on,71,0,456
1,note_on,68,0,0
1,note_on,63,0,0
1,note_on,63,48,24
1,note_on,68,48,0
1,note_on,71,48,0
1,note_on,71,0,456
1,note_on,68,0,0
1,note_on,63,0,0
1,note_on,70,33,24
1,note_on,67,33,0
1,note_on,63,33,0
1,note_on,63,0,456
1,note_on,67,0,0
1,note_on,70,0,0
1,note_on,70,34,24
1,note_on,63,34,0
1,note_on,67,34,0
1,note_on,67,0,456
1,note_on,63,0,0
1,note_on,70,0,0
1,note_on,63,34,24
1,note_on,67,34,0
1,note_on,70,34,0
1,note_on,70,0,456
1,note_on,67,0,0
1,note_on,63,0,0
1,note_on,84,40,24
1,note_on,84,0,120
1,note_on,87,34,0
1,note_on,87,0,120
1,note_on,84,40,0
1,note_on,84,0,120
1,note_on,80,34,0
1,note_on,80,0,90
1,note_on,80,40,30
1,note_on,80,0,120
1,note_on,84,34,0
1,note_on,84,0,120
1,note_on,80,40,0
1,note_on,80,0,120
1,note_on,75,34,0
1,note_on,75,0,90
1,note_on,75,40,30
1,note_on,75,0,120
1,note_on,80,34,0
1,note_on,80,0,120
1,note_on,75,40,0
1,note_on,75,0,120
1,note_on,72,34,0
1,note_on,72,0,90
1,note_on,72,40,30
1,note_on,72,0,120
1,note_on,75,34,0
1,note_on,75,0,120
1,note_on,72,40,0
1,note_on,72,0,120
1,note_on,68,34,0
1,note_on,68,0,90
1,note_on,68,40,30
1,note_on,68,0,120
1,note_on,72,34,0
1,note_on,72,0,120
1,note_on,68,40,0
1,note_on,68,0,120
1,note_on,63,34,0
1,note_on,63,0,120
1,note_on,67,30,0
1,note_on,70,36,0
1,note_on,70,0,240
1,note_on,67,0,0
1,note_on,84,40,240
1,note_on,84,0,120
1,note_on,87,34,0
1,note_on,87,0,120
1,note_on,84,40,0
1,note_on,84,0,120
1,note_on,80,34,0
1,note_on,80,0,90
1,note_on,80,40,30
1,note_on,80,0,120
1,note_on,84,34,0
1,note_on,84,0,120
1,note_on,80,40,0
1,note_on,80,0,120
1,note_on,75,34,0
1,note_on,75,0,90
1,note_on,75,40,30
1,note_on,75,0,120
1,note_on,80,34,0
1,note_on,80,0,120
1,note_on,75,40,0
1,note_on,75,0,120
1,note_on,72,34,0
1,note_on,72,0,90
1,note_on,72,40,30
1,note_on,72,0,120
1,note_on,75,34,0
1,note_on,75,0,120
1,note_on,72,40,0
1,note_on,72,0,120
1,note_on,68,34,0
1,note_on,68,0,90
1,note_on,68,40,30
1,note_on,68,0,120
1,note_on,72,34,0
1,note_on,72,0,120
1,note_on,68,40,0
1,note_on,68,0,120
1,note_on,63,34,0
1,note_on,63,0,120
1,note_on,67,36,0
1,note_on,70,36,0
1,note_on,70,0,240
1,note_on,67,0,0
1,note_on,87,45,0
1,note_on,87,0,120
1,note_on,92,38,0
1,note_on,92,0,120
1,note_on,87,45,0
1,note_on,87,0,120
1,note_on,84,38,0
1,note_on,84,0,90
1,note_on,84,45,30
1,note_on,84,0,120
1,note_on,87,38,0
1,note_on,87,0,120
1,note_on,84,45,0
1,note_on,84,0,120
1,note_on,80,38,0
1,note_on,80,0,90
1,note_on,80,45,30
1,note_on,80,0,120
1,note_on,84,38,0
1,note_on,84,0,120
1,note_on,80,45,0
1,note_on,80,0,120
1,note_on,75,38,0
1,note_on,75,0,90
1,note_on,75,45,30
1,note_on,75,0,120
1,note_on,80,38,0
1,note_on,80,0,120
1,note_on,75,45,0
1,note_on,75,0,120
1,note_on,72,38,0
1,note_on,72,0,90
1,note_on,72,45,30
1,note_on,72,0,120
1,note_on,75,38,0
1,note_on,75,0,120
1,note_on,72,45,0
1,note_on,72,0,120
1,note_on,68,38,0
1,note_on,68,0,120
1,note_on,67,40,0
1,note_on,70,40,0
1,note_on,70,0,240
1,note_on,67,0,0
1,note_on,87,50,240
1,note_on,87,0,120
1,note_on,92,42,0
1,note_on,92,0,120
1,note_on,87,50,0
1,note_on,87,0,120
1,note_on,84,42,0
1,note_on,84,0,90
1,note_on,84,50,30
1,note_on,84,0,120
1,note_on,87,42,0
1,note_on,87,0,120
1,note_on,84,50,0
1,note_on,84,0,120
1,note_on,80,42,0
1,note_on,80,0,90
1,note_on,80,50,30
1,note_on,80,0,120
1,note_on,84,42,0
1,note_on,84,0,120
1,note_on,80,50,0
1,note_on,80,0,120
1,note_on,75,42,0
1,note_on,75,0,90
1,note_on,75,50,30
1,note_on,75,0,120
1,note_on,80,42,0
1,note_on,80,0,120
1,note_on,75,50,0
1,note_on,75,0,120
1,note_on,72,42,0
1,note_on,72,0,90
1,note_on,72,50,30
1,note_on,72,0,120
1,note_on,75,42,0
1,note_on,75,0,120
1,note_on,72,50,0
1,note_on,72,0,120
1,note_on,68,42,0
1,note_on,68,0,120
1,note_on,67,45,0
1,note_on,70,45,0
1,note_on,70,0,240
1,note_on,67,0,0
1,note_on,72,40,240
1,note_on,72,0,120
1,note_on,75,34,0
1,note_on,75,0,120
1,note_on,72,40,0
1,note_on,72,0,120
1,note_on,68,34,0
1,note_on,68,0,90
1,note_on,68,40,30
1,note_on,68,0,120
1,note_on,72,34,0
1,note_on,72,0,120
1,note_on,68,40,0
1,note_on,68,0,120
1,note_on,63,34,0
1,note_on,63,0,120
1,note_on,68,40,0
1,note_on,68,0,120
1,note_on,73,40,360
1,note_on,73,0,120
1,note_on,77,34,0
1,note_on,77,0,120
1,note_on,73,40,0
1,note_on,73,0,120
1,note_on,68,34,0
1,note_on,68,0,90
1,note_on,68,40,30
1,note_on,68,0,120
1,note_on,73,34,0
1,note_on,73,0,120
1,note_on,68,40,0
1,note_on,68,0,120
1,note_on,65,34,0
1,note_on,65,0,120
1,note_on,68,40,0
1,note_on,68,0,120
1,note_on,75,40,360
1,note_on,75,0,120
1,note_on,79,34,0
1,note_on,79,0,120
1,note_on,75,40,0
1,note_on,75,0,120
1,note_on,70,34,0
1,note_on,70,0,90
1,note_on,70,40,30
1,note_on,70,0,120
1,note_on,75,34,0
1,note_on,75,0,120
1,note_on,70,40,0
1,note_on,70,0,120
1,note_on,67,34,0
1,note_on,67,0,120
1,note_on,70,40,0
1,note_on,70,0,120
1,note_on,75,40,360
1,note_on,75,0,120
1,note_on,80,34,0
1,note_on,80,0,120
1,note_on,75,40,0
1,note_on,75,0,120
1,note_on,72,34,0
1,note_on,72,0,90
1,note_on,72,40,30
1,note_on,72,0,120
1,note_on,75,34,0
1,note_on,75,0,120
1,note_on,72,40,0
1,note_on,72,0,120
1,note_on,68,34,0
1,note_on,68,0,120
1,note_on,72,40,0
1,note_on,72,0,120
1,note_on,84,52,360
1,note_on,84,0,120
1,note_on,87,44,0
1,note_on,87,0,120
1,note_on,84,52,0
1,note_on,84,0,120
1,note_on,80,44,0
1,note_on,80,0,90
1,note_on,80,52,30
1,note_on,80,0,120
1,note_on,84,44,0
1,note_on,84,0,120
1,note_on,80,52,0
1,note_on,80,0,120
1,note_on,75,44,0
1,note_on,75,0,120
1,note_on,80,52,0
1,note_on,80,0,120
1,note_on,85,60,360
1,note_on,85,0,120
1,note_on,89,51,0
1,note_on,89,0,120
1,note_on,85,60,0
1,note_on,85,0,120
1,note_on,80,51,0
1,note_on,80,0,90
1,note_on,80,60,30
1,note_on,80,0,120
1,note_on,85,51,0
1,note_on,85,0,120
1,note_on,80,60,0
1,note_on,80,0,120
1,note_on,77,51,0
1,note_on,77,0,120
1,note_on,80,60,0
1,note_on,80,0,120
1,note_on,87,70,360
1,note_on,87,0,120
1,note_on,91,59,0
1,note_on,91,0,120
1,note_on,87,70,0
1,note_on,87,0,120
1,note_on,82,59,0
1,note_on,82,0,90
1,note_on,82,70,30
1,note_on,82,0,120
1,note_on,87,59,0
1,note_on,87,0,120
1,note_on,82,70,0
1,note_on,82,0,120
1,note_on,79,59,0
1,note_on,79,0,120
1,note_on,82,70,0
1,note_on,82,0,240
1,note_on,87,80,240
1,note_on,87,0,120
1,note_on,92,68,0
1,note_on,92,0,120
1,note_on,87,80,0
1,note_on,87,0,120
1,note_on,84,68,0
1,note_on,84,0,90
1,note_on,84,80,30
1,note_on,84,0,120
1,note_on,87,68,0
1,note_on,87,0,120
1,note_on,84,80,0
1,note_on,84,0,120
1,note_on,80,68,0
1,note_on,80,0,120
1,note_on,84,80,0
1,note_on,84,0,240
1,note_on,72,40,240
1,note_on,72,0,120
1,note_on,75,34,0
1,note_on,75,0,120
1,note_on,72,40,0
1,note_on,72,0,120
1,note_on,68,34,0
1,note_on,68,0,90
1,note_on,68,40,30
1,note_on,68,0,120
1,note_on,72,34,0
1,note_on,72,0,120
1,note_on,68,40,0
1,note_on,68,0,120
1,note_on,63,34,0
1,note_on,63,0,120
1,note_on,68,40,0
1,note_on,68,0,240
1,note_on,73,40,240
1,note_on,73,0,120
1,note_on,77,34,0
1,note_on,77,0,120
1,note_on,73,40,0
1,note_on,73,0,120
1,note_on,68,34,0
1,note_on,68,0,90
1,note_on,68,40,30
1,note_on,68,0,120
1,note_on,73,34,0
1,note_on,73,0,120
1,note_on,68,40,0
1,note_on,68,0,120
1,note_on,65,34,0
1,note_on,65,0,120
1,note_on,68,40,0
1,note_on,68,0,240
1,note_on,75,40,240
1,note_on,75,0,120
1,note_on,79,34,0
1,note_on,79,0,120
1,note_on,75,40,0
1,note_on,75,0,120
1,note_on,70,34,0
1,note_on,70,0,90
1,note_on,70,40,30
1,note_on,70,0,120
1,note_on,75,34,0
1,note_on,75,0,120
1,note_on,70,40,0
1,note_on,70,0,120
1,note_on,67,34,0
1,note_on,67,0,120
1,note_on,70,40,0
1,note_on,70,0,240
1,note_on,75,40,240
1,note_on,75,0,120
1,note_on,80,34,0
1,note_on,80,0,120
1,note_on,75,40,0
1,note_on,75,0,120
1,note_on,72,34,0
1,note_on,72,0,90
1,note_on,72,40,30
1,note_on,72,0,120
1,note_on,75,34,0
1,note_on,75,0,120
1,note_on,72,40,0
1,note_on,72,0,120
1,note_on,68,34,0
1,note_on,68,0,120
1,note_on,72,40,0
1,note_on,72,0,240
1,note_on,84,52,240
1,note_on,84,0,120
1,note_on,87,44,0
1,note_on,87,0,120
1,note_on,84,52,0
1,note_on,84,0,120
1,note_on,80,44,0
1,note_on,80,0,90
1,note_on,80,52,30
1,note_on,80,0,120
1,note_on,84,44,0
1,note_on,84,0,120
1,note_on,80,52,0
1,note_on,80,0,120
1,note_on,75,44,0
1,note_on,75,0,120
1,note_on,80,52,0
1,note_on,80,0,240
1,note_on,85,55,240
1,note_on,85,0,120
1,note_on,89,46,0
1,note_on,89,0,120
1,note_on,85,55,0
1,note_on,85,0,120
1,note_on,80,46,0
1,note_on,80,0,90
1,note_on,80,55,30
1,note_on,80,0,120
1,note_on,85,46,0
1,note_on,85,0,120
1,note_on,80,55,0
1,note_on,80,0,120
1,note_on,77,46,0
1,note_on,77,0,120
1,note_on,80,55,0
1,note_on,80,0,240
1,note_on,87,62,240
1,note_on,87,0,120
1,note_on,91,52,0
1,note_on,91,0,120
1,note_on,87,62,0
1,note_on,87,0,120
1,note_on,82,52,0
1,note_on,82,0,90
1,note_on,82,62,30
1,note_on,82,0,120
1,note_on,87,52,0
1,note_on,87,0,120
1,note_on,82,62,0
1,note_on,82,0,120
1,note_on,79,52,0
1,note_on,79,0,120
1,note_on,82,62,0
1,note_on,82,0,240
1,note_on,87,70,240
1,note_on,87,0,120
1,note_on,92,59,0
1,note_on,92,0,120
1,note_on,87,70,0
1,note_on,87,0,120
1,note_on,84,58,0
1,note_on,84,0,90
1,note_on,84,70,30
1,note_on,84,0,120
1,note_on,87,59,0
1,note_on,87,0,120
1,note_on,84,70,0
1,note_on,84,0,120
1,note_on,80,59,0
1,note_on,80,0,120
1,note_on,84,70,0
1,note_on,84,0,240
1,note_on,87,77,240
1,note_on,87,0,120
1,note_on,91,65,0
1,note_on,91,0,120
1,note_on,87,77,0
1,note_on,87,0,120
1,note_on,82,65,0
1,note_on,82,0,90
1,note_on,82,77,30
1,note_on,82,0,120
1,note_on,87,65,0
1,note_on,87,0,120
1,note_on,82,77,0
1,note_on,82,0,120
1,note_on,79,65,0
1,note_on,79,0,120
1,note_on,82,77,0
1,note_on,82,0,240
1,note_on,87,78,240
1,note_on,87,0,120
1,note_on,92,66,0
1,note_on,92,0,120
1,note_on,87,78,0
1,note_on,87,0,120
1,note_on,84,66,0
1,note_on,84,0,90
1,note_on,84,78,30
1,note_on,84,0,120
1,note_on,87,66,0
1,note_on,87,0,120
1,note_on,84,78,0
1,note_on,84,0,120
1,note_on,80,66,0
1,note_on,80,0,120
1,note_on,84,78,0
1,note_on,84,0,240
1,note_on,89,78,240
1,note_on,89,0,120
1,note_on,93,67,0
1,note_on,93,0,120
1,note_on,89,78,0
1,note_on,89,0,120
1,note_on,84,67,0
1,note_on,84,0,90
1,note_on,84,78,30
1,note_on,84,0,120
1,note_on,89,67,0
1,note_on,89,0,120
1,note_on,84,78,0
1,note_on,84,0,120
1,note_on,81,67,0
1,note_on,81,0,120
1,note_on,84,78,0
1,note_on,84,0,240
1,note_on,89,78,240
1,note_on,89,0,120
1,note_on,94,67,0
1,note_on,94,0,120
1,note_on,89,78,0
1,note_on,89,0,120
1,note_on,85,67,0
1,note_on,85,0,90
1,note_on,85,78,30
1,note_on,85,0,120
1,note_on,89,67,0
1,note_on,89,0,120
1,note_on,85,78,0
1,note_on,85,0,120
1,note_on,82,67,0
1,note_on,82,0,120
1,note_on,85,78,0
1,note_on,85,0,240
1,note_on,89,78,240
1,note_on,89,0,120
1,note_on,93,67,0
1,note_on,93,0,120
1,note_on,89,78,0
1,note_on,89,0,120
1,note_on,84,67,0
1,note_on,84,0,90
1,note_on,84,78,30
1,note_on,84,0,120
1,note_on,89,67,0
1,note_on,89,0,120
1,note_on,84,78,0
1,note_on,84,0,120
1,note_on,81,67,0
1,note_on,81,0,120
1,note_on,84,78,0
1,note_on,84,0,240
1,note_on,89,78,240
1,note_on,89,0,120
1,note_on,94,67,0
1,note_on,94,0,120
1,note_on,89,78,0
1,note_on,89,0,120
1,note_on,85,67,0
1,note_on,85,0,90
1,note_on,85,78,30
1,note_on,85,0,120
1,note_on,89,67,0
1,note_on,89,0,120
1,note_on,85,78,0
1,note_on,85,0,120
1,note_on,82,67,0
1,note_on,82,0,120
1,note_on,85,78,0
1,note_on,85,0,240
1,note_on,92,78,240
1,note_on,92,0,120
1,note_on,96,67,0
1,note_on,96,0,120
1,note_on,92,78,0
1,note_on,92,0,120
1,note_on,87,67,0
1,note_on,87,0,90
1,note_on,87,78,30
1,note_on,87,0,120
1,note_on,92,67,0
1,note_on,92,0,120
1,note_on,87,78,0
1,note_on,87,0,120
1,note_on,84,67,0
1,note_on,84,0,120
1,note_on,87,78,0
1,note_on,87,0,240
1,note_on,92,78,240
1,note_on,92,0,120
1,note_on,97,67,0
1,note_on,97,0,120
1,note_on,92,78,0
1,note_on,92,0,120
1,note_on,89,67,0
1,note_on,89,0,90
1,note_on,89,79,30
1,note_on,89,0,120
1,note_on,92,68,0
1,note_on,92,0,120
1,note_on,89,80,0
1,note_on,89,0,120
1,note_on,85,68,0
1,note_on,85,0,120
1,note_on,89,81,0
1,note_on,89,0,240
1,note_on,92,82,240
1,note_on,92,0,120
1,note_on,96,70,0
1,note_on,96,0,120
1,note_on,92,83,0
1,note_on,92,0,120
1,note_on,87,71,0
1,note_on,87,0,90
1,note_on,87,84,30
1,note_on,87,0,120
1,note_on,92,72,0
1,note_on,92,0,120
1,note_on,87,85,0
1,note_on,87,0,120
1,note_on,84,72,0
1,note_on,84,0,120
1,note_on,87,85,0
1,note_on,87,0,240
1,note_on,92,86,240
1,note_on,92,0,120
1,note_on,97,73,0
1,note_on,97,0,120
1,note_on,92,86,0
1,note_on,92,0,120
1,note_on,89,73,0
1,note_on,89,0,90
1,note_on,89,86,30
1,note_on,89,0,120
1,note_on,92,73,0
1,note_on,92,0,120
1,note_on,89,86,0
1,note_on,89,0,120
1,note_on,85,73,0
1,note_on,85,0,90
1,note_on,85,86,30
1,note_on,85,0,120
1,note_on,89,73,0
1,note_on,89,0,120
1,note_on,85,86,0
1,note_on,85,0,120
1,note_on,80,73,0
1,note_on,80,0,90
1,note_on,80,86,30
1,note_on,80,0,120
1,note_on,85,73,0
1,note_on,85,0,120
1,note_on,80,86,0
1,note_on,80,0,120
1,note_on,77,73,0
1,note_on,77,0,90
1,note_on,77,86,30
1,note_on,77,0,120
1,note_on,80,73,0
1,note_on,80,0,120
1,note_on,77,86,0
1,note_on,77,0,120
1,note_on,73,73,0
1,note_on,73,0,90
1,note_on,73,86,30
1,note_on,73,0,120
1,note_on,77,73,0
1,note_on,77,0,120
1,note_on,73,86,0
1,note_on,73,0,120
1,note_on,68,73,0
1,note_on,68,0,120
1,note_on,80,86,0
1,note_on,80,0,120
1,note_on,85,73,0
1,note_on,85,0,120
1,note_on,80,86,0
1,note_on,80,0,120
1,note_on,77,73,0
1,note_on,77,0,90
1,note_on,77,86,30
1,note_on,77,0,120
1,note_on,80,73,0
1,note_on,80,0,120
1,note_on,77,86,0
1,note_on,77,0,120
1,note_on,73,73,0
1,note_on,73,0,90
1,note_on,73,86,30
1,note_on,73,0,120
1,note_on,77,73,0
1,note_on,77,0,120
1,note_on,73,86,0
1,note_on,73,0,120
1,note_on,68,73,0
1,note_on,68,0,90
1,note_on,68,86,30
1,note_on,68,0,120
1,note_on,73,73,0
1,note_on,73,0,120
1,note_on,68,86,0
1,note_on,68,0,120
1,note_on,65,73,0
1,note_on,65,0,90
1,note_on,65,86,30
1,note_on,65,0,120
1,note_on,68,73,0
1,note_on,68,0,120
1,note_on,65,86,0
1,note_on,65,0,120
1,note_on,61,73,0
1,note_on,61,0,90
1,note_on,61,86,30
1,note_on,61,0,120
1,note_on,65,73,0
1,note_on,65,0,120
1,note_on,61,86,0
1,note_on,61,0,120
1,note_on,56,73,0
1,note_on,56,0,120
1,note_on,61,88,0
1,note_on,61,0,120
1,note_on,64,68,0
1,note_on,64,0,120
1,note_on,61,80,0
1,note_on,61,0,120
1,note_on,58,68,0
1,note_on,58,0,90
1,note_on,58,80,30
1,note_on,58,0,120
1,note_on,61,68,0
1,note_on,61,0,120
1,note_on,58,80,0
1,note_on,58,0,120
1,note_on,55,68,0
1,note_on,55,0,120
1,note_on,61,89,0
1,note_on,61,0,120
1,note_on,64,68,0
1,note_on,64,0,120
1,note_on,61,80,0
1,note_on,61,0,120
1,note_on,58,68,0
1,note_on,58,0,90
1,note_on,58,80,30
1,note_on,58,0,120
1,note_on,61,68,0
1,note_on,61,0,120
1,note_on,58,80,0
1,note_on,58,0,120
1,note_on,55,68,0
1,note_on,55,0,120
1,note_on,61,88,0
1,note_on,61,0,120
1,note_on,64,68,0
1,note_on,64,0,120
1,note_on,61,80,0
1,note_on,61,0,120
1,note_on,58,68,0
1,note_on,58,0,90
1,note_on,58,80,30
1,note_on,58,0,120
1,note_on,61,68,0
1,note_on,61,0,120
1,note_on,58,80,0
1,note_on,58,0,120
1,note_on,55,68,0
1,note_on,55,0,120
1,note_on,61,80,0
1,note_on,61,0,120
1,note_on,63,68,0
1,note_on,63,0,120
1,note_on,61,79,0
1,note_on,61,0,120
1,note_on,58,66,0
1,note_on,58,0,90
1,note_on,58,77,30
1,note_on,58,0,120
1,note_on,61,65,0
1,note_on,61,0,120
1,note_on,58,76,0
1,note_on,58,0,120
1,note_on,55,63,0
1,note_on,55,0,120
1,note_on,61,82,0
1,note_on,61,0,120
1,note_on,63,64,0
1,note_on,63,0,120
1,note_on,61,75,0
1,note_on,61,0,120
1,note_on,58,61,0
1,note_on,58,0,90
1,note_on,58,76,30
1,note_on,58,0,120
1,note_on,61,63,0
1,note_on,61,0,120
1,note_on,58,73,0
1,note_on,58,0,120
1,note_on,55,59,0
1,note_on,55,0,120
1,note_on,61,76,0
1,note_on,61,0,120
1,note_on,63,57,0
1,note_on,63,0,120
1,note_on,61,66,0
1,note_on,61,0,120
1,note_on,58,55,0
1,note_on,58,0,90
1,note_on,58,63,30
1,note_on,58,0,120
1,note_on,61,52,0
1,note_on,61,0,120
1,note_on,58,60,0
1,note_on,58,0,120
1,note_on,55,49,0
1,note_on,55,0,120
1,note_on,63,50,0
1,note_on,60,40,160
1,note_on,60,0,160
1,note_on,56,40,0
1,note_on,56,0,160
1,note_on,63,0,0
1,note_on,68,50,0
1,note_on,63,40,160
1,note_on,63,0,160
1,note_on,60,40,0
1,note_on,60,0,160
1,note_on,68,0,0
1,note_on,67,50,0
1,note_on,63,40,160
1,note_on,63,0,160
1,note_on,60,40,0
1,note_on,60,0,160
1,note_on,67,0,0
1,note_on,65,50,0
1,note_on,61,40,160
1,note_on,61,0,160
1,note_on,56,40,0
1,note_on,56,0,160
1,note_on,65,0,0
1,note_on,73,50,0
1,note_on,65,40,160
1,note_on,65,0,160
1,note_on,61,40,0
1,note_on,61,0,160
1,note_on,73,0,0
1,note_on,70,50,0
1,note_on,65,40,160
1,note_on,65,0,160
1,note_on,61,40,0
1,note_on,61,0,160
1,note_on,70,0,0
1,note_on,70,50,0
1,note_on,63,40,160
1,note_on,63,0,160
1,note_on,61,40,0
1,note_on,61,0,160
1,note_on,70,0,0
1,note_on,68,50,0
1,note_on,63,40,160
1,note_on,63,0,160
1,note_on,60,40,0
1,note_on,60,0,160
1,note_on,68,0,0
1,note_on,68,50,0
1,note_on,63,40,160
1,note_on,63,0,160
1,note_on,60,40,0
1,note_on,60,0,160
1,note_on,68,0,0
1,note_on,68,50,0
1,note_on,63,40,160
1,note_on,63,0,160
1,note_on,60,40,0
1,note_on,60,0,160
1,note_on,68,0,0
1,note_on,67,50,0
1,note_on,63,40,160
1,note_on,63,0,160
1,note_on,58,40,0
1,note_on,58,0,160
1,note_on,67,0,0
1,note_on,67,50,0
1,note_on,63,40,160
1,note_on,63,0,160
1,note_on,58,40,0
1,note_on,58,0,160
1,note_on,67,0,0
1,note_on,63,50,0
1,note_on,60,40,160
1,note_on,60,0,160
1,note_on,56,40,0
1,note_on,56,0,160
1,note_on,63,0,0
1,note_on,68,50,0
1,note_on,63,40,160
1,note_on,63,0,160
1,note_on,60,40,0
1,note_on,60,0,160
1,note_on,68,0,0
1,note_on,67,50,0
1,note_on,63,40,160
1,note_on,63,0,160
1,note_on,60,40,0
1,note_on,60,0,160
1,note_on,67,0,0
1,note_on,65,50,0
1,note_on,61,40,160
1,note_on,61,0,160
1,note_on,56,40,0
1,note_on,56,0,160
1,note_on,65,0,0
1,note_on,77,50,0
1,note_on,68,40,160
1,note_on,68,0,160
1,note_on,65,40,0
1,note_on,65,0,160
1,note_on,77,0,0
1,note_on,73,50,0
1,note_on,65,40,160
1,note_on,65,0,160
1,note_on,61,40,0
1,note_on,61,0,160
1,note_on,73,0,0
1,note_on,73,50,0
1,note_on,68,40,160
1,note_on,68,0,160
1,note_on,63,40,0
1,note_on,63,0,160
1,note_on,73,0,0
1,note_on,72,50,0
1,note_on,68,40,160
1,note_on,68,0,160
1,note_on,63,40,0
1,note_on,63,0,160
1,note_on,72,0,0
1,note_on,72,50,0
1,note_on,68,40,160
1,note_on,68,0,160
1,note_on,63,40,0
1,note_on,63,0,160
1,note_on,72,0,0
1,note_on,72,50,0
1,note_on,63,40,160
1,note_on,63,0,160
1,note_on,61,40,0
1,note_on,61,0,160
1,note_on,72,0,0
1,note_on,70,50,0
1,note_on,63,40,160
1,note_on,63,0,160
1,note_on,61,40,0
1,note_on,61,0,160
1,note_on,70,0,0
1,note_on,70,50,0
1,note_on,63,40,160
1,note_on,63,0,160
1,note_on,61,40,0
1,note_on,61,0,160
1,note_on,70,0,0
1,note_on,72,48,0
1,note_on,72,0,112
1,note_on,75,40,0
1,note_on,75,0,120
1,note_on,72,48,0
1,note_on,72,0,120
1,note_on,68,40,0
1,note_on,68,0,90
1,note_on,68,48,30
1,note_on,68,0,120
1,note_on,72,40,0
1,note_on,72,0,120
1,note_on,68,48,0
1,note_on,68,0,120
1,note_on,63,40,0
1,note_on,63,0,120
1,note_on,68,48,0
1,note_on,68,0,240
1,note_on,73,48,240
1,note_on,73,0,120
1,note_on,77,40,0
1,note_on,77,0,120
1,note_on,73,48,0
1,note_on,73,0,120
1,note_on,68,40,0
1,note_on,68,0,90
1,note_on,68,48,30
1,note_on,68,0,120
1,note_on,73,40,0
1,note_on,73,0,120
1,note_on,68,48,0
1,note_on,68,0,120
1,note_on,65,40,0
1,note_on,65,0,120
1,note_on,68,48,0
1,note_on,68,0,240
1,note_on,75,48,240
1,note_on,75,0,120
1,note_on,79,40,0
1,note_on,79,0,120
1,note_on,75,48,0
1,note_on,75,0,120
1,note_on,70,40,0
1,note_on,70,0,90
1,note_on,70,48,30
1,note_on,70,0,120
1,note_on,75,40,0
1,note_on,75,0,120
1,note_on,70,48,0
1,note_on,70,0,120
1,note_on,67,40,0
1,note_on,67,0,120
1,note_on,70,48,0
1,note_on,70,0,240
1,note_on,75,48,240
1,note_on,75,0,120
1,note_on,80,40,0
1,note_on,80,0,120
1,note_on,75,48,0
1,note_on,75,0,120
1,note_on,72,40,0
1,note_on,72,0,90
1,note_on,72,48,30
1,note_on,72,0,120
1,note_on,75,40,0
1,note_on,75,0,120
1,note_on,72,48,0
1,note_on,72,0,120
1,note_on,68,40,0
1,note_on,68,0,120
1,note_on,72,48,0
1,note_on,72,0,240
1,note_on,84,64,240
1,note_on,84,0,120
1,note_on,87,54,0
1,note_on,87,0,120
1,note_on,84,64,0
1,note_on,84,0,120
1,note_on,80,54,0
1,note_on,80,0,90
1,note_on,80,64,30
1,note_on,80,0,120
1,note_on,84,54,0
1,note_on,84,0,120
1,note_on,80,64,0
1,note_on,80,0,120
1,note_on,75,54,0
1,note_on,75,0,120
1,note_on,80,64,0
1,note_on,80,0,240
1,note_on,85,72,240
1,note_on,85,0,120
1,note_on,89,61,0
1,note_on,89,0,120
1,note_on,85,72,0
1,note_on,85,0,120
1,note_on,80,61,0
1,note_on,80,0,90
1,note_on,80,72,30
1,note_on,80,0,120
1,note_on,85,61,0
1,note_on,85,0,120
1,note_on,80,72,0
1,note_on,80,0,120
1,note_on,77,61,0
1,note_on,77,0,120
1,note_on,80,72,0
1,note_on,80,0,240
1,note_on,87,84,240
1,note_on,87,0,120
1,note_on,91,71,0
1,note_on,91,0,120
1,note_on,87,84,0
1,note_on,87,0,120
1,note_on,82,71,0
1,note_on,82,0,90
1,note_on,82,84,30
1,note_on,82,0,120
1,note_on,87,71,0
1,note_on,87,0,120
1,note_on,82,84,0
1,note_on,82,0,120
1,note_on,79,71,0
1,note_on,79,0,120
1,note_on,82,84,0
1,note_on,82,0,240
1,note_on,87,91,240
1,note_on,87,0,120
1,note_on,92,76,0
1,note_on,92,0,120
1,note_on,87,91,0
1,note_on,87,0,120
1,note_on,84,76,0
1,note_on,84,0,90
1,note_on,84,91,30
1,note_on,84,0,120
1,note_on,87,76,0
1,note_on,87,0,120
1,note_on,84,91,0
1,note_on,84,0,120
1,note_on,80,76,0
1,note_on,80,0,120
1,note_on,84,91,0
1,note_on,84,0,240
1,note_on,72,48,240
1,note_on,72,0,120
1,note_on,75,40,0
1,note_on,75,0,120
1,note_on,72,48,0
1,note_on,72,0,120
1,note_on,68,40,0
1,note_on,68,0,90
1,note_on,68,48,30
1,note_on,68,0,120
1,note_on,72,40,0
1,note_on,72,0,120
1,note_on,68,48,0
1,note_on,68,0,120
1,note_on,63,40,0
1,note_on,63,0,120
1,note_on,68,48,0
1,note_on,68,0,240
1,note_on,73,48,240
1,note_on,73,0,120
1,note_on,77,40,0
1,note_on,77,0,120
1,note_on,73,48,0
1,note_on,73,0,120
1,note_on,68,40,0
1,note_on,68,0,90
1,note_on,68,48,30
1,note_on,68,0,120
1,note_on,73,40,0
1,note_on,73,0,120
1,note_on,68,48,0
1,note_on,68,0,120
1,note_on,65,40,0
1,note_on,65,0,120
1,note_on,68,48,0
1,note_on,68,0,240
1,note_on,75,48,240
1,note_on,75,0,120
1,note_on,79,40,0
1,note_on,79,0,120
1,note_on,75,48,0
1,note_on,75,0,120
1,note_on,70,40,0
1,note_on,70,0,90
1,note_on,70,48,30
1,note_on,70,0,120
1,note_on,75,40,0
1,note_on,75,0,120
1,note_on,70,48,0
1,note_on,70,0,120
1,note_on,67,40,0
1,note_on,67,0,120
1,note_on,70,48,0
1,note_on,70,0,240
1,note_on,75,48,240
1,note_on,75,0,120
1,note_on,80,40,0
1,note_on,80,0,120
1,note_on,75,48,0
1,note_on,75,0,120
1,note_on,72,40,0
1,note_on,72,0,90
1,note_on,72,48,30
1,note_on,72,0,120
1,note_on,75,40,0
1,note_on,75,0,120
1,note_on,72,48,0
1,note_on,72,0,120
1,note_on,68,40,0
1,note_on,68,0,120
1,note_on,72,48,0
1,note_on,72,0,240
1,note_on,84,68,240
1,note_on,84,0,120
1,note_on,87,57,0
1,note_on,87,0,120
1,note_on,84,68,0
1,note_on,84,0,120
1,note_on,80,57,0
1,note_on,80,0,90
1,note_on,80,68,30
1,note_on,80,0,120
1,note_on,84,57,0
1,note_on,84,0,120
1,note_on,80,68,0
1,note_on,80,0,120
1,note_on,75,57,0
1,note_on,75,0,120
1,note_on,80,68,0
1,note_on,80,0,240
1,note_on,85,68,240
1,note_on,85,0,120
1,note_on,89,57,0
1,note_on,89,0,120
1,note_on,85,68,0
1,note_on,85,0,120
1,note_on,80,57,0
1,note_on,80,0,90
1,note_on,80,68,30
1,note_on,80,0,120
1,note_on,85,57,0
1,note_on,85,0,120
1,note_on,80,68,0
1,note_on,80,0,120
1,note_on,77,57,0
1,note_on,77,0,120
1,note_on,80,68,0
1,note_on,80,0,240
1,note_on,87,68,240
1,note_on,87,0,120
1,note_on,91,57,0
1,note_on,91,0,120
1,note_on,87,68,0
1,note_on,87,0,120
1,note_on,82,57,0
1,note_on,82,0,90
1,note_on,82,68,30
1,note_on,82,0,120
1,note_on,87,57,0
1,note_on,87,0,120
1,note_on,82,68,0
1,note_on,82,0,120
1,note_on,79,57,0
1,note_on,79,0,120
1,note_on,82,68,0
1,note_on,82,0,240
1,note_on,87,80,240
1,note_on,87,0,120
1,note_on,92,68,0
1,note_on,92,0,120
1,note_on,87,80,0
1,note_on,87,0,120
1,note_on,84,68,0
1,note_on,84,0,90
1,note_on,84,80,30
1,note_on,84,0,120
1,note_on,87,68,0
1,note_on,87,0,120
1,note_on,84,80,0
1,note_on,84,0,120
1,note_on,80,68,0
1,note_on,80,0,120
1,note_on,84,80,0
1,note_on,84,0,240
1,note_on,87,84,240
1,note_on,87,0,120
1,note_on,91,71,0
1,note_on,91,0,120
1,note_on,87,84,0
1,note_on,87,0,120
1,note_on,82,71,0
1,note_on,82,0,90
1,note_on,82,84,30
1,note_on,82,0,120
1,note_on,87,71,0
1,note_on,87,0,120
1,note_on,82,84,0
1,note_on,82,0,120
1,note_on,79,71,0
1,note_on,79,0,120
1,note_on,82,84,0
1,note_on,82,0,240
1,note_on,87,90,240
1,note_on,87,0,120
1,note_on,92,76,0
1,note_on,92,0,120
1,note_on,87,90,0
1,note_on,87,0,120
1,note_on,84,76,0
1,note_on,84,0,90
1,note_on,84,90,30
1,note_on,84,0,120
1,note_on,87,76,0
1,note_on,87,0,120
1,note_on,84,90,0
1,note_on,84,0,120
1,note_on,80,76,0
1,note_on,80,0,120
1,note_on,84,90,0
1,note_on,84,0,240
1,note_on,87,96,240
1,note_on,87,0,120
1,note_on,91,81,0
1,note_on,91,0,120
1,note_on,87,96,0
1,note_on,87,0,120
1,note_on,82,81,0
1,note_on,82,0,90
1,note_on,82,96,30
1,note_on,82,0,120
1,note_on,87,81,0
1,note_on,87,0,120
1,note_on,82,96,0
1,note_on,82,0,120
1,note_on,79,81,0
1,note_on,79,0,120
1,note_on,82,96,0
1,note_on,82,0,240
1,note_on,87,96,240
1,note_on,87,0,120
1,note_on,92,81,0
1,note_on,92,0,120
1,note_on,87,96,0
1,note_on,87,0,120
1,note_on,84,81,0
1,note_on,84,0,90
1,note_on,84,96,30
1,note_on,84,0,120
1,note_on,87,81,0
1,note_on,87,0,120
1,note_on,84,96,0
1,note_on,84,0,120
1,note_on,80,81,0
1,note_on,80,0,90
1,note_on,80,96,30
1,note_on,80,0,120
1,note_on,84,81,0
1,note_on,84,0,120
1,note_on,80,96,0
1,note_on,80,0,120
1,note_on,75,81,0
1,note_on,75,0,90
1,note_on,75,96,30
1,note_on,75,0,120
1,note_on,80,81,0
1,note_on,80,0,120
1,note_on,75,96,0
1,note_on,75,0,120
1,note_on,72,81,0
1,note_on,72,0,90
1,note_on,72,96,30
1,note_on,72,0,120
1,note_on,75,81,0
1,note_on,75,0,120
1,note_on,72,96,0
1,note_on,72,0,120
1,note_on,68,81,0
1,note_on,68,0,90
1,note_on,68,96,30
1,note_on,68,0,120
1,note_on,72,81,0
1,note_on,72,0,120
1,note_on,68,96,0
1,note_on,68,0,120
1,note_on,63,80,0
1,note_on,63,0,120
1,note_on,75,95,0
1,note_on,75,0,120
1,note_on,80,79,0
1,note_on,80,0,120
1,note_on,75,93,0
1,note_on,75,0,120
1,note_on,72,77,0
1,note_on,72,0,90
1,note_on,72,91,30
1,note_on,72,0,120
1,note_on,75,76,0
1,note_on,75,0,120
1,note_on,72,89,0
1,note_on,72,0,120
1,note_on,68,75,0
1,note_on,68,0,90
1,note_on,68,87,30
1,note_on,68,0,120
1,note_on,72,73,0
1,note_on,72,0,120
1,note_on,68,85,0
1,note_on,68,0,120
1,note_on,63,71,0
1,note_on,63,0,90
1,note_on,63,83,30
1,note_on,63,0,120
1,note_on,68,70,0
1,note_on,68,0,120
1,note_on,63,79,0
1,note_on,63,0,120
1,note_on,60,68,0
1,note_on,60,0,90
1,note_on,60,77,30
1,note_on,60,0,120
1,note_on,63,66,0
1,note_on,63,0,120
1,note_on,60,75,0
1,note_on,60,0,120
1,note_on,56,62,0
1,note_on,56,0,120
1,note_on,63,70,0
1,note_on,63,0,120
1,note_on,68,57,0
1,note_on,68,0,120
1,note_on,63,65,0
1,note_on,63,0,120
1,note_on,60,53,0
1,note_on,60,0,120
1,note_on,56,60,0
1,note_on,56,0,120
1,note_on,60,51,0
1,note_on,60,0,120
1,note_on,56,60,0
1,note_on,56,0,120
1,note_on,51,51,0
1,note_on,51,0,120
1,note_on,56,60,0
1,note_on,56,0,120
1,note_on,60,51,0
1,note_on,60,0,120
1,note_on,56,60,0
1,note_on,56,0,120
1,note_on,51,51,0
1,note_on,51,0,120
1,note_on,56,60,0
1,note_on,56,0,120
1,note_on,60,51,0
1,note_on,60,0,120
1,note_on,56,60,0
1,note_on,56,0,120
1,note_on,51,51,0
1,note_on,51,0,120
1,note_on,56,60,0
1,note_on,56,0,120
1,note_on,60,51,0
1,note_on,60,0,120
1,note_on,56,60,0
1,note_on,56,0,120
1,note_on,51,51,0
1,note_on,51,0,120
1,note_on,56,60,0
1,note_on,56,0,120
1,note_on,60,51,0
1,note_on,60,0,120
1,note_on,56,60,0
1,note_on,56,0,120
1,note_on,51,51,0
1,note_on,51,0,120
1,note_on,56,60,0
1,note_on,56,0,120
1,note_on,60,51,0
1,note_on,60,0,120
1,note_on,56,60,0
1,note_on,56,0,120
1,note_on,51,51,0
1,note_on,51,0,120
1,note_on,68,60,0
1,note_on,63,60,0
1,note_on,63,0,120
1,note_on,66,51,0
1,note_on,66,0,120
1,note_on,63,59,0
1,note_on,63,0,120
1,note_on,56,49,0
1,note_on,56,0,120
1,note_on,63,57,0
1,note_on,63,0,120
1,note_on,66,47,0
1,note_on,66,0,120
1,note_on,63,55,0
1,note_on,63,0,120
1,note_on,56,46,0
1,note_on,56,0,120
1,note_on,63,54,0
1,note_on,63,0,120
1,note_on,66,45,0
1,note_on,66,0,120
1,note_on,63,52,0
1,note_on,63,0,120
1,note_on,56,43,0
1,note_on,56,0,120
1,note_on,63,50,0
1,note_on,63,0,120
1,note_on,66,42,0
1,note_on,66,0,120
1,note_on,63,49,0
1,note_on,63,0,120
1,note_on,56,40,0
1,note_on,56,0,120
1,note_on,63,47,0
1,note_on,63,0,120
1,note_on,66,39,0
1,note_on,66,0,120
1,note_on,63,45,0
1,note_on,63,0,120
1,note_on,56,38,0
1,note_on,56,0,120
1,note_on,63,44,0
1,note_on,63,0,120
1,note_on,66,36,0
1,note_on,66,0,120
1,note_on,63,42,0
1,note_on,63,0,120
1,note_on,56,34,0
1,note_on,56,0,120
1,note_on,68,0,0
1,note_on,68,61,0
1,note_on,56,27,224
1,note_on,64,27,0
1,note_on,64,0,228
1,note_on,56,0,0
1,note_on,56,26,12
1,note_on,64,26,0
1,note_on,64,0,228
1,note_on,56,0,0
1,note_on,56,26,12
1,note_on,64,26,0
1,note_on,64,0,228
1,note_on,56,0,0
1,note_on,56,26,12
1,note_on,64,26,0
1,note_on,64,0,228
1,note_on,56,0,0
1,note_on,56,26,12
1,note_on,64,26,0
1,note_on,64,0,228
1,note_on,56,0,0
1,note_on,68,0,12
1,note_on,68,61,0
1,note_on,56,26,240
1,note_on,64,26,0
1,note_on,56,0,228
1,note_on,64,0,12
1,note_on,68,0,0
1,note_on,69,59,0
1,note_on,57,27,240
1,note_on,64,27,0
1,note_on,57,0,228
1,note_on,64,0,12
1,note_on,69,0,0
1,note_on,68,59,0
1,note_on,56,26,240
1,note_on,64,26,0
1,note_on,56,0,228
1,note_on,64,0,12
1,note_on,68,0,0
1,note_on,69,60,0
1,note_on,57,26,240
1,note_on,66,26,0
1,note_on,66,0,228
1,note_on,57,0,0
1,note_on,57,26,12
1,note_on,66,26,0
1,note_on,66,0,228
1,note_on,57,0,0
1,note_on,57,26,12
1,note_on,66,26,0
1,note_on,66,0,228
1,note_on,57,0,0
1,note_on,57,26,12
1,note_on,66,26,0
1,note_on,66,0,228
1,note_on,57,0,0
1,note_on,57,26,12
1,note_on,66,26,0
1,note_on,66,0,228
1,note_on,57,0,0
1,note_on,69,0,12
1,note_on,68,59,0
1,note_on,56,28,240
1,note_on,66,28,0
1,note_on,66,0,228
1,note_on,56,0,0
1,note_on,56,29,12
1,note_on,66,29,0
1,note_on,66,0,228
1,note_on,56,0,0
1,note_on,56,29,12
1,note_on,66,29,0
1,note_on,66,0,228
1,note_on,56,0,0
1,note_on,56,29,12
1,note_on,66,29,0
1,note_on,66,0,228
1,note_on,56,0,0
1,note_on,56,29,12
1,note_on,66,29,0
1,note_on,66,0,228
1,note_on,56,0,0
1,note_on,68,0,12
1,note_on,68,60,0
1,note_on,56,26,240
1,note_on,64,26,0
1,note_on,64,0,228
1,note_on,56,0,0
1,note_on,56,26,12
1,note_on,64,26,0
1,note_on,64,0,228
1,note_on,56,0,0
1,note_on,56,26,12
1,note_on,64,26,0
1,note_on,64,0,228
1,note_on,56,0,0
1,note_on,56,26,12
1,note_on,64,26,0
1,note_on,64,0,228
1,note_on,56,0,0
1,note_on,56,27,12
1,note_on,64,27,0
1,note_on,64,0,228
1,note_on,56,0,0
1,note_on,68,0,12
1,note_on,76,68,0
1,note_on,64,28,240
1,note_on,68,28,0
1,note_on,68,0,228
1,note_on,64,0,0
1,note_on,76,0,12
1,note_on,75,63,0
1,note_on,63,27,240
1,note_on,68,27,0
1,note_on,68,0,228
1,note_on,63,0,0
1,note_on,75,0,12
1,note_on,73,60,0
1,note_on,61,27,240
1,note_on,68,27,0
1,note_on,68,0,228
1,note_on,61,0,0
1,note_on,73,0,12
1,note_on,73,60,0
1,note_on,61,27,240
1,note_on,68,27,0
1,note_on,68,0,228
1,note_on,61,0,0
1,note_on,61,27,12
1,note_on,68,27,0
1,note_on,68,0,228
1,note_on,61,0,0
1,note_on,61,27,12
1,note_on,68,27,0
1,note_on,68,0,228
1,note_on,61,0,0
1,note_on,61,27,12
1,note_on,68,27,0
1,note_on,68,0,228
1,note_on,61,0,0
1,note_on,61,27,12
1,note_on,68,27,0
1,note_on,68,0,228
1,note_on,61,0,0
1,note_on,73,0,12
1,note_on,72,61,0
1,note_on,60,27,240
1,note_on,68,27,0
1,note_on,68,0,228
1,note_on,60,0,0
1,note_on,60,27,12
1,note_on,68,27,0
1,note_on,68,0,228
1,note_on,60,0,0
1,note_on,60,27,12
1,note_on,68,27,0
1,note_on,68,0,228
1,note_on,60,0,0
1,note_on,60,27,12
1,note_on,68,27,0
1,note_on,68,0,228
1,note_on,60,0,0
1,note_on,60,27,12
1,note_on,68,27,0
1,note_on,68,0,228
1,note_on,60,0,0
1,note_on,72,0,12
1,note_on,72,58,0
1,note_on,60,35,240
1,note_on,69,35,0
1,note_on,69,0,228
1,note_on,60,0,0
1,note_on,72,0,12
1,note_on,73,68,0
1,note_on,61,35,240
1,note_on,69,35,0
1,note_on,69,0,228
1,note_on,61,0,0
1,note_on,61,35,12
1,note_on,69,35,0
1,note_on,69,0,228
1,note_on,61,0,0
1,note_on,61,35,12
1,note_on,69,35,0
1,note_on,69,0,228
1,note_on,61,0,0
1,note_on,61,35,12
1,note_on,69,35,0
1,note_on,69,0,228
1,note_on,61,0,0
1,note_on,61,35,12
1,note_on,69,35,0
1,note_on,69,0,228
1,note_on,61,0,0
1,note_on,73,0,12
1,note_on,73,70,0
1,note_on,61,35,240
1,note_on,69,35,0
1,note_on,69,0,228
1,note_on,61,0,0
1,note_on,73,0,12
1,note_on,73,69,0
1,note_on,61,35,240
1,note_on,69,35,0
1,note_on,69,0,228
1,note_on,61,0,0
1,note_on,73,0,12
1,note_on,73,70,0
1,note_on,61,44,240
1,note_on,68,44,0
1,note_on,68,0,228
1,note_on,61,0,0
1,note_on,73,0,12
1,note_on,74,78,0
1,note_on,62,44,240
1,note_on,68,44,0
1,note_on,68,0,228
1,note_on,62,0,0
1,note_on,62,44,12
1,note_on,68,44,0
1,note_on,68,0,228
1,note_on,62,0,0
1,note_on,62,44,12
1,note_on,68,44,0
1,note_on,68,0,228
1,note_on,62,0,0
1,note_on,62,44,12
1,note_on,68,44,0
1,note_on,68,0,228
1,note_on,62,0,0
1,note_on,62,44,12
1,note_on,68,44,0
1,note_on,68,0,228
1,note_on,62,0,0
1,note_on,74,0,12
1,note_on,74,81,0
1,note_on,62,44,240
1,note_on,68,44,0
1,note_on,68,0,240
1,note_on,62,0,0
1,note_on,74,0,0
1,note_on,74,80,0
1,note_on,62,44,240
1,note_on,68,44,0
1,note_on,68,0,240
1,note_on,62,0,0
1,note_on,74,0,0
1,note_on,76,88,0
1,note_on,64,51,240
1,note_on,68,51,0
1,note_on,68,0,228
1,note_on,64,0,0
1,note_on,76,0,12
1,note_on,75,84,0
1,note_on,63,51,240
1,note_on,68,51,0
1,note_on,68,0,228
1,note_on,63,0,0
1,note_on,63,44,12
1,note_on,68,44,0
1,note_on,68,0,228
1,note_on,63,0,0
1,note_on,63,51,12
1,note_on,68,51,0
1,note_on,68,0,228
1,note_on,63,0,0
1,note_on,75,0,12
1,note_on,76,88,0
1,note_on,64,52,240
1,note_on,67,52,0
1,note_on,67,0,228
1,note_on,64,0,0
1,note_on,76,0,12
1,note_on,75,84,0
1,note_on,63,52,240
1,note_on,67,52,0
1,note_on,67,0,228
1,note_on,63,0,0
1,note_on,63,52,12
1,note_on,67,52,0
1,note_on,67,0,228
1,note_on,63,0,0
1,note_on,63,52,12
1,note_on,67,52,0
1,note_on,67,0,228
1,note_on,63,0,0
1,note_on,75,0,12
1,note_on,68,73,0
1,note_on,59,26,240
1,note_on,63,26,0
1,note_on,63,0,228
1,note_on,59,0,0
1,note_on,59,26,12
1,note_on,63,26,0
1,note_on,63,0,228
1,note_on,59,0,0
1,note_on,59,26,12
1,note_on,63,26,0
1,note_on,63,0,228
1,note_on,59,0,0
1,note_on,59,26,12
1,note_on,63,26,0
1,note_on,63,0,228
1,note_on,59,0,0
1,note_on,59,26,12
1,note_on,63,26,0
1,note_on,63,0,228
1,note_on,59,0,0
1,note_on,68,0,12
1,note_on,68,52,0
1,note_on,60,24,240
1,note_on,66,24,0
1,note_on,63,24,0
1,note_on,63,0,228
1,note_on,66,0,0
1,note_on,60,0,0
1,note_on,60,28,12
1,note_on,63,28,0
1,note_on,66,28,0
1,note_on,66,0,228
1,note_on,63,0,0
1,note_on,60,0,0
1,note_on,60,35,12
1,note_on,63,35,0
1,note_on,66,35,0
1,note_on,66,0,228
1,note_on,63,0,0
1,note_on,60,0,0
1,note_on,60,30,12
1,note_on,63,30,0
1,note_on,66,30,0
1,note_on,66,0,228
1,note_on,63,0,0
1,note_on,60,0,0
1,note_on,60,26,12
1,note_on,63,26,0
1,note_on,66,26,0
1,note_on,66,0,228
1,note_on,63,0,0
1,note_on,60,0,0
1,note_on,68,0,12
1,note_on,68,61,0
1,note_on,56,27,224
1,note_on,64,27,0
1,note_on,64,0,228
1,note_on,56,0,0
1,note_on,56,26,12
1,note_on,64,26,0
1,note_on,64,0,228
1,note_on,56,0,0
1,note_on,56,26,12
1,note_on,64,26,0
1,note_on,64,0,228
1,note_on,56,0,0
1,note_on,56,26,12
1,note_on,64,26,0
1,note_on,64,0,228
1,note_on,56,0,0
1,note_on,56,26,12
1,note_on,64,26,0
1,note_on,64,0,228
1,note_on,56,0,0
1,note_on,68,0,12
1,note_on,68,61,0
1,note_on,56,26,240
1,note_on,64,26,0
1,note_on,64,0,228
1,note_on,56,0,0
1,note_on,68,0,12
1,note_on,69,59,0
1,note_on,57,27,240
1,note_on,64,27,0
1,note_on,64,0,228
1,note_on,57,0,0
1,note_on,69,0,12
1,note_on,68,59,0
1,note_on,56,26,240
1,note_on,64,26,0
1,note_on,64,0,228
1,note_on,56,0,0
1,note_on,68,0,12
1,note_on,69,60,0
1,note_on,57,26,240
1,note_on,66,26,0
1,note_on,66,0,228
1,note_on,57,0,0
1,note_on,57,26,12
1,note_on,66,26,0
1,note_on,66,0,228
1,note_on,57,0,0
1,note_on,57,26,12
1,note_on,66,26,0
1,note_on,66,0,228
1,note_on,57,0,0
1,note_on,57,26,12
1,note_on,66,26,0
1,note_on,66,0,228
1,note_on,57,0,0
1,note_on,57,26,12
1,note_on,66,26,0
1,note_on,66,0,228
1,note_on,57,0,0
1,note_on,69,0,12
1,note_on,68,59,0
1,note_on,56,28,240
1,note_on,66,28,0
1,note_on,66,0,228
1,note_on,56,0,0
1,note_on,56,29,12
1,note_on,66,29,0
1,note_on,66,0,228
1,note_on,56,0,0
1,note_on,56,29,12
1,note_on,66,29,0
1,note_on,66,0,228
1,note_on,56,0,0
1,note_on,56,29,12
1,note_on,66,29,0
1,note_on,66,0,228
1,note_on,56,0,0
1,note_on,56,29,12
1,note_on,66,29,0
1,note_on,66,0,228
1,note_on,56,0,0
1,note_on,68,0,12
1,note_on,68,60,0
1,note_on,56,26,240
1,note_on,64,26,0
1,note_on,64,0,228
1,note_on,56,0,0
1,note_on,56,26,12
1,note_on,64,26,0
1,note_on,64,0,228
1,note_on,56,0,0
1,note_on,56,26,12
1,note_on,64,26,0
1,note_on,64,0,228
1,note_on,56,0,0
1,note_on,56,26,12
1,note_on,64,26,0
1,note_on,64,0,228
1,note_on,56,0,0
1,note_on,56,27,12
1,note_on,64,27,0
1,note_on,64,0,228
1,note_on,56,0,0
1,note_on,68,0,12
1,note_on,76,70,0
1,note_on,64,28,240
1,note_on,68,28,0
1,note_on,68,0,228
1,note_on,64,0,0
1,note_on,76,0,12
1,note_on,75,64,0
1,note_on,63,27,240
1,note_on,68,27,0
1,note_on,68,0,228
1,note_on,63,0,0
1,note_on,75,0,12
1,note_on,73,60,0
1,note_on,61,27,240
1,note_on,68,27,0
1,note_on,68,0,228
1,note_on,61,0,0
1,note_on,73,0,12
1,note_on,73,60,0
1,note_on,61,27,240
1,note_on,68,27,0
1,note_on,68,0,228
1,note_on,61,0,0
1,note_on,61,27,12
1,note_on,68,27,0
1,note_on,68,0,228
1,note_on,61,0,0
1,note_on,61,27,12
1,note_on,68,27,0
1,note_on,68,0,228
1,note_on,61,0,0
1,note_on,61,27,12
1,note_on,68,27,0
1,note_on,68,0,228
1,note_on,61,0,0
1,note_on,61,27,12
1,note_on,68,27,0
1,note_on,68,0,228
1,note_on,61,0,0
1,note_on,73,0,12
1,note_on,72,61,0
1,note_on,60,27,240
1,note_on,68,27,0
1,note_on,68,0,228
1,note_on,60,0,0
1,note_on,60,27,12
1,note_on,68,27,0
1,note_on,68,0,228
1,note_on,60,0,0
1,note_on,60,27,12
1,note_on,68,27,0
1,note_on,68,0,228
1,note_on,60,0,0
1,note_on,60,27,12
1,note_on,68,27,0
1,note_on,68,0,228
1,note_on,60,0,0
1,note_on,60,27,12
1,note_on,68,27,0
1,note_on,68,0,228
1,note_on,60,0,0
1,note_on,72,0,12
1,note_on,72,58,0
1,note_on,60,35,240
1,note_on,69,35,0
1,note_on,69,0,240
1,note_on,60,0,0
1,note_on,72,0,0
1,note_on,73,68,0
1,note_on,61,35,240
1,note_on,69,35,0
1,note_on,69,0,228
1,note_on,61,0,0
1,note_on,61,35,12
1,note_on,69,35,0
1,note_on,69,0,228
1,note_on,61,0,0
1,note_on,61,35,12
1,note_on,69,35,0
1,note_on,69,0,228
1,note_on,61,0,0
1,note_on,61,35,12
1,note_on,69,35,0
1,note_on,69,0,240
1,note_on,61,0,0
1,note_on,61,35,0
1,note_on,69,35,0
1,note_on,69,0,240
1,note_on,61,0,0
1,note_on,73,0,0
1,note_on,73,70,0
1,note_on,61,35,240
1,note_on,69,35,0
1,note_on,69,0,240
1,note_on,61,0,0
1,note_on,73,0,0
1,note_on,73,69,0
1,note_on,61,35,240
1,note_on,69,35,0
1,note_on,69,0,240
1,note_on,61,0,0
1,note_on,73,0,0
1,note_on,73,70,0
1,note_on,61,44,240
1,note_on,68,44,0
1,note_on,68,0,228
1,note_on,61,0,0
1,note_on,73,0,12
1,note_on,74,78,0
1,note_on,62,44,240
1,note_on,68,44,0
1,note_on,68,0,228
1,note_on,62,0,0
1,note_on,62,44,12
1,note_on,68,44,0
1,note_on,68,0,228
1,note_on,62,0,0
1,note_on,62,44,12
1,note_on,68,44,0
1,note_on,68,0,228
1,note_on,62,0,0
1,note_on,62,44,12
1,note_on,68,44,0
1,note_on,68,0,228
1,note_on,62,0,0
1,note_on,62,44,12
1,note_on,68,44,0
1,note_on,68,0,228
1,note_on,62,0,0
1,note_on,74,0,12
1,note_on,74,80,0
1,note_on,62,44,240
1,note_on,68,44,0
1,note_on,68,0,240
1,note_on,62,0,0
1,note_on,74,0,0
1,note_on,74,75,0
1,note_on,62,44,240
1,note_on,68,44,0
1,note_on,68,0,240
1,note_on,62,0,0
1,note_on,74,0,0
1,note_on,76,88,0
1,note_on,64,51,240
1,note_on,68,51,0
1,note_on,68,0,228
1,note_on,64,0,0
1,note_on,76,0,12
1,note_on,75,83,0
1,note_on,63,51,240
1,note_on,68,51,0
1,note_on,68,0,228
1,note_on,63,0,0
1,note_on,63,44,12
1,note_on,68,44,0
1,note_on,68,0,228
1,note_on,63,0,0
1,note_on,63,51,12
1,note_on,68,51,0
1,note_on,68,0,228
1,note_on,63,0,0
1,note_on,75,0,12
1,note_on,76,88,0
1,note_on,64,52,240
1,note_on,67,52,0
1,note_on,67,0,228
1,note_on,64,0,0
1,note_on,76,0,12
1,note_on,75,83,0
1,note_on,63,52,240
1,note_on,67,52,0
1,note_on,67,0,228
1,note_on,63,0,0
1,note_on,63,52,12
1,note_on,67,52,0
1,note_on,67,0,228
1,note_on,63,0,0
1,note_on,63,52,12
1,note_on,67,52,0
1,note_on,67,0,228
1,note_on,63,0,0
1,note_on,75,0,12
1,note_on,68,70,0
1,note_on,59,26,240
1,note_on,63,26,0
1,note_on,63,0,228
1,note_on,59,0,0
1,note_on,59,26,12
1,note_on,63,26,0
1,note_on,63,0,228
1,note_on,59,0,0
1,note_on,59,26,12
1,note_on,63,26,0
1,note_on,63,0,228
1,note_on,59,0,0
1,note_on,59,26,12
1,note_on,63,26,0
1,note_on,63,0,228
1,note_on,59,0,0
1,note_on,59,26,12
1,note_on,63,26,0
1,note_on,63,0,228
1,note_on,59,0,0
1,note_on,59,26,12
1,note_on,63,26,0
1,note_on,63,0,228
1,note_on,59,0,0
1,note_on,59,26,12
1,note_on,63,26,0
1,note_on,63,0,228
1,note_on,59,0,0
1,note_on,68,0,12
1,note_on,68,48,0
1,note_on,59,26,240
1,note_on,63,26,0
1,note_on,63,0,240
1,note_on,59,0,0
1,note_on,68,0,0
1,note_on,68,42,0
1,note_on,59,26,240
1,note_on,63,26,0
1,note_on,63,0,240
1,note_on,59,0,0
1,note_on,68,0,0
1,note_on,68,59,0
1,note_on,63,26,240
1,note_on,60,26,0
1,note_on,60,0,228
1,note_on,63,0,0
1,note_on,68,0,12
1,note_on,69,61,0
1,note_on,60,26,240
1,note_on,63,26,0
1,note_on,63,0,228
1,note_on,60,0,0
1,note_on,60,26,12
1,note_on,63,26,0
1,note_on,63,0,228
1,note_on,60,0,0
1,note_on,60,26,12
1,note_on,63,26,0
1,note_on,63,0,228
1,note_on,60,0,0
1,note_on,60,26,12
1,note_on,63,26,0
1,note_on,63,0,228
1,note_on,60,0,0
1,note_on,60,26,12
1,note_on,63,26,0
1,note_on,63,0,228
1,note_on,60,0,0
1,note_on,69,0,12
1,note_on,68,60,0
1,note_on,60,26,240
1,note_on,63,26,0
1,note_on,63,0,228
1,note_on,60,0,0
1,note_on,68,0,12
1,note_on,66,56,0
1,note_on,60,34,240
1,note_on,63,26,0
1,note_on,63,0,228
1,note_on,60,0,0
1,note_on,66,0,12
1,note_on,64,70,0
1,note_on,56,26,240
1,note_on,61,26,0
1,note_on,61,0,228
1,note_on,56,0,0
1,note_on,64,0,12
1,note_on,68,64,0
1,note_on,64,29,240
1,note_on,61,29,0
1,note_on,61,0,228
1,note_on,64,0,0
1,note_on,68,0,12
1,note_on,73,68,0
1,note_on,64,31,240
1,note_on,68,31,0
1,note_on,68,0,228
1,note_on,64,0,0
1,note_on,73,0,12
1,note_on,76,77,0
1,note_on,68,34,240
1,note_on,73,34,0
1,note_on,73,0,228
1,note_on,68,0,0
1,note_on,76,0,12
1,note_on,80,75,0
1,note_on,73,37,240
1,note_on,76,37,0
1,note_on,76,0,228
1,note_on,73,0,0
1,note_on,80,0,12
1,note_on,85,79,0
1,note_on,76,39,240
1,note_on,80,39,0
1,note_on,80,0,228
1,note_on,76,0,0
1,note_on,85,0,12
1,note_on,87,99,0
1,note_on,75,51,240
1,note_on,79,51,0
1,note_on,79,0,228
1,note_on,75,0,0
1,note_on,87,0,12
1,note_on,88,96,0
1,note_on,79,45,240
1,note_on,76,45,0
1,note_on,76,0,228
1,note_on,79,0,0
1,note_on,79,40,12
1,note_on,76,40,0
1,note_on,76,0,228
1,note_on,79,0,0
1,note_on,79,39,12
1,note_on,76,39,0
1,note_on,76,0,228
1,note_on,79,0,0
1,note_on,79,37,12
1,note_on,76,37,0
1,note_on,76,0,228
1,note_on,79,0,0
1,note_on,76,37,12
1,note_on,79,37,0
1,note_on,79,0,228
1,note_on,76,0,0
1,note_on,88,0,12
1,note_on,87,88,0
1,note_on,75,31,240
1,note_on,79,31,0
1,note_on,79,0,228
1,note_on,75,0,0
1,note_on,87,0,12
1,note_on,85,81,0
1,note_on,73,28,240
1,note_on,79,28,0
1,note_on,79,0,228
1,note_on,73,0,0
1,note_on,85,0,12
1,note_on,85,68,0
1,note_on,75,26,240
1,note_on,80,26,0
1,note_on,80,0,228
1,note_on,75,0,0
1,note_on,85,0,12
1,note_on,84,59,0
1,note_on,75,26,240
1,note_on,80,26,0
1,note_on,80,0,228
1,note_on,75,0,0
1,note_on,84,0,12
1,note_on,80,58,0
1,note_on,72,26,240
1,note_on,75,26,0
1,note_on,75,0,228
1,note_on,72,0,0
1,note_on,80,0,12
1,note_on,75,58,0
1,note_on,68,26,240
1,note_on,72,26,0
1,note_on,72,0,228
1,note_on,68,0,0
1,note_on,75,0,12
1,note_on,72,58,0
1,note_on,63,26,240
1,note_on,68,26,0
1,note_on,68,0,228
1,note_on,63,0,0
1,note_on,72,0,12
1,note_on,68,58,0
1,note_on,60,26,240
1,note_on,63,26,0
1,note_on,63,0,228
1,note_on,60,0,0
1,note_on,68,0,12
1,note_on,68,59,0
1,note_on,63,26,240
1,note_on,60,26,0
1,note_on,60,0,228
1,note_on,63,0,0
1,note_on,68,0,12
1,note_on,69,61,0
1,note_on,60,26,240
1,note_on,63,26,0
1,note_on,63,0,228
1,note_on,60,0,0
1,note_on,60,26,12
1,note_on,63,26,0
1,note_on,63,0,228
1,note_on,60,0,0
1,note_on,60,26,12
1,note_on,63,26,0
1,note_on,63,0,228
1,note_on,60,0,0
1,note_on,60,26,12
1,note_on,63,26,0
1,note_on,63,0,228
1,note_on,60,0,0
1,note_on,60,26,12
1,note_on,63,26,0
1,note_on,63,0,228
1,note_on,60,0,0
1,note_on,69,0,12
1,note_on,68,60,0
1,note_on,60,26,240
1,note_on,63,26,0
1,note_on,63,0,228
1,note_on,60,0,0
1,note_on,68,0,12
1,note_on,66,56,0
1,note_on,60,34,240
1,note_on,63,26,0
1,note_on,63,0,240
1,note_on,60,0,0
1,note_on,66,0,0
1,note_on,64,70,0
1,note_on,56,26,240
1,note_on,61,26,0
1,note_on,61,0,228
1,note_on,56,0,0
1,note_on,64,0,12
1,note_on,68,64,0
1,note_on,64,29,240
1,note_on,61,29,0
1,note_on,61,0,228
1,note_on,64,0,0
1,note_on,68,0,12
1,note_on,73,68,0
1,note_on,64,31,240
1,note_on,68,31,0
1,note_on,68,0,228
1,note_on,64,0,0
1,note_on,73,0,12
1,note_on,76,77,0
1,note_on,68,34,240
1,note_on,73,34,0
1,note_on,73,0,228
1,note_on,68,0,0
1,note_on,76,0,12
1,note_on,80,75,0
1,note_on,73,37,240
1,note_on,76,37,0
1,note_on,76,0,228
1,note_on,73,0,0
1,note_on,80,0,12
1,note_on,85,79,0
1,note_on,76,39,240
1,note_on,80,39,0
1,note_on,80,0,228
1,note_on,76,0,0
1,note_on,85,0,12
1,note_on,87,99,0
1,note_on,75,51,240
1,note_on,79,51,0
1,note_on,79,0,228
1,note_on,75,0,0
1,note_on,87,0,12
1,note_on,88,96,0
1,note_on,79,45,240
1,note_on,76,45,0
1,note_on,76,0,228
1,note_on,79,0,0
1,note_on,79,40,12
1,note_on,76,40,0
1,note_on,76,0,228
1,note_on,79,0,0
1,note_on,79,39,12
1,note_on,76,39,0
1,note_on,76,0,228
1,note_on,79,0,0
1,note_on,79,37,12
1,note_on,76,37,0
1,note_on,76,0,228
1,note_on,79,0,0
1,note_on,76,37,12
1,note_on,79,37,0
1,note_on,79,0,228
1,note_on,76,0,0
1,note_on,88,0,12
1,note_on,87,88,0
1,note_on,75,31,240
1,note_on,79,31,0
1,note_on,79,0,228
1,note_on,75,0,0
1,note_on,87,0,12
1,note_on,85,81,0
1,note_on,73,28,240
1,note_on,79,28,0
1,note_on,79,0,240
1,note_on,73,0,0
1,note_on,85,0,0
1,note_on,85,71,0
1,note_on,73,23,240
1,note_on,76,23,0
1,note_on,80,27,0
1,note_on,80,0,228
1,note_on,76,0,0
1,note_on,73,0,0
1,note_on,73,23,12
1,note_on,76,23,0
1,note_on,80,27,0
1,note_on,80,0,228
1,note_on,76,0,0
1,note_on,73,0,0
1,note_on,73,23,12
1,note_on,76,23,0
1,note_on,80,27,0
1,note_on,80,0,228
1,note_on,76,0,0
1,note_on,73,0,0
1,note_on,73,23,12
1,note_on,76,23,0
1,note_on,80,27,0
1,note_on,80,0,228
1,note_on,76,0,0
1,note_on,73,0,0
1,note_on,73,20,12
1,note_on,76,20,0
1,note_on,80,25,0
1,note_on,80,0,228
1,note_on,76,0,0
1,note_on,73,0,0
1,note_on,85,0,12
1,note_on,80,60,0
1,note_on,72,22,240
1,note_on,75,22,0
1,note_on,75,0,228
1,note_on,72,0,0
1,note_on,72,20,12
1,note_on,75,20,0
1,note_on,75,0,228
1,note_on,72,0,0
1,note_on,72,20,12
1,note_on,75,20,0
1,note_on,75,0,228
1,note_on,72,0,0
1,note_on,72,20,12
1,note_on,75,20,0
1,note_on,75,0,228
1,note_on,72,0,0
1,note_on,72,20,12
1,note_on,75,20,0
1,note_on,75,0,228
1,note_on,72,0,0
1,note_on,80,0,12
1,note_on,68,48,0
1,note_on,65,27,224
1,note_on,56,27,0
1,note_on,56,0,228
1,note_on,65,0,0
1,note_on,65,26,12
1,note_on,56,26,0
1,note_on,56,0,228
1,note_on,65,0,0
1,note_on,65,26,12
1,note_on,56,26,0
1,note_on,56,0,228
1,note_on,65,0,0
1,note_on,65,26,12
1,note_on,56,26,0
1,note_on,56,0,228
1,note_on,65,0,0
1,note_on,65,26,12
1,note_on,56,26,0
1,note_on,56,0,240
1,note_on,65,0,0
1,note_on,68,0,0
1,note_on,68,45,0
1,note_on,65,26,240
1,note_on,56,26,0
1,note_on,56,0,228
1,note_on,65,0,0
1,note_on,68,0,12
1,note_on,70,52,0
1,note_on,58,27,240
1,note_on,65,27,0
1,note_on,65,0,228
1,note_on,58,0,0
1,note_on,70,0,12
1,note_on,68,45,0
1,note_on,65,26,240
1,note_on,56,26,0
1,note_on,56,0,228
1,note_on,65,0,12
1,note_on,68,0,0
1,note_on,70,57,0
1,note_on,56,26,240
1,note_on,66,26,0
1,note_on,66,0,228
1,note_on,56,0,0
1,note_on,56,26,12
1,note_on,66,26,0
1,note_on,66,0,228
1,note_on,56,0,0
1,note_on,56,26,12
1,note_on,66,26,0
1,note_on,66,0,228
1,note_on,56,0,0
1,note_on,56,26,12
1,note_on,66,26,0
1,note_on,66,0,228
1,note_on,56,0,0
1,note_on,56,26,12
1,note_on,66,26,0
1,note_on,66,0,228
1,note_on,56,0,0
1,note_on,70,0,12
1,note_on,68,50,0
1,note_on,56,28,240
1,note_on,66,28,0
1,note_on,66,0,228
1,note_on,56,0,0
1,note_on,56,29,12
1,note_on,66,29,0
1,note_on,66,0,228
1,note_on,56,0,0
1,note_on,56,29,12
1,note_on,66,29,0
1,note_on,66,0,228
1,note_on,56,0,0
1,note_on,56,29,12
1,note_on,66,29,0
1,note_on,66,0,228
1,note_on,56,0,0
1,note_on,56,29,12
1,note_on,66,29,0
1,note_on,66,0,228
1,note_on,56,0,0
1,note_on,68,0,12
1,note_on,68,52,0
1,note_on,65,26,240
1,note_on,56,26,0
1,note_on,56,0,228
1,note_on,65,0,0
1,note_on,65,26,12
1,note_on,56,26,0
1,note_on,56,0,228
1,note_on,65,0,0
1,note_on,65,26,12
1,note_on,56,26,0
1,note_on,56,0,228
1,note_on,65,0,0
1,note_on,65,26,12
1,note_on,56,26,0
1,note_on,56,0,228
1,note_on,65,0,0
1,note_on,65,27,12
1,note_on,56,27,0
1,note_on,56,0,228
1,note_on,65,0,0
1,note_on,68,0,12
1,note_on,77,64,0
1,note_on,65,28,240
1,note_on,68,28,0
1,note_on,68,0,228
1,note_on,65,0,0
1,note_on,77,0,12
1,note_on,75,59,0
1,note_on,63,27,240
1,note_on,68,27,0
1,note_on,68,0,228
1,note_on,63,0,0
1,note_on,75,0,12
1,note_on,73,60,0
1,note_on,61,27,240
1,note_on,68,27,0
1,note_on,68,0,228
1,note_on,61,0,0
1,note_on,73,0,12
1,note_on,73,60,0
1,note_on,61,27,240
1,note_on,68,27,0
1,note_on,68,0,228
1,note_on,61,0,0
1,note_on,61,27,12
1,note_on,68,27,0
1,note_on,68,0,228
1,note_on,61,0,0
1,note_on,61,27,12
1,note_on,68,27,0
1,note_on,68,0,228
1,note_on,61,0,0
1,note_on,61,27,12
1,note_on,68,27,0
1,note_on,68,0,228
1,note_on,61,0,0
1,note_on,61,27,12
1,note_on,68,27,0
1,note_on,68,0,228
1,note_on,61,0,0
1,note_on,73,0,12
1,note_on,72,61,0
1,note_on,60,27,240
1,note_on,68,27,0
1,note_on,68,0,228
1,note_on,60,0,0
1,note_on,60,27,12
1,note_on,68,27,0
1,note_on,68,0,228
1,note_on,60,0,0
1,note_on,60,27,12
1,note_on,68,27,0
1,note_on,68,0,228
1,note_on,60,0,0
1,note_on,60,27,12
1,note_on,68,27,0
1,note_on,68,0,228
1,note_on,60,0,0
1,note_on,60,27,12
1,note_on,68,27,0
1,note_on,68,0,228
1,note_on,60,0,0
1,note_on,72,0,12
1,note_on,72,58,0
1,note_on,60,35,240
1,note_on,69,35,0
1,note_on,69,0,228
1,note_on,60,0,0
1,note_on,72,0,12
1,note_on,73,68,0
1,note_on,61,35,240
1,note_on,69,35,0
1,note_on,69,0,228
1,note_on,61,0,0
1,note_on,61,35,12
1,note_on,69,35,0
1,note_on,69,0,228
1,note_on,61,0,0
1,note_on,61,35,12
1,note_on,69,35,0
1,note_on,69,0,228
1,note_on,61,0,0
1,note_on,61,35,12
1,note_on,69,35,0
1,note_on,69,0,228
1,note_on,61,0,0
1,note_on,61,35,12
1,note_on,69,35,0
1,note_on,69,0,228
1,note_on,61,0,0
1,note_on,73,0,12
1,note_on,73,70,0
1,note_on,61,35,240
1,note_on,69,35,0
1,note_on,69,0,240
1,note_on,61,0,0
1,note_on,73,0,0
1,note_on,73,69,0
1,note_on,61,35,240
1,note_on,69,35,0
1,note_on,69,0,240
1,note_on,61,0,0
1,note_on,73,0,0
1,note_on,73,70,0
1,note_on,61,44,240
1,note_on,68,44,0
1,note_on,68,0,228
1,note_on,61,0,0
1,note_on,73,0,12
1,note_on,74,78,0
1,note_on,62,44,240
1,note_on,68,44,0
1,note_on,68,0,228
1,note_on,62,0,0
1,note_on,62,44,12
1,note_on,68,44,0
1,note_on,68,0,228
1,note_on,62,0,0
1,note_on,62,44,12
1,note_on,68,44,0
1,note_on,68,0,228
1,note_on,62,0,0
1,note_on,62,44,12
1,note_on,68,44,0
1,note_on,68,0,228
1,note_on,62,0,0
1,note_on,62,44,12
1,note_on,68,44,0
1,note_on,68,0,228
1,note_on,62,0,0
1,note_on,74,0,12
1,note_on,74,75,0
1,note_on,62,44,240
1,note_on,68,44,0
1,note_on,68,0,240
1,note_on,62,0,0
1,note_on,74,0,0
1,note_on,74,75,0
1,note_on,62,44,240
1,note_on,68,44,0
1,note_on,68,0,240
1,note_on,62,0,0
1,note_on,74,0,0
1,note_on,77,84,0
1,note_on,65,46,240
1,note_on,74,46,0
1,note_on,74,0,228
1,note_on,65,0,0
1,note_on,77,0,12
1,note_on,78,88,0
1,note_on,66,48,240
1,note_on,74,48,0
1,note_on,74,0,228
1,note_on,66,0,0
1,note_on,66,47,12
1,note_on,74,47,0
1,note_on,74,0,228
1,note_on,66,0,0
1,note_on,66,47,12
1,note_on,74,47,0
1,note_on,74,0,228
1,note_on,66,0,0
1,note_on,66,47,12
1,note_on,74,47,0
1,note_on,74,0,228
1,note_on,66,0,0
1,note_on,66,47,12
1,note_on,74,47,0
1,note_on,74,0,228
1,note_on,66,0,0
1,note_on,78,0,12
1,note_on,78,86,0
1,note_on,66,48,240
1,note_on,74,48,0
1,note_on,74,0,240
1,note_on,66,0,0
1,note_on,78,0,0
1,note_on,78,86,0
1,note_on,66,47,240
1,note_on,74,47,0
1,note_on,74,0,240
1,note_on,66,0,0
1,note_on,78,0,0
1,note_on,78,86,0
1,note_on,66,47,240
1,note_on,73,47,0
1,note_on,73,0,240
1,note_on,66,0,0
1,note_on,78,0,0
1,note_on,79,96,0
1,note_on,67,49,240
1,note_on,73,49,0
1,note_on,73,0,228
1,note_on,67,0,0
1,note_on,67,49,12
1,note_on,73,49,0
1,note_on,73,0,228
1,note_on,67,0,0
1,note_on,67,49,12
1,note_on,73,49,0
1,note_on,73,0,228
1,note_on,67,0,0
1,note_on,67,49,12
1,note_on,73,49,0
1,note_on,73,0,228
1,note_on,67,0,0
1,note_on,67,49,12
1,note_on,73,49,0
1,note_on,73,0,228
1,note_on,67,0,0
1,note_on,79,0,12
1,note_on,79,93,0
1,note_on,67,48,240
1,note_on,73,48,0
1,note_on,73,0,240
1,note_on,67,0,0
1,note_on,79,0,0
1,note_on,79,96,0
1,note_on,67,50,240
1,note_on,73,50,0
1,note_on,73,0,240
1,note_on,67,0,0
1,note_on,79,0,0
1,note_on,81,98,0
1,note_on,73,51,240
1,note_on,69,51,0
1,note_on,69,0,228
1,note_on,73,0,0
1,note_on,81,0,12
1,note_on,80,95,0
1,note_on,68,51,240
1,note_on,73,51,0
1,note_on,73,0,228
1,note_on,68,0,0
1,note_on,68,44,12
1,note_on,73,44,0
1,note_on,73,0,228
1,note_on,68,0,0
1,note_on,68,51,12
1,note_on,73,51,0
1,note_on,73,0,228
1,note_on,68,0,0
1,note_on,80,0,12
1,note_on,81,97,0
1,note_on,69,52,240
1,note_on,72,52,0
1,note_on,72,0,228
1,note_on,69,0,0
1,note_on,81,0,12
1,note_on,80,93,0
1,note_on,68,52,240
1,note_on,72,52,0
1,note_on,72,0,228
1,note_on,68,0,0
1,note_on,68,52,12
1,note_on,72,52,0
1,note_on,72,0,228
1,note_on,68,0,0
1,note_on,68,52,12
1,note_on,72,52,0
1,note_on,72,0,228
1,note_on,68,0,0
1,note_on,80,0,12
1,note_on,73,86,0
1,note_on,68,44,240
1,note_on,61,44,0
1,note_on,64,44,0
1,note_on,64,0,228
1,note_on,61,0,0
1,note_on,68,0,0
1,note_on,68,44,12
1,note_on,61,44,0
1,note_on,64,44,0
1,note_on,64,0,228
1,note_on,61,0,0
1,note_on,68,0,0
1,note_on,68,44,12
1,note_on,61,44,0
1,note_on,64,44,0
1,note_on,64,0,228
1,note_on,61,0,0
1,note_on,68,0,0
1,note_on,68,44,12
1,note_on,61,44,0
1,note_on,64,44,0
1,note_on,64,0,228
1,note_on,61,0,0
1,note_on,68,0,0
1,note_on,68,44,12
1,note_on,61,44,0
1,note_on,64,44,0
1,note_on,64,0,228
1,note_on,61,0,0
1,note_on,68,0,0
1,note_on,68,44,12
1,note_on,61,44,0
1,note_on,64,44,0
1,note_on,64,0,228
1,note_on,61,0,0
1,note_on,68,0,0
1,note_on,68,44,12
1,note_on,61,44,0
1,note_on,64,44,0
1,note_on,64,0,228
1,note_on,61,0,0
1,note_on,68,0,0
1,note_on,73,0,12
1,note_on,68,48,0
1,note_on,61,26,240
1,note_on,64,26,0
1,note_on,64,0,228
1,note_on,61,0,0
1,note_on,68,0,12
1,note_on,68,42,0
1,note_on,61,26,240
1,note_on,64,26,0
1,note_on,64,0,228
1,note_on,61,0,0
1,note_on,68,0,12
1,note_on,68,59,0
1,note_on,63,26,240
1,note_on,60,26,0
1,note_on,60,0,228
1,note_on,63,0,0
1,note_on,68,0,12
1,note_on,69,61,0
1,note_on,60,26,240
1,note_on,63,26,0
1,note_on,63,0,228
1,note_on,60,0,0
1,note_on,60,26,12
1,note_on,63,26,0
1,note_on,63,0,228
1,note_on,60,0,0
1,note_on,60,26,12
1,note_on,63,26,0
1,note_on,63,0,228
1,note_on,60,0,0
1,note_on,60,26,12
1,note_on,63,26,0
1,note_on,63,0,228
1,note_on,60,0,0
1,note_on,60,26,12
1,note_on,63,26,0
1,note_on,63,0,228
1,note_on,60,0,0
1,note_on,69,0,12
1,note_on,68,60,0
1,note_on,60,26,240
1,note_on,63,26,0
1,note_on,63,0,228
1,note_on,60,0,0
1,note_on,68,0,12
1,note_on,66,56,0
1,note_on,60,34,240
1,note_on,63,26,0
1,note_on,63,0,228
1,note_on,60,0,0
1,note_on,66,0,12
1,note_on,64,69,0
1,note_on,56,26,240
1,note_on,61,26,0
1,note_on,61,0,228
1,note_on,56,0,0
1,note_on,64,0,12
1,note_on,68,64,0
1,note_on,64,29,240
1,note_on,61,29,0
1,note_on,61,0,228
1,note_on,64,0,0
1,note_on,68,0,12
1,note_on,73,68,0
1,note_on,64,31,240
1,note_on,68,31,0
1,note_on,68,0,228
1,note_on,64,0,0
1,note_on,73,0,12
1,note_on,76,77,0
1,note_on,68,34,240
1,note_on,73,34,0
1,note_on,73,0,228
1,note_on,68,0,0
1,note_on,76,0,12
1,note_on,80,75,0
1,note_on,73,37,240
1,note_on,76,37,0
1,note_on,76,0,228
1,note_on,73,0,0
1,note_on,80,0,12
1,note_on,85,79,0
1,note_on,76,39,240
1,note_on,80,39,0
1,note_on,80,0,228
1,note_on,76,0,0
1,note_on,85,0,12
1,note_on,87,99,0
1,note_on,75,51,240
1,note_on,79,51,0
1,note_on,79,0,228
1,note_on,75,0,0
1,note_on,87,0,12
1,note_on,88,96,0
1,note_on,79,45,240
1,note_on,76,45,0
1,note_on,76,0,228
1,note_on,79,0,0
1,note_on,79,40,12
1,note_on,76,40,0
1,note_on,76,0,228
1,note_on,79,0,0
1,note_on,79,39,12
1,note_on,76,39,0
1,note_on,76,0,228
1,note_on,79,0,0
1,note_on,79,37,12
1,note_on,76,37,0
1,note_on,76,0,228
1,note_on,79,0,0
1,note_on,76,37,12
1,note_on,79,37,0
1,note_on,79,0,228
1,note_on,76,0,0
1,note_on,88,0,12
1,note_on,87,88,0
1,note_on,75,31,240
1,note_on,79,31,0
1,note_on,79,0,228
1,note_on,75,0,0
1,note_on,87,0,12
1,note_on,85,81,0
1,note_on,73,28,240
1,note_on,79,28,0
1,note_on,79,0,228
1,note_on,73,0,0
1,note_on,85,0,12
1,note_on,85,68,0
1,note_on,75,26,240
1,note_on,80,26,0
1,note_on,80,0,240
1,note_on,75,0,0
1,note_on,85,0,0
1,note_on,84,59,0
1,note_on,75,26,240
1,note_on,80,26,0
1,note_on,80,0,240
1,note_on,75,0,0
1,note_on,84,0,0
1,note_on,80,58,0
1,note_on,72,26,240
1,note_on,75,26,0
1,note_on,75,0,228
1,note_on,72,0,0
1,note_on,80,0,12
1,note_on,75,58,0
1,note_on,68,26,240
1,note_on,72,26,0
1,note_on,72,0,228
1,note_on,68,0,0
1,note_on,75,0,12
1,note_on,72,58,0
1,note_on,63,26,240
1,note_on,68,26,0
1,note_on,68,0,228
1,note_on,63,0,0
1,note_on,72,0,12
1,note_on,68,58,0
1,note_on,60,26,240
1,note_on,63,26,0
1,note_on,63,0,228
1,note_on,60,0,0
1,note_on,68,0,12
1,note_on,68,59,0
1,note_on,63,26,240
1,note_on,60,26,0
1,note_on,60,0,228
1,note_on,63,0,0
1,note_on,68,0,12
1,note_on,69,61,0
1,note_on,60,26,240
1,note_on,63,26,0
1,note_on,63,0,228
1,note_on,60,0,0
1,note_on,60,26,12
1,note_on,63,26,0
1,note_on,63,0,228
1,note_on,60,0,0
1,note_on,60,26,12
1,note_on,63,26,0
1,note_on,63,0,228
1,note_on,60,0,0
1,note_on,60,26,12
1,note_on,63,26,0
1,note_on,63,0,228
1,note_on,60,0,0
1,note_on,60,26,12
1,note_on,63,26,0
1,note_on,63,0,228
1,note_on,60,0,0
1,note_on,69,0,12
1,note_on,68,60,0
1,note_on,60,26,240
1,note_on,63,26,0
1,note_on,63,0,228
1,note_on,60,0,0
1,note_on,68,0,12
1,note_on,66,56,0
1,note_on,60,34,240
1,note_on,63,26,0
1,note_on,63,0,228
1,note_on,60,0,0
1,note_on,66,0,12
1,note_on,64,68,0
1,note_on,56,26,240
1,note_on,61,26,0
1,note_on,61,0,228
1,note_on,56,0,0
1,note_on,64,0,12
1,note_on,68,64,0
1,note_on,64,29,240
1,note_on,61,29,0
1,note_on,61,0,228
1,note_on,64,0,0
1,note_on,68,0,12
1,note_on,73,68,0
1,note_on,64,31,240
1,note_on,68,31,0
1,note_on,68,0,228
1,note_on,64,0,0
1,note_on,73,0,12
1,note_on,76,71,0
1,note_on,68,34,240
1,note_on,73,34,0
1,note_on,73,0,228
1,note_on,68,0,0
1,note_on,76,0,12
1,note_on,80,75,0
1,note_on,73,37,240
1,note_on,76,37,0
1,note_on,76,0,228
1,note_on,73,0,0
1,note_on,80,0,12
1,note_on,85,79,0
1,note_on,76,39,240
1,note_on,80,39,0
1,note_on,80,0,228
1,note_on,76,0,0
1,note_on,85,0,12
1,note_on,87,99,0
1,note_on,75,51,240
1,note_on,79,51,0
1,note_on,79,0,228
1,note_on,75,0,0
1,note_on,87,0,12
1,note_on,88,96,0
1,note_on,79,45,240
1,note_on,76,45,0
1,note_on,76,0,228
1,note_on,79,0,0
1,note_on,79,40,12
1,note_on,76,40,0
1,note_on,76,0,228
1,note_on,79,0,0
1,note_on,79,39,12
1,note_on,76,39,0
1,note_on,76,0,228
1,note_on,79,0,0
1,note_on,79,37,12
1,note_on,76,37,0
1,note_on,76,0,228
1,note_on,79,0,0
1,note_on,76,37,12
1,note_on,79,37,0
1,note_on,79,0,228
1,note_on,76,0,0
1,note_on,88,0,12
1,note_on,87,88,0
1,note_on,75,31,240
1,note_on,79,31,0
1,note_on,79,0,228
1,note_on,75,0,0
1,note_on,87,0,12
1,note_on,85,81,0
1,note_on,73,28,240
1,note_on,79,28,0
1,note_on,79,0,228
1,note_on,73,0,0
1,note_on,85,0,12
1,note_on,85,71,0
1,note_on,73,27,240
1,note_on,76,27,0
1,note_on,80,27,0
1,note_on,80,0,228
1,note_on,76,0,0
1,note_on,73,0,0
1,note_on,73,27,12
1,note_on,76,27,0
1,note_on,80,27,0
1,note_on,80,0,228
1,note_on,76,0,0
1,note_on,73,0,0
1,note_on,73,27,12
1,note_on,76,27,0
1,note_on,80,27,0
1,note_on,80,0,228
1,note_on,76,0,0
1,note_on,73,0,0
1,note_on,73,27,12
1,note_on,76,27,0
1,note_on,80,27,0
1,note_on,80,0,228
1,note_on,76,0,0
1,note_on,73,0,0
1,note_on,73,25,12
1,note_on,76,25,0
1,note_on,80,25,0
1,note_on,80,0,228
1,note_on,76,0,0
1,note_on,73,0,0
1,note_on,85,0,12
1,note_on,80,62,0
1,note_on,72,22,240
1,note_on,75,22,0
1,note_on,75,0,228
1,note_on,72,0,0
1,note_on,72,20,12
1,note_on,75,20,0
1,note_on,75,0,228
1,note_on,72,0,0
1,note_on,72,20,12
1,note_on,75,20,0
1,note_on,75,0,228
1,note_on,72,0,0
1,note_on,72,20,12
1,note_on,75,20,0
1,note_on,75,0,228
1,note_on,72,0,0
1,note_on,72,20,12
1,note_on,75,20,0
1,note_on,75,0,228
1,note_on,72,0,0
1,note_on,80,0,12
1,note_on,68,48,0
1,note_on,65,27,224
1,note_on,56,27,0
1,note_on,56,0,228
1,note_on,65,0,0
1,note_on,65,26,12
1,note_on,56,26,0
1,note_on,56,0,228
1,note_on,65,0,0
1,note_on,65,26,12
1,note_on,56,26,0
1,note_on,56,0,228
1,note_on,65,0,0
1,note_on,65,26,12
1,note_on,56,26,0
1,note_on,56,0,228
1,note_on,65,0,0
1,note_on,65,26,12
1,note_on,56,26,0
1,note_on,56,0,228
1,note_on,65,0,0
1,note_on,68,0,12
1,note_on,68,50,0
1,note_on,65,26,240
1,note_on,56,26,0
1,note_on,56,0,228
1,note_on,65,0,0
1,note_on,68,0,12
1,note_on,70,52,0
1,note_on,58,27,240
1,note_on,65,27,0
1,note_on,65,0,228
1,note_on,58,0,0
1,note_on,70,0,12
1,note_on,68,45,0
1,note_on,65,26,240
1,note_on,56,26,0
1,note_on,56,0,228
1,note_on,65,0,0
1,note_on,68,0,12
1,note_on,70,57,0
1,note_on,56,26,240
1,note_on,66,26,0
1,note_on,66,0,228
1,note_on,56,0,0
1,note_on,56,26,12
1,note_on,66,26,0
1,note_on,66,0,228
1,note_on,56,0,0
1,note_on,56,26,12
1,note_on,66,26,0
1,note_on,66,0,228
1,note_on,56,0,0
1,note_on,56,26,12
1,note_on,66,26,0
1,note_on,66,0,228
1,note_on,56,0,0
1,note_on,56,26,12
1,note_on,66,26,0
1,note_on,66,0,240
1,note_on,56,0,0
1,note_on,70,0,0
1,note_on,68,50,0
1,note_on,56,28,240
1,note_on,66,28,0
1,note_on,66,0,228
1,note_on,56,0,0
1,note_on,56,29,12
1,note_on,66,29,0
1,note_on,66,0,228
1,note_on,56,0,0
1,note_on,56,29,12
1,note_on,66,29,0
1,note_on,66,0,228
1,note_on,56,0,0
1,note_on,56,29,12
1,note_on,66,29,0
1,note_on,66,0,228
1,note_on,56,0,0
1,note_on,56,29,12
1,note_on,66,29,0
1,note_on,66,0,228
1,note_on,56,0,0
1,note_on,68,0,12
1,note_on,68,52,0
1,note_on,65,26,240
1,note_on,56,26,0
1,note_on,56,0,228
1,note_on,65,0,0
1,note_on,65,26,12
1,note_on,56,26,0
1,note_on,56,0,228
1,note_on,65,0,0
1,note_on,65,26,12
1,note_on,56,26,0
1,note_on,56,0,228
1,note_on,65,0,0
1,note_on,65,26,12
1,note_on,56,26,0
1,note_on,56,0,228
1,note_on,65,0,0
1,note_on,65,27,12
1,note_on,56,27,0
1,note_on,56,0,240
1,note_on,65,0,0
1,note_on,68,0,0
1,note_on,77,66,0
1,note_on,65,28,240
1,note_on,68,28,0
1,note_on,68,0,228
1,note_on,65,0,0
1,note_on,77,0,12
1,note_on,75,62,0
1,note_on,63,27,240
1,note_on,68,27,0
1,note_on,68,0,228
1,note_on,63,0,0
1,note_on,75,0,12
1,note_on,73,60,0
1,note_on,61,27,240
1,note_on,68,27,0
1,note_on,68,0,228
1,note_on,61,0,0
1,note_on,73,0,12
1,note_on,73,60,0
1,note_on,61,27,240
1,note_on,68,27,0
1,note_on,68,0,228
1,note_on,61,0,0
1,note_on,61,27,12
1,note_on,68,27,0
1,note_on,68,0,228
1,note_on,61,0,0
1,note_on,61,27,12
1,note_on,68,27,0
1,note_on,68,0,228
1,note_on,61,0,0
1,note_on,61,27,12
1,note_on,68,27,0
1,note_on,68,0,228
1,note_on,61,0,0
1,note_on,61,27,12
1,note_on,68,27,0
1,note_on,68,0,228
1,note_on,61,0,0
1,note_on,73,0,12
1,note_on,72,61,0
1,note_on,60,27,240
1,note_on,68,27,0
1,note_on,68,0,228
1,note_on,60,0,0
1,note_on,60,27,12
1,note_on,68,27,0
1,note_on,68,0,228
1,note_on,60,0,0
1,note_on,60,27,12
1,note_on,68,27,0
1,note_on,68,0,228
1,note_on,60,0,0
1,note_on,60,27,12
1,note_on,68,27,0
1,note_on,68,0,228
1,note_on,60,0,0
1,note_on,60,27,12
1,note_on,68,27,0
1,note_on,68,0,228
1,note_on,60,0,0
1,note_on,72,0,12
1,note_on,72,58,0
1,note_on,60,35,240
1,note_on,69,35,0
1,note_on,69,0,228
1,note_on,60,0,0
1,note_on,72,0,12
1,note_on,73,68,0
1,note_on,61,35,240
1,note_on,69,35,0
1,note_on,69,0,228
1,note_on,61,0,0
1,note_on,61,35,12
1,note_on,69,35,0
1,note_on,69,0,228
1,note_on,61,0,0
1,note_on,61,35,12
1,note_on,69,35,0
1,note_on,69,0,228
1,note_on,61,0,0
1,note_on,61,35,12
1,note_on,69,35,0
1,note_on,69,0,228
1,note_on,61,0,0
1,note_on,61,35,12
1,note_on,69,35,0
1,note_on,69,0,228
1,note_on,61,0,0
1,note_on,73,0,12
1,note_on,73,70,0
1,note_on,61,35,240
1,note_on,69,35,0
1,note_on,69,0,240
1,note_on,61,0,0
1,note_on,73,0,0
1,note_on,73,69,0
1,note_on,61,35,240
1,note_on,69,35,0
1,note_on,69,0,240
1,note_on,61,0,0
1,note_on,73,0,0
1,note_on,73,70,0
1,note_on,61,44,240
1,note_on,68,44,0
1,note_on,68,0,228
1,note_on,61,0,0
1,note_on,73,0,12
1,note_on,74,78,0
1,note_on,62,44,240
1,note_on,68,44,0
1,note_on,68,0,228
1,note_on,62,0,0
1,note_on,62,44,12
1,note_on,68,44,0
1,note_on,68,0,228
1,note_on,62,0,0
1,note_on,62,44,12
1,note_on,68,44,0
1,note_on,68,0,228
1,note_on,62,0,0
1,note_on,62,44,12
1,note_on,68,44,0
1,note_on,68,0,228
1,note_on,62,0,0
1,note_on,62,44,12
1,note_on,68,44,0
1,note_on,68,0,228
1,note_on,62,0,0
1,note_on,74,0,12
1,note_on,74,75,0
1,note_on,62,44,240
1,note_on,68,44,0
1,note_on,68,0,240
1,note_on,62,0,0
1,note_on,74,0,0
1,note_on,74,75,0
1,note_on,62,44,240
1,note_on,68,44,0
1,note_on,68,0,240
1,note_on,62,0,0
1,note_on,74,0,0
1,note_on,77,84,0
1,note_on,65,46,240
1,note_on,74,46,0
1,note_on,74,0,228
1,note_on,65,0,0
1,note_on,77,0,12
1,note_on,78,88,0
1,note_on,66,48,240
1,note_on,74,48,0
1,note_on,74,0,228
1,note_on,66,0,0
1,note_on,66,47,12
1,note_on,74,47,0
1,note_on,74,0,228
1,note_on,66,0,0
1,note_on,66,47,12
1,note_on,74,47,0
1,note_on,74,0,228
1,note_on,66,0,0
1,note_on,66,47,12
1,note_on,74,47,0
1,note_on,74,0,228
1,note_on,66,0,0
1,note_on,66,47,12
1,note_on,74,47,0
1,note_on,74,0,228
1,note_on,66,0,0
1,note_on,78,0,12
1,note_on,78,86,0
1,note_on,66,48,240
1,note_on,74,48,0
1,note_on,74,0,240
1,note_on,66,0,0
1,note_on,78,0,0
1,note_on,78,86,0
1,note_on,66,47,240
1,note_on,74,47,0
1,note_on,74,0,240
1,note_on,66,0,0
1,note_on,78,0,0
1,note_on,78,86,0
1,note_on,66,47,240
1,note_on,73,47,0
1,note_on,73,0,240
1,note_on,66,0,0
1,note_on,78,0,0
1,note_on,79,96,0
1,note_on,67,49,240
1,note_on,73,49,0
1,note_on,73,0,228
1,note_on,67,0,0
1,note_on,67,49,12
1,note_on,73,49,0
1,note_on,73,0,228
1,note_on,67,0,0
1,note_on,67,49,12
1,note_on,73,49,0
1,note_on,73,0,228
1,note_on,67,0,0
1,note_on,67,49,12
1,note_on,73,49,0
1,note_on,73,0,228
1,note_on,67,0,0
1,note_on,67,49,12
1,note_on,73,49,0
1,note_on,73,0,228
1,note_on,67,0,0
1,note_on,79,0,12
1,note_on,79,94,0
1,note_on,67,48,240
1,note_on,73,48,0
1,note_on,73,0,240
1,note_on,67,0,0
1,note_on,79,0,0
1,note_on,79,97,0
1,note_on,67,50,240
1,note_on,73,50,0
1,note_on,73,0,240
1,note_on,67,0,0
1,note_on,79,0,0
1,note_on,81,99,0
1,note_on,73,51,240
1,note_on,69,51,0
1,note_on,69,0,228
1,note_on,73,0,0
1,note_on,81,0,12
1,note_on,80,96,0
1,note_on,68,51,240
1,note_on,73,51,0
1,note_on,73,0,228
1,note_on,68,0,0
1,note_on,68,44,12
1,note_on,73,44,0
1,note_on,73,0,228
1,note_on,68,0,0
1,note_on,68,51,12
1,note_on,73,51,0
1,note_on,73,0,228
1,note_on,68,0,0
1,note_on,80,0,12
1,note_on,81,99,0
1,note_on,69,52,240
1,note_on,72,52,0
1,note_on,72,0,228
1,note_on,69,0,0
1,note_on,81,0,12
1,note_on,80,95,0
1,note_on,68,52,240
1,note_on,72,52,0
1,note_on,72,0,228
1,note_on,68,0,0
1,note_on,68,52,12
1,note_on,72,52,0
1,note_on,72,0,228
1,note_on,68,0,0
1,note_on,68,52,12
1,note_on,72,52,0
1,note_on,72,0,228
1,note_on,68,0,0
1,note_on,80,0,12
1,note_on,73,86,0
1,note_on,68,44,240
1,note_on,61,44,0
1,note_on,64,44,0
1,note_on,64,0,228
1,note_on,61,0,0
1,note_on,68,0,0
1,note_on,68,44,12
1,note_on,61,44,0
1,note_on,64,44,0
1,note_on,64,0,228
1,note_on,61,0,0
1,note_on,68,0,0
1,note_on,68,44,12
1,note_on,61,44,0
1,note_on,64,44,0
1,note_on,64,0,228
1,note_on,61,0,0
1,note_on,68,0,0
1,note_on,68,44,12
1,note_on,61,44,0
1,note_on,64,44,0
1,note_on,64,0,228
1,note_on,61,0,0
1,note_on,68,0,0
1,note_on,68,44,12
1,note_on,61,44,0
1,note_on,64,44,0
1,note_on,64,0,228
1,note_on,61,0,0
1,note_on,68,0,0
1,note_on,68,44,12
1,note_on,61,44,0
1,note_on,64,44,0
1,note_on,64,0,228
1,note_on,61,0,0
1,note_on,68,0,0
1,note_on,68,44,12
1,note_on,61,44,0
1,note_on,64,44,0
1,note_on,64,0,228
1,note_on,61,0,0
1,note_on,68,0,0
1,note_on,73,0,12
1,note_on,68,48,0
1,note_on,61,26,240
1,note_on,64,26,0
1,note_on,64,0,228
1,note_on,61,0,0
1,note_on,68,0,12
1,note_on,68,42,0
1,note_on,61,26,240
1,note_on,64,26,0
1,note_on,64,0,228
1,note_on,61,0,0
1,note_on,68,0,12
1,note_on,68,42,0
1,note_on,61,26,240
1,note_on,64,26,0
1,note_on,64,0,228
1,note_on,61,0,0
1,note_on,61,26,12
1,note_on,64,26,0
1,note_on,64,0,228
1,note_on,61,0,0
1,note_on,61,26,12
1,note_on,64,26,0
1,note_on,64,0,228
1,note_on,61,0,0
1,note_on,61,26,12
1,note_on,64,26,0
1,note_on,64,0,228
1,note_on,61,0,0
1,note_on,61,26,12
1,note_on,64,26,0
1,note_on,64,0,228
1,note_on,61,0,0
1,note_on,61,26,12
1,note_on,64,26,0
1,note_on,64,0,228
1,note_on,61,0,0
1,note_on,61,26,12
1,note_on,64,26,0
1,note_on,64,0,228
1,note_on,61,0,0
1,note_on,68,0,12
1,note_on,68,42,0
1,note_on,61,26,240
1,note_on,64,26,0
1,note_on,64,0,228
1,note_on,61,0,0
1,note_on,68,0,12
1,note_on,70,42,0
1,note_on,61,26,240
1,note_on,64,26,0
1,note_on,64,0,228
1,note_on,61,0,0
1,note_on,70,0,12
1,note_on,68,37,0
1,note_on,58,26,240
1,note_on,61,26,0
1,note_on,61,0,228
1,note_on,58,0,0
1,note_on,58,26,12
1,note_on,61,26,0
1,note_on,61,0,228
1,note_on,58,0,0
1,note_on,58,25,12
1,note_on,61,25,0
1,note_on,61,0,228
1,note_on,58,0,0
1,note_on,58,25,12
1,note_on,61,25,0
1,note_on,61,0,228
1,note_on,58,0,0
1,note_on,58,24,12
1,note_on,61,24,0
1,note_on,61,0,228
1,note_on,58,0,0
1,note_on,58,24,12
1,note_on,61,24,0
1,note_on,61,0,228
1,note_on,58,0,0
1,note_on,58,24,12
1,note_on,61,24,0
1,note_on,61,0,228
1,note_on,58,0,0
1,note_on,58,23,12
1,note_on,61,23,0
1,note_on,61,0,228
1,note_on,58,0,0
1,note_on,58,23,12
1,note_on,61,23,0
1,note_on,61,0,228
1,note_on,58,0,0
1,note_on,58,22,12
1,note_on,61,22,0
1,note_on,61,0,228
1,note_on,58,0,0
1,note_on,58,22,12
1,note_on,61,22,0
1,note_on,61,0,228
1,note_on,58,0,0
1,note_on,68,0,12
1,note_on,67,31,0
1,note_on,58,22,240
1,note_on,61,22,0
1,note_on,61,0,228
1,note_on,58,0,0
1,note_on,58,22,12
1,note_on,61,22,0
1,note_on,61,0,228
1,note_on,58,0,0
1,note_on,58,20,12
1,note_on,61,20,0
1,note_on,61,0,228
1,note_on,58,0,0
1,note_on,58,20,12
1,note_on,61,20,0
1,note_on,61,0,228
1,note_on,58,0,0
1,note_on,58,19,12
1,note_on,61,19,0
1,note_on,61,0,228
1,note_on,58,0,0
1,note_on,58,19,12
1,note_on,61,19,0
1,note_on,61,0,228
1,note_on,58,0,0
1,note_on,58,19,12
1,note_on,61,19,0
1,note_on,61,0,228
1,note_on,58,0,0
1,note_on,58,18,12
1,note_on,61,18,0
1,note_on,61,0,228
1,note_on,58,0,0
1,note_on,58,18,12
1,note_on,61,18,0
1,note_on,61,0,228
1,note_on,58,0,0
1,note_on,58,17,12
1,note_on,61,17,0
1,note_on,61,0,228
1,note_on,58,0,0
1,note_on,58,17,12
1,note_on,61,17,0
1,note_on,61,0,228
1,note_on,58,0,0
1,note_on,67,0,12
1,note_on,67,41,0
1,note_on,67,0,112
1,note_on,70,34,0
1,note_on,70,0,120
1,note_on,67,41,0
1,note_on,67,0,120
1,note_on,64,34,0
1,note_on,64,0,120
1,note_on,70,41,0
1,note_on,70,0,120
1,note_on,73,34,0
1,note_on,73,0,120
1,note_on,70,41,0
1,note_on,70,0,120
1,note_on,67,34,0
1,note_on,67,0,120
1,note_on,73,41,0
1,note_on,73,0,120
1,note_on,76,34,0
1,note_on,76,0,120
1,note_on,73,41,0
1,note_on,73,0,120
1,note_on,70,34,0
1,note_on,70,0,120
1,note_on,76,40,0
1,note_on,76,0,120
1,note_on,79,36,0
1,note_on,79,0,120
1,note_on,76,46,0
1,note_on,76,0,120
1,note_on,73,42,0
1,note_on,73,0,120
1,note_on,79,53,0
1,note_on,79,0,120
1,note_on,82,47,0
1,note_on,82,0,120
1,note_on,79,60,0
1,note_on,79,0,120
1,note_on,76,53,0
1,note_on,76,0,120
1,note_on,82,66,0
1,note_on,82,0,120
1,note_on,85,59,0
1,note_on,85,0,120
1,note_on,82,73,0
1,note_on,82,0,120
1,note_on,79,64,0
1,note_on,79,0,120
1,note_on,85,80,0
1,note_on,85,0,120
1,note_on,88,68,0
1,note_on,88,0,120
1,note_on,85,79,0
1,note_on,85,0,120
1,note_on,82,66,0
1,note_on,82,0,120
1,note_on,85,77,0
1,note_on,85,0,120
1,note_on,88,64,0
1,note_on,88,0,120
1,note_on,85,75,0
1,note_on,85,0,120
1,note_on,82,63,0
1,note_on,82,0,120
1,note_on,85,74,0
1,note_on,85,0,120
1,note_on,88,62,0
1,note_on,88,0,120
1,note_on,85,72,0
1,note_on,85,0,120
1,note_on,82,60,0
1,note_on,82,0,120
1,note_on,85,70,0
1,note_on,85,0,120
1,note_on,88,59,0
1,note_on,88,0,120
1,note_on,85,69,0
1,note_on,85,0,120
1,note_on,82,57,0
1,note_on,82,0,120
1,note_on,85,67,0
1,note_on,85,0,120
1,note_on,88,56,0
1,note_on,88,0,120
1,note_on,85,65,0
1,note_on,85,0,120
1,note_on,82,55,0
1,note_on,82,0,120
1,note_on,85,64,0
1,note_on,85,0,120
1,note_on,88,53,0
1,note_on,88,0,120
1,note_on,85,62,0
1,note_on,85,0,120
1,note_on,82,51,0
1,note_on,82,0,120
1,note_on,85,60,0
1,note_on,85,0,120
1,note_on,87,51,0
1,note_on,87,0,120
1,note_on,85,59,0
1,note_on,85,0,120
1,note_on,82,49,0
1,note_on,82,0,120
1,note_on,85,57,0
1,note_on,85,0,120
1,note_on,87,47,0
1,note_on,87,0,120
1,note_on,85,55,0
1,note_on,85,0,120
1,note_on,82,46,0
1,note_on,82,0,120
1,note_on,85,54,0
1,note_on,85,0,120
1,note_on,87,45,0
1,note_on,87,0,120
1,note_on,85,52,0
1,note_on,85,0,120
1,note_on,82,43,0
1,note_on,82,0,120
1,note_on,85,50,0
1,note_on,85,0,120
1,note_on,87,42,0
1,note_on,87,0,120
1,note_on,85,49,0
1,note_on,85,0,120
1,note_on,82,40,0
1,note_on,82,0,120
1,note_on,85,47,0
1,note_on,85,0,120
1,note_on,87,39,0
1,note_on,87,0,120
1,note_on,85,45,0
1,note_on,85,0,120
1,note_on,82,38,0
1,note_on,82,0,120
1,note_on,85,44,0
1,note_on,85,0,120
1,note_on,87,36,0
1,note_on,87,0,120
1,note_on,85,42,0
1,note_on,85,0,120
1,note_on,82,34,0
1,note_on,82,0,120
1,note_on,83,40,0
1,note_on,83,0,120
1,note_on,87,34,0
1,note_on,87,0,120
1,note_on,83,40,0
1,note_on,83,0,120
1,note_on,80,34,0
1,note_on,80,0,90
1,note_on,80,40,30
1,note_on,80,0,120
1,note_on,83,34,0
1,note_on,83,0,120
1,note_on,80,40,0
1,note_on,80,0,120
1,note_on,75,34,0
1,note_on,75,0,90
1,note_on,75,40,30
1,note_on,75,0,120
1,note_on,80,34,0
1,note_on,80,0,120
1,note_on,75,40,0
1,note_on,75,0,120
1,note_on,71,34,0
1,note_on,71,0,90
1,note_on,71,40,30
1,note_on,71,0,120
1,note_on,75,34,0
1,note_on,75,0,120
1,note_on,71,40,0
1,note_on,71,0,120
1,note_on,68,34,0
1,note_on,68,0,90
1,note_on,68,40,30
1,note_on,68,0,120
1,note_on,71,34,0
1,note_on,71,0,120
1,note_on,68,40,0
1,note_on,68,0,120
1,note_on,63,34,0
1,note_on,63,0,120
1,note_on,67,30,0
1,note_on,70,36,0
1,note_on,70,0,240
1,note_on,67,0,0
1,note_on,83,40,240
1,note_on,83,0,120
1,note_on,87,34,0
1,note_on,87,0,120
1,note_on,83,40,0
1,note_on,83,0,120
1,note_on,80,34,0
1,note_on,80,0,90
1,note_on,80,40,30
1,note_on,80,0,120
1,note_on,83,34,0
1,note_on,83,0,120
1,note_on,80,40,0
1,note_on,80,0,120
1,note_on,75,34,0
1,note_on,75,0,90
1,note_on,75,40,30
1,note_on,75,0,120
1,note_on,80,34,0
1,note_on,80,0,120
1,note_on,75,40,0
1,note_on,75,0,120
1,note_on,71,34,0
1,note_on,71,0,90
1,note_on,71,40,30
1,note_on,71,0,120
1,note_on,75,34,0
1,note_on,75,0,120
1,note_on,71,40,0
1,note_on,71,0,120
1,note_on,68,34,0
1,note_on,68,0,90
1,note_on,68,40,30
1,note_on,68,0,120
1,note_on,71,34,0
1,note_on,71,0,120
1,note_on,68,40,0
1,note_on,68,0,120
1,note_on,63,34,0
1,note_on,63,0,120
1,note_on,67,30,0
1,note_on,70,36,0
1,note_on,70,0,240
1,note_on,67,0,0
1,note_on,68,31,240
1,note_on,71,31,0
1,note_on,71,0,456
1,note_on,68,0,0
1,note_on,67,31,24
1,note_on,70,31,0
1,note_on,76,31,0
1,note_on,76,0,456
1,note_on,70,0,0
1,note_on,67,0,0
1,note_on,67,36,24
1,note_on,70,36,0
1,note_on,76,36,0
1,note_on,76,0,456
1,note_on,70,0,0
1,note_on,67,0,0
1,note_on,70,37,24
1,note_on,67,37,0
1,note_on,76,37,0
1,note_on,76,0,456
1,note_on,67,0,0
1,note_on,70,0,0
1,note_on,67,31,24
1,note_on,70,31,0
1,note_on,75,31,0
1,note_on,75,0,456
1,note_on,70,0,0
1,note_on,67,0,0
1,note_on,67,31,24
1,note_on,70,31,0
1,note_on,73,31,0
1,note_on,73,0,456
1,note_on,70,0,0
1,note_on,67,0,0
1,note_on,83,40,24
1,note_on,83,0,120
1,note_on,87,34,0
1,note_on,87,0,120
1,note_on,83,40,0
1,note_on,83,0,120
1,note_on,80,34,0
1,note_on,80,0,90
1,note_on,80,40,30
1,note_on,80,0,120
1,note_on,83,34,0
1,note_on,83,0,120
1,note_on,80,40,0
1,note_on,80,0,120
1,note_on,75,34,0
1,note_on,75,0,90
1,note_on,75,40,30
1,note_on,75,0,120
1,note_on,80,34,0
1,note_on,80,0,120
1,note_on,75,40,0
1,note_on,75,0,120
1,note_on,71,34,0
1,note_on,71,0,90
1,note_on,71,40,30
1,note_on,71,0,120
1,note_on,75,34,0
1,note_on,75,0,120
1,note_on,71,40,0
1,note_on,71,0,120
1,note_on,68,34,0
1,note_on,68,0,90
1,note_on,68,40,30
1,note_on,68,0,120
1,note_on,71,34,0
1,note_on,71,0,120
1,note_on,68,40,0
1,note_on,68,0,120
1,note_on,63,34,0
1,note_on,63,0,120
1,note_on,67,30,0
1,note_on,70,36,0
1,note_on,70,0,240
1,note_on,67,0,0
1,note_on,83,40,240
1,note_on,83,0,120
1,note_on,87,34,0
1,note_on,87,0,120
1,note_on,83,40,0
1,note_on,83,0,120
1,note_on,80,34,0
1,note_on,80,0,90
1,note_on,80,40,30
1,note_on,80,0,120
1,note_on,83,34,0
1,note_on,83,0,120
1,note_on,80,40,0
1,note_on,80,0,120
1,note_on,75,34,0
1,note_on,75,0,90
1,note_on,75,40,30
1,note_on,75,0,120
1,note_on,80,34,0
1,note_on,80,0,120
1,note_on,75,40,0
1,note_on,75,0,120
1,note_on,71,34,0
1,note_on,71,0,90
1,note_on,71,40,30
1,note_on,71,0,120
1,note_on,75,34,0
1,note_on,75,0,120
1,note_on,71,40,0
1,note_on,71,0,120
1,note_on,68,34,0
1,note_on,68,0,90
1,note_on,68,40,30
1,note_on,68,0,120
1,note_on,71,34,0
1,note_on,71,0,120
1,note_on,68,40,0
1,note_on,68,0,120
1,note_on,63,34,0
1,note_on,63,0,120
1,note_on,67,30,0
1,note_on,70,36,0
1,note_on,70,0,240
1,note_on,67,0,0
1,note_on,68,31,240
1,note_on,71,31,0
1,note_on,71,0,456
1,note_on,68,0,0
1,note_on,66,31,24
1,note_on,70,31,0
1,note_on,76,31,0
1,note_on,76,0,456
1,note_on,70,0,0
1,note_on,66,0,0
1,note_on,66,36,24
1,note_on,70,36,0
1,note_on,76,36,0
1,note_on,76,0,456
1,note_on,70,0,0
1,note_on,66,0,0
1,note_on,66,37,24
1,note_on,70,37,0
1,note_on,76,37,0
1,note_on,76,0,456
1,note_on,70,0,0
1,note_on,66,0,0
1,note_on,66,31,24
1,note_on,70,31,0
1,note_on,75,31,0
1,note_on,75,0,456
1,note_on,70,0,0
1,note_on,66,0,0
1,note_on,66,31,24
1,note_on,74,31,0
1,note_on,70,31,0
1,note_on,70,0,456
1,note_on,74,0,0
1,note_on,66,0,0
1,note_on,87,50,24
1,note_on,87,0,120
1,note_on,90,42,0
1,note_on,90,0,120
1,note_on,87,50,0
1,note_on,87,0,120
1,note_on,83,42,0
1,note_on,83,0,90
1,note_on,83,50,30
1,note_on,83,0,120
1,note_on,87,42,0
1,note_on,87,0,120
1,note_on,83,50,0
1,note_on,83,0,120
1,note_on,78,42,0
1,note_on,78,0,90
1,note_on,78,50,30
1,note_on,78,0,120
1,note_on,83,42,0
1,note_on,83,0,120
1,note_on,78,50,0
1,note_on,78,0,120
1,note_on,75,42,0
1,note_on,75,0,90
1,note_on,75,50,30
1,note_on,75,0,120
1,note_on,78,42,0
1,note_on,78,0,120
1,note_on,75,50,0
1,note_on,75,0,120
1,note_on,71,42,0
1,note_on,71,0,90
1,note_on,71,50,30
1,note_on,71,0,120
1,note_on,75,42,0
1,note_on,75,0,120
1,note_on,71,50,0
1,note_on,71,0,120
1,note_on,66,42,0
1,note_on,66,0,120
1,note_on,70,37,0
1,note_on,73,45,0
1,note_on,73,0,240
1,note_on,70,0,0
1,note_on,87,50,240
1,note_on,87,0,120
1,note_on,90,42,0
1,note_on,90,0,120
1,note_on,87,50,0
1,note_on,87,0,120
1,note_on,83,42,0
1,note_on,83,0,90
1,note_on,83,50,30
1,note_on,83,0,120
1,note_on,87,42,0
1,note_on,87,0,120
1,note_on,83,50,0
1,note_on,83,0,120
1,note_on,78,42,0
1,note_on,78,0,90
1,note_on,78,50,30
1,note_on,78,0,120
1,note_on,83,42,0
1,note_on,83,0,120
1,note_on,78,50,0
1,note_on,78,0,120
1,note_on,75,42,0
1,note_on,75,0,90
1,note_on,75,50,30
1,note_on,75,0,120
1,note_on,78,42,0
1,note_on,78,0,120
1,note_on,75,50,0
1,note_on,75,0,120
1,note_on,71,42,0
1,note_on,71,0,90
1,note_on,71,50,30
1,note_on,71,0,120
1,note_on,75,42,0
1,note_on,75,0,120
1,note_on,71,50,0
1,note_on,71,0,120
1,note_on,66,42,0
1,note_on,66,0,120
1,note_on,70,37,0
1,note_on,73,45,0
1,note_on,73,0,240
1,note_on,70,0,0
1,note_on,71,41,240
1,note_on,75,41,0
1,note_on,75,0,456
1,note_on,71,0,0
1,note_on,70,47,24
1,note_on,73,47,0
1,note_on,80,47,0
1,note_on,80,0,456
1,note_on,73,0,0
1,note_on,70,0,0
1,note_on,70,48,24
1,note_on,73,48,0
1,note_on,80,48,0
1,note_on,80,0,456
1,note_on,73,0,0
1,note_on,70,0,0
1,note_on,70,49,24
1,note_on,73,49,0
1,note_on,80,49,0
1,note_on,80,0,456
1,note_on,73,0,0
1,note_on,70,0,0
1,note_on,78,39,24
1,note_on,70,39,0
1,note_on,75,39,0
1,note_on,75,0,456
1,note_on,70,0,0
1,note_on,78,0,0
1,note_on,76,39,24
1,note_on,70,39,0
1,note_on,70,0,456
1,note_on,76,0,0
1,note_on,86,50,24
1,note_on,86,0,120
1,note_on,90,42,0
1,note_on,90,0,120
1,note_on,86,50,0
1,note_on,86,0,120
1,note_on,83,42,0
1,note_on,83,0,90
1,note_on,83,50,30
1,note_on,83,0,120
1,note_on,86,42,0
1,note_on,86,0,120
1,note_on,83,50,0
1,note_on,83,0,120
1,note_on,78,42,0
1,note_on,78,0,90
1,note_on,78,50,30
1,note_on,78,0,120
1,note_on,83,42,0
1,note_on,83,0,120
1,note_on,78,50,0
1,note_on,78,0,120
1,note_on,74,42,0
1,note_on,74,0,90
1,note_on,74,50,30
1,note_on,74,0,120
1,note_on,78,42,0
1,note_on,78,0,120
1,note_on,74,50,0
1,note_on,74,0,120
1,note_on,71,42,0
1,note_on,71,0,90
1,note_on,71,50,30
1,note_on,71,0,120
1,note_on,74,42,0
1,note_on,74,0,120
1,note_on,71,50,0
1,note_on,71,0,120
1,note_on,66,42,0
1,note_on,66,0,120
1,note_on,70,37,0
1,note_on,73,45,0
1,note_on,73,0,240
1,note_on,70,0,0
1,note_on,86,50,240
1,note_on,86,0,120
1,note_on,90,42,0
1,note_on,90,0,120
1,note_on,86,50,0
1,note_on,86,0,120
1,note_on,83,42,0
1,note_on,83,0,90
1,note_on,83,50,30
1,note_on,83,0,120
1,note_on,86,42,0
1,note_on,86,0,120
1,note_on,83,50,0
1,note_on,83,0,120
1,note_on,78,42,0
1,note_on,78,0,90
1,note_on,78,50,30
1,note_on,78,0,120
1,note_on,83,42,0
1,note_on,83,0,120
1,note_on,78,50,0
1,note_on,78,0,120
1,note_on,74,42,0
1,note_on,74,0,90
1,note_on,74,50,30
1,note_on,74,0,120
1,note_on,78,42,0
1,note_on,78,0,120
1,note_on,74,50,0
1,note_on,74,0,120
1,note_on,71,42,0
1,note_on,71,0,90
1,note_on,71,50,30
1,note_on,71,0,120
1,note_on,74,42,0
1,note_on,74,0,120
1,note_on,71,50,0
1,note_on,71,0,120
1,note_on,66,42,0
1,note_on,66,0,120
1,note_on,70,37,0
1,note_on,73,45,0
1,note_on,73,0,240
1,note_on,70,0,0
1,note_on,74,41,240
1,note_on,66,41,0
1,note_on,71,41,0
1,note_on,71,0,456
1,note_on,66,0,0
1,note_on,74,0,0
1,note_on,73,50,24
1,note_on,76,50,0
1,note_on,83,50,0
1,note_on,83,0,456
1,note_on,76,0,0
1,note_on,73,0,0
1,note_on,73,48,24
1,note_on,76,48,0
1,note_on,83,48,0
1,note_on,83,0,456
1,note_on,76,0,0
1,note_on,73,0,0
1,note_on,73,46,24
1,note_on,76,46,0
1,note_on,83,46,0
1,note_on,83,0,456
1,note_on,76,0,0
1,note_on,73,0,0
1,note_on,73,44,24
1,note_on,78,44,0
1,note_on,81,44,0
1,note_on,81,0,456
1,note_on,78,0,0
1,note_on,73,0,0
1,note_on,73,42,24
1,note_on,79,42,0
1,note_on,79,0,456
1,note_on,73,0,0
1,note_on,74,38,24
1,note_on,78,38,0
1,note_on,78,0,456
1,note_on,74,0,0
1,note_on,70,46,24
1,note_on,73,46,0
1,note_on,79,46,0
1,note_on,79,0,456
1,note_on,73,0,0
1,note_on,70,0,0
1,note_on,70,46,24
1,note_on,73,46,0
1,note_on,79,46,0
1,note_on,79,0,456
1,note_on,73,0,0
1,note_on,70,0,0
1,note_on,73,46,24
1,note_on,79,46,0
1,note_on,70,46,0
1,note_on,70,0,456
1,note_on,79,0,0
1,note_on,73,0,0
1,note_on,78,44,24
1,note_on,73,44,0
1,note_on,70,44,0
1,note_on,70,0,456
1,note_on,73,0,0
1,note_on,78,0,0
1,note_on,76,42,24
1,note_on,73,42,0
1,note_on,73,0,456
1,note_on,76,0,0
1,note_on,75,41,24
1,note_on,71,41,0
1,note_on,71,0,456
1,note_on,75,0,0
1,note_on,68,49,24
1,note_on,64,49,0
1,note_on,76,49,0
1,note_on,76,0,456
1,note_on,64,0,0
1,note_on,68,0,0
1,note_on,76,49,24
1,note_on,68,49,0
1,note_on,64,49,0
1,note_on,64,0,456
1,note_on,68,0,0
1,note_on,76,0,0
1,note_on,68,49,24
1,note_on,64,49,0
1,note_on,76,49,0
1,note_on,76,0,456
1,note_on,64,0,0
1,note_on,68,0,0
1,note_on,75,49,24
1,note_on,68,49,0
1,note_on,63,49,0
1,note_on,63,0,456
1,note_on,68,0,0
1,note_on,75,0,0
1,note_on,61,47,24
1,note_on,73,47,0
1,note_on,68,47,0
1,note_on,68,0,456
1,note_on,73,0,0
1,note_on,61,0,0
1,note_on,63,48,24
1,note_on,68,48,0
1,note_on,71,48,0
1,note_on,71,0,456
1,note_on,68,0,0
1,note_on,63,0,0
1,note_on,63,48,24
1,note_on,68,48,0
1,note_on,71,48,0
1,note_on,71,0,456
1,note_on,68,0,0
1,note_on,63,0,0
1,note_on,63,48,24
1,note_on,68,48,0
1,note_on,71,48,0
1,note_on,71,0,456
1,note_on,68,0,0
1,note_on,63,0,0
1,note_on,63,33,24
1,note_on,67,33,0
1,note_on,70,33,0
1,note_on,70,0,456
1,note_on,67,0,0
1,note_on,63,0,0
1,note_on,63,34,24
1,note_on,67,34,0
1,note_on,70,34,0
1,note_on,70,0,456
1,note_on,67,0,0
1,note_on,63,0,0
1,note_on,63,34,24
1,note_on,67,34,0
1,note_on,70,34,0
1,note_on,70,0,456
1,note_on,67,0,0
1,note_on,63,0,0
1,note_on,84,40,24
1,note_on,84,0,120
1,note_on,87,34,0
1,note_on,87,0,120
1,note_on,84,40,0
1,note_on,84,0,120
1,note_on,80,34,0
1,note_on,80,0,90
1,note_on,80,40,30
1,note_on,80,0,120
1,note_on,84,34,0
1,note_on,84,0,120
1,note_on,80,40,0
1,note_on,80,0,120
1,note_on,75,34,0
1,note_on,75,0,90
1,note_on,75,40,30
1,note_on,75,0,120
1,note_on,80,34,0
1,note_on,80,0,120
1,note_on,75,40,0
1,note_on,75,0,120
1,note_on,72,34,0
1,note_on,72,0,90
1,note_on,72,40,30
1,note_on,72,0,120
1,note_on,75,34,0
1,note_on,75,0,120
1,note_on,72,40,0
1,note_on,72,0,120
1,note_on,68,34,0
1,note_on,68,0,90
1,note_on,68,40,30
1,note_on,68,0,120
1,note_on,72,34,0
1,note_on,72,0,120
1,note_on,68,40,0
1,note_on,68,0,120
1,note_on,63,34,0
1,note_on,63,0,120
1,note_on,67,30,0
1,note_on,70,36,0
1,note_on,70,0,240
1,note_on,67,0,0
1,note_on,84,40,240
1,note_on,84,0,120
1,note_on,87,34,0
1,note_on,87,0,120
1,note_on,84,40,0
1,note_on,84,0,120
1,note_on,80,34,0
1,note_on,80,0,90
1,note_on,80,40,30
1,note_on,80,0,120
1,note_on,84,34,0
1,note_on,84,0,120
1,note_on,80,40,0
1,note_on,80,0,120
1,note_on,75,34,0
1,note_on,75,0,90
1,note_on,75,40,30
1,note_on,75,0,120
1,note_on,80,34,0
1,note_on,80,0,120
1,note_on,75,40,0
1,note_on,75,0,120
1,note_on,72,34,0
1,note_on,72,0,90
1,note_on,72,40,30
1,note_on,72,0,120
1,note_on,75,34,0
1,note_on,75,0,120
1,note_on,72,40,0
1,note_on,72,0,120
1,note_on,68,34,0
1,note_on,68,0,90
1,note_on,68,40,30
1,note_on,68,0,120
1,note_on,72,34,0
1,note_on,72,0,120
1,note_on,68,40,0
1,note_on,68,0,120
1,note_on,63,34,0
1,note_on,63,0,120
1,note_on,67,30,0
1,note_on,70,36,0
1,note_on,70,0,240
1,note_on,67,0,0
1,note_on,87,45,240
1,note_on,87,0,120
1,note_on,92,38,0
1,note_on,92,0,120
1,note_on,87,45,0
1,note_on,87,0,120
1,note_on,84,38,0
1,note_on,84,0,90
1,note_on,84,45,30
1,note_on,84,0,120
1,note_on,87,38,0
1,note_on,87,0,120
1,note_on,84,45,0
1,note_on,84,0,120
1,note_on,80,38,0
1,note_on,80,0,90
1,note_on,80,45,30
1,note_on,80,0,120
1,note_on,84,38,0
1,note_on,84,0,120
1,note_on,80,45,0
1,note_on,80,0,120
1,note_on,75,38,0
1,note_on,75,0,90
1,note_on,75,45,30
1,note_on,75,0,120
1,note_on,80,38,0
1,note_on,80,0,120
1,note_on,75,45,0
1,note_on,75,0,120
1,note_on,72,38,0
1,note_on,72,0,90
1,note_on,72,45,30
1,note_on,72,0,120
1,note_on,75,38,0
1,note_on,75,0,120
1,note_on,72,45,0
1,note_on,72,0,120
1,note_on,68,38,0
1,note_on,68,0,120
1,note_on,67,40,0
1,note_on,70,40,0
1,note_on,70,0,240
1,note_on,67,0,0
1,note_on,87,50,240
1,note_on,87,0,120
1,note_on,92,42,0
1,note_on,92,0,120
1,note_on,87,50,0
1,note_on,87,0,120
1,note_on,84,42,0
1,note_on,84,0,90
1,note_on,84,50,30
1,note_on,84,0,120
1,note_on,87,42,0
1,note_on,87,0,120
1,note_on,84,50,0
1,note_on,84,0,120
1,note_on,80,42,0
1,note_on,80,0,90
1,note_on,80,50,30
1,note_on,80,0,120
1,note_on,84,42,0
1,note_on,84,0,120
1,note_on,80,50,0
1,note_on,80,0,120
1,note_on,75,42,0
1,note_on,75,0,90
1,note_on,75,50,30
1,note_on,75,0,120
1,note_on,80,42,0
1,note_on,80,0,120
1,note_on,75,50,0
1,note_on,75,0,120
1,note_on,72,42,0
1,note_on,72,0,90
1,note_on,72,50,30
1,note_on,72,0,120
1,note_on,75,42,0
1,note_on,75,0,120
1,note_on,72,50,0
1,note_on,72,0,120
1,note_on,68,42,0
1,note_on,68,0,120
1,note_on,67,45,0
1,note_on,70,45,0
1,note_on,70,0,240
1,note_on,67,0,0
1,note_on,72,40,240
1,note_on,72,0,120
1,note_on,75,34,0
1,note_on,75,0,120
1,note_on,72,40,0
1,note_on,72,0,120
1,note_on,68,34,0
1,note_on,68,0,90
1,note_on,68,40,30
1,note_on,68,0,120
1,note_on,72,34,0
1,note_on,72,0,120
1,note_on,68,40,0
1,note_on,68,0,120
1,note_on,63,34,0
1,note_on,63,0,120
1,note_on,68,40,0
1,note_on,68,0,120
1,note_on,73,40,360
1,note_on,73,0,120
1,note_on,77,34,0
1,note_on,77,0,120
1,note_on,73,40,0
1,note_on,73,0,120
1,note_on,68,34,0
1,note_on,68,0,90
1,note_on,68,40,30
1,note_on,68,0,120
1,note_on,73,34,0
1,note_on,73,0,120
1,note_on,68,40,0
1,note_on,68,0,120
1,note_on,65,34,0
1,note_on,65,0,120
1,note_on,68,40,0
1,note_on,68,0,120
1,note_on,75,40,360
1,note_on,75,0,120
1,note_on,79,34,0
1,note_on,79,0,120
1,note_on,75,40,0
1,note_on,75,0,120
1,note_on,70,34,0
1,note_on,70,0,90
1,note_on,70,40,30
1,note_on,70,0,120
1,note_on,75,34,0
1,note_on,75,0,120
1,note_on,70,40,0
1,note_on,70,0,120
1,note_on,67,34,0
1,note_on,67,0,120
1,note_on,70,40,0
1,note_on,70,0,120
1,note_on,75,40,360
1,note_on,75,0,120
1,note_on,80,34,0
1,note_on,80,0,120
1,note_on,75,40,0
1,note_on,75,0,120
1,note_on,72,34,0
1,note_on,72,0,90
1,note_on,72,40,30
1,note_on,72,0,120
1,note_on,75,34,0
1,note_on,75,0,120
1,note_on,72,40,0
1,note_on,72,0,120
1,note_on,68,34,0
1,note_on,68,0,120
1,note_on,72,40,0
1,note_on,72,0,120
1,note_on,84,53,360
1,note_on,84,0,120
1,note_on,87,45,0
1,note_on,87,0,120
1,note_on,84,53,0
1,note_on,84,0,120
1,note_on,80,45,0
1,note_on,80,0,90
1,note_on,80,53,30
1,note_on,80,0,120
1,note_on,84,45,0
1,note_on,84,0,120
1,note_on,80,53,0
1,note_on,80,0,120
1,note_on,75,45,0
1,note_on,75,0,120
1,note_on,80,53,0
1,note_on,80,0,120
1,note_on,85,60,360
1,note_on,85,0,120
1,note_on,89,51,0
1,note_on,89,0,120
1,note_on,85,60,0
1,note_on,85,0,120
1,note_on,80,51,0
1,note_on,80,0,90
1,note_on,80,60,30
1,note_on,80,0,120
1,note_on,85,51,0
1,note_on,85,0,120
1,note_on,80,60,0
1,note_on,80,0,120
1,note_on,77,51,0
1,note_on,77,0,120
1,note_on,80,60,0
1,note_on,80,0,120
1,note_on,87,70,360
1,note_on,87,0,120
1,note_on,91,59,0
1,note_on,91,0,120
1,note_on,87,70,0
1,note_on,87,0,120
1,note_on,82,59,0
1,note_on,82,0,90
1,note_on,82,70,30
1,note_on,82,0,120
1,note_on,87,59,0
1,note_on,87,0,120
1,note_on,82,70,0
1,note_on,82,0,120
1,note_on,79,59,0
1,note_on,79,0,120
1,note_on,82,70,0
1,note_on,82,0,240
1,note_on,87,80,240
1,note_on,87,0,120
1,note_on,92,68,0
1,note_on,92,0,120
1,note_on,87,80,0
1,note_on,87,0,120
1,note_on,84,68,0
1,note_on,84,0,90
1,note_on,84,80,30
1,note_on,84,0,120
1,note_on,87,68,0
1,note_on,87,0,120
1,note_on,84,80,0
1,note_on,84,0,120
1,note_on,80,68,0
1,note_on,80,0,120
1,note_on,84,80,0
1,note_on,84,0,240
1,note_on,72,40,240
1,note_on,72,0,120
1,note_on,75,34,0
1,note_on,75,0,120
1,note_on,72,40,0
1,note_on,72,0,120
1,note_on,68,34,0
1,note_on,68,0,90
1,note_on,68,40,30
1,note_on,68,0,120
1,note_on,72,34,0
1,note_on,72,0,120
1,note_on,68,40,0
1,note_on,68,0,120
1,note_on,63,34,0
1,note_on,63,0,120
1,note_on,68,40,0
1,note_on,68,0,240
1,note_on,73,40,240
1,note_on,73,0,120
1,note_on,77,34,0
1,note_on,77,0,120
1,note_on,73,40,0
1,note_on,73,0,120
1,note_on,68,34,0
1,note_on,68,0,90
1,note_on,68,40,30
1,note_on,68,0,120
1,note_on,73,34,0
1,note_on,73,0,120
1,note_on,68,40,0
1,note_on,68,0,120
1,note_on,65,34,0
1,note_on,65,0,120
1,note_on,68,40,0
1,note_on,68,0,240
1,note_on,75,40,240
1,note_on,75,0,120
1,note_on,79,34,0
1,note_on,79,0,120
1,note_on,75,40,0
1,note_on,75,0,120
1,note_on,70,34,0
1,note_on,70,0,90
1,note_on,70,40,30
1,note_on,70,0,120
1,note_on,75,34,0
1,note_on,75,0,120
1,note_on,70,40,0
1,note_on,70,0,120
1,note_on,67,34,0
1,note_on,67,0,120
1,note_on,70,40,0
1,note_on,70,0,240
1,note_on,75,40,240
1,note_on,75,0,120
1,note_on,80,34,0
1,note_on,80,0,120
1,note_on,75,40,0
1,note_on,75,0,120
1,note_on,72,34,0
1,note_on,72,0,90
1,note_on,72,40,30
1,note_on,72,0,120
1,note_on,75,34,0
1,note_on,75,0,120
1,note_on,72,40,0
1,note_on,72,0,120
1,note_on,68,34,0
1,note_on,68,0,120
1,note_on,72,40,0
1,note_on,72,0,240
1,note_on,84,50,240
1,note_on,84,0,120
1,note_on,87,42,0
1,note_on,87,0,120
1,note_on,84,50,0
1,note_on,84,0,120
1,note_on,80,42,0
1,note_on,80,0,90
1,note_on,80,50,30
1,note_on,80,0,120
1,note_on,84,42,0
1,note_on,84,0,120
1,note_on,80,50,0
1,note_on,80,0,120
1,note_on,75,42,0
1,note_on,75,0,120
1,note_on,80,50,0
1,note_on,80,0,240
1,note_on,85,56,240
1,note_on,85,0,120
1,note_on,89,47,0
1,note_on,89,0,120
1,note_on,85,56,0
1,note_on,85,0,120
1,note_on,80,47,0
1,note_on,80,0,90
1,note_on,80,56,30
1,note_on,80,0,120
1,note_on,85,47,0
1,note_on,85,0,120
1,note_on,80,56,0
1,note_on,80,0,120
1,note_on,77,47,0
1,note_on,77,0,120
1,note_on,80,56,0
1,note_on,80,0,240
1,note_on,87,60,240
1,note_on,87,0,120
1,note_on,91,51,0
1,note_on,91,0,120
1,note_on,87,60,0
1,note_on,87,0,120
1,note_on,82,51,0
1,note_on,82,0,90
1,note_on,82,60,30
1,note_on,82,0,120
1,note_on,87,51,0
1,note_on,87,0,120
1,note_on,82,60,0
1,note_on,82,0,120
1,note_on,79,51,0
1,note_on,79,0,120
1,note_on,82,60,0
1,note_on,82,0,240
1,note_on,87,70,240
1,note_on,87,0,120
1,note_on,92,59,0
1,note_on,92,0,120
1,note_on,87,70,0
1,note_on,87,0,120
1,note_on,84,59,0
1,note_on,84,0,90
1,note_on,84,70,30
1,note_on,84,0,120
1,note_on,87,59,0
1,note_on,87,0,120
1,note_on,84,70,0
1,note_on,84,0,120
1,note_on,80,59,0
1,note_on,80,0,120
1,note_on,84,70,0
1,note_on,84,0,240
1,note_on,87,76,240
1,note_on,87,0,120
1,note_on,91,64,0
1,note_on,91,0,120
1,note_on,87,76,0
1,note_on,87,0,120
1,note_on,82,64,0
1,note_on,82,0,90
1,note_on,82,76,30
1,note_on,82,0,120
1,note_on,87,64,0
1,note_on,87,0,120
1,note_on,82,76,0
1,note_on,82,0,120
1,note_on,79,64,0
1,note_on,79,0,120
1,note_on,82,76,0
1,note_on,82,0,240
1,note_on,87,80,240
1,note_on,87,0,120
1,note_on,92,67,0
1,note_on,92,0,120
1,note_on,87,80,0
1,note_on,87,0,120
1,note_on,84,67,0
1,note_on,84,0,90
1,note_on,84,80,30
1,note_on,84,0,120
1,note_on,87,67,0
1,note_on,87,0,120
1,note_on,84,80,0
1,note_on,84,0,120
1,note_on,80,67,0
1,note_on,80,0,120
1,note_on,84,80,0
1,note_on,84,0,240
1,note_on,89,79,240
1,note_on,89,0,120
1,note_on,93,67,0
1,note_on,93,0,120
1,note_on,89,79,0
1,note_on,89,0,120
1,note_on,84,67,0
1,note_on,84,0,90
1,note_on,84,79,30
1,note_on,84,0,120
1,note_on,89,67,0
1,note_on,89,0,120
1,note_on,84,79,0
1,note_on,84,0,120
1,note_on,81,67,0
1,note_on,81,0,120
1,note_on,84,79,0
1,note_on,84,0,240
1,note_on,89,80,240
1,note_on,89,0,120
1,note_on,94,68,0
1,note_on,94,0,120
1,note_on,89,80,0
1,note_on,89,0,120
1,note_on,85,68,0
1,note_on,85,0,90
1,note_on,85,80,30
1,note_on,85,0,120
1,note_on,89,68,0
1,note_on,89,0,120
1,note_on,85,80,0
1,note_on,85,0,120
1,note_on,82,68,0
1,note_on,82,0,120
1,note_on,85,80,0
1,note_on,85,0,240
1,note_on,89,80,240
1,note_on,89,0,120
1,note_on,93,68,0
1,note_on,93,0,120
1,note_on,89,80,0
1,note_on,89,0,120
1,note_on,84,68,0
1,note_on,84,0,90
1,note_on,84,80,30
1,note_on,84,0,120
1,note_on,89,68,0
1,note_on,89,0,120
1,note_on,84,80,0
1,note_on,84,0,120
1,note_on,81,68,0
1,note_on,81,0,120
1,note_on,84,80,0
1,note_on,84,0,240
1,note_on,89,80,240
1,note_on,89,0,120
1,note_on,94,68,0
1,note_on,94,0,120
1,note_on,89,80,0
1,note_on,89,0,120
1,note_on,85,68,0
1,note_on,85,0,90
1,note_on,85,80,30
1,note_on,85,0,120
1,note_on,89,68,0
1,note_on,89,0,120
1,note_on,85,80,0
1,note_on,85,0,120
1,note_on,82,68,0
1,note_on,82,0,120
1,note_on,85,80,0
1,note_on,85,0,240
1,note_on,92,80,240
1,note_on,92,0,120
1,note_on,96,68,0
1,note_on,96,0,120
1,note_on,92,80,0
1,note_on,92,0,120
1,note_on,87,68,0
1,note_on,87,0,90
1,note_on,87,80,30
1,note_on,87,0,120
1,note_on,92,68,0
1,note_on,92,0,120
1,note_on,87,80,0
1,note_on,87,0,120
1,note_on,84,68,0
1,note_on,84,0,120
1,note_on,87,80,0
1,note_on,87,0,240
1,note_on,92,80,240
1,note_on,92,0,120
1,note_on,97,68,0
1,note_on,97,0,120
1,note_on,92,80,0
1,note_on,92,0,120
1,note_on,89,68,0
1,note_on,89,0,90
1,note_on,89,81,30
1,note_on,89,0,120
1,note_on,92,69,0
1,note_on,92,0,120
1,note_on,89,82,0
1,note_on,89,0,120
1,note_on,85,69,0
1,note_on,85,0,120
1,note_on,89,83,0
1,note_on,89,0,240
1,note_on,92,84,240
1,note_on,92,0,120
1,note_on,96,71,0
1,note_on,96,0,120
1,note_on,92,85,0
1,note_on,92,0,120
1,note_on,87,72,0
1,note_on,87,0,90
1,note_on,87,86,30
1,note_on,87,0,120
1,note_on,92,73,0
1,note_on,92,0,120
1,note_on,87,87,0
1,note_on,87,0,120
1,note_on,84,73,0
1,note_on,84,0,120
1,note_on,87,87,0
1,note_on,87,0,240
1,note_on,92,88,240
1,note_on,92,0,120
1,note_on,97,74,0
1,note_on,97,0,120
1,note_on,92,88,0
1,note_on,92,0,120
1,note_on,89,74,0
1,note_on,89,0,90
1,note_on,89,88,30
1,note_on,89,0,120
1,note_on,92,74,0
1,note_on,92,0,120
1,note_on,89,88,0
1,note_on,89,0,120
1,note_on,85,74,0
1,note_on,85,0,90
1,note_on,85,88,30
1,note_on,85,0,120
1,note_on,89,74,0
1,note_on,89,0,120
1,note_on,85,88,0
1,note_on,85,0,120
1,note_on,80,74,0
1,note_on,80,0,90
1,note_on,80,88,30
1,note_on,80,0,120
1,note_on,85,74,0
1,note_on,85,0,120
1,note_on,80,88,0
1,note_on,80,0,120
1,note_on,77,74,0
1,note_on,77,0,90
1,note_on,77,88,30
1,note_on,77,0,120
1,note_on,80,74,0
1,note_on,80,0,120
1,note_on,77,88,0
1,note_on,77,0,120
1,note_on,73,74,0
1,note_on,73,0,90
1,note_on,73,88,30
1,note_on,73,0,120
1,note_on,77,74,0
1,note_on,77,0,120
1,note_on,73,88,0
1,note_on,73,0,120
1,note_on,68,74,0
1,note_on,68,0,90
1,note_on,80,88,30
1,note_on,80,0,120
1,note_on,85,74,0
1,note_on,85,0,120
1,note_on,80,88,0
1,note_on,80,0,120
1,note_on,77,74,0
1,note_on,77,0,90
1,note_on,77,88,30
1,note_on,77,0,120
1,note_on,80,74,0
1,note_on,80,0,120
1,note_on,77,88,0
1,note_on,77,0,120
1,note_on,73,74,0
1,note_on,73,0,90
1,note_on,73,88,30
1,note_on,73,0,120
1,note_on,77,74,0
1,note_on,77,0,120
1,note_on,73,88,0
1,note_on,73,0,120
1,note_on,68,74,0
1,note_on,68,0,90
1,note_on,68,88,30
1,note_on,68,0,120
1,note_on,73,74,0
1,note_on,73,0,120
1,note_on,68,88,0
1,note_on,68,0,120
1,note_on,65,74,0
1,note_on,65,0,90
1,note_on,65,88,30
1,note_on,65,0,120
1,note_on,68,74,0
1,note_on,68,0,120
1,note_on,65,88,0
1,note_on,65,0,120
1,note_on,61,74,0
1,note_on,61,0,90
1,note_on,61,88,30
1,note_on,61,0,120
1,note_on,65,74,0
1,note_on,65,0,120
1,note_on,61,88,0
1,note_on,61,0,120
1,note_on,56,74,0
1,note_on,56,0,120
1,note_on,61,90,0
1,note_on,61,0,120
1,note_on,64,69,0
1,note_on,64,0,120
1,note_on,61,82,0
1,note_on,61,0,120
1,note_on,58,69,0
1,note_on,58,0,90
1,note_on,58,82,30
1,note_on,58,0,120
1,note_on,61,69,0
1,note_on,61,0,120
1,note_on,58,82,0
1,note_on,58,0,120
1,note_on,55,69,0
1,note_on,55,0,120
1,note_on,61,91,0
1,note_on,61,0,120
1,note_on,64,69,0
1,note_on,64,0,120
1,note_on,61,82,0
1,note_on,61,0,120
1,note_on,58,69,0
1,note_on,58,0,90
1,note_on,58,82,30
1,note_on,58,0,120
1,note_on,61,69,0
1,note_on,61,0,120
1,note_on,58,82,0
1,note_on,58,0,120
1,note_on,55,69,0
1,note_on,55,0,120
1,note_on,61,90,0
1,note_on,61,0,120
1,note_on,64,69,0
1,note_on,64,0,120
1,note_on,61,82,0
1,note_on,61,0,120
1,note_on,58,69,0
1,note_on,58,0,120
1,note_on,58,82,0
1,note_on,58,0,120
1,note_on,61,69,0
1,note_on,61,0,120
1,note_on,58,82,0
1,note_on,58,0,120
1,note_on,55,69,0
1,note_on,55,0,120
1,note_on,61,81,0
1,note_on,61,0,120
1,note_on,63,68,0
1,note_on,63,0,120
1,note_on,61,81,0
1,note_on,61,0,120
1,note_on,58,67,0
1,note_on,58,0,90
1,note_on,58,80,30
1,note_on,58,0,120
1,note_on,61,66,0
1,note_on,61,0,120
1,note_on,58,79,0
1,note_on,58,0,120
1,note_on,55,66,0
1,note_on,55,0,120
1,note_on,61,84,0
1,note_on,61,0,120
1,note_on,63,65,0
1,note_on,63,0,120
1,note_on,61,76,0
1,note_on,61,0,120
1,note_on,58,62,0
1,note_on,58,0,90
1,note_on,58,76,30
1,note_on,58,0,120
1,note_on,61,63,0
1,note_on,61,0,120
1,note_on,58,73,0
1,note_on,58,0,120
1,note_on,55,59,0
1,note_on,55,0,120
1,note_on,61,76,0
1,note_on,61,0,120
1,note_on,63,57,0
1,note_on,63,0,120
1,note_on,61,66,0
1,note_on,61,0,120
1,note_on,58,55,0
1,note_on,58,0,90
1,note_on,58,63,30
1,note_on,58,0,120
1,note_on,61,52,0
1,note_on,61,0,120
1,note_on,58,60,0
1,note_on,58,0,120
1,note_on,55,49,0
1,note_on,55,0,120
1,note_on,63,50,0
1,note_on,60,40,160
1,note_on,60,0,160
1,note_on,56,40,0
1,note_on,56,0,160
1,note_on,63,0,0
1,note_on,68,50,0
1,note_on,63,40,160
1,note_on,63,0,160
1,note_on,60,40,0
1,note_on,60,0,160
1,note_on,68,0,0
1,note_on,67,50,0
1,note_on,63,40,160
1,note_on,63,0,160
1,note_on,60,40,0
1,note_on,60,0,160
1,note_on,67,0,0
1,note_on,65,50,0
1,note_on,61,40,160
1,note_on,61,0,160
1,note_on,56,40,0
1,note_on,56,0,160
1,note_on,65,0,0
1,note_on,73,50,0
1,note_on,65,40,160
1,note_on,65,0,160
1,note_on,61,40,0
1,note_on,61,0,160
1,note_on,73,0,0
1,note_on,70,50,0
1,note_on,65,40,160
1,note_on,65,0,160
1,note_on,61,40,0
1,note_on,61,0,160
1,note_on,70,0,0
1,note_on,70,50,0
1,note_on,63,40,160
1,note_on,63,0,160
1,note_on,61,40,0
1,note_on,61,0,160
1,note_on,70,0,0
1,note_on,68,50,0
1,note_on,63,40,160
1,note_on,63,0,160
1,note_on,60,40,0
1,note_on,60,0,160
1,note_on,68,0,0
1,note_on,68,50,0
1,note_on,63,40,160
1,note_on,63,0,160
1,note_on,60,40,0
1,note_on,60,0,160
1,note_on,68,0,0
1,note_on,68,50,0
1,note_on,63,40,160
1,note_on,63,0,160
1,note_on,60,40,0
1,note_on,60,0,160
1,note_on,68,0,0
1,note_on,67,50,0
1,note_on,63,40,160
1,note_on,63,0,160
1,note_on,58,40,0
1,note_on,58,0,160
1,note_on,67,0,0
1,note_on,67,50,0
1,note_on,63,40,160
1,note_on,63,0,160
1,note_on,58,40,0
1,note_on,58,0,160
1,note_on,67,0,0
1,note_on,63,50,0
1,note_on,60,40,160
1,note_on,60,0,160
1,note_on,56,40,0
1,note_on,56,0,160
1,note_on,63,0,0
1,note_on,68,50,0
1,note_on,63,40,160
1,note_on,63,0,160
1,note_on,60,40,0
1,note_on,60,0,160
1,note_on,68,0,0
1,note_on,67,50,0
1,note_on,63,40,160
1,note_on,63,0,160
1,note_on,60,40,0
1,note_on,60,0,160
1,note_on,67,0,0
1,note_on,65,50,0
1,note_on,61,40,160
1,note_on,61,0,160
1,note_on,56,40,0
1,note_on,56,0,160
1,note_on,65,0,0
1,note_on,77,50,0
1,note_on,68,40,160
1,note_on,68,0,160
1,note_on,65,40,0
1,note_on,65,0,160
1,note_on,77,0,0
1,note_on,73,50,0
1,note_on,65,40,160
1,note_on,65,0,160
1,note_on,61,40,0
1,note_on,61,0,160
1,note_on,73,0,0
1,note_on,73,50,0
1,note_on,68,40,160
1,note_on,68,0,160
1,note_on,63,40,0
1,note_on,63,0,160
1,note_on,73,0,0
1,note_on,72,50,0
1,note_on,68,40,160
1,note_on,68,0,160
1,note_on,63,40,0
1,note_on,63,0,160
1,note_on,72,0,0
1,note_on,72,50,0
1,note_on,68,40,160
1,note_on,68,0,160
1,note_on,63,40,0
1,note_on,63,0,160
1,note_on,72,0,0
1,note_on,72,50,0
1,note_on,63,40,160
1,note_on,63,0,160
1,note_on,61,40,0
1,note_on,61,0,160
1,note_on,72,0,0
1,note_on,70,50,0
1,note_on,63,40,160
1,note_on,63,0,160
1,note_on,61,40,0
1,note_on,61,0,160
1,note_on,70,0,0
1,note_on,70,50,0
1,note_on,63,40,160
1,note_on,63,0,160
1,note_on,61,40,0
1,note_on,61,0,160
1,note_on,70,0,0
1,note_on,72,48,0
1,note_on,72,0,112
1,note_on,75,40,0
1,note_on,75,0,120
1,note_on,72,48,0
1,note_on,72,0,120
1,note_on,68,40,0
1,note_on,68,0,90
1,note_on,68,48,30
1,note_on,68,0,120
1,note_on,72,40,0
1,note_on,72,0,120
1,note_on,68,48,0
1,note_on,68,0,120
1,note_on,63,40,0
1,note_on,63,0,120
1,note_on,68,48,0
1,note_on,68,0,240
1,note_on,73,48,240
1,note_on,73,0,120
1,note_on,77,40,0
1,note_on,77,0,120
1,note_on,73,48,0
1,note_on,73,0,120
1,note_on,68,40,0
1,note_on,68,0,90
1,note_on,68,48,30
1,note_on,68,0,120
1,note_on,73,40,0
1,note_on,73,0,120
1,note_on,68,48,0
1,note_on,68,0,120
1,note_on,65,40,0
1,note_on,65,0,120
1,note_on,68,48,0
1,note_on,68,0,240
1,note_on,75,48,240
1,note_on,75,0,120
1,note_on,79,40,0
1,note_on,79,0,120
1,note_on,75,48,0
1,note_on,75,0,120
1,note_on,70,40,0
1,note_on,70,0,90
1,note_on,70,48,30
1,note_on,70,0,120
1,note_on,75,40,0
1,note_on,75,0,120
1,note_on,70,48,0
1,note_on,70,0,120
1,note_on,67,40,0
1,note_on,67,0,120
1,note_on,70,48,0
1,note_on,70,0,240
1,note_on,75,48,240
1,note_on,75,0,120
1,note_on,80,40,0
1,note_on,80,0,120
1,note_on,75,48,0
1,note_on,75,0,120
1,note_on,72,40,0
1,note_on,72,0,90
1,note_on,72,48,30
1,note_on,72,0,120
1,note_on,75,40,0
1,note_on,75,0,120
1,note_on,72,48,0
1,note_on,72,0,120
1,note_on,68,40,0
1,note_on,68,0,120
1,note_on,72,48,0
1,note_on,72,0,240
1,note_on,84,60,240
1,note_on,84,0,120
1,note_on,87,51,0
1,note_on,87,0,120
1,note_on,84,60,0
1,note_on,84,0,120
1,note_on,80,51,0
1,note_on,80,0,90
1,note_on,80,60,30
1,note_on,80,0,120
1,note_on,84,51,0
1,note_on,84,0,120
1,note_on,80,60,0
1,note_on,80,0,120
1,note_on,75,51,0
1,note_on,75,0,120
1,note_on,80,60,0
1,note_on,80,0,240
1,note_on,85,72,240
1,note_on,85,0,120
1,note_on,89,61,0
1,note_on,89,0,120
1,note_on,85,72,0
1,note_on,85,0,120
1,note_on,80,61,0
1,note_on,80,0,90
1,note_on,80,72,30
1,note_on,80,0,120
1,note_on,85,61,0
1,note_on,85,0,120
1,note_on,80,72,0
1,note_on,80,0,120
1,note_on,77,61,0
1,note_on,77,0,120
1,note_on,80,72,0
1,note_on,80,0,240
1,note_on,87,84,240
1,note_on,87,0,120
1,note_on,91,71,0
1,note_on,91,0,120
1,note_on,87,84,0
1,note_on,87,0,120
1,note_on,82,71,0
1,note_on,82,0,90
1,note_on,82,84,30
1,note_on,82,0,120
1,note_on,87,71,0
1,note_on,87,0,120
1,note_on,82,84,0
1,note_on,82,0,120
1,note_on,79,71,0
1,note_on,79,0,120
1,note_on,82,84,0
1,note_on,82,0,240
1,note_on,87,93,240
1,note_on,87,0,120
1,note_on,92,79,0
1,note_on,92,0,120
1,note_on,87,93,0
1,note_on,87,0,120
1,note_on,84,79,0
1,note_on,84,0,90
1,note_on,84,93,30
1,note_on,84,0,120
1,note_on,87,79,0
1,note_on,87,0,120
1,note_on,84,93,0
1,note_on,84,0,120
1,note_on,80,79,0
1,note_on,80,0,120
1,note_on,84,93,0
1,note_on,84,0,240
1,note_on,72,48,240
1,note_on,72,0,120
1,note_on,75,40,0
1,note_on,75,0,120
1,note_on,72,48,0
1,note_on,72,0,120
1,note_on,68,40,0
1,note_on,68,0,90
1,note_on,68,48,30
1,note_on,68,0,120
1,note_on,72,40,0
1,note_on,72,0,120
1,note_on,68,48,0
1,note_on,68,0,120
1,note_on,63,40,0
1,note_on,63,0,120
1,note_on,68,48,0
1,note_on,68,0,240
1,note_on,73,48,240
1,note_on,73,0,120
1,note_on,77,40,0
1,note_on,77,0,120
1,note_on,73,48,0
1,note_on,73,0,120
1,note_on,68,40,0
1,note_on,68,0,90
1,note_on,68,48,30
1,note_on,68,0,120
1,note_on,73,40,0
1,note_on,73,0,120
1,note_on,68,48,0
1,note_on,68,0,120
1,note_on,65,40,0
1,note_on,65,0,120
1,note_on,68,48,0
1,note_on,68,0,240
1,note_on,75,48,240
1,note_on,75,0,120
1,note_on,79,40,0
1,note_on,79,0,120
1,note_on,75,48,0
1,note_on,75,0,120
1,note_on,70,40,0
1,note_on,70,0,90
1,note_on,70,48,30
1,note_on,70,0,120
1,note_on,75,40,0
1,note_on,75,0,120
1,note_on,70,48,0
1,note_on,70,0,120
1,note_on,67,40,0
1,note_on,67,0,120
1,note_on,70,48,0
1,note_on,70,0,240
1,note_on,75,48,240
1,note_on,75,0,120
1,note_on,80,40,0
1,note_on,80,0,120
1,note_on,75,48,0
1,note_on,75,0,120
1,note_on,72,40,0
1,note_on,72,0,90
1,note_on,72,48,30
1,note_on,72,0,120
1,note_on,75,40,0
1,note_on,75,0,120
1,note_on,72,48,0
1,note_on,72,0,120
1,note_on,68,40,0
1,note_on,68,0,120
1,note_on,72,48,0
1,note_on,72,0,240
1,note_on,84,68,240
1,note_on,84,0,120
1,note_on,87,57,0
1,note_on,87,0,120
1,note_on,84,68,0
1,note_on,84,0,120
1,note_on,80,57,0
1,note_on,80,0,90
1,note_on,80,68,30
1,note_on,80,0,120
1,note_on,84,57,0
1,note_on,84,0,120
1,note_on,80,68,0
1,note_on,80,0,120
1,note_on,75,57,0
1,note_on,75,0,120
1,note_on,80,68,0
1,note_on,80,0,240
1,note_on,85,68,240
1,note_on,85,0,120
1,note_on,89,57,0
1,note_on,89,0,120
1,note_on,85,68,0
1,note_on,85,0,120
1,note_on,80,57,0
1,note_on,80,0,90
1,note_on,80,68,30
1,note_on,80,0,120
1,note_on,85,57,0
1,note_on,85,0,120
1,note_on,80,68,0
1,note_on,80,0,120
1,note_on,77,57,0
1,note_on,77,0,120
1,note_on,80,68,0
1,note_on,80,0,240
1,note_on,87,68,240
1,note_on,87,0,120
1,note_on,91,57,0
1,note_on,91,0,120
1,note_on,87,68,0
1,note_on,87,0,120
1,note_on,82,57,0
1,note_on,82,0,90
1,note_on,82,68,30
1,note_on,82,0,120
1,note_on,87,57,0
1,note_on,87,0,120
1,note_on,82,68,0
1,note_on,82,0,120
1,note_on,79,57,0
1,note_on,79,0,120
1,note_on,82,68,0
1,note_on,82,0,240
1,note_on,87,82,240
1,note_on,87,0,120
1,note_on,92,69,0
1,note_on,92,0,120
1,note_on,87,82,0
1,note_on,87,0,120
1,note_on,84,69,0
1,note_on,84,0,90
1,note_on,84,82,30
1,note_on,84,0,120
1,note_on,87,69,0
1,note_on,87,0,120
1,note_on,84,82,0
1,note_on,84,0,120
1,note_on,80,69,0
1,note_on,80,0,120
1,note_on,84,82,0
1,note_on,84,0,240
1,note_on,87,86,240
1,note_on,87,0,120
1,note_on,91,72,0
1,note_on,91,0,120
1,note_on,87,86,0
1,note_on,87,0,120
1,note_on,82,72,0
1,note_on,82,0,90
1,note_on,82,86,30
1,note_on,82,0,120
1,note_on,87,72,0
1,note_on,87,0,120
1,note_on,82,86,0
1,note_on,82,0,120
1,note_on,79,72,0
1,note_on,79,0,120
1,note_on,82,86,0
1,note_on,82,0,240
1,note_on,87,92,240
1,note_on,87,0,120
1,note_on,92,77,0
1,note_on,92,0,120
1,note_on,87,92,0
1,note_on,87,0,120
1,note_on,84,77,0
1,note_on,84,0,90
1,note_on,84,92,30
1,note_on,84,0,120
1,note_on,87,77,0
1,note_on,87,0,120
1,note_on,84,92,0
1,note_on,84,0,120
1,note_on,80,77,0
1,note_on,80,0,120
1,note_on,84,92,0
1,note_on,84,0,240
1,note_on,87,98,240
1,note_on,87,0,120
1,note_on,91,83,0
1,note_on,91,0,120
1,note_on,87,98,0
1,note_on,87,0,120
1,note_on,82,83,0
1,note_on,82,0,90
1,note_on,82,98,30
1,note_on,82,0,120
1,note_on,87,83,0
1,note_on,87,0,120
1,note_on,82,98,0
1,note_on,82,0,120
1,note_on,79,83,0
1,note_on,79,0,120
1,note_on,82,98,0
1,note_on,82,0,240
1,note_on,87,98,240
1,note_on,87,0,120
1,note_on,92,83,0
1,note_on,92,0,120
1,note_on,87,98,0
1,note_on,87,0,120
1,note_on,84,83,0
1,note_on,84,0,90
1,note_on,84,98,30
1,note_on,84,0,120
1,note_on,87,83,0
1,note_on,87,0,120
1,note_on,84,98,0
1,note_on,84,0,120
1,note_on,80,83,0
1,note_on,80,0,90
1,note_on,80,98,30
1,note_on,80,0,120
1,note_on,84,83,0
1,note_on,84,0,120
1,note_on,80,98,0
1,note_on,80,0,120
1,note_on,75,83,0
1,note_on,75,0,90
1,note_on,75,98,30
1,note_on,75,0,120
1,note_on,80,83,0
1,note_on,80,0,120
1,note_on,75,98,0
1,note_on,75,0,120
1,note_on,72,83,0
1,note_on,72,0,90
1,note_on,72,98,30
1,note_on,72,0,120
1,note_on,75,83,0
1,note_on,75,0,120
1,note_on,72,98,0
1,note_on,72,0,120
1,note_on,68,83,0
1,note_on,68,0,90
1,note_on,68,98,30
1,note_on,68,0,120
1,note_on,72,83,0
1,note_on,72,0,120
1,note_on,68,98,0
1,note_on,68,0,120
1,note_on,63,83,0
1,note_on,63,0,90
1,note_on,75,98,30
1,note_on,75,0,120
1,note_on,80,83,0
1,note_on,80,0,120
1,note_on,75,97,0
1,note_on,75,0,120
1,note_on,72,82,0
1,note_on,72,0,90
1,note_on,72,96,30
1,note_on,72,0,120
1,note_on,75,80,0
1,note_on,75,0,120
1,note_on,72,94,0
1,note_on,72,0,120
1,note_on,68,79,0
1,note_on,68,0,90
1,note_on,68,93,30
1,note_on,68,0,120
1,note_on,72,78,0
1,note_on,72,0,120
1,note_on,68,92,0
1,note_on,68,0,120
1,note_on,63,76,0
1,note_on,63,0,90
1,note_on,63,90,30
1,note_on,63,0,120
1,note_on,68,76,0
1,note_on,68,0,120
1,note_on,63,89,0
1,note_on,63,0,120
1,note_on,60,74,0
1,note_on,60,0,90
1,note_on,60,87,30
1,note_on,60,0,120
1,note_on,63,73,0
1,note_on,63,0,120
1,note_on,60,86,0
1,note_on,60,0,120
1,note_on,56,72,0
1,note_on,56,0,120
1,note_on,63,85,0
1,note_on,63,0,120
1,note_on,68,70,0
1,note_on,68,0,120
1,note_on,63,83,0
1,note_on,63,0,120
1,note_on,60,69,0
1,note_on,60,0,120
1,note_on,56,81,0
1,note_on,56,0,480
1,note_on,87,112,960
1,note_on,82,102,0
1,note_on,79,102,0
1,note_on,75,102,0
1,note_on,75,0,480
1,note_on,87,0,0
1,note_on,82,0,0
1,note_on,79,0,0
1,note_on,84,108,960
1,note_on,80,98,0
1,note_on,72,98,0
1,note_on,75,98,0
1,note_on,75,0,480
1,note_on,84,0,0
1,note_on,80,0,0
1,note_on,72,0,0
2,note_on,44,40,4
2,note_on,44,0,228
2,note_on,56,34,236
2,note_on,63,40,0
2,note_on,59,34,0
2,note_on,59,0,1920
2,note_on,63,0,0
2,note_on,56,0,0
2,note_on,58,28,0
2,note_on,51,28,0
2,note_on,63,34,0
2,note_on,63,0,188
2,note_on,51,0,0
2,note_on,58,0,0
2,note_on,44,40,240
2,note_on,44,0,224
2,note_on,56,34,240
2,note_on,63,40,0
2,note_on,59,34,0
2,note_on,59,0,1920
2,note_on,63,0,0
2,note_on,56,0,0
2,note_on,51,28,0
2,note_on,63,34,0
2,note_on,58,28,0
2,note_on,58,0,204
2,note_on,63,0,0
2,note_on,51,0,0
2,note_on,63,27,240
2,note_on,56,27,0
2,note_on,59,27,0
2,note_on,59,0,456
2,note_on,56,0,0
2,note_on,63,0,0
2,note_on,51,27,24
2,note_on,58,27,0
2,note_on,64,27,0
2,note_on,64,0,456
2,note_on,58,0,0
2,note_on,51,0,0
2,note_on,58,31,24
2,note_on,64,31,0
2,note_on,51,31,0
2,note_on,51,0,456
2,note_on,64,0,0
2,note_on,58,0,0
2,note_on,51,31,24
2,note_on,64,31,0
2,note_on,58,31,0
2,note_on,58,0,456
2,note_on,64,0,0
2,note_on,51,0,0
2,note_on,58,25,24
2,note_on,51,25,0
2,note_on,63,25,0
2,note_on,63,0,456
2,note_on,51,0,0
2,note_on,58,0,0
2,note_on,61,25,24
2,note_on,58,25,0
2,note_on,51,25,0
2,note_on,51,0,456
2,note_on,58,0,0
2,note_on,61,0,0
2,note_on,44,40,24
2,note_on,44,0,171
2,note_on,56,34,240
2,note_on,63,40,0
2,note_on,59,34,0
2,note_on,59,0,1920
2,note_on,63,0,0
2,note_on,56,0,0
2,note_on,51,26,0
2,note_on,63,31,0
2,note_on,58,26,0
2,note_on,58,0,210
2,note_on,63,0,0
2,note_on,51,0,0
2,note_on,44,40,240
2,note_on,44,0,212
2,note_on,59,34,240
2,note_on,63,40,0
2,note_on,56,34,0
2,note_on,56,0,1920
2,note_on,63,0,0
2,note_on,59,0,0
2,note_on,58,27,0
2,note_on,63,32,0
2,note_on,51,27,0
2,note_on,51,0,224
2,note_on,63,0,0
2,note_on,58,0,0
2,note_on,59,27,240
2,note_on,56,27,0
2,note_on,63,27,0
2,note_on,63,0,456
2,note_on,56,0,0
2,note_on,59,0,0
2,note_on,64,27,24
2,note_on,54,27,0
2,note_on,58,27,0
2,note_on,58,0,456
2,note_on,54,0,0
2,note_on,64,0,0
2,note_on,54,31,24
2,note_on,64,31,0
2,note_on,58,31,0
2,note_on,58,0,456
2,note_on,64,0,0
2,note_on,54,0,0
2,note_on,58,31,24
2,note_on,64,31,0
2,note_on,54,31,0
2,note_on,54,0,456
2,note_on,64,0,0
2,note_on,58,0,0
2,note_on,54,25,24
2,note_on,63,25,0
2,note_on,58,25,0
2,note_on,58,0,456
2,note_on,63,0,0
2,note_on,54,0,0
2,note_on,62,25,24
2,note_on,54,25,0
2,note_on,58,25,0
2,note_on,58,0,456
2,note_on,54,0,0
2,note_on,62,0,0
2,note_on,47,50,24
2,note_on,47,0,232
2,note_on,63,50,240
2,note_on,54,42,0
2,note_on,59,42,0
2,note_on,59,0,1920
2,note_on,54,0,0
2,note_on,63,0,0
2,note_on,54,35,0
2,note_on,64,41,0
2,note_on,64,0,229
2,note_on,54,0,0
2,note_on,47,50,240
2,note_on,47,0,204
2,note_on,59,42,240
2,note_on,63,50,0
2,note_on,54,42,0
2,note_on,54,0,1920
2,note_on,63,0,0
2,note_on,59,0,0
2,note_on,64,41,0
2,note_on,54,35,0
2,note_on,54,0,232
2,note_on,64,0,0
2,note_on,59,36,240
2,note_on,63,36,0
2,note_on,63,0,456
2,note_on,59,0,0
2,note_on,54,41,24
2,note_on,64,41,0
2,note_on,64,0,456
2,note_on,54,0,0
2,note_on,54,45,24
2,note_on,64,45,0
2,note_on,64,0,456
2,note_on,54,0,0
2,note_on,54,45,24
2,note_on,64,45,0
2,note_on,64,0,456
2,note_on,54,0,0
2,note_on,63,36,24
2,note_on,54,36,0
2,note_on,54,0,456
2,note_on,63,0,0
2,note_on,61,36,24
2,note_on,54,36,0
2,note_on,54,0,456
2,note_on,61,0,0
2,note_on,47,50,24
2,note_on,47,0,160
2,note_on,59,42,240
2,note_on,62,50,0
2,note_on,54,42,0
2,note_on,54,0,1920
2,note_on,62,0,0
2,note_on,59,0,0
2,note_on,54,34,0
2,note_on,64,40,0
2,note_on,64,0,229
2,note_on,54,0,0
2,note_on,47,50,240
2,note_on,47,0,204
2,note_on,62,50,240
2,note_on,54,42,0
2,note_on,59,42,0
2,note_on,59,0,1920
2,note_on,54,0,0
2,note_on,62,0,0
2,note_on,54,35,0
2,note_on,64,41,0
2,note_on,64,0,229
2,note_on,54,0,0
2,note_on,62,40,240
2,note_on,59,40,0
2,note_on,59,0,456
2,note_on,62,0,0
2,note_on,57,45,24
2,note_on,67,45,0
2,note_on,67,0,456
2,note_on,57,0,0
2,note_on,57,43,24
2,note_on,67,43,0
2,note_on,67,0,456
2,note_on,57,0,0
2,note_on,67,41,24
2,note_on,57,41,0
2,note_on,57,0,456
2,note_on,67,0,0
2,note_on,66,39,24
2,note_on,57,39,0
2,note_on,57,0,456
2,note_on,66,0,0
2,note_on,64,37,24
2,note_on,57,37,0
2,note_on,57,0,456
2,note_on,64,0,0
2,note_on,59,36,24
2,note_on,62,36,0
2,note_on,62,0,456
2,note_on,59,0,0
2,note_on,64,42,24
2,note_on,54,42,0
2,note_on,54,0,456
2,note_on,64,0,0
2,note_on,64,41,24
2,note_on,54,41,0
2,note_on,54,0,456
2,note_on,64,0,0
2,note_on,64,41,24
2,note_on,54,41,0
2,note_on,54,0,456
2,note_on,64,0,0
2,note_on,54,39,24
2,note_on,61,39,0
2,note_on,61,0,456
2,note_on,54,0,0
2,note_on,54,37,24
2,note_on,58,37,0
2,note_on,58,0,456
2,note_on,54,0,0
2,note_on,56,36,24
2,note_on,59,36,0
2,note_on,59,0,456
2,note_on,56,0,0
2,note_on,56,44,24
2,note_on,61,44,0
2,note_on,49,44,0
2,note_on,49,0,456
2,note_on,61,0,0
2,note_on,56,0,0
2,note_on,49,42,24
2,note_on,61,42,0
2,note_on,56,42,0
2,note_on,56,0,456
2,note_on,61,0,0
2,note_on,49,0,0
2,note_on,61,44,24
2,note_on,49,44,0
2,note_on,56,44,0
2,note_on,56,0,456
2,note_on,49,0,0
2,note_on,61,0,0
2,note_on,51,43,24
2,note_on,56,43,0
2,note_on,59,43,0
2,note_on,59,0,456
2,note_on,56,0,0
2,note_on,51,0,0
2,note_on,52,42,24
2,note_on,56,42,0
2,note_on,56,0,456
2,note_on,52,0,0
2,note_on,56,41,24
2,note_on,51,41,0
2,note_on,59,41,0
2,note_on,59,0,456
2,note_on,51,0,0
2,note_on,56,0,0
2,note_on,56,40,24
2,note_on,59,40,0
2,note_on,51,40,0
2,note_on,51,0,456
2,note_on,59,0,0
2,note_on,56,0,0
2,note_on,51,40,24
2,note_on,59,40,0
2,note_on,56,40,0
2,note_on,56,0,456
2,note_on,59,0,0
2,note_on,51,0,0
2,note_on,55,31,24
2,note_on,51,31,0
2,note_on,58,31,0
2,note_on,58,0,456
2,note_on,51,0,0
2,note_on,55,0,0
2,note_on,51,30,24
2,note_on,58,30,0
2,note_on,55,30,0
2,note_on,55,0,456
2,note_on,58,0,0
2,note_on,51,0,0
2,note_on,55,29,24
2,note_on,58,29,0
2,note_on,51,29,0
2,note_on,51,0,456
2,note_on,58,0,0
2,note_on,55,0,0
2,note_on,44,40,24
2,note_on,44,0,395
2,note_on,60,40,0
2,note_on,56,34,0
2,note_on,51,34,0
2,note_on,51,0,1920
2,note_on,56,0,0
2,note_on,60,0,0
2,note_on,61,32,0
2,note_on,51,27,0
2,note_on,51,0,233
2,note_on,61,0,0
2,note_on,44,40,240
2,note_on,44,0,460
2,note_on,51,34,0
2,note_on,56,34,0
2,note_on,60,40,0
2,note_on,60,0,1920
2,note_on,56,0,0
2,note_on,51,0,0
2,note_on,51,28,0
2,note_on,61,34,0
2,note_on,61,0,232
2,note_on,51,0,0
2,note_on,44,45,240
2,note_on,44,0,460
2,note_on,51,41,0
2,note_on,56,41,0
2,note_on,60,49,0
2,note_on,60,0,1920
2,note_on,56,0,0
2,note_on,51,0,0
2,note_on,51,33,0
2,note_on,61,39,0
2,note_on,61,0,228
2,note_on,51,0,0
2,note_on,44,50,240
2,note_on,44,0,452
2,note_on,60,48,0
2,note_on,51,40,0
2,note_on,56,40,0
2,note_on,56,0,1920
2,note_on,51,0,0
2,note_on,60,0,0
2,note_on,61,38,0
2,note_on,51,32,0
2,note_on,51,0,230
2,note_on,61,0,0
2,note_on,44,40,240
2,note_on,44,0,460
2,note_on,60,33,0
2,note_on,56,27,0
2,note_on,54,27,0
2,note_on,54,0,388
2,note_on,56,0,0
2,note_on,60,0,0
2,note_on,49,40,0
2,note_on,49,0,480
2,note_on,61,29,0
2,note_on,53,25,0
2,note_on,56,25,0
2,note_on,56,0,396
2,note_on,53,0,0
2,note_on,61,0,0
2,note_on,39,40,0
2,note_on,39,0,436
2,note_on,51,29,0
2,note_on,58,29,0
2,note_on,61,35,0
2,note_on,61,0,376
2,note_on,58,0,0
2,note_on,51,0,0
2,note_on,44,40,0
2,note_on,44,0,444
2,note_on,56,31,0
2,note_on,51,31,0
2,note_on,60,37,0
2,note_on,60,0,404
2,note_on,51,0,0
2,note_on,56,0,0
2,note_on,44,52,0
2,note_on,44,0,452
2,note_on,60,43,0
2,note_on,54,35,0
2,note_on,56,35,0
2,note_on,56,0,396
2,note_on,54,0,0
2,note_on,60,0,0
2,note_on,49,60,0
2,note_on,49,0,480
2,note_on,61,52,0
2,note_on,53,44,0
2,note_on,56,44,0
2,note_on,56,0,404
2,note_on,53,0,0
2,note_on,61,0,0
2,note_on,39,70,0
2,note_on,39,0,464
2,note_on,58,51,0
2,note_on,51,51,0
2,note_on,61,61,0
2,note_on,61,0,464
2,note_on,51,0,0
2,note_on,58,0,0
2,note_on,44,76,0
2,note_on,44,0,452
2,note_on,56,53,0
2,note_on,60,63,0
2,note_on,51,53,0
2,note_on,51,0,376
2,note_on,60,0,0
2,note_on,56,0,0
2,note_on,44,34,0
2,note_on,51,50,0
2,note_on,51,0,460
2,note_on,56,60,0
2,note_on,56,0,720
2,note_on,55,50,0
2,note_on,55,0,240
2,note_on,44,0,0
2,note_on,53,50,0
2,note_on,49,34,0
2,note_on,53,0,332
2,note_on,61,60,0
2,note_on,61,0,720
2,note_on,60,50,0
2,note_on,60,0,240
2,note_on,49,0,0
2,note_on,58,50,0
2,note_on,51,34,0
2,note_on,58,0,339
2,note_on,63,60,0
2,note_on,63,0,720
2,note_on,61,50,0
2,note_on,61,0,240
2,note_on,51,0,0
2,note_on,56,34,0
2,note_on,60,50,0
2,note_on,60,0,388
2,note_on,63,60,0
2,note_on,63,0,396
2,note_on,56,0,0
2,note_on,44,55,0
2,note_on,51,65,0
2,note_on,51,0,464
2,note_on,56,73,0
2,note_on,56,0,720
2,note_on,55,60,0
2,note_on,55,0,240
2,note_on,44,0,0
2,note_on,53,67,0
2,note_on,49,56,0
2,note_on,53,0,324
2,note_on,61,76,0
2,note_on,61,0,720
2,note_on,60,66,0
2,note_on,60,0,240
2,note_on,49,0,0
2,note_on,58,71,0
2,note_on,51,60,0
2,note_on,58,0,346
2,note_on,63,79,0
2,note_on,63,0,720
2,note_on,61,69,0
2,note_on,61,0,240
2,note_on,51,0,0
2,note_on,56,61,0
2,note_on,60,73,0
2,note_on,60,0,353
2,note_on,63,82,0
2,note_on,63,0,720
2,note_on,60,72,0
2,note_on,60,0,240
2,note_on,56,0,0
2,note_on,58,77,0
2,note_on,51,66,0
2,note_on,58,0,353
2,note_on,63,84,0
2,note_on,63,0,720
2,note_on,61,79,0
2,note_on,61,0,240
2,note_on,51,0,0
2,note_on,56,66,0
2,note_on,60,78,0
2,note_on,60,0,353
2,note_on,63,83,0
2,note_on,63,0,720
2,note_on,60,76,0
2,note_on,60,0,240
2,note_on,56,0,0
2,note_on,60,76,0
2,note_on,53,63,0
2,note_on,60,0,343
2,note_on,65,82,0
2,note_on,65,0,720
2,note_on,63,72,0
2,note_on,63,0,240
2,note_on,53,0,0
2,note_on,58,64,0
2,note_on,61,76,0
2,note_on,61,0,360
2,note_on,65,82,0
2,note_on,65,0,720
2,note_on,61,72,0
2,note_on,61,0,240
2,note_on,58,0,0
2,note_on,53,62,0
2,note_on,60,75,0
2,note_on,60,0,377
2,note_on,65,81,0
2,note_on,65,0,720
2,note_on,63,72,0
2,note_on,63,0,240
2,note_on,53,0,0
2,note_on,58,59,0
2,note_on,61,77,0
2,note_on,61,0,367
2,note_on,65,81,0
2,note_on,65,0,720
2,note_on,61,73,0
2,note_on,61,0,240
2,note_on,58,0,0
2,note_on,63,77,0
2,note_on,56,59,0
2,note_on,63,0,324
2,note_on,68,81,0
2,note_on,68,0,720
2,note_on,66,73,0
2,note_on,66,0,240
2,note_on,56,0,0
2,note_on,61,67,0
2,note_on,65,80,0
2,note_on,65,0,339
2,note_on,68,83,0
2,note_on,68,0,720
2,note_on,65,75,0
2,note_on,65,0,240
2,note_on,61,0,0
2,note_on,63,78,0
2,note_on,56,66,0
2,note_on,63,0,346
2,note_on,68,84,0
2,note_on,68,0,720
2,note_on,66,76,0
2,note_on,66,0,240
2,note_on,56,0,0
2,note_on,61,85,0
2,note_on,65,85,0
2,note_on,65,0,310
2,note_on,61,0,0
2,note_on,68,84,2400
2,note_on,68,0,106
2,note_on,65,79,240
2,note_on,65,0,240
2,note_on,61,79,240
2,note_on,61,0,240
2,note_on,56,82,240
2,note_on,56,0,240
2,note_on,53,79,240
2,note_on,53,0,240
2,note_on,49,79,240
2,note_on,49,0,240
2,note_on,52,68,240
2,note_on,46,58,0
2,note_on,49,58,0
2,note_on,43,58,0
2,note_on,43,0,808
2,note_on,52,0,0
2,note_on,46,0,0
2,note_on,49,0,0
2,note_on,52,68,9
2,note_on,46,58,0
2,note_on,43,58,0
2,note_on,49,58,0
2,note_on,49,0,848
2,note_on,52,0,0
2,note_on,46,0,0
2,note_on,43,0,0
2,note_on,52,68,9
2,note_on,46,58,0
2,note_on,49,58,0
2,note_on,43,58,0
2,note_on,43,0,842
2,note_on,52,0,0
2,note_on,46,0,0
2,note_on,49,0,0
2,note_on,51,61,9
2,note_on,46,51,0
2,note_on,49,51,0
2,note_on,43,51,0
2,note_on,43,0,845
2,note_on,51,0,0
2,note_on,46,0,0
2,note_on,49,0,0
2,note_on,51,50,9
2,note_on,46,42,0
2,note_on,43,42,0
2,note_on,49,42,0
2,note_on,49,0,831
2,note_on,51,0,0
2,note_on,46,0,0
2,note_on,43,0,0
2,note_on,51,45,9
2,note_on,46,38,0
2,note_on,49,38,0
2,note_on,43,38,0
2,note_on,43,0,840
2,note_on,51,0,0
2,note_on,46,0,0
2,note_on,49,0,0
2,note_on,44,40,0
2,note_on,44,0,360
2,note_on,48,40,0
2,note_on,48,0,367
2,note_on,49,40,0
2,note_on,49,0,395
2,note_on,46,40,0
2,note_on,46,0,367
2,note_on,49,40,0
2,note_on,49,0,388
2,note_on,51,40,0
2,note_on,51,0,388
2,note_on,39,40,0
2,note_on,39,0,388
2,note_on,44,40,0
2,note_on,44,0,374
2,note_on,48,40,0
2,note_on,48,0,367
2,note_on,49,40,0
2,note_on,49,0,381
2,note_on,46,40,0
2,note_on,46,0,388
2,note_on,58,40,0
2,note_on,49,40,0
2,note_on,49,0,374
2,note_on,51,40,0
2,note_on,58,0,381
2,note_on,56,40,0
2,note_on,56,0,381
2,note_on,56,40,0
2,note_on,51,0,374
2,note_on,51,40,0
2,note_on,56,0,381
2,note_on,55,40,0
2,note_on,55,0,367
2,note_on,55,40,0
2,note_on,55,0,353
2,note_on,51,0,0
2,note_on,44,48,0
2,note_on,44,0,212
2,note_on,60,39,120
2,note_on,56,33,0
2,note_on,54,33,0
2,note_on,54,0,296
2,note_on,56,0,0
2,note_on,60,0,0
2,note_on,49,48,0
2,note_on,49,0,352
2,note_on,56,29,120
2,note_on,61,35,0
2,note_on,53,29,0
2,note_on,53,0,332
2,note_on,61,0,0
2,note_on,56,0,0
2,note_on,39,48,0
2,note_on,39,0,344
2,note_on,61,42,120
2,note_on,58,35,0
2,note_on,51,35,0
2,note_on,51,0,381
2,note_on,58,0,0
2,note_on,61,0,0
2,note_on,44,48,0
2,note_on,44,0,340
2,note_on,60,44,120
2,note_on,51,37,0
2,note_on,56,37,0
2,note_on,56,0,381
2,note_on,51,0,0
2,note_on,60,0,0
2,note_on,44,60,0
2,note_on,44,0,340
2,note_on,54,41,120
2,note_on,56,41,0
2,note_on,60,49,0
2,note_on,60,0,289
2,note_on,56,0,0
2,note_on,54,0,0
2,note_on,49,72,0
2,note_on,49,0,344
2,note_on,61,62,120
2,note_on,53,52,0
2,note_on,56,52,0
2,note_on,56,0,282
2,note_on,53,0,0
2,note_on,61,0,0
2,note_on,39,84,0
2,note_on,39,0,332
2,note_on,61,73,120
2,note_on,51,62,0
2,note_on,58,62,0
2,note_on,58,0,275
2,note_on,51,0,0
2,note_on,61,0,0
2,note_on,44,88,0
2,note_on,44,0,340
2,note_on,60,76,120
2,note_on,51,64,0
2,note_on,56,64,0
2,note_on,56,0,339
2,note_on,51,0,0
2,note_on,60,0,0
2,note_on,51,60,0
2,note_on,44,40,0
2,note_on,51,0,452
2,note_on,56,72,0
2,note_on,56,0,720
2,note_on,55,60,0
2,note_on,55,0,240
2,note_on,44,0,0
2,note_on,49,40,0
2,note_on,53,60,0
2,note_on,53,0,332
2,note_on,61,72,0
2,note_on,61,0,720
2,note_on,60,60,0
2,note_on,60,0,240
2,note_on,49,0,0
2,note_on,51,40,0
2,note_on,58,60,0
2,note_on,58,0,324
2,note_on,63,72,0
2,note_on,63,0,720
2,note_on,61,60,0
2,note_on,61,0,240
2,note_on,51,0,0
2,note_on,56,40,0
2,note_on,60,60,0
2,note_on,60,0,332
2,note_on,63,72,0
2,note_on,63,0,268
2,note_on,56,0,0
2,note_on,44,57,0
2,note_on,51,68,0
2,note_on,51,0,460
2,note_on,56,78,0
2,note_on,56,0,720
2,note_on,55,68,0
2,note_on,55,0,240
2,note_on,44,0,0
2,note_on,49,57,0
2,note_on,53,68,0
2,note_on,53,0,332
2,note_on,61,79,0
2,note_on,61,0,720
2,note_on,60,68,0
2,note_on,60,0,240
2,note_on,49,0,0
2,note_on,51,59,0
2,note_on,58,71,0
2,note_on,58,0,339
2,note_on,63,81,0
2,note_on,63,0,720
2,note_on,61,68,0
2,note_on,61,0,240
2,note_on,51,0,0
2,note_on,60,76,0
2,note_on,56,64,0
2,note_on,60,0,332
2,note_on,63,86,0
2,note_on,63,0,720
2,note_on,60,80,0
2,note_on,60,0,240
2,note_on,56,0,0
2,note_on,58,80,0
2,note_on,51,60,0
2,note_on,58,0,367
2,note_on,63,88,0
2,note_on,63,0,720
2,note_on,61,80,0
2,note_on,61,0,240
2,note_on,51,0,0
2,note_on,56,73,0
2,note_on,60,86,0
2,note_on,60,0,310
2,note_on,63,93,0
2,note_on,63,0,720
2,note_on,60,85,0
2,note_on,60,0,240
2,note_on,56,0,0
2,note_on,58,89,0
2,note_on,51,75,0
2,note_on,58,0,324
2,note_on,63,95,0
2,note_on,63,0,720
2,note_on,61,87,0
2,note_on,61,0,240
2,note_on,51,0,0
2,note_on,56,81,0
2,note_on,60,96,0
2,note_on,60,0,360
2,note_on,56,0,0
2,note_on,63,99,0
2,note_on,63,0,92
2,note_on,60,99,240
2,note_on,60,0,240
2,note_on,56,93,240
2,note_on,56,0,240
2,note_on,51,88,240
2,note_on,51,0,240
2,note_on,48,84,240
2,note_on,48,0,240
2,note_on,51,80,240
2,note_on,51,0,240
2,note_on,44,72,240
2,note_on,44,0,374
2,note_on,36,60,2400
2,note_on,48,60,0
2,note_on,44,60,0
2,note_on,44,0,2760
2,note_on,48,0,0
2,note_on,36,0,0
2,note_on,37,42,0
2,note_on,37,0,14
2,note_on,52,26,0
2,note_on,49,22,0
2,note_on,44,22,0
2,note_on,44,0,228
2,note_on,49,0,0
2,note_on,52,0,0
2,note_on,44,22,12
2,note_on,49,22,0
2,note_on,52,26,0
2,note_on,52,0,228
2,note_on,49,0,0
2,note_on,44,0,0
2,note_on,44,22,12
2,note_on,49,22,0
2,note_on,52,26,0
2,note_on,52,0,228
2,note_on,49,0,0
2,note_on,44,0,0
2,note_on,44,22,12
2,note_on,49,22,0
2,note_on,52,26,0
2,note_on,52,0,228
2,note_on,49,0,0
2,note_on,44,0,0
2,note_on,44,22,12
2,note_on,49,22,0
2,note_on,52,26,0
2,note_on,52,0,228
2,note_on,49,0,0
2,note_on,44,0,0
2,note_on,44,22,12
2,note_on,49,22,0
2,note_on,52,26,0
2,note_on,52,0,101
2,note_on,49,0,0
2,note_on,44,0,0
2,note_on,44,22,12
2,note_on,49,22,0
2,note_on,52,26,0
2,note_on,52,0,228
2,note_on,49,0,0
2,note_on,44,0,0
2,note_on,44,22,12
2,note_on,49,22,0
2,note_on,52,26,0
2,note_on,52,0,228
2,note_on,49,0,0
2,note_on,44,0,0
2,note_on,44,22,12
2,note_on,49,22,0
2,note_on,52,26,0
2,note_on,52,0,228
2,note_on,49,0,0
2,note_on,44,0,0
2,note_on,44,22,12
2,note_on,49,22,0
2,note_on,52,26,0
2,note_on,52,0,228
2,note_on,49,0,0
2,note_on,44,0,0
2,note_on,49,22,12
2,note_on,44,22,0
2,note_on,52,26,0
2,note_on,52,0,228
2,note_on,44,0,0
2,note_on,49,0,0
2,note_on,36,41,12
2,note_on,36,0,125
2,note_on,51,22,12
2,note_on,54,26,0
2,note_on,44,22,0
2,note_on,44,0,228
2,note_on,54,0,0
2,note_on,51,0,0
2,note_on,44,22,12
2,note_on,51,22,0
2,note_on,54,26,0
2,note_on,54,0,228
2,note_on,51,0,0
2,note_on,44,0,0
2,note_on,44,22,12
2,note_on,51,22,0
2,note_on,54,26,0
2,note_on,54,0,228
2,note_on,51,0,0
2,note_on,44,0,0
2,note_on,44,22,12
2,note_on,51,22,0
2,note_on,54,26,0
2,note_on,54,0,228
2,note_on,51,0,0
2,note_on,44,0,0
2,note_on,44,22,12
2,note_on,51,22,0
2,note_on,54,26,0
2,note_on,54,0,228
2,note_on,51,0,0
2,note_on,44,0,0
2,note_on,44,22,12
2,note_on,51,22,0
2,note_on,54,26,0
2,note_on,54,0,101
2,note_on,51,0,0
2,note_on,44,0,0
2,note_on,44,22,12
2,note_on,51,22,0
2,note_on,54,26,0
2,note_on,54,0,228
2,note_on,51,0,0
2,note_on,44,0,0
2,note_on,44,22,12
2,note_on,51,22,0
2,note_on,54,26,0
2,note_on,54,0,228
2,note_on,51,0,0
2,note_on,44,0,0
2,note_on,44,22,12
2,note_on,51,22,0
2,note_on,54,26,0
2,note_on,54,0,228
2,note_on,51,0,0
2,note_on,44,0,0
2,note_on,51,22,12
2,note_on,44,22,0
2,note_on,54,26,0
2,note_on,54,0,228
2,note_on,44,0,0
2,note_on,51,0,0
2,note_on,44,22,12
2,note_on,51,22,0
2,note_on,54,26,0
2,note_on,54,0,228
2,note_on,51,0,0
2,note_on,44,0,0
2,note_on,37,40,12
2,note_on,37,0,72
2,note_on,52,26,12
2,note_on,49,22,0
2,note_on,44,22,0
2,note_on,44,0,228
2,note_on,49,0,0
2,note_on,52,0,0
2,note_on,44,22,12
2,note_on,49,22,0
2,note_on,52,26,0
2,note_on,52,0,228
2,note_on,49,0,0
2,note_on,44,0,0
2,note_on,44,22,12
2,note_on,49,22,0
2,note_on,52,26,0
2,note_on,52,0,228
2,note_on,49,0,0
2,note_on,44,0,0
2,note_on,44,22,12
2,note_on,49,22,0
2,note_on,52,26,0
2,note_on,52,0,228
2,note_on,49,0,0
2,note_on,44,0,0
2,note_on,44,22,12
2,note_on,49,22,0
2,note_on,52,26,0
2,note_on,52,0,228
2,note_on,49,0,0
2,note_on,44,0,0
2,note_on,44,22,0
2,note_on,49,22,0
2,note_on,52,26,0
2,note_on,52,0,101
2,note_on,49,0,0
2,note_on,44,0,0
2,note_on,44,22,12
2,note_on,49,22,0
2,note_on,52,26,0
2,note_on,52,0,228
2,note_on,49,0,0
2,note_on,44,0,0
2,note_on,44,22,12
2,note_on,49,22,0
2,note_on,52,26,0
2,note_on,52,0,228
2,note_on,49,0,0
2,note_on,44,0,0
2,note_on,44,22,12
2,note_on,49,22,0
2,note_on,52,26,0
2,note_on,52,0,228
2,note_on,49,0,0
2,note_on,44,0,0
2,note_on,44,22,12
2,note_on,49,22,0
2,note_on,52,26,0
2,note_on,52,0,228
2,note_on,49,0,0
2,note_on,44,0,0
2,note_on,49,22,12
2,note_on,44,22,0
2,note_on,52,26,0
2,note_on,52,0,228
2,note_on,44,0,0
2,note_on,49,0,0
2,note_on,39,39,0
2,note_on,39,0,228
2,note_on,51,22,0
2,note_on,54,26,0
2,note_on,44,22,0
2,note_on,44,0,228
2,note_on,54,0,0
2,note_on,51,0,0
2,note_on,44,22,12
2,note_on,51,22,0
2,note_on,54,26,0
2,note_on,54,0,228
2,note_on,51,0,0
2,note_on,44,0,0
2,note_on,44,22,12
2,note_on,51,22,0
2,note_on,54,26,0
2,note_on,54,0,228
2,note_on,51,0,0
2,note_on,44,0,0
2,note_on,44,22,12
2,note_on,51,22,0
2,note_on,54,26,0
2,note_on,54,0,228
2,note_on,51,0,0
2,note_on,44,0,0
2,note_on,44,22,12
2,note_on,51,22,0
2,note_on,54,26,0
2,note_on,54,0,228
2,note_on,51,0,0
2,note_on,44,0,0
2,note_on,44,22,12
2,note_on,51,22,0
2,note_on,54,26,0
2,note_on,54,0,125
2,note_on,51,0,0
2,note_on,44,0,0
2,note_on,44,22,12
2,note_on,51,22,0
2,note_on,54,26,0
2,note_on,54,0,228
2,note_on,51,0,0
2,note_on,44,0,0
2,note_on,44,22,12
2,note_on,51,22,0
2,note_on,54,26,0
2,note_on,54,0,228
2,note_on,51,0,0
2,note_on,44,0,0
2,note_on,44,22,12
2,note_on,51,22,0
2,note_on,54,26,0
2,note_on,54,0,228
2,note_on,51,0,0
2,note_on,44,0,0
2,note_on,51,22,12
2,note_on,44,22,0
2,note_on,54,26,0
2,note_on,54,0,228
2,note_on,44,0,0
2,note_on,51,0,0
2,note_on,44,22,12
2,note_on,51,22,0
2,note_on,54,26,0
2,note_on,54,0,228
2,note_on,51,0,0
2,note_on,44,0,0
2,note_on,40,42,12
2,note_on,40,0,125
2,note_on,52,35,12
2,note_on,45,29,0
2,note_on,45,0,228
2,note_on,52,0,0
2,note_on,45,29,12
2,note_on,52,35,0
2,note_on,52,0,33
2,note_on,45,0,0
2,note_on,45,29,12
2,note_on,52,35,0
2,note_on,52,0,228
2,note_on,45,0,0
2,note_on,45,29,12
2,note_on,52,35,0
2,note_on,52,0,228
2,note_on,45,0,0
2,note_on,45,29,12
2,note_on,52,35,0
2,note_on,52,0,228
2,note_on,45,0,0
2,note_on,52,35,12
2,note_on,45,29,0
2,note_on,45,0,228
2,note_on,52,0,0
2,note_on,45,29,12
2,note_on,52,35,0
2,note_on,52,0,228
2,note_on,45,0,0
2,note_on,40,35,12
2,note_on,52,35,240
2,note_on,45,29,0
2,note_on,45,0,228
2,note_on,52,0,0
2,note_on,40,0,12
2,note_on,40,35,0
2,note_on,52,35,240
2,note_on,45,29,0
2,note_on,45,0,228
2,note_on,52,0,0
2,note_on,40,0,12
2,note_on,35,52,0
2,note_on,35,0,102
2,note_on,47,44,12
2,note_on,40,37,0
2,note_on,40,0,228
2,note_on,47,0,0
2,note_on,40,37,12
2,note_on,47,44,0
2,note_on,47,0,33
2,note_on,40,0,0
2,note_on,40,37,12
2,note_on,47,44,0
2,note_on,47,0,228
2,note_on,40,0,0
2,note_on,47,44,12
2,note_on,40,37,0
2,note_on,40,0,228
2,note_on,47,0,0
2,note_on,40,37,12
2,note_on,47,44,0
2,note_on,47,0,228
2,note_on,40,0,0
2,note_on,40,37,12
2,note_on,47,44,0
2,note_on,47,0,228
2,note_on,40,0,0
2,note_on,40,37,12
2,note_on,47,44,0
2,note_on,47,0,228
2,note_on,40,0,0
2,note_on,35,44,12
2,note_on,40,37,125
2,note_on,47,44,0
2,note_on,47,0,240
2,note_on,40,0,0
2,note_on,35,0,0
2,note_on,40,44,0
2,note_on,52,44,240
2,note_on,47,37,0
2,note_on,47,0,240
2,note_on,52,0,0
2,note_on,40,0,0
2,note_on,39,61,0
2,note_on,51,45,141
2,note_on,47,39,0
2,note_on,47,0,228
2,note_on,51,0,0
2,note_on,47,39,12
2,note_on,51,45,0
2,note_on,51,0,44
2,note_on,47,0,0
2,note_on,47,39,12
2,note_on,51,46,0
2,note_on,51,0,228
2,note_on,47,0,0
2,note_on,47,46,12
2,note_on,51,46,0
2,note_on,51,0,228
2,note_on,47,0,0
2,note_on,47,39,12
2,note_on,51,46,0
2,note_on,51,0,228
2,note_on,47,0,0
2,note_on,39,0,12
2,note_on,39,61,0
2,note_on,49,39,149
2,note_on,51,46,0
2,note_on,46,39,0
2,note_on,46,0,228
2,note_on,51,0,0
2,note_on,49,0,0
2,note_on,51,46,12
2,note_on,49,39,0
2,note_on,46,39,0
2,note_on,46,0,112
2,note_on,49,0,0
2,note_on,51,0,0
2,note_on,51,46,12
2,note_on,49,39,0
2,note_on,46,39,0
2,note_on,46,0,228
2,note_on,49,0,0
2,note_on,51,0,0
2,note_on,51,45,12
2,note_on,49,45,0
2,note_on,46,39,0
2,note_on,46,0,228
2,note_on,49,0,0
2,note_on,51,0,0
2,note_on,51,45,12
2,note_on,49,45,0
2,note_on,46,45,0
2,note_on,46,0,228
2,note_on,49,0,0
2,note_on,51,0,0
2,note_on,39,0,12
2,note_on,44,52,0
2,note_on,51,26,84
2,note_on,47,22,0
2,note_on,47,0,228
2,note_on,51,0,0
2,note_on,51,26,12
2,note_on,47,22,0
2,note_on,47,0,228
2,note_on,51,0,0
2,note_on,51,26,12
2,note_on,47,22,0
2,note_on,47,0,228
2,note_on,51,0,0
2,note_on,51,26,12
2,note_on,47,26,0
2,note_on,47,0,228
2,note_on,51,0,0
2,note_on,51,26,12
2,note_on,47,22,0
2,note_on,47,0,228
2,note_on,51,0,0
2,note_on,44,0,12
2,note_on,44,52,0
2,note_on,51,22,114
2,note_on,54,26,0
2,note_on,54,0,228
2,note_on,51,0,0
2,note_on,54,29,12
2,note_on,51,24,0
2,note_on,51,0,228
2,note_on,54,0,0
2,note_on,54,35,12
2,note_on,51,29,0
2,note_on,51,0,228
2,note_on,54,0,0
2,note_on,54,35,12
2,note_on,51,29,0
2,note_on,51,0,228
2,note_on,54,0,0
2,note_on,54,29,12
2,note_on,51,24,0
2,note_on,51,0,228
2,note_on,54,0,0
2,note_on,44,0,12
2,note_on,37,42,0
2,note_on,37,0,44
2,note_on,52,26,12
2,note_on,49,22,0
2,note_on,44,22,0
2,note_on,44,0,228
2,note_on,49,0,0
2,note_on,52,0,0
2,note_on,44,22,12
2,note_on,49,22,0
2,note_on,52,26,0
2,note_on,52,0,228
2,note_on,49,0,0
2,note_on,44,0,0
2,note_on,44,22,12
2,note_on,49,22,0
2,note_on,52,26,0
2,note_on,52,0,228
2,note_on,49,0,0
2,note_on,44,0,0
2,note_on,44,22,12
2,note_on,49,22,0
2,note_on,52,26,0
2,note_on,52,0,228
2,note_on,49,0,0
2,note_on,44,0,0
2,note_on,44,22,12
2,note_on,49,22,0
2,note_on,52,26,0
2,note_on,52,0,228
2,note_on,49,0,0
2,note_on,44,0,0
2,note_on,44,22,12
2,note_on,49,22,0
2,note_on,52,26,0
2,note_on,52,0,72
2,note_on,49,0,0
2,note_on,44,0,0
2,note_on,44,22,12
2,note_on,49,22,0
2,note_on,52,26,0
2,note_on,52,0,228
2,note_on,49,0,0
2,note_on,44,0,0
2,note_on,44,22,12
2,note_on,49,22,0
2,note_on,52,26,0
2,note_on,52,0,228
2,note_on,49,0,0
2,note_on,44,0,0
2,note_on,44,22,12
2,note_on,49,22,0
2,note_on,52,26,0
2,note_on,52,0,228
2,note_on,49,0,0
2,note_on,44,0,0
2,note_on,44,22,12
2,note_on,49,22,0
2,note_on,52,26,0
2,note_on,52,0,228
2,note_on,49,0,0
2,note_on,44,0,0
2,note_on,49,22,12
2,note_on,44,22,0
2,note_on,52,26,0
2,note_on,52,0,228
2,note_on,44,0,0
2,note_on,49,0,0
2,note_on,36,41,12
2,note_on,36,0,22
2,note_on,51,22,12
2,note_on,54,26,0
2,note_on,44,22,0
2,note_on,44,0,228
2,note_on,54,0,0
2,note_on,51,0,0
2,note_on,44,22,12
2,note_on,51,22,0
2,note_on,54,26,0
2,note_on,54,0,228
2,note_on,51,0,0
2,note_on,44,0,0
2,note_on,44,22,12
2,note_on,51,22,0
2,note_on,54,26,0
2,note_on,54,0,228
2,note_on,51,0,0
2,note_on,44,0,0
2,note_on,44,22,12
2,note_on,51,22,0
2,note_on,54,26,0
2,note_on,54,0,228
2,note_on,51,0,0
2,note_on,44,0,0
2,note_on,44,22,12
2,note_on,51,22,0
2,note_on,54,26,0
2,note_on,54,0,228
2,note_on,51,0,0
2,note_on,44,0,0
2,note_on,44,22,12
2,note_on,51,22,0
2,note_on,54,26,0
2,note_on,54,0,44
2,note_on,51,0,0
2,note_on,44,0,0
2,note_on,44,22,12
2,note_on,51,22,0
2,note_on,54,26,0
2,note_on,54,0,228
2,note_on,51,0,0
2,note_on,44,0,0
2,note_on,44,22,12
2,note_on,51,22,0
2,note_on,54,26,0
2,note_on,54,0,228
2,note_on,51,0,0
2,note_on,44,0,0
2,note_on,44,22,12
2,note_on,51,22,0
2,note_on,54,26,0
2,note_on,54,0,228
2,note_on,51,0,0
2,note_on,44,0,0
2,note_on,51,22,12
2,note_on,44,22,0
2,note_on,54,26,0
2,note_on,54,0,228
2,note_on,44,0,0
2,note_on,51,0,0
2,note_on,44,22,12
2,note_on,51,22,0
2,note_on,54,26,0
2,note_on,54,0,228
2,note_on,51,0,0
2,note_on,44,0,0
2,note_on,37,40,12
2,note_on,37,0,16
2,note_on,52,26,12
2,note_on,49,22,0
2,note_on,44,22,0
2,note_on,44,0,228
2,note_on,49,0,0
2,note_on,52,0,0
2,note_on,44,22,12
2,note_on,49,22,0
2,note_on,52,26,0
2,note_on,52,0,228
2,note_on,49,0,0
2,note_on,44,0,0
2,note_on,44,22,12
2,note_on,49,22,0
2,note_on,52,26,0
2,note_on,52,0,228
2,note_on,49,0,0
2,note_on,44,0,0
2,note_on,44,22,12
2,note_on,49,22,0
2,note_on,52,26,0
2,note_on,52,0,228
2,note_on,49,0,0
2,note_on,44,0,0
2,note_on,44,22,12
2,note_on,49,22,0
2,note_on,52,26,0
2,note_on,52,0,228
2,note_on,49,0,0
2,note_on,44,0,0
2,note_on,44,22,12
2,note_on,49,22,0
2,note_on,52,26,0
2,note_on,52,0,101
2,note_on,49,0,0
2,note_on,44,0,0
2,note_on,44,22,12
2,note_on,49,22,0
2,note_on,52,26,0
2,note_on,52,0,228
2,note_on,49,0,0
2,note_on,44,0,0
2,note_on,44,22,12
2,note_on,49,22,0
2,note_on,52,26,0
2,note_on,52,0,228
2,note_on,49,0,0
2,note_on,44,0,0
2,note_on,44,22,12
2,note_on,49,22,0
2,note_on,52,26,0
2,note_on,52,0,228
2,note_on,49,0,0
2,note_on,44,0,0
2,note_on,44,22,12
2,note_on,49,22,0
2,note_on,52,26,0
2,note_on,52,0,228
2,note_on,49,0,0
2,note_on,44,0,0
2,note_on,49,22,12
2,note_on,44,22,0
2,note_on,52,26,0
2,note_on,52,0,228
2,note_on,44,0,0
2,note_on,49,0,0
2,note_on,39,39,12
2,note_on,39,0,30
2,note_on,51,22,12
2,note_on,54,26,0
2,note_on,44,22,0
2,note_on,44,0,228
2,note_on,54,0,0
2,note_on,51,0,0
2,note_on,44,22,12
2,note_on,51,22,0
2,note_on,54,26,0
2,note_on,54,0,228
2,note_on,51,0,0
2,note_on,44,0,0
2,note_on,44,22,12
2,note_on,51,22,0
2,note_on,54,26,0
2,note_on,54,0,228
2,note_on,51,0,0
2,note_on,44,0,0
2,note_on,44,22,12
2,note_on,51,22,0
2,note_on,54,26,0
2,note_on,54,0,228
2,note_on,51,0,0
2,note_on,44,0,0
2,note_on,44,22,12
2,note_on,51,22,0
2,note_on,54,26,0
2,note_on,54,0,228
2,note_on,51,0,0
2,note_on,44,0,0
2,note_on,44,22,12
2,note_on,51,22,0
2,note_on,54,26,0
2,note_on,54,0,68
2,note_on,51,0,0
2,note_on,44,0,0
2,note_on,44,22,12
2,note_on,51,22,0
2,note_on,54,26,0
2,note_on,54,0,228
2,note_on,51,0,0
2,note_on,44,0,0
2,note_on,44,22,12
2,note_on,51,22,0
2,note_on,54,26,0
2,note_on,54,0,228
2,note_on,51,0,0
2,note_on,44,0,0
2,note_on,44,22,12
2,note_on,51,22,0
2,note_on,54,26,0
2,note_on,54,0,228
2,note_on,51,0,0
2,note_on,44,0,0
2,note_on,51,22,12
2,note_on,44,22,0
2,note_on,54,26,0
2,note_on,54,0,228
2,note_on,44,0,0
2,note_on,51,0,0
2,note_on,44,22,12
2,note_on,51,22,0
2,note_on,54,26,0
2,note_on,54,0,228
2,note_on,51,0,0
2,note_on,44,0,0
2,note_on,40,42,12
2,note_on,40,0,113
2,note_on,52,35,12
2,note_on,45,29,0
2,note_on,45,0,228
2,note_on,52,0,0
2,note_on,45,29,12
2,note_on,52,35,0
2,note_on,52,0,33
2,note_on,45,0,0
2,note_on,45,29,12
2,note_on,52,35,0
2,note_on,52,0,228
2,note_on,45,0,0
2,note_on,45,29,12
2,note_on,52,35,0
2,note_on,52,0,228
2,note_on,45,0,0
2,note_on,45,29,12
2,note_on,52,35,0
2,note_on,52,0,228
2,note_on,45,0,0
2,note_on,52,35,12
2,note_on,45,29,0
2,note_on,45,0,240
2,note_on,52,0,0
2,note_on,45,29,0
2,note_on,52,35,0
2,note_on,52,0,240
2,note_on,45,0,0
2,note_on,40,35,0
2,note_on,52,35,240
2,note_on,45,29,0
2,note_on,45,0,240
2,note_on,52,0,0
2,note_on,40,0,0
2,note_on,40,35,0
2,note_on,52,35,240
2,note_on,45,29,0
2,note_on,45,0,240
2,note_on,52,0,0
2,note_on,40,0,0
2,note_on,35,52,0
2,note_on,35,0,79
2,note_on,47,44,12
2,note_on,40,37,0
2,note_on,40,0,228
2,note_on,47,0,0
2,note_on,40,37,12
2,note_on,47,44,0
2,note_on,47,0,68
2,note_on,40,0,0
2,note_on,40,37,12
2,note_on,47,44,0
2,note_on,47,0,228
2,note_on,40,0,0
2,note_on,47,44,12
2,note_on,40,37,0
2,note_on,40,0,228
2,note_on,47,0,0
2,note_on,40,37,12
2,note_on,47,44,0
2,note_on,47,0,228
2,note_on,40,0,0
2,note_on,40,37,12
2,note_on,47,44,0
2,note_on,47,0,228
2,note_on,40,0,0
2,note_on,40,37,12
2,note_on,47,44,0
2,note_on,47,0,228
2,note_on,40,0,0
2,note_on,35,44,12
2,note_on,40,37,34
2,note_on,47,44,0
2,note_on,47,0,240
2,note_on,40,0,0
2,note_on,35,0,0
2,note_on,40,44,0
2,note_on,52,44,240
2,note_on,47,44,0
2,note_on,47,0,240
2,note_on,52,0,0
2,note_on,40,0,0
2,note_on,39,61,0
2,note_on,51,45,70
2,note_on,47,39,0
2,note_on,47,0,228
2,note_on,51,0,0
2,note_on,47,39,12
2,note_on,51,45,0
2,note_on,51,0,228
2,note_on,47,0,0
2,note_on,47,39,12
2,note_on,51,46,0
2,note_on,51,0,228
2,note_on,47,0,0
2,note_on,47,39,12
2,note_on,51,46,0
2,note_on,51,0,228
2,note_on,47,0,0
2,note_on,47,39,12
2,note_on,51,46,0
2,note_on,51,0,240
2,note_on,47,0,0
2,note_on,39,0,0
2,note_on,39,61,0
2,note_on,49,39,124
2,note_on,51,46,0
2,note_on,46,39,0
2,note_on,46,0,228
2,note_on,51,0,0
2,note_on,49,0,0
2,note_on,51,46,12
2,note_on,49,39,0
2,note_on,46,39,0
2,note_on,46,0,112
2,note_on,49,0,0
2,note_on,51,0,0
2,note_on,51,46,12
2,note_on,49,39,0
2,note_on,46,39,0
2,note_on,46,0,228
2,note_on,49,0,0
2,note_on,51,0,0
2,note_on,51,45,12
2,note_on,49,39,0
2,note_on,46,39,0
2,note_on,46,0,228
2,note_on,49,0,0
2,note_on,51,0,0
2,note_on,51,45,12
2,note_on,49,39,0
2,note_on,46,39,0
2,note_on,46,0,228
2,note_on,49,0,0
2,note_on,51,0,0
2,note_on,39,0,12
2,note_on,44,52,0
2,note_on,56,26,14
2,note_on,51,22,0
2,note_on,51,0,228
2,note_on,56,0,0
2,note_on,56,26,12
2,note_on,51,22,0
2,note_on,51,0,228
2,note_on,56,0,0
2,note_on,56,26,12
2,note_on,51,22,0
2,note_on,51,0,228
2,note_on,56,0,0
2,note_on,56,26,12
2,note_on,51,22,0
2,note_on,51,0,228
2,note_on,56,0,0
2,note_on,56,26,12
2,note_on,51,22,0
2,note_on,51,0,228
2,note_on,56,0,0
2,note_on,51,22,12
2,note_on,56,26,0
2,note_on,56,0,228
2,note_on,51,0,0
2,note_on,51,22,12
2,note_on,56,26,0
2,note_on,56,0,228
2,note_on,51,0,0
2,note_on,44,0,12
2,note_on,44,26,0
2,note_on,51,22,240
2,note_on,56,26,0
2,note_on,56,0,240
2,note_on,51,0,0
2,note_on,44,0,0
2,note_on,44,26,0
2,note_on,51,22,240
2,note_on,56,26,0
2,note_on,56,0,240
2,note_on,51,0,0
2,note_on,44,0,0
2,note_on,32,26,0
2,note_on,32,0,79
2,note_on,54,26,12
2,note_on,51,22,0
2,note_on,44,22,0
2,note_on,44,0,228
2,note_on,51,0,0
2,note_on,54,0,0
2,note_on,54,26,12
2,note_on,51,22,0
2,note_on,44,22,0
2,note_on,44,0,79
2,note_on,51,0,0
2,note_on,54,0,0
2,note_on,54,26,12
2,note_on,51,22,0
2,note_on,44,22,0
2,note_on,44,0,228
2,note_on,51,0,0
2,note_on,54,0,0
2,note_on,44,22,12
2,note_on,51,22,0
2,note_on,54,26,0
2,note_on,54,0,228
2,note_on,51,0,0
2,note_on,44,0,0
2,note_on,51,22,12
2,note_on,44,22,0
2,note_on,54,26,0
2,note_on,54,0,228
2,note_on,44,0,0
2,note_on,51,0,0
2,note_on,44,22,12
2,note_on,51,22,0
2,note_on,54,26,0
2,note_on,54,0,228
2,note_on,51,0,0
2,note_on,44,0,0
2,note_on,54,26,12
2,note_on,51,22,0
2,note_on,44,22,0
2,note_on,44,0,228
2,note_on,51,0,0
2,note_on,54,0,0
2,note_on,54,26,12
2,note_on,51,22,0
2,note_on,44,22,0
2,note_on,44,0,228
2,note_on,51,0,0
2,note_on,54,0,0
2,note_on,54,26,12
2,note_on,51,22,0
2,note_on,44,22,0
2,note_on,44,0,228
2,note_on,51,0,0
2,note_on,54,0,0
2,note_on,44,22,12
2,note_on,51,22,0
2,note_on,54,26,0
2,note_on,54,0,228
2,note_on,51,0,0
2,note_on,44,0,0
2,note_on,51,22,12
2,note_on,44,22,0
2,note_on,54,26,0
2,note_on,54,0,228
2,note_on,44,0,0
2,note_on,51,0,0
2,note_on,32,26,12
2,note_on,32,0,225
2,note_on,52,26,12
2,note_on,49,22,0
2,note_on,44,22,0
2,note_on,44,0,214
2,note_on,49,0,0
2,note_on,52,0,0
2,note_on,44,24,12
2,note_on,49,24,0
2,note_on,52,28,0
2,note_on,52,0,228
2,note_on,49,0,0
2,note_on,44,0,0
2,note_on,44,24,12
2,note_on,49,24,0
2,note_on,52,29,0
2,note_on,52,0,228
2,note_on,49,0,0
2,note_on,44,0,0
2,note_on,44,26,12
2,note_on,49,26,0
2,note_on,52,30,0
2,note_on,52,0,228
2,note_on,49,0,0
2,note_on,44,0,0
2,note_on,52,31,12
2,note_on,44,26,0
2,note_on,49,26,0
2,note_on,49,0,228
2,note_on,44,0,0
2,note_on,52,0,0
2,note_on,44,28,12
2,note_on,49,28,0
2,note_on,52,34,0
2,note_on,52,0,228
2,note_on,49,0,0
2,note_on,44,0,0
2,note_on,49,29,12
2,note_on,44,29,0
2,note_on,52,35,0
2,note_on,52,0,228
2,note_on,44,0,0
2,note_on,49,0,0
2,note_on,44,30,12
2,note_on,49,30,0
2,note_on,52,36,0
2,note_on,52,0,228
2,note_on,49,0,0
2,note_on,44,0,0
2,note_on,52,37,12
2,note_on,44,30,0
2,note_on,49,30,0
2,note_on,49,0,228
2,note_on,44,0,0
2,note_on,52,0,0
2,note_on,44,33,12
2,note_on,49,33,0
2,note_on,52,39,0
2,note_on,52,0,228
2,note_on,49,0,0
2,note_on,44,0,0
2,note_on,52,39,12
2,note_on,44,34,0
2,note_on,49,34,0
2,note_on,49,0,228
2,note_on,44,0,0
2,note_on,52,0,0
2,note_on,33,47,12
2,note_on,33,0,68
2,note_on,52,42,12
2,note_on,49,35,0
2,note_on,45,35,0
2,note_on,45,0,228
2,note_on,49,0,0
2,note_on,52,0,0
2,note_on,45,38,12
2,note_on,49,38,0
2,note_on,52,45,0
2,note_on,52,0,22
2,note_on,49,0,0
2,note_on,45,0,0
2,note_on,52,44,12
2,note_on,45,36,0
2,note_on,49,36,0
2,note_on,49,0,228
2,note_on,45,0,0
2,note_on,52,0,0
2,note_on,52,40,12
2,note_on,45,34,0
2,note_on,49,34,0
2,note_on,49,0,228
2,note_on,45,0,0
2,note_on,52,0,0
2,note_on,52,39,12
2,note_on,45,33,0
2,note_on,49,33,0
2,note_on,49,0,228
2,note_on,45,0,0
2,note_on,52,0,0
2,note_on,52,37,12
2,note_on,45,30,0
2,note_on,49,30,0
2,note_on,49,0,228
2,note_on,45,0,0
2,note_on,52,0,0
2,note_on,45,29,12
2,note_on,49,29,0
2,note_on,52,35,0
2,note_on,52,0,228
2,note_on,49,0,0
2,note_on,45,0,0
2,note_on,51,34,12
2,note_on,45,28,0
2,note_on,45,0,87
2,note_on,51,0,0
2,note_on,51,31,12
2,note_on,45,26,0
2,note_on,45,0,228
2,note_on,51,0,0
2,note_on,51,30,12
2,note_on,45,25,0
2,note_on,45,0,228
2,note_on,51,0,0
2,note_on,51,28,12
2,note_on,45,24,0
2,note_on,45,0,228
2,note_on,51,0,0
2,note_on,32,26,12
2,note_on,32,0,222
2,note_on,44,26,0
2,note_on,44,0,228
2,note_on,48,22,12
2,note_on,51,26,0
2,note_on,44,22,0
2,note_on,44,0,228
2,note_on,51,0,0
2,note_on,48,0,0
2,note_on,48,22,12
2,note_on,51,26,0
2,note_on,44,22,0
2,note_on,44,0,228
2,note_on,51,0,0
2,note_on,48,0,0
2,note_on,48,22,12
2,note_on,51,26,0
2,note_on,44,22,0
2,note_on,44,0,228
2,note_on,51,0,0
2,note_on,48,0,0
2,note_on,48,22,12
2,note_on,51,26,0
2,note_on,44,22,0
2,note_on,44,0,228
2,note_on,51,0,0
2,note_on,48,0,0
2,note_on,48,22,12
2,note_on,51,26,0
2,note_on,44,22,0
2,note_on,44,0,228
2,note_on,51,0,0
2,note_on,48,0,0
2,note_on,48,22,12
2,note_on,51,26,0
2,note_on,44,22,0
2,note_on,44,0,228
2,note_on,51,0,0
2,note_on,48,0,0
2,note_on,48,22,12
2,note_on,51,26,0
2,note_on,44,22,0
2,note_on,44,0,228
2,note_on,51,0,0
2,note_on,48,0,0
2,note_on,48,22,12
2,note_on,51,26,0
2,note_on,44,22,0
2,note_on,44,0,228
2,note_on,51,0,0
2,note_on,48,0,0
2,note_on,48,22,12
2,note_on,51,26,0
2,note_on,44,22,0
2,note_on,44,0,228
2,note_on,51,0,0
2,note_on,48,0,0
2,note_on,48,22,12
2,note_on,51,26,0
2,note_on,44,22,0
2,note_on,44,0,228
2,note_on,51,0,0
2,note_on,48,0,0
2,note_on,32,26,12
2,note_on,32,0,91
2,note_on,54,26,12
2,note_on,51,22,0
2,note_on,44,22,0
2,note_on,44,0,228
2,note_on,51,0,0
2,note_on,54,0,0
2,note_on,54,26,12
2,note_on,51,22,0
2,note_on,44,22,0
2,note_on,44,0,11
2,note_on,51,0,0
2,note_on,54,0,0
2,note_on,54,26,12
2,note_on,51,22,0
2,note_on,44,22,0
2,note_on,44,0,228
2,note_on,51,0,0
2,note_on,54,0,0
2,note_on,44,22,12
2,note_on,51,22,0
2,note_on,54,26,0
2,note_on,54,0,228
2,note_on,51,0,0
2,note_on,44,0,0
2,note_on,51,22,12
2,note_on,44,22,0
2,note_on,54,26,0
2,note_on,54,0,228
2,note_on,44,0,0
2,note_on,51,0,0
2,note_on,44,22,12
2,note_on,51,22,0
2,note_on,54,26,0
2,note_on,54,0,228
2,note_on,51,0,0
2,note_on,44,0,0
2,note_on,54,26,12
2,note_on,51,22,0
2,note_on,44,22,0
2,note_on,44,0,228
2,note_on,51,0,0
2,note_on,54,0,0
2,note_on,54,26,12
2,note_on,51,22,0
2,note_on,44,22,0
2,note_on,44,0,45
2,note_on,51,0,0
2,note_on,54,0,0
2,note_on,54,26,12
2,note_on,51,22,0
2,note_on,44,22,0
2,note_on,44,0,228
2,note_on,51,0,0
2,note_on,54,0,0
2,note_on,44,22,12
2,note_on,51,22,0
2,note_on,54,26,0
2,note_on,54,0,228
2,note_on,51,0,0
2,note_on,44,0,0
2,note_on,51,22,12
2,note_on,44,22,0
2,note_on,54,26,0
2,note_on,54,0,228
2,note_on,44,0,0
2,note_on,51,0,0
2,note_on,32,26,12
2,note_on,32,0,225
2,note_on,52,26,12
2,note_on,49,22,0
2,note_on,44,22,0
2,note_on,44,0,171
2,note_on,49,0,0
2,note_on,52,0,0
2,note_on,44,22,12
2,note_on,49,22,0
2,note_on,52,26,0
2,note_on,52,0,228
2,note_on,49,0,0
2,note_on,44,0,0
2,note_on,44,22,12
2,note_on,49,22,0
2,note_on,52,26,0
2,note_on,52,0,228
2,note_on,49,0,0
2,note_on,44,0,0
2,note_on,44,22,12
2,note_on,49,22,0
2,note_on,52,26,0
2,note_on,52,0,228
2,note_on,49,0,0
2,note_on,44,0,0
2,note_on,44,22,12
2,note_on,49,22,0
2,note_on,52,26,0
2,note_on,52,0,228
2,note_on,49,0,0
2,note_on,44,0,0
2,note_on,44,22,12
2,note_on,49,22,0
2,note_on,52,26,0
2,note_on,52,0,228
2,note_on,49,0,0
2,note_on,44,0,0
2,note_on,49,24,12
2,note_on,44,24,0
2,note_on,52,28,0
2,note_on,52,0,228
2,note_on,44,0,0
2,note_on,49,0,0
2,note_on,44,26,12
2,note_on,49,26,0
2,note_on,52,30,0
2,note_on,52,0,228
2,note_on,49,0,0
2,note_on,44,0,0
2,note_on,44,29,12
2,note_on,49,29,0
2,note_on,52,35,0
2,note_on,52,0,228
2,note_on,49,0,0
2,note_on,44,0,0
2,note_on,44,30,12
2,note_on,49,30,0
2,note_on,52,37,0
2,note_on,52,0,228
2,note_on,49,0,0
2,note_on,44,0,0
2,note_on,44,34,12
2,note_on,49,34,0
2,note_on,52,39,0
2,note_on,52,0,228
2,note_on,49,0,0
2,note_on,44,0,0
2,note_on,33,41,12
2,note_on,33,0,91
2,note_on,52,41,12
2,note_on,49,35,0
2,note_on,45,35,0
2,note_on,45,0,228
2,note_on,49,0,0
2,note_on,52,0,0
2,note_on,45,36,12
2,note_on,49,36,0
2,note_on,52,44,0
2,note_on,52,0,79
2,note_on,49,0,0
2,note_on,45,0,0
2,note_on,45,35,12
2,note_on,49,35,0
2,note_on,52,42,0
2,note_on,52,0,228
2,note_on,49,0,0
2,note_on,45,0,0
2,note_on,45,34,12
2,note_on,49,34,0
2,note_on,52,40,0
2,note_on,52,0,228
2,note_on,49,0,0
2,note_on,45,0,0
2,note_on,45,33,12
2,note_on,49,33,0
2,note_on,52,39,0
2,note_on,52,0,228
2,note_on,49,0,0
2,note_on,45,0,0
2,note_on,45,30,12
2,note_on,49,30,0
2,note_on,52,37,0
2,note_on,52,0,228
2,note_on,49,0,0
2,note_on,45,0,0
2,note_on,45,29,12
2,note_on,49,29,0
2,note_on,52,35,0
2,note_on,52,0,228
2,note_on,49,0,0
2,note_on,45,0,0
2,note_on,45,28,12
2,note_on,49,28,0
2,note_on,52,34,0
2,note_on,52,0,79
2,note_on,49,0,0
2,note_on,45,0,0
2,note_on,45,26,12
2,note_on,49,26,0
2,note_on,52,31,0
2,note_on,52,0,228
2,note_on,49,0,0
2,note_on,45,0,0
2,note_on,45,25,12
2,note_on,49,25,0
2,note_on,52,30,0
2,note_on,52,0,228
2,note_on,49,0,0
2,note_on,45,0,0
2,note_on,45,24,12
2,note_on,49,24,0
2,note_on,52,28,0
2,note_on,52,0,228
2,note_on,49,0,0
2,note_on,45,0,0
2,note_on,32,27,12
2,note_on,32,0,223
2,note_on,52,26,12
2,note_on,49,22,0
2,note_on,44,22,0
2,note_on,44,0,200
2,note_on,49,0,0
2,note_on,52,0,0
2,note_on,52,26,12
2,note_on,49,22,0
2,note_on,44,22,0
2,note_on,44,0,228
2,note_on,49,0,0
2,note_on,52,0,0
2,note_on,52,26,12
2,note_on,49,22,0
2,note_on,44,22,0
2,note_on,44,0,228
2,note_on,49,0,0
2,note_on,52,0,0
2,note_on,52,26,12
2,note_on,49,22,0
2,note_on,44,22,0
2,note_on,44,0,228
2,note_on,49,0,0
2,note_on,52,0,0
2,note_on,52,26,12
2,note_on,49,22,0
2,note_on,44,22,0
2,note_on,44,0,228
2,note_on,49,0,0
2,note_on,52,0,0
2,note_on,32,26,12
2,note_on,32,0,33
2,note_on,51,24,12
2,note_on,48,19,0
2,note_on,44,19,0
2,note_on,44,0,228
2,note_on,48,0,0
2,note_on,51,0,0
2,note_on,51,24,12
2,note_on,48,19,0
2,note_on,44,19,0
2,note_on,44,0,228
2,note_on,48,0,0
2,note_on,51,0,0
2,note_on,51,22,12
2,note_on,48,18,0
2,note_on,44,18,0
2,note_on,44,0,228
2,note_on,48,0,0
2,note_on,51,0,0
2,note_on,51,22,12
2,note_on,48,17,0
2,note_on,44,17,0
2,note_on,44,0,228
2,note_on,48,0,0
2,note_on,51,0,0
2,note_on,51,22,12
2,note_on,48,17,0
2,note_on,44,17,0
2,note_on,44,0,228
2,note_on,48,0,0
2,note_on,51,0,0
2,note_on,37,42,12
2,note_on,37,0,68
2,note_on,53,26,12
2,note_on,49,22,0
2,note_on,44,22,0
2,note_on,44,0,228
2,note_on,49,0,0
2,note_on,53,0,0
2,note_on,53,26,12
2,note_on,44,22,0
2,note_on,49,22,0
2,note_on,49,0,228
2,note_on,44,0,0
2,note_on,53,0,0
2,note_on,53,26,12
2,note_on,44,22,0
2,note_on,49,22,0
2,note_on,49,0,228
2,note_on,44,0,0
2,note_on,53,0,0
2,note_on,53,26,12
2,note_on,44,22,0
2,note_on,49,22,0
2,note_on,49,0,228
2,note_on,44,0,0
2,note_on,53,0,0
2,note_on,53,26,12
2,note_on,44,22,0
2,note_on,49,22,0
2,note_on,49,0,228
2,note_on,44,0,0
2,note_on,53,0,0
2,note_on,53,26,12
2,note_on,44,22,0
2,note_on,49,22,0
2,note_on,49,0,79
2,note_on,44,0,0
2,note_on,53,0,0
2,note_on,53,26,12
2,note_on,44,22,0
2,note_on,49,22,0
2,note_on,49,0,228
2,note_on,44,0,0
2,note_on,53,0,0
2,note_on,53,26,12
2,note_on,44,22,0
2,note_on,49,22,0
2,note_on,49,0,228
2,note_on,44,0,0
2,note_on,53,0,0
2,note_on,53,26,12
2,note_on,44,22,0
2,note_on,49,22,0
2,note_on,49,0,228
2,note_on,44,0,0
2,note_on,53,0,0
2,note_on,53,26,12
2,note_on,44,22,0
2,note_on,49,22,0
2,note_on,49,0,228
2,note_on,44,0,0
2,note_on,53,0,0
2,note_on,53,26,12
2,note_on,49,22,0
2,note_on,44,22,0
2,note_on,44,0,228
2,note_on,49,0,0
2,note_on,53,0,0
2,note_on,36,41,12
2,note_on,36,0,22
2,note_on,51,22,12
2,note_on,54,26,0
2,note_on,44,22,0
2,note_on,44,0,228
2,note_on,54,0,0
2,note_on,51,0,0
2,note_on,44,22,12
2,note_on,51,22,0
2,note_on,54,26,0
2,note_on,54,0,228
2,note_on,51,0,0
2,note_on,44,0,0
2,note_on,44,22,12
2,note_on,51,22,0
2,note_on,54,26,0
2,note_on,54,0,228
2,note_on,51,0,0
2,note_on,44,0,0
2,note_on,44,22,12
2,note_on,51,22,0
2,note_on,54,26,0
2,note_on,54,0,228
2,note_on,51,0,0
2,note_on,44,0,0
2,note_on,44,22,12
2,note_on,51,22,0
2,note_on,54,26,0
2,note_on,54,0,228
2,note_on,51,0,0
2,note_on,44,0,0
2,note_on,44,22,12
2,note_on,51,22,0
2,note_on,54,26,0
2,note_on,54,0,72
2,note_on,51,0,0
2,note_on,44,0,0
2,note_on,44,22,12
2,note_on,51,22,0
2,note_on,54,26,0
2,note_on,54,0,228
2,note_on,51,0,0
2,note_on,44,0,0
2,note_on,44,22,12
2,note_on,51,22,0
2,note_on,54,26,0
2,note_on,54,0,228
2,note_on,51,0,0
2,note_on,44,0,0
2,note_on,44,22,12
2,note_on,51,22,0
2,note_on,54,26,0
2,note_on,54,0,228
2,note_on,51,0,0
2,note_on,44,0,0
2,note_on,51,22,12
2,note_on,44,22,0
2,note_on,54,26,0
2,note_on,54,0,228
2,note_on,44,0,0
2,note_on,51,0,0
2,note_on,44,22,12
2,note_on,51,22,0
2,note_on,54,26,0
2,note_on,54,0,228
2,note_on,51,0,0
2,note_on,44,0,0
2,note_on,37,40,12
2,note_on,37,0,33
2,note_on,53,26,12
2,note_on,49,22,0
2,note_on,44,22,0
2,note_on,44,0,228
2,note_on,49,0,0
2,note_on,53,0,0
2,note_on,53,26,12
2,note_on,44,22,0
2,note_on,49,22,0
2,note_on,49,0,228
2,note_on,44,0,0
2,note_on,53,0,0
2,note_on,53,26,12
2,note_on,44,22,0
2,note_on,49,22,0
2,note_on,49,0,228
2,note_on,44,0,0
2,note_on,53,0,0
2,note_on,53,26,12
2,note_on,44,22,0
2,note_on,49,22,0
2,note_on,49,0,228
2,note_on,44,0,0
2,note_on,53,0,0
2,note_on,53,26,12
2,note_on,44,22,0
2,note_on,49,22,0
2,note_on,49,0,228
2,note_on,44,0,0
2,note_on,53,0,0
2,note_on,53,26,12
2,note_on,44,22,0
2,note_on,49,22,0
2,note_on,49,0,56
2,note_on,44,0,0
2,note_on,53,0,0
2,note_on,53,26,12
2,note_on,44,22,0
2,note_on,49,22,0
2,note_on,49,0,228
2,note_on,44,0,0
2,note_on,53,0,0
2,note_on,53,26,12
2,note_on,44,22,0
2,note_on,49,22,0
2,note_on,49,0,228
2,note_on,44,0,0
2,note_on,53,0,0
2,note_on,53,26,12
2,note_on,44,22,0
2,note_on,49,22,0
2,note_on,49,0,228
2,note_on,44,0,0
2,note_on,53,0,0
2,note_on,53,26,12
2,note_on,44,22,0
2,note_on,49,22,0
2,note_on,49,0,228
2,note_on,44,0,0
2,note_on,53,0,0
2,note_on,53,26,12
2,note_on,49,22,0
2,note_on,44,22,0
2,note_on,44,0,228
2,note_on,49,0,0
2,note_on,53,0,0
2,note_on,39,39,12
2,note_on,39,0,221
2,note_on,51,22,12
2,note_on,54,26,0
2,note_on,44,22,0
2,note_on,44,0,200
2,note_on,54,0,0
2,note_on,51,0,0
2,note_on,44,22,12
2,note_on,51,22,0
2,note_on,54,26,0
2,note_on,54,0,228
2,note_on,51,0,0
2,note_on,44,0,0
2,note_on,44,22,12
2,note_on,51,22,0
2,note_on,54,26,0
2,note_on,54,0,228
2,note_on,51,0,0
2,note_on,44,0,0
2,note_on,44,22,12
2,note_on,51,22,0
2,note_on,54,26,0
2,note_on,54,0,228
2,note_on,51,0,0
2,note_on,44,0,0
2,note_on,44,22,12
2,note_on,51,22,0
2,note_on,54,26,0
2,note_on,54,0,228
2,note_on,51,0,0
2,note_on,44,0,0
2,note_on,44,22,12
2,note_on,51,22,0
2,note_on,54,26,0
2,note_on,54,0,79
2,note_on,51,0,0
2,note_on,44,0,0
2,note_on,44,22,12
2,note_on,51,22,0
2,note_on,54,26,0
2,note_on,54,0,228
2,note_on,51,0,0
2,note_on,44,0,0
2,note_on,44,22,12
2,note_on,51,22,0
2,note_on,54,26,0
2,note_on,54,0,228
2,note_on,51,0,0
2,note_on,44,0,0
2,note_on,44,22,12
2,note_on,51,22,0
2,note_on,54,26,0
2,note_on,54,0,228
2,note_on,51,0,0
2,note_on,44,0,0
2,note_on,51,22,12
2,note_on,44,22,0
2,note_on,54,26,0
2,note_on,54,0,228
2,note_on,44,0,0
2,note_on,51,0,0
2,note_on,44,22,12
2,note_on,51,22,0
2,note_on,54,26,0
2,note_on,54,0,228
2,note_on,51,0,0
2,note_on,44,0,0
2,note_on,40,42,12
2,note_on,40,0,45
2,note_on,52,35,12
2,note_on,45,29,0
2,note_on,45,0,228
2,note_on,52,0,0
2,note_on,45,29,12
2,note_on,52,35,0
2,note_on,52,0,45
2,note_on,45,0,0
2,note_on,45,29,12
2,note_on,52,35,0
2,note_on,52,0,228
2,note_on,45,0,0
2,note_on,45,29,12
2,note_on,52,35,0
2,note_on,52,0,228
2,note_on,45,0,0
2,note_on,45,29,12
2,note_on,52,35,0
2,note_on,52,0,228
2,note_on,45,0,0
2,note_on,52,35,12
2,note_on,45,29,0
2,note_on,45,0,228
2,note_on,52,0,0
2,note_on,45,29,12
2,note_on,52,35,0
2,note_on,52,0,228
2,note_on,45,0,0
2,note_on,40,35,12
2,note_on,52,35,240
2,note_on,45,29,0
2,note_on,45,0,240
2,note_on,52,0,0
2,note_on,40,0,0
2,note_on,40,35,0
2,note_on,52,35,240
2,note_on,45,29,0
2,note_on,45,0,240
2,note_on,52,0,0
2,note_on,40,0,0
2,note_on,35,42,0
2,note_on,35,0,113
2,note_on,47,38,12
2,note_on,40,31,0
2,note_on,40,0,32
2,note_on,47,0,0
2,note_on,40,31,12
2,note_on,47,38,0
2,note_on,47,0,160
2,note_on,40,0,0
2,note_on,40,31,12
2,note_on,47,38,0
2,note_on,47,0,228
2,note_on,40,0,0
2,note_on,47,38,12
2,note_on,40,31,0
2,note_on,40,0,228
2,note_on,47,0,0
2,note_on,40,31,12
2,note_on,47,38,0
2,note_on,47,0,228
2,note_on,40,0,0
2,note_on,40,34,12
2,note_on,47,39,0
2,note_on,47,0,228
2,note_on,40,0,0
2,note_on,40,34,12
2,note_on,47,39,0
2,note_on,47,0,228
2,note_on,40,0,0
2,note_on,35,39,12
2,note_on,40,34,91
2,note_on,47,39,0
2,note_on,47,0,240
2,note_on,40,0,0
2,note_on,35,0,0
2,note_on,35,39,0
2,note_on,47,39,240
2,note_on,40,34,0
2,note_on,40,0,240
2,note_on,47,0,0
2,note_on,35,0,0
2,note_on,38,49,0
2,note_on,38,0,114
2,note_on,45,35,0
2,note_on,50,42,0
2,note_on,50,0,228
2,note_on,45,0,0
2,note_on,45,35,12
2,note_on,50,42,0
2,note_on,50,0,45
2,note_on,45,0,0
2,note_on,45,35,12
2,note_on,50,42,0
2,note_on,50,0,228
2,note_on,45,0,0
2,note_on,45,35,12
2,note_on,50,42,0
2,note_on,50,0,228
2,note_on,45,0,0
2,note_on,45,35,12
2,note_on,50,42,0
2,note_on,50,0,228
2,note_on,45,0,0
2,note_on,50,46,12
2,note_on,45,39,0
2,note_on,45,0,228
2,note_on,50,0,0
2,note_on,50,45,12
2,note_on,45,38,0
2,note_on,45,0,228
2,note_on,50,0,0
2,note_on,38,45,12
2,note_on,50,45,125
2,note_on,45,38,0
2,note_on,45,0,240
2,note_on,50,0,0
2,note_on,38,0,0
2,note_on,38,45,0
2,note_on,50,45,240
2,note_on,45,38,0
2,note_on,45,0,240
2,note_on,50,0,0
2,note_on,38,0,0
2,note_on,33,45,0
2,note_on,45,45,137
2,note_on,40,38,0
2,note_on,40,0,240
2,note_on,45,0,0
2,note_on,33,0,0
2,note_on,33,45,0
2,note_on,33,0,45
2,note_on,45,45,0
2,note_on,40,38,0
2,note_on,40,0,228
2,note_on,45,0,0
2,note_on,45,45,12
2,note_on,40,38,0
2,note_on,40,0,228
2,note_on,45,0,0
2,note_on,45,45,12
2,note_on,40,38,0
2,note_on,40,0,228
2,note_on,45,0,0
2,note_on,45,49,12
2,note_on,40,41,0
2,note_on,40,0,228
2,note_on,45,0,0
2,note_on,45,49,12
2,note_on,40,41,0
2,note_on,40,0,228
2,note_on,45,0,0
2,note_on,33,49,12
2,note_on,45,49,114
2,note_on,40,41,0
2,note_on,40,0,240
2,note_on,45,0,0
2,note_on,33,0,0
2,note_on,33,49,0
2,note_on,45,49,240
2,note_on,40,41,0
2,note_on,40,0,240
2,note_on,45,0,0
2,note_on,33,0,0
2,note_on,32,61,0
2,note_on,32,0,222
2,note_on,44,44,12
2,note_on,49,44,0
2,note_on,52,51,0
2,note_on,52,0,185
2,note_on,49,0,0
2,note_on,44,0,0
2,note_on,44,44,12
2,note_on,49,44,0
2,note_on,52,51,0
2,note_on,52,0,228
2,note_on,49,0,0
2,note_on,44,0,0
2,note_on,44,44,12
2,note_on,49,44,0
2,note_on,52,52,0
2,note_on,52,0,228
2,note_on,49,0,0
2,note_on,44,0,0
2,note_on,44,44,12
2,note_on,49,44,0
2,note_on,52,52,0
2,note_on,52,0,228
2,note_on,49,0,0
2,note_on,44,0,0
2,note_on,44,44,12
2,note_on,49,44,0
2,note_on,52,52,0
2,note_on,52,0,228
2,note_on,49,0,0
2,note_on,44,0,0
2,note_on,32,61,12
2,note_on,32,0,95
2,note_on,44,44,12
2,note_on,51,44,0
2,note_on,54,52,0
2,note_on,54,0,228
2,note_on,51,0,0
2,note_on,44,0,0
2,note_on,44,44,12
2,note_on,51,44,0
2,note_on,54,52,0
2,note_on,54,0,54
2,note_on,51,0,0
2,note_on,44,0,0
2,note_on,44,44,12
2,note_on,51,44,0
2,note_on,54,52,0
2,note_on,54,0,228
2,note_on,51,0,0
2,note_on,44,0,0
2,note_on,44,44,12
2,note_on,51,44,0
2,note_on,54,51,0
2,note_on,54,0,228
2,note_on,51,0,0
2,note_on,44,0,0
2,note_on,44,44,12
2,note_on,51,44,0
2,note_on,54,51,0
2,note_on,54,0,228
2,note_on,51,0,0
2,note_on,44,0,0
2,note_on,37,52,12
2,note_on,37,0,225
2,note_on,44,34,0
2,note_on,49,34,0
2,note_on,52,40,0
2,note_on,52,0,228
2,note_on,49,0,0
2,note_on,44,0,0
2,note_on,44,34,12
2,note_on,49,34,0
2,note_on,52,40,0
2,note_on,52,0,228
2,note_on,49,0,0
2,note_on,44,0,0
2,note_on,44,34,12
2,note_on,49,34,0
2,note_on,52,40,0
2,note_on,52,0,228
2,note_on,49,0,0
2,note_on,44,0,0
2,note_on,44,34,12
2,note_on,49,34,0
2,note_on,52,40,0
2,note_on,52,0,228
2,note_on,49,0,0
2,note_on,44,0,0
2,note_on,44,34,12
2,note_on,49,34,0
2,note_on,52,40,0
2,note_on,52,0,228
2,note_on,49,0,0
2,note_on,44,0,0
2,note_on,49,34,12
2,note_on,44,34,0
2,note_on,52,39,0
2,note_on,52,0,228
2,note_on,44,0,0
2,note_on,49,0,0
2,note_on,44,34,12
2,note_on,49,34,0
2,note_on,52,39,0
2,note_on,52,0,228
2,note_on,49,0,0
2,note_on,44,0,0
2,note_on,44,30,12
2,note_on,49,30,0
2,note_on,52,37,0
2,note_on,52,0,228
2,note_on,49,0,0
2,note_on,44,0,0
2,note_on,44,30,12
2,note_on,49,30,0
2,note_on,52,36,0
2,note_on,52,0,228
2,note_on,49,0,0
2,note_on,44,0,0
2,note_on,44,28,12
2,note_on,49,28,0
2,note_on,52,34,0
2,note_on,52,0,228
2,note_on,49,0,0
2,note_on,44,0,0
2,note_on,44,25,12
2,note_on,49,25,0
2,note_on,52,30,0
2,note_on,52,0,228
2,note_on,49,0,0
2,note_on,44,0,0
2,note_on,32,26,12
2,note_on,32,0,79
2,note_on,54,26,12
2,note_on,51,22,0
2,note_on,44,22,0
2,note_on,44,0,228
2,note_on,51,0,0
2,note_on,54,0,0
2,note_on,54,26,12
2,note_on,51,22,0
2,note_on,44,22,0
2,note_on,44,0,209
2,note_on,51,0,0
2,note_on,54,0,0
2,note_on,54,26,11
2,note_on,51,22,0
2,note_on,44,22,0
2,note_on,44,0,228
2,note_on,51,0,0
2,note_on,54,0,0
2,note_on,44,22,12
2,note_on,51,22,0
2,note_on,54,26,0
2,note_on,54,0,228
2,note_on,51,0,0
2,note_on,44,0,0
2,note_on,51,22,12
2,note_on,44,22,0
2,note_on,54,26,0
2,note_on,54,0,228
2,note_on,44,0,0
2,note_on,51,0,0
2,note_on,44,22,12
2,note_on,51,22,0
2,note_on,54,26,0
2,note_on,54,0,228
2,note_on,51,0,0
2,note_on,44,0,0
2,note_on,54,26,12
2,note_on,51,22,0
2,note_on,44,22,0
2,note_on,44,0,228
2,note_on,51,0,0
2,note_on,54,0,0
2,note_on,54,26,12
2,note_on,51,22,0
2,note_on,44,22,0
2,note_on,44,0,228
2,note_on,51,0,0
2,note_on,54,0,0
2,note_on,54,26,12
2,note_on,51,22,0
2,note_on,44,22,0
2,note_on,44,0,228
2,note_on,51,0,0
2,note_on,54,0,0
2,note_on,44,22,12
2,note_on,51,22,0
2,note_on,54,26,0
2,note_on,54,0,228
2,note_on,51,0,0
2,note_on,44,0,0
2,note_on,51,22,12
2,note_on,44,22,0
2,note_on,54,26,0
2,note_on,54,0,228
2,note_on,44,0,0
2,note_on,51,0,0
2,note_on,32,26,12
2,note_on,32,0,223
2,note_on,52,26,12
2,note_on,49,22,0
2,note_on,44,22,0
2,note_on,44,0,157
2,note_on,49,0,0
2,note_on,52,0,0
2,note_on,44,24,12
2,note_on,49,24,0
2,note_on,52,28,0
2,note_on,52,0,228
2,note_on,49,0,0
2,note_on,44,0,0
2,note_on,44,24,12
2,note_on,49,24,0
2,note_on,52,29,0
2,note_on,52,0,228
2,note_on,49,0,0
2,note_on,44,0,0
2,note_on,44,26,12
2,note_on,49,26,0
2,note_on,52,30,0
2,note_on,52,0,228
2,note_on,49,0,0
2,note_on,44,0,0
2,note_on,52,31,12
2,note_on,44,26,0
2,note_on,49,26,0
2,note_on,49,0,228
2,note_on,44,0,0
2,note_on,52,0,0
2,note_on,44,28,12
2,note_on,49,28,0
2,note_on,52,34,0
2,note_on,52,0,228
2,note_on,49,0,0
2,note_on,44,0,0
2,note_on,49,29,12
2,note_on,44,29,0
2,note_on,52,35,0
2,note_on,52,0,228
2,note_on,44,0,0
2,note_on,49,0,0
2,note_on,44,30,12
2,note_on,49,30,0
2,note_on,52,36,0
2,note_on,52,0,228
2,note_on,49,0,0
2,note_on,44,0,0
2,note_on,52,37,12
2,note_on,44,30,0
2,note_on,49,30,0
2,note_on,49,0,228
2,note_on,44,0,0
2,note_on,52,0,0
2,note_on,44,33,12
2,note_on,49,33,0
2,note_on,52,39,0
2,note_on,52,0,228
2,note_on,49,0,0
2,note_on,44,0,0
2,note_on,52,39,12
2,note_on,44,34,0
2,note_on,49,34,0
2,note_on,49,0,228
2,note_on,44,0,0
2,note_on,52,0,0
2,note_on,33,47,12
2,note_on,33,0,79
2,note_on,52,42,12
2,note_on,49,35,0
2,note_on,45,35,0
2,note_on,45,0,228
2,note_on,49,0,0
2,note_on,52,0,0
2,note_on,45,38,12
2,note_on,49,38,0
2,note_on,52,45,0
2,note_on,52,0,45
2,note_on,49,0,0
2,note_on,45,0,0
2,note_on,52,44,12
2,note_on,45,36,0
2,note_on,49,36,0
2,note_on,49,0,228
2,note_on,45,0,0
2,note_on,52,0,0
2,note_on,52,40,12
2,note_on,45,34,0
2,note_on,49,34,0
2,note_on,49,0,228
2,note_on,45,0,0
2,note_on,52,0,0
2,note_on,52,39,12
2,note_on,45,33,0
2,note_on,49,33,0
2,note_on,49,0,228
2,note_on,45,0,0
2,note_on,52,0,0
2,note_on,52,37,12
2,note_on,45,30,0
2,note_on,49,30,0
2,note_on,49,0,228
2,note_on,45,0,0
2,note_on,52,0,0
2,note_on,45,29,12
2,note_on,49,29,0
2,note_on,52,35,0
2,note_on,52,0,228
2,note_on,49,0,0
2,note_on,45,0,0
2,note_on,51,34,12
2,note_on,45,28,0
2,note_on,45,0,79
2,note_on,51,0,0
2,note_on,51,31,12
2,note_on,45,26,0
2,note_on,45,0,228
2,note_on,51,0,0
2,note_on,51,30,12
2,note_on,45,25,0
2,note_on,45,0,228
2,note_on,51,0,0
2,note_on,51,28,12
2,note_on,45,24,0
2,note_on,45,0,228
2,note_on,51,0,0
2,note_on,32,26,12
2,note_on,32,0,222
2,note_on,44,26,0
2,note_on,44,0,228
2,note_on,48,26,12
2,note_on,51,26,0
2,note_on,44,26,0
2,note_on,44,0,228
2,note_on,51,0,0
2,note_on,48,0,0
2,note_on,48,22,12
2,note_on,51,26,0
2,note_on,44,22,0
2,note_on,44,0,228
2,note_on,51,0,0
2,note_on,48,0,0
2,note_on,48,22,12
2,note_on,51,26,0
2,note_on,44,22,0
2,note_on,44,0,228
2,note_on,51,0,0
2,note_on,48,0,0
2,note_on,48,22,12
2,note_on,51,26,0
2,note_on,44,22,0
2,note_on,44,0,228
2,note_on,51,0,0
2,note_on,48,0,0
2,note_on,48,22,12
2,note_on,51,26,0
2,note_on,44,22,0
2,note_on,44,0,228
2,note_on,51,0,0
2,note_on,48,0,0
2,note_on,48,22,12
2,note_on,51,26,0
2,note_on,44,22,0
2,note_on,44,0,228
2,note_on,51,0,0
2,note_on,48,0,0
2,note_on,48,22,12
2,note_on,51,26,0
2,note_on,44,22,0
2,note_on,44,0,228
2,note_on,51,0,0
2,note_on,48,0,0
2,note_on,48,22,12
2,note_on,51,26,0
2,note_on,44,22,0
2,note_on,44,0,228
2,note_on,51,0,0
2,note_on,48,0,0
2,note_on,48,22,12
2,note_on,51,26,0
2,note_on,44,22,0
2,note_on,44,0,228
2,note_on,51,0,0
2,note_on,48,0,0
2,note_on,48,22,12
2,note_on,51,26,0
2,note_on,44,22,0
2,note_on,44,0,228
2,note_on,51,0,0
2,note_on,48,0,0
2,note_on,32,26,12
2,note_on,32,0,45
2,note_on,54,26,12
2,note_on,51,22,0
2,note_on,44,22,0
2,note_on,44,0,228
2,note_on,51,0,0
2,note_on,54,0,0
2,note_on,54,26,12
2,note_on,51,22,0
2,note_on,44,22,0
2,note_on,44,0,102
2,note_on,51,0,0
2,note_on,54,0,0
2,note_on,54,26,12
2,note_on,51,22,0
2,note_on,44,22,0
2,note_on,44,0,228
2,note_on,51,0,0
2,note_on,54,0,0
2,note_on,44,22,12
2,note_on,51,22,0
2,note_on,54,26,0
2,note_on,54,0,228
2,note_on,51,0,0
2,note_on,44,0,0
2,note_on,51,22,12
2,note_on,44,22,0
2,note_on,54,26,0
2,note_on,54,0,228
2,note_on,44,0,0
2,note_on,51,0,0
2,note_on,44,22,12
2,note_on,51,22,0
2,note_on,54,26,0
2,note_on,54,0,228
2,note_on,51,0,0
2,note_on,44,0,0
2,note_on,54,26,12
2,note_on,51,22,0
2,note_on,44,22,0
2,note_on,44,0,228
2,note_on,51,0,0
2,note_on,54,0,0
2,note_on,54,26,12
2,note_on,51,22,0
2,note_on,44,22,0
2,note_on,44,0,228
2,note_on,51,0,0
2,note_on,54,0,0
2,note_on,54,26,12
2,note_on,51,22,0
2,note_on,44,22,0
2,note_on,44,0,228
2,note_on,51,0,0
2,note_on,54,0,0
2,note_on,44,22,12
2,note_on,51,22,0
2,note_on,54,26,0
2,note_on,54,0,228
2,note_on,51,0,0
2,note_on,44,0,0
2,note_on,51,22,12
2,note_on,44,22,0
2,note_on,54,26,0
2,note_on,54,0,228
2,note_on,44,0,0
2,note_on,51,0,0
2,note_on,32,26,12
2,note_on,32,0,225
2,note_on,52,26,12
2,note_on,49,22,0
2,note_on,44,22,0
2,note_on,44,0,171
2,note_on,49,0,0
2,note_on,52,0,0
2,note_on,44,22,12
2,note_on,49,22,0
2,note_on,52,26,0
2,note_on,52,0,228
2,note_on,49,0,0
2,note_on,44,0,0
2,note_on,44,22,12
2,note_on,49,22,0
2,note_on,52,26,0
2,note_on,52,0,228
2,note_on,49,0,0
2,note_on,44,0,0
2,note_on,44,22,12
2,note_on,49,22,0
2,note_on,52,26,0
2,note_on,52,0,228
2,note_on,49,0,0
2,note_on,44,0,0
2,note_on,44,22,12
2,note_on,49,22,0
2,note_on,52,26,0
2,note_on,52,0,228
2,note_on,49,0,0
2,note_on,44,0,0
2,note_on,44,22,12
2,note_on,49,22,0
2,note_on,52,26,0
2,note_on,52,0,228
2,note_on,49,0,0
2,note_on,44,0,0
2,note_on,49,24,12
2,note_on,44,24,0
2,note_on,52,28,0
2,note_on,52,0,228
2,note_on,44,0,0
2,note_on,49,0,0
2,note_on,44,26,12
2,note_on,49,26,0
2,note_on,52,30,0
2,note_on,52,0,228
2,note_on,49,0,0
2,note_on,44,0,0
2,note_on,44,29,12
2,note_on,49,29,0
2,note_on,52,35,0
2,note_on,52,0,228
2,note_on,49,0,0
2,note_on,44,0,0
2,note_on,44,30,12
2,note_on,49,30,0
2,note_on,52,37,0
2,note_on,52,0,228
2,note_on,49,0,0
2,note_on,44,0,0
2,note_on,44,34,12
2,note_on,49,34,0
2,note_on,52,39,0
2,note_on,52,0,228
2,note_on,49,0,0
2,note_on,44,0,0
2,note_on,33,41,12
2,note_on,33,0,56
2,note_on,52,41,12
2,note_on,49,35,0
2,note_on,45,35,0
2,note_on,45,0,228
2,note_on,49,0,0
2,note_on,52,0,0
2,note_on,45,36,12
2,note_on,49,36,0
2,note_on,52,44,0
2,note_on,52,0,91
2,note_on,49,0,0
2,note_on,45,0,0
2,note_on,45,35,12
2,note_on,49,35,0
2,note_on,52,42,0
2,note_on,52,0,228
2,note_on,49,0,0
2,note_on,45,0,0
2,note_on,45,34,12
2,note_on,49,34,0
2,note_on,52,40,0
2,note_on,52,0,228
2,note_on,49,0,0
2,note_on,45,0,0
2,note_on,45,33,12
2,note_on,49,33,0
2,note_on,52,39,0
2,note_on,52,0,228
2,note_on,49,0,0
2,note_on,45,0,0
2,note_on,45,30,12
2,note_on,49,30,0
2,note_on,52,37,0
2,note_on,52,0,228
2,note_on,49,0,0
2,note_on,45,0,0
2,note_on,45,29,12
2,note_on,49,29,0
2,note_on,52,35,0
2,note_on,52,0,228
2,note_on,49,0,0
2,note_on,45,0,0
2,note_on,45,28,12
2,note_on,49,28,0
2,note_on,52,34,0
2,note_on,52,0,104
2,note_on,49,0,0
2,note_on,45,0,0
2,note_on,45,26,12
2,note_on,49,26,0
2,note_on,52,31,0
2,note_on,52,0,228
2,note_on,49,0,0
2,note_on,45,0,0
2,note_on,45,25,12
2,note_on,49,25,0
2,note_on,52,30,0
2,note_on,52,0,228
2,note_on,49,0,0
2,note_on,45,0,0
2,note_on,45,24,12
2,note_on,49,24,0
2,note_on,52,28,0
2,note_on,52,0,228
2,note_on,49,0,0
2,note_on,45,0,0
2,note_on,32,27,12
2,note_on,32,0,16
2,note_on,52,26,12
2,note_on,49,22,0
2,note_on,44,22,0
2,note_on,44,0,228
2,note_on,49,0,0
2,note_on,52,0,0
2,note_on,52,26,12
2,note_on,49,22,0
2,note_on,44,22,0
2,note_on,44,0,228
2,note_on,49,0,0
2,note_on,52,0,0
2,note_on,52,26,12
2,note_on,49,22,0
2,note_on,44,22,0
2,note_on,44,0,228
2,note_on,49,0,0
2,note_on,52,0,0
2,note_on,52,26,12
2,note_on,49,22,0
2,note_on,44,22,0
2,note_on,44,0,228
2,note_on,49,0,0
2,note_on,52,0,0
2,note_on,52,26,12
2,note_on,49,22,0
2,note_on,44,22,0
2,note_on,44,0,228
2,note_on,49,0,0
2,note_on,52,0,0
2,note_on,32,26,12
2,note_on,32,0,225
2,note_on,51,24,11
2,note_on,48,19,0
2,note_on,44,19,0
2,note_on,44,0,228
2,note_on,48,0,0
2,note_on,51,0,0
2,note_on,51,24,12
2,note_on,48,19,0
2,note_on,44,19,0
2,note_on,44,0,228
2,note_on,48,0,0
2,note_on,51,0,0
2,note_on,51,22,12
2,note_on,48,18,0
2,note_on,44,18,0
2,note_on,44,0,228
2,note_on,48,0,0
2,note_on,51,0,0
2,note_on,51,22,12
2,note_on,48,17,0
2,note_on,44,17,0
2,note_on,44,0,228
2,note_on,48,0,0
2,note_on,51,0,0
2,note_on,51,22,12
2,note_on,48,17,0
2,note_on,44,17,0
2,note_on,44,0,228
2,note_on,48,0,0
2,note_on,51,0,0
2,note_on,37,42,12
2,note_on,37,0,22
2,note_on,53,26,12
2,note_on,49,22,0
2,note_on,44,22,0
2,note_on,44,0,228
2,note_on,49,0,0
2,note_on,53,0,0
2,note_on,53,26,12
2,note_on,44,22,0
2,note_on,49,22,0
2,note_on,49,0,228
2,note_on,44,0,0
2,note_on,53,0,0
2,note_on,53,26,12
2,note_on,44,22,0
2,note_on,49,22,0
2,note_on,49,0,228
2,note_on,44,0,0
2,note_on,53,0,0
2,note_on,53,26,12
2,note_on,44,22,0
2,note_on,49,22,0
2,note_on,49,0,228
2,note_on,44,0,0
2,note_on,53,0,0
2,note_on,53,26,12
2,note_on,44,22,0
2,note_on,49,22,0
2,note_on,49,0,228
2,note_on,44,0,0
2,note_on,53,0,0
2,note_on,53,26,12
2,note_on,44,22,0
2,note_on,49,22,0
2,note_on,49,0,79
2,note_on,44,0,0
2,note_on,53,0,0
2,note_on,53,26,12
2,note_on,44,22,0
2,note_on,49,22,0
2,note_on,49,0,228
2,note_on,44,0,0
2,note_on,53,0,0
2,note_on,53,26,12
2,note_on,44,22,0
2,note_on,49,22,0
2,note_on,49,0,228
2,note_on,44,0,0
2,note_on,53,0,0
2,note_on,53,26,12
2,note_on,44,22,0
2,note_on,49,22,0
2,note_on,49,0,228
2,note_on,44,0,0
2,note_on,53,0,0
2,note_on,53,26,12
2,note_on,44,22,0
2,note_on,49,22,0
2,note_on,49,0,228
2,note_on,44,0,0
2,note_on,53,0,0
2,note_on,53,26,12
2,note_on,49,22,0
2,note_on,44,22,0
2,note_on,44,0,228
2,note_on,49,0,0
2,note_on,53,0,0
2,note_on,36,41,12
2,note_on,36,0,11
2,note_on,51,22,12
2,note_on,54,26,0
2,note_on,44,22,0
2,note_on,44,0,228
2,note_on,54,0,0
2,note_on,51,0,0
2,note_on,44,22,12
2,note_on,51,22,0
2,note_on,54,26,0
2,note_on,54,0,228
2,note_on,51,0,0
2,note_on,44,0,0
2,note_on,44,22,12
2,note_on,51,22,0
2,note_on,54,26,0
2,note_on,54,0,228
2,note_on,51,0,0
2,note_on,44,0,0
2,note_on,44,22,12
2,note_on,51,22,0
2,note_on,54,26,0
2,note_on,54,0,228
2,note_on,51,0,0
2,note_on,44,0,0
2,note_on,44,22,12
2,note_on,51,22,0
2,note_on,54,26,0
2,note_on,54,0,228
2,note_on,51,0,0
2,note_on,44,0,0
2,note_on,44,22,12
2,note_on,51,22,0
2,note_on,54,26,0
2,note_on,54,0,222
2,note_on,51,0,0
2,note_on,44,0,0
2,note_on,44,22,12
2,note_on,51,22,0
2,note_on,54,26,0
2,note_on,54,0,200
2,note_on,51,0,0
2,note_on,44,0,0
2,note_on,44,22,12
2,note_on,51,22,0
2,note_on,54,26,0
2,note_on,54,0,228
2,note_on,51,0,0
2,note_on,44,0,0
2,note_on,44,22,12
2,note_on,51,22,0
2,note_on,54,26,0
2,note_on,54,0,228
2,note_on,51,0,0
2,note_on,44,0,0
2,note_on,51,22,12
2,note_on,44,22,0
2,note_on,54,26,0
2,note_on,54,0,228
2,note_on,44,0,0
2,note_on,51,0,0
2,note_on,44,22,12
2,note_on,51,22,0
2,note_on,54,26,0
2,note_on,54,0,228
2,note_on,51,0,0
2,note_on,44,0,0
2,note_on,37,40,12
2,note_on,37,0,45
2,note_on,53,26,12
2,note_on,49,22,0
2,note_on,44,22,0
2,note_on,44,0,228
2,note_on,49,0,0
2,note_on,53,0,0
2,note_on,53,26,12
2,note_on,44,22,0
2,note_on,49,22,0
2,note_on,49,0,228
2,note_on,44,0,0
2,note_on,53,0,0
2,note_on,53,26,12
2,note_on,44,22,0
2,note_on,49,22,0
2,note_on,49,0,228
2,note_on,44,0,0
2,note_on,53,0,0
2,note_on,53,26,12
2,note_on,44,22,0
2,note_on,49,22,0
2,note_on,49,0,228
2,note_on,44,0,0
2,note_on,53,0,0
2,note_on,53,26,12
2,note_on,44,22,0
2,note_on,49,22,0
2,note_on,49,0,228
2,note_on,44,0,0
2,note_on,53,0,0
2,note_on,53,26,12
2,note_on,44,22,0
2,note_on,49,22,0
2,note_on,49,0,33
2,note_on,44,0,0
2,note_on,53,0,0
2,note_on,53,26,12
2,note_on,44,22,0
2,note_on,49,22,0
2,note_on,49,0,228
2,note_on,44,0,0
2,note_on,53,0,0
2,note_on,53,26,12
2,note_on,44,22,0
2,note_on,49,22,0
2,note_on,49,0,228
2,note_on,44,0,0
2,note_on,53,0,0
2,note_on,53,26,12
2,note_on,44,22,0
2,note_on,49,22,0
2,note_on,49,0,228
2,note_on,44,0,0
2,note_on,53,0,0
2,note_on,53,26,12
2,note_on,44,22,0
2,note_on,49,22,0
2,note_on,49,0,228
2,note_on,44,0,0
2,note_on,53,0,0
2,note_on,53,26,12
2,note_on,49,22,0
2,note_on,44,22,0
2,note_on,44,0,228
2,note_on,49,0,0
2,note_on,53,0,0
2,note_on,39,39,12
2,note_on,39,0,224
2,note_on,51,22,12
2,note_on,54,26,0
2,note_on,44,22,0
2,note_on,44,0,214
2,note_on,54,0,0
2,note_on,51,0,0
2,note_on,44,22,12
2,note_on,51,22,0
2,note_on,54,26,0
2,note_on,54,0,228
2,note_on,51,0,0
2,note_on,44,0,0
2,note_on,44,22,12
2,note_on,51,22,0
2,note_on,54,26,0
2,note_on,54,0,228
2,note_on,51,0,0
2,note_on,44,0,0
2,note_on,44,22,12
2,note_on,51,22,0
2,note_on,54,26,0
2,note_on,54,0,228
2,note_on,51,0,0
2,note_on,44,0,0
2,note_on,44,22,12
2,note_on,51,22,0
2,note_on,54,26,0
2,note_on,54,0,228
2,note_on,51,0,0
2,note_on,44,0,0
2,note_on,44,22,12
2,note_on,51,22,0
2,note_on,54,26,0
2,note_on,54,0,56
2,note_on,51,0,0
2,note_on,44,0,0
2,note_on,44,22,12
2,note_on,51,22,0
2,note_on,54,26,0
2,note_on,54,0,228
2,note_on,51,0,0
2,note_on,44,0,0
2,note_on,44,22,12
2,note_on,51,22,0
2,note_on,54,26,0
2,note_on,54,0,228
2,note_on,51,0,0
2,note_on,44,0,0
2,note_on,44,22,12
2,note_on,51,22,0
2,note_on,54,26,0
2,note_on,54,0,228
2,note_on,51,0,0
2,note_on,44,0,0
2,note_on,51,22,12
2,note_on,44,22,0
2,note_on,54,26,0
2,note_on,54,0,228
2,note_on,44,0,0
2,note_on,51,0,0
2,note_on,44,22,12
2,note_on,51,22,0
2,note_on,54,26,0
2,note_on,54,0,228
2,note_on,51,0,0
2,note_on,44,0,0
2,note_on,40,42,12
2,note_on,40,0,113
2,note_on,52,35,12
2,note_on,45,29,0
2,note_on,45,0,228
2,note_on,52,0,0
2,note_on,45,29,12
2,note_on,52,35,0
2,note_on,52,0,33
2,note_on,45,0,0
2,note_on,45,29,12
2,note_on,52,35,0
2,note_on,52,0,228
2,note_on,45,0,0
2,note_on,45,29,12
2,note_on,52,35,0
2,note_on,52,0,228
2,note_on,45,0,0
2,note_on,45,29,12
2,note_on,52,35,0
2,note_on,52,0,228
2,note_on,45,0,0
2,note_on,52,35,12
2,note_on,45,29,0
2,note_on,45,0,228
2,note_on,52,0,0
2,note_on,45,29,12
2,note_on,52,35,0
2,note_on,52,0,228
2,note_on,45,0,0
2,note_on,40,35,12
2,note_on,52,35,240
2,note_on,45,29,0
2,note_on,45,0,240
2,note_on,52,0,0
2,note_on,40,0,0
2,note_on,40,35,0
2,note_on,52,35,240
2,note_on,45,29,0
2,note_on,45,0,240
2,note_on,52,0,0
2,note_on,40,0,0
2,note_on,35,42,0
2,note_on,35,0,113
2,note_on,47,38,12
2,note_on,40,31,0
2,note_on,40,0,228
2,note_on,47,0,0
2,note_on,40,31,12
2,note_on,47,38,0
2,note_on,47,0,45
2,note_on,40,0,0
2,note_on,40,31,12
2,note_on,47,38,0
2,note_on,47,0,228
2,note_on,40,0,0
2,note_on,47,38,12
2,note_on,40,31,0
2,note_on,40,0,228
2,note_on,47,0,0
2,note_on,40,31,12
2,note_on,47,38,0
2,note_on,47,0,228
2,note_on,40,0,0
2,note_on,40,34,12
2,note_on,47,39,0
2,note_on,47,0,228
2,note_on,40,0,0
2,note_on,40,34,12
2,note_on,47,39,0
2,note_on,47,0,228
2,note_on,40,0,0
2,note_on,35,39,12
2,note_on,40,34,240
2,note_on,47,39,0
2,note_on,47,0,240
2,note_on,40,0,0
2,note_on,35,0,0
2,note_on,35,39,0
2,note_on,47,39,240
2,note_on,40,34,0
2,note_on,40,0,240
2,note_on,47,0,0
2,note_on,35,0,0
2,note_on,38,49,0
2,note_on,38,0,102
2,note_on,45,35,12
2,note_on,50,42,0
2,note_on,50,0,228
2,note_on,45,0,0
2,note_on,45,35,12
2,note_on,50,42,0
2,note_on,50,0,22
2,note_on,45,0,0
2,note_on,45,35,12
2,note_on,50,42,0
2,note_on,50,0,228
2,note_on,45,0,0
2,note_on,45,35,12
2,note_on,50,42,0
2,note_on,50,0,228
2,note_on,45,0,0
2,note_on,45,35,12
2,note_on,50,42,0
2,note_on,50,0,228
2,note_on,45,0,0
2,note_on,50,46,12
2,note_on,45,39,0
2,note_on,45,0,228
2,note_on,50,0,0
2,note_on,50,45,12
2,note_on,45,38,0
2,note_on,45,0,228
2,note_on,50,0,0
2,note_on,38,45,12
2,note_on,50,45,103
2,note_on,45,38,0
2,note_on,45,0,240
2,note_on,50,0,0
2,note_on,38,0,0
2,note_on,38,45,0
2,note_on,50,45,240
2,note_on,45,38,0
2,note_on,45,0,240
2,note_on,50,0,0
2,note_on,38,0,0
2,note_on,33,45,0
2,note_on,45,45,137
2,note_on,40,38,0
2,note_on,40,0,240
2,note_on,45,0,0
2,note_on,33,0,0
2,note_on,33,45,0
2,note_on,33,0,103
2,note_on,45,45,0
2,note_on,40,38,0
2,note_on,40,0,228
2,note_on,45,0,0
2,note_on,45,45,12
2,note_on,40,38,0
2,note_on,40,0,228
2,note_on,45,0,0
2,note_on,45,45,12
2,note_on,40,38,0
2,note_on,40,0,228
2,note_on,45,0,0
2,note_on,45,49,12
2,note_on,40,41,0
2,note_on,40,0,228
2,note_on,45,0,0
2,note_on,45,49,12
2,note_on,40,41,0
2,note_on,40,0,228
2,note_on,45,0,0
2,note_on,33,49,12
2,note_on,45,49,80
2,note_on,40,41,0
2,note_on,40,0,240
2,note_on,45,0,0
2,note_on,33,0,0
2,note_on,33,49,0
2,note_on,45,49,240
2,note_on,40,41,0
2,note_on,40,0,240
2,note_on,45,0,0
2,note_on,33,0,0
2,note_on,32,61,0
2,note_on,32,0,30
2,note_on,44,44,12
2,note_on,49,44,0
2,note_on,52,51,0
2,note_on,52,0,228
2,note_on,49,0,0
2,note_on,44,0,0
2,note_on,44,44,12
2,note_on,49,44,0
2,note_on,52,51,0
2,note_on,52,0,30
2,note_on,49,0,0
2,note_on,44,0,0
2,note_on,44,44,12
2,note_on,49,44,0
2,note_on,52,52,0
2,note_on,52,0,228
2,note_on,49,0,0
2,note_on,44,0,0
2,note_on,44,44,12
2,note_on,49,44,0
2,note_on,52,52,0
2,note_on,52,0,228
2,note_on,49,0,0
2,note_on,44,0,0
2,note_on,44,44,12
2,note_on,49,44,0
2,note_on,52,52,0
2,note_on,52,0,228
2,note_on,49,0,0
2,note_on,44,0,0
2,note_on,32,61,12
2,note_on,32,0,112
2,note_on,44,44,12
2,note_on,51,44,0
2,note_on,54,52,0
2,note_on,54,0,228
2,note_on,51,0,0
2,note_on,44,0,0
2,note_on,44,44,12
2,note_on,51,44,0
2,note_on,54,52,0
2,note_on,54,0,54
2,note_on,51,0,0
2,note_on,44,0,0
2,note_on,44,44,12
2,note_on,51,44,0
2,note_on,54,52,0
2,note_on,54,0,228
2,note_on,51,0,0
2,note_on,44,0,0
2,note_on,44,44,12
2,note_on,51,44,0
2,note_on,54,51,0
2,note_on,54,0,228
2,note_on,51,0,0
2,note_on,44,0,0
2,note_on,44,44,12
2,note_on,51,44,0
2,note_on,54,51,0
2,note_on,54,0,228
2,note_on,51,0,0
2,note_on,44,0,0
2,note_on,37,52,12
2,note_on,37,0,221
2,note_on,44,34,12
2,note_on,49,34,0
2,note_on,52,40,0
2,note_on,52,0,171
2,note_on,49,0,0
2,note_on,44,0,0
2,note_on,44,34,12
2,note_on,49,34,0
2,note_on,52,40,0
2,note_on,52,0,228
2,note_on,49,0,0
2,note_on,44,0,0
2,note_on,44,34,12
2,note_on,49,34,0
2,note_on,52,40,0
2,note_on,52,0,228
2,note_on,49,0,0
2,note_on,44,0,0
2,note_on,44,34,12
2,note_on,49,34,0
2,note_on,52,40,0
2,note_on,52,0,228
2,note_on,49,0,0
2,note_on,44,0,0
2,note_on,44,34,12
2,note_on,49,34,0
2,note_on,52,40,0
2,note_on,52,0,228
2,note_on,49,0,0
2,note_on,44,0,0
2,note_on,49,34,12
2,note_on,44,34,0
2,note_on,52,39,0
2,note_on,52,0,228
2,note_on,44,0,0
2,note_on,49,0,0
2,note_on,44,34,12
2,note_on,49,34,0
2,note_on,52,39,0
2,note_on,52,0,228
2,note_on,49,0,0
2,note_on,44,0,0
2,note_on,44,30,12
2,note_on,49,30,0
2,note_on,52,37,0
2,note_on,52,0,228
2,note_on,49,0,0
2,note_on,44,0,0
2,note_on,44,30,12
2,note_on,49,30,0
2,note_on,52,36,0
2,note_on,52,0,228
2,note_on,49,0,0
2,note_on,44,0,0
2,note_on,44,28,12
2,note_on,49,28,0
2,note_on,52,34,0
2,note_on,52,0,228
2,note_on,49,0,0
2,note_on,44,0,0
2,note_on,44,25,12
2,note_on,49,25,0
2,note_on,52,30,0
2,note_on,52,0,228
2,note_on,49,0,0
2,note_on,44,0,0
2,note_on,37,26,12
2,note_on,37,0,214
2,note_on,52,26,12
2,note_on,49,22,0
2,note_on,49,0,129
2,note_on,52,0,0
2,note_on,52,26,12
2,note_on,49,22,0
2,note_on,49,0,228
2,note_on,52,0,0
2,note_on,52,26,12
2,note_on,49,22,0
2,note_on,49,0,228
2,note_on,52,0,0
2,note_on,52,26,12
2,note_on,49,22,0
2,note_on,49,0,228
2,note_on,52,0,0
2,note_on,52,26,12
2,note_on,49,22,0
2,note_on,49,0,228
2,note_on,52,0,0
2,note_on,49,22,12
2,note_on,52,26,0
2,note_on,52,0,228
2,note_on,49,0,0
2,note_on,49,22,12
2,note_on,52,26,0
2,note_on,52,0,228
2,note_on,49,0,0
2,note_on,49,22,12
2,note_on,52,26,0
2,note_on,52,0,228
2,note_on,49,0,0
2,note_on,49,22,12
2,note_on,52,26,0
2,note_on,52,0,228
2,note_on,49,0,0
2,note_on,49,22,12
2,note_on,52,26,0
2,note_on,52,0,228
2,note_on,49,0,0
2,note_on,49,22,12
2,note_on,52,26,0
2,note_on,52,0,228
2,note_on,49,0,0
2,note_on,39,26,12
2,note_on,39,0,22
2,note_on,51,26,12
2,note_on,51,0,228
2,note_on,51,26,12
2,note_on,51,0,228
2,note_on,51,25,12
2,note_on,51,0,228
2,note_on,51,25,12
2,note_on,51,0,228
2,note_on,51,24,12
2,note_on,51,0,228
2,note_on,51,24,12
2,note_on,51,0,228
2,note_on,51,24,12
2,note_on,51,0,228
2,note_on,51,23,12
2,note_on,51,0,228
2,note_on,51,23,12
2,note_on,51,0,228
2,note_on,51,22,12
2,note_on,51,0,228
2,note_on,51,22,12
2,note_on,51,0,228
2,note_on,39,22,12
2,note_on,39,0,56
2,note_on,51,22,12
2,note_on,51,0,228
2,note_on,51,22,12
2,note_on,51,0,228
2,note_on,51,20,12
2,note_on,51,0,228
2,note_on,51,20,12
2,note_on,51,0,228
2,note_on,51,19,12
2,note_on,51,0,228
2,note_on,51,19,12
2,note_on,51,0,228
2,note_on,51,19,12
2,note_on,51,0,228
2,note_on,51,18,12
2,note_on,51,0,228
2,note_on,51,18,12
2,note_on,51,0,228
2,note_on,51,17,12
2,note_on,51,0,228
2,note_on,51,17,12
2,note_on,51,0,228
2,note_on,39,46,0
2,note_on,39,0,240
2,note_on,61,42,120
2,note_on,58,35,0
2,note_on,51,35,0
2,note_on,51,0,2400
2,note_on,58,0,0
2,note_on,61,0,0
2,note_on,55,51,0
2,note_on,51,51,0
2,note_on,58,51,0
2,note_on,61,60,0
2,note_on,61,0,2777
2,note_on,55,0,0
2,note_on,51,0,0
2,note_on,58,0,0
2,note_on,51,42,0
2,note_on,61,50,0
2,note_on,58,42,0
2,note_on,55,42,0
2,note_on,55,0,2710
2,note_on,51,0,0
2,note_on,61,0,0
2,note_on,58,0,0
2,note_on,44,40,0
2,note_on,44,0,148
2,note_on,59,34,240
2,note_on,56,34,0
2,note_on,63,40,0
2,note_on,63,0,1920
2,note_on,56,0,0
2,note_on,59,0,0
2,note_on,51,27,0
2,note_on,58,27,0
2,note_on,63,33,0
2,note_on,63,0,223
2,note_on,58,0,0
2,note_on,51,0,0
2,note_on,44,40,240
2,note_on,44,0,224
2,note_on,59,34,240
2,note_on,56,34,0
2,note_on,63,40,0
2,note_on,63,0,1920
2,note_on,56,0,0
2,note_on,59,0,0
2,note_on,51,27,0
2,note_on,58,27,0
2,note_on,63,33,0
2,note_on,63,0,229
2,note_on,58,0,0
2,note_on,51,0,0
2,note_on,63,27,240
2,note_on,59,27,0
2,note_on,56,27,0
2,note_on,56,0,456
2,note_on,59,0,0
2,note_on,63,0,0
2,note_on,51,27,24
2,note_on,64,27,0
2,note_on,58,27,0
2,note_on,58,0,456
2,note_on,64,0,0
2,note_on,51,0,0
2,note_on,51,31,24
2,note_on,58,31,0
2,note_on,64,31,0
2,note_on,64,0,456
2,note_on,58,0,0
2,note_on,51,0,0
2,note_on,51,31,24
2,note_on,58,31,0
2,note_on,64,31,0
2,note_on,64,0,456
2,note_on,58,0,0
2,note_on,51,0,0
2,note_on,51,25,24
2,note_on,58,25,0
2,note_on,63,25,0
2,note_on,63,0,456
2,note_on,58,0,0
2,note_on,51,0,0
2,note_on,61,25,24
2,note_on,51,25,0
2,note_on,58,25,0
2,note_on,58,0,456
2,note_on,51,0,0
2,note_on,61,0,0
2,note_on,44,40,24
2,note_on,44,0,200
2,note_on,59,34,240
2,note_on,56,34,0
2,note_on,63,40,0
2,note_on,63,0,1920
2,note_on,56,0,0
2,note_on,59,0,0
2,note_on,51,27,0
2,note_on,58,27,0
2,note_on,63,32,0
2,note_on,63,0,229
2,note_on,58,0,0
2,note_on,51,0,0
2,note_on,44,40,240
2,note_on,44,0,196
2,note_on,59,34,240
2,note_on,56,34,0
2,note_on,63,40,0
2,note_on,63,0,1920
2,note_on,56,0,0
2,note_on,59,0,0
2,note_on,51,27,0
2,note_on,58,27,0
2,note_on,63,32,0
2,note_on,63,0,229
2,note_on,58,0,0
2,note_on,51,0,0
2,note_on,63,27,240
2,note_on,59,27,0
2,note_on,56,27,0
2,note_on,56,0,456
2,note_on,59,0,0
2,note_on,63,0,0
2,note_on,54,27,24
2,note_on,64,27,0
2,note_on,58,27,0
2,note_on,58,0,456
2,note_on,64,0,0
2,note_on,54,0,0
2,note_on,54,31,24
2,note_on,58,31,0
2,note_on,64,31,0
2,note_on,64,0,456
2,note_on,58,0,0
2,note_on,54,0,0
2,note_on,54,31,24
2,note_on,58,31,0
2,note_on,64,31,0
2,note_on,64,0,456
2,note_on,58,0,0
2,note_on,54,0,0
2,note_on,54,25,24
2,note_on,58,25,0
2,note_on,63,25,0
2,note_on,63,0,456
2,note_on,58,0,0
2,note_on,54,0,0
2,note_on,54,25,24
2,note_on,62,25,0
2,note_on,58,25,0
2,note_on,58,0,456
2,note_on,62,0,0
2,note_on,54,0,0
2,note_on,47,50,24
2,note_on,47,0,177
2,note_on,63,50,240
2,note_on,59,42,0
2,note_on,54,42,0
2,note_on,54,0,1920
2,note_on,59,0,0
2,note_on,63,0,0
2,note_on,64,41,0
2,note_on,54,35,0
2,note_on,54,0,225
2,note_on,64,0,0
2,note_on,47,50,240
2,note_on,47,0,224
2,note_on,63,50,240
2,note_on,59,42,0
2,note_on,54,42,0
2,note_on,54,0,1920
2,note_on,59,0,0
2,note_on,63,0,0
2,note_on,64,41,0
2,note_on,54,35,0
2,note_on,54,0,227
2,note_on,64,0,0
2,note_on,63,36,240
2,note_on,59,36,0
2,note_on,59,0,456
2,note_on,63,0,0
2,note_on,54,41,24
2,note_on,64,41,0
2,note_on,64,0,456
2,note_on,54,0,0
2,note_on,54,45,24
2,note_on,64,45,0
2,note_on,64,0,456
2,note_on,54,0,0
2,note_on,54,45,24
2,note_on,64,45,0
2,note_on,64,0,456
2,note_on,54,0,0
2,note_on,63,36,24
2,note_on,54,36,0
2,note_on,54,0,456
2,note_on,63,0,0
2,note_on,61,36,24
2,note_on,54,36,0
2,note_on,54,0,456
2,note_on,61,0,0
2,note_on,47,50,24
2,note_on,47,0,204
2,note_on,62,50,240
2,note_on,59,42,0
2,note_on,54,42,0
2,note_on,54,0,1920
2,note_on,59,0,0
2,note_on,62,0,0
2,note_on,64,42,0
2,note_on,54,35,0
2,note_on,54,0,233
2,note_on,64,0,0
2,note_on,47,50,240
2,note_on,47,0,216
2,note_on,62,50,240
2,note_on,59,42,0
2,note_on,54,42,0
2,note_on,54,0,1920
2,note_on,59,0,0
2,note_on,62,0,0
2,note_on,64,41,0
2,note_on,54,35,0
2,note_on,54,0,229
2,note_on,64,0,0
2,note_on,62,40,240
2,note_on,59,40,0
2,note_on,59,0,456
2,note_on,62,0,0
2,note_on,57,45,24
2,note_on,67,45,0
2,note_on,67,0,456
2,note_on,57,0,0
2,note_on,57,43,24
2,note_on,67,43,0
2,note_on,67,0,456
2,note_on,57,0,0
2,note_on,57,41,24
2,note_on,67,41,0
2,note_on,67,0,456
2,note_on,57,0,0
2,note_on,57,39,24
2,note_on,66,39,0
2,note_on,66,0,456
2,note_on,57,0,0
2,note_on,57,37,24
2,note_on,64,37,0
2,note_on,64,0,456
2,note_on,57,0,0
2,note_on,62,36,24
2,note_on,59,36,0
2,note_on,59,0,456
2,note_on,62,0,0
2,note_on,54,42,24
2,note_on,64,42,0
2,note_on,64,0,456
2,note_on,54,0,0
2,note_on,54,41,24
2,note_on,64,41,0
2,note_on,64,0,456
2,note_on,54,0,0
2,note_on,54,41,24
2,note_on,64,41,0
2,note_on,64,0,456
2,note_on,54,0,0
2,note_on,61,39,24
2,note_on,54,39,0
2,note_on,54,0,456
2,note_on,61,0,0
2,note_on,58,37,24
2,note_on,54,37,0
2,note_on,54,0,456
2,note_on,58,0,0
2,note_on,59,36,24
2,note_on,56,36,0
2,note_on,56,0,456
2,note_on,59,0,0
2,note_on,49,44,24
2,note_on,56,44,0
2,note_on,61,44,0
2,note_on,61,0,456
2,note_on,56,0,0
2,note_on,49,0,0
2,note_on,49,42,24
2,note_on,56,42,0
2,note_on,61,42,0
2,note_on,61,0,456
2,note_on,56,0,0
2,note_on,49,0,0
2,note_on,49,44,24
2,note_on,61,44,0
2,note_on,56,44,0
2,note_on,56,0,456
2,note_on,61,0,0
2,note_on,49,0,0
2,note_on,51,43,24
2,note_on,59,43,0
2,note_on,56,43,0
2,note_on,56,0,456
2,note_on,59,0,0
2,note_on,51,0,0
2,note_on,56,42,24
2,note_on,52,42,0
2,note_on,52,0,456
2,note_on,56,0,0
2,note_on,51,41,24
2,note_on,56,41,0
2,note_on,59,41,0
2,note_on,59,0,456
2,note_on,56,0,0
2,note_on,51,0,0
2,note_on,51,40,24
2,note_on,56,40,0
2,note_on,59,40,0
2,note_on,59,0,456
2,note_on,56,0,0
2,note_on,51,0,0
2,note_on,51,40,24
2,note_on,56,40,0
2,note_on,59,40,0
2,note_on,59,0,456
2,note_on,56,0,0
2,note_on,51,0,0
2,note_on,51,31,24
2,note_on,55,31,0
2,note_on,58,31,0
2,note_on,58,0,456
2,note_on,55,0,0
2,note_on,51,0,0
2,note_on,51,30,24
2,note_on,55,30,0
2,note_on,58,30,0
2,note_on,58,0,456
2,note_on,55,0,0
2,note_on,51,0,0
2,note_on,51,29,24
2,note_on,55,29,0
2,note_on,58,29,0
2,note_on,58,0,456
2,note_on,55,0,0
2,note_on,51,0,0
2,note_on,44,40,24
2,note_on,44,0,436
2,note_on,51,34,0
2,note_on,60,40,0
2,note_on,56,34,0
2,note_on,56,0,1920
2,note_on,60,0,0
2,note_on,51,0,0
2,note_on,61,32,0
2,note_on,51,27,0
2,note_on,51,0,223
2,note_on,61,0,0
2,note_on,44,40,240
2,note_on,44,0,432
2,note_on,51,34,0
2,note_on,60,40,0
2,note_on,56,34,0
2,note_on,56,0,1920
2,note_on,60,0,0
2,note_on,51,0,0
2,note_on,61,32,0
2,note_on,51,27,0
2,note_on,51,0,219
2,note_on,61,0,0
2,note_on,44,45,240
2,note_on,44,0,444
2,note_on,51,41,0
2,note_on,60,49,0
2,note_on,56,41,0
2,note_on,56,0,1920
2,note_on,60,0,0
2,note_on,51,0,0
2,note_on,61,36,0
2,note_on,51,30,0
2,note_on,51,0,221
2,note_on,61,0,0
2,note_on,44,50,240
2,note_on,44,0,424
2,note_on,51,40,0
2,note_on,60,48,0
2,note_on,56,40,0
2,note_on,56,0,1920
2,note_on,60,0,0
2,note_on,51,0,0
2,note_on,61,40,0
2,note_on,51,34,0
2,note_on,51,0,233
2,note_on,61,0,0
2,note_on,44,40,240
2,note_on,44,0,472
2,note_on,54,27,0
2,note_on,60,33,0
2,note_on,56,27,0
2,note_on,56,0,472
2,note_on,60,0,0
2,note_on,54,0,0
2,note_on,49,40,0
2,note_on,49,0,464
2,note_on,61,29,0
2,note_on,56,25,0
2,note_on,53,25,0
2,note_on,53,0,464
2,note_on,56,0,0
2,note_on,61,0,0
2,note_on,39,40,0
2,note_on,39,0,460
2,note_on,51,29,0
2,note_on,61,35,0
2,note_on,58,29,0
2,note_on,58,0,460
2,note_on,61,0,0
2,note_on,51,0,0
2,note_on,44,40,0
2,note_on,44,0,444
2,note_on,60,37,0
2,note_on,56,31,0
2,note_on,51,31,0
2,note_on,51,0,444
2,note_on,56,0,0
2,note_on,60,0,0
2,note_on,44,50,0
2,note_on,44,0,444
2,note_on,54,34,0
2,note_on,60,41,0
2,note_on,56,34,0
2,note_on,56,0,444
2,note_on,60,0,0
2,note_on,54,0,0
2,note_on,49,60,0
2,note_on,49,0,460
2,note_on,56,44,0
2,note_on,61,52,0
2,note_on,53,44,0
2,note_on,53,0,460
2,note_on,61,0,0
2,note_on,56,0,0
2,note_on,39,70,0
2,note_on,39,0,444
2,note_on,61,61,0
2,note_on,58,51,0
2,note_on,51,51,0
2,note_on,51,0,444
2,note_on,58,0,0
2,note_on,61,0,0
2,note_on,44,76,0
2,note_on,44,0,436
2,note_on,60,63,0
2,note_on,56,53,0
2,note_on,51,53,0
2,note_on,51,0,436
2,note_on,56,0,0
2,note_on,60,0,0
2,note_on,51,50,0
2,note_on,44,34,0
2,note_on,51,0,452
2,note_on,56,60,0
2,note_on,56,0,720
2,note_on,55,50,0
2,note_on,55,0,240
2,note_on,44,0,0
2,note_on,53,50,0
2,note_on,49,34,0
2,note_on,53,0,346
2,note_on,61,60,0
2,note_on,61,0,720
2,note_on,60,50,0
2,note_on,60,0,240
2,note_on,49,0,0
2,note_on,58,50,0
2,note_on,51,34,0
2,note_on,58,0,332
2,note_on,63,60,0
2,note_on,63,0,720
2,note_on,61,50,0
2,note_on,61,0,240
2,note_on,51,0,0
2,note_on,60,50,0
2,note_on,56,34,0
2,note_on,60,0,388
2,note_on,63,60,0
2,note_on,63,0,960
2,note_on,56,0,0
2,note_on,51,66,0
2,note_on,44,56,0
2,note_on,51,0,353
2,note_on,56,73,0
2,note_on,56,0,720
2,note_on,55,60,0
2,note_on,55,0,240
2,note_on,44,0,0
2,note_on,53,68,0
2,note_on,49,57,0
2,note_on,53,0,367
2,note_on,61,76,0
2,note_on,61,0,720
2,note_on,60,70,0
2,note_on,60,0,240
2,note_on,49,0,0
2,note_on,58,72,0
2,note_on,51,61,0
2,note_on,58,0,353
2,note_on,63,78,0
2,note_on,63,0,720
2,note_on,61,71,0
2,note_on,61,0,240
2,note_on,51,0,0
2,note_on,60,72,0
2,note_on,56,60,0
2,note_on,60,0,360
2,note_on,63,79,0
2,note_on,63,0,720
2,note_on,60,69,0
2,note_on,60,0,240
2,note_on,56,0,0
2,note_on,58,78,0
2,note_on,51,66,0
2,note_on,58,0,353
2,note_on,63,86,0
2,note_on,63,0,720
2,note_on,61,79,0
2,note_on,61,0,240
2,note_on,51,0,0
2,note_on,60,80,0
2,note_on,56,67,0
2,note_on,60,0,339
2,note_on,63,87,0
2,note_on,63,0,720
2,note_on,60,78,0
2,note_on,60,0,240
2,note_on,56,0,0
2,note_on,53,61,0
2,note_on,60,74,0
2,note_on,60,0,343
2,note_on,65,79,0
2,note_on,65,0,720
2,note_on,63,71,0
2,note_on,63,0,240
2,note_on,53,0,0
2,note_on,61,76,0
2,note_on,58,58,0
2,note_on,61,0,367
2,note_on,65,80,0
2,note_on,65,0,720
2,note_on,61,71,0
2,note_on,61,0,240
2,note_on,58,0,0
2,note_on,60,76,0
2,note_on,53,58,0
2,note_on,60,0,371
2,note_on,65,80,0
2,note_on,65,0,720
2,note_on,63,71,0
2,note_on,63,0,240
2,note_on,53,0,0
2,note_on,61,76,0
2,note_on,58,58,0
2,note_on,61,0,353
2,note_on,65,79,0
2,note_on,65,0,720
2,note_on,61,71,0
2,note_on,61,0,240
2,note_on,58,0,0
2,note_on,63,76,0
2,note_on,56,58,0
2,note_on,63,0,346
2,note_on,68,80,0
2,note_on,68,0,720
2,note_on,66,73,0
2,note_on,66,0,240
2,note_on,56,0,0
2,note_on,61,65,0
2,note_on,65,78,0
2,note_on,65,0,346
2,note_on,68,81,0
2,note_on,68,0,720
2,note_on,65,72,0
2,note_on,65,0,240
2,note_on,61,0,0
2,note_on,63,76,0
2,note_on,56,64,0
2,note_on,63,0,353
2,note_on,68,82,0
2,note_on,68,0,720
2,note_on,66,71,0
2,note_on,66,0,240
2,note_on,56,0,0
2,note_on,65,80,0
2,note_on,61,67,0
2,note_on,61,0,402
2,note_on,65,0,0
2,note_on,68,88,2400
2,note_on,68,0,120
2,note_on,65,84,240
2,note_on,65,0,240
2,note_on,61,84,240
2,note_on,61,0,240
2,note_on,56,88,240
2,note_on,56,0,240
2,note_on,53,84,240
2,note_on,53,0,240
2,note_on,49,84,240
2,note_on,49,0,240
2,note_on,52,70,240
2,note_on,49,59,0
2,note_on,46,59,0
2,note_on,43,59,0
2,note_on,52,0,801
2,note_on,49,0,1
2,note_on,46,0,0
2,note_on,43,0,0
2,note_on,52,70,9
2,note_on,49,59,0
2,note_on,46,59,0
2,note_on,43,59,0
2,note_on,43,0,825
2,note_on,52,0,0
2,note_on,49,0,0
2,note_on,46,0,0
2,note_on,52,70,9
2,note_on,49,59,0
2,note_on,46,59,0
2,note_on,43,59,0
2,note_on,43,0,836
2,note_on,52,0,0
2,note_on,49,0,0
2,note_on,46,0,0
2,note_on,51,65,9
2,note_on,49,55,0
2,note_on,46,55,0
2,note_on,43,55,0
2,note_on,43,0,795
2,note_on,51,0,0
2,note_on,49,0,0
2,note_on,46,0,0
2,note_on,51,51,9
2,note_on,49,43,0
2,note_on,46,43,0
2,note_on,43,43,0
2,note_on,43,0,838
2,note_on,51,0,0
2,note_on,49,0,0
2,note_on,46,0,0
2,note_on,51,45,9
2,note_on,49,38,0
2,note_on,46,38,0
2,note_on,43,38,0
2,note_on,43,0,774
2,note_on,51,0,0
2,note_on,49,0,0
2,note_on,46,0,0
2,note_on,44,40,0
2,note_on,44,0,388
2,note_on,48,40,0
2,note_on,48,0,367
2,note_on,49,40,0
2,note_on,49,0,381
2,note_on,46,40,0
2,note_on,46,0,360
2,note_on,49,40,0
2,note_on,49,0,374
2,note_on,51,40,0
2,note_on,51,0,381
2,note_on,39,40,0
2,note_on,39,0,374
2,note_on,44,40,0
2,note_on,44,0,353
2,note_on,48,40,0
2,note_on,48,0,360
2,note_on,49,40,0
2,note_on,49,0,381
2,note_on,46,40,0
2,note_on,46,0,346
2,note_on,58,40,0
2,note_on,49,40,0
2,note_on,49,0,388
2,note_on,51,40,0
2,note_on,58,0,388
2,note_on,56,40,0
2,note_on,56,0,402
2,note_on,56,40,0
2,note_on,51,0,409
2,note_on,51,40,0
2,note_on,56,0,402
2,note_on,55,40,0
2,note_on,55,0,367
2,note_on,55,40,0
2,note_on,55,0,388
2,note_on,51,0,0
2,note_on,44,48,0
2,note_on,44,0,233
2,note_on,54,36,120
2,note_on,60,39,0
2,note_on,56,36,0
2,note_on,56,0,254
2,note_on,60,0,0
2,note_on,54,0,0
2,note_on,49,48,0
2,note_on,49,0,340
2,note_on,61,35,120
2,note_on,56,32,0
2,note_on,53,32,0
2,note_on,53,0,275
2,note_on,56,0,0
2,note_on,61,0,0
2,note_on,39,48,0
2,note_on,39,0,324
2,note_on,51,34,120
2,note_on,61,37,0
2,note_on,58,34,0
2,note_on,58,0,353
2,note_on,61,0,0
2,note_on,51,0,0
2,note_on,44,48,0
2,note_on,44,0,344
2,note_on,60,39,120
2,note_on,56,36,0
2,note_on,51,36,0
2,note_on,51,0,296
2,note_on,56,0,0
2,note_on,60,0,0
2,note_on,44,60,0
2,note_on,44,0,340
2,note_on,54,45,120
2,note_on,60,49,0
2,note_on,56,45,0
2,note_on,56,0,332
2,note_on,60,0,0
2,note_on,54,0,0
2,note_on,49,72,0
2,note_on,49,0,316
2,note_on,56,57,120
2,note_on,61,62,0
2,note_on,53,57,0
2,note_on,53,0,310
2,note_on,61,0,0
2,note_on,56,0,0
2,note_on,39,84,0
2,note_on,39,0,316
2,note_on,61,73,120
2,note_on,58,68,0
2,note_on,51,68,0
2,note_on,51,0,332
2,note_on,58,0,0
2,note_on,61,0,0
2,note_on,44,88,0
2,note_on,44,0,312
2,note_on,60,76,120
2,note_on,56,70,0
2,note_on,51,70,0
2,note_on,51,0,296
2,note_on,56,0,0
2,note_on,60,0,0
2,note_on,51,60,0
2,note_on,44,48,0
2,note_on,51,0,452
2,note_on,56,72,0
2,note_on,56,0,720
2,note_on,55,60,0
2,note_on,55,0,240
2,note_on,44,0,0
2,note_on,53,60,0
2,note_on,49,48,0
2,note_on,53,0,324
2,note_on,61,72,0
2,note_on,61,0,720
2,note_on,60,60,0
2,note_on,60,0,240
2,note_on,49,0,0
2,note_on,58,60,0
2,note_on,51,48,0
2,note_on,58,0,346
2,note_on,63,72,0
2,note_on,63,0,720
2,note_on,61,60,0
2,note_on,61,0,240
2,note_on,51,0,0
2,note_on,60,60,0
2,note_on,56,48,0
2,note_on,60,0,346
2,note_on,63,72,0
2,note_on,63,0,233
2,note_on,56,0,0
2,note_on,51,80,0
2,note_on,44,68,0
2,note_on,51,0,480
2,note_on,56,79,0
2,note_on,56,0,720
2,note_on,55,68,0
2,note_on,55,0,240
2,note_on,44,0,0
2,note_on,53,75,0
2,note_on,49,63,0
2,note_on,53,0,374
2,note_on,61,79,0
2,note_on,61,0,720
2,note_on,60,68,0
2,note_on,60,0,240
2,note_on,49,0,0
2,note_on,58,78,0
2,note_on,51,66,0
2,note_on,58,0,275
2,note_on,63,85,0
2,note_on,63,0,720
2,note_on,61,68,0
2,note_on,61,0,240
2,note_on,51,0,0
2,note_on,60,77,0
2,note_on,56,65,0
2,note_on,60,0,353
2,note_on,63,85,0
2,note_on,63,0,720
2,note_on,60,77,0
2,note_on,60,0,240
2,note_on,56,0,0
2,note_on,58,82,0
2,note_on,51,62,0
2,note_on,58,0,310
2,note_on,63,90,0
2,note_on,63,0,720
2,note_on,61,82,0
2,note_on,61,0,240
2,note_on,51,0,0
2,note_on,60,90,0
2,note_on,56,69,0
2,note_on,60,0,395
2,note_on,63,94,0
2,note_on,63,0,720
2,note_on,60,90,0
2,note_on,60,0,240
2,note_on,56,0,0
2,note_on,58,94,0
2,note_on,51,79,0
2,note_on,58,0,332
2,note_on,63,96,0
2,note_on,63,0,720
2,note_on,61,91,0
2,note_on,61,0,240
2,note_on,51,0,0
2,note_on,56,83,0
2,note_on,60,98,0
2,note_on,60,0,353
2,note_on,56,0,0
2,note_on,63,98,2400
2,note_on,63,0,113
2,note_on,60,96,240
2,note_on,60,0,240
2,note_on,56,93,240
2,note_on,56,0,240
2,note_on,51,91,240
2,note_on,51,0,240
2,note_on,48,88,240
2,note_on,48,0,240
2,note_on,51,85,240
2,note_on,51,0,240
2,note_on,44,82,240
2,note_on,44,0,266
2,note_on,39,91,852
2,note_on,51,91,0
2,note_on,51,0,348
2,note_on,39,0,0
2,note_on,32,88,932
2,note_on,44,88,0
2,note_on,44,0,400
2,note_on,32,0,0
