Track,Message Type,Note,Velocity,Time
1,note_on,74,52,1680
1,note_on,74,0,120
1,note_on,72,63,120
1,note_on,72,0,240
1,note_on,71,37,0
1,note_on,71,0,120
1,note_on,71,43,120
1,note_on,71,0,120
1,note_on,71,37,120
1,note_on,71,0,120
1,note_on,71,55,120
1,note_on,71,0,240
1,note_on,72,40,0
1,note_on,72,0,120
1,note_on,75,51,360
1,note_on,75,0,120
1,note_on,72,63,120
1,note_on,72,0,240
1,note_on,71,37,0
1,note_on,71,0,120
1,note_on,71,44,120
1,note_on,71,0,120
1,note_on,71,37,120
1,note_on,71,0,120
1,note_on,71,57,120
1,note_on,71,0,240
1,note_on,72,47,0
1,note_on,72,0,120
1,note_on,75,54,360
1,note_on,75,0,240
1,note_on,72,63,0
1,note_on,72,0,240
1,note_on,70,52,0
1,note_on,70,0,120
1,note_on,70,54,120
1,note_on,70,0,120
1,note_on,70,54,120
1,note_on,70,0,120
1,note_on,72,63,120
1,note_on,72,0,240
1,note_on,70,53,0
1,note_on,70,0,120
1,note_on,70,55,120
1,note_on,70,0,120
1,note_on,70,55,120
1,note_on,70,0,120
1,note_on,72,63,120
1,note_on,72,0,120
1,note_on,70,52,0
1,note_on,70,0,120
1,note_on,69,53,0
1,note_on,69,0,120
1,note_on,70,53,0
1,note_on,70,0,120
1,note_on,72,58,0
1,note_on,72,0,120
1,note_on,74,54,120
1,note_on,74,0,120
1,note_on,70,58,120
1,note_on,70,0,240
1,note_on,86,52,1440
1,note_on,86,0,120
1,note_on,84,64,120
1,note_on,84,0,240
1,note_on,83,37,0
1,note_on,83,0,120
1,note_on,83,43,120
1,note_on,83,0,120
1,note_on,83,37,120
1,note_on,83,0,120
1,note_on,83,55,120
1,note_on,83,0,240
1,note_on,84,42,0
1,note_on,84,0,120
1,note_on,87,51,360
1,note_on,87,0,120
1,note_on,84,64,120
1,note_on,84,0,240
1,note_on,83,37,0
1,note_on,83,0,120
1,note_on,83,44,120
1,note_on,83,0,120
1,note_on,83,37,120
1,note_on,83,0,120
1,note_on,83,57,120
1,note_on,83,0,240
1,note_on,84,47,0
1,note_on,84,0,120
1,note_on,87,54,360
1,note_on,87,0,240
1,note_on,84,64,0
1,note_on,84,0,240
1,note_on,82,52,0
1,note_on,82,0,120
1,note_on,82,54,120
1,note_on,82,0,120
1,note_on,82,54,120
1,note_on,82,0,120
1,note_on,84,64,120
1,note_on,84,0,240
1,note_on,82,53,0
1,note_on,82,0,120
1,note_on,82,55,120
1,note_on,82,0,120
1,note_on,82,55,120
1,note_on,82,0,120
1,note_on,84,64,120
1,note_on,84,0,120
1,note_on,82,52,0
1,note_on,82,0,120
1,note_on,81,53,0
1,note_on,81,0,120
1,note_on,82,53,0
1,note_on,82,0,120
1,note_on,84,58,0
1,note_on,84,0,120
1,note_on,86,54,120
1,note_on,86,0,120
1,note_on,82,58,120
1,note_on,82,0,480
1,note_on,74,57,240
1,note_on,74,0,120
1,note_on,79,60,120
1,note_on,79,0,480
1,note_on,75,60,0
1,note_on,75,0,480
1,note_on,72,60,0
1,note_on,72,0,480
1,note_on,74,60,0
1,note_on,74,0,120
1,note_on,75,58,120
1,note_on,75,0,120
1,note_on,77,57,120
1,note_on,77,0,120
1,note_on,79,53,0
1,note_on,79,0,120
1,note_on,77,53,0
1,note_on,77,0,120
1,note_on,75,53,0
1,note_on,75,0,120
1,note_on,74,59,0
1,note_on,74,0,120
1,note_on,75,52,0
1,note_on,75,0,120
1,note_on,74,52,0
1,note_on,74,0,120
1,note_on,72,53,0
1,note_on,72,0,120
1,note_on,70,60,0
1,note_on,70,0,720
1,note_on,70,57,0
1,note_on,70,0,120
1,note_on,75,60,120
1,note_on,75,0,480
1,note_on,72,60,0
1,note_on,72,0,480
1,note_on,69,60,0
1,note_on,69,0,480
1,note_on,74,65,0
1,note_on,62,54,0
1,note_on,62,0,120
1,note_on,74,0,0
1,note_on,60,49,120
1,note_on,72,58,0
1,note_on,72,0,120
1,note_on,60,0,0
1,note_on,60,55,120
1,note_on,72,66,0
1,note_on,72,0,240
1,note_on,60,0,0
1,note_on,58,51,0
1,note_on,70,60,0
1,note_on,70,0,120
1,note_on,58,0,0
1,note_on,69,67,120
1,note_on,57,56,0
1,note_on,57,0,120
1,note_on,69,0,0
1,note_on,55,52,120
1,note_on,67,61,0
1,note_on,67,0,120
1,note_on,55,0,0
1,note_on,70,73,120
1,note_on,58,61,0
1,note_on,58,0,240
1,note_on,70,0,0
1,note_on,69,66,0
1,note_on,57,55,0
1,note_on,57,0,120
1,note_on,69,0,0
1,note_on,55,59,120
1,note_on,67,71,0
1,note_on,67,0,120
1,note_on,55,0,0
1,note_on,66,66,120
1,note_on,54,55,0
1,note_on,54,0,120
1,note_on,66,0,0
1,note_on,55,60,120
1,note_on,67,72,0
1,note_on,67,0,240
1,note_on,55,0,0
1,note_on,74,81,240
1,note_on,62,69,0
1,note_on,69,69,0
1,note_on,69,0,720
1,note_on,62,0,0
1,note_on,74,0,0
1,note_on,63,53,0
1,note_on,75,64,0
1,note_on,75,0,120
1,note_on,63,0,0
1,note_on,74,68,120
1,note_on,62,57,0
1,note_on,62,0,120
1,note_on,74,0,0
1,note_on,72,64,120
1,note_on,60,53,0
1,note_on,60,0,120
1,note_on,72,0,0
1,note_on,60,58,120
1,note_on,72,69,0
1,note_on,72,0,240
1,note_on,60,0,0
1,note_on,70,64,0
1,note_on,58,53,0
1,note_on,58,0,120
1,note_on,70,0,0
1,note_on,57,58,120
1,note_on,69,69,0
1,note_on,69,0,120
1,note_on,57,0,0
1,note_on,55,53,120
1,note_on,67,64,0
1,note_on,67,0,120
1,note_on,55,0,0
1,note_on,68,72,120
1,note_on,56,60,0
1,note_on,56,0,480
1,note_on,68,0,0
1,note_on,54,55,0
1,note_on,66,66,0
1,note_on,66,0,480
1,note_on,54,0,0
1,note_on,55,59,0
1,note_on,67,71,0
1,note_on,67,0,240
1,note_on,55,0,0
1,note_on,74,52,1440
1,note_on,74,0,120
1,note_on,72,63,120
1,note_on,72,0,240
1,note_on,71,37,0
1,note_on,71,0,120
1,note_on,71,43,120
1,note_on,71,0,120
1,note_on,71,37,120
1,note_on,71,0,120
1,note_on,71,55,120
1,note_on,71,0,120
1,note_on,72,49,0
1,note_on,72,0,120
1,note_on,79,59,0
1,note_on,79,0,240
1,note_on,77,50,0
1,note_on,77,0,120
1,note_on,75,45,0
1,note_on,75,0,120
1,note_on,74,45,0
1,note_on,74,0,120
1,note_on,72,45,0
1,note_on,72,0,120
1,note_on,72,63,0
1,note_on,72,0,240
1,note_on,71,37,0
1,note_on,71,0,120
1,note_on,71,44,120
1,note_on,71,0,120
1,note_on,71,37,120
1,note_on,71,0,120
1,note_on,71,57,120
1,note_on,71,0,240
1,note_on,72,47,0
1,note_on,72,0,120
1,note_on,75,54,360
1,note_on,75,0,240
1,note_on,72,63,0
1,note_on,72,0,240
1,note_on,70,52,0
1,note_on,70,0,120
1,note_on,70,54,120
1,note_on,70,0,120
1,note_on,70,54,120
1,note_on,70,0,120
1,note_on,72,63,120
1,note_on,72,0,240
1,note_on,70,53,0
1,note_on,70,0,120
1,note_on,70,55,120
1,note_on,70,0,120
1,note_on,70,55,120
1,note_on,70,0,120
1,note_on,72,63,120
1,note_on,72,0,120
1,note_on,70,52,0
1,note_on,70,0,120
1,note_on,69,53,0
1,note_on,69,0,120
1,note_on,70,53,0
1,note_on,70,0,120
1,note_on,72,58,0
1,note_on,72,0,120
1,note_on,74,54,120
1,note_on,74,0,120
1,note_on,70,58,120
1,note_on,70,0,480
1,note_on,74,57,240
1,note_on,74,0,120
1,note_on,79,60,120
1,note_on,79,0,480
1,note_on,75,60,0
1,note_on,75,0,480
1,note_on,72,60,0
1,note_on,72,0,480
1,note_on,74,60,0
1,note_on,74,0,120
1,note_on,75,58,120
1,note_on,75,0,120
1,note_on,77,57,120
1,note_on,77,0,120
1,note_on,79,53,0
1,note_on,79,0,120
1,note_on,77,53,0
1,note_on,77,0,120
1,note_on,75,53,0
1,note_on,75,0,120
1,note_on,74,59,0
1,note_on,74,0,120
1,note_on,75,52,0
1,note_on,75,0,120
1,note_on,74,52,0
1,note_on,74,0,120
1,note_on,72,53,0
1,note_on,72,0,120
1,note_on,70,60,0
1,note_on,70,0,720
1,note_on,70,46,0
1,note_on,70,0,120
1,note_on,75,48,120
1,note_on,75,0,480
1,note_on,72,48,0
1,note_on,72,0,480
1,note_on,68,48,0
1,note_on,68,0,480
1,note_on,70,48,0
1,note_on,70,0,240
1,note_on,72,46,0
1,note_on,72,0,240
1,note_on,75,48,0
1,note_on,75,0,480
1,note_on,73,48,0
1,note_on,73,0,240
1,note_on,72,48,0
1,note_on,72,0,240
1,note_on,70,48,0
1,note_on,70,0,480
1,note_on,72,48,0
1,note_on,72,0,120
1,note_on,73,46,120
1,note_on,73,0,120
1,note_on,75,46,120
1,note_on,75,0,120
1,note_on,77,42,0
1,note_on,77,0,120
1,note_on,75,42,0
1,note_on,75,0,120
1,note_on,73,42,0
1,note_on,73,0,120
1,note_on,72,47,0
1,note_on,72,0,120
1,note_on,73,42,0
1,note_on,73,0,120
1,note_on,72,42,0
1,note_on,72,0,120
1,note_on,70,42,0
1,note_on,70,0,120
1,note_on,68,48,0
1,note_on,68,0,480
1,note_on,70,48,0
1,note_on,70,0,120
1,note_on,72,44,120
1,note_on,72,0,120
1,note_on,75,48,120
1,note_on,75,0,240
1,note_on,73,48,0
1,note_on,73,0,120
1,note_on,73,48,120
1,note_on,73,0,120
1,note_on,75,44,0
1,note_on,75,0,120
1,note_on,73,44,0
1,note_on,73,0,120
1,note_on,72,44,0
1,note_on,72,0,120
1,note_on,70,48,0
1,note_on,70,0,240
1,note_on,75,49,0
1,note_on,75,0,120
1,note_on,77,53,120
1,note_on,77,0,120
1,note_on,79,56,120
1,note_on,79,0,120
1,note_on,80,59,120
1,note_on,68,50,0
1,note_on,68,0,960
1,note_on,80,0,0
1,note_on,84,60,0
1,note_on,72,51,0
1,note_on,72,0,720
1,note_on,84,0,0
1,note_on,80,55,0
1,note_on,68,47,0
1,note_on,68,0,240
1,note_on,80,0,0
1,note_on,80,59,0
1,note_on,68,50,0
1,note_on,68,0,480
1,note_on,80,0,0
1,note_on,67,47,0
1,note_on,79,55,0
1,note_on,79,0,960
1,note_on,67,0,0
1,note_on,67,48,0
1,note_on,79,57,0
1,note_on,79,0,480
1,note_on,67,0,0
1,note_on,67,52,0
1,note_on,79,63,0
1,note_on,79,0,480
1,note_on,67,0,0
1,note_on,77,58,0
1,note_on,65,49,0
1,note_on,65,0,480
1,note_on,77,0,0
1,note_on,70,57,0
1,note_on,82,67,0
1,note_on,82,0,720
1,note_on,70,0,0
1,note_on,81,61,0
1,note_on,69,51,0
1,note_on,69,0,240
1,note_on,81,0,0
1,note_on,69,51,0
1,note_on,81,61,0
1,note_on,81,0,240
1,note_on,69,0,0
1,note_on,79,54,0
1,note_on,67,46,0
1,note_on,67,0,240
1,note_on,79,0,0
1,note_on,75,59,0
1,note_on,87,71,0
1,note_on,87,0,480
1,note_on,75,0,0
1,note_on,86,63,0
1,note_on,74,52,0
1,note_on,74,0,480
1,note_on,86,0,0
1,note_on,72,45,0
1,note_on,84,53,0
1,note_on,84,0,480
1,note_on,72,0,0
1,note_on,82,53,0
1,note_on,70,44,0
1,note_on,70,0,240
1,note_on,82,0,0
1,note_on,74,46,240
1,note_on,74,0,120
1,note_on,74,48,40
1,note_on,74,0,120
1,note_on,74,50,40
1,note_on,74,0,120
1,note_on,74,51,40
1,note_on,74,0,120
1,note_on,74,49,40
1,note_on,74,0,120
1,note_on,74,47,40
1,note_on,74,0,120
1,note_on,74,51,40
1,note_on,74,0,120
1,note_on,72,46,0
1,note_on,72,0,120
1,note_on,74,47,0
1,note_on,74,0,120
1,note_on,75,47,0
1,note_on,75,0,120
1,note_on,74,53,0
1,note_on,74,0,240
1,note_on,86,52,1440
1,note_on,86,0,120
1,note_on,84,63,120
1,note_on,84,0,240
1,note_on,83,37,0
1,note_on,83,0,120
1,note_on,83,43,120
1,note_on,83,0,120
1,note_on,83,37,120
1,note_on,83,0,120
1,note_on,83,55,120
1,note_on,83,0,120
1,note_on,84,49,0
1,note_on,84,0,120
1,note_on,91,59,0
1,note_on,91,0,240
1,note_on,89,50,0
1,note_on,89,0,120
1,note_on,87,45,0
1,note_on,87,0,120
1,note_on,86,45,0
1,note_on,86,0,120
1,note_on,84,45,0
1,note_on,84,0,120
1,note_on,84,63,0
1,note_on,84,0,240
1,note_on,83,37,0
1,note_on,83,0,120
1,note_on,83,44,120
1,note_on,83,0,120
1,note_on,83,37,120
1,note_on,83,0,120
1,note_on,83,57,120
1,note_on,83,0,240
1,note_on,84,47,0
1,note_on,84,0,120
1,note_on,87,54,360
1,note_on,87,0,240
1,note_on,84,63,0
1,note_on,84,0,240
1,note_on,82,52,0
1,note_on,82,0,120
1,note_on,82,54,120
1,note_on,82,0,120
1,note_on,82,54,120
1,note_on,82,0,120
1,note_on,84,63,120
1,note_on,84,0,240
1,note_on,82,53,0
1,note_on,82,0,120
1,note_on,82,55,120
1,note_on,82,0,120
1,note_on,82,55,120
1,note_on,82,0,120
1,note_on,79,63,120
1,note_on,79,0,120
1,note_on,77,52,0
1,note_on,77,0,120
1,note_on,76,53,0
1,note_on,76,0,120
1,note_on,77,53,0
1,note_on,77,0,120
1,note_on,75,58,0
1,note_on,75,0,120
1,note_on,72,54,120
1,note_on,72,0,120
1,note_on,70,58,120
1,note_on,70,0,120
1,note_on,74,55,120
1,note_on,74,0,120
1,note_on,77,55,120
1,note_on,77,0,120
1,note_on,82,55,120
1,note_on,82,0,120
1,note_on,86,60,120
1,note_on,86,0,240
1,note_on,84,58,0
1,note_on,84,0,120
1,note_on,84,61,120
1,note_on,84,0,120
1,note_on,84,58,120
1,note_on,84,0,120
1,note_on,79,63,120
1,note_on,79,0,120
1,note_on,77,52,0
1,note_on,77,0,120
1,note_on,76,53,0
1,note_on,76,0,120
1,note_on,77,53,0
1,note_on,77,0,120
1,note_on,72,58,0
1,note_on,72,0,120
1,note_on,69,54,120
1,note_on,69,0,120
1,note_on,86,65,120
1,note_on,86,0,240
1,note_on,84,58,0
1,note_on,84,0,120
1,note_on,84,61,120
1,note_on,84,0,120
1,note_on,84,58,120
1,note_on,84,0,120
1,note_on,79,63,120
1,note_on,79,0,120
1,note_on,77,52,0
1,note_on,77,0,120
1,note_on,76,53,0
1,note_on,76,0,120
1,note_on,77,53,0
1,note_on,77,0,120
1,note_on,72,58,0
1,note_on,72,0,120
1,note_on,69,54,120
1,note_on,69,0,120
1,note_on,81,54,120
1,note_on,81,0,240
1,note_on,79,49,0
1,note_on,79,0,120
1,note_on,79,52,120
1,note_on,79,0,120
1,note_on,79,49,120
1,note_on,79,0,120
1,note_on,86,53,120
1,note_on,86,0,120
1,note_on,84,44,0
1,note_on,84,0,120
1,note_on,83,45,0
1,note_on,83,0,120
1,note_on,84,45,0
1,note_on,84,0,120
1,note_on,79,49,0
1,note_on,79,0,120
1,note_on,76,46,120
1,note_on,76,0,120
1,note_on,81,54,120
1,note_on,81,0,240
1,note_on,79,49,0
1,note_on,79,0,120
1,note_on,79,52,120
1,note_on,79,0,120
1,note_on,79,49,120
1,note_on,79,0,120
1,note_on,86,53,120
1,note_on,86,0,120
1,note_on,84,44,0
1,note_on,84,0,120
1,note_on,83,45,0
1,note_on,83,0,120
1,note_on,84,45,0
1,note_on,84,0,120
1,note_on,79,49,0
1,note_on,79,0,120
1,note_on,76,46,120
1,note_on,76,0,120
1,note_on,74,53,120
1,note_on,74,0,120
1,note_on,72,44,0
1,note_on,72,0,120
1,note_on,71,45,0
1,note_on,71,0,120
1,note_on,72,45,0
1,note_on,72,0,120
1,note_on,67,49,0
1,note_on,67,0,120
1,note_on,64,46,120
1,note_on,64,0,120
1,note_on,67,52,2280
1,note_on,64,52,0
1,note_on,72,52,0
1,note_on,72,0,120
1,note_on,64,0,0
1,note_on,67,0,0
1,note_on,64,52,120
1,note_on,72,52,0
1,note_on,69,52,0
1,note_on,69,0,120
1,note_on,72,0,0
1,note_on,64,0,0
1,note_on,64,52,120
1,note_on,70,52,0
1,note_on,72,52,0
1,note_on,72,0,120
1,note_on,70,0,0
1,note_on,64,0,0
1,note_on,72,52,120
1,note_on,69,34,120
1,note_on,69,0,120
1,note_on,65,33,0
1,note_on,65,0,120
1,note_on,69,33,0
1,note_on,69,0,120
1,note_on,72,0,0
1,note_on,77,53,0
1,note_on,69,39,120
1,note_on,69,0,120
1,note_on,65,39,0
1,note_on,65,0,120
1,note_on,69,39,0
1,note_on,69,0,120
1,note_on,77,0,0
1,note_on,72,52,0
1,note_on,76,52,0
1,note_on,72,0,120
1,note_on,69,38,0
1,note_on,69,0,120
1,note_on,64,38,0
1,note_on,64,0,120
1,note_on,69,38,0
1,note_on,69,0,120
1,note_on,76,0,0
1,note_on,70,51,0
1,note_on,74,51,0
1,note_on,70,0,120
1,note_on,65,34,0
1,note_on,65,0,120
1,note_on,62,34,0
1,note_on,62,0,120
1,note_on,65,34,0
1,note_on,65,0,120
1,note_on,74,0,0
1,note_on,69,51,0
1,note_on,74,51,0
1,note_on,69,0,120
1,note_on,65,35,0
1,note_on,65,0,120
1,note_on,62,35,0
1,note_on,62,0,120
1,note_on,65,35,0
1,note_on,65,0,120
1,note_on,74,0,0
1,note_on,69,49,0
1,note_on,72,49,0
1,note_on,69,0,120
1,note_on,65,35,0
1,note_on,65,0,120
1,note_on,60,35,0
1,note_on,60,0,120
1,note_on,65,35,0
1,note_on,65,0,120
1,note_on,72,0,0
1,note_on,69,50,0
1,note_on,72,50,0
1,note_on,69,0,120
1,note_on,64,36,0
1,note_on,64,0,120
1,note_on,60,36,0
1,note_on,60,0,120
1,note_on,64,36,0
1,note_on,64,0,120
1,note_on,72,0,0
1,note_on,67,49,0
1,note_on,70,49,0
1,note_on,67,0,120
1,note_on,64,34,0
1,note_on,64,0,120
1,note_on,58,34,0
1,note_on,58,0,120
1,note_on,64,34,0
1,note_on,64,0,120
1,note_on,70,0,0
1,note_on,67,50,0
1,note_on,70,50,0
1,note_on,67,0,120
1,note_on,62,35,0
1,note_on,62,0,120
1,note_on,58,35,0
1,note_on,58,0,120
1,note_on,62,35,0
1,note_on,62,0,120
1,note_on,70,0,0
1,note_on,65,49,0
1,note_on,69,49,0
1,note_on,65,0,120
1,note_on,62,35,0
1,note_on,62,0,120
1,note_on,57,35,0
1,note_on,57,0,120
1,note_on,62,35,0
1,note_on,62,0,120
1,note_on,69,0,0
1,note_on,64,48,0
1,note_on,69,48,0
1,note_on,64,0,120
1,note_on,61,36,0
1,note_on,61,0,120
1,note_on,57,36,0
1,note_on,57,0,120
1,note_on,61,36,0
1,note_on,61,0,120
1,note_on,69,0,0
1,note_on,67,47,0
1,note_on,64,35,120
1,note_on,64,0,120
1,note_on,57,35,0
1,note_on,57,0,120
1,note_on,64,35,0
1,note_on,64,0,120
1,note_on,67,0,0
1,note_on,67,48,0
1,note_on,64,38,120
1,note_on,64,0,120
1,note_on,57,42,0
1,note_on,57,0,120
1,note_on,64,45,0
1,note_on,64,0,120
1,note_on,67,0,0
1,note_on,65,52,0
1,note_on,62,39,120
1,note_on,62,0,120
1,note_on,57,39,0
1,note_on,57,0,120
1,note_on,62,39,0
1,note_on,62,0,120
1,note_on,65,0,0
1,note_on,64,49,0
1,note_on,64,0,480
1,note_on,62,47,0
1,note_on,62,0,480
1,note_on,64,52,1200
1,note_on,67,52,0
1,note_on,72,52,0
1,note_on,72,0,120
1,note_on,67,0,0
1,note_on,64,0,0
1,note_on,64,52,120
1,note_on,69,52,0
1,note_on,72,52,0
1,note_on,72,0,120
1,note_on,69,0,0
1,note_on,64,0,0
1,note_on,64,52,120
1,note_on,70,52,0
1,note_on,72,52,0
1,note_on,72,0,120
1,note_on,70,0,0
1,note_on,64,0,0
1,note_on,72,52,120
1,note_on,69,37,120
1,note_on,69,0,120
1,note_on,65,37,0
1,note_on,65,0,120
1,note_on,69,37,0
1,note_on,69,0,120
1,note_on,72,0,0
1,note_on,77,53,0
1,note_on,69,40,120
1,note_on,69,0,120
1,note_on,65,40,0
1,note_on,65,0,120
1,note_on,69,42,0
1,note_on,69,0,120
1,note_on,77,0,0
1,note_on,72,52,0
1,note_on,76,52,0
1,note_on,72,0,120
1,note_on,69,38,0
1,note_on,69,0,120
1,note_on,64,38,0
1,note_on,64,0,120
1,note_on,69,38,0
1,note_on,69,0,120
1,note_on,76,0,0
1,note_on,70,51,0
1,note_on,74,51,0
1,note_on,70,0,120
1,note_on,65,34,0
1,note_on,65,0,120
1,note_on,62,34,0
1,note_on,62,0,120
1,note_on,65,34,0
1,note_on,65,0,120
1,note_on,74,0,0
1,note_on,69,48,0
1,note_on,74,48,0
1,note_on,69,0,120
1,note_on,65,37,0
1,note_on,65,0,120
1,note_on,62,37,0
1,note_on,62,0,120
1,note_on,65,37,0
1,note_on,65,0,120
1,note_on,74,0,0
1,note_on,69,49,0
1,note_on,72,49,0
1,note_on,69,0,120
1,note_on,65,35,0
1,note_on,65,0,120
1,note_on,60,35,0
1,note_on,60,0,120
1,note_on,65,35,0
1,note_on,65,0,120
1,note_on,72,0,0
1,note_on,69,49,0
1,note_on,72,49,0
1,note_on,69,0,120
1,note_on,64,36,0
1,note_on,64,0,120
1,note_on,60,36,0
1,note_on,60,0,120
1,note_on,64,37,0
1,note_on,64,0,120
1,note_on,72,0,0
1,note_on,67,49,0
1,note_on,70,49,0
1,note_on,67,0,120
1,note_on,64,35,0
1,note_on,64,0,120
1,note_on,58,35,0
1,note_on,58,0,120
1,note_on,64,35,0
1,note_on,64,0,120
1,note_on,70,0,0
1,note_on,67,50,0
1,note_on,70,50,0
1,note_on,67,0,120
1,note_on,62,36,0
1,note_on,62,0,120
1,note_on,58,36,0
1,note_on,58,0,120
1,note_on,62,36,0
1,note_on,62,0,120
1,note_on,70,0,0
1,note_on,65,49,0
1,note_on,69,49,0
1,note_on,65,0,120
1,note_on,62,36,0
1,note_on,62,0,120
1,note_on,57,36,0
1,note_on,57,0,120
1,note_on,62,36,0
1,note_on,62,0,120
1,note_on,69,0,0
1,note_on,64,48,0
1,note_on,69,48,0
1,note_on,64,0,120
1,note_on,61,36,0
1,note_on,61,0,120
1,note_on,57,36,0
1,note_on,57,0,120
1,note_on,61,36,0
1,note_on,61,0,120
1,note_on,69,0,0
1,note_on,67,47,0
1,note_on,64,37,120
1,note_on,64,0,120
1,note_on,57,37,0
1,note_on,57,0,120
1,note_on,64,37,0
1,note_on,64,0,120
1,note_on,67,0,0
1,note_on,67,48,0
1,note_on,64,38,120
1,note_on,64,0,120
1,note_on,57,42,0
1,note_on,57,0,120
1,note_on,64,45,0
1,note_on,64,0,120
1,note_on,67,0,0
1,note_on,66,52,0
1,note_on,62,43,120
1,note_on,62,0,120
1,note_on,57,44,0
1,note_on,57,0,120
1,note_on,62,44,0
1,note_on,62,0,120
1,note_on,66,0,0
1,note_on,64,49,0
1,note_on,62,40,120
1,note_on,62,0,120
1,note_on,59,38,0
1,note_on,59,0,120
1,note_on,62,36,0
1,note_on,62,0,120
1,note_on,64,0,0
1,note_on,66,45,0
1,note_on,61,33,120
1,note_on,61,0,120
1,note_on,57,33,0
1,note_on,57,0,120
1,note_on,61,33,0
1,note_on,61,0,120
1,note_on,66,0,0
1,note_on,62,43,0
1,note_on,57,35,120
1,note_on,57,0,120
1,note_on,54,35,0
1,note_on,54,0,120
1,note_on,57,35,0
1,note_on,57,0,120
1,note_on,62,0,0
1,note_on,64,49,0
1,note_on,59,35,120
1,note_on,59,0,120
1,note_on,55,35,0
1,note_on,55,0,120
1,note_on,59,35,0
1,note_on,59,0,120
1,note_on,64,0,0
1,note_on,66,49,0
1,note_on,60,35,120
1,note_on,60,0,120
1,note_on,57,36,0
1,note_on,57,0,120
1,note_on,60,36,0
1,note_on,60,0,120
1,note_on,66,0,0
1,note_on,66,52,0
1,note_on,60,38,120
1,note_on,60,0,120
1,note_on,57,38,0
1,note_on,57,0,120
1,note_on,60,39,0
1,note_on,60,0,120
1,note_on,66,0,0
1,note_on,66,56,0
1,note_on,60,39,120
1,note_on,60,0,120
1,note_on,57,39,0
1,note_on,57,0,120
1,note_on,60,38,0
1,note_on,60,0,120
1,note_on,66,0,0
1,note_on,67,52,0
1,note_on,62,37,120
1,note_on,62,0,120
1,note_on,59,36,0
1,note_on,59,0,120
1,note_on,62,35,0
1,note_on,62,0,120
1,note_on,67,0,0
1,note_on,66,49,0
1,note_on,62,35,120
1,note_on,62,0,120
1,note_on,57,35,0
1,note_on,57,0,120
1,note_on,62,35,0
1,note_on,62,0,120
1,note_on,66,0,0
1,note_on,64,49,0
1,note_on,61,35,120
1,note_on,61,0,120
1,note_on,57,35,0
1,note_on,57,0,120
1,note_on,61,35,0
1,note_on,61,0,120
1,note_on,64,0,0
1,note_on,66,47,0
1,note_on,62,35,120
1,note_on,62,0,120
1,note_on,60,35,0
1,note_on,60,0,120
1,note_on,62,35,0
1,note_on,62,0,120
1,note_on,66,0,0
1,note_on,67,49,0
1,note_on,64,35,120
1,note_on,64,0,120
1,note_on,60,35,0
1,note_on,60,0,120
1,note_on,64,35,0
1,note_on,64,0,120
1,note_on,67,0,0
1,note_on,69,49,0
1,note_on,66,35,120
1,note_on,66,0,120
1,note_on,60,36,0
1,note_on,60,0,120
1,note_on,66,36,0
1,note_on,66,0,120
1,note_on,69,0,0
1,note_on,69,52,0
1,note_on,66,38,120
1,note_on,66,0,120
1,note_on,60,38,0
1,note_on,60,0,120
1,note_on,66,39,0
1,note_on,66,0,120
1,note_on,69,0,0
1,note_on,69,56,0
1,note_on,66,39,120
1,note_on,66,0,120
1,note_on,60,39,0
1,note_on,60,0,120
1,note_on,66,38,0
1,note_on,66,0,120
1,note_on,69,0,0
1,note_on,71,52,0
1,note_on,67,37,120
1,note_on,67,0,120
1,note_on,59,36,0
1,note_on,59,0,120
1,note_on,67,35,0
1,note_on,67,0,120
1,note_on,71,0,0
1,note_on,69,49,0
1,note_on,66,35,120
1,note_on,66,0,120
1,note_on,62,35,0
1,note_on,62,0,120
1,note_on,66,35,0
1,note_on,66,0,120
1,note_on,69,0,0
1,note_on,69,49,0
1,note_on,64,35,120
1,note_on,64,0,120
1,note_on,61,35,0
1,note_on,61,0,120
1,note_on,64,35,0
1,note_on,64,0,120
1,note_on,69,0,0
1,note_on,69,42,0
1,note_on,66,31,120
1,note_on,66,0,120
1,note_on,62,31,0
1,note_on,62,0,120
1,note_on,66,31,0
1,note_on,66,0,120
1,note_on,69,0,0
1,note_on,74,39,0
1,note_on,69,31,120
1,note_on,69,0,120
1,note_on,62,31,0
1,note_on,62,0,120
1,note_on,69,31,0
1,note_on,69,0,120
1,note_on,74,0,0
1,note_on,73,44,0
1,note_on,69,31,120
1,note_on,69,0,120
1,note_on,64,32,0
1,note_on,64,0,120
1,note_on,69,32,0
1,note_on,69,0,120
1,note_on,73,0,0
1,note_on,76,40,0
1,note_on,69,34,120
1,note_on,69,0,120
1,note_on,64,33,0
1,note_on,64,0,120
1,note_on,69,33,0
1,note_on,69,0,120
1,note_on,76,0,0
1,note_on,69,39,0
1,note_on,66,32,120
1,note_on,66,0,120
1,note_on,62,32,0
1,note_on,62,0,120
1,note_on,66,32,0
1,note_on,66,0,120
1,note_on,69,0,0
1,note_on,71,39,0
1,note_on,67,31,120
1,note_on,67,0,120
1,note_on,62,31,0
1,note_on,62,0,120
1,note_on,67,31,0
1,note_on,67,0,120
1,note_on,71,0,0
1,note_on,69,40,0
1,note_on,67,31,120
1,note_on,67,0,120
1,note_on,64,31,0
1,note_on,64,0,120
1,note_on,67,31,0
1,note_on,67,0,120
1,note_on,69,0,0
1,note_on,69,38,0
1,note_on,67,31,120
1,note_on,67,0,120
1,note_on,61,31,0
1,note_on,61,0,120
1,note_on,67,31,0
1,note_on,67,0,120
1,note_on,69,0,0
1,note_on,69,42,0
1,note_on,66,31,120
1,note_on,66,0,120
1,note_on,62,31,0
1,note_on,62,0,120
1,note_on,66,31,0
1,note_on,66,0,120
1,note_on,69,0,0
1,note_on,74,39,0
1,note_on,69,31,120
1,note_on,69,0,120
1,note_on,62,31,0
1,note_on,62,0,120
1,note_on,69,31,0
1,note_on,69,0,120
1,note_on,74,0,0
1,note_on,73,44,0
1,note_on,69,31,120
1,note_on,69,0,120
1,note_on,64,32,0
1,note_on,64,0,120
1,note_on,69,32,0
1,note_on,69,0,120
1,note_on,73,0,0
1,note_on,76,40,0
1,note_on,69,34,120
1,note_on,69,0,120
1,note_on,64,33,0
1,note_on,64,0,120
1,note_on,69,33,0
1,note_on,69,0,120
1,note_on,76,0,0
1,note_on,69,40,0
1,note_on,66,32,120
1,note_on,66,0,120
1,note_on,62,32,0
1,note_on,62,0,120
1,note_on,66,32,0
1,note_on,66,0,120
1,note_on,69,0,0
1,note_on,70,39,0
1,note_on,67,31,120
1,note_on,67,0,120
1,note_on,62,31,0
1,note_on,62,0,120
1,note_on,67,31,0
1,note_on,67,0,120
1,note_on,70,0,0
1,note_on,69,39,0
1,note_on,67,31,120
1,note_on,67,0,120
1,note_on,64,31,0
1,note_on,64,0,120
1,note_on,67,31,0
1,note_on,67,0,120
1,note_on,69,0,0
1,note_on,69,38,0
1,note_on,67,31,120
1,note_on,67,0,120
1,note_on,61,31,0
1,note_on,61,0,120
1,note_on,67,31,0
1,note_on,67,0,120
1,note_on,69,0,0
1,note_on,69,44,0
1,note_on,66,31,120
1,note_on,66,0,120
1,note_on,62,31,0
1,note_on,62,0,120
1,note_on,66,31,0
1,note_on,66,0,120
1,note_on,69,0,0
1,note_on,70,37,0
1,note_on,67,29,120
1,note_on,67,0,120
1,note_on,62,28,0
1,note_on,62,0,120
1,note_on,67,28,0
1,note_on,67,0,120
1,note_on,70,0,0
1,note_on,69,36,0
1,note_on,67,28,120
1,note_on,67,0,120
1,note_on,64,28,0
1,note_on,64,0,120
1,note_on,67,28,0
1,note_on,67,0,120
1,note_on,69,0,0
1,note_on,69,34,0
1,note_on,67,28,120
1,note_on,67,0,120
1,note_on,61,28,0
1,note_on,61,0,120
1,note_on,67,28,0
1,note_on,67,0,120
1,note_on,69,0,0
1,note_on,69,36,0
1,note_on,65,28,120
1,note_on,65,0,120
1,note_on,62,28,0
1,note_on,62,0,120
1,note_on,65,28,0
1,note_on,65,0,120
1,note_on,69,0,0
1,note_on,69,34,0
1,note_on,65,28,120
1,note_on,65,0,120
1,note_on,60,28,0
1,note_on,60,0,120
1,note_on,65,28,0
1,note_on,65,0,120
1,note_on,69,0,0
1,note_on,69,36,0
1,note_on,64,28,120
1,note_on,64,0,120
1,note_on,60,28,0
1,note_on,60,0,120
1,note_on,64,28,0
1,note_on,64,0,120
1,note_on,69,0,0
1,note_on,67,34,0
1,note_on,64,28,120
1,note_on,64,0,120
1,note_on,60,28,0
1,note_on,60,0,120
1,note_on,64,28,0
1,note_on,64,0,120
1,note_on,67,0,0
1,note_on,67,36,0
1,note_on,63,28,120
1,note_on,63,0,120
1,note_on,60,28,0
1,note_on,60,0,120
1,note_on,63,28,0
1,note_on,63,0,120
1,note_on,67,0,0
1,note_on,67,34,0
1,note_on,63,28,120
1,note_on,63,0,120
1,note_on,58,28,0
1,note_on,58,0,120
1,note_on,63,28,0
1,note_on,63,0,120
1,note_on,67,0,0
1,note_on,67,36,0
1,note_on,62,28,120
1,note_on,62,0,120
1,note_on,58,28,0
1,note_on,58,0,120
1,note_on,62,28,0
1,note_on,62,0,120
1,note_on,67,0,0
1,note_on,65,34,0
1,note_on,62,28,120
1,note_on,62,0,120
1,note_on,58,28,0
1,note_on,58,0,120
1,note_on,62,28,0
1,note_on,62,0,120
1,note_on,65,0,0
1,note_on,65,42,0
1,note_on,62,32,120
1,note_on,62,0,120
1,note_on,58,32,0
1,note_on,58,0,120
1,note_on,62,32,0
1,note_on,62,0,120
1,note_on,65,0,0
1,note_on,65,39,0
1,note_on,62,33,120
1,note_on,62,0,120
1,note_on,57,33,0
1,note_on,57,0,120
1,note_on,62,33,0
1,note_on,62,0,120
1,note_on,65,0,0
1,note_on,65,44,0
1,note_on,60,34,120
1,note_on,60,0,120
1,note_on,57,34,0
1,note_on,57,0,120
1,note_on,60,34,0
1,note_on,60,0,120
1,note_on,65,0,0
1,note_on,64,43,0
1,note_on,60,35,120
1,note_on,60,0,120
1,note_on,57,35,0
1,note_on,57,0,120
1,note_on,60,35,0
1,note_on,60,0,120
1,note_on,64,0,0
1,note_on,64,46,0
1,note_on,60,34,120
1,note_on,60,0,120
1,note_on,57,36,0
1,note_on,57,0,120
1,note_on,60,38,0
1,note_on,60,0,120
1,note_on,64,0,0
1,note_on,72,50,0
1,note_on,67,38,120
1,note_on,67,0,120
1,note_on,64,38,0
1,note_on,64,0,120
1,note_on,67,38,0
1,note_on,67,0,120
1,note_on,72,0,0
1,note_on,72,51,0
1,note_on,69,38,120
1,note_on,69,0,120
1,note_on,65,37,0
1,note_on,65,0,120
1,note_on,69,34,0
1,note_on,69,0,120
1,note_on,72,0,0
1,note_on,72,43,0
1,note_on,70,35,120
1,note_on,70,0,120
1,note_on,64,35,0
1,note_on,64,0,120
1,note_on,70,35,0
1,note_on,70,0,120
1,note_on,72,0,0
1,note_on,72,52,0
1,note_on,69,38,120
1,note_on,69,0,120
1,note_on,65,38,0
1,note_on,65,0,120
1,note_on,69,38,0
1,note_on,69,0,120
1,note_on,72,0,0
1,note_on,77,53,0
1,note_on,69,43,120
1,note_on,69,0,120
1,note_on,65,44,0
1,note_on,65,0,120
1,note_on,69,44,0
1,note_on,69,0,120
1,note_on,77,0,0
1,note_on,72,52,0
1,note_on,76,52,0
1,note_on,72,0,120
1,note_on,69,38,0
1,note_on,69,0,120
1,note_on,64,38,0
1,note_on,64,0,120
1,note_on,69,38,0
1,note_on,69,0,120
1,note_on,76,0,0
1,note_on,70,51,0
1,note_on,74,51,0
1,note_on,70,0,120
1,note_on,65,34,0
1,note_on,65,0,120
1,note_on,62,34,0
1,note_on,62,0,120
1,note_on,65,34,0
1,note_on,65,0,120
1,note_on,74,0,0
1,note_on,69,50,0
1,note_on,74,50,0
1,note_on,69,0,120
1,note_on,65,36,0
1,note_on,65,0,120
1,note_on,62,36,0
1,note_on,62,0,120
1,note_on,65,36,0
1,note_on,65,0,120
1,note_on,74,0,0
1,note_on,69,49,0
1,note_on,72,49,0
1,note_on,69,0,120
1,note_on,65,35,0
1,note_on,65,0,120
1,note_on,60,35,0
1,note_on,60,0,120
1,note_on,65,35,0
1,note_on,65,0,120
1,note_on,72,0,0
1,note_on,69,50,0
1,note_on,72,50,0
1,note_on,69,0,120
1,note_on,64,36,0
1,note_on,64,0,120
1,note_on,60,36,0
1,note_on,60,0,120
1,note_on,64,36,0
1,note_on,64,0,120
1,note_on,72,0,0
1,note_on,67,49,0
1,note_on,70,49,0
1,note_on,67,0,120
1,note_on,64,35,0
1,note_on,64,0,120
1,note_on,58,35,0
1,note_on,58,0,120
1,note_on,64,35,0
1,note_on,64,0,120
1,note_on,70,0,0
1,note_on,67,50,0
1,note_on,70,50,0
1,note_on,67,0,120
1,note_on,62,36,0
1,note_on,62,0,120
1,note_on,58,36,0
1,note_on,58,0,120
1,note_on,62,36,0
1,note_on,62,0,120
1,note_on,70,0,0
1,note_on,65,49,0
1,note_on,69,49,0
1,note_on,65,0,120
1,note_on,62,36,0
1,note_on,62,0,120
1,note_on,57,36,0
1,note_on,57,0,120
1,note_on,62,36,0
1,note_on,62,0,120
1,note_on,69,0,0
1,note_on,64,48,0
1,note_on,69,48,0
1,note_on,64,0,120
1,note_on,61,36,0
1,note_on,61,0,120
1,note_on,57,36,0
1,note_on,57,0,120
1,note_on,61,36,0
1,note_on,61,0,120
1,note_on,69,0,0
1,note_on,67,47,0
1,note_on,64,37,120
1,note_on,64,0,120
1,note_on,57,37,0
1,note_on,57,0,120
1,note_on,64,37,0
1,note_on,64,0,120
1,note_on,67,0,0
1,note_on,67,48,0
1,note_on,64,38,120
1,note_on,64,0,120
1,note_on,57,42,0
1,note_on,57,0,120
1,note_on,64,45,0
1,note_on,64,0,120
1,note_on,67,0,0
1,note_on,65,52,0
1,note_on,62,43,120
1,note_on,62,0,120
1,note_on,57,44,0
1,note_on,57,0,120
1,note_on,62,44,0
1,note_on,62,0,120
1,note_on,65,0,0
1,note_on,67,49,0
1,note_on,65,35,120
1,note_on,65,0,120
1,note_on,62,35,0
1,note_on,62,0,120
1,note_on,65,35,0
1,note_on,65,0,120
1,note_on,67,0,0
1,note_on,69,45,0
1,note_on,64,33,120
1,note_on,64,0,120
1,note_on,60,33,0
1,note_on,60,0,120
1,note_on,64,33,0
1,note_on,64,0,120
1,note_on,69,0,0
1,note_on,65,47,0
1,note_on,60,35,120
1,note_on,60,0,120
1,note_on,57,35,0
1,note_on,57,0,120
1,note_on,60,35,0
1,note_on,60,0,120
1,note_on,65,0,0
1,note_on,67,49,0
1,note_on,62,35,120
1,note_on,62,0,120
1,note_on,58,35,0
1,note_on,58,0,120
1,note_on,62,35,0
1,note_on,62,0,120
1,note_on,67,0,0
1,note_on,69,49,0
1,note_on,63,35,120
1,note_on,63,0,120
1,note_on,60,36,0
1,note_on,60,0,120
1,note_on,63,36,0
1,note_on,63,0,120
1,note_on,69,0,0
1,note_on,69,52,0
1,note_on,63,38,120
1,note_on,63,0,120
1,note_on,60,38,0
1,note_on,60,0,120
1,note_on,63,39,0
1,note_on,63,0,120
1,note_on,69,0,0
1,note_on,69,53,0
1,note_on,63,37,120
1,note_on,63,0,120
1,note_on,60,36,0
1,note_on,60,0,120
1,note_on,63,36,0
1,note_on,63,0,120
1,note_on,69,0,0
1,note_on,70,49,0
1,note_on,65,37,120
1,note_on,65,0,120
1,note_on,62,36,0
1,note_on,62,0,120
1,note_on,65,35,0
1,note_on,65,0,120
1,note_on,70,0,0
1,note_on,69,49,0
1,note_on,65,35,120
1,note_on,65,0,120
1,note_on,60,35,0
1,note_on,60,0,120
1,note_on,65,35,0
1,note_on,65,0,120
1,note_on,69,0,0
1,note_on,67,49,0
1,note_on,64,35,120
1,note_on,64,0,120
1,note_on,60,35,0
1,note_on,60,0,120
1,note_on,64,35,0
1,note_on,64,0,120
1,note_on,67,0,0
1,note_on,69,47,0
1,note_on,65,35,120
1,note_on,65,0,120
1,note_on,63,35,0
1,note_on,63,0,120
1,note_on,65,35,0
1,note_on,65,0,120
1,note_on,69,0,0
1,note_on,70,49,0
1,note_on,67,35,120
1,note_on,67,0,120
1,note_on,63,35,0
1,note_on,63,0,120
1,note_on,67,35,0
1,note_on,67,0,120
1,note_on,70,0,0
1,note_on,72,49,0
1,note_on,69,35,120
1,note_on,69,0,120
1,note_on,63,36,0
1,note_on,63,0,120
1,note_on,69,36,0
1,note_on,69,0,120
1,note_on,72,0,0
1,note_on,72,52,0
1,note_on,69,38,120
1,note_on,69,0,120
1,note_on,63,38,0
1,note_on,63,0,120
1,note_on,69,39,0
1,note_on,69,0,120
1,note_on,72,0,0
1,note_on,72,56,0
1,note_on,69,39,120
1,note_on,69,0,120
1,note_on,63,39,0
1,note_on,63,0,120
1,note_on,69,38,0
1,note_on,69,0,120
1,note_on,72,0,0
1,note_on,74,52,0
1,note_on,70,37,120
1,note_on,70,0,120
1,note_on,62,36,0
1,note_on,62,0,120
1,note_on,70,35,0
1,note_on,70,0,120
1,note_on,74,0,0
1,note_on,72,49,0
1,note_on,69,34,120
1,note_on,69,0,120
1,note_on,65,34,0
1,note_on,65,0,120
1,note_on,69,34,0
1,note_on,69,0,120
1,note_on,72,0,0
1,note_on,72,47,0
1,note_on,67,34,120
1,note_on,67,0,120
1,note_on,64,33,0
1,note_on,64,0,120
1,note_on,67,32,0
1,note_on,67,0,120
1,note_on,72,0,0
1,note_on,72,42,0
1,note_on,69,31,120
1,note_on,69,0,120
1,note_on,65,31,0
1,note_on,65,0,120
1,note_on,69,31,0
1,note_on,69,0,120
1,note_on,72,0,0
1,note_on,77,39,0
1,note_on,72,31,120
1,note_on,72,0,120
1,note_on,65,31,0
1,note_on,65,0,120
1,note_on,72,31,0
1,note_on,72,0,120
1,note_on,77,0,0
1,note_on,76,44,0
1,note_on,72,31,120
1,note_on,72,0,120
1,note_on,67,32,0
1,note_on,67,0,120
1,note_on,72,32,0
1,note_on,72,0,120
1,note_on,76,0,0
1,note_on,79,40,0
1,note_on,72,34,120
1,note_on,72,0,120
1,note_on,67,33,0
1,note_on,67,0,120
1,note_on,72,33,0
1,note_on,72,0,120
1,note_on,79,0,0
1,note_on,72,44,0
1,note_on,69,32,120
1,note_on,69,0,120
1,note_on,65,32,0
1,note_on,65,0,120
1,note_on,69,32,0
1,note_on,69,0,120
1,note_on,72,0,0
1,note_on,74,39,0
1,note_on,70,31,120
1,note_on,70,0,120
1,note_on,65,31,0
1,note_on,65,0,120
1,note_on,70,31,0
1,note_on,70,0,120
1,note_on,74,0,0
1,note_on,72,40,0
1,note_on,70,31,120
1,note_on,70,0,120
1,note_on,67,31,0
1,note_on,67,0,120
1,note_on,70,31,0
1,note_on,70,0,120
1,note_on,72,0,0
1,note_on,72,38,0
1,note_on,70,31,120
1,note_on,70,0,120
1,note_on,64,31,0
1,note_on,64,0,120
1,note_on,70,31,0
1,note_on,70,0,120
1,note_on,72,0,0
1,note_on,72,42,0
1,note_on,69,31,120
1,note_on,69,0,120
1,note_on,65,31,0
1,note_on,65,0,120
1,note_on,69,31,0
1,note_on,69,0,120
1,note_on,72,0,0
1,note_on,77,39,0
1,note_on,72,31,120
1,note_on,72,0,120
1,note_on,65,31,0
1,note_on,65,0,120
1,note_on,72,31,0
1,note_on,72,0,120
1,note_on,77,0,0
1,note_on,76,44,0
1,note_on,72,31,120
1,note_on,72,0,120
1,note_on,67,32,0
1,note_on,67,0,120
1,note_on,72,32,0
1,note_on,72,0,120
1,note_on,76,0,0
1,note_on,79,40,0
1,note_on,72,34,120
1,note_on,72,0,120
1,note_on,67,33,0
1,note_on,67,0,120
1,note_on,72,33,0
1,note_on,72,0,120
1,note_on,79,0,0
1,note_on,72,44,0
1,note_on,69,32,120
1,note_on,69,0,120
1,note_on,65,32,0
1,note_on,65,0,120
1,note_on,69,32,0
1,note_on,69,0,120
1,note_on,72,0,0
1,note_on,73,39,0
1,note_on,70,31,120
1,note_on,70,0,120
1,note_on,65,31,0
1,note_on,65,0,120
1,note_on,70,31,0
1,note_on,70,0,120
1,note_on,73,0,0
1,note_on,72,39,0
1,note_on,70,31,120
1,note_on,70,0,120
1,note_on,67,31,0
1,note_on,67,0,120
1,note_on,70,31,0
1,note_on,70,0,120
1,note_on,72,0,0
1,note_on,72,38,0
1,note_on,70,31,120
1,note_on,70,0,120
1,note_on,64,31,0
1,note_on,64,0,120
1,note_on,70,31,0
1,note_on,70,0,120
1,note_on,72,0,0
1,note_on,68,89,1920
1,note_on,72,89,0
1,note_on,77,106,0
1,note_on,77,0,840
1,note_on,72,0,0
1,note_on,68,0,0
1,note_on,68,77,0
1,note_on,72,77,0
1,note_on,77,92,0
1,note_on,77,0,114
1,note_on,72,0,0
1,note_on,68,0,0
1,note_on,68,81,6
1,note_on,72,81,0
1,note_on,80,96,0
1,note_on,80,0,360
1,note_on,72,0,0
1,note_on,68,0,0
1,note_on,68,76,0
1,note_on,72,76,0
1,note_on,80,91,0
1,note_on,80,0,114
1,note_on,72,0,0
1,note_on,68,0,0
1,note_on,68,81,6
1,note_on,72,81,0
1,note_on,77,96,0
1,note_on,77,0,360
1,note_on,72,0,0
1,note_on,68,0,0
1,note_on,68,77,0
1,note_on,72,77,0
1,note_on,77,92,0
1,note_on,77,0,114
1,note_on,72,0,0
1,note_on,68,0,0
1,note_on,65,81,6
1,note_on,68,81,0
1,note_on,72,96,0
1,note_on,72,0,360
1,note_on,68,0,0
1,note_on,65,0,0
1,note_on,65,77,0
1,note_on,68,77,0
1,note_on,72,92,0
1,note_on,72,0,114
1,note_on,68,0,0
1,note_on,65,0,0
1,note_on,60,77,6
1,note_on,65,77,0
1,note_on,68,91,0
1,note_on,68,0,360
1,note_on,65,0,0
1,note_on,60,0,0
1,note_on,60,72,0
1,note_on,65,72,0
1,note_on,68,86,0
1,note_on,68,0,114
1,note_on,65,0,0
1,note_on,60,0,0
1,note_on,56,77,6
1,note_on,60,77,0
1,note_on,65,91,0
1,note_on,65,0,360
1,note_on,60,0,0
1,note_on,56,0,0
1,note_on,56,72,0
1,note_on,60,72,0
1,note_on,65,86,0
1,note_on,65,0,114
1,note_on,60,0,0
1,note_on,56,0,0
1,note_on,56,77,6
1,note_on,60,91,0
1,note_on,60,0,360
1,note_on,56,0,0
1,note_on,56,71,0
1,note_on,60,71,0
1,note_on,65,85,0
1,note_on,65,0,120
1,note_on,60,0,0
1,note_on,56,0,0
1,note_on,58,81,0
1,note_on,61,81,0
1,note_on,66,96,0
1,note_on,66,0,120
1,note_on,61,0,0
1,note_on,58,0,0
1,note_on,78,61,120
1,note_on,82,65,120
1,note_on,78,0,20
1,note_on,85,68,100
1,note_on,82,0,20
1,note_on,83,68,100
1,note_on,85,0,20
1,note_on,82,67,100
1,note_on,83,0,20
1,note_on,80,67,100
1,note_on,82,0,20
1,note_on,78,68,100
1,note_on,80,0,20
1,note_on,77,68,100
1,note_on,78,0,20
1,note_on,75,67,100
1,note_on,77,0,20
1,note_on,73,67,100
1,note_on,75,0,20
1,note_on,71,67,100
1,note_on,73,0,20
1,note_on,70,67,100
1,note_on,71,0,20
1,note_on,68,67,100
1,note_on,70,0,20
1,note_on,66,67,100
1,note_on,68,0,20
1,note_on,68,67,100
1,note_on,66,0,20
1,note_on,65,68,100
1,note_on,68,0,20
1,note_on,66,72,100
1,note_on,65,0,20
1,note_on,70,75,100
1,note_on,66,0,20
1,note_on,73,74,100
1,note_on,70,0,20
1,note_on,71,73,100
1,note_on,73,0,20
1,note_on,70,73,100
1,note_on,71,0,20
1,note_on,68,72,100
1,note_on,70,0,20
1,note_on,66,71,100
1,note_on,68,0,20
1,note_on,65,71,100
1,note_on,66,0,20
1,note_on,63,72,100
1,note_on,65,0,20
1,note_on,61,73,100
1,note_on,63,0,20
1,note_on,59,74,100
1,note_on,61,0,20
1,note_on,58,75,100
1,note_on,59,0,20
1,note_on,56,76,100
1,note_on,58,0,20
1,note_on,54,79,100
1,note_on,56,0,20
1,note_on,54,0,100
1,note_on,49,86,0
1,note_on,54,86,0
1,note_on,54,0,240
1,note_on,49,0,0
1,note_on,58,74,0
1,note_on,61,74,0
1,note_on,66,88,0
1,note_on,66,0,480
1,note_on,61,0,0
1,note_on,58,0,0
1,note_on,61,73,0
1,note_on,66,73,0
1,note_on,70,87,0
1,note_on,70,0,480
1,note_on,66,0,0
1,note_on,61,0,0
1,note_on,66,69,0
1,note_on,70,69,0
1,note_on,73,81,0
1,note_on,73,0,120
1,note_on,70,0,0
1,note_on,66,0,0
1,note_on,70,71,120
1,note_on,73,71,0
1,note_on,78,85,0
1,note_on,78,0,120
1,note_on,73,0,0
1,note_on,70,0,0
1,note_on,73,74,120
1,note_on,78,74,0
1,note_on,82,88,0
1,note_on,82,0,120
1,note_on,78,0,0
1,note_on,73,0,0
1,note_on,58,75,120
1,note_on,64,75,0
1,note_on,67,86,0
1,note_on,67,0,240
1,note_on,64,0,0
1,note_on,58,0,0
1,note_on,64,74,0
1,note_on,67,74,0
1,note_on,70,88,0
1,note_on,70,0,480
1,note_on,67,0,0
1,note_on,64,0,0
1,note_on,67,73,0
1,note_on,70,73,0
1,note_on,76,87,0
1,note_on,76,0,480
1,note_on,70,0,0
1,note_on,67,0,0
1,note_on,70,69,0
1,note_on,76,69,0
1,note_on,79,81,0
1,note_on,79,0,120
1,note_on,76,0,0
1,note_on,70,0,0
1,note_on,76,71,120
1,note_on,79,71,0
1,note_on,82,85,0
1,note_on,82,0,120
1,note_on,79,0,0
1,note_on,76,0,0
1,note_on,79,74,120
1,note_on,82,74,0
1,note_on,88,88,0
1,note_on,88,0,120
1,note_on,82,0,0
1,note_on,79,0,0
1,note_on,77,89,120
1,note_on,80,89,0
1,note_on,84,89,0
1,note_on,89,106,0
1,note_on,89,0,840
1,note_on,77,0,0
1,note_on,80,0,0
1,note_on,84,0,0
1,note_on,77,77,0
1,note_on,89,92,0
1,note_on,89,0,120
1,note_on,77,0,0
1,note_on,80,81,0
1,note_on,92,96,0
1,note_on,92,0,360
1,note_on,80,0,0
1,note_on,80,76,0
1,note_on,92,91,0
1,note_on,92,0,120
1,note_on,80,0,0
1,note_on,77,81,0
1,note_on,89,96,0
1,note_on,89,0,360
1,note_on,77,0,0
1,note_on,77,77,0
1,note_on,89,92,0
1,note_on,89,0,120
1,note_on,77,0,0
1,note_on,73,81,0
1,note_on,85,96,0
1,note_on,85,0,360
1,note_on,73,0,0
1,note_on,73,77,0
1,note_on,85,92,0
1,note_on,85,0,120
1,note_on,73,0,0
1,note_on,68,77,0
1,note_on,80,91,0
1,note_on,80,0,360
1,note_on,68,0,0
1,note_on,68,72,0
1,note_on,80,86,0
1,note_on,80,0,120
1,note_on,68,0,0
1,note_on,69,77,0
1,note_on,81,91,0
1,note_on,81,0,360
1,note_on,69,0,0
1,note_on,69,72,0
1,note_on,81,86,0
1,note_on,81,0,120
1,note_on,69,0,0
1,note_on,65,77,0
1,note_on,77,91,0
1,note_on,77,0,360
1,note_on,65,0,0
1,note_on,65,71,0
1,note_on,77,85,0
1,note_on,77,0,120
1,note_on,65,0,0
1,note_on,70,79,0
1,note_on,73,79,0
1,note_on,77,79,0
1,note_on,82,94,0
1,note_on,82,0,840
1,note_on,70,0,0
1,note_on,73,0,0
1,note_on,77,0,0
1,note_on,82,73,0
1,note_on,94,87,0
1,note_on,94,0,120
1,note_on,82,0,0
1,note_on,85,77,0
1,note_on,97,91,0
1,note_on,97,0,360
1,note_on,85,0,0
1,note_on,85,72,0
1,note_on,97,86,0
1,note_on,97,0,120
1,note_on,85,0,0
1,note_on,82,77,0
1,note_on,94,91,0
1,note_on,94,0,360
1,note_on,82,0,0
1,note_on,82,73,0
1,note_on,94,87,0
1,note_on,94,0,120
1,note_on,82,0,0
1,note_on,78,77,0
1,note_on,90,91,0
1,note_on,90,0,360
1,note_on,78,0,0
1,note_on,78,73,0
1,note_on,90,87,0
1,note_on,90,0,120
1,note_on,78,0,0
1,note_on,77,73,0
1,note_on,89,86,0
1,note_on,89,0,360
1,note_on,77,0,0
1,note_on,77,68,0
1,note_on,89,80,0
1,note_on,89,0,120
1,note_on,77,0,0
1,note_on,76,73,0
1,note_on,88,86,0
1,note_on,88,0,360
1,note_on,76,0,0
1,note_on,76,68,0
1,note_on,88,80,0
1,note_on,88,0,120
1,note_on,76,0,0
1,note_on,84,73,0
1,note_on,96,86,0
1,note_on,96,0,360
1,note_on,84,0,0
1,note_on,84,67,0
1,note_on,96,79,0
1,note_on,96,0,120
1,note_on,84,0,0
1,note_on,77,79,0
1,note_on,80,79,0
1,note_on,84,79,0
1,note_on,89,94,0
1,note_on,89,0,840
1,note_on,77,0,0
1,note_on,80,0,0
1,note_on,84,0,0
1,note_on,77,73,0
1,note_on,89,87,0
1,note_on,89,0,120
1,note_on,77,0,0
1,note_on,80,77,0
1,note_on,92,91,0
1,note_on,92,0,360
1,note_on,80,0,0
1,note_on,80,72,0
1,note_on,92,86,0
1,note_on,92,0,120
1,note_on,80,0,0
1,note_on,77,77,0
1,note_on,89,91,0
1,note_on,89,0,360
1,note_on,77,0,0
1,note_on,77,73,0
1,note_on,89,87,0
1,note_on,89,0,120
1,note_on,77,0,0
1,note_on,73,77,0
1,note_on,85,91,0
1,note_on,85,0,360
1,note_on,73,0,0
1,note_on,73,73,0
1,note_on,85,87,0
1,note_on,85,0,120
1,note_on,73,0,0
1,note_on,68,73,0
1,note_on,80,86,0
1,note_on,80,0,360
1,note_on,68,0,0
1,note_on,68,68,0
1,note_on,80,80,0
1,note_on,80,0,120
1,note_on,68,0,0
1,note_on,72,73,0
1,note_on,84,86,0
1,note_on,84,0,360
1,note_on,72,0,0
1,note_on,72,68,0
1,note_on,84,80,0
1,note_on,84,0,120
1,note_on,72,0,0
1,note_on,68,73,0
1,note_on,80,86,0
1,note_on,80,0,360
1,note_on,68,0,0
1,note_on,68,67,0
1,note_on,80,79,0
1,note_on,80,0,120
1,note_on,68,0,0
1,note_on,73,79,0
1,note_on,77,79,0
1,note_on,80,79,0
1,note_on,85,94,0
1,note_on,85,0,840
1,note_on,73,0,0
1,note_on,77,0,0
1,note_on,80,0,0
1,note_on,73,69,0
1,note_on,85,81,0
1,note_on,85,0,120
1,note_on,73,0,0
1,note_on,77,73,0
1,note_on,89,86,0
1,note_on,89,0,360
1,note_on,77,0,0
1,note_on,77,68,0
1,note_on,89,80,0
1,note_on,89,0,120
1,note_on,77,0,0
1,note_on,73,73,0
1,note_on,85,86,0
1,note_on,85,0,360
1,note_on,73,0,0
1,note_on,73,69,0
1,note_on,85,81,0
1,note_on,85,0,120
1,note_on,73,0,0
1,note_on,72,73,0
1,note_on,84,86,0
1,note_on,84,0,360
1,note_on,72,0,0
1,note_on,72,69,0
1,note_on,84,81,0
1,note_on,84,0,120
1,note_on,72,0,0
1,note_on,70,69,0
1,note_on,82,80,0
1,note_on,82,0,360
1,note_on,70,0,0
1,note_on,70,64,0
1,note_on,82,76,0
1,note_on,82,0,120
1,note_on,70,0,0
1,note_on,72,69,0
1,note_on,84,80,0
1,note_on,84,0,360
1,note_on,72,0,0
1,note_on,72,64,0
1,note_on,84,76,0
1,note_on,84,0,120
1,note_on,72,0,0
1,note_on,72,69,0
1,note_on,84,80,0
1,note_on,84,0,360
1,note_on,72,0,0
1,note_on,72,63,0
1,note_on,84,75,0
1,note_on,84,0,120
1,note_on,72,0,0
1,note_on,72,66,0
1,note_on,84,76,0
1,note_on,84,0,360
1,note_on,72,0,0
1,note_on,72,57,0
1,note_on,84,68,0
1,note_on,84,0,120
1,note_on,72,0,0
1,note_on,72,60,0
1,note_on,84,71,0
1,note_on,84,0,360
1,note_on,72,0,0
1,note_on,72,51,0
1,note_on,84,61,0
1,note_on,84,0,120
1,note_on,72,0,0
1,note_on,77,58,0
1,note_on,77,0,480
1,note_on,77,43,360
1,note_on,77,0,120
1,note_on,81,48,0
1,note_on,81,0,360
1,note_on,81,43,0
1,note_on,81,0,120
1,note_on,77,48,0
1,note_on,77,0,360
1,note_on,77,42,0
1,note_on,77,0,120
1,note_on,72,48,0
1,note_on,72,0,360
1,note_on,72,43,0
1,note_on,72,0,120
1,note_on,69,48,0
1,note_on,69,0,360
1,note_on,69,43,0
1,note_on,69,0,120
1,note_on,70,48,0
1,note_on,70,0,360
1,note_on,70,42,0
1,note_on,70,0,120
1,note_on,67,48,0
1,note_on,67,0,360
1,note_on,67,42,0
1,note_on,67,0,120
1,note_on,72,48,0
1,note_on,72,0,360
1,note_on,77,36,0
1,note_on,77,0,120
1,note_on,72,45,0
1,note_on,72,0,240
1,note_on,77,43,120
1,note_on,77,0,120
1,note_on,81,48,0
1,note_on,81,0,360
1,note_on,81,45,0
1,note_on,81,0,120
1,note_on,84,52,0
1,note_on,84,0,360
1,note_on,84,48,0
1,note_on,84,0,120
1,note_on,89,52,0
1,note_on,89,0,360
1,note_on,89,50,0
1,note_on,89,0,120
1,note_on,91,56,0
1,note_on,91,0,360
1,note_on,91,49,0
1,note_on,91,0,120
1,note_on,93,55,0
1,note_on,93,0,360
1,note_on,93,48,0
1,note_on,93,0,120
1,note_on,96,54,0
1,note_on,96,0,360
1,note_on,96,47,0
1,note_on,96,0,120
1,note_on,93,53,0
1,note_on,93,0,240
1,note_on,77,43,600
1,note_on,77,0,120
1,note_on,81,48,0
1,note_on,81,0,360
1,note_on,81,43,0
1,note_on,81,0,120
1,note_on,77,48,0
1,note_on,77,0,360
1,note_on,77,42,0
1,note_on,77,0,120
1,note_on,72,48,0
1,note_on,72,0,360
1,note_on,72,43,0
1,note_on,72,0,120
1,note_on,69,48,0
1,note_on,69,0,360
1,note_on,69,43,0
1,note_on,69,0,120
1,note_on,72,48,0
1,note_on,72,0,360
1,note_on,72,42,0
1,note_on,72,0,120
1,note_on,70,48,0
1,note_on,70,0,360
1,note_on,70,42,0
1,note_on,70,0,120
1,note_on,69,48,0
1,note_on,69,0,360
1,note_on,77,36,0
1,note_on,77,0,120
1,note_on,72,45,0
1,note_on,72,0,240
1,note_on,77,43,120
1,note_on,77,0,120
1,note_on,81,48,0
1,note_on,81,0,360
1,note_on,81,45,0
1,note_on,81,0,120
1,note_on,84,52,0
1,note_on,84,0,360
1,note_on,84,48,0
1,note_on,84,0,120
1,note_on,89,52,0
1,note_on,89,0,360
1,note_on,89,50,0
1,note_on,89,0,120
1,note_on,91,56,0
1,note_on,91,0,360
1,note_on,91,49,0
1,note_on,91,0,120
1,note_on,93,55,0
1,note_on,93,0,360
1,note_on,93,48,0
1,note_on,93,0,120
1,note_on,96,54,0
1,note_on,96,0,360
1,note_on,96,47,0
1,note_on,96,0,120
1,note_on,101,53,0
1,note_on,101,0,240
1,note_on,88,43,600
1,note_on,88,0,120
1,note_on,89,48,0
1,note_on,89,0,360
1,note_on,89,45,0
1,note_on,89,0,120
1,note_on,87,52,0
1,note_on,87,0,360
1,note_on,87,48,0
1,note_on,87,0,120
1,note_on,84,52,0
1,note_on,84,0,360
1,note_on,84,50,0
1,note_on,84,0,120
1,note_on,81,56,0
1,note_on,81,0,360
1,note_on,81,49,0
1,note_on,81,0,120
1,note_on,84,55,0
1,note_on,84,0,360
1,note_on,84,48,0
1,note_on,84,0,120
1,note_on,85,54,0
1,note_on,85,0,360
1,note_on,85,47,0
1,note_on,85,0,120
1,note_on,86,55,0
1,note_on,86,0,360
1,note_on,86,47,0
1,note_on,86,0,120
1,note_on,86,52,0
1,note_on,86,0,360
1,note_on,86,44,0
1,note_on,86,0,120
1,note_on,86,51,0
1,note_on,86,0,360
1,note_on,86,43,0
1,note_on,86,0,120
1,note_on,86,48,0
1,note_on,86,0,360
1,note_on,86,40,0
1,note_on,86,0,120
1,note_on,86,47,0
1,note_on,86,0,240
1,note_on,74,48,600
1,note_on,74,0,90
1,note_on,75,53,30
1,note_on,75,0,240
1,note_on,74,49,0
1,note_on,74,0,240
1,note_on,74,51,0
1,note_on,74,0,120
1,note_on,74,49,120
1,note_on,74,0,120
1,note_on,74,47,120
1,note_on,74,0,240
1,note_on,93,43,600
1,note_on,93,0,120
1,note_on,94,48,0
1,note_on,94,0,360
1,note_on,94,45,0
1,note_on,94,0,120
1,note_on,92,52,0
1,note_on,92,0,360
1,note_on,92,48,0
1,note_on,92,0,120
1,note_on,89,52,0
1,note_on,89,0,360
1,note_on,89,48,0
1,note_on,89,0,120
1,note_on,86,54,0
1,note_on,86,0,360
1,note_on,86,49,0
1,note_on,86,0,120
1,note_on,89,54,0
1,note_on,89,0,360
1,note_on,89,48,0
1,note_on,89,0,120
1,note_on,90,54,0
1,note_on,90,0,360
1,note_on,90,47,0
1,note_on,90,0,120
1,note_on,91,55,0
1,note_on,91,0,360
1,note_on,91,47,0
1,note_on,91,0,120
1,note_on,91,52,0
1,note_on,91,0,360
1,note_on,91,44,0
1,note_on,91,0,120
1,note_on,91,51,0
1,note_on,91,0,360
1,note_on,91,43,0
1,note_on,91,0,120
1,note_on,91,48,0
1,note_on,91,0,360
1,note_on,91,40,0
1,note_on,91,0,120
1,note_on,91,47,0
1,note_on,91,0,240
1,note_on,79,48,600
1,note_on,79,0,90
1,note_on,80,53,30
1,note_on,80,0,240
1,note_on,79,49,0
1,note_on,79,0,120
1,note_on,79,51,120
1,note_on,79,0,120
1,note_on,79,49,120
1,note_on,79,0,120
1,note_on,79,47,120
1,note_on,79,0,240
1,note_on,94,48,600
1,note_on,94,0,90
1,note_on,92,53,30
1,note_on,92,0,240
1,note_on,91,49,0
1,note_on,91,0,120
1,note_on,91,51,120
1,note_on,91,0,120
1,note_on,91,49,120
1,note_on,91,0,120
1,note_on,91,47,120
1,note_on,91,0,240
1,note_on,67,48,600
1,note_on,67,0,90
1,note_on,68,53,30
1,note_on,68,0,240
1,note_on,67,49,0
1,note_on,67,0,120
1,note_on,67,51,120
1,note_on,67,0,120
1,note_on,67,49,120
1,note_on,67,0,120
1,note_on,67,47,120
1,note_on,67,0,240
1,note_on,82,48,600
1,note_on,82,0,90
1,note_on,80,53,30
1,note_on,80,0,240
1,note_on,79,49,0
1,note_on,79,0,120
1,note_on,79,51,120
1,note_on,79,0,120
1,note_on,79,49,120
1,note_on,79,0,120
1,note_on,80,53,120
1,note_on,80,0,240
1,note_on,79,49,0
1,note_on,79,0,120
1,note_on,79,51,120
1,note_on,79,0,120
1,note_on,79,49,120
1,note_on,79,0,120
1,note_on,79,53,120
1,note_on,79,0,240
1,note_on,74,52,1560
1,note_on,74,0,90
1,note_on,72,63,30
1,note_on,72,0,240
1,note_on,71,37,0
1,note_on,71,0,120
1,note_on,71,43,120
1,note_on,71,0,120
1,note_on,71,37,120
1,note_on,71,0,120
1,note_on,71,55,120
1,note_on,71,0,240
1,note_on,72,40,0
1,note_on,72,0,120
1,note_on,75,51,480
1,note_on,75,0,90
1,note_on,72,63,30
1,note_on,72,0,240
1,note_on,71,37,0
1,note_on,71,0,120
1,note_on,71,44,120
1,note_on,71,0,120
1,note_on,71,37,120
1,note_on,71,0,120
1,note_on,71,57,120
1,note_on,71,0,240
1,note_on,72,47,0
1,note_on,72,0,120
1,note_on,75,54,480
1,note_on,75,0,90
1,note_on,72,63,30
1,note_on,72,0,240
1,note_on,70,52,0
1,note_on,70,0,120
1,note_on,70,54,120
1,note_on,70,0,120
1,note_on,70,54,120
1,note_on,70,0,120
1,note_on,72,63,120
1,note_on,72,0,240
1,note_on,70,53,0
1,note_on,70,0,120
1,note_on,70,55,120
1,note_on,70,0,120
1,note_on,70,55,120
1,note_on,70,0,120
1,note_on,72,63,120
1,note_on,72,0,120
1,note_on,70,52,0
1,note_on,70,0,120
1,note_on,69,53,0
1,note_on,69,0,120
1,note_on,70,53,0
1,note_on,70,0,120
1,note_on,72,58,0
1,note_on,72,0,120
1,note_on,74,54,120
1,note_on,74,0,120
1,note_on,70,58,120
1,note_on,70,0,240
1,note_on,86,52,1560
1,note_on,86,0,90
1,note_on,84,64,30
1,note_on,84,0,240
1,note_on,83,37,0
1,note_on,83,0,120
1,note_on,83,43,120
1,note_on,83,0,120
1,note_on,83,37,120
1,note_on,83,0,120
1,note_on,83,55,120
1,note_on,83,0,240
1,note_on,84,42,0
1,note_on,84,0,120
1,note_on,87,51,480
1,note_on,87,0,90
1,note_on,84,64,30
1,note_on,84,0,240
1,note_on,83,37,0
1,note_on,83,0,120
1,note_on,83,44,120
1,note_on,83,0,120
1,note_on,83,37,120
1,note_on,83,0,120
1,note_on,83,57,120
1,note_on,83,0,240
1,note_on,84,47,0
1,note_on,84,0,120
1,note_on,87,54,480
1,note_on,87,0,90
1,note_on,84,64,30
1,note_on,84,0,240
1,note_on,82,52,0
1,note_on,82,0,120
1,note_on,82,54,120
1,note_on,82,0,120
1,note_on,82,54,120
1,note_on,82,0,120
1,note_on,84,64,120
1,note_on,84,0,240
1,note_on,82,53,0
1,note_on,82,0,120
1,note_on,82,55,120
1,note_on,82,0,120
1,note_on,82,55,120
1,note_on,82,0,120
1,note_on,84,64,120
1,note_on,84,0,120
1,note_on,82,52,0
1,note_on,82,0,120
1,note_on,81,53,0
1,note_on,81,0,120
1,note_on,82,53,0
1,note_on,82,0,120
1,note_on,84,58,0
1,note_on,84,0,120
1,note_on,86,54,120
1,note_on,86,0,120
1,note_on,82,58,120
1,note_on,82,0,240
1,note_on,74,57,480
1,note_on,74,0,120
1,note_on,79,60,120
1,note_on,79,0,480
1,note_on,75,60,0
1,note_on,75,0,480
1,note_on,72,60,0
1,note_on,72,0,480
1,note_on,74,60,0
1,note_on,74,0,120
1,note_on,75,58,120
1,note_on,75,0,120
1,note_on,77,57,120
1,note_on,77,0,120
1,note_on,79,53,0
1,note_on,79,0,120
1,note_on,77,53,0
1,note_on,77,0,120
1,note_on,75,53,0
1,note_on,75,0,120
1,note_on,74,59,0
1,note_on,74,0,120
1,note_on,75,52,0
1,note_on,75,0,120
1,note_on,74,52,0
1,note_on,74,0,120
1,note_on,72,53,0
1,note_on,72,0,120
1,note_on,70,60,0
1,note_on,70,0,720
1,note_on,70,57,0
1,note_on,70,0,120
1,note_on,75,60,120
1,note_on,75,0,480
1,note_on,72,60,0
1,note_on,72,0,480
1,note_on,69,60,0
1,note_on,69,0,480
1,note_on,62,54,0
1,note_on,74,65,0
1,note_on,74,0,120
1,note_on,62,0,0
1,note_on,60,49,120
1,note_on,72,58,0
1,note_on,72,0,120
1,note_on,60,0,0
1,note_on,60,55,120
1,note_on,72,66,0
1,note_on,72,0,240
1,note_on,60,0,0
1,note_on,58,51,0
1,note_on,70,60,0
1,note_on,70,0,120
1,note_on,58,0,0
1,note_on,57,56,120
1,note_on,69,67,0
1,note_on,69,0,120
1,note_on,57,0,0
1,note_on,55,52,120
1,note_on,67,61,0
1,note_on,67,0,120
1,note_on,55,0,0
1,note_on,58,61,120
1,note_on,70,73,0
1,note_on,70,0,240
1,note_on,58,0,0
1,note_on,69,66,0
1,note_on,57,55,0
1,note_on,57,0,120
1,note_on,69,0,0
1,note_on,55,59,120
1,note_on,67,71,0
1,note_on,67,0,120
1,note_on,55,0,0
1,note_on,54,55,120
1,note_on,66,66,0
1,note_on,66,0,120
1,note_on,54,0,0
1,note_on,55,60,120
1,note_on,67,72,0
1,note_on,67,0,240
1,note_on,55,0,0
1,note_on,62,69,240
1,note_on,74,81,0
1,note_on,74,0,720
1,note_on,62,0,0
1,note_on,63,53,0
1,note_on,75,64,0
1,note_on,75,0,120
1,note_on,63,0,0
1,note_on,62,57,120
1,note_on,74,68,0
1,note_on,74,0,120
1,note_on,62,0,0
1,note_on,60,53,120
1,note_on,72,64,0
1,note_on,72,0,120
1,note_on,60,0,0
1,note_on,60,58,120
1,note_on,72,69,0
1,note_on,72,0,240
1,note_on,60,0,0
1,note_on,58,53,0
1,note_on,70,64,0
1,note_on,70,0,120
1,note_on,58,0,0
1,note_on,57,58,120
1,note_on,69,69,0
1,note_on,69,0,120
1,note_on,57,0,0
1,note_on,55,53,120
1,note_on,67,64,0
1,note_on,67,0,120
1,note_on,55,0,0
1,note_on,56,60,120
1,note_on,68,72,0
1,note_on,68,0,480
1,note_on,56,0,0
1,note_on,54,55,0
1,note_on,66,66,0
1,note_on,66,0,480
1,note_on,54,0,0
1,note_on,55,59,0
1,note_on,67,71,0
1,note_on,67,0,240
1,note_on,55,0,0
1,note_on,70,64,480
1,note_on,82,76,0
1,note_on,82,0,120
1,note_on,70,0,0
1,note_on,69,71,120
1,note_on,81,84,0
1,note_on,81,0,240
1,note_on,69,0,0
1,note_on,67,54,0
1,note_on,79,65,0
1,note_on,79,0,120
1,note_on,67,0,0
1,note_on,67,59,120
1,note_on,79,71,0
1,note_on,79,0,120
1,note_on,67,0,0
1,note_on,67,53,120
1,note_on,79,64,0
1,note_on,79,0,120
1,note_on,67,0,0
1,note_on,67,70,120
1,note_on,79,82,0
1,note_on,79,0,240
1,note_on,67,0,0
1,note_on,66,64,0
1,note_on,78,76,0
1,note_on,78,0,120
1,note_on,66,0,0
1,note_on,67,64,360
1,note_on,79,76,0
1,note_on,79,0,120
1,note_on,67,0,0
1,note_on,65,71,120
1,note_on,77,84,0
1,note_on,77,0,240
1,note_on,65,0,0
1,note_on,64,54,0
1,note_on,76,65,0
1,note_on,76,0,120
1,note_on,64,0,0
1,note_on,63,59,120
1,note_on,75,71,0
1,note_on,75,0,120
1,note_on,63,0,0
1,note_on,63,53,120
1,note_on,75,64,0
1,note_on,75,0,120
1,note_on,63,0,0
1,note_on,63,70,120
1,note_on,75,82,0
1,note_on,75,0,240
1,note_on,63,0,0
1,note_on,62,64,0
1,note_on,74,76,0
1,note_on,74,0,120
1,note_on,62,0,0
1,note_on,74,66,120
1,note_on,86,78,0
1,note_on,86,0,480
1,note_on,74,0,0
1,note_on,75,65,0
1,note_on,87,77,0
1,note_on,87,0,480
1,note_on,75,0,0
1,note_on,73,57,0
1,note_on,85,69,0
1,note_on,85,0,480
1,note_on,73,0,0
1,note_on,74,57,0
1,note_on,86,69,0
1,note_on,86,0,480
1,note_on,74,0,0
1,note_on,83,81,0
1,note_on,83,0,160
1,note_on,71,69,0
1,note_on,71,0,160
1,note_on,83,69,0
1,note_on,83,0,160
1,note_on,84,78,0
1,note_on,84,0,160
1,note_on,72,69,0
1,note_on,72,0,160
1,note_on,84,69,0
1,note_on,84,0,160
1,note_on,81,76,0
1,note_on,81,0,160
1,note_on,69,69,0
1,note_on,69,0,160
1,note_on,81,69,0
1,note_on,81,0,160
1,note_on,82,77,0
1,note_on,82,0,160
1,note_on,70,70,0
1,note_on,70,0,160
1,note_on,82,70,0
1,note_on,82,0,160
1,note_on,79,61,0
1,note_on,81,77,0
1,note_on,81,0,160
1,note_on,79,0,0
1,note_on,69,70,0
1,note_on,69,0,160
1,note_on,79,55,0
1,note_on,81,70,0
1,note_on,81,0,160
1,note_on,79,0,0
1,note_on,79,61,0
1,note_on,81,77,0
1,note_on,81,0,160
1,note_on,79,0,0
1,note_on,69,70,0
1,note_on,69,0,160
1,note_on,79,55,0
1,note_on,81,70,0
1,note_on,81,0,160
1,note_on,79,0,0
1,note_on,79,61,0
1,note_on,81,77,0
1,note_on,81,0,160
1,note_on,79,0,0
1,note_on,69,70,0
1,note_on,69,0,160
1,note_on,79,57,0
1,note_on,81,72,0
1,note_on,81,0,160
1,note_on,79,0,0
1,note_on,78,73,0
1,note_on,81,77,0
1,note_on,81,0,480
1,note_on,78,0,0
1,note_on,74,69,240
1,note_on,86,81,0
1,note_on,86,0,240
1,note_on,74,0,0
1,note_on,75,68,0
1,note_on,87,80,0
1,note_on,87,0,480
1,note_on,75,0,0
1,note_on,73,61,0
1,note_on,85,75,0
1,note_on,85,0,480
1,note_on,73,0,0
1,note_on,74,61,0
1,note_on,86,75,0
1,note_on,86,0,480
1,note_on,74,0,0
1,note_on,74,44,240
1,note_on,86,52,0
1,note_on,86,0,240
1,note_on,74,0,0
1,note_on,72,53,0
1,note_on,84,64,0
1,note_on,84,0,240
1,note_on,72,0,0
1,note_on,71,35,0
1,note_on,83,42,0
1,note_on,83,0,120
1,note_on,71,0,0
1,note_on,71,40,120
1,note_on,83,48,0
1,note_on,83,0,120
1,note_on,71,0,0
1,note_on,71,35,120
1,note_on,83,43,0
1,note_on,83,0,120
1,note_on,71,0,0
1,note_on,71,47,120
1,note_on,83,55,0
1,note_on,83,0,240
1,note_on,71,0,0
1,note_on,72,35,0
1,note_on,84,42,0
1,note_on,84,0,120
1,note_on,72,0,0
1,note_on,72,69,360
1,note_on,84,81,0
1,note_on,84,0,240
1,note_on,72,0,0
1,note_on,73,68,0
1,note_on,85,80,0
1,note_on,85,0,480
1,note_on,73,0,0
1,note_on,71,59,0
1,note_on,83,72,0
1,note_on,83,0,480
1,note_on,71,0,0
1,note_on,72,59,0
1,note_on,84,72,0
1,note_on,84,0,480
1,note_on,72,0,0
1,note_on,72,44,240
1,note_on,84,52,0
1,note_on,84,0,240
1,note_on,72,0,0
1,note_on,70,53,0
1,note_on,82,64,0
1,note_on,82,0,240
1,note_on,70,0,0
1,note_on,69,35,0
1,note_on,81,42,0
1,note_on,81,0,120
1,note_on,69,0,0
1,note_on,69,40,120
1,note_on,81,48,0
1,note_on,81,0,120
1,note_on,69,0,0
1,note_on,69,35,120
1,note_on,81,43,0
1,note_on,81,0,120
1,note_on,69,0,0
1,note_on,69,47,120
1,note_on,81,55,0
1,note_on,81,0,240
1,note_on,69,0,0
1,note_on,70,35,0
1,note_on,82,42,0
1,note_on,82,0,120
1,note_on,70,0,0
1,note_on,74,44,360
1,note_on,74,0,240
1,note_on,77,47,0
1,note_on,77,0,160
1,note_on,75,40,0
1,note_on,75,0,160
1,note_on,65,40,0
1,note_on,65,0,160
1,note_on,77,47,0
1,note_on,77,0,160
1,note_on,72,39,0
1,note_on,72,0,160
1,note_on,65,40,0
1,note_on,65,0,160
1,note_on,77,47,0
1,note_on,77,0,160
1,note_on,74,42,0
1,note_on,74,0,160
1,note_on,65,40,0
1,note_on,65,0,160
1,note_on,82,47,0
1,note_on,82,0,160
1,note_on,77,38,0
1,note_on,77,0,160
1,note_on,70,38,0
1,note_on,70,0,160
1,note_on,84,47,0
1,note_on,84,0,160
1,note_on,77,39,0
1,note_on,77,0,160
1,note_on,72,39,0
1,note_on,72,0,160
1,note_on,81,47,0
1,note_on,81,0,160
1,note_on,77,38,0
1,note_on,77,0,160
1,note_on,69,38,0
1,note_on,69,0,160
1,note_on,82,47,0
1,note_on,82,0,160
1,note_on,77,39,0
1,note_on,77,0,160
1,note_on,70,40,0
1,note_on,70,0,160
1,note_on,77,44,0
1,note_on,77,0,160
1,note_on,74,37,0
1,note_on,74,0,160
1,note_on,65,37,0
1,note_on,65,0,160
1,note_on,77,47,0
1,note_on,77,0,160
1,note_on,75,40,0
1,note_on,75,0,160
1,note_on,65,40,0
1,note_on,65,0,160
1,note_on,77,47,0
1,note_on,77,0,160
1,note_on,72,39,0
1,note_on,72,0,160
1,note_on,65,40,0
1,note_on,65,0,160
1,note_on,77,47,0
1,note_on,77,0,160
1,note_on,74,42,0
1,note_on,74,0,160
1,note_on,65,40,0
1,note_on,65,0,160
1,note_on,82,47,0
1,note_on,82,0,160
1,note_on,77,38,0
1,note_on,77,0,160
1,note_on,70,38,0
1,note_on,70,0,160
1,note_on,84,47,0
1,note_on,84,0,160
1,note_on,77,39,0
1,note_on,77,0,160
1,note_on,72,39,0
1,note_on,72,0,160
1,note_on,81,47,0
1,note_on,81,0,160
1,note_on,77,38,0
1,note_on,77,0,160
1,note_on,69,38,0
1,note_on,69,0,160
1,note_on,82,47,0
1,note_on,82,0,160
1,note_on,77,39,0
1,note_on,77,0,160
1,note_on,70,40,0
1,note_on,70,0,160
1,note_on,77,75,0
1,note_on,77,0,160
1,note_on,74,66,0
1,note_on,74,0,160
1,note_on,65,65,0
1,note_on,65,0,160
1,note_on,65,73,0
1,note_on,68,73,0
1,note_on,75,87,0
1,note_on,75,0,240
1,note_on,73,76,0
1,note_on,73,0,120
1,note_on,68,0,120
1,note_on,65,0,0
1,note_on,65,67,0
1,note_on,71,80,0
1,note_on,73,80,0
1,note_on,73,0,120
1,note_on,71,0,0
1,note_on,65,0,0
1,note_on,65,59,120
1,note_on,71,71,0
1,note_on,73,71,0
1,note_on,73,0,120
1,note_on,71,0,0
1,note_on,65,0,0
1,note_on,66,65,120
1,note_on,70,65,0
1,note_on,73,77,0
1,note_on,73,0,240
1,note_on,78,71,0
1,note_on,78,0,240
1,note_on,70,0,0
1,note_on,66,0,0
1,note_on,82,80,0
1,note_on,82,0,160
1,note_on,85,60,0
1,note_on,85,0,160
1,note_on,90,60,0
1,note_on,90,0,160
1,note_on,85,65,0
1,note_on,92,77,0
1,note_on,92,0,160
1,note_on,85,0,0
1,note_on,80,61,0
1,note_on,80,0,160
1,note_on,85,51,0
1,note_on,92,61,0
1,note_on,92,0,160
1,note_on,85,0,0
1,note_on,85,66,0
1,note_on,89,78,0
1,note_on,89,0,160
1,note_on,85,0,0
1,note_on,77,58,0
1,note_on,77,0,160
1,note_on,85,48,0
1,note_on,89,57,0
1,note_on,89,0,160
1,note_on,85,0,0
1,note_on,85,63,0
1,note_on,90,74,0
1,note_on,90,0,160
1,note_on,85,0,0
1,note_on,78,59,0
1,note_on,78,0,160
1,note_on,85,50,0
1,note_on,90,59,0
1,note_on,90,0,160
1,note_on,85,0,0
1,note_on,78,75,240
1,note_on,78,0,120
1,note_on,65,73,120
1,note_on,68,73,0
1,note_on,75,87,0
1,note_on,75,0,240
1,note_on,73,76,0
1,note_on,73,0,120
1,note_on,68,0,120
1,note_on,65,0,0
1,note_on,65,67,0
1,note_on,71,80,0
1,note_on,73,80,0
1,note_on,73,0,120
1,note_on,71,0,0
1,note_on,65,0,0
1,note_on,65,59,120
1,note_on,71,71,0
1,note_on,73,71,0
1,note_on,73,0,120
1,note_on,71,0,0
1,note_on,65,0,0
1,note_on,66,65,120
1,note_on,70,65,0
1,note_on,73,77,0
1,note_on,73,0,240
1,note_on,78,71,0
1,note_on,78,0,240
1,note_on,70,0,0
1,note_on,66,0,0
1,note_on,82,80,0
1,note_on,82,0,160
1,note_on,85,60,0
1,note_on,85,0,160
1,note_on,90,60,0
1,note_on,90,0,160
1,note_on,85,65,0
1,note_on,92,77,0
1,note_on,92,0,160
1,note_on,85,0,0
1,note_on,80,61,0
1,note_on,80,0,160
1,note_on,85,51,0
1,note_on,92,61,0
1,note_on,92,0,160
1,note_on,85,0,0
1,note_on,85,66,0
1,note_on,89,78,0
1,note_on,89,0,160
1,note_on,85,0,0
1,note_on,77,58,0
1,note_on,77,0,160
1,note_on,85,48,0
1,note_on,89,57,0
1,note_on,89,0,160
1,note_on,85,0,0
1,note_on,85,65,0
1,note_on,90,77,0
1,note_on,90,0,160
1,note_on,85,0,0
1,note_on,78,61,0
1,note_on,78,0,160
1,note_on,85,51,0
1,note_on,90,61,0
1,note_on,90,0,160
1,note_on,85,0,0
1,note_on,78,66,0
1,note_on,85,78,0
1,note_on,85,0,160
1,note_on,78,0,0
1,note_on,73,58,0
1,note_on,73,0,160
1,note_on,85,57,0
1,note_on,85,0,160
1,note_on,82,65,0
1,note_on,89,77,0
1,note_on,89,0,160
1,note_on,82,0,0
1,note_on,77,61,0
1,note_on,77,0,160
1,note_on,82,51,0
1,note_on,89,61,0
1,note_on,89,0,160
1,note_on,82,0,0
1,note_on,82,66,0
1,note_on,86,78,0
1,note_on,86,0,160
1,note_on,82,0,0
1,note_on,74,58,0
1,note_on,74,0,160
1,note_on,82,48,0
1,note_on,86,57,0
1,note_on,86,0,160
1,note_on,82,0,0
1,note_on,82,65,0
1,note_on,87,77,0
1,note_on,87,0,160
1,note_on,82,0,0
1,note_on,75,61,0
1,note_on,75,0,160
1,note_on,82,51,0
1,note_on,87,61,0
1,note_on,87,0,160
1,note_on,82,0,0
1,note_on,75,66,0
1,note_on,82,78,0
1,note_on,82,0,160
1,note_on,75,0,0
1,note_on,70,58,0
1,note_on,70,0,160
1,note_on,75,53,0
1,note_on,82,57,0
1,note_on,82,0,160
1,note_on,75,0,0
1,note_on,63,72,120
1,note_on,63,0,120
1,note_on,66,73,0
1,note_on,66,0,120
1,note_on,71,75,0
1,note_on,71,0,120
1,note_on,75,76,0
1,note_on,75,0,120
1,note_on,78,77,0
1,note_on,78,0,120
1,note_on,83,79,0
1,note_on,83,0,120
1,note_on,87,80,0
1,note_on,87,0,120
1,note_on,88,89,0
1,note_on,76,75,0
1,note_on,78,75,0
1,note_on,78,0,480
1,note_on,76,0,0
1,note_on,88,0,0
1,note_on,85,81,0
1,note_on,78,69,0
1,note_on,73,69,0
1,note_on,73,0,480
1,note_on,78,0,0
1,note_on,85,0,0
1,note_on,63,72,120
1,note_on,63,0,120
1,note_on,66,73,0
1,note_on,66,0,120
1,note_on,71,75,0
1,note_on,71,0,120
1,note_on,75,76,0
1,note_on,75,0,120
1,note_on,78,77,0
1,note_on,78,0,120
1,note_on,83,79,0
1,note_on,83,0,120
1,note_on,87,80,0
1,note_on,87,0,120
1,note_on,76,75,0
1,note_on,78,75,0
1,note_on,88,89,0
1,note_on,88,0,480
1,note_on,78,0,0
1,note_on,76,0,0
1,note_on,73,69,0
1,note_on,85,81,0
1,note_on,78,69,0
1,note_on,78,0,480
1,note_on,85,0,0
1,note_on,73,0,0
1,note_on,63,72,120
1,note_on,63,0,120
1,note_on,66,73,0
1,note_on,66,0,120
1,note_on,71,75,0
1,note_on,71,0,120
1,note_on,75,76,0
1,note_on,75,0,120
1,note_on,78,77,0
1,note_on,78,0,120
1,note_on,83,79,0
1,note_on,83,0,120
1,note_on,87,80,0
1,note_on,87,0,120
1,note_on,89,89,0
1,note_on,77,64,0
1,note_on,77,0,240
1,note_on,89,0,0
1,note_on,87,66,0
1,note_on,78,66,0
1,note_on,90,78,0
1,note_on,90,0,120
1,note_on,78,0,0
1,note_on,87,0,0
1,note_on,78,66,120
1,note_on,87,66,0
1,note_on,90,78,0
1,note_on,90,0,120
1,note_on,87,0,0
1,note_on,78,0,0
1,note_on,78,66,120
1,note_on,87,66,0
1,note_on,90,78,0
1,note_on,90,0,120
1,note_on,87,0,0
1,note_on,78,0,0
1,note_on,62,72,240
1,note_on,62,0,120
1,note_on,65,73,0
1,note_on,65,0,120
1,note_on,70,74,0
1,note_on,70,0,120
1,note_on,74,75,0
1,note_on,74,0,120
1,note_on,77,75,0
1,note_on,77,0,120
1,note_on,82,77,0
1,note_on,82,0,120
1,note_on,86,77,0
1,note_on,86,0,120
1,note_on,75,72,0
1,note_on,77,72,0
1,note_on,87,86,0
1,note_on,87,0,480
1,note_on,77,0,0
1,note_on,75,0,0
1,note_on,72,65,0
1,note_on,84,77,0
1,note_on,77,65,0
1,note_on,77,0,480
1,note_on,84,0,0
1,note_on,72,0,0
1,note_on,62,67,120
1,note_on,62,0,120
1,note_on,65,67,0
1,note_on,65,0,120
1,note_on,70,69,0
1,note_on,70,0,120
1,note_on,74,69,0
1,note_on,74,0,120
1,note_on,77,70,0
1,note_on,77,0,120
1,note_on,82,71,0
1,note_on,82,0,120
1,note_on,86,72,0
1,note_on,86,0,120
1,note_on,75,67,0
1,note_on,77,67,0
1,note_on,87,78,0
1,note_on,87,0,480
1,note_on,77,0,0
1,note_on,75,0,0
1,note_on,72,59,0
1,note_on,84,70,0
1,note_on,77,59,0
1,note_on,77,0,480
1,note_on,84,0,0
1,note_on,72,0,0
1,note_on,62,60,120
1,note_on,62,0,120
1,note_on,65,61,0
1,note_on,65,0,120
1,note_on,70,63,0
1,note_on,70,0,120
1,note_on,74,64,0
1,note_on,74,0,120
1,note_on,77,64,0
1,note_on,77,0,120
1,note_on,82,66,0
1,note_on,82,0,120
1,note_on,86,66,0
1,note_on,86,0,120
1,note_on,75,61,0
1,note_on,77,61,0
1,note_on,87,72,0
1,note_on,87,0,480
1,note_on,77,0,0
1,note_on,75,0,0
1,note_on,72,54,0
1,note_on,84,65,0
1,note_on,77,54,0
1,note_on,77,0,480
1,note_on,84,0,0
1,note_on,72,0,0
1,note_on,62,55,120
1,note_on,62,0,120
1,note_on,65,55,0
1,note_on,65,0,120
1,note_on,70,57,0
1,note_on,70,0,120
1,note_on,74,57,0
1,note_on,74,0,120
1,note_on,77,58,0
1,note_on,77,0,120
1,note_on,82,59,0
1,note_on,82,0,120
1,note_on,86,59,0
1,note_on,86,0,120
1,note_on,88,65,0
1,note_on,76,47,0
1,note_on,76,0,240
1,note_on,88,0,0
1,note_on,86,47,0
1,note_on,77,47,0
1,note_on,89,56,0
1,note_on,89,0,120
1,note_on,77,0,0
1,note_on,86,0,0
1,note_on,77,47,120
1,note_on,86,47,0
1,note_on,89,56,0
1,note_on,89,0,120
1,note_on,86,0,0
1,note_on,77,0,0
1,note_on,77,46,120
1,note_on,86,46,0
1,note_on,89,55,0
1,note_on,89,0,120
1,note_on,86,0,0
1,note_on,77,0,0
1,note_on,61,50,240
1,note_on,61,0,120
1,note_on,64,51,0
1,note_on,64,0,120
1,note_on,69,52,0
1,note_on,69,0,120
1,note_on,73,53,0
1,note_on,73,0,120
1,note_on,76,53,0
1,note_on,76,0,120
1,note_on,81,55,0
1,note_on,81,0,120
1,note_on,85,55,0
1,note_on,85,0,120
1,note_on,86,61,0
1,note_on,74,44,0
1,note_on,74,0,240
1,note_on,86,0,0
1,note_on,84,46,0
1,note_on,75,46,0
1,note_on,87,54,0
1,note_on,87,0,120
1,note_on,75,0,0
1,note_on,84,0,0
1,note_on,75,46,120
1,note_on,84,46,0
1,note_on,87,54,0
1,note_on,87,0,120
1,note_on,84,0,0
1,note_on,75,0,0
1,note_on,75,46,120
1,note_on,84,46,0
1,note_on,87,54,0
1,note_on,87,0,120
1,note_on,84,0,0
1,note_on,75,0,0
1,note_on,59,50,240
1,note_on,59,0,120
1,note_on,62,51,0
1,note_on,62,0,120
1,note_on,67,52,0
1,note_on,67,0,120
1,note_on,71,53,0
1,note_on,71,0,120
1,note_on,74,53,0
1,note_on,74,0,120
1,note_on,79,55,0
1,note_on,79,0,120
1,note_on,83,55,0
1,note_on,83,0,120
1,note_on,74,52,0
1,note_on,78,52,0
1,note_on,86,61,0
1,note_on,86,0,480
1,note_on,78,0,0
1,note_on,74,0,0
1,note_on,72,48,0
1,note_on,84,56,0
1,note_on,78,48,0
1,note_on,78,0,480
1,note_on,84,0,0
1,note_on,72,0,0
1,note_on,59,49,120
1,note_on,59,0,120
1,note_on,62,48,0
1,note_on,62,0,120
1,note_on,67,48,0
1,note_on,67,0,120
1,note_on,71,47,0
1,note_on,71,0,120
1,note_on,74,46,0
1,note_on,74,0,120
1,note_on,79,47,0
1,note_on,79,0,120
1,note_on,83,45,0
1,note_on,83,0,120
1,note_on,74,42,0
1,note_on,78,42,0
1,note_on,86,49,0
1,note_on,86,0,480
1,note_on,78,0,0
1,note_on,74,0,0
1,note_on,72,37,0
1,note_on,84,45,0
1,note_on,78,37,0
1,note_on,78,0,480
1,note_on,84,0,0
1,note_on,72,0,0
1,note_on,71,37,0
1,note_on,79,37,0
1,note_on,83,45,0
1,note_on,83,0,240
1,note_on,79,0,0
1,note_on,71,0,0
1,note_on,74,52,1440
1,note_on,74,0,120
1,note_on,72,63,120
1,note_on,72,0,240
1,note_on,71,37,0
1,note_on,71,0,120
1,note_on,71,43,120
1,note_on,71,0,120
1,note_on,71,37,120
1,note_on,71,0,120
1,note_on,71,55,120
1,note_on,71,0,120
1,note_on,72,49,0
1,note_on,72,0,120
1,note_on,79,59,0
1,note_on,79,0,240
1,note_on,77,50,0
1,note_on,77,0,120
1,note_on,75,45,0
1,note_on,75,0,120
1,note_on,74,45,0
1,note_on,74,0,120
1,note_on,72,45,0
1,note_on,72,0,120
1,note_on,72,63,0
1,note_on,72,0,240
1,note_on,71,37,0
1,note_on,71,0,120
1,note_on,71,44,120
1,note_on,71,0,120
1,note_on,71,37,120
1,note_on,71,0,120
1,note_on,71,57,120
1,note_on,71,0,240
1,note_on,72,47,0
1,note_on,72,0,120
1,note_on,75,54,360
1,note_on,75,0,240
1,note_on,72,63,0
1,note_on,72,0,240
1,note_on,70,52,0
1,note_on,70,0,120
1,note_on,70,54,120
1,note_on,70,0,120
1,note_on,70,54,120
1,note_on,70,0,120
1,note_on,72,63,120
1,note_on,72,0,240
1,note_on,70,53,0
1,note_on,70,0,120
1,note_on,70,55,120
1,note_on,70,0,120
1,note_on,70,55,120
1,note_on,70,0,120
1,note_on,72,63,120
1,note_on,72,0,120
1,note_on,70,52,0
1,note_on,70,0,120
1,note_on,69,53,0
1,note_on,69,0,120
1,note_on,70,53,0
1,note_on,70,0,120
1,note_on,72,58,0
1,note_on,72,0,120
1,note_on,74,54,120
1,note_on,74,0,120
1,note_on,70,58,120
1,note_on,70,0,240
1,note_on,74,57,480
1,note_on,74,0,120
1,note_on,79,60,120
1,note_on,79,0,480
1,note_on,75,60,0
1,note_on,75,0,480
1,note_on,72,60,0
1,note_on,72,0,480
1,note_on,74,60,0
1,note_on,74,0,120
1,note_on,75,58,120
1,note_on,75,0,120
1,note_on,77,57,120
1,note_on,77,0,120
1,note_on,79,53,0
1,note_on,79,0,120
1,note_on,77,53,0
1,note_on,77,0,120
1,note_on,75,53,0
1,note_on,75,0,120
1,note_on,74,59,0
1,note_on,74,0,120
1,note_on,75,52,0
1,note_on,75,0,120
1,note_on,74,52,0
1,note_on,74,0,120
1,note_on,72,53,0
1,note_on,72,0,120
1,note_on,70,60,0
1,note_on,70,0,720
1,note_on,70,46,0
1,note_on,70,0,120
1,note_on,75,48,120
1,note_on,75,0,480
1,note_on,72,48,0
1,note_on,72,0,480
1,note_on,68,48,0
1,note_on,68,0,480
1,note_on,70,48,0
1,note_on,70,0,120
1,note_on,72,46,120
1,note_on,72,0,120
1,note_on,75,48,120
1,note_on,75,0,480
1,note_on,73,48,0
1,note_on,73,0,240
1,note_on,72,48,0
1,note_on,72,0,240
1,note_on,70,48,0
1,note_on,70,0,480
1,note_on,72,48,0
1,note_on,72,0,120
1,note_on,73,46,120
1,note_on,73,0,120
1,note_on,75,46,120
1,note_on,75,0,120
1,note_on,77,42,0
1,note_on,77,0,120
1,note_on,75,42,0
1,note_on,75,0,120
1,note_on,73,42,0
1,note_on,73,0,120
1,note_on,72,47,0
1,note_on,72,0,120
1,note_on,73,42,0
1,note_on,73,0,120
1,note_on,72,42,0
1,note_on,72,0,120
1,note_on,70,42,0
1,note_on,70,0,120
1,note_on,68,48,0
1,note_on,68,0,480
1,note_on,70,48,0
1,note_on,70,0,120
1,note_on,72,44,120
1,note_on,72,0,120
1,note_on,75,48,120
1,note_on,75,0,240
1,note_on,73,48,0
1,note_on,73,0,120
1,note_on,73,48,120
1,note_on,73,0,120
1,note_on,75,44,0
1,note_on,75,0,120
1,note_on,73,44,0
1,note_on,73,0,120
1,note_on,72,44,0
1,note_on,72,0,120
1,note_on,70,48,0
1,note_on,70,0,240
1,note_on,75,49,0
1,note_on,75,0,120
1,note_on,77,53,120
1,note_on,77,0,120
1,note_on,79,56,120
1,note_on,79,0,120
1,note_on,80,59,120
1,note_on,68,50,0
1,note_on,68,0,960
1,note_on,80,0,0
1,note_on,72,51,0
1,note_on,84,60,0
1,note_on,84,0,720
1,note_on,72,0,0
1,note_on,80,55,0
1,note_on,68,47,0
1,note_on,68,0,240
1,note_on,80,0,0
1,note_on,68,50,0
1,note_on,80,59,0
1,note_on,80,0,480
1,note_on,68,0,0
1,note_on,67,47,0
1,note_on,79,55,0
1,note_on,79,0,960
1,note_on,67,0,0
1,note_on,67,48,0
1,note_on,79,57,0
1,note_on,79,0,480
1,note_on,67,0,0
1,note_on,67,52,0
1,note_on,79,63,0
1,note_on,79,0,240
1,note_on,67,0,0
1,note_on,65,48,0
1,note_on,77,59,0
1,note_on,77,0,240
1,note_on,65,0,0
1,note_on,70,49,0
1,note_on,82,58,0
1,note_on,82,0,960
1,note_on,70,0,0
1,note_on,69,51,0
1,note_on,81,61,0
1,note_on,81,0,480
1,note_on,69,0,0
1,note_on,69,51,0
1,note_on,81,61,0
1,note_on,81,0,240
1,note_on,69,0,0
1,note_on,79,54,0
1,note_on,67,46,0
1,note_on,67,0,240
1,note_on,79,0,0
1,note_on,87,71,0
1,note_on,75,59,0
1,note_on,75,0,480
1,note_on,87,0,0
1,note_on,86,63,0
1,note_on,74,52,0
1,note_on,74,0,480
1,note_on,86,0,0
1,note_on,84,53,0
1,note_on,72,45,0
1,note_on,72,0,480
1,note_on,84,0,0
1,note_on,70,44,0
1,note_on,82,53,0
1,note_on,82,0,240
1,note_on,70,0,0
1,note_on,74,46,240
1,note_on,74,0,120
1,note_on,74,48,40
1,note_on,74,0,120
1,note_on,74,50,40
1,note_on,74,0,120
1,note_on,74,51,40
1,note_on,74,0,120
1,note_on,74,49,40
1,note_on,74,0,120
1,note_on,74,47,40
1,note_on,74,0,120
1,note_on,74,51,40
1,note_on,74,0,120
1,note_on,72,46,0
1,note_on,72,0,120
1,note_on,74,47,0
1,note_on,74,0,120
1,note_on,75,47,0
1,note_on,75,0,120
1,note_on,74,53,0
1,note_on,74,0,240
1,note_on,86,52,1440
1,note_on,86,0,120
1,note_on,84,63,120
1,note_on,84,0,240
1,note_on,83,37,0
1,note_on,83,0,120
1,note_on,83,43,120
1,note_on,83,0,120
1,note_on,83,37,120
1,note_on,83,0,120
1,note_on,83,55,120
1,note_on,83,0,120
1,note_on,84,49,0
1,note_on,84,0,120
1,note_on,91,59,0
1,note_on,91,0,240
1,note_on,89,50,0
1,note_on,89,0,120
1,note_on,87,45,0
1,note_on,87,0,120
1,note_on,86,45,0
1,note_on,86,0,120
1,note_on,84,45,0
1,note_on,84,0,120
1,note_on,84,63,0
1,note_on,84,0,240
1,note_on,83,37,0
1,note_on,83,0,120
1,note_on,83,44,120
1,note_on,83,0,120
1,note_on,83,37,120
1,note_on,83,0,120
1,note_on,83,57,120
1,note_on,83,0,240
1,note_on,84,47,0
1,note_on,84,0,120
1,note_on,87,54,360
1,note_on,87,0,240
1,note_on,84,63,0
1,note_on,84,0,240
1,note_on,82,52,0
1,note_on,82,0,120
1,note_on,82,54,120
1,note_on,82,0,120
1,note_on,82,54,120
1,note_on,82,0,120
1,note_on,84,63,120
1,note_on,84,0,240
1,note_on,82,53,0
1,note_on,82,0,120
1,note_on,82,55,120
1,note_on,82,0,120
1,note_on,82,55,120
1,note_on,82,0,120
1,note_on,79,63,120
1,note_on,79,0,120
1,note_on,77,52,0
1,note_on,77,0,120
1,note_on,76,53,0
1,note_on,76,0,120
1,note_on,77,53,0
1,note_on,77,0,120
1,note_on,75,58,0
1,note_on,75,0,120
1,note_on,72,54,120
1,note_on,72,0,120
1,note_on,70,58,120
1,note_on,70,0,120
1,note_on,74,55,120
1,note_on,74,0,120
1,note_on,77,55,120
1,note_on,77,0,120
1,note_on,82,55,120
1,note_on,82,0,120
1,note_on,86,60,120
1,note_on,86,0,240
1,note_on,84,58,0
1,note_on,84,0,120
1,note_on,84,61,120
1,note_on,84,0,120
1,note_on,84,58,120
1,note_on,84,0,120
1,note_on,79,63,120
1,note_on,79,0,120
1,note_on,77,52,0
1,note_on,77,0,120
1,note_on,76,53,0
1,note_on,76,0,120
1,note_on,77,53,0
1,note_on,77,0,120
1,note_on,72,58,0
1,note_on,72,0,120
1,note_on,69,54,120
1,note_on,69,0,120
1,note_on,86,65,120
1,note_on,86,0,240
1,note_on,84,58,0
1,note_on,84,0,120
1,note_on,84,61,120
1,note_on,84,0,120
1,note_on,84,58,120
1,note_on,84,0,120
1,note_on,79,63,120
1,note_on,79,0,120
1,note_on,77,52,0
1,note_on,77,0,120
1,note_on,76,53,0
1,note_on,76,0,120
1,note_on,77,53,0
1,note_on,77,0,120
1,note_on,72,58,0
1,note_on,72,0,120
1,note_on,69,54,120
1,note_on,69,0,120
1,note_on,65,46,120
1,note_on,65,0,120
1,note_on,69,52,1080
1,note_on,72,52,0
1,note_on,77,52,0
1,note_on,77,0,120
1,note_on,72,0,0
1,note_on,69,0,0
1,note_on,69,52,120
1,note_on,74,52,0
1,note_on,77,52,0
1,note_on,77,0,120
1,note_on,74,0,0
1,note_on,69,0,0
1,note_on,69,52,120
1,note_on,75,52,0
1,note_on,77,52,0
1,note_on,77,0,120
1,note_on,75,0,0
1,note_on,69,0,0
1,note_on,77,52,120
1,note_on,74,34,120
1,note_on,74,0,120
1,note_on,70,33,0
1,note_on,70,0,120
1,note_on,74,33,0
1,note_on,74,0,120
1,note_on,77,0,0
1,note_on,82,53,0
1,note_on,74,39,120
1,note_on,74,0,120
1,note_on,70,39,0
1,note_on,70,0,120
1,note_on,74,39,0
1,note_on,74,0,120
1,note_on,82,0,0
1,note_on,77,52,0
1,note_on,81,52,0
1,note_on,77,0,120
1,note_on,74,38,0
1,note_on,74,0,120
1,note_on,69,38,0
1,note_on,69,0,120
1,note_on,74,38,0
1,note_on,74,0,120
1,note_on,81,0,0
1,note_on,75,51,0
1,note_on,79,51,0
1,note_on,75,0,120
1,note_on,70,34,0
1,note_on,70,0,120
1,note_on,67,34,0
1,note_on,67,0,120
1,note_on,70,34,0
1,note_on,70,0,120
1,note_on,79,0,0
1,note_on,74,51,0
1,note_on,79,51,0
1,note_on,74,0,120
1,note_on,70,35,0
1,note_on,70,0,120
1,note_on,67,35,0
1,note_on,67,0,120
1,note_on,70,35,0
1,note_on,70,0,120
1,note_on,79,0,0
1,note_on,74,49,0
1,note_on,77,49,0
1,note_on,74,0,120
1,note_on,70,35,0
1,note_on,70,0,120
1,note_on,65,35,0
1,note_on,65,0,120
1,note_on,70,35,0
1,note_on,70,0,120
1,note_on,77,0,0
1,note_on,74,50,0
1,note_on,77,50,0
1,note_on,74,0,120
1,note_on,69,36,0
1,note_on,69,0,120
1,note_on,65,36,0
1,note_on,65,0,120
1,note_on,69,36,0
1,note_on,69,0,120
1,note_on,77,0,0
1,note_on,72,49,0
1,note_on,75,49,0
1,note_on,72,0,120
1,note_on,69,34,0
1,note_on,69,0,120
1,note_on,63,34,0
1,note_on,63,0,120
1,note_on,69,34,0
1,note_on,69,0,120
1,note_on,75,0,0
1,note_on,70,50,0
1,note_on,75,50,0
1,note_on,70,0,120
1,note_on,67,35,0
1,note_on,67,0,120
1,note_on,63,35,0
1,note_on,63,0,120
1,note_on,67,35,0
1,note_on,67,0,120
1,note_on,75,0,0
1,note_on,70,49,0
1,note_on,74,49,0
1,note_on,70,0,120
1,note_on,67,35,0
1,note_on,67,0,120
1,note_on,62,35,0
1,note_on,62,0,120
1,note_on,67,35,0
1,note_on,67,0,120
1,note_on,74,0,0
1,note_on,69,48,0
1,note_on,74,48,0
1,note_on,69,0,120
1,note_on,66,36,0
1,note_on,66,0,120
1,note_on,62,36,0
1,note_on,62,0,120
1,note_on,66,36,0
1,note_on,66,0,120
1,note_on,74,0,0
1,note_on,72,47,0
1,note_on,69,35,120
1,note_on,69,0,120
1,note_on,62,35,0
1,note_on,62,0,120
1,note_on,69,35,0
1,note_on,69,0,120
1,note_on,72,0,0
1,note_on,72,48,0
1,note_on,67,38,120
1,note_on,67,0,120
1,note_on,62,42,0
1,note_on,62,0,120
1,note_on,67,45,0
1,note_on,67,0,120
1,note_on,72,0,0
1,note_on,70,52,0
1,note_on,67,39,120
1,note_on,67,0,120
1,note_on,62,39,0
1,note_on,62,0,120
1,note_on,67,39,0
1,note_on,67,0,120
1,note_on,70,0,0
1,note_on,69,49,0
1,note_on,69,0,480
1,note_on,67,47,0
1,note_on,67,0,480
1,note_on,69,52,1200
1,note_on,72,52,0
1,note_on,77,52,0
1,note_on,77,0,120
1,note_on,72,0,0
1,note_on,69,0,0
1,note_on,69,52,120
1,note_on,74,52,0
1,note_on,77,52,0
1,note_on,77,0,120
1,note_on,74,0,0
1,note_on,69,0,0
1,note_on,69,52,120
1,note_on,75,52,0
1,note_on,77,52,0
1,note_on,77,0,120
1,note_on,75,0,0
1,note_on,69,0,0
1,note_on,77,52,120
1,note_on,74,37,120
1,note_on,74,0,120
1,note_on,70,37,0
1,note_on,70,0,120
1,note_on,74,37,0
1,note_on,74,0,120
1,note_on,77,0,0
1,note_on,82,53,0
1,note_on,74,40,120
1,note_on,74,0,120
1,note_on,70,40,0
1,note_on,70,0,120
1,note_on,74,42,0
1,note_on,74,0,120
1,note_on,82,0,0
1,note_on,77,52,0
1,note_on,81,52,0
1,note_on,77,0,120
1,note_on,74,38,0
1,note_on,74,0,120
1,note_on,69,38,0
1,note_on,69,0,120
1,note_on,74,38,0
1,note_on,74,0,120
1,note_on,81,0,0
1,note_on,75,51,0
1,note_on,79,51,0
1,note_on,75,0,120
1,note_on,70,34,0
1,note_on,70,0,120
1,note_on,67,34,0
1,note_on,67,0,120
1,note_on,70,34,0
1,note_on,70,0,120
1,note_on,79,0,0
1,note_on,74,48,0
1,note_on,79,48,0
1,note_on,74,0,120
1,note_on,70,37,0
1,note_on,70,0,120
1,note_on,67,37,0
1,note_on,67,0,120
1,note_on,70,37,0
1,note_on,70,0,120
1,note_on,79,0,0
1,note_on,74,49,0
1,note_on,77,49,0
1,note_on,74,0,120
1,note_on,70,35,0
1,note_on,70,0,120
1,note_on,65,35,0
1,note_on,65,0,120
1,note_on,70,35,0
1,note_on,70,0,120
1,note_on,77,0,0
1,note_on,74,49,0
1,note_on,77,49,0
1,note_on,74,0,120
1,note_on,69,36,0
1,note_on,69,0,120
1,note_on,65,36,0
1,note_on,65,0,120
1,note_on,69,37,0
1,note_on,69,0,120
1,note_on,77,0,0
1,note_on,72,49,0
1,note_on,75,49,0
1,note_on,72,0,120
1,note_on,69,35,0
1,note_on,69,0,120
1,note_on,63,35,0
1,note_on,63,0,120
1,note_on,69,35,0
1,note_on,69,0,120
1,note_on,75,0,0
1,note_on,70,50,0
1,note_on,75,50,0
1,note_on,70,0,120
1,note_on,67,36,0
1,note_on,67,0,120
1,note_on,63,36,0
1,note_on,63,0,120
1,note_on,67,36,0
1,note_on,67,0,120
1,note_on,75,0,0
1,note_on,70,49,0
1,note_on,74,49,0
1,note_on,70,0,120
1,note_on,67,36,0
1,note_on,67,0,120
1,note_on,62,36,0
1,note_on,62,0,120
1,note_on,67,36,0
1,note_on,67,0,120
1,note_on,74,0,0
1,note_on,69,48,0
1,note_on,74,48,0
1,note_on,69,0,120
1,note_on,66,36,0
1,note_on,66,0,120
1,note_on,62,36,0
1,note_on,62,0,120
1,note_on,66,36,0
1,note_on,66,0,120
1,note_on,74,0,0
1,note_on,72,47,0
1,note_on,69,37,120
1,note_on,69,0,120
1,note_on,62,37,0
1,note_on,62,0,120
1,note_on,69,37,0
1,note_on,69,0,120
1,note_on,72,0,0
1,note_on,72,48,0
1,note_on,69,38,120
1,note_on,69,0,120
1,note_on,62,42,0
1,note_on,62,0,120
1,note_on,69,45,0
1,note_on,69,0,120
1,note_on,72,0,0
1,note_on,71,52,0
1,note_on,67,43,120
1,note_on,67,0,120
1,note_on,62,44,0
1,note_on,62,0,120
1,note_on,67,44,0
1,note_on,67,0,120
1,note_on,71,0,0
1,note_on,69,49,0
1,note_on,67,40,120
1,note_on,67,0,120
1,note_on,64,38,0
1,note_on,64,0,120
1,note_on,67,36,0
1,note_on,67,0,120
1,note_on,69,0,0
1,note_on,71,45,0
1,note_on,66,33,120
1,note_on,66,0,120
1,note_on,62,33,0
1,note_on,62,0,120
1,note_on,66,33,0
1,note_on,66,0,120
1,note_on,71,0,0
1,note_on,67,43,0
1,note_on,62,35,120
1,note_on,62,0,120
1,note_on,59,35,0
1,note_on,59,0,120
1,note_on,62,35,0
1,note_on,62,0,120
1,note_on,67,0,0
1,note_on,69,49,0
1,note_on,64,35,120
1,note_on,64,0,120
1,note_on,60,35,0
1,note_on,60,0,120
1,note_on,64,35,0
1,note_on,64,0,120
1,note_on,69,0,0
1,note_on,71,49,0
1,note_on,65,35,120
1,note_on,65,0,120
1,note_on,62,36,0
1,note_on,62,0,120
1,note_on,65,36,0
1,note_on,65,0,120
1,note_on,71,0,0
1,note_on,71,52,0
1,note_on,65,38,120
1,note_on,65,0,120
1,note_on,62,38,0
1,note_on,62,0,120
1,note_on,65,39,0
1,note_on,65,0,120
1,note_on,71,0,0
1,note_on,71,56,0
1,note_on,65,39,120
1,note_on,65,0,120
1,note_on,62,39,0
1,note_on,62,0,120
1,note_on,65,38,0
1,note_on,65,0,120
1,note_on,71,0,0
1,note_on,72,52,0
1,note_on,67,37,120
1,note_on,67,0,120
1,note_on,64,36,0
1,note_on,64,0,120
1,note_on,67,35,0
1,note_on,67,0,120
1,note_on,72,0,0
1,note_on,71,49,0
1,note_on,67,35,120
1,note_on,67,0,120
1,note_on,62,35,0
1,note_on,62,0,120
1,note_on,67,35,0
1,note_on,67,0,120
1,note_on,71,0,0
1,note_on,69,49,0
1,note_on,66,35,120
1,note_on,66,0,120
1,note_on,62,35,0
1,note_on,62,0,120
1,note_on,66,35,0
1,note_on,66,0,120
1,note_on,69,0,0
1,note_on,71,47,0
1,note_on,67,35,120
1,note_on,67,0,120
1,note_on,65,35,0
1,note_on,65,0,120
1,note_on,67,35,0
1,note_on,67,0,120
1,note_on,71,0,0
1,note_on,72,49,0
1,note_on,69,35,120
1,note_on,69,0,120
1,note_on,65,35,0
1,note_on,65,0,120
1,note_on,69,35,0
1,note_on,69,0,120
1,note_on,72,0,0
1,note_on,74,49,0
1,note_on,71,35,120
1,note_on,71,0,120
1,note_on,65,36,0
1,note_on,65,0,120
1,note_on,71,36,0
1,note_on,71,0,120
1,note_on,74,0,0
1,note_on,74,52,0
1,note_on,71,38,120
1,note_on,71,0,120
1,note_on,65,38,0
1,note_on,65,0,120
1,note_on,71,39,0
1,note_on,71,0,120
1,note_on,74,0,0
1,note_on,74,56,0
1,note_on,71,39,120
1,note_on,71,0,120
1,note_on,65,39,0
1,note_on,65,0,120
1,note_on,71,38,0
1,note_on,71,0,120
1,note_on,74,0,0
1,note_on,76,52,0
1,note_on,72,37,120
1,note_on,72,0,120
1,note_on,64,36,0
1,note_on,64,0,120
1,note_on,72,35,0
1,note_on,72,0,120
1,note_on,76,0,0
1,note_on,74,49,0
1,note_on,71,35,120
1,note_on,71,0,120
1,note_on,67,35,0
1,note_on,67,0,120
1,note_on,71,35,0
1,note_on,71,0,120
1,note_on,74,0,0
1,note_on,74,49,0
1,note_on,69,35,120
1,note_on,69,0,120
1,note_on,66,35,0
1,note_on,66,0,120
1,note_on,69,35,0
1,note_on,69,0,120
1,note_on,74,0,0
1,note_on,74,42,0
1,note_on,71,31,120
1,note_on,71,0,120
1,note_on,67,31,0
1,note_on,67,0,120
1,note_on,71,31,0
1,note_on,71,0,120
1,note_on,74,0,0
1,note_on,79,39,0
1,note_on,74,31,120
1,note_on,74,0,120
1,note_on,67,31,0
1,note_on,67,0,120
1,note_on,74,31,0
1,note_on,74,0,120
1,note_on,79,0,0
1,note_on,78,44,0
1,note_on,74,31,120
1,note_on,74,0,120
1,note_on,69,32,0
1,note_on,69,0,120
1,note_on,74,32,0
1,note_on,74,0,120
1,note_on,78,0,0
1,note_on,81,40,0
1,note_on,74,34,120
1,note_on,74,0,120
1,note_on,69,33,0
1,note_on,69,0,120
1,note_on,74,33,0
1,note_on,74,0,120
1,note_on,81,0,0
1,note_on,74,39,0
1,note_on,71,32,120
1,note_on,71,0,120
1,note_on,67,32,0
1,note_on,67,0,120
1,note_on,71,32,0
1,note_on,71,0,120
1,note_on,74,0,0
1,note_on,76,39,0
1,note_on,72,31,120
1,note_on,72,0,120
1,note_on,67,31,0
1,note_on,67,0,120
1,note_on,72,31,0
1,note_on,72,0,120
1,note_on,76,0,0
1,note_on,74,40,0
1,note_on,72,31,120
1,note_on,72,0,120
1,note_on,69,31,0
1,note_on,69,0,120
1,note_on,72,31,0
1,note_on,72,0,120
1,note_on,74,0,0
1,note_on,74,38,0
1,note_on,72,31,120
1,note_on,72,0,120
1,note_on,66,31,0
1,note_on,66,0,120
1,note_on,72,31,0
1,note_on,72,0,120
1,note_on,74,0,0
1,note_on,74,42,0
1,note_on,71,31,120
1,note_on,71,0,120
1,note_on,67,31,0
1,note_on,67,0,120
1,note_on,71,31,0
1,note_on,71,0,120
1,note_on,74,0,0
1,note_on,79,39,0
1,note_on,74,31,120
1,note_on,74,0,120
1,note_on,67,31,0
1,note_on,67,0,120
1,note_on,74,31,0
1,note_on,74,0,120
1,note_on,79,0,0
1,note_on,78,44,0
1,note_on,74,31,120
1,note_on,74,0,120
1,note_on,69,32,0
1,note_on,69,0,120
1,note_on,74,32,0
1,note_on,74,0,120
1,note_on,78,0,0
1,note_on,81,40,0
1,note_on,74,34,120
1,note_on,74,0,120
1,note_on,69,33,0
1,note_on,69,0,120
1,note_on,74,33,0
1,note_on,74,0,120
1,note_on,81,0,0
1,note_on,74,40,0
1,note_on,71,32,120
1,note_on,71,0,120
1,note_on,67,32,0
1,note_on,67,0,120
1,note_on,71,32,0
1,note_on,71,0,120
1,note_on,74,0,0
1,note_on,75,39,0
1,note_on,72,31,120
1,note_on,72,0,120
1,note_on,67,31,0
1,note_on,67,0,120
1,note_on,72,31,0
1,note_on,72,0,120
1,note_on,75,0,0
1,note_on,74,39,0
1,note_on,72,31,120
1,note_on,72,0,120
1,note_on,69,31,0
1,note_on,69,0,120
1,note_on,72,31,0
1,note_on,72,0,120
1,note_on,74,0,0
1,note_on,74,38,0
1,note_on,72,31,120
1,note_on,72,0,120
1,note_on,66,31,0
1,note_on,66,0,120
1,note_on,72,31,0
1,note_on,72,0,120
1,note_on,74,0,0
1,note_on,74,44,0
1,note_on,71,31,120
1,note_on,71,0,120
1,note_on,67,31,0
1,note_on,67,0,120
1,note_on,71,31,0
1,note_on,71,0,120
1,note_on,74,0,0
1,note_on,75,37,0
1,note_on,72,29,120
1,note_on,72,0,120
1,note_on,67,28,0
1,note_on,67,0,120
1,note_on,72,28,0
1,note_on,72,0,120
1,note_on,75,0,0
1,note_on,74,36,0
1,note_on,72,28,120
1,note_on,72,0,120
1,note_on,69,28,0
1,note_on,69,0,120
1,note_on,72,28,0
1,note_on,72,0,120
1,note_on,74,0,0
1,note_on,74,34,0
1,note_on,72,28,120
1,note_on,72,0,120
1,note_on,66,28,0
1,note_on,66,0,120
1,note_on,72,28,0
1,note_on,72,0,120
1,note_on,74,0,0
1,note_on,74,36,0
1,note_on,70,28,120
1,note_on,70,0,120
1,note_on,67,28,0
1,note_on,67,0,120
1,note_on,70,28,0
1,note_on,70,0,120
1,note_on,74,0,0
1,note_on,74,34,0
1,note_on,70,28,120
1,note_on,70,0,120
1,note_on,65,28,0
1,note_on,65,0,120
1,note_on,70,28,0
1,note_on,70,0,120
1,note_on,74,0,0
1,note_on,74,36,0
1,note_on,69,28,120
1,note_on,69,0,120
1,note_on,65,28,0
1,note_on,65,0,120
1,note_on,69,28,0
1,note_on,69,0,120
1,note_on,74,0,0
1,note_on,72,34,0
1,note_on,69,28,120
1,note_on,69,0,120
1,note_on,65,28,0
1,note_on,65,0,120
1,note_on,69,28,0
1,note_on,69,0,120
1,note_on,72,0,0
1,note_on,72,36,0
1,note_on,68,28,120
1,note_on,68,0,120
1,note_on,65,28,0
1,note_on,65,0,120
1,note_on,68,28,0
1,note_on,68,0,120
1,note_on,72,0,0
1,note_on,72,34,0
1,note_on,68,28,120
1,note_on,68,0,120
1,note_on,63,28,0
1,note_on,63,0,120
1,note_on,68,28,0
1,note_on,68,0,120
1,note_on,72,0,0
1,note_on,72,36,0
1,note_on,67,28,120
1,note_on,67,0,120
1,note_on,63,28,0
1,note_on,63,0,120
1,note_on,67,28,0
1,note_on,67,0,120
1,note_on,72,0,0
1,note_on,70,34,0
1,note_on,67,28,120
1,note_on,67,0,120
1,note_on,63,28,0
1,note_on,63,0,120
1,note_on,67,28,0
1,note_on,67,0,120
1,note_on,70,0,0
1,note_on,70,42,0
1,note_on,67,32,120
1,note_on,67,0,120
1,note_on,63,32,0
1,note_on,63,0,120
1,note_on,67,32,0
1,note_on,67,0,120
1,note_on,70,0,0
1,note_on,70,39,0
1,note_on,67,33,120
1,note_on,67,0,120
1,note_on,62,33,0
1,note_on,62,0,120
1,note_on,67,33,0
1,note_on,67,0,120
1,note_on,70,0,0
1,note_on,70,44,0
1,note_on,65,34,120
1,note_on,65,0,120
1,note_on,62,34,0
1,note_on,62,0,120
1,note_on,65,34,0
1,note_on,65,0,120
1,note_on,70,0,0
1,note_on,69,43,0
1,note_on,65,35,120
1,note_on,65,0,120
1,note_on,62,35,0
1,note_on,62,0,120
1,note_on,65,35,0
1,note_on,65,0,120
1,note_on,69,0,0
1,note_on,69,46,0
1,note_on,65,34,120
1,note_on,65,0,120
1,note_on,60,36,0
1,note_on,60,0,120
1,note_on,65,38,0
1,note_on,65,0,120
1,note_on,69,0,0
1,note_on,77,50,0
1,note_on,72,38,120
1,note_on,72,0,120
1,note_on,69,38,0
1,note_on,69,0,120
1,note_on,72,38,0
1,note_on,72,0,120
1,note_on,77,0,0
1,note_on,77,51,0
1,note_on,74,38,120
1,note_on,74,0,120
1,note_on,70,37,0
1,note_on,70,0,120
1,note_on,74,34,0
1,note_on,74,0,120
1,note_on,77,0,0
1,note_on,77,43,0
1,note_on,75,35,120
1,note_on,75,0,120
1,note_on,69,35,0
1,note_on,69,0,120
1,note_on,75,35,0
1,note_on,75,0,120
1,note_on,77,0,0
1,note_on,77,52,0
1,note_on,74,38,120
1,note_on,74,0,120
1,note_on,70,38,0
1,note_on,70,0,120
1,note_on,74,38,0
1,note_on,74,0,120
1,note_on,77,0,0
1,note_on,82,53,0
1,note_on,74,43,120
1,note_on,74,0,120
1,note_on,70,44,0
1,note_on,70,0,120
1,note_on,74,44,0
1,note_on,74,0,120
1,note_on,82,0,0
1,note_on,77,52,0
1,note_on,81,52,0
1,note_on,77,0,120
1,note_on,74,38,0
1,note_on,74,0,120
1,note_on,69,38,0
1,note_on,69,0,120
1,note_on,74,38,0
1,note_on,74,0,120
1,note_on,81,0,0
1,note_on,75,51,0
1,note_on,79,51,0
1,note_on,75,0,120
1,note_on,70,34,0
1,note_on,70,0,120
1,note_on,67,34,0
1,note_on,67,0,120
1,note_on,70,34,0
1,note_on,70,0,120
1,note_on,79,0,0
1,note_on,74,50,0
1,note_on,79,50,0
1,note_on,74,0,120
1,note_on,70,36,0
1,note_on,70,0,120
1,note_on,67,36,0
1,note_on,67,0,120
1,note_on,70,36,0
1,note_on,70,0,120
1,note_on,79,0,0
1,note_on,74,49,0
1,note_on,77,49,0
1,note_on,74,0,120
1,note_on,70,35,0
1,note_on,70,0,120
1,note_on,65,35,0
1,note_on,65,0,120
1,note_on,70,35,0
1,note_on,70,0,120
1,note_on,77,0,0
1,note_on,74,50,0
1,note_on,77,50,0
1,note_on,74,0,120
1,note_on,69,36,0
1,note_on,69,0,120
1,note_on,65,36,0
1,note_on,65,0,120
1,note_on,69,36,0
1,note_on,69,0,120
1,note_on,77,0,0
1,note_on,72,49,0
1,note_on,75,49,0
1,note_on,72,0,120
1,note_on,69,35,0
1,note_on,69,0,120
1,note_on,63,35,0
1,note_on,63,0,120
1,note_on,69,35,0
1,note_on,69,0,120
1,note_on,75,0,0
1,note_on,70,50,0
1,note_on,75,50,0
1,note_on,70,0,120
1,note_on,67,36,0
1,note_on,67,0,120
1,note_on,63,36,0
1,note_on,63,0,120
1,note_on,67,36,0
1,note_on,67,0,120
1,note_on,75,0,0
1,note_on,70,49,0
1,note_on,74,49,0
1,note_on,70,0,120
1,note_on,67,36,0
1,note_on,67,0,120
1,note_on,62,36,0
1,note_on,62,0,120
1,note_on,67,36,0
1,note_on,67,0,120
1,note_on,74,0,0
1,note_on,69,48,0
1,note_on,74,48,0
1,note_on,69,0,120
1,note_on,66,36,0
1,note_on,66,0,120
1,note_on,62,36,0
1,note_on,62,0,120
1,note_on,66,36,0
1,note_on,66,0,120
1,note_on,74,0,0
1,note_on,72,47,0
1,note_on,69,37,120
1,note_on,69,0,120
1,note_on,62,37,0
1,note_on,62,0,120
1,note_on,69,37,0
1,note_on,69,0,120
1,note_on,72,0,0
1,note_on,72,48,0
1,note_on,67,38,120
1,note_on,67,0,120
1,note_on,62,42,0
1,note_on,62,0,120
1,note_on,67,45,0
1,note_on,67,0,120
1,note_on,72,0,0
1,note_on,70,52,0
1,note_on,67,43,120
1,note_on,67,0,120
1,note_on,62,44,0
1,note_on,62,0,120
1,note_on,67,44,0
1,note_on,67,0,120
1,note_on,70,0,0
1,note_on,72,49,0
1,note_on,70,35,120
1,note_on,70,0,120
1,note_on,67,35,0
1,note_on,67,0,120
1,note_on,70,35,0
1,note_on,70,0,120
1,note_on,72,0,0
1,note_on,74,45,0
1,note_on,69,33,120
1,note_on,69,0,120
1,note_on,65,33,0
1,note_on,65,0,120
1,note_on,69,33,0
1,note_on,69,0,120
1,note_on,74,0,0
1,note_on,70,47,0
1,note_on,65,35,120
1,note_on,65,0,120
1,note_on,62,35,0
1,note_on,62,0,120
1,note_on,65,35,0
1,note_on,65,0,120
1,note_on,70,0,0
1,note_on,72,49,0
1,note_on,67,35,120
1,note_on,67,0,120
1,note_on,63,35,0
1,note_on,63,0,120
1,note_on,67,35,0
1,note_on,67,0,120
1,note_on,72,0,0
1,note_on,74,49,0
1,note_on,68,35,120
1,note_on,68,0,120
1,note_on,65,36,0
1,note_on,65,0,120
1,note_on,68,36,0
1,note_on,68,0,120
1,note_on,74,0,0
1,note_on,74,52,0
1,note_on,68,38,120
1,note_on,68,0,120
1,note_on,65,38,0
1,note_on,65,0,120
1,note_on,68,39,0
1,note_on,68,0,120
1,note_on,74,0,0
1,note_on,74,53,0
1,note_on,68,37,120
1,note_on,68,0,120
1,note_on,65,36,0
1,note_on,65,0,120
1,note_on,68,36,0
1,note_on,68,0,120
1,note_on,74,0,0
1,note_on,75,49,0
1,note_on,70,37,120
1,note_on,70,0,120
1,note_on,67,36,0
1,note_on,67,0,120
1,note_on,70,35,0
1,note_on,70,0,120
1,note_on,75,0,0
1,note_on,74,49,0
1,note_on,70,35,120
1,note_on,70,0,120
1,note_on,65,35,0
1,note_on,65,0,120
1,note_on,70,35,0
1,note_on,70,0,120
1,note_on,74,0,0
1,note_on,72,49,0
1,note_on,69,35,120
1,note_on,69,0,120
1,note_on,65,35,0
1,note_on,65,0,120
1,note_on,69,35,0
1,note_on,69,0,120
1,note_on,72,0,0
1,note_on,74,47,0
1,note_on,70,35,120
1,note_on,70,0,120
1,note_on,68,35,0
1,note_on,68,0,120
1,note_on,70,35,0
1,note_on,70,0,120
1,note_on,74,0,0
1,note_on,75,49,0
1,note_on,72,35,120
1,note_on,72,0,120
1,note_on,68,35,0
1,note_on,68,0,120
1,note_on,72,35,0
1,note_on,72,0,120
1,note_on,75,0,0
1,note_on,77,49,0
1,note_on,74,35,120
1,note_on,74,0,120
1,note_on,68,36,0
1,note_on,68,0,120
1,note_on,74,36,0
1,note_on,74,0,120
1,note_on,77,0,0
1,note_on,77,52,0
1,note_on,74,38,120
1,note_on,74,0,120
1,note_on,68,38,0
1,note_on,68,0,120
1,note_on,74,39,0
1,note_on,74,0,120
1,note_on,77,0,0
1,note_on,77,56,0
1,note_on,74,39,120
1,note_on,74,0,120
1,note_on,68,39,0
1,note_on,68,0,120
1,note_on,74,38,0
1,note_on,74,0,120
1,note_on,77,0,0
1,note_on,79,52,0
1,note_on,75,37,120
1,note_on,75,0,120
1,note_on,67,36,0
1,note_on,67,0,120
1,note_on,75,35,0
1,note_on,75,0,120
1,note_on,79,0,0
1,note_on,77,49,0
1,note_on,74,34,120
1,note_on,74,0,120
1,note_on,70,34,0
1,note_on,70,0,120
1,note_on,74,34,0
1,note_on,74,0,120
1,note_on,77,0,0
1,note_on,77,47,0
1,note_on,72,34,120
1,note_on,72,0,120
1,note_on,69,33,0
1,note_on,69,0,120
1,note_on,72,32,0
1,note_on,72,0,120
1,note_on,77,0,0
1,note_on,77,42,0
1,note_on,74,31,120
1,note_on,74,0,120
1,note_on,70,31,0
1,note_on,70,0,120
1,note_on,74,31,0
1,note_on,74,0,120
1,note_on,77,0,0
1,note_on,82,39,0
1,note_on,77,31,120
1,note_on,77,0,120
1,note_on,70,31,0
1,note_on,70,0,120
1,note_on,77,31,0
1,note_on,77,0,120
1,note_on,82,0,0
1,note_on,81,44,0
1,note_on,77,31,120
1,note_on,77,0,120
1,note_on,72,32,0
1,note_on,72,0,120
1,note_on,77,32,0
1,note_on,77,0,120
1,note_on,81,0,0
1,note_on,84,40,0
1,note_on,77,34,120
1,note_on,77,0,120
1,note_on,72,33,0
1,note_on,72,0,120
1,note_on,77,33,0
1,note_on,77,0,120
1,note_on,84,0,0
1,note_on,77,44,0
1,note_on,74,32,120
1,note_on,74,0,120
1,note_on,70,32,0
1,note_on,70,0,120
1,note_on,74,32,0
1,note_on,74,0,120
1,note_on,77,0,0
1,note_on,79,39,0
1,note_on,75,31,120
1,note_on,75,0,120
1,note_on,70,31,0
1,note_on,70,0,120
1,note_on,75,31,0
1,note_on,75,0,120
1,note_on,79,0,0
1,note_on,77,40,0
1,note_on,75,31,120
1,note_on,75,0,120
1,note_on,72,31,0
1,note_on,72,0,120
1,note_on,75,31,0
1,note_on,75,0,120
1,note_on,77,0,0
1,note_on,77,38,0
1,note_on,75,31,120
1,note_on,75,0,120
1,note_on,69,31,0
1,note_on,69,0,120
1,note_on,75,31,0
1,note_on,75,0,120
1,note_on,77,0,0
1,note_on,77,42,0
1,note_on,74,31,120
1,note_on,74,0,120
1,note_on,70,31,0
1,note_on,70,0,120
1,note_on,74,31,0
1,note_on,74,0,120
1,note_on,77,0,0
1,note_on,82,39,0
1,note_on,77,31,120
1,note_on,77,0,120
1,note_on,70,31,0
1,note_on,70,0,120
1,note_on,77,31,0
1,note_on,77,0,120
1,note_on,82,0,0
1,note_on,81,44,0
1,note_on,77,31,120
1,note_on,77,0,120
1,note_on,72,32,0
1,note_on,72,0,120
1,note_on,77,32,0
1,note_on,77,0,120
1,note_on,81,0,0
1,note_on,84,40,0
1,note_on,77,34,120
1,note_on,77,0,120
1,note_on,72,33,0
1,note_on,72,0,120
1,note_on,77,33,0
1,note_on,77,0,120
1,note_on,84,0,0
1,note_on,77,44,0
1,note_on,74,32,120
1,note_on,74,0,120
1,note_on,70,32,0
1,note_on,70,0,120
1,note_on,74,32,0
1,note_on,74,0,120
1,note_on,77,0,0
1,note_on,78,39,0
1,note_on,75,31,120
1,note_on,75,0,120
1,note_on,70,31,0
1,note_on,70,0,120
1,note_on,75,31,0
1,note_on,75,0,120
1,note_on,78,0,0
1,note_on,77,39,0
1,note_on,75,31,120
1,note_on,75,0,120
1,note_on,72,31,0
1,note_on,72,0,120
1,note_on,75,31,0
1,note_on,75,0,120
1,note_on,77,0,0
1,note_on,77,38,0
1,note_on,75,31,120
1,note_on,75,0,120
1,note_on,69,31,0
1,note_on,69,0,120
1,note_on,75,31,0
1,note_on,75,0,120
1,note_on,77,0,0
1,note_on,73,89,1920
1,note_on,77,89,0
1,note_on,82,106,0
1,note_on,82,0,840
1,note_on,77,0,0
1,note_on,73,0,0
1,note_on,73,77,0
1,note_on,77,77,0
1,note_on,82,92,0
1,note_on,82,0,114
1,note_on,77,0,0
1,note_on,73,0,0
1,note_on,73,81,6
1,note_on,77,81,0
1,note_on,85,96,0
1,note_on,85,0,360
1,note_on,77,0,0
1,note_on,73,0,0
1,note_on,73,76,0
1,note_on,77,76,0
1,note_on,85,91,0
1,note_on,85,0,114
1,note_on,77,0,0
1,note_on,73,0,0
1,note_on,73,81,6
1,note_on,77,81,0
1,note_on,82,96,0
1,note_on,82,0,360
1,note_on,77,0,0
1,note_on,73,0,0
1,note_on,73,77,0
1,note_on,77,77,0
1,note_on,82,92,0
1,note_on,82,0,114
1,note_on,77,0,0
1,note_on,73,0,0
1,note_on,70,81,6
1,note_on,73,81,0
1,note_on,77,96,0
1,note_on,77,0,360
1,note_on,73,0,0
1,note_on,70,0,0
1,note_on,70,77,0
1,note_on,73,77,0
1,note_on,77,92,0
1,note_on,77,0,114
1,note_on,73,0,0
1,note_on,70,0,0
1,note_on,65,77,6
1,note_on,70,77,0
1,note_on,73,91,0
1,note_on,73,0,360
1,note_on,70,0,0
1,note_on,65,0,0
1,note_on,65,72,0
1,note_on,70,72,0
1,note_on,73,86,0
1,note_on,73,0,114
1,note_on,70,0,0
1,note_on,65,0,0
1,note_on,61,77,6
1,note_on,65,77,0
1,note_on,70,91,0
1,note_on,70,0,360
1,note_on,65,0,0
1,note_on,61,0,0
1,note_on,61,72,0
1,note_on,65,72,0
1,note_on,70,86,0
1,note_on,70,0,114
1,note_on,65,0,0
1,note_on,61,0,0
1,note_on,61,77,6
1,note_on,65,91,0
1,note_on,65,0,360
1,note_on,61,0,0
1,note_on,61,71,0
1,note_on,65,71,0
1,note_on,70,85,0
1,note_on,70,0,120
1,note_on,65,0,0
1,note_on,61,0,0
1,note_on,63,81,0
1,note_on,66,81,0
1,note_on,71,96,0
1,note_on,71,0,120
1,note_on,66,0,0
1,note_on,63,0,0
1,note_on,83,61,120
1,note_on,87,65,120
1,note_on,83,0,20
1,note_on,90,68,100
1,note_on,87,0,20
1,note_on,88,68,100
1,note_on,90,0,20
1,note_on,87,67,100
1,note_on,88,0,20
1,note_on,85,67,100
1,note_on,87,0,20
1,note_on,83,68,100
1,note_on,85,0,20
1,note_on,82,68,100
1,note_on,83,0,20
1,note_on,80,67,100
1,note_on,82,0,20
1,note_on,78,67,100
1,note_on,80,0,20
1,note_on,76,67,100
1,note_on,78,0,20
1,note_on,75,67,100
1,note_on,76,0,20
1,note_on,73,67,100
1,note_on,75,0,20
1,note_on,71,67,100
1,note_on,73,0,20
1,note_on,73,67,100
1,note_on,71,0,20
1,note_on,70,68,100
1,note_on,73,0,20
1,note_on,71,72,100
1,note_on,70,0,20
1,note_on,75,75,100
1,note_on,71,0,20
1,note_on,78,74,100
1,note_on,75,0,20
1,note_on,76,73,100
1,note_on,78,0,20
1,note_on,75,73,100
1,note_on,76,0,20
1,note_on,73,72,100
1,note_on,75,0,20
1,note_on,71,71,100
1,note_on,73,0,20
1,note_on,70,71,100
1,note_on,71,0,20
1,note_on,68,72,100
1,note_on,70,0,20
1,note_on,66,73,100
1,note_on,68,0,20
1,note_on,64,74,100
1,note_on,66,0,20
1,note_on,63,75,100
1,note_on,64,0,20
1,note_on,61,76,100
1,note_on,63,0,20
1,note_on,59,79,100
1,note_on,61,0,20
1,note_on,59,0,100
1,note_on,54,86,0
1,note_on,59,86,0
1,note_on,59,0,240
1,note_on,54,0,0
1,note_on,54,74,0
1,note_on,59,74,0
1,note_on,63,88,0
1,note_on,63,0,480
1,note_on,59,0,0
1,note_on,54,0,0
1,note_on,59,73,0
1,note_on,63,73,0
1,note_on,66,87,0
1,note_on,66,0,480
1,note_on,63,0,0
1,note_on,59,0,0
1,note_on,63,69,0
1,note_on,66,69,0
1,note_on,71,81,0
1,note_on,71,0,120
1,note_on,66,0,0
1,note_on,63,0,0
1,note_on,66,71,120
1,note_on,71,71,0
1,note_on,75,85,0
1,note_on,75,0,120
1,note_on,71,0,0
1,note_on,66,0,0
1,note_on,71,74,120
1,note_on,75,74,0
1,note_on,78,88,0
1,note_on,78,0,120
1,note_on,75,0,0
1,note_on,71,0,0
1,note_on,63,75,120
1,note_on,69,75,0
1,note_on,72,86,0
1,note_on,72,0,240
1,note_on,69,0,0
1,note_on,63,0,0
1,note_on,69,74,0
1,note_on,72,74,0
1,note_on,75,88,0
1,note_on,75,0,480
1,note_on,72,0,0
1,note_on,69,0,0
1,note_on,72,73,0
1,note_on,75,73,0
1,note_on,81,87,0
1,note_on,81,0,480
1,note_on,75,0,0
1,note_on,72,0,0
1,note_on,75,69,0
1,note_on,81,69,0
1,note_on,84,81,0
1,note_on,84,0,120
1,note_on,81,0,0
1,note_on,75,0,0
1,note_on,81,71,120
1,note_on,84,71,0
1,note_on,87,85,0
1,note_on,87,0,120
1,note_on,84,0,0
1,note_on,81,0,0
1,note_on,84,74,120
1,note_on,87,74,0
1,note_on,93,88,0
1,note_on,93,0,120
1,note_on,87,0,0
1,note_on,84,0,0
1,note_on,82,89,120
1,note_on,85,89,0
1,note_on,89,89,0
1,note_on,94,106,0
1,note_on,94,0,840
1,note_on,82,0,0
1,note_on,85,0,0
1,note_on,89,0,0
1,note_on,82,77,0
1,note_on,94,92,0
1,note_on,94,0,120
1,note_on,82,0,0
1,note_on,85,81,0
1,note_on,97,96,0
1,note_on,97,0,360
1,note_on,85,0,0
1,note_on,85,76,0
1,note_on,97,91,0
1,note_on,97,0,120
1,note_on,85,0,0
1,note_on,82,81,0
1,note_on,94,96,0
1,note_on,94,0,360
1,note_on,82,0,0
1,note_on,82,77,0
1,note_on,94,92,0
1,note_on,94,0,120
1,note_on,82,0,0
1,note_on,78,81,0
1,note_on,90,96,0
1,note_on,90,0,360
1,note_on,78,0,0
1,note_on,78,77,0
1,note_on,90,92,0
1,note_on,90,0,120
1,note_on,78,0,0
1,note_on,73,77,0
1,note_on,85,91,0
1,note_on,85,0,360
1,note_on,73,0,0
1,note_on,73,72,0
1,note_on,85,86,0
1,note_on,85,0,120
1,note_on,73,0,0
1,note_on,74,77,0
1,note_on,86,91,0
1,note_on,86,0,360
1,note_on,74,0,0
1,note_on,74,72,0
1,note_on,86,86,0
1,note_on,86,0,120
1,note_on,74,0,0
1,note_on,70,77,0
1,note_on,82,91,0
1,note_on,82,0,360
1,note_on,70,0,0
1,note_on,70,71,0
1,note_on,82,85,0
1,note_on,82,0,120
1,note_on,70,0,0
1,note_on,75,79,0
1,note_on,78,79,0
1,note_on,82,79,0
1,note_on,87,94,0
1,note_on,87,0,840
1,note_on,75,0,0
1,note_on,78,0,0
1,note_on,82,0,0
1,note_on,75,73,0
1,note_on,87,87,0
1,note_on,87,0,120
1,note_on,75,0,0
1,note_on,78,77,0
1,note_on,90,91,0
1,note_on,90,0,360
1,note_on,78,0,0
1,note_on,78,72,0
1,note_on,90,86,0
1,note_on,90,0,120
1,note_on,78,0,0
1,note_on,75,77,0
1,note_on,87,91,0
1,note_on,87,0,360
1,note_on,75,0,0
1,note_on,75,73,0
1,note_on,87,87,0
1,note_on,87,0,120
1,note_on,75,0,0
1,note_on,71,77,0
1,note_on,83,91,0
1,note_on,83,0,360
1,note_on,71,0,0
1,note_on,71,73,0
1,note_on,83,87,0
1,note_on,83,0,120
1,note_on,71,0,0
1,note_on,70,73,0
1,note_on,82,86,0
1,note_on,82,0,360
1,note_on,70,0,0
1,note_on,70,68,0
1,note_on,82,80,0
1,note_on,82,0,120
1,note_on,70,0,0
1,note_on,69,73,0
1,note_on,81,86,0
1,note_on,81,0,360
1,note_on,69,0,0
1,note_on,69,68,0
1,note_on,81,80,0
1,note_on,81,0,120
1,note_on,69,0,0
1,note_on,77,73,0
1,note_on,89,86,0
1,note_on,89,0,360
1,note_on,77,0,0
1,note_on,77,67,0
1,note_on,89,79,0
1,note_on,89,0,120
1,note_on,77,0,0
1,note_on,70,79,0
1,note_on,73,79,0
1,note_on,77,79,0
1,note_on,82,94,0
1,note_on,82,0,840
1,note_on,70,0,0
1,note_on,73,0,0
1,note_on,77,0,0
1,note_on,82,73,0
1,note_on,94,87,0
1,note_on,94,0,120
1,note_on,82,0,0
1,note_on,85,77,0
1,note_on,97,91,0
1,note_on,97,0,360
1,note_on,85,0,0
1,note_on,85,72,0
1,note_on,97,86,0
1,note_on,97,0,120
1,note_on,85,0,0
1,note_on,82,77,0
1,note_on,94,91,0
1,note_on,94,0,360
1,note_on,82,0,0
1,note_on,82,73,0
1,note_on,94,87,0
1,note_on,94,0,120
1,note_on,82,0,0
1,note_on,78,77,0
1,note_on,90,91,0
1,note_on,90,0,360
1,note_on,78,0,0
1,note_on,78,73,0
1,note_on,90,87,0
1,note_on,90,0,120
1,note_on,78,0,0
1,note_on,73,73,0
1,note_on,85,86,0
1,note_on,85,0,360
1,note_on,73,0,0
1,note_on,73,68,0
1,note_on,85,80,0
1,note_on,85,0,120
1,note_on,73,0,0
1,note_on,77,73,0
1,note_on,89,86,0
1,note_on,89,0,360
1,note_on,77,0,0
1,note_on,77,68,0
1,note_on,89,80,0
1,note_on,89,0,120
1,note_on,77,0,0
1,note_on,73,73,0
1,note_on,85,86,0
1,note_on,85,0,360
1,note_on,73,0,0
1,note_on,73,67,0
1,note_on,85,79,0
1,note_on,85,0,120
1,note_on,73,0,0
1,note_on,78,79,0
1,note_on,82,79,0
1,note_on,85,79,0
1,note_on,90,94,0
1,note_on,90,0,840
1,note_on,78,0,0
1,note_on,82,0,0
1,note_on,85,0,0
1,note_on,78,69,0
1,note_on,90,81,0
1,note_on,90,0,120
1,note_on,78,0,0
1,note_on,82,73,0
1,note_on,94,86,0
1,note_on,94,0,360
1,note_on,82,0,0
1,note_on,82,68,0
1,note_on,94,80,0
1,note_on,94,0,120
1,note_on,82,0,0
1,note_on,78,73,0
1,note_on,90,86,0
1,note_on,90,0,360
1,note_on,78,0,0
1,note_on,78,69,0
1,note_on,90,81,0
1,note_on,90,0,120
1,note_on,78,0,0
1,note_on,77,73,0
1,note_on,89,86,0
1,note_on,89,0,360
1,note_on,77,0,0
1,note_on,77,69,0
1,note_on,89,81,0
1,note_on,89,0,120
1,note_on,77,0,0
1,note_on,75,69,0
1,note_on,87,80,0
1,note_on,87,0,360
1,note_on,75,0,0
1,note_on,75,64,0
1,note_on,87,76,0
1,note_on,87,0,120
1,note_on,75,0,0
1,note_on,77,69,0
1,note_on,89,80,0
1,note_on,89,0,360
1,note_on,77,0,0
1,note_on,77,64,0
1,note_on,89,76,0
1,note_on,89,0,120
1,note_on,77,0,0
1,note_on,77,69,0
1,note_on,89,80,0
1,note_on,89,0,360
1,note_on,77,0,0
1,note_on,77,63,0
1,note_on,89,75,0
1,note_on,89,0,120
1,note_on,77,0,0
1,note_on,77,66,0
1,note_on,89,76,0
1,note_on,89,0,360
1,note_on,77,0,0
1,note_on,77,57,0
1,note_on,89,68,0
1,note_on,89,0,120
1,note_on,77,0,0
1,note_on,77,60,0
1,note_on,89,71,0
1,note_on,89,0,360
1,note_on,77,0,0
1,note_on,77,51,0
1,note_on,89,61,0
1,note_on,89,0,120
1,note_on,77,0,0
1,note_on,82,58,0
1,note_on,82,0,480
1,note_on,82,43,360
1,note_on,82,0,120
1,note_on,86,48,0
1,note_on,86,0,360
1,note_on,86,43,0
1,note_on,86,0,120
1,note_on,82,48,0
1,note_on,82,0,360
1,note_on,82,42,0
1,note_on,82,0,120
1,note_on,77,48,0
1,note_on,77,0,360
1,note_on,77,43,0
1,note_on,77,0,120
1,note_on,74,48,0
1,note_on,74,0,360
1,note_on,74,43,0
1,note_on,74,0,120
1,note_on,75,48,0
1,note_on,75,0,360
1,note_on,75,42,0
1,note_on,75,0,120
1,note_on,72,48,0
1,note_on,72,0,360
1,note_on,72,42,0
1,note_on,72,0,120
1,note_on,77,48,0
1,note_on,77,0,360
1,note_on,82,36,0
1,note_on,82,0,120
1,note_on,77,45,0
1,note_on,77,0,240
1,note_on,82,43,120
1,note_on,82,0,120
1,note_on,86,48,0
1,note_on,86,0,360
1,note_on,86,45,0
1,note_on,86,0,120
1,note_on,89,52,0
1,note_on,89,0,360
1,note_on,89,48,0
1,note_on,89,0,120
1,note_on,94,52,0
1,note_on,94,0,360
1,note_on,94,50,0
1,note_on,94,0,120
1,note_on,96,56,0
1,note_on,96,0,360
1,note_on,96,49,0
1,note_on,96,0,120
1,note_on,98,55,0
1,note_on,98,0,360
1,note_on,98,48,0
1,note_on,98,0,120
1,note_on,101,54,0
1,note_on,101,0,360
1,note_on,101,47,0
1,note_on,101,0,120
1,note_on,98,53,0
1,note_on,98,0,240
1,note_on,82,43,600
1,note_on,82,0,120
1,note_on,86,48,0
1,note_on,86,0,360
1,note_on,86,43,0
1,note_on,86,0,120
1,note_on,82,48,0
1,note_on,82,0,360
1,note_on,82,42,0
1,note_on,82,0,120
1,note_on,77,48,0
1,note_on,77,0,360
1,note_on,77,43,0
1,note_on,77,0,120
1,note_on,74,48,0
1,note_on,74,0,360
1,note_on,74,43,0
1,note_on,74,0,120
1,note_on,77,48,0
1,note_on,77,0,360
1,note_on,77,42,0
1,note_on,77,0,120
1,note_on,75,48,0
1,note_on,75,0,360
1,note_on,75,42,0
1,note_on,75,0,120
1,note_on,74,48,0
1,note_on,74,0,360
1,note_on,82,36,0
1,note_on,82,0,120
1,note_on,77,45,0
1,note_on,77,0,240
1,note_on,82,43,120
1,note_on,82,0,120
1,note_on,86,48,0
1,note_on,86,0,360
1,note_on,86,45,0
1,note_on,86,0,120
1,note_on,89,52,0
1,note_on,89,0,360
1,note_on,89,48,0
1,note_on,89,0,120
1,note_on,94,52,0
1,note_on,94,0,360
1,note_on,94,50,0
1,note_on,94,0,120
1,note_on,96,56,0
1,note_on,96,0,360
1,note_on,96,49,0
1,note_on,96,0,120
1,note_on,98,55,0
1,note_on,98,0,360
1,note_on,98,48,0
1,note_on,98,0,120
1,note_on,101,54,0
1,note_on,101,0,360
1,note_on,101,47,0
1,note_on,101,0,120
1,note_on,94,53,0
1,note_on,94,0,240
1,note_on,93,43,600
1,note_on,93,0,120
1,note_on,94,48,0
1,note_on,94,0,360
1,note_on,94,45,0
1,note_on,94,0,114
1,note_on,92,52,6
1,note_on,92,0,360
1,note_on,92,48,0
1,note_on,92,0,114
1,note_on,89,52,6
1,note_on,89,0,360
1,note_on,89,50,0
1,note_on,89,0,114
1,note_on,86,56,6
1,note_on,86,0,360
1,note_on,86,49,0
1,note_on,86,0,120
1,note_on,89,55,0
1,note_on,89,0,360
1,note_on,89,48,0
1,note_on,89,0,120
1,note_on,90,54,0
1,note_on,90,0,360
1,note_on,90,47,0
1,note_on,90,0,120
1,note_on,91,55,0
1,note_on,91,0,360
1,note_on,91,47,0
1,note_on,91,0,114
1,note_on,91,52,6
1,note_on,91,0,360
1,note_on,91,44,0
1,note_on,91,0,114
1,note_on,91,51,6
1,note_on,91,0,360
1,note_on,91,43,0
1,note_on,91,0,114
1,note_on,91,48,6
1,note_on,91,0,360
1,note_on,91,40,0
1,note_on,91,0,114
1,note_on,91,47,6
1,note_on,91,0,240
1,note_on,79,48,600
1,note_on,79,0,90
1,note_on,80,53,30
1,note_on,80,0,240
1,note_on,79,49,0
1,note_on,79,0,120
1,note_on,79,51,120
1,note_on,79,0,120
1,note_on,79,49,120
1,note_on,79,0,120
1,note_on,79,47,120
1,note_on,79,0,240
1,note_on,94,48,600
1,note_on,94,0,90
1,note_on,92,53,30
1,note_on,92,0,240
1,note_on,91,49,0
1,note_on,91,0,120
1,note_on,91,51,120
1,note_on,91,0,120
1,note_on,91,49,120
1,note_on,91,0,120
1,note_on,91,47,120
1,note_on,91,0,240
1,note_on,67,48,600
1,note_on,67,0,90
1,note_on,68,53,30
1,note_on,68,0,240
1,note_on,67,49,0
1,note_on,67,0,120
1,note_on,67,51,120
1,note_on,67,0,120
1,note_on,67,49,120
1,note_on,67,0,120
1,note_on,67,47,120
1,note_on,67,0,240
1,note_on,82,48,600
1,note_on,82,0,90
1,note_on,80,53,30
1,note_on,80,0,240
1,note_on,79,49,0
1,note_on,79,0,120
1,note_on,79,51,120
1,note_on,79,0,120
1,note_on,79,49,120
1,note_on,79,0,120
1,note_on,80,53,120
1,note_on,80,0,240
1,note_on,79,49,0
1,note_on,79,0,120
1,note_on,79,51,120
1,note_on,79,0,120
1,note_on,79,49,120
1,note_on,79,0,120
1,note_on,79,53,120
1,note_on,79,0,240
1,note_on,74,47,1440
1,note_on,74,0,240
1,note_on,72,56,0
1,note_on,72,0,240
1,note_on,71,33,0
1,note_on,71,0,120
1,note_on,71,37,120
1,note_on,71,0,120
1,note_on,71,33,120
1,note_on,71,0,120
1,note_on,71,49,120
1,note_on,71,0,240
1,note_on,72,36,0
1,note_on,72,0,120
1,note_on,75,46,360
1,note_on,75,0,240
1,note_on,72,56,0
1,note_on,72,0,240
1,note_on,71,33,0
1,note_on,71,0,120
1,note_on,71,38,120
1,note_on,71,0,120
1,note_on,71,33,120
1,note_on,71,0,120
1,note_on,71,51,120
1,note_on,71,0,240
1,note_on,72,42,0
1,note_on,72,0,120
1,note_on,75,47,2280
1,note_on,75,0,240
1,note_on,72,56,0
1,note_on,72,0,240
1,note_on,71,32,0
1,note_on,71,0,120
1,note_on,71,37,120
1,note_on,71,0,120
1,note_on,71,33,120
1,note_on,71,0,120
1,note_on,71,47,120
1,note_on,71,0,240
1,note_on,72,34,0
1,note_on,72,0,120
1,note_on,75,44,360
1,note_on,75,0,240
1,note_on,72,53,0
1,note_on,72,0,240
1,note_on,71,31,0
1,note_on,71,0,120
1,note_on,71,36,120
1,note_on,71,0,120
1,note_on,71,30,120
1,note_on,71,0,120
1,note_on,71,47,120
1,note_on,71,0,240
1,note_on,72,37,0
1,note_on,72,0,120
1,note_on,75,44,2280
1,note_on,75,0,240
1,note_on,72,53,0
1,note_on,72,0,240
1,note_on,71,35,0
1,note_on,71,0,120
1,note_on,71,40,120
1,note_on,71,0,120
1,note_on,71,35,120
1,note_on,71,0,120
1,note_on,71,47,120
1,note_on,71,0,240
1,note_on,72,34,0
1,note_on,72,0,120
1,note_on,75,43,360
1,note_on,75,0,240
1,note_on,72,53,0
1,note_on,72,0,240
1,note_on,71,35,0
1,note_on,71,0,120
1,note_on,71,40,120
1,note_on,71,0,120
1,note_on,71,35,120
1,note_on,71,0,120
1,note_on,71,48,120
1,note_on,71,0,240
1,note_on,72,39,0
1,note_on,72,0,120
1,note_on,72,54,120
1,note_on,72,0,240
1,note_on,79,48,0
1,note_on,79,0,240
1,note_on,79,59,0
1,note_on,79,0,240
1,note_on,77,51,0
1,note_on,77,0,240
1,note_on,77,55,0
1,note_on,77,0,240
1,note_on,74,52,0
1,note_on,74,0,240
1,note_on,71,57,0
1,note_on,71,0,240
1,note_on,72,47,0
1,note_on,72,0,120
1,note_on,72,57,120
1,note_on,72,0,240
1,note_on,79,50,0
1,note_on,79,0,240
1,note_on,79,64,0
1,note_on,79,0,240
1,note_on,77,55,0
1,note_on,77,0,240
1,note_on,77,57,0
1,note_on,77,0,240
1,note_on,74,52,0
1,note_on,74,0,240
1,note_on,71,56,0
1,note_on,71,0,240
1,note_on,72,44,0
1,note_on,72,0,240
1,note_on,75,48,0
1,note_on,75,0,240
1,note_on,69,40,0
1,note_on,69,0,240
1,note_on,86,86,720
1,note_on,74,72,0
1,note_on,74,0,240
1,note_on,86,0,0
1,note_on,84,93,0
1,note_on,72,77,0
1,note_on,72,0,240
1,note_on,84,0,0
1,note_on,82,86,0
1,note_on,70,72,0
1,note_on,70,0,120
1,note_on,82,0,0
1,note_on,82,86,120
1,note_on,70,72,0
1,note_on,70,0,120
1,note_on,82,0,0
1,note_on,70,72,120
1,note_on,82,86,0
1,note_on,82,0,120
1,note_on,70,0,0
1,note_on,67,77,120
1,note_on,79,93,0
1,note_on,79,0,240
1,note_on,67,0,0
1,note_on,65,73,0
1,note_on,77,88,0
1,note_on,77,0,120
1,note_on,65,0,0
1,note_on,65,73,120
1,note_on,77,88,0
1,note_on,77,0,120
1,note_on,65,0,0
1,note_on,65,73,120
1,note_on,77,88,0
1,note_on,77,0,120
1,note_on,65,0,0
1,note_on,65,77,120
1,note_on,75,93,0
1,note_on,75,0,240
1,note_on,65,0,0
1,note_on,62,73,0
1,note_on,74,88,0
1,note_on,74,0,120
1,note_on,62,0,0
1,note_on,62,73,120
1,note_on,74,88,0
1,note_on,74,0,120
1,note_on,62,0,0
1,note_on,62,73,120
1,note_on,74,88,0
1,note_on,74,0,120
1,note_on,62,0,0
1,note_on,60,77,120
1,note_on,72,92,0
1,note_on,72,0,240
1,note_on,60,0,0
1,note_on,58,73,0
1,note_on,70,88,0
1,note_on,70,0,120
1,note_on,58,0,0
1,note_on,58,73,120
1,note_on,70,88,0
1,note_on,70,0,120
1,note_on,58,0,0
1,note_on,58,73,120
1,note_on,70,88,0
1,note_on,70,0,120
1,note_on,58,0,0
1,note_on,57,77,120
1,note_on,69,92,0
1,note_on,69,0,240
1,note_on,57,0,0
1,note_on,55,73,0
1,note_on,67,88,0
1,note_on,67,0,120
1,note_on,55,0,0
1,note_on,55,73,120
1,note_on,67,88,0
1,note_on,67,0,120
1,note_on,55,0,0
1,note_on,55,73,120
1,note_on,67,88,0
1,note_on,67,0,120
1,note_on,55,0,0
1,note_on,69,77,120
1,note_on,81,92,0
1,note_on,81,0,240
1,note_on,69,0,0
1,note_on,67,73,0
1,note_on,79,88,0
1,note_on,79,0,120
1,note_on,67,0,0
1,note_on,67,73,120
1,note_on,79,88,0
1,note_on,79,0,120
1,note_on,67,0,0
1,note_on,67,73,120
1,note_on,79,88,0
1,note_on,79,0,120
1,note_on,67,0,0
1,note_on,81,77,120
1,note_on,93,92,0
1,note_on,93,0,240
1,note_on,81,0,0
1,note_on,79,73,0
1,note_on,91,88,0
1,note_on,91,0,120
1,note_on,79,0,0
1,note_on,79,73,120
1,note_on,91,88,0
1,note_on,91,0,120
1,note_on,79,0,0
1,note_on,79,73,120
1,note_on,91,88,0
1,note_on,91,0,120
1,note_on,79,0,0
1,note_on,78,77,120
1,note_on,90,92,0
1,note_on,90,0,240
1,note_on,78,0,0
1,note_on,79,73,0
1,note_on,91,88,0
1,note_on,91,0,120
1,note_on,79,0,0
1,note_on,79,73,120
1,note_on,91,88,0
1,note_on,91,0,120
1,note_on,79,0,0
1,note_on,79,73,120
1,note_on,91,88,0
1,note_on,91,0,120
1,note_on,79,0,0
1,note_on,79,90,120
1,note_on,82,90,0
1,note_on,87,90,0
1,note_on,91,107,0
1,note_on,91,0,480
1,note_on,79,0,0
1,note_on,82,0,0
1,note_on,87,0,0
1,note_on,81,90,1440
1,note_on,87,90,0
1,note_on,93,107,0
1,note_on,93,0,480
1,note_on,87,0,0
1,note_on,81,0,0
1,note_on,82,103,1440
1,note_on,86,103,0
1,note_on,94,120,0
1,note_on,94,0,480
1,note_on,86,0,0
1,note_on,82,0,0
1,note_on,86,54,240
1,note_on,75,46,0
1,note_on,75,0,240
1,note_on,86,0,0
1,note_on,84,58,0
1,note_on,77,49,0
1,note_on,84,0,240
1,note_on,82,54,0
1,note_on,82,0,120
1,note_on,77,0,120
1,note_on,82,54,0
1,note_on,74,46,0
1,note_on,74,0,120
1,note_on,82,0,0
1,note_on,74,46,120
1,note_on,82,54,0
1,note_on,82,0,120
1,note_on,74,0,0
1,note_on,75,49,120
1,note_on,79,58,0
1,note_on,79,0,240
1,note_on,75,0,0
1,note_on,77,55,0
1,note_on,77,0,120
1,note_on,69,46,120
1,note_on,77,55,0
1,note_on,77,0,120
1,note_on,69,0,0
1,note_on,69,46,120
1,note_on,77,55,0
1,note_on,77,0,120
1,note_on,69,0,0
1,note_on,70,49,120
1,note_on,75,58,0
1,note_on,75,0,240
1,note_on,74,55,0
1,note_on,74,0,120
1,note_on,70,0,120
1,note_on,64,46,0
1,note_on,74,55,0
1,note_on,74,0,120
1,note_on,64,0,0
1,note_on,64,46,120
1,note_on,74,55,0
1,note_on,74,0,120
1,note_on,64,0,0
1,note_on,65,49,120
1,note_on,72,58,0
1,note_on,72,0,240
1,note_on,70,55,0
1,note_on,70,0,120
1,note_on,65,0,120
1,note_on,62,46,0
1,note_on,70,55,0
1,note_on,70,0,120
1,note_on,62,0,0
1,note_on,62,46,120
1,note_on,70,55,0
1,note_on,70,0,120
1,note_on,62,0,0
1,note_on,63,49,120
1,note_on,67,58,0
1,note_on,67,0,240
1,note_on,65,55,0
1,note_on,65,0,120
1,note_on,63,0,120
1,note_on,57,46,0
1,note_on,65,56,0
1,note_on,65,0,120
1,note_on,57,0,0
1,note_on,57,47,120
1,note_on,65,56,0
1,note_on,65,0,120
1,note_on,57,0,0
1,note_on,63,50,120
1,note_on,67,60,0
1,note_on,67,0,240
1,note_on,65,58,0
1,note_on,65,0,120
1,note_on,63,0,120
1,note_on,57,49,0
1,note_on,65,58,0
1,note_on,65,0,120
1,note_on,57,0,0
1,note_on,57,49,120
1,note_on,65,59,0
1,note_on,65,0,120
1,note_on,57,0,0
1,note_on,63,52,120
1,note_on,67,63,0
1,note_on,67,0,240
1,note_on,65,60,0
1,note_on,65,0,120
1,note_on,63,0,120
1,note_on,57,51,0
1,note_on,65,60,0
1,note_on,65,0,120
1,note_on,57,0,0
1,note_on,65,61,120
1,note_on,57,51,0
1,note_on,57,0,120
1,note_on,65,0,0
1,note_on,57,47,120
1,note_on,67,67,0
1,note_on,63,47,0
1,note_on,67,0,240
1,note_on,65,63,0
1,note_on,65,0,120
1,note_on,63,0,120
1,note_on,57,0,0
1,note_on,70,71,0
1,note_on,65,59,0
1,note_on,63,59,0
1,note_on,70,0,240
1,note_on,69,67,0
1,note_on,69,0,120
1,note_on,63,0,120
1,note_on,65,0,0
1,note_on,74,75,0
1,note_on,69,63,0
1,note_on,63,63,0
1,note_on,74,0,240
1,note_on,72,71,0
1,note_on,72,0,120
1,note_on,63,0,120
1,note_on,69,0,0
1,note_on,69,64,0
1,note_on,75,64,0
1,note_on,79,76,0
1,note_on,79,0,240
1,note_on,77,73,0
1,note_on,77,0,120
1,note_on,75,0,120
1,note_on,69,0,0
1,note_on,77,69,0
1,note_on,75,69,0
1,note_on,82,80,0
1,note_on,82,0,240
1,note_on,81,75,0
1,note_on,81,0,120
1,note_on,75,0,120
1,note_on,77,0,0
1,note_on,75,70,0
1,note_on,81,70,0
1,note_on,86,84,0
1,note_on,86,0,240
1,note_on,84,79,0
1,note_on,84,0,120
1,note_on,81,0,120
1,note_on,75,0,0
1,note_on,81,76,0
1,note_on,87,76,0
1,note_on,91,90,0
1,note_on,91,0,240
1,note_on,89,85,0
1,note_on,89,0,120
1,note_on,87,0,120
1,note_on,81,0,0
1,note_on,87,82,0
1,note_on,94,97,0
1,note_on,89,82,0
1,note_on,94,0,240
1,note_on,93,94,0
1,note_on,93,0,120
1,note_on,89,0,120
1,note_on,87,0,0
1,note_on,94,113,0
1,note_on,89,96,0
1,note_on,86,96,0
1,note_on,86,0,480
1,note_on,89,0,0
1,note_on,94,0,0
1,note_on,98,110,480
1,note_on,89,92,0
1,note_on,86,92,0
1,note_on,94,110,0
1,note_on,94,0,480
1,note_on,98,0,0
1,note_on,89,0,0
1,note_on,86,0,0
1,note_on,58,116,480
1,note_on,58,0,480
2,note_on,67,94,0
2,note_on,55,78,0
2,note_on,55,0,1920
2,note_on,67,0,0
2,note_on,55,42,0
2,note_on,55,0,240
2,note_on,67,31,0
2,note_on,67,0,120
2,note_on,62,26,120
2,note_on,65,31,0
2,note_on,65,0,120
2,note_on,62,0,0
2,note_on,67,32,120
2,note_on,67,0,120
2,note_on,55,44,120
2,note_on,55,0,240
2,note_on,67,28,0
2,note_on,67,0,120
2,note_on,60,29,120
2,note_on,63,35,0
2,note_on,63,0,120
2,note_on,60,0,0
2,note_on,67,32,120
2,note_on,67,0,120
2,note_on,55,42,120
2,note_on,55,0,240
2,note_on,67,31,0
2,note_on,67,0,120
2,note_on,62,26,120
2,note_on,65,31,0
2,note_on,65,0,120
2,note_on,62,0,0
2,note_on,67,29,120
2,note_on,67,0,120
2,note_on,55,44,120
2,note_on,55,0,240
2,note_on,67,32,0
2,note_on,67,0,120
2,note_on,60,29,120
2,note_on,63,35,0
2,note_on,54,29,0
2,note_on,54,0,180
2,note_on,63,0,0
2,note_on,60,0,0
2,note_on,66,35,60
2,note_on,66,0,180
2,note_on,53,42,60
2,note_on,53,0,240
2,note_on,65,35,0
2,note_on,65,0,120
2,note_on,62,35,120
2,note_on,62,0,120
2,note_on,65,36,120
2,note_on,65,0,120
2,note_on,55,42,120
2,note_on,55,0,240
2,note_on,64,36,0
2,note_on,64,0,120
2,note_on,60,36,120
2,note_on,60,0,120
2,note_on,64,36,120
2,note_on,64,0,120
2,note_on,62,42,120
2,note_on,53,35,0
2,note_on,53,0,198
2,note_on,62,0,0
2,note_on,65,33,0
2,note_on,65,0,240
2,note_on,63,35,0
2,note_on,53,29,0
2,note_on,53,0,85
2,note_on,63,0,0
2,note_on,65,34,120
2,note_on,65,0,120
2,note_on,62,42,120
2,note_on,58,42,0
2,note_on,58,0,240
2,note_on,62,0,0
2,note_on,55,78,240
2,note_on,67,94,0
2,note_on,67,0,1440
2,note_on,55,0,0
2,note_on,55,42,0
2,note_on,55,0,240
2,note_on,67,31,0
2,note_on,67,0,120
2,note_on,65,31,120
2,note_on,62,26,0
2,note_on,62,0,120
2,note_on,65,0,0
2,note_on,67,32,120
2,note_on,67,0,120
2,note_on,55,44,120
2,note_on,55,0,240
2,note_on,67,31,0
2,note_on,67,0,120
2,note_on,60,29,120
2,note_on,63,35,0
2,note_on,63,0,120
2,note_on,60,0,0
2,note_on,67,32,120
2,note_on,67,0,120
2,note_on,55,42,120
2,note_on,55,0,240
2,note_on,67,31,0
2,note_on,67,0,120
2,note_on,62,26,120
2,note_on,65,31,0
2,note_on,65,0,120
2,note_on,62,0,0
2,note_on,67,29,120
2,note_on,67,0,120
2,note_on,55,44,120
2,note_on,55,0,240
2,note_on,67,32,0
2,note_on,67,0,120
2,note_on,54,29,120
2,note_on,60,29,0
2,note_on,63,35,0
2,note_on,63,0,120
2,note_on,60,0,0
2,note_on,54,0,0
2,note_on,66,35,120
2,note_on,66,0,120
2,note_on,53,42,120
2,note_on,53,0,240
2,note_on,65,35,0
2,note_on,65,0,120
2,note_on,62,35,120
2,note_on,62,0,120
2,note_on,65,36,120
2,note_on,65,0,120
2,note_on,55,42,120
2,note_on,55,0,240
2,note_on,64,36,0
2,note_on,64,0,120
2,note_on,60,36,120
2,note_on,60,0,120
2,note_on,64,36,120
2,note_on,64,0,120
2,note_on,53,35,120
2,note_on,62,42,0
2,note_on,62,0,198
2,note_on,53,0,0
2,note_on,65,33,0
2,note_on,65,0,240
2,note_on,63,35,0
2,note_on,53,29,0
2,note_on,53,0,85
2,note_on,63,0,0
2,note_on,65,34,120
2,note_on,65,0,120
2,note_on,58,42,120
2,note_on,62,42,0
2,note_on,62,0,120
2,note_on,58,0,0
2,note_on,57,38,120
2,note_on,57,0,120
2,note_on,55,37,120
2,note_on,55,0,120
2,note_on,53,36,120
2,note_on,53,0,120
2,note_on,51,42,120
2,note_on,51,0,120
2,note_on,55,36,120
2,note_on,58,36,0
2,note_on,58,0,120
2,note_on,55,0,0
2,note_on,48,36,120
2,note_on,48,0,120
2,note_on,60,36,120
2,note_on,55,36,0
2,note_on,55,0,120
2,note_on,60,0,0
2,note_on,53,42,120
2,note_on,53,0,120
2,note_on,57,35,120
2,note_on,60,35,0
2,note_on,60,0,120
2,note_on,57,0,0
2,note_on,51,36,120
2,note_on,51,0,120
2,note_on,57,36,120
2,note_on,60,36,0
2,note_on,60,0,120
2,note_on,57,0,0
2,note_on,50,39,120
2,note_on,50,0,226
2,note_on,58,34,0
2,note_on,53,29,0
2,note_on,53,0,240
2,note_on,58,0,0
2,note_on,46,34,0
2,note_on,46,0,176
2,note_on,58,34,0
2,note_on,53,29,0
2,note_on,53,0,240
2,note_on,58,0,0
2,note_on,51,40,0
2,note_on,51,0,92
2,note_on,55,29,0
2,note_on,58,34,0
2,note_on,58,0,14
2,note_on,55,0,0
2,note_on,50,34,0
2,note_on,50,0,240
2,note_on,55,29,0
2,note_on,58,34,0
2,note_on,58,0,240
2,note_on,55,0,0
2,note_on,48,42,0
2,note_on,48,0,226
2,note_on,51,30,0
2,note_on,57,36,0
2,note_on,57,0,240
2,note_on,51,0,0
2,note_on,45,36,0
2,note_on,45,0,240
2,note_on,51,30,0
2,note_on,57,36,0
2,note_on,57,0,240
2,note_on,51,0,0
2,note_on,50,42,0
2,note_on,50,0,191
2,note_on,57,35,0
2,note_on,54,29,0
2,note_on,54,0,191
2,note_on,57,0,0
2,note_on,42,42,0
2,note_on,42,0,120
2,note_on,50,30,120
2,note_on,54,36,0
2,note_on,54,0,120
2,note_on,50,0,0
2,note_on,43,47,120
2,note_on,43,0,120
2,note_on,55,39,120
2,note_on,55,0,120
2,note_on,39,49,120
2,note_on,39,0,120
2,note_on,51,44,120
2,note_on,51,0,120
2,note_on,36,51,120
2,note_on,36,0,120
2,note_on,48,46,120
2,note_on,48,0,120
2,note_on,38,54,120
2,note_on,38,0,120
2,note_on,50,45,120
2,note_on,50,0,120
2,note_on,36,44,120
2,note_on,51,52,0
2,note_on,51,0,240
2,note_on,36,0,0
2,note_on,50,51,240
2,note_on,54,60,0
2,note_on,42,51,0
2,note_on,42,0,685
2,note_on,54,0,0
2,note_on,50,0,0
2,note_on,43,50,0
2,note_on,43,0,191
2,note_on,55,45,0
2,note_on,55,0,92
2,note_on,39,45,120
2,note_on,39,0,240
2,note_on,51,45,0
2,note_on,51,0,240
2,note_on,36,50,0
2,note_on,36,0,99
2,note_on,48,45,0
2,note_on,48,0,240
2,note_on,38,45,0
2,note_on,38,0,56
2,note_on,50,45,0
2,note_on,50,0,240
2,note_on,43,50,0
2,note_on,31,42,0
2,note_on,31,0,240
2,note_on,43,0,0
2,note_on,55,78,240
2,note_on,67,94,0
2,note_on,67,0,1440
2,note_on,55,0,0
2,note_on,55,42,0
2,note_on,55,0,240
2,note_on,67,31,0
2,note_on,67,0,120
2,note_on,65,31,120
2,note_on,62,26,0
2,note_on,62,0,120
2,note_on,65,0,0
2,note_on,67,32,120
2,note_on,67,0,120
2,note_on,55,44,120
2,note_on,55,0,240
2,note_on,67,31,0
2,note_on,67,0,240
2,note_on,63,35,0
2,note_on,60,29,0
2,note_on,60,0,240
2,note_on,63,0,0
2,note_on,67,32,0
2,note_on,67,0,240
2,note_on,55,42,0
2,note_on,55,0,240
2,note_on,67,31,0
2,note_on,67,0,120
2,note_on,65,31,120
2,note_on,62,26,0
2,note_on,62,0,120
2,note_on,65,0,0
2,note_on,67,29,120
2,note_on,67,0,120
2,note_on,55,44,120
2,note_on,55,0,240
2,note_on,67,32,0
2,note_on,67,0,120
2,note_on,54,29,120
2,note_on,63,35,0
2,note_on,60,29,0
2,note_on,60,0,120
2,note_on,63,0,0
2,note_on,54,0,0
2,note_on,66,35,120
2,note_on,66,0,240
2,note_on,53,42,0
2,note_on,53,0,240
2,note_on,65,35,0
2,note_on,65,0,120
2,note_on,62,35,120
2,note_on,62,0,120
2,note_on,65,36,120
2,note_on,65,0,120
2,note_on,55,42,120
2,note_on,55,0,240
2,note_on,64,36,0
2,note_on,64,0,120
2,note_on,60,36,120
2,note_on,60,0,120
2,note_on,64,36,120
2,note_on,64,0,120
2,note_on,62,42,120
2,note_on,53,35,0
2,note_on,53,0,198
2,note_on,62,0,0
2,note_on,65,33,0
2,note_on,65,0,240
2,note_on,63,35,0
2,note_on,53,29,0
2,note_on,53,0,98
2,note_on,63,0,0
2,note_on,65,34,120
2,note_on,65,0,120
2,note_on,58,42,120
2,note_on,62,42,0
2,note_on,62,0,120
2,note_on,58,0,0
2,note_on,57,38,120
2,note_on,57,0,120
2,note_on,55,37,120
2,note_on,55,0,120
2,note_on,53,36,120
2,note_on,53,0,120
2,note_on,51,42,120
2,note_on,51,0,120
2,note_on,58,36,120
2,note_on,55,36,0
2,note_on,55,0,120
2,note_on,58,0,0
2,note_on,48,36,120
2,note_on,48,0,120
2,note_on,55,36,120
2,note_on,60,36,0
2,note_on,60,0,120
2,note_on,55,0,0
2,note_on,53,42,120
2,note_on,53,0,120
2,note_on,60,35,120
2,note_on,57,35,0
2,note_on,57,0,120
2,note_on,60,0,0
2,note_on,51,36,120
2,note_on,51,0,120
2,note_on,57,36,120
2,note_on,60,36,0
2,note_on,60,0,120
2,note_on,57,0,0
2,note_on,50,39,120
2,note_on,50,0,226
2,note_on,58,34,0
2,note_on,53,29,0
2,note_on,53,0,240
2,note_on,58,0,0
2,note_on,46,34,0
2,note_on,46,0,176
2,note_on,53,29,0
2,note_on,58,34,0
2,note_on,58,0,240
2,note_on,53,0,0
2,note_on,51,40,0
2,note_on,51,0,92
2,note_on,58,34,0
2,note_on,55,29,0
2,note_on,55,0,240
2,note_on,58,0,0
2,note_on,50,34,0
2,note_on,50,0,231
2,note_on,58,29,0
2,note_on,55,29,0
2,note_on,55,0,240
2,note_on,58,0,0
2,note_on,48,33,0
2,note_on,48,0,148
2,note_on,60,29,0
2,note_on,56,29,0
2,note_on,56,0,240
2,note_on,60,0,0
2,note_on,51,29,0
2,note_on,51,0,240
2,note_on,60,29,0
2,note_on,56,29,0
2,note_on,56,0,240
2,note_on,60,0,0
2,note_on,48,33,0
2,note_on,48,0,126
2,note_on,60,28,0
2,note_on,56,28,0
2,note_on,56,0,240
2,note_on,60,0,0
2,note_on,51,29,0
2,note_on,51,0,240
2,note_on,56,29,0
2,note_on,60,29,0
2,note_on,60,0,240
2,note_on,56,0,0
2,note_on,49,33,0
2,note_on,49,0,126
2,note_on,55,29,0
2,note_on,58,29,0
2,note_on,58,0,240
2,note_on,55,0,0
2,note_on,51,29,0
2,note_on,51,0,126
2,note_on,58,29,0
2,note_on,55,29,0
2,note_on,55,0,240
2,note_on,58,0,0
2,note_on,49,33,0
2,note_on,49,0,189
2,note_on,58,28,0
2,note_on,55,28,0
2,note_on,55,0,240
2,note_on,58,0,0
2,note_on,51,29,0
2,note_on,51,0,114
2,note_on,55,29,120
2,note_on,58,29,0
2,note_on,58,0,120
2,note_on,55,0,0
2,note_on,48,31,120
2,note_on,48,0,120
2,note_on,60,27,120
2,note_on,56,23,0
2,note_on,56,0,120
2,note_on,60,0,0
2,note_on,51,27,120
2,note_on,51,0,120
2,note_on,60,27,120
2,note_on,56,23,0
2,note_on,56,0,120
2,note_on,60,0,0
2,note_on,48,32,120
2,note_on,48,0,120
2,note_on,56,23,92
2,note_on,60,27,0
2,note_on,60,0,120
2,note_on,56,0,0
2,note_on,51,32,14
2,note_on,51,0,120
2,note_on,56,23,120
2,note_on,60,27,0
2,note_on,60,0,120
2,note_on,56,0,0
2,note_on,49,32,0
2,note_on,49,0,240
2,note_on,55,29,0
2,note_on,58,29,0
2,note_on,58,0,120
2,note_on,55,0,0
2,note_on,51,32,120
2,note_on,51,0,154
2,note_on,58,29,0
2,note_on,55,29,0
2,note_on,55,0,240
2,note_on,58,0,0
2,note_on,49,34,0
2,note_on,49,0,134
2,note_on,58,29,0
2,note_on,55,29,0
2,note_on,55,0,49
2,note_on,58,0,0
2,note_on,51,31,120
2,note_on,51,0,120
2,note_on,58,34,120
2,note_on,55,34,0
2,note_on,55,0,120
2,note_on,58,0,0
2,note_on,48,37,120
2,note_on,48,0,240
2,note_on,56,27,0
2,note_on,60,32,0
2,note_on,60,0,240
2,note_on,56,0,0
2,note_on,51,32,0
2,note_on,51,0,240
2,note_on,56,27,0
2,note_on,60,32,0
2,note_on,60,0,240
2,note_on,56,0,0
2,note_on,48,37,0
2,note_on,48,0,103
2,note_on,60,32,0
2,note_on,56,27,0
2,note_on,56,0,240
2,note_on,60,0,0
2,note_on,51,32,0
2,note_on,51,0,240
2,note_on,60,32,0
2,note_on,56,27,0
2,note_on,56,0,240
2,note_on,60,0,0
2,note_on,49,37,0
2,note_on,49,0,114
2,note_on,58,32,0
2,note_on,55,27,0
2,note_on,55,0,240
2,note_on,58,0,0
2,note_on,52,32,0
2,note_on,52,0,137
2,note_on,55,27,0
2,note_on,58,32,0
2,note_on,58,0,240
2,note_on,55,0,0
2,note_on,49,37,0
2,note_on,49,0,240
2,note_on,58,32,0
2,note_on,55,27,0
2,note_on,55,0,240
2,note_on,58,0,0
2,note_on,52,36,0
2,note_on,52,0,240
2,note_on,58,39,0
2,note_on,55,32,0
2,note_on,55,0,240
2,note_on,58,0,0
2,note_on,50,44,0
2,note_on,50,0,141
2,note_on,58,31,0
2,note_on,62,38,0
2,note_on,62,0,240
2,note_on,58,0,0
2,note_on,53,38,0
2,note_on,53,0,99
2,note_on,58,31,0
2,note_on,62,38,0
2,note_on,62,0,240
2,note_on,58,0,0
2,note_on,50,48,0
2,note_on,50,0,127
2,note_on,62,37,0
2,note_on,58,31,0
2,note_on,58,0,240
2,note_on,62,0,0
2,note_on,53,37,0
2,note_on,53,0,240
2,note_on,62,37,0
2,note_on,58,31,0
2,note_on,58,0,240
2,note_on,62,0,0
2,note_on,51,50,0
2,note_on,51,0,113
2,note_on,60,34,0
2,note_on,63,40,0
2,note_on,63,0,240
2,note_on,60,0,0
2,note_on,55,37,0
2,note_on,55,0,113
2,note_on,60,31,0
2,note_on,63,37,0
2,note_on,63,0,240
2,note_on,60,0,0
2,note_on,53,44,0
2,note_on,53,0,127
2,note_on,62,34,0
2,note_on,58,28,0
2,note_on,58,0,240
2,note_on,62,0,0
2,note_on,53,34,0
2,note_on,53,0,113
2,note_on,57,28,0
2,note_on,60,34,0
2,note_on,60,0,240
2,note_on,57,0,0
2,note_on,46,38,0
2,note_on,46,0,191
2,note_on,62,30,0
2,note_on,58,25,0
2,note_on,58,0,240
2,note_on,62,0,0
2,note_on,50,30,0
2,note_on,50,0,152
2,note_on,58,25,0
2,note_on,62,30,0
2,note_on,62,0,240
2,note_on,58,0,0
2,note_on,53,36,0
2,note_on,53,0,240
2,note_on,62,30,0
2,note_on,58,25,0
2,note_on,58,0,240
2,note_on,62,0,0
2,note_on,54,30,0
2,note_on,54,0,184
2,note_on,60,26,0
2,note_on,62,31,0
2,note_on,62,0,240
2,note_on,60,0,0
2,note_on,62,34,0
2,note_on,55,29,0
2,note_on,59,29,0
2,note_on,59,0,240
2,note_on,55,0,0
2,note_on,62,0,0
2,note_on,55,78,240
2,note_on,67,94,0
2,note_on,67,0,1440
2,note_on,55,0,0
2,note_on,55,42,0
2,note_on,55,0,240
2,note_on,67,31,0
2,note_on,67,0,120
2,note_on,65,31,120
2,note_on,62,26,0
2,note_on,62,0,120
2,note_on,65,0,0
2,note_on,67,32,120
2,note_on,67,0,120
2,note_on,55,44,120
2,note_on,55,0,240
2,note_on,67,31,0
2,note_on,67,0,240
2,note_on,63,35,0
2,note_on,60,29,0
2,note_on,60,0,240
2,note_on,63,0,0
2,note_on,67,32,0
2,note_on,67,0,240
2,note_on,55,42,0
2,note_on,55,0,240
2,note_on,67,31,0
2,note_on,67,0,120
2,note_on,65,31,120
2,note_on,62,26,0
2,note_on,62,0,120
2,note_on,65,0,0
2,note_on,67,29,120
2,note_on,67,0,120
2,note_on,55,44,120
2,note_on,55,0,240
2,note_on,67,32,0
2,note_on,67,0,120
2,note_on,54,29,120
2,note_on,63,35,0
2,note_on,60,29,0
2,note_on,60,0,120
2,note_on,63,0,0
2,note_on,54,0,0
2,note_on,66,35,120
2,note_on,66,0,240
2,note_on,53,42,0
2,note_on,53,0,240
2,note_on,65,35,0
2,note_on,65,0,120
2,note_on,62,35,120
2,note_on,62,0,120
2,note_on,65,36,120
2,note_on,65,0,120
2,note_on,55,42,120
2,note_on,55,0,240
2,note_on,64,36,0
2,note_on,64,0,120
2,note_on,60,36,120
2,note_on,60,0,120
2,note_on,64,36,120
2,note_on,64,0,120
2,note_on,53,35,120
2,note_on,62,42,0
2,note_on,62,0,198
2,note_on,53,0,0
2,note_on,65,33,0
2,note_on,65,0,240
2,note_on,53,29,0
2,note_on,57,35,0
2,note_on,57,0,95
2,note_on,53,0,0
2,note_on,63,34,120
2,note_on,63,0,120
2,note_on,58,42,120
2,note_on,62,42,0
2,note_on,62,0,240
2,note_on,58,0,0
2,note_on,65,38,0
2,note_on,65,0,240
2,note_on,62,38,0
2,note_on,62,0,240
2,note_on,58,38,0
2,note_on,58,0,240
2,note_on,55,43,0
2,note_on,55,0,240
2,note_on,64,37,0
2,note_on,64,0,120
2,note_on,58,39,120
2,note_on,58,0,120
2,note_on,64,42,120
2,note_on,64,0,120
2,note_on,53,35,120
2,note_on,53,0,198
2,note_on,65,33,0
2,note_on,65,0,240
2,note_on,57,35,0
2,note_on,57,0,85
2,note_on,65,34,120
2,note_on,65,0,120
2,note_on,55,43,120
2,note_on,55,0,240
2,note_on,64,35,0
2,note_on,64,0,120
2,note_on,58,35,120
2,note_on,58,0,120
2,note_on,64,36,120
2,note_on,64,0,120
2,note_on,53,35,120
2,note_on,53,0,198
2,note_on,65,33,0
2,note_on,65,0,240
2,note_on,57,35,0
2,note_on,57,0,85
2,note_on,65,34,120
2,note_on,65,0,120
2,note_on,50,35,120
2,note_on,50,0,240
2,note_on,59,29,0
2,note_on,59,0,120
2,note_on,53,29,120
2,note_on,53,0,120
2,note_on,59,30,120
2,note_on,59,0,120
2,note_on,48,29,120
2,note_on,48,0,198
2,note_on,60,28,0
2,note_on,60,0,240
2,note_on,52,29,0
2,note_on,52,0,85
2,note_on,60,29,120
2,note_on,60,0,120
2,note_on,50,35,120
2,note_on,50,0,240
2,note_on,59,29,0
2,note_on,59,0,120
2,note_on,53,29,120
2,note_on,53,0,120
2,note_on,59,30,120
2,note_on,59,0,120
2,note_on,52,29,120
2,note_on,48,29,0
2,note_on,60,29,0
2,note_on,60,0,438
2,note_on,48,0,0
2,note_on,52,0,0
2,note_on,62,53,445
2,note_on,62,0,120
2,note_on,60,44,0
2,note_on,60,0,120
2,note_on,59,45,0
2,note_on,59,0,120
2,note_on,60,45,0
2,note_on,60,0,120
2,note_on,55,49,0
2,note_on,55,0,120
2,note_on,52,46,120
2,note_on,52,0,120
2,note_on,48,46,120
2,note_on,48,0,120
2,note_on,43,39,120
2,note_on,43,0,120
2,note_on,40,43,120
2,note_on,40,0,120
2,note_on,38,47,120
2,note_on,38,0,120
2,note_on,36,50,120
2,note_on,36,0,120
2,note_on,34,46,120
2,note_on,34,0,120
2,note_on,33,43,120
2,note_on,33,0,120
2,note_on,31,39,120
2,note_on,31,0,120
2,note_on,29,33,240
2,note_on,29,0,120
2,note_on,41,33,134
2,note_on,41,0,120
2,note_on,45,33,194
2,note_on,45,0,120
2,note_on,46,33,160
2,note_on,46,0,120
2,note_on,50,33,176
2,note_on,50,0,240
2,note_on,53,33,169
2,note_on,53,0,240
2,note_on,57,33,171
2,note_on,57,0,240
2,note_on,36,33,160
2,note_on,36,0,240
2,note_on,38,33,184
2,note_on,38,0,240
2,note_on,41,33,134
2,note_on,41,0,240
2,note_on,45,33,183
2,note_on,45,0,240
2,note_on,49,33,131
2,note_on,49,0,240
2,note_on,50,33,177
2,note_on,50,0,120
2,note_on,52,33,120
2,note_on,52,0,100
2,note_on,53,33,114
2,note_on,53,0,120
2,note_on,55,33,0
2,note_on,60,35,51
2,note_on,60,0,120
2,note_on,55,0,0
2,note_on,55,35,0
2,note_on,55,0,120
2,note_on,60,35,0
2,note_on,60,0,120
2,note_on,43,33,0
2,note_on,59,33,29
2,note_on,59,0,120
2,note_on,43,0,0
2,note_on,53,33,0
2,note_on,53,0,120
2,note_on,59,33,0
2,note_on,59,0,120
2,note_on,52,33,0
2,note_on,36,33,0
2,note_on,48,33,0
2,note_on,60,46,0
2,note_on,60,0,120
2,note_on,52,0,0
2,note_on,36,0,0
2,note_on,48,0,0
2,note_on,55,39,120
2,note_on,55,0,120
2,note_on,52,43,120
2,note_on,52,0,120
2,note_on,50,47,120
2,note_on,50,0,120
2,note_on,48,50,120
2,note_on,48,0,120
2,note_on,46,46,120
2,note_on,46,0,120
2,note_on,45,43,120
2,note_on,45,0,120
2,note_on,43,39,120
2,note_on,43,0,120
2,note_on,29,33,240
2,note_on,29,0,120
2,note_on,41,33,169
2,note_on,41,0,120
2,note_on,45,33,194
2,note_on,45,0,120
2,note_on,46,33,160
2,note_on,46,0,120
2,note_on,50,33,176
2,note_on,50,0,240
2,note_on,53,33,169
2,note_on,53,0,240
2,note_on,57,33,171
2,note_on,57,0,240
2,note_on,36,33,160
2,note_on,36,0,240
2,note_on,38,33,184
2,note_on,38,0,240
2,note_on,41,33,134
2,note_on,41,0,240
2,note_on,45,33,171
2,note_on,45,0,240
2,note_on,49,33,131
2,note_on,49,0,240
2,note_on,50,33,177
2,note_on,50,0,120
2,note_on,52,33,120
2,note_on,52,0,100
2,note_on,54,33,114
2,note_on,54,0,120
2,note_on,43,33,0
2,note_on,43,0,171
2,note_on,45,33,240
2,note_on,45,0,149
2,note_on,50,33,189
2,note_on,50,0,240
2,note_on,43,33,154
2,note_on,43,0,240
2,note_on,38,33,184
2,note_on,38,0,240
2,note_on,38,36,134
2,note_on,38,0,240
2,note_on,31,36,183
2,note_on,31,0,240
2,note_on,31,34,143
2,note_on,31,0,240
2,note_on,33,33,171
2,note_on,33,0,240
2,note_on,33,33,131
2,note_on,33,0,240
2,note_on,38,33,189
2,note_on,38,0,240
2,note_on,50,33,154
2,note_on,50,0,240
2,note_on,50,33,184
2,note_on,50,0,240
2,note_on,50,36,134
2,note_on,50,0,240
2,note_on,43,36,171
2,note_on,43,0,240
2,note_on,43,34,143
2,note_on,43,0,240
2,note_on,45,33,171
2,note_on,45,0,240
2,note_on,45,33,131
2,note_on,45,0,240
2,note_on,50,29,0
2,note_on,54,29,429
2,note_on,54,0,394
2,note_on,57,29,0
2,note_on,57,0,424
2,note_on,55,32,0
2,note_on,55,0,374
2,note_on,54,32,0
2,note_on,54,0,440
2,note_on,50,0,0
2,note_on,43,30,0
2,note_on,50,30,0
2,note_on,50,0,383
2,note_on,43,0,0
2,note_on,49,29,0
2,note_on,45,29,0
2,note_on,49,0,411
2,note_on,52,29,0
2,note_on,52,0,371
2,note_on,45,0,0
2,note_on,50,29,0
2,note_on,54,29,429
2,note_on,54,0,394
2,note_on,57,29,0
2,note_on,57,0,184
2,note_on,58,26,0
2,note_on,58,0,240
2,note_on,57,29,0
2,note_on,57,0,134
2,note_on,55,27,0
2,note_on,55,0,240
2,note_on,54,32,0
2,note_on,54,0,440
2,note_on,50,0,0
2,note_on,43,30,0
2,note_on,50,30,0
2,note_on,50,0,383
2,note_on,43,0,0
2,note_on,49,29,0
2,note_on,45,29,0
2,note_on,49,0,411
2,note_on,52,29,0
2,note_on,52,0,371
2,note_on,45,0,0
2,note_on,50,32,0
2,note_on,43,28,411
2,note_on,43,0,383
2,note_on,50,0,0
2,note_on,49,26,0
2,note_on,45,26,0
2,note_on,49,0,411
2,note_on,52,26,0
2,note_on,52,0,371
2,note_on,45,0,0
2,note_on,38,26,0
2,note_on,38,0,411
2,note_on,41,26,0
2,note_on,41,0,371
2,note_on,45,26,0
2,note_on,45,0,411
2,note_on,48,26,0
2,note_on,48,0,371
2,note_on,36,26,0
2,note_on,36,0,411
2,note_on,39,26,0
2,note_on,39,0,371
2,note_on,43,26,0
2,note_on,43,0,411
2,note_on,46,26,0
2,note_on,46,0,371
2,note_on,34,29,0
2,note_on,34,0,411
2,note_on,38,30,0
2,note_on,38,0,371
2,note_on,41,31,0
2,note_on,41,0,411
2,note_on,45,32,0
2,note_on,45,0,371
2,note_on,33,29,0
2,note_on,33,0,411
2,note_on,34,32,0
2,note_on,34,0,371
2,note_on,33,36,0
2,note_on,33,0,411
2,note_on,31,32,0
2,note_on,31,0,371
2,note_on,29,33,169
2,note_on,29,0,120
2,note_on,41,33,141
2,note_on,41,0,120
2,note_on,45,33,194
2,note_on,45,0,120
2,note_on,46,33,183
2,note_on,46,0,120
2,note_on,50,33,176
2,note_on,50,0,240
2,note_on,53,33,191
2,note_on,53,0,240
2,note_on,57,33,171
2,note_on,57,0,240
2,note_on,36,33,160
2,note_on,36,0,240
2,note_on,38,33,162
2,note_on,38,0,240
2,note_on,41,33,134
2,note_on,41,0,240
2,note_on,45,33,171
2,note_on,45,0,240
2,note_on,49,33,131
2,note_on,49,0,240
2,note_on,50,33,177
2,note_on,50,0,120
2,note_on,52,33,120
2,note_on,52,0,100
2,note_on,53,33,114
2,note_on,53,0,120
2,note_on,46,33,0
2,note_on,46,0,171
2,note_on,48,33,240
2,note_on,48,0,149
2,note_on,53,33,148
2,note_on,53,0,240
2,note_on,46,33,154
2,note_on,46,0,240
2,note_on,41,33,184
2,note_on,41,0,240
2,note_on,41,36,134
2,note_on,41,0,240
2,note_on,34,36,162
2,note_on,34,0,240
2,note_on,34,34,143
2,note_on,34,0,240
2,note_on,36,33,171
2,note_on,36,0,240
2,note_on,36,33,131
2,note_on,36,0,240
2,note_on,41,33,148
2,note_on,41,0,240
2,note_on,53,33,154
2,note_on,53,0,240
2,note_on,53,33,184
2,note_on,53,0,240
2,note_on,53,36,134
2,note_on,53,0,240
2,note_on,46,36,200
2,note_on,46,0,240
2,note_on,46,32,143
2,note_on,46,0,240
2,note_on,48,33,171
2,note_on,48,0,240
2,note_on,48,33,131
2,note_on,48,0,240
2,note_on,53,29,0
2,note_on,57,29,416
2,note_on,57,0,394
2,note_on,60,29,0
2,note_on,60,0,424
2,note_on,58,32,0
2,note_on,58,0,374
2,note_on,57,32,0
2,note_on,57,0,402
2,note_on,53,0,0
2,note_on,46,30,0
2,note_on,53,30,0
2,note_on,53,0,402
2,note_on,46,0,0
2,note_on,52,29,0
2,note_on,48,29,0
2,note_on,52,0,411
2,note_on,55,29,0
2,note_on,55,0,371
2,note_on,48,0,0
2,note_on,53,29,0
2,note_on,57,29,402
2,note_on,57,0,394
2,note_on,60,29,0
2,note_on,60,0,184
2,note_on,61,26,0
2,note_on,61,0,240
2,note_on,60,29,0
2,note_on,60,0,155
2,note_on,58,27,0
2,note_on,58,0,240
2,note_on,57,32,0
2,note_on,57,0,402
2,note_on,53,0,0
2,note_on,46,30,0
2,note_on,53,30,0
2,note_on,53,0,395
2,note_on,46,0,0
2,note_on,52,29,0
2,note_on,48,29,0
2,note_on,52,0,411
2,note_on,55,29,0
2,note_on,55,0,371
2,note_on,48,0,0
2,note_on,41,76,1920
2,note_on,48,76,0
2,note_on,53,92,0
2,note_on,53,0,776
2,note_on,48,0,0
2,note_on,41,0,0
2,note_on,41,66,0
2,note_on,48,66,0
2,note_on,53,77,0
2,note_on,53,0,114
2,note_on,48,0,0
2,note_on,41,0,0
2,note_on,41,70,6
2,note_on,53,84,0
2,note_on,53,0,289
2,note_on,41,0,0
2,note_on,41,67,0
2,note_on,53,80,0
2,note_on,53,0,114
2,note_on,41,0,0
2,note_on,44,70,6
2,note_on,56,84,0
2,note_on,56,0,360
2,note_on,44,0,0
2,note_on,44,66,0
2,note_on,56,77,0
2,note_on,56,0,114
2,note_on,44,0,0
2,note_on,29,70,0
2,note_on,41,84,0
2,note_on,41,0,289
2,note_on,29,0,0
2,note_on,29,66,0
2,note_on,41,77,0
2,note_on,41,0,114
2,note_on,29,0,0
2,note_on,32,66,6
2,note_on,44,79,0
2,note_on,44,0,360
2,note_on,32,0,0
2,note_on,32,61,0
2,note_on,44,73,0
2,note_on,44,0,114
2,note_on,32,0,0
2,note_on,36,66,6
2,note_on,48,79,0
2,note_on,48,0,254
2,note_on,36,0,0
2,note_on,36,61,0
2,note_on,48,73,0
2,note_on,48,0,114
2,note_on,36,0,0
2,note_on,41,66,6
2,note_on,53,79,0
2,note_on,53,0,360
2,note_on,41,0,0
2,note_on,41,59,0
2,note_on,53,71,0
2,note_on,53,0,120
2,note_on,41,0,0
2,note_on,46,70,0
2,note_on,49,70,0
2,note_on,54,84,0
2,note_on,54,0,120
2,note_on,49,0,0
2,note_on,46,0,0
2,note_on,54,63,2040
2,note_on,58,65,120
2,note_on,54,0,20
2,note_on,61,68,100
2,note_on,58,0,20
2,note_on,59,66,100
2,note_on,61,0,20
2,note_on,58,64,100
2,note_on,59,0,20
2,note_on,56,63,100
2,note_on,58,0,20
2,note_on,54,61,100
2,note_on,56,0,20
2,note_on,53,61,100
2,note_on,54,0,20
2,note_on,51,63,100
2,note_on,53,0,20
2,note_on,49,64,100
2,note_on,51,0,20
2,note_on,47,64,100
2,note_on,49,0,20
2,note_on,46,65,100
2,note_on,47,0,20
2,note_on,44,66,100
2,note_on,46,0,20
2,note_on,42,66,100
2,note_on,44,0,20
2,note_on,42,0,100
2,note_on,34,61,0
2,note_on,46,73,0
2,note_on,46,0,137
2,note_on,34,0,0
2,note_on,34,65,240
2,note_on,46,77,0
2,note_on,46,0,240
2,note_on,34,0,0
2,note_on,34,64,240
2,note_on,46,76,0
2,note_on,46,0,240
2,note_on,34,0,0
2,note_on,34,52,0
2,note_on,46,63,0
2,note_on,46,0,63
2,note_on,34,0,0
2,note_on,34,57,120
2,note_on,46,67,0
2,note_on,46,0,120
2,note_on,34,0,0
2,note_on,34,60,120
2,note_on,46,72,0
2,note_on,46,0,120
2,note_on,34,0,0
2,note_on,36,61,0
2,note_on,48,73,0
2,note_on,48,0,240
2,note_on,36,0,0
2,note_on,36,65,240
2,note_on,48,77,0
2,note_on,48,0,240
2,note_on,36,0,0
2,note_on,36,64,240
2,note_on,48,76,0
2,note_on,48,0,240
2,note_on,36,0,0
2,note_on,36,52,0
2,note_on,48,63,0
2,note_on,48,0,63
2,note_on,36,0,0
2,note_on,36,57,120
2,note_on,48,67,0
2,note_on,48,0,120
2,note_on,36,0,0
2,note_on,36,60,120
2,note_on,48,72,0
2,note_on,48,0,120
2,note_on,36,0,0
2,note_on,41,67,120
2,note_on,41,0,86
2,note_on,44,57,0
2,note_on,44,0,120
2,note_on,48,57,0
2,note_on,48,0,120
2,note_on,53,57,0
2,note_on,53,0,120
2,note_on,41,67,0
2,note_on,41,0,120
2,note_on,44,57,0
2,note_on,44,0,120
2,note_on,48,57,0
2,note_on,48,0,120
2,note_on,53,57,0
2,note_on,53,0,120
2,note_on,41,67,0
2,note_on,41,0,34
2,note_on,44,56,0
2,note_on,44,0,120
2,note_on,48,57,0
2,note_on,48,0,120
2,note_on,53,57,0
2,note_on,53,0,120
2,note_on,41,67,0
2,note_on,41,0,120
2,note_on,44,59,0
2,note_on,44,0,120
2,note_on,48,59,0
2,note_on,48,0,120
2,note_on,53,60,0
2,note_on,53,0,120
2,note_on,41,67,0
2,note_on,41,0,45
2,note_on,44,58,0
2,note_on,44,0,120
2,note_on,49,58,0
2,note_on,49,0,120
2,note_on,53,58,0
2,note_on,53,0,120
2,note_on,41,67,0
2,note_on,41,0,40
2,note_on,44,60,0
2,note_on,44,0,120
2,note_on,49,60,0
2,note_on,49,0,120
2,note_on,53,60,0
2,note_on,53,0,120
2,note_on,41,67,0
2,note_on,41,0,14
2,note_on,48,58,0
2,note_on,48,0,120
2,note_on,51,58,0
2,note_on,51,0,120
2,note_on,53,58,0
2,note_on,53,0,120
2,note_on,41,67,0
2,note_on,41,0,28
2,note_on,48,57,0
2,note_on,48,0,120
2,note_on,51,57,0
2,note_on,51,0,120
2,note_on,53,57,0
2,note_on,53,0,120
2,note_on,41,67,0
2,note_on,41,0,34
2,note_on,46,57,0
2,note_on,46,0,120
2,note_on,49,57,0
2,note_on,49,0,120
2,note_on,53,57,0
2,note_on,53,0,120
2,note_on,41,67,0
2,note_on,41,0,120
2,note_on,46,55,0
2,note_on,46,0,120
2,note_on,49,55,0
2,note_on,49,0,120
2,note_on,53,54,0
2,note_on,53,0,120
2,note_on,41,63,0
2,note_on,41,0,34
2,note_on,46,53,0
2,note_on,46,0,120
2,note_on,49,54,0
2,note_on,49,0,120
2,note_on,53,54,0
2,note_on,53,0,120
2,note_on,41,63,0
2,note_on,41,0,120
2,note_on,46,56,0
2,note_on,46,0,120
2,note_on,49,56,0
2,note_on,49,0,120
2,note_on,53,57,0
2,note_on,53,0,120
2,note_on,42,63,0
2,note_on,42,0,40
2,note_on,46,55,0
2,note_on,46,0,120
2,note_on,49,55,0
2,note_on,49,0,120
2,note_on,54,55,0
2,note_on,54,0,120
2,note_on,42,63,0
2,note_on,42,0,34
2,note_on,46,57,0
2,note_on,46,0,120
2,note_on,49,57,0
2,note_on,49,0,120
2,note_on,54,57,0
2,note_on,54,0,120
2,note_on,43,63,0
2,note_on,43,0,80
2,note_on,46,55,0
2,note_on,46,0,92
2,note_on,48,55,0
2,note_on,48,0,120
2,note_on,55,55,0
2,note_on,55,0,120
2,note_on,43,63,0
2,note_on,43,0,98
2,note_on,46,54,0
2,note_on,46,0,120
2,note_on,48,54,0
2,note_on,48,0,120
2,note_on,55,54,0
2,note_on,55,0,120
2,note_on,44,63,0
2,note_on,44,0,40
2,note_on,48,54,0
2,note_on,48,0,120
2,note_on,53,54,0
2,note_on,53,0,120
2,note_on,56,54,0
2,note_on,56,0,120
2,note_on,44,63,0
2,note_on,44,0,120
2,note_on,48,54,0
2,note_on,48,0,120
2,note_on,53,54,0
2,note_on,53,0,120
2,note_on,56,54,0
2,note_on,56,0,120
2,note_on,44,63,0
2,note_on,44,0,74
2,note_on,48,53,0
2,note_on,48,0,120
2,note_on,53,54,0
2,note_on,53,0,120
2,note_on,56,54,0
2,note_on,56,0,120
2,note_on,44,63,0
2,note_on,44,0,120
2,note_on,48,56,0
2,note_on,48,0,120
2,note_on,53,56,0
2,note_on,53,0,120
2,note_on,56,57,0
2,note_on,56,0,120
2,note_on,44,63,0
2,note_on,44,0,63
2,note_on,49,55,0
2,note_on,49,0,120
2,note_on,53,55,0
2,note_on,53,0,120
2,note_on,56,55,0
2,note_on,56,0,120
2,note_on,44,63,0
2,note_on,44,0,51
2,note_on,49,57,0
2,note_on,49,0,120
2,note_on,53,57,0
2,note_on,53,0,120
2,note_on,56,57,0
2,note_on,56,0,120
2,note_on,44,63,0
2,note_on,44,0,74
2,note_on,51,55,0
2,note_on,51,0,120
2,note_on,54,55,0
2,note_on,54,0,120
2,note_on,56,55,0
2,note_on,56,0,120
2,note_on,44,63,0
2,note_on,44,0,56
2,note_on,51,54,0
2,note_on,51,0,120
2,note_on,54,54,0
2,note_on,54,0,120
2,note_on,56,54,0
2,note_on,56,0,120
2,note_on,44,67,0
2,note_on,44,0,63
2,note_on,49,57,0
2,note_on,49,0,120
2,note_on,53,57,0
2,note_on,53,0,120
2,note_on,56,57,0
2,note_on,56,0,120
2,note_on,44,67,0
2,note_on,44,0,120
2,note_on,49,55,0
2,note_on,49,0,120
2,note_on,53,55,0
2,note_on,53,0,120
2,note_on,56,51,0
2,note_on,56,0,120
2,note_on,45,59,0
2,note_on,45,0,57
2,note_on,49,50,0
2,note_on,49,0,120
2,note_on,53,51,0
2,note_on,53,0,120
2,note_on,57,51,0
2,note_on,57,0,120
2,note_on,46,59,0
2,note_on,46,0,120
2,note_on,49,53,0
2,note_on,49,0,120
2,note_on,53,53,0
2,note_on,53,0,120
2,note_on,58,54,0
2,note_on,58,0,120
2,note_on,48,59,0
2,note_on,48,0,63
2,note_on,53,52,0
2,note_on,53,0,120
2,note_on,56,52,0
2,note_on,56,0,120
2,note_on,60,52,0
2,note_on,60,0,120
2,note_on,49,59,0
2,note_on,49,0,45
2,note_on,53,54,0
2,note_on,53,0,120
2,note_on,56,54,0
2,note_on,56,0,120
2,note_on,61,54,0
2,note_on,61,0,120
2,note_on,48,59,0
2,note_on,48,0,63
2,note_on,53,52,0
2,note_on,53,0,120
2,note_on,56,52,0
2,note_on,56,0,120
2,note_on,60,52,0
2,note_on,60,0,120
2,note_on,48,59,0
2,note_on,48,0,23
2,note_on,53,51,0
2,note_on,53,0,120
2,note_on,56,51,0
2,note_on,56,0,120
2,note_on,60,51,0
2,note_on,60,0,120
2,note_on,48,56,0
2,note_on,48,0,63
2,note_on,53,49,0
2,note_on,53,0,120
2,note_on,55,48,0
2,note_on,55,0,120
2,note_on,60,47,0
2,note_on,60,0,120
2,note_on,48,51,0
2,note_on,48,0,56
2,note_on,52,44,0
2,note_on,52,0,120
2,note_on,55,43,0
2,note_on,55,0,120
2,note_on,60,42,0
2,note_on,60,0,7
2,note_on,41,42,0
2,note_on,41,0,68
2,note_on,57,42,0
2,note_on,57,0,160
2,note_on,60,34,0
2,note_on,60,0,160
2,note_on,53,34,0
2,note_on,53,0,160
2,note_on,57,30,0
2,note_on,57,0,160
2,note_on,60,30,0
2,note_on,60,0,160
2,note_on,53,34,0
2,note_on,53,0,54
2,note_on,57,29,0
2,note_on,57,0,160
2,note_on,60,29,0
2,note_on,60,0,160
2,note_on,53,34,0
2,note_on,53,0,160
2,note_on,57,30,0
2,note_on,57,0,160
2,note_on,60,30,0
2,note_on,60,0,160
2,note_on,53,34,0
2,note_on,53,0,19
2,note_on,57,30,0
2,note_on,57,0,160
2,note_on,60,30,0
2,note_on,60,0,160
2,note_on,51,34,0
2,note_on,51,0,47
2,note_on,57,30,0
2,note_on,57,0,160
2,note_on,60,30,0
2,note_on,60,0,160
2,note_on,50,34,0
2,note_on,50,0,80
2,note_on,58,29,0
2,note_on,58,0,160
2,note_on,60,29,0
2,note_on,60,0,160
2,note_on,52,34,0
2,note_on,52,0,57
2,note_on,58,30,0
2,note_on,58,0,160
2,note_on,60,30,0
2,note_on,60,0,160
2,note_on,53,34,0
2,note_on,53,0,89
2,note_on,57,31,0
2,note_on,57,0,160
2,note_on,60,31,0
2,note_on,60,0,160
2,note_on,53,34,0
2,note_on,53,0,54
2,note_on,57,30,0
2,note_on,57,0,160
2,note_on,60,30,0
2,note_on,60,0,160
2,note_on,53,34,0
2,note_on,53,0,54
2,note_on,57,29,0
2,note_on,57,0,160
2,note_on,60,29,0
2,note_on,60,0,160
2,note_on,52,34,0
2,note_on,52,0,74
2,note_on,55,30,0
2,note_on,55,0,160
2,note_on,60,30,0
2,note_on,60,0,160
2,note_on,50,34,0
2,note_on,50,0,63
2,note_on,53,30,0
2,note_on,53,0,160
2,note_on,57,30,0
2,note_on,57,0,160
2,note_on,50,34,0
2,note_on,50,0,47
2,note_on,53,30,0
2,note_on,53,0,160
2,note_on,59,30,0
2,note_on,59,0,160
2,note_on,48,34,0
2,note_on,48,0,91
2,note_on,53,29,0
2,note_on,53,0,160
2,note_on,60,29,0
2,note_on,60,0,160
2,note_on,48,34,0
2,note_on,48,0,68
2,note_on,52,30,0
2,note_on,52,0,160
2,note_on,60,30,0
2,note_on,60,0,160
2,note_on,41,34,0
2,note_on,41,0,89
2,note_on,57,31,0
2,note_on,57,0,160
2,note_on,60,31,0
2,note_on,60,0,160
2,note_on,53,34,0
2,note_on,53,0,54
2,note_on,57,30,0
2,note_on,57,0,160
2,note_on,60,30,0
2,note_on,60,0,160
2,note_on,53,34,0
2,note_on,53,0,54
2,note_on,57,29,0
2,note_on,57,0,160
2,note_on,60,29,0
2,note_on,60,0,160
2,note_on,53,34,0
2,note_on,53,0,160
2,note_on,57,30,0
2,note_on,57,0,160
2,note_on,60,30,0
2,note_on,60,0,160
2,note_on,53,34,0
2,note_on,53,0,19
2,note_on,57,30,0
2,note_on,57,0,160
2,note_on,60,30,0
2,note_on,60,0,160
2,note_on,51,34,0
2,note_on,51,0,47
2,note_on,57,30,0
2,note_on,57,0,160
2,note_on,60,30,0
2,note_on,60,0,160
2,note_on,50,34,0
2,note_on,50,0,80
2,note_on,58,29,0
2,note_on,58,0,160
2,note_on,60,29,0
2,note_on,60,0,160
2,note_on,52,34,0
2,note_on,52,0,80
2,note_on,58,30,0
2,note_on,58,0,160
2,note_on,60,30,0
2,note_on,60,0,160
2,note_on,53,34,0
2,note_on,53,0,89
2,note_on,57,31,0
2,note_on,57,0,160
2,note_on,60,31,0
2,note_on,60,0,160
2,note_on,53,34,0
2,note_on,53,0,82
2,note_on,57,30,0
2,note_on,57,0,160
2,note_on,60,30,0
2,note_on,60,0,160
2,note_on,53,34,0
2,note_on,53,0,54
2,note_on,57,29,0
2,note_on,57,0,160
2,note_on,60,29,0
2,note_on,60,0,160
2,note_on,52,34,0
2,note_on,52,0,80
2,note_on,55,30,0
2,note_on,55,0,160
2,note_on,60,30,0
2,note_on,60,0,160
2,note_on,50,34,0
2,note_on,50,0,19
2,note_on,53,30,0
2,note_on,53,0,160
2,note_on,57,30,0
2,note_on,57,0,160
2,note_on,50,34,0
2,note_on,50,0,47
2,note_on,53,30,0
2,note_on,53,0,160
2,note_on,59,30,0
2,note_on,59,0,160
2,note_on,48,34,0
2,note_on,48,0,80
2,note_on,53,29,0
2,note_on,53,0,160
2,note_on,60,29,0
2,note_on,60,0,160
2,note_on,48,34,0
2,note_on,48,0,80
2,note_on,52,30,0
2,note_on,52,0,160
2,note_on,60,30,0
2,note_on,60,0,160
2,note_on,41,34,0
2,note_on,41,0,89
2,note_on,57,31,0
2,note_on,57,0,160
2,note_on,60,31,0
2,note_on,60,0,160
2,note_on,53,34,0
2,note_on,53,0,82
2,note_on,57,30,0
2,note_on,57,0,160
2,note_on,60,30,0
2,note_on,60,0,160
2,note_on,53,34,0
2,note_on,53,0,54
2,note_on,57,29,0
2,note_on,57,0,160
2,note_on,60,29,0
2,note_on,60,0,160
2,note_on,54,34,0
2,note_on,54,0,80
2,note_on,57,30,0
2,note_on,57,0,160
2,note_on,60,30,0
2,note_on,60,0,160
2,note_on,53,34,0
2,note_on,53,0,19
2,note_on,57,30,0
2,note_on,57,0,160
2,note_on,60,30,0
2,note_on,60,0,160
2,note_on,54,34,0
2,note_on,54,0,47
2,note_on,57,30,0
2,note_on,57,0,160
2,note_on,60,30,0
2,note_on,60,0,160
2,note_on,53,34,0
2,note_on,53,0,85
2,note_on,57,29,0
2,note_on,57,0,160
2,note_on,60,29,0
2,note_on,60,0,160
2,note_on,51,34,0
2,note_on,51,0,114
2,note_on,55,30,0
2,note_on,55,0,160
2,note_on,61,30,0
2,note_on,61,0,160
2,note_on,50,34,0
2,note_on,50,0,74
2,note_on,54,28,0
2,note_on,54,0,160
2,note_on,62,28,0
2,note_on,62,0,160
2,note_on,50,33,0
2,note_on,50,0,80
2,note_on,55,28,0
2,note_on,55,0,160
2,note_on,58,28,0
2,note_on,58,0,160
2,note_on,50,31,0
2,note_on,50,0,85
2,note_on,54,26,0
2,note_on,54,0,160
2,note_on,57,26,0
2,note_on,57,0,160
2,note_on,50,30,0
2,note_on,50,0,63
2,note_on,55,26,0
2,note_on,55,0,160
2,note_on,58,26,0
2,note_on,58,0,160
2,note_on,50,29,0
2,note_on,50,0,80
2,note_on,54,27,0
2,note_on,54,0,160
2,note_on,57,28,0
2,note_on,57,0,160
2,note_on,50,34,0
2,note_on,50,0,80
2,note_on,55,30,0
2,note_on,55,0,160
2,note_on,58,30,0
2,note_on,58,0,51
2,note_on,50,34,0
2,note_on,50,0,160
2,note_on,54,31,0
2,note_on,54,0,160
2,note_on,57,31,0
2,note_on,57,0,160
2,note_on,48,34,0
2,note_on,48,0,40
2,note_on,54,31,0
2,note_on,54,0,160
2,note_on,57,31,0
2,note_on,57,0,160
2,note_on,46,34,0
2,note_on,53,34,0
2,note_on,58,34,0
2,note_on,58,0,24
2,note_on,53,0,0
2,note_on,46,0,0
2,note_on,62,30,80
2,note_on,62,0,160
2,note_on,65,30,0
2,note_on,65,0,160
2,note_on,58,34,0
2,note_on,58,0,68
2,note_on,62,30,0
2,note_on,62,0,160
2,note_on,65,30,0
2,note_on,65,0,160
2,note_on,58,34,0
2,note_on,58,0,54
2,note_on,62,29,0
2,note_on,62,0,160
2,note_on,65,29,0
2,note_on,65,0,160
2,note_on,59,34,0
2,note_on,59,0,68
2,note_on,62,30,0
2,note_on,62,0,160
2,note_on,65,30,0
2,note_on,65,0,160
2,note_on,58,34,0
2,note_on,58,0,19
2,note_on,62,30,0
2,note_on,62,0,160
2,note_on,65,30,0
2,note_on,65,0,160
2,note_on,59,34,0
2,note_on,59,0,97
2,note_on,62,30,0
2,note_on,62,0,160
2,note_on,65,30,0
2,note_on,65,0,160
2,note_on,58,34,0
2,note_on,58,0,74
2,note_on,62,29,0
2,note_on,62,0,160
2,note_on,65,29,0
2,note_on,65,0,160
2,note_on,56,34,0
2,note_on,56,0,74
2,note_on,60,30,0
2,note_on,60,0,160
2,note_on,66,30,0
2,note_on,66,0,160
2,note_on,55,34,0
2,note_on,55,0,80
2,note_on,59,28,0
2,note_on,59,0,160
2,note_on,67,28,0
2,note_on,67,0,160
2,note_on,55,33,0
2,note_on,55,0,80
2,note_on,60,28,0
2,note_on,60,0,160
2,note_on,63,28,0
2,note_on,63,0,160
2,note_on,55,31,0
2,note_on,55,0,80
2,note_on,59,26,0
2,note_on,59,0,160
2,note_on,62,26,0
2,note_on,62,0,160
2,note_on,55,30,0
2,note_on,55,0,68
2,note_on,60,26,0
2,note_on,60,0,160
2,note_on,63,26,0
2,note_on,63,0,160
2,note_on,55,29,0
2,note_on,55,0,68
2,note_on,59,27,0
2,note_on,59,0,160
2,note_on,62,28,0
2,note_on,62,0,160
2,note_on,55,34,0
2,note_on,55,0,68
2,note_on,60,30,0
2,note_on,60,0,160
2,note_on,63,30,0
2,note_on,63,0,51
2,note_on,55,34,0
2,note_on,55,0,160
2,note_on,59,31,0
2,note_on,59,0,160
2,note_on,62,31,0
2,note_on,62,0,160
2,note_on,55,34,0
2,note_on,55,0,40
2,note_on,60,31,0
2,note_on,60,0,160
2,note_on,63,31,0
2,note_on,63,0,160
2,note_on,55,34,0
2,note_on,55,0,104
2,note_on,59,30,0
2,note_on,59,0,160
2,note_on,62,30,0
2,note_on,62,0,160
2,note_on,55,34,0
2,note_on,55,0,114
2,note_on,60,30,0
2,note_on,60,0,160
2,note_on,63,30,0
2,note_on,63,0,51
2,note_on,55,34,0
2,note_on,55,0,160
2,note_on,59,31,0
2,note_on,59,0,160
2,note_on,62,31,0
2,note_on,62,0,160
2,note_on,55,34,0
2,note_on,55,0,40
2,note_on,60,31,0
2,note_on,60,0,160
2,note_on,63,31,0
2,note_on,63,0,160
2,note_on,55,34,0
2,note_on,55,0,104
2,note_on,59,30,0
2,note_on,59,0,160
2,note_on,62,30,0
2,note_on,62,0,160
2,note_on,55,34,0
2,note_on,55,0,57
2,note_on,60,30,0
2,note_on,60,0,160
2,note_on,63,30,0
2,note_on,63,0,51
2,note_on,55,34,0
2,note_on,55,0,160
2,note_on,59,31,0
2,note_on,59,0,160
2,note_on,62,31,0
2,note_on,62,0,160
2,note_on,55,34,0
2,note_on,55,0,40
2,note_on,60,31,0
2,note_on,60,0,160
2,note_on,63,31,0
2,note_on,63,0,160
2,note_on,55,34,0
2,note_on,55,0,104
2,note_on,59,30,0
2,note_on,59,0,160
2,note_on,62,30,0
2,note_on,62,0,160
2,note_on,55,34,0
2,note_on,55,0,68
2,note_on,60,30,0
2,note_on,60,0,160
2,note_on,63,30,0
2,note_on,63,0,51
2,note_on,55,34,0
2,note_on,55,0,160
2,note_on,59,31,0
2,note_on,59,0,160
2,note_on,62,31,0
2,note_on,62,0,160
2,note_on,55,34,0
2,note_on,55,0,40
2,note_on,60,31,0
2,note_on,60,0,160
2,note_on,63,31,0
2,note_on,63,0,160
2,note_on,55,34,0
2,note_on,55,0,80
2,note_on,59,31,0
2,note_on,59,0,160
2,note_on,62,31,0
2,note_on,62,0,160
2,note_on,55,34,0
2,note_on,55,0,40
2,note_on,60,31,0
2,note_on,60,0,160
2,note_on,63,31,0
2,note_on,63,0,160
2,note_on,62,34,0
2,note_on,59,34,0
2,note_on,55,34,0
2,note_on,55,0,240
2,note_on,59,0,0
2,note_on,62,0,0
2,note_on,67,94,240
2,note_on,55,78,0
2,note_on,55,0,1440
2,note_on,67,0,0
2,note_on,55,42,0
2,note_on,55,0,240
2,note_on,67,31,0
2,note_on,67,0,120
2,note_on,65,31,120
2,note_on,62,26,0
2,note_on,62,0,120
2,note_on,65,0,0
2,note_on,67,32,120
2,note_on,67,0,120
2,note_on,55,44,120
2,note_on,55,0,240
2,note_on,67,28,0
2,note_on,67,0,120
2,note_on,60,29,120
2,note_on,63,35,0
2,note_on,63,0,120
2,note_on,60,0,0
2,note_on,67,32,120
2,note_on,67,0,120
2,note_on,55,42,120
2,note_on,55,0,240
2,note_on,67,31,0
2,note_on,67,0,120
2,note_on,65,31,120
2,note_on,62,26,0
2,note_on,62,0,120
2,note_on,65,0,0
2,note_on,67,29,120
2,note_on,67,0,120
2,note_on,55,44,120
2,note_on,55,0,240
2,note_on,67,32,0
2,note_on,67,0,120
2,note_on,54,29,120
2,note_on,60,29,0
2,note_on,63,35,0
2,note_on,63,0,120
2,note_on,60,0,0
2,note_on,54,0,0
2,note_on,66,35,120
2,note_on,66,0,120
2,note_on,53,42,120
2,note_on,53,0,240
2,note_on,65,35,0
2,note_on,65,0,120
2,note_on,62,35,120
2,note_on,62,0,120
2,note_on,65,36,120
2,note_on,65,0,120
2,note_on,55,42,120
2,note_on,55,0,240
2,note_on,64,36,0
2,note_on,64,0,120
2,note_on,60,36,120
2,note_on,60,0,120
2,note_on,64,36,120
2,note_on,64,0,120
2,note_on,62,42,120
2,note_on,53,35,0
2,note_on,53,0,198
2,note_on,62,0,0
2,note_on,65,33,0
2,note_on,65,0,240
2,note_on,63,35,0
2,note_on,53,29,0
2,note_on,53,0,85
2,note_on,63,0,0
2,note_on,65,34,120
2,note_on,65,0,120
2,note_on,62,42,120
2,note_on,58,42,0
2,note_on,58,0,240
2,note_on,62,0,0
2,note_on,67,94,240
2,note_on,55,78,0
2,note_on,55,0,1440
2,note_on,67,0,0
2,note_on,55,42,0
2,note_on,55,0,240
2,note_on,67,31,0
2,note_on,67,0,120
2,note_on,65,31,120
2,note_on,62,26,0
2,note_on,62,0,120
2,note_on,65,0,0
2,note_on,67,32,120
2,note_on,67,0,120
2,note_on,55,44,120
2,note_on,55,0,240
2,note_on,67,31,0
2,note_on,67,0,120
2,note_on,60,29,120
2,note_on,63,35,0
2,note_on,63,0,120
2,note_on,60,0,0
2,note_on,67,32,120
2,note_on,67,0,120
2,note_on,55,42,120
2,note_on,55,0,240
2,note_on,67,31,0
2,note_on,67,0,120
2,note_on,65,31,120
2,note_on,62,26,0
2,note_on,62,0,120
2,note_on,65,0,0
2,note_on,67,29,120
2,note_on,67,0,120
2,note_on,55,44,120
2,note_on,55,0,240
2,note_on,67,32,0
2,note_on,67,0,120
2,note_on,54,29,120
2,note_on,60,29,0
2,note_on,63,35,0
2,note_on,63,0,120
2,note_on,60,0,0
2,note_on,54,0,0
2,note_on,66,35,120
2,note_on,66,0,120
2,note_on,53,42,120
2,note_on,53,0,240
2,note_on,65,35,0
2,note_on,65,0,120
2,note_on,62,35,120
2,note_on,62,0,120
2,note_on,65,36,120
2,note_on,65,0,120
2,note_on,55,42,120
2,note_on,55,0,240
2,note_on,64,36,0
2,note_on,64,0,120
2,note_on,60,36,120
2,note_on,60,0,120
2,note_on,64,36,120
2,note_on,64,0,120
2,note_on,62,42,120
2,note_on,53,35,0
2,note_on,53,0,198
2,note_on,62,0,0
2,note_on,65,33,0
2,note_on,65,0,240
2,note_on,63,35,0
2,note_on,53,29,0
2,note_on,53,0,85
2,note_on,63,0,0
2,note_on,65,34,120
2,note_on,65,0,120
2,note_on,62,42,120
2,note_on,58,42,0
2,note_on,58,0,120
2,note_on,62,0,0
2,note_on,57,38,120
2,note_on,57,0,120
2,note_on,55,37,120
2,note_on,55,0,120
2,note_on,53,36,120
2,note_on,53,0,120
2,note_on,51,42,120
2,note_on,51,0,120
2,note_on,58,36,120
2,note_on,55,36,0
2,note_on,55,0,120
2,note_on,58,0,0
2,note_on,48,36,120
2,note_on,48,0,120
2,note_on,60,36,120
2,note_on,55,36,0
2,note_on,55,0,120
2,note_on,60,0,0
2,note_on,53,42,120
2,note_on,53,0,120
2,note_on,57,35,120
2,note_on,60,35,0
2,note_on,60,0,120
2,note_on,57,0,0
2,note_on,51,36,120
2,note_on,51,0,120
2,note_on,60,36,120
2,note_on,57,36,0
2,note_on,57,0,120
2,note_on,60,0,0
2,note_on,50,39,120
2,note_on,50,0,226
2,note_on,58,34,0
2,note_on,53,29,0
2,note_on,53,0,240
2,note_on,58,0,0
2,note_on,46,34,0
2,note_on,46,0,141
2,note_on,58,34,0
2,note_on,53,29,0
2,note_on,53,0,240
2,note_on,58,0,0
2,note_on,51,40,0
2,note_on,51,0,92
2,note_on,58,34,0
2,note_on,55,29,0
2,note_on,55,0,240
2,note_on,58,0,0
2,note_on,50,34,0
2,note_on,50,0,229
2,note_on,58,34,0
2,note_on,55,29,0
2,note_on,55,0,240
2,note_on,58,0,0
2,note_on,48,42,0
2,note_on,48,0,226
2,note_on,60,36,0
2,note_on,55,30,0
2,note_on,55,0,240
2,note_on,60,0,0
2,note_on,45,36,0
2,note_on,45,0,240
2,note_on,57,36,0
2,note_on,51,30,0
2,note_on,51,0,240
2,note_on,57,0,0
2,note_on,50,42,0
2,note_on,50,0,191
2,note_on,54,29,0
2,note_on,57,35,0
2,note_on,57,0,240
2,note_on,54,0,0
2,note_on,42,42,0
2,note_on,42,0,180
2,note_on,50,30,60
2,note_on,54,36,0
2,note_on,54,0,180
2,note_on,50,0,0
2,note_on,43,47,60
2,note_on,43,0,120
2,note_on,55,39,120
2,note_on,55,0,120
2,note_on,39,49,120
2,note_on,39,0,120
2,note_on,51,44,120
2,note_on,51,0,120
2,note_on,36,51,120
2,note_on,36,0,120
2,note_on,48,46,120
2,note_on,48,0,120
2,note_on,38,54,120
2,note_on,38,0,120
2,note_on,50,45,120
2,note_on,50,0,120
2,note_on,39,44,120
2,note_on,51,52,0
2,note_on,51,0,240
2,note_on,39,0,0
2,note_on,42,51,240
2,note_on,50,51,0
2,note_on,54,60,0
2,note_on,54,0,438
2,note_on,50,0,0
2,note_on,42,0,0
2,note_on,43,50,0
2,note_on,43,0,191
2,note_on,55,45,0
2,note_on,55,0,205
2,note_on,39,45,0
2,note_on,39,0,240
2,note_on,51,45,0
2,note_on,51,0,240
2,note_on,36,56,0
2,note_on,36,0,184
2,note_on,48,49,0
2,note_on,48,0,240
2,note_on,38,49,0
2,note_on,38,0,56
2,note_on,50,49,0
2,note_on,50,0,240
2,note_on,31,52,0
2,note_on,31,0,169
2,note_on,43,55,0
2,note_on,43,0,240
2,note_on,50,55,0
2,note_on,62,66,0
2,note_on,62,0,464
2,note_on,50,0,0
2,note_on,51,54,0
2,note_on,63,65,0
2,note_on,63,0,198
2,note_on,51,0,0
2,note_on,49,48,0
2,note_on,61,57,0
2,note_on,61,0,480
2,note_on,49,0,0
2,note_on,50,48,0
2,note_on,62,57,0
2,note_on,62,0,149
2,note_on,50,0,0
2,note_on,47,61,0
2,note_on,47,0,154
2,note_on,59,52,0
2,note_on,59,0,160
2,note_on,47,52,0
2,note_on,47,0,160
2,note_on,48,63,0
2,note_on,48,0,91
2,note_on,60,55,0
2,note_on,60,0,57
2,note_on,48,54,0
2,note_on,48,0,160
2,note_on,45,59,0
2,note_on,45,0,160
2,note_on,57,52,0
2,note_on,57,0,160
2,note_on,45,52,0
2,note_on,45,0,160
2,note_on,46,57,0
2,note_on,46,0,89
2,note_on,58,52,0
2,note_on,58,0,52
2,note_on,46,52,0
2,note_on,46,0,160
2,note_on,46,59,141
2,note_on,58,72,0
2,note_on,58,0,120
2,note_on,46,0,0
2,note_on,45,67,0
2,note_on,57,79,0
2,note_on,57,0,169
2,note_on,45,0,0
2,note_on,43,54,0
2,note_on,55,65,0
2,note_on,55,0,42
2,note_on,43,0,0
2,note_on,43,59,120
2,note_on,55,71,0
2,note_on,55,0,120
2,note_on,43,0,0
2,note_on,43,53,120
2,note_on,55,64,0
2,note_on,55,0,120
2,note_on,43,0,0
2,note_on,43,66,120
2,note_on,55,78,0
2,note_on,55,0,183
2,note_on,43,0,0
2,note_on,42,59,0
2,note_on,54,72,0
2,note_on,54,0,86
2,note_on,42,0,0
2,note_on,41,59,360
2,note_on,53,72,0
2,note_on,53,0,120
2,note_on,41,0,0
2,note_on,41,67,120
2,note_on,53,79,0
2,note_on,53,0,177
2,note_on,41,0,0
2,note_on,40,51,0
2,note_on,52,60,0
2,note_on,52,0,63
2,note_on,40,0,0
2,note_on,39,56,120
2,note_on,51,67,0
2,note_on,51,0,120
2,note_on,39,0,0
2,note_on,39,50,120
2,note_on,51,59,0
2,note_on,51,0,120
2,note_on,39,0,0
2,note_on,39,66,120
2,note_on,51,78,0
2,note_on,51,0,169
2,note_on,39,0,0
2,note_on,38,59,0
2,note_on,50,72,0
2,note_on,50,0,120
2,note_on,38,0,0
2,note_on,39,78,120
2,note_on,39,0,196
2,note_on,51,70,0
2,note_on,51,0,240
2,note_on,38,78,0
2,note_on,38,0,183
2,note_on,50,71,0
2,note_on,50,0,240
2,note_on,37,78,0
2,note_on,37,0,139
2,note_on,49,68,0
2,note_on,49,0,240
2,note_on,38,78,0
2,note_on,38,0,103
2,note_on,42,69,0
2,note_on,42,0,160
2,note_on,45,69,0
2,note_on,45,0,160
2,note_on,50,76,0
2,note_on,50,0,160
2,note_on,54,67,0
2,note_on,54,0,160
2,note_on,57,67,0
2,note_on,57,0,160
2,note_on,50,73,0
2,note_on,50,0,100
2,note_on,55,61,0
2,note_on,55,0,160
2,note_on,58,61,0
2,note_on,58,0,160
2,note_on,57,67,0
2,note_on,57,0,82
2,note_on,58,55,0
2,note_on,58,0,160
2,note_on,55,55,0
2,note_on,55,0,160
2,note_on,50,64,0
2,note_on,50,0,120
2,note_on,54,56,0
2,note_on,54,0,160
2,note_on,57,56,0
2,note_on,57,0,160
2,note_on,56,47,0
2,note_on,56,0,91
2,note_on,57,36,0
2,note_on,57,0,160
2,note_on,54,36,0
2,note_on,54,0,160
2,note_on,50,42,0
2,note_on,50,0,74
2,note_on,53,33,0
2,note_on,53,0,160
2,note_on,56,33,0
2,note_on,56,0,51
2,note_on,55,43,0
2,note_on,55,0,160
2,note_on,56,35,0
2,note_on,56,0,160
2,note_on,53,35,0
2,note_on,53,0,160
2,note_on,48,43,0
2,note_on,48,0,126
2,note_on,53,36,0
2,note_on,53,0,160
2,note_on,56,36,0
2,note_on,56,0,160
2,note_on,48,76,0
2,note_on,48,0,80
2,note_on,52,67,0
2,note_on,52,0,160
2,note_on,55,67,0
2,note_on,55,0,160
2,note_on,48,73,0
2,note_on,48,0,103
2,note_on,53,61,0
2,note_on,53,0,160
2,note_on,56,61,0
2,note_on,56,0,160
2,note_on,55,67,0
2,note_on,55,0,74
2,note_on,56,55,0
2,note_on,56,0,160
2,note_on,53,55,0
2,note_on,53,0,160
2,note_on,48,64,0
2,note_on,48,0,68
2,note_on,52,56,0
2,note_on,52,0,160
2,note_on,55,56,0
2,note_on,55,0,160
2,note_on,54,47,0
2,note_on,54,0,91
2,note_on,55,36,0
2,note_on,55,0,160
2,note_on,52,36,0
2,note_on,52,0,160
2,note_on,48,42,0
2,note_on,48,0,114
2,note_on,51,33,0
2,note_on,51,0,17
2,note_on,54,33,0
2,note_on,54,0,160
2,note_on,53,43,0
2,note_on,53,0,160
2,note_on,54,35,0
2,note_on,54,0,160
2,note_on,51,35,0
2,note_on,51,0,160
2,note_on,46,43,0
2,note_on,46,0,126
2,note_on,51,36,0
2,note_on,51,0,40
2,note_on,54,36,0
2,note_on,54,0,160
2,note_on,46,51,6
2,note_on,50,44,119
2,note_on,46,0,7
2,note_on,50,0,153
2,note_on,53,44,2
2,note_on,60,60,0
2,note_on,53,0,1
2,note_on,60,0,374
2,note_on,57,50,0
2,note_on,57,0,480
2,note_on,58,59,0
2,note_on,58,0,656
2,note_on,62,45,0
2,note_on,62,0,120
2,note_on,58,51,0
2,note_on,65,53,0
2,note_on,65,0,148
2,note_on,63,46,0
2,note_on,63,0,120
2,note_on,63,46,92
2,note_on,63,0,120
2,note_on,63,46,120
2,note_on,63,0,120
2,note_on,58,0,120
2,note_on,58,51,0
2,note_on,63,53,0
2,note_on,63,0,184
2,note_on,62,46,0
2,note_on,62,0,49
2,note_on,58,0,120
2,note_on,58,53,200
2,note_on,58,0,240
2,note_on,60,59,0
2,note_on,60,0,127
2,note_on,62,50,0
2,note_on,62,0,240
2,note_on,55,55,0
2,note_on,55,0,240
2,note_on,57,50,0
2,note_on,57,0,240
2,note_on,58,59,0
2,note_on,58,0,621
2,note_on,62,45,0
2,note_on,62,0,120
2,note_on,58,53,0
2,note_on,65,53,0
2,note_on,65,0,148
2,note_on,63,46,0
2,note_on,63,0,120
2,note_on,63,46,85
2,note_on,63,0,120
2,note_on,63,46,120
2,note_on,63,0,120
2,note_on,58,0,120
2,note_on,58,53,0
2,note_on,63,53,0
2,note_on,63,0,184
2,note_on,62,46,0
2,note_on,62,0,85
2,note_on,58,0,120
2,note_on,46,57,200
2,note_on,58,68,0
2,note_on,58,0,240
2,note_on,46,0,0
2,note_on,47,65,0
2,note_on,59,77,0
2,note_on,59,0,3
2,note_on,47,0,0
2,note_on,44,59,0
2,note_on,56,71,0
2,note_on,56,0,392
2,note_on,44,0,0
2,note_on,46,65,0
2,note_on,58,77,0
2,note_on,58,0,416
2,note_on,46,0,0
2,note_on,51,55,240
2,note_on,63,66,0
2,note_on,63,0,120
2,note_on,51,0,0
2,note_on,49,66,120
2,note_on,61,78,0
2,note_on,61,0,148
2,note_on,49,0,0
2,note_on,47,54,0
2,note_on,59,65,0
2,note_on,59,0,120
2,note_on,47,0,0
2,note_on,47,54,0
2,note_on,59,65,0
2,note_on,59,0,45
2,note_on,47,0,0
2,note_on,47,53,120
2,note_on,59,64,0
2,note_on,59,0,120
2,note_on,47,0,0
2,note_on,47,64,120
2,note_on,59,76,0
2,note_on,59,0,184
2,note_on,47,0,0
2,note_on,46,54,0
2,note_on,58,65,0
2,note_on,58,0,120
2,note_on,46,0,0
2,note_on,49,68,120
2,note_on,49,0,40
2,note_on,54,61,0
2,note_on,54,0,160
2,note_on,58,61,0
2,note_on,58,0,34
2,note_on,47,65,0
2,note_on,59,77,0
2,note_on,59,0,3
2,note_on,47,0,0
2,note_on,44,59,0
2,note_on,56,71,0
2,note_on,56,0,428
2,note_on,44,0,0
2,note_on,46,65,0
2,note_on,58,77,0
2,note_on,58,0,416
2,note_on,46,0,0
2,note_on,51,55,240
2,note_on,63,66,0
2,note_on,63,0,120
2,note_on,51,0,0
2,note_on,49,66,120
2,note_on,61,78,0
2,note_on,61,0,148
2,note_on,49,0,0
2,note_on,47,54,0
2,note_on,59,65,0
2,note_on,59,0,120
2,note_on,47,0,0
2,note_on,47,54,120
2,note_on,59,65,0
2,note_on,59,0,28
2,note_on,47,0,0
2,note_on,47,53,120
2,note_on,59,64,0
2,note_on,59,0,120
2,note_on,47,0,0
2,note_on,47,66,120
2,note_on,59,78,0
2,note_on,59,0,108
2,note_on,47,0,0
2,note_on,46,54,0
2,note_on,58,65,0
2,note_on,58,0,120
2,note_on,46,0,0
2,note_on,46,54,0
2,note_on,58,65,0
2,note_on,58,0,51
2,note_on,46,0,0
2,note_on,46,53,120
2,note_on,58,64,0
2,note_on,58,0,120
2,note_on,46,0,0
2,note_on,46,66,120
2,note_on,58,78,0
2,note_on,58,0,148
2,note_on,46,0,0
2,note_on,44,54,0
2,note_on,56,65,0
2,note_on,56,0,120
2,note_on,44,0,0
2,note_on,44,54,6
2,note_on,56,65,0
2,note_on,56,0,63
2,note_on,44,0,0
2,note_on,44,53,120
2,note_on,56,64,0
2,note_on,56,0,120
2,note_on,44,0,0
2,note_on,44,66,120
2,note_on,56,78,0
2,note_on,56,0,148
2,note_on,44,0,0
2,note_on,42,54,0
2,note_on,54,65,0
2,note_on,54,0,120
2,note_on,42,0,0
2,note_on,42,54,120
2,note_on,54,65,0
2,note_on,54,0,97
2,note_on,42,0,0
2,note_on,42,53,120
2,note_on,54,64,0
2,note_on,54,0,120
2,note_on,42,0,0
2,note_on,35,88,0
2,note_on,47,103,0
2,note_on,47,0,891
2,note_on,35,0,0
2,note_on,35,75,0
2,note_on,47,89,0
2,note_on,47,0,184
2,note_on,35,0,0
2,note_on,34,64,0
2,note_on,46,75,0
2,note_on,46,0,120
2,note_on,34,0,0
2,note_on,34,64,120
2,note_on,46,75,0
2,note_on,46,0,35
2,note_on,34,0,0
2,note_on,34,64,120
2,note_on,46,75,0
2,note_on,46,0,120
2,note_on,34,0,0
2,note_on,35,88,120
2,note_on,47,103,0
2,note_on,47,0,891
2,note_on,35,0,0
2,note_on,35,75,0
2,note_on,47,89,0
2,note_on,47,0,148
2,note_on,35,0,0
2,note_on,34,64,0
2,note_on,46,75,0
2,note_on,46,0,120
2,note_on,34,0,0
2,note_on,34,64,120
2,note_on,46,75,0
2,note_on,46,0,28
2,note_on,34,0,0
2,note_on,34,64,120
2,note_on,46,75,0
2,note_on,46,0,120
2,note_on,34,0,0
2,note_on,47,103,120
2,note_on,35,88,0
2,note_on,35,0,891
2,note_on,47,0,0
2,note_on,46,89,0
2,note_on,34,75,0
2,note_on,34,0,424
2,note_on,46,0,0
2,note_on,45,75,0
2,note_on,33,64,0
2,note_on,33,0,383
2,note_on,45,0,0
2,note_on,34,88,0
2,note_on,46,103,0
2,note_on,46,0,891
2,note_on,34,0,0
2,note_on,34,72,0
2,note_on,46,86,0
2,note_on,46,0,106
2,note_on,34,0,0
2,note_on,33,60,0
2,note_on,45,72,0
2,note_on,45,0,120
2,note_on,33,0,0
2,note_on,33,59,120
2,note_on,45,71,0
2,note_on,45,0,35
2,note_on,33,0,0
2,note_on,33,59,120
2,note_on,45,70,0
2,note_on,45,0,120
2,note_on,33,0,0
2,note_on,34,81,120
2,note_on,46,96,0
2,note_on,46,0,891
2,note_on,34,0,0
2,note_on,34,67,0
2,note_on,46,78,0
2,note_on,46,0,141
2,note_on,34,0,0
2,note_on,33,55,0
2,note_on,45,66,0
2,note_on,45,0,120
2,note_on,33,0,0
2,note_on,33,55,120
2,note_on,45,65,0
2,note_on,45,0,28
2,note_on,33,0,0
2,note_on,33,54,120
2,note_on,45,64,0
2,note_on,45,0,120
2,note_on,33,0,0
2,note_on,34,74,120
2,note_on,46,88,0
2,note_on,46,0,891
2,note_on,34,0,0
2,note_on,34,61,0
2,note_on,46,72,0
2,note_on,46,0,134
2,note_on,34,0,0
2,note_on,33,51,0
2,note_on,45,60,0
2,note_on,45,0,120
2,note_on,33,0,0
2,note_on,33,50,120
2,note_on,45,59,0
2,note_on,45,0,99
2,note_on,33,0,0
2,note_on,33,50,120
2,note_on,45,58,0
2,note_on,45,0,120
2,note_on,33,0,0
2,note_on,46,80,120
2,note_on,34,68,0
2,note_on,34,0,651
2,note_on,46,0,0
2,note_on,34,66,0
2,note_on,46,77,0
2,note_on,46,0,240
2,note_on,34,0,0
2,note_on,45,65,0
2,note_on,33,55,0
2,note_on,33,0,424
2,note_on,45,0,0
2,note_on,44,53,0
2,note_on,32,45,0
2,note_on,32,0,374
2,note_on,44,0,0
2,note_on,45,68,0
2,note_on,33,57,0
2,note_on,33,0,651
2,note_on,45,0,0
2,note_on,33,56,0
2,note_on,45,56,0
2,note_on,45,0,240
2,note_on,33,0,0
2,note_on,43,58,0
2,note_on,31,49,0
2,note_on,31,0,424
2,note_on,43,0,0
2,note_on,42,49,0
2,note_on,30,40,0
2,note_on,30,0,367
2,note_on,42,0,0
2,note_on,31,57,0
2,note_on,43,68,0
2,note_on,43,0,891
2,note_on,31,0,0
2,note_on,31,49,0
2,note_on,43,58,0
2,note_on,43,0,184
2,note_on,31,0,0
2,note_on,32,40,0
2,note_on,44,49,0
2,note_on,44,0,120
2,note_on,32,0,0
2,note_on,32,40,120
2,note_on,44,49,0
2,note_on,44,0,51
2,note_on,32,0,0
2,note_on,32,40,120
2,note_on,44,49,0
2,note_on,44,0,120
2,note_on,32,0,0
2,note_on,31,57,120
2,note_on,43,68,0
2,note_on,43,0,891
2,note_on,31,0,0
2,note_on,31,38,0
2,note_on,43,46,0
2,note_on,43,0,184
2,note_on,31,0,0
2,note_on,32,32,0
2,note_on,44,38,0
2,note_on,44,0,120
2,note_on,32,0,0
2,note_on,32,32,120
2,note_on,44,38,0
2,note_on,44,0,23
2,note_on,32,0,0
2,note_on,32,32,120
2,note_on,44,38,0
2,note_on,44,0,120
2,note_on,32,0,0
2,note_on,31,38,0
2,note_on,43,46,0
2,note_on,43,0,240
2,note_on,31,0,0
2,note_on,55,78,240
2,note_on,67,94,0
2,note_on,67,0,1440
2,note_on,55,0,0
2,note_on,55,42,0
2,note_on,55,0,240
2,note_on,67,31,0
2,note_on,67,0,120
2,note_on,65,31,120
2,note_on,62,26,0
2,note_on,62,0,120
2,note_on,65,0,0
2,note_on,67,32,120
2,note_on,67,0,120
2,note_on,55,44,120
2,note_on,55,0,240
2,note_on,67,31,0
2,note_on,67,0,240
2,note_on,60,29,0
2,note_on,63,35,0
2,note_on,63,0,240
2,note_on,60,0,0
2,note_on,67,32,0
2,note_on,67,0,240
2,note_on,55,42,0
2,note_on,55,0,240
2,note_on,67,31,0
2,note_on,67,0,120
2,note_on,65,31,120
2,note_on,62,26,0
2,note_on,62,0,120
2,note_on,65,0,0
2,note_on,67,29,120
2,note_on,67,0,120
2,note_on,55,44,120
2,note_on,55,0,240
2,note_on,67,32,0
2,note_on,67,0,120
2,note_on,54,29,120
2,note_on,60,29,0
2,note_on,63,35,0
2,note_on,63,0,120
2,note_on,60,0,0
2,note_on,54,0,0
2,note_on,66,35,120
2,note_on,66,0,240
2,note_on,53,42,0
2,note_on,53,0,240
2,note_on,65,35,0
2,note_on,65,0,120
2,note_on,62,35,120
2,note_on,62,0,120
2,note_on,65,36,120
2,note_on,65,0,120
2,note_on,55,42,120
2,note_on,55,0,240
2,note_on,64,36,0
2,note_on,64,0,120
2,note_on,60,36,120
2,note_on,60,0,120
2,note_on,64,36,120
2,note_on,64,0,120
2,note_on,62,42,120
2,note_on,53,35,0
2,note_on,53,0,198
2,note_on,62,0,0
2,note_on,65,33,0
2,note_on,65,0,240
2,note_on,63,35,0
2,note_on,53,29,0
2,note_on,53,0,85
2,note_on,63,0,0
2,note_on,65,34,120
2,note_on,65,0,120
2,note_on,62,42,120
2,note_on,58,42,0
2,note_on,58,0,120
2,note_on,62,0,0
2,note_on,57,38,120
2,note_on,57,0,120
2,note_on,55,37,120
2,note_on,55,0,120
2,note_on,53,36,120
2,note_on,53,0,120
2,note_on,51,42,120
2,note_on,51,0,120
2,note_on,58,36,120
2,note_on,55,36,0
2,note_on,55,0,120
2,note_on,58,0,0
2,note_on,48,36,120
2,note_on,48,0,120
2,note_on,60,36,120
2,note_on,55,36,0
2,note_on,55,0,120
2,note_on,60,0,0
2,note_on,53,42,120
2,note_on,53,0,120
2,note_on,57,35,120
2,note_on,60,35,0
2,note_on,60,0,120
2,note_on,57,0,0
2,note_on,51,36,120
2,note_on,51,0,120
2,note_on,60,36,120
2,note_on,57,36,0
2,note_on,57,0,120
2,note_on,60,0,0
2,note_on,50,39,120
2,note_on,50,0,106
2,note_on,58,34,120
2,note_on,53,29,0
2,note_on,53,0,120
2,note_on,58,0,0
2,note_on,46,34,120
2,note_on,46,0,21
2,note_on,58,34,120
2,note_on,53,29,0
2,note_on,53,0,120
2,note_on,58,0,0
2,note_on,51,40,0
2,note_on,51,0,120
2,note_on,58,34,92
2,note_on,55,29,0
2,note_on,55,0,120
2,note_on,58,0,0
2,note_on,50,34,14
2,note_on,50,0,120
2,note_on,58,29,120
2,note_on,55,29,0
2,note_on,55,0,120
2,note_on,58,0,0
2,note_on,48,33,0
2,note_on,48,0,120
2,note_on,60,29,120
2,note_on,56,29,0
2,note_on,56,0,120
2,note_on,60,0,0
2,note_on,51,29,120
2,note_on,51,0,120
2,note_on,60,29,120
2,note_on,56,29,0
2,note_on,56,0,120
2,note_on,60,0,0
2,note_on,48,33,0
2,note_on,48,0,6
2,note_on,56,28,120
2,note_on,60,28,0
2,note_on,60,0,120
2,note_on,56,0,0
2,note_on,51,29,120
2,note_on,51,0,120
2,note_on,60,29,120
2,note_on,56,29,0
2,note_on,56,0,120
2,note_on,60,0,0
2,note_on,49,33,0
2,note_on,49,0,126
2,note_on,55,29,0
2,note_on,58,29,0
2,note_on,58,0,240
2,note_on,55,0,0
2,note_on,51,29,0
2,note_on,51,0,126
2,note_on,58,29,0
2,note_on,55,29,0
2,note_on,55,0,240
2,note_on,58,0,0
2,note_on,49,33,0
2,note_on,49,0,189
2,note_on,55,28,0
2,note_on,58,28,0
2,note_on,58,0,240
2,note_on,55,0,0
2,note_on,51,29,0
2,note_on,51,0,174
2,note_on,58,29,60
2,note_on,55,29,0
2,note_on,55,0,180
2,note_on,58,0,0
2,note_on,48,31,60
2,note_on,48,0,240
2,note_on,56,23,0
2,note_on,60,27,0
2,note_on,60,0,240
2,note_on,56,0,0
2,note_on,51,27,0
2,note_on,51,0,240
2,note_on,60,27,0
2,note_on,56,23,0
2,note_on,56,0,240
2,note_on,60,0,0
2,note_on,48,32,0
2,note_on,48,0,92
2,note_on,60,27,0
2,note_on,56,23,0
2,note_on,56,0,14
2,note_on,60,0,0
2,note_on,51,32,0
2,note_on,51,0,120
2,note_on,56,23,120
2,note_on,60,27,0
2,note_on,60,0,120
2,note_on,56,0,0
2,note_on,49,32,0
2,note_on,49,0,240
2,note_on,58,29,0
2,note_on,55,29,0
2,note_on,55,0,120
2,note_on,58,0,0
2,note_on,51,32,120
2,note_on,51,0,171
2,note_on,58,29,0
2,note_on,55,29,0
2,note_on,55,0,240
2,note_on,58,0,0
2,note_on,49,34,0
2,note_on,49,0,141
2,note_on,58,29,0
2,note_on,55,29,0
2,note_on,55,0,49
2,note_on,58,0,0
2,note_on,51,31,120
2,note_on,51,0,120
2,note_on,58,34,120
2,note_on,55,34,0
2,note_on,55,0,120
2,note_on,58,0,0
2,note_on,48,37,0
2,note_on,48,0,240
2,note_on,56,27,0
2,note_on,60,32,0
2,note_on,60,0,240
2,note_on,56,0,0
2,note_on,51,32,0
2,note_on,51,0,240
2,note_on,56,27,0
2,note_on,60,32,0
2,note_on,60,0,240
2,note_on,56,0,0
2,note_on,48,37,0
2,note_on,48,0,103
2,note_on,60,32,0
2,note_on,56,27,0
2,note_on,56,0,240
2,note_on,60,0,0
2,note_on,51,32,0
2,note_on,51,0,240
2,note_on,60,32,0
2,note_on,56,27,0
2,note_on,56,0,240
2,note_on,60,0,0
2,note_on,49,37,0
2,note_on,49,0,91
2,note_on,58,32,0
2,note_on,55,27,0
2,note_on,55,0,240
2,note_on,58,0,0
2,note_on,52,32,0
2,note_on,52,0,137
2,note_on,58,32,0
2,note_on,55,27,0
2,note_on,55,0,240
2,note_on,58,0,0
2,note_on,49,37,0
2,note_on,49,0,240
2,note_on,58,32,0
2,note_on,55,27,0
2,note_on,55,0,240
2,note_on,58,0,0
2,note_on,52,36,0
2,note_on,52,0,240
2,note_on,58,39,0
2,note_on,55,32,0
2,note_on,55,0,240
2,note_on,58,0,0
2,note_on,50,44,0
2,note_on,50,0,141
2,note_on,62,38,0
2,note_on,58,31,0
2,note_on,58,0,240
2,note_on,62,0,0
2,note_on,53,38,0
2,note_on,53,0,99
2,note_on,62,38,0
2,note_on,58,31,0
2,note_on,58,0,240
2,note_on,62,0,0
2,note_on,50,48,0
2,note_on,50,0,127
2,note_on,62,37,0
2,note_on,58,31,0
2,note_on,58,0,240
2,note_on,62,0,0
2,note_on,53,37,0
2,note_on,53,0,240
2,note_on,62,37,0
2,note_on,58,31,0
2,note_on,58,0,240
2,note_on,62,0,0
2,note_on,51,50,0
2,note_on,51,0,113
2,note_on,63,40,0
2,note_on,60,34,0
2,note_on,60,0,240
2,note_on,63,0,0
2,note_on,55,37,0
2,note_on,55,0,113
2,note_on,63,37,0
2,note_on,60,31,0
2,note_on,60,0,240
2,note_on,63,0,0
2,note_on,53,44,0
2,note_on,53,0,127
2,note_on,62,34,0
2,note_on,58,28,0
2,note_on,58,0,240
2,note_on,62,0,0
2,note_on,53,34,0
2,note_on,53,0,113
2,note_on,63,34,0
2,note_on,57,28,0
2,note_on,57,0,240
2,note_on,63,0,0
2,note_on,46,38,0
2,note_on,46,0,191
2,note_on,62,30,0
2,note_on,58,25,0
2,note_on,58,0,240
2,note_on,62,0,0
2,note_on,50,30,0
2,note_on,50,0,176
2,note_on,62,30,0
2,note_on,58,25,0
2,note_on,58,0,240
2,note_on,62,0,0
2,note_on,53,36,0
2,note_on,53,0,240
2,note_on,62,30,0
2,note_on,58,25,0
2,note_on,58,0,240
2,note_on,62,0,0
2,note_on,54,30,0
2,note_on,54,0,184
2,note_on,62,31,0
2,note_on,60,26,0
2,note_on,60,0,240
2,note_on,62,0,0
2,note_on,62,34,0
2,note_on,59,29,0
2,note_on,55,29,0
2,note_on,55,0,240
2,note_on,59,0,0
2,note_on,62,0,0
2,note_on,55,78,240
2,note_on,67,94,0
2,note_on,67,0,1440
2,note_on,55,0,0
2,note_on,55,42,0
2,note_on,55,0,240
2,note_on,67,31,0
2,note_on,67,0,120
2,note_on,65,31,120
2,note_on,62,26,0
2,note_on,62,0,120
2,note_on,65,0,0
2,note_on,67,32,120
2,note_on,67,0,120
2,note_on,55,44,120
2,note_on,55,0,240
2,note_on,67,31,0
2,note_on,67,0,240
2,note_on,60,29,0
2,note_on,63,35,0
2,note_on,63,0,240
2,note_on,60,0,0
2,note_on,67,32,0
2,note_on,67,0,240
2,note_on,55,42,0
2,note_on,55,0,240
2,note_on,67,31,0
2,note_on,67,0,120
2,note_on,65,31,120
2,note_on,62,26,0
2,note_on,62,0,120
2,note_on,65,0,0
2,note_on,67,29,120
2,note_on,67,0,120
2,note_on,55,44,120
2,note_on,55,0,240
2,note_on,67,32,0
2,note_on,67,0,120
2,note_on,54,29,120
2,note_on,60,29,0
2,note_on,63,35,0
2,note_on,63,0,120
2,note_on,60,0,0
2,note_on,54,0,0
2,note_on,66,35,120
2,note_on,66,0,240
2,note_on,53,42,0
2,note_on,53,0,240
2,note_on,65,35,0
2,note_on,65,0,120
2,note_on,62,35,120
2,note_on,62,0,120
2,note_on,65,36,120
2,note_on,65,0,120
2,note_on,55,42,120
2,note_on,55,0,240
2,note_on,64,36,0
2,note_on,64,0,120
2,note_on,60,36,120
2,note_on,60,0,120
2,note_on,64,36,120
2,note_on,64,0,120
2,note_on,62,42,120
2,note_on,53,35,0
2,note_on,53,0,198
2,note_on,62,0,0
2,note_on,65,33,0
2,note_on,65,0,240
2,note_on,57,35,0
2,note_on,53,29,0
2,note_on,53,0,85
2,note_on,57,0,0
2,note_on,63,34,120
2,note_on,63,0,120
2,note_on,62,42,120
2,note_on,58,42,0
2,note_on,58,0,240
2,note_on,62,0,0
2,note_on,65,38,0
2,note_on,65,0,240
2,note_on,62,38,0
2,note_on,62,0,240
2,note_on,58,38,0
2,note_on,58,0,240
2,note_on,55,43,0
2,note_on,55,0,240
2,note_on,64,37,0
2,note_on,64,0,120
2,note_on,58,39,120
2,note_on,58,0,240
2,note_on,64,42,0
2,note_on,64,0,240
2,note_on,53,35,0
2,note_on,53,0,198
2,note_on,65,33,0
2,note_on,65,0,240
2,note_on,57,35,0
2,note_on,57,0,85
2,note_on,65,34,120
2,note_on,65,0,120
2,note_on,55,43,120
2,note_on,55,0,240
2,note_on,64,35,0
2,note_on,64,0,120
2,note_on,58,35,120
2,note_on,58,0,240
2,note_on,64,36,0
2,note_on,64,0,240
2,note_on,53,29,0
2,note_on,57,29,0
2,note_on,65,35,0
2,note_on,65,0,438
2,note_on,57,0,0
2,note_on,53,0,0
2,note_on,60,39,685
2,note_on,60,0,120
2,note_on,57,43,120
2,note_on,57,0,120
2,note_on,55,47,120
2,note_on,55,0,120
2,note_on,53,50,120
2,note_on,53,0,120
2,note_on,51,46,120
2,note_on,51,0,120
2,note_on,50,43,120
2,note_on,50,0,120
2,note_on,48,39,120
2,note_on,48,0,120
2,note_on,34,33,240
2,note_on,34,0,120
2,note_on,46,33,360
2,note_on,46,0,120
2,note_on,50,33,194
2,note_on,50,0,120
2,note_on,51,33,160
2,note_on,51,0,120
2,note_on,55,33,176
2,note_on,55,0,240
2,note_on,58,33,191
2,note_on,58,0,240
2,note_on,62,33,171
2,note_on,62,0,240
2,note_on,41,33,160
2,note_on,41,0,240
2,note_on,43,33,184
2,note_on,43,0,240
2,note_on,46,33,134
2,note_on,46,0,240
2,note_on,50,33,165
2,note_on,50,0,240
2,note_on,54,33,131
2,note_on,54,0,240
2,note_on,55,33,177
2,note_on,55,0,120
2,note_on,57,33,120
2,note_on,57,0,100
2,note_on,58,33,114
2,note_on,58,0,120
2,note_on,60,33,0
2,note_on,65,35,51
2,note_on,65,0,120
2,note_on,60,0,0
2,note_on,60,35,0
2,note_on,60,0,120
2,note_on,65,35,0
2,note_on,65,0,120
2,note_on,48,33,0
2,note_on,64,33,29
2,note_on,64,0,120
2,note_on,48,0,0
2,note_on,58,33,0
2,note_on,58,0,120
2,note_on,64,33,0
2,note_on,64,0,120
2,note_on,57,33,0
2,note_on,41,33,0
2,note_on,53,33,0
2,note_on,65,46,0
2,note_on,65,0,120
2,note_on,57,0,0
2,note_on,41,0,0
2,note_on,53,0,0
2,note_on,60,39,120
2,note_on,60,0,120
2,note_on,57,43,120
2,note_on,57,0,120
2,note_on,55,47,120
2,note_on,55,0,120
2,note_on,53,50,120
2,note_on,53,0,120
2,note_on,51,46,120
2,note_on,51,0,120
2,note_on,50,43,120
2,note_on,50,0,120
2,note_on,48,39,120
2,note_on,48,0,120
2,note_on,34,33,240
2,note_on,34,0,240
2,note_on,46,33,240
2,note_on,46,0,240
2,note_on,50,33,194
2,note_on,50,0,240
2,note_on,51,33,160
2,note_on,51,0,240
2,note_on,55,33,176
2,note_on,55,0,240
2,note_on,58,33,191
2,note_on,58,0,240
2,note_on,62,33,171
2,note_on,62,0,240
2,note_on,41,33,160
2,note_on,41,0,240
2,note_on,43,33,184
2,note_on,43,0,240
2,note_on,46,33,169
2,note_on,46,0,240
2,note_on,50,33,200
2,note_on,50,0,240
2,note_on,54,33,131
2,note_on,54,0,240
2,note_on,55,33,177
2,note_on,55,0,120
2,note_on,57,33,120
2,note_on,57,0,100
2,note_on,59,33,114
2,note_on,59,0,120
2,note_on,48,33,0
2,note_on,48,0,171
2,note_on,50,33,240
2,note_on,50,0,189
2,note_on,55,33,189
2,note_on,55,0,240
2,note_on,48,33,154
2,note_on,48,0,240
2,note_on,43,33,184
2,note_on,43,0,240
2,note_on,43,36,134
2,note_on,43,0,240
2,note_on,36,36,200
2,note_on,36,0,240
2,note_on,36,34,143
2,note_on,36,0,240
2,note_on,38,33,171
2,note_on,38,0,240
2,note_on,38,33,131
2,note_on,38,0,240
2,note_on,43,33,162
2,note_on,43,0,240
2,note_on,55,33,154
2,note_on,55,0,240
2,note_on,55,33,184
2,note_on,55,0,240
2,note_on,55,36,177
2,note_on,55,0,240
2,note_on,48,36,183
2,note_on,48,0,240
2,note_on,48,34,143
2,note_on,48,0,240
2,note_on,50,33,171
2,note_on,50,0,240
2,note_on,50,33,177
2,note_on,50,0,240
2,note_on,55,29,0
2,note_on,59,29,429
2,note_on,59,0,394
2,note_on,62,29,0
2,note_on,62,0,424
2,note_on,60,32,0
2,note_on,60,0,395
2,note_on,59,32,0
2,note_on,59,0,440
2,note_on,55,0,0
2,note_on,48,30,0
2,note_on,55,30,0
2,note_on,55,0,423
2,note_on,48,0,0
2,note_on,54,29,0
2,note_on,50,29,0
2,note_on,54,0,405
2,note_on,57,29,0
2,note_on,57,0,371
2,note_on,50,0,0
2,note_on,55,29,0
2,note_on,59,29,429
2,note_on,59,0,394
2,note_on,62,29,0
2,note_on,62,0,184
2,note_on,63,26,0
2,note_on,63,0,240
2,note_on,62,29,0
2,note_on,62,0,141
2,note_on,60,27,0
2,note_on,60,0,240
2,note_on,59,32,0
2,note_on,59,0,440
2,note_on,55,0,0
2,note_on,48,30,0
2,note_on,55,30,0
2,note_on,55,0,388
2,note_on,48,0,0
2,note_on,54,29,0
2,note_on,50,29,0
2,note_on,54,0,411
2,note_on,57,29,0
2,note_on,57,0,383
2,note_on,50,0,0
2,note_on,55,32,0
2,note_on,48,28,405
2,note_on,48,0,383
2,note_on,55,0,0
2,note_on,54,26,0
2,note_on,50,26,0
2,note_on,54,0,411
2,note_on,57,26,0
2,note_on,57,0,383
2,note_on,50,0,0
2,note_on,43,26,0
2,note_on,43,0,395
2,note_on,46,26,0
2,note_on,46,0,395
2,note_on,50,26,0
2,note_on,50,0,409
2,note_on,53,26,0
2,note_on,53,0,374
2,note_on,41,26,0
2,note_on,41,0,440
2,note_on,44,26,0
2,note_on,44,0,423
2,note_on,48,26,0
2,note_on,48,0,411
2,note_on,51,26,0
2,note_on,51,0,402
2,note_on,39,29,0
2,note_on,39,0,411
2,note_on,43,30,0
2,note_on,43,0,374
2,note_on,46,31,0
2,note_on,46,0,411
2,note_on,50,32,0
2,note_on,50,0,371
2,note_on,41,29,0
2,note_on,41,0,411
2,note_on,39,32,0
2,note_on,39,0,402
2,note_on,38,36,0
2,note_on,38,0,411
2,note_on,36,32,0
2,note_on,36,0,324
2,note_on,34,33,141
2,note_on,34,0,240
2,note_on,46,33,240
2,note_on,46,0,240
2,note_on,50,33,169
2,note_on,50,0,240
2,note_on,51,33,160
2,note_on,51,0,240
2,note_on,55,33,176
2,note_on,55,0,240
2,note_on,58,33,191
2,note_on,58,0,240
2,note_on,62,33,171
2,note_on,62,0,240
2,note_on,41,33,160
2,note_on,41,0,240
2,note_on,43,33,184
2,note_on,43,0,240
2,note_on,46,33,127
2,note_on,46,0,240
2,note_on,50,33,200
2,note_on,50,0,240
2,note_on,54,33,131
2,note_on,54,0,240
2,note_on,55,33,177
2,note_on,55,0,120
2,note_on,57,33,120
2,note_on,57,0,100
2,note_on,58,33,114
2,note_on,58,0,120
2,note_on,51,33,0
2,note_on,51,0,171
2,note_on,53,33,0
2,note_on,53,0,169
2,note_on,58,33,189
2,note_on,58,0,240
2,note_on,51,33,154
2,note_on,51,0,240
2,note_on,46,33,184
2,note_on,46,0,240
2,note_on,46,36,125
2,note_on,46,0,240
2,note_on,39,36,177
2,note_on,39,0,240
2,note_on,39,34,200
2,note_on,39,0,240
2,note_on,41,33,171
2,note_on,41,0,240
2,note_on,41,33,131
2,note_on,41,0,240
2,note_on,46,33,189
2,note_on,46,0,240
2,note_on,58,33,148
2,note_on,58,0,240
2,note_on,58,33,184
2,note_on,58,0,240
2,note_on,58,36,166
2,note_on,58,0,240
2,note_on,51,36,200
2,note_on,51,0,240
2,note_on,51,32,143
2,note_on,51,0,240
2,note_on,53,33,171
2,note_on,53,0,240
2,note_on,53,33,169
2,note_on,53,0,240
2,note_on,58,29,0
2,note_on,62,29,395
2,note_on,62,0,332
2,note_on,65,29,0
2,note_on,65,0,424
2,note_on,63,32,0
2,note_on,63,0,409
2,note_on,62,32,0
2,note_on,62,0,395
2,note_on,58,0,0
2,note_on,51,30,0
2,note_on,58,30,0
2,note_on,58,0,388
2,note_on,51,0,0
2,note_on,57,29,0
2,note_on,53,29,0
2,note_on,57,0,411
2,note_on,60,29,0
2,note_on,60,0,367
2,note_on,53,0,0
2,note_on,58,29,0
2,note_on,62,29,388
2,note_on,62,0,360
2,note_on,65,29,0
2,note_on,65,0,169
2,note_on,66,26,0
2,note_on,66,0,240
2,note_on,65,29,0
2,note_on,65,0,134
2,note_on,63,27,0
2,note_on,63,0,240
2,note_on,62,32,0
2,note_on,62,0,402
2,note_on,58,0,0
2,note_on,51,30,0
2,note_on,58,30,0
2,note_on,58,0,409
2,note_on,51,0,0
2,note_on,57,29,0
2,note_on,53,29,0
2,note_on,57,0,411
2,note_on,60,29,0
2,note_on,60,0,371
2,note_on,53,0,0
2,note_on,46,76,1920
2,note_on,53,76,0
2,note_on,58,92,0
2,note_on,58,0,776
2,note_on,53,0,0
2,note_on,46,0,0
2,note_on,46,66,0
2,note_on,53,66,0
2,note_on,58,77,0
2,note_on,58,0,114
2,note_on,53,0,0
2,note_on,46,0,0
2,note_on,46,70,6
2,note_on,58,84,0
2,note_on,58,0,289
2,note_on,46,0,0
2,note_on,46,67,0
2,note_on,58,80,0
2,note_on,58,0,114
2,note_on,46,0,0
2,note_on,49,70,6
2,note_on,61,84,0
2,note_on,61,0,360
2,note_on,49,0,0
2,note_on,49,66,0
2,note_on,61,77,0
2,note_on,61,0,114
2,note_on,49,0,0
2,note_on,34,70,0
2,note_on,46,84,0
2,note_on,46,0,233
2,note_on,34,0,0
2,note_on,34,66,0
2,note_on,46,77,0
2,note_on,46,0,114
2,note_on,34,0,0
2,note_on,37,66,6
2,note_on,49,79,0
2,note_on,49,0,360
2,note_on,37,0,0
2,note_on,37,61,0
2,note_on,49,73,0
2,note_on,49,0,114
2,note_on,37,0,0
2,note_on,41,66,6
2,note_on,53,79,0
2,note_on,53,0,268
2,note_on,41,0,0
2,note_on,41,61,0
2,note_on,53,73,0
2,note_on,53,0,114
2,note_on,41,0,0
2,note_on,46,66,6
2,note_on,58,79,0
2,note_on,58,0,360
2,note_on,46,0,0
2,note_on,46,59,0
2,note_on,58,71,0
2,note_on,58,0,120
2,note_on,46,0,0
2,note_on,39,70,0
2,note_on,51,84,0
2,note_on,51,0,120
2,note_on,39,0,0
2,note_on,59,63,2040
2,note_on,63,65,120
2,note_on,59,0,20
2,note_on,66,68,100
2,note_on,63,0,20
2,note_on,64,66,100
2,note_on,66,0,20
2,note_on,63,64,100
2,note_on,64,0,20
2,note_on,61,63,100
2,note_on,63,0,20
2,note_on,59,61,100
2,note_on,61,0,20
2,note_on,58,61,100
2,note_on,59,0,20
2,note_on,56,63,100
2,note_on,58,0,20
2,note_on,54,64,100
2,note_on,56,0,20
2,note_on,52,64,100
2,note_on,54,0,20
2,note_on,51,65,100
2,note_on,52,0,20
2,note_on,49,66,100
2,note_on,51,0,20
2,note_on,47,66,100
2,note_on,49,0,20
2,note_on,47,0,100
2,note_on,39,61,0
2,note_on,51,73,0
2,note_on,51,0,137
2,note_on,39,0,0
2,note_on,39,65,240
2,note_on,51,77,0
2,note_on,51,0,240
2,note_on,39,0,0
2,note_on,39,64,240
2,note_on,51,76,0
2,note_on,51,0,228
2,note_on,39,0,0
2,note_on,39,52,12
2,note_on,51,63,0
2,note_on,51,0,63
2,note_on,39,0,0
2,note_on,39,57,120
2,note_on,51,67,0
2,note_on,51,0,120
2,note_on,39,0,0
2,note_on,39,60,120
2,note_on,51,72,0
2,note_on,51,0,120
2,note_on,39,0,0
2,note_on,41,61,0
2,note_on,53,73,0
2,note_on,53,0,56
2,note_on,41,0,0
2,note_on,41,65,240
2,note_on,53,77,0
2,note_on,53,0,240
2,note_on,41,0,0
2,note_on,41,64,240
2,note_on,53,76,0
2,note_on,53,0,228
2,note_on,41,0,0
2,note_on,41,52,12
2,note_on,53,63,0
2,note_on,53,0,63
2,note_on,41,0,0
2,note_on,41,57,120
2,note_on,53,67,0
2,note_on,53,0,120
2,note_on,41,0,0
2,note_on,41,60,120
2,note_on,53,72,0
2,note_on,53,0,120
2,note_on,41,0,0
2,note_on,46,67,120
2,note_on,46,0,86
2,note_on,49,57,0
2,note_on,49,0,120
2,note_on,53,57,0
2,note_on,53,0,120
2,note_on,58,57,0
2,note_on,58,0,120
2,note_on,46,67,0
2,note_on,46,0,120
2,note_on,49,57,0
2,note_on,49,0,120
2,note_on,53,57,0
2,note_on,53,0,120
2,note_on,58,57,0
2,note_on,58,0,120
2,note_on,46,67,0
2,note_on,46,0,34
2,note_on,49,56,0
2,note_on,49,0,120
2,note_on,53,57,0
2,note_on,53,0,120
2,note_on,58,57,0
2,note_on,58,0,120
2,note_on,46,67,0
2,note_on,46,0,120
2,note_on,49,59,0
2,note_on,49,0,120
2,note_on,53,59,0
2,note_on,53,0,120
2,note_on,58,60,0
2,note_on,58,0,120
2,note_on,46,67,0
2,note_on,46,0,45
2,note_on,49,58,0
2,note_on,49,0,120
2,note_on,54,58,0
2,note_on,54,0,120
2,note_on,58,58,0
2,note_on,58,0,120
2,note_on,46,67,0
2,note_on,46,0,51
2,note_on,49,60,0
2,note_on,49,0,120
2,note_on,54,60,0
2,note_on,54,0,120
2,note_on,58,60,0
2,note_on,58,0,120
2,note_on,46,67,0
2,note_on,46,0,51
2,note_on,53,58,0
2,note_on,53,0,120
2,note_on,56,58,0
2,note_on,56,0,120
2,note_on,58,58,0
2,note_on,58,0,120
2,note_on,46,67,0
2,note_on,46,0,23
2,note_on,53,57,0
2,note_on,53,0,120
2,note_on,56,57,0
2,note_on,56,0,120
2,note_on,58,57,0
2,note_on,58,0,120
2,note_on,46,67,0
2,note_on,46,0,40
2,note_on,51,57,0
2,note_on,51,0,120
2,note_on,54,57,0
2,note_on,54,0,120
2,note_on,58,57,0
2,note_on,58,0,120
2,note_on,46,67,0
2,note_on,46,0,120
2,note_on,51,55,0
2,note_on,51,0,120
2,note_on,54,55,0
2,note_on,54,0,120
2,note_on,58,54,0
2,note_on,58,0,120
2,note_on,46,63,0
2,note_on,46,0,34
2,note_on,51,53,0
2,note_on,51,0,120
2,note_on,54,54,0
2,note_on,54,0,120
2,note_on,58,54,0
2,note_on,58,0,120
2,note_on,46,63,0
2,note_on,46,0,120
2,note_on,51,56,0
2,note_on,51,0,120
2,note_on,54,56,0
2,note_on,54,0,120
2,note_on,58,57,0
2,note_on,58,0,120
2,note_on,47,63,0
2,note_on,47,0,80
2,note_on,51,55,0
2,note_on,51,0,120
2,note_on,54,55,0
2,note_on,54,0,120
2,note_on,59,55,0
2,note_on,59,0,120
2,note_on,47,63,0
2,note_on,47,0,57
2,note_on,51,57,0
2,note_on,51,0,120
2,note_on,54,57,0
2,note_on,54,0,120
2,note_on,59,57,0
2,note_on,59,0,120
2,note_on,48,63,0
2,note_on,48,0,14
2,note_on,51,55,0
2,note_on,51,0,120
2,note_on,53,55,0
2,note_on,53,0,120
2,note_on,60,55,0
2,note_on,60,0,120
2,note_on,48,63,0
2,note_on,48,0,56
2,note_on,51,54,0
2,note_on,51,0,120
2,note_on,53,54,0
2,note_on,53,0,120
2,note_on,60,54,0
2,note_on,60,0,120
2,note_on,49,63,0
2,note_on,49,0,51
2,note_on,53,54,0
2,note_on,53,0,120
2,note_on,58,54,0
2,note_on,58,0,120
2,note_on,61,54,0
2,note_on,61,0,120
2,note_on,49,63,0
2,note_on,49,0,120
2,note_on,53,54,0
2,note_on,53,0,120
2,note_on,58,54,0
2,note_on,58,0,120
2,note_on,61,54,0
2,note_on,61,0,120
2,note_on,49,63,0
2,note_on,49,0,57
2,note_on,53,53,0
2,note_on,53,0,120
2,note_on,58,54,0
2,note_on,58,0,120
2,note_on,61,54,0
2,note_on,61,0,120
2,note_on,49,63,0
2,note_on,49,0,120
2,note_on,53,56,0
2,note_on,53,0,120
2,note_on,58,56,0
2,note_on,58,0,120
2,note_on,61,57,0
2,note_on,61,0,120
2,note_on,49,63,0
2,note_on,49,0,57
2,note_on,54,55,0
2,note_on,54,0,120
2,note_on,58,55,0
2,note_on,58,0,120
2,note_on,61,55,0
2,note_on,61,0,120
2,note_on,49,63,0
2,note_on,49,0,51
2,note_on,54,57,0
2,note_on,54,0,120
2,note_on,58,57,0
2,note_on,58,0,120
2,note_on,61,57,0
2,note_on,61,0,120
2,note_on,49,63,0
2,note_on,49,0,28
2,note_on,56,55,0
2,note_on,56,0,120
2,note_on,59,55,0
2,note_on,59,0,120
2,note_on,61,55,0
2,note_on,61,0,120
2,note_on,49,63,0
2,note_on,49,0,23
2,note_on,56,54,0
2,note_on,56,0,120
2,note_on,59,54,0
2,note_on,59,0,120
2,note_on,61,54,0
2,note_on,61,0,120
2,note_on,49,67,0
2,note_on,49,0,63
2,note_on,54,57,0
2,note_on,54,0,120
2,note_on,58,57,0
2,note_on,58,0,120
2,note_on,61,57,0
2,note_on,61,0,120
2,note_on,49,67,0
2,note_on,49,0,120
2,note_on,54,55,0
2,note_on,54,0,120
2,note_on,58,55,0
2,note_on,58,0,120
2,note_on,61,51,0
2,note_on,61,0,120
2,note_on,50,59,0
2,note_on,50,0,40
2,note_on,54,50,0
2,note_on,54,0,120
2,note_on,58,51,0
2,note_on,58,0,120
2,note_on,62,51,0
2,note_on,62,0,120
2,note_on,51,59,0
2,note_on,51,0,120
2,note_on,54,53,0
2,note_on,54,0,120
2,note_on,58,53,0
2,note_on,58,0,120
2,note_on,63,54,0
2,note_on,63,0,120
2,note_on,53,59,0
2,note_on,53,0,80
2,note_on,58,52,0
2,note_on,58,0,120
2,note_on,61,52,0
2,note_on,61,0,120
2,note_on,65,52,0
2,note_on,65,0,120
2,note_on,54,59,0
2,note_on,54,0,57
2,note_on,58,54,0
2,note_on,58,0,120
2,note_on,61,54,0
2,note_on,61,0,120
2,note_on,66,54,0
2,note_on,66,0,120
2,note_on,53,59,0
2,note_on,53,0,28
2,note_on,58,52,0
2,note_on,58,0,120
2,note_on,61,52,0
2,note_on,61,0,120
2,note_on,65,52,0
2,note_on,65,0,120
2,note_on,53,59,0
2,note_on,53,0,56
2,note_on,58,51,0
2,note_on,58,0,120
2,note_on,61,51,0
2,note_on,61,0,120
2,note_on,65,51,0
2,note_on,65,0,120
2,note_on,53,56,0
2,note_on,53,0,63
2,note_on,58,49,0
2,note_on,58,0,120
2,note_on,60,48,0
2,note_on,60,0,120
2,note_on,65,47,0
2,note_on,65,0,120
2,note_on,53,51,0
2,note_on,53,0,56
2,note_on,57,44,0
2,note_on,57,0,120
2,note_on,60,43,0
2,note_on,60,0,120
2,note_on,65,42,0
2,note_on,65,0,7
2,note_on,46,42,0
2,note_on,46,0,45
2,note_on,62,42,80
2,note_on,62,0,160
2,note_on,65,34,0
2,note_on,65,0,7
2,note_on,58,34,0
2,note_on,58,0,104
2,note_on,62,30,0
2,note_on,62,0,160
2,note_on,65,30,0
2,note_on,65,0,160
2,note_on,58,34,0
2,note_on,58,0,111
2,note_on,62,29,0
2,note_on,62,0,160
2,note_on,65,29,0
2,note_on,65,0,160
2,note_on,58,34,0
2,note_on,58,0,160
2,note_on,62,30,0
2,note_on,62,0,160
2,note_on,65,30,0
2,note_on,65,0,160
2,note_on,58,34,0
2,note_on,58,0,91
2,note_on,62,30,0
2,note_on,62,0,160
2,note_on,65,30,0
2,note_on,65,0,160
2,note_on,56,34,0
2,note_on,56,0,91
2,note_on,62,30,0
2,note_on,62,0,160
2,note_on,65,30,0
2,note_on,65,0,160
2,note_on,55,34,0
2,note_on,55,0,82
2,note_on,63,29,0
2,note_on,63,0,160
2,note_on,65,29,0
2,note_on,65,0,160
2,note_on,57,34,0
2,note_on,57,0,82
2,note_on,63,30,0
2,note_on,63,0,160
2,note_on,65,30,0
2,note_on,65,0,160
2,note_on,58,34,0
2,note_on,58,0,68
2,note_on,62,31,0
2,note_on,62,0,160
2,note_on,65,31,0
2,note_on,65,0,160
2,note_on,58,34,0
2,note_on,58,0,82
2,note_on,62,30,0
2,note_on,62,0,160
2,note_on,65,30,0
2,note_on,65,0,160
2,note_on,58,34,0
2,note_on,58,0,54
2,note_on,62,29,0
2,note_on,62,0,160
2,note_on,65,29,0
2,note_on,65,0,160
2,note_on,57,34,0
2,note_on,57,0,68
2,note_on,60,30,0
2,note_on,60,0,160
2,note_on,65,30,0
2,note_on,65,0,160
2,note_on,55,34,0
2,note_on,55,0,103
2,note_on,58,30,0
2,note_on,58,0,160
2,note_on,62,30,0
2,note_on,62,0,160
2,note_on,55,34,0
2,note_on,55,0,114
2,note_on,58,30,0
2,note_on,58,0,160
2,note_on,64,30,0
2,note_on,64,0,160
2,note_on,53,34,0
2,note_on,53,0,126
2,note_on,58,29,0
2,note_on,58,0,160
2,note_on,65,29,0
2,note_on,65,0,160
2,note_on,53,34,0
2,note_on,53,0,114
2,note_on,57,30,0
2,note_on,57,0,160
2,note_on,65,30,0
2,note_on,65,0,160
2,note_on,46,34,0
2,note_on,46,0,9
2,note_on,62,31,80
2,note_on,62,0,160
2,note_on,65,31,0
2,note_on,65,0,160
2,note_on,58,34,0
2,note_on,58,0,104
2,note_on,62,30,0
2,note_on,62,0,160
2,note_on,65,30,0
2,note_on,65,0,160
2,note_on,58,34,0
2,note_on,58,0,75
2,note_on,62,29,0
2,note_on,62,0,160
2,note_on,65,29,0
2,note_on,65,0,160
2,note_on,58,34,0
2,note_on,58,0,160
2,note_on,62,30,0
2,note_on,62,0,160
2,note_on,65,30,0
2,note_on,65,0,160
2,note_on,58,34,0
2,note_on,58,0,120
2,note_on,62,30,0
2,note_on,62,0,160
2,note_on,65,30,0
2,note_on,65,0,160
2,note_on,56,34,0
2,note_on,56,0,74
2,note_on,62,30,0
2,note_on,62,0,160
2,note_on,65,30,0
2,note_on,65,0,160
2,note_on,55,34,0
2,note_on,55,0,89
2,note_on,63,29,0
2,note_on,63,0,160
2,note_on,65,29,0
2,note_on,65,0,160
2,note_on,57,34,0
2,note_on,57,0,68
2,note_on,63,30,0
2,note_on,63,0,160
2,note_on,65,30,0
2,note_on,65,0,160
2,note_on,58,34,0
2,note_on,58,0,89
2,note_on,62,31,0
2,note_on,62,0,160
2,note_on,65,31,0
2,note_on,65,0,160
2,note_on,58,34,0
2,note_on,58,0,82
2,note_on,62,30,0
2,note_on,62,0,160
2,note_on,65,30,0
2,note_on,65,0,160
2,note_on,58,34,0
2,note_on,58,0,100
2,note_on,62,29,0
2,note_on,62,0,160
2,note_on,65,29,0
2,note_on,65,0,160
2,note_on,57,34,0
2,note_on,57,0,61
2,note_on,60,30,0
2,note_on,60,0,160
2,note_on,65,30,0
2,note_on,65,0,160
2,note_on,55,34,0
2,note_on,55,0,85
2,note_on,58,30,0
2,note_on,58,0,160
2,note_on,62,30,0
2,note_on,62,0,160
2,note_on,55,34,0
2,note_on,55,0,47
2,note_on,58,30,0
2,note_on,58,0,160
2,note_on,64,30,0
2,note_on,64,0,160
2,note_on,53,34,0
2,note_on,53,0,75
2,note_on,58,29,0
2,note_on,58,0,160
2,note_on,65,29,0
2,note_on,65,0,160
2,note_on,53,34,0
2,note_on,53,0,61
2,note_on,57,30,0
2,note_on,57,0,160
2,note_on,65,30,0
2,note_on,65,0,160
2,note_on,46,34,0
2,note_on,46,0,9
2,note_on,62,31,80
2,note_on,62,0,160
2,note_on,65,31,0
2,note_on,65,0,160
2,note_on,58,34,0
2,note_on,58,0,82
2,note_on,62,30,0
2,note_on,62,0,160
2,note_on,65,30,0
2,note_on,65,0,160
2,note_on,58,34,0
2,note_on,58,0,54
2,note_on,62,29,0
2,note_on,62,0,160
2,note_on,65,29,0
2,note_on,65,0,160
2,note_on,59,34,0
2,note_on,59,0,80
2,note_on,62,30,0
2,note_on,62,0,160
2,note_on,65,30,0
2,note_on,65,0,160
2,note_on,58,34,0
2,note_on,58,0,91
2,note_on,62,30,0
2,note_on,62,0,160
2,note_on,65,30,0
2,note_on,65,0,160
2,note_on,59,34,0
2,note_on,59,0,114
2,note_on,62,30,0
2,note_on,62,0,160
2,note_on,65,30,0
2,note_on,65,0,160
2,note_on,58,34,0
2,note_on,58,0,126
2,note_on,62,29,0
2,note_on,62,0,160
2,note_on,65,29,0
2,note_on,65,0,160
2,note_on,56,34,0
2,note_on,56,0,114
2,note_on,60,30,0
2,note_on,60,0,160
2,note_on,66,30,0
2,note_on,66,0,160
2,note_on,55,34,0
2,note_on,55,0,74
2,note_on,59,28,0
2,note_on,59,0,160
2,note_on,67,28,0
2,note_on,67,0,160
2,note_on,55,33,0
2,note_on,55,0,80
2,note_on,60,28,0
2,note_on,60,0,160
2,note_on,63,28,0
2,note_on,63,0,160
2,note_on,55,31,0
2,note_on,55,0,91
2,note_on,59,26,0
2,note_on,59,0,160
2,note_on,62,26,0
2,note_on,62,0,160
2,note_on,55,30,0
2,note_on,55,0,63
2,note_on,60,26,0
2,note_on,60,0,160
2,note_on,63,26,0
2,note_on,63,0,160
2,note_on,55,29,0
2,note_on,55,0,91
2,note_on,59,27,0
2,note_on,59,0,160
2,note_on,62,28,0
2,note_on,62,0,160
2,note_on,55,34,0
2,note_on,55,0,68
2,note_on,60,30,0
2,note_on,60,0,160
2,note_on,63,30,0
2,note_on,63,0,51
2,note_on,55,34,0
2,note_on,55,0,160
2,note_on,59,31,0
2,note_on,59,0,160
2,note_on,62,31,0
2,note_on,62,0,160
2,note_on,55,34,0
2,note_on,55,0,40
2,note_on,60,31,0
2,note_on,60,0,160
2,note_on,63,31,0
2,note_on,63,0,160
2,note_on,55,34,0
2,note_on,55,0,104
2,note_on,59,30,0
2,note_on,59,0,160
2,note_on,62,30,0
2,note_on,62,0,160
2,note_on,55,34,0
2,note_on,55,0,114
2,note_on,60,30,0
2,note_on,60,0,160
2,note_on,63,30,0
2,note_on,63,0,51
2,note_on,55,34,0
2,note_on,55,0,160
2,note_on,59,31,0
2,note_on,59,0,160
2,note_on,62,31,0
2,note_on,62,0,160
2,note_on,55,34,0
2,note_on,55,0,40
2,note_on,60,31,0
2,note_on,60,0,160
2,note_on,63,31,0
2,note_on,63,0,160
2,note_on,55,34,0
2,note_on,55,0,104
2,note_on,59,30,0
2,note_on,59,0,160
2,note_on,62,30,0
2,note_on,62,0,160
2,note_on,55,34,0
2,note_on,55,0,114
2,note_on,60,30,0
2,note_on,60,0,160
2,note_on,63,30,0
2,note_on,63,0,51
2,note_on,55,34,0
2,note_on,55,0,160
2,note_on,59,31,0
2,note_on,59,0,160
2,note_on,62,31,0
2,note_on,62,0,160
2,note_on,55,34,0
2,note_on,55,0,40
2,note_on,60,31,0
2,note_on,60,0,160
2,note_on,63,31,0
2,note_on,63,0,160
2,note_on,55,34,0
2,note_on,55,0,104
2,note_on,59,30,0
2,note_on,59,0,160
2,note_on,62,30,0
2,note_on,62,0,160
2,note_on,55,34,0
2,note_on,55,0,80
2,note_on,60,30,0
2,note_on,60,0,160
2,note_on,63,30,0
2,note_on,63,0,51
2,note_on,55,34,0
2,note_on,55,0,160
2,note_on,59,31,0
2,note_on,59,0,160
2,note_on,62,31,0
2,note_on,62,0,160
2,note_on,55,34,0
2,note_on,55,0,40
2,note_on,60,31,0
2,note_on,60,0,160
2,note_on,63,31,0
2,note_on,63,0,160
2,note_on,55,34,0
2,note_on,55,0,160
2,note_on,59,31,0
2,note_on,59,0,160
2,note_on,62,31,0
2,note_on,62,0,160
2,note_on,55,34,0
2,note_on,55,0,40
2,note_on,60,31,0
2,note_on,60,0,160
2,note_on,63,31,0
2,note_on,63,0,160
2,note_on,62,34,0
2,note_on,59,34,0
2,note_on,55,34,0
2,note_on,55,0,240
2,note_on,59,0,0
2,note_on,62,0,0
2,note_on,67,94,240
2,note_on,55,78,0
2,note_on,55,0,1440
2,note_on,67,0,0
2,note_on,55,37,0
2,note_on,55,0,240
2,note_on,67,28,0
2,note_on,67,0,120
2,note_on,65,28,120
2,note_on,62,23,0
2,note_on,62,0,120
2,note_on,65,0,0
2,note_on,67,28,120
2,note_on,67,0,120
2,note_on,55,38,120
2,note_on,55,0,240
2,note_on,67,25,0
2,note_on,67,0,120
2,note_on,60,26,120
2,note_on,63,31,0
2,note_on,63,0,120
2,note_on,60,0,0
2,note_on,67,28,120
2,note_on,67,0,240
2,note_on,55,37,0
2,note_on,55,0,240
2,note_on,67,28,0
2,note_on,67,0,120
2,note_on,65,28,120
2,note_on,62,23,0
2,note_on,62,0,120
2,note_on,65,0,0
2,note_on,67,26,120
2,note_on,67,0,120
2,note_on,55,38,120
2,note_on,55,0,240
2,note_on,67,28,0
2,note_on,67,0,120
2,note_on,60,26,120
2,note_on,63,31,0
2,note_on,63,0,120
2,note_on,60,0,0
2,note_on,67,31,120
2,note_on,67,0,120
2,note_on,66,67,120
2,note_on,54,55,0
2,note_on,54,0,1920
2,note_on,66,0,0
2,note_on,54,37,0
2,note_on,54,0,240
2,note_on,66,27,0
2,note_on,66,0,120
2,note_on,63,27,120
2,note_on,56,22,0
2,note_on,56,0,120
2,note_on,63,0,0
2,note_on,66,28,120
2,note_on,66,0,120
2,note_on,54,37,120
2,note_on,54,0,240
2,note_on,66,24,0
2,note_on,66,0,120
2,note_on,57,24,120
2,note_on,63,29,0
2,note_on,63,0,120
2,note_on,57,0,0
2,note_on,66,27,120
2,note_on,66,0,240
2,note_on,54,35,0
2,note_on,54,0,240
2,note_on,66,26,0
2,note_on,66,0,120
2,note_on,63,25,120
2,note_on,56,21,0
2,note_on,56,0,120
2,note_on,63,0,0
2,note_on,66,24,120
2,note_on,66,0,120
2,note_on,54,36,120
2,note_on,54,0,240
2,note_on,66,26,0
2,note_on,66,0,120
2,note_on,57,23,120
2,note_on,63,28,0
2,note_on,63,0,120
2,note_on,57,0,0
2,note_on,66,28,120
2,note_on,66,0,120
2,note_on,65,59,120
2,note_on,53,50,0
2,note_on,53,0,1920
2,note_on,65,0,0
2,note_on,53,35,0
2,note_on,53,0,240
2,note_on,65,29,0
2,note_on,65,0,120
2,note_on,62,29,120
2,note_on,56,24,0
2,note_on,56,0,120
2,note_on,62,0,0
2,note_on,65,30,120
2,note_on,65,0,120
2,note_on,53,36,120
2,note_on,53,0,240
2,note_on,65,23,0
2,note_on,65,0,120
2,note_on,57,24,120
2,note_on,63,29,0
2,note_on,63,0,120
2,note_on,57,0,0
2,note_on,65,27,120
2,note_on,65,0,240
2,note_on,53,35,0
2,note_on,53,0,240
2,note_on,65,29,0
2,note_on,65,0,120
2,note_on,62,29,120
2,note_on,56,24,0
2,note_on,56,0,120
2,note_on,62,0,0
2,note_on,65,28,120
2,note_on,65,0,120
2,note_on,53,36,120
2,note_on,53,0,240
2,note_on,65,27,0
2,note_on,65,0,120
2,note_on,57,29,0
2,note_on,63,35,0
2,note_on,63,0,240
2,note_on,57,0,0
2,note_on,65,35,0
2,note_on,65,0,240
2,note_on,53,44,0
2,note_on,53,0,127
2,note_on,65,33,0
2,note_on,65,0,240
2,note_on,62,35,0
2,note_on,58,35,0
2,note_on,58,0,240
2,note_on,62,0,0
2,note_on,65,33,0
2,note_on,65,0,240
2,note_on,53,37,0
2,note_on,53,0,184
2,note_on,65,33,0
2,note_on,65,0,7
2,note_on,57,29,0
2,note_on,63,35,0
2,note_on,63,0,240
2,note_on,57,0,0
2,note_on,65,35,0
2,note_on,65,0,240
2,note_on,53,44,0
2,note_on,53,0,127
2,note_on,65,33,0
2,note_on,65,0,240
2,note_on,62,35,0
2,note_on,58,35,0
2,note_on,58,0,240
2,note_on,62,0,0
2,note_on,65,33,0
2,note_on,65,0,240
2,note_on,53,37,0
2,note_on,53,0,137
2,note_on,65,33,0
2,note_on,65,0,240
2,note_on,63,33,0
2,note_on,57,33,0
2,note_on,57,0,125
2,note_on,63,0,0
2,note_on,65,33,0
2,note_on,65,0,240
2,note_on,66,71,720
2,note_on,54,59,0
2,note_on,54,0,240
2,note_on,66,0,0
2,note_on,55,64,0
2,note_on,67,76,0
2,note_on,67,0,395
2,note_on,55,0,0
2,note_on,50,55,0
2,note_on,62,66,0
2,note_on,62,0,437
2,note_on,50,0,0
2,note_on,51,65,0
2,note_on,63,77,0
2,note_on,63,0,424
2,note_on,51,0,0
2,note_on,45,55,0
2,note_on,57,67,0
2,note_on,57,0,85
2,note_on,45,0,0
2,note_on,45,55,120
2,note_on,57,67,0
2,note_on,57,0,120
2,note_on,45,0,0
2,note_on,46,64,120
2,note_on,58,76,0
2,note_on,58,0,409
2,note_on,46,0,0
2,note_on,42,55,0
2,note_on,54,67,0
2,note_on,54,0,459
2,note_on,42,0,0
2,note_on,43,64,0
2,note_on,55,76,0
2,note_on,55,0,409
2,note_on,43,0,0
2,note_on,38,55,0
2,note_on,50,67,0
2,note_on,50,0,77
2,note_on,38,0,0
2,note_on,38,55,120
2,note_on,50,67,0
2,note_on,50,0,120
2,note_on,38,0,0
2,note_on,39,64,120
2,note_on,51,76,0
2,note_on,51,0,409
2,note_on,39,0,0
2,note_on,48,67,0
2,note_on,48,0,56
2,note_on,50,67,120
2,note_on,50,0,120
2,note_on,39,64,120
2,note_on,51,76,0
2,note_on,51,0,409
2,note_on,39,0,0
2,note_on,48,67,0
2,note_on,48,0,56
2,note_on,50,67,120
2,note_on,50,0,120
2,note_on,39,64,120
2,note_on,51,76,0
2,note_on,51,0,409
2,note_on,39,0,0
2,note_on,48,67,0
2,note_on,48,0,56
2,note_on,50,67,120
2,note_on,50,0,120
2,note_on,39,64,120
2,note_on,51,76,0
2,note_on,51,0,169
2,note_on,39,0,0
2,note_on,51,67,0
2,note_on,51,0,120
2,note_on,48,67,120
2,note_on,48,0,56
2,note_on,50,67,120
2,note_on,50,0,120
2,note_on,51,70,120
2,note_on,55,70,0
2,note_on,58,70,0
2,note_on,63,82,0
2,note_on,63,0,320
2,note_on,51,0,0
2,note_on,55,0,0
2,note_on,58,0,0
2,note_on,41,70,0
2,note_on,48,70,0
2,note_on,53,82,0
2,note_on,53,0,480
2,note_on,48,0,0
2,note_on,41,0,0
2,note_on,34,82,0
2,note_on,34,0,160
2,note_on,41,52,0
2,note_on,41,0,160
2,note_on,46,52,0
2,note_on,46,0,160
2,note_on,34,49,0
2,note_on,34,0,75
2,note_on,41,45,0
2,note_on,41,0,160
2,note_on,46,45,0
2,note_on,46,0,160
2,note_on,34,50,0
2,note_on,34,0,104
2,note_on,41,45,0
2,note_on,41,0,160
2,note_on,46,45,0
2,note_on,46,0,160
2,note_on,34,49,0
2,note_on,34,0,40
2,note_on,41,45,0
2,note_on,41,0,160
2,note_on,46,45,0
2,note_on,46,0,160
2,note_on,34,49,0
2,note_on,34,0,104
2,note_on,41,45,0
2,note_on,41,0,160
2,note_on,46,45,0
2,note_on,46,0,160
2,note_on,34,48,0
2,note_on,34,0,47
2,note_on,41,45,0
2,note_on,41,0,160
2,note_on,46,45,0
2,note_on,46,0,160
2,note_on,34,49,0
2,note_on,34,0,86
2,note_on,41,45,0
2,note_on,41,0,160
2,note_on,46,45,0
2,note_on,46,0,160
2,note_on,34,49,0
2,note_on,34,0,80
2,note_on,41,45,0
2,note_on,41,0,160
2,note_on,46,45,0
2,note_on,46,0,160
2,note_on,34,48,0
2,note_on,34,0,61
2,note_on,41,45,0
2,note_on,41,0,160
2,note_on,46,45,0
2,note_on,46,0,160
2,note_on,34,50,0
2,note_on,34,0,75
2,note_on,41,45,0
2,note_on,41,0,160
2,note_on,46,45,0
2,note_on,46,0,160
2,note_on,34,49,0
2,note_on,34,0,89
2,note_on,41,45,0
2,note_on,41,0,160
2,note_on,46,45,0
2,note_on,46,0,160
2,note_on,34,50,0
2,note_on,34,0,82
2,note_on,41,46,0
2,note_on,41,0,160
2,note_on,46,46,0
2,note_on,46,0,160
2,note_on,34,50,0
2,note_on,34,0,89
2,note_on,41,47,0
2,note_on,41,0,160
2,note_on,46,47,0
2,note_on,46,0,160
2,note_on,34,53,0
2,note_on,34,0,82
2,note_on,41,48,0
2,note_on,41,0,160
2,note_on,46,48,0
2,note_on,46,0,160
2,note_on,34,52,0
2,note_on,34,0,89
2,note_on,41,49,0
2,note_on,41,0,160
2,note_on,46,49,0
2,note_on,46,0,160
2,note_on,34,55,0
2,note_on,34,0,82
2,note_on,41,50,0
2,note_on,41,0,160
2,note_on,46,50,0
2,note_on,46,0,160
2,note_on,34,55,0
2,note_on,34,0,89
2,note_on,41,51,0
2,note_on,41,0,160
2,note_on,46,51,0
2,note_on,46,0,160
2,note_on,34,57,0
2,note_on,34,0,54
2,note_on,41,52,0
2,note_on,41,0,160
2,note_on,46,52,0
2,note_on,46,0,160
2,note_on,34,55,0
2,note_on,34,0,89
2,note_on,41,51,0
2,note_on,41,0,160
2,note_on,46,51,0
2,note_on,46,0,160
2,note_on,34,58,0
2,note_on,34,0,5
2,note_on,41,54,0
2,note_on,41,0,160
2,note_on,46,54,0
2,note_on,46,0,160
2,note_on,34,64,0
2,note_on,34,0,89
2,note_on,41,56,0
2,note_on,41,0,160
2,note_on,46,56,0
2,note_on,46,0,160
2,note_on,34,69,0
2,note_on,34,0,5
2,note_on,41,60,0
2,note_on,41,0,160
2,note_on,46,60,0
2,note_on,46,0,160
2,note_on,34,74,0
2,note_on,34,0,89
2,note_on,41,65,0
2,note_on,41,0,160
2,note_on,46,66,0
2,note_on,46,0,160
2,note_on,34,75,0
2,note_on,34,0,5
2,note_on,41,66,0
2,note_on,41,0,160
2,note_on,46,66,0
2,note_on,46,0,160
2,note_on,34,85,0
2,note_on,34,0,293
2,note_on,46,66,160
2,note_on,50,66,0
2,note_on,53,66,0
2,note_on,58,77,0
2,note_on,58,0,400
2,note_on,46,0,0
2,note_on,50,0,0
2,note_on,53,0,0
2,note_on,34,70,320
2,note_on,46,81,0
2,note_on,46,0,373
2,note_on,34,0,0
