Track,Message Type,Note,Velocity,Time
1,note_on,52,74,0
1,note_on,55,74,0
1,note_on,60,74,0
1,note_on,64,88,0
1,note_on,64,0,480
1,note_on,52,0,0
1,note_on,55,0,0
1,note_on,60,0,0
1,note_on,52,70,0
1,note_on,55,70,0
1,note_on,60,70,0
1,note_on,64,83,0
1,note_on,64,0,120
1,note_on,52,0,0
1,note_on,55,0,0
1,note_on,60,0,0
1,note_on,52,70,120
1,note_on,55,70,0
1,note_on,60,70,0
1,note_on,64,83,0
1,note_on,64,0,120
1,note_on,52,0,0
1,note_on,55,0,0
1,note_on,60,0,0
1,note_on,52,74,120
1,note_on,55,74,0
1,note_on,60,74,0
1,note_on,64,88,0
1,note_on,64,0,480
1,note_on,52,0,0
1,note_on,55,0,0
1,note_on,60,0,0
1,note_on,52,69,0
1,note_on,55,69,0
1,note_on,60,69,0
1,note_on,64,82,0
1,note_on,64,0,120
1,note_on,52,0,0
1,note_on,55,0,0
1,note_on,60,0,0
1,note_on,52,69,120
1,note_on,55,69,0
1,note_on,60,69,0
1,note_on,64,82,0
1,note_on,64,0,120
1,note_on,52,0,0
1,note_on,55,0,0
1,note_on,60,0,0
1,note_on,52,74,120
1,note_on,55,74,0
1,note_on,60,74,0
1,note_on,64,88,0
1,note_on,64,0,240
1,note_on,52,0,0
1,note_on,55,0,0
1,note_on,60,0,0
1,note_on,48,79,0
1,note_on,48,0,120
1,note_on,52,81,0
1,note_on,52,0,120
1,note_on,55,83,0
1,note_on,55,0,120
1,note_on,60,85,0
1,note_on,60,0,120
1,note_on,64,89,0
1,note_on,64,0,120
1,note_on,67,91,0
1,note_on,67,0,120
1,note_on,59,88,0
1,note_on,71,88,0
1,note_on,71,0,480
1,note_on,59,0,0
1,note_on,60,70,0
1,note_on,72,84,0
1,note_on,72,0,120
1,note_on,60,0,0
1,note_on,60,70,120
1,note_on,72,84,0
1,note_on,72,0,120
1,note_on,60,0,0
1,note_on,65,76,120
1,note_on,67,76,0
1,note_on,71,91,0
1,note_on,73,91,0
1,note_on,73,0,240
1,note_on,65,0,0
1,note_on,67,0,0
1,note_on,71,0,0
1,note_on,67,71,240
1,note_on,65,71,0
1,note_on,71,85,0
1,note_on,74,85,0
1,note_on,74,0,240
1,note_on,67,0,0
1,note_on,65,0,0
1,note_on,71,0,0
1,note_on,53,64,1200
1,note_on,55,64,0
1,note_on,59,64,0
1,note_on,62,76,0
1,note_on,62,0,480
1,note_on,53,0,0
1,note_on,55,0,0
1,note_on,59,0,0
1,note_on,53,60,0
1,note_on,55,60,0
1,note_on,59,60,0
1,note_on,62,72,0
1,note_on,62,0,120
1,note_on,53,0,0
1,note_on,55,0,0
1,note_on,59,0,0
1,note_on,53,60,120
1,note_on,55,60,0
1,note_on,59,60,0
1,note_on,62,72,0
1,note_on,62,0,120
1,note_on,53,0,0
1,note_on,55,0,0
1,note_on,59,0,0
1,note_on,53,64,120
1,note_on,55,64,0
1,note_on,59,64,0
1,note_on,62,76,0
1,note_on,62,0,480
1,note_on,53,0,0
1,note_on,55,0,0
1,note_on,59,0,0
1,note_on,53,59,0
1,note_on,55,59,0
1,note_on,59,59,0
1,note_on,62,71,0
1,note_on,62,0,120
1,note_on,53,0,0
1,note_on,55,0,0
1,note_on,59,0,0
1,note_on,53,59,120
1,note_on,55,59,0
1,note_on,59,59,0
1,note_on,62,71,0
1,note_on,62,0,120
1,note_on,53,0,0
1,note_on,55,0,0
1,note_on,59,0,0
1,note_on,53,64,120
1,note_on,55,64,0
1,note_on,59,64,0
1,note_on,62,76,0
1,note_on,62,0,240
1,note_on,53,0,0
1,note_on,55,0,0
1,note_on,59,0,0
1,note_on,55,68,0
1,note_on,55,0,120
1,note_on,59,70,0
1,note_on,59,0,120
1,note_on,62,72,0
1,note_on,62,0,120
1,note_on,65,74,0
1,note_on,65,0,120
1,note_on,67,76,0
1,note_on,67,0,120
1,note_on,71,78,0
1,note_on,71,0,120
1,note_on,61,88,0
1,note_on,73,88,0
1,note_on,73,0,480
1,note_on,61,0,0
1,note_on,62,70,0
1,note_on,74,83,0
1,note_on,74,0,120
1,note_on,62,0,0
1,note_on,62,70,120
1,note_on,74,83,0
1,note_on,74,0,120
1,note_on,62,0,0
1,note_on,63,77,120
1,note_on,67,77,0
1,note_on,72,91,0
1,note_on,75,91,0
1,note_on,75,0,240
1,note_on,63,0,0
1,note_on,67,0,0
1,note_on,72,0,0
1,note_on,67,71,240
1,note_on,64,71,0
1,note_on,72,84,0
1,note_on,76,84,0
1,note_on,76,0,240
1,note_on,67,0,0
1,note_on,64,0,0
1,note_on,72,0,0
1,note_on,55,64,480
1,note_on,55,0,120
1,note_on,60,66,0
1,note_on,60,0,120
1,note_on,64,68,0
1,note_on,64,0,120
1,note_on,67,70,0
1,note_on,67,0,120
1,note_on,72,72,0
1,note_on,72,0,120
1,note_on,76,74,0
1,note_on,76,0,120
1,note_on,67,66,0
1,note_on,76,66,0
1,note_on,79,78,0
1,note_on,79,0,480
1,note_on,76,0,0
1,note_on,67,0,0
1,note_on,67,58,0
1,note_on,76,58,0
1,note_on,79,70,0
1,note_on,79,0,228
1,note_on,76,0,0
1,note_on,67,0,0
1,note_on,67,58,12
1,note_on,76,58,0
1,note_on,79,70,0
1,note_on,79,0,228
1,note_on,76,0,0
1,note_on,67,0,0
1,note_on,67,65,12
1,note_on,74,65,0
1,note_on,79,78,0
1,note_on,79,0,720
1,note_on,74,0,0
1,note_on,67,0,0
1,note_on,67,67,0
1,note_on,74,67,0
1,note_on,79,80,0
1,note_on,79,0,240
1,note_on,74,0,0
1,note_on,67,0,0
1,note_on,72,74,0
1,note_on,79,74,0
1,note_on,84,88,0
1,note_on,84,0,475
1,note_on,79,0,0
1,note_on,72,0,0
1,note_on,72,63,5
1,note_on,78,63,0
1,note_on,84,75,0
1,note_on,84,0,228
1,note_on,78,0,0
1,note_on,72,0,0
1,note_on,72,61,12
1,note_on,78,61,0
1,note_on,84,73,0
1,note_on,84,0,228
1,note_on,78,0,0
1,note_on,72,0,0
1,note_on,71,64,12
1,note_on,79,64,0
1,note_on,83,76,0
1,note_on,83,0,240
1,note_on,79,0,0
1,note_on,71,0,0
1,note_on,55,64,0
1,note_on,55,0,120
1,note_on,60,66,0
1,note_on,60,0,120
1,note_on,64,68,0
1,note_on,64,0,120
1,note_on,67,70,0
1,note_on,67,0,120
1,note_on,72,72,0
1,note_on,72,0,120
1,note_on,76,74,0
1,note_on,76,0,120
1,note_on,67,66,0
1,note_on,76,66,0
1,note_on,79,78,0
1,note_on,79,0,475
1,note_on,76,0,0
1,note_on,67,0,0
1,note_on,67,58,5
1,note_on,76,58,0
1,note_on,79,70,0
1,note_on,79,0,240
1,note_on,76,0,0
1,note_on,67,0,0
1,note_on,67,58,0
1,note_on,76,58,0
1,note_on,79,70,0
1,note_on,79,0,240
1,note_on,76,0,0
1,note_on,67,0,0
1,note_on,67,65,0
1,note_on,74,65,0
1,note_on,79,78,0
1,note_on,79,0,720
1,note_on,74,0,0
1,note_on,67,0,0
1,note_on,67,67,0
1,note_on,74,67,0
1,note_on,79,80,0
1,note_on,79,0,240
1,note_on,74,0,0
1,note_on,67,0,0
1,note_on,72,74,0
1,note_on,79,74,0
1,note_on,84,88,0
1,note_on,84,0,475
1,note_on,79,0,0
1,note_on,72,0,0
1,note_on,72,63,5
1,note_on,78,63,0
1,note_on,84,75,0
1,note_on,84,0,228
1,note_on,78,0,0
1,note_on,72,0,0
1,note_on,72,61,12
1,note_on,78,61,0
1,note_on,84,73,0
1,note_on,84,0,228
1,note_on,78,0,0
1,note_on,72,0,0
1,note_on,71,64,12
1,note_on,79,64,0
1,note_on,83,76,0
1,note_on,83,0,240
1,note_on,79,0,0
1,note_on,71,0,0
1,note_on,60,64,0
1,note_on,60,0,120
1,note_on,65,66,0
1,note_on,65,0,120
1,note_on,69,68,0
1,note_on,69,0,120
1,note_on,72,70,0
1,note_on,72,0,120
1,note_on,77,72,0
1,note_on,77,0,120
1,note_on,81,74,0
1,note_on,81,0,120
1,note_on,72,72,0
1,note_on,81,72,0
1,note_on,84,85,0
1,note_on,84,0,475
1,note_on,81,0,0
1,note_on,72,0,0
1,note_on,72,63,5
1,note_on,81,63,0
1,note_on,84,77,0
1,note_on,84,0,228
1,note_on,81,0,0
1,note_on,72,0,0
1,note_on,72,63,12
1,note_on,81,63,0
1,note_on,84,77,0
1,note_on,84,0,228
1,note_on,81,0,0
1,note_on,72,0,0
1,note_on,72,71,12
1,note_on,79,71,0
1,note_on,84,85,0
1,note_on,84,0,720
1,note_on,79,0,0
1,note_on,72,0,0
1,note_on,72,73,0
1,note_on,79,73,0
1,note_on,84,88,0
1,note_on,84,0,240
1,note_on,79,0,0
1,note_on,72,0,0
1,note_on,77,81,0
1,note_on,84,81,0
1,note_on,89,96,0
1,note_on,89,0,475
1,note_on,84,0,0
1,note_on,77,0,0
1,note_on,77,75,5
1,note_on,83,75,0
1,note_on,89,90,0
1,note_on,89,0,228
1,note_on,83,0,0
1,note_on,77,0,0
1,note_on,77,73,12
1,note_on,83,73,0
1,note_on,89,88,0
1,note_on,89,0,228
1,note_on,83,0,0
1,note_on,77,0,0
1,note_on,76,76,12
1,note_on,83,76,0
1,note_on,88,92,0
1,note_on,88,0,475
1,note_on,83,0,0
1,note_on,76,0,0
1,note_on,88,88,5
1,note_on,81,73,0
1,note_on,76,73,0
1,note_on,76,0,475
1,note_on,81,0,0
1,note_on,88,0,0
1,note_on,74,81,5
1,note_on,81,81,0
1,note_on,86,95,0
1,note_on,86,0,480
1,note_on,81,0,0
1,note_on,74,0,0
1,note_on,74,74,0
1,note_on,80,74,0
1,note_on,86,88,0
1,note_on,86,0,228
1,note_on,80,0,0
1,note_on,74,0,0
1,note_on,74,71,12
1,note_on,80,71,0
1,note_on,86,85,0
1,note_on,86,0,228
1,note_on,80,0,0
1,note_on,74,0,0
1,note_on,72,74,12
1,note_on,81,74,0
1,note_on,84,89,0
1,note_on,84,0,480
1,note_on,81,0,0
1,note_on,72,0,0
1,note_on,81,67,0
1,note_on,72,56,0
1,note_on,69,56,0
1,note_on,69,0,480
1,note_on,72,0,0
1,note_on,81,0,0
1,note_on,69,35,0
1,note_on,76,42,0
1,note_on,76,0,120
1,note_on,69,0,0
1,note_on,81,44,0
1,note_on,81,0,120
1,note_on,69,38,0
1,note_on,76,45,0
1,note_on,76,0,120
1,note_on,69,0,0
1,note_on,81,47,0
1,note_on,81,0,120
1,note_on,69,41,0
1,note_on,76,49,0
1,note_on,76,0,120
1,note_on,69,0,0
1,note_on,81,51,0
1,note_on,81,0,120
1,note_on,69,45,0
1,note_on,76,53,0
1,note_on,76,0,120
1,note_on,69,0,0
1,note_on,81,54,0
1,note_on,81,0,120
1,note_on,69,47,0
1,note_on,76,56,0
1,note_on,76,0,120
1,note_on,69,0,0
1,note_on,81,58,0
1,note_on,81,0,120
1,note_on,69,51,0
1,note_on,76,60,0
1,note_on,76,0,120
1,note_on,69,0,0
1,note_on,81,62,0
1,note_on,81,0,120
1,note_on,69,53,0
1,note_on,76,63,0
1,note_on,76,0,120
1,note_on,69,0,0
1,note_on,81,65,0
1,note_on,81,0,120
1,note_on,69,56,0
1,note_on,76,67,0
1,note_on,76,0,120
1,note_on,69,0,0
1,note_on,81,69,0
1,note_on,81,0,120
1,note_on,69,62,0
1,note_on,75,73,0
1,note_on,75,0,120
1,note_on,69,0,0
1,note_on,81,74,0
1,note_on,81,0,120
1,note_on,69,63,0
1,note_on,75,75,0
1,note_on,75,0,120
1,note_on,69,0,0
1,note_on,81,76,0
1,note_on,81,0,120
1,note_on,69,66,0
1,note_on,75,78,0
1,note_on,75,0,120
1,note_on,69,0,0
1,note_on,81,80,0
1,note_on,81,0,120
1,note_on,69,69,0
1,note_on,75,81,0
1,note_on,75,0,120
1,note_on,69,0,0
1,note_on,81,83,0
1,note_on,81,0,120
1,note_on,69,71,0
1,note_on,75,85,0
1,note_on,75,0,120
1,note_on,69,0,0
1,note_on,81,86,0
1,note_on,81,0,120
1,note_on,69,74,0
1,note_on,75,87,0
1,note_on,75,0,120
1,note_on,69,0,0
1,note_on,81,89,0
1,note_on,81,0,120
1,note_on,69,77,0
1,note_on,75,90,0
1,note_on,81,90,0
1,note_on,81,0,240
1,note_on,75,0,0
1,note_on,69,0,0
1,note_on,69,78,0
1,note_on,75,93,0
1,note_on,81,93,0
1,note_on,81,0,240
1,note_on,75,0,0
1,note_on,69,0,0
1,note_on,69,84,0
1,note_on,75,84,0
1,note_on,81,100,0
1,note_on,81,0,120
1,note_on,75,0,0
1,note_on,69,0,0
1,note_on,71,75,120
1,note_on,75,75,0
1,note_on,83,90,0
1,note_on,81,90,0
1,note_on,81,0,120
1,note_on,71,0,0
1,note_on,75,0,0
1,note_on,83,0,0
1,note_on,71,75,120
1,note_on,75,75,0
1,note_on,81,90,0
1,note_on,83,90,0
1,note_on,83,0,120
1,note_on,71,0,0
1,note_on,75,0,0
1,note_on,81,0,0
1,note_on,71,75,120
1,note_on,75,75,0
1,note_on,81,90,0
1,note_on,83,90,0
1,note_on,83,0,120
1,note_on,71,0,0
1,note_on,75,0,0
1,note_on,81,0,0
1,note_on,71,75,120
1,note_on,75,75,0
1,note_on,81,90,0
1,note_on,83,90,0
1,note_on,83,0,120
1,note_on,71,0,0
1,note_on,75,0,0
1,note_on,81,0,0
1,note_on,71,75,120
1,note_on,75,75,0
1,note_on,81,90,0
1,note_on,83,90,0
1,note_on,83,0,120
1,note_on,71,0,0
1,note_on,75,0,0
1,note_on,81,0,0
1,note_on,71,75,120
1,note_on,75,75,0
1,note_on,81,90,0
1,note_on,83,90,0
1,note_on,83,0,120
1,note_on,71,0,0
1,note_on,75,0,0
1,note_on,81,0,0
1,note_on,71,75,120
1,note_on,75,75,0
1,note_on,81,90,0
1,note_on,83,90,0
1,note_on,83,0,120
1,note_on,71,0,0
1,note_on,75,0,0
1,note_on,81,0,0
1,note_on,71,85,120
1,note_on,76,85,0
1,note_on,80,85,0
1,note_on,83,101,0
1,note_on,83,0,240
1,note_on,71,0,0
1,note_on,76,0,0
1,note_on,80,0,0
1,note_on,88,102,240
1,note_on,83,86,0
1,note_on,80,86,0
1,note_on,76,86,0
1,note_on,76,0,240
1,note_on,88,0,0
1,note_on,83,0,0
1,note_on,80,0,0
1,note_on,52,29,1200
1,note_on,55,29,0
1,note_on,60,29,0
1,note_on,64,36,0
1,note_on,64,0,475
1,note_on,52,0,0
1,note_on,55,0,0
1,note_on,60,0,0
1,note_on,52,28,5
1,note_on,55,28,0
1,note_on,60,28,0
1,note_on,64,34,0
1,note_on,64,0,120
1,note_on,52,0,0
1,note_on,55,0,0
1,note_on,60,0,0
1,note_on,52,28,120
1,note_on,55,28,0
1,note_on,60,28,0
1,note_on,64,34,0
1,note_on,64,0,120
1,note_on,52,0,0
1,note_on,55,0,0
1,note_on,60,0,0
1,note_on,52,29,120
1,note_on,55,29,0
1,note_on,60,29,0
1,note_on,64,36,0
1,note_on,64,0,475
1,note_on,52,0,0
1,note_on,55,0,0
1,note_on,60,0,0
1,note_on,52,27,5
1,note_on,55,27,0
1,note_on,60,27,0
1,note_on,64,33,0
1,note_on,64,0,120
1,note_on,52,0,0
1,note_on,55,0,0
1,note_on,60,0,0
1,note_on,52,27,120
1,note_on,55,27,0
1,note_on,60,27,0
1,note_on,64,33,0
1,note_on,64,0,120
1,note_on,52,0,0
1,note_on,55,0,0
1,note_on,60,0,0
1,note_on,52,29,120
1,note_on,55,29,0
1,note_on,60,29,0
1,note_on,64,36,0
1,note_on,64,0,240
1,note_on,52,0,0
1,note_on,55,0,0
1,note_on,60,0,0
1,note_on,48,32,0
1,note_on,48,0,120
1,note_on,52,33,0
1,note_on,52,0,120
1,note_on,55,34,0
1,note_on,55,0,120
1,note_on,60,35,0
1,note_on,60,0,120
1,note_on,64,36,0
1,note_on,64,0,120
1,note_on,67,37,0
1,note_on,67,0,120
1,note_on,59,36,0
1,note_on,71,36,0
1,note_on,71,0,480
1,note_on,59,0,0
1,note_on,60,28,0
1,note_on,72,34,0
1,note_on,72,0,120
1,note_on,60,0,0
1,note_on,60,28,120
1,note_on,72,34,0
1,note_on,72,0,120
1,note_on,60,0,0
1,note_on,65,31,120
1,note_on,67,31,0
1,note_on,71,37,0
1,note_on,73,37,0
1,note_on,73,0,240
1,note_on,65,0,0
1,note_on,67,0,0
1,note_on,71,0,0
1,note_on,67,28,240
1,note_on,65,28,0
1,note_on,71,35,0
1,note_on,74,35,0
1,note_on,74,0,240
1,note_on,67,0,0
1,note_on,65,0,0
1,note_on,71,0,0
1,note_on,77,35,240
1,note_on,79,35,0
1,note_on,86,35,0
1,note_on,83,35,0
1,note_on,83,0,960
1,note_on,77,0,0
1,note_on,79,0,0
1,note_on,86,0,0
1,note_on,53,25,0
1,note_on,55,25,0
1,note_on,59,25,0
1,note_on,62,31,0
1,note_on,62,0,475
1,note_on,53,0,0
1,note_on,55,0,0
1,note_on,59,0,0
1,note_on,53,24,5
1,note_on,55,24,0
1,note_on,59,24,0
1,note_on,62,28,0
1,note_on,62,0,120
1,note_on,53,0,0
1,note_on,55,0,0
1,note_on,59,0,0
1,note_on,53,24,120
1,note_on,55,24,0
1,note_on,59,24,0
1,note_on,62,28,0
1,note_on,62,0,120
1,note_on,53,0,0
1,note_on,55,0,0
1,note_on,59,0,0
1,note_on,53,25,120
1,note_on,55,25,0
1,note_on,59,25,0
1,note_on,62,31,0
1,note_on,62,0,475
1,note_on,53,0,0
1,note_on,55,0,0
1,note_on,59,0,0
1,note_on,53,23,5
1,note_on,55,23,0
1,note_on,59,23,0
1,note_on,62,28,0
1,note_on,62,0,120
1,note_on,53,0,0
1,note_on,55,0,0
1,note_on,59,0,0
1,note_on,53,23,120
1,note_on,55,23,0
1,note_on,59,23,0
1,note_on,62,28,0
1,note_on,62,0,120
1,note_on,53,0,0
1,note_on,55,0,0
1,note_on,59,0,0
1,note_on,53,25,120
1,note_on,55,25,0
1,note_on,59,25,0
1,note_on,62,31,0
1,note_on,62,0,240
1,note_on,53,0,0
1,note_on,55,0,0
1,note_on,59,0,0
1,note_on,55,27,0
1,note_on,55,0,120
1,note_on,59,28,0
1,note_on,59,0,120
1,note_on,62,28,0
1,note_on,62,0,120
1,note_on,65,29,0
1,note_on,65,0,120
1,note_on,67,31,0
1,note_on,67,0,120
1,note_on,71,32,0
1,note_on,71,0,120
1,note_on,61,36,0
1,note_on,73,36,0
1,note_on,73,0,480
1,note_on,61,0,0
1,note_on,62,28,0
1,note_on,74,34,0
1,note_on,74,0,120
1,note_on,62,0,0
1,note_on,62,28,120
1,note_on,74,34,0
1,note_on,74,0,120
1,note_on,62,0,0
1,note_on,63,31,120
1,note_on,67,31,0
1,note_on,72,37,0
1,note_on,75,37,0
1,note_on,75,0,240
1,note_on,63,0,0
1,note_on,67,0,0
1,note_on,72,0,0
1,note_on,67,28,240
1,note_on,64,28,0
1,note_on,72,34,0
1,note_on,76,34,0
1,note_on,76,0,240
1,note_on,67,0,0
1,note_on,64,0,0
1,note_on,72,0,0
1,note_on,76,35,240
1,note_on,79,35,0
1,note_on,88,35,0
1,note_on,84,35,0
1,note_on,84,0,960
1,note_on,76,0,0
1,note_on,79,0,0
1,note_on,88,0,0
1,note_on,55,27,240
1,note_on,55,0,120
1,note_on,60,28,0
1,note_on,60,0,120
1,note_on,64,28,0
1,note_on,64,0,120
1,note_on,67,29,0
1,note_on,67,0,120
1,note_on,72,31,0
1,note_on,72,0,120
1,note_on,76,32,0
1,note_on,76,0,120
1,note_on,72,30,0
1,note_on,67,30,0
1,note_on,79,37,0
1,note_on,79,0,360
1,note_on,67,0,0
1,note_on,72,0,0
1,note_on,65,29,120
1,note_on,72,29,0
1,note_on,77,36,0
1,note_on,77,0,240
1,note_on,72,0,0
1,note_on,65,0,0
1,note_on,84,35,240
1,note_on,77,28,0
1,note_on,77,0,960
1,note_on,84,0,0
1,note_on,57,24,240
1,note_on,57,0,120
1,note_on,60,25,0
1,note_on,60,0,120
1,note_on,65,25,0
1,note_on,65,0,120
1,note_on,69,26,0
1,note_on,69,0,120
1,note_on,72,27,0
1,note_on,72,0,120
1,note_on,77,27,0
1,note_on,77,0,120
1,note_on,72,26,0
1,note_on,69,26,0
1,note_on,81,32,0
1,note_on,81,0,360
1,note_on,69,0,0
1,note_on,72,0,0
1,note_on,67,26,120
1,note_on,72,26,0
1,note_on,79,32,0
1,note_on,79,0,240
1,note_on,72,0,0
1,note_on,67,0,0
1,note_on,72,25,240
1,note_on,84,31,0
1,note_on,79,25,0
1,note_on,79,0,1920
1,note_on,84,0,0
1,note_on,72,0,0
1,note_on,60,76,240
1,note_on,60,0,120
1,note_on,64,78,0
1,note_on,64,0,120
1,note_on,67,80,0
1,note_on,67,0,120
1,note_on,72,82,0
1,note_on,72,0,120
1,note_on,76,84,0
1,note_on,76,0,120
1,note_on,79,86,0
1,note_on,79,0,120
1,note_on,72,79,0
1,note_on,77,79,0
1,note_on,80,79,0
1,note_on,84,93,0
1,note_on,84,0,960
1,note_on,72,0,0
1,note_on,77,0,0
1,note_on,80,0,0
1,note_on,71,77,0
1,note_on,77,77,0
1,note_on,83,91,0
1,note_on,79,77,0
1,note_on,79,0,960
1,note_on,71,0,0
1,note_on,77,0,0
1,note_on,83,0,0
1,note_on,72,78,0
1,note_on,84,92,0
1,note_on,79,78,0
1,note_on,79,0,480
1,note_on,84,0,0
1,note_on,72,0,0
1,note_on,76,76,0
1,note_on,88,90,0
1,note_on,81,76,0
1,note_on,78,76,0
1,note_on,78,0,480
1,note_on,76,0,0
1,note_on,88,0,0
1,note_on,81,0,0
1,note_on,74,79,0
1,note_on,86,94,0
1,note_on,83,79,0
1,note_on,79,79,0
1,note_on,79,0,240
1,note_on,74,0,0
1,note_on,86,0,0
1,note_on,83,0,0
1,note_on,62,76,0
1,note_on,62,0,120
1,note_on,67,79,0
1,note_on,67,0,120
1,note_on,71,82,0
1,note_on,71,0,120
1,note_on,74,85,0
1,note_on,74,0,120
1,note_on,79,88,0
1,note_on,79,0,120
1,note_on,83,91,0
1,note_on,83,0,120
1,note_on,72,79,0
1,note_on,77,79,0
1,note_on,80,79,0
1,note_on,84,93,0
1,note_on,84,0,960
1,note_on,72,0,0
1,note_on,77,0,0
1,note_on,80,0,0
1,note_on,71,77,0
1,note_on,77,77,0
1,note_on,83,91,0
1,note_on,79,77,0
1,note_on,79,0,960
1,note_on,71,0,0
1,note_on,77,0,0
1,note_on,83,0,0
1,note_on,72,78,0
1,note_on,84,92,0
1,note_on,79,78,0
1,note_on,79,0,480
1,note_on,84,0,0
1,note_on,72,0,0
1,note_on,76,76,0
1,note_on,88,90,0
1,note_on,81,76,0
1,note_on,78,76,0
1,note_on,78,0,480
1,note_on,76,0,0
1,note_on,88,0,0
1,note_on,81,0,0
1,note_on,74,79,0
1,note_on,86,94,0
1,note_on,83,79,0
1,note_on,79,79,0
1,note_on,79,0,240
1,note_on,74,0,0
1,note_on,86,0,0
1,note_on,83,0,0
1,note_on,67,76,0
1,note_on,67,0,120
1,note_on,71,79,0
1,note_on,71,0,120
1,note_on,74,82,0
1,note_on,74,0,120
1,note_on,79,85,0
1,note_on,79,0,120
1,note_on,83,88,0
1,note_on,83,0,120
1,note_on,86,91,0
1,note_on,86,0,120
1,note_on,79,79,0
1,note_on,82,79,0
1,note_on,85,79,0
1,note_on,91,93,0
1,note_on,91,0,960
1,note_on,79,0,0
1,note_on,82,0,0
1,note_on,85,0,0
1,note_on,88,89,960
1,note_on,88,0,120
1,note_on,91,82,0
1,note_on,91,0,120
1,note_on,88,82,0
1,note_on,88,0,120
1,note_on,85,82,0
1,note_on,85,0,120
1,note_on,82,86,0
1,note_on,82,0,120
1,note_on,79,75,0
1,note_on,79,0,120
1,note_on,76,75,0
1,note_on,76,0,120
1,note_on,73,75,0
1,note_on,73,0,120
1,note_on,76,81,0
1,note_on,76,0,120
1,note_on,79,73,0
1,note_on,79,0,120
1,note_on,76,73,0
1,note_on,76,0,120
1,note_on,73,73,0
1,note_on,73,0,120
1,note_on,70,80,0
1,note_on,70,0,120
1,note_on,67,74,0
1,note_on,67,0,120
1,note_on,64,74,0
1,note_on,64,0,120
1,note_on,61,74,0
1,note_on,61,0,120
1,note_on,64,77,0
1,note_on,64,0,120
1,note_on,67,58,0
1,note_on,67,0,120
1,note_on,64,58,0
1,note_on,64,0,120
1,note_on,61,58,0
1,note_on,61,0,120
1,note_on,64,64,0
1,note_on,64,0,120
1,note_on,67,53,0
1,note_on,67,0,120
1,note_on,64,52,0
1,note_on,64,0,120
1,note_on,61,52,0
1,note_on,61,0,120
1,note_on,64,57,0
1,note_on,64,0,120
1,note_on,67,48,0
1,note_on,67,0,120
1,note_on,64,48,0
1,note_on,64,0,120
1,note_on,61,48,0
1,note_on,61,0,120
1,note_on,64,54,0
1,note_on,64,0,120
1,note_on,67,46,0
1,note_on,67,0,120
1,note_on,64,46,0
1,note_on,64,0,120
1,note_on,61,46,0
1,note_on,61,0,120
1,note_on,62,50,0
1,note_on,62,0,120
1,note_on,67,41,0
1,note_on,67,0,120
1,note_on,62,41,0
1,note_on,62,0,120
1,note_on,55,41,0
1,note_on,55,0,120
1,note_on,62,49,0
1,note_on,62,0,120
1,note_on,67,41,0
1,note_on,67,0,120
1,note_on,62,41,0
1,note_on,62,0,120
1,note_on,55,41,0
1,note_on,55,0,120
1,note_on,62,48,0
1,note_on,62,0,120
1,note_on,67,41,0
1,note_on,67,0,120
1,note_on,62,41,0
1,note_on,62,0,120
1,note_on,55,41,0
1,note_on,55,0,120
1,note_on,62,48,0
1,note_on,62,0,120
1,note_on,67,41,0
1,note_on,67,0,120
1,note_on,62,40,0
1,note_on,62,0,120
1,note_on,55,40,0
1,note_on,55,0,120
1,note_on,59,55,0
1,note_on,64,41,120
1,note_on,64,0,120
1,note_on,71,41,0
1,note_on,71,0,120
1,note_on,64,41,0
1,note_on,64,0,120
1,note_on,59,0,0
1,note_on,59,53,0
1,note_on,64,41,120
1,note_on,64,0,120
1,note_on,71,41,0
1,note_on,71,0,120
1,note_on,64,41,0
1,note_on,64,0,120
1,note_on,59,0,0
1,note_on,59,52,0
1,note_on,64,41,120
1,note_on,64,0,120
1,note_on,71,41,0
1,note_on,71,0,120
1,note_on,64,41,0
1,note_on,64,0,120
1,note_on,59,0,0
1,note_on,57,52,0
1,note_on,64,41,120
1,note_on,64,0,120
1,note_on,69,40,0
1,note_on,69,0,120
1,note_on,64,40,0
1,note_on,64,0,120
1,note_on,57,0,0
1,note_on,59,50,0
1,note_on,59,0,120
1,note_on,62,41,0
1,note_on,62,0,120
1,note_on,69,41,0
1,note_on,69,0,120
1,note_on,62,41,0
1,note_on,62,0,120
1,note_on,59,49,0
1,note_on,59,0,120
1,note_on,62,41,0
1,note_on,62,0,120
1,note_on,67,41,0
1,note_on,67,0,120
1,note_on,62,41,0
1,note_on,62,0,120
1,note_on,60,48,0
1,note_on,60,0,120
1,note_on,62,41,0
1,note_on,62,0,120
1,note_on,67,41,0
1,note_on,67,0,120
1,note_on,62,41,0
1,note_on,62,0,120
1,note_on,60,48,0
1,note_on,60,0,120
1,note_on,62,41,0
1,note_on,62,0,120
1,note_on,66,40,0
1,note_on,66,0,120
1,note_on,62,40,0
1,note_on,62,0,120
1,note_on,79,79,0
1,note_on,82,79,0
1,note_on,85,79,0
1,note_on,91,93,0
1,note_on,91,0,960
1,note_on,79,0,0
1,note_on,82,0,0
1,note_on,85,0,0
1,note_on,88,89,960
1,note_on,88,0,120
1,note_on,91,82,0
1,note_on,91,0,120
1,note_on,88,82,0
1,note_on,88,0,120
1,note_on,85,82,0
1,note_on,85,0,120
1,note_on,82,86,0
1,note_on,82,0,120
1,note_on,79,75,0
1,note_on,79,0,120
1,note_on,76,75,0
1,note_on,76,0,120
1,note_on,73,75,0
1,note_on,73,0,120
1,note_on,76,81,0
1,note_on,76,0,120
1,note_on,79,73,0
1,note_on,79,0,120
1,note_on,76,73,0
1,note_on,76,0,120
1,note_on,73,73,0
1,note_on,73,0,120
1,note_on,70,80,0
1,note_on,70,0,120
1,note_on,67,74,0
1,note_on,67,0,120
1,note_on,64,74,0
1,note_on,64,0,120
1,note_on,61,74,0
1,note_on,61,0,120
1,note_on,64,77,0
1,note_on,64,0,120
1,note_on,67,58,0
1,note_on,67,0,120
1,note_on,64,58,0
1,note_on,64,0,120
1,note_on,61,58,0
1,note_on,61,0,120
1,note_on,64,64,0
1,note_on,64,0,120
1,note_on,67,53,0
1,note_on,67,0,120
1,note_on,64,52,0
1,note_on,64,0,120
1,note_on,61,52,0
1,note_on,61,0,120
1,note_on,64,57,0
1,note_on,64,0,120
1,note_on,67,48,0
1,note_on,67,0,120
1,note_on,64,48,0
1,note_on,64,0,120
1,note_on,61,48,0
1,note_on,61,0,120
1,note_on,64,54,0
1,note_on,64,0,120
1,note_on,67,46,0
1,note_on,67,0,120
1,note_on,64,46,0
1,note_on,64,0,120
1,note_on,61,46,0
1,note_on,61,0,120
1,note_on,64,50,0
1,note_on,64,0,120
1,note_on,67,41,0
1,note_on,67,0,120
1,note_on,64,41,0
1,note_on,64,0,120
1,note_on,55,41,0
1,note_on,55,0,120
1,note_on,64,49,0
1,note_on,64,0,120
1,note_on,67,41,0
1,note_on,67,0,120
1,note_on,64,41,0
1,note_on,64,0,120
1,note_on,55,41,0
1,note_on,55,0,120
1,note_on,64,48,0
1,note_on,64,0,120
1,note_on,67,41,0
1,note_on,67,0,120
1,note_on,64,41,0
1,note_on,64,0,120
1,note_on,55,41,0
1,note_on,55,0,120
1,note_on,64,48,0
1,note_on,64,0,120
1,note_on,67,41,0
1,note_on,67,0,120
1,note_on,64,40,0
1,note_on,64,0,120
1,note_on,55,40,0
1,note_on,55,0,120
1,note_on,59,55,0
1,note_on,64,41,120
1,note_on,64,0,120
1,note_on,71,41,0
1,note_on,71,0,120
1,note_on,64,41,0
1,note_on,64,0,120
1,note_on,59,0,0
1,note_on,59,53,0
1,note_on,64,41,120
1,note_on,64,0,120
1,note_on,71,41,0
1,note_on,71,0,120
1,note_on,64,41,0
1,note_on,64,0,120
1,note_on,59,0,0
1,note_on,59,52,0
1,note_on,64,41,120
1,note_on,64,0,120
1,note_on,71,41,0
1,note_on,71,0,120
1,note_on,64,41,0
1,note_on,64,0,120
1,note_on,59,0,0
1,note_on,57,52,0
1,note_on,64,41,120
1,note_on,64,0,120
1,note_on,69,40,0
1,note_on,69,0,120
1,note_on,64,40,0
1,note_on,64,0,120
1,note_on,57,0,0
1,note_on,59,34,0
1,note_on,59,0,120
1,note_on,62,34,0
1,note_on,62,0,120
1,note_on,69,40,0
1,note_on,62,34,120
1,note_on,62,0,120
1,note_on,59,32,0
1,note_on,59,0,120
1,note_on,62,34,0
1,note_on,62,0,120
1,note_on,69,0,0
1,note_on,69,40,0
1,note_on,62,33,120
1,note_on,62,0,120
1,note_on,59,32,0
1,note_on,59,0,120
1,note_on,62,33,0
1,note_on,62,0,120
1,note_on,69,0,0
1,note_on,69,39,0
1,note_on,62,33,120
1,note_on,62,0,120
1,note_on,59,32,0
1,note_on,59,0,120
1,note_on,62,33,0
1,note_on,62,0,120
1,note_on,69,0,0
1,note_on,67,39,0
1,note_on,62,33,120
1,note_on,62,0,120
1,note_on,60,33,0
1,note_on,60,0,120
1,note_on,62,33,0
1,note_on,62,0,120
1,note_on,67,0,0
1,note_on,67,39,0
1,note_on,62,33,120
1,note_on,62,0,120
1,note_on,60,31,0
1,note_on,60,0,120
1,note_on,62,33,0
1,note_on,62,0,120
1,note_on,67,0,0
1,note_on,66,39,0
1,note_on,62,33,120
1,note_on,62,0,120
1,note_on,60,34,0
1,note_on,60,0,120
1,note_on,62,35,0
1,note_on,62,0,120
1,note_on,66,0,0
1,note_on,64,40,0
1,note_on,62,34,120
1,note_on,62,0,120
1,note_on,60,35,0
1,note_on,60,0,120
1,note_on,62,34,0
1,note_on,62,0,120
1,note_on,64,0,0
1,note_on,66,40,0
1,note_on,62,34,120
1,note_on,62,0,120
1,note_on,66,0,0
1,note_on,59,40,0
1,note_on,71,40,0
1,note_on,71,0,240
1,note_on,59,0,0
1,note_on,71,47,0
1,note_on,71,0,456
1,note_on,71,47,24
1,note_on,71,0,456
1,note_on,71,47,24
1,note_on,71,0,456
1,note_on,71,44,24
1,note_on,71,0,456
1,note_on,72,50,24
1,note_on,72,0,480
1,note_on,71,48,0
1,note_on,71,0,480
1,note_on,70,48,0
1,note_on,70,0,480
1,note_on,69,45,0
1,note_on,69,0,240
1,note_on,56,30,0
1,note_on,68,36,0
1,note_on,68,0,475
1,note_on,56,0,0
1,note_on,56,27,5
1,note_on,68,34,0
1,note_on,68,0,228
1,note_on,56,0,0
1,note_on,56,27,12
1,note_on,68,34,0
1,note_on,68,0,228
1,note_on,56,0,0
1,note_on,56,30,12
1,note_on,68,36,0
1,note_on,68,0,475
1,note_on,56,0,0
1,note_on,56,27,5
1,note_on,68,33,0
1,note_on,68,0,228
1,note_on,56,0,0
1,note_on,56,27,12
1,note_on,68,33,0
1,note_on,68,0,228
1,note_on,56,0,0
1,note_on,56,30,12
1,note_on,68,36,0
1,note_on,68,0,240
1,note_on,56,0,0
1,note_on,59,27,0
1,note_on,71,34,0
1,note_on,71,0,240
1,note_on,59,0,0
1,note_on,57,27,0
1,note_on,69,34,0
1,note_on,69,0,480
1,note_on,57,0,0
1,note_on,57,30,960
1,note_on,69,36,0
1,note_on,69,0,475
1,note_on,57,0,0
1,note_on,57,27,5
1,note_on,69,34,0
1,note_on,69,0,228
1,note_on,57,0,0
1,note_on,57,27,12
1,note_on,69,34,0
1,note_on,69,0,228
1,note_on,57,0,0
1,note_on,57,30,12
1,note_on,69,36,0
1,note_on,69,0,475
1,note_on,57,0,0
1,note_on,57,27,5
1,note_on,69,33,0
1,note_on,69,0,228
1,note_on,57,0,0
1,note_on,57,27,12
1,note_on,69,33,0
1,note_on,69,0,228
1,note_on,57,0,0
1,note_on,58,30,12
1,note_on,70,36,0
1,note_on,70,0,240
1,note_on,58,0,0
1,note_on,61,27,0
1,note_on,73,34,0
1,note_on,73,0,240
1,note_on,61,0,0
1,note_on,59,27,0
1,note_on,71,34,0
1,note_on,71,0,720
1,note_on,59,0,0
1,note_on,64,30,0
1,note_on,76,43,0
1,note_on,76,0,240
1,note_on,64,0,0
1,note_on,66,33,0
1,note_on,78,47,0
1,note_on,78,0,240
1,note_on,66,0,0
1,note_on,76,52,0
1,note_on,68,36,0
1,note_on,80,52,0
1,note_on,80,0,240
1,note_on,68,0,0
1,note_on,69,41,0
1,note_on,81,59,0
1,note_on,76,0,240
1,note_on,75,54,0
1,note_on,75,0,240
1,note_on,73,51,0
1,note_on,73,0,240
1,note_on,71,50,0
1,note_on,71,0,240
1,note_on,71,46,0
1,note_on,81,0,240
1,note_on,69,0,0
1,note_on,68,27,0
1,note_on,80,40,0
1,note_on,80,0,240
1,note_on,68,0,0
1,note_on,69,27,0
1,note_on,78,40,0
1,note_on,78,0,240
1,note_on,69,0,0
1,note_on,71,27,0
1,note_on,76,40,0
1,note_on,76,0,240
1,note_on,71,0,0
1,note_on,71,0,0
1,note_on,71,34,0
1,note_on,76,47,0
1,note_on,76,0,240
1,note_on,75,41,0
1,note_on,75,0,240
1,note_on,71,0,0
1,note_on,70,29,0
1,note_on,75,44,0
1,note_on,75,0,240
1,note_on,73,36,0
1,note_on,73,0,240
1,note_on,70,0,0
1,note_on,71,36,0
1,note_on,71,0,240
1,note_on,83,39,0
1,note_on,71,27,0
1,note_on,71,0,240
1,note_on,83,0,0
1,note_on,70,26,0
1,note_on,82,36,0
1,note_on,82,0,240
1,note_on,70,0,0
1,note_on,69,25,0
1,note_on,81,36,0
1,note_on,81,0,240
1,note_on,69,0,0
1,note_on,68,30,0
1,note_on,80,36,0
1,note_on,80,0,475
1,note_on,68,0,0
1,note_on,68,27,5
1,note_on,80,34,0
1,note_on,80,0,228
1,note_on,68,0,0
1,note_on,68,27,12
1,note_on,80,34,0
1,note_on,80,0,228
1,note_on,68,0,0
1,note_on,68,30,12
1,note_on,80,36,0
1,note_on,80,0,475
1,note_on,68,0,0
1,note_on,68,27,5
1,note_on,80,33,0
1,note_on,80,0,228
1,note_on,68,0,0
1,note_on,68,27,12
1,note_on,80,33,0
1,note_on,80,0,228
1,note_on,68,0,0
1,note_on,68,30,12
1,note_on,80,36,0
1,note_on,80,0,240
1,note_on,68,0,0
1,note_on,71,27,0
1,note_on,83,34,0
1,note_on,83,0,240
1,note_on,71,0,0
1,note_on,69,27,0
1,note_on,81,34,0
1,note_on,81,0,480
1,note_on,69,0,0
1,note_on,69,30,960
1,note_on,81,36,0
1,note_on,81,0,475
1,note_on,69,0,0
1,note_on,69,27,5
1,note_on,81,34,0
1,note_on,81,0,228
1,note_on,69,0,0
1,note_on,69,27,12
1,note_on,81,34,0
1,note_on,81,0,228
1,note_on,69,0,0
1,note_on,69,30,12
1,note_on,81,36,0
1,note_on,81,0,475
1,note_on,69,0,0
1,note_on,69,27,5
1,note_on,81,33,0
1,note_on,81,0,228
1,note_on,69,0,0
1,note_on,69,27,12
1,note_on,81,33,0
1,note_on,81,0,228
1,note_on,69,0,0
1,note_on,70,30,12
1,note_on,82,36,0
1,note_on,82,0,240
1,note_on,70,0,0
1,note_on,72,27,0
1,note_on,84,34,0
1,note_on,84,0,240
1,note_on,72,0,0
1,note_on,71,27,0
1,note_on,83,34,0
1,note_on,83,0,720
1,note_on,71,0,0
1,note_on,71,45,720
1,note_on,83,45,0
1,note_on,83,0,240
1,note_on,71,0,0
1,note_on,74,40,0
1,note_on,86,40,0
1,note_on,86,0,240
1,note_on,74,0,0
1,note_on,72,41,0
1,note_on,84,41,0
1,note_on,84,0,480
1,note_on,72,0,0
1,note_on,76,54,0
1,note_on,88,54,0
1,note_on,88,0,720
1,note_on,76,0,0
1,note_on,72,43,0
1,note_on,84,43,0
1,note_on,84,0,240
1,note_on,72,0,0
1,note_on,70,45,0
1,note_on,82,45,0
1,note_on,82,0,240
1,note_on,70,0,0
1,note_on,72,40,0
1,note_on,84,40,0
1,note_on,84,0,240
1,note_on,72,0,0
1,note_on,71,41,0
1,note_on,83,41,0
1,note_on,83,0,480
1,note_on,71,0,0
1,note_on,76,54,0
1,note_on,88,54,0
1,note_on,88,0,720
1,note_on,76,0,0
1,note_on,71,43,0
1,note_on,83,43,0
1,note_on,83,0,240
1,note_on,71,0,0
1,note_on,69,39,0
1,note_on,81,46,0
1,note_on,81,0,240
1,note_on,69,0,0
1,note_on,71,41,0
1,note_on,83,49,0
1,note_on,83,0,240
1,note_on,71,0,0
1,note_on,72,51,0
1,note_on,84,51,0
1,note_on,84,0,240
1,note_on,72,0,0
1,note_on,69,39,0
1,note_on,81,46,0
1,note_on,81,0,240
1,note_on,69,0,0
1,note_on,67,37,0
1,note_on,79,45,0
1,note_on,79,0,240
1,note_on,67,0,0
1,note_on,70,39,0
1,note_on,82,46,0
1,note_on,82,0,240
1,note_on,70,0,0
1,note_on,71,41,0
1,note_on,83,49,0
1,note_on,83,0,240
1,note_on,71,0,0
1,note_on,67,37,0
1,note_on,79,45,0
1,note_on,79,0,240
1,note_on,67,0,0
1,note_on,66,36,0
1,note_on,75,36,0
1,note_on,78,43,0
1,note_on,78,0,960
1,note_on,75,0,0
1,note_on,66,0,0
1,note_on,57,39,960
1,note_on,69,46,0
1,note_on,69,0,240
1,note_on,57,0,0
1,note_on,59,41,0
1,note_on,71,49,0
1,note_on,71,0,240
1,note_on,59,0,0
1,note_on,60,51,0
1,note_on,72,51,0
1,note_on,72,0,240
1,note_on,60,0,0
1,note_on,57,39,0
1,note_on,69,46,0
1,note_on,69,0,240
1,note_on,57,0,0
1,note_on,55,37,0
1,note_on,67,45,0
1,note_on,67,0,240
1,note_on,55,0,0
1,note_on,58,39,0
1,note_on,70,46,0
1,note_on,70,0,240
1,note_on,58,0,0
1,note_on,59,41,0
1,note_on,71,49,0
1,note_on,71,0,240
1,note_on,59,0,0
1,note_on,55,37,0
1,note_on,67,45,0
1,note_on,67,0,240
1,note_on,55,0,0
1,note_on,54,36,0
1,note_on,63,36,0
1,note_on,66,43,0
1,note_on,66,0,960
1,note_on,63,0,0
1,note_on,54,0,0
1,note_on,62,40,240
1,note_on,66,40,0
1,note_on,66,0,240
1,note_on,62,0,0
1,note_on,61,42,0
1,note_on,64,42,0
1,note_on,66,42,0
1,note_on,66,0,240
1,note_on,64,0,0
1,note_on,61,0,0
1,note_on,59,44,0
1,note_on,62,44,0
1,note_on,66,44,0
1,note_on,66,0,240
1,note_on,62,0,0
1,note_on,59,0,0
1,note_on,56,45,0
1,note_on,66,45,0
1,note_on,66,0,480
1,note_on,65,44,0
1,note_on,65,0,240
1,note_on,56,0,0
1,note_on,57,45,0
1,note_on,61,45,0
1,note_on,66,45,0
1,note_on,66,0,240
1,note_on,61,0,0
1,note_on,57,0,0
1,note_on,61,47,0
1,note_on,65,47,0
1,note_on,68,47,0
1,note_on,68,0,480
1,note_on,65,0,0
1,note_on,61,0,0
1,note_on,61,47,0
1,note_on,66,47,0
1,note_on,69,47,0
1,note_on,69,0,240
1,note_on,66,0,0
1,note_on,61,0,0
1,note_on,61,47,0
1,note_on,65,47,0
1,note_on,73,47,0
1,note_on,73,0,240
1,note_on,65,0,0
1,note_on,61,0,0
1,note_on,61,51,0
1,note_on,66,51,0
1,note_on,71,51,0
1,note_on,71,0,480
1,note_on,69,45,0
1,note_on,69,0,240
1,note_on,66,0,0
1,note_on,61,0,0
1,note_on,59,45,0
1,note_on,61,45,0
1,note_on,68,45,0
1,note_on,68,0,240
1,note_on,61,0,0
1,note_on,59,0,0
1,note_on,57,49,0
1,note_on,61,49,0
1,note_on,66,49,0
1,note_on,66,0,720
1,note_on,61,0,0
1,note_on,57,0,0
1,note_on,56,45,0
1,note_on,64,45,0
1,note_on,64,0,240
1,note_on,56,0,0
1,note_on,54,46,0
1,note_on,64,46,0
1,note_on,64,0,480
1,note_on,63,45,0
1,note_on,63,0,240
1,note_on,54,0,0
1,note_on,56,45,0
1,note_on,59,45,0
1,note_on,64,45,0
1,note_on,64,0,240
1,note_on,59,0,0
1,note_on,56,0,0
1,note_on,59,49,0
1,note_on,63,49,0
1,note_on,66,49,0
1,note_on,66,0,480
1,note_on,63,0,0
1,note_on,59,0,0
1,note_on,59,43,0
1,note_on,64,43,0
1,note_on,68,43,0
1,note_on,68,0,240
1,note_on,64,0,0
1,note_on,59,0,0
1,note_on,59,43,0
1,note_on,63,43,0
1,note_on,71,43,0
1,note_on,71,0,240
1,note_on,63,0,0
1,note_on,59,0,0
1,note_on,59,47,0
1,note_on,64,47,0
1,note_on,69,47,0
1,note_on,69,0,480
1,note_on,68,39,0
1,note_on,68,0,240
1,note_on,64,0,0
1,note_on,59,0,0
1,note_on,57,37,0
1,note_on,59,37,0
1,note_on,66,37,0
1,note_on,66,0,240
1,note_on,59,0,0
1,note_on,57,0,0
1,note_on,56,43,0
1,note_on,59,43,0
1,note_on,64,43,0
1,note_on,64,0,480
1,note_on,59,0,0
1,note_on,56,0,0
1,note_on,56,36,0
1,note_on,59,36,0
1,note_on,64,36,0
1,note_on,64,0,480
1,note_on,59,0,0
1,note_on,56,0,0
1,note_on,60,30,0
1,note_on,64,36,0
1,note_on,64,0,120
1,note_on,60,0,0
1,note_on,55,30,0
1,note_on,55,0,120
1,note_on,60,31,0
1,note_on,64,36,0
1,note_on,64,0,120
1,note_on,60,0,0
1,note_on,55,32,0
1,note_on,55,0,120
1,note_on,60,32,0
1,note_on,64,38,0
1,note_on,64,0,120
1,note_on,60,0,0
1,note_on,55,33,0
1,note_on,55,0,120
1,note_on,60,34,0
1,note_on,64,40,0
1,note_on,64,0,120
1,note_on,60,0,0
1,note_on,55,34,0
1,note_on,55,0,120
1,note_on,60,35,0
1,note_on,64,41,0
1,note_on,64,0,120
1,note_on,60,0,0
1,note_on,55,34,0
1,note_on,55,0,120
1,note_on,60,36,0
1,note_on,64,44,0
1,note_on,64,0,120
1,note_on,60,0,0
1,note_on,55,37,0
1,note_on,55,0,120
1,note_on,60,38,0
1,note_on,64,46,0
1,note_on,64,0,120
1,note_on,60,0,0
1,note_on,55,37,0
1,note_on,55,0,120
1,note_on,60,39,0
1,note_on,64,46,0
1,note_on,64,0,120
1,note_on,60,0,0
1,note_on,55,40,0
1,note_on,55,0,120
1,note_on,64,41,0
1,note_on,67,49,0
1,note_on,67,0,120
1,note_on,64,0,0
1,note_on,60,41,0
1,note_on,60,0,120
1,note_on,64,42,0
1,note_on,67,50,0
1,note_on,67,0,120
1,note_on,64,0,0
1,note_on,60,43,0
1,note_on,60,0,120
1,note_on,64,44,0
1,note_on,67,52,0
1,note_on,67,0,120
1,note_on,64,0,0
1,note_on,60,44,0
1,note_on,60,0,120
1,note_on,64,46,0
1,note_on,67,54,0
1,note_on,67,0,120
1,note_on,64,0,0
1,note_on,60,44,0
1,note_on,60,0,120
1,note_on,67,48,0
1,note_on,72,57,0
1,note_on,72,0,120
1,note_on,67,0,0
1,note_on,64,48,0
1,note_on,64,0,120
1,note_on,67,49,0
1,note_on,72,57,0
1,note_on,72,0,120
1,note_on,67,0,0
1,note_on,64,48,0
1,note_on,64,0,120
1,note_on,67,50,0
1,note_on,72,59,0
1,note_on,72,0,120
1,note_on,67,0,0
1,note_on,64,49,0
1,note_on,64,0,120
1,note_on,67,52,0
1,note_on,72,61,0
1,note_on,72,0,120
1,note_on,67,0,0
1,note_on,64,51,0
1,note_on,64,0,120
1,note_on,72,53,0
1,note_on,76,63,0
1,note_on,76,0,120
1,note_on,72,0,0
1,note_on,67,52,0
1,note_on,67,0,120
1,note_on,72,55,0
1,note_on,76,65,0
1,note_on,76,0,120
1,note_on,72,0,0
1,note_on,67,53,0
1,note_on,67,0,120
1,note_on,76,57,0
1,note_on,79,67,0
1,note_on,79,0,120
1,note_on,76,0,0
1,note_on,72,56,0
1,note_on,72,0,120
1,note_on,76,58,0
1,note_on,79,68,0
1,note_on,79,0,120
1,note_on,76,0,0
1,note_on,72,57,0
1,note_on,72,0,120
1,note_on,84,71,0
1,note_on,79,60,0
1,note_on,79,0,120
1,note_on,84,0,0
1,note_on,76,59,0
1,note_on,76,0,120
1,note_on,79,61,0
1,note_on,84,72,0
1,note_on,84,0,120
1,note_on,79,0,0
1,note_on,76,62,0
1,note_on,76,0,120
1,note_on,88,75,0
1,note_on,84,63,0
1,note_on,84,0,120
1,note_on,88,0,0
1,note_on,79,62,0
1,note_on,79,0,120
1,note_on,88,77,0
1,note_on,84,65,0
1,note_on,84,0,120
1,note_on,88,0,0
1,note_on,79,64,0
1,note_on,79,0,120
1,note_on,76,74,0
1,note_on,79,74,0
1,note_on,84,74,0
1,note_on,88,88,0
1,note_on,88,0,475
1,note_on,76,0,0
1,note_on,79,0,0
1,note_on,84,0,0
1,note_on,76,70,5
1,note_on,79,70,0
1,note_on,84,70,0
1,note_on,88,83,0
1,note_on,88,0,228
1,note_on,76,0,0
1,note_on,79,0,0
1,note_on,84,0,0
1,note_on,76,70,12
1,note_on,79,70,0
1,note_on,84,70,0
1,note_on,88,83,0
1,note_on,88,0,228
1,note_on,76,0,0
1,note_on,79,0,0
1,note_on,84,0,0
1,note_on,76,74,12
1,note_on,79,74,0
1,note_on,84,74,0
1,note_on,88,88,0
1,note_on,88,0,475
1,note_on,76,0,0
1,note_on,79,0,0
1,note_on,84,0,0
1,note_on,76,69,5
1,note_on,79,69,0
1,note_on,84,69,0
1,note_on,88,82,0
1,note_on,88,0,228
1,note_on,76,0,0
1,note_on,79,0,0
1,note_on,84,0,0
1,note_on,76,69,12
1,note_on,79,69,0
1,note_on,84,69,0
1,note_on,88,82,0
1,note_on,88,0,228
1,note_on,76,0,0
1,note_on,79,0,0
1,note_on,84,0,0
1,note_on,76,74,12
1,note_on,79,74,0
1,note_on,84,74,0
1,note_on,88,88,0
1,note_on,88,0,240
1,note_on,76,0,0
1,note_on,79,0,0
1,note_on,84,0,0
1,note_on,67,76,1680
1,note_on,71,76,0
1,note_on,77,91,0
1,note_on,79,91,0
1,note_on,79,0,240
1,note_on,67,0,0
1,note_on,71,0,0
1,note_on,77,0,0
1,note_on,59,71,240
1,note_on,55,71,0
1,note_on,65,85,0
1,note_on,67,85,0
1,note_on,67,0,240
1,note_on,59,0,0
1,note_on,55,0,0
1,note_on,65,0,0
1,note_on,77,74,1200
1,note_on,79,74,0
1,note_on,83,74,0
1,note_on,86,88,0
1,note_on,86,0,475
1,note_on,77,0,0
1,note_on,79,0,0
1,note_on,83,0,0
1,note_on,77,70,5
1,note_on,79,70,0
1,note_on,83,70,0
1,note_on,86,83,0
1,note_on,86,0,228
1,note_on,77,0,0
1,note_on,79,0,0
1,note_on,83,0,0
1,note_on,77,70,12
1,note_on,79,70,0
1,note_on,83,70,0
1,note_on,86,83,0
1,note_on,86,0,228
1,note_on,77,0,0
1,note_on,79,0,0
1,note_on,83,0,0
1,note_on,77,74,12
1,note_on,79,74,0
1,note_on,83,74,0
1,note_on,86,88,0
1,note_on,86,0,475
1,note_on,77,0,0
1,note_on,79,0,0
1,note_on,83,0,0
1,note_on,77,69,5
1,note_on,79,69,0
1,note_on,83,69,0
1,note_on,86,82,0
1,note_on,86,0,228
1,note_on,77,0,0
1,note_on,79,0,0
1,note_on,83,0,0
1,note_on,77,69,12
1,note_on,79,69,0
1,note_on,83,69,0
1,note_on,86,82,0
1,note_on,86,0,228
1,note_on,77,0,0
1,note_on,79,0,0
1,note_on,83,0,0
1,note_on,77,74,12
1,note_on,79,74,0
1,note_on,83,74,0
1,note_on,86,88,0
1,note_on,86,0,240
1,note_on,77,0,0
1,note_on,79,0,0
1,note_on,83,0,0
1,note_on,67,79,1680
1,note_on,72,79,0
1,note_on,79,95,0
1,note_on,79,0,240
1,note_on,72,0,0
1,note_on,67,0,0
1,note_on,60,74,240
1,note_on,55,74,0
1,note_on,67,89,0
1,note_on,67,0,240
1,note_on,55,0,0
1,note_on,60,0,0
1,note_on,55,64,480
1,note_on,55,0,120
1,note_on,60,66,0
1,note_on,60,0,120
1,note_on,64,68,0
1,note_on,64,0,120
1,note_on,67,70,0
1,note_on,67,0,120
1,note_on,72,72,0
1,note_on,72,0,120
1,note_on,76,74,0
1,note_on,76,0,120
1,note_on,67,66,0
1,note_on,76,66,0
1,note_on,79,78,0
1,note_on,79,0,475
1,note_on,76,0,0
1,note_on,67,0,0
1,note_on,67,58,5
1,note_on,76,58,0
1,note_on,79,70,0
1,note_on,79,0,228
1,note_on,76,0,0
1,note_on,67,0,0
1,note_on,67,58,12
1,note_on,76,58,0
1,note_on,79,70,0
1,note_on,79,0,228
1,note_on,76,0,0
1,note_on,67,0,0
1,note_on,67,65,12
1,note_on,74,65,0
1,note_on,79,78,0
1,note_on,79,0,720
1,note_on,74,0,0
1,note_on,67,0,0
1,note_on,67,67,0
1,note_on,74,67,0
1,note_on,79,80,0
1,note_on,79,0,240
1,note_on,74,0,0
1,note_on,67,0,0
1,note_on,72,74,0
1,note_on,79,74,0
1,note_on,84,88,0
1,note_on,84,0,480
1,note_on,79,0,0
1,note_on,72,0,0
1,note_on,72,63,0
1,note_on,78,63,0
1,note_on,84,75,0
1,note_on,84,0,240
1,note_on,78,0,0
1,note_on,72,0,0
1,note_on,72,61,0
1,note_on,78,61,0
1,note_on,84,73,0
1,note_on,84,0,240
1,note_on,78,0,0
1,note_on,72,0,0
1,note_on,71,64,0
1,note_on,79,64,0
1,note_on,83,76,0
1,note_on,83,0,240
1,note_on,79,0,0
1,note_on,71,0,0
1,note_on,55,64,0
1,note_on,55,0,120
1,note_on,60,66,0
1,note_on,60,0,120
1,note_on,64,68,0
1,note_on,64,0,120
1,note_on,67,70,0
1,note_on,67,0,120
1,note_on,72,72,0
1,note_on,72,0,120
1,note_on,76,74,0
1,note_on,76,0,120
1,note_on,67,66,0
1,note_on,76,66,0
1,note_on,79,78,0
1,note_on,79,0,475
1,note_on,76,0,0
1,note_on,67,0,0
1,note_on,67,58,5
1,note_on,76,58,0
1,note_on,79,70,0
1,note_on,79,0,228
1,note_on,76,0,0
1,note_on,67,0,0
1,note_on,67,58,12
1,note_on,76,58,0
1,note_on,79,70,0
1,note_on,79,0,228
1,note_on,76,0,0
1,note_on,67,0,0
1,note_on,67,65,12
1,note_on,74,65,0
1,note_on,79,78,0
1,note_on,79,0,720
1,note_on,74,0,0
1,note_on,67,0,0
1,note_on,67,67,0
1,note_on,74,67,0
1,note_on,79,80,0
1,note_on,79,0,240
1,note_on,74,0,0
1,note_on,67,0,0
1,note_on,72,74,0
1,note_on,79,74,0
1,note_on,84,88,0
1,note_on,84,0,480
1,note_on,79,0,0
1,note_on,72,0,0
1,note_on,72,63,0
1,note_on,78,63,0
1,note_on,84,75,0
1,note_on,84,0,480
1,note_on,78,0,0
1,note_on,72,0,0
1,note_on,71,64,0
1,note_on,79,64,0
1,note_on,83,76,0
1,note_on,83,0,240
1,note_on,79,0,0
1,note_on,71,0,0
1,note_on,60,64,0
1,note_on,60,0,120
1,note_on,65,66,0
1,note_on,65,0,120
1,note_on,69,68,0
1,note_on,69,0,120
1,note_on,72,70,0
1,note_on,72,0,120
1,note_on,77,72,0
1,note_on,77,0,120
1,note_on,81,74,0
1,note_on,81,0,120
1,note_on,72,72,0
1,note_on,81,72,0
1,note_on,84,85,0
1,note_on,84,0,475
1,note_on,81,0,0
1,note_on,72,0,0
1,note_on,72,63,5
1,note_on,81,63,0
1,note_on,84,77,0
1,note_on,84,0,228
1,note_on,81,0,0
1,note_on,72,0,0
1,note_on,72,63,12
1,note_on,81,63,0
1,note_on,84,77,0
1,note_on,84,0,228
1,note_on,81,0,0
1,note_on,72,0,0
1,note_on,72,71,12
1,note_on,79,71,0
1,note_on,84,85,0
1,note_on,84,0,720
1,note_on,79,0,0
1,note_on,72,0,0
1,note_on,72,73,0
1,note_on,79,73,0
1,note_on,84,88,0
1,note_on,84,0,240
1,note_on,79,0,0
1,note_on,72,0,0
1,note_on,77,81,0
1,note_on,84,81,0
1,note_on,89,96,0
1,note_on,89,0,475
1,note_on,84,0,0
1,note_on,77,0,0
1,note_on,77,75,5
1,note_on,83,75,0
1,note_on,89,90,0
1,note_on,89,0,228
1,note_on,83,0,0
1,note_on,77,0,0
1,note_on,77,66,12
1,note_on,83,66,0
1,note_on,89,78,0
1,note_on,89,0,228
1,note_on,83,0,0
1,note_on,77,0,0
1,note_on,76,76,12
1,note_on,83,76,0
1,note_on,88,92,0
1,note_on,88,0,475
1,note_on,83,0,0
1,note_on,76,0,0
1,note_on,88,84,5
1,note_on,81,70,0
1,note_on,76,70,0
1,note_on,76,0,480
1,note_on,81,0,0
1,note_on,88,0,0
1,note_on,74,78,0
1,note_on,81,78,0
1,note_on,86,92,0
1,note_on,86,0,240
1,note_on,81,0,0
1,note_on,74,0,0
1,note_on,74,78,0
1,note_on,80,78,0
1,note_on,86,78,0
1,note_on,86,0,240
1,note_on,80,0,0
1,note_on,74,0,0
1,note_on,72,73,0
1,note_on,81,73,0
1,note_on,84,87,0
1,note_on,84,0,480
1,note_on,81,0,0
1,note_on,72,0,0
1,note_on,81,76,0
1,note_on,71,76,0
1,note_on,77,76,0
1,note_on,83,92,0
1,note_on,83,0,480
1,note_on,81,0,0
1,note_on,71,0,0
1,note_on,77,0,0
1,note_on,80,74,0
1,note_on,83,89,0
1,note_on,76,74,0
1,note_on,71,74,0
1,note_on,71,0,420
1,note_on,80,0,0
1,note_on,83,0,0
1,note_on,76,0,0
1,note_on,81,82,0
1,note_on,81,0,60
1,note_on,93,92,0
1,note_on,93,0,240
1,note_on,91,82,0
1,note_on,91,0,120
1,note_on,89,82,0
1,note_on,89,0,120
1,note_on,88,81,0
1,note_on,88,0,120
1,note_on,86,81,0
1,note_on,86,0,120
1,note_on,84,80,0
1,note_on,84,0,120
1,note_on,83,79,0
1,note_on,83,0,120
1,note_on,81,79,0
1,note_on,81,0,120
1,note_on,79,78,0
1,note_on,79,0,120
1,note_on,77,78,0
1,note_on,77,0,120
1,note_on,76,77,0
1,note_on,76,0,120
1,note_on,74,77,0
1,note_on,74,0,120
1,note_on,72,75,0
1,note_on,72,0,120
1,note_on,71,74,0
1,note_on,71,0,120
1,note_on,69,74,0
1,note_on,69,0,120
1,note_on,68,71,0
1,note_on,68,0,120
1,note_on,65,64,0
1,note_on,65,0,120
1,note_on,64,64,0
1,note_on,64,0,120
1,note_on,62,64,0
1,note_on,62,0,120
1,note_on,68,63,0
1,note_on,68,0,120
1,note_on,65,57,0
1,note_on,65,0,120
1,note_on,64,57,0
1,note_on,64,0,120
1,note_on,62,57,0
1,note_on,62,0,120
1,note_on,68,67,0
1,note_on,68,0,120
1,note_on,65,58,0
1,note_on,65,0,120
1,note_on,64,58,0
1,note_on,64,0,120
1,note_on,62,58,0
1,note_on,62,0,120
1,note_on,68,64,0
1,note_on,68,0,120
1,note_on,65,59,0
1,note_on,65,0,120
1,note_on,64,59,0
1,note_on,64,0,120
1,note_on,62,59,0
1,note_on,62,0,60
1,note_on,83,81,0
1,note_on,83,0,60
1,note_on,95,92,0
1,note_on,95,0,240
1,note_on,93,82,0
1,note_on,93,0,120
1,note_on,92,82,0
1,note_on,92,0,120
1,note_on,89,81,0
1,note_on,89,0,120
1,note_on,88,81,0
1,note_on,88,0,120
1,note_on,86,80,0
1,note_on,86,0,120
1,note_on,84,79,0
1,note_on,84,0,120
1,note_on,83,79,0
1,note_on,83,0,120
1,note_on,81,78,0
1,note_on,81,0,120
1,note_on,80,78,0
1,note_on,80,0,120
1,note_on,77,77,0
1,note_on,77,0,120
1,note_on,76,77,0
1,note_on,76,0,120
1,note_on,74,75,0
1,note_on,74,0,120
1,note_on,72,74,0
1,note_on,72,0,120
1,note_on,71,74,0
1,note_on,71,0,120
1,note_on,69,71,0
1,note_on,69,0,120
1,note_on,63,64,0
1,note_on,63,0,120
1,note_on,64,64,0
1,note_on,64,0,120
1,note_on,57,64,0
1,note_on,57,0,120
1,note_on,69,63,0
1,note_on,69,0,120
1,note_on,63,57,0
1,note_on,63,0,120
1,note_on,64,57,0
1,note_on,64,0,120
1,note_on,57,57,0
1,note_on,57,0,120
1,note_on,69,67,0
1,note_on,69,0,120
1,note_on,63,58,0
1,note_on,63,0,120
1,note_on,64,58,0
1,note_on,64,0,120
1,note_on,57,58,0
1,note_on,57,0,120
1,note_on,69,64,0
1,note_on,69,0,120
1,note_on,63,59,0
1,note_on,63,0,120
1,note_on,64,59,0
1,note_on,64,0,120
1,note_on,57,59,0
1,note_on,57,0,120
1,note_on,70,67,0
1,note_on,70,0,120
1,note_on,64,61,0
1,note_on,64,0,120
1,note_on,65,61,0
1,note_on,65,0,120
1,note_on,58,61,0
1,note_on,58,0,120
1,note_on,70,60,0
1,note_on,70,0,120
1,note_on,64,53,0
1,note_on,64,0,120
1,note_on,65,53,0
1,note_on,65,0,120
1,note_on,58,53,0
1,note_on,58,0,120
1,note_on,70,59,0
1,note_on,70,0,120
1,note_on,64,51,0
1,note_on,64,0,120
1,note_on,65,51,0
1,note_on,65,0,120
1,note_on,58,51,0
1,note_on,58,0,120
1,note_on,70,58,0
1,note_on,70,0,120
1,note_on,64,52,0
1,note_on,64,0,120
1,note_on,65,52,0
1,note_on,65,0,120
1,note_on,58,52,0
1,note_on,58,0,120
1,note_on,73,53,0
1,note_on,73,0,120
1,note_on,66,47,0
1,note_on,66,0,120
1,note_on,67,47,0
1,note_on,67,0,120
1,note_on,61,48,0
1,note_on,61,0,120
1,note_on,74,54,0
1,note_on,74,0,120
1,note_on,68,48,0
1,note_on,68,0,120
1,note_on,69,48,0
1,note_on,69,0,120
1,note_on,62,49,0
1,note_on,62,0,120
1,note_on,76,55,0
1,note_on,76,0,120
1,note_on,70,49,0
1,note_on,70,0,120
1,note_on,71,49,0
1,note_on,71,0,120
1,note_on,64,49,0
1,note_on,64,0,120
1,note_on,77,56,0
1,note_on,77,0,120
1,note_on,71,49,0
1,note_on,71,0,120
1,note_on,72,49,0
1,note_on,72,0,120
1,note_on,65,50,0
1,note_on,65,0,120
1,note_on,80,57,0
1,note_on,80,0,120
1,note_on,75,52,0
1,note_on,75,0,120
1,note_on,76,53,0
1,note_on,76,0,120
1,note_on,68,54,0
1,note_on,68,0,120
1,note_on,81,59,0
1,note_on,81,0,120
1,note_on,75,52,0
1,note_on,75,0,120
1,note_on,76,53,0
1,note_on,76,0,120
1,note_on,69,53,0
1,note_on,69,0,120
1,note_on,83,66,0
1,note_on,83,0,120
1,note_on,75,54,0
1,note_on,75,0,120
1,note_on,81,53,0
1,note_on,81,0,120
1,note_on,71,52,0
1,note_on,71,0,120
1,note_on,84,57,0
1,note_on,84,0,120
1,note_on,76,49,0
1,note_on,76,0,120
1,note_on,80,48,0
1,note_on,80,0,120
1,note_on,72,48,0
1,note_on,72,0,120
1,note_on,81,66,0
1,note_on,93,79,0
1,note_on,93,0,475
1,note_on,81,0,0
1,note_on,81,62,5
1,note_on,93,73,0
1,note_on,93,0,228
1,note_on,81,0,0
1,note_on,81,62,12
1,note_on,93,73,0
1,note_on,93,0,228
1,note_on,81,0,0
1,note_on,81,66,12
1,note_on,93,79,0
1,note_on,93,0,475
1,note_on,81,0,0
1,note_on,81,62,5
1,note_on,93,73,0
1,note_on,93,0,228
1,note_on,81,0,0
1,note_on,81,61,12
1,note_on,93,72,0
1,note_on,93,0,228
1,note_on,81,0,0
1,note_on,81,66,12
1,note_on,93,79,0
1,note_on,93,0,240
1,note_on,81,0,0
1,note_on,78,62,0
1,note_on,90,73,0
1,note_on,90,0,240
1,note_on,78,0,0
1,note_on,79,64,0
1,note_on,91,76,0
1,note_on,91,0,480
1,note_on,79,0,0
1,note_on,45,97,0
1,note_on,45,0,960
1,note_on,79,66,0
1,note_on,91,79,0
1,note_on,91,0,475
1,note_on,79,0,0
1,note_on,79,62,5
1,note_on,91,73,0
1,note_on,91,0,228
1,note_on,79,0,0
1,note_on,79,62,12
1,note_on,91,73,0
1,note_on,91,0,228
1,note_on,79,0,0
1,note_on,79,66,12
1,note_on,91,79,0
1,note_on,91,0,475
1,note_on,79,0,0
1,note_on,79,62,5
1,note_on,91,73,0
1,note_on,91,0,228
1,note_on,79,0,0
1,note_on,79,61,12
1,note_on,91,72,0
1,note_on,91,0,228
1,note_on,79,0,0
1,note_on,79,66,12
1,note_on,91,79,0
1,note_on,91,0,240
1,note_on,79,0,0
1,note_on,76,62,0
1,note_on,88,73,0
1,note_on,88,0,240
1,note_on,76,0,0
1,note_on,77,64,0
1,note_on,89,76,0
1,note_on,89,0,480
1,note_on,77,0,0
1,note_on,45,97,0
1,note_on,45,0,960
1,note_on,77,62,0
1,note_on,89,75,0
1,note_on,89,0,240
1,note_on,77,0,0
1,note_on,75,58,0
1,note_on,87,68,0
1,note_on,87,0,240
1,note_on,75,0,0
1,note_on,76,58,0
1,note_on,88,69,0
1,note_on,88,0,480
1,note_on,76,0,0
1,note_on,45,86,0
1,note_on,45,0,960
1,note_on,76,54,0
1,note_on,88,65,0
1,note_on,88,0,240
1,note_on,76,0,0
1,note_on,73,50,0
1,note_on,85,59,0
1,note_on,85,0,240
1,note_on,73,0,0
1,note_on,74,51,0
1,note_on,86,60,0
1,note_on,86,0,480
1,note_on,74,0,0
1,note_on,45,74,0
1,note_on,45,0,960
1,note_on,74,48,0
1,note_on,86,58,0
1,note_on,86,0,240
1,note_on,74,0,0
1,note_on,71,45,0
1,note_on,83,53,0
1,note_on,83,0,240
1,note_on,71,0,0
1,note_on,72,45,0
1,note_on,84,54,0
1,note_on,84,0,480
1,note_on,72,0,0
1,note_on,81,56,0
1,note_on,69,47,0
1,note_on,69,0,240
1,note_on,81,0,0
1,note_on,71,50,0
1,note_on,83,59,0
1,note_on,83,0,240
1,note_on,71,0,0
1,note_on,72,52,0
1,note_on,84,62,0
1,note_on,84,0,240
1,note_on,72,0,0
1,note_on,74,55,0
1,note_on,86,65,0
1,note_on,86,0,240
1,note_on,74,0,0
1,note_on,88,68,0
1,note_on,76,57,0
1,note_on,76,0,480
1,note_on,88,0,0
1,note_on,74,56,0
1,note_on,86,66,0
1,note_on,86,0,360
1,note_on,74,0,0
1,note_on,72,46,0
1,note_on,84,55,0
1,note_on,84,0,120
1,note_on,72,0,0
1,note_on,84,61,0
1,note_on,72,51,0
1,note_on,72,0,480
1,note_on,84,0,0
1,note_on,71,47,0
1,note_on,83,56,0
1,note_on,83,0,480
1,note_on,71,0,0
1,note_on,68,50,0
1,note_on,80,59,0
1,note_on,80,0,480
1,note_on,68,0,0
1,note_on,69,47,0
1,note_on,81,56,0
1,note_on,81,0,240
1,note_on,69,0,0
1,note_on,81,56,250
1,note_on,69,47,0
1,note_on,69,0,240
1,note_on,81,0,0
1,note_on,71,50,0
1,note_on,83,59,0
1,note_on,83,0,240
1,note_on,71,0,0
1,note_on,72,52,0
1,note_on,84,62,0
1,note_on,84,0,240
1,note_on,72,0,0
1,note_on,74,55,0
1,note_on,86,65,0
1,note_on,86,0,240
1,note_on,74,0,0
1,note_on,88,68,0
1,note_on,76,57,0
1,note_on,76,0,480
1,note_on,88,0,0
1,note_on,74,56,0
1,note_on,86,66,0
1,note_on,86,0,360
1,note_on,74,0,0
1,note_on,72,46,0
1,note_on,84,55,0
1,note_on,84,0,120
1,note_on,72,0,0
1,note_on,84,61,0
1,note_on,72,51,0
1,note_on,72,0,480
1,note_on,84,0,0
1,note_on,71,47,0
1,note_on,83,56,0
1,note_on,81,69,470
1,note_on,83,0,10
1,note_on,71,0,0
1,note_on,81,0,110
1,note_on,75,61,0
1,note_on,75,0,120
1,note_on,76,61,0
1,note_on,76,0,120
1,note_on,69,61,0
1,note_on,69,0,120
1,note_on,69,66,0
1,note_on,69,0,120
1,note_on,63,61,0
1,note_on,63,0,120
1,note_on,64,61,0
1,note_on,64,0,120
1,note_on,57,61,0
1,note_on,57,0,120
1,note_on,82,69,0
1,note_on,82,0,120
1,note_on,76,62,0
1,note_on,76,0,120
1,note_on,77,62,0
1,note_on,77,0,120
1,note_on,70,62,0
1,note_on,70,0,120
1,note_on,70,66,0
1,note_on,70,0,120
1,note_on,64,62,0
1,note_on,64,0,120
1,note_on,65,62,0
1,note_on,65,0,120
1,note_on,58,63,0
1,note_on,58,0,120
1,note_on,85,72,0
1,note_on,85,0,120
1,note_on,78,63,0
1,note_on,78,0,120
1,note_on,79,64,0
1,note_on,79,0,120
1,note_on,73,64,0
1,note_on,73,0,120
1,note_on,73,70,0
1,note_on,73,0,120
1,note_on,66,64,0
1,note_on,66,0,120
1,note_on,67,63,0
1,note_on,67,0,120
1,note_on,61,63,0
1,note_on,61,0,120
1,note_on,86,75,0
1,note_on,86,0,120
1,note_on,80,63,0
1,note_on,80,0,120
1,note_on,81,64,0
1,note_on,81,0,120
1,note_on,74,64,0
1,note_on,74,0,120
1,note_on,74,69,0
1,note_on,74,0,120
1,note_on,68,64,0
1,note_on,68,0,120
1,note_on,69,64,0
1,note_on,69,0,120
1,note_on,62,64,0
1,note_on,62,0,120
1,note_on,89,76,0
1,note_on,89,0,120
1,note_on,85,65,0
1,note_on,85,0,120
1,note_on,86,65,0
1,note_on,86,0,120
1,note_on,77,65,0
1,note_on,77,0,120
1,note_on,89,71,0
1,note_on,89,0,120
1,note_on,85,66,0
1,note_on,85,0,120
1,note_on,86,66,0
1,note_on,86,0,120
1,note_on,77,66,0
1,note_on,77,0,120
1,note_on,89,70,0
1,note_on,89,0,120
1,note_on,85,61,0
1,note_on,85,0,120
1,note_on,86,61,0
1,note_on,86,0,120
1,note_on,77,61,0
1,note_on,77,0,120
1,note_on,80,64,0
1,note_on,80,0,120
1,note_on,83,58,0
1,note_on,83,0,120
1,note_on,86,58,0
1,note_on,86,0,120
1,note_on,89,58,0
1,note_on,89,0,120
1,note_on,88,61,0
1,note_on,76,51,0
1,note_on,76,0,480
1,note_on,88,0,0
1,note_on,74,50,0
1,note_on,86,59,0
1,note_on,86,0,360
1,note_on,74,0,0
1,note_on,72,41,0
1,note_on,84,49,0
1,note_on,84,0,120
1,note_on,72,0,0
1,note_on,84,54,0
1,note_on,72,45,0
1,note_on,72,0,480
1,note_on,84,0,0
1,note_on,71,42,0
1,note_on,83,50,0
1,note_on,83,0,480
1,note_on,71,0,0
1,note_on,88,43,0
1,note_on,76,36,0
1,note_on,76,0,480
1,note_on,88,0,0
1,note_on,74,36,0
1,note_on,86,42,0
1,note_on,86,0,360
1,note_on,74,0,0
1,note_on,72,28,0
1,note_on,84,35,0
1,note_on,84,0,120
1,note_on,72,0,0
1,note_on,84,38,0
1,note_on,72,32,0
1,note_on,72,0,480
1,note_on,84,0,0
1,note_on,71,29,0
1,note_on,83,36,0
1,note_on,83,0,480
1,note_on,71,0,0
1,note_on,81,69,0
1,note_on,81,0,120
1,note_on,75,61,0
1,note_on,75,0,120
1,note_on,76,61,0
1,note_on,76,0,120
1,note_on,69,61,0
1,note_on,69,0,113
1,note_on,69,66,7
1,note_on,69,0,120
1,note_on,63,61,0
1,note_on,63,0,120
1,note_on,64,61,0
1,note_on,64,0,120
1,note_on,57,61,0
1,note_on,57,0,120
1,note_on,82,68,0
1,note_on,82,0,120
1,note_on,76,61,0
1,note_on,76,0,120
1,note_on,77,62,0
1,note_on,77,0,120
1,note_on,70,62,0
1,note_on,70,0,112
1,note_on,70,66,8
1,note_on,70,0,120
1,note_on,64,62,0
1,note_on,64,0,120
1,note_on,65,62,0
1,note_on,65,0,120
1,note_on,58,62,0
1,note_on,58,0,120
1,note_on,85,72,0
1,note_on,85,0,120
1,note_on,78,62,0
1,note_on,78,0,120
1,note_on,79,62,0
1,note_on,79,0,120
1,note_on,73,62,0
1,note_on,73,0,113
1,note_on,73,69,7
1,note_on,73,0,120
1,note_on,66,63,0
1,note_on,66,0,120
1,note_on,67,62,0
1,note_on,67,0,120
1,note_on,61,62,0
1,note_on,61,0,120
1,note_on,86,74,0
1,note_on,86,0,120
1,note_on,80,63,0
1,note_on,80,0,120
1,note_on,81,63,0
1,note_on,81,0,120
1,note_on,74,63,0
1,note_on,74,0,113
1,note_on,74,68,7
1,note_on,74,0,120
1,note_on,68,63,0
1,note_on,68,0,120
1,note_on,69,63,0
1,note_on,69,0,120
1,note_on,62,63,0
1,note_on,62,0,120
1,note_on,88,74,0
1,note_on,88,0,120
1,note_on,82,64,0
1,note_on,82,0,120
1,note_on,83,65,0
1,note_on,83,0,120
1,note_on,76,65,0
1,note_on,76,0,111
1,note_on,76,71,9
1,note_on,76,0,120
1,note_on,70,65,0
1,note_on,70,0,120
1,note_on,71,64,0
1,note_on,71,0,120
1,note_on,64,64,0
1,note_on,64,0,120
1,note_on,89,76,0
1,note_on,89,0,120
1,note_on,83,64,0
1,note_on,83,0,120
1,note_on,84,64,0
1,note_on,84,0,120
1,note_on,77,64,0
1,note_on,77,0,109
1,note_on,77,70,11
1,note_on,77,0,120
1,note_on,71,65,0
1,note_on,71,0,120
1,note_on,72,65,0
1,note_on,72,0,120
1,note_on,65,65,0
1,note_on,65,0,120
1,note_on,80,81,0
1,note_on,92,88,0
1,note_on,92,0,240
1,note_on,80,0,0
1,note_on,91,81,0
1,note_on,91,0,120
1,note_on,89,80,0
1,note_on,89,0,120
1,note_on,87,79,0
1,note_on,87,0,120
1,note_on,86,78,0
1,note_on,86,0,120
1,note_on,84,77,0
1,note_on,84,0,120
1,note_on,82,76,0
1,note_on,82,0,120
1,note_on,80,75,0
1,note_on,80,0,120
1,note_on,79,74,0
1,note_on,79,0,120
1,note_on,77,73,0
1,note_on,77,0,120
1,note_on,75,72,0
1,note_on,75,0,120
1,note_on,74,72,0
1,note_on,74,0,120
1,note_on,72,71,0
1,note_on,72,0,120
1,note_on,70,70,0
1,note_on,70,0,120
1,note_on,69,69,0
1,note_on,69,0,120
1,note_on,68,68,0
1,note_on,68,0,120
1,note_on,67,66,0
1,note_on,67,0,120
1,note_on,65,65,0
1,note_on,65,0,120
1,note_on,63,64,0
1,note_on,63,0,120
1,note_on,62,63,0
1,note_on,62,0,120
1,note_on,60,62,0
1,note_on,60,0,120
1,note_on,58,61,0
1,note_on,58,0,120
1,note_on,56,60,0
1,note_on,56,0,120
1,note_on,57,59,0
1,note_on,57,0,120
1,note_on,58,59,0
1,note_on,58,0,120
1,note_on,60,58,0
1,note_on,60,0,120
1,note_on,58,57,0
1,note_on,58,0,120
1,note_on,57,56,0
1,note_on,57,0,120
1,note_on,58,55,0
1,note_on,58,0,120
1,note_on,60,54,0
1,note_on,60,0,120
1,note_on,58,53,0
1,note_on,58,0,120
1,note_on,57,53,0
1,note_on,57,0,160
1,note_on,60,46,0
1,note_on,60,0,160
1,note_on,58,46,0
1,note_on,58,0,160
1,note_on,57,51,0
1,note_on,57,0,160
1,note_on,60,45,0
1,note_on,60,0,160
1,note_on,58,45,0
1,note_on,58,0,160
1,note_on,57,53,0
1,note_on,57,0,160
1,note_on,60,42,0
1,note_on,60,0,160
1,note_on,58,42,0
1,note_on,58,0,160
1,note_on,57,49,0
1,note_on,57,0,160
1,note_on,60,38,0
1,note_on,60,0,160
1,note_on,58,38,0
1,note_on,58,0,160
1,note_on,57,36,0
1,note_on,69,44,0
1,note_on,69,0,240
1,note_on,57,0,0
1,note_on,60,30,0
1,note_on,72,36,0
1,note_on,72,0,240
1,note_on,60,0,0
1,note_on,58,30,0
1,note_on,70,36,0
1,note_on,70,0,480
1,note_on,58,0,0
1,note_on,57,35,0
1,note_on,69,42,0
1,note_on,69,0,240
1,note_on,57,0,0
1,note_on,60,29,0
1,note_on,72,35,0
1,note_on,72,0,240
1,note_on,60,0,0
1,note_on,58,29,0
1,note_on,70,35,0
1,note_on,70,0,480
1,note_on,58,0,0
1,note_on,69,44,0
1,note_on,69,0,240
1,note_on,72,39,0
1,note_on,72,0,240
1,note_on,70,50,0
1,note_on,70,0,720
1,note_on,72,46,0
1,note_on,72,0,240
1,note_on,74,48,0
1,note_on,74,0,240
1,note_on,75,50,0
1,note_on,75,0,240
1,note_on,69,52,0
1,note_on,69,0,240
1,note_on,72,49,0
1,note_on,72,0,240
1,note_on,70,53,0
1,note_on,70,0,720
1,note_on,72,47,0
1,note_on,72,0,240
1,note_on,74,49,0
1,note_on,74,0,240
1,note_on,75,52,0
1,note_on,75,0,240
1,note_on,76,57,0
1,note_on,76,0,240
1,note_on,79,55,0
1,note_on,79,0,240
1,note_on,77,58,0
1,note_on,77,0,720
1,note_on,74,55,0
1,note_on,74,0,240
1,note_on,72,53,0
1,note_on,72,0,240
1,note_on,70,53,0
1,note_on,70,0,240
1,note_on,76,57,0
1,note_on,76,0,240
1,note_on,79,53,0
1,note_on,79,0,240
1,note_on,77,58,0
1,note_on,77,0,720
1,note_on,74,55,0
1,note_on,74,0,240
1,note_on,72,53,0
1,note_on,72,0,240
1,note_on,70,53,0
1,note_on,70,0,240
1,note_on,81,55,0
1,note_on,69,46,0
1,note_on,69,0,240
1,note_on,81,0,0
1,note_on,84,51,0
1,note_on,72,42,0
1,note_on,72,0,240
1,note_on,84,0,0
1,note_on,82,58,0
1,note_on,70,49,0
1,note_on,70,0,720
1,note_on,82,0,0
1,note_on,84,50,0
1,note_on,72,42,0
1,note_on,72,0,240
1,note_on,84,0,0
1,note_on,86,52,0
1,note_on,74,44,0
1,note_on,74,0,240
1,note_on,86,0,0
1,note_on,87,55,0
1,note_on,75,46,0
1,note_on,75,0,240
1,note_on,87,0,0
1,note_on,81,57,0
1,note_on,69,48,0
1,note_on,69,0,240
1,note_on,81,0,0
1,note_on,84,53,0
1,note_on,72,45,0
1,note_on,72,0,240
1,note_on,84,0,0
1,note_on,82,58,0
1,note_on,70,49,0
1,note_on,70,0,720
1,note_on,82,0,0
1,note_on,84,51,0
1,note_on,72,42,0
1,note_on,72,0,240
1,note_on,84,0,0
1,note_on,86,53,0
1,note_on,74,45,0
1,note_on,74,0,240
1,note_on,86,0,0
1,note_on,87,57,0
1,note_on,75,48,0
1,note_on,75,0,240
1,note_on,87,0,0
1,note_on,88,62,0
1,note_on,76,52,0
1,note_on,76,0,240
1,note_on,88,0,0
1,note_on,91,56,0
1,note_on,79,47,0
1,note_on,79,0,240
1,note_on,91,0,0
1,note_on,89,61,0
1,note_on,77,51,0
1,note_on,77,0,720
1,note_on,89,0,0
1,note_on,86,60,0
1,note_on,74,50,0
1,note_on,74,0,240
1,note_on,86,0,0
1,note_on,84,58,0
1,note_on,72,49,0
1,note_on,72,0,240
1,note_on,84,0,0
1,note_on,82,58,0
1,note_on,70,49,0
1,note_on,70,0,240
1,note_on,82,0,0
1,note_on,88,62,0
1,note_on,76,52,0
1,note_on,76,0,240
1,note_on,88,0,0
1,note_on,91,57,0
1,note_on,79,48,0
1,note_on,79,0,240
1,note_on,91,0,0
1,note_on,89,62,0
1,note_on,77,52,0
1,note_on,77,0,720
1,note_on,89,0,0
1,note_on,86,60,0
1,note_on,74,50,0
1,note_on,74,0,240
1,note_on,86,0,0
1,note_on,84,58,0
1,note_on,72,49,0
1,note_on,72,0,240
1,note_on,84,0,0
1,note_on,82,58,0
1,note_on,70,49,0
1,note_on,70,0,240
1,note_on,82,0,0
1,note_on,82,62,0
1,note_on,70,52,0
1,note_on,70,0,240
1,note_on,82,0,0
1,note_on,92,57,0
1,note_on,80,48,0
1,note_on,80,0,240
1,note_on,92,0,0
1,note_on,91,62,0
1,note_on,79,52,0
1,note_on,79,0,720
1,note_on,91,0,0
1,note_on,89,60,0
1,note_on,77,50,0
1,note_on,77,0,240
1,note_on,89,0,0
1,note_on,86,58,0
1,note_on,74,49,0
1,note_on,74,0,240
1,note_on,86,0,0
1,note_on,83,58,0
1,note_on,71,49,0
1,note_on,71,0,240
1,note_on,83,0,0
1,note_on,79,62,0
1,note_on,67,52,0
1,note_on,67,0,240
1,note_on,79,0,0
1,note_on,89,57,0
1,note_on,77,48,0
1,note_on,77,0,240
1,note_on,89,0,0
1,note_on,87,62,0
1,note_on,75,52,0
1,note_on,75,0,720
1,note_on,87,0,0
1,note_on,85,60,0
1,note_on,73,50,0
1,note_on,73,0,240
1,note_on,85,0,0
1,note_on,82,58,0
1,note_on,70,49,0
1,note_on,70,0,240
1,note_on,82,0,0
1,note_on,79,58,0
1,note_on,67,49,0
1,note_on,67,0,240
1,note_on,79,0,0
1,note_on,75,62,0
1,note_on,63,52,0
1,note_on,63,0,240
1,note_on,75,0,0
1,note_on,85,56,0
1,note_on,73,47,0
1,note_on,73,0,240
1,note_on,85,0,0
1,note_on,84,60,0
1,note_on,72,50,0
1,note_on,72,0,720
1,note_on,84,0,0
1,note_on,82,54,0
1,note_on,70,45,0
1,note_on,70,0,240
1,note_on,82,0,0
1,note_on,84,51,0
1,note_on,72,43,0
1,note_on,72,0,240
1,note_on,84,0,0
1,note_on,85,50,0
1,note_on,73,42,0
1,note_on,73,0,240
1,note_on,85,0,0
1,note_on,75,52,0
1,note_on,63,44,0
1,note_on,63,0,240
1,note_on,75,0,0
1,note_on,82,47,0
1,note_on,70,40,0
1,note_on,70,0,240
1,note_on,82,0,0
1,note_on,80,50,0
1,note_on,68,42,0
1,note_on,68,0,720
1,note_on,80,0,0
1,note_on,79,45,0
1,note_on,67,38,0
1,note_on,67,0,240
1,note_on,79,0,0
1,note_on,80,42,0
1,note_on,68,36,0
1,note_on,68,0,240
1,note_on,80,0,0
1,note_on,82,41,0
1,note_on,70,35,0
1,note_on,70,0,240
1,note_on,82,0,0
1,note_on,74,44,0
1,note_on,74,0,240
1,note_on,77,40,0
1,note_on,77,0,240
1,note_on,75,46,0
1,note_on,75,0,660
1,note_on,72,41,0
1,note_on,72,0,60
1,note_on,87,55,0
1,note_on,87,0,180
1,note_on,70,38,0
1,note_on,70,0,60
1,note_on,85,52,0
1,note_on,85,0,180
1,note_on,68,38,0
1,note_on,68,0,60
1,note_on,84,52,0
1,note_on,84,0,240
1,note_on,74,44,0
1,note_on,74,0,240
1,note_on,77,40,0
1,note_on,77,0,240
1,note_on,75,46,0
1,note_on,75,0,660
1,note_on,72,41,0
1,note_on,72,0,60
1,note_on,87,55,0
1,note_on,87,0,180
1,note_on,70,38,0
1,note_on,70,0,60
1,note_on,85,52,0
1,note_on,85,0,180
1,note_on,68,38,0
1,note_on,68,0,60
1,note_on,84,52,0
1,note_on,84,0,240
1,note_on,69,44,0
1,note_on,69,0,240
1,note_on,72,40,0
1,note_on,72,0,240
1,note_on,70,46,0
1,note_on,70,0,660
1,note_on,63,41,0
1,note_on,63,0,60
1,note_on,79,55,0
1,note_on,79,0,180
1,note_on,65,38,0
1,note_on,65,0,60
1,note_on,80,52,0
1,note_on,80,0,180
1,note_on,67,38,0
1,note_on,67,0,60
1,note_on,82,52,0
1,note_on,82,0,240
1,note_on,69,44,0
1,note_on,69,0,240
1,note_on,72,40,0
1,note_on,72,0,240
1,note_on,70,46,0
1,note_on,70,0,660
1,note_on,63,41,0
1,note_on,63,0,60
1,note_on,79,55,0
1,note_on,79,0,180
1,note_on,65,38,0
1,note_on,65,0,60
1,note_on,80,52,0
1,note_on,80,0,180
1,note_on,67,38,0
1,note_on,67,0,60
1,note_on,82,52,0
1,note_on,82,0,240
1,note_on,75,58,0
1,note_on,63,49,0
1,note_on,63,0,240
1,note_on,75,0,0
1,note_on,85,54,0
1,note_on,73,45,0
1,note_on,73,0,240
1,note_on,85,0,0
1,note_on,84,58,0
1,note_on,72,49,0
1,note_on,72,0,720
1,note_on,84,0,0
1,note_on,82,57,0
1,note_on,70,47,0
1,note_on,70,0,240
1,note_on,82,0,0
1,note_on,79,55,0
1,note_on,67,46,0
1,note_on,67,0,240
1,note_on,79,0,0
1,note_on,76,55,0
1,note_on,64,46,0
1,note_on,64,0,240
1,note_on,76,0,0
1,note_on,84,58,0
1,note_on,72,49,0
1,note_on,72,0,240
1,note_on,84,0,0
1,note_on,94,54,0
1,note_on,82,45,0
1,note_on,82,0,240
1,note_on,94,0,0
1,note_on,92,58,0
1,note_on,80,49,0
1,note_on,80,0,720
1,note_on,92,0,0
1,note_on,90,57,0
1,note_on,78,47,0
1,note_on,78,0,240
1,note_on,90,0,0
1,note_on,87,55,0
1,note_on,75,46,0
1,note_on,75,0,240
1,note_on,87,0,0
1,note_on,84,55,0
1,note_on,72,46,0
1,note_on,72,0,240
1,note_on,84,0,0
1,note_on,80,62,0
1,note_on,68,52,0
1,note_on,68,0,240
1,note_on,80,0,0
1,note_on,90,56,0
1,note_on,78,47,0
1,note_on,78,0,240
1,note_on,90,0,0
1,note_on,89,60,0
1,note_on,77,50,0
1,note_on,77,0,720
1,note_on,89,0,0
1,note_on,87,54,0
1,note_on,75,45,0
1,note_on,75,0,240
1,note_on,87,0,0
1,note_on,89,51,0
1,note_on,77,43,0
1,note_on,77,0,240
1,note_on,89,0,0
1,note_on,90,50,0
1,note_on,78,42,0
1,note_on,78,0,240
1,note_on,90,0,0
1,note_on,80,52,0
1,note_on,68,44,0
1,note_on,68,0,240
1,note_on,80,0,0
1,note_on,87,47,0
1,note_on,75,40,0
1,note_on,75,0,240
1,note_on,87,0,0
1,note_on,85,50,0
1,note_on,73,42,0
1,note_on,73,0,720
1,note_on,85,0,0
1,note_on,84,45,0
1,note_on,72,38,0
1,note_on,72,0,240
1,note_on,84,0,0
1,note_on,85,42,0
1,note_on,73,36,0
1,note_on,73,0,240
1,note_on,85,0,0
1,note_on,87,41,0
1,note_on,75,35,0
1,note_on,75,0,240
1,note_on,87,0,0
1,note_on,77,77,0
1,note_on,80,77,0
1,note_on,85,77,0
1,note_on,89,92,0
1,note_on,89,0,475
1,note_on,77,0,0
1,note_on,80,0,0
1,note_on,85,0,0
1,note_on,77,73,5
1,note_on,80,73,0
1,note_on,85,73,0
1,note_on,89,87,0
1,note_on,89,0,120
1,note_on,77,0,0
1,note_on,80,0,0
1,note_on,85,0,0
1,note_on,77,73,120
1,note_on,80,73,0
1,note_on,85,73,0
1,note_on,89,87,0
1,note_on,89,0,120
1,note_on,77,0,0
1,note_on,80,0,0
1,note_on,85,0,0
1,note_on,77,77,120
1,note_on,80,77,0
1,note_on,85,77,0
1,note_on,89,92,0
1,note_on,89,0,475
1,note_on,77,0,0
1,note_on,80,0,0
1,note_on,85,0,0
1,note_on,77,72,5
1,note_on,80,72,0
1,note_on,85,72,0
1,note_on,89,86,0
1,note_on,89,0,120
1,note_on,77,0,0
1,note_on,80,0,0
1,note_on,85,0,0
1,note_on,77,72,120
1,note_on,80,72,0
1,note_on,85,72,0
1,note_on,89,86,0
1,note_on,89,0,120
1,note_on,77,0,0
1,note_on,80,0,0
1,note_on,85,0,0
1,note_on,77,77,120
1,note_on,80,77,0
1,note_on,85,77,0
1,note_on,89,92,0
1,note_on,89,0,180
1,note_on,77,0,0
1,note_on,80,0,0
1,note_on,85,0,0
1,note_on,89,70,60
1,note_on,89,0,120
1,note_on,85,72,0
1,note_on,85,0,120
1,note_on,80,73,0
1,note_on,80,0,120
1,note_on,77,75,0
1,note_on,77,0,120
1,note_on,73,77,0
1,note_on,73,0,120
1,note_on,68,78,0
1,note_on,68,0,120
1,note_on,65,81,0
1,note_on,65,0,120
1,note_on,61,80,0
1,note_on,61,0,120
1,note_on,65,79,0
1,note_on,65,0,120
1,note_on,68,78,0
1,note_on,68,0,120
1,note_on,73,78,0
1,note_on,73,0,120
1,note_on,77,77,0
1,note_on,77,0,120
1,note_on,80,76,0
1,note_on,80,0,120
1,note_on,85,75,0
1,note_on,85,0,120
1,note_on,77,77,0
1,note_on,82,77,0
1,note_on,85,77,0
1,note_on,89,92,0
1,note_on,89,0,475
1,note_on,77,0,0
1,note_on,82,0,0
1,note_on,85,0,0
1,note_on,77,73,5
1,note_on,82,73,0
1,note_on,85,73,0
1,note_on,89,87,0
1,note_on,89,0,120
1,note_on,77,0,0
1,note_on,82,0,0
1,note_on,85,0,0
1,note_on,77,73,120
1,note_on,82,73,0
1,note_on,85,73,0
1,note_on,89,87,0
1,note_on,89,0,120
1,note_on,77,0,0
1,note_on,82,0,0
1,note_on,85,0,0
1,note_on,77,77,120
1,note_on,82,77,0
1,note_on,85,77,0
1,note_on,89,92,0
1,note_on,89,0,475
1,note_on,77,0,0
1,note_on,82,0,0
1,note_on,85,0,0
1,note_on,77,72,5
1,note_on,82,72,0
1,note_on,85,72,0
1,note_on,89,86,0
1,note_on,89,0,120
1,note_on,77,0,0
1,note_on,82,0,0
1,note_on,85,0,0
1,note_on,77,72,120
1,note_on,82,72,0
1,note_on,85,72,0
1,note_on,89,86,0
1,note_on,89,0,120
1,note_on,77,0,0
1,note_on,82,0,0
1,note_on,85,0,0
1,note_on,77,77,120
1,note_on,82,77,0
1,note_on,85,77,0
1,note_on,89,92,0
1,note_on,89,0,180
1,note_on,77,0,0
1,note_on,82,0,0
1,note_on,85,0,0
1,note_on,89,71,60
1,note_on,89,0,120
1,note_on,85,72,0
1,note_on,85,0,120
1,note_on,82,73,0
1,note_on,82,0,120
1,note_on,77,74,0
1,note_on,77,0,120
1,note_on,73,75,0
1,note_on,73,0,120
1,note_on,70,75,0
1,note_on,70,0,120
1,note_on,65,76,0
1,note_on,65,0,120
1,note_on,61,77,0
1,note_on,61,0,120
1,note_on,65,76,0
1,note_on,65,0,120
1,note_on,70,75,0
1,note_on,70,0,120
1,note_on,73,74,0
1,note_on,73,0,120
1,note_on,77,73,0
1,note_on,77,0,120
1,note_on,82,73,0
1,note_on,82,0,120
1,note_on,85,72,0
1,note_on,85,0,120
1,note_on,78,69,0
1,note_on,82,69,0
1,note_on,85,69,0
1,note_on,90,82,0
1,note_on,90,0,475
1,note_on,78,0,0
1,note_on,82,0,0
1,note_on,85,0,0
1,note_on,78,66,5
1,note_on,82,66,0
1,note_on,85,66,0
1,note_on,90,77,0
1,note_on,90,0,120
1,note_on,78,0,0
1,note_on,82,0,0
1,note_on,85,0,0
1,note_on,78,66,120
1,note_on,82,66,0
1,note_on,85,66,0
1,note_on,90,77,0
1,note_on,90,0,120
1,note_on,78,0,0
1,note_on,82,0,0
1,note_on,85,0,0
1,note_on,78,75,120
1,note_on,81,75,0
1,note_on,86,75,0
1,note_on,90,90,0
1,note_on,90,0,475
1,note_on,78,0,0
1,note_on,81,0,0
1,note_on,86,0,0
1,note_on,78,71,5
1,note_on,81,71,0
1,note_on,86,71,0
1,note_on,90,84,0
1,note_on,90,0,120
1,note_on,78,0,0
1,note_on,81,0,0
1,note_on,86,0,0
1,note_on,78,71,120
1,note_on,81,71,0
1,note_on,86,71,0
1,note_on,90,84,0
1,note_on,90,0,120
1,note_on,78,0,0
1,note_on,81,0,0
1,note_on,86,0,0
1,note_on,78,75,120
1,note_on,80,75,0
1,note_on,87,75,0
1,note_on,90,90,0
1,note_on,90,0,180
1,note_on,78,0,0
1,note_on,80,0,0
1,note_on,87,0,0
1,note_on,78,60,60
1,note_on,78,0,120
1,note_on,77,62,0
1,note_on,77,0,120
1,note_on,75,63,0
1,note_on,75,0,120
1,note_on,77,64,0
1,note_on,77,0,120
1,note_on,75,66,0
1,note_on,75,0,120
1,note_on,73,67,0
1,note_on,73,0,120
1,note_on,72,70,0
1,note_on,72,0,120
1,note_on,73,70,0
1,note_on,73,0,120
1,note_on,72,69,0
1,note_on,72,0,120
1,note_on,73,68,0
1,note_on,73,0,120
1,note_on,75,67,0
1,note_on,75,0,120
1,note_on,77,66,0
1,note_on,77,0,120
1,note_on,78,65,0
1,note_on,78,0,120
1,note_on,80,64,0
1,note_on,80,0,120
1,note_on,78,69,0
1,note_on,82,69,0
1,note_on,85,69,0
1,note_on,90,82,0
1,note_on,90,0,475
1,note_on,78,0,0
1,note_on,82,0,0
1,note_on,85,0,0
1,note_on,78,66,5
1,note_on,82,66,0
1,note_on,85,66,0
1,note_on,90,77,0
1,note_on,90,0,120
1,note_on,78,0,0
1,note_on,82,0,0
1,note_on,85,0,0
1,note_on,78,66,120
1,note_on,82,66,0
1,note_on,85,66,0
1,note_on,90,77,0
1,note_on,90,0,120
1,note_on,78,0,0
1,note_on,82,0,0
1,note_on,85,0,0
1,note_on,78,75,120
1,note_on,81,75,0
1,note_on,86,75,0
1,note_on,90,90,0
1,note_on,90,0,475
1,note_on,78,0,0
1,note_on,81,0,0
1,note_on,86,0,0
1,note_on,78,71,5
1,note_on,81,71,0
1,note_on,86,71,0
1,note_on,90,84,0
1,note_on,90,0,120
1,note_on,78,0,0
1,note_on,81,0,0
1,note_on,86,0,0
1,note_on,78,71,120
1,note_on,81,71,0
1,note_on,86,71,0
1,note_on,90,84,0
1,note_on,90,0,120
1,note_on,78,0,0
1,note_on,81,0,0
1,note_on,86,0,0
1,note_on,78,75,120
1,note_on,80,75,0
1,note_on,87,75,0
1,note_on,90,90,0
1,note_on,90,0,180
1,note_on,78,0,0
1,note_on,80,0,0
1,note_on,87,0,0
1,note_on,78,61,60
1,note_on,78,0,120
1,note_on,77,62,0
1,note_on,77,0,120
1,note_on,75,63,0
1,note_on,75,0,120
1,note_on,77,64,0
1,note_on,77,0,120
1,note_on,75,65,0
1,note_on,75,0,120
1,note_on,73,67,0
1,note_on,73,0,120
1,note_on,72,68,0
1,note_on,72,0,120
1,note_on,73,68,0
1,note_on,73,0,120
1,note_on,72,68,0
1,note_on,72,0,120
1,note_on,73,67,0
1,note_on,73,0,120
1,note_on,75,66,0
1,note_on,75,0,120
1,note_on,77,66,0
1,note_on,77,0,120
1,note_on,78,65,0
1,note_on,78,0,120
1,note_on,80,65,0
1,note_on,80,0,120
1,note_on,69,68,0
1,note_on,73,68,0
1,note_on,78,68,0
1,note_on,81,80,0
1,note_on,81,0,475
1,note_on,69,0,0
1,note_on,73,0,0
1,note_on,78,0,0
1,note_on,69,63,5
1,note_on,73,63,0
1,note_on,78,63,0
1,note_on,81,74,0
1,note_on,81,0,120
1,note_on,69,0,0
1,note_on,73,0,0
1,note_on,78,0,0
1,note_on,69,63,120
1,note_on,78,63,0
1,note_on,73,63,0
1,note_on,81,74,0
1,note_on,81,0,120
1,note_on,69,0,0
1,note_on,78,0,0
1,note_on,73,0,0
1,note_on,74,69,120
1,note_on,78,69,0
1,note_on,81,69,0
1,note_on,86,81,0
1,note_on,86,0,475
1,note_on,74,0,0
1,note_on,78,0,0
1,note_on,81,0,0
1,note_on,74,65,5
1,note_on,78,65,0
1,note_on,81,65,0
1,note_on,86,76,0
1,note_on,86,0,120
1,note_on,74,0,0
1,note_on,78,0,0
1,note_on,81,0,0
1,note_on,74,65,120
1,note_on,78,65,0
1,note_on,81,65,0
1,note_on,86,77,0
1,note_on,86,0,120
1,note_on,74,0,0
1,note_on,78,0,0
1,note_on,81,0,0
1,note_on,71,58,120
1,note_on,79,58,0
1,note_on,83,82,0
1,note_on,83,0,480
1,note_on,79,0,0
1,note_on,71,0,0
1,note_on,72,64,0
1,note_on,76,64,0
1,note_on,81,64,0
1,note_on,84,75,0
1,note_on,84,0,480
1,note_on,72,0,0
1,note_on,76,0,0
1,note_on,81,0,0
1,note_on,69,68,0
1,note_on,74,68,0
1,note_on,79,68,0
1,note_on,81,80,0
1,note_on,81,0,480
1,note_on,69,0,0
1,note_on,74,0,0
1,note_on,79,0,0
1,note_on,74,70,0
1,note_on,78,70,0
1,note_on,81,70,0
1,note_on,86,82,0
1,note_on,86,0,480
1,note_on,74,0,0
1,note_on,78,0,0
1,note_on,81,0,0
1,note_on,71,69,0
1,note_on,79,69,0
1,note_on,83,81,0
1,note_on,83,0,480
1,note_on,79,0,0
1,note_on,71,0,0
1,note_on,72,65,0
1,note_on,76,65,0
1,note_on,81,77,0
1,note_on,84,77,0
1,note_on,84,0,480
1,note_on,72,0,0
1,note_on,76,0,0
1,note_on,81,0,0
1,note_on,69,72,0
1,note_on,74,72,0
1,note_on,79,72,0
1,note_on,81,85,0
1,note_on,81,0,480
1,note_on,69,0,0
1,note_on,74,0,0
1,note_on,79,0,0
1,note_on,74,75,0
1,note_on,78,75,0
1,note_on,81,75,0
1,note_on,86,88,0
1,note_on,86,0,480
1,note_on,74,0,0
1,note_on,78,0,0
1,note_on,81,0,0
1,note_on,67,74,0
1,note_on,71,74,0
1,note_on,79,88,0
1,note_on,79,0,475
1,note_on,71,0,0
1,note_on,67,0,0
1,note_on,67,67,5
1,note_on,71,67,0
1,note_on,79,80,0
1,note_on,79,0,120
1,note_on,71,0,0
1,note_on,67,0,0
1,note_on,67,67,120
1,note_on,71,67,0
1,note_on,79,80,0
1,note_on,79,0,120
1,note_on,71,0,0
1,note_on,67,0,0
1,note_on,67,72,120
1,note_on,71,72,0
1,note_on,79,86,0
1,note_on,79,0,475
1,note_on,71,0,0
1,note_on,67,0,0
1,note_on,67,67,5
1,note_on,71,67,0
1,note_on,79,80,0
1,note_on,79,0,120
1,note_on,71,0,0
1,note_on,67,0,0
1,note_on,67,67,120
1,note_on,71,67,0
1,note_on,79,80,0
1,note_on,79,0,120
1,note_on,71,0,0
1,note_on,67,0,0
1,note_on,67,73,120
1,note_on,72,73,0
1,note_on,79,87,0
1,note_on,79,0,480
1,note_on,72,0,0
1,note_on,67,0,0
1,note_on,65,67,0
1,note_on,72,67,0
1,note_on,77,80,0
1,note_on,77,0,480
1,note_on,72,0,0
1,note_on,65,0,0
1,note_on,77,70,0
1,note_on,84,70,0
1,note_on,89,84,0
1,note_on,89,0,240
1,note_on,84,0,0
1,note_on,77,0,0
1,note_on,65,58,0
1,note_on,72,58,0
1,note_on,77,70,0
1,note_on,77,0,114
1,note_on,72,0,0
1,note_on,65,0,0
1,note_on,65,58,6
1,note_on,72,58,0
1,note_on,77,70,0
1,note_on,77,0,114
1,note_on,72,0,0
1,note_on,65,0,0
1,note_on,65,65,6
1,note_on,72,65,0
1,note_on,77,77,0
1,note_on,77,0,228
1,note_on,72,0,0
1,note_on,65,0,0
1,note_on,65,64,12
1,note_on,72,64,0
1,note_on,77,75,0
1,note_on,77,0,228
1,note_on,72,0,0
1,note_on,65,0,0
1,note_on,68,74,12
1,note_on,72,74,0
1,note_on,77,88,0
1,note_on,77,0,475
1,note_on,72,0,0
1,note_on,68,0,0
1,note_on,68,67,5
1,note_on,72,67,0
1,note_on,77,80,0
1,note_on,77,0,120
1,note_on,72,0,0
1,note_on,68,0,0
1,note_on,68,67,120
1,note_on,72,67,0
1,note_on,77,80,0
1,note_on,77,0,120
1,note_on,72,0,0
1,note_on,68,0,0
1,note_on,68,72,120
1,note_on,72,72,0
1,note_on,77,86,0
1,note_on,77,0,475
1,note_on,72,0,0
1,note_on,68,0,0
1,note_on,68,67,5
1,note_on,72,67,0
1,note_on,77,80,0
1,note_on,77,0,120
1,note_on,72,0,0
1,note_on,68,0,0
1,note_on,68,67,120
1,note_on,72,67,0
1,note_on,77,80,0
1,note_on,77,0,120
1,note_on,72,0,0
1,note_on,68,0,0
1,note_on,67,73,120
1,note_on,70,73,0
1,note_on,77,87,0
1,note_on,77,0,480
1,note_on,70,0,0
1,note_on,67,0,0
1,note_on,67,67,0
1,note_on,70,67,0
1,note_on,75,80,0
1,note_on,75,0,480
1,note_on,70,0,0
1,note_on,67,0,0
1,note_on,75,73,0
1,note_on,82,73,0
1,note_on,87,88,0
1,note_on,87,0,240
1,note_on,82,0,0
1,note_on,75,0,0
1,note_on,63,58,0
1,note_on,70,58,0
1,note_on,75,70,0
1,note_on,75,0,114
1,note_on,70,0,0
1,note_on,63,0,0
1,note_on,63,58,6
1,note_on,70,58,0
1,note_on,75,70,0
1,note_on,75,0,114
1,note_on,70,0,0
1,note_on,63,0,0
1,note_on,63,65,6
1,note_on,70,65,0
1,note_on,75,77,0
1,note_on,75,0,228
1,note_on,70,0,0
1,note_on,63,0,0
1,note_on,63,64,12
1,note_on,70,64,0
1,note_on,75,75,0
1,note_on,75,0,228
1,note_on,70,0,0
1,note_on,63,0,0
1,note_on,67,74,12
1,note_on,70,74,0
1,note_on,75,88,0
1,note_on,75,0,480
1,note_on,70,0,0
1,note_on,67,0,0
1,note_on,67,67,0
1,note_on,70,67,0
1,note_on,75,80,0
1,note_on,75,0,120
1,note_on,70,0,0
1,note_on,67,0,0
1,note_on,67,67,120
1,note_on,70,67,0
1,note_on,75,80,0
1,note_on,75,0,120
1,note_on,70,0,0
1,note_on,67,0,0
1,note_on,67,72,120
1,note_on,70,72,0
1,note_on,75,86,0
1,note_on,75,0,480
1,note_on,70,0,0
1,note_on,67,0,0
1,note_on,67,67,0
1,note_on,70,67,0
1,note_on,75,80,0
1,note_on,75,0,120
1,note_on,70,0,0
1,note_on,67,0,0
1,note_on,67,67,120
1,note_on,70,67,0
1,note_on,75,80,0
1,note_on,75,0,120
1,note_on,70,0,0
1,note_on,67,0,0
1,note_on,65,73,120
1,note_on,68,73,0
1,note_on,75,87,0
1,note_on,75,0,480
1,note_on,68,0,0
1,note_on,65,0,0
1,note_on,65,67,0
1,note_on,68,67,0
1,note_on,73,80,0
1,note_on,73,0,480
1,note_on,68,0,0
1,note_on,65,0,0
1,note_on,73,73,0
1,note_on,80,73,0
1,note_on,85,88,0
1,note_on,85,0,228
1,note_on,80,0,0
1,note_on,73,0,0
1,note_on,61,58,12
1,note_on,68,58,0
1,note_on,73,70,0
1,note_on,73,0,114
1,note_on,68,0,0
1,note_on,61,0,0
1,note_on,61,58,6
1,note_on,68,58,0
1,note_on,73,70,0
1,note_on,73,0,114
1,note_on,68,0,0
1,note_on,61,0,0
1,note_on,61,65,6
1,note_on,68,65,0
1,note_on,73,77,0
1,note_on,73,0,228
1,note_on,68,0,0
1,note_on,61,0,0
1,note_on,61,64,12
1,note_on,68,64,0
1,note_on,73,75,0
1,note_on,73,0,228
1,note_on,68,0,0
1,note_on,61,0,0
1,note_on,61,73,12
1,note_on,67,73,0
1,note_on,73,87,0
1,note_on,73,0,480
1,note_on,67,0,0
1,note_on,61,0,0
1,note_on,60,67,0
1,note_on,67,67,0
1,note_on,72,80,0
1,note_on,72,0,480
1,note_on,67,0,0
1,note_on,60,0,0
1,note_on,72,73,0
1,note_on,79,73,0
1,note_on,84,88,0
1,note_on,84,0,228
1,note_on,79,0,0
1,note_on,72,0,0
1,note_on,60,58,12
1,note_on,67,58,0
1,note_on,72,70,0
1,note_on,72,0,114
1,note_on,67,0,0
1,note_on,60,0,0
1,note_on,60,58,6
1,note_on,67,58,0
1,note_on,72,70,0
1,note_on,72,0,114
1,note_on,67,0,0
1,note_on,60,0,0
1,note_on,60,65,6
1,note_on,67,65,0
1,note_on,72,77,0
1,note_on,72,0,228
1,note_on,67,0,0
1,note_on,60,0,0
1,note_on,60,64,12
1,note_on,67,64,0
1,note_on,72,75,0
1,note_on,72,0,228
1,note_on,67,0,0
1,note_on,60,0,0
1,note_on,60,73,12
1,note_on,65,73,0
1,note_on,72,87,0
1,note_on,72,0,480
1,note_on,65,0,0
1,note_on,60,0,0
1,note_on,58,67,0
1,note_on,65,67,0
1,note_on,70,80,0
1,note_on,70,0,480
1,note_on,65,0,0
1,note_on,58,0,0
1,note_on,70,76,0
1,note_on,75,76,0
1,note_on,82,90,0
1,note_on,82,0,480
1,note_on,75,0,0
1,note_on,70,0,0
1,note_on,68,70,0
1,note_on,75,70,0
1,note_on,80,84,0
1,note_on,80,0,480
1,note_on,75,0,0
1,note_on,68,0,0
1,note_on,56,76,0
1,note_on,62,76,0
1,note_on,68,90,0
1,note_on,68,0,480
1,note_on,62,0,0
1,note_on,56,0,0
1,note_on,55,70,0
1,note_on,62,70,0
1,note_on,67,84,0
1,note_on,67,0,480
1,note_on,62,0,0
1,note_on,55,0,0
1,note_on,67,80,0
1,note_on,72,80,0
1,note_on,79,94,0
1,note_on,79,0,480
1,note_on,72,0,0
1,note_on,67,0,0
1,note_on,66,73,0
1,note_on,72,73,0
1,note_on,78,87,0
1,note_on,78,0,480
1,note_on,72,0,0
1,note_on,66,0,0
1,note_on,67,73,0
1,note_on,79,73,0
1,note_on,79,0,120
1,note_on,67,0,0
1,note_on,81,74,0
1,note_on,81,0,120
1,note_on,79,75,0
1,note_on,79,0,120
1,note_on,81,76,0
1,note_on,81,0,120
1,note_on,83,77,0
1,note_on,83,0,120
1,note_on,84,78,0
1,note_on,84,0,120
1,note_on,83,79,0
1,note_on,83,0,120
1,note_on,84,80,0
1,note_on,84,0,120
1,note_on,86,81,0
1,note_on,86,0,120
1,note_on,87,82,0
1,note_on,87,0,120
1,note_on,86,84,0
1,note_on,86,0,120
1,note_on,87,85,0
1,note_on,87,0,120
1,note_on,89,86,0
1,note_on,89,0,120
1,note_on,91,87,0
1,note_on,91,0,120
1,note_on,89,88,0
1,note_on,89,0,120
1,note_on,91,89,0
1,note_on,91,0,120
1,note_on,80,90,0
1,note_on,92,90,0
1,note_on,92,0,960
1,note_on,80,0,0
1,note_on,68,77,0
1,note_on,80,77,0
1,note_on,80,0,960
1,note_on,68,0,0
1,note_on,77,73,0
1,note_on,77,0,120
1,note_on,79,74,0
1,note_on,79,0,120
1,note_on,77,75,0
1,note_on,77,0,120
1,note_on,79,76,0
1,note_on,79,0,120
1,note_on,80,77,0
1,note_on,80,0,120
1,note_on,82,78,0
1,note_on,82,0,120
1,note_on,80,79,0
1,note_on,80,0,120
1,note_on,82,80,0
1,note_on,82,0,120
1,note_on,84,81,0
1,note_on,84,0,120
1,note_on,86,82,0
1,note_on,86,0,120
1,note_on,84,84,0
1,note_on,84,0,120
1,note_on,86,85,0
1,note_on,86,0,120
1,note_on,87,86,0
1,note_on,87,0,120
1,note_on,89,87,0
1,note_on,89,0,120
1,note_on,87,88,0
1,note_on,87,0,120
1,note_on,89,89,0
1,note_on,89,0,120
1,note_on,79,90,0
1,note_on,91,90,0
1,note_on,91,0,960
1,note_on,79,0,0
1,note_on,67,77,0
1,note_on,79,77,0
1,note_on,79,0,960
1,note_on,67,0,0
1,note_on,75,73,0
1,note_on,75,0,120
1,note_on,77,74,0
1,note_on,77,0,120
1,note_on,75,75,0
1,note_on,75,0,120
1,note_on,77,76,0
1,note_on,77,0,120
1,note_on,79,77,0
1,note_on,79,0,120
1,note_on,80,78,0
1,note_on,80,0,120
1,note_on,79,79,0
1,note_on,79,0,120
1,note_on,80,80,0
1,note_on,80,0,120
1,note_on,82,81,0
1,note_on,82,0,120
1,note_on,84,82,0
1,note_on,84,0,120
1,note_on,82,84,0
1,note_on,82,0,120
1,note_on,84,85,0
1,note_on,84,0,120
1,note_on,86,86,0
1,note_on,86,0,120
1,note_on,87,87,0
1,note_on,87,0,120
1,note_on,86,88,0
1,note_on,86,0,120
1,note_on,87,89,0
1,note_on,87,0,120
1,note_on,77,90,0
1,note_on,89,90,0
1,note_on,89,0,960
1,note_on,77,0,0
1,note_on,65,77,0
1,note_on,77,77,0
1,note_on,77,0,960
1,note_on,65,0,0
1,note_on,75,90,0
1,note_on,87,90,0
1,note_on,87,0,960
1,note_on,75,0,0
1,note_on,63,77,0
1,note_on,75,77,0
1,note_on,75,0,960
1,note_on,63,0,0
1,note_on,73,76,0
1,note_on,85,90,0
1,note_on,85,0,360
1,note_on,73,0,0
1,note_on,61,67,0
1,note_on,73,79,0
1,note_on,73,0,114
1,note_on,61,0,0
1,note_on,61,67,6
1,note_on,73,79,0
1,note_on,73,0,480
1,note_on,61,0,0
1,note_on,72,76,0
1,note_on,84,90,0
1,note_on,84,0,360
1,note_on,72,0,0
1,note_on,60,67,0
1,note_on,72,79,0
1,note_on,72,0,114
1,note_on,60,0,0
1,note_on,60,67,6
1,note_on,72,79,0
1,note_on,72,0,480
1,note_on,60,0,0
1,note_on,70,76,0
1,note_on,82,90,0
1,note_on,82,0,360
1,note_on,70,0,0
1,note_on,58,67,0
1,note_on,70,79,0
1,note_on,70,0,114
1,note_on,58,0,0
1,note_on,58,67,6
1,note_on,70,79,0
1,note_on,70,0,480
1,note_on,58,0,0
1,note_on,75,76,0
1,note_on,72,76,0
1,note_on,68,76,0
1,note_on,80,90,0
1,note_on,80,0,357
1,note_on,75,0,0
1,note_on,72,0,0
1,note_on,68,0,0
1,note_on,63,67,3
1,note_on,60,67,0
1,note_on,56,67,0
1,note_on,68,79,0
1,note_on,68,0,114
1,note_on,63,0,0
1,note_on,60,0,0
1,note_on,56,0,0
1,note_on,63,67,6
1,note_on,60,67,0
1,note_on,56,67,0
1,note_on,68,79,0
1,note_on,68,0,480
1,note_on,63,0,0
1,note_on,60,0,0
1,note_on,56,0,0
1,note_on,59,73,0
1,note_on,62,73,0
1,note_on,67,87,0
1,note_on,67,0,480
1,note_on,62,0,0
1,note_on,59,0,0
1,note_on,62,66,0
1,note_on,74,78,0
1,note_on,74,0,90
1,note_on,62,0,0
1,note_on,63,68,30
1,note_on,75,80,0
1,note_on,75,0,90
1,note_on,63,0,0
1,note_on,65,70,30
1,note_on,77,82,0
1,note_on,77,0,90
1,note_on,65,0,0
1,note_on,67,72,30
1,note_on,79,86,0
1,note_on,79,0,90
1,note_on,67,0,0
1,note_on,68,74,30
1,note_on,80,88,0
1,note_on,80,0,475
1,note_on,68,0,0
1,note_on,72,68,5
1,note_on,75,68,0
1,note_on,80,80,0
1,note_on,80,0,240
1,note_on,75,0,0
1,note_on,72,0,0
1,note_on,72,66,0
1,note_on,75,66,0
1,note_on,80,78,0
1,note_on,80,0,240
1,note_on,75,0,0
1,note_on,72,0,0
1,note_on,71,73,0
1,note_on,74,73,0
1,note_on,79,87,0
1,note_on,79,0,475
1,note_on,74,0,0
1,note_on,71,0,0
1,note_on,74,66,5
1,note_on,86,78,0
1,note_on,86,0,90
1,note_on,74,0,0
1,note_on,75,68,30
1,note_on,87,80,0
1,note_on,87,0,90
1,note_on,75,0,0
1,note_on,77,70,30
1,note_on,89,82,0
1,note_on,89,0,90
1,note_on,77,0,0
1,note_on,79,72,30
1,note_on,91,86,0
1,note_on,91,0,90
1,note_on,79,0,0
1,note_on,80,74,30
1,note_on,92,88,0
1,note_on,92,0,480
1,note_on,80,0,0
1,note_on,84,68,0
1,note_on,87,68,0
1,note_on,92,80,0
1,note_on,92,0,240
1,note_on,87,0,0
1,note_on,84,0,0
1,note_on,84,66,0
1,note_on,87,66,0
1,note_on,92,78,0
1,note_on,92,0,240
1,note_on,87,0,0
1,note_on,84,0,0
1,note_on,74,66,0
1,note_on,86,78,0
1,note_on,86,0,90
1,note_on,74,0,0
1,note_on,75,68,30
1,note_on,87,80,0
1,note_on,87,0,90
1,note_on,75,0,0
1,note_on,77,70,30
1,note_on,89,82,0
1,note_on,89,0,90
1,note_on,77,0,0
1,note_on,79,72,30
1,note_on,91,86,0
1,note_on,91,0,90
1,note_on,79,0,0
1,note_on,87,74,30
1,note_on,84,74,0
1,note_on,80,74,0
1,note_on,92,88,0
1,note_on,92,0,480
1,note_on,87,0,0
1,note_on,84,0,0
1,note_on,80,0,0
1,note_on,74,66,0
1,note_on,86,78,0
1,note_on,86,0,90
1,note_on,74,0,0
1,note_on,75,68,30
1,note_on,87,80,0
1,note_on,87,0,90
1,note_on,75,0,0
1,note_on,77,70,30
1,note_on,89,82,0
1,note_on,89,0,90
1,note_on,77,0,0
1,note_on,79,72,30
1,note_on,91,86,0
1,note_on,91,0,90
1,note_on,79,0,0
1,note_on,87,74,30
1,note_on,84,74,0
1,note_on,80,74,0
1,note_on,92,88,0
1,note_on,92,0,480
1,note_on,87,0,0
1,note_on,84,0,0
1,note_on,80,0,0
1,note_on,74,78,0
1,note_on,74,0,90
1,note_on,75,80,30
1,note_on,75,0,90
1,note_on,77,82,30
1,note_on,77,0,90
1,note_on,79,87,30
1,note_on,79,0,90
1,note_on,75,76,30
1,note_on,72,76,0
1,note_on,68,76,0
1,note_on,80,90,0
1,note_on,80,0,480
1,note_on,75,0,0
1,note_on,72,0,0
1,note_on,68,0,0
1,note_on,62,70,0
1,note_on,74,84,0
1,note_on,74,0,90
1,note_on,62,0,0
1,note_on,63,73,30
1,note_on,75,87,0
1,note_on,75,0,90
1,note_on,63,0,0
1,note_on,65,76,30
1,note_on,77,90,0
1,note_on,77,0,90
1,note_on,65,0,0
1,note_on,67,78,30
1,note_on,79,94,0
1,note_on,79,0,90
1,note_on,67,0,0
1,note_on,75,81,30
1,note_on,72,81,0
1,note_on,68,81,0
1,note_on,80,97,0
1,note_on,80,0,480
1,note_on,75,0,0
1,note_on,72,0,0
1,note_on,68,0,0
1,note_on,67,76,0
1,note_on,71,76,0
1,note_on,74,85,0
1,note_on,79,100,0
1,note_on,79,0,475
1,note_on,67,0,0
1,note_on,71,0,0
1,note_on,74,0,0
1,note_on,67,50,5
1,note_on,67,0,120
1,note_on,67,51,120
1,note_on,67,0,120
1,note_on,67,53,120
1,note_on,67,0,475
1,note_on,67,50,5
1,note_on,67,0,120
1,note_on,67,50,120
1,note_on,67,0,120
1,note_on,67,53,120
1,note_on,67,0,475
1,note_on,67,50,5
1,note_on,67,0,120
1,note_on,67,50,120
1,note_on,67,0,120
1,note_on,67,53,120
1,note_on,67,0,475
1,note_on,67,49,5
1,note_on,67,0,120
1,note_on,67,49,120
1,note_on,67,0,120
1,note_on,68,76,120
1,note_on,71,76,0
1,note_on,74,85,0
1,note_on,80,100,0
1,note_on,80,0,475
1,note_on,68,0,0
1,note_on,71,0,0
1,note_on,74,0,0
1,note_on,68,51,5
1,note_on,68,0,120
1,note_on,68,52,120
1,note_on,68,0,120
1,note_on,68,53,120
1,note_on,68,0,475
1,note_on,68,41,5
1,note_on,71,49,0
1,note_on,71,0,60
1,note_on,68,0,0
1,note_on,68,42,180
1,note_on,71,50,0
1,note_on,71,0,60
1,note_on,68,0,0
1,note_on,68,45,180
1,note_on,71,53,0
1,note_on,71,0,475
1,note_on,68,0,0
1,note_on,68,40,5
1,note_on,71,48,0
1,note_on,71,0,60
1,note_on,68,0,0
1,note_on,68,40,180
1,note_on,71,48,0
1,note_on,71,0,60
1,note_on,68,0,0
1,note_on,68,45,180
1,note_on,71,53,0
1,note_on,71,0,475
1,note_on,68,0,0
1,note_on,68,40,5
1,note_on,71,48,0
1,note_on,71,0,60
1,note_on,68,0,0
1,note_on,68,40,180
1,note_on,71,48,0
1,note_on,71,0,60
1,note_on,68,0,0
1,note_on,68,76,180
1,note_on,71,76,0
1,note_on,73,85,0
1,note_on,80,100,0
1,note_on,80,0,475
1,note_on,68,0,0
1,note_on,71,0,0
1,note_on,73,0,0
1,note_on,68,41,5
1,note_on,71,49,0
1,note_on,71,0,60
1,note_on,68,0,0
1,note_on,68,41,180
1,note_on,71,49,0
1,note_on,71,0,60
1,note_on,68,0,0
1,note_on,68,45,180
1,note_on,71,45,0
1,note_on,73,53,0
1,note_on,73,0,475
1,note_on,71,0,0
1,note_on,68,0,0
1,note_on,68,40,5
1,note_on,71,40,0
1,note_on,73,48,0
1,note_on,73,0,60
1,note_on,71,0,0
1,note_on,68,0,0
1,note_on,68,40,180
1,note_on,71,40,0
1,note_on,73,48,0
1,note_on,73,0,60
1,note_on,71,0,0
1,note_on,68,0,0
1,note_on,68,76,180
1,note_on,71,76,0
1,note_on,74,85,0
1,note_on,80,100,0
1,note_on,80,0,475
1,note_on,68,0,0
1,note_on,71,0,0
1,note_on,74,0,0
1,note_on,68,41,5
1,note_on,71,49,0
1,note_on,71,0,60
1,note_on,68,0,0
1,note_on,68,41,180
1,note_on,71,49,0
1,note_on,71,0,60
1,note_on,68,0,0
1,note_on,68,45,180
1,note_on,71,45,0
1,note_on,74,53,0
1,note_on,74,0,475
1,note_on,71,0,0
1,note_on,68,0,0
1,note_on,68,41,5
1,note_on,71,41,0
1,note_on,74,49,0
1,note_on,74,0,60
1,note_on,71,0,0
1,note_on,68,0,0
1,note_on,68,41,180
1,note_on,71,41,0
1,note_on,74,49,0
1,note_on,74,0,60
1,note_on,71,0,0
1,note_on,68,0,0
1,note_on,68,76,180
1,note_on,71,76,0
1,note_on,73,85,0
1,note_on,80,100,0
1,note_on,80,0,475
1,note_on,68,0,0
1,note_on,71,0,0
1,note_on,73,0,0
1,note_on,68,35,5
1,note_on,71,42,0
1,note_on,71,0,60
1,note_on,68,0,0
1,note_on,68,35,180
1,note_on,71,42,0
1,note_on,71,0,60
1,note_on,68,0,0
1,note_on,68,39,180
1,note_on,71,39,0
1,note_on,73,47,0
1,note_on,73,0,475
1,note_on,71,0,0
1,note_on,68,0,0
1,note_on,68,35,5
1,note_on,71,35,0
1,note_on,73,42,0
1,note_on,73,0,60
1,note_on,71,0,0
1,note_on,68,0,0
1,note_on,68,35,180
1,note_on,71,35,0
1,note_on,73,42,0
1,note_on,73,0,60
1,note_on,71,0,0
1,note_on,68,0,0
1,note_on,68,76,180
1,note_on,71,76,0
1,note_on,74,85,0
1,note_on,80,100,0
1,note_on,80,0,475
1,note_on,68,0,0
1,note_on,71,0,0
1,note_on,74,0,0
1,note_on,68,40,5
1,note_on,71,40,0
1,note_on,71,0,60
1,note_on,68,0,0
1,note_on,68,40,180
1,note_on,71,40,0
1,note_on,71,0,60
1,note_on,68,0,0
1,note_on,68,39,180
1,note_on,71,39,0
1,note_on,74,46,0
1,note_on,74,0,475
1,note_on,71,0,0
1,note_on,68,0,0
1,note_on,68,34,5
1,note_on,71,34,0
1,note_on,74,40,0
1,note_on,74,0,60
1,note_on,71,0,0
1,note_on,68,0,0
1,note_on,68,34,180
1,note_on,71,34,0
1,note_on,74,41,0
1,note_on,74,0,60
1,note_on,71,0,0
1,note_on,68,0,0
1,note_on,68,76,180
1,note_on,71,76,0
1,note_on,74,85,0
1,note_on,80,100,0
1,note_on,80,0,475
1,note_on,68,0,0
1,note_on,71,0,0
1,note_on,74,0,0
1,note_on,71,48,5
1,note_on,74,48,0
1,note_on,74,0,60
1,note_on,71,0,0
1,note_on,71,48,180
1,note_on,74,48,0
1,note_on,74,0,60
1,note_on,71,0,0
1,note_on,68,76,180
1,note_on,71,76,0
1,note_on,73,85,0
1,note_on,80,100,0
1,note_on,80,0,475
1,note_on,68,0,0
1,note_on,71,0,0
1,note_on,73,0,0
1,note_on,71,48,5
1,note_on,73,48,0
1,note_on,73,0,60
1,note_on,71,0,0
1,note_on,71,48,180
1,note_on,73,48,0
1,note_on,73,0,60
1,note_on,71,0,0
1,note_on,68,71,180
1,note_on,71,71,0
1,note_on,73,71,0
1,note_on,80,85,0
1,note_on,80,0,475
1,note_on,68,0,0
1,note_on,71,0,0
1,note_on,73,0,0
1,note_on,71,48,5
1,note_on,73,48,0
1,note_on,73,0,60
1,note_on,71,0,0
1,note_on,71,48,180
1,note_on,73,48,0
1,note_on,73,0,60
1,note_on,71,0,0
1,note_on,66,65,180
1,note_on,69,65,0
1,note_on,73,65,0
1,note_on,78,78,0
1,note_on,78,0,475
1,note_on,66,0,0
1,note_on,69,0,0
1,note_on,73,0,0
1,note_on,69,48,5
1,note_on,73,48,0
1,note_on,73,0,60
1,note_on,69,0,0
1,note_on,69,48,180
1,note_on,73,48,0
1,note_on,73,0,60
1,note_on,69,0,0
1,note_on,66,63,180
1,note_on,68,63,0
1,note_on,73,63,0
1,note_on,78,76,0
1,note_on,78,0,475
1,note_on,66,0,0
1,note_on,68,0,0
1,note_on,73,0,0
1,note_on,66,48,5
1,note_on,68,48,0
1,note_on,68,0,60
1,note_on,66,0,0
1,note_on,66,48,180
1,note_on,68,48,0
1,note_on,68,0,60
1,note_on,66,0,0
1,note_on,64,61,180
1,note_on,68,61,0
1,note_on,73,61,0
1,note_on,76,73,0
1,note_on,76,0,475
1,note_on,64,0,0
1,note_on,68,0,0
1,note_on,73,0,0
1,note_on,64,48,5
1,note_on,68,48,0
1,note_on,68,0,60
1,note_on,64,0,0
1,note_on,64,48,180
1,note_on,68,48,0
1,note_on,68,0,60
1,note_on,64,0,0
1,note_on,63,59,180
1,note_on,68,59,0
1,note_on,72,59,0
1,note_on,75,71,0
1,note_on,75,0,475
1,note_on,63,0,0
1,note_on,68,0,0
1,note_on,72,0,0
1,note_on,63,48,5
1,note_on,72,48,0
1,note_on,72,0,60
1,note_on,63,0,0
1,note_on,63,48,180
1,note_on,72,48,0
1,note_on,72,0,60
1,note_on,63,0,0
1,note_on,63,62,180
1,note_on,67,62,0
1,note_on,73,62,0
1,note_on,75,74,0
1,note_on,75,0,475
1,note_on,63,0,0
1,note_on,67,0,0
1,note_on,73,0,0
1,note_on,63,48,5
1,note_on,73,48,0
1,note_on,73,0,60
1,note_on,63,0,0
1,note_on,63,48,180
1,note_on,73,48,0
1,note_on,73,0,60
1,note_on,63,0,0
1,note_on,63,59,180
1,note_on,68,59,0
1,note_on,72,59,0
1,note_on,75,71,0
1,note_on,75,0,475
1,note_on,63,0,0
1,note_on,68,0,0
1,note_on,72,0,0
1,note_on,60,32,5
1,note_on,63,38,0
1,note_on,63,0,60
1,note_on,60,0,0
1,note_on,60,31,180
1,note_on,63,37,0
1,note_on,63,0,60
1,note_on,60,0,0
1,note_on,60,38,180
1,note_on,63,45,0
1,note_on,63,0,475
1,note_on,60,0,0
1,note_on,60,31,5
1,note_on,63,37,0
1,note_on,63,0,60
1,note_on,60,0,0
1,note_on,60,31,180
1,note_on,63,37,0
1,note_on,63,0,60
1,note_on,60,0,0
1,note_on,61,38,180
1,note_on,63,45,0
1,note_on,63,0,475
1,note_on,61,0,0
1,note_on,61,28,5
1,note_on,63,34,0
1,note_on,63,0,60
1,note_on,61,0,0
1,note_on,61,28,180
1,note_on,63,33,0
1,note_on,63,0,60
1,note_on,61,0,0
1,note_on,61,33,180
1,note_on,63,39,0
1,note_on,63,0,475
1,note_on,61,0,0
1,note_on,61,28,5
1,note_on,63,33,0
1,note_on,63,0,60
1,note_on,61,0,0
1,note_on,61,27,180
1,note_on,63,33,0
1,note_on,63,0,60
1,note_on,61,0,0
1,note_on,60,28,180
1,note_on,63,34,0
1,note_on,63,0,475
1,note_on,60,0,0
1,note_on,60,24,5
1,note_on,63,28,0
1,note_on,63,0,60
1,note_on,60,0,0
1,note_on,60,23,180
1,note_on,63,27,0
1,note_on,63,0,60
1,note_on,60,0,0
1,note_on,60,28,180
1,note_on,63,34,0
1,note_on,63,0,475
1,note_on,60,0,0
1,note_on,60,23,5
1,note_on,63,27,0
1,note_on,63,0,60
1,note_on,60,0,0
1,note_on,60,23,180
1,note_on,63,27,0
1,note_on,63,0,60
1,note_on,60,0,0
1,note_on,61,28,180
1,note_on,63,34,0
1,note_on,63,0,475
1,note_on,61,0,0
1,note_on,61,22,5
1,note_on,63,27,0
1,note_on,63,0,60
1,note_on,61,0,0
1,note_on,61,22,180
1,note_on,63,27,0
1,note_on,63,0,60
1,note_on,61,0,0
1,note_on,61,27,180
1,note_on,63,32,0
1,note_on,63,0,475
1,note_on,61,0,0
1,note_on,61,24,5
1,note_on,63,28,0
1,note_on,63,0,60
1,note_on,61,0,0
1,note_on,61,24,180
1,note_on,63,28,0
1,note_on,63,0,60
1,note_on,61,0,0
1,note_on,60,28,180
1,note_on,63,34,0
1,note_on,63,0,475
1,note_on,60,0,0
1,note_on,56,23,5
1,note_on,68,28,0
1,note_on,68,0,120
1,note_on,56,0,0
1,note_on,56,23,120
1,note_on,68,28,0
1,note_on,68,0,120
1,note_on,56,0,0
1,note_on,56,26,120
1,note_on,68,31,0
1,note_on,68,0,480
1,note_on,56,0,0
1,note_on,56,23,960
1,note_on,68,28,0
1,note_on,68,0,120
1,note_on,56,0,0
1,note_on,56,23,120
1,note_on,68,28,0
1,note_on,68,0,120
1,note_on,56,0,0
1,note_on,56,26,120
1,note_on,68,31,0
1,note_on,68,0,480
1,note_on,56,0,0
1,note_on,56,23,960
1,note_on,68,28,0
1,note_on,68,0,120
1,note_on,56,0,0
1,note_on,56,23,120
1,note_on,68,28,0
1,note_on,68,0,120
1,note_on,56,0,0
1,note_on,56,26,120
1,note_on,68,31,0
1,note_on,68,0,480
1,note_on,56,0,0
1,note_on,56,23,960
1,note_on,68,28,0
1,note_on,68,0,120
1,note_on,56,0,0
1,note_on,56,23,120
1,note_on,68,28,0
1,note_on,68,0,120
1,note_on,56,0,0
1,note_on,56,26,120
1,note_on,68,31,0
1,note_on,68,0,480
1,note_on,56,0,0
1,note_on,66,23,960
1,note_on,56,23,0
1,note_on,68,28,0
1,note_on,68,0,120
1,note_on,56,0,0
1,note_on,66,0,0
1,note_on,66,23,120
1,note_on,56,23,0
1,note_on,68,28,0
1,note_on,68,0,120
1,note_on,56,0,0
1,note_on,66,0,0
1,note_on,66,26,120
1,note_on,56,26,0
1,note_on,68,31,0
1,note_on,68,0,480
1,note_on,56,0,0
1,note_on,66,0,0
1,note_on,66,23,960
1,note_on,56,23,0
1,note_on,68,28,0
1,note_on,68,0,120
1,note_on,56,0,0
1,note_on,66,0,0
1,note_on,66,23,120
1,note_on,56,23,0
1,note_on,68,28,0
1,note_on,68,0,120
1,note_on,56,0,0
1,note_on,66,0,0
1,note_on,66,23,600
1,note_on,56,23,0
1,note_on,68,28,0
1,note_on,68,0,120
1,note_on,56,0,0
1,note_on,66,0,0
1,note_on,66,23,120
1,note_on,56,23,0
1,note_on,68,28,0
1,note_on,68,0,120
1,note_on,56,0,0
1,note_on,66,0,0
1,note_on,66,22,600
1,note_on,56,22,0
1,note_on,68,27,0
1,note_on,68,0,480
1,note_on,56,0,0
1,note_on,66,0,0
1,note_on,66,21,480
1,note_on,56,21,0
1,note_on,68,26,0
1,note_on,68,0,480
1,note_on,56,0,0
1,note_on,66,0,0
1,note_on,66,20,480
1,note_on,57,20,0
1,note_on,69,25,0
1,note_on,69,0,480
1,note_on,57,0,0
1,note_on,66,0,0
1,note_on,66,20,480
1,note_on,56,20,0
1,note_on,68,24,0
1,note_on,68,0,480
1,note_on,56,0,0
1,note_on,66,0,0
2,note_on,36,55,0
2,note_on,43,55,0
2,note_on,48,64,0
2,note_on,48,0,480
2,note_on,43,0,0
2,note_on,36,0,0
2,note_on,36,49,0
2,note_on,43,49,0
2,note_on,48,59,0
2,note_on,48,0,120
2,note_on,43,0,0
2,note_on,36,0,0
2,note_on,36,49,120
2,note_on,43,49,0
2,note_on,48,59,0
2,note_on,48,0,120
2,note_on,43,0,0
2,note_on,36,0,0
2,note_on,36,56,120
2,note_on,43,56,0
2,note_on,48,66,0
2,note_on,48,0,480
2,note_on,43,0,0
2,note_on,36,0,0
2,note_on,36,50,0
2,note_on,43,50,0
2,note_on,48,60,0
2,note_on,48,0,120
2,note_on,43,0,0
2,note_on,36,0,0
2,note_on,36,50,120
2,note_on,43,50,0
2,note_on,48,60,0
2,note_on,48,0,120
2,note_on,43,0,0
2,note_on,36,0,0
2,note_on,36,56,120
2,note_on,43,56,0
2,note_on,48,66,0
2,note_on,48,0,184
2,note_on,43,0,0
2,note_on,36,0,0
2,note_on,31,57,950
2,note_on,43,68,0
2,note_on,43,0,240
2,note_on,31,0,0
2,note_on,43,57,240
2,note_on,55,68,0
2,note_on,55,0,240
2,note_on,43,0,0
2,note_on,31,47,1200
2,note_on,43,56,0
2,note_on,43,0,480
2,note_on,31,0,0
2,note_on,31,42,0
2,note_on,43,51,0
2,note_on,43,0,120
2,note_on,31,0,0
2,note_on,31,42,120
2,note_on,43,51,0
2,note_on,43,0,120
2,note_on,31,0,0
2,note_on,31,48,120
2,note_on,43,57,0
2,note_on,43,0,480
2,note_on,31,0,0
2,note_on,31,43,0
2,note_on,43,52,0
2,note_on,43,0,120
2,note_on,31,0,0
2,note_on,31,43,120
2,note_on,43,52,0
2,note_on,43,0,120
2,note_on,31,0,0
2,note_on,31,48,120
2,note_on,43,57,0
2,note_on,43,0,184
2,note_on,31,0,0
2,note_on,43,52,950
2,note_on,36,52,0
2,note_on,48,62,0
2,note_on,48,0,240
2,note_on,36,0,0
2,note_on,43,0,0
2,note_on,55,50,240
2,note_on,48,50,0
2,note_on,60,60,0
2,note_on,60,0,240
2,note_on,48,0,0
2,note_on,55,0,0
2,note_on,36,50,600
2,note_on,48,60,0
2,note_on,48,0,960
2,note_on,36,0,0
2,note_on,35,44,0
2,note_on,47,53,0
2,note_on,47,0,212
2,note_on,35,0,0
2,note_on,47,57,0
2,note_on,59,70,0
2,note_on,59,0,240
2,note_on,47,0,0
2,note_on,47,53,0
2,note_on,59,65,0
2,note_on,59,0,240
2,note_on,47,0,0
2,note_on,45,63,0
2,note_on,57,72,0
2,note_on,57,0,471
2,note_on,45,0,0
2,note_on,38,50,5
2,note_on,50,61,0
2,note_on,50,0,480
2,note_on,38,0,0
2,note_on,43,48,0
2,note_on,55,59,0
2,note_on,55,0,238
2,note_on,43,0,2
2,note_on,36,50,600
2,note_on,48,60,0
2,note_on,48,0,960
2,note_on,36,0,0
2,note_on,35,44,0
2,note_on,47,53,0
2,note_on,47,0,212
2,note_on,35,0,0
2,note_on,47,55,0
2,note_on,59,67,0
2,note_on,59,0,228
2,note_on,47,0,0
2,note_on,47,53,12
2,note_on,59,65,0
2,note_on,59,0,228
2,note_on,47,0,0
2,note_on,45,63,12
2,note_on,57,72,0
2,note_on,57,0,470
2,note_on,45,0,0
2,note_on,38,50,5
2,note_on,50,61,0
2,note_on,50,0,480
2,note_on,38,0,0
2,note_on,43,48,0
2,note_on,55,59,0
2,note_on,55,0,240
2,note_on,43,0,0
2,note_on,41,50,600
2,note_on,53,60,0
2,note_on,53,0,960
2,note_on,41,0,0
2,note_on,40,44,0
2,note_on,52,53,0
2,note_on,52,0,212
2,note_on,40,0,0
2,note_on,52,57,0
2,note_on,64,70,0
2,note_on,64,0,228
2,note_on,52,0,0
2,note_on,52,53,12
2,note_on,64,65,0
2,note_on,64,0,228
2,note_on,52,0,0
2,note_on,50,63,0
2,note_on,62,72,0
2,note_on,62,0,475
2,note_on,50,0,0
2,note_on,43,54,5
2,note_on,55,67,0
2,note_on,55,0,480
2,note_on,43,0,0
2,note_on,48,52,0
2,note_on,60,65,0
2,note_on,60,0,480
2,note_on,48,0,0
2,note_on,41,57,0
2,note_on,53,70,0
2,note_on,53,0,228
2,note_on,41,0,0
2,note_on,41,53,12
2,note_on,53,65,0
2,note_on,53,0,228
2,note_on,41,0,0
2,note_on,47,62,12
2,note_on,59,71,0
2,note_on,59,0,477
2,note_on,47,0,0
2,note_on,40,53,0
2,note_on,52,65,0
2,note_on,52,0,480
2,note_on,40,0,0
2,note_on,45,51,0
2,note_on,57,63,0
2,note_on,57,0,480
2,note_on,45,0,0
2,note_on,33,44,0
2,note_on,45,53,0
2,note_on,45,0,120
2,note_on,33,0,0
2,note_on,31,40,120
2,note_on,43,49,0
2,note_on,43,0,120
2,note_on,31,0,0
2,note_on,29,34,120
2,note_on,29,0,56
2,note_on,41,35,0
2,note_on,41,0,120
2,note_on,29,37,0
2,note_on,29,0,120
2,note_on,41,38,0
2,note_on,41,0,120
2,note_on,29,39,0
2,note_on,29,0,120
2,note_on,41,41,0
2,note_on,41,0,120
2,note_on,29,42,0
2,note_on,29,0,120
2,note_on,41,44,0
2,note_on,41,0,120
2,note_on,29,45,0
2,note_on,29,0,120
2,note_on,41,47,0
2,note_on,41,0,120
2,note_on,29,48,0
2,note_on,29,0,120
2,note_on,41,50,0
2,note_on,41,0,120
2,note_on,29,51,0
2,note_on,29,0,120
2,note_on,41,52,0
2,note_on,41,0,120
2,note_on,29,54,0
2,note_on,29,0,120
2,note_on,41,55,0
2,note_on,41,0,120
2,note_on,42,61,0
2,note_on,42,0,74
2,note_on,43,62,0
2,note_on,43,0,120
2,note_on,44,63,0
2,note_on,44,0,120
2,note_on,45,64,0
2,note_on,45,0,120
2,note_on,46,66,0
2,note_on,46,0,120
2,note_on,47,67,0
2,note_on,47,0,120
2,note_on,48,69,0
2,note_on,48,0,120
2,note_on,49,70,0
2,note_on,49,0,120
2,note_on,50,72,0
2,note_on,50,0,120
2,note_on,51,73,0
2,note_on,51,0,120
2,note_on,52,75,0
2,note_on,52,0,120
2,note_on,53,76,0
2,note_on,53,0,120
2,note_on,41,66,0
2,note_on,53,78,0
2,note_on,53,0,231
2,note_on,41,0,0
2,note_on,41,66,0
2,note_on,53,79,0
2,note_on,53,0,240
2,note_on,41,0,0
2,note_on,41,74,0
2,note_on,53,88,0
2,note_on,53,0,120
2,note_on,41,0,0
2,note_on,53,68,120
2,note_on,65,81,0
2,note_on,65,0,120
2,note_on,53,0,0
2,note_on,53,68,120
2,note_on,65,81,0
2,note_on,65,0,120
2,note_on,53,0,0
2,note_on,53,68,120
2,note_on,65,81,0
2,note_on,65,0,120
2,note_on,53,0,0
2,note_on,53,68,120
2,note_on,65,81,0
2,note_on,65,0,120
2,note_on,53,0,0
2,note_on,53,68,120
2,note_on,65,81,0
2,note_on,65,0,120
2,note_on,53,0,0
2,note_on,53,68,120
2,note_on,65,81,0
2,note_on,65,0,120
2,note_on,53,0,0
2,note_on,53,68,120
2,note_on,65,81,0
2,note_on,65,0,120
2,note_on,53,0,0
2,note_on,64,91,120
2,note_on,52,77,0
2,note_on,52,0,240
2,note_on,64,0,0
2,note_on,40,74,240
2,note_on,52,88,0
2,note_on,52,0,240
2,note_on,40,0,0
2,note_on,36,22,1200
2,note_on,43,22,0
2,note_on,48,25,0
2,note_on,48,0,475
2,note_on,43,0,0
2,note_on,36,0,0
2,note_on,36,19,5
2,note_on,43,19,0
2,note_on,48,23,0
2,note_on,48,0,120
2,note_on,43,0,0
2,note_on,36,0,0
2,note_on,36,19,120
2,note_on,43,19,0
2,note_on,48,23,0
2,note_on,48,0,120
2,note_on,43,0,0
2,note_on,36,0,0
2,note_on,36,22,120
2,note_on,43,22,0
2,note_on,48,26,0
2,note_on,48,0,475
2,note_on,43,0,0
2,note_on,36,0,0
2,note_on,36,20,5
2,note_on,43,20,0
2,note_on,48,24,0
2,note_on,48,0,120
2,note_on,43,0,0
2,note_on,36,0,0
2,note_on,36,20,120
2,note_on,43,20,0
2,note_on,48,24,0
2,note_on,48,0,120
2,note_on,43,0,0
2,note_on,36,0,0
2,note_on,36,22,120
2,note_on,43,22,0
2,note_on,48,26,0
2,note_on,48,0,184
2,note_on,43,0,0
2,note_on,36,0,0
2,note_on,31,22,950
2,note_on,43,27,0
2,note_on,43,0,240
2,note_on,31,0,0
2,note_on,43,22,240
2,note_on,55,27,0
2,note_on,55,0,240
2,note_on,43,0,0
2,note_on,74,27,240
2,note_on,71,22,0
2,note_on,67,22,0
2,note_on,67,0,960
2,note_on,71,0,0
2,note_on,74,0,0
2,note_on,31,18,0
2,note_on,43,22,0
2,note_on,43,0,475
2,note_on,31,0,0
2,note_on,31,16,5
2,note_on,43,20,0
2,note_on,43,0,120
2,note_on,31,0,0
2,note_on,31,16,120
2,note_on,43,20,0
2,note_on,43,0,120
2,note_on,31,0,0
2,note_on,31,19,120
2,note_on,43,22,0
2,note_on,43,0,475
2,note_on,31,0,0
2,note_on,31,17,5
2,note_on,43,20,0
2,note_on,43,0,120
2,note_on,31,0,0
2,note_on,31,17,120
2,note_on,43,20,0
2,note_on,43,0,120
2,note_on,31,0,0
2,note_on,31,19,120
2,note_on,43,22,0
2,note_on,43,0,184
2,note_on,31,0,0
2,note_on,43,20,950
2,note_on,36,20,0
2,note_on,48,24,0
2,note_on,48,0,240
2,note_on,36,0,0
2,note_on,43,0,0
2,note_on,55,20,240
2,note_on,48,20,0
2,note_on,60,24,0
2,note_on,60,0,240
2,note_on,48,0,0
2,note_on,55,0,0
2,note_on,72,27,240
2,note_on,67,22,0
2,note_on,60,22,0
2,note_on,60,0,960
2,note_on,67,0,0
2,note_on,72,0,0
2,note_on,33,29,741
2,note_on,45,35,0
2,note_on,45,0,344
2,note_on,33,0,0
2,note_on,57,26,120
2,note_on,60,32,0
2,note_on,60,0,240
2,note_on,57,0,0
2,note_on,72,27,240
2,note_on,69,18,0
2,note_on,69,0,960
2,note_on,72,0,0
2,note_on,40,25,741
2,note_on,52,29,0
2,note_on,52,0,304
2,note_on,40,0,0
2,note_on,52,23,120
2,note_on,55,27,0
2,note_on,55,0,240
2,note_on,52,0,0
2,note_on,67,24,240
2,note_on,64,16,0
2,note_on,64,0,1920
2,note_on,67,0,0
2,note_on,38,72,240
2,note_on,38,0,97
2,note_on,41,74,0
2,note_on,41,0,120
2,note_on,44,76,0
2,note_on,44,0,120
2,note_on,50,78,0
2,note_on,50,0,120
2,note_on,53,80,0
2,note_on,53,0,120
2,note_on,56,82,0
2,note_on,56,0,120
2,note_on,50,71,0
2,note_on,62,84,0
2,note_on,62,0,960
2,note_on,50,0,0
2,note_on,52,68,0
2,note_on,64,80,0
2,note_on,64,0,480
2,note_on,52,0,0
2,note_on,48,64,0
2,note_on,60,76,0
2,note_on,60,0,480
2,note_on,48,0,0
2,note_on,43,68,0
2,note_on,55,80,0
2,note_on,55,0,240
2,note_on,43,0,0
2,note_on,38,72,235
2,note_on,38,0,97
2,note_on,41,74,0
2,note_on,41,0,120
2,note_on,44,76,0
2,note_on,44,0,120
2,note_on,50,78,0
2,note_on,50,0,120
2,note_on,53,80,0
2,note_on,53,0,120
2,note_on,56,82,0
2,note_on,56,0,120
2,note_on,50,71,0
2,note_on,62,84,0
2,note_on,62,0,956
2,note_on,50,0,0
2,note_on,52,68,0
2,note_on,64,80,0
2,note_on,64,0,480
2,note_on,52,0,0
2,note_on,48,64,0
2,note_on,60,76,0
2,note_on,60,0,480
2,note_on,48,0,0
2,note_on,43,68,0
2,note_on,55,80,0
2,note_on,55,0,240
2,note_on,43,0,0
2,note_on,52,73,240
2,note_on,52,0,97
2,note_on,55,75,0
2,note_on,55,0,120
2,note_on,58,77,0
2,note_on,58,0,120
2,note_on,61,79,0
2,note_on,61,0,120
2,note_on,67,80,0
2,note_on,67,0,120
2,note_on,70,82,0
2,note_on,70,0,120
2,note_on,73,88,0
2,note_on,73,0,120
2,note_on,76,82,0
2,note_on,76,0,120
2,note_on,73,81,0
2,note_on,73,0,120
2,note_on,70,80,0
2,note_on,70,0,120
2,note_on,67,76,0
2,note_on,67,0,120
2,note_on,64,78,0
2,note_on,64,0,120
2,note_on,61,78,0
2,note_on,61,0,120
2,note_on,58,76,0
2,note_on,58,0,120
2,note_on,61,76,0
2,note_on,61,0,120
2,note_on,64,68,0
2,note_on,64,0,120
2,note_on,61,69,0
2,note_on,61,0,120
2,note_on,58,69,0
2,note_on,58,0,120
2,note_on,55,73,0
2,note_on,55,0,120
2,note_on,52,66,0
2,note_on,52,0,120
2,note_on,49,66,0
2,note_on,49,0,120
2,note_on,46,66,0
2,note_on,46,0,120
2,note_on,49,66,0
2,note_on,49,0,120
2,note_on,52,60,0
2,note_on,52,0,120
2,note_on,49,60,0
2,note_on,49,0,120
2,note_on,46,60,0
2,note_on,46,0,120
2,note_on,43,67,0
2,note_on,43,0,120
2,note_on,40,59,0
2,note_on,40,0,120
2,note_on,37,60,0
2,note_on,37,0,120
2,note_on,34,60,0
2,note_on,34,0,120
2,note_on,37,68,0
2,note_on,37,0,63
2,note_on,40,47,0
2,note_on,40,0,120
2,note_on,37,47,0
2,note_on,37,0,120
2,note_on,34,47,0
2,note_on,34,0,120
2,note_on,37,58,0
2,note_on,37,0,120
2,note_on,40,45,0
2,note_on,40,0,120
2,note_on,37,45,0
2,note_on,37,0,120
2,note_on,34,45,0
2,note_on,34,0,120
2,note_on,37,53,0
2,note_on,37,0,110
2,note_on,40,39,0
2,note_on,40,0,120
2,note_on,37,39,0
2,note_on,37,0,120
2,note_on,34,39,0
2,note_on,34,0,120
2,note_on,37,51,0
2,note_on,37,0,120
2,note_on,40,34,0
2,note_on,40,0,120
2,note_on,37,34,0
2,note_on,37,0,120
2,note_on,34,34,0
2,note_on,34,0,120
2,note_on,35,37,0
2,note_on,35,0,14
2,note_on,38,30,0
2,note_on,38,0,120
2,note_on,43,30,0
2,note_on,43,0,120
2,note_on,38,30,0
2,note_on,38,0,120
2,note_on,35,35,0
2,note_on,35,0,120
2,note_on,38,30,0
2,note_on,38,0,120
2,note_on,43,30,0
2,note_on,43,0,120
2,note_on,38,30,0
2,note_on,38,0,120
2,note_on,35,35,0
2,note_on,35,0,120
2,note_on,38,30,0
2,note_on,38,0,120
2,note_on,43,30,0
2,note_on,43,0,120
2,note_on,38,30,0
2,note_on,38,0,120
2,note_on,35,35,0
2,note_on,35,0,120
2,note_on,38,30,0
2,note_on,38,0,120
2,note_on,43,30,0
2,note_on,43,0,120
2,note_on,38,30,0
2,note_on,38,0,120
2,note_on,36,37,0
2,note_on,36,0,14
2,note_on,40,30,0
2,note_on,40,0,120
2,note_on,45,30,0
2,note_on,45,0,120
2,note_on,40,30,0
2,note_on,40,0,120
2,note_on,36,35,0
2,note_on,36,0,120
2,note_on,40,30,0
2,note_on,40,0,120
2,note_on,45,30,0
2,note_on,45,0,120
2,note_on,40,30,0
2,note_on,40,0,120
2,note_on,36,35,0
2,note_on,36,0,120
2,note_on,40,30,0
2,note_on,40,0,120
2,note_on,45,30,0
2,note_on,45,0,120
2,note_on,40,30,0
2,note_on,40,0,120
2,note_on,36,35,0
2,note_on,36,0,120
2,note_on,40,30,0
2,note_on,40,0,120
2,note_on,45,30,0
2,note_on,45,0,120
2,note_on,40,30,0
2,note_on,40,0,120
2,note_on,38,37,0
2,note_on,38,0,51
2,note_on,43,30,0
2,note_on,43,0,120
2,note_on,47,30,0
2,note_on,47,0,120
2,note_on,43,30,0
2,note_on,43,0,120
2,note_on,38,35,0
2,note_on,38,0,120
2,note_on,43,30,0
2,note_on,43,0,120
2,note_on,47,30,0
2,note_on,47,0,120
2,note_on,43,30,0
2,note_on,43,0,120
2,note_on,38,35,0
2,note_on,38,0,74
2,note_on,45,30,0
2,note_on,45,0,120
2,note_on,48,30,0
2,note_on,48,0,120
2,note_on,45,30,0
2,note_on,45,0,120
2,note_on,38,35,0
2,note_on,38,0,120
2,note_on,45,30,0
2,note_on,45,0,120
2,note_on,48,30,0
2,note_on,48,0,120
2,note_on,45,30,0
2,note_on,45,0,120
2,note_on,52,73,230
2,note_on,52,0,97
2,note_on,55,75,0
2,note_on,55,0,120
2,note_on,58,77,0
2,note_on,58,0,120
2,note_on,61,79,0
2,note_on,61,0,120
2,note_on,67,80,0
2,note_on,67,0,120
2,note_on,70,82,0
2,note_on,70,0,120
2,note_on,73,88,0
2,note_on,73,0,120
2,note_on,76,82,0
2,note_on,76,0,120
2,note_on,73,81,0
2,note_on,73,0,120
2,note_on,70,80,0
2,note_on,70,0,120
2,note_on,67,76,0
2,note_on,67,0,120
2,note_on,64,78,0
2,note_on,64,0,120
2,note_on,61,78,0
2,note_on,61,0,120
2,note_on,58,76,0
2,note_on,58,0,120
2,note_on,61,76,0
2,note_on,61,0,120
2,note_on,64,68,0
2,note_on,64,0,120
2,note_on,61,69,0
2,note_on,61,0,120
2,note_on,58,69,0
2,note_on,58,0,120
2,note_on,55,73,0
2,note_on,55,0,120
2,note_on,52,66,0
2,note_on,52,0,120
2,note_on,49,66,0
2,note_on,49,0,120
2,note_on,46,66,0
2,note_on,46,0,120
2,note_on,49,66,0
2,note_on,49,0,120
2,note_on,52,60,0
2,note_on,52,0,120
2,note_on,49,60,0
2,note_on,49,0,120
2,note_on,46,60,0
2,note_on,46,0,120
2,note_on,43,67,0
2,note_on,43,0,120
2,note_on,40,59,0
2,note_on,40,0,120
2,note_on,37,60,0
2,note_on,37,0,120
2,note_on,34,60,0
2,note_on,34,0,120
2,note_on,37,68,0
2,note_on,37,0,63
2,note_on,40,47,0
2,note_on,40,0,120
2,note_on,37,47,0
2,note_on,37,0,120
2,note_on,34,47,0
2,note_on,34,0,120
2,note_on,37,58,0
2,note_on,37,0,120
2,note_on,40,45,0
2,note_on,40,0,120
2,note_on,37,45,0
2,note_on,37,0,120
2,note_on,34,45,0
2,note_on,34,0,120
2,note_on,37,53,0
2,note_on,37,0,108
2,note_on,40,39,0
2,note_on,40,0,120
2,note_on,37,39,0
2,note_on,37,0,120
2,note_on,34,39,0
2,note_on,34,0,120
2,note_on,37,51,0
2,note_on,37,0,120
2,note_on,40,34,0
2,note_on,40,0,120
2,note_on,37,34,0
2,note_on,37,0,120
2,note_on,34,34,0
2,note_on,34,0,120
2,note_on,35,37,0
2,note_on,35,0,14
2,note_on,40,30,0
2,note_on,40,0,120
2,note_on,43,30,0
2,note_on,43,0,120
2,note_on,40,30,0
2,note_on,40,0,120
2,note_on,35,35,0
2,note_on,35,0,120
2,note_on,40,30,0
2,note_on,40,0,120
2,note_on,43,30,0
2,note_on,43,0,120
2,note_on,40,30,0
2,note_on,40,0,120
2,note_on,35,35,0
2,note_on,35,0,120
2,note_on,40,30,0
2,note_on,40,0,120
2,note_on,43,30,0
2,note_on,43,0,120
2,note_on,40,30,0
2,note_on,40,0,120
2,note_on,35,35,0
2,note_on,35,0,120
2,note_on,40,30,0
2,note_on,40,0,120
2,note_on,43,30,0
2,note_on,43,0,120
2,note_on,40,30,0
2,note_on,40,0,120
2,note_on,36,37,0
2,note_on,36,0,49
2,note_on,40,30,0
2,note_on,40,0,120
2,note_on,45,30,0
2,note_on,45,0,120
2,note_on,40,30,0
2,note_on,40,0,120
2,note_on,36,35,0
2,note_on,36,0,120
2,note_on,40,30,0
2,note_on,40,0,120
2,note_on,45,30,0
2,note_on,45,0,120
2,note_on,40,30,0
2,note_on,40,0,120
2,note_on,36,35,0
2,note_on,36,0,120
2,note_on,40,30,0
2,note_on,40,0,120
2,note_on,45,30,0
2,note_on,45,0,120
2,note_on,40,30,0
2,note_on,40,0,120
2,note_on,36,35,0
2,note_on,36,0,120
2,note_on,40,30,0
2,note_on,40,0,120
2,note_on,45,30,0
2,note_on,45,0,120
2,note_on,40,30,0
2,note_on,40,0,120
2,note_on,38,27,0
2,note_on,38,0,67
2,note_on,43,28,0
2,note_on,43,0,120
2,note_on,47,28,0
2,note_on,47,0,120
2,note_on,43,28,0
2,note_on,43,0,120
2,note_on,38,28,0
2,note_on,38,0,120
2,note_on,43,28,0
2,note_on,43,0,120
2,note_on,47,28,0
2,note_on,47,0,120
2,note_on,43,28,0
2,note_on,43,0,120
2,note_on,38,28,0
2,note_on,38,0,120
2,note_on,43,28,0
2,note_on,43,0,120
2,note_on,47,28,0
2,note_on,47,0,120
2,note_on,43,28,0
2,note_on,43,0,120
2,note_on,38,29,0
2,note_on,38,0,120
2,note_on,43,28,0
2,note_on,43,0,120
2,note_on,47,28,0
2,note_on,47,0,120
2,note_on,43,28,0
2,note_on,43,0,120
2,note_on,38,29,0
2,note_on,38,0,90
2,note_on,45,28,0
2,note_on,45,0,120
2,note_on,48,28,0
2,note_on,48,0,120
2,note_on,45,28,0
2,note_on,45,0,120
2,note_on,38,29,0
2,note_on,38,0,120
2,note_on,45,28,0
2,note_on,45,0,120
2,note_on,48,28,0
2,note_on,48,0,120
2,note_on,45,28,0
2,note_on,45,0,120
2,note_on,38,29,0
2,note_on,38,0,90
2,note_on,45,28,0
2,note_on,45,0,120
2,note_on,48,28,0
2,note_on,48,0,120
2,note_on,45,28,0
2,note_on,45,0,120
2,note_on,38,28,0
2,note_on,38,0,120
2,note_on,45,28,0
2,note_on,45,0,120
2,note_on,48,28,0
2,note_on,48,0,120
2,note_on,45,28,0
2,note_on,45,0,120
2,note_on,43,28,0
2,note_on,43,0,240
2,note_on,40,33,3600
2,note_on,47,27,141
2,note_on,47,0,720
2,note_on,40,0,0
2,note_on,40,31,0
2,note_on,47,27,240
2,note_on,47,0,720
2,note_on,40,0,0
2,note_on,42,32,0
2,note_on,47,27,162
2,note_on,47,0,228
2,note_on,47,27,12
2,note_on,47,0,172
2,note_on,47,27,12
2,note_on,47,0,228
2,note_on,47,32,12
2,note_on,47,0,240
2,note_on,49,35,0
2,note_on,49,0,240
2,note_on,47,31,0
2,note_on,47,0,120
2,note_on,47,31,120
2,note_on,47,0,120
2,note_on,42,0,120
2,note_on,42,33,0
2,note_on,47,27,226
2,note_on,47,0,720
2,note_on,42,0,0
2,note_on,42,31,0
2,note_on,47,27,99
2,note_on,47,0,720
2,note_on,42,0,0
2,note_on,44,32,0
2,note_on,47,27,184
2,note_on,47,0,228
2,note_on,47,27,12
2,note_on,47,0,193
2,note_on,47,27,12
2,note_on,47,0,228
2,note_on,47,32,12
2,note_on,47,0,240
2,note_on,49,39,0
2,note_on,49,0,240
2,note_on,47,41,0
2,note_on,47,0,120
2,note_on,47,46,120
2,note_on,47,0,120
2,note_on,44,0,120
2,note_on,54,54,0
2,note_on,59,43,240
2,note_on,59,0,240
2,note_on,61,41,0
2,note_on,61,0,240
2,note_on,63,40,0
2,note_on,63,0,240
2,note_on,54,0,0
2,note_on,52,30,0
2,note_on,64,45,0
2,note_on,64,0,480
2,note_on,52,0,0
2,note_on,54,27,0
2,note_on,63,39,0
2,note_on,63,0,240
2,note_on,54,0,0
2,note_on,56,26,0
2,note_on,64,37,0
2,note_on,64,0,240
2,note_on,56,0,0
2,note_on,66,45,0
2,note_on,54,30,0
2,note_on,54,0,480
2,note_on,66,0,0
2,note_on,64,36,0
2,note_on,54,25,0
2,note_on,54,0,480
2,note_on,64,0,0
2,note_on,63,36,0
2,note_on,59,25,0
2,note_on,59,0,240
2,note_on,63,0,0
2,note_on,52,33,720
2,note_on,59,27,127
2,note_on,59,0,720
2,note_on,52,0,0
2,note_on,52,31,0
2,note_on,59,27,240
2,note_on,59,0,720
2,note_on,52,0,0
2,note_on,54,32,0
2,note_on,59,27,162
2,note_on,59,0,228
2,note_on,59,27,12
2,note_on,59,0,172
2,note_on,59,27,12
2,note_on,59,0,228
2,note_on,58,32,12
2,note_on,58,0,120
2,note_on,59,27,0
2,note_on,59,0,120
2,note_on,61,27,0
2,note_on,61,0,120
2,note_on,59,29,0
2,note_on,59,0,120
2,note_on,59,31,0
2,note_on,59,0,120
2,note_on,59,31,120
2,note_on,59,0,120
2,note_on,54,0,120
2,note_on,54,33,0
2,note_on,59,27,226
2,note_on,59,0,720
2,note_on,54,0,0
2,note_on,54,31,0
2,note_on,59,27,99
2,note_on,59,0,720
2,note_on,54,0,0
2,note_on,55,32,0
2,note_on,59,27,184
2,note_on,59,0,228
2,note_on,59,27,12
2,note_on,59,0,193
2,note_on,59,27,12
2,note_on,59,0,228
2,note_on,58,32,12
2,note_on,58,0,120
2,note_on,59,27,0
2,note_on,59,0,120
2,note_on,60,27,0
2,note_on,60,0,120
2,note_on,59,27,0
2,note_on,59,0,120
2,note_on,59,31,0
2,note_on,59,0,120
2,note_on,59,31,120
2,note_on,59,0,120
2,note_on,55,0,120
2,note_on,57,32,0
2,note_on,64,27,184
2,note_on,64,0,228
2,note_on,64,27,12
2,note_on,64,0,193
2,note_on,64,27,12
2,note_on,64,0,228
2,note_on,59,36,12
2,note_on,59,0,120
2,note_on,60,32,0
2,note_on,60,0,120
2,note_on,62,35,0
2,note_on,62,0,120
2,note_on,60,37,0
2,note_on,60,0,120
2,note_on,62,35,0
2,note_on,62,0,240
2,note_on,64,34,0
2,note_on,64,0,240
2,note_on,57,0,0
2,note_on,55,32,0
2,note_on,64,27,184
2,note_on,64,0,228
2,note_on,64,27,12
2,note_on,64,0,193
2,note_on,64,27,12
2,note_on,64,0,228
2,note_on,58,36,12
2,note_on,58,0,120
2,note_on,59,33,0
2,note_on,59,0,120
2,note_on,60,35,0
2,note_on,60,0,120
2,note_on,59,38,0
2,note_on,59,0,120
2,note_on,64,40,0
2,note_on,64,0,240
2,note_on,67,34,0
2,note_on,67,0,240
2,note_on,55,0,0
2,note_on,54,33,0
2,note_on,54,0,240
2,note_on,55,36,0
2,note_on,55,0,240
2,note_on,59,39,0
2,note_on,57,33,0
2,note_on,57,0,240
2,note_on,59,0,0
2,note_on,59,35,0
2,note_on,54,29,0
2,note_on,54,0,240
2,note_on,59,0,0
2,note_on,52,33,0
2,note_on,52,0,240
2,note_on,54,36,0
2,note_on,54,0,240
2,note_on,59,41,0
2,note_on,55,34,0
2,note_on,55,0,240
2,note_on,59,0,0
2,note_on,59,36,0
2,note_on,52,30,0
2,note_on,52,0,240
2,note_on,59,0,0
2,note_on,59,43,0
2,note_on,47,36,0
2,note_on,59,0,240
2,note_on,58,39,0
2,note_on,58,0,240
2,note_on,59,42,0
2,note_on,59,0,240
2,note_on,60,44,0
2,note_on,60,0,240
2,note_on,47,0,0
2,note_on,59,47,0
2,note_on,59,0,240
2,note_on,57,44,0
2,note_on,57,0,240
2,note_on,54,44,0
2,note_on,54,0,240
2,note_on,51,43,0
2,note_on,51,0,240
2,note_on,42,33,0
2,note_on,42,0,240
2,note_on,43,36,0
2,note_on,43,0,240
2,note_on,47,39,0
2,note_on,45,33,0
2,note_on,45,0,240
2,note_on,47,0,0
2,note_on,47,35,0
2,note_on,42,29,0
2,note_on,42,0,240
2,note_on,47,0,0
2,note_on,40,33,0
2,note_on,40,0,240
2,note_on,42,36,0
2,note_on,42,0,240
2,note_on,47,41,0
2,note_on,43,34,0
2,note_on,43,0,240
2,note_on,47,0,0
2,note_on,47,36,0
2,note_on,40,30,0
2,note_on,40,0,240
2,note_on,47,0,0
2,note_on,35,43,0
2,note_on,47,43,0
2,note_on,47,0,475
2,note_on,35,0,0
2,note_on,35,36,5
2,note_on,47,36,0
2,note_on,47,0,228
2,note_on,35,0,0
2,note_on,35,36,12
2,note_on,47,36,0
2,note_on,47,0,228
2,note_on,35,0,0
2,note_on,35,43,12
2,note_on,47,43,0
2,note_on,47,0,475
2,note_on,35,0,0
2,note_on,35,36,5
2,note_on,47,36,0
2,note_on,47,0,228
2,note_on,35,0,0
2,note_on,35,37,12
2,note_on,47,37,0
2,note_on,47,0,228
2,note_on,35,0,0
2,note_on,35,43,12
2,note_on,47,43,0
2,note_on,47,0,240
2,note_on,35,0,0
2,note_on,38,36,0
2,note_on,50,36,0
2,note_on,50,0,240
2,note_on,38,0,0
2,note_on,37,36,0
2,note_on,49,36,0
2,note_on,49,0,720
2,note_on,37,0,0
2,note_on,35,36,0
2,note_on,47,36,0
2,note_on,47,0,240
2,note_on,35,0,0
2,note_on,33,36,0
2,note_on,45,36,0
2,note_on,45,0,240
2,note_on,33,0,0
2,note_on,32,36,0
2,note_on,44,36,0
2,note_on,44,0,240
2,note_on,32,0,0
2,note_on,30,40,0
2,note_on,42,40,0
2,note_on,42,0,1200
2,note_on,30,0,0
2,note_on,32,36,0
2,note_on,44,36,0
2,note_on,44,0,240
2,note_on,32,0,0
2,note_on,33,36,0
2,note_on,45,36,0
2,note_on,45,0,240
2,note_on,33,0,0
2,note_on,34,36,0
2,note_on,46,36,0
2,note_on,46,0,240
2,note_on,34,0,0
2,note_on,34,43,0
2,note_on,46,43,0
2,note_on,46,0,240
2,note_on,34,0,0
2,note_on,37,35,0
2,note_on,49,35,0
2,note_on,49,0,240
2,note_on,37,0,0
2,note_on,35,35,0
2,note_on,47,35,0
2,note_on,47,0,720
2,note_on,35,0,0
2,note_on,33,35,0
2,note_on,45,35,0
2,note_on,45,0,240
2,note_on,33,0,0
2,note_on,32,36,0
2,note_on,44,36,0
2,note_on,44,0,240
2,note_on,32,0,0
2,note_on,30,36,0
2,note_on,42,36,0
2,note_on,42,0,240
2,note_on,30,0,0
2,note_on,40,37,0
2,note_on,40,0,1440
2,note_on,38,34,0
2,note_on,38,0,480
2,note_on,36,31,0
2,note_on,36,0,78
2,note_on,43,27,0
2,note_on,43,0,120
2,note_on,36,32,0
2,note_on,36,0,120
2,note_on,43,29,0
2,note_on,43,0,120
2,note_on,36,33,0
2,note_on,36,0,120
2,note_on,43,30,0
2,note_on,43,0,120
2,note_on,36,35,0
2,note_on,36,0,120
2,note_on,43,31,0
2,note_on,43,0,120
2,note_on,36,36,0
2,note_on,36,0,120
2,note_on,43,31,0
2,note_on,43,0,120
2,note_on,36,38,0
2,note_on,36,0,120
2,note_on,43,32,0
2,note_on,43,0,120
2,note_on,36,39,0
2,note_on,36,0,120
2,note_on,43,34,0
2,note_on,43,0,120
2,note_on,36,41,0
2,note_on,36,0,120
2,note_on,43,36,0
2,note_on,43,0,120
2,note_on,36,42,0
2,note_on,36,0,71
2,note_on,43,38,0
2,note_on,43,0,120
2,note_on,36,43,0
2,note_on,36,0,120
2,note_on,43,39,0
2,note_on,43,0,120
2,note_on,36,46,0
2,note_on,36,0,120
2,note_on,43,41,0
2,note_on,43,0,120
2,note_on,36,47,0
2,note_on,36,0,120
2,note_on,43,41,0
2,note_on,43,0,120
2,note_on,36,49,0
2,note_on,36,0,120
2,note_on,43,44,0
2,note_on,43,0,120
2,note_on,36,50,0
2,note_on,36,0,120
2,note_on,43,43,0
2,note_on,43,0,120
2,note_on,36,52,0
2,note_on,36,0,120
2,note_on,43,46,0
2,note_on,43,0,120
2,note_on,36,53,0
2,note_on,36,0,120
2,note_on,43,45,0
2,note_on,43,0,120
2,note_on,36,55,0
2,note_on,36,0,49
2,note_on,43,49,0
2,note_on,43,0,120
2,note_on,36,57,0
2,note_on,36,0,120
2,note_on,43,51,0
2,note_on,43,0,120
2,note_on,36,59,0
2,note_on,36,0,120
2,note_on,43,52,0
2,note_on,43,0,120
2,note_on,36,60,0
2,note_on,36,0,120
2,note_on,43,52,0
2,note_on,43,0,120
2,note_on,36,62,0
2,note_on,36,0,120
2,note_on,43,55,0
2,note_on,43,0,120
2,note_on,36,63,0
2,note_on,36,0,120
2,note_on,43,56,0
2,note_on,43,0,120
2,note_on,36,65,0
2,note_on,36,0,120
2,note_on,43,56,0
2,note_on,43,0,120
2,note_on,36,67,0
2,note_on,36,0,120
2,note_on,43,58,0
2,note_on,43,0,120
2,note_on,60,55,0
2,note_on,67,55,0
2,note_on,72,64,0
2,note_on,72,0,404
2,note_on,67,0,0
2,note_on,60,0,0
2,note_on,60,49,5
2,note_on,67,49,0
2,note_on,72,59,0
2,note_on,72,0,228
2,note_on,67,0,0
2,note_on,60,0,0
2,note_on,60,49,12
2,note_on,67,49,0
2,note_on,72,59,0
2,note_on,72,0,228
2,note_on,67,0,0
2,note_on,60,0,0
2,note_on,60,56,12
2,note_on,67,56,0
2,note_on,72,66,0
2,note_on,72,0,475
2,note_on,67,0,0
2,note_on,60,0,0
2,note_on,60,50,5
2,note_on,67,50,0
2,note_on,72,60,0
2,note_on,72,0,228
2,note_on,67,0,0
2,note_on,60,0,0
2,note_on,60,50,12
2,note_on,67,50,0
2,note_on,72,60,0
2,note_on,72,0,228
2,note_on,67,0,0
2,note_on,60,0,0
2,note_on,64,56,12
2,note_on,60,56,0
2,note_on,67,56,0
2,note_on,72,66,0
2,note_on,72,0,184
2,note_on,64,0,0
2,note_on,60,0,0
2,note_on,67,0,0
2,note_on,67,79,0
2,note_on,67,0,120
2,note_on,64,81,0
2,note_on,64,0,120
2,note_on,60,83,0
2,note_on,60,0,120
2,note_on,55,85,0
2,note_on,55,0,120
2,note_on,52,89,0
2,note_on,52,0,120
2,note_on,48,91,0
2,note_on,48,0,120
2,note_on,47,96,0
2,note_on,35,96,0
2,note_on,35,0,470
2,note_on,47,0,0
2,note_on,48,92,0
2,note_on,36,77,0
2,note_on,36,0,120
2,note_on,48,0,0
2,note_on,48,92,120
2,note_on,36,77,0
2,note_on,36,0,120
2,note_on,48,0,0
2,note_on,37,57,120
2,note_on,49,68,0
2,note_on,49,0,240
2,note_on,37,0,0
2,note_on,38,57,240
2,note_on,50,68,0
2,note_on,50,0,240
2,note_on,38,0,0
2,note_on,55,55,0
2,note_on,67,64,0
2,note_on,67,0,404
2,note_on,55,0,0
2,note_on,55,49,5
2,note_on,67,59,0
2,note_on,67,0,228
2,note_on,55,0,0
2,note_on,55,49,12
2,note_on,67,59,0
2,note_on,67,0,228
2,note_on,55,0,0
2,note_on,55,56,12
2,note_on,67,66,0
2,note_on,67,0,475
2,note_on,55,0,0
2,note_on,55,50,5
2,note_on,67,60,0
2,note_on,67,0,228
2,note_on,55,0,0
2,note_on,55,50,12
2,note_on,67,60,0
2,note_on,67,0,228
2,note_on,55,0,0
2,note_on,55,56,0
2,note_on,67,66,0
2,note_on,67,0,184
2,note_on,55,0,0
2,note_on,65,79,0
2,note_on,65,0,120
2,note_on,62,81,0
2,note_on,62,0,120
2,note_on,59,83,0
2,note_on,59,0,120
2,note_on,55,85,0
2,note_on,55,0,120
2,note_on,53,89,0
2,note_on,53,0,120
2,note_on,50,91,0
2,note_on,50,0,120
2,note_on,49,96,0
2,note_on,37,96,0
2,note_on,37,0,470
2,note_on,49,0,0
2,note_on,50,92,0
2,note_on,38,77,0
2,note_on,38,0,120
2,note_on,50,0,0
2,note_on,50,92,120
2,note_on,38,77,0
2,note_on,38,0,120
2,note_on,50,0,0
2,note_on,39,59,120
2,note_on,51,71,0
2,note_on,51,0,240
2,note_on,39,0,0
2,note_on,40,59,240
2,note_on,52,71,0
2,note_on,52,0,240
2,note_on,40,0,0
2,note_on,36,50,600
2,note_on,48,60,0
2,note_on,48,0,960
2,note_on,36,0,0
2,note_on,35,44,0
2,note_on,47,53,0
2,note_on,47,0,212
2,note_on,35,0,0
2,note_on,47,57,0
2,note_on,59,70,0
2,note_on,59,0,228
2,note_on,47,0,0
2,note_on,47,53,12
2,note_on,59,65,0
2,note_on,59,0,228
2,note_on,47,0,0
2,note_on,45,63,0
2,note_on,57,72,0
2,note_on,57,0,480
2,note_on,45,0,0
2,note_on,38,50,0
2,note_on,50,61,0
2,note_on,50,0,480
2,note_on,38,0,0
2,note_on,43,48,0
2,note_on,55,59,0
2,note_on,55,0,238
2,note_on,43,0,2
2,note_on,36,50,600
2,note_on,48,60,0
2,note_on,48,0,960
2,note_on,36,0,0
2,note_on,35,44,0
2,note_on,47,53,0
2,note_on,47,0,212
2,note_on,35,0,0
2,note_on,47,57,0
2,note_on,59,70,0
2,note_on,59,0,228
2,note_on,47,0,0
2,note_on,47,53,12
2,note_on,59,65,0
2,note_on,59,0,228
2,note_on,47,0,0
2,note_on,45,63,0
2,note_on,57,72,0
2,note_on,57,0,480
2,note_on,45,0,0
2,note_on,38,50,0
2,note_on,50,61,0
2,note_on,50,0,480
2,note_on,38,0,0
2,note_on,43,48,0
2,note_on,55,59,0
2,note_on,55,0,240
2,note_on,43,0,0
2,note_on,41,50,600
2,note_on,53,60,0
2,note_on,53,0,960
2,note_on,41,0,0
2,note_on,40,44,0
2,note_on,52,53,0
2,note_on,52,0,212
2,note_on,40,0,0
2,note_on,52,57,0
2,note_on,64,70,0
2,note_on,64,0,228
2,note_on,52,0,0
2,note_on,52,53,12
2,note_on,64,65,0
2,note_on,64,0,228
2,note_on,52,0,0
2,note_on,50,63,0
2,note_on,62,72,0
2,note_on,62,0,475
2,note_on,50,0,0
2,note_on,43,54,5
2,note_on,55,67,0
2,note_on,55,0,480
2,note_on,43,0,0
2,note_on,48,52,0
2,note_on,60,65,0
2,note_on,60,0,475
2,note_on,48,0,0
2,note_on,41,55,5
2,note_on,53,67,0
2,note_on,53,0,228
2,note_on,41,0,0
2,note_on,41,51,12
2,note_on,53,62,0
2,note_on,53,0,228
2,note_on,41,0,0
2,note_on,47,60,0
2,note_on,59,69,0
2,note_on,59,0,480
2,note_on,47,0,0
2,note_on,48,53,0
2,note_on,60,65,0
2,note_on,60,0,480
2,note_on,48,0,0
2,note_on,50,52,0
2,note_on,62,65,0
2,note_on,62,0,228
2,note_on,50,0,0
2,note_on,50,55,12
2,note_on,62,55,0
2,note_on,62,0,228
2,note_on,50,0,0
2,note_on,52,58,12
2,note_on,64,71,0
2,note_on,64,0,480
2,note_on,52,0,0
2,note_on,33,81,0
2,note_on,45,96,0
2,note_on,45,0,475
2,note_on,33,0,0
2,note_on,33,75,5
2,note_on,45,90,0
2,note_on,45,0,228
2,note_on,33,0,0
2,note_on,33,75,12
2,note_on,45,90,0
2,note_on,45,0,228
2,note_on,33,0,0
2,note_on,33,81,12
2,note_on,45,96,0
2,note_on,45,0,475
2,note_on,33,0,0
2,note_on,33,75,5
2,note_on,45,90,0
2,note_on,45,0,228
2,note_on,33,0,0
2,note_on,33,74,12
2,note_on,45,88,0
2,note_on,45,0,228
2,note_on,33,0,0
2,note_on,33,81,12
2,note_on,45,96,0
2,note_on,45,0,240
2,note_on,33,0,0
2,note_on,36,75,0
2,note_on,48,90,0
2,note_on,48,0,240
2,note_on,36,0,0
2,note_on,35,79,0
2,note_on,47,93,0
2,note_on,47,0,11
2,note_on,35,0,0
2,note_on,74,79,0
2,note_on,77,93,0
2,note_on,77,0,909
2,note_on,74,0,0
2,note_on,35,81,0
2,note_on,47,96,0
2,note_on,47,0,454
2,note_on,35,0,0
2,note_on,35,75,5
2,note_on,47,90,0
2,note_on,47,0,228
2,note_on,35,0,0
2,note_on,35,75,12
2,note_on,47,90,0
2,note_on,47,0,228
2,note_on,35,0,0
2,note_on,35,81,12
2,note_on,47,96,0
2,note_on,47,0,475
2,note_on,35,0,0
2,note_on,35,75,5
2,note_on,47,90,0
2,note_on,47,0,228
2,note_on,35,0,0
2,note_on,35,74,12
2,note_on,47,88,0
2,note_on,47,0,228
2,note_on,35,0,0
2,note_on,35,81,12
2,note_on,47,96,0
2,note_on,47,0,240
2,note_on,35,0,0
2,note_on,38,75,0
2,note_on,50,90,0
2,note_on,50,0,240
2,note_on,38,0,0
2,note_on,36,79,0
2,note_on,48,93,0
2,note_on,48,0,11
2,note_on,36,0,0
2,note_on,72,79,0
2,note_on,76,79,0
2,note_on,81,93,0
2,note_on,81,0,909
2,note_on,76,0,0
2,note_on,72,0,0
2,note_on,37,77,0
2,note_on,49,91,0
2,note_on,49,0,240
2,note_on,37,0,0
2,note_on,40,71,0
2,note_on,52,84,0
2,note_on,52,0,240
2,note_on,40,0,0
2,note_on,38,74,0
2,note_on,50,88,0
2,note_on,50,0,446
2,note_on,38,0,0
2,note_on,74,70,0
2,note_on,77,72,0
2,note_on,82,85,0
2,note_on,82,0,909
2,note_on,77,0,0
2,note_on,74,0,0
2,note_on,40,52,0
2,note_on,52,52,0
2,note_on,52,0,417
2,note_on,40,0,0
2,note_on,41,55,0
2,note_on,53,55,0
2,note_on,53,0,406
2,note_on,41,0,0
2,note_on,44,58,0
2,note_on,56,58,0
2,note_on,56,0,411
2,note_on,44,0,0
2,note_on,45,60,0
2,note_on,57,60,0
2,note_on,57,0,411
2,note_on,45,0,0
2,note_on,47,63,0
2,note_on,59,63,0
2,note_on,59,0,429
2,note_on,47,0,0
2,note_on,48,66,0
2,note_on,60,66,0
2,note_on,60,0,423
2,note_on,48,0,0
2,note_on,65,68,0
2,note_on,53,68,0
2,note_on,53,0,423
2,note_on,65,0,0
2,note_on,52,65,0
2,note_on,64,65,0
2,note_on,64,0,414
2,note_on,52,0,0
2,note_on,33,75,0
2,note_on,33,0,183
2,note_on,35,67,0
2,note_on,35,0,120
2,note_on,36,67,0
2,note_on,36,0,120
2,note_on,38,66,0
2,note_on,38,0,46
2,note_on,40,66,0
2,note_on,40,0,120
2,note_on,42,65,0
2,note_on,42,0,120
2,note_on,44,64,0
2,note_on,44,0,120
2,note_on,45,64,0
2,note_on,45,0,46
2,note_on,47,63,0
2,note_on,47,0,120
2,note_on,48,63,0
2,note_on,48,0,120
2,note_on,50,63,0
2,note_on,50,0,120
2,note_on,52,63,0
2,note_on,52,0,69
2,note_on,54,62,0
2,note_on,54,0,120
2,note_on,56,61,0
2,note_on,56,0,120
2,note_on,57,61,0
2,note_on,57,0,120
2,note_on,58,58,0
2,note_on,58,0,51
2,note_on,61,53,0
2,note_on,61,0,120
2,note_on,62,53,0
2,note_on,62,0,120
2,note_on,64,53,0
2,note_on,64,0,120
2,note_on,58,52,0
2,note_on,58,0,63
2,note_on,61,46,0
2,note_on,61,0,120
2,note_on,62,46,0
2,note_on,62,0,120
2,note_on,64,46,0
2,note_on,64,0,120
2,note_on,58,54,0
2,note_on,58,0,80
2,note_on,61,47,0
2,note_on,61,0,120
2,note_on,62,47,0
2,note_on,62,0,120
2,note_on,64,47,0
2,note_on,64,0,120
2,note_on,58,53,0
2,note_on,58,0,120
2,note_on,61,48,0
2,note_on,61,0,120
2,note_on,62,48,0
2,note_on,62,0,120
2,note_on,64,48,0
2,note_on,64,0,120
2,note_on,37,75,0
2,note_on,37,0,183
2,note_on,38,67,0
2,note_on,38,0,120
2,note_on,40,67,0
2,note_on,40,0,120
2,note_on,41,66,0
2,note_on,41,0,46
2,note_on,43,66,0
2,note_on,43,0,120
2,note_on,45,65,0
2,note_on,45,0,120
2,note_on,47,64,0
2,note_on,47,0,120
2,note_on,49,64,0
2,note_on,49,0,46
2,note_on,50,63,0
2,note_on,50,0,120
2,note_on,52,63,0
2,note_on,52,0,120
2,note_on,53,63,0
2,note_on,53,0,120
2,note_on,55,63,0
2,note_on,55,0,69
2,note_on,57,62,0
2,note_on,57,0,120
2,note_on,59,61,0
2,note_on,59,0,120
2,note_on,61,61,0
2,note_on,61,0,120
2,note_on,62,58,0
2,note_on,62,0,51
2,note_on,65,53,0
2,note_on,65,0,120
2,note_on,68,53,0
2,note_on,68,0,120
2,note_on,69,53,0
2,note_on,69,0,120
2,note_on,62,52,0
2,note_on,62,0,63
2,note_on,65,46,0
2,note_on,65,0,120
2,note_on,68,46,0
2,note_on,68,0,120
2,note_on,69,46,0
2,note_on,69,0,120
2,note_on,62,54,0
2,note_on,62,0,80
2,note_on,65,47,0
2,note_on,65,0,120
2,note_on,68,47,0
2,note_on,68,0,120
2,note_on,69,47,0
2,note_on,69,0,120
2,note_on,62,53,0
2,note_on,62,0,120
2,note_on,65,48,0
2,note_on,65,0,120
2,note_on,68,48,0
2,note_on,68,0,120
2,note_on,69,48,0
2,note_on,69,0,120
2,note_on,60,55,0
2,note_on,60,0,51
2,note_on,64,50,0
2,note_on,64,0,120
2,note_on,68,49,0
2,note_on,68,0,120
2,note_on,69,49,0
2,note_on,69,0,120
2,note_on,60,47,0
2,note_on,60,0,63
2,note_on,64,42,0
2,note_on,64,0,120
2,note_on,68,41,0
2,note_on,68,0,120
2,note_on,69,41,0
2,note_on,69,0,120
2,note_on,60,48,0
2,note_on,60,0,80
2,note_on,64,41,0
2,note_on,64,0,120
2,note_on,68,41,0
2,note_on,68,0,120
2,note_on,69,40,0
2,note_on,69,0,120
2,note_on,60,45,0
2,note_on,60,0,120
2,note_on,64,40,0
2,note_on,64,0,120
2,note_on,68,40,0
2,note_on,68,0,120
2,note_on,69,40,0
2,note_on,69,0,120
2,note_on,59,48,0
2,note_on,59,0,51
2,note_on,62,43,0
2,note_on,62,0,120
2,note_on,68,42,0
2,note_on,68,0,120
2,note_on,69,42,0
2,note_on,69,0,120
2,note_on,59,41,0
2,note_on,59,0,63
2,note_on,62,36,0
2,note_on,62,0,120
2,note_on,68,35,0
2,note_on,68,0,120
2,note_on,69,35,0
2,note_on,69,0,120
2,note_on,59,41,0
2,note_on,59,0,80
2,note_on,62,35,0
2,note_on,62,0,120
2,note_on,68,35,0
2,note_on,68,0,120
2,note_on,69,34,0
2,note_on,69,0,120
2,note_on,59,39,0
2,note_on,59,0,120
2,note_on,62,35,0
2,note_on,62,0,120
2,note_on,68,34,0
2,note_on,68,0,120
2,note_on,69,34,0
2,note_on,69,0,120
2,note_on,57,43,0
2,note_on,57,0,51
2,note_on,60,35,0
2,note_on,60,0,120
2,note_on,68,35,0
2,note_on,68,0,120
2,note_on,69,35,0
2,note_on,69,0,120
2,note_on,57,35,0
2,note_on,57,0,63
2,note_on,60,35,0
2,note_on,60,0,120
2,note_on,68,31,0
2,note_on,68,0,120
2,note_on,69,31,0
2,note_on,69,0,23
2,note_on,48,40,0
2,note_on,48,0,69
2,note_on,57,36,0
2,note_on,57,0,120
2,note_on,50,37,0
2,note_on,50,0,120
2,note_on,57,38,0
2,note_on,57,0,120
2,note_on,45,46,0
2,note_on,45,0,120
2,note_on,57,40,0
2,note_on,57,0,120
2,note_on,47,41,0
2,note_on,47,0,120
2,note_on,57,42,0
2,note_on,57,0,120
2,note_on,48,50,0
2,note_on,48,0,69
2,note_on,57,43,0
2,note_on,57,0,120
2,note_on,52,43,0
2,note_on,52,0,120
2,note_on,57,43,0
2,note_on,57,0,120
2,note_on,50,47,0
2,note_on,50,0,120
2,note_on,57,39,0
2,note_on,57,0,120
2,note_on,53,39,0
2,note_on,53,0,120
2,note_on,57,39,0
2,note_on,57,0,120
2,note_on,52,45,0
2,note_on,52,0,63
2,note_on,60,35,0
2,note_on,60,0,120
2,note_on,57,35,0
2,note_on,57,0,120
2,note_on,60,35,0
2,note_on,60,0,120
2,note_on,52,46,0
2,note_on,52,0,120
2,note_on,62,35,0
2,note_on,62,0,120
2,note_on,56,35,0
2,note_on,56,0,120
2,note_on,62,35,0
2,note_on,62,0,120
2,note_on,53,41,0
2,note_on,53,0,56
2,note_on,60,32,0
2,note_on,60,0,120
2,note_on,57,33,0
2,note_on,57,0,120
2,note_on,60,33,0
2,note_on,60,0,120
2,note_on,53,41,0
2,note_on,53,0,120
2,note_on,60,35,0
2,note_on,60,0,120
2,note_on,57,35,0
2,note_on,57,0,120
2,note_on,60,35,0
2,note_on,60,0,120
2,note_on,48,40,0
2,note_on,48,0,69
2,note_on,57,36,0
2,note_on,57,0,120
2,note_on,50,37,0
2,note_on,50,0,120
2,note_on,57,38,0
2,note_on,57,0,120
2,note_on,45,46,0
2,note_on,45,0,120
2,note_on,57,40,0
2,note_on,57,0,120
2,note_on,47,41,0
2,note_on,47,0,120
2,note_on,57,42,0
2,note_on,57,0,120
2,note_on,48,50,0
2,note_on,48,0,69
2,note_on,57,43,0
2,note_on,57,0,120
2,note_on,52,43,0
2,note_on,52,0,120
2,note_on,57,43,0
2,note_on,57,0,120
2,note_on,50,47,0
2,note_on,50,0,120
2,note_on,57,39,0
2,note_on,57,0,120
2,note_on,53,39,0
2,note_on,53,0,120
2,note_on,57,39,0
2,note_on,57,0,120
2,note_on,52,45,0
2,note_on,52,0,61
2,note_on,60,35,0
2,note_on,60,0,120
2,note_on,57,35,0
2,note_on,57,0,120
2,note_on,60,35,0
2,note_on,60,0,120
2,note_on,52,46,0
2,note_on,52,0,120
2,note_on,62,35,0
2,note_on,62,0,120
2,note_on,56,35,0
2,note_on,56,0,120
2,note_on,62,35,0
2,note_on,35,68,0
2,note_on,47,80,0
2,note_on,62,0,10
2,note_on,47,0,110
2,note_on,35,0,0
2,note_on,38,64,120
2,note_on,50,76,0
2,note_on,50,0,120
2,note_on,38,0,0
2,note_on,36,69,120
2,note_on,48,82,0
2,note_on,48,0,446
2,note_on,36,0,0
2,note_on,37,69,0
2,note_on,49,81,0
2,note_on,49,0,114
2,note_on,37,0,0
2,note_on,40,64,120
2,note_on,52,76,0
2,note_on,52,0,120
2,note_on,40,0,0
2,note_on,38,70,120
2,note_on,50,82,0
2,note_on,50,0,434
2,note_on,38,0,0
2,note_on,39,70,0
2,note_on,51,83,0
2,note_on,51,0,120
2,note_on,39,0,0
2,note_on,41,65,120
2,note_on,53,77,0
2,note_on,53,0,120
2,note_on,41,0,0
2,note_on,40,71,120
2,note_on,52,84,0
2,note_on,52,0,417
2,note_on,40,0,0
2,note_on,40,72,0
2,note_on,52,84,0
2,note_on,52,0,114
2,note_on,40,0,0
2,note_on,43,66,120
2,note_on,55,79,0
2,note_on,55,0,120
2,note_on,43,0,0
2,note_on,41,72,120
2,note_on,53,85,0
2,note_on,53,0,400
2,note_on,41,0,0
2,note_on,44,73,0
2,note_on,56,86,0
2,note_on,56,0,120
2,note_on,44,0,0
2,note_on,62,80,120
2,note_on,59,67,0
2,note_on,59,0,120
2,note_on,62,0,0
2,note_on,65,88,120
2,note_on,62,74,0
2,note_on,59,74,0
2,note_on,56,74,0
2,note_on,56,0,931
2,note_on,65,0,0
2,note_on,62,0,0
2,note_on,59,0,0
2,note_on,52,37,0
2,note_on,56,37,0
2,note_on,59,45,0
2,note_on,59,0,459
2,note_on,56,0,0
2,note_on,52,0,0
2,note_on,48,45,0
2,note_on,48,0,69
2,note_on,57,38,0
2,note_on,57,0,120
2,note_on,52,38,0
2,note_on,52,0,120
2,note_on,57,38,0
2,note_on,57,0,120
2,note_on,50,42,0
2,note_on,50,0,120
2,note_on,57,35,0
2,note_on,57,0,120
2,note_on,53,35,0
2,note_on,53,0,120
2,note_on,57,35,0
2,note_on,57,0,120
2,note_on,52,40,0
2,note_on,52,0,63
2,note_on,60,31,0
2,note_on,60,0,120
2,note_on,57,31,0
2,note_on,57,0,120
2,note_on,60,31,0
2,note_on,60,0,120
2,note_on,52,41,0
2,note_on,52,0,120
2,note_on,62,31,0
2,note_on,62,0,120
2,note_on,56,31,0
2,note_on,56,0,120
2,note_on,62,31,0
2,note_on,62,0,120
2,note_on,48,32,0
2,note_on,48,0,69
2,note_on,57,27,0
2,note_on,57,0,120
2,note_on,52,27,0
2,note_on,52,0,120
2,note_on,57,27,0
2,note_on,57,0,120
2,note_on,50,29,0
2,note_on,50,0,120
2,note_on,57,25,0
2,note_on,57,0,120
2,note_on,53,25,0
2,note_on,53,0,120
2,note_on,57,25,0
2,note_on,57,0,120
2,note_on,52,28,0
2,note_on,52,0,34
2,note_on,60,21,0
2,note_on,60,0,120
2,note_on,57,21,0
2,note_on,57,0,120
2,note_on,60,21,0
2,note_on,60,0,120
2,note_on,52,28,0
2,note_on,52,0,120
2,note_on,62,21,0
2,note_on,62,0,120
2,note_on,56,21,0
2,note_on,56,0,120
2,note_on,62,21,0
2,note_on,62,0,120
2,note_on,35,68,0
2,note_on,47,80,0
2,note_on,47,0,120
2,note_on,35,0,0
2,note_on,38,64,120
2,note_on,50,76,0
2,note_on,50,0,120
2,note_on,38,0,0
2,note_on,36,69,120
2,note_on,48,82,0
2,note_on,48,0,446
2,note_on,36,0,0
2,note_on,37,68,0
2,note_on,49,80,0
2,note_on,49,0,114
2,note_on,37,0,0
2,note_on,40,64,120
2,note_on,52,76,0
2,note_on,52,0,120
2,note_on,40,0,0
2,note_on,38,69,120
2,note_on,50,81,0
2,note_on,50,0,434
2,note_on,38,0,0
2,note_on,39,70,0
2,note_on,51,82,0
2,note_on,51,0,120
2,note_on,39,0,0
2,note_on,41,63,120
2,note_on,53,76,0
2,note_on,53,0,120
2,note_on,41,0,0
2,note_on,40,70,120
2,note_on,52,83,0
2,note_on,52,0,417
2,note_on,40,0,0
2,note_on,40,71,0
2,note_on,52,84,0
2,note_on,52,0,114
2,note_on,40,0,0
2,note_on,43,65,120
2,note_on,55,77,0
2,note_on,55,0,120
2,note_on,43,0,0
2,note_on,41,71,120
2,note_on,53,84,0
2,note_on,53,0,400
2,note_on,41,0,0
2,note_on,42,72,0
2,note_on,54,84,0
2,note_on,54,0,120
2,note_on,42,0,0
2,note_on,45,66,120
2,note_on,57,79,0
2,note_on,57,0,120
2,note_on,45,0,0
2,note_on,44,72,120
2,note_on,56,85,0
2,note_on,56,0,417
2,note_on,44,0,0
2,note_on,44,73,0
2,note_on,56,86,0
2,note_on,56,0,114
2,note_on,44,0,0
2,note_on,47,66,120
2,note_on,59,79,0
2,note_on,59,0,120
2,note_on,47,0,0
2,note_on,45,74,120
2,note_on,57,87,0
2,note_on,57,0,400
2,note_on,45,0,0
2,note_on,58,77,0
2,note_on,62,77,0
2,note_on,65,77,0
2,note_on,68,92,0
2,note_on,68,0,959
2,note_on,58,0,1
2,note_on,62,0,0
2,note_on,65,0,0
2,note_on,51,36,0
2,note_on,51,0,120
2,note_on,58,30,0
2,note_on,58,0,120
2,note_on,55,31,0
2,note_on,55,0,120
2,note_on,58,31,0
2,note_on,58,0,120
2,note_on,63,36,0
2,note_on,63,0,120
2,note_on,58,31,0
2,note_on,58,0,120
2,note_on,55,31,0
2,note_on,55,0,120
2,note_on,58,31,0
2,note_on,58,0,120
2,note_on,51,36,0
2,note_on,51,0,63
2,note_on,58,31,0
2,note_on,58,0,120
2,note_on,55,31,0
2,note_on,55,0,120
2,note_on,58,32,0
2,note_on,58,0,120
2,note_on,63,36,0
2,note_on,63,0,120
2,note_on,58,31,0
2,note_on,58,0,120
2,note_on,55,31,0
2,note_on,55,0,120
2,note_on,58,31,0
2,note_on,58,0,120
2,note_on,51,36,0
2,note_on,51,0,57
2,note_on,58,30,0
2,note_on,58,0,120
2,note_on,55,31,0
2,note_on,55,0,120
2,note_on,58,31,0
2,note_on,58,0,120
2,note_on,63,36,0
2,note_on,63,0,120
2,note_on,58,31,0
2,note_on,58,0,120
2,note_on,55,31,0
2,note_on,55,0,120
2,note_on,58,31,0
2,note_on,58,0,120
2,note_on,51,36,0
2,note_on,51,0,63
2,note_on,58,31,0
2,note_on,58,0,120
2,note_on,55,31,0
2,note_on,55,0,120
2,note_on,58,32,0
2,note_on,58,0,120
2,note_on,63,36,0
2,note_on,63,0,120
2,note_on,58,31,0
2,note_on,58,0,120
2,note_on,55,31,0
2,note_on,55,0,120
2,note_on,58,31,0
2,note_on,58,0,120
2,note_on,46,40,0
2,note_on,46,0,57
2,note_on,58,33,0
2,note_on,58,0,120
2,note_on,56,34,0
2,note_on,56,0,120
2,note_on,58,34,0
2,note_on,58,0,120
2,note_on,62,40,0
2,note_on,62,0,120
2,note_on,58,34,0
2,note_on,58,0,120
2,note_on,56,34,0
2,note_on,56,0,120
2,note_on,58,34,0
2,note_on,58,0,120
2,note_on,46,40,0
2,note_on,46,0,63
2,note_on,58,34,0
2,note_on,58,0,120
2,note_on,56,34,0
2,note_on,56,0,120
2,note_on,58,35,0
2,note_on,58,0,120
2,note_on,62,40,0
2,note_on,62,0,120
2,note_on,58,34,0
2,note_on,58,0,120
2,note_on,56,34,0
2,note_on,56,0,120
2,note_on,58,34,0
2,note_on,58,0,120
2,note_on,46,40,0
2,note_on,46,0,57
2,note_on,58,33,0
2,note_on,58,0,120
2,note_on,56,34,0
2,note_on,56,0,120
2,note_on,58,34,0
2,note_on,58,0,120
2,note_on,62,40,0
2,note_on,62,0,120
2,note_on,58,34,0
2,note_on,58,0,120
2,note_on,56,34,0
2,note_on,56,0,120
2,note_on,58,34,0
2,note_on,58,0,120
2,note_on,46,40,0
2,note_on,46,0,63
2,note_on,58,34,0
2,note_on,58,0,120
2,note_on,56,34,0
2,note_on,56,0,120
2,note_on,58,35,0
2,note_on,58,0,120
2,note_on,62,40,0
2,note_on,62,0,120
2,note_on,58,34,0
2,note_on,58,0,120
2,note_on,56,34,0
2,note_on,56,0,120
2,note_on,58,34,0
2,note_on,58,0,120
2,note_on,51,40,0
2,note_on,51,0,63
2,note_on,58,33,0
2,note_on,58,0,120
2,note_on,55,34,0
2,note_on,55,0,120
2,note_on,58,34,0
2,note_on,58,0,120
2,note_on,63,40,0
2,note_on,63,0,120
2,note_on,58,34,0
2,note_on,58,0,120
2,note_on,55,34,0
2,note_on,55,0,120
2,note_on,58,34,0
2,note_on,58,0,120
2,note_on,51,40,0
2,note_on,51,0,63
2,note_on,58,34,0
2,note_on,58,0,120
2,note_on,55,34,0
2,note_on,55,0,120
2,note_on,58,35,0
2,note_on,58,0,120
2,note_on,63,40,0
2,note_on,63,0,120
2,note_on,58,34,0
2,note_on,58,0,120
2,note_on,55,34,0
2,note_on,55,0,120
2,note_on,58,34,0
2,note_on,58,0,120
2,note_on,51,40,0
2,note_on,51,0,57
2,note_on,58,33,0
2,note_on,58,0,120
2,note_on,55,34,0
2,note_on,55,0,120
2,note_on,58,34,0
2,note_on,58,0,120
2,note_on,63,40,0
2,note_on,63,0,120
2,note_on,58,34,0
2,note_on,58,0,120
2,note_on,55,34,0
2,note_on,55,0,120
2,note_on,58,34,0
2,note_on,58,0,120
2,note_on,51,40,0
2,note_on,51,0,63
2,note_on,58,34,0
2,note_on,58,0,120
2,note_on,55,34,0
2,note_on,55,0,120
2,note_on,58,35,0
2,note_on,58,0,120
2,note_on,63,40,0
2,note_on,63,0,120
2,note_on,58,34,0
2,note_on,58,0,120
2,note_on,55,34,0
2,note_on,55,0,120
2,note_on,58,34,0
2,note_on,58,0,120
2,note_on,46,44,0
2,note_on,46,0,57
2,note_on,58,36,0
2,note_on,58,0,120
2,note_on,56,36,0
2,note_on,56,0,120
2,note_on,58,36,0
2,note_on,58,0,120
2,note_on,62,44,0
2,note_on,62,0,120
2,note_on,58,36,0
2,note_on,58,0,120
2,note_on,56,36,0
2,note_on,56,0,120
2,note_on,58,36,0
2,note_on,58,0,120
2,note_on,46,44,0
2,note_on,46,0,63
2,note_on,58,36,0
2,note_on,58,0,120
2,note_on,56,36,0
2,note_on,56,0,120
2,note_on,58,37,0
2,note_on,58,0,120
2,note_on,62,44,0
2,note_on,62,0,120
2,note_on,58,36,0
2,note_on,58,0,120
2,note_on,56,36,0
2,note_on,56,0,120
2,note_on,58,36,0
2,note_on,58,0,120
2,note_on,46,44,0
2,note_on,46,0,57
2,note_on,58,36,0
2,note_on,58,0,120
2,note_on,56,36,0
2,note_on,56,0,120
2,note_on,58,36,0
2,note_on,58,0,120
2,note_on,62,44,0
2,note_on,62,0,120
2,note_on,58,36,0
2,note_on,58,0,120
2,note_on,56,36,0
2,note_on,56,0,120
2,note_on,58,36,0
2,note_on,58,0,120
2,note_on,46,44,0
2,note_on,46,0,63
2,note_on,58,36,0
2,note_on,58,0,120
2,note_on,56,36,0
2,note_on,56,0,120
2,note_on,58,37,0
2,note_on,58,0,120
2,note_on,62,44,0
2,note_on,62,0,120
2,note_on,58,36,0
2,note_on,58,0,120
2,note_on,56,36,0
2,note_on,56,0,120
2,note_on,58,36,0
2,note_on,58,0,120
2,note_on,51,44,0
2,note_on,51,0,57
2,note_on,58,36,0
2,note_on,58,0,120
2,note_on,55,36,0
2,note_on,55,0,120
2,note_on,58,36,0
2,note_on,58,0,120
2,note_on,63,44,0
2,note_on,63,0,120
2,note_on,58,36,0
2,note_on,58,0,120
2,note_on,55,36,0
2,note_on,55,0,120
2,note_on,58,36,0
2,note_on,58,0,120
2,note_on,43,44,0
2,note_on,43,0,63
2,note_on,59,36,0
2,note_on,59,0,120
2,note_on,55,36,0
2,note_on,55,0,120
2,note_on,59,37,0
2,note_on,59,0,120
2,note_on,65,44,0
2,note_on,65,0,120
2,note_on,59,36,0
2,note_on,59,0,120
2,note_on,55,36,0
2,note_on,55,0,120
2,note_on,59,36,0
2,note_on,59,0,120
2,note_on,48,44,0
2,note_on,48,0,57
2,note_on,55,36,0
2,note_on,55,0,120
2,note_on,51,36,0
2,note_on,51,0,120
2,note_on,55,36,0
2,note_on,55,0,120
2,note_on,60,44,0
2,note_on,60,0,120
2,note_on,55,36,0
2,note_on,55,0,120
2,note_on,51,36,0
2,note_on,51,0,120
2,note_on,55,36,0
2,note_on,55,0,120
2,note_on,39,44,0
2,note_on,39,0,63
2,note_on,55,36,0
2,note_on,55,0,120
2,note_on,51,36,0
2,note_on,51,0,120
2,note_on,55,37,0
2,note_on,55,0,120
2,note_on,61,44,0
2,note_on,61,0,120
2,note_on,55,36,0
2,note_on,55,0,120
2,note_on,51,36,0
2,note_on,51,0,120
2,note_on,55,36,0
2,note_on,55,0,120
2,note_on,44,44,0
2,note_on,44,0,57
2,note_on,51,36,0
2,note_on,51,0,120
2,note_on,48,36,0
2,note_on,48,0,120
2,note_on,51,36,0
2,note_on,51,0,120
2,note_on,56,42,0
2,note_on,56,0,120
2,note_on,51,35,0
2,note_on,51,0,120
2,note_on,48,34,0
2,note_on,48,0,120
2,note_on,51,34,0
2,note_on,51,0,120
2,note_on,37,40,0
2,note_on,37,0,63
2,note_on,53,33,0
2,note_on,53,0,120
2,note_on,49,33,0
2,note_on,49,0,120
2,note_on,53,33,0
2,note_on,53,0,120
2,note_on,58,38,0
2,note_on,58,0,120
2,note_on,53,32,0
2,note_on,53,0,120
2,note_on,49,31,0
2,note_on,49,0,120
2,note_on,53,31,0
2,note_on,53,0,120
2,note_on,39,36,0
2,note_on,39,0,57
2,note_on,51,30,0
2,note_on,51,0,120
2,note_on,48,30,0
2,note_on,48,0,120
2,note_on,51,30,0
2,note_on,51,0,120
2,note_on,56,36,0
2,note_on,56,0,120
2,note_on,51,29,0
2,note_on,51,0,120
2,note_on,48,28,0
2,note_on,48,0,120
2,note_on,51,28,0
2,note_on,51,0,120
2,note_on,39,34,0
2,note_on,39,0,63
2,note_on,51,27,0
2,note_on,51,0,120
2,note_on,49,27,0
2,note_on,49,0,120
2,note_on,51,27,0
2,note_on,51,0,120
2,note_on,58,32,0
2,note_on,58,0,120
2,note_on,51,26,0
2,note_on,51,0,120
2,note_on,49,26,0
2,note_on,49,0,120
2,note_on,51,26,0
2,note_on,51,0,120
2,note_on,56,26,0
2,note_on,56,0,80
2,note_on,63,25,0
2,note_on,63,0,120
2,note_on,60,26,0
2,note_on,60,0,120
2,note_on,63,26,0
2,note_on,63,0,120
2,note_on,68,29,0
2,note_on,68,0,120
2,note_on,63,26,0
2,note_on,63,0,120
2,note_on,60,26,0
2,note_on,60,0,120
2,note_on,63,26,0
2,note_on,63,0,120
2,note_on,56,29,0
2,note_on,56,0,63
2,note_on,63,26,0
2,note_on,63,0,120
2,note_on,60,26,0
2,note_on,60,0,120
2,note_on,63,26,0
2,note_on,63,0,120
2,note_on,67,29,0
2,note_on,67,0,120
2,note_on,63,26,0
2,note_on,63,0,120
2,note_on,68,26,0
2,note_on,68,0,120
2,note_on,63,26,0
2,note_on,63,0,120
2,note_on,56,29,0
2,note_on,56,0,80
2,note_on,63,25,0
2,note_on,63,0,120
2,note_on,60,26,0
2,note_on,60,0,120
2,note_on,63,26,0
2,note_on,63,0,120
2,note_on,68,29,0
2,note_on,68,0,120
2,note_on,63,26,0
2,note_on,63,0,120
2,note_on,60,26,0
2,note_on,60,0,120
2,note_on,63,26,0
2,note_on,63,0,120
2,note_on,56,29,0
2,note_on,56,0,63
2,note_on,63,26,0
2,note_on,63,0,120
2,note_on,60,26,0
2,note_on,60,0,120
2,note_on,63,26,0
2,note_on,63,0,120
2,note_on,67,29,0
2,note_on,67,0,120
2,note_on,63,26,0
2,note_on,63,0,120
2,note_on,68,26,0
2,note_on,68,0,120
2,note_on,63,26,0
2,note_on,63,0,120
2,note_on,51,31,0
2,note_on,51,0,80
2,note_on,63,26,0
2,note_on,63,0,120
2,note_on,61,27,0
2,note_on,61,0,120
2,note_on,63,27,0
2,note_on,63,0,120
2,note_on,67,31,0
2,note_on,67,0,120
2,note_on,63,27,0
2,note_on,63,0,120
2,note_on,61,27,0
2,note_on,61,0,120
2,note_on,63,27,0
2,note_on,63,0,120
2,note_on,51,31,0
2,note_on,51,0,63
2,note_on,63,27,0
2,note_on,63,0,120
2,note_on,65,27,0
2,note_on,65,0,120
2,note_on,63,27,0
2,note_on,63,0,120
2,note_on,62,31,0
2,note_on,62,0,120
2,note_on,63,27,0
2,note_on,63,0,120
2,note_on,61,27,0
2,note_on,61,0,120
2,note_on,63,27,0
2,note_on,63,0,120
2,note_on,51,31,0
2,note_on,51,0,80
2,note_on,63,26,0
2,note_on,63,0,120
2,note_on,61,27,0
2,note_on,61,0,120
2,note_on,63,27,0
2,note_on,63,0,120
2,note_on,67,31,0
2,note_on,67,0,120
2,note_on,63,27,0
2,note_on,63,0,120
2,note_on,61,27,0
2,note_on,61,0,120
2,note_on,63,27,0
2,note_on,63,0,120
2,note_on,51,31,0
2,note_on,51,0,63
2,note_on,63,27,0
2,note_on,63,0,120
2,note_on,65,27,0
2,note_on,65,0,120
2,note_on,63,27,0
2,note_on,63,0,120
2,note_on,62,31,0
2,note_on,62,0,120
2,note_on,63,27,0
2,note_on,63,0,120
2,note_on,61,27,0
2,note_on,61,0,120
2,note_on,63,27,0
2,note_on,63,0,120
2,note_on,56,46,0
2,note_on,56,0,57
2,note_on,63,38,0
2,note_on,63,0,120
2,note_on,60,38,0
2,note_on,60,0,120
2,note_on,63,38,0
2,note_on,63,0,120
2,note_on,68,46,0
2,note_on,68,0,120
2,note_on,63,38,0
2,note_on,63,0,120
2,note_on,60,38,0
2,note_on,60,0,120
2,note_on,63,38,0
2,note_on,63,0,120
2,note_on,48,46,0
2,note_on,48,0,63
2,note_on,60,38,0
2,note_on,60,0,120
2,note_on,55,38,0
2,note_on,55,0,120
2,note_on,60,39,0
2,note_on,60,0,120
2,note_on,64,46,0
2,note_on,64,0,120
2,note_on,60,38,0
2,note_on,60,0,120
2,note_on,55,38,0
2,note_on,55,0,120
2,note_on,60,38,0
2,note_on,60,0,120
2,note_on,53,46,0
2,note_on,53,0,57
2,note_on,60,38,0
2,note_on,60,0,120
2,note_on,56,38,0
2,note_on,56,0,120
2,note_on,60,38,0
2,note_on,60,0,120
2,note_on,65,46,0
2,note_on,65,0,120
2,note_on,60,38,0
2,note_on,60,0,120
2,note_on,56,38,0
2,note_on,56,0,120
2,note_on,60,38,0
2,note_on,60,0,120
2,note_on,44,46,0
2,note_on,44,0,63
2,note_on,56,38,0
2,note_on,56,0,120
2,note_on,51,38,0
2,note_on,51,0,120
2,note_on,56,39,0
2,note_on,56,0,120
2,note_on,60,46,0
2,note_on,60,0,120
2,note_on,56,38,0
2,note_on,56,0,120
2,note_on,51,38,0
2,note_on,51,0,120
2,note_on,56,38,0
2,note_on,56,0,120
2,note_on,49,49,0
2,note_on,49,0,57
2,note_on,56,40,0
2,note_on,56,0,120
2,note_on,53,40,0
2,note_on,53,0,120
2,note_on,56,40,0
2,note_on,56,0,120
2,note_on,61,47,0
2,note_on,61,0,120
2,note_on,56,39,0
2,note_on,56,0,120
2,note_on,53,38,0
2,note_on,53,0,120
2,note_on,56,38,0
2,note_on,56,0,120
2,note_on,42,45,0
2,note_on,42,0,63
2,note_on,58,37,0
2,note_on,58,0,120
2,note_on,54,37,0
2,note_on,54,0,120
2,note_on,58,37,0
2,note_on,58,0,120
2,note_on,63,43,0
2,note_on,63,0,120
2,note_on,58,36,0
2,note_on,58,0,120
2,note_on,54,35,0
2,note_on,54,0,120
2,note_on,58,35,0
2,note_on,58,0,120
2,note_on,44,41,0
2,note_on,44,0,57
2,note_on,56,34,0
2,note_on,56,0,120
2,note_on,53,34,0
2,note_on,53,0,120
2,note_on,56,34,0
2,note_on,56,0,120
2,note_on,61,40,0
2,note_on,61,0,120
2,note_on,56,33,0
2,note_on,56,0,120
2,note_on,53,32,0
2,note_on,53,0,120
2,note_on,56,32,0
2,note_on,56,0,120
2,note_on,44,38,0
2,note_on,44,0,63
2,note_on,56,31,0
2,note_on,56,0,120
2,note_on,54,31,0
2,note_on,54,0,120
2,note_on,56,31,0
2,note_on,56,0,120
2,note_on,63,36,0
2,note_on,63,0,120
2,note_on,56,29,0
2,note_on,56,0,120
2,note_on,54,29,0
2,note_on,54,0,120
2,note_on,56,29,0
2,note_on,56,0,120
2,note_on,53,57,0
2,note_on,49,57,0
2,note_on,56,57,0
2,note_on,61,67,0
2,note_on,61,0,475
2,note_on,53,0,0
2,note_on,49,0,0
2,note_on,56,0,0
2,note_on,53,51,5
2,note_on,49,51,0
2,note_on,56,51,0
2,note_on,61,61,0
2,note_on,61,0,120
2,note_on,53,0,0
2,note_on,49,0,0
2,note_on,56,0,0
2,note_on,53,51,120
2,note_on,49,51,0
2,note_on,56,51,0
2,note_on,61,61,0
2,note_on,61,0,120
2,note_on,53,0,0
2,note_on,49,0,0
2,note_on,56,0,0
2,note_on,53,58,120
2,note_on,49,58,0
2,note_on,56,58,0
2,note_on,61,69,0
2,note_on,61,0,475
2,note_on,53,0,0
2,note_on,49,0,0
2,note_on,56,0,0
2,note_on,49,52,5
2,note_on,56,52,0
2,note_on,61,63,0
2,note_on,53,52,6
2,note_on,61,0,114
2,note_on,49,0,0
2,note_on,56,0,0
2,note_on,53,0,6
2,note_on,53,52,114
2,note_on,49,52,0
2,note_on,56,52,0
2,note_on,61,63,0
2,note_on,61,0,120
2,note_on,53,0,0
2,note_on,49,0,0
2,note_on,56,0,0
2,note_on,53,58,120
2,note_on,49,58,0
2,note_on,56,58,0
2,note_on,61,69,0
2,note_on,61,0,134
2,note_on,53,0,0
2,note_on,49,0,0
2,note_on,56,0,0
2,note_on,61,52,60
2,note_on,61,0,120
2,note_on,56,54,0
2,note_on,56,0,120
2,note_on,53,56,0
2,note_on,53,0,120
2,note_on,49,58,0
2,note_on,49,0,120
2,note_on,44,59,0
2,note_on,44,0,120
2,note_on,41,61,0
2,note_on,41,0,120
2,note_on,37,62,0
2,note_on,37,0,120
2,note_on,32,61,0
2,note_on,32,0,120
2,note_on,37,60,0
2,note_on,37,0,120
2,note_on,41,59,0
2,note_on,41,0,120
2,note_on,44,58,0
2,note_on,44,0,120
2,note_on,49,57,0
2,note_on,49,0,120
2,note_on,53,57,0
2,note_on,53,0,120
2,note_on,56,56,0
2,note_on,56,0,120
2,note_on,53,57,0
2,note_on,49,57,0
2,note_on,46,57,0
2,note_on,58,67,0
2,note_on,58,0,475
2,note_on,53,0,0
2,note_on,49,0,0
2,note_on,46,0,0
2,note_on,53,51,5
2,note_on,49,51,0
2,note_on,46,51,0
2,note_on,58,61,0
2,note_on,58,0,120
2,note_on,53,0,0
2,note_on,49,0,0
2,note_on,46,0,0
2,note_on,53,51,120
2,note_on,49,51,0
2,note_on,46,51,0
2,note_on,58,61,0
2,note_on,58,0,120
2,note_on,53,0,0
2,note_on,49,0,0
2,note_on,46,0,0
2,note_on,53,58,120
2,note_on,49,58,0
2,note_on,46,58,0
2,note_on,58,69,0
2,note_on,58,0,475
2,note_on,53,0,0
2,note_on,49,0,0
2,note_on,46,0,0
2,note_on,49,52,5
2,note_on,46,52,0
2,note_on,58,63,0
2,note_on,53,52,6
2,note_on,58,0,114
2,note_on,49,0,0
2,note_on,46,0,0
2,note_on,53,0,6
2,note_on,53,52,114
2,note_on,49,52,0
2,note_on,46,52,0
2,note_on,58,63,0
2,note_on,58,0,120
2,note_on,53,0,0
2,note_on,49,0,0
2,note_on,46,0,0
2,note_on,53,58,120
2,note_on,49,58,0
2,note_on,46,58,0
2,note_on,58,69,0
2,note_on,58,0,134
2,note_on,53,0,0
2,note_on,49,0,0
2,note_on,46,0,0
2,note_on,61,53,60
2,note_on,61,0,120
2,note_on,58,55,0
2,note_on,58,0,120
2,note_on,53,57,0
2,note_on,53,0,120
2,note_on,49,58,0
2,note_on,49,0,120
2,note_on,46,60,0
2,note_on,46,0,120
2,note_on,41,62,0
2,note_on,41,0,120
2,note_on,37,64,0
2,note_on,37,0,120
2,note_on,34,64,0
2,note_on,34,0,120
2,note_on,37,63,0
2,note_on,37,0,120
2,note_on,41,62,0
2,note_on,41,0,120
2,note_on,46,61,0
2,note_on,46,0,120
2,note_on,49,60,0
2,note_on,49,0,120
2,note_on,53,59,0
2,note_on,53,0,120
2,note_on,58,60,0
2,note_on,58,0,120
2,note_on,54,51,0
2,note_on,58,51,0
2,note_on,61,59,0
2,note_on,61,0,475
2,note_on,58,0,0
2,note_on,54,0,0
2,note_on,54,46,5
2,note_on,58,46,0
2,note_on,61,55,0
2,note_on,61,0,120
2,note_on,58,0,0
2,note_on,54,0,0
2,note_on,54,46,120
2,note_on,58,46,0
2,note_on,61,55,0
2,note_on,61,0,120
2,note_on,58,0,0
2,note_on,54,0,0
2,note_on,50,57,120
2,note_on,54,57,0
2,note_on,57,57,0
2,note_on,62,67,0
2,note_on,62,0,475
2,note_on,50,0,0
2,note_on,54,0,0
2,note_on,57,0,0
2,note_on,50,51,5
2,note_on,57,51,0
2,note_on,62,61,0
2,note_on,54,51,6
2,note_on,62,0,114
2,note_on,50,0,0
2,note_on,57,0,0
2,note_on,54,0,6
2,note_on,50,51,114
2,note_on,54,51,0
2,note_on,57,51,0
2,note_on,62,61,0
2,note_on,62,0,120
2,note_on,50,0,0
2,note_on,54,0,0
2,note_on,57,0,0
2,note_on,48,57,120
2,note_on,51,57,0
2,note_on,56,57,0
2,note_on,60,67,0
2,note_on,60,0,134
2,note_on,48,0,0
2,note_on,51,0,0
2,note_on,56,0,0
2,note_on,63,47,60
2,note_on,63,0,120
2,note_on,61,48,0
2,note_on,61,0,120
2,note_on,60,50,0
2,note_on,60,0,120
2,note_on,61,51,0
2,note_on,61,0,120
2,note_on,60,52,0
2,note_on,60,0,120
2,note_on,58,54,0
2,note_on,58,0,120
2,note_on,56,55,0
2,note_on,56,0,120
2,note_on,58,53,0
2,note_on,58,0,120
2,note_on,56,52,0
2,note_on,56,0,120
2,note_on,58,52,0
2,note_on,58,0,120
2,note_on,60,51,0
2,note_on,60,0,120
2,note_on,61,51,0
2,note_on,61,0,120
2,note_on,63,50,0
2,note_on,63,0,120
2,note_on,65,50,0
2,note_on,65,0,120
2,note_on,54,51,0
2,note_on,58,51,0
2,note_on,61,59,0
2,note_on,61,0,475
2,note_on,58,0,0
2,note_on,54,0,0
2,note_on,54,46,5
2,note_on,58,46,0
2,note_on,61,55,0
2,note_on,61,0,120
2,note_on,58,0,0
2,note_on,54,0,0
2,note_on,54,46,120
2,note_on,58,46,0
2,note_on,61,55,0
2,note_on,61,0,120
2,note_on,58,0,0
2,note_on,54,0,0
2,note_on,50,57,120
2,note_on,54,57,0
2,note_on,57,57,0
2,note_on,62,67,0
2,note_on,62,0,475
2,note_on,50,0,0
2,note_on,54,0,0
2,note_on,57,0,0
2,note_on,50,51,5
2,note_on,57,51,0
2,note_on,62,61,0
2,note_on,54,51,6
2,note_on,62,0,114
2,note_on,50,0,0
2,note_on,57,0,0
2,note_on,54,0,6
2,note_on,50,51,114
2,note_on,54,51,0
2,note_on,57,51,0
2,note_on,62,61,0
2,note_on,62,0,120
2,note_on,50,0,0
2,note_on,54,0,0
2,note_on,57,0,0
2,note_on,48,57,120
2,note_on,51,57,0
2,note_on,56,57,0
2,note_on,60,67,0
2,note_on,60,0,134
2,note_on,48,0,0
2,note_on,51,0,0
2,note_on,56,0,0
2,note_on,63,47,60
2,note_on,63,0,120
2,note_on,61,48,0
2,note_on,61,0,120
2,note_on,60,50,0
2,note_on,60,0,120
2,note_on,61,51,0
2,note_on,61,0,120
2,note_on,60,51,0
2,note_on,60,0,120
2,note_on,58,53,0
2,note_on,58,0,120
2,note_on,56,55,0
2,note_on,56,0,118
2,note_on,58,55,0
2,note_on,58,0,120
2,note_on,56,53,0
2,note_on,56,0,120
2,note_on,58,52,0
2,note_on,58,0,120
2,note_on,60,50,0
2,note_on,60,0,120
2,note_on,61,49,0
2,note_on,61,0,120
2,note_on,63,48,0
2,note_on,63,0,120
2,note_on,65,47,0
2,note_on,65,0,120
2,note_on,54,55,0
2,note_on,57,55,0
2,note_on,61,55,0
2,note_on,66,66,0
2,note_on,66,0,475
2,note_on,54,0,0
2,note_on,57,0,0
2,note_on,61,0,0
2,note_on,54,38,5
2,note_on,57,38,0
2,note_on,61,38,0
2,note_on,66,55,0
2,note_on,66,0,120
2,note_on,54,0,0
2,note_on,57,0,0
2,note_on,61,0,0
2,note_on,54,46,120
2,note_on,57,46,0
2,note_on,61,46,0
2,note_on,66,54,0
2,note_on,66,0,120
2,note_on,54,0,0
2,note_on,57,0,0
2,note_on,61,0,0
2,note_on,50,51,120
2,note_on,54,51,0
2,note_on,57,51,0
2,note_on,62,60,0
2,note_on,62,0,475
2,note_on,50,0,0
2,note_on,54,0,0
2,note_on,57,0,0
2,note_on,54,47,5
2,note_on,50,47,0
2,note_on,57,47,0
2,note_on,62,56,0
2,note_on,62,0,120
2,note_on,54,0,0
2,note_on,50,0,0
2,note_on,57,0,0
2,note_on,50,48,120
2,note_on,54,48,0
2,note_on,57,48,0
2,note_on,62,57,0
2,note_on,62,0,120
2,note_on,50,0,0
2,note_on,54,0,0
2,note_on,57,0,0
2,note_on,52,54,120
2,note_on,55,54,0
2,note_on,59,54,0
2,note_on,64,65,0
2,note_on,64,0,480
2,note_on,52,0,0
2,note_on,55,0,0
2,note_on,59,0,0
2,note_on,48,47,0
2,note_on,52,47,0
2,note_on,57,47,0
2,note_on,60,56,0
2,note_on,60,0,480
2,note_on,48,0,0
2,note_on,52,0,0
2,note_on,57,0,0
2,note_on,50,53,0
2,note_on,57,53,0
2,note_on,62,63,0
2,note_on,62,0,480
2,note_on,57,0,0
2,note_on,50,0,0
2,note_on,38,51,0
2,note_on,50,61,0
2,note_on,50,0,480
2,note_on,38,0,0
2,note_on,40,52,0
2,note_on,52,61,0
2,note_on,52,0,480
2,note_on,40,0,0
2,note_on,48,47,0
2,note_on,52,47,0
2,note_on,57,47,0
2,note_on,60,55,0
2,note_on,60,0,480
2,note_on,48,0,0
2,note_on,52,0,0
2,note_on,57,0,0
2,note_on,50,54,0
2,note_on,57,54,0
2,note_on,62,65,0
2,note_on,62,0,480
2,note_on,57,0,0
2,note_on,50,0,0
2,note_on,38,57,0
2,note_on,50,68,0
2,note_on,50,0,480
2,note_on,38,0,0
2,note_on,43,61,0
2,note_on,43,0,86
2,note_on,45,57,0
2,note_on,45,0,120
2,note_on,43,57,0
2,note_on,43,0,120
2,note_on,45,57,0
2,note_on,45,0,120
2,note_on,47,61,0
2,note_on,47,0,97
2,note_on,48,57,0
2,note_on,48,0,120
2,note_on,47,57,0
2,note_on,47,0,120
2,note_on,48,57,0
2,note_on,48,0,120
2,note_on,50,63,0
2,note_on,50,0,29
2,note_on,51,57,0
2,note_on,51,0,120
2,note_on,50,57,0
2,note_on,50,0,120
2,note_on,51,57,0
2,note_on,51,0,120
2,note_on,53,61,0
2,note_on,53,0,101
2,note_on,55,57,0
2,note_on,55,0,120
2,note_on,53,57,0
2,note_on,53,0,120
2,note_on,55,57,0
2,note_on,55,0,120
2,note_on,44,67,0
2,note_on,56,67,0
2,note_on,56,0,854
2,note_on,44,0,0
2,note_on,32,66,0
2,note_on,44,66,0
2,note_on,44,0,868
2,note_on,32,0,0
2,note_on,41,61,0
2,note_on,41,0,40
2,note_on,43,57,0
2,note_on,43,0,120
2,note_on,41,57,0
2,note_on,41,0,120
2,note_on,43,57,0
2,note_on,43,0,120
2,note_on,44,61,0
2,note_on,44,0,97
2,note_on,46,57,0
2,note_on,46,0,120
2,note_on,44,57,0
2,note_on,44,0,120
2,note_on,46,57,0
2,note_on,46,0,120
2,note_on,48,63,0
2,note_on,48,0,29
2,note_on,50,57,0
2,note_on,50,0,120
2,note_on,48,57,0
2,note_on,48,0,120
2,note_on,50,57,0
2,note_on,50,0,120
2,note_on,51,61,0
2,note_on,51,0,106
2,note_on,53,57,0
2,note_on,53,0,120
2,note_on,51,57,0
2,note_on,51,0,120
2,note_on,53,57,0
2,note_on,53,0,120
2,note_on,43,67,0
2,note_on,55,67,0
2,note_on,55,0,854
2,note_on,43,0,0
2,note_on,31,66,0
2,note_on,43,66,0
2,note_on,43,0,868
2,note_on,31,0,0
2,note_on,39,61,0
2,note_on,39,0,40
2,note_on,41,57,0
2,note_on,41,0,120
2,note_on,39,57,0
2,note_on,39,0,120
2,note_on,41,57,0
2,note_on,41,0,120
2,note_on,43,61,0
2,note_on,43,0,97
2,note_on,44,57,0
2,note_on,44,0,120
2,note_on,43,57,0
2,note_on,43,0,120
2,note_on,44,57,0
2,note_on,44,0,120
2,note_on,46,63,0
2,note_on,46,0,29
2,note_on,48,57,0
2,note_on,48,0,120
2,note_on,46,57,0
2,note_on,46,0,120
2,note_on,48,57,0
2,note_on,48,0,120
2,note_on,50,61,0
2,note_on,50,0,86
2,note_on,51,57,0
2,note_on,51,0,120
2,note_on,50,57,0
2,note_on,50,0,120
2,note_on,51,57,0
2,note_on,51,0,120
2,note_on,41,67,0
2,note_on,53,67,0
2,note_on,53,0,854
2,note_on,41,0,0
2,note_on,29,66,0
2,note_on,41,66,0
2,note_on,41,0,868
2,note_on,29,0,0
2,note_on,39,67,0
2,note_on,51,67,0
2,note_on,51,0,854
2,note_on,39,0,0
2,note_on,27,66,0
2,note_on,39,66,0
2,note_on,39,0,868
2,note_on,27,0,0
2,note_on,49,67,0
2,note_on,61,67,0
2,note_on,61,0,360
2,note_on,49,0,0
2,note_on,37,60,0
2,note_on,49,60,0
2,note_on,49,0,114
2,note_on,37,0,0
2,note_on,37,67,6
2,note_on,49,67,0
2,note_on,49,0,480
2,note_on,37,0,0
2,note_on,48,70,0
2,note_on,60,70,0
2,note_on,60,0,360
2,note_on,48,0,0
2,note_on,36,63,0
2,note_on,48,63,0
2,note_on,48,0,114
2,note_on,36,0,0
2,note_on,36,70,6
2,note_on,48,70,0
2,note_on,48,0,480
2,note_on,36,0,0
2,note_on,46,70,0
2,note_on,58,70,0
2,note_on,58,0,360
2,note_on,46,0,0
2,note_on,34,63,0
2,note_on,46,63,0
2,note_on,46,0,114
2,note_on,34,0,0
2,note_on,34,70,6
2,note_on,46,70,0
2,note_on,46,0,480
2,note_on,34,0,0
2,note_on,44,73,0
2,note_on,56,73,0
2,note_on,56,0,360
2,note_on,44,0,0
2,note_on,32,65,0
2,note_on,44,65,0
2,note_on,44,0,114
2,note_on,32,0,0
2,note_on,32,73,6
2,note_on,44,73,0
2,note_on,44,0,480
2,note_on,32,0,0
2,note_on,31,75,0
2,note_on,43,75,0
2,note_on,43,0,480
2,note_on,31,0,0
2,note_on,67,70,0
2,note_on,55,70,0
2,note_on,55,0,120
2,note_on,67,0,0
2,note_on,55,70,120
2,note_on,67,70,0
2,note_on,67,0,120
2,note_on,55,0,0
2,note_on,67,73,120
2,note_on,55,73,0
2,note_on,55,0,475
2,note_on,67,0,0
2,note_on,67,70,5
2,note_on,55,70,0
2,note_on,55,0,120
2,note_on,67,0,0
2,note_on,67,70,120
2,note_on,55,70,0
2,note_on,55,0,480
2,note_on,67,0,0
2,note_on,53,70,0
2,note_on,65,70,0
2,note_on,65,0,90
2,note_on,53,0,0
2,note_on,52,70,30
2,note_on,64,70,0
2,note_on,64,0,90
2,note_on,52,0,0
2,note_on,53,73,30
2,note_on,65,73,0
2,note_on,65,0,120
2,note_on,53,0,0
2,note_on,41,67,120
2,note_on,53,67,0
2,note_on,53,0,180
2,note_on,41,0,0
2,note_on,44,68,60
2,note_on,56,68,0
2,note_on,56,0,180
2,note_on,44,0,0
2,note_on,48,68,60
2,note_on,60,68,0
2,note_on,60,0,180
2,note_on,48,0,0
2,note_on,50,68,60
2,note_on,62,68,0
2,note_on,62,0,180
2,note_on,50,0,0
2,note_on,52,68,60
2,note_on,64,68,0
2,note_on,64,0,180
2,note_on,52,0,0
2,note_on,53,75,60
2,note_on,65,75,0
2,note_on,65,0,475
2,note_on,53,0,0
2,note_on,65,70,5
2,note_on,53,70,0
2,note_on,53,0,120
2,note_on,65,0,0
2,note_on,53,70,120
2,note_on,65,70,0
2,note_on,65,0,120
2,note_on,53,0,0
2,note_on,65,73,120
2,note_on,53,73,0
2,note_on,53,0,475
2,note_on,65,0,0
2,note_on,65,70,5
2,note_on,53,70,0
2,note_on,53,0,120
2,note_on,65,0,0
2,note_on,65,70,120
2,note_on,53,70,0
2,note_on,53,0,480
2,note_on,65,0,0
2,note_on,51,70,0
2,note_on,63,70,0
2,note_on,63,0,90
2,note_on,51,0,0
2,note_on,50,70,30
2,note_on,62,70,0
2,note_on,62,0,90
2,note_on,50,0,0
2,note_on,51,73,30
2,note_on,63,73,0
2,note_on,63,0,120
2,note_on,51,0,0
2,note_on,39,67,120
2,note_on,51,67,0
2,note_on,51,0,180
2,note_on,39,0,0
2,note_on,43,68,60
2,note_on,55,68,0
2,note_on,55,0,180
2,note_on,43,0,0
2,note_on,46,68,60
2,note_on,58,68,0
2,note_on,58,0,180
2,note_on,46,0,0
2,note_on,48,68,60
2,note_on,60,68,0
2,note_on,60,0,180
2,note_on,48,0,0
2,note_on,50,68,60
2,note_on,62,68,0
2,note_on,62,0,180
2,note_on,50,0,0
2,note_on,51,75,60
2,note_on,63,75,0
2,note_on,63,0,475
2,note_on,51,0,0
2,note_on,63,70,5
2,note_on,51,70,0
2,note_on,51,0,120
2,note_on,63,0,0
2,note_on,51,70,120
2,note_on,63,70,0
2,note_on,63,0,120
2,note_on,51,0,0
2,note_on,63,73,120
2,note_on,51,73,0
2,note_on,51,0,475
2,note_on,63,0,0
2,note_on,63,70,5
2,note_on,51,70,0
2,note_on,51,0,120
2,note_on,63,0,0
2,note_on,63,70,120
2,note_on,51,70,0
2,note_on,51,0,480
2,note_on,63,0,0
2,note_on,49,70,0
2,note_on,61,70,0
2,note_on,61,0,90
2,note_on,49,0,0
2,note_on,48,70,30
2,note_on,60,70,0
2,note_on,60,0,90
2,note_on,48,0,0
2,note_on,49,73,30
2,note_on,61,73,0
2,note_on,61,0,120
2,note_on,49,0,0
2,note_on,49,67,120
2,note_on,61,67,0
2,note_on,61,0,180
2,note_on,49,0,0
2,note_on,44,68,60
2,note_on,56,68,0
2,note_on,56,0,180
2,note_on,44,0,0
2,note_on,41,68,60
2,note_on,53,68,0
2,note_on,53,0,180
2,note_on,41,0,0
2,note_on,44,68,60
2,note_on,56,68,0
2,note_on,56,0,180
2,note_on,44,0,0
2,note_on,49,68,60
2,note_on,61,68,0
2,note_on,61,0,480
2,note_on,49,0,0
2,note_on,48,70,0
2,note_on,60,70,0
2,note_on,60,0,90
2,note_on,48,0,0
2,note_on,47,70,30
2,note_on,59,70,0
2,note_on,59,0,90
2,note_on,47,0,0
2,note_on,48,73,30
2,note_on,60,73,0
2,note_on,60,0,120
2,note_on,48,0,0
2,note_on,48,67,120
2,note_on,60,67,0
2,note_on,60,0,180
2,note_on,48,0,0
2,note_on,43,68,60
2,note_on,55,68,0
2,note_on,55,0,180
2,note_on,43,0,0
2,note_on,39,68,60
2,note_on,51,68,0
2,note_on,51,0,180
2,note_on,39,0,0
2,note_on,43,68,60
2,note_on,55,68,0
2,note_on,55,0,180
2,note_on,43,0,0
2,note_on,48,68,60
2,note_on,60,68,0
2,note_on,60,0,480
2,note_on,48,0,0
2,note_on,46,52,0
2,note_on,58,61,0
2,note_on,58,0,90
2,note_on,46,0,0
2,note_on,45,53,30
2,note_on,57,63,0
2,note_on,57,0,90
2,note_on,45,0,0
2,note_on,46,58,30
2,note_on,58,69,0
2,note_on,58,0,120
2,note_on,46,0,0
2,note_on,34,51,120
2,note_on,46,60,0
2,note_on,46,0,180
2,note_on,34,0,0
2,note_on,46,68,60
2,note_on,58,68,0
2,note_on,58,0,120
2,note_on,46,0,0
2,note_on,44,52,120
2,note_on,56,61,0
2,note_on,56,0,90
2,note_on,44,0,0
2,note_on,43,53,30
2,note_on,55,63,0
2,note_on,55,0,90
2,note_on,43,0,0
2,note_on,44,58,30
2,note_on,56,69,0
2,note_on,56,0,120
2,note_on,44,0,0
2,note_on,32,51,120
2,note_on,44,60,0
2,note_on,44,0,180
2,note_on,32,0,0
2,note_on,44,68,60
2,note_on,56,68,0
2,note_on,56,0,120
2,note_on,44,0,0
2,note_on,43,52,120
2,note_on,55,61,0
2,note_on,55,0,90
2,note_on,43,0,0
2,note_on,42,53,30
2,note_on,54,63,0
2,note_on,54,0,90
2,note_on,42,0,0
2,note_on,43,58,30
2,note_on,55,69,0
2,note_on,55,0,120
2,note_on,43,0,0
2,note_on,31,51,120
2,note_on,43,60,0
2,note_on,43,0,180
2,note_on,31,0,0
2,note_on,43,68,60
2,note_on,55,68,0
2,note_on,55,0,120
2,note_on,43,0,0
2,note_on,41,52,120
2,note_on,53,61,0
2,note_on,53,0,90
2,note_on,41,0,0
2,note_on,40,53,30
2,note_on,52,63,0
2,note_on,52,0,90
2,note_on,40,0,0
2,note_on,41,58,30
2,note_on,53,69,0
2,note_on,53,0,120
2,note_on,41,0,0
2,note_on,42,64,120
2,note_on,54,68,0
2,note_on,54,0,120
2,note_on,42,0,0
2,note_on,43,58,120
2,note_on,47,58,0
2,note_on,50,58,0
2,note_on,55,69,0
2,note_on,55,0,475
2,note_on,43,0,0
2,note_on,47,0,0
2,note_on,50,0,0
2,note_on,43,55,5
2,note_on,47,55,0
2,note_on,50,55,0
2,note_on,55,66,0
2,note_on,55,0,194
2,note_on,43,0,0
2,note_on,47,0,0
2,note_on,50,0,0
2,note_on,43,55,12
2,note_on,47,55,0
2,note_on,50,55,0
2,note_on,55,66,0
2,note_on,55,0,177
2,note_on,43,0,0
2,note_on,47,0,0
2,note_on,50,0,0
2,note_on,36,58,12
2,note_on,39,58,0
2,note_on,44,58,0
2,note_on,48,69,0
2,note_on,48,0,466
2,note_on,36,0,0
2,note_on,39,0,0
2,note_on,44,0,0
2,note_on,36,57,5
2,note_on,48,68,0
2,note_on,48,0,90
2,note_on,36,0,0
2,note_on,38,60,30
2,note_on,50,72,0
2,note_on,50,0,90
2,note_on,38,0,0
2,note_on,39,63,30
2,note_on,51,75,0
2,note_on,51,0,90
2,note_on,39,0,0
2,note_on,41,67,30
2,note_on,53,78,0
2,note_on,53,0,90
2,note_on,41,0,0
2,note_on,43,58,30
2,note_on,55,69,0
2,note_on,55,0,475
2,note_on,43,0,0
2,note_on,55,55,5
2,note_on,59,55,0
2,note_on,62,55,0
2,note_on,67,66,0
2,note_on,67,0,199
2,note_on,55,0,0
2,note_on,59,0,0
2,note_on,62,0,0
2,note_on,55,55,12
2,note_on,59,55,0
2,note_on,62,55,0
2,note_on,67,66,0
2,note_on,67,0,165
2,note_on,55,0,0
2,note_on,59,0,0
2,note_on,62,0,0
2,note_on,48,58,12
2,note_on,51,58,0
2,note_on,56,58,0
2,note_on,60,69,0
2,note_on,60,0,470
2,note_on,48,0,0
2,note_on,51,0,0
2,note_on,56,0,0
2,note_on,48,57,0
2,note_on,60,68,0
2,note_on,60,0,90
2,note_on,48,0,0
2,note_on,50,60,30
2,note_on,62,72,0
2,note_on,62,0,90
2,note_on,50,0,0
2,note_on,51,63,30
2,note_on,63,75,0
2,note_on,63,0,90
2,note_on,51,0,0
2,note_on,53,67,30
2,note_on,65,78,0
2,note_on,65,0,90
2,note_on,53,0,0
2,note_on,55,55,30
2,note_on,59,55,0
2,note_on,62,55,0
2,note_on,67,66,0
2,note_on,67,0,451
2,note_on,55,0,0
2,note_on,59,0,0
2,note_on,62,0,0
2,note_on,48,57,0
2,note_on,60,68,0
2,note_on,60,0,70
2,note_on,48,0,0
2,note_on,50,60,30
2,note_on,62,72,0
2,note_on,62,0,90
2,note_on,50,0,0
2,note_on,51,63,30
2,note_on,63,75,0
2,note_on,63,0,90
2,note_on,51,0,0
2,note_on,53,67,30
2,note_on,65,78,0
2,note_on,65,0,90
2,note_on,53,0,0
2,note_on,55,55,30
2,note_on,59,55,0
2,note_on,62,55,0
2,note_on,67,66,0
2,note_on,67,0,460
2,note_on,55,0,0
2,note_on,59,0,0
2,note_on,62,0,0
2,note_on,48,57,0
2,note_on,60,68,0
2,note_on,60,0,80
2,note_on,48,0,0
2,note_on,50,60,30
2,note_on,62,72,0
2,note_on,62,0,90
2,note_on,50,0,0
2,note_on,51,63,30
2,note_on,63,75,0
2,note_on,63,0,90
2,note_on,51,0,0
2,note_on,53,67,30
2,note_on,65,78,0
2,note_on,65,0,90
2,note_on,53,0,0
2,note_on,55,55,30
2,note_on,59,55,0
2,note_on,62,55,0
2,note_on,67,66,0
2,note_on,67,0,446
2,note_on,55,0,0
2,note_on,59,0,0
2,note_on,62,0,0
2,note_on,36,58,0
2,note_on,48,69,0
2,note_on,48,0,81
2,note_on,36,0,0
2,note_on,38,63,30
2,note_on,50,74,0
2,note_on,50,0,90
2,note_on,38,0,0
2,note_on,39,66,30
2,note_on,51,78,0
2,note_on,51,0,90
2,note_on,39,0,0
2,note_on,41,70,30
2,note_on,53,82,0
2,note_on,53,0,90
2,note_on,41,0,0
2,note_on,43,58,30
2,note_on,47,58,0
2,note_on,50,58,0
2,note_on,55,70,0
2,note_on,55,0,383
2,note_on,43,0,0
2,note_on,47,0,0
2,note_on,50,0,0
2,note_on,36,64,0
2,note_on,48,75,0
2,note_on,48,0,21
2,note_on,36,0,0
2,note_on,38,67,30
2,note_on,50,80,0
2,note_on,50,0,90
2,note_on,38,0,0
2,note_on,39,70,30
2,note_on,51,85,0
2,note_on,51,0,90
2,note_on,39,0,0
2,note_on,41,75,30
2,note_on,53,89,0
2,note_on,53,0,90
2,note_on,41,0,0
2,note_on,43,56,0
2,note_on,47,56,0
2,note_on,50,63,0
2,note_on,55,75,0
2,note_on,55,0,475
2,note_on,43,0,0
2,note_on,47,0,0
2,note_on,50,0,0
2,note_on,41,56,3365
2,note_on,47,56,0
2,note_on,50,63,0
2,note_on,53,75,0
2,note_on,53,0,475
2,note_on,41,0,0
2,note_on,47,0,0
2,note_on,50,0,0
2,note_on,41,56,3365
2,note_on,47,56,0
2,note_on,49,63,0
2,note_on,53,75,0
2,note_on,53,0,475
2,note_on,41,0,0
2,note_on,47,0,0
2,note_on,49,0,0
2,note_on,42,56,1445
2,note_on,47,56,0
2,note_on,50,63,0
2,note_on,54,75,0
2,note_on,54,0,475
2,note_on,42,0,0
2,note_on,47,0,0
2,note_on,50,0,0
2,note_on,41,56,1445
2,note_on,44,56,0
2,note_on,49,63,0
2,note_on,53,75,0
2,note_on,53,0,475
2,note_on,41,0,0
2,note_on,44,0,0
2,note_on,49,0,0
2,note_on,42,56,1445
2,note_on,47,56,0
2,note_on,50,63,0
2,note_on,54,75,0
2,note_on,54,0,475
2,note_on,42,0,0
2,note_on,47,0,0
2,note_on,50,0,0
2,note_on,41,56,1445
2,note_on,47,56,0
2,note_on,50,63,0
2,note_on,53,75,0
2,note_on,53,0,475
2,note_on,41,0,0
2,note_on,47,0,0
2,note_on,50,0,0
2,note_on,29,56,485
2,note_on,41,75,0
2,note_on,41,0,475
2,note_on,29,0,0
2,note_on,30,53,485
2,note_on,42,64,0
2,note_on,42,0,475
2,note_on,30,0,0
2,note_on,33,49,485
2,note_on,45,59,0
2,note_on,45,0,475
2,note_on,33,0,0
2,note_on,37,47,485
2,note_on,49,57,0
2,note_on,49,0,475
2,note_on,37,0,0
2,note_on,40,46,485
2,note_on,52,55,0
2,note_on,52,0,475
2,note_on,40,0,0
2,note_on,44,44,485
2,note_on,56,53,0
2,note_on,56,0,475
2,note_on,44,0,0
2,note_on,45,47,485
2,note_on,57,56,0
2,note_on,57,0,475
2,note_on,45,0,0
2,note_on,44,44,485
2,note_on,56,53,0
2,note_on,56,0,475
2,note_on,44,0,0
2,note_on,32,32,965
2,note_on,32,0,120
2,note_on,36,35,0
2,note_on,36,0,120
2,note_on,39,38,0
2,note_on,39,0,120
2,note_on,44,41,0
2,note_on,44,0,120
2,note_on,45,44,0
2,note_on,45,0,240
2,note_on,31,27,1200
2,note_on,31,0,120
2,note_on,34,29,0
2,note_on,34,0,120
2,note_on,39,31,0
2,note_on,39,0,120
2,note_on,43,34,0
2,note_on,43,0,120
2,note_on,44,33,0
2,note_on,44,0,240
2,note_on,32,24,1200
2,note_on,32,0,120
2,note_on,36,26,0
2,note_on,36,0,120
2,note_on,39,28,0
2,note_on,39,0,120
2,note_on,44,30,0
2,note_on,44,0,120
2,note_on,45,33,0
2,note_on,45,0,238
2,note_on,31,24,1202
2,note_on,31,0,120
2,note_on,34,26,0
2,note_on,34,0,120
2,note_on,39,27,0
2,note_on,39,0,120
2,note_on,43,30,0
2,note_on,43,0,120
2,note_on,44,33,0
2,note_on,44,0,238
2,note_on,44,23,977
2,note_on,48,28,0
2,note_on,48,0,120
2,note_on,44,0,0
2,note_on,44,23,120
2,note_on,48,28,0
2,note_on,48,0,120
2,note_on,44,0,0
2,note_on,44,28,120
2,note_on,48,33,0
2,note_on,48,0,480
2,note_on,44,0,0
2,note_on,44,23,960
2,note_on,48,28,0
2,note_on,48,0,120
2,note_on,44,0,0
2,note_on,44,23,120
2,note_on,48,28,0
2,note_on,48,0,120
2,note_on,44,0,0
2,note_on,44,28,120
2,note_on,48,33,0
2,note_on,48,0,480
2,note_on,44,0,0
2,note_on,45,23,960
2,note_on,49,28,0
2,note_on,49,0,51
2,note_on,45,0,0
2,note_on,45,23,120
2,note_on,49,28,0
2,note_on,49,0,120
2,note_on,45,0,0
2,note_on,45,28,120
2,note_on,49,33,0
2,note_on,49,0,480
2,note_on,45,0,0
2,note_on,45,23,897
2,note_on,49,28,0
2,note_on,49,0,120
2,note_on,45,0,0
2,note_on,45,23,120
2,note_on,49,28,0
2,note_on,49,0,120
2,note_on,45,0,0
2,note_on,48,28,120
2,note_on,51,33,0
2,note_on,51,0,399
2,note_on,48,0,0
2,note_on,48,23,960
2,note_on,51,28,0
2,note_on,51,0,120
2,note_on,48,0,0
2,note_on,48,23,120
2,note_on,51,28,0
2,note_on,51,0,120
2,note_on,48,0,0
2,note_on,48,28,120
2,note_on,51,33,0
2,note_on,51,0,480
2,note_on,48,0,0
2,note_on,48,28,480
2,note_on,51,33,0
2,note_on,51,0,480
2,note_on,48,0,0
2,note_on,48,28,0
2,note_on,51,33,0
2,note_on,51,0,300
2,note_on,48,0,0
2,note_on,48,27,480
2,note_on,51,32,0
2,note_on,51,0,480
2,note_on,48,0,0
2,note_on,48,26,480
2,note_on,51,30,0
2,note_on,51,0,281
2,note_on,48,0,0
2,note_on,48,25,480
2,note_on,51,29,0
2,note_on,51,0,265
2,note_on,48,0,0
