Track,Message Type,Note,Velocity,Time
1,note_on,86,92,0
1,note_on,81,78,0
1,note_on,78,78,0
1,note_on,74,78,0
1,note_on,74,0,960
1,note_on,86,0,0
1,note_on,81,0,0
1,note_on,78,0,0
1,note_on,57,56,0
1,note_on,62,66,0
1,note_on,62,0,120
1,note_on,57,0,0
1,note_on,57,51,120
1,note_on,62,61,0
1,note_on,62,0,120
1,note_on,57,0,0
1,note_on,57,56,120
1,note_on,62,66,0
1,note_on,62,0,120
1,note_on,57,0,0
1,note_on,57,51,120
1,note_on,62,60,0
1,note_on,62,0,120
1,note_on,57,0,0
1,note_on,57,62,120
1,note_on,62,73,0
1,note_on,57,0,480
1,note_on,59,53,0
1,note_on,64,63,0
1,note_on,64,0,240
1,note_on,59,0,0
1,note_on,62,0,0
1,note_on,60,56,240
1,note_on,62,56,0
1,note_on,66,66,0
1,note_on,66,0,120
1,note_on,62,0,0
1,note_on,60,0,0
1,note_on,60,51,120
1,note_on,62,51,0
1,note_on,66,61,0
1,note_on,66,0,120
1,note_on,62,0,0
1,note_on,60,0,0
1,note_on,60,56,120
1,note_on,62,56,0
1,note_on,66,66,0
1,note_on,66,0,120
1,note_on,62,0,0
1,note_on,60,0,0
1,note_on,60,51,120
1,note_on,62,51,0
1,note_on,66,60,0
1,note_on,66,0,120
1,note_on,62,0,0
1,note_on,60,0,0
1,note_on,60,62,120
1,note_on,62,62,0
1,note_on,66,73,0
1,note_on,66,0,480
1,note_on,60,0,0
1,note_on,59,53,0
1,note_on,67,63,0
1,note_on,67,0,240
1,note_on,59,0,0
1,note_on,62,0,0
1,note_on,64,57,0
1,note_on,64,0,240
1,note_on,67,63,0
1,note_on,67,0,160
1,note_on,66,57,0
1,note_on,66,0,160
1,note_on,64,57,0
1,note_on,64,0,160
1,note_on,70,63,0
1,note_on,70,0,160
1,note_on,69,58,0
1,note_on,69,0,160
1,note_on,67,58,0
1,note_on,67,0,160
1,note_on,69,63,0
1,note_on,69,0,240
1,note_on,78,56,240
1,note_on,78,0,160
1,note_on,76,46,0
1,note_on,76,0,160
1,note_on,74,46,0
1,note_on,74,0,160
1,note_on,81,57,0
1,note_on,81,0,160
1,note_on,79,47,0
1,note_on,79,0,160
1,note_on,78,47,0
1,note_on,78,0,160
1,note_on,76,58,0
1,note_on,76,0,160
1,note_on,74,50,0
1,note_on,74,0,160
1,note_on,73,50,0
1,note_on,73,0,160
1,note_on,86,92,0
1,note_on,81,78,0
1,note_on,77,78,0
1,note_on,74,78,0
1,note_on,74,0,960
1,note_on,86,0,0
1,note_on,81,0,0
1,note_on,77,0,0
1,note_on,57,56,0
1,note_on,62,66,0
1,note_on,62,0,120
1,note_on,57,0,0
1,note_on,57,51,120
1,note_on,62,61,0
1,note_on,62,0,120
1,note_on,57,0,0
1,note_on,57,56,120
1,note_on,62,66,0
1,note_on,62,0,120
1,note_on,57,0,0
1,note_on,57,51,120
1,note_on,62,60,0
1,note_on,62,0,120
1,note_on,57,0,0
1,note_on,57,62,120
1,note_on,62,73,0
1,note_on,57,0,480
1,note_on,58,53,0
1,note_on,64,63,0
1,note_on,64,0,240
1,note_on,58,0,0
1,note_on,62,0,0
1,note_on,60,56,240
1,note_on,62,56,0
1,note_on,66,66,0
1,note_on,66,0,120
1,note_on,62,0,0
1,note_on,60,0,0
1,note_on,60,51,120
1,note_on,62,51,0
1,note_on,66,61,0
1,note_on,66,0,120
1,note_on,62,0,0
1,note_on,60,0,0
1,note_on,60,56,120
1,note_on,62,56,0
1,note_on,66,66,0
1,note_on,66,0,120
1,note_on,62,0,0
1,note_on,60,0,0
1,note_on,60,51,120
1,note_on,62,51,0
1,note_on,66,60,0
1,note_on,66,0,120
1,note_on,62,0,0
1,note_on,60,0,0
1,note_on,60,62,120
1,note_on,62,62,0
1,note_on,66,73,0
1,note_on,66,0,480
1,note_on,60,0,0
1,note_on,58,53,0
1,note_on,67,63,0
1,note_on,67,0,240
1,note_on,58,0,0
1,note_on,62,0,0
1,note_on,65,56,240
1,note_on,62,56,0
1,note_on,68,66,0
1,note_on,68,0,120
1,note_on,62,0,0
1,note_on,65,0,0
1,note_on,65,51,120
1,note_on,62,51,0
1,note_on,68,61,0
1,note_on,68,0,120
1,note_on,62,0,0
1,note_on,65,0,0
1,note_on,65,56,120
1,note_on,62,56,0
1,note_on,68,66,0
1,note_on,68,0,120
1,note_on,62,0,0
1,note_on,65,0,0
1,note_on,65,51,120
1,note_on,62,51,0
1,note_on,68,60,0
1,note_on,68,0,120
1,note_on,62,0,0
1,note_on,65,0,0
1,note_on,60,62,120
1,note_on,65,62,0
1,note_on,69,73,0
1,note_on,69,0,480
1,note_on,65,0,0
1,note_on,60,0,0
1,note_on,72,56,0
1,note_on,72,0,160
1,note_on,70,46,0
1,note_on,70,0,160
1,note_on,69,46,0
1,note_on,69,0,160
1,note_on,67,57,0
1,note_on,67,0,160
1,note_on,65,47,0
1,note_on,65,0,160
1,note_on,64,47,0
1,note_on,64,0,160
1,note_on,62,55,0
1,note_on,62,0,160
1,note_on,60,47,0
1,note_on,60,0,160
1,note_on,58,47,0
1,note_on,58,0,160
1,note_on,57,53,0
1,note_on,57,0,160
1,note_on,58,46,0
1,note_on,58,0,160
1,note_on,60,46,0
1,note_on,60,0,160
1,note_on,72,56,0
1,note_on,72,0,160
1,note_on,70,46,0
1,note_on,70,0,160
1,note_on,69,46,0
1,note_on,69,0,160
1,note_on,67,57,0
1,note_on,67,0,160
1,note_on,65,47,0
1,note_on,65,0,160
1,note_on,64,47,0
1,note_on,64,0,160
1,note_on,62,55,0
1,note_on,62,0,160
1,note_on,60,47,0
1,note_on,60,0,160
1,note_on,58,47,0
1,note_on,58,0,160
1,note_on,57,53,0
1,note_on,57,0,160
1,note_on,58,46,0
1,note_on,58,0,160
1,note_on,60,40,0
1,note_on,60,0,160
1,note_on,57,45,0
1,note_on,57,0,160
1,note_on,58,39,0
1,note_on,58,0,160
1,note_on,60,36,0
1,note_on,60,0,160
1,note_on,57,47,0
1,note_on,58,42,160
1,note_on,57,0,16
1,note_on,60,43,144
1,note_on,58,0,16
1,note_on,60,0,144
1,note_on,57,50,0
1,note_on,58,45,160
1,note_on,57,0,16
1,note_on,60,41,144
1,note_on,58,0,16
1,note_on,60,0,144
1,note_on,57,54,0
1,note_on,58,47,160
1,note_on,57,0,16
1,note_on,60,43,144
1,note_on,58,0,16
1,note_on,60,0,144
1,note_on,57,56,0
1,note_on,58,50,160
1,note_on,57,0,16
1,note_on,60,46,144
1,note_on,58,0,16
1,note_on,60,0,144
1,note_on,57,59,0
1,note_on,58,52,160
1,note_on,57,0,16
1,note_on,60,46,144
1,note_on,58,0,16
1,note_on,60,0,144
1,note_on,57,63,0
1,note_on,58,55,160
1,note_on,57,0,16
1,note_on,60,47,144
1,note_on,58,0,16
1,note_on,60,0,144
1,note_on,53,54,0
1,note_on,56,54,0
1,note_on,61,70,0
1,note_on,61,0,960
1,note_on,56,0,0
1,note_on,53,0,0
1,note_on,56,37,0
1,note_on,61,37,0
1,note_on,65,44,0
1,note_on,65,0,120
1,note_on,61,0,0
1,note_on,56,0,0
1,note_on,56,33,120
1,note_on,61,33,0
1,note_on,65,39,0
1,note_on,65,0,120
1,note_on,61,0,0
1,note_on,56,0,0
1,note_on,56,33,120
1,note_on,61,33,0
1,note_on,65,39,0
1,note_on,65,0,120
1,note_on,61,0,0
1,note_on,56,0,0
1,note_on,56,33,120
1,note_on,61,33,0
1,note_on,65,39,0
1,note_on,65,0,120
1,note_on,61,0,0
1,note_on,56,0,0
1,note_on,61,38,120
1,note_on,65,38,0
1,note_on,68,45,0
1,note_on,68,0,960
1,note_on,65,0,0
1,note_on,61,0,0
1,note_on,68,46,0
1,note_on,65,44,0
1,note_on,73,52,0
1,note_on,73,0,120
1,note_on,65,0,0
1,note_on,68,0,0
1,note_on,65,39,120
1,note_on,68,39,0
1,note_on,73,46,0
1,note_on,73,0,120
1,note_on,68,0,0
1,note_on,65,0,0
1,note_on,65,39,120
1,note_on,68,39,0
1,note_on,73,46,0
1,note_on,73,0,120
1,note_on,68,0,0
1,note_on,65,0,0
1,note_on,65,39,120
1,note_on,68,39,0
1,note_on,73,46,0
1,note_on,73,0,120
1,note_on,68,0,0
1,note_on,65,0,0
1,note_on,64,52,120
1,note_on,67,52,0
1,note_on,69,52,0
1,note_on,73,62,0
1,note_on,73,0,960
1,note_on,64,0,0
1,note_on,67,0,0
1,note_on,69,0,0
1,note_on,67,55,0
1,note_on,73,58,0
1,note_on,69,55,0
1,note_on,76,66,0
1,note_on,76,0,120
1,note_on,67,0,0
1,note_on,73,0,0
1,note_on,69,0,0
1,note_on,67,49,120
1,note_on,69,49,0
1,note_on,73,49,0
1,note_on,76,58,0
1,note_on,76,0,120
1,note_on,67,0,0
1,note_on,69,0,0
1,note_on,73,0,0
1,note_on,67,50,120
1,note_on,69,50,0
1,note_on,73,50,0
1,note_on,76,58,0
1,note_on,76,0,120
1,note_on,67,0,0
1,note_on,69,0,0
1,note_on,73,0,0
1,note_on,67,50,120
1,note_on,69,50,0
1,note_on,73,50,0
1,note_on,76,59,0
1,note_on,76,0,120
1,note_on,67,0,0
1,note_on,69,0,0
1,note_on,73,0,0
1,note_on,69,67,120
1,note_on,73,67,0
1,note_on,76,67,0
1,note_on,79,67,0
1,note_on,81,79,0
1,note_on,81,0,960
1,note_on,76,0,0
1,note_on,69,0,0
1,note_on,73,0,0
1,note_on,79,0,0
1,note_on,76,75,0
1,note_on,81,79,0
1,note_on,79,75,0
1,note_on,85,90,0
1,note_on,85,0,120
1,note_on,76,0,0
1,note_on,81,0,0
1,note_on,79,0,0
1,note_on,76,69,120
1,note_on,79,69,0
1,note_on,81,69,0
1,note_on,85,81,0
1,note_on,85,0,120
1,note_on,76,0,0
1,note_on,79,0,0
1,note_on,81,0,0
1,note_on,76,72,120
1,note_on,79,72,0
1,note_on,81,72,0
1,note_on,85,84,0
1,note_on,85,0,120
1,note_on,76,0,0
1,note_on,79,0,0
1,note_on,81,0,0
1,note_on,76,75,120
1,note_on,79,75,0
1,note_on,81,75,0
1,note_on,85,87,0
1,note_on,85,0,120
1,note_on,76,0,0
1,note_on,79,0,0
1,note_on,81,0,0
1,note_on,86,105,120
1,note_on,81,89,0
1,note_on,78,89,0
1,note_on,74,89,0
1,note_on,74,0,960
1,note_on,86,0,0
1,note_on,81,0,0
1,note_on,78,0,0
1,note_on,57,54,0
1,note_on,62,63,0
1,note_on,62,0,120
1,note_on,57,0,0
1,note_on,57,49,120
1,note_on,62,59,0
1,note_on,62,0,120
1,note_on,57,0,0
1,note_on,57,54,120
1,note_on,62,63,0
1,note_on,62,0,120
1,note_on,57,0,0
1,note_on,57,49,120
1,note_on,62,58,0
1,note_on,62,0,120
1,note_on,57,0,0
1,note_on,57,60,120
1,note_on,62,70,0
1,note_on,57,0,480
1,note_on,59,51,0
1,note_on,64,61,0
1,note_on,64,0,240
1,note_on,59,0,0
1,note_on,62,0,0
1,note_on,57,61,240
1,note_on,57,0,160
1,note_on,59,55,0
1,note_on,59,0,160
1,note_on,60,55,0
1,note_on,60,0,160
1,note_on,62,61,0
1,note_on,62,0,160
1,note_on,64,56,0
1,note_on,64,0,160
1,note_on,66,56,0
1,note_on,66,0,160
1,note_on,58,61,0
1,note_on,58,0,240
1,note_on,66,52,0
1,note_on,66,0,240
1,note_on,59,61,0
1,note_on,59,0,240
1,note_on,67,55,0
1,note_on,67,0,240
1,note_on,64,54,0
1,note_on,67,54,0
1,note_on,69,63,0
1,note_on,69,0,120
1,note_on,67,0,0
1,note_on,64,0,0
1,note_on,64,49,120
1,note_on,67,49,0
1,note_on,69,59,0
1,note_on,69,0,120
1,note_on,67,0,0
1,note_on,64,0,0
1,note_on,64,54,120
1,note_on,67,54,0
1,note_on,69,63,0
1,note_on,69,0,120
1,note_on,67,0,0
1,note_on,64,0,0
1,note_on,64,49,120
1,note_on,67,49,0
1,note_on,69,58,0
1,note_on,69,0,120
1,note_on,67,0,0
1,note_on,64,0,0
1,note_on,67,60,120
1,note_on,64,60,0
1,note_on,69,70,0
1,note_on,69,0,480
1,note_on,64,0,0
1,note_on,62,51,0
1,note_on,71,61,0
1,note_on,71,0,240
1,note_on,62,0,0
1,note_on,67,0,0
1,note_on,62,61,240
1,note_on,62,0,160
1,note_on,64,55,0
1,note_on,64,0,160
1,note_on,66,55,0
1,note_on,66,0,160
1,note_on,67,61,0
1,note_on,67,0,160
1,note_on,69,56,0
1,note_on,69,0,160
1,note_on,71,56,0
1,note_on,71,0,160
1,note_on,63,61,0
1,note_on,63,0,240
1,note_on,71,52,0
1,note_on,71,0,240
1,note_on,64,61,0
1,note_on,64,0,240
1,note_on,72,55,0
1,note_on,72,0,240
1,note_on,67,54,0
1,note_on,70,54,0
1,note_on,73,63,0
1,note_on,73,0,120
1,note_on,70,0,0
1,note_on,67,0,0
1,note_on,67,49,120
1,note_on,70,49,0
1,note_on,73,59,0
1,note_on,73,0,120
1,note_on,70,0,0
1,note_on,67,0,0
1,note_on,67,54,120
1,note_on,70,54,0
1,note_on,73,63,0
1,note_on,73,0,120
1,note_on,70,0,0
1,note_on,67,0,0
1,note_on,67,49,120
1,note_on,70,49,0
1,note_on,73,58,0
1,note_on,73,0,120
1,note_on,70,0,0
1,note_on,67,0,0
1,note_on,70,60,120
1,note_on,67,60,0
1,note_on,73,70,0
1,note_on,73,0,480
1,note_on,67,0,0
1,note_on,65,51,0
1,note_on,74,61,0
1,note_on,74,0,240
1,note_on,65,0,0
1,note_on,70,0,0
1,note_on,65,61,240
1,note_on,65,0,160
1,note_on,67,55,0
1,note_on,67,0,160
1,note_on,69,55,0
1,note_on,69,0,160
1,note_on,71,61,0
1,note_on,71,0,160
1,note_on,72,56,0
1,note_on,72,0,160
1,note_on,74,56,0
1,note_on,74,0,160
1,note_on,75,61,0
1,note_on,75,0,240
1,note_on,67,50,0
1,note_on,67,0,240
1,note_on,74,61,0
1,note_on,74,0,240
1,note_on,65,51,0
1,note_on,65,0,240
1,note_on,64,45,0
1,note_on,67,45,0
1,note_on,70,45,0
1,note_on,73,53,0
1,note_on,73,0,120
1,note_on,64,0,0
1,note_on,67,0,0
1,note_on,70,0,0
1,note_on,64,41,120
1,note_on,67,41,0
1,note_on,70,41,0
1,note_on,73,50,0
1,note_on,73,0,120
1,note_on,64,0,0
1,note_on,67,0,0
1,note_on,70,0,0
1,note_on,64,45,120
1,note_on,67,45,0
1,note_on,70,45,0
1,note_on,73,53,0
1,note_on,73,0,120
1,note_on,64,0,0
1,note_on,67,0,0
1,note_on,70,0,0
1,note_on,64,41,120
1,note_on,67,41,0
1,note_on,70,41,0
1,note_on,73,49,0
1,note_on,73,0,120
1,note_on,64,0,0
1,note_on,67,0,0
1,note_on,70,0,0
1,note_on,64,51,120
1,note_on,70,51,0
1,note_on,67,51,0
1,note_on,73,59,0
1,note_on,73,0,480
1,note_on,67,0,0
1,note_on,64,0,0
1,note_on,65,43,0
1,note_on,74,51,0
1,note_on,74,0,240
1,note_on,65,0,0
1,note_on,70,0,0
1,note_on,65,51,240
1,note_on,65,0,160
1,note_on,67,46,0
1,note_on,67,0,160
1,note_on,69,46,0
1,note_on,69,0,160
1,note_on,70,51,0
1,note_on,70,0,160
1,note_on,72,47,0
1,note_on,72,0,160
1,note_on,74,47,0
1,note_on,74,0,160
1,note_on,79,51,0
1,note_on,75,43,0
1,note_on,75,0,240
1,note_on,79,0,0
1,note_on,67,44,0
1,note_on,67,0,240
1,note_on,77,51,0
1,note_on,74,43,0
1,note_on,74,0,240
1,note_on,77,0,0
1,note_on,65,46,0
1,note_on,65,0,240
1,note_on,64,40,0
1,note_on,67,40,0
1,note_on,70,40,0
1,note_on,73,53,0
1,note_on,73,0,120
1,note_on,64,0,0
1,note_on,67,0,0
1,note_on,70,0,0
1,note_on,64,37,120
1,note_on,67,37,0
1,note_on,70,37,0
1,note_on,73,50,0
1,note_on,73,0,120
1,note_on,64,0,0
1,note_on,67,0,0
1,note_on,70,0,0
1,note_on,64,40,120
1,note_on,67,40,0
1,note_on,70,40,0
1,note_on,73,53,0
1,note_on,73,0,120
1,note_on,64,0,0
1,note_on,67,0,0
1,note_on,70,0,0
1,note_on,64,37,120
1,note_on,67,37,0
1,note_on,70,37,0
1,note_on,73,49,0
1,note_on,73,0,120
1,note_on,64,0,0
1,note_on,67,0,0
1,note_on,70,0,0
1,note_on,64,51,120
1,note_on,70,51,0
1,note_on,67,51,0
1,note_on,73,59,0
1,note_on,73,0,480
1,note_on,67,0,0
1,note_on,64,0,0
1,note_on,65,43,0
1,note_on,74,51,0
1,note_on,74,0,240
1,note_on,65,0,0
1,note_on,70,0,0
1,note_on,65,50,240
1,note_on,65,0,160
1,note_on,67,51,0
1,note_on,67,0,160
1,note_on,69,52,0
1,note_on,69,0,160
1,note_on,70,53,0
1,note_on,70,0,160
1,note_on,72,54,0
1,note_on,72,0,160
1,note_on,74,55,0
1,note_on,74,0,160
1,note_on,75,61,0
1,note_on,75,0,160
1,note_on,77,52,0
1,note_on,77,0,160
1,note_on,79,52,0
1,note_on,79,0,160
1,note_on,77,61,0
1,note_on,77,0,160
1,note_on,75,53,0
1,note_on,75,0,160
1,note_on,74,53,0
1,note_on,74,0,160
1,note_on,73,57,0
1,note_on,73,0,160
1,note_on,70,47,0
1,note_on,70,0,160
1,note_on,67,47,0
1,note_on,67,0,160
1,note_on,64,49,0
1,note_on,64,0,160
1,note_on,61,47,0
1,note_on,61,0,160
1,note_on,64,48,0
1,note_on,64,0,160
1,note_on,65,50,0
1,note_on,65,0,160
1,note_on,62,45,0
1,note_on,62,0,160
1,note_on,65,45,0
1,note_on,65,0,160
1,note_on,62,50,0
1,note_on,62,0,160
1,note_on,58,45,0
1,note_on,58,0,160
1,note_on,62,45,0
1,note_on,62,0,160
1,note_on,65,45,0
1,note_on,65,0,160
1,note_on,67,47,0
1,note_on,67,0,160
1,note_on,69,49,0
1,note_on,69,0,160
1,note_on,70,51,0
1,note_on,70,0,160
1,note_on,72,53,0
1,note_on,72,0,160
1,note_on,74,55,0
1,note_on,74,0,160
1,note_on,75,57,0
1,note_on,75,0,160
1,note_on,77,59,0
1,note_on,77,0,160
1,note_on,79,61,0
1,note_on,79,0,160
1,note_on,77,63,0
1,note_on,77,0,160
1,note_on,75,58,0
1,note_on,75,0,160
1,note_on,74,61,0
1,note_on,74,0,160
1,note_on,73,57,0
1,note_on,73,0,160
1,note_on,70,55,0
1,note_on,70,0,160
1,note_on,67,53,0
1,note_on,67,0,160
1,note_on,64,51,0
1,note_on,64,0,160
1,note_on,61,47,0
1,note_on,61,0,160
1,note_on,64,43,0
1,note_on,64,0,160
1,note_on,67,59,0
1,note_on,67,0,160
1,note_on,64,43,0
1,note_on,64,0,160
1,note_on,67,43,0
1,note_on,67,0,160
1,note_on,64,44,0
1,note_on,64,0,160
1,note_on,61,45,0
1,note_on,61,0,160
1,note_on,64,45,0
1,note_on,64,0,160
1,note_on,68,62,0
1,note_on,68,0,160
1,note_on,64,46,0
1,note_on,64,0,160
1,note_on,68,47,0
1,note_on,68,0,160
1,note_on,64,47,0
1,note_on,64,0,160
1,note_on,61,48,0
1,note_on,61,0,160
1,note_on,64,48,0
1,note_on,64,0,160
1,note_on,69,65,0
1,note_on,69,0,160
1,note_on,64,49,0
1,note_on,64,0,160
1,note_on,69,50,0
1,note_on,69,0,160
1,note_on,64,50,0
1,note_on,64,0,160
1,note_on,61,51,0
1,note_on,61,0,160
1,note_on,64,52,0
1,note_on,64,0,160
1,note_on,69,68,0
1,note_on,69,0,160
1,note_on,64,52,0
1,note_on,64,0,160
1,note_on,69,53,0
1,note_on,69,0,160
1,note_on,64,54,0
1,note_on,64,0,160
1,note_on,60,54,0
1,note_on,60,0,160
1,note_on,64,55,0
1,note_on,64,0,160
1,note_on,74,74,0
1,note_on,74,0,160
1,note_on,69,59,0
1,note_on,69,0,160
1,note_on,74,60,0
1,note_on,74,0,160
1,note_on,69,61,0
1,note_on,69,0,160
1,note_on,62,62,0
1,note_on,62,0,160
1,note_on,69,63,0
1,note_on,69,0,160
1,note_on,80,82,0
1,note_on,80,0,160
1,note_on,74,67,0
1,note_on,74,0,160
1,note_on,80,69,0
1,note_on,80,0,160
1,note_on,74,70,0
1,note_on,74,0,160
1,note_on,68,72,0
1,note_on,68,0,160
1,note_on,74,74,0
1,note_on,74,0,160
1,note_on,81,105,0
1,note_on,76,89,0
1,note_on,73,89,0
1,note_on,69,89,0
1,note_on,69,0,960
1,note_on,81,0,0
1,note_on,76,0,0
1,note_on,73,0,0
1,note_on,72,54,0
1,note_on,75,63,0
1,note_on,75,0,180
1,note_on,72,0,0
1,note_on,72,49,60
1,note_on,75,59,0
1,note_on,75,0,180
1,note_on,72,0,0
1,note_on,72,54,60
1,note_on,75,63,0
1,note_on,75,0,180
1,note_on,72,0,0
1,note_on,72,49,60
1,note_on,75,58,0
1,note_on,75,0,180
1,note_on,72,0,0
1,note_on,73,60,60
1,note_on,76,70,0
1,note_on,76,0,480
1,note_on,73,0,0
1,note_on,85,49,0
1,note_on,85,0,240
1,note_on,49,64,0
1,note_on,49,0,240
1,note_on,50,66,0
1,note_on,50,0,160
1,note_on,49,62,0
1,note_on,49,0,160
1,note_on,47,64,0
1,note_on,47,0,160
1,note_on,53,65,0
1,note_on,53,0,160
1,note_on,52,60,0
1,note_on,52,0,160
1,note_on,50,49,0
1,note_on,50,0,160
1,note_on,73,56,480
1,note_on,76,56,0
1,note_on,76,0,360
1,note_on,73,0,0
1,note_on,73,49,0
1,note_on,76,49,0
1,note_on,76,0,120
1,note_on,73,0,0
1,note_on,71,55,0
1,note_on,74,55,0
1,note_on,59,55,0
1,note_on,59,0,160
1,note_on,61,56,0
1,note_on,74,0,80
1,note_on,71,0,0
1,note_on,61,0,80
1,note_on,62,54,0
1,note_on,62,0,160
1,note_on,64,57,0
1,note_on,64,0,160
1,note_on,66,60,0
1,note_on,66,0,160
1,note_on,68,62,0
1,note_on,68,0,160
1,note_on,81,94,0
1,note_on,76,80,0
1,note_on,73,80,0
1,note_on,69,80,0
1,note_on,69,0,960
1,note_on,81,0,0
1,note_on,76,0,0
1,note_on,73,0,0
1,note_on,72,54,0
1,note_on,75,63,0
1,note_on,75,0,330
1,note_on,72,0,0
1,note_on,72,49,30
1,note_on,75,59,0
1,note_on,75,0,90
1,note_on,72,0,0
1,note_on,72,54,30
1,note_on,75,63,0
1,note_on,75,0,330
1,note_on,72,0,0
1,note_on,72,49,30
1,note_on,75,58,0
1,note_on,75,0,90
1,note_on,72,0,0
1,note_on,73,60,30
1,note_on,76,70,0
1,note_on,76,0,480
1,note_on,73,0,0
1,note_on,85,49,0
1,note_on,85,0,240
1,note_on,49,64,0
1,note_on,49,0,240
1,note_on,50,66,0
1,note_on,50,0,160
1,note_on,49,62,0
1,note_on,49,0,160
1,note_on,47,64,0
1,note_on,47,0,160
1,note_on,53,65,0
1,note_on,53,0,160
1,note_on,52,60,0
1,note_on,52,0,160
1,note_on,50,49,0
1,note_on,50,0,160
1,note_on,73,56,480
1,note_on,76,56,0
1,note_on,76,0,360
1,note_on,73,0,0
1,note_on,73,49,0
1,note_on,76,49,0
1,note_on,76,0,120
1,note_on,73,0,0
1,note_on,71,55,0
1,note_on,74,55,0
1,note_on,59,55,0
1,note_on,59,0,160
1,note_on,61,56,0
1,note_on,74,0,80
1,note_on,71,0,0
1,note_on,61,0,80
1,note_on,62,54,0
1,note_on,62,0,160
1,note_on,64,57,0
1,note_on,64,0,160
1,note_on,66,60,0
1,note_on,66,0,160
1,note_on,68,62,0
1,note_on,68,0,160
1,note_on,69,57,0
1,note_on,69,0,160
1,note_on,71,61,0
1,note_on,71,0,160
1,note_on,73,62,0
1,note_on,73,0,160
1,note_on,74,63,0
1,note_on,74,0,160
1,note_on,76,64,0
1,note_on,76,0,160
1,note_on,78,65,0
1,note_on,78,0,160
1,note_on,80,66,0
1,note_on,80,0,160
1,note_on,81,67,0
1,note_on,81,0,160
1,note_on,83,68,0
1,note_on,83,0,160
1,note_on,85,69,0
1,note_on,85,0,160
1,note_on,86,70,0
1,note_on,86,0,160
1,note_on,88,71,0
1,note_on,88,0,160
1,note_on,86,71,0
1,note_on,86,0,160
1,note_on,85,68,0
1,note_on,85,0,160
1,note_on,83,65,0
1,note_on,83,0,160
1,note_on,81,63,0
1,note_on,81,0,160
1,note_on,80,60,0
1,note_on,80,0,160
1,note_on,78,58,0
1,note_on,78,0,160
1,note_on,76,55,0
1,note_on,76,0,160
1,note_on,74,53,0
1,note_on,74,0,160
1,note_on,73,50,0
1,note_on,73,0,160
1,note_on,71,48,0
1,note_on,71,0,160
1,note_on,69,45,0
1,note_on,69,0,160
1,note_on,68,43,0
1,note_on,68,0,160
1,note_on,69,50,0
1,note_on,69,0,480
1,note_on,61,39,0
1,note_on,61,0,120
1,note_on,71,49,360
1,note_on,71,0,480
1,note_on,64,39,0
1,note_on,64,0,120
1,note_on,64,40,300
1,note_on,64,0,60
1,note_on,73,49,0
1,note_on,73,0,480
1,note_on,69,39,0
1,note_on,69,0,120
1,note_on,69,40,300
1,note_on,69,0,60
1,note_on,78,55,0
1,note_on,78,0,360
1,note_on,75,45,0
1,note_on,75,0,120
1,note_on,78,53,0
1,note_on,78,0,360
1,note_on,75,46,0
1,note_on,75,0,120
1,note_on,76,50,7
1,note_on,64,39,473
1,note_on,76,0,7
1,note_on,64,0,113
1,note_on,64,40,300
1,note_on,64,0,60
1,note_on,74,49,0
1,note_on,74,0,480
1,note_on,71,39,0
1,note_on,71,0,120
1,note_on,71,40,300
1,note_on,71,0,60
1,note_on,73,49,0
1,note_on,73,0,480
1,note_on,64,39,0
1,note_on,64,0,120
1,note_on,64,40,300
1,note_on,64,0,60
1,note_on,71,55,0
1,note_on,71,0,360
1,note_on,68,45,0
1,note_on,68,0,120
1,note_on,71,53,0
1,note_on,71,0,360
1,note_on,68,46,0
1,note_on,68,0,120
1,note_on,69,50,0
1,note_on,69,0,160
1,note_on,64,44,0
1,note_on,64,0,160
1,note_on,69,38,0
1,note_on,69,0,160
1,note_on,61,39,0
1,note_on,61,0,120
1,note_on,71,50,360
1,note_on,71,0,160
1,note_on,68,44,0
1,note_on,68,0,160
1,note_on,71,38,0
1,note_on,71,0,160
1,note_on,64,39,0
1,note_on,64,0,120
1,note_on,73,50,360
1,note_on,73,0,160
1,note_on,71,44,0
1,note_on,71,0,160
1,note_on,73,38,0
1,note_on,73,0,160
1,note_on,69,39,0
1,note_on,69,0,120
1,note_on,78,55,360
1,note_on,78,0,160
1,note_on,75,47,0
1,note_on,75,0,160
1,note_on,78,47,0
1,note_on,78,0,160
1,note_on,81,55,0
1,note_on,81,0,160
1,note_on,78,47,0
1,note_on,78,0,160
1,note_on,75,47,0
1,note_on,75,0,160
1,note_on,76,50,0
1,note_on,76,0,160
1,note_on,73,44,0
1,note_on,73,0,160
1,note_on,76,38,0
1,note_on,76,0,160
1,note_on,64,39,0
1,note_on,64,0,120
1,note_on,74,50,360
1,note_on,74,0,160
1,note_on,73,44,0
1,note_on,73,0,160
1,note_on,74,38,0
1,note_on,74,0,160
1,note_on,71,39,0
1,note_on,71,0,120
1,note_on,73,50,360
1,note_on,73,0,160
1,note_on,69,44,0
1,note_on,69,0,160
1,note_on,73,38,0
1,note_on,73,0,160
1,note_on,64,39,0
1,note_on,64,0,120
1,note_on,71,55,360
1,note_on,71,0,360
1,note_on,68,45,0
1,note_on,68,0,120
1,note_on,71,53,0
1,note_on,71,0,360
1,note_on,68,46,0
1,note_on,68,0,120
1,note_on,71,78,0
1,note_on,71,0,160
1,note_on,62,62,0
1,note_on,62,0,160
1,note_on,71,62,0
1,note_on,71,0,160
1,note_on,55,78,0
1,note_on,55,0,840
1,note_on,71,59,0
1,note_on,62,59,0
1,note_on,62,0,120
1,note_on,71,0,0
1,note_on,55,78,0
1,note_on,55,0,360
1,note_on,62,62,0
1,note_on,62,0,120
1,note_on,71,75,0
1,note_on,71,0,160
1,note_on,62,56,0
1,note_on,62,0,160
1,note_on,71,56,0
1,note_on,71,0,160
1,note_on,55,74,0
1,note_on,55,0,840
1,note_on,71,59,0
1,note_on,62,59,0
1,note_on,62,0,120
1,note_on,71,0,0
1,note_on,55,74,0
1,note_on,55,0,840
1,note_on,62,52,0
1,note_on,71,62,0
1,note_on,71,0,120
1,note_on,62,0,0
1,note_on,55,74,0
1,note_on,55,0,840
1,note_on,62,52,0
1,note_on,71,62,0
1,note_on,71,0,120
1,note_on,62,0,0
1,note_on,55,74,0
1,note_on,55,0,360
1,note_on,71,62,0
1,note_on,62,52,0
1,note_on,62,0,120
1,note_on,71,0,0
1,note_on,72,79,0
1,note_on,72,0,160
1,note_on,64,62,0
1,note_on,64,0,160
1,note_on,72,62,0
1,note_on,72,0,160
1,note_on,76,81,0
1,note_on,76,0,840
1,note_on,64,59,0
1,note_on,64,0,120
1,note_on,72,62,0
1,note_on,76,74,0
1,note_on,76,0,360
1,note_on,72,0,0
1,note_on,64,62,0
1,note_on,64,0,120
1,note_on,72,71,0
1,note_on,72,0,160
1,note_on,64,56,0
1,note_on,64,0,160
1,note_on,72,56,0
1,note_on,72,0,160
1,note_on,76,74,0
1,note_on,76,0,840
1,note_on,64,59,0
1,note_on,64,0,120
1,note_on,72,74,0
1,note_on,76,74,0
1,note_on,76,0,840
1,note_on,72,0,0
1,note_on,64,62,0
1,note_on,64,0,120
1,note_on,72,74,0
1,note_on,76,80,0
1,note_on,76,0,840
1,note_on,72,0,0
1,note_on,64,53,0
1,note_on,64,0,120
1,note_on,68,57,0
1,note_on,74,57,0
1,note_on,76,63,0
1,note_on,76,0,840
1,note_on,74,0,0
1,note_on,68,0,0
1,note_on,64,42,0
1,note_on,64,0,120
1,note_on,68,44,0
1,note_on,74,44,0
1,note_on,76,53,0
1,note_on,76,0,360
1,note_on,74,0,0
1,note_on,68,0,0
1,note_on,64,42,0
1,note_on,64,0,120
1,note_on,68,41,0
1,note_on,74,41,0
1,note_on,76,48,0
1,note_on,76,0,360
1,note_on,74,0,0
1,note_on,68,0,0
1,note_on,64,39,0
1,note_on,64,0,120
1,note_on,68,37,0
1,note_on,74,37,0
1,note_on,76,44,0
1,note_on,76,0,360
1,note_on,74,0,0
1,note_on,68,0,0
1,note_on,64,35,0
1,note_on,64,0,120
1,note_on,69,42,0
1,note_on,73,42,0
1,note_on,76,50,0
1,note_on,76,0,120
1,note_on,73,0,0
1,note_on,69,0,0
1,note_on,64,39,40
1,note_on,64,0,160
1,note_on,69,41,0
1,note_on,69,0,160
1,note_on,73,42,0
1,note_on,73,0,160
1,note_on,76,44,0
1,note_on,76,0,160
1,note_on,81,45,0
1,note_on,81,0,160
1,note_on,76,47,0
1,note_on,76,0,160
1,note_on,69,45,0
1,note_on,69,0,160
1,note_on,73,49,0
1,note_on,73,0,160
1,note_on,76,52,0
1,note_on,76,0,160
1,note_on,81,52,0
1,note_on,81,0,160
1,note_on,85,47,0
1,note_on,85,0,160
1,note_on,76,52,0
1,note_on,76,0,160
1,note_on,78,45,0
1,note_on,78,0,160
1,note_on,76,45,0
1,note_on,76,0,160
1,note_on,74,52,0
1,note_on,74,0,160
1,note_on,78,47,0
1,note_on,78,0,160
1,note_on,74,47,0
1,note_on,74,0,160
1,note_on,73,53,0
1,note_on,73,0,160
1,note_on,76,47,0
1,note_on,76,0,160
1,note_on,73,47,0
1,note_on,73,0,160
1,note_on,71,52,0
1,note_on,71,0,160
1,note_on,74,47,0
1,note_on,74,0,160
1,note_on,71,47,0
1,note_on,71,0,160
1,note_on,69,50,0
1,note_on,69,0,160
1,note_on,64,39,0
1,note_on,64,0,160
1,note_on,69,41,0
1,note_on,69,0,160
1,note_on,73,42,0
1,note_on,73,0,160
1,note_on,76,44,0
1,note_on,76,0,160
1,note_on,81,45,0
1,note_on,81,0,160
1,note_on,76,47,0
1,note_on,76,0,160
1,note_on,69,45,0
1,note_on,69,0,160
1,note_on,73,49,0
1,note_on,73,0,160
1,note_on,76,52,0
1,note_on,76,0,160
1,note_on,81,52,0
1,note_on,81,0,160
1,note_on,85,47,0
1,note_on,85,0,160
1,note_on,76,52,0
1,note_on,76,0,160
1,note_on,78,45,0
1,note_on,78,0,160
1,note_on,76,45,0
1,note_on,76,0,160
1,note_on,74,52,0
1,note_on,74,0,160
1,note_on,76,47,0
1,note_on,76,0,160
1,note_on,74,47,0
1,note_on,74,0,160
1,note_on,73,53,0
1,note_on,73,0,160
1,note_on,74,47,0
1,note_on,74,0,160
1,note_on,73,47,0
1,note_on,73,0,160
1,note_on,71,52,0
1,note_on,71,0,160
1,note_on,73,47,0
1,note_on,73,0,160
1,note_on,71,47,0
1,note_on,71,0,160
1,note_on,61,42,0
1,note_on,61,0,160
1,note_on,64,37,0
1,note_on,64,0,160
1,note_on,61,37,0
1,note_on,61,0,160
1,note_on,64,43,0
1,note_on,64,0,160
1,note_on,69,36,0
1,note_on,69,0,160
1,note_on,64,37,0
1,note_on,64,0,140
1,note_on,64,43,20
1,note_on,64,0,160
1,note_on,68,37,0
1,note_on,68,0,160
1,note_on,64,38,0
1,note_on,64,0,160
1,note_on,68,43,0
1,note_on,68,0,160
1,note_on,71,39,0
1,note_on,71,0,160
1,note_on,68,39,0
1,note_on,68,0,160
1,note_on,64,43,0
1,note_on,64,0,160
1,note_on,69,38,0
1,note_on,69,0,160
1,note_on,64,38,0
1,note_on,64,0,160
1,note_on,69,43,0
1,note_on,69,0,160
1,note_on,73,38,0
1,note_on,73,0,160
1,note_on,69,38,0
1,note_on,69,0,140
1,note_on,69,43,20
1,note_on,69,0,160
1,note_on,72,37,0
1,note_on,72,0,160
1,note_on,69,37,0
1,note_on,69,0,160
1,note_on,72,43,0
1,note_on,72,0,160
1,note_on,75,37,0
1,note_on,75,0,160
1,note_on,72,37,0
1,note_on,72,0,160
1,note_on,69,42,0
1,note_on,69,0,160
1,note_on,73,37,0
1,note_on,73,0,160
1,note_on,69,37,0
1,note_on,69,0,160
1,note_on,73,43,0
1,note_on,73,0,160
1,note_on,76,36,0
1,note_on,76,0,160
1,note_on,73,37,0
1,note_on,73,0,140
1,note_on,64,43,20
1,note_on,64,0,160
1,note_on,71,37,0
1,note_on,71,0,160
1,note_on,64,38,0
1,note_on,64,0,160
1,note_on,71,43,0
1,note_on,71,0,160
1,note_on,74,39,0
1,note_on,74,0,160
1,note_on,71,39,0
1,note_on,71,0,160
1,note_on,64,43,0
1,note_on,64,0,160
1,note_on,69,38,0
1,note_on,69,0,160
1,note_on,64,38,0
1,note_on,64,0,160
1,note_on,69,43,0
1,note_on,69,0,160
1,note_on,73,38,0
1,note_on,73,0,160
1,note_on,69,38,0
1,note_on,69,0,140
1,note_on,64,43,20
1,note_on,64,0,160
1,note_on,68,37,0
1,note_on,68,0,160
1,note_on,64,37,0
1,note_on,64,0,160
1,note_on,68,43,0
1,note_on,68,0,160
1,note_on,71,37,0
1,note_on,71,0,160
1,note_on,68,37,0
1,note_on,68,0,160
1,note_on,73,44,0
1,note_on,73,0,160
1,note_on,76,39,0
1,note_on,76,0,160
1,note_on,73,39,0
1,note_on,73,0,160
1,note_on,76,46,0
1,note_on,76,0,160
1,note_on,81,39,0
1,note_on,81,0,160
1,note_on,76,40,0
1,note_on,76,0,140
1,note_on,76,47,20
1,note_on,76,0,160
1,note_on,80,41,0
1,note_on,80,0,160
1,note_on,76,42,0
1,note_on,76,0,160
1,note_on,80,49,0
1,note_on,80,0,160
1,note_on,83,44,0
1,note_on,83,0,160
1,note_on,80,45,0
1,note_on,80,0,160
1,note_on,76,50,0
1,note_on,76,0,160
1,note_on,81,44,0
1,note_on,81,0,160
1,note_on,76,45,0
1,note_on,76,0,160
1,note_on,81,51,0
1,note_on,81,0,160
1,note_on,85,45,0
1,note_on,85,0,160
1,note_on,81,46,0
1,note_on,81,0,140
1,note_on,81,52,20
1,note_on,81,0,160
1,note_on,84,45,0
1,note_on,84,0,160
1,note_on,81,46,0
1,note_on,81,0,160
1,note_on,84,54,0
1,note_on,84,0,160
1,note_on,87,46,0
1,note_on,87,0,160
1,note_on,84,47,0
1,note_on,84,0,160
1,note_on,81,55,0
1,note_on,81,0,160
1,note_on,84,49,0
1,note_on,84,0,160
1,note_on,81,49,0
1,note_on,81,0,160
1,note_on,84,55,0
1,note_on,84,0,160
1,note_on,87,49,0
1,note_on,87,0,160
1,note_on,84,49,0
1,note_on,84,0,140
1,note_on,81,43,20
1,note_on,81,0,160
1,note_on,84,37,0
1,note_on,84,0,160
1,note_on,81,37,0
1,note_on,81,0,160
1,note_on,84,43,0
1,note_on,84,0,160
1,note_on,87,37,0
1,note_on,87,0,160
1,note_on,84,37,0
1,note_on,84,0,160
1,note_on,81,43,0
1,note_on,81,0,160
1,note_on,84,38,0
1,note_on,84,0,160
1,note_on,81,38,0
1,note_on,81,0,160
1,note_on,84,43,0
1,note_on,84,0,160
1,note_on,87,38,0
1,note_on,87,0,160
1,note_on,84,38,0
1,note_on,84,0,140
1,note_on,81,43,20
1,note_on,81,0,160
1,note_on,84,37,0
1,note_on,84,0,160
1,note_on,81,37,0
1,note_on,81,0,160
1,note_on,84,43,0
1,note_on,84,0,160
1,note_on,89,37,0
1,note_on,89,0,160
1,note_on,84,37,0
1,note_on,84,0,160
1,note_on,81,43,0
1,note_on,81,0,160
1,note_on,84,38,0
1,note_on,84,0,160
1,note_on,81,38,0
1,note_on,81,0,160
1,note_on,84,43,0
1,note_on,84,0,160
1,note_on,89,38,0
1,note_on,89,0,160
1,note_on,84,38,0
1,note_on,84,0,140
1,note_on,81,43,20
1,note_on,81,0,160
1,note_on,84,37,0
1,note_on,84,0,160
1,note_on,81,36,0
1,note_on,81,0,160
1,note_on,84,42,0
1,note_on,84,0,160
1,note_on,89,36,0
1,note_on,89,0,160
1,note_on,84,36,0
1,note_on,84,0,160
1,note_on,82,41,0
1,note_on,82,0,160
1,note_on,86,36,0
1,note_on,86,0,160
1,note_on,82,36,0
1,note_on,82,0,160
1,note_on,86,40,0
1,note_on,86,0,160
1,note_on,89,36,0
1,note_on,89,0,160
1,note_on,86,35,0
1,note_on,86,0,140
1,note_on,80,39,20
1,note_on,80,0,160
1,note_on,83,34,0
1,note_on,83,0,160
1,note_on,80,34,0
1,note_on,80,0,160
1,note_on,83,39,0
1,note_on,83,0,160
1,note_on,88,33,0
1,note_on,88,0,160
1,note_on,83,33,0
1,note_on,83,0,160
1,note_on,81,38,0
1,note_on,81,0,160
1,note_on,85,33,0
1,note_on,85,0,160
1,note_on,81,33,0
1,note_on,81,0,160
1,note_on,85,37,0
1,note_on,85,0,160
1,note_on,88,33,0
1,note_on,88,0,160
1,note_on,85,33,0
1,note_on,85,0,140
1,note_on,74,36,20
1,note_on,74,0,160
1,note_on,81,31,0
1,note_on,81,0,160
1,note_on,74,31,0
1,note_on,74,0,150
1,note_on,81,36,10
1,note_on,81,0,160
1,note_on,86,31,0
1,note_on,86,0,160
1,note_on,81,30,0
1,note_on,81,0,160
1,note_on,76,35,0
1,note_on,76,0,160
1,note_on,81,31,0
1,note_on,81,0,160
1,note_on,76,30,0
1,note_on,76,0,160
1,note_on,81,34,0
1,note_on,81,0,160
1,note_on,85,30,0
1,note_on,85,0,160
1,note_on,81,30,0
1,note_on,81,0,140
1,note_on,76,33,20
1,note_on,76,0,160
1,note_on,83,28,0
1,note_on,83,0,160
1,note_on,80,28,0
1,note_on,80,0,150
1,note_on,76,33,10
1,note_on,76,0,160
1,note_on,74,28,0
1,note_on,74,0,160
1,note_on,71,28,0
1,note_on,71,0,160
1,note_on,67,87,0
1,note_on,67,0,160
1,note_on,69,55,0
1,note_on,69,0,160
1,note_on,67,55,0
1,note_on,67,0,160
1,note_on,64,61,0
1,note_on,64,0,160
1,note_on,61,55,0
1,note_on,61,0,160
1,note_on,57,55,0
1,note_on,57,0,160
1,note_on,55,75,0
1,note_on,55,0,160
1,note_on,57,48,0
1,note_on,57,0,160
1,note_on,55,48,0
1,note_on,55,0,160
1,note_on,57,54,0
1,note_on,57,0,160
1,note_on,55,50,0
1,note_on,55,0,160
1,note_on,57,50,0
1,note_on,57,0,160
1,note_on,65,84,0
1,note_on,65,0,160
1,note_on,69,55,0
1,note_on,69,0,160
1,note_on,65,55,0
1,note_on,65,0,160
1,note_on,60,61,0
1,note_on,60,0,160
1,note_on,57,55,0
1,note_on,57,0,160
1,note_on,53,55,0
1,note_on,53,0,160
1,note_on,57,77,0
1,note_on,57,0,160
1,note_on,53,48,0
1,note_on,53,0,160
1,note_on,57,48,0
1,note_on,57,0,160
1,note_on,53,54,0
1,note_on,53,0,160
1,note_on,57,50,0
1,note_on,57,0,160
1,note_on,53,50,0
1,note_on,53,0,160
1,note_on,67,88,0
1,note_on,67,0,160
1,note_on,69,55,0
1,note_on,69,0,160
1,note_on,67,55,0
1,note_on,67,0,160
1,note_on,64,61,0
1,note_on,64,0,160
1,note_on,61,55,0
1,note_on,61,0,160
1,note_on,57,55,0
1,note_on,57,0,160
1,note_on,55,75,0
1,note_on,55,0,160
1,note_on,57,48,0
1,note_on,57,0,160
1,note_on,55,48,0
1,note_on,55,0,160
1,note_on,57,54,0
1,note_on,57,0,160
1,note_on,55,50,0
1,note_on,55,0,160
1,note_on,57,50,0
1,note_on,57,0,160
1,note_on,65,87,0
1,note_on,65,0,160
1,note_on,69,55,0
1,note_on,69,0,160
1,note_on,65,55,0
1,note_on,65,0,160
1,note_on,60,61,0
1,note_on,60,0,160
1,note_on,57,55,0
1,note_on,57,0,160
1,note_on,53,55,0
1,note_on,53,0,160
1,note_on,57,77,0
1,note_on,57,0,160
1,note_on,53,48,0
1,note_on,53,0,160
1,note_on,57,48,0
1,note_on,57,0,160
1,note_on,53,54,0
1,note_on,53,0,160
1,note_on,57,50,0
1,note_on,57,0,160
1,note_on,53,50,0
1,note_on,53,0,160
1,note_on,73,44,480
1,note_on,76,44,0
1,note_on,76,0,360
1,note_on,73,0,0
1,note_on,73,39,0
1,note_on,76,39,0
1,note_on,76,0,120
1,note_on,73,0,0
1,note_on,71,44,0
1,note_on,74,44,0
1,note_on,62,44,0
1,note_on,62,0,160
1,note_on,64,44,0
1,note_on,74,0,80
1,note_on,71,0,0
1,note_on,64,0,80
1,note_on,66,43,0
1,note_on,66,0,160
1,note_on,68,45,0
1,note_on,68,0,160
1,note_on,69,48,0
1,note_on,69,0,160
1,note_on,71,49,0
1,note_on,71,0,160
1,note_on,73,45,0
1,note_on,73,0,160
1,note_on,74,48,0
1,note_on,74,0,160
1,note_on,76,48,0
1,note_on,76,0,157
1,note_on,78,50,3
1,note_on,78,0,160
1,note_on,80,52,0
1,note_on,80,0,160
1,note_on,81,52,0
1,note_on,81,0,160
1,note_on,83,54,0
1,note_on,83,0,160
1,note_on,85,56,0
1,note_on,85,0,160
1,note_on,86,56,0
1,note_on,86,0,160
1,note_on,88,58,0
1,note_on,88,0,160
1,note_on,90,60,0
1,note_on,90,0,160
1,note_on,92,60,0
1,note_on,92,0,160
1,note_on,93,62,0
1,note_on,93,0,160
1,note_on,92,62,0
1,note_on,92,0,160
1,note_on,90,60,0
1,note_on,90,0,160
1,note_on,88,60,0
1,note_on,88,0,160
1,note_on,86,58,0
1,note_on,86,0,160
1,note_on,85,56,0
1,note_on,85,0,160
1,note_on,83,55,0
1,note_on,83,0,160
1,note_on,81,54,0
1,note_on,81,0,160
1,note_on,80,52,0
1,note_on,80,0,160
1,note_on,78,51,0
1,note_on,78,0,160
1,note_on,76,50,0
1,note_on,76,0,160
1,note_on,74,48,0
1,note_on,74,0,160
1,note_on,73,46,0
1,note_on,73,0,160
1,note_on,71,45,0
1,note_on,71,0,160
1,note_on,69,44,0
1,note_on,69,0,160
1,note_on,68,43,0
1,note_on,68,0,160
1,note_on,66,41,0
1,note_on,66,0,160
1,note_on,64,40,0
1,note_on,64,0,160
1,note_on,62,40,0
1,note_on,62,0,160
1,note_on,66,39,0
1,note_on,66,0,160
1,note_on,64,37,0
1,note_on,64,0,160
1,note_on,62,35,0
1,note_on,62,0,160
1,note_on,61,33,0
1,note_on,61,0,160
1,note_on,59,31,0
1,note_on,59,0,160
1,note_on,67,87,0
1,note_on,67,0,160
1,note_on,69,55,0
1,note_on,69,0,160
1,note_on,67,55,0
1,note_on,67,0,160
1,note_on,64,61,0
1,note_on,64,0,160
1,note_on,61,55,0
1,note_on,61,0,160
1,note_on,57,55,0
1,note_on,57,0,160
1,note_on,55,75,0
1,note_on,55,0,160
1,note_on,57,48,0
1,note_on,57,0,160
1,note_on,55,48,0
1,note_on,55,0,160
1,note_on,57,54,0
1,note_on,57,0,160
1,note_on,55,50,0
1,note_on,55,0,160
1,note_on,57,50,0
1,note_on,57,0,160
1,note_on,65,84,0
1,note_on,65,0,160
1,note_on,69,55,0
1,note_on,69,0,160
1,note_on,65,55,0
1,note_on,65,0,160
1,note_on,60,61,0
1,note_on,60,0,160
1,note_on,57,55,0
1,note_on,57,0,160
1,note_on,53,55,0
1,note_on,53,0,160
1,note_on,57,77,0
1,note_on,57,0,160
1,note_on,53,48,0
1,note_on,53,0,160
1,note_on,57,48,0
1,note_on,57,0,160
1,note_on,53,54,0
1,note_on,53,0,160
1,note_on,57,50,0
1,note_on,57,0,160
1,note_on,53,50,0
1,note_on,53,0,160
1,note_on,65,84,0
1,note_on,65,0,160
1,note_on,67,55,0
1,note_on,67,0,160
1,note_on,65,55,0
1,note_on,65,0,160
1,note_on,62,61,0
1,note_on,62,0,160
1,note_on,59,55,0
1,note_on,59,0,160
1,note_on,55,55,0
1,note_on,55,0,160
1,note_on,53,77,0
1,note_on,53,0,160
1,note_on,55,48,0
1,note_on,55,0,160
1,note_on,53,48,0
1,note_on,53,0,160
1,note_on,55,54,0
1,note_on,55,0,160
1,note_on,53,50,0
1,note_on,53,0,160
1,note_on,55,50,0
1,note_on,55,0,160
1,note_on,63,84,0
1,note_on,63,0,160
1,note_on,67,55,0
1,note_on,67,0,160
1,note_on,63,55,0
1,note_on,63,0,160
1,note_on,58,61,0
1,note_on,58,0,160
1,note_on,55,55,0
1,note_on,55,0,160
1,note_on,51,55,0
1,note_on,51,0,160
1,note_on,55,77,0
1,note_on,55,0,160
1,note_on,51,48,0
1,note_on,51,0,160
1,note_on,55,48,0
1,note_on,55,0,160
1,note_on,51,54,0
1,note_on,51,0,160
1,note_on,55,50,0
1,note_on,55,0,160
1,note_on,51,50,0
1,note_on,51,0,160
1,note_on,63,84,0
1,note_on,63,0,160
1,note_on,65,55,0
1,note_on,65,0,160
1,note_on,63,55,0
1,note_on,63,0,160
1,note_on,60,61,0
1,note_on,60,0,160
1,note_on,57,55,0
1,note_on,57,0,160
1,note_on,53,55,0
1,note_on,53,0,160
1,note_on,61,84,0
1,note_on,61,0,160
1,note_on,65,55,0
1,note_on,65,0,160
1,note_on,61,55,0
1,note_on,61,0,160
1,note_on,56,61,0
1,note_on,56,0,160
1,note_on,53,55,0
1,note_on,53,0,160
1,note_on,49,55,0
1,note_on,49,0,160
1,note_on,62,84,0
1,note_on,62,0,160
1,note_on,64,55,0
1,note_on,64,0,160
1,note_on,62,55,0
1,note_on,62,0,160
1,note_on,59,61,0
1,note_on,59,0,160
1,note_on,56,55,0
1,note_on,56,0,160
1,note_on,52,55,0
1,note_on,52,0,160
1,note_on,60,84,0
1,note_on,60,0,160
1,note_on,64,55,0
1,note_on,64,0,160
1,note_on,60,55,0
1,note_on,60,0,160
1,note_on,55,61,0
1,note_on,55,0,160
1,note_on,52,55,0
1,note_on,52,0,160
1,note_on,48,55,0
1,note_on,48,0,160
1,note_on,53,84,0
1,note_on,53,0,160
1,note_on,57,55,0
1,note_on,57,0,160
1,note_on,53,55,0
1,note_on,53,0,160
1,note_on,48,61,0
1,note_on,48,0,160
1,note_on,45,55,0
1,note_on,45,0,160
1,note_on,41,55,0
1,note_on,41,0,160
1,note_on,45,69,0
1,note_on,45,0,160
1,note_on,41,43,0
1,note_on,41,0,160
1,note_on,45,43,0
1,note_on,45,0,160
1,note_on,41,48,0
1,note_on,41,0,160
1,note_on,45,45,0
1,note_on,45,0,160
1,note_on,41,45,0
1,note_on,41,0,160
1,note_on,57,56,0
1,note_on,57,0,160
1,note_on,53,39,0
1,note_on,53,0,160
1,note_on,57,39,0
1,note_on,57,0,160
1,note_on,53,42,0
1,note_on,53,0,160
1,note_on,57,39,0
1,note_on,57,0,160
1,note_on,53,38,0
1,note_on,53,0,160
1,note_on,57,46,0
1,note_on,57,0,160
1,note_on,53,34,0
1,note_on,53,0,160
1,note_on,57,33,0
1,note_on,57,0,160
1,note_on,53,36,0
1,note_on,53,0,160
1,note_on,57,33,0
1,note_on,57,0,160
1,note_on,53,32,0
1,note_on,53,0,160
1,note_on,73,44,480
1,note_on,76,44,0
1,note_on,76,0,360
1,note_on,73,0,0
1,note_on,73,39,0
1,note_on,76,39,0
1,note_on,76,0,120
1,note_on,73,0,0
1,note_on,71,44,0
1,note_on,74,44,0
1,note_on,62,44,0
1,note_on,62,0,160
1,note_on,64,44,0
1,note_on,74,0,80
1,note_on,71,0,0
1,note_on,64,0,80
1,note_on,66,43,0
1,note_on,66,0,160
1,note_on,68,45,0
1,note_on,68,0,160
1,note_on,69,48,0
1,note_on,69,0,160
1,note_on,71,49,0
1,note_on,71,0,160
1,note_on,73,45,0
1,note_on,73,0,160
1,note_on,74,48,0
1,note_on,74,0,160
1,note_on,76,48,0
1,note_on,76,0,157
1,note_on,78,50,3
1,note_on,78,0,160
1,note_on,80,52,0
1,note_on,80,0,160
1,note_on,81,52,0
1,note_on,81,0,160
1,note_on,83,54,0
1,note_on,83,0,160
1,note_on,85,56,0
1,note_on,85,0,160
1,note_on,86,56,0
1,note_on,86,0,160
1,note_on,88,58,0
1,note_on,88,0,160
1,note_on,90,60,0
1,note_on,90,0,160
1,note_on,92,60,0
1,note_on,92,0,160
1,note_on,93,62,0
1,note_on,93,0,160
1,note_on,92,62,0
1,note_on,92,0,160
1,note_on,90,60,0
1,note_on,90,0,160
1,note_on,88,60,0
1,note_on,88,0,160
1,note_on,86,58,0
1,note_on,86,0,160
1,note_on,85,56,0
1,note_on,85,0,160
1,note_on,83,55,0
1,note_on,83,0,160
1,note_on,81,54,0
1,note_on,81,0,160
1,note_on,80,52,0
1,note_on,80,0,160
1,note_on,78,51,0
1,note_on,78,0,160
1,note_on,76,50,0
1,note_on,76,0,160
1,note_on,74,48,0
1,note_on,74,0,160
1,note_on,73,46,0
1,note_on,73,0,160
1,note_on,71,45,0
1,note_on,71,0,160
1,note_on,69,44,0
1,note_on,69,0,160
1,note_on,68,43,0
1,note_on,68,0,160
1,note_on,66,41,0
1,note_on,66,0,160
1,note_on,64,40,0
1,note_on,64,0,160
1,note_on,62,40,0
1,note_on,62,0,160
1,note_on,66,39,0
1,note_on,66,0,160
1,note_on,64,37,0
1,note_on,64,0,160
1,note_on,62,35,0
1,note_on,62,0,160
1,note_on,61,33,0
1,note_on,61,0,160
1,note_on,59,31,0
1,note_on,59,0,160
1,note_on,57,39,0
1,note_on,57,0,160
1,note_on,61,34,0
1,note_on,61,0,160
1,note_on,57,34,0
1,note_on,57,0,160
1,note_on,61,39,0
1,note_on,61,0,160
1,note_on,69,34,0
1,note_on,69,0,160
1,note_on,61,34,0
1,note_on,61,0,160
1,note_on,57,39,0
1,note_on,57,0,160
1,note_on,61,34,0
1,note_on,61,0,160
1,note_on,57,34,0
1,note_on,57,0,160
1,note_on,61,39,0
1,note_on,61,0,160
1,note_on,69,34,0
1,note_on,69,0,160
1,note_on,61,34,0
1,note_on,61,0,150
1,note_on,61,39,10
1,note_on,61,0,160
1,note_on,69,34,0
1,note_on,69,0,160
1,note_on,61,34,0
1,note_on,61,0,160
1,note_on,69,40,0
1,note_on,69,0,160
1,note_on,73,35,0
1,note_on,73,0,160
1,note_on,69,35,0
1,note_on,69,0,160
1,note_on,61,45,0
1,note_on,61,0,160
1,note_on,69,39,0
1,note_on,69,0,160
1,note_on,61,40,0
1,note_on,61,0,160
1,note_on,69,48,0
1,note_on,69,0,160
1,note_on,73,43,0
1,note_on,73,0,160
1,note_on,69,43,0
1,note_on,69,0,160
1,note_on,64,52,0
1,note_on,64,0,160
1,note_on,73,46,0
1,note_on,73,0,160
1,note_on,64,46,0
1,note_on,64,0,160
1,note_on,73,55,0
1,note_on,73,0,160
1,note_on,76,47,0
1,note_on,76,0,160
1,note_on,73,48,0
1,note_on,73,0,160
1,note_on,64,57,0
1,note_on,64,0,160
1,note_on,73,49,0
1,note_on,73,0,160
1,note_on,64,50,0
1,note_on,64,0,160
1,note_on,73,59,0
1,note_on,73,0,160
1,note_on,76,51,0
1,note_on,76,0,160
1,note_on,73,52,0
1,note_on,73,0,160
1,note_on,69,61,0
1,note_on,69,0,160
1,note_on,73,53,0
1,note_on,73,0,160
1,note_on,69,55,0
1,note_on,69,0,160
1,note_on,73,64,0
1,note_on,73,0,160
1,note_on,81,57,0
1,note_on,81,0,160
1,note_on,73,59,0
1,note_on,73,0,150
1,note_on,73,70,10
1,note_on,73,0,160
1,note_on,81,61,0
1,note_on,81,0,160
1,note_on,73,63,0
1,note_on,73,0,160
1,note_on,81,75,0
1,note_on,81,0,160
1,note_on,85,66,0
1,note_on,85,0,160
1,note_on,81,67,0
1,note_on,81,0,160
1,note_on,86,92,0
1,note_on,81,78,0
1,note_on,78,78,0
1,note_on,74,78,0
1,note_on,74,0,960
1,note_on,86,0,0
1,note_on,81,0,0
1,note_on,78,0,0
1,note_on,57,56,0
1,note_on,62,66,0
1,note_on,62,0,120
1,note_on,57,0,0
1,note_on,57,51,120
1,note_on,62,61,0
1,note_on,62,0,120
1,note_on,57,0,0
1,note_on,57,56,120
1,note_on,62,66,0
1,note_on,62,0,120
1,note_on,57,0,0
1,note_on,57,51,120
1,note_on,62,60,0
1,note_on,62,0,120
1,note_on,57,0,0
1,note_on,57,62,120
1,note_on,62,73,0
1,note_on,57,0,480
1,note_on,59,53,0
1,note_on,64,63,0
1,note_on,64,0,240
1,note_on,59,0,0
1,note_on,62,0,0
1,note_on,60,56,240
1,note_on,62,56,0
1,note_on,66,66,0
1,note_on,66,0,120
1,note_on,62,0,0
1,note_on,60,0,0
1,note_on,60,51,120
1,note_on,62,51,0
1,note_on,66,61,0
1,note_on,66,0,120
1,note_on,62,0,0
1,note_on,60,0,0
1,note_on,60,56,120
1,note_on,62,56,0
1,note_on,66,66,0
1,note_on,66,0,120
1,note_on,62,0,0
1,note_on,60,0,0
1,note_on,60,51,120
1,note_on,62,51,0
1,note_on,66,60,0
1,note_on,66,0,120
1,note_on,62,0,0
1,note_on,60,0,0
1,note_on,60,62,120
1,note_on,62,62,0
1,note_on,66,73,0
1,note_on,66,0,480
1,note_on,60,0,0
1,note_on,59,53,0
1,note_on,67,63,0
1,note_on,67,0,240
1,note_on,59,0,0
1,note_on,62,0,0
1,note_on,64,57,0
1,note_on,64,0,240
1,note_on,67,63,0
1,note_on,67,0,160
1,note_on,66,57,0
1,note_on,66,0,160
1,note_on,64,57,0
1,note_on,64,0,160
1,note_on,70,63,0
1,note_on,70,0,160
1,note_on,69,58,0
1,note_on,69,0,160
1,note_on,67,58,0
1,note_on,67,0,160
1,note_on,69,63,0
1,note_on,69,0,240
1,note_on,78,56,240
1,note_on,78,0,160
1,note_on,76,46,0
1,note_on,76,0,160
1,note_on,74,46,0
1,note_on,74,0,160
1,note_on,81,57,0
1,note_on,81,0,160
1,note_on,79,47,0
1,note_on,79,0,160
1,note_on,78,47,0
1,note_on,78,0,160
1,note_on,76,58,0
1,note_on,76,0,160
1,note_on,74,50,0
1,note_on,74,0,160
1,note_on,73,50,0
1,note_on,73,0,160
1,note_on,86,92,0
1,note_on,81,78,0
1,note_on,77,78,0
1,note_on,74,78,0
1,note_on,74,0,960
1,note_on,86,0,0
1,note_on,81,0,0
1,note_on,77,0,0
1,note_on,57,56,0
1,note_on,62,66,0
1,note_on,62,0,120
1,note_on,57,0,0
1,note_on,57,51,120
1,note_on,62,61,0
1,note_on,62,0,120
1,note_on,57,0,0
1,note_on,57,56,120
1,note_on,62,66,0
1,note_on,62,0,120
1,note_on,57,0,0
1,note_on,57,51,120
1,note_on,62,60,0
1,note_on,62,0,120
1,note_on,57,0,0
1,note_on,57,62,120
1,note_on,62,73,0
1,note_on,57,0,480
1,note_on,58,53,0
1,note_on,64,63,0
1,note_on,64,0,240
1,note_on,58,0,0
1,note_on,62,0,0
1,note_on,60,56,240
1,note_on,62,56,0
1,note_on,66,66,0
1,note_on,66,0,120
1,note_on,62,0,0
1,note_on,60,0,0
1,note_on,60,51,120
1,note_on,62,51,0
1,note_on,66,61,0
1,note_on,66,0,120
1,note_on,62,0,0
1,note_on,60,0,0
1,note_on,60,56,120
1,note_on,62,56,0
1,note_on,66,66,0
1,note_on,66,0,120
1,note_on,62,0,0
1,note_on,60,0,0
1,note_on,60,51,120
1,note_on,62,51,0
1,note_on,66,60,0
1,note_on,66,0,120
1,note_on,62,0,0
1,note_on,60,0,0
1,note_on,60,62,120
1,note_on,62,62,0
1,note_on,66,73,0
1,note_on,66,0,480
1,note_on,60,0,0
1,note_on,58,53,0
1,note_on,67,63,0
1,note_on,67,0,240
1,note_on,58,0,0
1,note_on,62,0,0
1,note_on,65,56,240
1,note_on,62,56,0
1,note_on,68,66,0
1,note_on,68,0,120
1,note_on,62,0,0
1,note_on,65,0,0
1,note_on,65,51,120
1,note_on,62,51,0
1,note_on,68,61,0
1,note_on,68,0,120
1,note_on,62,0,0
1,note_on,65,0,0
1,note_on,65,56,120
1,note_on,62,56,0
1,note_on,68,66,0
1,note_on,68,0,120
1,note_on,62,0,0
1,note_on,65,0,0
1,note_on,65,51,120
1,note_on,62,51,0
1,note_on,68,60,0
1,note_on,68,0,120
1,note_on,62,0,0
1,note_on,65,0,0
1,note_on,60,62,120
1,note_on,65,62,0
1,note_on,69,73,0
1,note_on,69,0,480
1,note_on,65,0,0
1,note_on,60,0,0
1,note_on,72,56,0
1,note_on,72,0,160
1,note_on,70,46,0
1,note_on,70,0,160
1,note_on,69,46,0
1,note_on,69,0,160
1,note_on,67,57,0
1,note_on,67,0,160
1,note_on,65,47,0
1,note_on,65,0,160
1,note_on,64,47,0
1,note_on,64,0,160
1,note_on,62,55,0
1,note_on,62,0,160
1,note_on,60,47,0
1,note_on,60,0,160
1,note_on,58,47,0
1,note_on,58,0,160
1,note_on,57,53,0
1,note_on,57,0,160
1,note_on,58,46,0
1,note_on,58,0,160
1,note_on,60,46,0
1,note_on,60,0,160
1,note_on,72,56,0
1,note_on,72,0,160
1,note_on,70,46,0
1,note_on,70,0,160
1,note_on,69,46,0
1,note_on,69,0,160
1,note_on,67,57,0
1,note_on,67,0,160
1,note_on,65,47,0
1,note_on,65,0,160
1,note_on,64,47,0
1,note_on,64,0,160
1,note_on,62,55,0
1,note_on,62,0,160
1,note_on,60,47,0
1,note_on,60,0,160
1,note_on,58,47,0
1,note_on,58,0,160
1,note_on,57,53,0
1,note_on,57,0,160
1,note_on,58,46,0
1,note_on,58,0,160
1,note_on,60,40,0
1,note_on,60,0,160
1,note_on,57,45,0
1,note_on,57,0,160
1,note_on,58,39,0
1,note_on,58,0,160
1,note_on,60,36,0
1,note_on,60,0,160
1,note_on,57,47,0
1,note_on,58,42,160
1,note_on,57,0,16
1,note_on,60,43,144
1,note_on,58,0,16
1,note_on,60,0,144
1,note_on,57,50,0
1,note_on,58,45,160
1,note_on,57,0,16
1,note_on,60,41,144
1,note_on,58,0,16
1,note_on,60,0,144
1,note_on,57,54,0
1,note_on,58,47,160
1,note_on,57,0,16
1,note_on,60,43,144
1,note_on,58,0,16
1,note_on,60,0,144
1,note_on,57,56,0
1,note_on,58,50,160
1,note_on,57,0,16
1,note_on,60,46,144
1,note_on,58,0,16
1,note_on,60,0,144
1,note_on,57,59,0
1,note_on,58,52,160
1,note_on,57,0,16
1,note_on,60,46,144
1,note_on,58,0,16
1,note_on,60,0,144
1,note_on,57,63,0
1,note_on,58,55,160
1,note_on,57,0,16
1,note_on,60,47,144
1,note_on,58,0,16
1,note_on,60,0,144
1,note_on,53,54,0
1,note_on,56,54,0
1,note_on,61,70,0
1,note_on,61,0,960
1,note_on,56,0,0
1,note_on,53,0,0
1,note_on,56,37,0
1,note_on,61,37,0
1,note_on,65,44,0
1,note_on,65,0,120
1,note_on,61,0,0
1,note_on,56,0,0
1,note_on,56,33,120
1,note_on,61,33,0
1,note_on,65,39,0
1,note_on,65,0,120
1,note_on,61,0,0
1,note_on,56,0,0
1,note_on,56,33,120
1,note_on,61,33,0
1,note_on,65,39,0
1,note_on,65,0,120
1,note_on,61,0,0
1,note_on,56,0,0
1,note_on,56,33,120
1,note_on,61,33,0
1,note_on,65,39,0
1,note_on,65,0,120
1,note_on,61,0,0
1,note_on,56,0,0
1,note_on,61,38,120
1,note_on,65,38,0
1,note_on,68,45,0
1,note_on,68,0,960
1,note_on,65,0,0
1,note_on,61,0,0
1,note_on,68,46,0
1,note_on,65,44,0
1,note_on,73,52,0
1,note_on,73,0,120
1,note_on,65,0,0
1,note_on,68,0,0
1,note_on,65,39,120
1,note_on,68,39,0
1,note_on,73,46,0
1,note_on,73,0,120
1,note_on,68,0,0
1,note_on,65,0,0
1,note_on,65,39,120
1,note_on,68,39,0
1,note_on,73,46,0
1,note_on,73,0,120
1,note_on,68,0,0
1,note_on,65,0,0
1,note_on,65,39,120
1,note_on,68,39,0
1,note_on,73,46,0
1,note_on,73,0,120
1,note_on,68,0,0
1,note_on,65,0,0
1,note_on,64,52,120
1,note_on,67,52,0
1,note_on,69,52,0
1,note_on,73,62,0
1,note_on,73,0,960
1,note_on,64,0,0
1,note_on,67,0,0
1,note_on,69,0,0
1,note_on,67,55,0
1,note_on,73,58,0
1,note_on,69,55,0
1,note_on,76,66,0
1,note_on,76,0,120
1,note_on,67,0,0
1,note_on,73,0,0
1,note_on,69,0,0
1,note_on,67,49,120
1,note_on,69,49,0
1,note_on,73,49,0
1,note_on,76,58,0
1,note_on,76,0,120
1,note_on,67,0,0
1,note_on,69,0,0
1,note_on,73,0,0
1,note_on,67,50,120
1,note_on,69,50,0
1,note_on,73,50,0
1,note_on,76,58,0
1,note_on,76,0,120
1,note_on,67,0,0
1,note_on,69,0,0
1,note_on,73,0,0
1,note_on,67,50,120
1,note_on,69,50,0
1,note_on,73,50,0
1,note_on,76,59,0
1,note_on,76,0,120
1,note_on,67,0,0
1,note_on,69,0,0
1,note_on,73,0,0
1,note_on,69,67,120
1,note_on,73,67,0
1,note_on,76,67,0
1,note_on,79,67,0
1,note_on,81,79,0
1,note_on,81,0,960
1,note_on,76,0,0
1,note_on,69,0,0
1,note_on,73,0,0
1,note_on,79,0,0
1,note_on,76,75,0
1,note_on,81,79,0
1,note_on,79,75,0
1,note_on,85,90,0
1,note_on,85,0,120
1,note_on,76,0,0
1,note_on,81,0,0
1,note_on,79,0,0
1,note_on,76,69,120
1,note_on,79,69,0
1,note_on,81,69,0
1,note_on,85,81,0
1,note_on,85,0,120
1,note_on,76,0,0
1,note_on,79,0,0
1,note_on,81,0,0
1,note_on,76,72,120
1,note_on,79,72,0
1,note_on,81,72,0
1,note_on,85,84,0
1,note_on,85,0,120
1,note_on,76,0,0
1,note_on,79,0,0
1,note_on,81,0,0
1,note_on,76,75,120
1,note_on,79,75,0
1,note_on,81,75,0
1,note_on,85,87,0
1,note_on,85,0,120
1,note_on,76,0,0
1,note_on,79,0,0
1,note_on,81,0,0
1,note_on,86,105,120
1,note_on,81,89,0
1,note_on,78,89,0
1,note_on,74,89,0
1,note_on,74,0,960
1,note_on,86,0,0
1,note_on,81,0,0
1,note_on,78,0,0
1,note_on,57,54,0
1,note_on,62,63,0
1,note_on,62,0,120
1,note_on,57,0,0
1,note_on,57,49,120
1,note_on,62,59,0
1,note_on,62,0,120
1,note_on,57,0,0
1,note_on,57,54,120
1,note_on,62,63,0
1,note_on,62,0,120
1,note_on,57,0,0
1,note_on,57,49,120
1,note_on,62,58,0
1,note_on,62,0,120
1,note_on,57,0,0
1,note_on,57,60,120
1,note_on,62,70,0
1,note_on,57,0,480
1,note_on,59,51,0
1,note_on,64,61,0
1,note_on,64,0,240
1,note_on,59,0,0
1,note_on,62,0,0
1,note_on,57,61,240
1,note_on,57,0,160
1,note_on,59,55,0
1,note_on,59,0,160
1,note_on,60,55,0
1,note_on,60,0,160
1,note_on,62,61,0
1,note_on,62,0,160
1,note_on,64,56,0
1,note_on,64,0,160
1,note_on,66,56,0
1,note_on,66,0,160
1,note_on,58,61,0
1,note_on,58,0,240
1,note_on,66,52,0
1,note_on,66,0,240
1,note_on,59,61,0
1,note_on,59,0,240
1,note_on,67,55,0
1,note_on,67,0,240
1,note_on,64,54,0
1,note_on,67,54,0
1,note_on,69,63,0
1,note_on,69,0,120
1,note_on,67,0,0
1,note_on,64,0,0
1,note_on,64,49,120
1,note_on,67,49,0
1,note_on,69,59,0
1,note_on,69,0,120
1,note_on,67,0,0
1,note_on,64,0,0
1,note_on,64,54,120
1,note_on,67,54,0
1,note_on,69,63,0
1,note_on,69,0,120
1,note_on,67,0,0
1,note_on,64,0,0
1,note_on,64,49,120
1,note_on,67,49,0
1,note_on,69,58,0
1,note_on,69,0,120
1,note_on,67,0,0
1,note_on,64,0,0
1,note_on,67,60,120
1,note_on,64,60,0
1,note_on,69,70,0
1,note_on,69,0,480
1,note_on,64,0,0
1,note_on,62,51,0
1,note_on,71,61,0
1,note_on,71,0,240
1,note_on,62,0,0
1,note_on,67,0,0
1,note_on,62,61,240
1,note_on,62,0,160
1,note_on,64,55,0
1,note_on,64,0,160
1,note_on,66,55,0
1,note_on,66,0,160
1,note_on,67,61,0
1,note_on,67,0,160
1,note_on,69,56,0
1,note_on,69,0,160
1,note_on,71,56,0
1,note_on,71,0,160
1,note_on,63,61,0
1,note_on,63,0,240
1,note_on,71,52,0
1,note_on,71,0,240
1,note_on,64,61,0
1,note_on,64,0,240
1,note_on,72,55,0
1,note_on,72,0,240
1,note_on,67,54,0
1,note_on,70,54,0
1,note_on,73,63,0
1,note_on,73,0,120
1,note_on,70,0,0
1,note_on,67,0,0
1,note_on,67,49,120
1,note_on,70,49,0
1,note_on,73,59,0
1,note_on,73,0,120
1,note_on,70,0,0
1,note_on,67,0,0
1,note_on,67,54,120
1,note_on,70,54,0
1,note_on,73,63,0
1,note_on,73,0,120
1,note_on,70,0,0
1,note_on,67,0,0
1,note_on,67,49,120
1,note_on,70,49,0
1,note_on,73,58,0
1,note_on,73,0,120
1,note_on,70,0,0
1,note_on,67,0,0
1,note_on,70,60,120
1,note_on,67,60,0
1,note_on,73,70,0
1,note_on,73,0,480
1,note_on,67,0,0
1,note_on,65,51,0
1,note_on,74,61,0
1,note_on,74,0,240
1,note_on,65,0,0
1,note_on,70,0,0
1,note_on,65,61,240
1,note_on,65,0,160
1,note_on,67,55,0
1,note_on,67,0,160
1,note_on,69,55,0
1,note_on,69,0,160
1,note_on,71,61,0
1,note_on,71,0,160
1,note_on,72,56,0
1,note_on,72,0,160
1,note_on,74,56,0
1,note_on,74,0,160
1,note_on,75,61,0
1,note_on,75,0,240
1,note_on,67,50,0
1,note_on,67,0,240
1,note_on,74,61,0
1,note_on,74,0,240
1,note_on,65,51,0
1,note_on,65,0,240
1,note_on,64,45,0
1,note_on,67,45,0
1,note_on,70,45,0
1,note_on,73,53,0
1,note_on,73,0,120
1,note_on,64,0,0
1,note_on,67,0,0
1,note_on,70,0,0
1,note_on,64,41,120
1,note_on,67,41,0
1,note_on,70,41,0
1,note_on,73,50,0
1,note_on,73,0,120
1,note_on,64,0,0
1,note_on,67,0,0
1,note_on,70,0,0
1,note_on,64,45,120
1,note_on,67,45,0
1,note_on,70,45,0
1,note_on,73,53,0
1,note_on,73,0,120
1,note_on,64,0,0
1,note_on,67,0,0
1,note_on,70,0,0
1,note_on,64,41,120
1,note_on,67,41,0
1,note_on,70,41,0
1,note_on,73,49,0
1,note_on,73,0,120
1,note_on,64,0,0
1,note_on,67,0,0
1,note_on,70,0,0
1,note_on,64,51,120
1,note_on,70,51,0
1,note_on,67,51,0
1,note_on,73,59,0
1,note_on,73,0,480
1,note_on,67,0,0
1,note_on,64,0,0
1,note_on,65,43,0
1,note_on,74,51,0
1,note_on,74,0,240
1,note_on,65,0,0
1,note_on,70,0,0
1,note_on,65,51,240
1,note_on,65,0,160
1,note_on,67,46,0
1,note_on,67,0,160
1,note_on,69,46,0
1,note_on,69,0,160
1,note_on,70,51,0
1,note_on,70,0,160
1,note_on,72,47,0
1,note_on,72,0,160
1,note_on,74,47,0
1,note_on,74,0,160
1,note_on,79,51,0
1,note_on,75,43,0
1,note_on,75,0,240
1,note_on,79,0,0
1,note_on,67,44,0
1,note_on,67,0,240
1,note_on,77,51,0
1,note_on,74,43,0
1,note_on,74,0,240
1,note_on,77,0,0
1,note_on,65,46,0
1,note_on,65,0,240
1,note_on,64,40,0
1,note_on,67,40,0
1,note_on,70,40,0
1,note_on,73,53,0
1,note_on,73,0,120
1,note_on,64,0,0
1,note_on,67,0,0
1,note_on,70,0,0
1,note_on,64,37,120
1,note_on,67,37,0
1,note_on,70,37,0
1,note_on,73,50,0
1,note_on,73,0,120
1,note_on,64,0,0
1,note_on,67,0,0
1,note_on,70,0,0
1,note_on,64,40,120
1,note_on,67,40,0
1,note_on,70,40,0
1,note_on,73,53,0
1,note_on,73,0,120
1,note_on,64,0,0
1,note_on,67,0,0
1,note_on,70,0,0
1,note_on,64,37,120
1,note_on,67,37,0
1,note_on,70,37,0
1,note_on,73,49,0
1,note_on,73,0,120
1,note_on,64,0,0
1,note_on,67,0,0
1,note_on,70,0,0
1,note_on,64,51,120
1,note_on,70,51,0
1,note_on,67,51,0
1,note_on,73,59,0
1,note_on,73,0,480
1,note_on,67,0,0
1,note_on,64,0,0
1,note_on,65,43,0
1,note_on,74,51,0
1,note_on,74,0,240
1,note_on,65,0,0
1,note_on,70,0,0
1,note_on,65,52,240
1,note_on,65,0,160
1,note_on,67,52,0
1,note_on,67,0,160
1,note_on,69,53,0
1,note_on,69,0,160
1,note_on,70,54,0
1,note_on,70,0,160
1,note_on,72,55,0
1,note_on,72,0,160
1,note_on,74,55,0
1,note_on,74,0,160
1,note_on,75,61,0
1,note_on,75,0,160
1,note_on,77,52,0
1,note_on,77,0,160
1,note_on,79,52,0
1,note_on,79,0,160
1,note_on,77,61,0
1,note_on,77,0,160
1,note_on,75,53,0
1,note_on,75,0,160
1,note_on,74,53,0
1,note_on,74,0,160
1,note_on,73,57,0
1,note_on,73,0,160
1,note_on,70,47,0
1,note_on,70,0,160
1,note_on,67,47,0
1,note_on,67,0,160
1,note_on,64,49,0
1,note_on,64,0,160
1,note_on,61,47,0
1,note_on,61,0,160
1,note_on,64,48,0
1,note_on,64,0,160
1,note_on,65,50,0
1,note_on,65,0,160
1,note_on,62,45,0
1,note_on,62,0,160
1,note_on,65,45,0
1,note_on,65,0,160
1,note_on,62,50,0
1,note_on,62,0,160
1,note_on,58,45,0
1,note_on,58,0,160
1,note_on,62,45,0
1,note_on,62,0,160
1,note_on,65,45,0
1,note_on,65,0,160
1,note_on,67,47,0
1,note_on,67,0,160
1,note_on,69,49,0
1,note_on,69,0,160
1,note_on,70,51,0
1,note_on,70,0,160
1,note_on,72,53,0
1,note_on,72,0,160
1,note_on,74,55,0
1,note_on,74,0,160
1,note_on,75,57,0
1,note_on,75,0,160
1,note_on,77,59,0
1,note_on,77,0,160
1,note_on,79,61,0
1,note_on,79,0,160
1,note_on,77,63,0
1,note_on,77,0,160
1,note_on,75,58,0
1,note_on,75,0,160
1,note_on,74,61,0
1,note_on,74,0,160
1,note_on,73,57,0
1,note_on,73,0,160
1,note_on,70,55,0
1,note_on,70,0,160
1,note_on,67,53,0
1,note_on,67,0,160
1,note_on,64,51,0
1,note_on,64,0,160
1,note_on,61,47,0
1,note_on,61,0,160
1,note_on,64,43,0
1,note_on,64,0,160
1,note_on,67,59,0
1,note_on,67,0,160
1,note_on,64,43,0
1,note_on,64,0,160
1,note_on,67,43,0
1,note_on,67,0,160
1,note_on,64,44,0
1,note_on,64,0,160
1,note_on,61,45,0
1,note_on,61,0,160
1,note_on,64,45,0
1,note_on,64,0,160
1,note_on,68,62,0
1,note_on,68,0,160
1,note_on,64,46,0
1,note_on,64,0,160
1,note_on,68,47,0
1,note_on,68,0,160
1,note_on,64,47,0
1,note_on,64,0,160
1,note_on,61,48,0
1,note_on,61,0,160
1,note_on,64,48,0
1,note_on,64,0,160
1,note_on,69,65,0
1,note_on,69,0,160
1,note_on,64,49,0
1,note_on,64,0,160
1,note_on,69,50,0
1,note_on,69,0,160
1,note_on,64,50,0
1,note_on,64,0,160
1,note_on,61,51,0
1,note_on,61,0,160
1,note_on,64,52,0
1,note_on,64,0,160
1,note_on,69,68,0
1,note_on,69,0,160
1,note_on,64,52,0
1,note_on,64,0,160
1,note_on,69,53,0
1,note_on,69,0,160
1,note_on,64,54,0
1,note_on,64,0,160
1,note_on,60,54,0
1,note_on,60,0,160
1,note_on,64,55,0
1,note_on,64,0,160
1,note_on,74,74,0
1,note_on,74,0,160
1,note_on,69,59,0
1,note_on,69,0,160
1,note_on,74,60,0
1,note_on,74,0,160
1,note_on,69,61,0
1,note_on,69,0,160
1,note_on,62,62,0
1,note_on,62,0,160
1,note_on,69,63,0
1,note_on,69,0,160
1,note_on,80,82,0
1,note_on,80,0,160
1,note_on,74,67,0
1,note_on,74,0,160
1,note_on,80,69,0
1,note_on,80,0,160
1,note_on,74,70,0
1,note_on,74,0,160
1,note_on,68,72,0
1,note_on,68,0,160
1,note_on,74,74,0
1,note_on,74,0,160
1,note_on,81,105,0
1,note_on,76,89,0
1,note_on,73,89,0
1,note_on,69,89,0
1,note_on,69,0,960
1,note_on,81,0,0
1,note_on,76,0,0
1,note_on,73,0,0
1,note_on,72,54,0
1,note_on,75,63,0
1,note_on,75,0,180
1,note_on,72,0,0
1,note_on,72,49,60
1,note_on,75,59,0
1,note_on,75,0,180
1,note_on,72,0,0
1,note_on,72,54,60
1,note_on,75,63,0
1,note_on,75,0,180
1,note_on,72,0,0
1,note_on,72,49,60
1,note_on,75,58,0
1,note_on,75,0,180
1,note_on,72,0,0
1,note_on,73,60,60
1,note_on,76,70,0
1,note_on,76,0,480
1,note_on,73,0,0
1,note_on,85,49,0
1,note_on,85,0,240
1,note_on,49,64,0
1,note_on,49,0,240
1,note_on,50,66,0
1,note_on,50,0,160
1,note_on,49,62,0
1,note_on,49,0,160
1,note_on,47,64,0
1,note_on,47,0,160
1,note_on,53,65,0
1,note_on,53,0,160
1,note_on,52,60,0
1,note_on,52,0,160
1,note_on,50,49,0
1,note_on,50,0,160
1,note_on,73,56,480
1,note_on,76,56,0
1,note_on,76,0,360
1,note_on,73,0,0
1,note_on,73,49,0
1,note_on,76,49,0
1,note_on,76,0,120
1,note_on,73,0,0
1,note_on,71,55,0
1,note_on,74,55,0
1,note_on,59,55,0
1,note_on,59,0,160
1,note_on,61,56,0
1,note_on,74,0,80
1,note_on,71,0,0
1,note_on,61,0,80
1,note_on,62,54,0
1,note_on,62,0,160
1,note_on,64,57,0
1,note_on,64,0,160
1,note_on,66,60,0
1,note_on,66,0,160
1,note_on,68,62,0
1,note_on,68,0,160
1,note_on,81,94,0
1,note_on,76,80,0
1,note_on,73,80,0
1,note_on,69,80,0
1,note_on,69,0,960
1,note_on,81,0,0
1,note_on,76,0,0
1,note_on,73,0,0
1,note_on,72,54,0
1,note_on,75,63,0
1,note_on,75,0,330
1,note_on,72,0,0
1,note_on,72,49,30
1,note_on,75,59,0
1,note_on,75,0,90
1,note_on,72,0,0
1,note_on,72,54,30
1,note_on,75,63,0
1,note_on,75,0,330
1,note_on,72,0,0
1,note_on,72,49,30
1,note_on,75,58,0
1,note_on,75,0,90
1,note_on,72,0,0
1,note_on,73,60,30
1,note_on,76,70,0
1,note_on,76,0,480
1,note_on,73,0,0
1,note_on,85,49,0
1,note_on,85,0,240
1,note_on,49,64,0
1,note_on,49,0,240
1,note_on,50,66,0
1,note_on,50,0,160
1,note_on,49,62,0
1,note_on,49,0,160
1,note_on,47,64,0
1,note_on,47,0,160
1,note_on,53,65,0
1,note_on,53,0,160
1,note_on,52,60,0
1,note_on,52,0,160
1,note_on,50,49,0
1,note_on,50,0,160
1,note_on,73,56,480
1,note_on,76,56,0
1,note_on,76,0,360
1,note_on,73,0,0
1,note_on,73,49,0
1,note_on,76,49,0
1,note_on,76,0,120
1,note_on,73,0,0
1,note_on,71,55,0
1,note_on,74,55,0
1,note_on,59,55,0
1,note_on,59,0,160
1,note_on,61,56,0
1,note_on,74,0,80
1,note_on,71,0,0
1,note_on,61,0,80
1,note_on,62,54,0
1,note_on,62,0,160
1,note_on,64,57,0
1,note_on,64,0,160
1,note_on,66,60,0
1,note_on,66,0,160
1,note_on,68,62,0
1,note_on,68,0,160
1,note_on,69,57,0
1,note_on,69,0,160
1,note_on,71,61,0
1,note_on,71,0,160
1,note_on,73,62,0
1,note_on,73,0,160
1,note_on,74,63,0
1,note_on,74,0,160
1,note_on,76,64,0
1,note_on,76,0,160
1,note_on,78,65,0
1,note_on,78,0,160
1,note_on,80,66,0
1,note_on,80,0,160
1,note_on,81,67,0
1,note_on,81,0,160
1,note_on,83,68,0
1,note_on,83,0,160
1,note_on,85,69,0
1,note_on,85,0,160
1,note_on,86,70,0
1,note_on,86,0,160
1,note_on,88,71,0
1,note_on,88,0,160
1,note_on,86,71,0
1,note_on,86,0,160
1,note_on,85,68,0
1,note_on,85,0,160
1,note_on,83,65,0
1,note_on,83,0,160
1,note_on,81,63,0
1,note_on,81,0,160
1,note_on,80,60,0
1,note_on,80,0,160
1,note_on,78,58,0
1,note_on,78,0,160
1,note_on,76,55,0
1,note_on,76,0,160
1,note_on,74,53,0
1,note_on,74,0,160
1,note_on,73,50,0
1,note_on,73,0,160
1,note_on,71,48,0
1,note_on,71,0,160
1,note_on,69,45,0
1,note_on,69,0,160
1,note_on,68,43,0
1,note_on,68,0,160
1,note_on,69,50,0
1,note_on,69,0,480
1,note_on,61,39,0
1,note_on,61,0,120
1,note_on,71,49,360
1,note_on,71,0,480
1,note_on,64,39,0
1,note_on,64,0,120
1,note_on,64,40,300
1,note_on,64,0,60
1,note_on,73,49,0
1,note_on,73,0,480
1,note_on,69,39,0
1,note_on,69,0,120
1,note_on,69,40,300
1,note_on,69,0,60
1,note_on,78,55,0
1,note_on,78,0,360
1,note_on,75,45,0
1,note_on,75,0,120
1,note_on,78,53,0
1,note_on,78,0,360
1,note_on,75,46,0
1,note_on,75,0,120
1,note_on,76,50,7
1,note_on,64,39,473
1,note_on,76,0,7
1,note_on,64,0,113
1,note_on,64,40,300
1,note_on,64,0,60
1,note_on,74,49,0
1,note_on,74,0,480
1,note_on,71,39,0
1,note_on,71,0,120
1,note_on,71,40,300
1,note_on,71,0,60
1,note_on,73,49,0
1,note_on,73,0,480
1,note_on,64,39,0
1,note_on,64,0,120
1,note_on,64,40,300
1,note_on,64,0,60
1,note_on,71,55,0
1,note_on,71,0,360
1,note_on,68,45,0
1,note_on,68,0,120
1,note_on,71,53,0
1,note_on,71,0,360
1,note_on,68,46,0
1,note_on,68,0,120
1,note_on,69,50,0
1,note_on,69,0,160
1,note_on,64,44,0
1,note_on,64,0,160
1,note_on,69,38,0
1,note_on,69,0,160
1,note_on,61,39,0
1,note_on,61,0,120
1,note_on,71,50,360
1,note_on,71,0,160
1,note_on,68,44,0
1,note_on,68,0,160
1,note_on,71,38,0
1,note_on,71,0,160
1,note_on,64,39,0
1,note_on,64,0,120
1,note_on,73,50,360
1,note_on,73,0,160
1,note_on,71,44,0
1,note_on,71,0,160
1,note_on,73,38,0
1,note_on,73,0,160
1,note_on,69,39,0
1,note_on,69,0,120
1,note_on,78,55,360
1,note_on,78,0,160
1,note_on,75,47,0
1,note_on,75,0,160
1,note_on,78,47,0
1,note_on,78,0,160
1,note_on,81,55,0
1,note_on,81,0,160
1,note_on,78,47,0
1,note_on,78,0,160
1,note_on,75,47,0
1,note_on,75,0,160
1,note_on,76,50,0
1,note_on,76,0,160
1,note_on,73,44,0
1,note_on,73,0,160
1,note_on,76,38,0
1,note_on,76,0,160
1,note_on,64,39,0
1,note_on,64,0,120
1,note_on,74,50,360
1,note_on,74,0,160
1,note_on,73,44,0
1,note_on,73,0,160
1,note_on,74,38,0
1,note_on,74,0,160
1,note_on,71,39,0
1,note_on,71,0,120
1,note_on,73,50,360
1,note_on,73,0,160
1,note_on,69,44,0
1,note_on,69,0,160
1,note_on,73,38,0
1,note_on,73,0,160
1,note_on,64,39,0
1,note_on,64,0,120
1,note_on,71,55,360
1,note_on,71,0,360
1,note_on,68,45,0
1,note_on,68,0,120
1,note_on,71,53,0
1,note_on,71,0,360
1,note_on,68,46,0
1,note_on,68,0,120
1,note_on,71,78,0
1,note_on,71,0,160
1,note_on,62,62,0
1,note_on,62,0,160
1,note_on,71,62,0
1,note_on,71,0,160
1,note_on,55,78,0
1,note_on,55,0,840
1,note_on,71,59,0
1,note_on,62,59,0
1,note_on,62,0,120
1,note_on,71,0,0
1,note_on,55,78,0
1,note_on,55,0,360
1,note_on,62,62,0
1,note_on,62,0,120
1,note_on,71,75,0
1,note_on,71,0,160
1,note_on,62,56,0
1,note_on,62,0,160
1,note_on,71,56,0
1,note_on,71,0,160
1,note_on,55,74,0
1,note_on,55,0,840
1,note_on,71,59,0
1,note_on,62,59,0
1,note_on,62,0,120
1,note_on,71,0,0
1,note_on,55,74,0
1,note_on,55,0,840
1,note_on,62,52,0
1,note_on,71,62,0
1,note_on,71,0,120
1,note_on,62,0,0
1,note_on,55,74,0
1,note_on,55,0,840
1,note_on,62,52,0
1,note_on,71,62,0
1,note_on,71,0,120
1,note_on,62,0,0
1,note_on,55,74,0
1,note_on,55,0,360
1,note_on,71,62,0
1,note_on,62,52,0
1,note_on,62,0,120
1,note_on,71,0,0
1,note_on,72,79,0
1,note_on,72,0,160
1,note_on,64,62,0
1,note_on,64,0,160
1,note_on,72,62,0
1,note_on,72,0,160
1,note_on,76,81,0
1,note_on,76,0,840
1,note_on,64,59,0
1,note_on,64,0,120
1,note_on,72,62,0
1,note_on,76,74,0
1,note_on,76,0,360
1,note_on,72,0,0
1,note_on,64,62,0
1,note_on,64,0,120
1,note_on,72,71,0
1,note_on,72,0,160
1,note_on,64,56,0
1,note_on,64,0,160
1,note_on,72,56,0
1,note_on,72,0,160
1,note_on,76,74,0
1,note_on,76,0,840
1,note_on,64,59,0
1,note_on,64,0,120
1,note_on,72,74,0
1,note_on,76,74,0
1,note_on,76,0,840
1,note_on,72,0,0
1,note_on,64,62,0
1,note_on,64,0,120
1,note_on,72,74,0
1,note_on,76,80,0
1,note_on,76,0,840
1,note_on,72,0,0
1,note_on,64,53,0
1,note_on,64,0,120
1,note_on,68,57,0
1,note_on,74,57,0
1,note_on,76,63,0
1,note_on,76,0,840
1,note_on,74,0,0
1,note_on,68,0,0
1,note_on,64,42,0
1,note_on,64,0,120
1,note_on,68,44,0
1,note_on,74,44,0
1,note_on,76,53,0
1,note_on,76,0,360
1,note_on,74,0,0
1,note_on,68,0,0
1,note_on,64,42,0
1,note_on,64,0,120
1,note_on,68,41,0
1,note_on,74,41,0
1,note_on,76,48,0
1,note_on,76,0,360
1,note_on,74,0,0
1,note_on,68,0,0
1,note_on,64,39,0
1,note_on,64,0,120
1,note_on,68,37,0
1,note_on,74,37,0
1,note_on,76,44,0
1,note_on,76,0,360
1,note_on,74,0,0
1,note_on,68,0,0
1,note_on,64,35,0
1,note_on,64,0,120
1,note_on,69,42,0
1,note_on,73,42,0
1,note_on,76,50,0
1,note_on,76,0,120
1,note_on,73,0,0
1,note_on,69,0,0
1,note_on,64,39,40
1,note_on,64,0,160
1,note_on,69,41,0
1,note_on,69,0,160
1,note_on,73,42,0
1,note_on,73,0,160
1,note_on,76,44,0
1,note_on,76,0,160
1,note_on,81,45,0
1,note_on,81,0,160
1,note_on,76,47,0
1,note_on,76,0,160
1,note_on,69,45,0
1,note_on,69,0,160
1,note_on,73,49,0
1,note_on,73,0,160
1,note_on,76,52,0
1,note_on,76,0,160
1,note_on,81,52,0
1,note_on,81,0,160
1,note_on,85,47,0
1,note_on,85,0,160
1,note_on,76,52,0
1,note_on,76,0,160
1,note_on,78,45,0
1,note_on,78,0,160
1,note_on,76,45,0
1,note_on,76,0,160
1,note_on,74,52,0
1,note_on,74,0,160
1,note_on,78,47,0
1,note_on,78,0,160
1,note_on,74,47,0
1,note_on,74,0,160
1,note_on,73,53,0
1,note_on,73,0,160
1,note_on,76,47,0
1,note_on,76,0,160
1,note_on,73,47,0
1,note_on,73,0,160
1,note_on,71,52,0
1,note_on,71,0,160
1,note_on,74,47,0
1,note_on,74,0,160
1,note_on,71,47,0
1,note_on,71,0,160
1,note_on,69,50,0
1,note_on,69,0,160
1,note_on,64,39,0
1,note_on,64,0,160
1,note_on,69,41,0
1,note_on,69,0,160
1,note_on,73,42,0
1,note_on,73,0,160
1,note_on,76,44,0
1,note_on,76,0,160
1,note_on,81,45,0
1,note_on,81,0,160
1,note_on,76,47,0
1,note_on,76,0,160
1,note_on,69,45,0
1,note_on,69,0,160
1,note_on,73,49,0
1,note_on,73,0,160
1,note_on,76,52,0
1,note_on,76,0,160
1,note_on,81,52,0
1,note_on,81,0,160
1,note_on,85,47,0
1,note_on,85,0,160
1,note_on,76,52,0
1,note_on,76,0,160
1,note_on,78,45,0
1,note_on,78,0,160
1,note_on,76,45,0
1,note_on,76,0,160
1,note_on,74,52,0
1,note_on,74,0,160
1,note_on,76,47,0
1,note_on,76,0,160
1,note_on,74,47,0
1,note_on,74,0,160
1,note_on,73,53,0
1,note_on,73,0,160
1,note_on,74,47,0
1,note_on,74,0,160
1,note_on,73,47,0
1,note_on,73,0,160
1,note_on,71,52,0
1,note_on,71,0,160
1,note_on,73,47,0
1,note_on,73,0,160
1,note_on,71,47,0
1,note_on,71,0,160
1,note_on,61,42,0
1,note_on,61,0,160
1,note_on,64,37,0
1,note_on,64,0,160
1,note_on,61,37,0
1,note_on,61,0,160
1,note_on,64,43,0
1,note_on,64,0,160
1,note_on,69,36,0
1,note_on,69,0,160
1,note_on,64,37,0
1,note_on,64,0,140
1,note_on,64,43,20
1,note_on,64,0,160
1,note_on,68,37,0
1,note_on,68,0,160
1,note_on,64,38,0
1,note_on,64,0,160
1,note_on,68,43,0
1,note_on,68,0,160
1,note_on,71,39,0
1,note_on,71,0,160
1,note_on,68,39,0
1,note_on,68,0,160
1,note_on,64,43,0
1,note_on,64,0,160
1,note_on,69,38,0
1,note_on,69,0,160
1,note_on,64,38,0
1,note_on,64,0,160
1,note_on,69,43,0
1,note_on,69,0,160
1,note_on,73,38,0
1,note_on,73,0,160
1,note_on,69,38,0
1,note_on,69,0,140
1,note_on,69,43,20
1,note_on,69,0,160
1,note_on,72,37,0
1,note_on,72,0,160
1,note_on,69,37,0
1,note_on,69,0,160
1,note_on,72,43,0
1,note_on,72,0,160
1,note_on,75,37,0
1,note_on,75,0,160
1,note_on,72,37,0
1,note_on,72,0,160
1,note_on,69,42,0
1,note_on,69,0,160
1,note_on,73,37,0
1,note_on,73,0,160
1,note_on,69,37,0
1,note_on,69,0,160
1,note_on,73,43,0
1,note_on,73,0,160
1,note_on,76,36,0
1,note_on,76,0,160
1,note_on,73,37,0
1,note_on,73,0,140
1,note_on,64,43,20
1,note_on,64,0,160
1,note_on,71,37,0
1,note_on,71,0,160
1,note_on,64,38,0
1,note_on,64,0,160
1,note_on,71,43,0
1,note_on,71,0,160
1,note_on,74,39,0
1,note_on,74,0,160
1,note_on,71,39,0
1,note_on,71,0,160
1,note_on,64,43,0
1,note_on,64,0,160
1,note_on,69,38,0
1,note_on,69,0,160
1,note_on,64,38,0
1,note_on,64,0,160
1,note_on,69,43,0
1,note_on,69,0,160
1,note_on,73,38,0
1,note_on,73,0,160
1,note_on,69,38,0
1,note_on,69,0,140
1,note_on,64,43,20
1,note_on,64,0,160
1,note_on,68,37,0
1,note_on,68,0,160
1,note_on,64,37,0
1,note_on,64,0,160
1,note_on,68,43,0
1,note_on,68,0,160
1,note_on,71,37,0
1,note_on,71,0,160
1,note_on,68,37,0
1,note_on,68,0,160
1,note_on,73,44,0
1,note_on,73,0,160
1,note_on,76,39,0
1,note_on,76,0,160
1,note_on,73,39,0
1,note_on,73,0,160
1,note_on,76,46,0
1,note_on,76,0,160
1,note_on,81,39,0
1,note_on,81,0,160
1,note_on,76,40,0
1,note_on,76,0,140
1,note_on,76,47,20
1,note_on,76,0,160
1,note_on,80,41,0
1,note_on,80,0,160
1,note_on,76,42,0
1,note_on,76,0,160
1,note_on,80,49,0
1,note_on,80,0,160
1,note_on,83,44,0
1,note_on,83,0,160
1,note_on,80,45,0
1,note_on,80,0,160
1,note_on,76,50,0
1,note_on,76,0,160
1,note_on,81,44,0
1,note_on,81,0,160
1,note_on,76,45,0
1,note_on,76,0,160
1,note_on,81,51,0
1,note_on,81,0,160
1,note_on,85,45,0
1,note_on,85,0,160
1,note_on,81,46,0
1,note_on,81,0,140
1,note_on,81,52,20
1,note_on,81,0,160
1,note_on,84,45,0
1,note_on,84,0,160
1,note_on,81,46,0
1,note_on,81,0,160
1,note_on,84,54,0
1,note_on,84,0,160
1,note_on,87,46,0
1,note_on,87,0,160
1,note_on,84,47,0
1,note_on,84,0,160
1,note_on,81,55,0
1,note_on,81,0,160
1,note_on,84,49,0
1,note_on,84,0,160
1,note_on,81,49,0
1,note_on,81,0,160
1,note_on,84,55,0
1,note_on,84,0,160
1,note_on,87,49,0
1,note_on,87,0,160
1,note_on,84,49,0
1,note_on,84,0,140
1,note_on,81,43,20
1,note_on,81,0,160
1,note_on,84,37,0
1,note_on,84,0,160
1,note_on,81,37,0
1,note_on,81,0,160
1,note_on,84,43,0
1,note_on,84,0,160
1,note_on,87,37,0
1,note_on,87,0,160
1,note_on,84,37,0
1,note_on,84,0,160
1,note_on,81,43,0
1,note_on,81,0,160
1,note_on,84,38,0
1,note_on,84,0,160
1,note_on,81,38,0
1,note_on,81,0,160
1,note_on,84,43,0
1,note_on,84,0,160
1,note_on,87,38,0
1,note_on,87,0,160
1,note_on,84,38,0
1,note_on,84,0,140
1,note_on,81,43,20
1,note_on,81,0,160
1,note_on,84,37,0
1,note_on,84,0,160
1,note_on,81,37,0
1,note_on,81,0,160
1,note_on,84,43,0
1,note_on,84,0,160
1,note_on,89,37,0
1,note_on,89,0,160
1,note_on,84,37,0
1,note_on,84,0,160
1,note_on,81,43,0
1,note_on,81,0,160
1,note_on,84,38,0
1,note_on,84,0,160
1,note_on,81,38,0
1,note_on,81,0,160
1,note_on,84,43,0
1,note_on,84,0,160
1,note_on,89,38,0
1,note_on,89,0,160
1,note_on,84,38,0
1,note_on,84,0,140
1,note_on,81,43,20
1,note_on,81,0,160
1,note_on,84,37,0
1,note_on,84,0,160
1,note_on,81,36,0
1,note_on,81,0,160
1,note_on,84,42,0
1,note_on,84,0,160
1,note_on,89,36,0
1,note_on,89,0,160
1,note_on,84,36,0
1,note_on,84,0,160
1,note_on,82,41,0
1,note_on,82,0,160
1,note_on,86,36,0
1,note_on,86,0,160
1,note_on,82,36,0
1,note_on,82,0,160
1,note_on,86,40,0
1,note_on,86,0,160
1,note_on,89,36,0
1,note_on,89,0,160
1,note_on,86,35,0
1,note_on,86,0,140
1,note_on,80,39,20
1,note_on,80,0,160
1,note_on,83,34,0
1,note_on,83,0,160
1,note_on,80,34,0
1,note_on,80,0,160
1,note_on,83,39,0
1,note_on,83,0,160
1,note_on,88,33,0
1,note_on,88,0,160
1,note_on,83,33,0
1,note_on,83,0,160
1,note_on,81,38,0
1,note_on,81,0,160
1,note_on,85,33,0
1,note_on,85,0,160
1,note_on,81,33,0
1,note_on,81,0,160
1,note_on,85,37,0
1,note_on,85,0,160
1,note_on,88,33,0
1,note_on,88,0,160
1,note_on,85,33,0
1,note_on,85,0,140
1,note_on,74,36,20
1,note_on,74,0,160
1,note_on,81,31,0
1,note_on,81,0,160
1,note_on,74,31,0
1,note_on,74,0,150
1,note_on,81,36,10
1,note_on,81,0,160
1,note_on,86,31,0
1,note_on,86,0,160
1,note_on,81,30,0
1,note_on,81,0,160
1,note_on,76,35,0
1,note_on,76,0,160
1,note_on,81,31,0
1,note_on,81,0,160
1,note_on,76,30,0
1,note_on,76,0,160
1,note_on,81,34,0
1,note_on,81,0,160
1,note_on,85,30,0
1,note_on,85,0,160
1,note_on,81,30,0
1,note_on,81,0,140
1,note_on,76,33,20
1,note_on,76,0,160
1,note_on,83,28,0
1,note_on,83,0,160
1,note_on,80,28,0
1,note_on,80,0,150
1,note_on,76,33,10
1,note_on,76,0,160
1,note_on,74,28,0
1,note_on,74,0,160
1,note_on,71,28,0
1,note_on,71,0,160
1,note_on,67,87,0
1,note_on,67,0,160
1,note_on,69,55,0
1,note_on,69,0,160
1,note_on,67,55,0
1,note_on,67,0,160
1,note_on,64,61,0
1,note_on,64,0,160
1,note_on,61,55,0
1,note_on,61,0,160
1,note_on,57,55,0
1,note_on,57,0,160
1,note_on,55,75,0
1,note_on,55,0,160
1,note_on,57,48,0
1,note_on,57,0,160
1,note_on,55,48,0
1,note_on,55,0,160
1,note_on,57,54,0
1,note_on,57,0,160
1,note_on,55,50,0
1,note_on,55,0,160
1,note_on,57,50,0
1,note_on,57,0,160
1,note_on,65,84,0
1,note_on,65,0,160
1,note_on,69,55,0
1,note_on,69,0,160
1,note_on,65,55,0
1,note_on,65,0,160
1,note_on,60,61,0
1,note_on,60,0,160
1,note_on,57,55,0
1,note_on,57,0,160
1,note_on,53,55,0
1,note_on,53,0,160
1,note_on,57,77,0
1,note_on,57,0,160
1,note_on,53,48,0
1,note_on,53,0,160
1,note_on,57,48,0
1,note_on,57,0,160
1,note_on,53,54,0
1,note_on,53,0,160
1,note_on,57,50,0
1,note_on,57,0,160
1,note_on,53,50,0
1,note_on,53,0,160
1,note_on,67,88,0
1,note_on,67,0,160
1,note_on,69,55,0
1,note_on,69,0,160
1,note_on,67,55,0
1,note_on,67,0,160
1,note_on,64,61,0
1,note_on,64,0,160
1,note_on,61,55,0
1,note_on,61,0,160
1,note_on,57,55,0
1,note_on,57,0,160
1,note_on,55,75,0
1,note_on,55,0,160
1,note_on,57,48,0
1,note_on,57,0,160
1,note_on,55,48,0
1,note_on,55,0,160
1,note_on,57,54,0
1,note_on,57,0,160
1,note_on,55,50,0
1,note_on,55,0,160
1,note_on,57,50,0
1,note_on,57,0,160
1,note_on,65,87,0
1,note_on,65,0,160
1,note_on,69,55,0
1,note_on,69,0,160
1,note_on,65,55,0
1,note_on,65,0,160
1,note_on,60,61,0
1,note_on,60,0,160
1,note_on,57,55,0
1,note_on,57,0,160
1,note_on,53,55,0
1,note_on,53,0,160
1,note_on,57,77,0
1,note_on,57,0,160
1,note_on,53,48,0
1,note_on,53,0,160
1,note_on,57,48,0
1,note_on,57,0,160
1,note_on,53,54,0
1,note_on,53,0,160
1,note_on,57,50,0
1,note_on,57,0,160
1,note_on,53,50,0
1,note_on,53,0,160
1,note_on,73,44,480
1,note_on,76,44,0
1,note_on,76,0,360
1,note_on,73,0,0
1,note_on,73,39,0
1,note_on,76,39,0
1,note_on,76,0,120
1,note_on,73,0,0
1,note_on,71,44,0
1,note_on,74,44,0
1,note_on,62,44,0
1,note_on,62,0,160
1,note_on,64,44,0
1,note_on,74,0,80
1,note_on,71,0,0
1,note_on,64,0,80
1,note_on,66,43,0
1,note_on,66,0,160
1,note_on,68,45,0
1,note_on,68,0,160
1,note_on,69,48,0
1,note_on,69,0,160
1,note_on,71,49,0
1,note_on,71,0,160
1,note_on,73,45,0
1,note_on,73,0,160
1,note_on,74,48,0
1,note_on,74,0,160
1,note_on,76,48,0
1,note_on,76,0,156
1,note_on,78,50,4
1,note_on,78,0,160
1,note_on,80,52,0
1,note_on,80,0,160
1,note_on,81,52,0
1,note_on,81,0,160
1,note_on,83,54,0
1,note_on,83,0,160
1,note_on,85,56,0
1,note_on,85,0,160
1,note_on,86,56,0
1,note_on,86,0,160
1,note_on,88,58,0
1,note_on,88,0,160
1,note_on,90,60,0
1,note_on,90,0,160
1,note_on,92,60,0
1,note_on,92,0,160
1,note_on,93,62,0
1,note_on,93,0,160
1,note_on,92,62,0
1,note_on,92,0,160
1,note_on,90,60,0
1,note_on,90,0,160
1,note_on,88,60,0
1,note_on,88,0,160
1,note_on,86,58,0
1,note_on,86,0,160
1,note_on,85,56,0
1,note_on,85,0,160
1,note_on,83,55,0
1,note_on,83,0,160
1,note_on,81,54,0
1,note_on,81,0,160
1,note_on,80,52,0
1,note_on,80,0,160
1,note_on,78,51,0
1,note_on,78,0,160
1,note_on,76,50,0
1,note_on,76,0,160
1,note_on,74,48,0
1,note_on,74,0,160
1,note_on,73,46,0
1,note_on,73,0,160
1,note_on,71,45,0
1,note_on,71,0,160
1,note_on,69,44,0
1,note_on,69,0,160
1,note_on,68,43,0
1,note_on,68,0,160
1,note_on,66,41,0
1,note_on,66,0,160
1,note_on,64,40,0
1,note_on,64,0,160
1,note_on,62,40,0
1,note_on,62,0,160
1,note_on,66,39,0
1,note_on,66,0,160
1,note_on,64,37,0
1,note_on,64,0,160
1,note_on,62,35,0
1,note_on,62,0,160
1,note_on,61,33,0
1,note_on,61,0,160
1,note_on,59,31,0
1,note_on,59,0,160
1,note_on,67,87,0
1,note_on,67,0,160
1,note_on,69,55,0
1,note_on,69,0,160
1,note_on,67,55,0
1,note_on,67,0,160
1,note_on,64,61,0
1,note_on,64,0,160
1,note_on,61,55,0
1,note_on,61,0,160
1,note_on,57,55,0
1,note_on,57,0,160
1,note_on,55,75,0
1,note_on,55,0,160
1,note_on,57,48,0
1,note_on,57,0,160
1,note_on,55,48,0
1,note_on,55,0,160
1,note_on,57,54,0
1,note_on,57,0,160
1,note_on,55,50,0
1,note_on,55,0,160
1,note_on,57,50,0
1,note_on,57,0,160
1,note_on,65,84,0
1,note_on,65,0,160
1,note_on,69,55,0
1,note_on,69,0,160
1,note_on,65,55,0
1,note_on,65,0,160
1,note_on,60,61,0
1,note_on,60,0,160
1,note_on,57,55,0
1,note_on,57,0,160
1,note_on,53,55,0
1,note_on,53,0,160
1,note_on,57,77,0
1,note_on,57,0,160
1,note_on,53,48,0
1,note_on,53,0,160
1,note_on,57,48,0
1,note_on,57,0,160
1,note_on,53,54,0
1,note_on,53,0,160
1,note_on,57,50,0
1,note_on,57,0,160
1,note_on,53,50,0
1,note_on,53,0,160
1,note_on,65,84,0
1,note_on,65,0,160
1,note_on,67,55,0
1,note_on,67,0,160
1,note_on,65,55,0
1,note_on,65,0,160
1,note_on,62,61,0
1,note_on,62,0,160
1,note_on,59,55,0
1,note_on,59,0,160
1,note_on,55,55,0
1,note_on,55,0,160
1,note_on,53,77,0
1,note_on,53,0,160
1,note_on,55,48,0
1,note_on,55,0,160
1,note_on,53,48,0
1,note_on,53,0,160
1,note_on,55,54,0
1,note_on,55,0,160
1,note_on,53,50,0
1,note_on,53,0,160
1,note_on,55,50,0
1,note_on,55,0,160
1,note_on,63,84,0
1,note_on,63,0,160
1,note_on,67,55,0
1,note_on,67,0,160
1,note_on,63,55,0
1,note_on,63,0,160
1,note_on,58,61,0
1,note_on,58,0,160
1,note_on,55,55,0
1,note_on,55,0,160
1,note_on,51,55,0
1,note_on,51,0,160
1,note_on,55,77,0
1,note_on,55,0,160
1,note_on,51,48,0
1,note_on,51,0,160
1,note_on,55,48,0
1,note_on,55,0,160
1,note_on,51,54,0
1,note_on,51,0,160
1,note_on,55,50,0
1,note_on,55,0,160
1,note_on,51,50,0
1,note_on,51,0,160
1,note_on,63,84,0
1,note_on,63,0,160
1,note_on,65,55,0
1,note_on,65,0,160
1,note_on,63,55,0
1,note_on,63,0,160
1,note_on,60,61,0
1,note_on,60,0,160
1,note_on,57,55,0
1,note_on,57,0,160
1,note_on,53,55,0
1,note_on,53,0,160
1,note_on,61,84,0
1,note_on,61,0,160
1,note_on,65,55,0
1,note_on,65,0,160
1,note_on,61,55,0
1,note_on,61,0,160
1,note_on,56,61,0
1,note_on,56,0,160
1,note_on,53,55,0
1,note_on,53,0,160
1,note_on,49,55,0
1,note_on,49,0,160
1,note_on,62,84,0
1,note_on,62,0,160
1,note_on,64,55,0
1,note_on,64,0,160
1,note_on,62,55,0
1,note_on,62,0,160
1,note_on,59,61,0
1,note_on,59,0,160
1,note_on,56,55,0
1,note_on,56,0,160
1,note_on,52,55,0
1,note_on,52,0,160
1,note_on,60,84,0
1,note_on,60,0,160
1,note_on,64,55,0
1,note_on,64,0,160
1,note_on,60,55,0
1,note_on,60,0,160
1,note_on,55,61,0
1,note_on,55,0,160
1,note_on,52,55,0
1,note_on,52,0,160
1,note_on,48,55,0
1,note_on,48,0,160
1,note_on,53,84,0
1,note_on,53,0,160
1,note_on,57,55,0
1,note_on,57,0,160
1,note_on,53,55,0
1,note_on,53,0,160
1,note_on,48,61,0
1,note_on,48,0,160
1,note_on,45,55,0
1,note_on,45,0,160
1,note_on,41,55,0
1,note_on,41,0,160
1,note_on,45,69,0
1,note_on,45,0,160
1,note_on,41,43,0
1,note_on,41,0,160
1,note_on,45,43,0
1,note_on,45,0,160
1,note_on,41,48,0
1,note_on,41,0,160
1,note_on,45,45,0
1,note_on,45,0,160
1,note_on,41,45,0
1,note_on,41,0,160
1,note_on,57,56,0
1,note_on,57,0,160
1,note_on,53,39,0
1,note_on,53,0,160
1,note_on,57,39,0
1,note_on,57,0,160
1,note_on,53,42,0
1,note_on,53,0,160
1,note_on,57,39,0
1,note_on,57,0,160
1,note_on,53,38,0
1,note_on,53,0,160
1,note_on,57,46,0
1,note_on,57,0,160
1,note_on,53,34,0
1,note_on,53,0,160
1,note_on,57,33,0
1,note_on,57,0,160
1,note_on,53,36,0
1,note_on,53,0,160
1,note_on,57,33,0
1,note_on,57,0,160
1,note_on,53,32,0
1,note_on,53,0,160
1,note_on,73,44,480
1,note_on,76,44,0
1,note_on,76,0,360
1,note_on,73,0,0
1,note_on,73,39,0
1,note_on,76,39,0
1,note_on,76,0,120
1,note_on,73,0,0
1,note_on,71,44,0
1,note_on,74,44,0
1,note_on,62,44,0
1,note_on,62,0,160
1,note_on,64,44,0
1,note_on,74,0,80
1,note_on,71,0,0
1,note_on,64,0,80
1,note_on,66,43,0
1,note_on,66,0,160
1,note_on,68,45,0
1,note_on,68,0,160
1,note_on,69,48,0
1,note_on,69,0,160
1,note_on,71,49,0
1,note_on,71,0,160
1,note_on,73,45,0
1,note_on,73,0,160
1,note_on,74,48,0
1,note_on,74,0,160
1,note_on,76,48,0
1,note_on,76,0,156
1,note_on,78,50,4
1,note_on,78,0,160
1,note_on,80,52,0
1,note_on,80,0,160
1,note_on,81,52,0
1,note_on,81,0,160
1,note_on,83,54,0
1,note_on,83,0,160
1,note_on,85,56,0
1,note_on,85,0,160
1,note_on,86,56,0
1,note_on,86,0,160
1,note_on,88,58,0
1,note_on,88,0,160
1,note_on,90,60,0
1,note_on,90,0,160
1,note_on,92,60,0
1,note_on,92,0,160
1,note_on,93,62,0
1,note_on,93,0,160
1,note_on,92,62,0
1,note_on,92,0,160
1,note_on,90,60,0
1,note_on,90,0,160
1,note_on,88,60,0
1,note_on,88,0,160
1,note_on,86,58,0
1,note_on,86,0,160
1,note_on,85,56,0
1,note_on,85,0,160
1,note_on,83,55,0
1,note_on,83,0,160
1,note_on,81,54,0
1,note_on,81,0,160
1,note_on,80,52,0
1,note_on,80,0,160
1,note_on,78,51,0
1,note_on,78,0,160
1,note_on,76,50,0
1,note_on,76,0,160
1,note_on,74,48,0
1,note_on,74,0,160
1,note_on,73,46,0
1,note_on,73,0,160
1,note_on,71,45,0
1,note_on,71,0,160
1,note_on,69,44,0
1,note_on,69,0,160
1,note_on,68,43,0
1,note_on,68,0,160
1,note_on,66,41,0
1,note_on,66,0,160
1,note_on,64,40,0
1,note_on,64,0,160
1,note_on,62,40,0
1,note_on,62,0,160
1,note_on,66,39,0
1,note_on,66,0,160
1,note_on,64,37,0
1,note_on,64,0,160
1,note_on,62,35,0
1,note_on,62,0,160
1,note_on,61,33,0
1,note_on,61,0,160
1,note_on,59,31,0
1,note_on,59,0,160
1,note_on,57,39,0
1,note_on,57,0,160
1,note_on,61,34,0
1,note_on,61,0,160
1,note_on,57,34,0
1,note_on,57,0,160
1,note_on,61,39,0
1,note_on,61,0,160
1,note_on,69,34,0
1,note_on,69,0,160
1,note_on,61,34,0
1,note_on,61,0,160
1,note_on,57,39,0
1,note_on,57,0,160
1,note_on,61,34,0
1,note_on,61,0,160
1,note_on,57,34,0
1,note_on,57,0,160
1,note_on,61,39,0
1,note_on,61,0,160
1,note_on,69,34,0
1,note_on,69,0,160
1,note_on,61,34,0
1,note_on,61,0,150
1,note_on,61,39,10
1,note_on,61,0,160
1,note_on,69,34,0
1,note_on,69,0,160
1,note_on,61,34,0
1,note_on,61,0,160
1,note_on,69,40,0
1,note_on,69,0,160
1,note_on,73,35,0
1,note_on,73,0,160
1,note_on,69,35,0
1,note_on,69,0,160
1,note_on,61,45,0
1,note_on,61,0,160
1,note_on,69,39,0
1,note_on,69,0,160
1,note_on,61,40,0
1,note_on,61,0,160
1,note_on,69,48,0
1,note_on,69,0,160
1,note_on,73,43,0
1,note_on,73,0,160
1,note_on,69,43,0
1,note_on,69,0,160
1,note_on,64,52,0
1,note_on,64,0,160
1,note_on,73,46,0
1,note_on,73,0,160
1,note_on,64,46,0
1,note_on,64,0,160
1,note_on,73,55,0
1,note_on,73,0,160
1,note_on,76,47,0
1,note_on,76,0,160
1,note_on,73,48,0
1,note_on,73,0,160
1,note_on,64,57,0
1,note_on,64,0,160
1,note_on,73,49,0
1,note_on,73,0,160
1,note_on,64,50,0
1,note_on,64,0,160
1,note_on,73,59,0
1,note_on,73,0,160
1,note_on,76,51,0
1,note_on,76,0,160
1,note_on,73,52,0
1,note_on,73,0,160
1,note_on,69,61,0
1,note_on,69,0,160
1,note_on,73,53,0
1,note_on,73,0,160
1,note_on,69,55,0
1,note_on,69,0,160
1,note_on,73,64,0
1,note_on,73,0,160
1,note_on,81,57,0
1,note_on,81,0,160
1,note_on,73,59,0
1,note_on,73,0,150
1,note_on,73,70,10
1,note_on,73,0,160
1,note_on,81,61,0
1,note_on,81,0,160
1,note_on,73,63,0
1,note_on,73,0,160
1,note_on,81,75,0
1,note_on,81,0,160
1,note_on,85,66,0
1,note_on,85,0,160
1,note_on,81,67,0
1,note_on,81,0,160
1,note_on,86,110,0
1,note_on,82,93,0
1,note_on,77,93,0
1,note_on,74,93,0
1,note_on,74,0,960
1,note_on,86,0,0
1,note_on,82,0,0
1,note_on,77,0,0
1,note_on,62,67,0
1,note_on,70,79,0
1,note_on,70,0,120
1,note_on,62,0,0
1,note_on,62,61,120
1,note_on,70,73,0
1,note_on,70,0,120
1,note_on,62,0,0
1,note_on,62,67,120
1,note_on,70,79,0
1,note_on,70,0,120
1,note_on,62,0,0
1,note_on,62,61,120
1,note_on,70,72,0
1,note_on,70,0,120
1,note_on,62,0,0
1,note_on,62,74,120
1,note_on,70,87,0
1,note_on,70,0,480
1,note_on,62,0,0
1,note_on,65,63,0
1,note_on,72,75,0
1,note_on,72,0,240
1,note_on,65,0,0
1,note_on,65,74,240
1,note_on,72,87,0
1,note_on,72,0,480
1,note_on,65,0,0
1,note_on,70,63,0
1,note_on,74,75,0
1,note_on,74,0,240
1,note_on,70,0,0
1,note_on,70,74,240
1,note_on,74,87,0
1,note_on,74,0,480
1,note_on,70,0,0
1,note_on,65,63,0
1,note_on,72,75,0
1,note_on,72,0,240
1,note_on,65,0,0
1,note_on,65,67,240
1,note_on,72,79,0
1,note_on,72,0,120
1,note_on,65,0,0
1,note_on,65,61,120
1,note_on,72,73,0
1,note_on,72,0,120
1,note_on,65,0,0
1,note_on,65,67,120
1,note_on,72,79,0
1,note_on,72,0,120
1,note_on,65,0,0
1,note_on,65,61,120
1,note_on,72,72,0
1,note_on,72,0,120
1,note_on,65,0,0
1,note_on,65,74,120
1,note_on,72,87,0
1,note_on,72,0,480
1,note_on,65,0,0
1,note_on,74,63,0
1,note_on,77,75,0
1,note_on,77,0,240
1,note_on,74,0,0
1,note_on,74,74,240
1,note_on,77,87,0
1,note_on,77,0,480
1,note_on,74,0,0
1,note_on,69,63,0
1,note_on,75,75,0
1,note_on,75,0,240
1,note_on,69,0,0
1,note_on,69,74,240
1,note_on,75,87,0
1,note_on,75,0,480
1,note_on,69,0,0
1,note_on,70,63,0
1,note_on,74,75,0
1,note_on,74,0,240
1,note_on,70,0,0
1,note_on,70,67,240
1,note_on,74,67,0
1,note_on,79,67,0
1,note_on,82,79,0
1,note_on,82,0,120
1,note_on,70,0,0
1,note_on,74,0,0
1,note_on,79,0,0
1,note_on,70,61,120
1,note_on,74,61,0
1,note_on,79,61,0
1,note_on,82,73,0
1,note_on,82,0,120
1,note_on,70,0,0
1,note_on,74,0,0
1,note_on,79,0,0
1,note_on,70,67,120
1,note_on,74,67,0
1,note_on,79,67,0
1,note_on,82,79,0
1,note_on,82,0,120
1,note_on,70,0,0
1,note_on,74,0,0
1,note_on,79,0,0
1,note_on,70,61,120
1,note_on,74,61,0
1,note_on,79,61,0
1,note_on,82,72,0
1,note_on,82,0,120
1,note_on,70,0,0
1,note_on,74,0,0
1,note_on,79,0,0
1,note_on,70,74,120
1,note_on,74,74,0
1,note_on,79,74,0
1,note_on,82,87,0
1,note_on,82,0,480
1,note_on,79,0,0
1,note_on,74,0,0
1,note_on,74,63,0
1,note_on,79,75,0
1,note_on,79,0,240
1,note_on,74,0,0
1,note_on,70,0,0
1,note_on,65,70,240
1,note_on,74,70,0
1,note_on,77,82,0
1,note_on,77,0,120
1,note_on,74,0,0
1,note_on,65,0,0
1,note_on,65,59,360
1,note_on,70,59,0
1,note_on,74,71,0
1,note_on,74,0,120
1,note_on,70,0,0
1,note_on,65,0,0
1,note_on,65,69,360
1,note_on,69,69,0
1,note_on,72,82,0
1,note_on,72,0,960
1,note_on,69,0,0
1,note_on,65,0,0
1,note_on,61,63,0
1,note_on,73,75,0
1,note_on,73,0,120
1,note_on,61,0,0
1,note_on,61,57,120
1,note_on,73,69,0
1,note_on,73,0,120
1,note_on,61,0,0
1,note_on,61,63,120
1,note_on,73,75,0
1,note_on,73,0,120
1,note_on,61,0,0
1,note_on,61,57,120
1,note_on,73,68,0
1,note_on,73,0,120
1,note_on,61,0,0
1,note_on,65,70,120
1,note_on,74,70,0
1,note_on,77,82,0
1,note_on,77,0,480
1,note_on,74,0,0
1,note_on,70,59,0
1,note_on,74,71,0
1,note_on,74,0,240
1,note_on,70,0,0
1,note_on,65,0,0
1,note_on,65,70,240
1,note_on,70,70,0
1,note_on,74,82,0
1,note_on,74,0,120
1,note_on,70,0,0
1,note_on,65,0,0
1,note_on,65,59,360
1,note_on,69,59,0
1,note_on,72,71,0
1,note_on,72,0,120
1,note_on,69,0,0
1,note_on,65,0,0
1,note_on,74,82,360
1,note_on,77,82,0
1,note_on,82,82,0
1,note_on,86,98,0
1,note_on,86,0,960
1,note_on,74,0,0
1,note_on,77,0,0
1,note_on,82,0,0
1,note_on,65,67,0
1,note_on,65,0,160
1,note_on,63,61,0
1,note_on,63,0,160
1,note_on,62,61,0
1,note_on,62,0,160
1,note_on,70,67,0
1,note_on,70,0,160
1,note_on,69,61,0
1,note_on,69,0,160
1,note_on,67,61,0
1,note_on,67,0,160
1,note_on,65,73,0
1,note_on,65,0,960
1,note_on,77,67,0
1,note_on,77,0,160
1,note_on,75,61,0
1,note_on,75,0,160
1,note_on,74,61,0
1,note_on,74,0,160
1,note_on,82,67,0
1,note_on,82,0,160
1,note_on,81,61,0
1,note_on,81,0,160
1,note_on,79,61,0
1,note_on,79,0,160
1,note_on,77,73,0
1,note_on,77,0,960
1,note_on,77,71,0
1,note_on,77,0,160
1,note_on,81,60,0
1,note_on,81,0,160
1,note_on,82,60,0
1,note_on,82,0,160
1,note_on,84,67,0
1,note_on,84,0,160
1,note_on,86,70,0
1,note_on,86,0,160
1,note_on,87,72,0
1,note_on,87,0,160
1,note_on,89,78,0
1,note_on,89,0,960
1,note_on,81,67,0
1,note_on,81,0,160
1,note_on,82,59,0
1,note_on,82,0,160
1,note_on,84,59,0
1,note_on,84,0,160
1,note_on,86,63,0
1,note_on,86,0,160
1,note_on,87,66,0
1,note_on,87,0,160
1,note_on,89,70,0
1,note_on,89,0,160
1,note_on,90,72,0
1,note_on,90,0,480
1,note_on,91,66,0
1,note_on,91,0,240
1,note_on,79,67,240
1,note_on,74,67,0
1,note_on,70,67,0
1,note_on,82,79,0
1,note_on,82,0,120
1,note_on,79,0,0
1,note_on,74,0,0
1,note_on,70,0,0
1,note_on,79,61,120
1,note_on,82,73,0
1,note_on,74,61,0
1,note_on,70,61,0
1,note_on,70,0,120
1,note_on,79,0,0
1,note_on,82,0,0
1,note_on,74,0,0
1,note_on,79,67,120
1,note_on,82,79,0
1,note_on,70,67,0
1,note_on,74,67,0
1,note_on,74,0,120
1,note_on,79,0,0
1,note_on,82,0,0
1,note_on,70,0,0
1,note_on,70,61,120
1,note_on,74,61,0
1,note_on,79,61,0
1,note_on,82,72,0
1,note_on,82,0,120
1,note_on,70,0,0
1,note_on,74,0,0
1,note_on,79,0,0
1,note_on,70,74,120
1,note_on,74,74,0
1,note_on,79,74,0
1,note_on,82,87,0
1,note_on,82,0,480
1,note_on,79,0,0
1,note_on,74,0,0
1,note_on,74,63,0
1,note_on,79,75,0
1,note_on,79,0,240
1,note_on,74,0,0
1,note_on,70,0,0
1,note_on,65,70,240
1,note_on,74,70,0
1,note_on,77,82,0
1,note_on,77,0,120
1,note_on,74,0,0
1,note_on,65,0,0
1,note_on,70,59,360
1,note_on,65,59,0
1,note_on,74,71,0
1,note_on,74,0,120
1,note_on,65,0,0
1,note_on,70,0,0
1,note_on,72,82,360
1,note_on,69,69,0
1,note_on,65,69,0
1,note_on,65,0,960
1,note_on,69,0,0
1,note_on,72,0,0
1,note_on,68,75,0
1,note_on,68,0,160
1,note_on,72,68,0
1,note_on,72,0,160
1,note_on,76,69,0
1,note_on,76,0,160
1,note_on,77,75,0
1,note_on,77,0,160
1,note_on,79,67,0
1,note_on,79,0,160
1,note_on,80,67,0
1,note_on,80,0,160
1,note_on,72,70,0
1,note_on,81,70,0
1,note_on,84,82,0
1,note_on,84,0,480
1,note_on,81,0,0
1,note_on,81,71,0
1,note_on,77,59,0
1,note_on,77,0,240
1,note_on,81,0,0
1,note_on,72,0,0
1,note_on,72,70,240
1,note_on,77,70,0
1,note_on,81,82,0
1,note_on,81,0,120
1,note_on,77,0,0
1,note_on,72,0,0
1,note_on,72,59,360
1,note_on,76,59,0
1,note_on,79,71,0
1,note_on,79,0,120
1,note_on,76,0,0
1,note_on,72,0,0
1,note_on,77,98,360
1,note_on,72,82,0
1,note_on,69,82,0
1,note_on,69,0,960
1,note_on,72,0,0
1,note_on,77,0,0
1,note_on,82,64,0
1,note_on,82,0,160
1,note_on,81,57,0
1,note_on,81,0,160
1,note_on,79,57,0
1,note_on,79,0,160
1,note_on,86,63,0
1,note_on,86,0,160
1,note_on,84,58,0
1,note_on,84,0,160
1,note_on,82,58,0
1,note_on,82,0,160
1,note_on,81,63,0
1,note_on,81,0,160
1,note_on,79,57,0
1,note_on,79,0,160
1,note_on,77,58,0
1,note_on,77,0,160
1,note_on,76,65,0
1,note_on,76,0,160
1,note_on,74,54,0
1,note_on,74,0,160
1,note_on,72,54,0
1,note_on,72,0,160
1,note_on,70,61,0
1,note_on,70,0,160
1,note_on,69,52,0
1,note_on,69,0,160
1,note_on,67,52,0
1,note_on,67,0,160
1,note_on,74,61,0
1,note_on,74,0,160
1,note_on,72,54,0
1,note_on,72,0,160
1,note_on,70,54,0
1,note_on,70,0,160
1,note_on,65,57,0
1,note_on,77,68,0
1,note_on,72,57,0
1,note_on,69,57,0
1,note_on,69,0,960
1,note_on,65,0,0
1,note_on,77,0,0
1,note_on,72,0,0
1,note_on,82,64,0
1,note_on,82,0,160
1,note_on,81,57,0
1,note_on,81,0,160
1,note_on,79,57,0
1,note_on,79,0,160
1,note_on,86,63,0
1,note_on,86,0,160
1,note_on,84,58,0
1,note_on,84,0,160
1,note_on,82,58,0
1,note_on,82,0,160
1,note_on,81,63,0
1,note_on,81,0,160
1,note_on,79,57,0
1,note_on,79,0,160
1,note_on,77,58,0
1,note_on,77,0,160
1,note_on,76,65,0
1,note_on,76,0,160
1,note_on,74,54,0
1,note_on,74,0,160
1,note_on,72,54,0
1,note_on,72,0,160
1,note_on,70,61,0
1,note_on,70,0,160
1,note_on,69,52,0
1,note_on,69,0,160
1,note_on,67,52,0
1,note_on,67,0,160
1,note_on,74,61,0
1,note_on,74,0,160
1,note_on,72,54,0
1,note_on,72,0,160
1,note_on,70,54,0
1,note_on,70,0,160
1,note_on,69,61,0
1,note_on,69,0,160
1,note_on,67,50,0
1,note_on,67,0,160
1,note_on,65,51,0
1,note_on,65,0,160
1,note_on,64,58,0
1,note_on,64,0,160
1,note_on,62,44,0
1,note_on,62,0,160
1,note_on,60,44,0
1,note_on,60,0,160
1,note_on,58,51,0
1,note_on,58,0,160
1,note_on,57,46,0
1,note_on,57,0,160
1,note_on,55,46,0
1,note_on,55,0,160
1,note_on,61,52,0
1,note_on,61,0,160
1,note_on,60,46,0
1,note_on,60,0,160
1,note_on,58,46,0
1,note_on,58,0,160
1,note_on,61,52,0
1,note_on,61,0,160
1,note_on,60,47,0
1,note_on,60,0,160
1,note_on,58,48,0
1,note_on,58,0,160
1,note_on,61,57,0
1,note_on,61,0,160
1,note_on,60,51,0
1,note_on,60,0,160
1,note_on,58,53,0
1,note_on,58,0,160
1,note_on,61,63,0
1,note_on,61,0,160
1,note_on,60,59,0
1,note_on,60,0,160
1,note_on,58,53,0
1,note_on,58,0,160
1,note_on,61,57,0
1,note_on,61,0,160
1,note_on,60,51,0
1,note_on,60,0,160
1,note_on,59,48,0
1,note_on,59,0,160
1,note_on,60,57,0
1,note_on,60,0,160
1,note_on,61,43,0
1,note_on,61,0,160
1,note_on,63,43,0
1,note_on,63,0,160
1,note_on,65,51,0
1,note_on,65,0,160
1,note_on,67,43,0
1,note_on,67,0,160
1,note_on,68,43,0
1,note_on,68,0,160
1,note_on,70,49,0
1,note_on,70,0,160
1,note_on,72,43,0
1,note_on,72,0,160
1,note_on,73,43,0
1,note_on,73,0,160
1,note_on,75,50,0
1,note_on,75,0,160
1,note_on,77,43,0
1,note_on,77,0,160
1,note_on,79,43,0
1,note_on,79,0,160
1,note_on,68,45,0
1,note_on,80,53,0
1,note_on,75,45,0
1,note_on,72,45,0
1,note_on,72,0,960
1,note_on,68,0,0
1,note_on,80,0,0
1,note_on,75,0,0
1,note_on,85,48,0
1,note_on,85,0,160
1,note_on,84,42,0
1,note_on,84,0,160
1,note_on,82,42,0
1,note_on,82,0,160
1,note_on,89,47,0
1,note_on,89,0,160
1,note_on,87,43,0
1,note_on,87,0,160
1,note_on,85,43,0
1,note_on,85,0,160
1,note_on,84,47,0
1,note_on,84,0,160
1,note_on,82,42,0
1,note_on,82,0,160
1,note_on,80,43,0
1,note_on,80,0,160
1,note_on,79,48,0
1,note_on,79,0,160
1,note_on,77,40,0
1,note_on,77,0,160
1,note_on,75,40,0
1,note_on,75,0,160
1,note_on,73,45,0
1,note_on,73,0,160
1,note_on,72,39,0
1,note_on,72,0,160
1,note_on,70,39,0
1,note_on,70,0,160
1,note_on,77,45,0
1,note_on,77,0,160
1,note_on,75,40,0
1,note_on,75,0,160
1,note_on,73,40,0
1,note_on,73,0,160
1,note_on,68,45,0
1,note_on,80,53,0
1,note_on,75,45,0
1,note_on,72,45,0
1,note_on,72,0,960
1,note_on,68,0,0
1,note_on,80,0,0
1,note_on,75,0,0
1,note_on,85,48,0
1,note_on,85,0,160
1,note_on,84,42,0
1,note_on,84,0,160
1,note_on,82,42,0
1,note_on,82,0,160
1,note_on,89,47,0
1,note_on,89,0,160
1,note_on,87,43,0
1,note_on,87,0,160
1,note_on,85,43,0
1,note_on,85,0,160
1,note_on,84,47,0
1,note_on,84,0,160
1,note_on,82,42,0
1,note_on,82,0,160
1,note_on,80,43,0
1,note_on,80,0,160
1,note_on,79,48,0
1,note_on,79,0,160
1,note_on,77,40,0
1,note_on,77,0,160
1,note_on,75,40,0
1,note_on,75,0,160
1,note_on,73,45,0
1,note_on,73,0,160
1,note_on,72,39,0
1,note_on,72,0,160
1,note_on,70,39,0
1,note_on,70,0,160
1,note_on,77,45,0
1,note_on,77,0,160
1,note_on,75,40,0
1,note_on,75,0,160
1,note_on,73,40,0
1,note_on,73,0,160
1,note_on,72,45,0
1,note_on,72,0,160
1,note_on,70,37,0
1,note_on,70,0,160
1,note_on,68,38,0
1,note_on,68,0,160
1,note_on,67,43,0
1,note_on,67,0,160
1,note_on,65,33,0
1,note_on,65,0,160
1,note_on,63,33,0
1,note_on,63,0,160
1,note_on,61,38,0
1,note_on,61,0,160
1,note_on,60,34,0
1,note_on,60,0,160
1,note_on,58,34,0
1,note_on,58,0,160
1,note_on,64,39,0
1,note_on,64,0,160
1,note_on,63,34,0
1,note_on,63,0,160
1,note_on,61,34,0
1,note_on,61,0,160
1,note_on,64,39,0
1,note_on,64,0,160
1,note_on,63,35,0
1,note_on,63,0,160
1,note_on,61,36,0
1,note_on,61,0,160
1,note_on,64,42,0
1,note_on,64,0,160
1,note_on,63,38,0
1,note_on,63,0,160
1,note_on,61,39,0
1,note_on,61,0,160
1,note_on,64,47,0
1,note_on,64,0,160
1,note_on,63,44,0
1,note_on,63,0,160
1,note_on,61,39,0
1,note_on,61,0,160
1,note_on,64,42,0
1,note_on,64,0,160
1,note_on,63,38,0
1,note_on,63,0,160
1,note_on,62,36,0
1,note_on,62,0,160
1,note_on,63,57,0
1,note_on,63,0,160
1,note_on,64,43,0
1,note_on,64,0,160
1,note_on,66,46,0
1,note_on,66,0,160
1,note_on,68,48,0
1,note_on,68,0,160
1,note_on,70,51,0
1,note_on,70,0,160
1,note_on,71,53,0
1,note_on,71,0,160
1,note_on,73,55,0
1,note_on,73,0,160
1,note_on,75,60,0
1,note_on,75,0,160
1,note_on,76,64,0
1,note_on,76,0,160
1,note_on,78,68,0
1,note_on,78,0,160
1,note_on,80,72,0
1,note_on,80,0,160
1,note_on,82,76,0
1,note_on,82,0,160
1,note_on,71,81,0
1,note_on,74,81,0
1,note_on,78,81,0
1,note_on,83,96,0
1,note_on,83,0,950
1,note_on,71,0,0
1,note_on,74,0,0
1,note_on,78,0,0
1,note_on,71,73,10
1,note_on,74,73,0
1,note_on,78,73,0
1,note_on,83,86,0
1,note_on,83,0,120
1,note_on,71,0,0
1,note_on,74,0,0
1,note_on,78,0,0
1,note_on,71,67,120
1,note_on,74,67,0
1,note_on,78,67,0
1,note_on,83,80,0
1,note_on,83,0,120
1,note_on,71,0,0
1,note_on,74,0,0
1,note_on,78,0,0
1,note_on,71,73,120
1,note_on,74,73,0
1,note_on,78,73,0
1,note_on,83,86,0
1,note_on,83,0,120
1,note_on,71,0,0
1,note_on,74,0,0
1,note_on,78,0,0
1,note_on,71,67,120
1,note_on,74,67,0
1,note_on,78,67,0
1,note_on,83,79,0
1,note_on,83,0,120
1,note_on,71,0,0
1,note_on,74,0,0
1,note_on,78,0,0
1,note_on,71,81,120
1,note_on,74,81,0
1,note_on,78,81,0
1,note_on,83,95,0
1,note_on,83,0,480
1,note_on,78,0,0
1,note_on,74,0,0
1,note_on,74,69,0
1,note_on,78,82,0
1,note_on,78,0,240
1,note_on,74,0,0
1,note_on,71,0,0
1,note_on,71,77,240
1,note_on,73,77,0
1,note_on,79,90,0
1,note_on,79,0,120
1,note_on,73,0,0
1,note_on,71,0,0
1,note_on,71,64,360
1,note_on,73,64,0
1,note_on,76,78,0
1,note_on,76,0,120
1,note_on,73,0,0
1,note_on,71,0,0
1,note_on,71,75,360
1,note_on,74,75,0
1,note_on,78,90,0
1,note_on,78,0,960
1,note_on,74,0,0
1,note_on,71,0,0
1,note_on,71,69,0
1,note_on,71,0,160
1,note_on,70,57,0
1,note_on,70,0,160
1,note_on,71,57,0
1,note_on,71,0,160
1,note_on,73,69,0
1,note_on,73,0,160
1,note_on,71,59,0
1,note_on,71,0,160
1,note_on,70,59,0
1,note_on,70,0,160
1,note_on,74,69,0
1,note_on,74,0,160
1,note_on,73,61,0
1,note_on,73,0,160
1,note_on,71,61,0
1,note_on,71,0,160
1,note_on,78,69,0
1,note_on,78,0,160
1,note_on,76,62,0
1,note_on,76,0,160
1,note_on,74,62,0
1,note_on,74,0,160
1,note_on,79,69,0
1,note_on,79,0,160
1,note_on,78,60,0
1,note_on,78,0,160
1,note_on,76,60,0
1,note_on,76,0,160
1,note_on,82,69,0
1,note_on,82,0,160
1,note_on,80,60,0
1,note_on,80,0,160
1,note_on,78,60,0
1,note_on,78,0,160
1,note_on,71,73,0
1,note_on,74,73,0
1,note_on,78,73,0
1,note_on,83,73,0
1,note_on,83,0,950
1,note_on,71,0,0
1,note_on,74,0,0
1,note_on,78,0,0
1,note_on,59,67,970
1,note_on,59,0,160
1,note_on,58,50,0
1,note_on,58,0,160
1,note_on,59,50,0
1,note_on,59,0,160
1,note_on,62,68,0
1,note_on,62,0,160
1,note_on,61,51,0
1,note_on,61,0,160
1,note_on,59,51,0
1,note_on,59,0,160
1,note_on,64,68,0
1,note_on,64,0,160
1,note_on,62,51,0
1,note_on,62,0,160
1,note_on,61,51,0
1,note_on,61,0,160
1,note_on,67,69,0
1,note_on,67,0,160
1,note_on,66,51,0
1,note_on,66,0,160
1,note_on,64,51,0
1,note_on,64,0,160
1,note_on,66,67,0
1,note_on,66,0,160
1,note_on,65,50,0
1,note_on,65,0,160
1,note_on,66,50,0
1,note_on,66,0,160
1,note_on,69,68,0
1,note_on,69,0,160
1,note_on,68,51,0
1,note_on,68,0,160
1,note_on,69,51,0
1,note_on,69,0,160
1,note_on,72,68,0
1,note_on,72,0,160
1,note_on,71,51,0
1,note_on,71,0,160
1,note_on,72,51,0
1,note_on,72,0,160
1,note_on,75,69,0
1,note_on,75,0,160
1,note_on,74,51,0
1,note_on,74,0,160
1,note_on,75,51,0
1,note_on,75,0,160
1,note_on,78,89,0
1,note_on,78,0,240
1,note_on,72,68,240
1,note_on,75,68,0
1,note_on,78,68,0
1,note_on,84,81,0
1,note_on,80,68,0
1,note_on,80,0,480
1,note_on,78,0,0
1,note_on,72,0,0
1,note_on,75,0,0
1,note_on,84,0,0
1,note_on,72,68,0
1,note_on,75,68,0
1,note_on,78,68,0
1,note_on,84,81,0
1,note_on,80,68,0
1,note_on,80,0,480
1,note_on,78,0,0
1,note_on,72,0,0
1,note_on,75,0,0
1,note_on,84,0,0
1,note_on,72,68,0
1,note_on,75,68,0
1,note_on,78,68,0
1,note_on,84,81,0
1,note_on,80,68,0
1,note_on,80,0,480
1,note_on,78,0,0
1,note_on,72,0,0
1,note_on,75,0,0
1,note_on,84,0,0
1,note_on,73,81,0
1,note_on,76,81,0
1,note_on,80,81,0
1,note_on,85,96,0
1,note_on,85,0,950
1,note_on,73,0,0
1,note_on,76,0,0
1,note_on,80,0,0
1,note_on,73,73,10
1,note_on,76,73,0
1,note_on,80,73,0
1,note_on,85,86,0
1,note_on,85,0,120
1,note_on,73,0,0
1,note_on,76,0,0
1,note_on,80,0,0
1,note_on,73,67,120
1,note_on,76,67,0
1,note_on,80,67,0
1,note_on,85,80,0
1,note_on,85,0,120
1,note_on,73,0,0
1,note_on,76,0,0
1,note_on,80,0,0
1,note_on,73,73,120
1,note_on,76,73,0
1,note_on,80,73,0
1,note_on,85,86,0
1,note_on,85,0,120
1,note_on,73,0,0
1,note_on,76,0,0
1,note_on,80,0,0
1,note_on,73,67,120
1,note_on,76,67,0
1,note_on,80,67,0
1,note_on,85,79,0
1,note_on,85,0,120
1,note_on,73,0,0
1,note_on,76,0,0
1,note_on,80,0,0
1,note_on,73,81,120
1,note_on,76,81,0
1,note_on,80,81,0
1,note_on,85,95,0
1,note_on,85,0,480
1,note_on,80,0,0
1,note_on,76,0,0
1,note_on,76,69,0
1,note_on,80,82,0
1,note_on,80,0,240
1,note_on,76,0,0
1,note_on,73,0,0
1,note_on,73,77,240
1,note_on,75,77,0
1,note_on,81,90,0
1,note_on,81,0,120
1,note_on,75,0,0
1,note_on,73,0,0
1,note_on,73,64,360
1,note_on,75,64,0
1,note_on,78,78,0
1,note_on,78,0,120
1,note_on,75,0,0
1,note_on,73,0,0
1,note_on,73,75,360
1,note_on,76,75,0
1,note_on,80,90,0
1,note_on,80,0,960
1,note_on,76,0,0
1,note_on,73,0,0
1,note_on,73,63,0
1,note_on,73,0,160
1,note_on,72,52,0
1,note_on,72,0,160
1,note_on,73,52,0
1,note_on,73,0,160
1,note_on,75,63,0
1,note_on,75,0,160
1,note_on,73,54,0
1,note_on,73,0,160
1,note_on,72,54,0
1,note_on,72,0,160
1,note_on,76,63,0
1,note_on,76,0,160
1,note_on,75,56,0
1,note_on,75,0,160
1,note_on,73,56,0
1,note_on,73,0,160
1,note_on,80,63,0
1,note_on,80,0,160
1,note_on,78,57,0
1,note_on,78,0,160
1,note_on,76,57,0
1,note_on,76,0,160
1,note_on,81,63,0
1,note_on,81,0,160
1,note_on,80,55,0
1,note_on,80,0,160
1,note_on,78,55,0
1,note_on,78,0,160
1,note_on,84,63,0
1,note_on,84,0,160
1,note_on,82,55,0
1,note_on,82,0,160
1,note_on,80,55,0
1,note_on,80,0,160
1,note_on,73,67,0
1,note_on,76,67,0
1,note_on,80,67,0
1,note_on,85,67,0
1,note_on,85,0,950
1,note_on,73,0,0
1,note_on,76,0,0
1,note_on,80,0,0
1,note_on,61,67,970
1,note_on,61,0,160
1,note_on,60,50,0
1,note_on,60,0,160
1,note_on,61,50,0
1,note_on,61,0,160
1,note_on,64,68,0
1,note_on,64,0,160
1,note_on,63,51,0
1,note_on,63,0,160
1,note_on,61,51,0
1,note_on,61,0,160
1,note_on,66,68,0
1,note_on,66,0,160
1,note_on,64,51,0
1,note_on,64,0,160
1,note_on,63,51,0
1,note_on,63,0,160
1,note_on,69,69,0
1,note_on,69,0,160
1,note_on,68,51,0
1,note_on,68,0,160
1,note_on,66,51,0
1,note_on,66,0,160
1,note_on,68,67,0
1,note_on,68,0,160
1,note_on,67,50,0
1,note_on,67,0,160
1,note_on,68,50,0
1,note_on,68,0,160
1,note_on,71,68,0
1,note_on,71,0,160
1,note_on,70,51,0
1,note_on,70,0,160
1,note_on,71,53,0
1,note_on,71,0,160
1,note_on,74,72,0
1,note_on,74,0,160
1,note_on,73,51,0
1,note_on,73,0,160
1,note_on,74,56,0
1,note_on,74,0,160
1,note_on,77,72,0
1,note_on,77,0,160
1,note_on,76,57,0
1,note_on,76,0,160
1,note_on,77,58,0
1,note_on,77,0,160
1,note_on,80,86,0
1,note_on,80,0,240
1,note_on,74,68,240
1,note_on,77,68,0
1,note_on,80,68,0
1,note_on,86,81,0
1,note_on,82,68,0
1,note_on,82,0,432
1,note_on,80,0,0
1,note_on,74,0,0
1,note_on,77,0,0
1,note_on,86,0,0
1,note_on,74,68,48
1,note_on,77,68,0
1,note_on,80,68,0
1,note_on,86,81,0
1,note_on,82,68,0
1,note_on,82,0,432
1,note_on,80,0,0
1,note_on,74,0,0
1,note_on,77,0,0
1,note_on,86,0,0
1,note_on,74,68,48
1,note_on,77,68,0
1,note_on,80,68,0
1,note_on,86,81,0
1,note_on,82,68,0
1,note_on,82,0,432
1,note_on,80,0,0
1,note_on,74,0,0
1,note_on,77,0,0
1,note_on,86,0,0
1,note_on,75,75,48
1,note_on,79,75,0
1,note_on,82,75,0
1,note_on,87,89,0
1,note_on,87,0,240
1,note_on,75,0,0
1,note_on,79,0,0
1,note_on,82,0,0
1,note_on,66,68,240
1,note_on,69,68,0
1,note_on,75,81,0
1,note_on,71,68,0
1,note_on,71,0,432
1,note_on,66,0,0
1,note_on,69,0,0
1,note_on,75,0,0
1,note_on,66,68,48
1,note_on,69,68,0
1,note_on,75,81,0
1,note_on,71,68,0
1,note_on,71,0,432
1,note_on,66,0,0
1,note_on,69,0,0
1,note_on,75,0,0
1,note_on,66,68,48
1,note_on,69,68,0
1,note_on,75,81,0
1,note_on,71,68,0
1,note_on,71,0,432
1,note_on,66,0,0
1,note_on,69,0,0
1,note_on,75,0,0
1,note_on,67,75,48
1,note_on,71,75,0
1,note_on,76,89,0
1,note_on,76,0,240
1,note_on,71,0,0
1,note_on,67,0,0
1,note_on,76,68,240
1,note_on,79,68,0
1,note_on,82,68,0
1,note_on,88,81,0
1,note_on,84,68,0
1,note_on,84,0,432
1,note_on,82,0,0
1,note_on,76,0,0
1,note_on,79,0,0
1,note_on,88,0,0
1,note_on,76,68,48
1,note_on,79,68,0
1,note_on,82,68,0
1,note_on,88,81,0
1,note_on,84,68,0
1,note_on,84,0,432
1,note_on,82,0,0
1,note_on,76,0,0
1,note_on,79,0,0
1,note_on,88,0,0
1,note_on,76,68,48
1,note_on,79,68,0
1,note_on,82,68,0
1,note_on,88,81,0
1,note_on,84,68,0
1,note_on,84,0,432
1,note_on,82,0,0
1,note_on,76,0,0
1,note_on,79,0,0
1,note_on,88,0,0
1,note_on,77,75,48
1,note_on,80,75,0
1,note_on,84,75,0
1,note_on,89,89,0
1,note_on,89,0,240
1,note_on,77,0,0
1,note_on,80,0,0
1,note_on,84,0,0
1,note_on,68,68,240
1,note_on,71,68,0
1,note_on,77,81,0
1,note_on,73,68,0
1,note_on,73,0,432
1,note_on,68,0,0
1,note_on,71,0,0
1,note_on,77,0,0
1,note_on,68,62,48
1,note_on,71,62,0
1,note_on,77,74,0
1,note_on,73,62,0
1,note_on,73,0,432
1,note_on,68,0,0
1,note_on,71,0,0
1,note_on,77,0,0
1,note_on,68,57,48
1,note_on,71,57,0
1,note_on,77,68,0
1,note_on,73,57,0
1,note_on,73,0,432
1,note_on,68,0,0
1,note_on,71,0,0
1,note_on,77,0,0
1,note_on,69,56,48
1,note_on,74,56,0
1,note_on,78,66,0
1,note_on,78,0,240
1,note_on,74,0,0
1,note_on,69,0,0
1,note_on,74,64,240
1,note_on,74,0,160
1,note_on,73,54,0
1,note_on,73,0,160
1,note_on,74,54,0
1,note_on,74,0,160
1,note_on,78,65,0
1,note_on,78,0,160
1,note_on,76,56,0
1,note_on,76,0,160
1,note_on,74,56,0
1,note_on,74,0,160
1,note_on,81,66,0
1,note_on,81,0,160
1,note_on,79,58,0
1,note_on,79,0,160
1,note_on,78,58,0
1,note_on,78,0,160
1,note_on,76,65,0
1,note_on,76,0,160
1,note_on,74,58,0
1,note_on,74,0,160
1,note_on,73,58,0
1,note_on,73,0,160
1,note_on,74,66,0
1,note_on,74,0,160
1,note_on,73,55,0
1,note_on,73,0,160
1,note_on,71,55,0
1,note_on,71,0,160
1,note_on,69,60,0
1,note_on,69,0,160
1,note_on,67,51,0
1,note_on,67,0,160
1,note_on,66,51,0
1,note_on,66,0,160
1,note_on,64,58,0
1,note_on,64,0,160
1,note_on,62,51,0
1,note_on,62,0,160
1,note_on,66,51,0
1,note_on,66,0,160
1,note_on,64,61,0
1,note_on,64,0,240
1,note_on,76,64,240
1,note_on,76,0,160
1,note_on,75,54,0
1,note_on,75,0,160
1,note_on,76,54,0
1,note_on,76,0,160
1,note_on,79,65,0
1,note_on,79,0,160
1,note_on,78,56,0
1,note_on,78,0,160
1,note_on,76,56,0
1,note_on,76,0,160
1,note_on,83,66,0
1,note_on,83,0,160
1,note_on,81,58,0
1,note_on,81,0,160
1,note_on,79,58,0
1,note_on,79,0,160
1,note_on,78,65,0
1,note_on,78,0,160
1,note_on,76,58,0
1,note_on,76,0,160
1,note_on,75,58,0
1,note_on,75,0,160
1,note_on,76,66,0
1,note_on,76,0,160
1,note_on,74,55,0
1,note_on,74,0,160
1,note_on,73,55,0
1,note_on,73,0,160
1,note_on,71,60,0
1,note_on,71,0,160
1,note_on,69,51,0
1,note_on,69,0,160
1,note_on,67,51,0
1,note_on,67,0,160
1,note_on,66,58,0
1,note_on,66,0,160
1,note_on,64,51,0
1,note_on,64,0,160
1,note_on,67,51,0
1,note_on,67,0,160
1,note_on,66,61,0
1,note_on,66,0,240
1,note_on,78,64,240
1,note_on,78,0,160
1,note_on,77,54,0
1,note_on,77,0,160
1,note_on,78,54,0
1,note_on,78,0,160
1,note_on,81,65,0
1,note_on,81,0,160
1,note_on,79,56,0
1,note_on,79,0,160
1,note_on,78,56,0
1,note_on,78,0,160
1,note_on,84,66,0
1,note_on,84,0,160
1,note_on,83,58,0
1,note_on,83,0,160
1,note_on,81,58,0
1,note_on,81,0,160
1,note_on,79,65,0
1,note_on,79,0,160
1,note_on,78,58,0
1,note_on,78,0,160
1,note_on,76,58,0
1,note_on,76,0,160
1,note_on,78,66,0
1,note_on,78,0,160
1,note_on,76,55,0
1,note_on,76,0,160
1,note_on,74,55,0
1,note_on,74,0,160
1,note_on,72,60,0
1,note_on,72,0,160
1,note_on,71,51,0
1,note_on,71,0,160
1,note_on,69,51,0
1,note_on,69,0,160
1,note_on,67,58,0
1,note_on,67,0,160
1,note_on,66,51,0
1,note_on,66,0,160
1,note_on,69,51,0
1,note_on,69,0,160
1,note_on,67,65,0
1,note_on,67,0,160
1,note_on,66,58,0
1,note_on,66,0,160
1,note_on,67,58,0
1,note_on,67,0,160
1,note_on,71,64,0
1,note_on,71,0,160
1,note_on,70,54,0
1,note_on,70,0,160
1,note_on,71,54,0
1,note_on,71,0,160
1,note_on,74,65,0
1,note_on,74,0,160
1,note_on,73,56,0
1,note_on,73,0,160
1,note_on,74,56,0
1,note_on,74,0,160
1,note_on,79,66,0
1,note_on,79,0,160
1,note_on,78,58,0
1,note_on,78,0,160
1,note_on,79,58,0
1,note_on,79,0,160
1,note_on,83,65,0
1,note_on,83,0,160
1,note_on,82,58,0
1,note_on,82,0,160
1,note_on,83,58,0
1,note_on,83,0,160
1,note_on,86,66,0
1,note_on,86,0,160
1,note_on,85,55,0
1,note_on,85,0,160
1,note_on,86,55,0
1,note_on,86,0,160
1,note_on,89,67,0
1,note_on,89,0,160
1,note_on,88,51,0
1,note_on,88,0,160
1,note_on,89,52,0
1,note_on,89,0,160
1,note_on,80,63,0
1,note_on,80,0,160
1,note_on,79,41,0
1,note_on,79,0,160
1,note_on,80,40,0
1,note_on,80,0,160
1,note_on,81,52,0
1,note_on,81,0,160
1,note_on,80,41,0
1,note_on,80,0,160
1,note_on,81,41,0
1,note_on,81,0,160
1,note_on,85,52,0
1,note_on,85,0,160
1,note_on,83,42,0
1,note_on,83,0,160
1,note_on,81,42,0
1,note_on,81,0,160
1,note_on,83,52,0
1,note_on,83,0,160
1,note_on,81,40,0
1,note_on,81,0,160
1,note_on,80,40,0
1,note_on,80,0,160
1,note_on,86,58,0
1,note_on,86,0,160
1,note_on,85,44,0
1,note_on,85,0,160
1,note_on,83,44,0
1,note_on,83,0,160
1,note_on,81,52,0
1,note_on,81,0,160
1,note_on,80,41,0
1,note_on,80,0,160
1,note_on,78,41,0
1,note_on,78,0,160
1,note_on,76,52,0
1,note_on,76,0,160
1,note_on,74,41,0
1,note_on,74,0,160
1,note_on,73,41,0
1,note_on,73,0,160
1,note_on,74,52,0
1,note_on,74,0,160
1,note_on,73,40,0
1,note_on,73,0,160
1,note_on,71,40,0
1,note_on,71,0,160
1,note_on,78,58,0
1,note_on,78,0,160
1,note_on,76,44,0
1,note_on,76,0,160
1,note_on,74,44,0
1,note_on,74,0,160
1,note_on,73,52,0
1,note_on,73,0,160
1,note_on,76,41,0
1,note_on,76,0,160
1,note_on,81,41,0
1,note_on,81,0,160
1,note_on,85,52,0
1,note_on,85,0,160
1,note_on,83,41,0
1,note_on,83,0,160
1,note_on,81,41,0
1,note_on,81,0,160
1,note_on,83,52,0
1,note_on,83,0,160
1,note_on,81,40,0
1,note_on,81,0,160
1,note_on,80,40,0
1,note_on,80,0,160
1,note_on,86,58,0
1,note_on,86,0,160
1,note_on,85,44,0
1,note_on,85,0,160
1,note_on,83,44,0
1,note_on,83,0,160
1,note_on,81,52,0
1,note_on,81,0,160
1,note_on,80,41,0
1,note_on,80,0,160
1,note_on,78,41,0
1,note_on,78,0,160
1,note_on,76,52,0
1,note_on,76,0,160
1,note_on,74,41,0
1,note_on,74,0,160
1,note_on,73,41,0
1,note_on,73,0,160
1,note_on,74,52,0
1,note_on,74,0,160
1,note_on,73,40,0
1,note_on,73,0,160
1,note_on,71,40,0
1,note_on,71,0,160
1,note_on,78,58,0
1,note_on,78,0,160
1,note_on,76,44,0
1,note_on,76,0,160
1,note_on,74,44,0
1,note_on,74,0,160
1,note_on,73,52,0
1,note_on,73,0,160
1,note_on,71,41,0
1,note_on,71,0,160
1,note_on,69,41,0
1,note_on,69,0,160
1,note_on,76,52,0
1,note_on,76,0,160
1,note_on,74,41,0
1,note_on,74,0,160
1,note_on,73,42,0
1,note_on,73,0,160
1,note_on,79,53,0
1,note_on,79,0,160
1,note_on,78,41,0
1,note_on,78,0,160
1,note_on,76,42,0
1,note_on,76,0,160
1,note_on,83,60,0
1,note_on,83,0,160
1,note_on,81,46,0
1,note_on,81,0,160
1,note_on,79,46,0
1,note_on,79,0,160
1,note_on,78,55,0
1,note_on,78,0,160
1,note_on,76,44,0
1,note_on,76,0,160
1,note_on,74,44,0
1,note_on,74,0,160
1,note_on,73,56,0
1,note_on,73,0,160
1,note_on,71,45,0
1,note_on,71,0,160
1,note_on,69,45,0
1,note_on,69,0,160
1,note_on,67,57,0
1,note_on,67,0,160
1,note_on,64,44,0
1,note_on,64,0,160
1,note_on,66,44,0
1,note_on,66,0,160
1,note_on,67,65,0
1,note_on,67,0,160
1,note_on,69,49,0
1,note_on,69,0,160
1,note_on,71,50,0
1,note_on,71,0,160
1,note_on,73,59,0
1,note_on,73,0,160
1,note_on,71,47,0
1,note_on,71,0,160
1,note_on,69,47,0
1,note_on,69,0,160
1,note_on,76,60,0
1,note_on,76,0,160
1,note_on,74,47,0
1,note_on,74,0,160
1,note_on,73,48,0
1,note_on,73,0,160
1,note_on,79,61,0
1,note_on,79,0,160
1,note_on,78,47,0
1,note_on,78,0,160
1,note_on,76,48,0
1,note_on,76,0,160
1,note_on,82,66,0
1,note_on,82,0,160
1,note_on,81,53,0
1,note_on,81,0,160
1,note_on,79,53,0
1,note_on,79,0,160
1,note_on,78,63,0
1,note_on,78,0,160
1,note_on,76,50,0
1,note_on,76,0,160
1,note_on,74,50,0
1,note_on,74,0,160
1,note_on,73,64,0
1,note_on,73,0,160
1,note_on,71,51,0
1,note_on,71,0,160
1,note_on,69,51,0
1,note_on,69,0,160
1,note_on,67,65,0
1,note_on,67,0,160
1,note_on,64,50,0
1,note_on,64,0,160
1,note_on,66,50,0
1,note_on,66,0,160
1,note_on,67,66,0
1,note_on,67,0,160
1,note_on,69,54,0
1,note_on,69,0,160
1,note_on,71,54,0
1,note_on,71,0,160
1,note_on,73,75,0
1,note_on,73,0,160
1,note_on,71,61,0
1,note_on,71,0,160
1,note_on,69,61,0
1,note_on,69,0,160
1,note_on,76,75,0
1,note_on,76,0,160
1,note_on,74,61,0
1,note_on,74,0,160
1,note_on,73,61,0
1,note_on,73,0,160
1,note_on,79,76,0
1,note_on,79,0,160
1,note_on,78,62,0
1,note_on,78,0,160
1,note_on,76,62,0
1,note_on,76,0,150
1,note_on,76,77,10
1,note_on,76,0,160
1,note_on,74,63,0
1,note_on,74,0,160
1,note_on,73,64,0
1,note_on,73,0,160
1,note_on,79,81,0
1,note_on,79,0,160
1,note_on,78,67,0
1,note_on,78,0,160
1,note_on,76,67,0
1,note_on,76,0,160
1,note_on,83,82,0
1,note_on,83,0,160
1,note_on,81,67,0
1,note_on,81,0,160
1,note_on,79,67,0
1,note_on,79,0,150
1,note_on,79,81,10
1,note_on,79,0,160
1,note_on,78,68,0
1,note_on,78,0,160
1,note_on,76,68,0
1,note_on,76,0,150
1,note_on,83,80,10
1,note_on,83,0,160
1,note_on,81,65,0
1,note_on,81,0,160
1,note_on,79,66,0
1,note_on,79,0,160
1,note_on,85,86,0
1,note_on,85,0,160
1,note_on,83,65,0
1,note_on,83,0,160
1,note_on,81,65,0
1,note_on,81,0,160
1,note_on,85,84,0
1,note_on,85,0,160
1,note_on,83,66,0
1,note_on,83,0,160
1,note_on,81,71,0
1,note_on,81,0,150
1,note_on,85,91,10
1,note_on,85,0,160
1,note_on,83,74,0
1,note_on,83,0,160
1,note_on,81,76,0
1,note_on,81,0,150
1,note_on,85,93,10
1,note_on,85,0,160
1,note_on,83,80,0
1,note_on,83,0,160
1,note_on,81,85,0
1,note_on,81,0,160
1,note_on,86,105,0
1,note_on,81,89,0
1,note_on,78,89,0
1,note_on,74,89,0
1,note_on,74,0,960
1,note_on,86,0,0
1,note_on,81,0,0
1,note_on,78,0,0
1,note_on,57,61,0
1,note_on,62,72,0
1,note_on,62,0,120
1,note_on,57,0,0
1,note_on,57,56,120
1,note_on,62,67,0
1,note_on,62,0,120
1,note_on,57,0,0
1,note_on,57,61,120
1,note_on,62,72,0
1,note_on,62,0,120
1,note_on,57,0,0
1,note_on,57,56,120
1,note_on,62,66,0
1,note_on,62,0,120
1,note_on,57,0,0
1,note_on,57,68,120
1,note_on,62,80,0
1,note_on,57,0,480
1,note_on,59,58,0
1,note_on,64,69,0
1,note_on,64,0,240
1,note_on,59,0,0
1,note_on,62,0,0
1,note_on,60,61,240
1,note_on,62,61,0
1,note_on,66,72,0
1,note_on,66,0,120
1,note_on,62,0,0
1,note_on,60,0,0
1,note_on,60,56,120
1,note_on,62,56,0
1,note_on,66,67,0
1,note_on,66,0,120
1,note_on,62,0,0
1,note_on,60,0,0
1,note_on,60,61,120
1,note_on,62,61,0
1,note_on,66,72,0
1,note_on,66,0,120
1,note_on,62,0,0
1,note_on,60,0,0
1,note_on,60,56,120
1,note_on,62,56,0
1,note_on,66,66,0
1,note_on,66,0,120
1,note_on,62,0,0
1,note_on,60,0,0
1,note_on,60,68,120
1,note_on,62,68,0
1,note_on,66,80,0
1,note_on,66,0,480
1,note_on,60,0,0
1,note_on,59,58,0
1,note_on,67,69,0
1,note_on,67,0,240
1,note_on,59,0,0
1,note_on,62,0,0
1,note_on,64,57,0
1,note_on,64,0,240
1,note_on,67,63,0
1,note_on,67,0,160
1,note_on,66,57,0
1,note_on,66,0,160
1,note_on,64,57,0
1,note_on,64,0,160
1,note_on,70,63,0
1,note_on,70,0,160
1,note_on,69,58,0
1,note_on,69,0,160
1,note_on,67,58,0
1,note_on,67,0,160
1,note_on,69,63,0
1,note_on,69,0,240
1,note_on,78,56,240
1,note_on,78,0,160
1,note_on,76,46,0
1,note_on,76,0,160
1,note_on,74,46,0
1,note_on,74,0,160
1,note_on,81,57,0
1,note_on,81,0,160
1,note_on,79,47,0
1,note_on,79,0,160
1,note_on,78,47,0
1,note_on,78,0,160
1,note_on,76,58,0
1,note_on,76,0,160
1,note_on,74,50,0
1,note_on,74,0,160
1,note_on,73,50,0
1,note_on,73,0,160
1,note_on,86,105,0
1,note_on,81,89,0
1,note_on,78,89,0
1,note_on,74,89,0
1,note_on,74,0,960
1,note_on,86,0,0
1,note_on,81,0,0
1,note_on,78,0,0
1,note_on,57,54,0
1,note_on,62,63,0
1,note_on,62,0,120
1,note_on,57,0,0
1,note_on,57,49,120
1,note_on,62,59,0
1,note_on,62,0,120
1,note_on,57,0,0
1,note_on,57,54,120
1,note_on,62,63,0
1,note_on,62,0,120
1,note_on,57,0,0
1,note_on,57,49,120
1,note_on,62,58,0
1,note_on,62,0,120
1,note_on,57,0,0
1,note_on,57,60,120
1,note_on,62,70,0
1,note_on,57,0,480
1,note_on,59,51,0
1,note_on,64,61,0
1,note_on,64,0,240
1,note_on,59,0,0
1,note_on,62,0,0
1,note_on,57,61,240
1,note_on,57,0,160
1,note_on,59,55,0
1,note_on,59,0,160
1,note_on,60,55,0
1,note_on,60,0,160
1,note_on,62,61,0
1,note_on,62,0,160
1,note_on,64,56,0
1,note_on,64,0,160
1,note_on,66,56,0
1,note_on,66,0,160
1,note_on,58,61,0
1,note_on,58,0,240
1,note_on,66,52,0
1,note_on,66,0,240
1,note_on,59,61,0
1,note_on,59,0,240
1,note_on,67,55,0
1,note_on,67,0,240
1,note_on,64,54,0
1,note_on,67,54,0
1,note_on,69,63,0
1,note_on,69,0,120
1,note_on,67,0,0
1,note_on,64,0,0
1,note_on,64,49,120
1,note_on,67,49,0
1,note_on,69,59,0
1,note_on,69,0,120
1,note_on,67,0,0
1,note_on,64,0,0
1,note_on,64,54,120
1,note_on,67,54,0
1,note_on,69,63,0
1,note_on,69,0,120
1,note_on,67,0,0
1,note_on,64,0,0
1,note_on,64,49,120
1,note_on,67,49,0
1,note_on,69,58,0
1,note_on,69,0,120
1,note_on,67,0,0
1,note_on,64,0,0
1,note_on,67,60,120
1,note_on,64,60,0
1,note_on,69,70,0
1,note_on,69,0,480
1,note_on,64,0,0
1,note_on,62,51,0
1,note_on,71,61,0
1,note_on,71,0,240
1,note_on,62,0,0
1,note_on,67,0,0
1,note_on,62,61,240
1,note_on,62,0,160
1,note_on,64,55,0
1,note_on,64,0,160
1,note_on,66,55,0
1,note_on,66,0,160
1,note_on,67,61,0
1,note_on,67,0,160
1,note_on,69,56,0
1,note_on,69,0,160
1,note_on,71,56,0
1,note_on,71,0,160
1,note_on,63,61,0
1,note_on,63,0,240
1,note_on,71,52,0
1,note_on,71,0,240
1,note_on,64,61,0
1,note_on,64,0,240
1,note_on,72,55,0
1,note_on,72,0,240
1,note_on,67,54,0
1,note_on,70,54,0
1,note_on,73,63,0
1,note_on,73,0,120
1,note_on,70,0,0
1,note_on,67,0,0
1,note_on,67,49,120
1,note_on,70,49,0
1,note_on,73,59,0
1,note_on,73,0,120
1,note_on,70,0,0
1,note_on,67,0,0
1,note_on,67,54,120
1,note_on,70,54,0
1,note_on,73,63,0
1,note_on,73,0,120
1,note_on,70,0,0
1,note_on,67,0,0
1,note_on,67,49,120
1,note_on,70,49,0
1,note_on,73,58,0
1,note_on,73,0,120
1,note_on,70,0,0
1,note_on,67,0,0
1,note_on,70,60,120
1,note_on,67,60,0
1,note_on,73,70,0
1,note_on,73,0,480
1,note_on,67,0,0
1,note_on,65,51,0
1,note_on,74,61,0
1,note_on,74,0,240
1,note_on,65,0,0
1,note_on,70,0,0
1,note_on,65,61,240
1,note_on,65,0,160
1,note_on,67,55,0
1,note_on,67,0,160
1,note_on,69,55,0
1,note_on,69,0,160
1,note_on,71,61,0
1,note_on,71,0,160
1,note_on,72,56,0
1,note_on,72,0,160
1,note_on,74,56,0
1,note_on,74,0,160
1,note_on,75,61,0
1,note_on,75,0,240
1,note_on,67,50,0
1,note_on,67,0,240
1,note_on,74,61,0
1,note_on,74,0,240
1,note_on,65,51,0
1,note_on,65,0,240
1,note_on,64,45,0
1,note_on,67,45,0
1,note_on,70,45,0
1,note_on,73,53,0
1,note_on,73,0,120
1,note_on,64,0,0
1,note_on,67,0,0
1,note_on,70,0,0
1,note_on,64,41,120
1,note_on,67,41,0
1,note_on,70,41,0
1,note_on,73,50,0
1,note_on,73,0,120
1,note_on,64,0,0
1,note_on,67,0,0
1,note_on,70,0,0
1,note_on,64,45,120
1,note_on,67,45,0
1,note_on,70,45,0
1,note_on,73,53,0
1,note_on,73,0,120
1,note_on,64,0,0
1,note_on,67,0,0
1,note_on,70,0,0
1,note_on,64,41,120
1,note_on,67,41,0
1,note_on,70,41,0
1,note_on,73,49,0
1,note_on,73,0,120
1,note_on,64,0,0
1,note_on,67,0,0
1,note_on,70,0,0
1,note_on,64,51,120
1,note_on,70,51,0
1,note_on,67,51,0
1,note_on,73,59,0
1,note_on,73,0,480
1,note_on,67,0,0
1,note_on,64,0,0
1,note_on,65,43,0
1,note_on,74,51,0
1,note_on,74,0,240
1,note_on,65,0,0
1,note_on,70,0,0
1,note_on,65,51,240
1,note_on,65,0,160
1,note_on,67,46,0
1,note_on,67,0,160
1,note_on,69,46,0
1,note_on,69,0,160
1,note_on,70,51,0
1,note_on,70,0,160
1,note_on,72,47,0
1,note_on,72,0,160
1,note_on,74,47,0
1,note_on,74,0,160
1,note_on,79,51,0
1,note_on,75,43,0
1,note_on,75,0,240
1,note_on,79,0,0
1,note_on,67,44,0
1,note_on,67,0,240
1,note_on,77,51,0
1,note_on,74,43,0
1,note_on,74,0,240
1,note_on,77,0,0
1,note_on,65,46,0
1,note_on,65,0,240
1,note_on,64,40,0
1,note_on,67,40,0
1,note_on,70,40,0
1,note_on,73,53,0
1,note_on,73,0,120
1,note_on,64,0,0
1,note_on,67,0,0
1,note_on,70,0,0
1,note_on,64,37,120
1,note_on,67,37,0
1,note_on,70,37,0
1,note_on,73,50,0
1,note_on,73,0,120
1,note_on,64,0,0
1,note_on,67,0,0
1,note_on,70,0,0
1,note_on,64,40,120
1,note_on,67,40,0
1,note_on,70,40,0
1,note_on,73,53,0
1,note_on,73,0,120
1,note_on,64,0,0
1,note_on,67,0,0
1,note_on,70,0,0
1,note_on,64,37,120
1,note_on,67,37,0
1,note_on,70,37,0
1,note_on,73,49,0
1,note_on,73,0,120
1,note_on,64,0,0
1,note_on,67,0,0
1,note_on,70,0,0
1,note_on,64,51,120
1,note_on,70,51,0
1,note_on,67,51,0
1,note_on,73,59,0
1,note_on,73,0,480
1,note_on,67,0,0
1,note_on,64,0,0
1,note_on,65,43,0
1,note_on,74,51,0
1,note_on,74,0,240
1,note_on,65,0,0
1,note_on,70,0,0
1,note_on,65,49,240
1,note_on,65,0,160
1,note_on,67,50,0
1,note_on,67,0,160
1,note_on,69,52,0
1,note_on,69,0,160
1,note_on,70,53,0
1,note_on,70,0,160
1,note_on,72,55,0
1,note_on,72,0,160
1,note_on,74,56,0
1,note_on,74,0,160
1,note_on,75,61,0
1,note_on,75,0,160
1,note_on,77,52,0
1,note_on,77,0,160
1,note_on,79,52,0
1,note_on,79,0,160
1,note_on,77,61,0
1,note_on,77,0,160
1,note_on,75,53,0
1,note_on,75,0,160
1,note_on,74,53,0
1,note_on,74,0,160
1,note_on,73,57,0
1,note_on,73,0,160
1,note_on,70,47,0
1,note_on,70,0,160
1,note_on,67,47,0
1,note_on,67,0,160
1,note_on,64,49,0
1,note_on,64,0,160
1,note_on,61,47,0
1,note_on,61,0,160
1,note_on,64,48,0
1,note_on,64,0,160
1,note_on,65,50,0
1,note_on,65,0,160
1,note_on,62,45,0
1,note_on,62,0,160
1,note_on,65,45,0
1,note_on,65,0,160
1,note_on,62,50,0
1,note_on,62,0,160
1,note_on,58,45,0
1,note_on,58,0,160
1,note_on,62,45,0
1,note_on,62,0,160
1,note_on,65,45,0
1,note_on,65,0,160
1,note_on,67,47,0
1,note_on,67,0,160
1,note_on,69,49,0
1,note_on,69,0,160
1,note_on,70,51,0
1,note_on,70,0,160
1,note_on,72,53,0
1,note_on,72,0,160
1,note_on,74,55,0
1,note_on,74,0,160
1,note_on,75,57,0
1,note_on,75,0,160
1,note_on,77,59,0
1,note_on,77,0,160
1,note_on,79,61,0
1,note_on,79,0,160
1,note_on,77,63,0
1,note_on,77,0,160
1,note_on,75,58,0
1,note_on,75,0,160
1,note_on,74,61,0
1,note_on,74,0,160
1,note_on,73,57,0
1,note_on,73,0,160
1,note_on,70,55,0
1,note_on,70,0,160
1,note_on,67,53,0
1,note_on,67,0,160
1,note_on,64,51,0
1,note_on,64,0,160
1,note_on,61,47,0
1,note_on,61,0,160
1,note_on,64,43,0
1,note_on,64,0,160
1,note_on,67,59,0
1,note_on,67,0,160
1,note_on,64,43,0
1,note_on,64,0,160
1,note_on,67,43,0
1,note_on,67,0,160
1,note_on,64,44,0
1,note_on,64,0,160
1,note_on,61,45,0
1,note_on,61,0,160
1,note_on,64,45,0
1,note_on,64,0,160
1,note_on,68,62,0
1,note_on,68,0,160
1,note_on,64,46,0
1,note_on,64,0,160
1,note_on,68,47,0
1,note_on,68,0,160
1,note_on,64,47,0
1,note_on,64,0,160
1,note_on,61,48,0
1,note_on,61,0,160
1,note_on,64,48,0
1,note_on,64,0,160
1,note_on,69,65,0
1,note_on,69,0,160
1,note_on,64,49,0
1,note_on,64,0,160
1,note_on,69,50,0
1,note_on,69,0,160
1,note_on,64,50,0
1,note_on,64,0,160
1,note_on,61,51,0
1,note_on,61,0,160
1,note_on,64,52,0
1,note_on,64,0,160
1,note_on,69,68,0
1,note_on,69,0,160
1,note_on,64,52,0
1,note_on,64,0,160
1,note_on,69,53,0
1,note_on,69,0,160
1,note_on,64,54,0
1,note_on,64,0,160
1,note_on,60,54,0
1,note_on,60,0,160
1,note_on,64,55,0
1,note_on,64,0,160
1,note_on,74,74,0
1,note_on,74,0,160
1,note_on,69,59,0
1,note_on,69,0,160
1,note_on,74,60,0
1,note_on,74,0,160
1,note_on,69,61,0
1,note_on,69,0,160
1,note_on,62,62,0
1,note_on,62,0,160
1,note_on,69,63,0
1,note_on,69,0,160
1,note_on,80,82,0
1,note_on,80,0,160
1,note_on,74,67,0
1,note_on,74,0,160
1,note_on,80,69,0
1,note_on,80,0,160
1,note_on,74,70,0
1,note_on,74,0,160
1,note_on,68,72,0
1,note_on,68,0,160
1,note_on,74,74,0
1,note_on,74,0,160
1,note_on,81,105,0
1,note_on,76,89,0
1,note_on,73,89,0
1,note_on,69,89,0
1,note_on,69,0,960
1,note_on,81,0,0
1,note_on,76,0,0
1,note_on,73,0,0
1,note_on,72,54,0
1,note_on,75,63,0
1,note_on,75,0,180
1,note_on,72,0,0
1,note_on,72,49,60
1,note_on,75,59,0
1,note_on,75,0,180
1,note_on,72,0,0
1,note_on,72,54,60
1,note_on,75,63,0
1,note_on,75,0,180
1,note_on,72,0,0
1,note_on,72,49,60
1,note_on,75,58,0
1,note_on,75,0,180
1,note_on,72,0,0
1,note_on,73,60,60
1,note_on,76,70,0
1,note_on,76,0,480
1,note_on,73,0,0
1,note_on,85,49,0
1,note_on,85,0,240
1,note_on,49,64,0
1,note_on,49,0,240
1,note_on,50,66,0
1,note_on,50,0,160
1,note_on,49,62,0
1,note_on,49,0,160
1,note_on,47,64,0
1,note_on,47,0,160
1,note_on,53,65,0
1,note_on,53,0,160
1,note_on,52,60,0
1,note_on,52,0,160
1,note_on,50,49,0
1,note_on,50,0,160
1,note_on,73,56,480
1,note_on,76,56,0
1,note_on,76,0,360
1,note_on,73,0,0
1,note_on,73,49,0
1,note_on,76,49,0
1,note_on,76,0,120
1,note_on,73,0,0
1,note_on,71,55,0
1,note_on,74,55,0
1,note_on,59,55,0
1,note_on,59,0,160
1,note_on,61,56,0
1,note_on,74,0,80
1,note_on,71,0,0
1,note_on,61,0,80
1,note_on,62,54,0
1,note_on,62,0,160
1,note_on,64,57,0
1,note_on,64,0,160
1,note_on,66,60,0
1,note_on,66,0,160
1,note_on,68,62,0
1,note_on,68,0,160
1,note_on,81,94,0
1,note_on,76,80,0
1,note_on,73,80,0
1,note_on,69,80,0
1,note_on,69,0,960
1,note_on,81,0,0
1,note_on,76,0,0
1,note_on,73,0,0
1,note_on,72,54,0
1,note_on,75,63,0
1,note_on,75,0,330
1,note_on,72,0,0
1,note_on,72,49,30
1,note_on,75,59,0
1,note_on,75,0,90
1,note_on,72,0,0
1,note_on,72,54,30
1,note_on,75,63,0
1,note_on,75,0,330
1,note_on,72,0,0
1,note_on,72,49,30
1,note_on,75,58,0
1,note_on,75,0,90
1,note_on,72,0,0
1,note_on,73,60,30
1,note_on,76,70,0
1,note_on,76,0,480
1,note_on,73,0,0
1,note_on,85,49,0
1,note_on,85,0,240
1,note_on,49,64,0
1,note_on,49,0,240
1,note_on,50,66,0
1,note_on,50,0,160
1,note_on,49,62,0
1,note_on,49,0,160
1,note_on,47,64,0
1,note_on,47,0,160
1,note_on,53,65,0
1,note_on,53,0,160
1,note_on,52,60,0
1,note_on,52,0,160
1,note_on,50,49,0
1,note_on,50,0,160
1,note_on,73,56,480
1,note_on,76,56,0
1,note_on,76,0,360
1,note_on,73,0,0
1,note_on,73,49,0
1,note_on,76,49,0
1,note_on,76,0,120
1,note_on,73,0,0
1,note_on,71,55,0
1,note_on,74,55,0
1,note_on,59,55,0
1,note_on,59,0,160
1,note_on,61,56,0
1,note_on,74,0,80
1,note_on,71,0,0
1,note_on,61,0,80
1,note_on,62,54,0
1,note_on,62,0,160
1,note_on,64,57,0
1,note_on,64,0,160
1,note_on,66,60,0
1,note_on,66,0,160
1,note_on,68,62,0
1,note_on,68,0,160
1,note_on,69,57,0
1,note_on,69,0,160
1,note_on,71,61,0
1,note_on,71,0,160
1,note_on,73,62,0
1,note_on,73,0,160
1,note_on,74,63,0
1,note_on,74,0,160
1,note_on,76,64,0
1,note_on,76,0,160
1,note_on,78,65,0
1,note_on,78,0,160
1,note_on,79,66,0
1,note_on,79,0,160
1,note_on,80,67,0
1,note_on,80,0,160
1,note_on,81,68,0
1,note_on,81,0,160
1,note_on,83,69,0
1,note_on,83,0,160
1,note_on,85,70,0
1,note_on,85,0,160
1,note_on,86,71,0
1,note_on,86,0,160
1,note_on,88,75,0
1,note_on,88,0,160
1,note_on,90,71,0
1,note_on,90,0,160
1,note_on,88,67,0
1,note_on,88,0,160
1,note_on,86,63,0
1,note_on,86,0,160
1,note_on,85,60,0
1,note_on,85,0,160
1,note_on,83,58,0
1,note_on,83,0,160
1,note_on,81,55,0
1,note_on,81,0,160
1,note_on,83,53,0
1,note_on,83,0,160
1,note_on,81,50,0
1,note_on,81,0,160
1,note_on,79,48,0
1,note_on,79,0,160
1,note_on,78,45,0
1,note_on,78,0,160
1,note_on,76,43,0
1,note_on,76,0,160
1,note_on,74,50,0
1,note_on,74,0,480
1,note_on,66,39,0
1,note_on,66,0,120
1,note_on,76,49,360
1,note_on,76,0,480
1,note_on,69,39,0
1,note_on,69,0,120
1,note_on,69,40,300
1,note_on,69,0,60
1,note_on,78,49,0
1,note_on,78,0,480
1,note_on,74,39,0
1,note_on,74,0,120
1,note_on,74,40,300
1,note_on,74,0,60
1,note_on,83,55,0
1,note_on,83,0,360
1,note_on,80,45,0
1,note_on,80,0,120
1,note_on,83,53,0
1,note_on,83,0,360
1,note_on,80,46,0
1,note_on,80,0,120
1,note_on,81,50,7
1,note_on,69,39,473
1,note_on,81,0,7
1,note_on,69,0,113
1,note_on,69,40,300
1,note_on,69,0,60
1,note_on,79,49,0
1,note_on,79,0,480
1,note_on,76,39,0
1,note_on,76,0,120
1,note_on,76,40,300
1,note_on,76,0,60
1,note_on,78,49,0
1,note_on,78,0,480
1,note_on,69,39,0
1,note_on,69,0,120
1,note_on,69,40,300
1,note_on,69,0,60
1,note_on,76,55,0
1,note_on,76,0,360
1,note_on,73,45,0
1,note_on,73,0,120
1,note_on,76,53,0
1,note_on,76,0,360
1,note_on,73,46,0
1,note_on,73,0,120
1,note_on,74,50,0
1,note_on,74,0,160
1,note_on,69,44,0
1,note_on,69,0,160
1,note_on,74,38,0
1,note_on,74,0,160
1,note_on,66,39,0
1,note_on,66,0,120
1,note_on,76,50,360
1,note_on,76,0,160
1,note_on,73,44,0
1,note_on,73,0,160
1,note_on,76,38,0
1,note_on,76,0,160
1,note_on,69,39,0
1,note_on,69,0,120
1,note_on,78,50,360
1,note_on,78,0,160
1,note_on,76,44,0
1,note_on,76,0,160
1,note_on,78,38,0
1,note_on,78,0,160
1,note_on,74,39,0
1,note_on,74,0,120
1,note_on,83,55,360
1,note_on,83,0,160
1,note_on,80,47,0
1,note_on,80,0,160
1,note_on,83,47,0
1,note_on,83,0,160
1,note_on,86,55,0
1,note_on,86,0,160
1,note_on,83,47,0
1,note_on,83,0,160
1,note_on,80,47,0
1,note_on,80,0,160
1,note_on,81,50,0
1,note_on,81,0,160
1,note_on,78,44,0
1,note_on,78,0,160
1,note_on,81,38,0
1,note_on,81,0,160
1,note_on,69,39,0
1,note_on,69,0,120
1,note_on,79,50,360
1,note_on,79,0,160
1,note_on,78,44,0
1,note_on,78,0,160
1,note_on,79,38,0
1,note_on,79,0,160
1,note_on,76,39,0
1,note_on,76,0,120
1,note_on,78,50,360
1,note_on,78,0,160
1,note_on,74,44,0
1,note_on,74,0,160
1,note_on,78,38,0
1,note_on,78,0,160
1,note_on,69,39,0
1,note_on,69,0,120
1,note_on,76,55,360
1,note_on,76,0,360
1,note_on,73,45,0
1,note_on,73,0,120
1,note_on,76,53,0
1,note_on,76,0,360
1,note_on,73,46,0
1,note_on,73,0,120
1,note_on,76,78,0
1,note_on,76,0,160
1,note_on,67,62,0
1,note_on,67,0,160
1,note_on,76,62,0
1,note_on,76,0,160
1,note_on,60,78,0
1,note_on,60,0,840
1,note_on,76,59,0
1,note_on,67,59,0
1,note_on,67,0,120
1,note_on,76,0,0
1,note_on,60,78,0
1,note_on,60,0,360
1,note_on,67,62,0
1,note_on,67,0,120
1,note_on,76,75,0
1,note_on,76,0,160
1,note_on,67,56,0
1,note_on,67,0,160
1,note_on,76,56,0
1,note_on,76,0,160
1,note_on,60,74,0
1,note_on,60,0,840
1,note_on,76,59,0
1,note_on,67,59,0
1,note_on,67,0,120
1,note_on,76,0,0
1,note_on,60,74,0
1,note_on,60,0,840
1,note_on,67,52,0
1,note_on,76,62,0
1,note_on,76,0,120
1,note_on,67,0,0
1,note_on,60,74,0
1,note_on,60,0,840
1,note_on,67,52,0
1,note_on,76,62,0
1,note_on,76,0,120
1,note_on,67,0,0
1,note_on,60,74,0
1,note_on,60,0,360
1,note_on,76,62,0
1,note_on,67,52,0
1,note_on,67,0,120
1,note_on,76,0,0
1,note_on,77,79,0
1,note_on,77,0,160
1,note_on,69,62,0
1,note_on,69,0,160
1,note_on,77,62,0
1,note_on,77,0,160
1,note_on,81,81,0
1,note_on,81,0,840
1,note_on,69,59,0
1,note_on,69,0,120
1,note_on,77,62,0
1,note_on,81,74,0
1,note_on,81,0,360
1,note_on,77,0,0
1,note_on,69,62,0
1,note_on,69,0,120
1,note_on,77,71,0
1,note_on,77,0,160
1,note_on,69,56,0
1,note_on,69,0,160
1,note_on,77,56,0
1,note_on,77,0,160
1,note_on,81,74,0
1,note_on,81,0,840
1,note_on,69,59,0
1,note_on,69,0,120
1,note_on,77,74,0
1,note_on,81,74,0
1,note_on,81,0,840
1,note_on,77,0,0
1,note_on,69,62,0
1,note_on,69,0,120
1,note_on,77,74,0
1,note_on,81,80,0
1,note_on,81,0,840
1,note_on,77,0,0
1,note_on,69,53,0
1,note_on,69,0,120
1,note_on,73,57,0
1,note_on,79,57,0
1,note_on,81,63,0
1,note_on,81,0,840
1,note_on,79,0,0
1,note_on,73,0,0
1,note_on,69,42,0
1,note_on,69,0,120
1,note_on,73,44,0
1,note_on,79,44,0
1,note_on,81,53,0
1,note_on,81,0,360
1,note_on,79,0,0
1,note_on,73,0,0
1,note_on,69,42,0
1,note_on,69,0,120
1,note_on,73,41,0
1,note_on,79,41,0
1,note_on,81,48,0
1,note_on,81,0,360
1,note_on,79,0,0
1,note_on,73,0,0
1,note_on,69,39,0
1,note_on,69,0,120
1,note_on,73,37,0
1,note_on,79,37,0
1,note_on,81,44,0
1,note_on,81,0,360
1,note_on,79,0,0
1,note_on,73,0,0
1,note_on,69,35,0
1,note_on,69,0,120
1,note_on,74,42,0
1,note_on,78,42,0
1,note_on,81,50,0
1,note_on,81,0,120
1,note_on,78,0,0
1,note_on,74,0,0
1,note_on,69,39,40
1,note_on,69,0,160
1,note_on,74,41,0
1,note_on,74,0,160
1,note_on,78,42,0
1,note_on,78,0,160
1,note_on,81,44,0
1,note_on,81,0,160
1,note_on,86,45,0
1,note_on,86,0,160
1,note_on,81,47,0
1,note_on,81,0,160
1,note_on,74,45,0
1,note_on,74,0,160
1,note_on,78,49,0
1,note_on,78,0,160
1,note_on,81,52,0
1,note_on,81,0,160
1,note_on,86,52,0
1,note_on,86,0,160
1,note_on,90,47,0
1,note_on,90,0,160
1,note_on,81,52,0
1,note_on,81,0,160
1,note_on,83,45,0
1,note_on,83,0,160
1,note_on,81,45,0
1,note_on,81,0,160
1,note_on,79,52,0
1,note_on,79,0,160
1,note_on,83,47,0
1,note_on,83,0,160
1,note_on,79,47,0
1,note_on,79,0,160
1,note_on,78,53,0
1,note_on,78,0,160
1,note_on,81,47,0
1,note_on,81,0,160
1,note_on,78,47,0
1,note_on,78,0,160
1,note_on,76,52,0
1,note_on,76,0,160
1,note_on,79,47,0
1,note_on,79,0,160
1,note_on,76,47,0
1,note_on,76,0,160
1,note_on,74,50,0
1,note_on,74,0,160
1,note_on,69,39,0
1,note_on,69,0,160
1,note_on,74,41,0
1,note_on,74,0,160
1,note_on,78,42,0
1,note_on,78,0,160
1,note_on,81,44,0
1,note_on,81,0,160
1,note_on,86,45,0
1,note_on,86,0,160
1,note_on,81,47,0
1,note_on,81,0,160
1,note_on,74,45,0
1,note_on,74,0,160
1,note_on,78,49,0
1,note_on,78,0,160
1,note_on,81,52,0
1,note_on,81,0,160
1,note_on,86,52,0
1,note_on,86,0,160
1,note_on,90,47,0
1,note_on,90,0,160
1,note_on,81,52,0
1,note_on,81,0,160
1,note_on,83,45,0
1,note_on,83,0,160
1,note_on,81,45,0
1,note_on,81,0,160
1,note_on,79,52,0
1,note_on,79,0,160
1,note_on,81,47,0
1,note_on,81,0,160
1,note_on,79,47,0
1,note_on,79,0,160
1,note_on,78,53,0
1,note_on,78,0,160
1,note_on,79,47,0
1,note_on,79,0,160
1,note_on,78,47,0
1,note_on,78,0,160
1,note_on,76,52,0
1,note_on,76,0,160
1,note_on,78,47,0
1,note_on,78,0,160
1,note_on,76,47,0
1,note_on,76,0,160
1,note_on,66,42,0
1,note_on,66,0,160
1,note_on,69,37,0
1,note_on,69,0,160
1,note_on,66,37,0
1,note_on,66,0,160
1,note_on,69,43,0
1,note_on,69,0,160
1,note_on,74,36,0
1,note_on,74,0,160
1,note_on,69,37,0
1,note_on,69,0,140
1,note_on,69,43,20
1,note_on,69,0,160
1,note_on,73,37,0
1,note_on,73,0,160
1,note_on,69,38,0
1,note_on,69,0,160
1,note_on,73,43,0
1,note_on,73,0,160
1,note_on,76,39,0
1,note_on,76,0,160
1,note_on,73,39,0
1,note_on,73,0,160
1,note_on,69,43,0
1,note_on,69,0,160
1,note_on,74,38,0
1,note_on,74,0,160
1,note_on,69,38,0
1,note_on,69,0,160
1,note_on,74,43,0
1,note_on,74,0,160
1,note_on,78,38,0
1,note_on,78,0,160
1,note_on,74,38,0
1,note_on,74,0,140
1,note_on,74,43,20
1,note_on,74,0,160
1,note_on,77,37,0
1,note_on,77,0,160
1,note_on,74,37,0
1,note_on,74,0,160
1,note_on,77,43,0
1,note_on,77,0,160
1,note_on,80,37,0
1,note_on,80,0,160
1,note_on,77,37,0
1,note_on,77,0,160
1,note_on,74,42,0
1,note_on,74,0,160
1,note_on,78,37,0
1,note_on,78,0,160
1,note_on,74,37,0
1,note_on,74,0,160
1,note_on,78,43,0
1,note_on,78,0,160
1,note_on,81,36,0
1,note_on,81,0,160
1,note_on,78,37,0
1,note_on,78,0,140
1,note_on,69,43,20
1,note_on,69,0,160
1,note_on,76,37,0
1,note_on,76,0,160
1,note_on,69,38,0
1,note_on,69,0,160
1,note_on,76,43,0
1,note_on,76,0,160
1,note_on,79,39,0
1,note_on,79,0,160
1,note_on,76,39,0
1,note_on,76,0,160
1,note_on,69,43,0
1,note_on,69,0,160
1,note_on,74,38,0
1,note_on,74,0,160
1,note_on,69,38,0
1,note_on,69,0,160
1,note_on,74,43,0
1,note_on,74,0,160
1,note_on,78,38,0
1,note_on,78,0,160
1,note_on,74,38,0
1,note_on,74,0,140
1,note_on,69,43,20
1,note_on,69,0,160
1,note_on,73,37,0
1,note_on,73,0,160
1,note_on,69,37,0
1,note_on,69,0,160
1,note_on,73,43,0
1,note_on,73,0,160
1,note_on,76,37,0
1,note_on,76,0,160
1,note_on,73,37,0
1,note_on,73,0,160
1,note_on,78,42,0
1,note_on,78,0,160
1,note_on,81,37,0
1,note_on,81,0,160
1,note_on,78,37,0
1,note_on,78,0,160
1,note_on,81,43,0
1,note_on,81,0,160
1,note_on,86,36,0
1,note_on,86,0,160
1,note_on,81,37,0
1,note_on,81,0,140
1,note_on,81,43,20
1,note_on,81,0,160
1,note_on,85,37,0
1,note_on,85,0,160
1,note_on,81,38,0
1,note_on,81,0,160
1,note_on,85,43,0
1,note_on,85,0,160
1,note_on,88,39,0
1,note_on,88,0,160
1,note_on,85,39,0
1,note_on,85,0,160
1,note_on,81,50,0
1,note_on,81,0,160
1,note_on,86,41,0
1,note_on,86,0,160
1,note_on,81,41,0
1,note_on,81,0,160
1,note_on,86,48,0
1,note_on,86,0,160
1,note_on,90,38,0
1,note_on,90,0,160
1,note_on,86,38,0
1,note_on,86,0,140
1,note_on,86,47,20
1,note_on,86,0,160
1,note_on,89,40,0
1,note_on,89,0,160
1,note_on,86,40,0
1,note_on,86,0,160
1,note_on,89,49,0
1,note_on,89,0,160
1,note_on,92,43,0
1,note_on,92,0,160
1,note_on,89,43,0
1,note_on,89,0,160
1,note_on,86,55,0
1,note_on,86,0,160
1,note_on,89,49,0
1,note_on,89,0,160
1,note_on,86,49,0
1,note_on,86,0,160
1,note_on,89,55,0
1,note_on,89,0,160
1,note_on,92,49,0
1,note_on,92,0,160
1,note_on,89,49,0
1,note_on,89,0,140
1,note_on,86,43,20
1,note_on,86,0,160
1,note_on,89,37,0
1,note_on,89,0,160
1,note_on,86,37,0
1,note_on,86,0,160
1,note_on,89,43,0
1,note_on,89,0,160
1,note_on,92,37,0
1,note_on,92,0,160
1,note_on,89,37,0
1,note_on,89,0,160
1,note_on,86,43,0
1,note_on,86,0,160
1,note_on,89,38,0
1,note_on,89,0,160
1,note_on,86,38,0
1,note_on,86,0,160
1,note_on,89,43,0
1,note_on,89,0,160
1,note_on,92,38,0
1,note_on,92,0,160
1,note_on,89,38,0
1,note_on,89,0,140
1,note_on,86,43,20
1,note_on,86,0,160
1,note_on,89,37,0
1,note_on,89,0,160
1,note_on,86,37,0
1,note_on,86,0,160
1,note_on,89,43,0
1,note_on,89,0,160
1,note_on,94,37,0
1,note_on,94,0,160
1,note_on,89,37,0
1,note_on,89,0,160
1,note_on,86,43,0
1,note_on,86,0,160
1,note_on,89,38,0
1,note_on,89,0,160
1,note_on,86,38,0
1,note_on,86,0,160
1,note_on,89,43,0
1,note_on,89,0,160
1,note_on,94,38,0
1,note_on,94,0,160
1,note_on,89,38,0
1,note_on,89,0,140
1,note_on,86,43,20
1,note_on,86,0,160
1,note_on,89,37,0
1,note_on,89,0,160
1,note_on,86,36,0
1,note_on,86,0,160
1,note_on,89,42,0
1,note_on,89,0,160
1,note_on,94,36,0
1,note_on,94,0,160
1,note_on,89,36,0
1,note_on,89,0,160
1,note_on,87,41,0
1,note_on,87,0,160
1,note_on,91,36,0
1,note_on,91,0,160
1,note_on,87,36,0
1,note_on,87,0,160
1,note_on,91,40,0
1,note_on,91,0,160
1,note_on,94,36,0
1,note_on,94,0,160
1,note_on,91,35,0
1,note_on,91,0,140
1,note_on,85,39,20
1,note_on,85,0,160
1,note_on,88,34,0
1,note_on,88,0,160
1,note_on,85,34,0
1,note_on,85,0,160
1,note_on,88,39,0
1,note_on,88,0,160
1,note_on,93,33,0
1,note_on,93,0,160
1,note_on,88,33,0
1,note_on,88,0,160
1,note_on,86,38,0
1,note_on,86,0,160
1,note_on,90,33,0
1,note_on,90,0,160
1,note_on,86,33,0
1,note_on,86,0,160
1,note_on,90,37,0
1,note_on,90,0,160
1,note_on,93,33,0
1,note_on,93,0,160
1,note_on,90,33,0
1,note_on,90,0,140
1,note_on,79,36,20
1,note_on,79,0,160
1,note_on,86,31,0
1,note_on,86,0,160
1,note_on,79,31,0
1,note_on,79,0,150
1,note_on,86,36,10
1,note_on,86,0,160
1,note_on,91,31,0
1,note_on,91,0,160
1,note_on,86,30,0
1,note_on,86,0,160
1,note_on,81,35,0
1,note_on,81,0,160
1,note_on,86,31,0
1,note_on,86,0,160
1,note_on,81,30,0
1,note_on,81,0,160
1,note_on,86,34,0
1,note_on,86,0,160
1,note_on,90,30,0
1,note_on,90,0,160
1,note_on,86,30,0
1,note_on,86,0,140
1,note_on,81,33,20
1,note_on,81,0,160
1,note_on,88,28,0
1,note_on,88,0,160
1,note_on,85,28,0
1,note_on,85,0,150
1,note_on,81,33,10
1,note_on,81,0,160
1,note_on,79,28,0
1,note_on,79,0,160
1,note_on,76,28,0
1,note_on,76,0,160
1,note_on,72,87,0
1,note_on,72,0,160
1,note_on,74,55,0
1,note_on,74,0,160
1,note_on,72,55,0
1,note_on,72,0,160
1,note_on,69,61,0
1,note_on,69,0,160
1,note_on,66,55,0
1,note_on,66,0,160
1,note_on,62,55,0
1,note_on,62,0,160
1,note_on,60,75,0
1,note_on,60,0,160
1,note_on,62,48,0
1,note_on,62,0,160
1,note_on,60,48,0
1,note_on,60,0,160
1,note_on,62,54,0
1,note_on,62,0,160
1,note_on,60,50,0
1,note_on,60,0,160
1,note_on,62,50,0
1,note_on,62,0,160
1,note_on,70,84,0
1,note_on,70,0,160
1,note_on,74,55,0
1,note_on,74,0,160
1,note_on,72,55,0
1,note_on,72,0,160
1,note_on,70,61,0
1,note_on,70,0,160
1,note_on,65,55,0
1,note_on,65,0,160
1,note_on,62,55,0
1,note_on,62,0,160
1,note_on,58,77,0
1,note_on,58,0,160
1,note_on,62,48,0
1,note_on,62,0,160
1,note_on,58,48,0
1,note_on,58,0,160
1,note_on,62,54,0
1,note_on,62,0,160
1,note_on,58,50,0
1,note_on,58,0,160
1,note_on,62,50,0
1,note_on,62,0,160
1,note_on,72,88,0
1,note_on,72,0,160
1,note_on,74,55,0
1,note_on,74,0,160
1,note_on,72,55,0
1,note_on,72,0,160
1,note_on,69,61,0
1,note_on,69,0,160
1,note_on,66,55,0
1,note_on,66,0,160
1,note_on,62,55,0
1,note_on,62,0,160
1,note_on,60,75,0
1,note_on,60,0,160
1,note_on,62,48,0
1,note_on,62,0,160
1,note_on,60,48,0
1,note_on,60,0,160
1,note_on,62,54,0
1,note_on,62,0,160
1,note_on,60,50,0
1,note_on,60,0,160
1,note_on,62,50,0
1,note_on,62,0,160
1,note_on,70,87,0
1,note_on,70,0,160
1,note_on,74,55,0
1,note_on,74,0,160
1,note_on,72,55,0
1,note_on,72,0,160
1,note_on,70,61,0
1,note_on,70,0,160
1,note_on,65,55,0
1,note_on,65,0,160
1,note_on,62,55,0
1,note_on,62,0,160
1,note_on,58,77,0
1,note_on,58,0,160
1,note_on,62,48,0
1,note_on,62,0,160
1,note_on,58,48,0
1,note_on,58,0,160
1,note_on,62,54,0
1,note_on,62,0,160
1,note_on,58,50,0
1,note_on,58,0,160
1,note_on,62,50,0
1,note_on,62,0,160
1,note_on,78,44,480
1,note_on,81,44,0
1,note_on,81,0,360
1,note_on,78,0,0
1,note_on,78,39,0
1,note_on,81,39,0
1,note_on,81,0,120
1,note_on,78,0,0
1,note_on,76,44,0
1,note_on,79,44,0
1,note_on,67,44,0
1,note_on,67,0,160
1,note_on,69,44,0
1,note_on,79,0,80
1,note_on,76,0,0
1,note_on,69,0,80
1,note_on,71,43,0
1,note_on,71,0,160
1,note_on,73,45,0
1,note_on,73,0,160
1,note_on,74,48,0
1,note_on,74,0,160
1,note_on,76,49,0
1,note_on,76,0,160
1,note_on,78,45,0
1,note_on,78,0,160
1,note_on,79,48,0
1,note_on,79,0,160
1,note_on,81,48,0
1,note_on,81,0,157
1,note_on,83,50,3
1,note_on,83,0,160
1,note_on,85,52,0
1,note_on,85,0,160
1,note_on,86,52,0
1,note_on,86,0,160
1,note_on,88,54,0
1,note_on,88,0,160
1,note_on,90,56,0
1,note_on,90,0,160
1,note_on,91,56,0
1,note_on,91,0,160
1,note_on,93,58,0
1,note_on,93,0,160
1,note_on,95,60,0
1,note_on,95,0,160
1,note_on,97,60,0
1,note_on,97,0,160
1,note_on,98,62,0
1,note_on,98,0,160
1,note_on,97,62,0
1,note_on,97,0,160
1,note_on,95,60,0
1,note_on,95,0,160
1,note_on,93,60,0
1,note_on,93,0,160
1,note_on,91,58,0
1,note_on,91,0,160
1,note_on,90,56,0
1,note_on,90,0,160
1,note_on,88,55,0
1,note_on,88,0,160
1,note_on,86,54,0
1,note_on,86,0,160
1,note_on,85,52,0
1,note_on,85,0,160
1,note_on,83,51,0
1,note_on,83,0,160
1,note_on,81,50,0
1,note_on,81,0,160
1,note_on,79,48,0
1,note_on,79,0,160
1,note_on,78,46,0
1,note_on,78,0,160
1,note_on,76,45,0
1,note_on,76,0,160
1,note_on,74,44,0
1,note_on,74,0,160
1,note_on,73,43,0
1,note_on,73,0,160
1,note_on,71,41,0
1,note_on,71,0,160
1,note_on,69,40,0
1,note_on,69,0,160
1,note_on,67,40,0
1,note_on,67,0,160
1,note_on,71,39,0
1,note_on,71,0,160
1,note_on,69,37,0
1,note_on,69,0,160
1,note_on,67,35,0
1,note_on,67,0,160
1,note_on,66,33,0
1,note_on,66,0,160
1,note_on,64,31,0
1,note_on,64,0,160
1,note_on,72,83,0
1,note_on,72,0,160
1,note_on,74,55,0
1,note_on,74,0,160
1,note_on,72,55,0
1,note_on,72,0,160
1,note_on,69,61,0
1,note_on,69,0,160
1,note_on,66,55,0
1,note_on,66,0,160
1,note_on,62,55,0
1,note_on,62,0,160
1,note_on,60,75,0
1,note_on,60,0,160
1,note_on,62,48,0
1,note_on,62,0,160
1,note_on,60,48,0
1,note_on,60,0,160
1,note_on,62,54,0
1,note_on,62,0,160
1,note_on,60,50,0
1,note_on,60,0,160
1,note_on,62,50,0
1,note_on,62,0,160
1,note_on,70,84,0
1,note_on,70,0,160
1,note_on,74,55,0
1,note_on,74,0,160
1,note_on,72,55,0
1,note_on,72,0,160
1,note_on,70,61,0
1,note_on,70,0,160
1,note_on,65,55,0
1,note_on,65,0,160
1,note_on,62,55,0
1,note_on,62,0,160
1,note_on,58,77,0
1,note_on,58,0,160
1,note_on,62,48,0
1,note_on,62,0,160
1,note_on,58,48,0
1,note_on,58,0,160
1,note_on,62,54,0
1,note_on,62,0,160
1,note_on,58,50,0
1,note_on,58,0,160
1,note_on,62,50,0
1,note_on,62,0,160
1,note_on,70,84,0
1,note_on,70,0,160
1,note_on,72,55,0
1,note_on,72,0,160
1,note_on,70,55,0
1,note_on,70,0,160
1,note_on,67,61,0
1,note_on,67,0,160
1,note_on,64,55,0
1,note_on,64,0,160
1,note_on,60,55,0
1,note_on,60,0,160
1,note_on,58,77,0
1,note_on,58,0,160
1,note_on,60,48,0
1,note_on,60,0,160
1,note_on,58,48,0
1,note_on,58,0,160
1,note_on,60,54,0
1,note_on,60,0,160
1,note_on,58,50,0
1,note_on,58,0,160
1,note_on,60,50,0
1,note_on,60,0,160
1,note_on,68,84,0
1,note_on,68,0,160
1,note_on,72,55,0
1,note_on,72,0,160
1,note_on,70,55,0
1,note_on,70,0,160
1,note_on,68,70,0
1,note_on,68,0,160
1,note_on,63,55,0
1,note_on,63,0,160
1,note_on,60,55,0
1,note_on,60,0,160
1,note_on,56,77,0
1,note_on,56,0,160
1,note_on,60,48,0
1,note_on,60,0,160
1,note_on,56,48,0
1,note_on,56,0,160
1,note_on,60,54,0
1,note_on,60,0,160
1,note_on,56,50,0
1,note_on,56,0,160
1,note_on,60,50,0
1,note_on,60,0,160
1,note_on,68,84,0
1,note_on,68,0,160
1,note_on,70,55,0
1,note_on,70,0,160
1,note_on,68,55,0
1,note_on,68,0,160
1,note_on,65,71,0
1,note_on,65,0,160
1,note_on,62,55,0
1,note_on,62,0,160
1,note_on,58,55,0
1,note_on,58,0,160
1,note_on,66,84,0
1,note_on,66,0,160
1,note_on,70,55,0
1,note_on,70,0,160
1,note_on,66,55,0
1,note_on,66,0,160
1,note_on,61,61,0
1,note_on,61,0,160
1,note_on,58,55,0
1,note_on,58,0,160
1,note_on,54,55,0
1,note_on,54,0,160
1,note_on,67,84,0
1,note_on,67,0,160
1,note_on,69,55,0
1,note_on,69,0,160
1,note_on,67,55,0
1,note_on,67,0,160
1,note_on,64,61,0
1,note_on,64,0,160
1,note_on,61,55,0
1,note_on,61,0,160
1,note_on,57,55,0
1,note_on,57,0,160
1,note_on,65,84,0
1,note_on,65,0,160
1,note_on,69,55,0
1,note_on,69,0,160
1,note_on,65,55,0
1,note_on,65,0,160
1,note_on,60,61,0
1,note_on,60,0,160
1,note_on,57,55,0
1,note_on,57,0,160
1,note_on,53,55,0
1,note_on,53,0,160
1,note_on,58,84,0
1,note_on,58,0,160
1,note_on,62,55,0
1,note_on,62,0,160
1,note_on,58,55,0
1,note_on,58,0,160
1,note_on,53,61,0
1,note_on,53,0,160
1,note_on,50,55,0
1,note_on,50,0,160
1,note_on,46,55,0
1,note_on,46,0,160
1,note_on,50,69,0
1,note_on,50,0,160
1,note_on,46,43,0
1,note_on,46,0,160
1,note_on,50,43,0
1,note_on,50,0,160
1,note_on,46,48,0
1,note_on,46,0,160
1,note_on,50,45,0
1,note_on,50,0,160
1,note_on,46,45,0
1,note_on,46,0,160
1,note_on,50,56,0
1,note_on,50,0,160
1,note_on,46,39,0
1,note_on,46,0,160
1,note_on,50,39,0
1,note_on,50,0,160
1,note_on,46,42,0
1,note_on,46,0,160
1,note_on,50,39,0
1,note_on,50,0,160
1,note_on,46,38,0
1,note_on,46,0,160
1,note_on,50,46,0
1,note_on,50,0,160
1,note_on,46,34,0
1,note_on,46,0,160
1,note_on,50,33,0
1,note_on,50,0,160
1,note_on,46,36,0
1,note_on,46,0,160
1,note_on,50,33,0
1,note_on,50,0,160
1,note_on,46,32,0
1,note_on,46,0,160
1,note_on,69,44,480
1,note_on,66,44,0
1,note_on,66,0,360
1,note_on,69,0,0
1,note_on,66,39,0
1,note_on,69,39,0
1,note_on,69,0,120
1,note_on,66,0,0
1,note_on,55,44,0
1,note_on,64,44,0
1,note_on,67,44,0
1,note_on,55,0,160
1,note_on,57,44,0
1,note_on,67,0,80
1,note_on,64,0,0
1,note_on,57,0,80
1,note_on,59,43,0
1,note_on,59,0,160
1,note_on,61,45,0
1,note_on,61,0,160
1,note_on,62,48,0
1,note_on,62,0,160
1,note_on,64,49,0
1,note_on,64,0,160
1,note_on,66,45,0
1,note_on,66,0,160
1,note_on,67,48,0
1,note_on,67,0,160
1,note_on,69,48,0
1,note_on,69,0,157
1,note_on,71,50,3
1,note_on,71,0,160
1,note_on,73,52,0
1,note_on,73,0,160
1,note_on,74,52,0
1,note_on,74,0,160
1,note_on,76,54,0
1,note_on,76,0,160
1,note_on,78,56,0
1,note_on,78,0,160
1,note_on,79,56,0
1,note_on,79,0,160
1,note_on,81,58,0
1,note_on,81,0,160
1,note_on,83,60,0
1,note_on,83,0,160
1,note_on,85,60,0
1,note_on,85,0,160
1,note_on,74,51,0
1,note_on,74,0,160
1,note_on,76,51,0
1,note_on,76,0,160
1,note_on,78,52,0
1,note_on,78,0,160
1,note_on,79,53,0
1,note_on,79,0,160
1,note_on,81,53,0
1,note_on,81,0,160
1,note_on,83,54,0
1,note_on,83,0,160
1,note_on,85,55,0
1,note_on,85,0,160
1,note_on,86,55,0
1,note_on,86,0,160
1,note_on,88,56,0
1,note_on,88,0,160
1,note_on,90,56,0
1,note_on,90,0,160
1,note_on,91,57,0
1,note_on,91,0,160
1,note_on,93,58,0
1,note_on,93,0,160
1,note_on,81,58,0
1,note_on,81,0,160
1,note_on,83,59,0
1,note_on,83,0,160
1,note_on,85,60,0
1,note_on,85,0,160
1,note_on,86,60,0
1,note_on,86,0,160
1,note_on,88,61,0
1,note_on,88,0,160
1,note_on,90,62,0
1,note_on,90,0,160
1,note_on,91,62,0
1,note_on,91,0,160
1,note_on,93,63,0
1,note_on,93,0,160
1,note_on,95,64,0
1,note_on,95,0,160
1,note_on,97,64,0
1,note_on,97,0,160
1,note_on,98,65,0
1,note_on,98,0,160
1,note_on,100,65,0
1,note_on,100,0,160
1,note_on,86,73,0
1,note_on,86,0,160
1,note_on,88,62,0
1,note_on,88,0,160
1,note_on,86,63,0
1,note_on,86,0,160
1,note_on,90,73,0
1,note_on,90,0,160
1,note_on,98,63,0
1,note_on,98,0,160
1,note_on,90,64,0
1,note_on,90,0,160
1,note_on,86,71,0
1,note_on,86,0,160
1,note_on,88,65,0
1,note_on,88,0,160
1,note_on,86,66,0
1,note_on,86,0,160
1,note_on,86,71,0
1,note_on,86,0,160
1,note_on,98,63,0
1,note_on,98,0,160
1,note_on,86,63,0
1,note_on,86,0,150
1,note_on,81,72,10
1,note_on,81,0,160
1,note_on,90,61,0
1,note_on,90,0,160
1,note_on,81,61,0
1,note_on,81,0,160
1,note_on,90,66,0
1,note_on,90,0,160
1,note_on,93,67,0
1,note_on,93,0,160
1,note_on,90,62,0
1,note_on,90,0,160
1,note_on,81,72,0
1,note_on,81,0,160
1,note_on,90,62,0
1,note_on,90,0,160
1,note_on,81,62,0
1,note_on,81,0,160
1,note_on,90,73,0
1,note_on,90,0,160
1,note_on,93,64,0
1,note_on,93,0,160
1,note_on,90,64,0
1,note_on,90,0,160
1,note_on,78,73,0
1,note_on,78,0,160
1,note_on,86,65,0
1,note_on,86,0,160
1,note_on,78,65,0
1,note_on,78,0,160
1,note_on,86,73,0
1,note_on,86,0,160
1,note_on,90,65,0
1,note_on,90,0,160
1,note_on,86,65,0
1,note_on,86,0,160
1,note_on,78,75,0
1,note_on,78,0,160
1,note_on,86,67,0
1,note_on,86,0,160
1,note_on,78,67,0
1,note_on,78,0,160
1,note_on,86,76,0
1,note_on,86,0,160
1,note_on,90,70,0
1,note_on,90,0,160
1,note_on,86,70,0
1,note_on,86,0,160
1,note_on,74,76,0
1,note_on,74,0,160
1,note_on,78,70,0
1,note_on,78,0,160
1,note_on,74,70,0
1,note_on,74,0,160
1,note_on,78,79,0
1,note_on,78,0,160
1,note_on,86,71,0
1,note_on,86,0,160
1,note_on,78,71,0
1,note_on,78,0,150
1,note_on,74,80,10
1,note_on,74,0,160
1,note_on,78,72,0
1,note_on,78,0,160
1,note_on,74,73,0
1,note_on,74,0,160
1,note_on,78,81,0
1,note_on,78,0,160
1,note_on,86,74,0
1,note_on,86,0,160
1,note_on,78,74,0
1,note_on,78,0,160
1,note_on,86,105,0
1,note_on,81,89,0
1,note_on,78,89,0
1,note_on,74,89,0
1,note_on,74,0,960
1,note_on,86,0,0
1,note_on,81,0,0
1,note_on,78,0,0
1,note_on,66,73,0
1,note_on,74,86,0
1,note_on,74,0,120
1,note_on,66,0,0
1,note_on,66,66,120
1,note_on,74,80,0
1,note_on,74,0,120
1,note_on,66,0,0
1,note_on,66,73,120
1,note_on,74,86,0
1,note_on,74,0,120
1,note_on,66,0,0
1,note_on,66,66,120
1,note_on,74,79,0
1,note_on,74,0,120
1,note_on,66,0,0
1,note_on,66,81,120
1,note_on,74,95,0
1,note_on,74,0,480
1,note_on,66,0,0
1,note_on,69,69,0
1,note_on,76,82,0
1,note_on,76,0,240
1,note_on,69,0,0
1,note_on,69,81,240
1,note_on,76,95,0
1,note_on,76,0,480
1,note_on,69,0,0
1,note_on,74,69,0
1,note_on,78,82,0
1,note_on,78,0,240
1,note_on,74,0,0
1,note_on,74,81,240
1,note_on,78,95,0
1,note_on,78,0,480
1,note_on,74,0,0
1,note_on,69,69,0
1,note_on,76,82,0
1,note_on,76,0,240
1,note_on,69,0,0
1,note_on,69,73,240
1,note_on,76,86,0
1,note_on,76,0,120
1,note_on,69,0,0
1,note_on,69,66,120
1,note_on,76,80,0
1,note_on,76,0,120
1,note_on,69,0,0
1,note_on,69,73,120
1,note_on,76,86,0
1,note_on,76,0,120
1,note_on,69,0,0
1,note_on,69,66,120
1,note_on,76,79,0
1,note_on,76,0,120
1,note_on,69,0,0
1,note_on,69,81,120
1,note_on,76,95,0
1,note_on,76,0,480
1,note_on,69,0,0
1,note_on,78,69,0
1,note_on,81,82,0
1,note_on,81,0,240
1,note_on,78,0,0
1,note_on,78,81,240
1,note_on,81,95,0
1,note_on,81,0,480
1,note_on,78,0,0
1,note_on,73,69,0
1,note_on,79,82,0
1,note_on,79,0,240
1,note_on,73,0,0
1,note_on,73,81,240
1,note_on,79,95,0
1,note_on,79,0,480
1,note_on,73,0,0
1,note_on,74,69,0
1,note_on,78,82,0
1,note_on,78,0,240
1,note_on,74,0,0
1,note_on,74,76,240
1,note_on,78,76,0
1,note_on,83,76,0
1,note_on,86,90,0
1,note_on,86,0,120
1,note_on,74,0,0
1,note_on,78,0,0
1,note_on,83,0,0
1,note_on,74,69,120
1,note_on,78,69,0
1,note_on,83,69,0
1,note_on,86,84,0
1,note_on,86,0,120
1,note_on,74,0,0
1,note_on,78,0,0
1,note_on,83,0,0
1,note_on,74,76,120
1,note_on,78,76,0
1,note_on,83,76,0
1,note_on,86,90,0
1,note_on,86,0,120
1,note_on,74,0,0
1,note_on,78,0,0
1,note_on,83,0,0
1,note_on,74,69,120
1,note_on,78,69,0
1,note_on,83,69,0
1,note_on,86,82,0
1,note_on,86,0,120
1,note_on,74,0,0
1,note_on,78,0,0
1,note_on,83,0,0
1,note_on,74,85,120
1,note_on,78,85,0
1,note_on,83,85,0
1,note_on,86,99,0
1,note_on,86,0,480
1,note_on,74,0,0
1,note_on,78,0,0
1,note_on,83,0,0
1,note_on,71,72,0
1,note_on,78,72,0
1,note_on,83,86,0
1,note_on,83,0,240
1,note_on,78,0,0
1,note_on,71,0,0
1,note_on,69,74,240
1,note_on,74,74,0
1,note_on,78,74,0
1,note_on,81,87,0
1,note_on,81,0,120
1,note_on,69,0,0
1,note_on,74,0,0
1,note_on,78,0,0
1,note_on,69,63,360
1,note_on,74,63,0
1,note_on,78,75,0
1,note_on,78,0,120
1,note_on,74,0,0
1,note_on,69,0,0
1,note_on,69,74,360
1,note_on,73,74,0
1,note_on,76,87,0
1,note_on,76,0,960
1,note_on,73,0,0
1,note_on,69,0,0
1,note_on,65,69,0
1,note_on,77,90,0
1,note_on,77,0,120
1,note_on,65,0,0
1,note_on,65,69,120
1,note_on,77,84,0
1,note_on,77,0,120
1,note_on,65,0,0
1,note_on,65,76,120
1,note_on,77,90,0
1,note_on,77,0,120
1,note_on,65,0,0
1,note_on,65,69,120
1,note_on,77,82,0
1,note_on,77,0,120
1,note_on,65,0,0
1,note_on,69,85,120
1,note_on,78,85,0
1,note_on,81,99,0
1,note_on,81,0,480
1,note_on,78,0,0
1,note_on,74,72,0
1,note_on,78,86,0
1,note_on,78,0,240
1,note_on,74,0,0
1,note_on,69,0,0
1,note_on,69,74,240
1,note_on,74,74,0
1,note_on,78,87,0
1,note_on,78,0,120
1,note_on,74,0,0
1,note_on,69,0,0
1,note_on,69,63,360
1,note_on,73,63,0
1,note_on,76,75,0
1,note_on,76,0,120
1,note_on,73,0,0
1,note_on,69,0,0
1,note_on,66,74,360
1,note_on,69,74,0
1,note_on,74,87,0
1,note_on,74,0,480
1,note_on,69,0,0
1,note_on,66,0,0
1,note_on,65,69,0
1,note_on,77,90,0
1,note_on,77,0,720
1,note_on,65,0,0
1,note_on,65,69,0
1,note_on,77,84,0
1,note_on,77,0,120
1,note_on,65,0,0
1,note_on,65,76,120
1,note_on,77,90,0
1,note_on,77,0,120
1,note_on,65,0,0
1,note_on,65,69,120
1,note_on,77,82,0
1,note_on,77,0,120
1,note_on,65,0,0
1,note_on,69,85,120
1,note_on,78,85,0
1,note_on,81,99,0
1,note_on,81,0,480
1,note_on,78,0,0
1,note_on,74,72,0
1,note_on,78,86,0
1,note_on,78,0,240
1,note_on,74,0,0
1,note_on,69,0,0
1,note_on,69,74,240
1,note_on,74,74,0
1,note_on,78,87,0
1,note_on,78,0,120
1,note_on,74,0,0
1,note_on,69,0,0
1,note_on,69,63,360
1,note_on,73,63,0
1,note_on,76,75,0
1,note_on,76,0,120
1,note_on,73,0,0
1,note_on,69,0,0
1,note_on,66,74,360
1,note_on,69,74,0
1,note_on,74,87,0
1,note_on,74,0,480
1,note_on,69,0,0
1,note_on,66,0,0
1,note_on,80,75,0
1,note_on,86,75,0
1,note_on,89,98,0
1,note_on,89,0,720
1,note_on,86,0,0
1,note_on,80,0,0
1,note_on,80,75,0
1,note_on,86,75,0
1,note_on,89,92,0
1,note_on,89,0,120
1,note_on,86,0,0
1,note_on,80,0,0
1,note_on,80,83,120
1,note_on,86,83,0
1,note_on,89,98,0
1,note_on,89,0,120
1,note_on,86,0,0
1,note_on,80,0,0
1,note_on,80,75,120
1,note_on,86,75,0
1,note_on,89,90,0
1,note_on,89,0,120
1,note_on,86,0,0
1,note_on,80,0,0
1,note_on,81,93,120
1,note_on,90,93,0
1,note_on,93,109,0
1,note_on,93,0,480
1,note_on,90,0,0
1,note_on,86,79,0
1,note_on,90,94,0
1,note_on,90,0,240
1,note_on,86,0,0
1,note_on,81,0,0
1,note_on,81,81,240
1,note_on,86,81,0
1,note_on,90,95,0
1,note_on,90,0,120
1,note_on,86,0,0
1,note_on,81,0,0
1,note_on,81,69,360
1,note_on,85,69,0
1,note_on,88,82,0
1,note_on,88,0,120
1,note_on,85,0,0
1,note_on,81,0,0
1,note_on,93,69,360
1,note_on,93,0,160
1,note_on,90,61,0
1,note_on,90,0,160
1,note_on,81,61,0
1,note_on,81,0,160
1,note_on,86,69,0
1,note_on,86,0,160
1,note_on,90,62,0
1,note_on,90,0,160
1,note_on,95,62,0
1,note_on,95,0,160
1,note_on,93,69,0
1,note_on,93,0,160
1,note_on,90,62,0
1,note_on,90,0,160
1,note_on,81,62,0
1,note_on,81,0,160
1,note_on,88,69,0
1,note_on,88,0,160
1,note_on,85,62,0
1,note_on,85,0,160
1,note_on,81,62,0
1,note_on,81,0,160
1,note_on,93,69,0
1,note_on,93,0,160
1,note_on,90,61,0
1,note_on,90,0,160
1,note_on,81,61,0
1,note_on,81,0,160
1,note_on,86,69,0
1,note_on,86,0,160
1,note_on,90,62,0
1,note_on,90,0,160
1,note_on,95,62,0
1,note_on,95,0,160
1,note_on,93,69,0
1,note_on,93,0,160
1,note_on,90,62,0
1,note_on,90,0,160
1,note_on,81,62,0
1,note_on,81,0,160
1,note_on,88,69,0
1,note_on,88,0,160
1,note_on,85,62,0
1,note_on,85,0,160
1,note_on,81,62,0
1,note_on,81,0,160
1,note_on,93,69,0
1,note_on,93,0,160
1,note_on,81,61,0
1,note_on,81,0,160
1,note_on,86,61,0
1,note_on,86,0,160
1,note_on,90,69,0
1,note_on,90,0,160
1,note_on,93,62,0
1,note_on,93,0,160
1,note_on,98,62,0
1,note_on,98,0,160
1,note_on,93,69,0
1,note_on,93,0,160
1,note_on,90,62,0
1,note_on,90,0,160
1,note_on,95,62,0
1,note_on,95,0,160
1,note_on,93,69,0
1,note_on,93,0,160
1,note_on,91,62,0
1,note_on,91,0,160
1,note_on,88,62,0
1,note_on,88,0,160
1,note_on,86,93,0
1,note_on,86,0,120
1,note_on,52,50,200
1,note_on,52,0,160
1,note_on,54,54,0
1,note_on,54,0,160
1,note_on,52,50,0
1,note_on,52,0,160
1,note_on,50,51,0
1,note_on,50,0,160
1,note_on,55,57,0
1,note_on,55,0,160
1,note_on,54,53,0
1,note_on,54,0,160
1,note_on,52,53,0
1,note_on,52,0,160
1,note_on,57,59,0
1,note_on,57,0,160
1,note_on,55,55,0
1,note_on,55,0,160
1,note_on,54,56,0
1,note_on,54,0,160
1,note_on,59,61,0
1,note_on,59,0,160
1,note_on,57,57,0
1,note_on,57,0,160
1,note_on,55,58,0
1,note_on,55,0,160
1,note_on,61,65,0
1,note_on,61,0,160
1,note_on,59,60,0
1,note_on,59,0,160
1,note_on,57,62,0
1,note_on,57,0,160
1,note_on,62,69,0
1,note_on,62,0,160
1,note_on,61,65,0
1,note_on,61,0,160
1,note_on,59,65,0
1,note_on,59,0,160
1,note_on,64,73,0
1,note_on,64,0,160
1,note_on,62,68,0
1,note_on,62,0,160
1,note_on,61,68,0
1,note_on,61,0,160
1,note_on,58,86,0
1,note_on,61,86,0
1,note_on,66,86,0
1,note_on,66,0,960
1,note_on,61,0,0
1,note_on,58,0,0
1,note_on,67,94,960
1,note_on,69,94,0
1,note_on,73,94,0
1,note_on,76,94,0
1,note_on,81,94,0
1,note_on,81,0,960
1,note_on,73,0,0
1,note_on,67,0,0
1,note_on,69,0,0
1,note_on,76,0,0
1,note_on,54,73,960
1,note_on,57,73,0
1,note_on,62,86,0
1,note_on,62,0,960
1,note_on,57,0,0
1,note_on,54,0,0
1,note_on,54,70,0
1,note_on,57,70,0
1,note_on,62,83,0
1,note_on,62,0,480
1,note_on,57,0,0
1,note_on,54,0,0
1,note_on,54,68,0
1,note_on,57,68,0
1,note_on,62,81,0
1,note_on,62,0,480
1,note_on,57,0,0
1,note_on,54,0,0
1,note_on,54,80,0
1,note_on,57,80,0
1,note_on,62,94,0
1,note_on,62,0,240
1,note_on,57,0,0
1,note_on,54,0,0
1,note_on,74,91,720
1,note_on,78,91,0
1,note_on,81,91,0
1,note_on,86,108,0
1,note_on,86,0,240
1,note_on,74,0,0
1,note_on,78,0,0
1,note_on,81,0,0
1,note_on,54,94,720
1,note_on,57,94,0
1,note_on,62,94,0
1,note_on,62,0,960
1,note_on,57,0,0
1,note_on,54,0,0
2,note_on,38,64,0
2,note_on,50,75,0
2,note_on,50,0,960
2,note_on,38,0,0
2,note_on,42,45,0
2,note_on,50,53,0
2,note_on,50,0,120
2,note_on,42,0,0
2,note_on,42,40,120
2,note_on,50,48,0
2,note_on,50,0,120
2,note_on,42,0,0
2,note_on,42,45,120
2,note_on,50,53,0
2,note_on,50,0,120
2,note_on,42,0,0
2,note_on,42,40,120
2,note_on,50,48,0
2,note_on,50,0,120
2,note_on,42,0,0
2,note_on,42,49,120
2,note_on,50,58,0
2,note_on,42,0,480
2,note_on,43,45,0
2,note_on,52,54,0
2,note_on,52,0,240
2,note_on,43,0,0
2,note_on,50,0,0
2,note_on,45,45,240
2,note_on,50,45,0
2,note_on,54,53,0
2,note_on,54,0,120
2,note_on,50,0,0
2,note_on,45,0,0
2,note_on,45,40,120
2,note_on,50,40,0
2,note_on,54,48,0
2,note_on,54,0,120
2,note_on,50,0,0
2,note_on,45,0,0
2,note_on,45,45,120
2,note_on,50,45,0
2,note_on,54,53,0
2,note_on,54,0,120
2,note_on,50,0,0
2,note_on,45,0,0
2,note_on,45,40,120
2,note_on,50,40,0
2,note_on,54,48,0
2,note_on,54,0,120
2,note_on,50,0,0
2,note_on,45,0,0
2,note_on,50,49,120
2,note_on,45,49,0
2,note_on,54,58,0
2,note_on,54,0,480
2,note_on,45,0,0
2,note_on,47,45,0
2,note_on,55,54,0
2,note_on,55,0,240
2,note_on,47,0,0
2,note_on,50,0,0
2,note_on,52,46,0
2,note_on,52,0,240
2,note_on,55,54,0
2,note_on,55,0,160
2,note_on,54,47,0
2,note_on,54,0,160
2,note_on,52,48,0
2,note_on,52,0,160
2,note_on,58,54,0
2,note_on,58,0,160
2,note_on,57,49,0
2,note_on,57,0,160
2,note_on,55,49,0
2,note_on,55,0,160
2,note_on,57,54,0
2,note_on,57,0,240
2,note_on,62,42,240
2,note_on,62,0,160
2,note_on,64,35,0
2,note_on,64,0,160
2,note_on,66,35,0
2,note_on,66,0,160
2,note_on,57,43,0
2,note_on,57,0,160
2,note_on,61,36,0
2,note_on,61,0,160
2,note_on,62,36,0
2,note_on,62,0,160
2,note_on,64,43,0
2,note_on,64,0,160
2,note_on,66,37,0
2,note_on,66,0,160
2,note_on,67,37,0
2,note_on,67,0,160
2,note_on,38,64,0
2,note_on,50,75,0
2,note_on,50,0,960
2,note_on,38,0,0
2,note_on,41,45,0
2,note_on,50,53,0
2,note_on,50,0,120
2,note_on,41,0,0
2,note_on,41,40,120
2,note_on,50,48,0
2,note_on,50,0,120
2,note_on,41,0,0
2,note_on,41,45,120
2,note_on,50,53,0
2,note_on,50,0,120
2,note_on,41,0,0
2,note_on,41,40,120
2,note_on,50,48,0
2,note_on,50,0,120
2,note_on,41,0,0
2,note_on,41,49,120
2,note_on,50,58,0
2,note_on,41,0,480
2,note_on,43,45,0
2,note_on,52,54,0
2,note_on,52,0,240
2,note_on,43,0,0
2,note_on,50,0,0
2,note_on,45,45,240
2,note_on,50,45,0
2,note_on,54,53,0
2,note_on,54,0,120
2,note_on,50,0,0
2,note_on,45,0,0
2,note_on,45,40,120
2,note_on,50,40,0
2,note_on,54,48,0
2,note_on,54,0,120
2,note_on,50,0,0
2,note_on,45,0,0
2,note_on,45,45,120
2,note_on,50,45,0
2,note_on,54,53,0
2,note_on,54,0,120
2,note_on,50,0,0
2,note_on,45,0,0
2,note_on,45,40,120
2,note_on,50,40,0
2,note_on,54,48,0
2,note_on,54,0,120
2,note_on,50,0,0
2,note_on,45,0,0
2,note_on,50,49,120
2,note_on,45,49,0
2,note_on,54,58,0
2,note_on,54,0,480
2,note_on,45,0,0
2,note_on,46,45,0
2,note_on,55,54,0
2,note_on,55,0,240
2,note_on,46,0,0
2,note_on,50,0,0
2,note_on,47,45,240
2,note_on,53,45,0
2,note_on,56,53,0
2,note_on,56,0,120
2,note_on,53,0,0
2,note_on,47,0,0
2,note_on,47,40,120
2,note_on,53,40,0
2,note_on,56,48,0
2,note_on,56,0,120
2,note_on,53,0,0
2,note_on,47,0,0
2,note_on,47,45,120
2,note_on,53,45,0
2,note_on,56,53,0
2,note_on,56,0,120
2,note_on,53,0,0
2,note_on,47,0,0
2,note_on,47,40,120
2,note_on,53,40,0
2,note_on,56,48,0
2,note_on,56,0,120
2,note_on,53,0,0
2,note_on,47,0,0
2,note_on,53,49,120
2,note_on,48,49,0
2,note_on,57,58,0
2,note_on,57,0,960
2,note_on,48,0,0
2,note_on,53,0,0
2,note_on,48,43,0
2,note_on,48,0,120
2,note_on,48,36,120
2,note_on,48,0,120
2,note_on,48,43,120
2,note_on,48,0,120
2,note_on,48,37,120
2,note_on,48,0,120
2,note_on,48,43,120
2,note_on,48,0,480
2,note_on,45,43,0
2,note_on,45,0,240
2,note_on,48,43,233
2,note_on,48,0,120
2,note_on,48,36,120
2,note_on,48,0,120
2,note_on,48,43,120
2,note_on,48,0,120
2,note_on,48,37,120
2,note_on,48,0,120
2,note_on,48,43,127
2,note_on,48,0,480
2,note_on,53,38,480
2,note_on,55,34,160
2,note_on,53,0,16
2,note_on,57,31,144
2,note_on,55,0,16
2,note_on,57,0,144
2,note_on,45,42,0
2,note_on,46,36,160
2,note_on,45,0,16
2,note_on,48,34,144
2,note_on,46,0,16
2,note_on,48,0,144
2,note_on,41,43,0
2,note_on,43,37,160
2,note_on,41,0,16
2,note_on,45,34,144
2,note_on,43,0,16
2,note_on,45,0,144
2,note_on,33,46,0
2,note_on,34,40,160
2,note_on,33,0,16
2,note_on,36,37,144
2,note_on,34,0,16
2,note_on,36,0,144
2,note_on,33,56,0
2,note_on,34,50,160
2,note_on,33,0,16
2,note_on,36,47,144
2,note_on,34,0,16
2,note_on,36,0,144
2,note_on,33,60,0
2,note_on,34,54,160
2,note_on,33,0,16
2,note_on,36,50,144
2,note_on,34,0,16
2,note_on,36,0,144
2,note_on,37,70,0
2,note_on,37,0,120
2,note_on,37,35,124
2,note_on,37,0,120
2,note_on,37,35,116
2,note_on,37,0,120
2,note_on,37,35,120
2,note_on,37,0,120
2,note_on,37,46,120
2,note_on,37,0,960
2,note_on,49,44,0
2,note_on,37,37,0
2,note_on,37,0,120
2,note_on,49,0,0
2,note_on,49,35,120
2,note_on,37,29,4
2,note_on,49,0,116
2,note_on,37,0,4
2,note_on,37,29,116
2,note_on,49,35,0
2,note_on,49,0,120
2,note_on,37,0,0
2,note_on,49,35,120
2,note_on,37,29,0
2,note_on,37,0,120
2,note_on,49,0,0
2,note_on,49,55,120
2,note_on,37,46,0
2,note_on,37,0,960
2,note_on,49,0,0
2,note_on,45,61,0
2,note_on,33,51,0
2,note_on,33,0,120
2,note_on,45,0,0
2,note_on,33,39,120
2,note_on,45,48,0
2,note_on,45,0,120
2,note_on,33,0,0
2,note_on,33,39,120
2,note_on,45,48,0
2,note_on,45,0,120
2,note_on,33,0,0
2,note_on,45,49,120
2,note_on,33,39,0
2,note_on,33,0,120
2,note_on,45,0,0
2,note_on,45,68,120
2,note_on,33,58,0
2,note_on,33,0,960
2,note_on,45,0,0
2,note_on,45,78,0
2,note_on,33,64,0
2,note_on,33,0,120
2,note_on,45,0,0
2,note_on,33,51,120
2,note_on,45,62,0
2,note_on,45,0,120
2,note_on,33,0,0
2,note_on,33,52,120
2,note_on,45,64,0
2,note_on,45,0,120
2,note_on,33,0,0
2,note_on,45,67,120
2,note_on,33,55,0
2,note_on,33,0,120
2,note_on,45,0,0
2,note_on,45,94,120
2,note_on,33,79,0
2,note_on,33,0,960
2,note_on,45,0,0
2,note_on,45,73,0
2,note_on,42,73,0
2,note_on,38,73,0
2,note_on,50,86,0
2,note_on,50,0,960
2,note_on,45,0,0
2,note_on,42,0,0
2,note_on,38,0,0
2,note_on,42,43,0
2,note_on,50,51,0
2,note_on,50,0,120
2,note_on,42,0,0
2,note_on,42,39,120
2,note_on,50,46,0
2,note_on,50,0,120
2,note_on,42,0,0
2,note_on,42,43,120
2,note_on,50,51,0
2,note_on,50,0,120
2,note_on,42,0,0
2,note_on,42,39,120
2,note_on,50,46,0
2,note_on,50,0,120
2,note_on,42,0,0
2,note_on,42,47,120
2,note_on,50,56,0
2,note_on,42,0,480
2,note_on,43,43,0
2,note_on,52,52,0
2,note_on,52,0,240
2,note_on,43,0,0
2,note_on,50,0,0
2,note_on,45,53,240
2,note_on,45,0,160
2,note_on,47,48,0
2,note_on,47,0,160
2,note_on,48,48,0
2,note_on,48,0,160
2,note_on,50,53,0
2,note_on,50,0,160
2,note_on,52,49,0
2,note_on,52,0,160
2,note_on,54,48,0
2,note_on,54,0,160
2,note_on,46,53,0
2,note_on,46,0,240
2,note_on,54,49,0
2,note_on,54,0,240
2,note_on,47,53,0
2,note_on,47,0,240
2,note_on,55,48,0
2,note_on,55,0,240
2,note_on,49,43,0
2,note_on,55,43,0
2,note_on,57,51,0
2,note_on,57,0,120
2,note_on,55,0,0
2,note_on,49,0,0
2,note_on,49,39,120
2,note_on,55,39,0
2,note_on,57,46,0
2,note_on,57,0,120
2,note_on,55,0,0
2,note_on,49,0,0
2,note_on,49,43,120
2,note_on,55,43,0
2,note_on,57,51,0
2,note_on,57,0,120
2,note_on,55,0,0
2,note_on,49,0,0
2,note_on,49,39,120
2,note_on,55,39,0
2,note_on,57,46,0
2,note_on,57,0,120
2,note_on,55,0,0
2,note_on,49,0,0
2,note_on,55,47,120
2,note_on,49,47,0
2,note_on,57,56,0
2,note_on,57,0,480
2,note_on,49,0,0
2,note_on,50,43,0
2,note_on,59,52,0
2,note_on,59,0,240
2,note_on,50,0,0
2,note_on,55,0,0
2,note_on,50,53,240
2,note_on,50,0,160
2,note_on,52,48,0
2,note_on,52,0,160
2,note_on,54,48,0
2,note_on,54,0,160
2,note_on,55,53,0
2,note_on,55,0,160
2,note_on,57,49,0
2,note_on,57,0,160
2,note_on,59,48,0
2,note_on,59,0,160
2,note_on,51,53,0
2,note_on,51,0,240
2,note_on,59,49,0
2,note_on,59,0,240
2,note_on,52,53,0
2,note_on,52,0,240
2,note_on,60,48,0
2,note_on,60,0,240
2,note_on,52,43,0
2,note_on,58,43,0
2,note_on,61,51,0
2,note_on,61,0,120
2,note_on,58,0,0
2,note_on,52,0,0
2,note_on,52,39,120
2,note_on,58,39,0
2,note_on,61,46,0
2,note_on,61,0,120
2,note_on,58,0,0
2,note_on,52,0,0
2,note_on,52,43,120
2,note_on,58,43,0
2,note_on,61,51,0
2,note_on,61,0,120
2,note_on,58,0,0
2,note_on,52,0,0
2,note_on,52,39,120
2,note_on,58,39,0
2,note_on,61,46,0
2,note_on,61,0,120
2,note_on,58,0,0
2,note_on,52,0,0
2,note_on,58,47,120
2,note_on,52,47,0
2,note_on,61,56,0
2,note_on,61,0,480
2,note_on,52,0,0
2,note_on,53,43,0
2,note_on,62,52,0
2,note_on,62,0,240
2,note_on,53,0,0
2,note_on,58,0,0
2,note_on,53,53,240
2,note_on,53,0,160
2,note_on,55,48,0
2,note_on,55,0,160
2,note_on,57,48,0
2,note_on,57,0,160
2,note_on,59,53,0
2,note_on,59,0,160
2,note_on,60,49,0
2,note_on,60,0,160
2,note_on,62,48,0
2,note_on,62,0,160
2,note_on,51,53,0
2,note_on,51,0,240
2,note_on,58,42,0
2,note_on,58,0,180
2,note_on,58,53,60
2,note_on,58,0,240
2,note_on,62,44,0
2,note_on,62,0,240
2,note_on,34,36,0
2,note_on,46,43,0
2,note_on,46,0,120
2,note_on,34,0,0
2,note_on,34,33,120
2,note_on,46,39,0
2,note_on,46,0,120
2,note_on,34,0,0
2,note_on,34,36,120
2,note_on,46,43,0
2,note_on,46,0,120
2,note_on,34,0,0
2,note_on,34,33,120
2,note_on,46,39,0
2,note_on,46,0,120
2,note_on,34,0,0
2,note_on,34,39,120
2,note_on,46,47,0
2,note_on,46,0,720
2,note_on,34,0,0
2,note_on,53,45,240
2,note_on,53,0,160
2,note_on,55,40,0
2,note_on,55,0,160
2,note_on,57,40,0
2,note_on,57,0,160
2,note_on,58,45,0
2,note_on,58,0,160
2,note_on,60,41,0
2,note_on,60,0,160
2,note_on,62,40,0
2,note_on,62,0,160
2,note_on,51,52,0
2,note_on,51,0,240
2,note_on,58,41,0
2,note_on,58,0,180
2,note_on,58,52,60
2,note_on,58,0,240
2,note_on,62,40,0
2,note_on,62,0,240
2,note_on,34,36,0
2,note_on,46,43,0
2,note_on,46,0,120
2,note_on,34,0,0
2,note_on,34,33,120
2,note_on,46,39,0
2,note_on,46,0,120
2,note_on,34,0,0
2,note_on,34,36,120
2,note_on,46,43,0
2,note_on,46,0,120
2,note_on,34,0,0
2,note_on,34,33,120
2,note_on,46,39,0
2,note_on,46,0,120
2,note_on,34,0,0
2,note_on,34,39,120
2,note_on,46,47,0
2,note_on,46,0,720
2,note_on,34,0,0
2,note_on,53,46,240
2,note_on,53,0,160
2,note_on,55,47,0
2,note_on,55,0,160
2,note_on,57,48,0
2,note_on,57,0,160
2,note_on,58,53,0
2,note_on,58,0,160
2,note_on,60,49,0
2,note_on,60,0,160
2,note_on,62,48,0
2,note_on,62,0,160
2,note_on,63,51,0
2,note_on,63,0,160
2,note_on,65,44,0
2,note_on,65,0,160
2,note_on,67,44,0
2,note_on,67,0,160
2,note_on,65,51,0
2,note_on,65,0,160
2,note_on,63,45,0
2,note_on,63,0,160
2,note_on,62,45,0
2,note_on,62,0,160
2,note_on,61,48,0
2,note_on,61,0,160
2,note_on,58,39,0
2,note_on,58,0,160
2,note_on,55,39,0
2,note_on,55,0,160
2,note_on,52,41,0
2,note_on,52,0,160
2,note_on,49,39,0
2,note_on,49,0,160
2,note_on,52,40,0
2,note_on,52,0,160
2,note_on,53,42,0
2,note_on,53,0,160
2,note_on,50,38,0
2,note_on,50,0,160
2,note_on,53,38,0
2,note_on,53,0,160
2,note_on,50,42,0
2,note_on,50,0,160
2,note_on,46,38,0
2,note_on,46,0,160
2,note_on,50,38,0
2,note_on,50,0,160
2,note_on,41,38,0
2,note_on,41,0,160
2,note_on,43,39,0
2,note_on,43,0,160
2,note_on,45,41,0
2,note_on,45,0,160
2,note_on,46,43,0
2,note_on,46,0,160
2,note_on,48,45,0
2,note_on,48,0,160
2,note_on,50,46,0
2,note_on,50,0,160
2,note_on,51,48,0
2,note_on,51,0,160
2,note_on,53,50,0
2,note_on,53,0,160
2,note_on,55,51,0
2,note_on,55,0,160
2,note_on,53,53,0
2,note_on,53,0,160
2,note_on,51,49,0
2,note_on,51,0,160
2,note_on,50,51,0
2,note_on,50,0,160
2,note_on,49,48,0
2,note_on,49,0,160
2,note_on,46,46,0
2,note_on,46,0,160
2,note_on,43,45,0
2,note_on,43,0,160
2,note_on,40,43,0
2,note_on,40,0,160
2,note_on,37,39,0
2,note_on,37,0,160
2,note_on,40,36,0
2,note_on,40,0,160
2,note_on,43,50,0
2,note_on,43,0,160
2,note_on,40,36,0
2,note_on,40,0,160
2,note_on,43,36,0
2,note_on,43,0,160
2,note_on,40,37,0
2,note_on,40,0,160
2,note_on,37,37,0
2,note_on,37,0,160
2,note_on,40,38,0
2,note_on,40,0,160
2,note_on,44,52,0
2,note_on,44,0,160
2,note_on,40,38,0
2,note_on,40,0,160
2,note_on,44,39,0
2,note_on,44,0,160
2,note_on,40,39,0
2,note_on,40,0,160
2,note_on,37,40,0
2,note_on,37,0,160
2,note_on,40,40,0
2,note_on,40,0,160
2,note_on,45,55,0
2,note_on,45,0,160
2,note_on,40,41,0
2,note_on,40,0,160
2,note_on,45,42,0
2,note_on,45,0,160
2,note_on,40,42,0
2,note_on,40,0,160
2,note_on,37,43,0
2,note_on,37,0,160
2,note_on,40,43,0
2,note_on,40,0,160
2,note_on,45,57,0
2,note_on,45,0,160
2,note_on,40,44,0
2,note_on,40,0,160
2,note_on,45,45,0
2,note_on,45,0,160
2,note_on,40,45,0
2,note_on,40,0,160
2,note_on,36,45,0
2,note_on,36,0,160
2,note_on,40,46,0
2,note_on,40,0,160
2,note_on,35,62,0
2,note_on,35,0,160
2,note_on,41,50,0
2,note_on,41,0,160
2,note_on,35,51,0
2,note_on,35,0,160
2,note_on,41,52,0
2,note_on,41,0,160
2,note_on,47,53,0
2,note_on,47,0,160
2,note_on,41,54,0
2,note_on,41,0,160
2,note_on,34,69,0
2,note_on,34,0,160
2,note_on,41,56,0
2,note_on,41,0,160
2,note_on,34,58,0
2,note_on,34,0,160
2,note_on,41,59,0
2,note_on,41,0,160
2,note_on,46,61,0
2,note_on,46,0,160
2,note_on,34,62,0
2,note_on,34,0,160
2,note_on,33,73,0
2,note_on,45,86,0
2,note_on,45,0,960
2,note_on,33,0,0
2,note_on,57,43,0
2,note_on,66,51,0
2,note_on,66,0,180
2,note_on,57,0,0
2,note_on,57,39,60
2,note_on,66,46,0
2,note_on,66,0,180
2,note_on,57,0,0
2,note_on,57,43,60
2,note_on,66,51,0
2,note_on,66,0,180
2,note_on,57,0,0
2,note_on,57,39,60
2,note_on,66,46,0
2,note_on,66,0,180
2,note_on,57,0,0
2,note_on,57,47,60
2,note_on,69,56,0
2,note_on,69,0,480
2,note_on,64,37,0
2,note_on,64,0,240
2,note_on,57,0,0
2,note_on,37,49,0
2,note_on,37,0,240
2,note_on,38,53,0
2,note_on,38,0,160
2,note_on,37,49,0
2,note_on,37,0,160
2,note_on,35,53,0
2,note_on,35,0,160
2,note_on,41,56,0
2,note_on,41,0,160
2,note_on,40,51,0
2,note_on,40,0,160
2,note_on,38,38,0
2,note_on,38,0,160
2,note_on,40,43,0
2,note_on,49,47,0
2,note_on,49,0,160
2,note_on,50,41,0
2,note_on,40,0,80
2,note_on,50,0,80
2,note_on,52,41,0
2,note_on,52,0,160
2,note_on,54,47,0
2,note_on,54,0,160
2,note_on,56,42,0
2,note_on,56,0,160
2,note_on,57,42,0
2,note_on,57,0,160
2,note_on,52,44,320
2,note_on,52,0,160
2,note_on,50,50,0
2,note_on,50,0,160
2,note_on,49,53,0
2,note_on,49,0,160
2,note_on,47,56,0
2,note_on,47,0,160
2,note_on,33,65,0
2,note_on,45,77,0
2,note_on,45,0,960
2,note_on,33,0,0
2,note_on,57,43,0
2,note_on,66,51,0
2,note_on,66,0,330
2,note_on,57,0,0
2,note_on,57,39,30
2,note_on,66,46,0
2,note_on,66,0,90
2,note_on,57,0,0
2,note_on,57,43,30
2,note_on,66,51,0
2,note_on,66,0,330
2,note_on,57,0,0
2,note_on,57,39,30
2,note_on,66,46,0
2,note_on,66,0,90
2,note_on,57,0,0
2,note_on,57,47,30
2,note_on,69,56,0
2,note_on,69,0,480
2,note_on,64,37,0
2,note_on,64,0,240
2,note_on,57,0,0
2,note_on,37,49,0
2,note_on,37,0,240
2,note_on,38,53,0
2,note_on,38,0,160
2,note_on,37,49,0
2,note_on,37,0,160
2,note_on,35,53,0
2,note_on,35,0,160
2,note_on,41,56,0
2,note_on,41,0,160
2,note_on,40,51,0
2,note_on,40,0,160
2,note_on,38,38,0
2,note_on,38,0,160
2,note_on,40,43,0
2,note_on,49,47,0
2,note_on,49,0,160
2,note_on,50,41,0
2,note_on,40,0,80
2,note_on,50,0,80
2,note_on,52,41,0
2,note_on,52,0,160
2,note_on,54,47,0
2,note_on,54,0,160
2,note_on,56,42,0
2,note_on,56,0,160
2,note_on,57,42,0
2,note_on,57,0,160
2,note_on,52,44,320
2,note_on,52,0,160
2,note_on,50,50,0
2,note_on,50,0,160
2,note_on,49,53,0
2,note_on,49,0,160
2,note_on,47,56,0
2,note_on,47,0,160
2,note_on,45,57,0
2,note_on,45,0,240
2,note_on,57,41,3600
2,note_on,57,0,480
2,note_on,49,35,0
2,note_on,49,0,120
2,note_on,59,41,360
2,note_on,59,0,480
2,note_on,52,35,0
2,note_on,52,0,120
2,note_on,52,33,300
2,note_on,52,0,60
2,note_on,61,41,0
2,note_on,61,0,480
2,note_on,57,34,0
2,note_on,57,0,120
2,note_on,57,33,300
2,note_on,57,0,60
2,note_on,66,45,0
2,note_on,66,0,360
2,note_on,63,36,0
2,note_on,63,0,120
2,note_on,66,43,0
2,note_on,66,0,360
2,note_on,63,35,0
2,note_on,63,0,120
2,note_on,64,41,0
2,note_on,64,0,476
2,note_on,52,35,8
2,note_on,52,0,120
2,note_on,52,33,296
2,note_on,52,0,60
2,note_on,62,41,0
2,note_on,62,0,480
2,note_on,59,35,0
2,note_on,59,0,120
2,note_on,59,33,300
2,note_on,59,0,60
2,note_on,61,41,0
2,note_on,61,0,480
2,note_on,52,34,0
2,note_on,52,0,120
2,note_on,52,33,300
2,note_on,52,0,60
2,note_on,59,45,0
2,note_on,59,0,360
2,note_on,56,36,0
2,note_on,56,0,120
2,note_on,59,43,0
2,note_on,59,0,360
2,note_on,56,35,0
2,note_on,56,0,120
2,note_on,49,41,0
2,note_on,57,41,0
2,note_on,57,0,480
2,note_on,49,0,0
2,note_on,52,35,4
2,note_on,52,0,120
2,note_on,56,41,356
2,note_on,59,41,0
2,note_on,59,0,480
2,note_on,56,0,0
2,note_on,52,35,4
2,note_on,52,0,120
2,note_on,52,41,356
2,note_on,61,41,0
2,note_on,61,0,480
2,note_on,52,0,0
2,note_on,57,35,0
2,note_on,57,0,120
2,note_on,63,45,360
2,note_on,60,38,0
2,note_on,60,0,360
2,note_on,63,0,0
2,note_on,57,36,0
2,note_on,57,0,120
2,note_on,63,43,0
2,note_on,60,36,0
2,note_on,60,0,360
2,note_on,63,0,0
2,note_on,57,35,0
2,note_on,57,0,120
2,note_on,64,41,0
2,note_on,61,41,0
2,note_on,64,0,476
2,note_on,61,0,4
2,note_on,52,35,4
2,note_on,52,0,120
2,note_on,59,41,356
2,note_on,62,41,0
2,note_on,62,0,480
2,note_on,59,0,0
2,note_on,52,35,4
2,note_on,52,0,120
2,note_on,57,41,356
2,note_on,61,41,0
2,note_on,61,0,480
2,note_on,57,0,0
2,note_on,52,35,0
2,note_on,52,0,120
2,note_on,56,38,360
2,note_on,59,45,0
2,note_on,59,0,360
2,note_on,56,0,0
2,note_on,52,36,0
2,note_on,52,0,120
2,note_on,56,36,0
2,note_on,59,43,0
2,note_on,59,0,360
2,note_on,56,0,0
2,note_on,52,35,0
2,note_on,52,0,120
2,note_on,59,69,0
2,note_on,59,0,160
2,note_on,50,53,0
2,note_on,50,0,160
2,note_on,59,53,0
2,note_on,59,0,160
2,note_on,43,71,0
2,note_on,43,0,840
2,note_on,50,48,0
2,note_on,59,48,0
2,note_on,59,0,120
2,note_on,50,0,0
2,note_on,43,62,0
2,note_on,43,0,360
2,note_on,50,53,0
2,note_on,50,0,120
2,note_on,59,71,0
2,note_on,59,0,160
2,note_on,50,53,0
2,note_on,50,0,160
2,note_on,59,53,0
2,note_on,59,0,160
2,note_on,43,68,0
2,note_on,43,0,840
2,note_on,50,48,0
2,note_on,59,48,0
2,note_on,59,0,120
2,note_on,50,0,0
2,note_on,43,62,0
2,note_on,43,0,840
2,note_on,50,45,0
2,note_on,59,53,0
2,note_on,59,0,120
2,note_on,50,0,0
2,note_on,43,62,0
2,note_on,43,0,840
2,note_on,50,45,0
2,note_on,59,53,0
2,note_on,59,0,120
2,note_on,50,0,0
2,note_on,43,62,0
2,note_on,43,0,360
2,note_on,55,53,0
2,note_on,55,0,120
2,note_on,48,71,0
2,note_on,48,0,160
2,note_on,55,53,0
2,note_on,55,0,160
2,note_on,48,53,0
2,note_on,48,0,160
2,note_on,36,69,0
2,note_on,36,0,840
2,note_on,48,48,0
2,note_on,55,48,0
2,note_on,55,0,120
2,note_on,48,0,0
2,note_on,36,62,0
2,note_on,36,0,360
2,note_on,55,53,0
2,note_on,55,0,120
2,note_on,48,62,0
2,note_on,48,0,160
2,note_on,55,53,0
2,note_on,55,0,160
2,note_on,48,53,0
2,note_on,48,0,160
2,note_on,36,62,0
2,note_on,36,0,840
2,note_on,48,48,0
2,note_on,55,48,0
2,note_on,55,0,120
2,note_on,48,0,0
2,note_on,36,62,0
2,note_on,36,0,840
2,note_on,48,45,0
2,note_on,55,53,0
2,note_on,55,0,120
2,note_on,48,0,0
2,note_on,36,62,0
2,note_on,36,0,840
2,note_on,40,41,0
2,note_on,40,0,120
2,note_on,35,45,0
2,note_on,35,0,840
2,note_on,40,33,0
2,note_on,40,0,120
2,note_on,35,37,0
2,note_on,35,0,360
2,note_on,40,32,0
2,note_on,40,0,120
2,note_on,35,34,0
2,note_on,35,0,360
2,note_on,40,29,0
2,note_on,40,0,120
2,note_on,35,31,0
2,note_on,35,0,360
2,note_on,40,27,0
2,note_on,40,0,120
2,note_on,33,31,0
2,note_on,33,0,120
2,note_on,57,38,1000
2,note_on,57,0,160
2,note_on,61,40,0
2,note_on,61,0,160
2,note_on,64,42,0
2,note_on,64,0,160
2,note_on,69,41,0
2,note_on,69,0,160
2,note_on,73,38,0
2,note_on,73,0,160
2,note_on,64,42,0
2,note_on,64,0,240
2,note_on,62,34,240
2,note_on,59,28,0
2,note_on,52,28,0
2,note_on,52,0,120
2,note_on,59,0,0
2,note_on,62,0,0
2,note_on,61,34,360
2,note_on,57,28,0
2,note_on,52,28,0
2,note_on,52,0,120
2,note_on,57,0,0
2,note_on,61,0,0
2,note_on,59,34,360
2,note_on,56,28,0
2,note_on,52,28,0
2,note_on,52,0,120
2,note_on,56,0,0
2,note_on,59,0,0
2,note_on,57,31,360
2,note_on,61,37,0
2,note_on,61,0,240
2,note_on,57,0,0
2,note_on,57,38,880
2,note_on,57,0,160
2,note_on,61,40,0
2,note_on,61,0,160
2,note_on,64,42,0
2,note_on,64,0,160
2,note_on,69,41,0
2,note_on,69,0,160
2,note_on,73,38,0
2,note_on,73,0,160
2,note_on,64,42,0
2,note_on,64,0,240
2,note_on,62,34,240
2,note_on,59,28,0
2,note_on,52,28,0
2,note_on,52,0,120
2,note_on,59,0,0
2,note_on,62,0,0
2,note_on,61,34,360
2,note_on,57,28,0
2,note_on,52,28,0
2,note_on,52,0,120
2,note_on,57,0,0
2,note_on,61,0,0
2,note_on,59,34,360
2,note_on,56,28,0
2,note_on,52,28,0
2,note_on,52,0,120
2,note_on,56,0,0
2,note_on,59,0,0
2,note_on,57,41,360
2,note_on,57,0,480
2,note_on,49,35,0
2,note_on,49,0,240
2,note_on,59,40,240
2,note_on,59,0,480
2,note_on,52,33,0
2,note_on,52,0,240
2,note_on,61,42,240
2,note_on,61,0,480
2,note_on,57,34,0
2,note_on,57,0,240
2,note_on,66,40,240
2,note_on,66,0,360
2,note_on,63,30,0
2,note_on,63,0,120
2,note_on,66,37,0
2,note_on,66,0,360
2,note_on,63,34,0
2,note_on,63,0,120
2,note_on,64,41,0
2,note_on,64,0,480
2,note_on,52,35,0
2,note_on,52,0,240
2,note_on,62,40,240
2,note_on,62,0,480
2,note_on,59,33,0
2,note_on,59,0,240
2,note_on,61,42,240
2,note_on,61,0,480
2,note_on,52,34,0
2,note_on,52,0,240
2,note_on,59,40,240
2,note_on,59,0,360
2,note_on,56,30,0
2,note_on,56,0,120
2,note_on,59,37,0
2,note_on,59,0,360
2,note_on,52,34,0
2,note_on,52,0,120
2,note_on,69,43,0
2,note_on,69,0,160
2,note_on,64,36,0
2,note_on,64,0,160
2,note_on,69,36,0
2,note_on,69,0,160
2,note_on,61,42,0
2,note_on,61,0,240
2,note_on,71,44,240
2,note_on,71,0,160
2,note_on,68,38,0
2,note_on,68,0,160
2,note_on,71,38,0
2,note_on,71,0,160
2,note_on,64,44,0
2,note_on,64,0,240
2,note_on,73,49,240
2,note_on,73,0,160
2,note_on,71,41,0
2,note_on,71,0,160
2,note_on,73,41,0
2,note_on,73,0,160
2,note_on,69,49,0
2,note_on,69,0,240
2,note_on,78,49,240
2,note_on,78,0,360
2,note_on,75,37,0
2,note_on,75,0,120
2,note_on,78,46,0
2,note_on,78,0,360
2,note_on,75,43,0
2,note_on,75,0,120
2,note_on,78,54,0
2,note_on,78,0,480
2,note_on,75,44,0
2,note_on,75,0,240
2,note_on,78,42,240
2,note_on,78,0,480
2,note_on,75,34,0
2,note_on,75,0,240
2,note_on,78,42,240
2,note_on,78,0,480
2,note_on,75,41,0
2,note_on,75,0,240
2,note_on,77,40,240
2,note_on,77,0,360
2,note_on,75,30,0
2,note_on,75,0,120
2,note_on,77,37,0
2,note_on,77,0,360
2,note_on,75,34,0
2,note_on,75,0,120
2,note_on,77,42,0
2,note_on,77,0,480
2,note_on,75,34,0
2,note_on,75,0,240
2,note_on,77,42,240
2,note_on,77,0,480
2,note_on,75,33,0
2,note_on,75,0,240
2,note_on,77,40,240
2,note_on,77,0,480
2,note_on,74,32,0
2,note_on,74,0,240
2,note_on,76,39,240
2,note_on,76,0,480
2,note_on,74,31,0
2,note_on,74,0,240
2,note_on,73,37,240
2,note_on,73,0,480
2,note_on,76,29,0
2,note_on,76,0,240
2,note_on,66,36,240
2,note_on,66,0,480
2,note_on,69,25,0
2,note_on,74,28,0
2,note_on,74,0,240
2,note_on,69,0,0
2,note_on,64,34,240
2,note_on,64,0,480
2,note_on,69,25,0
2,note_on,73,27,0
2,note_on,73,0,240
2,note_on,69,0,0
2,note_on,64,33,240
2,note_on,64,0,480
2,note_on,68,22,0
2,note_on,71,26,0
2,note_on,71,0,240
2,note_on,68,0,0
2,note_on,55,74,240
2,note_on,55,0,160
2,note_on,57,42,0
2,note_on,57,0,160
2,note_on,55,42,0
2,note_on,55,0,160
2,note_on,52,48,0
2,note_on,52,0,160
2,note_on,49,41,0
2,note_on,49,0,160
2,note_on,45,41,0
2,note_on,45,0,160
2,note_on,43,60,0
2,note_on,43,0,160
2,note_on,45,36,0
2,note_on,45,0,160
2,note_on,43,36,0
2,note_on,43,0,160
2,note_on,45,44,0
2,note_on,45,0,160
2,note_on,43,37,0
2,note_on,43,0,160
2,note_on,45,37,0
2,note_on,45,0,160
2,note_on,53,73,0
2,note_on,53,0,160
2,note_on,57,42,0
2,note_on,57,0,160
2,note_on,53,42,0
2,note_on,53,0,160
2,note_on,48,48,0
2,note_on,48,0,160
2,note_on,45,41,0
2,note_on,45,0,160
2,note_on,41,41,0
2,note_on,41,0,160
2,note_on,45,62,0
2,note_on,45,0,160
2,note_on,41,36,0
2,note_on,41,0,160
2,note_on,45,36,0
2,note_on,45,0,160
2,note_on,41,44,0
2,note_on,41,0,160
2,note_on,45,37,0
2,note_on,45,0,160
2,note_on,41,37,0
2,note_on,41,0,160
2,note_on,55,73,0
2,note_on,55,0,160
2,note_on,57,42,0
2,note_on,57,0,160
2,note_on,55,42,0
2,note_on,55,0,160
2,note_on,52,48,0
2,note_on,52,0,160
2,note_on,49,41,0
2,note_on,49,0,160
2,note_on,45,41,0
2,note_on,45,0,160
2,note_on,43,60,0
2,note_on,43,0,160
2,note_on,45,36,0
2,note_on,45,0,160
2,note_on,43,36,0
2,note_on,43,0,160
2,note_on,45,44,0
2,note_on,45,0,160
2,note_on,43,37,0
2,note_on,43,0,160
2,note_on,45,37,0
2,note_on,45,0,160
2,note_on,53,74,0
2,note_on,53,0,160
2,note_on,57,42,0
2,note_on,57,0,160
2,note_on,53,42,0
2,note_on,53,0,160
2,note_on,48,48,0
2,note_on,48,0,160
2,note_on,45,41,0
2,note_on,45,0,160
2,note_on,41,41,0
2,note_on,41,0,160
2,note_on,45,62,0
2,note_on,45,0,160
2,note_on,41,36,0
2,note_on,41,0,160
2,note_on,45,36,0
2,note_on,45,0,160
2,note_on,41,44,0
2,note_on,41,0,160
2,note_on,45,37,0
2,note_on,45,0,160
2,note_on,41,37,0
2,note_on,41,0,160
2,note_on,40,35,0
2,note_on,52,37,0
2,note_on,52,0,160
2,note_on,54,32,0
2,note_on,40,0,80
2,note_on,54,0,80
2,note_on,56,32,0
2,note_on,56,0,160
2,note_on,57,37,0
2,note_on,57,0,160
2,note_on,59,33,0
2,note_on,59,0,160
2,note_on,61,33,0
2,note_on,61,0,160
2,note_on,52,35,480
2,note_on,59,35,0
2,note_on,59,0,240
2,note_on,52,0,0
2,note_on,45,33,240
2,note_on,49,33,0
2,note_on,57,40,6
2,note_on,49,0,234
2,note_on,45,0,0
2,note_on,57,0,6
2,note_on,73,44,234
2,note_on,76,44,0
2,note_on,76,0,360
2,note_on,73,0,0
2,note_on,73,39,0
2,note_on,76,39,0
2,note_on,76,0,120
2,note_on,73,0,0
2,note_on,71,44,0
2,note_on,74,44,0
2,note_on,74,0,240
2,note_on,71,0,0
2,note_on,52,40,240
2,note_on,59,40,0
2,note_on,59,0,240
2,note_on,52,0,0
2,note_on,45,38,240
2,note_on,49,38,0
2,note_on,57,45,0
2,note_on,57,0,240
2,note_on,49,0,0
2,note_on,45,0,0
2,note_on,73,44,240
2,note_on,76,44,0
2,note_on,76,0,360
2,note_on,73,0,0
2,note_on,73,39,0
2,note_on,76,39,0
2,note_on,76,0,120
2,note_on,73,0,0
2,note_on,71,44,0
2,note_on,74,44,0
2,note_on,74,0,240
2,note_on,71,0,0
2,note_on,52,40,240
2,note_on,59,40,0
2,note_on,59,0,240
2,note_on,52,0,0
2,note_on,45,38,240
2,note_on,49,38,0
2,note_on,57,45,0
2,note_on,57,0,240
2,note_on,49,0,0
2,note_on,45,0,0
2,note_on,73,44,240
2,note_on,76,44,0
2,note_on,76,0,360
2,note_on,73,0,0
2,note_on,73,39,0
2,note_on,76,39,0
2,note_on,76,0,120
2,note_on,73,0,0
2,note_on,71,44,0
2,note_on,74,44,0
2,note_on,74,0,240
2,note_on,71,0,0
2,note_on,52,35,240
2,note_on,52,0,240
2,note_on,55,74,240
2,note_on,55,0,160
2,note_on,57,42,0
2,note_on,57,0,160
2,note_on,55,42,0
2,note_on,55,0,160
2,note_on,52,48,0
2,note_on,52,0,160
2,note_on,49,41,0
2,note_on,49,0,160
2,note_on,45,41,0
2,note_on,45,0,160
2,note_on,43,60,0
2,note_on,43,0,160
2,note_on,45,36,0
2,note_on,45,0,160
2,note_on,43,36,0
2,note_on,43,0,160
2,note_on,45,44,0
2,note_on,45,0,160
2,note_on,43,37,0
2,note_on,43,0,160
2,note_on,45,37,0
2,note_on,45,0,160
2,note_on,53,73,0
2,note_on,53,0,160
2,note_on,57,42,0
2,note_on,57,0,160
2,note_on,53,42,0
2,note_on,53,0,160
2,note_on,48,48,0
2,note_on,48,0,160
2,note_on,45,41,0
2,note_on,45,0,160
2,note_on,41,41,0
2,note_on,41,0,160
2,note_on,45,62,0
2,note_on,45,0,160
2,note_on,41,36,0
2,note_on,41,0,160
2,note_on,45,36,0
2,note_on,45,0,160
2,note_on,41,44,0
2,note_on,41,0,160
2,note_on,45,37,0
2,note_on,45,0,160
2,note_on,41,37,0
2,note_on,41,0,160
2,note_on,53,73,0
2,note_on,53,0,160
2,note_on,55,42,0
2,note_on,55,0,160
2,note_on,53,42,0
2,note_on,53,0,160
2,note_on,50,48,0
2,note_on,50,0,160
2,note_on,47,41,0
2,note_on,47,0,160
2,note_on,43,41,0
2,note_on,43,0,160
2,note_on,41,62,0
2,note_on,41,0,160
2,note_on,43,36,0
2,note_on,43,0,160
2,note_on,41,36,0
2,note_on,41,0,160
2,note_on,43,44,0
2,note_on,43,0,160
2,note_on,41,37,0
2,note_on,41,0,160
2,note_on,43,37,0
2,note_on,43,0,160
2,note_on,51,73,0
2,note_on,51,0,160
2,note_on,55,42,0
2,note_on,55,0,160
2,note_on,51,42,0
2,note_on,51,0,160
2,note_on,46,48,0
2,note_on,46,0,160
2,note_on,43,41,0
2,note_on,43,0,160
2,note_on,39,41,0
2,note_on,39,0,160
2,note_on,43,62,0
2,note_on,43,0,160
2,note_on,39,36,0
2,note_on,39,0,160
2,note_on,43,36,0
2,note_on,43,0,160
2,note_on,39,44,0
2,note_on,39,0,160
2,note_on,43,37,0
2,note_on,43,0,160
2,note_on,39,37,0
2,note_on,39,0,160
2,note_on,51,73,0
2,note_on,51,0,160
2,note_on,53,42,0
2,note_on,53,0,160
2,note_on,51,42,0
2,note_on,51,0,160
2,note_on,48,48,0
2,note_on,48,0,160
2,note_on,45,41,0
2,note_on,45,0,160
2,note_on,41,41,0
2,note_on,41,0,160
2,note_on,49,73,0
2,note_on,49,0,160
2,note_on,53,42,0
2,note_on,53,0,160
2,note_on,49,42,0
2,note_on,49,0,160
2,note_on,44,48,0
2,note_on,44,0,160
2,note_on,41,41,0
2,note_on,41,0,160
2,note_on,37,41,0
2,note_on,37,0,160
2,note_on,50,73,0
2,note_on,50,0,160
2,note_on,52,42,0
2,note_on,52,0,160
2,note_on,50,42,0
2,note_on,50,0,160
2,note_on,47,48,0
2,note_on,47,0,160
2,note_on,44,41,0
2,note_on,44,0,160
2,note_on,40,41,0
2,note_on,40,0,160
2,note_on,48,73,0
2,note_on,48,0,160
2,note_on,52,42,0
2,note_on,52,0,160
2,note_on,48,42,0
2,note_on,48,0,160
2,note_on,43,48,0
2,note_on,43,0,160
2,note_on,40,41,0
2,note_on,40,0,160
2,note_on,36,41,0
2,note_on,36,0,160
2,note_on,41,73,0
2,note_on,41,0,160
2,note_on,45,42,0
2,note_on,45,0,160
2,note_on,41,42,0
2,note_on,41,0,160
2,note_on,36,48,0
2,note_on,36,0,160
2,note_on,33,41,0
2,note_on,33,0,160
2,note_on,29,41,0
2,note_on,29,0,160
2,note_on,33,55,0
2,note_on,33,0,160
2,note_on,29,32,0
2,note_on,29,0,160
2,note_on,33,32,0
2,note_on,33,0,160
2,note_on,29,39,0
2,note_on,29,0,160
2,note_on,33,33,0
2,note_on,33,0,160
2,note_on,29,33,0
2,note_on,29,0,160
2,note_on,45,45,0
2,note_on,45,0,160
2,note_on,41,29,0
2,note_on,41,0,160
2,note_on,45,29,0
2,note_on,45,0,160
2,note_on,41,34,0
2,note_on,41,0,160
2,note_on,45,28,0
2,note_on,45,0,160
2,note_on,41,28,0
2,note_on,41,0,160
2,note_on,45,38,0
2,note_on,45,0,160
2,note_on,41,25,0
2,note_on,41,0,160
2,note_on,45,25,0
2,note_on,45,0,160
2,note_on,41,30,0
2,note_on,41,0,160
2,note_on,45,24,0
2,note_on,45,0,160
2,note_on,41,24,0
2,note_on,41,0,160
2,note_on,40,35,0
2,note_on,52,37,0
2,note_on,52,0,160
2,note_on,54,32,0
2,note_on,40,0,80
2,note_on,54,0,80
2,note_on,56,32,0
2,note_on,56,0,160
2,note_on,57,37,0
2,note_on,57,0,160
2,note_on,59,33,0
2,note_on,59,0,160
2,note_on,61,33,0
2,note_on,61,0,160
2,note_on,52,35,480
2,note_on,59,35,0
2,note_on,59,0,240
2,note_on,52,0,0
2,note_on,45,33,240
2,note_on,49,33,0
2,note_on,57,40,6
2,note_on,49,0,234
2,note_on,45,0,0
2,note_on,57,0,6
2,note_on,73,44,234
2,note_on,76,44,0
2,note_on,76,0,360
2,note_on,73,0,0
2,note_on,73,39,0
2,note_on,76,39,0
2,note_on,76,0,120
2,note_on,73,0,0
2,note_on,71,44,0
2,note_on,74,44,0
2,note_on,74,0,240
2,note_on,71,0,0
2,note_on,52,40,240
2,note_on,59,40,0
2,note_on,59,0,240
2,note_on,52,0,0
2,note_on,45,38,240
2,note_on,49,38,0
2,note_on,57,45,0
2,note_on,57,0,240
2,note_on,49,0,0
2,note_on,45,0,0
2,note_on,73,44,240
2,note_on,76,44,0
2,note_on,76,0,360
2,note_on,73,0,0
2,note_on,73,39,0
2,note_on,76,39,0
2,note_on,76,0,120
2,note_on,73,0,0
2,note_on,71,44,0
2,note_on,74,44,0
2,note_on,74,0,240
2,note_on,71,0,0
2,note_on,52,40,240
2,note_on,59,40,0
2,note_on,59,0,240
2,note_on,52,0,0
2,note_on,45,38,240
2,note_on,49,38,0
2,note_on,57,45,0
2,note_on,57,0,240
2,note_on,49,0,0
2,note_on,45,0,0
2,note_on,73,44,240
2,note_on,76,44,0
2,note_on,76,0,360
2,note_on,73,0,0
2,note_on,73,39,0
2,note_on,76,39,0
2,note_on,76,0,120
2,note_on,73,0,0
2,note_on,71,44,0
2,note_on,74,44,0
2,note_on,74,0,240
2,note_on,71,0,0
2,note_on,40,32,240
2,note_on,40,0,240
2,note_on,33,36,240
2,note_on,33,0,960
2,note_on,45,33,0
2,note_on,45,0,120
2,note_on,45,28,120
2,note_on,45,0,120
2,note_on,45,33,120
2,note_on,45,0,120
2,note_on,45,28,120
2,note_on,45,0,120
2,note_on,45,36,120
2,note_on,45,0,480
2,note_on,55,37,0
2,note_on,55,0,240
2,note_on,45,43,240
2,note_on,45,0,120
2,note_on,45,38,120
2,note_on,45,0,120
2,note_on,45,45,120
2,note_on,45,0,120
2,note_on,45,42,120
2,note_on,45,0,120
2,note_on,45,55,120
2,note_on,45,0,480
2,note_on,55,51,0
2,note_on,55,0,240
2,note_on,57,57,240
2,note_on,57,0,480
2,note_on,67,53,0
2,note_on,67,0,240
2,note_on,57,66,240
2,note_on,57,0,480
2,note_on,67,63,0
2,note_on,67,0,240
2,note_on,57,74,240
2,note_on,57,0,480
2,note_on,67,73,0
2,note_on,67,0,240
2,note_on,38,64,240
2,note_on,50,75,0
2,note_on,50,0,960
2,note_on,38,0,0
2,note_on,42,45,0
2,note_on,50,53,0
2,note_on,50,0,120
2,note_on,42,0,0
2,note_on,42,40,120
2,note_on,50,48,0
2,note_on,50,0,120
2,note_on,42,0,0
2,note_on,42,45,120
2,note_on,50,53,0
2,note_on,50,0,120
2,note_on,42,0,0
2,note_on,42,40,120
2,note_on,50,48,0
2,note_on,50,0,120
2,note_on,42,0,0
2,note_on,42,49,120
2,note_on,50,58,0
2,note_on,42,0,480
2,note_on,43,45,0
2,note_on,52,54,0
2,note_on,52,0,240
2,note_on,43,0,0
2,note_on,50,0,0
2,note_on,45,45,240
2,note_on,50,45,0
2,note_on,54,53,0
2,note_on,54,0,120
2,note_on,50,0,0
2,note_on,45,0,0
2,note_on,45,40,120
2,note_on,50,40,0
2,note_on,54,48,0
2,note_on,54,0,120
2,note_on,50,0,0
2,note_on,45,0,0
2,note_on,45,45,120
2,note_on,50,45,0
2,note_on,54,53,0
2,note_on,54,0,120
2,note_on,50,0,0
2,note_on,45,0,0
2,note_on,45,40,120
2,note_on,50,40,0
2,note_on,54,48,0
2,note_on,54,0,120
2,note_on,50,0,0
2,note_on,45,0,0
2,note_on,50,49,120
2,note_on,45,49,0
2,note_on,54,58,0
2,note_on,54,0,480
2,note_on,45,0,0
2,note_on,47,45,0
2,note_on,55,54,0
2,note_on,55,0,240
2,note_on,47,0,0
2,note_on,50,0,0
2,note_on,52,46,0
2,note_on,52,0,240
2,note_on,55,54,0
2,note_on,55,0,160
2,note_on,54,47,0
2,note_on,54,0,160
2,note_on,52,48,0
2,note_on,52,0,160
2,note_on,58,54,0
2,note_on,58,0,160
2,note_on,57,49,0
2,note_on,57,0,160
2,note_on,55,49,0
2,note_on,55,0,160
2,note_on,57,54,0
2,note_on,57,0,240
2,note_on,62,42,240
2,note_on,62,0,160
2,note_on,64,35,0
2,note_on,64,0,160
2,note_on,66,35,0
2,note_on,66,0,160
2,note_on,57,43,0
2,note_on,57,0,160
2,note_on,61,36,0
2,note_on,61,0,160
2,note_on,62,36,0
2,note_on,62,0,160
2,note_on,64,43,0
2,note_on,64,0,160
2,note_on,66,37,0
2,note_on,66,0,160
2,note_on,67,37,0
2,note_on,67,0,160
2,note_on,38,64,0
2,note_on,50,75,0
2,note_on,50,0,960
2,note_on,38,0,0
2,note_on,41,45,0
2,note_on,50,53,0
2,note_on,50,0,120
2,note_on,41,0,0
2,note_on,41,40,120
2,note_on,50,48,0
2,note_on,50,0,120
2,note_on,41,0,0
2,note_on,41,45,120
2,note_on,50,53,0
2,note_on,50,0,120
2,note_on,41,0,0
2,note_on,41,40,120
2,note_on,50,48,0
2,note_on,50,0,120
2,note_on,41,0,0
2,note_on,41,49,120
2,note_on,50,58,0
2,note_on,41,0,480
2,note_on,43,45,0
2,note_on,52,54,0
2,note_on,52,0,240
2,note_on,43,0,0
2,note_on,50,0,0
2,note_on,45,45,240
2,note_on,50,45,0
2,note_on,54,53,0
2,note_on,54,0,120
2,note_on,50,0,0
2,note_on,45,0,0
2,note_on,45,40,120
2,note_on,50,40,0
2,note_on,54,48,0
2,note_on,54,0,120
2,note_on,50,0,0
2,note_on,45,0,0
2,note_on,45,45,120
2,note_on,50,45,0
2,note_on,54,53,0
2,note_on,54,0,120
2,note_on,50,0,0
2,note_on,45,0,0
2,note_on,45,40,120
2,note_on,50,40,0
2,note_on,54,48,0
2,note_on,54,0,120
2,note_on,50,0,0
2,note_on,45,0,0
2,note_on,50,49,120
2,note_on,45,49,0
2,note_on,54,58,0
2,note_on,54,0,480
2,note_on,45,0,0
2,note_on,46,45,0
2,note_on,55,54,0
2,note_on,55,0,240
2,note_on,46,0,0
2,note_on,50,0,0
2,note_on,47,45,240
2,note_on,53,45,0
2,note_on,56,53,0
2,note_on,56,0,120
2,note_on,53,0,0
2,note_on,47,0,0
2,note_on,47,40,120
2,note_on,53,40,0
2,note_on,56,48,0
2,note_on,56,0,120
2,note_on,53,0,0
2,note_on,47,0,0
2,note_on,47,45,120
2,note_on,53,45,0
2,note_on,56,53,0
2,note_on,56,0,120
2,note_on,53,0,0
2,note_on,47,0,0
2,note_on,47,40,120
2,note_on,53,40,0
2,note_on,56,48,0
2,note_on,56,0,120
2,note_on,53,0,0
2,note_on,47,0,0
2,note_on,53,49,120
2,note_on,48,49,0
2,note_on,57,58,0
2,note_on,57,0,960
2,note_on,48,0,0
2,note_on,53,0,0
2,note_on,48,43,0
2,note_on,48,0,120
2,note_on,48,36,120
2,note_on,48,0,120
2,note_on,48,43,120
2,note_on,48,0,120
2,note_on,48,37,120
2,note_on,48,0,120
2,note_on,48,43,120
2,note_on,48,0,480
2,note_on,45,43,0
2,note_on,45,0,240
2,note_on,48,43,233
2,note_on,48,0,120
2,note_on,48,36,120
2,note_on,48,0,120
2,note_on,48,43,120
2,note_on,48,0,120
2,note_on,48,37,120
2,note_on,48,0,120
2,note_on,48,43,127
2,note_on,48,0,480
2,note_on,53,38,480
2,note_on,55,34,160
2,note_on,53,0,16
2,note_on,57,31,144
2,note_on,55,0,16
2,note_on,57,0,144
2,note_on,45,42,0
2,note_on,46,36,160
2,note_on,45,0,16
2,note_on,48,34,144
2,note_on,46,0,16
2,note_on,48,0,144
2,note_on,41,43,0
2,note_on,43,37,160
2,note_on,41,0,16
2,note_on,45,34,144
2,note_on,43,0,16
2,note_on,45,0,144
2,note_on,33,46,0
2,note_on,34,40,160
2,note_on,33,0,16
2,note_on,36,37,144
2,note_on,34,0,16
2,note_on,36,0,144
2,note_on,33,53,0
2,note_on,34,43,160
2,note_on,33,0,16
2,note_on,36,40,144
2,note_on,34,0,16
2,note_on,36,0,144
2,note_on,33,59,0
2,note_on,34,50,160
2,note_on,33,0,16
2,note_on,36,41,144
2,note_on,34,0,16
2,note_on,36,0,144
2,note_on,37,70,0
2,note_on,37,0,120
2,note_on,37,35,124
2,note_on,37,0,120
2,note_on,37,35,116
2,note_on,37,0,120
2,note_on,37,35,120
2,note_on,37,0,120
2,note_on,37,46,120
2,note_on,37,0,960
2,note_on,49,44,0
2,note_on,37,37,0
2,note_on,37,0,120
2,note_on,49,0,0
2,note_on,49,35,120
2,note_on,37,29,4
2,note_on,49,0,116
2,note_on,37,0,4
2,note_on,37,29,116
2,note_on,49,35,0
2,note_on,49,0,120
2,note_on,37,0,0
2,note_on,49,35,120
2,note_on,37,29,0
2,note_on,37,0,120
2,note_on,49,0,0
2,note_on,49,55,120
2,note_on,37,46,0
2,note_on,37,0,960
2,note_on,49,0,0
2,note_on,45,61,0
2,note_on,33,51,0
2,note_on,33,0,120
2,note_on,45,0,0
2,note_on,33,39,120
2,note_on,45,48,0
2,note_on,45,0,120
2,note_on,33,0,0
2,note_on,33,39,120
2,note_on,45,48,0
2,note_on,45,0,120
2,note_on,33,0,0
2,note_on,45,49,120
2,note_on,33,39,0
2,note_on,33,0,120
2,note_on,45,0,0
2,note_on,45,68,120
2,note_on,33,58,0
2,note_on,33,0,960
2,note_on,45,0,0
2,note_on,45,78,0
2,note_on,33,64,0
2,note_on,33,0,120
2,note_on,45,0,0
2,note_on,33,51,120
2,note_on,45,62,0
2,note_on,45,0,120
2,note_on,33,0,0
2,note_on,33,52,120
2,note_on,45,64,0
2,note_on,45,0,120
2,note_on,33,0,0
2,note_on,45,67,120
2,note_on,33,55,0
2,note_on,33,0,120
2,note_on,45,0,0
2,note_on,45,94,120
2,note_on,33,79,0
2,note_on,33,0,960
2,note_on,45,0,0
2,note_on,45,73,0
2,note_on,42,73,0
2,note_on,38,73,0
2,note_on,50,86,0
2,note_on,50,0,960
2,note_on,45,0,0
2,note_on,42,0,0
2,note_on,38,0,0
2,note_on,42,43,0
2,note_on,50,51,0
2,note_on,50,0,120
2,note_on,42,0,0
2,note_on,42,39,120
2,note_on,50,46,0
2,note_on,50,0,120
2,note_on,42,0,0
2,note_on,42,43,120
2,note_on,50,51,0
2,note_on,50,0,120
2,note_on,42,0,0
2,note_on,42,39,120
2,note_on,50,46,0
2,note_on,50,0,120
2,note_on,42,0,0
2,note_on,42,47,120
2,note_on,50,56,0
2,note_on,42,0,480
2,note_on,43,43,0
2,note_on,52,52,0
2,note_on,52,0,240
2,note_on,43,0,0
2,note_on,50,0,0
2,note_on,45,53,240
2,note_on,45,0,160
2,note_on,47,48,0
2,note_on,47,0,160
2,note_on,48,48,0
2,note_on,48,0,160
2,note_on,50,53,0
2,note_on,50,0,160
2,note_on,52,49,0
2,note_on,52,0,160
2,note_on,54,48,0
2,note_on,54,0,160
2,note_on,46,53,0
2,note_on,46,0,240
2,note_on,54,49,0
2,note_on,54,0,240
2,note_on,47,53,0
2,note_on,47,0,240
2,note_on,55,48,0
2,note_on,55,0,240
2,note_on,49,43,0
2,note_on,55,43,0
2,note_on,57,51,0
2,note_on,57,0,120
2,note_on,55,0,0
2,note_on,49,0,0
2,note_on,49,39,120
2,note_on,55,39,0
2,note_on,57,46,0
2,note_on,57,0,120
2,note_on,55,0,0
2,note_on,49,0,0
2,note_on,49,43,120
2,note_on,55,43,0
2,note_on,57,51,0
2,note_on,57,0,120
2,note_on,55,0,0
2,note_on,49,0,0
2,note_on,49,39,120
2,note_on,55,39,0
2,note_on,57,46,0
2,note_on,57,0,120
2,note_on,55,0,0
2,note_on,49,0,0
2,note_on,55,47,120
2,note_on,49,47,0
2,note_on,57,56,0
2,note_on,57,0,480
2,note_on,49,0,0
2,note_on,50,43,0
2,note_on,59,52,0
2,note_on,59,0,240
2,note_on,50,0,0
2,note_on,55,0,0
2,note_on,50,53,240
2,note_on,50,0,160
2,note_on,52,48,0
2,note_on,52,0,160
2,note_on,54,48,0
2,note_on,54,0,160
2,note_on,55,53,0
2,note_on,55,0,160
2,note_on,57,49,0
2,note_on,57,0,160
2,note_on,59,48,0
2,note_on,59,0,160
2,note_on,51,53,0
2,note_on,51,0,240
2,note_on,59,49,0
2,note_on,59,0,240
2,note_on,52,53,0
2,note_on,52,0,240
2,note_on,60,48,0
2,note_on,60,0,240
2,note_on,52,43,0
2,note_on,58,43,0
2,note_on,61,51,0
2,note_on,61,0,120
2,note_on,58,0,0
2,note_on,52,0,0
2,note_on,52,39,120
2,note_on,58,39,0
2,note_on,61,46,0
2,note_on,61,0,120
2,note_on,58,0,0
2,note_on,52,0,0
2,note_on,52,43,120
2,note_on,58,43,0
2,note_on,61,51,0
2,note_on,61,0,120
2,note_on,58,0,0
2,note_on,52,0,0
2,note_on,52,39,120
2,note_on,58,39,0
2,note_on,61,46,0
2,note_on,61,0,120
2,note_on,58,0,0
2,note_on,52,0,0
2,note_on,58,47,120
2,note_on,52,47,0
2,note_on,61,56,0
2,note_on,61,0,480
2,note_on,52,0,0
2,note_on,53,43,0
2,note_on,62,52,0
2,note_on,62,0,240
2,note_on,53,0,0
2,note_on,58,0,0
2,note_on,53,53,240
2,note_on,53,0,160
2,note_on,55,48,0
2,note_on,55,0,160
2,note_on,57,48,0
2,note_on,57,0,160
2,note_on,59,53,0
2,note_on,59,0,160
2,note_on,60,49,0
2,note_on,60,0,160
2,note_on,62,48,0
2,note_on,62,0,160
2,note_on,51,53,0
2,note_on,51,0,240
2,note_on,58,42,0
2,note_on,58,0,180
2,note_on,58,53,60
2,note_on,58,0,240
2,note_on,62,44,0
2,note_on,62,0,240
2,note_on,34,36,0
2,note_on,46,43,0
2,note_on,46,0,120
2,note_on,34,0,0
2,note_on,34,33,120
2,note_on,46,39,0
2,note_on,46,0,120
2,note_on,34,0,0
2,note_on,34,36,120
2,note_on,46,43,0
2,note_on,46,0,120
2,note_on,34,0,0
2,note_on,34,33,120
2,note_on,46,39,0
2,note_on,46,0,120
2,note_on,34,0,0
2,note_on,34,39,120
2,note_on,46,47,0
2,note_on,46,0,720
2,note_on,34,0,0
2,note_on,53,45,240
2,note_on,53,0,160
2,note_on,55,40,0
2,note_on,55,0,160
2,note_on,57,40,0
2,note_on,57,0,160
2,note_on,58,45,0
2,note_on,58,0,160
2,note_on,60,41,0
2,note_on,60,0,160
2,note_on,62,40,0
2,note_on,62,0,160
2,note_on,51,55,0
2,note_on,51,0,240
2,note_on,58,41,0
2,note_on,58,0,180
2,note_on,58,51,60
2,note_on,58,0,240
2,note_on,62,40,0
2,note_on,62,0,240
2,note_on,34,36,0
2,note_on,46,43,0
2,note_on,46,0,120
2,note_on,34,0,0
2,note_on,34,33,120
2,note_on,46,39,0
2,note_on,46,0,120
2,note_on,34,0,0
2,note_on,34,36,120
2,note_on,46,43,0
2,note_on,46,0,120
2,note_on,34,0,0
2,note_on,34,33,120
2,note_on,46,39,0
2,note_on,46,0,120
2,note_on,34,0,0
2,note_on,34,39,120
2,note_on,46,47,0
2,note_on,46,0,720
2,note_on,34,0,0
2,note_on,53,43,240
2,note_on,53,0,160
2,note_on,55,43,0
2,note_on,55,0,160
2,note_on,57,44,0
2,note_on,57,0,160
2,note_on,58,45,0
2,note_on,58,0,160
2,note_on,60,46,0
2,note_on,60,0,160
2,note_on,62,47,0
2,note_on,62,0,160
2,note_on,63,48,0
2,note_on,63,0,160
2,note_on,65,44,0
2,note_on,65,0,160
2,note_on,67,44,0
2,note_on,67,0,160
2,note_on,65,51,0
2,note_on,65,0,160
2,note_on,63,45,0
2,note_on,63,0,160
2,note_on,62,45,0
2,note_on,62,0,160
2,note_on,61,48,0
2,note_on,61,0,160
2,note_on,58,39,0
2,note_on,58,0,160
2,note_on,55,39,0
2,note_on,55,0,160
2,note_on,52,41,0
2,note_on,52,0,160
2,note_on,49,39,0
2,note_on,49,0,160
2,note_on,52,40,0
2,note_on,52,0,160
2,note_on,53,42,0
2,note_on,53,0,160
2,note_on,50,38,0
2,note_on,50,0,160
2,note_on,53,38,0
2,note_on,53,0,160
2,note_on,50,42,0
2,note_on,50,0,160
2,note_on,46,38,0
2,note_on,46,0,160
2,note_on,50,38,0
2,note_on,50,0,160
2,note_on,41,38,0
2,note_on,41,0,160
2,note_on,43,39,0
2,note_on,43,0,160
2,note_on,45,41,0
2,note_on,45,0,160
2,note_on,46,43,0
2,note_on,46,0,160
2,note_on,48,45,0
2,note_on,48,0,160
2,note_on,50,46,0
2,note_on,50,0,160
2,note_on,51,48,0
2,note_on,51,0,160
2,note_on,53,50,0
2,note_on,53,0,160
2,note_on,55,51,0
2,note_on,55,0,160
2,note_on,53,53,0
2,note_on,53,0,160
2,note_on,51,49,0
2,note_on,51,0,160
2,note_on,50,51,0
2,note_on,50,0,160
2,note_on,49,48,0
2,note_on,49,0,160
2,note_on,46,46,0
2,note_on,46,0,160
2,note_on,43,45,0
2,note_on,43,0,160
2,note_on,40,43,0
2,note_on,40,0,160
2,note_on,37,39,0
2,note_on,37,0,160
2,note_on,40,36,0
2,note_on,40,0,160
2,note_on,43,50,0
2,note_on,43,0,160
2,note_on,40,36,0
2,note_on,40,0,160
2,note_on,43,36,0
2,note_on,43,0,160
2,note_on,40,37,0
2,note_on,40,0,160
2,note_on,37,37,0
2,note_on,37,0,160
2,note_on,40,38,0
2,note_on,40,0,160
2,note_on,44,52,0
2,note_on,44,0,160
2,note_on,40,38,0
2,note_on,40,0,160
2,note_on,44,39,0
2,note_on,44,0,160
2,note_on,40,39,0
2,note_on,40,0,160
2,note_on,37,40,0
2,note_on,37,0,160
2,note_on,40,40,0
2,note_on,40,0,160
2,note_on,45,55,0
2,note_on,45,0,160
2,note_on,40,41,0
2,note_on,40,0,160
2,note_on,45,42,0
2,note_on,45,0,160
2,note_on,40,42,0
2,note_on,40,0,160
2,note_on,37,43,0
2,note_on,37,0,160
2,note_on,40,43,0
2,note_on,40,0,160
2,note_on,45,57,0
2,note_on,45,0,160
2,note_on,40,44,0
2,note_on,40,0,160
2,note_on,45,45,0
2,note_on,45,0,160
2,note_on,40,45,0
2,note_on,40,0,160
2,note_on,36,45,0
2,note_on,36,0,160
2,note_on,40,46,0
2,note_on,40,0,160
2,note_on,35,62,0
2,note_on,35,0,160
2,note_on,41,50,0
2,note_on,41,0,160
2,note_on,35,51,0
2,note_on,35,0,160
2,note_on,41,52,0
2,note_on,41,0,160
2,note_on,47,53,0
2,note_on,47,0,160
2,note_on,41,54,0
2,note_on,41,0,160
2,note_on,34,69,0
2,note_on,34,0,160
2,note_on,41,56,0
2,note_on,41,0,160
2,note_on,34,58,0
2,note_on,34,0,160
2,note_on,41,59,0
2,note_on,41,0,160
2,note_on,46,61,0
2,note_on,46,0,160
2,note_on,34,62,0
2,note_on,34,0,160
2,note_on,33,73,0
2,note_on,45,86,0
2,note_on,45,0,960
2,note_on,33,0,0
2,note_on,57,43,0
2,note_on,66,51,0
2,note_on,66,0,180
2,note_on,57,0,0
2,note_on,57,39,60
2,note_on,66,46,0
2,note_on,66,0,180
2,note_on,57,0,0
2,note_on,57,43,60
2,note_on,66,51,0
2,note_on,66,0,180
2,note_on,57,0,0
2,note_on,57,39,60
2,note_on,66,46,0
2,note_on,66,0,180
2,note_on,57,0,0
2,note_on,57,47,60
2,note_on,69,56,0
2,note_on,69,0,480
2,note_on,64,37,0
2,note_on,64,0,240
2,note_on,57,0,0
2,note_on,37,49,0
2,note_on,37,0,240
2,note_on,38,53,0
2,note_on,38,0,160
2,note_on,37,49,0
2,note_on,37,0,160
2,note_on,35,53,0
2,note_on,35,0,160
2,note_on,41,56,0
2,note_on,41,0,160
2,note_on,40,51,0
2,note_on,40,0,160
2,note_on,38,38,0
2,note_on,38,0,160
2,note_on,40,43,0
2,note_on,49,47,0
2,note_on,49,0,160
2,note_on,50,41,0
2,note_on,40,0,80
2,note_on,50,0,80
2,note_on,52,41,0
2,note_on,52,0,160
2,note_on,54,47,0
2,note_on,54,0,160
2,note_on,56,42,0
2,note_on,56,0,160
2,note_on,57,42,0
2,note_on,57,0,160
2,note_on,52,44,320
2,note_on,52,0,160
2,note_on,50,50,0
2,note_on,50,0,160
2,note_on,49,53,0
2,note_on,49,0,160
2,note_on,47,56,0
2,note_on,47,0,160
2,note_on,33,65,0
2,note_on,45,77,0
2,note_on,45,0,960
2,note_on,33,0,0
2,note_on,57,43,0
2,note_on,66,51,0
2,note_on,66,0,330
2,note_on,57,0,0
2,note_on,57,39,30
2,note_on,66,46,0
2,note_on,66,0,90
2,note_on,57,0,0
2,note_on,57,43,30
2,note_on,66,51,0
2,note_on,66,0,330
2,note_on,57,0,0
2,note_on,57,39,30
2,note_on,66,46,0
2,note_on,66,0,90
2,note_on,57,0,0
2,note_on,57,47,30
2,note_on,69,56,0
2,note_on,69,0,480
2,note_on,64,37,0
2,note_on,64,0,240
2,note_on,57,0,0
2,note_on,37,49,0
2,note_on,37,0,240
2,note_on,38,53,0
2,note_on,38,0,160
2,note_on,37,49,0
2,note_on,37,0,160
2,note_on,35,53,0
2,note_on,35,0,160
2,note_on,41,56,0
2,note_on,41,0,160
2,note_on,40,51,0
2,note_on,40,0,160
2,note_on,38,38,0
2,note_on,38,0,160
2,note_on,40,43,0
2,note_on,49,47,0
2,note_on,49,0,160
2,note_on,50,41,0
2,note_on,40,0,80
2,note_on,50,0,80
2,note_on,52,41,0
2,note_on,52,0,160
2,note_on,54,47,0
2,note_on,54,0,160
2,note_on,56,42,0
2,note_on,56,0,160
2,note_on,57,42,0
2,note_on,57,0,160
2,note_on,52,44,320
2,note_on,52,0,160
2,note_on,50,50,0
2,note_on,50,0,160
2,note_on,49,53,0
2,note_on,49,0,160
2,note_on,47,56,0
2,note_on,47,0,160
2,note_on,45,50,0
2,note_on,45,0,240
2,note_on,57,41,3600
2,note_on,57,0,480
2,note_on,49,35,0
2,note_on,49,0,120
2,note_on,59,41,360
2,note_on,59,0,480
2,note_on,52,35,0
2,note_on,52,0,120
2,note_on,52,33,300
2,note_on,52,0,60
2,note_on,61,41,0
2,note_on,61,0,480
2,note_on,57,34,0
2,note_on,57,0,120
2,note_on,57,33,300
2,note_on,57,0,60
2,note_on,66,45,0
2,note_on,66,0,360
2,note_on,63,36,0
2,note_on,63,0,120
2,note_on,66,43,0
2,note_on,66,0,360
2,note_on,63,35,0
2,note_on,63,0,120
2,note_on,64,41,0
2,note_on,64,0,477
2,note_on,52,35,7
2,note_on,52,0,120
2,note_on,52,33,296
2,note_on,52,0,60
2,note_on,62,41,0
2,note_on,62,0,480
2,note_on,59,35,0
2,note_on,59,0,120
2,note_on,59,33,300
2,note_on,59,0,60
2,note_on,61,41,0
2,note_on,61,0,480
2,note_on,52,34,0
2,note_on,52,0,120
2,note_on,52,33,300
2,note_on,52,0,60
2,note_on,59,45,0
2,note_on,59,0,360
2,note_on,56,36,0
2,note_on,56,0,120
2,note_on,59,43,0
2,note_on,59,0,360
2,note_on,56,35,0
2,note_on,56,0,120
2,note_on,57,41,0
2,note_on,49,41,0
2,note_on,49,0,480
2,note_on,57,0,0
2,note_on,52,35,4
2,note_on,52,0,120
2,note_on,56,41,356
2,note_on,59,41,0
2,note_on,59,0,480
2,note_on,56,0,0
2,note_on,52,35,4
2,note_on,52,0,120
2,note_on,52,41,356
2,note_on,61,41,0
2,note_on,61,0,480
2,note_on,52,0,0
2,note_on,57,35,0
2,note_on,57,0,120
2,note_on,63,45,360
2,note_on,60,38,0
2,note_on,60,0,360
2,note_on,63,0,0
2,note_on,57,36,0
2,note_on,57,0,120
2,note_on,63,43,0
2,note_on,60,36,0
2,note_on,60,0,360
2,note_on,63,0,0
2,note_on,57,35,0
2,note_on,57,0,120
2,note_on,61,41,0
2,note_on,64,41,0
2,note_on,64,0,477
2,note_on,61,0,3
2,note_on,52,35,4
2,note_on,52,0,120
2,note_on,59,41,356
2,note_on,62,41,0
2,note_on,62,0,480
2,note_on,59,0,0
2,note_on,52,35,4
2,note_on,52,0,120
2,note_on,61,41,356
2,note_on,57,41,0
2,note_on,57,0,480
2,note_on,61,0,0
2,note_on,52,35,0
2,note_on,52,0,120
2,note_on,56,38,360
2,note_on,59,45,0
2,note_on,59,0,360
2,note_on,56,0,0
2,note_on,52,36,0
2,note_on,52,0,120
2,note_on,56,36,0
2,note_on,59,43,0
2,note_on,59,0,360
2,note_on,56,0,0
2,note_on,52,35,0
2,note_on,52,0,120
2,note_on,59,69,0
2,note_on,59,0,160
2,note_on,50,53,0
2,note_on,50,0,160
2,note_on,59,53,0
2,note_on,59,0,160
2,note_on,43,71,0
2,note_on,43,0,840
2,note_on,50,48,0
2,note_on,59,48,0
2,note_on,59,0,120
2,note_on,50,0,0
2,note_on,43,62,0
2,note_on,43,0,360
2,note_on,50,53,0
2,note_on,50,0,120
2,note_on,59,71,0
2,note_on,59,0,160
2,note_on,50,53,0
2,note_on,50,0,160
2,note_on,59,53,0
2,note_on,59,0,160
2,note_on,43,68,0
2,note_on,43,0,840
2,note_on,59,48,0
2,note_on,50,48,0
2,note_on,50,0,120
2,note_on,59,0,0
2,note_on,43,62,0
2,note_on,43,0,840
2,note_on,59,53,0
2,note_on,50,45,0
2,note_on,50,0,120
2,note_on,59,0,0
2,note_on,43,62,0
2,note_on,43,0,840
2,note_on,59,53,0
2,note_on,50,45,0
2,note_on,50,0,120
2,note_on,59,0,0
2,note_on,43,62,0
2,note_on,43,0,360
2,note_on,55,53,0
2,note_on,55,0,120
2,note_on,48,71,0
2,note_on,48,0,160
2,note_on,55,53,0
2,note_on,55,0,160
2,note_on,48,53,0
2,note_on,48,0,160
2,note_on,36,69,0
2,note_on,36,0,840
2,note_on,55,48,0
2,note_on,48,48,0
2,note_on,48,0,120
2,note_on,55,0,0
2,note_on,36,62,0
2,note_on,36,0,360
2,note_on,55,53,0
2,note_on,55,0,120
2,note_on,48,62,0
2,note_on,48,0,160
2,note_on,55,53,0
2,note_on,55,0,160
2,note_on,48,53,0
2,note_on,48,0,160
2,note_on,36,62,0
2,note_on,36,0,840
2,note_on,55,48,0
2,note_on,48,48,0
2,note_on,48,0,120
2,note_on,55,0,0
2,note_on,36,62,0
2,note_on,36,0,840
2,note_on,48,45,0
2,note_on,55,53,0
2,note_on,55,0,120
2,note_on,48,0,0
2,note_on,36,62,0
2,note_on,36,0,840
2,note_on,40,41,0
2,note_on,40,0,120
2,note_on,35,45,0
2,note_on,35,0,840
2,note_on,40,33,0
2,note_on,40,0,120
2,note_on,35,37,0
2,note_on,35,0,360
2,note_on,40,32,0
2,note_on,40,0,120
2,note_on,35,34,0
2,note_on,35,0,360
2,note_on,40,29,0
2,note_on,40,0,120
2,note_on,35,31,0
2,note_on,35,0,360
2,note_on,40,27,0
2,note_on,40,0,120
2,note_on,33,31,0
2,note_on,33,0,120
2,note_on,57,38,1000
2,note_on,57,0,160
2,note_on,61,40,0
2,note_on,61,0,160
2,note_on,64,42,0
2,note_on,64,0,160
2,note_on,69,41,0
2,note_on,69,0,160
2,note_on,73,38,0
2,note_on,73,0,160
2,note_on,64,42,0
2,note_on,64,0,240
2,note_on,62,34,240
2,note_on,59,28,0
2,note_on,52,28,0
2,note_on,52,0,120
2,note_on,59,0,0
2,note_on,62,0,0
2,note_on,61,34,360
2,note_on,57,28,0
2,note_on,52,28,0
2,note_on,52,0,120
2,note_on,57,0,0
2,note_on,61,0,0
2,note_on,59,34,360
2,note_on,56,28,0
2,note_on,52,28,0
2,note_on,52,0,120
2,note_on,56,0,0
2,note_on,59,0,0
2,note_on,57,31,360
2,note_on,61,37,0
2,note_on,61,0,240
2,note_on,57,0,0
2,note_on,57,38,880
2,note_on,57,0,160
2,note_on,61,40,0
2,note_on,61,0,160
2,note_on,64,42,0
2,note_on,64,0,160
2,note_on,69,41,0
2,note_on,69,0,160
2,note_on,73,38,0
2,note_on,73,0,160
2,note_on,64,42,0
2,note_on,64,0,240
2,note_on,62,34,240
2,note_on,52,28,0
2,note_on,59,28,0
2,note_on,59,0,120
2,note_on,52,0,0
2,note_on,62,0,0
2,note_on,57,28,360
2,note_on,61,34,0
2,note_on,52,28,0
2,note_on,52,0,120
2,note_on,61,0,0
2,note_on,57,0,0
2,note_on,59,34,360
2,note_on,56,28,0
2,note_on,52,28,0
2,note_on,52,0,120
2,note_on,56,0,0
2,note_on,59,0,0
2,note_on,57,41,360
2,note_on,57,0,480
2,note_on,49,35,0
2,note_on,49,0,240
2,note_on,59,40,240
2,note_on,59,0,480
2,note_on,52,33,0
2,note_on,52,0,240
2,note_on,61,42,240
2,note_on,61,0,480
2,note_on,57,34,0
2,note_on,57,0,240
2,note_on,66,40,240
2,note_on,66,0,360
2,note_on,63,30,0
2,note_on,63,0,120
2,note_on,66,37,0
2,note_on,66,0,360
2,note_on,63,34,0
2,note_on,63,0,120
2,note_on,64,41,0
2,note_on,64,0,480
2,note_on,52,35,0
2,note_on,52,0,240
2,note_on,62,40,240
2,note_on,62,0,480
2,note_on,59,33,0
2,note_on,59,0,240
2,note_on,61,42,240
2,note_on,61,0,480
2,note_on,52,34,0
2,note_on,52,0,240
2,note_on,59,40,240
2,note_on,59,0,360
2,note_on,56,30,0
2,note_on,56,0,120
2,note_on,59,37,0
2,note_on,59,0,360
2,note_on,52,34,0
2,note_on,52,0,120
2,note_on,69,43,0
2,note_on,69,0,160
2,note_on,64,36,0
2,note_on,64,0,160
2,note_on,69,36,0
2,note_on,69,0,160
2,note_on,61,42,0
2,note_on,61,0,240
2,note_on,71,44,240
2,note_on,71,0,160
2,note_on,68,38,0
2,note_on,68,0,160
2,note_on,71,38,0
2,note_on,71,0,160
2,note_on,64,44,0
2,note_on,64,0,240
2,note_on,73,49,240
2,note_on,73,0,160
2,note_on,71,41,0
2,note_on,71,0,160
2,note_on,73,41,0
2,note_on,73,0,160
2,note_on,69,49,0
2,note_on,69,0,240
2,note_on,78,49,240
2,note_on,78,0,360
2,note_on,75,37,0
2,note_on,75,0,120
2,note_on,78,46,0
2,note_on,78,0,360
2,note_on,75,43,0
2,note_on,75,0,120
2,note_on,78,54,0
2,note_on,78,0,480
2,note_on,75,44,0
2,note_on,75,0,240
2,note_on,78,42,240
2,note_on,78,0,480
2,note_on,75,34,0
2,note_on,75,0,240
2,note_on,78,42,240
2,note_on,78,0,480
2,note_on,75,41,0
2,note_on,75,0,240
2,note_on,77,40,240
2,note_on,77,0,360
2,note_on,75,30,0
2,note_on,75,0,120
2,note_on,77,37,0
2,note_on,77,0,360
2,note_on,75,34,0
2,note_on,75,0,120
2,note_on,77,42,0
2,note_on,77,0,480
2,note_on,75,34,0
2,note_on,75,0,240
2,note_on,77,42,240
2,note_on,77,0,480
2,note_on,75,33,0
2,note_on,75,0,240
2,note_on,77,40,240
2,note_on,77,0,480
2,note_on,74,32,0
2,note_on,74,0,240
2,note_on,76,39,240
2,note_on,76,0,480
2,note_on,74,31,0
2,note_on,74,0,240
2,note_on,73,37,240
2,note_on,73,0,480
2,note_on,76,29,0
2,note_on,76,0,240
2,note_on,66,36,240
2,note_on,66,0,480
2,note_on,74,28,0
2,note_on,69,25,0
2,note_on,69,0,240
2,note_on,74,0,0
2,note_on,64,34,240
2,note_on,64,0,480
2,note_on,69,25,0
2,note_on,73,27,0
2,note_on,73,0,240
2,note_on,69,0,0
2,note_on,64,33,240
2,note_on,64,0,480
2,note_on,68,22,0
2,note_on,71,26,0
2,note_on,71,0,240
2,note_on,68,0,0
2,note_on,55,74,240
2,note_on,55,0,160
2,note_on,57,42,0
2,note_on,57,0,160
2,note_on,55,42,0
2,note_on,55,0,160
2,note_on,52,48,0
2,note_on,52,0,160
2,note_on,49,41,0
2,note_on,49,0,160
2,note_on,45,41,0
2,note_on,45,0,160
2,note_on,43,60,0
2,note_on,43,0,160
2,note_on,45,36,0
2,note_on,45,0,160
2,note_on,43,36,0
2,note_on,43,0,160
2,note_on,45,44,0
2,note_on,45,0,160
2,note_on,43,37,0
2,note_on,43,0,160
2,note_on,45,37,0
2,note_on,45,0,160
2,note_on,53,73,0
2,note_on,53,0,160
2,note_on,57,42,0
2,note_on,57,0,160
2,note_on,53,42,0
2,note_on,53,0,160
2,note_on,48,48,0
2,note_on,48,0,160
2,note_on,45,41,0
2,note_on,45,0,160
2,note_on,41,41,0
2,note_on,41,0,160
2,note_on,45,62,0
2,note_on,45,0,160
2,note_on,41,36,0
2,note_on,41,0,160
2,note_on,45,36,0
2,note_on,45,0,160
2,note_on,41,44,0
2,note_on,41,0,160
2,note_on,45,37,0
2,note_on,45,0,160
2,note_on,41,37,0
2,note_on,41,0,160
2,note_on,55,73,0
2,note_on,55,0,160
2,note_on,57,42,0
2,note_on,57,0,160
2,note_on,55,42,0
2,note_on,55,0,160
2,note_on,52,48,0
2,note_on,52,0,160
2,note_on,49,41,0
2,note_on,49,0,160
2,note_on,45,41,0
2,note_on,45,0,160
2,note_on,43,60,0
2,note_on,43,0,160
2,note_on,45,36,0
2,note_on,45,0,160
2,note_on,43,36,0
2,note_on,43,0,160
2,note_on,45,44,0
2,note_on,45,0,160
2,note_on,43,37,0
2,note_on,43,0,160
2,note_on,45,37,0
2,note_on,45,0,160
2,note_on,53,74,0
2,note_on,53,0,160
2,note_on,57,42,0
2,note_on,57,0,160
2,note_on,53,42,0
2,note_on,53,0,160
2,note_on,48,48,0
2,note_on,48,0,160
2,note_on,45,41,0
2,note_on,45,0,160
2,note_on,41,41,0
2,note_on,41,0,160
2,note_on,45,62,0
2,note_on,45,0,160
2,note_on,41,36,0
2,note_on,41,0,160
2,note_on,45,36,0
2,note_on,45,0,160
2,note_on,41,44,0
2,note_on,41,0,160
2,note_on,45,37,0
2,note_on,45,0,160
2,note_on,41,37,0
2,note_on,41,0,160
2,note_on,52,37,0
2,note_on,40,35,0
2,note_on,52,0,160
2,note_on,54,32,0
2,note_on,40,0,80
2,note_on,54,0,80
2,note_on,56,32,0
2,note_on,56,0,160
2,note_on,57,37,0
2,note_on,57,0,160
2,note_on,59,33,0
2,note_on,59,0,160
2,note_on,61,33,0
2,note_on,61,0,160
2,note_on,59,35,480
2,note_on,52,35,0
2,note_on,52,0,240
2,note_on,59,0,0
2,note_on,45,33,240
2,note_on,49,33,0
2,note_on,57,40,6
2,note_on,49,0,234
2,note_on,45,0,0
2,note_on,57,0,6
2,note_on,76,44,234
2,note_on,73,44,0
2,note_on,73,0,360
2,note_on,76,0,0
2,note_on,73,39,0
2,note_on,76,39,0
2,note_on,76,0,120
2,note_on,73,0,0
2,note_on,71,44,0
2,note_on,74,44,0
2,note_on,74,0,240
2,note_on,71,0,0
2,note_on,52,40,240
2,note_on,59,40,0
2,note_on,59,0,240
2,note_on,52,0,0
2,note_on,45,38,240
2,note_on,49,38,0
2,note_on,57,45,0
2,note_on,57,0,240
2,note_on,49,0,0
2,note_on,45,0,0
2,note_on,73,44,240
2,note_on,76,44,0
2,note_on,76,0,360
2,note_on,73,0,0
2,note_on,73,39,0
2,note_on,76,39,0
2,note_on,76,0,120
2,note_on,73,0,0
2,note_on,71,44,0
2,note_on,74,44,0
2,note_on,74,0,240
2,note_on,71,0,0
2,note_on,52,40,240
2,note_on,59,40,0
2,note_on,59,0,240
2,note_on,52,0,0
2,note_on,49,38,240
2,note_on,57,45,0
2,note_on,45,38,0
2,note_on,45,0,240
2,note_on,57,0,0
2,note_on,49,0,0
2,note_on,73,44,240
2,note_on,76,44,0
2,note_on,76,0,360
2,note_on,73,0,0
2,note_on,73,39,0
2,note_on,76,39,0
2,note_on,76,0,120
2,note_on,73,0,0
2,note_on,71,44,0
2,note_on,74,44,0
2,note_on,74,0,240
2,note_on,71,0,0
2,note_on,52,35,240
2,note_on,52,0,240
2,note_on,55,74,240
2,note_on,55,0,160
2,note_on,57,42,0
2,note_on,57,0,160
2,note_on,55,42,0
2,note_on,55,0,160
2,note_on,52,48,0
2,note_on,52,0,160
2,note_on,49,41,0
2,note_on,49,0,160
2,note_on,45,41,0
2,note_on,45,0,160
2,note_on,43,60,0
2,note_on,43,0,160
2,note_on,45,36,0
2,note_on,45,0,160
2,note_on,43,36,0
2,note_on,43,0,160
2,note_on,45,44,0
2,note_on,45,0,160
2,note_on,43,37,0
2,note_on,43,0,160
2,note_on,45,37,0
2,note_on,45,0,160
2,note_on,53,73,0
2,note_on,53,0,160
2,note_on,57,42,0
2,note_on,57,0,160
2,note_on,53,42,0
2,note_on,53,0,160
2,note_on,48,48,0
2,note_on,48,0,160
2,note_on,45,41,0
2,note_on,45,0,160
2,note_on,41,41,0
2,note_on,41,0,160
2,note_on,45,62,0
2,note_on,45,0,160
2,note_on,41,36,0
2,note_on,41,0,160
2,note_on,45,36,0
2,note_on,45,0,160
2,note_on,41,44,0
2,note_on,41,0,160
2,note_on,45,37,0
2,note_on,45,0,160
2,note_on,41,37,0
2,note_on,41,0,160
2,note_on,53,73,0
2,note_on,53,0,160
2,note_on,55,42,0
2,note_on,55,0,160
2,note_on,53,42,0
2,note_on,53,0,160
2,note_on,50,48,0
2,note_on,50,0,160
2,note_on,47,41,0
2,note_on,47,0,160
2,note_on,43,41,0
2,note_on,43,0,160
2,note_on,41,62,0
2,note_on,41,0,160
2,note_on,43,36,0
2,note_on,43,0,160
2,note_on,41,36,0
2,note_on,41,0,160
2,note_on,43,44,0
2,note_on,43,0,160
2,note_on,41,37,0
2,note_on,41,0,160
2,note_on,43,37,0
2,note_on,43,0,160
2,note_on,51,73,0
2,note_on,51,0,160
2,note_on,55,42,0
2,note_on,55,0,160
2,note_on,51,42,0
2,note_on,51,0,160
2,note_on,46,48,0
2,note_on,46,0,160
2,note_on,43,41,0
2,note_on,43,0,160
2,note_on,39,41,0
2,note_on,39,0,160
2,note_on,43,62,0
2,note_on,43,0,160
2,note_on,39,36,0
2,note_on,39,0,160
2,note_on,43,36,0
2,note_on,43,0,160
2,note_on,39,44,0
2,note_on,39,0,160
2,note_on,43,37,0
2,note_on,43,0,160
2,note_on,39,37,0
2,note_on,39,0,160
2,note_on,51,73,0
2,note_on,51,0,160
2,note_on,53,42,0
2,note_on,53,0,160
2,note_on,51,42,0
2,note_on,51,0,160
2,note_on,48,48,0
2,note_on,48,0,160
2,note_on,45,41,0
2,note_on,45,0,160
2,note_on,41,41,0
2,note_on,41,0,160
2,note_on,49,73,0
2,note_on,49,0,160
2,note_on,53,42,0
2,note_on,53,0,160
2,note_on,49,42,0
2,note_on,49,0,160
2,note_on,44,48,0
2,note_on,44,0,160
2,note_on,41,41,0
2,note_on,41,0,160
2,note_on,37,41,0
2,note_on,37,0,160
2,note_on,50,73,0
2,note_on,50,0,160
2,note_on,52,42,0
2,note_on,52,0,160
2,note_on,50,42,0
2,note_on,50,0,160
2,note_on,47,48,0
2,note_on,47,0,160
2,note_on,44,41,0
2,note_on,44,0,160
2,note_on,40,41,0
2,note_on,40,0,160
2,note_on,48,73,0
2,note_on,48,0,160
2,note_on,52,42,0
2,note_on,52,0,160
2,note_on,48,42,0
2,note_on,48,0,160
2,note_on,43,48,0
2,note_on,43,0,160
2,note_on,40,41,0
2,note_on,40,0,160
2,note_on,36,41,0
2,note_on,36,0,160
2,note_on,41,73,0
2,note_on,41,0,160
2,note_on,45,42,0
2,note_on,45,0,160
2,note_on,41,42,0
2,note_on,41,0,160
2,note_on,36,48,0
2,note_on,36,0,160
2,note_on,33,41,0
2,note_on,33,0,160
2,note_on,29,41,0
2,note_on,29,0,160
2,note_on,33,55,0
2,note_on,33,0,160
2,note_on,29,32,0
2,note_on,29,0,160
2,note_on,33,32,0
2,note_on,33,0,160
2,note_on,29,39,0
2,note_on,29,0,160
2,note_on,33,33,0
2,note_on,33,0,160
2,note_on,29,33,0
2,note_on,29,0,160
2,note_on,45,45,0
2,note_on,45,0,160
2,note_on,41,29,0
2,note_on,41,0,160
2,note_on,45,29,0
2,note_on,45,0,160
2,note_on,41,34,0
2,note_on,41,0,160
2,note_on,45,28,0
2,note_on,45,0,160
2,note_on,41,28,0
2,note_on,41,0,160
2,note_on,45,38,0
2,note_on,45,0,160
2,note_on,41,25,0
2,note_on,41,0,160
2,note_on,45,25,0
2,note_on,45,0,160
2,note_on,41,30,0
2,note_on,41,0,160
2,note_on,45,24,0
2,note_on,45,0,160
2,note_on,41,24,0
2,note_on,41,0,160
2,note_on,52,37,0
2,note_on,40,35,0
2,note_on,52,0,160
2,note_on,54,32,0
2,note_on,40,0,80
2,note_on,54,0,80
2,note_on,56,32,0
2,note_on,56,0,160
2,note_on,57,37,0
2,note_on,57,0,160
2,note_on,59,33,0
2,note_on,59,0,160
2,note_on,61,33,0
2,note_on,61,0,160
2,note_on,52,35,480
2,note_on,59,35,0
2,note_on,59,0,240
2,note_on,52,0,0
2,note_on,45,33,240
2,note_on,49,33,0
2,note_on,57,40,6
2,note_on,49,0,234
2,note_on,45,0,0
2,note_on,57,0,6
2,note_on,73,44,234
2,note_on,76,44,0
2,note_on,76,0,360
2,note_on,73,0,0
2,note_on,73,39,0
2,note_on,76,39,0
2,note_on,76,0,120
2,note_on,73,0,0
2,note_on,71,44,0
2,note_on,74,44,0
2,note_on,74,0,240
2,note_on,71,0,0
2,note_on,59,40,240
2,note_on,52,40,0
2,note_on,52,0,240
2,note_on,59,0,0
2,note_on,57,45,240
2,note_on,45,38,0
2,note_on,49,38,0
2,note_on,49,0,240
2,note_on,45,0,0
2,note_on,57,0,0
2,note_on,73,44,240
2,note_on,76,44,0
2,note_on,76,0,360
2,note_on,73,0,0
2,note_on,73,39,0
2,note_on,76,39,0
2,note_on,76,0,120
2,note_on,73,0,0
2,note_on,71,44,0
2,note_on,74,44,0
2,note_on,74,0,240
2,note_on,71,0,0
2,note_on,52,40,240
2,note_on,59,40,0
2,note_on,59,0,240
2,note_on,52,0,0
2,note_on,45,38,240
2,note_on,49,38,0
2,note_on,57,45,0
2,note_on,57,0,240
2,note_on,49,0,0
2,note_on,45,0,0
2,note_on,73,44,240
2,note_on,76,44,0
2,note_on,76,0,360
2,note_on,73,0,0
2,note_on,73,39,0
2,note_on,76,39,0
2,note_on,76,0,120
2,note_on,73,0,0
2,note_on,71,44,0
2,note_on,74,44,0
2,note_on,74,0,240
2,note_on,71,0,0
2,note_on,40,32,240
2,note_on,40,0,240
2,note_on,33,36,240
2,note_on,33,0,960
2,note_on,45,33,0
2,note_on,45,0,120
2,note_on,45,28,120
2,note_on,45,0,120
2,note_on,45,33,120
2,note_on,45,0,120
2,note_on,45,28,120
2,note_on,45,0,120
2,note_on,45,36,120
2,note_on,45,0,480
2,note_on,55,37,0
2,note_on,55,0,240
2,note_on,45,43,240
2,note_on,45,0,120
2,note_on,45,38,120
2,note_on,45,0,120
2,note_on,45,45,120
2,note_on,45,0,120
2,note_on,45,42,120
2,note_on,45,0,120
2,note_on,45,55,120
2,note_on,45,0,480
2,note_on,55,51,0
2,note_on,55,0,240
2,note_on,57,57,240
2,note_on,57,0,480
2,note_on,67,53,0
2,note_on,67,0,240
2,note_on,57,70,240
2,note_on,57,0,480
2,note_on,67,68,0
2,note_on,67,0,240
2,note_on,57,74,240
2,note_on,57,0,480
2,note_on,67,73,0
2,note_on,67,0,240
2,note_on,34,76,240
2,note_on,46,90,0
2,note_on,46,0,960
2,note_on,34,0,0
2,note_on,50,54,0
2,note_on,58,63,0
2,note_on,58,0,120
2,note_on,50,0,0
2,note_on,50,48,120
2,note_on,58,57,0
2,note_on,58,0,120
2,note_on,50,0,0
2,note_on,50,54,120
2,note_on,58,63,0
2,note_on,58,0,120
2,note_on,50,0,0
2,note_on,50,48,120
2,note_on,58,57,0
2,note_on,58,0,120
2,note_on,50,0,0
2,note_on,50,58,120
2,note_on,58,69,0
2,note_on,58,0,480
2,note_on,50,0,0
2,note_on,53,54,0
2,note_on,60,64,0
2,note_on,60,0,240
2,note_on,53,0,0
2,note_on,53,58,240
2,note_on,60,69,0
2,note_on,60,0,480
2,note_on,53,0,0
2,note_on,58,54,0
2,note_on,62,64,0
2,note_on,62,0,240
2,note_on,58,0,0
2,note_on,58,58,240
2,note_on,62,69,0
2,note_on,62,0,480
2,note_on,58,0,0
2,note_on,53,54,0
2,note_on,60,64,0
2,note_on,60,0,240
2,note_on,53,0,0
2,note_on,53,54,240
2,note_on,60,63,0
2,note_on,60,0,120
2,note_on,53,0,0
2,note_on,53,48,120
2,note_on,60,57,0
2,note_on,60,0,120
2,note_on,53,0,0
2,note_on,53,54,120
2,note_on,60,63,0
2,note_on,60,0,120
2,note_on,53,0,0
2,note_on,53,48,120
2,note_on,60,57,0
2,note_on,60,0,120
2,note_on,53,0,0
2,note_on,53,58,120
2,note_on,60,69,0
2,note_on,60,0,480
2,note_on,53,0,0
2,note_on,62,54,0
2,note_on,65,64,0
2,note_on,65,0,240
2,note_on,62,0,0
2,note_on,62,58,240
2,note_on,65,69,0
2,note_on,65,0,480
2,note_on,62,0,0
2,note_on,57,54,0
2,note_on,63,64,0
2,note_on,63,0,240
2,note_on,57,0,0
2,note_on,57,58,240
2,note_on,63,69,0
2,note_on,63,0,480
2,note_on,57,0,0
2,note_on,58,54,0
2,note_on,62,64,0
2,note_on,62,0,240
2,note_on,58,0,0
2,note_on,31,54,240
2,note_on,43,63,0
2,note_on,43,0,120
2,note_on,31,0,0
2,note_on,31,48,120
2,note_on,43,57,0
2,note_on,43,0,120
2,note_on,31,0,0
2,note_on,31,54,120
2,note_on,43,63,0
2,note_on,43,0,120
2,note_on,31,0,0
2,note_on,31,48,120
2,note_on,43,57,0
2,note_on,43,0,120
2,note_on,31,0,0
2,note_on,31,58,120
2,note_on,43,69,0
2,note_on,43,0,480
2,note_on,31,0,0
2,note_on,34,54,0
2,note_on,46,64,0
2,note_on,46,0,240
2,note_on,34,0,0
2,note_on,34,55,240
2,note_on,46,65,0
2,note_on,46,0,120
2,note_on,34,0,0
2,note_on,38,51,360
2,note_on,50,60,0
2,note_on,50,0,120
2,note_on,38,0,0
2,note_on,41,58,360
2,note_on,53,69,0
2,note_on,53,0,960
2,note_on,41,0,0
2,note_on,37,51,0
2,note_on,49,59,0
2,note_on,49,0,120
2,note_on,37,0,0
2,note_on,37,45,120
2,note_on,49,54,0
2,note_on,49,0,120
2,note_on,37,0,0
2,note_on,37,51,120
2,note_on,49,59,0
2,note_on,49,0,120
2,note_on,37,0,0
2,note_on,37,45,120
2,note_on,49,54,0
2,note_on,49,0,120
2,note_on,37,0,0
2,note_on,41,55,120
2,note_on,50,55,0
2,note_on,53,65,0
2,note_on,53,0,960
2,note_on,50,0,0
2,note_on,41,0,0
2,note_on,58,55,0
2,note_on,50,55,0
2,note_on,62,65,0
2,note_on,62,0,120
2,note_on,50,0,0
2,note_on,58,0,0
2,note_on,53,51,360
2,note_on,57,51,0
2,note_on,60,60,0
2,note_on,60,0,120
2,note_on,57,0,0
2,note_on,53,0,0
2,note_on,34,69,360
2,note_on,46,82,0
2,note_on,46,0,960
2,note_on,34,0,0
2,note_on,50,54,0
2,note_on,58,63,0
2,note_on,58,0,120
2,note_on,50,0,0
2,note_on,50,48,120
2,note_on,58,57,0
2,note_on,58,0,120
2,note_on,50,0,0
2,note_on,50,54,120
2,note_on,58,63,0
2,note_on,58,0,120
2,note_on,50,0,0
2,note_on,50,48,120
2,note_on,58,57,0
2,note_on,58,0,120
2,note_on,50,0,0
2,note_on,50,58,120
2,note_on,58,69,0
2,note_on,58,0,480
2,note_on,50,0,0
2,note_on,53,54,0
2,note_on,60,64,0
2,note_on,60,0,240
2,note_on,53,0,0
2,note_on,53,58,240
2,note_on,60,69,0
2,note_on,60,0,480
2,note_on,53,0,0
2,note_on,58,54,0
2,note_on,62,64,0
2,note_on,62,0,240
2,note_on,58,0,0
2,note_on,58,58,240
2,note_on,62,69,0
2,note_on,62,0,480
2,note_on,58,0,0
2,note_on,53,54,0
2,note_on,60,64,0
2,note_on,60,0,240
2,note_on,53,0,0
2,note_on,53,54,240
2,note_on,60,63,0
2,note_on,60,0,120
2,note_on,53,0,0
2,note_on,53,48,120
2,note_on,60,57,0
2,note_on,60,0,120
2,note_on,53,0,0
2,note_on,53,54,120
2,note_on,60,63,0
2,note_on,60,0,120
2,note_on,53,0,0
2,note_on,53,48,120
2,note_on,60,57,0
2,note_on,60,0,120
2,note_on,53,0,0
2,note_on,53,58,120
2,note_on,60,69,0
2,note_on,60,0,480
2,note_on,53,0,0
2,note_on,62,54,0
2,note_on,65,64,0
2,note_on,65,0,240
2,note_on,62,0,0
2,note_on,62,58,240
2,note_on,65,69,0
2,note_on,65,0,480
2,note_on,62,0,0
2,note_on,57,54,0
2,note_on,63,64,0
2,note_on,63,0,240
2,note_on,57,0,0
2,note_on,57,58,240
2,note_on,63,69,0
2,note_on,63,0,480
2,note_on,57,0,0
2,note_on,58,54,0
2,note_on,62,64,0
2,note_on,62,0,240
2,note_on,58,0,0
2,note_on,31,63,240
2,note_on,31,0,160
2,note_on,34,58,0
2,note_on,34,0,160
2,note_on,36,58,0
2,note_on,36,0,160
2,note_on,38,63,0
2,note_on,38,0,160
2,note_on,40,59,0
2,note_on,40,0,160
2,note_on,42,59,0
2,note_on,42,0,160
2,note_on,43,69,0
2,note_on,43,0,480
2,note_on,46,64,0
2,note_on,46,0,240
2,note_on,46,65,240
2,note_on,46,0,160
2,note_on,45,61,0
2,note_on,45,0,160
2,note_on,46,61,0
2,note_on,46,0,160
2,note_on,50,65,0
2,note_on,50,0,160
2,note_on,48,61,0
2,note_on,48,0,160
2,note_on,46,61,0
2,note_on,46,0,160
2,note_on,53,69,0
2,note_on,53,0,960
2,note_on,44,51,0
2,note_on,56,59,0
2,note_on,56,0,120
2,note_on,44,0,0
2,note_on,44,45,120
2,note_on,56,54,0
2,note_on,56,0,120
2,note_on,44,0,0
2,note_on,44,51,120
2,note_on,56,59,0
2,note_on,56,0,120
2,note_on,44,0,0
2,note_on,44,45,120
2,note_on,56,54,0
2,note_on,56,0,120
2,note_on,44,0,0
2,note_on,48,55,120
2,note_on,57,55,0
2,note_on,60,65,0
2,note_on,60,0,960
2,note_on,57,0,0
2,note_on,48,0,0
2,note_on,65,55,0
2,note_on,57,55,0
2,note_on,69,65,0
2,note_on,69,0,120
2,note_on,57,0,0
2,note_on,65,0,0
2,note_on,60,51,360
2,note_on,64,51,0
2,note_on,67,60,0
2,note_on,67,0,120
2,note_on,64,0,0
2,note_on,60,0,0
2,note_on,41,76,360
2,note_on,41,0,160
2,note_on,43,46,0
2,note_on,43,0,160
2,note_on,45,46,0
2,note_on,45,0,160
2,note_on,46,54,0
2,note_on,46,0,160
2,note_on,48,46,0
2,note_on,48,0,160
2,note_on,50,46,0
2,note_on,50,0,160
2,note_on,52,55,0
2,note_on,52,0,240
2,note_on,60,55,240
2,note_on,52,46,0
2,note_on,52,0,120
2,note_on,60,0,0
2,note_on,60,50,120
2,note_on,52,42,0
2,note_on,52,0,120
2,note_on,60,0,0
2,note_on,53,46,120
2,note_on,60,55,0
2,note_on,60,0,480
2,note_on,53,0,0
2,note_on,57,53,0
2,note_on,57,0,240
2,note_on,43,46,240
2,note_on,48,55,0
2,note_on,48,0,120
2,note_on,43,0,0
2,note_on,40,43,360
2,note_on,48,51,0
2,note_on,48,0,120
2,note_on,40,0,0
2,note_on,41,76,360
2,note_on,41,0,160
2,note_on,43,46,0
2,note_on,43,0,160
2,note_on,45,46,0
2,note_on,45,0,160
2,note_on,46,54,0
2,note_on,46,0,160
2,note_on,48,46,0
2,note_on,48,0,160
2,note_on,50,46,0
2,note_on,50,0,160
2,note_on,52,55,0
2,note_on,52,0,240
2,note_on,60,55,240
2,note_on,52,46,0
2,note_on,52,0,120
2,note_on,60,0,0
2,note_on,60,50,120
2,note_on,52,42,0
2,note_on,52,0,120
2,note_on,60,0,0
2,note_on,53,46,120
2,note_on,60,55,0
2,note_on,60,0,480
2,note_on,53,0,0
2,note_on,57,53,0
2,note_on,57,0,240
2,note_on,43,46,240
2,note_on,48,55,0
2,note_on,48,0,120
2,note_on,43,0,0
2,note_on,40,43,360
2,note_on,48,51,0
2,note_on,48,0,120
2,note_on,40,0,0
2,note_on,41,46,360
2,note_on,48,55,0
2,note_on,48,0,480
2,note_on,41,0,0
2,note_on,45,51,0
2,note_on,45,0,240
2,note_on,46,43,240
2,note_on,46,0,160
2,note_on,45,39,0
2,note_on,45,0,160
2,note_on,43,39,0
2,note_on,43,0,160
2,note_on,49,44,0
2,note_on,49,0,160
2,note_on,48,39,0
2,note_on,48,0,160
2,note_on,46,39,0
2,note_on,46,0,160
2,note_on,49,44,0
2,note_on,49,0,160
2,note_on,48,39,0
2,note_on,48,0,160
2,note_on,46,39,0
2,note_on,46,0,160
2,note_on,49,49,0
2,note_on,49,0,160
2,note_on,48,44,0
2,note_on,48,0,160
2,note_on,46,48,0
2,note_on,46,0,160
2,note_on,49,55,0
2,note_on,49,0,160
2,note_on,48,46,0
2,note_on,48,0,160
2,note_on,46,42,0
2,note_on,46,0,160
2,note_on,49,49,0
2,note_on,49,0,160
2,note_on,48,39,0
2,note_on,48,0,160
2,note_on,47,39,0
2,note_on,47,0,160
2,note_on,48,37,0
2,note_on,51,37,0
2,note_on,56,44,0
2,note_on,56,0,960
2,note_on,51,0,0
2,note_on,48,0,0
2,note_on,51,34,0
2,note_on,55,34,0
2,note_on,61,41,0
2,note_on,58,34,0
2,note_on,58,0,960
2,note_on,51,0,0
2,note_on,55,0,0
2,note_on,61,0,0
2,note_on,44,52,0
2,note_on,44,0,160
2,note_on,46,34,0
2,note_on,46,0,160
2,note_on,48,34,0
2,note_on,48,0,160
2,note_on,49,40,0
2,note_on,49,0,160
2,note_on,51,34,0
2,note_on,51,0,160
2,note_on,53,34,0
2,note_on,53,0,160
2,note_on,55,41,0
2,note_on,55,0,240
2,note_on,63,41,240
2,note_on,55,34,0
2,note_on,55,0,120
2,note_on,63,0,0
2,note_on,63,37,120
2,note_on,55,31,0
2,note_on,55,0,120
2,note_on,63,0,0
2,note_on,56,34,120
2,note_on,63,41,0
2,note_on,63,0,480
2,note_on,56,0,0
2,note_on,60,39,0
2,note_on,60,0,240
2,note_on,46,34,240
2,note_on,51,41,0
2,note_on,51,0,120
2,note_on,46,0,0
2,note_on,43,32,360
2,note_on,51,38,0
2,note_on,51,0,120
2,note_on,43,0,0
2,note_on,44,52,360
2,note_on,44,0,160
2,note_on,46,34,0
2,note_on,46,0,160
2,note_on,48,34,0
2,note_on,48,0,160
2,note_on,49,40,0
2,note_on,49,0,160
2,note_on,51,34,0
2,note_on,51,0,160
2,note_on,53,34,0
2,note_on,53,0,160
2,note_on,55,41,0
2,note_on,55,0,240
2,note_on,63,41,240
2,note_on,55,34,0
2,note_on,55,0,120
2,note_on,63,0,0
2,note_on,63,37,120
2,note_on,55,31,0
2,note_on,55,0,120
2,note_on,63,0,0
2,note_on,56,34,120
2,note_on,63,41,0
2,note_on,63,0,480
2,note_on,56,0,0
2,note_on,60,39,0
2,note_on,60,0,240
2,note_on,46,34,240
2,note_on,51,41,0
2,note_on,51,0,120
2,note_on,46,0,0
2,note_on,43,32,360
2,note_on,51,38,0
2,note_on,51,0,120
2,note_on,43,0,0
2,note_on,44,34,360
2,note_on,51,41,0
2,note_on,44,0,480
2,note_on,48,38,0
2,note_on,48,0,240
2,note_on,51,0,240
2,note_on,49,32,0
2,note_on,49,0,160
2,note_on,48,29,0
2,note_on,48,0,160
2,note_on,46,29,0
2,note_on,46,0,160
2,note_on,52,33,0
2,note_on,52,0,160
2,note_on,51,29,0
2,note_on,51,0,160
2,note_on,49,29,0
2,note_on,49,0,160
2,note_on,52,33,0
2,note_on,52,0,160
2,note_on,51,29,0
2,note_on,51,0,160
2,note_on,49,29,0
2,note_on,49,0,160
2,note_on,52,36,0
2,note_on,52,0,160
2,note_on,51,33,0
2,note_on,51,0,160
2,note_on,49,36,0
2,note_on,49,0,160
2,note_on,52,41,0
2,note_on,52,0,160
2,note_on,51,34,0
2,note_on,51,0,160
2,note_on,49,31,0
2,note_on,49,0,160
2,note_on,52,36,0
2,note_on,52,0,160
2,note_on,51,29,0
2,note_on,51,0,160
2,note_on,50,29,0
2,note_on,50,0,160
2,note_on,51,44,0
2,note_on,54,44,0
2,note_on,59,52,0
2,note_on,59,0,960
2,note_on,54,0,0
2,note_on,51,0,0
2,note_on,54,51,0
2,note_on,64,60,0
2,note_on,61,51,0
2,note_on,61,0,960
2,note_on,64,0,0
2,note_on,54,0,0
2,note_on,35,63,0
2,note_on,35,0,160
2,note_on,34,52,0
2,note_on,34,0,160
2,note_on,35,56,0
2,note_on,35,0,160
2,note_on,38,63,0
2,note_on,38,0,160
2,note_on,37,53,0
2,note_on,37,0,160
2,note_on,35,53,0
2,note_on,35,0,160
2,note_on,40,63,0
2,note_on,40,0,160
2,note_on,38,52,0
2,note_on,38,0,160
2,note_on,37,52,0
2,note_on,37,0,160
2,note_on,42,63,0
2,note_on,42,0,160
2,note_on,40,55,0
2,note_on,40,0,160
2,note_on,38,55,0
2,note_on,38,0,160
2,note_on,47,63,0
2,note_on,47,0,160
2,note_on,46,55,0
2,note_on,46,0,160
2,note_on,47,55,0
2,note_on,47,0,160
2,note_on,50,63,0
2,note_on,50,0,160
2,note_on,49,56,0
2,note_on,49,0,160
2,note_on,47,56,0
2,note_on,47,0,160
2,note_on,52,63,0
2,note_on,52,0,160
2,note_on,50,56,0
2,note_on,50,0,160
2,note_on,49,56,0
2,note_on,49,0,160
2,note_on,55,63,0
2,note_on,55,0,160
2,note_on,54,56,0
2,note_on,54,0,160
2,note_on,52,56,0
2,note_on,52,0,160
2,note_on,59,70,0
2,note_on,59,0,160
2,note_on,58,56,0
2,note_on,58,0,160
2,note_on,59,56,0
2,note_on,59,0,160
2,note_on,61,60,0
2,note_on,61,0,160
2,note_on,62,56,0
2,note_on,62,0,160
2,note_on,64,52,0
2,note_on,64,0,160
2,note_on,62,58,0
2,note_on,54,58,0
2,note_on,66,69,0
2,note_on,66,0,120
2,note_on,54,0,0
2,note_on,62,0,0
2,note_on,62,52,120
2,note_on,54,52,0
2,note_on,66,64,0
2,note_on,66,0,120
2,note_on,54,0,0
2,note_on,62,0,0
2,note_on,62,58,120
2,note_on,54,58,0
2,note_on,66,69,0
2,note_on,66,0,120
2,note_on,54,0,0
2,note_on,62,0,0
2,note_on,62,52,120
2,note_on,54,52,0
2,note_on,66,63,0
2,note_on,66,0,120
2,note_on,54,0,0
2,note_on,62,0,0
2,note_on,54,64,120
2,note_on,62,64,0
2,note_on,66,75,0
2,note_on,66,0,480
2,note_on,62,0,0
2,note_on,59,55,0
2,note_on,62,65,0
2,note_on,62,0,240
2,note_on,59,0,0
2,note_on,54,0,0
2,note_on,54,60,240
2,note_on,59,60,0
2,note_on,61,72,0
2,note_on,61,0,120
2,note_on,59,0,0
2,note_on,54,0,0
2,note_on,54,50,360
2,note_on,58,50,0
2,note_on,66,62,0
2,note_on,66,0,120
2,note_on,58,0,0
2,note_on,54,0,0
2,note_on,35,68,360
2,note_on,35,0,160
2,note_on,34,48,0
2,note_on,34,0,160
2,note_on,35,51,0
2,note_on,35,0,160
2,note_on,38,68,0
2,note_on,38,0,160
2,note_on,37,49,0
2,note_on,37,0,160
2,note_on,35,49,0
2,note_on,35,0,160
2,note_on,40,67,0
2,note_on,40,0,160
2,note_on,38,48,0
2,note_on,38,0,160
2,note_on,37,48,0
2,note_on,43,67,155
2,note_on,37,0,5
2,note_on,43,0,155
2,note_on,42,50,5
2,note_on,42,0,160
2,note_on,40,50,0
2,note_on,40,0,160
2,note_on,38,60,0
2,note_on,38,0,160
2,note_on,37,45,0
2,note_on,37,0,160
2,note_on,38,45,0
2,note_on,38,0,160
2,note_on,42,61,0
2,note_on,42,0,160
2,note_on,40,45,0
2,note_on,40,0,160
2,note_on,38,45,0
2,note_on,38,0,160
2,note_on,43,61,0
2,note_on,43,0,160
2,note_on,42,45,0
2,note_on,42,0,160
2,note_on,40,45,0
2,note_on,40,0,160
2,note_on,46,62,0
2,note_on,46,0,160
2,note_on,45,45,0
2,note_on,45,0,160
2,note_on,43,45,0
2,note_on,43,0,160
2,note_on,45,60,0
2,note_on,45,0,160
2,note_on,44,45,0
2,note_on,44,0,160
2,note_on,45,45,0
2,note_on,45,0,160
2,note_on,42,61,0
2,note_on,42,0,160
2,note_on,41,45,0
2,note_on,41,0,160
2,note_on,42,45,0
2,note_on,42,0,160
2,note_on,39,61,0
2,note_on,39,0,160
2,note_on,38,45,0
2,note_on,38,0,160
2,note_on,39,45,0
2,note_on,39,0,160
2,note_on,36,62,0
2,note_on,36,0,160
2,note_on,35,45,0
2,note_on,35,0,160
2,note_on,36,45,0
2,note_on,36,0,160
2,note_on,33,70,0
2,note_on,33,0,240
2,note_on,32,62,240
2,note_on,32,0,160
2,note_on,31,57,0
2,note_on,31,0,160
2,note_on,32,57,0
2,note_on,32,0,150
2,note_on,32,62,10
2,note_on,32,0,160
2,note_on,31,57,0
2,note_on,31,0,160
2,note_on,32,57,0
2,note_on,32,0,150
2,note_on,32,62,10
2,note_on,32,0,160
2,note_on,31,57,0
2,note_on,31,0,160
2,note_on,32,58,0
2,note_on,32,0,150
2,note_on,37,63,10
2,note_on,37,0,160
2,note_on,36,52,0
2,note_on,36,0,160
2,note_on,37,56,0
2,note_on,37,0,160
2,note_on,40,63,0
2,note_on,40,0,160
2,note_on,39,53,0
2,note_on,39,0,160
2,note_on,37,53,0
2,note_on,37,0,160
2,note_on,42,70,0
2,note_on,42,0,160
2,note_on,40,52,0
2,note_on,40,0,160
2,note_on,39,56,0
2,note_on,39,0,160
2,note_on,44,69,0
2,note_on,44,0,160
2,note_on,42,58,0
2,note_on,42,0,160
2,note_on,40,59,0
2,note_on,40,0,160
2,note_on,49,74,0
2,note_on,49,0,160
2,note_on,48,55,0
2,note_on,48,0,160
2,note_on,49,55,0
2,note_on,49,0,160
2,note_on,52,63,0
2,note_on,52,0,160
2,note_on,51,56,0
2,note_on,51,0,160
2,note_on,49,56,0
2,note_on,49,0,160
2,note_on,54,69,0
2,note_on,54,0,160
2,note_on,52,56,0
2,note_on,52,0,160
2,note_on,51,56,0
2,note_on,51,0,160
2,note_on,57,63,0
2,note_on,57,0,160
2,note_on,56,56,0
2,note_on,56,0,160
2,note_on,54,56,0
2,note_on,54,0,160
2,note_on,61,75,0
2,note_on,61,0,160
2,note_on,60,56,0
2,note_on,60,0,160
2,note_on,61,56,0
2,note_on,61,0,160
2,note_on,63,60,0
2,note_on,63,0,160
2,note_on,64,56,0
2,note_on,64,0,160
2,note_on,66,52,0
2,note_on,66,0,160
2,note_on,64,58,0
2,note_on,56,58,0
2,note_on,68,69,0
2,note_on,68,0,120
2,note_on,56,0,0
2,note_on,64,0,0
2,note_on,64,52,120
2,note_on,56,52,0
2,note_on,68,64,0
2,note_on,68,0,120
2,note_on,56,0,0
2,note_on,64,0,0
2,note_on,64,58,120
2,note_on,56,58,0
2,note_on,68,69,0
2,note_on,68,0,120
2,note_on,56,0,0
2,note_on,64,0,0
2,note_on,64,52,120
2,note_on,56,52,0
2,note_on,68,63,0
2,note_on,68,0,120
2,note_on,56,0,0
2,note_on,64,0,0
2,note_on,56,64,120
2,note_on,64,64,0
2,note_on,68,75,0
2,note_on,68,0,480
2,note_on,64,0,0
2,note_on,61,55,0
2,note_on,64,65,0
2,note_on,64,0,240
2,note_on,61,0,0
2,note_on,56,0,0
2,note_on,56,60,240
2,note_on,61,60,0
2,note_on,63,72,0
2,note_on,63,0,120
2,note_on,61,0,0
2,note_on,56,0,0
2,note_on,56,50,360
2,note_on,60,50,0
2,note_on,68,62,0
2,note_on,68,0,120
2,note_on,60,0,0
2,note_on,56,0,0
2,note_on,37,68,360
2,note_on,37,0,160
2,note_on,36,48,0
2,note_on,36,0,160
2,note_on,37,51,0
2,note_on,37,0,160
2,note_on,40,68,0
2,note_on,40,0,160
2,note_on,39,49,0
2,note_on,39,0,160
2,note_on,37,49,0
2,note_on,37,0,160
2,note_on,42,67,0
2,note_on,42,0,160
2,note_on,40,48,0
2,note_on,40,0,160
2,note_on,39,48,0
2,note_on,39,0,160
2,note_on,45,67,6
2,note_on,44,50,154
2,note_on,45,0,6
2,note_on,44,0,154
2,note_on,42,50,0
2,note_on,42,0,160
2,note_on,40,60,0
2,note_on,40,0,160
2,note_on,39,45,0
2,note_on,39,0,160
2,note_on,40,45,0
2,note_on,40,0,160
2,note_on,44,61,0
2,note_on,44,0,160
2,note_on,42,45,0
2,note_on,42,0,160
2,note_on,40,45,0
2,note_on,40,0,160
2,note_on,45,61,0
2,note_on,45,0,160
2,note_on,44,45,0
2,note_on,44,0,160
2,note_on,42,45,0
2,note_on,42,0,160
2,note_on,48,62,0
2,note_on,48,0,160
2,note_on,47,45,0
2,note_on,47,0,160
2,note_on,45,45,0
2,note_on,45,0,160
2,note_on,47,60,0
2,note_on,47,0,160
2,note_on,46,45,0
2,note_on,46,0,160
2,note_on,47,45,0
2,note_on,47,0,160
2,note_on,44,61,0
2,note_on,44,0,160
2,note_on,43,45,0
2,note_on,43,0,160
2,note_on,44,45,0
2,note_on,44,0,160
2,note_on,41,61,0
2,note_on,41,0,160
2,note_on,40,49,0
2,note_on,40,0,160
2,note_on,41,49,0
2,note_on,41,0,160
2,note_on,38,62,0
2,note_on,38,0,160
2,note_on,37,45,0
2,note_on,37,0,160
2,note_on,38,51,0
2,note_on,38,0,160
2,note_on,35,71,0
2,note_on,35,0,240
2,note_on,34,62,240
2,note_on,34,0,160
2,note_on,33,57,0
2,note_on,33,0,160
2,note_on,34,57,0
2,note_on,34,0,150
2,note_on,34,62,10
2,note_on,34,0,160
2,note_on,33,57,0
2,note_on,33,0,160
2,note_on,34,57,0
2,note_on,34,0,150
2,note_on,34,62,10
2,note_on,34,0,160
2,note_on,33,57,0
2,note_on,33,0,160
2,note_on,34,58,0
2,note_on,34,0,150
2,note_on,39,71,10
2,note_on,39,0,240
2,note_on,45,70,240
2,note_on,45,0,160
2,note_on,47,57,0
2,note_on,47,0,160
2,note_on,45,57,0
2,note_on,45,0,150
2,note_on,43,62,10
2,note_on,43,0,160
2,note_on,45,57,0
2,note_on,45,0,160
2,note_on,43,57,0
2,note_on,43,0,150
2,note_on,42,62,10
2,note_on,42,0,160
2,note_on,43,57,0
2,note_on,43,0,160
2,note_on,42,58,0
2,note_on,42,0,150
2,note_on,40,71,10
2,note_on,40,0,240
2,note_on,36,71,240
2,note_on,36,0,160
2,note_on,35,57,0
2,note_on,35,0,160
2,note_on,36,57,0
2,note_on,36,0,150
2,note_on,36,62,10
2,note_on,36,0,160
2,note_on,35,57,0
2,note_on,35,0,160
2,note_on,36,57,0
2,note_on,36,0,150
2,note_on,36,62,10
2,note_on,36,0,160
2,note_on,35,57,0
2,note_on,35,0,160
2,note_on,36,58,0
2,note_on,36,0,150
2,note_on,29,71,10
2,note_on,29,0,240
2,note_on,47,62,240
2,note_on,47,0,160
2,note_on,49,55,0
2,note_on,49,0,160
2,note_on,47,54,0
2,note_on,47,0,150
2,note_on,45,57,10
2,note_on,45,0,160
2,note_on,47,50,0
2,note_on,47,0,160
2,note_on,45,49,0
2,note_on,45,0,150
2,note_on,44,52,10
2,note_on,44,0,160
2,note_on,45,46,0
2,note_on,45,0,160
2,note_on,44,45,0
2,note_on,44,0,150
2,note_on,45,42,10
2,note_on,42,42,0
2,note_on,50,53,0
2,note_on,50,0,3830
2,note_on,42,0,0
2,note_on,45,0,0
2,note_on,43,42,10
2,note_on,50,42,0
2,note_on,47,42,0
2,note_on,52,53,0
2,note_on,52,0,3830
2,note_on,43,0,0
2,note_on,50,0,0
2,note_on,47,0,0
2,note_on,45,42,10
2,note_on,50,42,0
2,note_on,48,42,0
2,note_on,54,53,0
2,note_on,54,0,3830
2,note_on,45,0,0
2,note_on,50,0,0
2,note_on,48,0,0
2,note_on,50,42,10
2,note_on,47,42,0
2,note_on,55,53,0
2,note_on,55,0,2880
2,note_on,47,0,0
2,note_on,50,0,0
2,note_on,46,45,0
2,note_on,50,45,0
2,note_on,56,53,0
2,note_on,56,0,960
2,note_on,50,0,0
2,note_on,46,0,0
2,note_on,45,31,0
2,note_on,49,31,0
2,note_on,57,37,0
2,note_on,57,0,480
2,note_on,49,0,0
2,note_on,45,0,0
2,note_on,62,31,480
2,note_on,64,37,0
2,note_on,64,0,120
2,note_on,62,0,0
2,note_on,62,27,120
2,note_on,64,32,0
2,note_on,64,0,120
2,note_on,62,0,0
2,note_on,62,31,120
2,note_on,64,37,0
2,note_on,64,0,120
2,note_on,62,0,0
2,note_on,64,32,120
2,note_on,62,27,0
2,note_on,62,0,120
2,note_on,64,0,0
2,note_on,61,31,120
2,note_on,64,37,0
2,note_on,61,0,480
2,note_on,57,33,0
2,note_on,57,0,240
2,note_on,64,0,0
2,note_on,35,31,240
2,note_on,40,37,0
2,note_on,40,0,120
2,note_on,35,0,0
2,note_on,35,27,120
2,note_on,40,32,0
2,note_on,40,0,120
2,note_on,35,0,0
2,note_on,32,31,120
2,note_on,40,37,0
2,note_on,40,0,120
2,note_on,32,0,0
2,note_on,40,32,120
2,note_on,32,27,0
2,note_on,32,0,120
2,note_on,40,0,0
2,note_on,33,31,120
2,note_on,40,37,0
2,note_on,33,0,480
2,note_on,45,33,0
2,note_on,45,0,240
2,note_on,40,0,0
2,note_on,62,31,240
2,note_on,64,37,0
2,note_on,64,0,120
2,note_on,62,0,0
2,note_on,62,27,120
2,note_on,64,32,0
2,note_on,64,0,120
2,note_on,62,0,0
2,note_on,62,31,120
2,note_on,64,37,0
2,note_on,64,0,120
2,note_on,62,0,0
2,note_on,64,32,120
2,note_on,62,27,0
2,note_on,62,0,120
2,note_on,64,0,0
2,note_on,61,31,120
2,note_on,64,37,0
2,note_on,61,0,480
2,note_on,57,33,0
2,note_on,57,0,240
2,note_on,64,0,0
2,note_on,35,31,240
2,note_on,40,37,0
2,note_on,40,0,120
2,note_on,35,0,0
2,note_on,35,27,120
2,note_on,40,32,0
2,note_on,40,0,120
2,note_on,35,0,0
2,note_on,32,31,120
2,note_on,40,37,0
2,note_on,40,0,120
2,note_on,32,0,0
2,note_on,40,32,120
2,note_on,32,27,0
2,note_on,32,0,120
2,note_on,40,0,0
2,note_on,33,31,120
2,note_on,40,37,0
2,note_on,33,0,480
2,note_on,45,33,0
2,note_on,45,0,240
2,note_on,40,0,0
2,note_on,57,31,240
2,note_on,61,38,0
2,note_on,61,0,120
2,note_on,57,0,0
2,note_on,57,28,120
2,note_on,61,33,0
2,note_on,61,0,120
2,note_on,57,0,0
2,note_on,57,32,120
2,note_on,61,38,0
2,note_on,61,0,120
2,note_on,57,0,0
2,note_on,61,33,120
2,note_on,57,28,0
2,note_on,57,0,120
2,note_on,61,0,0
2,note_on,57,33,120
2,note_on,61,39,0
2,note_on,57,0,480
2,note_on,67,35,0
2,note_on,67,0,240
2,note_on,61,0,0
2,note_on,40,34,240
2,note_on,45,41,0
2,note_on,45,0,120
2,note_on,40,0,0
2,note_on,40,30,120
2,note_on,45,35,0
2,note_on,45,0,120
2,note_on,40,0,0
2,note_on,40,35,120
2,note_on,45,41,0
2,note_on,45,0,120
2,note_on,40,0,0
2,note_on,45,36,120
2,note_on,40,30,0
2,note_on,40,0,120
2,note_on,45,0,0
2,note_on,40,35,120
2,note_on,45,42,0
2,note_on,45,0,480
2,note_on,40,0,0
2,note_on,33,38,0
2,note_on,33,0,240
2,note_on,57,36,240
2,note_on,61,43,0
2,note_on,61,0,120
2,note_on,57,0,0
2,note_on,57,32,120
2,note_on,61,38,0
2,note_on,61,0,120
2,note_on,57,0,0
2,note_on,57,37,120
2,note_on,61,44,0
2,note_on,61,0,120
2,note_on,57,0,0
2,note_on,61,38,120
2,note_on,57,32,0
2,note_on,57,0,120
2,note_on,61,0,0
2,note_on,57,37,120
2,note_on,61,45,0
2,note_on,57,0,480
2,note_on,67,40,0
2,note_on,67,0,240
2,note_on,61,0,0
2,note_on,40,39,240
2,note_on,45,46,0
2,note_on,45,0,120
2,note_on,40,0,0
2,note_on,40,34,120
2,note_on,45,40,0
2,note_on,45,0,120
2,note_on,40,0,0
2,note_on,40,39,120
2,note_on,45,47,0
2,note_on,45,0,120
2,note_on,40,0,0
2,note_on,45,41,120
2,note_on,40,34,0
2,note_on,40,0,120
2,note_on,45,0,0
2,note_on,40,56,120
2,note_on,45,56,0
2,note_on,45,0,480
2,note_on,40,0,0
2,note_on,33,46,0
2,note_on,33,0,240
2,note_on,49,63,240
2,note_on,49,0,480
2,note_on,33,62,0
2,note_on,33,0,240
2,note_on,52,69,240
2,note_on,52,0,480
2,note_on,49,62,0
2,note_on,49,0,240
2,note_on,61,73,240
2,note_on,61,0,480
2,note_on,57,61,0
2,note_on,57,0,240
2,note_on,64,75,240
2,note_on,64,0,480
2,note_on,57,65,0
2,note_on,57,0,240
2,note_on,67,74,240
2,note_on,67,0,480
2,note_on,64,67,0
2,note_on,64,0,240
2,note_on,38,73,240
2,note_on,50,86,0
2,note_on,50,0,960
2,note_on,38,0,0
2,note_on,42,49,0
2,note_on,50,58,0
2,note_on,50,0,120
2,note_on,42,0,0
2,note_on,42,44,120
2,note_on,50,52,0
2,note_on,50,0,120
2,note_on,42,0,0
2,note_on,42,49,120
2,note_on,50,58,0
2,note_on,50,0,120
2,note_on,42,0,0
2,note_on,42,44,120
2,note_on,50,52,0
2,note_on,50,0,120
2,note_on,42,0,0
2,note_on,42,53,120
2,note_on,50,63,0
2,note_on,42,0,480
2,note_on,43,49,0
2,note_on,52,59,0
2,note_on,52,0,240
2,note_on,43,0,0
2,note_on,50,0,0
2,note_on,45,49,240
2,note_on,50,49,0
2,note_on,54,58,0
2,note_on,54,0,120
2,note_on,50,0,0
2,note_on,45,0,0
2,note_on,45,44,120
2,note_on,50,44,0
2,note_on,54,52,0
2,note_on,54,0,120
2,note_on,50,0,0
2,note_on,45,0,0
2,note_on,45,49,120
2,note_on,50,49,0
2,note_on,54,58,0
2,note_on,54,0,120
2,note_on,50,0,0
2,note_on,45,0,0
2,note_on,45,44,120
2,note_on,50,44,0
2,note_on,54,52,0
2,note_on,54,0,120
2,note_on,50,0,0
2,note_on,45,0,0
2,note_on,50,53,120
2,note_on,45,53,0
2,note_on,54,63,0
2,note_on,54,0,480
2,note_on,45,0,0
2,note_on,47,49,0
2,note_on,55,59,0
2,note_on,55,0,240
2,note_on,47,0,0
2,note_on,50,0,0
2,note_on,52,46,0
2,note_on,52,0,240
2,note_on,55,54,0
2,note_on,55,0,160
2,note_on,54,47,0
2,note_on,54,0,160
2,note_on,52,48,0
2,note_on,52,0,160
2,note_on,58,54,0
2,note_on,58,0,160
2,note_on,57,49,0
2,note_on,57,0,160
2,note_on,55,49,0
2,note_on,55,0,160
2,note_on,57,54,0
2,note_on,57,0,240
2,note_on,62,42,240
2,note_on,62,0,160
2,note_on,64,35,0
2,note_on,64,0,160
2,note_on,66,35,0
2,note_on,66,0,160
2,note_on,57,43,0
2,note_on,57,0,160
2,note_on,61,36,0
2,note_on,61,0,160
2,note_on,62,36,0
2,note_on,62,0,160
2,note_on,64,43,0
2,note_on,64,0,160
2,note_on,66,37,0
2,note_on,66,0,160
2,note_on,67,37,0
2,note_on,67,0,160
2,note_on,45,73,0
2,note_on,42,73,0
2,note_on,38,73,0
2,note_on,50,86,0
2,note_on,50,0,960
2,note_on,45,0,0
2,note_on,42,0,0
2,note_on,38,0,0
2,note_on,42,43,0
2,note_on,50,51,0
2,note_on,50,0,120
2,note_on,42,0,0
2,note_on,42,39,120
2,note_on,50,46,0
2,note_on,50,0,120
2,note_on,42,0,0
2,note_on,42,43,120
2,note_on,50,51,0
2,note_on,50,0,120
2,note_on,42,0,0
2,note_on,42,39,120
2,note_on,50,46,0
2,note_on,50,0,120
2,note_on,42,0,0
2,note_on,42,47,120
2,note_on,50,56,0
2,note_on,42,0,480
2,note_on,43,43,0
2,note_on,52,52,0
2,note_on,52,0,240
2,note_on,43,0,0
2,note_on,50,0,0
2,note_on,45,53,240
2,note_on,45,0,160
2,note_on,47,48,0
2,note_on,47,0,160
2,note_on,48,48,0
2,note_on,48,0,160
2,note_on,50,53,0
2,note_on,50,0,160
2,note_on,52,49,0
2,note_on,52,0,160
2,note_on,54,48,0
2,note_on,54,0,160
2,note_on,46,53,0
2,note_on,46,0,240
2,note_on,54,49,0
2,note_on,54,0,240
2,note_on,47,53,0
2,note_on,47,0,240
2,note_on,55,48,0
2,note_on,55,0,240
2,note_on,49,43,0
2,note_on,55,43,0
2,note_on,57,51,0
2,note_on,57,0,120
2,note_on,55,0,0
2,note_on,49,0,0
2,note_on,49,39,120
2,note_on,55,39,0
2,note_on,57,46,0
2,note_on,57,0,120
2,note_on,55,0,0
2,note_on,49,0,0
2,note_on,49,43,120
2,note_on,55,43,0
2,note_on,57,51,0
2,note_on,57,0,120
2,note_on,55,0,0
2,note_on,49,0,0
2,note_on,49,39,120
2,note_on,55,39,0
2,note_on,57,46,0
2,note_on,57,0,120
2,note_on,55,0,0
2,note_on,49,0,0
2,note_on,55,47,120
2,note_on,49,47,0
2,note_on,57,56,0
2,note_on,57,0,480
2,note_on,49,0,0
2,note_on,50,43,0
2,note_on,59,52,0
2,note_on,59,0,240
2,note_on,50,0,0
2,note_on,55,0,0
2,note_on,50,53,240
2,note_on,50,0,160
2,note_on,52,48,0
2,note_on,52,0,160
2,note_on,54,48,0
2,note_on,54,0,160
2,note_on,55,53,0
2,note_on,55,0,160
2,note_on,57,49,0
2,note_on,57,0,160
2,note_on,59,48,0
2,note_on,59,0,160
2,note_on,51,53,0
2,note_on,51,0,240
2,note_on,59,49,0
2,note_on,59,0,240
2,note_on,52,53,0
2,note_on,52,0,240
2,note_on,60,48,0
2,note_on,60,0,240
2,note_on,52,43,0
2,note_on,58,43,0
2,note_on,61,51,0
2,note_on,61,0,120
2,note_on,58,0,0
2,note_on,52,0,0
2,note_on,52,39,120
2,note_on,58,39,0
2,note_on,61,46,0
2,note_on,61,0,120
2,note_on,58,0,0
2,note_on,52,0,0
2,note_on,52,43,120
2,note_on,58,43,0
2,note_on,61,51,0
2,note_on,61,0,120
2,note_on,58,0,0
2,note_on,52,0,0
2,note_on,52,39,120
2,note_on,58,39,0
2,note_on,61,46,0
2,note_on,61,0,120
2,note_on,58,0,0
2,note_on,52,0,0
2,note_on,58,47,120
2,note_on,52,47,0
2,note_on,61,56,0
2,note_on,61,0,480
2,note_on,52,0,0
2,note_on,53,43,0
2,note_on,62,52,0
2,note_on,62,0,240
2,note_on,53,0,0
2,note_on,58,0,0
2,note_on,53,53,240
2,note_on,53,0,160
2,note_on,55,48,0
2,note_on,55,0,160
2,note_on,57,48,0
2,note_on,57,0,160
2,note_on,59,53,0
2,note_on,59,0,160
2,note_on,60,49,0
2,note_on,60,0,160
2,note_on,62,48,0
2,note_on,62,0,160
2,note_on,51,53,0
2,note_on,51,0,240
2,note_on,63,42,0
2,note_on,63,0,240
2,note_on,58,53,0
2,note_on,58,0,240
2,note_on,62,44,0
2,note_on,62,0,240
2,note_on,34,36,0
2,note_on,46,43,0
2,note_on,46,0,120
2,note_on,34,0,0
2,note_on,34,33,120
2,note_on,46,39,0
2,note_on,46,0,120
2,note_on,34,0,0
2,note_on,34,36,120
2,note_on,46,43,0
2,note_on,46,0,120
2,note_on,34,0,0
2,note_on,34,33,120
2,note_on,46,39,0
2,note_on,46,0,120
2,note_on,34,0,0
2,note_on,34,39,120
2,note_on,46,47,0
2,note_on,46,0,720
2,note_on,34,0,0
2,note_on,53,45,240
2,note_on,53,0,160
2,note_on,55,40,0
2,note_on,55,0,160
2,note_on,57,40,0
2,note_on,57,0,160
2,note_on,58,45,0
2,note_on,58,0,160
2,note_on,60,41,0
2,note_on,60,0,160
2,note_on,62,40,0
2,note_on,62,0,160
2,note_on,51,45,0
2,note_on,51,0,240
2,note_on,58,41,0
2,note_on,58,0,180
2,note_on,58,45,60
2,note_on,58,0,240
2,note_on,62,40,0
2,note_on,62,0,240
2,note_on,34,36,0
2,note_on,46,43,0
2,note_on,46,0,120
2,note_on,34,0,0
2,note_on,34,33,120
2,note_on,46,39,0
2,note_on,46,0,120
2,note_on,34,0,0
2,note_on,34,36,120
2,note_on,46,43,0
2,note_on,46,0,120
2,note_on,34,0,0
2,note_on,34,33,120
2,note_on,46,39,0
2,note_on,46,0,120
2,note_on,34,0,0
2,note_on,34,39,120
2,note_on,46,47,0
2,note_on,46,0,720
2,note_on,34,0,0
2,note_on,53,43,240
2,note_on,53,0,160
2,note_on,55,44,0
2,note_on,55,0,160
2,note_on,57,45,0
2,note_on,57,0,160
2,note_on,58,46,0
2,note_on,58,0,160
2,note_on,60,47,0
2,note_on,60,0,160
2,note_on,62,48,0
2,note_on,62,0,160
2,note_on,63,51,0
2,note_on,63,0,160
2,note_on,65,44,0
2,note_on,65,0,160
2,note_on,67,44,0
2,note_on,67,0,160
2,note_on,65,51,0
2,note_on,65,0,160
2,note_on,63,45,0
2,note_on,63,0,160
2,note_on,62,45,0
2,note_on,62,0,160
2,note_on,61,48,0
2,note_on,61,0,160
2,note_on,58,39,0
2,note_on,58,0,160
2,note_on,55,39,0
2,note_on,55,0,160
2,note_on,52,41,0
2,note_on,52,0,160
2,note_on,49,39,0
2,note_on,49,0,160
2,note_on,52,40,0
2,note_on,52,0,160
2,note_on,53,42,0
2,note_on,53,0,160
2,note_on,50,38,0
2,note_on,50,0,160
2,note_on,53,38,0
2,note_on,53,0,160
2,note_on,50,42,0
2,note_on,50,0,160
2,note_on,46,38,0
2,note_on,46,0,160
2,note_on,50,38,0
2,note_on,50,0,160
2,note_on,41,38,0
2,note_on,41,0,160
2,note_on,43,39,0
2,note_on,43,0,160
2,note_on,45,41,0
2,note_on,45,0,160
2,note_on,46,43,0
2,note_on,46,0,160
2,note_on,48,45,0
2,note_on,48,0,160
2,note_on,50,46,0
2,note_on,50,0,160
2,note_on,51,48,0
2,note_on,51,0,160
2,note_on,53,50,0
2,note_on,53,0,160
2,note_on,55,51,0
2,note_on,55,0,160
2,note_on,53,53,0
2,note_on,53,0,160
2,note_on,51,49,0
2,note_on,51,0,160
2,note_on,50,51,0
2,note_on,50,0,160
2,note_on,49,48,0
2,note_on,49,0,160
2,note_on,46,46,0
2,note_on,46,0,160
2,note_on,43,45,0
2,note_on,43,0,160
2,note_on,40,43,0
2,note_on,40,0,160
2,note_on,37,39,0
2,note_on,37,0,160
2,note_on,40,36,0
2,note_on,40,0,160
2,note_on,43,50,0
2,note_on,43,0,160
2,note_on,40,36,0
2,note_on,40,0,160
2,note_on,43,36,0
2,note_on,43,0,160
2,note_on,40,37,0
2,note_on,40,0,160
2,note_on,37,37,0
2,note_on,37,0,160
2,note_on,40,38,0
2,note_on,40,0,160
2,note_on,44,52,0
2,note_on,44,0,160
2,note_on,40,38,0
2,note_on,40,0,160
2,note_on,44,39,0
2,note_on,44,0,160
2,note_on,40,39,0
2,note_on,40,0,160
2,note_on,37,40,0
2,note_on,37,0,160
2,note_on,40,40,0
2,note_on,40,0,160
2,note_on,45,55,0
2,note_on,45,0,160
2,note_on,40,41,0
2,note_on,40,0,160
2,note_on,45,42,0
2,note_on,45,0,160
2,note_on,40,42,0
2,note_on,40,0,160
2,note_on,37,43,0
2,note_on,37,0,160
2,note_on,40,43,0
2,note_on,40,0,160
2,note_on,45,57,0
2,note_on,45,0,160
2,note_on,40,44,0
2,note_on,40,0,160
2,note_on,45,45,0
2,note_on,45,0,160
2,note_on,40,45,0
2,note_on,40,0,160
2,note_on,36,45,0
2,note_on,36,0,160
2,note_on,40,46,0
2,note_on,40,0,160
2,note_on,35,62,0
2,note_on,35,0,160
2,note_on,41,50,0
2,note_on,41,0,160
2,note_on,35,51,0
2,note_on,35,0,160
2,note_on,41,52,0
2,note_on,41,0,160
2,note_on,47,53,0
2,note_on,47,0,160
2,note_on,41,54,0
2,note_on,41,0,160
2,note_on,34,69,0
2,note_on,34,0,160
2,note_on,41,56,0
2,note_on,41,0,160
2,note_on,34,58,0
2,note_on,34,0,160
2,note_on,41,59,0
2,note_on,41,0,160
2,note_on,46,61,0
2,note_on,46,0,160
2,note_on,34,62,0
2,note_on,34,0,160
2,note_on,33,73,0
2,note_on,45,86,0
2,note_on,45,0,960
2,note_on,33,0,0
2,note_on,57,43,0
2,note_on,66,51,0
2,note_on,66,0,180
2,note_on,57,0,0
2,note_on,57,39,60
2,note_on,66,46,0
2,note_on,66,0,180
2,note_on,57,0,0
2,note_on,57,43,60
2,note_on,66,51,0
2,note_on,66,0,180
2,note_on,57,0,0
2,note_on,57,39,60
2,note_on,66,46,0
2,note_on,66,0,180
2,note_on,57,0,0
2,note_on,57,47,60
2,note_on,69,56,0
2,note_on,69,0,480
2,note_on,64,37,0
2,note_on,64,0,240
2,note_on,57,0,0
2,note_on,37,49,0
2,note_on,37,0,240
2,note_on,38,53,0
2,note_on,38,0,160
2,note_on,37,49,0
2,note_on,37,0,160
2,note_on,35,53,0
2,note_on,35,0,160
2,note_on,41,56,0
2,note_on,41,0,160
2,note_on,40,51,0
2,note_on,40,0,160
2,note_on,38,38,0
2,note_on,38,0,160
2,note_on,40,43,0
2,note_on,49,47,0
2,note_on,49,0,160
2,note_on,50,41,0
2,note_on,40,0,80
2,note_on,50,0,80
2,note_on,52,41,0
2,note_on,52,0,160
2,note_on,54,47,0
2,note_on,54,0,160
2,note_on,56,42,0
2,note_on,56,0,160
2,note_on,57,42,0
2,note_on,57,0,160
2,note_on,52,44,320
2,note_on,52,0,160
2,note_on,50,50,0
2,note_on,50,0,160
2,note_on,49,53,0
2,note_on,49,0,160
2,note_on,47,56,0
2,note_on,47,0,160
2,note_on,33,65,0
2,note_on,45,77,0
2,note_on,45,0,960
2,note_on,33,0,0
2,note_on,57,43,0
2,note_on,66,51,0
2,note_on,66,0,330
2,note_on,57,0,0
2,note_on,57,39,30
2,note_on,66,46,0
2,note_on,66,0,90
2,note_on,57,0,0
2,note_on,57,43,30
2,note_on,66,51,0
2,note_on,66,0,330
2,note_on,57,0,0
2,note_on,57,39,30
2,note_on,66,46,0
2,note_on,66,0,90
2,note_on,57,0,0
2,note_on,57,47,30
2,note_on,69,56,0
2,note_on,69,0,480
2,note_on,64,37,0
2,note_on,64,0,240
2,note_on,57,0,0
2,note_on,37,49,0
2,note_on,37,0,240
2,note_on,38,53,0
2,note_on,38,0,160
2,note_on,37,49,0
2,note_on,37,0,160
2,note_on,35,53,0
2,note_on,35,0,160
2,note_on,41,56,0
2,note_on,41,0,160
2,note_on,40,51,0
2,note_on,40,0,160
2,note_on,38,38,0
2,note_on,38,0,160
2,note_on,40,43,0
2,note_on,49,47,0
2,note_on,49,0,160
2,note_on,50,41,0
2,note_on,40,0,80
2,note_on,50,0,80
2,note_on,52,41,0
2,note_on,52,0,160
2,note_on,54,47,0
2,note_on,54,0,160
2,note_on,56,42,0
2,note_on,56,0,160
2,note_on,57,42,0
2,note_on,57,0,160
2,note_on,52,44,320
2,note_on,52,0,160
2,note_on,50,50,0
2,note_on,50,0,160
2,note_on,49,53,0
2,note_on,49,0,160
2,note_on,47,56,0
2,note_on,47,0,160
2,note_on,45,50,0
2,note_on,45,0,240
2,note_on,62,41,3600
2,note_on,62,0,480
2,note_on,54,35,0
2,note_on,54,0,120
2,note_on,64,41,360
2,note_on,64,0,480
2,note_on,57,35,0
2,note_on,57,0,120
2,note_on,57,33,300
2,note_on,57,0,60
2,note_on,66,41,0
2,note_on,66,0,480
2,note_on,62,34,0
2,note_on,62,0,120
2,note_on,62,33,300
2,note_on,62,0,60
2,note_on,71,45,0
2,note_on,71,0,360
2,note_on,68,36,0
2,note_on,68,0,120
2,note_on,71,43,0
2,note_on,71,0,360
2,note_on,68,35,0
2,note_on,68,0,120
2,note_on,69,41,0
2,note_on,69,0,477
2,note_on,57,35,7
2,note_on,57,0,120
2,note_on,57,33,296
2,note_on,57,0,60
2,note_on,67,41,0
2,note_on,67,0,480
2,note_on,64,35,0
2,note_on,64,0,120
2,note_on,64,33,300
2,note_on,64,0,60
2,note_on,66,41,0
2,note_on,66,0,480
2,note_on,57,34,0
2,note_on,57,0,120
2,note_on,57,33,300
2,note_on,57,0,60
2,note_on,64,45,0
2,note_on,64,0,360
2,note_on,61,36,0
2,note_on,61,0,120
2,note_on,64,43,0
2,note_on,64,0,360
2,note_on,61,35,0
2,note_on,61,0,120
2,note_on,54,41,0
2,note_on,62,41,0
2,note_on,62,0,480
2,note_on,54,0,0
2,note_on,57,35,4
2,note_on,57,0,120
2,note_on,61,41,356
2,note_on,64,41,0
2,note_on,64,0,480
2,note_on,61,0,0
2,note_on,57,35,4
2,note_on,57,0,120
2,note_on,57,41,356
2,note_on,66,41,0
2,note_on,66,0,480
2,note_on,57,0,0
2,note_on,62,35,0
2,note_on,62,0,120
2,note_on,68,45,360
2,note_on,65,38,0
2,note_on,65,0,360
2,note_on,68,0,0
2,note_on,62,36,0
2,note_on,62,0,120
2,note_on,68,43,0
2,note_on,65,36,0
2,note_on,65,0,360
2,note_on,68,0,0
2,note_on,62,35,0
2,note_on,62,0,120
2,note_on,69,41,0
2,note_on,66,41,0
2,note_on,69,0,477
2,note_on,66,0,3
2,note_on,57,35,4
2,note_on,57,0,120
2,note_on,64,41,356
2,note_on,67,41,0
2,note_on,67,0,480
2,note_on,64,0,0
2,note_on,57,35,4
2,note_on,57,0,120
2,note_on,62,41,356
2,note_on,66,41,0
2,note_on,66,0,480
2,note_on,62,0,0
2,note_on,57,35,0
2,note_on,57,0,120
2,note_on,61,38,360
2,note_on,64,45,0
2,note_on,64,0,360
2,note_on,61,0,0
2,note_on,57,36,0
2,note_on,57,0,120
2,note_on,61,36,0
2,note_on,64,43,0
2,note_on,64,0,360
2,note_on,61,0,0
2,note_on,57,35,0
2,note_on,57,0,120
2,note_on,64,69,0
2,note_on,64,0,160
2,note_on,55,53,0
2,note_on,55,0,160
2,note_on,64,53,0
2,note_on,64,0,160
2,note_on,48,71,0
2,note_on,48,0,840
2,note_on,55,48,0
2,note_on,64,48,0
2,note_on,64,0,120
2,note_on,55,0,0
2,note_on,48,62,0
2,note_on,48,0,360
2,note_on,55,53,0
2,note_on,55,0,120
2,note_on,64,71,0
2,note_on,64,0,160
2,note_on,55,53,0
2,note_on,55,0,160
2,note_on,64,53,0
2,note_on,64,0,160
2,note_on,48,68,0
2,note_on,48,0,840
2,note_on,55,48,0
2,note_on,64,48,0
2,note_on,64,0,120
2,note_on,55,0,0
2,note_on,48,62,0
2,note_on,48,0,840
2,note_on,55,45,0
2,note_on,64,53,0
2,note_on,64,0,120
2,note_on,55,0,0
2,note_on,48,62,0
2,note_on,48,0,840
2,note_on,55,45,0
2,note_on,64,53,0
2,note_on,64,0,120
2,note_on,55,0,0
2,note_on,48,62,0
2,note_on,48,0,360
2,note_on,60,53,0
2,note_on,60,0,120
2,note_on,53,71,0
2,note_on,53,0,160
2,note_on,60,53,0
2,note_on,60,0,160
2,note_on,53,53,0
2,note_on,53,0,160
2,note_on,41,69,0
2,note_on,41,0,840
2,note_on,53,48,0
2,note_on,60,48,0
2,note_on,60,0,120
2,note_on,53,0,0
2,note_on,41,62,0
2,note_on,41,0,360
2,note_on,60,53,0
2,note_on,60,0,120
2,note_on,53,62,0
2,note_on,53,0,160
2,note_on,60,53,0
2,note_on,60,0,160
2,note_on,53,53,0
2,note_on,53,0,160
2,note_on,41,62,0
2,note_on,41,0,840
2,note_on,53,48,0
2,note_on,60,48,0
2,note_on,60,0,120
2,note_on,53,0,0
2,note_on,41,62,0
2,note_on,41,0,840
2,note_on,53,45,0
2,note_on,60,53,0
2,note_on,60,0,120
2,note_on,53,0,0
2,note_on,41,62,0
2,note_on,41,0,840
2,note_on,45,41,0
2,note_on,45,0,120
2,note_on,40,45,0
2,note_on,40,0,840
2,note_on,45,33,0
2,note_on,45,0,120
2,note_on,40,37,0
2,note_on,40,0,360
2,note_on,45,32,0
2,note_on,45,0,120
2,note_on,40,34,0
2,note_on,40,0,360
2,note_on,45,29,0
2,note_on,45,0,120
2,note_on,40,31,0
2,note_on,40,0,360
2,note_on,45,27,0
2,note_on,45,0,120
2,note_on,38,31,0
2,note_on,38,0,120
2,note_on,62,38,1000
2,note_on,62,0,160
2,note_on,66,40,0
2,note_on,66,0,160
2,note_on,69,42,0
2,note_on,69,0,160
2,note_on,74,41,0
2,note_on,74,0,160
2,note_on,78,38,0
2,note_on,78,0,160
2,note_on,69,42,0
2,note_on,69,0,240
2,note_on,67,34,240
2,note_on,64,28,0
2,note_on,57,28,0
2,note_on,57,0,120
2,note_on,64,0,0
2,note_on,67,0,0
2,note_on,66,34,360
2,note_on,62,28,0
2,note_on,57,28,0
2,note_on,57,0,120
2,note_on,62,0,0
2,note_on,66,0,0
2,note_on,64,34,360
2,note_on,61,28,0
2,note_on,57,28,0
2,note_on,57,0,120
2,note_on,61,0,0
2,note_on,64,0,0
2,note_on,50,31,360
2,note_on,54,31,0
2,note_on,62,37,0
2,note_on,62,0,240
2,note_on,54,0,0
2,note_on,50,0,0
2,note_on,62,38,880
2,note_on,62,0,160
2,note_on,66,40,0
2,note_on,66,0,160
2,note_on,69,42,0
2,note_on,69,0,160
2,note_on,74,41,0
2,note_on,74,0,160
2,note_on,78,38,0
2,note_on,78,0,160
2,note_on,69,42,0
2,note_on,69,0,240
2,note_on,67,34,240
2,note_on,64,28,0
2,note_on,57,28,0
2,note_on,57,0,120
2,note_on,64,0,0
2,note_on,67,0,0
2,note_on,66,34,360
2,note_on,62,28,0
2,note_on,57,28,0
2,note_on,57,0,120
2,note_on,62,0,0
2,note_on,66,0,0
2,note_on,64,34,360
2,note_on,61,28,0
2,note_on,57,28,0
2,note_on,57,0,120
2,note_on,61,0,0
2,note_on,64,0,0
2,note_on,62,41,360
2,note_on,62,0,480
2,note_on,54,35,0
2,note_on,54,0,240
2,note_on,64,40,240
2,note_on,64,0,480
2,note_on,57,33,0
2,note_on,57,0,240
2,note_on,66,42,240
2,note_on,66,0,480
2,note_on,62,34,0
2,note_on,62,0,240
2,note_on,71,40,240
2,note_on,71,0,360
2,note_on,68,30,0
2,note_on,68,0,120
2,note_on,71,37,0
2,note_on,71,0,360
2,note_on,68,34,0
2,note_on,68,0,120
2,note_on,69,41,0
2,note_on,69,0,480
2,note_on,57,35,0
2,note_on,57,0,240
2,note_on,67,40,240
2,note_on,67,0,480
2,note_on,64,33,0
2,note_on,64,0,240
2,note_on,66,42,240
2,note_on,66,0,480
2,note_on,57,34,0
2,note_on,57,0,240
2,note_on,64,40,240
2,note_on,64,0,360
2,note_on,61,30,0
2,note_on,61,0,120
2,note_on,64,37,0
2,note_on,64,0,360
2,note_on,57,34,0
2,note_on,57,0,120
2,note_on,74,41,0
2,note_on,74,0,480
2,note_on,66,35,0
2,note_on,66,0,240
2,note_on,76,46,240
2,note_on,76,0,480
2,note_on,69,39,0
2,note_on,69,0,240
2,note_on,78,46,240
2,note_on,78,0,480
2,note_on,74,43,0
2,note_on,74,0,240
2,note_on,83,53,240
2,note_on,83,0,360
2,note_on,80,39,0
2,note_on,80,0,120
2,note_on,83,51,0
2,note_on,83,0,360
2,note_on,80,40,0
2,note_on,80,0,120
2,note_on,83,53,0
2,note_on,83,0,480
2,note_on,80,44,0
2,note_on,80,0,240
2,note_on,83,51,240
2,note_on,83,0,480
2,note_on,80,37,0
2,note_on,80,0,240
2,note_on,83,52,240
2,note_on,83,0,480
2,note_on,80,41,0
2,note_on,80,0,240
2,note_on,82,46,240
2,note_on,82,0,360
2,note_on,80,30,0
2,note_on,80,0,120
2,note_on,82,42,0
2,note_on,82,0,360
2,note_on,80,34,0
2,note_on,80,0,120
2,note_on,82,48,0
2,note_on,82,0,480
2,note_on,80,34,0
2,note_on,80,0,240
2,note_on,82,42,240
2,note_on,82,0,480
2,note_on,80,33,0
2,note_on,80,0,240
2,note_on,82,40,240
2,note_on,82,0,480
2,note_on,79,32,0
2,note_on,79,0,240
2,note_on,81,39,240
2,note_on,81,0,480
2,note_on,79,31,0
2,note_on,79,0,240
2,note_on,78,37,240
2,note_on,78,0,480
2,note_on,81,29,0
2,note_on,81,0,240
2,note_on,71,36,240
2,note_on,71,0,480
2,note_on,74,25,0
2,note_on,79,28,0
2,note_on,79,0,240
2,note_on,74,0,0
2,note_on,69,34,240
2,note_on,69,0,480
2,note_on,74,25,0
2,note_on,78,27,0
2,note_on,78,0,240
2,note_on,74,0,0
2,note_on,69,33,240
2,note_on,69,0,480
2,note_on,73,22,0
2,note_on,76,26,0
2,note_on,76,0,240
2,note_on,73,0,0
2,note_on,60,74,240
2,note_on,60,0,160
2,note_on,62,42,0
2,note_on,62,0,160
2,note_on,60,42,0
2,note_on,60,0,160
2,note_on,57,48,0
2,note_on,57,0,160
2,note_on,54,41,0
2,note_on,54,0,160
2,note_on,50,41,0
2,note_on,50,0,160
2,note_on,48,60,0
2,note_on,48,0,160
2,note_on,50,36,0
2,note_on,50,0,160
2,note_on,48,36,0
2,note_on,48,0,160
2,note_on,50,44,0
2,note_on,50,0,160
2,note_on,48,37,0
2,note_on,48,0,160
2,note_on,50,37,0
2,note_on,50,0,160
2,note_on,58,73,0
2,note_on,58,0,160
2,note_on,62,42,0
2,note_on,62,0,160
2,note_on,60,42,0
2,note_on,60,0,160
2,note_on,58,48,0
2,note_on,58,0,160
2,note_on,53,41,0
2,note_on,53,0,160
2,note_on,50,41,0
2,note_on,50,0,160
2,note_on,46,62,0
2,note_on,46,0,160
2,note_on,50,36,0
2,note_on,50,0,160
2,note_on,46,36,0
2,note_on,46,0,160
2,note_on,50,44,0
2,note_on,50,0,160
2,note_on,46,37,0
2,note_on,46,0,160
2,note_on,50,37,0
2,note_on,50,0,160
2,note_on,60,73,0
2,note_on,60,0,160
2,note_on,62,42,0
2,note_on,62,0,160
2,note_on,60,42,0
2,note_on,60,0,160
2,note_on,57,48,0
2,note_on,57,0,160
2,note_on,54,41,0
2,note_on,54,0,160
2,note_on,50,41,0
2,note_on,50,0,160
2,note_on,48,60,0
2,note_on,48,0,160
2,note_on,50,36,0
2,note_on,50,0,160
2,note_on,48,36,0
2,note_on,48,0,160
2,note_on,50,44,0
2,note_on,50,0,160
2,note_on,48,37,0
2,note_on,48,0,160
2,note_on,50,37,0
2,note_on,50,0,160
2,note_on,58,74,0
2,note_on,58,0,160
2,note_on,62,42,0
2,note_on,62,0,160
2,note_on,60,42,0
2,note_on,60,0,160
2,note_on,58,48,0
2,note_on,58,0,160
2,note_on,53,41,0
2,note_on,53,0,160
2,note_on,50,41,0
2,note_on,50,0,160
2,note_on,46,62,0
2,note_on,46,0,160
2,note_on,50,36,0
2,note_on,50,0,160
2,note_on,46,36,0
2,note_on,46,0,160
2,note_on,50,44,0
2,note_on,50,0,160
2,note_on,46,37,0
2,note_on,46,0,160
2,note_on,50,37,0
2,note_on,50,0,160
2,note_on,45,35,0
2,note_on,57,37,0
2,note_on,57,0,160
2,note_on,59,32,0
2,note_on,45,0,80
2,note_on,59,0,80
2,note_on,61,32,0
2,note_on,61,0,160
2,note_on,62,37,0
2,note_on,62,0,160
2,note_on,64,33,0
2,note_on,64,0,160
2,note_on,66,33,0
2,note_on,66,0,160
2,note_on,64,35,480
2,note_on,57,35,0
2,note_on,57,0,240
2,note_on,64,0,0
2,note_on,54,33,240
2,note_on,50,33,0
2,note_on,62,40,6
2,note_on,50,0,234
2,note_on,54,0,0
2,note_on,62,0,6
2,note_on,78,44,234
2,note_on,81,44,0
2,note_on,81,0,360
2,note_on,78,0,0
2,note_on,78,39,0
2,note_on,81,39,0
2,note_on,81,0,120
2,note_on,78,0,0
2,note_on,76,44,0
2,note_on,79,44,0
2,note_on,79,0,240
2,note_on,76,0,0
2,note_on,57,40,240
2,note_on,64,40,0
2,note_on,64,0,240
2,note_on,57,0,0
2,note_on,50,38,240
2,note_on,54,38,0
2,note_on,62,45,0
2,note_on,62,0,240
2,note_on,54,0,0
2,note_on,50,0,0
2,note_on,78,44,240
2,note_on,81,44,0
2,note_on,81,0,360
2,note_on,78,0,0
2,note_on,78,39,0
2,note_on,81,39,0
2,note_on,81,0,120
2,note_on,78,0,0
2,note_on,79,44,0
2,note_on,76,44,0
2,note_on,76,0,240
2,note_on,79,0,0
2,note_on,57,40,240
2,note_on,64,40,0
2,note_on,64,0,240
2,note_on,57,0,0
2,note_on,54,38,240
2,note_on,50,38,0
2,note_on,62,45,0
2,note_on,62,0,240
2,note_on,50,0,0
2,note_on,54,0,0
2,note_on,78,44,240
2,note_on,81,44,0
2,note_on,81,0,360
2,note_on,78,0,0
2,note_on,78,39,0
2,note_on,81,39,0
2,note_on,81,0,120
2,note_on,78,0,0
2,note_on,76,44,0
2,note_on,79,44,0
2,note_on,79,0,240
2,note_on,76,0,0
2,note_on,57,35,240
2,note_on,57,0,240
2,note_on,60,74,240
2,note_on,60,0,160
2,note_on,62,42,0
2,note_on,62,0,160
2,note_on,60,42,0
2,note_on,60,0,160
2,note_on,57,48,0
2,note_on,57,0,160
2,note_on,54,41,0
2,note_on,54,0,160
2,note_on,50,41,0
2,note_on,50,0,160
2,note_on,48,60,0
2,note_on,48,0,160
2,note_on,50,36,0
2,note_on,50,0,160
2,note_on,48,36,0
2,note_on,48,0,160
2,note_on,50,44,0
2,note_on,50,0,160
2,note_on,48,37,0
2,note_on,48,0,160
2,note_on,50,37,0
2,note_on,50,0,160
2,note_on,58,73,0
2,note_on,58,0,160
2,note_on,62,42,0
2,note_on,62,0,160
2,note_on,60,42,0
2,note_on,60,0,160
2,note_on,58,48,0
2,note_on,58,0,160
2,note_on,53,41,0
2,note_on,53,0,160
2,note_on,50,41,0
2,note_on,50,0,160
2,note_on,46,62,0
2,note_on,46,0,160
2,note_on,50,36,0
2,note_on,50,0,160
2,note_on,46,36,0
2,note_on,46,0,160
2,note_on,50,44,0
2,note_on,50,0,160
2,note_on,46,37,0
2,note_on,46,0,160
2,note_on,50,37,0
2,note_on,50,0,160
2,note_on,58,73,0
2,note_on,58,0,160
2,note_on,60,42,0
2,note_on,60,0,160
2,note_on,58,42,0
2,note_on,58,0,160
2,note_on,55,48,0
2,note_on,55,0,160
2,note_on,52,41,0
2,note_on,52,0,160
2,note_on,48,41,0
2,note_on,48,0,160
2,note_on,46,62,0
2,note_on,46,0,160
2,note_on,48,36,0
2,note_on,48,0,160
2,note_on,46,36,0
2,note_on,46,0,160
2,note_on,48,44,0
2,note_on,48,0,160
2,note_on,46,37,0
2,note_on,46,0,160
2,note_on,48,37,0
2,note_on,48,0,160
2,note_on,56,73,0
2,note_on,56,0,160
2,note_on,60,42,0
2,note_on,60,0,160
2,note_on,58,42,0
2,note_on,58,0,160
2,note_on,56,48,0
2,note_on,56,0,160
2,note_on,51,41,0
2,note_on,51,0,160
2,note_on,48,41,0
2,note_on,48,0,160
2,note_on,44,62,0
2,note_on,44,0,160
2,note_on,48,36,0
2,note_on,48,0,160
2,note_on,44,36,0
2,note_on,44,0,160
2,note_on,48,44,0
2,note_on,48,0,160
2,note_on,44,37,0
2,note_on,44,0,160
2,note_on,48,37,0
2,note_on,48,0,160
2,note_on,56,73,0
2,note_on,56,0,160
2,note_on,58,42,0
2,note_on,58,0,160
2,note_on,56,42,0
2,note_on,56,0,160
2,note_on,53,48,0
2,note_on,53,0,160
2,note_on,50,41,0
2,note_on,50,0,160
2,note_on,46,41,0
2,note_on,46,0,160
2,note_on,54,73,0
2,note_on,54,0,160
2,note_on,58,42,0
2,note_on,58,0,160
2,note_on,54,42,0
2,note_on,54,0,160
2,note_on,49,48,0
2,note_on,49,0,160
2,note_on,46,41,0
2,note_on,46,0,160
2,note_on,42,41,0
2,note_on,42,0,160
2,note_on,55,73,0
2,note_on,55,0,160
2,note_on,57,42,0
2,note_on,57,0,160
2,note_on,55,42,0
2,note_on,55,0,160
2,note_on,52,48,0
2,note_on,52,0,160
2,note_on,49,41,0
2,note_on,49,0,160
2,note_on,45,41,0
2,note_on,45,0,160
2,note_on,53,73,0
2,note_on,53,0,160
2,note_on,57,42,0
2,note_on,57,0,160
2,note_on,53,42,0
2,note_on,53,0,160
2,note_on,48,48,0
2,note_on,48,0,160
2,note_on,45,41,0
2,note_on,45,0,160
2,note_on,41,41,0
2,note_on,41,0,160
2,note_on,46,73,0
2,note_on,46,0,160
2,note_on,50,42,0
2,note_on,50,0,160
2,note_on,46,42,0
2,note_on,46,0,160
2,note_on,41,48,0
2,note_on,41,0,160
2,note_on,38,41,0
2,note_on,38,0,160
2,note_on,34,41,0
2,note_on,34,0,160
2,note_on,38,55,0
2,note_on,38,0,160
2,note_on,34,32,0
2,note_on,34,0,160
2,note_on,38,32,0
2,note_on,38,0,160
2,note_on,34,39,0
2,note_on,34,0,160
2,note_on,38,33,0
2,note_on,38,0,160
2,note_on,34,33,0
2,note_on,34,0,160
2,note_on,38,45,0
2,note_on,38,0,160
2,note_on,34,29,0
2,note_on,34,0,160
2,note_on,38,29,0
2,note_on,38,0,160
2,note_on,34,34,0
2,note_on,34,0,160
2,note_on,38,28,0
2,note_on,38,0,160
2,note_on,34,28,0
2,note_on,34,0,160
2,note_on,38,38,0
2,note_on,38,0,160
2,note_on,34,25,0
2,note_on,34,0,160
2,note_on,38,25,0
2,note_on,38,0,160
2,note_on,34,30,0
2,note_on,34,0,160
2,note_on,38,24,0
2,note_on,38,0,160
2,note_on,34,24,0
2,note_on,34,0,160
2,note_on,33,35,0
2,note_on,45,37,0
2,note_on,45,0,160
2,note_on,47,32,0
2,note_on,33,0,80
2,note_on,47,0,80
2,note_on,49,32,0
2,note_on,49,0,160
2,note_on,50,37,0
2,note_on,50,0,160
2,note_on,52,33,0
2,note_on,52,0,160
2,note_on,54,33,0
2,note_on,54,0,160
2,note_on,52,35,480
2,note_on,45,35,0
2,note_on,45,0,240
2,note_on,52,0,0
2,note_on,54,40,240
2,note_on,50,33,0
2,note_on,50,0,240
2,note_on,54,0,0
2,note_on,69,44,240
2,note_on,66,44,0
2,note_on,66,0,360
2,note_on,69,0,0
2,note_on,69,39,0
2,note_on,66,39,0
2,note_on,66,0,120
2,note_on,69,0,0
2,note_on,67,44,0
2,note_on,64,44,0
2,note_on,64,0,240
2,note_on,67,0,0
2,note_on,45,40,240
2,note_on,52,40,0
2,note_on,52,0,240
2,note_on,45,0,0
2,note_on,54,38,240
2,note_on,50,38,0
2,note_on,50,0,240
2,note_on,54,0,0
2,note_on,69,44,240
2,note_on,66,44,0
2,note_on,66,0,360
2,note_on,69,0,0
2,note_on,69,39,0
2,note_on,66,39,0
2,note_on,66,0,120
2,note_on,69,0,0
2,note_on,64,44,0
2,note_on,67,44,0
2,note_on,67,0,240
2,note_on,64,0,0
2,note_on,57,40,240
2,note_on,64,40,0
2,note_on,64,0,240
2,note_on,57,0,0
2,note_on,54,38,240
2,note_on,50,38,0
2,note_on,50,0,240
2,note_on,54,0,0
2,note_on,66,44,240
2,note_on,69,44,0
2,note_on,69,0,360
2,note_on,66,0,0
2,note_on,66,39,0
2,note_on,69,39,0
2,note_on,69,0,120
2,note_on,66,0,0
2,note_on,64,44,0
2,note_on,67,44,0
2,note_on,67,0,240
2,note_on,64,0,0
2,note_on,52,40,240
2,note_on,45,32,0
2,note_on,45,0,240
2,note_on,52,0,0
2,note_on,50,61,240
2,note_on,38,51,0
2,note_on,38,0,960
2,note_on,50,0,0
2,note_on,54,55,0
2,note_on,50,46,0
2,note_on,50,0,120
2,note_on,54,0,0
2,note_on,54,45,120
2,note_on,50,37,0
2,note_on,50,0,120
2,note_on,54,0,0
2,note_on,54,57,120
2,note_on,50,47,0
2,note_on,50,0,120
2,note_on,54,0,0
2,note_on,54,45,120
2,note_on,50,37,0
2,note_on,50,0,120
2,note_on,54,0,0
2,note_on,54,61,120
2,note_on,50,51,0
2,note_on,50,0,480
2,note_on,54,0,0
2,note_on,54,45,0
2,note_on,62,52,0
2,note_on,62,0,240
2,note_on,54,0,0
2,note_on,62,65,240
2,note_on,54,55,0
2,note_on,54,0,120
2,note_on,62,0,0
2,note_on,62,55,120
2,note_on,54,46,0
2,note_on,54,0,120
2,note_on,62,0,0
2,note_on,62,66,120
2,note_on,54,56,0
2,note_on,54,0,120
2,note_on,62,0,0
2,note_on,62,58,120
2,note_on,54,48,0
2,note_on,54,0,120
2,note_on,62,0,0
2,note_on,62,76,120
2,note_on,50,63,0
2,note_on,50,0,480
2,note_on,62,0,0
2,note_on,66,66,0
2,note_on,62,56,0
2,note_on,62,0,240
2,note_on,66,0,0
2,note_on,66,80,240
2,note_on,62,67,0
2,note_on,62,0,120
2,note_on,66,0,0
2,note_on,66,70,120
2,note_on,62,58,0
2,note_on,62,0,120
2,note_on,66,0,0
2,note_on,66,82,120
2,note_on,62,70,0
2,note_on,62,0,120
2,note_on,66,0,0
2,note_on,66,73,120
2,note_on,62,62,0
2,note_on,62,0,120
2,note_on,66,0,0
2,note_on,66,85,120
2,note_on,62,71,0
2,note_on,62,0,480
2,note_on,66,0,0
2,note_on,69,76,0
2,note_on,66,63,0
2,note_on,66,0,240
2,note_on,69,0,0
2,note_on,69,85,240
2,note_on,66,71,0
2,note_on,66,0,120
2,note_on,69,0,0
2,note_on,69,76,120
2,note_on,66,63,0
2,note_on,66,0,120
2,note_on,69,0,0
2,note_on,69,87,120
2,note_on,66,73,0
2,note_on,66,0,120
2,note_on,69,0,0
2,note_on,69,80,120
2,note_on,66,67,0
2,note_on,66,0,120
2,note_on,69,0,0
2,note_on,38,73,120
2,note_on,50,86,0
2,note_on,50,0,960
2,note_on,38,0,0
2,note_on,54,58,0
2,note_on,62,69,0
2,note_on,62,0,120
2,note_on,54,0,0
2,note_on,54,52,120
2,note_on,62,63,0
2,note_on,62,0,120
2,note_on,54,0,0
2,note_on,54,58,120
2,note_on,62,69,0
2,note_on,62,0,120
2,note_on,54,0,0
2,note_on,54,52,120
2,note_on,62,63,0
2,note_on,62,0,120
2,note_on,54,0,0
2,note_on,54,64,120
2,note_on,62,75,0
2,note_on,62,0,480
2,note_on,54,0,0
2,note_on,57,58,0
2,note_on,64,71,0
2,note_on,64,0,240
2,note_on,57,0,0
2,note_on,57,64,240
2,note_on,64,75,0
2,note_on,64,0,480
2,note_on,57,0,0
2,note_on,62,58,0
2,note_on,66,71,0
2,note_on,66,0,240
2,note_on,62,0,0
2,note_on,62,64,240
2,note_on,66,75,0
2,note_on,66,0,480
2,note_on,62,0,0
2,note_on,57,58,0
2,note_on,64,71,0
2,note_on,64,0,240
2,note_on,57,0,0
2,note_on,57,58,240
2,note_on,64,69,0
2,note_on,64,0,120
2,note_on,57,0,0
2,note_on,57,52,120
2,note_on,64,63,0
2,note_on,64,0,120
2,note_on,57,0,0
2,note_on,57,58,120
2,note_on,64,69,0
2,note_on,64,0,120
2,note_on,57,0,0
2,note_on,57,52,120
2,note_on,64,63,0
2,note_on,64,0,120
2,note_on,57,0,0
2,note_on,57,64,120
2,note_on,64,75,0
2,note_on,64,0,480
2,note_on,57,0,0
2,note_on,66,58,0
2,note_on,69,71,0
2,note_on,69,0,240
2,note_on,66,0,0
2,note_on,66,64,240
2,note_on,69,75,0
2,note_on,69,0,480
2,note_on,66,0,0
2,note_on,61,58,0
2,note_on,67,71,0
2,note_on,67,0,240
2,note_on,61,0,0
2,note_on,61,64,240
2,note_on,67,75,0
2,note_on,67,0,480
2,note_on,61,0,0
2,note_on,62,58,0
2,note_on,66,71,0
2,note_on,66,0,240
2,note_on,62,0,0
2,note_on,35,58,240
2,note_on,47,69,0
2,note_on,47,0,120
2,note_on,35,0,0
2,note_on,35,52,120
2,note_on,47,63,0
2,note_on,47,0,120
2,note_on,35,0,0
2,note_on,35,58,120
2,note_on,47,69,0
2,note_on,47,0,120
2,note_on,35,0,0
2,note_on,35,52,120
2,note_on,47,63,0
2,note_on,47,0,120
2,note_on,35,0,0
2,note_on,35,64,120
2,note_on,47,75,0
2,note_on,47,0,480
2,note_on,35,0,0
2,note_on,38,58,0
2,note_on,50,71,0
2,note_on,50,0,240
2,note_on,38,0,0
2,note_on,38,56,240
2,note_on,50,66,0
2,note_on,50,0,120
2,note_on,38,0,0
2,note_on,42,51,360
2,note_on,54,62,0
2,note_on,54,0,120
2,note_on,42,0,0
2,note_on,45,56,360
2,note_on,57,66,0
2,note_on,57,0,960
2,note_on,45,0,0
2,note_on,41,58,0
2,note_on,53,69,0
2,note_on,53,0,120
2,note_on,41,0,0
2,note_on,41,52,120
2,note_on,53,63,0
2,note_on,53,0,120
2,note_on,41,0,0
2,note_on,41,58,120
2,note_on,53,69,0
2,note_on,53,0,120
2,note_on,41,0,0
2,note_on,41,52,120
2,note_on,53,63,0
2,note_on,53,0,120
2,note_on,41,0,0
2,note_on,45,64,120
2,note_on,54,64,0
2,note_on,57,75,0
2,note_on,57,0,960
2,note_on,54,0,0
2,note_on,45,0,0
2,note_on,62,56,0
2,note_on,57,56,0
2,note_on,66,66,0
2,note_on,66,0,120
2,note_on,57,0,0
2,note_on,62,0,0
2,note_on,61,51,360
2,note_on,57,51,0
2,note_on,64,62,0
2,note_on,64,0,120
2,note_on,57,0,0
2,note_on,61,0,0
2,note_on,50,56,360
2,note_on,54,56,0
2,note_on,57,56,0
2,note_on,62,66,0
2,note_on,62,0,480
2,note_on,50,0,0
2,note_on,54,0,0
2,note_on,57,0,0
2,note_on,41,58,0
2,note_on,53,69,0
2,note_on,53,0,720
2,note_on,41,0,0
2,note_on,41,52,0
2,note_on,53,63,0
2,note_on,53,0,120
2,note_on,41,0,0
2,note_on,41,58,120
2,note_on,53,69,0
2,note_on,53,0,120
2,note_on,41,0,0
2,note_on,41,52,120
2,note_on,53,63,0
2,note_on,53,0,120
2,note_on,41,0,0
2,note_on,45,64,120
2,note_on,54,64,0
2,note_on,57,75,0
2,note_on,57,0,960
2,note_on,54,0,0
2,note_on,45,0,0
2,note_on,62,56,0
2,note_on,57,56,0
2,note_on,66,66,0
2,note_on,66,0,120
2,note_on,57,0,0
2,note_on,62,0,0
2,note_on,61,51,360
2,note_on,57,51,0
2,note_on,64,62,0
2,note_on,64,0,120
2,note_on,57,0,0
2,note_on,61,0,0
2,note_on,50,56,360
2,note_on,54,56,0
2,note_on,57,56,0
2,note_on,62,66,0
2,note_on,62,0,480
2,note_on,50,0,0
2,note_on,54,0,0
2,note_on,57,0,0
2,note_on,34,58,0
2,note_on,46,69,0
2,note_on,46,0,720
2,note_on,34,0,0
2,note_on,34,52,0
2,note_on,46,63,0
2,note_on,46,0,120
2,note_on,34,0,0
2,note_on,34,58,120
2,note_on,46,69,0
2,note_on,46,0,120
2,note_on,34,0,0
2,note_on,34,52,120
2,note_on,46,63,0
2,note_on,46,0,120
2,note_on,34,0,0
2,note_on,45,64,120
2,note_on,54,64,0
2,note_on,57,75,0
2,note_on,57,0,960
2,note_on,54,0,0
2,note_on,45,0,0
2,note_on,62,56,0
2,note_on,57,56,0
2,note_on,66,66,0
2,note_on,66,0,120
2,note_on,57,0,0
2,note_on,62,0,0
2,note_on,61,51,360
2,note_on,57,51,0
2,note_on,64,62,0
2,note_on,64,0,120
2,note_on,57,0,0
2,note_on,61,0,0
2,note_on,57,67,360
2,note_on,66,73,0
2,note_on,69,88,0
2,note_on,69,0,480
2,note_on,66,0,0
2,note_on,62,57,0
2,note_on,66,68,0
2,note_on,66,0,240
2,note_on,62,0,0
2,note_on,57,0,0
2,note_on,57,62,240
2,note_on,62,62,0
2,note_on,66,73,0
2,note_on,66,0,120
2,note_on,62,0,0
2,note_on,57,0,0
2,note_on,57,54,360
2,note_on,61,54,0
2,note_on,64,63,0
2,note_on,64,0,120
2,note_on,61,0,0
2,note_on,57,0,0
2,note_on,57,67,360
2,note_on,66,73,0
2,note_on,69,88,0
2,note_on,69,0,480
2,note_on,66,0,0
2,note_on,62,57,0
2,note_on,66,68,0
2,note_on,66,0,240
2,note_on,62,0,0
2,note_on,57,0,0
2,note_on,57,62,240
2,note_on,62,62,0
2,note_on,66,73,0
2,note_on,66,0,120
2,note_on,62,0,0
2,note_on,57,0,0
2,note_on,57,54,360
2,note_on,61,54,0
2,note_on,64,63,0
2,note_on,64,0,120
2,note_on,61,0,0
2,note_on,57,0,0
2,note_on,57,67,360
2,note_on,66,73,0
2,note_on,69,88,0
2,note_on,69,0,480
2,note_on,66,0,0
2,note_on,62,57,0
2,note_on,66,68,0
2,note_on,66,0,240
2,note_on,62,0,0
2,note_on,57,0,0
2,note_on,57,62,240
2,note_on,62,62,0
2,note_on,66,73,0
2,note_on,66,0,120
2,note_on,62,0,0
2,note_on,57,0,0
2,note_on,57,54,360
2,note_on,61,54,0
2,note_on,64,63,0
2,note_on,64,0,120
2,note_on,61,0,0
2,note_on,57,0,0
2,note_on,50,71,360
2,note_on,54,71,0
2,note_on,62,83,0
2,note_on,62,0,120
2,note_on,54,0,0
2,note_on,50,0,0
2,note_on,40,42,200
2,note_on,40,0,160
2,note_on,42,46,0
2,note_on,42,0,160
2,note_on,40,42,0
2,note_on,40,0,160
2,note_on,38,43,0
2,note_on,38,0,160
2,note_on,43,48,0
2,note_on,43,0,160
2,note_on,42,44,0
2,note_on,42,0,160
2,note_on,40,45,0
2,note_on,40,0,160
2,note_on,45,50,0
2,note_on,45,0,160
2,note_on,43,46,0
2,note_on,43,0,160
2,note_on,42,46,0
2,note_on,42,0,160
2,note_on,47,52,0
2,note_on,47,0,160
2,note_on,45,48,0
2,note_on,45,0,160
2,note_on,43,48,0
2,note_on,43,0,160
2,note_on,49,55,0
2,note_on,49,0,160
2,note_on,47,51,0
2,note_on,47,0,160
2,note_on,45,52,0
2,note_on,45,0,160
2,note_on,50,58,0
2,note_on,50,0,160
2,note_on,49,53,0
2,note_on,49,0,160
2,note_on,47,55,0
2,note_on,47,0,160
2,note_on,52,62,0
2,note_on,52,0,160
2,note_on,50,56,0
2,note_on,50,0,160
2,note_on,49,57,0
2,note_on,49,0,160
2,note_on,42,73,0
2,note_on,54,73,0
2,note_on,54,0,960
2,note_on,42,0,0
2,note_on,33,80,960
2,note_on,45,80,0
2,note_on,45,0,960
2,note_on,33,0,0
2,note_on,38,68,960
2,note_on,50,80,0
2,note_on,50,0,720
2,note_on,38,0,0
2,note_on,38,72,0
2,note_on,38,0,240
2,note_on,42,80,0
2,note_on,42,0,160
2,note_on,40,73,0
2,note_on,40,0,160
2,note_on,38,73,0
2,note_on,38,0,160
2,note_on,45,80,0
2,note_on,45,0,160
2,note_on,43,73,0
2,note_on,43,0,160
2,note_on,42,73,0
2,note_on,42,0,160
2,note_on,50,88,0
2,note_on,50,0,240
2,note_on,50,74,720
2,note_on,54,74,0
2,note_on,57,74,0
2,note_on,62,88,0
2,note_on,62,0,240
2,note_on,50,0,0
2,note_on,54,0,0
2,note_on,57,0,0
2,note_on,45,80,720
2,note_on,38,80,0
2,note_on,50,80,0
2,note_on,50,0,960
2,note_on,38,0,0
2,note_on,45,0,0
