Track,Message Type,Note,Velocity,Time
1,note_on,70,48,1860
1,note_on,70,0,60
1,note_on,68,56,0
1,note_on,68,0,120
1,note_on,68,50,120
1,note_on,68,0,120
1,note_on,70,50,0
1,note_on,70,0,120
1,note_on,68,55,0
1,note_on,68,0,120
1,note_on,67,52,120
1,note_on,67,0,120
1,note_on,68,48,0
1,note_on,68,0,60
1,note_on,70,48,0
1,note_on,70,0,60
1,note_on,68,51,0
1,note_on,72,57,0
1,note_on,72,0,360
1,note_on,68,0,0
1,note_on,68,48,0
1,note_on,68,0,60
1,note_on,70,48,0
1,note_on,70,0,60
1,note_on,68,50,0
1,note_on,72,56,0
1,note_on,72,0,420
1,note_on,68,0,0
1,note_on,70,48,0
1,note_on,70,0,60
1,note_on,68,56,0
1,note_on,68,0,120
1,note_on,68,51,120
1,note_on,68,0,120
1,note_on,70,51,0
1,note_on,70,0,120
1,note_on,68,55,0
1,note_on,68,0,120
1,note_on,67,45,120
1,note_on,72,51,0
1,note_on,72,0,120
1,note_on,67,0,0
1,note_on,72,48,60
1,note_on,72,0,60
1,note_on,77,60,0
1,note_on,68,54,0
1,note_on,68,0,420
1,note_on,77,0,0
1,note_on,72,48,0
1,note_on,72,0,60
1,note_on,68,52,0
1,note_on,77,58,0
1,note_on,78,43,420
1,note_on,78,0,60
1,note_on,77,0,0
1,note_on,68,0,0
1,note_on,68,52,0
1,note_on,77,52,0
1,note_on,77,0,240
1,note_on,68,0,0
1,note_on,68,40,0
1,note_on,77,45,0
1,note_on,77,0,120
1,note_on,78,45,0
1,note_on,78,0,120
1,note_on,68,0,0
1,note_on,69,43,0
1,note_on,77,48,0
1,note_on,77,0,240
1,note_on,69,0,0
1,note_on,69,40,0
1,note_on,77,45,0
1,note_on,77,0,240
1,note_on,69,0,0
1,note_on,70,43,0
1,note_on,77,48,0
1,note_on,77,0,240
1,note_on,82,43,0
1,note_on,82,0,120
1,note_on,70,0,0
1,note_on,68,37,120
1,note_on,77,42,0
1,note_on,77,0,480
1,note_on,68,0,0
1,note_on,68,37,0
1,note_on,72,42,0
1,note_on,67,35,120
1,note_on,70,39,0
1,note_on,72,0,12
1,note_on,68,0,0
1,note_on,65,35,108
1,note_on,68,39,0
1,note_on,67,0,12
1,note_on,70,0,0
1,note_on,67,35,108
1,note_on,70,39,0
1,note_on,65,0,12
1,note_on,68,0,0
1,note_on,68,37,108
1,note_on,72,42,0
1,note_on,67,0,12
1,note_on,70,0,0
1,note_on,72,0,108
1,note_on,73,39,0
1,note_on,73,0,120
1,note_on,68,0,0
1,note_on,70,39,0
1,note_on,67,35,0
1,note_on,72,39,0
1,note_on,72,0,120
1,note_on,76,39,0
1,note_on,76,0,120
1,note_on,67,0,0
1,note_on,70,0,0
1,note_on,77,43,0
1,note_on,72,38,0
1,note_on,68,38,0
1,note_on,68,0,480
1,note_on,72,0,0
1,note_on,77,0,0
1,note_on,68,38,0
1,note_on,72,38,0
1,note_on,77,43,0
1,note_on,77,0,400
1,note_on,72,0,0
1,note_on,68,0,0
1,note_on,70,48,20
1,note_on,70,0,60
1,note_on,68,56,0
1,note_on,68,0,120
1,note_on,68,50,120
1,note_on,68,0,120
1,note_on,70,50,0
1,note_on,70,0,120
1,note_on,68,55,0
1,note_on,68,0,120
1,note_on,67,52,120
1,note_on,67,0,120
1,note_on,68,48,0
1,note_on,68,0,60
1,note_on,70,48,0
1,note_on,70,0,60
1,note_on,68,51,0
1,note_on,72,57,0
1,note_on,72,0,360
1,note_on,68,0,0
1,note_on,68,48,0
1,note_on,68,0,60
1,note_on,70,48,0
1,note_on,70,0,60
1,note_on,68,51,0
1,note_on,72,57,0
1,note_on,72,0,420
1,note_on,68,0,0
1,note_on,70,48,0
1,note_on,70,0,60
1,note_on,68,56,0
1,note_on,68,0,120
1,note_on,68,51,120
1,note_on,68,0,120
1,note_on,70,51,0
1,note_on,70,0,120
1,note_on,68,55,0
1,note_on,68,0,120
1,note_on,67,45,120
1,note_on,72,51,0
1,note_on,72,0,120
1,note_on,67,0,0
1,note_on,72,48,60
1,note_on,72,0,60
1,note_on,77,60,0
1,note_on,68,54,0
1,note_on,68,0,420
1,note_on,77,0,0
1,note_on,72,48,0
1,note_on,72,0,60
1,note_on,68,52,0
1,note_on,77,58,0
1,note_on,78,43,420
1,note_on,78,0,60
1,note_on,77,0,0
1,note_on,68,0,0
1,note_on,68,46,0
1,note_on,77,52,0
1,note_on,77,0,240
1,note_on,68,0,0
1,note_on,68,40,0
1,note_on,77,45,0
1,note_on,77,0,120
1,note_on,78,45,0
1,note_on,78,0,120
1,note_on,68,0,0
1,note_on,69,43,0
1,note_on,77,48,0
1,note_on,77,0,240
1,note_on,69,0,0
1,note_on,69,40,0
1,note_on,77,45,0
1,note_on,77,0,240
1,note_on,69,0,0
1,note_on,70,43,0
1,note_on,77,48,0
1,note_on,77,0,240
1,note_on,82,43,0
1,note_on,82,0,120
1,note_on,70,0,0
1,note_on,68,37,120
1,note_on,77,42,0
1,note_on,77,0,480
1,note_on,68,0,0
1,note_on,68,37,0
1,note_on,72,42,0
1,note_on,67,35,120
1,note_on,70,39,0
1,note_on,72,0,12
1,note_on,68,0,0
1,note_on,65,35,108
1,note_on,68,39,0
1,note_on,67,0,12
1,note_on,70,0,0
1,note_on,67,35,108
1,note_on,70,39,0
1,note_on,65,0,12
1,note_on,68,0,0
1,note_on,68,42,108
1,note_on,72,42,0
1,note_on,67,0,12
1,note_on,70,0,0
1,note_on,72,0,108
1,note_on,73,39,0
1,note_on,73,0,120
1,note_on,68,0,0
1,note_on,70,39,0
1,note_on,67,35,0
1,note_on,72,39,0
1,note_on,72,0,120
1,note_on,76,39,0
1,note_on,76,0,120
1,note_on,67,0,0
1,note_on,70,0,0
1,note_on,77,43,0
1,note_on,72,38,0
1,note_on,68,38,0
1,note_on,68,0,480
1,note_on,72,0,0
1,note_on,77,0,0
1,note_on,68,38,0
1,note_on,72,38,0
1,note_on,77,43,0
1,note_on,77,0,480
1,note_on,72,0,0
1,note_on,68,0,0
1,note_on,72,57,0
1,note_on,72,0,480
1,note_on,72,57,0
1,note_on,72,0,480
1,note_on,72,50,0
1,note_on,73,51,120
1,note_on,72,0,12
1,note_on,75,55,108
1,note_on,73,0,12
1,note_on,73,52,108
1,note_on,75,0,12
1,note_on,73,0,108
1,note_on,73,52,0
1,note_on,73,0,360
1,note_on,72,49,0
1,note_on,72,0,60
1,note_on,72,43,30
1,note_on,72,0,30
1,note_on,70,52,0
1,note_on,70,0,120
1,note_on,70,48,120
1,note_on,70,0,120
1,note_on,72,51,120
1,note_on,72,0,120
1,note_on,70,49,0
1,note_on,70,0,120
1,note_on,68,46,0
1,note_on,68,0,120
1,note_on,70,50,0
1,note_on,70,0,120
1,note_on,70,54,0
1,note_on,70,0,480
1,note_on,72,54,0
1,note_on,72,0,420
1,note_on,75,46,0
1,note_on,75,0,60
1,note_on,80,57,0
1,note_on,72,51,0
1,note_on,72,0,420
1,note_on,80,0,0
1,note_on,75,45,0
1,note_on,75,0,60
1,note_on,72,56,0
1,note_on,80,56,0
1,note_on,80,0,480
1,note_on,72,0,0
1,note_on,75,45,0
1,note_on,79,50,0
1,note_on,73,45,120
1,note_on,77,50,0
1,note_on,79,0,12
1,note_on,75,0,0
1,note_on,72,40,108
1,note_on,76,45,0
1,note_on,73,0,12
1,note_on,77,0,0
1,note_on,73,40,108
1,note_on,77,45,0
1,note_on,72,0,12
1,note_on,76,0,0
1,note_on,73,0,108
1,note_on,77,0,0
1,note_on,73,45,0
1,note_on,77,50,0
1,note_on,77,0,480
1,note_on,73,0,0
1,note_on,67,49,0
1,note_on,73,49,0
1,note_on,77,55,0
1,note_on,77,0,120
1,note_on,75,46,0
1,note_on,75,0,120
1,note_on,73,0,0
1,note_on,67,0,0
1,note_on,75,46,0
1,note_on,73,46,0
1,note_on,67,46,0
1,note_on,67,0,120
1,note_on,68,46,0
1,note_on,68,0,120
1,note_on,70,52,0
1,note_on,70,0,240
1,note_on,73,0,0
1,note_on,75,0,0
1,note_on,68,42,0
1,note_on,73,42,0
1,note_on,75,42,0
1,note_on,68,0,120
1,note_on,67,42,0
1,note_on,67,0,120
1,note_on,75,0,0
1,note_on,73,0,0
1,note_on,68,35,0
1,note_on,72,35,0
1,note_on,75,39,0
1,note_on,75,0,480
1,note_on,72,0,0
1,note_on,68,0,0
1,note_on,75,39,0
1,note_on,72,35,0
1,note_on,68,35,0
1,note_on,68,0,480
1,note_on,72,0,0
1,note_on,75,0,0
1,note_on,72,57,0
1,note_on,72,0,480
1,note_on,72,57,0
1,note_on,72,0,480
1,note_on,72,50,0
1,note_on,73,51,120
1,note_on,72,0,12
1,note_on,75,55,108
1,note_on,73,0,12
1,note_on,73,52,108
1,note_on,75,0,12
1,note_on,73,0,108
1,note_on,73,52,0
1,note_on,73,0,360
1,note_on,72,49,0
1,note_on,72,0,60
1,note_on,72,43,30
1,note_on,72,0,30
1,note_on,70,52,0
1,note_on,70,0,240
1,note_on,70,48,0
1,note_on,70,0,240
1,note_on,72,51,0
1,note_on,72,0,120
1,note_on,70,49,0
1,note_on,70,0,120
1,note_on,68,46,0
1,note_on,68,0,120
1,note_on,70,50,0
1,note_on,70,0,120
1,note_on,70,54,0
1,note_on,70,0,480
1,note_on,72,54,0
1,note_on,72,0,420
1,note_on,75,46,0
1,note_on,75,0,60
1,note_on,80,57,0
1,note_on,72,51,0
1,note_on,72,0,420
1,note_on,80,0,0
1,note_on,75,45,0
1,note_on,75,0,60
1,note_on,72,56,0
1,note_on,80,56,0
1,note_on,80,0,480
1,note_on,72,0,0
1,note_on,75,45,0
1,note_on,79,50,0
1,note_on,73,45,120
1,note_on,77,50,0
1,note_on,79,0,12
1,note_on,75,0,0
1,note_on,72,40,108
1,note_on,76,45,0
1,note_on,73,0,12
1,note_on,77,0,0
1,note_on,73,40,108
1,note_on,77,45,0
1,note_on,72,0,12
1,note_on,76,0,0
1,note_on,73,0,108
1,note_on,77,0,0
1,note_on,73,45,0
1,note_on,77,50,0
1,note_on,77,0,480
1,note_on,73,0,0
1,note_on,67,49,0
1,note_on,73,49,0
1,note_on,77,55,0
1,note_on,77,0,120
1,note_on,75,46,0
1,note_on,75,0,120
1,note_on,73,0,0
1,note_on,67,0,0
1,note_on,75,46,0
1,note_on,73,46,0
1,note_on,67,46,0
1,note_on,67,0,120
1,note_on,68,46,0
1,note_on,68,0,120
1,note_on,70,52,0
1,note_on,70,0,240
1,note_on,73,0,0
1,note_on,75,0,0
1,note_on,68,42,0
1,note_on,73,42,0
1,note_on,75,42,0
1,note_on,68,0,120
1,note_on,67,42,0
1,note_on,67,0,120
1,note_on,75,0,0
1,note_on,73,0,0
1,note_on,68,35,0
1,note_on,72,35,0
1,note_on,75,39,0
1,note_on,75,0,480
1,note_on,72,0,0
1,note_on,68,0,0
1,note_on,75,39,0
1,note_on,72,35,0
1,note_on,68,35,0
1,note_on,68,0,480
1,note_on,72,0,0
1,note_on,75,0,0
1,note_on,76,64,0
1,note_on,72,57,0
1,note_on,70,57,0
1,note_on,67,57,0
1,note_on,67,0,480
1,note_on,76,0,0
1,note_on,72,0,0
1,note_on,70,0,0
1,note_on,76,64,0
1,note_on,72,57,0
1,note_on,70,57,0
1,note_on,67,57,0
1,note_on,67,0,420
1,note_on,76,0,0
1,note_on,72,0,0
1,note_on,70,0,0
1,note_on,77,56,0
1,note_on,77,0,60
1,note_on,68,54,0
1,note_on,72,54,0
1,note_on,80,69,0
1,note_on,80,0,240
1,note_on,72,0,0
1,note_on,68,0,0
1,note_on,68,48,0
1,note_on,72,48,0
1,note_on,80,66,0
1,note_on,80,0,120
1,note_on,79,67,0
1,note_on,79,0,120
1,note_on,77,67,0
1,note_on,77,0,240
1,note_on,75,63,0
1,note_on,75,0,120
1,note_on,73,63,0
1,note_on,73,0,120
1,note_on,72,0,0
1,note_on,68,0,0
1,note_on,67,57,0
1,note_on,70,57,0
1,note_on,72,64,0
1,note_on,72,0,480
1,note_on,70,0,0
1,note_on,67,0,0
1,note_on,67,57,0
1,note_on,70,57,0
1,note_on,72,57,0
1,note_on,76,64,0
1,note_on,76,0,420
1,note_on,67,0,0
1,note_on,70,0,0
1,note_on,72,0,0
1,note_on,77,57,0
1,note_on,77,0,60
1,note_on,68,55,0
1,note_on,72,55,0
1,note_on,80,73,0
1,note_on,80,0,240
1,note_on,72,0,0
1,note_on,68,0,0
1,note_on,68,46,0
1,note_on,72,46,0
1,note_on,80,62,0
1,note_on,80,0,120
1,note_on,79,62,0
1,note_on,79,0,120
1,note_on,77,62,0
1,note_on,77,0,240
1,note_on,75,56,0
1,note_on,75,0,120
1,note_on,73,56,0
1,note_on,73,0,120
1,note_on,72,0,0
1,note_on,68,0,0
1,note_on,68,45,0
1,note_on,72,51,0
1,note_on,72,0,480
1,note_on,68,0,0
1,note_on,66,49,0
1,note_on,72,55,0
1,note_on,72,0,480
1,note_on,66,0,0
1,note_on,72,57,0
1,note_on,65,51,0
1,note_on,73,60,120
1,note_on,72,0,12
1,note_on,75,62,108
1,note_on,73,0,12
1,note_on,73,58,108
1,note_on,75,0,12
1,note_on,73,0,108
1,note_on,65,0,0
1,note_on,65,52,0
1,note_on,73,58,0
1,note_on,73,0,240
1,note_on,65,0,0
1,note_on,63,46,0
1,note_on,72,52,0
1,note_on,72,0,120
1,note_on,63,0,0
1,note_on,61,45,0
1,note_on,70,50,0
1,note_on,70,0,120
1,note_on,61,0,0
1,note_on,60,43,0
1,note_on,68,48,0
1,note_on,68,0,240
1,note_on,60,0,0
1,note_on,60,43,0
1,note_on,68,48,0
1,note_on,68,0,240
1,note_on,60,0,0
1,note_on,60,38,0
1,note_on,68,43,0
1,note_on,61,39,120
1,note_on,70,44,0
1,note_on,68,0,12
1,note_on,60,0,0
1,note_on,63,40,108
1,note_on,72,45,0
1,note_on,61,0,12
1,note_on,70,0,0
1,note_on,61,39,108
1,note_on,70,44,0
1,note_on,63,0,12
1,note_on,72,0,0
1,note_on,60,38,108
1,note_on,68,43,0
1,note_on,61,0,12
1,note_on,70,0,0
1,note_on,60,0,468
1,note_on,68,0,0
1,note_on,60,38,0
1,note_on,68,43,0
1,note_on,68,0,480
1,note_on,60,0,0
1,note_on,76,64,0
1,note_on,72,57,0
1,note_on,70,57,0
1,note_on,67,57,0
1,note_on,67,0,480
1,note_on,76,0,0
1,note_on,72,0,0
1,note_on,70,0,0
1,note_on,76,64,0
1,note_on,72,57,0
1,note_on,70,57,0
1,note_on,67,57,0
1,note_on,67,0,420
1,note_on,76,0,0
1,note_on,72,0,0
1,note_on,70,0,0
1,note_on,77,56,0
1,note_on,77,0,60
1,note_on,68,54,0
1,note_on,72,54,0
1,note_on,80,69,0
1,note_on,80,0,240
1,note_on,72,0,0
1,note_on,68,0,0
1,note_on,68,48,0
1,note_on,72,48,0
1,note_on,80,66,0
1,note_on,80,0,120
1,note_on,79,67,0
1,note_on,79,0,120
1,note_on,77,67,0
1,note_on,77,0,240
1,note_on,75,63,0
1,note_on,75,0,120
1,note_on,73,63,0
1,note_on,73,0,120
1,note_on,72,0,0
1,note_on,68,0,0
1,note_on,67,57,0
1,note_on,70,57,0
1,note_on,72,64,0
1,note_on,72,0,480
1,note_on,70,0,0
1,note_on,67,0,0
1,note_on,67,57,0
1,note_on,70,57,0
1,note_on,72,57,0
1,note_on,76,64,0
1,note_on,76,0,420
1,note_on,67,0,0
1,note_on,70,0,0
1,note_on,72,0,0
1,note_on,77,57,0
1,note_on,77,0,60
1,note_on,68,55,0
1,note_on,72,55,0
1,note_on,80,73,0
1,note_on,80,0,240
1,note_on,72,0,0
1,note_on,68,0,0
1,note_on,68,46,0
1,note_on,72,46,0
1,note_on,80,62,0
1,note_on,80,0,120
1,note_on,79,62,0
1,note_on,79,0,120
1,note_on,77,62,0
1,note_on,77,0,240
1,note_on,75,56,0
1,note_on,75,0,120
1,note_on,73,56,0
1,note_on,73,0,120
1,note_on,72,0,0
1,note_on,68,0,0
1,note_on,68,45,0
1,note_on,72,51,0
1,note_on,72,0,480
1,note_on,68,0,0
1,note_on,66,49,0
1,note_on,72,55,0
1,note_on,72,0,480
1,note_on,66,0,0
1,note_on,72,57,0
1,note_on,65,51,0
1,note_on,73,60,120
1,note_on,72,0,12
1,note_on,75,62,108
1,note_on,73,0,12
1,note_on,73,58,108
1,note_on,75,0,12
1,note_on,73,0,108
1,note_on,65,0,0
1,note_on,65,52,0
1,note_on,73,58,0
1,note_on,73,0,240
1,note_on,65,0,0
1,note_on,63,46,0
1,note_on,72,52,0
1,note_on,61,45,120
1,note_on,70,50,0
1,note_on,72,0,12
1,note_on,63,0,0
1,note_on,60,43,108
1,note_on,68,48,0
1,note_on,61,0,12
1,note_on,70,0,0
1,note_on,60,0,228
1,note_on,68,0,0
1,note_on,60,43,0
1,note_on,68,48,0
1,note_on,68,0,240
1,note_on,60,0,0
1,note_on,60,38,0
1,note_on,68,43,0
1,note_on,61,39,120
1,note_on,70,44,0
1,note_on,68,0,12
1,note_on,60,0,0
1,note_on,63,40,108
1,note_on,72,45,0
1,note_on,61,0,12
1,note_on,70,0,0
1,note_on,61,39,108
1,note_on,70,44,0
1,note_on,63,0,12
1,note_on,72,0,0
1,note_on,60,38,108
1,note_on,68,43,0
1,note_on,61,0,12
1,note_on,70,0,0
1,note_on,60,0,468
1,note_on,68,0,0
1,note_on,60,38,0
1,note_on,68,43,0
1,note_on,68,0,420
1,note_on,60,0,0
1,note_on,70,48,0
1,note_on,70,0,60
1,note_on,68,46,0
1,note_on,68,0,120
1,note_on,68,40,120
1,note_on,68,0,120
1,note_on,70,40,0
1,note_on,70,0,120
1,note_on,68,45,0
1,note_on,68,0,120
1,note_on,67,43,120
1,note_on,67,0,120
1,note_on,68,39,0
1,note_on,68,0,60
1,note_on,70,39,0
1,note_on,70,0,60
1,note_on,68,40,0
1,note_on,72,45,0
1,note_on,72,0,360
1,note_on,68,0,0
1,note_on,68,39,0
1,note_on,68,0,60
1,note_on,70,39,0
1,note_on,70,0,60
1,note_on,68,40,0
1,note_on,72,45,0
1,note_on,72,0,420
1,note_on,68,0,0
1,note_on,70,39,0
1,note_on,70,0,60
1,note_on,68,46,0
1,note_on,68,0,120
1,note_on,68,42,120
1,note_on,68,0,120
1,note_on,70,42,0
1,note_on,70,0,120
1,note_on,68,45,0
1,note_on,68,0,120
1,note_on,67,37,120
1,note_on,72,42,0
1,note_on,72,0,120
1,note_on,67,0,0
1,note_on,72,39,60
1,note_on,72,0,60
1,note_on,77,49,0
1,note_on,68,44,0
1,note_on,68,0,420
1,note_on,77,0,0
1,note_on,72,39,0
1,note_on,72,0,60
1,note_on,68,43,0
1,note_on,77,48,0
1,note_on,78,34,420
1,note_on,78,0,60
1,note_on,77,0,0
1,note_on,68,0,0
1,note_on,68,38,0
1,note_on,77,43,0
1,note_on,77,0,240
1,note_on,68,0,0
1,note_on,68,33,0
1,note_on,77,37,0
1,note_on,77,0,120
1,note_on,78,37,0
1,note_on,78,0,120
1,note_on,68,0,0
1,note_on,69,35,0
1,note_on,77,39,0
1,note_on,77,0,240
1,note_on,69,0,0
1,note_on,69,33,0
1,note_on,77,37,0
1,note_on,77,0,240
1,note_on,69,0,0
1,note_on,70,35,0
1,note_on,77,39,0
1,note_on,77,0,240
1,note_on,82,34,0
1,note_on,82,0,120
1,note_on,70,0,0
1,note_on,68,29,120
1,note_on,77,33,0
1,note_on,77,0,480
1,note_on,68,0,0
1,note_on,68,29,0
1,note_on,72,33,0
1,note_on,67,27,120
1,note_on,70,31,0
1,note_on,72,0,12
1,note_on,68,0,0
1,note_on,65,27,108
1,note_on,68,31,0
1,note_on,67,0,12
1,note_on,70,0,0
1,note_on,67,27,108
1,note_on,70,31,0
1,note_on,65,0,12
1,note_on,68,0,0
1,note_on,67,0,108
1,note_on,70,0,0
1,note_on,68,29,0
1,note_on,72,33,0
1,note_on,72,0,120
1,note_on,73,31,0
1,note_on,73,0,120
1,note_on,68,0,0
1,note_on,70,27,0
1,note_on,67,27,0
1,note_on,72,31,0
1,note_on,72,0,120
1,note_on,76,31,0
1,note_on,76,0,120
1,note_on,67,0,0
1,note_on,70,0,0
1,note_on,77,34,0
1,note_on,72,30,0
1,note_on,68,30,0
1,note_on,68,0,480
1,note_on,72,0,0
1,note_on,77,0,0
1,note_on,68,30,0
1,note_on,72,30,0
1,note_on,77,34,0
1,note_on,77,0,400
1,note_on,72,0,0
1,note_on,68,0,0
1,note_on,80,34,20
1,note_on,80,0,60
1,note_on,76,35,0
1,note_on,79,39,0
1,note_on,79,0,240
1,note_on,76,0,0
1,note_on,76,33,0
1,note_on,79,37,0
1,note_on,79,0,120
1,note_on,80,37,0
1,note_on,80,0,120
1,note_on,79,39,0
1,note_on,79,0,240
1,note_on,76,0,0
1,note_on,79,40,0
1,note_on,76,36,0
1,note_on,76,0,240
1,note_on,79,0,0
1,note_on,77,40,0
1,note_on,82,45,0
1,note_on,82,0,240
1,note_on,80,43,0
1,note_on,80,0,480
1,note_on,77,0,0
1,note_on,79,39,0
1,note_on,79,0,120
1,note_on,77,39,0
1,note_on,77,0,60
1,note_on,73,34,0
1,note_on,73,0,60
1,note_on,68,38,0
1,note_on,72,43,0
1,note_on,72,0,120
1,note_on,68,0,0
1,note_on,68,35,120
1,note_on,72,39,0
1,note_on,72,0,120
1,note_on,73,39,0
1,note_on,73,0,120
1,note_on,72,39,0
1,note_on,72,0,240
1,note_on,68,0,0
1,note_on,67,32,0
1,note_on,70,32,0
1,note_on,72,32,0
1,note_on,76,36,0
1,note_on,76,0,120
1,note_on,67,0,0
1,note_on,70,0,0
1,note_on,72,0,0
1,note_on,68,37,120
1,note_on,72,37,0
1,note_on,77,42,0
1,note_on,77,0,480
1,note_on,72,0,0
1,note_on,68,0,0
1,note_on,68,37,0
1,note_on,72,37,0
1,note_on,77,42,0
1,note_on,77,0,420
1,note_on,72,0,0
1,note_on,68,0,0
1,note_on,80,30,0
1,note_on,80,0,60
1,note_on,76,30,0
1,note_on,79,34,0
1,note_on,79,0,240
1,note_on,76,0,0
1,note_on,76,28,0
1,note_on,79,32,0
1,note_on,79,0,120
1,note_on,80,32,0
1,note_on,80,0,120
1,note_on,79,34,0
1,note_on,79,0,240
1,note_on,76,0,0
1,note_on,79,36,0
1,note_on,76,32,0
1,note_on,76,0,240
1,note_on,79,0,0
1,note_on,77,34,0
1,note_on,82,38,0
1,note_on,82,0,240
1,note_on,80,36,0
1,note_on,80,0,480
1,note_on,77,0,0
1,note_on,79,34,0
1,note_on,79,0,120
1,note_on,77,34,0
1,note_on,77,0,60
1,note_on,74,31,0
1,note_on,74,0,60
1,note_on,69,34,0
1,note_on,72,38,0
1,note_on,72,0,120
1,note_on,69,0,0
1,note_on,69,30,120
1,note_on,72,34,0
1,note_on,72,0,120
1,note_on,74,34,0
1,note_on,74,0,120
1,note_on,72,34,0
1,note_on,72,0,240
1,note_on,69,0,0
1,note_on,70,30,0
1,note_on,74,34,0
1,note_on,74,0,180
1,note_on,70,0,0
1,note_on,74,31,0
1,note_on,74,0,60
1,note_on,69,34,0
1,note_on,72,38,0
1,note_on,72,0,120
1,note_on,69,0,0
1,note_on,69,30,120
1,note_on,72,34,0
1,note_on,72,0,120
1,note_on,74,34,0
1,note_on,74,0,120
1,note_on,72,34,0
1,note_on,72,0,240
1,note_on,69,0,0
1,note_on,70,30,0
1,note_on,74,34,0
1,note_on,74,0,180
1,note_on,70,0,0
1,note_on,74,31,0
1,note_on,74,0,60
1,note_on,69,34,0
1,note_on,72,38,0
1,note_on,72,0,120
1,note_on,69,0,0
1,note_on,69,30,120
1,note_on,72,34,0
1,note_on,72,0,120
1,note_on,74,34,0
1,note_on,74,0,120
1,note_on,72,34,0
1,note_on,72,0,240
1,note_on,69,0,0
1,note_on,70,34,0
1,note_on,76,38,0
1,note_on,76,0,240
1,note_on,70,0,0
1,note_on,69,37,0
1,note_on,77,42,0
1,note_on,77,0,480
1,note_on,69,0,0
1,note_on,69,37,0
1,note_on,77,42,0
1,note_on,77,0,420
1,note_on,69,0,0
1,note_on,74,38,0
1,note_on,74,0,60
1,note_on,69,37,0
1,note_on,72,42,0
1,note_on,72,0,240
1,note_on,69,0,0
1,note_on,69,35,0
1,note_on,72,39,0
1,note_on,72,0,120
1,note_on,74,39,0
1,note_on,74,0,120
1,note_on,72,42,0
1,note_on,72,0,240
1,note_on,69,0,0
1,note_on,65,32,0
1,note_on,69,36,0
1,note_on,69,0,240
1,note_on,65,0,0
1,note_on,64,35,0
1,note_on,70,39,0
1,note_on,70,0,480
1,note_on,64,0,0
1,note_on,64,35,0
1,note_on,70,39,0
1,note_on,70,0,420
1,note_on,64,0,0
1,note_on,72,37,0
1,note_on,72,0,60
1,note_on,64,37,0
1,note_on,70,42,0
1,note_on,70,0,240
1,note_on,64,0,0
1,note_on,70,38,0
1,note_on,64,34,0
1,note_on,70,0,120
1,note_on,72,39,0
1,note_on,72,0,120
1,note_on,70,42,0
1,note_on,70,0,240
1,note_on,64,0,0
1,note_on,58,33,0
1,note_on,64,37,0
1,note_on,64,0,240
1,note_on,58,0,0
1,note_on,57,27,0
1,note_on,65,31,0
1,note_on,65,0,480
1,note_on,57,0,0
1,note_on,57,27,0
1,note_on,65,31,0
1,note_on,65,0,420
1,note_on,57,0,0
1,note_on,74,30,0
1,note_on,74,0,60
1,note_on,69,29,0
1,note_on,72,33,0
1,note_on,72,0,240
1,note_on,69,0,0
1,note_on,69,27,0
1,note_on,72,31,0
1,note_on,72,0,120
1,note_on,74,31,0
1,note_on,74,0,120
1,note_on,72,33,0
1,note_on,72,0,240
1,note_on,69,0,0
1,note_on,63,25,0
1,note_on,69,28,0
1,note_on,69,0,240
1,note_on,63,0,0
1,note_on,64,27,0
1,note_on,70,31,0
1,note_on,70,0,480
1,note_on,64,0,0
1,note_on,64,27,0
1,note_on,70,31,0
1,note_on,70,0,420
1,note_on,64,0,0
1,note_on,72,28,0
1,note_on,72,0,60
1,note_on,64,29,0
1,note_on,70,33,0
1,note_on,70,0,240
1,note_on,64,0,0
1,note_on,70,30,0
1,note_on,64,27,0
1,note_on,70,0,120
1,note_on,72,31,0
1,note_on,72,0,120
1,note_on,70,33,0
1,note_on,70,0,240
1,note_on,64,0,0
1,note_on,58,23,0
1,note_on,64,26,0
1,note_on,64,0,240
1,note_on,58,0,0
1,note_on,57,21,0
1,note_on,65,24,0
1,note_on,65,0,480
1,note_on,57,0,0
1,note_on,57,18,0
1,note_on,65,21,0
1,note_on,65,0,480
1,note_on,57,0,0
1,note_on,57,18,0
1,note_on,65,21,0
1,note_on,65,0,480
1,note_on,57,0,0
1,note_on,57,17,0
1,note_on,65,19,0
1,note_on,65,0,480
1,note_on,57,0,0
1,note_on,57,16,0
1,note_on,65,18,0
1,note_on,65,0,960
1,note_on,57,0,0
2,note_on,53,34,0
2,note_on,53,0,90
2,note_on,65,27,150
2,note_on,60,22,0
2,note_on,60,0,90
2,note_on,65,0,0
2,note_on,53,34,150
2,note_on,53,0,90
2,note_on,65,27,150
2,note_on,60,22,0
2,note_on,60,0,90
2,note_on,65,0,0
2,note_on,53,34,150
2,note_on,53,0,90
2,note_on,65,27,150
2,note_on,60,22,0
2,note_on,60,0,90
2,note_on,65,0,0
2,note_on,53,34,150
2,note_on,53,0,90
2,note_on,65,25,150
2,note_on,60,20,0
2,note_on,60,0,90
2,note_on,65,0,0
2,note_on,53,34,150
2,note_on,53,0,90
2,note_on,65,27,150
2,note_on,60,23,0
2,note_on,60,0,90
2,note_on,65,0,0
2,note_on,53,34,150
2,note_on,53,0,90
2,note_on,64,27,150
2,note_on,60,22,0
2,note_on,60,0,90
2,note_on,64,0,0
2,note_on,53,37,150
2,note_on,53,0,90
2,note_on,65,27,150
2,note_on,60,23,0
2,note_on,60,0,90
2,note_on,65,0,0
2,note_on,53,37,150
2,note_on,53,0,90
2,note_on,65,28,150
2,note_on,60,24,0
2,note_on,60,0,90
2,note_on,65,0,0
2,note_on,53,34,150
2,note_on,53,0,90
2,note_on,65,28,150
2,note_on,60,24,0
2,note_on,60,0,90
2,note_on,65,0,0
2,note_on,53,34,150
2,note_on,53,0,90
2,note_on,64,28,150
2,note_on,60,24,0
2,note_on,60,0,90
2,note_on,64,0,0
2,note_on,53,38,150
2,note_on,53,0,90
2,note_on,65,29,150
2,note_on,60,25,0
2,note_on,60,0,90
2,note_on,65,0,0
2,note_on,53,38,150
2,note_on,53,0,90
2,note_on,65,29,150
2,note_on,60,25,0
2,note_on,60,0,90
2,note_on,65,0,0
2,note_on,49,32,150
2,note_on,49,0,120
2,note_on,65,27,120
2,note_on,61,22,0
2,note_on,61,0,120
2,note_on,65,0,0
2,note_on,48,32,120
2,note_on,48,0,120
2,note_on,65,27,120
2,note_on,63,22,0
2,note_on,60,22,0
2,note_on,60,0,120
2,note_on,63,0,0
2,note_on,65,0,0
2,note_on,46,32,120
2,note_on,46,0,183
2,note_on,65,25,0
2,note_on,61,20,0
2,note_on,58,20,0
2,note_on,58,0,120
2,note_on,61,0,0
2,note_on,65,0,0
2,note_on,53,30,120
2,note_on,53,0,134
2,note_on,65,25,0
2,note_on,60,20,0
2,note_on,60,0,240
2,note_on,65,0,0
2,note_on,48,30,0
2,note_on,48,0,90
2,note_on,65,27,150
2,note_on,60,22,0
2,note_on,60,0,90
2,note_on,65,0,0
2,note_on,48,29,150
2,note_on,48,0,90
2,note_on,64,25,150
2,note_on,60,20,0
2,note_on,60,0,90
2,note_on,64,0,0
2,note_on,53,32,150
2,note_on,53,0,39
2,note_on,65,27,120
2,note_on,60,22,0
2,note_on,60,0,120
2,note_on,65,0,0
2,note_on,53,29,120
2,note_on,53,0,120
2,note_on,65,27,120
2,note_on,60,23,0
2,note_on,60,0,120
2,note_on,65,0,0
2,note_on,53,34,120
2,note_on,53,0,86
2,note_on,65,27,150
2,note_on,60,23,0
2,note_on,60,0,90
2,note_on,65,0,0
2,note_on,53,34,150
2,note_on,53,0,90
2,note_on,64,27,150
2,note_on,60,22,0
2,note_on,60,0,90
2,note_on,64,0,0
2,note_on,53,36,150
2,note_on,53,0,90
2,note_on,65,29,150
2,note_on,60,25,0
2,note_on,60,0,90
2,note_on,65,0,0
2,note_on,53,32,150
2,note_on,53,0,90
2,note_on,65,28,150
2,note_on,60,24,0
2,note_on,60,0,90
2,note_on,65,0,0
2,note_on,53,34,150
2,note_on,53,0,90
2,note_on,65,28,150
2,note_on,60,24,0
2,note_on,60,0,90
2,note_on,65,0,0
2,note_on,53,32,150
2,note_on,53,0,90
2,note_on,64,28,150
2,note_on,60,24,0
2,note_on,60,0,90
2,note_on,64,0,0
2,note_on,53,38,150
2,note_on,53,0,90
2,note_on,65,29,150
2,note_on,60,25,0
2,note_on,60,0,90
2,note_on,65,0,0
2,note_on,53,38,150
2,note_on,53,0,90
2,note_on,65,29,150
2,note_on,60,25,0
2,note_on,60,0,90
2,note_on,65,0,0
2,note_on,49,32,150
2,note_on,49,0,120
2,note_on,65,27,120
2,note_on,61,22,0
2,note_on,61,0,120
2,note_on,65,0,0
2,note_on,48,32,120
2,note_on,48,0,120
2,note_on,65,27,120
2,note_on,63,22,0
2,note_on,60,22,0
2,note_on,60,0,120
2,note_on,63,0,0
2,note_on,65,0,0
2,note_on,46,32,120
2,note_on,46,0,190
2,note_on,65,25,0
2,note_on,61,20,0
2,note_on,58,20,0
2,note_on,58,0,120
2,note_on,61,0,0
2,note_on,65,0,0
2,note_on,53,29,120
2,note_on,53,0,148
2,note_on,65,25,0
2,note_on,60,20,0
2,note_on,60,0,240
2,note_on,65,0,0
2,note_on,48,30,0
2,note_on,48,0,90
2,note_on,65,27,150
2,note_on,60,22,0
2,note_on,60,0,90
2,note_on,65,0,0
2,note_on,48,29,150
2,note_on,48,0,90
2,note_on,64,25,150
2,note_on,60,20,0
2,note_on,60,0,90
2,note_on,64,0,0
2,note_on,53,32,150
2,note_on,53,0,49
2,note_on,65,27,120
2,note_on,60,22,0
2,note_on,60,0,120
2,note_on,65,0,0
2,note_on,53,29,120
2,note_on,53,0,120
2,note_on,65,27,120
2,note_on,60,23,0
2,note_on,60,0,120
2,note_on,65,0,0
2,note_on,56,30,0
2,note_on,56,0,120
2,note_on,60,23,120
2,note_on,63,23,0
2,note_on,68,27,0
2,note_on,68,0,120
2,note_on,63,0,0
2,note_on,60,0,0
2,note_on,56,29,120
2,note_on,56,0,120
2,note_on,60,23,120
2,note_on,63,23,0
2,note_on,68,27,0
2,note_on,68,0,120
2,note_on,63,0,0
2,note_on,60,0,0
2,note_on,56,32,120
2,note_on,56,0,120
2,note_on,67,27,120
2,note_on,63,23,0
2,note_on,58,23,0
2,note_on,58,0,120
2,note_on,63,0,0
2,note_on,67,0,0
2,note_on,56,28,120
2,note_on,56,0,120
2,note_on,67,27,120
2,note_on,63,22,0
2,note_on,58,22,0
2,note_on,58,0,120
2,note_on,63,0,0
2,note_on,67,0,0
2,note_on,56,29,120
2,note_on,56,0,120
2,note_on,67,27,120
2,note_on,63,22,0
2,note_on,61,22,0
2,note_on,61,0,120
2,note_on,63,0,0
2,note_on,67,0,0
2,note_on,56,29,120
2,note_on,56,0,120
2,note_on,67,27,120
2,note_on,63,22,0
2,note_on,61,22,0
2,note_on,61,0,120
2,note_on,63,0,0
2,note_on,67,0,0
2,note_on,56,32,120
2,note_on,56,0,120
2,note_on,68,27,120
2,note_on,63,23,0
2,note_on,60,23,0
2,note_on,60,0,120
2,note_on,63,0,0
2,note_on,68,0,0
2,note_on,56,29,120
2,note_on,56,0,120
2,note_on,68,27,120
2,note_on,63,23,0
2,note_on,60,23,0
2,note_on,60,0,120
2,note_on,63,0,0
2,note_on,68,0,0
2,note_on,56,34,120
2,note_on,56,0,208
2,note_on,68,28,0
2,note_on,60,24,0
2,note_on,63,24,0
2,note_on,63,0,240
2,note_on,60,0,0
2,note_on,68,0,0
2,note_on,56,32,0
2,note_on,56,0,183
2,note_on,68,29,0
2,note_on,63,25,0
2,note_on,60,25,0
2,note_on,60,0,240
2,note_on,63,0,0
2,note_on,68,0,0
2,note_on,49,29,0
2,note_on,49,0,75
2,note_on,65,27,150
2,note_on,61,23,0
2,note_on,61,0,90
2,note_on,65,0,0
2,note_on,49,30,150
2,note_on,49,0,90
2,note_on,65,27,150
2,note_on,61,23,0
2,note_on,61,0,90
2,note_on,65,0,0
2,note_on,51,29,150
2,note_on,51,0,90
2,note_on,63,27,150
2,note_on,61,22,0
2,note_on,58,22,0
2,note_on,58,0,90
2,note_on,61,0,0
2,note_on,63,0,0
2,note_on,51,29,150
2,note_on,51,0,90
2,note_on,61,22,150
2,note_on,63,27,0
2,note_on,58,22,0
2,note_on,58,0,90
2,note_on,63,0,0
2,note_on,61,0,0
2,note_on,56,29,150
2,note_on,56,0,169
2,note_on,63,25,0
2,note_on,60,20,0
2,note_on,60,0,240
2,note_on,63,0,0
2,note_on,56,28,0
2,note_on,56,0,56
2,note_on,63,25,0
2,note_on,60,20,0
2,note_on,60,0,240
2,note_on,63,0,0
2,note_on,56,30,0
2,note_on,56,0,92
2,note_on,60,23,120
2,note_on,63,23,0
2,note_on,68,27,0
2,note_on,68,0,120
2,note_on,63,0,0
2,note_on,60,0,0
2,note_on,56,29,120
2,note_on,56,0,120
2,note_on,60,23,120
2,note_on,63,23,0
2,note_on,68,27,0
2,note_on,68,0,120
2,note_on,63,0,0
2,note_on,60,0,0
2,note_on,56,32,120
2,note_on,56,0,120
2,note_on,67,27,120
2,note_on,63,23,0
2,note_on,58,23,0
2,note_on,58,0,120
2,note_on,63,0,0
2,note_on,67,0,0
2,note_on,56,28,120
2,note_on,56,0,120
2,note_on,67,27,120
2,note_on,63,22,0
2,note_on,58,22,0
2,note_on,58,0,120
2,note_on,63,0,0
2,note_on,67,0,0
2,note_on,56,29,120
2,note_on,56,0,120
2,note_on,67,27,120
2,note_on,63,22,0
2,note_on,61,22,0
2,note_on,61,0,120
2,note_on,63,0,0
2,note_on,67,0,0
2,note_on,56,29,120
2,note_on,56,0,120
2,note_on,67,27,120
2,note_on,63,22,0
2,note_on,61,22,0
2,note_on,61,0,120
2,note_on,63,0,0
2,note_on,67,0,0
2,note_on,56,32,120
2,note_on,56,0,120
2,note_on,68,27,120
2,note_on,63,23,0
2,note_on,60,23,0
2,note_on,60,0,120
2,note_on,63,0,0
2,note_on,68,0,0
2,note_on,56,29,120
2,note_on,56,0,120
2,note_on,68,27,120
2,note_on,63,23,0
2,note_on,60,23,0
2,note_on,60,0,120
2,note_on,63,0,0
2,note_on,68,0,0
2,note_on,56,34,120
2,note_on,56,0,233
2,note_on,68,28,0
2,note_on,60,24,0
2,note_on,63,24,0
2,note_on,63,0,240
2,note_on,60,0,0
2,note_on,68,0,0
2,note_on,56,32,0
2,note_on,56,0,197
2,note_on,68,29,0
2,note_on,63,25,0
2,note_on,60,25,0
2,note_on,60,0,240
2,note_on,63,0,0
2,note_on,68,0,0
2,note_on,49,29,0
2,note_on,49,0,76
2,note_on,65,27,150
2,note_on,61,23,0
2,note_on,61,0,90
2,note_on,65,0,0
2,note_on,49,30,150
2,note_on,49,0,90
2,note_on,65,27,150
2,note_on,61,23,0
2,note_on,61,0,90
2,note_on,65,0,0
2,note_on,51,29,150
2,note_on,51,0,90
2,note_on,63,27,150
2,note_on,61,22,0
2,note_on,58,22,0
2,note_on,58,0,90
2,note_on,61,0,0
2,note_on,63,0,0
2,note_on,51,29,150
2,note_on,51,0,90
2,note_on,61,22,150
2,note_on,63,27,0
2,note_on,58,22,0
2,note_on,58,0,90
2,note_on,63,0,0
2,note_on,61,0,0
2,note_on,56,29,150
2,note_on,56,0,141
2,note_on,63,25,0
2,note_on,60,20,0
2,note_on,60,0,240
2,note_on,63,0,0
2,note_on,56,28,0
2,note_on,56,0,70
2,note_on,63,25,0
2,note_on,60,20,0
2,note_on,60,0,240
2,note_on,63,0,0
2,note_on,48,51,0
2,note_on,48,0,91
2,note_on,64,45,120
2,note_on,60,38,0
2,note_on,60,0,120
2,note_on,64,0,0
2,note_on,48,51,120
2,note_on,48,0,120
2,note_on,64,45,120
2,note_on,60,38,0
2,note_on,60,0,120
2,note_on,64,0,0
2,note_on,48,46,120
2,note_on,48,0,120
2,note_on,65,37,120
2,note_on,60,31,0
2,note_on,60,0,120
2,note_on,65,0,0
2,note_on,48,46,120
2,note_on,48,0,120
2,note_on,65,37,120
2,note_on,60,31,0
2,note_on,60,0,120
2,note_on,65,0,0
2,note_on,48,52,120
2,note_on,48,0,120
2,note_on,64,48,120
2,note_on,60,40,0
2,note_on,60,0,120
2,note_on,64,0,0
2,note_on,48,52,120
2,note_on,48,0,120
2,note_on,64,48,120
2,note_on,60,40,0
2,note_on,60,0,120
2,note_on,64,0,0
2,note_on,48,45,120
2,note_on,48,0,120
2,note_on,65,38,120
2,note_on,60,32,0
2,note_on,60,0,120
2,note_on,65,0,0
2,note_on,53,45,120
2,note_on,53,0,120
2,note_on,65,38,120
2,note_on,60,32,0
2,note_on,60,0,120
2,note_on,65,0,0
2,note_on,44,46,120
2,note_on,44,0,120
2,note_on,60,40,120
2,note_on,56,34,0
2,note_on,56,0,120
2,note_on,60,0,0
2,note_on,45,45,120
2,note_on,45,0,120
2,note_on,54,33,120
2,note_on,60,39,0
2,note_on,60,0,120
2,note_on,54,0,0
2,note_on,46,38,120
2,note_on,46,0,120
2,note_on,58,33,120
2,note_on,53,27,0
2,note_on,53,0,120
2,note_on,58,0,0
2,note_on,37,38,120
2,note_on,37,0,120
2,note_on,49,27,120
2,note_on,53,33,0
2,note_on,53,0,120
2,note_on,49,0,0
2,note_on,39,29,120
2,note_on,39,0,120
2,note_on,56,25,120
2,note_on,51,20,0
2,note_on,51,0,120
2,note_on,56,0,0
2,note_on,39,29,120
2,note_on,39,0,120
2,note_on,55,25,120
2,note_on,51,20,0
2,note_on,51,0,120
2,note_on,55,0,0
2,note_on,44,27,120
2,note_on,44,0,169
2,note_on,56,21,0
2,note_on,51,18,0
2,note_on,51,0,240
2,note_on,56,0,0
2,note_on,44,27,0
2,note_on,44,0,99
2,note_on,56,21,0
2,note_on,51,18,0
2,note_on,51,0,240
2,note_on,56,0,0
2,note_on,48,51,0
2,note_on,48,0,120
2,note_on,64,45,120
2,note_on,60,38,0
2,note_on,60,0,120
2,note_on,64,0,0
2,note_on,48,51,120
2,note_on,48,0,120
2,note_on,64,45,120
2,note_on,60,38,0
2,note_on,60,0,120
2,note_on,64,0,0
2,note_on,48,46,120
2,note_on,48,0,120
2,note_on,65,37,120
2,note_on,60,31,0
2,note_on,60,0,120
2,note_on,65,0,0
2,note_on,48,46,120
2,note_on,48,0,120
2,note_on,65,37,120
2,note_on,60,31,0
2,note_on,60,0,120
2,note_on,65,0,0
2,note_on,48,52,120
2,note_on,48,0,120
2,note_on,64,48,120
2,note_on,60,40,0
2,note_on,60,0,120
2,note_on,64,0,0
2,note_on,48,52,120
2,note_on,48,0,120
2,note_on,64,48,120
2,note_on,60,40,0
2,note_on,60,0,120
2,note_on,64,0,0
2,note_on,48,45,120
2,note_on,48,0,120
2,note_on,65,38,120
2,note_on,60,32,0
2,note_on,60,0,120
2,note_on,65,0,0
2,note_on,53,45,120
2,note_on,53,0,120
2,note_on,65,38,120
2,note_on,60,32,0
2,note_on,60,0,120
2,note_on,65,0,0
2,note_on,44,46,120
2,note_on,44,0,120
2,note_on,60,40,120
2,note_on,56,34,0
2,note_on,56,0,120
2,note_on,60,0,0
2,note_on,45,45,120
2,note_on,45,0,120
2,note_on,54,33,120
2,note_on,60,39,0
2,note_on,60,0,120
2,note_on,54,0,0
2,note_on,46,38,120
2,note_on,46,0,120
2,note_on,58,33,120
2,note_on,53,27,0
2,note_on,53,0,120
2,note_on,58,0,0
2,note_on,37,38,120
2,note_on,37,0,120
2,note_on,49,27,120
2,note_on,53,33,0
2,note_on,53,0,120
2,note_on,49,0,0
2,note_on,39,29,120
2,note_on,39,0,120
2,note_on,56,25,120
2,note_on,51,20,0
2,note_on,51,0,120
2,note_on,56,0,0
2,note_on,39,29,120
2,note_on,39,0,120
2,note_on,55,25,120
2,note_on,51,20,0
2,note_on,51,0,120
2,note_on,55,0,0
2,note_on,44,27,120
2,note_on,44,0,190
2,note_on,56,21,0
2,note_on,51,18,0
2,note_on,51,0,240
2,note_on,56,0,0
2,note_on,44,27,0
2,note_on,44,0,173
2,note_on,56,21,0
2,note_on,51,18,0
2,note_on,51,0,180
2,note_on,56,0,0
2,note_on,53,27,60
2,note_on,53,0,65
2,note_on,65,22,150
2,note_on,60,18,0
2,note_on,60,0,90
2,note_on,65,0,0
2,note_on,53,27,150
2,note_on,53,0,90
2,note_on,64,21,150
2,note_on,60,18,0
2,note_on,60,0,90
2,note_on,64,0,0
2,note_on,53,29,150
2,note_on,53,0,90
2,note_on,65,22,150
2,note_on,60,18,0
2,note_on,60,0,90
2,note_on,65,0,0
2,note_on,53,29,150
2,note_on,53,0,90
2,note_on,65,23,150
2,note_on,60,19,0
2,note_on,60,0,90
2,note_on,65,0,0
2,note_on,53,27,150
2,note_on,53,0,90
2,note_on,65,23,150
2,note_on,60,19,0
2,note_on,60,0,90
2,note_on,65,0,0
2,note_on,53,27,150
2,note_on,53,0,90
2,note_on,64,23,150
2,note_on,60,19,0
2,note_on,60,0,90
2,note_on,64,0,0
2,note_on,53,30,150
2,note_on,53,0,90
2,note_on,65,24,150
2,note_on,60,19,0
2,note_on,60,0,90
2,note_on,65,0,0
2,note_on,53,30,150
2,note_on,53,0,90
2,note_on,65,24,150
2,note_on,60,19,0
2,note_on,60,0,90
2,note_on,65,0,0
2,note_on,49,27,150
2,note_on,49,0,183
2,note_on,65,21,0
2,note_on,61,18,0
2,note_on,61,0,240
2,note_on,65,0,0
2,note_on,48,27,0
2,note_on,48,0,165
2,note_on,65,21,0
2,note_on,63,18,0
2,note_on,60,18,0
2,note_on,60,0,240
2,note_on,63,0,0
2,note_on,65,0,0
2,note_on,46,27,0
2,note_on,46,0,162
2,note_on,65,19,0
2,note_on,61,16,0
2,note_on,58,16,0
2,note_on,58,0,240
2,note_on,61,0,0
2,note_on,65,0,0
2,note_on,53,25,0
2,note_on,53,0,141
2,note_on,65,19,0
2,note_on,60,16,0
2,note_on,60,0,240
2,note_on,65,0,0
2,note_on,48,25,0
2,note_on,48,0,105
2,note_on,65,21,120
2,note_on,60,18,0
2,note_on,60,0,120
2,note_on,65,0,0
2,note_on,48,24,120
2,note_on,48,0,120
2,note_on,64,19,120
2,note_on,60,16,0
2,note_on,60,0,120
2,note_on,64,0,0
2,note_on,53,27,120
2,note_on,53,0,120
2,note_on,65,21,120
2,note_on,60,18,0
2,note_on,60,0,120
2,note_on,65,0,0
2,note_on,53,24,120
2,note_on,53,0,120
2,note_on,65,22,120
2,note_on,60,18,0
2,note_on,60,0,120
2,note_on,65,0,0
2,note_on,46,24,120
2,note_on,46,0,120
2,note_on,61,21,120
2,note_on,58,18,0
2,note_on,58,0,120
2,note_on,61,0,0
2,note_on,46,24,120
2,note_on,46,0,120
2,note_on,61,25,120
2,note_on,58,20,0
2,note_on,58,0,120
2,note_on,61,0,0
2,note_on,47,29,120
2,note_on,47,0,240
2,note_on,62,27,0
2,note_on,59,23,0
2,note_on,59,0,240
2,note_on,62,0,0
2,note_on,47,24,0
2,note_on,47,0,240
2,note_on,62,24,0
2,note_on,59,19,0
2,note_on,59,0,120
2,note_on,62,0,0
2,note_on,48,27,120
2,note_on,48,0,120
2,note_on,65,24,120
2,note_on,60,19,0
2,note_on,60,0,120
2,note_on,65,0,0
2,note_on,48,27,120
2,note_on,48,0,120
2,note_on,64,24,120
2,note_on,60,19,0
2,note_on,60,0,120
2,note_on,64,0,0
2,note_on,53,27,120
2,note_on,53,0,208
2,note_on,65,23,0
2,note_on,60,19,0
2,note_on,60,0,240
2,note_on,65,0,0
2,note_on,53,27,0
2,note_on,53,0,240
2,note_on,65,24,0
2,note_on,60,19,0
2,note_on,60,0,240
2,note_on,65,0,0
2,note_on,46,21,0
2,note_on,46,0,90
2,note_on,61,18,150
2,note_on,58,15,0
2,note_on,58,0,90
2,note_on,61,0,0
2,note_on,46,21,150
2,note_on,46,0,90
2,note_on,61,22,150
2,note_on,58,18,0
2,note_on,58,0,90
2,note_on,61,0,0
2,note_on,47,27,150
2,note_on,47,0,240
2,note_on,62,24,0
2,note_on,59,19,0
2,note_on,59,0,240
2,note_on,62,0,0
2,note_on,47,21,0
2,note_on,47,0,240
2,note_on,62,21,0
2,note_on,59,18,0
2,note_on,59,0,120
2,note_on,62,0,0
2,note_on,48,24,120
2,note_on,48,0,120
2,note_on,65,21,120
2,note_on,60,18,0
2,note_on,60,0,120
2,note_on,65,0,0
2,note_on,48,24,120
2,note_on,48,0,120
2,note_on,64,21,120
2,note_on,60,18,0
2,note_on,60,0,120
2,note_on,64,0,0
2,note_on,48,24,120
2,note_on,48,0,120
2,note_on,65,21,120
2,note_on,60,18,0
2,note_on,60,0,120
2,note_on,65,0,0
2,note_on,48,24,120
2,note_on,48,0,120
2,note_on,64,21,120
2,note_on,60,18,0
2,note_on,60,0,120
2,note_on,64,0,0
2,note_on,48,24,120
2,note_on,48,0,120
2,note_on,65,21,120
2,note_on,60,18,0
2,note_on,60,0,120
2,note_on,65,0,0
2,note_on,48,24,120
2,note_on,48,0,120
2,note_on,67,21,120
2,note_on,60,18,0
2,note_on,60,0,120
2,note_on,67,0,0
2,note_on,41,27,120
2,note_on,41,0,194
2,note_on,53,21,0
2,note_on,48,18,0
2,note_on,48,0,240
2,note_on,53,0,0
2,note_on,41,27,0
2,note_on,41,0,240
2,note_on,53,22,0
2,note_on,48,18,0
2,note_on,48,0,240
2,note_on,53,0,0
2,note_on,41,27,0
2,note_on,41,0,97
2,note_on,53,22,120
2,note_on,48,18,0
2,note_on,48,0,120
2,note_on,53,0,0
2,note_on,41,27,120
2,note_on,41,0,120
2,note_on,53,23,120
2,note_on,48,19,0
2,note_on,48,0,120
2,note_on,53,0,0
2,note_on,41,27,120
2,note_on,41,0,194
2,note_on,55,23,0
2,note_on,48,19,0
2,note_on,48,0,240
2,note_on,55,0,0
2,note_on,41,27,0
2,note_on,41,0,194
2,note_on,55,23,0
2,note_on,48,19,0
2,note_on,48,0,240
2,note_on,55,0,0
2,note_on,41,27,0
2,note_on,41,0,104
2,note_on,55,22,120
2,note_on,48,18,0
2,note_on,48,0,120
2,note_on,55,0,0
2,note_on,41,27,120
2,note_on,41,0,120
2,note_on,55,22,120
2,note_on,48,18,0
2,note_on,48,0,120
2,note_on,55,0,0
2,note_on,41,21,120
2,note_on,41,0,163
2,note_on,53,17,0
2,note_on,48,14,0
2,note_on,48,0,240
2,note_on,53,0,0
2,note_on,41,21,0
2,note_on,41,0,240
2,note_on,53,17,0
2,note_on,48,14,0
2,note_on,48,0,240
2,note_on,53,0,0
2,note_on,41,21,0
2,note_on,41,0,137
2,note_on,53,17,0
2,note_on,48,14,0
2,note_on,48,0,240
2,note_on,53,0,0
2,note_on,41,21,0
2,note_on,41,0,80
2,note_on,54,18,120
2,note_on,48,15,0
2,note_on,48,0,120
2,note_on,54,0,0
2,note_on,41,21,120
2,note_on,41,0,187
2,note_on,55,18,0
2,note_on,48,15,0
2,note_on,48,0,240
2,note_on,55,0,0
2,note_on,41,21,0
2,note_on,41,0,240
2,note_on,55,18,0
2,note_on,48,15,0
2,note_on,48,0,240
2,note_on,55,0,0
2,note_on,41,21,0
2,note_on,41,0,120
2,note_on,55,17,0
2,note_on,48,14,0
2,note_on,48,0,240
2,note_on,55,0,0
2,note_on,41,21,0
2,note_on,41,0,92
2,note_on,55,17,0
2,note_on,49,14,0
2,note_on,49,0,240
2,note_on,55,0,0
2,note_on,41,18,0
2,note_on,41,0,70
2,note_on,53,13,0
2,note_on,48,10,0
2,note_on,48,0,240
2,note_on,53,0,0
2,note_on,41,16,0
2,note_on,41,0,240
2,note_on,53,13,0
2,note_on,48,10,0
2,note_on,48,0,240
2,note_on,53,0,0
2,note_on,41,14,0
2,note_on,41,0,240
2,note_on,53,10,0
2,note_on,48,9,0
2,note_on,48,0,240
2,note_on,53,0,0
2,note_on,41,13,0
2,note_on,41,0,240
2,note_on,53,10,0
2,note_on,48,9,0
2,note_on,48,0,240
2,note_on,53,0,0
2,note_on,53,10,0
2,note_on,48,9,0
2,note_on,41,9,0
2,note_on,41,0,960
2,note_on,48,0,0
2,note_on,53,0,0
