Track,Message Type,Note,Velocity,Time
1,note_on,67,84,0
1,note_on,67,0,120
1,note_on,68,70,0
1,note_on,68,0,120
1,note_on,63,75,0
1,note_on,63,0,120
1,note_on,60,70,0
1,note_on,60,0,120
1,note_on,56,76,0
1,note_on,56,0,120
1,note_on,67,85,120
1,note_on,67,0,120
1,note_on,68,70,0
1,note_on,68,0,120
1,note_on,63,75,0
1,note_on,63,0,120
1,note_on,60,70,0
1,note_on,60,0,120
1,note_on,56,76,0
1,note_on,56,0,120
1,note_on,63,75,120
1,note_on,72,75,0
1,note_on,75,89,0
1,note_on,75,0,360
1,note_on,72,0,0
1,note_on,63,0,0
1,note_on,63,72,0
1,note_on,72,72,0
1,note_on,75,85,0
1,note_on,75,0,114
1,note_on,72,0,0
1,note_on,63,0,0
1,note_on,63,75,6
1,note_on,72,75,0
1,note_on,75,89,0
1,note_on,75,0,120
1,note_on,72,0,0
1,note_on,63,0,0
1,note_on,63,75,120
1,note_on,72,75,0
1,note_on,75,89,0
1,note_on,75,0,360
1,note_on,72,0,0
1,note_on,63,0,0
1,note_on,63,72,0
1,note_on,72,72,0
1,note_on,75,85,0
1,note_on,75,0,114
1,note_on,72,0,0
1,note_on,63,0,0
1,note_on,63,75,6
1,note_on,72,75,0
1,note_on,75,89,0
1,note_on,75,0,120
1,note_on,72,0,0
1,note_on,63,0,0
1,note_on,63,68,120
1,note_on,71,68,0
1,note_on,75,80,0
1,note_on,75,0,120
1,note_on,71,0,0
1,note_on,63,0,0
1,note_on,72,73,0
1,note_on,72,0,120
1,note_on,68,73,0
1,note_on,68,0,120
1,note_on,63,73,0
1,note_on,63,0,120
1,note_on,60,80,0
1,note_on,60,0,120
1,note_on,63,84,120
1,note_on,63,0,120
1,note_on,68,74,0
1,note_on,68,0,120
1,note_on,72,74,0
1,note_on,72,0,120
1,note_on,75,74,0
1,note_on,75,0,120
1,note_on,80,79,0
1,note_on,80,0,120
1,note_on,81,77,120
1,note_on,69,65,0
1,note_on,69,0,60
1,note_on,81,0,0
1,note_on,70,73,180
1,note_on,82,86,0
1,note_on,82,0,480
1,note_on,70,0,0
1,note_on,62,85,0
1,note_on,62,0,120
1,note_on,63,70,0
1,note_on,63,0,120
1,note_on,58,75,0
1,note_on,58,0,120
1,note_on,55,70,0
1,note_on,55,0,120
1,note_on,51,76,0
1,note_on,51,0,120
1,note_on,63,75,120
1,note_on,73,75,0
1,note_on,75,89,0
1,note_on,75,0,360
1,note_on,73,0,0
1,note_on,63,0,0
1,note_on,63,72,0
1,note_on,73,72,0
1,note_on,75,85,0
1,note_on,75,0,114
1,note_on,73,0,0
1,note_on,63,0,0
1,note_on,63,75,6
1,note_on,73,75,0
1,note_on,75,89,0
1,note_on,75,0,120
1,note_on,73,0,0
1,note_on,63,0,0
1,note_on,63,75,120
1,note_on,73,75,0
1,note_on,75,89,0
1,note_on,75,0,360
1,note_on,73,0,0
1,note_on,63,0,0
1,note_on,63,72,0
1,note_on,73,72,0
1,note_on,75,85,0
1,note_on,75,0,114
1,note_on,73,0,0
1,note_on,63,0,0
1,note_on,63,75,6
1,note_on,73,75,0
1,note_on,75,89,0
1,note_on,75,0,120
1,note_on,73,0,0
1,note_on,63,0,0
1,note_on,63,68,120
1,note_on,72,68,0
1,note_on,75,80,0
1,note_on,75,0,120
1,note_on,72,0,0
1,note_on,63,0,0
1,note_on,73,73,0
1,note_on,73,0,120
1,note_on,70,73,0
1,note_on,70,0,120
1,note_on,67,73,0
1,note_on,67,0,120
1,note_on,63,80,0
1,note_on,63,0,120
1,note_on,67,84,120
1,note_on,67,0,120
1,note_on,70,74,0
1,note_on,70,0,120
1,note_on,73,74,0
1,note_on,73,0,120
1,note_on,75,74,0
1,note_on,75,0,120
1,note_on,79,79,0
1,note_on,79,0,120
1,note_on,83,77,120
1,note_on,71,65,0
1,note_on,71,0,60
1,note_on,83,0,0
1,note_on,72,73,180
1,note_on,84,86,0
1,note_on,84,0,480
1,note_on,72,0,0
1,note_on,67,85,0
1,note_on,67,0,120
1,note_on,68,70,0
1,note_on,68,0,120
1,note_on,63,75,0
1,note_on,63,0,120
1,note_on,60,70,0
1,note_on,60,0,120
1,note_on,56,76,0
1,note_on,56,0,120
1,note_on,66,75,120
1,note_on,68,75,0
1,note_on,75,75,0
1,note_on,78,89,0
1,note_on,78,0,360
1,note_on,66,0,0
1,note_on,68,0,0
1,note_on,75,0,0
1,note_on,66,72,0
1,note_on,68,72,0
1,note_on,75,72,0
1,note_on,78,85,0
1,note_on,78,0,114
1,note_on,66,0,0
1,note_on,68,0,0
1,note_on,75,0,0
1,note_on,66,75,6
1,note_on,68,75,0
1,note_on,75,75,0
1,note_on,78,89,0
1,note_on,78,0,120
1,note_on,66,0,0
1,note_on,68,0,0
1,note_on,75,0,0
1,note_on,76,85,120
1,note_on,76,0,120
1,note_on,77,70,0
1,note_on,77,0,120
1,note_on,73,75,0
1,note_on,73,0,120
1,note_on,68,70,0
1,note_on,68,0,120
1,note_on,65,76,0
1,note_on,65,0,120
1,note_on,63,75,120
1,note_on,65,75,0
1,note_on,72,75,0
1,note_on,75,89,0
1,note_on,75,0,360
1,note_on,63,0,0
1,note_on,65,0,0
1,note_on,72,0,0
1,note_on,63,72,0
1,note_on,65,72,0
1,note_on,72,72,0
1,note_on,75,85,0
1,note_on,75,0,114
1,note_on,63,0,0
1,note_on,65,0,0
1,note_on,72,0,0
1,note_on,63,75,6
1,note_on,65,75,0
1,note_on,72,75,0
1,note_on,75,89,0
1,note_on,75,0,120
1,note_on,63,0,0
1,note_on,65,0,0
1,note_on,72,0,0
1,note_on,72,85,120
1,note_on,72,0,120
1,note_on,73,70,0
1,note_on,73,0,120
1,note_on,70,75,0
1,note_on,70,0,120
1,note_on,65,70,0
1,note_on,65,0,120
1,note_on,61,76,0
1,note_on,61,0,120
1,note_on,84,59,120
1,note_on,84,0,120
1,note_on,85,49,0
1,note_on,85,0,120
1,note_on,82,52,0
1,note_on,82,0,120
1,note_on,79,49,0
1,note_on,79,0,120
1,note_on,73,53,0
1,note_on,73,0,120
1,note_on,83,59,120
1,note_on,83,0,120
1,note_on,84,49,0
1,note_on,84,0,120
1,note_on,80,52,0
1,note_on,80,0,120
1,note_on,75,49,0
1,note_on,75,0,120
1,note_on,72,53,0
1,note_on,72,0,120
1,note_on,75,64,120
1,note_on,75,0,120
1,note_on,76,53,0
1,note_on,76,0,120
1,note_on,73,57,0
1,note_on,73,0,120
1,note_on,70,53,0
1,note_on,70,0,120
1,note_on,64,58,0
1,note_on,64,0,120
1,note_on,74,70,120
1,note_on,74,0,120
1,note_on,75,58,0
1,note_on,75,0,120
1,note_on,71,62,0
1,note_on,71,0,120
1,note_on,68,58,0
1,note_on,68,0,120
1,note_on,63,63,0
1,note_on,63,0,120
1,note_on,68,47,120
1,note_on,75,56,0
1,note_on,75,0,120
1,note_on,68,0,0
1,note_on,80,58,0
1,note_on,80,0,120
1,note_on,68,50,0
1,note_on,75,59,0
1,note_on,75,0,120
1,note_on,68,0,0
1,note_on,80,61,0
1,note_on,80,0,120
1,note_on,68,53,0
1,note_on,75,63,0
1,note_on,75,0,120
1,note_on,68,0,0
1,note_on,80,65,0
1,note_on,80,0,120
1,note_on,68,56,0
1,note_on,75,67,0
1,note_on,75,0,120
1,note_on,68,0,0
1,note_on,80,68,0
1,note_on,80,0,120
1,note_on,68,59,0
1,note_on,75,70,0
1,note_on,75,0,120
1,note_on,68,0,0
1,note_on,80,72,0
1,note_on,80,0,120
1,note_on,68,62,0
1,note_on,75,74,0
1,note_on,75,0,120
1,note_on,68,0,0
1,note_on,80,76,0
1,note_on,80,0,120
1,note_on,68,65,0
1,note_on,74,77,0
1,note_on,74,0,120
1,note_on,68,0,0
1,note_on,80,79,0
1,note_on,80,0,120
1,note_on,68,68,0
1,note_on,74,81,0
1,note_on,74,0,120
1,note_on,68,0,0
1,note_on,80,83,0
1,note_on,80,0,120
1,note_on,68,72,0
1,note_on,74,85,0
1,note_on,74,0,120
1,note_on,68,0,0
1,note_on,80,86,0
1,note_on,80,0,120
1,note_on,68,74,0
1,note_on,74,88,0
1,note_on,74,0,120
1,note_on,68,0,0
1,note_on,80,90,0
1,note_on,80,0,120
1,note_on,68,78,0
1,note_on,74,92,0
1,note_on,74,0,120
1,note_on,68,0,0
1,note_on,80,94,0
1,note_on,80,0,120
1,note_on,68,80,0
1,note_on,74,95,0
1,note_on,74,0,120
1,note_on,68,0,0
1,note_on,80,97,0
1,note_on,80,0,120
1,note_on,68,90,0
1,note_on,74,90,0
1,note_on,80,106,0
1,note_on,80,0,240
1,note_on,74,0,0
1,note_on,68,0,0
1,note_on,70,80,0
1,note_on,74,80,0
1,note_on,80,80,0
1,note_on,82,95,0
1,note_on,82,0,120
1,note_on,70,0,0
1,note_on,74,0,0
1,note_on,80,0,0
1,note_on,70,80,120
1,note_on,74,80,0
1,note_on,80,80,0
1,note_on,82,95,0
1,note_on,82,0,120
1,note_on,70,0,0
1,note_on,74,0,0
1,note_on,80,0,0
1,note_on,70,85,120
1,note_on,74,85,0
1,note_on,80,85,0
1,note_on,82,100,0
1,note_on,82,0,120
1,note_on,70,0,0
1,note_on,74,0,0
1,note_on,80,0,0
1,note_on,70,76,120
1,note_on,74,76,0
1,note_on,80,76,0
1,note_on,82,90,0
1,note_on,82,0,120
1,note_on,70,0,0
1,note_on,74,0,0
1,note_on,80,0,0
1,note_on,70,76,120
1,note_on,74,76,0
1,note_on,80,76,0
1,note_on,82,90,0
1,note_on,82,0,120
1,note_on,70,0,0
1,note_on,74,0,0
1,note_on,80,0,0
1,note_on,70,80,120
1,note_on,75,80,0
1,note_on,79,80,0
1,note_on,82,95,0
1,note_on,82,0,240
1,note_on,70,0,0
1,note_on,75,0,0
1,note_on,79,0,0
1,note_on,87,95,0
1,note_on,82,80,0
1,note_on,79,80,0
1,note_on,75,80,0
1,note_on,75,0,120
1,note_on,87,0,0
1,note_on,82,0,0
1,note_on,79,0,0
1,note_on,63,70,360
1,note_on,67,70,0
1,note_on,70,83,0
1,note_on,70,0,120
1,note_on,67,0,0
1,note_on,63,0,0
1,note_on,63,64,120
1,note_on,67,64,0
1,note_on,70,64,0
1,note_on,75,76,0
1,note_on,75,0,120
1,note_on,63,0,0
1,note_on,67,0,0
1,note_on,70,0,0
1,note_on,63,45,360
1,note_on,72,45,0
1,note_on,75,53,0
1,note_on,75,0,360
1,note_on,72,0,0
1,note_on,63,0,0
1,note_on,63,43,0
1,note_on,72,43,0
1,note_on,75,51,0
1,note_on,75,0,114
1,note_on,72,0,0
1,note_on,63,0,0
1,note_on,63,45,6
1,note_on,72,45,0
1,note_on,75,53,0
1,note_on,75,0,120
1,note_on,72,0,0
1,note_on,63,0,0
1,note_on,63,45,120
1,note_on,72,45,0
1,note_on,75,53,0
1,note_on,75,0,360
1,note_on,72,0,0
1,note_on,63,0,0
1,note_on,63,43,0
1,note_on,72,43,0
1,note_on,75,51,0
1,note_on,75,0,114
1,note_on,72,0,0
1,note_on,63,0,0
1,note_on,63,45,6
1,note_on,72,45,0
1,note_on,75,53,0
1,note_on,75,0,120
1,note_on,72,0,0
1,note_on,63,0,0
1,note_on,63,40,120
1,note_on,71,40,0
1,note_on,75,48,0
1,note_on,75,0,120
1,note_on,71,0,0
1,note_on,63,0,0
1,note_on,72,43,0
1,note_on,72,0,120
1,note_on,68,43,0
1,note_on,68,0,120
1,note_on,63,43,0
1,note_on,63,0,120
1,note_on,60,48,0
1,note_on,60,0,120
1,note_on,63,50,120
1,note_on,63,0,120
1,note_on,68,44,0
1,note_on,68,0,120
1,note_on,72,44,0
1,note_on,72,0,120
1,note_on,75,44,0
1,note_on,75,0,120
1,note_on,80,47,0
1,note_on,80,0,120
1,note_on,81,46,120
1,note_on,69,39,0
1,note_on,69,0,60
1,note_on,81,0,0
1,note_on,70,43,180
1,note_on,82,51,0
1,note_on,82,0,480
1,note_on,70,0,0
1,note_on,62,51,0
1,note_on,62,0,120
1,note_on,63,42,0
1,note_on,63,0,120
1,note_on,58,45,0
1,note_on,58,0,120
1,note_on,55,42,0
1,note_on,55,0,120
1,note_on,51,45,0
1,note_on,51,0,120
1,note_on,63,45,120
1,note_on,73,45,0
1,note_on,75,53,0
1,note_on,75,0,360
1,note_on,73,0,0
1,note_on,63,0,0
1,note_on,63,43,0
1,note_on,73,43,0
1,note_on,75,51,0
1,note_on,75,0,114
1,note_on,73,0,0
1,note_on,63,0,0
1,note_on,63,45,6
1,note_on,73,45,0
1,note_on,75,53,0
1,note_on,75,0,120
1,note_on,73,0,0
1,note_on,63,0,0
1,note_on,63,45,120
1,note_on,73,45,0
1,note_on,75,53,0
1,note_on,75,0,360
1,note_on,73,0,0
1,note_on,63,0,0
1,note_on,63,43,0
1,note_on,73,43,0
1,note_on,75,51,0
1,note_on,75,0,114
1,note_on,73,0,0
1,note_on,63,0,0
1,note_on,63,45,6
1,note_on,73,45,0
1,note_on,75,53,0
1,note_on,75,0,120
1,note_on,73,0,0
1,note_on,63,0,0
1,note_on,63,40,120
1,note_on,72,40,0
1,note_on,75,48,0
1,note_on,75,0,120
1,note_on,72,0,0
1,note_on,63,0,0
1,note_on,73,43,0
1,note_on,73,0,120
1,note_on,70,43,0
1,note_on,70,0,120
1,note_on,67,43,0
1,note_on,67,0,120
1,note_on,63,48,0
1,note_on,63,0,120
1,note_on,67,50,120
1,note_on,67,0,120
1,note_on,70,44,0
1,note_on,70,0,120
1,note_on,73,44,0
1,note_on,73,0,120
1,note_on,75,44,0
1,note_on,75,0,120
1,note_on,79,47,0
1,note_on,79,0,120
1,note_on,83,46,120
1,note_on,71,39,0
1,note_on,71,0,60
1,note_on,83,0,0
1,note_on,72,43,180
1,note_on,84,51,0
1,note_on,84,0,480
1,note_on,72,0,0
1,note_on,67,51,0
1,note_on,67,0,120
1,note_on,68,42,0
1,note_on,68,0,120
1,note_on,63,45,0
1,note_on,63,0,120
1,note_on,60,42,0
1,note_on,60,0,120
1,note_on,56,45,0
1,note_on,56,0,120
1,note_on,68,49,120
1,note_on,68,0,120
1,note_on,69,48,0
1,note_on,69,0,120
1,note_on,70,51,0
1,note_on,70,0,120
1,note_on,71,54,0
1,note_on,71,0,120
1,note_on,72,57,0
1,note_on,72,0,120
1,note_on,72,51,120
1,note_on,72,0,120
1,note_on,73,49,0
1,note_on,73,0,90
1,note_on,80,57,30
1,note_on,80,0,480
1,note_on,65,45,0
1,note_on,65,0,120
1,note_on,66,46,0
1,note_on,66,0,120
1,note_on,67,47,0
1,note_on,67,0,120
1,note_on,68,49,0
1,note_on,68,0,120
1,note_on,69,50,0
1,note_on,69,0,120
1,note_on,69,51,120
1,note_on,69,0,120
1,note_on,70,49,0
1,note_on,70,0,90
1,note_on,77,57,30
1,note_on,77,0,480
1,note_on,74,56,0
1,note_on,74,0,120
1,note_on,75,56,0
1,note_on,75,0,90
1,note_on,73,53,30
1,note_on,75,53,0
1,note_on,85,63,0
1,note_on,85,0,480
1,note_on,75,0,0
1,note_on,73,0,0
1,note_on,71,59,0
1,note_on,71,0,120
1,note_on,72,59,0
1,note_on,72,0,90
1,note_on,72,57,30
1,note_on,75,57,0
1,note_on,84,67,0
1,note_on,84,0,480
1,note_on,75,0,0
1,note_on,72,0,0
1,note_on,74,64,0
1,note_on,74,0,120
1,note_on,75,64,0
1,note_on,75,0,90
1,note_on,73,59,30
1,note_on,75,59,0
1,note_on,85,71,0
1,note_on,85,0,480
1,note_on,75,0,0
1,note_on,73,0,0
1,note_on,71,67,0
1,note_on,71,0,120
1,note_on,72,67,0
1,note_on,72,0,90
1,note_on,72,64,30
1,note_on,75,64,0
1,note_on,84,76,0
1,note_on,84,0,480
1,note_on,75,0,0
1,note_on,72,0,0
1,note_on,75,67,0
1,note_on,68,67,0
1,note_on,80,79,0
1,note_on,80,0,360
1,note_on,68,0,0
1,note_on,75,0,0
1,note_on,68,64,0
1,note_on,75,64,0
1,note_on,80,76,0
1,note_on,80,0,114
1,note_on,75,0,0
1,note_on,68,0,0
1,note_on,75,64,6
1,note_on,68,64,0
1,note_on,80,76,0
1,note_on,80,0,120
1,note_on,68,0,0
1,note_on,75,0,0
1,note_on,75,68,120
1,note_on,68,68,0
1,note_on,80,81,0
1,note_on,80,0,120
1,note_on,68,0,0
1,note_on,75,0,0
1,note_on,68,63,120
1,note_on,75,63,0
1,note_on,80,75,0
1,note_on,80,0,120
1,note_on,75,0,0
1,note_on,68,0,0
1,note_on,75,63,120
1,note_on,68,63,0
1,note_on,80,75,0
1,note_on,80,0,120
1,note_on,68,0,0
1,note_on,75,0,0
1,note_on,68,65,120
1,note_on,74,77,0
1,note_on,74,0,120
1,note_on,68,0,0
1,note_on,80,79,0
1,note_on,80,0,120
1,note_on,68,68,0
1,note_on,74,81,0
1,note_on,74,0,120
1,note_on,68,0,0
1,note_on,80,83,0
1,note_on,80,0,120
1,note_on,68,72,0
1,note_on,74,85,0
1,note_on,74,0,120
1,note_on,68,0,0
1,note_on,80,86,0
1,note_on,80,0,120
1,note_on,68,74,0
1,note_on,74,88,0
1,note_on,74,0,120
1,note_on,68,0,0
1,note_on,80,90,0
1,note_on,80,0,120
1,note_on,68,78,0
1,note_on,74,92,0
1,note_on,74,0,120
1,note_on,68,0,0
1,note_on,80,94,0
1,note_on,80,0,120
1,note_on,68,80,0
1,note_on,74,95,0
1,note_on,74,0,120
1,note_on,68,0,0
1,note_on,80,97,0
1,note_on,80,0,120
1,note_on,68,90,0
1,note_on,74,90,0
1,note_on,80,106,0
1,note_on,80,0,240
1,note_on,74,0,0
1,note_on,68,0,0
1,note_on,70,80,0
1,note_on,74,80,0
1,note_on,80,80,0
1,note_on,82,95,0
1,note_on,82,0,120
1,note_on,70,0,0
1,note_on,74,0,0
1,note_on,80,0,0
1,note_on,70,80,120
1,note_on,74,80,0
1,note_on,80,80,0
1,note_on,82,95,0
1,note_on,82,0,120
1,note_on,70,0,0
1,note_on,74,0,0
1,note_on,80,0,0
1,note_on,70,85,120
1,note_on,74,85,0
1,note_on,80,85,0
1,note_on,82,100,0
1,note_on,82,0,120
1,note_on,70,0,0
1,note_on,74,0,0
1,note_on,80,0,0
1,note_on,70,77,120
1,note_on,74,77,0
1,note_on,80,77,0
1,note_on,82,92,0
1,note_on,82,0,120
1,note_on,70,0,0
1,note_on,74,0,0
1,note_on,80,0,0
1,note_on,70,77,120
1,note_on,74,77,0
1,note_on,80,77,0
1,note_on,82,92,0
1,note_on,82,0,120
1,note_on,70,0,0
1,note_on,74,0,0
1,note_on,80,0,0
1,note_on,70,80,120
1,note_on,75,80,0
1,note_on,79,80,0
1,note_on,82,95,0
1,note_on,82,0,120
1,note_on,70,0,0
1,note_on,75,0,0
1,note_on,79,0,0
1,note_on,87,95,120
1,note_on,82,80,0
1,note_on,79,80,0
1,note_on,75,80,0
1,note_on,75,0,120
1,note_on,87,0,0
1,note_on,82,0,0
1,note_on,79,0,0
1,note_on,63,70,360
1,note_on,67,70,0
1,note_on,70,83,0
1,note_on,70,0,120
1,note_on,67,0,0
1,note_on,63,0,0
1,note_on,63,64,120
1,note_on,67,64,0
1,note_on,75,76,0
1,note_on,75,0,120
1,note_on,67,0,0
1,note_on,63,0,0
1,note_on,79,71,1800
1,note_on,79,0,80
1,note_on,76,69,0
1,note_on,76,0,80
1,note_on,73,66,0
1,note_on,73,0,80
1,note_on,70,64,0
1,note_on,70,0,80
1,note_on,67,62,0
1,note_on,67,0,80
1,note_on,64,59,0
1,note_on,64,0,80
1,note_on,61,56,0
1,note_on,61,0,80
1,note_on,58,56,0
1,note_on,58,0,80
1,note_on,55,56,0
1,note_on,55,0,80
1,note_on,52,56,0
1,note_on,52,0,80
1,note_on,55,55,0
1,note_on,55,0,80
1,note_on,58,56,0
1,note_on,58,0,80
1,note_on,61,56,0
1,note_on,61,0,80
1,note_on,64,57,0
1,note_on,64,0,80
1,note_on,67,58,0
1,note_on,67,0,80
1,note_on,70,60,0
1,note_on,70,0,80
1,note_on,73,63,0
1,note_on,73,0,80
1,note_on,76,64,0
1,note_on,76,0,80
1,note_on,79,67,0
1,note_on,79,0,80
1,note_on,76,66,0
1,note_on,76,0,80
1,note_on,73,65,0
1,note_on,73,0,80
1,note_on,70,64,0
1,note_on,70,0,80
1,note_on,67,63,0
1,note_on,67,0,80
1,note_on,64,62,0
1,note_on,64,0,80
1,note_on,61,61,0
1,note_on,61,0,80
1,note_on,58,60,0
1,note_on,58,0,80
1,note_on,55,59,0
1,note_on,55,0,80
1,note_on,52,58,0
1,note_on,52,0,80
1,note_on,55,55,0
1,note_on,55,0,80
1,note_on,58,56,0
1,note_on,58,0,80
1,note_on,61,56,0
1,note_on,61,0,80
1,note_on,64,57,0
1,note_on,64,0,80
1,note_on,67,58,0
1,note_on,67,0,80
1,note_on,70,59,0
1,note_on,70,0,80
1,note_on,73,59,0
1,note_on,73,0,80
1,note_on,76,62,0
1,note_on,76,0,80
1,note_on,67,60,0
1,note_on,76,60,0
1,note_on,79,72,0
1,note_on,79,0,360
1,note_on,76,0,0
1,note_on,67,0,0
1,note_on,79,76,0
1,note_on,67,64,0
1,note_on,76,64,0
1,note_on,76,0,114
1,note_on,67,0,0
1,note_on,79,0,0
1,note_on,67,67,6
1,note_on,76,67,0
1,note_on,79,80,0
1,note_on,79,0,120
1,note_on,76,0,0
1,note_on,67,0,0
1,note_on,68,67,120
1,note_on,76,67,0
1,note_on,80,80,0
1,note_on,80,0,360
1,note_on,76,0,0
1,note_on,68,0,0
1,note_on,80,76,0
1,note_on,68,64,0
1,note_on,76,64,0
1,note_on,76,0,114
1,note_on,68,0,0
1,note_on,80,0,0
1,note_on,68,67,6
1,note_on,76,67,0
1,note_on,80,80,0
1,note_on,80,0,120
1,note_on,76,0,0
1,note_on,68,0,0
1,note_on,67,67,120
1,note_on,76,67,0
1,note_on,79,80,0
1,note_on,79,0,360
1,note_on,76,0,0
1,note_on,67,0,0
1,note_on,79,76,0
1,note_on,67,64,0
1,note_on,76,64,0
1,note_on,76,0,114
1,note_on,67,0,0
1,note_on,79,0,0
1,note_on,67,67,6
1,note_on,76,67,0
1,note_on,79,80,0
1,note_on,79,0,120
1,note_on,76,0,0
1,note_on,67,0,0
1,note_on,68,67,120
1,note_on,76,67,0
1,note_on,80,80,0
1,note_on,80,0,360
1,note_on,76,0,0
1,note_on,68,0,0
1,note_on,80,76,0
1,note_on,68,64,0
1,note_on,76,64,0
1,note_on,76,0,114
1,note_on,68,0,0
1,note_on,80,0,0
1,note_on,68,67,6
1,note_on,76,67,0
1,note_on,80,80,0
1,note_on,80,0,120
1,note_on,76,0,0
1,note_on,68,0,0
1,note_on,78,67,120
1,note_on,70,67,0
1,note_on,76,67,0
1,note_on,82,80,0
1,note_on,82,0,360
1,note_on,78,0,0
1,note_on,70,0,0
1,note_on,76,0,0
1,note_on,78,64,0
1,note_on,82,76,0
1,note_on,70,64,0
1,note_on,76,64,0
1,note_on,76,0,114
1,note_on,78,0,0
1,note_on,82,0,0
1,note_on,70,0,0
1,note_on,78,67,6
1,note_on,70,67,0
1,note_on,76,67,0
1,note_on,82,80,0
1,note_on,82,0,120
1,note_on,78,0,0
1,note_on,70,0,0
1,note_on,76,0,0
1,note_on,71,67,120
1,note_on,78,67,0
1,note_on,83,80,0
1,note_on,83,0,360
1,note_on,78,0,0
1,note_on,71,0,0
1,note_on,83,81,0
1,note_on,71,68,0
1,note_on,78,68,0
1,note_on,78,0,114
1,note_on,71,0,0
1,note_on,83,0,0
1,note_on,71,73,6
1,note_on,78,73,0
1,note_on,83,88,0
1,note_on,83,0,120
1,note_on,78,0,0
1,note_on,71,0,0
1,note_on,75,77,120
1,note_on,83,77,0
1,note_on,78,77,0
1,note_on,87,92,0
1,note_on,87,0,360
1,note_on,75,0,0
1,note_on,83,0,0
1,note_on,78,0,0
1,note_on,75,69,0
1,note_on,87,82,0
1,note_on,83,69,0
1,note_on,78,69,0
1,note_on,78,0,114
1,note_on,75,0,0
1,note_on,87,0,0
1,note_on,83,0,0
1,note_on,75,70,6
1,note_on,83,70,0
1,note_on,78,70,0
1,note_on,87,84,0
1,note_on,87,0,120
1,note_on,75,0,0
1,note_on,83,0,0
1,note_on,78,0,0
1,note_on,82,67,120
1,note_on,78,67,0
1,note_on,76,67,0
1,note_on,85,80,0
1,note_on,85,0,360
1,note_on,82,0,0
1,note_on,78,0,0
1,note_on,76,0,0
1,note_on,82,64,0
1,note_on,85,76,0
1,note_on,78,64,0
1,note_on,76,64,0
1,note_on,76,0,114
1,note_on,82,0,0
1,note_on,85,0,0
1,note_on,78,0,0
1,note_on,82,67,6
1,note_on,78,67,0
1,note_on,76,67,0
1,note_on,85,80,0
1,note_on,85,0,120
1,note_on,82,0,0
1,note_on,78,0,0
1,note_on,76,0,0
1,note_on,75,74,120
1,note_on,78,74,0
1,note_on,83,88,0
1,note_on,83,0,240
1,note_on,78,0,0
1,note_on,75,0,0
1,note_on,77,70,1200
1,note_on,77,0,80
1,note_on,74,68,0
1,note_on,74,0,80
1,note_on,71,67,0
1,note_on,71,0,80
1,note_on,68,65,0
1,note_on,68,0,80
1,note_on,65,64,0
1,note_on,65,0,80
1,note_on,62,62,0
1,note_on,62,0,80
1,note_on,59,61,0
1,note_on,59,0,80
1,note_on,56,59,0
1,note_on,56,0,80
1,note_on,53,58,0
1,note_on,53,0,80
1,note_on,50,56,0
1,note_on,50,0,80
1,note_on,53,55,0
1,note_on,53,0,80
1,note_on,56,56,0
1,note_on,56,0,80
1,note_on,59,56,0
1,note_on,59,0,80
1,note_on,62,57,0
1,note_on,62,0,80
1,note_on,65,58,0
1,note_on,65,0,80
1,note_on,68,59,0
1,note_on,68,0,80
1,note_on,71,60,0
1,note_on,71,0,80
1,note_on,74,63,0
1,note_on,74,0,80
1,note_on,77,65,0
1,note_on,77,0,80
1,note_on,74,64,0
1,note_on,74,0,80
1,note_on,71,63,0
1,note_on,71,0,80
1,note_on,68,62,0
1,note_on,68,0,80
1,note_on,65,61,0
1,note_on,65,0,80
1,note_on,62,59,0
1,note_on,62,0,80
1,note_on,59,58,0
1,note_on,59,0,80
1,note_on,56,57,0
1,note_on,56,0,80
1,note_on,53,56,0
1,note_on,53,0,80
1,note_on,50,56,0
1,note_on,50,0,80
1,note_on,53,55,0
1,note_on,53,0,80
1,note_on,56,56,0
1,note_on,56,0,80
1,note_on,59,56,0
1,note_on,59,0,80
1,note_on,62,57,0
1,note_on,62,0,80
1,note_on,65,58,0
1,note_on,65,0,80
1,note_on,68,60,0
1,note_on,68,0,60
1,note_on,71,62,0
1,note_on,71,0,60
1,note_on,74,63,0
1,note_on,74,0,60
1,note_on,77,66,0
1,note_on,77,0,60
1,note_on,66,65,0
1,note_on,78,77,0
1,note_on,78,0,360
1,note_on,66,0,0
1,note_on,78,49,0
1,note_on,66,41,0
1,note_on,66,0,114
1,note_on,78,0,0
1,note_on,66,44,6
1,note_on,78,52,0
1,note_on,78,0,240
1,note_on,66,0,0
1,note_on,71,46,0
1,note_on,83,55,0
1,note_on,83,0,360
1,note_on,71,0,0
1,note_on,83,49,0
1,note_on,71,41,0
1,note_on,71,0,114
1,note_on,83,0,0
1,note_on,71,45,6
1,note_on,83,54,0
1,note_on,83,0,240
1,note_on,71,0,0
1,note_on,70,46,0
1,note_on,82,55,0
1,note_on,82,0,360
1,note_on,70,0,0
1,note_on,82,49,0
1,note_on,70,41,0
1,note_on,70,0,114
1,note_on,82,0,0
1,note_on,70,45,6
1,note_on,82,54,0
1,note_on,82,0,240
1,note_on,70,0,0
1,note_on,76,46,0
1,note_on,88,55,0
1,note_on,88,0,720
1,note_on,76,0,0
1,note_on,75,46,0
1,note_on,87,55,0
1,note_on,87,0,360
1,note_on,75,0,0
1,note_on,87,49,0
1,note_on,75,41,0
1,note_on,75,0,114
1,note_on,87,0,0
1,note_on,71,45,6
1,note_on,83,54,0
1,note_on,83,0,240
1,note_on,71,0,0
1,note_on,68,46,0
1,note_on,80,55,0
1,note_on,80,0,360
1,note_on,68,0,0
1,note_on,80,49,0
1,note_on,68,41,0
1,note_on,68,0,114
1,note_on,80,0,0
1,note_on,73,45,6
1,note_on,85,54,0
1,note_on,85,0,240
1,note_on,73,0,0
1,note_on,70,46,0
1,note_on,82,55,0
1,note_on,82,0,360
1,note_on,70,0,0
1,note_on,82,49,0
1,note_on,70,41,0
1,note_on,70,0,114
1,note_on,82,0,0
1,note_on,73,45,6
1,note_on,85,54,0
1,note_on,85,0,240
1,note_on,73,0,0
1,note_on,66,46,0
1,note_on,78,55,0
1,note_on,78,0,360
1,note_on,66,0,0
1,note_on,87,53,0
1,note_on,87,0,120
1,note_on,88,53,0
1,note_on,88,0,120
1,note_on,89,53,0
1,note_on,89,0,120
1,note_on,78,50,0
1,note_on,90,60,0
1,note_on,90,0,360
1,note_on,78,0,0
1,note_on,90,53,0
1,note_on,78,45,0
1,note_on,78,0,120
1,note_on,90,0,0
1,note_on,78,48,0
1,note_on,90,57,0
1,note_on,90,0,240
1,note_on,78,0,0
1,note_on,83,50,0
1,note_on,95,60,0
1,note_on,95,0,360
1,note_on,83,0,0
1,note_on,95,53,0
1,note_on,83,45,0
1,note_on,83,0,120
1,note_on,95,0,0
1,note_on,83,49,0
1,note_on,95,59,0
1,note_on,95,0,240
1,note_on,83,0,0
1,note_on,82,50,0
1,note_on,94,60,0
1,note_on,94,0,360
1,note_on,82,0,0
1,note_on,94,53,0
1,note_on,82,45,0
1,note_on,82,0,120
1,note_on,94,0,0
1,note_on,82,49,0
1,note_on,94,59,0
1,note_on,94,0,240
1,note_on,82,0,0
1,note_on,88,50,0
1,note_on,100,60,0
1,note_on,100,0,720
1,note_on,88,0,0
1,note_on,87,50,0
1,note_on,99,60,0
1,note_on,99,0,360
1,note_on,87,0,0
1,note_on,99,53,0
1,note_on,87,45,0
1,note_on,87,0,120
1,note_on,99,0,0
1,note_on,83,49,0
1,note_on,95,59,0
1,note_on,95,0,240
1,note_on,83,0,0
1,note_on,80,50,0
1,note_on,92,60,0
1,note_on,92,0,360
1,note_on,80,0,0
1,note_on,92,53,0
1,note_on,80,45,0
1,note_on,80,0,120
1,note_on,92,0,0
1,note_on,85,49,0
1,note_on,97,59,0
1,note_on,97,0,240
1,note_on,85,0,0
1,note_on,82,50,0
1,note_on,94,60,0
1,note_on,94,0,360
1,note_on,82,0,0
1,note_on,94,53,0
1,note_on,82,45,0
1,note_on,82,0,120
1,note_on,94,0,0
1,note_on,85,49,0
1,note_on,97,59,0
1,note_on,97,0,240
1,note_on,85,0,0
1,note_on,83,50,0
1,note_on,95,60,0
1,note_on,95,0,720
1,note_on,83,0,0
1,note_on,66,67,120
1,note_on,66,0,120
1,note_on,78,75,0
1,note_on,75,63,0
1,note_on,75,0,120
1,note_on,78,0,0
1,note_on,71,63,0
1,note_on,71,0,120
1,note_on,75,67,0
1,note_on,71,56,0
1,note_on,71,0,120
1,note_on,75,0,0
1,note_on,66,63,0
1,note_on,66,0,120
1,note_on,71,67,120
1,note_on,71,0,120
1,note_on,83,76,0
1,note_on,80,64,0
1,note_on,80,0,120
1,note_on,83,0,0
1,note_on,77,64,0
1,note_on,77,0,120
1,note_on,80,67,0
1,note_on,77,56,0
1,note_on,77,0,120
1,note_on,80,0,0
1,note_on,71,63,0
1,note_on,71,0,120
1,note_on,70,67,120
1,note_on,70,0,120
1,note_on,82,76,0
1,note_on,80,64,0
1,note_on,75,64,0
1,note_on,75,0,120
1,note_on,80,0,0
1,note_on,82,0,0
1,note_on,70,63,0
1,note_on,70,0,120
1,note_on,78,67,0
1,note_on,75,56,0
1,note_on,75,0,120
1,note_on,78,0,0
1,note_on,70,63,0
1,note_on,70,0,120
1,note_on,65,67,120
1,note_on,65,0,120
1,note_on,77,77,0
1,note_on,75,65,0
1,note_on,70,65,0
1,note_on,70,0,120
1,note_on,75,0,0
1,note_on,77,0,0
1,note_on,65,64,0
1,note_on,65,0,120
1,note_on,70,56,0
1,note_on,74,67,0
1,note_on,74,0,120
1,note_on,70,0,0
1,note_on,65,63,0
1,note_on,65,0,120
1,note_on,68,67,120
1,note_on,68,0,120
1,note_on,80,75,0
1,note_on,77,63,0
1,note_on,77,0,120
1,note_on,80,0,0
1,note_on,73,63,0
1,note_on,73,0,120
1,note_on,77,67,0
1,note_on,73,56,0
1,note_on,73,0,120
1,note_on,77,0,0
1,note_on,68,63,0
1,note_on,68,0,120
1,note_on,73,67,120
1,note_on,73,0,120
1,note_on,85,76,0
1,note_on,82,64,0
1,note_on,82,0,120
1,note_on,85,0,0
1,note_on,79,64,0
1,note_on,79,0,120
1,note_on,82,67,0
1,note_on,79,56,0
1,note_on,79,0,120
1,note_on,82,0,0
1,note_on,73,63,0
1,note_on,73,0,120
1,note_on,72,67,120
1,note_on,72,0,120
1,note_on,84,76,0
1,note_on,82,64,0
1,note_on,79,64,0
1,note_on,79,0,120
1,note_on,82,0,0
1,note_on,84,0,0
1,note_on,72,63,0
1,note_on,72,0,120
1,note_on,80,67,0
1,note_on,77,56,0
1,note_on,77,0,120
1,note_on,80,0,0
1,note_on,72,63,0
1,note_on,72,0,120
1,note_on,67,67,120
1,note_on,67,0,120
1,note_on,79,77,0
1,note_on,77,65,0
1,note_on,72,65,0
1,note_on,72,0,120
1,note_on,77,0,0
1,note_on,79,0,0
1,note_on,67,64,0
1,note_on,67,0,120
1,note_on,72,56,0
1,note_on,76,67,0
1,note_on,76,0,120
1,note_on,72,0,0
1,note_on,67,63,0
1,note_on,67,0,120
1,note_on,70,70,120
1,note_on,70,0,120
1,note_on,82,78,0
1,note_on,79,66,0
1,note_on,79,0,120
1,note_on,82,0,0
1,note_on,75,66,0
1,note_on,75,0,120
1,note_on,79,71,0
1,note_on,75,59,0
1,note_on,75,0,120
1,note_on,79,0,0
1,note_on,70,66,0
1,note_on,70,0,120
1,note_on,76,71,120
1,note_on,76,0,120
1,note_on,88,81,0
1,note_on,85,68,0
1,note_on,85,0,120
1,note_on,88,0,0
1,note_on,82,68,0
1,note_on,82,0,120
1,note_on,85,71,0
1,note_on,82,59,0
1,note_on,82,0,120
1,note_on,85,0,0
1,note_on,76,68,0
1,note_on,76,0,120
1,note_on,75,72,120
1,note_on,75,0,120
1,note_on,87,82,0
1,note_on,85,69,0
1,note_on,82,69,0
1,note_on,82,0,120
1,note_on,85,0,0
1,note_on,87,0,0
1,note_on,75,68,0
1,note_on,75,0,120
1,note_on,83,73,0
1,note_on,80,61,0
1,note_on,80,0,120
1,note_on,83,0,0
1,note_on,75,68,0
1,note_on,75,0,120
1,note_on,70,70,120
1,note_on,70,0,120
1,note_on,82,80,0
1,note_on,80,68,0
1,note_on,75,68,0
1,note_on,75,0,120
1,note_on,80,0,0
1,note_on,82,0,0
1,note_on,70,67,0
1,note_on,70,0,120
1,note_on,75,58,0
1,note_on,79,70,0
1,note_on,79,0,120
1,note_on,75,0,0
1,note_on,70,66,0
1,note_on,70,0,120
1,note_on,76,80,0
1,note_on,79,80,0
1,note_on,82,80,0
1,note_on,88,95,0
1,note_on,88,0,360
1,note_on,76,0,0
1,note_on,79,0,0
1,note_on,82,0,0
1,note_on,76,76,0
1,note_on,79,76,0
1,note_on,82,76,0
1,note_on,88,90,0
1,note_on,88,0,114
1,note_on,76,0,0
1,note_on,79,0,0
1,note_on,82,0,0
1,note_on,76,79,6
1,note_on,79,79,0
1,note_on,82,79,0
1,note_on,88,94,0
1,note_on,88,0,240
1,note_on,76,0,0
1,note_on,79,0,0
1,note_on,82,0,0
1,note_on,76,80,0
1,note_on,79,80,0
1,note_on,82,80,0
1,note_on,88,95,0
1,note_on,88,0,360
1,note_on,76,0,0
1,note_on,79,0,0
1,note_on,82,0,0
1,note_on,76,76,0
1,note_on,79,76,0
1,note_on,82,76,0
1,note_on,88,90,0
1,note_on,88,0,114
1,note_on,76,0,0
1,note_on,79,0,0
1,note_on,82,0,0
1,note_on,76,79,6
1,note_on,79,79,0
1,note_on,82,79,0
1,note_on,88,94,0
1,note_on,88,0,240
1,note_on,76,0,0
1,note_on,79,0,0
1,note_on,82,0,0
1,note_on,76,62,0
1,note_on,82,62,0
1,note_on,79,62,0
1,note_on,88,74,0
1,note_on,88,0,80
1,note_on,76,0,0
1,note_on,82,0,0
1,note_on,79,0,0
1,note_on,85,67,0
1,note_on,85,0,80
1,note_on,82,66,0
1,note_on,82,0,80
1,note_on,79,65,0
1,note_on,79,0,80
1,note_on,76,65,0
1,note_on,76,0,80
1,note_on,73,64,0
1,note_on,73,0,80
1,note_on,70,63,0
1,note_on,70,0,80
1,note_on,67,63,0
1,note_on,67,0,80
1,note_on,64,63,0
1,note_on,64,0,80
1,note_on,61,63,0
1,note_on,61,0,80
1,note_on,64,62,0
1,note_on,64,0,80
1,note_on,67,63,0
1,note_on,67,0,80
1,note_on,70,63,0
1,note_on,70,0,80
1,note_on,73,64,0
1,note_on,73,0,80
1,note_on,76,65,0
1,note_on,76,0,80
1,note_on,79,66,0
1,note_on,79,0,80
1,note_on,82,67,0
1,note_on,82,0,80
1,note_on,85,70,0
1,note_on,85,0,80
1,note_on,77,80,0
1,note_on,80,80,0
1,note_on,83,80,0
1,note_on,89,95,0
1,note_on,89,0,360
1,note_on,77,0,0
1,note_on,80,0,0
1,note_on,83,0,0
1,note_on,77,76,0
1,note_on,80,76,0
1,note_on,83,76,0
1,note_on,89,90,0
1,note_on,89,0,114
1,note_on,77,0,0
1,note_on,80,0,0
1,note_on,83,0,0
1,note_on,77,79,6
1,note_on,80,79,0
1,note_on,83,79,0
1,note_on,89,94,0
1,note_on,89,0,240
1,note_on,77,0,0
1,note_on,80,0,0
1,note_on,83,0,0
1,note_on,77,80,0
1,note_on,80,80,0
1,note_on,83,80,0
1,note_on,89,95,0
1,note_on,89,0,360
1,note_on,77,0,0
1,note_on,80,0,0
1,note_on,83,0,0
1,note_on,77,76,0
1,note_on,80,76,0
1,note_on,83,76,0
1,note_on,89,90,0
1,note_on,89,0,114
1,note_on,77,0,0
1,note_on,80,0,0
1,note_on,83,0,0
1,note_on,77,79,6
1,note_on,80,79,0
1,note_on,83,79,0
1,note_on,89,94,0
1,note_on,89,0,240
1,note_on,77,0,0
1,note_on,80,0,0
1,note_on,83,0,0
1,note_on,77,62,0
1,note_on,80,62,0
1,note_on,89,74,0
1,note_on,89,0,80
1,note_on,80,0,0
1,note_on,77,0,0
1,note_on,83,67,0
1,note_on,83,0,80
1,note_on,80,66,0
1,note_on,80,0,80
1,note_on,77,65,0
1,note_on,77,0,80
1,note_on,71,65,0
1,note_on,71,0,80
1,note_on,68,64,0
1,note_on,68,0,80
1,note_on,65,63,0
1,note_on,65,0,80
1,note_on,59,63,0
1,note_on,59,0,80
1,note_on,56,63,0
1,note_on,56,0,80
1,note_on,53,63,0
1,note_on,53,0,80
1,note_on,56,62,0
1,note_on,56,0,80
1,note_on,59,63,0
1,note_on,59,0,80
1,note_on,65,63,0
1,note_on,65,0,80
1,note_on,68,64,0
1,note_on,68,0,80
1,note_on,71,65,0
1,note_on,71,0,80
1,note_on,77,66,0
1,note_on,77,0,80
1,note_on,80,67,0
1,note_on,80,0,80
1,note_on,83,70,0
1,note_on,83,0,80
1,note_on,80,80,0
1,note_on,83,80,0
1,note_on,86,80,0
1,note_on,92,95,0
1,note_on,92,0,360
1,note_on,80,0,0
1,note_on,83,0,0
1,note_on,86,0,0
1,note_on,80,76,0
1,note_on,83,76,0
1,note_on,86,76,0
1,note_on,92,90,0
1,note_on,92,0,114
1,note_on,80,0,0
1,note_on,83,0,0
1,note_on,86,0,0
1,note_on,80,79,6
1,note_on,83,79,0
1,note_on,86,79,0
1,note_on,92,94,0
1,note_on,92,0,240
1,note_on,80,0,0
1,note_on,83,0,0
1,note_on,86,0,0
1,note_on,80,80,0
1,note_on,83,80,0
1,note_on,86,80,0
1,note_on,92,95,0
1,note_on,92,0,360
1,note_on,80,0,0
1,note_on,83,0,0
1,note_on,86,0,0
1,note_on,80,76,0
1,note_on,83,76,0
1,note_on,86,76,0
1,note_on,92,90,0
1,note_on,92,0,114
1,note_on,80,0,0
1,note_on,83,0,0
1,note_on,86,0,0
1,note_on,80,79,6
1,note_on,83,79,0
1,note_on,86,79,0
1,note_on,92,94,0
1,note_on,92,0,240
1,note_on,80,0,0
1,note_on,83,0,0
1,note_on,86,0,0
1,note_on,80,62,0
1,note_on,83,62,0
1,note_on,92,74,0
1,note_on,92,0,80
1,note_on,83,0,0
1,note_on,80,0,0
1,note_on,86,67,0
1,note_on,86,0,80
1,note_on,83,66,0
1,note_on,83,0,80
1,note_on,80,65,0
1,note_on,80,0,80
1,note_on,74,65,0
1,note_on,74,0,80
1,note_on,71,64,0
1,note_on,71,0,80
1,note_on,68,63,0
1,note_on,68,0,80
1,note_on,62,63,0
1,note_on,62,0,80
1,note_on,59,63,0
1,note_on,59,0,80
1,note_on,56,63,0
1,note_on,56,0,80
1,note_on,59,62,0
1,note_on,59,0,80
1,note_on,62,63,0
1,note_on,62,0,80
1,note_on,68,63,0
1,note_on,68,0,80
1,note_on,71,64,0
1,note_on,71,0,80
1,note_on,74,65,0
1,note_on,74,0,80
1,note_on,80,66,0
1,note_on,80,0,80
1,note_on,83,67,0
1,note_on,83,0,80
1,note_on,92,70,0
1,note_on,92,0,80
1,note_on,75,80,0
1,note_on,79,80,0
1,note_on,82,80,0
1,note_on,87,95,0
1,note_on,87,0,360
1,note_on,75,0,0
1,note_on,79,0,0
1,note_on,82,0,0
1,note_on,75,90,0
1,note_on,75,0,114
1,note_on,75,94,6
1,note_on,75,0,120
1,note_on,75,80,120
1,note_on,80,80,0
1,note_on,83,80,0
1,note_on,87,95,0
1,note_on,87,0,360
1,note_on,75,0,0
1,note_on,80,0,0
1,note_on,83,0,0
1,note_on,75,90,0
1,note_on,75,0,114
1,note_on,75,94,6
1,note_on,75,0,120
1,note_on,75,80,120
1,note_on,79,80,0
1,note_on,82,80,0
1,note_on,87,95,0
1,note_on,87,0,360
1,note_on,75,0,0
1,note_on,79,0,0
1,note_on,82,0,0
1,note_on,75,90,0
1,note_on,75,0,114
1,note_on,75,94,6
1,note_on,75,0,120
1,note_on,75,80,120
1,note_on,80,80,0
1,note_on,83,80,0
1,note_on,87,95,0
1,note_on,87,0,360
1,note_on,75,0,0
1,note_on,80,0,0
1,note_on,83,0,0
1,note_on,75,90,0
1,note_on,75,0,114
1,note_on,75,94,6
1,note_on,75,0,120
1,note_on,63,40,120
1,note_on,67,40,0
1,note_on,70,40,0
1,note_on,75,54,0
1,note_on,75,0,360
1,note_on,63,0,0
1,note_on,67,0,0
1,note_on,70,0,0
1,note_on,63,54,0
1,note_on,63,0,114
1,note_on,63,54,6
1,note_on,63,0,120
1,note_on,63,40,120
1,note_on,68,40,0
1,note_on,71,40,0
1,note_on,75,54,0
1,note_on,75,0,360
1,note_on,63,0,0
1,note_on,68,0,0
1,note_on,71,0,0
1,note_on,63,53,0
1,note_on,63,0,114
1,note_on,63,55,6
1,note_on,63,0,120
1,note_on,63,40,120
1,note_on,67,40,0
1,note_on,70,40,0
1,note_on,75,54,0
1,note_on,75,0,360
1,note_on,63,0,0
1,note_on,67,0,0
1,note_on,70,0,0
1,note_on,63,54,0
1,note_on,63,0,114
1,note_on,63,54,6
1,note_on,63,0,120
1,note_on,63,40,120
1,note_on,68,40,0
1,note_on,71,40,0
1,note_on,75,54,0
1,note_on,75,0,360
1,note_on,63,0,0
1,note_on,68,0,0
1,note_on,71,0,0
1,note_on,63,53,0
1,note_on,63,0,114
1,note_on,63,55,6
1,note_on,63,0,120
1,note_on,51,32,120
1,note_on,55,32,0
1,note_on,58,32,0
1,note_on,63,37,0
1,note_on,63,0,360
1,note_on,51,0,0
1,note_on,55,0,0
1,note_on,58,0,0
1,note_on,51,41,0
1,note_on,51,0,114
1,note_on,51,41,6
1,note_on,51,0,120
1,note_on,51,30,120
1,note_on,56,30,0
1,note_on,59,30,0
1,note_on,63,34,0
1,note_on,63,0,360
1,note_on,51,0,0
1,note_on,56,0,0
1,note_on,59,0,0
1,note_on,51,37,0
1,note_on,51,0,114
1,note_on,51,39,6
1,note_on,51,0,120
1,note_on,51,27,120
1,note_on,56,27,0
1,note_on,58,27,0
1,note_on,63,32,0
1,note_on,63,0,360
1,note_on,51,0,0
1,note_on,56,0,0
1,note_on,58,0,0
1,note_on,51,36,0
1,note_on,51,0,114
1,note_on,51,35,6
1,note_on,51,0,120
1,note_on,51,25,120
1,note_on,55,25,0
1,note_on,58,25,0
1,note_on,63,29,0
1,note_on,63,0,360
1,note_on,51,0,0
1,note_on,55,0,0
1,note_on,58,0,0
1,note_on,51,32,0
1,note_on,51,0,114
1,note_on,51,33,6
1,note_on,51,0,120
1,note_on,63,36,120
1,note_on,72,36,0
1,note_on,75,42,0
1,note_on,75,0,360
1,note_on,72,0,0
1,note_on,63,0,0
1,note_on,63,34,0
1,note_on,72,34,0
1,note_on,75,40,0
1,note_on,75,0,114
1,note_on,72,0,0
1,note_on,63,0,0
1,note_on,63,36,6
1,note_on,72,36,0
1,note_on,75,42,0
1,note_on,75,0,120
1,note_on,72,0,0
1,note_on,63,0,0
1,note_on,63,36,120
1,note_on,72,36,0
1,note_on,75,42,0
1,note_on,75,0,360
1,note_on,72,0,0
1,note_on,63,0,0
1,note_on,63,34,0
1,note_on,72,34,0
1,note_on,75,40,0
1,note_on,75,0,114
1,note_on,72,0,0
1,note_on,63,0,0
1,note_on,63,36,6
1,note_on,72,36,0
1,note_on,75,42,0
1,note_on,75,0,120
1,note_on,72,0,0
1,note_on,63,0,0
1,note_on,63,40,120
1,note_on,71,40,0
1,note_on,75,48,0
1,note_on,75,0,120
1,note_on,71,0,0
1,note_on,63,0,0
1,note_on,72,43,0
1,note_on,72,0,120
1,note_on,68,43,0
1,note_on,68,0,120
1,note_on,63,43,0
1,note_on,63,0,120
1,note_on,60,48,0
1,note_on,60,0,120
1,note_on,63,50,120
1,note_on,63,0,120
1,note_on,68,44,0
1,note_on,68,0,120
1,note_on,72,44,0
1,note_on,72,0,120
1,note_on,75,44,0
1,note_on,75,0,120
1,note_on,80,47,0
1,note_on,80,0,120
1,note_on,81,46,120
1,note_on,69,39,0
1,note_on,69,0,60
1,note_on,81,0,0
1,note_on,70,43,180
1,note_on,82,51,0
1,note_on,82,0,480
1,note_on,70,0,0
1,note_on,62,51,0
1,note_on,62,0,120
1,note_on,63,42,0
1,note_on,63,0,120
1,note_on,58,45,0
1,note_on,58,0,120
1,note_on,55,42,0
1,note_on,55,0,120
1,note_on,51,45,0
1,note_on,51,0,120
1,note_on,63,45,120
1,note_on,73,45,0
1,note_on,75,53,0
1,note_on,75,0,360
1,note_on,73,0,0
1,note_on,63,0,0
1,note_on,63,43,0
1,note_on,73,43,0
1,note_on,75,51,0
1,note_on,75,0,114
1,note_on,73,0,0
1,note_on,63,0,0
1,note_on,63,45,6
1,note_on,73,45,0
1,note_on,75,53,0
1,note_on,75,0,120
1,note_on,73,0,0
1,note_on,63,0,0
1,note_on,63,45,120
1,note_on,73,45,0
1,note_on,75,53,0
1,note_on,75,0,360
1,note_on,73,0,0
1,note_on,63,0,0
1,note_on,63,43,0
1,note_on,73,43,0
1,note_on,75,51,0
1,note_on,75,0,114
1,note_on,73,0,0
1,note_on,63,0,0
1,note_on,63,45,6
1,note_on,73,45,0
1,note_on,75,53,0
1,note_on,75,0,120
1,note_on,73,0,0
1,note_on,63,0,0
1,note_on,63,40,120
1,note_on,72,40,0
1,note_on,75,48,0
1,note_on,75,0,120
1,note_on,72,0,0
1,note_on,63,0,0
1,note_on,73,43,0
1,note_on,73,0,120
1,note_on,70,43,0
1,note_on,70,0,120
1,note_on,67,43,0
1,note_on,67,0,120
1,note_on,63,48,0
1,note_on,63,0,120
1,note_on,67,50,120
1,note_on,67,0,120
1,note_on,70,44,0
1,note_on,70,0,120
1,note_on,73,44,0
1,note_on,73,0,120
1,note_on,75,44,0
1,note_on,75,0,120
1,note_on,79,47,0
1,note_on,79,0,120
1,note_on,83,46,120
1,note_on,71,39,0
1,note_on,71,0,60
1,note_on,83,0,0
1,note_on,72,43,180
1,note_on,84,51,0
1,note_on,84,0,480
1,note_on,72,0,0
1,note_on,67,51,0
1,note_on,67,0,120
1,note_on,68,42,0
1,note_on,68,0,120
1,note_on,63,45,0
1,note_on,63,0,120
1,note_on,60,42,0
1,note_on,60,0,120
1,note_on,56,45,0
1,note_on,56,0,120
1,note_on,66,75,120
1,note_on,68,75,0
1,note_on,75,75,0
1,note_on,78,89,0
1,note_on,78,0,360
1,note_on,66,0,0
1,note_on,68,0,0
1,note_on,75,0,0
1,note_on,66,72,0
1,note_on,68,72,0
1,note_on,75,72,0
1,note_on,78,85,0
1,note_on,78,0,114
1,note_on,66,0,0
1,note_on,68,0,0
1,note_on,75,0,0
1,note_on,66,75,6
1,note_on,68,75,0
1,note_on,75,75,0
1,note_on,78,89,0
1,note_on,78,0,120
1,note_on,66,0,0
1,note_on,68,0,0
1,note_on,75,0,0
1,note_on,76,85,120
1,note_on,76,0,120
1,note_on,77,70,0
1,note_on,77,0,120
1,note_on,73,75,0
1,note_on,73,0,120
1,note_on,68,70,0
1,note_on,68,0,120
1,note_on,65,76,0
1,note_on,65,0,120
1,note_on,63,75,120
1,note_on,65,75,0
1,note_on,72,75,0
1,note_on,75,89,0
1,note_on,75,0,360
1,note_on,63,0,0
1,note_on,65,0,0
1,note_on,72,0,0
1,note_on,63,72,0
1,note_on,65,72,0
1,note_on,72,72,0
1,note_on,75,85,0
1,note_on,75,0,114
1,note_on,63,0,0
1,note_on,65,0,0
1,note_on,72,0,0
1,note_on,63,75,6
1,note_on,65,75,0
1,note_on,72,75,0
1,note_on,75,89,0
1,note_on,75,0,120
1,note_on,63,0,0
1,note_on,65,0,0
1,note_on,72,0,0
1,note_on,72,85,120
1,note_on,72,0,120
1,note_on,73,70,0
1,note_on,73,0,120
1,note_on,70,75,0
1,note_on,70,0,120
1,note_on,65,70,0
1,note_on,65,0,120
1,note_on,61,76,0
1,note_on,61,0,120
1,note_on,84,59,120
1,note_on,84,0,120
1,note_on,85,49,0
1,note_on,85,0,120
1,note_on,82,52,0
1,note_on,82,0,120
1,note_on,79,49,0
1,note_on,79,0,120
1,note_on,73,53,0
1,note_on,73,0,120
1,note_on,83,64,120
1,note_on,83,0,120
1,note_on,84,53,0
1,note_on,84,0,120
1,note_on,80,57,0
1,note_on,80,0,120
1,note_on,75,53,0
1,note_on,75,0,120
1,note_on,72,58,0
1,note_on,72,0,120
1,note_on,75,76,120
1,note_on,75,0,120
1,note_on,76,63,0
1,note_on,76,0,120
1,note_on,73,68,0
1,note_on,73,0,120
1,note_on,70,63,0
1,note_on,70,0,120
1,note_on,64,69,0
1,note_on,64,0,120
1,note_on,74,84,120
1,note_on,74,0,120
1,note_on,75,69,0
1,note_on,75,0,120
1,note_on,71,74,0
1,note_on,71,0,120
1,note_on,68,69,0
1,note_on,68,0,120
1,note_on,63,75,0
1,note_on,63,0,120
1,note_on,75,80,120
1,note_on,68,80,0
1,note_on,80,94,0
1,note_on,80,0,360
1,note_on,68,0,0
1,note_on,75,0,0
1,note_on,68,76,0
1,note_on,75,76,0
1,note_on,80,91,0
1,note_on,80,0,114
1,note_on,75,0,0
1,note_on,68,0,0
1,note_on,75,76,6
1,note_on,68,76,0
1,note_on,80,91,0
1,note_on,80,0,240
1,note_on,68,0,0
1,note_on,75,0,0
1,note_on,75,81,0
1,note_on,68,81,0
1,note_on,80,97,0
1,note_on,80,0,228
1,note_on,68,0,0
1,note_on,75,0,0
1,note_on,68,75,12
1,note_on,75,75,0
1,note_on,80,90,0
1,note_on,80,0,228
1,note_on,75,0,0
1,note_on,68,0,0
1,note_on,75,75,12
1,note_on,68,75,0
1,note_on,80,90,0
1,note_on,80,0,228
1,note_on,68,0,0
1,note_on,75,0,0
1,note_on,68,65,12
1,note_on,74,77,0
1,note_on,74,0,120
1,note_on,68,0,0
1,note_on,80,79,0
1,note_on,80,0,120
1,note_on,68,68,0
1,note_on,74,81,0
1,note_on,74,0,120
1,note_on,68,0,0
1,note_on,80,83,0
1,note_on,80,0,120
1,note_on,68,72,0
1,note_on,74,85,0
1,note_on,74,0,120
1,note_on,68,0,0
1,note_on,80,86,0
1,note_on,80,0,120
1,note_on,68,74,0
1,note_on,74,88,0
1,note_on,74,0,120
1,note_on,68,0,0
1,note_on,80,90,0
1,note_on,80,0,120
1,note_on,68,78,0
1,note_on,74,92,0
1,note_on,74,0,120
1,note_on,68,0,0
1,note_on,80,94,0
1,note_on,80,0,120
1,note_on,68,80,0
1,note_on,74,95,0
1,note_on,74,0,120
1,note_on,68,0,0
1,note_on,80,97,0
1,note_on,80,0,120
1,note_on,68,90,0
1,note_on,74,90,0
1,note_on,80,106,0
1,note_on,80,0,240
1,note_on,74,0,0
1,note_on,68,0,0
1,note_on,70,80,0
1,note_on,74,80,0
1,note_on,80,80,0
1,note_on,82,95,0
1,note_on,82,0,120
1,note_on,70,0,0
1,note_on,74,0,0
1,note_on,80,0,0
1,note_on,70,80,120
1,note_on,74,80,0
1,note_on,80,80,0
1,note_on,82,95,0
1,note_on,82,0,120
1,note_on,70,0,0
1,note_on,74,0,0
1,note_on,80,0,0
1,note_on,70,88,120
1,note_on,74,88,0
1,note_on,80,88,0
1,note_on,82,104,0
1,note_on,82,0,120
1,note_on,70,0,0
1,note_on,74,0,0
1,note_on,80,0,0
1,note_on,70,80,120
1,note_on,74,80,0
1,note_on,80,80,0
1,note_on,82,95,0
1,note_on,82,0,120
1,note_on,70,0,0
1,note_on,74,0,0
1,note_on,80,0,0
1,note_on,70,80,120
1,note_on,74,80,0
1,note_on,80,80,0
1,note_on,82,95,0
1,note_on,82,0,120
1,note_on,70,0,0
1,note_on,74,0,0
1,note_on,80,0,0
1,note_on,72,80,120
1,note_on,75,80,0
1,note_on,80,80,0
1,note_on,84,95,0
1,note_on,84,0,120
1,note_on,72,0,0
1,note_on,75,0,0
1,note_on,80,0,0
1,note_on,87,95,120
1,note_on,84,80,0
1,note_on,80,80,0
1,note_on,75,80,0
1,note_on,75,0,120
1,note_on,87,0,0
1,note_on,84,0,0
1,note_on,80,0,0
1,note_on,75,80,360
1,note_on,79,80,0
1,note_on,82,95,0
1,note_on,82,0,120
1,note_on,79,0,0
1,note_on,75,0,0
1,note_on,87,95,120
1,note_on,79,80,0
1,note_on,75,80,0
1,note_on,75,0,120
1,note_on,79,0,0
1,note_on,87,0,0
1,note_on,63,40,360
1,note_on,68,40,0
1,note_on,72,47,0
1,note_on,72,0,90
1,note_on,68,0,0
1,note_on,63,0,0
1,note_on,75,47,150
1,note_on,72,40,0
1,note_on,63,40,0
1,note_on,63,0,90
1,note_on,72,0,0
1,note_on,75,0,0
1,note_on,63,40,390
1,note_on,67,40,0
1,note_on,70,47,0
1,note_on,70,0,90
1,note_on,67,0,0
1,note_on,63,0,0
1,note_on,75,47,150
1,note_on,67,40,0
1,note_on,63,40,0
1,note_on,63,0,90
1,note_on,67,0,0
1,note_on,75,0,0
1,note_on,63,41,390
1,note_on,75,49,0
1,note_on,75,0,360
1,note_on,63,0,0
1,note_on,75,44,0
1,note_on,63,36,0
1,note_on,63,0,114
1,note_on,75,0,0
1,note_on,63,39,6
1,note_on,75,46,0
1,note_on,75,0,240
1,note_on,63,0,0
1,note_on,68,41,0
1,note_on,80,49,0
1,note_on,80,0,360
1,note_on,68,0,0
1,note_on,80,44,0
1,note_on,68,36,0
1,note_on,68,0,114
1,note_on,80,0,0
1,note_on,68,40,6
1,note_on,80,48,0
1,note_on,80,0,240
1,note_on,68,0,0
1,note_on,67,41,0
1,note_on,79,49,0
1,note_on,79,0,360
1,note_on,67,0,0
1,note_on,79,44,0
1,note_on,67,36,0
1,note_on,67,0,114
1,note_on,79,0,0
1,note_on,67,40,6
1,note_on,79,48,0
1,note_on,79,0,240
1,note_on,67,0,0
1,note_on,73,41,0
1,note_on,85,49,0
1,note_on,85,0,720
1,note_on,73,0,0
1,note_on,72,41,0
1,note_on,84,49,0
1,note_on,84,0,360
1,note_on,72,0,0
1,note_on,84,44,0
1,note_on,72,36,0
1,note_on,72,0,120
1,note_on,84,0,0
1,note_on,68,40,0
1,note_on,80,48,0
1,note_on,80,0,240
1,note_on,68,0,0
1,note_on,65,41,0
1,note_on,77,49,0
1,note_on,77,0,360
1,note_on,65,0,0
1,note_on,77,44,0
1,note_on,65,36,0
1,note_on,65,0,120
1,note_on,77,0,0
1,note_on,70,40,0
1,note_on,82,48,0
1,note_on,82,0,240
1,note_on,70,0,0
1,note_on,67,41,0
1,note_on,79,49,0
1,note_on,79,0,360
1,note_on,67,0,0
1,note_on,79,44,0
1,note_on,67,36,0
1,note_on,67,0,120
1,note_on,79,0,0
1,note_on,70,40,0
1,note_on,82,48,0
1,note_on,82,0,240
1,note_on,70,0,0
1,note_on,63,41,0
1,note_on,75,49,0
1,note_on,75,0,360
1,note_on,63,0,0
1,note_on,84,47,0
1,note_on,84,0,120
1,note_on,85,47,0
1,note_on,85,0,120
1,note_on,86,47,0
1,note_on,86,0,120
1,note_on,75,45,0
1,note_on,87,54,0
1,note_on,87,0,360
1,note_on,75,0,0
1,note_on,87,47,0
1,note_on,75,40,0
1,note_on,75,0,114
1,note_on,87,0,0
1,note_on,75,43,6
1,note_on,87,51,0
1,note_on,87,0,240
1,note_on,75,0,0
1,note_on,80,45,0
1,note_on,92,54,0
1,note_on,92,0,360
1,note_on,80,0,0
1,note_on,92,47,0
1,note_on,80,40,0
1,note_on,80,0,114
1,note_on,92,0,0
1,note_on,80,44,6
1,note_on,92,53,0
1,note_on,92,0,240
1,note_on,80,0,0
1,note_on,79,45,0
1,note_on,91,54,0
1,note_on,91,0,360
1,note_on,79,0,0
1,note_on,91,47,0
1,note_on,79,40,0
1,note_on,79,0,114
1,note_on,91,0,0
1,note_on,79,44,6
1,note_on,91,53,0
1,note_on,91,0,240
1,note_on,79,0,0
1,note_on,85,45,0
1,note_on,97,54,0
1,note_on,97,0,720
1,note_on,85,0,0
1,note_on,84,45,0
1,note_on,96,54,0
1,note_on,96,0,360
1,note_on,84,0,0
1,note_on,96,47,0
1,note_on,84,40,0
1,note_on,84,0,120
1,note_on,96,0,0
1,note_on,80,44,0
1,note_on,92,53,0
1,note_on,92,0,240
1,note_on,80,0,0
1,note_on,77,45,0
1,note_on,89,54,0
1,note_on,89,0,360
1,note_on,77,0,0
1,note_on,89,47,0
1,note_on,77,40,0
1,note_on,77,0,120
1,note_on,89,0,0
1,note_on,82,44,0
1,note_on,94,53,0
1,note_on,94,0,240
1,note_on,82,0,0
1,note_on,79,45,0
1,note_on,91,54,0
1,note_on,91,0,360
1,note_on,79,0,0
1,note_on,91,47,0
1,note_on,79,40,0
1,note_on,79,0,120
1,note_on,91,0,0
1,note_on,82,44,0
1,note_on,94,53,0
1,note_on,94,0,240
1,note_on,82,0,0
1,note_on,80,45,0
1,note_on,92,54,0
1,note_on,92,0,720
1,note_on,80,0,0
1,note_on,67,75,0
1,note_on,70,75,0
1,note_on,73,75,0
1,note_on,75,75,0
1,note_on,79,89,0
1,note_on,79,0,240
1,note_on,73,0,0
1,note_on,67,0,0
1,note_on,70,0,0
1,note_on,75,0,0
1,note_on,68,77,480
1,note_on,72,77,0
1,note_on,75,77,0
1,note_on,80,91,0
1,note_on,80,0,240
1,note_on,68,0,0
1,note_on,72,0,0
1,note_on,75,0,0
1,note_on,68,45,480
1,note_on,68,0,720
1,note_on,68,45,0
1,note_on,68,0,720
1,note_on,67,46,0
1,note_on,67,0,240
1,note_on,70,42,0
1,note_on,70,0,240
1,note_on,68,45,0
1,note_on,68,0,480
1,note_on,68,42,0
1,note_on,68,0,220
1,note_on,68,43,20
1,note_on,68,0,220
1,note_on,67,46,20
1,note_on,67,0,240
1,note_on,70,42,0
1,note_on,70,0,240
1,note_on,68,45,0
1,note_on,68,0,480
1,note_on,68,43,0
1,note_on,68,0,220
1,note_on,68,43,20
1,note_on,68,0,220
1,note_on,67,47,20
1,note_on,67,0,240
1,note_on,70,44,0
1,note_on,70,0,240
1,note_on,68,44,0
1,note_on,68,0,240
1,note_on,67,49,0
1,note_on,67,0,240
1,note_on,70,44,0
1,note_on,70,0,240
1,note_on,68,44,0
1,note_on,68,0,240
1,note_on,67,48,0
1,note_on,67,0,240
1,note_on,70,45,0
1,note_on,70,0,240
1,note_on,68,45,0
1,note_on,68,0,240
1,note_on,73,48,0
1,note_on,73,0,720
1,note_on,67,48,0
1,note_on,67,0,240
1,note_on,70,45,0
1,note_on,70,0,240
1,note_on,68,45,0
1,note_on,68,0,240
1,note_on,73,48,0
1,note_on,73,0,720
1,note_on,74,48,0
1,note_on,74,0,240
1,note_on,77,45,0
1,note_on,77,0,240
1,note_on,75,45,0
1,note_on,75,0,240
1,note_on,68,48,0
1,note_on,68,0,720
1,note_on,74,48,0
1,note_on,74,0,240
1,note_on,77,45,0
1,note_on,77,0,240
1,note_on,75,45,0
1,note_on,75,0,240
1,note_on,68,48,0
1,note_on,68,0,720
1,note_on,68,51,0
1,note_on,68,0,240
1,note_on,78,55,0
1,note_on,78,0,240
1,note_on,77,53,0
1,note_on,77,0,240
1,note_on,75,59,0
1,note_on,75,0,240
1,note_on,73,56,0
1,note_on,73,0,240
1,note_on,65,43,0
1,note_on,72,51,0
1,note_on,65,0,240
1,note_on,61,40,0
1,note_on,72,0,240
1,note_on,70,45,0
1,note_on,70,0,240
1,note_on,75,45,0
1,note_on,75,0,240
1,note_on,61,0,0
1,note_on,60,40,0
1,note_on,68,48,0
1,note_on,68,0,360
1,note_on,60,0,0
1,note_on,68,43,0
1,note_on,68,0,120
1,note_on,70,43,0
1,note_on,70,0,120
1,note_on,68,43,0
1,note_on,68,0,120
1,note_on,67,48,0
1,note_on,67,0,240
1,note_on,70,45,0
1,note_on,70,0,240
1,note_on,68,45,0
1,note_on,68,0,240
1,note_on,73,48,0
1,note_on,73,0,720
1,note_on,67,48,0
1,note_on,67,0,240
1,note_on,70,45,0
1,note_on,70,0,240
1,note_on,68,45,0
1,note_on,68,0,240
1,note_on,73,48,0
1,note_on,73,0,720
1,note_on,74,48,0
1,note_on,74,0,240
1,note_on,77,45,0
1,note_on,77,0,240
1,note_on,75,45,0
1,note_on,75,0,240
1,note_on,68,48,0
1,note_on,68,0,720
1,note_on,74,48,0
1,note_on,74,0,240
1,note_on,77,45,0
1,note_on,77,0,240
1,note_on,75,45,0
1,note_on,75,0,240
1,note_on,68,48,0
1,note_on,68,0,720
1,note_on,68,51,0
1,note_on,68,0,240
1,note_on,78,55,0
1,note_on,78,0,240
1,note_on,77,53,0
1,note_on,77,0,240
1,note_on,75,59,0
1,note_on,75,0,240
1,note_on,73,56,0
1,note_on,73,0,240
1,note_on,66,43,0
1,note_on,72,51,0
1,note_on,72,0,240
1,note_on,66,0,0
1,note_on,70,51,0
1,note_on,65,40,0
1,note_on,70,0,240
1,note_on,75,55,0
1,note_on,75,0,240
1,note_on,73,53,0
1,note_on,73,0,240
1,note_on,72,52,0
1,note_on,72,0,240
1,note_on,70,49,0
1,note_on,70,0,240
1,note_on,68,45,0
1,note_on,65,0,240
1,note_on,64,42,0
1,note_on,68,0,240
1,note_on,67,45,0
1,note_on,67,0,240
1,note_on,72,45,0
1,note_on,72,0,240
1,note_on,64,0,0
1,note_on,68,45,0
1,note_on,60,42,0
1,note_on,68,0,240
1,note_on,67,45,0
1,note_on,67,0,240
1,note_on,73,45,0
1,note_on,73,0,240
1,note_on,60,0,0
1,note_on,68,45,0
1,note_on,64,42,0
1,note_on,68,0,240
1,note_on,67,45,0
1,note_on,67,0,240
1,note_on,72,45,0
1,note_on,72,0,240
1,note_on,64,0,0
1,note_on,65,45,0
1,note_on,65,0,240
1,note_on,60,42,2280
1,note_on,63,42,0
1,note_on,66,50,0
1,note_on,66,0,120
1,note_on,68,55,0
1,note_on,68,0,120
1,note_on,66,51,0
1,note_on,66,0,120
1,note_on,65,61,0
1,note_on,65,0,240
1,note_on,72,55,0
1,note_on,72,0,120
1,note_on,63,0,0
1,note_on,60,0,0
1,note_on,61,42,2160
1,note_on,67,50,0
1,note_on,67,0,120
1,note_on,68,55,0
1,note_on,68,0,120
1,note_on,67,51,0
1,note_on,67,0,120
1,note_on,61,0,0
1,note_on,60,42,0
1,note_on,68,61,0
1,note_on,68,0,240
1,note_on,75,55,0
1,note_on,75,0,120
1,note_on,60,0,0
1,note_on,60,31,2160
1,note_on,69,38,0
1,note_on,69,0,120
1,note_on,70,41,0
1,note_on,70,0,120
1,note_on,69,38,0
1,note_on,69,0,120
1,note_on,60,0,0
1,note_on,61,31,0
1,note_on,70,46,0
1,note_on,70,0,720
1,note_on,61,0,0
1,note_on,60,31,360
1,note_on,69,38,0
1,note_on,69,0,120
1,note_on,70,41,0
1,note_on,70,0,120
1,note_on,69,38,0
1,note_on,69,0,120
1,note_on,60,0,0
1,note_on,61,31,0
1,note_on,70,46,0
1,note_on,70,0,720
1,note_on,61,0,0
1,note_on,60,31,360
1,note_on,69,38,0
1,note_on,69,0,120
1,note_on,70,41,0
1,note_on,69,38,93
1,note_on,70,0,27
1,note_on,69,0,93
1,note_on,60,0,27
1,note_on,61,31,0
1,note_on,70,46,0
1,note_on,61,0,480
1,note_on,62,48,0
1,note_on,62,0,240
1,note_on,70,0,0
1,note_on,63,45,0
1,note_on,73,53,0
1,note_on,73,0,240
1,note_on,71,47,0
1,note_on,71,0,240
1,note_on,63,0,0
1,note_on,61,40,0
1,note_on,70,48,0
1,note_on,61,0,240
1,note_on,60,41,0
1,note_on,70,0,240
1,note_on,68,42,0
1,note_on,68,0,240
1,note_on,60,0,0
1,note_on,61,36,0
1,note_on,70,42,0
1,note_on,70,0,240
1,note_on,61,0,0
1,note_on,58,41,0
1,note_on,66,49,0
1,note_on,66,0,480
1,note_on,58,0,0
1,note_on,61,40,0
1,note_on,70,48,0
1,note_on,70,0,240
1,note_on,61,0,0
1,note_on,64,45,0
1,note_on,73,53,0
1,note_on,64,0,240
1,note_on,67,49,0
1,note_on,67,0,240
1,note_on,66,50,0
1,note_on,66,0,240
1,note_on,64,44,0
1,note_on,64,0,240
1,note_on,73,0,0
1,note_on,71,44,0
1,note_on,63,37,0
1,note_on,63,0,240
1,note_on,71,0,0
1,note_on,70,44,0
1,note_on,61,37,0
1,note_on,61,0,240
1,note_on,60,40,0
1,note_on,70,0,240
1,note_on,68,44,0
1,note_on,68,0,240
1,note_on,60,0,0
1,note_on,70,44,0
1,note_on,61,37,0
1,note_on,61,0,240
1,note_on,70,0,0
1,note_on,58,41,0
1,note_on,66,49,0
1,note_on,66,0,480
1,note_on,70,49,0
1,note_on,70,0,240
1,note_on,58,0,0
1,note_on,59,41,0
1,note_on,68,49,0
1,note_on,68,0,480
1,note_on,70,47,0
1,note_on,70,0,240
1,note_on,59,0,0
1,note_on,58,39,0
1,note_on,66,46,0
1,note_on,66,0,480
1,note_on,70,45,0
1,note_on,70,0,240
1,note_on,58,0,0
1,note_on,59,37,0
1,note_on,68,44,0
1,note_on,68,0,480
1,note_on,70,42,0
1,note_on,70,0,240
1,note_on,59,0,0
1,note_on,58,37,0
1,note_on,66,40,0
1,note_on,66,0,720
1,note_on,65,40,0
1,note_on,65,0,720
1,note_on,64,38,0
1,note_on,64,0,720
1,note_on,58,0,0
1,note_on,63,37,0
1,note_on,63,0,480
1,note_on,68,35,0
1,note_on,68,0,240
1,note_on,67,47,0
1,note_on,67,0,240
1,note_on,70,44,0
1,note_on,70,0,240
1,note_on,68,44,0
1,note_on,68,0,240
1,note_on,73,47,0
1,note_on,73,0,720
1,note_on,67,47,0
1,note_on,67,0,240
1,note_on,70,44,0
1,note_on,70,0,240
1,note_on,68,44,0
1,note_on,68,0,240
1,note_on,73,47,0
1,note_on,73,0,720
1,note_on,74,47,0
1,note_on,74,0,240
1,note_on,77,44,0
1,note_on,77,0,240
1,note_on,75,44,0
1,note_on,75,0,240
1,note_on,68,47,0
1,note_on,68,0,720
1,note_on,74,47,0
1,note_on,74,0,240
1,note_on,77,44,0
1,note_on,77,0,240
1,note_on,75,44,0
1,note_on,75,0,240
1,note_on,68,47,0
1,note_on,68,0,720
1,note_on,68,49,0
1,note_on,68,0,240
1,note_on,78,53,0
1,note_on,78,0,240
1,note_on,77,51,0
1,note_on,77,0,240
1,note_on,73,49,0
1,note_on,73,0,240
1,note_on,82,53,0
1,note_on,82,0,240
1,note_on,80,51,0
1,note_on,80,0,240
1,note_on,66,41,0
1,note_on,75,49,0
1,note_on,75,0,240
1,note_on,66,0,0
1,note_on,70,45,0
1,note_on,78,53,0
1,note_on,78,0,240
1,note_on,70,0,0
1,note_on,68,43,0
1,note_on,77,51,0
1,note_on,77,0,240
1,note_on,68,0,0
1,note_on,73,49,0
1,note_on,73,0,360
1,note_on,80,49,0
1,note_on,80,0,120
1,note_on,82,49,0
1,note_on,82,0,120
1,note_on,80,49,0
1,note_on,80,0,120
1,note_on,67,39,0
1,note_on,79,47,0
1,note_on,79,0,240
1,note_on,67,0,0
1,note_on,70,37,0
1,note_on,82,44,0
1,note_on,82,0,240
1,note_on,70,0,0
1,note_on,68,37,0
1,note_on,80,44,0
1,note_on,80,0,240
1,note_on,68,0,0
1,note_on,73,39,0
1,note_on,85,47,0
1,note_on,85,0,720
1,note_on,73,0,0
1,note_on,67,39,0
1,note_on,79,47,0
1,note_on,79,0,240
1,note_on,67,0,0
1,note_on,70,37,0
1,note_on,82,44,0
1,note_on,82,0,240
1,note_on,70,0,0
1,note_on,68,37,0
1,note_on,80,44,0
1,note_on,80,0,240
1,note_on,68,0,0
1,note_on,73,39,0
1,note_on,85,47,0
1,note_on,85,0,720
1,note_on,73,0,0
1,note_on,74,39,0
1,note_on,86,47,0
1,note_on,86,0,240
1,note_on,74,0,0
1,note_on,77,37,0
1,note_on,89,44,0
1,note_on,89,0,240
1,note_on,77,0,0
1,note_on,75,37,0
1,note_on,87,44,0
1,note_on,87,0,240
1,note_on,75,0,0
1,note_on,68,39,0
1,note_on,80,47,0
1,note_on,80,0,720
1,note_on,68,0,0
1,note_on,74,39,0
1,note_on,86,47,0
1,note_on,86,0,240
1,note_on,74,0,0
1,note_on,77,37,0
1,note_on,89,44,0
1,note_on,89,0,240
1,note_on,77,0,0
1,note_on,75,37,0
1,note_on,87,44,0
1,note_on,87,0,240
1,note_on,75,0,0
1,note_on,68,39,0
1,note_on,80,47,0
1,note_on,80,0,720
1,note_on,68,0,0
1,note_on,68,41,0
1,note_on,80,49,0
1,note_on,80,0,120
1,note_on,68,0,0
1,note_on,78,45,120
1,note_on,90,53,0
1,note_on,90,0,240
1,note_on,78,0,0
1,note_on,77,43,0
1,note_on,89,51,0
1,note_on,89,0,240
1,note_on,77,0,0
1,note_on,73,41,0
1,note_on,85,49,0
1,note_on,85,0,120
1,note_on,73,0,0
1,note_on,82,45,120
1,note_on,94,53,0
1,note_on,94,0,240
1,note_on,82,0,0
1,note_on,80,43,0
1,note_on,92,51,0
1,note_on,92,0,240
1,note_on,80,0,0
1,note_on,75,41,0
1,note_on,87,49,0
1,note_on,87,0,120
1,note_on,75,0,0
1,note_on,78,45,120
1,note_on,90,53,0
1,note_on,90,0,240
1,note_on,78,0,0
1,note_on,77,43,0
1,note_on,89,51,0
1,note_on,89,0,240
1,note_on,77,0,0
1,note_on,73,41,0
1,note_on,85,49,0
1,note_on,85,0,480
1,note_on,73,0,0
1,note_on,73,49,240
1,note_on,73,0,360
1,note_on,73,45,0
1,note_on,73,0,114
1,note_on,73,49,6
1,note_on,73,0,240
1,note_on,73,49,0
1,note_on,73,0,360
1,note_on,73,43,0
1,note_on,73,0,114
1,note_on,73,49,6
1,note_on,73,0,240
1,note_on,73,44,0
1,note_on,76,52,0
1,note_on,76,0,360
1,note_on,73,0,0
1,note_on,73,41,0
1,note_on,76,49,0
1,note_on,76,0,114
1,note_on,73,0,0
1,note_on,73,45,6
1,note_on,76,53,0
1,note_on,76,0,240
1,note_on,73,0,0
1,note_on,73,44,0
1,note_on,76,52,0
1,note_on,76,0,360
1,note_on,73,0,0
1,note_on,73,39,0
1,note_on,76,47,0
1,note_on,76,0,114
1,note_on,73,0,0
1,note_on,73,45,6
1,note_on,76,53,0
1,note_on,76,0,240
1,note_on,73,0,0
1,note_on,73,45,0
1,note_on,76,54,0
1,note_on,76,0,360
1,note_on,73,0,0
1,note_on,73,41,0
1,note_on,76,49,0
1,note_on,76,0,114
1,note_on,73,0,0
1,note_on,73,45,6
1,note_on,76,54,0
1,note_on,76,0,240
1,note_on,73,0,0
1,note_on,73,45,0
1,note_on,76,53,0
1,note_on,76,0,360
1,note_on,73,0,0
1,note_on,73,41,0
1,note_on,76,49,0
1,note_on,76,0,114
1,note_on,73,0,0
1,note_on,73,45,6
1,note_on,76,54,0
1,note_on,76,0,240
1,note_on,73,0,0
1,note_on,73,59,0
1,note_on,75,70,0
1,note_on,75,0,360
1,note_on,73,0,0
1,note_on,73,51,0
1,note_on,75,61,0
1,note_on,75,0,114
1,note_on,73,0,0
1,note_on,73,61,6
1,note_on,75,72,0
1,note_on,75,0,240
1,note_on,73,0,0
1,note_on,73,75,0
1,note_on,75,89,0
1,note_on,75,0,360
1,note_on,73,0,0
1,note_on,73,69,0
1,note_on,75,81,0
1,note_on,75,0,114
1,note_on,73,0,0
1,note_on,73,77,6
1,note_on,75,83,0
1,note_on,75,0,240
1,note_on,73,0,0
1,note_on,63,75,0
1,note_on,72,75,0
1,note_on,75,89,0
1,note_on,75,0,360
1,note_on,72,0,0
1,note_on,63,0,0
1,note_on,63,72,0
1,note_on,72,72,0
1,note_on,75,85,0
1,note_on,75,0,114
1,note_on,72,0,0
1,note_on,63,0,0
1,note_on,72,75,6
1,note_on,75,89,0
1,note_on,63,75,0
1,note_on,63,0,120
1,note_on,75,0,0
1,note_on,72,0,0
1,note_on,72,75,120
1,note_on,75,89,0
1,note_on,63,75,0
1,note_on,63,0,360
1,note_on,75,0,0
1,note_on,72,0,0
1,note_on,75,85,0
1,note_on,63,72,0
1,note_on,72,72,0
1,note_on,72,0,114
1,note_on,63,0,0
1,note_on,75,0,0
1,note_on,75,89,6
1,note_on,63,75,0
1,note_on,72,75,0
1,note_on,72,0,120
1,note_on,63,0,0
1,note_on,75,0,0
1,note_on,63,68,120
1,note_on,71,68,0
1,note_on,75,80,0
1,note_on,75,0,120
1,note_on,71,0,0
1,note_on,63,0,0
1,note_on,72,73,0
1,note_on,72,0,120
1,note_on,68,73,0
1,note_on,68,0,120
1,note_on,63,73,0
1,note_on,63,0,120
1,note_on,60,80,0
1,note_on,60,0,120
1,note_on,63,84,120
1,note_on,63,0,120
1,note_on,68,74,0
1,note_on,68,0,120
1,note_on,72,74,0
1,note_on,72,0,120
1,note_on,75,74,0
1,note_on,75,0,120
1,note_on,80,79,0
1,note_on,80,0,120
1,note_on,81,77,120
1,note_on,69,65,0
1,note_on,69,0,60
1,note_on,81,0,0
1,note_on,70,73,180
1,note_on,82,86,0
1,note_on,82,0,480
1,note_on,70,0,0
1,note_on,62,85,0
1,note_on,62,0,120
1,note_on,63,70,0
1,note_on,63,0,120
1,note_on,58,75,0
1,note_on,58,0,120
1,note_on,55,70,0
1,note_on,55,0,120
1,note_on,51,76,0
1,note_on,51,0,120
1,note_on,75,89,120
1,note_on,73,75,0
1,note_on,63,75,0
1,note_on,63,0,360
1,note_on,73,0,0
1,note_on,75,0,0
1,note_on,63,72,0
1,note_on,73,72,0
1,note_on,75,85,0
1,note_on,75,0,114
1,note_on,73,0,0
1,note_on,63,0,0
1,note_on,63,75,6
1,note_on,73,75,0
1,note_on,75,89,0
1,note_on,75,0,120
1,note_on,73,0,0
1,note_on,63,0,0
1,note_on,63,75,120
1,note_on,73,75,0
1,note_on,75,89,0
1,note_on,75,0,360
1,note_on,73,0,0
1,note_on,63,0,0
1,note_on,63,72,0
1,note_on,73,72,0
1,note_on,75,85,0
1,note_on,75,0,114
1,note_on,73,0,0
1,note_on,63,0,0
1,note_on,63,75,6
1,note_on,73,75,0
1,note_on,75,89,0
1,note_on,75,0,120
1,note_on,73,0,0
1,note_on,63,0,0
1,note_on,63,68,120
1,note_on,72,68,0
1,note_on,75,80,0
1,note_on,75,0,120
1,note_on,72,0,0
1,note_on,63,0,0
1,note_on,73,73,0
1,note_on,73,0,120
1,note_on,70,73,0
1,note_on,70,0,120
1,note_on,67,73,0
1,note_on,67,0,120
1,note_on,63,80,0
1,note_on,63,0,120
1,note_on,67,84,120
1,note_on,67,0,120
1,note_on,70,74,0
1,note_on,70,0,120
1,note_on,73,74,0
1,note_on,73,0,120
1,note_on,75,74,0
1,note_on,75,0,120
1,note_on,79,79,0
1,note_on,79,0,120
1,note_on,83,77,120
1,note_on,71,65,0
1,note_on,71,0,60
1,note_on,83,0,0
1,note_on,72,73,180
1,note_on,84,86,0
1,note_on,84,0,480
1,note_on,72,0,0
1,note_on,67,85,0
1,note_on,67,0,120
1,note_on,68,70,0
1,note_on,68,0,120
1,note_on,63,75,0
1,note_on,63,0,120
1,note_on,60,70,0
1,note_on,60,0,120
1,note_on,56,76,0
1,note_on,56,0,120
1,note_on,75,89,120
1,note_on,71,75,0
1,note_on,63,75,0
1,note_on,63,0,360
1,note_on,71,0,0
1,note_on,75,0,0
1,note_on,63,72,0
1,note_on,71,72,0
1,note_on,75,85,0
1,note_on,75,0,114
1,note_on,71,0,0
1,note_on,63,0,0
1,note_on,63,75,6
1,note_on,71,75,0
1,note_on,75,89,0
1,note_on,75,0,120
1,note_on,71,0,0
1,note_on,63,0,0
1,note_on,71,75,120
1,note_on,64,75,0
1,note_on,74,75,0
1,note_on,76,89,0
1,note_on,76,0,360
1,note_on,71,0,0
1,note_on,64,0,0
1,note_on,74,0,0
1,note_on,71,72,0
1,note_on,64,72,0
1,note_on,74,72,0
1,note_on,76,85,0
1,note_on,76,0,114
1,note_on,71,0,0
1,note_on,64,0,0
1,note_on,74,0,0
1,note_on,71,75,6
1,note_on,64,75,0
1,note_on,74,75,0
1,note_on,76,89,0
1,note_on,76,0,120
1,note_on,71,0,0
1,note_on,64,0,0
1,note_on,74,0,0
1,note_on,64,68,120
1,note_on,71,68,0
1,note_on,76,80,0
1,note_on,76,0,120
1,note_on,71,0,0
1,note_on,64,0,0
1,note_on,72,73,0
1,note_on,72,0,120
1,note_on,69,73,0
1,note_on,69,0,120
1,note_on,64,73,0
1,note_on,64,0,120
1,note_on,60,80,0
1,note_on,60,0,120
1,note_on,69,84,120
1,note_on,69,0,120
1,note_on,72,74,0
1,note_on,72,0,120
1,note_on,76,76,0
1,note_on,76,0,120
1,note_on,81,77,0
1,note_on,81,0,120
1,note_on,84,83,0
1,note_on,84,0,120
1,note_on,76,89,120
1,note_on,72,75,0
1,note_on,64,75,0
1,note_on,64,0,360
1,note_on,72,0,0
1,note_on,76,0,0
1,note_on,64,72,0
1,note_on,72,72,0
1,note_on,76,85,0
1,note_on,76,0,114
1,note_on,72,0,0
1,note_on,64,0,0
1,note_on,64,75,6
1,note_on,72,75,0
1,note_on,76,89,0
1,note_on,76,0,120
1,note_on,72,0,0
1,note_on,64,0,0
1,note_on,72,75,120
1,note_on,65,75,0
1,note_on,75,75,0
1,note_on,77,89,0
1,note_on,77,0,360
1,note_on,72,0,0
1,note_on,65,0,0
1,note_on,75,0,0
1,note_on,72,72,0
1,note_on,65,72,0
1,note_on,75,72,0
1,note_on,77,85,0
1,note_on,77,0,114
1,note_on,72,0,0
1,note_on,65,0,0
1,note_on,75,0,0
1,note_on,72,75,6
1,note_on,65,75,0
1,note_on,75,75,0
1,note_on,77,89,0
1,note_on,77,0,120
1,note_on,72,0,0
1,note_on,65,0,0
1,note_on,75,0,0
1,note_on,65,68,120
1,note_on,72,68,0
1,note_on,77,80,0
1,note_on,77,0,120
1,note_on,72,0,0
1,note_on,65,0,0
1,note_on,73,73,0
1,note_on,73,0,120
1,note_on,70,73,0
1,note_on,70,0,120
1,note_on,65,73,0
1,note_on,65,0,120
1,note_on,61,80,0
1,note_on,61,0,120
1,note_on,70,84,120
1,note_on,70,0,120
1,note_on,73,75,0
1,note_on,73,0,120
1,note_on,77,76,0
1,note_on,77,0,120
1,note_on,82,78,0
1,note_on,82,0,120
1,note_on,85,85,0
1,note_on,85,0,120
1,note_on,76,75,120
1,note_on,78,89,0
1,note_on,73,75,0
1,note_on,66,75,0
1,note_on,66,0,360
1,note_on,76,0,0
1,note_on,78,0,0
1,note_on,73,0,0
1,note_on,76,72,0
1,note_on,66,72,0
1,note_on,73,72,0
1,note_on,78,85,0
1,note_on,78,0,114
1,note_on,76,0,0
1,note_on,66,0,0
1,note_on,73,0,0
1,note_on,76,75,6
1,note_on,66,75,0
1,note_on,73,75,0
1,note_on,78,89,0
1,note_on,78,0,120
1,note_on,76,0,0
1,note_on,66,0,0
1,note_on,73,0,0
1,note_on,66,68,120
1,note_on,73,68,0
1,note_on,78,80,0
1,note_on,78,0,120
1,note_on,73,0,0
1,note_on,66,0,0
1,note_on,74,73,0
1,note_on,74,0,120
1,note_on,71,73,0
1,note_on,71,0,120
1,note_on,66,73,0
1,note_on,66,0,120
1,note_on,62,80,0
1,note_on,62,0,120
1,note_on,77,75,120
1,note_on,79,89,0
1,note_on,74,75,0
1,note_on,67,75,0
1,note_on,67,0,360
1,note_on,77,0,0
1,note_on,79,0,0
1,note_on,74,0,0
1,note_on,77,72,0
1,note_on,67,72,0
1,note_on,74,72,0
1,note_on,79,85,0
1,note_on,79,0,114
1,note_on,77,0,0
1,note_on,67,0,0
1,note_on,74,0,0
1,note_on,77,75,6
1,note_on,67,75,0
1,note_on,74,75,0
1,note_on,79,89,0
1,note_on,79,0,120
1,note_on,77,0,0
1,note_on,67,0,0
1,note_on,74,0,0
1,note_on,67,68,120
1,note_on,74,68,0
1,note_on,79,80,0
1,note_on,79,0,120
1,note_on,74,0,0
1,note_on,67,0,0
1,note_on,75,73,0
1,note_on,75,0,120
1,note_on,72,73,0
1,note_on,72,0,120
1,note_on,67,73,0
1,note_on,67,0,120
1,note_on,63,80,0
1,note_on,63,0,120
1,note_on,72,45,120
1,note_on,79,53,0
1,note_on,79,0,120
1,note_on,72,0,0
1,note_on,84,55,0
1,note_on,84,0,120
1,note_on,72,47,0
1,note_on,79,56,0
1,note_on,79,0,120
1,note_on,72,0,0
1,note_on,84,58,0
1,note_on,84,0,120
1,note_on,72,50,0
1,note_on,79,59,0
1,note_on,79,0,120
1,note_on,72,0,0
1,note_on,84,60,0
1,note_on,84,0,120
1,note_on,72,51,0
1,note_on,79,61,0
1,note_on,79,0,120
1,note_on,72,0,0
1,note_on,84,63,0
1,note_on,84,0,120
1,note_on,72,54,0
1,note_on,79,64,0
1,note_on,79,0,120
1,note_on,72,0,0
1,note_on,84,65,0
1,note_on,84,0,120
1,note_on,72,56,0
1,note_on,79,66,0
1,note_on,79,0,120
1,note_on,72,0,0
1,note_on,84,67,0
1,note_on,84,0,120
1,note_on,72,58,0
1,note_on,78,69,0
1,note_on,78,0,120
1,note_on,72,0,0
1,note_on,84,71,0
1,note_on,84,0,120
1,note_on,72,61,0
1,note_on,78,72,0
1,note_on,78,0,120
1,note_on,72,0,0
1,note_on,84,74,0
1,note_on,84,0,120
1,note_on,72,64,0
1,note_on,78,76,0
1,note_on,78,0,120
1,note_on,72,0,0
1,note_on,84,77,0
1,note_on,84,0,120
1,note_on,78,79,0
1,note_on,72,66,0
1,note_on,72,0,120
1,note_on,78,0,0
1,note_on,84,81,0
1,note_on,84,0,120
1,note_on,72,70,0
1,note_on,78,82,0
1,note_on,78,0,120
1,note_on,72,0,0
1,note_on,84,84,0
1,note_on,84,0,120
1,note_on,78,85,0
1,note_on,72,72,0
1,note_on,72,0,120
1,note_on,78,0,0
1,note_on,84,87,0
1,note_on,84,0,120
1,note_on,78,81,0
1,note_on,84,95,0
1,note_on,72,81,0
1,note_on,72,0,240
1,note_on,84,0,0
1,note_on,78,0,0
1,note_on,74,72,0
1,note_on,78,72,0
1,note_on,84,72,0
1,note_on,86,85,0
1,note_on,86,0,120
1,note_on,74,0,0
1,note_on,78,0,0
1,note_on,84,0,0
1,note_on,78,72,120
1,note_on,84,72,0
1,note_on,86,85,0
1,note_on,74,72,0
1,note_on,74,0,120
1,note_on,78,0,0
1,note_on,84,0,0
1,note_on,86,0,0
1,note_on,74,79,120
1,note_on,78,79,0
1,note_on,84,79,0
1,note_on,86,93,0
1,note_on,86,0,120
1,note_on,74,0,0
1,note_on,78,0,0
1,note_on,84,0,0
1,note_on,78,72,120
1,note_on,84,72,0
1,note_on,74,72,0
1,note_on,86,85,0
1,note_on,86,0,120
1,note_on,78,0,0
1,note_on,84,0,0
1,note_on,74,0,0
1,note_on,74,72,120
1,note_on,78,72,0
1,note_on,86,85,0
1,note_on,84,72,0
1,note_on,84,0,120
1,note_on,74,0,0
1,note_on,78,0,0
1,note_on,86,0,0
1,note_on,74,72,120
1,note_on,79,72,0
1,note_on,83,72,0
1,note_on,86,85,0
1,note_on,86,0,240
1,note_on,74,0,0
1,note_on,79,0,0
1,note_on,83,0,0
1,note_on,91,85,0
1,note_on,83,72,0
1,note_on,79,72,0
1,note_on,86,72,0
1,note_on,86,0,120
1,note_on,91,0,0
1,note_on,83,0,0
1,note_on,79,0,0
1,note_on,67,72,360
1,note_on,62,72,0
1,note_on,71,72,0
1,note_on,74,85,0
1,note_on,74,0,240
1,note_on,67,0,0
1,note_on,62,0,0
1,note_on,71,0,0
1,note_on,79,85,0
1,note_on,74,72,0
1,note_on,67,72,0
1,note_on,71,72,0
1,note_on,71,0,120
1,note_on,79,0,0
1,note_on,74,0,0
1,note_on,67,0,0
1,note_on,71,72,360
1,note_on,68,72,0
1,note_on,74,72,0
1,note_on,80,85,0
1,note_on,80,0,240
1,note_on,71,0,0
1,note_on,68,0,0
1,note_on,74,0,0
1,note_on,83,85,0
1,note_on,80,72,0
1,note_on,71,72,0
1,note_on,74,72,0
1,note_on,74,0,120
1,note_on,83,0,0
1,note_on,80,0,0
1,note_on,71,0,0
1,note_on,72,73,360
1,note_on,69,73,0
1,note_on,76,73,0
1,note_on,81,86,0
1,note_on,81,0,240
1,note_on,72,0,0
1,note_on,69,0,0
1,note_on,76,0,0
1,note_on,84,86,0
1,note_on,81,73,0
1,note_on,72,73,0
1,note_on,76,73,0
1,note_on,76,0,120
1,note_on,84,0,0
1,note_on,81,0,0
1,note_on,72,0,0
1,note_on,81,87,360
1,note_on,72,74,0
1,note_on,69,74,0
1,note_on,76,74,0
1,note_on,76,0,240
1,note_on,81,0,0
1,note_on,72,0,0
1,note_on,69,0,0
1,note_on,84,88,0
1,note_on,81,74,0
1,note_on,72,74,0
1,note_on,76,74,0
1,note_on,76,0,120
1,note_on,84,0,0
1,note_on,81,0,0
1,note_on,72,0,0
1,note_on,73,75,360
1,note_on,76,75,0
1,note_on,82,89,0
1,note_on,70,75,0
1,note_on,70,0,240
1,note_on,73,0,0
1,note_on,76,0,0
1,note_on,82,0,0
1,note_on,85,89,0
1,note_on,82,75,0
1,note_on,73,75,0
1,note_on,76,75,0
1,note_on,76,0,120
1,note_on,85,0,0
1,note_on,82,0,0
1,note_on,73,0,0
1,note_on,74,76,360
1,note_on,71,76,0
1,note_on,78,76,0
1,note_on,83,90,0
1,note_on,83,0,240
1,note_on,74,0,0
1,note_on,71,0,0
1,note_on,78,0,0
1,note_on,83,76,0
1,note_on,74,76,0
1,note_on,78,76,0
1,note_on,86,90,0
1,note_on,86,0,120
1,note_on,83,0,0
1,note_on,74,0,0
1,note_on,78,0,0
1,note_on,74,77,360
1,note_on,71,77,0
1,note_on,83,90,0
1,note_on,78,77,0
1,note_on,78,0,240
1,note_on,74,0,0
1,note_on,71,0,0
1,note_on,83,0,0
1,note_on,86,90,0
1,note_on,83,77,0
1,note_on,74,77,0
1,note_on,78,77,0
1,note_on,78,0,120
1,note_on,86,0,0
1,note_on,83,0,0
1,note_on,74,0,0
1,note_on,75,77,360
1,note_on,78,77,0
1,note_on,72,77,0
1,note_on,84,91,0
1,note_on,84,0,240
1,note_on,75,0,0
1,note_on,78,0,0
1,note_on,72,0,0
1,note_on,75,78,0
1,note_on,78,78,0
1,note_on,84,78,0
1,note_on,87,92,0
1,note_on,87,0,120
1,note_on,75,0,0
1,note_on,78,0,0
1,note_on,84,0,0
1,note_on,73,79,360
1,note_on,80,79,0
1,note_on,76,79,0
1,note_on,85,93,0
1,note_on,85,0,240
1,note_on,73,0,0
1,note_on,80,0,0
1,note_on,76,0,0
1,note_on,88,93,0
1,note_on,85,79,0
1,note_on,76,79,0
1,note_on,80,79,0
1,note_on,80,0,120
1,note_on,88,0,0
1,note_on,85,0,0
1,note_on,76,0,0
1,note_on,76,79,360
1,note_on,85,94,0
1,note_on,80,79,0
1,note_on,73,79,0
1,note_on,73,0,240
1,note_on,76,0,0
1,note_on,85,0,0
1,note_on,80,0,0
1,note_on,85,79,0
1,note_on,76,79,0
1,note_on,80,79,0
1,note_on,88,94,0
1,note_on,88,0,120
1,note_on,85,0,0
1,note_on,76,0,0
1,note_on,80,0,0
1,note_on,76,80,360
1,note_on,73,80,0
1,note_on,85,95,0
1,note_on,81,80,0
1,note_on,81,0,240
1,note_on,76,0,0
1,note_on,73,0,0
1,note_on,85,0,0
1,note_on,88,95,0
1,note_on,85,80,0
1,note_on,81,80,0
1,note_on,76,80,0
1,note_on,76,0,120
1,note_on,88,0,0
1,note_on,85,0,0
1,note_on,81,0,0
1,note_on,81,81,360
1,note_on,86,96,0
1,note_on,74,81,0
1,note_on,77,81,0
1,note_on,77,0,240
1,note_on,81,0,0
1,note_on,86,0,0
1,note_on,74,0,0
1,note_on,89,96,0
1,note_on,81,82,0
1,note_on,86,82,0
1,note_on,77,82,0
1,note_on,77,0,120
1,note_on,89,0,0
1,note_on,81,0,0
1,note_on,86,0,0
1,note_on,84,62,360
1,note_on,81,62,0
1,note_on,78,62,0
1,note_on,90,74,0
1,note_on,90,0,80
1,note_on,84,0,0
1,note_on,81,0,0
1,note_on,78,0,0
1,note_on,87,67,0
1,note_on,87,0,80
1,note_on,84,66,0
1,note_on,84,0,80
1,note_on,81,65,0
1,note_on,81,0,80
1,note_on,78,65,0
1,note_on,78,0,80
1,note_on,75,64,0
1,note_on,75,0,80
1,note_on,72,63,0
1,note_on,72,0,80
1,note_on,69,63,0
1,note_on,69,0,80
1,note_on,66,63,0
1,note_on,66,0,80
1,note_on,63,63,0
1,note_on,63,0,80
1,note_on,66,62,0
1,note_on,66,0,80
1,note_on,69,63,0
1,note_on,69,0,80
1,note_on,72,63,0
1,note_on,72,0,80
1,note_on,75,64,0
1,note_on,75,0,80
1,note_on,78,65,0
1,note_on,78,0,80
1,note_on,81,66,0
1,note_on,81,0,80
1,note_on,84,67,0
1,note_on,84,0,80
1,note_on,87,70,0
1,note_on,87,0,80
1,note_on,90,74,0
1,note_on,90,0,80
1,note_on,87,67,0
1,note_on,87,0,80
1,note_on,84,66,0
1,note_on,84,0,80
1,note_on,81,65,0
1,note_on,81,0,80
1,note_on,78,65,0
1,note_on,78,0,80
1,note_on,75,64,0
1,note_on,75,0,80
1,note_on,72,63,0
1,note_on,72,0,80
1,note_on,69,63,0
1,note_on,69,0,80
1,note_on,66,63,0
1,note_on,66,0,80
1,note_on,63,63,0
1,note_on,63,0,80
1,note_on,66,62,0
1,note_on,66,0,80
1,note_on,69,63,0
1,note_on,69,0,80
1,note_on,72,63,0
1,note_on,72,0,80
1,note_on,75,64,0
1,note_on,75,0,80
1,note_on,78,65,0
1,note_on,78,0,80
1,note_on,81,66,0
1,note_on,81,0,80
1,note_on,84,67,0
1,note_on,84,0,80
1,note_on,87,70,0
1,note_on,87,0,80
1,note_on,90,74,0
1,note_on,90,0,80
1,note_on,87,67,0
1,note_on,87,0,80
1,note_on,82,66,0
1,note_on,82,0,80
1,note_on,78,65,0
1,note_on,78,0,80
1,note_on,75,65,0
1,note_on,75,0,80
1,note_on,70,64,0
1,note_on,70,0,80
1,note_on,66,63,0
1,note_on,66,0,80
1,note_on,63,63,0
1,note_on,63,0,80
1,note_on,58,63,0
1,note_on,58,0,80
1,note_on,54,63,0
1,note_on,54,0,80
1,note_on,58,62,0
1,note_on,58,0,80
1,note_on,63,63,0
1,note_on,63,0,80
1,note_on,66,63,0
1,note_on,66,0,80
1,note_on,70,64,0
1,note_on,70,0,80
1,note_on,75,65,0
1,note_on,75,0,80
1,note_on,78,66,0
1,note_on,78,0,80
1,note_on,82,67,0
1,note_on,82,0,80
1,note_on,87,70,0
1,note_on,87,0,80
1,note_on,90,74,0
1,note_on,90,0,80
1,note_on,87,67,0
1,note_on,87,0,80
1,note_on,82,66,0
1,note_on,82,0,80
1,note_on,78,65,0
1,note_on,78,0,80
1,note_on,75,65,0
1,note_on,75,0,80
1,note_on,70,64,0
1,note_on,70,0,80
1,note_on,66,63,0
1,note_on,66,0,80
1,note_on,63,63,0
1,note_on,63,0,80
1,note_on,58,63,0
1,note_on,58,0,80
1,note_on,54,63,0
1,note_on,54,0,80
1,note_on,58,62,0
1,note_on,58,0,80
1,note_on,63,63,0
1,note_on,63,0,80
1,note_on,66,63,0
1,note_on,66,0,80
1,note_on,70,64,0
1,note_on,70,0,80
1,note_on,75,65,0
1,note_on,75,0,80
1,note_on,78,66,0
1,note_on,78,0,80
1,note_on,82,67,0
1,note_on,82,0,80
1,note_on,87,70,0
1,note_on,87,0,80
1,note_on,90,74,0
1,note_on,90,0,80
1,note_on,87,67,0
1,note_on,87,0,80
1,note_on,81,66,0
1,note_on,81,0,80
1,note_on,78,65,0
1,note_on,78,0,80
1,note_on,75,65,0
1,note_on,75,0,80
1,note_on,69,64,0
1,note_on,69,0,80
1,note_on,66,63,0
1,note_on,66,0,80
1,note_on,63,63,0
1,note_on,63,0,80
1,note_on,57,63,0
1,note_on,57,0,80
1,note_on,54,63,0
1,note_on,54,0,80
1,note_on,57,62,0
1,note_on,57,0,80
1,note_on,63,63,0
1,note_on,63,0,80
1,note_on,66,63,0
1,note_on,66,0,80
1,note_on,69,64,0
1,note_on,69,0,80
1,note_on,75,65,0
1,note_on,75,0,80
1,note_on,78,66,0
1,note_on,78,0,80
1,note_on,81,67,0
1,note_on,81,0,80
1,note_on,87,70,0
1,note_on,87,0,80
1,note_on,90,74,0
1,note_on,90,0,80
1,note_on,86,67,0
1,note_on,86,0,80
1,note_on,81,66,0
1,note_on,81,0,80
1,note_on,78,65,0
1,note_on,78,0,80
1,note_on,74,65,0
1,note_on,74,0,80
1,note_on,69,64,0
1,note_on,69,0,80
1,note_on,66,63,0
1,note_on,66,0,80
1,note_on,62,63,0
1,note_on,62,0,80
1,note_on,57,63,0
1,note_on,57,0,80
1,note_on,54,63,0
1,note_on,54,0,80
1,note_on,57,62,0
1,note_on,57,0,80
1,note_on,62,63,0
1,note_on,62,0,80
1,note_on,66,63,0
1,note_on,66,0,80
1,note_on,69,64,0
1,note_on,69,0,80
1,note_on,74,65,0
1,note_on,74,0,80
1,note_on,78,66,0
1,note_on,78,0,80
1,note_on,81,67,0
1,note_on,81,0,80
1,note_on,86,70,0
1,note_on,86,0,80
1,note_on,93,74,0
1,note_on,93,0,80
1,note_on,90,67,0
1,note_on,90,0,80
1,note_on,85,66,0
1,note_on,85,0,80
1,note_on,81,65,0
1,note_on,81,0,80
1,note_on,78,65,0
1,note_on,78,0,80
1,note_on,73,64,0
1,note_on,73,0,80
1,note_on,69,63,0
1,note_on,69,0,80
1,note_on,66,63,0
1,note_on,66,0,80
1,note_on,61,63,0
1,note_on,61,0,80
1,note_on,57,63,0
1,note_on,57,0,80
1,note_on,61,62,0
1,note_on,61,0,80
1,note_on,66,63,0
1,note_on,66,0,80
1,note_on,69,63,0
1,note_on,69,0,80
1,note_on,73,64,0
1,note_on,73,0,80
1,note_on,78,65,0
1,note_on,78,0,80
1,note_on,81,66,0
1,note_on,81,0,80
1,note_on,85,67,0
1,note_on,85,0,80
1,note_on,90,70,0
1,note_on,90,0,80
1,note_on,93,74,0
1,note_on,93,0,80
1,note_on,91,67,0
1,note_on,91,0,80
1,note_on,88,66,0
1,note_on,88,0,80
1,note_on,81,65,0
1,note_on,81,0,80
1,note_on,79,65,0
1,note_on,79,0,80
1,note_on,76,64,0
1,note_on,76,0,80
1,note_on,69,63,0
1,note_on,69,0,80
1,note_on,67,63,0
1,note_on,67,0,80
1,note_on,64,63,0
1,note_on,64,0,80
1,note_on,57,63,0
1,note_on,57,0,80
1,note_on,64,62,0
1,note_on,64,0,80
1,note_on,67,63,0
1,note_on,67,0,80
1,note_on,69,63,0
1,note_on,69,0,80
1,note_on,76,64,0
1,note_on,76,0,80
1,note_on,79,65,0
1,note_on,79,0,80
1,note_on,81,66,0
1,note_on,81,0,80
1,note_on,85,67,0
1,note_on,85,0,80
1,note_on,88,70,0
1,note_on,88,0,80
1,note_on,93,74,0
1,note_on,93,0,80
1,note_on,89,67,0
1,note_on,89,0,80
1,note_on,86,66,0
1,note_on,86,0,80
1,note_on,81,65,0
1,note_on,81,0,80
1,note_on,77,65,0
1,note_on,77,0,80
1,note_on,74,64,0
1,note_on,74,0,80
1,note_on,69,63,0
1,note_on,69,0,80
1,note_on,65,63,0
1,note_on,65,0,80
1,note_on,62,63,0
1,note_on,62,0,80
1,note_on,91,74,0
1,note_on,91,0,80
1,note_on,89,67,0
1,note_on,89,0,80
1,note_on,86,66,0
1,note_on,86,0,80
1,note_on,79,65,0
1,note_on,79,0,80
1,note_on,77,65,0
1,note_on,77,0,80
1,note_on,74,64,0
1,note_on,74,0,80
1,note_on,67,63,0
1,note_on,67,0,80
1,note_on,65,63,0
1,note_on,65,0,80
1,note_on,62,63,0
1,note_on,62,0,80
1,note_on,91,74,0
1,note_on,91,0,80
1,note_on,88,67,0
1,note_on,88,0,80
1,note_on,84,66,0
1,note_on,84,0,80
1,note_on,79,65,0
1,note_on,79,0,80
1,note_on,76,65,0
1,note_on,76,0,80
1,note_on,72,64,0
1,note_on,72,0,80
1,note_on,67,63,0
1,note_on,67,0,80
1,note_on,64,63,0
1,note_on,64,0,80
1,note_on,60,63,0
1,note_on,60,0,80
1,note_on,96,74,0
1,note_on,96,0,80
1,note_on,93,67,0
1,note_on,93,0,80
1,note_on,88,66,0
1,note_on,88,0,80
1,note_on,84,65,0
1,note_on,84,0,80
1,note_on,81,65,0
1,note_on,81,0,80
1,note_on,76,64,0
1,note_on,76,0,80
1,note_on,72,63,0
1,note_on,72,0,80
1,note_on,69,63,0
1,note_on,69,0,80
1,note_on,64,63,0
1,note_on,64,0,80
1,note_on,93,74,0
1,note_on,93,0,80
1,note_on,86,67,0
1,note_on,86,0,80
1,note_on,84,66,0
1,note_on,84,0,80
1,note_on,81,65,0
1,note_on,81,0,80
1,note_on,74,65,0
1,note_on,74,0,80
1,note_on,72,64,0
1,note_on,72,0,80
1,note_on,69,63,0
1,note_on,69,0,80
1,note_on,62,63,0
1,note_on,62,0,80
1,note_on,60,63,0
1,note_on,60,0,80
1,note_on,91,74,0
1,note_on,91,0,80
1,note_on,86,67,0
1,note_on,86,0,80
1,note_on,83,66,0
1,note_on,83,0,80
1,note_on,79,65,0
1,note_on,79,0,80
1,note_on,74,65,0
1,note_on,74,0,80
1,note_on,71,64,0
1,note_on,71,0,80
1,note_on,67,63,0
1,note_on,67,0,80
1,note_on,62,63,0
1,note_on,62,0,80
1,note_on,59,63,0
1,note_on,59,0,80
1,note_on,75,76,0
1,note_on,78,76,0
1,note_on,84,76,0
1,note_on,87,90,0
1,note_on,87,0,360
1,note_on,75,0,0
1,note_on,78,0,0
1,note_on,84,0,0
1,note_on,75,71,0
1,note_on,78,71,0
1,note_on,84,71,0
1,note_on,87,84,0
1,note_on,87,0,114
1,note_on,75,0,0
1,note_on,78,0,0
1,note_on,84,0,0
1,note_on,75,76,6
1,note_on,78,76,0
1,note_on,84,76,0
1,note_on,87,91,0
1,note_on,87,0,240
1,note_on,75,0,0
1,note_on,78,0,0
1,note_on,84,0,0
1,note_on,75,76,0
1,note_on,78,76,0
1,note_on,84,76,0
1,note_on,87,90,0
1,note_on,87,0,360
1,note_on,75,0,0
1,note_on,78,0,0
1,note_on,84,0,0
1,note_on,75,71,0
1,note_on,78,71,0
1,note_on,84,71,0
1,note_on,87,84,0
1,note_on,87,0,114
1,note_on,75,0,0
1,note_on,78,0,0
1,note_on,84,0,0
1,note_on,75,76,6
1,note_on,78,76,0
1,note_on,84,76,0
1,note_on,87,91,0
1,note_on,87,0,240
1,note_on,75,0,0
1,note_on,78,0,0
1,note_on,84,0,0
1,note_on,75,76,0
1,note_on,78,76,0
1,note_on,84,76,0
1,note_on,87,90,0
1,note_on,87,0,360
1,note_on,75,0,0
1,note_on,78,0,0
1,note_on,84,0,0
1,note_on,75,71,0
1,note_on,78,71,0
1,note_on,84,71,0
1,note_on,87,84,0
1,note_on,87,0,114
1,note_on,75,0,0
1,note_on,78,0,0
1,note_on,84,0,0
1,note_on,75,76,6
1,note_on,78,76,0
1,note_on,84,76,0
1,note_on,87,91,0
1,note_on,87,0,240
1,note_on,75,0,0
1,note_on,78,0,0
1,note_on,84,0,0
1,note_on,75,76,0
1,note_on,78,76,0
1,note_on,84,76,0
1,note_on,87,90,0
1,note_on,87,0,360
1,note_on,75,0,0
1,note_on,78,0,0
1,note_on,84,0,0
1,note_on,75,71,0
1,note_on,78,71,0
1,note_on,84,71,0
1,note_on,87,84,0
1,note_on,87,0,114
1,note_on,75,0,0
1,note_on,78,0,0
1,note_on,84,0,0
1,note_on,75,76,6
1,note_on,78,76,0
1,note_on,84,76,0
1,note_on,87,91,0
1,note_on,87,0,240
1,note_on,75,0,0
1,note_on,78,0,0
1,note_on,84,0,0
1,note_on,75,71,0
1,note_on,78,71,0
1,note_on,84,71,0
1,note_on,87,85,0
1,note_on,87,0,228
1,note_on,75,0,0
1,note_on,78,0,0
1,note_on,84,0,0
1,note_on,78,67,12
1,note_on,75,67,0
1,note_on,84,67,0
1,note_on,87,79,0
1,note_on,87,0,228
1,note_on,78,0,0
1,note_on,75,0,0
1,note_on,84,0,0
1,note_on,75,69,12
1,note_on,78,69,0
1,note_on,84,69,0
1,note_on,87,81,0
1,note_on,87,0,228
1,note_on,75,0,0
1,note_on,78,0,0
1,note_on,84,0,0
1,note_on,75,75,12
1,note_on,78,75,0
1,note_on,84,75,0
1,note_on,87,90,0
1,note_on,87,0,228
1,note_on,75,0,0
1,note_on,78,0,0
1,note_on,84,0,0
1,note_on,75,72,12
1,note_on,78,72,0
1,note_on,84,72,0
1,note_on,87,86,0
1,note_on,87,0,228
1,note_on,75,0,0
1,note_on,78,0,0
1,note_on,84,0,0
1,note_on,75,72,12
1,note_on,78,72,0
1,note_on,84,72,0
1,note_on,87,86,0
1,note_on,87,0,228
1,note_on,75,0,0
1,note_on,78,0,0
1,note_on,84,0,0
1,note_on,87,78,12
1,note_on,78,78,0
1,note_on,84,78,0
1,note_on,90,93,0
1,note_on,90,0,228
1,note_on,87,0,0
1,note_on,78,0,0
1,note_on,84,0,0
1,note_on,78,73,12
1,note_on,87,73,0
1,note_on,84,73,0
1,note_on,90,87,0
1,note_on,90,0,228
1,note_on,78,0,0
1,note_on,87,0,0
1,note_on,84,0,0
1,note_on,87,77,12
1,note_on,78,77,0
1,note_on,84,77,0
1,note_on,90,92,0
1,note_on,90,0,228
1,note_on,87,0,0
1,note_on,78,0,0
1,note_on,84,0,0
1,note_on,87,84,12
1,note_on,78,84,0
1,note_on,84,84,0
1,note_on,90,99,0
1,note_on,90,0,228
1,note_on,87,0,0
1,note_on,78,0,0
1,note_on,84,0,0
1,note_on,87,79,12
1,note_on,78,79,0
1,note_on,84,79,0
1,note_on,90,95,0
1,note_on,90,0,228
1,note_on,87,0,0
1,note_on,78,0,0
1,note_on,84,0,0
1,note_on,87,82,12
1,note_on,78,82,0
1,note_on,84,82,0
1,note_on,90,97,0
1,note_on,90,0,228
1,note_on,87,0,0
1,note_on,78,0,0
1,note_on,84,0,0
1,note_on,79,87,12
1,note_on,84,87,0
1,note_on,88,87,0
1,note_on,91,103,0
1,note_on,91,0,240
1,note_on,79,0,0
1,note_on,84,0,0
1,note_on,88,0,0
1,note_on,91,108,1200
1,note_on,79,91,0
1,note_on,86,91,0
1,note_on,83,91,0
1,note_on,83,0,240
1,note_on,91,0,0
1,note_on,79,0,0
1,note_on,86,0,0
2,note_on,55,74,0
2,note_on,55,0,120
2,note_on,56,67,0
2,note_on,56,0,120
2,note_on,51,70,0
2,note_on,51,0,120
2,note_on,48,67,0
2,note_on,48,0,120
2,note_on,44,70,0
2,note_on,44,0,120
2,note_on,55,73,120
2,note_on,55,0,120
2,note_on,56,67,0
2,note_on,56,0,120
2,note_on,51,70,0
2,note_on,51,0,120
2,note_on,48,67,0
2,note_on,48,0,120
2,note_on,44,70,0
2,note_on,44,0,120
2,note_on,44,61,0
2,note_on,51,61,0
2,note_on,56,72,0
2,note_on,56,0,360
2,note_on,51,0,0
2,note_on,44,0,0
2,note_on,44,56,0
2,note_on,51,56,0
2,note_on,56,67,0
2,note_on,56,0,114
2,note_on,51,0,0
2,note_on,44,0,0
2,note_on,44,62,6
2,note_on,51,62,0
2,note_on,56,73,0
2,note_on,56,0,120
2,note_on,51,0,0
2,note_on,44,0,0
2,note_on,44,61,120
2,note_on,51,61,0
2,note_on,56,72,0
2,note_on,56,0,282
2,note_on,51,0,0
2,note_on,44,0,0
2,note_on,44,56,0
2,note_on,51,56,0
2,note_on,56,67,0
2,note_on,56,0,114
2,note_on,51,0,0
2,note_on,44,0,0
2,note_on,44,62,6
2,note_on,51,62,0
2,note_on,56,73,0
2,note_on,56,0,120
2,note_on,51,0,0
2,note_on,44,0,0
2,note_on,44,62,120
2,note_on,51,62,0
2,note_on,56,74,0
2,note_on,56,0,240
2,note_on,51,0,0
2,note_on,44,0,0
2,note_on,63,74,1200
2,note_on,61,62,0
2,note_on,55,62,0
2,note_on,55,0,60
2,note_on,61,0,0
2,note_on,63,0,0
2,note_on,63,74,180
2,note_on,61,62,0
2,note_on,55,62,0
2,note_on,55,0,480
2,note_on,61,0,0
2,note_on,63,0,0
2,note_on,50,73,0
2,note_on,50,0,120
2,note_on,51,67,0
2,note_on,51,0,120
2,note_on,46,70,0
2,note_on,46,0,120
2,note_on,43,67,0
2,note_on,43,0,120
2,note_on,39,70,0
2,note_on,39,0,120
2,note_on,46,61,0
2,note_on,51,61,0
2,note_on,58,72,0
2,note_on,58,0,360
2,note_on,51,0,0
2,note_on,46,0,0
2,note_on,46,56,0
2,note_on,51,56,0
2,note_on,58,67,0
2,note_on,58,0,114
2,note_on,51,0,0
2,note_on,46,0,0
2,note_on,46,62,6
2,note_on,51,62,0
2,note_on,58,73,0
2,note_on,58,0,120
2,note_on,51,0,0
2,note_on,46,0,0
2,note_on,46,61,120
2,note_on,51,61,0
2,note_on,58,72,0
2,note_on,58,0,282
2,note_on,51,0,0
2,note_on,46,0,0
2,note_on,46,56,0
2,note_on,51,56,0
2,note_on,58,67,0
2,note_on,58,0,114
2,note_on,51,0,0
2,note_on,46,0,0
2,note_on,46,62,6
2,note_on,51,62,0
2,note_on,58,73,0
2,note_on,58,0,120
2,note_on,51,0,0
2,note_on,46,0,0
2,note_on,46,62,120
2,note_on,51,62,0
2,note_on,58,74,0
2,note_on,58,0,240
2,note_on,51,0,0
2,note_on,46,0,0
2,note_on,67,74,1200
2,note_on,63,62,0
2,note_on,56,62,0
2,note_on,56,0,60
2,note_on,63,0,0
2,note_on,67,0,0
2,note_on,68,74,180
2,note_on,63,62,0
2,note_on,56,62,0
2,note_on,56,0,480
2,note_on,63,0,0
2,note_on,68,0,0
2,note_on,55,73,0
2,note_on,55,0,120
2,note_on,56,67,0
2,note_on,56,0,120
2,note_on,51,70,0
2,note_on,51,0,120
2,note_on,48,67,0
2,note_on,48,0,120
2,note_on,44,70,0
2,note_on,44,0,120
2,note_on,44,73,120
2,note_on,44,0,120
2,note_on,45,71,0
2,note_on,45,0,120
2,note_on,46,75,0
2,note_on,46,0,120
2,note_on,47,79,0
2,note_on,47,0,120
2,note_on,48,83,0
2,note_on,48,0,120
2,note_on,49,73,120
2,note_on,49,0,120
2,note_on,61,67,0
2,note_on,61,0,120
2,note_on,56,70,0
2,note_on,56,0,120
2,note_on,53,67,0
2,note_on,53,0,120
2,note_on,49,70,0
2,note_on,49,0,120
2,note_on,41,73,120
2,note_on,41,0,120
2,note_on,42,71,0
2,note_on,42,0,120
2,note_on,43,74,0
2,note_on,43,0,120
2,note_on,44,77,0
2,note_on,44,0,120
2,note_on,45,80,0
2,note_on,45,0,120
2,note_on,46,73,120
2,note_on,46,0,120
2,note_on,58,67,0
2,note_on,58,0,120
2,note_on,53,70,0
2,note_on,53,0,120
2,note_on,49,67,0
2,note_on,49,0,120
2,note_on,46,70,0
2,note_on,46,0,120
2,note_on,43,37,120
2,note_on,55,45,0
2,note_on,55,0,463
2,note_on,43,0,0
2,note_on,64,37,0
2,note_on,61,31,0
2,note_on,58,31,0
2,note_on,55,31,0
2,note_on,55,0,91
2,note_on,64,0,0
2,note_on,61,0,0
2,note_on,58,0,0
2,note_on,44,37,120
2,note_on,56,45,0
2,note_on,56,0,463
2,note_on,44,0,0
2,note_on,63,37,0
2,note_on,60,31,0
2,note_on,56,31,0
2,note_on,56,0,91
2,note_on,60,0,0
2,note_on,63,0,0
2,note_on,34,41,120
2,note_on,46,49,0
2,note_on,46,0,463
2,note_on,34,0,0
2,note_on,55,41,0
2,note_on,49,34,0
2,note_on,46,34,0
2,note_on,46,0,91
2,note_on,49,0,0
2,note_on,55,0,0
2,note_on,35,45,120
2,note_on,47,54,0
2,note_on,47,0,463
2,note_on,35,0,0
2,note_on,56,45,0
2,note_on,51,37,0
2,note_on,47,37,0
2,note_on,47,0,91
2,note_on,51,0,0
2,note_on,56,0,0
2,note_on,40,32,0
2,note_on,40,0,120
2,note_on,52,38,0
2,note_on,52,0,120
2,note_on,40,40,0
2,note_on,40,0,120
2,note_on,52,41,0
2,note_on,52,0,120
2,note_on,40,43,0
2,note_on,40,0,120
2,note_on,52,45,0
2,note_on,52,0,120
2,note_on,40,47,0
2,note_on,40,0,120
2,note_on,52,48,0
2,note_on,52,0,120
2,note_on,40,50,0
2,note_on,40,0,120
2,note_on,52,52,0
2,note_on,52,0,120
2,note_on,40,54,0
2,note_on,40,0,120
2,note_on,52,55,0
2,note_on,52,0,120
2,note_on,41,57,0
2,note_on,41,0,63
2,note_on,42,59,0
2,note_on,42,0,120
2,note_on,43,61,0
2,note_on,43,0,120
2,note_on,44,62,0
2,note_on,44,0,120
2,note_on,45,64,0
2,note_on,45,0,120
2,note_on,46,66,0
2,note_on,46,0,120
2,note_on,47,68,0
2,note_on,47,0,120
2,note_on,48,70,0
2,note_on,48,0,120
2,note_on,49,71,0
2,note_on,49,0,120
2,note_on,50,73,0
2,note_on,50,0,120
2,note_on,51,75,0
2,note_on,51,0,120
2,note_on,52,77,0
2,note_on,52,0,120
2,note_on,52,72,0
2,note_on,64,85,0
2,note_on,64,0,240
2,note_on,52,0,0
2,note_on,52,65,0
2,note_on,64,77,0
2,note_on,64,0,120
2,note_on,52,0,0
2,note_on,52,65,120
2,note_on,64,77,0
2,note_on,64,0,120
2,note_on,52,0,0
2,note_on,52,72,120
2,note_on,64,85,0
2,note_on,64,0,120
2,note_on,52,0,0
2,note_on,52,65,120
2,note_on,64,77,0
2,note_on,64,0,120
2,note_on,52,0,0
2,note_on,52,65,120
2,note_on,64,77,0
2,note_on,64,0,120
2,note_on,52,0,0
2,note_on,51,73,120
2,note_on,63,87,0
2,note_on,63,0,240
2,note_on,51,0,0
2,note_on,39,65,0
2,note_on,51,77,0
2,note_on,51,0,120
2,note_on,39,0,0
2,note_on,39,57,360
2,note_on,51,68,0
2,note_on,51,0,120
2,note_on,39,0,0
2,note_on,27,52,120
2,note_on,39,61,0
2,note_on,39,0,120
2,note_on,27,0,0
2,note_on,44,36,0
2,note_on,51,36,0
2,note_on,56,43,0
2,note_on,56,0,360
2,note_on,51,0,0
2,note_on,44,0,0
2,note_on,44,33,0
2,note_on,51,33,0
2,note_on,56,40,0
2,note_on,56,0,114
2,note_on,51,0,0
2,note_on,44,0,0
2,note_on,44,37,6
2,note_on,51,37,0
2,note_on,56,43,0
2,note_on,56,0,120
2,note_on,51,0,0
2,note_on,44,0,0
2,note_on,44,36,120
2,note_on,51,36,0
2,note_on,56,43,0
2,note_on,56,0,282
2,note_on,51,0,0
2,note_on,44,0,0
2,note_on,44,33,0
2,note_on,51,33,0
2,note_on,56,40,0
2,note_on,56,0,114
2,note_on,51,0,0
2,note_on,44,0,0
2,note_on,44,37,6
2,note_on,51,37,0
2,note_on,56,43,0
2,note_on,56,0,120
2,note_on,51,0,0
2,note_on,44,0,0
2,note_on,44,37,120
2,note_on,51,37,0
2,note_on,56,44,0
2,note_on,56,0,240
2,note_on,51,0,0
2,note_on,44,0,0
2,note_on,63,44,1200
2,note_on,61,37,0
2,note_on,55,37,0
2,note_on,55,0,60
2,note_on,61,0,0
2,note_on,63,0,0
2,note_on,63,44,180
2,note_on,61,37,0
2,note_on,55,37,0
2,note_on,55,0,480
2,note_on,61,0,0
2,note_on,63,0,0
2,note_on,50,43,0
2,note_on,50,0,120
2,note_on,51,40,0
2,note_on,51,0,120
2,note_on,46,42,0
2,note_on,46,0,120
2,note_on,43,40,0
2,note_on,43,0,120
2,note_on,39,42,0
2,note_on,39,0,120
2,note_on,46,36,0
2,note_on,51,36,0
2,note_on,58,43,0
2,note_on,58,0,360
2,note_on,51,0,0
2,note_on,46,0,0
2,note_on,46,33,0
2,note_on,51,33,0
2,note_on,58,40,0
2,note_on,58,0,114
2,note_on,51,0,0
2,note_on,46,0,0
2,note_on,46,37,6
2,note_on,51,37,0
2,note_on,58,43,0
2,note_on,58,0,120
2,note_on,51,0,0
2,note_on,46,0,0
2,note_on,46,36,120
2,note_on,51,36,0
2,note_on,58,43,0
2,note_on,58,0,282
2,note_on,51,0,0
2,note_on,46,0,0
2,note_on,46,33,0
2,note_on,51,33,0
2,note_on,58,40,0
2,note_on,58,0,114
2,note_on,51,0,0
2,note_on,46,0,0
2,note_on,46,37,6
2,note_on,51,37,0
2,note_on,58,43,0
2,note_on,58,0,120
2,note_on,51,0,0
2,note_on,46,0,0
2,note_on,46,37,120
2,note_on,51,37,0
2,note_on,58,44,0
2,note_on,58,0,240
2,note_on,51,0,0
2,note_on,46,0,0
2,note_on,67,44,1200
2,note_on,63,37,0
2,note_on,56,37,0
2,note_on,56,0,60
2,note_on,63,0,0
2,note_on,67,0,0
2,note_on,68,44,180
2,note_on,63,37,0
2,note_on,56,37,0
2,note_on,56,0,480
2,note_on,63,0,0
2,note_on,68,0,0
2,note_on,55,43,0
2,note_on,55,0,120
2,note_on,56,40,0
2,note_on,56,0,120
2,note_on,51,42,0
2,note_on,51,0,120
2,note_on,48,40,0
2,note_on,48,0,120
2,note_on,44,42,0
2,note_on,44,0,120
2,note_on,54,36,120
2,note_on,56,36,0
2,note_on,63,43,0
2,note_on,63,0,360
2,note_on,56,0,0
2,note_on,54,0,0
2,note_on,54,29,0
2,note_on,56,29,0
2,note_on,63,35,0
2,note_on,63,0,120
2,note_on,56,0,0
2,note_on,54,0,0
2,note_on,54,32,0
2,note_on,56,32,0
2,note_on,63,38,0
2,note_on,63,0,120
2,note_on,56,0,0
2,note_on,54,0,0
2,note_on,53,33,120
2,note_on,56,33,0
2,note_on,61,39,0
2,note_on,61,0,240
2,note_on,56,0,0
2,note_on,53,0,0
2,note_on,49,33,0
2,note_on,53,33,0
2,note_on,61,39,0
2,note_on,61,0,480
2,note_on,53,0,0
2,note_on,49,0,0
2,note_on,51,36,0
2,note_on,53,36,0
2,note_on,60,43,0
2,note_on,60,0,360
2,note_on,53,0,0
2,note_on,51,0,0
2,note_on,51,29,0
2,note_on,53,29,0
2,note_on,60,35,0
2,note_on,60,0,120
2,note_on,53,0,0
2,note_on,51,0,0
2,note_on,51,32,0
2,note_on,53,32,0
2,note_on,60,38,0
2,note_on,60,0,120
2,note_on,53,0,0
2,note_on,51,0,0
2,note_on,49,33,120
2,note_on,53,33,0
2,note_on,58,39,0
2,note_on,58,0,240
2,note_on,53,0,0
2,note_on,49,0,0
2,note_on,46,33,0
2,note_on,49,33,0
2,note_on,58,39,0
2,note_on,58,0,480
2,note_on,49,0,0
2,note_on,46,0,0
2,note_on,51,42,0
2,note_on,51,0,11
2,note_on,62,51,0
2,note_on,55,43,0
2,note_on,62,0,120
2,note_on,63,43,0
2,note_on,63,0,120
2,note_on,70,51,0
2,note_on,70,0,120
2,note_on,55,0,120
2,note_on,51,44,0
2,note_on,51,0,234
2,note_on,62,54,0
2,note_on,56,46,0
2,note_on,62,0,114
2,note_on,63,46,0
2,note_on,63,0,120
2,note_on,68,56,0
2,note_on,68,0,120
2,note_on,56,0,120
2,note_on,51,48,0
2,note_on,51,0,6
2,note_on,62,57,0
2,note_on,55,48,0
2,note_on,62,0,120
2,note_on,63,49,0
2,note_on,63,0,120
2,note_on,70,59,0
2,note_on,70,0,120
2,note_on,55,0,120
2,note_on,51,51,0
2,note_on,51,0,223
2,note_on,62,61,0
2,note_on,56,51,0
2,note_on,62,0,120
2,note_on,63,52,0
2,note_on,63,0,120
2,note_on,68,63,0
2,note_on,68,0,120
2,note_on,56,0,120
2,note_on,52,50,0
2,note_on,64,59,0
2,note_on,64,0,360
2,note_on,52,0,0
2,note_on,40,45,0
2,note_on,52,54,0
2,note_on,52,0,114
2,note_on,40,0,0
2,note_on,40,45,6
2,note_on,52,54,0
2,note_on,52,0,120
2,note_on,40,0,0
2,note_on,40,51,120
2,note_on,52,60,0
2,note_on,52,0,120
2,note_on,40,0,0
2,note_on,40,46,120
2,note_on,52,55,0
2,note_on,52,0,120
2,note_on,40,0,0
2,note_on,40,46,120
2,note_on,52,55,0
2,note_on,52,0,120
2,note_on,40,0,0
2,note_on,41,57,120
2,note_on,41,0,63
2,note_on,42,59,0
2,note_on,42,0,120
2,note_on,43,61,0
2,note_on,43,0,120
2,note_on,44,62,0
2,note_on,44,0,120
2,note_on,45,64,0
2,note_on,45,0,120
2,note_on,46,66,0
2,note_on,46,0,120
2,note_on,47,68,0
2,note_on,47,0,120
2,note_on,48,70,0
2,note_on,48,0,120
2,note_on,49,71,0
2,note_on,49,0,120
2,note_on,50,73,0
2,note_on,50,0,120
2,note_on,51,75,0
2,note_on,51,0,120
2,note_on,52,77,0
2,note_on,52,0,120
2,note_on,40,72,0
2,note_on,52,85,0
2,note_on,52,0,240
2,note_on,40,0,0
2,note_on,52,65,0
2,note_on,64,77,0
2,note_on,64,0,120
2,note_on,52,0,0
2,note_on,64,77,120
2,note_on,52,65,0
2,note_on,52,0,120
2,note_on,64,0,0
2,note_on,52,72,120
2,note_on,64,85,0
2,note_on,64,0,120
2,note_on,52,0,0
2,note_on,52,65,120
2,note_on,64,77,0
2,note_on,64,0,120
2,note_on,52,0,0
2,note_on,52,65,120
2,note_on,64,77,0
2,note_on,64,0,120
2,note_on,52,0,0
2,note_on,51,73,120
2,note_on,63,87,0
2,note_on,63,0,120
2,note_on,51,0,0
2,note_on,51,77,120
2,note_on,39,65,0
2,note_on,39,0,120
2,note_on,51,0,0
2,note_on,51,68,360
2,note_on,39,57,0
2,note_on,39,0,120
2,note_on,51,0,0
2,note_on,39,61,120
2,note_on,27,52,0
2,note_on,27,0,120
2,note_on,39,0,0
2,note_on,37,73,360
2,note_on,49,86,0
2,note_on,49,0,353
2,note_on,37,0,0
2,note_on,37,68,0
2,note_on,49,80,0
2,note_on,49,0,120
2,note_on,37,0,0
2,note_on,37,73,0
2,note_on,49,87,0
2,note_on,49,0,240
2,note_on,37,0,0
2,note_on,37,73,0
2,note_on,49,86,0
2,note_on,49,0,360
2,note_on,37,0,0
2,note_on,37,68,0
2,note_on,49,80,0
2,note_on,49,0,120
2,note_on,37,0,0
2,note_on,37,73,0
2,note_on,49,87,0
2,note_on,49,0,240
2,note_on,37,0,0
2,note_on,37,73,0
2,note_on,49,86,0
2,note_on,49,0,1037
2,note_on,37,0,0
2,note_on,37,68,0
2,note_on,49,80,0
2,note_on,49,0,114
2,note_on,37,0,0
2,note_on,37,73,6
2,note_on,49,87,0
2,note_on,49,0,240
2,note_on,37,0,0
2,note_on,37,73,0
2,note_on,49,86,0
2,note_on,49,0,1037
2,note_on,37,0,0
2,note_on,37,68,0
2,note_on,49,80,0
2,note_on,49,0,114
2,note_on,37,0,0
2,note_on,37,73,6
2,note_on,49,87,0
2,note_on,49,0,240
2,note_on,37,0,0
2,note_on,37,54,0
2,note_on,49,64,0
2,note_on,49,0,275
2,note_on,37,0,0
2,note_on,37,50,0
2,note_on,49,60,0
2,note_on,49,0,114
2,note_on,37,0,0
2,note_on,37,55,6
2,note_on,49,65,0
2,note_on,49,0,120
2,note_on,37,0,0
2,note_on,37,54,120
2,note_on,49,64,0
2,note_on,49,0,275
2,note_on,37,0,0
2,note_on,37,50,0
2,note_on,49,60,0
2,note_on,49,0,114
2,note_on,37,0,0
2,note_on,37,55,6
2,note_on,49,65,0
2,note_on,49,0,120
2,note_on,37,0,0
2,note_on,37,54,120
2,note_on,49,64,0
2,note_on,49,0,275
2,note_on,37,0,0
2,note_on,37,50,0
2,note_on,49,60,0
2,note_on,49,0,114
2,note_on,37,0,0
2,note_on,37,55,6
2,note_on,49,65,0
2,note_on,49,0,120
2,note_on,37,0,0
2,note_on,37,54,120
2,note_on,49,64,0
2,note_on,49,0,275
2,note_on,37,0,0
2,note_on,37,50,0
2,note_on,49,60,0
2,note_on,49,0,114
2,note_on,37,0,0
2,note_on,37,55,6
2,note_on,49,65,0
2,note_on,49,0,120
2,note_on,37,0,0
2,note_on,49,54,120
2,note_on,61,64,0
2,note_on,61,0,275
2,note_on,49,0,0
2,note_on,49,50,0
2,note_on,61,60,0
2,note_on,61,0,114
2,note_on,49,0,0
2,note_on,49,55,6
2,note_on,61,65,0
2,note_on,61,0,120
2,note_on,49,0,0
2,note_on,51,54,120
2,note_on,63,64,0
2,note_on,63,0,275
2,note_on,51,0,0
2,note_on,51,53,0
2,note_on,63,64,0
2,note_on,63,0,114
2,note_on,51,0,0
2,note_on,51,60,6
2,note_on,63,71,0
2,note_on,63,0,120
2,note_on,51,0,0
2,note_on,54,62,120
2,note_on,66,73,0
2,note_on,66,0,275
2,note_on,54,0,0
2,note_on,54,54,0
2,note_on,66,64,0
2,note_on,66,0,114
2,note_on,54,0,0
2,note_on,54,57,6
2,note_on,66,68,0
2,note_on,66,0,120
2,note_on,54,0,0
2,note_on,42,54,120
2,note_on,54,64,0
2,note_on,54,0,275
2,note_on,42,0,0
2,note_on,42,50,0
2,note_on,54,60,0
2,note_on,54,0,114
2,note_on,42,0,0
2,note_on,42,55,6
2,note_on,54,65,0
2,note_on,54,0,120
2,note_on,42,0,0
2,note_on,35,73,120
2,note_on,47,86,0
2,note_on,47,0,353
2,note_on,35,0,0
2,note_on,35,68,0
2,note_on,47,80,0
2,note_on,47,0,114
2,note_on,35,0,0
2,note_on,35,73,6
2,note_on,47,87,0
2,note_on,47,0,240
2,note_on,35,0,0
2,note_on,35,73,0
2,note_on,47,86,0
2,note_on,47,0,360
2,note_on,35,0,0
2,note_on,35,68,0
2,note_on,47,80,0
2,note_on,47,0,114
2,note_on,35,0,0
2,note_on,35,73,6
2,note_on,47,87,0
2,note_on,47,0,240
2,note_on,35,0,0
2,note_on,35,73,0
2,note_on,47,86,0
2,note_on,47,0,1037
2,note_on,35,0,0
2,note_on,35,68,0
2,note_on,47,80,0
2,note_on,47,0,114
2,note_on,35,0,0
2,note_on,35,73,6
2,note_on,47,87,0
2,note_on,47,0,240
2,note_on,35,0,0
2,note_on,35,73,0
2,note_on,47,86,0
2,note_on,47,0,1037
2,note_on,35,0,0
2,note_on,35,68,0
2,note_on,47,80,0
2,note_on,47,0,114
2,note_on,35,0,0
2,note_on,35,73,6
2,note_on,47,87,0
2,note_on,47,0,240
2,note_on,35,0,0
2,note_on,47,49,0
2,note_on,47,0,127
2,note_on,63,38,60
2,note_on,59,32,0
2,note_on,54,32,0
2,note_on,54,0,480
2,note_on,59,0,0
2,note_on,63,0,0
2,note_on,51,49,0
2,note_on,51,0,102
2,note_on,66,36,60
2,note_on,63,30,0
2,note_on,59,30,0
2,note_on,59,0,480
2,note_on,63,0,0
2,note_on,66,0,0
2,note_on,49,49,0
2,note_on,49,0,81
2,note_on,66,36,60
2,note_on,64,30,0
2,note_on,58,30,0
2,note_on,58,0,480
2,note_on,64,0,0
2,note_on,66,0,0
2,note_on,42,49,0
2,note_on,42,0,127
2,note_on,66,36,60
2,note_on,61,30,0
2,note_on,58,30,0
2,note_on,58,0,480
2,note_on,61,0,0
2,note_on,66,0,0
2,note_on,47,49,0
2,note_on,47,0,113
2,note_on,66,36,60
2,note_on,63,30,0
2,note_on,59,30,0
2,note_on,59,0,480
2,note_on,63,0,0
2,note_on,66,0,0
2,note_on,40,49,0
2,note_on,40,0,95
2,note_on,64,36,60
2,note_on,61,30,0
2,note_on,56,30,0
2,note_on,56,0,480
2,note_on,61,0,0
2,note_on,64,0,0
2,note_on,42,49,0
2,note_on,42,0,84
2,note_on,64,36,60
2,note_on,58,30,0
2,note_on,54,30,0
2,note_on,54,0,480
2,note_on,58,0,0
2,note_on,64,0,0
2,note_on,46,49,0
2,note_on,46,0,92
2,note_on,64,36,60
2,note_on,61,30,0
2,note_on,54,30,0
2,note_on,54,0,364
2,note_on,61,0,0
2,note_on,64,0,0
2,note_on,47,45,0
2,note_on,47,0,7
2,note_on,54,35,60
2,note_on,54,0,120
2,note_on,59,35,0
2,note_on,59,0,120
2,note_on,63,35,0
2,note_on,63,0,120
2,note_on,59,35,0
2,note_on,59,0,120
2,note_on,54,35,0
2,note_on,54,0,120
2,note_on,51,45,0
2,note_on,51,0,14
2,note_on,59,35,60
2,note_on,59,0,120
2,note_on,63,35,0
2,note_on,63,0,120
2,note_on,66,35,0
2,note_on,66,0,120
2,note_on,63,35,0
2,note_on,63,0,120
2,note_on,59,35,0
2,note_on,59,0,120
2,note_on,49,50,0
2,note_on,49,0,18
2,note_on,58,35,60
2,note_on,58,0,120
2,note_on,64,35,0
2,note_on,64,0,120
2,note_on,66,35,0
2,note_on,66,0,120
2,note_on,64,35,0
2,note_on,64,0,120
2,note_on,58,35,0
2,note_on,58,0,120
2,note_on,42,47,0
2,note_on,42,0,7
2,note_on,58,35,60
2,note_on,58,0,120
2,note_on,61,35,0
2,note_on,61,0,120
2,note_on,66,35,0
2,note_on,66,0,120
2,note_on,61,35,0
2,note_on,61,0,120
2,note_on,58,35,0
2,note_on,58,0,120
2,note_on,47,46,0
2,note_on,47,0,14
2,note_on,59,35,60
2,note_on,59,0,120
2,note_on,63,35,0
2,note_on,63,0,120
2,note_on,66,35,0
2,note_on,66,0,120
2,note_on,63,35,0
2,note_on,63,0,120
2,note_on,59,35,0
2,note_on,59,0,120
2,note_on,40,49,0
2,note_on,40,0,18
2,note_on,56,35,60
2,note_on,56,0,120
2,note_on,61,35,0
2,note_on,61,0,120
2,note_on,64,35,0
2,note_on,64,0,120
2,note_on,61,35,0
2,note_on,61,0,120
2,note_on,56,35,0
2,note_on,56,0,120
2,note_on,42,52,0
2,note_on,42,0,18
2,note_on,54,35,60
2,note_on,54,0,120
2,note_on,58,35,0
2,note_on,58,0,120
2,note_on,64,35,0
2,note_on,64,0,120
2,note_on,58,35,0
2,note_on,58,0,120
2,note_on,54,35,0
2,note_on,54,0,120
2,note_on,47,49,0
2,note_on,47,0,18
2,note_on,54,35,60
2,note_on,54,0,120
2,note_on,59,35,0
2,note_on,59,0,120
2,note_on,63,35,0
2,note_on,63,0,120
2,note_on,59,35,0
2,note_on,59,0,120
2,note_on,54,35,0
2,note_on,54,0,120
2,note_on,35,74,0
2,note_on,47,88,0
2,note_on,47,0,297
2,note_on,35,0,0
2,note_on,47,77,0
2,note_on,35,65,0
2,note_on,35,0,114
2,note_on,47,0,0
2,note_on,35,71,6
2,note_on,47,84,0
2,note_on,47,0,120
2,note_on,35,0,0
2,note_on,38,75,120
2,note_on,50,89,0
2,note_on,50,0,286
2,note_on,38,0,0
2,note_on,50,77,0
2,note_on,38,65,0
2,note_on,38,0,114
2,note_on,50,0,0
2,note_on,38,68,6
2,note_on,50,80,0
2,note_on,50,0,120
2,note_on,38,0,0
2,note_on,39,72,120
2,note_on,51,85,0
2,note_on,51,0,303
2,note_on,39,0,0
2,note_on,51,81,0
2,note_on,39,69,0
2,note_on,39,0,120
2,note_on,51,0,0
2,note_on,42,70,0
2,note_on,54,83,0
2,note_on,54,0,120
2,note_on,42,0,0
2,note_on,46,75,120
2,note_on,58,89,0
2,note_on,58,0,657
2,note_on,46,0,0
2,note_on,37,74,0
2,note_on,49,88,0
2,note_on,49,0,297
2,note_on,37,0,0
2,note_on,49,77,0
2,note_on,37,65,0
2,note_on,37,0,114
2,note_on,49,0,0
2,note_on,37,71,6
2,note_on,49,84,0
2,note_on,49,0,120
2,note_on,37,0,0
2,note_on,40,75,120
2,note_on,52,89,0
2,note_on,52,0,286
2,note_on,40,0,0
2,note_on,52,77,0
2,note_on,40,65,0
2,note_on,40,0,114
2,note_on,52,0,0
2,note_on,40,68,6
2,note_on,52,80,0
2,note_on,52,0,120
2,note_on,40,0,0
2,note_on,41,72,120
2,note_on,53,85,0
2,note_on,53,0,303
2,note_on,41,0,0
2,note_on,53,81,0
2,note_on,41,69,0
2,note_on,41,0,120
2,note_on,53,0,0
2,note_on,44,70,0
2,note_on,56,83,0
2,note_on,56,0,120
2,note_on,44,0,0
2,note_on,48,75,120
2,note_on,60,89,0
2,note_on,60,0,657
2,note_on,48,0,0
2,note_on,39,77,0
2,note_on,51,92,0
2,note_on,51,0,297
2,note_on,39,0,0
2,note_on,51,80,0
2,note_on,39,68,0
2,note_on,39,0,114
2,note_on,51,0,0
2,note_on,39,75,6
2,note_on,51,89,0
2,note_on,51,0,120
2,note_on,39,0,0
2,note_on,43,79,120
2,note_on,55,94,0
2,note_on,55,0,286
2,note_on,43,0,0
2,note_on,55,82,0
2,note_on,43,69,0
2,note_on,43,0,114
2,note_on,55,0,0
2,note_on,43,72,6
2,note_on,55,85,0
2,note_on,55,0,120
2,note_on,43,0,0
2,note_on,44,77,120
2,note_on,56,91,0
2,note_on,56,0,303
2,note_on,44,0,0
2,note_on,56,88,0
2,note_on,44,75,0
2,note_on,44,0,120
2,note_on,56,0,0
2,note_on,47,76,0
2,note_on,59,90,0
2,note_on,59,0,120
2,note_on,47,0,0
2,note_on,51,78,120
2,note_on,63,93,0
2,note_on,63,0,657
2,note_on,51,0,0
2,note_on,49,68,0
2,note_on,61,81,0
2,note_on,61,0,278
2,note_on,49,0,0
2,note_on,49,62,0
2,note_on,61,73,0
2,note_on,61,0,114
2,note_on,49,0,0
2,note_on,49,69,6
2,note_on,61,82,0
2,note_on,61,0,240
2,note_on,49,0,0
2,note_on,49,62,0
2,note_on,61,86,0
2,note_on,61,0,360
2,note_on,49,0,0
2,note_on,49,61,0
2,note_on,61,72,0
2,note_on,61,0,114
2,note_on,49,0,0
2,note_on,49,67,6
2,note_on,61,79,0
2,note_on,61,0,240
2,note_on,49,0,0
2,note_on,49,89,0
2,note_on,61,89,0
2,note_on,61,0,317
2,note_on,49,0,0
2,note_on,37,78,0
2,note_on,49,78,0
2,note_on,49,0,120
2,note_on,37,0,0
2,note_on,37,86,0
2,note_on,49,86,0
2,note_on,49,0,960
2,note_on,37,0,0
2,note_on,50,68,0
2,note_on,62,81,0
2,note_on,62,0,278
2,note_on,50,0,0
2,note_on,50,62,0
2,note_on,62,73,0
2,note_on,62,0,114
2,note_on,50,0,0
2,note_on,50,69,6
2,note_on,62,82,0
2,note_on,62,0,240
2,note_on,50,0,0
2,note_on,50,62,0
2,note_on,62,86,0
2,note_on,62,0,360
2,note_on,50,0,0
2,note_on,50,61,0
2,note_on,62,72,0
2,note_on,62,0,114
2,note_on,50,0,0
2,note_on,50,67,6
2,note_on,62,79,0
2,note_on,62,0,240
2,note_on,50,0,0
2,note_on,50,89,0
2,note_on,62,89,0
2,note_on,62,0,317
2,note_on,50,0,0
2,note_on,38,78,0
2,note_on,50,78,0
2,note_on,50,0,120
2,note_on,38,0,0
2,note_on,38,86,0
2,note_on,50,86,0
2,note_on,50,0,960
2,note_on,38,0,0
2,note_on,52,68,0
2,note_on,64,81,0
2,note_on,64,0,278
2,note_on,52,0,0
2,note_on,52,62,0
2,note_on,64,73,0
2,note_on,64,0,114
2,note_on,52,0,0
2,note_on,52,69,6
2,note_on,64,82,0
2,note_on,64,0,240
2,note_on,52,0,0
2,note_on,52,62,0
2,note_on,64,86,0
2,note_on,64,0,360
2,note_on,52,0,0
2,note_on,52,61,0
2,note_on,64,72,0
2,note_on,64,0,114
2,note_on,52,0,0
2,note_on,52,67,6
2,note_on,64,79,0
2,note_on,64,0,240
2,note_on,52,0,0
2,note_on,52,89,0
2,note_on,64,89,0
2,note_on,64,0,317
2,note_on,52,0,0
2,note_on,40,78,0
2,note_on,52,78,0
2,note_on,52,0,120
2,note_on,40,0,0
2,note_on,40,86,0
2,note_on,52,86,0
2,note_on,52,0,960
2,note_on,40,0,0
2,note_on,58,68,0
2,note_on,51,68,0
2,note_on,55,68,0
2,note_on,63,81,0
2,note_on,63,0,183
2,note_on,58,0,0
2,note_on,51,0,0
2,note_on,55,0,0
2,note_on,63,73,0
2,note_on,63,0,114
2,note_on,63,82,6
2,note_on,63,0,120
2,note_on,59,68,99
2,note_on,51,68,0
2,note_on,56,68,0
2,note_on,63,81,0
2,note_on,63,0,183
2,note_on,59,0,0
2,note_on,51,0,0
2,note_on,56,0,0
2,note_on,63,73,0
2,note_on,63,0,114
2,note_on,63,82,6
2,note_on,63,0,113
2,note_on,58,68,120
2,note_on,51,68,0
2,note_on,55,68,0
2,note_on,63,81,0
2,note_on,63,0,183
2,note_on,58,0,0
2,note_on,51,0,0
2,note_on,55,0,0
2,note_on,63,73,0
2,note_on,63,0,114
2,note_on,63,82,6
2,note_on,63,0,78
2,note_on,59,68,120
2,note_on,51,68,0
2,note_on,56,68,0
2,note_on,63,81,0
2,note_on,63,0,183
2,note_on,59,0,0
2,note_on,51,0,0
2,note_on,56,0,0
2,note_on,63,73,0
2,note_on,63,0,114
2,note_on,63,82,6
2,note_on,63,0,106
2,note_on,39,34,120
2,note_on,51,46,0
2,note_on,51,0,183
2,note_on,39,0,0
2,note_on,51,43,0
2,note_on,51,0,114
2,note_on,51,48,6
2,note_on,51,0,49
2,note_on,39,34,120
2,note_on,51,46,0
2,note_on,51,0,183
2,note_on,39,0,0
2,note_on,51,41,0
2,note_on,51,0,114
2,note_on,51,47,6
2,note_on,51,0,49
2,note_on,39,34,120
2,note_on,51,46,0
2,note_on,51,0,183
2,note_on,39,0,0
2,note_on,51,43,0
2,note_on,51,0,114
2,note_on,51,48,6
2,note_on,51,0,56
2,note_on,39,34,120
2,note_on,51,46,0
2,note_on,51,0,183
2,note_on,39,0,0
2,note_on,51,41,0
2,note_on,51,0,114
2,note_on,51,47,6
2,note_on,51,0,113
2,note_on,39,32,120
2,note_on,39,0,63
2,note_on,39,30,155
2,note_on,39,0,63
2,note_on,39,27,205
2,note_on,39,0,63
2,note_on,39,25,198
2,note_on,39,0,63
2,note_on,44,28,212
2,note_on,51,28,0
2,note_on,56,34,0
2,note_on,56,0,205
2,note_on,51,0,0
2,note_on,44,0,0
2,note_on,44,26,0
2,note_on,51,26,0
2,note_on,56,32,0
2,note_on,56,0,114
2,note_on,51,0,0
2,note_on,44,0,0
2,note_on,44,29,6
2,note_on,51,29,0
2,note_on,56,34,0
2,note_on,56,0,120
2,note_on,51,0,0
2,note_on,44,0,0
2,note_on,44,28,120
2,note_on,51,28,0
2,note_on,56,34,0
2,note_on,56,0,282
2,note_on,51,0,0
2,note_on,44,0,0
2,note_on,44,26,0
2,note_on,51,26,0
2,note_on,56,32,0
2,note_on,56,0,114
2,note_on,51,0,0
2,note_on,44,0,0
2,note_on,44,29,6
2,note_on,51,29,0
2,note_on,56,34,0
2,note_on,56,0,120
2,note_on,51,0,0
2,note_on,44,0,0
2,note_on,44,33,120
2,note_on,51,33,0
2,note_on,56,39,0
2,note_on,56,0,240
2,note_on,51,0,0
2,note_on,44,0,0
2,note_on,63,44,1200
2,note_on,61,37,0
2,note_on,55,37,0
2,note_on,55,0,60
2,note_on,61,0,0
2,note_on,63,0,0
2,note_on,63,44,180
2,note_on,61,37,0
2,note_on,55,37,0
2,note_on,55,0,480
2,note_on,61,0,0
2,note_on,63,0,0
2,note_on,50,43,0
2,note_on,50,0,120
2,note_on,51,40,0
2,note_on,51,0,120
2,note_on,46,42,0
2,note_on,46,0,120
2,note_on,43,40,0
2,note_on,43,0,120
2,note_on,39,42,0
2,note_on,39,0,120
2,note_on,46,36,0
2,note_on,51,36,0
2,note_on,58,43,0
2,note_on,58,0,360
2,note_on,51,0,0
2,note_on,46,0,0
2,note_on,46,33,0
2,note_on,51,33,0
2,note_on,58,40,0
2,note_on,58,0,114
2,note_on,51,0,0
2,note_on,46,0,0
2,note_on,46,37,6
2,note_on,51,37,0
2,note_on,58,43,0
2,note_on,58,0,120
2,note_on,51,0,0
2,note_on,46,0,0
2,note_on,46,36,120
2,note_on,51,36,0
2,note_on,58,43,0
2,note_on,58,0,282
2,note_on,51,0,0
2,note_on,46,0,0
2,note_on,46,33,0
2,note_on,51,33,0
2,note_on,58,40,0
2,note_on,58,0,114
2,note_on,51,0,0
2,note_on,46,0,0
2,note_on,46,37,6
2,note_on,51,37,0
2,note_on,58,43,0
2,note_on,58,0,120
2,note_on,51,0,0
2,note_on,46,0,0
2,note_on,46,37,120
2,note_on,51,37,0
2,note_on,58,44,0
2,note_on,58,0,240
2,note_on,51,0,0
2,note_on,46,0,0
2,note_on,67,44,1200
2,note_on,63,37,0
2,note_on,56,37,0
2,note_on,56,0,60
2,note_on,63,0,0
2,note_on,67,0,0
2,note_on,68,44,180
2,note_on,63,37,0
2,note_on,56,37,0
2,note_on,56,0,480
2,note_on,63,0,0
2,note_on,68,0,0
2,note_on,55,43,0
2,note_on,55,0,120
2,note_on,56,40,0
2,note_on,56,0,120
2,note_on,51,42,0
2,note_on,51,0,120
2,note_on,48,40,0
2,note_on,48,0,120
2,note_on,44,42,0
2,note_on,44,0,120
2,note_on,44,73,120
2,note_on,44,0,120
2,note_on,45,68,0
2,note_on,45,0,120
2,note_on,46,72,0
2,note_on,46,0,120
2,note_on,47,76,0
2,note_on,47,0,120
2,note_on,48,80,0
2,note_on,48,0,120
2,note_on,49,73,120
2,note_on,49,0,120
2,note_on,61,67,0
2,note_on,61,0,120
2,note_on,56,70,0
2,note_on,56,0,120
2,note_on,53,67,0
2,note_on,53,0,120
2,note_on,49,70,0
2,note_on,49,0,120
2,note_on,41,73,120
2,note_on,41,0,120
2,note_on,42,70,0
2,note_on,42,0,120
2,note_on,43,74,0
2,note_on,43,0,120
2,note_on,44,77,0
2,note_on,44,0,120
2,note_on,45,81,0
2,note_on,45,0,120
2,note_on,46,73,120
2,note_on,46,0,120
2,note_on,58,67,0
2,note_on,58,0,120
2,note_on,53,70,0
2,note_on,53,0,120
2,note_on,49,67,0
2,note_on,49,0,120
2,note_on,46,70,0
2,note_on,46,0,120
2,note_on,43,37,120
2,note_on,55,45,0
2,note_on,55,0,463
2,note_on,43,0,0
2,note_on,64,37,0
2,note_on,61,31,0
2,note_on,58,31,0
2,note_on,55,31,0
2,note_on,55,0,91
2,note_on,64,0,0
2,note_on,61,0,0
2,note_on,58,0,0
2,note_on,44,40,120
2,note_on,56,49,0
2,note_on,56,0,463
2,note_on,44,0,0
2,note_on,63,40,0
2,note_on,60,34,0
2,note_on,56,34,0
2,note_on,56,0,91
2,note_on,60,0,0
2,note_on,63,0,0
2,note_on,34,49,120
2,note_on,46,58,0
2,note_on,46,0,463
2,note_on,34,0,0
2,note_on,55,49,0
2,note_on,49,40,0
2,note_on,46,40,0
2,note_on,46,0,91
2,note_on,49,0,0
2,note_on,55,0,0
2,note_on,35,54,120
2,note_on,47,64,0
2,note_on,47,0,463
2,note_on,35,0,0
2,note_on,56,54,0
2,note_on,51,44,0
2,note_on,47,44,0
2,note_on,47,0,91
2,note_on,51,0,0
2,note_on,56,0,0
2,note_on,40,60,120
2,note_on,52,70,0
2,note_on,52,0,360
2,note_on,40,0,0
2,note_on,28,54,0
2,note_on,40,64,0
2,note_on,40,0,114
2,note_on,28,0,0
2,note_on,28,54,6
2,note_on,40,64,0
2,note_on,40,0,240
2,note_on,28,0,0
2,note_on,28,61,0
2,note_on,40,72,0
2,note_on,40,0,228
2,note_on,28,0,0
2,note_on,28,55,12
2,note_on,40,66,0
2,note_on,40,0,228
2,note_on,28,0,0
2,note_on,28,55,12
2,note_on,40,66,0
2,note_on,40,0,228
2,note_on,28,0,0
2,note_on,41,57,12
2,note_on,41,0,63
2,note_on,42,59,0
2,note_on,42,0,120
2,note_on,43,61,0
2,note_on,43,0,120
2,note_on,44,62,0
2,note_on,44,0,120
2,note_on,45,64,0
2,note_on,45,0,120
2,note_on,46,66,0
2,note_on,46,0,120
2,note_on,47,68,0
2,note_on,47,0,120
2,note_on,48,70,0
2,note_on,48,0,120
2,note_on,49,71,0
2,note_on,49,0,120
2,note_on,50,73,0
2,note_on,50,0,120
2,note_on,51,75,0
2,note_on,51,0,120
2,note_on,52,77,0
2,note_on,52,0,120
2,note_on,40,72,0
2,note_on,52,85,0
2,note_on,52,0,240
2,note_on,40,0,0
2,note_on,52,65,0
2,note_on,64,77,0
2,note_on,64,0,120
2,note_on,52,0,0
2,note_on,64,77,120
2,note_on,52,65,0
2,note_on,52,0,120
2,note_on,64,0,0
2,note_on,52,72,120
2,note_on,64,85,0
2,note_on,64,0,120
2,note_on,52,0,0
2,note_on,52,65,120
2,note_on,64,77,0
2,note_on,64,0,120
2,note_on,52,0,0
2,note_on,52,65,120
2,note_on,64,77,0
2,note_on,64,0,120
2,note_on,52,0,0
2,note_on,51,73,120
2,note_on,63,87,0
2,note_on,63,0,120
2,note_on,51,0,0
2,note_on,51,77,120
2,note_on,39,65,0
2,note_on,39,0,120
2,note_on,51,0,0
2,note_on,51,73,360
2,note_on,63,87,0
2,note_on,63,0,120
2,note_on,51,0,0
2,note_on,51,77,120
2,note_on,39,65,0
2,note_on,39,0,120
2,note_on,51,0,0
2,note_on,51,43,360
2,note_on,51,0,90
2,note_on,39,38,150
2,note_on,39,0,90
2,note_on,51,43,390
2,note_on,51,0,90
2,note_on,39,38,150
2,note_on,39,0,90
2,note_on,44,35,390
2,note_on,44,0,88
2,note_on,60,30,60
2,note_on,56,25,0
2,note_on,51,25,0
2,note_on,51,0,480
2,note_on,56,0,0
2,note_on,60,0,0
2,note_on,48,35,0
2,note_on,48,0,88
2,note_on,63,28,60
2,note_on,60,24,0
2,note_on,56,24,0
2,note_on,56,0,480
2,note_on,60,0,0
2,note_on,63,0,0
2,note_on,46,35,0
2,note_on,46,0,92
2,note_on,63,28,60
2,note_on,61,24,0
2,note_on,55,24,0
2,note_on,55,0,480
2,note_on,61,0,0
2,note_on,63,0,0
2,note_on,39,37,0
2,note_on,39,0,67
2,note_on,63,28,60
2,note_on,58,24,0
2,note_on,55,24,0
2,note_on,55,0,480
2,note_on,58,0,0
2,note_on,63,0,0
2,note_on,44,36,0
2,note_on,44,0,88
2,note_on,63,28,60
2,note_on,60,24,0
2,note_on,56,24,0
2,note_on,56,0,480
2,note_on,60,0,0
2,note_on,63,0,0
2,note_on,37,36,0
2,note_on,37,0,95
2,note_on,61,28,60
2,note_on,58,24,0
2,note_on,53,24,0
2,note_on,53,0,480
2,note_on,58,0,0
2,note_on,61,0,0
2,note_on,39,36,0
2,note_on,39,0,106
2,note_on,58,28,60
2,note_on,55,24,0
2,note_on,51,24,0
2,note_on,51,0,480
2,note_on,55,0,0
2,note_on,58,0,0
2,note_on,43,35,0
2,note_on,43,0,77
2,note_on,61,28,60
2,note_on,58,24,0
2,note_on,51,24,0
2,note_on,51,0,360
2,note_on,58,0,0
2,note_on,61,0,0
2,note_on,44,36,0
2,note_on,44,0,7
2,note_on,51,28,60
2,note_on,51,0,120
2,note_on,56,28,0
2,note_on,56,0,120
2,note_on,60,28,0
2,note_on,60,0,120
2,note_on,56,28,0
2,note_on,56,0,120
2,note_on,51,28,0
2,note_on,51,0,120
2,note_on,48,36,0
2,note_on,48,0,14
2,note_on,56,28,60
2,note_on,56,0,120
2,note_on,60,28,0
2,note_on,60,0,120
2,note_on,63,28,0
2,note_on,63,0,120
2,note_on,60,28,0
2,note_on,60,0,120
2,note_on,56,28,0
2,note_on,56,0,120
2,note_on,46,40,0
2,note_on,46,0,18
2,note_on,55,28,60
2,note_on,55,0,120
2,note_on,61,28,0
2,note_on,61,0,120
2,note_on,63,28,0
2,note_on,63,0,120
2,note_on,61,28,0
2,note_on,61,0,120
2,note_on,55,28,0
2,note_on,55,0,120
2,note_on,39,37,0
2,note_on,39,0,7
2,note_on,55,28,60
2,note_on,55,0,120
2,note_on,58,28,0
2,note_on,58,0,120
2,note_on,63,28,0
2,note_on,63,0,120
2,note_on,58,28,0
2,note_on,58,0,120
2,note_on,55,28,0
2,note_on,55,0,120
2,note_on,44,36,0
2,note_on,44,0,14
2,note_on,56,28,60
2,note_on,56,0,120
2,note_on,60,28,0
2,note_on,60,0,120
2,note_on,63,28,0
2,note_on,63,0,120
2,note_on,60,28,0
2,note_on,60,0,120
2,note_on,56,28,0
2,note_on,56,0,120
2,note_on,37,39,0
2,note_on,37,0,18
2,note_on,53,28,60
2,note_on,53,0,120
2,note_on,58,28,0
2,note_on,58,0,120
2,note_on,61,28,0
2,note_on,61,0,120
2,note_on,58,28,0
2,note_on,58,0,120
2,note_on,53,28,0
2,note_on,53,0,120
2,note_on,39,41,0
2,note_on,39,0,18
2,note_on,51,28,60
2,note_on,51,0,120
2,note_on,55,28,0
2,note_on,55,0,120
2,note_on,61,28,0
2,note_on,61,0,120
2,note_on,55,28,0
2,note_on,55,0,120
2,note_on,51,28,0
2,note_on,51,0,120
2,note_on,44,39,0
2,note_on,44,0,18
2,note_on,51,28,60
2,note_on,51,0,120
2,note_on,56,28,0
2,note_on,56,0,120
2,note_on,60,28,0
2,note_on,60,0,120
2,note_on,56,28,0
2,note_on,56,0,120
2,note_on,51,28,0
2,note_on,51,0,120
2,note_on,39,63,0
2,note_on,51,75,0
2,note_on,51,0,240
2,note_on,39,0,0
2,note_on,32,68,480
2,note_on,44,81,0
2,note_on,44,0,240
2,note_on,32,0,0
2,note_on,63,36,3360
2,note_on,60,30,0
2,note_on,63,0,720
2,note_on,64,36,0
2,note_on,64,0,720
2,note_on,60,0,0
2,note_on,65,36,0
2,note_on,61,30,0
2,note_on,61,0,720
2,note_on,65,0,0
2,note_on,63,36,0
2,note_on,56,30,0
2,note_on,56,0,720
2,note_on,63,0,0
2,note_on,49,30,0
2,note_on,53,30,0
2,note_on,61,36,0
2,note_on,61,0,226
2,note_on,53,0,0
2,note_on,49,0,0
2,note_on,61,36,0
2,note_on,65,43,0
2,note_on,65,0,7
2,note_on,61,0,0
2,note_on,56,30,0
2,note_on,56,0,120
2,note_on,49,30,120
2,note_on,53,30,0
2,note_on,61,36,0
2,note_on,61,0,226
2,note_on,53,0,0
2,note_on,49,0,0
2,note_on,61,36,0
2,note_on,65,43,0
2,note_on,65,0,7
2,note_on,61,0,0
2,note_on,56,29,0
2,note_on,56,0,120
2,note_on,48,30,120
2,note_on,54,30,0
2,note_on,56,36,0
2,note_on,56,0,226
2,note_on,54,0,0
2,note_on,48,0,0
2,note_on,63,36,0
2,note_on,66,43,0
2,note_on,66,0,240
2,note_on,63,0,0
2,note_on,56,31,0
2,note_on,56,0,107
2,note_on,48,30,120
2,note_on,54,30,0
2,note_on,56,36,0
2,note_on,56,0,226
2,note_on,54,0,0
2,note_on,48,0,0
2,note_on,63,36,0
2,note_on,66,43,0
2,note_on,66,0,240
2,note_on,63,0,0
2,note_on,56,31,0
2,note_on,56,0,113
2,note_on,49,30,120
2,note_on,56,36,0
2,note_on,56,0,480
2,note_on,57,45,0
2,note_on,57,0,240
2,note_on,58,48,0
2,note_on,58,0,480
2,note_on,49,0,0
2,note_on,50,35,0
2,note_on,56,41,0
2,note_on,56,0,240
2,note_on,50,0,0
2,note_on,51,30,0
2,note_on,55,36,0
2,note_on,55,0,720
2,note_on,44,29,0
2,note_on,56,36,0
2,note_on,56,0,360
2,note_on,44,0,0
2,note_on,51,0,0
2,note_on,49,30,360
2,note_on,53,30,0
2,note_on,61,36,0
2,note_on,61,0,226
2,note_on,53,0,0
2,note_on,49,0,0
2,note_on,61,36,0
2,note_on,65,43,0
2,note_on,65,0,21
2,note_on,61,0,0
2,note_on,53,25,0
2,note_on,61,30,0
2,note_on,61,0,120
2,note_on,53,0,0
2,note_on,49,30,120
2,note_on,53,30,0
2,note_on,61,36,0
2,note_on,61,0,226
2,note_on,53,0,0
2,note_on,49,0,0
2,note_on,61,36,0
2,note_on,65,43,0
2,note_on,65,0,240
2,note_on,61,0,0
2,note_on,53,25,0
2,note_on,61,29,0
2,note_on,61,0,106
2,note_on,53,0,0
2,note_on,48,30,120
2,note_on,54,30,0
2,note_on,56,36,0
2,note_on,56,0,226
2,note_on,54,0,0
2,note_on,48,0,0
2,note_on,63,36,0
2,note_on,66,43,0
2,note_on,66,0,6
2,note_on,63,0,0
2,note_on,63,31,0
2,note_on,56,26,0
2,note_on,56,0,120
2,note_on,63,0,0
2,note_on,48,30,120
2,note_on,54,30,0
2,note_on,56,36,0
2,note_on,56,0,226
2,note_on,54,0,0
2,note_on,48,0,0
2,note_on,63,36,0
2,note_on,66,43,0
2,note_on,66,0,240
2,note_on,63,0,0
2,note_on,63,31,0
2,note_on,56,26,0
2,note_on,56,0,120
2,note_on,63,0,0
2,note_on,49,30,120
2,note_on,56,36,0
2,note_on,56,0,480
2,note_on,57,45,0
2,note_on,57,0,240
2,note_on,58,48,0
2,note_on,58,0,480
2,note_on,57,41,0
2,note_on,57,0,240
2,note_on,58,48,0
2,note_on,58,0,480
2,note_on,53,45,0
2,note_on,53,0,240
2,note_on,61,48,0
2,note_on,61,0,480
2,note_on,59,44,0
2,note_on,59,0,240
2,note_on,49,0,0
2,note_on,48,30,0
2,note_on,58,48,0
2,note_on,58,0,720
2,note_on,56,48,0
2,note_on,56,0,720
2,note_on,58,48,0
2,note_on,58,0,720
2,note_on,48,0,0
2,note_on,53,36,0
2,note_on,56,40,0
2,note_on,56,0,240
2,note_on,53,0,0
2,note_on,53,51,120
2,note_on,53,0,120
2,note_on,54,51,0
2,note_on,54,0,120
2,note_on,53,51,0
2,note_on,53,0,120
2,note_on,51,57,0
2,note_on,51,0,240
2,note_on,42,50,0
2,note_on,54,60,0
2,note_on,41,46,240
2,note_on,53,55,0
2,note_on,54,0,20
2,note_on,42,0,0
2,note_on,39,51,220
2,note_on,51,61,0
2,note_on,41,0,20
2,note_on,53,0,0
2,note_on,37,45,220
2,note_on,49,53,0
2,note_on,39,0,20
2,note_on,51,0,0
2,note_on,36,48,220
2,note_on,48,58,0
2,note_on,37,0,20
2,note_on,49,0,0
2,note_on,34,53,220
2,note_on,46,64,0
2,note_on,36,0,20
2,note_on,48,0,0
2,note_on,34,0,700
2,note_on,46,0,0
2,note_on,33,59,0
2,note_on,45,69,0
2,note_on,45,0,194
2,note_on,33,0,0
2,note_on,53,51,60
2,note_on,53,0,120
2,note_on,54,51,0
2,note_on,54,0,120
2,note_on,53,51,0
2,note_on,53,0,120
2,note_on,51,57,0
2,note_on,51,0,240
2,note_on,42,50,0
2,note_on,54,60,0
2,note_on,39,46,240
2,note_on,51,55,0
2,note_on,54,0,20
2,note_on,42,0,0
2,note_on,37,51,220
2,note_on,49,61,0
2,note_on,39,0,20
2,note_on,51,0,0
2,note_on,36,45,220
2,note_on,48,53,0
2,note_on,37,0,20
2,note_on,49,0,0
2,note_on,34,48,220
2,note_on,46,58,0
2,note_on,36,0,20
2,note_on,48,0,0
2,note_on,33,53,220
2,note_on,45,64,0
2,note_on,34,0,20
2,note_on,46,0,0
2,note_on,33,0,700
2,note_on,45,0,0
2,note_on,32,59,0
2,note_on,44,69,0
2,note_on,44,0,194
2,note_on,32,0,0
2,note_on,53,51,46
2,note_on,53,0,120
2,note_on,54,51,0
2,note_on,54,0,120
2,note_on,53,51,0
2,note_on,53,0,120
2,note_on,51,57,0
2,note_on,51,0,240
2,note_on,42,44,0
2,note_on,54,52,0
2,note_on,39,39,240
2,note_on,51,47,0
2,note_on,54,0,20
2,note_on,42,0,0
2,note_on,36,37,220
2,note_on,48,44,0
2,note_on,39,0,20
2,note_on,51,0,0
2,note_on,33,34,220
2,note_on,45,41,0
2,note_on,36,0,20
2,note_on,48,0,0
2,note_on,32,32,220
2,note_on,44,38,0
2,note_on,33,0,20
2,note_on,45,0,0
2,note_on,30,29,220
2,note_on,42,35,0
2,note_on,32,0,20
2,note_on,44,0,0
2,note_on,30,0,8620
2,note_on,42,0,0
2,note_on,42,35,0
2,note_on,50,40,640
2,note_on,50,0,573
2,note_on,49,38,0
2,note_on,49,0,613
2,note_on,50,36,0
2,note_on,50,0,560
2,note_on,42,0,0
2,note_on,42,32,0
2,note_on,49,36,0
2,note_on,42,0,560
2,note_on,43,34,0
2,note_on,43,0,573
2,note_on,49,0,0
2,note_on,44,26,0
2,note_on,48,26,0
2,note_on,54,31,0
2,note_on,54,0,720
2,note_on,48,0,0
2,note_on,44,0,0
2,note_on,49,29,0
2,note_on,53,29,0
2,note_on,61,35,0
2,note_on,61,0,226
2,note_on,53,0,0
2,note_on,49,0,0
2,note_on,61,35,0
2,note_on,65,41,0
2,note_on,65,0,7
2,note_on,61,0,0
2,note_on,56,28,0
2,note_on,56,0,120
2,note_on,53,29,120
2,note_on,49,29,0
2,note_on,61,35,0
2,note_on,61,0,226
2,note_on,49,0,0
2,note_on,53,0,0
2,note_on,61,35,0
2,note_on,65,41,0
2,note_on,65,0,21
2,note_on,61,0,0
2,note_on,56,28,0
2,note_on,56,0,120
2,note_on,48,29,120
2,note_on,54,29,0
2,note_on,56,35,0
2,note_on,56,0,226
2,note_on,54,0,0
2,note_on,48,0,0
2,note_on,66,41,0
2,note_on,63,35,0
2,note_on,63,0,19
2,note_on,66,0,0
2,note_on,56,30,0
2,note_on,56,0,120
2,note_on,54,29,120
2,note_on,56,35,0
2,note_on,48,29,0
2,note_on,48,0,226
2,note_on,56,0,0
2,note_on,54,0,0
2,note_on,63,35,0
2,note_on,66,41,0
2,note_on,66,0,240
2,note_on,63,0,0
2,note_on,56,30,0
2,note_on,56,0,113
2,note_on,56,29,120
2,note_on,49,29,0
2,note_on,61,35,0
2,note_on,61,0,720
2,note_on,49,0,0
2,note_on,56,0,0
2,note_on,53,29,0
2,note_on,56,29,0
2,note_on,61,35,0
2,note_on,61,0,720
2,note_on,56,0,0
2,note_on,53,0,0
2,note_on,56,29,0
2,note_on,60,35,0
2,note_on,60,0,720
2,note_on,56,0,0
2,note_on,65,35,0
2,note_on,61,29,0
2,note_on,61,0,480
2,note_on,65,0,0
2,note_on,49,29,240
2,note_on,53,29,0
2,note_on,61,35,0
2,note_on,61,0,226
2,note_on,53,0,0
2,note_on,49,0,0
2,note_on,61,35,0
2,note_on,65,41,0
2,note_on,65,0,14
2,note_on,61,0,0
2,note_on,56,28,0
2,note_on,56,0,120
2,note_on,53,29,120
2,note_on,49,29,0
2,note_on,61,35,0
2,note_on,61,0,226
2,note_on,49,0,0
2,note_on,53,0,0
2,note_on,61,35,0
2,note_on,65,41,0
2,note_on,65,0,14
2,note_on,61,0,0
2,note_on,56,28,0
2,note_on,56,0,120
2,note_on,48,29,120
2,note_on,54,29,0
2,note_on,56,35,0
2,note_on,56,0,195
2,note_on,54,0,0
2,note_on,48,0,0
2,note_on,66,41,0
2,note_on,63,35,0
2,note_on,63,0,240
2,note_on,66,0,0
2,note_on,56,30,0
2,note_on,56,0,113
2,note_on,54,29,120
2,note_on,56,35,0
2,note_on,48,29,0
2,note_on,48,0,169
2,note_on,56,0,0
2,note_on,54,0,0
2,note_on,63,35,0
2,note_on,66,41,0
2,note_on,66,0,13
2,note_on,63,0,0
2,note_on,56,30,0
2,note_on,56,0,120
2,note_on,56,29,120
2,note_on,49,29,0
2,note_on,61,35,0
2,note_on,61,0,424
2,note_on,49,0,0
2,note_on,56,0,0
2,note_on,53,29,0
2,note_on,56,29,0
2,note_on,61,35,0
2,note_on,61,0,438
2,note_on,56,0,0
2,note_on,53,0,0
2,note_on,66,34,0
2,note_on,56,29,0
2,note_on,60,35,0
2,note_on,66,0,120
2,note_on,70,38,120
2,note_on,70,0,200
2,note_on,68,36,0
2,note_on,68,0,240
2,note_on,60,0,0
2,note_on,56,0,0
2,note_on,65,35,0
2,note_on,61,29,0
2,note_on,61,0,475
2,note_on,65,0,0
2,note_on,69,49,0
2,note_on,69,0,296
2,note_on,69,44,0
2,note_on,69,0,114
2,note_on,69,49,6
2,note_on,69,0,240
2,note_on,69,49,0
2,note_on,69,0,360
2,note_on,69,45,0
2,note_on,69,0,114
2,note_on,69,49,6
2,note_on,69,0,240
2,note_on,67,50,0
2,note_on,70,60,0
2,note_on,70,0,265
2,note_on,67,0,0
2,note_on,67,45,0
2,note_on,70,54,0
2,note_on,70,0,114
2,note_on,67,0,0
2,note_on,67,53,6
2,note_on,70,63,0
2,note_on,70,0,240
2,note_on,67,0,0
2,note_on,63,58,0
2,note_on,67,58,0
2,note_on,70,69,0
2,note_on,70,0,360
2,note_on,67,0,0
2,note_on,63,0,0
2,note_on,63,53,0
2,note_on,67,53,0
2,note_on,70,64,0
2,note_on,70,0,114
2,note_on,67,0,0
2,note_on,63,0,0
2,note_on,63,60,6
2,note_on,67,60,0
2,note_on,70,70,0
2,note_on,70,0,240
2,note_on,67,0,0
2,note_on,63,0,0
2,note_on,44,61,0
2,note_on,51,61,0
2,note_on,56,72,0
2,note_on,56,0,261
2,note_on,51,0,0
2,note_on,44,0,0
2,note_on,44,56,0
2,note_on,51,56,0
2,note_on,56,67,0
2,note_on,56,0,114
2,note_on,51,0,0
2,note_on,44,0,0
2,note_on,44,62,6
2,note_on,51,62,0
2,note_on,56,73,0
2,note_on,56,0,120
2,note_on,51,0,0
2,note_on,44,0,0
2,note_on,44,61,120
2,note_on,51,61,0
2,note_on,56,72,0
2,note_on,56,0,282
2,note_on,51,0,0
2,note_on,44,0,0
2,note_on,44,56,0
2,note_on,51,56,0
2,note_on,56,67,0
2,note_on,56,0,114
2,note_on,51,0,0
2,note_on,44,0,0
2,note_on,44,62,6
2,note_on,51,62,0
2,note_on,56,73,0
2,note_on,56,0,120
2,note_on,51,0,0
2,note_on,44,0,0
2,note_on,44,62,120
2,note_on,51,62,0
2,note_on,56,74,0
2,note_on,56,0,240
2,note_on,51,0,0
2,note_on,44,0,0
2,note_on,63,74,1200
2,note_on,61,62,0
2,note_on,55,62,0
2,note_on,55,0,60
2,note_on,61,0,0
2,note_on,63,0,0
2,note_on,63,74,180
2,note_on,61,62,0
2,note_on,55,62,0
2,note_on,55,0,480
2,note_on,61,0,0
2,note_on,63,0,0
2,note_on,50,73,0
2,note_on,50,0,120
2,note_on,51,67,0
2,note_on,51,0,120
2,note_on,46,70,0
2,note_on,46,0,120
2,note_on,43,67,0
2,note_on,43,0,120
2,note_on,39,70,0
2,note_on,39,0,120
2,note_on,46,61,0
2,note_on,51,61,0
2,note_on,58,72,0
2,note_on,58,0,360
2,note_on,51,0,0
2,note_on,46,0,0
2,note_on,46,56,0
2,note_on,51,56,0
2,note_on,58,67,0
2,note_on,58,0,114
2,note_on,51,0,0
2,note_on,46,0,0
2,note_on,46,62,6
2,note_on,51,62,0
2,note_on,58,73,0
2,note_on,58,0,120
2,note_on,51,0,0
2,note_on,46,0,0
2,note_on,46,61,120
2,note_on,51,61,0
2,note_on,58,72,0
2,note_on,58,0,282
2,note_on,51,0,0
2,note_on,46,0,0
2,note_on,46,56,0
2,note_on,51,56,0
2,note_on,58,67,0
2,note_on,58,0,114
2,note_on,51,0,0
2,note_on,46,0,0
2,note_on,46,62,6
2,note_on,51,62,0
2,note_on,58,73,0
2,note_on,58,0,120
2,note_on,51,0,0
2,note_on,46,0,0
2,note_on,46,62,120
2,note_on,51,62,0
2,note_on,58,74,0
2,note_on,58,0,240
2,note_on,51,0,0
2,note_on,46,0,0
2,note_on,67,74,1200
2,note_on,63,62,0
2,note_on,56,62,0
2,note_on,56,0,60
2,note_on,63,0,0
2,note_on,67,0,0
2,note_on,68,74,180
2,note_on,63,62,0
2,note_on,56,62,0
2,note_on,56,0,480
2,note_on,63,0,0
2,note_on,68,0,0
2,note_on,55,73,0
2,note_on,55,0,120
2,note_on,56,67,0
2,note_on,56,0,120
2,note_on,51,70,0
2,note_on,51,0,120
2,note_on,48,67,0
2,note_on,48,0,120
2,note_on,44,70,0
2,note_on,44,0,120
2,note_on,44,61,0
2,note_on,51,61,0
2,note_on,56,72,0
2,note_on,56,0,360
2,note_on,51,0,0
2,note_on,44,0,0
2,note_on,44,56,0
2,note_on,51,56,0
2,note_on,56,67,0
2,note_on,56,0,114
2,note_on,51,0,0
2,note_on,44,0,0
2,note_on,44,62,6
2,note_on,51,62,0
2,note_on,56,73,0
2,note_on,56,0,120
2,note_on,51,0,0
2,note_on,44,0,0
2,note_on,44,61,120
2,note_on,52,61,0
2,note_on,56,72,0
2,note_on,56,0,282
2,note_on,52,0,0
2,note_on,44,0,0
2,note_on,44,56,0
2,note_on,52,56,0
2,note_on,56,67,0
2,note_on,56,0,114
2,note_on,52,0,0
2,note_on,44,0,0
2,note_on,44,62,6
2,note_on,52,62,0
2,note_on,56,73,0
2,note_on,56,0,120
2,note_on,52,0,0
2,note_on,44,0,0
2,note_on,45,62,120
2,note_on,52,62,0
2,note_on,57,74,0
2,note_on,57,0,240
2,note_on,52,0,0
2,note_on,45,0,0
2,note_on,48,63,480
2,note_on,48,0,120
2,note_on,45,55,0
2,note_on,45,0,120
2,note_on,40,56,0
2,note_on,40,0,120
2,note_on,36,57,0
2,note_on,36,0,120
2,note_on,33,62,0
2,note_on,33,0,120
2,note_on,45,61,0
2,note_on,52,61,0
2,note_on,57,72,0
2,note_on,57,0,360
2,note_on,52,0,0
2,note_on,45,0,0
2,note_on,45,56,0
2,note_on,52,56,0
2,note_on,57,67,0
2,note_on,57,0,114
2,note_on,52,0,0
2,note_on,45,0,0
2,note_on,45,62,6
2,note_on,52,62,0
2,note_on,57,73,0
2,note_on,57,0,120
2,note_on,52,0,0
2,note_on,45,0,0
2,note_on,45,61,120
2,note_on,53,61,0
2,note_on,57,72,0
2,note_on,57,0,282
2,note_on,53,0,0
2,note_on,45,0,0
2,note_on,45,56,0
2,note_on,53,56,0
2,note_on,57,67,0
2,note_on,57,0,114
2,note_on,53,0,0
2,note_on,45,0,0
2,note_on,45,62,6
2,note_on,53,62,0
2,note_on,57,73,0
2,note_on,57,0,120
2,note_on,53,0,0
2,note_on,45,0,0
2,note_on,46,62,120
2,note_on,53,62,0
2,note_on,58,74,0
2,note_on,58,0,240
2,note_on,53,0,0
2,note_on,46,0,0
2,note_on,49,63,480
2,note_on,49,0,120
2,note_on,46,56,0
2,note_on,46,0,120
2,note_on,41,57,0
2,note_on,41,0,120
2,note_on,37,58,0
2,note_on,37,0,120
2,note_on,34,63,0
2,note_on,34,0,120
2,note_on,46,61,0
2,note_on,54,61,0
2,note_on,58,72,0
2,note_on,58,0,360
2,note_on,54,0,0
2,note_on,46,0,0
2,note_on,46,56,0
2,note_on,54,56,0
2,note_on,58,67,0
2,note_on,58,0,114
2,note_on,54,0,0
2,note_on,46,0,0
2,note_on,46,62,6
2,note_on,54,62,0
2,note_on,58,73,0
2,note_on,58,0,120
2,note_on,54,0,0
2,note_on,46,0,0
2,note_on,47,62,120
2,note_on,54,62,0
2,note_on,59,74,0
2,note_on,59,0,240
2,note_on,54,0,0
2,note_on,47,0,0
2,note_on,47,61,0
2,note_on,55,61,0
2,note_on,59,72,0
2,note_on,59,0,360
2,note_on,55,0,0
2,note_on,47,0,0
2,note_on,47,56,0
2,note_on,55,56,0
2,note_on,59,67,0
2,note_on,59,0,114
2,note_on,55,0,0
2,note_on,47,0,0
2,note_on,47,62,6
2,note_on,55,62,0
2,note_on,59,73,0
2,note_on,59,0,120
2,note_on,55,0,0
2,note_on,47,0,0
2,note_on,48,62,120
2,note_on,55,62,0
2,note_on,60,74,0
2,note_on,60,0,240
2,note_on,55,0,0
2,note_on,48,0,0
2,note_on,32,39,480
2,note_on,32,0,63
2,note_on,44,41,0
2,note_on,44,0,120
2,note_on,32,42,0
2,note_on,32,0,120
2,note_on,44,43,0
2,note_on,44,0,120
2,note_on,32,44,0
2,note_on,32,0,120
2,note_on,44,46,0
2,note_on,44,0,120
2,note_on,32,47,0
2,note_on,32,0,120
2,note_on,44,49,0
2,note_on,44,0,120
2,note_on,32,49,0
2,note_on,32,0,120
2,note_on,44,51,0
2,note_on,44,0,120
2,note_on,32,52,0
2,note_on,32,0,120
2,note_on,44,53,0
2,note_on,44,0,120
2,note_on,45,51,0
2,note_on,45,0,63
2,note_on,46,53,0
2,note_on,46,0,120
2,note_on,47,54,0
2,note_on,47,0,120
2,note_on,48,55,0
2,note_on,48,0,120
2,note_on,49,57,0
2,note_on,49,0,120
2,note_on,50,59,0
2,note_on,50,0,120
2,note_on,51,61,0
2,note_on,51,0,120
2,note_on,52,63,0
2,note_on,52,0,120
2,note_on,53,63,0
2,note_on,53,0,120
2,note_on,54,65,0
2,note_on,54,0,120
2,note_on,55,67,0
2,note_on,55,0,120
2,note_on,56,69,0
2,note_on,56,0,120
2,note_on,56,76,0
2,note_on,44,64,0
2,note_on,44,0,240
2,note_on,56,0,0
2,note_on,68,69,0
2,note_on,56,58,0
2,note_on,56,0,120
2,note_on,68,0,0
2,note_on,68,69,120
2,note_on,56,58,0
2,note_on,56,0,120
2,note_on,68,0,0
2,note_on,56,64,120
2,note_on,68,76,0
2,note_on,68,0,120
2,note_on,56,0,0
2,note_on,68,69,120
2,note_on,56,58,0
2,note_on,56,0,120
2,note_on,68,0,0
2,note_on,56,58,120
2,note_on,68,69,0
2,note_on,68,0,120
2,note_on,56,0,0
2,note_on,55,65,0
2,note_on,67,78,0
2,note_on,67,0,240
2,note_on,55,0,0
2,note_on,43,58,0
2,note_on,55,69,0
2,note_on,55,0,78
2,note_on,43,0,0
2,note_on,31,52,120
2,note_on,43,62,0
2,note_on,43,0,120
2,note_on,31,0,0
2,note_on,65,69,176
2,note_on,53,58,0
2,note_on,53,0,92
2,note_on,65,0,0
2,note_on,53,62,120
2,note_on,41,52,0
2,note_on,41,0,120
2,note_on,53,0,0
2,note_on,64,69,176
2,note_on,52,58,0
2,note_on,52,0,92
2,note_on,64,0,0
2,note_on,52,63,120
2,note_on,40,53,0
2,note_on,40,0,120
2,note_on,52,0,0
2,note_on,69,70,176
2,note_on,57,59,0
2,note_on,57,0,92
2,note_on,69,0,0
2,note_on,57,63,120
2,note_on,45,53,0
2,note_on,45,0,120
2,note_on,57,0,0
2,note_on,67,71,176
2,note_on,55,60,0
2,note_on,55,0,92
2,note_on,67,0,0
2,note_on,43,54,120
2,note_on,55,64,0
2,note_on,55,0,120
2,note_on,43,0,0
2,note_on,54,60,176
2,note_on,66,72,0
2,note_on,66,0,92
2,note_on,54,0,0
2,note_on,54,65,120
2,note_on,42,54,0
2,note_on,42,0,120
2,note_on,54,0,0
2,note_on,59,73,176
2,note_on,47,61,0
2,note_on,47,0,92
2,note_on,59,0,0
2,note_on,35,55,120
2,note_on,47,66,0
2,note_on,47,0,120
2,note_on,35,0,0
2,note_on,45,62,176
2,note_on,57,73,0
2,note_on,57,0,92
2,note_on,45,0,0
2,note_on,45,66,120
2,note_on,33,56,0
2,note_on,33,0,120
2,note_on,45,0,0
2,note_on,56,75,176
2,note_on,44,63,0
2,note_on,44,0,92
2,note_on,56,0,0
2,note_on,44,67,120
2,note_on,32,56,0
2,note_on,32,0,120
2,note_on,44,0,0
2,note_on,61,75,176
2,note_on,49,63,0
2,note_on,49,0,92
2,note_on,61,0,0
2,note_on,37,57,120
2,note_on,49,68,0
2,note_on,49,0,120
2,note_on,37,0,0
2,note_on,59,76,176
2,note_on,47,64,0
2,note_on,47,0,92
2,note_on,59,0,0
2,note_on,47,69,120
2,note_on,35,58,0
2,note_on,35,0,120
2,note_on,47,0,0
2,note_on,57,77,176
2,note_on,45,64,0
2,note_on,45,0,92
2,note_on,57,0,0
2,note_on,33,58,120
2,note_on,45,70,0
2,note_on,45,0,120
2,note_on,33,0,0
2,note_on,57,78,176
2,note_on,45,66,0
2,note_on,45,0,92
2,note_on,57,0,0
2,note_on,45,86,120
2,note_on,33,70,0
2,note_on,33,0,120
2,note_on,45,0,0
2,note_on,33,78,120
2,note_on,45,92,0
2,note_on,45,0,1037
2,note_on,33,0,0
2,note_on,45,71,0
2,note_on,57,84,0
2,note_on,57,0,114
2,note_on,45,0,0
2,note_on,45,76,6
2,note_on,57,91,0
2,note_on,57,0,240
2,note_on,45,0,0
2,note_on,33,76,0
2,note_on,45,90,0
2,note_on,45,0,1037
2,note_on,33,0,0
2,note_on,45,71,0
2,note_on,57,84,0
2,note_on,57,0,120
2,note_on,45,0,0
2,note_on,45,76,0
2,note_on,57,91,0
2,note_on,57,0,240
2,note_on,45,0,0
2,note_on,34,76,0
2,note_on,46,90,0
2,note_on,46,0,1037
2,note_on,34,0,0
2,note_on,46,71,0
2,note_on,58,84,0
2,note_on,58,0,114
2,note_on,46,0,0
2,note_on,46,76,6
2,note_on,58,91,0
2,note_on,58,0,240
2,note_on,46,0,0
2,note_on,34,76,0
2,note_on,46,90,0
2,note_on,46,0,1037
2,note_on,34,0,0
2,note_on,46,71,0
2,note_on,58,84,0
2,note_on,58,0,114
2,note_on,46,0,0
2,note_on,46,76,6
2,note_on,58,91,0
2,note_on,58,0,240
2,note_on,46,0,0
2,note_on,35,79,0
2,note_on,47,93,0
2,note_on,47,0,1037
2,note_on,35,0,0
2,note_on,47,71,0
2,note_on,59,84,0
2,note_on,59,0,114
2,note_on,47,0,0
2,note_on,47,76,6
2,note_on,59,91,0
2,note_on,59,0,240
2,note_on,47,0,0
2,note_on,36,76,0
2,note_on,48,91,0
2,note_on,48,0,1020
2,note_on,36,0,0
2,note_on,48,71,0
2,note_on,60,84,0
2,note_on,60,0,114
2,note_on,48,0,0
2,note_on,48,76,6
2,note_on,60,91,0
2,note_on,60,0,240
2,note_on,48,0,0
2,note_on,37,76,0
2,note_on,49,90,0
2,note_on,49,0,1037
2,note_on,37,0,0
2,note_on,49,71,0
2,note_on,61,84,0
2,note_on,61,0,114
2,note_on,49,0,0
2,note_on,49,76,6
2,note_on,61,91,0
2,note_on,61,0,240
2,note_on,49,0,0
2,note_on,37,76,0
2,note_on,49,90,0
2,note_on,49,0,1037
2,note_on,37,0,0
2,note_on,49,71,0
2,note_on,61,84,0
2,note_on,61,0,114
2,note_on,49,0,0
2,note_on,49,76,6
2,note_on,61,91,0
2,note_on,61,0,240
2,note_on,49,0,0
2,note_on,38,76,0
2,note_on,50,90,0
2,note_on,50,0,317
2,note_on,38,0,0
2,note_on,50,71,0
2,note_on,62,84,0
2,note_on,62,0,114
2,note_on,50,0,0
2,note_on,50,76,6
2,note_on,62,91,0
2,note_on,62,0,240
2,note_on,50,0,0
2,note_on,35,76,0
2,note_on,47,90,0
2,note_on,47,0,317
2,note_on,35,0,0
2,note_on,47,71,0
2,note_on,59,84,0
2,note_on,59,0,114
2,note_on,47,0,0
2,note_on,47,76,6
2,note_on,59,91,0
2,note_on,59,0,240
2,note_on,47,0,0
2,note_on,36,76,0
2,note_on,48,90,0
2,note_on,48,0,317
2,note_on,36,0,0
2,note_on,48,71,0
2,note_on,60,84,0
2,note_on,60,0,114
2,note_on,48,0,0
2,note_on,48,76,6
2,note_on,60,91,0
2,note_on,60,0,240
2,note_on,48,0,0
2,note_on,33,76,0
2,note_on,45,90,0
2,note_on,45,0,317
2,note_on,33,0,0
2,note_on,45,71,0
2,note_on,57,84,0
2,note_on,57,0,114
2,note_on,45,0,0
2,note_on,45,76,6
2,note_on,57,91,0
2,note_on,57,0,240
2,note_on,45,0,0
2,note_on,29,76,0
2,note_on,41,90,0
2,note_on,41,0,317
2,note_on,29,0,0
2,note_on,41,71,0
2,note_on,53,84,0
2,note_on,53,0,114
2,note_on,41,0,0
2,note_on,41,76,6
2,note_on,53,91,0
2,note_on,53,0,240
2,note_on,41,0,0
2,note_on,31,76,0
2,note_on,43,90,0
2,note_on,43,0,317
2,note_on,31,0,0
2,note_on,43,71,0
2,note_on,55,84,0
2,note_on,55,0,114
2,note_on,43,0,0
2,note_on,43,76,6
2,note_on,55,91,0
2,note_on,55,0,240
2,note_on,43,0,0
2,note_on,32,81,0
2,note_on,32,0,57
2,note_on,44,72,0
2,note_on,44,0,120
2,note_on,36,81,0
2,note_on,36,0,120
2,note_on,48,69,0
2,note_on,48,0,120
2,note_on,32,81,0
2,note_on,32,0,120
2,note_on,44,69,0
2,note_on,44,0,120
2,note_on,39,81,0
2,note_on,39,0,120
2,note_on,51,72,0
2,note_on,51,0,120
2,note_on,36,81,0
2,note_on,36,0,120
2,note_on,48,69,0
2,note_on,48,0,120
2,note_on,44,81,0
2,note_on,44,0,120
2,note_on,56,69,0
2,note_on,56,0,120
2,note_on,32,81,0
2,note_on,32,0,57
2,note_on,44,72,0
2,note_on,44,0,120
2,note_on,39,81,0
2,note_on,39,0,120
2,note_on,51,69,0
2,note_on,51,0,120
2,note_on,36,81,0
2,note_on,36,0,120
2,note_on,48,69,0
2,note_on,48,0,120
2,note_on,44,81,0
2,note_on,44,0,120
2,note_on,56,72,0
2,note_on,56,0,120
2,note_on,39,81,0
2,note_on,39,0,120
2,note_on,51,69,0
2,note_on,51,0,120
2,note_on,48,81,0
2,note_on,48,0,120
2,note_on,60,69,0
2,note_on,60,0,120
2,note_on,44,83,0
2,note_on,44,0,57
2,note_on,56,73,0
2,note_on,56,0,120
2,note_on,51,81,0
2,note_on,51,0,120
2,note_on,63,71,0
2,note_on,63,0,120
2,note_on,48,81,0
2,note_on,48,0,120
2,note_on,60,70,0
2,note_on,60,0,120
2,note_on,44,80,0
2,note_on,44,0,120
2,note_on,56,72,0
2,note_on,56,0,120
2,note_on,39,82,0
2,note_on,39,0,120
2,note_on,51,71,0
2,note_on,51,0,120
2,note_on,36,84,0
2,note_on,36,0,120
2,note_on,48,72,0
2,note_on,48,0,120
2,note_on,39,82,0
2,note_on,39,0,57
2,note_on,51,74,0
2,note_on,51,0,120
2,note_on,48,84,0
2,note_on,48,0,120
2,note_on,60,72,0
2,note_on,60,0,120
2,note_on,44,87,0
2,note_on,44,0,120
2,note_on,56,73,0
2,note_on,56,0,120
2,note_on,39,90,0
2,note_on,39,0,120
2,note_on,51,80,0
2,note_on,51,0,120
2,note_on,36,92,0
2,note_on,36,0,120
2,note_on,48,79,0
2,note_on,48,0,120
2,note_on,32,94,0
2,note_on,32,0,120
2,note_on,44,81,0
2,note_on,44,0,120
2,note_on,31,75,0
2,note_on,43,91,0
2,note_on,43,0,120
2,note_on,31,0,0
2,note_on,50,79,907
2,note_on,47,79,0
2,note_on,43,79,0
2,note_on,55,95,0
2,note_on,55,0,201
2,note_on,50,0,0
2,note_on,47,0,0
2,note_on,43,0,0
