Track,Message Type,Note,Velocity,Time
1,note_on,57,50,1
1,note_on,60,50,0
1,note_on,65,42,719
1,note_on,65,0,240
1,note_on,60,0,0
1,note_on,57,0,0
1,note_on,69,50,0
1,note_on,69,0,480
1,note_on,74,54,0
1,note_on,62,54,0
1,note_on,62,0,480
1,note_on,74,0,0
1,note_on,72,50,0
1,note_on,67,50,0
1,note_on,60,50,0
1,note_on,60,0,720
1,note_on,72,0,0
1,note_on,58,45,0
1,note_on,70,45,0
1,note_on,70,0,240
1,note_on,58,0,0
1,note_on,67,0,0
1,note_on,55,50,0
1,note_on,67,50,0
1,note_on,67,0,480
1,note_on,55,0,0
1,note_on,69,45,0
1,note_on,57,45,0
1,note_on,57,0,480
1,note_on,69,0,0
1,note_on,65,45,0
1,note_on,53,45,0
1,note_on,57,45,0
1,note_on,57,0,960
1,note_on,53,0,0
1,note_on,65,0,0
1,note_on,67,37,0
1,note_on,70,37,0
1,note_on,60,37,0
1,note_on,58,37,0
1,note_on,58,0,960
1,note_on,67,0,0
1,note_on,70,0,0
1,note_on,60,0,0
1,note_on,60,28,0
1,note_on,57,28,0
1,note_on,69,28,0
1,note_on,65,28,0
1,note_on,65,0,240
1,note_on,60,0,0
1,note_on,57,0,0
1,note_on,69,0,0
1,note_on,60,21,240
1,note_on,60,0,360
1,note_on,61,18,0
1,note_on,61,0,60
1,note_on,60,18,0
1,note_on,60,0,60
1,note_on,59,25,0
1,note_on,59,0,360
1,note_on,60,18,0
1,note_on,60,0,60
1,note_on,61,18,0
1,note_on,61,0,60
1,note_on,60,21,0
1,note_on,60,0,120
1,note_on,57,46,360
1,note_on,60,46,0
1,note_on,65,46,720
1,note_on,57,0,237
1,note_on,65,0,3
1,note_on,60,0,0
1,note_on,69,50,0
1,note_on,69,0,480
1,note_on,74,61,0
1,note_on,69,61,0
1,note_on,62,61,0
1,note_on,62,0,480
1,note_on,69,0,0
1,note_on,74,0,0
1,note_on,74,60,0
1,note_on,69,60,0
1,note_on,62,60,0
1,note_on,65,65,720
1,note_on,77,65,0
1,note_on,77,0,240
1,note_on,62,0,0
1,note_on,74,0,0
1,note_on,69,0,0
1,note_on,65,0,0
1,note_on,81,69,0
1,note_on,69,69,0
1,note_on,69,0,480
1,note_on,81,0,0
1,note_on,70,74,0
1,note_on,73,74,0
1,note_on,82,74,0
1,note_on,82,0,480
1,note_on,73,0,0
1,note_on,70,0,0
1,note_on,73,71,0
1,note_on,82,71,0
1,note_on,70,71,0
1,note_on,70,0,960
1,note_on,82,0,0
1,note_on,73,0,0
1,note_on,81,52,0
1,note_on,69,52,0
1,note_on,72,52,0
1,note_on,72,0,480
1,note_on,69,0,0
1,note_on,81,0,0
1,note_on,79,46,0
1,note_on,72,46,0
1,note_on,70,46,0
1,note_on,70,0,480
1,note_on,79,0,0
1,note_on,69,42,0
1,note_on,77,42,0
1,note_on,77,0,240
1,note_on,69,0,0
1,note_on,72,0,0
1,note_on,60,21,240
1,note_on,60,0,360
1,note_on,61,18,0
1,note_on,61,0,60
1,note_on,60,18,0
1,note_on,60,0,60
1,note_on,59,25,0
1,note_on,59,0,360
1,note_on,60,18,0
1,note_on,60,0,60
1,note_on,61,18,0
1,note_on,61,0,60
1,note_on,60,21,0
1,note_on,60,0,120
1,note_on,55,46,360
1,note_on,60,46,0
1,note_on,60,0,720
1,note_on,64,46,0
1,note_on,55,0,237
1,note_on,64,0,3
1,note_on,67,50,0
1,note_on,67,0,480
1,note_on,58,61,0
1,note_on,61,61,0
1,note_on,70,61,0
1,note_on,70,0,480
1,note_on,61,0,0
1,note_on,58,0,0
1,note_on,58,56,0
1,note_on,62,56,0
1,note_on,65,56,720
1,note_on,58,0,237
1,note_on,65,0,3
1,note_on,62,0,0
1,note_on,70,71,0
1,note_on,70,0,480
1,note_on,70,73,0
1,note_on,74,73,0
1,note_on,65,73,0
1,note_on,62,73,0
1,note_on,62,0,480
1,note_on,70,0,0
1,note_on,74,0,0
1,note_on,65,0,0
1,note_on,63,77,0
1,note_on,66,77,0
1,note_on,75,77,0
1,note_on,75,0,960
1,note_on,66,0,0
1,note_on,63,0,0
1,note_on,74,70,0
1,note_on,65,70,0
1,note_on,62,70,0
1,note_on,62,0,480
1,note_on,65,0,0
1,note_on,74,0,0
1,note_on,60,71,0
1,note_on,65,71,0
1,note_on,72,71,0
1,note_on,72,0,480
1,note_on,65,0,0
1,note_on,60,0,0
1,note_on,61,77,0
1,note_on,64,77,0
1,note_on,73,77,0
1,note_on,73,0,960
1,note_on,64,0,0
1,note_on,61,0,0
1,note_on,72,67,0
1,note_on,65,67,0
1,note_on,60,67,0
1,note_on,60,0,480
1,note_on,65,0,0
1,note_on,72,0,0
1,note_on,57,51,0
1,note_on,69,51,0
1,note_on,65,51,0
1,note_on,65,0,480
1,note_on,69,0,0
1,note_on,57,0,0
1,note_on,60,50,0
1,note_on,72,50,0
1,note_on,67,50,0
1,note_on,72,0,720
1,note_on,60,0,0
1,note_on,58,45,0
1,note_on,70,45,0
1,note_on,70,0,240
1,note_on,58,0,0
1,note_on,67,0,0
1,note_on,55,50,0
1,note_on,67,50,0
1,note_on,67,0,480
1,note_on,55,0,0
1,note_on,69,45,0
1,note_on,57,45,0
1,note_on,57,0,480
1,note_on,69,0,0
1,note_on,65,45,0
1,note_on,53,45,0
1,note_on,57,45,0
1,note_on,57,0,960
1,note_on,53,0,0
1,note_on,65,0,0
1,note_on,67,39,0
1,note_on,58,39,0
1,note_on,64,39,0
1,note_on,64,0,960
1,note_on,58,0,0
1,note_on,67,0,0
1,note_on,69,32,0
1,note_on,57,32,0
1,note_on,65,32,0
1,note_on,65,0,240
1,note_on,57,0,0
1,note_on,69,0,0
1,note_on,60,21,240
1,note_on,60,0,360
1,note_on,61,18,0
1,note_on,61,0,60
1,note_on,60,18,0
1,note_on,60,0,60
1,note_on,59,25,0
1,note_on,59,0,360
1,note_on,60,18,0
1,note_on,60,0,60
1,note_on,61,18,0
1,note_on,61,0,60
1,note_on,60,21,0
1,note_on,60,0,120
1,note_on,72,50,360
1,note_on,84,50,0
1,note_on,79,50,0
1,note_on,84,0,720
1,note_on,72,0,0
1,note_on,70,45,0
1,note_on,82,45,0
1,note_on,82,0,240
1,note_on,70,0,0
1,note_on,79,0,0
1,note_on,67,50,0
1,note_on,79,50,0
1,note_on,79,0,480
1,note_on,67,0,0
1,note_on,81,45,0
1,note_on,69,45,0
1,note_on,69,0,480
1,note_on,81,0,0
1,note_on,77,45,0
1,note_on,65,45,0
1,note_on,69,45,0
1,note_on,69,0,960
1,note_on,65,0,0
1,note_on,77,0,0
1,note_on,79,39,0
1,note_on,67,39,0
1,note_on,76,39,0
1,note_on,76,0,960
1,note_on,67,0,0
1,note_on,79,0,0
1,note_on,65,32,0
1,note_on,77,32,0
1,note_on,77,0,240
1,note_on,65,0,0
1,note_on,72,21,240
1,note_on,72,0,360
1,note_on,73,18,0
1,note_on,73,0,60
1,note_on,72,18,0
1,note_on,72,0,60
1,note_on,71,25,0
1,note_on,71,0,360
1,note_on,72,18,0
1,note_on,72,0,60
1,note_on,73,18,0
1,note_on,73,0,60
1,note_on,72,21,0
1,note_on,72,0,120
1,note_on,65,40,840
1,note_on,65,0,360
1,note_on,66,34,0
1,note_on,66,0,60
1,note_on,65,34,0
1,note_on,65,0,60
1,note_on,64,48,0
1,note_on,64,0,360
1,note_on,65,38,0
1,note_on,65,0,60
1,note_on,66,39,0
1,note_on,66,0,60
1,note_on,65,51,0
1,note_on,65,0,360
1,note_on,63,45,0
1,note_on,63,0,60
1,note_on,61,52,0
1,note_on,61,0,60
1,note_on,60,63,0
1,note_on,60,0,360
1,note_on,61,53,0
1,note_on,61,0,60
1,note_on,63,55,0
1,note_on,63,0,60
1,note_on,61,71,0
1,note_on,61,0,360
1,note_on,60,59,0
1,note_on,60,0,60
1,note_on,58,67,0
1,note_on,58,0,60
1,note_on,57,75,0
1,note_on,57,0,360
1,note_on,58,71,0
1,note_on,58,0,60
1,note_on,60,71,0
1,note_on,60,0,60
1,note_on,58,87,0
1,note_on,58,0,360
1,note_on,56,76,0
1,note_on,56,0,60
1,note_on,54,86,0
1,note_on,54,0,60
1,note_on,53,69,0
1,note_on,56,82,0
1,note_on,61,82,0
1,note_on,61,0,960
1,note_on,56,0,0
1,note_on,53,0,0
1,note_on,53,61,0
1,note_on,61,72,0
1,note_on,56,72,0
1,note_on,56,0,160
1,note_on,61,0,0
1,note_on,53,0,0
1,note_on,61,65,0
1,note_on,56,55,0
1,note_on,65,65,0
1,note_on,65,0,160
1,note_on,56,0,0
1,note_on,61,0,0
1,note_on,61,66,0
1,note_on,56,56,0
1,note_on,65,66,0
1,note_on,65,0,120
1,note_on,56,0,0
1,note_on,61,0,0
1,note_on,65,69,40
1,note_on,61,58,0
1,note_on,68,69,0
1,note_on,68,0,160
1,note_on,61,0,0
1,note_on,65,0,0
1,note_on,68,61,0
1,note_on,65,51,0
1,note_on,73,61,0
1,note_on,73,0,160
1,note_on,65,0,0
1,note_on,68,0,0
1,note_on,68,62,0
1,note_on,65,52,0
1,note_on,73,62,0
1,note_on,73,0,120
1,note_on,65,0,0
1,note_on,68,0,0
1,note_on,68,69,40
1,note_on,63,58,0
1,note_on,73,69,0
1,note_on,73,0,480
1,note_on,72,62,0
1,note_on,72,0,480
1,note_on,63,0,0
1,note_on,68,0,0
1,note_on,53,68,0
1,note_on,58,68,0
1,note_on,61,68,0
1,note_on,61,0,160
1,note_on,58,0,0
1,note_on,53,0,0
1,note_on,58,60,0
1,note_on,65,60,0
1,note_on,61,60,0
1,note_on,61,0,160
1,note_on,65,0,0
1,note_on,58,0,0
1,note_on,61,60,0
1,note_on,65,60,0
1,note_on,58,60,0
1,note_on,58,0,120
1,note_on,65,0,0
1,note_on,61,0,0
1,note_on,65,67,40
1,note_on,58,67,0
1,note_on,61,67,0
1,note_on,61,0,160
1,note_on,58,0,0
1,note_on,65,0,0
1,note_on,70,58,0
1,note_on,61,58,0
1,note_on,65,58,0
1,note_on,65,0,160
1,note_on,61,0,0
1,note_on,70,0,0
1,note_on,70,58,0
1,note_on,61,58,0
1,note_on,65,58,0
1,note_on,65,0,120
1,note_on,61,0,0
1,note_on,70,0,0
1,note_on,70,66,40
1,note_on,60,66,0
1,note_on,65,66,0
1,note_on,70,0,480
1,note_on,68,62,0
1,note_on,68,0,480
1,note_on,65,0,0
1,note_on,60,0,0
1,note_on,58,68,0
1,note_on,49,57,0
1,note_on,54,57,0
1,note_on,54,0,160
1,note_on,49,0,0
1,note_on,58,0,0
1,note_on,61,60,0
1,note_on,58,51,0
1,note_on,54,51,0
1,note_on,54,0,160
1,note_on,58,0,0
1,note_on,61,0,0
1,note_on,61,60,0
1,note_on,58,51,0
1,note_on,54,51,0
1,note_on,54,0,120
1,note_on,58,0,0
1,note_on,61,0,0
1,note_on,61,67,40
1,note_on,54,56,0
1,note_on,58,56,0
1,note_on,58,0,160
1,note_on,54,0,0
1,note_on,61,0,0
1,note_on,58,49,0
1,note_on,61,49,0
1,note_on,66,58,0
1,note_on,66,0,160
1,note_on,61,0,0
1,note_on,58,0,0
1,note_on,58,49,0
1,note_on,61,49,0
1,note_on,66,58,0
1,note_on,66,0,120
1,note_on,61,0,0
1,note_on,58,0,0
1,note_on,66,70,40
1,note_on,58,59,0
1,note_on,61,59,0
1,note_on,61,0,160
1,note_on,58,0,0
1,note_on,66,0,0
1,note_on,70,66,0
1,note_on,61,56,0
1,note_on,66,56,0
1,note_on,66,0,160
1,note_on,61,0,0
1,note_on,70,0,0
1,note_on,70,66,0
1,note_on,61,56,0
1,note_on,66,56,0
1,note_on,66,0,120
1,note_on,61,0,0
1,note_on,70,0,0
1,note_on,66,63,40
1,note_on,70,75,0
1,note_on,61,63,0
1,note_on,61,0,160
1,note_on,70,0,0
1,note_on,66,0,0
1,note_on,70,60,0
1,note_on,73,71,0
1,note_on,66,60,0
1,note_on,66,0,160
1,note_on,73,0,0
1,note_on,70,0,0
1,note_on,70,62,0
1,note_on,73,74,0
1,note_on,66,62,0
1,note_on,66,0,120
1,note_on,73,0,0
1,note_on,70,0,0
1,note_on,70,68,40
1,note_on,73,81,0
1,note_on,66,68,0
1,note_on,66,0,160
1,note_on,73,0,0
1,note_on,70,0,0
1,note_on,73,61,0
1,note_on,78,72,0
1,note_on,70,61,0
1,note_on,70,0,160
1,note_on,78,0,0
1,note_on,73,0,0
1,note_on,73,63,0
1,note_on,78,75,0
1,note_on,70,63,0
1,note_on,70,0,120
1,note_on,78,0,0
1,note_on,73,0,0
1,note_on,70,71,40
1,note_on,73,71,0
1,note_on,78,84,0
1,note_on,78,0,160
1,note_on,73,0,0
1,note_on,70,0,0
1,note_on,82,78,0
1,note_on,70,66,0
1,note_on,73,66,0
1,note_on,78,78,0
1,note_on,78,0,160
1,note_on,82,0,0
1,note_on,70,0,0
1,note_on,73,0,0
1,note_on,78,78,0
1,note_on,70,66,0
1,note_on,73,66,0
1,note_on,82,78,0
1,note_on,82,0,120
1,note_on,78,0,0
1,note_on,70,0,0
1,note_on,73,0,0
1,note_on,80,95,40
1,note_on,73,80,0
1,note_on,85,95,0
1,note_on,85,0,480
1,note_on,73,0,0
1,note_on,80,0,0
1,note_on,73,74,0
1,note_on,83,88,0
1,note_on,71,74,0
1,note_on,80,88,0
1,note_on,80,0,160
1,note_on,73,0,0
1,note_on,83,0,0
1,note_on,71,0,0
1,note_on,73,66,0
1,note_on,70,66,0
1,note_on,82,78,0
1,note_on,78,78,0
1,note_on,78,0,160
1,note_on,73,0,0
1,note_on,70,0,0
1,note_on,82,0,0
1,note_on,70,66,0
1,note_on,78,78,0
1,note_on,73,66,0
1,note_on,82,78,0
1,note_on,82,0,120
1,note_on,70,0,0
1,note_on,78,0,0
1,note_on,73,0,0
1,note_on,85,95,40
1,note_on,73,80,0
1,note_on,80,95,0
1,note_on,80,0,480
1,note_on,73,0,0
1,note_on,85,0,0
1,note_on,83,88,0
1,note_on,71,74,0
1,note_on,73,74,0
1,note_on,80,88,0
1,note_on,80,0,160
1,note_on,83,0,0
1,note_on,71,0,0
1,note_on,73,0,0
1,note_on,73,66,0
1,note_on,78,78,0
1,note_on,82,78,0
1,note_on,70,66,0
1,note_on,70,0,160
1,note_on,73,0,0
1,note_on,78,0,0
1,note_on,82,0,0
1,note_on,70,66,0
1,note_on,78,78,0
1,note_on,82,78,0
1,note_on,73,66,0
1,note_on,73,0,120
1,note_on,70,0,0
1,note_on,78,0,0
1,note_on,82,0,0
1,note_on,88,101,40
1,note_on,82,101,0
1,note_on,76,85,0
1,note_on,76,0,480
1,note_on,82,0,0
1,note_on,88,0,0
1,note_on,86,98,0
1,note_on,74,83,0
1,note_on,82,98,0
1,note_on,82,0,160
1,note_on,74,0,0
1,note_on,86,0,0
1,note_on,82,92,0
1,note_on,75,78,0
1,note_on,87,92,0
1,note_on,87,0,160
1,note_on,75,0,0
1,note_on,82,0,0
1,note_on,82,92,0
1,note_on,75,78,0
1,note_on,87,92,0
1,note_on,87,0,120
1,note_on,75,0,0
1,note_on,82,0,0
1,note_on,88,101,40
1,note_on,82,101,0
1,note_on,76,85,0
1,note_on,76,0,480
1,note_on,82,0,0
1,note_on,88,0,0
1,note_on,86,98,0
1,note_on,74,83,0
1,note_on,82,98,0
1,note_on,82,0,160
1,note_on,74,0,0
1,note_on,86,0,0
1,note_on,82,92,0
1,note_on,75,78,0
1,note_on,87,92,0
1,note_on,87,0,160
1,note_on,75,0,0
1,note_on,82,0,0
1,note_on,82,92,0
1,note_on,75,78,0
1,note_on,87,92,0
1,note_on,87,0,120
1,note_on,75,0,0
1,note_on,82,0,0
1,note_on,82,92,40
1,note_on,76,78,0
1,note_on,88,92,0
1,note_on,88,0,480
1,note_on,76,0,0
1,note_on,82,0,0
1,note_on,76,79,0
1,note_on,88,94,0
1,note_on,82,94,0
1,note_on,82,0,480
1,note_on,88,0,0
1,note_on,76,0,0
1,note_on,76,82,0
1,note_on,88,97,0
1,note_on,82,97,0
1,note_on,82,0,480
1,note_on,88,0,0
1,note_on,76,0,0
1,note_on,76,85,0
1,note_on,88,100,0
1,note_on,82,100,0
1,note_on,82,0,480
1,note_on,88,0,0
1,note_on,76,0,0
1,note_on,83,90,0
1,note_on,77,90,0
1,note_on,86,106,0
1,note_on,89,106,0
1,note_on,89,0,480
1,note_on,83,0,0
1,note_on,77,0,0
1,note_on,86,0,0
1,note_on,86,106,0
1,note_on,89,106,0
1,note_on,83,90,0
1,note_on,77,90,0
1,note_on,77,0,480
1,note_on,86,0,0
1,note_on,89,0,0
1,note_on,83,0,0
1,note_on,90,111,0
1,note_on,81,94,0
1,note_on,87,111,0
1,note_on,84,94,0
1,note_on,78,94,0
1,note_on,78,0,480
1,note_on,87,0,0
1,note_on,90,0,0
1,note_on,81,0,0
1,note_on,84,0,0
1,note_on,87,112,0
1,note_on,84,95,0
1,note_on,78,95,0
1,note_on,81,95,0
1,note_on,90,112,0
1,note_on,90,0,480
1,note_on,78,0,0
1,note_on,87,0,0
1,note_on,84,0,0
1,note_on,81,0,0
1,note_on,91,113,0
1,note_on,79,96,0
1,note_on,86,113,0
1,note_on,83,96,0
1,note_on,83,0,120
1,note_on,91,0,0
1,note_on,79,0,0
1,note_on,86,0,0
1,note_on,79,86,40
1,note_on,79,0,120
1,note_on,79,72,40
1,note_on,79,0,120
1,note_on,67,81,40
1,note_on,67,0,160
1,note_on,79,69,0
1,note_on,79,0,160
1,note_on,79,61,0
1,note_on,79,0,120
1,note_on,67,61,40
1,note_on,67,0,160
1,note_on,79,54,0
1,note_on,79,0,160
1,note_on,79,45,0
1,note_on,79,0,120
1,note_on,67,59,40
1,note_on,67,0,160
1,note_on,79,50,0
1,note_on,79,0,160
1,note_on,79,45,0
1,note_on,79,0,120
1,note_on,67,56,40
1,note_on,67,0,160
1,note_on,79,45,0
1,note_on,79,0,160
1,note_on,79,45,0
1,note_on,79,0,120
1,note_on,67,54,40
1,note_on,67,0,160
1,note_on,79,42,0
1,note_on,79,0,160
1,note_on,79,43,0
1,note_on,79,0,120
1,note_on,67,50,40
1,note_on,67,0,160
1,note_on,79,39,0
1,note_on,79,0,160
1,note_on,79,39,0
1,note_on,79,0,120
1,note_on,67,50,40
1,note_on,67,0,160
1,note_on,79,40,0
1,note_on,79,0,160
1,note_on,79,39,0
1,note_on,79,0,120
1,note_on,76,48,40
1,note_on,76,0,160
1,note_on,79,40,0
1,note_on,79,0,160
1,note_on,79,40,0
1,note_on,79,0,120
1,note_on,79,50,40
1,note_on,79,0,160
1,note_on,84,39,0
1,note_on,84,0,160
1,note_on,84,39,0
1,note_on,84,0,120
1,note_on,84,48,40
1,note_on,84,0,160
1,note_on,88,39,0
1,note_on,88,0,160
1,note_on,88,39,0
1,note_on,88,0,120
1,note_on,88,54,40
1,note_on,88,0,160
1,note_on,93,43,0
1,note_on,93,0,160
1,note_on,93,42,0
1,note_on,93,0,120
1,note_on,93,54,40
1,note_on,93,0,160
1,note_on,91,44,0
1,note_on,91,0,160
1,note_on,91,41,0
1,note_on,91,0,120
1,note_on,91,51,40
1,note_on,91,0,160
1,note_on,89,42,0
1,note_on,89,0,160
1,note_on,89,42,0
1,note_on,89,0,120
1,note_on,89,50,40
1,note_on,89,0,160
1,note_on,86,42,0
1,note_on,86,0,160
1,note_on,86,42,0
1,note_on,86,0,120
1,note_on,86,48,40
1,note_on,86,0,160
1,note_on,88,42,0
1,note_on,88,0,160
1,note_on,88,42,0
1,note_on,88,0,120
1,note_on,76,48,40
1,note_on,76,0,160
1,note_on,84,43,0
1,note_on,84,0,160
1,note_on,84,43,0
1,note_on,84,0,120
1,note_on,86,48,40
1,note_on,86,0,160
1,note_on,84,42,0
1,note_on,84,0,160
1,note_on,84,42,0
1,note_on,84,0,120
1,note_on,83,48,40
1,note_on,83,0,160
1,note_on,89,43,0
1,note_on,89,0,160
1,note_on,89,44,0
1,note_on,89,0,120
1,note_on,91,48,40
1,note_on,91,0,160
1,note_on,89,42,0
1,note_on,89,0,160
1,note_on,89,41,0
1,note_on,89,0,120
1,note_on,88,40,40
1,note_on,88,0,120
1,note_on,72,26,360
1,note_on,76,26,0
1,note_on,76,0,360
1,note_on,77,23,0
1,note_on,77,0,60
1,note_on,76,23,0
1,note_on,76,0,60
1,note_on,75,29,0
1,note_on,75,0,360
1,note_on,76,22,0
1,note_on,76,0,60
1,note_on,77,22,0
1,note_on,77,0,60
1,note_on,76,26,0
1,note_on,76,0,120
1,note_on,72,0,0
1,note_on,76,48,360
1,note_on,76,0,160
1,note_on,79,40,0
1,note_on,79,0,160
1,note_on,79,40,0
1,note_on,79,0,120
1,note_on,79,50,40
1,note_on,79,0,160
1,note_on,84,39,0
1,note_on,84,0,160
1,note_on,84,39,0
1,note_on,84,0,120
1,note_on,84,52,40
1,note_on,84,0,160
1,note_on,88,43,0
1,note_on,88,0,160
1,note_on,88,43,0
1,note_on,88,0,120
1,note_on,88,56,40
1,note_on,88,0,160
1,note_on,93,46,0
1,note_on,93,0,160
1,note_on,93,46,0
1,note_on,93,0,120
1,note_on,76,60,40
1,note_on,76,0,160
1,note_on,81,56,0
1,note_on,81,0,160
1,note_on,81,52,0
1,note_on,81,0,120
1,note_on,81,61,40
1,note_on,81,0,160
1,note_on,84,55,0
1,note_on,84,0,160
1,note_on,84,55,0
1,note_on,84,0,120
1,note_on,84,68,40
1,note_on,84,0,160
1,note_on,88,63,0
1,note_on,88,0,160
1,note_on,88,64,0
1,note_on,88,0,120
1,note_on,88,87,40
1,note_on,88,0,160
1,note_on,80,72,0
1,note_on,89,72,0
1,note_on,77,72,0
1,note_on,77,0,160
1,note_on,89,0,0
1,note_on,80,0,0
1,note_on,80,72,0
1,note_on,77,72,0
1,note_on,89,72,0
1,note_on,89,0,120
1,note_on,77,0,0
1,note_on,80,0,0
1,note_on,89,76,40
1,note_on,77,76,0
1,note_on,80,76,0
1,note_on,80,0,960
1,note_on,77,0,0
1,note_on,89,0,0
1,note_on,79,65,0
1,note_on,79,0,160
1,note_on,89,58,0
1,note_on,89,0,80
1,note_on,88,49,80
1,note_on,88,0,80
1,note_on,77,58,80
1,note_on,77,0,160
1,note_on,88,51,0
1,note_on,88,0,80
1,note_on,86,48,80
1,note_on,86,0,80
1,note_on,84,50,80
1,note_on,76,50,0
1,note_on,76,0,240
1,note_on,84,0,0
1,note_on,72,21,240
1,note_on,76,26,0
1,note_on,76,0,360
1,note_on,77,23,0
1,note_on,77,0,60
1,note_on,76,23,0
1,note_on,76,0,60
1,note_on,75,29,0
1,note_on,75,0,360
1,note_on,76,22,0
1,note_on,76,0,60
1,note_on,77,22,0
1,note_on,77,0,60
1,note_on,76,26,0
1,note_on,76,0,120
1,note_on,72,0,0
1,note_on,67,48,360
1,note_on,67,0,160
1,note_on,72,40,0
1,note_on,72,0,160
1,note_on,72,40,0
1,note_on,72,0,120
1,note_on,72,50,40
1,note_on,72,0,160
1,note_on,76,39,0
1,note_on,76,0,160
1,note_on,76,39,0
1,note_on,76,0,120
1,note_on,76,52,40
1,note_on,76,0,160
1,note_on,79,43,0
1,note_on,79,0,160
1,note_on,79,43,0
1,note_on,79,0,120
1,note_on,73,56,40
1,note_on,70,56,0
1,note_on,79,56,0
1,note_on,79,0,160
1,note_on,82,46,0
1,note_on,82,0,160
1,note_on,82,46,0
1,note_on,70,0,40
1,note_on,73,0,0
1,note_on,70,55,0
1,note_on,73,55,0
1,note_on,82,0,80
1,note_on,73,0,40
1,note_on,70,0,0
1,note_on,70,67,0
1,note_on,70,0,160
1,note_on,74,56,0
1,note_on,74,0,160
1,note_on,74,52,0
1,note_on,74,0,120
1,note_on,74,61,40
1,note_on,74,0,160
1,note_on,77,55,0
1,note_on,77,0,160
1,note_on,77,55,0
1,note_on,77,0,120
1,note_on,77,68,40
1,note_on,77,0,160
1,note_on,82,63,0
1,note_on,82,0,160
1,note_on,82,64,0
1,note_on,82,0,120
1,note_on,82,88,40
1,note_on,82,0,160
1,note_on,86,79,0
1,note_on,77,79,0
1,note_on,74,79,0
1,note_on,74,0,160
1,note_on,77,0,0
1,note_on,86,0,0
1,note_on,74,79,0
1,note_on,77,79,0
1,note_on,86,79,0
1,note_on,86,0,120
1,note_on,77,0,0
1,note_on,74,0,0
1,note_on,87,96,40
1,note_on,75,96,0
1,note_on,78,96,0
1,note_on,78,0,960
1,note_on,75,0,0
1,note_on,87,0,0
1,note_on,77,65,0
1,note_on,77,0,160
1,note_on,87,58,0
1,note_on,87,0,80
1,note_on,86,49,80
1,note_on,86,0,80
1,note_on,77,58,80
1,note_on,77,0,160
1,note_on,86,51,0
1,note_on,86,0,80
1,note_on,84,48,80
1,note_on,84,0,80
1,note_on,85,93,80
1,note_on,73,93,0
1,note_on,76,93,0
1,note_on,76,0,960
1,note_on,73,0,0
1,note_on,85,0,0
1,note_on,72,65,0
1,note_on,72,0,160
1,note_on,85,58,0
1,note_on,85,0,80
1,note_on,84,49,80
1,note_on,84,0,80
1,note_on,72,58,80
1,note_on,72,0,160
1,note_on,82,51,0
1,note_on,82,0,80
1,note_on,81,48,80
1,note_on,81,0,80
1,note_on,86,54,80
1,note_on,86,0,160
1,note_on,84,44,0
1,note_on,84,0,160
1,note_on,84,41,0
1,note_on,84,0,120
1,note_on,84,51,40
1,note_on,84,0,160
1,note_on,82,42,0
1,note_on,82,0,160
1,note_on,82,42,0
1,note_on,82,0,120
1,note_on,82,50,40
1,note_on,82,0,160
1,note_on,79,42,0
1,note_on,79,0,160
1,note_on,79,42,0
1,note_on,79,0,120
1,note_on,79,48,40
1,note_on,79,0,160
1,note_on,81,42,0
1,note_on,81,0,160
1,note_on,81,42,0
1,note_on,81,0,120
1,note_on,69,48,40
1,note_on,69,0,160
1,note_on,77,43,0
1,note_on,77,0,160
1,note_on,77,43,0
1,note_on,77,0,120
1,note_on,79,48,40
1,note_on,79,0,160
1,note_on,77,42,0
1,note_on,77,0,160
1,note_on,77,42,0
1,note_on,77,0,120
1,note_on,76,48,40
1,note_on,76,0,160
1,note_on,82,43,0
1,note_on,82,0,160
1,note_on,82,44,0
1,note_on,82,0,120
1,note_on,84,48,40
1,note_on,84,0,160
1,note_on,82,42,0
1,note_on,82,0,160
1,note_on,82,41,0
1,note_on,82,0,120
1,note_on,81,40,40
1,note_on,81,0,120
1,note_on,69,26,360
1,note_on,65,21,0
1,note_on,69,0,360
1,note_on,70,23,0
1,note_on,70,0,60
1,note_on,69,23,0
1,note_on,69,0,60
1,note_on,68,29,0
1,note_on,68,0,360
1,note_on,69,22,0
1,note_on,69,0,60
1,note_on,70,22,0
1,note_on,70,0,60
1,note_on,69,26,0
1,note_on,69,0,120
1,note_on,65,0,0
1,note_on,98,54,360
1,note_on,98,0,160
1,note_on,96,44,0
1,note_on,96,0,160
1,note_on,96,41,0
1,note_on,96,0,120
1,note_on,96,51,40
1,note_on,96,0,160
1,note_on,94,42,0
1,note_on,94,0,160
1,note_on,94,42,0
1,note_on,94,0,120
1,note_on,94,50,40
1,note_on,94,0,160
1,note_on,91,42,0
1,note_on,91,0,160
1,note_on,91,42,0
1,note_on,91,0,120
1,note_on,91,48,40
1,note_on,91,0,160
1,note_on,93,42,0
1,note_on,93,0,160
1,note_on,93,42,0
1,note_on,93,0,120
1,note_on,81,48,40
1,note_on,81,0,160
1,note_on,89,43,0
1,note_on,89,0,160
1,note_on,89,43,0
1,note_on,89,0,120
1,note_on,91,48,40
1,note_on,91,0,160
1,note_on,89,42,0
1,note_on,89,0,160
1,note_on,89,42,0
1,note_on,89,0,120
1,note_on,82,48,40
1,note_on,82,0,160
1,note_on,91,43,0
1,note_on,91,0,160
1,note_on,91,44,0
1,note_on,91,0,120
1,note_on,94,48,40
1,note_on,94,0,160
1,note_on,93,42,0
1,note_on,93,0,160
1,note_on,91,41,0
1,note_on,91,0,120
1,note_on,89,40,40
1,note_on,89,0,120
1,note_on,65,21,360
1,note_on,69,26,0
1,note_on,69,0,360
1,note_on,70,23,0
1,note_on,70,0,60
1,note_on,69,23,0
1,note_on,69,0,60
1,note_on,68,29,0
1,note_on,68,0,360
1,note_on,69,22,0
1,note_on,69,0,60
1,note_on,70,22,0
1,note_on,70,0,60
1,note_on,69,26,0
1,note_on,69,0,120
1,note_on,65,0,0
1,note_on,72,32,840
1,note_on,72,0,360
1,note_on,73,27,0
1,note_on,73,0,60
1,note_on,72,27,0
1,note_on,72,0,60
1,note_on,71,38,0
1,note_on,71,0,360
1,note_on,72,27,0
1,note_on,72,0,60
1,note_on,73,27,0
1,note_on,73,0,60
1,note_on,72,32,0
1,note_on,72,0,120
1,note_on,71,50,360
1,note_on,71,0,360
1,note_on,72,46,0
1,note_on,72,0,60
1,note_on,73,46,0
1,note_on,73,0,60
1,note_on,72,68,0
1,note_on,72,0,360
1,note_on,70,56,0
1,note_on,70,0,60
1,note_on,68,57,0
1,note_on,68,0,60
1,note_on,67,73,0
1,note_on,67,0,360
1,note_on,68,60,0
1,note_on,68,0,60
1,note_on,70,60,0
1,note_on,70,0,60
1,note_on,68,70,0
1,note_on,68,0,360
1,note_on,67,66,0
1,note_on,67,0,60
1,note_on,65,58,0
1,note_on,65,0,60
1,note_on,60,50,0
1,note_on,60,0,960
1,note_on,72,58,0
1,note_on,72,0,360
1,note_on,74,53,0
1,note_on,74,0,60
1,note_on,76,53,0
1,note_on,76,0,60
1,note_on,77,63,0
1,note_on,77,0,360
1,note_on,79,58,0
1,note_on,79,0,60
1,note_on,81,64,0
1,note_on,81,0,60
1,note_on,73,76,0
1,note_on,70,76,0
1,note_on,82,76,0
1,note_on,82,0,960
1,note_on,70,0,0
1,note_on,73,0,0
1,note_on,82,37,0
1,note_on,73,32,0
1,note_on,82,0,50
1,note_on,84,32,0
1,note_on,84,0,50
1,note_on,82,36,0
1,note_on,82,0,50
1,note_on,84,32,0
1,note_on,84,0,50
1,note_on,82,36,0
1,note_on,82,0,40
1,note_on,84,32,0
1,note_on,84,0,40
1,note_on,82,36,0
1,note_on,82,0,40
1,note_on,84,32,0
1,note_on,84,0,40
1,note_on,81,36,0
1,note_on,81,0,60
1,note_on,82,32,0
1,note_on,82,0,60
1,note_on,88,45,0
1,note_on,88,0,240
1,note_on,82,40,0
1,note_on,82,0,120
1,note_on,73,0,120
1,note_on,81,37,0
1,note_on,72,37,0
1,note_on,81,0,50
1,note_on,82,32,0
1,note_on,82,0,50
1,note_on,81,36,0
1,note_on,81,0,50
1,note_on,82,32,0
1,note_on,82,0,50
1,note_on,81,36,0
1,note_on,81,0,40
1,note_on,82,32,0
1,note_on,82,0,40
1,note_on,81,36,0
1,note_on,81,0,40
1,note_on,82,32,0
1,note_on,82,0,40
1,note_on,80,36,0
1,note_on,80,0,60
1,note_on,81,32,0
1,note_on,81,0,60
1,note_on,84,45,0
1,note_on,84,0,240
1,note_on,81,40,0
1,note_on,81,0,120
1,note_on,72,0,120
1,note_on,72,37,0
1,note_on,79,37,0
1,note_on,79,0,50
1,note_on,81,32,0
1,note_on,81,0,50
1,note_on,79,36,0
1,note_on,79,0,50
1,note_on,81,32,0
1,note_on,81,0,50
1,note_on,79,36,0
1,note_on,79,0,40
1,note_on,81,32,0
1,note_on,81,0,40
1,note_on,79,36,0
1,note_on,79,0,40
1,note_on,81,32,0
1,note_on,81,0,40
1,note_on,78,36,0
1,note_on,78,0,60
1,note_on,79,32,0
1,note_on,79,0,60
1,note_on,82,45,0
1,note_on,82,0,240
1,note_on,79,40,0
1,note_on,79,0,120
1,note_on,72,0,120
1,note_on,72,32,480
1,note_on,72,0,360
1,note_on,73,27,0
1,note_on,73,0,60
1,note_on,72,27,0
1,note_on,72,0,60
1,note_on,71,38,0
1,note_on,71,0,360
1,note_on,72,27,0
1,note_on,72,0,60
1,note_on,73,27,0
1,note_on,73,0,60
1,note_on,72,32,0
1,note_on,72,0,120
1,note_on,71,50,360
1,note_on,71,0,360
1,note_on,72,46,0
1,note_on,72,0,60
1,note_on,73,46,0
1,note_on,73,0,60
1,note_on,72,68,0
1,note_on,72,0,360
1,note_on,70,56,0
1,note_on,70,0,60
1,note_on,68,57,0
1,note_on,68,0,60
1,note_on,67,73,0
1,note_on,67,0,360
1,note_on,68,60,0
1,note_on,68,0,60
1,note_on,70,60,0
1,note_on,70,0,60
1,note_on,68,70,0
1,note_on,68,0,360
1,note_on,67,66,0
1,note_on,67,0,60
1,note_on,65,58,0
1,note_on,65,0,60
1,note_on,63,77,0
1,note_on,63,0,960
1,note_on,75,67,0
1,note_on,75,0,360
1,note_on,77,59,0
1,note_on,77,0,60
1,note_on,79,59,0
1,note_on,79,0,60
1,note_on,80,69,0
1,note_on,80,0,360
1,note_on,82,70,0
1,note_on,82,0,60
1,note_on,84,76,0
1,note_on,84,0,60
1,note_on,85,83,0
1,note_on,76,83,0
1,note_on,73,83,0
1,note_on,73,0,960
1,note_on,76,0,0
1,note_on,85,0,0
1,note_on,76,40,0
1,note_on,85,47,0
1,note_on,85,0,50
1,note_on,87,40,0
1,note_on,87,0,50
1,note_on,85,46,0
1,note_on,85,0,50
1,note_on,87,40,0
1,note_on,87,0,50
1,note_on,85,45,0
1,note_on,85,0,40
1,note_on,87,40,0
1,note_on,87,0,40
1,note_on,85,45,0
1,note_on,85,0,40
1,note_on,87,40,0
1,note_on,87,0,40
1,note_on,84,45,0
1,note_on,84,0,60
1,note_on,85,40,0
1,note_on,85,0,60
1,note_on,91,53,0
1,note_on,91,0,240
1,note_on,85,50,0
1,note_on,85,0,120
1,note_on,76,0,120
1,note_on,84,47,0
1,note_on,75,40,0
1,note_on,84,0,50
1,note_on,85,40,0
1,note_on,85,0,50
1,note_on,84,46,0
1,note_on,84,0,50
1,note_on,85,40,0
1,note_on,85,0,50
1,note_on,84,45,0
1,note_on,84,0,40
1,note_on,85,40,0
1,note_on,85,0,40
1,note_on,84,45,0
1,note_on,84,0,40
1,note_on,85,40,0
1,note_on,85,0,40
1,note_on,83,45,0
1,note_on,83,0,60
1,note_on,84,40,0
1,note_on,84,0,60
1,note_on,87,53,0
1,note_on,87,0,240
1,note_on,84,50,0
1,note_on,84,0,120
1,note_on,75,0,120
1,note_on,75,40,0
1,note_on,82,47,0
1,note_on,82,0,50
1,note_on,84,40,0
1,note_on,84,0,50
1,note_on,82,46,0
1,note_on,82,0,50
1,note_on,84,40,0
1,note_on,84,0,50
1,note_on,82,45,0
1,note_on,82,0,40
1,note_on,84,40,0
1,note_on,84,0,40
1,note_on,82,45,0
1,note_on,82,0,40
1,note_on,84,40,0
1,note_on,84,0,40
1,note_on,81,45,0
1,note_on,81,0,60
1,note_on,82,40,0
1,note_on,82,0,60
1,note_on,85,53,0
1,note_on,85,0,240
1,note_on,82,50,0
1,note_on,82,0,120
1,note_on,75,0,120
1,note_on,70,26,480
1,note_on,67,21,0
1,note_on,70,0,360
1,note_on,72,23,0
1,note_on,72,0,60
1,note_on,70,23,0
1,note_on,70,0,60
1,note_on,69,29,0
1,note_on,69,0,360
1,note_on,70,22,0
1,note_on,70,0,60
1,note_on,72,22,0
1,note_on,72,0,60
1,note_on,70,26,0
1,note_on,70,0,120
1,note_on,67,0,0
1,note_on,58,71,360
1,note_on,61,71,0
1,note_on,70,84,0
1,note_on,70,0,960
1,note_on,61,0,0
1,note_on,58,0,0
1,note_on,61,38,0
1,note_on,70,44,0
1,note_on,70,0,50
1,note_on,72,38,0
1,note_on,72,0,50
1,note_on,70,43,0
1,note_on,70,0,50
1,note_on,72,38,0
1,note_on,72,0,50
1,note_on,70,43,0
1,note_on,70,0,40
1,note_on,72,38,0
1,note_on,72,0,40
1,note_on,70,43,0
1,note_on,70,0,40
1,note_on,72,38,0
1,note_on,72,0,40
1,note_on,69,43,0
1,note_on,69,0,60
1,note_on,70,38,0
1,note_on,70,0,60
1,note_on,76,54,0
1,note_on,76,0,240
1,note_on,70,48,0
1,note_on,70,0,120
1,note_on,61,0,120
1,note_on,60,44,0
1,note_on,69,44,0
1,note_on,69,0,50
1,note_on,70,38,0
1,note_on,70,0,50
1,note_on,69,43,0
1,note_on,69,0,50
1,note_on,70,38,0
1,note_on,70,0,50
1,note_on,69,43,0
1,note_on,69,0,40
1,note_on,70,38,0
1,note_on,70,0,40
1,note_on,69,43,0
1,note_on,69,0,40
1,note_on,70,38,0
1,note_on,70,0,40
1,note_on,68,43,0
1,note_on,68,0,60
1,note_on,69,38,0
1,note_on,69,0,60
1,note_on,72,54,0
1,note_on,72,0,240
1,note_on,69,48,0
1,note_on,69,0,120
1,note_on,60,0,120
1,note_on,60,44,0
1,note_on,67,44,0
1,note_on,67,0,50
1,note_on,69,38,0
1,note_on,69,0,50
1,note_on,67,43,0
1,note_on,67,0,50
1,note_on,69,38,0
1,note_on,69,0,50
1,note_on,67,43,0
1,note_on,67,0,40
1,note_on,69,38,0
1,note_on,69,0,40
1,note_on,67,43,0
1,note_on,67,0,40
1,note_on,69,38,0
1,note_on,69,0,40
1,note_on,66,43,0
1,note_on,66,0,60
1,note_on,67,38,0
1,note_on,67,0,60
1,note_on,70,54,0
1,note_on,70,0,240
1,note_on,67,48,0
1,note_on,67,0,120
1,note_on,60,0,0
1,note_on,60,40,120
1,note_on,57,40,0
1,note_on,65,33,720
1,note_on,57,0,230
1,note_on,65,0,10
1,note_on,60,0,0
1,note_on,69,40,0
1,note_on,69,0,480
1,note_on,74,43,0
1,note_on,62,43,0
1,note_on,62,0,480
1,note_on,74,0,0
1,note_on,72,40,0
1,note_on,64,40,0
1,note_on,60,40,0
1,note_on,60,0,720
1,note_on,72,0,0
1,note_on,58,36,0
1,note_on,70,36,0
1,note_on,70,0,240
1,note_on,58,0,0
1,note_on,64,0,0
1,note_on,55,40,0
1,note_on,67,40,0
1,note_on,67,0,480
1,note_on,55,0,0
1,note_on,69,36,0
1,note_on,57,36,0
1,note_on,57,0,480
1,note_on,69,0,0
1,note_on,65,36,0
1,note_on,53,36,0
1,note_on,57,36,0
1,note_on,57,0,960
1,note_on,53,0,0
1,note_on,65,0,0
1,note_on,67,29,0
1,note_on,58,29,0
1,note_on,64,29,0
1,note_on,64,0,960
1,note_on,58,0,0
1,note_on,67,0,0
1,note_on,57,22,0
1,note_on,65,22,0
1,note_on,65,0,240
1,note_on,57,0,0
1,note_on,57,22,720
1,note_on,65,22,0
1,note_on,65,0,240
1,note_on,57,0,0
1,note_on,65,20,720
1,note_on,57,20,0
1,note_on,57,0,1920
1,note_on,65,0,0
2,note_on,41,41,1
2,note_on,48,41,0
2,note_on,53,35,635
2,note_on,53,0,240
2,note_on,48,0,0
2,note_on,41,0,0
2,note_on,57,41,0
2,note_on,57,0,300
2,note_on,40,38,0
2,note_on,48,38,0
2,note_on,55,38,0
2,note_on,55,0,775
2,note_on,48,0,30
2,note_on,40,0,0
2,note_on,45,35,180
2,note_on,50,35,0
2,note_on,38,35,0
2,note_on,38,0,660
2,note_on,50,0,0
2,note_on,45,0,0
2,note_on,40,31,0
2,note_on,52,31,0
2,note_on,48,31,0
2,note_on,48,0,660
2,note_on,52,0,0
2,note_on,40,0,0
2,note_on,48,25,0
2,note_on,53,25,0
2,note_on,41,25,0
2,note_on,41,0,51
2,note_on,53,0,0
2,note_on,48,0,0
2,note_on,48,17,240
2,note_on,48,0,337
2,note_on,49,15,0
2,note_on,49,0,60
2,note_on,48,16,0
2,note_on,48,0,60
2,note_on,47,20,0
2,note_on,47,0,297
2,note_on,48,16,0
2,note_on,48,0,60
2,note_on,49,16,0
2,note_on,49,0,60
2,note_on,48,18,0
2,note_on,48,0,120
2,note_on,41,38,360
2,note_on,48,38,0
2,note_on,53,38,635
2,note_on,53,0,240
2,note_on,48,0,0
2,note_on,41,0,0
2,note_on,57,41,0
2,note_on,57,0,296
2,note_on,41,40,0
2,note_on,50,40,0
2,note_on,57,40,0
2,note_on,57,0,311
2,note_on,50,0,0
2,note_on,41,0,0
2,note_on,41,42,0
2,note_on,50,42,0
2,note_on,57,42,0
2,note_on,57,0,734
2,note_on,50,0,0
2,note_on,41,0,0
2,note_on,67,58,254
2,note_on,57,58,0
2,note_on,64,58,0
2,note_on,64,0,311
2,note_on,57,0,0
2,note_on,67,0,0
2,note_on,64,53,0
2,note_on,57,53,0
2,note_on,67,53,0
2,note_on,67,0,960
2,note_on,57,0,0
2,note_on,64,0,0
2,note_on,57,41,0
2,note_on,65,41,0
2,note_on,65,0,70
2,note_on,57,0,0
2,note_on,64,35,0
2,note_on,60,35,0
2,note_on,64,0,343
2,note_on,65,31,0
2,note_on,53,31,0
2,note_on,53,0,14
2,note_on,65,0,0
2,note_on,60,0,0
2,note_on,48,17,240
2,note_on,48,0,337
2,note_on,49,15,0
2,note_on,49,0,60
2,note_on,48,16,0
2,note_on,48,0,60
2,note_on,47,20,0
2,note_on,47,0,297
2,note_on,48,16,0
2,note_on,48,0,60
2,note_on,49,16,0
2,note_on,49,0,60
2,note_on,48,18,0
2,note_on,48,0,114
2,note_on,48,38,360
2,note_on,40,38,0
2,note_on,52,38,635
2,note_on,52,0,240
2,note_on,40,0,0
2,note_on,48,0,0
2,note_on,55,41,0
2,note_on,55,0,353
2,note_on,40,44,0
2,note_on,49,44,0
2,note_on,55,44,0
2,note_on,55,0,339
2,note_on,49,0,0
2,note_on,40,0,0
2,note_on,41,42,0
2,note_on,50,42,0
2,note_on,50,0,508
2,note_on,53,44,0
2,note_on,53,0,240
2,note_on,41,0,0
2,note_on,58,51,0
2,note_on,58,0,339
2,note_on,50,58,0
2,note_on,58,58,0
2,note_on,58,0,311
2,note_on,50,0,0
2,note_on,50,62,0
2,note_on,60,62,0
2,note_on,57,62,0
2,note_on,57,0,731
2,note_on,60,0,0
2,note_on,58,55,0
2,note_on,58,0,320
2,note_on,50,0,0
2,note_on,45,54,0
2,note_on,57,54,0
2,note_on,57,0,274
2,note_on,45,0,0
2,note_on,55,58,0
2,note_on,58,58,0
2,note_on,45,58,0
2,note_on,58,0,752
2,note_on,55,0,0
2,note_on,57,47,0
2,note_on,57,0,313
2,note_on,45,0,2
2,note_on,53,33,0
2,note_on,48,33,0
2,note_on,41,33,0
2,note_on,41,0,343
2,note_on,48,0,0
2,note_on,53,0,0
2,note_on,40,38,0
2,note_on,48,38,0
2,note_on,55,38,0
2,note_on,55,0,535
2,note_on,48,0,30
2,note_on,40,0,0
2,note_on,45,35,268
2,note_on,50,35,0
2,note_on,38,35,0
2,note_on,38,0,640
2,note_on,50,0,0
2,note_on,45,0,0
2,note_on,36,33,0
2,note_on,48,33,0
2,note_on,36,0,560
2,note_on,41,26,0
2,note_on,41,0,51
2,note_on,48,0,0
2,note_on,48,17,240
2,note_on,48,0,337
2,note_on,49,15,0
2,note_on,49,0,60
2,note_on,48,16,0
2,note_on,48,0,60
2,note_on,47,20,0
2,note_on,47,0,297
2,note_on,48,16,0
2,note_on,48,0,60
2,note_on,49,16,0
2,note_on,49,0,60
2,note_on,48,18,0
2,note_on,48,0,103
2,note_on,60,38,360
2,note_on,67,38,0
2,note_on,52,38,0
2,note_on,67,0,775
2,note_on,52,0,30
2,note_on,60,0,0
2,note_on,57,35,226
2,note_on,62,35,0
2,note_on,50,35,0
2,note_on,50,0,773
2,note_on,62,0,0
2,note_on,57,0,0
2,note_on,48,33,0
2,note_on,60,33,0
2,note_on,58,33,0
2,note_on,58,0,640
2,note_on,48,0,0
2,note_on,57,26,0
2,note_on,53,26,0
2,note_on,53,0,51
2,note_on,57,0,0
2,note_on,60,0,0
2,note_on,60,17,240
2,note_on,60,0,337
2,note_on,61,15,0
2,note_on,61,0,60
2,note_on,60,16,0
2,note_on,60,0,60
2,note_on,59,20,0
2,note_on,59,0,220
2,note_on,60,16,0
2,note_on,60,0,60
2,note_on,61,16,0
2,note_on,61,0,60
2,note_on,60,18,0
2,note_on,60,0,114
2,note_on,53,33,840
2,note_on,53,0,337
2,note_on,54,28,0
2,note_on,54,0,60
2,note_on,53,30,0
2,note_on,53,0,60
2,note_on,52,39,0
2,note_on,52,0,249
2,note_on,53,35,0
2,note_on,53,0,60
2,note_on,54,38,0
2,note_on,54,0,60
2,note_on,53,43,0
2,note_on,53,0,240
2,note_on,51,41,0
2,note_on,51,0,60
2,note_on,49,46,0
2,note_on,49,0,60
2,note_on,48,55,0
2,note_on,48,0,254
2,note_on,49,40,0
2,note_on,49,0,60
2,note_on,51,41,0
2,note_on,51,0,60
2,note_on,49,58,0
2,note_on,49,0,274
2,note_on,48,58,0
2,note_on,48,0,60
2,note_on,46,58,0
2,note_on,46,0,60
2,note_on,45,68,0
2,note_on,45,0,277
2,note_on,46,63,0
2,note_on,46,0,60
2,note_on,48,63,0
2,note_on,48,0,60
2,note_on,46,76,0
2,note_on,46,0,257
2,note_on,44,66,0
2,note_on,44,0,60
2,note_on,42,73,0
2,note_on,42,0,60
2,note_on,44,63,0
2,note_on,49,63,0
2,note_on,41,53,0
2,note_on,41,0,766
2,note_on,49,0,0
2,note_on,44,0,0
2,note_on,37,63,0
2,note_on,37,0,851
2,note_on,32,63,0
2,note_on,32,0,103
2,note_on,39,55,0
2,note_on,39,0,160
2,note_on,39,55,0
2,note_on,39,0,120
2,note_on,39,61,40
2,note_on,39,0,160
2,note_on,44,55,0
2,note_on,44,0,160
2,note_on,44,55,0
2,note_on,44,0,120
2,note_on,46,60,40
2,note_on,46,0,891
2,note_on,29,59,0
2,note_on,29,0,51
2,note_on,36,54,0
2,note_on,36,0,160
2,note_on,36,54,0
2,note_on,36,0,120
2,note_on,36,58,40
2,note_on,36,0,160
2,note_on,41,53,0
2,note_on,41,0,160
2,note_on,41,53,0
2,note_on,41,0,120
2,note_on,42,59,40
2,note_on,42,0,847
2,note_on,42,35,0
2,note_on,42,0,27
2,note_on,44,45,0
2,note_on,44,0,37
2,note_on,42,38,0
2,note_on,42,0,40
2,note_on,44,45,0
2,note_on,44,0,40
2,note_on,42,38,0
2,note_on,42,0,40
2,note_on,44,46,0
2,note_on,44,0,40
2,note_on,42,37,0
2,note_on,42,0,40
2,note_on,44,47,0
2,note_on,44,0,40
2,note_on,42,40,0
2,note_on,42,0,40
2,note_on,44,48,0
2,note_on,44,0,40
2,note_on,42,40,0
2,note_on,42,0,40
2,note_on,44,49,0
2,note_on,44,0,40
2,note_on,42,40,0
2,note_on,42,0,40
2,note_on,44,50,0
2,note_on,44,0,40
2,note_on,42,43,0
2,note_on,42,0,40
2,note_on,44,52,0
2,note_on,44,0,40
2,note_on,42,43,0
2,note_on,42,0,40
2,note_on,44,53,0
2,note_on,44,0,40
2,note_on,42,43,0
2,note_on,42,0,40
2,note_on,44,54,0
2,note_on,44,0,40
2,note_on,42,46,0
2,note_on,42,0,40
2,note_on,44,54,0
2,note_on,44,0,40
2,note_on,42,47,0
2,note_on,42,0,40
2,note_on,44,55,0
2,note_on,44,0,40
2,note_on,42,46,0
2,note_on,42,0,40
2,note_on,44,57,0
2,note_on,44,0,40
2,note_on,42,48,0
2,note_on,42,0,40
2,note_on,44,58,0
2,note_on,44,0,40
2,note_on,42,49,0
2,note_on,42,0,40
2,note_on,44,59,0
2,note_on,44,0,40
2,note_on,42,49,0
2,note_on,42,0,40
2,note_on,44,61,0
2,note_on,44,0,40
2,note_on,42,51,0
2,note_on,42,0,40
2,note_on,44,61,0
2,note_on,44,0,40
2,note_on,42,52,0
2,note_on,42,0,40
2,note_on,44,63,0
2,note_on,44,0,40
2,note_on,42,51,0
2,note_on,42,0,40
2,note_on,44,64,0
2,note_on,44,0,40
2,note_on,42,54,0
2,note_on,42,0,40
2,note_on,44,64,0
2,note_on,44,0,40
2,note_on,42,54,0
2,note_on,42,0,40
2,note_on,44,66,0
2,note_on,44,0,40
2,note_on,42,54,0
2,note_on,42,0,40
2,note_on,44,67,0
2,note_on,44,0,40
2,note_on,42,58,0
2,note_on,42,0,40
2,note_on,44,69,0
2,note_on,44,0,40
2,note_on,42,58,0
2,note_on,42,0,40
2,note_on,44,44,0
2,note_on,44,0,40
2,note_on,42,82,0
2,note_on,30,69,0
2,note_on,30,0,93
2,note_on,42,0,0
2,note_on,29,62,0
2,note_on,41,73,0
2,note_on,41,0,160
2,note_on,29,0,0
2,note_on,29,62,0
2,note_on,41,74,0
2,note_on,41,0,120
2,note_on,29,0,0
2,note_on,42,82,40
2,note_on,30,69,0
2,note_on,30,0,392
2,note_on,42,0,0
2,note_on,42,82,0
2,note_on,30,69,0
2,note_on,30,0,75
2,note_on,42,0,0
2,note_on,41,73,0
2,note_on,29,62,0
2,note_on,29,0,160
2,note_on,41,0,0
2,note_on,29,62,0
2,note_on,41,74,0
2,note_on,41,0,120
2,note_on,29,0,0
2,note_on,42,82,40
2,note_on,30,69,0
2,note_on,30,0,409
2,note_on,42,0,0
2,note_on,32,69,0
2,note_on,44,82,0
2,note_on,44,0,96
2,note_on,32,0,0
2,note_on,43,73,0
2,note_on,31,62,0
2,note_on,31,0,160
2,note_on,43,0,0
2,note_on,31,62,0
2,note_on,43,74,0
2,note_on,43,0,120
2,note_on,31,0,0
2,note_on,55,82,40
2,note_on,43,69,0
2,note_on,43,0,391
2,note_on,55,0,0
2,note_on,44,82,0
2,note_on,32,69,0
2,note_on,32,0,96
2,note_on,44,0,0
2,note_on,43,73,0
2,note_on,31,62,0
2,note_on,31,0,160
2,note_on,43,0,0
2,note_on,31,62,0
2,note_on,43,74,0
2,note_on,43,0,120
2,note_on,31,0,0
2,note_on,43,69,40
2,note_on,55,82,0
2,note_on,55,0,391
2,note_on,43,0,0
2,note_on,43,69,0
2,note_on,31,58,0
2,note_on,31,0,111
2,note_on,43,0,0
2,note_on,55,56,0
2,note_on,43,47,0
2,note_on,43,0,160
2,note_on,55,0,0
2,note_on,43,48,0
2,note_on,55,57,0
2,note_on,55,0,120
2,note_on,43,0,0
2,note_on,43,71,40
2,note_on,31,60,0
2,note_on,31,0,160
2,note_on,43,0,0
2,note_on,55,59,0
2,note_on,43,50,0
2,note_on,43,0,160
2,note_on,55,0,0
2,note_on,55,59,0
2,note_on,43,50,0
2,note_on,43,0,120
2,note_on,55,0,0
2,note_on,31,62,40
2,note_on,43,74,0
2,note_on,43,0,160
2,note_on,31,0,0
2,note_on,55,64,0
2,note_on,43,54,0
2,note_on,43,0,160
2,note_on,55,0,0
2,note_on,43,54,0
2,note_on,55,64,0
2,note_on,55,0,120
2,note_on,43,0,0
2,note_on,31,65,40
2,note_on,43,77,0
2,note_on,43,0,160
2,note_on,31,0,0
2,note_on,43,57,0
2,note_on,55,68,0
2,note_on,55,0,160
2,note_on,43,0,0
2,note_on,43,57,0
2,note_on,55,68,0
2,note_on,55,0,120
2,note_on,43,0,0
2,note_on,43,83,40
2,note_on,31,70,0
2,note_on,31,0,104
2,note_on,43,0,0
2,note_on,43,62,0
2,note_on,55,74,0
2,note_on,55,0,160
2,note_on,43,0,0
2,note_on,43,62,0
2,note_on,55,74,0
2,note_on,55,0,120
2,note_on,43,0,0
2,note_on,43,86,40
2,note_on,31,73,0
2,note_on,31,0,160
2,note_on,43,0,0
2,note_on,55,75,0
2,note_on,43,63,0
2,note_on,43,0,160
2,note_on,55,0,0
2,note_on,55,75,0
2,note_on,43,63,0
2,note_on,43,0,120
2,note_on,55,0,0
2,note_on,31,82,40
2,note_on,43,97,0
2,note_on,43,0,114
2,note_on,31,0,0
2,note_on,55,77,0
2,note_on,43,65,0
2,note_on,43,0,160
2,note_on,55,0,0
2,note_on,43,65,0
2,note_on,55,77,0
2,note_on,55,0,120
2,note_on,43,0,0
2,note_on,43,105,40
2,note_on,31,89,0
2,note_on,31,0,160
2,note_on,43,0,0
2,note_on,55,82,0
2,note_on,43,69,0
2,note_on,43,0,160
2,note_on,55,0,0
2,note_on,43,69,0
2,note_on,55,82,0
2,note_on,55,0,120
2,note_on,43,0,0
2,note_on,31,90,40
2,note_on,43,107,0
2,note_on,43,0,137
2,note_on,31,0,0
2,note_on,62,54,1366
2,note_on,65,54,0
2,note_on,65,0,882
2,note_on,62,0,0
2,note_on,64,40,0
2,note_on,60,40,0
2,note_on,60,0,388
2,note_on,64,0,0
2,note_on,55,35,0
2,note_on,62,35,0
2,note_on,62,0,385
2,note_on,55,0,0
2,note_on,48,45,0
2,note_on,55,45,0
2,note_on,52,45,0
2,note_on,60,37,637
2,note_on,60,0,240
2,note_on,48,0,0
2,note_on,55,0,0
2,note_on,52,0,0
2,note_on,64,45,0
2,note_on,64,0,438
2,note_on,69,48,0
2,note_on,47,35,331
2,note_on,55,40,23
2,note_on,69,0,40
2,note_on,67,45,0
2,note_on,67,0,720
2,note_on,65,40,0
2,note_on,65,0,240
2,note_on,55,0,0
2,note_on,47,0,0
2,note_on,62,45,0
2,note_on,62,0,35
2,note_on,64,40,0
2,note_on,45,38,365
2,note_on,52,40,34
2,note_on,64,0,40
2,note_on,60,45,0
2,note_on,45,0,880
2,note_on,47,35,0
2,note_on,52,0,17
2,note_on,55,37,0
2,note_on,60,0,40
2,note_on,65,40,0
2,note_on,47,0,14
2,note_on,48,31,0
2,note_on,55,0,9
2,note_on,55,31,0
2,note_on,65,0,40
2,note_on,64,36,0
2,note_on,64,0,120
2,note_on,55,0,0
2,note_on,48,0,0
2,note_on,60,21,342
2,note_on,67,21,0
2,note_on,67,0,469
2,note_on,69,17,0
2,note_on,66,17,0
2,note_on,66,0,356
2,note_on,69,0,0
2,note_on,67,21,0
2,note_on,67,0,106
2,note_on,60,0,0
2,note_on,55,45,360
2,note_on,52,45,0
2,note_on,48,45,0
2,note_on,60,37,678
2,note_on,60,0,240
2,note_on,55,0,0
2,note_on,52,0,0
2,note_on,48,0,0
2,note_on,64,45,0
2,note_on,48,35,358
2,note_on,60,40,40
2,note_on,64,0,35
2,note_on,69,48,0
2,note_on,69,0,445
2,note_on,60,0,0
2,note_on,48,0,0
2,note_on,48,53,0
2,note_on,57,53,0
2,note_on,52,53,0
2,note_on,60,48,635
2,note_on,60,0,240
2,note_on,48,0,0
2,note_on,57,0,0
2,note_on,52,0,0
2,note_on,64,54,0
2,note_on,64,0,438
2,note_on,52,63,0
2,note_on,62,63,0
2,note_on,59,63,0
2,note_on,59,0,104
2,note_on,62,0,0
2,note_on,52,0,0
2,note_on,62,54,0
2,note_on,52,54,0
2,note_on,59,54,0
2,note_on,59,0,160
2,note_on,52,0,0
2,note_on,62,0,0
2,note_on,59,54,0
2,note_on,52,54,0
2,note_on,62,54,0
2,note_on,62,0,160
2,note_on,52,0,0
2,note_on,59,0,0
2,note_on,52,60,0
2,note_on,59,60,0
2,note_on,62,60,0
2,note_on,62,0,868
2,note_on,59,0,0
2,note_on,52,0,0
2,note_on,52,46,0
2,note_on,60,46,0
2,note_on,60,0,402
2,note_on,52,0,0
2,note_on,55,38,0
2,note_on,59,38,0
2,note_on,59,0,413
2,note_on,55,0,0
2,note_on,60,37,0
2,note_on,60,0,240
2,note_on,60,21,240
2,note_on,67,21,0
2,note_on,67,0,438
2,note_on,66,17,0
2,note_on,69,17,0
2,note_on,69,0,356
2,note_on,66,0,0
2,note_on,67,21,0
2,note_on,67,0,109
2,note_on,60,0,0
2,note_on,48,45,360
2,note_on,40,45,0
2,note_on,52,37,678
2,note_on,52,0,240
2,note_on,40,0,0
2,note_on,48,0,0
2,note_on,55,45,0
2,note_on,40,35,323
2,note_on,49,40,40
2,note_on,55,0,35
2,note_on,58,48,0
2,note_on,58,0,445
2,note_on,49,0,0
2,note_on,40,0,0
2,note_on,50,58,0
2,note_on,41,58,0
2,note_on,53,48,611
2,note_on,53,0,240
2,note_on,41,0,0
2,note_on,50,0,0
2,note_on,58,54,0
2,note_on,58,0,388
2,note_on,50,65,0
2,note_on,58,65,0
2,note_on,58,0,75
2,note_on,50,0,0
2,note_on,58,56,0
2,note_on,50,56,0
2,note_on,50,0,160
2,note_on,58,0,0
2,note_on,50,56,0
2,note_on,58,56,0
2,note_on,58,0,160
2,note_on,50,0,0
2,note_on,50,63,0
2,note_on,57,63,0
2,note_on,60,63,0
2,note_on,60,0,872
2,note_on,57,0,0
2,note_on,50,0,0
2,note_on,58,46,0
2,note_on,50,46,0
2,note_on,50,0,406
2,note_on,58,0,0
2,note_on,57,38,0
2,note_on,45,38,0
2,note_on,53,38,0
2,note_on,53,0,406
2,note_on,45,0,0
2,note_on,57,0,0
2,note_on,45,66,0
2,note_on,58,66,0
2,note_on,55,66,0
2,note_on,55,0,854
2,note_on,58,0,0
2,note_on,45,0,0
2,note_on,53,54,0
2,note_on,57,54,0
2,note_on,45,54,0
2,note_on,45,0,409
2,note_on,57,0,0
2,note_on,53,0,0
2,note_on,41,38,0
2,note_on,53,38,0
2,note_on,48,38,0
2,note_on,40,35,322
2,note_on,48,40,27
2,note_on,48,0,40
2,note_on,41,0,0
2,note_on,53,0,0
2,note_on,60,45,0
2,note_on,60,0,720
2,note_on,58,40,0
2,note_on,58,0,240
2,note_on,40,0,0
2,note_on,48,0,0
2,note_on,55,45,0
2,note_on,55,0,424
2,note_on,57,40,0
2,note_on,38,38,29
2,note_on,45,40,40
2,note_on,57,0,28
2,note_on,53,45,0
2,note_on,38,0,880
2,note_on,40,35,0
2,note_on,45,0,27
2,note_on,48,37,0
2,note_on,53,0,40
2,note_on,55,40,0
2,note_on,40,0,845
2,note_on,41,31,0
2,note_on,48,0,34
2,note_on,48,31,0
2,note_on,55,0,40
2,note_on,57,36,0
2,note_on,57,0,120
2,note_on,48,0,0
2,note_on,41,0,0
2,note_on,60,21,342
2,note_on,53,21,0
2,note_on,60,0,469
2,note_on,59,17,0
2,note_on,62,17,0
2,note_on,62,0,356
2,note_on,59,0,0
2,note_on,60,21,0
2,note_on,60,0,113
2,note_on,53,0,0
2,note_on,52,35,280
2,note_on,60,40,40
2,note_on,72,45,40
2,note_on,72,0,720
2,note_on,70,40,0
2,note_on,70,0,240
2,note_on,60,0,0
2,note_on,52,0,0
2,note_on,67,45,0
2,note_on,67,0,424
2,note_on,69,40,0
2,note_on,50,38,329
2,note_on,57,40,31
2,note_on,69,0,40
2,note_on,65,45,0
2,note_on,50,0,12
2,note_on,48,35,0
2,note_on,57,0,40
2,note_on,58,37,0
2,note_on,65,0,40
2,note_on,64,40,0
2,note_on,64,0,914
2,note_on,58,0,0
2,note_on,48,0,0
2,note_on,65,36,0
2,note_on,57,31,0
2,note_on,53,31,0
2,note_on,53,0,60
2,note_on,57,0,0
2,note_on,65,0,0
2,note_on,53,21,342
2,note_on,60,21,0
2,note_on,60,0,469
2,note_on,62,17,0
2,note_on,59,17,0
2,note_on,59,0,356
2,note_on,62,0,0
2,note_on,60,21,0
2,note_on,60,0,116
2,note_on,53,0,0
2,note_on,60,26,840
2,note_on,60,0,337
2,note_on,61,22,0
2,note_on,61,0,60
2,note_on,60,24,0
2,note_on,60,0,60
2,note_on,59,31,0
2,note_on,59,0,297
2,note_on,60,24,0
2,note_on,60,0,60
2,note_on,61,24,0
2,note_on,61,0,60
2,note_on,60,27,0
2,note_on,60,0,114
2,note_on,59,40,360
2,note_on,59,0,337
2,note_on,60,38,0
2,note_on,60,0,60
2,note_on,61,42,0
2,note_on,61,0,60
2,note_on,60,55,0
2,note_on,60,0,297
2,note_on,58,49,0
2,note_on,58,0,60
2,note_on,56,50,0
2,note_on,56,0,60
2,note_on,55,61,0
2,note_on,55,0,217
2,note_on,56,48,0
2,note_on,56,0,60
2,note_on,58,53,0
2,note_on,58,0,60
2,note_on,56,60,0
2,note_on,56,0,297
2,note_on,55,54,0
2,note_on,55,0,60
2,note_on,53,50,0
2,note_on,53,0,60
2,note_on,53,34,0
2,note_on,48,34,0
2,note_on,57,34,0
2,note_on,57,0,371
2,note_on,48,0,0
2,note_on,53,0,0
2,note_on,55,52,0
2,note_on,52,52,0
2,note_on,45,52,0
2,note_on,45,0,398
2,note_on,52,0,0
2,note_on,55,0,0
2,note_on,45,41,0
2,note_on,53,41,0
2,note_on,53,0,409
2,note_on,45,0,0
2,note_on,48,41,0
2,note_on,58,41,0
2,note_on,55,41,0
2,note_on,55,0,66
2,note_on,58,0,0
2,note_on,48,0,0
2,note_on,60,26,480
2,note_on,60,0,337
2,note_on,61,22,0
2,note_on,61,0,60
2,note_on,60,24,0
2,note_on,60,0,60
2,note_on,59,31,0
2,note_on,59,0,297
2,note_on,60,24,0
2,note_on,60,0,60
2,note_on,61,24,0
2,note_on,61,0,60
2,note_on,60,27,0
2,note_on,60,0,114
2,note_on,59,40,360
2,note_on,59,0,337
2,note_on,60,38,0
2,note_on,60,0,60
2,note_on,61,42,0
2,note_on,61,0,60
2,note_on,60,55,0
2,note_on,60,0,297
2,note_on,58,49,0
2,note_on,58,0,60
2,note_on,56,50,0
2,note_on,56,0,60
2,note_on,55,61,0
2,note_on,55,0,217
2,note_on,56,48,0
2,note_on,56,0,60
2,note_on,58,53,0
2,note_on,58,0,60
2,note_on,56,60,0
2,note_on,56,0,297
2,note_on,55,54,0
2,note_on,55,0,60
2,note_on,53,50,0
2,note_on,53,0,60
2,note_on,60,45,0
2,note_on,56,45,0
2,note_on,51,45,0
2,note_on,51,0,388
2,note_on,56,0,0
2,note_on,60,0,0
2,note_on,48,52,0
2,note_on,55,64,0
2,note_on,58,64,0
2,note_on,58,0,380
2,note_on,55,0,0
2,note_on,48,0,0
2,note_on,56,41,0
2,note_on,48,41,0
2,note_on,48,0,426
2,note_on,56,0,0
2,note_on,61,41,0
2,note_on,51,41,0
2,note_on,55,41,0
2,note_on,55,0,133
2,note_on,51,0,0
2,note_on,61,0,0
2,note_on,61,21,480
2,note_on,52,21,0
2,note_on,52,0,106
2,note_on,61,0,0
2,note_on,45,59,360
2,note_on,52,59,0
2,note_on,55,59,0
2,note_on,55,0,407
2,note_on,52,0,0
2,note_on,45,0,0
2,note_on,45,41,0
2,note_on,53,41,0
2,note_on,53,0,411
2,note_on,45,0,0
2,note_on,58,41,0
2,note_on,55,41,0
2,note_on,48,41,0
2,note_on,48,0,303
2,note_on,55,0,0
2,note_on,58,0,0
2,note_on,48,32,120
2,note_on,41,32,0
2,note_on,53,28,586
2,note_on,53,0,240
2,note_on,41,0,0
2,note_on,48,0,0
2,note_on,57,32,0
2,note_on,57,0,409
2,note_on,36,24,287
2,note_on,46,24,19
2,note_on,55,30,40
2,note_on,55,0,775
2,note_on,46,0,30
2,note_on,36,0,0
2,note_on,38,28,240
2,note_on,50,28,0
2,note_on,45,28,0
2,note_on,45,0,773
2,note_on,50,0,0
2,note_on,38,0,0
2,note_on,48,24,0
2,note_on,36,24,0
2,note_on,36,0,587
2,note_on,41,20,0
2,note_on,41,0,240
2,note_on,48,0,0
2,note_on,48,20,720
2,note_on,41,20,0
2,note_on,41,0,240
2,note_on,48,0,0
2,note_on,41,20,720
2,note_on,48,20,0
2,note_on,48,0,1680
2,note_on,41,0,0
