Track,Message Type,Note,Velocity,Time
1,note_on,63,46,960
1,note_on,63,0,475
1,note_on,68,46,5
1,note_on,60,34,0
1,note_on,63,34,0
1,note_on,63,0,475
1,note_on,60,0,0
1,note_on,68,0,0
1,note_on,68,46,5
1,note_on,60,34,0
1,note_on,63,34,0
1,note_on,68,0,720
1,note_on,70,39,0
1,note_on,70,0,240
1,note_on,63,0,0
1,note_on,60,0,0
1,note_on,61,34,0
1,note_on,63,34,0
1,note_on,68,46,0
1,note_on,68,0,475
1,note_on,63,0,0
1,note_on,61,0,0
1,note_on,61,34,5
1,note_on,67,46,0
1,note_on,63,34,0
1,note_on,67,0,720
1,note_on,70,37,0
1,note_on,70,0,238
1,note_on,63,0,2
1,note_on,61,0,0
1,note_on,70,46,0
1,note_on,70,0,475
1,note_on,63,38,5
1,note_on,68,51,0
1,note_on,68,0,475
1,note_on,63,0,0
1,note_on,63,39,5
1,note_on,61,39,0
1,note_on,70,52,0
1,note_on,70,0,475
1,note_on,61,0,0
1,note_on,63,0,0
1,note_on,63,40,5
1,note_on,60,40,0
1,note_on,72,55,0
1,note_on,72,0,960
1,note_on,60,0,0
1,note_on,63,0,0
1,note_on,63,55,0
1,note_on,63,0,475
1,note_on,72,66,5
1,note_on,60,49,0
1,note_on,63,49,0
1,note_on,63,0,475
1,note_on,60,0,0
1,note_on,72,0,0
1,note_on,63,50,5
1,note_on,60,50,0
1,note_on,72,67,0
1,note_on,72,0,720
1,note_on,60,0,0
1,note_on,63,0,0
1,note_on,61,42,0
1,note_on,73,57,0
1,note_on,63,42,0
1,note_on,63,0,240
1,note_on,73,0,0
1,note_on,61,0,0
1,note_on,63,48,0
1,note_on,72,65,0
1,note_on,60,48,0
1,note_on,60,0,475
1,note_on,72,0,0
1,note_on,63,0,0
1,note_on,58,43,5
1,note_on,63,43,0
1,note_on,70,58,0
1,note_on,70,0,720
1,note_on,63,0,0
1,note_on,58,0,0
1,note_on,72,52,0
1,note_on,63,39,0
1,note_on,60,39,0
1,note_on,60,0,240
1,note_on,63,0,0
1,note_on,72,0,0
1,note_on,58,41,0
1,note_on,63,41,0
1,note_on,70,56,0
1,note_on,70,0,475
1,note_on,63,0,0
1,note_on,58,0,0
1,note_on,63,39,5
1,note_on,68,52,0
1,note_on,56,39,0
1,note_on,56,0,475
1,note_on,68,0,0
1,note_on,63,0,0
1,note_on,75,66,5
1,note_on,63,49,0
1,note_on,70,49,0
1,note_on,75,0,360
1,note_on,73,59,0
1,note_on,73,0,120
1,note_on,70,0,0
1,note_on,63,0,0
1,note_on,68,37,0
1,note_on,72,50,0
1,note_on,63,37,0
1,note_on,63,0,960
1,note_on,72,0,0
1,note_on,68,0,0
1,note_on,75,56,0
1,note_on,75,0,475
1,note_on,75,34,5
1,note_on,72,34,0
1,note_on,80,54,0
1,note_on,80,0,475
1,note_on,72,0,0
1,note_on,75,0,0
1,note_on,75,34,5
1,note_on,72,34,0
1,note_on,80,57,0
1,note_on,80,0,720
1,note_on,82,50,0
1,note_on,82,0,240
1,note_on,72,0,0
1,note_on,75,0,0
1,note_on,73,34,0
1,note_on,80,57,0
1,note_on,75,34,0
1,note_on,75,0,475
1,note_on,80,0,0
1,note_on,73,0,0
1,note_on,79,57,5
1,note_on,75,34,0
1,note_on,73,34,0
1,note_on,79,0,720
1,note_on,82,57,0
1,note_on,82,0,240
1,note_on,73,0,0
1,note_on,75,0,0
1,note_on,82,57,0
1,note_on,82,0,475
1,note_on,80,59,5
1,note_on,75,35,0
1,note_on,75,0,475
1,note_on,80,0,0
1,note_on,73,37,5
1,note_on,82,62,0
1,note_on,75,37,0
1,note_on,75,0,475
1,note_on,82,0,0
1,note_on,73,0,0
1,note_on,75,40,5
1,note_on,72,40,0
1,note_on,84,66,0
1,note_on,84,0,960
1,note_on,72,0,0
1,note_on,75,0,0
1,note_on,75,65,0
1,note_on,75,0,475
1,note_on,84,73,5
1,note_on,75,44,0
1,note_on,72,44,0
1,note_on,72,0,475
1,note_on,75,0,0
1,note_on,84,0,0
1,note_on,75,44,5
1,note_on,72,44,0
1,note_on,84,74,0
1,note_on,84,0,720
1,note_on,85,67,0
1,note_on,85,0,240
1,note_on,72,0,0
1,note_on,75,0,0
1,note_on,72,37,0
1,note_on,84,58,0
1,note_on,76,37,0
1,note_on,76,0,475
1,note_on,84,0,0
1,note_on,72,0,0
1,note_on,76,36,5
1,note_on,72,36,0
1,note_on,82,52,0
1,note_on,82,0,720
1,note_on,84,54,0
1,note_on,84,0,240
1,note_on,72,0,0
1,note_on,76,0,0
1,note_on,72,36,0
1,note_on,82,49,0
1,note_on,77,36,0
1,note_on,77,0,475
1,note_on,82,0,0
1,note_on,72,0,0
1,note_on,80,47,5
1,note_on,72,34,0
1,note_on,77,34,0
1,note_on,80,0,160
1,note_on,82,52,0
1,note_on,82,0,80
1,note_on,80,52,0
1,note_on,80,0,80
1,note_on,79,52,0
1,note_on,79,0,80
1,note_on,80,52,0
1,note_on,77,0,75
1,note_on,72,0,0
1,note_on,80,0,5
1,note_on,73,39,0
1,note_on,79,39,0
1,note_on,84,67,0
1,note_on,84,0,360
1,note_on,82,63,0
1,note_on,82,0,120
1,note_on,79,0,0
1,note_on,73,0,0
1,note_on,80,56,0
1,note_on,72,36,0
1,note_on,72,0,960
1,note_on,80,0,0
1,note_on,63,46,0
1,note_on,63,0,475
1,note_on,60,34,5
1,note_on,63,34,0
1,note_on,68,46,0
1,note_on,68,0,475
1,note_on,63,0,0
1,note_on,60,0,0
1,note_on,68,46,5
1,note_on,60,34,0
1,note_on,63,34,0
1,note_on,68,0,720
1,note_on,70,39,0
1,note_on,70,0,240
1,note_on,63,0,0
1,note_on,60,0,0
1,note_on,61,34,0
1,note_on,68,46,0
1,note_on,63,34,0
1,note_on,63,0,475
1,note_on,68,0,0
1,note_on,61,0,0
1,note_on,67,46,5
1,note_on,63,34,0
1,note_on,61,34,0
1,note_on,67,0,720
1,note_on,70,37,0
1,note_on,70,0,238
1,note_on,61,0,2
1,note_on,63,0,0
1,note_on,70,46,0
1,note_on,70,0,475
1,note_on,63,38,5
1,note_on,68,51,0
1,note_on,68,0,475
1,note_on,63,0,0
1,note_on,63,39,5
1,note_on,61,39,0
1,note_on,70,52,0
1,note_on,70,0,475
1,note_on,61,0,0
1,note_on,63,0,0
1,note_on,72,55,5
1,note_on,63,40,0
1,note_on,60,40,0
1,note_on,60,0,960
1,note_on,63,0,0
1,note_on,72,0,0
1,note_on,63,55,0
1,note_on,63,0,475
1,note_on,60,49,5
1,note_on,63,49,0
1,note_on,72,66,0
1,note_on,72,0,475
1,note_on,63,0,0
1,note_on,60,0,0
1,note_on,63,50,5
1,note_on,60,50,0
1,note_on,72,67,0
1,note_on,72,0,720
1,note_on,60,0,0
1,note_on,63,0,0
1,note_on,63,42,0
1,note_on,61,42,0
1,note_on,73,57,0
1,note_on,73,0,240
1,note_on,61,0,0
1,note_on,63,0,0
1,note_on,60,48,0
1,note_on,63,48,0
1,note_on,72,65,0
1,note_on,72,0,475
1,note_on,63,0,0
1,note_on,60,0,0
1,note_on,70,58,5
1,note_on,63,43,0
1,note_on,58,43,0
1,note_on,58,0,720
1,note_on,63,0,0
1,note_on,70,0,0
1,note_on,72,52,0
1,note_on,63,39,0
1,note_on,60,39,0
1,note_on,60,0,240
1,note_on,63,0,0
1,note_on,72,0,0
1,note_on,58,41,0
1,note_on,63,41,0
1,note_on,70,56,0
1,note_on,70,0,475
1,note_on,63,0,0
1,note_on,58,0,0
1,note_on,56,39,5
1,note_on,63,39,0
1,note_on,68,52,0
1,note_on,68,0,475
1,note_on,63,0,0
1,note_on,56,0,0
1,note_on,70,56,5
1,note_on,63,49,0
1,note_on,75,66,0
1,note_on,75,0,360
1,note_on,73,60,0
1,note_on,73,0,120
1,note_on,63,0,0
1,note_on,70,0,0
1,note_on,63,37,0
1,note_on,68,37,0
1,note_on,72,50,0
1,note_on,72,0,960
1,note_on,68,0,0
1,note_on,63,0,0
1,note_on,75,56,0
1,note_on,75,0,475
1,note_on,80,54,5
1,note_on,75,34,0
1,note_on,72,34,0
1,note_on,72,0,475
1,note_on,75,0,0
1,note_on,80,0,0
1,note_on,72,34,5
1,note_on,80,57,0
1,note_on,75,34,0
1,note_on,80,0,720
1,note_on,82,53,0
1,note_on,82,0,240
1,note_on,75,0,0
1,note_on,72,0,0
1,note_on,73,34,0
1,note_on,80,57,0
1,note_on,75,34,0
1,note_on,75,0,475
1,note_on,80,0,0
1,note_on,73,0,0
1,note_on,73,34,5
1,note_on,79,57,0
1,note_on,75,34,0
1,note_on,79,0,720
1,note_on,82,57,0
1,note_on,82,0,238
1,note_on,75,0,2
1,note_on,73,0,0
1,note_on,82,57,0
1,note_on,82,0,475
1,note_on,75,35,5
1,note_on,80,59,0
1,note_on,80,0,475
1,note_on,75,0,0
1,note_on,75,37,5
1,note_on,82,62,0
1,note_on,73,37,0
1,note_on,73,0,475
1,note_on,82,0,0
1,note_on,75,0,0
1,note_on,75,40,5
1,note_on,72,40,0
1,note_on,84,66,0
1,note_on,84,0,960
1,note_on,72,0,0
1,note_on,75,0,0
1,note_on,75,65,0
1,note_on,75,0,475
1,note_on,72,44,5
1,note_on,84,73,0
1,note_on,75,44,0
1,note_on,75,0,475
1,note_on,84,0,0
1,note_on,72,0,0
1,note_on,75,44,5
1,note_on,84,74,0
1,note_on,72,44,0
1,note_on,84,0,720
1,note_on,85,65,0
1,note_on,85,0,240
1,note_on,72,0,0
1,note_on,75,0,0
1,note_on,84,58,0
1,note_on,76,37,0
1,note_on,72,37,0
1,note_on,72,0,475
1,note_on,76,0,0
1,note_on,84,0,0
1,note_on,82,52,5
1,note_on,76,36,0
1,note_on,72,36,0
1,note_on,82,0,720
1,note_on,84,54,0
1,note_on,84,0,240
1,note_on,72,0,0
1,note_on,76,0,0
1,note_on,77,36,0
1,note_on,82,49,0
1,note_on,72,36,0
1,note_on,72,0,480
1,note_on,82,0,0
1,note_on,77,0,0
1,note_on,80,47,0
1,note_on,72,34,0
1,note_on,77,34,0
1,note_on,80,0,160
1,note_on,82,52,0
1,note_on,82,0,80
1,note_on,80,52,0
1,note_on,80,0,80
1,note_on,79,52,0
1,note_on,79,0,80
1,note_on,80,52,0
1,note_on,80,0,80
1,note_on,77,0,0
1,note_on,72,0,0
1,note_on,73,39,0
1,note_on,84,67,0
1,note_on,79,39,0
1,note_on,84,0,360
1,note_on,82,63,0
1,note_on,82,0,120
1,note_on,79,0,0
1,note_on,73,0,0
1,note_on,72,36,0
1,note_on,80,55,0
1,note_on,80,0,960
1,note_on,72,0,0
1,note_on,63,68,240
1,note_on,68,68,0
1,note_on,75,80,0
1,note_on,75,0,238
1,note_on,68,0,0
1,note_on,63,0,0
1,note_on,63,77,2
1,note_on,75,91,0
1,note_on,68,77,0
1,note_on,68,0,475
1,note_on,75,0,0
1,note_on,63,0,0
1,note_on,68,74,5
1,note_on,63,74,0
1,note_on,75,88,0
1,note_on,75,0,713
1,note_on,63,0,0
1,note_on,68,0,0
1,note_on,63,68,7
1,note_on,72,80,0
1,note_on,60,68,0
1,note_on,60,0,238
1,note_on,72,0,0
1,note_on,63,0,0
1,note_on,63,77,2
1,note_on,72,91,0
1,note_on,60,77,0
1,note_on,60,0,475
1,note_on,72,0,0
1,note_on,63,0,0
1,note_on,60,73,5
1,note_on,63,73,0
1,note_on,72,86,0
1,note_on,72,0,713
1,note_on,63,0,0
1,note_on,60,0,0
1,note_on,65,67,7
1,note_on,68,79,0
1,note_on,60,67,0
1,note_on,60,0,240
1,note_on,68,0,0
1,note_on,65,0,0
1,note_on,65,67,0
1,note_on,68,79,0
1,note_on,60,67,0
1,note_on,60,0,360
1,note_on,68,0,0
1,note_on,65,0,0
1,note_on,61,68,120
1,note_on,63,68,0
1,note_on,70,80,0
1,note_on,70,0,360
1,note_on,63,0,0
1,note_on,61,0,0
1,note_on,63,68,120
1,note_on,61,68,0
1,note_on,67,68,0
1,note_on,73,80,0
1,note_on,70,68,0
1,note_on,70,0,360
1,note_on,67,0,0
1,note_on,63,0,0
1,note_on,61,0,0
1,note_on,73,0,0
1,note_on,72,80,120
1,note_on,60,68,0
1,note_on,63,68,0
1,note_on,68,80,0
1,note_on,68,0,1200
1,note_on,72,0,0
1,note_on,60,0,0
1,note_on,63,0,0
1,note_on,77,93,0
1,note_on,65,79,0
1,note_on,68,79,0
1,note_on,68,0,238
1,note_on,65,0,0
1,note_on,77,0,0
1,note_on,65,85,2
1,note_on,77,100,0
1,note_on,68,85,0
1,note_on,68,0,475
1,note_on,77,0,0
1,note_on,65,0,0
1,note_on,68,85,5
1,note_on,65,85,0
1,note_on,77,100,0
1,note_on,77,0,713
1,note_on,65,0,0
1,note_on,68,0,0
1,note_on,73,93,7
1,note_on,65,79,0
1,note_on,68,79,0
1,note_on,68,0,238
1,note_on,65,0,0
1,note_on,73,0,0
1,note_on,65,85,2
1,note_on,68,85,0
1,note_on,73,100,0
1,note_on,73,0,475
1,note_on,68,0,0
1,note_on,65,0,0
1,note_on,65,85,5
1,note_on,68,85,0
1,note_on,73,100,0
1,note_on,73,0,713
1,note_on,68,0,0
1,note_on,65,0,0
1,note_on,65,79,7
1,note_on,68,93,0
1,note_on,68,0,238
1,note_on,65,0,0
1,note_on,68,99,2
1,note_on,65,84,0
1,note_on,65,0,360
1,note_on,68,0,0
1,note_on,66,84,120
1,note_on,69,84,0
1,note_on,73,99,0
1,note_on,73,0,360
1,note_on,69,0,0
1,note_on,66,0,0
1,note_on,66,84,120
1,note_on,78,99,0
1,note_on,69,84,0
1,note_on,73,84,0
1,note_on,73,0,360
1,note_on,66,0,0
1,note_on,78,0,0
1,note_on,69,0,0
1,note_on,77,99,120
1,note_on,65,84,0
1,note_on,68,84,0
1,note_on,73,84,0
1,note_on,65,0,960
1,note_on,77,0,240
1,note_on,68,0,0
1,note_on,73,0,0
1,note_on,78,102,0
1,note_on,66,86,0
1,note_on,73,86,0
1,note_on,73,0,238
1,note_on,66,0,0
1,note_on,78,0,0
1,note_on,78,103,2
1,note_on,73,87,0
1,note_on,66,87,0
1,note_on,66,0,1440
1,note_on,73,0,0
1,note_on,78,0,0
1,note_on,76,61,0
1,note_on,67,51,0
1,note_on,73,51,0
1,note_on,76,0,480
1,note_on,75,61,0
1,note_on,75,0,480
1,note_on,73,0,0
1,note_on,73,60,0
1,note_on,73,0,240
1,note_on,67,0,0
1,note_on,61,57,0
1,note_on,68,68,0
1,note_on,68,0,120
1,note_on,61,0,0
1,note_on,68,68,120
1,note_on,61,57,0
1,note_on,68,0,1200
1,note_on,70,35,0
1,note_on,70,0,60
1,note_on,68,35,0
1,note_on,68,0,60
1,note_on,67,35,0
1,note_on,67,0,60
1,note_on,68,35,0
1,note_on,68,0,60
1,note_on,61,0,0
1,note_on,68,52,0
1,note_on,62,52,120
1,note_on,71,52,0
1,note_on,71,0,360
1,note_on,70,53,0
1,note_on,70,0,480
1,note_on,68,53,0
1,note_on,68,0,480
1,note_on,62,0,0
1,note_on,68,0,0
1,note_on,60,34,0
1,note_on,63,40,0
1,note_on,56,34,0
1,note_on,63,0,475
1,note_on,63,40,5
1,note_on,63,0,960
1,note_on,56,0,0
1,note_on,60,0,0
1,note_on,55,34,0
1,note_on,58,34,0
1,note_on,63,40,0
1,note_on,61,34,0
1,note_on,63,0,475
1,note_on,63,40,5
1,note_on,63,0,475
1,note_on,61,0,5
1,note_on,58,0,0
1,note_on,55,0,0
1,note_on,63,40,0
1,note_on,63,0,475
1,note_on,68,46,5
1,note_on,63,34,0
1,note_on,60,34,0
1,note_on,60,0,475
1,note_on,63,0,0
1,note_on,68,0,0
1,note_on,68,46,5
1,note_on,63,34,0
1,note_on,60,34,0
1,note_on,68,0,720
1,note_on,70,39,0
1,note_on,70,0,240
1,note_on,60,0,0
1,note_on,63,0,0
1,note_on,63,34,0
1,note_on,61,34,0
1,note_on,68,46,0
1,note_on,68,0,475
1,note_on,61,0,0
1,note_on,63,0,0
1,note_on,61,34,5
1,note_on,63,34,0
1,note_on,67,46,0
1,note_on,67,0,720
1,note_on,70,37,0
1,note_on,70,0,238
1,note_on,63,0,2
1,note_on,61,0,0
1,note_on,70,46,0
1,note_on,70,0,475
1,note_on,63,38,5
1,note_on,68,51,0
1,note_on,68,0,475
1,note_on,63,0,0
1,note_on,63,39,5
1,note_on,70,52,0
1,note_on,61,39,0
1,note_on,61,0,475
1,note_on,70,0,0
1,note_on,63,0,0
1,note_on,63,40,5
1,note_on,72,55,0
1,note_on,60,40,0
1,note_on,60,0,960
1,note_on,72,0,0
1,note_on,63,0,0
1,note_on,63,52,0
1,note_on,63,0,475
1,note_on,63,53,5
1,note_on,60,53,0
1,note_on,72,72,0
1,note_on,72,0,475
1,note_on,60,0,0
1,note_on,63,0,0
1,note_on,72,72,5
1,note_on,63,53,0
1,note_on,60,53,0
1,note_on,60,0,720
1,note_on,63,0,0
1,note_on,72,0,0
1,note_on,61,51,0
1,note_on,58,51,0
1,note_on,70,70,0
1,note_on,70,0,238
1,note_on,58,0,0
1,note_on,61,0,0
1,note_on,70,75,2
1,note_on,58,56,0
1,note_on,61,56,0
1,note_on,61,0,475
1,note_on,58,0,0
1,note_on,70,0,0
1,note_on,60,53,5
1,note_on,69,71,0
1,note_on,57,53,0
1,note_on,57,0,720
1,note_on,69,0,0
1,note_on,60,0,0
1,note_on,61,50,0
1,note_on,58,50,0
1,note_on,70,67,0
1,note_on,70,0,238
1,note_on,58,0,0
1,note_on,61,0,0
1,note_on,61,52,2
1,note_on,70,71,0
1,note_on,58,52,0
1,note_on,58,0,480
1,note_on,70,0,0
1,note_on,61,0,0
1,note_on,68,59,0
1,note_on,60,43,0
1,note_on,56,43,0
1,note_on,56,0,480
1,note_on,60,0,0
1,note_on,68,0,0
1,note_on,67,60,0
1,note_on,55,44,0
1,note_on,58,44,0
1,note_on,58,0,432
1,note_on,55,0,0
1,note_on,67,0,0
1,note_on,60,43,48
1,note_on,68,59,0
1,note_on,56,43,0
1,note_on,56,0,960
1,note_on,68,0,0
1,note_on,60,0,0
1,note_on,75,56,0
1,note_on,75,0,475
1,note_on,80,54,5
1,note_on,72,34,0
1,note_on,75,34,0
1,note_on,75,0,475
1,note_on,72,0,0
1,note_on,80,0,0
1,note_on,80,57,5
1,note_on,75,34,0
1,note_on,72,34,0
1,note_on,80,0,720
1,note_on,82,52,0
1,note_on,82,0,238
1,note_on,72,0,2
1,note_on,75,0,0
1,note_on,80,57,0
1,note_on,73,34,0
1,note_on,75,34,0
1,note_on,75,0,475
1,note_on,73,0,0
1,note_on,80,0,0
1,note_on,75,34,5
1,note_on,73,34,0
1,note_on,79,57,0
1,note_on,79,0,720
1,note_on,82,57,0
1,note_on,82,0,238
1,note_on,73,0,2
1,note_on,75,0,0
1,note_on,82,57,0
1,note_on,82,0,475
1,note_on,80,59,5
1,note_on,75,35,0
1,note_on,75,0,475
1,note_on,80,0,0
1,note_on,82,62,5
1,note_on,75,37,0
1,note_on,73,37,0
1,note_on,73,0,475
1,note_on,75,0,0
1,note_on,82,0,0
1,note_on,75,40,5
1,note_on,72,40,0
1,note_on,84,66,0
1,note_on,84,0,960
1,note_on,72,0,0
1,note_on,75,0,0
1,note_on,75,72,0
1,note_on,75,0,475
1,note_on,75,53,5
1,note_on,84,72,0
1,note_on,72,53,0
1,note_on,72,0,475
1,note_on,84,0,0
1,note_on,75,0,0
1,note_on,72,53,5
1,note_on,75,53,0
1,note_on,84,72,0
1,note_on,84,0,720
1,note_on,75,0,0
1,note_on,72,0,0
1,note_on,82,70,0
1,note_on,73,51,0
1,note_on,70,51,0
1,note_on,70,0,238
1,note_on,73,0,0
1,note_on,82,0,0
1,note_on,70,56,2
1,note_on,82,75,0
1,note_on,73,56,0
1,note_on,73,0,475
1,note_on,82,0,0
1,note_on,70,0,0
1,note_on,81,71,5
1,note_on,69,53,0
1,note_on,72,53,0
1,note_on,72,0,713
1,note_on,69,0,0
1,note_on,81,0,0
1,note_on,82,67,7
1,note_on,70,50,0
1,note_on,73,50,0
1,note_on,73,0,238
1,note_on,70,0,0
1,note_on,82,0,0
1,note_on,70,52,2
1,note_on,73,52,0
1,note_on,82,71,0
1,note_on,82,0,475
1,note_on,73,0,0
1,note_on,70,0,0
1,note_on,80,59,5
1,note_on,72,43,0
1,note_on,68,43,0
1,note_on,68,0,475
1,note_on,72,0,0
1,note_on,80,0,0
1,note_on,79,60,5
1,note_on,70,44,0
1,note_on,67,44,0
1,note_on,67,0,432
1,note_on,70,0,0
1,note_on,79,0,0
1,note_on,68,43,48
1,note_on,80,59,0
1,note_on,72,43,0
1,note_on,72,0,960
1,note_on,80,0,0
1,note_on,68,0,0
1,note_on,75,80,240
1,note_on,63,68,0
1,note_on,68,68,0
1,note_on,68,0,238
1,note_on,63,0,0
1,note_on,75,0,0
1,note_on,63,77,2
1,note_on,68,77,0
1,note_on,75,91,0
1,note_on,75,0,475
1,note_on,68,0,0
1,note_on,63,0,0
1,note_on,63,74,5
1,note_on,75,88,0
1,note_on,68,74,0
1,note_on,68,0,713
1,note_on,75,0,0
1,note_on,63,0,0
1,note_on,60,68,7
1,note_on,63,68,0
1,note_on,72,80,0
1,note_on,72,0,238
1,note_on,63,0,0
1,note_on,60,0,0
1,note_on,60,77,2
1,note_on,72,91,0
1,note_on,63,77,0
1,note_on,63,0,475
1,note_on,72,0,0
1,note_on,60,0,0
1,note_on,72,86,5
1,note_on,63,73,0
1,note_on,60,73,0
1,note_on,60,0,713
1,note_on,63,0,0
1,note_on,72,0,0
1,note_on,68,79,7
1,note_on,65,67,0
1,note_on,60,67,0
1,note_on,60,0,238
1,note_on,65,0,0
1,note_on,68,0,0
1,note_on,60,67,2
1,note_on,65,67,0
1,note_on,68,79,0
1,note_on,68,0,360
1,note_on,65,0,0
1,note_on,60,0,0
1,note_on,63,68,120
1,note_on,61,68,0
1,note_on,70,80,0
1,note_on,70,0,360
1,note_on,61,0,0
1,note_on,63,0,0
1,note_on,61,68,120
1,note_on,70,68,0
1,note_on,73,80,0
1,note_on,63,68,0
1,note_on,67,68,0
1,note_on,67,0,360
1,note_on,73,0,0
1,note_on,61,0,0
1,note_on,70,0,0
1,note_on,63,0,0
1,note_on,72,80,120
1,note_on,60,68,0
1,note_on,63,68,0
1,note_on,68,80,0
1,note_on,68,0,1200
1,note_on,72,0,0
1,note_on,60,0,0
1,note_on,63,0,0
1,note_on,68,79,0
1,note_on,65,79,0
1,note_on,77,93,0
1,note_on,77,0,238
1,note_on,65,0,0
1,note_on,68,0,0
1,note_on,68,85,2
1,note_on,65,85,0
1,note_on,77,100,0
1,note_on,77,0,475
1,note_on,65,0,0
1,note_on,68,0,0
1,note_on,65,85,5
1,note_on,77,100,0
1,note_on,68,85,0
1,note_on,68,0,713
1,note_on,77,0,0
1,note_on,65,0,0
1,note_on,65,79,7
1,note_on,73,93,0
1,note_on,68,79,0
1,note_on,68,0,238
1,note_on,73,0,0
1,note_on,65,0,0
1,note_on,65,85,2
1,note_on,68,85,0
1,note_on,73,100,0
1,note_on,73,0,475
1,note_on,68,0,0
1,note_on,65,0,0
1,note_on,73,100,5
1,note_on,68,85,0
1,note_on,65,85,0
1,note_on,65,0,713
1,note_on,68,0,0
1,note_on,73,0,0
1,note_on,65,79,7
1,note_on,68,93,0
1,note_on,68,0,238
1,note_on,65,0,0
1,note_on,68,99,2
1,note_on,65,84,0
1,note_on,65,0,360
1,note_on,68,0,0
1,note_on,73,99,120
1,note_on,69,84,0
1,note_on,66,84,0
1,note_on,66,0,360
1,note_on,69,0,0
1,note_on,73,0,0
1,note_on,78,99,120
1,note_on,66,84,0
1,note_on,69,84,0
1,note_on,73,99,0
1,note_on,73,0,360
1,note_on,78,0,0
1,note_on,66,0,0
1,note_on,69,0,0
1,note_on,65,84,120
1,note_on,68,84,0
1,note_on,73,84,0
1,note_on,77,99,0
1,note_on,77,0,1200
1,note_on,65,0,0
1,note_on,68,0,0
1,note_on,73,0,0
1,note_on,73,86,0
1,note_on,78,102,0
1,note_on,66,86,0
1,note_on,66,0,238
1,note_on,78,0,0
1,note_on,73,0,0
1,note_on,78,103,2
1,note_on,66,87,0
1,note_on,73,87,0
1,note_on,73,0,1440
1,note_on,66,0,0
1,note_on,78,0,0
1,note_on,76,61,0
1,note_on,73,51,0
1,note_on,67,51,0
1,note_on,76,0,480
1,note_on,75,61,0
1,note_on,75,0,480
1,note_on,73,0,0
1,note_on,73,60,0
1,note_on,73,0,240
1,note_on,67,0,0
1,note_on,61,57,0
1,note_on,68,68,0
1,note_on,68,0,120
1,note_on,61,0,0
1,note_on,61,57,120
1,note_on,68,68,0
1,note_on,68,0,1200
1,note_on,70,35,0
1,note_on,70,0,60
1,note_on,68,35,0
1,note_on,68,0,60
1,note_on,67,35,0
1,note_on,67,0,60
1,note_on,68,35,0
1,note_on,68,0,60
1,note_on,61,0,0
1,note_on,68,52,0
1,note_on,71,52,120
1,note_on,62,52,0
1,note_on,71,0,360
1,note_on,70,53,0
1,note_on,70,0,480
1,note_on,68,53,0
1,note_on,68,0,480
1,note_on,62,0,0
1,note_on,68,0,0
1,note_on,56,34,0
1,note_on,63,40,0
1,note_on,60,34,0
1,note_on,63,0,475
1,note_on,63,40,5
1,note_on,63,0,960
1,note_on,60,0,0
1,note_on,56,0,0
1,note_on,61,40,0
1,note_on,58,34,0
1,note_on,55,34,0
1,note_on,63,40,0
1,note_on,63,0,475
1,note_on,63,40,5
1,note_on,63,0,475
1,note_on,55,0,5
1,note_on,58,0,0
1,note_on,61,0,0
1,note_on,63,40,0
1,note_on,63,0,475
1,note_on,60,34,5
1,note_on,68,46,0
1,note_on,63,34,0
1,note_on,63,0,475
1,note_on,68,0,0
1,note_on,60,0,0
1,note_on,60,34,5
1,note_on,63,34,0
1,note_on,68,46,0
1,note_on,68,0,720
1,note_on,70,39,0
1,note_on,70,0,240
1,note_on,63,0,0
1,note_on,60,0,0
1,note_on,63,34,0
1,note_on,61,34,0
1,note_on,68,46,0
1,note_on,68,0,475
1,note_on,61,0,0
1,note_on,63,0,0
1,note_on,67,46,5
1,note_on,61,34,0
1,note_on,63,34,0
1,note_on,67,0,720
1,note_on,70,37,0
1,note_on,70,0,240
1,note_on,63,0,0
1,note_on,61,0,0
1,note_on,70,46,0
1,note_on,70,0,475
1,note_on,63,38,5
1,note_on,68,51,0
1,note_on,68,0,475
1,note_on,63,0,0
1,note_on,61,39,5
1,note_on,70,52,0
1,note_on,63,39,0
1,note_on,63,0,475
1,note_on,70,0,0
1,note_on,61,0,0
1,note_on,63,40,5
1,note_on,60,40,0
1,note_on,72,55,0
1,note_on,72,0,960
1,note_on,60,0,0
1,note_on,63,0,0
1,note_on,63,52,0
1,note_on,63,0,475
1,note_on,72,72,5
1,note_on,63,53,0
1,note_on,60,53,0
1,note_on,60,0,475
1,note_on,63,0,0
1,note_on,72,0,0
1,note_on,60,53,5
1,note_on,63,53,0
1,note_on,72,72,0
1,note_on,72,0,720
1,note_on,63,0,0
1,note_on,60,0,0
1,note_on,70,70,0
1,note_on,61,51,0
1,note_on,58,51,0
1,note_on,58,0,238
1,note_on,61,0,0
1,note_on,70,0,0
1,note_on,58,56,2
1,note_on,61,56,0
1,note_on,70,75,0
1,note_on,70,0,475
1,note_on,61,0,0
1,note_on,58,0,0
1,note_on,69,71,5
1,note_on,60,53,0
1,note_on,57,53,0
1,note_on,57,0,720
1,note_on,60,0,0
1,note_on,69,0,0
1,note_on,61,50,0
1,note_on,70,67,0
1,note_on,58,50,0
1,note_on,58,0,238
1,note_on,70,0,0
1,note_on,61,0,0
1,note_on,61,52,2
1,note_on,58,52,0
1,note_on,70,71,0
1,note_on,70,0,475
1,note_on,58,0,0
1,note_on,61,0,0
1,note_on,60,43,5
1,note_on,68,59,0
1,note_on,56,43,0
1,note_on,56,0,475
1,note_on,68,0,0
1,note_on,60,0,0
1,note_on,58,44,5
1,note_on,55,44,0
1,note_on,67,60,0
1,note_on,67,0,432
1,note_on,55,0,0
1,note_on,58,0,0
1,note_on,56,43,48
1,note_on,68,59,0
1,note_on,60,43,0
1,note_on,60,0,960
1,note_on,68,0,0
1,note_on,56,0,0
1,note_on,75,56,0
1,note_on,75,0,475
1,note_on,75,34,5
1,note_on,80,54,0
1,note_on,72,34,0
1,note_on,72,0,475
1,note_on,80,0,0
1,note_on,75,0,0
1,note_on,72,34,5
1,note_on,75,34,0
1,note_on,80,57,0
1,note_on,80,0,720
1,note_on,82,52,0
1,note_on,82,0,240
1,note_on,75,0,0
1,note_on,72,0,0
1,note_on,75,34,0
1,note_on,73,34,0
1,note_on,80,57,0
1,note_on,80,0,475
1,note_on,73,0,0
1,note_on,75,0,0
1,note_on,73,34,5
1,note_on,79,57,0
1,note_on,75,34,0
1,note_on,79,0,720
1,note_on,82,57,0
1,note_on,82,0,238
1,note_on,75,0,2
1,note_on,73,0,0
1,note_on,82,57,0
1,note_on,82,0,475
1,note_on,75,35,5
1,note_on,80,59,0
1,note_on,80,0,475
1,note_on,75,0,0
1,note_on,75,37,5
1,note_on,73,37,0
1,note_on,82,62,0
1,note_on,82,0,475
1,note_on,73,0,0
1,note_on,75,0,0
1,note_on,84,66,5
1,note_on,75,40,0
1,note_on,72,40,0
1,note_on,72,0,960
1,note_on,75,0,0
1,note_on,84,0,0
1,note_on,75,72,0
1,note_on,75,0,475
1,note_on,72,53,5
1,note_on,75,53,0
1,note_on,84,72,0
1,note_on,84,0,475
1,note_on,75,0,0
1,note_on,72,0,0
1,note_on,84,72,5
1,note_on,75,53,0
1,note_on,72,53,0
1,note_on,72,0,720
1,note_on,75,0,0
1,note_on,84,0,0
1,note_on,70,51,0
1,note_on,73,51,0
1,note_on,82,70,0
1,note_on,82,0,238
1,note_on,73,0,0
1,note_on,70,0,0
1,note_on,82,75,2
1,note_on,73,56,0
1,note_on,70,56,0
1,note_on,70,0,475
1,note_on,73,0,0
1,note_on,82,0,0
1,note_on,72,53,5
1,note_on,81,71,0
1,note_on,69,53,0
1,note_on,69,0,720
1,note_on,81,0,0
1,note_on,72,0,0
1,note_on,73,50,0
1,note_on,70,50,0
1,note_on,82,68,0
1,note_on,82,0,238
1,note_on,70,0,0
1,note_on,73,0,0
1,note_on,82,71,2
1,note_on,70,53,0
1,note_on,73,53,0
1,note_on,73,0,480
1,note_on,70,0,0
1,note_on,82,0,0
1,note_on,80,59,0
1,note_on,68,43,0
1,note_on,72,43,0
1,note_on,72,0,480
1,note_on,68,0,0
1,note_on,80,0,0
1,note_on,70,45,0
1,note_on,79,60,0
1,note_on,67,45,0
1,note_on,67,0,432
1,note_on,79,0,0
1,note_on,70,0,0
1,note_on,72,44,48
1,note_on,80,60,0
1,note_on,68,44,0
1,note_on,68,0,960
1,note_on,80,0,0
1,note_on,72,0,0
1,note_on,56,52,0
1,note_on,56,0,480
1,note_on,53,52,0
1,note_on,53,0,160
1,note_on,56,52,0
1,note_on,56,0,160
1,note_on,61,47,0
1,note_on,61,0,160
1,note_on,65,59,0
1,note_on,65,0,160
1,note_on,61,52,0
1,note_on,61,0,160
1,note_on,56,48,0
1,note_on,56,0,160
1,note_on,53,52,0
1,note_on,53,0,160
1,note_on,56,50,0
1,note_on,56,0,160
1,note_on,61,50,0
1,note_on,61,0,160
1,note_on,56,52,0
1,note_on,56,0,160
1,note_on,61,50,0
1,note_on,61,0,160
1,note_on,65,50,0
1,note_on,65,0,160
1,note_on,68,61,0
1,note_on,68,0,160
1,note_on,65,52,0
1,note_on,65,0,160
1,note_on,61,49,0
1,note_on,61,0,160
1,note_on,56,52,0
1,note_on,56,0,160
1,note_on,61,50,0
1,note_on,61,0,160
1,note_on,65,50,0
1,note_on,65,0,160
1,note_on,62,52,0
1,note_on,62,0,160
1,note_on,65,49,0
1,note_on,65,0,160
1,note_on,68,49,0
1,note_on,68,0,160
1,note_on,63,52,0
1,note_on,63,0,160
1,note_on,66,52,0
1,note_on,66,0,160
1,note_on,68,52,0
1,note_on,68,0,160
1,note_on,63,54,0
1,note_on,63,0,160
1,note_on,66,57,0
1,note_on,66,0,160
1,note_on,69,57,0
1,note_on,69,0,160
1,note_on,60,63,0
1,note_on,60,0,160
1,note_on,66,58,0
1,note_on,66,0,160
1,note_on,70,55,0
1,note_on,70,0,160
1,note_on,60,52,0
1,note_on,60,0,160
1,note_on,65,49,0
1,note_on,65,0,160
1,note_on,68,50,0
1,note_on,68,0,160
1,note_on,60,52,0
1,note_on,60,0,160
1,note_on,63,49,0
1,note_on,63,0,160
1,note_on,66,49,0
1,note_on,66,0,160
1,note_on,65,52,0
1,note_on,65,0,160
1,note_on,68,49,0
1,note_on,68,0,160
1,note_on,73,49,0
1,note_on,73,0,160
1,note_on,77,59,0
1,note_on,77,0,160
1,note_on,73,50,0
1,note_on,73,0,160
1,note_on,68,52,0
1,note_on,68,0,160
1,note_on,65,52,0
1,note_on,65,0,160
1,note_on,68,50,0
1,note_on,68,0,160
1,note_on,73,50,0
1,note_on,73,0,160
1,note_on,68,52,0
1,note_on,68,0,160
1,note_on,73,49,0
1,note_on,73,0,160
1,note_on,77,49,0
1,note_on,77,0,160
1,note_on,80,59,0
1,note_on,80,0,160
1,note_on,77,50,0
1,note_on,77,0,160
1,note_on,73,50,0
1,note_on,73,0,160
1,note_on,68,52,0
1,note_on,68,0,160
1,note_on,73,49,0
1,note_on,73,0,160
1,note_on,77,49,0
1,note_on,77,0,160
1,note_on,74,52,0
1,note_on,74,0,160
1,note_on,77,50,0
1,note_on,77,0,160
1,note_on,80,50,0
1,note_on,80,0,160
1,note_on,75,52,0
1,note_on,75,0,160
1,note_on,78,49,0
1,note_on,78,0,160
1,note_on,80,49,0
1,note_on,80,0,160
1,note_on,75,54,0
1,note_on,75,0,160
1,note_on,78,57,0
1,note_on,78,0,160
1,note_on,81,59,0
1,note_on,81,0,160
1,note_on,72,63,0
1,note_on,72,0,160
1,note_on,78,58,0
1,note_on,78,0,160
1,note_on,82,55,0
1,note_on,82,0,160
1,note_on,72,52,0
1,note_on,72,0,160
1,note_on,77,50,0
1,note_on,77,0,160
1,note_on,80,50,0
1,note_on,80,0,160
1,note_on,72,52,0
1,note_on,72,0,160
1,note_on,75,49,0
1,note_on,75,0,160
1,note_on,78,49,0
1,note_on,78,0,160
1,note_on,72,51,0
1,note_on,72,0,160
1,note_on,75,48,0
1,note_on,75,0,160
1,note_on,77,50,0
1,note_on,77,0,160
1,note_on,70,49,0
1,note_on,70,0,160
1,note_on,73,44,0
1,note_on,73,0,160
1,note_on,77,44,0
1,note_on,77,0,160
1,note_on,68,46,0
1,note_on,68,0,160
1,note_on,72,43,0
1,note_on,72,0,160
1,note_on,77,43,0
1,note_on,77,0,160
1,note_on,68,44,0
1,note_on,68,0,160
1,note_on,70,40,0
1,note_on,70,0,160
1,note_on,77,41,0
1,note_on,77,0,160
1,note_on,66,41,0
1,note_on,66,0,160
1,note_on,70,38,0
1,note_on,70,0,160
1,note_on,75,38,0
1,note_on,75,0,160
1,note_on,65,39,0
1,note_on,65,0,160
1,note_on,70,34,0
1,note_on,70,0,160
1,note_on,73,34,0
1,note_on,73,0,160
1,note_on,63,36,0
1,note_on,63,0,160
1,note_on,68,35,0
1,note_on,68,0,160
1,note_on,72,34,0
1,note_on,72,0,160
1,note_on,65,34,0
1,note_on,65,0,160
1,note_on,68,33,0
1,note_on,68,0,160
1,note_on,73,33,0
1,note_on,73,0,160
1,note_on,66,34,0
1,note_on,66,0,160
1,note_on,68,34,0
1,note_on,68,0,160
1,note_on,75,34,0
1,note_on,75,0,160
1,note_on,65,34,0
1,note_on,65,0,160
1,note_on,68,33,0
1,note_on,68,0,160
1,note_on,73,33,0
1,note_on,73,0,160
1,note_on,68,34,0
1,note_on,68,0,160
1,note_on,65,31,0
1,note_on,65,0,160
1,note_on,61,31,0
1,note_on,61,0,160
1,note_on,65,34,0
1,note_on,65,0,160
1,note_on,61,32,0
1,note_on,61,0,160
1,note_on,56,32,0
1,note_on,56,0,160
1,note_on,53,52,0
1,note_on,53,0,160
1,note_on,56,51,0
1,note_on,56,0,160
1,note_on,61,51,0
1,note_on,61,0,160
1,note_on,65,59,0
1,note_on,65,0,160
1,note_on,61,50,0
1,note_on,61,0,160
1,note_on,56,50,0
1,note_on,56,0,160
1,note_on,53,52,0
1,note_on,53,0,160
1,note_on,56,49,0
1,note_on,56,0,160
1,note_on,61,49,0
1,note_on,61,0,160
1,note_on,56,52,0
1,note_on,56,0,160
1,note_on,61,49,0
1,note_on,61,0,160
1,note_on,65,49,0
1,note_on,65,0,160
1,note_on,68,61,0
1,note_on,68,0,160
1,note_on,65,49,0
1,note_on,65,0,160
1,note_on,61,49,0
1,note_on,61,0,160
1,note_on,56,52,0
1,note_on,56,0,160
1,note_on,61,48,0
1,note_on,61,0,160
1,note_on,65,48,0
1,note_on,65,0,160
1,note_on,62,52,0
1,note_on,62,0,160
1,note_on,65,48,0
1,note_on,65,0,160
1,note_on,68,48,0
1,note_on,68,0,160
1,note_on,63,52,0
1,note_on,63,0,160
1,note_on,66,49,0
1,note_on,66,0,160
1,note_on,68,50,0
1,note_on,68,0,160
1,note_on,63,54,0
1,note_on,63,0,160
1,note_on,66,57,0
1,note_on,66,0,160
1,note_on,69,56,0
1,note_on,69,0,160
1,note_on,60,63,0
1,note_on,60,0,160
1,note_on,66,58,0
1,note_on,66,0,160
1,note_on,70,55,0
1,note_on,70,0,160
1,note_on,60,52,0
1,note_on,60,0,160
1,note_on,65,49,0
1,note_on,65,0,160
1,note_on,68,49,0
1,note_on,68,0,160
1,note_on,60,52,0
1,note_on,60,0,160
1,note_on,63,50,0
1,note_on,63,0,160
1,note_on,66,50,0
1,note_on,66,0,160
1,note_on,65,52,0
1,note_on,65,0,160
1,note_on,68,50,0
1,note_on,68,0,160
1,note_on,73,50,0
1,note_on,73,0,160
1,note_on,77,59,0
1,note_on,77,0,160
1,note_on,73,49,0
1,note_on,73,0,160
1,note_on,68,49,0
1,note_on,68,0,160
1,note_on,65,52,0
1,note_on,65,0,160
1,note_on,68,49,0
1,note_on,68,0,160
1,note_on,73,49,0
1,note_on,73,0,160
1,note_on,68,52,0
1,note_on,68,0,160
1,note_on,73,49,0
1,note_on,73,0,160
1,note_on,77,49,0
1,note_on,77,0,160
1,note_on,80,61,0
1,note_on,80,0,160
1,note_on,77,49,0
1,note_on,77,0,160
1,note_on,73,49,0
1,note_on,73,0,160
1,note_on,68,52,0
1,note_on,68,0,160
1,note_on,73,49,0
1,note_on,73,0,160
1,note_on,77,49,0
1,note_on,77,0,160
1,note_on,74,52,0
1,note_on,74,0,160
1,note_on,77,50,0
1,note_on,77,0,160
1,note_on,80,50,0
1,note_on,80,0,160
1,note_on,75,52,0
1,note_on,75,0,160
1,note_on,78,49,0
1,note_on,78,0,160
1,note_on,80,49,0
1,note_on,80,0,160
1,note_on,75,54,0
1,note_on,75,0,160
1,note_on,78,57,0
1,note_on,78,0,160
1,note_on,81,56,0
1,note_on,81,0,160
1,note_on,72,63,0
1,note_on,72,0,160
1,note_on,78,58,0
1,note_on,78,0,160
1,note_on,82,55,0
1,note_on,82,0,160
1,note_on,72,52,0
1,note_on,72,0,160
1,note_on,77,48,0
1,note_on,77,0,160
1,note_on,80,48,0
1,note_on,80,0,160
1,note_on,72,52,0
1,note_on,72,0,160
1,note_on,75,48,0
1,note_on,75,0,160
1,note_on,78,48,0
1,note_on,78,0,160
1,note_on,72,51,0
1,note_on,72,0,160
1,note_on,75,46,0
1,note_on,75,0,160
1,note_on,77,46,0
1,note_on,77,0,160
1,note_on,70,49,0
1,note_on,70,0,160
1,note_on,73,45,0
1,note_on,73,0,160
1,note_on,77,45,0
1,note_on,77,0,160
1,note_on,68,46,0
1,note_on,68,0,160
1,note_on,72,42,0
1,note_on,72,0,160
1,note_on,77,42,0
1,note_on,77,0,160
1,note_on,68,44,0
1,note_on,68,0,160
1,note_on,70,41,0
1,note_on,70,0,160
1,note_on,77,41,0
1,note_on,77,0,160
1,note_on,66,41,0
1,note_on,66,0,160
1,note_on,70,40,0
1,note_on,70,0,160
1,note_on,75,38,0
1,note_on,75,0,160
1,note_on,65,39,0
1,note_on,65,0,160
1,note_on,70,35,0
1,note_on,70,0,160
1,note_on,73,34,0
1,note_on,73,0,160
1,note_on,63,36,0
1,note_on,63,0,160
1,note_on,68,34,0
1,note_on,68,0,160
1,note_on,72,34,0
1,note_on,72,0,160
1,note_on,65,34,0
1,note_on,65,0,160
1,note_on,68,32,0
1,note_on,68,0,160
1,note_on,73,32,0
1,note_on,73,0,160
1,note_on,66,34,0
1,note_on,66,0,160
1,note_on,68,32,0
1,note_on,68,0,160
1,note_on,75,32,0
1,note_on,75,0,160
1,note_on,65,34,0
1,note_on,65,0,160
1,note_on,68,32,0
1,note_on,68,0,160
1,note_on,73,32,0
1,note_on,73,0,160
1,note_on,68,34,0
1,note_on,68,0,160
1,note_on,65,31,0
1,note_on,65,0,160
1,note_on,61,31,0
1,note_on,61,0,160
1,note_on,65,34,0
1,note_on,65,0,160
1,note_on,61,32,0
1,note_on,61,0,160
1,note_on,56,32,0
1,note_on,56,0,160
1,note_on,52,74,0
1,note_on,52,0,160
1,note_on,56,68,0
1,note_on,56,0,160
1,note_on,61,68,0
1,note_on,61,0,160
1,note_on,64,84,0
1,note_on,64,0,160
1,note_on,61,69,0
1,note_on,61,0,160
1,note_on,56,69,0
1,note_on,56,0,160
1,note_on,52,74,0
1,note_on,52,0,160
1,note_on,56,70,0
1,note_on,56,0,160
1,note_on,61,70,0
1,note_on,61,0,160
1,note_on,56,74,0
1,note_on,56,0,160
1,note_on,61,68,0
1,note_on,61,0,160
1,note_on,64,68,0
1,note_on,64,0,160
1,note_on,68,85,0
1,note_on,68,0,160
1,note_on,64,68,0
1,note_on,64,0,160
1,note_on,61,68,0
1,note_on,61,0,160
1,note_on,56,74,0
1,note_on,56,0,160
1,note_on,61,68,0
1,note_on,61,0,160
1,note_on,64,68,0
1,note_on,64,0,160
1,note_on,62,74,0
1,note_on,62,0,160
1,note_on,65,69,0
1,note_on,65,0,160
1,note_on,68,69,0
1,note_on,68,0,160
1,note_on,63,74,0
1,note_on,63,0,160
1,note_on,66,67,0
1,note_on,66,0,160
1,note_on,68,69,0
1,note_on,68,0,160
1,note_on,62,76,0
1,note_on,62,0,160
1,note_on,65,78,0
1,note_on,65,0,160
1,note_on,68,81,0
1,note_on,68,0,160
1,note_on,63,90,0
1,note_on,63,0,160
1,note_on,66,82,0
1,note_on,66,0,160
1,note_on,69,78,0
1,note_on,69,0,160
1,note_on,60,74,0
1,note_on,60,0,160
1,note_on,64,70,0
1,note_on,64,0,160
1,note_on,68,70,0
1,note_on,68,0,160
1,note_on,60,74,0
1,note_on,60,0,160
1,note_on,63,69,0
1,note_on,63,0,160
1,note_on,66,69,0
1,note_on,66,0,160
1,note_on,64,74,0
1,note_on,64,0,160
1,note_on,68,68,0
1,note_on,68,0,160
1,note_on,73,69,0
1,note_on,73,0,160
1,note_on,76,84,0
1,note_on,76,0,160
1,note_on,73,69,0
1,note_on,73,0,160
1,note_on,68,69,0
1,note_on,68,0,160
1,note_on,64,74,0
1,note_on,64,0,160
1,note_on,68,69,0
1,note_on,68,0,160
1,note_on,73,69,0
1,note_on,73,0,160
1,note_on,68,74,0
1,note_on,68,0,160
1,note_on,73,68,0
1,note_on,73,0,160
1,note_on,76,68,0
1,note_on,76,0,160
1,note_on,80,83,0
1,note_on,80,0,160
1,note_on,76,70,0
1,note_on,76,0,160
1,note_on,73,70,0
1,note_on,73,0,160
1,note_on,68,74,0
1,note_on,68,0,160
1,note_on,73,69,0
1,note_on,73,0,160
1,note_on,76,69,0
1,note_on,76,0,160
1,note_on,75,74,0
1,note_on,75,0,160
1,note_on,78,69,0
1,note_on,78,0,160
1,note_on,80,69,0
1,note_on,80,0,160
1,note_on,75,74,0
1,note_on,75,0,160
1,note_on,78,70,0
1,note_on,78,0,160
1,note_on,82,70,0
1,note_on,82,0,160
1,note_on,75,76,0
1,note_on,75,0,160
1,note_on,78,81,0
1,note_on,78,0,160
1,note_on,84,87,0
1,note_on,84,0,160
1,note_on,73,87,0
1,note_on,73,0,160
1,note_on,76,82,0
1,note_on,76,0,160
1,note_on,85,82,0
1,note_on,85,0,160
1,note_on,75,87,0
1,note_on,75,0,160
1,note_on,78,83,0
1,note_on,78,0,160
1,note_on,87,83,0
1,note_on,87,0,160
1,note_on,76,87,0
1,note_on,76,0,160
1,note_on,80,82,0
1,note_on,80,0,160
1,note_on,88,82,0
1,note_on,88,0,160
1,note_on,78,87,0
1,note_on,78,0,160
1,note_on,81,84,0
1,note_on,81,0,160
1,note_on,90,85,0
1,note_on,90,0,160
1,note_on,80,92,0
1,note_on,80,0,160
1,note_on,83,90,0
1,note_on,83,0,160
1,note_on,92,90,0
1,note_on,92,0,160
1,note_on,81,98,0
1,note_on,81,0,160
1,note_on,85,90,0
1,note_on,85,0,160
1,note_on,93,94,0
1,note_on,93,0,160
1,note_on,80,103,0
1,note_on,80,0,160
1,note_on,88,97,0
1,note_on,88,0,160
1,note_on,92,97,0
1,note_on,92,0,160
1,note_on,81,105,0
1,note_on,81,0,160
1,note_on,90,96,0
1,note_on,90,0,160
1,note_on,93,96,0
1,note_on,93,0,160
1,note_on,83,109,0
1,note_on,83,0,160
1,note_on,92,101,0
1,note_on,92,0,160
1,note_on,95,101,0
1,note_on,95,0,160
1,note_on,85,114,0
1,note_on,85,0,160
1,note_on,88,103,0
1,note_on,88,0,160
1,note_on,93,102,0
1,note_on,93,0,160
1,note_on,97,114,0
1,note_on,97,0,160
1,note_on,93,99,0
1,note_on,93,0,160
1,note_on,88,99,0
1,note_on,88,0,160
1,note_on,93,106,0
1,note_on,93,0,160
1,note_on,88,96,0
1,note_on,88,0,160
1,note_on,85,101,0
1,note_on,85,0,160
1,note_on,81,105,0
1,note_on,81,0,160
1,note_on,85,97,0
1,note_on,85,0,160
1,note_on,88,100,0
1,note_on,88,0,160
1,note_on,93,113,0
1,note_on,93,0,160
1,note_on,88,96,0
1,note_on,88,0,160
1,note_on,85,96,0
1,note_on,85,0,160
1,note_on,88,105,0
1,note_on,88,0,160
1,note_on,85,100,0
1,note_on,85,0,160
1,note_on,81,95,0
1,note_on,81,0,160
1,note_on,73,104,0
1,note_on,73,0,160
1,note_on,76,100,0
1,note_on,76,0,160
1,note_on,81,95,0
1,note_on,81,0,160
1,note_on,85,114,0
1,note_on,85,0,160
1,note_on,81,95,0
1,note_on,81,0,160
1,note_on,76,98,0
1,note_on,76,0,160
1,note_on,81,103,0
1,note_on,81,0,160
1,note_on,76,95,0
1,note_on,76,0,160
1,note_on,73,95,0
1,note_on,73,0,160
1,note_on,69,103,0
1,note_on,69,0,160
1,note_on,73,95,0
1,note_on,73,0,160
1,note_on,76,95,0
1,note_on,76,0,160
1,note_on,81,114,0
1,note_on,81,0,160
1,note_on,76,98,0
1,note_on,76,0,160
1,note_on,73,98,0
1,note_on,73,0,160
1,note_on,76,102,0
1,note_on,76,0,160
1,note_on,73,98,0
1,note_on,73,0,160
1,note_on,69,98,0
1,note_on,69,0,160
1,note_on,76,102,0
1,note_on,76,0,160
1,note_on,73,97,0
1,note_on,73,0,160
1,note_on,69,97,0
1,note_on,69,0,160
1,note_on,73,113,0
1,note_on,73,0,160
1,note_on,69,97,0
1,note_on,69,0,160
1,note_on,64,97,0
1,note_on,64,0,160
1,note_on,69,102,0
1,note_on,69,0,160
1,note_on,64,97,0
1,note_on,64,0,160
1,note_on,61,97,0
1,note_on,61,0,160
1,note_on,69,99,0
1,note_on,69,0,160
1,note_on,64,93,0
1,note_on,64,0,160
1,note_on,61,87,0
1,note_on,61,0,160
1,note_on,64,81,0
1,note_on,64,0,160
1,note_on,61,78,0
1,note_on,61,0,160
1,note_on,57,72,0
1,note_on,57,0,160
1,note_on,61,67,0
1,note_on,61,0,160
1,note_on,57,61,0
1,note_on,57,0,160
1,note_on,52,54,0
1,note_on,52,0,160
1,note_on,49,52,0
1,note_on,49,0,160
1,note_on,52,50,0
1,note_on,52,0,160
1,note_on,57,50,0
1,note_on,57,0,160
1,note_on,61,51,0
1,note_on,61,0,160
1,note_on,57,47,0
1,note_on,57,0,160
1,note_on,52,48,0
1,note_on,52,0,160
1,note_on,49,51,0
1,note_on,49,0,160
1,note_on,52,47,0
1,note_on,52,0,160
1,note_on,57,47,0
1,note_on,57,0,160
1,note_on,49,51,0
1,note_on,49,0,160
1,note_on,54,49,0
1,note_on,54,0,160
1,note_on,57,49,0
1,note_on,57,0,160
1,note_on,61,52,0
1,note_on,61,0,160
1,note_on,57,49,0
1,note_on,57,0,160
1,note_on,54,49,0
1,note_on,54,0,160
1,note_on,49,52,0
1,note_on,49,0,160
1,note_on,54,48,0
1,note_on,54,0,160
1,note_on,57,48,0
1,note_on,57,0,160
1,note_on,49,51,0
1,note_on,49,0,160
1,note_on,53,48,0
1,note_on,53,0,160
1,note_on,56,48,0
1,note_on,56,0,160
1,note_on,61,50,0
1,note_on,61,0,160
1,note_on,56,45,0
1,note_on,56,0,160
1,note_on,53,45,0
1,note_on,53,0,160
1,note_on,49,48,0
1,note_on,49,0,160
1,note_on,53,45,0
1,note_on,53,0,160
1,note_on,56,45,0
1,note_on,56,0,160
1,note_on,51,46,0
1,note_on,51,0,160
1,note_on,54,42,0
1,note_on,54,0,160
1,note_on,56,42,0
1,note_on,56,0,160
1,note_on,60,45,0
1,note_on,60,0,160
1,note_on,56,41,0
1,note_on,56,0,160
1,note_on,54,41,0
1,note_on,54,0,160
1,note_on,51,44,0
1,note_on,51,0,160
1,note_on,54,40,0
1,note_on,54,0,160
1,note_on,56,41,0
1,note_on,56,0,160
1,note_on,53,52,0
1,note_on,53,0,160
1,note_on,56,47,0
1,note_on,56,0,160
1,note_on,61,47,0
1,note_on,61,0,160
1,note_on,65,59,0
1,note_on,65,0,160
1,note_on,61,48,0
1,note_on,61,0,160
1,note_on,56,48,0
1,note_on,56,0,160
1,note_on,53,52,0
1,note_on,53,0,160
1,note_on,56,48,0
1,note_on,56,0,160
1,note_on,61,48,0
1,note_on,61,0,160
1,note_on,56,52,0
1,note_on,56,0,160
1,note_on,61,48,0
1,note_on,61,0,160
1,note_on,65,48,0
1,note_on,65,0,160
1,note_on,68,61,0
1,note_on,68,0,160
1,note_on,65,47,0
1,note_on,65,0,160
1,note_on,61,47,0
1,note_on,61,0,160
1,note_on,56,52,0
1,note_on,56,0,160
1,note_on,61,47,0
1,note_on,61,0,160
1,note_on,65,47,0
1,note_on,65,0,160
1,note_on,62,52,0
1,note_on,62,0,160
1,note_on,65,48,0
1,note_on,65,0,160
1,note_on,68,48,0
1,note_on,68,0,160
1,note_on,63,52,0
1,note_on,63,0,160
1,note_on,66,48,0
1,note_on,66,0,160
1,note_on,68,48,0
1,note_on,68,0,160
1,note_on,63,54,0
1,note_on,63,0,160
1,note_on,66,57,0
1,note_on,66,0,160
1,note_on,69,56,0
1,note_on,69,0,160
1,note_on,60,63,0
1,note_on,60,0,160
1,note_on,66,58,0
1,note_on,66,0,160
1,note_on,70,55,0
1,note_on,70,0,160
1,note_on,60,52,0
1,note_on,60,0,160
1,note_on,65,47,0
1,note_on,65,0,160
1,note_on,68,47,0
1,note_on,68,0,160
1,note_on,60,52,0
1,note_on,60,0,160
1,note_on,63,49,0
1,note_on,63,0,160
1,note_on,66,49,0
1,note_on,66,0,160
1,note_on,65,52,0
1,note_on,65,0,160
1,note_on,68,49,0
1,note_on,68,0,160
1,note_on,73,49,0
1,note_on,73,0,160
1,note_on,77,59,0
1,note_on,77,0,160
1,note_on,73,49,0
1,note_on,73,0,160
1,note_on,68,52,0
1,note_on,68,0,160
1,note_on,65,52,0
1,note_on,65,0,160
1,note_on,68,49,0
1,note_on,68,0,160
1,note_on,73,49,0
1,note_on,73,0,160
1,note_on,68,52,0
1,note_on,68,0,160
1,note_on,73,49,0
1,note_on,73,0,160
1,note_on,77,49,0
1,note_on,77,0,160
1,note_on,80,61,0
1,note_on,80,0,160
1,note_on,77,50,0
1,note_on,77,0,160
1,note_on,73,50,0
1,note_on,73,0,160
1,note_on,68,52,0
1,note_on,68,0,160
1,note_on,73,48,0
1,note_on,73,0,160
1,note_on,77,52,0
1,note_on,77,0,160
1,note_on,74,52,0
1,note_on,74,0,160
1,note_on,77,49,0
1,note_on,77,0,160
1,note_on,80,52,0
1,note_on,80,0,160
1,note_on,75,52,0
1,note_on,75,0,160
1,note_on,78,49,0
1,note_on,78,0,160
1,note_on,80,49,0
1,note_on,80,0,160
1,note_on,75,54,0
1,note_on,75,0,160
1,note_on,78,57,0
1,note_on,78,0,160
1,note_on,81,57,0
1,note_on,81,0,160
1,note_on,72,63,0
1,note_on,72,0,160
1,note_on,78,58,0
1,note_on,78,0,160
1,note_on,82,55,0
1,note_on,82,0,160
1,note_on,72,52,0
1,note_on,72,0,160
1,note_on,77,48,0
1,note_on,77,0,160
1,note_on,80,48,0
1,note_on,80,0,160
1,note_on,72,52,0
1,note_on,72,0,160
1,note_on,75,49,0
1,note_on,75,0,160
1,note_on,78,49,0
1,note_on,78,0,160
1,note_on,72,51,0
1,note_on,72,0,160
1,note_on,75,46,0
1,note_on,75,0,160
1,note_on,77,46,0
1,note_on,77,0,160
1,note_on,70,49,0
1,note_on,70,0,160
1,note_on,73,45,0
1,note_on,73,0,160
1,note_on,77,45,0
1,note_on,77,0,160
1,note_on,68,46,0
1,note_on,68,0,160
1,note_on,72,42,0
1,note_on,72,0,160
1,note_on,77,42,0
1,note_on,77,0,160
1,note_on,68,44,0
1,note_on,68,0,160
1,note_on,70,39,0
1,note_on,70,0,160
1,note_on,77,39,0
1,note_on,77,0,160
1,note_on,66,41,0
1,note_on,66,0,160
1,note_on,70,37,0
1,note_on,70,0,160
1,note_on,75,37,0
1,note_on,75,0,160
1,note_on,65,39,0
1,note_on,65,0,160
1,note_on,70,35,0
1,note_on,70,0,160
1,note_on,73,35,0
1,note_on,73,0,160
1,note_on,63,36,0
1,note_on,63,0,160
1,note_on,68,32,0
1,note_on,68,0,160
1,note_on,72,34,0
1,note_on,72,0,160
1,note_on,65,34,0
1,note_on,65,0,160
1,note_on,68,33,0
1,note_on,68,0,160
1,note_on,73,33,0
1,note_on,73,0,160
1,note_on,66,34,0
1,note_on,66,0,160
1,note_on,68,33,0
1,note_on,68,0,160
1,note_on,75,33,0
1,note_on,75,0,160
1,note_on,65,34,0
1,note_on,65,0,160
1,note_on,68,32,0
1,note_on,68,0,160
1,note_on,73,31,0
1,note_on,73,0,160
1,note_on,68,34,0
1,note_on,68,0,160
1,note_on,65,29,0
1,note_on,65,0,160
1,note_on,61,29,0
1,note_on,61,0,160
1,note_on,65,34,0
1,note_on,65,0,160
1,note_on,61,29,0
1,note_on,61,0,160
1,note_on,56,29,0
1,note_on,56,0,160
1,note_on,52,74,0
1,note_on,52,0,160
1,note_on,56,68,0
1,note_on,56,0,160
1,note_on,61,68,0
1,note_on,61,0,160
1,note_on,64,84,0
1,note_on,64,0,160
1,note_on,61,69,0
1,note_on,61,0,160
1,note_on,56,69,0
1,note_on,56,0,160
1,note_on,52,74,0
1,note_on,52,0,160
1,note_on,56,70,0
1,note_on,56,0,160
1,note_on,61,70,0
1,note_on,61,0,160
1,note_on,56,74,0
1,note_on,56,0,160
1,note_on,61,68,0
1,note_on,61,0,160
1,note_on,64,68,0
1,note_on,64,0,160
1,note_on,68,85,0
1,note_on,68,0,160
1,note_on,64,68,0
1,note_on,64,0,160
1,note_on,61,68,0
1,note_on,61,0,160
1,note_on,56,74,0
1,note_on,56,0,160
1,note_on,61,68,0
1,note_on,61,0,160
1,note_on,64,68,0
1,note_on,64,0,160
1,note_on,62,74,0
1,note_on,62,0,160
1,note_on,65,69,0
1,note_on,65,0,160
1,note_on,68,69,0
1,note_on,68,0,160
1,note_on,63,74,0
1,note_on,63,0,160
1,note_on,66,67,0
1,note_on,66,0,160
1,note_on,68,69,0
1,note_on,68,0,160
1,note_on,62,76,0
1,note_on,62,0,160
1,note_on,65,78,0
1,note_on,65,0,160
1,note_on,68,81,0
1,note_on,68,0,160
1,note_on,63,90,0
1,note_on,63,0,160
1,note_on,66,82,0
1,note_on,66,0,160
1,note_on,69,78,0
1,note_on,69,0,160
1,note_on,60,74,0
1,note_on,60,0,160
1,note_on,64,70,0
1,note_on,64,0,160
1,note_on,68,70,0
1,note_on,68,0,160
1,note_on,60,74,0
1,note_on,60,0,160
1,note_on,63,69,0
1,note_on,63,0,160
1,note_on,66,69,0
1,note_on,66,0,160
1,note_on,64,74,0
1,note_on,64,0,160
1,note_on,68,68,0
1,note_on,68,0,160
1,note_on,73,69,0
1,note_on,73,0,160
1,note_on,76,84,0
1,note_on,76,0,160
1,note_on,73,69,0
1,note_on,73,0,160
1,note_on,68,69,0
1,note_on,68,0,160
1,note_on,64,74,0
1,note_on,64,0,160
1,note_on,68,69,0
1,note_on,68,0,160
1,note_on,73,69,0
1,note_on,73,0,160
1,note_on,68,74,0
1,note_on,68,0,160
1,note_on,73,68,0
1,note_on,73,0,160
1,note_on,76,68,0
1,note_on,76,0,160
1,note_on,80,83,0
1,note_on,80,0,160
1,note_on,76,70,0
1,note_on,76,0,160
1,note_on,73,70,0
1,note_on,73,0,160
1,note_on,68,74,0
1,note_on,68,0,160
1,note_on,73,69,0
1,note_on,73,0,160
1,note_on,76,69,0
1,note_on,76,0,160
1,note_on,75,74,0
1,note_on,75,0,160
1,note_on,78,69,0
1,note_on,78,0,160
1,note_on,80,69,0
1,note_on,80,0,160
1,note_on,75,74,0
1,note_on,75,0,160
1,note_on,78,70,0
1,note_on,78,0,160
1,note_on,82,70,0
1,note_on,82,0,160
1,note_on,75,76,0
1,note_on,75,0,160
1,note_on,78,81,0
1,note_on,78,0,160
1,note_on,84,87,0
1,note_on,84,0,160
1,note_on,73,87,0
1,note_on,73,0,160
1,note_on,76,82,0
1,note_on,76,0,160
1,note_on,85,82,0
1,note_on,85,0,160
1,note_on,75,87,0
1,note_on,75,0,160
1,note_on,78,83,0
1,note_on,78,0,160
1,note_on,87,83,0
1,note_on,87,0,160
1,note_on,76,87,0
1,note_on,76,0,160
1,note_on,80,82,0
1,note_on,80,0,160
1,note_on,88,82,0
1,note_on,88,0,160
1,note_on,78,87,0
1,note_on,78,0,160
1,note_on,81,84,0
1,note_on,81,0,160
1,note_on,90,85,0
1,note_on,90,0,160
1,note_on,80,92,0
1,note_on,80,0,160
1,note_on,83,90,0
1,note_on,83,0,160
1,note_on,92,90,0
1,note_on,92,0,160
1,note_on,81,98,0
1,note_on,81,0,160
1,note_on,85,90,0
1,note_on,85,0,160
1,note_on,93,94,0
1,note_on,93,0,160
1,note_on,80,103,0
1,note_on,80,0,160
1,note_on,88,97,0
1,note_on,88,0,160
1,note_on,92,97,0
1,note_on,92,0,160
1,note_on,81,105,0
1,note_on,81,0,160
1,note_on,90,96,0
1,note_on,90,0,160
1,note_on,93,96,0
1,note_on,93,0,160
1,note_on,83,109,0
1,note_on,83,0,160
1,note_on,92,101,0
1,note_on,92,0,160
1,note_on,95,101,0
1,note_on,95,0,160
1,note_on,85,114,0
1,note_on,85,0,160
1,note_on,88,103,0
1,note_on,88,0,160
1,note_on,93,102,0
1,note_on,93,0,160
1,note_on,97,114,0
1,note_on,97,0,160
1,note_on,93,99,0
1,note_on,93,0,160
1,note_on,88,99,0
1,note_on,88,0,160
1,note_on,93,106,0
1,note_on,93,0,160
1,note_on,88,96,0
1,note_on,88,0,160
1,note_on,85,101,0
1,note_on,85,0,160
1,note_on,81,105,0
1,note_on,81,0,160
1,note_on,85,97,0
1,note_on,85,0,160
1,note_on,88,100,0
1,note_on,88,0,160
1,note_on,93,113,0
1,note_on,93,0,160
1,note_on,88,96,0
1,note_on,88,0,160
1,note_on,85,96,0
1,note_on,85,0,160
1,note_on,88,105,0
1,note_on,88,0,160
1,note_on,85,100,0
1,note_on,85,0,160
1,note_on,81,95,0
1,note_on,81,0,160
1,note_on,73,104,0
1,note_on,73,0,160
1,note_on,76,100,0
1,note_on,76,0,160
1,note_on,81,95,0
1,note_on,81,0,160
1,note_on,85,114,0
1,note_on,85,0,160
1,note_on,81,95,0
1,note_on,81,0,160
1,note_on,76,98,0
1,note_on,76,0,160
1,note_on,81,103,0
1,note_on,81,0,160
1,note_on,76,95,0
1,note_on,76,0,160
1,note_on,73,95,0
1,note_on,73,0,160
1,note_on,69,103,0
1,note_on,69,0,160
1,note_on,73,95,0
1,note_on,73,0,160
1,note_on,76,95,0
1,note_on,76,0,160
1,note_on,81,114,0
1,note_on,81,0,160
1,note_on,76,98,0
1,note_on,76,0,160
1,note_on,73,98,0
1,note_on,73,0,160
1,note_on,76,102,0
1,note_on,76,0,160
1,note_on,73,98,0
1,note_on,73,0,160
1,note_on,69,98,0
1,note_on,69,0,160
1,note_on,76,102,0
1,note_on,76,0,160
1,note_on,73,97,0
1,note_on,73,0,160
1,note_on,69,97,0
1,note_on,69,0,160
1,note_on,73,113,0
1,note_on,73,0,160
1,note_on,69,97,0
1,note_on,69,0,160
1,note_on,64,97,0
1,note_on,64,0,160
1,note_on,69,102,0
1,note_on,69,0,160
1,note_on,64,97,0
1,note_on,64,0,160
1,note_on,61,97,0
1,note_on,61,0,160
1,note_on,69,99,0
1,note_on,69,0,160
1,note_on,64,93,0
1,note_on,64,0,160
1,note_on,61,87,0
1,note_on,61,0,160
1,note_on,64,81,0
1,note_on,64,0,160
1,note_on,61,78,0
1,note_on,61,0,160
1,note_on,57,72,0
1,note_on,57,0,160
1,note_on,61,67,0
1,note_on,61,0,160
1,note_on,57,61,0
1,note_on,57,0,160
1,note_on,52,54,0
1,note_on,52,0,160
1,note_on,49,52,0
1,note_on,49,0,160
1,note_on,52,50,0
1,note_on,52,0,160
1,note_on,57,50,0
1,note_on,57,0,160
1,note_on,61,51,0
1,note_on,61,0,160
1,note_on,57,47,0
1,note_on,57,0,160
1,note_on,52,48,0
1,note_on,52,0,160
1,note_on,49,51,0
1,note_on,49,0,160
1,note_on,52,47,0
1,note_on,52,0,160
1,note_on,57,47,0
1,note_on,57,0,160
1,note_on,49,51,0
1,note_on,49,0,160
1,note_on,54,49,0
1,note_on,54,0,160
1,note_on,57,49,0
1,note_on,57,0,160
1,note_on,61,52,0
1,note_on,61,0,160
1,note_on,57,49,0
1,note_on,57,0,160
1,note_on,54,49,0
1,note_on,54,0,160
1,note_on,49,52,0
1,note_on,49,0,160
1,note_on,54,48,0
1,note_on,54,0,160
1,note_on,57,48,0
1,note_on,57,0,160
1,note_on,49,51,0
1,note_on,49,0,160
1,note_on,53,48,0
1,note_on,53,0,160
1,note_on,56,48,0
1,note_on,56,0,160
1,note_on,61,50,0
1,note_on,61,0,160
1,note_on,56,45,0
1,note_on,56,0,160
1,note_on,53,45,0
1,note_on,53,0,160
1,note_on,49,48,0
1,note_on,49,0,160
1,note_on,53,45,0
1,note_on,53,0,160
1,note_on,56,45,0
1,note_on,56,0,160
1,note_on,51,46,0
1,note_on,51,0,160
1,note_on,54,42,0
1,note_on,54,0,160
1,note_on,56,42,0
1,note_on,56,0,160
1,note_on,60,45,0
1,note_on,60,0,160
1,note_on,56,41,0
1,note_on,56,0,160
1,note_on,54,41,0
1,note_on,54,0,160
1,note_on,51,44,0
1,note_on,51,0,160
1,note_on,54,40,0
1,note_on,54,0,160
1,note_on,56,41,0
1,note_on,56,0,160
1,note_on,53,52,0
1,note_on,53,0,160
1,note_on,56,47,0
1,note_on,56,0,160
1,note_on,61,47,0
1,note_on,61,0,160
1,note_on,65,59,0
1,note_on,65,0,160
1,note_on,61,48,0
1,note_on,61,0,160
1,note_on,56,48,0
1,note_on,56,0,160
1,note_on,53,52,0
1,note_on,53,0,160
1,note_on,56,48,0
1,note_on,56,0,160
1,note_on,61,48,0
1,note_on,61,0,160
1,note_on,56,52,0
1,note_on,56,0,160
1,note_on,61,48,0
1,note_on,61,0,160
1,note_on,65,48,0
1,note_on,65,0,160
1,note_on,68,61,0
1,note_on,68,0,160
1,note_on,65,47,0
1,note_on,65,0,160
1,note_on,61,47,0
1,note_on,61,0,160
1,note_on,56,52,0
1,note_on,56,0,160
1,note_on,61,47,0
1,note_on,61,0,160
1,note_on,65,47,0
1,note_on,65,0,160
1,note_on,62,52,0
1,note_on,62,0,160
1,note_on,65,48,0
1,note_on,65,0,160
1,note_on,68,48,0
1,note_on,68,0,160
1,note_on,63,52,0
1,note_on,63,0,160
1,note_on,66,48,0
1,note_on,66,0,160
1,note_on,68,48,0
1,note_on,68,0,160
1,note_on,63,54,0
1,note_on,63,0,160
1,note_on,66,57,0
1,note_on,66,0,160
1,note_on,69,56,0
1,note_on,69,0,160
1,note_on,60,63,0
1,note_on,60,0,160
1,note_on,66,58,0
1,note_on,66,0,160
1,note_on,70,55,0
1,note_on,70,0,160
1,note_on,60,52,0
1,note_on,60,0,160
1,note_on,65,47,0
1,note_on,65,0,160
1,note_on,68,47,0
1,note_on,68,0,160
1,note_on,60,52,0
1,note_on,60,0,160
1,note_on,63,49,0
1,note_on,63,0,160
1,note_on,66,49,0
1,note_on,66,0,160
1,note_on,65,52,0
1,note_on,65,0,160
1,note_on,68,49,0
1,note_on,68,0,160
1,note_on,73,49,0
1,note_on,73,0,160
1,note_on,77,59,0
1,note_on,77,0,160
1,note_on,73,49,0
1,note_on,73,0,160
1,note_on,68,52,0
1,note_on,68,0,160
1,note_on,65,52,0
1,note_on,65,0,160
1,note_on,68,49,0
1,note_on,68,0,160
1,note_on,73,49,0
1,note_on,73,0,160
1,note_on,68,52,0
1,note_on,68,0,160
1,note_on,73,49,0
1,note_on,73,0,160
1,note_on,77,49,0
1,note_on,77,0,160
1,note_on,80,61,0
1,note_on,80,0,160
1,note_on,77,50,0
1,note_on,77,0,160
1,note_on,73,50,0
1,note_on,73,0,160
1,note_on,68,52,0
1,note_on,68,0,160
1,note_on,73,48,0
1,note_on,73,0,160
1,note_on,77,52,0
1,note_on,77,0,160
1,note_on,74,52,0
1,note_on,74,0,160
1,note_on,77,49,0
1,note_on,77,0,160
1,note_on,80,52,0
1,note_on,80,0,160
1,note_on,75,52,0
1,note_on,75,0,160
1,note_on,78,49,0
1,note_on,78,0,160
1,note_on,80,49,0
1,note_on,80,0,160
1,note_on,75,54,0
1,note_on,75,0,160
1,note_on,78,57,0
1,note_on,78,0,160
1,note_on,81,57,0
1,note_on,81,0,160
1,note_on,72,63,0
1,note_on,72,0,160
1,note_on,78,58,0
1,note_on,78,0,160
1,note_on,82,55,0
1,note_on,82,0,160
1,note_on,72,52,0
1,note_on,72,0,160
1,note_on,77,48,0
1,note_on,77,0,160
1,note_on,80,48,0
1,note_on,80,0,160
1,note_on,72,52,0
1,note_on,72,0,160
1,note_on,75,49,0
1,note_on,75,0,160
1,note_on,78,49,0
1,note_on,78,0,160
1,note_on,72,51,0
1,note_on,72,0,160
1,note_on,75,46,0
1,note_on,75,0,160
1,note_on,77,46,0
1,note_on,77,0,160
1,note_on,70,49,0
1,note_on,70,0,160
1,note_on,73,45,0
1,note_on,73,0,160
1,note_on,77,45,0
1,note_on,77,0,160
1,note_on,68,46,0
1,note_on,68,0,160
1,note_on,72,42,0
1,note_on,72,0,160
1,note_on,77,42,0
1,note_on,77,0,160
1,note_on,68,44,0
1,note_on,68,0,160
1,note_on,70,39,0
1,note_on,70,0,160
1,note_on,77,39,0
1,note_on,77,0,160
1,note_on,66,41,0
1,note_on,66,0,160
1,note_on,70,37,0
1,note_on,70,0,160
1,note_on,75,37,0
1,note_on,75,0,160
1,note_on,65,39,0
1,note_on,65,0,160
1,note_on,70,35,0
1,note_on,70,0,160
1,note_on,73,35,0
1,note_on,73,0,160
1,note_on,63,36,0
1,note_on,63,0,160
1,note_on,68,32,0
1,note_on,68,0,160
1,note_on,72,34,0
1,note_on,72,0,160
1,note_on,65,34,0
1,note_on,65,0,160
1,note_on,68,33,0
1,note_on,68,0,160
1,note_on,73,33,0
1,note_on,73,0,160
1,note_on,66,34,0
1,note_on,66,0,160
1,note_on,68,33,0
1,note_on,68,0,160
1,note_on,75,33,0
1,note_on,75,0,160
1,note_on,65,34,0
1,note_on,65,0,160
1,note_on,68,32,0
1,note_on,68,0,160
1,note_on,73,31,0
1,note_on,73,0,160
1,note_on,68,34,0
1,note_on,68,0,160
1,note_on,65,29,0
1,note_on,65,0,160
1,note_on,61,29,0
1,note_on,61,0,160
1,note_on,65,34,0
1,note_on,65,0,160
1,note_on,61,29,0
1,note_on,61,0,160
1,note_on,56,29,0
1,note_on,56,0,160
1,note_on,53,36,0
1,note_on,53,0,160
1,note_on,56,32,0
1,note_on,56,0,160
1,note_on,61,32,0
1,note_on,61,0,160
1,note_on,65,36,0
1,note_on,65,0,160
1,note_on,61,29,0
1,note_on,61,0,160
1,note_on,56,31,0
1,note_on,56,0,160
1,note_on,53,35,0
1,note_on,53,0,160
1,note_on,56,31,0
1,note_on,56,0,160
1,note_on,61,31,0
1,note_on,61,0,160
1,note_on,53,34,0
1,note_on,53,0,160
1,note_on,56,30,0
1,note_on,56,0,160
1,note_on,61,30,0
1,note_on,61,0,160
1,note_on,65,34,0
1,note_on,65,0,160
1,note_on,61,30,0
1,note_on,61,0,160
1,note_on,56,30,0
1,note_on,56,0,160
1,note_on,53,34,0
1,note_on,53,0,160
1,note_on,56,30,0
1,note_on,56,0,160
1,note_on,61,30,0
1,note_on,61,0,160
1,note_on,52,33,0
1,note_on,52,0,160
1,note_on,56,28,0
1,note_on,56,0,160
1,note_on,61,28,0
1,note_on,61,0,160
1,note_on,64,32,0
1,note_on,64,0,160
1,note_on,61,28,0
1,note_on,61,0,160
1,note_on,56,28,0
1,note_on,56,0,160
1,note_on,52,32,0
1,note_on,52,0,160
1,note_on,56,27,0
1,note_on,56,0,160
1,note_on,61,28,0
1,note_on,61,0,160
1,note_on,52,31,0
1,note_on,52,0,160
1,note_on,58,27,0
1,note_on,58,0,160
1,note_on,61,27,0
1,note_on,61,0,160
1,note_on,64,30,0
1,note_on,64,0,160
1,note_on,61,27,0
1,note_on,61,0,160
1,note_on,58,27,0
1,note_on,58,0,160
1,note_on,52,29,0
1,note_on,52,0,160
1,note_on,58,27,0
1,note_on,58,0,160
1,note_on,61,27,0
1,note_on,61,0,160
1,note_on,51,29,0
1,note_on,51,0,160
1,note_on,58,27,0
1,note_on,58,0,160
1,note_on,61,27,0
1,note_on,61,0,160
1,note_on,63,28,0
1,note_on,63,0,160
1,note_on,61,27,0
1,note_on,61,0,160
1,note_on,58,27,0
1,note_on,58,0,160
1,note_on,51,28,0
1,note_on,51,0,160
1,note_on,58,23,0
1,note_on,58,0,160
1,note_on,61,23,0
1,note_on,61,0,160
1,note_on,51,28,0
1,note_on,51,0,160
1,note_on,58,24,0
1,note_on,58,0,160
1,note_on,61,24,0
1,note_on,61,0,160
1,note_on,63,27,0
1,note_on,63,0,160
1,note_on,61,25,0
1,note_on,61,0,160
1,note_on,58,25,0
1,note_on,58,0,160
1,note_on,51,26,0
1,note_on,51,0,160
1,note_on,58,26,0
1,note_on,58,0,160
1,note_on,61,26,0
1,note_on,61,0,160
1,note_on,63,38,0
1,note_on,63,0,475
1,note_on,63,39,5
1,note_on,63,0,475
1,note_on,63,39,5
1,note_on,63,0,475
1,note_on,63,40,5
1,note_on,63,0,475
1,note_on,63,40,5
1,note_on,63,0,475
1,note_on,63,46,5
1,note_on,63,0,475
1,note_on,68,46,5
1,note_on,63,34,0
1,note_on,60,34,0
1,note_on,60,0,475
1,note_on,63,0,0
1,note_on,68,0,0
1,note_on,63,34,5
1,note_on,68,46,0
1,note_on,60,34,0
1,note_on,68,0,720
1,note_on,70,39,0
1,note_on,70,0,240
1,note_on,60,0,0
1,note_on,63,0,0
1,note_on,61,34,0
1,note_on,68,46,0
1,note_on,63,34,0
1,note_on,63,0,475
1,note_on,68,0,0
1,note_on,61,0,0
1,note_on,63,34,5
1,note_on,61,34,0
1,note_on,67,46,0
1,note_on,67,0,720
1,note_on,70,37,0
1,note_on,70,0,238
1,note_on,61,0,2
1,note_on,63,0,0
1,note_on,70,46,0
1,note_on,70,0,475
1,note_on,63,38,5
1,note_on,68,51,0
1,note_on,68,0,475
1,note_on,63,0,0
1,note_on,61,39,5
1,note_on,63,39,0
1,note_on,70,52,0
1,note_on,70,0,475
1,note_on,63,0,0
1,note_on,61,0,0
1,note_on,72,55,5
1,note_on,60,40,0
1,note_on,63,40,0
1,note_on,63,0,960
1,note_on,60,0,0
1,note_on,72,0,0
1,note_on,63,59,0
1,note_on,63,0,475
1,note_on,72,72,5
1,note_on,60,54,0
1,note_on,63,54,0
1,note_on,63,0,475
1,note_on,60,0,0
1,note_on,72,0,0
1,note_on,63,55,5
1,note_on,60,55,0
1,note_on,72,73,0
1,note_on,72,0,720
1,note_on,60,0,0
1,note_on,63,0,0
1,note_on,61,46,0
1,note_on,73,63,0
1,note_on,63,46,0
1,note_on,63,0,238
1,note_on,73,0,0
1,note_on,61,0,0
1,note_on,72,71,2
1,note_on,60,52,0
1,note_on,63,52,0
1,note_on,63,0,475
1,note_on,60,0,0
1,note_on,72,0,0
1,note_on,70,64,5
1,note_on,63,47,0
1,note_on,58,47,0
1,note_on,58,0,720
1,note_on,63,0,0
1,note_on,70,0,0
1,note_on,60,39,0
1,note_on,72,52,0
1,note_on,63,39,0
1,note_on,63,0,238
1,note_on,72,0,0
1,note_on,60,0,0
1,note_on,70,56,2
1,note_on,63,41,0
1,note_on,58,41,0
1,note_on,58,0,475
1,note_on,63,0,0
1,note_on,70,0,0
1,note_on,68,52,5
1,note_on,56,39,0
1,note_on,63,39,0
1,note_on,63,0,475
1,note_on,56,0,0
1,note_on,68,0,0
1,note_on,70,56,5
1,note_on,75,66,0
1,note_on,63,49,0
1,note_on,75,0,360
1,note_on,73,59,0
1,note_on,73,0,120
1,note_on,63,0,0
1,note_on,70,0,0
1,note_on,63,36,0
1,note_on,72,49,0
1,note_on,68,36,0
1,note_on,68,0,960
1,note_on,72,0,0
1,note_on,63,0,0
1,note_on,75,56,0
1,note_on,75,0,475
1,note_on,75,34,5
1,note_on,80,54,0
1,note_on,72,34,0
1,note_on,72,0,475
1,note_on,80,0,0
1,note_on,75,0,0
1,note_on,75,34,5
1,note_on,80,57,0
1,note_on,72,34,0
1,note_on,80,0,720
1,note_on,82,53,0
1,note_on,82,0,240
1,note_on,72,0,0
1,note_on,75,0,0
1,note_on,73,34,0
1,note_on,80,57,0
1,note_on,75,34,0
1,note_on,75,0,475
1,note_on,80,0,0
1,note_on,73,0,0
1,note_on,79,57,5
1,note_on,75,34,0
1,note_on,73,34,0
1,note_on,79,0,720
1,note_on,82,57,0
1,note_on,82,0,240
1,note_on,73,0,0
1,note_on,75,0,0
1,note_on,82,57,0
1,note_on,82,0,475
1,note_on,75,35,5
1,note_on,80,59,0
1,note_on,80,0,475
1,note_on,75,0,0
1,note_on,73,37,5
1,note_on,82,62,0
1,note_on,75,37,0
1,note_on,75,0,475
1,note_on,82,0,0
1,note_on,73,0,0
1,note_on,75,40,5
1,note_on,84,66,0
1,note_on,72,40,0
1,note_on,72,0,960
1,note_on,84,0,0
1,note_on,75,0,0
1,note_on,75,65,0
1,note_on,75,0,475
1,note_on,84,73,5
1,note_on,72,44,0
1,note_on,75,44,0
1,note_on,75,0,475
1,note_on,72,0,0
1,note_on,84,0,0
1,note_on,72,44,5
1,note_on,75,44,0
1,note_on,84,74,0
1,note_on,84,0,720
1,note_on,85,70,0
1,note_on,85,0,240
1,note_on,75,0,0
1,note_on,72,0,0
1,note_on,72,37,0
1,note_on,84,59,0
1,note_on,76,37,0
1,note_on,76,0,475
1,note_on,84,0,0
1,note_on,72,0,0
1,note_on,76,36,5
1,note_on,72,36,0
1,note_on,82,52,0
1,note_on,82,0,720
1,note_on,84,54,0
1,note_on,84,0,240
1,note_on,72,0,0
1,note_on,76,0,0
1,note_on,72,36,0
1,note_on,77,36,0
1,note_on,82,49,0
1,note_on,82,0,475
1,note_on,77,0,0
1,note_on,72,0,0
1,note_on,72,34,5
1,note_on,77,34,0
1,note_on,80,47,0
1,note_on,80,0,160
1,note_on,82,52,0
1,note_on,82,0,80
1,note_on,80,51,0
1,note_on,80,0,80
1,note_on,79,51,0
1,note_on,79,0,80
1,note_on,80,51,0
1,note_on,77,0,75
1,note_on,72,0,0
1,note_on,80,0,5
1,note_on,73,37,0
1,note_on,79,37,0
1,note_on,84,64,0
1,note_on,84,0,360
1,note_on,82,62,0
1,note_on,82,0,120
1,note_on,79,0,0
1,note_on,73,0,0
1,note_on,72,35,0
1,note_on,80,54,0
1,note_on,80,0,960
1,note_on,72,0,0
1,note_on,75,80,240
1,note_on,63,68,0
1,note_on,68,68,0
1,note_on,68,0,238
1,note_on,63,0,0
1,note_on,75,0,0
1,note_on,75,91,2
1,note_on,63,77,0
1,note_on,68,77,0
1,note_on,68,0,475
1,note_on,63,0,0
1,note_on,75,0,0
1,note_on,68,74,5
1,note_on,75,88,0
1,note_on,63,74,0
1,note_on,63,0,713
1,note_on,75,0,0
1,note_on,68,0,0
1,note_on,60,68,7
1,note_on,72,80,0
1,note_on,63,68,0
1,note_on,63,0,238
1,note_on,72,0,0
1,note_on,60,0,0
1,note_on,72,91,2
1,note_on,63,77,0
1,note_on,60,77,0
1,note_on,60,0,475
1,note_on,63,0,0
1,note_on,72,0,0
1,note_on,63,73,5
1,note_on,60,73,0
1,note_on,72,86,0
1,note_on,72,0,713
1,note_on,60,0,0
1,note_on,63,0,0
1,note_on,65,67,7
1,note_on,60,67,0
1,note_on,68,79,0
1,note_on,68,0,238
1,note_on,60,0,0
1,note_on,65,0,0
1,note_on,65,67,2
1,note_on,68,79,0
1,note_on,60,67,0
1,note_on,60,0,360
1,note_on,68,0,0
1,note_on,65,0,0
1,note_on,61,68,120
1,note_on,70,80,0
1,note_on,63,68,0
1,note_on,63,0,360
1,note_on,70,0,0
1,note_on,61,0,0
1,note_on,61,68,120
1,note_on,67,68,0
1,note_on,63,68,0
1,note_on,73,80,0
1,note_on,70,68,0
1,note_on,70,0,360
1,note_on,63,0,0
1,note_on,61,0,0
1,note_on,67,0,0
1,note_on,73,0,0
1,note_on,60,68,120
1,note_on,63,68,0
1,note_on,68,80,0
1,note_on,72,80,0
1,note_on,72,0,1200
1,note_on,60,0,0
1,note_on,63,0,0
1,note_on,68,0,0
1,note_on,77,93,0
1,note_on,65,79,0
1,note_on,68,79,0
1,note_on,68,0,238
1,note_on,65,0,0
1,note_on,77,0,0
1,note_on,65,85,2
1,note_on,77,100,0
1,note_on,68,85,0
1,note_on,68,0,475
1,note_on,77,0,0
1,note_on,65,0,0
1,note_on,68,85,5
1,note_on,77,100,0
1,note_on,65,85,0
1,note_on,65,0,713
1,note_on,77,0,0
1,note_on,68,0,0
1,note_on,68,79,7
1,note_on,73,93,0
1,note_on,65,79,0
1,note_on,65,0,238
1,note_on,73,0,0
1,note_on,68,0,0
1,note_on,68,85,2
1,note_on,73,100,0
1,note_on,65,85,0
1,note_on,65,0,475
1,note_on,73,0,0
1,note_on,68,0,0
1,note_on,68,85,5
1,note_on,73,100,0
1,note_on,65,85,0
1,note_on,65,0,713
1,note_on,73,0,0
1,note_on,68,0,0
1,note_on,68,93,7
1,note_on,65,79,0
1,note_on,65,0,238
1,note_on,68,0,0
1,note_on,65,84,2
1,note_on,68,99,0
1,note_on,68,0,360
1,note_on,65,0,0
1,note_on,69,84,120
1,note_on,66,84,0
1,note_on,73,99,0
1,note_on,73,0,360
1,note_on,66,0,0
1,note_on,69,0,0
1,note_on,69,84,120
1,note_on,73,99,0
1,note_on,78,99,0
1,note_on,66,84,0
1,note_on,66,0,360
1,note_on,69,0,0
1,note_on,73,0,0
1,note_on,78,0,0
1,note_on,68,84,120
1,note_on,73,84,0
1,note_on,65,84,0
1,note_on,77,99,0
1,note_on,77,0,1200
1,note_on,68,0,0
1,note_on,73,0,0
1,note_on,65,0,0
1,note_on,66,86,0
1,note_on,73,86,0
1,note_on,78,102,0
1,note_on,78,0,238
1,note_on,73,0,0
1,note_on,66,0,0
1,note_on,73,87,2
1,note_on,78,103,0
1,note_on,66,87,0
1,note_on,66,0,1440
1,note_on,78,0,0
1,note_on,73,0,0
1,note_on,76,61,0
1,note_on,73,51,0
1,note_on,67,51,0
1,note_on,76,0,480
1,note_on,75,61,0
1,note_on,75,0,480
1,note_on,73,0,0
1,note_on,73,60,0
1,note_on,73,0,240
1,note_on,67,0,0
1,note_on,61,57,0
1,note_on,68,68,0
1,note_on,68,0,120
1,note_on,61,0,0
1,note_on,61,57,120
1,note_on,68,68,0
1,note_on,68,0,1200
1,note_on,70,35,0
1,note_on,70,0,60
1,note_on,68,35,0
1,note_on,68,0,60
1,note_on,67,35,0
1,note_on,67,0,60
1,note_on,68,35,0
1,note_on,68,0,60
1,note_on,61,0,0
1,note_on,68,52,0
1,note_on,71,52,120
1,note_on,62,52,0
1,note_on,71,0,360
1,note_on,70,53,0
1,note_on,70,0,480
1,note_on,68,53,0
1,note_on,68,0,480
1,note_on,62,0,0
1,note_on,68,0,0
1,note_on,60,34,0
1,note_on,63,40,0
1,note_on,56,34,0
1,note_on,63,0,475
1,note_on,63,40,5
1,note_on,63,0,960
1,note_on,56,0,0
1,note_on,60,0,0
1,note_on,55,34,0
1,note_on,58,34,0
1,note_on,61,40,0
1,note_on,63,40,0
1,note_on,63,0,475
1,note_on,63,40,5
1,note_on,63,0,475
1,note_on,61,0,5
1,note_on,58,0,0
1,note_on,55,0,0
1,note_on,63,40,0
1,note_on,63,0,475
1,note_on,60,34,5
1,note_on,63,34,0
1,note_on,68,46,0
1,note_on,68,0,475
1,note_on,63,0,0
1,note_on,60,0,0
1,note_on,68,46,5
1,note_on,63,34,0
1,note_on,60,34,0
1,note_on,68,0,720
1,note_on,70,39,0
1,note_on,70,0,240
1,note_on,60,0,0
1,note_on,63,0,0
1,note_on,61,34,0
1,note_on,63,34,0
1,note_on,68,46,0
1,note_on,68,0,475
1,note_on,63,0,0
1,note_on,61,0,0
1,note_on,67,46,5
1,note_on,63,34,0
1,note_on,61,34,0
1,note_on,67,0,720
1,note_on,70,37,0
1,note_on,70,0,240
1,note_on,61,0,0
1,note_on,63,0,0
1,note_on,70,46,0
1,note_on,70,0,475
1,note_on,68,51,5
1,note_on,63,38,0
1,note_on,63,0,475
1,note_on,68,0,0
1,note_on,63,39,5
1,note_on,70,52,0
1,note_on,61,39,0
1,note_on,61,0,475
1,note_on,70,0,0
1,note_on,63,0,0
1,note_on,60,40,5
1,note_on,72,55,0
1,note_on,63,40,0
1,note_on,63,0,960
1,note_on,72,0,0
1,note_on,60,0,0
1,note_on,63,52,0
1,note_on,63,0,475
1,note_on,63,53,5
1,note_on,72,72,0
1,note_on,60,53,0
1,note_on,60,0,475
1,note_on,72,0,0
1,note_on,63,0,0
1,note_on,72,72,5
1,note_on,63,53,0
1,note_on,60,53,0
1,note_on,60,0,720
1,note_on,63,0,0
1,note_on,72,0,0
1,note_on,61,51,0
1,note_on,70,70,0
1,note_on,58,51,0
1,note_on,58,0,238
1,note_on,70,0,0
1,note_on,61,0,0
1,note_on,58,56,2
1,note_on,70,75,0
1,note_on,61,56,0
1,note_on,61,0,475
1,note_on,70,0,0
1,note_on,58,0,0
1,note_on,60,53,5
1,note_on,69,71,0
1,note_on,57,53,0
1,note_on,57,0,720
1,note_on,69,0,0
1,note_on,60,0,0
1,note_on,58,50,0
1,note_on,61,50,0
1,note_on,70,67,0
1,note_on,70,0,238
1,note_on,61,0,0
1,note_on,58,0,0
1,note_on,70,71,2
1,note_on,58,52,0
1,note_on,61,52,0
1,note_on,61,0,480
1,note_on,58,0,0
1,note_on,70,0,0
1,note_on,56,43,0
1,note_on,60,43,0
1,note_on,68,59,0
1,note_on,68,0,480
1,note_on,60,0,0
1,note_on,56,0,0
1,note_on,55,44,0
1,note_on,58,44,0
1,note_on,67,60,0
1,note_on,67,0,432
1,note_on,58,0,0
1,note_on,55,0,0
1,note_on,56,43,48
1,note_on,68,59,0
1,note_on,60,43,0
1,note_on,60,0,960
1,note_on,68,0,0
1,note_on,56,0,0
1,note_on,75,56,0
1,note_on,75,0,475
1,note_on,75,34,5
1,note_on,80,54,0
1,note_on,72,34,0
1,note_on,72,0,475
1,note_on,80,0,0
1,note_on,75,0,0
1,note_on,75,34,5
1,note_on,80,57,0
1,note_on,72,34,0
1,note_on,80,0,720
1,note_on,82,52,0
1,note_on,82,0,240
1,note_on,72,0,0
1,note_on,75,0,0
1,note_on,80,57,0
1,note_on,73,34,0
1,note_on,75,34,0
1,note_on,75,0,475
1,note_on,73,0,0
1,note_on,80,0,0
1,note_on,73,34,5
1,note_on,79,57,0
1,note_on,75,34,0
1,note_on,79,0,720
1,note_on,82,57,0
1,note_on,82,0,238
1,note_on,75,0,2
1,note_on,73,0,0
1,note_on,82,57,0
1,note_on,82,0,475
1,note_on,80,59,5
1,note_on,75,35,0
1,note_on,75,0,475
1,note_on,80,0,0
1,note_on,82,62,5
1,note_on,75,37,0
1,note_on,73,37,0
1,note_on,73,0,475
1,note_on,75,0,0
1,note_on,82,0,0
1,note_on,75,40,5
1,note_on,72,40,0
1,note_on,84,66,0
1,note_on,84,0,960
1,note_on,72,0,0
1,note_on,75,0,0
1,note_on,75,72,0
1,note_on,75,0,475
1,note_on,84,72,5
1,note_on,75,53,0
1,note_on,72,53,0
1,note_on,72,0,475
1,note_on,75,0,0
1,note_on,84,0,0
1,note_on,72,53,5
1,note_on,75,53,0
1,note_on,84,72,0
1,note_on,84,0,720
1,note_on,75,0,0
1,note_on,72,0,0
1,note_on,73,51,0
1,note_on,82,70,0
1,note_on,70,51,0
1,note_on,70,0,238
1,note_on,82,0,0
1,note_on,73,0,0
1,note_on,82,75,2
1,note_on,73,56,0
1,note_on,70,56,0
1,note_on,70,0,475
1,note_on,73,0,0
1,note_on,82,0,0
1,note_on,72,53,5
1,note_on,81,71,0
1,note_on,69,53,0
1,note_on,69,0,720
1,note_on,81,0,0
1,note_on,72,0,0
1,note_on,70,50,0
1,note_on,82,67,0
1,note_on,73,50,0
1,note_on,73,0,238
1,note_on,82,0,0
1,note_on,70,0,0
1,note_on,82,71,2
1,note_on,73,52,0
1,note_on,70,52,0
1,note_on,70,0,475
1,note_on,73,0,0
1,note_on,82,0,0
1,note_on,68,43,5
1,note_on,80,59,0
1,note_on,72,43,0
1,note_on,72,0,475
1,note_on,80,0,0
1,note_on,68,0,0
1,note_on,79,60,5
1,note_on,70,44,0
1,note_on,67,44,0
1,note_on,67,0,432
1,note_on,70,0,0
1,note_on,79,0,0
1,note_on,68,43,48
1,note_on,80,59,0
1,note_on,72,43,0
1,note_on,72,0,960
1,note_on,80,0,0
1,note_on,68,0,0
1,note_on,70,73,240
1,note_on,61,51,0
1,note_on,58,51,0
1,note_on,58,0,238
1,note_on,61,0,0
1,note_on,70,0,0
1,note_on,61,50,2
1,note_on,58,50,0
1,note_on,70,72,0
1,note_on,70,0,480
1,note_on,58,0,0
1,note_on,61,0,0
1,note_on,68,60,0
1,note_on,56,42,0
1,note_on,60,42,0
1,note_on,60,0,480
1,note_on,56,0,0
1,note_on,68,0,0
1,note_on,55,39,0
1,note_on,67,55,0
1,note_on,58,39,0
1,note_on,58,0,432
1,note_on,67,0,0
1,note_on,55,0,0
1,note_on,68,53,48
1,note_on,60,37,0
1,note_on,56,37,0
1,note_on,56,0,1200
1,note_on,60,0,0
1,note_on,68,0,0
1,note_on,61,56,0
1,note_on,73,79,0
1,note_on,70,67,0
1,note_on,70,0,238
1,note_on,61,0,0
1,note_on,73,0,0
1,note_on,61,56,2
1,note_on,70,67,0
1,note_on,73,79,0
1,note_on,73,0,480
1,note_on,70,0,0
1,note_on,61,0,0
1,note_on,68,59,0
1,note_on,60,50,0
1,note_on,72,70,0
1,note_on,72,0,480
1,note_on,60,0,0
1,note_on,68,0,0
1,note_on,58,45,0
1,note_on,67,54,0
1,note_on,70,64,0
1,note_on,70,0,432
1,note_on,67,0,0
1,note_on,58,0,0
1,note_on,56,43,48
1,note_on,68,61,0
1,note_on,68,0,960
1,note_on,56,0,0
2,note_on,51,27,960
2,note_on,51,0,475
2,note_on,51,27,5
2,note_on,44,27,0
2,note_on,51,0,475
2,note_on,51,27,5
2,note_on,51,0,960
2,note_on,44,0,0
2,note_on,51,27,0
2,note_on,46,27,0
2,note_on,51,0,475
2,note_on,51,27,5
2,note_on,51,0,960
2,note_on,46,0,0
2,note_on,51,27,0
2,note_on,48,27,0
2,note_on,51,0,475
2,note_on,51,27,5
2,note_on,51,0,475
2,note_on,48,0,5
2,note_on,43,27,0
2,note_on,51,27,0
2,note_on,51,0,475
2,note_on,43,0,5
2,note_on,44,27,0
2,note_on,51,27,0
2,note_on,51,0,960
2,note_on,44,0,0
2,note_on,51,31,0
2,note_on,51,0,475
2,note_on,44,31,5
2,note_on,51,31,0
2,note_on,51,0,475
2,note_on,51,31,5
2,note_on,51,0,960
2,note_on,44,0,0
2,note_on,51,31,0
2,note_on,49,31,0
2,note_on,51,0,475
2,note_on,51,31,5
2,note_on,51,0,960
2,note_on,49,0,0
2,note_on,51,31,0
2,note_on,48,31,0
2,note_on,51,0,475
2,note_on,51,31,5
2,note_on,51,0,475
2,note_on,48,0,5
2,note_on,43,31,0
2,note_on,51,31,0
2,note_on,51,0,480
2,note_on,43,0,0
2,note_on,44,29,0
2,note_on,51,29,0
2,note_on,51,0,960
2,note_on,44,0,0
2,note_on,51,27,0
2,note_on,51,0,475
2,note_on,44,27,5
2,note_on,51,27,0
2,note_on,51,0,475
2,note_on,51,27,5
2,note_on,51,0,960
2,note_on,44,0,0
2,note_on,46,27,0
2,note_on,51,27,0
2,note_on,51,0,475
2,note_on,51,27,5
2,note_on,51,0,960
2,note_on,46,0,0
2,note_on,51,27,0
2,note_on,48,27,0
2,note_on,51,0,475
2,note_on,51,28,5
2,note_on,51,0,475
2,note_on,48,0,5
2,note_on,43,29,0
2,note_on,51,29,0
2,note_on,51,0,475
2,note_on,43,0,0
2,note_on,44,32,5
2,note_on,51,32,0
2,note_on,51,0,960
2,note_on,44,0,0
2,note_on,51,31,0
2,note_on,51,0,475
2,note_on,44,34,5
2,note_on,51,34,0
2,note_on,51,0,475
2,note_on,51,35,5
2,note_on,51,0,960
2,note_on,44,0,0
2,note_on,43,31,0
2,note_on,48,31,0
2,note_on,48,0,475
2,note_on,48,31,5
2,note_on,48,0,960
2,note_on,43,0,0
2,note_on,48,31,0
2,note_on,41,31,0
2,note_on,48,0,475
2,note_on,48,31,5
2,note_on,48,0,475
2,note_on,41,0,5
2,note_on,51,31,0
2,note_on,39,31,0
2,note_on,39,0,480
2,note_on,51,0,0
2,note_on,44,29,0
2,note_on,51,29,0
2,note_on,51,0,960
2,note_on,44,0,0
2,note_on,51,27,0
2,note_on,51,0,475
2,note_on,44,27,5
2,note_on,51,27,0
2,note_on,51,0,475
2,note_on,51,27,5
2,note_on,51,0,960
2,note_on,44,0,0
2,note_on,46,27,0
2,note_on,51,27,0
2,note_on,51,0,475
2,note_on,51,27,5
2,note_on,51,0,960
2,note_on,46,0,0
2,note_on,51,27,0
2,note_on,48,27,0
2,note_on,51,0,475
2,note_on,51,27,5
2,note_on,48,0,471
2,note_on,51,0,4
2,note_on,51,27,5
2,note_on,43,27,0
2,note_on,43,0,475
2,note_on,51,0,0
2,note_on,44,27,5
2,note_on,51,27,0
2,note_on,51,0,960
2,note_on,44,0,0
2,note_on,51,31,0
2,note_on,51,0,475
2,note_on,51,31,5
2,note_on,44,31,0
2,note_on,51,0,475
2,note_on,51,31,5
2,note_on,51,0,960
2,note_on,44,0,0
2,note_on,51,31,0
2,note_on,49,31,0
2,note_on,51,0,475
2,note_on,51,31,5
2,note_on,51,0,960
2,note_on,49,0,0
2,note_on,48,31,0
2,note_on,51,31,0
2,note_on,51,0,475
2,note_on,51,31,5
2,note_on,51,0,475
2,note_on,48,0,5
2,note_on,43,31,0
2,note_on,51,31,0
2,note_on,51,0,480
2,note_on,43,0,0
2,note_on,44,29,0
2,note_on,51,29,0
2,note_on,51,0,960
2,note_on,44,0,0
2,note_on,51,27,0
2,note_on,51,0,475
2,note_on,51,27,5
2,note_on,44,27,0
2,note_on,51,0,475
2,note_on,51,27,5
2,note_on,51,0,960
2,note_on,44,0,0
2,note_on,51,27,0
2,note_on,46,27,0
2,note_on,51,0,475
2,note_on,51,27,5
2,note_on,51,0,960
2,note_on,46,0,0
2,note_on,51,27,0
2,note_on,48,27,0
2,note_on,51,0,475
2,note_on,51,28,5
2,note_on,51,0,475
2,note_on,48,0,5
2,note_on,43,29,0
2,note_on,51,29,0
2,note_on,51,0,475
2,note_on,43,0,0
2,note_on,51,32,5
2,note_on,44,32,0
2,note_on,44,0,960
2,note_on,51,0,0
2,note_on,51,31,0
2,note_on,51,0,475
2,note_on,51,34,5
2,note_on,44,34,0
2,note_on,51,0,475
2,note_on,51,35,5
2,note_on,51,0,960
2,note_on,44,0,0
2,note_on,43,31,0
2,note_on,48,31,0
2,note_on,48,0,475
2,note_on,48,31,5
2,note_on,48,0,960
2,note_on,43,0,0
2,note_on,41,31,0
2,note_on,48,31,0
2,note_on,48,0,480
2,note_on,48,31,0
2,note_on,48,0,480
2,note_on,41,0,0
2,note_on,51,31,0
2,note_on,39,31,0
2,note_on,39,0,480
2,note_on,51,0,0
2,note_on,44,28,0
2,note_on,51,28,0
2,note_on,51,0,960
2,note_on,44,0,0
2,note_on,56,54,240
2,note_on,60,64,0
2,note_on,48,54,0
2,note_on,48,0,238
2,note_on,60,0,0
2,note_on,56,0,0
2,note_on,60,73,2
2,note_on,48,62,0
2,note_on,56,62,0
2,note_on,56,0,475
2,note_on,48,0,0
2,note_on,60,0,0
2,note_on,56,59,5
2,note_on,60,70,0
2,note_on,48,59,0
2,note_on,48,0,713
2,note_on,60,0,0
2,note_on,56,0,0
2,note_on,56,64,7
2,note_on,51,54,0
2,note_on,44,54,0
2,note_on,44,0,238
2,note_on,51,0,0
2,note_on,56,0,0
2,note_on,44,61,2
2,note_on,51,61,0
2,note_on,56,72,0
2,note_on,56,0,475
2,note_on,51,0,0
2,note_on,44,0,0
2,note_on,56,70,5
2,note_on,51,59,0
2,note_on,44,59,0
2,note_on,44,0,713
2,note_on,51,0,0
2,note_on,56,0,0
2,note_on,41,54,7
2,note_on,53,64,0
2,note_on,53,0,240
2,note_on,41,0,0
2,note_on,41,54,0
2,note_on,53,64,0
2,note_on,53,0,360
2,note_on,41,0,0
2,note_on,55,64,120
2,note_on,43,54,0
2,note_on,43,0,360
2,note_on,55,0,0
2,note_on,39,54,120
2,note_on,51,64,0
2,note_on,51,0,360
2,note_on,39,0,0
2,note_on,56,64,120
2,note_on,44,54,0
2,note_on,51,54,0
2,note_on,51,0,1200
2,note_on,44,0,0
2,note_on,56,0,0
2,note_on,44,68,0
2,note_on,37,68,0
2,note_on,49,80,0
2,note_on,49,0,238
2,note_on,37,0,0
2,note_on,44,0,0
2,note_on,44,68,2
2,note_on,37,68,0
2,note_on,49,80,0
2,note_on,49,0,475
2,note_on,37,0,0
2,note_on,44,0,0
2,note_on,37,68,5
2,note_on,44,68,0
2,note_on,49,80,0
2,note_on,49,0,713
2,note_on,44,0,0
2,note_on,37,0,0
2,note_on,37,68,7
2,note_on,49,80,0
2,note_on,44,68,0
2,note_on,44,0,238
2,note_on,49,0,0
2,note_on,37,0,0
2,note_on,44,68,2
2,note_on,37,68,0
2,note_on,49,80,0
2,note_on,49,0,475
2,note_on,37,0,0
2,note_on,44,0,0
2,note_on,49,80,5
2,note_on,44,68,0
2,note_on,37,68,0
2,note_on,37,0,713
2,note_on,44,0,0
2,note_on,49,0,0
2,note_on,49,80,7
2,note_on,37,68,0
2,note_on,37,0,238
2,note_on,49,0,0
2,note_on,37,68,2
2,note_on,49,80,0
2,note_on,49,0,360
2,note_on,37,0,0
2,note_on,45,80,120
2,note_on,33,68,0
2,note_on,33,0,360
2,note_on,45,0,0
2,note_on,30,68,120
2,note_on,42,80,0
2,note_on,42,0,360
2,note_on,30,0,0
2,note_on,37,68,120
2,note_on,49,80,0
2,note_on,49,0,1200
2,note_on,37,0,0
2,note_on,45,80,0
2,note_on,33,68,0
2,note_on,33,0,238
2,note_on,45,0,0
2,note_on,45,80,2
2,note_on,33,68,0
2,note_on,33,0,2640
2,note_on,45,0,0
2,note_on,52,54,0
2,note_on,40,45,0
2,note_on,40,0,120
2,note_on,52,0,0
2,note_on,52,54,120
2,note_on,40,45,0
2,note_on,40,0,2880
2,note_on,52,0,0
2,note_on,51,27,0
2,note_on,39,27,0
2,note_on,51,0,475
2,note_on,51,27,5
2,note_on,51,0,960
2,note_on,39,0,0
2,note_on,39,27,0
2,note_on,51,27,0
2,note_on,51,0,475
2,note_on,51,27,5
2,note_on,51,0,475
2,note_on,39,0,5
2,note_on,51,27,0
2,note_on,51,0,475
2,note_on,51,27,5
2,note_on,44,27,0
2,note_on,51,0,475
2,note_on,51,27,5
2,note_on,51,0,960
2,note_on,44,0,0
2,note_on,46,27,0
2,note_on,51,27,0
2,note_on,51,0,475
2,note_on,51,27,5
2,note_on,51,0,960
2,note_on,46,0,0
2,note_on,51,27,0
2,note_on,48,27,0
2,note_on,51,0,475
2,note_on,51,27,5
2,note_on,51,0,475
2,note_on,48,0,5
2,note_on,51,27,0
2,note_on,43,27,0
2,note_on,43,0,475
2,note_on,51,0,0
2,note_on,51,27,5
2,note_on,44,27,0
2,note_on,44,0,960
2,note_on,51,0,0
2,note_on,51,29,0
2,note_on,51,0,475
2,note_on,51,36,5
2,note_on,42,36,0
2,note_on,51,0,475
2,note_on,51,37,5
2,note_on,51,0,960
2,note_on,42,0,0
2,note_on,41,37,0
2,note_on,51,37,0
2,note_on,51,0,475
2,note_on,51,35,5
2,note_on,51,0,720
2,note_on,41,0,0
2,note_on,40,35,0
2,note_on,49,35,0
2,note_on,49,0,238
2,note_on,40,0,0
2,note_on,40,35,2
2,note_on,49,35,0
2,note_on,49,0,480
2,note_on,40,0,0
2,note_on,51,29,0
2,note_on,39,28,0
2,note_on,39,0,480
2,note_on,51,0,0
2,note_on,51,30,0
2,note_on,49,30,0
2,note_on,39,30,0
2,note_on,39,0,432
2,note_on,49,0,0
2,note_on,51,0,0
2,note_on,48,28,48
2,note_on,51,28,0
2,note_on,44,28,0
2,note_on,44,0,960
2,note_on,51,0,0
2,note_on,48,0,0
2,note_on,51,27,0
2,note_on,51,0,475
2,note_on,51,27,5
2,note_on,44,27,0
2,note_on,51,0,475
2,note_on,51,27,5
2,note_on,51,0,960
2,note_on,44,0,0
2,note_on,51,27,0
2,note_on,46,27,0
2,note_on,51,0,475
2,note_on,51,27,5
2,note_on,51,0,960
2,note_on,46,0,0
2,note_on,51,27,0
2,note_on,48,27,0
2,note_on,51,0,475
2,note_on,51,28,5
2,note_on,51,0,475
2,note_on,48,0,5
2,note_on,43,29,0
2,note_on,51,29,0
2,note_on,51,0,475
2,note_on,43,0,0
2,note_on,44,32,5
2,note_on,51,32,0
2,note_on,51,0,960
2,note_on,44,0,0
2,note_on,51,37,0
2,note_on,51,0,475
2,note_on,51,36,5
2,note_on,42,36,0
2,note_on,51,0,475
2,note_on,51,37,5
2,note_on,51,0,960
2,note_on,42,0,0
2,note_on,41,37,0
2,note_on,51,37,0
2,note_on,51,0,475
2,note_on,51,35,5
2,note_on,51,0,713
2,note_on,41,0,7
2,note_on,49,35,0
2,note_on,40,35,0
2,note_on,40,0,238
2,note_on,49,0,0
2,note_on,49,35,2
2,note_on,40,35,0
2,note_on,40,0,475
2,note_on,49,0,0
2,note_on,51,29,5
2,note_on,39,28,0
2,note_on,39,0,475
2,note_on,51,0,0
2,note_on,51,30,5
2,note_on,49,30,0
2,note_on,39,30,0
2,note_on,39,0,432
2,note_on,49,0,0
2,note_on,51,0,0
2,note_on,48,28,48
2,note_on,51,28,0
2,note_on,44,28,0
2,note_on,44,0,960
2,note_on,51,0,0
2,note_on,48,0,0
2,note_on,56,54,240
2,note_on,60,64,0
2,note_on,48,54,0
2,note_on,48,0,238
2,note_on,60,0,0
2,note_on,56,0,0
2,note_on,56,62,2
2,note_on,48,62,0
2,note_on,60,73,0
2,note_on,60,0,475
2,note_on,48,0,0
2,note_on,56,0,0
2,note_on,48,59,5
2,note_on,56,59,0
2,note_on,60,70,0
2,note_on,60,0,713
2,note_on,56,0,0
2,note_on,48,0,0
2,note_on,51,54,7
2,note_on,44,54,0
2,note_on,56,64,0
2,note_on,56,0,238
2,note_on,44,0,0
2,note_on,51,0,0
2,note_on,51,61,2
2,note_on,56,72,0
2,note_on,44,61,0
2,note_on,44,0,475
2,note_on,56,0,0
2,note_on,51,0,0
2,note_on,51,59,5
2,note_on,56,70,0
2,note_on,44,59,0
2,note_on,44,0,713
2,note_on,56,0,0
2,note_on,51,0,0
2,note_on,41,54,7
2,note_on,53,64,0
2,note_on,53,0,238
2,note_on,41,0,0
2,note_on,41,54,2
2,note_on,53,64,0
2,note_on,53,0,360
2,note_on,41,0,0
2,note_on,55,64,120
2,note_on,43,54,0
2,note_on,43,0,360
2,note_on,55,0,0
2,note_on,39,54,120
2,note_on,51,64,0
2,note_on,51,0,360
2,note_on,39,0,0
2,note_on,51,54,120
2,note_on,56,64,0
2,note_on,44,54,0
2,note_on,44,0,1200
2,note_on,56,0,0
2,note_on,51,0,0
2,note_on,37,68,0
2,note_on,44,68,0
2,note_on,49,80,0
2,note_on,49,0,238
2,note_on,44,0,0
2,note_on,37,0,0
2,note_on,37,68,2
2,note_on,49,80,0
2,note_on,44,68,0
2,note_on,44,0,475
2,note_on,49,0,0
2,note_on,37,0,0
2,note_on,49,80,5
2,note_on,37,68,0
2,note_on,44,68,0
2,note_on,44,0,713
2,note_on,37,0,0
2,note_on,49,0,0
2,note_on,44,68,7
2,note_on,49,80,0
2,note_on,37,68,0
2,note_on,37,0,238
2,note_on,49,0,0
2,note_on,44,0,0
2,note_on,44,68,2
2,note_on,49,80,0
2,note_on,37,68,0
2,note_on,37,0,475
2,note_on,49,0,0
2,note_on,44,0,0
2,note_on,44,68,5
2,note_on,49,80,0
2,note_on,37,68,0
2,note_on,37,0,713
2,note_on,49,0,0
2,note_on,44,0,0
2,note_on,37,68,7
2,note_on,49,80,0
2,note_on,49,0,238
2,note_on,37,0,0
2,note_on,49,80,2
2,note_on,37,68,0
2,note_on,37,0,360
2,note_on,49,0,0
2,note_on,45,80,120
2,note_on,33,68,0
2,note_on,33,0,360
2,note_on,45,0,0
2,note_on,42,80,120
2,note_on,30,68,0
2,note_on,30,0,360
2,note_on,42,0,0
2,note_on,37,68,120
2,note_on,49,80,0
2,note_on,49,0,1200
2,note_on,37,0,0
2,note_on,33,68,0
2,note_on,45,80,0
2,note_on,45,0,238
2,note_on,33,0,0
2,note_on,45,80,2
2,note_on,33,68,0
2,note_on,33,0,2640
2,note_on,45,0,0
2,note_on,52,54,0
2,note_on,40,45,0
2,note_on,40,0,120
2,note_on,52,0,0
2,note_on,40,45,120
2,note_on,52,54,0
2,note_on,52,0,2880
2,note_on,40,0,0
2,note_on,51,27,0
2,note_on,39,27,0
2,note_on,51,0,475
2,note_on,51,27,5
2,note_on,51,0,960
2,note_on,39,0,0
2,note_on,51,27,0
2,note_on,39,27,0
2,note_on,51,0,475
2,note_on,51,27,5
2,note_on,51,0,475
2,note_on,39,0,5
2,note_on,51,27,0
2,note_on,51,0,475
2,note_on,44,27,5
2,note_on,51,27,0
2,note_on,51,0,475
2,note_on,51,27,5
2,note_on,51,0,960
2,note_on,44,0,0
2,note_on,51,27,0
2,note_on,46,27,0
2,note_on,51,0,475
2,note_on,51,27,5
2,note_on,51,0,960
2,note_on,46,0,0
2,note_on,51,27,0
2,note_on,48,27,0
2,note_on,51,0,475
2,note_on,51,27,5
2,note_on,48,0,471
2,note_on,51,0,4
2,note_on,51,27,5
2,note_on,43,27,0
2,note_on,43,0,475
2,note_on,51,0,0
2,note_on,51,27,5
2,note_on,44,27,0
2,note_on,44,0,960
2,note_on,51,0,0
2,note_on,51,29,0
2,note_on,51,0,475
2,note_on,51,36,5
2,note_on,42,36,0
2,note_on,51,0,475
2,note_on,51,37,5
2,note_on,51,0,960
2,note_on,42,0,0
2,note_on,51,37,0
2,note_on,41,37,0
2,note_on,51,0,475
2,note_on,51,35,5
2,note_on,51,0,720
2,note_on,41,0,0
2,note_on,40,35,0
2,note_on,49,35,0
2,note_on,49,0,238
2,note_on,40,0,0
2,note_on,49,35,2
2,note_on,40,35,0
2,note_on,40,0,475
2,note_on,49,0,0
2,note_on,39,28,5
2,note_on,51,29,0
2,note_on,51,0,475
2,note_on,39,0,0
2,note_on,39,30,5
2,note_on,49,30,0
2,note_on,51,30,0
2,note_on,51,0,432
2,note_on,49,0,0
2,note_on,39,0,0
2,note_on,51,28,48
2,note_on,48,28,0
2,note_on,44,28,0
2,note_on,44,0,960
2,note_on,48,0,0
2,note_on,51,0,0
2,note_on,51,27,0
2,note_on,51,0,475
2,note_on,44,27,5
2,note_on,51,27,0
2,note_on,51,0,475
2,note_on,51,27,5
2,note_on,51,0,960
2,note_on,44,0,0
2,note_on,46,27,0
2,note_on,51,27,0
2,note_on,51,0,475
2,note_on,51,27,5
2,note_on,51,0,960
2,note_on,46,0,0
2,note_on,48,27,0
2,note_on,51,27,0
2,note_on,51,0,475
2,note_on,51,28,5
2,note_on,51,0,475
2,note_on,48,0,5
2,note_on,43,29,0
2,note_on,51,29,0
2,note_on,51,0,475
2,note_on,43,0,0
2,note_on,44,32,5
2,note_on,51,32,0
2,note_on,51,0,960
2,note_on,44,0,0
2,note_on,51,37,0
2,note_on,51,0,475
2,note_on,51,36,5
2,note_on,42,36,0
2,note_on,51,0,475
2,note_on,51,37,5
2,note_on,51,0,960
2,note_on,42,0,0
2,note_on,41,37,0
2,note_on,51,37,0
2,note_on,51,0,475
2,note_on,51,35,5
2,note_on,51,0,720
2,note_on,41,0,0
2,note_on,40,36,0
2,note_on,49,36,0
2,note_on,49,0,238
2,note_on,40,0,0
2,note_on,49,35,2
2,note_on,40,35,0
2,note_on,40,0,480
2,note_on,49,0,0
2,note_on,51,29,0
2,note_on,39,28,0
2,note_on,39,0,480
2,note_on,51,0,0
2,note_on,51,30,0
2,note_on,49,30,0
2,note_on,39,30,0
2,note_on,39,0,432
2,note_on,49,0,0
2,note_on,51,0,0
2,note_on,48,29,48
2,note_on,51,29,0
2,note_on,44,29,0
2,note_on,44,0,960
2,note_on,51,0,0
2,note_on,48,0,0
2,note_on,44,51,0
2,note_on,44,0,480
2,note_on,37,51,0
2,note_on,44,60,480
2,note_on,37,0,960
2,note_on,41,51,0
2,note_on,44,0,480
2,note_on,44,61,0
2,note_on,41,0,960
2,note_on,36,52,0
2,note_on,44,0,480
2,note_on,44,59,0
2,note_on,36,0,960
2,note_on,32,52,0
2,note_on,44,0,480
2,note_on,44,59,0
2,note_on,32,0,960
2,note_on,37,51,0
2,note_on,44,0,480
2,note_on,44,60,0
2,note_on,37,0,960
2,note_on,41,51,0
2,note_on,44,0,480
2,note_on,44,61,0
2,note_on,41,0,960
2,note_on,36,52,0
2,note_on,44,0,480
2,note_on,44,59,0
2,note_on,36,0,960
2,note_on,32,52,0
2,note_on,44,0,480
2,note_on,44,59,0
2,note_on,44,0,960
2,note_on,32,0,0
2,note_on,34,51,0
2,note_on,46,49,480
2,note_on,46,0,960
2,note_on,34,0,0
2,note_on,39,44,0
2,note_on,51,41,480
2,note_on,51,0,480
2,note_on,39,0,0
2,note_on,54,39,0
2,note_on,42,39,0
2,note_on,42,0,480
2,note_on,54,0,0
2,note_on,44,36,0
2,note_on,56,34,480
2,note_on,44,0,960
2,note_on,49,34,0
2,note_on,49,0,960
2,note_on,56,0,0
2,note_on,37,51,0
2,note_on,44,60,480
2,note_on,37,0,960
2,note_on,41,51,0
2,note_on,44,0,480
2,note_on,44,61,0
2,note_on,41,0,960
2,note_on,36,52,0
2,note_on,44,0,480
2,note_on,44,59,0
2,note_on,36,0,960
2,note_on,32,52,0
2,note_on,44,0,480
2,note_on,44,59,0
2,note_on,32,0,960
2,note_on,37,51,0
2,note_on,44,0,480
2,note_on,44,60,0
2,note_on,37,0,960
2,note_on,41,51,0
2,note_on,44,0,480
2,note_on,44,61,0
2,note_on,41,0,960
2,note_on,36,52,0
2,note_on,44,0,480
2,note_on,44,59,0
2,note_on,36,0,960
2,note_on,32,52,0
2,note_on,44,0,480
2,note_on,44,59,0
2,note_on,44,0,960
2,note_on,32,0,0
2,note_on,34,51,0
2,note_on,46,49,480
2,note_on,46,0,960
2,note_on,34,0,0
2,note_on,39,44,0
2,note_on,51,41,480
2,note_on,51,0,480
2,note_on,39,0,0
2,note_on,42,39,0
2,note_on,54,39,0
2,note_on,54,0,480
2,note_on,42,0,0
2,note_on,44,36,0
2,note_on,56,34,480
2,note_on,44,0,960
2,note_on,49,34,0
2,note_on,49,0,960
2,note_on,56,0,0
2,note_on,37,73,480
2,note_on,44,85,480
2,note_on,37,0,960
2,note_on,40,73,0
2,note_on,44,0,480
2,note_on,44,86,0
2,note_on,40,0,960
2,note_on,36,74,0
2,note_on,44,0,480
2,note_on,44,84,0
2,note_on,36,0,960
2,note_on,32,74,0
2,note_on,44,0,480
2,note_on,44,84,0
2,note_on,32,0,960
2,note_on,37,73,0
2,note_on,44,0,480
2,note_on,44,85,0
2,note_on,37,0,960
2,note_on,40,73,0
2,note_on,44,0,480
2,note_on,44,86,0
2,note_on,40,0,960
2,note_on,32,74,0
2,note_on,44,0,480
2,note_on,44,84,0
2,note_on,32,0,960
2,note_on,37,73,0
2,note_on,44,0,480
2,note_on,44,87,0
2,note_on,44,0,960
2,note_on,37,0,0
2,note_on,30,87,0
2,note_on,42,92,480
2,note_on,42,0,960
2,note_on,30,0,0
2,note_on,40,94,0
2,note_on,52,99,480
2,note_on,52,0,960
2,note_on,40,0,0
2,note_on,45,102,0
2,note_on,40,86,0
2,note_on,33,86,0
2,note_on,33,0,240
2,note_on,40,0,0
2,note_on,45,0,0
2,note_on,33,90,240
2,note_on,40,90,0
2,note_on,45,107,0
2,note_on,45,0,960
2,note_on,40,0,0
2,note_on,33,0,0
2,note_on,45,102,0
2,note_on,33,86,0
2,note_on,40,86,0
2,note_on,40,0,240
2,note_on,33,0,0
2,note_on,45,0,0
2,note_on,33,92,240
2,note_on,45,109,0
2,note_on,40,92,0
2,note_on,40,0,960
2,note_on,45,0,0
2,note_on,33,0,0
2,note_on,33,86,0
2,note_on,45,102,0
2,note_on,40,86,0
2,note_on,40,0,240
2,note_on,45,0,0
2,note_on,33,0,0
2,note_on,40,91,240
2,note_on,45,108,0
2,note_on,33,91,0
2,note_on,33,0,960
2,note_on,45,0,0
2,note_on,40,0,0
2,note_on,33,86,0
2,note_on,45,102,0
2,note_on,40,86,0
2,note_on,40,0,240
2,note_on,45,0,0
2,note_on,33,0,0
2,note_on,40,92,240
2,note_on,45,109,0
2,note_on,33,92,0
2,note_on,33,0,1440
2,note_on,45,0,0
2,note_on,40,0,0
2,note_on,45,84,0
2,note_on,40,71,0
2,note_on,33,71,0
2,note_on,33,0,480
2,note_on,40,0,0
2,note_on,45,0,0
2,note_on,45,86,0
2,note_on,33,73,0
2,note_on,40,73,0
2,note_on,40,0,480
2,note_on,33,0,0
2,note_on,45,0,0
2,note_on,40,68,0
2,note_on,45,80,0
2,note_on,33,68,0
2,note_on,33,0,480
2,note_on,45,0,0
2,note_on,40,0,0
2,note_on,33,64,0
2,note_on,40,64,0
2,note_on,45,76,0
2,note_on,45,0,480
2,note_on,40,0,0
2,note_on,33,0,0
2,note_on,40,61,0
2,note_on,33,61,0
2,note_on,45,72,0
2,note_on,45,0,480
2,note_on,33,0,0
2,note_on,40,0,0
2,note_on,33,68,0
2,note_on,33,0,1440
2,note_on,30,38,0
2,note_on,30,0,80
2,note_on,32,33,0
2,note_on,30,38,80
2,note_on,32,0,0
2,note_on,32,32,79
2,note_on,30,0,1
2,note_on,32,0,79
2,note_on,30,38,0
2,note_on,30,0,80
2,note_on,32,33,0
2,note_on,32,0,80
2,note_on,30,38,0
2,note_on,32,34,79
2,note_on,30,0,1
2,note_on,32,0,79
2,note_on,30,38,1
2,note_on,32,34,79
2,note_on,30,0,1
2,note_on,32,0,79
2,note_on,30,38,0
2,note_on,30,0,80
2,note_on,32,34,0
2,note_on,32,0,80
2,note_on,30,38,2
2,note_on,30,0,96
2,note_on,32,34,0
2,note_on,32,0,96
2,note_on,30,38,0
2,note_on,30,0,96
2,note_on,29,35,0
2,note_on,29,0,96
2,note_on,30,35,0
2,note_on,30,0,96
2,note_on,32,43,0
2,note_on,32,0,2880
2,note_on,37,51,0
2,note_on,44,60,480
2,note_on,37,0,960
2,note_on,41,51,0
2,note_on,44,0,480
2,note_on,44,61,0
2,note_on,41,0,960
2,note_on,36,52,0
2,note_on,44,0,480
2,note_on,44,59,0
2,note_on,36,0,960
2,note_on,32,52,0
2,note_on,44,0,480
2,note_on,44,59,0
2,note_on,32,0,960
2,note_on,37,51,0
2,note_on,44,0,480
2,note_on,44,60,0
2,note_on,37,0,960
2,note_on,41,51,0
2,note_on,44,0,480
2,note_on,44,61,0
2,note_on,41,0,960
2,note_on,36,52,0
2,note_on,44,0,480
2,note_on,44,59,0
2,note_on,36,0,960
2,note_on,32,52,0
2,note_on,44,0,480
2,note_on,44,59,0
2,note_on,44,0,960
2,note_on,32,0,0
2,note_on,34,51,0
2,note_on,46,49,480
2,note_on,46,0,960
2,note_on,34,0,0
2,note_on,39,44,0
2,note_on,51,41,480
2,note_on,51,0,480
2,note_on,39,0,0
2,note_on,42,39,0
2,note_on,54,39,0
2,note_on,54,0,480
2,note_on,42,0,0
2,note_on,44,36,0
2,note_on,56,34,480
2,note_on,44,0,960
2,note_on,49,34,0
2,note_on,49,0,960
2,note_on,56,0,0
2,note_on,37,73,480
2,note_on,44,85,480
2,note_on,37,0,960
2,note_on,40,73,0
2,note_on,44,0,480
2,note_on,44,86,0
2,note_on,40,0,960
2,note_on,36,74,0
2,note_on,44,0,480
2,note_on,44,84,0
2,note_on,36,0,960
2,note_on,32,74,0
2,note_on,44,0,480
2,note_on,44,84,0
2,note_on,32,0,960
2,note_on,37,73,0
2,note_on,44,0,480
2,note_on,44,85,0
2,note_on,37,0,960
2,note_on,40,73,0
2,note_on,44,0,480
2,note_on,44,86,0
2,note_on,40,0,960
2,note_on,32,74,0
2,note_on,44,0,480
2,note_on,44,84,0
2,note_on,32,0,960
2,note_on,37,73,0
2,note_on,44,0,480
2,note_on,44,87,0
2,note_on,44,0,960
2,note_on,37,0,0
2,note_on,30,87,0
2,note_on,42,92,480
2,note_on,42,0,960
2,note_on,30,0,0
2,note_on,40,94,0
2,note_on,52,99,480
2,note_on,52,0,960
2,note_on,40,0,0
2,note_on,33,86,0
2,note_on,45,102,0
2,note_on,40,86,0
2,note_on,40,0,240
2,note_on,45,0,0
2,note_on,33,0,0
2,note_on,45,107,240
2,note_on,33,90,0
2,note_on,40,90,0
2,note_on,40,0,960
2,note_on,33,0,0
2,note_on,45,0,0
2,note_on,40,86,0
2,note_on,45,102,0
2,note_on,33,86,0
2,note_on,33,0,240
2,note_on,45,0,0
2,note_on,40,0,0
2,note_on,40,92,240
2,note_on,33,92,0
2,note_on,45,109,0
2,note_on,45,0,960
2,note_on,33,0,0
2,note_on,40,0,0
2,note_on,40,86,0
2,note_on,45,102,0
2,note_on,33,86,0
2,note_on,33,0,240
2,note_on,45,0,0
2,note_on,40,0,0
2,note_on,40,91,240
2,note_on,33,91,0
2,note_on,45,108,0
2,note_on,45,0,960
2,note_on,33,0,0
2,note_on,40,0,0
2,note_on,33,86,0
2,note_on,40,86,0
2,note_on,45,102,0
2,note_on,45,0,240
2,note_on,40,0,0
2,note_on,33,0,0
2,note_on,40,92,240
2,note_on,33,92,0
2,note_on,45,109,0
2,note_on,45,0,1440
2,note_on,33,0,0
2,note_on,40,0,0
2,note_on,45,84,0
2,note_on,40,71,0
2,note_on,33,71,0
2,note_on,33,0,480
2,note_on,40,0,0
2,note_on,45,0,0
2,note_on,45,86,0
2,note_on,33,73,0
2,note_on,40,73,0
2,note_on,40,0,480
2,note_on,33,0,0
2,note_on,45,0,0
2,note_on,45,80,0
2,note_on,40,68,0
2,note_on,33,68,0
2,note_on,33,0,480
2,note_on,40,0,0
2,note_on,45,0,0
2,note_on,33,64,0
2,note_on,45,76,0
2,note_on,40,64,0
2,note_on,40,0,480
2,note_on,45,0,0
2,note_on,33,0,0
2,note_on,40,61,0
2,note_on,45,72,0
2,note_on,33,61,0
2,note_on,33,0,480
2,note_on,45,0,0
2,note_on,40,0,0
2,note_on,33,68,0
2,note_on,33,0,1440
2,note_on,30,38,0
2,note_on,30,0,80
2,note_on,32,33,0
2,note_on,30,38,80
2,note_on,32,0,0
2,note_on,32,32,79
2,note_on,30,0,1
2,note_on,32,0,79
2,note_on,30,38,0
2,note_on,30,0,80
2,note_on,32,33,0
2,note_on,32,0,80
2,note_on,30,38,0
2,note_on,32,34,79
2,note_on,30,0,1
2,note_on,32,0,79
2,note_on,30,38,1
2,note_on,32,34,79
2,note_on,30,0,1
2,note_on,32,0,79
2,note_on,30,38,0
2,note_on,30,0,80
2,note_on,32,34,0
2,note_on,32,0,80
2,note_on,30,38,2
2,note_on,30,0,96
2,note_on,32,34,0
2,note_on,32,0,96
2,note_on,30,38,0
2,note_on,30,0,96
2,note_on,29,35,0
2,note_on,29,0,96
2,note_on,30,35,0
2,note_on,30,0,96
2,note_on,32,45,0
2,note_on,32,0,2880
2,note_on,37,51,0
2,note_on,44,60,480
2,note_on,37,0,960
2,note_on,41,51,0
2,note_on,44,0,480
2,note_on,44,61,0
2,note_on,41,0,960
2,note_on,36,52,0
2,note_on,44,0,480
2,note_on,44,59,0
2,note_on,36,0,960
2,note_on,32,52,0
2,note_on,44,0,480
2,note_on,44,59,0
2,note_on,32,0,960
2,note_on,37,51,0
2,note_on,44,0,480
2,note_on,44,60,0
2,note_on,37,0,960
2,note_on,41,51,0
2,note_on,44,0,480
2,note_on,44,61,0
2,note_on,41,0,960
2,note_on,36,52,0
2,note_on,44,0,480
2,note_on,44,59,0
2,note_on,36,0,960
2,note_on,32,52,0
2,note_on,44,0,480
2,note_on,44,59,0
2,note_on,44,0,960
2,note_on,32,0,0
2,note_on,34,51,0
2,note_on,46,49,480
2,note_on,46,0,960
2,note_on,34,0,0
2,note_on,39,44,0
2,note_on,51,41,480
2,note_on,51,0,480
2,note_on,39,0,0
2,note_on,42,39,0
2,note_on,54,39,0
2,note_on,54,0,480
2,note_on,42,0,0
2,note_on,44,36,0
2,note_on,56,34,480
2,note_on,44,0,960
2,note_on,49,34,0
2,note_on,49,0,960
2,note_on,56,0,0
2,note_on,44,27,480
2,note_on,37,27,0
2,note_on,49,32,0
2,note_on,49,0,2880
2,note_on,37,0,0
2,note_on,44,0,0
2,note_on,49,31,0
2,note_on,37,26,0
2,note_on,37,0,1440
2,note_on,49,0,0
2,note_on,46,31,0
2,note_on,34,26,0
2,note_on,34,0,1440
2,note_on,46,0,0
2,note_on,39,26,0
2,note_on,43,31,0
2,note_on,31,26,0
2,note_on,31,0,1440
2,note_on,43,0,0
2,note_on,39,0,0
2,note_on,31,26,0
2,note_on,39,26,0
2,note_on,43,31,0
2,note_on,43,0,1440
2,note_on,39,0,0
2,note_on,31,0,0
2,note_on,43,22,0
2,note_on,61,26,0
2,note_on,51,26,0
2,note_on,31,22,0
2,note_on,39,22,0
2,note_on,58,26,0
2,note_on,58,0,960
2,note_on,61,0,0
2,note_on,51,0,0
2,note_on,43,0,0
2,note_on,39,0,0
2,note_on,31,0,0
2,note_on,51,27,0
2,note_on,51,0,3
2,note_on,51,27,5
2,note_on,51,0,475
2,note_on,51,27,5
2,note_on,51,0,475
2,note_on,51,27,5
2,note_on,51,0,475
2,note_on,51,27,5
2,note_on,44,27,0
2,note_on,51,0,475
2,note_on,51,27,5
2,note_on,51,0,960
2,note_on,44,0,0
2,note_on,46,27,0
2,note_on,51,27,0
2,note_on,51,0,475
2,note_on,51,27,5
2,note_on,51,0,960
2,note_on,46,0,0
2,note_on,48,27,0
2,note_on,51,27,0
2,note_on,51,0,475
2,note_on,51,27,5
2,note_on,51,0,475
2,note_on,48,0,5
2,note_on,51,27,0
2,note_on,43,27,0
2,note_on,43,0,475
2,note_on,51,0,0
2,note_on,51,27,5
2,note_on,44,27,0
2,note_on,44,0,960
2,note_on,51,0,0
2,note_on,51,33,0
2,note_on,51,0,475
2,note_on,51,33,5
2,note_on,44,33,0
2,note_on,51,0,475
2,note_on,51,33,5
2,note_on,51,0,960
2,note_on,44,0,0
2,note_on,49,33,0
2,note_on,51,33,0
2,note_on,51,0,475
2,note_on,51,33,5
2,note_on,51,0,960
2,note_on,49,0,0
2,note_on,51,31,0
2,note_on,48,31,0
2,note_on,51,0,475
2,note_on,51,31,5
2,note_on,51,0,475
2,note_on,48,0,5
2,note_on,43,31,0
2,note_on,51,31,0
2,note_on,51,0,480
2,note_on,43,0,0
2,note_on,51,29,0
2,note_on,44,29,0
2,note_on,44,0,960
2,note_on,51,0,0
2,note_on,51,27,0
2,note_on,51,0,475
2,note_on,44,27,5
2,note_on,51,27,0
2,note_on,51,0,475
2,note_on,51,27,5
2,note_on,51,0,960
2,note_on,44,0,0
2,note_on,46,27,0
2,note_on,51,27,0
2,note_on,51,0,475
2,note_on,51,27,5
2,note_on,51,0,480
2,note_on,46,0,480
2,note_on,51,27,0
2,note_on,48,27,0
2,note_on,51,0,475
2,note_on,51,28,5
2,note_on,51,0,475
2,note_on,48,0,5
2,note_on,51,29,0
2,note_on,43,29,0
2,note_on,43,0,475
2,note_on,51,0,0
2,note_on,51,32,5
2,note_on,44,32,0
2,note_on,44,0,960
2,note_on,51,0,0
2,note_on,51,31,0
2,note_on,51,0,475
2,note_on,44,34,5
2,note_on,51,34,0
2,note_on,51,0,475
2,note_on,51,35,5
2,note_on,51,0,960
2,note_on,44,0,0
2,note_on,43,31,0
2,note_on,48,31,0
2,note_on,48,0,475
2,note_on,48,31,5
2,note_on,48,0,960
2,note_on,43,0,0
2,note_on,41,31,0
2,note_on,48,31,0
2,note_on,48,0,475
2,note_on,48,31,5
2,note_on,48,0,475
2,note_on,41,0,5
2,note_on,39,29,0
2,note_on,51,29,0
2,note_on,51,0,480
2,note_on,39,0,0
2,note_on,51,28,0
2,note_on,44,28,0
2,note_on,44,0,960
2,note_on,51,0,0
2,note_on,56,54,240
2,note_on,60,64,0
2,note_on,48,54,0
2,note_on,48,0,238
2,note_on,60,0,0
2,note_on,56,0,0
2,note_on,60,73,2
2,note_on,56,62,0
2,note_on,48,62,0
2,note_on,48,0,475
2,note_on,56,0,0
2,note_on,60,0,0
2,note_on,48,59,5
2,note_on,56,59,0
2,note_on,60,70,0
2,note_on,60,0,713
2,note_on,56,0,0
2,note_on,48,0,0
2,note_on,44,54,7
2,note_on,51,54,0
2,note_on,56,64,0
2,note_on,56,0,238
2,note_on,51,0,0
2,note_on,44,0,0
2,note_on,44,61,2
2,note_on,56,72,0
2,note_on,51,61,0
2,note_on,51,0,475
2,note_on,56,0,0
2,note_on,44,0,0
2,note_on,44,59,5
2,note_on,51,59,0
2,note_on,56,70,0
2,note_on,56,0,713
2,note_on,51,0,0
2,note_on,44,0,0
2,note_on,53,64,7
2,note_on,41,54,0
2,note_on,41,0,238
2,note_on,53,0,0
2,note_on,41,54,2
2,note_on,53,64,0
2,note_on,53,0,360
2,note_on,41,0,0
2,note_on,43,54,120
2,note_on,55,64,0
2,note_on,55,0,360
2,note_on,43,0,0
2,note_on,39,54,120
2,note_on,51,64,0
2,note_on,51,0,360
2,note_on,39,0,0
2,note_on,44,54,120
2,note_on,51,54,0
2,note_on,56,64,0
2,note_on,56,0,1200
2,note_on,51,0,0
2,note_on,44,0,0
2,note_on,37,68,0
2,note_on,44,68,0
2,note_on,49,80,0
2,note_on,49,0,238
2,note_on,44,0,0
2,note_on,37,0,0
2,note_on,49,80,2
2,note_on,44,68,0
2,note_on,37,68,0
2,note_on,37,0,475
2,note_on,44,0,0
2,note_on,49,0,0
2,note_on,44,68,5
2,note_on,37,68,0
2,note_on,49,80,0
2,note_on,49,0,713
2,note_on,37,0,0
2,note_on,44,0,0
2,note_on,49,80,7
2,note_on,37,68,0
2,note_on,44,68,0
2,note_on,44,0,238
2,note_on,37,0,0
2,note_on,49,0,0
2,note_on,49,80,2
2,note_on,44,68,0
2,note_on,37,68,0
2,note_on,37,0,475
2,note_on,44,0,0
2,note_on,49,0,0
2,note_on,37,68,5
2,note_on,44,68,0
2,note_on,49,80,0
2,note_on,49,0,713
2,note_on,44,0,0
2,note_on,37,0,0
2,note_on,37,68,7
2,note_on,49,80,0
2,note_on,49,0,238
2,note_on,37,0,0
2,note_on,49,80,2
2,note_on,37,68,0
2,note_on,37,0,360
2,note_on,49,0,0
2,note_on,33,68,120
2,note_on,45,80,0
2,note_on,45,0,360
2,note_on,33,0,0
2,note_on,42,80,120
2,note_on,30,68,0
2,note_on,30,0,360
2,note_on,42,0,0
2,note_on,49,80,120
2,note_on,37,68,0
2,note_on,37,0,1200
2,note_on,49,0,0
2,note_on,33,68,0
2,note_on,45,80,0
2,note_on,45,0,238
2,note_on,33,0,0
2,note_on,33,68,2
2,note_on,45,80,0
2,note_on,45,0,2640
2,note_on,33,0,0
2,note_on,52,54,0
2,note_on,40,45,0
2,note_on,40,0,120
2,note_on,52,0,0
2,note_on,40,45,120
2,note_on,52,54,0
2,note_on,52,0,2880
2,note_on,40,0,0
2,note_on,39,27,0
2,note_on,51,27,0
2,note_on,51,0,475
2,note_on,51,27,5
2,note_on,51,0,960
2,note_on,39,0,0
2,note_on,51,27,0
2,note_on,39,27,0
2,note_on,51,0,475
2,note_on,51,27,5
2,note_on,51,0,475
2,note_on,39,0,5
2,note_on,51,27,0
2,note_on,51,0,475
2,note_on,44,27,5
2,note_on,51,27,0
2,note_on,51,0,475
2,note_on,51,27,5
2,note_on,51,0,960
2,note_on,44,0,0
2,note_on,51,27,0
2,note_on,46,27,0
2,note_on,51,0,475
2,note_on,51,27,5
2,note_on,51,0,960
2,note_on,46,0,0
2,note_on,48,27,0
2,note_on,51,27,0
2,note_on,51,0,475
2,note_on,51,27,5
2,note_on,48,0,471
2,note_on,51,0,4
2,note_on,51,27,5
2,note_on,43,27,0
2,note_on,43,0,475
2,note_on,51,0,0
2,note_on,44,27,5
2,note_on,51,27,0
2,note_on,51,0,960
2,note_on,44,0,0
2,note_on,51,29,0
2,note_on,51,0,475
2,note_on,51,36,5
2,note_on,42,36,0
2,note_on,51,0,475
2,note_on,51,37,5
2,note_on,51,0,960
2,note_on,42,0,0
2,note_on,51,37,0
2,note_on,41,37,0
2,note_on,51,0,475
2,note_on,51,35,5
2,note_on,51,0,720
2,note_on,41,0,0
2,note_on,49,35,0
2,note_on,40,35,0
2,note_on,40,0,238
2,note_on,49,0,0
2,note_on,40,35,2
2,note_on,49,35,0
2,note_on,49,0,480
2,note_on,40,0,0
2,note_on,39,28,0
2,note_on,51,29,0
2,note_on,51,0,480
2,note_on,39,0,0
2,note_on,39,30,0
2,note_on,49,30,0
2,note_on,51,30,0
2,note_on,51,0,432
2,note_on,49,0,0
2,note_on,39,0,0
2,note_on,51,28,48
2,note_on,44,28,0
2,note_on,48,28,0
2,note_on,48,0,960
2,note_on,44,0,0
2,note_on,51,0,0
2,note_on,51,27,0
2,note_on,51,0,475
2,note_on,44,27,5
2,note_on,51,27,0
2,note_on,51,0,475
2,note_on,51,27,5
2,note_on,51,0,960
2,note_on,44,0,0
2,note_on,46,27,0
2,note_on,51,27,0
2,note_on,51,0,475
2,note_on,51,27,5
2,note_on,51,0,960
2,note_on,46,0,0
2,note_on,51,27,0
2,note_on,48,27,0
2,note_on,51,0,475
2,note_on,51,28,5
2,note_on,51,0,475
2,note_on,48,0,5
2,note_on,43,29,0
2,note_on,51,29,0
2,note_on,51,0,475
2,note_on,43,0,0
2,note_on,44,32,5
2,note_on,51,32,0
2,note_on,51,0,960
2,note_on,44,0,0
2,note_on,51,37,0
2,note_on,51,0,475
2,note_on,51,36,5
2,note_on,42,36,0
2,note_on,51,0,475
2,note_on,51,37,5
2,note_on,51,0,960
2,note_on,42,0,0
2,note_on,41,37,0
2,note_on,51,37,0
2,note_on,51,0,475
2,note_on,51,35,5
2,note_on,51,0,720
2,note_on,41,0,0
2,note_on,40,35,0
2,note_on,49,35,0
2,note_on,49,0,238
2,note_on,40,0,0
2,note_on,49,35,2
2,note_on,40,35,0
2,note_on,40,0,475
2,note_on,49,0,0
2,note_on,39,28,5
2,note_on,51,29,0
2,note_on,51,0,475
2,note_on,39,0,0
2,note_on,39,30,5
2,note_on,51,30,0
2,note_on,49,30,0
2,note_on,49,0,432
2,note_on,51,0,0
2,note_on,39,0,0
2,note_on,51,28,48
2,note_on,48,28,0
2,note_on,44,28,0
2,note_on,44,0,960
2,note_on,48,0,0
2,note_on,51,0,0
2,note_on,40,35,240
2,note_on,49,35,0
2,note_on,49,0,238
2,note_on,40,0,0
2,note_on,49,35,2
2,note_on,40,35,0
2,note_on,40,0,480
2,note_on,49,0,0
2,note_on,39,28,0
2,note_on,51,29,0
2,note_on,51,0,480
2,note_on,39,0,0
2,note_on,49,30,0
2,note_on,51,30,0
2,note_on,39,30,0
2,note_on,39,0,432
2,note_on,51,0,0
2,note_on,49,0,0
2,note_on,51,28,48
2,note_on,44,28,0
2,note_on,48,28,0
2,note_on,48,0,1200
2,note_on,44,0,0
2,note_on,51,0,0
2,note_on,49,35,0
2,note_on,46,35,0
2,note_on,40,35,0
2,note_on,40,0,238
2,note_on,46,0,0
2,note_on,49,0,0
2,note_on,49,35,2
2,note_on,40,35,0
2,note_on,46,35,0
2,note_on,46,0,480
2,note_on,40,0,0
2,note_on,49,0,0
2,note_on,51,28,0
2,note_on,39,27,0
2,note_on,48,27,0
2,note_on,48,0,480
2,note_on,39,0,0
2,note_on,51,0,0
2,note_on,49,29,0
2,note_on,39,29,0
2,note_on,51,29,0
2,note_on,51,0,432
2,note_on,39,0,0
2,note_on,49,0,0
2,note_on,51,28,48
2,note_on,44,28,0
2,note_on,48,28,0
2,note_on,48,0,960
2,note_on,44,0,0
2,note_on,51,0,0
