Track,Message Type,Note,Velocity,Time
1,note_on,60,55,0
1,note_on,60,0,40
1,note_on,65,60,0
1,note_on,65,0,40
1,note_on,68,66,0
1,note_on,68,0,40
1,note_on,72,75,0
1,note_on,72,0,720
1,note_on,70,57,0
1,note_on,70,0,120
1,note_on,68,67,0
1,note_on,68,0,360
1,note_on,70,58,0
1,note_on,70,0,120
1,note_on,67,68,0
1,note_on,67,0,360
1,note_on,68,51,0
1,note_on,68,0,120
1,note_on,65,60,0
1,note_on,65,0,360
1,note_on,66,51,0
1,note_on,66,0,120
1,note_on,63,62,0
1,note_on,63,0,360
1,note_on,65,52,0
1,note_on,65,0,120
1,note_on,61,60,0
1,note_on,61,0,360
1,note_on,63,51,0
1,note_on,63,0,120
1,note_on,60,60,0
1,note_on,60,0,360
1,note_on,61,51,0
1,note_on,61,0,120
1,note_on,58,60,0
1,note_on,58,0,360
1,note_on,60,53,0
1,note_on,60,0,120
1,note_on,56,63,0
1,note_on,56,0,360
1,note_on,58,60,0
1,note_on,58,0,120
1,note_on,54,68,0
1,note_on,54,0,360
1,note_on,56,63,0
1,note_on,56,0,120
1,note_on,53,72,0
1,note_on,53,0,360
1,note_on,55,67,0
1,note_on,55,0,120
1,note_on,52,78,0
1,note_on,52,0,240
1,note_on,73,79,240
1,note_on,67,66,0
1,note_on,70,66,0
1,note_on,70,0,240
1,note_on,67,0,0
1,note_on,73,0,0
1,note_on,72,41,720
1,note_on,72,0,40
1,note_on,73,41,0
1,note_on,73,0,40
1,note_on,75,41,0
1,note_on,75,0,40
1,note_on,73,47,0
1,note_on,73,0,240
1,note_on,72,41,0
1,note_on,72,0,120
1,note_on,72,47,0
1,note_on,72,0,480
1,note_on,77,53,0
1,note_on,77,0,640
1,note_on,67,39,0
1,note_on,67,0,160
1,note_on,70,39,0
1,note_on,70,0,160
1,note_on,73,44,0
1,note_on,73,0,160
1,note_on,70,38,0
1,note_on,70,0,160
1,note_on,67,37,0
1,note_on,67,0,160
1,note_on,65,46,0
1,note_on,65,0,960
1,note_on,64,41,0
1,note_on,64,0,240
1,note_on,78,51,0
1,note_on,78,0,120
1,note_on,79,53,0
1,note_on,79,0,120
1,note_on,80,56,0
1,note_on,80,0,120
1,note_on,81,58,0
1,note_on,81,0,120
1,note_on,82,61,0
1,note_on,82,0,120
1,note_on,83,63,0
1,note_on,83,0,120
1,note_on,72,55,0
1,note_on,72,0,40
1,note_on,77,60,0
1,note_on,77,0,40
1,note_on,80,66,0
1,note_on,80,0,40
1,note_on,84,76,0
1,note_on,84,0,720
1,note_on,82,47,0
1,note_on,82,0,120
1,note_on,80,60,0
1,note_on,80,0,120
1,note_on,82,50,0
1,note_on,82,0,60
1,note_on,80,50,0
1,note_on,80,0,60
1,note_on,79,46,0
1,note_on,79,0,60
1,note_on,80,46,0
1,note_on,80,0,60
1,note_on,82,54,0
1,note_on,82,0,120
1,note_on,79,60,0
1,note_on,79,0,120
1,note_on,80,49,0
1,note_on,80,0,60
1,note_on,79,49,0
1,note_on,79,0,60
1,note_on,77,45,0
1,note_on,77,0,60
1,note_on,79,45,0
1,note_on,79,0,60
1,note_on,80,51,0
1,note_on,80,0,120
1,note_on,77,60,0
1,note_on,77,0,120
1,note_on,79,48,0
1,note_on,79,0,60
1,note_on,77,48,0
1,note_on,77,0,60
1,note_on,76,43,0
1,note_on,76,0,60
1,note_on,77,43,0
1,note_on,77,0,60
1,note_on,78,49,0
1,note_on,78,0,120
1,note_on,75,62,0
1,note_on,75,0,120
1,note_on,77,49,0
1,note_on,77,0,60
1,note_on,75,49,0
1,note_on,75,0,60
1,note_on,74,44,0
1,note_on,74,0,60
1,note_on,75,44,0
1,note_on,75,0,60
1,note_on,77,52,0
1,note_on,77,0,120
1,note_on,73,60,0
1,note_on,73,0,120
1,note_on,75,49,0
1,note_on,75,0,60
1,note_on,73,49,0
1,note_on,73,0,60
1,note_on,72,47,0
1,note_on,72,0,60
1,note_on,73,47,0
1,note_on,73,0,60
1,note_on,75,51,0
1,note_on,75,0,120
1,note_on,72,60,0
1,note_on,72,0,120
1,note_on,73,50,0
1,note_on,73,0,60
1,note_on,72,50,0
1,note_on,72,0,60
1,note_on,71,44,0
1,note_on,71,0,60
1,note_on,72,44,0
1,note_on,72,0,60
1,note_on,73,51,0
1,note_on,73,0,120
1,note_on,70,60,0
1,note_on,70,0,120
1,note_on,73,52,0
1,note_on,73,0,120
1,note_on,70,52,0
1,note_on,70,0,120
1,note_on,73,48,0
1,note_on,73,0,120
1,note_on,68,63,0
1,note_on,68,0,120
1,note_on,73,56,0
1,note_on,73,0,120
1,note_on,68,57,0
1,note_on,68,0,120
1,note_on,73,55,0
1,note_on,73,0,120
1,note_on,66,68,0
1,note_on,66,0,120
1,note_on,73,62,0
1,note_on,73,0,120
1,note_on,66,63,0
1,note_on,66,0,120
1,note_on,73,59,0
1,note_on,73,0,120
1,note_on,65,72,0
1,note_on,65,0,120
1,note_on,73,65,0
1,note_on,73,0,120
1,note_on,65,67,0
1,note_on,65,0,120
1,note_on,73,67,0
1,note_on,73,0,120
1,note_on,64,90,0
1,note_on,64,0,240
1,note_on,82,75,240
1,note_on,85,90,0
1,note_on,79,75,0
1,note_on,79,0,240
1,note_on,85,0,0
1,note_on,82,0,0
1,note_on,72,41,720
1,note_on,72,0,40
1,note_on,73,41,0
1,note_on,73,0,40
1,note_on,75,41,0
1,note_on,75,0,40
1,note_on,73,47,0
1,note_on,73,0,240
1,note_on,72,41,0
1,note_on,72,0,120
1,note_on,72,46,0
1,note_on,72,0,160
1,note_on,80,53,0
1,note_on,80,0,160
1,note_on,79,47,0
1,note_on,79,0,160
1,note_on,77,47,0
1,note_on,77,0,160
1,note_on,72,43,0
1,note_on,72,0,160
1,note_on,68,38,0
1,note_on,68,0,160
1,note_on,67,47,0
1,note_on,67,0,160
1,note_on,75,52,0
1,note_on,75,0,160
1,note_on,72,39,0
1,note_on,72,0,160
1,note_on,73,44,0
1,note_on,73,0,160
1,note_on,70,38,0
1,note_on,70,0,160
1,note_on,67,34,0
1,note_on,67,0,160
1,note_on,65,53,0
1,note_on,65,0,160
1,note_on,60,48,0
1,note_on,60,0,160
1,note_on,65,49,0
1,note_on,65,0,160
1,note_on,68,58,0
1,note_on,68,0,160
1,note_on,65,50,0
1,note_on,65,0,160
1,note_on,73,51,0
1,note_on,73,0,160
1,note_on,72,66,0
1,note_on,72,0,240
1,note_on,76,78,240
1,note_on,67,66,0
1,note_on,72,66,0
1,note_on,72,0,180
1,note_on,67,0,0
1,note_on,76,0,0
1,note_on,77,78,300
1,note_on,68,66,0
1,note_on,72,66,0
1,note_on,72,0,180
1,note_on,68,0,0
1,note_on,77,0,0
1,note_on,68,45,60
1,note_on,68,0,120
1,note_on,72,28,0
1,note_on,72,0,120
1,note_on,68,39,0
1,note_on,68,0,120
1,note_on,72,28,0
1,note_on,72,0,120
1,note_on,68,38,0
1,note_on,68,0,120
1,note_on,72,31,0
1,note_on,72,0,120
1,note_on,67,45,0
1,note_on,67,0,120
1,note_on,71,30,0
1,note_on,71,0,120
1,note_on,68,45,0
1,note_on,68,0,120
1,note_on,72,32,0
1,note_on,72,0,120
1,note_on,68,39,0
1,note_on,68,0,120
1,note_on,72,27,0
1,note_on,72,0,120
1,note_on,68,40,0
1,note_on,68,0,120
1,note_on,72,30,0
1,note_on,72,0,120
1,note_on,69,45,0
1,note_on,69,0,120
1,note_on,75,31,0
1,note_on,75,0,120
1,note_on,70,38,0
1,note_on,70,0,120
1,note_on,73,30,0
1,note_on,73,0,120
1,note_on,70,38,0
1,note_on,70,0,120
1,note_on,73,32,0
1,note_on,73,0,120
1,note_on,70,40,0
1,note_on,70,0,120
1,note_on,73,28,0
1,note_on,73,0,120
1,note_on,73,47,0
1,note_on,73,0,120
1,note_on,77,38,0
1,note_on,77,0,120
1,note_on,70,45,0
1,note_on,70,0,120
1,note_on,73,32,0
1,note_on,73,0,120
1,note_on,68,40,0
1,note_on,68,0,120
1,note_on,73,31,0
1,note_on,73,0,120
1,note_on,67,37,0
1,note_on,67,0,120
1,note_on,73,31,0
1,note_on,73,0,120
1,note_on,68,45,0
1,note_on,68,0,120
1,note_on,73,30,0
1,note_on,73,0,120
1,note_on,68,36,0
1,note_on,68,0,120
1,note_on,72,27,0
1,note_on,72,0,120
1,note_on,68,38,0
1,note_on,68,0,120
1,note_on,72,31,0
1,note_on,72,0,120
1,note_on,68,33,0
1,note_on,68,0,120
1,note_on,72,28,0
1,note_on,72,0,120
1,note_on,68,47,0
1,note_on,68,0,120
1,note_on,72,30,0
1,note_on,72,0,120
1,note_on,66,35,0
1,note_on,66,0,120
1,note_on,70,31,0
1,note_on,70,0,120
1,note_on,66,40,0
1,note_on,66,0,120
1,note_on,70,28,0
1,note_on,70,0,120
1,note_on,66,36,0
1,note_on,66,0,120
1,note_on,70,29,0
1,note_on,70,0,120
1,note_on,66,45,0
1,note_on,66,0,120
1,note_on,70,27,0
1,note_on,70,0,120
1,note_on,65,34,0
1,note_on,65,0,120
1,note_on,68,27,0
1,note_on,68,0,120
1,note_on,65,36,0
1,note_on,65,0,120
1,note_on,68,27,0
1,note_on,68,0,120
1,note_on,65,32,0
1,note_on,65,0,120
1,note_on,68,28,0
1,note_on,68,0,120
1,note_on,65,45,0
1,note_on,65,0,120
1,note_on,68,27,0
1,note_on,68,0,120
1,note_on,64,33,0
1,note_on,64,0,120
1,note_on,67,27,0
1,note_on,67,0,120
1,note_on,64,39,0
1,note_on,64,0,120
1,note_on,67,28,0
1,note_on,67,0,120
1,note_on,64,36,0
1,note_on,64,0,120
1,note_on,67,29,0
1,note_on,67,0,120
1,note_on,65,60,0
1,note_on,65,0,240
1,note_on,68,45,0
1,note_on,68,0,120
1,note_on,72,28,0
1,note_on,72,0,120
1,note_on,68,39,0
1,note_on,68,0,120
1,note_on,72,28,0
1,note_on,72,0,120
1,note_on,68,38,0
1,note_on,68,0,120
1,note_on,72,31,0
1,note_on,72,0,120
1,note_on,67,45,0
1,note_on,67,0,120
1,note_on,71,30,0
1,note_on,71,0,120
1,note_on,68,45,0
1,note_on,68,0,120
1,note_on,72,32,0
1,note_on,72,0,120
1,note_on,68,39,0
1,note_on,68,0,120
1,note_on,72,27,0
1,note_on,72,0,120
1,note_on,68,40,0
1,note_on,68,0,120
1,note_on,72,30,0
1,note_on,72,0,120
1,note_on,69,45,0
1,note_on,69,0,120
1,note_on,75,31,0
1,note_on,75,0,120
1,note_on,70,38,0
1,note_on,70,0,120
1,note_on,73,30,0
1,note_on,73,0,120
1,note_on,70,38,0
1,note_on,70,0,120
1,note_on,73,31,0
1,note_on,73,0,120
1,note_on,70,33,0
1,note_on,70,0,120
1,note_on,73,28,0
1,note_on,73,0,120
1,note_on,73,47,0
1,note_on,73,0,120
1,note_on,77,38,0
1,note_on,77,0,120
1,note_on,70,45,0
1,note_on,70,0,120
1,note_on,73,32,0
1,note_on,73,0,120
1,note_on,68,40,0
1,note_on,68,0,120
1,note_on,73,31,0
1,note_on,73,0,120
1,note_on,67,37,0
1,note_on,67,0,120
1,note_on,73,31,0
1,note_on,73,0,120
1,note_on,68,45,0
1,note_on,68,0,120
1,note_on,73,30,0
1,note_on,73,0,120
1,note_on,68,36,0
1,note_on,68,0,120
1,note_on,72,27,0
1,note_on,72,0,120
1,note_on,68,38,0
1,note_on,68,0,120
1,note_on,72,31,0
1,note_on,72,0,120
1,note_on,68,33,0
1,note_on,68,0,120
1,note_on,72,28,0
1,note_on,72,0,120
1,note_on,72,47,0
1,note_on,72,0,120
1,note_on,75,30,0
1,note_on,75,0,120
1,note_on,65,35,0
1,note_on,65,0,120
1,note_on,70,31,0
1,note_on,70,0,120
1,note_on,73,50,0
1,note_on,73,0,120
1,note_on,77,34,0
1,note_on,77,0,120
1,note_on,75,43,0
1,note_on,75,0,120
1,note_on,73,35,0
1,note_on,73,0,120
1,note_on,70,45,0
1,note_on,70,0,120
1,note_on,73,27,0
1,note_on,73,0,120
1,note_on,63,34,0
1,note_on,63,0,120
1,note_on,68,27,0
1,note_on,68,0,120
1,note_on,72,47,0
1,note_on,72,0,120
1,note_on,75,35,0
1,note_on,75,0,120
1,note_on,73,41,0
1,note_on,73,0,120
1,note_on,72,36,0
1,note_on,72,0,120
1,note_on,69,45,0
1,note_on,69,0,120
1,note_on,72,27,0
1,note_on,72,0,120
1,note_on,63,33,0
1,note_on,63,0,120
1,note_on,67,27,0
1,note_on,67,0,120
1,note_on,70,46,0
1,note_on,70,0,120
1,note_on,73,36,0
1,note_on,73,0,120
1,note_on,72,40,0
1,note_on,72,0,120
1,note_on,70,34,0
1,note_on,70,0,120
1,note_on,68,50,0
1,note_on,68,0,240
1,note_on,68,45,0
1,note_on,68,0,120
1,note_on,72,28,0
1,note_on,72,0,120
1,note_on,68,39,0
1,note_on,68,0,120
1,note_on,72,28,0
1,note_on,72,0,120
1,note_on,68,38,0
1,note_on,68,0,120
1,note_on,72,31,0
1,note_on,72,0,120
1,note_on,71,45,0
1,note_on,71,0,120
1,note_on,74,30,0
1,note_on,74,0,120
1,note_on,72,45,0
1,note_on,72,0,120
1,note_on,75,32,0
1,note_on,75,0,120
1,note_on,72,39,0
1,note_on,72,0,120
1,note_on,75,27,0
1,note_on,75,0,120
1,note_on,72,40,0
1,note_on,72,0,120
1,note_on,75,30,0
1,note_on,75,0,120
1,note_on,72,45,0
1,note_on,72,0,120
1,note_on,75,37,0
1,note_on,75,0,120
1,note_on,73,44,0
1,note_on,73,0,120
1,note_on,76,39,0
1,note_on,76,0,120
1,note_on,79,52,0
1,note_on,79,0,120
1,note_on,82,46,0
1,note_on,82,0,120
1,note_on,72,44,0
1,note_on,72,0,120
1,note_on,75,36,0
1,note_on,75,0,120
1,note_on,73,48,0
1,note_on,73,0,120
1,note_on,76,51,0
1,note_on,76,0,120
1,note_on,79,55,0
1,note_on,79,0,120
1,note_on,82,58,0
1,note_on,82,0,120
1,note_on,80,61,0
1,note_on,80,0,120
1,note_on,79,59,0
1,note_on,79,0,120
1,note_on,77,57,0
1,note_on,77,0,120
1,note_on,79,62,0
1,note_on,79,0,120
1,note_on,80,72,0
1,note_on,80,0,240
1,note_on,68,51,0
1,note_on,68,0,120
1,note_on,72,32,0
1,note_on,72,0,120
1,note_on,68,44,0
1,note_on,68,0,120
1,note_on,72,32,0
1,note_on,72,0,120
1,note_on,68,43,0
1,note_on,68,0,120
1,note_on,72,35,0
1,note_on,72,0,120
1,note_on,71,51,0
1,note_on,71,0,120
1,note_on,74,34,0
1,note_on,74,0,120
1,note_on,72,51,0
1,note_on,72,0,120
1,note_on,75,36,0
1,note_on,75,0,120
1,note_on,72,44,0
1,note_on,72,0,120
1,note_on,75,31,0
1,note_on,75,0,120
1,note_on,72,46,0
1,note_on,72,0,120
1,note_on,75,34,0
1,note_on,75,0,120
1,note_on,74,51,0
1,note_on,74,0,120
1,note_on,77,42,0
1,note_on,77,0,120
1,note_on,75,50,0
1,note_on,75,0,120
1,note_on,78,44,0
1,note_on,78,0,120
1,note_on,81,59,0
1,note_on,81,0,120
1,note_on,84,52,0
1,note_on,84,0,120
1,note_on,74,50,0
1,note_on,74,0,120
1,note_on,77,41,0
1,note_on,77,0,120
1,note_on,75,55,0
1,note_on,75,0,120
1,note_on,78,58,0
1,note_on,78,0,120
1,note_on,81,63,0
1,note_on,81,0,120
1,note_on,84,66,0
1,note_on,84,0,120
1,note_on,82,70,0
1,note_on,82,0,120
1,note_on,81,67,0
1,note_on,81,0,120
1,note_on,79,65,0
1,note_on,79,0,120
1,note_on,81,71,0
1,note_on,81,0,120
1,note_on,82,77,0
1,note_on,82,0,240
1,note_on,73,51,0
1,note_on,73,0,120
1,note_on,77,32,0
1,note_on,77,0,120
1,note_on,73,44,0
1,note_on,73,0,120
1,note_on,77,32,0
1,note_on,77,0,120
1,note_on,73,43,0
1,note_on,73,0,120
1,note_on,77,35,0
1,note_on,77,0,120
1,note_on,72,51,0
1,note_on,72,0,120
1,note_on,76,34,0
1,note_on,76,0,120
1,note_on,73,51,0
1,note_on,73,0,120
1,note_on,77,36,0
1,note_on,77,0,120
1,note_on,73,44,0
1,note_on,73,0,120
1,note_on,77,31,0
1,note_on,77,0,120
1,note_on,73,46,0
1,note_on,73,0,120
1,note_on,77,34,0
1,note_on,77,0,120
1,note_on,82,72,0
1,note_on,82,0,120
1,note_on,73,35,0
1,note_on,73,0,120
1,note_on,76,46,0
1,note_on,76,0,120
1,note_on,73,32,0
1,note_on,73,0,120
1,note_on,75,44,0
1,note_on,75,0,120
1,note_on,73,32,0
1,note_on,73,0,120
1,note_on,76,43,0
1,note_on,76,0,120
1,note_on,73,35,0
1,note_on,73,0,120
1,note_on,80,67,0
1,note_on,80,0,120
1,note_on,72,34,0
1,note_on,72,0,120
1,note_on,77,45,0
1,note_on,77,0,120
1,note_on,72,36,0
1,note_on,72,0,120
1,note_on,75,44,0
1,note_on,75,0,120
1,note_on,72,31,0
1,note_on,72,0,120
1,note_on,80,63,0
1,note_on,80,0,120
1,note_on,72,34,0
1,note_on,72,0,120
1,note_on,85,72,0
1,note_on,82,61,0
1,note_on,82,0,120
1,note_on,85,0,0
1,note_on,73,35,0
1,note_on,73,0,120
1,note_on,76,46,0
1,note_on,76,0,120
1,note_on,73,32,0
1,note_on,73,0,120
1,note_on,75,44,0
1,note_on,75,0,120
1,note_on,73,32,0
1,note_on,73,0,120
1,note_on,76,43,0
1,note_on,76,0,120
1,note_on,73,35,0
1,note_on,73,0,120
1,note_on,84,67,0
1,note_on,80,56,0
1,note_on,80,0,120
1,note_on,84,0,0
1,note_on,72,34,0
1,note_on,72,0,120
1,note_on,77,45,0
1,note_on,77,0,120
1,note_on,72,36,0
1,note_on,72,0,120
1,note_on,75,44,0
1,note_on,75,0,120
1,note_on,72,31,0
1,note_on,72,0,120
1,note_on,80,63,0
1,note_on,80,0,120
1,note_on,72,34,0
1,note_on,72,0,120
1,note_on,84,70,0
1,note_on,84,0,120
1,note_on,87,52,0
1,note_on,87,0,120
1,note_on,77,57,0
1,note_on,77,0,120
1,note_on,82,53,0
1,note_on,82,0,120
1,note_on,85,62,0
1,note_on,85,0,120
1,note_on,89,69,0
1,note_on,89,0,120
1,note_on,87,57,0
1,note_on,87,0,120
1,note_on,85,57,0
1,note_on,85,0,120
1,note_on,82,63,0
1,note_on,82,0,120
1,note_on,85,53,0
1,note_on,85,0,120
1,note_on,75,53,0
1,note_on,75,0,120
1,note_on,80,48,0
1,note_on,80,0,120
1,note_on,84,62,0
1,note_on,84,0,120
1,note_on,87,67,0
1,note_on,87,0,120
1,note_on,85,53,0
1,note_on,85,0,120
1,note_on,84,53,0
1,note_on,84,0,120
1,note_on,81,66,0
1,note_on,81,0,120
1,note_on,84,47,0
1,note_on,84,0,120
1,note_on,75,53,0
1,note_on,75,0,120
1,note_on,79,50,0
1,note_on,79,0,120
1,note_on,82,61,0
1,note_on,82,0,120
1,note_on,85,58,0
1,note_on,85,0,120
1,note_on,84,53,0
1,note_on,84,0,120
1,note_on,82,53,0
1,note_on,82,0,120
1,note_on,80,67,0
1,note_on,80,0,120
1,note_on,79,57,0
1,note_on,79,0,120
1,note_on,77,64,0
1,note_on,77,0,120
1,note_on,76,65,0
1,note_on,76,0,120
1,note_on,75,67,0
1,note_on,75,0,120
1,note_on,73,68,0
1,note_on,73,0,120
1,note_on,72,69,0
1,note_on,72,0,120
1,note_on,70,71,0
1,note_on,70,0,120
1,note_on,68,75,0
1,note_on,68,0,240
1,note_on,56,72,0
1,note_on,56,0,120
1,note_on,56,72,120
1,note_on,56,0,120
1,note_on,56,72,120
1,note_on,56,0,120
1,note_on,55,78,120
1,note_on,55,0,240
1,note_on,56,69,0
1,note_on,56,0,120
1,note_on,56,69,120
1,note_on,56,0,120
1,note_on,56,69,120
1,note_on,56,0,120
1,note_on,57,72,120
1,note_on,57,0,360
1,note_on,58,64,0
1,note_on,58,0,60
1,note_on,60,59,0
1,note_on,60,0,60
1,note_on,58,72,0
1,note_on,58,0,360
1,note_on,60,65,0
1,note_on,60,0,60
1,note_on,61,61,0
1,note_on,61,0,60
1,note_on,63,72,0
1,note_on,63,0,120
1,note_on,67,70,120
1,note_on,67,0,120
1,note_on,70,70,0
1,note_on,70,0,120
1,note_on,75,67,0
1,note_on,75,0,120
1,note_on,79,70,0
1,note_on,79,0,120
1,note_on,82,73,0
1,note_on,82,0,120
1,note_on,87,75,0
1,note_on,87,0,120
1,note_on,80,78,0
1,note_on,80,0,240
1,note_on,56,72,0
1,note_on,56,0,120
1,note_on,56,72,120
1,note_on,56,0,120
1,note_on,56,72,120
1,note_on,56,0,120
1,note_on,55,78,120
1,note_on,55,0,240
1,note_on,56,69,0
1,note_on,56,0,120
1,note_on,56,69,120
1,note_on,56,0,120
1,note_on,56,69,120
1,note_on,56,0,120
1,note_on,57,72,120
1,note_on,57,0,360
1,note_on,58,64,0
1,note_on,58,0,60
1,note_on,60,59,0
1,note_on,60,0,60
1,note_on,58,72,0
1,note_on,58,0,360
1,note_on,60,65,0
1,note_on,60,0,60
1,note_on,61,59,0
1,note_on,61,0,60
1,note_on,63,72,0
1,note_on,63,0,120
1,note_on,64,70,120
1,note_on,64,0,120
1,note_on,67,70,0
1,note_on,67,0,120
1,note_on,72,67,0
1,note_on,72,0,120
1,note_on,76,70,0
1,note_on,76,0,120
1,note_on,79,73,0
1,note_on,79,0,120
1,note_on,84,75,0
1,note_on,84,0,120
1,note_on,77,78,0
1,note_on,77,0,240
1,note_on,65,72,0
1,note_on,56,61,0
1,note_on,56,0,120
1,note_on,65,0,0
1,note_on,56,61,120
1,note_on,65,72,0
1,note_on,65,0,120
1,note_on,56,0,0
1,note_on,56,61,120
1,note_on,65,72,0
1,note_on,65,0,120
1,note_on,56,0,0
1,note_on,56,61,120
1,note_on,64,78,0
1,note_on,64,0,240
1,note_on,65,69,0
1,note_on,65,0,120
1,note_on,56,0,0
1,note_on,56,58,120
1,note_on,65,69,0
1,note_on,65,0,120
1,note_on,56,0,0
1,note_on,56,58,120
1,note_on,65,69,0
1,note_on,65,0,120
1,note_on,56,0,0
1,note_on,65,72,120
1,note_on,59,61,0
1,note_on,65,0,360
1,note_on,66,64,0
1,note_on,66,0,60
1,note_on,68,62,0
1,note_on,68,0,60
1,note_on,59,0,0
1,note_on,66,72,0
1,note_on,58,61,0
1,note_on,58,0,240
1,note_on,66,0,120
1,note_on,68,65,0
1,note_on,68,0,60
1,note_on,69,62,0
1,note_on,69,0,60
1,note_on,68,72,0
1,note_on,66,61,0
1,note_on,60,61,0
1,note_on,60,0,120
1,note_on,66,0,0
1,note_on,68,0,0
1,note_on,72,70,120
1,note_on,72,0,120
1,note_on,75,70,0
1,note_on,75,0,120
1,note_on,80,67,0
1,note_on,80,0,120
1,note_on,84,70,0
1,note_on,84,0,120
1,note_on,87,73,0
1,note_on,87,0,120
1,note_on,92,75,0
1,note_on,92,0,120
1,note_on,85,78,0
1,note_on,85,0,240
1,note_on,65,72,0
1,note_on,56,61,0
1,note_on,56,0,120
1,note_on,65,0,0
1,note_on,56,61,120
1,note_on,65,72,0
1,note_on,65,0,120
1,note_on,56,0,0
1,note_on,56,61,120
1,note_on,65,72,0
1,note_on,65,0,120
1,note_on,56,0,0
1,note_on,64,78,120
1,note_on,56,61,0
1,note_on,64,0,240
1,note_on,65,69,0
1,note_on,65,0,120
1,note_on,56,0,0
1,note_on,56,58,120
1,note_on,65,69,0
1,note_on,65,0,120
1,note_on,56,0,0
1,note_on,65,69,120
1,note_on,56,58,0
1,note_on,56,0,120
1,note_on,65,0,0
1,note_on,62,61,120
1,note_on,65,61,0
1,note_on,71,78,0
1,note_on,71,0,240
1,note_on,65,0,0
1,note_on,62,0,0
1,note_on,65,58,0
1,note_on,62,58,0
1,note_on,70,69,0
1,note_on,70,0,120
1,note_on,62,0,0
1,note_on,65,0,0
1,note_on,62,58,120
1,note_on,70,69,0
1,note_on,65,58,0
1,note_on,65,0,120
1,note_on,70,0,0
1,note_on,62,0,0
1,note_on,62,58,120
1,note_on,65,58,0
1,note_on,70,69,0
1,note_on,70,0,120
1,note_on,65,0,0
1,note_on,62,0,0
1,note_on,63,61,120
1,note_on,67,72,0
1,note_on,67,0,120
1,note_on,63,0,0
1,note_on,67,70,120
1,note_on,70,70,120
1,note_on,70,0,120
1,note_on,67,0,0
1,note_on,75,67,0
1,note_on,75,0,120
1,note_on,79,70,0
1,note_on,79,0,120
1,note_on,82,73,0
1,note_on,82,0,120
1,note_on,87,75,0
1,note_on,87,0,120
1,note_on,73,78,0
1,note_on,67,61,0
1,note_on,64,61,0
1,note_on,64,0,240
1,note_on,67,0,0
1,note_on,73,0,0
1,note_on,72,69,0
1,note_on,67,58,0
1,note_on,64,58,0
1,note_on,64,0,120
1,note_on,67,0,0
1,note_on,72,0,0
1,note_on,67,58,120
1,note_on,72,69,0
1,note_on,64,58,0
1,note_on,64,0,120
1,note_on,72,0,0
1,note_on,67,0,0
1,note_on,67,58,120
1,note_on,64,58,0
1,note_on,72,69,0
1,note_on,72,0,120
1,note_on,64,0,0
1,note_on,67,0,0
1,note_on,65,61,120
1,note_on,69,72,0
1,note_on,69,0,120
1,note_on,65,0,0
1,note_on,69,70,120
1,note_on,72,70,120
1,note_on,72,0,120
1,note_on,69,0,0
1,note_on,77,67,0
1,note_on,77,0,120
1,note_on,81,70,0
1,note_on,81,0,120
1,note_on,84,73,0
1,note_on,84,0,120
1,note_on,89,75,0
1,note_on,89,0,120
1,note_on,78,73,0
1,note_on,90,87,0
1,note_on,90,0,240
1,note_on,78,0,0
1,note_on,89,75,0
1,note_on,77,63,0
1,note_on,77,0,180
1,note_on,89,0,0
1,note_on,77,73,60
1,note_on,89,87,0
1,note_on,89,0,240
1,note_on,77,0,0
1,note_on,88,75,0
1,note_on,76,63,0
1,note_on,76,0,180
1,note_on,88,0,0
1,note_on,88,86,60
1,note_on,76,73,0
1,note_on,76,0,240
1,note_on,88,0,0
1,note_on,89,70,0
1,note_on,77,59,0
1,note_on,77,0,180
1,note_on,89,0,0
1,note_on,89,78,60
1,note_on,77,66,0
1,note_on,77,0,240
1,note_on,89,0,0
1,note_on,72,59,0
1,note_on,84,70,0
1,note_on,84,0,180
1,note_on,72,0,0
1,note_on,82,77,60
1,note_on,70,65,0
1,note_on,70,0,240
1,note_on,82,0,0
1,note_on,81,68,0
1,note_on,69,57,0
1,note_on,69,0,180
1,note_on,81,0,0
1,note_on,69,57,60
1,note_on,81,68,0
1,note_on,81,0,240
1,note_on,69,0,0
1,note_on,79,68,0
1,note_on,67,57,0
1,note_on,67,0,180
1,note_on,79,0,0
1,note_on,79,74,60
1,note_on,67,62,0
1,note_on,67,0,240
1,note_on,79,0,0
1,note_on,77,64,0
1,note_on,65,54,0
1,note_on,65,0,121
1,note_on,77,0,0
1,note_on,77,67,119
1,note_on,65,56,0
1,note_on,65,0,121
1,note_on,77,0,0
1,note_on,65,54,119
1,note_on,77,64,0
1,note_on,77,0,121
1,note_on,65,0,0
1,note_on,66,58,119
1,note_on,78,69,0
1,note_on,78,0,240
1,note_on,66,0,0
1,note_on,65,50,0
1,note_on,77,60,0
1,note_on,77,0,180
1,note_on,65,0,0
1,note_on,77,69,60
1,note_on,65,58,0
1,note_on,65,0,240
1,note_on,77,0,0
1,note_on,76,60,0
1,note_on,64,50,0
1,note_on,64,0,180
1,note_on,76,0,0
1,note_on,64,58,60
1,note_on,76,68,0
1,note_on,76,0,240
1,note_on,64,0,0
1,note_on,65,47,0
1,note_on,77,56,0
1,note_on,77,0,180
1,note_on,65,0,0
1,note_on,77,62,60
1,note_on,65,52,0
1,note_on,65,0,240
1,note_on,77,0,0
1,note_on,72,56,0
1,note_on,60,47,0
1,note_on,60,0,180
1,note_on,72,0,0
1,note_on,58,49,60
1,note_on,70,57,0
1,note_on,70,0,240
1,note_on,58,0,0
1,note_on,57,42,0
1,note_on,69,50,0
1,note_on,69,0,180
1,note_on,57,0,0
1,note_on,57,41,60
1,note_on,69,49,0
1,note_on,69,0,240
1,note_on,57,0,0
1,note_on,67,48,0
1,note_on,55,40,0
1,note_on,55,0,180
1,note_on,67,0,0
1,note_on,67,51,60
1,note_on,55,43,0
1,note_on,55,0,240
1,note_on,67,0,0
1,note_on,53,36,0
1,note_on,65,43,0
1,note_on,65,0,121
1,note_on,53,0,0
1,note_on,53,36,119
1,note_on,65,44,0
1,note_on,65,0,121
1,note_on,53,0,0
1,note_on,53,35,119
1,note_on,65,41,0
1,note_on,65,0,121
1,note_on,53,0,0
1,note_on,53,32,119
1,note_on,65,39,0
1,note_on,65,0,121
1,note_on,53,0,0
1,note_on,65,36,119
1,note_on,53,31,0
1,note_on,53,0,121
1,note_on,65,0,0
1,note_on,53,32,119
1,note_on,65,39,0
1,note_on,65,0,121
1,note_on,53,0,0
1,note_on,53,31,119
1,note_on,65,36,0
1,note_on,65,0,121
1,note_on,53,0,0
1,note_on,65,39,119
1,note_on,53,32,0
1,note_on,53,0,121
1,note_on,65,0,0
1,note_on,53,31,119
1,note_on,65,36,0
1,note_on,65,0,121
1,note_on,53,0,0
1,note_on,65,39,119
1,note_on,53,32,0
1,note_on,53,0,121
1,note_on,65,0,0
1,note_on,65,36,119
1,note_on,53,31,0
1,note_on,53,0,121
1,note_on,65,0,0
1,note_on,58,21,119
1,note_on,64,33,0
1,note_on,55,21,0
1,note_on,61,21,0
1,note_on,64,0,240
1,note_on,63,30,0
1,note_on,63,0,121
1,note_on,61,0,119
1,note_on,55,0,0
1,note_on,58,0,0
1,note_on,63,33,0
1,note_on,58,21,0
1,note_on,55,21,0
1,note_on,61,21,0
1,note_on,55,0,120
1,note_on,58,0,0
1,note_on,63,0,1
1,note_on,61,0,0
1,note_on,63,30,119
1,note_on,61,20,0
1,note_on,55,20,0
1,note_on,58,20,0
1,note_on,58,0,120
1,note_on,55,0,0
1,note_on,61,0,1
1,note_on,63,0,0
1,note_on,61,21,119
1,note_on,63,33,0
1,note_on,55,21,0
1,note_on,58,21,0
1,note_on,58,0,120
1,note_on,55,0,0
1,note_on,63,0,1
1,note_on,61,0,0
1,note_on,61,20,119
1,note_on,58,20,0
1,note_on,55,20,0
1,note_on,63,30,0
1,note_on,55,0,120
1,note_on,58,0,0
1,note_on,61,0,1
1,note_on,63,0,0
1,note_on,63,33,119
1,note_on,58,21,0
1,note_on,55,21,0
1,note_on,61,21,0
1,note_on,55,0,120
1,note_on,58,0,0
1,note_on,63,0,1
1,note_on,61,0,0
1,note_on,55,20,119
1,note_on,61,20,0
1,note_on,58,20,0
1,note_on,63,30,0
1,note_on,58,0,120
1,note_on,55,0,0
1,note_on,61,0,1
1,note_on,63,0,0
1,note_on,56,28,119
1,note_on,60,28,0
1,note_on,63,35,0
1,note_on,63,0,240
1,note_on,60,0,0
1,note_on,56,0,0
1,note_on,68,23,0
1,note_on,63,23,0
1,note_on,72,29,0
1,note_on,72,0,180
1,note_on,63,0,0
1,note_on,68,0,0
1,note_on,68,23,60
1,note_on,63,23,0
1,note_on,72,29,0
1,note_on,72,0,180
1,note_on,63,0,0
1,note_on,68,0,0
1,note_on,63,23,60
1,note_on,68,23,0
1,note_on,72,29,0
1,note_on,72,0,180
1,note_on,68,0,0
1,note_on,63,0,0
1,note_on,71,33,60
1,note_on,68,26,0
1,note_on,62,26,0
1,note_on,62,0,240
1,note_on,68,0,0
1,note_on,71,0,0
1,note_on,72,28,0
1,note_on,63,22,0
1,note_on,68,22,0
1,note_on,68,0,180
1,note_on,63,0,0
1,note_on,72,0,0
1,note_on,72,31,60
1,note_on,68,24,0
1,note_on,63,24,0
1,note_on,63,0,180
1,note_on,68,0,0
1,note_on,72,0,0
1,note_on,68,27,60
1,note_on,72,34,0
1,note_on,63,27,0
1,note_on,63,0,180
1,note_on,72,0,0
1,note_on,68,0,0
1,note_on,75,38,60
1,note_on,68,30,0
1,note_on,66,30,0
1,note_on,66,0,240
1,note_on,68,0,0
1,note_on,75,0,0
1,note_on,73,32,0
1,note_on,65,25,0
1,note_on,68,25,0
1,note_on,68,0,180
1,note_on,65,0,0
1,note_on,73,0,0
1,note_on,68,25,60
1,note_on,73,32,0
1,note_on,65,25,0
1,note_on,65,0,180
1,note_on,73,0,0
1,note_on,68,0,0
1,note_on,65,25,60
1,note_on,68,25,0
1,note_on,73,32,0
1,note_on,73,0,180
1,note_on,68,0,0
1,note_on,65,0,0
1,note_on,73,33,60
1,note_on,65,20,0
1,note_on,68,26,0
1,note_on,68,0,240
1,note_on,65,0,0
1,note_on,73,0,0
1,note_on,72,30,0
1,note_on,65,24,0
1,note_on,63,24,0
1,note_on,63,0,240
1,note_on,65,0,0
1,note_on,72,0,0
1,note_on,65,24,0
1,note_on,70,30,0
1,note_on,61,24,0
1,note_on,61,0,240
1,note_on,70,0,0
1,note_on,65,0,0
1,note_on,68,30,0
1,note_on,65,24,0
1,note_on,60,24,0
1,note_on,60,0,240
1,note_on,65,0,0
1,note_on,68,0,0
1,note_on,63,28,0
1,note_on,60,28,0
1,note_on,68,35,0
1,note_on,68,0,240
1,note_on,60,0,0
1,note_on,63,0,0
1,note_on,67,29,0
1,note_on,58,23,0
1,note_on,63,23,0
1,note_on,63,0,180
1,note_on,58,0,0
1,note_on,67,0,0
1,note_on,67,29,60
1,note_on,58,23,0
1,note_on,63,23,0
1,note_on,63,0,180
1,note_on,58,0,0
1,note_on,67,0,0
1,note_on,63,23,60
1,note_on,67,29,0
1,note_on,58,23,0
1,note_on,58,0,180
1,note_on,67,0,0
1,note_on,63,0,0
1,note_on,58,26,60
1,note_on,67,33,0
1,note_on,63,26,0
1,note_on,63,0,180
1,note_on,67,0,0
1,note_on,58,0,0
1,note_on,63,22,60
1,note_on,67,28,0
1,note_on,58,22,0
1,note_on,58,0,180
1,note_on,67,0,0
1,note_on,63,0,0
1,note_on,63,24,60
1,note_on,60,24,0
1,note_on,68,31,0
1,note_on,68,0,240
1,note_on,60,0,0
1,note_on,63,0,0
1,note_on,70,34,0
1,note_on,61,27,0
1,note_on,63,27,0
1,note_on,63,0,240
1,note_on,61,0,0
1,note_on,70,0,0
1,note_on,61,30,0
1,note_on,63,38,0
1,note_on,63,0,240
1,note_on,61,0,0
1,note_on,68,32,0
1,note_on,63,25,0
1,note_on,60,25,0
1,note_on,60,0,180
1,note_on,63,0,0
1,note_on,68,0,0
1,note_on,63,25,60
1,note_on,60,25,0
1,note_on,68,32,0
1,note_on,68,0,180
1,note_on,60,0,0
1,note_on,63,0,0
1,note_on,68,32,60
1,note_on,63,25,0
1,note_on,60,25,0
1,note_on,60,0,180
1,note_on,63,0,0
1,note_on,68,0,0
1,note_on,60,20,60
1,note_on,68,33,0
1,note_on,63,26,0
1,note_on,63,0,180
1,note_on,68,0,0
1,note_on,60,0,0
1,note_on,63,24,60
1,note_on,60,24,0
1,note_on,68,30,0
1,note_on,68,0,180
1,note_on,60,0,0
1,note_on,63,0,0
1,note_on,68,30,60
1,note_on,72,42,60
1,note_on,63,35,0
1,note_on,63,0,300
1,note_on,72,0,0
1,note_on,68,0,0
1,note_on,63,24,0
1,note_on,60,24,0
1,note_on,68,30,0
1,note_on,68,0,120
1,note_on,60,0,0
1,note_on,63,0,0
1,note_on,60,28,0
1,note_on,68,35,0
1,note_on,63,28,0
1,note_on,63,0,240
1,note_on,68,0,0
1,note_on,60,0,0
1,note_on,63,23,0
1,note_on,58,23,0
1,note_on,67,29,0
1,note_on,67,0,180
1,note_on,58,0,0
1,note_on,63,0,0
1,note_on,58,23,60
1,note_on,63,23,0
1,note_on,67,29,0
1,note_on,67,0,180
1,note_on,63,0,0
1,note_on,58,0,0
1,note_on,67,29,60
1,note_on,63,23,0
1,note_on,58,23,0
1,note_on,58,0,180
1,note_on,63,0,0
1,note_on,67,0,0
1,note_on,67,33,60
1,note_on,58,26,0
1,note_on,63,26,0
1,note_on,63,0,180
1,note_on,58,0,0
1,note_on,67,0,0
1,note_on,63,22,60
1,note_on,67,28,0
1,note_on,58,22,0
1,note_on,58,0,180
1,note_on,67,0,0
1,note_on,63,0,0
1,note_on,60,24,60
1,note_on,63,24,0
1,note_on,68,31,0
1,note_on,68,0,240
1,note_on,63,0,0
1,note_on,60,0,0
1,note_on,70,34,0
1,note_on,61,27,0
1,note_on,63,27,0
1,note_on,63,0,240
1,note_on,61,0,0
1,note_on,70,0,0
1,note_on,61,30,0
1,note_on,63,38,0
1,note_on,63,0,240
1,note_on,61,0,0
1,note_on,68,32,0
1,note_on,60,25,0
1,note_on,63,25,0
1,note_on,63,0,180
1,note_on,60,0,0
1,note_on,68,0,0
1,note_on,60,25,60
1,note_on,63,25,0
1,note_on,68,32,0
1,note_on,68,0,180
1,note_on,63,0,0
1,note_on,60,0,0
1,note_on,60,25,60
1,note_on,63,25,0
1,note_on,68,32,0
1,note_on,68,0,180
1,note_on,63,0,0
1,note_on,60,0,0
1,note_on,68,33,60
1,note_on,60,20,0
1,note_on,63,26,0
1,note_on,63,0,180
1,note_on,60,0,0
1,note_on,68,0,0
1,note_on,75,34,60
1,note_on,72,27,0
1,note_on,72,0,240
1,note_on,75,0,0
1,note_on,72,27,0
1,note_on,80,42,0
1,note_on,75,27,0
1,note_on,75,0,240
1,note_on,80,0,0
1,note_on,72,0,0
1,note_on,75,27,0
1,note_on,82,34,0
1,note_on,79,27,0
1,note_on,79,0,240
1,note_on,82,0,0
1,note_on,75,0,0
1,note_on,75,26,240
1,note_on,84,33,0
1,note_on,80,26,0
1,note_on,80,0,180
1,note_on,84,0,0
1,note_on,75,0,0
1,note_on,84,33,60
1,note_on,80,26,0
1,note_on,75,26,0
1,note_on,75,0,180
1,note_on,80,0,0
1,note_on,84,0,0
1,note_on,84,33,60
1,note_on,80,26,0
1,note_on,75,26,0
1,note_on,75,0,180
1,note_on,80,0,0
1,note_on,84,0,0
1,note_on,80,29,60
1,note_on,74,29,0
1,note_on,83,37,0
1,note_on,83,0,240
1,note_on,74,0,0
1,note_on,80,0,0
1,note_on,75,25,0
1,note_on,80,25,0
1,note_on,84,32,0
1,note_on,84,0,180
1,note_on,80,0,0
1,note_on,75,0,0
1,note_on,84,35,60
1,note_on,80,27,0
1,note_on,75,27,0
1,note_on,75,0,180
1,note_on,80,0,0
1,note_on,84,0,0
1,note_on,84,39,60
1,note_on,75,31,0
1,note_on,80,31,0
1,note_on,80,0,180
1,note_on,75,0,0
1,note_on,84,0,0
1,note_on,87,43,60
1,note_on,80,34,0
1,note_on,78,34,0
1,note_on,78,0,240
1,note_on,80,0,0
1,note_on,87,0,0
1,note_on,80,28,0
1,note_on,77,28,0
1,note_on,85,36,0
1,note_on,85,0,180
1,note_on,77,0,0
1,note_on,80,0,0
1,note_on,85,36,60
1,note_on,80,28,0
1,note_on,77,28,0
1,note_on,77,0,180
1,note_on,80,0,0
1,note_on,85,0,0
1,note_on,77,28,60
1,note_on,85,36,0
1,note_on,80,28,0
1,note_on,80,0,180
1,note_on,85,0,0
1,note_on,77,0,0
1,note_on,80,29,60
1,note_on,85,37,0
1,note_on,77,23,0
1,note_on,77,0,240
1,note_on,85,0,0
1,note_on,80,0,0
1,note_on,75,27,0
1,note_on,77,27,0
1,note_on,84,34,0
1,note_on,84,0,240
1,note_on,77,0,0
1,note_on,75,0,0
1,note_on,77,27,0
1,note_on,73,27,0
1,note_on,82,34,0
1,note_on,82,0,240
1,note_on,73,0,0
1,note_on,77,0,0
1,note_on,77,27,0
1,note_on,80,34,0
1,note_on,72,27,0
1,note_on,72,0,240
1,note_on,80,0,0
1,note_on,77,0,0
1,note_on,80,40,0
1,note_on,72,32,0
1,note_on,75,32,0
1,note_on,75,0,240
1,note_on,72,0,0
1,note_on,80,0,0
1,note_on,75,26,0
1,note_on,70,26,0
1,note_on,79,33,0
1,note_on,79,0,180
1,note_on,70,0,0
1,note_on,75,0,0
1,note_on,79,33,60
1,note_on,75,26,0
1,note_on,70,26,0
1,note_on,70,0,180
1,note_on,75,0,0
1,note_on,79,0,0
1,note_on,75,26,60
1,note_on,79,33,0
1,note_on,70,26,0
1,note_on,70,0,180
1,note_on,79,0,0
1,note_on,75,0,0
1,note_on,75,29,60
1,note_on,70,29,0
1,note_on,79,37,0
1,note_on,79,0,180
1,note_on,70,0,0
1,note_on,75,0,0
1,note_on,75,25,60
1,note_on,79,32,0
1,note_on,70,25,0
1,note_on,70,0,180
1,note_on,79,0,0
1,note_on,75,0,0
1,note_on,72,27,60
1,note_on,75,27,0
1,note_on,80,35,0
1,note_on,80,0,240
1,note_on,75,0,0
1,note_on,72,0,0
1,note_on,75,31,0
1,note_on,82,39,0
1,note_on,73,31,0
1,note_on,73,0,240
1,note_on,82,0,0
1,note_on,75,0,0
1,note_on,73,34,0
1,note_on,75,43,0
1,note_on,75,0,240
1,note_on,73,0,0
1,note_on,75,28,0
1,note_on,80,36,0
1,note_on,72,28,0
1,note_on,72,0,180
1,note_on,80,0,0
1,note_on,75,0,0
1,note_on,80,36,60
1,note_on,72,28,0
1,note_on,75,28,0
1,note_on,75,0,180
1,note_on,72,0,0
1,note_on,80,0,0
1,note_on,75,28,60
1,note_on,80,36,0
1,note_on,72,28,0
1,note_on,72,0,180
1,note_on,80,0,0
1,note_on,75,0,0
1,note_on,80,37,60
1,note_on,75,29,0
1,note_on,72,23,0
1,note_on,72,0,180
1,note_on,75,0,0
1,note_on,80,0,0
1,note_on,80,34,60
1,note_on,75,27,0
1,note_on,72,27,0
1,note_on,72,0,180
1,note_on,75,0,0
1,note_on,80,0,0
1,note_on,80,39,60
1,note_on,75,44,60
1,note_on,84,52,0
1,note_on,84,0,300
1,note_on,75,0,0
1,note_on,80,0,0
1,note_on,75,27,0
1,note_on,72,27,0
1,note_on,80,34,0
1,note_on,80,0,120
1,note_on,72,0,0
1,note_on,75,0,0
1,note_on,75,32,0
1,note_on,80,40,0
1,note_on,72,32,0
1,note_on,72,0,240
1,note_on,80,0,0
1,note_on,75,0,0
1,note_on,75,26,0
1,note_on,70,26,0
1,note_on,79,33,0
1,note_on,79,0,180
1,note_on,70,0,0
1,note_on,75,0,0
1,note_on,75,26,60
1,note_on,70,26,0
1,note_on,79,33,0
1,note_on,79,0,180
1,note_on,70,0,0
1,note_on,75,0,0
1,note_on,70,26,60
1,note_on,75,26,0
1,note_on,79,33,0
1,note_on,79,0,180
1,note_on,75,0,0
1,note_on,70,0,0
1,note_on,70,29,60
1,note_on,79,37,0
1,note_on,75,29,0
1,note_on,75,0,180
1,note_on,79,0,0
1,note_on,70,0,0
1,note_on,75,25,60
1,note_on,79,32,0
1,note_on,70,25,0
1,note_on,70,0,180
1,note_on,79,0,0
1,note_on,75,0,0
1,note_on,80,35,60
1,note_on,75,27,0
1,note_on,72,27,0
1,note_on,72,0,240
1,note_on,75,0,0
1,note_on,80,0,0
1,note_on,75,31,0
1,note_on,82,39,0
1,note_on,73,31,0
1,note_on,73,0,240
1,note_on,82,0,0
1,note_on,75,0,0
1,note_on,73,34,0
1,note_on,75,43,0
1,note_on,75,0,240
1,note_on,73,0,0
1,note_on,80,36,0
1,note_on,75,28,0
1,note_on,72,28,0
1,note_on,72,0,180
1,note_on,75,0,0
1,note_on,80,0,0
1,note_on,75,28,60
1,note_on,72,28,0
1,note_on,80,36,0
1,note_on,80,0,180
1,note_on,72,0,0
1,note_on,75,0,0
1,note_on,80,36,60
1,note_on,75,28,0
1,note_on,72,28,0
1,note_on,72,0,180
1,note_on,75,0,0
1,note_on,80,0,0
1,note_on,80,37,60
1,note_on,75,29,0
1,note_on,72,23,0
1,note_on,72,0,180
1,note_on,75,0,0
1,note_on,80,0,0
1,note_on,75,43,60
1,note_on,75,0,120
1,note_on,87,36,0
1,note_on,87,0,120
1,note_on,80,43,0
1,note_on,80,0,120
1,note_on,87,36,0
1,note_on,87,0,120
1,note_on,82,44,0
1,note_on,82,0,120
1,note_on,87,36,0
1,note_on,87,0,120
1,note_on,75,47,0
1,note_on,75,0,120
1,note_on,87,36,0
1,note_on,87,0,120
1,note_on,84,43,0
1,note_on,84,0,120
1,note_on,75,36,0
1,note_on,75,0,120
1,note_on,75,43,0
1,note_on,75,0,120
1,note_on,87,36,0
1,note_on,87,0,120
1,note_on,84,43,0
1,note_on,84,0,120
1,note_on,75,36,0
1,note_on,75,0,120
1,note_on,75,46,0
1,note_on,75,0,120
1,note_on,87,36,0
1,note_on,87,0,120
1,note_on,84,45,0
1,note_on,84,0,120
1,note_on,75,36,0
1,note_on,75,0,120
1,note_on,75,45,0
1,note_on,75,0,120
1,note_on,87,39,0
1,note_on,87,0,120
1,note_on,80,46,0
1,note_on,80,0,120
1,note_on,92,36,0
1,note_on,92,0,120
1,note_on,80,50,0
1,note_on,80,0,120
1,note_on,92,36,0
1,note_on,92,0,120
1,note_on,89,43,0
1,note_on,89,0,120
1,note_on,80,36,0
1,note_on,80,0,120
1,note_on,80,50,0
1,note_on,80,0,120
1,note_on,92,36,0
1,note_on,92,0,120
1,note_on,89,42,0
1,note_on,89,0,120
1,note_on,80,36,0
1,note_on,80,0,120
1,note_on,80,46,0
1,note_on,80,0,120
1,note_on,92,36,0
1,note_on,92,0,120
1,note_on,81,47,0
1,note_on,81,0,120
1,note_on,93,40,0
1,note_on,93,0,120
1,note_on,82,52,0
1,note_on,82,0,120
1,note_on,94,36,0
1,note_on,94,0,120
1,note_on,96,48,0
1,note_on,84,48,0
1,note_on,84,0,120
1,note_on,96,0,0
1,note_on,97,53,0
1,note_on,85,53,0
1,note_on,85,0,120
1,note_on,97,0,0
1,note_on,87,67,0
1,note_on,87,0,120
1,note_on,99,53,0
1,note_on,99,0,120
1,note_on,97,60,0
1,note_on,97,0,120
1,note_on,87,53,0
1,note_on,87,0,120
1,note_on,87,63,0
1,note_on,87,0,120
1,note_on,99,53,0
1,note_on,99,0,120
1,note_on,97,60,0
1,note_on,97,0,120
1,note_on,87,50,0
1,note_on,87,0,120
1,note_on,87,59,0
1,note_on,87,0,120
1,note_on,99,45,0
1,note_on,99,0,120
1,note_on,97,56,0
1,note_on,97,0,120
1,note_on,87,48,0
1,note_on,87,0,120
1,note_on,96,58,0
1,note_on,96,0,120
1,note_on,99,47,0
1,note_on,99,0,120
1,note_on,94,59,0
1,note_on,94,0,120
1,note_on,99,52,0
1,note_on,99,0,120
1,note_on,87,64,0
1,note_on,87,0,120
1,note_on,99,43,0
1,note_on,99,0,120
1,note_on,96,55,0
1,note_on,96,0,120
1,note_on,87,44,0
1,note_on,87,0,120
1,note_on,75,51,0
1,note_on,75,0,120
1,note_on,87,43,0
1,note_on,87,0,120
1,note_on,84,47,0
1,note_on,84,0,120
1,note_on,75,41,0
1,note_on,75,0,120
1,note_on,75,47,0
1,note_on,75,0,120
1,note_on,87,39,0
1,note_on,87,0,120
1,note_on,84,41,0
1,note_on,84,0,120
1,note_on,75,38,0
1,note_on,75,0,120
1,note_on,80,47,0
1,note_on,80,0,120
1,note_on,92,42,0
1,note_on,92,0,120
1,note_on,75,43,0
1,note_on,75,0,120
1,note_on,87,37,0
1,note_on,87,0,120
1,note_on,75,50,0
1,note_on,75,0,120
1,note_on,87,37,0
1,note_on,87,0,120
1,note_on,85,44,0
1,note_on,85,0,120
1,note_on,75,37,0
1,note_on,75,0,120
1,note_on,75,48,0
1,note_on,75,0,120
1,note_on,87,37,0
1,note_on,87,0,120
1,note_on,85,43,0
1,note_on,85,0,120
1,note_on,75,37,0
1,note_on,75,0,120
1,note_on,75,48,0
1,note_on,75,0,120
1,note_on,87,37,0
1,note_on,87,0,120
1,note_on,85,48,0
1,note_on,85,0,120
1,note_on,75,44,0
1,note_on,75,0,120
1,note_on,84,53,0
1,note_on,84,0,120
1,note_on,87,46,0
1,note_on,87,0,120
1,note_on,82,52,0
1,note_on,82,0,120
1,note_on,87,47,0
1,note_on,87,0,120
1,note_on,75,58,0
1,note_on,75,0,120
1,note_on,87,36,0
1,note_on,87,0,120
1,note_on,84,44,0
1,note_on,84,0,120
1,note_on,75,36,0
1,note_on,75,0,120
1,note_on,75,50,0
1,note_on,75,0,120
1,note_on,87,36,0
1,note_on,87,0,120
1,note_on,84,43,0
1,note_on,84,0,120
1,note_on,75,36,0
1,note_on,75,0,120
1,note_on,75,50,0
1,note_on,75,0,120
1,note_on,87,36,0
1,note_on,87,0,120
1,note_on,84,44,0
1,note_on,84,0,120
1,note_on,75,36,0
1,note_on,75,0,120
1,note_on,80,53,0
1,note_on,80,0,120
1,note_on,92,44,0
1,note_on,92,0,120
1,note_on,75,53,0
1,note_on,75,0,120
1,note_on,87,47,0
1,note_on,87,0,120
1,note_on,87,63,0
1,note_on,87,0,120
1,note_on,99,52,0
1,note_on,99,0,120
1,note_on,97,62,0
1,note_on,97,0,120
1,note_on,87,50,0
1,note_on,87,0,120
1,note_on,87,63,0
1,note_on,87,0,120
1,note_on,99,54,0
1,note_on,99,0,120
1,note_on,97,59,0
1,note_on,97,0,120
1,note_on,87,51,0
1,note_on,87,0,120
1,note_on,87,64,0
1,note_on,87,0,120
1,note_on,99,48,0
1,note_on,99,0,120
1,note_on,97,57,0
1,note_on,97,0,120
1,note_on,87,46,0
1,note_on,87,0,120
1,note_on,96,63,0
1,note_on,96,0,120
1,note_on,99,52,0
1,note_on,99,0,120
1,note_on,94,59,0
1,note_on,94,0,120
1,note_on,99,48,0
1,note_on,99,0,120
1,note_on,94,59,0
1,note_on,94,0,1200
1,note_on,96,66,0
1,note_on,96,0,240
1,note_on,97,71,0
1,note_on,97,0,240
1,note_on,98,75,0
1,note_on,98,0,240
1,note_on,99,79,0
1,note_on,99,0,1440
1,note_on,91,66,0
1,note_on,91,0,480
1,note_on,96,56,0
1,note_on,96,0,120
1,note_on,99,49,0
1,note_on,99,0,120
1,note_on,92,49,0
1,note_on,92,0,120
1,note_on,96,45,0
1,note_on,96,0,120
1,note_on,87,56,0
1,note_on,87,0,120
1,note_on,92,50,0
1,note_on,92,0,120
1,note_on,84,50,0
1,note_on,84,0,120
1,note_on,87,45,0
1,note_on,87,0,120
1,note_on,80,56,0
1,note_on,80,0,120
1,note_on,84,50,0
1,note_on,84,0,120
1,note_on,75,50,0
1,note_on,75,0,120
1,note_on,80,50,0
1,note_on,80,0,120
1,note_on,72,56,0
1,note_on,72,0,120
1,note_on,75,50,0
1,note_on,75,0,120
1,note_on,68,50,0
1,note_on,68,0,120
1,note_on,72,45,0
1,note_on,72,0,120
1,note_on,63,53,0
1,note_on,63,0,120
1,note_on,68,44,0
1,note_on,68,0,120
1,note_on,60,44,0
1,note_on,60,0,120
1,note_on,63,40,0
1,note_on,63,0,120
1,note_on,71,45,4800
1,note_on,68,38,0
1,note_on,68,0,240
1,note_on,71,0,0
1,note_on,70,40,0
1,note_on,73,48,0
1,note_on,73,0,240
1,note_on,70,0,0
1,note_on,75,50,0
1,note_on,71,42,0
1,note_on,71,0,480
1,note_on,75,0,0
1,note_on,47,44,720
1,note_on,51,37,0
1,note_on,51,0,240
1,note_on,47,0,0
1,note_on,51,39,0
1,note_on,46,47,0
1,note_on,46,0,240
1,note_on,51,0,0
1,note_on,44,50,0
1,note_on,51,42,0
1,note_on,51,0,240
1,note_on,44,0,0
1,note_on,39,55,0
1,note_on,51,39,0
1,note_on,51,0,240
1,note_on,39,0,0
1,note_on,70,54,1200
1,note_on,73,64,0
1,note_on,73,0,240
1,note_on,70,0,0
1,note_on,76,61,0
1,note_on,73,51,0
1,note_on,73,0,240
1,note_on,76,0,0
1,note_on,75,57,0
1,note_on,71,48,0
1,note_on,71,0,480
1,note_on,75,0,0
1,note_on,51,41,960
1,note_on,47,57,0
1,note_on,47,0,240
1,note_on,51,0,0
1,note_on,46,47,0
1,note_on,51,39,0
1,note_on,51,0,240
1,note_on,46,0,0
1,note_on,44,50,0
1,note_on,51,42,0
1,note_on,51,0,238
1,note_on,44,0,2
1,note_on,71,51,1200
1,note_on,68,43,0
1,note_on,68,0,240
1,note_on,71,0,0
1,note_on,73,55,0
1,note_on,70,46,0
1,note_on,70,0,240
1,note_on,73,0,0
1,note_on,71,48,0
1,note_on,75,57,0
1,note_on,75,0,480
1,note_on,71,0,0
1,note_on,51,50,720
1,note_on,54,42,0
1,note_on,54,0,240
1,note_on,51,0,0
1,note_on,49,51,0
1,note_on,54,42,0
1,note_on,54,0,240
1,note_on,49,0,0
1,note_on,47,54,0
1,note_on,54,45,0
1,note_on,54,0,240
1,note_on,47,0,0
1,note_on,42,63,0
1,note_on,54,44,0
1,note_on,54,0,240
1,note_on,42,0,0
1,note_on,76,73,1200
1,note_on,73,62,0
1,note_on,73,0,240
1,note_on,76,0,0
1,note_on,80,70,0
1,note_on,76,58,0
1,note_on,76,0,240
1,note_on,80,0,0
1,note_on,75,69,0
1,note_on,78,65,0
1,note_on,78,0,480
1,note_on,75,0,0
1,note_on,51,59,960
1,note_on,54,43,0
1,note_on,54,0,240
1,note_on,51,0,0
1,note_on,49,48,0
1,note_on,54,40,0
1,note_on,54,0,240
1,note_on,49,0,0
1,note_on,54,42,0
1,note_on,47,50,0
1,note_on,54,0,238
1,note_on,47,0,2
1,note_on,75,61,960
1,note_on,75,0,240
1,note_on,73,64,0
1,note_on,73,0,240
1,note_on,71,66,0
1,note_on,71,0,240
1,note_on,68,66,0
1,note_on,68,0,480
1,note_on,52,65,720
1,note_on,52,0,240
1,note_on,51,68,0
1,note_on,51,0,240
1,note_on,49,71,0
1,note_on,49,0,240
1,note_on,46,76,0
1,note_on,46,0,960
1,note_on,47,61,0
1,note_on,47,0,240
1,note_on,75,68,0
1,note_on,75,0,240
1,note_on,76,73,0
1,note_on,76,0,240
1,note_on,77,77,0
1,note_on,77,0,240
1,note_on,78,82,0
1,note_on,78,0,1920
1,note_on,75,66,0
1,note_on,75,0,480
1,note_on,47,44,720
1,note_on,47,0,240
1,note_on,49,48,0
1,note_on,49,0,240
1,note_on,50,45,0
1,note_on,50,0,240
1,note_on,42,48,0
1,note_on,42,0,1920
1,note_on,35,44,0
1,note_on,35,0,480
1,note_on,39,48,480
1,note_on,39,0,720
1,note_on,37,41,0
1,note_on,37,0,80
1,note_on,35,35,0
1,note_on,35,0,80
1,note_on,34,35,0
1,note_on,34,0,80
1,note_on,68,38,1440
1,note_on,71,45,0
1,note_on,71,0,240
1,note_on,68,0,0
1,note_on,70,40,0
1,note_on,73,48,0
1,note_on,73,0,240
1,note_on,70,0,0
1,note_on,75,50,0
1,note_on,71,42,0
1,note_on,71,0,480
1,note_on,75,0,0
1,note_on,47,44,720
1,note_on,51,37,0
1,note_on,51,0,240
1,note_on,47,0,0
1,note_on,51,39,0
1,note_on,46,47,0
1,note_on,46,0,240
1,note_on,51,0,0
1,note_on,44,50,0
1,note_on,51,42,0
1,note_on,51,0,240
1,note_on,44,0,0
1,note_on,39,55,0
1,note_on,51,39,0
1,note_on,51,0,238
1,note_on,39,0,2
1,note_on,73,64,1200
1,note_on,70,54,0
1,note_on,70,0,240
1,note_on,73,0,0
1,note_on,73,51,0
1,note_on,76,61,0
1,note_on,76,0,240
1,note_on,73,0,0
1,note_on,75,57,0
1,note_on,71,48,0
1,note_on,71,0,480
1,note_on,75,0,0
1,note_on,47,57,960
1,note_on,51,41,0
1,note_on,51,0,240
1,note_on,47,0,0
1,note_on,51,39,0
1,note_on,46,47,0
1,note_on,46,0,240
1,note_on,51,0,0
1,note_on,51,42,0
1,note_on,44,50,0
1,note_on,44,0,240
1,note_on,51,0,0
1,note_on,68,43,1200
1,note_on,71,51,0
1,note_on,71,0,240
1,note_on,68,0,0
1,note_on,70,46,0
1,note_on,73,55,0
1,note_on,73,0,240
1,note_on,70,0,0
1,note_on,71,48,0
1,note_on,75,57,0
1,note_on,75,0,480
1,note_on,71,0,0
1,note_on,51,50,720
1,note_on,54,42,0
1,note_on,54,0,240
1,note_on,51,0,0
1,note_on,54,42,0
1,note_on,49,51,0
1,note_on,49,0,240
1,note_on,54,0,0
1,note_on,47,54,0
1,note_on,54,45,0
1,note_on,54,0,240
1,note_on,47,0,0
1,note_on,54,44,0
1,note_on,42,63,0
1,note_on,42,0,240
1,note_on,54,0,0
1,note_on,76,73,1200
1,note_on,73,62,0
1,note_on,73,0,240
1,note_on,76,0,0
1,note_on,80,70,0
1,note_on,76,58,0
1,note_on,76,0,240
1,note_on,80,0,0
1,note_on,78,65,0
1,note_on,75,69,0
1,note_on,75,0,480
1,note_on,78,0,0
1,note_on,54,43,960
1,note_on,51,59,0
1,note_on,51,0,240
1,note_on,54,0,0
1,note_on,54,40,0
1,note_on,49,48,0
1,note_on,49,0,240
1,note_on,54,0,0
1,note_on,54,42,0
1,note_on,47,50,0
1,note_on,47,0,240
1,note_on,54,0,0
1,note_on,75,61,960
1,note_on,75,0,240
1,note_on,73,64,0
1,note_on,73,0,240
1,note_on,71,66,0
1,note_on,71,0,240
1,note_on,68,66,0
1,note_on,68,0,480
1,note_on,52,65,720
1,note_on,52,0,240
1,note_on,51,68,0
1,note_on,51,0,240
1,note_on,49,71,0
1,note_on,49,0,240
1,note_on,46,76,0
1,note_on,46,0,960
1,note_on,47,61,0
1,note_on,47,0,240
1,note_on,75,68,0
1,note_on,75,0,240
1,note_on,76,73,0
1,note_on,76,0,240
1,note_on,77,77,0
1,note_on,77,0,240
1,note_on,78,82,0
1,note_on,78,0,1920
1,note_on,75,66,0
1,note_on,75,0,480
1,note_on,47,44,720
1,note_on,47,0,240
1,note_on,49,48,0
1,note_on,49,0,240
1,note_on,50,45,0
1,note_on,50,0,240
1,note_on,42,48,0
1,note_on,42,0,1920
1,note_on,35,44,0
1,note_on,35,0,480
1,note_on,75,55,720
1,note_on,75,0,240
1,note_on,75,55,0
1,note_on,75,0,240
1,note_on,76,55,0
1,note_on,76,0,240
1,note_on,75,60,0
1,note_on,73,51,0
1,note_on,70,51,0
1,note_on,70,0,480
1,note_on,73,0,0
1,note_on,75,0,0
1,note_on,70,55,0
1,note_on,70,0,240
1,note_on,51,55,480
1,note_on,39,46,0
1,note_on,39,0,240
1,note_on,51,0,0
1,note_on,39,46,0
1,note_on,51,55,0
1,note_on,51,0,240
1,note_on,39,0,0
1,note_on,34,46,0
1,note_on,46,55,0
1,note_on,46,0,240
1,note_on,34,0,0
1,note_on,47,60,0
1,note_on,35,51,0
1,note_on,35,0,480
1,note_on,47,0,0
1,note_on,44,59,0
1,note_on,32,50,0
1,note_on,32,0,240
1,note_on,44,0,0
1,note_on,71,58,480
1,note_on,75,69,0
1,note_on,75,0,240
1,note_on,71,0,0
1,note_on,75,69,0
1,note_on,71,58,0
1,note_on,71,0,240
1,note_on,75,0,0
1,note_on,71,58,0
1,note_on,76,69,0
1,note_on,76,0,240
1,note_on,71,0,0
1,note_on,70,53,0
1,note_on,73,53,0
1,note_on,75,75,0
1,note_on,75,0,480
1,note_on,73,0,0
1,note_on,70,0,0
1,note_on,70,69,0
1,note_on,70,0,240
1,note_on,51,63,480
1,note_on,39,52,0
1,note_on,39,0,240
1,note_on,51,0,0
1,note_on,51,63,0
1,note_on,39,52,0
1,note_on,39,0,240
1,note_on,51,0,0
1,note_on,34,52,0
1,note_on,46,63,0
1,note_on,46,0,240
1,note_on,34,0,0
1,note_on,35,58,0
1,note_on,47,69,0
1,note_on,47,0,480
1,note_on,35,0,0
1,note_on,44,64,0
1,note_on,32,54,0
1,note_on,32,0,240
1,note_on,44,0,0
1,note_on,75,72,480
1,note_on,75,0,240
1,note_on,75,75,0
1,note_on,75,0,240
1,note_on,75,79,0
1,note_on,75,0,240
1,note_on,76,83,0
1,note_on,76,0,240
1,note_on,40,77,240
1,note_on,40,0,960
1,note_on,72,70,0
1,note_on,72,0,360
1,note_on,74,67,0
1,note_on,74,0,120
1,note_on,76,79,0
1,note_on,76,0,240
1,note_on,40,77,240
1,note_on,40,0,960
1,note_on,72,70,0
1,note_on,72,0,360
1,note_on,74,67,0
1,note_on,74,0,120
1,note_on,76,77,0
1,note_on,76,0,240
1,note_on,40,66,240
1,note_on,40,0,960
1,note_on,39,49,0
1,note_on,39,0,480
1,note_on,38,56,0
1,note_on,38,0,240
1,note_on,77,55,240
1,note_on,77,0,720
1,note_on,77,50,0
1,note_on,77,0,240
1,note_on,79,53,0
1,note_on,79,0,240
1,note_on,80,56,0
1,note_on,80,0,240
1,note_on,79,63,0
1,note_on,79,0,240
1,note_on,39,42,240
1,note_on,39,0,480
1,note_on,77,57,240
1,note_on,77,0,240
1,note_on,75,50,0
1,note_on,75,0,240
1,note_on,74,50,0
1,note_on,74,0,240
1,note_on,72,59,0
1,note_on,72,0,240
1,note_on,44,29,240
1,note_on,44,0,480
1,note_on,41,26,0
1,note_on,41,0,240
1,note_on,72,47,240
1,note_on,72,0,480
1,note_on,74,51,0
1,note_on,74,0,240
1,note_on,46,34,240
1,note_on,46,0,480
1,note_on,47,39,0
1,note_on,47,0,480
1,note_on,46,35,0
1,note_on,46,0,480
1,note_on,75,46,0
1,note_on,75,0,480
1,note_on,39,49,480
1,note_on,39,0,960
1,note_on,41,61,0
1,note_on,41,0,960
1,note_on,43,39,0
1,note_on,43,0,960
1,note_on,44,39,0
1,note_on,44,0,480
1,note_on,68,45,960
1,note_on,68,0,240
1,note_on,70,48,0
1,note_on,67,40,0
1,note_on,67,0,240
1,note_on,70,0,0
1,note_on,68,42,0
1,note_on,72,50,0
1,note_on,72,0,480
1,note_on,68,0,0
1,note_on,48,44,720
1,note_on,51,37,0
1,note_on,51,0,240
1,note_on,48,0,0
1,note_on,51,39,0
1,note_on,46,47,0
1,note_on,46,0,240
1,note_on,51,0,0
1,note_on,44,50,0
1,note_on,51,42,0
1,note_on,51,0,240
1,note_on,44,0,0
1,note_on,51,39,0
1,note_on,39,55,0
1,note_on,39,0,240
1,note_on,51,0,0
1,note_on,70,54,1200
1,note_on,73,64,0
1,note_on,73,0,240
1,note_on,70,0,0
1,note_on,77,61,0
1,note_on,73,51,0
1,note_on,73,0,240
1,note_on,77,0,0
1,note_on,72,48,0
1,note_on,75,57,0
1,note_on,75,0,480
1,note_on,72,0,0
1,note_on,51,41,960
1,note_on,48,57,0
1,note_on,48,0,240
1,note_on,51,0,0
1,note_on,51,39,0
1,note_on,46,47,0
1,note_on,46,0,240
1,note_on,51,0,0
1,note_on,44,50,0
1,note_on,51,42,0
1,note_on,51,0,238
1,note_on,44,0,2
1,note_on,72,51,1200
1,note_on,68,43,0
1,note_on,68,0,240
1,note_on,72,0,0
1,note_on,70,46,0
1,note_on,73,55,0
1,note_on,73,0,240
1,note_on,70,0,0
1,note_on,72,48,0
1,note_on,75,57,0
1,note_on,75,0,480
1,note_on,72,0,0
1,note_on,48,42,720
1,note_on,44,42,0
1,note_on,51,50,0
1,note_on,51,0,240
1,note_on,48,0,0
1,note_on,49,42,0
1,note_on,53,51,0
1,note_on,53,0,240
1,note_on,49,0,0
1,note_on,55,54,0
1,note_on,46,45,0
1,note_on,46,0,240
1,note_on,55,0,0
1,note_on,56,44,0
1,note_on,48,63,0
1,note_on,48,0,240
1,note_on,56,0,0
1,note_on,44,0,0
1,note_on,80,69,960
1,note_on,72,58,0
1,note_on,72,0,240
1,note_on,80,0,0
1,note_on,75,55,0
1,note_on,79,65,0
1,note_on,79,0,240
1,note_on,75,0,0
1,note_on,77,63,0
1,note_on,73,52,0
1,note_on,73,0,240
1,note_on,77,0,0
1,note_on,75,61,0
1,note_on,72,60,0
1,note_on,72,0,480
1,note_on,75,0,0
1,note_on,48,48,720
1,note_on,51,48,0
1,note_on,51,0,240
1,note_on,48,0,0
1,note_on,49,41,0
1,note_on,46,34,0
1,note_on,46,0,240
1,note_on,49,0,0
1,note_on,39,33,0
1,note_on,46,39,0
1,note_on,46,0,240
1,note_on,39,0,0
1,note_on,44,40,0
1,note_on,48,48,0
1,note_on,48,0,240
1,note_on,44,0,0
1,note_on,72,36,1200
1,note_on,68,30,0
1,note_on,68,0,240
1,note_on,72,0,0
1,note_on,73,38,0
1,note_on,70,32,0
1,note_on,70,0,240
1,note_on,73,0,0
1,note_on,72,34,0
1,note_on,75,41,0
1,note_on,75,0,480
1,note_on,72,0,0
1,note_on,51,30,720
1,note_on,48,25,0
1,note_on,44,25,0
1,note_on,48,0,240
1,note_on,51,0,0
1,note_on,49,27,0
1,note_on,53,32,0
1,note_on,53,0,240
1,note_on,49,0,0
1,note_on,55,34,0
1,note_on,46,28,0
1,note_on,46,0,240
1,note_on,55,0,0
1,note_on,48,37,0
1,note_on,56,44,0
1,note_on,56,0,240
1,note_on,48,0,0
1,note_on,44,0,0
1,note_on,72,35,960
1,note_on,80,42,0
1,note_on,80,0,240
1,note_on,72,0,0
1,note_on,75,33,0
1,note_on,79,39,0
1,note_on,79,0,240
1,note_on,75,0,0
1,note_on,77,36,0
1,note_on,73,30,0
1,note_on,73,0,240
1,note_on,77,0,0
1,note_on,75,42,0
1,note_on,72,35,0
1,note_on,72,0,480
1,note_on,75,0,0
1,note_on,48,37,720
1,note_on,51,37,0
1,note_on,51,0,240
1,note_on,48,0,0
1,note_on,46,28,0
1,note_on,49,33,0
1,note_on,49,0,240
1,note_on,46,0,0
1,note_on,46,33,0
1,note_on,39,28,0
1,note_on,39,0,240
1,note_on,46,0,0
1,note_on,48,37,0
1,note_on,44,31,0
1,note_on,44,0,240
1,note_on,48,0,0
1,note_on,51,37,960
1,note_on,48,37,0
1,note_on,48,0,240
1,note_on,51,0,0
1,note_on,46,28,0
1,note_on,49,33,0
1,note_on,49,0,240
1,note_on,46,0,0
1,note_on,39,28,0
1,note_on,46,33,0
1,note_on,46,0,240
1,note_on,39,0,0
1,note_on,44,31,0
1,note_on,48,37,0
1,note_on,48,0,240
1,note_on,44,0,0
1,note_on,51,32,960
1,note_on,48,32,0
1,note_on,48,0,240
1,note_on,51,0,0
1,note_on,46,23,0
1,note_on,49,28,0
1,note_on,49,0,240
1,note_on,46,0,0
1,note_on,39,23,0
1,note_on,46,27,0
1,note_on,46,0,240
1,note_on,39,0,0
1,note_on,32,24,0
1,note_on,36,24,0
1,note_on,44,29,0
1,note_on,44,0,240
1,note_on,36,0,0
1,note_on,32,0,0
1,note_on,56,26,1680
1,note_on,56,0,120
1,note_on,60,22,0
1,note_on,60,0,120
1,note_on,48,22,0
1,note_on,48,0,120
1,note_on,51,22,0
1,note_on,51,0,120
1,note_on,56,24,0
1,note_on,56,0,120
1,note_on,60,18,0
1,note_on,60,0,120
1,note_on,48,18,0
1,note_on,48,0,120
1,note_on,51,18,0
1,note_on,51,0,120
1,note_on,56,26,0
1,note_on,56,0,120
1,note_on,60,22,0
1,note_on,60,0,120
1,note_on,48,22,0
1,note_on,48,0,120
1,note_on,51,22,0
1,note_on,51,0,120
1,note_on,56,31,0
1,note_on,56,0,120
1,note_on,60,24,0
1,note_on,60,0,120
1,note_on,48,24,0
1,note_on,48,0,120
1,note_on,51,24,0
1,note_on,51,0,120
1,note_on,58,34,0
1,note_on,58,0,120
1,note_on,60,24,0
1,note_on,60,0,120
1,note_on,48,24,0
1,note_on,48,0,120
1,note_on,52,24,0
1,note_on,52,0,120
1,note_on,58,37,0
1,note_on,58,0,120
1,note_on,60,29,0
1,note_on,60,0,120
1,note_on,52,31,0
1,note_on,52,0,120
1,note_on,58,31,0
1,note_on,58,0,120
1,note_on,60,47,0
1,note_on,60,0,120
1,note_on,64,33,0
1,note_on,64,0,120
1,note_on,58,34,0
1,note_on,58,0,120
1,note_on,60,35,0
1,note_on,60,0,120
1,note_on,64,51,0
1,note_on,64,0,120
1,note_on,70,39,0
1,note_on,70,0,120
1,note_on,60,41,0
1,note_on,60,0,120
1,note_on,64,42,0
1,note_on,64,0,120
1,note_on,70,56,0
1,note_on,70,0,120
1,note_on,72,45,0
1,note_on,72,0,120
1,note_on,60,47,0
1,note_on,60,0,120
1,note_on,64,49,0
1,note_on,64,0,120
1,note_on,70,60,0
1,note_on,70,0,120
1,note_on,72,48,0
1,note_on,72,0,120
1,note_on,60,50,0
1,note_on,60,0,120
1,note_on,64,51,0
1,note_on,64,0,120
1,note_on,70,64,0
1,note_on,70,0,120
1,note_on,72,50,0
1,note_on,72,0,120
1,note_on,60,52,0
1,note_on,60,0,120
1,note_on,64,55,0
1,note_on,64,0,120
1,note_on,70,69,0
1,note_on,70,0,120
1,note_on,72,59,0
1,note_on,72,0,120
1,note_on,60,61,0
1,note_on,60,0,120
1,note_on,64,63,0
1,note_on,64,0,120
1,note_on,60,55,0
1,note_on,60,0,40
1,note_on,65,60,0
1,note_on,65,0,40
1,note_on,68,66,0
1,note_on,68,0,40
1,note_on,72,76,0
1,note_on,72,0,720
1,note_on,70,57,0
1,note_on,70,0,120
1,note_on,68,67,0
1,note_on,68,0,360
1,note_on,70,58,0
1,note_on,70,0,120
1,note_on,67,68,0
1,note_on,67,0,360
1,note_on,68,51,0
1,note_on,68,0,120
1,note_on,65,60,0
1,note_on,65,0,360
1,note_on,66,51,0
1,note_on,66,0,120
1,note_on,63,62,0
1,note_on,63,0,360
1,note_on,65,52,0
1,note_on,65,0,120
1,note_on,61,60,0
1,note_on,61,0,360
1,note_on,63,51,0
1,note_on,63,0,120
1,note_on,60,60,0
1,note_on,60,0,360
1,note_on,61,51,0
1,note_on,61,0,120
1,note_on,58,60,0
1,note_on,58,0,360
1,note_on,60,53,0
1,note_on,60,0,120
1,note_on,56,63,0
1,note_on,56,0,360
1,note_on,58,60,0
1,note_on,58,0,120
1,note_on,54,68,0
1,note_on,54,0,360
1,note_on,56,63,0
1,note_on,56,0,120
1,note_on,53,72,0
1,note_on,53,0,360
1,note_on,55,67,0
1,note_on,55,0,120
1,note_on,52,78,0
1,note_on,52,0,240
1,note_on,73,79,240
1,note_on,67,66,0
1,note_on,70,66,0
1,note_on,70,0,240
1,note_on,67,0,0
1,note_on,73,0,0
1,note_on,72,41,720
1,note_on,72,0,40
1,note_on,73,41,0
1,note_on,73,0,40
1,note_on,75,37,0
1,note_on,75,0,40
1,note_on,73,47,0
1,note_on,73,0,240
1,note_on,72,41,0
1,note_on,72,0,120
1,note_on,72,47,0
1,note_on,72,0,480
1,note_on,77,53,0
1,note_on,77,0,640
1,note_on,67,39,0
1,note_on,67,0,160
1,note_on,70,39,0
1,note_on,70,0,160
1,note_on,73,44,0
1,note_on,73,0,160
1,note_on,70,38,0
1,note_on,70,0,160
1,note_on,67,37,0
1,note_on,67,0,160
1,note_on,65,46,0
1,note_on,65,0,960
1,note_on,64,41,0
1,note_on,64,0,240
1,note_on,78,51,0
1,note_on,78,0,120
1,note_on,79,53,0
1,note_on,79,0,120
1,note_on,80,56,0
1,note_on,80,0,120
1,note_on,81,58,0
1,note_on,81,0,120
1,note_on,82,61,0
1,note_on,82,0,120
1,note_on,83,63,0
1,note_on,83,0,120
1,note_on,72,55,0
1,note_on,72,0,40
1,note_on,77,60,0
1,note_on,77,0,40
1,note_on,80,66,0
1,note_on,80,0,40
1,note_on,84,75,0
1,note_on,84,0,720
1,note_on,82,47,0
1,note_on,82,0,120
1,note_on,80,60,0
1,note_on,80,0,360
1,note_on,92,60,0
1,note_on,92,0,120
1,note_on,79,60,0
1,note_on,79,0,360
1,note_on,91,58,0
1,note_on,91,0,120
1,note_on,77,60,0
1,note_on,77,0,360
1,note_on,89,58,0
1,note_on,89,0,120
1,note_on,75,62,0
1,note_on,75,0,360
1,note_on,87,68,0
1,note_on,87,0,120
1,note_on,73,60,0
1,note_on,73,0,360
1,note_on,85,65,0
1,note_on,85,0,120
1,note_on,72,60,0
1,note_on,72,0,360
1,note_on,84,61,0
1,note_on,84,0,120
1,note_on,70,60,0
1,note_on,70,0,120
1,note_on,82,52,6
1,note_on,70,52,114
1,note_on,82,0,6
1,note_on,70,0,114
1,note_on,82,47,0
1,note_on,82,0,120
1,note_on,68,63,0
1,note_on,68,0,120
1,note_on,80,56,0
1,note_on,80,0,120
1,note_on,68,57,0
1,note_on,68,0,120
1,note_on,80,60,0
1,note_on,80,0,120
1,note_on,66,68,0
1,note_on,66,0,120
1,note_on,78,62,0
1,note_on,78,0,120
1,note_on,66,63,0
1,note_on,66,0,120
1,note_on,78,58,0
1,note_on,78,0,120
1,note_on,65,72,0
1,note_on,65,0,120
1,note_on,77,65,0
1,note_on,77,0,120
1,note_on,65,67,0
1,note_on,65,0,120
1,note_on,77,62,0
1,note_on,77,0,120
1,note_on,76,83,0
1,note_on,64,70,0
1,note_on,64,0,240
1,note_on,76,0,0
1,note_on,85,90,240
1,note_on,82,75,0
1,note_on,79,75,0
1,note_on,79,0,240
1,note_on,82,0,0
1,note_on,85,0,0
1,note_on,72,41,720
1,note_on,72,0,40
1,note_on,73,41,0
1,note_on,73,0,40
1,note_on,75,38,0
1,note_on,75,0,40
1,note_on,73,47,0
1,note_on,73,0,240
1,note_on,72,41,0
1,note_on,72,0,120
1,note_on,72,46,0
1,note_on,72,0,160
1,note_on,80,53,0
1,note_on,80,0,160
1,note_on,79,47,0
1,note_on,79,0,160
1,note_on,77,47,0
1,note_on,77,0,160
1,note_on,72,43,0
1,note_on,72,0,160
1,note_on,68,43,0
1,note_on,68,0,160
1,note_on,67,47,0
1,note_on,67,0,160
1,note_on,75,52,0
1,note_on,75,0,160
1,note_on,72,39,0
1,note_on,72,0,160
1,note_on,73,44,0
1,note_on,73,0,160
1,note_on,70,38,0
1,note_on,70,0,160
1,note_on,67,37,0
1,note_on,67,0,160
1,note_on,65,53,0
1,note_on,65,0,160
1,note_on,60,48,0
1,note_on,60,0,160
1,note_on,65,49,0
1,note_on,65,0,160
1,note_on,68,58,0
1,note_on,68,0,160
1,note_on,65,50,0
1,note_on,65,0,160
1,note_on,73,51,0
1,note_on,73,0,160
1,note_on,72,66,0
1,note_on,72,0,240
1,note_on,76,78,240
1,note_on,72,66,0
1,note_on,67,66,0
1,note_on,67,0,180
1,note_on,72,0,0
1,note_on,76,0,0
1,note_on,68,66,300
1,note_on,72,66,0
1,note_on,77,78,0
1,note_on,77,0,180
1,note_on,72,0,0
1,note_on,68,0,0
1,note_on,68,45,60
1,note_on,68,0,120
1,note_on,72,28,0
1,note_on,72,0,120
1,note_on,68,39,0
1,note_on,68,0,120
1,note_on,72,28,0
1,note_on,72,0,120
1,note_on,68,38,0
1,note_on,68,0,120
1,note_on,72,31,0
1,note_on,72,0,120
1,note_on,67,45,0
1,note_on,67,0,120
1,note_on,71,30,0
1,note_on,71,0,120
1,note_on,68,45,0
1,note_on,68,0,120
1,note_on,72,32,0
1,note_on,72,0,120
1,note_on,68,39,0
1,note_on,68,0,120
1,note_on,72,27,0
1,note_on,72,0,120
1,note_on,68,40,0
1,note_on,68,0,120
1,note_on,72,30,0
1,note_on,72,0,120
1,note_on,69,45,0
1,note_on,69,0,120
1,note_on,75,31,0
1,note_on,75,0,120
1,note_on,70,38,0
1,note_on,70,0,120
1,note_on,73,30,0
1,note_on,73,0,120
1,note_on,70,38,0
1,note_on,70,0,120
1,note_on,73,31,0
1,note_on,73,0,120
1,note_on,70,33,0
1,note_on,70,0,120
1,note_on,73,28,0
1,note_on,73,0,120
1,note_on,73,47,0
1,note_on,73,0,120
1,note_on,77,38,0
1,note_on,77,0,120
1,note_on,70,45,0
1,note_on,70,0,120
1,note_on,73,32,0
1,note_on,73,0,120
1,note_on,68,40,0
1,note_on,68,0,120
1,note_on,73,31,0
1,note_on,73,0,120
1,note_on,67,37,0
1,note_on,67,0,120
1,note_on,73,31,0
1,note_on,73,0,120
1,note_on,68,45,0
1,note_on,68,0,120
1,note_on,75,30,0
1,note_on,75,0,120
1,note_on,68,36,0
1,note_on,68,0,120
1,note_on,72,27,0
1,note_on,72,0,120
1,note_on,68,38,0
1,note_on,68,0,120
1,note_on,72,31,0
1,note_on,72,0,120
1,note_on,68,33,0
1,note_on,68,0,120
1,note_on,72,28,0
1,note_on,72,0,120
1,note_on,68,47,0
1,note_on,68,0,120
1,note_on,72,30,0
1,note_on,72,0,120
1,note_on,66,35,0
1,note_on,66,0,120
1,note_on,70,31,0
1,note_on,70,0,120
1,note_on,66,40,0
1,note_on,66,0,120
1,note_on,70,28,0
1,note_on,70,0,120
1,note_on,66,36,0
1,note_on,66,0,120
1,note_on,70,29,0
1,note_on,70,0,120
1,note_on,66,45,0
1,note_on,66,0,120
1,note_on,70,27,0
1,note_on,70,0,120
1,note_on,65,34,0
1,note_on,65,0,120
1,note_on,68,27,0
1,note_on,68,0,120
1,note_on,65,36,0
1,note_on,65,0,120
1,note_on,68,27,0
1,note_on,68,0,120
1,note_on,65,32,0
1,note_on,65,0,120
1,note_on,68,28,0
1,note_on,68,0,120
1,note_on,65,45,0
1,note_on,65,0,120
1,note_on,68,27,0
1,note_on,68,0,120
1,note_on,64,33,0
1,note_on,64,0,120
1,note_on,67,27,0
1,note_on,67,0,120
1,note_on,64,39,0
1,note_on,64,0,120
1,note_on,67,28,0
1,note_on,67,0,120
1,note_on,64,36,0
1,note_on,64,0,120
1,note_on,67,29,0
1,note_on,67,0,120
1,note_on,65,54,0
1,note_on,65,0,240
1,note_on,69,45,0
1,note_on,69,0,120
1,note_on,72,28,0
1,note_on,72,0,120
1,note_on,69,39,0
1,note_on,69,0,120
1,note_on,72,28,0
1,note_on,72,0,120
1,note_on,69,38,0
1,note_on,69,0,120
1,note_on,72,31,0
1,note_on,72,0,120
1,note_on,68,45,0
1,note_on,68,0,120
1,note_on,71,30,0
1,note_on,71,0,120
1,note_on,69,45,0
1,note_on,69,0,120
1,note_on,72,32,0
1,note_on,72,0,120
1,note_on,69,39,0
1,note_on,69,0,120
1,note_on,72,27,0
1,note_on,72,0,120
1,note_on,69,40,0
1,note_on,69,0,120
1,note_on,72,30,0
1,note_on,72,0,120
1,note_on,69,45,0
1,note_on,69,0,120
1,note_on,75,31,0
1,note_on,75,0,120
1,note_on,70,38,0
1,note_on,70,0,120
1,note_on,74,30,0
1,note_on,74,0,120
1,note_on,70,38,0
1,note_on,70,0,120
1,note_on,74,31,0
1,note_on,74,0,120
1,note_on,70,33,0
1,note_on,70,0,120
1,note_on,74,28,0
1,note_on,74,0,120
1,note_on,74,47,0
1,note_on,74,0,120
1,note_on,77,38,0
1,note_on,77,0,120
1,note_on,70,45,0
1,note_on,70,0,120
1,note_on,74,32,0
1,note_on,74,0,120
1,note_on,69,40,0
1,note_on,69,0,120
1,note_on,74,31,0
1,note_on,74,0,120
1,note_on,68,37,0
1,note_on,68,0,120
1,note_on,74,31,0
1,note_on,74,0,120
1,note_on,69,45,0
1,note_on,69,0,120
1,note_on,74,30,6
1,note_on,69,36,114
1,note_on,74,0,6
1,note_on,69,0,114
1,note_on,72,27,0
1,note_on,72,0,120
1,note_on,69,38,0
1,note_on,69,0,120
1,note_on,72,31,0
1,note_on,72,0,120
1,note_on,69,33,0
1,note_on,69,0,120
1,note_on,72,28,0
1,note_on,72,0,120
1,note_on,69,47,0
1,note_on,69,0,120
1,note_on,72,30,0
1,note_on,72,0,120
1,note_on,62,35,0
1,note_on,62,0,120
1,note_on,67,31,0
1,note_on,67,0,120
1,note_on,70,50,0
1,note_on,70,0,120
1,note_on,74,34,0
1,note_on,74,0,120
1,note_on,72,43,0
1,note_on,72,0,120
1,note_on,70,35,0
1,note_on,70,0,120
1,note_on,67,45,0
1,note_on,67,0,120
1,note_on,70,27,0
1,note_on,70,0,120
1,note_on,60,34,0
1,note_on,60,0,120
1,note_on,65,27,0
1,note_on,65,0,120
1,note_on,69,47,0
1,note_on,69,0,120
1,note_on,72,35,0
1,note_on,72,0,120
1,note_on,70,41,0
1,note_on,70,0,120
1,note_on,69,36,0
1,note_on,69,0,120
1,note_on,66,45,0
1,note_on,66,0,120
1,note_on,69,27,0
1,note_on,69,0,120
1,note_on,60,33,0
1,note_on,60,0,120
1,note_on,64,27,0
1,note_on,64,0,120
1,note_on,67,46,0
1,note_on,67,0,120
1,note_on,70,36,0
1,note_on,70,0,120
1,note_on,69,40,0
1,note_on,69,0,120
1,note_on,67,34,0
1,note_on,67,0,120
1,note_on,65,50,0
1,note_on,65,0,240
1,note_on,69,45,0
1,note_on,69,0,120
1,note_on,72,28,0
1,note_on,72,0,120
1,note_on,69,39,0
1,note_on,69,0,120
1,note_on,72,28,0
1,note_on,72,0,120
1,note_on,69,38,0
1,note_on,69,0,120
1,note_on,72,31,0
1,note_on,72,0,120
1,note_on,68,45,0
1,note_on,68,0,120
1,note_on,71,30,0
1,note_on,71,0,120
1,note_on,69,45,0
1,note_on,69,0,120
1,note_on,72,32,0
1,note_on,72,0,120
1,note_on,69,39,0
1,note_on,69,0,120
1,note_on,72,27,0
1,note_on,72,0,120
1,note_on,69,40,0
1,note_on,69,0,120
1,note_on,72,30,0
1,note_on,72,0,120
1,note_on,69,45,0
1,note_on,69,0,120
1,note_on,72,37,0
1,note_on,72,0,120
1,note_on,70,44,0
1,note_on,70,0,120
1,note_on,73,39,0
1,note_on,73,0,120
1,note_on,76,52,0
1,note_on,76,0,120
1,note_on,79,46,0
1,note_on,79,0,120
1,note_on,69,44,0
1,note_on,69,0,120
1,note_on,72,36,0
1,note_on,72,0,120
1,note_on,70,48,0
1,note_on,70,0,120
1,note_on,73,51,0
1,note_on,73,0,120
1,note_on,76,55,0
1,note_on,76,0,120
1,note_on,79,58,0
1,note_on,79,0,120
1,note_on,77,61,0
1,note_on,77,0,120
1,note_on,76,59,0
1,note_on,76,0,120
1,note_on,74,57,0
1,note_on,74,0,120
1,note_on,76,62,0
1,note_on,76,0,120
1,note_on,77,67,0
1,note_on,77,0,240
1,note_on,69,51,0
1,note_on,69,0,120
1,note_on,72,32,0
1,note_on,72,0,120
1,note_on,69,44,0
1,note_on,69,0,120
1,note_on,72,32,0
1,note_on,72,0,120
1,note_on,69,43,0
1,note_on,69,0,120
1,note_on,72,35,0
1,note_on,72,0,120
1,note_on,68,51,0
1,note_on,68,0,120
1,note_on,71,34,0
1,note_on,71,0,120
1,note_on,69,51,0
1,note_on,69,0,120
1,note_on,72,36,0
1,note_on,72,0,120
1,note_on,69,44,0
1,note_on,69,0,120
1,note_on,72,31,0
1,note_on,72,0,120
1,note_on,69,46,0
1,note_on,69,0,120
1,note_on,72,34,0
1,note_on,72,0,120
1,note_on,71,51,0
1,note_on,71,0,120
1,note_on,74,42,0
1,note_on,74,0,120
1,note_on,72,50,0
1,note_on,72,0,120
1,note_on,75,44,0
1,note_on,75,0,120
1,note_on,78,59,0
1,note_on,78,0,120
1,note_on,81,52,0
1,note_on,81,0,120
1,note_on,71,50,0
1,note_on,71,0,120
1,note_on,74,41,0
1,note_on,74,0,120
1,note_on,72,55,0
1,note_on,72,0,120
1,note_on,75,58,0
1,note_on,75,0,120
1,note_on,78,63,0
1,note_on,78,0,120
1,note_on,81,66,0
1,note_on,81,0,120
1,note_on,79,70,0
1,note_on,79,0,120
1,note_on,78,67,0
1,note_on,78,0,120
1,note_on,76,65,0
1,note_on,76,0,120
1,note_on,78,71,0
1,note_on,78,0,120
1,note_on,79,77,0
1,note_on,79,0,240
1,note_on,70,51,0
1,note_on,70,0,120
1,note_on,74,32,0
1,note_on,74,0,120
1,note_on,70,44,0
1,note_on,70,0,120
1,note_on,74,32,0
1,note_on,74,0,120
1,note_on,70,43,0
1,note_on,70,0,120
1,note_on,74,35,0
1,note_on,74,0,120
1,note_on,69,51,0
1,note_on,69,0,120
1,note_on,73,34,0
1,note_on,73,0,120
1,note_on,70,51,0
1,note_on,70,0,120
1,note_on,74,36,0
1,note_on,74,0,120
1,note_on,70,44,0
1,note_on,70,0,120
1,note_on,74,31,0
1,note_on,74,0,120
1,note_on,70,46,0
1,note_on,70,0,120
1,note_on,74,34,0
1,note_on,74,0,120
1,note_on,79,72,0
1,note_on,79,0,120
1,note_on,70,35,0
1,note_on,70,0,120
1,note_on,73,46,0
1,note_on,73,0,120
1,note_on,70,32,0
1,note_on,70,0,120
1,note_on,72,44,0
1,note_on,72,0,120
1,note_on,70,32,0
1,note_on,70,0,120
1,note_on,73,43,0
1,note_on,73,0,120
1,note_on,70,35,0
1,note_on,70,0,120
1,note_on,77,67,0
1,note_on,77,0,120
1,note_on,69,34,0
1,note_on,69,0,120
1,note_on,74,45,0
1,note_on,74,0,120
1,note_on,69,36,0
1,note_on,69,0,120
1,note_on,72,44,0
1,note_on,72,0,120
1,note_on,69,31,0
1,note_on,69,0,120
1,note_on,77,63,0
1,note_on,77,0,120
1,note_on,69,34,0
1,note_on,69,0,120
1,note_on,79,61,0
1,note_on,82,72,0
1,note_on,82,0,120
1,note_on,79,0,0
1,note_on,70,35,0
1,note_on,70,0,120
1,note_on,73,46,0
1,note_on,73,0,120
1,note_on,70,32,0
1,note_on,70,0,120
1,note_on,72,44,0
1,note_on,72,0,120
1,note_on,70,32,0
1,note_on,70,0,120
1,note_on,73,43,0
1,note_on,73,0,120
1,note_on,70,35,0
1,note_on,70,0,120
1,note_on,81,67,0
1,note_on,77,56,0
1,note_on,77,0,120
1,note_on,81,0,0
1,note_on,69,34,0
1,note_on,69,0,120
1,note_on,74,45,0
1,note_on,74,0,120
1,note_on,69,36,0
1,note_on,69,0,120
1,note_on,72,44,0
1,note_on,72,0,120
1,note_on,69,31,0
1,note_on,69,0,120
1,note_on,77,63,0
1,note_on,77,0,120
1,note_on,69,34,0
1,note_on,69,0,120
1,note_on,81,70,0
1,note_on,81,0,120
1,note_on,84,52,0
1,note_on,84,0,120
1,note_on,74,57,0
1,note_on,74,0,120
1,note_on,79,53,0
1,note_on,79,0,120
1,note_on,82,62,0
1,note_on,82,0,120
1,note_on,86,69,0
1,note_on,86,0,120
1,note_on,84,57,0
1,note_on,84,0,120
1,note_on,82,57,0
1,note_on,82,0,120
1,note_on,79,63,0
1,note_on,79,0,120
1,note_on,82,53,0
1,note_on,82,0,120
1,note_on,72,53,0
1,note_on,72,0,120
1,note_on,77,50,0
1,note_on,77,0,120
1,note_on,81,62,0
1,note_on,81,0,120
1,note_on,84,67,0
1,note_on,84,0,120
1,note_on,82,53,0
1,note_on,82,0,120
1,note_on,81,49,0
1,note_on,81,0,120
1,note_on,78,66,0
1,note_on,78,0,120
1,note_on,81,47,0
1,note_on,81,0,120
1,note_on,72,53,0
1,note_on,72,0,120
1,note_on,76,50,0
1,note_on,76,0,120
1,note_on,79,61,0
1,note_on,79,0,120
1,note_on,82,66,0
1,note_on,82,0,120
1,note_on,81,53,0
1,note_on,81,0,120
1,note_on,79,49,0
1,note_on,79,0,120
1,note_on,77,67,0
1,note_on,77,0,120
1,note_on,76,57,0
1,note_on,76,0,120
1,note_on,74,64,0
1,note_on,74,0,120
1,note_on,73,65,0
1,note_on,73,0,120
1,note_on,72,67,0
1,note_on,72,0,120
1,note_on,70,68,0
1,note_on,70,0,120
1,note_on,69,69,0
1,note_on,69,0,120
1,note_on,67,71,0
1,note_on,67,0,120
1,note_on,65,75,0
1,note_on,65,0,240
1,note_on,53,72,0
1,note_on,53,0,120
1,note_on,53,72,120
1,note_on,53,0,120
1,note_on,53,72,120
1,note_on,53,0,120
1,note_on,52,78,120
1,note_on,52,0,240
1,note_on,53,69,0
1,note_on,53,0,120
1,note_on,53,69,120
1,note_on,53,0,120
1,note_on,53,69,120
1,note_on,53,0,120
1,note_on,54,72,120
1,note_on,54,0,360
1,note_on,55,64,0
1,note_on,55,0,60
1,note_on,57,59,0
1,note_on,57,0,60
1,note_on,55,72,0
1,note_on,55,0,360
1,note_on,57,65,0
1,note_on,57,0,60
1,note_on,58,62,0
1,note_on,58,0,60
1,note_on,60,72,0
1,note_on,60,0,120
1,note_on,64,70,120
1,note_on,64,0,120
1,note_on,67,70,0
1,note_on,67,0,120
1,note_on,72,67,0
1,note_on,72,0,120
1,note_on,76,70,0
1,note_on,76,0,120
1,note_on,79,73,0
1,note_on,79,0,120
1,note_on,84,75,0
1,note_on,84,0,120
1,note_on,77,78,0
1,note_on,77,0,240
1,note_on,53,72,0
1,note_on,53,0,120
1,note_on,53,72,120
1,note_on,53,0,120
1,note_on,53,72,120
1,note_on,53,0,120
1,note_on,52,78,120
1,note_on,52,0,240
1,note_on,53,69,0
1,note_on,53,0,120
1,note_on,53,69,120
1,note_on,53,0,120
1,note_on,53,69,120
1,note_on,53,0,120
1,note_on,54,72,120
1,note_on,54,0,360
1,note_on,55,64,0
1,note_on,55,0,60
1,note_on,57,59,0
1,note_on,57,0,60
1,note_on,55,72,0
1,note_on,55,0,360
1,note_on,57,65,0
1,note_on,57,0,60
1,note_on,58,60,0
1,note_on,58,0,60
1,note_on,60,72,0
1,note_on,60,0,120
1,note_on,61,70,120
1,note_on,61,0,120
1,note_on,64,70,0
1,note_on,64,0,120
1,note_on,69,67,0
1,note_on,69,0,120
1,note_on,73,70,0
1,note_on,73,0,120
1,note_on,76,73,0
1,note_on,76,0,120
1,note_on,81,75,0
1,note_on,81,0,120
1,note_on,74,78,0
1,note_on,74,0,240
1,note_on,62,72,0
1,note_on,53,61,0
1,note_on,53,0,120
1,note_on,62,0,0
1,note_on,53,61,120
1,note_on,62,72,0
1,note_on,62,0,120
1,note_on,53,0,0
1,note_on,53,61,120
1,note_on,62,72,0
1,note_on,62,0,120
1,note_on,53,0,0
1,note_on,53,61,120
1,note_on,61,78,0
1,note_on,61,0,240
1,note_on,53,0,0
1,note_on,53,58,0
1,note_on,62,69,0
1,note_on,62,0,120
1,note_on,53,0,0
1,note_on,62,69,120
1,note_on,53,58,0
1,note_on,53,0,120
1,note_on,62,0,0
1,note_on,53,58,120
1,note_on,62,69,0
1,note_on,62,0,120
1,note_on,53,0,0
1,note_on,62,72,120
1,note_on,56,61,0
1,note_on,62,0,360
1,note_on,63,64,0
1,note_on,63,0,60
1,note_on,65,59,0
1,note_on,65,0,60
1,note_on,56,0,0
1,note_on,63,72,0
1,note_on,55,61,0
1,note_on,55,0,240
1,note_on,63,0,120
1,note_on,65,65,0
1,note_on,65,0,60
1,note_on,66,61,0
1,note_on,66,0,60
1,note_on,65,72,0
1,note_on,63,61,0
1,note_on,57,61,0
1,note_on,57,0,120
1,note_on,63,0,0
1,note_on,65,0,0
1,note_on,69,70,120
1,note_on,69,0,120
1,note_on,72,70,0
1,note_on,72,0,120
1,note_on,77,67,0
1,note_on,77,0,120
1,note_on,81,70,0
1,note_on,81,0,120
1,note_on,84,73,0
1,note_on,84,0,120
1,note_on,89,75,0
1,note_on,89,0,120
1,note_on,82,78,0
1,note_on,82,0,240
1,note_on,62,72,0
1,note_on,53,61,0
1,note_on,53,0,120
1,note_on,62,0,0
1,note_on,53,61,120
1,note_on,62,72,0
1,note_on,62,0,120
1,note_on,53,0,0
1,note_on,53,61,120
1,note_on,62,72,0
1,note_on,62,0,120
1,note_on,53,0,0
1,note_on,61,78,120
1,note_on,53,61,0
1,note_on,53,0,240
1,note_on,61,0,0
1,note_on,53,58,0
1,note_on,62,69,0
1,note_on,62,0,120
1,note_on,53,0,0
1,note_on,62,69,120
1,note_on,53,58,0
1,note_on,53,0,120
1,note_on,62,0,0
1,note_on,53,58,120
1,note_on,62,69,0
1,note_on,62,0,120
1,note_on,53,0,0
1,note_on,68,78,120
1,note_on,62,61,0
1,note_on,59,61,0
1,note_on,59,0,240
1,note_on,62,0,0
1,note_on,68,0,0
1,note_on,59,58,0
1,note_on,62,58,0
1,note_on,67,69,0
1,note_on,67,0,120
1,note_on,62,0,0
1,note_on,59,0,0
1,note_on,59,58,120
1,note_on,62,58,0
1,note_on,67,69,0
1,note_on,67,0,120
1,note_on,62,0,0
1,note_on,59,0,0
1,note_on,62,58,120
1,note_on,67,69,0
1,note_on,59,58,0
1,note_on,59,0,120
1,note_on,67,0,0
1,note_on,62,0,0
1,note_on,64,72,120
1,note_on,60,61,0
1,note_on,60,0,120
1,note_on,64,0,0
1,note_on,64,70,120
1,note_on,67,70,120
1,note_on,67,0,120
1,note_on,64,0,0
1,note_on,72,67,0
1,note_on,72,0,120
1,note_on,76,70,0
1,note_on,76,0,120
1,note_on,79,73,0
1,note_on,79,0,120
1,note_on,84,75,0
1,note_on,84,0,120
1,note_on,61,61,0
1,note_on,70,78,0
1,note_on,64,61,0
1,note_on,64,0,240
1,note_on,70,0,0
1,note_on,61,0,0
1,note_on,64,58,0
1,note_on,69,69,0
1,note_on,61,58,0
1,note_on,61,0,120
1,note_on,69,0,0
1,note_on,64,0,0
1,note_on,64,58,120
1,note_on,69,69,0
1,note_on,61,58,0
1,note_on,61,0,120
1,note_on,69,0,0
1,note_on,64,0,0
1,note_on,64,58,120
1,note_on,61,58,0
1,note_on,69,69,0
1,note_on,69,0,120
1,note_on,61,0,0
1,note_on,64,0,0
1,note_on,62,61,120
1,note_on,66,72,0
1,note_on,66,0,120
1,note_on,62,0,0
1,note_on,66,70,120
1,note_on,69,70,120
1,note_on,69,0,120
1,note_on,66,0,0
1,note_on,74,67,0
1,note_on,74,0,120
1,note_on,78,70,0
1,note_on,78,0,120
1,note_on,81,73,0
1,note_on,81,0,120
1,note_on,86,75,0
1,note_on,86,0,120
1,note_on,75,73,0
1,note_on,87,87,0
1,note_on,87,0,240
1,note_on,75,0,0
1,note_on,86,75,0
1,note_on,74,63,0
1,note_on,74,0,180
1,note_on,86,0,0
1,note_on,86,87,60
1,note_on,74,73,0
1,note_on,74,0,240
1,note_on,86,0,0
1,note_on,85,75,0
1,note_on,73,63,0
1,note_on,73,0,180
1,note_on,85,0,0
1,note_on,73,73,60
1,note_on,85,86,0
1,note_on,85,0,240
1,note_on,73,0,0
1,note_on,86,70,0
1,note_on,74,59,0
1,note_on,74,0,180
1,note_on,86,0,0
1,note_on,86,78,60
1,note_on,74,66,0
1,note_on,74,0,240
1,note_on,86,0,0
1,note_on,69,59,0
1,note_on,81,70,0
1,note_on,81,0,180
1,note_on,69,0,0
1,note_on,79,77,60
1,note_on,67,65,0
1,note_on,67,0,240
1,note_on,79,0,0
1,note_on,78,68,0
1,note_on,66,57,0
1,note_on,66,0,180
1,note_on,78,0,0
1,note_on,78,68,60
1,note_on,66,57,0
1,note_on,66,0,240
1,note_on,78,0,0
1,note_on,64,57,0
1,note_on,76,68,0
1,note_on,76,0,180
1,note_on,64,0,0
1,note_on,64,62,60
1,note_on,76,74,0
1,note_on,76,0,240
1,note_on,64,0,0
1,note_on,62,54,0
1,note_on,74,64,0
1,note_on,74,0,121
1,note_on,62,0,0
1,note_on,62,56,119
1,note_on,74,67,0
1,note_on,74,0,121
1,note_on,62,0,0
1,note_on,74,64,119
1,note_on,62,54,0
1,note_on,62,0,121
1,note_on,74,0,0
1,note_on,63,58,119
1,note_on,75,69,0
1,note_on,75,0,240
1,note_on,63,0,0
1,note_on,74,60,0
1,note_on,62,50,0
1,note_on,62,0,180
1,note_on,74,0,0
1,note_on,62,58,60
1,note_on,74,69,0
1,note_on,74,0,240
1,note_on,62,0,0
1,note_on,73,60,0
1,note_on,61,50,0
1,note_on,61,0,180
1,note_on,73,0,0
1,note_on,73,68,60
1,note_on,61,58,0
1,note_on,61,0,240
1,note_on,73,0,0
1,note_on,62,47,0
1,note_on,74,56,0
1,note_on,74,0,180
1,note_on,62,0,0
1,note_on,74,62,60
1,note_on,62,52,0
1,note_on,62,0,240
1,note_on,74,0,0
1,note_on,57,47,0
1,note_on,69,56,0
1,note_on,69,0,180
1,note_on,57,0,0
1,note_on,67,57,60
1,note_on,55,49,0
1,note_on,55,0,240
1,note_on,67,0,0
1,note_on,66,50,0
1,note_on,54,42,0
1,note_on,54,0,180
1,note_on,66,0,0
1,note_on,66,49,60
1,note_on,54,41,0
1,note_on,54,0,240
1,note_on,66,0,0
1,note_on,64,48,0
1,note_on,52,40,0
1,note_on,52,0,180
1,note_on,64,0,0
1,note_on,52,43,60
1,note_on,64,51,0
1,note_on,64,0,240
1,note_on,52,0,0
1,note_on,62,43,0
1,note_on,50,36,0
1,note_on,50,0,121
1,note_on,62,0,0
1,note_on,50,36,119
1,note_on,62,44,0
1,note_on,62,0,121
1,note_on,50,0,0
1,note_on,62,41,119
1,note_on,50,35,0
1,note_on,50,0,121
1,note_on,62,0,0
1,note_on,50,32,119
1,note_on,62,39,0
1,note_on,62,0,121
1,note_on,50,0,0
1,note_on,62,36,119
1,note_on,50,31,0
1,note_on,50,0,121
1,note_on,62,0,0
1,note_on,62,39,119
1,note_on,50,32,0
1,note_on,50,0,121
1,note_on,62,0,0
1,note_on,50,31,119
1,note_on,62,36,0
1,note_on,62,0,121
1,note_on,50,0,0
1,note_on,50,32,119
1,note_on,62,39,0
1,note_on,62,0,121
1,note_on,50,0,0
1,note_on,50,31,119
1,note_on,62,36,0
1,note_on,62,0,121
1,note_on,50,0,0
1,note_on,62,39,119
1,note_on,50,32,0
1,note_on,50,0,121
1,note_on,62,0,0
1,note_on,62,36,119
1,note_on,50,31,0
1,note_on,50,0,121
1,note_on,62,0,0
1,note_on,58,21,119
1,note_on,61,33,0
1,note_on,52,21,0
1,note_on,55,21,0
1,note_on,55,0,240
1,note_on,58,0,0
1,note_on,61,0,0
1,note_on,52,0,0
1,note_on,52,21,0
1,note_on,55,21,0
1,note_on,58,21,0
1,note_on,60,30,0
1,note_on,58,0,120
1,note_on,52,0,0
1,note_on,55,0,0
1,note_on,60,0,1
1,note_on,60,33,119
1,note_on,55,21,0
1,note_on,58,21,0
1,note_on,52,21,0
1,note_on,52,0,120
1,note_on,55,0,0
1,note_on,58,0,1
1,note_on,60,0,0
1,note_on,58,20,119
1,note_on,60,30,0
1,note_on,55,20,0
1,note_on,52,20,0
1,note_on,52,0,120
1,note_on,55,0,0
1,note_on,60,0,1
1,note_on,58,0,0
1,note_on,58,21,119
1,note_on,52,21,0
1,note_on,60,33,0
1,note_on,55,21,0
1,note_on,55,0,120
1,note_on,52,0,0
1,note_on,60,0,1
1,note_on,58,0,0
1,note_on,55,20,119
1,note_on,52,20,0
1,note_on,58,20,0
1,note_on,60,30,0
1,note_on,52,0,120
1,note_on,55,0,0
1,note_on,58,0,1
1,note_on,60,0,0
1,note_on,55,21,119
1,note_on,52,21,0
1,note_on,58,21,0
1,note_on,60,33,0
1,note_on,52,0,120
1,note_on,55,0,0
1,note_on,58,0,1
1,note_on,60,0,0
1,note_on,52,20,119
1,note_on,60,30,0
1,note_on,55,20,0
1,note_on,58,20,0
1,note_on,55,0,120
1,note_on,52,0,0
1,note_on,60,0,1
1,note_on,58,0,0
1,note_on,53,28,119
1,note_on,60,35,0
1,note_on,57,28,0
1,note_on,57,0,240
1,note_on,60,0,0
1,note_on,53,0,0
1,note_on,65,23,0
1,note_on,69,29,0
1,note_on,60,23,0
1,note_on,60,0,180
1,note_on,69,0,0
1,note_on,65,0,0
1,note_on,65,23,60
1,note_on,69,29,0
1,note_on,60,23,0
1,note_on,60,0,180
1,note_on,69,0,0
1,note_on,65,0,0
1,note_on,65,23,60
1,note_on,69,29,0
1,note_on,60,23,0
1,note_on,60,0,180
1,note_on,69,0,0
1,note_on,65,0,0
1,note_on,65,26,60
1,note_on,68,33,0
1,note_on,59,26,0
1,note_on,59,0,240
1,note_on,68,0,0
1,note_on,65,0,0
1,note_on,69,28,0
1,note_on,65,22,0
1,note_on,60,22,0
1,note_on,60,0,180
1,note_on,65,0,0
1,note_on,69,0,0
1,note_on,65,24,60
1,note_on,69,31,0
1,note_on,60,24,0
1,note_on,60,0,180
1,note_on,69,0,0
1,note_on,65,0,0
1,note_on,69,34,60
1,note_on,65,27,0
1,note_on,60,27,0
1,note_on,60,0,180
1,note_on,65,0,0
1,note_on,69,0,0
1,note_on,72,38,60
1,note_on,65,30,0
1,note_on,63,30,0
1,note_on,63,0,240
1,note_on,65,0,0
1,note_on,72,0,0
1,note_on,70,32,0
1,note_on,62,25,0
1,note_on,65,25,0
1,note_on,65,0,180
1,note_on,62,0,0
1,note_on,70,0,0
1,note_on,65,25,60
1,note_on,62,25,0
1,note_on,70,32,0
1,note_on,70,0,180
1,note_on,62,0,0
1,note_on,65,0,0
1,note_on,62,25,60
1,note_on,70,32,0
1,note_on,65,25,0
1,note_on,65,0,180
1,note_on,70,0,0
1,note_on,62,0,0
1,note_on,70,33,60
1,note_on,65,26,0
1,note_on,62,20,0
1,note_on,62,0,240
1,note_on,65,0,0
1,note_on,70,0,0
1,note_on,69,30,0
1,note_on,60,24,0
1,note_on,62,24,0
1,note_on,62,0,240
1,note_on,60,0,0
1,note_on,69,0,0
1,note_on,67,30,0
1,note_on,58,24,0
1,note_on,62,24,0
1,note_on,62,0,240
1,note_on,58,0,0
1,note_on,67,0,0
1,note_on,62,24,0
1,note_on,65,30,0
1,note_on,57,24,0
1,note_on,57,0,240
1,note_on,65,0,0
1,note_on,62,0,0
1,note_on,57,28,0
1,note_on,65,35,0
1,note_on,60,28,0
1,note_on,60,0,240
1,note_on,65,0,0
1,note_on,57,0,0
1,note_on,64,29,0
1,note_on,55,23,0
1,note_on,60,23,0
1,note_on,60,0,180
1,note_on,55,0,0
1,note_on,64,0,0
1,note_on,64,29,60
1,note_on,55,23,0
1,note_on,60,23,0
1,note_on,60,0,180
1,note_on,55,0,0
1,note_on,64,0,0
1,note_on,64,29,60
1,note_on,55,23,0
1,note_on,60,23,0
1,note_on,60,0,180
1,note_on,55,0,0
1,note_on,64,0,0
1,note_on,60,26,60
1,note_on,64,33,0
1,note_on,55,26,0
1,note_on,55,0,180
1,note_on,64,0,0
1,note_on,60,0,0
1,note_on,60,22,60
1,note_on,64,28,0
1,note_on,55,22,0
1,note_on,55,0,180
1,note_on,64,0,0
1,note_on,60,0,0
1,note_on,60,24,60
1,note_on,65,31,0
1,note_on,57,24,0
1,note_on,57,0,240
1,note_on,65,0,0
1,note_on,60,0,0
1,note_on,58,27,0
1,note_on,67,34,0
1,note_on,60,27,0
1,note_on,60,0,240
1,note_on,67,0,0
1,note_on,58,0,0
1,note_on,60,38,0
1,note_on,58,30,0
1,note_on,58,0,240
1,note_on,60,0,0
1,note_on,60,25,0
1,note_on,65,32,0
1,note_on,57,25,0
1,note_on,57,0,180
1,note_on,65,0,0
1,note_on,60,0,0
1,note_on,57,25,60
1,note_on,65,32,0
1,note_on,60,25,0
1,note_on,60,0,180
1,note_on,65,0,0
1,note_on,57,0,0
1,note_on,60,25,60
1,note_on,65,32,0
1,note_on,57,25,0
1,note_on,57,0,180
1,note_on,65,0,0
1,note_on,60,0,0
1,note_on,57,20,60
1,note_on,60,26,0
1,note_on,65,33,0
1,note_on,65,0,180
1,note_on,60,0,0
1,note_on,57,0,0
1,note_on,65,30,60
1,note_on,60,24,0
1,note_on,57,24,0
1,note_on,57,0,180
1,note_on,60,0,0
1,note_on,65,0,0
1,note_on,65,30,60
1,note_on,60,35,60
1,note_on,69,42,0
1,note_on,69,0,300
1,note_on,60,0,0
1,note_on,65,0,0
1,note_on,60,24,0
1,note_on,65,30,0
1,note_on,57,24,0
1,note_on,57,0,120
1,note_on,65,0,0
1,note_on,60,0,0
1,note_on,57,28,0
1,note_on,60,28,0
1,note_on,65,35,0
1,note_on,65,0,240
1,note_on,60,0,0
1,note_on,57,0,0
1,note_on,55,23,0
1,note_on,64,29,0
1,note_on,60,23,0
1,note_on,60,0,180
1,note_on,64,0,0
1,note_on,55,0,0
1,note_on,60,23,60
1,note_on,55,23,0
1,note_on,64,29,0
1,note_on,64,0,180
1,note_on,55,0,0
1,note_on,60,0,0
1,note_on,64,29,60
1,note_on,55,23,0
1,note_on,60,23,0
1,note_on,60,0,180
1,note_on,55,0,0
1,note_on,64,0,0
1,note_on,55,26,60
1,note_on,64,33,0
1,note_on,60,26,0
1,note_on,60,0,180
1,note_on,64,0,0
1,note_on,55,0,0
1,note_on,64,28,60
1,note_on,60,22,0
1,note_on,55,22,0
1,note_on,55,0,180
1,note_on,60,0,0
1,note_on,64,0,0
1,note_on,57,24,60
1,note_on,60,24,0
1,note_on,65,31,0
1,note_on,65,0,240
1,note_on,60,0,0
1,note_on,57,0,0
1,note_on,67,34,0
1,note_on,58,27,0
1,note_on,60,27,0
1,note_on,60,0,240
1,note_on,58,0,0
1,note_on,67,0,0
1,note_on,58,30,0
1,note_on,60,38,0
1,note_on,60,0,240
1,note_on,58,0,0
1,note_on,57,25,0
1,note_on,65,32,0
1,note_on,60,25,0
1,note_on,60,0,180
1,note_on,65,0,0
1,note_on,57,0,0
1,note_on,57,25,60
1,note_on,60,25,0
1,note_on,65,32,0
1,note_on,65,0,180
1,note_on,60,0,0
1,note_on,57,0,0
1,note_on,57,25,60
1,note_on,60,25,0
1,note_on,65,32,0
1,note_on,65,0,180
1,note_on,60,0,0
1,note_on,57,0,0
1,note_on,65,33,60
1,note_on,60,26,0
1,note_on,57,20,0
1,note_on,57,0,180
1,note_on,60,0,0
1,note_on,65,0,0
1,note_on,72,34,60
1,note_on,69,27,0
1,note_on,69,0,240
1,note_on,72,0,0
1,note_on,69,27,0
1,note_on,77,42,0
1,note_on,72,27,0
1,note_on,72,0,240
1,note_on,77,0,0
1,note_on,69,0,0
1,note_on,79,34,0
1,note_on,76,27,0
1,note_on,72,27,0
1,note_on,72,0,240
1,note_on,76,0,0
1,note_on,79,0,0
1,note_on,72,26,240
1,note_on,81,33,0
1,note_on,77,26,0
1,note_on,77,0,180
1,note_on,81,0,0
1,note_on,72,0,0
1,note_on,81,33,60
1,note_on,72,26,0
1,note_on,77,26,0
1,note_on,77,0,180
1,note_on,72,0,0
1,note_on,81,0,0
1,note_on,77,26,60
1,note_on,81,33,0
1,note_on,72,26,0
1,note_on,72,0,180
1,note_on,81,0,0
1,note_on,77,0,0
1,note_on,71,29,60
1,note_on,77,29,0
1,note_on,80,37,0
1,note_on,80,0,240
1,note_on,77,0,0
1,note_on,71,0,0
1,note_on,72,25,0
1,note_on,77,25,0
1,note_on,81,32,0
1,note_on,81,0,180
1,note_on,77,0,0
1,note_on,72,0,0
1,note_on,77,27,60
1,note_on,81,35,0
1,note_on,72,27,0
1,note_on,72,0,180
1,note_on,81,0,0
1,note_on,77,0,0
1,note_on,81,39,60
1,note_on,77,31,0
1,note_on,72,31,0
1,note_on,72,0,180
1,note_on,77,0,0
1,note_on,81,0,0
1,note_on,84,43,60
1,note_on,75,34,0
1,note_on,77,34,0
1,note_on,77,0,240
1,note_on,75,0,0
1,note_on,84,0,0
1,note_on,74,28,0
1,note_on,82,36,0
1,note_on,77,28,0
1,note_on,77,0,180
1,note_on,82,0,0
1,note_on,74,0,0
1,note_on,82,36,60
1,note_on,74,28,0
1,note_on,77,28,0
1,note_on,77,0,180
1,note_on,74,0,0
1,note_on,82,0,0
1,note_on,74,28,60
1,note_on,77,28,0
1,note_on,82,36,0
1,note_on,82,0,180
1,note_on,77,0,0
1,note_on,74,0,0
1,note_on,77,29,60
1,note_on,74,23,0
1,note_on,82,37,0
1,note_on,82,0,240
1,note_on,74,0,0
1,note_on,77,0,0
1,note_on,72,27,0
1,note_on,74,27,0
1,note_on,81,34,0
1,note_on,81,0,240
1,note_on,74,0,0
1,note_on,72,0,0
1,note_on,74,27,0
1,note_on,70,27,0
1,note_on,79,34,0
1,note_on,79,0,240
1,note_on,70,0,0
1,note_on,74,0,0
1,note_on,74,27,0
1,note_on,77,34,0
1,note_on,69,27,0
1,note_on,69,0,240
1,note_on,77,0,0
1,note_on,74,0,0
1,note_on,77,40,0
1,note_on,72,32,0
1,note_on,69,32,0
1,note_on,69,0,240
1,note_on,72,0,0
1,note_on,77,0,0
1,note_on,72,26,0
1,note_on,76,33,0
1,note_on,67,26,0
1,note_on,67,0,180
1,note_on,76,0,0
1,note_on,72,0,0
1,note_on,76,33,60
1,note_on,67,26,0
1,note_on,72,26,0
1,note_on,72,0,180
1,note_on,67,0,0
1,note_on,76,0,0
1,note_on,72,26,60
1,note_on,67,26,0
1,note_on,76,33,0
1,note_on,76,0,180
1,note_on,67,0,0
1,note_on,72,0,0
1,note_on,67,29,60
1,note_on,76,37,0
1,note_on,72,29,0
1,note_on,72,0,180
1,note_on,76,0,0
1,note_on,67,0,0
1,note_on,76,32,60
1,note_on,72,25,0
1,note_on,67,25,0
1,note_on,67,0,180
1,note_on,72,0,0
1,note_on,76,0,0
1,note_on,69,27,60
1,note_on,77,35,0
1,note_on,72,27,0
1,note_on,72,0,240
1,note_on,77,0,0
1,note_on,69,0,0
1,note_on,79,39,0
1,note_on,72,31,0
1,note_on,70,31,0
1,note_on,70,0,240
1,note_on,72,0,0
1,note_on,79,0,0
1,note_on,72,43,0
1,note_on,70,34,0
1,note_on,70,0,240
1,note_on,72,0,0
1,note_on,77,36,0
1,note_on,72,28,0
1,note_on,69,28,0
1,note_on,69,0,180
1,note_on,72,0,0
1,note_on,77,0,0
1,note_on,77,36,60
1,note_on,72,28,0
1,note_on,69,28,0
1,note_on,69,0,180
1,note_on,72,0,0
1,note_on,77,0,0
1,note_on,77,36,60
1,note_on,72,28,0
1,note_on,69,28,0
1,note_on,69,0,180
1,note_on,72,0,0
1,note_on,77,0,0
1,note_on,72,29,60
1,note_on,77,37,0
1,note_on,69,23,0
1,note_on,69,0,180
1,note_on,77,0,0
1,note_on,72,0,0
1,note_on,77,34,60
1,note_on,72,27,0
1,note_on,69,27,0
1,note_on,69,0,180
1,note_on,72,0,0
1,note_on,77,0,0
1,note_on,77,39,60
1,note_on,81,52,60
1,note_on,72,44,0
1,note_on,72,0,300
1,note_on,81,0,0
1,note_on,77,0,0
1,note_on,72,27,0
1,note_on,69,27,0
1,note_on,77,34,0
1,note_on,77,0,120
1,note_on,69,0,0
1,note_on,72,0,0
1,note_on,72,32,0
1,note_on,69,32,0
1,note_on,77,40,0
1,note_on,77,0,240
1,note_on,69,0,0
1,note_on,72,0,0
1,note_on,67,26,0
1,note_on,72,26,0
1,note_on,76,33,0
1,note_on,76,0,180
1,note_on,72,0,0
1,note_on,67,0,0
1,note_on,67,26,60
1,note_on,72,26,0
1,note_on,76,33,0
1,note_on,76,0,180
1,note_on,72,0,0
1,note_on,67,0,0
1,note_on,67,26,60
1,note_on,72,26,0
1,note_on,76,33,0
1,note_on,76,0,180
1,note_on,72,0,0
1,note_on,67,0,0
1,note_on,76,37,60
1,note_on,67,29,0
1,note_on,72,29,0
1,note_on,72,0,180
1,note_on,67,0,0
1,note_on,76,0,0
1,note_on,72,25,60
1,note_on,67,25,0
1,note_on,76,32,0
1,note_on,76,0,180
1,note_on,67,0,0
1,note_on,72,0,0
1,note_on,77,35,60
1,note_on,69,27,0
1,note_on,72,27,0
1,note_on,72,0,240
1,note_on,69,0,0
1,note_on,77,0,0
1,note_on,79,39,0
1,note_on,70,31,0
1,note_on,72,31,0
1,note_on,72,0,240
1,note_on,70,0,0
1,note_on,79,0,0
1,note_on,70,34,0
1,note_on,72,43,0
1,note_on,72,0,240
1,note_on,70,0,0
1,note_on,77,36,0
1,note_on,69,28,0
1,note_on,72,28,0
1,note_on,72,0,180
1,note_on,69,0,0
1,note_on,77,0,0
1,note_on,77,36,60
1,note_on,69,28,0
1,note_on,72,28,0
1,note_on,72,0,180
1,note_on,69,0,0
1,note_on,77,0,0
1,note_on,72,28,60
1,note_on,77,36,0
1,note_on,69,28,0
1,note_on,69,0,180
1,note_on,77,0,0
1,note_on,72,0,0
1,note_on,72,29,60
1,note_on,77,37,0
1,note_on,69,23,0
1,note_on,69,0,180
1,note_on,77,0,0
1,note_on,72,0,0
1,note_on,72,43,60
1,note_on,72,0,120
1,note_on,84,36,0
1,note_on,84,0,120
1,note_on,77,43,0
1,note_on,77,0,120
1,note_on,84,36,0
1,note_on,84,0,120
1,note_on,79,44,0
1,note_on,79,0,120
1,note_on,84,36,0
1,note_on,84,0,120
1,note_on,72,47,0
1,note_on,72,0,120
1,note_on,84,36,0
1,note_on,84,0,120
1,note_on,81,43,0
1,note_on,81,0,120
1,note_on,72,36,0
1,note_on,72,0,120
1,note_on,72,43,0
1,note_on,72,0,120
1,note_on,84,36,0
1,note_on,84,0,120
1,note_on,81,43,0
1,note_on,81,0,120
1,note_on,72,36,0
1,note_on,72,0,120
1,note_on,72,46,0
1,note_on,72,0,120
1,note_on,84,36,0
1,note_on,84,0,120
1,note_on,81,45,0
1,note_on,81,0,120
1,note_on,72,36,0
1,note_on,72,0,120
1,note_on,72,45,0
1,note_on,72,0,120
1,note_on,84,39,0
1,note_on,84,0,120
1,note_on,77,46,0
1,note_on,77,0,120
1,note_on,89,36,0
1,note_on,89,0,120
1,note_on,77,50,0
1,note_on,77,0,120
1,note_on,89,36,0
1,note_on,89,0,120
1,note_on,86,43,0
1,note_on,86,0,120
1,note_on,77,36,0
1,note_on,77,0,120
1,note_on,77,50,0
1,note_on,77,0,120
1,note_on,89,36,0
1,note_on,89,0,120
1,note_on,86,42,0
1,note_on,86,0,120
1,note_on,77,36,0
1,note_on,77,0,120
1,note_on,77,48,0
1,note_on,77,0,120
1,note_on,89,40,0
1,note_on,89,0,120
1,note_on,78,51,0
1,note_on,78,0,120
1,note_on,90,42,0
1,note_on,90,0,120
1,note_on,79,57,0
1,note_on,79,0,120
1,note_on,91,43,0
1,note_on,91,0,120
1,note_on,81,53,0
1,note_on,93,53,0
1,note_on,93,0,120
1,note_on,81,0,0
1,note_on,82,59,0
1,note_on,94,59,0
1,note_on,94,0,120
1,note_on,82,0,0
1,note_on,84,67,0
1,note_on,84,0,120
1,note_on,96,53,0
1,note_on,96,0,120
1,note_on,94,60,0
1,note_on,94,0,120
1,note_on,84,53,0
1,note_on,84,0,120
1,note_on,84,63,0
1,note_on,84,0,120
1,note_on,96,53,0
1,note_on,96,0,120
1,note_on,94,60,0
1,note_on,94,0,120
1,note_on,84,50,0
1,note_on,84,0,120
1,note_on,84,59,0
1,note_on,84,0,120
1,note_on,96,45,0
1,note_on,96,0,120
1,note_on,94,56,0
1,note_on,94,0,120
1,note_on,84,48,0
1,note_on,84,0,120
1,note_on,93,58,0
1,note_on,93,0,120
1,note_on,96,47,0
1,note_on,96,0,120
1,note_on,91,59,0
1,note_on,91,0,120
1,note_on,96,52,0
1,note_on,96,0,120
1,note_on,84,64,0
1,note_on,84,0,120
1,note_on,96,43,0
1,note_on,96,0,120
1,note_on,93,55,0
1,note_on,93,0,120
1,note_on,84,44,0
1,note_on,84,0,120
1,note_on,84,51,0
1,note_on,84,0,120
1,note_on,96,43,0
1,note_on,96,0,120
1,note_on,93,47,0
1,note_on,93,0,120
1,note_on,84,41,0
1,note_on,84,0,120
1,note_on,84,47,0
1,note_on,84,0,120
1,note_on,96,39,0
1,note_on,96,0,120
1,note_on,93,41,0
1,note_on,93,0,120
1,note_on,84,38,0
1,note_on,84,0,120
1,note_on,89,47,0
1,note_on,89,0,120
1,note_on,101,42,0
1,note_on,101,0,120
1,note_on,84,43,0
1,note_on,84,0,120
1,note_on,96,37,0
1,note_on,96,0,120
1,note_on,84,50,0
1,note_on,84,0,120
1,note_on,96,37,0
1,note_on,96,0,120
1,note_on,94,44,0
1,note_on,94,0,120
1,note_on,84,37,0
1,note_on,84,0,120
1,note_on,84,48,0
1,note_on,84,0,120
1,note_on,96,37,0
1,note_on,96,0,120
1,note_on,94,43,0
1,note_on,94,0,120
1,note_on,84,37,0
1,note_on,84,0,120
1,note_on,84,48,0
1,note_on,84,0,120
1,note_on,96,37,0
1,note_on,96,0,120
1,note_on,94,48,0
1,note_on,94,0,120
1,note_on,84,44,0
1,note_on,84,0,120
1,note_on,93,53,0
1,note_on,93,0,120
1,note_on,96,46,0
1,note_on,96,0,120
1,note_on,91,52,0
1,note_on,91,0,120
1,note_on,96,47,0
1,note_on,96,0,120
1,note_on,84,58,0
1,note_on,84,0,120
1,note_on,96,36,0
1,note_on,96,0,120
1,note_on,93,48,0
1,note_on,93,0,120
1,note_on,84,41,0
1,note_on,84,0,120
1,note_on,84,54,0
1,note_on,84,0,120
1,note_on,96,36,0
1,note_on,96,0,120
1,note_on,93,48,0
1,note_on,93,0,120
1,note_on,84,42,0
1,note_on,84,0,120
1,note_on,84,57,0
1,note_on,84,0,120
1,note_on,96,41,0
1,note_on,96,0,120
1,note_on,93,48,0
1,note_on,93,0,120
1,note_on,84,42,0
1,note_on,84,0,120
1,note_on,89,53,0
1,note_on,89,0,120
1,note_on,101,44,0
1,note_on,101,0,120
1,note_on,84,53,0
1,note_on,84,0,120
1,note_on,96,47,0
1,note_on,96,0,120
1,note_on,84,63,0
1,note_on,84,0,120
1,note_on,96,52,0
1,note_on,96,0,120
1,note_on,94,62,0
1,note_on,94,0,120
1,note_on,84,50,0
1,note_on,84,0,120
1,note_on,84,63,0
1,note_on,84,0,120
1,note_on,96,54,0
1,note_on,96,0,120
1,note_on,94,59,0
1,note_on,94,0,120
1,note_on,84,51,0
1,note_on,84,0,120
1,note_on,84,64,0
1,note_on,84,0,120
1,note_on,96,48,0
1,note_on,96,0,120
1,note_on,94,57,0
1,note_on,94,0,120
1,note_on,84,46,0
1,note_on,84,0,120
1,note_on,93,63,0
1,note_on,93,0,120
1,note_on,96,52,0
1,note_on,96,0,120
1,note_on,91,59,0
1,note_on,91,0,120
1,note_on,96,48,0
1,note_on,96,0,120
1,note_on,91,59,0
1,note_on,91,0,1200
1,note_on,93,66,0
1,note_on,93,0,240
1,note_on,94,71,0
1,note_on,94,0,240
1,note_on,95,75,0
1,note_on,95,0,240
1,note_on,96,79,0
1,note_on,96,0,1440
1,note_on,88,66,0
1,note_on,88,0,480
1,note_on,89,56,0
1,note_on,89,0,120
1,note_on,93,49,0
1,note_on,93,0,120
1,note_on,84,49,0
1,note_on,84,0,120
1,note_on,89,49,0
1,note_on,89,0,120
1,note_on,81,56,0
1,note_on,81,0,120
1,note_on,84,44,0
1,note_on,84,0,120
1,note_on,77,46,0
1,note_on,77,0,120
1,note_on,81,46,0
1,note_on,81,0,120
1,note_on,72,51,0
1,note_on,72,0,120
1,note_on,77,44,0
1,note_on,77,0,120
1,note_on,69,44,0
1,note_on,69,0,120
1,note_on,72,44,0
1,note_on,72,0,120
1,note_on,65,51,0
1,note_on,65,0,120
1,note_on,69,43,0
1,note_on,69,0,120
1,note_on,60,43,0
1,note_on,60,0,120
1,note_on,65,43,0
1,note_on,65,0,120
1,note_on,69,47,0
1,note_on,69,0,120
1,note_on,72,38,0
1,note_on,72,0,120
1,note_on,60,38,0
1,note_on,60,0,120
1,note_on,65,38,0
1,note_on,65,0,120
1,note_on,69,40,0
1,note_on,69,0,120
1,note_on,72,36,0
1,note_on,72,0,120
1,note_on,60,35,0
1,note_on,60,0,120
1,note_on,65,34,0
1,note_on,65,0,120
1,note_on,69,39,0
1,note_on,69,0,120
1,note_on,72,31,0
1,note_on,72,0,120
1,note_on,60,30,0
1,note_on,60,0,120
1,note_on,65,30,0
1,note_on,65,0,120
1,note_on,69,38,0
1,note_on,69,0,120
1,note_on,72,29,0
1,note_on,72,0,120
1,note_on,60,29,0
1,note_on,60,0,120
1,note_on,65,29,0
1,note_on,65,0,120
1,note_on,80,45,1440
1,note_on,77,38,0
1,note_on,77,0,240
1,note_on,80,0,0
1,note_on,82,48,0
1,note_on,79,40,0
1,note_on,79,0,240
1,note_on,82,0,0
1,note_on,84,50,0
1,note_on,80,42,0
1,note_on,80,0,480
1,note_on,84,0,0
1,note_on,56,44,720
1,note_on,60,37,0
1,note_on,60,0,240
1,note_on,56,0,0
1,note_on,60,39,0
1,note_on,55,47,0
1,note_on,55,0,240
1,note_on,60,0,0
1,note_on,53,50,0
1,note_on,60,42,0
1,note_on,60,0,240
1,note_on,53,0,0
1,note_on,60,39,0
1,note_on,48,55,0
1,note_on,48,0,240
1,note_on,60,0,0
1,note_on,79,54,1200
1,note_on,82,64,0
1,note_on,82,0,240
1,note_on,79,0,0
1,note_on,85,61,0
1,note_on,82,51,0
1,note_on,82,0,240
1,note_on,85,0,0
1,note_on,84,57,0
1,note_on,80,48,0
1,note_on,80,0,480
1,note_on,84,0,0
1,note_on,56,57,960
1,note_on,60,41,0
1,note_on,60,0,240
1,note_on,56,0,0
1,note_on,55,47,0
1,note_on,60,39,0
1,note_on,60,0,240
1,note_on,55,0,0
1,note_on,53,50,0
1,note_on,60,42,0
1,note_on,60,0,240
1,note_on,53,0,0
1,note_on,77,43,1200
1,note_on,80,51,0
1,note_on,80,0,240
1,note_on,77,0,0
1,note_on,79,46,0
1,note_on,82,55,0
1,note_on,82,0,240
1,note_on,79,0,0
1,note_on,80,48,0
1,note_on,84,57,0
1,note_on,84,0,480
1,note_on,80,0,0
1,note_on,63,42,720
1,note_on,60,50,0
1,note_on,60,0,240
1,note_on,63,0,0
1,note_on,58,51,0
1,note_on,63,42,0
1,note_on,63,0,240
1,note_on,58,0,0
1,note_on,56,54,0
1,note_on,63,45,0
1,note_on,63,0,240
1,note_on,56,0,0
1,note_on,51,63,0
1,note_on,63,44,0
1,note_on,63,0,240
1,note_on,51,0,0
1,note_on,85,73,1200
1,note_on,82,62,0
1,note_on,82,0,240
1,note_on,85,0,0
1,note_on,85,58,0
1,note_on,89,70,0
1,note_on,89,0,240
1,note_on,85,0,0
1,note_on,84,69,0
1,note_on,87,65,0
1,note_on,87,0,480
1,note_on,84,0,0
1,note_on,60,59,960
1,note_on,63,43,0
1,note_on,63,0,240
1,note_on,60,0,0
1,note_on,63,40,0
1,note_on,58,48,0
1,note_on,58,0,240
1,note_on,63,0,0
1,note_on,56,50,0
1,note_on,63,42,0
1,note_on,63,0,240
1,note_on,56,0,0
1,note_on,84,61,960
1,note_on,84,0,240
1,note_on,82,64,0
1,note_on,82,0,240
1,note_on,80,66,0
1,note_on,80,0,240
1,note_on,77,66,0
1,note_on,77,0,480
1,note_on,49,65,720
1,note_on,49,0,240
1,note_on,48,68,0
1,note_on,48,0,240
1,note_on,46,71,0
1,note_on,46,0,240
1,note_on,43,76,0
1,note_on,43,0,960
1,note_on,44,61,0
1,note_on,44,0,240
1,note_on,84,68,0
1,note_on,84,0,240
1,note_on,85,73,0
1,note_on,85,0,240
1,note_on,86,77,0
1,note_on,86,0,240
1,note_on,87,82,0
1,note_on,87,0,1920
1,note_on,84,66,0
1,note_on,84,0,480
1,note_on,44,44,720
1,note_on,44,0,240
1,note_on,46,48,0
1,note_on,46,0,240
1,note_on,47,45,0
1,note_on,47,0,240
1,note_on,39,48,0
1,note_on,39,0,1920
1,note_on,32,44,0
1,note_on,32,0,480
1,note_on,80,46,720
1,note_on,84,55,0
1,note_on,84,0,240
1,note_on,80,0,0
1,note_on,84,55,0
1,note_on,80,46,0
1,note_on,80,0,240
1,note_on,84,0,0
1,note_on,80,46,0
1,note_on,85,55,0
1,note_on,85,0,240
1,note_on,80,0,0
1,note_on,82,51,0
1,note_on,84,60,0
1,note_on,79,51,0
1,note_on,79,0,480
1,note_on,84,0,0
1,note_on,82,0,0
1,note_on,79,55,0
1,note_on,79,0,240
1,note_on,60,55,480
1,note_on,48,46,0
1,note_on,48,0,240
1,note_on,60,0,0
1,note_on,60,55,0
1,note_on,48,46,0
1,note_on,48,0,240
1,note_on,60,0,0
1,note_on,55,55,0
1,note_on,43,46,0
1,note_on,43,0,240
1,note_on,55,0,0
1,note_on,56,60,0
1,note_on,44,51,0
1,note_on,44,0,480
1,note_on,56,0,0
1,note_on,53,59,0
1,note_on,41,50,0
1,note_on,41,0,240
1,note_on,53,0,0
1,note_on,80,58,480
1,note_on,84,69,0
1,note_on,84,0,240
1,note_on,80,0,0
1,note_on,84,69,0
1,note_on,80,58,0
1,note_on,80,0,240
1,note_on,84,0,0
1,note_on,85,69,0
1,note_on,80,58,0
1,note_on,80,0,240
1,note_on,85,0,0
1,note_on,79,53,0
1,note_on,82,53,0
1,note_on,84,75,0
1,note_on,84,0,480
1,note_on,82,0,0
1,note_on,79,0,0
1,note_on,79,69,0
1,note_on,79,0,240
1,note_on,60,63,480
1,note_on,48,52,0
1,note_on,48,0,240
1,note_on,60,0,0
1,note_on,60,63,0
1,note_on,48,52,0
1,note_on,48,0,240
1,note_on,60,0,0
1,note_on,55,63,0
1,note_on,43,52,0
1,note_on,43,0,240
1,note_on,55,0,0
1,note_on,44,58,0
1,note_on,56,69,0
1,note_on,56,0,480
1,note_on,44,0,0
1,note_on,53,64,0
1,note_on,41,54,0
1,note_on,41,0,240
1,note_on,53,0,0
1,note_on,84,72,480
1,note_on,84,0,240
1,note_on,84,75,0
1,note_on,84,0,240
1,note_on,84,79,0
1,note_on,84,0,240
1,note_on,85,83,0
1,note_on,85,0,480
1,note_on,49,77,0
1,note_on,49,0,960
1,note_on,81,70,0
1,note_on,81,0,360
1,note_on,83,67,0
1,note_on,83,0,120
1,note_on,85,79,0
1,note_on,85,0,480
1,note_on,49,77,0
1,note_on,49,0,960
1,note_on,81,70,0
1,note_on,81,0,360
1,note_on,83,67,0
1,note_on,83,0,120
1,note_on,85,77,0
1,note_on,85,0,480
1,note_on,49,66,0
1,note_on,49,0,960
1,note_on,48,49,0
1,note_on,48,0,480
1,note_on,47,56,0
1,note_on,47,0,240
1,note_on,86,63,240
1,note_on,86,0,720
1,note_on,86,57,0
1,note_on,86,0,240
1,note_on,88,60,0
1,note_on,88,0,240
1,note_on,89,60,0
1,note_on,89,0,240
1,note_on,88,69,0
1,note_on,88,0,240
1,note_on,48,42,240
1,note_on,48,0,480
1,note_on,86,63,240
1,note_on,86,0,240
1,note_on,84,56,0
1,note_on,84,0,240
1,note_on,83,56,0
1,note_on,83,0,240
1,note_on,81,64,0
1,note_on,81,0,240
1,note_on,53,29,240
1,note_on,53,0,480
1,note_on,50,26,0
1,note_on,50,0,240
1,note_on,81,54,240
1,note_on,81,0,480
1,note_on,83,58,0
1,note_on,83,0,240
1,note_on,55,34,240
1,note_on,55,0,480
1,note_on,56,39,0
1,note_on,56,0,480
1,note_on,55,35,0
1,note_on,55,0,480
1,note_on,84,52,0
1,note_on,84,0,480
1,note_on,48,49,480
1,note_on,48,0,960
1,note_on,50,61,0
1,note_on,50,0,960
1,note_on,52,39,0
1,note_on,52,0,960
1,note_on,53,39,0
1,note_on,53,0,480
1,note_on,77,45,960
1,note_on,77,0,240
1,note_on,76,40,0
1,note_on,79,48,0
1,note_on,79,0,240
1,note_on,76,0,0
1,note_on,77,42,0
1,note_on,81,50,0
1,note_on,81,0,480
1,note_on,77,0,0
1,note_on,57,44,720
1,note_on,60,37,0
1,note_on,60,0,240
1,note_on,57,0,0
1,note_on,55,47,0
1,note_on,60,39,0
1,note_on,60,0,240
1,note_on,55,0,0
1,note_on,60,42,0
1,note_on,53,50,0
1,note_on,53,0,240
1,note_on,60,0,0
1,note_on,48,55,0
1,note_on,60,39,0
1,note_on,60,0,240
1,note_on,48,0,0
1,note_on,79,54,1200
1,note_on,82,64,0
1,note_on,82,0,240
1,note_on,79,0,0
1,note_on,82,51,0
1,note_on,86,61,0
1,note_on,86,0,240
1,note_on,82,0,0
1,note_on,81,48,0
1,note_on,84,57,0
1,note_on,84,0,480
1,note_on,81,0,0
1,note_on,60,41,960
1,note_on,57,57,0
1,note_on,57,0,240
1,note_on,60,0,0
1,note_on,55,47,0
1,note_on,60,39,0
1,note_on,60,0,240
1,note_on,55,0,0
1,note_on,60,42,0
1,note_on,53,50,0
1,note_on,53,0,240
1,note_on,60,0,0
1,note_on,77,43,1200
1,note_on,81,51,0
1,note_on,81,0,240
1,note_on,77,0,0
1,note_on,79,46,0
1,note_on,82,55,0
1,note_on,82,0,240
1,note_on,79,0,0
1,note_on,81,48,0
1,note_on,84,57,0
1,note_on,84,0,480
1,note_on,81,0,0
1,note_on,53,42,720
1,note_on,60,50,0
1,note_on,57,42,0
1,note_on,57,0,240
1,note_on,60,0,0
1,note_on,62,51,0
1,note_on,58,42,0
1,note_on,58,0,240
1,note_on,62,0,0
1,note_on,55,45,0
1,note_on,64,54,0
1,note_on,64,0,240
1,note_on,55,0,0
1,note_on,65,44,0
1,note_on,57,63,0
1,note_on,57,0,240
1,note_on,65,0,0
1,note_on,53,0,0
1,note_on,81,58,960
1,note_on,89,69,0
1,note_on,89,0,240
1,note_on,81,0,0
1,note_on,84,55,0
1,note_on,88,65,0
1,note_on,88,0,240
1,note_on,84,0,0
1,note_on,82,52,0
1,note_on,86,63,0
1,note_on,86,0,240
1,note_on,82,0,0
1,note_on,81,60,0
1,note_on,84,61,0
1,note_on,84,0,480
1,note_on,81,0,0
1,note_on,60,48,720
1,note_on,57,48,0
1,note_on,57,0,240
1,note_on,60,0,0
1,note_on,55,34,0
1,note_on,58,41,0
1,note_on,58,0,240
1,note_on,55,0,0
1,note_on,48,33,0
1,note_on,55,39,0
1,note_on,55,0,240
1,note_on,48,0,0
1,note_on,57,48,0
1,note_on,53,40,0
1,note_on,53,0,240
1,note_on,57,0,0
1,note_on,81,36,1200
1,note_on,77,30,0
1,note_on,77,0,240
1,note_on,81,0,0
1,note_on,82,38,0
1,note_on,79,32,0
1,note_on,79,0,240
1,note_on,82,0,0
1,note_on,81,34,0
1,note_on,84,41,0
1,note_on,84,0,480
1,note_on,81,0,0
1,note_on,57,25,720
1,note_on,53,25,0
1,note_on,60,30,0
1,note_on,60,0,240
1,note_on,57,0,0
1,note_on,58,27,0
1,note_on,62,32,0
1,note_on,62,0,240
1,note_on,58,0,0
1,note_on,64,34,0
1,note_on,55,28,0
1,note_on,55,0,240
1,note_on,64,0,0
1,note_on,65,44,0
1,note_on,57,37,0
1,note_on,57,0,240
1,note_on,65,0,0
1,note_on,53,0,0
1,note_on,81,35,960
1,note_on,89,42,0
1,note_on,89,0,240
1,note_on,81,0,0
1,note_on,88,39,0
1,note_on,84,33,0
1,note_on,84,0,240
1,note_on,88,0,0
1,note_on,82,30,0
1,note_on,86,36,0
1,note_on,86,0,240
1,note_on,82,0,0
1,note_on,84,42,0
1,note_on,81,35,0
1,note_on,81,0,480
1,note_on,84,0,0
1,note_on,57,37,720
1,note_on,60,37,0
1,note_on,60,0,240
1,note_on,57,0,0
1,note_on,55,28,0
1,note_on,58,33,0
1,note_on,58,0,240
1,note_on,55,0,0
1,note_on,48,28,0
1,note_on,55,33,0
1,note_on,55,0,240
1,note_on,48,0,0
1,note_on,53,31,0
1,note_on,57,37,0
1,note_on,57,0,240
1,note_on,53,0,0
1,note_on,60,37,960
1,note_on,57,37,0
1,note_on,57,0,240
1,note_on,60,0,0
1,note_on,55,28,0
1,note_on,58,33,0
1,note_on,58,0,240
1,note_on,55,0,0
1,note_on,55,33,0
1,note_on,48,28,0
1,note_on,48,0,240
1,note_on,55,0,0
1,note_on,57,37,0
1,note_on,53,31,0
1,note_on,53,0,240
1,note_on,57,0,0
1,note_on,60,32,960
1,note_on,57,32,0
1,note_on,57,0,240
1,note_on,60,0,0
1,note_on,58,28,0
1,note_on,55,23,0
1,note_on,55,0,240
1,note_on,58,0,0
1,note_on,48,23,0
1,note_on,55,27,0
1,note_on,55,0,240
1,note_on,48,0,0
1,note_on,45,24,0
1,note_on,41,24,0
1,note_on,53,29,0
1,note_on,53,0,240
1,note_on,41,0,0
1,note_on,45,0,0
1,note_on,65,47,1680
1,note_on,65,0,120
1,note_on,68,39,0
1,note_on,68,0,120
1,note_on,56,39,0
1,note_on,56,0,120
1,note_on,60,43,0
1,note_on,60,0,120
1,note_on,65,54,0
1,note_on,65,0,120
1,note_on,68,45,0
1,note_on,68,0,120
1,note_on,56,45,0
1,note_on,56,0,120
1,note_on,60,48,0
1,note_on,60,0,120
1,note_on,65,64,0
1,note_on,65,0,120
1,note_on,68,50,0
1,note_on,68,0,120
1,note_on,56,52,0
1,note_on,56,0,120
1,note_on,60,55,0
1,note_on,60,0,120
1,note_on,68,69,0
1,note_on,68,0,120
1,note_on,72,59,0
1,note_on,72,0,120
1,note_on,60,61,0
1,note_on,60,0,120
1,note_on,65,63,0
1,note_on,65,0,120
1,note_on,60,55,0
1,note_on,60,0,40
1,note_on,65,60,0
1,note_on,65,0,40
1,note_on,68,66,0
1,note_on,68,0,40
1,note_on,72,77,0
1,note_on,72,0,720
1,note_on,70,47,0
1,note_on,70,0,120
1,note_on,68,60,0
1,note_on,68,0,360
1,note_on,70,54,0
1,note_on,70,0,120
1,note_on,67,60,0
1,note_on,67,0,360
1,note_on,68,51,0
1,note_on,68,0,120
1,note_on,65,60,0
1,note_on,65,0,120
1,note_on,67,48,0
1,note_on,67,0,60
1,note_on,65,48,0
1,note_on,65,0,60
1,note_on,64,48,0
1,note_on,64,0,60
1,note_on,65,45,0
1,note_on,65,0,60
1,note_on,66,45,0
1,note_on,66,0,120
1,note_on,63,62,0
1,note_on,63,0,120
1,note_on,65,49,0
1,note_on,65,0,60
1,note_on,63,49,0
1,note_on,63,0,60
1,note_on,62,49,0
1,note_on,62,0,60
1,note_on,63,44,0
1,note_on,63,0,60
1,note_on,65,47,0
1,note_on,65,0,120
1,note_on,61,60,0
1,note_on,61,0,120
1,note_on,63,49,0
1,note_on,63,0,60
1,note_on,61,49,0
1,note_on,61,0,60
1,note_on,60,49,0
1,note_on,60,0,60
1,note_on,61,46,0
1,note_on,61,0,60
1,note_on,63,46,0
1,note_on,63,0,120
1,note_on,60,60,0
1,note_on,60,0,120
1,note_on,61,50,0
1,note_on,61,0,60
1,note_on,60,50,0
1,note_on,60,0,60
1,note_on,59,50,0
1,note_on,59,0,60
1,note_on,60,46,0
1,note_on,60,0,60
1,note_on,61,46,0
1,note_on,61,0,120
1,note_on,58,60,0
1,note_on,58,0,120
1,note_on,61,52,0
1,note_on,61,0,120
1,note_on,58,52,0
1,note_on,58,0,120
1,note_on,61,53,0
1,note_on,61,0,120
1,note_on,56,63,0
1,note_on,56,0,120
1,note_on,61,56,0
1,note_on,61,0,120
1,note_on,56,57,0
1,note_on,56,0,120
1,note_on,61,60,0
1,note_on,61,0,120
1,note_on,54,68,0
1,note_on,54,0,120
1,note_on,61,62,0
1,note_on,61,0,120
1,note_on,54,63,0
1,note_on,54,0,120
1,note_on,61,59,0
1,note_on,61,0,120
1,note_on,53,72,0
1,note_on,53,0,120
1,note_on,61,65,0
1,note_on,61,0,120
1,note_on,53,67,0
1,note_on,53,0,120
1,note_on,61,67,0
1,note_on,61,0,120
1,note_on,52,90,0
1,note_on,52,0,240
1,note_on,67,75,240
1,note_on,70,75,0
1,note_on,73,90,0
1,note_on,73,0,240
1,note_on,70,0,0
1,note_on,67,0,0
1,note_on,72,41,720
1,note_on,72,0,40
1,note_on,73,41,0
1,note_on,73,0,40
1,note_on,75,36,0
1,note_on,75,0,40
1,note_on,73,47,0
1,note_on,73,0,240
1,note_on,72,41,0
1,note_on,72,0,120
1,note_on,72,46,0
1,note_on,72,0,160
1,note_on,80,53,0
1,note_on,80,0,160
1,note_on,79,47,0
1,note_on,79,0,160
1,note_on,77,47,0
1,note_on,77,0,160
1,note_on,72,43,0
1,note_on,72,0,160
1,note_on,68,43,0
1,note_on,68,0,160
1,note_on,67,47,0
1,note_on,67,0,160
1,note_on,75,52,0
1,note_on,75,0,160
1,note_on,72,39,0
1,note_on,72,0,160
1,note_on,73,44,0
1,note_on,73,0,160
1,note_on,70,38,0
1,note_on,70,0,160
1,note_on,67,37,0
1,note_on,67,0,160
1,note_on,65,44,0
1,note_on,56,36,160
1,note_on,56,0,160
1,note_on,58,37,0
1,note_on,58,0,160
1,note_on,60,38,0
1,note_on,60,0,160
1,note_on,58,36,0
1,note_on,58,0,160
1,note_on,56,34,0
1,note_on,56,0,160
1,note_on,65,0,0
1,note_on,61,32,0
1,note_on,64,32,0
1,note_on,61,0,480
1,note_on,60,44,0
1,note_on,60,0,240
1,note_on,58,40,0
1,note_on,58,0,240
1,note_on,64,0,0
1,note_on,65,38,0
1,note_on,56,28,160
1,note_on,56,0,160
1,note_on,58,31,0
1,note_on,58,0,160
1,note_on,60,31,0
1,note_on,60,0,160
1,note_on,58,29,0
1,note_on,58,0,160
1,note_on,56,27,0
1,note_on,56,0,160
1,note_on,65,0,0
1,note_on,64,25,0
1,note_on,61,25,0
1,note_on,61,0,480
1,note_on,60,35,0
1,note_on,60,0,240
1,note_on,58,29,0
1,note_on,58,0,240
1,note_on,64,0,0
1,note_on,56,26,0
1,note_on,65,31,0
1,note_on,65,0,480
1,note_on,56,0,0
1,note_on,56,25,480
1,note_on,65,30,0
1,note_on,60,25,0
1,note_on,60,0,480
1,note_on,65,0,0
1,note_on,56,0,0
1,note_on,56,23,480
1,note_on,60,23,0
1,note_on,65,28,0
1,note_on,65,0,960
1,note_on,60,0,0
1,note_on,56,0,0
2,note_on,48,51,0
2,note_on,41,43,0
2,note_on,56,51,0
2,note_on,56,0,1440
2,note_on,52,43,0
2,note_on,43,36,0
2,note_on,43,0,480
2,note_on,52,0,0
2,note_on,48,0,0
2,note_on,53,43,0
2,note_on,44,43,0
2,note_on,44,0,480
2,note_on,45,39,0
2,note_on,45,0,480
2,note_on,43,43,0
2,note_on,43,0,480
2,note_on,45,40,0
2,note_on,45,0,480
2,note_on,49,44,0
2,note_on,49,0,480
2,note_on,48,41,0
2,note_on,48,0,480
2,note_on,53,0,0
2,note_on,41,0,0
2,note_on,46,41,0
2,note_on,49,49,0
2,note_on,49,0,480
2,note_on,46,0,0
2,note_on,48,45,0
2,note_on,44,38,0
2,note_on,44,0,480
2,note_on,48,0,0
2,note_on,46,57,0
2,note_on,43,47,0
2,note_on,43,0,240
2,note_on,46,0,0
2,note_on,52,48,240
2,note_on,55,48,0
2,note_on,58,48,0
2,note_on,61,57,0
2,note_on,61,0,240
2,note_on,52,0,0
2,note_on,55,0,0
2,note_on,58,0,0
2,note_on,56,35,1200
2,note_on,53,29,0
2,note_on,53,0,480
2,note_on,56,0,0
2,note_on,46,27,480
2,note_on,49,27,0
2,note_on,55,32,0
2,note_on,55,0,480
2,note_on,49,0,0
2,note_on,46,0,0
2,note_on,48,29,480
2,note_on,53,32,160
2,note_on,53,0,160
2,note_on,56,34,0
2,note_on,56,0,160
2,note_on,60,37,0
2,note_on,60,0,160
2,note_on,58,31,0
2,note_on,58,0,160
2,note_on,56,31,0
2,note_on,56,0,160
2,note_on,55,35,0
2,note_on,55,0,240
2,note_on,48,0,0
2,note_on,48,51,720
2,note_on,56,51,0
2,note_on,41,43,0
2,note_on,56,0,1440
2,note_on,52,43,0
2,note_on,43,36,0
2,note_on,43,0,480
2,note_on,52,0,0
2,note_on,48,0,0
2,note_on,53,43,0
2,note_on,44,43,0
2,note_on,44,0,480
2,note_on,45,39,0
2,note_on,45,0,480
2,note_on,43,43,0
2,note_on,43,0,480
2,note_on,45,40,0
2,note_on,45,0,480
2,note_on,49,44,0
2,note_on,49,0,240
2,note_on,53,0,0
2,note_on,41,0,0
2,note_on,49,32,0
2,note_on,53,37,0
2,note_on,53,0,120
2,note_on,49,0,0
2,note_on,51,41,120
2,note_on,48,32,0
2,note_on,48,0,120
2,note_on,51,0,0
2,note_on,48,36,120
2,note_on,51,44,0
2,note_on,51,0,120
2,note_on,48,0,0
2,note_on,49,47,120
2,note_on,46,39,0
2,note_on,46,0,120
2,note_on,49,0,0
2,note_on,46,43,120
2,note_on,49,51,0
2,note_on,49,0,120
2,note_on,46,0,0
2,note_on,48,55,120
2,note_on,44,46,0
2,note_on,44,0,120
2,note_on,48,0,0
2,note_on,48,60,120
2,note_on,44,49,0
2,note_on,44,0,120
2,note_on,48,0,0
2,note_on,46,64,120
2,note_on,43,54,0
2,note_on,43,0,240
2,note_on,46,0,0
2,note_on,55,55,240
2,note_on,58,55,0
2,note_on,52,55,0
2,note_on,61,65,0
2,note_on,61,0,240
2,note_on,55,0,0
2,note_on,58,0,0
2,note_on,52,0,0
2,note_on,53,29,1200
2,note_on,56,35,0
2,note_on,56,0,480
2,note_on,53,0,0
2,note_on,55,32,480
2,note_on,49,27,0
2,note_on,46,27,0
2,note_on,46,0,480
2,note_on,49,0,0
2,note_on,55,0,0
2,note_on,56,43,480
2,note_on,48,35,0
2,note_on,53,35,0
2,note_on,53,0,240
2,note_on,48,0,0
2,note_on,56,0,0
2,note_on,56,54,240
2,note_on,56,0,160
2,note_on,53,46,0
2,note_on,53,0,160
2,note_on,61,48,0
2,note_on,61,0,160
2,note_on,60,54,0
2,note_on,60,0,240
2,note_on,48,50,240
2,note_on,60,60,0
2,note_on,60,0,180
2,note_on,48,0,0
2,note_on,41,50,300
2,note_on,53,60,0
2,note_on,53,0,180
2,note_on,41,0,0
2,note_on,65,27,300
2,note_on,53,22,0
2,note_on,53,0,480
2,note_on,65,0,0
2,note_on,53,22,480
2,note_on,65,27,0
2,note_on,65,0,480
2,note_on,53,0,0
2,note_on,65,27,480
2,note_on,53,22,0
2,note_on,53,0,480
2,note_on,65,0,0
2,note_on,53,22,480
2,note_on,65,27,0
2,note_on,65,0,480
2,note_on,53,0,0
2,note_on,53,22,480
2,note_on,65,27,0
2,note_on,65,0,480
2,note_on,53,0,0
2,note_on,46,27,0
2,note_on,46,0,240
2,note_on,54,22,240
2,note_on,58,27,0
2,note_on,58,0,240
2,note_on,54,0,0
2,note_on,48,27,240
2,note_on,48,0,240
2,note_on,53,22,240
2,note_on,56,27,0
2,note_on,56,0,240
2,note_on,53,0,0
2,note_on,48,27,240
2,note_on,48,0,240
2,note_on,52,22,240
2,note_on,55,27,0
2,note_on,55,0,240
2,note_on,52,0,0
2,note_on,41,40,240
2,note_on,41,0,240
2,note_on,65,27,240
2,note_on,53,22,0
2,note_on,53,0,480
2,note_on,65,0,0
2,note_on,65,27,480
2,note_on,53,22,0
2,note_on,53,0,480
2,note_on,65,0,0
2,note_on,65,27,480
2,note_on,58,22,0
2,note_on,58,0,480
2,note_on,65,0,0
2,note_on,51,22,480
2,note_on,63,27,0
2,note_on,63,0,480
2,note_on,51,0,0
2,note_on,56,22,480
2,note_on,63,27,0
2,note_on,63,0,480
2,note_on,56,0,0
2,note_on,49,27,0
2,note_on,49,0,240
2,note_on,61,22,240
2,note_on,65,27,0
2,note_on,65,0,240
2,note_on,61,0,0
2,note_on,51,27,240
2,note_on,51,0,240
2,note_on,63,27,240
2,note_on,60,22,0
2,note_on,60,0,240
2,note_on,63,0,0
2,note_on,51,27,240
2,note_on,51,0,240
2,note_on,55,22,240
2,note_on,61,27,0
2,note_on,61,0,240
2,note_on,55,0,0
2,note_on,56,41,240
2,note_on,60,41,0
2,note_on,60,0,240
2,note_on,56,0,0
2,note_on,63,27,0
2,note_on,63,0,120
2,note_on,63,30,120
2,note_on,63,0,120
2,note_on,63,27,120
2,note_on,63,0,120
2,note_on,64,37,120
2,note_on,64,0,240
2,note_on,63,27,0
2,note_on,63,0,240
2,note_on,63,30,0
2,note_on,63,0,120
2,note_on,63,27,120
2,note_on,63,0,120
2,note_on,51,38,120
2,note_on,51,0,240
2,note_on,63,27,0
2,note_on,63,0,120
2,note_on,63,27,120
2,note_on,63,0,120
2,note_on,63,27,120
2,note_on,63,0,120
2,note_on,51,44,120
2,note_on,51,0,240
2,note_on,63,37,0
2,note_on,63,0,120
2,note_on,63,40,120
2,note_on,63,0,120
2,note_on,51,44,120
2,note_on,61,44,0
2,note_on,63,44,0
2,note_on,63,0,120
2,note_on,61,0,0
2,note_on,51,0,0
2,note_on,56,48,120
2,note_on,63,48,0
2,note_on,60,48,0
2,note_on,60,0,240
2,note_on,63,0,0
2,note_on,56,0,0
2,note_on,63,31,0
2,note_on,63,0,120
2,note_on,63,34,120
2,note_on,63,0,120
2,note_on,63,31,120
2,note_on,63,0,120
2,note_on,64,42,120
2,note_on,64,0,240
2,note_on,63,31,0
2,note_on,63,0,120
2,note_on,63,34,120
2,note_on,63,0,120
2,note_on,66,31,120
2,note_on,66,0,120
2,note_on,53,43,120
2,note_on,53,0,240
2,note_on,65,31,0
2,note_on,65,0,120
2,note_on,65,31,120
2,note_on,65,0,120
2,note_on,65,31,120
2,note_on,65,0,120
2,note_on,53,50,120
2,note_on,53,0,240
2,note_on,65,42,0
2,note_on,65,0,120
2,note_on,65,46,120
2,note_on,65,0,120
2,note_on,65,50,120
2,note_on,63,50,0
2,note_on,53,50,0
2,note_on,53,0,120
2,note_on,63,0,0
2,note_on,65,0,0
2,note_on,58,55,120
2,note_on,61,55,0
2,note_on,65,55,0
2,note_on,65,0,240
2,note_on,61,0,0
2,note_on,58,0,0
2,note_on,65,31,0
2,note_on,65,0,120
2,note_on,65,34,120
2,note_on,65,0,120
2,note_on,65,31,120
2,note_on,65,0,120
2,note_on,66,42,120
2,note_on,66,0,240
2,note_on,65,31,0
2,note_on,65,0,120
2,note_on,65,34,120
2,note_on,65,0,120
2,note_on,65,31,120
2,note_on,65,0,120
2,note_on,55,49,120
2,note_on,61,31,240
2,note_on,64,31,0
2,note_on,64,0,240
2,note_on,63,34,0
2,note_on,63,0,240
2,note_on,64,31,0
2,note_on,64,0,240
2,note_on,61,0,0
2,note_on,55,0,0
2,note_on,56,50,0
2,note_on,65,31,240
2,note_on,60,31,0
2,note_on,65,0,240
2,note_on,63,34,0
2,note_on,63,0,240
2,note_on,68,31,0
2,note_on,68,0,240
2,note_on,60,0,0
2,note_on,56,0,0
2,note_on,55,49,0
2,note_on,61,31,240
2,note_on,64,31,0
2,note_on,64,0,240
2,note_on,63,34,0
2,note_on,63,0,240
2,note_on,64,31,0
2,note_on,64,0,240
2,note_on,61,0,0
2,note_on,55,0,0
2,note_on,56,50,0
2,note_on,65,31,240
2,note_on,60,31,0
2,note_on,65,0,240
2,note_on,63,34,0
2,note_on,63,0,240
2,note_on,68,31,0
2,note_on,68,0,240
2,note_on,60,0,0
2,note_on,56,0,0
2,note_on,49,60,0
2,note_on,49,0,120
2,note_on,65,53,120
2,note_on,61,53,0
2,note_on,61,0,480
2,note_on,65,0,0
2,note_on,61,44,0
2,note_on,65,44,0
2,note_on,65,0,240
2,note_on,61,0,0
2,note_on,51,60,0
2,note_on,51,0,120
2,note_on,60,52,120
2,note_on,63,52,0
2,note_on,63,0,480
2,note_on,60,0,0
2,note_on,63,45,0
2,note_on,60,45,0
2,note_on,60,0,240
2,note_on,63,0,0
2,note_on,51,60,0
2,note_on,51,0,120
2,note_on,61,46,120
2,note_on,55,46,0
2,note_on,63,46,0
2,note_on,55,0,480
2,note_on,56,46,0
2,note_on,56,0,240
2,note_on,58,46,0
2,note_on,58,0,240
2,note_on,63,0,0
2,note_on,61,0,0
2,note_on,63,47,0
2,note_on,61,47,0
2,note_on,56,47,0
2,note_on,56,0,120
2,note_on,61,0,0
2,note_on,63,0,0
2,note_on,63,51,120
2,note_on,61,51,0
2,note_on,55,51,0
2,note_on,55,0,120
2,note_on,61,0,0
2,note_on,63,0,0
2,note_on,63,55,120
2,note_on,51,55,0
2,note_on,61,55,0
2,note_on,61,0,120
2,note_on,51,0,0
2,note_on,63,0,0
2,note_on,60,59,120
2,note_on,63,59,0
2,note_on,56,59,0
2,note_on,56,0,240
2,note_on,63,0,0
2,note_on,60,0,0
2,note_on,44,66,0
2,note_on,44,0,120
2,note_on,44,66,120
2,note_on,44,0,120
2,note_on,44,66,120
2,note_on,44,0,120
2,note_on,43,69,120
2,note_on,43,0,240
2,note_on,44,65,0
2,note_on,44,0,120
2,note_on,44,65,120
2,note_on,44,0,120
2,note_on,44,65,120
2,note_on,44,0,120
2,note_on,45,68,120
2,note_on,45,0,360
2,note_on,46,60,0
2,note_on,46,0,60
2,note_on,48,57,0
2,note_on,48,0,60
2,note_on,46,68,0
2,note_on,46,0,360
2,note_on,48,62,0
2,note_on,48,0,60
2,note_on,49,58,0
2,note_on,49,0,60
2,note_on,51,68,0
2,note_on,51,0,120
2,note_on,58,56,120
2,note_on,51,56,0
2,note_on,61,66,0
2,note_on,61,0,240
2,note_on,51,0,0
2,note_on,58,0,0
2,note_on,51,56,0
2,note_on,61,66,0
2,note_on,58,56,0
2,note_on,58,0,240
2,note_on,61,0,0
2,note_on,51,0,0
2,note_on,51,56,0
2,note_on,61,66,0
2,note_on,58,56,0
2,note_on,58,0,240
2,note_on,61,0,0
2,note_on,51,0,0
2,note_on,60,72,0
2,note_on,56,61,0
2,note_on,56,0,240
2,note_on,60,0,0
2,note_on,44,66,0
2,note_on,44,0,120
2,note_on,44,66,120
2,note_on,44,0,120
2,note_on,44,66,120
2,note_on,44,0,120
2,note_on,43,69,120
2,note_on,43,0,240
2,note_on,44,65,0
2,note_on,44,0,120
2,note_on,44,65,120
2,note_on,44,0,120
2,note_on,44,65,120
2,note_on,44,0,120
2,note_on,45,68,120
2,note_on,45,0,360
2,note_on,46,60,0
2,note_on,46,0,60
2,note_on,48,56,0
2,note_on,48,0,60
2,note_on,46,68,0
2,note_on,46,0,360
2,note_on,48,62,0
2,note_on,48,0,60
2,note_on,49,58,0
2,note_on,49,0,60
2,note_on,51,68,0
2,note_on,51,0,120
2,note_on,55,56,120
2,note_on,58,66,0
2,note_on,48,56,0
2,note_on,48,0,240
2,note_on,58,0,0
2,note_on,55,0,0
2,note_on,48,56,0
2,note_on,58,66,0
2,note_on,55,56,0
2,note_on,55,0,240
2,note_on,58,0,0
2,note_on,48,0,0
2,note_on,48,56,0
2,note_on,58,66,0
2,note_on,55,56,0
2,note_on,55,0,240
2,note_on,58,0,0
2,note_on,48,0,0
2,note_on,53,61,0
2,note_on,56,72,0
2,note_on,56,0,240
2,note_on,53,0,0
2,note_on,49,56,0
2,note_on,53,66,0
2,note_on,53,0,120
2,note_on,49,0,0
2,note_on,53,66,120
2,note_on,49,56,0
2,note_on,49,0,120
2,note_on,53,0,0
2,note_on,49,56,120
2,note_on,53,66,0
2,note_on,53,0,120
2,note_on,49,0,0
2,note_on,48,58,120
2,note_on,52,69,0
2,note_on,52,0,240
2,note_on,48,0,0
2,note_on,53,65,0
2,note_on,49,55,0
2,note_on,49,0,120
2,note_on,53,0,0
2,note_on,49,55,120
2,note_on,53,65,0
2,note_on,53,0,120
2,note_on,49,0,0
2,note_on,49,55,120
2,note_on,53,65,0
2,note_on,53,0,120
2,note_on,49,0,0
2,note_on,50,57,120
2,note_on,53,68,0
2,note_on,53,0,360
2,note_on,54,60,0
2,note_on,54,0,60
2,note_on,56,57,0
2,note_on,56,0,60
2,note_on,50,0,0
2,note_on,51,57,0
2,note_on,54,68,0
2,note_on,54,0,360
2,note_on,56,62,0
2,note_on,56,0,60
2,note_on,57,59,0
2,note_on,57,0,60
2,note_on,51,0,0
2,note_on,44,57,0
2,note_on,51,68,0
2,note_on,51,0,120
2,note_on,44,0,0
2,note_on,56,56,120
2,note_on,66,66,0
2,note_on,63,56,0
2,note_on,63,0,240
2,note_on,66,0,0
2,note_on,56,0,0
2,note_on,66,66,0
2,note_on,56,56,0
2,note_on,63,56,0
2,note_on,63,0,240
2,note_on,56,0,0
2,note_on,66,0,0
2,note_on,56,56,0
2,note_on,66,66,0
2,note_on,63,56,0
2,note_on,63,0,240
2,note_on,66,0,0
2,note_on,56,0,0
2,note_on,65,72,0
2,note_on,61,61,0
2,note_on,61,0,240
2,note_on,65,0,0
2,note_on,53,66,0
2,note_on,49,56,0
2,note_on,49,0,120
2,note_on,53,0,0
2,note_on,53,66,120
2,note_on,49,56,0
2,note_on,49,0,120
2,note_on,53,0,0
2,note_on,53,66,120
2,note_on,49,56,0
2,note_on,49,0,120
2,note_on,53,0,0
2,note_on,48,58,120
2,note_on,52,69,0
2,note_on,52,0,240
2,note_on,48,0,0
2,note_on,49,55,0
2,note_on,53,65,0
2,note_on,53,0,120
2,note_on,49,0,0
2,note_on,49,55,120
2,note_on,53,65,0
2,note_on,53,0,120
2,note_on,49,0,0
2,note_on,53,65,120
2,note_on,49,55,0
2,note_on,49,0,120
2,note_on,53,0,0
2,note_on,56,69,120
2,note_on,47,58,0
2,note_on,53,58,0
2,note_on,53,0,240
2,note_on,47,0,0
2,note_on,56,0,0
2,note_on,46,55,0
2,note_on,53,55,0
2,note_on,56,65,0
2,note_on,56,0,120
2,note_on,53,0,0
2,note_on,46,0,0
2,note_on,56,65,120
2,note_on,53,55,0
2,note_on,46,55,0
2,note_on,46,0,120
2,note_on,53,0,0
2,note_on,56,0,0
2,note_on,56,65,120
2,note_on,46,55,0
2,note_on,53,55,0
2,note_on,53,0,120
2,note_on,46,0,0
2,note_on,56,0,0
2,note_on,51,57,120
2,note_on,55,68,0
2,note_on,55,0,120
2,note_on,51,0,0
2,note_on,63,56,120
2,note_on,63,0,240
2,note_on,63,56,0
2,note_on,67,66,0
2,note_on,67,0,240
2,note_on,63,0,0
2,note_on,63,56,0
2,note_on,67,66,0
2,note_on,67,0,240
2,note_on,63,0,0
2,note_on,58,69,0
2,note_on,49,58,0
2,note_on,55,58,0
2,note_on,55,0,240
2,note_on,49,0,0
2,note_on,58,0,0
2,note_on,55,55,0
2,note_on,58,65,0
2,note_on,48,55,0
2,note_on,48,0,120
2,note_on,58,0,0
2,note_on,55,0,0
2,note_on,48,55,120
2,note_on,58,65,0
2,note_on,55,55,0
2,note_on,55,0,120
2,note_on,58,0,0
2,note_on,48,0,0
2,note_on,48,55,120
2,note_on,58,65,0
2,note_on,55,55,0
2,note_on,55,0,120
2,note_on,58,0,0
2,note_on,48,0,0
2,note_on,53,57,120
2,note_on,57,68,0
2,note_on,57,0,120
2,note_on,53,0,0
2,note_on,65,56,120
2,note_on,65,0,240
2,note_on,69,66,0
2,note_on,65,56,0
2,note_on,65,0,240
2,note_on,69,0,0
2,note_on,65,56,0
2,note_on,69,66,0
2,note_on,69,0,240
2,note_on,65,0,0
2,note_on,54,51,0
2,note_on,66,60,0
2,note_on,66,0,240
2,note_on,54,0,0
2,note_on,65,52,0
2,note_on,53,44,0
2,note_on,53,0,180
2,note_on,65,0,0
2,note_on,53,51,60
2,note_on,65,60,0
2,note_on,65,0,240
2,note_on,53,0,0
2,note_on,52,44,0
2,note_on,64,52,0
2,note_on,64,0,180
2,note_on,52,0,0
2,note_on,64,60,60
2,note_on,52,51,0
2,note_on,52,0,240
2,note_on,64,0,0
2,note_on,65,49,0
2,note_on,53,41,0
2,note_on,53,0,180
2,note_on,65,0,0
2,note_on,65,54,60
2,note_on,53,46,0
2,note_on,53,0,240
2,note_on,65,0,0
2,note_on,48,41,0
2,note_on,60,49,0
2,note_on,60,0,180
2,note_on,48,0,0
2,note_on,46,45,60
2,note_on,58,53,0
2,note_on,58,0,240
2,note_on,46,0,0
2,note_on,45,39,0
2,note_on,57,47,0
2,note_on,57,0,180
2,note_on,45,0,0
2,note_on,57,47,60
2,note_on,45,39,0
2,note_on,45,0,240
2,note_on,57,0,0
2,note_on,55,47,0
2,note_on,43,39,0
2,note_on,43,0,180
2,note_on,55,0,0
2,note_on,43,43,60
2,note_on,55,51,0
2,note_on,55,0,240
2,note_on,43,0,0
2,note_on,41,37,0
2,note_on,53,44,0
2,note_on,53,0,121
2,note_on,41,0,0
2,note_on,41,39,119
2,note_on,53,46,0
2,note_on,53,0,121
2,note_on,41,0,0
2,note_on,41,37,119
2,note_on,53,44,0
2,note_on,53,0,121
2,note_on,41,0,0
2,note_on,54,48,119
2,note_on,42,40,0
2,note_on,42,0,240
2,note_on,54,0,0
2,note_on,53,41,0
2,note_on,41,35,0
2,note_on,41,0,180
2,note_on,53,0,0
2,note_on,53,48,60
2,note_on,41,40,0
2,note_on,41,0,240
2,note_on,53,0,0
2,note_on,52,41,0
2,note_on,40,35,0
2,note_on,40,0,180
2,note_on,52,0,0
2,note_on,52,48,60
2,note_on,40,40,0
2,note_on,40,0,240
2,note_on,52,0,0
2,note_on,53,39,0
2,note_on,41,32,0
2,note_on,41,0,180
2,note_on,53,0,0
2,note_on,41,36,60
2,note_on,53,43,0
2,note_on,53,0,240
2,note_on,41,0,0
2,note_on,48,39,0
2,note_on,36,32,0
2,note_on,36,0,180
2,note_on,48,0,0
2,note_on,46,39,60
2,note_on,34,34,0
2,note_on,34,0,240
2,note_on,46,0,0
2,note_on,33,29,0
2,note_on,45,34,0
2,note_on,45,0,180
2,note_on,33,0,0
2,note_on,33,28,60
2,note_on,45,34,0
2,note_on,45,0,240
2,note_on,33,0,0
2,note_on,43,33,0
2,note_on,31,27,0
2,note_on,31,0,180
2,note_on,43,0,0
2,note_on,43,35,60
2,note_on,31,29,0
2,note_on,31,0,240
2,note_on,43,0,0
2,note_on,29,24,0
2,note_on,41,30,0
2,note_on,41,0,121
2,note_on,29,0,0
2,note_on,41,30,119
2,note_on,29,26,0
2,note_on,29,0,121
2,note_on,41,0,0
2,note_on,41,28,119
2,note_on,29,23,0
2,note_on,29,0,121
2,note_on,41,0,0
2,note_on,41,27,119
2,note_on,41,0,121
2,note_on,41,25,119
2,note_on,41,0,121
2,note_on,41,27,119
2,note_on,41,0,121
2,note_on,41,25,119
2,note_on,41,0,121
2,note_on,41,27,119
2,note_on,41,0,121
2,note_on,41,25,119
2,note_on,41,0,121
2,note_on,41,27,119
2,note_on,41,0,121
2,note_on,41,25,119
2,note_on,41,0,121
2,note_on,52,22,119
2,note_on,52,0,240
2,note_on,51,21,0
2,note_on,51,0,121
2,note_on,51,22,119
2,note_on,51,0,121
2,note_on,51,21,119
2,note_on,51,0,121
2,note_on,51,22,119
2,note_on,51,0,121
2,note_on,51,21,119
2,note_on,51,0,121
2,note_on,51,22,119
2,note_on,51,0,121
2,note_on,51,21,119
2,note_on,51,0,121
2,note_on,44,33,119
2,note_on,51,25,240
2,note_on,51,0,180
2,note_on,51,25,60
2,note_on,51,0,180
2,note_on,51,25,60
2,note_on,51,0,180
2,note_on,51,33,60
2,note_on,51,0,240
2,note_on,56,26,0
2,note_on,56,0,180
2,note_on,56,27,60
2,note_on,56,0,180
2,note_on,56,29,60
2,note_on,56,0,180
2,note_on,44,0,60
2,note_on,49,38,0
2,note_on,56,25,240
2,note_on,56,0,180
2,note_on,56,25,60
2,note_on,56,0,180
2,note_on,56,27,60
2,note_on,56,0,180
2,note_on,56,33,60
2,note_on,56,0,240
2,note_on,57,27,0
2,note_on,57,0,240
2,note_on,58,27,0
2,note_on,58,0,240
2,note_on,49,0,0
2,note_on,50,27,0
2,note_on,53,27,0
2,note_on,53,0,240
2,note_on,50,0,0
2,note_on,39,33,0
2,note_on,51,25,240
2,note_on,51,0,180
2,note_on,51,25,60
2,note_on,51,0,180
2,note_on,51,25,60
2,note_on,51,0,180
2,note_on,51,33,60
2,note_on,51,0,180
2,note_on,51,26,60
2,note_on,51,0,180
2,note_on,51,27,60
2,note_on,51,0,240
2,note_on,51,29,0
2,note_on,51,0,240
2,note_on,39,0,0
2,note_on,44,38,0
2,note_on,51,25,240
2,note_on,51,0,180
2,note_on,51,25,60
2,note_on,51,0,180
2,note_on,51,27,60
2,note_on,51,0,180
2,note_on,51,33,60
2,note_on,51,0,180
2,note_on,51,27,60
2,note_on,51,0,180
2,note_on,44,0,60
2,note_on,51,27,0
2,note_on,44,27,0
2,note_on,44,0,240
2,note_on,51,0,0
2,note_on,51,27,0
2,note_on,48,27,0
2,note_on,48,0,240
2,note_on,51,0,0
2,note_on,39,33,0
2,note_on,51,25,240
2,note_on,51,0,180
2,note_on,51,25,60
2,note_on,51,0,180
2,note_on,51,25,60
2,note_on,51,0,180
2,note_on,51,33,60
2,note_on,51,0,180
2,note_on,51,26,60
2,note_on,51,0,180
2,note_on,51,27,60
2,note_on,51,0,240
2,note_on,51,29,0
2,note_on,51,0,240
2,note_on,39,0,0
2,note_on,44,38,0
2,note_on,51,25,240
2,note_on,51,0,180
2,note_on,48,25,60
2,note_on,48,0,180
2,note_on,51,27,60
2,note_on,51,0,180
2,note_on,56,33,60
2,note_on,56,0,180
2,note_on,44,0,0
2,note_on,63,31,60
2,note_on,60,31,0
2,note_on,60,0,240
2,note_on,63,0,0
2,note_on,68,31,0
2,note_on,60,31,0
2,note_on,63,31,0
2,note_on,63,0,240
2,note_on,60,0,0
2,note_on,68,0,0
2,note_on,67,31,0
2,note_on,70,31,0
2,note_on,63,31,0
2,note_on,63,0,240
2,note_on,70,0,0
2,note_on,67,0,0
2,note_on,56,46,0
2,note_on,56,0,120
2,note_on,72,28,120
2,note_on,68,23,0
2,note_on,63,23,0
2,note_on,63,0,180
2,note_on,68,0,0
2,note_on,72,0,0
2,note_on,68,23,60
2,note_on,72,28,0
2,note_on,63,23,0
2,note_on,63,0,180
2,note_on,72,0,0
2,note_on,68,0,0
2,note_on,72,28,60
2,note_on,63,23,0
2,note_on,68,23,0
2,note_on,68,0,180
2,note_on,63,0,0
2,note_on,72,0,0
2,note_on,68,31,60
2,note_on,62,31,0
2,note_on,71,37,0
2,note_on,71,0,240
2,note_on,62,0,0
2,note_on,68,0,0
2,note_on,68,24,0
2,note_on,63,24,0
2,note_on,72,29,0
2,note_on,72,0,180
2,note_on,63,0,0
2,note_on,68,0,0
2,note_on,63,26,60
2,note_on,68,26,0
2,note_on,72,31,0
2,note_on,72,0,180
2,note_on,68,0,0
2,note_on,63,0,0
2,note_on,72,33,60
2,note_on,68,28,0
2,note_on,63,28,0
2,note_on,63,0,180
2,note_on,68,0,0
2,note_on,72,0,0
2,note_on,61,43,60
2,note_on,68,23,240
2,note_on,73,28,0
2,note_on,65,23,0
2,note_on,65,0,180
2,note_on,73,0,0
2,note_on,68,0,0
2,note_on,65,23,60
2,note_on,73,28,0
2,note_on,68,23,0
2,note_on,68,0,180
2,note_on,73,0,0
2,note_on,65,0,0
2,note_on,68,26,60
2,note_on,65,26,0
2,note_on,73,31,0
2,note_on,73,0,180
2,note_on,65,0,0
2,note_on,68,0,0
2,note_on,73,37,60
2,note_on,68,31,0
2,note_on,65,31,0
2,note_on,65,0,240
2,note_on,68,0,0
2,note_on,73,0,0
2,note_on,65,26,0
2,note_on,69,26,0
2,note_on,72,31,0
2,note_on,72,0,240
2,note_on,69,0,0
2,note_on,65,0,0
2,note_on,65,26,0
2,note_on,70,31,0
2,note_on,70,0,240
2,note_on,65,0,0
2,note_on,61,0,0
2,note_on,65,26,0
2,note_on,62,26,0
2,note_on,68,31,0
2,note_on,68,0,240
2,note_on,62,0,0
2,note_on,65,0,0
2,note_on,51,37,0
2,note_on,51,0,240
2,note_on,63,23,0
2,note_on,58,23,0
2,note_on,67,28,0
2,note_on,67,0,180
2,note_on,58,0,0
2,note_on,63,0,0
2,note_on,58,23,60
2,note_on,63,23,0
2,note_on,67,28,0
2,note_on,67,0,180
2,note_on,63,0,0
2,note_on,58,0,0
2,note_on,63,23,60
2,note_on,67,28,0
2,note_on,58,23,0
2,note_on,58,0,180
2,note_on,67,0,0
2,note_on,63,0,0
2,note_on,63,31,60
2,note_on,67,37,0
2,note_on,58,31,0
2,note_on,58,0,180
2,note_on,67,0,0
2,note_on,63,0,0
2,note_on,58,24,60
2,note_on,63,24,0
2,note_on,67,29,0
2,note_on,67,0,180
2,note_on,63,0,0
2,note_on,58,0,0
2,note_on,68,31,60
2,note_on,60,26,0
2,note_on,63,26,0
2,note_on,63,0,240
2,note_on,60,0,0
2,note_on,68,0,0
2,note_on,63,28,0
2,note_on,61,28,0
2,note_on,70,33,0
2,note_on,70,0,240
2,note_on,61,0,0
2,note_on,63,0,0
2,note_on,56,43,0
2,note_on,63,23,240
2,note_on,60,23,0
2,note_on,68,28,0
2,note_on,68,0,180
2,note_on,60,0,0
2,note_on,63,0,0
2,note_on,68,28,60
2,note_on,63,23,0
2,note_on,60,23,0
2,note_on,60,0,180
2,note_on,63,0,0
2,note_on,68,0,0
2,note_on,60,26,60
2,note_on,68,31,0
2,note_on,63,26,0
2,note_on,63,0,180
2,note_on,68,0,0
2,note_on,60,0,0
2,note_on,68,37,60
2,note_on,63,31,0
2,note_on,60,31,0
2,note_on,60,0,180
2,note_on,63,0,0
2,note_on,68,0,0
2,note_on,56,0,60
2,note_on,60,26,0
2,note_on,68,31,0
2,note_on,63,26,0
2,note_on,63,0,180
2,note_on,68,0,0
2,note_on,60,0,0
2,note_on,63,26,60
2,note_on,72,31,0
2,note_on,68,26,0
2,note_on,68,0,240
2,note_on,72,0,0
2,note_on,63,0,0
2,note_on,63,26,0
2,note_on,60,26,0
2,note_on,68,31,0
2,note_on,68,0,240
2,note_on,60,0,0
2,note_on,63,0,0
2,note_on,51,37,0
2,note_on,51,0,240
2,note_on,63,23,0
2,note_on,58,23,0
2,note_on,67,28,0
2,note_on,67,0,180
2,note_on,58,0,0
2,note_on,63,0,0
2,note_on,67,28,60
2,note_on,63,23,0
2,note_on,58,23,0
2,note_on,58,0,180
2,note_on,63,0,0
2,note_on,67,0,0
2,note_on,63,23,60
2,note_on,67,28,0
2,note_on,58,23,0
2,note_on,58,0,180
2,note_on,67,0,0
2,note_on,63,0,0
2,note_on,58,31,60
2,note_on,67,37,0
2,note_on,63,31,0
2,note_on,63,0,180
2,note_on,67,0,0
2,note_on,58,0,0
2,note_on,63,24,60
2,note_on,67,29,0
2,note_on,58,24,0
2,note_on,58,0,180
2,note_on,67,0,0
2,note_on,63,0,0
2,note_on,60,26,60
2,note_on,63,26,0
2,note_on,68,31,0
2,note_on,68,0,240
2,note_on,63,0,0
2,note_on,60,0,0
2,note_on,70,33,0
2,note_on,61,28,0
2,note_on,63,28,0
2,note_on,63,0,240
2,note_on,61,0,0
2,note_on,70,0,0
2,note_on,56,43,0
2,note_on,68,28,240
2,note_on,63,23,0
2,note_on,60,23,0
2,note_on,60,0,180
2,note_on,63,0,0
2,note_on,68,0,0
2,note_on,63,23,60
2,note_on,60,23,0
2,note_on,68,28,0
2,note_on,68,0,180
2,note_on,60,0,0
2,note_on,63,0,0
2,note_on,60,26,60
2,note_on,63,26,0
2,note_on,68,31,0
2,note_on,68,0,180
2,note_on,63,0,0
2,note_on,60,0,0
2,note_on,60,31,60
2,note_on,63,31,0
2,note_on,68,37,0
2,note_on,68,0,180
2,note_on,56,0,0
2,note_on,60,0,0
2,note_on,63,0,0
2,note_on,63,31,60
2,note_on,60,31,0
2,note_on,60,0,240
2,note_on,63,0,0
2,note_on,60,31,0
2,note_on,68,31,0
2,note_on,63,31,0
2,note_on,63,0,240
2,note_on,68,0,0
2,note_on,60,0,0
2,note_on,67,31,0
2,note_on,63,31,0
2,note_on,70,31,0
2,note_on,70,0,240
2,note_on,63,0,0
2,note_on,67,0,0
2,note_on,56,46,0
2,note_on,56,0,120
2,note_on,63,23,120
2,note_on,68,23,0
2,note_on,72,28,0
2,note_on,72,0,180
2,note_on,68,0,0
2,note_on,63,0,0
2,note_on,63,23,60
2,note_on,68,23,0
2,note_on,72,28,0
2,note_on,72,0,180
2,note_on,68,0,0
2,note_on,63,0,0
2,note_on,63,23,60
2,note_on,68,23,0
2,note_on,72,28,0
2,note_on,72,0,180
2,note_on,68,0,0
2,note_on,63,0,0
2,note_on,68,31,60
2,note_on,62,31,0
2,note_on,71,37,0
2,note_on,71,0,240
2,note_on,62,0,0
2,note_on,68,0,0
2,note_on,63,24,0
2,note_on,68,24,0
2,note_on,72,29,0
2,note_on,72,0,180
2,note_on,68,0,0
2,note_on,63,0,0
2,note_on,63,26,60
2,note_on,68,26,0
2,note_on,72,31,0
2,note_on,72,0,180
2,note_on,68,0,0
2,note_on,63,0,0
2,note_on,72,33,60
2,note_on,63,28,0
2,note_on,68,28,0
2,note_on,68,0,180
2,note_on,63,0,0
2,note_on,72,0,0
2,note_on,61,43,60
2,note_on,75,37,0
2,note_on,68,31,0
2,note_on,66,31,0
2,note_on,66,0,240
2,note_on,68,0,0
2,note_on,75,0,0
2,note_on,68,23,0
2,note_on,65,23,0
2,note_on,73,28,0
2,note_on,73,0,180
2,note_on,65,0,0
2,note_on,68,0,0
2,note_on,68,23,60
2,note_on,73,28,0
2,note_on,65,23,0
2,note_on,65,0,180
2,note_on,73,0,0
2,note_on,68,0,0
2,note_on,65,26,60
2,note_on,68,26,0
2,note_on,73,31,0
2,note_on,73,0,180
2,note_on,68,0,0
2,note_on,65,0,0
2,note_on,65,31,60
2,note_on,73,37,0
2,note_on,68,31,0
2,note_on,68,0,240
2,note_on,61,0,0
2,note_on,65,0,0
2,note_on,73,0,0
2,note_on,63,26,0
2,note_on,72,31,0
2,note_on,65,26,0
2,note_on,65,0,240
2,note_on,72,0,0
2,note_on,63,0,0
2,note_on,70,32,0
2,note_on,61,27,0
2,note_on,65,27,0
2,note_on,65,0,240
2,note_on,61,0,0
2,note_on,70,0,0
2,note_on,68,33,0
2,note_on,60,28,0
2,note_on,63,28,0
2,note_on,63,0,240
2,note_on,60,0,0
2,note_on,68,0,0
2,note_on,51,41,0
2,note_on,51,0,240
2,note_on,67,32,0
2,note_on,58,26,0
2,note_on,63,26,0
2,note_on,63,0,180
2,note_on,58,0,0
2,note_on,67,0,0
2,note_on,63,26,60
2,note_on,67,32,0
2,note_on,58,26,0
2,note_on,58,0,180
2,note_on,67,0,0
2,note_on,63,0,0
2,note_on,67,32,60
2,note_on,58,26,0
2,note_on,63,26,0
2,note_on,63,0,180
2,note_on,58,0,0
2,note_on,67,0,0
2,note_on,58,35,60
2,note_on,63,35,0
2,note_on,67,42,0
2,note_on,67,0,180
2,note_on,63,0,0
2,note_on,58,0,0
2,note_on,63,27,60
2,note_on,67,33,0
2,note_on,58,27,0
2,note_on,58,0,180
2,note_on,67,0,0
2,note_on,63,0,0
2,note_on,60,29,60
2,note_on,63,29,0
2,note_on,68,35,0
2,note_on,68,0,240
2,note_on,63,0,0
2,note_on,60,0,0
2,note_on,70,37,0
2,note_on,61,32,0
2,note_on,63,32,0
2,note_on,63,0,240
2,note_on,61,0,0
2,note_on,70,0,0
2,note_on,56,43,0
2,note_on,61,31,0
2,note_on,63,37,0
2,note_on,63,0,240
2,note_on,61,0,0
2,note_on,68,32,0
2,note_on,63,26,0
2,note_on,60,26,0
2,note_on,60,0,180
2,note_on,63,0,0
2,note_on,68,0,0
2,note_on,68,32,60
2,note_on,60,26,0
2,note_on,63,26,0
2,note_on,63,0,180
2,note_on,60,0,0
2,note_on,68,0,0
2,note_on,68,35,60
2,note_on,63,29,0
2,note_on,60,29,0
2,note_on,60,0,180
2,note_on,63,0,0
2,note_on,68,0,0
2,note_on,56,0,60
2,note_on,68,35,0
2,note_on,72,42,60
2,note_on,63,35,0
2,note_on,63,0,180
2,note_on,72,0,0
2,note_on,68,0,0
2,note_on,60,26,0
2,note_on,68,31,0
2,note_on,63,26,0
2,note_on,63,0,180
2,note_on,68,0,0
2,note_on,60,0,0
2,note_on,60,26,60
2,note_on,68,31,0
2,note_on,63,26,0
2,note_on,63,0,180
2,note_on,68,0,0
2,note_on,60,0,0
2,note_on,63,26,60
2,note_on,68,31,0
2,note_on,60,26,0
2,note_on,60,0,180
2,note_on,68,0,0
2,note_on,63,0,0
2,note_on,51,37,60
2,note_on,51,0,240
2,note_on,67,28,0
2,note_on,58,23,0
2,note_on,63,23,0
2,note_on,63,0,180
2,note_on,58,0,0
2,note_on,67,0,0
2,note_on,63,23,60
2,note_on,58,23,0
2,note_on,67,28,0
2,note_on,67,0,180
2,note_on,58,0,0
2,note_on,63,0,0
2,note_on,63,23,60
2,note_on,58,23,0
2,note_on,67,28,0
2,note_on,67,0,180
2,note_on,58,0,0
2,note_on,63,0,0
2,note_on,58,31,60
2,note_on,63,31,0
2,note_on,67,37,0
2,note_on,67,0,180
2,note_on,63,0,0
2,note_on,58,0,0
2,note_on,63,24,60
2,note_on,67,29,0
2,note_on,58,24,0
2,note_on,58,0,180
2,note_on,67,0,0
2,note_on,63,0,0
2,note_on,68,31,60
2,note_on,63,26,0
2,note_on,60,26,0
2,note_on,60,0,240
2,note_on,63,0,0
2,note_on,68,0,0
2,note_on,61,28,0
2,note_on,70,33,0
2,note_on,63,28,0
2,note_on,63,0,240
2,note_on,70,0,0
2,note_on,61,0,0
2,note_on,61,29,0
2,note_on,63,33,0
2,note_on,56,43,0
2,note_on,63,0,240
2,note_on,61,0,0
2,note_on,63,23,0
2,note_on,68,28,0
2,note_on,60,23,0
2,note_on,60,0,180
2,note_on,68,0,0
2,note_on,63,0,0
2,note_on,63,23,60
2,note_on,68,28,0
2,note_on,60,23,0
2,note_on,60,0,180
2,note_on,68,0,0
2,note_on,63,0,0
2,note_on,68,31,60
2,note_on,60,26,0
2,note_on,63,26,0
2,note_on,63,0,180
2,note_on,60,0,0
2,note_on,68,0,0
2,note_on,56,0,60
2,note_on,68,31,0
2,note_on,72,37,60
2,note_on,63,31,0
2,note_on,63,0,180
2,note_on,72,0,0
2,note_on,68,0,0
2,note_on,63,26,0
2,note_on,68,31,0
2,note_on,60,26,0
2,note_on,60,0,180
2,note_on,68,0,0
2,note_on,63,0,0
2,note_on,68,31,60
2,note_on,60,26,0
2,note_on,63,26,0
2,note_on,63,0,180
2,note_on,60,0,0
2,note_on,68,0,0
2,note_on,68,31,60
2,note_on,60,26,0
2,note_on,63,26,0
2,note_on,63,0,180
2,note_on,60,0,0
2,note_on,68,0,0
2,note_on,51,37,60
2,note_on,51,0,240
2,note_on,58,23,0
2,note_on,63,23,0
2,note_on,67,28,0
2,note_on,67,0,180
2,note_on,63,0,0
2,note_on,58,0,0
2,note_on,67,28,60
2,note_on,63,23,0
2,note_on,58,23,0
2,note_on,58,0,180
2,note_on,63,0,0
2,note_on,67,0,0
2,note_on,63,23,60
2,note_on,67,28,0
2,note_on,58,23,0
2,note_on,58,0,180
2,note_on,67,0,0
2,note_on,63,0,0
2,note_on,58,31,60
2,note_on,67,37,0
2,note_on,63,31,0
2,note_on,63,0,180
2,note_on,67,0,0
2,note_on,58,0,0
2,note_on,63,24,60
2,note_on,67,29,0
2,note_on,58,24,0
2,note_on,58,0,180
2,note_on,67,0,0
2,note_on,63,0,0
2,note_on,68,31,60
2,note_on,63,26,0
2,note_on,60,26,0
2,note_on,60,0,240
2,note_on,63,0,0
2,note_on,68,0,0
2,note_on,70,33,0
2,note_on,63,28,0
2,note_on,61,28,0
2,note_on,61,0,240
2,note_on,63,0,0
2,note_on,70,0,0
2,note_on,51,33,0
2,note_on,51,0,240
2,note_on,70,33,240
2,note_on,63,33,0
2,note_on,61,33,0
2,note_on,61,0,3360
2,note_on,63,0,0
2,note_on,70,0,0
2,note_on,68,33,0
2,note_on,56,33,0
2,note_on,63,33,0
2,note_on,60,33,0
2,note_on,60,0,1440
2,note_on,68,0,0
2,note_on,56,0,0
2,note_on,63,0,0
2,note_on,56,46,960
2,note_on,56,0,120
2,note_on,60,39,0
2,note_on,60,0,120
2,note_on,51,39,0
2,note_on,51,0,120
2,note_on,56,35,0
2,note_on,56,0,120
2,note_on,60,44,0
2,note_on,60,0,120
2,note_on,63,37,0
2,note_on,63,0,120
2,note_on,51,37,0
2,note_on,51,0,120
2,note_on,56,33,0
2,note_on,56,0,120
2,note_on,60,43,0
2,note_on,60,0,120
2,note_on,63,35,0
2,note_on,63,0,120
2,note_on,51,35,0
2,note_on,51,0,120
2,note_on,56,30,0
2,note_on,56,0,120
2,note_on,60,41,0
2,note_on,60,0,120
2,note_on,63,34,0
2,note_on,63,0,120
2,note_on,51,34,0
2,note_on,51,0,120
2,note_on,56,28,0
2,note_on,56,0,120
2,note_on,60,40,0
2,note_on,60,0,120
2,note_on,63,31,0
2,note_on,63,0,120
2,note_on,51,31,0
2,note_on,51,0,120
2,note_on,56,27,0
2,note_on,56,0,120
2,note_on,60,38,0
2,note_on,60,0,120
2,note_on,63,31,0
2,note_on,63,0,120
2,note_on,51,30,0
2,note_on,51,0,120
2,note_on,56,28,0
2,note_on,56,0,120
2,note_on,60,38,0
2,note_on,60,0,120
2,note_on,63,29,0
2,note_on,63,0,120
2,note_on,51,29,0
2,note_on,51,0,120
2,note_on,56,25,0
2,note_on,56,0,120
2,note_on,44,37,0
2,note_on,59,37,0
2,note_on,32,28,0
2,note_on,63,29,115
2,note_on,59,0,5
2,note_on,63,0,115
2,note_on,51,29,5
2,note_on,51,0,120
2,note_on,56,25,0
2,note_on,56,0,120
2,note_on,32,0,0
2,note_on,44,0,0
2,note_on,59,37,0
2,note_on,59,0,120
2,note_on,63,29,0
2,note_on,63,0,120
2,note_on,51,29,0
2,note_on,51,0,120
2,note_on,56,25,0
2,note_on,56,0,120
2,note_on,59,37,0
2,note_on,59,0,120
2,note_on,63,29,0
2,note_on,63,0,120
2,note_on,51,29,0
2,note_on,51,0,120
2,note_on,56,26,0
2,note_on,56,0,120
2,note_on,59,37,0
2,note_on,59,0,120
2,note_on,63,29,0
2,note_on,63,0,120
2,note_on,61,36,0
2,note_on,61,0,120
2,note_on,63,39,0
2,note_on,63,0,120
2,note_on,59,47,0
2,note_on,59,0,120
2,note_on,63,36,0
2,note_on,63,0,120
2,note_on,51,36,0
2,note_on,51,0,120
2,note_on,56,32,0
2,note_on,56,0,120
2,note_on,59,40,0
2,note_on,59,0,120
2,note_on,63,36,0
2,note_on,63,0,120
2,note_on,51,36,0
2,note_on,51,0,120
2,note_on,56,33,0
2,note_on,56,0,120
2,note_on,59,45,0
2,note_on,59,0,120
2,note_on,63,35,0
2,note_on,63,0,120
2,note_on,56,35,0
2,note_on,59,35,0
2,note_on,59,0,120
2,note_on,56,0,0
2,note_on,63,35,0
2,note_on,63,0,120
2,note_on,55,44,0
2,note_on,61,44,0
2,note_on,61,0,120
2,note_on,55,0,0
2,note_on,63,29,0
2,note_on,63,0,120
2,note_on,59,31,0
2,note_on,56,31,0
2,note_on,56,0,120
2,note_on,59,0,0
2,note_on,63,27,0
2,note_on,63,0,120
2,note_on,58,37,0
2,note_on,55,37,0
2,note_on,63,29,115
2,note_on,55,0,5
2,note_on,58,0,0
2,note_on,63,0,115
2,note_on,51,29,5
2,note_on,51,0,120
2,note_on,55,26,0
2,note_on,55,0,120
2,note_on,58,37,0
2,note_on,58,0,120
2,note_on,63,29,0
2,note_on,63,0,120
2,note_on,51,29,0
2,note_on,51,0,120
2,note_on,55,24,0
2,note_on,55,0,120
2,note_on,58,37,0
2,note_on,58,0,120
2,note_on,63,29,0
2,note_on,63,0,120
2,note_on,51,29,0
2,note_on,51,0,120
2,note_on,55,26,0
2,note_on,55,0,120
2,note_on,58,42,0
2,note_on,58,0,120
2,note_on,63,31,0
2,note_on,63,0,120
2,note_on,61,31,0
2,note_on,61,0,120
2,note_on,63,27,0
2,note_on,63,0,120
2,note_on,59,39,0
2,note_on,59,0,120
2,note_on,63,29,7
2,note_on,63,0,120
2,note_on,51,29,5
2,note_on,51,0,120
2,note_on,56,25,0
2,note_on,56,0,120
2,note_on,59,42,0
2,note_on,59,0,120
2,note_on,63,34,0
2,note_on,63,0,120
2,note_on,51,34,0
2,note_on,51,0,120
2,note_on,56,27,0
2,note_on,56,0,120
2,note_on,59,41,0
2,note_on,59,0,120
2,note_on,63,33,0
2,note_on,51,33,108
2,note_on,63,0,12
2,note_on,51,0,108
2,note_on,56,29,0
2,note_on,56,0,120
2,note_on,59,37,0
2,note_on,59,0,120
2,note_on,63,29,12
2,note_on,61,29,108
2,note_on,55,29,0
2,note_on,63,0,12
2,note_on,55,0,108
2,note_on,61,0,0
2,note_on,63,26,12
2,note_on,63,0,108
2,note_on,59,37,0
2,note_on,56,37,0
2,note_on,63,29,115
2,note_on,56,0,5
2,note_on,59,0,0
2,note_on,63,0,115
2,note_on,51,29,5
2,note_on,51,0,120
2,note_on,56,24,0
2,note_on,56,0,120
2,note_on,59,38,0
2,note_on,59,0,120
2,note_on,63,30,0
2,note_on,63,0,120
2,note_on,51,31,0
2,note_on,51,0,120
2,note_on,56,31,0
2,note_on,56,0,120
2,note_on,59,40,0
2,note_on,59,0,120
2,note_on,63,32,0
2,note_on,63,0,120
2,note_on,51,32,0
2,note_on,51,0,120
2,note_on,56,28,0
2,note_on,56,0,120
2,note_on,59,42,0
2,note_on,59,0,120
2,note_on,63,33,0
2,note_on,63,0,120
2,note_on,54,41,0
2,note_on,61,41,0
2,note_on,61,0,120
2,note_on,54,0,0
2,note_on,66,44,0
2,note_on,66,0,120
2,note_on,63,54,0
2,note_on,59,54,0
2,note_on,59,0,120
2,note_on,63,0,0
2,note_on,66,41,0
2,note_on,66,0,120
2,note_on,54,41,2
2,note_on,59,35,118
2,note_on,54,0,2
2,note_on,59,0,118
2,note_on,63,46,0
2,note_on,63,0,120
2,note_on,66,41,0
2,note_on,66,0,120
2,note_on,54,41,0
2,note_on,54,0,120
2,note_on,59,36,0
2,note_on,59,0,120
2,note_on,63,51,0
2,note_on,63,0,120
2,note_on,66,44,0
2,note_on,66,0,120
2,note_on,59,46,0
2,note_on,63,46,0
2,note_on,63,0,120
2,note_on,59,0,0
2,note_on,66,47,0
2,note_on,66,0,120
2,note_on,58,55,0
2,note_on,64,55,0
2,note_on,64,0,120
2,note_on,58,0,0
2,note_on,66,48,0
2,note_on,66,0,120
2,note_on,63,50,0
2,note_on,59,50,0
2,note_on,59,0,120
2,note_on,63,0,0
2,note_on,66,54,0
2,note_on,66,0,120
2,note_on,61,60,0
2,note_on,58,60,0
2,note_on,58,0,120
2,note_on,61,0,0
2,note_on,66,49,0
2,note_on,66,0,120
2,note_on,54,49,0
2,note_on,54,0,120
2,note_on,58,42,0
2,note_on,58,0,120
2,note_on,61,52,0
2,note_on,61,0,120
2,note_on,66,42,0
2,note_on,66,0,120
2,note_on,54,42,0
2,note_on,54,0,120
2,note_on,58,36,0
2,note_on,58,0,120
2,note_on,61,58,0
2,note_on,61,0,120
2,note_on,66,45,0
2,note_on,66,0,120
2,note_on,54,45,0
2,note_on,54,0,120
2,note_on,58,40,0
2,note_on,58,0,120
2,note_on,61,56,0
2,note_on,61,0,120
2,note_on,66,41,0
2,note_on,66,0,120
2,note_on,64,41,0
2,note_on,64,0,120
2,note_on,66,35,0
2,note_on,66,0,120
2,note_on,63,53,0
2,note_on,63,0,120
2,note_on,66,43,0
2,note_on,66,0,120
2,note_on,54,43,0
2,note_on,54,0,120
2,note_on,59,38,0
2,note_on,59,0,120
2,note_on,63,48,0
2,note_on,63,0,120
2,note_on,66,38,0
2,note_on,66,0,120
2,note_on,54,38,0
2,note_on,54,0,120
2,note_on,59,33,0
2,note_on,59,0,120
2,note_on,63,45,0
2,note_on,63,0,120
2,note_on,66,35,0
2,note_on,66,0,120
2,note_on,54,35,0
2,note_on,54,0,120
2,note_on,59,31,0
2,note_on,59,0,120
2,note_on,59,38,0
2,note_on,63,38,0
2,note_on,63,0,120
2,note_on,59,0,0
2,note_on,66,30,0
2,note_on,66,0,120
2,note_on,64,29,0
2,note_on,58,29,0
2,note_on,58,0,120
2,note_on,64,0,0
2,note_on,66,26,0
2,note_on,66,0,108
2,note_on,63,37,12
2,note_on,59,37,0
2,note_on,59,0,120
2,note_on,63,0,0
2,note_on,66,29,0
2,note_on,66,0,120
2,note_on,54,29,0
2,note_on,54,0,120
2,note_on,59,25,0
2,note_on,59,0,120
2,note_on,63,38,0
2,note_on,63,0,120
2,note_on,66,30,0
2,note_on,66,0,120
2,note_on,54,31,0
2,note_on,54,0,120
2,note_on,59,26,0
2,note_on,59,0,120
2,note_on,63,40,0
2,note_on,63,0,120
2,note_on,66,32,0
2,note_on,66,0,120
2,note_on,54,32,0
2,note_on,54,0,120
2,note_on,59,28,0
2,note_on,59,0,120
2,note_on,63,42,0
2,note_on,63,0,120
2,note_on,66,33,0
2,note_on,66,0,120
2,note_on,54,41,0
2,note_on,54,0,120
2,note_on,59,44,0
2,note_on,59,0,120
2,note_on,64,50,0
2,note_on,64,0,120
2,note_on,59,36,0
2,note_on,59,0,120
2,note_on,56,36,0
2,note_on,56,0,120
2,note_on,59,32,0
2,note_on,59,0,120
2,note_on,64,45,0
2,note_on,64,0,120
2,note_on,68,36,0
2,note_on,68,0,120
2,note_on,56,36,0
2,note_on,56,0,120
2,note_on,59,33,0
2,note_on,59,0,120
2,note_on,64,44,0
2,note_on,64,0,120
2,note_on,68,37,0
2,note_on,68,0,120
2,note_on,56,37,0
2,note_on,56,0,120
2,note_on,61,37,0
2,note_on,61,0,120
2,note_on,64,48,0
2,note_on,64,0,120
2,note_on,68,38,0
2,note_on,68,0,120
2,note_on,56,41,0
2,note_on,56,0,120
2,note_on,61,44,0
2,note_on,61,0,120
2,note_on,64,56,0
2,note_on,64,0,120
2,note_on,66,42,0
2,note_on,66,0,120
2,note_on,54,42,0
2,note_on,54,0,120
2,note_on,61,35,0
2,note_on,61,0,120
2,note_on,64,52,0
2,note_on,64,0,120
2,note_on,66,42,0
2,note_on,66,0,120
2,note_on,54,42,0
2,note_on,54,0,120
2,note_on,61,36,0
2,note_on,61,0,120
2,note_on,63,50,0
2,note_on,63,0,120
2,note_on,66,40,0
2,note_on,66,0,120
2,note_on,54,40,0
2,note_on,54,0,120
2,note_on,59,36,0
2,note_on,59,0,120
2,note_on,63,42,0
2,note_on,63,0,120
2,note_on,66,33,0
2,note_on,66,0,120
2,note_on,54,41,0
2,note_on,54,0,120
2,note_on,59,44,0
2,note_on,59,0,120
2,note_on,61,54,0
2,note_on,61,0,120
2,note_on,66,41,0
2,note_on,66,0,120
2,note_on,54,41,0
2,note_on,54,0,120
2,note_on,59,35,0
2,note_on,59,0,120
2,note_on,61,48,0
2,note_on,61,0,120
2,note_on,66,39,0
2,note_on,66,0,120
2,note_on,54,39,0
2,note_on,54,0,120
2,note_on,59,39,0
2,note_on,59,0,120
2,note_on,61,48,0
2,note_on,61,0,120
2,note_on,66,32,0
2,note_on,66,0,120
2,note_on,54,37,0
2,note_on,54,0,120
2,note_on,58,35,0
2,note_on,58,0,120
2,note_on,61,42,0
2,note_on,61,0,120
2,note_on,66,29,0
2,note_on,66,0,120
2,note_on,54,29,0
2,note_on,54,0,120
2,note_on,58,25,0
2,note_on,58,0,120
2,note_on,63,37,0
2,note_on,63,0,120
2,note_on,66,29,0
2,note_on,66,0,120
2,note_on,54,29,0
2,note_on,54,0,120
2,note_on,59,25,0
2,note_on,59,0,120
2,note_on,63,38,0
2,note_on,63,0,120
2,note_on,66,30,0
2,note_on,66,0,120
2,note_on,54,31,0
2,note_on,54,0,120
2,note_on,59,28,0
2,note_on,59,0,120
2,note_on,62,40,0
2,note_on,62,0,120
2,note_on,66,32,0
2,note_on,66,0,120
2,note_on,54,32,0
2,note_on,54,0,120
2,note_on,59,28,0
2,note_on,59,0,120
2,note_on,62,42,0
2,note_on,62,0,120
2,note_on,66,33,0
2,note_on,66,0,120
2,note_on,54,33,0
2,note_on,54,0,120
2,note_on,59,28,0
2,note_on,59,0,120
2,note_on,61,37,0
2,note_on,61,0,120
2,note_on,66,29,0
2,note_on,66,0,120
2,note_on,54,29,0
2,note_on,54,0,120
2,note_on,59,24,0
2,note_on,59,0,120
2,note_on,61,38,0
2,note_on,61,0,120
2,note_on,66,29,0
2,note_on,66,0,120
2,note_on,54,29,0
2,note_on,54,0,120
2,note_on,59,24,0
2,note_on,59,0,120
2,note_on,61,40,0
2,note_on,61,0,120
2,note_on,66,28,0
2,note_on,66,0,120
2,note_on,54,28,0
2,note_on,54,0,120
2,note_on,58,28,0
2,note_on,58,0,120
2,note_on,61,41,0
2,note_on,61,0,120
2,note_on,66,29,0
2,note_on,66,0,120
2,note_on,54,29,0
2,note_on,54,0,120
2,note_on,58,25,0
2,note_on,58,0,120
2,note_on,59,37,0
2,note_on,59,0,120
2,note_on,63,29,0
2,note_on,63,0,120
2,note_on,51,29,0
2,note_on,51,0,120
2,note_on,54,25,0
2,note_on,54,0,120
2,note_on,59,38,0
2,note_on,59,0,120
2,note_on,63,30,0
2,note_on,63,0,120
2,note_on,51,31,0
2,note_on,51,0,120
2,note_on,54,28,0
2,note_on,54,0,120
2,note_on,61,40,0
2,note_on,61,0,120
2,note_on,63,32,0
2,note_on,63,0,120
2,note_on,51,32,0
2,note_on,51,0,120
2,note_on,55,28,0
2,note_on,55,0,120
2,note_on,61,42,0
2,note_on,63,29,115
2,note_on,61,0,5
2,note_on,63,0,115
2,note_on,51,29,5
2,note_on,51,0,120
2,note_on,55,26,0
2,note_on,55,0,120
2,note_on,32,28,0
2,note_on,44,37,0
2,note_on,59,37,0
2,note_on,63,29,115
2,note_on,59,0,5
2,note_on,63,0,115
2,note_on,51,29,5
2,note_on,51,0,120
2,note_on,56,26,0
2,note_on,56,0,120
2,note_on,44,0,0
2,note_on,32,0,0
2,note_on,59,37,0
2,note_on,59,0,120
2,note_on,63,29,0
2,note_on,63,0,120
2,note_on,51,29,0
2,note_on,51,0,120
2,note_on,56,26,0
2,note_on,56,0,120
2,note_on,59,37,0
2,note_on,59,0,120
2,note_on,63,29,0
2,note_on,63,0,120
2,note_on,51,29,0
2,note_on,51,0,120
2,note_on,56,26,0
2,note_on,56,0,120
2,note_on,59,37,0
2,note_on,59,0,120
2,note_on,63,29,0
2,note_on,63,0,120
2,note_on,61,36,0
2,note_on,61,0,120
2,note_on,63,39,0
2,note_on,63,0,120
2,note_on,59,47,0
2,note_on,59,0,120
2,note_on,63,36,0
2,note_on,63,0,120
2,note_on,51,36,0
2,note_on,51,0,120
2,note_on,56,32,0
2,note_on,56,0,120
2,note_on,59,40,0
2,note_on,59,0,120
2,note_on,63,36,0
2,note_on,63,0,120
2,note_on,51,36,0
2,note_on,51,0,120
2,note_on,56,32,0
2,note_on,56,0,120
2,note_on,59,45,0
2,note_on,59,0,120
2,note_on,63,35,0
2,note_on,63,0,120
2,note_on,59,35,0
2,note_on,56,35,0
2,note_on,56,0,120
2,note_on,59,0,0
2,note_on,63,29,0
2,note_on,63,0,120
2,note_on,61,44,0
2,note_on,55,44,0
2,note_on,55,0,120
2,note_on,61,0,0
2,note_on,63,29,0
2,note_on,63,0,120
2,note_on,56,31,0
2,note_on,59,31,0
2,note_on,59,0,120
2,note_on,56,0,0
2,note_on,63,28,0
2,note_on,63,0,120
2,note_on,55,37,0
2,note_on,58,37,0
2,note_on,63,29,115
2,note_on,58,0,5
2,note_on,55,0,0
2,note_on,63,0,115
2,note_on,51,29,5
2,note_on,51,0,120
2,note_on,55,24,0
2,note_on,55,0,120
2,note_on,58,37,0
2,note_on,58,0,120
2,note_on,63,29,0
2,note_on,63,0,120
2,note_on,51,29,0
2,note_on,51,0,120
2,note_on,55,25,0
2,note_on,55,0,120
2,note_on,58,37,0
2,note_on,58,0,120
2,note_on,63,29,0
2,note_on,63,0,120
2,note_on,51,29,0
2,note_on,51,0,120
2,note_on,55,26,0
2,note_on,55,0,120
2,note_on,58,42,0
2,note_on,58,0,120
2,note_on,63,31,0
2,note_on,63,0,120
2,note_on,61,31,0
2,note_on,61,0,120
2,note_on,63,29,0
2,note_on,63,0,120
2,note_on,59,39,0
2,note_on,59,0,120
2,note_on,63,29,7
2,note_on,63,0,120
2,note_on,51,29,5
2,note_on,51,0,120
2,note_on,56,24,0
2,note_on,56,0,120
2,note_on,59,42,0
2,note_on,59,0,120
2,note_on,63,34,0
2,note_on,63,0,120
2,note_on,51,34,0
2,note_on,51,0,120
2,note_on,56,28,0
2,note_on,56,0,120
2,note_on,59,41,0
2,note_on,59,0,120
2,note_on,63,33,0
2,note_on,51,33,108
2,note_on,63,0,12
2,note_on,51,0,108
2,note_on,56,29,0
2,note_on,56,0,120
2,note_on,59,37,0
2,note_on,59,0,120
2,note_on,63,29,12
2,note_on,61,29,108
2,note_on,55,29,0
2,note_on,63,0,12
2,note_on,55,0,108
2,note_on,61,0,0
2,note_on,63,25,12
2,note_on,63,0,108
2,note_on,59,37,0
2,note_on,56,37,0
2,note_on,63,29,115
2,note_on,56,0,5
2,note_on,59,0,0
2,note_on,63,0,115
2,note_on,51,29,5
2,note_on,51,0,120
2,note_on,56,25,0
2,note_on,56,0,120
2,note_on,59,38,0
2,note_on,59,0,120
2,note_on,63,30,0
2,note_on,63,0,120
2,note_on,51,31,0
2,note_on,51,0,120
2,note_on,56,28,0
2,note_on,56,0,120
2,note_on,59,40,0
2,note_on,59,0,120
2,note_on,63,32,0
2,note_on,63,0,120
2,note_on,51,32,0
2,note_on,51,0,120
2,note_on,56,27,0
2,note_on,56,0,120
2,note_on,59,42,0
2,note_on,59,0,120
2,note_on,63,33,0
2,note_on,63,0,120
2,note_on,61,41,0
2,note_on,54,41,0
2,note_on,54,0,120
2,note_on,61,0,0
2,note_on,66,44,0
2,note_on,66,0,120
2,note_on,63,54,0
2,note_on,59,54,0
2,note_on,59,0,120
2,note_on,63,0,0
2,note_on,66,41,0
2,note_on,66,0,120
2,note_on,54,41,2
2,note_on,59,36,118
2,note_on,54,0,2
2,note_on,59,0,118
2,note_on,63,46,0
2,note_on,63,0,120
2,note_on,66,41,0
2,note_on,66,0,120
2,note_on,54,41,0
2,note_on,54,0,120
2,note_on,59,36,0
2,note_on,59,0,120
2,note_on,63,51,0
2,note_on,63,0,120
2,note_on,66,44,0
2,note_on,66,0,120
2,note_on,63,46,0
2,note_on,59,46,0
2,note_on,59,0,120
2,note_on,63,0,0
2,note_on,66,47,0
2,note_on,66,0,120
2,note_on,64,55,0
2,note_on,58,55,0
2,note_on,58,0,120
2,note_on,64,0,0
2,note_on,66,48,0
2,note_on,66,0,120
2,note_on,59,50,0
2,note_on,63,50,0
2,note_on,63,0,120
2,note_on,59,0,0
2,note_on,66,54,0
2,note_on,66,0,120
2,note_on,61,60,0
2,note_on,58,60,0
2,note_on,58,0,120
2,note_on,61,0,0
2,note_on,66,49,0
2,note_on,66,0,120
2,note_on,54,49,0
2,note_on,54,0,120
2,note_on,58,43,0
2,note_on,58,0,120
2,note_on,61,52,0
2,note_on,61,0,120
2,note_on,66,42,0
2,note_on,66,0,120
2,note_on,54,42,0
2,note_on,54,0,120
2,note_on,58,36,0
2,note_on,58,0,120
2,note_on,61,58,0
2,note_on,61,0,120
2,note_on,66,45,0
2,note_on,66,0,120
2,note_on,54,45,0
2,note_on,54,0,120
2,note_on,58,36,0
2,note_on,58,0,120
2,note_on,61,56,0
2,note_on,61,0,120
2,note_on,66,41,0
2,note_on,66,0,120
2,note_on,64,41,0
2,note_on,64,0,120
2,note_on,66,36,0
2,note_on,66,0,120
2,note_on,63,53,0
2,note_on,63,0,120
2,note_on,66,43,0
2,note_on,66,0,120
2,note_on,54,43,0
2,note_on,54,0,120
2,note_on,59,38,0
2,note_on,59,0,120
2,note_on,63,48,0
2,note_on,63,0,120
2,note_on,66,38,0
2,note_on,66,0,120
2,note_on,54,38,0
2,note_on,54,0,120
2,note_on,59,33,0
2,note_on,59,0,120
2,note_on,63,45,0
2,note_on,63,0,120
2,note_on,66,35,0
2,note_on,66,0,120
2,note_on,54,35,0
2,note_on,54,0,120
2,note_on,59,32,0
2,note_on,59,0,120
2,note_on,59,38,0
2,note_on,63,38,0
2,note_on,63,0,120
2,note_on,59,0,0
2,note_on,66,30,0
2,note_on,66,0,120
2,note_on,64,29,0
2,note_on,58,29,0
2,note_on,58,0,120
2,note_on,64,0,0
2,note_on,66,25,0
2,note_on,66,0,108
2,note_on,63,37,12
2,note_on,59,37,0
2,note_on,59,0,120
2,note_on,63,0,0
2,note_on,66,29,0
2,note_on,66,0,120
2,note_on,54,29,0
2,note_on,54,0,120
2,note_on,59,23,0
2,note_on,59,0,120
2,note_on,63,38,0
2,note_on,63,0,120
2,note_on,66,30,0
2,note_on,66,0,120
2,note_on,54,31,0
2,note_on,54,0,120
2,note_on,59,26,0
2,note_on,59,0,120
2,note_on,63,40,0
2,note_on,63,0,120
2,note_on,66,32,0
2,note_on,66,0,120
2,note_on,54,32,0
2,note_on,54,0,120
2,note_on,59,28,0
2,note_on,59,0,120
2,note_on,63,42,0
2,note_on,63,0,120
2,note_on,66,33,0
2,note_on,66,0,120
2,note_on,54,41,0
2,note_on,54,0,120
2,note_on,59,44,0
2,note_on,59,0,120
2,note_on,64,50,0
2,note_on,64,0,120
2,note_on,59,36,0
2,note_on,59,0,120
2,note_on,56,36,0
2,note_on,56,0,120
2,note_on,59,31,0
2,note_on,59,0,120
2,note_on,64,45,0
2,note_on,64,0,120
2,note_on,68,36,0
2,note_on,68,0,120
2,note_on,56,36,0
2,note_on,56,0,120
2,note_on,59,31,0
2,note_on,59,0,120
2,note_on,64,44,0
2,note_on,64,0,120
2,note_on,68,37,0
2,note_on,68,0,120
2,note_on,56,37,0
2,note_on,56,0,120
2,note_on,61,34,0
2,note_on,61,0,120
2,note_on,64,48,0
2,note_on,64,0,120
2,note_on,68,38,0
2,note_on,68,0,120
2,note_on,56,41,0
2,note_on,56,0,120
2,note_on,61,44,0
2,note_on,61,0,120
2,note_on,64,56,0
2,note_on,64,0,120
2,note_on,66,42,0
2,note_on,66,0,120
2,note_on,54,42,0
2,note_on,54,0,120
2,note_on,61,37,0
2,note_on,61,0,120
2,note_on,64,52,0
2,note_on,64,0,120
2,note_on,66,42,0
2,note_on,66,0,120
2,note_on,54,42,0
2,note_on,54,0,120
2,note_on,61,36,0
2,note_on,61,0,120
2,note_on,63,50,0
2,note_on,63,0,120
2,note_on,66,40,0
2,note_on,66,0,120
2,note_on,54,40,0
2,note_on,54,0,120
2,note_on,59,36,0
2,note_on,59,0,120
2,note_on,63,42,0
2,note_on,63,0,120
2,note_on,66,33,0
2,note_on,66,0,120
2,note_on,54,41,0
2,note_on,54,0,120
2,note_on,59,44,0
2,note_on,59,0,120
2,note_on,61,54,0
2,note_on,61,0,120
2,note_on,66,41,0
2,note_on,66,0,120
2,note_on,54,41,0
2,note_on,54,0,120
2,note_on,59,36,0
2,note_on,59,0,120
2,note_on,61,48,0
2,note_on,61,0,120
2,note_on,66,39,0
2,note_on,66,0,120
2,note_on,54,39,0
2,note_on,54,0,120
2,note_on,59,36,0
2,note_on,59,0,120
2,note_on,61,48,0
2,note_on,61,0,120
2,note_on,66,32,0
2,note_on,66,0,120
2,note_on,54,37,0
2,note_on,54,0,120
2,note_on,58,37,0
2,note_on,58,0,120
2,note_on,61,42,0
2,note_on,61,0,120
2,note_on,66,29,0
2,note_on,66,0,120
2,note_on,54,29,0
2,note_on,54,0,120
2,note_on,58,29,0
2,note_on,58,0,120
2,note_on,63,37,0
2,note_on,63,0,120
2,note_on,66,29,0
2,note_on,66,0,120
2,note_on,54,29,0
2,note_on,54,0,120
2,note_on,59,25,0
2,note_on,59,0,120
2,note_on,63,38,0
2,note_on,63,0,120
2,note_on,66,30,0
2,note_on,66,0,120
2,note_on,54,31,0
2,note_on,54,0,120
2,note_on,59,26,0
2,note_on,59,0,120
2,note_on,62,40,0
2,note_on,62,0,120
2,note_on,66,32,0
2,note_on,66,0,120
2,note_on,54,32,0
2,note_on,54,0,120
2,note_on,59,29,0
2,note_on,59,0,120
2,note_on,62,42,0
2,note_on,62,0,120
2,note_on,66,33,0
2,note_on,66,0,120
2,note_on,54,33,0
2,note_on,54,0,120
2,note_on,59,28,0
2,note_on,59,0,120
2,note_on,61,37,0
2,note_on,61,0,120
2,note_on,66,29,0
2,note_on,66,0,120
2,note_on,54,29,0
2,note_on,54,0,120
2,note_on,59,26,0
2,note_on,59,0,120
2,note_on,61,38,0
2,note_on,61,0,120
2,note_on,66,29,0
2,note_on,66,0,120
2,note_on,54,29,0
2,note_on,54,0,120
2,note_on,59,27,0
2,note_on,59,0,120
2,note_on,61,40,0
2,note_on,61,0,120
2,note_on,66,28,0
2,note_on,66,0,120
2,note_on,54,28,0
2,note_on,54,0,120
2,note_on,58,26,0
2,note_on,58,0,120
2,note_on,61,41,0
2,note_on,61,0,120
2,note_on,66,29,0
2,note_on,66,0,120
2,note_on,54,29,0
2,note_on,54,0,120
2,note_on,58,26,0
2,note_on,58,0,120
2,note_on,63,37,0
2,note_on,63,0,120
2,note_on,66,29,0
2,note_on,66,0,120
2,note_on,54,29,0
2,note_on,54,0,120
2,note_on,59,25,0
2,note_on,59,0,120
2,note_on,63,38,0
2,note_on,63,0,120
2,note_on,66,30,0
2,note_on,66,0,120
2,note_on,54,31,0
2,note_on,54,0,120
2,note_on,59,24,0
2,note_on,59,0,120
2,note_on,63,45,0
2,note_on,63,0,120
2,note_on,66,32,0
2,note_on,66,0,120
2,note_on,54,32,0
2,note_on,54,0,120
2,note_on,59,32,0
2,note_on,59,0,120
2,note_on,63,47,0
2,note_on,63,0,120
2,note_on,66,34,0
2,note_on,66,0,120
2,note_on,54,38,0
2,note_on,54,0,120
2,note_on,59,38,0
2,note_on,59,0,120
2,note_on,63,50,0
2,note_on,63,0,120
2,note_on,67,39,0
2,note_on,67,0,120
2,note_on,55,39,0
2,note_on,55,0,120
2,note_on,58,34,0
2,note_on,58,0,120
2,note_on,63,51,0
2,note_on,63,0,120
2,note_on,67,39,0
2,note_on,67,0,120
2,note_on,55,40,0
2,note_on,55,0,120
2,note_on,58,35,0
2,note_on,58,0,120
2,note_on,63,49,0
2,note_on,63,0,120
2,note_on,67,38,0
2,note_on,67,0,120
2,note_on,55,38,0
2,note_on,55,0,120
2,note_on,58,33,0
2,note_on,58,0,120
2,note_on,63,51,0
2,note_on,63,0,120
2,note_on,67,40,0
2,note_on,67,0,120
2,note_on,55,41,0
2,note_on,55,0,120
2,note_on,58,35,0
2,note_on,58,0,120
2,note_on,63,59,0
2,note_on,63,0,120
2,note_on,68,45,0
2,note_on,68,0,120
2,note_on,56,46,0
2,note_on,56,0,120
2,note_on,59,42,0
2,note_on,59,0,120
2,note_on,63,64,0
2,note_on,63,0,120
2,note_on,68,48,0
2,note_on,68,0,120
2,note_on,56,50,0
2,note_on,56,0,120
2,note_on,59,47,0
2,note_on,59,0,120
2,note_on,63,58,0
2,note_on,63,0,120
2,note_on,68,47,0
2,note_on,68,0,120
2,note_on,56,47,0
2,note_on,56,0,120
2,note_on,59,44,0
2,note_on,59,0,120
2,note_on,63,54,0
2,note_on,63,0,120
2,note_on,68,46,0
2,note_on,68,0,120
2,note_on,56,46,0
2,note_on,56,0,120
2,note_on,59,44,0
2,note_on,59,0,120
2,note_on,63,57,0
2,note_on,63,0,120
2,note_on,67,44,0
2,note_on,67,0,120
2,note_on,55,44,0
2,note_on,55,0,120
2,note_on,58,40,0
2,note_on,58,0,120
2,note_on,63,58,0
2,note_on,63,0,120
2,note_on,67,44,0
2,note_on,67,0,120
2,note_on,55,46,0
2,note_on,55,0,120
2,note_on,58,42,0
2,note_on,58,0,120
2,note_on,63,56,0
2,note_on,63,0,120
2,note_on,67,43,0
2,note_on,67,0,120
2,note_on,55,43,0
2,note_on,55,0,120
2,note_on,58,39,0
2,note_on,58,0,120
2,note_on,63,58,0
2,note_on,63,0,120
2,note_on,67,46,0
2,note_on,67,0,120
2,note_on,55,47,0
2,note_on,55,0,120
2,note_on,58,42,0
2,note_on,58,0,120
2,note_on,63,67,0
2,note_on,63,0,120
2,note_on,68,51,0
2,note_on,68,0,120
2,note_on,56,51,0
2,note_on,56,0,120
2,note_on,59,47,0
2,note_on,59,0,120
2,note_on,63,69,0
2,note_on,63,0,120
2,note_on,68,51,0
2,note_on,68,0,120
2,note_on,56,51,0
2,note_on,56,0,120
2,note_on,59,45,0
2,note_on,59,0,120
2,note_on,63,60,0
2,note_on,63,0,120
2,note_on,68,49,0
2,note_on,68,0,120
2,note_on,56,49,0
2,note_on,56,0,120
2,note_on,59,44,0
2,note_on,59,0,120
2,note_on,63,59,0
2,note_on,63,0,120
2,note_on,68,51,0
2,note_on,68,0,120
2,note_on,56,51,0
2,note_on,56,0,120
2,note_on,59,46,0
2,note_on,59,0,120
2,note_on,64,65,0
2,note_on,64,0,120
2,note_on,68,53,0
2,note_on,68,0,120
2,note_on,56,53,0
2,note_on,56,0,120
2,note_on,59,51,0
2,note_on,59,0,120
2,note_on,64,62,0
2,note_on,64,0,120
2,note_on,68,53,0
2,note_on,68,0,120
2,note_on,56,53,0
2,note_on,56,0,120
2,note_on,59,48,0
2,note_on,59,0,120
2,note_on,64,62,0
2,note_on,64,0,120
2,note_on,69,53,0
2,note_on,69,0,120
2,note_on,57,53,0
2,note_on,57,0,120
2,note_on,60,48,0
2,note_on,60,0,120
2,note_on,64,62,0
2,note_on,64,0,120
2,note_on,69,53,0
2,note_on,69,0,120
2,note_on,57,53,0
2,note_on,57,0,120
2,note_on,60,47,0
2,note_on,60,0,120
2,note_on,64,65,0
2,note_on,64,0,120
2,note_on,68,53,0
2,note_on,68,0,120
2,note_on,56,53,0
2,note_on,56,0,120
2,note_on,59,49,0
2,note_on,59,0,120
2,note_on,64,62,0
2,note_on,64,0,120
2,note_on,68,53,0
2,note_on,68,0,120
2,note_on,56,53,0
2,note_on,56,0,120
2,note_on,59,48,0
2,note_on,59,0,120
2,note_on,64,62,0
2,note_on,64,0,120
2,note_on,69,53,0
2,note_on,69,0,120
2,note_on,57,53,0
2,note_on,57,0,120
2,note_on,60,48,0
2,note_on,60,0,120
2,note_on,64,62,0
2,note_on,64,0,120
2,note_on,69,53,0
2,note_on,69,0,120
2,note_on,57,53,0
2,note_on,57,0,120
2,note_on,60,47,0
2,note_on,60,0,120
2,note_on,64,65,0
2,note_on,64,0,120
2,note_on,68,46,0
2,note_on,68,0,120
2,note_on,56,46,0
2,note_on,56,0,120
2,note_on,59,41,0
2,note_on,59,0,120
2,note_on,64,55,0
2,note_on,64,0,120
2,note_on,68,40,0
2,note_on,68,0,120
2,note_on,56,40,0
2,note_on,56,0,120
2,note_on,59,36,0
2,note_on,59,0,120
2,note_on,64,40,0
2,note_on,64,0,120
2,note_on,68,46,0
2,note_on,68,0,120
2,note_on,56,37,0
2,note_on,56,0,120
2,note_on,59,37,0
2,note_on,59,0,120
2,note_on,63,37,0
2,note_on,63,0,120
2,note_on,68,43,0
2,note_on,68,0,120
2,note_on,56,37,0
2,note_on,56,0,120
2,note_on,59,34,0
2,note_on,59,0,120
2,note_on,65,37,0
2,note_on,65,0,120
2,note_on,68,29,0
2,note_on,68,0,120
2,note_on,56,29,0
2,note_on,56,0,120
2,note_on,58,26,0
2,note_on,58,0,120
2,note_on,65,38,0
2,note_on,65,0,120
2,note_on,68,30,0
2,note_on,68,0,120
2,note_on,56,31,0
2,note_on,56,0,120
2,note_on,58,28,0
2,note_on,58,0,120
2,note_on,65,41,0
2,note_on,65,0,120
2,note_on,68,31,0
2,note_on,68,0,120
2,note_on,56,31,0
2,note_on,56,0,120
2,note_on,58,25,0
2,note_on,58,0,120
2,note_on,65,40,0
2,note_on,65,0,120
2,note_on,68,29,0
2,note_on,68,0,120
2,note_on,56,32,0
2,note_on,56,0,120
2,note_on,58,30,0
2,note_on,58,0,120
2,note_on,63,44,0
2,note_on,63,0,120
2,note_on,67,32,0
2,note_on,67,0,120
2,note_on,55,32,0
2,note_on,55,0,120
2,note_on,58,28,0
2,note_on,58,0,120
2,note_on,63,44,0
2,note_on,63,0,120
2,note_on,67,34,0
2,note_on,67,0,120
2,note_on,55,34,0
2,note_on,55,0,120
2,note_on,58,33,0
2,note_on,58,0,120
2,note_on,63,41,0
2,note_on,63,0,120
2,note_on,67,31,0
2,note_on,67,0,120
2,note_on,55,31,0
2,note_on,55,0,120
2,note_on,58,25,0
2,note_on,58,0,120
2,note_on,63,40,0
2,note_on,63,0,120
2,note_on,67,29,0
2,note_on,67,0,120
2,note_on,55,31,0
2,note_on,55,0,120
2,note_on,58,26,0
2,note_on,58,0,120
2,note_on,63,37,0
2,note_on,63,0,120
2,note_on,68,27,0
2,note_on,68,0,120
2,note_on,56,27,0
2,note_on,56,0,120
2,note_on,60,24,0
2,note_on,60,0,120
2,note_on,63,37,0
2,note_on,63,0,120
2,note_on,68,28,0
2,note_on,68,0,120
2,note_on,56,28,0
2,note_on,56,0,120
2,note_on,60,24,0
2,note_on,60,0,120
2,note_on,65,37,0
2,note_on,65,0,120
2,note_on,68,27,0
2,note_on,68,0,120
2,note_on,56,27,0
2,note_on,56,0,120
2,note_on,60,25,0
2,note_on,60,0,120
2,note_on,65,37,0
2,note_on,65,0,120
2,note_on,68,28,0
2,note_on,68,0,120
2,note_on,56,28,0
2,note_on,56,0,120
2,note_on,60,24,0
2,note_on,60,0,120
2,note_on,65,37,0
2,note_on,65,0,120
2,note_on,68,27,0
2,note_on,68,0,120
2,note_on,56,27,0
2,note_on,56,0,120
2,note_on,62,24,0
2,note_on,62,0,120
2,note_on,65,37,0
2,note_on,65,0,120
2,note_on,68,28,0
2,note_on,68,0,120
2,note_on,56,28,0
2,note_on,56,0,120
2,note_on,62,25,0
2,note_on,62,0,120
2,note_on,65,37,0
2,note_on,65,0,120
2,note_on,68,27,0
2,note_on,68,0,120
2,note_on,56,27,0
2,note_on,56,0,120
2,note_on,62,24,0
2,note_on,62,0,120
2,note_on,65,37,0
2,note_on,65,0,120
2,note_on,68,29,0
2,note_on,68,0,120
2,note_on,56,29,0
2,note_on,56,0,120
2,note_on,62,26,0
2,note_on,62,0,120
2,note_on,63,40,0
2,note_on,63,0,120
2,note_on,67,29,0
2,note_on,67,0,120
2,note_on,55,29,0
2,note_on,55,0,120
2,note_on,58,23,0
2,note_on,58,0,120
2,note_on,63,38,0
2,note_on,63,0,120
2,note_on,67,30,0
2,note_on,67,0,120
2,note_on,55,30,0
2,note_on,55,0,120
2,note_on,58,28,0
2,note_on,58,0,120
2,note_on,63,30,0
2,note_on,63,0,120
2,note_on,67,27,0
2,note_on,67,0,120
2,note_on,55,27,0
2,note_on,55,0,120
2,note_on,58,27,0
2,note_on,58,0,120
2,note_on,63,45,0
2,note_on,63,0,120
2,note_on,67,32,0
2,note_on,67,0,120
2,note_on,55,35,0
2,note_on,55,0,120
2,note_on,58,39,0
2,note_on,58,0,120
2,note_on,62,49,0
2,note_on,62,0,120
2,note_on,68,36,0
2,note_on,68,0,120
2,note_on,56,36,0
2,note_on,56,0,120
2,note_on,58,30,0
2,note_on,58,0,120
2,note_on,62,46,0
2,note_on,62,0,120
2,note_on,68,33,0
2,note_on,68,0,120
2,note_on,56,31,0
2,note_on,56,0,120
2,note_on,58,26,0
2,note_on,58,0,120
2,note_on,61,37,0
2,note_on,61,0,120
2,note_on,63,27,0
2,note_on,63,0,120
2,note_on,51,27,0
2,note_on,51,0,120
2,note_on,58,24,0
2,note_on,58,0,120
2,note_on,61,37,0
2,note_on,61,0,120
2,note_on,63,28,0
2,note_on,63,0,120
2,note_on,51,28,0
2,note_on,51,0,120
2,note_on,58,24,0
2,note_on,58,0,120
2,note_on,60,37,0
2,note_on,60,0,120
2,note_on,63,27,0
2,note_on,63,0,120
2,note_on,51,27,0
2,note_on,51,0,120
2,note_on,56,24,0
2,note_on,56,0,120
2,note_on,60,37,0
2,note_on,60,0,120
2,note_on,63,28,0
2,note_on,63,0,120
2,note_on,51,28,0
2,note_on,51,0,120
2,note_on,56,28,0
2,note_on,56,0,120
2,note_on,60,37,0
2,note_on,60,0,120
2,note_on,63,28,0
2,note_on,63,0,120
2,note_on,51,28,0
2,note_on,51,0,120
2,note_on,56,25,0
2,note_on,56,0,120
2,note_on,60,37,0
2,note_on,60,0,120
2,note_on,63,29,0
2,note_on,63,0,120
2,note_on,58,36,0
2,note_on,58,0,120
2,note_on,63,39,0
2,note_on,63,0,120
2,note_on,60,47,0
2,note_on,60,0,120
2,note_on,63,36,0
2,note_on,63,0,120
2,note_on,51,36,0
2,note_on,51,0,120
2,note_on,56,31,0
2,note_on,56,0,120
2,note_on,60,40,0
2,note_on,60,0,120
2,note_on,63,36,0
2,note_on,63,0,120
2,note_on,51,36,0
2,note_on,51,0,120
2,note_on,56,32,0
2,note_on,56,0,120
2,note_on,60,45,0
2,note_on,60,0,120
2,note_on,63,35,0
2,note_on,63,0,120
2,note_on,60,35,0
2,note_on,56,35,0
2,note_on,56,0,120
2,note_on,60,0,0
2,note_on,63,31,0
2,note_on,63,0,120
2,note_on,55,44,0
2,note_on,61,44,0
2,note_on,61,0,120
2,note_on,55,0,0
2,note_on,63,29,0
2,note_on,63,0,120
2,note_on,56,31,0
2,note_on,60,31,0
2,note_on,60,0,120
2,note_on,56,0,0
2,note_on,63,27,0
2,note_on,63,0,120
2,note_on,55,37,0
2,note_on,58,37,0
2,note_on,63,29,115
2,note_on,58,0,5
2,note_on,55,0,0
2,note_on,63,0,115
2,note_on,51,29,5
2,note_on,51,0,120
2,note_on,55,25,0
2,note_on,55,0,120
2,note_on,58,37,0
2,note_on,58,0,120
2,note_on,63,29,0
2,note_on,63,0,120
2,note_on,51,29,0
2,note_on,51,0,120
2,note_on,55,25,0
2,note_on,55,0,120
2,note_on,58,37,0
2,note_on,58,0,120
2,note_on,63,29,0
2,note_on,63,0,120
2,note_on,51,29,0
2,note_on,51,0,120
2,note_on,55,24,0
2,note_on,55,0,120
2,note_on,58,42,0
2,note_on,58,0,120
2,note_on,63,31,0
2,note_on,63,0,120
2,note_on,61,31,0
2,note_on,61,0,120
2,note_on,63,28,0
2,note_on,63,0,120
2,note_on,60,39,0
2,note_on,60,0,120
2,note_on,63,29,7
2,note_on,63,0,120
2,note_on,51,29,5
2,note_on,51,0,120
2,note_on,56,25,0
2,note_on,56,0,120
2,note_on,60,42,0
2,note_on,60,0,120
2,note_on,63,34,0
2,note_on,63,0,120
2,note_on,51,34,0
2,note_on,51,0,120
2,note_on,56,29,0
2,note_on,60,41,108
2,note_on,56,0,12
2,note_on,60,0,108
2,note_on,63,33,12
2,note_on,51,33,108
2,note_on,63,0,12
2,note_on,51,0,108
2,note_on,56,29,0
2,note_on,56,0,120
2,note_on,60,37,0
2,note_on,60,0,120
2,note_on,63,29,12
2,note_on,61,29,108
2,note_on,55,29,0
2,note_on,63,0,12
2,note_on,55,0,108
2,note_on,61,0,0
2,note_on,63,28,12
2,note_on,63,0,108
2,note_on,60,37,0
2,note_on,56,37,0
2,note_on,63,29,115
2,note_on,56,0,5
2,note_on,60,0,0
2,note_on,63,0,115
2,note_on,51,29,5
2,note_on,51,0,120
2,note_on,56,27,0
2,note_on,56,0,120
2,note_on,60,38,0
2,note_on,60,0,120
2,note_on,63,30,0
2,note_on,63,0,120
2,note_on,51,31,0
2,note_on,51,0,120
2,note_on,56,29,0
2,note_on,56,0,120
2,note_on,60,40,0
2,note_on,60,0,120
2,note_on,63,32,0
2,note_on,63,0,120
2,note_on,51,32,0
2,note_on,51,0,120
2,note_on,56,29,0
2,note_on,56,0,120
2,note_on,60,42,0
2,note_on,60,0,120
2,note_on,63,33,0
2,note_on,63,0,120
2,note_on,61,41,0
2,note_on,61,0,120
2,note_on,63,44,0
2,note_on,63,0,120
2,note_on,60,54,0
2,note_on,60,0,120
2,note_on,63,41,0
2,note_on,63,0,120
2,note_on,51,41,0
2,note_on,51,0,120
2,note_on,56,37,0
2,note_on,56,0,120
2,note_on,60,46,0
2,note_on,60,0,120
2,note_on,63,41,0
2,note_on,63,0,120
2,note_on,51,41,0
2,note_on,51,0,120
2,note_on,56,36,0
2,note_on,56,0,120
2,note_on,60,51,0
2,note_on,60,0,120
2,note_on,63,44,0
2,note_on,63,0,120
2,note_on,60,46,0
2,note_on,60,0,120
2,note_on,63,47,0
2,note_on,63,0,120
2,note_on,61,55,0
2,note_on,61,0,120
2,note_on,65,48,0
2,note_on,65,0,120
2,note_on,58,50,0
2,note_on,58,0,120
2,note_on,67,54,0
2,note_on,67,0,120
2,note_on,60,60,0
2,note_on,60,0,120
2,note_on,68,49,0
2,note_on,68,0,120
2,note_on,56,49,0
2,note_on,56,0,120
2,note_on,60,45,0
2,note_on,60,0,120
2,note_on,63,52,0
2,note_on,63,0,120
2,note_on,68,42,0
2,note_on,68,0,120
2,note_on,56,42,0
2,note_on,56,0,120
2,note_on,60,38,0
2,note_on,60,0,120
2,note_on,63,58,0
2,note_on,63,0,120
2,note_on,68,45,0
2,note_on,68,0,120
2,note_on,60,45,0
2,note_on,60,0,120
2,note_on,68,39,0
2,note_on,68,0,120
2,note_on,63,56,0
2,note_on,63,0,120
2,note_on,67,41,0
2,note_on,67,0,120
2,note_on,61,41,0
2,note_on,61,0,120
2,note_on,65,39,0
2,note_on,65,0,120
2,note_on,60,53,0
2,note_on,60,0,120
2,note_on,63,39,0
2,note_on,63,0,120
2,note_on,51,39,0
2,note_on,51,0,120
2,note_on,56,37,0
2,note_on,56,0,120
2,note_on,60,46,0
2,note_on,60,0,120
2,note_on,63,34,0
2,note_on,63,0,120
2,note_on,51,34,0
2,note_on,51,0,120
2,note_on,56,30,0
2,note_on,56,0,120
2,note_on,60,40,0
2,note_on,60,0,120
2,note_on,63,31,0
2,note_on,63,0,120
2,note_on,60,31,0
2,note_on,56,31,0
2,note_on,56,0,120
2,note_on,60,0,0
2,note_on,63,27,0
2,note_on,63,0,120
2,note_on,55,43,0
2,note_on,61,43,0
2,note_on,61,0,120
2,note_on,55,0,0
2,note_on,63,35,0
2,note_on,63,0,120
2,note_on,58,35,0
2,note_on,55,35,0
2,note_on,55,0,120
2,note_on,58,0,0
2,note_on,63,33,0
2,note_on,63,0,120
2,note_on,60,36,0
2,note_on,56,36,0
2,note_on,56,0,120
2,note_on,60,0,0
2,note_on,63,30,0
2,note_on,63,0,120
2,note_on,51,30,0
2,note_on,51,0,120
2,note_on,56,27,0
2,note_on,56,0,120
2,note_on,60,27,0
2,note_on,60,0,120
2,note_on,63,33,0
2,note_on,63,0,120
2,note_on,51,33,0
2,note_on,51,0,120
2,note_on,56,29,0
2,note_on,56,0,120
2,note_on,60,45,0
2,note_on,60,0,120
2,note_on,63,31,0
2,note_on,63,0,120
2,note_on,51,31,0
2,note_on,51,0,120
2,note_on,56,25,0
2,note_on,56,0,120
2,note_on,60,25,0
2,note_on,60,0,120
2,note_on,63,19,0
2,note_on,63,0,120
2,note_on,61,24,0
2,note_on,61,0,120
2,note_on,63,26,0
2,note_on,63,0,120
2,note_on,60,32,0
2,note_on,60,0,120
2,note_on,63,24,0
2,note_on,63,0,120
2,note_on,51,24,0
2,note_on,51,0,120
2,note_on,56,24,0
2,note_on,56,0,120
2,note_on,60,27,0
2,note_on,60,0,120
2,note_on,63,24,0
2,note_on,63,0,120
2,note_on,51,24,0
2,note_on,51,0,120
2,note_on,56,24,0
2,note_on,56,0,120
2,note_on,60,30,0
2,note_on,60,0,120
2,note_on,63,26,0
2,note_on,63,0,120
2,note_on,60,27,0
2,note_on,60,0,120
2,note_on,63,28,0
2,note_on,63,0,120
2,note_on,61,33,0
2,note_on,61,0,120
2,note_on,65,28,0
2,note_on,65,0,120
2,note_on,58,30,0
2,note_on,58,0,120
2,note_on,67,32,0
2,note_on,67,0,120
2,note_on,60,36,0
2,note_on,60,0,120
2,note_on,68,29,0
2,note_on,68,0,120
2,note_on,56,29,0
2,note_on,56,0,120
2,note_on,60,29,0
2,note_on,60,0,120
2,note_on,63,31,0
2,note_on,63,0,120
2,note_on,68,25,0
2,note_on,68,0,120
2,note_on,56,25,0
2,note_on,56,0,120
2,note_on,60,25,0
2,note_on,60,0,120
2,note_on,63,34,0
2,note_on,63,0,120
2,note_on,68,24,0
2,note_on,68,0,120
2,note_on,60,24,0
2,note_on,60,0,120
2,note_on,68,24,0
2,note_on,68,0,120
2,note_on,63,33,0
2,note_on,63,0,120
2,note_on,67,24,0
2,note_on,67,0,120
2,note_on,61,24,0
2,note_on,61,0,120
2,note_on,65,24,0
2,note_on,65,0,120
2,note_on,60,31,0
2,note_on,60,0,120
2,note_on,63,24,0
2,note_on,63,0,120
2,note_on,51,24,0
2,note_on,51,0,120
2,note_on,56,24,0
2,note_on,56,0,120
2,note_on,60,28,0
2,note_on,60,0,120
2,note_on,63,22,0
2,note_on,63,0,120
2,note_on,51,22,0
2,note_on,51,0,120
2,note_on,56,22,0
2,note_on,56,0,120
2,note_on,60,27,0
2,note_on,60,0,120
2,note_on,63,21,0
2,note_on,63,0,120
2,note_on,60,21,0
2,note_on,56,21,0
2,note_on,56,0,120
2,note_on,60,0,0
2,note_on,63,21,0
2,note_on,63,0,120
2,note_on,55,33,0
2,note_on,61,33,0
2,note_on,61,0,120
2,note_on,55,0,0
2,note_on,63,24,0
2,note_on,63,0,120
2,note_on,58,24,0
2,note_on,55,24,0
2,note_on,55,0,120
2,note_on,58,0,0
2,note_on,63,24,0
2,note_on,63,0,120
2,note_on,60,31,0
2,note_on,56,31,0
2,note_on,56,0,120
2,note_on,60,0,0
2,note_on,63,25,0
2,note_on,63,0,120
2,note_on,51,25,0
2,note_on,51,0,120
2,note_on,56,24,0
2,note_on,56,0,120
2,note_on,60,28,0
2,note_on,60,0,120
2,note_on,63,22,0
2,note_on,63,0,120
2,note_on,51,22,0
2,note_on,51,0,120
2,note_on,56,22,0
2,note_on,56,0,120
2,note_on,60,27,0
2,note_on,60,0,120
2,note_on,63,21,0
2,note_on,63,0,120
2,note_on,60,21,0
2,note_on,56,21,0
2,note_on,56,0,120
2,note_on,60,0,0
2,note_on,63,21,0
2,note_on,63,0,120
2,note_on,61,33,0
2,note_on,55,33,0
2,note_on,55,0,120
2,note_on,61,0,0
2,note_on,63,24,0
2,note_on,63,0,120
2,note_on,55,24,0
2,note_on,58,24,0
2,note_on,58,0,120
2,note_on,55,0,0
2,note_on,63,24,0
2,note_on,63,0,120
2,note_on,60,31,0
2,note_on,56,31,0
2,note_on,56,0,120
2,note_on,60,0,0
2,note_on,63,24,0
2,note_on,63,0,120
2,note_on,51,24,0
2,note_on,51,0,120
2,note_on,56,20,0
2,note_on,56,0,120
2,note_on,60,26,0
2,note_on,60,0,120
2,note_on,63,20,0
2,note_on,63,0,120
2,note_on,51,20,0
2,note_on,51,0,120
2,note_on,56,20,0
2,note_on,56,0,120
2,note_on,60,24,0
2,note_on,60,0,120
2,note_on,63,18,0
2,note_on,63,0,120
2,note_on,56,18,0
2,note_on,60,18,0
2,note_on,60,0,120
2,note_on,56,0,0
2,note_on,63,18,0
2,note_on,63,0,120
2,note_on,61,28,0
2,note_on,55,28,0
2,note_on,55,0,120
2,note_on,61,0,0
2,note_on,63,20,0
2,note_on,63,0,120
2,note_on,55,19,0
2,note_on,58,19,0
2,note_on,58,0,120
2,note_on,55,0,0
2,note_on,63,19,0
2,note_on,63,0,120
2,note_on,56,24,0
2,note_on,56,0,120
2,note_on,60,20,0
2,note_on,60,0,120
2,note_on,48,20,0
2,note_on,48,0,120
2,note_on,51,20,0
2,note_on,51,0,120
2,note_on,56,22,0
2,note_on,56,0,120
2,note_on,60,17,0
2,note_on,60,0,120
2,note_on,48,17,0
2,note_on,48,0,120
2,note_on,51,17,0
2,note_on,51,0,120
2,note_on,56,24,0
2,note_on,56,0,120
2,note_on,60,20,0
2,note_on,60,0,120
2,note_on,48,20,0
2,note_on,48,0,120
2,note_on,51,20,0
2,note_on,51,0,120
2,note_on,56,22,0
2,note_on,56,0,120
2,note_on,60,17,0
2,note_on,60,0,120
2,note_on,48,17,0
2,note_on,48,0,120
2,note_on,51,17,0
2,note_on,51,0,120
2,note_on,32,31,480
2,note_on,32,0,240
2,note_on,32,34,240
2,note_on,32,0,240
2,note_on,32,36,240
2,note_on,32,0,240
2,note_on,43,43,240
2,note_on,31,36,0
2,note_on,36,36,0
2,note_on,36,0,2400
2,note_on,31,0,0
2,note_on,43,0,0
2,note_on,55,39,0
2,note_on,43,33,0
2,note_on,48,33,0
2,note_on,48,0,480
2,note_on,43,0,0
2,note_on,55,0,0
2,note_on,55,45,0
2,note_on,48,38,0
2,note_on,43,38,0
2,note_on,43,0,480
2,note_on,48,0,0
2,note_on,55,0,0
2,note_on,43,42,0
2,note_on,48,42,0
2,note_on,55,50,0
2,note_on,55,0,480
2,note_on,48,0,0
2,note_on,43,0,0
2,note_on,56,51,0
2,note_on,48,51,0
2,note_on,41,43,0
2,note_on,56,0,1440
2,note_on,43,36,0
2,note_on,52,43,0
2,note_on,52,0,480
2,note_on,43,0,0
2,note_on,48,0,0
2,note_on,44,43,0
2,note_on,53,43,0
2,note_on,44,0,480
2,note_on,45,39,0
2,note_on,45,0,480
2,note_on,43,43,0
2,note_on,43,0,480
2,note_on,45,40,0
2,note_on,45,0,480
2,note_on,49,44,0
2,note_on,49,0,480
2,note_on,48,41,0
2,note_on,48,0,480
2,note_on,53,0,0
2,note_on,41,0,0
2,note_on,49,49,0
2,note_on,46,41,0
2,note_on,46,0,480
2,note_on,49,0,0
2,note_on,44,38,0
2,note_on,48,45,0
2,note_on,48,0,480
2,note_on,44,0,0
2,note_on,43,47,0
2,note_on,46,57,0
2,note_on,46,0,240
2,note_on,43,0,0
2,note_on,52,48,240
2,note_on,61,57,0
2,note_on,58,48,0
2,note_on,55,48,0
2,note_on,55,0,240
2,note_on,52,0,0
2,note_on,61,0,0
2,note_on,58,0,0
2,note_on,56,35,1200
2,note_on,53,29,0
2,note_on,53,0,480
2,note_on,56,0,0
2,note_on,49,27,480
2,note_on,55,32,0
2,note_on,46,27,0
2,note_on,46,0,480
2,note_on,55,0,0
2,note_on,49,0,0
2,note_on,48,29,480
2,note_on,53,32,160
2,note_on,53,0,160
2,note_on,56,34,0
2,note_on,56,0,160
2,note_on,60,37,0
2,note_on,60,0,160
2,note_on,58,31,0
2,note_on,58,0,160
2,note_on,56,28,0
2,note_on,56,0,160
2,note_on,55,35,0
2,note_on,55,0,240
2,note_on,48,0,0
2,note_on,56,51,720
2,note_on,48,51,0
2,note_on,41,43,0
2,note_on,56,0,1440
2,note_on,43,36,0
2,note_on,52,43,0
2,note_on,52,0,480
2,note_on,43,0,0
2,note_on,48,0,0
2,note_on,53,43,0
2,note_on,44,43,0
2,note_on,44,0,480
2,note_on,45,39,0
2,note_on,45,0,480
2,note_on,43,43,0
2,note_on,43,0,480
2,note_on,45,40,0
2,note_on,45,0,480
2,note_on,49,44,0
2,note_on,49,0,240
2,note_on,53,0,0
2,note_on,41,0,0
2,note_on,49,32,0
2,note_on,53,37,0
2,note_on,53,0,120
2,note_on,49,0,0
2,note_on,48,32,120
2,note_on,51,41,0
2,note_on,51,0,120
2,note_on,48,0,0
2,note_on,48,36,120
2,note_on,51,44,0
2,note_on,51,0,120
2,note_on,48,0,0
2,note_on,46,39,120
2,note_on,49,47,0
2,note_on,49,0,120
2,note_on,46,0,0
2,note_on,49,51,120
2,note_on,46,43,0
2,note_on,46,0,120
2,note_on,49,0,0
2,note_on,48,41,120
2,note_on,44,41,0
2,note_on,49,55,0
2,note_on,49,0,120
2,note_on,44,0,0
2,note_on,48,0,0
2,note_on,48,44,120
2,note_on,49,60,0
2,note_on,44,44,0
2,note_on,44,0,120
2,note_on,49,0,0
2,note_on,48,0,0
2,note_on,43,51,120
2,note_on,49,64,0
2,note_on,46,54,0
2,note_on,46,0,240
2,note_on,49,0,0
2,note_on,43,0,0
2,note_on,58,55,240
2,note_on,55,55,0
2,note_on,52,55,0
2,note_on,61,65,0
2,note_on,61,0,240
2,note_on,58,0,0
2,note_on,55,0,0
2,note_on,52,0,0
2,note_on,56,35,1200
2,note_on,53,29,0
2,note_on,53,0,480
2,note_on,56,0,0
2,note_on,55,32,480
2,note_on,46,27,0
2,note_on,49,27,0
2,note_on,49,0,480
2,note_on,46,0,0
2,note_on,55,0,0
2,note_on,53,35,480
2,note_on,48,35,0
2,note_on,56,43,0
2,note_on,56,0,240
2,note_on,48,0,0
2,note_on,53,0,0
2,note_on,56,54,240
2,note_on,56,0,160
2,note_on,53,46,0
2,note_on,53,0,160
2,note_on,61,48,0
2,note_on,61,0,160
2,note_on,60,54,0
2,note_on,60,0,240
2,note_on,60,60,240
2,note_on,48,50,0
2,note_on,48,0,180
2,note_on,60,0,0
2,note_on,53,60,300
2,note_on,41,50,0
2,note_on,41,0,180
2,note_on,53,0,0
2,note_on,53,22,300
2,note_on,65,27,0
2,note_on,65,0,480
2,note_on,53,0,0
2,note_on,65,27,480
2,note_on,53,22,0
2,note_on,53,0,480
2,note_on,65,0,0
2,note_on,53,22,480
2,note_on,65,27,0
2,note_on,65,0,480
2,note_on,53,0,0
2,note_on,65,27,480
2,note_on,53,22,0
2,note_on,53,0,480
2,note_on,65,0,0
2,note_on,53,22,480
2,note_on,65,27,0
2,note_on,65,0,480
2,note_on,53,0,0
2,note_on,46,27,0
2,note_on,46,0,240
2,note_on,54,22,240
2,note_on,58,27,0
2,note_on,58,0,240
2,note_on,54,0,0
2,note_on,48,27,240
2,note_on,48,0,240
2,note_on,56,27,240
2,note_on,53,22,0
2,note_on,53,0,240
2,note_on,56,0,0
2,note_on,48,27,240
2,note_on,48,0,240
2,note_on,55,27,240
2,note_on,52,22,0
2,note_on,52,0,240
2,note_on,55,0,0
2,note_on,41,40,240
2,note_on,41,0,240
2,note_on,53,22,240
2,note_on,65,27,0
2,note_on,65,0,480
2,note_on,53,0,0
2,note_on,65,27,480
2,note_on,53,22,0
2,note_on,53,0,480
2,note_on,65,0,0
2,note_on,53,22,480
2,note_on,65,27,0
2,note_on,65,0,480
2,note_on,53,0,0
2,note_on,53,22,480
2,note_on,65,27,0
2,note_on,65,0,480
2,note_on,53,0,0
2,note_on,53,22,480
2,note_on,65,27,6
2,note_on,53,0,474
2,note_on,46,27,0
2,note_on,65,0,6
2,note_on,46,0,234
2,note_on,55,22,240
2,note_on,58,27,0
2,note_on,58,0,240
2,note_on,55,0,0
2,note_on,48,27,240
2,note_on,48,0,240
2,note_on,53,22,240
2,note_on,57,27,0
2,note_on,57,0,240
2,note_on,53,0,0
2,note_on,48,27,240
2,note_on,48,0,240
2,note_on,58,27,240
2,note_on,52,22,0
2,note_on,52,0,240
2,note_on,58,0,0
2,note_on,53,41,240
2,note_on,57,41,0
2,note_on,57,0,240
2,note_on,53,0,0
2,note_on,60,27,0
2,note_on,60,0,120
2,note_on,60,30,120
2,note_on,60,0,120
2,note_on,60,27,120
2,note_on,60,0,120
2,note_on,61,37,120
2,note_on,61,0,240
2,note_on,60,27,0
2,note_on,60,0,240
2,note_on,60,30,0
2,note_on,60,0,120
2,note_on,60,27,120
2,note_on,60,0,120
2,note_on,48,38,120
2,note_on,48,0,240
2,note_on,60,27,0
2,note_on,60,0,120
2,note_on,60,27,120
2,note_on,60,0,120
2,note_on,60,27,120
2,note_on,60,0,120
2,note_on,48,44,120
2,note_on,48,0,240
2,note_on,60,37,0
2,note_on,60,0,120
2,note_on,60,40,120
2,note_on,60,0,120
2,note_on,60,44,120
2,note_on,48,44,0
2,note_on,58,44,0
2,note_on,58,0,120
2,note_on,48,0,0
2,note_on,60,0,0
2,note_on,57,48,120
2,note_on,60,48,0
2,note_on,53,48,0
2,note_on,53,0,240
2,note_on,60,0,0
2,note_on,57,0,0
2,note_on,60,31,0
2,note_on,60,0,120
2,note_on,60,34,120
2,note_on,60,0,120
2,note_on,60,31,120
2,note_on,60,0,120
2,note_on,61,42,120
2,note_on,61,0,240
2,note_on,60,31,0
2,note_on,60,0,120
2,note_on,60,34,120
2,note_on,60,0,120
2,note_on,63,31,120
2,note_on,63,0,120
2,note_on,50,43,120
2,note_on,50,0,240
2,note_on,62,31,0
2,note_on,62,0,120
2,note_on,62,31,120
2,note_on,62,0,120
2,note_on,62,31,120
2,note_on,62,0,120
2,note_on,50,50,120
2,note_on,50,0,240
2,note_on,62,42,0
2,note_on,62,0,120
2,note_on,62,46,120
2,note_on,62,0,120
2,note_on,60,50,120
2,note_on,50,50,0
2,note_on,62,50,0
2,note_on,62,0,120
2,note_on,50,0,0
2,note_on,60,0,0
2,note_on,55,55,120
2,note_on,62,55,0
2,note_on,58,55,0
2,note_on,58,0,240
2,note_on,62,0,0
2,note_on,55,0,0
2,note_on,62,31,0
2,note_on,62,0,120
2,note_on,62,34,120
2,note_on,62,0,120
2,note_on,62,31,120
2,note_on,62,0,120
2,note_on,63,42,120
2,note_on,63,0,240
2,note_on,62,31,0
2,note_on,62,0,120
2,note_on,62,34,120
2,note_on,62,0,120
2,note_on,62,31,120
2,note_on,62,0,120
2,note_on,52,49,120
2,note_on,61,31,240
2,note_on,58,31,0
2,note_on,61,0,240
2,note_on,60,34,0
2,note_on,60,0,240
2,note_on,61,31,0
2,note_on,61,0,240
2,note_on,58,0,0
2,note_on,52,0,0
2,note_on,53,50,0
2,note_on,57,31,240
2,note_on,62,31,0
2,note_on,62,0,240
2,note_on,60,34,0
2,note_on,60,0,240
2,note_on,65,31,0
2,note_on,65,0,240
2,note_on,57,0,0
2,note_on,53,0,0
2,note_on,52,49,0
2,note_on,61,31,240
2,note_on,58,31,0
2,note_on,61,0,240
2,note_on,60,34,0
2,note_on,60,0,240
2,note_on,61,31,0
2,note_on,61,0,240
2,note_on,58,0,0
2,note_on,52,0,0
2,note_on,53,50,0
2,note_on,62,31,240
2,note_on,57,31,0
2,note_on,62,0,240
2,note_on,60,34,0
2,note_on,60,0,240
2,note_on,65,31,0
2,note_on,65,0,240
2,note_on,57,0,0
2,note_on,53,0,0
2,note_on,46,60,0
2,note_on,46,0,120
2,note_on,62,53,120
2,note_on,58,53,0
2,note_on,58,0,480
2,note_on,62,0,0
2,note_on,58,44,0
2,note_on,62,44,0
2,note_on,62,0,240
2,note_on,58,0,0
2,note_on,48,60,0
2,note_on,48,0,120
2,note_on,60,52,120
2,note_on,57,52,0
2,note_on,57,0,480
2,note_on,60,0,0
2,note_on,57,45,0
2,note_on,60,45,0
2,note_on,60,0,240
2,note_on,57,0,0
2,note_on,48,60,0
2,note_on,48,0,120
2,note_on,52,46,120
2,note_on,58,46,0
2,note_on,60,46,0
2,note_on,52,0,480
2,note_on,53,46,0
2,note_on,53,0,240
2,note_on,55,46,0
2,note_on,55,0,240
2,note_on,60,0,0
2,note_on,58,0,0
2,note_on,53,47,0
2,note_on,60,47,0
2,note_on,58,47,0
2,note_on,58,0,120
2,note_on,60,0,0
2,note_on,53,0,0
2,note_on,58,51,120
2,note_on,52,51,0
2,note_on,60,51,0
2,note_on,60,0,120
2,note_on,52,0,0
2,note_on,58,0,0
2,note_on,60,55,120
2,note_on,58,55,0
2,note_on,48,55,0
2,note_on,48,0,120
2,note_on,58,0,0
2,note_on,60,0,0
2,note_on,53,59,120
2,note_on,60,59,0
2,note_on,57,59,0
2,note_on,57,0,240
2,note_on,60,0,0
2,note_on,53,0,0
2,note_on,41,66,0
2,note_on,41,0,120
2,note_on,41,66,120
2,note_on,41,0,120
2,note_on,41,66,120
2,note_on,41,0,120
2,note_on,40,69,120
2,note_on,40,0,240
2,note_on,41,65,0
2,note_on,41,0,120
2,note_on,41,65,120
2,note_on,41,0,120
2,note_on,41,65,120
2,note_on,41,0,120
2,note_on,42,68,120
2,note_on,42,0,360
2,note_on,43,60,0
2,note_on,43,0,60
2,note_on,45,56,0
2,note_on,45,0,60
2,note_on,43,68,0
2,note_on,43,0,360
2,note_on,45,62,0
2,note_on,45,0,60
2,note_on,46,58,0
2,note_on,46,0,60
2,note_on,48,68,0
2,note_on,48,0,120
2,note_on,58,66,120
2,note_on,55,56,0
2,note_on,48,56,0
2,note_on,48,0,240
2,note_on,55,0,0
2,note_on,58,0,0
2,note_on,55,56,0
2,note_on,58,66,0
2,note_on,48,56,0
2,note_on,48,0,240
2,note_on,58,0,0
2,note_on,55,0,0
2,note_on,48,56,0
2,note_on,55,56,0
2,note_on,58,66,0
2,note_on,58,0,240
2,note_on,55,0,0
2,note_on,48,0,0
2,note_on,53,61,0
2,note_on,57,72,0
2,note_on,57,0,240
2,note_on,53,0,0
2,note_on,41,66,0
2,note_on,41,0,120
2,note_on,41,66,120
2,note_on,41,0,120
2,note_on,41,66,120
2,note_on,41,0,120
2,note_on,40,69,120
2,note_on,40,0,240
2,note_on,41,65,0
2,note_on,41,0,120
2,note_on,41,65,120
2,note_on,41,0,120
2,note_on,41,65,120
2,note_on,41,0,120
2,note_on,42,68,120
2,note_on,42,0,360
2,note_on,43,60,0
2,note_on,43,0,60
2,note_on,45,55,0
2,note_on,45,0,60
2,note_on,43,68,0
2,note_on,43,0,360
2,note_on,45,62,0
2,note_on,45,0,60
2,note_on,46,57,0
2,note_on,46,0,60
2,note_on,48,68,0
2,note_on,48,0,120
2,note_on,55,66,120
2,note_on,52,56,0
2,note_on,45,56,0
2,note_on,45,0,240
2,note_on,52,0,0
2,note_on,55,0,0
2,note_on,55,66,0
2,note_on,45,56,0
2,note_on,52,56,0
2,note_on,52,0,240
2,note_on,45,0,0
2,note_on,55,0,0
2,note_on,55,66,0
2,note_on,45,56,0
2,note_on,52,56,0
2,note_on,52,0,240
2,note_on,45,0,0
2,note_on,55,0,0
2,note_on,50,61,0
2,note_on,53,72,0
2,note_on,53,0,240
2,note_on,50,0,0
2,note_on,46,56,0
2,note_on,50,66,0
2,note_on,50,0,120
2,note_on,46,0,0
2,note_on,50,66,120
2,note_on,46,56,0
2,note_on,46,0,120
2,note_on,50,0,0
2,note_on,50,66,120
2,note_on,46,56,0
2,note_on,46,0,120
2,note_on,50,0,0
2,note_on,45,58,120
2,note_on,49,69,0
2,note_on,49,0,240
2,note_on,45,0,0
2,note_on,50,65,0
2,note_on,46,55,0
2,note_on,46,0,120
2,note_on,50,0,0
2,note_on,50,65,120
2,note_on,46,55,0
2,note_on,46,0,120
2,note_on,50,0,0
2,note_on,46,55,120
2,note_on,50,65,0
2,note_on,50,0,120
2,note_on,46,0,0
2,note_on,47,57,120
2,note_on,50,68,0
2,note_on,50,0,360
2,note_on,51,60,0
2,note_on,51,0,60
2,note_on,53,56,0
2,note_on,53,0,60
2,note_on,47,0,0
2,note_on,48,57,0
2,note_on,51,68,0
2,note_on,51,0,360
2,note_on,53,62,0
2,note_on,53,0,60
2,note_on,54,58,0
2,note_on,54,0,60
2,note_on,48,0,0
2,note_on,41,57,0
2,note_on,48,68,0
2,note_on,48,0,120
2,note_on,41,0,0
2,note_on,60,56,120
2,note_on,53,56,0
2,note_on,63,66,0
2,note_on,63,0,240
2,note_on,53,0,0
2,note_on,60,0,0
2,note_on,60,56,0
2,note_on,63,66,0
2,note_on,53,56,0
2,note_on,53,0,240
2,note_on,63,0,0
2,note_on,60,0,0
2,note_on,53,56,0
2,note_on,60,56,0
2,note_on,63,66,0
2,note_on,63,0,240
2,note_on,60,0,0
2,note_on,53,0,0
2,note_on,58,61,0
2,note_on,62,72,0
2,note_on,62,0,240
2,note_on,58,0,0
2,note_on,50,66,0
2,note_on,46,56,0
2,note_on,46,0,120
2,note_on,50,0,0
2,note_on,46,56,120
2,note_on,50,66,0
2,note_on,50,0,120
2,note_on,46,0,0
2,note_on,46,56,120
2,note_on,50,66,0
2,note_on,50,0,120
2,note_on,46,0,0
2,note_on,49,69,120
2,note_on,45,58,0
2,note_on,45,0,240
2,note_on,49,0,0
2,note_on,50,65,0
2,note_on,46,55,0
2,note_on,46,0,120
2,note_on,50,0,0
2,note_on,50,65,120
2,note_on,46,55,0
2,note_on,46,0,120
2,note_on,50,0,0
2,note_on,46,55,120
2,note_on,50,65,0
2,note_on,50,0,120
2,note_on,46,0,0
2,note_on,44,58,120
2,note_on,50,58,0
2,note_on,53,69,0
2,note_on,53,0,240
2,note_on,50,0,0
2,note_on,44,0,0
2,note_on,43,55,0
2,note_on,53,65,0
2,note_on,50,55,0
2,note_on,50,0,120
2,note_on,53,0,0
2,note_on,43,0,0
2,note_on,43,55,120
2,note_on,53,65,0
2,note_on,50,55,0
2,note_on,50,0,120
2,note_on,53,0,0
2,note_on,43,0,0
2,note_on,50,55,120
2,note_on,53,65,0
2,note_on,43,55,0
2,note_on,43,0,120
2,note_on,53,0,0
2,note_on,50,0,0
2,note_on,48,57,120
2,note_on,52,68,0
2,note_on,52,0,120
2,note_on,48,0,0
2,note_on,60,56,120
2,note_on,60,0,240
2,note_on,64,66,0
2,note_on,60,56,0
2,note_on,60,0,240
2,note_on,64,0,0
2,note_on,64,66,0
2,note_on,60,56,0
2,note_on,60,0,240
2,note_on,64,0,0
2,note_on,46,58,0
2,note_on,55,69,0
2,note_on,52,58,0
2,note_on,52,0,240
2,note_on,55,0,0
2,note_on,46,0,0
2,note_on,55,65,0
2,note_on,52,55,0
2,note_on,45,55,0
2,note_on,45,0,120
2,note_on,52,0,0
2,note_on,55,0,0
2,note_on,55,65,120
2,note_on,45,55,0
2,note_on,52,55,0
2,note_on,52,0,120
2,note_on,45,0,0
2,note_on,55,0,0
2,note_on,45,55,120
2,note_on,55,65,0
2,note_on,52,55,0
2,note_on,52,0,120
2,note_on,55,0,0
2,note_on,45,0,0
2,note_on,50,57,120
2,note_on,54,68,0
2,note_on,54,0,120
2,note_on,50,0,0
2,note_on,62,56,120
2,note_on,62,0,240
2,note_on,62,56,0
2,note_on,66,66,0
2,note_on,66,0,240
2,note_on,62,0,0
2,note_on,66,66,0
2,note_on,62,56,0
2,note_on,62,0,240
2,note_on,66,0,0
2,note_on,51,51,0
2,note_on,63,60,0
2,note_on,63,0,240
2,note_on,51,0,0
2,note_on,62,52,0
2,note_on,50,44,0
2,note_on,50,0,180
2,note_on,62,0,0
2,note_on,62,60,60
2,note_on,50,51,0
2,note_on,50,0,240
2,note_on,62,0,0
2,note_on,49,44,0
2,note_on,61,52,0
2,note_on,61,0,180
2,note_on,49,0,0
2,note_on,49,51,60
2,note_on,61,60,0
2,note_on,61,0,240
2,note_on,49,0,0
2,note_on,50,41,0
2,note_on,62,49,0
2,note_on,62,0,180
2,note_on,50,0,0
2,note_on,62,54,60
2,note_on,50,46,0
2,note_on,50,0,240
2,note_on,62,0,0
2,note_on,57,49,0
2,note_on,45,41,0
2,note_on,45,0,180
2,note_on,57,0,0
2,note_on,43,45,60
2,note_on,55,53,0
2,note_on,55,0,240
2,note_on,43,0,0
2,note_on,42,39,0
2,note_on,54,47,0
2,note_on,54,0,180
2,note_on,42,0,0
2,note_on,54,47,60
2,note_on,42,39,0
2,note_on,42,0,240
2,note_on,54,0,0
2,note_on,52,47,0
2,note_on,40,39,0
2,note_on,40,0,180
2,note_on,52,0,0
2,note_on,52,51,60
2,note_on,40,43,0
2,note_on,40,0,240
2,note_on,52,0,0
2,note_on,50,44,0
2,note_on,38,37,0
2,note_on,38,0,121
2,note_on,50,0,0
2,note_on,38,39,119
2,note_on,50,46,0
2,note_on,50,0,121
2,note_on,38,0,0
2,note_on,50,44,119
2,note_on,38,37,0
2,note_on,38,0,121
2,note_on,50,0,0
2,note_on,51,48,119
2,note_on,39,40,0
2,note_on,39,0,240
2,note_on,51,0,0
2,note_on,38,35,0
2,note_on,50,41,0
2,note_on,50,0,180
2,note_on,38,0,0
2,note_on,50,48,60
2,note_on,38,40,0
2,note_on,38,0,240
2,note_on,50,0,0
2,note_on,37,35,0
2,note_on,49,41,0
2,note_on,49,0,180
2,note_on,37,0,0
2,note_on,37,40,60
2,note_on,49,48,0
2,note_on,49,0,240
2,note_on,37,0,0
2,note_on,50,39,0
2,note_on,38,32,0
2,note_on,38,0,180
2,note_on,50,0,0
2,note_on,50,43,60
2,note_on,38,36,0
2,note_on,38,0,240
2,note_on,50,0,0
2,note_on,45,39,0
2,note_on,45,0,180
2,note_on,43,39,60
2,note_on,43,0,240
2,note_on,42,34,0
2,note_on,42,0,180
2,note_on,42,34,60
2,note_on,42,0,240
2,note_on,40,33,0
2,note_on,40,0,180
2,note_on,40,35,60
2,note_on,40,0,240
2,note_on,38,30,0
2,note_on,38,0,121
2,note_on,38,30,119
2,note_on,38,0,121
2,note_on,38,28,119
2,note_on,38,0,121
2,note_on,38,27,119
2,note_on,38,0,121
2,note_on,38,25,119
2,note_on,38,0,121
2,note_on,38,27,119
2,note_on,38,0,121
2,note_on,38,25,119
2,note_on,38,0,121
2,note_on,38,27,119
2,note_on,38,0,121
2,note_on,38,25,119
2,note_on,38,0,121
2,note_on,38,27,119
2,note_on,38,0,121
2,note_on,38,25,119
2,note_on,38,0,121
2,note_on,49,22,119
2,note_on,49,0,240
2,note_on,48,21,0
2,note_on,48,0,121
2,note_on,48,22,119
2,note_on,48,0,121
2,note_on,48,21,119
2,note_on,48,0,121
2,note_on,48,22,119
2,note_on,48,0,121
2,note_on,48,21,119
2,note_on,48,0,121
2,note_on,48,22,119
2,note_on,48,0,121
2,note_on,48,21,119
2,note_on,48,0,121
2,note_on,41,33,119
2,note_on,48,25,240
2,note_on,48,0,180
2,note_on,48,25,60
2,note_on,48,0,180
2,note_on,48,25,60
2,note_on,48,0,180
2,note_on,48,33,60
2,note_on,48,0,240
2,note_on,53,26,0
2,note_on,53,0,180
2,note_on,53,27,60
2,note_on,53,0,180
2,note_on,53,29,60
2,note_on,53,0,180
2,note_on,41,0,60
2,note_on,46,38,0
2,note_on,53,25,240
2,note_on,53,0,180
2,note_on,53,25,60
2,note_on,53,0,180
2,note_on,53,27,60
2,note_on,53,0,180
2,note_on,53,33,60
2,note_on,53,0,240
2,note_on,54,27,0
2,note_on,54,0,240
2,note_on,55,27,0
2,note_on,55,0,240
2,note_on,46,0,0
2,note_on,50,27,0
2,note_on,47,27,0
2,note_on,47,0,240
2,note_on,50,0,0
2,note_on,36,33,0
2,note_on,48,25,240
2,note_on,48,0,180
2,note_on,48,25,60
2,note_on,48,0,180
2,note_on,48,25,60
2,note_on,48,0,180
2,note_on,48,33,60
2,note_on,48,0,180
2,note_on,48,26,60
2,note_on,48,0,180
2,note_on,48,27,60
2,note_on,48,0,240
2,note_on,48,29,0
2,note_on,48,0,240
2,note_on,36,0,0
2,note_on,41,38,0
2,note_on,48,25,240
2,note_on,48,0,180
2,note_on,48,25,60
2,note_on,48,0,180
2,note_on,48,27,60
2,note_on,48,0,180
2,note_on,48,33,60
2,note_on,48,0,180
2,note_on,48,27,60
2,note_on,48,0,180
2,note_on,41,0,60
2,note_on,48,27,0
2,note_on,41,27,0
2,note_on,41,0,240
2,note_on,48,0,0
2,note_on,45,27,0
2,note_on,48,27,0
2,note_on,48,0,240
2,note_on,45,0,0
2,note_on,36,33,0
2,note_on,48,25,240
2,note_on,48,0,180
2,note_on,48,25,60
2,note_on,48,0,180
2,note_on,48,25,60
2,note_on,48,0,180
2,note_on,48,33,60
2,note_on,48,0,180
2,note_on,48,26,60
2,note_on,48,0,180
2,note_on,48,27,60
2,note_on,48,0,240
2,note_on,48,29,0
2,note_on,48,0,240
2,note_on,36,0,0
2,note_on,41,38,0
2,note_on,48,25,240
2,note_on,48,0,180
2,note_on,45,25,60
2,note_on,45,0,180
2,note_on,48,27,60
2,note_on,48,0,180
2,note_on,53,33,60
2,note_on,53,0,180
2,note_on,41,0,0
2,note_on,60,31,60
2,note_on,57,31,0
2,note_on,57,0,240
2,note_on,60,0,0
2,note_on,65,31,0
2,note_on,57,31,0
2,note_on,60,31,0
2,note_on,60,0,240
2,note_on,57,0,0
2,note_on,65,0,0
2,note_on,60,31,0
2,note_on,67,31,0
2,note_on,64,31,0
2,note_on,64,0,240
2,note_on,67,0,0
2,note_on,60,0,0
2,note_on,53,46,0
2,note_on,53,0,120
2,note_on,60,23,120
2,note_on,69,28,0
2,note_on,65,23,0
2,note_on,65,0,180
2,note_on,69,0,0
2,note_on,60,0,0
2,note_on,69,28,60
2,note_on,60,23,0
2,note_on,65,23,0
2,note_on,65,0,180
2,note_on,60,0,0
2,note_on,69,0,0
2,note_on,69,28,60
2,note_on,65,23,0
2,note_on,60,23,0
2,note_on,60,0,180
2,note_on,65,0,0
2,note_on,69,0,0
2,note_on,68,37,60
2,note_on,65,31,0
2,note_on,59,31,0
2,note_on,59,0,240
2,note_on,65,0,0
2,note_on,68,0,0
2,note_on,69,29,0
2,note_on,60,24,0
2,note_on,65,24,0
2,note_on,65,0,180
2,note_on,60,0,0
2,note_on,69,0,0
2,note_on,65,26,60
2,note_on,69,31,0
2,note_on,60,26,0
2,note_on,60,0,180
2,note_on,69,0,0
2,note_on,65,0,0
2,note_on,65,28,60
2,note_on,60,28,0
2,note_on,69,33,0
2,note_on,69,0,180
2,note_on,60,0,0
2,note_on,65,0,0
2,note_on,58,43,60
2,note_on,65,23,240
2,note_on,70,28,0
2,note_on,62,23,0
2,note_on,62,0,180
2,note_on,70,0,0
2,note_on,65,0,0
2,note_on,65,23,60
2,note_on,70,28,0
2,note_on,62,23,0
2,note_on,62,0,180
2,note_on,70,0,0
2,note_on,65,0,0
2,note_on,65,26,60
2,note_on,70,31,0
2,note_on,62,26,0
2,note_on,62,0,180
2,note_on,70,0,0
2,note_on,65,0,0
2,note_on,65,31,60
2,note_on,70,37,0
2,note_on,62,31,0
2,note_on,62,0,240
2,note_on,70,0,0
2,note_on,65,0,0
2,note_on,69,31,0
2,note_on,62,26,0
2,note_on,66,26,0
2,note_on,66,0,240
2,note_on,62,0,0
2,note_on,69,0,0
2,note_on,67,31,0
2,note_on,62,26,0
2,note_on,62,0,240
2,note_on,67,0,0
2,note_on,58,0,0
2,note_on,59,26,0
2,note_on,65,31,0
2,note_on,62,26,0
2,note_on,62,0,240
2,note_on,65,0,0
2,note_on,59,0,0
2,note_on,48,37,0
2,note_on,48,0,240
2,note_on,64,28,0
2,note_on,55,23,0
2,note_on,60,23,0
2,note_on,60,0,180
2,note_on,55,0,0
2,note_on,64,0,0
2,note_on,64,28,60
2,note_on,55,23,0
2,note_on,60,23,0
2,note_on,60,0,180
2,note_on,55,0,0
2,note_on,64,0,0
2,note_on,64,28,60
2,note_on,60,23,0
2,note_on,55,23,0
2,note_on,55,0,180
2,note_on,60,0,0
2,note_on,64,0,0
2,note_on,55,31,60
2,note_on,64,37,0
2,note_on,60,31,0
2,note_on,60,0,180
2,note_on,64,0,0
2,note_on,55,0,0
2,note_on,55,24,60
2,note_on,64,29,0
2,note_on,60,24,0
2,note_on,60,0,180
2,note_on,64,0,0
2,note_on,55,0,0
2,note_on,57,26,60
2,note_on,60,26,0
2,note_on,65,31,0
2,note_on,65,0,240
2,note_on,60,0,0
2,note_on,57,0,0
2,note_on,60,28,0
2,note_on,67,33,0
2,note_on,58,28,0
2,note_on,58,0,240
2,note_on,67,0,0
2,note_on,60,0,0
2,note_on,53,43,0
2,note_on,60,23,240
2,note_on,57,23,0
2,note_on,65,28,0
2,note_on,65,0,180
2,note_on,57,0,0
2,note_on,60,0,0
2,note_on,57,23,60
2,note_on,65,28,0
2,note_on,60,23,0
2,note_on,60,0,180
2,note_on,65,0,0
2,note_on,57,0,0
2,note_on,65,31,60
2,note_on,57,26,0
2,note_on,60,26,0
2,note_on,60,0,180
2,note_on,57,0,0
2,note_on,65,0,0
2,note_on,57,31,60
2,note_on,60,31,0
2,note_on,65,37,0
2,note_on,65,0,180
2,note_on,60,0,0
2,note_on,57,0,0
2,note_on,53,0,60
2,note_on,65,31,0
2,note_on,60,26,0
2,note_on,57,26,0
2,note_on,57,0,180
2,note_on,60,0,0
2,note_on,65,0,0
2,note_on,65,26,60
2,note_on,69,31,0
2,note_on,60,26,0
2,note_on,60,0,240
2,note_on,69,0,0
2,note_on,65,0,0
2,note_on,60,26,0
2,note_on,57,26,0
2,note_on,65,31,0
2,note_on,65,0,240
2,note_on,57,0,0
2,note_on,60,0,0
2,note_on,48,37,0
2,note_on,48,0,240
2,note_on,60,23,0
2,note_on,55,23,0
2,note_on,64,28,0
2,note_on,64,0,180
2,note_on,55,0,0
2,note_on,60,0,0
2,note_on,60,23,60
2,note_on,64,28,0
2,note_on,55,23,0
2,note_on,55,0,180
2,note_on,64,0,0
2,note_on,60,0,0
2,note_on,64,28,60
2,note_on,55,23,0
2,note_on,60,23,0
2,note_on,60,0,180
2,note_on,55,0,0
2,note_on,64,0,0
2,note_on,55,31,60
2,note_on,64,37,0
2,note_on,60,31,0
2,note_on,60,0,180
2,note_on,64,0,0
2,note_on,55,0,0
2,note_on,55,24,60
2,note_on,60,24,0
2,note_on,64,29,0
2,note_on,64,0,180
2,note_on,60,0,0
2,note_on,55,0,0
2,note_on,60,26,60
2,note_on,57,26,0
2,note_on,65,31,0
2,note_on,65,0,240
2,note_on,57,0,0
2,note_on,60,0,0
2,note_on,60,28,0
2,note_on,67,33,0
2,note_on,58,28,0
2,note_on,58,0,240
2,note_on,67,0,0
2,note_on,60,0,0
2,note_on,53,43,0
2,note_on,57,23,240
2,note_on,60,23,0
2,note_on,65,28,0
2,note_on,65,0,180
2,note_on,60,0,0
2,note_on,57,0,0
2,note_on,60,23,60
2,note_on,65,28,0
2,note_on,57,23,0
2,note_on,57,0,180
2,note_on,65,0,0
2,note_on,60,0,0
2,note_on,65,31,60
2,note_on,60,26,0
2,note_on,57,26,0
2,note_on,57,0,180
2,note_on,60,0,0
2,note_on,65,0,0
2,note_on,57,31,60
2,note_on,60,31,0
2,note_on,65,37,0
2,note_on,65,0,180
2,note_on,53,0,0
2,note_on,57,0,0
2,note_on,60,0,0
2,note_on,60,31,60
2,note_on,57,31,0
2,note_on,57,0,240
2,note_on,60,0,0
2,note_on,60,31,0
2,note_on,65,31,0
2,note_on,57,31,0
2,note_on,57,0,240
2,note_on,65,0,0
2,note_on,60,0,0
2,note_on,64,31,0
2,note_on,60,31,0
2,note_on,67,31,0
2,note_on,67,0,240
2,note_on,60,0,0
2,note_on,64,0,0
2,note_on,53,46,0
2,note_on,53,0,120
2,note_on,69,28,120
2,note_on,65,23,0
2,note_on,60,23,0
2,note_on,60,0,180
2,note_on,65,0,0
2,note_on,69,0,0
2,note_on,60,23,60
2,note_on,65,23,0
2,note_on,69,28,0
2,note_on,69,0,180
2,note_on,65,0,0
2,note_on,60,0,0
2,note_on,69,28,60
2,note_on,65,23,0
2,note_on,60,23,0
2,note_on,60,0,180
2,note_on,65,0,0
2,note_on,69,0,0
2,note_on,59,31,60
2,note_on,65,31,0
2,note_on,68,37,0
2,note_on,68,0,240
2,note_on,65,0,0
2,note_on,59,0,0
2,note_on,60,24,0
2,note_on,65,24,0
2,note_on,69,29,0
2,note_on,69,0,180
2,note_on,65,0,0
2,note_on,60,0,0
2,note_on,65,26,60
2,note_on,69,31,0
2,note_on,60,26,0
2,note_on,60,0,180
2,note_on,69,0,0
2,note_on,65,0,0
2,note_on,65,28,60
2,note_on,69,33,0
2,note_on,60,28,0
2,note_on,60,0,180
2,note_on,69,0,0
2,note_on,65,0,0
2,note_on,65,31,60
2,note_on,58,43,0
2,note_on,63,31,0
2,note_on,72,37,0
2,note_on,72,0,240
2,note_on,63,0,0
2,note_on,65,0,0
2,note_on,70,28,0
2,note_on,62,23,0
2,note_on,65,23,0
2,note_on,65,0,180
2,note_on,62,0,0
2,note_on,70,0,0
2,note_on,70,28,60
2,note_on,65,23,0
2,note_on,62,23,0
2,note_on,62,0,180
2,note_on,65,0,0
2,note_on,70,0,0
2,note_on,62,26,60
2,note_on,70,31,0
2,note_on,65,26,0
2,note_on,65,0,180
2,note_on,70,0,0
2,note_on,62,0,0
2,note_on,62,31,60
2,note_on,70,37,0
2,note_on,65,31,0
2,note_on,65,0,240
2,note_on,58,0,0
2,note_on,62,0,0
2,note_on,70,0,0
2,note_on,69,31,0
2,note_on,60,26,0
2,note_on,62,26,0
2,note_on,62,0,240
2,note_on,60,0,0
2,note_on,69,0,0
2,note_on,62,27,0
2,note_on,67,32,0
2,note_on,58,27,0
2,note_on,58,0,240
2,note_on,67,0,0
2,note_on,62,0,0
2,note_on,57,28,0
2,note_on,65,33,0
2,note_on,60,28,0
2,note_on,60,0,240
2,note_on,65,0,0
2,note_on,57,0,0
2,note_on,48,41,0
2,note_on,48,0,240
2,note_on,60,26,0
2,note_on,55,26,0
2,note_on,64,32,0
2,note_on,64,0,180
2,note_on,55,0,0
2,note_on,60,0,0
2,note_on,64,32,60
2,note_on,55,26,0
2,note_on,60,26,0
2,note_on,60,0,180
2,note_on,55,0,0
2,note_on,64,0,0
2,note_on,55,26,60
2,note_on,64,32,0
2,note_on,60,26,0
2,note_on,60,0,180
2,note_on,64,0,0
2,note_on,55,0,0
2,note_on,60,35,60
2,note_on,55,35,0
2,note_on,64,42,0
2,note_on,64,0,180
2,note_on,55,0,0
2,note_on,60,0,0
2,note_on,64,33,60
2,note_on,55,27,0
2,note_on,60,27,0
2,note_on,60,0,180
2,note_on,55,0,0
2,note_on,64,0,0
2,note_on,65,35,60
2,note_on,57,29,0
2,note_on,60,29,0
2,note_on,60,0,240
2,note_on,57,0,0
2,note_on,65,0,0
2,note_on,58,32,0
2,note_on,67,37,0
2,note_on,60,32,0
2,note_on,60,0,240
2,note_on,67,0,0
2,note_on,58,0,0
2,note_on,53,43,0
2,note_on,58,31,0
2,note_on,60,37,0
2,note_on,60,0,240
2,note_on,58,0,0
2,note_on,57,26,0
2,note_on,65,32,0
2,note_on,60,26,0
2,note_on,60,0,180
2,note_on,65,0,0
2,note_on,57,0,0
2,note_on,65,32,60
2,note_on,60,26,0
2,note_on,57,26,0
2,note_on,57,0,180
2,note_on,60,0,0
2,note_on,65,0,0
2,note_on,57,29,60
2,note_on,60,29,0
2,note_on,65,35,0
2,note_on,65,0,180
2,note_on,60,0,0
2,note_on,57,0,0
2,note_on,65,35,60
2,note_on,60,35,60
2,note_on,69,42,0
2,note_on,69,0,180
2,note_on,53,0,0
2,note_on,65,0,0
2,note_on,60,0,0
2,note_on,60,26,0
2,note_on,65,31,0
2,note_on,57,26,0
2,note_on,57,0,180
2,note_on,65,0,0
2,note_on,60,0,0
2,note_on,57,26,60
2,note_on,60,26,0
2,note_on,65,31,0
2,note_on,65,0,180
2,note_on,60,0,0
2,note_on,57,0,0
2,note_on,65,31,60
2,note_on,57,26,0
2,note_on,60,26,0
2,note_on,60,0,180
2,note_on,57,0,0
2,note_on,65,0,0
2,note_on,48,37,60
2,note_on,48,0,240
2,note_on,60,23,0
2,note_on,55,23,0
2,note_on,64,28,0
2,note_on,64,0,180
2,note_on,55,0,0
2,note_on,60,0,0
2,note_on,64,28,60
2,note_on,60,23,0
2,note_on,55,23,0
2,note_on,55,0,180
2,note_on,60,0,0
2,note_on,64,0,0
2,note_on,64,28,60
2,note_on,55,23,0
2,note_on,60,23,0
2,note_on,60,0,180
2,note_on,55,0,0
2,note_on,64,0,0
2,note_on,55,31,60
2,note_on,60,31,0
2,note_on,64,37,0
2,note_on,64,0,180
2,note_on,60,0,0
2,note_on,55,0,0
2,note_on,64,29,60
2,note_on,55,24,0
2,note_on,60,24,0
2,note_on,60,0,180
2,note_on,55,0,0
2,note_on,64,0,0
2,note_on,65,31,60
2,note_on,57,26,0
2,note_on,60,26,0
2,note_on,60,0,240
2,note_on,57,0,0
2,note_on,65,0,0
2,note_on,58,28,0
2,note_on,60,28,0
2,note_on,67,33,0
2,note_on,67,0,240
2,note_on,60,0,0
2,note_on,58,0,0
2,note_on,60,33,0
2,note_on,58,29,0
2,note_on,53,43,0
2,note_on,58,0,240
2,note_on,60,0,0
2,note_on,60,23,0
2,note_on,57,23,0
2,note_on,65,28,0
2,note_on,65,0,180
2,note_on,57,0,0
2,note_on,60,0,0
2,note_on,60,23,60
2,note_on,57,23,0
2,note_on,65,28,0
2,note_on,65,0,180
2,note_on,57,0,0
2,note_on,60,0,0
2,note_on,65,31,60
2,note_on,60,26,0
2,note_on,57,26,0
2,note_on,57,0,180
2,note_on,60,0,0
2,note_on,65,0,0
2,note_on,65,31,60
2,note_on,60,31,60
2,note_on,69,37,0
2,note_on,69,0,180
2,note_on,53,0,0
2,note_on,65,0,0
2,note_on,60,0,0
2,note_on,60,26,0
2,note_on,65,31,0
2,note_on,57,26,0
2,note_on,57,0,180
2,note_on,65,0,0
2,note_on,60,0,0
2,note_on,57,26,60
2,note_on,65,31,0
2,note_on,60,26,0
2,note_on,60,0,180
2,note_on,65,0,0
2,note_on,57,0,0
2,note_on,65,31,60
2,note_on,57,26,0
2,note_on,60,26,0
2,note_on,60,0,180
2,note_on,57,0,0
2,note_on,65,0,0
2,note_on,48,37,60
2,note_on,48,0,240
2,note_on,64,28,0
2,note_on,55,23,0
2,note_on,60,23,0
2,note_on,60,0,180
2,note_on,55,0,0
2,note_on,64,0,0
2,note_on,55,23,60
2,note_on,60,23,0
2,note_on,64,28,0
2,note_on,64,0,180
2,note_on,60,0,0
2,note_on,55,0,0
2,note_on,60,23,60
2,note_on,55,23,0
2,note_on,64,28,0
2,note_on,64,0,180
2,note_on,55,0,0
2,note_on,60,0,0
2,note_on,55,31,60
2,note_on,64,37,0
2,note_on,60,31,0
2,note_on,60,0,180
2,note_on,64,0,0
2,note_on,55,0,0
2,note_on,55,24,60
2,note_on,64,29,0
2,note_on,60,24,0
2,note_on,60,0,180
2,note_on,64,0,0
2,note_on,55,0,0
2,note_on,57,26,60
2,note_on,60,26,0
2,note_on,65,31,0
2,note_on,65,0,240
2,note_on,60,0,0
2,note_on,57,0,0
2,note_on,67,33,0
2,note_on,60,28,0
2,note_on,58,28,0
2,note_on,58,0,240
2,note_on,60,0,0
2,note_on,67,0,0
2,note_on,48,33,0
2,note_on,48,0,240
2,note_on,67,33,240
2,note_on,58,33,0
2,note_on,60,33,0
2,note_on,60,0,3360
2,note_on,58,0,0
2,note_on,67,0,0
2,note_on,53,33,0
2,note_on,60,33,0
2,note_on,57,33,0
2,note_on,65,33,0
2,note_on,65,0,1440
2,note_on,53,0,0
2,note_on,60,0,0
2,note_on,57,0,0
2,note_on,41,37,2400
2,note_on,68,37,0
2,note_on,72,29,115
2,note_on,68,0,5
2,note_on,72,0,115
2,note_on,60,29,5
2,note_on,60,0,120
2,note_on,65,27,0
2,note_on,65,0,120
2,note_on,41,0,0
2,note_on,68,37,0
2,note_on,68,0,120
2,note_on,72,29,0
2,note_on,72,0,120
2,note_on,60,29,0
2,note_on,60,0,120
2,note_on,65,28,0
2,note_on,65,0,120
2,note_on,68,37,0
2,note_on,68,0,120
2,note_on,72,29,0
2,note_on,72,0,120
2,note_on,60,29,0
2,note_on,60,0,120
2,note_on,65,26,0
2,note_on,65,0,120
2,note_on,68,37,0
2,note_on,68,0,120
2,note_on,72,29,0
2,note_on,72,0,120
2,note_on,70,36,0
2,note_on,70,0,120
2,note_on,72,39,0
2,note_on,72,0,120
2,note_on,68,47,0
2,note_on,68,0,120
2,note_on,72,36,0
2,note_on,72,0,120
2,note_on,60,36,0
2,note_on,60,0,120
2,note_on,65,32,0
2,note_on,65,0,120
2,note_on,68,40,0
2,note_on,68,0,120
2,note_on,72,36,0
2,note_on,72,0,120
2,note_on,60,36,0
2,note_on,60,0,120
2,note_on,65,32,0
2,note_on,65,0,120
2,note_on,68,45,0
2,note_on,68,0,120
2,note_on,72,35,0
2,note_on,72,0,120
2,note_on,65,35,0
2,note_on,68,35,0
2,note_on,68,0,120
2,note_on,65,0,0
2,note_on,72,31,0
2,note_on,72,0,120
2,note_on,70,44,0
2,note_on,64,44,0
2,note_on,64,0,120
2,note_on,70,0,0
2,note_on,72,29,0
2,note_on,72,0,120
2,note_on,68,31,0
2,note_on,65,31,0
2,note_on,65,0,120
2,note_on,68,0,0
2,note_on,72,28,0
2,note_on,72,0,120
2,note_on,67,37,0
2,note_on,64,37,0
2,note_on,72,29,115
2,note_on,64,0,5
2,note_on,67,0,0
2,note_on,72,0,115
2,note_on,60,29,5
2,note_on,60,0,120
2,note_on,64,27,0
2,note_on,64,0,120
2,note_on,67,37,0
2,note_on,67,0,120
2,note_on,72,29,0
2,note_on,72,0,120
2,note_on,60,29,0
2,note_on,60,0,120
2,note_on,64,27,0
2,note_on,64,0,120
2,note_on,67,37,0
2,note_on,67,0,120
2,note_on,72,29,0
2,note_on,72,0,120
2,note_on,60,29,0
2,note_on,60,0,120
2,note_on,64,26,0
2,note_on,64,0,120
2,note_on,67,42,0
2,note_on,67,0,120
2,note_on,72,31,0
2,note_on,72,0,120
2,note_on,70,31,0
2,note_on,70,0,120
2,note_on,72,28,0
2,note_on,72,0,120
2,note_on,68,39,0
2,note_on,68,0,120
2,note_on,72,29,7
2,note_on,72,0,120
2,note_on,60,29,5
2,note_on,60,0,120
2,note_on,65,27,0
2,note_on,65,0,120
2,note_on,68,42,0
2,note_on,68,0,120
2,note_on,72,34,0
2,note_on,72,0,120
2,note_on,60,34,0
2,note_on,60,0,120
2,note_on,65,29,0
2,note_on,65,0,120
2,note_on,68,41,0
2,note_on,68,0,120
2,note_on,72,33,0
2,note_on,60,33,108
2,note_on,72,0,12
2,note_on,60,0,108
2,note_on,65,30,0
2,note_on,65,0,120
2,note_on,68,37,0
2,note_on,68,0,120
2,note_on,72,29,12
2,note_on,70,29,108
2,note_on,64,29,0
2,note_on,72,0,12
2,note_on,64,0,108
2,note_on,70,0,0
2,note_on,72,26,12
2,note_on,72,0,108
2,note_on,65,37,0
2,note_on,68,37,0
2,note_on,72,29,115
2,note_on,68,0,5
2,note_on,65,0,0
2,note_on,72,0,115
2,note_on,60,29,5
2,note_on,60,0,120
2,note_on,65,25,0
2,note_on,65,0,120
2,note_on,68,38,0
2,note_on,68,0,120
2,note_on,72,30,0
2,note_on,72,0,120
2,note_on,60,31,0
2,note_on,60,0,120
2,note_on,65,29,0
2,note_on,65,0,120
2,note_on,68,40,0
2,note_on,68,0,120
2,note_on,72,32,0
2,note_on,72,0,120
2,note_on,60,32,0
2,note_on,60,0,120
2,note_on,65,30,0
2,note_on,65,0,120
2,note_on,68,42,0
2,note_on,68,0,120
2,note_on,72,33,0
2,note_on,72,0,120
2,note_on,63,41,0
2,note_on,70,41,0
2,note_on,70,0,120
2,note_on,63,0,0
2,note_on,75,44,0
2,note_on,75,0,120
2,note_on,72,54,0
2,note_on,68,54,0
2,note_on,68,0,120
2,note_on,72,0,0
2,note_on,75,41,0
2,note_on,75,0,120
2,note_on,63,41,2
2,note_on,68,37,118
2,note_on,63,0,2
2,note_on,68,0,118
2,note_on,72,46,0
2,note_on,72,0,120
2,note_on,75,41,0
2,note_on,75,0,120
2,note_on,63,41,0
2,note_on,63,0,120
2,note_on,68,40,0
2,note_on,68,0,120
2,note_on,72,51,0
2,note_on,72,0,120
2,note_on,75,44,0
2,note_on,75,0,120
2,note_on,68,46,0
2,note_on,72,46,0
2,note_on,72,0,120
2,note_on,68,0,0
2,note_on,75,44,0
2,note_on,75,0,120
2,note_on,67,55,0
2,note_on,73,55,0
2,note_on,73,0,120
2,note_on,67,0,0
2,note_on,75,48,0
2,note_on,75,0,120
2,note_on,72,50,0
2,note_on,68,50,0
2,note_on,68,0,120
2,note_on,72,0,0
2,note_on,75,54,0
2,note_on,75,0,120
2,note_on,67,60,0
2,note_on,70,60,0
2,note_on,70,0,120
2,note_on,67,0,0
2,note_on,75,49,0
2,note_on,75,0,120
2,note_on,63,49,0
2,note_on,63,0,120
2,note_on,67,45,0
2,note_on,67,0,120
2,note_on,70,52,0
2,note_on,70,0,120
2,note_on,75,42,0
2,note_on,75,0,120
2,note_on,63,42,0
2,note_on,63,0,120
2,note_on,67,39,0
2,note_on,67,0,120
2,note_on,70,58,0
2,note_on,70,0,120
2,note_on,75,45,0
2,note_on,75,0,120
2,note_on,63,45,0
2,note_on,63,0,120
2,note_on,67,40,0
2,note_on,67,0,120
2,note_on,70,56,0
2,note_on,70,0,120
2,note_on,75,41,0
2,note_on,75,0,120
2,note_on,73,41,0
2,note_on,73,0,120
2,note_on,75,38,0
2,note_on,75,0,120
2,note_on,72,53,0
2,note_on,72,0,120
2,note_on,75,43,0
2,note_on,75,0,120
2,note_on,63,43,0
2,note_on,63,0,120
2,note_on,68,39,0
2,note_on,68,0,120
2,note_on,72,48,0
2,note_on,72,0,120
2,note_on,75,38,0
2,note_on,75,0,120
2,note_on,63,38,0
2,note_on,63,0,120
2,note_on,68,35,0
2,note_on,68,0,120
2,note_on,72,45,0
2,note_on,72,0,120
2,note_on,75,35,0
2,note_on,75,0,120
2,note_on,63,35,0
2,note_on,63,0,120
2,note_on,68,34,0
2,note_on,68,0,120
2,note_on,68,38,0
2,note_on,72,38,0
2,note_on,72,0,120
2,note_on,68,0,0
2,note_on,75,30,0
2,note_on,75,0,120
2,note_on,67,29,0
2,note_on,73,29,0
2,note_on,73,0,120
2,note_on,67,0,0
2,note_on,75,28,0
2,note_on,75,0,108
2,note_on,68,37,12
2,note_on,72,37,0
2,note_on,72,0,120
2,note_on,68,0,0
2,note_on,75,29,0
2,note_on,75,0,120
2,note_on,63,29,0
2,note_on,63,0,120
2,note_on,68,26,0
2,note_on,68,0,120
2,note_on,72,38,0
2,note_on,72,0,120
2,note_on,75,30,0
2,note_on,75,0,120
2,note_on,63,31,0
2,note_on,63,0,120
2,note_on,68,29,0
2,note_on,68,0,120
2,note_on,72,40,0
2,note_on,72,0,120
2,note_on,75,32,0
2,note_on,75,0,120
2,note_on,63,32,0
2,note_on,63,0,120
2,note_on,68,30,0
2,note_on,68,0,120
2,note_on,72,42,0
2,note_on,72,0,120
2,note_on,75,33,0
2,note_on,75,0,120
2,note_on,63,41,0
2,note_on,63,0,120
2,note_on,68,44,0
2,note_on,68,0,120
2,note_on,73,50,0
2,note_on,73,0,120
2,note_on,68,36,0
2,note_on,68,0,120
2,note_on,65,36,0
2,note_on,65,0,120
2,note_on,68,35,0
2,note_on,68,0,120
2,note_on,73,45,0
2,note_on,73,0,120
2,note_on,77,36,0
2,note_on,77,0,120
2,note_on,65,36,0
2,note_on,65,0,120
2,note_on,68,33,0
2,note_on,68,0,120
2,note_on,73,44,0
2,note_on,73,0,120
2,note_on,77,37,0
2,note_on,77,0,120
2,note_on,65,37,0
2,note_on,65,0,120
2,note_on,70,37,0
2,note_on,70,0,120
2,note_on,73,48,0
2,note_on,73,0,120
2,note_on,77,38,0
2,note_on,77,0,120
2,note_on,65,41,0
2,note_on,65,0,120
2,note_on,70,44,0
2,note_on,70,0,120
2,note_on,73,56,0
2,note_on,73,0,120
2,note_on,75,42,0
2,note_on,75,0,120
2,note_on,63,42,0
2,note_on,63,0,120
2,note_on,70,40,0
2,note_on,70,0,120
2,note_on,73,52,0
2,note_on,73,0,120
2,note_on,75,42,0
2,note_on,75,0,120
2,note_on,63,42,0
2,note_on,63,0,120
2,note_on,70,39,0
2,note_on,70,0,120
2,note_on,72,50,0
2,note_on,72,0,120
2,note_on,75,40,0
2,note_on,75,0,120
2,note_on,63,40,0
2,note_on,63,0,120
2,note_on,68,38,0
2,note_on,68,0,120
2,note_on,72,42,0
2,note_on,72,0,120
2,note_on,75,33,0
2,note_on,75,0,120
2,note_on,63,41,0
2,note_on,63,0,120
2,note_on,68,44,0
2,note_on,68,0,120
2,note_on,70,54,0
2,note_on,70,0,120
2,note_on,75,41,0
2,note_on,75,0,120
2,note_on,63,41,0
2,note_on,63,0,120
2,note_on,68,36,0
2,note_on,68,0,120
2,note_on,70,48,0
2,note_on,70,0,120
2,note_on,75,39,0
2,note_on,75,0,120
2,note_on,63,39,0
2,note_on,63,0,120
2,note_on,68,35,0
2,note_on,68,0,120
2,note_on,70,48,0
2,note_on,70,0,120
2,note_on,75,32,0
2,note_on,75,0,120
2,note_on,63,37,0
2,note_on,63,0,120
2,note_on,67,33,0
2,note_on,67,0,120
2,note_on,70,42,0
2,note_on,70,0,120
2,note_on,75,29,0
2,note_on,75,0,120
2,note_on,63,29,0
2,note_on,63,0,120
2,note_on,67,26,0
2,note_on,67,0,120
2,note_on,72,37,0
2,note_on,72,0,120
2,note_on,75,29,0
2,note_on,75,0,120
2,note_on,63,29,0
2,note_on,63,0,120
2,note_on,68,27,0
2,note_on,68,0,120
2,note_on,72,38,0
2,note_on,72,0,120
2,note_on,75,30,0
2,note_on,75,0,120
2,note_on,63,31,0
2,note_on,63,0,120
2,note_on,68,28,0
2,note_on,68,0,120
2,note_on,71,40,0
2,note_on,71,0,120
2,note_on,75,32,0
2,note_on,75,0,120
2,note_on,63,32,0
2,note_on,63,0,120
2,note_on,68,28,0
2,note_on,68,0,120
2,note_on,71,42,0
2,note_on,71,0,120
2,note_on,75,33,0
2,note_on,75,0,120
2,note_on,63,33,0
2,note_on,63,0,120
2,note_on,68,28,0
2,note_on,68,0,120
2,note_on,70,37,0
2,note_on,70,0,120
2,note_on,75,29,0
2,note_on,75,0,120
2,note_on,63,29,0
2,note_on,63,0,120
2,note_on,68,26,0
2,note_on,68,0,120
2,note_on,70,38,0
2,note_on,70,0,120
2,note_on,75,29,0
2,note_on,75,0,120
2,note_on,63,29,0
2,note_on,63,0,120
2,note_on,68,27,0
2,note_on,68,0,120
2,note_on,70,40,0
2,note_on,70,0,120
2,note_on,75,28,0
2,note_on,75,0,120
2,note_on,63,28,0
2,note_on,63,0,120
2,note_on,67,26,0
2,note_on,67,0,120
2,note_on,70,41,0
2,note_on,70,0,120
2,note_on,75,29,0
2,note_on,75,0,120
2,note_on,63,29,0
2,note_on,63,0,120
2,note_on,67,25,0
2,note_on,67,0,120
2,note_on,72,37,0
2,note_on,72,0,120
2,note_on,75,35,0
2,note_on,75,0,120
2,note_on,63,29,0
2,note_on,63,0,120
2,note_on,68,28,0
2,note_on,68,0,120
2,note_on,72,38,0
2,note_on,72,0,120
2,note_on,75,30,0
2,note_on,75,0,120
2,note_on,63,31,0
2,note_on,63,0,120
2,note_on,68,28,0
2,note_on,68,0,120
2,note_on,72,45,0
2,note_on,72,0,120
2,note_on,75,32,0
2,note_on,75,0,120
2,note_on,63,32,0
2,note_on,63,0,120
2,note_on,68,30,0
2,note_on,68,0,120
2,note_on,72,47,0
2,note_on,72,0,120
2,note_on,75,34,0
2,note_on,75,0,120
2,note_on,63,38,0
2,note_on,63,0,120
2,note_on,68,35,0
2,note_on,68,0,120
2,note_on,72,50,0
2,note_on,72,0,120
2,note_on,76,39,0
2,note_on,76,0,120
2,note_on,64,39,0
2,note_on,64,0,120
2,note_on,67,34,0
2,note_on,67,0,120
2,note_on,72,51,0
2,note_on,72,0,120
2,note_on,76,39,0
2,note_on,76,0,120
2,note_on,64,40,0
2,note_on,64,0,120
2,note_on,67,34,0
2,note_on,67,0,120
2,note_on,72,49,0
2,note_on,72,0,120
2,note_on,76,38,0
2,note_on,76,0,120
2,note_on,64,38,0
2,note_on,64,0,120
2,note_on,67,35,0
2,note_on,67,0,120
2,note_on,72,51,0
2,note_on,72,0,120
2,note_on,76,40,0
2,note_on,76,0,120
2,note_on,64,41,0
2,note_on,64,0,120
2,note_on,67,38,0
2,note_on,67,0,120
2,note_on,72,59,0
2,note_on,72,0,120
2,note_on,77,45,0
2,note_on,77,0,120
2,note_on,65,46,0
2,note_on,65,0,120
2,note_on,68,45,0
2,note_on,68,0,120
2,note_on,72,64,0
2,note_on,72,0,120
2,note_on,77,48,0
2,note_on,77,0,120
2,note_on,65,50,0
2,note_on,65,0,120
2,note_on,68,50,0
2,note_on,68,0,120
2,note_on,72,58,0
2,note_on,72,0,120
2,note_on,77,47,0
2,note_on,77,0,120
2,note_on,65,47,0
2,note_on,65,0,120
2,note_on,68,43,0
2,note_on,68,0,120
2,note_on,72,54,0
2,note_on,72,0,120
2,note_on,77,46,0
2,note_on,77,0,120
2,note_on,65,46,0
2,note_on,65,0,120
2,note_on,68,41,0
2,note_on,68,0,120
2,note_on,72,57,0
2,note_on,72,0,120
2,note_on,76,44,0
2,note_on,76,0,120
2,note_on,64,44,0
2,note_on,64,0,120
2,note_on,67,40,0
2,note_on,67,0,120
2,note_on,72,58,0
2,note_on,72,0,120
2,note_on,76,44,0
2,note_on,76,0,120
2,note_on,64,46,0
2,note_on,64,0,120
2,note_on,67,41,0
2,note_on,67,0,120
2,note_on,72,56,0
2,note_on,72,0,120
2,note_on,76,43,0
2,note_on,76,0,120
2,note_on,64,43,0
2,note_on,64,0,120
2,note_on,67,39,0
2,note_on,67,0,120
2,note_on,72,58,0
2,note_on,72,0,120
2,note_on,76,46,0
2,note_on,76,0,120
2,note_on,64,47,0
2,note_on,64,0,120
2,note_on,67,44,0
2,note_on,67,0,120
2,note_on,72,67,0
2,note_on,72,0,120
2,note_on,77,51,0
2,note_on,77,0,120
2,note_on,65,51,0
2,note_on,65,0,120
2,note_on,68,47,0
2,note_on,68,0,120
2,note_on,72,69,0
2,note_on,72,0,120
2,note_on,77,51,0
2,note_on,77,0,120
2,note_on,65,51,0
2,note_on,65,0,120
2,note_on,68,48,0
2,note_on,68,0,120
2,note_on,72,60,0
2,note_on,72,0,120
2,note_on,77,49,0
2,note_on,77,0,120
2,note_on,65,49,0
2,note_on,65,0,120
2,note_on,68,48,0
2,note_on,68,0,120
2,note_on,72,59,0
2,note_on,72,0,120
2,note_on,77,51,0
2,note_on,77,0,120
2,note_on,65,51,0
2,note_on,65,0,120
2,note_on,68,47,0
2,note_on,68,0,120
2,note_on,73,65,0
2,note_on,73,0,120
2,note_on,77,53,0
2,note_on,77,0,120
2,note_on,65,53,0
2,note_on,65,0,120
2,note_on,68,49,0
2,note_on,68,0,120
2,note_on,73,62,0
2,note_on,73,0,120
2,note_on,77,53,0
2,note_on,77,0,120
2,note_on,65,53,0
2,note_on,65,0,120
2,note_on,68,49,0
2,note_on,68,0,120
2,note_on,73,62,0
2,note_on,73,0,120
2,note_on,78,53,0
2,note_on,78,0,120
2,note_on,66,53,0
2,note_on,66,0,120
2,note_on,69,49,0
2,note_on,69,0,120
2,note_on,73,62,0
2,note_on,73,0,120
2,note_on,78,53,0
2,note_on,78,0,120
2,note_on,66,53,0
2,note_on,66,0,120
2,note_on,69,49,0
2,note_on,69,0,120
2,note_on,73,65,0
2,note_on,73,0,120
2,note_on,77,53,0
2,note_on,77,0,120
2,note_on,65,53,0
2,note_on,65,0,120
2,note_on,68,47,0
2,note_on,68,0,120
2,note_on,73,62,0
2,note_on,73,0,120
2,note_on,77,53,0
2,note_on,77,0,120
2,note_on,65,53,0
2,note_on,65,0,120
2,note_on,68,48,0
2,note_on,68,0,120
2,note_on,73,62,0
2,note_on,73,0,120
2,note_on,78,53,0
2,note_on,78,0,120
2,note_on,66,53,0
2,note_on,66,0,120
2,note_on,69,49,0
2,note_on,69,0,120
2,note_on,73,62,0
2,note_on,73,0,120
2,note_on,78,53,0
2,note_on,78,0,120
2,note_on,66,53,0
2,note_on,66,0,120
2,note_on,69,48,0
2,note_on,69,0,120
2,note_on,73,65,0
2,note_on,73,0,120
2,note_on,77,46,0
2,note_on,77,0,120
2,note_on,65,46,0
2,note_on,65,0,120
2,note_on,68,42,0
2,note_on,68,0,120
2,note_on,73,55,0
2,note_on,73,0,120
2,note_on,77,40,0
2,note_on,77,0,120
2,note_on,65,40,0
2,note_on,65,0,120
2,note_on,68,36,0
2,note_on,68,0,120
2,note_on,73,40,0
2,note_on,73,0,120
2,note_on,77,46,0
2,note_on,77,0,120
2,note_on,65,37,0
2,note_on,65,0,120
2,note_on,68,35,0
2,note_on,68,0,120
2,note_on,72,37,0
2,note_on,72,0,120
2,note_on,77,43,0
2,note_on,77,0,120
2,note_on,65,37,0
2,note_on,65,0,120
2,note_on,68,34,0
2,note_on,68,0,120
2,note_on,74,37,0
2,note_on,74,0,120
2,note_on,77,29,0
2,note_on,77,0,120
2,note_on,65,29,0
2,note_on,65,0,120
2,note_on,67,27,0
2,note_on,67,0,120
2,note_on,74,38,0
2,note_on,74,0,120
2,note_on,77,30,0
2,note_on,77,0,120
2,note_on,65,31,0
2,note_on,65,0,120
2,note_on,67,28,0
2,note_on,67,0,120
2,note_on,74,41,0
2,note_on,74,0,120
2,note_on,77,31,0
2,note_on,77,0,120
2,note_on,65,31,0
2,note_on,65,0,120
2,note_on,67,29,0
2,note_on,67,0,120
2,note_on,74,40,0
2,note_on,74,0,120
2,note_on,77,29,0
2,note_on,77,0,120
2,note_on,65,32,0
2,note_on,65,0,120
2,note_on,67,28,0
2,note_on,67,0,120
2,note_on,72,44,0
2,note_on,72,0,120
2,note_on,76,32,0
2,note_on,76,0,120
2,note_on,64,32,0
2,note_on,64,0,120
2,note_on,67,30,0
2,note_on,67,0,120
2,note_on,72,44,0
2,note_on,72,0,120
2,note_on,76,34,0
2,note_on,76,0,120
2,note_on,64,34,0
2,note_on,64,0,120
2,note_on,67,31,0
2,note_on,67,0,120
2,note_on,72,41,0
2,note_on,72,0,120
2,note_on,76,31,0
2,note_on,76,0,120
2,note_on,64,31,0
2,note_on,64,0,120
2,note_on,67,29,0
2,note_on,67,0,120
2,note_on,72,40,0
2,note_on,72,0,120
2,note_on,76,29,0
2,note_on,76,0,120
2,note_on,64,31,0
2,note_on,64,0,120
2,note_on,67,26,0
2,note_on,67,0,120
2,note_on,72,37,0
2,note_on,72,0,120
2,note_on,77,27,0
2,note_on,77,0,120
2,note_on,65,27,0
2,note_on,65,0,120
2,note_on,69,24,0
2,note_on,69,0,120
2,note_on,72,37,0
2,note_on,72,0,120
2,note_on,77,28,0
2,note_on,77,0,120
2,note_on,65,28,0
2,note_on,65,0,120
2,note_on,69,24,0
2,note_on,69,0,120
2,note_on,74,37,0
2,note_on,74,0,120
2,note_on,77,27,0
2,note_on,77,0,120
2,note_on,65,27,0
2,note_on,65,0,120
2,note_on,69,25,0
2,note_on,69,0,120
2,note_on,74,37,0
2,note_on,74,0,120
2,note_on,77,28,0
2,note_on,77,0,120
2,note_on,65,28,0
2,note_on,65,0,120
2,note_on,69,26,0
2,note_on,69,0,120
2,note_on,74,37,0
2,note_on,74,0,120
2,note_on,77,27,0
2,note_on,77,0,120
2,note_on,65,27,0
2,note_on,65,0,120
2,note_on,71,24,0
2,note_on,71,0,120
2,note_on,74,37,0
2,note_on,74,0,120
2,note_on,77,28,0
2,note_on,77,0,120
2,note_on,65,28,0
2,note_on,65,0,120
2,note_on,71,25,0
2,note_on,71,0,120
2,note_on,74,37,0
2,note_on,74,0,120
2,note_on,77,27,0
2,note_on,77,0,120
2,note_on,65,27,0
2,note_on,65,0,120
2,note_on,71,24,0
2,note_on,71,0,120
2,note_on,74,37,0
2,note_on,74,0,120
2,note_on,77,29,0
2,note_on,77,0,120
2,note_on,65,29,0
2,note_on,65,0,120
2,note_on,71,25,0
2,note_on,71,0,120
2,note_on,72,40,0
2,note_on,72,0,120
2,note_on,76,29,0
2,note_on,76,0,120
2,note_on,64,29,0
2,note_on,64,0,120
2,note_on,67,26,0
2,note_on,67,0,120
2,note_on,72,38,0
2,note_on,72,0,120
2,note_on,76,30,0
2,note_on,76,0,120
2,note_on,64,30,0
2,note_on,64,0,120
2,note_on,67,27,0
2,note_on,67,0,120
2,note_on,72,30,0
2,note_on,72,0,120
2,note_on,76,27,0
2,note_on,76,0,120
2,note_on,64,27,0
2,note_on,64,0,120
2,note_on,67,23,0
2,note_on,67,0,120
2,note_on,72,45,0
2,note_on,72,0,120
2,note_on,76,32,0
2,note_on,76,0,120
2,note_on,64,35,0
2,note_on,64,0,120
2,note_on,67,39,0
2,note_on,67,0,120
2,note_on,71,49,0
2,note_on,71,0,120
2,note_on,77,36,0
2,note_on,77,0,120
2,note_on,65,36,0
2,note_on,65,0,120
2,note_on,67,33,0
2,note_on,67,0,120
2,note_on,71,46,0
2,note_on,71,0,120
2,note_on,77,33,0
2,note_on,77,0,120
2,note_on,65,31,0
2,note_on,65,0,120
2,note_on,67,29,0
2,note_on,67,0,120
2,note_on,70,37,0
2,note_on,70,0,120
2,note_on,72,27,0
2,note_on,72,0,120
2,note_on,60,27,0
2,note_on,60,0,120
2,note_on,67,25,0
2,note_on,67,0,120
2,note_on,70,37,0
2,note_on,70,0,120
2,note_on,72,28,0
2,note_on,72,0,120
2,note_on,60,28,0
2,note_on,60,0,120
2,note_on,67,27,0
2,note_on,67,0,120
2,note_on,69,37,0
2,note_on,69,0,120
2,note_on,72,27,0
2,note_on,72,0,120
2,note_on,60,27,0
2,note_on,60,0,120
2,note_on,65,24,0
2,note_on,65,0,120
2,note_on,69,37,0
2,note_on,69,0,120
2,note_on,72,28,0
2,note_on,72,0,120
2,note_on,60,28,0
2,note_on,60,0,120
2,note_on,65,23,0
2,note_on,65,0,120
2,note_on,69,37,0
2,note_on,69,0,120
2,note_on,72,28,0
2,note_on,72,0,120
2,note_on,60,28,0
2,note_on,60,0,120
2,note_on,65,25,0
2,note_on,65,0,120
2,note_on,69,37,0
2,note_on,69,0,120
2,note_on,72,29,0
2,note_on,72,0,120
2,note_on,67,36,0
2,note_on,67,0,120
2,note_on,72,39,0
2,note_on,72,0,120
2,note_on,69,47,0
2,note_on,69,0,120
2,note_on,72,36,0
2,note_on,72,0,120
2,note_on,60,36,0
2,note_on,60,0,120
2,note_on,65,32,0
2,note_on,65,0,120
2,note_on,69,40,0
2,note_on,69,0,120
2,note_on,72,36,0
2,note_on,72,0,120
2,note_on,60,36,0
2,note_on,60,0,120
2,note_on,65,34,0
2,note_on,65,0,120
2,note_on,69,45,0
2,note_on,69,0,120
2,note_on,72,35,0
2,note_on,72,0,120
2,note_on,69,35,0
2,note_on,65,35,0
2,note_on,65,0,120
2,note_on,69,0,0
2,note_on,72,31,0
2,note_on,72,0,120
2,note_on,64,44,0
2,note_on,70,44,0
2,note_on,70,0,120
2,note_on,64,0,0
2,note_on,72,29,0
2,note_on,72,0,120
2,note_on,69,31,0
2,note_on,65,31,0
2,note_on,65,0,120
2,note_on,69,0,0
2,note_on,72,28,0
2,note_on,72,0,120
2,note_on,64,37,0
2,note_on,67,37,0
2,note_on,67,0,120
2,note_on,64,0,0
2,note_on,72,29,0
2,note_on,72,0,120
2,note_on,60,29,0
2,note_on,60,0,120
2,note_on,64,25,0
2,note_on,64,0,120
2,note_on,67,37,0
2,note_on,67,0,120
2,note_on,72,29,0
2,note_on,72,0,120
2,note_on,60,29,0
2,note_on,60,0,120
2,note_on,64,27,0
2,note_on,64,0,120
2,note_on,67,37,0
2,note_on,67,0,120
2,note_on,72,29,0
2,note_on,72,0,120
2,note_on,60,29,0
2,note_on,60,0,120
2,note_on,64,26,0
2,note_on,64,0,120
2,note_on,67,42,0
2,note_on,67,0,120
2,note_on,72,31,0
2,note_on,72,0,120
2,note_on,70,31,0
2,note_on,70,0,120
2,note_on,72,28,0
2,note_on,72,0,120
2,note_on,69,39,0
2,note_on,69,0,120
2,note_on,72,29,0
2,note_on,72,0,120
2,note_on,60,29,0
2,note_on,60,0,120
2,note_on,65,27,0
2,note_on,65,0,120
2,note_on,69,42,0
2,note_on,69,0,120
2,note_on,72,34,0
2,note_on,72,0,120
2,note_on,60,34,0
2,note_on,60,0,120
2,note_on,65,30,0
2,note_on,65,0,120
2,note_on,69,41,0
2,note_on,69,0,120
2,note_on,72,33,0
2,note_on,72,0,120
2,note_on,60,33,0
2,note_on,60,0,120
2,note_on,65,30,0
2,note_on,65,0,120
2,note_on,69,37,0
2,note_on,65,37,0
2,note_on,65,0,120
2,note_on,69,0,0
2,note_on,72,29,0
2,note_on,72,0,120
2,note_on,64,29,0
2,note_on,70,29,0
2,note_on,70,0,120
2,note_on,64,0,0
2,note_on,72,26,12
2,note_on,72,0,108
2,note_on,69,37,0
2,note_on,65,37,0
2,note_on,72,29,115
2,note_on,65,0,5
2,note_on,69,0,0
2,note_on,72,0,115
2,note_on,60,29,5
2,note_on,60,0,120
2,note_on,65,28,0
2,note_on,65,0,120
2,note_on,69,38,0
2,note_on,69,0,120
2,note_on,72,30,0
2,note_on,72,0,120
2,note_on,60,31,0
2,note_on,60,0,120
2,note_on,65,29,0
2,note_on,65,0,120
2,note_on,69,40,0
2,note_on,69,0,120
2,note_on,72,32,0
2,note_on,72,0,120
2,note_on,60,32,0
2,note_on,60,0,120
2,note_on,65,29,0
2,note_on,65,0,120
2,note_on,69,42,0
2,note_on,69,0,120
2,note_on,72,33,0
2,note_on,72,0,120
2,note_on,70,41,0
2,note_on,70,0,120
2,note_on,72,44,0
2,note_on,72,0,120
2,note_on,69,54,0
2,note_on,69,0,120
2,note_on,72,41,0
2,note_on,72,0,120
2,note_on,60,41,0
2,note_on,60,0,120
2,note_on,65,36,0
2,note_on,65,0,120
2,note_on,69,46,0
2,note_on,69,0,120
2,note_on,72,41,0
2,note_on,72,0,120
2,note_on,60,41,0
2,note_on,60,0,120
2,note_on,65,40,0
2,note_on,65,0,120
2,note_on,69,51,0
2,note_on,69,0,120
2,note_on,72,44,0
2,note_on,72,0,120
2,note_on,69,46,0
2,note_on,69,0,120
2,note_on,72,44,0
2,note_on,72,0,120
2,note_on,70,55,0
2,note_on,70,0,120
2,note_on,74,48,0
2,note_on,74,0,120
2,note_on,67,50,0
2,note_on,67,0,120
2,note_on,76,54,0
2,note_on,76,0,120
2,note_on,69,60,0
2,note_on,69,0,120
2,note_on,77,49,0
2,note_on,77,0,120
2,note_on,65,49,0
2,note_on,65,0,120
2,note_on,69,46,0
2,note_on,69,0,120
2,note_on,72,52,0
2,note_on,72,0,120
2,note_on,77,42,0
2,note_on,77,0,120
2,note_on,65,42,0
2,note_on,65,0,120
2,note_on,69,38,0
2,note_on,69,0,120
2,note_on,72,58,0
2,note_on,72,0,120
2,note_on,77,45,0
2,note_on,77,0,120
2,note_on,69,45,0
2,note_on,69,0,120
2,note_on,77,40,0
2,note_on,77,0,120
2,note_on,72,56,0
2,note_on,72,0,120
2,note_on,76,41,0
2,note_on,76,0,120
2,note_on,70,41,0
2,note_on,70,0,120
2,note_on,74,37,0
2,note_on,74,0,120
2,note_on,69,53,0
2,note_on,69,0,120
2,note_on,72,39,0
2,note_on,72,0,120
2,note_on,60,39,0
2,note_on,60,0,120
2,note_on,65,34,0
2,note_on,65,0,120
2,note_on,69,46,0
2,note_on,69,0,120
2,note_on,72,34,0
2,note_on,72,0,120
2,note_on,60,34,0
2,note_on,60,0,120
2,note_on,65,31,0
2,note_on,65,0,120
2,note_on,69,40,0
2,note_on,69,0,120
2,note_on,72,31,0
2,note_on,72,0,120
2,note_on,69,31,0
2,note_on,65,31,0
2,note_on,65,0,120
2,note_on,69,0,0
2,note_on,72,30,0
2,note_on,72,0,120
2,note_on,64,43,0
2,note_on,70,43,0
2,note_on,70,0,120
2,note_on,64,0,0
2,note_on,72,35,0
2,note_on,72,0,120
2,note_on,67,35,0
2,note_on,64,35,0
2,note_on,64,0,120
2,note_on,67,0,0
2,note_on,72,33,0
2,note_on,72,0,120
2,note_on,69,36,0
2,note_on,65,36,0
2,note_on,65,0,120
2,note_on,69,0,0
2,note_on,72,30,0
2,note_on,72,0,120
2,note_on,60,30,0
2,note_on,60,0,120
2,note_on,65,26,0
2,note_on,65,0,120
2,note_on,69,30,0
2,note_on,69,0,120
2,note_on,72,33,0
2,note_on,72,0,120
2,note_on,60,33,0
2,note_on,60,0,120
2,note_on,65,33,0
2,note_on,65,0,120
2,note_on,69,45,0
2,note_on,69,0,120
2,note_on,72,31,0
2,note_on,72,0,120
2,note_on,60,31,0
2,note_on,60,0,120
2,note_on,65,27,0
2,note_on,65,0,120
2,note_on,69,25,0
2,note_on,69,0,120
2,note_on,72,19,0
2,note_on,72,0,120
2,note_on,70,24,0
2,note_on,70,0,120
2,note_on,72,26,0
2,note_on,72,0,120
2,note_on,69,32,0
2,note_on,69,0,120
2,note_on,72,24,0
2,note_on,72,0,120
2,note_on,60,24,0
2,note_on,60,0,120
2,note_on,65,24,0
2,note_on,65,0,120
2,note_on,69,27,0
2,note_on,69,0,120
2,note_on,72,24,0
2,note_on,72,0,120
2,note_on,60,24,0
2,note_on,60,0,120
2,note_on,65,24,0
2,note_on,65,0,120
2,note_on,69,30,0
2,note_on,69,0,120
2,note_on,72,26,0
2,note_on,72,0,120
2,note_on,69,27,0
2,note_on,69,0,120
2,note_on,72,28,0
2,note_on,72,0,120
2,note_on,70,33,0
2,note_on,70,0,120
2,note_on,74,28,0
2,note_on,74,0,120
2,note_on,67,30,0
2,note_on,67,0,120
2,note_on,76,32,0
2,note_on,76,0,120
2,note_on,69,36,0
2,note_on,69,0,120
2,note_on,77,29,0
2,note_on,77,0,120
2,note_on,65,29,0
2,note_on,65,0,120
2,note_on,69,27,0
2,note_on,69,0,120
2,note_on,72,31,0
2,note_on,72,0,120
2,note_on,77,25,0
2,note_on,77,0,120
2,note_on,65,25,0
2,note_on,65,0,120
2,note_on,69,25,0
2,note_on,69,0,120
2,note_on,72,34,0
2,note_on,72,0,120
2,note_on,77,24,0
2,note_on,77,0,120
2,note_on,69,24,0
2,note_on,69,0,120
2,note_on,77,21,0
2,note_on,77,0,120
2,note_on,72,33,0
2,note_on,72,0,120
2,note_on,76,24,0
2,note_on,76,0,120
2,note_on,70,24,0
2,note_on,70,0,120
2,note_on,74,23,0
2,note_on,74,0,120
2,note_on,69,31,0
2,note_on,69,0,120
2,note_on,72,24,0
2,note_on,72,0,120
2,note_on,60,24,0
2,note_on,60,0,120
2,note_on,65,24,0
2,note_on,65,0,120
2,note_on,69,28,0
2,note_on,69,0,120
2,note_on,72,22,0
2,note_on,72,0,120
2,note_on,60,22,0
2,note_on,60,0,120
2,note_on,65,22,0
2,note_on,65,0,120
2,note_on,69,27,0
2,note_on,69,0,120
2,note_on,72,21,0
2,note_on,72,0,120
2,note_on,69,21,0
2,note_on,65,21,0
2,note_on,65,0,120
2,note_on,69,0,0
2,note_on,72,21,0
2,note_on,72,0,120
2,note_on,70,33,0
2,note_on,64,33,0
2,note_on,64,0,120
2,note_on,70,0,0
2,note_on,72,24,0
2,note_on,72,0,120
2,note_on,64,24,0
2,note_on,67,24,0
2,note_on,67,0,120
2,note_on,64,0,0
2,note_on,72,22,0
2,note_on,72,0,120
2,note_on,65,31,0
2,note_on,69,31,0
2,note_on,69,0,120
2,note_on,65,0,0
2,note_on,72,25,0
2,note_on,72,0,120
2,note_on,60,25,0
2,note_on,60,0,120
2,note_on,65,24,0
2,note_on,65,0,120
2,note_on,69,28,0
2,note_on,69,0,120
2,note_on,72,22,0
2,note_on,72,0,120
2,note_on,60,22,0
2,note_on,60,0,120
2,note_on,65,22,0
2,note_on,65,0,120
2,note_on,69,27,0
2,note_on,69,0,120
2,note_on,72,21,0
2,note_on,72,0,120
2,note_on,65,21,0
2,note_on,69,21,0
2,note_on,69,0,120
2,note_on,65,0,0
2,note_on,72,21,0
2,note_on,72,0,120
2,note_on,70,33,0
2,note_on,64,33,0
2,note_on,64,0,120
2,note_on,70,0,0
2,note_on,72,24,0
2,note_on,72,0,120
2,note_on,67,24,0
2,note_on,64,24,0
2,note_on,64,0,120
2,note_on,67,0,0
2,note_on,72,23,0
2,note_on,72,0,120
2,note_on,69,31,0
2,note_on,65,31,0
2,note_on,65,0,120
2,note_on,69,0,0
2,note_on,72,24,0
2,note_on,72,0,120
2,note_on,60,24,0
2,note_on,60,0,120
2,note_on,65,25,0
2,note_on,65,0,120
2,note_on,69,26,0
2,note_on,69,0,120
2,note_on,72,20,0
2,note_on,72,0,120
2,note_on,60,20,0
2,note_on,60,0,120
2,note_on,65,20,0
2,note_on,65,0,120
2,note_on,69,24,0
2,note_on,69,0,120
2,note_on,72,18,0
2,note_on,72,0,120
2,note_on,65,18,0
2,note_on,69,18,0
2,note_on,69,0,120
2,note_on,65,0,0
2,note_on,72,18,0
2,note_on,72,0,120
2,note_on,70,28,0
2,note_on,64,28,0
2,note_on,64,0,120
2,note_on,70,0,0
2,note_on,72,20,0
2,note_on,72,0,120
2,note_on,67,19,0
2,note_on,64,19,0
2,note_on,64,0,120
2,note_on,67,0,0
2,note_on,72,19,0
2,note_on,72,0,120
2,note_on,65,30,0
2,note_on,65,0,120
2,note_on,69,22,0
2,note_on,69,0,120
2,note_on,57,22,0
2,note_on,57,0,120
2,note_on,60,20,0
2,note_on,60,0,120
2,note_on,65,33,0
2,note_on,65,0,120
2,note_on,69,25,0
2,note_on,69,0,120
2,note_on,57,25,0
2,note_on,57,0,120
2,note_on,60,24,0
2,note_on,60,0,120
2,note_on,65,37,0
2,note_on,65,0,120
2,note_on,69,26,0
2,note_on,69,0,120
2,note_on,57,26,0
2,note_on,57,0,120
2,note_on,60,25,0
2,note_on,60,0,120
2,note_on,65,36,0
2,note_on,65,0,120
2,note_on,69,27,0
2,note_on,69,0,120
2,note_on,57,28,0
2,note_on,57,0,120
2,note_on,60,28,0
2,note_on,60,0,120
2,note_on,40,39,240
2,note_on,40,0,240
2,note_on,41,40,0
2,note_on,41,0,240
2,note_on,44,42,0
2,note_on,44,0,240
2,note_on,47,43,0
2,note_on,47,0,240
2,note_on,48,44,0
2,note_on,48,0,240
2,note_on,53,46,0
2,note_on,53,0,240
2,note_on,55,47,0
2,note_on,55,0,240
2,note_on,56,51,0
2,note_on,48,51,0
2,note_on,41,43,0
2,note_on,56,0,1440
2,note_on,52,43,0
2,note_on,43,36,0
2,note_on,43,0,480
2,note_on,52,0,0
2,note_on,48,0,0
2,note_on,44,43,0
2,note_on,53,43,0
2,note_on,44,0,480
2,note_on,45,39,0
2,note_on,45,0,480
2,note_on,43,43,0
2,note_on,43,0,480
2,note_on,45,40,0
2,note_on,45,0,480
2,note_on,49,44,0
2,note_on,49,0,240
2,note_on,53,0,0
2,note_on,41,0,0
2,note_on,49,32,0
2,note_on,53,37,0
2,note_on,53,0,120
2,note_on,49,0,0
2,note_on,48,32,120
2,note_on,51,41,0
2,note_on,51,0,120
2,note_on,48,0,0
2,note_on,48,36,120
2,note_on,51,44,0
2,note_on,51,0,120
2,note_on,48,0,0
2,note_on,49,47,120
2,note_on,46,39,0
2,note_on,46,0,120
2,note_on,49,0,0
2,note_on,46,43,120
2,note_on,49,51,0
2,note_on,49,0,120
2,note_on,46,0,0
2,note_on,44,46,120
2,note_on,48,55,0
2,note_on,48,0,120
2,note_on,44,0,0
2,note_on,48,60,120
2,note_on,44,49,0
2,note_on,44,0,120
2,note_on,48,0,0
2,note_on,43,54,120
2,note_on,46,64,0
2,note_on,46,0,240
2,note_on,43,0,0
2,note_on,52,55,240
2,note_on,58,55,0
2,note_on,61,65,0
2,note_on,55,55,0
2,note_on,55,0,240
2,note_on,52,0,0
2,note_on,58,0,0
2,note_on,61,0,0
2,note_on,53,29,1200
2,note_on,56,35,0
2,note_on,56,0,480
2,note_on,53,0,0
2,note_on,49,27,480
2,note_on,46,27,0
2,note_on,55,32,0
2,note_on,55,0,480
2,note_on,46,0,0
2,note_on,49,0,0
2,note_on,48,41,480
2,note_on,53,32,160
2,note_on,53,0,160
2,note_on,55,33,0
2,note_on,55,0,160
2,note_on,56,35,0
2,note_on,56,0,160
2,note_on,55,34,0
2,note_on,55,0,160
2,note_on,53,30,1
2,note_on,48,0,159
2,note_on,48,40,0
2,note_on,53,0,1
2,note_on,58,40,3
2,note_on,56,35,476
2,note_on,58,0,4
2,note_on,56,0,236
2,note_on,55,35,0
2,note_on,55,0,240
2,note_on,48,0,0
2,note_on,48,38,0
2,note_on,53,25,160
2,note_on,53,0,160
2,note_on,55,27,0
2,note_on,55,0,160
2,note_on,56,29,0
2,note_on,56,0,160
2,note_on,55,29,0
2,note_on,55,0,160
2,note_on,53,28,1
2,note_on,48,0,159
2,note_on,48,35,0
2,note_on,53,0,1
2,note_on,58,35,3
2,note_on,56,30,476
2,note_on,58,0,4
2,note_on,56,0,236
2,note_on,55,29,0
2,note_on,55,0,240
2,note_on,48,0,0
2,note_on,41,22,0
2,note_on,53,27,0
2,note_on,53,0,480
2,note_on,41,0,0
2,note_on,41,22,480
2,note_on,48,22,0
2,note_on,53,27,0
2,note_on,53,0,480
2,note_on,48,0,0
2,note_on,41,0,0
2,note_on,48,22,480
2,note_on,53,26,0
2,note_on,41,22,0
2,note_on,41,0,960
2,note_on,53,0,0
2,note_on,48,0,0
