Track,Message Type,Note,Velocity,Time
1,note_on,57,59,360
1,note_on,61,70,0
1,note_on,55,59,0
1,note_on,55,0,60
1,note_on,61,0,0
1,note_on,57,0,0
1,note_on,61,76,60
1,note_on,55,64,0
1,note_on,57,64,0
1,note_on,57,0,360
1,note_on,55,0,0
1,note_on,61,0,0
1,note_on,55,59,0
1,note_on,61,70,0
1,note_on,57,59,0
1,note_on,57,0,60
1,note_on,61,0,0
1,note_on,55,0,0
1,note_on,55,63,60
1,note_on,62,75,0
1,note_on,57,63,0
1,note_on,57,0,360
1,note_on,62,0,0
1,note_on,55,0,0
1,note_on,57,59,0
1,note_on,55,59,0
1,note_on,64,70,0
1,note_on,64,0,60
1,note_on,55,0,0
1,note_on,57,0,0
1,note_on,54,68,60
1,note_on,57,68,0
1,note_on,66,80,0
1,note_on,62,68,0
1,note_on,62,0,931
1,note_on,54,0,0
1,note_on,57,0,0
1,note_on,66,0,0
1,note_on,57,68,29
1,note_on,54,68,0
1,note_on,66,80,0
1,note_on,62,68,0
1,note_on,62,0,815
1,note_on,57,0,0
1,note_on,54,0,0
1,note_on,66,0,0
1,note_on,66,67,25
1,note_on,66,0,120
1,note_on,67,75,0
1,note_on,57,66,0
1,note_on,67,0,360
1,note_on,66,70,0
1,note_on,57,0,106
1,note_on,66,0,14
1,note_on,64,74,0
1,note_on,57,66,0
1,note_on,64,0,120
1,note_on,66,66,0
1,note_on,66,0,120
1,note_on,64,66,0
1,note_on,64,0,120
1,note_on,62,70,0
1,note_on,57,0,106
1,note_on,62,0,14
1,note_on,69,80,0
1,note_on,57,68,0
1,note_on,64,68,0
1,note_on,64,0,931
1,note_on,57,0,0
1,note_on,69,0,0
1,note_on,57,68,29
1,note_on,69,80,0
1,note_on,64,68,0
1,note_on,64,0,815
1,note_on,69,0,0
1,note_on,57,0,0
1,note_on,69,67,25
1,note_on,69,0,120
1,note_on,71,75,0
1,note_on,64,66,0
1,note_on,71,0,120
1,note_on,73,66,0
1,note_on,73,0,120
1,note_on,71,68,0
1,note_on,71,0,120
1,note_on,69,70,0
1,note_on,64,0,106
1,note_on,69,0,14
1,note_on,64,66,0
1,note_on,71,74,0
1,note_on,71,0,360
1,note_on,73,70,0
1,note_on,73,0,120
1,note_on,64,0,0
1,note_on,66,68,0
1,note_on,71,68,0
1,note_on,62,68,0
1,note_on,74,80,0
1,note_on,74,0,931
1,note_on,66,0,0
1,note_on,71,0,0
1,note_on,62,0,0
1,note_on,62,68,29
1,note_on,66,68,0
1,note_on,74,80,0
1,note_on,71,68,0
1,note_on,71,0,710
1,note_on,62,0,0
1,note_on,66,0,0
1,note_on,74,0,0
1,note_on,68,63,10
1,note_on,74,75,0
1,note_on,74,0,120
1,note_on,68,0,0
1,note_on,68,68,120
1,note_on,74,80,0
1,note_on,74,0,120
1,note_on,68,0,0
1,note_on,74,79,120
1,note_on,68,67,0
1,note_on,76,79,0
1,note_on,76,0,120
1,note_on,68,0,0
1,note_on,74,0,0
1,note_on,68,70,120
1,note_on,74,70,0
1,note_on,78,83,0
1,note_on,78,0,120
1,note_on,74,0,0
1,note_on,68,0,0
1,note_on,68,73,120
1,note_on,74,73,0
1,note_on,80,86,0
1,note_on,80,0,120
1,note_on,74,0,0
1,note_on,68,0,0
1,note_on,69,76,120
1,note_on,73,76,0
1,note_on,81,90,0
1,note_on,81,0,931
1,note_on,73,0,0
1,note_on,69,0,0
1,note_on,57,73,29
1,note_on,61,73,0
1,note_on,69,87,0
1,note_on,69,0,960
1,note_on,61,0,0
1,note_on,57,0,0
1,note_on,81,61,0
1,note_on,81,0,480
1,note_on,82,58,0
1,note_on,82,0,480
1,note_on,83,62,0
1,note_on,83,0,160
1,note_on,82,57,0
1,note_on,82,0,160
1,note_on,83,57,0
1,note_on,83,0,160
1,note_on,88,63,0
1,note_on,88,0,160
1,note_on,87,61,0
1,note_on,87,0,160
1,note_on,88,65,0
1,note_on,88,0,160
1,note_on,91,70,0
1,note_on,91,0,840
1,note_on,90,61,0
1,note_on,90,0,120
1,note_on,88,69,0
1,note_on,88,0,360
1,note_on,86,62,0
1,note_on,86,0,120
1,note_on,85,70,0
1,note_on,85,0,360
1,note_on,83,62,0
1,note_on,83,0,120
1,note_on,81,69,0
1,note_on,81,0,160
1,note_on,80,60,0
1,note_on,80,0,160
1,note_on,81,55,0
1,note_on,81,0,160
1,note_on,86,68,0
1,note_on,86,0,160
1,note_on,85,65,0
1,note_on,85,0,160
1,note_on,86,69,0
1,note_on,86,0,160
1,note_on,90,72,0
1,note_on,90,0,840
1,note_on,88,61,0
1,note_on,88,0,120
1,note_on,86,69,0
1,note_on,86,0,360
1,note_on,85,62,0
1,note_on,85,0,120
1,note_on,83,70,0
1,note_on,83,0,360
1,note_on,81,62,0
1,note_on,81,0,120
1,note_on,79,67,0
1,note_on,79,0,160
1,note_on,78,58,0
1,note_on,78,0,160
1,note_on,79,58,0
1,note_on,79,0,160
1,note_on,85,63,0
1,note_on,85,0,160
1,note_on,84,61,0
1,note_on,84,0,160
1,note_on,85,65,0
1,note_on,85,0,160
1,note_on,88,70,0
1,note_on,88,0,840
1,note_on,86,59,0
1,note_on,86,0,120
1,note_on,85,68,0
1,note_on,85,0,360
1,note_on,86,57,0
1,note_on,86,0,120
1,note_on,85,67,0
1,note_on,85,0,360
1,note_on,83,58,0
1,note_on,83,0,120
1,note_on,78,53,0
1,note_on,82,63,0
1,note_on,82,0,931
1,note_on,78,0,0
1,note_on,78,47,29
1,note_on,82,56,0
1,note_on,82,0,815
1,note_on,78,0,15
1,note_on,82,46,10
1,note_on,82,0,120
1,note_on,78,46,0
1,note_on,83,52,0
1,note_on,83,0,360
1,note_on,82,49,0
1,note_on,78,0,106
1,note_on,82,0,14
1,note_on,78,46,0
1,note_on,83,51,0
1,note_on,83,0,360
1,note_on,82,49,0
1,note_on,78,0,106
1,note_on,82,0,14
1,note_on,77,47,0
1,note_on,80,56,0
1,note_on,80,0,931
1,note_on,77,0,0
1,note_on,80,56,29
1,note_on,77,47,0
1,note_on,80,0,815
1,note_on,77,0,15
1,note_on,80,46,10
1,note_on,80,0,120
1,note_on,82,52,0
1,note_on,77,46,0
1,note_on,82,0,360
1,note_on,80,49,0
1,note_on,77,0,105
1,note_on,80,0,15
1,note_on,82,51,0
1,note_on,77,46,0
1,note_on,82,0,360
1,note_on,80,49,0
1,note_on,77,0,105
1,note_on,80,0,15
1,note_on,78,56,0
1,note_on,78,0,931
1,note_on,78,56,29
1,note_on,78,0,830
1,note_on,49,59,10
1,note_on,55,59,0
1,note_on,57,70,0
1,note_on,57,0,60
1,note_on,55,0,0
1,note_on,49,0,0
1,note_on,55,64,60
1,note_on,49,64,0
1,note_on,57,76,0
1,note_on,57,0,360
1,note_on,49,0,0
1,note_on,55,0,0
1,note_on,55,59,0
1,note_on,49,59,0
1,note_on,57,70,0
1,note_on,57,0,60
1,note_on,49,0,0
1,note_on,55,0,0
1,note_on,59,75,60
1,note_on,49,63,0
1,note_on,55,63,0
1,note_on,55,0,360
1,note_on,49,0,0
1,note_on,59,0,0
1,note_on,49,59,0
1,note_on,55,59,0
1,note_on,61,70,0
1,note_on,61,0,60
1,note_on,55,0,0
1,note_on,49,0,0
1,note_on,50,68,60
1,note_on,54,68,0
1,note_on,62,80,0
1,note_on,62,0,931
1,note_on,54,0,0
1,note_on,50,0,0
1,note_on,50,68,29
1,note_on,59,68,0
1,note_on,54,68,0
1,note_on,62,80,0
1,note_on,62,0,815
1,note_on,62,67,25
1,note_on,50,0,91
1,note_on,54,0,0
1,note_on,59,0,0
1,note_on,62,0,29
1,note_on,54,66,0
1,note_on,62,75,0
1,note_on,62,0,360
1,note_on,64,70,0
1,note_on,54,0,106
1,note_on,64,0,14
1,note_on,54,66,0
1,note_on,66,74,0
1,note_on,66,0,360
1,note_on,62,70,0
1,note_on,54,0,106
1,note_on,62,0,14
1,note_on,67,68,0
1,note_on,69,80,0
1,note_on,57,68,0
1,note_on,64,68,0
1,note_on,64,0,931
1,note_on,57,0,0
1,note_on,69,0,0
1,note_on,67,0,29
1,note_on,67,68,0
1,note_on,69,80,0
1,note_on,57,68,0
1,note_on,64,68,0
1,note_on,64,0,815
1,note_on,67,0,0
1,note_on,69,0,0
1,note_on,57,0,0
1,note_on,69,67,25
1,note_on,64,53,0
1,note_on,67,53,0
1,note_on,67,0,114
1,note_on,64,0,0
1,note_on,69,0,0
1,note_on,69,75,6
1,note_on,64,60,0
1,note_on,67,60,0
1,note_on,69,0,333
1,note_on,67,0,9
1,note_on,64,0,0
1,note_on,64,56,18
1,note_on,67,56,0
1,note_on,69,70,0
1,note_on,69,0,114
1,note_on,67,0,0
1,note_on,64,0,0
1,note_on,64,59,6
1,note_on,67,59,0
1,note_on,71,74,0
1,note_on,71,0,342
1,note_on,67,0,0
1,note_on,64,0,0
1,note_on,64,56,18
1,note_on,67,56,0
1,note_on,73,70,0
1,note_on,73,0,120
1,note_on,67,0,0
1,note_on,64,0,0
1,note_on,62,68,0
1,note_on,66,68,0
1,note_on,69,68,0
1,note_on,74,80,0
1,note_on,74,0,931
1,note_on,62,0,0
1,note_on,66,0,0
1,note_on,69,0,0
1,note_on,62,68,29
1,note_on,67,68,0
1,note_on,74,80,0
1,note_on,74,0,710
1,note_on,67,0,0
1,note_on,62,0,0
1,note_on,68,63,10
1,note_on,74,75,0
1,note_on,74,0,120
1,note_on,68,0,0
1,note_on,68,68,120
1,note_on,74,80,0
1,note_on,74,0,120
1,note_on,68,0,0
1,note_on,68,67,120
1,note_on,74,79,0
1,note_on,76,79,0
1,note_on,76,0,120
1,note_on,74,0,0
1,note_on,68,0,0
1,note_on,68,70,120
1,note_on,74,70,0
1,note_on,78,83,0
1,note_on,78,0,120
1,note_on,74,0,0
1,note_on,68,0,0
1,note_on,68,73,120
1,note_on,74,73,0
1,note_on,80,86,0
1,note_on,80,0,120
1,note_on,74,0,0
1,note_on,68,0,0
1,note_on,69,76,120
1,note_on,73,76,0
1,note_on,81,90,0
1,note_on,81,0,931
1,note_on,73,0,0
1,note_on,69,0,0
1,note_on,57,73,29
1,note_on,61,73,0
1,note_on,69,87,0
1,note_on,69,0,960
1,note_on,61,0,0
1,note_on,57,0,0
1,note_on,76,61,0
1,note_on,76,0,480
1,note_on,77,58,0
1,note_on,77,0,480
1,note_on,78,62,0
1,note_on,78,0,160
1,note_on,77,57,0
1,note_on,77,0,160
1,note_on,78,57,0
1,note_on,78,0,160
1,note_on,83,63,0
1,note_on,83,0,160
1,note_on,82,61,0
1,note_on,82,0,160
1,note_on,83,65,0
1,note_on,83,0,160
1,note_on,86,70,0
1,note_on,86,0,840
1,note_on,85,61,0
1,note_on,85,0,120
1,note_on,83,69,0
1,note_on,83,0,120
1,note_on,85,63,0
1,note_on,85,0,120
1,note_on,83,63,0
1,note_on,83,0,120
1,note_on,81,62,0
1,note_on,81,0,120
1,note_on,80,70,0
1,note_on,80,0,120
1,note_on,81,65,0
1,note_on,81,0,120
1,note_on,80,66,0
1,note_on,80,0,120
1,note_on,78,62,0
1,note_on,78,0,120
1,note_on,76,69,0
1,note_on,76,0,160
1,note_on,75,60,0
1,note_on,75,0,160
1,note_on,76,55,0
1,note_on,76,0,160
1,note_on,81,68,0
1,note_on,81,0,160
1,note_on,80,65,0
1,note_on,80,0,160
1,note_on,81,69,0
1,note_on,81,0,160
1,note_on,85,72,0
1,note_on,85,0,840
1,note_on,83,61,0
1,note_on,83,0,120
1,note_on,81,69,0
1,note_on,81,0,120
1,note_on,83,63,0
1,note_on,83,0,120
1,note_on,81,63,0
1,note_on,81,0,120
1,note_on,80,62,0
1,note_on,80,0,120
1,note_on,78,70,0
1,note_on,78,0,120
1,note_on,80,65,0
1,note_on,80,0,120
1,note_on,78,65,0
1,note_on,78,0,120
1,note_on,76,62,0
1,note_on,76,0,120
1,note_on,74,67,0
1,note_on,74,0,160
1,note_on,73,58,0
1,note_on,73,0,160
1,note_on,74,58,0
1,note_on,74,0,160
1,note_on,80,63,0
1,note_on,80,0,160
1,note_on,79,61,0
1,note_on,79,0,160
1,note_on,80,65,0
1,note_on,80,0,160
1,note_on,83,70,0
1,note_on,83,0,840
1,note_on,81,59,0
1,note_on,81,0,120
1,note_on,80,68,0
1,note_on,80,0,360
1,note_on,81,57,0
1,note_on,81,0,120
1,note_on,80,67,0
1,note_on,80,0,360
1,note_on,78,58,0
1,note_on,78,0,120
1,note_on,77,63,0
1,note_on,73,53,0
1,note_on,73,0,931
1,note_on,77,0,0
1,note_on,73,47,29
1,note_on,77,56,0
1,note_on,77,0,815
1,note_on,77,46,25
1,note_on,73,0,110
1,note_on,77,0,10
1,note_on,73,46,0
1,note_on,78,52,0
1,note_on,78,0,360
1,note_on,77,49,0
1,note_on,73,0,106
1,note_on,77,0,14
1,note_on,78,51,0
1,note_on,73,46,0
1,note_on,78,0,360
1,note_on,77,49,0
1,note_on,73,0,106
1,note_on,77,0,14
1,note_on,80,61,0
1,note_on,74,51,0
1,note_on,76,51,0
1,note_on,76,0,931
1,note_on,74,0,0
1,note_on,80,0,0
1,note_on,74,51,29
1,note_on,80,61,0
1,note_on,76,51,0
1,note_on,76,0,830
1,note_on,80,0,0
1,note_on,74,0,0
1,note_on,76,50,10
1,note_on,76,0,120
1,note_on,78,57,0
1,note_on,74,50,0
1,note_on,78,0,360
1,note_on,76,53,0
1,note_on,74,0,105
1,note_on,76,0,15
1,note_on,74,50,0
1,note_on,78,56,0
1,note_on,78,0,360
1,note_on,80,53,0
1,note_on,74,0,105
1,note_on,80,0,15
1,note_on,69,51,0
1,note_on,81,61,0
1,note_on,73,51,0
1,note_on,73,0,931
1,note_on,81,0,0
1,note_on,69,0,0
1,note_on,73,51,29
1,note_on,69,51,0
1,note_on,81,61,0
1,note_on,81,0,830
1,note_on,69,0,0
1,note_on,73,0,0
1,note_on,57,70,10
1,note_on,57,0,60
1,note_on,57,76,60
1,note_on,57,0,120
1,note_on,57,70,240
1,note_on,57,0,60
1,note_on,55,75,60
1,note_on,55,0,120
1,note_on,57,70,240
1,note_on,57,0,60
1,note_on,55,68,60
1,note_on,61,80,0
1,note_on,58,68,0
1,note_on,52,68,0
1,note_on,52,0,931
1,note_on,55,0,0
1,note_on,61,0,0
1,note_on,58,0,29
1,note_on,52,68,0
1,note_on,55,68,0
1,note_on,61,80,0
1,note_on,58,68,0
1,note_on,58,0,815
1,note_on,52,0,0
1,note_on,55,0,0
1,note_on,61,0,0
1,note_on,69,70,25
1,note_on,69,0,60
1,note_on,69,76,60
1,note_on,69,0,120
1,note_on,69,70,240
1,note_on,69,0,60
1,note_on,67,75,60
1,note_on,67,0,120
1,note_on,69,70,240
1,note_on,69,0,60
1,note_on,70,68,60
1,note_on,62,68,0
1,note_on,74,80,0
1,note_on,65,68,0
1,note_on,65,0,931
1,note_on,74,0,0
1,note_on,62,0,0
1,note_on,70,0,29
1,note_on,70,68,0
1,note_on,62,68,0
1,note_on,74,80,0
1,note_on,65,68,0
1,note_on,65,0,815
1,note_on,70,0,0
1,note_on,62,0,0
1,note_on,74,0,0
1,note_on,74,59,25
1,note_on,77,70,0
1,note_on,77,0,60
1,note_on,74,0,0
1,note_on,77,76,60
1,note_on,74,64,0
1,note_on,74,0,120
1,note_on,77,0,0
1,note_on,74,59,240
1,note_on,77,70,0
1,note_on,77,0,60
1,note_on,74,0,0
1,note_on,73,63,60
1,note_on,76,75,0
1,note_on,76,0,120
1,note_on,73,0,0
1,note_on,77,70,240
1,note_on,74,59,0
1,note_on,74,0,60
1,note_on,77,0,0
1,note_on,70,64,60
1,note_on,74,76,0
1,note_on,74,0,120
1,note_on,70,0,0
1,note_on,74,70,240
1,note_on,70,59,0
1,note_on,70,0,60
1,note_on,74,0,0
1,note_on,69,63,60
1,note_on,73,75,0
1,note_on,73,0,120
1,note_on,69,0,0
1,note_on,74,70,240
1,note_on,70,59,0
1,note_on,70,0,60
1,note_on,74,0,0
1,note_on,70,76,60
1,note_on,67,64,0
1,note_on,67,0,120
1,note_on,70,0,0
1,note_on,67,59,240
1,note_on,70,70,0
1,note_on,70,0,60
1,note_on,67,0,0
1,note_on,69,75,60
1,note_on,66,63,0
1,note_on,66,0,120
1,note_on,69,0,0
1,note_on,67,59,240
1,note_on,70,70,0
1,note_on,70,0,60
1,note_on,67,0,0
1,note_on,63,68,60
1,note_on,67,80,0
1,note_on,67,0,931
1,note_on,63,0,29
1,note_on,75,74,0
1,note_on,67,74,0
1,note_on,79,88,0
1,note_on,71,74,0
1,note_on,71,0,950
1,note_on,75,0,0
1,note_on,67,0,0
1,note_on,79,0,0
1,note_on,75,74,10
1,note_on,67,74,0
1,note_on,79,88,0
1,note_on,72,74,0
1,note_on,72,0,950
1,note_on,75,0,0
1,note_on,67,0,0
1,note_on,79,0,0
1,note_on,65,74,10
1,note_on,77,88,0
1,note_on,74,74,0
1,note_on,74,0,120
1,note_on,77,0,0
1,note_on,65,0,0
1,note_on,69,74,360
1,note_on,72,74,0
1,note_on,81,88,0
1,note_on,75,74,0
1,note_on,75,0,120
1,note_on,69,0,0
1,note_on,72,0,0
1,note_on,81,0,0
1,note_on,74,85,360
1,note_on,70,85,0
1,note_on,82,101,0
1,note_on,82,0,950
1,note_on,70,0,0
1,note_on,74,0,0
1,note_on,58,74,10
1,note_on,62,74,0
1,note_on,70,88,0
1,note_on,70,0,815
1,note_on,62,0,0
1,note_on,58,0,0
1,note_on,74,47,25
1,note_on,77,56,0
1,note_on,77,0,60
1,note_on,74,0,0
1,note_on,74,51,60
1,note_on,77,60,0
1,note_on,77,0,120
1,note_on,74,0,0
1,note_on,74,47,240
1,note_on,77,56,0
1,note_on,77,0,60
1,note_on,74,0,0
1,note_on,73,50,60
1,note_on,76,60,0
1,note_on,76,0,120
1,note_on,73,0,0
1,note_on,74,47,240
1,note_on,77,56,0
1,note_on,77,0,60
1,note_on,74,0,0
1,note_on,70,51,60
1,note_on,74,60,0
1,note_on,74,0,960
1,note_on,70,0,0
1,note_on,70,51,0
1,note_on,74,60,0
1,note_on,74,0,815
1,note_on,70,0,0
1,note_on,70,47,25
1,note_on,74,56,0
1,note_on,74,0,60
1,note_on,70,0,0
1,note_on,70,51,60
1,note_on,74,60,0
1,note_on,74,0,120
1,note_on,70,0,0
1,note_on,70,47,240
1,note_on,74,56,0
1,note_on,74,0,60
1,note_on,70,0,0
1,note_on,69,50,60
1,note_on,73,60,0
1,note_on,73,0,120
1,note_on,69,0,0
1,note_on,70,47,240
1,note_on,74,56,0
1,note_on,74,0,60
1,note_on,70,0,0
1,note_on,74,51,60
1,note_on,77,60,0
1,note_on,77,0,960
1,note_on,74,0,0
1,note_on,72,51,0
1,note_on,75,60,0
1,note_on,75,0,815
1,note_on,72,0,0
1,note_on,77,47,25
1,note_on,72,47,0
1,note_on,75,56,0
1,note_on,75,0,60
1,note_on,72,0,0
1,note_on,77,0,0
1,note_on,77,51,60
1,note_on,72,51,0
1,note_on,75,60,0
1,note_on,75,0,120
1,note_on,72,0,0
1,note_on,77,0,0
1,note_on,77,47,240
1,note_on,72,47,0
1,note_on,75,56,0
1,note_on,75,0,60
1,note_on,72,0,0
1,note_on,77,0,0
1,note_on,77,50,60
1,note_on,71,50,0
1,note_on,74,60,0
1,note_on,74,0,120
1,note_on,71,0,0
1,note_on,77,0,0
1,note_on,77,56,240
1,note_on,72,47,0
1,note_on,75,56,0
1,note_on,75,0,60
1,note_on,72,0,0
1,note_on,77,0,0
1,note_on,69,51,60
1,note_on,72,51,0
1,note_on,77,60,0
1,note_on,77,0,951
1,note_on,72,0,0
1,note_on,69,0,0
1,note_on,69,51,9
1,note_on,72,51,0
1,note_on,77,60,0
1,note_on,77,0,815
1,note_on,72,0,0
1,note_on,69,0,0
1,note_on,77,47,25
1,note_on,69,47,0
1,note_on,72,56,0
1,note_on,72,0,60
1,note_on,69,0,0
1,note_on,77,0,0
1,note_on,77,51,60
1,note_on,69,51,0
1,note_on,72,60,0
1,note_on,72,0,120
1,note_on,69,0,0
1,note_on,77,0,0
1,note_on,69,47,240
1,note_on,72,56,0
1,note_on,77,47,0
1,note_on,77,0,60
1,note_on,72,0,0
1,note_on,69,0,0
1,note_on,68,50,60
1,note_on,71,60,0
1,note_on,77,50,0
1,note_on,77,0,120
1,note_on,71,0,0
1,note_on,68,0,0
1,note_on,69,47,240
1,note_on,72,56,0
1,note_on,77,56,0
1,note_on,77,0,60
1,note_on,72,0,0
1,note_on,69,0,0
1,note_on,73,45,60
1,note_on,77,54,0
1,note_on,69,45,0
1,note_on,73,0,950
1,note_on,69,0,1
1,note_on,77,0,0
1,note_on,70,45,9
1,note_on,77,54,0
1,note_on,74,45,0
1,note_on,74,0,815
1,note_on,77,0,0
1,note_on,70,0,0
1,note_on,70,47,25
1,note_on,77,56,0
1,note_on,74,47,0
1,note_on,74,0,60
1,note_on,77,0,0
1,note_on,70,0,0
1,note_on,70,51,60
1,note_on,74,51,0
1,note_on,77,60,0
1,note_on,77,0,120
1,note_on,74,0,0
1,note_on,70,0,0
1,note_on,70,48,240
1,note_on,74,48,0
1,note_on,77,57,0
1,note_on,77,0,60
1,note_on,74,0,0
1,note_on,70,0,0
1,note_on,74,52,60
1,note_on,76,63,0
1,note_on,70,52,0
1,note_on,70,0,120
1,note_on,76,0,0
1,note_on,74,0,0
1,note_on,74,50,240
1,note_on,77,60,0
1,note_on,70,50,0
1,note_on,70,0,60
1,note_on,77,0,0
1,note_on,74,0,0
1,note_on,70,56,60
1,note_on,79,66,0
1,note_on,74,56,0
1,note_on,74,0,951
1,note_on,79,0,0
1,note_on,70,0,0
1,note_on,74,56,9
1,note_on,70,56,0
1,note_on,79,66,0
1,note_on,79,0,815
1,note_on,70,0,0
1,note_on,74,0,0
1,note_on,74,51,25
1,note_on,70,51,0
1,note_on,79,61,0
1,note_on,79,0,60
1,note_on,70,0,0
1,note_on,74,0,0
1,note_on,70,56,60
1,note_on,79,66,0
1,note_on,74,56,0
1,note_on,74,0,120
1,note_on,79,0,0
1,note_on,70,0,0
1,note_on,70,50,240
1,note_on,82,60,0
1,note_on,74,50,0
1,note_on,74,0,60
1,note_on,82,0,0
1,note_on,70,0,0
1,note_on,70,54,60
1,note_on,81,64,0
1,note_on,74,54,0
1,note_on,74,0,120
1,note_on,81,0,0
1,note_on,70,0,0
1,note_on,74,49,240
1,note_on,79,59,0
1,note_on,70,49,0
1,note_on,70,0,60
1,note_on,79,0,0
1,note_on,74,0,0
1,note_on,70,51,60
1,note_on,77,60,0
1,note_on,74,51,0
1,note_on,74,0,951
1,note_on,77,0,0
1,note_on,70,0,0
1,note_on,70,60,9
1,note_on,74,51,0
1,note_on,77,60,0
1,note_on,77,0,815
1,note_on,74,0,0
1,note_on,70,0,0
1,note_on,77,47,25
1,note_on,70,47,0
1,note_on,74,56,0
1,note_on,74,0,60
1,note_on,70,0,0
1,note_on,77,0,0
1,note_on,77,51,60
1,note_on,70,51,0
1,note_on,74,60,0
1,note_on,74,0,120
1,note_on,70,0,0
1,note_on,77,0,0
1,note_on,70,47,240
1,note_on,74,56,0
1,note_on,77,47,0
1,note_on,77,0,60
1,note_on,74,0,0
1,note_on,70,0,0
1,note_on,70,50,60
1,note_on,75,60,0
1,note_on,79,50,0
1,note_on,79,0,120
1,note_on,75,0,0
1,note_on,70,0,0
1,note_on,74,56,240
1,note_on,77,56,0
1,note_on,70,47,0
1,note_on,70,0,60
1,note_on,77,0,0
1,note_on,74,0,0
1,note_on,69,51,60
1,note_on,77,60,0
1,note_on,72,51,0
1,note_on,72,0,960
1,note_on,77,0,0
1,note_on,69,0,0
1,note_on,69,48,0
1,note_on,75,57,0
1,note_on,72,48,0
1,note_on,72,0,815
1,note_on,75,0,0
1,note_on,69,0,0
1,note_on,65,44,25
1,note_on,75,44,0
1,note_on,72,53,0
1,note_on,72,0,60
1,note_on,75,0,0
1,note_on,65,0,0
1,note_on,75,48,60
1,note_on,65,48,0
1,note_on,72,57,0
1,note_on,72,0,120
1,note_on,65,0,0
1,note_on,75,0,0
1,note_on,72,53,240
1,note_on,65,44,0
1,note_on,75,44,0
1,note_on,75,0,60
1,note_on,65,0,0
1,note_on,72,0,0
1,note_on,74,47,60
1,note_on,71,57,0
1,note_on,65,47,0
1,note_on,65,0,120
1,note_on,71,0,0
1,note_on,74,0,0
1,note_on,72,53,240
1,note_on,69,53,0
1,note_on,65,44,0
1,note_on,65,0,60
1,note_on,69,0,0
1,note_on,72,0,0
1,note_on,65,40,60
1,note_on,62,40,0
1,note_on,70,48,0
1,note_on,70,0,960
1,note_on,62,0,0
1,note_on,65,0,0
1,note_on,62,40,0
1,note_on,65,40,0
1,note_on,70,48,0
1,note_on,70,0,815
1,note_on,65,0,0
1,note_on,62,0,0
1,note_on,65,39,25
1,note_on,72,47,0
1,note_on,75,39,0
1,note_on,75,0,60
1,note_on,72,0,0
1,note_on,65,0,0
1,note_on,65,43,60
1,note_on,72,51,0
1,note_on,75,43,0
1,note_on,75,0,120
1,note_on,72,0,0
1,note_on,65,0,0
1,note_on,72,47,240
1,note_on,75,39,0
1,note_on,65,39,0
1,note_on,65,0,60
1,note_on,75,0,0
1,note_on,72,0,0
1,note_on,74,42,60
1,note_on,70,51,0
1,note_on,65,42,0
1,note_on,65,0,120
1,note_on,70,0,0
1,note_on,74,0,0
1,note_on,72,47,240
1,note_on,69,47,0
1,note_on,65,39,0
1,note_on,65,0,60
1,note_on,69,0,0
1,note_on,72,0,0
1,note_on,65,38,60
1,note_on,70,45,0
1,note_on,62,38,0
1,note_on,62,0,960
1,note_on,70,0,0
1,note_on,65,0,0
1,note_on,70,45,0
1,note_on,65,38,0
1,note_on,62,38,0
1,note_on,62,0,815
1,note_on,65,0,0
1,note_on,70,0,0
1,note_on,75,35,25
1,note_on,65,35,0
1,note_on,72,42,0
1,note_on,72,0,60
1,note_on,65,0,0
1,note_on,75,0,0
1,note_on,75,38,60
1,note_on,65,38,0
1,note_on,72,45,0
1,note_on,72,0,120
1,note_on,65,0,0
1,note_on,75,0,0
1,note_on,75,34,240
1,note_on,65,34,0
1,note_on,72,41,0
1,note_on,72,0,60
1,note_on,65,0,0
1,note_on,75,0,0
1,note_on,74,36,60
1,note_on,65,36,0
1,note_on,70,44,0
1,note_on,70,0,120
1,note_on,65,0,0
1,note_on,74,0,0
1,note_on,72,39,240
1,note_on,65,33,0
1,note_on,69,39,0
1,note_on,69,0,60
1,note_on,65,0,0
1,note_on,72,0,0
1,note_on,62,31,60
1,note_on,65,31,0
1,note_on,70,37,0
1,note_on,70,0,350
1,note_on,65,0,0
1,note_on,62,0,0
1,note_on,46,70,10
1,note_on,46,0,60
1,note_on,46,76,60
1,note_on,46,0,120
1,note_on,46,70,240
1,note_on,46,0,60
1,note_on,46,75,60
1,note_on,46,0,120
1,note_on,48,70,240
1,note_on,48,0,60
1,note_on,50,75,60
1,note_on,50,0,350
1,note_on,50,59,10
1,note_on,62,70,0
1,note_on,62,0,60
1,note_on,50,0,0
1,note_on,50,64,60
1,note_on,62,76,0
1,note_on,62,0,120
1,note_on,50,0,0
1,note_on,50,59,240
1,note_on,62,70,0
1,note_on,62,0,60
1,note_on,50,0,0
1,note_on,50,63,60
1,note_on,62,75,0
1,note_on,62,0,120
1,note_on,50,0,0
1,note_on,52,59,240
1,note_on,64,70,0
1,note_on,64,0,60
1,note_on,52,0,0
1,note_on,53,69,60
1,note_on,65,82,0
1,note_on,65,0,350
1,note_on,53,0,10
1,note_on,53,77,0
1,note_on,53,0,60
1,note_on,53,83,60
1,note_on,53,0,120
1,note_on,53,77,240
1,note_on,53,0,60
1,note_on,53,82,60
1,note_on,53,0,120
1,note_on,55,77,240
1,note_on,55,0,60
1,note_on,57,90,60
1,note_on,57,0,350
1,note_on,57,60,10
1,note_on,69,71,0
1,note_on,69,0,60
1,note_on,57,0,0
1,note_on,57,65,60
1,note_on,69,78,0
1,note_on,69,0,120
1,note_on,57,0,0
1,note_on,59,61,240
1,note_on,71,73,0
1,note_on,71,0,60
1,note_on,59,0,0
1,note_on,61,66,60
1,note_on,73,79,0
1,note_on,73,0,120
1,note_on,61,0,0
1,note_on,62,64,240
1,note_on,74,76,0
1,note_on,74,0,60
1,note_on,62,0,0
1,note_on,73,70,60
1,note_on,64,70,0
1,note_on,69,70,0
1,note_on,76,83,0
1,note_on,76,0,931
1,note_on,69,0,0
1,note_on,64,0,0
1,note_on,73,0,29
1,note_on,76,83,0
1,note_on,73,70,0
1,note_on,64,70,0
1,note_on,69,70,0
1,note_on,69,0,815
1,note_on,76,0,0
1,note_on,73,0,0
1,note_on,64,0,0
1,note_on,74,58,25
1,note_on,68,58,0
1,note_on,76,73,0
1,note_on,76,0,114
1,note_on,68,0,0
1,note_on,74,0,0
1,note_on,76,82,6
1,note_on,68,66,0
1,note_on,74,66,0
1,note_on,76,0,333
1,note_on,74,0,9
1,note_on,68,0,0
1,note_on,76,80,18
1,note_on,68,63,0
1,note_on,74,63,0
1,note_on,74,0,114
1,note_on,68,0,0
1,note_on,76,0,0
1,note_on,78,85,6
1,note_on,68,67,0
1,note_on,74,67,0
1,note_on,74,0,342
1,note_on,68,0,0
1,note_on,78,0,0
1,note_on,68,65,18
1,note_on,74,65,0
1,note_on,80,83,0
1,note_on,80,0,120
1,note_on,74,0,0
1,note_on,68,0,0
1,note_on,69,78,0
1,note_on,73,78,0
1,note_on,81,93,0
1,note_on,81,0,931
1,note_on,73,0,0
1,note_on,69,0,0
1,note_on,73,78,29
1,note_on,69,78,0
1,note_on,81,93,0
1,note_on,81,0,820
1,note_on,69,0,0
1,note_on,73,0,0
1,note_on,57,47,20
1,note_on,55,47,0
1,note_on,61,56,0
1,note_on,61,0,60
1,note_on,55,0,0
1,note_on,57,0,0
1,note_on,62,60,60
1,note_on,55,51,0
1,note_on,57,51,0
1,note_on,57,0,120
1,note_on,55,0,0
1,note_on,62,0,0
1,note_on,55,47,240
1,note_on,57,47,0
1,note_on,61,56,0
1,note_on,61,0,60
1,note_on,57,0,0
1,note_on,55,0,0
1,note_on,55,50,60
1,note_on,57,50,0
1,note_on,62,60,0
1,note_on,62,0,120
1,note_on,57,0,0
1,note_on,55,0,0
1,note_on,57,47,240
1,note_on,55,47,0
1,note_on,64,56,0
1,note_on,64,0,60
1,note_on,55,0,0
1,note_on,57,0,0
1,note_on,57,64,60
1,note_on,54,54,0
1,note_on,54,0,931
1,note_on,57,0,0
1,note_on,57,54,29
1,note_on,66,64,0
1,note_on,66,0,815
1,note_on,57,0,0
1,note_on,66,53,25
1,note_on,57,53,0
1,note_on,57,0,120
1,note_on,66,0,0
1,note_on,55,60,0
1,note_on,67,60,0
1,note_on,67,0,120
1,note_on,55,0,0
1,note_on,55,56,240
1,note_on,66,56,0
1,note_on,66,0,120
1,note_on,55,0,0
1,note_on,64,59,0
1,note_on,56,59,0
1,note_on,56,0,120
1,note_on,64,0,0
1,note_on,56,56,240
1,note_on,62,56,0
1,note_on,62,0,120
1,note_on,56,0,0
1,note_on,61,54,0
1,note_on,57,54,0
1,note_on,69,64,0
1,note_on,69,0,931
1,note_on,57,0,0
1,note_on,61,0,0
1,note_on,61,54,29
1,note_on,64,64,0
1,note_on,64,0,815
1,note_on,61,0,0
1,note_on,69,53,25
1,note_on,64,53,0
1,note_on,69,0,60
1,note_on,73,53,0
1,note_on,73,0,60
1,note_on,64,0,0
1,note_on,64,60,0
1,note_on,71,60,0
1,note_on,71,0,120
1,note_on,64,0,0
1,note_on,64,56,240
1,note_on,69,56,0
1,note_on,69,0,120
1,note_on,64,0,0
1,note_on,64,59,0
1,note_on,71,59,0
1,note_on,71,0,120
1,note_on,64,0,0
1,note_on,64,56,240
1,note_on,73,56,0
1,note_on,73,0,120
1,note_on,64,0,0
1,note_on,62,54,0
1,note_on,66,54,0
1,note_on,74,64,0
1,note_on,74,0,931
1,note_on,66,0,0
1,note_on,62,0,0
1,note_on,66,64,29
1,note_on,62,54,0
1,note_on,62,0,815
1,note_on,66,0,0
1,note_on,62,53,25
1,note_on,66,53,0
1,note_on,66,0,60
1,note_on,69,53,0
1,note_on,69,0,60
1,note_on,62,0,0
1,note_on,62,60,0
1,note_on,68,60,0
1,note_on,68,0,120
1,note_on,62,0,0
1,note_on,62,56,240
1,note_on,66,56,0
1,note_on,66,0,120
1,note_on,62,0,0
1,note_on,62,59,0
1,note_on,68,59,0
1,note_on,68,0,120
1,note_on,62,0,0
1,note_on,62,56,240
1,note_on,64,56,0
1,note_on,64,0,120
1,note_on,62,0,0
1,note_on,61,54,0
1,note_on,71,64,0
1,note_on,71,0,931
1,note_on,61,0,0
1,note_on,69,64,29
1,note_on,61,54,0
1,note_on,61,0,950
1,note_on,69,0,0
1,note_on,62,56,10
1,note_on,66,56,0
1,note_on,69,67,0
1,note_on,69,0,466
1,note_on,66,0,0
1,note_on,62,0,0
1,note_on,62,53,14
1,note_on,66,53,0
1,note_on,70,63,0
1,note_on,70,0,466
1,note_on,66,0,0
1,note_on,62,0,0
1,note_on,62,51,14
1,note_on,67,51,0
1,note_on,71,60,0
1,note_on,71,0,960
1,note_on,67,0,0
1,note_on,62,0,0
1,note_on,67,56,0
1,note_on,71,56,0
1,note_on,76,67,0
1,note_on,76,0,466
1,note_on,71,0,0
1,note_on,67,0,0
1,note_on,71,62,14
1,note_on,76,62,0
1,note_on,79,74,0
1,note_on,79,0,240
1,note_on,76,0,0
1,note_on,71,0,0
1,note_on,67,53,240
1,note_on,71,53,0
1,note_on,76,63,0
1,note_on,71,0,240
1,note_on,67,0,0
1,note_on,76,0,10
1,note_on,61,49,230
1,note_on,64,49,0
1,note_on,67,58,0
1,note_on,67,0,240
1,note_on,64,0,0
1,note_on,61,0,0
1,note_on,61,55,240
1,note_on,66,55,0
1,note_on,69,65,0
1,note_on,69,0,960
1,note_on,66,0,0
1,note_on,61,0,0
1,note_on,66,59,0
1,note_on,69,59,0
1,note_on,74,70,0
1,note_on,74,0,466
1,note_on,69,0,0
1,note_on,66,0,0
1,note_on,69,59,14
1,note_on,74,59,0
1,note_on,78,71,0
1,note_on,78,0,240
1,note_on,74,0,0
1,note_on,69,0,0
1,note_on,66,51,240
1,note_on,69,51,0
1,note_on,74,60,0
1,note_on,74,0,240
1,note_on,69,0,0
1,note_on,66,0,0
1,note_on,59,47,240
1,note_on,62,47,0
1,note_on,66,56,0
1,note_on,66,0,240
1,note_on,62,0,0
1,note_on,59,0,0
1,note_on,64,56,240
1,note_on,67,67,0
1,note_on,59,56,0
1,note_on,59,0,960
1,note_on,67,0,0
1,note_on,64,0,0
1,note_on,67,57,0
1,note_on,73,68,0
1,note_on,64,57,0
1,note_on,64,0,466
1,note_on,73,0,0
1,note_on,67,0,0
1,note_on,76,70,14
1,note_on,67,59,0
1,note_on,73,70,0
1,note_on,73,0,240
1,note_on,67,0,0
1,note_on,76,0,0
1,note_on,64,55,240
1,note_on,73,65,0
1,note_on,67,55,0
1,note_on,67,0,240
1,note_on,73,0,0
1,note_on,64,0,0
1,note_on,61,50,240
1,note_on,71,59,0
1,note_on,68,59,0
1,note_on,68,0,240
1,note_on,71,0,0
1,note_on,61,0,0
1,note_on,61,55,240
1,note_on,66,55,0
1,note_on,70,65,0
1,note_on,70,0,931
1,note_on,61,0,0
1,note_on,66,0,29
1,note_on,66,51,0
1,note_on,61,51,0
1,note_on,70,60,0
1,note_on,70,0,815
1,note_on,61,0,0
1,note_on,66,0,0
1,note_on,73,71,25
1,note_on,66,60,0
1,note_on,66,0,60
1,note_on,73,0,0
1,note_on,75,78,60
1,note_on,66,65,0
1,note_on,66,0,120
1,note_on,75,0,0
1,note_on,73,73,240
1,note_on,66,61,0
1,note_on,66,0,60
1,note_on,73,0,0
1,note_on,66,66,60
1,note_on,75,79,0
1,note_on,75,0,120
1,note_on,66,0,0
1,note_on,73,76,240
1,note_on,66,64,0
1,note_on,66,0,60
1,note_on,73,0,0
1,note_on,71,70,60
1,note_on,77,83,0
1,note_on,65,70,0
1,note_on,65,0,931
1,note_on,77,0,0
1,note_on,71,0,29
1,note_on,77,83,0
1,note_on,65,70,0
1,note_on,71,70,0
1,note_on,71,0,815
1,note_on,65,0,0
1,note_on,77,0,0
1,note_on,73,58,25
1,note_on,65,58,0
1,note_on,77,73,0
1,note_on,77,0,114
1,note_on,65,0,0
1,note_on,73,0,0
1,note_on,65,66,6
1,note_on,73,66,0
1,note_on,77,82,0
1,note_on,77,0,332
1,note_on,73,0,10
1,note_on,65,0,0
1,note_on,73,63,18
1,note_on,77,80,0
1,note_on,65,63,0
1,note_on,65,0,114
1,note_on,77,0,0
1,note_on,73,0,0
1,note_on,73,67,6
1,note_on,77,85,0
1,note_on,65,67,0
1,note_on,65,0,342
1,note_on,77,0,0
1,note_on,73,0,0
1,note_on,77,83,18
1,note_on,65,65,0
1,note_on,73,65,0
1,note_on,73,0,120
1,note_on,65,0,0
1,note_on,77,0,0
1,note_on,70,78,0
1,note_on,78,93,0
1,note_on,66,78,0
1,note_on,66,0,931
1,note_on,78,0,0
1,note_on,70,0,0
1,note_on,70,78,29
1,note_on,78,93,0
1,note_on,66,78,0
1,note_on,66,0,820
1,note_on,78,0,0
1,note_on,70,0,0
1,note_on,73,56,20
1,note_on,67,47,0
1,note_on,69,47,0
1,note_on,69,0,60
1,note_on,67,0,0
1,note_on,73,0,0
1,note_on,73,60,60
1,note_on,69,51,0
1,note_on,67,51,0
1,note_on,67,0,349
1,note_on,69,0,0
1,note_on,73,0,0
1,note_on,67,47,11
1,note_on,69,47,0
1,note_on,73,56,0
1,note_on,73,0,60
1,note_on,69,0,0
1,note_on,67,0,0
1,note_on,67,50,46
1,note_on,74,60,0
1,note_on,69,50,0
1,note_on,69,0,349
1,note_on,74,0,0
1,note_on,67,0,0
1,note_on,69,47,25
1,note_on,67,47,0
1,note_on,76,56,0
1,note_on,76,0,60
1,note_on,67,0,0
1,note_on,69,0,0
1,note_on,69,64,60
1,note_on,66,54,0
1,note_on,66,0,931
1,note_on,69,0,0
1,note_on,78,64,29
1,note_on,66,54,0
1,note_on,69,54,0
1,note_on,69,0,815
1,note_on,66,0,0
1,note_on,78,0,0
1,note_on,66,53,25
1,note_on,78,53,0
1,note_on,78,0,116
1,note_on,66,0,1
1,note_on,78,60,3
1,note_on,66,60,0
1,note_on,66,0,120
1,note_on,78,0,0
1,note_on,78,56,226
1,note_on,66,56,0
1,note_on,66,0,116
1,note_on,78,0,0
1,note_on,76,59,18
1,note_on,68,59,0
1,note_on,68,0,120
1,note_on,76,0,0
1,note_on,68,56,240
1,note_on,74,56,0
1,note_on,74,0,120
1,note_on,68,0,0
1,note_on,69,54,0
1,note_on,73,64,0
1,note_on,73,0,931
1,note_on,69,0,0
1,note_on,76,64,29
1,note_on,69,54,0
1,note_on,69,0,815
1,note_on,76,0,0
1,note_on,76,53,25
1,note_on,70,53,0
1,note_on,70,0,117
1,note_on,76,0,0
1,note_on,70,60,3
1,note_on,76,60,0
1,note_on,76,0,120
1,note_on,70,0,0
1,note_on,70,56,226
1,note_on,76,56,0
1,note_on,76,0,116
1,note_on,70,0,0
1,note_on,74,59,18
1,note_on,70,59,0
1,note_on,70,0,120
1,note_on,74,0,0
1,note_on,70,56,240
1,note_on,73,56,0
1,note_on,73,0,120
1,note_on,70,0,0
1,note_on,71,64,0
1,note_on,71,0,931
1,note_on,74,64,29
1,note_on,67,54,0
1,note_on,67,0,815
1,note_on,74,0,0
1,note_on,67,53,25
1,note_on,71,53,0
1,note_on,61,53,0
1,note_on,61,0,120
1,note_on,71,0,0
1,note_on,67,0,0
1,note_on,71,60,0
1,note_on,61,60,0
1,note_on,67,60,0
1,note_on,67,0,120
1,note_on,61,0,0
1,note_on,71,0,0
1,note_on,71,56,240
1,note_on,61,56,0
1,note_on,67,56,0
1,note_on,67,0,120
1,note_on,61,0,0
1,note_on,71,0,0
1,note_on,61,59,0
1,note_on,66,59,0
1,note_on,69,59,0
1,note_on,69,0,120
1,note_on,66,0,0
1,note_on,61,0,0
1,note_on,61,56,240
1,note_on,67,56,0
1,note_on,64,56,0
1,note_on,64,0,120
1,note_on,67,0,0
1,note_on,61,0,0
1,note_on,57,54,0
1,note_on,67,64,0
1,note_on,64,54,0
1,note_on,67,0,931
1,note_on,57,0,0
1,note_on,64,0,29
1,note_on,57,54,0
1,note_on,62,54,0
1,note_on,66,64,0
1,note_on,66,0,950
1,note_on,62,0,0
1,note_on,57,0,0
1,note_on,62,56,10
1,note_on,69,67,0
1,note_on,66,56,0
1,note_on,66,0,456
1,note_on,69,0,0
1,note_on,62,0,0
1,note_on,62,53,24
1,note_on,66,53,0
1,note_on,70,63,0
1,note_on,70,0,480
1,note_on,66,0,0
1,note_on,62,0,0
1,note_on,62,51,0
1,note_on,67,51,0
1,note_on,71,60,0
1,note_on,71,0,960
1,note_on,67,0,0
1,note_on,62,0,0
1,note_on,71,56,0
1,note_on,76,67,0
1,note_on,67,56,0
1,note_on,67,0,466
1,note_on,76,0,0
1,note_on,71,0,0
1,note_on,76,58,14
1,note_on,79,70,0
1,note_on,71,58,0
1,note_on,71,0,240
1,note_on,79,0,0
1,note_on,76,0,0
1,note_on,71,53,240
1,note_on,76,63,0
1,note_on,67,53,0
1,note_on,67,0,240
1,note_on,71,0,0
1,note_on,76,0,10
1,note_on,64,49,230
1,note_on,67,58,0
1,note_on,67,0,240
1,note_on,64,0,0
1,note_on,64,55,240
1,note_on,69,55,0
1,note_on,73,65,0
1,note_on,73,0,960
1,note_on,69,0,0
1,note_on,64,0,0
1,note_on,73,59,0
1,note_on,78,70,0
1,note_on,69,59,0
1,note_on,69,0,466
1,note_on,78,0,0
1,note_on,73,0,0
1,note_on,73,59,14
1,note_on,81,71,0
1,note_on,78,59,0
1,note_on,78,0,240
1,note_on,81,0,0
1,note_on,73,0,0
1,note_on,69,51,240
1,note_on,78,60,0
1,note_on,73,51,0
1,note_on,73,0,240
1,note_on,78,0,0
1,note_on,69,0,0
1,note_on,66,47,240
1,note_on,69,56,0
1,note_on,69,0,240
1,note_on,66,0,0
1,note_on,71,56,240
1,note_on,74,67,0
1,note_on,66,56,0
1,note_on,66,0,960
1,note_on,74,0,0
1,note_on,71,0,0
1,note_on,74,63,0
1,note_on,79,74,0
1,note_on,71,63,0
1,note_on,71,0,466
1,note_on,79,0,0
1,note_on,74,0,0
1,note_on,74,63,14
1,note_on,83,74,0
1,note_on,79,74,0
1,note_on,79,0,240
1,note_on,83,0,0
1,note_on,74,0,0
1,note_on,71,60,240
1,note_on,79,71,0
1,note_on,74,60,0
1,note_on,74,0,240
1,note_on,79,0,0
1,note_on,71,0,0
1,note_on,67,68,240
1,note_on,71,75,0
1,note_on,71,0,240
1,note_on,67,0,0
1,note_on,79,66,240
1,note_on,73,66,0
1,note_on,69,66,0
1,note_on,81,78,0
1,note_on,81,0,931
1,note_on,69,0,0
1,note_on,73,0,0
1,note_on,79,0,29
1,note_on,73,61,0
1,note_on,81,72,0
1,note_on,69,61,0
1,note_on,79,61,0
1,note_on,79,0,815
1,note_on,73,0,0
1,note_on,81,0,0
1,note_on,69,0,0
1,note_on,79,58,25
1,note_on,73,58,0
1,note_on,81,73,0
1,note_on,81,0,114
1,note_on,73,0,0
1,note_on,79,0,0
1,note_on,79,66,6
1,note_on,73,66,0
1,note_on,81,82,0
1,note_on,81,0,333
1,note_on,73,0,9
1,note_on,79,0,0
1,note_on,79,63,18
1,note_on,81,80,0
1,note_on,73,63,0
1,note_on,73,0,114
1,note_on,81,0,0
1,note_on,79,0,0
1,note_on,83,85,6
1,note_on,73,67,0
1,note_on,79,67,0
1,note_on,79,0,342
1,note_on,73,0,0
1,note_on,83,0,0
1,note_on,85,83,18
1,note_on,73,65,0
1,note_on,79,65,0
1,note_on,79,0,120
1,note_on,73,0,0
1,note_on,85,0,0
1,note_on,74,78,0
1,note_on,78,78,0
1,note_on,86,93,0
1,note_on,86,0,931
1,note_on,78,0,0
1,note_on,74,0,0
1,note_on,74,78,29
1,note_on,86,93,0
1,note_on,78,78,0
1,note_on,78,0,820
1,note_on,86,0,0
1,note_on,74,0,0
1,note_on,69,56,20
1,note_on,66,47,0
1,note_on,66,0,60
1,note_on,69,0,0
1,note_on,66,51,60
1,note_on,69,60,0
1,note_on,69,0,349
1,note_on,66,0,0
1,note_on,66,47,11
1,note_on,69,56,0
1,note_on,69,0,60
1,note_on,66,0,0
1,note_on,67,60,60
1,note_on,64,50,0
1,note_on,64,0,349
1,note_on,67,0,0
1,note_on,66,56,11
1,note_on,62,47,0
1,note_on,62,0,60
1,note_on,66,0,0
1,note_on,57,54,60
1,note_on,64,64,0
1,note_on,64,0,931
1,note_on,57,0,0
1,note_on,57,54,29
1,note_on,64,64,0
1,note_on,64,0,815
1,note_on,57,0,0
1,note_on,71,50,25
1,note_on,67,41,0
1,note_on,67,0,60
1,note_on,71,0,0
1,note_on,66,44,60
1,note_on,69,53,0
1,note_on,69,0,349
1,note_on,66,0,0
1,note_on,67,47,11
1,note_on,64,39,0
1,note_on,64,0,60
1,note_on,67,0,0
1,note_on,62,41,60
1,note_on,66,50,0
1,note_on,66,0,349
1,note_on,62,0,0
1,note_on,64,44,11
1,note_on,57,36,0
1,note_on,57,0,60
1,note_on,64,0,0
1,note_on,54,39,60
1,note_on,62,46,0
1,note_on,62,0,931
1,note_on,54,0,0
1,note_on,54,37,29
1,note_on,62,44,0
1,note_on,62,0,815
1,note_on,54,0,0
1,note_on,57,70,25
1,note_on,57,0,60
1,note_on,57,76,60
1,note_on,57,0,120
1,note_on,57,70,240
1,note_on,57,0,60
1,note_on,55,75,60
1,note_on,55,0,120
1,note_on,57,70,240
1,note_on,57,0,60
1,note_on,58,68,60
1,note_on,55,68,0
1,note_on,61,80,0
1,note_on,52,68,0
1,note_on,52,0,931
1,note_on,61,0,0
1,note_on,55,0,0
1,note_on,58,0,29
1,note_on,55,68,0
1,note_on,61,80,0
1,note_on,58,68,0
1,note_on,52,68,0
1,note_on,52,0,815
1,note_on,55,0,0
1,note_on,61,0,0
1,note_on,58,0,0
1,note_on,69,70,25
1,note_on,69,0,60
1,note_on,69,76,60
1,note_on,69,0,120
1,note_on,69,70,240
1,note_on,69,0,60
1,note_on,67,75,60
1,note_on,67,0,120
1,note_on,69,70,240
1,note_on,69,0,60
1,note_on,62,68,60
1,note_on,70,68,0
1,note_on,74,80,0
1,note_on,65,68,0
1,note_on,65,0,931
1,note_on,74,0,0
1,note_on,62,0,0
1,note_on,70,0,29
1,note_on,70,68,0
1,note_on,74,80,0
1,note_on,62,68,0
1,note_on,65,68,0
1,note_on,65,0,815
1,note_on,70,0,0
1,note_on,74,0,0
1,note_on,62,0,0
1,note_on,74,59,25
1,note_on,77,70,0
1,note_on,77,0,60
1,note_on,74,0,0
1,note_on,74,64,60
1,note_on,77,76,0
1,note_on,77,0,120
1,note_on,74,0,0
1,note_on,77,70,240
1,note_on,74,59,0
1,note_on,74,0,60
1,note_on,77,0,0
1,note_on,73,63,60
1,note_on,76,75,0
1,note_on,76,0,120
1,note_on,73,0,0
1,note_on,74,59,240
1,note_on,77,70,0
1,note_on,77,0,60
1,note_on,74,0,0
1,note_on,70,64,60
1,note_on,74,76,0
1,note_on,74,0,120
1,note_on,70,0,0
1,note_on,74,70,240
1,note_on,70,59,0
1,note_on,70,0,60
1,note_on,74,0,0
1,note_on,73,75,60
1,note_on,69,63,0
1,note_on,69,0,120
1,note_on,73,0,0
1,note_on,74,70,240
1,note_on,70,59,0
1,note_on,70,0,60
1,note_on,74,0,0
1,note_on,70,76,60
1,note_on,67,64,0
1,note_on,67,0,120
1,note_on,70,0,0
1,note_on,67,59,240
1,note_on,70,70,0
1,note_on,70,0,60
1,note_on,67,0,0
1,note_on,69,75,60
1,note_on,66,63,0
1,note_on,66,0,120
1,note_on,69,0,0
1,note_on,70,70,240
1,note_on,67,59,0
1,note_on,67,0,60
1,note_on,70,0,0
1,note_on,67,80,60
1,note_on,63,68,0
1,note_on,67,0,931
1,note_on,63,0,29
1,note_on,67,74,0
1,note_on,75,74,0
1,note_on,79,88,0
1,note_on,71,74,0
1,note_on,71,0,950
1,note_on,67,0,0
1,note_on,75,0,0
1,note_on,79,0,0
1,note_on,75,74,10
1,note_on,79,88,0
1,note_on,67,74,0
1,note_on,72,74,0
1,note_on,72,0,950
1,note_on,75,0,0
1,note_on,79,0,0
1,note_on,67,0,0
1,note_on,74,74,10
1,note_on,77,88,0
1,note_on,65,74,0
1,note_on,65,0,120
1,note_on,77,0,0
1,note_on,74,0,0
1,note_on,72,74,360
1,note_on,69,74,0
1,note_on,75,74,0
1,note_on,81,88,0
1,note_on,81,0,120
1,note_on,72,0,0
1,note_on,69,0,0
1,note_on,75,0,0
1,note_on,74,85,360
1,note_on,70,85,0
1,note_on,82,101,0
1,note_on,82,0,950
1,note_on,70,0,0
1,note_on,74,0,0
1,note_on,58,74,10
1,note_on,62,74,0
1,note_on,70,88,0
1,note_on,70,0,815
1,note_on,62,0,0
1,note_on,58,0,0
1,note_on,74,47,25
1,note_on,77,56,0
1,note_on,77,0,60
1,note_on,74,0,0
1,note_on,74,51,60
1,note_on,77,60,0
1,note_on,77,0,120
1,note_on,74,0,0
1,note_on,74,47,240
1,note_on,77,56,0
1,note_on,77,0,60
1,note_on,74,0,0
1,note_on,73,50,60
1,note_on,76,60,0
1,note_on,76,0,120
1,note_on,73,0,0
1,note_on,74,47,240
1,note_on,77,56,0
1,note_on,77,0,60
1,note_on,74,0,0
1,note_on,70,51,60
1,note_on,74,60,0
1,note_on,74,0,960
1,note_on,70,0,0
1,note_on,70,51,0
1,note_on,74,60,0
1,note_on,74,0,815
1,note_on,70,0,0
1,note_on,70,47,25
1,note_on,74,56,0
1,note_on,74,0,60
1,note_on,70,0,0
1,note_on,70,51,60
1,note_on,74,60,0
1,note_on,74,0,120
1,note_on,70,0,0
1,note_on,70,47,240
1,note_on,74,56,0
1,note_on,74,0,60
1,note_on,70,0,0
1,note_on,69,50,60
1,note_on,73,60,0
1,note_on,73,0,120
1,note_on,69,0,0
1,note_on,70,47,240
1,note_on,74,56,0
1,note_on,74,0,60
1,note_on,70,0,0
1,note_on,74,51,60
1,note_on,77,60,0
1,note_on,77,0,960
1,note_on,74,0,0
1,note_on,72,51,0
1,note_on,75,60,0
1,note_on,75,0,815
1,note_on,72,0,0
1,note_on,77,47,25
1,note_on,72,47,0
1,note_on,75,56,0
1,note_on,75,0,60
1,note_on,72,0,0
1,note_on,77,0,0
1,note_on,77,51,60
1,note_on,72,51,0
1,note_on,75,60,0
1,note_on,75,0,120
1,note_on,72,0,0
1,note_on,77,0,0
1,note_on,77,47,240
1,note_on,72,47,0
1,note_on,75,56,0
1,note_on,75,0,60
1,note_on,72,0,0
1,note_on,77,0,0
1,note_on,77,50,60
1,note_on,71,50,0
1,note_on,74,60,0
1,note_on,74,0,120
1,note_on,71,0,0
1,note_on,77,0,0
1,note_on,77,56,240
1,note_on,72,47,0
1,note_on,75,56,0
1,note_on,75,0,60
1,note_on,72,0,0
1,note_on,77,0,0
1,note_on,69,51,60
1,note_on,72,51,0
1,note_on,77,60,0
1,note_on,77,0,951
1,note_on,72,0,0
1,note_on,69,0,0
1,note_on,69,51,9
1,note_on,72,51,0
1,note_on,77,60,0
1,note_on,77,0,815
1,note_on,72,0,0
1,note_on,69,0,0
1,note_on,77,47,25
1,note_on,69,47,0
1,note_on,72,56,0
1,note_on,72,0,60
1,note_on,69,0,0
1,note_on,77,0,0
1,note_on,69,51,60
1,note_on,77,51,0
1,note_on,72,60,0
1,note_on,72,0,120
1,note_on,77,0,0
1,note_on,69,0,0
1,note_on,72,56,240
1,note_on,77,47,0
1,note_on,69,47,0
1,note_on,69,0,60
1,note_on,77,0,0
1,note_on,72,0,0
1,note_on,71,60,60
1,note_on,77,50,0
1,note_on,68,50,0
1,note_on,68,0,120
1,note_on,77,0,0
1,note_on,71,0,0
1,note_on,72,56,240
1,note_on,77,56,0
1,note_on,69,47,0
1,note_on,69,0,60
1,note_on,77,0,0
1,note_on,72,0,0
1,note_on,69,45,60
1,note_on,73,45,0
1,note_on,77,54,0
1,note_on,73,0,950
1,note_on,77,0,1
1,note_on,69,0,0
1,note_on,70,45,9
1,note_on,74,45,0
1,note_on,77,54,0
1,note_on,77,0,815
1,note_on,74,0,0
1,note_on,70,0,0
1,note_on,74,47,25
1,note_on,70,47,0
1,note_on,77,56,0
1,note_on,77,0,60
1,note_on,70,0,0
1,note_on,74,0,0
1,note_on,74,51,60
1,note_on,70,51,0
1,note_on,77,60,0
1,note_on,77,0,120
1,note_on,70,0,0
1,note_on,74,0,0
1,note_on,77,57,240
1,note_on,70,48,0
1,note_on,74,48,0
1,note_on,74,0,60
1,note_on,70,0,0
1,note_on,77,0,0
1,note_on,70,52,60
1,note_on,74,52,0
1,note_on,76,63,0
1,note_on,76,0,120
1,note_on,74,0,0
1,note_on,70,0,0
1,note_on,70,50,240
1,note_on,74,50,0
1,note_on,77,60,0
1,note_on,77,0,60
1,note_on,74,0,0
1,note_on,70,0,0
1,note_on,70,56,60
1,note_on,74,56,0
1,note_on,79,66,0
1,note_on,79,0,951
1,note_on,74,0,0
1,note_on,70,0,0
1,note_on,70,56,9
1,note_on,74,56,0
1,note_on,79,66,0
1,note_on,79,0,815
1,note_on,74,0,0
1,note_on,70,0,0
1,note_on,79,61,25
1,note_on,74,51,0
1,note_on,70,51,0
1,note_on,70,0,60
1,note_on,74,0,0
1,note_on,79,0,0
1,note_on,79,66,60
1,note_on,74,56,0
1,note_on,70,56,0
1,note_on,70,0,120
1,note_on,74,0,0
1,note_on,79,0,0
1,note_on,82,60,240
1,note_on,74,50,0
1,note_on,70,50,0
1,note_on,70,0,60
1,note_on,74,0,0
1,note_on,82,0,0
1,note_on,74,54,60
1,note_on,70,54,0
1,note_on,81,64,0
1,note_on,81,0,120
1,note_on,70,0,0
1,note_on,74,0,0
1,note_on,74,49,240
1,note_on,70,49,0
1,note_on,79,59,0
1,note_on,79,0,60
1,note_on,70,0,0
1,note_on,74,0,0
1,note_on,77,60,60
1,note_on,70,51,0
1,note_on,74,51,0
1,note_on,74,0,951
1,note_on,70,0,0
1,note_on,77,0,0
1,note_on,74,51,9
1,note_on,70,60,0
1,note_on,77,60,0
1,note_on,77,0,815
1,note_on,70,0,0
1,note_on,74,0,0
1,note_on,77,47,25
1,note_on,70,47,0
1,note_on,74,56,0
1,note_on,74,0,60
1,note_on,70,0,0
1,note_on,77,0,0
1,note_on,77,51,60
1,note_on,70,51,0
1,note_on,74,60,0
1,note_on,74,0,120
1,note_on,70,0,0
1,note_on,77,0,0
1,note_on,77,47,240
1,note_on,70,47,0
1,note_on,74,56,0
1,note_on,74,0,60
1,note_on,70,0,0
1,note_on,77,0,0
1,note_on,79,50,60
1,note_on,70,50,0
1,note_on,75,60,0
1,note_on,75,0,120
1,note_on,70,0,0
1,note_on,79,0,0
1,note_on,77,56,240
1,note_on,70,47,0
1,note_on,74,56,0
1,note_on,74,0,60
1,note_on,70,0,0
1,note_on,77,0,0
1,note_on,69,51,60
1,note_on,72,51,0
1,note_on,77,60,0
1,note_on,77,0,960
1,note_on,72,0,0
1,note_on,69,0,0
1,note_on,69,48,0
1,note_on,72,48,0
1,note_on,75,57,0
1,note_on,75,0,815
1,note_on,72,0,0
1,note_on,69,0,0
1,note_on,75,44,25
1,note_on,65,44,0
1,note_on,72,53,0
1,note_on,72,0,60
1,note_on,65,0,0
1,note_on,75,0,0
1,note_on,75,48,60
1,note_on,65,48,0
1,note_on,72,57,0
1,note_on,72,0,120
1,note_on,65,0,0
1,note_on,75,0,0
1,note_on,75,44,240
1,note_on,65,44,0
1,note_on,72,53,0
1,note_on,72,0,60
1,note_on,65,0,0
1,note_on,75,0,0
1,note_on,74,47,60
1,note_on,65,47,0
1,note_on,71,57,0
1,note_on,71,0,120
1,note_on,65,0,0
1,note_on,74,0,0
1,note_on,72,53,240
1,note_on,65,44,0
1,note_on,69,53,0
1,note_on,69,0,60
1,note_on,65,0,0
1,note_on,72,0,0
1,note_on,62,40,60
1,note_on,65,40,0
1,note_on,70,48,0
1,note_on,70,0,960
1,note_on,65,0,0
1,note_on,62,0,0
1,note_on,62,40,0
1,note_on,65,40,0
1,note_on,70,48,0
1,note_on,70,0,815
1,note_on,65,0,0
1,note_on,62,0,0
1,note_on,75,39,25
1,note_on,65,39,0
1,note_on,72,47,0
1,note_on,72,0,60
1,note_on,65,0,0
1,note_on,75,0,0
1,note_on,75,43,60
1,note_on,65,43,0
1,note_on,72,51,0
1,note_on,72,0,120
1,note_on,65,0,0
1,note_on,75,0,0
1,note_on,75,39,240
1,note_on,65,39,0
1,note_on,72,47,0
1,note_on,72,0,60
1,note_on,65,0,0
1,note_on,75,0,0
1,note_on,74,42,60
1,note_on,65,42,0
1,note_on,70,51,0
1,note_on,70,0,120
1,note_on,65,0,0
1,note_on,74,0,0
1,note_on,72,47,240
1,note_on,65,39,0
1,note_on,69,47,0
1,note_on,69,0,60
1,note_on,65,0,0
1,note_on,72,0,0
1,note_on,62,38,60
1,note_on,70,45,0
1,note_on,65,38,0
1,note_on,65,0,960
1,note_on,70,0,0
1,note_on,62,0,0
1,note_on,62,38,0
1,note_on,70,45,0
1,note_on,65,38,0
1,note_on,65,0,815
1,note_on,70,0,0
1,note_on,62,0,0
1,note_on,65,35,25
1,note_on,75,35,0
1,note_on,72,42,0
1,note_on,72,0,60
1,note_on,75,0,0
1,note_on,65,0,0
1,note_on,75,38,60
1,note_on,65,38,0
1,note_on,72,45,0
1,note_on,72,0,120
1,note_on,65,0,0
1,note_on,75,0,0
1,note_on,65,34,240
1,note_on,72,41,0
1,note_on,75,34,0
1,note_on,75,0,60
1,note_on,72,0,0
1,note_on,65,0,0
1,note_on,65,36,60
1,note_on,70,44,0
1,note_on,74,36,0
1,note_on,74,0,120
1,note_on,70,0,0
1,note_on,65,0,0
1,note_on,69,39,240
1,note_on,72,39,0
1,note_on,65,33,0
1,note_on,65,0,60
1,note_on,72,0,0
1,note_on,69,0,0
1,note_on,62,31,60
1,note_on,70,37,0
1,note_on,65,31,0
1,note_on,65,0,350
1,note_on,70,0,0
1,note_on,62,0,0
1,note_on,46,70,10
1,note_on,46,0,60
1,note_on,46,76,60
1,note_on,46,0,120
1,note_on,46,70,240
1,note_on,46,0,60
1,note_on,46,75,60
1,note_on,46,0,120
1,note_on,48,70,240
1,note_on,48,0,60
1,note_on,50,75,60
1,note_on,50,0,350
1,note_on,62,70,10
1,note_on,50,59,0
1,note_on,50,0,60
1,note_on,62,0,0
1,note_on,50,64,60
1,note_on,62,76,0
1,note_on,62,0,120
1,note_on,50,0,0
1,note_on,62,70,240
1,note_on,50,59,0
1,note_on,50,0,60
1,note_on,62,0,0
1,note_on,50,63,60
1,note_on,62,75,0
1,note_on,62,0,120
1,note_on,50,0,0
1,note_on,52,59,240
1,note_on,64,70,0
1,note_on,64,0,60
1,note_on,52,0,0
1,note_on,65,82,60
1,note_on,53,69,0
1,note_on,65,0,350
1,note_on,53,0,10
1,note_on,53,77,0
1,note_on,53,0,60
1,note_on,53,83,60
1,note_on,53,0,120
1,note_on,53,77,240
1,note_on,53,0,60
1,note_on,53,82,60
1,note_on,53,0,120
1,note_on,55,77,240
1,note_on,55,0,60
1,note_on,57,90,60
1,note_on,57,0,350
1,note_on,69,71,10
1,note_on,57,60,0
1,note_on,57,0,60
1,note_on,69,0,0
1,note_on,57,65,60
1,note_on,69,78,0
1,note_on,69,0,120
1,note_on,57,0,0
1,note_on,59,61,240
1,note_on,71,73,0
1,note_on,71,0,60
1,note_on,59,0,0
1,note_on,73,79,60
1,note_on,61,66,0
1,note_on,61,0,120
1,note_on,73,0,0
1,note_on,62,64,240
1,note_on,74,76,0
1,note_on,74,0,60
1,note_on,62,0,0
1,note_on,69,70,60
1,note_on,76,83,0
1,note_on,73,70,0
1,note_on,64,70,0
1,note_on,64,0,931
1,note_on,69,0,0
1,note_on,76,0,0
1,note_on,73,0,29
1,note_on,73,70,0
1,note_on,64,70,0
1,note_on,69,70,0
1,note_on,76,83,0
1,note_on,76,0,815
1,note_on,73,0,0
1,note_on,64,0,0
1,note_on,69,0,0
1,note_on,74,58,25
1,note_on,76,73,0
1,note_on,68,58,0
1,note_on,68,0,114
1,note_on,76,0,0
1,note_on,74,0,0
1,note_on,74,66,6
1,note_on,76,82,0
1,note_on,68,66,0
1,note_on,76,0,333
1,note_on,68,0,9
1,note_on,74,0,0
1,note_on,74,63,18
1,note_on,76,80,0
1,note_on,68,63,0
1,note_on,68,0,114
1,note_on,76,0,0
1,note_on,74,0,0
1,note_on,68,67,6
1,note_on,78,85,0
1,note_on,74,67,0
1,note_on,74,0,342
1,note_on,78,0,0
1,note_on,68,0,0
1,note_on,68,65,18
1,note_on,80,83,0
1,note_on,74,65,0
1,note_on,74,0,120
1,note_on,80,0,0
1,note_on,68,0,0
1,note_on,69,78,0
1,note_on,73,78,0
1,note_on,81,93,0
1,note_on,81,0,931
1,note_on,73,0,0
1,note_on,69,0,0
1,note_on,69,78,29
1,note_on,73,78,0
1,note_on,81,93,0
1,note_on,81,0,820
1,note_on,73,0,0
1,note_on,69,0,0
1,note_on,57,47,20
1,note_on,61,56,0
1,note_on,55,47,0
1,note_on,55,0,60
1,note_on,61,0,0
1,note_on,57,0,0
1,note_on,57,51,60
1,note_on,62,60,0
1,note_on,55,51,0
1,note_on,55,0,120
1,note_on,62,0,0
1,note_on,57,0,0
1,note_on,57,47,240
1,note_on,61,56,0
1,note_on,55,47,0
1,note_on,55,0,60
1,note_on,61,0,0
1,note_on,57,0,0
1,note_on,55,50,60
1,note_on,57,50,0
1,note_on,62,60,0
1,note_on,62,0,120
1,note_on,57,0,0
1,note_on,55,0,0
1,note_on,55,47,240
1,note_on,57,47,0
1,note_on,64,56,0
1,note_on,64,0,60
1,note_on,57,0,0
1,note_on,55,0,0
1,note_on,57,64,60
1,note_on,54,54,0
1,note_on,54,0,931
1,note_on,57,0,0
1,note_on,57,54,29
1,note_on,66,64,0
1,note_on,66,0,815
1,note_on,57,0,0
1,note_on,57,53,25
1,note_on,66,53,0
1,note_on,66,0,120
1,note_on,57,0,0
1,note_on,67,60,0
1,note_on,55,60,0
1,note_on,55,0,120
1,note_on,67,0,0
1,note_on,55,56,240
1,note_on,66,56,0
1,note_on,66,0,120
1,note_on,55,0,0
1,note_on,64,59,0
1,note_on,56,59,0
1,note_on,56,0,120
1,note_on,64,0,0
1,note_on,56,56,240
1,note_on,62,56,0
1,note_on,62,0,120
1,note_on,56,0,0
1,note_on,61,54,0
1,note_on,69,64,0
1,note_on,57,54,0
1,note_on,57,0,931
1,note_on,69,0,0
1,note_on,61,0,0
1,note_on,61,54,29
1,note_on,64,64,0
1,note_on,64,0,815
1,note_on,61,0,0
1,note_on,64,53,25
1,note_on,69,53,0
1,note_on,69,0,60
1,note_on,73,53,0
1,note_on,73,0,60
1,note_on,64,0,0
1,note_on,64,60,0
1,note_on,71,60,0
1,note_on,71,0,120
1,note_on,64,0,0
1,note_on,64,56,240
1,note_on,69,56,0
1,note_on,69,0,120
1,note_on,64,0,0
1,note_on,64,59,0
1,note_on,71,59,0
1,note_on,71,0,120
1,note_on,64,0,0
1,note_on,64,56,240
1,note_on,73,56,0
1,note_on,73,0,120
1,note_on,64,0,0
1,note_on,62,54,0
1,note_on,66,54,0
1,note_on,74,64,0
1,note_on,74,0,931
1,note_on,66,0,0
1,note_on,62,0,0
1,note_on,66,64,29
1,note_on,62,54,0
1,note_on,62,0,815
1,note_on,66,0,0
1,note_on,62,53,25
1,note_on,66,53,0
1,note_on,66,0,60
1,note_on,69,53,0
1,note_on,69,0,60
1,note_on,62,0,0
1,note_on,62,60,0
1,note_on,68,60,0
1,note_on,68,0,120
1,note_on,62,0,0
1,note_on,62,56,240
1,note_on,66,56,0
1,note_on,66,0,120
1,note_on,62,0,0
1,note_on,62,59,0
1,note_on,68,59,0
1,note_on,68,0,120
1,note_on,62,0,0
1,note_on,62,56,240
1,note_on,64,56,0
1,note_on,64,0,120
1,note_on,62,0,0
1,note_on,61,54,0
1,note_on,71,64,0
1,note_on,71,0,931
1,note_on,61,0,0
1,note_on,69,64,29
1,note_on,61,54,0
1,note_on,61,0,950
1,note_on,69,0,0
1,note_on,62,56,10
1,note_on,66,56,0
1,note_on,69,67,0
1,note_on,69,0,456
1,note_on,66,0,0
1,note_on,62,0,0
1,note_on,62,53,24
1,note_on,66,53,0
1,note_on,70,63,0
1,note_on,70,0,466
1,note_on,66,0,0
1,note_on,62,0,0
1,note_on,62,51,14
1,note_on,67,51,0
1,note_on,71,60,0
1,note_on,71,0,960
1,note_on,67,0,0
1,note_on,62,0,0
1,note_on,67,56,0
1,note_on,71,56,0
1,note_on,76,67,0
1,note_on,76,0,466
1,note_on,71,0,0
1,note_on,67,0,0
1,note_on,71,57,14
1,note_on,76,57,0
1,note_on,79,68,0
1,note_on,79,0,240
1,note_on,76,0,0
1,note_on,71,0,0
1,note_on,67,53,240
1,note_on,71,53,0
1,note_on,76,63,0
1,note_on,71,0,240
1,note_on,67,0,0
1,note_on,76,0,10
1,note_on,61,49,230
1,note_on,64,49,0
1,note_on,67,58,0
1,note_on,67,0,240
1,note_on,64,0,0
1,note_on,61,0,0
1,note_on,61,55,240
1,note_on,66,55,0
1,note_on,69,65,0
1,note_on,69,0,960
1,note_on,66,0,0
1,note_on,61,0,0
1,note_on,66,59,0
1,note_on,69,59,0
1,note_on,74,70,0
1,note_on,74,0,466
1,note_on,69,0,0
1,note_on,66,0,0
1,note_on,69,58,14
1,note_on,74,58,0
1,note_on,78,69,0
1,note_on,78,0,240
1,note_on,74,0,0
1,note_on,69,0,0
1,note_on,69,51,240
1,note_on,74,60,0
1,note_on,66,51,0
1,note_on,66,0,240
1,note_on,74,0,0
1,note_on,69,0,0
1,note_on,62,47,240
1,note_on,66,56,0
1,note_on,59,47,0
1,note_on,59,0,240
1,note_on,66,0,0
1,note_on,62,0,0
1,note_on,64,56,240
1,note_on,67,67,0
1,note_on,59,56,0
1,note_on,59,0,960
1,note_on,67,0,0
1,note_on,64,0,0
1,note_on,67,60,0
1,note_on,73,71,0
1,note_on,64,60,0
1,note_on,64,0,466
1,note_on,73,0,0
1,note_on,67,0,0
1,note_on,67,60,14
1,note_on,76,71,0
1,note_on,73,71,0
1,note_on,73,0,240
1,note_on,76,0,0
1,note_on,67,0,0
1,note_on,64,55,240
1,note_on,73,65,0
1,note_on,67,55,0
1,note_on,67,0,240
1,note_on,73,0,0
1,note_on,64,0,0
1,note_on,61,50,240
1,note_on,68,59,0
1,note_on,71,59,0
1,note_on,71,0,240
1,note_on,68,0,0
1,note_on,61,0,0
1,note_on,66,55,240
1,note_on,61,55,0
1,note_on,70,65,0
1,note_on,70,0,931
1,note_on,61,0,0
1,note_on,66,0,29
1,note_on,61,51,0
1,note_on,70,60,0
1,note_on,66,51,0
1,note_on,66,0,815
1,note_on,70,0,0
1,note_on,61,0,0
1,note_on,73,71,25
1,note_on,66,60,0
1,note_on,66,0,60
1,note_on,73,0,0
1,note_on,66,65,60
1,note_on,75,78,0
1,note_on,75,0,120
1,note_on,66,0,0
1,note_on,73,73,240
1,note_on,66,61,0
1,note_on,66,0,60
1,note_on,73,0,0
1,note_on,66,66,60
1,note_on,75,79,0
1,note_on,75,0,120
1,note_on,66,0,0
1,note_on,73,76,240
1,note_on,66,64,0
1,note_on,66,0,60
1,note_on,73,0,0
1,note_on,71,70,60
1,note_on,77,83,0
1,note_on,65,70,0
1,note_on,65,0,931
1,note_on,77,0,0
1,note_on,71,0,29
1,note_on,77,83,0
1,note_on,71,70,0
1,note_on,65,70,0
1,note_on,65,0,815
1,note_on,71,0,0
1,note_on,77,0,0
1,note_on,65,58,25
1,note_on,73,58,0
1,note_on,77,73,0
1,note_on,77,0,114
1,note_on,73,0,0
1,note_on,65,0,0
1,note_on,73,66,6
1,note_on,77,82,0
1,note_on,65,66,0
1,note_on,77,0,332
1,note_on,65,0,10
1,note_on,73,0,0
1,note_on,73,63,18
1,note_on,77,80,0
1,note_on,65,63,0
1,note_on,65,0,114
1,note_on,77,0,0
1,note_on,73,0,0
1,note_on,73,67,6
1,note_on,77,85,0
1,note_on,65,67,0
1,note_on,65,0,342
1,note_on,77,0,0
1,note_on,73,0,0
1,note_on,65,65,18
1,note_on,77,83,0
1,note_on,73,65,0
1,note_on,73,0,120
1,note_on,77,0,0
1,note_on,65,0,0
1,note_on,66,78,0
1,note_on,78,93,0
1,note_on,70,78,0
1,note_on,70,0,931
1,note_on,78,0,0
1,note_on,66,0,0
1,note_on,66,78,29
1,note_on,78,93,0
1,note_on,70,78,0
1,note_on,70,0,820
1,note_on,78,0,0
1,note_on,66,0,0
1,note_on,69,47,20
1,note_on,67,47,0
1,note_on,73,56,0
1,note_on,73,0,60
1,note_on,67,0,0
1,note_on,69,0,0
1,note_on,67,51,60
1,note_on,69,51,0
1,note_on,73,60,0
1,note_on,73,0,349
1,note_on,69,0,0
1,note_on,67,0,0
1,note_on,69,47,11
1,note_on,73,56,0
1,note_on,67,47,0
1,note_on,67,0,60
1,note_on,73,0,0
1,note_on,69,0,0
1,note_on,69,50,46
1,note_on,74,60,0
1,note_on,67,50,0
1,note_on,67,0,349
1,note_on,74,0,0
1,note_on,69,0,0
1,note_on,76,56,25
1,note_on,67,47,0
1,note_on,69,47,0
1,note_on,69,0,60
1,note_on,67,0,0
1,note_on,76,0,0
1,note_on,66,54,60
1,note_on,69,64,0
1,note_on,69,0,931
1,note_on,66,0,0
1,note_on,66,54,29
1,note_on,69,54,0
1,note_on,78,64,0
1,note_on,78,0,815
1,note_on,69,0,0
1,note_on,66,0,0
1,note_on,78,53,25
1,note_on,66,53,0
1,note_on,78,0,116
1,note_on,66,0,1
1,note_on,78,60,3
1,note_on,66,60,0
1,note_on,66,0,120
1,note_on,78,0,0
1,note_on,78,56,226
1,note_on,66,56,0
1,note_on,66,0,116
1,note_on,78,0,0
1,note_on,68,59,18
1,note_on,76,59,0
1,note_on,76,0,120
1,note_on,68,0,0
1,note_on,74,56,240
1,note_on,68,56,0
1,note_on,68,0,120
1,note_on,74,0,0
1,note_on,69,54,0
1,note_on,73,64,0
1,note_on,73,0,931
1,note_on,69,0,0
1,note_on,76,64,29
1,note_on,69,54,0
1,note_on,69,0,815
1,note_on,76,0,0
1,note_on,76,53,25
1,note_on,70,53,0
1,note_on,70,0,117
1,note_on,76,0,0
1,note_on,76,60,3
1,note_on,70,60,0
1,note_on,70,0,120
1,note_on,76,0,0
1,note_on,76,56,226
1,note_on,70,56,0
1,note_on,70,0,116
1,note_on,76,0,0
1,note_on,70,59,18
1,note_on,74,59,0
1,note_on,74,0,120
1,note_on,70,0,0
1,note_on,73,56,240
1,note_on,70,56,0
1,note_on,70,0,120
1,note_on,73,0,0
1,note_on,71,64,0
1,note_on,71,0,931
1,note_on,67,54,29
1,note_on,74,64,0
1,note_on,74,0,815
1,note_on,67,0,0
1,note_on,61,53,25
1,note_on,71,53,0
1,note_on,67,53,0
1,note_on,67,0,120
1,note_on,71,0,0
1,note_on,61,0,0
1,note_on,67,60,0
1,note_on,71,60,0
1,note_on,61,60,0
1,note_on,61,0,120
1,note_on,71,0,0
1,note_on,67,0,0
1,note_on,71,56,240
1,note_on,67,56,0
1,note_on,61,56,0
1,note_on,61,0,120
1,note_on,67,0,0
1,note_on,71,0,0
1,note_on,61,59,0
1,note_on,66,59,0
1,note_on,69,59,0
1,note_on,69,0,120
1,note_on,66,0,0
1,note_on,61,0,0
1,note_on,61,56,240
1,note_on,64,56,0
1,note_on,67,56,0
1,note_on,67,0,120
1,note_on,64,0,0
1,note_on,61,0,0
1,note_on,64,54,0
1,note_on,57,54,0
1,note_on,67,64,0
1,note_on,67,0,931
1,note_on,57,0,0
1,note_on,64,0,29
1,note_on,57,54,0
1,note_on,66,64,0
1,note_on,62,54,0
1,note_on,62,0,950
1,note_on,66,0,0
1,note_on,57,0,0
1,note_on,62,56,10
1,note_on,66,56,0
1,note_on,69,67,0
1,note_on,69,0,456
1,note_on,66,0,0
1,note_on,62,0,0
1,note_on,62,53,24
1,note_on,66,53,0
1,note_on,70,63,0
1,note_on,70,0,466
1,note_on,66,0,0
1,note_on,62,0,0
1,note_on,62,51,14
1,note_on,67,51,0
1,note_on,71,60,0
1,note_on,71,0,960
1,note_on,67,0,0
1,note_on,62,0,0
1,note_on,67,56,0
1,note_on,71,56,0
1,note_on,76,67,0
1,note_on,76,0,480
1,note_on,71,0,0
1,note_on,67,0,0
1,note_on,71,57,0
1,note_on,76,57,0
1,note_on,79,68,0
1,note_on,79,0,240
1,note_on,76,0,0
1,note_on,71,0,0
1,note_on,67,53,240
1,note_on,71,53,0
1,note_on,76,63,0
1,note_on,71,0,240
1,note_on,67,0,0
1,note_on,76,0,10
1,note_on,64,49,230
1,note_on,67,58,0
1,note_on,67,0,240
1,note_on,64,0,0
1,note_on,64,55,240
1,note_on,69,55,0
1,note_on,73,65,0
1,note_on,73,0,960
1,note_on,69,0,0
1,note_on,64,0,0
1,note_on,69,59,0
1,note_on,73,59,0
1,note_on,78,70,0
1,note_on,78,0,480
1,note_on,73,0,0
1,note_on,69,0,0
1,note_on,73,58,0
1,note_on,78,58,0
1,note_on,81,69,0
1,note_on,81,0,240
1,note_on,78,0,0
1,note_on,73,0,0
1,note_on,69,51,240
1,note_on,73,51,0
1,note_on,78,60,0
1,note_on,78,0,240
1,note_on,73,0,0
1,note_on,69,0,0
1,note_on,66,47,240
1,note_on,69,56,0
1,note_on,69,0,240
1,note_on,66,0,0
1,note_on,66,56,240
1,note_on,71,56,0
1,note_on,74,67,0
1,note_on,74,0,960
1,note_on,71,0,0
1,note_on,66,0,0
1,note_on,71,60,0
1,note_on,74,60,0
1,note_on,79,71,0
1,note_on,79,0,480
1,note_on,74,0,0
1,note_on,71,0,0
1,note_on,74,60,0
1,note_on,79,71,0
1,note_on,83,71,0
1,note_on,83,0,240
1,note_on,79,0,0
1,note_on,74,0,0
1,note_on,71,60,240
1,note_on,74,60,0
1,note_on,79,71,0
1,note_on,79,0,240
1,note_on,74,0,0
1,note_on,71,0,0
1,note_on,67,68,240
1,note_on,71,75,0
1,note_on,71,0,240
1,note_on,67,0,0
1,note_on,79,66,240
1,note_on,69,66,0
1,note_on,73,66,0
1,note_on,81,78,0
1,note_on,81,0,931
1,note_on,73,0,0
1,note_on,69,0,0
1,note_on,79,0,29
1,note_on,79,61,0
1,note_on,69,61,0
1,note_on,73,61,0
1,note_on,81,72,0
1,note_on,81,0,815
1,note_on,79,0,0
1,note_on,69,0,0
1,note_on,73,0,0
1,note_on,73,58,25
1,note_on,79,58,0
1,note_on,81,73,0
1,note_on,81,0,114
1,note_on,79,0,0
1,note_on,73,0,0
1,note_on,79,66,6
1,note_on,73,66,0
1,note_on,81,82,0
1,note_on,81,0,333
1,note_on,73,0,9
1,note_on,79,0,0
1,note_on,79,63,18
1,note_on,73,63,0
1,note_on,81,80,0
1,note_on,81,0,114
1,note_on,73,0,0
1,note_on,79,0,0
1,note_on,83,85,6
1,note_on,73,67,0
1,note_on,79,67,0
1,note_on,79,0,342
1,note_on,73,0,0
1,note_on,83,0,0
1,note_on,85,83,18
1,note_on,73,65,0
1,note_on,79,65,0
1,note_on,79,0,120
1,note_on,73,0,0
1,note_on,85,0,0
1,note_on,86,93,0
1,note_on,74,78,0
1,note_on,78,78,0
1,note_on,78,0,931
1,note_on,74,0,0
1,note_on,86,0,0
1,note_on,78,78,29
1,note_on,74,78,0
1,note_on,86,93,0
1,note_on,86,0,820
1,note_on,74,0,0
1,note_on,78,0,0
1,note_on,69,56,20
1,note_on,66,47,0
1,note_on,66,0,60
1,note_on,69,0,0
1,note_on,66,51,60
1,note_on,69,60,0
1,note_on,69,0,349
1,note_on,66,0,0
1,note_on,69,56,11
1,note_on,66,47,0
1,note_on,66,0,60
1,note_on,69,0,0
1,note_on,67,60,60
1,note_on,64,50,0
1,note_on,64,0,349
1,note_on,67,0,0
1,note_on,62,47,11
1,note_on,66,56,0
1,note_on,66,0,60
1,note_on,62,0,0
1,note_on,64,64,60
1,note_on,57,54,0
1,note_on,57,0,931
1,note_on,64,0,0
1,note_on,57,54,29
1,note_on,64,64,0
1,note_on,64,0,815
1,note_on,57,0,0
1,note_on,71,50,25
1,note_on,67,41,0
1,note_on,67,0,60
1,note_on,71,0,0
1,note_on,66,44,60
1,note_on,69,53,0
1,note_on,69,0,349
1,note_on,66,0,0
1,note_on,67,47,11
1,note_on,64,39,0
1,note_on,64,0,60
1,note_on,67,0,0
1,note_on,66,50,60
1,note_on,62,41,0
1,note_on,62,0,349
1,note_on,66,0,0
1,note_on,57,36,11
1,note_on,64,44,0
1,note_on,64,0,60
1,note_on,57,0,0
1,note_on,62,46,60
1,note_on,54,39,0
1,note_on,54,0,931
1,note_on,62,0,0
1,note_on,62,44,29
1,note_on,54,37,0
1,note_on,54,0,950
1,note_on,62,0,0
1,note_on,62,44,10
1,note_on,62,0,456
1,note_on,62,41,24
1,note_on,62,0,456
1,note_on,59,37,24
1,note_on,62,37,0
1,note_on,71,44,0
1,note_on,71,0,951
1,note_on,62,0,0
1,note_on,59,0,0
1,note_on,59,37,9
1,note_on,62,37,0
1,note_on,71,44,0
1,note_on,71,0,456
1,note_on,62,0,0
1,note_on,59,0,0
1,note_on,59,37,24
1,note_on,62,37,0
1,note_on,71,44,0
1,note_on,71,0,456
1,note_on,62,0,0
1,note_on,59,0,0
1,note_on,59,35,24
1,note_on,62,35,0
1,note_on,71,42,0
1,note_on,71,0,456
1,note_on,62,0,0
1,note_on,59,0,0
1,note_on,59,35,24
1,note_on,62,35,0
1,note_on,71,42,0
1,note_on,71,0,456
1,note_on,62,0,0
1,note_on,59,0,0
1,note_on,59,37,24
1,note_on,62,37,0
1,note_on,71,44,0
1,note_on,71,0,456
1,note_on,62,0,0
1,note_on,59,0,0
1,note_on,64,40,24
1,note_on,67,40,0
1,note_on,76,48,0
1,note_on,76,0,466
1,note_on,67,0,0
1,note_on,64,0,0
1,note_on,62,37,14
1,note_on,67,37,0
1,note_on,74,44,0
1,note_on,74,0,456
1,note_on,67,0,0
1,note_on,62,0,0
1,note_on,62,37,24
1,note_on,67,37,0
1,note_on,74,44,0
1,note_on,74,0,456
1,note_on,67,0,0
1,note_on,62,0,0
1,note_on,62,34,24
1,note_on,67,34,0
1,note_on,74,40,0
1,note_on,74,0,456
1,note_on,67,0,0
1,note_on,62,0,0
1,note_on,62,34,24
1,note_on,67,34,0
1,note_on,74,40,0
1,note_on,74,0,456
1,note_on,67,0,0
1,note_on,62,0,0
1,note_on,62,37,24
1,note_on,67,37,0
1,note_on,74,44,0
1,note_on,74,0,480
1,note_on,67,0,0
1,note_on,62,0,0
1,note_on,57,33,0
1,note_on,62,33,0
1,note_on,69,39,0
1,note_on,69,0,466
1,note_on,62,0,0
1,note_on,57,0,0
1,note_on,60,33,14
1,note_on,62,33,0
1,note_on,72,39,0
1,note_on,72,0,465
1,note_on,60,0,0
1,note_on,62,0,1
1,note_on,60,37,14
1,note_on,62,37,0
1,note_on,72,44,0
1,note_on,72,0,465
1,note_on,60,0,0
1,note_on,62,0,1
1,note_on,59,35,14
1,note_on,62,35,0
1,note_on,71,42,0
1,note_on,71,0,466
1,note_on,62,0,0
1,note_on,59,0,0
1,note_on,57,35,14
1,note_on,62,35,0
1,note_on,69,42,0
1,note_on,69,0,466
1,note_on,62,0,0
1,note_on,57,0,0
1,note_on,57,37,14
1,note_on,62,37,0
1,note_on,69,44,0
1,note_on,69,0,466
1,note_on,62,0,0
1,note_on,57,0,0
1,note_on,59,33,14
1,note_on,62,33,0
1,note_on,71,39,0
1,note_on,71,0,466
1,note_on,62,0,0
1,note_on,59,0,0
1,note_on,59,33,14
1,note_on,62,33,0
1,note_on,71,39,0
1,note_on,71,0,466
1,note_on,62,0,0
1,note_on,59,0,0
1,note_on,59,37,14
1,note_on,62,37,0
1,note_on,71,44,0
1,note_on,71,0,466
1,note_on,62,0,0
1,note_on,59,0,0
1,note_on,62,43,14
1,note_on,69,51,0
1,note_on,57,43,0
1,note_on,57,0,466
1,note_on,69,0,0
1,note_on,62,0,0
1,note_on,62,50,14
1,note_on,67,60,0
1,note_on,55,50,0
1,note_on,55,0,466
1,note_on,67,0,0
1,note_on,62,0,0
1,note_on,62,55,14
1,note_on,69,66,0
1,note_on,66,55,0
1,note_on,57,55,0
1,note_on,66,0,950
1,note_on,62,0,0
1,note_on,69,0,1
1,note_on,57,0,0
1,note_on,57,44,9
1,note_on,62,44,0
1,note_on,66,44,0
1,note_on,69,52,0
1,note_on,69,0,456
1,note_on,57,0,0
1,note_on,62,0,0
1,note_on,66,0,0
1,note_on,57,44,24
1,note_on,62,44,0
1,note_on,66,44,0
1,note_on,69,52,0
1,note_on,69,0,456
1,note_on,57,0,0
1,note_on,62,0,0
1,note_on,66,0,0
1,note_on,66,42,24
1,note_on,57,42,0
1,note_on,69,50,0
1,note_on,62,42,0
1,note_on,62,0,456
1,note_on,66,0,0
1,note_on,57,0,0
1,note_on,69,0,0
1,note_on,62,42,24
1,note_on,57,42,0
1,note_on,67,42,0
1,note_on,69,50,0
1,note_on,69,0,456
1,note_on,62,0,0
1,note_on,57,0,0
1,note_on,67,0,0
1,note_on,57,45,24
1,note_on,62,45,0
1,note_on,69,54,0
1,note_on,69,0,456
1,note_on,62,0,0
1,note_on,57,0,0
1,note_on,66,53,24
1,note_on,74,63,0
1,note_on,62,53,0
1,note_on,62,0,466
1,note_on,74,0,0
1,note_on,66,0,0
1,note_on,69,56,14
1,note_on,78,66,0
1,note_on,66,56,0
1,note_on,66,0,456
1,note_on,78,0,0
1,note_on,69,0,0
1,note_on,78,66,24
1,note_on,66,56,0
1,note_on,69,56,0
1,note_on,69,0,456
1,note_on,66,0,0
1,note_on,78,0,0
1,note_on,66,58,24
1,note_on,78,69,0
1,note_on,69,58,0
1,note_on,69,0,456
1,note_on,78,0,0
1,note_on,66,0,0
1,note_on,66,61,24
1,note_on,78,72,0
1,note_on,69,61,0
1,note_on,69,0,456
1,note_on,78,0,0
1,note_on,66,0,0
1,note_on,70,63,24
1,note_on,66,63,0
1,note_on,78,75,0
1,note_on,78,0,456
1,note_on,66,0,0
1,note_on,70,0,0
1,note_on,66,56,24
1,note_on,70,56,0
1,note_on,78,66,0
1,note_on,78,0,456
1,note_on,70,0,0
1,note_on,66,0,0
1,note_on,78,61,24
1,note_on,70,52,0
1,note_on,66,52,0
1,note_on,66,0,456
1,note_on,70,0,0
1,note_on,78,0,0
1,note_on,70,44,24
1,note_on,78,52,0
1,note_on,66,44,0
1,note_on,66,0,456
1,note_on,78,0,0
1,note_on,70,0,0
1,note_on,78,48,24
1,note_on,66,40,0
1,note_on,70,40,0
1,note_on,70,0,456
1,note_on,66,0,0
1,note_on,78,0,0
1,note_on,78,43,24
1,note_on,66,36,0
1,note_on,70,36,0
1,note_on,70,0,456
1,note_on,66,0,0
1,note_on,78,0,0
1,note_on,69,32,24
1,note_on,78,39,0
1,note_on,66,32,0
1,note_on,66,0,466
1,note_on,78,0,0
1,note_on,69,0,0
1,note_on,79,36,14
1,note_on,67,31,0
1,note_on,69,31,0
1,note_on,69,0,466
1,note_on,67,0,0
1,note_on,79,0,0
1,note_on,81,38,14
1,note_on,69,32,0
1,note_on,69,0,466
1,note_on,81,0,0
1,note_on,66,36,14
1,note_on,62,36,0
1,note_on,74,43,0
1,note_on,74,0,466
1,note_on,62,0,0
1,note_on,66,0,0
1,note_on,67,30,14
1,note_on,64,30,0
1,note_on,76,36,0
1,note_on,73,30,0
1,note_on,73,0,466
1,note_on,67,0,0
1,note_on,64,0,0
1,note_on,76,0,0
1,note_on,69,30,14
1,note_on,66,30,0
1,note_on,74,30,0
1,note_on,78,36,0
1,note_on,78,0,466
1,note_on,69,0,0
1,note_on,66,0,0
1,note_on,74,0,0
1,note_on,67,34,14
1,note_on,76,41,0
1,note_on,69,34,0
1,note_on,73,34,0
1,note_on,73,0,951
1,note_on,67,0,0
1,note_on,76,0,0
1,note_on,69,0,0
1,note_on,66,32,9
1,note_on,69,32,0
1,note_on,74,38,0
1,note_on,74,0,466
1,note_on,69,0,0
1,note_on,66,0,0
1,note_on,66,36,14
1,note_on,74,43,0
1,note_on,69,36,0
1,note_on,69,0,466
1,note_on,74,0,0
1,note_on,66,0,0
1,note_on,62,44,14
1,note_on,62,0,456
1,note_on,62,41,24
1,note_on,62,0,456
1,note_on,59,37,24
1,note_on,62,37,0
1,note_on,71,44,0
1,note_on,71,0,951
1,note_on,62,0,0
1,note_on,59,0,0
1,note_on,59,37,9
1,note_on,71,44,0
1,note_on,62,37,0
1,note_on,62,0,456
1,note_on,71,0,0
1,note_on,59,0,0
1,note_on,62,37,24
1,note_on,59,37,0
1,note_on,71,44,0
1,note_on,71,0,456
1,note_on,59,0,0
1,note_on,62,0,0
1,note_on,62,35,24
1,note_on,59,35,0
1,note_on,71,42,0
1,note_on,71,0,456
1,note_on,59,0,0
1,note_on,62,0,0
1,note_on,62,35,24
1,note_on,71,42,0
1,note_on,59,35,0
1,note_on,59,0,456
1,note_on,71,0,0
1,note_on,62,0,0
1,note_on,71,44,24
1,note_on,59,37,0
1,note_on,62,37,0
1,note_on,62,0,456
1,note_on,59,0,0
1,note_on,71,0,0
1,note_on,76,48,24
1,note_on,64,40,0
1,note_on,67,40,0
1,note_on,67,0,466
1,note_on,64,0,0
1,note_on,76,0,0
1,note_on,62,37,14
1,note_on,67,37,0
1,note_on,74,44,0
1,note_on,74,0,456
1,note_on,67,0,0
1,note_on,62,0,0
1,note_on,62,37,24
1,note_on,74,44,0
1,note_on,67,37,0
1,note_on,67,0,456
1,note_on,74,0,0
1,note_on,62,0,0
1,note_on,67,34,24
1,note_on,74,40,0
1,note_on,62,34,0
1,note_on,62,0,456
1,note_on,74,0,0
1,note_on,67,0,0
1,note_on,62,34,24
1,note_on,74,40,0
1,note_on,67,34,0
1,note_on,67,0,456
1,note_on,74,0,0
1,note_on,62,0,0
1,note_on,62,37,24
1,note_on,74,44,0
1,note_on,67,37,0
1,note_on,67,0,480
1,note_on,74,0,0
1,note_on,62,0,0
1,note_on,57,33,0
1,note_on,62,33,0
1,note_on,69,39,0
1,note_on,69,0,466
1,note_on,62,0,0
1,note_on,57,0,0
1,note_on,60,33,14
1,note_on,62,33,0
1,note_on,72,39,0
1,note_on,72,0,465
1,note_on,60,0,0
1,note_on,62,0,1
1,note_on,62,37,14
1,note_on,72,44,0
1,note_on,60,37,0
1,note_on,60,0,465
1,note_on,72,0,0
1,note_on,62,0,1
1,note_on,62,35,14
1,note_on,71,42,0
1,note_on,59,35,0
1,note_on,59,0,466
1,note_on,71,0,0
1,note_on,62,0,0
1,note_on,62,35,14
1,note_on,69,42,0
1,note_on,57,35,0
1,note_on,57,0,466
1,note_on,69,0,0
1,note_on,62,0,0
1,note_on,57,37,14
1,note_on,69,44,0
1,note_on,62,37,0
1,note_on,62,0,466
1,note_on,69,0,0
1,note_on,57,0,0
1,note_on,59,33,14
1,note_on,71,39,0
1,note_on,62,33,0
1,note_on,62,0,466
1,note_on,71,0,0
1,note_on,59,0,0
1,note_on,62,33,14
1,note_on,71,39,0
1,note_on,59,33,0
1,note_on,59,0,466
1,note_on,71,0,0
1,note_on,62,0,0
1,note_on,62,37,14
1,note_on,71,44,0
1,note_on,59,37,0
1,note_on,59,0,466
1,note_on,71,0,0
1,note_on,62,0,0
1,note_on,62,43,14
1,note_on,69,51,0
1,note_on,57,43,0
1,note_on,57,0,466
1,note_on,69,0,0
1,note_on,62,0,0
1,note_on,55,50,14
1,note_on,67,60,0
1,note_on,62,50,0
1,note_on,62,0,466
1,note_on,67,0,0
1,note_on,55,0,0
1,note_on,66,55,14
1,note_on,62,55,0
1,note_on,69,66,0
1,note_on,57,55,0
1,note_on,62,0,950
1,note_on,66,0,0
1,note_on,69,0,1
1,note_on,57,0,0
1,note_on,66,44,9
1,note_on,62,44,0
1,note_on,69,52,0
1,note_on,57,44,0
1,note_on,57,0,456
1,note_on,66,0,0
1,note_on,62,0,0
1,note_on,69,0,0
1,note_on,57,44,24
1,note_on,62,44,0
1,note_on,69,52,0
1,note_on,66,44,0
1,note_on,66,0,456
1,note_on,57,0,0
1,note_on,62,0,0
1,note_on,69,0,0
1,note_on,57,42,24
1,note_on,62,42,0
1,note_on,66,42,0
1,note_on,69,50,0
1,note_on,69,0,456
1,note_on,57,0,0
1,note_on,62,0,0
1,note_on,66,0,0
1,note_on,62,42,24
1,note_on,69,50,0
1,note_on,67,42,0
1,note_on,57,42,0
1,note_on,57,0,456
1,note_on,62,0,0
1,note_on,69,0,0
1,note_on,67,0,0
1,note_on,62,49,24
1,note_on,57,49,0
1,note_on,69,59,0
1,note_on,69,0,456
1,note_on,57,0,0
1,note_on,62,0,0
1,note_on,66,58,24
1,note_on,62,58,0
1,note_on,74,69,0
1,note_on,74,0,466
1,note_on,62,0,0
1,note_on,66,0,0
1,note_on,69,63,14
1,note_on,78,74,0
1,note_on,66,63,0
1,note_on,66,0,456
1,note_on,78,0,0
1,note_on,69,0,0
1,note_on,78,75,24
1,note_on,66,63,0
1,note_on,69,63,0
1,note_on,69,0,456
1,note_on,66,0,0
1,note_on,78,0,0
1,note_on,78,80,24
1,note_on,66,67,0
1,note_on,69,67,0
1,note_on,69,0,456
1,note_on,66,0,0
1,note_on,78,0,0
1,note_on,66,71,24
1,note_on,69,71,0
1,note_on,78,84,0
1,note_on,78,0,456
1,note_on,69,0,0
1,note_on,66,0,0
1,note_on,66,70,24
1,note_on,78,84,0
1,note_on,70,70,0
1,note_on,70,0,456
1,note_on,78,0,0
1,note_on,66,0,0
1,note_on,70,61,24
1,note_on,66,61,0
1,note_on,78,72,0
1,note_on,78,0,456
1,note_on,66,0,0
1,note_on,70,0,0
1,note_on,70,56,24
1,note_on,66,56,0
1,note_on,78,65,0
1,note_on,78,0,456
1,note_on,66,0,0
1,note_on,70,0,0
1,note_on,78,55,24
1,note_on,70,46,0
1,note_on,66,46,0
1,note_on,66,0,456
1,note_on,70,0,0
1,note_on,78,0,0
1,note_on,66,41,24
1,note_on,70,41,0
1,note_on,78,49,0
1,note_on,78,0,456
1,note_on,70,0,0
1,note_on,66,0,0
1,note_on,66,36,24
1,note_on,78,43,0
1,note_on,70,36,0
1,note_on,70,0,456
1,note_on,78,0,0
1,note_on,66,0,0
1,note_on,69,32,24
1,note_on,66,32,0
1,note_on,78,39,0
1,note_on,78,0,466
1,note_on,66,0,0
1,note_on,69,0,0
1,note_on,69,31,14
1,note_on,67,31,0
1,note_on,79,36,0
1,note_on,79,0,466
1,note_on,67,0,0
1,note_on,69,0,0
1,note_on,81,38,14
1,note_on,69,32,0
1,note_on,69,0,466
1,note_on,81,0,0
1,note_on,62,36,14
1,note_on,66,36,0
1,note_on,74,43,0
1,note_on,74,0,466
1,note_on,66,0,0
1,note_on,62,0,0
1,note_on,64,30,14
1,note_on,76,36,0
1,note_on,67,30,0
1,note_on,73,30,0
1,note_on,73,0,466
1,note_on,64,0,0
1,note_on,76,0,0
1,note_on,67,0,0
1,note_on,66,30,14
1,note_on,78,36,0
1,note_on,69,30,0
1,note_on,74,30,0
1,note_on,74,0,466
1,note_on,66,0,0
1,note_on,78,0,0
1,note_on,69,0,0
1,note_on,69,34,14
1,note_on,73,34,0
1,note_on,67,34,0
1,note_on,76,41,0
1,note_on,76,0,951
1,note_on,69,0,0
1,note_on,73,0,0
1,note_on,67,0,0
1,note_on,69,32,9
1,note_on,74,38,0
1,note_on,66,32,0
1,note_on,66,0,466
1,note_on,74,0,0
1,note_on,69,0,0
1,note_on,69,36,14
1,note_on,74,43,0
1,note_on,66,36,0
1,note_on,66,0,466
1,note_on,74,0,0
1,note_on,69,0,0
1,note_on,74,44,14
1,note_on,74,0,456
1,note_on,74,46,24
1,note_on,74,0,456
1,note_on,64,48,24
1,note_on,67,48,0
1,note_on,76,57,0
1,note_on,72,48,0
1,note_on,67,0,950
1,note_on,64,0,0
1,note_on,76,0,1
1,note_on,72,0,0
1,note_on,67,37,9
1,note_on,76,44,0
1,note_on,64,37,0
1,note_on,72,37,0
1,note_on,72,0,456
1,note_on,67,0,0
1,note_on,76,0,0
1,note_on,64,0,0
1,note_on,64,37,24
1,note_on,72,37,0
1,note_on,76,44,0
1,note_on,67,37,0
1,note_on,67,0,456
1,note_on,64,0,0
1,note_on,72,0,0
1,note_on,76,0,0
1,note_on,76,42,24
1,note_on,67,35,0
1,note_on,72,35,0
1,note_on,64,35,0
1,note_on,64,0,456
1,note_on,76,0,0
1,note_on,67,0,0
1,note_on,72,0,0
1,note_on,64,35,24
1,note_on,72,35,0
1,note_on,76,42,0
1,note_on,67,35,0
1,note_on,67,0,456
1,note_on,64,0,0
1,note_on,72,0,0
1,note_on,76,0,0
1,note_on,76,44,24
1,note_on,64,37,0
1,note_on,67,37,0
1,note_on,67,0,456
1,note_on,64,0,0
1,note_on,76,0,0
1,note_on,62,40,24
1,note_on,74,48,0
1,note_on,67,40,0
1,note_on,67,0,466
1,note_on,74,0,0
1,note_on,62,0,0
1,note_on,60,37,14
1,note_on,72,44,0
1,note_on,67,37,0
1,note_on,67,0,456
1,note_on,72,0,0
1,note_on,60,0,0
1,note_on,67,37,24
1,note_on,60,37,0
1,note_on,72,44,0
1,note_on,72,0,456
1,note_on,60,0,0
1,note_on,67,0,0
1,note_on,62,40,24
1,note_on,67,40,0
1,note_on,74,48,0
1,note_on,74,0,456
1,note_on,67,0,0
1,note_on,62,0,0
1,note_on,67,46,24
1,note_on,76,54,0
1,note_on,64,46,0
1,note_on,64,0,456
1,note_on,76,0,0
1,note_on,67,0,0
1,note_on,70,56,24
1,note_on,79,67,0
1,note_on,67,56,0
1,note_on,67,0,950
1,note_on,70,0,0
1,note_on,79,0,1
1,note_on,79,60,9
1,note_on,67,50,0
1,note_on,70,50,0
1,note_on,70,0,456
1,note_on,67,0,0
1,note_on,79,0,0
1,note_on,70,50,24
1,note_on,79,60,0
1,note_on,67,50,0
1,note_on,67,0,456
1,note_on,79,0,0
1,note_on,70,0,0
1,note_on,67,47,24
1,note_on,70,47,0
1,note_on,79,57,0
1,note_on,79,0,456
1,note_on,70,0,0
1,note_on,67,0,0
1,note_on,67,47,24
1,note_on,70,47,0
1,note_on,79,57,0
1,note_on,79,0,456
1,note_on,70,0,0
1,note_on,67,0,0
1,note_on,67,50,24
1,note_on,70,50,0
1,note_on,79,60,0
1,note_on,79,0,456
1,note_on,70,0,0
1,note_on,67,0,0
1,note_on,65,55,24
1,note_on,70,55,0
1,note_on,77,66,0
1,note_on,77,0,465
1,note_on,70,0,0
1,note_on,65,0,0
1,note_on,63,50,15
1,note_on,70,50,0
1,note_on,75,60,0
1,note_on,75,0,456
1,note_on,70,0,0
1,note_on,63,0,0
1,note_on,63,50,24
1,note_on,70,50,0
1,note_on,75,60,0
1,note_on,75,0,456
1,note_on,70,0,0
1,note_on,63,0,0
1,note_on,65,55,24
1,note_on,70,55,0
1,note_on,77,66,0
1,note_on,77,0,456
1,note_on,70,0,0
1,note_on,65,0,0
1,note_on,67,59,24
1,note_on,70,59,0
1,note_on,79,71,0
1,note_on,79,0,456
1,note_on,70,0,0
1,note_on,67,0,0
1,note_on,73,63,24
1,note_on,70,63,0
1,note_on,82,76,0
1,note_on,82,0,950
1,note_on,70,0,0
1,note_on,73,0,0
1,note_on,73,57,10
1,note_on,70,57,0
1,note_on,82,68,0
1,note_on,82,0,456
1,note_on,70,0,0
1,note_on,73,0,0
1,note_on,73,57,24
1,note_on,70,57,0
1,note_on,82,68,0
1,note_on,82,0,456
1,note_on,70,0,0
1,note_on,73,0,0
1,note_on,70,53,24
1,note_on,73,53,0
1,note_on,82,65,0
1,note_on,82,0,456
1,note_on,73,0,0
1,note_on,70,0,0
1,note_on,73,53,24
1,note_on,70,53,0
1,note_on,82,65,0
1,note_on,82,0,456
1,note_on,70,0,0
1,note_on,73,0,0
1,note_on,73,57,24
1,note_on,70,57,0
1,note_on,82,68,0
1,note_on,82,0,456
1,note_on,70,0,0
1,note_on,73,0,0
1,note_on,68,56,24
1,note_on,73,56,0
1,note_on,80,67,0
1,note_on,80,0,465
1,note_on,73,0,0
1,note_on,68,0,0
1,note_on,66,57,15
1,note_on,73,57,0
1,note_on,78,68,0
1,note_on,78,0,456
1,note_on,73,0,0
1,note_on,66,0,0
1,note_on,70,57,24
1,note_on,78,57,0
1,note_on,82,68,0
1,note_on,82,0,456
1,note_on,78,0,0
1,note_on,70,0,0
1,note_on,71,65,24
1,note_on,78,65,0
1,note_on,83,78,0
1,note_on,83,0,456
1,note_on,78,0,0
1,note_on,71,0,0
1,note_on,73,73,24
1,note_on,78,73,0
1,note_on,85,89,0
1,note_on,85,0,456
1,note_on,78,0,0
1,note_on,73,0,0
1,note_on,78,82,24
1,note_on,74,82,0
1,note_on,86,100,0
1,note_on,86,0,950
1,note_on,74,0,0
1,note_on,78,0,0
1,note_on,78,74,10
1,note_on,74,74,0
1,note_on,86,89,0
1,note_on,86,0,456
1,note_on,74,0,0
1,note_on,78,0,0
1,note_on,78,74,24
1,note_on,74,74,0
1,note_on,86,89,0
1,note_on,86,0,456
1,note_on,74,0,0
1,note_on,78,0,0
1,note_on,78,69,24
1,note_on,74,69,0
1,note_on,86,85,0
1,note_on,86,0,456
1,note_on,74,0,0
1,note_on,78,0,0
1,note_on,74,69,24
1,note_on,78,69,0
1,note_on,86,85,0
1,note_on,86,0,456
1,note_on,78,0,0
1,note_on,74,0,0
1,note_on,86,82,24
1,note_on,77,82,0
1,note_on,79,82,0
1,note_on,83,82,0
1,note_on,91,100,0
1,note_on,91,0,950
1,note_on,79,0,0
1,note_on,86,0,0
1,note_on,77,0,0
1,note_on,83,0,0
1,note_on,91,89,10
1,note_on,77,74,0
1,note_on,79,74,0
1,note_on,86,74,0
1,note_on,83,74,0
1,note_on,83,0,456
1,note_on,79,0,0
1,note_on,91,0,0
1,note_on,77,0,0
1,note_on,86,0,0
1,note_on,86,74,24
1,note_on,77,74,0
1,note_on,79,74,0
1,note_on,83,74,0
1,note_on,91,89,0
1,note_on,91,0,456
1,note_on,79,0,0
1,note_on,86,0,0
1,note_on,77,0,0
1,note_on,83,0,0
1,note_on,83,64,24
1,note_on,77,64,0
1,note_on,79,64,0
1,note_on,86,64,0
1,note_on,91,79,0
1,note_on,91,0,456
1,note_on,79,0,0
1,note_on,83,0,0
1,note_on,77,0,0
1,note_on,86,0,0
1,note_on,91,73,24
1,note_on,77,60,0
1,note_on,79,60,0
1,note_on,86,60,0
1,note_on,83,60,0
1,note_on,83,0,456
1,note_on,79,0,0
1,note_on,91,0,0
1,note_on,77,0,0
1,note_on,86,0,0
1,note_on,84,58,24
1,note_on,76,58,0
1,note_on,79,58,0
1,note_on,88,69,0
1,note_on,88,0,931
1,note_on,84,0,0
1,note_on,76,0,0
1,note_on,79,0,0
1,note_on,76,38,29
1,note_on,64,32,0
1,note_on,72,32,0
1,note_on,72,0,456
1,note_on,64,0,0
1,note_on,76,0,0
1,note_on,76,43,24
1,note_on,64,36,0
1,note_on,72,36,0
1,note_on,72,0,456
1,note_on,64,0,0
1,note_on,76,0,0
1,note_on,76,38,24
1,note_on,64,32,0
1,note_on,72,32,0
1,note_on,72,0,456
1,note_on,64,0,0
1,note_on,76,0,0
1,note_on,64,32,24
1,note_on,72,32,0
1,note_on,76,38,0
1,note_on,76,0,456
1,note_on,72,0,0
1,note_on,64,0,0
1,note_on,64,36,24
1,note_on,72,36,0
1,note_on,76,43,0
1,note_on,76,0,931
1,note_on,72,0,0
1,note_on,74,38,29
1,note_on,71,32,0
1,note_on,71,0,456
1,note_on,74,0,0
1,note_on,64,0,24
1,note_on,64,37,0
1,note_on,71,37,0
1,note_on,74,44,0
1,note_on,74,0,931
1,note_on,71,0,0
1,note_on,69,31,29
1,note_on,72,36,0
1,note_on,72,0,456
1,note_on,69,0,0
1,note_on,64,0,24
1,note_on,64,35,0
1,note_on,69,35,0
1,note_on,72,41,0
1,note_on,72,0,931
1,note_on,69,0,0
1,note_on,64,0,0
1,note_on,67,27,29
1,note_on,71,32,0
1,note_on,71,0,456
1,note_on,67,0,0
1,note_on,67,32,24
1,note_on,71,38,0
1,note_on,71,0,931
1,note_on,67,0,0
1,note_on,62,26,29
1,note_on,66,26,0
1,note_on,69,30,0
1,note_on,69,0,456
1,note_on,66,0,0
1,note_on,62,0,0
1,note_on,66,29,24
1,note_on,62,29,0
1,note_on,69,35,0
1,note_on,69,0,931
1,note_on,62,0,0
1,note_on,66,0,0
1,note_on,62,25,29
1,note_on,66,25,0
1,note_on,69,29,0
1,note_on,69,0,456
1,note_on,66,0,0
1,note_on,62,0,0
1,note_on,62,27,24
1,note_on,66,27,0
1,note_on,69,31,0
1,note_on,69,0,456
1,note_on,66,0,0
1,note_on,62,0,0
1,note_on,62,25,24
1,note_on,66,25,0
1,note_on,69,29,0
1,note_on,69,0,456
1,note_on,66,0,0
1,note_on,62,0,0
1,note_on,62,25,24
1,note_on,66,25,0
1,note_on,69,29,0
1,note_on,69,0,456
1,note_on,66,0,0
1,note_on,62,0,0
1,note_on,66,29,24
1,note_on,62,29,0
1,note_on,69,35,0
1,note_on,69,0,931
1,note_on,62,0,0
1,note_on,66,0,0
1,note_on,62,25,29
1,note_on,66,25,0
1,note_on,69,29,0
1,note_on,69,0,456
1,note_on,66,0,0
1,note_on,62,0,0
1,note_on,62,27,24
1,note_on,66,27,0
1,note_on,69,31,0
1,note_on,69,0,456
1,note_on,66,0,0
1,note_on,62,0,0
1,note_on,62,25,24
1,note_on,66,25,0
1,note_on,69,29,0
1,note_on,69,0,456
1,note_on,66,0,0
1,note_on,62,0,0
1,note_on,62,25,24
1,note_on,66,25,0
1,note_on,69,29,0
1,note_on,69,0,456
1,note_on,66,0,0
1,note_on,62,0,0
1,note_on,63,29,24
1,note_on,66,29,0
1,note_on,71,35,0
1,note_on,63,0,950
1,note_on,71,0,1
1,note_on,66,0,0
1,note_on,63,29,9
1,note_on,66,29,0
1,note_on,71,35,0
1,note_on,71,0,456
1,note_on,66,0,0
1,note_on,63,0,0
1,note_on,66,29,24
1,note_on,63,29,0
1,note_on,71,35,0
1,note_on,71,0,456
1,note_on,63,0,0
1,note_on,66,0,0
1,note_on,63,28,24
1,note_on,66,28,0
1,note_on,71,33,0
1,note_on,71,0,456
1,note_on,66,0,0
1,note_on,63,0,0
1,note_on,63,28,24
1,note_on,66,28,0
1,note_on,71,33,0
1,note_on,71,0,456
1,note_on,66,0,0
1,note_on,63,0,0
1,note_on,62,33,24
1,note_on,67,33,0
1,note_on,71,39,0
1,note_on,71,0,456
1,note_on,67,0,0
1,note_on,62,0,0
1,note_on,64,36,24
1,note_on,67,36,0
1,note_on,76,43,0
1,note_on,76,0,466
1,note_on,67,0,0
1,note_on,64,0,0
1,note_on,67,33,14
1,note_on,74,39,0
1,note_on,62,33,0
1,note_on,62,0,456
1,note_on,74,0,0
1,note_on,67,0,0
1,note_on,67,33,24
1,note_on,74,39,0
1,note_on,62,33,0
1,note_on,62,0,456
1,note_on,74,0,0
1,note_on,67,0,0
1,note_on,74,36,24
1,note_on,62,30,0
1,note_on,67,30,0
1,note_on,67,0,456
1,note_on,62,0,0
1,note_on,74,0,0
1,note_on,62,30,24
1,note_on,74,36,0
1,note_on,67,30,0
1,note_on,67,0,456
1,note_on,74,0,0
1,note_on,62,0,0
1,note_on,62,33,24
1,note_on,74,39,0
1,note_on,67,33,0
1,note_on,67,0,480
1,note_on,74,0,0
1,note_on,62,0,0
1,note_on,62,29,0
1,note_on,57,29,0
1,note_on,69,35,0
1,note_on,69,0,466
1,note_on,57,0,0
1,note_on,62,0,0
1,note_on,60,29,14
1,note_on,62,29,0
1,note_on,72,35,0
1,note_on,72,0,465
1,note_on,60,0,0
1,note_on,62,0,1
1,note_on,72,39,14
1,note_on,62,33,0
1,note_on,60,33,0
1,note_on,60,0,465
1,note_on,72,0,0
1,note_on,62,0,1
1,note_on,59,31,14
1,note_on,71,37,0
1,note_on,62,31,0
1,note_on,62,0,466
1,note_on,71,0,0
1,note_on,59,0,0
1,note_on,57,31,14
1,note_on,69,37,0
1,note_on,62,31,0
1,note_on,62,0,466
1,note_on,69,0,0
1,note_on,57,0,0
1,note_on,62,33,14
1,note_on,57,33,0
1,note_on,69,39,0
1,note_on,69,0,466
1,note_on,57,0,0
1,note_on,62,0,0
1,note_on,59,33,14
1,note_on,62,33,0
1,note_on,71,39,0
1,note_on,71,0,466
1,note_on,62,0,0
1,note_on,59,0,0
1,note_on,62,33,14
1,note_on,71,39,0
1,note_on,59,33,0
1,note_on,59,0,466
1,note_on,71,0,0
1,note_on,62,0,0
1,note_on,62,37,14
1,note_on,71,44,0
1,note_on,59,37,0
1,note_on,59,0,466
1,note_on,71,0,0
1,note_on,62,0,0
1,note_on,71,51,14
1,note_on,59,43,0
1,note_on,67,43,0
1,note_on,67,0,466
1,note_on,59,0,0
1,note_on,71,0,0
1,note_on,60,50,14
1,note_on,72,60,0
1,note_on,67,50,0
1,note_on,67,0,466
1,note_on,72,0,0
1,note_on,60,0,0
1,note_on,67,55,14
1,note_on,74,66,0
1,note_on,62,55,0
1,note_on,62,0,950
1,note_on,67,0,0
1,note_on,74,0,1
1,note_on,62,44,9
1,note_on,74,52,0
1,note_on,67,44,0
1,note_on,67,0,456
1,note_on,74,0,0
1,note_on,62,0,0
1,note_on,62,44,24
1,note_on,74,52,0
1,note_on,67,44,0
1,note_on,67,0,456
1,note_on,74,0,0
1,note_on,62,0,0
1,note_on,60,42,24
1,note_on,72,50,0
1,note_on,67,42,0
1,note_on,67,0,456
1,note_on,72,0,0
1,note_on,60,0,0
1,note_on,59,42,24
1,note_on,71,50,0
1,note_on,67,42,0
1,note_on,67,0,456
1,note_on,71,0,0
1,note_on,59,0,0
1,note_on,62,45,24
1,note_on,74,54,0
1,note_on,67,45,0
1,note_on,67,0,456
1,note_on,74,0,0
1,note_on,62,0,0
1,note_on,67,53,24
1,note_on,79,63,0
1,note_on,71,53,0
1,note_on,71,0,466
1,note_on,79,0,0
1,note_on,67,0,0
1,note_on,71,56,14
1,note_on,74,56,0
1,note_on,83,66,0
1,note_on,83,0,456
1,note_on,74,0,0
1,note_on,71,0,0
1,note_on,71,56,24
1,note_on,74,56,0
1,note_on,83,66,0
1,note_on,83,0,456
1,note_on,74,0,0
1,note_on,71,0,0
1,note_on,74,58,24
1,note_on,83,69,0
1,note_on,71,58,0
1,note_on,71,0,456
1,note_on,83,0,0
1,note_on,74,0,0
1,note_on,74,61,24
1,note_on,83,72,0
1,note_on,71,61,0
1,note_on,71,0,456
1,note_on,83,0,0
1,note_on,74,0,0
1,note_on,75,63,24
1,note_on,83,75,0
1,note_on,71,63,0
1,note_on,71,0,456
1,note_on,83,0,0
1,note_on,75,0,0
1,note_on,71,56,24
1,note_on,83,66,0
1,note_on,75,56,0
1,note_on,75,0,456
1,note_on,83,0,0
1,note_on,71,0,0
1,note_on,71,52,24
1,note_on,83,61,0
1,note_on,75,52,0
1,note_on,75,0,456
1,note_on,83,0,0
1,note_on,71,0,0
1,note_on,75,44,24
1,note_on,83,52,0
1,note_on,71,44,0
1,note_on,71,0,456
1,note_on,83,0,0
1,note_on,75,0,0
1,note_on,75,40,24
1,note_on,83,48,0
1,note_on,71,40,0
1,note_on,71,0,456
1,note_on,83,0,0
1,note_on,75,0,0
1,note_on,75,36,24
1,note_on,83,43,0
1,note_on,71,36,0
1,note_on,71,0,456
1,note_on,83,0,0
1,note_on,75,0,0
1,note_on,71,32,24
1,note_on,83,39,0
1,note_on,74,32,0
1,note_on,74,0,466
1,note_on,83,0,0
1,note_on,71,0,0
1,note_on,72,31,14
1,note_on,84,36,0
1,note_on,74,31,0
1,note_on,74,0,466
1,note_on,84,0,0
1,note_on,72,0,0
1,note_on,74,32,14
1,note_on,86,38,0
1,note_on,86,0,466
1,note_on,74,0,0
1,note_on,71,36,14
1,note_on,79,43,0
1,note_on,67,36,0
1,note_on,67,0,466
1,note_on,79,0,0
1,note_on,71,0,0
1,note_on,74,30,14
1,note_on,78,30,0
1,note_on,81,36,0
1,note_on,69,30,0
1,note_on,69,0,466
1,note_on,74,0,0
1,note_on,78,0,0
1,note_on,81,0,0
1,note_on,74,30,14
1,note_on,79,30,0
1,note_on,71,30,0
1,note_on,83,36,0
1,note_on,83,0,466
1,note_on,74,0,0
1,note_on,79,0,0
1,note_on,71,0,0
1,note_on,72,34,14
1,note_on,74,34,0
1,note_on,78,34,0
1,note_on,81,41,0
1,note_on,81,0,951
1,note_on,72,0,0
1,note_on,74,0,0
1,note_on,78,0,0
1,note_on,71,32,9
1,note_on,74,32,0
1,note_on,79,38,0
1,note_on,79,0,466
1,note_on,74,0,0
1,note_on,71,0,0
1,note_on,71,36,14
1,note_on,74,36,0
1,note_on,79,43,0
1,note_on,79,0,466
1,note_on,74,0,0
1,note_on,71,0,0
1,note_on,74,44,14
1,note_on,74,0,456
1,note_on,74,46,24
1,note_on,74,0,456
1,note_on,67,46,24
1,note_on,64,46,0
1,note_on,72,46,0
1,note_on,76,55,0
1,note_on,64,0,950
1,note_on,67,0,0
1,note_on,72,0,1
1,note_on,76,0,0
1,note_on,67,37,9
1,note_on,64,37,0
1,note_on,72,37,0
1,note_on,76,44,0
1,note_on,76,0,456
1,note_on,67,0,0
1,note_on,64,0,0
1,note_on,72,0,0
1,note_on,64,37,24
1,note_on,67,37,0
1,note_on,72,37,0
1,note_on,76,44,0
1,note_on,76,0,456
1,note_on,64,0,0
1,note_on,67,0,0
1,note_on,72,0,0
1,note_on,72,35,24
1,note_on,64,35,0
1,note_on,67,35,0
1,note_on,76,42,0
1,note_on,76,0,456
1,note_on,72,0,0
1,note_on,64,0,0
1,note_on,67,0,0
1,note_on,64,35,24
1,note_on,67,35,0
1,note_on,72,35,0
1,note_on,76,42,0
1,note_on,76,0,456
1,note_on,64,0,0
1,note_on,67,0,0
1,note_on,72,0,0
1,note_on,64,37,24
1,note_on,67,37,0
1,note_on,76,44,0
1,note_on,76,0,456
1,note_on,67,0,0
1,note_on,64,0,0
1,note_on,62,40,24
1,note_on,67,40,0
1,note_on,74,48,0
1,note_on,74,0,466
1,note_on,67,0,0
1,note_on,62,0,0
1,note_on,60,37,14
1,note_on,67,37,0
1,note_on,72,44,0
1,note_on,72,0,456
1,note_on,67,0,0
1,note_on,60,0,0
1,note_on,60,37,24
1,note_on,67,37,0
1,note_on,72,44,0
1,note_on,72,0,456
1,note_on,67,0,0
1,note_on,60,0,0
1,note_on,62,40,24
1,note_on,67,40,0
1,note_on,74,48,0
1,note_on,74,0,456
1,note_on,67,0,0
1,note_on,62,0,0
1,note_on,64,46,24
1,note_on,67,46,0
1,note_on,76,54,0
1,note_on,76,0,456
1,note_on,67,0,0
1,note_on,64,0,0
1,note_on,67,56,24
1,note_on,70,56,0
1,note_on,79,67,0
1,note_on,70,0,950
1,note_on,67,0,0
1,note_on,79,0,1
1,note_on,67,50,9
1,note_on,70,50,0
1,note_on,79,60,0
1,note_on,79,0,456
1,note_on,70,0,0
1,note_on,67,0,0
1,note_on,67,50,24
1,note_on,70,50,0
1,note_on,79,60,0
1,note_on,79,0,456
1,note_on,70,0,0
1,note_on,67,0,0
1,note_on,67,47,24
1,note_on,79,57,0
1,note_on,70,47,0
1,note_on,70,0,456
1,note_on,79,0,0
1,note_on,67,0,0
1,note_on,70,47,24
1,note_on,79,57,0
1,note_on,67,47,0
1,note_on,67,0,456
1,note_on,79,0,0
1,note_on,70,0,0
1,note_on,70,50,24
1,note_on,79,60,0
1,note_on,67,50,0
1,note_on,67,0,456
1,note_on,79,0,0
1,note_on,70,0,0
1,note_on,70,55,24
1,note_on,77,66,0
1,note_on,65,55,0
1,note_on,65,0,465
1,note_on,77,0,0
1,note_on,70,0,0
1,note_on,63,50,15
1,note_on,75,60,0
1,note_on,70,50,0
1,note_on,70,0,456
1,note_on,75,0,0
1,note_on,63,0,0
1,note_on,63,50,24
1,note_on,75,60,0
1,note_on,70,50,0
1,note_on,70,0,456
1,note_on,75,0,0
1,note_on,63,0,0
1,note_on,65,55,24
1,note_on,70,55,0
1,note_on,77,66,0
1,note_on,77,0,456
1,note_on,70,0,0
1,note_on,65,0,0
1,note_on,67,59,24
1,note_on,70,59,0
1,note_on,79,71,0
1,note_on,79,0,456
1,note_on,70,0,0
1,note_on,67,0,0
1,note_on,70,63,24
1,note_on,82,76,0
1,note_on,73,63,0
1,note_on,73,0,950
1,note_on,82,0,0
1,note_on,70,0,0
1,note_on,70,57,10
1,note_on,82,68,0
1,note_on,73,57,0
1,note_on,73,0,456
1,note_on,82,0,0
1,note_on,70,0,0
1,note_on,70,57,24
1,note_on,82,68,0
1,note_on,73,57,0
1,note_on,73,0,456
1,note_on,82,0,0
1,note_on,70,0,0
1,note_on,70,53,24
1,note_on,73,53,0
1,note_on,82,65,0
1,note_on,82,0,456
1,note_on,73,0,0
1,note_on,70,0,0
1,note_on,73,53,24
1,note_on,70,53,0
1,note_on,82,65,0
1,note_on,82,0,456
1,note_on,70,0,0
1,note_on,73,0,0
1,note_on,70,57,24
1,note_on,82,68,0
1,note_on,73,57,0
1,note_on,73,0,456
1,note_on,82,0,0
1,note_on,70,0,0
1,note_on,73,56,24
1,note_on,80,67,0
1,note_on,68,56,0
1,note_on,68,0,465
1,note_on,80,0,0
1,note_on,73,0,0
1,note_on,73,57,15
1,note_on,78,68,0
1,note_on,66,57,0
1,note_on,66,0,456
1,note_on,78,0,0
1,note_on,73,0,0
1,note_on,70,57,24
1,note_on,82,68,0
1,note_on,78,57,0
1,note_on,78,0,456
1,note_on,82,0,0
1,note_on,70,0,0
1,note_on,71,65,24
1,note_on,83,78,0
1,note_on,78,65,0
1,note_on,78,0,456
1,note_on,83,0,0
1,note_on,71,0,0
1,note_on,73,73,24
1,note_on,78,73,0
1,note_on,85,89,0
1,note_on,85,0,456
1,note_on,78,0,0
1,note_on,73,0,0
1,note_on,78,82,24
1,note_on,74,82,0
1,note_on,86,100,0
1,note_on,86,0,950
1,note_on,74,0,0
1,note_on,78,0,0
1,note_on,78,74,10
1,note_on,74,74,0
1,note_on,86,89,0
1,note_on,86,0,456
1,note_on,74,0,0
1,note_on,78,0,0
1,note_on,74,74,24
1,note_on,86,89,0
1,note_on,78,74,0
1,note_on,78,0,456
1,note_on,86,0,0
1,note_on,74,0,0
1,note_on,78,69,24
1,note_on,86,85,0
1,note_on,74,69,0
1,note_on,74,0,456
1,note_on,86,0,0
1,note_on,78,0,0
1,note_on,86,85,24
1,note_on,78,69,0
1,note_on,74,69,0
1,note_on,74,0,456
1,note_on,78,0,0
1,note_on,86,0,0
1,note_on,77,82,24
1,note_on,86,82,0
1,note_on,83,82,0
1,note_on,79,82,0
1,note_on,91,100,0
1,note_on,91,0,950
1,note_on,83,0,0
1,note_on,77,0,0
1,note_on,86,0,0
1,note_on,79,0,0
1,note_on,79,74,10
1,note_on,86,74,0
1,note_on,77,74,0
1,note_on,91,89,0
1,note_on,83,74,0
1,note_on,83,0,456
1,note_on,77,0,0
1,note_on,79,0,0
1,note_on,86,0,0
1,note_on,91,0,0
1,note_on,77,74,24
1,note_on,91,89,0
1,note_on,83,74,0
1,note_on,79,74,0
1,note_on,86,74,0
1,note_on,86,0,456
1,note_on,83,0,0
1,note_on,77,0,0
1,note_on,91,0,0
1,note_on,79,0,0
1,note_on,77,64,24
1,note_on,83,64,0
1,note_on,86,64,0
1,note_on,79,64,0
1,note_on,91,79,0
1,note_on,91,0,456
1,note_on,86,0,0
1,note_on,77,0,0
1,note_on,83,0,0
1,note_on,79,0,0
1,note_on,79,60,24
1,note_on,86,60,0
1,note_on,77,60,0
1,note_on,91,73,0
1,note_on,83,60,0
1,note_on,83,0,456
1,note_on,77,0,0
1,note_on,79,0,0
1,note_on,86,0,0
1,note_on,91,0,0
1,note_on,76,58,24
1,note_on,88,69,0
1,note_on,79,58,0
1,note_on,84,58,0
1,note_on,84,0,931
1,note_on,76,0,0
1,note_on,88,0,0
1,note_on,79,0,0
1,note_on,64,32,29
1,note_on,76,38,0
1,note_on,72,32,0
1,note_on,72,0,456
1,note_on,76,0,0
1,note_on,64,0,0
1,note_on,64,36,24
1,note_on,76,43,0
1,note_on,72,36,0
1,note_on,72,0,456
1,note_on,76,0,0
1,note_on,64,0,0
1,note_on,72,32,24
1,note_on,64,32,0
1,note_on,76,38,0
1,note_on,76,0,456
1,note_on,64,0,0
1,note_on,72,0,0
1,note_on,64,32,24
1,note_on,72,32,0
1,note_on,76,38,0
1,note_on,76,0,456
1,note_on,72,0,0
1,note_on,64,0,0
1,note_on,76,43,24
1,note_on,72,36,0
1,note_on,64,36,0
1,note_on,72,0,931
1,note_on,76,0,0
1,note_on,71,32,29
1,note_on,74,38,0
1,note_on,74,0,456
1,note_on,71,0,0
1,note_on,64,0,24
1,note_on,74,44,0
1,note_on,71,37,0
1,note_on,64,37,0
1,note_on,71,0,931
1,note_on,74,0,0
1,note_on,69,31,29
1,note_on,72,36,0
1,note_on,72,0,456
1,note_on,69,0,0
1,note_on,64,0,24
1,note_on,64,35,0
1,note_on,69,35,0
1,note_on,72,41,0
1,note_on,72,0,931
1,note_on,69,0,0
1,note_on,64,0,0
1,note_on,67,27,29
1,note_on,71,32,0
1,note_on,71,0,456
1,note_on,67,0,0
1,note_on,67,32,24
1,note_on,71,38,0
1,note_on,71,0,931
1,note_on,67,0,0
1,note_on,62,26,29
1,note_on,66,26,0
1,note_on,69,30,0
1,note_on,69,0,456
1,note_on,66,0,0
1,note_on,62,0,0
1,note_on,66,29,24
1,note_on,62,29,0
1,note_on,69,35,0
1,note_on,69,0,931
1,note_on,62,0,0
1,note_on,66,0,0
1,note_on,62,25,29
1,note_on,66,25,0
1,note_on,69,29,0
1,note_on,69,0,456
1,note_on,66,0,0
1,note_on,62,0,0
1,note_on,62,27,24
1,note_on,66,27,0
1,note_on,69,31,0
1,note_on,69,0,456
1,note_on,66,0,0
1,note_on,62,0,0
1,note_on,62,25,24
1,note_on,66,25,0
1,note_on,69,29,0
1,note_on,69,0,456
1,note_on,66,0,0
1,note_on,62,0,0
1,note_on,62,25,24
1,note_on,66,25,0
1,note_on,69,29,0
1,note_on,69,0,456
1,note_on,66,0,0
1,note_on,62,0,0
1,note_on,66,29,24
1,note_on,62,29,0
1,note_on,69,35,0
1,note_on,69,0,931
1,note_on,62,0,0
1,note_on,66,0,0
1,note_on,62,25,29
1,note_on,66,25,0
1,note_on,69,29,0
1,note_on,69,0,456
1,note_on,66,0,0
1,note_on,62,0,0
1,note_on,62,27,24
1,note_on,66,27,0
1,note_on,69,31,0
1,note_on,69,0,456
1,note_on,66,0,0
1,note_on,62,0,0
1,note_on,62,25,24
1,note_on,66,25,0
1,note_on,69,29,0
1,note_on,69,0,456
1,note_on,66,0,0
1,note_on,62,0,0
1,note_on,62,25,24
1,note_on,66,25,0
1,note_on,69,29,0
1,note_on,69,0,456
1,note_on,66,0,0
1,note_on,62,0,0
1,note_on,63,29,24
1,note_on,66,29,0
1,note_on,71,35,0
1,note_on,63,0,950
1,note_on,71,0,1
1,note_on,66,0,0
1,note_on,63,29,9
1,note_on,66,29,0
1,note_on,71,35,0
1,note_on,71,0,456
1,note_on,66,0,0
1,note_on,63,0,0
1,note_on,66,29,24
1,note_on,63,29,0
1,note_on,71,35,0
1,note_on,71,0,456
1,note_on,63,0,0
1,note_on,66,0,0
1,note_on,63,28,24
1,note_on,66,28,0
1,note_on,71,33,0
1,note_on,71,0,456
1,note_on,66,0,0
1,note_on,63,0,0
1,note_on,63,28,24
1,note_on,66,28,0
1,note_on,71,33,0
1,note_on,71,0,456
1,note_on,66,0,0
1,note_on,63,0,0
1,note_on,62,33,24
1,note_on,67,33,0
1,note_on,71,39,0
1,note_on,71,0,456
1,note_on,67,0,0
1,note_on,62,0,0
1,note_on,64,36,24
1,note_on,67,36,0
1,note_on,76,43,0
1,note_on,76,0,466
1,note_on,67,0,0
1,note_on,64,0,0
1,note_on,67,33,14
1,note_on,62,33,0
1,note_on,74,39,0
1,note_on,74,0,456
1,note_on,62,0,0
1,note_on,67,0,0
1,note_on,67,33,24
1,note_on,62,33,0
1,note_on,74,39,0
1,note_on,74,0,456
1,note_on,62,0,0
1,note_on,67,0,0
1,note_on,74,36,24
1,note_on,62,30,0
1,note_on,67,30,0
1,note_on,67,0,456
1,note_on,62,0,0
1,note_on,74,0,0
1,note_on,74,36,24
1,note_on,62,30,0
1,note_on,67,30,0
1,note_on,67,0,456
1,note_on,62,0,0
1,note_on,74,0,0
1,note_on,74,39,24
1,note_on,62,33,0
1,note_on,67,33,0
1,note_on,67,0,480
1,note_on,62,0,0
1,note_on,74,0,0
1,note_on,57,29,0
1,note_on,62,29,0
1,note_on,69,35,0
1,note_on,69,0,466
1,note_on,62,0,0
1,note_on,57,0,0
1,note_on,60,29,14
1,note_on,62,29,0
1,note_on,72,35,0
1,note_on,72,0,465
1,note_on,60,0,0
1,note_on,62,0,1
1,note_on,72,39,14
1,note_on,60,33,0
1,note_on,62,33,0
1,note_on,60,0,465
1,note_on,72,0,0
1,note_on,62,0,1
1,note_on,71,37,14
1,note_on,59,31,0
1,note_on,62,31,0
1,note_on,62,0,466
1,note_on,59,0,0
1,note_on,71,0,0
1,note_on,69,37,14
1,note_on,57,31,0
1,note_on,62,31,0
1,note_on,62,0,466
1,note_on,57,0,0
1,note_on,69,0,0
1,note_on,57,33,14
1,note_on,62,33,0
1,note_on,69,39,0
1,note_on,69,0,466
1,note_on,62,0,0
1,note_on,57,0,0
1,note_on,59,33,14
1,note_on,62,33,0
1,note_on,71,39,0
1,note_on,71,0,466
1,note_on,62,0,0
1,note_on,59,0,0
1,note_on,62,33,14
1,note_on,59,33,0
1,note_on,71,39,0
1,note_on,71,0,466
1,note_on,59,0,0
1,note_on,62,0,0
1,note_on,62,37,14
1,note_on,59,37,0
1,note_on,71,44,0
1,note_on,71,0,466
1,note_on,59,0,0
1,note_on,62,0,0
1,note_on,71,51,14
1,note_on,59,43,0
1,note_on,67,43,0
1,note_on,67,0,466
1,note_on,59,0,0
1,note_on,71,0,0
1,note_on,72,60,14
1,note_on,60,50,0
1,note_on,67,50,0
1,note_on,67,0,466
1,note_on,60,0,0
1,note_on,72,0,0
1,note_on,74,66,14
1,note_on,67,55,0
1,note_on,62,55,0
1,note_on,62,0,950
1,note_on,67,0,0
1,note_on,74,0,1
1,note_on,74,52,9
1,note_on,67,44,0
1,note_on,62,44,0
1,note_on,62,0,456
1,note_on,67,0,0
1,note_on,74,0,0
1,note_on,67,44,24
1,note_on,62,44,0
1,note_on,74,52,0
1,note_on,74,0,456
1,note_on,62,0,0
1,note_on,67,0,0
1,note_on,67,42,24
1,note_on,60,42,0
1,note_on,72,50,0
1,note_on,72,0,456
1,note_on,60,0,0
1,note_on,67,0,0
1,note_on,67,42,24
1,note_on,59,42,0
1,note_on,71,50,0
1,note_on,71,0,456
1,note_on,59,0,0
1,note_on,67,0,0
1,note_on,62,45,24
1,note_on,67,45,0
1,note_on,74,54,0
1,note_on,74,0,456
1,note_on,67,0,0
1,note_on,62,0,0
1,note_on,67,53,24
1,note_on,71,53,0
1,note_on,79,63,0
1,note_on,79,0,466
1,note_on,71,0,0
1,note_on,67,0,0
1,note_on,71,56,14
1,note_on,74,56,0
1,note_on,83,66,0
1,note_on,83,0,456
1,note_on,74,0,0
1,note_on,71,0,0
1,note_on,71,56,24
1,note_on,74,56,0
1,note_on,83,66,0
1,note_on,83,0,456
1,note_on,74,0,0
1,note_on,71,0,0
1,note_on,71,58,24
1,note_on,74,58,0
1,note_on,83,69,0
1,note_on,83,0,456
1,note_on,74,0,0
1,note_on,71,0,0
1,note_on,71,61,24
1,note_on,74,61,0
1,note_on,83,72,0
1,note_on,83,0,456
1,note_on,74,0,0
1,note_on,71,0,0
1,note_on,71,63,24
1,note_on,75,63,0
1,note_on,83,75,0
1,note_on,83,0,456
1,note_on,75,0,0
1,note_on,71,0,0
1,note_on,71,56,24
1,note_on,75,56,0
1,note_on,83,66,0
1,note_on,83,0,456
1,note_on,75,0,0
1,note_on,71,0,0
1,note_on,71,52,24
1,note_on,75,52,0
1,note_on,83,61,0
1,note_on,83,0,456
1,note_on,75,0,0
1,note_on,71,0,0
1,note_on,71,44,24
1,note_on,75,44,0
1,note_on,83,52,0
1,note_on,83,0,456
1,note_on,75,0,0
1,note_on,71,0,0
1,note_on,71,40,24
1,note_on,75,40,0
1,note_on,83,48,0
1,note_on,83,0,456
1,note_on,75,0,0
1,note_on,71,0,0
1,note_on,71,36,24
1,note_on,75,36,0
1,note_on,83,43,0
1,note_on,83,0,456
1,note_on,75,0,0
1,note_on,71,0,0
1,note_on,71,32,24
1,note_on,74,32,0
1,note_on,83,39,0
1,note_on,83,0,466
1,note_on,74,0,0
1,note_on,71,0,0
1,note_on,72,31,14
1,note_on,74,31,0
1,note_on,84,36,0
1,note_on,84,0,466
1,note_on,74,0,0
1,note_on,72,0,0
1,note_on,74,32,14
1,note_on,86,38,0
1,note_on,86,0,466
1,note_on,74,0,0
1,note_on,67,36,14
1,note_on,71,36,0
1,note_on,79,43,0
1,note_on,79,0,466
1,note_on,71,0,0
1,note_on,67,0,0
1,note_on,69,30,14
1,note_on,74,30,0
1,note_on,78,30,0
1,note_on,81,36,0
1,note_on,81,0,466
1,note_on,69,0,0
1,note_on,74,0,0
1,note_on,78,0,0
1,note_on,74,30,14
1,note_on,79,30,0
1,note_on,71,30,0
1,note_on,83,36,0
1,note_on,83,0,466
1,note_on,74,0,0
1,note_on,79,0,0
1,note_on,71,0,0
1,note_on,74,34,14
1,note_on,78,34,0
1,note_on,72,34,0
1,note_on,81,41,0
1,note_on,81,0,951
1,note_on,74,0,0
1,note_on,78,0,0
1,note_on,72,0,0
1,note_on,71,32,9
1,note_on,74,32,0
1,note_on,79,38,0
1,note_on,79,0,466
1,note_on,74,0,0
1,note_on,71,0,0
1,note_on,74,30,14
1,note_on,79,36,0
1,note_on,71,30,0
1,note_on,71,0,466
1,note_on,79,0,0
1,note_on,74,0,0
1,note_on,74,21,14
1,note_on,79,29,0
1,note_on,71,21,0
1,note_on,71,0,456
1,note_on,79,0,0
1,note_on,74,0,0
1,note_on,79,29,24
1,note_on,71,21,0
1,note_on,74,21,0
1,note_on,74,0,456
1,note_on,71,0,0
1,note_on,79,0,0
1,note_on,71,31,24
1,note_on,79,37,0
1,note_on,74,31,0
1,note_on,71,0,950
1,note_on,74,0,1
1,note_on,79,0,0
1,note_on,67,27,9
1,note_on,76,32,0
1,note_on,71,27,0
1,note_on,71,0,456
1,note_on,76,0,0
1,note_on,67,0,0
1,note_on,76,36,24
1,note_on,67,30,0
1,note_on,71,30,0
1,note_on,71,0,456
1,note_on,67,0,0
1,note_on,76,0,0
1,note_on,67,28,24
1,note_on,73,33,0
1,note_on,64,28,0
1,note_on,64,0,456
1,note_on,73,0,0
1,note_on,67,0,0
1,note_on,71,33,24
1,note_on,62,28,0
1,note_on,67,28,0
1,note_on,67,0,456
1,note_on,62,0,0
1,note_on,71,0,0
1,note_on,61,31,24
1,note_on,71,37,0
1,note_on,67,31,0
1,note_on,61,0,950
1,note_on,67,0,1
1,note_on,71,0,0
1,note_on,61,27,9
1,note_on,69,32,0
1,note_on,67,27,0
1,note_on,67,0,456
1,note_on,69,0,0
1,note_on,61,0,0
1,note_on,61,30,24
1,note_on,67,30,0
1,note_on,69,36,0
1,note_on,69,0,456
1,note_on,67,0,0
1,note_on,61,0,0
1,note_on,62,28,24
1,note_on,67,28,0
1,note_on,71,33,0
1,note_on,71,0,456
1,note_on,67,0,0
1,note_on,62,0,0
1,note_on,67,28,24
1,note_on,71,33,0
1,note_on,62,28,0
1,note_on,62,0,456
1,note_on,71,0,0
1,note_on,67,0,0
1,note_on,67,31,24
1,note_on,71,37,0
1,note_on,61,31,0
1,note_on,61,0,950
1,note_on,71,0,1
1,note_on,67,0,0
1,note_on,69,31,9
1,note_on,61,26,0
1,note_on,67,26,0
1,note_on,67,0,456
1,note_on,61,0,0
1,note_on,69,0,0
1,note_on,61,29,24
1,note_on,69,34,0
1,note_on,67,29,0
1,note_on,67,0,456
1,note_on,69,0,0
1,note_on,61,0,0
1,note_on,67,26,24
1,note_on,70,31,0
1,note_on,62,26,0
1,note_on,62,0,456
1,note_on,70,0,0
1,note_on,67,0,0
1,note_on,70,31,24
1,note_on,62,26,0
1,note_on,67,26,0
1,note_on,67,0,456
1,note_on,62,0,0
1,note_on,70,0,0
1,note_on,70,34,24
1,note_on,67,28,0
1,note_on,61,28,0
1,note_on,61,0,950
1,note_on,70,0,0
1,note_on,67,0,1
1,note_on,61,24,9
1,note_on,67,24,0
1,note_on,69,28,0
1,note_on,69,0,456
1,note_on,67,0,0
1,note_on,61,0,0
1,note_on,61,27,24
1,note_on,69,32,0
1,note_on,67,27,0
1,note_on,69,0,950
1,note_on,61,0,0
1,note_on,67,0,1
1,note_on,67,23,9
1,note_on,61,23,0
1,note_on,69,27,0
1,note_on,69,0,456
1,note_on,61,0,0
1,note_on,67,0,0
1,note_on,67,26,24
1,note_on,61,26,0
1,note_on,69,31,0
1,note_on,69,0,950
1,note_on,61,0,0
1,note_on,67,0,1
1,note_on,67,22,9
1,note_on,69,26,0
1,note_on,61,22,0
1,note_on,61,0,456
1,note_on,69,0,0
1,note_on,67,0,0
1,note_on,69,29,24
1,note_on,61,25,0
1,note_on,67,25,0
1,note_on,67,0,350
1,note_on,61,0,0
1,note_on,69,0,0
1,note_on,61,70,10
1,note_on,55,59,0
1,note_on,57,59,0
1,note_on,57,0,60
1,note_on,55,0,0
1,note_on,61,0,0
1,note_on,55,64,60
1,note_on,57,64,0
1,note_on,61,76,0
1,note_on,61,0,360
1,note_on,57,0,0
1,note_on,55,0,0
1,note_on,55,59,0
1,note_on,61,70,0
1,note_on,57,59,0
1,note_on,57,0,60
1,note_on,61,0,0
1,note_on,55,0,0
1,note_on,57,63,60
1,note_on,62,75,0
1,note_on,55,63,0
1,note_on,55,0,360
1,note_on,62,0,0
1,note_on,57,0,0
1,note_on,64,70,0
1,note_on,55,59,0
1,note_on,57,59,0
1,note_on,57,0,60
1,note_on,55,0,0
1,note_on,64,0,0
1,note_on,62,68,60
1,note_on,66,80,0
1,note_on,54,68,0
1,note_on,57,68,0
1,note_on,57,0,931
1,note_on,62,0,0
1,note_on,66,0,0
1,note_on,54,0,0
1,note_on,62,68,29
1,note_on,54,68,0
1,note_on,57,68,0
1,note_on,66,80,0
1,note_on,66,0,815
1,note_on,62,0,0
1,note_on,54,0,0
1,note_on,57,0,0
1,note_on,66,67,25
1,note_on,66,0,120
1,note_on,67,75,0
1,note_on,57,66,0
1,note_on,67,0,360
1,note_on,66,70,0
1,note_on,57,0,106
1,note_on,66,0,14
1,note_on,64,74,0
1,note_on,57,66,0
1,note_on,64,0,120
1,note_on,66,66,0
1,note_on,66,0,120
1,note_on,64,66,0
1,note_on,64,0,120
1,note_on,62,70,0
1,note_on,57,0,106
1,note_on,62,0,14
1,note_on,57,68,0
1,note_on,64,68,0
1,note_on,69,80,0
1,note_on,69,0,931
1,note_on,64,0,0
1,note_on,57,0,0
1,note_on,57,68,29
1,note_on,69,80,0
1,note_on,64,68,0
1,note_on,64,0,815
1,note_on,69,0,0
1,note_on,57,0,0
1,note_on,69,67,25
1,note_on,69,0,120
1,note_on,71,75,0
1,note_on,64,66,0
1,note_on,71,0,120
1,note_on,73,66,0
1,note_on,73,0,120
1,note_on,71,68,0
1,note_on,71,0,120
1,note_on,69,70,0
1,note_on,64,0,106
1,note_on,69,0,14
1,note_on,64,66,0
1,note_on,71,74,0
1,note_on,71,0,360
1,note_on,73,70,0
1,note_on,73,0,120
1,note_on,64,0,0
1,note_on,62,68,0
1,note_on,66,68,0
1,note_on,74,80,0
1,note_on,71,68,0
1,note_on,71,0,931
1,note_on,62,0,0
1,note_on,66,0,0
1,note_on,74,0,0
1,note_on,62,68,29
1,note_on,71,68,0
1,note_on,74,80,0
1,note_on,66,68,0
1,note_on,66,0,710
1,note_on,62,0,0
1,note_on,71,0,0
1,note_on,74,0,0
1,note_on,68,63,10
1,note_on,74,75,0
1,note_on,74,0,120
1,note_on,68,0,0
1,note_on,68,68,120
1,note_on,74,80,0
1,note_on,74,0,120
1,note_on,68,0,0
1,note_on,74,79,120
1,note_on,76,79,0
1,note_on,68,67,0
1,note_on,68,0,120
1,note_on,76,0,0
1,note_on,74,0,0
1,note_on,68,70,120
1,note_on,78,83,0
1,note_on,74,70,0
1,note_on,74,0,120
1,note_on,78,0,0
1,note_on,68,0,0
1,note_on,68,73,120
1,note_on,80,86,0
1,note_on,74,73,0
1,note_on,74,0,120
1,note_on,80,0,0
1,note_on,68,0,0
1,note_on,73,76,120
1,note_on,81,90,0
1,note_on,69,76,0
1,note_on,69,0,931
1,note_on,81,0,0
1,note_on,73,0,0
1,note_on,61,73,29
1,note_on,69,87,0
1,note_on,57,73,0
1,note_on,57,0,960
1,note_on,69,0,0
1,note_on,61,0,0
1,note_on,81,61,0
1,note_on,81,0,480
1,note_on,82,58,0
1,note_on,82,0,480
1,note_on,83,62,0
1,note_on,83,0,160
1,note_on,82,57,0
1,note_on,82,0,160
1,note_on,83,57,0
1,note_on,83,0,160
1,note_on,88,63,0
1,note_on,88,0,160
1,note_on,87,61,0
1,note_on,87,0,160
1,note_on,88,65,0
1,note_on,88,0,160
1,note_on,91,70,0
1,note_on,91,0,840
1,note_on,90,61,0
1,note_on,90,0,120
1,note_on,88,69,0
1,note_on,88,0,360
1,note_on,86,62,0
1,note_on,86,0,120
1,note_on,85,70,0
1,note_on,85,0,360
1,note_on,83,62,0
1,note_on,83,0,120
1,note_on,81,69,0
1,note_on,81,0,160
1,note_on,80,60,0
1,note_on,80,0,160
1,note_on,81,55,0
1,note_on,81,0,160
1,note_on,86,68,0
1,note_on,86,0,160
1,note_on,85,65,0
1,note_on,85,0,160
1,note_on,86,69,0
1,note_on,86,0,160
1,note_on,90,72,0
1,note_on,90,0,840
1,note_on,88,61,0
1,note_on,88,0,120
1,note_on,86,69,0
1,note_on,86,0,360
1,note_on,85,62,0
1,note_on,85,0,120
1,note_on,83,70,0
1,note_on,83,0,360
1,note_on,81,62,0
1,note_on,81,0,120
1,note_on,79,67,0
1,note_on,79,0,160
1,note_on,78,58,0
1,note_on,78,0,160
1,note_on,79,58,0
1,note_on,79,0,160
1,note_on,85,63,0
1,note_on,85,0,160
1,note_on,84,61,0
1,note_on,84,0,160
1,note_on,85,65,0
1,note_on,85,0,160
1,note_on,88,70,0
1,note_on,88,0,840
1,note_on,86,59,0
1,note_on,86,0,120
1,note_on,85,68,0
1,note_on,85,0,360
1,note_on,86,57,0
1,note_on,86,0,120
1,note_on,85,67,0
1,note_on,85,0,360
1,note_on,83,58,0
1,note_on,83,0,120
1,note_on,82,63,0
1,note_on,78,53,0
1,note_on,78,0,931
1,note_on,82,0,0
1,note_on,82,56,29
1,note_on,78,47,0
1,note_on,82,0,815
1,note_on,82,46,25
1,note_on,78,0,110
1,note_on,82,0,10
1,note_on,83,52,0
1,note_on,78,46,0
1,note_on,83,0,360
1,note_on,82,49,0
1,note_on,78,0,106
1,note_on,82,0,14
1,note_on,83,51,0
1,note_on,78,46,0
1,note_on,83,0,360
1,note_on,82,49,0
1,note_on,78,0,106
1,note_on,82,0,14
1,note_on,77,47,0
1,note_on,80,56,0
1,note_on,80,0,931
1,note_on,77,0,0
1,note_on,77,47,29
1,note_on,80,56,0
1,note_on,80,0,815
1,note_on,80,46,25
1,note_on,77,0,110
1,note_on,80,0,10
1,note_on,82,52,0
1,note_on,77,46,0
1,note_on,82,0,360
1,note_on,80,49,0
1,note_on,77,0,105
1,note_on,80,0,15
1,note_on,77,46,0
1,note_on,82,51,0
1,note_on,82,0,360
1,note_on,80,49,0
1,note_on,77,0,105
1,note_on,80,0,15
1,note_on,78,56,0
1,note_on,78,0,931
1,note_on,78,56,29
1,note_on,78,0,830
1,note_on,55,59,10
1,note_on,49,59,0
1,note_on,57,70,0
1,note_on,57,0,60
1,note_on,49,0,0
1,note_on,55,0,0
1,note_on,55,64,60
1,note_on,49,64,0
1,note_on,57,76,0
1,note_on,57,0,360
1,note_on,49,0,0
1,note_on,55,0,0
1,note_on,55,59,0
1,note_on,57,70,0
1,note_on,49,59,0
1,note_on,49,0,60
1,note_on,57,0,0
1,note_on,55,0,0
1,note_on,59,75,60
1,note_on,49,63,0
1,note_on,55,63,0
1,note_on,55,0,360
1,note_on,49,0,0
1,note_on,59,0,0
1,note_on,61,70,0
1,note_on,49,59,0
1,note_on,55,59,0
1,note_on,55,0,60
1,note_on,49,0,0
1,note_on,61,0,0
1,note_on,50,68,60
1,note_on,54,68,0
1,note_on,62,80,0
1,note_on,62,0,931
1,note_on,54,0,0
1,note_on,50,0,0
1,note_on,59,68,29
1,note_on,54,68,0
1,note_on,62,80,0
1,note_on,50,68,0
1,note_on,62,0,815
1,note_on,62,67,25
1,note_on,59,0,91
1,note_on,50,0,0
1,note_on,54,0,0
1,note_on,62,0,29
1,note_on,62,75,0
1,note_on,54,66,0
1,note_on,62,0,360
1,note_on,64,70,0
1,note_on,54,0,106
1,note_on,64,0,14
1,note_on,66,74,0
1,note_on,54,66,0
1,note_on,66,0,360
1,note_on,62,70,0
1,note_on,54,0,106
1,note_on,62,0,14
1,note_on,64,68,0
1,note_on,69,80,0
1,note_on,67,68,0
1,note_on,57,68,0
1,note_on,57,0,931
1,note_on,64,0,0
1,note_on,69,0,0
1,note_on,67,0,29
1,note_on,57,68,0
1,note_on,64,68,0
1,note_on,67,68,0
1,note_on,69,80,0
1,note_on,69,0,815
1,note_on,57,0,0
1,note_on,64,0,0
1,note_on,67,0,0
1,note_on,67,53,25
1,note_on,69,67,0
1,note_on,64,53,0
1,note_on,64,0,114
1,note_on,69,0,0
1,note_on,67,0,0
1,note_on,67,60,6
1,note_on,69,75,0
1,note_on,64,60,0
1,note_on,69,0,333
1,note_on,64,0,9
1,note_on,67,0,0
1,note_on,69,70,18
1,note_on,64,56,0
1,note_on,67,56,0
1,note_on,67,0,114
1,note_on,64,0,0
1,note_on,69,0,0
1,note_on,67,59,6
1,note_on,64,59,0
1,note_on,71,74,0
1,note_on,71,0,342
1,note_on,64,0,0
1,note_on,67,0,0
1,note_on,64,56,18
1,note_on,67,56,0
1,note_on,73,70,0
1,note_on,73,0,120
1,note_on,67,0,0
1,note_on,64,0,0
1,note_on,66,68,0
1,note_on,69,68,0
1,note_on,62,68,0
1,note_on,74,80,0
1,note_on,74,0,931
1,note_on,66,0,0
1,note_on,69,0,0
1,note_on,62,0,0
1,note_on,62,68,29
1,note_on,67,68,0
1,note_on,74,80,0
1,note_on,74,0,710
1,note_on,67,0,0
1,note_on,62,0,0
1,note_on,74,75,10
1,note_on,68,63,0
1,note_on,68,0,120
1,note_on,74,0,0
1,note_on,68,68,120
1,note_on,74,80,0
1,note_on,74,0,120
1,note_on,68,0,0
1,note_on,68,67,120
1,note_on,74,79,0
1,note_on,76,79,0
1,note_on,76,0,120
1,note_on,74,0,0
1,note_on,68,0,0
1,note_on,74,70,120
1,note_on,78,83,0
1,note_on,68,70,0
1,note_on,68,0,120
1,note_on,78,0,0
1,note_on,74,0,0
1,note_on,74,73,120
1,note_on,80,86,0
1,note_on,68,73,0
1,note_on,68,0,120
1,note_on,80,0,0
1,note_on,74,0,0
1,note_on,81,90,120
1,note_on,69,76,0
1,note_on,73,76,0
1,note_on,73,0,931
1,note_on,69,0,0
1,note_on,81,0,0
1,note_on,61,73,29
1,note_on,69,87,0
1,note_on,57,73,0
1,note_on,57,0,960
1,note_on,69,0,0
1,note_on,61,0,0
1,note_on,76,61,0
1,note_on,76,0,480
1,note_on,77,58,0
1,note_on,77,0,480
1,note_on,78,62,0
1,note_on,78,0,160
1,note_on,77,57,0
1,note_on,77,0,160
1,note_on,78,57,0
1,note_on,78,0,160
1,note_on,83,63,0
1,note_on,83,0,160
1,note_on,82,61,0
1,note_on,82,0,160
1,note_on,83,65,0
1,note_on,83,0,160
1,note_on,86,70,0
1,note_on,86,0,840
1,note_on,85,61,0
1,note_on,85,0,120
1,note_on,83,69,0
1,note_on,83,0,120
1,note_on,85,63,0
1,note_on,85,0,120
1,note_on,83,63,0
1,note_on,83,0,120
1,note_on,81,62,0
1,note_on,81,0,120
1,note_on,80,70,0
1,note_on,80,0,120
1,note_on,81,65,0
1,note_on,81,0,120
1,note_on,80,66,0
1,note_on,80,0,120
1,note_on,78,62,0
1,note_on,78,0,120
1,note_on,76,69,0
1,note_on,76,0,160
1,note_on,75,60,0
1,note_on,75,0,160
1,note_on,76,55,0
1,note_on,76,0,160
1,note_on,81,68,0
1,note_on,81,0,160
1,note_on,80,65,0
1,note_on,80,0,160
1,note_on,81,69,0
1,note_on,81,0,160
1,note_on,85,72,0
1,note_on,85,0,840
1,note_on,83,61,0
1,note_on,83,0,120
1,note_on,81,69,0
1,note_on,81,0,120
1,note_on,83,63,0
1,note_on,83,0,120
1,note_on,81,63,0
1,note_on,81,0,120
1,note_on,80,62,0
1,note_on,80,0,120
1,note_on,78,70,0
1,note_on,78,0,120
1,note_on,80,65,0
1,note_on,80,0,120
1,note_on,78,65,0
1,note_on,78,0,120
1,note_on,76,62,0
1,note_on,76,0,120
1,note_on,74,67,0
1,note_on,74,0,160
1,note_on,73,58,0
1,note_on,73,0,160
1,note_on,74,58,0
1,note_on,74,0,160
1,note_on,80,63,0
1,note_on,80,0,160
1,note_on,79,61,0
1,note_on,79,0,160
1,note_on,80,65,0
1,note_on,80,0,160
1,note_on,83,70,0
1,note_on,83,0,840
1,note_on,81,59,0
1,note_on,81,0,120
1,note_on,80,68,0
1,note_on,80,0,360
1,note_on,81,57,0
1,note_on,81,0,120
1,note_on,80,67,0
1,note_on,80,0,360
1,note_on,78,58,0
1,note_on,78,0,120
1,note_on,73,53,0
1,note_on,77,63,0
1,note_on,77,0,931
1,note_on,73,0,0
1,note_on,73,47,29
1,note_on,77,56,0
1,note_on,77,0,815
1,note_on,77,46,25
1,note_on,73,0,110
1,note_on,77,0,10
1,note_on,73,46,0
1,note_on,78,52,0
1,note_on,78,0,360
1,note_on,77,49,0
1,note_on,73,0,106
1,note_on,77,0,14
1,note_on,73,46,0
1,note_on,78,51,0
1,note_on,78,0,360
1,note_on,77,49,0
1,note_on,73,0,106
1,note_on,77,0,14
1,note_on,74,51,0
1,note_on,76,51,0
1,note_on,80,61,0
1,note_on,80,0,931
1,note_on,76,0,0
1,note_on,74,0,0
1,note_on,74,51,29
1,note_on,76,51,0
1,note_on,80,61,0
1,note_on,80,0,830
1,note_on,76,0,0
1,note_on,76,50,10
1,note_on,74,0,110
1,note_on,76,0,10
1,note_on,74,50,0
1,note_on,78,57,0
1,note_on,78,0,360
1,note_on,76,53,0
1,note_on,74,0,105
1,note_on,76,0,15
1,note_on,74,50,0
1,note_on,78,56,0
1,note_on,78,0,360
1,note_on,80,53,0
1,note_on,74,0,105
1,note_on,80,0,15
1,note_on,69,51,0
1,note_on,73,51,0
1,note_on,81,61,0
1,note_on,81,0,931
1,note_on,73,0,0
1,note_on,69,0,0
1,note_on,73,51,29
1,note_on,69,51,0
1,note_on,81,61,0
1,note_on,81,0,830
1,note_on,69,0,0
1,note_on,73,0,0
1,note_on,57,70,10
1,note_on,57,0,60
1,note_on,57,76,60
1,note_on,57,0,120
1,note_on,57,70,240
1,note_on,57,0,60
1,note_on,55,75,60
1,note_on,55,0,120
1,note_on,57,70,240
1,note_on,57,0,60
1,note_on,58,68,60
1,note_on,61,80,0
1,note_on,52,68,0
1,note_on,55,68,0
1,note_on,55,0,931
1,note_on,52,0,0
1,note_on,61,0,0
1,note_on,58,0,29
1,note_on,61,80,0
1,note_on,58,68,0
1,note_on,52,68,0
1,note_on,55,68,0
1,note_on,55,0,815
1,note_on,61,0,0
1,note_on,58,0,0
1,note_on,52,0,0
1,note_on,69,70,25
1,note_on,69,0,60
1,note_on,69,76,60
1,note_on,69,0,120
1,note_on,69,70,240
1,note_on,69,0,60
1,note_on,67,75,60
1,note_on,67,0,120
1,note_on,69,70,240
1,note_on,69,0,60
1,note_on,65,68,60
1,note_on,70,68,0
1,note_on,62,68,0
1,note_on,74,80,0
1,note_on,74,0,931
1,note_on,62,0,0
1,note_on,65,0,0
1,note_on,70,0,29
1,note_on,62,68,0
1,note_on,70,68,0
1,note_on,65,68,0
1,note_on,74,80,0
1,note_on,74,0,815
1,note_on,62,0,0
1,note_on,70,0,0
1,note_on,65,0,0
1,note_on,77,70,25
1,note_on,74,59,0
1,note_on,74,0,60
1,note_on,77,0,0
1,note_on,74,64,60
1,note_on,77,76,0
1,note_on,77,0,120
1,note_on,74,0,0
1,note_on,74,59,240
1,note_on,77,70,0
1,note_on,77,0,60
1,note_on,74,0,0
1,note_on,76,75,60
1,note_on,73,63,0
1,note_on,73,0,120
1,note_on,76,0,0
1,note_on,74,59,240
1,note_on,77,70,0
1,note_on,77,0,60
1,note_on,74,0,0
1,note_on,74,76,60
1,note_on,70,64,0
1,note_on,70,0,120
1,note_on,74,0,0
1,note_on,70,59,240
1,note_on,74,70,0
1,note_on,74,0,60
1,note_on,70,0,0
1,note_on,73,75,60
1,note_on,69,63,0
1,note_on,69,0,120
1,note_on,73,0,0
1,note_on,74,70,240
1,note_on,70,59,0
1,note_on,70,0,60
1,note_on,74,0,0
1,note_on,70,76,60
1,note_on,67,64,0
1,note_on,67,0,120
1,note_on,70,0,0
1,note_on,70,70,240
1,note_on,67,59,0
1,note_on,67,0,60
1,note_on,70,0,0
1,note_on,69,75,60
1,note_on,66,63,0
1,note_on,66,0,120
1,note_on,69,0,0
1,note_on,70,70,240
1,note_on,67,59,0
1,note_on,67,0,60
1,note_on,70,0,0
1,note_on,63,68,60
1,note_on,67,80,0
1,note_on,67,0,931
1,note_on,63,0,29
1,note_on,75,74,0
1,note_on,67,74,0
1,note_on,71,74,0
1,note_on,79,88,0
1,note_on,79,0,950
1,note_on,75,0,0
1,note_on,67,0,0
1,note_on,71,0,0
1,note_on,75,74,10
1,note_on,67,74,0
1,note_on,72,74,0
1,note_on,79,88,0
1,note_on,79,0,950
1,note_on,75,0,0
1,note_on,67,0,0
1,note_on,72,0,0
1,note_on,65,74,10
1,note_on,74,74,0
1,note_on,77,88,0
1,note_on,77,0,120
1,note_on,74,0,0
1,note_on,65,0,0
1,note_on,69,74,360
1,note_on,72,74,0
1,note_on,75,74,0
1,note_on,81,88,0
1,note_on,81,0,120
1,note_on,69,0,0
1,note_on,72,0,0
1,note_on,75,0,0
1,note_on,74,85,360
1,note_on,70,85,0
1,note_on,82,101,0
1,note_on,82,0,950
1,note_on,70,0,0
1,note_on,74,0,0
1,note_on,58,74,10
1,note_on,62,74,0
1,note_on,70,88,0
1,note_on,70,0,815
1,note_on,62,0,0
1,note_on,58,0,0
1,note_on,74,47,25
1,note_on,77,56,0
1,note_on,77,0,60
1,note_on,74,0,0
1,note_on,74,51,60
1,note_on,77,60,0
1,note_on,77,0,120
1,note_on,74,0,0
1,note_on,74,47,240
1,note_on,77,56,0
1,note_on,77,0,60
1,note_on,74,0,0
1,note_on,73,50,60
1,note_on,76,60,0
1,note_on,76,0,120
1,note_on,73,0,0
1,note_on,74,47,240
1,note_on,77,56,0
1,note_on,77,0,60
1,note_on,74,0,0
1,note_on,70,51,60
1,note_on,74,60,0
1,note_on,74,0,960
1,note_on,70,0,0
1,note_on,70,51,0
1,note_on,74,60,0
1,note_on,74,0,815
1,note_on,70,0,0
1,note_on,70,47,25
1,note_on,74,56,0
1,note_on,74,0,60
1,note_on,70,0,0
1,note_on,70,51,60
1,note_on,74,60,0
1,note_on,74,0,120
1,note_on,70,0,0
1,note_on,70,47,240
1,note_on,74,56,0
1,note_on,74,0,60
1,note_on,70,0,0
1,note_on,69,50,60
1,note_on,73,60,0
1,note_on,73,0,120
1,note_on,69,0,0
1,note_on,70,47,240
1,note_on,74,56,0
1,note_on,74,0,60
1,note_on,70,0,0
1,note_on,74,51,60
1,note_on,77,60,0
1,note_on,77,0,960
1,note_on,74,0,0
1,note_on,72,51,0
1,note_on,75,60,0
1,note_on,75,0,815
1,note_on,72,0,0
1,note_on,77,47,25
1,note_on,75,56,0
1,note_on,72,47,0
1,note_on,72,0,60
1,note_on,75,0,0
1,note_on,77,0,0
1,note_on,77,51,60
1,note_on,75,60,0
1,note_on,72,51,0
1,note_on,72,0,120
1,note_on,75,0,0
1,note_on,77,0,0
1,note_on,72,47,240
1,note_on,77,47,0
1,note_on,75,56,0
1,note_on,75,0,60
1,note_on,77,0,0
1,note_on,72,0,0
1,note_on,77,50,60
1,note_on,71,50,0
1,note_on,74,60,0
1,note_on,74,0,120
1,note_on,71,0,0
1,note_on,77,0,0
1,note_on,72,47,240
1,note_on,75,56,0
1,note_on,77,56,0
1,note_on,77,0,60
1,note_on,75,0,0
1,note_on,72,0,0
1,note_on,72,51,60
1,note_on,77,60,0
1,note_on,69,51,0
1,note_on,69,0,951
1,note_on,77,0,0
1,note_on,72,0,0
1,note_on,77,60,9
1,note_on,69,51,0
1,note_on,72,51,0
1,note_on,72,0,815
1,note_on,69,0,0
1,note_on,77,0,0
1,note_on,77,47,25
1,note_on,72,56,0
1,note_on,69,47,0
1,note_on,69,0,60
1,note_on,72,0,0
1,note_on,77,0,0
1,note_on,77,51,60
1,note_on,72,60,0
1,note_on,69,51,0
1,note_on,69,0,120
1,note_on,72,0,0
1,note_on,77,0,0
1,note_on,72,56,240
1,note_on,69,47,0
1,note_on,77,47,0
1,note_on,77,0,60
1,note_on,69,0,0
1,note_on,72,0,0
1,note_on,68,50,60
1,note_on,71,60,0
1,note_on,77,50,0
1,note_on,77,0,120
1,note_on,71,0,0
1,note_on,68,0,0
1,note_on,72,56,240
1,note_on,77,56,0
1,note_on,69,47,0
1,note_on,69,0,60
1,note_on,77,0,0
1,note_on,72,0,0
1,note_on,69,45,60
1,note_on,77,54,0
1,note_on,73,45,0
1,note_on,73,0,950
1,note_on,77,0,1
1,note_on,69,0,0
1,note_on,70,45,9
1,note_on,77,54,0
1,note_on,74,45,0
1,note_on,74,0,815
1,note_on,77,0,0
1,note_on,70,0,0
1,note_on,74,47,25
1,note_on,70,47,0
1,note_on,77,56,0
1,note_on,77,0,60
1,note_on,70,0,0
1,note_on,74,0,0
1,note_on,70,51,60
1,note_on,74,51,0
1,note_on,77,60,0
1,note_on,77,0,120
1,note_on,74,0,0
1,note_on,70,0,0
1,note_on,74,48,240
1,note_on,77,57,0
1,note_on,70,48,0
1,note_on,70,0,60
1,note_on,77,0,0
1,note_on,74,0,0
1,note_on,74,52,60
1,note_on,76,63,0
1,note_on,70,52,0
1,note_on,70,0,120
1,note_on,76,0,0
1,note_on,74,0,0
1,note_on,77,60,240
1,note_on,70,50,0
1,note_on,74,50,0
1,note_on,74,0,60
1,note_on,70,0,0
1,note_on,77,0,0
1,note_on,70,56,60
1,note_on,79,66,0
1,note_on,74,56,0
1,note_on,74,0,951
1,note_on,79,0,0
1,note_on,70,0,0
1,note_on,79,66,9
1,note_on,70,56,0
1,note_on,74,56,0
1,note_on,74,0,815
1,note_on,70,0,0
1,note_on,79,0,0
1,note_on,70,51,25
1,note_on,79,61,0
1,note_on,74,51,0
1,note_on,74,0,60
1,note_on,79,0,0
1,note_on,70,0,0
1,note_on,70,56,60
1,note_on,79,66,0
1,note_on,74,56,0
1,note_on,74,0,120
1,note_on,79,0,0
1,note_on,70,0,0
1,note_on,70,50,240
1,note_on,82,60,0
1,note_on,74,50,0
1,note_on,74,0,60
1,note_on,82,0,0
1,note_on,70,0,0
1,note_on,70,54,60
1,note_on,81,64,0
1,note_on,74,54,0
1,note_on,74,0,120
1,note_on,81,0,0
1,note_on,70,0,0
1,note_on,74,49,240
1,note_on,79,59,0
1,note_on,70,49,0
1,note_on,70,0,60
1,note_on,79,0,0
1,note_on,74,0,0
1,note_on,70,51,60
1,note_on,77,60,0
1,note_on,74,51,0
1,note_on,74,0,951
1,note_on,77,0,0
1,note_on,70,0,0
1,note_on,70,60,9
1,note_on,74,51,0
1,note_on,77,60,0
1,note_on,77,0,815
1,note_on,74,0,0
1,note_on,70,0,0
1,note_on,77,47,25
1,note_on,70,47,0
1,note_on,74,56,0
1,note_on,74,0,60
1,note_on,70,0,0
1,note_on,77,0,0
1,note_on,70,51,60
1,note_on,74,60,0
1,note_on,77,51,0
1,note_on,77,0,120
1,note_on,74,0,0
1,note_on,70,0,0
1,note_on,70,47,240
1,note_on,74,56,0
1,note_on,77,47,0
1,note_on,77,0,60
1,note_on,74,0,0
1,note_on,70,0,0
1,note_on,70,50,60
1,note_on,75,60,0
1,note_on,79,50,0
1,note_on,79,0,120
1,note_on,75,0,0
1,note_on,70,0,0
1,note_on,77,56,240
1,note_on,70,47,0
1,note_on,74,56,0
1,note_on,74,0,60
1,note_on,70,0,0
1,note_on,77,0,0
1,note_on,69,51,60
1,note_on,72,51,0
1,note_on,77,60,0
1,note_on,77,0,960
1,note_on,72,0,0
1,note_on,69,0,0
1,note_on,72,48,0
1,note_on,75,57,0
1,note_on,69,48,0
1,note_on,69,0,815
1,note_on,75,0,0
1,note_on,72,0,0
1,note_on,65,44,25
1,note_on,72,53,0
1,note_on,75,44,0
1,note_on,75,0,60
1,note_on,72,0,0
1,note_on,65,0,0
1,note_on,65,48,60
1,note_on,72,57,0
1,note_on,75,48,0
1,note_on,75,0,120
1,note_on,72,0,0
1,note_on,65,0,0
1,note_on,75,44,240
1,note_on,72,53,0
1,note_on,65,44,0
1,note_on,65,0,60
1,note_on,72,0,0
1,note_on,75,0,0
1,note_on,74,47,60
1,note_on,71,57,0
1,note_on,65,47,0
1,note_on,65,0,120
1,note_on,71,0,0
1,note_on,74,0,0
1,note_on,72,53,240
1,note_on,65,44,0
1,note_on,69,53,0
1,note_on,69,0,60
1,note_on,65,0,0
1,note_on,72,0,0
1,note_on,62,40,60
1,note_on,65,40,0
1,note_on,70,48,0
1,note_on,70,0,960
1,note_on,65,0,0
1,note_on,62,0,0
1,note_on,62,40,0
1,note_on,65,40,0
1,note_on,70,48,0
1,note_on,70,0,815
1,note_on,65,0,0
1,note_on,62,0,0
1,note_on,75,39,25
1,note_on,65,39,0
1,note_on,72,47,0
1,note_on,72,0,60
1,note_on,65,0,0
1,note_on,75,0,0
1,note_on,75,43,60
1,note_on,65,43,0
1,note_on,72,51,0
1,note_on,72,0,120
1,note_on,65,0,0
1,note_on,75,0,0
1,note_on,75,39,240
1,note_on,65,39,0
1,note_on,72,47,0
1,note_on,72,0,60
1,note_on,65,0,0
1,note_on,75,0,0
1,note_on,74,42,60
1,note_on,65,42,0
1,note_on,70,51,0
1,note_on,70,0,120
1,note_on,65,0,0
1,note_on,74,0,0
1,note_on,72,47,240
1,note_on,65,39,0
1,note_on,69,47,0
1,note_on,69,0,60
1,note_on,65,0,0
1,note_on,72,0,0
1,note_on,62,38,60
1,note_on,65,38,0
1,note_on,70,45,0
1,note_on,70,0,960
1,note_on,65,0,0
1,note_on,62,0,0
1,note_on,62,38,0
1,note_on,65,38,0
1,note_on,70,45,0
1,note_on,70,0,815
1,note_on,65,0,0
1,note_on,62,0,0
1,note_on,75,35,25
1,note_on,65,35,0
1,note_on,72,42,0
1,note_on,72,0,60
1,note_on,65,0,0
1,note_on,75,0,0
1,note_on,75,38,60
1,note_on,65,38,0
1,note_on,72,45,0
1,note_on,72,0,120
1,note_on,65,0,0
1,note_on,75,0,0
1,note_on,75,34,240
1,note_on,65,34,0
1,note_on,72,41,0
1,note_on,72,0,60
1,note_on,65,0,0
1,note_on,75,0,0
1,note_on,74,36,60
1,note_on,65,36,0
1,note_on,70,44,0
1,note_on,70,0,120
1,note_on,65,0,0
1,note_on,74,0,0
1,note_on,72,39,240
1,note_on,65,33,0
1,note_on,69,39,0
1,note_on,69,0,60
1,note_on,65,0,0
1,note_on,72,0,0
1,note_on,62,31,60
1,note_on,65,31,0
1,note_on,70,37,0
1,note_on,70,0,350
1,note_on,65,0,0
1,note_on,62,0,0
1,note_on,46,70,10
1,note_on,46,0,60
1,note_on,46,76,60
1,note_on,46,0,120
1,note_on,46,70,240
1,note_on,46,0,60
1,note_on,46,75,60
1,note_on,46,0,120
1,note_on,48,70,240
1,note_on,48,0,60
1,note_on,50,75,60
1,note_on,50,0,350
1,note_on,50,59,10
1,note_on,62,70,0
1,note_on,62,0,60
1,note_on,50,0,0
1,note_on,50,64,60
1,note_on,62,76,0
1,note_on,62,0,120
1,note_on,50,0,0
1,note_on,50,59,240
1,note_on,62,70,0
1,note_on,62,0,60
1,note_on,50,0,0
1,note_on,50,63,60
1,note_on,62,75,0
1,note_on,62,0,120
1,note_on,50,0,0
1,note_on,52,59,240
1,note_on,64,70,0
1,note_on,64,0,60
1,note_on,52,0,0
1,note_on,65,82,60
1,note_on,53,69,0
1,note_on,65,0,350
1,note_on,53,0,10
1,note_on,53,77,0
1,note_on,53,0,60
1,note_on,53,83,60
1,note_on,53,0,120
1,note_on,53,77,240
1,note_on,53,0,60
1,note_on,53,82,60
1,note_on,53,0,120
1,note_on,55,77,240
1,note_on,55,0,60
1,note_on,57,90,60
1,note_on,57,0,350
1,note_on,57,60,10
1,note_on,69,71,0
1,note_on,69,0,60
1,note_on,57,0,0
1,note_on,69,78,60
1,note_on,57,65,0
1,note_on,57,0,120
1,note_on,69,0,0
1,note_on,59,61,240
1,note_on,71,73,0
1,note_on,71,0,60
1,note_on,59,0,0
1,note_on,73,79,60
1,note_on,61,66,0
1,note_on,61,0,120
1,note_on,73,0,0
1,note_on,62,64,240
1,note_on,74,76,0
1,note_on,74,0,60
1,note_on,62,0,0
1,note_on,64,70,60
1,note_on,69,70,0
1,note_on,73,70,0
1,note_on,76,83,0
1,note_on,76,0,931
1,note_on,64,0,0
1,note_on,69,0,0
1,note_on,73,0,29
1,note_on,76,83,0
1,note_on,73,70,0
1,note_on,69,70,0
1,note_on,64,70,0
1,note_on,64,0,815
1,note_on,76,0,0
1,note_on,73,0,0
1,note_on,69,0,0
1,note_on,68,58,25
1,note_on,74,58,0
1,note_on,76,73,0
1,note_on,76,0,114
1,note_on,74,0,0
1,note_on,68,0,0
1,note_on,68,66,6
1,note_on,74,66,0
1,note_on,76,82,0
1,note_on,76,0,333
1,note_on,74,0,9
1,note_on,68,0,0
1,note_on,74,63,18
1,note_on,76,80,0
1,note_on,68,63,0
1,note_on,68,0,114
1,note_on,76,0,0
1,note_on,74,0,0
1,note_on,68,67,6
1,note_on,78,85,0
1,note_on,74,67,0
1,note_on,74,0,342
1,note_on,78,0,0
1,note_on,68,0,0
1,note_on,68,65,18
1,note_on,80,83,0
1,note_on,74,65,0
1,note_on,74,0,120
1,note_on,80,0,0
1,note_on,68,0,0
1,note_on,69,78,0
1,note_on,73,78,0
1,note_on,81,93,0
1,note_on,81,0,931
1,note_on,73,0,0
1,note_on,69,0,0
1,note_on,69,78,29
1,note_on,73,78,0
1,note_on,81,93,0
1,note_on,81,0,820
1,note_on,73,0,0
1,note_on,69,0,0
1,note_on,57,47,20
1,note_on,61,56,0
1,note_on,55,47,0
1,note_on,55,0,60
1,note_on,61,0,0
1,note_on,57,0,0
1,note_on,57,51,60
1,note_on,62,60,0
1,note_on,55,51,0
1,note_on,55,0,360
1,note_on,62,0,0
1,note_on,57,0,0
1,note_on,57,47,0
1,note_on,61,56,0
1,note_on,55,47,0
1,note_on,55,0,60
1,note_on,61,0,0
1,note_on,57,0,0
1,note_on,55,50,60
1,note_on,62,60,0
1,note_on,57,50,0
1,note_on,57,0,360
1,note_on,62,0,0
1,note_on,55,0,0
1,note_on,55,47,0
1,note_on,64,56,0
1,note_on,57,47,0
1,note_on,57,0,60
1,note_on,64,0,0
1,note_on,55,0,0
1,note_on,54,54,60
1,note_on,57,64,0
1,note_on,57,0,931
1,note_on,54,0,0
1,note_on,66,64,29
1,note_on,57,54,0
1,note_on,57,0,815
1,note_on,66,0,0
1,note_on,57,53,25
1,note_on,66,53,0
1,note_on,66,0,120
1,note_on,57,0,0
1,note_on,55,60,0
1,note_on,67,60,0
1,note_on,67,0,120
1,note_on,55,0,0
1,note_on,66,56,240
1,note_on,55,56,0
1,note_on,55,0,120
1,note_on,66,0,0
1,note_on,64,59,0
1,note_on,56,59,0
1,note_on,56,0,120
1,note_on,64,0,0
1,note_on,62,56,240
1,note_on,56,56,0
1,note_on,56,0,120
1,note_on,62,0,0
1,note_on,57,54,0
1,note_on,69,64,0
1,note_on,61,54,0
1,note_on,61,0,931
1,note_on,69,0,0
1,note_on,57,0,0
1,note_on,61,54,29
1,note_on,64,64,0
1,note_on,64,0,815
1,note_on,61,0,0
1,note_on,69,53,25
1,note_on,64,53,0
1,note_on,69,0,60
1,note_on,73,53,0
1,note_on,73,0,60
1,note_on,64,0,0
1,note_on,71,60,0
1,note_on,64,60,0
1,note_on,64,0,120
1,note_on,71,0,0
1,note_on,64,56,240
1,note_on,69,56,0
1,note_on,69,0,120
1,note_on,64,0,0
1,note_on,64,59,0
1,note_on,71,59,0
1,note_on,71,0,120
1,note_on,64,0,0
1,note_on,64,56,240
1,note_on,73,56,0
1,note_on,73,0,120
1,note_on,64,0,0
1,note_on,74,64,0
1,note_on,62,54,0
1,note_on,66,54,0
1,note_on,66,0,931
1,note_on,62,0,0
1,note_on,74,0,0
1,note_on,66,64,29
1,note_on,62,54,0
1,note_on,62,0,815
1,note_on,66,0,0
1,note_on,62,53,25
1,note_on,66,53,0
1,note_on,66,0,60
1,note_on,69,53,0
1,note_on,69,0,60
1,note_on,62,0,0
1,note_on,68,60,0
1,note_on,62,60,0
1,note_on,62,0,120
1,note_on,68,0,0
1,note_on,62,56,240
1,note_on,66,56,0
1,note_on,66,0,120
1,note_on,62,0,0
1,note_on,62,59,0
1,note_on,68,59,0
1,note_on,68,0,120
1,note_on,62,0,0
1,note_on,64,56,240
1,note_on,62,56,0
1,note_on,62,0,120
1,note_on,64,0,0
1,note_on,71,64,0
1,note_on,61,54,0
1,note_on,61,0,931
1,note_on,71,0,0
1,note_on,61,54,29
1,note_on,69,64,0
1,note_on,69,0,950
1,note_on,61,0,0
1,note_on,62,56,10
1,note_on,69,67,0
1,note_on,66,56,0
1,note_on,66,0,456
1,note_on,69,0,0
1,note_on,62,0,0
1,note_on,66,53,24
1,note_on,70,63,0
1,note_on,62,53,0
1,note_on,62,0,466
1,note_on,70,0,0
1,note_on,66,0,0
1,note_on,71,60,14
1,note_on,67,51,0
1,note_on,62,51,0
1,note_on,62,0,960
1,note_on,67,0,0
1,note_on,71,0,0
1,note_on,67,56,0
1,note_on,71,56,0
1,note_on,76,67,0
1,note_on,76,0,466
1,note_on,71,0,0
1,note_on,67,0,0
1,note_on,71,57,14
1,note_on,76,57,0
1,note_on,79,68,0
1,note_on,79,0,240
1,note_on,76,0,0
1,note_on,71,0,0
1,note_on,67,53,240
1,note_on,71,53,0
1,note_on,76,63,0
1,note_on,71,0,240
1,note_on,67,0,0
1,note_on,76,0,10
1,note_on,61,49,230
1,note_on,64,49,0
1,note_on,67,58,0
1,note_on,67,0,240
1,note_on,64,0,0
1,note_on,61,0,0
1,note_on,61,55,240
1,note_on,66,55,0
1,note_on,69,65,0
1,note_on,69,0,960
1,note_on,66,0,0
1,note_on,61,0,0
1,note_on,66,59,0
1,note_on,69,59,0
1,note_on,74,70,0
1,note_on,74,0,466
1,note_on,69,0,0
1,note_on,66,0,0
1,note_on,69,58,14
1,note_on,74,58,0
1,note_on,78,69,0
1,note_on,78,0,240
1,note_on,74,0,0
1,note_on,69,0,0
1,note_on,66,51,240
1,note_on,69,51,0
1,note_on,74,60,0
1,note_on,74,0,240
1,note_on,69,0,0
1,note_on,66,0,0
1,note_on,59,47,240
1,note_on,62,47,0
1,note_on,66,56,0
1,note_on,66,0,240
1,note_on,62,0,0
1,note_on,59,0,0
1,note_on,59,56,240
1,note_on,64,56,0
1,note_on,67,67,0
1,note_on,67,0,960
1,note_on,64,0,0
1,note_on,59,0,0
1,note_on,64,60,0
1,note_on,67,60,0
1,note_on,73,71,0
1,note_on,73,0,466
1,note_on,67,0,0
1,note_on,64,0,0
1,note_on,67,60,14
1,note_on,73,71,0
1,note_on,76,71,0
1,note_on,76,0,240
1,note_on,73,0,0
1,note_on,67,0,0
1,note_on,64,55,240
1,note_on,67,55,0
1,note_on,73,65,0
1,note_on,73,0,240
1,note_on,67,0,0
1,note_on,64,0,0
1,note_on,61,50,240
1,note_on,68,59,0
1,note_on,71,59,0
1,note_on,71,0,240
1,note_on,68,0,0
1,note_on,61,0,0
1,note_on,66,55,240
1,note_on,61,55,0
1,note_on,70,65,0
1,note_on,70,0,931
1,note_on,61,0,0
1,note_on,66,0,29
1,note_on,66,51,0
1,note_on,61,51,0
1,note_on,70,60,0
1,note_on,70,0,815
1,note_on,61,0,0
1,note_on,66,0,0
1,note_on,66,60,25
1,note_on,73,71,0
1,note_on,73,0,60
1,note_on,66,0,0
1,note_on,66,65,60
1,note_on,75,78,0
1,note_on,75,0,120
1,note_on,66,0,0
1,note_on,66,61,240
1,note_on,73,73,0
1,note_on,73,0,60
1,note_on,66,0,0
1,note_on,66,66,60
1,note_on,75,79,0
1,note_on,75,0,120
1,note_on,66,0,0
1,note_on,66,64,240
1,note_on,73,76,0
1,note_on,73,0,60
1,note_on,66,0,0
1,note_on,71,70,60
1,note_on,65,70,0
1,note_on,77,83,0
1,note_on,77,0,931
1,note_on,65,0,0
1,note_on,71,0,29
1,note_on,77,83,0
1,note_on,71,70,0
1,note_on,65,70,0
1,note_on,65,0,815
1,note_on,71,0,0
1,note_on,77,0,0
1,note_on,73,58,25
1,note_on,65,58,0
1,note_on,77,73,0
1,note_on,77,0,114
1,note_on,65,0,0
1,note_on,73,0,0
1,note_on,73,66,6
1,note_on,65,66,0
1,note_on,77,82,0
1,note_on,77,0,332
1,note_on,65,0,10
1,note_on,73,0,0
1,note_on,77,80,18
1,note_on,65,63,0
1,note_on,73,63,0
1,note_on,73,0,114
1,note_on,65,0,0
1,note_on,77,0,0
1,note_on,77,85,6
1,note_on,65,67,0
1,note_on,73,67,0
1,note_on,73,0,342
1,note_on,65,0,0
1,note_on,77,0,0
1,note_on,77,83,18
1,note_on,65,65,0
1,note_on,73,65,0
1,note_on,73,0,120
1,note_on,65,0,0
1,note_on,77,0,0
1,note_on,66,78,0
1,note_on,70,78,0
1,note_on,78,93,0
1,note_on,78,0,931
1,note_on,70,0,0
1,note_on,66,0,0
1,note_on,66,78,29
1,note_on,70,78,0
1,note_on,78,93,0
1,note_on,78,0,820
1,note_on,70,0,0
1,note_on,66,0,0
1,note_on,73,56,20
1,note_on,67,47,0
1,note_on,69,47,0
1,note_on,69,0,60
1,note_on,67,0,0
1,note_on,73,0,0
1,note_on,73,60,60
1,note_on,67,51,0
1,note_on,69,51,0
1,note_on,69,0,349
1,note_on,67,0,0
1,note_on,73,0,0
1,note_on,73,56,11
1,note_on,67,47,0
1,note_on,69,47,0
1,note_on,69,0,60
1,note_on,67,0,0
1,note_on,73,0,0
1,note_on,67,50,46
1,note_on,69,50,0
1,note_on,74,60,0
1,note_on,74,0,349
1,note_on,69,0,0
1,note_on,67,0,0
1,note_on,67,47,25
1,note_on,69,47,0
1,note_on,76,56,0
1,note_on,76,0,60
1,note_on,69,0,0
1,note_on,67,0,0
1,note_on,69,64,60
1,note_on,66,54,0
1,note_on,66,0,931
1,note_on,69,0,0
1,note_on,78,64,29
1,note_on,66,54,0
1,note_on,69,54,0
1,note_on,69,0,815
1,note_on,66,0,0
1,note_on,78,0,0
1,note_on,66,53,25
1,note_on,78,53,0
1,note_on,78,0,116
1,note_on,66,0,1
1,note_on,78,60,3
1,note_on,66,60,0
1,note_on,66,0,120
1,note_on,78,0,0
1,note_on,66,56,226
1,note_on,78,56,0
1,note_on,78,0,116
1,note_on,66,0,0
1,note_on,68,59,18
1,note_on,76,59,0
1,note_on,76,0,120
1,note_on,68,0,0
1,note_on,74,56,240
1,note_on,68,56,0
1,note_on,68,0,120
1,note_on,74,0,0
1,note_on,73,64,0
1,note_on,69,54,0
1,note_on,69,0,931
1,note_on,73,0,0
1,note_on,69,54,29
1,note_on,76,64,0
1,note_on,76,0,815
1,note_on,69,0,0
1,note_on,70,53,25
1,note_on,76,53,0
1,note_on,76,0,117
1,note_on,70,0,0
1,note_on,70,60,3
1,note_on,76,60,0
1,note_on,76,0,120
1,note_on,70,0,0
1,note_on,70,56,226
1,note_on,76,56,0
1,note_on,76,0,116
1,note_on,70,0,0
1,note_on,70,59,18
1,note_on,74,59,0
1,note_on,74,0,120
1,note_on,70,0,0
1,note_on,70,56,240
1,note_on,73,56,0
1,note_on,73,0,120
1,note_on,70,0,0
1,note_on,71,64,0
1,note_on,71,0,931
1,note_on,74,64,29
1,note_on,67,54,0
1,note_on,67,0,815
1,note_on,74,0,0
1,note_on,61,53,25
1,note_on,67,53,0
1,note_on,71,53,0
1,note_on,71,0,120
1,note_on,67,0,0
1,note_on,61,0,0
1,note_on,61,60,0
1,note_on,67,60,0
1,note_on,71,60,0
1,note_on,71,0,120
1,note_on,67,0,0
1,note_on,61,0,0
1,note_on,61,56,240
1,note_on,67,56,0
1,note_on,71,56,0
1,note_on,71,0,120
1,note_on,67,0,0
1,note_on,61,0,0
1,note_on,61,59,0
1,note_on,66,59,0
1,note_on,69,59,0
1,note_on,69,0,120
1,note_on,66,0,0
1,note_on,61,0,0
1,note_on,61,56,240
1,note_on,64,56,0
1,note_on,67,56,0
1,note_on,67,0,120
1,note_on,64,0,0
1,note_on,61,0,0
1,note_on,64,54,0
1,note_on,57,54,0
1,note_on,67,64,0
1,note_on,67,0,931
1,note_on,57,0,0
1,note_on,64,0,29
1,note_on,57,54,0
1,note_on,66,64,0
1,note_on,62,54,0
1,note_on,62,0,950
1,note_on,66,0,0
1,note_on,57,0,0
1,note_on,62,56,10
1,note_on,66,56,0
1,note_on,69,67,0
1,note_on,69,0,456
1,note_on,66,0,0
1,note_on,62,0,0
1,note_on,62,53,24
1,note_on,66,53,0
1,note_on,70,63,0
1,note_on,70,0,456
1,note_on,66,0,0
1,note_on,62,0,0
1,note_on,62,51,24
1,note_on,67,51,0
1,note_on,71,60,0
1,note_on,71,0,960
1,note_on,67,0,0
1,note_on,62,0,0
1,note_on,67,56,0
1,note_on,71,56,0
1,note_on,76,67,0
1,note_on,76,0,466
1,note_on,71,0,0
1,note_on,67,0,0
1,note_on,71,57,14
1,note_on,76,57,0
1,note_on,79,68,0
1,note_on,79,0,240
1,note_on,76,0,0
1,note_on,71,0,0
1,note_on,67,53,240
1,note_on,71,53,0
1,note_on,76,63,0
1,note_on,71,0,240
1,note_on,67,0,0
1,note_on,76,0,10
1,note_on,64,49,230
1,note_on,67,58,0
1,note_on,67,0,240
1,note_on,64,0,0
1,note_on,64,55,240
1,note_on,69,55,0
1,note_on,73,65,0
1,note_on,73,0,960
1,note_on,69,0,0
1,note_on,64,0,0
1,note_on,69,59,0
1,note_on,73,59,0
1,note_on,78,70,0
1,note_on,78,0,466
1,note_on,73,0,0
1,note_on,69,0,0
1,note_on,73,58,14
1,note_on,78,58,0
1,note_on,81,69,0
1,note_on,81,0,240
1,note_on,78,0,0
1,note_on,73,0,0
1,note_on,73,51,240
1,note_on,78,60,0
1,note_on,69,51,0
1,note_on,69,0,240
1,note_on,78,0,0
1,note_on,73,0,0
1,note_on,69,56,240
1,note_on,66,47,0
1,note_on,66,0,240
1,note_on,69,0,0
1,note_on,66,56,240
1,note_on,74,67,0
1,note_on,71,56,0
1,note_on,71,0,960
1,note_on,74,0,0
1,note_on,66,0,0
1,note_on,74,66,0
1,note_on,71,66,0
1,note_on,79,78,0
1,note_on,79,0,466
1,note_on,71,0,0
1,note_on,74,0,0
1,note_on,74,60,14
1,note_on,79,71,0
1,note_on,83,71,0
1,note_on,83,0,240
1,note_on,79,0,0
1,note_on,74,0,0
1,note_on,74,60,240
1,note_on,79,71,0
1,note_on,71,60,0
1,note_on,71,0,240
1,note_on,79,0,0
1,note_on,74,0,0
1,note_on,71,75,240
1,note_on,67,68,0
1,note_on,67,0,240
1,note_on,71,0,0
1,note_on,69,66,240
1,note_on,81,78,0
1,note_on,79,66,0
1,note_on,73,66,0
1,note_on,73,0,931
1,note_on,69,0,0
1,note_on,81,0,0
1,note_on,79,0,29
1,note_on,79,61,0
1,note_on,69,61,0
1,note_on,81,72,0
1,note_on,73,61,0
1,note_on,73,0,815
1,note_on,79,0,0
1,note_on,69,0,0
1,note_on,81,0,0
1,note_on,73,58,25
1,note_on,81,73,0
1,note_on,79,58,0
1,note_on,79,0,114
1,note_on,81,0,0
1,note_on,73,0,0
1,note_on,79,66,6
1,note_on,73,66,0
1,note_on,81,82,0
1,note_on,81,0,333
1,note_on,73,0,9
1,note_on,79,0,0
1,note_on,73,63,18
1,note_on,79,63,0
1,note_on,81,80,0
1,note_on,81,0,114
1,note_on,79,0,0
1,note_on,73,0,0
1,note_on,79,67,6
1,note_on,83,85,0
1,note_on,73,67,0
1,note_on,73,0,342
1,note_on,83,0,0
1,note_on,79,0,0
1,note_on,79,65,18
1,note_on,85,83,0
1,note_on,73,65,0
1,note_on,73,0,120
1,note_on,85,0,0
1,note_on,79,0,0
1,note_on,86,93,0
1,note_on,74,78,0
1,note_on,78,78,0
1,note_on,78,0,931
1,note_on,74,0,0
1,note_on,86,0,0
1,note_on,74,78,29
1,note_on,86,93,0
1,note_on,78,78,0
1,note_on,78,0,820
1,note_on,86,0,0
1,note_on,74,0,0
1,note_on,78,42,20
1,note_on,81,50,0
1,note_on,81,0,60
1,note_on,78,0,0
1,note_on,81,54,60
1,note_on,78,45,0
1,note_on,78,0,349
1,note_on,81,0,0
1,note_on,78,42,11
1,note_on,81,50,0
1,note_on,81,0,60
1,note_on,78,0,0
1,note_on,80,54,60
1,note_on,77,45,0
1,note_on,77,0,349
1,note_on,80,0,0
1,note_on,78,42,11
1,note_on,81,50,0
1,note_on,81,0,60
1,note_on,78,0,0
1,note_on,78,48,60
1,note_on,74,40,0
1,note_on,74,0,960
1,note_on,78,0,0
1,note_on,78,48,0
1,note_on,74,40,0
1,note_on,74,0,815
1,note_on,78,0,0
1,note_on,74,37,25
1,note_on,78,44,0
1,note_on,78,0,60
1,note_on,74,0,0
1,note_on,78,48,60
1,note_on,74,40,0
1,note_on,74,0,120
1,note_on,78,0,0
1,note_on,74,37,240
1,note_on,78,44,0
1,note_on,78,0,60
1,note_on,74,0,0
1,note_on,73,40,60
1,note_on,77,48,0
1,note_on,77,0,120
1,note_on,73,0,0
1,note_on,78,44,240
1,note_on,74,37,0
1,note_on,74,0,60
1,note_on,78,0,0
1,note_on,78,40,60
1,note_on,81,48,0
1,note_on,81,0,960
1,note_on,78,0,0
1,note_on,76,40,0
1,note_on,79,48,0
1,note_on,79,0,815
1,note_on,76,0,0
1,note_on,79,44,25
1,note_on,81,37,0
1,note_on,76,37,0
1,note_on,76,0,60
1,note_on,81,0,0
1,note_on,79,0,0
1,note_on,81,40,60
1,note_on,76,40,0
1,note_on,79,48,0
1,note_on,79,0,120
1,note_on,76,0,0
1,note_on,81,0,0
1,note_on,81,37,240
1,note_on,76,37,0
1,note_on,79,44,0
1,note_on,79,0,60
1,note_on,76,0,0
1,note_on,81,0,0
1,note_on,75,40,60
1,note_on,81,40,0
1,note_on,78,48,0
1,note_on,78,0,120
1,note_on,81,0,0
1,note_on,75,0,0
1,note_on,81,44,240
1,note_on,76,37,0
1,note_on,79,44,0
1,note_on,79,0,60
1,note_on,76,0,0
1,note_on,81,0,0
1,note_on,81,48,60
1,note_on,76,40,0
1,note_on,73,40,0
1,note_on,73,0,951
1,note_on,76,0,0
1,note_on,81,0,0
1,note_on,73,40,9
1,note_on,76,40,0
1,note_on,81,48,0
1,note_on,81,0,815
1,note_on,76,0,0
1,note_on,73,0,0
1,note_on,81,37,25
1,note_on,73,37,0
1,note_on,76,44,0
1,note_on,76,0,60
1,note_on,73,0,0
1,note_on,81,0,0
1,note_on,73,40,60
1,note_on,81,40,0
1,note_on,76,48,0
1,note_on,76,0,120
1,note_on,81,0,0
1,note_on,73,0,0
1,note_on,81,37,240
1,note_on,73,37,0
1,note_on,76,44,0
1,note_on,76,0,60
1,note_on,73,0,0
1,note_on,81,0,0
1,note_on,74,48,60
1,note_on,81,40,0
1,note_on,71,40,0
1,note_on,71,0,120
1,note_on,81,0,0
1,note_on,74,0,0
1,note_on,81,44,240
1,note_on,73,37,0
1,note_on,76,44,0
1,note_on,76,0,60
1,note_on,73,0,0
1,note_on,81,0,0
1,note_on,81,43,60
1,note_on,73,36,0
1,note_on,77,36,0
1,note_on,77,0,950
1,note_on,73,0,1
1,note_on,81,0,0
1,note_on,74,36,9
1,note_on,78,36,0
1,note_on,81,43,0
1,note_on,81,0,815
1,note_on,78,0,0
1,note_on,74,0,0
1,note_on,74,37,25
1,note_on,81,44,0
1,note_on,78,37,0
1,note_on,78,0,60
1,note_on,81,0,0
1,note_on,74,0,0
1,note_on,81,48,60
1,note_on,78,40,0
1,note_on,74,40,0
1,note_on,74,0,120
1,note_on,78,0,0
1,note_on,81,0,0
1,note_on,74,38,240
1,note_on,78,38,0
1,note_on,81,45,0
1,note_on,81,0,60
1,note_on,78,0,0
1,note_on,74,0,0
1,note_on,74,41,60
1,note_on,80,50,0
1,note_on,78,41,0
1,note_on,78,0,120
1,note_on,80,0,0
1,note_on,74,0,0
1,note_on,78,40,240
1,note_on,74,40,0
1,note_on,81,48,0
1,note_on,81,0,60
1,note_on,74,0,0
1,note_on,78,0,0
1,note_on,74,44,60
1,note_on,78,44,0
1,note_on,83,52,0
1,note_on,83,0,951
1,note_on,78,0,0
1,note_on,74,0,0
1,note_on,74,44,9
1,note_on,83,52,0
1,note_on,78,44,0
1,note_on,78,0,815
1,note_on,83,0,0
1,note_on,74,0,0
1,note_on,83,48,25
1,note_on,78,40,0
1,note_on,74,40,0
1,note_on,74,0,60
1,note_on,78,0,0
1,note_on,83,0,0
1,note_on,83,52,60
1,note_on,78,44,0
1,note_on,74,44,0
1,note_on,74,0,120
1,note_on,78,0,0
1,note_on,83,0,0
1,note_on,78,40,240
1,note_on,74,40,0
1,note_on,86,48,0
1,note_on,86,0,60
1,note_on,74,0,0
1,note_on,78,0,0
1,note_on,78,43,60
1,note_on,85,51,0
1,note_on,74,43,0
1,note_on,74,0,120
1,note_on,85,0,0
1,note_on,78,0,0
1,note_on,74,39,240
1,note_on,83,47,0
1,note_on,78,39,0
1,note_on,78,0,60
1,note_on,83,0,0
1,note_on,74,0,0
1,note_on,81,48,60
1,note_on,74,40,0
1,note_on,78,40,0
1,note_on,78,0,951
1,note_on,74,0,0
1,note_on,81,0,0
1,note_on,81,48,9
1,note_on,74,48,0
1,note_on,78,40,0
1,note_on,78,0,815
1,note_on,74,0,0
1,note_on,81,0,0
1,note_on,81,37,25
1,note_on,74,37,0
1,note_on,78,44,0
1,note_on,78,0,60
1,note_on,74,0,0
1,note_on,81,0,0
1,note_on,81,40,60
1,note_on,78,48,0
1,note_on,74,40,0
1,note_on,74,0,120
1,note_on,78,0,0
1,note_on,81,0,0
1,note_on,74,37,240
1,note_on,81,37,0
1,note_on,78,44,0
1,note_on,78,0,60
1,note_on,81,0,0
1,note_on,74,0,0
1,note_on,74,40,60
1,note_on,83,40,0
1,note_on,79,48,0
1,note_on,79,0,120
1,note_on,83,0,0
1,note_on,74,0,0
1,note_on,74,37,240
1,note_on,78,44,0
1,note_on,81,44,0
1,note_on,81,0,60
1,note_on,78,0,0
1,note_on,74,0,0
1,note_on,81,48,60
1,note_on,73,40,0
1,note_on,78,40,0
1,note_on,78,0,931
1,note_on,73,0,0
1,note_on,81,0,0
1,note_on,79,45,29
1,note_on,76,38,0
1,note_on,73,38,0
1,note_on,73,0,815
1,note_on,76,0,0
1,note_on,79,0,0
1,note_on,76,42,25
1,note_on,79,35,0
1,note_on,69,35,0
1,note_on,69,0,60
1,note_on,79,0,0
1,note_on,76,0,0
1,note_on,79,38,60
1,note_on,69,38,0
1,note_on,76,45,0
1,note_on,76,0,120
1,note_on,69,0,0
1,note_on,79,0,0
1,note_on,79,35,240
1,note_on,69,35,0
1,note_on,76,42,0
1,note_on,76,0,60
1,note_on,69,0,0
1,note_on,79,0,0
1,note_on,69,37,60
1,note_on,78,37,0
1,note_on,74,45,0
1,note_on,74,0,120
1,note_on,78,0,0
1,note_on,69,0,0
1,note_on,76,42,240
1,note_on,69,35,0
1,note_on,73,42,0
1,note_on,73,0,60
1,note_on,69,0,0
1,note_on,76,0,0
1,note_on,74,38,60
1,note_on,66,32,0
1,note_on,69,32,0
1,note_on,69,0,931
1,note_on,66,0,0
1,note_on,74,0,0
1,note_on,66,32,29
1,note_on,69,32,0
1,note_on,74,38,0
1,note_on,74,0,480
1,note_on,69,0,0
1,note_on,66,0,0
1,note_on,76,36,360
1,note_on,79,30,0
1,note_on,69,30,0
1,note_on,69,0,60
1,note_on,79,0,0
1,note_on,76,0,0
1,note_on,79,33,60
1,note_on,69,33,0
1,note_on,76,39,0
1,note_on,76,0,120
1,note_on,69,0,0
1,note_on,79,0,0
1,note_on,79,30,240
1,note_on,76,35,0
1,note_on,69,30,0
1,note_on,69,0,60
1,note_on,76,0,0
1,note_on,79,0,0
1,note_on,74,38,60
1,note_on,69,31,0
1,note_on,78,31,0
1,note_on,78,0,120
1,note_on,69,0,0
1,note_on,74,0,0
1,note_on,76,34,240
1,note_on,69,29,0
1,note_on,73,34,0
1,note_on,73,0,60
1,note_on,69,0,0
1,note_on,76,0,0
1,note_on,74,33,60
1,note_on,66,28,0
1,note_on,69,28,0
1,note_on,69,0,931
1,note_on,66,0,0
1,note_on,74,0,0
1,note_on,66,26,29
1,note_on,69,26,0
1,note_on,74,32,0
1,note_on,74,0,480
1,note_on,69,0,0
1,note_on,66,0,0
1,note_on,79,23,360
1,note_on,69,23,0
1,note_on,76,28,0
1,note_on,76,0,60
1,note_on,69,0,0
1,note_on,79,0,0
1,note_on,69,25,60
1,note_on,79,25,0
1,note_on,76,30,0
1,note_on,76,0,120
1,note_on,79,0,0
1,note_on,69,0,0
1,note_on,79,22,240
1,note_on,69,22,0
1,note_on,76,26,0
1,note_on,76,0,60
1,note_on,69,0,0
1,note_on,79,0,0
1,note_on,74,29,60
1,note_on,78,23,0
1,note_on,69,23,0
1,note_on,69,0,120
1,note_on,78,0,0
1,note_on,74,0,0
1,note_on,76,25,240
1,note_on,69,21,0
1,note_on,73,25,0
1,note_on,73,0,60
1,note_on,69,0,0
1,note_on,76,0,0
1,note_on,69,24,60
1,note_on,74,28,0
1,note_on,66,24,0
1,note_on,66,0,931
1,note_on,74,0,0
1,note_on,69,0,0
1,note_on,66,24,29
1,note_on,69,24,0
1,note_on,74,28,0
1,note_on,74,0,240
1,note_on,69,0,0
1,note_on,66,0,0
1,note_on,69,24,720
1,note_on,74,28,0
1,note_on,66,24,0
1,note_on,66,0,240
1,note_on,74,0,0
1,note_on,69,0,0
1,note_on,69,28,240
1,note_on,66,24,0
1,note_on,66,0,240
1,note_on,69,0,0
1,note_on,69,24,240
1,note_on,66,24,0
1,note_on,74,28,0
1,note_on,74,0,931
1,note_on,66,0,0
1,note_on,69,0,0
1,note_on,74,28,29
1,note_on,69,24,0
1,note_on,66,24,0
1,note_on,66,0,240
1,note_on,69,0,0
1,note_on,74,0,0
1,note_on,74,28,720
1,note_on,69,24,0
1,note_on,66,24,0
1,note_on,66,0,240
1,note_on,69,0,0
1,note_on,74,0,0
1,note_on,66,24,240
1,note_on,69,28,0
1,note_on,69,0,240
1,note_on,66,0,0
1,note_on,74,28,240
1,note_on,66,24,0
1,note_on,69,24,0
1,note_on,69,0,240
1,note_on,66,0,0
1,note_on,74,0,0
1,note_on,66,23,1200
1,note_on,69,23,0
1,note_on,74,26,0
1,note_on,74,0,240
1,note_on,69,0,0
1,note_on,66,0,0
1,note_on,69,21,1200
1,note_on,74,25,0
1,note_on,66,21,0
1,note_on,66,0,1920
1,note_on,74,0,0
1,note_on,69,0,0
2,note_on,33,51,360
2,note_on,45,60,0
2,note_on,45,0,60
2,note_on,33,0,0
2,note_on,33,54,60
2,note_on,45,64,0
2,note_on,45,0,360
2,note_on,33,0,0
2,note_on,33,50,0
2,note_on,45,59,0
2,note_on,45,0,60
2,note_on,33,0,0
2,note_on,35,54,60
2,note_on,47,64,0
2,note_on,47,0,360
2,note_on,35,0,0
2,note_on,37,51,0
2,note_on,49,60,0
2,note_on,49,0,60
2,note_on,37,0,0
2,note_on,38,57,60
2,note_on,45,57,0
2,note_on,50,68,0
2,note_on,50,0,931
2,note_on,45,0,0
2,note_on,38,0,0
2,note_on,38,57,29
2,note_on,45,57,0
2,note_on,50,68,0
2,note_on,50,0,931
2,note_on,45,0,0
2,note_on,38,0,0
2,note_on,38,53,29
2,note_on,50,63,0
2,note_on,50,0,480
2,note_on,38,0,0
2,note_on,42,53,0
2,note_on,54,63,0
2,note_on,54,0,480
2,note_on,42,0,0
2,note_on,37,57,0
2,note_on,45,57,0
2,note_on,49,68,0
2,note_on,49,0,931
2,note_on,45,0,0
2,note_on,37,0,0
2,note_on,37,57,29
2,note_on,45,57,0
2,note_on,49,68,0
2,note_on,49,0,931
2,note_on,45,0,0
2,note_on,37,0,0
2,note_on,37,53,29
2,note_on,49,63,0
2,note_on,49,0,466
2,note_on,37,0,0
2,note_on,37,53,14
2,note_on,49,63,0
2,note_on,49,0,480
2,note_on,37,0,0
2,note_on,35,57,0
2,note_on,42,57,0
2,note_on,47,68,0
2,note_on,47,0,931
2,note_on,42,0,0
2,note_on,35,0,0
2,note_on,35,57,29
2,note_on,42,57,0
2,note_on,47,68,0
2,note_on,47,0,710
2,note_on,42,0,0
2,note_on,35,0,0
2,note_on,40,52,10
2,note_on,52,62,0
2,note_on,52,0,120
2,note_on,40,0,0
2,note_on,40,53,120
2,note_on,52,63,0
2,note_on,52,0,120
2,note_on,40,0,0
2,note_on,40,56,120
2,note_on,52,66,0
2,note_on,52,0,120
2,note_on,40,0,0
2,note_on,40,57,120
2,note_on,52,68,0
2,note_on,52,0,120
2,note_on,40,0,0
2,note_on,40,59,120
2,note_on,52,70,0
2,note_on,52,0,120
2,note_on,40,0,0
2,note_on,33,62,120
2,note_on,45,73,0
2,note_on,45,0,931
2,note_on,33,0,0
2,note_on,45,57,29
2,note_on,52,68,0
2,note_on,52,0,931
2,note_on,45,0,0
2,note_on,66,45,29
2,note_on,66,0,480
2,note_on,62,37,0
2,note_on,62,0,480
2,note_on,67,45,0
2,note_on,67,0,480
2,note_on,71,39,0
2,note_on,71,0,480
2,note_on,76,39,0
2,note_on,76,0,480
2,note_on,61,44,0
2,note_on,61,0,240
2,note_on,73,36,240
2,note_on,73,0,480
2,note_on,67,36,0
2,note_on,67,0,480
2,note_on,66,45,0
2,note_on,66,0,480
2,note_on,69,39,0
2,note_on,69,0,480
2,note_on,74,39,0
2,note_on,74,0,480
2,note_on,59,44,0
2,note_on,59,0,240
2,note_on,71,36,240
2,note_on,71,0,480
2,note_on,66,36,0
2,note_on,66,0,480
2,note_on,64,45,0
2,note_on,64,0,480
2,note_on,67,39,0
2,note_on,67,0,480
2,note_on,73,39,0
2,note_on,73,0,480
2,note_on,52,44,0
2,note_on,52,0,240
2,note_on,64,34,240
2,note_on,64,0,480
2,note_on,65,32,0
2,note_on,65,0,480
2,note_on,66,25,0
2,note_on,73,30,0
2,note_on,73,0,931
2,note_on,66,0,0
2,note_on,66,39,29
2,note_on,73,47,0
2,note_on,73,0,720
2,note_on,66,0,0
2,note_on,66,37,240
2,note_on,73,44,0
2,note_on,73,0,432
2,note_on,66,0,0
2,note_on,66,37,48
2,note_on,73,44,0
2,note_on,73,0,432
2,note_on,66,0,0
2,note_on,61,39,48
2,note_on,71,47,0
2,note_on,71,0,931
2,note_on,61,0,0
2,note_on,61,39,29
2,note_on,71,47,0
2,note_on,71,0,950
2,note_on,61,0,0
2,note_on,61,37,10
2,note_on,71,44,0
2,note_on,71,0,432
2,note_on,61,0,0
2,note_on,61,37,48
2,note_on,71,44,0
2,note_on,71,0,432
2,note_on,61,0,0
2,note_on,66,39,48
2,note_on,70,47,0
2,note_on,70,0,931
2,note_on,66,0,0
2,note_on,66,39,29
2,note_on,70,47,0
2,note_on,70,0,830
2,note_on,66,0,0
2,note_on,33,51,10
2,note_on,45,60,0
2,note_on,45,0,60
2,note_on,33,0,0
2,note_on,33,54,60
2,note_on,45,64,0
2,note_on,45,0,360
2,note_on,33,0,0
2,note_on,33,50,0
2,note_on,45,59,0
2,note_on,45,0,60
2,note_on,33,0,0
2,note_on,33,54,60
2,note_on,45,64,0
2,note_on,45,0,360
2,note_on,33,0,0
2,note_on,33,51,0
2,note_on,45,60,0
2,note_on,45,0,60
2,note_on,33,0,0
2,note_on,35,57,60
2,note_on,47,68,0
2,note_on,47,0,931
2,note_on,35,0,0
2,note_on,35,57,29
2,note_on,47,68,0
2,note_on,47,0,931
2,note_on,35,0,0
2,note_on,35,53,29
2,note_on,47,63,0
2,note_on,47,0,480
2,note_on,35,0,0
2,note_on,35,53,0
2,note_on,47,63,0
2,note_on,47,0,480
2,note_on,35,0,0
2,note_on,37,57,0
2,note_on,45,57,0
2,note_on,49,68,0
2,note_on,49,0,931
2,note_on,45,0,0
2,note_on,37,0,0
2,note_on,37,57,29
2,note_on,45,57,0
2,note_on,49,68,0
2,note_on,49,0,931
2,note_on,45,0,0
2,note_on,37,0,0
2,note_on,37,53,29
2,note_on,49,63,0
2,note_on,49,0,466
2,note_on,37,0,0
2,note_on,37,53,14
2,note_on,49,63,0
2,note_on,49,0,480
2,note_on,37,0,0
2,note_on,36,57,0
2,note_on,48,68,0
2,note_on,48,0,931
2,note_on,36,0,0
2,note_on,35,57,29
2,note_on,47,68,0
2,note_on,47,0,710
2,note_on,35,0,0
2,note_on,34,52,10
2,note_on,46,62,0
2,note_on,46,0,120
2,note_on,34,0,0
2,note_on,34,53,120
2,note_on,46,63,0
2,note_on,46,0,120
2,note_on,34,0,0
2,note_on,34,56,120
2,note_on,46,66,0
2,note_on,46,0,120
2,note_on,34,0,0
2,note_on,34,57,120
2,note_on,46,68,0
2,note_on,46,0,120
2,note_on,34,0,0
2,note_on,34,59,120
2,note_on,46,70,0
2,note_on,46,0,120
2,note_on,34,0,0
2,note_on,33,62,120
2,note_on,45,73,0
2,note_on,45,0,931
2,note_on,33,0,0
2,note_on,45,57,29
2,note_on,52,68,0
2,note_on,52,0,931
2,note_on,45,0,0
2,note_on,61,45,29
2,note_on,61,0,480
2,note_on,57,37,0
2,note_on,57,0,480
2,note_on,62,45,0
2,note_on,62,0,480
2,note_on,66,39,0
2,note_on,66,0,480
2,note_on,71,39,0
2,note_on,71,0,480
2,note_on,56,44,0
2,note_on,56,0,240
2,note_on,68,36,240
2,note_on,68,0,480
2,note_on,62,36,0
2,note_on,62,0,480
2,note_on,61,45,0
2,note_on,61,0,480
2,note_on,64,39,0
2,note_on,64,0,480
2,note_on,69,39,0
2,note_on,69,0,480
2,note_on,54,44,0
2,note_on,54,0,240
2,note_on,66,36,240
2,note_on,66,0,480
2,note_on,61,36,0
2,note_on,61,0,480
2,note_on,59,45,0
2,note_on,59,0,480
2,note_on,62,39,0
2,note_on,62,0,480
2,note_on,68,39,0
2,note_on,68,0,480
2,note_on,47,44,0
2,note_on,47,0,240
2,note_on,59,34,240
2,note_on,59,0,480
2,note_on,60,32,0
2,note_on,60,0,480
2,note_on,61,25,0
2,note_on,68,30,0
2,note_on,68,0,931
2,note_on,61,0,0
2,note_on,61,39,29
2,note_on,68,47,0
2,note_on,68,0,950
2,note_on,61,0,0
2,note_on,61,37,10
2,note_on,68,44,0
2,note_on,68,0,432
2,note_on,61,0,0
2,note_on,61,37,48
2,note_on,68,44,0
2,note_on,68,0,432
2,note_on,61,0,0
2,note_on,59,39,48
2,note_on,64,39,0
2,note_on,68,47,0
2,note_on,68,0,931
2,note_on,64,0,0
2,note_on,59,0,0
2,note_on,59,39,29
2,note_on,64,39,0
2,note_on,68,47,0
2,note_on,68,0,830
2,note_on,64,0,0
2,note_on,59,0,0
2,note_on,68,39,10
2,note_on,68,0,120
2,note_on,69,44,0
2,note_on,64,39,0
2,note_on,69,0,360
2,note_on,68,41,0
2,note_on,64,0,105
2,note_on,68,0,15
2,note_on,64,39,0
2,note_on,69,43,0
2,note_on,69,0,360
2,note_on,71,41,0
2,note_on,64,0,105
2,note_on,71,0,15
2,note_on,64,47,0
2,note_on,57,39,0
2,note_on,57,0,931
2,note_on,64,0,0
2,note_on,57,39,29
2,note_on,64,47,0
2,note_on,64,0,830
2,note_on,57,0,0
2,note_on,45,60,10
2,note_on,45,0,60
2,note_on,45,64,60
2,note_on,45,0,120
2,note_on,45,59,240
2,note_on,45,0,60
2,note_on,43,64,60
2,note_on,43,0,120
2,note_on,45,60,240
2,note_on,45,0,60
2,note_on,34,57,60
2,note_on,46,68,0
2,note_on,46,0,931
2,note_on,34,0,0
2,note_on,34,57,29
2,note_on,46,68,0
2,note_on,46,0,815
2,note_on,34,0,0
2,note_on,57,60,25
2,note_on,57,0,60
2,note_on,57,64,60
2,note_on,57,0,120
2,note_on,57,59,240
2,note_on,57,0,60
2,note_on,55,64,60
2,note_on,55,0,120
2,note_on,57,60,240
2,note_on,57,0,60
2,note_on,53,57,60
2,note_on,46,57,0
2,note_on,58,68,0
2,note_on,58,0,931
2,note_on,46,0,0
2,note_on,53,0,29
2,note_on,53,57,0
2,note_on,46,57,0
2,note_on,58,68,0
2,note_on,58,0,815
2,note_on,46,0,0
2,note_on,53,0,0
2,note_on,62,51,25
2,note_on,65,60,0
2,note_on,65,0,60
2,note_on,62,0,0
2,note_on,62,54,60
2,note_on,65,64,0
2,note_on,65,0,120
2,note_on,62,0,0
2,note_on,62,50,240
2,note_on,65,59,0
2,note_on,65,0,60
2,note_on,62,0,0
2,note_on,61,54,60
2,note_on,64,64,0
2,note_on,64,0,120
2,note_on,61,0,0
2,note_on,62,51,240
2,note_on,65,60,0
2,note_on,65,0,60
2,note_on,62,0,0
2,note_on,58,54,60
2,note_on,62,64,0
2,note_on,62,0,120
2,note_on,58,0,0
2,note_on,58,50,240
2,note_on,62,59,0
2,note_on,62,0,60
2,note_on,58,0,0
2,note_on,57,54,60
2,note_on,61,64,0
2,note_on,61,0,120
2,note_on,57,0,0
2,note_on,58,51,240
2,note_on,62,60,0
2,note_on,62,0,60
2,note_on,58,0,0
2,note_on,55,54,60
2,note_on,58,64,0
2,note_on,58,0,120
2,note_on,55,0,0
2,note_on,58,59,240
2,note_on,55,50,0
2,note_on,55,0,60
2,note_on,58,0,0
2,note_on,57,64,60
2,note_on,54,54,0
2,note_on,54,0,120
2,note_on,57,0,0
2,note_on,58,60,240
2,note_on,55,51,0
2,note_on,55,0,60
2,note_on,58,0,0
2,note_on,51,57,60
2,note_on,55,68,0
2,note_on,55,0,931
2,note_on,51,0,29
2,note_on,38,57,0
2,note_on,50,68,0
2,note_on,50,0,950
2,note_on,38,0,0
2,note_on,36,57,10
2,note_on,48,68,0
2,note_on,48,0,950
2,note_on,36,0,0
2,note_on,41,57,10
2,note_on,53,68,0
2,note_on,53,0,120
2,note_on,41,0,0
2,note_on,41,57,360
2,note_on,53,68,0
2,note_on,53,0,120
2,note_on,41,0,0
2,note_on,34,57,360
2,note_on,46,68,0
2,note_on,46,0,950
2,note_on,34,0,0
2,note_on,46,57,10
2,note_on,53,68,0
2,note_on,53,0,815
2,note_on,46,0,0
2,note_on,46,55,1105
2,note_on,46,0,240
2,note_on,53,42,240
2,note_on,53,0,240
2,note_on,62,42,240
2,note_on,58,35,0
2,note_on,58,0,240
2,note_on,62,0,0
2,note_on,46,55,240
2,note_on,46,0,240
2,note_on,53,42,240
2,note_on,53,0,240
2,note_on,58,35,240
2,note_on,62,42,0
2,note_on,62,0,240
2,note_on,58,0,0
2,note_on,45,55,240
2,note_on,45,0,240
2,note_on,53,42,240
2,note_on,53,0,240
2,note_on,63,42,240
2,note_on,60,35,0
2,note_on,60,0,240
2,note_on,63,0,0
2,note_on,45,55,240
2,note_on,45,0,240
2,note_on,53,42,240
2,note_on,53,0,240
2,note_on,60,35,240
2,note_on,63,42,0
2,note_on,63,0,240
2,note_on,60,0,0
2,note_on,41,55,240
2,note_on,41,0,240
2,note_on,53,42,240
2,note_on,53,0,240
2,note_on,63,42,240
2,note_on,60,35,0
2,note_on,60,0,240
2,note_on,63,0,0
2,note_on,41,55,240
2,note_on,41,0,240
2,note_on,53,42,240
2,note_on,53,0,240
2,note_on,60,35,240
2,note_on,63,42,0
2,note_on,63,0,240
2,note_on,60,0,0
2,note_on,46,49,240
2,note_on,46,0,240
2,note_on,53,37,240
2,note_on,53,0,240
2,note_on,62,37,240
2,note_on,58,31,0
2,note_on,58,0,240
2,note_on,62,0,0
2,note_on,46,55,240
2,note_on,46,0,240
2,note_on,53,37,240
2,note_on,53,0,240
2,note_on,62,38,240
2,note_on,58,32,0
2,note_on,58,0,240
2,note_on,62,0,0
2,note_on,43,60,240
2,note_on,43,0,240
2,note_on,55,46,240
2,note_on,55,0,240
2,note_on,62,46,240
2,note_on,58,38,0
2,note_on,58,0,240
2,note_on,62,0,0
2,note_on,43,55,240
2,note_on,43,0,240
2,note_on,55,46,240
2,note_on,55,0,240
2,note_on,58,37,240
2,note_on,62,45,0
2,note_on,62,0,240
2,note_on,58,0,0
2,note_on,46,55,240
2,note_on,46,0,240
2,note_on,53,42,240
2,note_on,53,0,240
2,note_on,62,42,240
2,note_on,58,35,0
2,note_on,58,0,240
2,note_on,62,0,0
2,note_on,46,55,240
2,note_on,46,0,240
2,note_on,53,42,240
2,note_on,53,0,240
2,note_on,62,42,240
2,note_on,58,35,0
2,note_on,58,0,240
2,note_on,62,0,0
2,note_on,41,55,240
2,note_on,41,0,240
2,note_on,53,42,240
2,note_on,53,0,240
2,note_on,60,33,240
2,note_on,63,39,0
2,note_on,63,0,240
2,note_on,60,0,0
2,note_on,41,52,240
2,note_on,41,0,240
2,note_on,53,39,240
2,note_on,53,0,240
2,note_on,63,39,240
2,note_on,60,33,0
2,note_on,60,0,240
2,note_on,63,0,0
2,note_on,46,44,240
2,note_on,46,0,240
2,note_on,50,33,240
2,note_on,50,0,240
2,note_on,58,33,240
2,note_on,53,27,0
2,note_on,53,0,240
2,note_on,58,0,0
2,note_on,41,49,240
2,note_on,41,0,240
2,note_on,51,35,240
2,note_on,51,0,240
2,note_on,57,35,240
2,note_on,53,29,0
2,note_on,53,0,240
2,note_on,57,0,0
2,note_on,46,41,240
2,note_on,46,0,240
2,note_on,50,31,240
2,note_on,50,0,240
2,note_on,58,31,240
2,note_on,53,25,0
2,note_on,53,0,240
2,note_on,58,0,0
2,note_on,41,46,240
2,note_on,41,0,240
2,note_on,51,31,240
2,note_on,51,0,240
2,note_on,57,30,240
2,note_on,53,25,0
2,note_on,53,0,240
2,note_on,57,0,0
2,note_on,46,34,240
2,note_on,46,0,350
2,note_on,34,60,10
2,note_on,34,0,60
2,note_on,34,64,60
2,note_on,34,0,120
2,note_on,34,59,240
2,note_on,34,0,60
2,note_on,34,64,60
2,note_on,34,0,120
2,note_on,36,60,240
2,note_on,36,0,60
2,note_on,38,67,60
2,note_on,38,0,350
2,note_on,38,60,10
2,note_on,38,0,60
2,note_on,38,64,60
2,note_on,38,0,120
2,note_on,38,59,240
2,note_on,38,0,60
2,note_on,38,64,60
2,note_on,38,0,120
2,note_on,40,60,240
2,note_on,40,0,60
2,note_on,41,73,60
2,note_on,41,0,350
2,note_on,41,66,10
2,note_on,41,0,60
2,note_on,41,70,60
2,note_on,41,0,120
2,note_on,41,64,240
2,note_on,41,0,60
2,note_on,41,70,60
2,note_on,41,0,120
2,note_on,43,66,240
2,note_on,43,0,60
2,note_on,45,80,60
2,note_on,45,0,350
2,note_on,33,52,10
2,note_on,45,61,0
2,note_on,45,0,60
2,note_on,33,0,0
2,note_on,33,55,60
2,note_on,45,65,0
2,note_on,45,0,120
2,note_on,33,0,0
2,note_on,35,52,240
2,note_on,47,61,0
2,note_on,47,0,60
2,note_on,35,0,0
2,note_on,37,57,60
2,note_on,49,67,0
2,note_on,49,0,120
2,note_on,37,0,0
2,note_on,38,55,240
2,note_on,50,65,0
2,note_on,50,0,60
2,note_on,38,0,0
2,note_on,45,58,60
2,note_on,40,58,0
2,note_on,49,58,0
2,note_on,52,70,0
2,note_on,52,0,931
2,note_on,49,0,0
2,note_on,40,0,0
2,note_on,45,0,29
2,note_on,45,58,0
2,note_on,40,58,0
2,note_on,49,58,0
2,note_on,52,70,0
2,note_on,52,0,815
2,note_on,45,0,0
2,note_on,40,0,0
2,note_on,49,0,0
2,note_on,40,56,25
2,note_on,52,66,0
2,note_on,52,0,120
2,note_on,40,0,0
2,note_on,40,58,0
2,note_on,52,69,0
2,note_on,52,0,332
2,note_on,40,0,0
2,note_on,38,55,28
2,note_on,50,65,0
2,note_on,50,0,120
2,note_on,38,0,0
2,note_on,37,60,0
2,note_on,49,72,0
2,note_on,49,0,332
2,note_on,37,0,0
2,note_on,35,62,28
2,note_on,47,74,0
2,note_on,47,0,120
2,note_on,35,0,0
2,note_on,33,65,0
2,note_on,45,74,0
2,note_on,45,0,931
2,note_on,33,0,0
2,note_on,40,65,29
2,note_on,33,65,0
2,note_on,45,74,0
2,note_on,45,0,820
2,note_on,33,0,0
2,note_on,40,0,0
2,note_on,45,48,20
2,note_on,45,0,60
2,note_on,47,51,60
2,note_on,47,0,120
2,note_on,45,47,240
2,note_on,45,0,60
2,note_on,47,51,60
2,note_on,47,0,120
2,note_on,49,48,240
2,note_on,49,0,60
2,note_on,50,54,60
2,note_on,50,0,931
2,note_on,50,45,29
2,note_on,54,54,0
2,note_on,54,0,815
2,note_on,50,0,0
2,note_on,50,44,25
2,note_on,50,0,110
2,note_on,50,50,10
2,note_on,47,42,0
2,note_on,47,0,120
2,note_on,50,0,0
2,note_on,50,47,240
2,note_on,47,40,0
2,note_on,46,41,114
2,note_on,47,0,6
2,note_on,50,0,0
2,note_on,50,49,6
2,note_on,46,0,108
2,note_on,50,0,12
2,note_on,46,40,234
2,note_on,50,47,0
2,note_on,50,0,120
2,note_on,46,0,0
2,note_on,45,45,0
2,note_on,52,54,0
2,note_on,52,0,931
2,note_on,45,0,0
2,note_on,45,45,29
2,note_on,57,54,0
2,note_on,57,0,815
2,note_on,45,0,0
2,note_on,49,35,25
2,note_on,57,44,0
2,note_on,57,0,110
2,note_on,49,0,0
2,note_on,57,50,10
2,note_on,49,42,0
2,note_on,49,0,120
2,note_on,57,0,0
2,note_on,57,47,240
2,note_on,49,40,0
2,note_on,49,0,120
2,note_on,57,0,0
2,note_on,49,41,0
2,note_on,57,49,0
2,note_on,57,0,120
2,note_on,49,0,0
2,note_on,49,40,240
2,note_on,57,47,0
2,note_on,57,0,120
2,note_on,49,0,0
2,note_on,54,45,0
2,note_on,47,45,0
2,note_on,59,54,0
2,note_on,59,0,931
2,note_on,47,0,0
2,note_on,54,0,29
2,note_on,50,45,0
2,note_on,59,54,0
2,note_on,59,0,815
2,note_on,50,0,0
2,note_on,52,35,25
2,note_on,59,44,0
2,note_on,59,0,110
2,note_on,52,0,0
2,note_on,59,50,10
2,note_on,52,42,0
2,note_on,52,0,120
2,note_on,59,0,0
2,note_on,59,47,240
2,note_on,52,40,0
2,note_on,52,0,120
2,note_on,59,0,0
2,note_on,52,41,0
2,note_on,59,49,0
2,note_on,59,0,120
2,note_on,52,0,0
2,note_on,52,40,240
2,note_on,59,47,0
2,note_on,59,0,120
2,note_on,52,0,0
2,note_on,52,45,0
2,note_on,45,45,0
2,note_on,57,54,0
2,note_on,57,0,931
2,note_on,45,0,0
2,note_on,52,0,29
2,note_on,45,45,0
2,note_on,52,45,0
2,note_on,57,54,0
2,note_on,57,0,950
2,note_on,52,0,0
2,note_on,45,0,0
2,note_on,50,45,10
2,note_on,50,0,466
2,note_on,49,37,14
2,note_on,49,0,466
2,note_on,47,67,14
2,note_on,47,0,160
2,note_on,46,57,0
2,note_on,46,0,160
2,note_on,47,57,0
2,note_on,47,0,160
2,note_on,43,68,0
2,note_on,43,0,160
2,note_on,42,61,0
2,note_on,42,0,160
2,note_on,43,65,0
2,note_on,43,0,160
2,note_on,40,74,0
2,note_on,40,0,840
2,note_on,42,61,0
2,note_on,42,0,120
2,note_on,43,69,0
2,note_on,43,0,360
2,note_on,45,62,0
2,note_on,45,0,120
2,note_on,47,70,0
2,note_on,47,0,360
2,note_on,49,62,0
2,note_on,49,0,120
2,note_on,45,69,0
2,note_on,45,0,160
2,note_on,44,63,0
2,note_on,44,0,160
2,note_on,45,59,0
2,note_on,45,0,160
2,note_on,42,68,0
2,note_on,42,0,160
2,note_on,41,65,0
2,note_on,41,0,160
2,note_on,42,69,0
2,note_on,42,0,160
2,note_on,38,74,0
2,note_on,38,0,840
2,note_on,40,61,0
2,note_on,40,0,120
2,note_on,42,69,0
2,note_on,42,0,360
2,note_on,43,62,0
2,note_on,43,0,120
2,note_on,45,70,0
2,note_on,45,0,360
2,note_on,47,62,0
2,note_on,47,0,120
2,note_on,43,70,0
2,note_on,43,0,160
2,note_on,42,58,0
2,note_on,42,0,160
2,note_on,43,58,0
2,note_on,43,0,160
2,note_on,40,63,0
2,note_on,40,0,160
2,note_on,39,65,0
2,note_on,39,0,160
2,note_on,40,68,0
2,note_on,40,0,160
2,note_on,37,72,0
2,note_on,37,0,840
2,note_on,38,59,0
2,note_on,38,0,120
2,note_on,40,73,0
2,note_on,40,0,360
2,note_on,37,57,0
2,note_on,37,0,120
2,note_on,41,71,0
2,note_on,41,0,360
2,note_on,37,58,0
2,note_on,37,0,120
2,note_on,42,71,0
2,note_on,42,0,931
2,note_on,42,68,29
2,note_on,42,0,815
2,note_on,46,61,25
2,note_on,46,0,60
2,note_on,47,65,60
2,note_on,47,0,120
2,note_on,46,61,240
2,note_on,46,0,60
2,note_on,47,67,60
2,note_on,47,0,120
2,note_on,46,65,240
2,note_on,46,0,60
2,note_on,44,58,60
2,note_on,49,70,0
2,note_on,49,0,931
2,note_on,44,0,29
2,note_on,44,58,0
2,note_on,49,70,0
2,note_on,49,0,815
2,note_on,44,0,0
2,note_on,44,56,25
2,note_on,49,66,0
2,note_on,49,0,120
2,note_on,44,0,0
2,note_on,46,58,0
2,note_on,49,69,0
2,note_on,49,0,332
2,note_on,46,0,0
2,note_on,44,55,28
2,note_on,49,65,0
2,note_on,49,0,120
2,note_on,44,0,0
2,note_on,46,60,0
2,note_on,49,72,0
2,note_on,49,0,332
2,note_on,46,0,0
2,note_on,44,62,28
2,note_on,49,74,0
2,note_on,49,0,120
2,note_on,44,0,0
2,note_on,42,65,0
2,note_on,49,74,0
2,note_on,49,0,931
2,note_on,42,0,0
2,note_on,42,65,29
2,note_on,49,74,0
2,note_on,49,0,820
2,note_on,42,0,0
2,note_on,57,48,20
2,note_on,57,0,60
2,note_on,57,51,60
2,note_on,57,0,349
2,note_on,57,47,11
2,note_on,57,0,60
2,note_on,59,51,46
2,note_on,59,0,349
2,note_on,61,48,25
2,note_on,61,0,60
2,note_on,62,54,60
2,note_on,62,0,931
2,note_on,62,54,29
2,note_on,62,0,815
2,note_on,62,44,25
2,note_on,62,0,107
2,note_on,62,50,13
2,note_on,62,0,120
2,note_on,62,47,226
2,note_on,62,0,116
2,note_on,59,41,18
2,note_on,62,49,0
2,note_on,62,0,120
2,note_on,59,0,0
2,note_on,59,40,240
2,note_on,62,47,0
2,note_on,62,0,120
2,note_on,59,0,0
2,note_on,57,45,0
2,note_on,64,54,0
2,note_on,64,0,931
2,note_on,57,0,0
2,note_on,57,45,29
2,note_on,61,54,0
2,note_on,61,0,815
2,note_on,57,0,0
2,note_on,54,35,25
2,note_on,61,44,0
2,note_on,61,0,107
2,note_on,54,0,0
2,note_on,61,50,13
2,note_on,54,42,0
2,note_on,54,0,120
2,note_on,61,0,0
2,note_on,61,47,226
2,note_on,54,40,0
2,note_on,54,0,116
2,note_on,61,0,0
2,note_on,54,41,18
2,note_on,62,49,0
2,note_on,62,0,120
2,note_on,54,0,0
2,note_on,54,40,240
2,note_on,64,47,0
2,note_on,64,0,120
2,note_on,54,0,0
2,note_on,55,45,0
2,note_on,62,54,0
2,note_on,62,0,931
2,note_on,55,0,29
2,note_on,55,45,0
2,note_on,59,54,0
2,note_on,59,0,815
2,note_on,55,0,0
2,note_on,45,44,25
2,note_on,45,0,110
2,note_on,45,50,10
2,note_on,45,0,120
2,note_on,45,47,240
2,note_on,45,0,120
2,note_on,45,49,0
2,note_on,45,0,120
2,note_on,45,47,240
2,note_on,45,0,120
2,note_on,50,54,0
2,note_on,50,0,931
2,note_on,50,54,29
2,note_on,50,0,950
2,note_on,50,45,10
2,note_on,50,0,456
2,note_on,49,37,24
2,note_on,49,0,480
2,note_on,47,67,0
2,note_on,47,0,160
2,note_on,46,57,0
2,note_on,46,0,160
2,note_on,47,57,0
2,note_on,47,0,160
2,note_on,43,68,0
2,note_on,43,0,160
2,note_on,42,61,0
2,note_on,42,0,160
2,note_on,43,65,0
2,note_on,43,0,160
2,note_on,40,74,0
2,note_on,40,0,840
2,note_on,42,61,0
2,note_on,42,0,120
2,note_on,43,69,0
2,note_on,43,0,360
2,note_on,45,62,0
2,note_on,45,0,120
2,note_on,47,70,0
2,note_on,47,0,360
2,note_on,50,62,0
2,note_on,50,0,120
2,note_on,49,69,0
2,note_on,49,0,160
2,note_on,48,63,0
2,note_on,48,0,160
2,note_on,49,59,0
2,note_on,49,0,160
2,note_on,45,68,0
2,note_on,45,0,160
2,note_on,44,65,0
2,note_on,44,0,160
2,note_on,45,69,0
2,note_on,45,0,160
2,note_on,42,74,0
2,note_on,42,0,840
2,note_on,44,61,0
2,note_on,44,0,120
2,note_on,45,69,0
2,note_on,45,0,360
2,note_on,47,62,0
2,note_on,47,0,120
2,note_on,49,70,0
2,note_on,49,0,360
2,note_on,52,62,0
2,note_on,52,0,120
2,note_on,50,70,0
2,note_on,50,0,160
2,note_on,49,58,0
2,note_on,49,0,160
2,note_on,50,58,0
2,note_on,50,0,160
2,note_on,47,63,0
2,note_on,47,0,160
2,note_on,46,65,0
2,note_on,46,0,160
2,note_on,47,68,0
2,note_on,47,0,160
2,note_on,43,72,0
2,note_on,43,0,840
2,note_on,45,59,0
2,note_on,45,0,120
2,note_on,47,73,0
2,note_on,47,0,360
2,note_on,49,57,0
2,note_on,49,0,120
2,note_on,50,71,0
2,note_on,50,0,360
2,note_on,54,58,0
2,note_on,54,0,120
2,note_on,52,85,0
2,note_on,52,0,931
2,note_on,52,68,29
2,note_on,57,81,0
2,note_on,57,0,815
2,note_on,52,0,0
2,note_on,45,56,25
2,note_on,57,66,0
2,note_on,57,0,120
2,note_on,45,0,0
2,note_on,45,58,0
2,note_on,57,69,0
2,note_on,57,0,332
2,note_on,45,0,0
2,note_on,43,55,28
2,note_on,55,65,0
2,note_on,55,0,120
2,note_on,43,0,0
2,note_on,42,60,0
2,note_on,54,72,0
2,note_on,54,0,332
2,note_on,42,0,0
2,note_on,40,62,28
2,note_on,52,74,0
2,note_on,52,0,120
2,note_on,40,0,0
2,note_on,38,65,0
2,note_on,45,65,0
2,note_on,50,74,0
2,note_on,50,0,931
2,note_on,45,0,0
2,note_on,38,0,0
2,note_on,45,65,29
2,note_on,38,65,0
2,note_on,50,74,0
2,note_on,50,0,820
2,note_on,38,0,0
2,note_on,45,0,0
2,note_on,45,45,1100
2,note_on,49,45,0
2,note_on,55,54,0
2,note_on,55,0,931
2,note_on,49,0,29
2,note_on,45,0,0
2,note_on,45,45,0
2,note_on,49,45,0
2,note_on,55,54,0
2,note_on,55,0,960
2,note_on,49,0,0
2,note_on,45,0,0
2,note_on,38,33,960
2,note_on,45,33,0
2,note_on,50,39,0
2,note_on,50,0,931
2,note_on,45,0,29
2,note_on,38,0,0
2,note_on,38,31,0
2,note_on,45,31,0
2,note_on,50,37,0
2,note_on,50,0,815
2,note_on,45,0,0
2,note_on,38,0,0
2,note_on,45,60,25
2,note_on,45,0,60
2,note_on,45,64,60
2,note_on,45,0,120
2,note_on,45,59,240
2,note_on,45,0,60
2,note_on,43,64,60
2,note_on,43,0,120
2,note_on,45,60,240
2,note_on,45,0,60
2,note_on,34,57,60
2,note_on,46,68,0
2,note_on,46,0,931
2,note_on,34,0,0
2,note_on,34,57,29
2,note_on,46,68,0
2,note_on,46,0,815
2,note_on,34,0,0
2,note_on,57,60,25
2,note_on,57,0,60
2,note_on,57,64,60
2,note_on,57,0,120
2,note_on,57,59,240
2,note_on,57,0,60
2,note_on,55,64,60
2,note_on,55,0,120
2,note_on,57,60,240
2,note_on,57,0,60
2,note_on,53,57,60
2,note_on,46,57,0
2,note_on,58,68,0
2,note_on,58,0,931
2,note_on,46,0,0
2,note_on,53,0,29
2,note_on,53,57,0
2,note_on,46,57,0
2,note_on,58,68,0
2,note_on,58,0,815
2,note_on,46,0,0
2,note_on,53,0,0
2,note_on,62,51,25
2,note_on,65,60,0
2,note_on,65,0,60
2,note_on,62,0,0
2,note_on,62,54,60
2,note_on,65,64,0
2,note_on,65,0,120
2,note_on,62,0,0
2,note_on,62,50,240
2,note_on,65,59,0
2,note_on,65,0,60
2,note_on,62,0,0
2,note_on,61,54,60
2,note_on,64,64,0
2,note_on,64,0,120
2,note_on,61,0,0
2,note_on,62,51,240
2,note_on,65,60,0
2,note_on,65,0,60
2,note_on,62,0,0
2,note_on,58,54,60
2,note_on,62,64,0
2,note_on,62,0,120
2,note_on,58,0,0
2,note_on,58,50,240
2,note_on,62,59,0
2,note_on,62,0,60
2,note_on,58,0,0
2,note_on,57,54,60
2,note_on,61,64,0
2,note_on,61,0,120
2,note_on,57,0,0
2,note_on,58,51,240
2,note_on,62,60,0
2,note_on,62,0,60
2,note_on,58,0,0
2,note_on,55,54,60
2,note_on,58,64,0
2,note_on,58,0,120
2,note_on,55,0,0
2,note_on,58,59,240
2,note_on,55,50,0
2,note_on,55,0,60
2,note_on,58,0,0
2,note_on,57,64,60
2,note_on,54,54,0
2,note_on,54,0,120
2,note_on,57,0,0
2,note_on,58,60,240
2,note_on,55,51,0
2,note_on,55,0,60
2,note_on,58,0,0
2,note_on,51,57,60
2,note_on,55,68,0
2,note_on,55,0,931
2,note_on,51,0,29
2,note_on,38,57,0
2,note_on,50,68,0
2,note_on,50,0,950
2,note_on,38,0,0
2,note_on,36,57,10
2,note_on,48,68,0
2,note_on,48,0,950
2,note_on,36,0,0
2,note_on,41,57,10
2,note_on,53,68,0
2,note_on,53,0,120
2,note_on,41,0,0
2,note_on,41,57,360
2,note_on,53,68,0
2,note_on,53,0,120
2,note_on,41,0,0
2,note_on,34,57,360
2,note_on,46,68,0
2,note_on,46,0,950
2,note_on,34,0,0
2,note_on,46,57,10
2,note_on,53,68,0
2,note_on,53,0,815
2,note_on,46,0,0
2,note_on,46,55,1105
2,note_on,46,0,240
2,note_on,53,42,240
2,note_on,53,0,240
2,note_on,62,42,240
2,note_on,58,35,0
2,note_on,58,0,240
2,note_on,62,0,0
2,note_on,46,55,240
2,note_on,46,0,240
2,note_on,53,42,240
2,note_on,53,0,240
2,note_on,58,35,240
2,note_on,62,42,0
2,note_on,62,0,240
2,note_on,58,0,0
2,note_on,45,55,240
2,note_on,45,0,240
2,note_on,53,42,240
2,note_on,53,0,240
2,note_on,63,42,240
2,note_on,60,35,0
2,note_on,60,0,240
2,note_on,63,0,0
2,note_on,45,55,240
2,note_on,45,0,240
2,note_on,53,42,240
2,note_on,53,0,240
2,note_on,60,35,240
2,note_on,63,42,0
2,note_on,63,0,240
2,note_on,60,0,0
2,note_on,41,55,240
2,note_on,41,0,240
2,note_on,53,42,240
2,note_on,53,0,240
2,note_on,63,42,240
2,note_on,60,35,0
2,note_on,60,0,240
2,note_on,63,0,0
2,note_on,41,55,240
2,note_on,41,0,240
2,note_on,53,42,240
2,note_on,53,0,240
2,note_on,60,35,240
2,note_on,63,42,0
2,note_on,63,0,240
2,note_on,60,0,0
2,note_on,46,49,240
2,note_on,46,0,240
2,note_on,53,37,240
2,note_on,53,0,240
2,note_on,62,37,240
2,note_on,58,31,0
2,note_on,58,0,240
2,note_on,62,0,0
2,note_on,46,55,240
2,note_on,46,0,240
2,note_on,53,37,240
2,note_on,53,0,240
2,note_on,62,38,240
2,note_on,58,32,0
2,note_on,58,0,240
2,note_on,62,0,0
2,note_on,43,60,240
2,note_on,43,0,240
2,note_on,55,46,240
2,note_on,55,0,240
2,note_on,62,46,240
2,note_on,58,38,0
2,note_on,58,0,240
2,note_on,62,0,0
2,note_on,43,55,240
2,note_on,43,0,240
2,note_on,55,46,240
2,note_on,55,0,240
2,note_on,58,37,240
2,note_on,62,45,0
2,note_on,62,0,240
2,note_on,58,0,0
2,note_on,46,55,240
2,note_on,46,0,240
2,note_on,53,42,240
2,note_on,53,0,240
2,note_on,62,42,240
2,note_on,58,35,0
2,note_on,58,0,240
2,note_on,62,0,0
2,note_on,46,55,240
2,note_on,46,0,240
2,note_on,53,42,240
2,note_on,53,0,240
2,note_on,62,42,240
2,note_on,58,35,0
2,note_on,58,0,240
2,note_on,62,0,0
2,note_on,41,55,240
2,note_on,41,0,240
2,note_on,53,42,240
2,note_on,53,0,240
2,note_on,60,33,240
2,note_on,63,39,0
2,note_on,63,0,240
2,note_on,60,0,0
2,note_on,41,52,240
2,note_on,41,0,240
2,note_on,53,39,240
2,note_on,53,0,240
2,note_on,63,39,240
2,note_on,60,33,0
2,note_on,60,0,240
2,note_on,63,0,0
2,note_on,46,44,240
2,note_on,46,0,240
2,note_on,50,33,240
2,note_on,50,0,240
2,note_on,58,33,240
2,note_on,53,27,0
2,note_on,53,0,240
2,note_on,58,0,0
2,note_on,41,49,240
2,note_on,41,0,240
2,note_on,51,35,240
2,note_on,51,0,240
2,note_on,57,35,240
2,note_on,53,29,0
2,note_on,53,0,240
2,note_on,57,0,0
2,note_on,46,41,240
2,note_on,46,0,240
2,note_on,50,31,240
2,note_on,50,0,240
2,note_on,58,31,240
2,note_on,53,25,0
2,note_on,53,0,240
2,note_on,58,0,0
2,note_on,41,46,240
2,note_on,41,0,240
2,note_on,51,31,240
2,note_on,51,0,240
2,note_on,57,30,240
2,note_on,53,25,0
2,note_on,53,0,240
2,note_on,57,0,0
2,note_on,46,34,240
2,note_on,46,0,350
2,note_on,34,60,10
2,note_on,34,0,60
2,note_on,34,64,60
2,note_on,34,0,120
2,note_on,34,59,240
2,note_on,34,0,60
2,note_on,34,64,60
2,note_on,34,0,120
2,note_on,36,60,240
2,note_on,36,0,60
2,note_on,38,67,60
2,note_on,38,0,350
2,note_on,38,60,10
2,note_on,38,0,60
2,note_on,38,64,60
2,note_on,38,0,120
2,note_on,38,59,240
2,note_on,38,0,60
2,note_on,38,64,60
2,note_on,38,0,120
2,note_on,40,60,240
2,note_on,40,0,60
2,note_on,41,73,60
2,note_on,41,0,350
2,note_on,41,66,10
2,note_on,41,0,60
2,note_on,41,70,60
2,note_on,41,0,120
2,note_on,41,64,240
2,note_on,41,0,60
2,note_on,41,70,60
2,note_on,41,0,120
2,note_on,43,66,240
2,note_on,43,0,60
2,note_on,45,80,60
2,note_on,45,0,350
2,note_on,33,52,10
2,note_on,45,61,0
2,note_on,45,0,60
2,note_on,33,0,0
2,note_on,33,55,60
2,note_on,45,65,0
2,note_on,45,0,120
2,note_on,33,0,0
2,note_on,35,52,240
2,note_on,47,61,0
2,note_on,47,0,60
2,note_on,35,0,0
2,note_on,37,57,60
2,note_on,49,67,0
2,note_on,49,0,120
2,note_on,37,0,0
2,note_on,38,55,240
2,note_on,50,65,0
2,note_on,50,0,60
2,note_on,38,0,0
2,note_on,45,58,60
2,note_on,40,58,0
2,note_on,49,58,0
2,note_on,52,70,0
2,note_on,52,0,931
2,note_on,49,0,0
2,note_on,40,0,0
2,note_on,45,0,29
2,note_on,45,58,0
2,note_on,40,58,0
2,note_on,49,58,0
2,note_on,52,70,0
2,note_on,52,0,815
2,note_on,45,0,0
2,note_on,40,0,0
2,note_on,49,0,0
2,note_on,40,56,25
2,note_on,52,66,0
2,note_on,52,0,120
2,note_on,40,0,0
2,note_on,40,58,0
2,note_on,52,69,0
2,note_on,52,0,332
2,note_on,40,0,0
2,note_on,38,55,28
2,note_on,50,65,0
2,note_on,50,0,120
2,note_on,38,0,0
2,note_on,37,60,0
2,note_on,49,72,0
2,note_on,49,0,332
2,note_on,37,0,0
2,note_on,35,62,28
2,note_on,47,74,0
2,note_on,47,0,120
2,note_on,35,0,0
2,note_on,33,65,0
2,note_on,45,74,0
2,note_on,45,0,931
2,note_on,33,0,0
2,note_on,40,65,29
2,note_on,33,65,0
2,note_on,45,74,0
2,note_on,45,0,820
2,note_on,33,0,0
2,note_on,40,0,0
2,note_on,45,48,20
2,note_on,45,0,60
2,note_on,47,51,60
2,note_on,47,0,120
2,note_on,45,47,240
2,note_on,45,0,60
2,note_on,47,51,60
2,note_on,47,0,120
2,note_on,49,48,240
2,note_on,49,0,60
2,note_on,50,54,60
2,note_on,50,0,931
2,note_on,50,45,29
2,note_on,54,54,0
2,note_on,54,0,815
2,note_on,50,0,0
2,note_on,50,44,25
2,note_on,50,0,110
2,note_on,50,50,10
2,note_on,47,42,0
2,note_on,47,0,120
2,note_on,50,0,0
2,note_on,50,47,240
2,note_on,47,40,0
2,note_on,46,41,114
2,note_on,47,0,6
2,note_on,50,0,0
2,note_on,50,49,6
2,note_on,46,0,108
2,note_on,50,0,12
2,note_on,46,40,234
2,note_on,50,47,0
2,note_on,50,0,120
2,note_on,46,0,0
2,note_on,45,45,0
2,note_on,52,54,0
2,note_on,52,0,931
2,note_on,45,0,0
2,note_on,45,45,29
2,note_on,57,54,0
2,note_on,57,0,815
2,note_on,45,0,0
2,note_on,49,35,25
2,note_on,57,44,0
2,note_on,57,0,110
2,note_on,49,0,0
2,note_on,57,50,10
2,note_on,49,42,0
2,note_on,49,0,120
2,note_on,57,0,0
2,note_on,57,47,240
2,note_on,49,40,0
2,note_on,49,0,120
2,note_on,57,0,0
2,note_on,49,41,0
2,note_on,57,49,0
2,note_on,57,0,120
2,note_on,49,0,0
2,note_on,49,40,240
2,note_on,57,47,0
2,note_on,57,0,120
2,note_on,49,0,0
2,note_on,54,45,0
2,note_on,47,45,0
2,note_on,59,54,0
2,note_on,59,0,931
2,note_on,47,0,0
2,note_on,54,0,29
2,note_on,50,45,0
2,note_on,59,54,0
2,note_on,59,0,815
2,note_on,50,0,0
2,note_on,52,35,25
2,note_on,59,44,0
2,note_on,59,0,110
2,note_on,52,0,0
2,note_on,59,50,10
2,note_on,52,42,0
2,note_on,52,0,120
2,note_on,59,0,0
2,note_on,59,47,240
2,note_on,52,40,0
2,note_on,52,0,120
2,note_on,59,0,0
2,note_on,52,41,0
2,note_on,59,49,0
2,note_on,59,0,120
2,note_on,52,0,0
2,note_on,52,40,240
2,note_on,59,47,0
2,note_on,59,0,120
2,note_on,52,0,0
2,note_on,52,45,0
2,note_on,45,45,0
2,note_on,57,54,0
2,note_on,57,0,931
2,note_on,45,0,0
2,note_on,52,0,29
2,note_on,45,45,0
2,note_on,52,45,0
2,note_on,57,54,0
2,note_on,57,0,950
2,note_on,52,0,0
2,note_on,45,0,0
2,note_on,50,45,10
2,note_on,50,0,456
2,note_on,49,37,24
2,note_on,49,0,466
2,note_on,47,67,14
2,note_on,47,0,160
2,note_on,46,57,0
2,note_on,46,0,160
2,note_on,47,57,0
2,note_on,47,0,160
2,note_on,43,68,0
2,note_on,43,0,160
2,note_on,42,61,0
2,note_on,42,0,160
2,note_on,43,65,0
2,note_on,43,0,160
2,note_on,40,74,0
2,note_on,40,0,840
2,note_on,42,61,0
2,note_on,42,0,120
2,note_on,43,69,0
2,note_on,43,0,360
2,note_on,45,62,0
2,note_on,45,0,120
2,note_on,47,70,0
2,note_on,47,0,360
2,note_on,49,62,0
2,note_on,49,0,120
2,note_on,45,69,0
2,note_on,45,0,160
2,note_on,44,63,0
2,note_on,44,0,160
2,note_on,45,59,0
2,note_on,45,0,160
2,note_on,42,68,0
2,note_on,42,0,160
2,note_on,41,65,0
2,note_on,41,0,160
2,note_on,42,69,0
2,note_on,42,0,160
2,note_on,38,74,0
2,note_on,38,0,840
2,note_on,40,61,0
2,note_on,40,0,120
2,note_on,42,69,0
2,note_on,42,0,360
2,note_on,43,62,0
2,note_on,43,0,120
2,note_on,45,70,0
2,note_on,45,0,360
2,note_on,47,62,0
2,note_on,47,0,120
2,note_on,43,70,0
2,note_on,43,0,160
2,note_on,42,58,0
2,note_on,42,0,160
2,note_on,43,58,0
2,note_on,43,0,160
2,note_on,40,63,0
2,note_on,40,0,160
2,note_on,39,65,0
2,note_on,39,0,160
2,note_on,40,68,0
2,note_on,40,0,160
2,note_on,37,72,0
2,note_on,37,0,840
2,note_on,38,59,0
2,note_on,38,0,120
2,note_on,40,73,0
2,note_on,40,0,360
2,note_on,37,57,0
2,note_on,37,0,120
2,note_on,41,71,0
2,note_on,41,0,360
2,note_on,37,58,0
2,note_on,37,0,120
2,note_on,42,71,0
2,note_on,42,0,931
2,note_on,42,68,29
2,note_on,42,0,815
2,note_on,46,61,25
2,note_on,46,0,60
2,note_on,47,65,60
2,note_on,47,0,120
2,note_on,46,61,240
2,note_on,46,0,60
2,note_on,47,67,60
2,note_on,47,0,120
2,note_on,46,65,240
2,note_on,46,0,60
2,note_on,44,58,60
2,note_on,49,70,0
2,note_on,49,0,931
2,note_on,44,0,29
2,note_on,44,58,0
2,note_on,49,70,0
2,note_on,49,0,815
2,note_on,44,0,0
2,note_on,44,56,25
2,note_on,49,66,0
2,note_on,49,0,120
2,note_on,44,0,0
2,note_on,46,58,0
2,note_on,49,69,0
2,note_on,49,0,332
2,note_on,46,0,0
2,note_on,44,55,28
2,note_on,49,65,0
2,note_on,49,0,120
2,note_on,44,0,0
2,note_on,46,60,0
2,note_on,49,72,0
2,note_on,49,0,332
2,note_on,46,0,0
2,note_on,44,62,28
2,note_on,49,74,0
2,note_on,49,0,120
2,note_on,44,0,0
2,note_on,42,65,0
2,note_on,49,74,0
2,note_on,49,0,931
2,note_on,42,0,0
2,note_on,42,65,29
2,note_on,49,74,0
2,note_on,49,0,820
2,note_on,42,0,0
2,note_on,57,48,20
2,note_on,57,0,60
2,note_on,57,51,60
2,note_on,57,0,349
2,note_on,57,47,11
2,note_on,57,0,60
2,note_on,59,51,46
2,note_on,59,0,349
2,note_on,61,48,25
2,note_on,61,0,60
2,note_on,62,54,60
2,note_on,62,0,931
2,note_on,62,54,29
2,note_on,62,0,815
2,note_on,62,44,25
2,note_on,62,0,107
2,note_on,62,50,13
2,note_on,62,0,120
2,note_on,62,47,226
2,note_on,62,0,116
2,note_on,59,41,18
2,note_on,62,49,0
2,note_on,62,0,120
2,note_on,59,0,0
2,note_on,59,40,240
2,note_on,62,47,0
2,note_on,62,0,120
2,note_on,59,0,0
2,note_on,57,45,0
2,note_on,64,54,0
2,note_on,64,0,931
2,note_on,57,0,0
2,note_on,57,45,29
2,note_on,61,54,0
2,note_on,61,0,815
2,note_on,57,0,0
2,note_on,54,35,25
2,note_on,61,44,0
2,note_on,61,0,107
2,note_on,54,0,0
2,note_on,61,50,13
2,note_on,54,42,0
2,note_on,54,0,120
2,note_on,61,0,0
2,note_on,61,47,226
2,note_on,54,40,0
2,note_on,54,0,116
2,note_on,61,0,0
2,note_on,54,41,18
2,note_on,62,49,0
2,note_on,62,0,120
2,note_on,54,0,0
2,note_on,54,40,240
2,note_on,64,47,0
2,note_on,64,0,120
2,note_on,54,0,0
2,note_on,55,45,0
2,note_on,62,54,0
2,note_on,62,0,931
2,note_on,55,0,29
2,note_on,55,45,0
2,note_on,59,54,0
2,note_on,59,0,815
2,note_on,55,0,0
2,note_on,45,44,25
2,note_on,45,0,110
2,note_on,45,50,10
2,note_on,45,0,120
2,note_on,45,47,240
2,note_on,45,0,120
2,note_on,45,49,0
2,note_on,45,0,120
2,note_on,45,47,240
2,note_on,45,0,120
2,note_on,50,54,0
2,note_on,50,0,931
2,note_on,50,54,29
2,note_on,50,0,950
2,note_on,50,45,10
2,note_on,50,0,456
2,note_on,49,37,24
2,note_on,49,0,466
2,note_on,47,67,14
2,note_on,47,0,160
2,note_on,46,57,0
2,note_on,46,0,160
2,note_on,47,57,0
2,note_on,47,0,160
2,note_on,43,68,0
2,note_on,43,0,160
2,note_on,42,61,0
2,note_on,42,0,160
2,note_on,43,65,0
2,note_on,43,0,160
2,note_on,40,74,0
2,note_on,40,0,840
2,note_on,42,61,0
2,note_on,42,0,120
2,note_on,43,69,0
2,note_on,43,0,360
2,note_on,45,62,0
2,note_on,45,0,120
2,note_on,47,70,0
2,note_on,47,0,360
2,note_on,50,62,0
2,note_on,50,0,120
2,note_on,49,69,0
2,note_on,49,0,160
2,note_on,48,63,0
2,note_on,48,0,160
2,note_on,49,59,0
2,note_on,49,0,160
2,note_on,45,68,0
2,note_on,45,0,160
2,note_on,44,65,0
2,note_on,44,0,160
2,note_on,45,69,0
2,note_on,45,0,160
2,note_on,42,74,0
2,note_on,42,0,840
2,note_on,44,61,0
2,note_on,44,0,120
2,note_on,45,69,0
2,note_on,45,0,360
2,note_on,47,62,0
2,note_on,47,0,120
2,note_on,49,70,0
2,note_on,49,0,360
2,note_on,52,62,0
2,note_on,52,0,120
2,note_on,50,70,0
2,note_on,50,0,160
2,note_on,49,58,0
2,note_on,49,0,160
2,note_on,50,58,0
2,note_on,50,0,160
2,note_on,47,63,0
2,note_on,47,0,160
2,note_on,46,65,0
2,note_on,46,0,160
2,note_on,47,68,0
2,note_on,47,0,160
2,note_on,43,72,0
2,note_on,43,0,840
2,note_on,45,59,0
2,note_on,45,0,120
2,note_on,47,73,0
2,note_on,47,0,360
2,note_on,49,57,0
2,note_on,49,0,120
2,note_on,50,71,0
2,note_on,50,0,360
2,note_on,54,58,0
2,note_on,54,0,120
2,note_on,52,85,0
2,note_on,52,0,931
2,note_on,52,68,29
2,note_on,57,81,0
2,note_on,57,0,815
2,note_on,52,0,0
2,note_on,45,56,25
2,note_on,57,66,0
2,note_on,57,0,120
2,note_on,45,0,0
2,note_on,45,58,0
2,note_on,57,69,0
2,note_on,57,0,332
2,note_on,45,0,0
2,note_on,43,55,28
2,note_on,55,65,0
2,note_on,55,0,120
2,note_on,43,0,0
2,note_on,42,60,0
2,note_on,54,72,0
2,note_on,54,0,332
2,note_on,42,0,0
2,note_on,40,62,28
2,note_on,52,74,0
2,note_on,52,0,120
2,note_on,40,0,0
2,note_on,38,65,0
2,note_on,45,65,0
2,note_on,50,74,0
2,note_on,50,0,931
2,note_on,45,0,0
2,note_on,38,0,0
2,note_on,45,65,29
2,note_on,38,65,0
2,note_on,50,74,0
2,note_on,50,0,820
2,note_on,38,0,0
2,note_on,45,0,0
2,note_on,45,45,1100
2,note_on,49,45,0
2,note_on,55,54,0
2,note_on,55,0,931
2,note_on,49,0,0
2,note_on,45,0,0
2,note_on,45,45,29
2,note_on,49,45,0
2,note_on,55,54,0
2,note_on,55,0,960
2,note_on,49,0,0
2,note_on,45,0,0
2,note_on,38,33,960
2,note_on,45,33,0
2,note_on,50,39,0
2,note_on,50,0,931
2,note_on,45,0,29
2,note_on,38,0,0
2,note_on,38,31,0
2,note_on,45,31,0
2,note_on,50,37,0
2,note_on,50,0,950
2,note_on,45,0,0
2,note_on,38,0,0
2,note_on,50,35,10
2,note_on,50,0,456
2,note_on,50,32,24
2,note_on,50,0,456
2,note_on,43,29,24
2,note_on,50,29,0
2,note_on,55,35,0
2,note_on,55,0,951
2,note_on,50,0,0
2,note_on,43,0,0
2,note_on,43,29,9
2,note_on,50,29,0
2,note_on,55,35,0
2,note_on,55,0,456
2,note_on,50,0,0
2,note_on,43,0,0
2,note_on,43,29,24
2,note_on,50,29,0
2,note_on,55,35,0
2,note_on,55,0,456
2,note_on,50,0,0
2,note_on,43,0,0
2,note_on,43,28,24
2,note_on,50,28,0
2,note_on,55,33,0
2,note_on,55,0,456
2,note_on,50,0,0
2,note_on,43,0,0
2,note_on,43,28,24
2,note_on,50,28,0
2,note_on,55,33,0
2,note_on,55,0,456
2,note_on,50,0,0
2,note_on,43,0,0
2,note_on,43,29,24
2,note_on,50,29,0
2,note_on,55,35,0
2,note_on,55,0,456
2,note_on,50,0,0
2,note_on,43,0,0
2,note_on,48,32,24
2,note_on,50,32,0
2,note_on,60,38,0
2,note_on,60,0,465
2,note_on,48,0,0
2,note_on,50,0,1
2,note_on,50,29,14
2,note_on,47,29,0
2,note_on,59,35,0
2,note_on,59,0,456
2,note_on,47,0,0
2,note_on,50,0,0
2,note_on,47,29,24
2,note_on,50,29,0
2,note_on,59,35,0
2,note_on,59,0,456
2,note_on,50,0,0
2,note_on,47,0,0
2,note_on,47,27,24
2,note_on,50,27,0
2,note_on,59,32,0
2,note_on,59,0,456
2,note_on,50,0,0
2,note_on,47,0,0
2,note_on,47,27,24
2,note_on,50,27,0
2,note_on,59,32,0
2,note_on,59,0,456
2,note_on,50,0,0
2,note_on,47,0,0
2,note_on,47,29,24
2,note_on,50,29,0
2,note_on,59,35,0
2,note_on,59,0,480
2,note_on,50,0,0
2,note_on,47,0,0
2,note_on,42,26,0
2,note_on,50,26,0
2,note_on,54,31,0
2,note_on,54,0,466
2,note_on,50,0,0
2,note_on,42,0,0
2,note_on,45,26,14
2,note_on,50,26,0
2,note_on,57,31,0
2,note_on,57,0,466
2,note_on,50,0,0
2,note_on,45,0,0
2,note_on,45,29,14
2,note_on,50,29,0
2,note_on,57,35,0
2,note_on,57,0,466
2,note_on,50,0,0
2,note_on,45,0,0
2,note_on,43,28,14
2,note_on,50,28,0
2,note_on,55,33,0
2,note_on,55,0,466
2,note_on,50,0,0
2,note_on,43,0,0
2,note_on,42,28,14
2,note_on,50,28,0
2,note_on,54,33,0
2,note_on,54,0,466
2,note_on,50,0,0
2,note_on,42,0,0
2,note_on,42,29,14
2,note_on,50,29,0
2,note_on,54,35,0
2,note_on,54,0,466
2,note_on,50,0,0
2,note_on,42,0,0
2,note_on,43,26,14
2,note_on,50,26,0
2,note_on,55,31,0
2,note_on,55,0,466
2,note_on,50,0,0
2,note_on,43,0,0
2,note_on,43,26,14
2,note_on,50,26,0
2,note_on,55,31,0
2,note_on,55,0,466
2,note_on,50,0,0
2,note_on,43,0,0
2,note_on,43,29,14
2,note_on,50,29,0
2,note_on,55,35,0
2,note_on,55,0,466
2,note_on,50,0,0
2,note_on,43,0,0
2,note_on,42,33,14
2,note_on,50,33,0
2,note_on,54,40,0
2,note_on,54,0,466
2,note_on,50,0,0
2,note_on,42,0,0
2,note_on,40,39,14
2,note_on,50,39,0
2,note_on,52,47,0
2,note_on,52,0,466
2,note_on,50,0,0
2,note_on,40,0,0
2,note_on,38,43,14
2,note_on,50,52,0
2,note_on,50,0,951
2,note_on,38,0,0
2,note_on,38,34,9
2,note_on,50,42,0
2,note_on,50,0,456
2,note_on,38,0,0
2,note_on,38,34,24
2,note_on,50,42,0
2,note_on,50,0,456
2,note_on,38,0,0
2,note_on,38,33,24
2,note_on,50,39,0
2,note_on,50,0,456
2,note_on,38,0,0
2,note_on,40,33,24
2,note_on,50,33,0
2,note_on,52,39,0
2,note_on,52,0,456
2,note_on,50,0,0
2,note_on,40,0,0
2,note_on,42,28,24
2,note_on,50,28,0
2,note_on,54,42,0
2,note_on,54,0,456
2,note_on,50,0,0
2,note_on,42,0,0
2,note_on,45,36,24
2,note_on,54,36,0
2,note_on,57,50,0
2,note_on,57,0,466
2,note_on,54,0,0
2,note_on,45,0,0
2,note_on,57,36,14
2,note_on,50,36,0
2,note_on,62,52,0
2,note_on,62,0,456
2,note_on,50,0,0
2,note_on,57,0,0
2,note_on,50,51,24
2,note_on,57,51,0
2,note_on,62,60,0
2,note_on,62,0,456
2,note_on,57,0,0
2,note_on,50,0,0
2,note_on,50,52,24
2,note_on,57,52,0
2,note_on,62,62,0
2,note_on,62,0,456
2,note_on,57,0,0
2,note_on,50,0,0
2,note_on,50,54,24
2,note_on,57,54,0
2,note_on,62,64,0
2,note_on,62,0,456
2,note_on,57,0,0
2,note_on,50,0,0
2,note_on,49,56,24
2,note_on,58,56,0
2,note_on,61,66,0
2,note_on,61,0,456
2,note_on,58,0,0
2,note_on,49,0,0
2,note_on,49,47,24
2,note_on,58,47,0
2,note_on,61,56,0
2,note_on,61,0,456
2,note_on,58,0,0
2,note_on,49,0,0
2,note_on,49,44,24
2,note_on,58,44,0
2,note_on,61,52,0
2,note_on,61,0,456
2,note_on,58,0,0
2,note_on,49,0,0
2,note_on,49,37,24
2,note_on,58,37,0
2,note_on,61,44,0
2,note_on,61,0,456
2,note_on,58,0,0
2,note_on,49,0,0
2,note_on,49,33,24
2,note_on,58,33,0
2,note_on,61,40,0
2,note_on,61,0,456
2,note_on,58,0,0
2,note_on,49,0,0
2,note_on,49,29,24
2,note_on,58,29,0
2,note_on,61,36,0
2,note_on,61,0,456
2,note_on,58,0,0
2,note_on,49,0,0
2,note_on,50,28,24
2,note_on,57,28,0
2,note_on,62,33,0
2,note_on,62,0,466
2,note_on,57,0,0
2,note_on,50,0,0
2,note_on,52,25,14
2,note_on,57,25,0
2,note_on,64,30,0
2,note_on,64,0,466
2,note_on,57,0,0
2,note_on,52,0,0
2,note_on,54,25,14
2,note_on,57,25,0
2,note_on,66,30,0
2,note_on,66,0,466
2,note_on,57,0,0
2,note_on,54,0,0
2,note_on,47,29,14
2,note_on,59,35,0
2,note_on,59,0,466
2,note_on,47,0,0
2,note_on,45,25,14
2,note_on,57,30,0
2,note_on,57,0,466
2,note_on,45,0,0
2,note_on,42,25,14
2,note_on,54,30,0
2,note_on,54,0,466
2,note_on,42,0,0
2,note_on,45,31,14
2,note_on,57,37,0
2,note_on,57,0,951
2,note_on,45,0,0
2,note_on,50,26,9
2,note_on,57,26,0
2,note_on,62,31,0
2,note_on,62,0,466
2,note_on,57,0,0
2,note_on,50,0,0
2,note_on,50,30,14
2,note_on,57,30,0
2,note_on,62,36,0
2,note_on,62,0,466
2,note_on,57,0,0
2,note_on,50,0,0
2,note_on,50,35,14
2,note_on,50,0,456
2,note_on,50,32,24
2,note_on,50,0,456
2,note_on,43,29,24
2,note_on,50,29,0
2,note_on,55,35,0
2,note_on,55,0,951
2,note_on,50,0,0
2,note_on,43,0,0
2,note_on,43,29,9
2,note_on,50,29,0
2,note_on,55,35,0
2,note_on,55,0,456
2,note_on,50,0,0
2,note_on,43,0,0
2,note_on,43,29,24
2,note_on,50,29,0
2,note_on,55,35,0
2,note_on,55,0,456
2,note_on,50,0,0
2,note_on,43,0,0
2,note_on,43,28,24
2,note_on,50,28,0
2,note_on,55,33,0
2,note_on,55,0,456
2,note_on,50,0,0
2,note_on,43,0,0
2,note_on,43,28,24
2,note_on,50,28,0
2,note_on,55,33,0
2,note_on,55,0,456
2,note_on,50,0,0
2,note_on,43,0,0
2,note_on,43,29,24
2,note_on,50,29,0
2,note_on,55,35,0
2,note_on,55,0,456
2,note_on,50,0,0
2,note_on,43,0,0
2,note_on,48,32,24
2,note_on,50,32,0
2,note_on,60,38,0
2,note_on,60,0,465
2,note_on,48,0,0
2,note_on,50,0,1
2,note_on,50,29,14
2,note_on,47,29,0
2,note_on,59,35,0
2,note_on,59,0,456
2,note_on,47,0,0
2,note_on,50,0,0
2,note_on,47,29,24
2,note_on,50,29,0
2,note_on,59,35,0
2,note_on,59,0,456
2,note_on,50,0,0
2,note_on,47,0,0
2,note_on,47,27,24
2,note_on,50,27,0
2,note_on,59,32,0
2,note_on,59,0,456
2,note_on,50,0,0
2,note_on,47,0,0
2,note_on,47,27,24
2,note_on,50,27,0
2,note_on,59,32,0
2,note_on,59,0,456
2,note_on,50,0,0
2,note_on,47,0,0
2,note_on,47,29,24
2,note_on,50,29,0
2,note_on,59,35,0
2,note_on,59,0,480
2,note_on,50,0,0
2,note_on,47,0,0
2,note_on,42,26,0
2,note_on,50,26,0
2,note_on,54,31,0
2,note_on,54,0,466
2,note_on,50,0,0
2,note_on,42,0,0
2,note_on,45,26,14
2,note_on,50,26,0
2,note_on,57,31,0
2,note_on,57,0,466
2,note_on,50,0,0
2,note_on,45,0,0
2,note_on,45,29,14
2,note_on,50,29,0
2,note_on,57,35,0
2,note_on,57,0,466
2,note_on,50,0,0
2,note_on,45,0,0
2,note_on,43,28,14
2,note_on,50,28,0
2,note_on,55,33,0
2,note_on,55,0,466
2,note_on,50,0,0
2,note_on,43,0,0
2,note_on,42,28,14
2,note_on,50,28,0
2,note_on,54,33,0
2,note_on,54,0,466
2,note_on,50,0,0
2,note_on,42,0,0
2,note_on,42,29,14
2,note_on,50,29,0
2,note_on,54,35,0
2,note_on,54,0,466
2,note_on,50,0,0
2,note_on,42,0,0
2,note_on,43,26,14
2,note_on,50,26,0
2,note_on,55,31,0
2,note_on,55,0,466
2,note_on,50,0,0
2,note_on,43,0,0
2,note_on,43,26,14
2,note_on,50,26,0
2,note_on,55,31,0
2,note_on,55,0,466
2,note_on,50,0,0
2,note_on,43,0,0
2,note_on,43,29,14
2,note_on,50,29,0
2,note_on,55,35,0
2,note_on,55,0,466
2,note_on,50,0,0
2,note_on,43,0,0
2,note_on,42,33,14
2,note_on,50,33,0
2,note_on,54,40,0
2,note_on,54,0,466
2,note_on,50,0,0
2,note_on,42,0,0
2,note_on,40,39,14
2,note_on,50,39,0
2,note_on,52,47,0
2,note_on,52,0,466
2,note_on,50,0,0
2,note_on,40,0,0
2,note_on,38,43,14
2,note_on,50,52,0
2,note_on,50,0,951
2,note_on,38,0,0
2,note_on,38,34,9
2,note_on,50,42,0
2,note_on,50,0,456
2,note_on,38,0,0
2,note_on,38,34,24
2,note_on,50,42,0
2,note_on,50,0,456
2,note_on,38,0,0
2,note_on,38,33,24
2,note_on,50,39,0
2,note_on,50,0,456
2,note_on,38,0,0
2,note_on,40,33,24
2,note_on,50,33,0
2,note_on,52,39,0
2,note_on,52,0,456
2,note_on,50,0,0
2,note_on,40,0,0
2,note_on,42,30,24
2,note_on,50,30,0
2,note_on,54,46,0
2,note_on,54,0,456
2,note_on,50,0,0
2,note_on,42,0,0
2,note_on,45,39,24
2,note_on,54,39,0
2,note_on,57,55,0
2,note_on,57,0,466
2,note_on,54,0,0
2,note_on,45,0,0
2,note_on,57,40,14
2,note_on,50,40,0
2,note_on,62,58,0
2,note_on,62,0,456
2,note_on,50,0,0
2,note_on,57,0,0
2,note_on,50,58,24
2,note_on,57,58,0
2,note_on,62,68,0
2,note_on,62,0,456
2,note_on,57,0,0
2,note_on,50,0,0
2,note_on,50,60,24
2,note_on,57,60,0
2,note_on,62,71,0
2,note_on,62,0,456
2,note_on,57,0,0
2,note_on,50,0,0
2,note_on,50,63,24
2,note_on,57,63,0
2,note_on,62,74,0
2,note_on,62,0,456
2,note_on,57,0,0
2,note_on,50,0,0
2,note_on,49,62,24
2,note_on,58,62,0
2,note_on,61,74,0
2,note_on,61,0,456
2,note_on,58,0,0
2,note_on,49,0,0
2,note_on,49,51,24
2,note_on,58,51,0
2,note_on,61,61,0
2,note_on,61,0,456
2,note_on,58,0,0
2,note_on,49,0,0
2,note_on,49,47,24
2,note_on,58,47,0
2,note_on,61,56,0
2,note_on,61,0,456
2,note_on,58,0,0
2,note_on,49,0,0
2,note_on,49,39,24
2,note_on,58,39,0
2,note_on,61,46,0
2,note_on,61,0,456
2,note_on,58,0,0
2,note_on,49,0,0
2,note_on,49,34,24
2,note_on,58,34,0
2,note_on,61,41,0
2,note_on,61,0,456
2,note_on,58,0,0
2,note_on,49,0,0
2,note_on,49,29,24
2,note_on,58,29,0
2,note_on,61,36,0
2,note_on,61,0,456
2,note_on,58,0,0
2,note_on,49,0,0
2,note_on,50,28,24
2,note_on,57,28,0
2,note_on,62,33,0
2,note_on,62,0,466
2,note_on,57,0,0
2,note_on,50,0,0
2,note_on,52,25,14
2,note_on,57,25,0
2,note_on,64,30,0
2,note_on,64,0,466
2,note_on,57,0,0
2,note_on,52,0,0
2,note_on,54,25,14
2,note_on,57,25,0
2,note_on,66,30,0
2,note_on,66,0,466
2,note_on,57,0,0
2,note_on,54,0,0
2,note_on,47,29,14
2,note_on,59,35,0
2,note_on,59,0,466
2,note_on,47,0,0
2,note_on,45,25,14
2,note_on,57,30,0
2,note_on,57,0,466
2,note_on,45,0,0
2,note_on,42,25,14
2,note_on,54,30,0
2,note_on,54,0,466
2,note_on,42,0,0
2,note_on,45,31,14
2,note_on,57,37,0
2,note_on,57,0,951
2,note_on,45,0,0
2,note_on,50,26,9
2,note_on,57,26,0
2,note_on,62,31,0
2,note_on,62,0,466
2,note_on,57,0,0
2,note_on,50,0,0
2,note_on,50,30,14
2,note_on,57,30,0
2,note_on,62,36,0
2,note_on,62,0,466
2,note_on,57,0,0
2,note_on,50,0,0
2,note_on,50,35,14
2,note_on,62,35,0
2,note_on,62,0,456
2,note_on,50,0,0
2,note_on,50,36,24
2,note_on,62,36,0
2,note_on,62,0,456
2,note_on,50,0,0
2,note_on,48,37,24
2,note_on,55,37,0
2,note_on,60,46,0
2,note_on,60,0,951
2,note_on,55,0,0
2,note_on,48,0,0
2,note_on,48,29,9
2,note_on,55,29,0
2,note_on,60,35,0
2,note_on,60,0,456
2,note_on,55,0,0
2,note_on,48,0,0
2,note_on,48,29,24
2,note_on,55,29,0
2,note_on,60,35,0
2,note_on,60,0,456
2,note_on,55,0,0
2,note_on,48,0,0
2,note_on,48,28,24
2,note_on,55,28,0
2,note_on,60,33,0
2,note_on,60,0,456
2,note_on,55,0,0
2,note_on,48,0,0
2,note_on,48,28,24
2,note_on,55,28,0
2,note_on,60,33,0
2,note_on,60,0,456
2,note_on,55,0,0
2,note_on,48,0,0
2,note_on,48,29,24
2,note_on,55,29,0
2,note_on,60,35,0
2,note_on,60,0,456
2,note_on,55,0,0
2,note_on,48,0,0
2,note_on,43,32,24
2,note_on,55,38,0
2,note_on,55,0,465
2,note_on,43,0,0
2,note_on,43,29,15
2,note_on,40,29,0
2,note_on,52,35,0
2,note_on,52,0,456
2,note_on,40,0,0
2,note_on,43,0,0
2,note_on,40,29,24
2,note_on,43,29,0
2,note_on,52,35,0
2,note_on,52,0,456
2,note_on,43,0,0
2,note_on,40,0,0
2,note_on,43,32,24
2,note_on,55,38,0
2,note_on,55,0,456
2,note_on,43,0,0
2,note_on,48,36,24
2,note_on,55,36,0
2,note_on,60,42,0
2,note_on,60,0,456
2,note_on,55,0,0
2,note_on,48,0,0
2,note_on,51,44,24
2,note_on,58,44,0
2,note_on,63,53,0
2,note_on,63,0,950
2,note_on,58,0,0
2,note_on,51,0,0
2,note_on,51,39,10
2,note_on,58,39,0
2,note_on,63,47,0
2,note_on,63,0,456
2,note_on,58,0,0
2,note_on,51,0,0
2,note_on,51,39,24
2,note_on,58,39,0
2,note_on,63,47,0
2,note_on,63,0,456
2,note_on,58,0,0
2,note_on,51,0,0
2,note_on,51,38,24
2,note_on,58,38,0
2,note_on,63,45,0
2,note_on,63,0,456
2,note_on,58,0,0
2,note_on,51,0,0
2,note_on,51,38,24
2,note_on,58,38,0
2,note_on,63,45,0
2,note_on,63,0,456
2,note_on,58,0,0
2,note_on,51,0,0
2,note_on,51,39,24
2,note_on,58,39,0
2,note_on,63,47,0
2,note_on,63,0,456
2,note_on,58,0,0
2,note_on,51,0,0
2,note_on,46,44,24
2,note_on,58,51,0
2,note_on,58,0,465
2,note_on,46,0,0
2,note_on,43,39,15
2,note_on,46,39,0
2,note_on,55,47,0
2,note_on,55,0,456
2,note_on,46,0,0
2,note_on,43,0,0
2,note_on,43,39,24
2,note_on,46,39,0
2,note_on,55,47,0
2,note_on,55,0,456
2,note_on,46,0,0
2,note_on,43,0,0
2,note_on,46,42,24
2,note_on,58,52,0
2,note_on,58,0,456
2,note_on,46,0,0
2,note_on,51,46,24
2,note_on,58,46,0
2,note_on,63,57,0
2,note_on,63,0,456
2,note_on,58,0,0
2,note_on,51,0,0
2,note_on,42,50,24
2,note_on,49,50,0
2,note_on,54,61,0
2,note_on,54,0,950
2,note_on,49,0,0
2,note_on,42,0,0
2,note_on,42,45,10
2,note_on,49,45,0
2,note_on,54,53,0
2,note_on,54,0,456
2,note_on,49,0,0
2,note_on,42,0,0
2,note_on,42,45,24
2,note_on,49,45,0
2,note_on,54,53,0
2,note_on,54,0,456
2,note_on,49,0,0
2,note_on,42,0,0
2,note_on,42,43,24
2,note_on,49,43,0
2,note_on,54,51,0
2,note_on,54,0,456
2,note_on,49,0,0
2,note_on,42,0,0
2,note_on,42,43,24
2,note_on,49,43,0
2,note_on,54,51,0
2,note_on,54,0,456
2,note_on,49,0,0
2,note_on,42,0,0
2,note_on,42,45,24
2,note_on,49,45,0
2,note_on,54,53,0
2,note_on,54,0,456
2,note_on,49,0,0
2,note_on,42,0,0
2,note_on,37,45,24
2,note_on,49,53,0
2,note_on,49,0,465
2,note_on,37,0,0
2,note_on,34,45,15
2,note_on,46,53,0
2,note_on,46,0,456
2,note_on,34,0,0
2,note_on,42,45,24
2,note_on,54,53,0
2,note_on,54,0,456
2,note_on,42,0,0
2,note_on,54,50,24
2,note_on,44,50,0
2,note_on,56,63,0
2,note_on,56,0,456
2,note_on,44,0,0
2,note_on,54,0,24
2,note_on,46,57,0
2,note_on,54,57,0
2,note_on,58,71,0
2,note_on,58,0,456
2,note_on,54,0,0
2,note_on,46,0,0
2,note_on,47,65,24
2,note_on,54,65,0
2,note_on,59,80,0
2,note_on,59,0,950
2,note_on,54,0,0
2,note_on,47,0,0
2,note_on,47,58,10
2,note_on,54,58,0
2,note_on,59,69,0
2,note_on,59,0,456
2,note_on,54,0,0
2,note_on,47,0,0
2,note_on,47,58,24
2,note_on,54,58,0
2,note_on,59,69,0
2,note_on,59,0,456
2,note_on,54,0,0
2,note_on,47,0,0
2,note_on,47,56,24
2,note_on,54,56,0
2,note_on,59,66,0
2,note_on,59,0,456
2,note_on,54,0,0
2,note_on,47,0,0
2,note_on,47,56,24
2,note_on,54,56,0
2,note_on,59,66,0
2,note_on,59,0,456
2,note_on,54,0,0
2,note_on,47,0,0
2,note_on,31,65,24
2,note_on,43,80,0
2,note_on,43,0,950
2,note_on,31,0,0
2,note_on,31,58,10
2,note_on,43,69,0
2,note_on,43,0,456
2,note_on,31,0,0
2,note_on,35,58,24
2,note_on,47,69,0
2,note_on,47,0,456
2,note_on,35,0,0
2,note_on,38,52,24
2,note_on,50,62,0
2,note_on,50,0,456
2,note_on,38,0,0
2,note_on,43,48,24
2,note_on,55,57,0
2,note_on,55,0,456
2,note_on,43,0,0
2,note_on,36,46,24
2,note_on,48,55,0
2,note_on,48,0,931
2,note_on,36,0,0
2,note_on,36,27,29
2,note_on,48,32,0
2,note_on,48,0,456
2,note_on,36,0,0
2,note_on,36,23,24
2,note_on,48,33,0
2,note_on,48,0,456
2,note_on,36,0,0
2,note_on,36,23,24
2,note_on,48,28,0
2,note_on,48,0,456
2,note_on,36,0,0
2,note_on,36,23,24
2,note_on,48,28,0
2,note_on,48,0,456
2,note_on,36,0,0
2,note_on,36,30,24
2,note_on,48,36,0
2,note_on,48,0,931
2,note_on,36,0,0
2,note_on,36,23,29
2,note_on,48,28,0
2,note_on,48,0,456
2,note_on,36,0,0
2,note_on,36,29,24
2,note_on,48,35,0
2,note_on,48,0,931
2,note_on,36,0,0
2,note_on,36,21,29
2,note_on,48,26,0
2,note_on,48,0,456
2,note_on,36,0,0
2,note_on,36,28,24
2,note_on,48,34,0
2,note_on,48,0,931
2,note_on,36,0,0
2,note_on,36,21,29
2,note_on,48,26,0
2,note_on,48,0,456
2,note_on,36,0,0
2,note_on,36,25,24
2,note_on,48,30,0
2,note_on,48,0,931
2,note_on,36,0,0
2,note_on,36,22,29
2,note_on,48,26,0
2,note_on,48,0,456
2,note_on,36,0,0
2,note_on,36,23,24
2,note_on,48,28,0
2,note_on,48,0,931
2,note_on,36,0,0
2,note_on,36,21,29
2,note_on,48,25,0
2,note_on,48,0,456
2,note_on,36,0,0
2,note_on,36,23,24
2,note_on,48,27,0
2,note_on,48,0,456
2,note_on,36,0,0
2,note_on,36,21,24
2,note_on,48,25,0
2,note_on,48,0,456
2,note_on,36,0,0
2,note_on,36,21,24
2,note_on,48,25,0
2,note_on,48,0,456
2,note_on,36,0,0
2,note_on,36,23,24
2,note_on,48,28,0
2,note_on,48,0,931
2,note_on,36,0,0
2,note_on,36,21,29
2,note_on,48,25,0
2,note_on,48,0,456
2,note_on,36,0,0
2,note_on,36,23,24
2,note_on,48,27,0
2,note_on,48,0,456
2,note_on,36,0,0
2,note_on,36,21,24
2,note_on,48,25,0
2,note_on,48,0,456
2,note_on,36,0,0
2,note_on,36,21,24
2,note_on,48,25,0
2,note_on,48,0,456
2,note_on,36,0,0
2,note_on,35,23,24
2,note_on,47,28,0
2,note_on,47,0,951
2,note_on,35,0,0
2,note_on,47,28,9
2,note_on,47,0,456
2,note_on,47,28,24
2,note_on,47,0,456
2,note_on,47,26,24
2,note_on,47,0,456
2,note_on,45,22,24
2,note_on,47,26,0
2,note_on,47,0,456
2,note_on,45,0,0
2,note_on,43,26,24
2,note_on,47,26,0
2,note_on,55,31,0
2,note_on,55,0,456
2,note_on,47,0,0
2,note_on,43,0,0
2,note_on,48,28,24
2,note_on,50,28,0
2,note_on,60,34,0
2,note_on,60,0,465
2,note_on,48,0,0
2,note_on,50,0,1
2,note_on,50,26,14
2,note_on,47,26,0
2,note_on,59,31,0
2,note_on,59,0,456
2,note_on,47,0,0
2,note_on,50,0,0
2,note_on,47,26,24
2,note_on,50,26,0
2,note_on,59,31,0
2,note_on,59,0,456
2,note_on,50,0,0
2,note_on,47,0,0
2,note_on,47,24,24
2,note_on,50,24,0
2,note_on,59,28,0
2,note_on,59,0,456
2,note_on,50,0,0
2,note_on,47,0,0
2,note_on,47,24,24
2,note_on,50,24,0
2,note_on,59,28,0
2,note_on,59,0,456
2,note_on,50,0,0
2,note_on,47,0,0
2,note_on,47,26,24
2,note_on,50,26,0
2,note_on,59,31,0
2,note_on,59,0,480
2,note_on,50,0,0
2,note_on,47,0,0
2,note_on,42,23,0
2,note_on,50,23,0
2,note_on,54,27,0
2,note_on,54,0,466
2,note_on,50,0,0
2,note_on,42,0,0
2,note_on,45,23,14
2,note_on,50,23,0
2,note_on,57,27,0
2,note_on,57,0,466
2,note_on,50,0,0
2,note_on,45,0,0
2,note_on,45,26,14
2,note_on,50,26,0
2,note_on,57,31,0
2,note_on,57,0,466
2,note_on,50,0,0
2,note_on,45,0,0
2,note_on,43,25,14
2,note_on,50,25,0
2,note_on,55,29,0
2,note_on,55,0,466
2,note_on,50,0,0
2,note_on,43,0,0
2,note_on,42,25,14
2,note_on,50,25,0
2,note_on,54,29,0
2,note_on,54,0,466
2,note_on,50,0,0
2,note_on,42,0,0
2,note_on,42,26,14
2,note_on,50,26,0
2,note_on,54,31,0
2,note_on,54,0,466
2,note_on,50,0,0
2,note_on,42,0,0
2,note_on,43,26,14
2,note_on,50,26,0
2,note_on,55,31,0
2,note_on,55,0,466
2,note_on,50,0,0
2,note_on,43,0,0
2,note_on,43,26,14
2,note_on,50,26,0
2,note_on,55,31,0
2,note_on,55,0,466
2,note_on,50,0,0
2,note_on,43,0,0
2,note_on,43,29,14
2,note_on,50,29,0
2,note_on,55,35,0
2,note_on,55,0,466
2,note_on,50,0,0
2,note_on,43,0,0
2,note_on,43,33,14
2,note_on,50,33,0
2,note_on,55,40,0
2,note_on,55,0,466
2,note_on,50,0,0
2,note_on,43,0,0
2,note_on,45,39,14
2,note_on,50,39,0
2,note_on,57,47,0
2,note_on,57,0,466
2,note_on,50,0,0
2,note_on,45,0,0
2,note_on,50,43,14
2,note_on,47,43,0
2,note_on,59,52,0
2,note_on,47,0,950
2,note_on,50,0,0
2,note_on,59,0,1
2,note_on,50,34,9
2,note_on,47,34,0
2,note_on,59,42,0
2,note_on,59,0,456
2,note_on,47,0,0
2,note_on,50,0,0
2,note_on,50,34,24
2,note_on,47,34,0
2,note_on,59,42,0
2,note_on,59,0,456
2,note_on,47,0,0
2,note_on,50,0,0
2,note_on,50,33,24
2,note_on,45,33,0
2,note_on,57,39,0
2,note_on,57,0,456
2,note_on,45,0,0
2,note_on,50,0,0
2,note_on,43,33,24
2,note_on,50,33,0
2,note_on,55,39,0
2,note_on,55,0,456
2,note_on,50,0,0
2,note_on,43,0,0
2,note_on,47,28,24
2,note_on,55,28,0
2,note_on,59,42,0
2,note_on,59,0,456
2,note_on,55,0,0
2,note_on,47,0,0
2,note_on,50,36,24
2,note_on,59,36,0
2,note_on,62,50,0
2,note_on,62,0,466
2,note_on,59,0,0
2,note_on,50,0,0
2,note_on,62,36,14
2,note_on,55,36,0
2,note_on,67,52,0
2,note_on,67,0,456
2,note_on,55,0,0
2,note_on,62,0,0
2,note_on,55,51,24
2,note_on,62,51,0
2,note_on,67,60,0
2,note_on,67,0,456
2,note_on,62,0,0
2,note_on,55,0,0
2,note_on,55,52,24
2,note_on,62,52,0
2,note_on,67,62,0
2,note_on,67,0,456
2,note_on,62,0,0
2,note_on,55,0,0
2,note_on,55,54,24
2,note_on,62,54,0
2,note_on,67,64,0
2,note_on,67,0,456
2,note_on,62,0,0
2,note_on,55,0,0
2,note_on,54,56,24
2,note_on,63,56,0
2,note_on,66,66,0
2,note_on,66,0,456
2,note_on,63,0,0
2,note_on,54,0,0
2,note_on,54,47,24
2,note_on,63,47,0
2,note_on,66,56,0
2,note_on,66,0,456
2,note_on,63,0,0
2,note_on,54,0,0
2,note_on,54,44,24
2,note_on,63,44,0
2,note_on,66,52,0
2,note_on,66,0,456
2,note_on,63,0,0
2,note_on,54,0,0
2,note_on,54,37,24
2,note_on,63,37,0
2,note_on,66,44,0
2,note_on,66,0,456
2,note_on,63,0,0
2,note_on,54,0,0
2,note_on,54,33,24
2,note_on,63,33,0
2,note_on,66,40,0
2,note_on,66,0,456
2,note_on,63,0,0
2,note_on,54,0,0
2,note_on,54,29,24
2,note_on,63,29,0
2,note_on,66,36,0
2,note_on,66,0,456
2,note_on,63,0,0
2,note_on,54,0,0
2,note_on,55,28,24
2,note_on,62,28,0
2,note_on,67,33,0
2,note_on,67,0,466
2,note_on,62,0,0
2,note_on,55,0,0
2,note_on,57,25,14
2,note_on,62,25,0
2,note_on,69,30,0
2,note_on,69,0,466
2,note_on,62,0,0
2,note_on,57,0,0
2,note_on,59,25,14
2,note_on,62,25,0
2,note_on,71,30,0
2,note_on,71,0,466
2,note_on,62,0,0
2,note_on,59,0,0
2,note_on,52,29,14
2,note_on,64,35,0
2,note_on,64,0,466
2,note_on,52,0,0
2,note_on,50,25,14
2,note_on,62,30,0
2,note_on,62,0,466
2,note_on,50,0,0
2,note_on,50,25,14
2,note_on,47,25,0
2,note_on,59,30,0
2,note_on,50,0,456
2,note_on,59,0,10
2,note_on,47,0,0
2,note_on,50,31,14
2,note_on,62,37,0
2,note_on,62,0,951
2,note_on,50,0,0
2,note_on,55,26,9
2,note_on,62,31,0
2,note_on,62,0,466
2,note_on,55,0,0
2,note_on,55,30,14
2,note_on,62,36,0
2,note_on,62,0,466
2,note_on,55,0,0
2,note_on,50,35,14
2,note_on,62,35,0
2,note_on,62,0,456
2,note_on,50,0,0
2,note_on,50,36,24
2,note_on,62,36,0
2,note_on,62,0,456
2,note_on,50,0,0
2,note_on,48,36,24
2,note_on,55,36,0
2,note_on,60,44,0
2,note_on,60,0,951
2,note_on,55,0,0
2,note_on,48,0,0
2,note_on,48,29,9
2,note_on,55,29,0
2,note_on,60,35,0
2,note_on,60,0,456
2,note_on,55,0,0
2,note_on,48,0,0
2,note_on,48,29,24
2,note_on,55,29,0
2,note_on,60,35,0
2,note_on,60,0,456
2,note_on,55,0,0
2,note_on,48,0,0
2,note_on,48,28,24
2,note_on,55,28,0
2,note_on,60,33,0
2,note_on,60,0,456
2,note_on,55,0,0
2,note_on,48,0,0
2,note_on,48,28,24
2,note_on,55,28,0
2,note_on,60,33,0
2,note_on,60,0,456
2,note_on,55,0,0
2,note_on,48,0,0
2,note_on,48,29,24
2,note_on,55,29,0
2,note_on,60,35,0
2,note_on,60,0,456
2,note_on,55,0,0
2,note_on,48,0,0
2,note_on,43,32,24
2,note_on,55,38,0
2,note_on,55,0,465
2,note_on,43,0,0
2,note_on,43,29,15
2,note_on,40,29,0
2,note_on,52,35,0
2,note_on,52,0,456
2,note_on,40,0,0
2,note_on,43,0,0
2,note_on,40,29,24
2,note_on,43,29,0
2,note_on,52,35,0
2,note_on,52,0,456
2,note_on,43,0,0
2,note_on,40,0,0
2,note_on,43,32,24
2,note_on,55,38,0
2,note_on,55,0,456
2,note_on,43,0,0
2,note_on,48,36,24
2,note_on,55,36,0
2,note_on,60,42,0
2,note_on,60,0,456
2,note_on,55,0,0
2,note_on,48,0,0
2,note_on,51,44,24
2,note_on,58,44,0
2,note_on,63,53,0
2,note_on,63,0,950
2,note_on,58,0,0
2,note_on,51,0,0
2,note_on,51,39,10
2,note_on,58,39,0
2,note_on,63,47,0
2,note_on,63,0,456
2,note_on,58,0,0
2,note_on,51,0,0
2,note_on,51,39,24
2,note_on,58,39,0
2,note_on,63,47,0
2,note_on,63,0,456
2,note_on,58,0,0
2,note_on,51,0,0
2,note_on,51,38,24
2,note_on,58,38,0
2,note_on,63,45,0
2,note_on,63,0,456
2,note_on,58,0,0
2,note_on,51,0,0
2,note_on,51,38,24
2,note_on,58,38,0
2,note_on,63,45,0
2,note_on,63,0,456
2,note_on,58,0,0
2,note_on,51,0,0
2,note_on,51,39,24
2,note_on,58,39,0
2,note_on,63,47,0
2,note_on,63,0,456
2,note_on,58,0,0
2,note_on,51,0,0
2,note_on,46,44,24
2,note_on,58,51,0
2,note_on,58,0,465
2,note_on,46,0,0
2,note_on,43,39,15
2,note_on,46,39,0
2,note_on,55,47,0
2,note_on,55,0,456
2,note_on,46,0,0
2,note_on,43,0,0
2,note_on,43,39,24
2,note_on,46,39,0
2,note_on,55,47,0
2,note_on,55,0,456
2,note_on,46,0,0
2,note_on,43,0,0
2,note_on,46,42,24
2,note_on,58,52,0
2,note_on,58,0,456
2,note_on,46,0,0
2,note_on,51,46,24
2,note_on,58,46,0
2,note_on,63,57,0
2,note_on,63,0,456
2,note_on,58,0,0
2,note_on,51,0,0
2,note_on,42,50,24
2,note_on,49,50,0
2,note_on,54,61,0
2,note_on,54,0,950
2,note_on,49,0,0
2,note_on,42,0,0
2,note_on,42,45,10
2,note_on,49,45,0
2,note_on,54,53,0
2,note_on,54,0,456
2,note_on,49,0,0
2,note_on,42,0,0
2,note_on,42,45,24
2,note_on,49,45,0
2,note_on,54,53,0
2,note_on,54,0,456
2,note_on,49,0,0
2,note_on,42,0,0
2,note_on,42,43,24
2,note_on,49,43,0
2,note_on,54,51,0
2,note_on,54,0,456
2,note_on,49,0,0
2,note_on,42,0,0
2,note_on,42,43,24
2,note_on,49,43,0
2,note_on,54,51,0
2,note_on,54,0,456
2,note_on,49,0,0
2,note_on,42,0,0
2,note_on,42,45,24
2,note_on,49,45,0
2,note_on,54,53,0
2,note_on,54,0,456
2,note_on,49,0,0
2,note_on,42,0,0
2,note_on,37,45,24
2,note_on,49,53,0
2,note_on,49,0,465
2,note_on,37,0,0
2,note_on,34,45,15
2,note_on,46,53,0
2,note_on,46,0,456
2,note_on,34,0,0
2,note_on,42,45,24
2,note_on,54,53,0
2,note_on,54,0,456
2,note_on,42,0,0
2,note_on,54,50,24
2,note_on,44,50,0
2,note_on,56,63,0
2,note_on,56,0,456
2,note_on,44,0,0
2,note_on,54,0,24
2,note_on,46,57,0
2,note_on,54,57,0
2,note_on,58,71,0
2,note_on,58,0,456
2,note_on,54,0,0
2,note_on,46,0,0
2,note_on,47,65,24
2,note_on,54,65,0
2,note_on,59,80,0
2,note_on,59,0,950
2,note_on,54,0,0
2,note_on,47,0,0
2,note_on,47,58,10
2,note_on,54,58,0
2,note_on,59,69,0
2,note_on,59,0,456
2,note_on,54,0,0
2,note_on,47,0,0
2,note_on,47,58,24
2,note_on,54,58,0
2,note_on,59,69,0
2,note_on,59,0,456
2,note_on,54,0,0
2,note_on,47,0,0
2,note_on,47,56,24
2,note_on,54,56,0
2,note_on,59,66,0
2,note_on,59,0,456
2,note_on,54,0,0
2,note_on,47,0,0
2,note_on,47,56,24
2,note_on,54,56,0
2,note_on,59,66,0
2,note_on,59,0,456
2,note_on,54,0,0
2,note_on,47,0,0
2,note_on,31,65,24
2,note_on,43,80,0
2,note_on,43,0,950
2,note_on,31,0,0
2,note_on,31,58,10
2,note_on,43,69,0
2,note_on,43,0,456
2,note_on,31,0,0
2,note_on,35,58,24
2,note_on,47,69,0
2,note_on,47,0,456
2,note_on,35,0,0
2,note_on,38,52,24
2,note_on,50,62,0
2,note_on,50,0,456
2,note_on,38,0,0
2,note_on,43,48,24
2,note_on,55,57,0
2,note_on,55,0,456
2,note_on,43,0,0
2,note_on,36,46,24
2,note_on,48,55,0
2,note_on,48,0,931
2,note_on,36,0,0
2,note_on,36,27,29
2,note_on,48,32,0
2,note_on,48,0,456
2,note_on,36,0,0
2,note_on,36,23,24
2,note_on,48,33,0
2,note_on,48,0,456
2,note_on,36,0,0
2,note_on,36,23,24
2,note_on,48,28,0
2,note_on,48,0,456
2,note_on,36,0,0
2,note_on,36,23,24
2,note_on,48,28,0
2,note_on,48,0,456
2,note_on,36,0,0
2,note_on,36,30,24
2,note_on,48,36,0
2,note_on,48,0,931
2,note_on,36,0,0
2,note_on,36,23,29
2,note_on,48,28,0
2,note_on,48,0,456
2,note_on,36,0,0
2,note_on,36,29,24
2,note_on,48,35,0
2,note_on,48,0,931
2,note_on,36,0,0
2,note_on,36,21,29
2,note_on,48,26,0
2,note_on,48,0,456
2,note_on,36,0,0
2,note_on,36,28,24
2,note_on,48,34,0
2,note_on,48,0,931
2,note_on,36,0,0
2,note_on,36,21,29
2,note_on,48,26,0
2,note_on,48,0,456
2,note_on,36,0,0
2,note_on,36,25,24
2,note_on,48,30,0
2,note_on,48,0,931
2,note_on,36,0,0
2,note_on,36,22,29
2,note_on,48,26,0
2,note_on,48,0,456
2,note_on,36,0,0
2,note_on,36,23,24
2,note_on,48,28,0
2,note_on,48,0,931
2,note_on,36,0,0
2,note_on,36,21,29
2,note_on,48,25,0
2,note_on,48,0,456
2,note_on,36,0,0
2,note_on,36,23,24
2,note_on,48,27,0
2,note_on,48,0,456
2,note_on,36,0,0
2,note_on,36,21,24
2,note_on,48,25,0
2,note_on,48,0,456
2,note_on,36,0,0
2,note_on,36,21,24
2,note_on,48,25,0
2,note_on,48,0,456
2,note_on,36,0,0
2,note_on,36,23,24
2,note_on,48,28,0
2,note_on,48,0,931
2,note_on,36,0,0
2,note_on,36,21,29
2,note_on,48,25,0
2,note_on,48,0,456
2,note_on,36,0,0
2,note_on,36,23,24
2,note_on,48,27,0
2,note_on,48,0,456
2,note_on,36,0,0
2,note_on,36,21,24
2,note_on,48,25,0
2,note_on,48,0,456
2,note_on,36,0,0
2,note_on,36,21,24
2,note_on,48,25,0
2,note_on,48,0,456
2,note_on,36,0,0
2,note_on,35,23,24
2,note_on,47,28,0
2,note_on,47,0,951
2,note_on,35,0,0
2,note_on,47,28,9
2,note_on,47,0,456
2,note_on,47,28,24
2,note_on,47,0,456
2,note_on,47,26,24
2,note_on,47,0,456
2,note_on,45,22,24
2,note_on,47,26,0
2,note_on,47,0,456
2,note_on,45,0,0
2,note_on,43,26,24
2,note_on,47,26,0
2,note_on,55,31,0
2,note_on,55,0,456
2,note_on,47,0,0
2,note_on,43,0,0
2,note_on,48,28,24
2,note_on,50,28,0
2,note_on,60,34,0
2,note_on,60,0,465
2,note_on,48,0,0
2,note_on,50,0,1
2,note_on,50,26,14
2,note_on,47,26,0
2,note_on,59,31,0
2,note_on,59,0,456
2,note_on,47,0,0
2,note_on,50,0,0
2,note_on,47,26,24
2,note_on,50,26,0
2,note_on,59,31,0
2,note_on,59,0,456
2,note_on,50,0,0
2,note_on,47,0,0
2,note_on,47,24,24
2,note_on,50,24,0
2,note_on,59,28,0
2,note_on,59,0,456
2,note_on,50,0,0
2,note_on,47,0,0
2,note_on,47,24,24
2,note_on,50,24,0
2,note_on,59,28,0
2,note_on,59,0,456
2,note_on,50,0,0
2,note_on,47,0,0
2,note_on,47,26,24
2,note_on,50,26,0
2,note_on,59,31,0
2,note_on,59,0,480
2,note_on,50,0,0
2,note_on,47,0,0
2,note_on,42,23,0
2,note_on,50,23,0
2,note_on,54,27,0
2,note_on,54,0,466
2,note_on,50,0,0
2,note_on,42,0,0
2,note_on,45,23,14
2,note_on,50,23,0
2,note_on,57,27,0
2,note_on,57,0,466
2,note_on,50,0,0
2,note_on,45,0,0
2,note_on,45,26,14
2,note_on,50,26,0
2,note_on,57,31,0
2,note_on,57,0,466
2,note_on,50,0,0
2,note_on,45,0,0
2,note_on,43,25,14
2,note_on,50,25,0
2,note_on,55,29,0
2,note_on,55,0,466
2,note_on,50,0,0
2,note_on,43,0,0
2,note_on,42,25,14
2,note_on,50,25,0
2,note_on,54,29,0
2,note_on,54,0,466
2,note_on,50,0,0
2,note_on,42,0,0
2,note_on,42,26,14
2,note_on,50,26,0
2,note_on,54,31,0
2,note_on,54,0,466
2,note_on,50,0,0
2,note_on,42,0,0
2,note_on,43,26,14
2,note_on,50,26,0
2,note_on,55,31,0
2,note_on,55,0,466
2,note_on,50,0,0
2,note_on,43,0,0
2,note_on,43,26,14
2,note_on,50,26,0
2,note_on,55,31,0
2,note_on,55,0,466
2,note_on,50,0,0
2,note_on,43,0,0
2,note_on,43,29,14
2,note_on,50,29,0
2,note_on,55,35,0
2,note_on,55,0,466
2,note_on,50,0,0
2,note_on,43,0,0
2,note_on,43,33,14
2,note_on,50,33,0
2,note_on,55,40,0
2,note_on,55,0,466
2,note_on,50,0,0
2,note_on,43,0,0
2,note_on,45,39,14
2,note_on,50,39,0
2,note_on,57,47,0
2,note_on,57,0,466
2,note_on,50,0,0
2,note_on,45,0,0
2,note_on,50,43,14
2,note_on,47,43,0
2,note_on,59,52,0
2,note_on,47,0,950
2,note_on,50,0,0
2,note_on,59,0,1
2,note_on,50,34,9
2,note_on,47,34,0
2,note_on,59,42,0
2,note_on,59,0,456
2,note_on,47,0,0
2,note_on,50,0,0
2,note_on,50,34,24
2,note_on,47,34,0
2,note_on,59,42,0
2,note_on,59,0,456
2,note_on,47,0,0
2,note_on,50,0,0
2,note_on,50,33,24
2,note_on,45,33,0
2,note_on,57,39,0
2,note_on,57,0,456
2,note_on,45,0,0
2,note_on,50,0,0
2,note_on,43,33,24
2,note_on,50,33,0
2,note_on,55,39,0
2,note_on,55,0,456
2,note_on,50,0,0
2,note_on,43,0,0
2,note_on,47,28,24
2,note_on,55,28,0
2,note_on,59,42,0
2,note_on,59,0,456
2,note_on,55,0,0
2,note_on,47,0,0
2,note_on,50,36,24
2,note_on,59,36,0
2,note_on,62,50,0
2,note_on,62,0,466
2,note_on,59,0,0
2,note_on,50,0,0
2,note_on,62,36,14
2,note_on,55,36,0
2,note_on,67,52,0
2,note_on,67,0,456
2,note_on,55,0,0
2,note_on,62,0,0
2,note_on,55,51,24
2,note_on,62,51,0
2,note_on,67,60,0
2,note_on,67,0,456
2,note_on,62,0,0
2,note_on,55,0,0
2,note_on,55,52,24
2,note_on,62,52,0
2,note_on,67,62,0
2,note_on,67,0,456
2,note_on,62,0,0
2,note_on,55,0,0
2,note_on,55,54,24
2,note_on,62,54,0
2,note_on,67,64,0
2,note_on,67,0,456
2,note_on,62,0,0
2,note_on,55,0,0
2,note_on,54,56,24
2,note_on,63,56,0
2,note_on,66,66,0
2,note_on,66,0,456
2,note_on,63,0,0
2,note_on,54,0,0
2,note_on,54,47,24
2,note_on,63,47,0
2,note_on,66,56,0
2,note_on,66,0,456
2,note_on,63,0,0
2,note_on,54,0,0
2,note_on,54,44,24
2,note_on,63,44,0
2,note_on,66,52,0
2,note_on,66,0,456
2,note_on,63,0,0
2,note_on,54,0,0
2,note_on,54,37,24
2,note_on,63,37,0
2,note_on,66,44,0
2,note_on,66,0,456
2,note_on,63,0,0
2,note_on,54,0,0
2,note_on,54,33,24
2,note_on,63,33,0
2,note_on,66,40,0
2,note_on,66,0,456
2,note_on,63,0,0
2,note_on,54,0,0
2,note_on,54,29,24
2,note_on,63,29,0
2,note_on,66,36,0
2,note_on,66,0,456
2,note_on,63,0,0
2,note_on,54,0,0
2,note_on,55,28,24
2,note_on,62,28,0
2,note_on,67,33,0
2,note_on,67,0,466
2,note_on,62,0,0
2,note_on,55,0,0
2,note_on,57,25,14
2,note_on,62,25,0
2,note_on,69,30,0
2,note_on,69,0,466
2,note_on,62,0,0
2,note_on,57,0,0
2,note_on,59,25,14
2,note_on,62,25,0
2,note_on,71,30,0
2,note_on,71,0,466
2,note_on,62,0,0
2,note_on,59,0,0
2,note_on,52,29,14
2,note_on,64,35,0
2,note_on,64,0,466
2,note_on,52,0,0
2,note_on,50,25,14
2,note_on,62,30,0
2,note_on,62,0,466
2,note_on,50,0,0
2,note_on,50,25,14
2,note_on,47,25,0
2,note_on,59,30,0
2,note_on,50,0,456
2,note_on,59,0,10
2,note_on,47,0,0
2,note_on,50,31,14
2,note_on,62,37,0
2,note_on,62,0,951
2,note_on,50,0,0
2,note_on,55,26,9
2,note_on,62,31,0
2,note_on,62,0,466
2,note_on,55,0,0
2,note_on,55,25,14
2,note_on,62,30,0
2,note_on,62,0,466
2,note_on,55,0,0
2,note_on,43,25,14
2,note_on,43,0,456
2,note_on,43,25,24
2,note_on,43,0,456
2,note_on,43,32,24
2,note_on,43,0,951
2,note_on,43,25,9
2,note_on,43,0,456
2,note_on,43,33,24
2,note_on,43,0,456
2,note_on,43,50,24
2,note_on,43,0,240
2,note_on,40,42,0
2,note_on,40,0,240
2,note_on,42,47,0
2,note_on,42,0,240
2,note_on,43,52,0
2,note_on,43,0,240
2,note_on,45,53,0
2,note_on,45,0,951
2,note_on,45,25,9
2,note_on,45,0,456
2,note_on,45,33,24
2,note_on,45,0,456
2,note_on,43,54,24
2,note_on,43,0,240
2,note_on,40,43,0
2,note_on,40,0,240
2,note_on,42,47,0
2,note_on,42,0,240
2,note_on,43,50,0
2,note_on,43,0,240
2,note_on,45,52,0
2,note_on,45,0,951
2,note_on,45,24,9
2,note_on,45,0,456
2,note_on,45,32,24
2,note_on,45,0,456
2,note_on,43,50,24
2,note_on,43,0,240
2,note_on,40,39,0
2,note_on,40,0,240
2,note_on,42,45,0
2,note_on,42,0,240
2,note_on,43,38,0
2,note_on,43,0,240
2,note_on,45,41,0
2,note_on,45,0,951
2,note_on,45,22,9
2,note_on,45,0,456
2,note_on,45,28,24
2,note_on,45,0,951
2,note_on,45,21,9
2,note_on,45,0,456
2,note_on,45,27,24
2,note_on,45,0,951
2,note_on,45,20,9
2,note_on,45,0,456
2,note_on,45,25,24
2,note_on,45,0,350
2,note_on,33,51,10
2,note_on,45,60,0
2,note_on,45,0,60
2,note_on,33,0,0
2,note_on,33,54,60
2,note_on,45,64,0
2,note_on,45,0,360
2,note_on,33,0,0
2,note_on,33,50,0
2,note_on,45,59,0
2,note_on,45,0,60
2,note_on,33,0,0
2,note_on,35,54,60
2,note_on,47,64,0
2,note_on,47,0,360
2,note_on,35,0,0
2,note_on,37,51,0
2,note_on,49,60,0
2,note_on,49,0,60
2,note_on,37,0,0
2,note_on,38,57,60
2,note_on,45,57,0
2,note_on,50,68,0
2,note_on,50,0,931
2,note_on,45,0,0
2,note_on,38,0,0
2,note_on,38,57,29
2,note_on,45,57,0
2,note_on,50,68,0
2,note_on,50,0,931
2,note_on,45,0,0
2,note_on,38,0,0
2,note_on,38,53,29
2,note_on,50,63,0
2,note_on,50,0,480
2,note_on,38,0,0
2,note_on,42,53,0
2,note_on,54,63,0
2,note_on,54,0,480
2,note_on,42,0,0
2,note_on,37,57,0
2,note_on,45,57,0
2,note_on,49,68,0
2,note_on,49,0,931
2,note_on,45,0,0
2,note_on,37,0,0
2,note_on,37,57,29
2,note_on,45,57,0
2,note_on,49,68,0
2,note_on,49,0,931
2,note_on,45,0,0
2,note_on,37,0,0
2,note_on,37,53,29
2,note_on,49,63,0
2,note_on,49,0,466
2,note_on,37,0,0
2,note_on,37,53,14
2,note_on,49,63,0
2,note_on,49,0,480
2,note_on,37,0,0
2,note_on,35,57,0
2,note_on,42,57,0
2,note_on,47,68,0
2,note_on,47,0,931
2,note_on,42,0,0
2,note_on,35,0,0
2,note_on,35,57,29
2,note_on,42,57,0
2,note_on,47,68,0
2,note_on,47,0,710
2,note_on,42,0,0
2,note_on,35,0,0
2,note_on,40,52,10
2,note_on,52,62,0
2,note_on,52,0,120
2,note_on,40,0,0
2,note_on,40,53,120
2,note_on,52,63,0
2,note_on,52,0,120
2,note_on,40,0,0
2,note_on,40,56,120
2,note_on,52,66,0
2,note_on,52,0,120
2,note_on,40,0,0
2,note_on,40,57,120
2,note_on,52,68,0
2,note_on,52,0,120
2,note_on,40,0,0
2,note_on,40,59,120
2,note_on,52,70,0
2,note_on,52,0,120
2,note_on,40,0,0
2,note_on,33,62,120
2,note_on,45,73,0
2,note_on,45,0,931
2,note_on,33,0,0
2,note_on,45,57,29
2,note_on,52,68,0
2,note_on,52,0,931
2,note_on,45,0,0
2,note_on,66,45,29
2,note_on,66,0,480
2,note_on,62,37,0
2,note_on,62,0,480
2,note_on,67,45,0
2,note_on,67,0,480
2,note_on,71,39,0
2,note_on,71,0,480
2,note_on,76,39,0
2,note_on,76,0,480
2,note_on,61,44,0
2,note_on,61,0,240
2,note_on,73,36,240
2,note_on,73,0,480
2,note_on,67,36,0
2,note_on,67,0,480
2,note_on,66,45,0
2,note_on,66,0,480
2,note_on,69,39,0
2,note_on,69,0,480
2,note_on,74,39,0
2,note_on,74,0,480
2,note_on,59,44,0
2,note_on,59,0,240
2,note_on,71,36,240
2,note_on,71,0,480
2,note_on,66,36,0
2,note_on,66,0,480
2,note_on,64,45,0
2,note_on,64,0,480
2,note_on,67,39,0
2,note_on,67,0,480
2,note_on,73,39,0
2,note_on,73,0,480
2,note_on,52,44,0
2,note_on,52,0,240
2,note_on,64,34,240
2,note_on,64,0,480
2,note_on,65,32,0
2,note_on,65,0,480
2,note_on,66,25,0
2,note_on,73,30,0
2,note_on,73,0,931
2,note_on,66,0,0
2,note_on,66,39,29
2,note_on,73,47,0
2,note_on,73,0,720
2,note_on,66,0,0
2,note_on,66,37,240
2,note_on,73,44,0
2,note_on,73,0,432
2,note_on,66,0,0
2,note_on,66,37,48
2,note_on,73,44,0
2,note_on,73,0,432
2,note_on,66,0,0
2,note_on,61,39,48
2,note_on,71,47,0
2,note_on,71,0,931
2,note_on,61,0,0
2,note_on,61,39,29
2,note_on,71,47,0
2,note_on,71,0,950
2,note_on,61,0,0
2,note_on,61,37,10
2,note_on,71,44,0
2,note_on,71,0,432
2,note_on,61,0,0
2,note_on,61,37,48
2,note_on,71,44,0
2,note_on,71,0,432
2,note_on,61,0,0
2,note_on,66,39,48
2,note_on,70,47,0
2,note_on,70,0,931
2,note_on,66,0,0
2,note_on,66,39,29
2,note_on,70,47,0
2,note_on,70,0,830
2,note_on,66,0,0
2,note_on,33,51,10
2,note_on,45,60,0
2,note_on,45,0,60
2,note_on,33,0,0
2,note_on,33,54,60
2,note_on,45,64,0
2,note_on,45,0,360
2,note_on,33,0,0
2,note_on,33,50,0
2,note_on,45,59,0
2,note_on,45,0,60
2,note_on,33,0,0
2,note_on,33,54,60
2,note_on,45,64,0
2,note_on,45,0,360
2,note_on,33,0,0
2,note_on,33,51,0
2,note_on,45,60,0
2,note_on,45,0,60
2,note_on,33,0,0
2,note_on,35,57,60
2,note_on,47,68,0
2,note_on,47,0,931
2,note_on,35,0,0
2,note_on,35,57,29
2,note_on,47,68,0
2,note_on,47,0,931
2,note_on,35,0,0
2,note_on,35,53,29
2,note_on,47,63,0
2,note_on,47,0,480
2,note_on,35,0,0
2,note_on,35,53,0
2,note_on,47,63,0
2,note_on,47,0,480
2,note_on,35,0,0
2,note_on,37,57,0
2,note_on,45,57,0
2,note_on,49,68,0
2,note_on,49,0,931
2,note_on,45,0,0
2,note_on,37,0,0
2,note_on,37,57,29
2,note_on,45,57,0
2,note_on,49,68,0
2,note_on,49,0,931
2,note_on,45,0,0
2,note_on,37,0,0
2,note_on,37,53,29
2,note_on,49,63,0
2,note_on,49,0,466
2,note_on,37,0,0
2,note_on,37,53,14
2,note_on,49,63,0
2,note_on,49,0,480
2,note_on,37,0,0
2,note_on,36,57,0
2,note_on,48,68,0
2,note_on,48,0,931
2,note_on,36,0,0
2,note_on,35,57,29
2,note_on,47,68,0
2,note_on,47,0,710
2,note_on,35,0,0
2,note_on,34,52,10
2,note_on,46,62,0
2,note_on,46,0,120
2,note_on,34,0,0
2,note_on,34,53,120
2,note_on,46,63,0
2,note_on,46,0,120
2,note_on,34,0,0
2,note_on,34,56,120
2,note_on,46,66,0
2,note_on,46,0,120
2,note_on,34,0,0
2,note_on,34,57,120
2,note_on,46,68,0
2,note_on,46,0,120
2,note_on,34,0,0
2,note_on,34,59,120
2,note_on,46,70,0
2,note_on,46,0,120
2,note_on,34,0,0
2,note_on,33,62,120
2,note_on,45,73,0
2,note_on,45,0,931
2,note_on,33,0,0
2,note_on,45,57,29
2,note_on,52,68,0
2,note_on,52,0,931
2,note_on,45,0,0
2,note_on,61,45,29
2,note_on,61,0,480
2,note_on,57,37,0
2,note_on,57,0,480
2,note_on,62,45,0
2,note_on,62,0,480
2,note_on,66,39,0
2,note_on,66,0,480
2,note_on,71,39,0
2,note_on,71,0,480
2,note_on,56,44,0
2,note_on,56,0,240
2,note_on,68,36,240
2,note_on,68,0,480
2,note_on,62,36,0
2,note_on,62,0,480
2,note_on,61,45,0
2,note_on,61,0,480
2,note_on,64,39,0
2,note_on,64,0,480
2,note_on,69,39,0
2,note_on,69,0,480
2,note_on,54,44,0
2,note_on,54,0,240
2,note_on,66,36,240
2,note_on,66,0,480
2,note_on,61,36,0
2,note_on,61,0,480
2,note_on,59,45,0
2,note_on,59,0,480
2,note_on,62,39,0
2,note_on,62,0,480
2,note_on,68,39,0
2,note_on,68,0,480
2,note_on,47,44,0
2,note_on,47,0,240
2,note_on,59,34,240
2,note_on,59,0,480
2,note_on,60,32,0
2,note_on,60,0,480
2,note_on,61,25,0
2,note_on,68,30,0
2,note_on,68,0,931
2,note_on,61,0,0
2,note_on,61,39,29
2,note_on,68,47,0
2,note_on,68,0,950
2,note_on,61,0,0
2,note_on,61,37,10
2,note_on,68,44,0
2,note_on,68,0,432
2,note_on,61,0,0
2,note_on,61,37,48
2,note_on,68,44,0
2,note_on,68,0,432
2,note_on,61,0,0
2,note_on,59,39,48
2,note_on,64,39,0
2,note_on,68,47,0
2,note_on,68,0,931
2,note_on,64,0,0
2,note_on,59,0,0
2,note_on,59,39,29
2,note_on,64,39,0
2,note_on,68,47,0
2,note_on,68,0,830
2,note_on,64,0,0
2,note_on,68,39,10
2,note_on,59,0,110
2,note_on,68,0,10
2,note_on,69,44,0
2,note_on,64,39,0
2,note_on,69,0,360
2,note_on,68,41,0
2,note_on,64,0,105
2,note_on,68,0,15
2,note_on,64,39,0
2,note_on,69,43,0
2,note_on,69,0,360
2,note_on,71,41,0
2,note_on,64,0,105
2,note_on,71,0,15
2,note_on,64,47,0
2,note_on,57,39,0
2,note_on,57,0,931
2,note_on,64,0,0
2,note_on,57,39,29
2,note_on,64,47,0
2,note_on,64,0,830
2,note_on,57,0,0
2,note_on,45,60,10
2,note_on,45,0,60
2,note_on,45,64,60
2,note_on,45,0,120
2,note_on,45,59,240
2,note_on,45,0,60
2,note_on,43,64,60
2,note_on,43,0,120
2,note_on,45,60,240
2,note_on,45,0,60
2,note_on,34,57,60
2,note_on,46,68,0
2,note_on,46,0,931
2,note_on,34,0,0
2,note_on,34,57,29
2,note_on,46,68,0
2,note_on,46,0,815
2,note_on,34,0,0
2,note_on,57,60,25
2,note_on,57,0,60
2,note_on,57,64,60
2,note_on,57,0,120
2,note_on,57,59,240
2,note_on,57,0,60
2,note_on,55,64,60
2,note_on,55,0,120
2,note_on,57,60,240
2,note_on,57,0,60
2,note_on,53,57,60
2,note_on,46,57,0
2,note_on,58,68,0
2,note_on,58,0,931
2,note_on,46,0,0
2,note_on,53,0,29
2,note_on,53,57,0
2,note_on,46,57,0
2,note_on,58,68,0
2,note_on,58,0,815
2,note_on,46,0,0
2,note_on,53,0,0
2,note_on,62,51,25
2,note_on,65,60,0
2,note_on,65,0,60
2,note_on,62,0,0
2,note_on,62,54,60
2,note_on,65,64,0
2,note_on,65,0,120
2,note_on,62,0,0
2,note_on,62,50,240
2,note_on,65,59,0
2,note_on,65,0,60
2,note_on,62,0,0
2,note_on,61,54,60
2,note_on,64,64,0
2,note_on,64,0,120
2,note_on,61,0,0
2,note_on,62,51,240
2,note_on,65,60,0
2,note_on,65,0,60
2,note_on,62,0,0
2,note_on,58,54,60
2,note_on,62,64,0
2,note_on,62,0,120
2,note_on,58,0,0
2,note_on,58,50,240
2,note_on,62,59,0
2,note_on,62,0,60
2,note_on,58,0,0
2,note_on,57,54,60
2,note_on,61,64,0
2,note_on,61,0,120
2,note_on,57,0,0
2,note_on,58,51,240
2,note_on,62,60,0
2,note_on,62,0,60
2,note_on,58,0,0
2,note_on,55,54,60
2,note_on,58,64,0
2,note_on,58,0,120
2,note_on,55,0,0
2,note_on,58,59,240
2,note_on,55,50,0
2,note_on,55,0,60
2,note_on,58,0,0
2,note_on,57,64,60
2,note_on,54,54,0
2,note_on,54,0,120
2,note_on,57,0,0
2,note_on,58,60,240
2,note_on,55,51,0
2,note_on,55,0,60
2,note_on,58,0,0
2,note_on,51,57,60
2,note_on,55,68,0
2,note_on,55,0,931
2,note_on,51,0,29
2,note_on,38,57,0
2,note_on,50,68,0
2,note_on,50,0,950
2,note_on,38,0,0
2,note_on,36,57,10
2,note_on,48,68,0
2,note_on,48,0,950
2,note_on,36,0,0
2,note_on,41,57,10
2,note_on,53,68,0
2,note_on,53,0,120
2,note_on,41,0,0
2,note_on,41,57,360
2,note_on,53,68,0
2,note_on,53,0,120
2,note_on,41,0,0
2,note_on,34,57,360
2,note_on,46,68,0
2,note_on,46,0,950
2,note_on,34,0,0
2,note_on,46,57,10
2,note_on,53,68,0
2,note_on,53,0,815
2,note_on,46,0,0
2,note_on,46,55,1105
2,note_on,46,0,240
2,note_on,53,42,240
2,note_on,53,0,240
2,note_on,62,42,240
2,note_on,58,35,0
2,note_on,58,0,240
2,note_on,62,0,0
2,note_on,46,55,240
2,note_on,46,0,240
2,note_on,53,42,240
2,note_on,53,0,240
2,note_on,58,35,240
2,note_on,62,42,0
2,note_on,62,0,240
2,note_on,58,0,0
2,note_on,45,55,240
2,note_on,45,0,240
2,note_on,53,42,240
2,note_on,53,0,240
2,note_on,63,42,240
2,note_on,60,35,0
2,note_on,60,0,240
2,note_on,63,0,0
2,note_on,45,55,240
2,note_on,45,0,240
2,note_on,53,42,240
2,note_on,53,0,240
2,note_on,60,35,240
2,note_on,63,42,0
2,note_on,63,0,240
2,note_on,60,0,0
2,note_on,41,55,240
2,note_on,41,0,240
2,note_on,53,42,240
2,note_on,53,0,240
2,note_on,63,42,240
2,note_on,60,35,0
2,note_on,60,0,240
2,note_on,63,0,0
2,note_on,41,55,240
2,note_on,41,0,240
2,note_on,53,42,240
2,note_on,53,0,240
2,note_on,60,35,240
2,note_on,63,42,0
2,note_on,63,0,240
2,note_on,60,0,0
2,note_on,46,49,240
2,note_on,46,0,240
2,note_on,53,37,240
2,note_on,53,0,240
2,note_on,62,37,240
2,note_on,58,31,0
2,note_on,58,0,240
2,note_on,62,0,0
2,note_on,46,55,240
2,note_on,46,0,240
2,note_on,53,37,240
2,note_on,53,0,240
2,note_on,62,38,240
2,note_on,58,32,0
2,note_on,58,0,240
2,note_on,62,0,0
2,note_on,43,60,240
2,note_on,43,0,240
2,note_on,55,46,240
2,note_on,55,0,240
2,note_on,62,46,240
2,note_on,58,38,0
2,note_on,58,0,240
2,note_on,62,0,0
2,note_on,43,55,240
2,note_on,43,0,240
2,note_on,55,46,240
2,note_on,55,0,240
2,note_on,58,37,240
2,note_on,62,45,0
2,note_on,62,0,240
2,note_on,58,0,0
2,note_on,46,55,240
2,note_on,46,0,240
2,note_on,53,42,240
2,note_on,53,0,240
2,note_on,62,42,240
2,note_on,58,35,0
2,note_on,58,0,240
2,note_on,62,0,0
2,note_on,46,55,240
2,note_on,46,0,240
2,note_on,53,42,240
2,note_on,53,0,240
2,note_on,62,42,240
2,note_on,58,35,0
2,note_on,58,0,240
2,note_on,62,0,0
2,note_on,41,55,240
2,note_on,41,0,240
2,note_on,53,42,240
2,note_on,53,0,240
2,note_on,60,33,240
2,note_on,63,39,0
2,note_on,63,0,240
2,note_on,60,0,0
2,note_on,41,52,240
2,note_on,41,0,240
2,note_on,53,39,240
2,note_on,53,0,240
2,note_on,63,39,240
2,note_on,60,33,0
2,note_on,60,0,240
2,note_on,63,0,0
2,note_on,46,44,240
2,note_on,46,0,240
2,note_on,50,33,240
2,note_on,50,0,240
2,note_on,58,33,240
2,note_on,53,27,0
2,note_on,53,0,240
2,note_on,58,0,0
2,note_on,41,49,240
2,note_on,41,0,240
2,note_on,51,35,240
2,note_on,51,0,240
2,note_on,57,35,240
2,note_on,53,29,0
2,note_on,53,0,240
2,note_on,57,0,0
2,note_on,46,41,240
2,note_on,46,0,240
2,note_on,50,31,240
2,note_on,50,0,240
2,note_on,58,31,240
2,note_on,53,25,0
2,note_on,53,0,240
2,note_on,58,0,0
2,note_on,41,46,240
2,note_on,41,0,240
2,note_on,51,31,240
2,note_on,51,0,240
2,note_on,57,30,240
2,note_on,53,25,0
2,note_on,53,0,240
2,note_on,57,0,0
2,note_on,46,34,240
2,note_on,46,0,350
2,note_on,34,60,10
2,note_on,34,0,60
2,note_on,34,64,60
2,note_on,34,0,120
2,note_on,34,59,240
2,note_on,34,0,60
2,note_on,34,64,60
2,note_on,34,0,120
2,note_on,36,60,240
2,note_on,36,0,60
2,note_on,38,67,60
2,note_on,38,0,350
2,note_on,38,60,10
2,note_on,38,0,60
2,note_on,38,64,60
2,note_on,38,0,120
2,note_on,38,59,240
2,note_on,38,0,60
2,note_on,38,64,60
2,note_on,38,0,120
2,note_on,40,60,240
2,note_on,40,0,60
2,note_on,41,73,60
2,note_on,41,0,350
2,note_on,41,66,10
2,note_on,41,0,60
2,note_on,41,70,60
2,note_on,41,0,120
2,note_on,41,64,240
2,note_on,41,0,60
2,note_on,41,70,60
2,note_on,41,0,120
2,note_on,43,66,240
2,note_on,43,0,60
2,note_on,45,80,60
2,note_on,45,0,350
2,note_on,33,52,10
2,note_on,45,61,0
2,note_on,45,0,60
2,note_on,33,0,0
2,note_on,33,55,60
2,note_on,45,65,0
2,note_on,45,0,120
2,note_on,33,0,0
2,note_on,35,52,240
2,note_on,47,61,0
2,note_on,47,0,60
2,note_on,35,0,0
2,note_on,37,57,60
2,note_on,49,67,0
2,note_on,49,0,120
2,note_on,37,0,0
2,note_on,38,55,240
2,note_on,50,65,0
2,note_on,50,0,60
2,note_on,38,0,0
2,note_on,45,58,60
2,note_on,40,58,0
2,note_on,49,58,0
2,note_on,52,70,0
2,note_on,52,0,931
2,note_on,49,0,0
2,note_on,40,0,0
2,note_on,45,0,29
2,note_on,45,58,0
2,note_on,40,58,0
2,note_on,49,58,0
2,note_on,52,70,0
2,note_on,52,0,815
2,note_on,45,0,0
2,note_on,40,0,0
2,note_on,49,0,0
2,note_on,40,56,25
2,note_on,52,66,0
2,note_on,52,0,120
2,note_on,40,0,0
2,note_on,40,58,0
2,note_on,52,69,0
2,note_on,52,0,332
2,note_on,40,0,0
2,note_on,38,55,28
2,note_on,50,65,0
2,note_on,50,0,120
2,note_on,38,0,0
2,note_on,37,60,0
2,note_on,49,72,0
2,note_on,49,0,332
2,note_on,37,0,0
2,note_on,35,62,28
2,note_on,47,74,0
2,note_on,47,0,120
2,note_on,35,0,0
2,note_on,33,65,0
2,note_on,45,74,0
2,note_on,45,0,931
2,note_on,33,0,0
2,note_on,40,65,29
2,note_on,33,65,0
2,note_on,45,74,0
2,note_on,45,0,820
2,note_on,33,0,0
2,note_on,40,0,0
2,note_on,45,48,20
2,note_on,45,0,60
2,note_on,47,51,60
2,note_on,47,0,360
2,note_on,45,47,0
2,note_on,45,0,60
2,note_on,47,51,60
2,note_on,47,0,360
2,note_on,49,48,0
2,note_on,49,0,60
2,note_on,50,54,60
2,note_on,50,0,931
2,note_on,50,45,29
2,note_on,54,54,0
2,note_on,54,0,815
2,note_on,50,0,0
2,note_on,50,44,25
2,note_on,50,0,110
2,note_on,50,50,10
2,note_on,47,42,0
2,note_on,47,0,120
2,note_on,50,0,0
2,note_on,50,47,240
2,note_on,47,40,0
2,note_on,46,41,114
2,note_on,47,0,6
2,note_on,50,0,0
2,note_on,50,49,6
2,note_on,46,0,108
2,note_on,50,0,12
2,note_on,46,40,234
2,note_on,50,47,0
2,note_on,50,0,120
2,note_on,46,0,0
2,note_on,45,45,0
2,note_on,52,54,0
2,note_on,52,0,931
2,note_on,45,0,0
2,note_on,45,45,29
2,note_on,57,54,0
2,note_on,57,0,815
2,note_on,45,0,0
2,note_on,49,35,25
2,note_on,57,44,0
2,note_on,57,0,110
2,note_on,49,0,0
2,note_on,57,50,10
2,note_on,49,42,0
2,note_on,49,0,120
2,note_on,57,0,0
2,note_on,57,47,240
2,note_on,49,40,0
2,note_on,49,0,120
2,note_on,57,0,0
2,note_on,49,41,0
2,note_on,57,49,0
2,note_on,57,0,120
2,note_on,49,0,0
2,note_on,49,40,240
2,note_on,57,47,0
2,note_on,57,0,120
2,note_on,49,0,0
2,note_on,54,45,0
2,note_on,47,45,0
2,note_on,59,54,0
2,note_on,59,0,931
2,note_on,47,0,0
2,note_on,54,0,29
2,note_on,50,45,0
2,note_on,59,54,0
2,note_on,59,0,815
2,note_on,50,0,0
2,note_on,52,35,25
2,note_on,59,44,0
2,note_on,59,0,110
2,note_on,52,0,0
2,note_on,59,50,10
2,note_on,52,42,0
2,note_on,52,0,120
2,note_on,59,0,0
2,note_on,59,47,240
2,note_on,52,40,0
2,note_on,52,0,120
2,note_on,59,0,0
2,note_on,52,41,0
2,note_on,59,49,0
2,note_on,59,0,120
2,note_on,52,0,0
2,note_on,52,40,240
2,note_on,59,47,0
2,note_on,59,0,120
2,note_on,52,0,0
2,note_on,52,45,0
2,note_on,45,45,0
2,note_on,57,54,0
2,note_on,57,0,931
2,note_on,45,0,0
2,note_on,52,0,29
2,note_on,45,45,0
2,note_on,52,45,0
2,note_on,57,54,0
2,note_on,57,0,950
2,note_on,52,0,0
2,note_on,45,0,0
2,note_on,50,45,10
2,note_on,50,0,456
2,note_on,49,37,24
2,note_on,49,0,466
2,note_on,47,67,14
2,note_on,47,0,160
2,note_on,46,57,0
2,note_on,46,0,160
2,note_on,47,57,0
2,note_on,47,0,160
2,note_on,43,68,0
2,note_on,43,0,160
2,note_on,42,61,0
2,note_on,42,0,160
2,note_on,43,65,0
2,note_on,43,0,160
2,note_on,40,74,0
2,note_on,40,0,840
2,note_on,42,61,0
2,note_on,42,0,120
2,note_on,43,69,0
2,note_on,43,0,360
2,note_on,45,62,0
2,note_on,45,0,120
2,note_on,47,70,0
2,note_on,47,0,360
2,note_on,49,62,0
2,note_on,49,0,120
2,note_on,45,69,0
2,note_on,45,0,160
2,note_on,44,63,0
2,note_on,44,0,160
2,note_on,45,59,0
2,note_on,45,0,160
2,note_on,42,68,0
2,note_on,42,0,160
2,note_on,41,65,0
2,note_on,41,0,160
2,note_on,42,69,0
2,note_on,42,0,160
2,note_on,38,74,0
2,note_on,38,0,840
2,note_on,40,61,0
2,note_on,40,0,120
2,note_on,42,69,0
2,note_on,42,0,360
2,note_on,43,62,0
2,note_on,43,0,120
2,note_on,45,70,0
2,note_on,45,0,360
2,note_on,47,62,0
2,note_on,47,0,120
2,note_on,43,70,0
2,note_on,43,0,160
2,note_on,42,58,0
2,note_on,42,0,160
2,note_on,43,58,0
2,note_on,43,0,160
2,note_on,40,63,0
2,note_on,40,0,160
2,note_on,39,65,0
2,note_on,39,0,160
2,note_on,40,68,0
2,note_on,40,0,160
2,note_on,37,72,0
2,note_on,37,0,840
2,note_on,38,59,0
2,note_on,38,0,120
2,note_on,40,73,0
2,note_on,40,0,360
2,note_on,37,57,0
2,note_on,37,0,120
2,note_on,41,71,0
2,note_on,41,0,360
2,note_on,37,58,0
2,note_on,37,0,120
2,note_on,42,71,0
2,note_on,42,0,931
2,note_on,42,68,29
2,note_on,42,0,815
2,note_on,46,61,25
2,note_on,46,0,60
2,note_on,47,65,60
2,note_on,47,0,120
2,note_on,46,61,240
2,note_on,46,0,60
2,note_on,47,67,60
2,note_on,47,0,120
2,note_on,46,65,240
2,note_on,46,0,60
2,note_on,44,58,60
2,note_on,49,70,0
2,note_on,49,0,931
2,note_on,44,0,29
2,note_on,44,58,0
2,note_on,49,70,0
2,note_on,49,0,815
2,note_on,44,0,0
2,note_on,44,56,25
2,note_on,49,66,0
2,note_on,49,0,120
2,note_on,44,0,0
2,note_on,46,58,0
2,note_on,49,69,0
2,note_on,49,0,332
2,note_on,46,0,0
2,note_on,44,55,28
2,note_on,49,65,0
2,note_on,49,0,120
2,note_on,44,0,0
2,note_on,46,60,0
2,note_on,49,72,0
2,note_on,49,0,332
2,note_on,46,0,0
2,note_on,44,62,28
2,note_on,49,74,0
2,note_on,49,0,120
2,note_on,44,0,0
2,note_on,42,65,0
2,note_on,49,74,0
2,note_on,49,0,931
2,note_on,42,0,0
2,note_on,42,65,29
2,note_on,49,74,0
2,note_on,49,0,820
2,note_on,42,0,0
2,note_on,57,48,20
2,note_on,57,0,60
2,note_on,57,51,60
2,note_on,57,0,349
2,note_on,57,47,11
2,note_on,57,0,60
2,note_on,59,51,46
2,note_on,59,0,349
2,note_on,61,48,25
2,note_on,61,0,60
2,note_on,62,54,60
2,note_on,62,0,931
2,note_on,62,54,29
2,note_on,62,0,815
2,note_on,62,44,25
2,note_on,62,0,107
2,note_on,62,50,13
2,note_on,62,0,120
2,note_on,62,47,226
2,note_on,62,0,116
2,note_on,59,41,18
2,note_on,62,49,0
2,note_on,62,0,120
2,note_on,59,0,0
2,note_on,59,40,240
2,note_on,62,47,0
2,note_on,62,0,120
2,note_on,59,0,0
2,note_on,57,45,0
2,note_on,64,54,0
2,note_on,64,0,931
2,note_on,57,0,0
2,note_on,57,45,29
2,note_on,61,54,0
2,note_on,61,0,815
2,note_on,57,0,0
2,note_on,54,35,25
2,note_on,61,44,0
2,note_on,61,0,107
2,note_on,54,0,0
2,note_on,61,50,13
2,note_on,54,42,0
2,note_on,54,0,120
2,note_on,61,0,0
2,note_on,61,47,226
2,note_on,54,40,0
2,note_on,54,0,116
2,note_on,61,0,0
2,note_on,54,41,18
2,note_on,62,49,0
2,note_on,62,0,120
2,note_on,54,0,0
2,note_on,54,40,240
2,note_on,64,47,0
2,note_on,64,0,120
2,note_on,54,0,0
2,note_on,55,45,0
2,note_on,62,54,0
2,note_on,62,0,931
2,note_on,55,0,29
2,note_on,55,45,0
2,note_on,59,54,0
2,note_on,59,0,815
2,note_on,55,0,0
2,note_on,45,44,25
2,note_on,45,0,110
2,note_on,45,50,10
2,note_on,45,0,120
2,note_on,45,47,240
2,note_on,45,0,120
2,note_on,45,49,0
2,note_on,45,0,120
2,note_on,45,47,240
2,note_on,45,0,120
2,note_on,50,54,0
2,note_on,50,0,931
2,note_on,50,54,29
2,note_on,50,0,950
2,note_on,50,45,10
2,note_on,50,0,456
2,note_on,49,37,24
2,note_on,49,0,456
2,note_on,47,67,24
2,note_on,47,0,160
2,note_on,46,57,0
2,note_on,46,0,160
2,note_on,47,57,0
2,note_on,47,0,160
2,note_on,43,68,0
2,note_on,43,0,160
2,note_on,42,61,0
2,note_on,42,0,160
2,note_on,43,65,0
2,note_on,43,0,160
2,note_on,40,74,0
2,note_on,40,0,840
2,note_on,42,61,0
2,note_on,42,0,120
2,note_on,43,69,0
2,note_on,43,0,360
2,note_on,45,62,0
2,note_on,45,0,120
2,note_on,47,70,0
2,note_on,47,0,360
2,note_on,50,62,0
2,note_on,50,0,120
2,note_on,49,69,0
2,note_on,49,0,160
2,note_on,48,63,0
2,note_on,48,0,160
2,note_on,49,59,0
2,note_on,49,0,160
2,note_on,45,68,0
2,note_on,45,0,160
2,note_on,44,65,0
2,note_on,44,0,160
2,note_on,45,69,0
2,note_on,45,0,160
2,note_on,42,74,0
2,note_on,42,0,840
2,note_on,44,61,0
2,note_on,44,0,120
2,note_on,45,69,0
2,note_on,45,0,360
2,note_on,47,62,0
2,note_on,47,0,120
2,note_on,49,70,0
2,note_on,49,0,360
2,note_on,52,62,0
2,note_on,52,0,120
2,note_on,50,70,0
2,note_on,50,0,160
2,note_on,49,58,0
2,note_on,49,0,160
2,note_on,50,58,0
2,note_on,50,0,160
2,note_on,47,63,0
2,note_on,47,0,160
2,note_on,46,65,0
2,note_on,46,0,160
2,note_on,47,68,0
2,note_on,47,0,160
2,note_on,43,72,0
2,note_on,43,0,840
2,note_on,45,59,0
2,note_on,45,0,120
2,note_on,47,73,0
2,note_on,47,0,360
2,note_on,49,57,0
2,note_on,49,0,120
2,note_on,50,71,0
2,note_on,50,0,360
2,note_on,54,58,0
2,note_on,54,0,120
2,note_on,52,85,0
2,note_on,52,0,931
2,note_on,52,68,29
2,note_on,57,81,0
2,note_on,57,0,815
2,note_on,52,0,0
2,note_on,45,56,25
2,note_on,57,66,0
2,note_on,57,0,120
2,note_on,45,0,0
2,note_on,45,58,0
2,note_on,57,69,0
2,note_on,57,0,332
2,note_on,45,0,0
2,note_on,43,55,28
2,note_on,55,65,0
2,note_on,55,0,120
2,note_on,43,0,0
2,note_on,42,60,0
2,note_on,54,72,0
2,note_on,54,0,332
2,note_on,42,0,0
2,note_on,40,62,28
2,note_on,52,74,0
2,note_on,52,0,120
2,note_on,40,0,0
2,note_on,38,65,0
2,note_on,45,65,0
2,note_on,50,74,0
2,note_on,50,0,931
2,note_on,45,0,0
2,note_on,38,0,0
2,note_on,45,65,29
2,note_on,38,65,0
2,note_on,50,74,0
2,note_on,50,0,820
2,note_on,38,0,0
2,note_on,45,0,0
2,note_on,50,44,1100
2,note_on,50,0,240
2,note_on,57,33,240
2,note_on,57,0,240
2,note_on,66,33,240
2,note_on,62,28,0
2,note_on,62,0,240
2,note_on,66,0,0
2,note_on,50,44,240
2,note_on,50,0,240
2,note_on,57,33,240
2,note_on,57,0,240
2,note_on,62,28,240
2,note_on,66,33,0
2,note_on,66,0,240
2,note_on,62,0,0
2,note_on,49,44,240
2,note_on,49,0,240
2,note_on,57,33,240
2,note_on,57,0,240
2,note_on,67,33,240
2,note_on,64,28,0
2,note_on,64,0,240
2,note_on,67,0,0
2,note_on,49,44,240
2,note_on,49,0,240
2,note_on,57,33,240
2,note_on,57,0,240
2,note_on,64,28,240
2,note_on,67,33,0
2,note_on,67,0,240
2,note_on,64,0,0
2,note_on,45,44,240
2,note_on,45,0,240
2,note_on,57,33,240
2,note_on,57,0,240
2,note_on,67,33,240
2,note_on,64,28,0
2,note_on,64,0,240
2,note_on,67,0,0
2,note_on,45,44,240
2,note_on,45,0,240
2,note_on,57,33,240
2,note_on,57,0,240
2,note_on,64,28,240
2,note_on,67,33,0
2,note_on,67,0,240
2,note_on,64,0,0
2,note_on,50,39,240
2,note_on,50,0,240
2,note_on,57,29,240
2,note_on,57,0,240
2,note_on,66,29,240
2,note_on,62,24,0
2,note_on,62,0,240
2,note_on,66,0,0
2,note_on,50,44,240
2,note_on,50,0,240
2,note_on,57,29,240
2,note_on,57,0,240
2,note_on,66,30,240
2,note_on,62,25,0
2,note_on,62,0,240
2,note_on,66,0,0
2,note_on,47,48,240
2,note_on,47,0,240
2,note_on,59,36,240
2,note_on,59,0,240
2,note_on,66,36,240
2,note_on,62,30,0
2,note_on,62,0,240
2,note_on,66,0,0
2,note_on,47,44,240
2,note_on,47,0,240
2,note_on,59,36,240
2,note_on,59,0,240
2,note_on,62,29,240
2,note_on,66,36,0
2,note_on,66,0,240
2,note_on,62,0,0
2,note_on,50,44,240
2,note_on,50,0,240
2,note_on,57,33,240
2,note_on,57,0,240
2,note_on,66,33,240
2,note_on,62,28,0
2,note_on,62,0,240
2,note_on,66,0,0
2,note_on,50,44,240
2,note_on,50,0,240
2,note_on,57,33,240
2,note_on,57,0,240
2,note_on,66,33,240
2,note_on,62,28,0
2,note_on,62,0,240
2,note_on,66,0,0
2,note_on,45,44,240
2,note_on,45,0,240
2,note_on,57,33,240
2,note_on,57,0,240
2,note_on,64,26,240
2,note_on,67,31,0
2,note_on,67,0,240
2,note_on,64,0,0
2,note_on,45,41,240
2,note_on,45,0,240
2,note_on,57,31,240
2,note_on,57,0,240
2,note_on,67,31,240
2,note_on,64,26,0
2,note_on,64,0,240
2,note_on,67,0,0
2,note_on,50,35,240
2,note_on,50,0,240
2,note_on,54,26,240
2,note_on,54,0,240
2,note_on,62,26,240
2,note_on,57,21,0
2,note_on,57,0,240
2,note_on,62,0,0
2,note_on,45,39,240
2,note_on,45,0,240
2,note_on,55,27,240
2,note_on,55,0,240
2,note_on,61,26,240
2,note_on,57,22,0
2,note_on,57,0,240
2,note_on,61,0,0
2,note_on,50,30,240
2,note_on,50,0,240
2,note_on,54,22,240
2,note_on,54,0,240
2,note_on,62,21,240
2,note_on,57,17,0
2,note_on,57,0,240
2,note_on,62,0,0
2,note_on,45,31,240
2,note_on,45,0,240
2,note_on,55,20,240
2,note_on,55,0,240
2,note_on,61,19,240
2,note_on,57,16,0
2,note_on,57,0,240
2,note_on,61,0,0
2,note_on,50,25,240
2,note_on,50,0,240
2,note_on,54,19,240
2,note_on,54,0,240
2,note_on,62,19,240
2,note_on,57,16,0
2,note_on,57,0,240
2,note_on,62,0,0
2,note_on,50,25,240
2,note_on,50,0,240
2,note_on,54,19,240
2,note_on,54,0,240
2,note_on,57,16,240
2,note_on,62,19,0
2,note_on,62,0,240
2,note_on,57,0,0
2,note_on,50,25,240
2,note_on,50,0,240
2,note_on,54,19,240
2,note_on,54,0,240
2,note_on,62,19,240
2,note_on,57,16,0
2,note_on,57,0,240
2,note_on,62,0,0
2,note_on,50,25,240
2,note_on,50,0,240
2,note_on,54,19,240
2,note_on,54,0,240
2,note_on,57,16,240
2,note_on,62,19,0
2,note_on,62,0,240
2,note_on,57,0,0
2,note_on,50,25,240
2,note_on,50,0,240
2,note_on,62,24,1200
2,note_on,50,20,0
2,note_on,57,20,0
2,note_on,57,0,240
2,note_on,50,0,0
2,note_on,62,0,0
2,note_on,50,19,1200
2,note_on,57,19,0
2,note_on,62,22,0
2,note_on,62,0,1920
2,note_on,57,0,0
2,note_on,50,0,0
