Track,Message Type,Note,Velocity,Time
1,note_on,68,42,1440
1,note_on,72,46,0
1,note_on,60,42,0
1,note_on,67,42,360
1,note_on,61,42,0
1,note_on,73,46,0
1,note_on,60,0,10
1,note_on,68,0,0
1,note_on,72,0,0
1,note_on,68,42,110
1,note_on,72,46,0
1,note_on,60,42,0
1,note_on,67,0,10
1,note_on,73,0,0
1,note_on,61,0,0
1,note_on,68,0,230
1,note_on,72,0,0
1,note_on,60,0,0
1,note_on,73,37,0
1,note_on,61,34,0
1,note_on,67,34,0
1,note_on,67,0,1440
1,note_on,61,0,0
1,note_on,73,0,0
1,note_on,72,46,0
1,note_on,60,42,0
1,note_on,68,42,0
1,note_on,61,42,360
1,note_on,67,42,0
1,note_on,73,46,0
1,note_on,68,0,10
1,note_on,72,0,0
1,note_on,60,0,0
1,note_on,60,42,110
1,note_on,72,46,0
1,note_on,68,42,0
1,note_on,61,0,10
1,note_on,73,0,0
1,note_on,67,0,0
1,note_on,60,0,230
1,note_on,72,0,0
1,note_on,68,0,0
1,note_on,67,35,0
1,note_on,58,35,0
1,note_on,70,40,0
1,note_on,70,0,1440
1,note_on,58,0,0
1,note_on,67,0,0
1,note_on,68,42,0
1,note_on,60,42,0
1,note_on,72,46,0
1,note_on,67,42,360
1,note_on,73,46,0
1,note_on,61,42,0
1,note_on,72,0,10
1,note_on,68,0,0
1,note_on,60,0,0
1,note_on,72,46,110
1,note_on,60,42,0
1,note_on,68,42,0
1,note_on,67,0,10
1,note_on,61,0,0
1,note_on,73,0,0
1,note_on,72,0,230
1,note_on,60,0,0
1,note_on,68,0,0
1,note_on,72,42,0
1,note_on,60,36,0
1,note_on,68,36,0
1,note_on,61,45,360
1,note_on,67,45,0
1,note_on,73,51,0
1,note_on,68,0,10
1,note_on,72,0,0
1,note_on,60,0,0
1,note_on,60,47,110
1,note_on,72,54,0
1,note_on,68,47,0
1,note_on,61,0,10
1,note_on,73,0,0
1,note_on,67,0,0
1,note_on,60,0,230
1,note_on,72,0,0
1,note_on,68,0,0
1,note_on,68,58,0
1,note_on,63,58,0
1,note_on,75,64,0
1,note_on,75,0,600
1,note_on,63,0,0
1,note_on,68,0,0
1,note_on,75,43,0
1,note_on,63,37,0
1,note_on,63,0,120
1,note_on,75,0,0
1,note_on,73,43,0
1,note_on,67,37,0
1,note_on,61,37,0
1,note_on,61,0,600
1,note_on,67,0,0
1,note_on,73,0,0
1,note_on,60,35,0
1,note_on,68,35,0
1,note_on,72,39,0
1,note_on,72,0,120
1,note_on,68,0,0
1,note_on,60,0,0
1,note_on,60,32,0
1,note_on,72,36,0
1,note_on,68,32,0
1,note_on,68,0,1440
1,note_on,72,0,0
1,note_on,60,0,0
1,note_on,67,35,0
1,note_on,58,35,0
1,note_on,70,39,0
1,note_on,71,39,360
1,note_on,59,35,0
1,note_on,68,35,0
1,note_on,70,0,10
1,note_on,67,0,0
1,note_on,58,0,0
1,note_on,67,35,110
1,note_on,70,39,0
1,note_on,58,35,0
1,note_on,71,0,10
1,note_on,68,0,0
1,note_on,59,0,0
1,note_on,67,0,230
1,note_on,70,0,0
1,note_on,58,0,0
1,note_on,70,39,0
1,note_on,58,35,0
1,note_on,67,35,0
1,note_on,68,35,360
1,note_on,59,35,0
1,note_on,71,39,0
1,note_on,67,0,10
1,note_on,70,0,0
1,note_on,58,0,0
1,note_on,58,35,110
1,note_on,67,35,0
1,note_on,70,39,0
1,note_on,68,0,10
1,note_on,71,0,0
1,note_on,59,0,0
1,note_on,58,0,230
1,note_on,67,0,0
1,note_on,70,0,0
1,note_on,71,61,0
1,note_on,65,56,0
1,note_on,68,56,0
1,note_on,65,0,1440
1,note_on,63,27,0
1,note_on,68,0,720
1,note_on,71,0,0
1,note_on,67,24,0
1,note_on,70,27,0
1,note_on,70,0,240
1,note_on,67,0,0
1,note_on,63,0,0
1,note_on,58,41,480
1,note_on,66,41,0
1,note_on,70,45,0
1,note_on,71,45,360
1,note_on,68,41,0
1,note_on,59,41,0
1,note_on,70,0,10
1,note_on,58,0,0
1,note_on,66,0,0
1,note_on,70,45,110
1,note_on,66,41,0
1,note_on,58,41,0
1,note_on,71,0,10
1,note_on,59,0,0
1,note_on,68,0,0
1,note_on,70,0,230
1,note_on,66,0,0
1,note_on,58,0,0
1,note_on,70,45,0
1,note_on,58,40,0
1,note_on,66,40,0
1,note_on,66,0,240
1,note_on,58,0,0
1,note_on,70,0,0
1,note_on,63,48,0
1,note_on,70,48,0
1,note_on,75,53,0
1,note_on,75,0,240
1,note_on,70,0,0
1,note_on,63,0,0
1,note_on,65,60,0
1,note_on,77,67,0
1,note_on,75,60,0
1,note_on,75,0,240
1,note_on,77,0,0
1,note_on,65,0,0
1,note_on,75,64,0
1,note_on,66,64,0
1,note_on,78,73,0
1,note_on,78,0,600
1,note_on,66,0,0
1,note_on,75,0,0
1,note_on,78,54,0
1,note_on,66,49,0
1,note_on,66,0,120
1,note_on,78,0,0
1,note_on,77,45,0
1,note_on,65,41,0
1,note_on,74,41,0
1,note_on,74,0,600
1,note_on,65,0,0
1,note_on,77,0,0
1,note_on,63,27,0
1,note_on,75,31,0
1,note_on,75,0,120
1,note_on,63,0,0
1,note_on,75,31,0
1,note_on,63,27,0
1,note_on,63,0,1440
1,note_on,75,0,0
1,note_on,72,35,0
1,note_on,60,30,0
1,note_on,68,30,0
1,note_on,61,30,360
1,note_on,67,30,0
1,note_on,73,35,0
1,note_on,68,0,10
1,note_on,72,0,0
1,note_on,60,0,0
1,note_on,60,30,110
1,note_on,72,35,0
1,note_on,68,30,0
1,note_on,61,0,10
1,note_on,73,0,0
1,note_on,67,0,0
1,note_on,60,0,230
1,note_on,72,0,0
1,note_on,68,0,0
1,note_on,67,25,0
1,note_on,61,25,0
1,note_on,73,28,0
1,note_on,73,0,1440
1,note_on,61,0,0
1,note_on,67,0,0
1,note_on,68,30,0
1,note_on,60,30,0
1,note_on,72,35,0
1,note_on,75,36,360
1,note_on,63,31,0
1,note_on,72,0,10
1,note_on,68,0,0
1,note_on,60,0,0
1,note_on,60,30,110
1,note_on,68,30,0
1,note_on,72,35,0
1,note_on,75,0,10
1,note_on,63,0,0
1,note_on,68,0,230
1,note_on,60,0,0
1,note_on,72,0,0
1,note_on,58,25,0
1,note_on,70,28,0
1,note_on,67,25,0
1,note_on,67,0,1440
1,note_on,70,0,0
1,note_on,58,0,0
1,note_on,68,29,0
1,note_on,60,29,0
1,note_on,72,34,0
1,note_on,67,29,360
1,note_on,61,29,0
1,note_on,73,34,0
1,note_on,72,0,10
1,note_on,68,0,0
1,note_on,60,0,0
1,note_on,68,29,110
1,note_on,72,34,0
1,note_on,60,29,0
1,note_on,67,0,10
1,note_on,73,0,0
1,note_on,61,0,0
1,note_on,68,0,230
1,note_on,72,0,0
1,note_on,60,0,0
1,note_on,72,30,0
1,note_on,60,27,0
1,note_on,68,27,0
1,note_on,77,44,360
1,note_on,65,39,0
1,note_on,68,39,0
1,note_on,68,0,10
1,note_on,72,0,0
1,note_on,60,0,0
1,note_on,68,0,110
1,note_on,63,41,0
1,note_on,75,47,0
1,note_on,68,41,0
1,note_on,65,0,10
1,note_on,77,0,0
1,note_on,75,0,230
1,note_on,63,0,0
1,note_on,68,0,0
1,note_on,63,46,0
1,note_on,75,51,0
1,note_on,68,46,0
1,note_on,68,0,600
1,note_on,75,0,0
1,note_on,63,0,0
1,note_on,75,52,0
1,note_on,63,47,0
1,note_on,63,0,120
1,note_on,75,0,0
1,note_on,73,52,0
1,note_on,61,47,0
1,note_on,67,47,0
1,note_on,67,0,600
1,note_on,61,0,0
1,note_on,73,0,0
1,note_on,72,27,0
1,note_on,60,24,0
1,note_on,68,24,0
1,note_on,68,0,120
1,note_on,60,0,0
1,note_on,72,0,0
1,note_on,60,24,0
1,note_on,68,24,0
1,note_on,72,27,0
1,note_on,72,0,1440
1,note_on,68,0,0
1,note_on,60,0,0
1,note_on,58,39,0
1,note_on,70,44,0
1,note_on,67,39,0
1,note_on,71,44,360
1,note_on,59,39,0
1,note_on,68,39,0
1,note_on,67,0,10
1,note_on,58,0,0
1,note_on,70,0,0
1,note_on,67,39,110
1,note_on,58,39,0
1,note_on,70,44,0
1,note_on,71,0,10
1,note_on,68,0,0
1,note_on,59,0,0
1,note_on,67,0,230
1,note_on,58,0,0
1,note_on,70,0,0
1,note_on,67,39,0
1,note_on,70,44,0
1,note_on,58,39,0
1,note_on,68,39,360
1,note_on,59,39,0
1,note_on,71,44,0
1,note_on,58,0,10
1,note_on,67,0,0
1,note_on,70,0,0
1,note_on,70,44,110
1,note_on,58,39,0
1,note_on,67,39,0
1,note_on,68,0,10
1,note_on,71,0,0
1,note_on,59,0,0
1,note_on,70,0,230
1,note_on,58,0,0
1,note_on,67,0,0
1,note_on,65,61,0
1,note_on,68,61,0
1,note_on,71,68,0
1,note_on,71,0,720
1,note_on,68,0,0
1,note_on,65,0,0
1,note_on,77,67,0
1,note_on,68,60,0
1,note_on,71,60,0
1,note_on,71,0,480
1,note_on,68,0,0
1,note_on,77,0,120
1,note_on,75,42,0
1,note_on,75,0,120
1,note_on,75,42,0
1,note_on,68,38,0
1,note_on,71,38,0
1,note_on,71,0,720
1,note_on,68,0,0
1,note_on,67,25,0
1,note_on,70,28,0
1,note_on,70,0,240
1,note_on,67,0,0
1,note_on,75,0,0
1,note_on,60,30,480
1,note_on,66,30,0
1,note_on,75,35,0
1,note_on,69,30,0
1,note_on,77,35,360
1,note_on,75,0,10
1,note_on,69,0,110
1,note_on,60,0,0
1,note_on,66,0,0
1,note_on,75,35,0
1,note_on,69,30,0
1,note_on,60,30,0
1,note_on,66,30,0
1,note_on,77,0,10
1,note_on,60,0,230
1,note_on,75,0,0
1,note_on,69,0,0
1,note_on,66,0,0
1,note_on,68,30,0
1,note_on,66,30,0
1,note_on,75,35,0
1,note_on,61,30,0
1,note_on,75,0,480
1,note_on,68,0,0
1,note_on,72,35,0
1,note_on,72,0,240
1,note_on,66,0,0
1,note_on,73,35,0
1,note_on,65,30,0
1,note_on,68,30,0
1,note_on,68,0,240
1,note_on,61,0,0
1,note_on,73,0,0
1,note_on,65,0,0
1,note_on,68,56,480
1,note_on,73,62,0
1,note_on,65,56,0
1,note_on,75,62,360
1,note_on,73,0,10
1,note_on,68,0,110
1,note_on,65,0,0
1,note_on,65,56,0
1,note_on,68,56,0
1,note_on,73,62,0
1,note_on,75,0,10
1,note_on,65,0,230
1,note_on,68,0,0
1,note_on,73,0,0
1,note_on,75,62,0
1,note_on,66,56,0
1,note_on,73,63,360
1,note_on,75,0,10
1,note_on,73,0,110
1,note_on,66,0,0
1,note_on,66,57,0
1,note_on,73,63,0
1,note_on,73,0,60
1,note_on,73,71,60
1,note_on,73,0,120
1,note_on,66,0,0
1,note_on,78,77,0
1,note_on,66,67,0
1,note_on,73,67,0
1,note_on,78,0,480
1,note_on,77,62,0
1,note_on,77,0,120
1,note_on,77,50,0
1,note_on,77,0,120
1,note_on,73,0,0
1,note_on,66,0,0
1,note_on,72,45,0
1,note_on,66,45,0
1,note_on,75,51,0
1,note_on,75,0,600
1,note_on,66,0,0
1,note_on,72,0,0
1,note_on,65,39,0
1,note_on,73,42,0
1,note_on,73,0,120
1,note_on,65,0,0
1,note_on,65,39,0
1,note_on,73,42,0
1,note_on,73,0,2160
1,note_on,65,0,0
1,note_on,73,36,0
1,note_on,73,0,720
1,note_on,73,35,0
1,note_on,73,0,720
1,note_on,73,34,0
1,note_on,73,0,720
1,note_on,74,46,0
1,note_on,74,0,2160
1,note_on,76,41,0
1,note_on,76,0,480
1,note_on,74,40,0
1,note_on,74,0,240
1,note_on,74,44,0
1,note_on,74,0,480
1,note_on,73,39,0
1,note_on,73,0,240
1,note_on,73,41,0
1,note_on,73,0,480
1,note_on,71,39,0
1,note_on,71,0,240
1,note_on,73,42,0
1,note_on,73,0,1440
1,note_on,73,36,0
1,note_on,73,0,480
1,note_on,69,44,0
1,note_on,69,0,240
1,note_on,68,52,0
1,note_on,68,0,1440
1,note_on,78,61,0
1,note_on,78,0,480
1,note_on,69,52,0
1,note_on,69,0,240
1,note_on,68,42,0
1,note_on,68,0,960
1,note_on,71,35,0
1,note_on,71,0,240
1,note_on,69,34,0
1,note_on,69,0,240
1,note_on,68,28,0
1,note_on,68,0,240
1,note_on,69,26,0
1,note_on,69,0,240
1,note_on,71,25,0
1,note_on,71,0,240
1,note_on,73,36,0
1,note_on,73,0,720
1,note_on,73,47,0
1,note_on,73,0,720
1,note_on,73,57,0
1,note_on,73,0,720
1,note_on,74,66,0
1,note_on,74,53,2040
1,note_on,74,0,120
1,note_on,74,0,0
1,note_on,78,50,0
1,note_on,78,0,480
1,note_on,74,48,0
1,note_on,74,0,240
1,note_on,74,48,0
1,note_on,74,0,480
1,note_on,73,44,0
1,note_on,73,0,240
1,note_on,73,44,0
1,note_on,73,0,480
1,note_on,71,38,0
1,note_on,71,0,240
1,note_on,73,44,0
1,note_on,73,0,1440
1,note_on,73,52,0
1,note_on,73,0,480
1,note_on,69,52,0
1,note_on,69,0,240
1,note_on,68,52,0
1,note_on,68,0,1440
1,note_on,71,47,0
1,note_on,71,0,240
1,note_on,69,44,0
1,note_on,69,0,240
1,note_on,68,36,0
1,note_on,68,0,240
1,note_on,73,45,0
1,note_on,73,0,1320
1,note_on,73,52,0
1,note_on,73,0,120
1,note_on,78,70,0
1,note_on,78,0,480
1,note_on,69,60,0
1,note_on,69,0,240
1,note_on,68,60,0
1,note_on,68,0,960
1,note_on,69,52,0
1,note_on,69,0,240
1,note_on,68,52,0
1,note_on,68,0,240
1,note_on,71,52,0
1,note_on,71,0,240
1,note_on,69,49,0
1,note_on,69,0,240
1,note_on,68,48,0
1,note_on,68,0,240
1,note_on,66,51,0
1,note_on,66,0,1440
1,note_on,73,52,720
1,note_on,73,0,720
1,note_on,73,52,0
1,note_on,73,0,720
1,note_on,73,52,0
1,note_on,73,0,720
1,note_on,73,46,0
1,note_on,73,0,720
1,note_on,73,44,0
1,note_on,73,0,720
1,note_on,73,44,0
1,note_on,73,0,600
1,note_on,73,35,0
1,note_on,73,0,120
1,note_on,76,60,0
1,note_on,76,0,480
1,note_on,75,52,0
1,note_on,75,0,240
1,note_on,75,51,0
1,note_on,75,0,240
1,note_on,75,50,0
1,note_on,75,0,240
1,note_on,75,49,0
1,note_on,75,0,240
1,note_on,75,48,0
1,note_on,75,0,240
1,note_on,75,48,0
1,note_on,75,0,240
1,note_on,75,47,0
1,note_on,75,0,240
1,note_on,75,46,0
1,note_on,75,0,1440
1,note_on,72,43,0
1,note_on,60,37,0
1,note_on,68,37,0
1,note_on,73,43,360
1,note_on,61,37,0
1,note_on,67,37,0
1,note_on,68,0,10
1,note_on,72,0,0
1,note_on,60,0,0
1,note_on,72,43,110
1,note_on,60,37,0
1,note_on,68,37,0
1,note_on,73,0,10
1,note_on,67,0,0
1,note_on,61,0,0
1,note_on,72,0,230
1,note_on,60,0,0
1,note_on,68,0,0
1,note_on,61,30,0
1,note_on,67,30,0
1,note_on,73,34,0
1,note_on,73,0,1440
1,note_on,67,0,0
1,note_on,61,0,0
1,note_on,60,37,0
1,note_on,72,43,0
1,note_on,68,37,0
1,note_on,67,37,360
1,note_on,61,37,0
1,note_on,73,43,0
1,note_on,68,0,10
1,note_on,60,0,0
1,note_on,72,0,0
1,note_on,68,37,110
1,note_on,60,37,0
1,note_on,72,43,0
1,note_on,67,0,10
1,note_on,73,0,0
1,note_on,61,0,0
1,note_on,68,0,230
1,note_on,60,0,0
1,note_on,72,0,0
1,note_on,67,31,0
1,note_on,70,35,0
1,note_on,58,31,0
1,note_on,58,0,1440
1,note_on,70,0,0
1,note_on,67,0,0
1,note_on,72,46,0
1,note_on,60,42,0
1,note_on,68,42,0
1,note_on,73,46,360
1,note_on,61,42,0
1,note_on,67,42,0
1,note_on,68,0,10
1,note_on,72,0,0
1,note_on,60,0,0
1,note_on,60,42,110
1,note_on,68,42,0
1,note_on,72,46,0
1,note_on,73,0,10
1,note_on,67,0,0
1,note_on,61,0,0
1,note_on,60,0,230
1,note_on,68,0,0
1,note_on,72,0,0
1,note_on,60,36,0
1,note_on,72,42,0
1,note_on,68,36,0
1,note_on,68,0,360
1,note_on,68,49,0
1,note_on,65,49,0
1,note_on,77,56,0
1,note_on,72,0,10
1,note_on,60,0,0
1,note_on,75,59,110
1,note_on,63,51,0
1,note_on,68,51,0
1,note_on,65,0,10
1,note_on,77,0,0
1,note_on,68,0,0
1,note_on,75,0,230
1,note_on,63,0,0
1,note_on,68,0,0
1,note_on,68,58,0
1,note_on,75,64,0
1,note_on,63,58,0
1,note_on,63,0,600
1,note_on,75,0,0
1,note_on,68,0,0
1,note_on,63,37,0
1,note_on,75,37,0
1,note_on,75,0,120
1,note_on,63,0,0
1,note_on,67,37,0
1,note_on,73,43,0
1,note_on,61,37,0
1,note_on,61,0,600
1,note_on,73,0,0
1,note_on,67,0,0
1,note_on,68,27,0
1,note_on,60,27,0
1,note_on,72,31,0
1,note_on,72,0,120
1,note_on,60,0,0
1,note_on,68,0,0
1,note_on,68,27,0
1,note_on,60,27,0
1,note_on,72,31,0
1,note_on,72,0,1440
1,note_on,60,0,0
1,note_on,68,0,0
1,note_on,67,39,0
1,note_on,70,44,0
1,note_on,58,39,0
1,note_on,68,39,360
1,note_on,59,39,0
1,note_on,71,44,0
1,note_on,58,0,10
1,note_on,67,0,0
1,note_on,70,0,0
1,note_on,70,44,110
1,note_on,58,39,0
1,note_on,67,39,0
1,note_on,68,0,10
1,note_on,71,0,0
1,note_on,59,0,0
1,note_on,70,0,230
1,note_on,58,0,0
1,note_on,67,0,0
1,note_on,58,39,0
1,note_on,67,39,0
1,note_on,70,44,0
1,note_on,59,39,360
1,note_on,68,39,0
1,note_on,71,44,0
1,note_on,70,0,10
1,note_on,58,0,0
1,note_on,67,0,0
1,note_on,67,39,110
1,note_on,58,39,0
1,note_on,70,44,0
1,note_on,59,0,10
1,note_on,71,0,0
1,note_on,68,0,0
1,note_on,67,0,230
1,note_on,58,0,0
1,note_on,70,0,0
1,note_on,68,62,0
1,note_on,71,69,0
1,note_on,65,62,0
1,note_on,65,0,1440
1,note_on,63,30,0
1,note_on,71,0,720
1,note_on,68,0,0
1,note_on,70,24,0
1,note_on,67,24,0
1,note_on,67,0,240
1,note_on,70,0,0
1,note_on,63,0,0
1,note_on,66,47,480
1,note_on,71,52,0
1,note_on,63,47,0
1,note_on,73,53,360
1,note_on,71,0,10
1,note_on,66,0,110
1,note_on,63,0,0
1,note_on,73,0,0
1,note_on,63,48,0
1,note_on,66,48,0
1,note_on,71,53,0
1,note_on,71,0,240
1,note_on,66,0,0
1,note_on,63,0,0
1,note_on,65,48,0
1,note_on,73,58,0
1,note_on,71,48,0
1,note_on,73,0,480
1,note_on,74,61,0
1,note_on,74,0,240
1,note_on,71,0,0
1,note_on,65,0,0
1,note_on,71,49,0
1,note_on,75,55,0
1,note_on,66,49,0
1,note_on,66,0,240
1,note_on,75,0,0
1,note_on,71,0,0
1,note_on,76,66,0
1,note_on,64,59,0
1,note_on,71,59,0
1,note_on,71,0,240
1,note_on,64,0,0
1,note_on,76,0,0
1,note_on,78,70,0
1,note_on,66,63,0
1,note_on,71,63,0
1,note_on,71,0,240
1,note_on,66,0,0
1,note_on,78,0,0
1,note_on,80,77,0
1,note_on,68,61,0
1,note_on,71,68,0
1,note_on,80,0,240
1,note_on,76,66,0
1,note_on,76,0,240
1,note_on,71,0,0
1,note_on,68,0,0
1,note_on,68,51,0
1,note_on,75,59,0
1,note_on,65,51,0
1,note_on,65,0,240
1,note_on,75,0,0
1,note_on,68,0,0
1,note_on,66,47,0
1,note_on,71,47,0
1,note_on,75,52,0
1,note_on,75,0,720
1,note_on,71,0,0
1,note_on,70,30,0
1,note_on,73,35,0
1,note_on,73,0,240
1,note_on,70,0,0
1,note_on,66,0,0
1,note_on,71,29,480
1,note_on,80,34,0
1,note_on,68,29,0
1,note_on,80,0,240
1,note_on,76,35,0
1,note_on,76,0,240
1,note_on,68,0,0
1,note_on,71,0,0
1,note_on,68,30,0
1,note_on,65,30,0
1,note_on,75,35,0
1,note_on,75,0,240
1,note_on,65,0,0
1,note_on,68,0,0
1,note_on,71,31,0
1,note_on,75,36,0
1,note_on,66,31,0
1,note_on,75,0,720
1,note_on,71,0,0
1,note_on,70,26,0
1,note_on,73,29,0
1,note_on,73,0,240
1,note_on,70,0,0
1,note_on,66,0,0
1,note_on,73,53,480
1,note_on,63,48,0
1,note_on,75,52,360
1,note_on,73,0,10
1,note_on,75,0,110
1,note_on,70,52,0
1,note_on,70,0,240
1,note_on,63,0,0
1,note_on,73,52,0
1,note_on,63,47,0
1,note_on,73,0,720
1,note_on,72,55,0
1,note_on,72,0,480
1,note_on,73,69,0
1,note_on,73,0,240
1,note_on,63,0,0
1,note_on,75,75,0
1,note_on,63,66,0
1,note_on,63,0,240
1,note_on,75,0,0
1,note_on,73,63,0
1,note_on,67,57,0
1,note_on,67,0,240
1,note_on,73,0,0
1,note_on,68,50,0
1,note_on,72,57,0
1,note_on,72,0,240
1,note_on,68,0,0
1,note_on,65,47,0
1,note_on,72,52,0
1,note_on,72,0,240
1,note_on,70,52,0
1,note_on,70,0,240
1,note_on,65,0,0
1,note_on,73,52,0
1,note_on,64,47,0
1,note_on,64,0,240
1,note_on,73,0,0
1,note_on,68,45,0
1,note_on,63,39,0
1,note_on,63,0,600
1,note_on,68,0,0
1,note_on,61,35,0
1,note_on,67,39,0
1,note_on,67,0,120
1,note_on,61,0,0
1,note_on,67,39,0
1,note_on,61,35,0
1,note_on,61,0,600
1,note_on,67,0,0
1,note_on,60,33,0
1,note_on,68,37,0
1,note_on,68,0,120
1,note_on,60,0,0
1,note_on,68,37,0
1,note_on,60,33,0
1,note_on,60,0,720
1,note_on,68,0,0
1,note_on,72,35,600
1,note_on,60,30,0
1,note_on,68,30,0
1,note_on,68,0,120
1,note_on,60,0,0
1,note_on,72,0,0
1,note_on,60,30,0
1,note_on,68,30,0
1,note_on,72,35,0
1,note_on,61,30,360
1,note_on,73,35,0
1,note_on,67,30,0
1,note_on,72,0,10
1,note_on,60,0,0
1,note_on,68,0,0
1,note_on,68,30,110
1,note_on,60,30,0
1,note_on,72,35,0
1,note_on,61,0,10
1,note_on,67,0,0
1,note_on,73,0,0
1,note_on,68,0,230
1,note_on,60,0,0
1,note_on,72,0,0
1,note_on,67,27,0
1,note_on,61,27,0
1,note_on,73,30,0
1,note_on,73,0,1320
1,note_on,61,0,0
1,note_on,67,0,0
1,note_on,67,30,0
1,note_on,70,35,0
1,note_on,58,30,0
1,note_on,58,0,120
1,note_on,70,0,0
1,note_on,67,0,0
1,note_on,70,35,0
1,note_on,58,30,0
1,note_on,67,30,0
1,note_on,72,35,360
1,note_on,60,30,0
1,note_on,68,30,0
1,note_on,67,0,10
1,note_on,70,0,0
1,note_on,58,0,0
1,note_on,58,30,110
1,note_on,67,30,0
1,note_on,70,35,0
1,note_on,72,0,10
1,note_on,68,0,0
1,note_on,60,0,0
1,note_on,58,0,230
1,note_on,67,0,0
1,note_on,70,0,0
1,note_on,60,27,0
1,note_on,72,30,0
1,note_on,68,27,0
1,note_on,68,0,1320
1,note_on,72,0,0
1,note_on,60,0,0
1,note_on,63,35,0
1,note_on,63,0,120
1,note_on,63,35,0
1,note_on,65,42,360
1,note_on,63,0,10
1,note_on,63,44,110
1,note_on,65,0,10
1,note_on,63,0,230
1,note_on,65,45,0
1,note_on,63,44,360
1,note_on,65,0,10
1,note_on,63,0,110
1,note_on,63,44,0
1,note_on,63,0,240
1,note_on,68,44,0
1,note_on,60,39,0
1,note_on,60,0,720
1,note_on,68,0,0
1,note_on,70,44,0
1,note_on,61,39,0
1,note_on,67,39,0
1,note_on,67,0,600
1,note_on,61,0,0
1,note_on,70,0,0
1,note_on,68,35,0
1,note_on,60,30,0
1,note_on,60,0,120
1,note_on,68,0,0
1,note_on,68,35,0
1,note_on,60,30,0
1,note_on,75,29,600
1,note_on,75,0,120
1,note_on,60,0,0
1,note_on,68,0,0
1,note_on,75,29,0
1,note_on,63,30,600
1,note_on,68,35,0
1,note_on,68,0,120
1,note_on,63,0,0
1,note_on,68,35,0
1,note_on,63,30,0
1,note_on,65,30,360
1,note_on,70,35,0
1,note_on,63,0,10
1,note_on,68,0,0
1,note_on,63,30,110
1,note_on,68,35,0
1,note_on,70,0,10
1,note_on,65,0,0
1,note_on,68,0,230
1,note_on,63,0,0
1,note_on,70,30,0
1,note_on,65,27,0
1,note_on,75,0,600
1,note_on,75,27,0
1,note_on,75,0,120
1,note_on,75,27,0
1,note_on,65,0,600
1,note_on,70,0,0
1,note_on,67,35,0
1,note_on,61,30,0
1,note_on,61,0,120
1,note_on,67,0,0
1,note_on,61,30,0
1,note_on,67,35,0
1,note_on,68,35,360
1,note_on,63,30,0
1,note_on,67,0,10
1,note_on,61,0,0
1,note_on,70,35,110
1,note_on,65,30,0
1,note_on,63,0,10
1,note_on,68,0,0
1,note_on,65,0,230
1,note_on,70,0,0
1,note_on,68,30,0
1,note_on,63,27,0
1,note_on,75,0,600
1,note_on,75,39,0
1,note_on,75,0,120
1,note_on,75,39,0
1,note_on,63,0,600
1,note_on,68,0,0
1,note_on,63,35,0
1,note_on,63,0,120
1,note_on,63,35,0
1,note_on,65,42,360
1,note_on,63,0,10
1,note_on,63,44,110
1,note_on,65,0,10
1,note_on,63,0,230
1,note_on,65,39,0
1,note_on,68,45,0
1,note_on,63,44,360
1,note_on,68,0,10
1,note_on,65,0,0
1,note_on,63,0,110
1,note_on,63,44,0
1,note_on,63,0,240
1,note_on,75,0,0
1,note_on,72,44,0
1,note_on,75,51,0
1,note_on,75,0,720
1,note_on,72,0,0
1,note_on,70,45,0
1,note_on,79,51,0
1,note_on,75,45,0
1,note_on,75,0,600
1,note_on,79,0,0
1,note_on,70,0,0
1,note_on,80,49,0
1,note_on,68,45,0
1,note_on,75,45,0
1,note_on,75,0,120
1,note_on,68,0,0
1,note_on,80,0,0
1,note_on,75,45,0
1,note_on,68,45,0
1,note_on,80,50,0
1,note_on,80,0,2040
1,note_on,68,0,0
1,note_on,75,0,0
1,note_on,78,70,0
1,note_on,81,88,0
1,note_on,69,70,0
1,note_on,69,0,120
1,note_on,81,0,0
1,note_on,78,0,0
1,note_on,81,97,0
1,note_on,69,77,0
1,note_on,78,77,0
1,note_on,78,0,720
1,note_on,69,0,0
1,note_on,81,0,0
1,note_on,78,76,0
1,note_on,81,96,0
1,note_on,69,76,0
1,note_on,69,0,720
1,note_on,81,0,0
1,note_on,78,0,0
1,note_on,82,96,0
1,note_on,70,76,0
1,note_on,76,76,0
1,note_on,76,0,720
1,note_on,70,0,0
1,note_on,82,0,0
1,note_on,83,88,0
1,note_on,71,70,0
1,note_on,74,70,0
1,note_on,74,0,2040
1,note_on,71,0,0
1,note_on,83,0,0
1,note_on,74,70,0
1,note_on,83,88,0
1,note_on,71,70,0
1,note_on,71,0,120
1,note_on,83,0,0
1,note_on,74,0,0
1,note_on,73,76,0
1,note_on,85,96,0
1,note_on,76,76,0
1,note_on,76,0,600
1,note_on,85,0,0
1,note_on,73,0,0
1,note_on,74,70,0
1,note_on,71,70,0
1,note_on,83,88,0
1,note_on,83,0,120
1,note_on,71,0,0
1,note_on,74,0,0
1,note_on,74,76,0
1,note_on,71,76,0
1,note_on,83,96,0
1,note_on,83,0,600
1,note_on,71,0,0
1,note_on,74,0,0
1,note_on,73,70,0
1,note_on,81,88,0
1,note_on,69,70,0
1,note_on,69,0,120
1,note_on,81,0,0
1,note_on,73,0,0
1,note_on,81,96,0
1,note_on,69,76,0
1,note_on,73,76,0
1,note_on,73,0,600
1,note_on,69,0,0
1,note_on,81,0,0
1,note_on,80,79,0
1,note_on,68,63,0
1,note_on,71,63,0
1,note_on,71,0,120
1,note_on,68,0,0
1,note_on,80,0,0
1,note_on,69,66,0
1,note_on,73,66,0
1,note_on,81,83,0
1,note_on,81,0,1440
1,note_on,73,0,0
1,note_on,69,0,0
1,note_on,73,77,0
1,note_on,85,97,0
1,note_on,85,0,600
1,note_on,73,0,0
1,note_on,81,78,0
1,note_on,78,62,0
1,note_on,69,62,0
1,note_on,69,0,120
1,note_on,78,0,0
1,note_on,81,0,0
1,note_on,80,78,0
1,note_on,68,62,0
1,note_on,77,62,0
1,note_on,77,0,1440
1,note_on,68,0,0
1,note_on,80,0,0
1,note_on,90,99,0
1,note_on,78,79,0
1,note_on,81,79,0
1,note_on,81,0,600
1,note_on,78,0,0
1,note_on,90,0,0
1,note_on,69,56,0
1,note_on,81,70,0
1,note_on,78,56,0
1,note_on,78,0,120
1,note_on,81,0,0
1,note_on,69,0,0
1,note_on,68,56,0
1,note_on,80,70,0
1,note_on,77,56,0
1,note_on,77,0,960
1,note_on,80,0,0
1,note_on,68,0,0
1,note_on,71,70,0
1,note_on,71,0,240
1,note_on,69,63,0
1,note_on,69,0,240
1,note_on,68,58,0
1,note_on,68,0,240
1,note_on,69,55,0
1,note_on,69,0,240
1,note_on,71,53,0
1,note_on,71,0,240
1,note_on,73,51,0
1,note_on,73,0,720
1,note_on,73,51,0
1,note_on,73,0,720
1,note_on,73,52,0
1,note_on,73,0,720
1,note_on,74,60,0
1,note_on,74,41,2040
1,note_on,74,0,120
1,note_on,74,0,0
1,note_on,78,41,0
1,note_on,78,0,480
1,note_on,74,41,0
1,note_on,74,0,240
1,note_on,74,41,0
1,note_on,74,0,480
1,note_on,73,41,0
1,note_on,73,0,240
1,note_on,73,41,0
1,note_on,73,0,480
1,note_on,71,44,0
1,note_on,71,0,240
1,note_on,73,44,0
1,note_on,73,0,1440
1,note_on,73,52,0
1,note_on,73,0,480
1,note_on,69,52,0
1,note_on,69,0,240
1,note_on,68,52,0
1,note_on,68,0,1440
1,note_on,71,47,0
1,note_on,71,0,240
1,note_on,69,44,0
1,note_on,69,0,240
1,note_on,68,36,0
1,note_on,68,0,240
1,note_on,73,45,0
1,note_on,73,0,1320
1,note_on,73,52,0
1,note_on,73,0,120
1,note_on,78,70,0
1,note_on,78,0,480
1,note_on,70,62,0
1,note_on,70,0,240
1,note_on,68,62,0
1,note_on,68,0,960
1,note_on,70,61,0
1,note_on,70,0,240
1,note_on,68,61,0
1,note_on,68,0,240
1,note_on,71,60,0
1,note_on,71,0,240
1,note_on,70,57,0
1,note_on,70,0,240
1,note_on,68,57,0
1,note_on,68,0,240
1,note_on,66,62,0
1,note_on,66,0,1440
1,note_on,73,45,720
1,note_on,73,0,720
1,note_on,73,45,0
1,note_on,73,0,720
1,note_on,73,44,0
1,note_on,73,0,720
1,note_on,73,46,0
1,note_on,73,0,720
1,note_on,73,44,0
1,note_on,73,0,720
1,note_on,73,44,0
1,note_on,73,0,600
1,note_on,73,35,0
1,note_on,73,0,120
1,note_on,76,52,0
1,note_on,76,0,480
1,note_on,75,47,0
1,note_on,75,0,240
1,note_on,75,46,0
1,note_on,75,0,240
1,note_on,75,45,0
1,note_on,75,0,240
1,note_on,75,44,0
1,note_on,75,0,240
1,note_on,75,42,0
1,note_on,75,0,240
1,note_on,75,41,0
1,note_on,75,0,240
1,note_on,75,40,0
1,note_on,75,0,240
1,note_on,75,39,0
1,note_on,75,0,1440
1,note_on,72,30,0
1,note_on,68,27,0
1,note_on,60,27,0
1,note_on,67,27,360
1,note_on,73,30,0
1,note_on,61,27,0
1,note_on,60,0,10
1,note_on,72,0,0
1,note_on,68,0,0
1,note_on,72,30,110
1,note_on,60,27,0
1,note_on,68,27,0
1,note_on,67,0,10
1,note_on,61,0,0
1,note_on,73,0,0
1,note_on,72,0,230
1,note_on,60,0,0
1,note_on,68,0,0
1,note_on,73,22,0
1,note_on,61,19,0
1,note_on,67,19,0
1,note_on,67,0,1440
1,note_on,61,0,0
1,note_on,73,0,0
1,note_on,60,30,0
1,note_on,68,30,0
1,note_on,72,35,0
1,note_on,63,35,360
1,note_on,75,39,0
1,note_on,72,0,10
1,note_on,60,0,0
1,note_on,68,0,0
1,note_on,68,30,110
1,note_on,72,35,0
1,note_on,60,30,0
1,note_on,63,0,10
1,note_on,75,0,0
1,note_on,72,0,230
1,note_on,68,0,0
1,note_on,60,0,0
1,note_on,70,28,0
1,note_on,58,25,0
1,note_on,67,25,0
1,note_on,67,0,1440
1,note_on,58,0,0
1,note_on,70,0,0
1,note_on,72,34,0
1,note_on,60,29,0
1,note_on,68,29,0
1,note_on,61,29,360
1,note_on,67,29,0
1,note_on,73,34,0
1,note_on,68,0,10
1,note_on,72,0,0
1,note_on,60,0,0
1,note_on,60,29,110
1,note_on,72,34,0
1,note_on,68,29,0
1,note_on,61,0,10
1,note_on,73,0,0
1,note_on,67,0,0
1,note_on,60,0,230
1,note_on,72,0,0
1,note_on,68,0,0
1,note_on,68,27,0
1,note_on,60,27,0
1,note_on,72,30,0
1,note_on,68,42,360
1,note_on,65,42,0
1,note_on,77,48,0
1,note_on,72,0,10
1,note_on,68,0,0
1,note_on,60,0,0
1,note_on,75,51,110
1,note_on,68,45,0
1,note_on,63,45,0
1,note_on,68,0,10
1,note_on,77,0,0
1,note_on,65,0,0
1,note_on,75,0,230
1,note_on,68,0,0
1,note_on,63,0,0
1,note_on,75,56,0
1,note_on,63,50,0
1,note_on,68,50,0
1,note_on,68,0,600
1,note_on,63,0,0
1,note_on,75,0,0
1,note_on,75,52,0
1,note_on,63,47,0
1,note_on,63,0,120
1,note_on,75,0,0
1,note_on,67,47,0
1,note_on,61,47,0
1,note_on,73,52,0
1,note_on,73,0,600
1,note_on,61,0,0
1,note_on,67,0,0
1,note_on,68,24,0
1,note_on,60,24,0
1,note_on,72,27,0
1,note_on,72,0,120
1,note_on,60,0,0
1,note_on,68,0,0
1,note_on,68,24,0
1,note_on,72,27,0
1,note_on,60,24,0
1,note_on,60,0,1440
1,note_on,72,0,0
1,note_on,68,0,0
1,note_on,70,44,0
1,note_on,58,39,0
1,note_on,67,39,0
1,note_on,68,39,360
1,note_on,59,39,0
1,note_on,71,44,0
1,note_on,67,0,10
1,note_on,70,0,0
1,note_on,58,0,0
1,note_on,58,39,110
1,note_on,67,39,0
1,note_on,70,44,0
1,note_on,68,0,10
1,note_on,71,0,0
1,note_on,59,0,0
1,note_on,58,0,230
1,note_on,67,0,0
1,note_on,70,0,0
1,note_on,58,39,0
1,note_on,70,44,0
1,note_on,67,39,0
1,note_on,71,44,360
1,note_on,59,39,0
1,note_on,68,39,0
1,note_on,67,0,10
1,note_on,58,0,0
1,note_on,70,0,0
1,note_on,67,39,110
1,note_on,58,39,0
1,note_on,70,44,0
1,note_on,71,0,10
1,note_on,68,0,0
1,note_on,59,0,0
1,note_on,67,0,230
1,note_on,58,0,0
1,note_on,70,0,0
1,note_on,68,61,0
1,note_on,71,68,0
1,note_on,65,61,0
1,note_on,65,0,720
1,note_on,71,0,0
1,note_on,68,0,0
1,note_on,68,62,0
1,note_on,77,69,0
1,note_on,71,62,0
1,note_on,71,0,480
1,note_on,68,0,0
1,note_on,77,0,120
1,note_on,75,42,0
1,note_on,75,0,120
1,note_on,68,38,0
1,note_on,71,38,0
1,note_on,75,42,0
1,note_on,71,0,720
1,note_on,68,0,0
1,note_on,67,25,0
1,note_on,70,28,0
1,note_on,70,0,240
1,note_on,67,0,0
1,note_on,75,0,0
1,note_on,75,35,480
1,note_on,69,30,0
1,note_on,60,30,0
1,note_on,66,30,0
1,note_on,77,35,360
1,note_on,75,0,10
1,note_on,66,0,110
1,note_on,69,0,0
1,note_on,60,0,0
1,note_on,66,30,0
1,note_on,75,35,0
1,note_on,60,30,0
1,note_on,69,30,0
1,note_on,77,0,10
1,note_on,60,0,230
1,note_on,66,0,0
1,note_on,75,0,0
1,note_on,69,0,0
1,note_on,75,35,0
1,note_on,61,30,0
1,note_on,68,30,0
1,note_on,66,30,0
1,note_on,68,0,480
1,note_on,75,0,0
1,note_on,72,35,0
1,note_on,72,0,240
1,note_on,66,0,0
1,note_on,68,30,0
1,note_on,65,30,0
1,note_on,73,35,0
1,note_on,73,0,240
1,note_on,61,0,0
1,note_on,68,0,0
1,note_on,65,0,0
1,note_on,75,68,480
1,note_on,72,68,0
1,note_on,80,77,0
1,note_on,82,77,360
1,note_on,80,0,10
1,note_on,75,0,110
1,note_on,72,0,0
1,note_on,72,68,0
1,note_on,80,77,0
1,note_on,75,68,0
1,note_on,82,0,10
1,note_on,72,0,230
1,note_on,80,0,0
1,note_on,75,0,0
1,note_on,82,77,0
1,note_on,73,68,0
1,note_on,80,77,360
1,note_on,82,0,10
1,note_on,80,0,110
1,note_on,73,0,0
1,note_on,80,77,0
1,note_on,73,68,0
1,note_on,80,0,60
1,note_on,80,77,60
1,note_on,80,0,120
1,note_on,73,0,0
1,note_on,80,81,0
1,note_on,85,91,0
1,note_on,73,81,0
1,note_on,85,0,480
1,note_on,84,77,0
1,note_on,84,0,120
1,note_on,84,57,0
1,note_on,84,0,120
1,note_on,73,0,0
1,note_on,80,0,0
1,note_on,82,57,0
1,note_on,79,51,0
1,note_on,73,51,0
1,note_on,73,0,600
1,note_on,79,0,0
1,note_on,82,0,0
1,note_on,80,50,0
1,note_on,72,45,0
1,note_on,72,0,120
1,note_on,80,0,0
1,note_on,80,50,0
1,note_on,72,37,0
1,note_on,72,0,720
1,note_on,80,0,0
1,note_on,60,30,600
1,note_on,72,35,0
1,note_on,68,30,0
1,note_on,68,0,120
1,note_on,72,0,0
1,note_on,60,0,0
1,note_on,68,30,0
1,note_on,60,30,0
1,note_on,72,35,0
1,note_on,67,30,360
1,note_on,61,30,0
1,note_on,73,35,0
1,note_on,72,0,10
1,note_on,68,0,0
1,note_on,60,0,0
1,note_on,68,30,110
1,note_on,72,35,0
1,note_on,60,30,0
1,note_on,67,0,10
1,note_on,73,0,0
1,note_on,61,0,0
1,note_on,68,0,230
1,note_on,72,0,0
1,note_on,60,0,0
1,note_on,73,30,0
1,note_on,61,27,0
1,note_on,67,27,0
1,note_on,67,0,1320
1,note_on,61,0,0
1,note_on,73,0,0
1,note_on,70,35,0
1,note_on,58,30,0
1,note_on,67,30,0
1,note_on,67,0,120
1,note_on,58,0,0
1,note_on,70,0,0
1,note_on,58,30,0
1,note_on,67,30,0
1,note_on,70,35,0
1,note_on,60,30,360
1,note_on,72,35,0
1,note_on,68,30,0
1,note_on,70,0,10
1,note_on,58,0,0
1,note_on,67,0,0
1,note_on,67,30,110
1,note_on,58,30,0
1,note_on,70,35,0
1,note_on,60,0,10
1,note_on,68,0,0
1,note_on,72,0,0
1,note_on,67,0,230
1,note_on,58,0,0
1,note_on,70,0,0
1,note_on,68,27,0
1,note_on,60,27,0
1,note_on,72,30,0
1,note_on,72,0,1320
1,note_on,60,0,0
1,note_on,68,0,0
1,note_on,63,35,0
1,note_on,63,0,120
1,note_on,63,35,0
1,note_on,65,42,360
1,note_on,63,0,10
1,note_on,63,44,110
1,note_on,65,0,10
1,note_on,63,0,230
1,note_on,65,45,0
1,note_on,63,44,360
1,note_on,65,0,10
1,note_on,63,0,110
1,note_on,63,44,0
1,note_on,63,0,240
1,note_on,68,44,0
1,note_on,60,39,0
1,note_on,60,0,720
1,note_on,68,0,0
1,note_on,61,39,0
1,note_on,67,39,0
1,note_on,70,44,0
1,note_on,70,0,600
1,note_on,67,0,0
1,note_on,61,0,0
1,note_on,60,30,0
1,note_on,68,35,0
1,note_on,68,0,120
1,note_on,60,0,0
1,note_on,68,35,0
1,note_on,60,30,0
1,note_on,75,29,600
1,note_on,75,0,120
1,note_on,60,0,0
1,note_on,68,0,0
1,note_on,75,29,0
1,note_on,63,30,600
1,note_on,68,35,0
1,note_on,68,0,120
1,note_on,63,0,0
1,note_on,68,35,0
1,note_on,63,30,0
1,note_on,70,35,360
1,note_on,65,30,0
1,note_on,63,0,10
1,note_on,68,0,0
1,note_on,63,30,110
1,note_on,68,35,0
1,note_on,65,0,10
1,note_on,70,0,0
1,note_on,68,0,230
1,note_on,63,0,0
1,note_on,65,27,0
1,note_on,70,30,0
1,note_on,75,0,600
1,note_on,75,27,0
1,note_on,75,0,120
1,note_on,75,27,0
1,note_on,70,0,600
1,note_on,65,0,0
1,note_on,61,30,0
1,note_on,67,35,0
1,note_on,67,0,120
1,note_on,61,0,0
1,note_on,67,35,0
1,note_on,61,30,0
1,note_on,63,30,360
1,note_on,68,35,0
1,note_on,61,0,10
1,note_on,67,0,0
1,note_on,70,35,110
1,note_on,65,30,0
1,note_on,68,0,10
1,note_on,63,0,0
1,note_on,65,0,230
1,note_on,70,0,0
1,note_on,68,30,0
1,note_on,63,27,0
1,note_on,75,0,600
1,note_on,75,27,0
1,note_on,75,0,120
1,note_on,75,27,0
1,note_on,63,0,600
1,note_on,68,0,0
1,note_on,63,35,0
1,note_on,63,0,120
1,note_on,63,35,0
1,note_on,65,42,360
1,note_on,63,0,10
1,note_on,63,44,110
1,note_on,65,0,10
1,note_on,63,0,230
1,note_on,68,45,0
1,note_on,65,39,0
1,note_on,63,44,360
1,note_on,65,0,10
1,note_on,68,0,0
1,note_on,63,0,110
1,note_on,63,44,0
1,note_on,63,0,240
1,note_on,75,0,0
1,note_on,72,59,0
1,note_on,75,67,0
1,note_on,75,0,720
1,note_on,72,0,0
1,note_on,75,63,0
1,note_on,70,63,0
1,note_on,79,71,0
1,note_on,79,0,600
1,note_on,70,0,0
1,note_on,75,0,0
1,note_on,80,77,0
1,note_on,75,68,0
1,note_on,68,68,0
1,note_on,68,0,120
1,note_on,75,0,0
1,note_on,80,0,0
1,note_on,80,77,0
1,note_on,68,68,0
1,note_on,75,68,0
1,note_on,75,0,2160
1,note_on,68,0,0
1,note_on,80,0,0
2,note_on,44,33,28
2,note_on,51,39,0
2,note_on,51,0,360
2,note_on,46,33,0
2,note_on,51,39,0
2,note_on,44,0,10
2,note_on,51,0,110
2,note_on,44,33,0
2,note_on,51,39,0
2,note_on,46,0,10
2,note_on,51,0,230
2,note_on,44,0,0
2,note_on,51,33,0
2,note_on,46,27,0
2,note_on,46,0,1440
2,note_on,51,0,0
2,note_on,44,33,0
2,note_on,51,39,0
2,note_on,51,0,360
2,note_on,51,39,0
2,note_on,46,33,0
2,note_on,44,0,10
2,note_on,51,0,110
2,note_on,44,33,0
2,note_on,51,39,0
2,note_on,46,0,10
2,note_on,51,0,230
2,note_on,44,0,0
2,note_on,51,33,0
2,note_on,39,27,0
2,note_on,39,0,1440
2,note_on,51,0,0
2,note_on,44,33,0
2,note_on,51,39,0
2,note_on,51,0,360
2,note_on,46,33,0
2,note_on,51,39,0
2,note_on,44,0,10
2,note_on,51,0,110
2,note_on,51,39,0
2,note_on,44,33,0
2,note_on,46,0,10
2,note_on,44,0,230
2,note_on,51,0,0
2,note_on,44,29,0
2,note_on,51,35,0
2,note_on,51,0,360
2,note_on,51,40,0
2,note_on,46,34,0
2,note_on,44,0,10
2,note_on,51,0,110
2,note_on,44,36,0
2,note_on,51,44,0
2,note_on,46,0,10
2,note_on,51,0,230
2,note_on,44,0,0
2,note_on,51,49,0
2,note_on,48,41,0
2,note_on,48,0,720
2,note_on,51,0,0
2,note_on,46,27,0
2,note_on,51,33,0
2,note_on,51,0,600
2,note_on,46,0,0
2,note_on,44,25,0
2,note_on,51,29,0
2,note_on,51,0,120
2,note_on,44,0,0
2,note_on,51,29,0
2,note_on,44,25,0
2,note_on,44,0,1440
2,note_on,51,0,0
2,note_on,39,27,0
2,note_on,51,32,0
2,note_on,51,0,360
2,note_on,51,33,0
2,note_on,44,27,0
2,note_on,39,0,10
2,note_on,51,0,110
2,note_on,39,27,0
2,note_on,51,33,0
2,note_on,44,0,10
2,note_on,51,0,230
2,note_on,39,0,0
2,note_on,51,33,0
2,note_on,39,27,0
2,note_on,51,0,360
2,note_on,44,27,0
2,note_on,51,32,0
2,note_on,39,0,10
2,note_on,51,0,110
2,note_on,39,27,0
2,note_on,51,32,0
2,note_on,44,0,10
2,note_on,51,0,230
2,note_on,39,0,0
2,note_on,50,51,0
2,note_on,38,44,0
2,note_on,38,0,1440
2,note_on,50,0,0
2,note_on,39,21,0
2,note_on,51,26,0
2,note_on,51,0,960
2,note_on,39,0,0
2,note_on,51,39,480
2,note_on,39,33,0
2,note_on,51,0,360
2,note_on,44,33,0
2,note_on,51,39,0
2,note_on,39,0,10
2,note_on,51,0,110
2,note_on,51,39,0
2,note_on,39,33,0
2,note_on,44,0,10
2,note_on,39,0,230
2,note_on,51,0,0
2,note_on,39,33,0
2,note_on,51,39,0
2,note_on,51,0,240
2,note_on,39,0,0
2,note_on,51,46,0
2,note_on,42,38,0
2,note_on,42,0,240
2,note_on,51,0,0
2,note_on,47,48,0
2,note_on,51,57,0
2,note_on,51,0,240
2,note_on,47,0,0
2,note_on,51,63,0
2,note_on,46,54,0
2,note_on,46,0,720
2,note_on,51,0,0
2,note_on,46,31,0
2,note_on,56,37,0
2,note_on,56,0,600
2,note_on,46,0,0
2,note_on,51,21,0
2,note_on,55,26,0
2,note_on,55,0,120
2,note_on,51,0,0
2,note_on,55,26,0
2,note_on,51,21,0
2,note_on,51,0,1440
2,note_on,55,0,0
2,note_on,44,24,0
2,note_on,51,29,0
2,note_on,51,0,360
2,note_on,51,29,0
2,note_on,46,24,0
2,note_on,44,0,10
2,note_on,51,0,110
2,note_on,44,23,0
2,note_on,51,28,0
2,note_on,46,0,10
2,note_on,51,0,230
2,note_on,44,0,0
2,note_on,51,23,0
2,note_on,46,19,0
2,note_on,46,0,1440
2,note_on,51,0,0
2,note_on,44,24,0
2,note_on,51,29,0
2,note_on,51,0,360
2,note_on,48,24,0
2,note_on,51,29,0
2,note_on,44,0,10
2,note_on,51,0,110
2,note_on,51,29,0
2,note_on,44,24,0
2,note_on,48,0,10
2,note_on,44,0,230
2,note_on,51,0,0
2,note_on,39,19,0
2,note_on,51,23,0
2,note_on,51,0,1440
2,note_on,39,0,0
2,note_on,51,28,0
2,note_on,44,23,0
2,note_on,51,0,360
2,note_on,46,24,0
2,note_on,51,29,0
2,note_on,44,0,10
2,note_on,51,0,110
2,note_on,51,29,0
2,note_on,44,24,0
2,note_on,46,0,10
2,note_on,44,0,230
2,note_on,51,0,0
2,note_on,44,21,0
2,note_on,51,25,0
2,note_on,51,0,360
2,note_on,49,28,0
2,note_on,51,33,0
2,note_on,44,0,10
2,note_on,51,0,110
2,note_on,51,37,0
2,note_on,48,31,0
2,note_on,49,0,10
2,note_on,48,0,230
2,note_on,51,0,0
2,note_on,48,35,0
2,note_on,51,42,0
2,note_on,51,0,720
2,note_on,48,0,0
2,note_on,51,44,0
2,note_on,46,37,0
2,note_on,46,0,600
2,note_on,51,0,0
2,note_on,44,19,0
2,note_on,51,23,0
2,note_on,51,0,120
2,note_on,44,0,0
2,note_on,51,22,0
2,note_on,44,18,0
2,note_on,44,0,1440
2,note_on,51,0,0
2,note_on,39,30,0
2,note_on,51,36,0
2,note_on,51,0,360
2,note_on,44,31,0
2,note_on,51,37,0
2,note_on,39,0,10
2,note_on,51,0,110
2,note_on,51,37,0
2,note_on,39,31,0
2,note_on,44,0,10
2,note_on,39,0,230
2,note_on,51,0,0
2,note_on,51,37,0
2,note_on,39,31,0
2,note_on,51,0,360
2,note_on,44,30,0
2,note_on,51,36,0
2,note_on,39,0,10
2,note_on,51,0,110
2,note_on,39,30,0
2,note_on,51,36,0
2,note_on,44,0,10
2,note_on,51,0,230
2,note_on,39,0,0
2,note_on,50,56,0
2,note_on,38,47,0
2,note_on,38,0,1440
2,note_on,50,0,0
2,note_on,39,30,0
2,note_on,51,36,0
2,note_on,51,0,960
2,note_on,39,0,0
2,note_on,47,50,2640
2,note_on,35,42,0
2,note_on,35,0,480
2,note_on,47,0,0
2,note_on,35,42,0
2,note_on,47,50,0
2,note_on,47,0,240
2,note_on,35,0,0
2,note_on,46,48,0
2,note_on,34,40,0
2,note_on,34,0,480
2,note_on,46,0,0
2,note_on,33,51,0
2,note_on,45,61,0
2,note_on,45,0,240
2,note_on,33,0,0
2,note_on,32,60,0
2,note_on,44,72,0
2,note_on,44,0,720
2,note_on,32,0,0
2,note_on,44,35,0
2,note_on,56,42,0
2,note_on,56,0,600
2,note_on,44,0,0
2,note_on,49,30,0
2,note_on,56,36,0
2,note_on,56,0,120
2,note_on,49,0,0
2,note_on,56,36,0
2,note_on,49,30,0
2,note_on,49,0,2160
2,note_on,56,0,0
2,note_on,42,35,0
2,note_on,42,0,112
2,note_on,49,26,120
2,note_on,49,0,240
2,note_on,57,26,0
2,note_on,57,0,240
2,note_on,42,35,0
2,note_on,42,0,120
2,note_on,49,26,120
2,note_on,49,0,240
2,note_on,57,26,0
2,note_on,57,0,240
2,note_on,42,35,0
2,note_on,42,0,120
2,note_on,49,26,120
2,note_on,49,0,240
2,note_on,57,26,0
2,note_on,57,0,240
2,note_on,42,36,0
2,note_on,42,0,7
2,note_on,50,26,120
2,note_on,50,0,240
2,note_on,59,28,0
2,note_on,59,0,240
2,note_on,42,35,0
2,note_on,42,0,120
2,note_on,50,26,120
2,note_on,50,0,240
2,note_on,59,26,0
2,note_on,59,0,240
2,note_on,42,35,0
2,note_on,42,0,120
2,note_on,50,27,120
2,note_on,50,0,240
2,note_on,59,27,0
2,note_on,59,0,240
2,note_on,42,35,0
2,note_on,42,0,7
2,note_on,47,28,120
2,note_on,47,0,240
2,note_on,56,28,0
2,note_on,56,0,240
2,note_on,42,35,0
2,note_on,42,0,7
2,note_on,49,29,120
2,note_on,49,0,240
2,note_on,57,29,0
2,note_on,57,0,240
2,note_on,42,35,0
2,note_on,42,0,21
2,note_on,50,27,120
2,note_on,50,0,240
2,note_on,59,27,0
2,note_on,59,0,240
2,note_on,42,35,0
2,note_on,42,0,14
2,note_on,49,30,120
2,note_on,49,0,240
2,note_on,57,30,0
2,note_on,57,0,240
2,note_on,42,35,0
2,note_on,42,0,120
2,note_on,49,27,120
2,note_on,49,0,240
2,note_on,57,28,0
2,note_on,57,0,240
2,note_on,42,35,0
2,note_on,42,0,120
2,note_on,49,29,120
2,note_on,49,0,240
2,note_on,54,29,0
2,note_on,54,0,240
2,note_on,49,35,0
2,note_on,49,0,23
2,note_on,53,35,0
2,note_on,53,0,240
2,note_on,56,35,0
2,note_on,56,0,240
2,note_on,49,35,0
2,note_on,49,0,240
2,note_on,53,35,0
2,note_on,53,0,240
2,note_on,56,35,0
2,note_on,56,0,240
2,note_on,45,35,0
2,note_on,45,0,137
2,note_on,49,35,0
2,note_on,49,0,240
2,note_on,54,35,0
2,note_on,54,0,240
2,note_on,49,35,0
2,note_on,49,0,80
2,note_on,53,35,0
2,note_on,53,0,240
2,note_on,56,35,0
2,note_on,56,0,240
2,note_on,50,35,0
2,note_on,56,35,224
2,note_on,56,0,240
2,note_on,54,35,0
2,note_on,54,0,240
2,note_on,53,33,0
2,note_on,53,0,240
2,note_on,54,30,0
2,note_on,54,0,240
2,note_on,50,0,0
2,note_on,56,27,0
2,note_on,49,27,0
2,note_on,49,0,240
2,note_on,56,0,0
2,note_on,42,35,0
2,note_on,42,0,155
2,note_on,49,30,0
2,note_on,49,0,240
2,note_on,57,31,0
2,note_on,57,0,240
2,note_on,42,37,0
2,note_on,42,0,14
2,note_on,47,33,0
2,note_on,47,0,240
2,note_on,56,33,0
2,note_on,56,0,240
2,note_on,42,42,0
2,note_on,42,0,84
2,note_on,45,37,0
2,note_on,45,0,240
2,note_on,54,37,0
2,note_on,54,0,240
2,note_on,40,45,0
2,note_on,40,0,113
2,note_on,47,40,0
2,note_on,47,0,240
2,note_on,56,40,0
2,note_on,56,0,240
2,note_on,40,39,0
2,note_on,40,0,240
2,note_on,47,36,0
2,note_on,47,0,240
2,note_on,56,36,0
2,note_on,56,0,240
2,note_on,40,34,0
2,note_on,40,0,240
2,note_on,47,34,0
2,note_on,47,0,240
2,note_on,56,34,0
2,note_on,56,0,240
2,note_on,40,45,0
2,note_on,40,0,56
2,note_on,47,39,0
2,note_on,47,0,240
2,note_on,56,40,0
2,note_on,56,0,240
2,note_on,40,40,0
2,note_on,40,0,56
2,note_on,49,38,0
2,note_on,49,0,240
2,note_on,57,36,0
2,note_on,57,0,240
2,note_on,40,35,0
2,note_on,40,0,99
2,note_on,50,33,0
2,note_on,50,0,240
2,note_on,56,33,0
2,note_on,56,0,240
2,note_on,45,38,0
2,note_on,45,0,56
2,note_on,49,35,0
2,note_on,49,0,240
2,note_on,57,37,0
2,note_on,57,0,240
2,note_on,45,39,0
2,note_on,45,0,70
2,note_on,49,42,0
2,note_on,49,0,240
2,note_on,56,46,0
2,note_on,56,0,240
2,note_on,45,47,0
2,note_on,45,0,70
2,note_on,49,45,0
2,note_on,49,0,240
2,note_on,54,42,0
2,note_on,54,0,240
2,note_on,47,44,0
2,note_on,47,0,23
2,note_on,50,40,0
2,note_on,50,0,240
2,note_on,54,40,0
2,note_on,54,0,240
2,note_on,50,44,0
2,note_on,50,0,240
2,note_on,54,40,0
2,note_on,54,0,240
2,note_on,59,40,0
2,note_on,59,0,240
2,note_on,49,39,0
2,note_on,49,0,227
2,note_on,53,38,0
2,note_on,53,0,240
2,note_on,47,30,0
2,note_on,47,0,240
2,note_on,45,42,0
2,note_on,45,0,169
2,note_on,49,39,0
2,note_on,49,0,240
2,note_on,54,39,0
2,note_on,54,0,240
2,note_on,44,42,0
2,note_on,44,0,120
2,note_on,47,39,0
2,note_on,47,0,240
2,note_on,54,39,0
2,note_on,54,0,240
2,note_on,45,52,0
2,note_on,45,0,134
2,note_on,49,48,0
2,note_on,49,0,240
2,note_on,54,48,0
2,note_on,54,0,240
2,note_on,47,52,0
2,note_on,47,0,114
2,note_on,50,48,0
2,note_on,50,0,240
2,note_on,54,49,0
2,note_on,54,0,240
2,note_on,50,52,0
2,note_on,50,0,240
2,note_on,54,49,0
2,note_on,54,0,240
2,note_on,59,44,0
2,note_on,59,0,240
2,note_on,49,48,0
2,note_on,49,0,237
2,note_on,53,42,0
2,note_on,53,0,240
2,note_on,59,39,0
2,note_on,59,0,240
2,note_on,54,37,0
2,note_on,57,37,0
2,note_on,57,0,240
2,note_on,54,0,0
2,note_on,42,38,0
2,note_on,42,0,240
2,note_on,45,39,0
2,note_on,45,0,240
2,note_on,49,41,0
2,note_on,49,0,240
2,note_on,54,44,0
2,note_on,54,0,240
2,note_on,56,45,0
2,note_on,56,0,240
2,note_on,57,47,0
2,note_on,57,0,240
2,note_on,61,48,0
2,note_on,61,0,240
2,note_on,54,50,0
2,note_on,54,0,240
2,note_on,53,52,0
2,note_on,53,0,160
2,note_on,56,49,0
2,note_on,56,0,240
2,note_on,61,49,0
2,note_on,61,0,240
2,note_on,53,52,0
2,note_on,53,0,240
2,note_on,56,46,0
2,note_on,56,0,240
2,note_on,61,46,0
2,note_on,61,0,240
2,note_on,53,52,0
2,note_on,53,0,240
2,note_on,56,47,0
2,note_on,56,0,240
2,note_on,61,47,0
2,note_on,61,0,240
2,note_on,52,45,0
2,note_on,52,0,134
2,note_on,56,41,0
2,note_on,56,0,240
2,note_on,61,41,0
2,note_on,61,0,240
2,note_on,52,45,0
2,note_on,52,0,240
2,note_on,56,41,0
2,note_on,56,0,240
2,note_on,61,41,0
2,note_on,61,0,240
2,note_on,52,45,0
2,note_on,52,0,240
2,note_on,56,46,0
2,note_on,56,0,240
2,note_on,61,52,0
2,note_on,61,0,240
2,note_on,51,52,0
2,note_on,51,0,34
2,note_on,55,52,0
2,note_on,55,0,240
2,note_on,61,50,0
2,note_on,61,0,240
2,note_on,51,50,0
2,note_on,51,0,240
2,note_on,55,49,0
2,note_on,55,0,240
2,note_on,61,48,0
2,note_on,61,0,240
2,note_on,51,48,0
2,note_on,51,0,240
2,note_on,55,48,0
2,note_on,55,0,240
2,note_on,61,47,0
2,note_on,61,0,240
2,note_on,51,45,0
2,note_on,55,45,0
2,note_on,58,40,237
2,note_on,58,0,240
2,note_on,60,36,0
2,note_on,60,0,240
2,note_on,61,31,0
2,note_on,61,0,720
2,note_on,55,0,0
2,note_on,51,0,0
2,note_on,44,30,0
2,note_on,51,36,0
2,note_on,51,0,360
2,note_on,51,36,0
2,note_on,46,30,0
2,note_on,44,0,10
2,note_on,51,0,110
2,note_on,44,30,0
2,note_on,51,36,0
2,note_on,46,0,10
2,note_on,51,0,230
2,note_on,44,0,0
2,note_on,51,27,0
2,note_on,46,23,0
2,note_on,46,0,1440
2,note_on,51,0,0
2,note_on,44,30,0
2,note_on,51,36,0
2,note_on,51,0,360
2,note_on,51,36,0
2,note_on,46,30,0
2,note_on,44,0,10
2,note_on,51,0,110
2,note_on,44,30,0
2,note_on,51,36,0
2,note_on,46,0,10
2,note_on,51,0,230
2,note_on,44,0,0
2,note_on,39,22,0
2,note_on,51,27,0
2,note_on,51,0,1440
2,note_on,39,0,0
2,note_on,51,39,0
2,note_on,44,33,0
2,note_on,51,0,360
2,note_on,46,33,0
2,note_on,51,39,0
2,note_on,44,0,10
2,note_on,51,0,110
2,note_on,51,39,0
2,note_on,44,33,0
2,note_on,46,0,10
2,note_on,44,0,230
2,note_on,51,0,0
2,note_on,44,29,0
2,note_on,51,35,0
2,note_on,51,0,360
2,note_on,51,44,0
2,note_on,49,37,0
2,note_on,44,0,10
2,note_on,51,0,110
2,note_on,48,39,0
2,note_on,51,48,0
2,note_on,49,0,10
2,note_on,51,0,230
2,note_on,48,0,0
2,note_on,48,41,0
2,note_on,51,49,0
2,note_on,51,0,720
2,note_on,48,0,0
2,note_on,51,33,0
2,note_on,46,27,0
2,note_on,46,0,600
2,note_on,51,0,0
2,note_on,44,21,0
2,note_on,51,26,0
2,note_on,51,0,120
2,note_on,44,0,0
2,note_on,51,26,0
2,note_on,44,21,0
2,note_on,44,0,1440
2,note_on,51,0,0
2,note_on,39,30,0
2,note_on,51,36,0
2,note_on,51,0,360
2,note_on,51,37,0
2,note_on,44,31,0
2,note_on,39,0,10
2,note_on,51,0,110
2,note_on,39,31,0
2,note_on,51,37,0
2,note_on,44,0,10
2,note_on,51,0,230
2,note_on,39,0,0
2,note_on,51,37,0
2,note_on,39,31,0
2,note_on,51,0,360
2,note_on,44,30,0
2,note_on,51,36,0
2,note_on,39,0,10
2,note_on,51,0,110
2,note_on,51,36,0
2,note_on,39,30,0
2,note_on,44,0,10
2,note_on,39,0,230
2,note_on,51,0,0
2,note_on,38,49,0
2,note_on,50,58,0
2,note_on,50,0,1440
2,note_on,38,0,0
2,note_on,39,24,0
2,note_on,51,29,0
2,note_on,51,0,960
2,note_on,39,0,0
2,note_on,51,45,960
2,note_on,51,0,240
2,note_on,56,44,0
2,note_on,58,44,360
2,note_on,56,0,10
2,note_on,58,0,110
2,note_on,56,44,0
2,note_on,56,0,240
2,note_on,59,44,0
2,note_on,57,44,0
2,note_on,57,0,240
2,note_on,56,52,0
2,note_on,56,0,240
2,note_on,59,0,0
2,note_on,54,60,0
2,note_on,63,60,0
2,note_on,63,0,240
2,note_on,54,0,0
2,note_on,64,64,0
2,note_on,52,64,0
2,note_on,52,0,240
2,note_on,56,58,0
2,note_on,56,0,240
2,note_on,64,0,0
2,note_on,63,48,0
2,note_on,59,48,0
2,note_on,59,0,240
2,note_on,63,0,0
2,note_on,63,41,0
2,note_on,59,34,0
2,note_on,54,34,0
2,note_on,59,0,720
2,note_on,63,0,0
2,note_on,58,29,0
2,note_on,61,29,0
2,note_on,61,0,240
2,note_on,58,0,0
2,note_on,54,0,0
2,note_on,64,29,480
2,note_on,52,29,0
2,note_on,52,0,240
2,note_on,56,29,0
2,note_on,56,0,240
2,note_on,64,0,0
2,note_on,59,30,0
2,note_on,63,30,0
2,note_on,63,0,240
2,note_on,59,0,0
2,note_on,54,25,0
2,note_on,59,25,0
2,note_on,63,30,0
2,note_on,63,0,720
2,note_on,59,0,0
2,note_on,58,24,0
2,note_on,61,24,0
2,note_on,61,0,240
2,note_on,58,0,0
2,note_on,54,0,0
2,note_on,51,44,480
2,note_on,43,44,0
2,note_on,43,0,720
2,note_on,51,0,0
2,note_on,44,44,0
2,note_on,51,44,0
2,note_on,44,0,1200
2,note_on,46,57,0
2,note_on,46,0,240
2,note_on,51,0,0
2,note_on,48,66,0
2,note_on,51,66,0
2,note_on,48,0,240
2,note_on,46,56,0
2,note_on,46,0,240
2,note_on,44,49,0
2,note_on,44,0,240
2,note_on,51,0,0
2,note_on,49,46,0
2,note_on,58,37,480
2,note_on,58,0,240
2,note_on,49,0,0
2,note_on,51,39,0
2,note_on,60,39,0
2,note_on,60,0,600
2,note_on,51,0,0
2,note_on,58,33,0
2,note_on,51,33,0
2,note_on,51,0,120
2,note_on,58,0,0
2,note_on,58,34,0
2,note_on,51,34,0
2,note_on,51,0,600
2,note_on,58,0,0
2,note_on,44,29,0
2,note_on,56,29,0
2,note_on,56,0,120
2,note_on,44,0,0
2,note_on,56,29,0
2,note_on,44,29,0
2,note_on,44,0,480
2,note_on,56,0,0
2,note_on,51,24,8
2,note_on,51,0,120
2,note_on,51,24,0
2,note_on,44,29,600
2,note_on,44,0,106
2,note_on,44,29,0
2,note_on,46,29,360
2,note_on,44,0,10
2,note_on,44,29,110
2,note_on,46,0,10
2,note_on,44,0,230
2,note_on,46,25,0
2,note_on,51,0,600
2,note_on,51,25,0
2,note_on,51,0,120
2,note_on,51,25,0
2,note_on,46,0,14
2,note_on,39,29,0
2,note_on,39,0,120
2,note_on,39,29,0
2,note_on,44,29,360
2,note_on,39,0,10
2,note_on,39,29,110
2,note_on,44,0,10
2,note_on,39,0,230
2,note_on,44,24,0
2,note_on,51,0,480
2,note_on,51,25,120
2,note_on,51,0,112
2,note_on,51,25,0
2,note_on,44,0,21
2,note_on,48,29,0
2,note_on,48,0,120
2,note_on,48,29,0
2,note_on,49,28,360
2,note_on,48,0,10
2,note_on,48,30,110
2,note_on,49,0,10
2,note_on,48,0,230
2,note_on,49,36,0
2,note_on,48,37,360
2,note_on,49,0,10
2,note_on,48,0,110
2,note_on,48,37,0
2,note_on,48,0,240
2,note_on,51,0,0
2,note_on,51,37,0
2,note_on,51,0,720
2,note_on,51,37,0
2,note_on,39,37,0
2,note_on,39,0,600
2,note_on,51,0,0
2,note_on,44,29,0
2,note_on,51,29,0
2,note_on,51,0,120
2,note_on,44,0,0
2,note_on,44,29,0
2,note_on,51,29,0
2,note_on,51,0,113
2,note_on,44,0,0
2,note_on,60,29,14
2,note_on,51,29,0
2,note_on,51,0,120
2,note_on,60,0,0
2,note_on,51,37,0
2,note_on,60,29,0
2,note_on,51,0,360
2,note_on,61,29,0
2,note_on,51,29,0
2,note_on,60,0,10
2,note_on,51,0,110
2,note_on,51,29,0
2,note_on,60,29,0
2,note_on,61,0,10
2,note_on,60,0,230
2,note_on,51,0,0
2,note_on,61,25,0
2,note_on,51,25,0
2,note_on,51,0,14
2,note_on,61,0,0
2,note_on,51,29,0
2,note_on,58,29,0
2,note_on,58,0,120
2,note_on,51,0,0
2,note_on,58,29,0
2,note_on,51,29,0
2,note_on,51,0,360
2,note_on,60,29,0
2,note_on,51,29,0
2,note_on,58,0,10
2,note_on,51,0,110
2,note_on,61,29,0
2,note_on,51,29,0
2,note_on,60,0,10
2,note_on,51,0,230
2,note_on,61,0,0
2,note_on,51,24,0
2,note_on,60,24,0
2,note_on,60,0,35
2,note_on,51,0,0
2,note_on,51,29,0
2,note_on,60,29,0
2,note_on,60,0,120
2,note_on,51,0,0
2,note_on,51,29,0
2,note_on,60,29,0
2,note_on,51,0,360
2,note_on,51,29,0
2,note_on,61,28,0
2,note_on,60,0,10
2,note_on,51,0,110
2,note_on,60,30,0
2,note_on,51,30,0
2,note_on,61,0,10
2,note_on,51,0,230
2,note_on,60,0,0
2,note_on,51,36,0
2,note_on,61,36,0
2,note_on,51,0,360
2,note_on,60,37,0
2,note_on,51,37,0
2,note_on,61,0,10
2,note_on,51,0,110
2,note_on,60,0,0
2,note_on,51,37,0
2,note_on,60,37,0
2,note_on,60,0,240
2,note_on,51,0,0
2,note_on,63,41,0
2,note_on,51,41,0
2,note_on,51,0,720
2,note_on,63,0,0
2,note_on,63,42,0
2,note_on,51,42,0
2,note_on,61,42,0
2,note_on,61,0,600
2,note_on,51,0,0
2,note_on,63,0,0
2,note_on,56,34,0
2,note_on,63,41,0
2,note_on,60,34,0
2,note_on,60,0,120
2,note_on,63,0,0
2,note_on,56,0,0
2,note_on,56,34,0
2,note_on,63,41,0
2,note_on,60,34,0
2,note_on,60,0,2040
2,note_on,63,0,0
2,note_on,56,0,0
2,note_on,42,73,0
2,note_on,42,0,120
2,note_on,42,79,0
2,note_on,42,0,116
2,note_on,49,70,120
2,note_on,49,0,240
2,note_on,57,67,0
2,note_on,57,0,240
2,note_on,42,79,0
2,note_on,42,0,120
2,note_on,49,69,120
2,note_on,49,0,240
2,note_on,57,66,0
2,note_on,57,0,240
2,note_on,42,79,0
2,note_on,42,0,120
2,note_on,49,70,120
2,note_on,49,0,240
2,note_on,54,66,0
2,note_on,54,0,240
2,note_on,42,79,0
2,note_on,42,0,7
2,note_on,50,71,120
2,note_on,50,0,240
2,note_on,59,68,0
2,note_on,59,0,240
2,note_on,42,79,0
2,note_on,42,0,120
2,note_on,50,71,120
2,note_on,50,0,240
2,note_on,59,68,0
2,note_on,59,0,240
2,note_on,42,79,0
2,note_on,42,0,120
2,note_on,50,73,120
2,note_on,50,0,240
2,note_on,59,68,0
2,note_on,59,0,240
2,note_on,42,79,0
2,note_on,42,0,14
2,note_on,47,70,120
2,note_on,47,0,240
2,note_on,56,72,0
2,note_on,56,0,240
2,note_on,42,79,0
2,note_on,42,0,35
2,note_on,49,71,120
2,note_on,49,0,240
2,note_on,57,73,0
2,note_on,57,0,240
2,note_on,42,79,0
2,note_on,42,0,107
2,note_on,50,70,106
2,note_on,50,0,240
2,note_on,59,72,0
2,note_on,59,0,240
2,note_on,42,70,0
2,note_on,42,0,114
2,note_on,49,64,106
2,note_on,49,0,240
2,note_on,57,65,0
2,note_on,57,0,240
2,note_on,42,70,0
2,note_on,42,0,120
2,note_on,49,65,120
2,note_on,49,0,240
2,note_on,57,65,0
2,note_on,57,0,240
2,note_on,45,79,0
2,note_on,45,0,120
2,note_on,49,71,120
2,note_on,49,0,240
2,note_on,54,71,0
2,note_on,54,0,240
2,note_on,49,63,0
2,note_on,49,0,106
2,note_on,53,54,0
2,note_on,53,0,240
2,note_on,56,56,0
2,note_on,56,0,240
2,note_on,49,63,0
2,note_on,49,0,240
2,note_on,53,54,0
2,note_on,53,0,240
2,note_on,56,57,0
2,note_on,56,0,240
2,note_on,45,79,0
2,note_on,45,0,141
2,note_on,49,63,0
2,note_on,49,0,240
2,note_on,54,63,0
2,note_on,54,0,240
2,note_on,49,70,0
2,note_on,49,0,106
2,note_on,53,62,0
2,note_on,53,0,240
2,note_on,56,58,0
2,note_on,56,0,240
2,note_on,50,62,0
2,note_on,56,59,233
2,note_on,56,0,240
2,note_on,54,59,0
2,note_on,54,0,240
2,note_on,53,60,0
2,note_on,53,0,240
2,note_on,54,55,0
2,note_on,50,0,120
2,note_on,54,0,120
2,note_on,56,50,0
2,note_on,49,50,0
2,note_on,49,0,240
2,note_on,56,0,0
2,note_on,42,44,0
2,note_on,42,0,127
2,note_on,49,40,0
2,note_on,49,0,240
2,note_on,57,40,0
2,note_on,57,0,240
2,note_on,42,42,0
2,note_on,42,0,99
2,note_on,47,39,0
2,note_on,47,0,240
2,note_on,56,39,0
2,note_on,56,0,240
2,note_on,42,41,0
2,note_on,42,0,56
2,note_on,45,38,0
2,note_on,45,0,240
2,note_on,54,38,0
2,note_on,54,0,240
2,note_on,40,41,0
2,note_on,40,0,113
2,note_on,47,40,0
2,note_on,47,0,240
2,note_on,56,40,0
2,note_on,56,0,240
2,note_on,40,44,0
2,note_on,40,0,240
2,note_on,47,40,0
2,note_on,47,0,240
2,note_on,56,44,0
2,note_on,56,0,240
2,note_on,40,44,0
2,note_on,40,0,240
2,note_on,47,41,0
2,note_on,47,0,240
2,note_on,56,39,0
2,note_on,56,0,240
2,note_on,40,35,0
2,note_on,40,0,70
2,note_on,47,34,0
2,note_on,47,0,240
2,note_on,56,34,0
2,note_on,56,0,240
2,note_on,40,34,0
2,note_on,40,0,99
2,note_on,49,33,0
2,note_on,49,0,240
2,note_on,57,34,0
2,note_on,57,0,240
2,note_on,40,34,0
2,note_on,40,0,84
2,note_on,50,33,0
2,note_on,50,0,240
2,note_on,56,33,0
2,note_on,56,0,240
2,note_on,45,34,0
2,note_on,45,0,84
2,note_on,49,34,0
2,note_on,49,0,240
2,note_on,57,34,0
2,note_on,57,0,240
2,note_on,45,35,0
2,note_on,45,0,42
2,note_on,49,34,0
2,note_on,49,0,240
2,note_on,56,33,0
2,note_on,56,0,240
2,note_on,45,42,0
2,note_on,45,0,14
2,note_on,49,38,0
2,note_on,49,0,240
2,note_on,54,37,0
2,note_on,54,0,240
2,note_on,47,42,0
2,note_on,47,0,80
2,note_on,50,39,0
2,note_on,50,0,240
2,note_on,54,39,0
2,note_on,54,0,240
2,note_on,50,44,0
2,note_on,50,0,240
2,note_on,54,40,0
2,note_on,54,0,240
2,note_on,59,40,0
2,note_on,59,0,240
2,note_on,49,39,0
2,note_on,49,0,233
2,note_on,53,38,0
2,note_on,53,0,240
2,note_on,59,30,0
2,note_on,59,0,240
2,note_on,45,42,0
2,note_on,45,0,141
2,note_on,49,36,0
2,note_on,49,0,240
2,note_on,54,37,0
2,note_on,54,0,240
2,note_on,44,37,0
2,note_on,44,0,127
2,note_on,47,37,0
2,note_on,47,0,240
2,note_on,54,37,0
2,note_on,54,0,240
2,note_on,46,44,0
2,note_on,46,0,155
2,note_on,49,40,0
2,note_on,49,0,240
2,note_on,54,40,0
2,note_on,54,0,240
2,note_on,47,44,0
2,note_on,47,0,233
2,note_on,51,41,0
2,note_on,51,0,240
2,note_on,54,40,0
2,note_on,54,0,240
2,note_on,48,44,0
2,note_on,48,0,240
2,note_on,54,41,0
2,note_on,54,0,240
2,note_on,56,40,0
2,note_on,56,0,240
2,note_on,49,39,0
2,note_on,49,0,228
2,note_on,53,39,0
2,note_on,53,0,240
2,note_on,59,37,0
2,note_on,59,0,240
2,note_on,58,34,0
2,note_on,54,34,0
2,note_on,54,0,240
2,note_on,58,0,0
2,note_on,42,31,0
2,note_on,42,0,240
2,note_on,46,34,0
2,note_on,46,0,240
2,note_on,49,35,0
2,note_on,49,0,240
2,note_on,54,37,0
2,note_on,54,0,240
2,note_on,56,39,0
2,note_on,56,0,240
2,note_on,58,41,0
2,note_on,58,0,240
2,note_on,61,45,0
2,note_on,61,0,240
2,note_on,54,45,0
2,note_on,54,0,240
2,note_on,53,44,0
2,note_on,53,0,103
2,note_on,56,35,0
2,note_on,56,0,240
2,note_on,61,35,0
2,note_on,61,0,240
2,note_on,53,36,0
2,note_on,53,0,240
2,note_on,56,36,0
2,note_on,56,0,240
2,note_on,61,36,0
2,note_on,61,0,240
2,note_on,53,36,0
2,note_on,53,0,240
2,note_on,56,36,0
2,note_on,56,0,240
2,note_on,61,36,0
2,note_on,61,0,240
2,note_on,52,36,0
2,note_on,52,0,141
2,note_on,56,34,0
2,note_on,56,0,240
2,note_on,61,35,0
2,note_on,61,0,240
2,note_on,52,35,0
2,note_on,52,0,240
2,note_on,56,34,0
2,note_on,56,0,240
2,note_on,61,34,0
2,note_on,61,0,240
2,note_on,52,35,0
2,note_on,52,0,240
2,note_on,56,36,0
2,note_on,56,0,240
2,note_on,61,38,0
2,note_on,61,0,240
2,note_on,51,42,0
2,note_on,51,0,57
2,note_on,55,41,0
2,note_on,55,0,240
2,note_on,61,42,0
2,note_on,61,0,240
2,note_on,51,41,0
2,note_on,51,0,240
2,note_on,55,40,0
2,note_on,55,0,240
2,note_on,61,39,0
2,note_on,61,0,240
2,note_on,51,38,0
2,note_on,51,0,240
2,note_on,55,36,0
2,note_on,55,0,240
2,note_on,61,35,0
2,note_on,61,0,240
2,note_on,55,33,0
2,note_on,51,33,0
2,note_on,58,29,217
2,note_on,58,0,240
2,note_on,60,26,0
2,note_on,60,0,240
2,note_on,61,22,0
2,note_on,61,0,720
2,note_on,51,0,0
2,note_on,55,0,0
2,note_on,51,24,0
2,note_on,44,20,0
2,note_on,51,0,360
2,note_on,46,20,0
2,note_on,51,24,0
2,note_on,44,0,10
2,note_on,51,0,110
2,note_on,51,24,0
2,note_on,44,20,0
2,note_on,46,0,10
2,note_on,44,0,230
2,note_on,51,0,0
2,note_on,46,15,0
2,note_on,51,18,0
2,note_on,51,0,1440
2,note_on,46,0,0
2,note_on,51,29,0
2,note_on,44,24,0
2,note_on,51,0,360
2,note_on,48,24,0
2,note_on,51,29,0
2,note_on,44,0,10
2,note_on,51,0,110
2,note_on,44,24,0
2,note_on,51,29,0
2,note_on,48,0,10
2,note_on,51,0,230
2,note_on,44,0,0
2,note_on,51,23,0
2,note_on,39,19,0
2,note_on,39,0,1440
2,note_on,51,0,0
2,note_on,44,23,0
2,note_on,51,28,0
2,note_on,51,0,360
2,note_on,51,29,0
2,note_on,46,24,0
2,note_on,44,0,10
2,note_on,51,0,110
2,note_on,44,24,0
2,note_on,51,29,0
2,note_on,46,0,10
2,note_on,51,0,230
2,note_on,44,0,0
2,note_on,51,25,0
2,note_on,44,21,0
2,note_on,51,0,360
2,note_on,49,30,0
2,note_on,51,36,0
2,note_on,44,0,10
2,note_on,51,0,110
2,note_on,48,34,0
2,note_on,51,40,0
2,note_on,49,0,10
2,note_on,51,0,230
2,note_on,48,0,0
2,note_on,51,46,0
2,note_on,48,38,0
2,note_on,48,0,720
2,note_on,51,0,0
2,note_on,46,37,0
2,note_on,51,44,0
2,note_on,51,0,600
2,note_on,46,0,0
2,note_on,51,23,0
2,note_on,44,19,0
2,note_on,44,0,120
2,note_on,51,0,0
2,note_on,44,18,0
2,note_on,51,22,0
2,note_on,51,0,1440
2,note_on,44,0,0
2,note_on,51,36,0
2,note_on,39,30,0
2,note_on,51,0,360
2,note_on,44,31,0
2,note_on,51,37,0
2,note_on,39,0,10
2,note_on,51,0,110
2,note_on,51,37,0
2,note_on,39,31,0
2,note_on,44,0,10
2,note_on,39,0,230
2,note_on,51,0,0
2,note_on,39,31,0
2,note_on,51,37,0
2,note_on,51,0,360
2,note_on,51,36,0
2,note_on,44,30,0
2,note_on,39,0,10
2,note_on,51,0,110
2,note_on,39,30,0
2,note_on,51,36,0
2,note_on,44,0,10
2,note_on,51,0,230
2,note_on,39,0,0
2,note_on,38,47,0
2,note_on,50,56,0
2,note_on,50,0,1440
2,note_on,38,0,0
2,note_on,51,36,0
2,note_on,39,30,0
2,note_on,39,0,960
2,note_on,51,0,0
2,note_on,42,43,2640
2,note_on,54,60,0
2,note_on,54,0,480
2,note_on,42,0,0
2,note_on,54,59,0
2,note_on,42,42,0
2,note_on,42,0,240
2,note_on,54,0,0
2,note_on,41,42,0
2,note_on,53,59,0
2,note_on,53,0,480
2,note_on,41,0,0
2,note_on,52,67,0
2,note_on,40,47,0
2,note_on,40,0,240
2,note_on,52,0,0
2,note_on,39,52,0
2,note_on,51,74,0
2,note_on,51,0,720
2,note_on,39,0,0
2,note_on,51,44,0
2,note_on,39,31,0
2,note_on,39,0,600
2,note_on,51,0,0
2,note_on,44,42,0
2,note_on,51,42,0
2,note_on,51,0,120
2,note_on,44,0,0
2,note_on,51,42,0
2,note_on,44,42,0
2,note_on,51,0,8
2,note_on,51,24,0
2,note_on,51,0,120
2,note_on,44,0,0
2,note_on,51,24,0
2,note_on,44,29,7
2,note_on,44,0,120
2,note_on,44,29,0
2,note_on,46,29,360
2,note_on,44,0,10
2,note_on,44,29,110
2,note_on,46,0,10
2,note_on,44,0,230
2,note_on,46,25,0
2,note_on,51,0,600
2,note_on,51,25,0
2,note_on,51,0,120
2,note_on,51,25,0
2,note_on,46,0,14
2,note_on,39,29,0
2,note_on,39,0,120
2,note_on,39,29,0
2,note_on,44,29,360
2,note_on,39,0,10
2,note_on,39,29,110
2,note_on,44,0,10
2,note_on,39,0,230
2,note_on,44,24,0
2,note_on,51,0,480
2,note_on,51,25,120
2,note_on,51,0,112
2,note_on,51,25,0
2,note_on,44,0,600
2,note_on,48,29,0
2,note_on,48,0,113
2,note_on,48,29,0
2,note_on,49,28,360
2,note_on,48,0,10
2,note_on,48,30,110
2,note_on,49,0,10
2,note_on,48,0,230
2,note_on,49,36,0
2,note_on,48,37,360
2,note_on,49,0,10
2,note_on,48,0,110
2,note_on,48,37,0
2,note_on,48,0,240
2,note_on,51,0,0
2,note_on,51,37,0
2,note_on,51,0,720
2,note_on,39,44,0
2,note_on,51,37,0
2,note_on,51,0,600
2,note_on,39,0,0
2,note_on,51,29,0
2,note_on,44,29,0
2,note_on,44,0,120
2,note_on,51,0,0
2,note_on,44,29,0
2,note_on,51,29,0
2,note_on,51,0,99
2,note_on,44,0,0
2,note_on,60,29,600
2,note_on,51,29,0
2,note_on,51,0,99
2,note_on,60,0,0
2,note_on,51,37,0
2,note_on,60,29,0
2,note_on,51,0,360
2,note_on,61,29,0
2,note_on,51,29,0
2,note_on,60,0,10
2,note_on,51,0,110
2,note_on,51,29,0
2,note_on,60,29,0
2,note_on,61,0,10
2,note_on,60,0,230
2,note_on,51,0,0
2,note_on,51,25,0
2,note_on,61,25,0
2,note_on,61,0,21
2,note_on,51,0,0
2,note_on,58,29,0
2,note_on,51,29,0
2,note_on,51,0,120
2,note_on,58,0,0
2,note_on,58,29,0
2,note_on,51,29,0
2,note_on,51,0,360
2,note_on,60,29,0
2,note_on,51,29,0
2,note_on,58,0,10
2,note_on,51,0,110
2,note_on,51,29,0
2,note_on,61,29,0
2,note_on,60,0,10
2,note_on,61,0,230
2,note_on,51,0,0
2,note_on,60,24,0
2,note_on,51,24,0
2,note_on,51,0,706
2,note_on,60,0,0
2,note_on,51,29,0
2,note_on,60,29,0
2,note_on,60,0,114
2,note_on,51,0,0
2,note_on,60,29,0
2,note_on,51,29,0
2,note_on,51,0,360
2,note_on,61,34,0
2,note_on,51,29,0
2,note_on,60,0,10
2,note_on,51,0,110
2,note_on,51,30,0
2,note_on,60,30,0
2,note_on,61,0,10
2,note_on,60,0,230
2,note_on,51,0,0
2,note_on,61,42,0
2,note_on,51,36,0
2,note_on,51,0,360
2,note_on,51,37,0
2,note_on,60,37,0
2,note_on,61,0,10
2,note_on,60,0,110
2,note_on,51,0,0
2,note_on,60,37,0
2,note_on,51,37,0
2,note_on,51,0,240
2,note_on,60,0,0
2,note_on,63,41,0
2,note_on,51,41,0
2,note_on,51,0,720
2,note_on,63,0,0
2,note_on,61,47,0
2,note_on,63,56,0
2,note_on,51,47,0
2,note_on,51,0,600
2,note_on,63,0,0
2,note_on,61,0,0
2,note_on,60,53,0
2,note_on,63,63,0
2,note_on,56,53,0
2,note_on,56,0,120
2,note_on,63,0,0
2,note_on,60,0,0
2,note_on,60,54,0
2,note_on,63,64,0
2,note_on,56,54,0
2,note_on,56,0,2160
2,note_on,63,0,0
2,note_on,60,0,0
