Track,Message Type,Note,Velocity,Time
1,note_on,74,50,0
1,note_on,74,0,480
1,note_on,74,45,0
1,note_on,74,0,216
1,note_on,74,45,24
1,note_on,74,0,216
1,note_on,70,50,24
1,note_on,70,0,480
1,note_on,70,45,0
1,note_on,70,0,480
1,note_on,69,50,0
1,note_on,69,0,480
1,note_on,69,47,0
1,note_on,69,0,240
1,note_on,69,47,0
1,note_on,69,0,180
1,note_on,69,40,0
1,note_on,69,0,60
1,note_on,75,50,0
1,note_on,75,0,960
1,note_on,74,50,0
1,note_on,74,0,480
1,note_on,74,45,0
1,note_on,74,0,216
1,note_on,74,45,24
1,note_on,74,0,216
1,note_on,74,50,24
1,note_on,74,0,240
1,note_on,67,50,0
1,note_on,67,0,120
1,note_on,67,45,120
1,note_on,67,0,480
1,note_on,72,50,0
1,note_on,72,0,240
1,note_on,71,44,0
1,note_on,71,0,120
1,note_on,72,44,0
1,note_on,72,0,120
1,note_on,71,44,0
1,note_on,71,0,120
1,note_on,72,47,0
1,note_on,72,0,120
1,note_on,74,49,0
1,note_on,74,0,120
1,note_on,72,44,0
1,note_on,72,0,120
1,note_on,65,50,0
1,note_on,60,32,246
1,note_on,62,31,234
1,note_on,60,0,6
1,note_on,62,0,234
1,note_on,63,29,0
1,note_on,63,0,240
1,note_on,65,0,0
1,note_on,86,50,0
1,note_on,74,42,0
1,note_on,74,0,480
1,note_on,86,0,0
1,note_on,86,45,0
1,note_on,74,38,0
1,note_on,74,0,216
1,note_on,86,0,0
1,note_on,86,45,24
1,note_on,74,38,0
1,note_on,74,0,216
1,note_on,86,0,0
1,note_on,82,50,24
1,note_on,70,42,0
1,note_on,70,0,480
1,note_on,82,0,0
1,note_on,82,45,0
1,note_on,70,38,0
1,note_on,70,0,480
1,note_on,82,0,0
1,note_on,69,42,0
1,note_on,81,50,0
1,note_on,81,0,480
1,note_on,69,0,0
1,note_on,81,47,0
1,note_on,69,39,0
1,note_on,69,0,240
1,note_on,81,0,0
1,note_on,81,47,0
1,note_on,69,39,0
1,note_on,69,0,180
1,note_on,81,0,0
1,note_on,81,40,0
1,note_on,81,0,60
1,note_on,75,42,0
1,note_on,87,50,0
1,note_on,87,0,960
1,note_on,75,0,0
1,note_on,74,42,0
1,note_on,86,50,0
1,note_on,86,0,480
1,note_on,74,0,0
1,note_on,86,48,0
1,note_on,74,40,0
1,note_on,74,0,216
1,note_on,86,0,0
1,note_on,86,52,24
1,note_on,74,44,0
1,note_on,74,0,216
1,note_on,86,0,0
1,note_on,91,57,24
1,note_on,79,48,0
1,note_on,79,0,480
1,note_on,91,0,0
1,note_on,79,38,0
1,note_on,91,45,0
1,note_on,79,0,240
1,note_on,82,43,0
1,note_on,82,0,240
1,note_on,91,0,0
1,note_on,84,39,0
1,note_on,82,47,0
1,note_on,82,0,240
1,note_on,81,38,0
1,note_on,81,0,120
1,note_on,79,38,0
1,note_on,79,0,120
1,note_on,81,43,0
1,note_on,81,0,240
1,note_on,84,0,0
1,note_on,75,37,0
1,note_on,81,37,0
1,note_on,89,44,0
1,note_on,89,0,240
1,note_on,81,0,0
1,note_on,75,0,0
1,note_on,82,44,0
1,note_on,74,37,0
1,note_on,74,0,960
1,note_on,82,0,0
1,note_on,74,50,0
1,note_on,74,0,480
1,note_on,74,45,0
1,note_on,74,0,216
1,note_on,74,45,24
1,note_on,74,0,216
1,note_on,70,50,24
1,note_on,70,0,480
1,note_on,70,45,0
1,note_on,70,0,480
1,note_on,69,50,0
1,note_on,69,0,480
1,note_on,69,47,0
1,note_on,69,0,240
1,note_on,69,47,0
1,note_on,69,0,180
1,note_on,69,40,0
1,note_on,69,0,60
1,note_on,75,50,0
1,note_on,75,0,960
1,note_on,74,50,0
1,note_on,74,0,480
1,note_on,74,45,0
1,note_on,74,0,216
1,note_on,74,45,24
1,note_on,74,0,216
1,note_on,74,50,24
1,note_on,74,0,240
1,note_on,67,50,0
1,note_on,67,0,120
1,note_on,67,45,120
1,note_on,67,0,480
1,note_on,72,50,0
1,note_on,72,0,240
1,note_on,71,44,0
1,note_on,71,0,120
1,note_on,72,44,0
1,note_on,72,0,120
1,note_on,71,44,0
1,note_on,71,0,120
1,note_on,72,47,0
1,note_on,72,0,120
1,note_on,74,49,0
1,note_on,74,0,120
1,note_on,72,44,0
1,note_on,72,0,120
1,note_on,65,50,0
1,note_on,60,32,246
1,note_on,62,31,234
1,note_on,60,0,6
1,note_on,62,0,234
1,note_on,63,29,0
1,note_on,63,0,240
1,note_on,65,0,0
1,note_on,74,42,0
1,note_on,86,50,0
1,note_on,86,0,480
1,note_on,74,0,0
1,note_on,86,45,0
1,note_on,74,38,0
1,note_on,74,0,216
1,note_on,86,0,0
1,note_on,86,45,24
1,note_on,74,38,0
1,note_on,74,0,216
1,note_on,86,0,0
1,note_on,82,50,24
1,note_on,70,42,0
1,note_on,70,0,480
1,note_on,82,0,0
1,note_on,70,38,0
1,note_on,82,45,0
1,note_on,82,0,480
1,note_on,70,0,0
1,note_on,69,42,0
1,note_on,81,50,0
1,note_on,81,0,480
1,note_on,69,0,0
1,note_on,81,47,0
1,note_on,69,39,0
1,note_on,69,0,240
1,note_on,81,0,0
1,note_on,69,39,0
1,note_on,81,47,0
1,note_on,81,0,180
1,note_on,69,0,0
1,note_on,81,40,0
1,note_on,81,0,60
1,note_on,75,42,0
1,note_on,87,50,0
1,note_on,87,0,960
1,note_on,75,0,0
1,note_on,74,42,0
1,note_on,86,50,0
1,note_on,86,0,480
1,note_on,74,0,0
1,note_on,74,40,0
1,note_on,86,48,0
1,note_on,86,0,216
1,note_on,74,0,0
1,note_on,86,52,24
1,note_on,74,44,0
1,note_on,74,0,216
1,note_on,86,0,0
1,note_on,79,48,24
1,note_on,91,57,0
1,note_on,91,0,480
1,note_on,79,0,0
1,note_on,79,38,0
1,note_on,91,45,0
1,note_on,79,0,240
1,note_on,82,44,0
1,note_on,82,0,240
1,note_on,91,0,0
1,note_on,84,39,0
1,note_on,82,47,0
1,note_on,82,0,240
1,note_on,81,38,0
1,note_on,81,0,120
1,note_on,79,38,0
1,note_on,79,0,120
1,note_on,81,43,0
1,note_on,81,0,240
1,note_on,84,0,0
1,note_on,89,44,0
1,note_on,75,37,0
1,note_on,81,37,0
1,note_on,81,0,240
1,note_on,75,0,0
1,note_on,89,0,0
1,note_on,82,44,0
1,note_on,74,37,0
1,note_on,74,0,960
1,note_on,82,0,0
1,note_on,69,50,0
1,note_on,74,60,0
1,note_on,66,50,0
1,note_on,66,0,480
1,note_on,74,0,0
1,note_on,69,0,0
1,note_on,74,54,0
1,note_on,69,45,0
1,note_on,66,45,0
1,note_on,66,0,216
1,note_on,69,0,0
1,note_on,74,0,0
1,note_on,69,45,24
1,note_on,66,45,0
1,note_on,74,54,0
1,note_on,74,0,216
1,note_on,66,0,0
1,note_on,69,0,0
1,note_on,62,50,24
1,note_on,67,50,0
1,note_on,70,60,0
1,note_on,70,0,480
1,note_on,67,0,0
1,note_on,62,0,0
1,note_on,62,45,0
1,note_on,67,45,0
1,note_on,70,54,0
1,note_on,70,0,480
1,note_on,67,0,0
1,note_on,62,0,0
1,note_on,67,50,0
1,note_on,62,50,0
1,note_on,70,60,0
1,note_on,70,0,360
1,note_on,72,60,0
1,note_on,72,0,60
1,note_on,70,60,0
1,note_on,70,0,60
1,note_on,62,0,0
1,note_on,67,0,0
1,note_on,62,46,0
1,note_on,69,56,0
1,note_on,69,0,240
1,note_on,62,0,0
1,note_on,67,56,0
1,note_on,62,46,0
1,note_on,62,0,240
1,note_on,67,0,0
1,note_on,64,50,0
1,note_on,67,50,0
1,note_on,72,60,0
1,note_on,72,0,720
1,note_on,70,60,0
1,note_on,70,0,240
1,note_on,67,0,0
1,note_on,64,0,0
1,note_on,65,50,0
1,note_on,69,60,0
1,note_on,60,50,0
1,note_on,60,0,480
1,note_on,69,0,0
1,note_on,65,0,0
1,note_on,65,43,0
1,note_on,60,43,0
1,note_on,69,51,0
1,note_on,69,0,216
1,note_on,60,0,0
1,note_on,65,0,0
1,note_on,60,42,24
1,note_on,65,42,0
1,note_on,69,50,0
1,note_on,69,0,216
1,note_on,65,0,0
1,note_on,60,0,0
1,note_on,67,55,24
1,note_on,62,46,0
1,note_on,65,46,0
1,note_on,65,0,480
1,note_on,62,0,0
1,note_on,67,0,0
1,note_on,65,39,0
1,note_on,62,39,0
1,note_on,67,47,0
1,note_on,67,0,480
1,note_on,62,0,0
1,note_on,65,0,0
1,note_on,67,50,0
1,note_on,60,42,0
1,note_on,64,42,0
1,note_on,67,0,240
1,note_on,69,44,0
1,note_on,69,0,120
1,note_on,70,44,0
1,note_on,70,0,120
1,note_on,64,0,0
1,note_on,65,37,0
1,note_on,69,44,0
1,note_on,69,0,240
1,note_on,65,0,0
1,note_on,67,49,0
1,note_on,64,41,0
1,note_on,64,0,240
1,note_on,67,0,0
1,note_on,60,0,0
1,note_on,65,50,0
1,note_on,60,32,240
1,note_on,60,0,240
1,note_on,62,31,0
1,note_on,62,0,240
1,note_on,63,29,0
1,note_on,63,0,240
1,note_on,65,0,0
1,note_on,74,42,0
1,note_on,86,50,0
1,note_on,86,0,480
1,note_on,74,0,0
1,note_on,74,38,0
1,note_on,86,45,0
1,note_on,86,0,216
1,note_on,74,0,0
1,note_on,74,38,24
1,note_on,86,45,0
1,note_on,86,0,216
1,note_on,74,0,0
1,note_on,82,50,24
1,note_on,70,42,0
1,note_on,70,0,480
1,note_on,82,0,0
1,note_on,82,45,0
1,note_on,70,38,0
1,note_on,70,0,480
1,note_on,82,0,0
1,note_on,82,50,0
1,note_on,82,0,360
1,note_on,84,41,0
1,note_on,84,0,60
1,note_on,82,40,0
1,note_on,82,0,60
1,note_on,81,47,0
1,note_on,81,0,120
1,note_on,82,47,0
1,note_on,82,0,60
1,note_on,84,40,0
1,note_on,84,0,30
1,note_on,86,40,0
1,note_on,86,0,30
1,note_on,84,47,0
1,note_on,84,0,120
1,note_on,82,47,0
1,note_on,82,0,120
1,note_on,79,42,0
1,note_on,91,50,0
1,note_on,91,0,960
1,note_on,79,0,0
1,note_on,72,50,0
1,note_on,64,42,0
1,note_on,70,42,0
1,note_on,70,0,480
1,note_on,64,0,0
1,note_on,72,0,0
1,note_on,70,40,0
1,note_on,64,40,0
1,note_on,72,48,0
1,note_on,72,0,216
1,note_on,64,0,0
1,note_on,70,0,0
1,note_on,70,44,24
1,note_on,72,52,0
1,note_on,64,44,0
1,note_on,64,0,216
1,note_on,72,0,0
1,note_on,70,0,0
1,note_on,70,48,24
1,note_on,77,57,0
1,note_on,74,48,0
1,note_on,65,48,0
1,note_on,65,0,480
1,note_on,70,0,0
1,note_on,77,0,0
1,note_on,74,0,0
1,note_on,65,40,0
1,note_on,70,40,0
1,note_on,74,40,0
1,note_on,77,45,0
1,note_on,77,0,480
1,note_on,65,0,0
1,note_on,70,0,0
1,note_on,74,0,0
1,note_on,72,39,0
1,note_on,70,47,0
1,note_on,70,0,240
1,note_on,69,38,0
1,note_on,69,0,120
1,note_on,67,38,0
1,note_on,67,0,120
1,note_on,69,43,0
1,note_on,69,0,240
1,note_on,72,0,0
1,note_on,63,37,0
1,note_on,69,37,0
1,note_on,77,44,0
1,note_on,77,0,240
1,note_on,69,0,0
1,note_on,63,0,0
1,note_on,70,44,0
1,note_on,62,37,0
1,note_on,62,0,960
1,note_on,70,0,0
1,note_on,69,50,0
1,note_on,74,60,0
1,note_on,66,50,0
1,note_on,66,0,480
1,note_on,74,0,0
1,note_on,69,0,0
1,note_on,74,54,0
1,note_on,66,45,0
1,note_on,69,45,0
1,note_on,69,0,216
1,note_on,66,0,0
1,note_on,74,0,0
1,note_on,74,54,24
1,note_on,66,45,0
1,note_on,69,45,0
1,note_on,69,0,216
1,note_on,66,0,0
1,note_on,74,0,0
1,note_on,70,60,24
1,note_on,67,50,0
1,note_on,62,50,0
1,note_on,62,0,480
1,note_on,67,0,0
1,note_on,70,0,0
1,note_on,67,45,0
1,note_on,70,54,0
1,note_on,62,45,0
1,note_on,62,0,480
1,note_on,70,0,0
1,note_on,67,0,0
1,note_on,70,60,0
1,note_on,67,50,0
1,note_on,62,50,0
1,note_on,70,0,360
1,note_on,72,60,0
1,note_on,72,0,60
1,note_on,70,60,0
1,note_on,70,0,60
1,note_on,62,0,0
1,note_on,67,0,0
1,note_on,69,56,0
1,note_on,62,46,0
1,note_on,62,0,240
1,note_on,69,0,0
1,note_on,67,56,0
1,note_on,62,46,0
1,note_on,62,0,240
1,note_on,67,0,0
1,note_on,64,50,0
1,note_on,72,60,0
1,note_on,67,50,0
1,note_on,72,0,720
1,note_on,70,60,0
1,note_on,70,0,240
1,note_on,67,0,0
1,note_on,64,0,0
1,note_on,65,50,0
1,note_on,60,50,0
1,note_on,69,60,0
1,note_on,69,0,480
1,note_on,60,0,0
1,note_on,65,0,0
1,note_on,60,43,0
1,note_on,65,43,0
1,note_on,69,51,0
1,note_on,69,0,216
1,note_on,65,0,0
1,note_on,60,0,0
1,note_on,69,50,24
1,note_on,60,42,0
1,note_on,65,42,0
1,note_on,65,0,216
1,note_on,60,0,0
1,note_on,69,0,0
1,note_on,67,55,24
1,note_on,62,46,0
1,note_on,65,46,0
1,note_on,65,0,480
1,note_on,62,0,0
1,note_on,67,0,0
1,note_on,65,39,0
1,note_on,67,47,0
1,note_on,62,39,0
1,note_on,62,0,480
1,note_on,67,0,0
1,note_on,65,0,0
1,note_on,60,42,0
1,note_on,64,42,0
1,note_on,67,50,0
1,note_on,67,0,240
1,note_on,69,44,0
1,note_on,69,0,120
1,note_on,70,44,0
1,note_on,70,0,120
1,note_on,64,0,0
1,note_on,69,44,0
1,note_on,65,37,0
1,note_on,65,0,240
1,note_on,69,0,0
1,note_on,67,49,0
1,note_on,64,41,0
1,note_on,64,0,240
1,note_on,67,0,0
1,note_on,60,0,0
1,note_on,65,50,0
1,note_on,60,32,240
1,note_on,60,0,240
1,note_on,62,31,0
1,note_on,62,0,240
1,note_on,63,29,0
1,note_on,63,0,240
1,note_on,65,0,0
1,note_on,74,42,0
1,note_on,86,50,0
1,note_on,86,0,480
1,note_on,74,0,0
1,note_on,86,45,0
1,note_on,74,38,0
1,note_on,74,0,216
1,note_on,86,0,0
1,note_on,74,38,24
1,note_on,86,45,0
1,note_on,86,0,216
1,note_on,74,0,0
1,note_on,70,42,24
1,note_on,82,50,0
1,note_on,82,0,480
1,note_on,70,0,0
1,note_on,82,45,0
1,note_on,70,38,0
1,note_on,70,0,480
1,note_on,82,0,0
1,note_on,82,50,0
1,note_on,82,0,360
1,note_on,84,41,0
1,note_on,84,0,60
1,note_on,82,40,0
1,note_on,82,0,60
1,note_on,81,47,0
1,note_on,81,0,120
1,note_on,82,47,0
1,note_on,82,0,60
1,note_on,84,40,0
1,note_on,84,0,30
1,note_on,86,40,0
1,note_on,86,0,30
1,note_on,84,47,0
1,note_on,84,0,120
1,note_on,82,47,0
1,note_on,82,0,120
1,note_on,79,42,0
1,note_on,91,50,0
1,note_on,91,0,960
1,note_on,79,0,0
1,note_on,64,42,0
1,note_on,70,42,0
1,note_on,72,50,0
1,note_on,72,0,480
1,note_on,70,0,0
1,note_on,64,0,0
1,note_on,70,40,0
1,note_on,72,48,0
1,note_on,64,40,0
1,note_on,64,0,216
1,note_on,72,0,0
1,note_on,70,0,0
1,note_on,64,44,24
1,note_on,70,44,0
1,note_on,72,52,0
1,note_on,72,0,216
1,note_on,70,0,0
1,note_on,64,0,0
1,note_on,70,48,24
1,note_on,65,48,0
1,note_on,74,48,0
1,note_on,77,57,0
1,note_on,77,0,480
1,note_on,70,0,0
1,note_on,65,0,0
1,note_on,74,0,0
1,note_on,70,40,0
1,note_on,65,40,0
1,note_on,77,45,0
1,note_on,74,40,0
1,note_on,74,0,480
1,note_on,70,0,0
1,note_on,65,0,0
1,note_on,77,0,0
1,note_on,70,47,0
1,note_on,72,39,0
1,note_on,70,0,240
1,note_on,69,38,0
1,note_on,69,0,120
1,note_on,67,38,0
1,note_on,67,0,120
1,note_on,69,43,0
1,note_on,69,0,240
1,note_on,72,0,0
1,note_on,69,37,0
1,note_on,77,44,0
1,note_on,63,37,0
1,note_on,63,0,240
1,note_on,77,0,0
1,note_on,69,0,0
1,note_on,70,44,0
1,note_on,62,37,0
1,note_on,62,0,960
1,note_on,70,0,0
1,note_on,72,31,0
1,note_on,70,37,0
1,note_on,70,0,240
1,note_on,69,30,0
1,note_on,69,0,120
1,note_on,67,30,0
1,note_on,67,0,120
1,note_on,69,34,0
1,note_on,69,0,240
1,note_on,72,0,0
1,note_on,63,29,0
1,note_on,77,35,0
1,note_on,69,29,0
1,note_on,69,0,240
1,note_on,77,0,0
1,note_on,63,0,0
1,note_on,62,29,0
1,note_on,70,35,0
1,note_on,70,0,720
1,note_on,62,0,0
1,note_on,58,29,0
1,note_on,58,0,240
1,note_on,60,26,0
1,note_on,58,31,0
1,note_on,58,0,240
1,note_on,57,25,0
1,note_on,57,0,120
1,note_on,55,25,0
1,note_on,55,0,120
1,note_on,57,28,0
1,note_on,57,0,240
1,note_on,60,0,0
1,note_on,51,24,0
1,note_on,65,29,0
1,note_on,57,24,0
1,note_on,57,0,240
1,note_on,65,0,0
1,note_on,51,0,0
1,note_on,50,24,0
1,note_on,58,29,0
1,note_on,58,0,720
1,note_on,50,0,0
1,note_on,74,50,240
1,note_on,62,26,120
1,note_on,62,0,120
1,note_on,65,26,0
1,note_on,65,0,120
1,note_on,74,0,0
1,note_on,74,45,0
1,note_on,74,0,120
1,note_on,74,50,0
1,note_on,62,26,120
1,note_on,62,0,120
1,note_on,65,26,0
1,note_on,65,0,120
1,note_on,74,0,0
1,note_on,74,47,0
1,note_on,74,0,120
1,note_on,72,50,0
1,note_on,62,26,120
1,note_on,62,0,120
1,note_on,65,26,0
1,note_on,65,0,120
1,note_on,72,0,0
1,note_on,70,45,0
1,note_on,70,0,120
1,note_on,70,50,0
1,note_on,62,26,120
1,note_on,62,0,120
1,note_on,65,26,0
1,note_on,65,0,120
1,note_on,70,0,0
1,note_on,72,46,0
1,note_on,72,0,120
1,note_on,70,50,0
1,note_on,63,28,120
1,note_on,63,0,120
1,note_on,65,28,0
1,note_on,65,0,120
1,note_on,70,0,0
1,note_on,69,48,0
1,note_on,69,0,120
1,note_on,72,52,0
1,note_on,65,28,120
1,note_on,65,0,120
1,note_on,69,29,0
1,note_on,69,0,120
1,note_on,72,0,0
1,note_on,74,50,0
1,note_on,74,0,120
1,note_on,75,55,0
1,note_on,69,32,120
1,note_on,69,0,120
1,note_on,72,32,0
1,note_on,72,0,120
1,note_on,75,0,0
1,note_on,78,52,0
1,note_on,78,0,120
1,note_on,79,57,0
1,note_on,69,34,120
1,note_on,69,0,120
1,note_on,72,34,0
1,note_on,72,0,120
1,note_on,79,0,0
1,note_on,75,50,0
1,note_on,75,0,120
1,note_on,74,50,0
1,note_on,66,26,120
1,note_on,66,0,120
1,note_on,69,26,0
1,note_on,69,0,120
1,note_on,74,0,0
1,note_on,75,45,0
1,note_on,75,0,120
1,note_on,74,50,0
1,note_on,66,26,120
1,note_on,66,0,120
1,note_on,69,26,0
1,note_on,69,0,120
1,note_on,74,0,0
1,note_on,72,47,0
1,note_on,72,0,120
1,note_on,72,50,0
1,note_on,65,26,120
1,note_on,65,0,120
1,note_on,68,26,0
1,note_on,68,0,120
1,note_on,72,0,0
1,note_on,72,45,0
1,note_on,72,0,120
1,note_on,71,50,0
1,note_on,65,26,120
1,note_on,65,0,120
1,note_on,68,26,0
1,note_on,68,0,120
1,note_on,71,0,0
1,note_on,71,46,0
1,note_on,71,0,120
1,note_on,71,50,0
1,note_on,63,28,120
1,note_on,63,0,120
1,note_on,67,28,0
1,note_on,67,0,120
1,note_on,71,0,0
1,note_on,72,48,0
1,note_on,72,0,120
1,note_on,75,52,0
1,note_on,63,28,120
1,note_on,63,0,120
1,note_on,66,29,0
1,note_on,66,0,120
1,note_on,75,0,0
1,note_on,72,45,0
1,note_on,72,0,120
1,note_on,70,51,0
1,note_on,62,29,120
1,note_on,62,0,120
1,note_on,65,26,0
1,note_on,65,0,120
1,note_on,70,0,0
1,note_on,70,35,0
1,note_on,70,0,120
1,note_on,69,40,0
1,note_on,60,24,120
1,note_on,60,0,120
1,note_on,65,24,0
1,note_on,65,0,120
1,note_on,69,0,0
1,note_on,69,42,0
1,note_on,69,0,120
1,note_on,74,50,0
1,note_on,62,26,120
1,note_on,62,0,120
1,note_on,65,26,0
1,note_on,65,0,120
1,note_on,74,0,0
1,note_on,74,45,0
1,note_on,74,0,120
1,note_on,74,50,0
1,note_on,62,26,120
1,note_on,62,0,120
1,note_on,65,26,0
1,note_on,65,0,120
1,note_on,74,0,0
1,note_on,74,47,0
1,note_on,74,0,120
1,note_on,72,50,0
1,note_on,62,26,120
1,note_on,62,0,120
1,note_on,65,26,0
1,note_on,65,0,120
1,note_on,72,0,0
1,note_on,70,45,0
1,note_on,70,0,120
1,note_on,70,50,0
1,note_on,62,26,120
1,note_on,62,0,120
1,note_on,65,26,0
1,note_on,65,0,120
1,note_on,70,0,0
1,note_on,72,46,0
1,note_on,72,0,120
1,note_on,70,50,0
1,note_on,63,28,120
1,note_on,63,0,120
1,note_on,65,28,0
1,note_on,65,0,120
1,note_on,70,0,0
1,note_on,69,48,0
1,note_on,69,0,120
1,note_on,72,52,0
1,note_on,65,28,120
1,note_on,65,0,120
1,note_on,69,29,0
1,note_on,69,0,120
1,note_on,72,0,0
1,note_on,74,50,0
1,note_on,74,0,120
1,note_on,75,55,0
1,note_on,69,32,120
1,note_on,69,0,120
1,note_on,72,32,0
1,note_on,72,0,120
1,note_on,75,0,0
1,note_on,78,52,0
1,note_on,78,0,120
1,note_on,79,57,0
1,note_on,69,34,120
1,note_on,69,0,120
1,note_on,72,34,0
1,note_on,72,0,120
1,note_on,79,0,0
1,note_on,75,50,0
1,note_on,75,0,120
1,note_on,74,50,0
1,note_on,62,26,120
1,note_on,62,0,120
1,note_on,65,26,0
1,note_on,65,0,120
1,note_on,74,0,0
1,note_on,69,45,0
1,note_on,69,0,120
1,note_on,70,50,0
1,note_on,62,26,120
1,note_on,62,0,120
1,note_on,65,26,0
1,note_on,65,0,120
1,note_on,70,0,0
1,note_on,72,53,0
1,note_on,72,0,120
1,note_on,73,58,0
1,note_on,67,38,115
1,note_on,67,0,120
1,note_on,70,38,5
1,note_on,79,45,115
1,note_on,70,0,5
1,note_on,73,0,0
1,note_on,79,0,115
1,note_on,81,55,5
1,note_on,70,35,120
1,note_on,70,0,120
1,note_on,73,35,0
1,note_on,82,46,115
1,note_on,73,0,5
1,note_on,81,0,0
1,note_on,82,0,115
1,note_on,72,50,5
1,note_on,65,28,120
1,note_on,65,0,120
1,note_on,70,28,0
1,note_on,70,0,120
1,note_on,72,0,0
1,note_on,74,43,0
1,note_on,74,0,120
1,note_on,75,49,0
1,note_on,65,28,120
1,note_on,65,0,120
1,note_on,69,29,0
1,note_on,69,0,120
1,note_on,75,0,0
1,note_on,77,43,0
1,note_on,77,0,120
1,note_on,70,50,0
1,note_on,62,29,120
1,note_on,62,0,120
1,note_on,65,26,0
1,note_on,65,0,120
1,note_on,70,0,0
1,note_on,69,32,0
1,note_on,70,38,115
1,note_on,69,0,5
1,note_on,62,24,120
1,note_on,62,0,120
1,note_on,65,24,0
1,note_on,70,0,115
1,note_on,65,0,5
1,note_on,72,39,0
1,note_on,72,0,120
1,note_on,74,50,0
1,note_on,62,26,120
1,note_on,62,0,120
1,note_on,65,26,0
1,note_on,65,0,120
1,note_on,74,0,0
1,note_on,74,45,0
1,note_on,74,0,120
1,note_on,74,50,0
1,note_on,62,26,120
1,note_on,62,0,120
1,note_on,65,26,0
1,note_on,65,0,120
1,note_on,74,0,0
1,note_on,74,47,0
1,note_on,74,0,120
1,note_on,72,50,0
1,note_on,62,26,120
1,note_on,62,0,120
1,note_on,65,26,0
1,note_on,65,0,120
1,note_on,72,0,0
1,note_on,70,45,0
1,note_on,70,0,120
1,note_on,70,50,0
1,note_on,62,26,120
1,note_on,62,0,120
1,note_on,65,26,0
1,note_on,65,0,120
1,note_on,70,0,0
1,note_on,72,46,0
1,note_on,72,0,120
1,note_on,70,50,0
1,note_on,63,28,120
1,note_on,63,0,120
1,note_on,65,28,0
1,note_on,65,0,120
1,note_on,70,0,0
1,note_on,69,48,0
1,note_on,69,0,120
1,note_on,72,52,0
1,note_on,65,28,120
1,note_on,65,0,120
1,note_on,69,29,0
1,note_on,69,0,120
1,note_on,72,0,0
1,note_on,74,50,0
1,note_on,74,0,120
1,note_on,75,55,0
1,note_on,69,32,120
1,note_on,69,0,120
1,note_on,72,32,0
1,note_on,72,0,120
1,note_on,75,0,0
1,note_on,78,52,0
1,note_on,78,0,120
1,note_on,79,57,0
1,note_on,69,34,120
1,note_on,69,0,120
1,note_on,72,34,0
1,note_on,72,0,120
1,note_on,79,0,0
1,note_on,75,50,0
1,note_on,75,0,120
1,note_on,74,50,0
1,note_on,66,26,120
1,note_on,66,0,120
1,note_on,69,26,0
1,note_on,69,0,120
1,note_on,74,0,0
1,note_on,75,45,0
1,note_on,75,0,120
1,note_on,74,50,0
1,note_on,66,26,120
1,note_on,66,0,120
1,note_on,69,26,0
1,note_on,69,0,120
1,note_on,74,0,0
1,note_on,72,47,0
1,note_on,72,0,120
1,note_on,72,50,0
1,note_on,65,26,120
1,note_on,65,0,120
1,note_on,68,26,0
1,note_on,68,0,120
1,note_on,72,0,0
1,note_on,72,45,0
1,note_on,72,0,120
1,note_on,71,50,0
1,note_on,65,26,120
1,note_on,65,0,120
1,note_on,68,26,0
1,note_on,68,0,120
1,note_on,71,0,0
1,note_on,71,46,0
1,note_on,71,0,120
1,note_on,71,50,0
1,note_on,63,28,120
1,note_on,63,0,120
1,note_on,67,28,0
1,note_on,67,0,120
1,note_on,71,0,0
1,note_on,72,48,0
1,note_on,72,0,120
1,note_on,75,52,0
1,note_on,63,28,120
1,note_on,63,0,120
1,note_on,66,29,0
1,note_on,66,0,120
1,note_on,75,0,0
1,note_on,72,45,0
1,note_on,72,0,120
1,note_on,70,51,0
1,note_on,62,29,120
1,note_on,62,0,120
1,note_on,65,26,0
1,note_on,65,0,120
1,note_on,70,0,0
1,note_on,70,35,0
1,note_on,70,0,120
1,note_on,69,40,0
1,note_on,60,24,120
1,note_on,60,0,120
1,note_on,65,24,0
1,note_on,65,0,120
1,note_on,69,0,0
1,note_on,69,42,0
1,note_on,69,0,120
1,note_on,74,50,0
1,note_on,62,26,120
1,note_on,62,0,120
1,note_on,65,26,0
1,note_on,65,0,120
1,note_on,74,0,0
1,note_on,74,45,0
1,note_on,74,0,120
1,note_on,74,50,0
1,note_on,62,26,120
1,note_on,62,0,120
1,note_on,65,26,0
1,note_on,65,0,120
1,note_on,74,0,0
1,note_on,74,47,0
1,note_on,74,0,120
1,note_on,72,50,0
1,note_on,62,26,120
1,note_on,62,0,120
1,note_on,65,26,0
1,note_on,65,0,120
1,note_on,72,0,0
1,note_on,70,45,0
1,note_on,70,0,120
1,note_on,70,50,0
1,note_on,62,26,120
1,note_on,62,0,120
1,note_on,65,26,0
1,note_on,65,0,120
1,note_on,70,0,0
1,note_on,72,46,0
1,note_on,72,0,120
1,note_on,70,50,0
1,note_on,63,28,120
1,note_on,63,0,120
1,note_on,65,28,0
1,note_on,65,0,120
1,note_on,70,0,0
1,note_on,69,48,0
1,note_on,69,0,120
1,note_on,72,52,0
1,note_on,65,28,120
1,note_on,65,0,120
1,note_on,69,29,0
1,note_on,69,0,120
1,note_on,72,0,0
1,note_on,74,50,0
1,note_on,74,0,120
1,note_on,75,55,0
1,note_on,69,32,120
1,note_on,69,0,120
1,note_on,72,32,0
1,note_on,72,0,120
1,note_on,75,0,0
1,note_on,78,52,0
1,note_on,78,0,120
1,note_on,79,57,0
1,note_on,69,34,120
1,note_on,69,0,120
1,note_on,72,34,0
1,note_on,72,0,120
1,note_on,79,0,0
1,note_on,75,50,0
1,note_on,75,0,120
1,note_on,74,50,0
1,note_on,62,26,120
1,note_on,62,0,120
1,note_on,65,26,0
1,note_on,65,0,120
1,note_on,74,0,0
1,note_on,69,45,0
1,note_on,69,0,120
1,note_on,70,50,0
1,note_on,62,33,120
1,note_on,62,0,120
1,note_on,65,33,0
1,note_on,65,0,120
1,note_on,70,0,0
1,note_on,72,53,0
1,note_on,72,0,120
1,note_on,73,58,0
1,note_on,67,38,115
1,note_on,67,0,120
1,note_on,70,38,5
1,note_on,79,45,115
1,note_on,70,0,5
1,note_on,73,0,0
1,note_on,79,0,115
1,note_on,81,58,5
1,note_on,70,38,120
1,note_on,70,0,120
1,note_on,73,35,0
1,note_on,82,46,115
1,note_on,73,0,5
1,note_on,81,0,0
1,note_on,82,0,115
1,note_on,72,54,5
1,note_on,65,35,120
1,note_on,65,0,120
1,note_on,70,37,0
1,note_on,70,0,120
1,note_on,72,0,0
1,note_on,74,43,0
1,note_on,74,0,120
1,note_on,75,53,0
1,note_on,65,31,120
1,note_on,65,0,120
1,note_on,69,31,0
1,note_on,69,0,120
1,note_on,75,0,0
1,note_on,77,43,0
1,note_on,77,0,120
1,note_on,70,54,0
1,note_on,62,29,120
1,note_on,62,0,120
1,note_on,65,26,0
1,note_on,65,0,120
1,note_on,70,0,0
1,note_on,69,32,0
1,note_on,70,46,115
1,note_on,69,0,5
1,note_on,62,28,120
1,note_on,62,0,120
1,note_on,65,28,0
1,note_on,70,0,115
1,note_on,65,0,5
1,note_on,72,45,0
1,note_on,72,0,120
1,note_on,74,57,0
1,note_on,66,29,120
1,note_on,66,0,120
1,note_on,69,29,0
1,note_on,69,0,120
1,note_on,74,0,0
1,note_on,75,51,0
1,note_on,75,0,120
1,note_on,74,57,0
1,note_on,66,29,120
1,note_on,66,0,120
1,note_on,69,29,0
1,note_on,69,0,120
1,note_on,74,0,0
1,note_on,72,54,0
1,note_on,72,0,120
1,note_on,72,57,0
1,note_on,65,29,120
1,note_on,65,0,120
1,note_on,67,29,0
1,note_on,67,0,120
1,note_on,72,0,0
1,note_on,71,51,0
1,note_on,71,0,120
1,note_on,72,57,0
1,note_on,65,40,120
1,note_on,65,0,120
1,note_on,67,48,0
1,note_on,67,0,120
1,note_on,72,0,0
1,note_on,74,52,0
1,note_on,74,0,120
1,note_on,79,68,0
1,note_on,71,47,120
1,note_on,71,0,120
1,note_on,74,47,0
1,note_on,74,0,120
1,note_on,79,0,0
1,note_on,80,66,0
1,note_on,80,0,120
1,note_on,79,72,0
1,note_on,71,47,120
1,note_on,71,0,120
1,note_on,74,47,0
1,note_on,74,0,120
1,note_on,79,0,0
1,note_on,77,63,0
1,note_on,77,0,120
1,note_on,77,70,0
1,note_on,67,36,120
1,note_on,67,0,120
1,note_on,70,41,0
1,note_on,70,0,120
1,note_on,77,0,0
1,note_on,76,59,0
1,note_on,76,0,120
1,note_on,74,65,0
1,note_on,64,39,120
1,note_on,64,0,120
1,note_on,70,39,0
1,note_on,70,0,120
1,note_on,74,0,0
1,note_on,72,57,0
1,note_on,72,0,120
1,note_on,72,66,0
1,note_on,65,43,120
1,note_on,65,0,120
1,note_on,69,43,0
1,note_on,69,0,120
1,note_on,72,0,0
1,note_on,74,58,0
1,note_on,74,0,120
1,note_on,76,67,0
1,note_on,69,41,120
1,note_on,69,0,120
1,note_on,72,46,0
1,note_on,72,0,120
1,note_on,76,0,0
1,note_on,77,65,0
1,note_on,77,0,120
1,note_on,77,73,0
1,note_on,65,36,120
1,note_on,65,0,120
1,note_on,70,36,0
1,note_on,70,0,120
1,note_on,77,0,0
1,note_on,74,57,0
1,note_on,74,0,120
1,note_on,72,65,0
1,note_on,66,29,120
1,note_on,66,0,120
1,note_on,67,29,0
1,note_on,67,0,120
1,note_on,72,0,0
1,note_on,70,52,0
1,note_on,70,0,120
1,note_on,69,57,0
1,note_on,60,32,120
1,note_on,60,0,120
1,note_on,65,32,0
1,note_on,65,0,120
1,note_on,69,0,0
1,note_on,70,55,0
1,note_on,70,0,120
1,note_on,67,59,0
1,note_on,60,32,120
1,note_on,60,0,120
1,note_on,64,33,0
1,note_on,64,0,120
1,note_on,67,0,0
1,note_on,72,51,0
1,note_on,72,0,120
1,note_on,65,58,0
1,note_on,60,33,120
1,note_on,60,0,120
1,note_on,65,29,0
1,note_on,65,0,120
1,note_on,65,0,0
1,note_on,69,35,0
1,note_on,69,0,120
1,note_on,72,40,0
1,note_on,65,24,120
1,note_on,65,0,120
1,note_on,72,0,0
1,note_on,73,42,0
1,note_on,65,24,120
1,note_on,65,0,120
1,note_on,73,0,0
1,note_on,74,50,0
1,note_on,62,26,120
1,note_on,62,0,120
1,note_on,65,26,0
1,note_on,65,0,120
1,note_on,74,0,0
1,note_on,74,45,0
1,note_on,74,0,120
1,note_on,74,50,0
1,note_on,62,26,120
1,note_on,62,0,120
1,note_on,65,26,0
1,note_on,65,0,120
1,note_on,74,0,0
1,note_on,74,47,0
1,note_on,74,0,120
1,note_on,72,50,0
1,note_on,65,26,120
1,note_on,65,0,120
1,note_on,68,26,0
1,note_on,68,0,120
1,note_on,72,0,0
1,note_on,70,45,0
1,note_on,70,0,120
1,note_on,70,50,0
1,note_on,65,26,120
1,note_on,65,0,120
1,note_on,68,26,0
1,note_on,68,0,120
1,note_on,70,0,0
1,note_on,72,46,0
1,note_on,72,0,120
1,note_on,70,50,0
1,note_on,66,32,120
1,note_on,66,0,120
1,note_on,67,33,0
1,note_on,67,0,120
1,note_on,70,0,0
1,note_on,72,48,0
1,note_on,72,0,120
1,note_on,74,57,0
1,note_on,67,41,120
1,note_on,67,0,120
1,note_on,70,43,0
1,note_on,70,0,120
1,note_on,74,0,0
1,note_on,75,61,0
1,note_on,75,0,120
1,note_on,78,70,0
1,note_on,70,41,120
1,note_on,70,0,120
1,note_on,73,41,0
1,note_on,73,0,120
1,note_on,78,0,0
1,note_on,79,56,0
1,note_on,79,0,120
1,note_on,81,63,0
1,note_on,70,34,120
1,note_on,70,0,120
1,note_on,73,34,0
1,note_on,73,0,120
1,note_on,81,0,0
1,note_on,82,46,0
1,note_on,82,0,120
1,note_on,72,50,0
1,note_on,64,26,120
1,note_on,64,0,120
1,note_on,70,26,0
1,note_on,70,0,120
1,note_on,72,0,0
1,note_on,74,45,0
1,note_on,74,0,120
1,note_on,72,50,0
1,note_on,64,26,120
1,note_on,64,0,120
1,note_on,70,26,0
1,note_on,70,0,120
1,note_on,72,0,0
1,note_on,73,53,0
1,note_on,73,0,120
1,note_on,74,58,0
1,note_on,65,38,120
1,note_on,65,0,120
1,note_on,70,38,0
1,note_on,70,0,120
1,note_on,74,0,0
1,note_on,74,45,0
1,note_on,74,0,120
1,note_on,75,55,0
1,note_on,65,35,120
1,note_on,65,0,120
1,note_on,75,0,0
1,note_on,74,62,0
1,note_on,74,0,120
1,note_on,77,59,0
1,note_on,77,0,120
1,note_on,77,64,0
1,note_on,65,28,120
1,note_on,65,0,120
1,note_on,72,28,0
1,note_on,72,0,120
1,note_on,77,0,0
1,note_on,75,43,0
1,note_on,75,0,120
1,note_on,74,49,0
1,note_on,65,28,120
1,note_on,65,0,120
1,note_on,69,29,0
1,note_on,69,0,120
1,note_on,74,0,0
1,note_on,72,43,0
1,note_on,72,0,120
1,note_on,70,50,0
1,note_on,62,29,120
1,note_on,62,0,120
1,note_on,65,26,0
1,note_on,65,0,120
1,note_on,70,0,0
1,note_on,69,32,0
1,note_on,70,38,115
1,note_on,69,0,5
1,note_on,62,24,120
1,note_on,62,0,120
1,note_on,65,24,0
1,note_on,70,0,115
1,note_on,65,0,5
1,note_on,72,39,0
1,note_on,72,0,120
1,note_on,74,57,0
1,note_on,66,29,120
1,note_on,66,0,120
1,note_on,69,29,0
1,note_on,69,0,120
1,note_on,74,0,0
1,note_on,75,51,0
1,note_on,75,0,120
1,note_on,74,57,0
1,note_on,66,29,120
1,note_on,66,0,120
1,note_on,69,29,0
1,note_on,69,0,120
1,note_on,74,0,0
1,note_on,72,54,0
1,note_on,72,0,120
1,note_on,72,57,0
1,note_on,65,29,120
1,note_on,65,0,120
1,note_on,67,29,0
1,note_on,67,0,120
1,note_on,72,0,0
1,note_on,71,51,0
1,note_on,71,0,120
1,note_on,72,57,0
1,note_on,65,40,120
1,note_on,65,0,120
1,note_on,67,48,0
1,note_on,67,0,120
1,note_on,72,0,0
1,note_on,74,52,0
1,note_on,74,0,120
1,note_on,79,66,0
1,note_on,71,47,120
1,note_on,71,0,120
1,note_on,74,47,0
1,note_on,74,0,120
1,note_on,79,0,0
1,note_on,80,64,0
1,note_on,80,0,120
1,note_on,79,73,0
1,note_on,71,47,120
1,note_on,71,0,120
1,note_on,74,47,0
1,note_on,74,0,120
1,note_on,79,0,0
1,note_on,77,63,0
1,note_on,77,0,120
1,note_on,77,70,0
1,note_on,67,36,120
1,note_on,67,0,120
1,note_on,70,41,0
1,note_on,70,0,120
1,note_on,77,0,0
1,note_on,76,59,0
1,note_on,76,0,120
1,note_on,74,65,0
1,note_on,64,39,120
1,note_on,64,0,120
1,note_on,70,39,0
1,note_on,70,0,120
1,note_on,74,0,0
1,note_on,72,57,0
1,note_on,72,0,120
1,note_on,72,66,0
1,note_on,65,43,120
1,note_on,65,0,120
1,note_on,69,43,0
1,note_on,69,0,120
1,note_on,72,0,0
1,note_on,74,58,0
1,note_on,74,0,120
1,note_on,76,67,0
1,note_on,69,41,120
1,note_on,69,0,120
1,note_on,72,46,0
1,note_on,72,0,120
1,note_on,76,0,0
1,note_on,77,65,0
1,note_on,77,0,120
1,note_on,77,73,0
1,note_on,65,36,120
1,note_on,65,0,120
1,note_on,70,36,0
1,note_on,70,0,120
1,note_on,77,0,0
1,note_on,74,57,0
1,note_on,74,0,120
1,note_on,72,65,0
1,note_on,66,29,120
1,note_on,66,0,120
1,note_on,67,29,0
1,note_on,67,0,120
1,note_on,72,0,0
1,note_on,70,52,0
1,note_on,70,0,120
1,note_on,69,57,0
1,note_on,60,32,120
1,note_on,60,0,120
1,note_on,65,32,0
1,note_on,65,0,120
1,note_on,69,0,0
1,note_on,70,55,0
1,note_on,70,0,120
1,note_on,67,59,0
1,note_on,60,32,120
1,note_on,60,0,120
1,note_on,64,33,0
1,note_on,64,0,120
1,note_on,67,0,0
1,note_on,72,51,0
1,note_on,72,0,120
1,note_on,65,58,0
1,note_on,60,33,120
1,note_on,60,0,120
1,note_on,65,29,0
1,note_on,65,0,120
1,note_on,65,0,0
1,note_on,69,40,0
1,note_on,69,0,120
1,note_on,72,40,0
1,note_on,65,24,120
1,note_on,65,0,120
1,note_on,72,0,0
1,note_on,73,42,0
1,note_on,65,24,120
1,note_on,65,0,120
1,note_on,73,0,0
1,note_on,74,50,0
1,note_on,62,26,120
1,note_on,62,0,120
1,note_on,65,26,0
1,note_on,65,0,120
1,note_on,74,0,0
1,note_on,74,45,0
1,note_on,74,0,120
1,note_on,74,50,0
1,note_on,62,26,120
1,note_on,62,0,120
1,note_on,65,26,0
1,note_on,65,0,120
1,note_on,74,0,0
1,note_on,74,47,0
1,note_on,74,0,120
1,note_on,72,50,0
1,note_on,65,26,120
1,note_on,65,0,120
1,note_on,68,26,0
1,note_on,68,0,120
1,note_on,72,0,0
1,note_on,70,45,0
1,note_on,70,0,120
1,note_on,70,50,0
1,note_on,65,26,120
1,note_on,65,0,120
1,note_on,68,26,0
1,note_on,68,0,120
1,note_on,70,0,0
1,note_on,72,46,0
1,note_on,72,0,120
1,note_on,70,50,0
1,note_on,66,32,120
1,note_on,66,0,120
1,note_on,67,33,0
1,note_on,67,0,120
1,note_on,70,0,0
1,note_on,72,48,0
1,note_on,72,0,120
1,note_on,74,57,0
1,note_on,67,41,120
1,note_on,67,0,120
1,note_on,70,43,0
1,note_on,70,0,120
1,note_on,74,0,0
1,note_on,75,61,0
1,note_on,75,0,120
1,note_on,78,70,0
1,note_on,70,41,120
1,note_on,70,0,120
1,note_on,73,41,0
1,note_on,73,0,120
1,note_on,78,0,0
1,note_on,79,56,0
1,note_on,79,0,120
1,note_on,81,63,0
1,note_on,70,34,120
1,note_on,70,0,120
1,note_on,73,34,0
1,note_on,73,0,120
1,note_on,81,0,0
1,note_on,82,46,0
1,note_on,82,0,120
1,note_on,72,50,0
1,note_on,64,26,120
1,note_on,64,0,120
1,note_on,70,26,0
1,note_on,70,0,120
1,note_on,72,0,0
1,note_on,74,45,0
1,note_on,74,0,120
1,note_on,72,50,0
1,note_on,64,26,120
1,note_on,64,0,120
1,note_on,70,26,0
1,note_on,70,0,120
1,note_on,72,0,0
1,note_on,73,53,0
1,note_on,73,0,120
1,note_on,74,58,0
1,note_on,65,38,120
1,note_on,65,0,120
1,note_on,70,38,0
1,note_on,70,0,120
1,note_on,74,0,0
1,note_on,74,45,0
1,note_on,74,0,120
1,note_on,75,55,0
1,note_on,65,35,120
1,note_on,65,0,120
1,note_on,75,0,0
1,note_on,74,62,0
1,note_on,74,0,120
1,note_on,77,59,0
1,note_on,77,0,120
1,note_on,77,64,0
1,note_on,65,28,120
1,note_on,65,0,120
1,note_on,72,28,0
1,note_on,72,0,120
1,note_on,77,0,0
1,note_on,75,43,0
1,note_on,75,0,120
1,note_on,74,49,0
1,note_on,65,28,120
1,note_on,65,0,120
1,note_on,69,29,0
1,note_on,69,0,120
1,note_on,74,0,0
1,note_on,72,43,0
1,note_on,72,0,120
1,note_on,70,50,0
1,note_on,62,29,120
1,note_on,62,0,120
1,note_on,65,26,0
1,note_on,65,0,120
1,note_on,70,0,0
1,note_on,72,32,0
1,note_on,70,38,115
1,note_on,72,0,5
1,note_on,62,24,120
1,note_on,62,0,120
1,note_on,65,24,0
1,note_on,70,0,115
1,note_on,65,0,5
1,note_on,74,39,0
1,note_on,74,0,120
1,note_on,77,47,0
1,note_on,65,28,120
1,note_on,65,0,120
1,note_on,72,28,0
1,note_on,72,0,120
1,note_on,77,0,0
1,note_on,75,37,0
1,note_on,75,0,120
1,note_on,74,43,0
1,note_on,65,28,120
1,note_on,65,0,120
1,note_on,69,29,0
1,note_on,69,0,120
1,note_on,74,0,0
1,note_on,72,38,0
1,note_on,72,0,120
1,note_on,70,43,0
1,note_on,62,27,120
1,note_on,62,0,120
1,note_on,65,26,0
1,note_on,65,0,120
1,note_on,70,0,0
1,note_on,74,32,0
1,note_on,70,38,115
1,note_on,74,0,5
1,note_on,62,24,120
1,note_on,62,0,120
1,note_on,65,24,0
1,note_on,70,0,115
1,note_on,65,0,5
1,note_on,67,39,0
1,note_on,67,0,120
1,note_on,65,47,0
1,note_on,53,28,120
1,note_on,53,0,120
1,note_on,60,28,0
1,note_on,60,0,120
1,note_on,65,0,0
1,note_on,63,37,0
1,note_on,63,0,120
1,note_on,62,43,0
1,note_on,53,28,120
1,note_on,53,0,120
1,note_on,57,29,0
1,note_on,57,0,120
1,note_on,62,0,0
1,note_on,60,34,0
1,note_on,60,0,120
1,note_on,58,33,0
1,note_on,58,0,120
1,note_on,50,25,0
1,note_on,53,25,120
1,note_on,57,25,120
1,note_on,57,0,120
1,note_on,58,30,0
1,note_on,58,0,480
1,note_on,53,0,0
1,note_on,50,0,0
1,note_on,74,50,1920
1,note_on,74,0,240
1,note_on,73,50,0
1,note_on,73,0,120
1,note_on,74,45,0
1,note_on,74,0,120
1,note_on,73,53,0
1,note_on,73,0,120
1,note_on,74,45,0
1,note_on,74,0,120
1,note_on,70,45,0
1,note_on,70,0,120
1,note_on,67,45,0
1,note_on,67,0,108
1,note_on,67,56,12
1,note_on,67,0,480
1,note_on,65,50,0
1,note_on,65,0,240
1,note_on,70,46,180
1,note_on,70,0,60
1,note_on,69,52,0
1,note_on,69,0,120
1,note_on,70,43,0
1,note_on,70,0,40
1,note_on,69,43,0
1,note_on,69,0,40
1,note_on,67,43,0
1,note_on,67,0,40
1,note_on,69,51,0
1,note_on,69,0,120
1,note_on,70,45,0
1,note_on,70,0,120
1,note_on,71,51,0
1,note_on,71,0,120
1,note_on,72,42,0
1,note_on,72,0,120
1,note_on,73,46,0
1,note_on,73,0,120
1,note_on,74,49,0
1,note_on,74,0,120
1,note_on,77,63,0
1,note_on,77,0,480
1,note_on,75,59,0
1,note_on,75,0,240
1,note_on,74,59,240
1,note_on,74,0,240
1,note_on,76,53,0
1,note_on,76,0,120
1,note_on,77,53,0
1,note_on,77,0,120
1,note_on,81,59,0
1,note_on,81,0,120
1,note_on,82,52,0
1,note_on,82,0,120
1,note_on,77,52,0
1,note_on,77,0,120
1,note_on,74,52,0
1,note_on,74,0,120
1,note_on,72,59,0
1,note_on,72,0,240
1,note_on,78,52,0
1,note_on,78,0,120
1,note_on,79,52,0
1,note_on,79,0,120
1,note_on,81,59,0
1,note_on,81,0,120
1,note_on,82,52,0
1,note_on,82,0,120
1,note_on,79,52,0
1,note_on,79,0,120
1,note_on,72,52,0
1,note_on,72,0,120
1,note_on,72,59,0
1,note_on,72,0,120
1,note_on,84,65,0
1,note_on,84,0,120
1,note_on,83,63,0
1,note_on,83,0,120
1,note_on,82,59,0
1,note_on,82,0,120
1,note_on,81,59,0
1,note_on,81,0,120
1,note_on,72,51,0
1,note_on,72,0,120
1,note_on,70,51,0
1,note_on,70,0,120
1,note_on,79,59,0
1,note_on,79,0,120
1,note_on,69,59,0
1,note_on,69,0,120
1,note_on,77,49,0
1,note_on,77,0,120
1,note_on,72,56,0
1,note_on,72,0,120
1,note_on,75,46,0
1,note_on,75,0,120
1,note_on,70,59,0
1,note_on,70,0,120
1,note_on,74,49,0
1,note_on,74,0,120
1,note_on,69,59,0
1,note_on,69,0,120
1,note_on,72,46,0
1,note_on,72,0,120
1,note_on,70,50,0
1,note_on,70,0,60
1,note_on,86,57,60
1,note_on,86,0,120
1,note_on,85,57,0
1,note_on,85,0,120
1,note_on,86,51,0
1,note_on,86,0,120
1,note_on,85,60,0
1,note_on,85,0,120
1,note_on,86,51,0
1,note_on,86,0,120
1,note_on,82,51,0
1,note_on,82,0,120
1,note_on,79,51,0
1,note_on,79,0,108
1,note_on,79,64,12
1,note_on,79,0,480
1,note_on,77,57,0
1,note_on,77,0,240
1,note_on,82,52,180
1,note_on,82,0,60
1,note_on,81,59,0
1,note_on,81,0,120
1,note_on,82,49,0
1,note_on,82,0,40
1,note_on,81,49,0
1,note_on,81,0,40
1,note_on,79,49,0
1,note_on,79,0,40
1,note_on,81,58,0
1,note_on,81,0,120
1,note_on,82,51,0
1,note_on,82,0,120
1,note_on,83,58,0
1,note_on,83,0,120
1,note_on,84,48,0
1,note_on,84,0,120
1,note_on,85,52,0
1,note_on,85,0,120
1,note_on,86,56,0
1,note_on,86,0,120
1,note_on,89,69,0
1,note_on,89,0,360
1,note_on,88,65,0
1,note_on,88,0,120
1,note_on,87,67,0
1,note_on,87,0,240
1,note_on,86,67,240
1,note_on,86,0,240
1,note_on,88,60,0
1,note_on,88,0,120
1,note_on,89,60,0
1,note_on,89,0,120
1,note_on,93,67,0
1,note_on,93,0,120
1,note_on,94,62,0
1,note_on,94,0,120
1,note_on,89,64,0
1,note_on,89,0,120
1,note_on,86,66,0
1,note_on,86,0,120
1,note_on,85,74,0
1,note_on,85,0,240
1,note_on,91,59,0
1,note_on,91,0,120
1,note_on,94,59,0
1,note_on,94,0,120
1,note_on,96,73,0
1,note_on,96,0,120
1,note_on,97,59,0
1,note_on,97,0,120
1,note_on,94,59,0
1,note_on,94,0,120
1,note_on,85,59,0
1,note_on,85,0,120
1,note_on,84,50,0
1,note_on,84,0,120
1,note_on,86,54,0
1,note_on,86,0,120
1,note_on,87,58,0
1,note_on,87,0,120
1,note_on,88,61,0
1,note_on,88,0,120
1,note_on,89,59,0
1,note_on,89,0,120
1,note_on,91,51,0
1,note_on,91,0,120
1,note_on,87,51,0
1,note_on,87,0,120
1,note_on,84,48,0
1,note_on,84,0,120
1,note_on,82,59,0
1,note_on,82,0,120
1,note_on,77,49,0
1,note_on,77,0,120
1,note_on,74,50,0
1,note_on,74,0,120
1,note_on,70,46,0
1,note_on,70,0,120
1,note_on,69,52,0
1,note_on,69,0,120
1,note_on,70,49,0
1,note_on,70,0,120
1,note_on,72,47,0
1,note_on,72,0,120
1,note_on,73,44,0
1,note_on,73,0,120
1,note_on,74,50,0
1,note_on,74,0,240
1,note_on,73,50,0
1,note_on,73,0,120
1,note_on,74,45,0
1,note_on,74,0,120
1,note_on,73,53,0
1,note_on,73,0,120
1,note_on,74,45,0
1,note_on,74,0,120
1,note_on,70,45,0
1,note_on,70,0,120
1,note_on,67,45,0
1,note_on,67,0,108
1,note_on,67,56,12
1,note_on,67,0,480
1,note_on,65,50,0
1,note_on,65,0,240
1,note_on,70,46,180
1,note_on,70,0,60
1,note_on,69,52,0
1,note_on,69,0,120
1,note_on,70,43,0
1,note_on,70,0,40
1,note_on,69,43,0
1,note_on,69,0,40
1,note_on,67,43,0
1,note_on,67,0,40
1,note_on,69,51,0
1,note_on,69,0,120
1,note_on,70,45,0
1,note_on,70,0,120
1,note_on,71,51,0
1,note_on,71,0,120
1,note_on,72,42,0
1,note_on,72,0,120
1,note_on,73,46,0
1,note_on,73,0,120
1,note_on,74,49,0
1,note_on,74,0,120
1,note_on,77,63,0
1,note_on,77,0,480
1,note_on,75,59,0
1,note_on,75,0,240
1,note_on,74,59,240
1,note_on,74,0,240
1,note_on,76,53,0
1,note_on,76,0,120
1,note_on,77,53,0
1,note_on,77,0,120
1,note_on,81,59,0
1,note_on,81,0,120
1,note_on,82,52,0
1,note_on,82,0,120
1,note_on,77,52,0
1,note_on,77,0,120
1,note_on,74,52,0
1,note_on,74,0,120
1,note_on,72,59,0
1,note_on,72,0,240
1,note_on,78,52,0
1,note_on,78,0,120
1,note_on,79,52,0
1,note_on,79,0,120
1,note_on,81,59,0
1,note_on,81,0,120
1,note_on,82,52,0
1,note_on,82,0,120
1,note_on,79,52,0
1,note_on,79,0,120
1,note_on,72,52,0
1,note_on,72,0,120
1,note_on,72,59,0
1,note_on,72,0,120
1,note_on,84,65,0
1,note_on,84,0,120
1,note_on,83,63,0
1,note_on,83,0,120
1,note_on,82,59,0
1,note_on,82,0,120
1,note_on,81,59,0
1,note_on,81,0,120
1,note_on,72,51,0
1,note_on,72,0,120
1,note_on,70,51,0
1,note_on,70,0,120
1,note_on,79,59,0
1,note_on,79,0,120
1,note_on,69,59,0
1,note_on,69,0,120
1,note_on,77,49,0
1,note_on,77,0,120
1,note_on,72,56,0
1,note_on,72,0,120
1,note_on,75,46,0
1,note_on,75,0,120
1,note_on,70,59,0
1,note_on,70,0,120
1,note_on,74,49,0
1,note_on,74,0,120
1,note_on,69,59,0
1,note_on,69,0,120
1,note_on,72,46,0
1,note_on,72,0,120
1,note_on,70,50,0
1,note_on,70,0,60
1,note_on,86,57,60
1,note_on,86,0,120
1,note_on,85,57,0
1,note_on,85,0,120
1,note_on,86,51,0
1,note_on,86,0,120
1,note_on,85,60,0
1,note_on,85,0,120
1,note_on,86,51,0
1,note_on,86,0,120
1,note_on,82,51,0
1,note_on,82,0,120
1,note_on,79,51,0
1,note_on,79,0,108
1,note_on,79,64,12
1,note_on,79,0,480
1,note_on,77,57,0
1,note_on,77,0,240
1,note_on,82,52,180
1,note_on,82,0,60
1,note_on,81,59,0
1,note_on,81,0,120
1,note_on,82,49,0
1,note_on,82,0,40
1,note_on,81,49,0
1,note_on,81,0,40
1,note_on,79,49,0
1,note_on,79,0,40
1,note_on,81,58,0
1,note_on,81,0,120
1,note_on,82,51,0
1,note_on,82,0,120
1,note_on,83,58,0
1,note_on,83,0,120
1,note_on,84,48,0
1,note_on,84,0,120
1,note_on,85,52,0
1,note_on,85,0,120
1,note_on,86,56,0
1,note_on,86,0,120
1,note_on,89,69,0
1,note_on,89,0,360
1,note_on,88,65,0
1,note_on,88,0,120
1,note_on,87,67,0
1,note_on,87,0,240
1,note_on,86,67,240
1,note_on,86,0,240
1,note_on,88,60,0
1,note_on,88,0,120
1,note_on,89,60,0
1,note_on,89,0,120
1,note_on,93,67,0
1,note_on,93,0,120
1,note_on,94,62,0
1,note_on,94,0,120
1,note_on,89,64,0
1,note_on,89,0,120
1,note_on,86,66,0
1,note_on,86,0,120
1,note_on,85,74,0
1,note_on,85,0,240
1,note_on,91,59,0
1,note_on,91,0,120
1,note_on,94,59,0
1,note_on,94,0,120
1,note_on,96,73,0
1,note_on,96,0,120
1,note_on,97,59,0
1,note_on,97,0,120
1,note_on,94,59,0
1,note_on,94,0,120
1,note_on,85,59,0
1,note_on,85,0,120
1,note_on,84,50,0
1,note_on,84,0,120
1,note_on,86,54,0
1,note_on,86,0,120
1,note_on,87,58,0
1,note_on,87,0,120
1,note_on,88,61,0
1,note_on,88,0,120
1,note_on,89,59,0
1,note_on,89,0,120
1,note_on,91,51,0
1,note_on,91,0,120
1,note_on,87,51,0
1,note_on,87,0,120
1,note_on,84,48,0
1,note_on,84,0,120
1,note_on,82,59,0
1,note_on,82,0,120
1,note_on,77,49,0
1,note_on,77,0,120
1,note_on,74,50,0
1,note_on,74,0,120
1,note_on,70,46,0
1,note_on,70,0,120
1,note_on,69,52,0
1,note_on,69,0,120
1,note_on,70,49,0
1,note_on,70,0,120
1,note_on,72,47,0
1,note_on,72,0,120
1,note_on,73,44,0
1,note_on,73,0,120
1,note_on,74,63,0
1,note_on,74,0,120
1,note_on,66,57,120
1,note_on,69,57,0
1,note_on,74,69,0
1,note_on,72,57,0
1,note_on,72,0,480
1,note_on,66,0,0
1,note_on,69,0,0
1,note_on,74,0,0
1,note_on,66,48,0
1,note_on,74,57,0
1,note_on,69,48,0
1,note_on,72,48,0
1,note_on,72,0,240
1,note_on,66,0,0
1,note_on,74,0,0
1,note_on,69,0,0
1,note_on,74,63,240
1,note_on,67,63,0
1,note_on,79,75,0
1,note_on,70,63,0
1,note_on,70,0,480
1,note_on,74,0,0
1,note_on,67,0,0
1,note_on,79,0,0
1,note_on,74,48,0
1,note_on,70,48,0
1,note_on,67,48,0
1,note_on,79,57,0
1,note_on,79,0,240
1,note_on,74,0,0
1,note_on,70,0,0
1,note_on,67,0,0
1,note_on,66,57,240
1,note_on,74,68,0
1,note_on,66,0,240
1,note_on,67,70,0
1,note_on,67,0,240
1,note_on,74,0,0
1,note_on,77,67,0
1,note_on,65,56,0
1,note_on,74,56,0
1,note_on,67,56,0
1,note_on,67,0,240
1,note_on,77,0,0
1,note_on,65,0,0
1,note_on,74,0,0
1,note_on,72,67,0
1,note_on,67,68,0
1,note_on,64,68,0
1,note_on,76,80,0
1,note_on,72,0,720
1,note_on,70,57,0
1,note_on,70,0,240
1,note_on,76,0,0
1,note_on,64,0,0
1,note_on,67,0,0
1,note_on,72,63,240
1,note_on,69,63,0
1,note_on,77,63,0
1,note_on,81,75,0
1,note_on,81,0,480
1,note_on,72,0,0
1,note_on,69,0,0
1,note_on,77,0,0
1,note_on,72,48,0
1,note_on,69,48,0
1,note_on,77,48,0
1,note_on,81,57,0
1,note_on,81,0,240
1,note_on,72,0,0
1,note_on,69,0,0
1,note_on,77,0,0
1,note_on,74,69,0
1,note_on,74,0,240
1,note_on,79,57,0
1,note_on,79,0,120
1,note_on,82,57,0
1,note_on,82,0,120
1,note_on,85,65,0
1,note_on,85,0,120
1,note_on,86,57,0
1,note_on,86,0,120
1,note_on,91,65,0
1,note_on,91,0,120
1,note_on,94,68,0
1,note_on,94,0,120
1,note_on,88,76,0
1,note_on,88,0,120
1,note_on,96,70,0
1,note_on,96,0,120
1,note_on,94,71,0
1,note_on,94,0,120
1,note_on,91,66,0
1,note_on,91,0,120
1,note_on,88,74,0
1,note_on,88,0,120
1,note_on,84,72,0
1,note_on,84,0,120
1,note_on,82,69,0
1,note_on,82,0,120
1,note_on,79,67,0
1,note_on,79,0,120
1,note_on,77,60,0
1,note_on,77,0,240
1,note_on,75,53,0
1,note_on,77,53,0
1,note_on,72,53,0
1,note_on,69,53,0
1,note_on,69,0,720
1,note_on,75,0,0
1,note_on,77,0,0
1,note_on,72,0,0
1,note_on,86,70,0
1,note_on,86,0,240
1,note_on,85,57,0
1,note_on,85,0,120
1,note_on,86,51,0
1,note_on,86,0,120
1,note_on,85,60,0
1,note_on,85,0,120
1,note_on,86,51,0
1,note_on,86,0,120
1,note_on,89,51,0
1,note_on,89,0,120
1,note_on,86,51,0
1,note_on,86,0,120
1,note_on,84,64,0
1,note_on,84,0,480
1,note_on,82,57,0
1,note_on,82,0,240
1,note_on,82,52,180
1,note_on,82,0,60
1,note_on,81,59,0
1,note_on,81,0,120
1,note_on,82,49,0
1,note_on,82,0,120
1,note_on,84,58,0
1,note_on,84,0,120
1,note_on,86,51,0
1,note_on,86,0,120
1,note_on,87,58,0
1,note_on,87,0,120
1,note_on,88,48,0
1,note_on,88,0,120
1,note_on,89,52,0
1,note_on,89,0,120
1,note_on,90,56,0
1,note_on,90,0,120
1,note_on,91,69,0
1,note_on,91,0,60
1,note_on,93,58,0
1,note_on,93,0,60
1,note_on,91,63,0
1,note_on,91,0,60
1,note_on,93,58,0
1,note_on,93,0,60
1,note_on,91,63,0
1,note_on,91,0,60
1,note_on,90,62,0
1,note_on,90,0,60
1,note_on,91,66,0
1,note_on,91,0,60
1,note_on,93,70,0
1,note_on,93,0,60
1,note_on,94,74,0
1,note_on,94,0,120
1,note_on,72,41,300
1,note_on,72,0,30
1,note_on,74,41,0
1,note_on,74,0,30
1,note_on,72,51,0
1,note_on,72,0,240
1,note_on,71,40,0
1,note_on,71,0,120
1,note_on,72,43,0
1,note_on,72,0,120
1,note_on,76,54,0
1,note_on,76,0,120
1,note_on,82,42,0
1,note_on,82,0,120
1,note_on,79,42,0
1,note_on,79,0,120
1,note_on,76,42,0
1,note_on,76,0,60
1,note_on,77,33,0
1,note_on,77,0,30
1,note_on,79,34,0
1,note_on,79,0,30
1,note_on,77,52,0
1,note_on,77,0,240
1,note_on,76,42,0
1,note_on,76,0,120
1,note_on,77,42,0
1,note_on,77,0,120
1,note_on,82,58,0
1,note_on,82,0,120
1,note_on,89,43,0
1,note_on,89,0,120
1,note_on,86,43,0
1,note_on,86,0,120
1,note_on,82,37,0
1,note_on,82,0,120
1,note_on,81,38,0
1,note_on,81,0,90
1,note_on,82,32,30
1,note_on,82,0,90
1,note_on,84,35,30
1,note_on,84,0,90
1,note_on,86,38,30
1,note_on,86,0,90
1,note_on,87,41,30
1,note_on,87,0,90
1,note_on,89,44,30
1,note_on,89,0,90
1,note_on,91,48,30
1,note_on,91,0,90
1,note_on,93,51,30
1,note_on,93,0,60
1,note_on,96,51,0
1,note_on,96,0,60
1,note_on,94,54,0
1,note_on,94,0,90
1,note_on,89,50,30
1,note_on,89,0,90
1,note_on,86,48,30
1,note_on,86,0,90
1,note_on,82,45,30
1,note_on,82,0,90
1,note_on,77,42,30
1,note_on,77,0,90
1,note_on,74,40,30
1,note_on,74,0,90
1,note_on,70,37,30
1,note_on,70,0,90
1,note_on,72,34,30
1,note_on,72,0,90
1,note_on,74,63,30
1,note_on,74,0,120
1,note_on,69,57,120
1,note_on,74,69,0
1,note_on,72,57,0
1,note_on,66,57,0
1,note_on,66,0,480
1,note_on,69,0,0
1,note_on,74,0,0
1,note_on,72,0,0
1,note_on,69,48,0
1,note_on,74,57,0
1,note_on,72,48,0
1,note_on,66,48,0
1,note_on,66,0,240
1,note_on,69,0,0
1,note_on,74,0,0
1,note_on,72,0,0
1,note_on,70,63,240
1,note_on,67,63,0
1,note_on,74,63,0
1,note_on,79,75,0
1,note_on,79,0,480
1,note_on,70,0,0
1,note_on,67,0,0
1,note_on,74,0,0
1,note_on,67,48,0
1,note_on,79,57,0
1,note_on,74,48,0
1,note_on,70,48,0
1,note_on,70,0,240
1,note_on,67,0,0
1,note_on,79,0,0
1,note_on,74,0,0
1,note_on,66,57,240
1,note_on,74,68,0
1,note_on,66,0,240
1,note_on,67,70,0
1,note_on,67,0,240
1,note_on,74,0,0
1,note_on,74,56,0
1,note_on,67,56,0
1,note_on,65,56,0
1,note_on,77,67,0
1,note_on,77,0,240
1,note_on,74,0,0
1,note_on,67,0,0
1,note_on,65,0,0
1,note_on,67,68,0
1,note_on,76,80,0
1,note_on,72,67,0
1,note_on,64,68,0
1,note_on,72,0,720
1,note_on,70,57,0
1,note_on,70,0,240
1,note_on,64,0,0
1,note_on,76,0,0
1,note_on,67,0,0
1,note_on,72,63,240
1,note_on,77,63,0
1,note_on,69,63,0
1,note_on,81,75,0
1,note_on,81,0,480
1,note_on,72,0,0
1,note_on,77,0,0
1,note_on,69,0,0
1,note_on,69,48,0
1,note_on,77,48,0
1,note_on,81,57,0
1,note_on,72,48,0
1,note_on,72,0,240
1,note_on,69,0,0
1,note_on,77,0,0
1,note_on,81,0,0
1,note_on,74,69,0
1,note_on,74,0,240
1,note_on,79,57,0
1,note_on,79,0,120
1,note_on,82,57,0
1,note_on,82,0,120
1,note_on,85,65,0
1,note_on,85,0,120
1,note_on,86,57,0
1,note_on,86,0,120
1,note_on,91,65,0
1,note_on,91,0,120
1,note_on,94,68,0
1,note_on,94,0,120
1,note_on,88,76,0
1,note_on,88,0,120
1,note_on,96,70,0
1,note_on,96,0,120
1,note_on,94,71,0
1,note_on,94,0,120
1,note_on,91,66,0
1,note_on,91,0,120
1,note_on,88,74,0
1,note_on,88,0,120
1,note_on,84,72,0
1,note_on,84,0,120
1,note_on,82,69,0
1,note_on,82,0,120
1,note_on,79,67,0
1,note_on,79,0,120
1,note_on,77,60,0
1,note_on,77,0,240
1,note_on,75,53,0
1,note_on,69,53,0
1,note_on,77,53,0
1,note_on,72,53,0
1,note_on,72,0,720
1,note_on,75,0,0
1,note_on,69,0,0
1,note_on,77,0,0
1,note_on,86,70,0
1,note_on,86,0,240
1,note_on,85,57,0
1,note_on,85,0,120
1,note_on,86,51,0
1,note_on,86,0,120
1,note_on,85,60,0
1,note_on,85,0,120
1,note_on,86,51,0
1,note_on,86,0,120
1,note_on,89,51,0
1,note_on,89,0,120
1,note_on,86,51,0
1,note_on,86,0,120
1,note_on,84,64,0
1,note_on,84,0,480
1,note_on,82,57,0
1,note_on,82,0,240
1,note_on,82,52,180
1,note_on,82,0,60
1,note_on,81,59,0
1,note_on,81,0,120
1,note_on,82,49,0
1,note_on,82,0,120
1,note_on,84,58,0
1,note_on,84,0,120
1,note_on,86,51,0
1,note_on,86,0,120
1,note_on,87,58,0
1,note_on,87,0,120
1,note_on,88,48,0
1,note_on,88,0,120
1,note_on,89,52,0
1,note_on,89,0,120
1,note_on,90,56,0
1,note_on,90,0,120
1,note_on,91,69,0
1,note_on,91,0,60
1,note_on,93,58,0
1,note_on,93,0,60
1,note_on,91,63,0
1,note_on,91,0,60
1,note_on,93,58,0
1,note_on,93,0,60
1,note_on,91,63,0
1,note_on,91,0,60
1,note_on,90,62,0
1,note_on,90,0,60
1,note_on,91,66,0
1,note_on,91,0,60
1,note_on,93,70,0
1,note_on,93,0,60
1,note_on,94,74,0
1,note_on,94,0,120
1,note_on,72,41,300
1,note_on,72,0,30
1,note_on,74,41,0
1,note_on,74,0,30
1,note_on,72,51,0
1,note_on,72,0,240
1,note_on,71,40,0
1,note_on,71,0,120
1,note_on,72,43,0
1,note_on,72,0,120
1,note_on,76,54,0
1,note_on,76,0,120
1,note_on,82,42,0
1,note_on,82,0,120
1,note_on,79,42,0
1,note_on,79,0,120
1,note_on,76,42,0
1,note_on,76,0,60
1,note_on,77,33,0
1,note_on,77,0,30
1,note_on,79,34,0
1,note_on,79,0,30
1,note_on,77,52,0
1,note_on,77,0,240
1,note_on,76,42,0
1,note_on,76,0,120
1,note_on,77,42,0
1,note_on,77,0,120
1,note_on,82,58,0
1,note_on,82,0,120
1,note_on,89,43,0
1,note_on,89,0,120
1,note_on,86,43,0
1,note_on,86,0,120
1,note_on,82,37,0
1,note_on,82,0,120
1,note_on,81,38,0
1,note_on,81,0,90
1,note_on,82,32,30
1,note_on,82,0,90
1,note_on,84,35,30
1,note_on,84,0,90
1,note_on,86,38,30
1,note_on,86,0,90
1,note_on,87,41,30
1,note_on,87,0,90
1,note_on,89,44,30
1,note_on,89,0,90
1,note_on,91,48,30
1,note_on,91,0,90
1,note_on,93,51,30
1,note_on,93,0,60
1,note_on,96,51,0
1,note_on,96,0,60
1,note_on,94,54,0
1,note_on,94,0,90
1,note_on,93,50,30
1,note_on,93,0,90
1,note_on,91,48,30
1,note_on,91,0,90
1,note_on,89,45,30
1,note_on,89,0,90
1,note_on,87,42,30
1,note_on,87,0,90
1,note_on,86,40,30
1,note_on,86,0,90
1,note_on,84,37,30
1,note_on,84,0,90
1,note_on,83,34,30
1,note_on,83,0,60
1,note_on,86,51,0
1,note_on,86,0,60
1,note_on,84,54,0
1,note_on,84,0,90
1,note_on,82,50,30
1,note_on,82,0,90
1,note_on,81,48,30
1,note_on,81,0,90
1,note_on,79,45,30
1,note_on,79,0,90
1,note_on,77,42,30
1,note_on,77,0,90
1,note_on,75,40,30
1,note_on,75,0,90
1,note_on,74,37,30
1,note_on,74,0,90
1,note_on,73,34,30
1,note_on,73,0,60
1,note_on,84,51,0
1,note_on,84,0,60
1,note_on,74,49,0
1,note_on,82,54,0
1,note_on,82,0,90
1,note_on,74,0,0
1,note_on,81,50,30
1,note_on,81,0,90
1,note_on,79,48,30
1,note_on,79,0,90
1,note_on,77,45,30
1,note_on,77,0,90
1,note_on,75,42,30
1,note_on,75,0,90
1,note_on,74,40,30
1,note_on,74,0,90
1,note_on,72,37,30
1,note_on,72,0,90
1,note_on,71,34,30
1,note_on,71,0,60
1,note_on,74,45,0
1,note_on,74,0,60
1,note_on,72,48,0
1,note_on,72,0,90
1,note_on,70,45,30
1,note_on,70,0,90
1,note_on,69,43,30
1,note_on,69,0,90
1,note_on,67,40,30
1,note_on,67,0,90
1,note_on,65,37,30
1,note_on,65,0,90
1,note_on,63,36,30
1,note_on,63,0,90
1,note_on,62,33,30
1,note_on,62,0,90
1,note_on,60,30,30
1,note_on,60,0,90
1,note_on,65,46,750
1,note_on,65,0,240
1,note_on,61,42,0
1,note_on,65,42,0
1,note_on,73,55,0
1,note_on,73,0,720
1,note_on,65,0,0
1,note_on,61,0,0
1,note_on,65,38,0
1,note_on,73,51,0
1,note_on,61,38,0
1,note_on,61,0,240
1,note_on,73,0,0
1,note_on,65,0,0
1,note_on,60,42,0
1,note_on,72,55,0
1,note_on,65,42,0
1,note_on,72,0,480
1,note_on,60,0,0
1,note_on,70,44,0
1,note_on,58,33,0
1,note_on,58,0,240
1,note_on,70,0,0
1,note_on,65,0,0
1,note_on,65,37,0
1,note_on,70,48,0
1,note_on,58,37,0
1,note_on,58,0,240
1,note_on,70,0,0
1,note_on,65,0,0
1,note_on,58,45,0
1,note_on,65,53,0
1,note_on,70,58,0
1,note_on,70,0,360
1,note_on,58,0,0
1,note_on,57,42,0
1,note_on,69,55,0
1,note_on,69,0,120
1,note_on,57,0,0
1,note_on,65,0,0
1,note_on,60,45,0
1,note_on,72,59,0
1,note_on,72,0,160
1,note_on,60,0,0
1,note_on,63,47,0
1,note_on,75,61,0
1,note_on,75,0,160
1,note_on,63,0,0
1,note_on,66,48,0
1,note_on,75,48,0
1,note_on,72,48,0
1,note_on,78,62,0
1,note_on,78,0,160
1,note_on,66,0,0
1,note_on,75,0,0
1,note_on,72,0,0
1,note_on,75,50,0
1,note_on,72,50,0
1,note_on,65,50,0
1,note_on,77,64,0
1,note_on,77,0,720
1,note_on,75,0,0
1,note_on,72,0,0
1,note_on,65,0,0
1,note_on,75,62,0
1,note_on,63,48,0
1,note_on,63,0,240
1,note_on,75,0,0
1,note_on,63,55,0
1,note_on,75,71,0
1,note_on,75,0,360
1,note_on,63,0,0
1,note_on,61,51,0
1,note_on,73,67,0
1,note_on,73,0,120
1,note_on,61,0,0
1,note_on,58,56,0
1,note_on,70,72,0
1,note_on,70,0,120
1,note_on,58,0,0
1,note_on,72,69,40
1,note_on,60,54,0
1,note_on,60,0,120
1,note_on,72,0,0
1,note_on,61,54,40
1,note_on,73,69,0
1,note_on,73,0,120
1,note_on,61,0,0
1,note_on,65,62,40
1,note_on,77,80,0
1,note_on,77,0,360
1,note_on,65,0,0
1,note_on,63,53,0
1,note_on,75,68,0
1,note_on,75,0,108
1,note_on,63,0,0
1,note_on,63,60,12
1,note_on,75,77,0
1,note_on,75,0,120
1,note_on,63,0,0
1,note_on,73,67,40
1,note_on,61,52,0
1,note_on,61,0,120
1,note_on,73,0,0
1,note_on,72,67,40
1,note_on,60,52,0
1,note_on,60,0,120
1,note_on,72,0,0
1,note_on,70,74,40
1,note_on,58,57,0
1,note_on,58,0,360
1,note_on,70,0,0
1,note_on,69,63,0
1,note_on,57,49,0
1,note_on,57,0,120
1,note_on,69,0,0
1,note_on,70,74,0
1,note_on,58,57,0
1,note_on,58,0,160
1,note_on,70,0,0
1,note_on,73,64,0
1,note_on,61,50,0
1,note_on,61,0,160
1,note_on,73,0,0
1,note_on,60,50,0
1,note_on,72,64,0
1,note_on,72,0,144
1,note_on,60,0,0
1,note_on,60,57,16
1,note_on,72,74,0
1,note_on,72,0,720
1,note_on,60,0,0
1,note_on,65,70,0
1,note_on,65,0,240
1,note_on,61,67,0
1,note_on,73,79,0
1,note_on,65,67,0
1,note_on,65,0,720
1,note_on,73,0,0
1,note_on,61,0,0
1,note_on,73,73,0
1,note_on,65,62,0
1,note_on,61,62,0
1,note_on,61,0,240
1,note_on,65,0,0
1,note_on,73,0,0
1,note_on,72,78,0
1,note_on,65,66,0
1,note_on,60,66,0
1,note_on,60,0,480
1,note_on,72,0,0
1,note_on,58,55,0
1,note_on,70,65,0
1,note_on,70,0,240
1,note_on,58,0,0
1,note_on,65,0,0
1,note_on,65,60,0
1,note_on,70,71,0
1,note_on,58,60,0
1,note_on,58,0,240
1,note_on,70,0,0
1,note_on,65,0,0
1,note_on,65,68,0
1,note_on,70,75,0
1,note_on,58,58,0
1,note_on,58,0,360
1,note_on,70,0,0
1,note_on,69,71,0
1,note_on,57,54,0
1,note_on,57,0,120
1,note_on,69,0,0
1,note_on,65,0,0
1,note_on,72,76,0
1,note_on,60,58,0
1,note_on,60,0,160
1,note_on,72,0,0
1,note_on,63,61,0
1,note_on,75,79,0
1,note_on,75,0,160
1,note_on,63,0,0
1,note_on,72,62,0
1,note_on,66,62,0
1,note_on,78,80,0
1,note_on,75,62,0
1,note_on,75,0,160
1,note_on,72,0,0
1,note_on,66,0,0
1,note_on,78,0,0
1,note_on,65,65,0
1,note_on,77,83,0
1,note_on,75,65,0
1,note_on,72,65,0
1,note_on,72,0,720
1,note_on,65,0,0
1,note_on,77,0,0
1,note_on,75,0,0
1,note_on,63,52,0
1,note_on,75,68,0
1,note_on,75,0,240
1,note_on,63,0,0
1,note_on,63,60,0
1,note_on,75,78,0
1,note_on,75,0,360
1,note_on,63,0,0
1,note_on,61,51,0
1,note_on,73,67,0
1,note_on,73,0,120
1,note_on,61,0,0
1,note_on,58,56,0
1,note_on,70,72,0
1,note_on,70,0,120
1,note_on,58,0,0
1,note_on,72,69,40
1,note_on,60,54,0
1,note_on,60,0,120
1,note_on,72,0,0
1,note_on,61,54,40
1,note_on,73,69,0
1,note_on,73,0,120
1,note_on,61,0,0
1,note_on,60,59,40
1,note_on,72,76,0
1,note_on,72,0,360
1,note_on,60,0,0
1,note_on,58,45,0
1,note_on,70,57,0
1,note_on,70,0,120
1,note_on,58,0,0
1,note_on,61,51,0
1,note_on,73,65,0
1,note_on,73,0,120
1,note_on,61,0,0
1,note_on,60,44,40
1,note_on,72,56,0
1,note_on,72,0,120
1,note_on,60,0,0
1,note_on,58,44,40
1,note_on,70,56,0
1,note_on,70,0,120
1,note_on,58,0,0
1,note_on,54,48,40
1,note_on,66,62,0
1,note_on,66,0,360
1,note_on,54,0,0
1,note_on,53,38,0
1,note_on,65,50,0
1,note_on,65,0,120
1,note_on,53,0,0
1,note_on,53,45,0
1,note_on,65,58,0
1,note_on,65,0,120
1,note_on,53,0,0
1,note_on,54,39,40
1,note_on,66,50,0
1,note_on,66,0,120
1,note_on,54,0,0
1,note_on,53,38,40
1,note_on,65,49,0
1,note_on,65,0,120
1,note_on,53,0,0
1,note_on,58,55,40
1,note_on,58,0,720
1,note_on,77,50,0
1,note_on,77,0,240
1,note_on,85,60,0
1,note_on,77,46,0
1,note_on,73,46,0
1,note_on,73,0,720
1,note_on,77,0,0
1,note_on,85,0,0
1,note_on,77,41,0
1,note_on,73,41,0
1,note_on,85,56,0
1,note_on,85,0,240
1,note_on,73,0,0
1,note_on,77,0,0
1,note_on,72,46,0
1,note_on,77,46,0
1,note_on,84,60,0
1,note_on,84,0,480
1,note_on,72,0,0
1,note_on,70,36,0
1,note_on,82,48,0
1,note_on,82,0,240
1,note_on,70,0,0
1,note_on,77,0,0
1,note_on,82,52,0
1,note_on,70,40,0
1,note_on,77,40,0
1,note_on,77,0,240
1,note_on,70,0,0
1,note_on,82,0,0
1,note_on,77,58,0
1,note_on,70,49,0
1,note_on,82,63,0
1,note_on,82,0,360
1,note_on,70,0,0
1,note_on,69,46,0
1,note_on,81,60,0
1,note_on,81,0,120
1,note_on,69,0,0
1,note_on,77,0,0
1,note_on,72,49,0
1,note_on,84,64,0
1,note_on,84,0,160
1,note_on,72,0,0
1,note_on,87,67,0
1,note_on,75,51,0
1,note_on,75,0,160
1,note_on,87,0,0
1,note_on,87,52,0
1,note_on,84,52,0
1,note_on,90,68,0
1,note_on,78,52,0
1,note_on,78,0,160
1,note_on,87,0,0
1,note_on,84,0,0
1,note_on,90,0,0
1,note_on,84,55,0
1,note_on,77,55,0
1,note_on,89,70,0
1,note_on,87,55,0
1,note_on,87,0,720
1,note_on,84,0,0
1,note_on,77,0,0
1,note_on,89,0,0
1,note_on,75,54,0
1,note_on,87,71,0
1,note_on,87,0,240
1,note_on,75,0,0
1,note_on,75,63,0
1,note_on,87,81,0
1,note_on,87,0,360
1,note_on,75,0,0
1,note_on,73,56,0
1,note_on,85,73,0
1,note_on,85,0,120
1,note_on,73,0,0
1,note_on,70,61,0
1,note_on,82,79,0
1,note_on,82,0,120
1,note_on,70,0,0
1,note_on,72,59,40
1,note_on,84,75,0
1,note_on,84,0,120
1,note_on,72,0,0
1,note_on,73,59,40
1,note_on,85,75,0
1,note_on,85,0,75
1,note_on,73,0,0
1,note_on,85,62,25
1,note_on,85,0,60
1,note_on,77,68,0
1,note_on,89,88,0
1,note_on,89,0,360
1,note_on,77,0,0
1,note_on,75,58,0
1,note_on,87,74,0
1,note_on,87,0,120
1,note_on,75,0,0
1,note_on,87,84,0
1,note_on,75,66,0
1,note_on,75,0,120
1,note_on,87,0,0
1,note_on,73,57,40
1,note_on,85,73,0
1,note_on,85,0,120
1,note_on,73,0,0
1,note_on,72,57,40
1,note_on,84,73,0
1,note_on,84,0,120
1,note_on,72,0,0
1,note_on,70,62,40
1,note_on,82,81,0
1,note_on,82,0,360
1,note_on,70,0,0
1,note_on,69,53,0
1,note_on,81,69,0
1,note_on,81,0,120
1,note_on,69,0,0
1,note_on,82,81,0
1,note_on,70,62,0
1,note_on,70,0,160
1,note_on,82,0,0
1,note_on,85,70,0
1,note_on,73,55,0
1,note_on,73,0,160
1,note_on,85,0,0
1,note_on,84,70,0
1,note_on,72,55,0
1,note_on,72,0,160
1,note_on,84,0,0
1,note_on,84,81,0
1,note_on,72,62,0
1,note_on,72,0,720
1,note_on,84,0,0
1,note_on,77,77,0
1,note_on,77,0,240
1,note_on,77,73,0
1,note_on,85,86,0
1,note_on,73,73,0
1,note_on,73,0,720
1,note_on,85,0,0
1,note_on,77,0,0
1,note_on,73,68,0
1,note_on,85,80,0
1,note_on,77,68,0
1,note_on,77,0,240
1,note_on,85,0,0
1,note_on,73,0,0
1,note_on,77,72,0
1,note_on,72,72,0
1,note_on,84,85,0
1,note_on,84,0,480
1,note_on,72,0,0
1,note_on,70,60,0
1,note_on,82,71,0
1,note_on,82,0,240
1,note_on,70,0,0
1,note_on,77,0,0
1,note_on,82,78,0
1,note_on,77,66,0
1,note_on,70,66,0
1,note_on,70,0,240
1,note_on,77,0,0
1,note_on,82,0,0
1,note_on,82,82,0
1,note_on,70,63,0
1,note_on,77,74,0
1,note_on,70,0,360
1,note_on,82,0,0
1,note_on,69,59,0
1,note_on,81,78,0
1,note_on,81,0,120
1,note_on,69,0,0
1,note_on,77,0,0
1,note_on,84,83,0
1,note_on,72,63,0
1,note_on,72,0,160
1,note_on,84,0,0
1,note_on,75,67,0
1,note_on,87,86,0
1,note_on,87,0,160
1,note_on,75,0,0
1,note_on,78,68,0
1,note_on,90,88,0
1,note_on,84,68,0
1,note_on,87,68,0
1,note_on,87,0,160
1,note_on,78,0,0
1,note_on,90,0,0
1,note_on,84,0,0
1,note_on,84,71,0
1,note_on,87,71,0
1,note_on,89,91,0
1,note_on,77,71,0
1,note_on,77,0,720
1,note_on,84,0,0
1,note_on,87,0,0
1,note_on,89,0,0
1,note_on,75,63,0
1,note_on,87,77,0
1,note_on,87,0,240
1,note_on,75,0,0
1,note_on,75,63,0
1,note_on,87,81,0
1,note_on,87,0,360
1,note_on,75,0,0
1,note_on,73,53,0
1,note_on,85,69,0
1,note_on,85,0,120
1,note_on,73,0,0
1,note_on,82,75,0
1,note_on,70,57,0
1,note_on,70,0,120
1,note_on,82,0,0
1,note_on,84,71,40
1,note_on,72,56,0
1,note_on,72,0,120
1,note_on,84,0,0
1,note_on,85,71,40
1,note_on,73,56,0
1,note_on,73,0,120
1,note_on,85,0,0
1,note_on,84,78,40
1,note_on,72,60,0
1,note_on,72,0,360
1,note_on,84,0,0
1,note_on,82,58,0
1,note_on,70,46,0
1,note_on,70,0,120
1,note_on,82,0,0
1,note_on,85,67,0
1,note_on,73,53,0
1,note_on,73,0,120
1,note_on,85,0,0
1,note_on,72,45,40
1,note_on,84,57,0
1,note_on,84,0,120
1,note_on,72,0,0
1,note_on,70,45,40
1,note_on,82,57,0
1,note_on,82,0,120
1,note_on,70,0,0
1,note_on,66,49,40
1,note_on,78,64,0
1,note_on,78,0,360
1,note_on,66,0,0
1,note_on,77,52,0
1,note_on,65,38,0
1,note_on,65,0,120
1,note_on,77,0,0
1,note_on,65,46,0
1,note_on,77,59,0
1,note_on,77,0,120
1,note_on,65,0,0
1,note_on,66,39,40
1,note_on,78,52,0
1,note_on,78,0,120
1,note_on,66,0,0
1,note_on,65,38,40
1,note_on,77,50,0
1,note_on,77,0,120
1,note_on,65,0,0
1,note_on,58,57,40
1,note_on,70,57,0
1,note_on,70,0,720
1,note_on,58,0,0
1,note_on,61,72,0
1,note_on,73,72,0
1,note_on,73,0,240
1,note_on,61,0,0
1,note_on,61,80,0
1,note_on,73,80,0
1,note_on,73,0,480
1,note_on,61,0,0
1,note_on,61,78,0
1,note_on,73,78,0
1,note_on,73,0,160
1,note_on,61,0,0
1,note_on,63,73,0
1,note_on,75,73,0
1,note_on,75,0,160
1,note_on,63,0,0
1,note_on,61,74,0
1,note_on,73,74,0
1,note_on,73,0,160
1,note_on,61,0,0
1,note_on,61,80,0
1,note_on,73,80,0
1,note_on,73,0,480
1,note_on,61,0,0
1,note_on,58,70,0
1,note_on,70,70,0
1,note_on,58,0,120
1,note_on,70,0,240
1,note_on,70,77,0
1,note_on,82,77,0
1,note_on,82,0,120
1,note_on,70,0,0
1,note_on,70,83,0
1,note_on,82,83,0
1,note_on,82,0,360
1,note_on,70,0,0
1,note_on,83,86,0
1,note_on,71,86,0
1,note_on,71,0,280
1,note_on,83,0,0
1,note_on,84,83,0
1,note_on,72,83,0
1,note_on,72,0,160
1,note_on,84,0,0
1,note_on,85,85,0
1,note_on,73,85,0
1,note_on,73,0,100
1,note_on,85,0,0
1,note_on,85,80,0
1,note_on,85,0,60
1,note_on,77,90,0
1,note_on,89,90,0
1,note_on,89,0,360
1,note_on,77,0,0
1,note_on,73,83,0
1,note_on,85,83,0
1,note_on,85,0,120
1,note_on,73,0,0
1,note_on,84,78,0
1,note_on,72,78,0
1,note_on,72,0,240
1,note_on,84,0,0
1,note_on,60,42,240
1,note_on,72,50,0
1,note_on,72,0,240
1,note_on,60,0,0
1,note_on,77,43,0
1,note_on,65,36,0
1,note_on,65,0,240
1,note_on,77,0,0
1,note_on,81,47,0
1,note_on,69,39,0
1,note_on,69,0,240
1,note_on,81,0,0
1,note_on,84,47,0
1,note_on,72,39,0
1,note_on,72,0,240
1,note_on,84,0,0
1,note_on,84,55,0
1,note_on,72,46,0
1,note_on,72,0,480
1,note_on,84,0,0
1,note_on,70,42,0
1,note_on,82,50,0
1,note_on,82,0,160
1,note_on,70,0,0
1,note_on,69,37,0
1,note_on,81,44,0
1,note_on,81,0,160
1,note_on,69,0,0
1,note_on,67,37,0
1,note_on,79,44,0
1,note_on,79,0,160
1,note_on,67,0,0
1,note_on,67,42,0
1,note_on,79,50,0
1,note_on,79,0,160
1,note_on,67,0,0
1,note_on,81,44,0
1,note_on,69,37,0
1,note_on,69,0,144
1,note_on,81,0,0
1,note_on,65,37,16
1,note_on,77,44,0
1,note_on,77,0,144
1,note_on,65,0,0
1,note_on,65,42,16
1,note_on,77,50,0
1,note_on,77,0,160
1,note_on,65,0,0
1,note_on,67,37,0
1,note_on,79,44,0
1,note_on,79,0,144
1,note_on,67,0,0
1,note_on,76,44,16
1,note_on,64,37,0
1,note_on,64,0,144
1,note_on,76,0,0
1,note_on,77,49,16
1,note_on,65,41,0
1,note_on,65,0,480
1,note_on,77,0,0
1,note_on,75,56,0
1,note_on,63,47,0
1,note_on,63,0,160
1,note_on,75,0,0
1,note_on,73,59,0
1,note_on,61,50,0
1,note_on,61,0,160
1,note_on,73,0,0
1,note_on,72,63,0
1,note_on,60,53,0
1,note_on,60,0,160
1,note_on,72,0,0
1,note_on,60,56,0
1,note_on,72,66,0
1,note_on,72,0,480
1,note_on,60,0,0
1,note_on,70,61,0
1,note_on,58,51,0
1,note_on,58,0,240
1,note_on,70,0,0
1,note_on,58,51,0
1,note_on,70,61,0
1,note_on,70,0,240
1,note_on,58,0,0
1,note_on,60,59,0
1,note_on,72,70,0
1,note_on,72,0,480
1,note_on,60,0,0
1,note_on,58,53,0
1,note_on,70,63,0
1,note_on,70,0,240
1,note_on,58,0,0
1,note_on,70,68,0
1,note_on,58,57,0
1,note_on,58,0,240
1,note_on,70,0,0
1,note_on,59,58,0
1,note_on,71,70,0
1,note_on,71,0,160
1,note_on,59,0,0
1,note_on,58,53,0
1,note_on,70,62,0
1,note_on,70,0,160
1,note_on,58,0,0
1,note_on,62,54,0
1,note_on,74,64,0
1,note_on,74,0,160
1,note_on,62,0,0
1,note_on,77,70,0
1,note_on,65,59,0
1,note_on,65,0,160
1,note_on,77,0,0
1,note_on,68,62,0
1,note_on,80,74,0
1,note_on,80,0,160
1,note_on,68,0,0
1,note_on,77,67,0
1,note_on,83,79,0
1,note_on,71,67,0
1,note_on,80,67,0
1,note_on,80,0,160
1,note_on,77,0,0
1,note_on,83,0,0
1,note_on,71,0,0
1,note_on,70,71,0
1,note_on,82,84,0
1,note_on,77,71,0
1,note_on,80,71,0
1,note_on,80,0,480
1,note_on,77,0,0
1,note_on,75,54,0
1,note_on,78,64,0
1,note_on,78,0,240
1,note_on,70,0,0
1,note_on,82,0,0
1,note_on,75,0,0
1,note_on,75,56,0
1,note_on,63,47,0
1,note_on,63,0,240
1,note_on,75,0,0
1,note_on,61,52,0
1,note_on,73,62,0
1,note_on,73,0,360
1,note_on,61,0,0
1,note_on,60,47,0
1,note_on,72,56,0
1,note_on,72,0,120
1,note_on,60,0,0
1,note_on,60,50,0
1,note_on,72,60,0
1,note_on,72,0,160
1,note_on,60,0,0
1,note_on,61,47,0
1,note_on,73,56,0
1,note_on,73,0,160
1,note_on,61,0,0
1,note_on,75,56,0
1,note_on,63,47,0
1,note_on,63,0,100
1,note_on,75,0,0
1,note_on,75,46,0
1,note_on,75,0,60
1,note_on,66,52,0
1,note_on,78,62,0
1,note_on,78,0,360
1,note_on,66,0,0
1,note_on,65,47,0
1,note_on,77,56,0
1,note_on,77,0,120
1,note_on,65,0,0
1,note_on,77,56,0
1,note_on,65,47,0
1,note_on,65,0,160
1,note_on,77,0,0
1,note_on,70,50,0
1,note_on,82,60,0
1,note_on,82,0,160
1,note_on,70,0,0
1,note_on,73,52,0
1,note_on,85,62,0
1,note_on,85,0,160
1,note_on,73,0,0
1,note_on,73,55,0
1,note_on,85,64,0
1,note_on,85,0,360
1,note_on,73,0,0
1,note_on,84,53,0
1,note_on,72,45,0
1,note_on,72,0,120
1,note_on,84,0,0
1,note_on,72,46,0
1,note_on,84,55,0
1,note_on,84,0,160
1,note_on,72,0,0
1,note_on,75,38,0
1,note_on,87,45,0
1,note_on,87,0,160
1,note_on,75,0,0
1,note_on,69,38,0
1,note_on,81,45,0
1,note_on,81,0,160
1,note_on,69,0,0
1,note_on,70,46,0
1,note_on,82,55,0
1,note_on,82,0,720
1,note_on,70,0,0
1,note_on,73,72,0
1,note_on,61,72,0
1,note_on,61,0,216
1,note_on,73,0,0
1,note_on,73,80,24
1,note_on,61,80,0
1,note_on,61,0,480
1,note_on,73,0,0
1,note_on,73,78,0
1,note_on,61,78,0
1,note_on,61,0,160
1,note_on,73,0,0
1,note_on,63,73,0
1,note_on,75,73,0
1,note_on,75,0,160
1,note_on,63,0,0
1,note_on,61,74,0
1,note_on,73,74,0
1,note_on,73,0,160
1,note_on,61,0,0
1,note_on,61,80,0
1,note_on,73,80,0
1,note_on,73,0,480
1,note_on,61,0,0
1,note_on,70,70,0
1,note_on,58,70,0
1,note_on,58,0,120
1,note_on,70,0,240
1,note_on,82,77,0
1,note_on,70,77,0
1,note_on,70,0,120
1,note_on,82,0,0
1,note_on,82,83,0
1,note_on,70,83,0
1,note_on,70,0,360
1,note_on,82,0,0
1,note_on,71,86,0
1,note_on,83,86,0
1,note_on,83,0,280
1,note_on,71,0,0
1,note_on,72,83,0
1,note_on,84,83,0
1,note_on,84,0,160
1,note_on,72,0,0
1,note_on,85,85,0
1,note_on,73,85,0
1,note_on,73,0,100
1,note_on,85,0,0
1,note_on,85,80,0
1,note_on,85,0,60
1,note_on,77,90,0
1,note_on,89,90,0
1,note_on,89,0,360
1,note_on,77,0,0
1,note_on,73,83,0
1,note_on,85,83,0
1,note_on,85,0,120
1,note_on,73,0,0
1,note_on,84,78,0
1,note_on,72,78,0
1,note_on,72,0,240
1,note_on,84,0,0
1,note_on,60,42,240
1,note_on,72,50,0
1,note_on,60,0,159
1,note_on,72,0,81
1,note_on,65,36,0
1,note_on,77,43,0
1,note_on,77,0,240
1,note_on,65,0,0
1,note_on,69,39,0
1,note_on,81,47,0
1,note_on,81,0,240
1,note_on,69,0,0
1,note_on,72,39,0
1,note_on,84,47,0
1,note_on,84,0,240
1,note_on,72,0,0
1,note_on,84,55,0
1,note_on,72,46,0
1,note_on,72,0,480
1,note_on,84,0,0
1,note_on,70,42,0
1,note_on,82,50,0
1,note_on,82,0,160
1,note_on,70,0,0
1,note_on,69,37,0
1,note_on,81,44,0
1,note_on,81,0,160
1,note_on,69,0,0
1,note_on,67,37,0
1,note_on,79,44,0
1,note_on,79,0,160
1,note_on,67,0,0
1,note_on,79,50,0
1,note_on,67,42,0
1,note_on,67,0,160
1,note_on,79,0,0
1,note_on,69,37,0
1,note_on,81,44,0
1,note_on,81,0,144
1,note_on,69,0,0
1,note_on,65,37,16
1,note_on,77,44,0
1,note_on,77,0,144
1,note_on,65,0,0
1,note_on,65,42,16
1,note_on,77,50,0
1,note_on,77,0,160
1,note_on,65,0,0
1,note_on,67,37,0
1,note_on,79,44,0
1,note_on,79,0,144
1,note_on,67,0,0
1,note_on,64,37,16
1,note_on,76,44,0
1,note_on,76,0,144
1,note_on,64,0,0
1,note_on,77,49,16
1,note_on,65,41,0
1,note_on,65,0,480
1,note_on,77,0,0
1,note_on,75,56,0
1,note_on,63,47,0
1,note_on,63,0,160
1,note_on,75,0,0
1,note_on,73,59,0
1,note_on,61,50,0
1,note_on,61,0,160
1,note_on,73,0,0
1,note_on,72,63,0
1,note_on,60,53,0
1,note_on,60,0,160
1,note_on,72,0,0
1,note_on,72,66,0
1,note_on,60,56,0
1,note_on,60,0,480
1,note_on,72,0,0
1,note_on,58,51,0
1,note_on,70,61,0
1,note_on,70,0,216
1,note_on,58,0,0
1,note_on,70,61,24
1,note_on,58,51,0
1,note_on,58,0,216
1,note_on,70,0,0
1,note_on,60,59,24
1,note_on,72,70,0
1,note_on,72,0,480
1,note_on,60,0,0
1,note_on,70,63,0
1,note_on,58,53,0
1,note_on,58,0,216
1,note_on,70,0,0
1,note_on,70,68,24
1,note_on,58,57,0
1,note_on,58,0,216
1,note_on,70,0,0
1,note_on,59,58,24
1,note_on,71,70,0
1,note_on,71,0,160
1,note_on,59,0,0
1,note_on,58,53,0
1,note_on,70,62,0
1,note_on,70,0,160
1,note_on,58,0,0
1,note_on,62,54,0
1,note_on,74,64,0
1,note_on,74,0,160
1,note_on,62,0,0
1,note_on,65,59,0
1,note_on,77,70,0
1,note_on,77,0,160
1,note_on,65,0,0
1,note_on,80,74,0
1,note_on,68,62,0
1,note_on,68,0,160
1,note_on,80,0,0
1,note_on,77,67,0
1,note_on,71,67,0
1,note_on,80,67,0
1,note_on,83,79,0
1,note_on,83,0,160
1,note_on,77,0,0
1,note_on,71,0,0
1,note_on,80,0,0
1,note_on,80,71,0
1,note_on,82,84,0
1,note_on,77,71,0
1,note_on,70,71,0
1,note_on,77,0,480
1,note_on,80,0,0
1,note_on,78,64,0
1,note_on,75,56,0
1,note_on,75,0,240
1,note_on,70,0,0
1,note_on,82,0,0
1,note_on,78,0,0
1,note_on,63,47,0
1,note_on,75,56,0
1,note_on,75,0,240
1,note_on,63,0,0
1,note_on,61,52,0
1,note_on,73,62,0
1,note_on,73,0,360
1,note_on,61,0,0
1,note_on,72,56,0
1,note_on,60,47,0
1,note_on,60,0,108
1,note_on,72,0,0
1,note_on,60,50,12
1,note_on,72,60,0
1,note_on,72,0,160
1,note_on,60,0,0
1,note_on,61,47,0
1,note_on,73,56,0
1,note_on,73,0,160
1,note_on,61,0,0
1,note_on,75,56,0
1,note_on,63,47,0
1,note_on,63,0,100
1,note_on,75,0,0
1,note_on,75,46,0
1,note_on,75,0,60
1,note_on,78,62,0
1,note_on,66,52,0
1,note_on,66,0,360
1,note_on,78,0,0
1,note_on,65,47,0
1,note_on,77,56,0
1,note_on,77,0,108
1,note_on,65,0,0
1,note_on,65,47,12
1,note_on,77,56,0
1,note_on,77,0,160
1,note_on,65,0,0
1,note_on,82,60,0
1,note_on,70,50,0
1,note_on,70,0,160
1,note_on,82,0,0
1,note_on,85,62,0
1,note_on,73,52,0
1,note_on,73,0,160
1,note_on,85,0,0
1,note_on,85,64,0
1,note_on,73,55,0
1,note_on,73,0,360
1,note_on,85,0,0
1,note_on,84,53,0
1,note_on,72,45,0
1,note_on,72,0,120
1,note_on,84,0,0
1,note_on,84,55,0
1,note_on,72,46,0
1,note_on,72,0,160
1,note_on,84,0,0
1,note_on,75,38,0
1,note_on,87,45,0
1,note_on,87,0,160
1,note_on,75,0,0
1,note_on,81,45,0
1,note_on,69,38,0
1,note_on,69,0,160
1,note_on,81,0,0
1,note_on,82,55,0
1,note_on,70,46,0
1,note_on,70,0,480
1,note_on,82,0,0
1,note_on,73,51,240
1,note_on,73,0,216
1,note_on,73,59,24
1,note_on,73,0,360
1,note_on,72,50,0
1,note_on,72,0,108
1,note_on,72,56,12
1,note_on,72,0,160
1,note_on,75,45,0
1,note_on,66,38,0
1,note_on,66,0,160
1,note_on,75,0,0
1,note_on,65,38,0
1,note_on,69,45,0
1,note_on,69,0,144
1,note_on,65,0,0
1,note_on,70,55,16
1,note_on,65,46,0
1,note_on,65,0,480
1,note_on,70,0,160
1,note_on,73,41,0
1,note_on,73,0,160
1,note_on,77,41,0
1,note_on,77,0,160
1,note_on,73,42,0
1,note_on,77,50,0
1,note_on,77,0,360
1,note_on,73,0,0
1,note_on,72,34,0
1,note_on,75,41,0
1,note_on,75,0,108
1,note_on,72,0,0
1,note_on,75,52,12
1,note_on,72,44,0
1,note_on,72,0,144
1,note_on,75,0,0
1,note_on,78,36,16
1,note_on,75,30,0
1,note_on,75,0,144
1,note_on,78,0,0
1,note_on,69,30,16
1,note_on,72,30,0
1,note_on,77,30,0
1,note_on,81,36,0
1,note_on,81,0,144
1,note_on,69,0,0
1,note_on,72,0,0
1,note_on,77,0,0
1,note_on,70,41,16
1,note_on,77,41,0
1,note_on,82,49,0
1,note_on,73,41,0
1,note_on,73,0,720
1,note_on,70,0,0
1,note_on,77,0,0
1,note_on,82,0,0
1,note_on,73,34,0
1,note_on,73,0,240
1,note_on,61,34,0
1,note_on,61,0,120
1,note_on,73,25,0
1,note_on,73,0,120
1,note_on,66,21,0
1,note_on,70,25,0
1,note_on,70,0,120
1,note_on,66,0,0
1,note_on,73,25,0
1,note_on,73,0,120
1,note_on,61,32,0
1,note_on,61,0,120
1,note_on,73,24,0
1,note_on,73,0,120
1,note_on,70,24,0
1,note_on,66,20,0
1,note_on,66,0,120
1,note_on,70,0,0
1,note_on,73,24,0
1,note_on,73,0,120
1,note_on,61,32,0
1,note_on,61,0,120
1,note_on,73,25,0
1,note_on,73,0,120
1,note_on,70,24,0
1,note_on,66,20,0
1,note_on,66,0,120
1,note_on,70,0,0
1,note_on,73,24,0
1,note_on,73,0,120
1,note_on,61,33,0
1,note_on,61,0,120
1,note_on,73,27,0
1,note_on,73,0,120
1,note_on,66,21,0
1,note_on,70,25,0
1,note_on,70,0,120
1,note_on,66,0,0
1,note_on,73,25,0
1,note_on,73,0,120
1,note_on,61,36,0
1,note_on,61,0,120
1,note_on,73,27,0
1,note_on,73,0,120
1,note_on,68,22,0
1,note_on,71,27,0
1,note_on,71,0,120
1,note_on,68,0,0
1,note_on,73,27,0
1,note_on,73,0,120
1,note_on,61,34,0
1,note_on,61,0,120
1,note_on,73,26,0
1,note_on,73,0,120
1,note_on,68,22,0
1,note_on,71,26,0
1,note_on,71,0,120
1,note_on,68,0,0
1,note_on,73,27,0
1,note_on,73,0,120
1,note_on,61,36,0
1,note_on,61,0,120
1,note_on,73,29,0
1,note_on,73,0,120
1,note_on,71,27,0
1,note_on,68,23,0
1,note_on,68,0,120
1,note_on,71,0,0
1,note_on,73,27,0
1,note_on,73,0,120
1,note_on,61,37,0
1,note_on,61,0,120
1,note_on,73,30,0
1,note_on,73,0,120
1,note_on,71,29,0
1,note_on,68,24,0
1,note_on,68,0,120
1,note_on,71,0,0
1,note_on,73,29,0
1,note_on,73,0,120
1,note_on,61,40,0
1,note_on,61,0,120
1,note_on,73,30,0
1,note_on,73,0,120
1,note_on,66,25,0
1,note_on,70,30,0
1,note_on,70,0,120
1,note_on,66,0,0
1,note_on,73,30,0
1,note_on,73,0,120
1,note_on,61,38,0
1,note_on,61,0,120
1,note_on,73,29,0
1,note_on,73,0,120
1,note_on,66,24,0
1,note_on,70,29,0
1,note_on,70,0,120
1,note_on,66,0,0
1,note_on,73,29,0
1,note_on,73,0,120
1,note_on,63,38,0
1,note_on,63,0,120
1,note_on,75,30,0
1,note_on,75,0,120
1,note_on,68,24,0
1,note_on,71,29,0
1,note_on,71,0,120
1,note_on,68,0,0
1,note_on,75,29,0
1,note_on,75,0,120
1,note_on,63,39,0
1,note_on,63,0,120
1,note_on,75,32,0
1,note_on,75,0,120
1,note_on,71,30,0
1,note_on,68,25,0
1,note_on,68,0,120
1,note_on,71,0,0
1,note_on,75,30,0
1,note_on,75,0,120
1,note_on,68,43,0
1,note_on,68,0,120
1,note_on,80,39,0
1,note_on,80,0,120
1,note_on,75,39,0
1,note_on,78,47,0
1,note_on,78,0,120
1,note_on,75,0,0
1,note_on,80,40,0
1,note_on,80,0,120
1,note_on,72,53,0
1,note_on,78,53,0
1,note_on,78,0,120
1,note_on,72,0,0
1,note_on,80,43,0
1,note_on,80,0,120
1,note_on,75,47,0
1,note_on,72,47,0
1,note_on,72,0,120
1,note_on,75,0,0
1,note_on,80,41,0
1,note_on,80,0,120
1,note_on,73,46,0
1,note_on,77,55,0
1,note_on,77,0,120
1,note_on,73,0,0
1,note_on,80,51,0
1,note_on,80,0,120
1,note_on,83,58,0
1,note_on,77,49,0
1,note_on,77,0,120
1,note_on,83,0,0
1,note_on,85,53,0
1,note_on,85,0,120
1,note_on,82,62,0
1,note_on,78,52,0
1,note_on,78,0,120
1,note_on,82,0,0
1,note_on,85,57,0
1,note_on,85,0,120
1,note_on,77,55,0
1,note_on,80,66,0
1,note_on,80,0,120
1,note_on,77,0,0
1,note_on,85,60,0
1,note_on,85,0,120
1,note_on,78,71,0
1,note_on,78,0,180
1,note_on,85,72,0
1,note_on,85,0,60
1,note_on,82,78,0
1,note_on,94,78,0
1,note_on,94,0,420
1,note_on,82,0,0
1,note_on,90,70,0
1,note_on,90,0,60
1,note_on,82,78,0
1,note_on,94,78,0
1,note_on,94,0,480
1,note_on,82,0,0
1,note_on,78,72,0
1,note_on,90,72,0
1,note_on,90,0,240
1,note_on,78,0,0
1,note_on,85,72,0
1,note_on,73,72,0
1,note_on,73,0,240
1,note_on,85,0,0
1,note_on,82,72,0
1,note_on,70,72,0
1,note_on,70,0,240
1,note_on,82,0,0
1,note_on,85,72,180
1,note_on,85,0,60
1,note_on,83,78,0
1,note_on,95,78,0
1,note_on,95,0,420
1,note_on,83,0,0
1,note_on,92,71,0
1,note_on,92,0,60
1,note_on,83,78,0
1,note_on,95,78,0
1,note_on,95,0,480
1,note_on,83,0,0
1,note_on,92,72,0
1,note_on,80,72,0
1,note_on,80,0,240
1,note_on,92,0,0
1,note_on,89,72,0
1,note_on,77,72,0
1,note_on,77,0,240
1,note_on,89,0,0
1,note_on,71,72,0
1,note_on,83,72,0
1,note_on,83,0,240
1,note_on,71,0,0
1,note_on,73,59,180
1,note_on,73,0,60
1,note_on,70,63,0
1,note_on,82,63,0
1,note_on,82,0,420
1,note_on,70,0,0
1,note_on,78,57,0
1,note_on,78,0,60
1,note_on,82,63,0
1,note_on,70,63,0
1,note_on,70,0,480
1,note_on,82,0,0
1,note_on,81,53,0
1,note_on,69,53,0
1,note_on,69,0,240
1,note_on,81,0,0
1,note_on,68,50,0
1,note_on,80,50,0
1,note_on,80,0,240
1,note_on,68,0,0
1,note_on,78,47,0
1,note_on,66,47,0
1,note_on,66,0,240
1,note_on,78,0,0
1,note_on,77,39,0
1,note_on,65,39,0
1,note_on,65,0,240
1,note_on,77,0,0
1,note_on,85,44,0
1,note_on,73,44,0
1,note_on,73,0,240
1,note_on,85,0,0
1,note_on,71,40,0
1,note_on,83,40,0
1,note_on,83,0,240
1,note_on,71,0,0
1,note_on,80,40,0
1,note_on,68,40,0
1,note_on,68,0,240
1,note_on,80,0,0
1,note_on,78,47,0
1,note_on,66,47,0
1,note_on,66,0,960
1,note_on,78,0,0
1,note_on,61,40,0
1,note_on,61,0,120
1,note_on,73,30,0
1,note_on,73,0,120
1,note_on,70,30,0
1,note_on,66,25,0
1,note_on,66,0,120
1,note_on,70,0,0
1,note_on,73,30,0
1,note_on,73,0,120
1,note_on,61,38,0
1,note_on,61,0,120
1,note_on,73,28,0
1,note_on,73,0,120
1,note_on,66,24,0
1,note_on,70,28,0
1,note_on,70,0,120
1,note_on,66,0,0
1,note_on,73,28,0
1,note_on,73,0,120
1,note_on,61,38,0
1,note_on,61,0,120
1,note_on,73,30,0
1,note_on,73,0,120
1,note_on,66,24,0
1,note_on,70,28,0
1,note_on,70,0,120
1,note_on,66,0,0
1,note_on,73,28,0
1,note_on,73,0,120
1,note_on,61,39,0
1,note_on,61,0,120
1,note_on,73,32,0
1,note_on,73,0,120
1,note_on,70,30,0
1,note_on,66,25,0
1,note_on,66,0,120
1,note_on,70,0,0
1,note_on,73,30,0
1,note_on,73,0,120
1,note_on,61,43,0
1,note_on,61,0,120
1,note_on,73,32,0
1,note_on,73,0,120
1,note_on,71,32,0
1,note_on,68,26,0
1,note_on,68,0,120
1,note_on,71,0,0
1,note_on,73,32,0
1,note_on,73,0,120
1,note_on,61,40,0
1,note_on,61,0,120
1,note_on,73,31,0
1,note_on,73,0,120
1,note_on,68,26,0
1,note_on,71,31,0
1,note_on,71,0,120
1,note_on,68,0,0
1,note_on,73,32,0
1,note_on,73,0,120
1,note_on,61,43,0
1,note_on,61,0,120
1,note_on,73,34,0
1,note_on,73,0,120
1,note_on,68,27,0
1,note_on,71,32,0
1,note_on,71,0,120
1,note_on,68,0,0
1,note_on,73,32,0
1,note_on,73,0,120
1,note_on,61,44,0
1,note_on,61,0,120
1,note_on,73,36,0
1,note_on,73,0,120
1,note_on,71,34,0
1,note_on,68,28,0
1,note_on,68,0,120
1,note_on,71,0,0
1,note_on,73,34,0
1,note_on,73,0,120
1,note_on,61,48,0
1,note_on,61,0,120
1,note_on,73,36,0
1,note_on,73,0,120
1,note_on,66,30,0
1,note_on,70,36,0
1,note_on,70,0,120
1,note_on,66,0,0
1,note_on,73,36,0
1,note_on,73,0,120
1,note_on,61,45,0
1,note_on,61,0,120
1,note_on,73,34,0
1,note_on,73,0,120
1,note_on,70,34,0
1,note_on,66,28,0
1,note_on,66,0,120
1,note_on,70,0,0
1,note_on,73,34,0
1,note_on,73,0,120
1,note_on,63,45,0
1,note_on,63,0,120
1,note_on,75,36,0
1,note_on,75,0,120
1,note_on,71,34,0
1,note_on,68,28,0
1,note_on,68,0,120
1,note_on,71,0,0
1,note_on,75,34,0
1,note_on,75,0,120
1,note_on,63,46,0
1,note_on,63,0,120
1,note_on,75,38,0
1,note_on,75,0,120
1,note_on,71,36,0
1,note_on,68,30,0
1,note_on,68,0,120
1,note_on,71,0,0
1,note_on,75,36,0
1,note_on,75,0,120
1,note_on,68,47,0
1,note_on,68,0,120
1,note_on,80,42,0
1,note_on,80,0,120
1,note_on,75,42,0
1,note_on,78,51,0
1,note_on,78,0,120
1,note_on,75,0,0
1,note_on,80,44,0
1,note_on,80,0,120
1,note_on,72,58,0
1,note_on,78,58,0
1,note_on,78,0,120
1,note_on,72,0,0
1,note_on,80,47,0
1,note_on,80,0,120
1,note_on,75,51,0
1,note_on,72,51,0
1,note_on,72,0,120
1,note_on,75,0,0
1,note_on,80,45,0
1,note_on,80,0,120
1,note_on,73,50,0
1,note_on,77,60,0
1,note_on,77,0,120
1,note_on,73,0,0
1,note_on,80,56,0
1,note_on,80,0,120
1,note_on,83,63,0
1,note_on,77,53,0
1,note_on,77,0,120
1,note_on,83,0,0
1,note_on,85,58,0
1,note_on,85,0,120
1,note_on,78,57,0
1,note_on,82,68,0
1,note_on,82,0,120
1,note_on,78,0,0
1,note_on,85,62,0
1,note_on,85,0,120
1,note_on,80,72,0
1,note_on,77,60,0
1,note_on,77,0,120
1,note_on,80,0,0
1,note_on,85,66,0
1,note_on,85,0,120
1,note_on,78,78,0
1,note_on,78,0,180
1,note_on,85,79,0
1,note_on,85,0,60
1,note_on,82,85,0
1,note_on,94,85,0
1,note_on,94,0,420
1,note_on,82,0,0
1,note_on,90,77,0
1,note_on,90,0,60
1,note_on,82,85,0
1,note_on,94,85,0
1,note_on,94,0,480
1,note_on,82,0,0
1,note_on,78,79,0
1,note_on,90,79,0
1,note_on,90,0,240
1,note_on,78,0,0
1,note_on,85,79,0
1,note_on,73,79,0
1,note_on,73,0,240
1,note_on,85,0,0
1,note_on,70,79,0
1,note_on,82,79,0
1,note_on,82,0,240
1,note_on,70,0,0
1,note_on,85,79,180
1,note_on,85,0,60
1,note_on,95,85,0
1,note_on,83,85,0
1,note_on,83,0,420
1,note_on,95,0,0
1,note_on,92,78,0
1,note_on,92,0,60
1,note_on,95,85,0
1,note_on,83,85,0
1,note_on,83,0,480
1,note_on,95,0,0
1,note_on,80,79,0
1,note_on,92,79,0
1,note_on,92,0,240
1,note_on,80,0,0
1,note_on,77,79,0
1,note_on,89,79,0
1,note_on,89,0,240
1,note_on,77,0,0
1,note_on,83,79,0
1,note_on,71,79,0
1,note_on,71,0,240
1,note_on,83,0,0
1,note_on,73,64,180
1,note_on,73,0,60
1,note_on,82,68,0
1,note_on,70,68,0
1,note_on,70,0,420
1,note_on,82,0,0
1,note_on,78,60,0
1,note_on,78,0,60
1,note_on,70,67,0
1,note_on,82,67,0
1,note_on,82,0,480
1,note_on,70,0,0
1,note_on,81,55,0
1,note_on,69,55,0
1,note_on,69,0,240
1,note_on,81,0,0
1,note_on,80,51,0
1,note_on,68,51,0
1,note_on,68,0,240
1,note_on,80,0,0
1,note_on,78,47,0
1,note_on,66,47,0
1,note_on,66,0,240
1,note_on,78,0,0
1,note_on,77,39,0
1,note_on,65,39,0
1,note_on,65,0,240
1,note_on,77,0,0
1,note_on,73,44,0
1,note_on,85,44,0
1,note_on,85,0,240
1,note_on,73,0,0
1,note_on,71,40,0
1,note_on,83,40,0
1,note_on,83,0,240
1,note_on,71,0,0
1,note_on,68,40,0
1,note_on,80,40,0
1,note_on,80,0,240
1,note_on,68,0,0
1,note_on,78,47,0
1,note_on,66,47,0
1,note_on,66,0,960
1,note_on,78,0,0
1,note_on,62,62,0
1,note_on,62,0,120
1,note_on,74,46,0
1,note_on,74,0,120
1,note_on,65,39,0
1,note_on,70,46,0
1,note_on,70,0,120
1,note_on,65,0,0
1,note_on,74,46,0
1,note_on,74,0,120
1,note_on,62,63,0
1,note_on,62,0,120
1,note_on,74,44,0
1,note_on,74,0,120
1,note_on,65,37,0
1,note_on,70,44,0
1,note_on,70,0,120
1,note_on,65,0,0
1,note_on,74,44,0
1,note_on,74,0,120
1,note_on,63,63,0
1,note_on,63,0,120
1,note_on,75,44,0
1,note_on,75,0,120
1,note_on,66,37,0
1,note_on,70,44,0
1,note_on,70,0,120
1,note_on,66,0,0
1,note_on,75,44,0
1,note_on,75,0,120
1,note_on,70,70,0
1,note_on,70,0,120
1,note_on,82,51,0
1,note_on,82,0,120
1,note_on,78,51,0
1,note_on,75,51,0
1,note_on,75,0,120
1,note_on,78,0,0
1,note_on,82,51,0
1,note_on,82,0,120
1,note_on,63,62,0
1,note_on,63,0,120
1,note_on,75,46,0
1,note_on,75,0,120
1,note_on,66,39,0
1,note_on,70,46,0
1,note_on,70,0,120
1,note_on,66,0,0
1,note_on,75,46,0
1,note_on,75,0,120
1,note_on,63,63,0
1,note_on,63,0,120
1,note_on,75,44,0
1,note_on,75,0,120
1,note_on,73,44,0
1,note_on,67,37,0
1,note_on,67,0,120
1,note_on,73,0,0
1,note_on,75,44,0
1,note_on,75,0,120
1,note_on,63,66,0
1,note_on,63,0,120
1,note_on,75,49,0
1,note_on,75,0,120
1,note_on,72,49,0
1,note_on,68,49,0
1,note_on,68,0,120
1,note_on,72,0,0
1,note_on,75,51,0
1,note_on,75,0,120
1,note_on,72,64,0
1,note_on,72,0,120
1,note_on,84,49,0
1,note_on,84,0,120
1,note_on,80,50,0
1,note_on,75,50,0
1,note_on,75,0,120
1,note_on,80,0,0
1,note_on,84,50,0
1,note_on,84,0,120
1,note_on,73,51,180
1,note_on,85,65,60
1,note_on,85,0,420
1,note_on,73,0,0
1,note_on,73,54,0
1,note_on,85,67,60
1,note_on,85,0,480
1,note_on,73,0,0
1,note_on,70,48,0
1,note_on,82,48,0
1,note_on,82,0,240
1,note_on,70,0,0
1,note_on,66,51,0
1,note_on,78,51,0
1,note_on,78,0,240
1,note_on,66,0,0
1,note_on,82,47,0
1,note_on,70,47,0
1,note_on,70,0,240
1,note_on,82,0,0
1,note_on,73,39,0
1,note_on,61,39,0
1,note_on,61,0,240
1,note_on,73,0,0
1,note_on,80,44,0
1,note_on,68,37,0
1,note_on,68,0,240
1,note_on,80,0,0
1,note_on,78,40,0
1,note_on,66,34,0
1,note_on,66,0,240
1,note_on,78,0,0
1,note_on,75,40,0
1,note_on,63,34,0
1,note_on,63,0,240
1,note_on,75,0,0
1,note_on,73,44,0
1,note_on,61,37,0
1,note_on,61,0,240
1,note_on,68,34,0
1,note_on,71,40,0
1,note_on,71,0,240
1,note_on,68,0,0
1,note_on,66,28,0
1,note_on,70,34,0
1,note_on,70,0,240
1,note_on,66,0,0
1,note_on,65,28,0
1,note_on,68,34,0
1,note_on,68,0,240
1,note_on,65,0,0
1,note_on,73,0,0
1,note_on,61,40,0
1,note_on,61,0,120
1,note_on,73,30,0
1,note_on,73,0,120
1,note_on,70,30,0
1,note_on,66,25,0
1,note_on,66,0,120
1,note_on,70,0,0
1,note_on,73,30,0
1,note_on,73,0,120
1,note_on,61,38,0
1,note_on,61,0,120
1,note_on,73,28,0
1,note_on,73,0,120
1,note_on,70,28,0
1,note_on,66,24,0
1,note_on,66,0,120
1,note_on,70,0,0
1,note_on,73,28,0
1,note_on,73,0,120
1,note_on,64,46,0
1,note_on,64,0,120
1,note_on,76,34,0
1,note_on,76,0,120
1,note_on,73,34,0
1,note_on,66,34,0
1,note_on,66,0,120
1,note_on,73,0,0
1,note_on,76,34,0
1,note_on,76,0,120
1,note_on,64,48,0
1,note_on,64,0,120
1,note_on,76,38,0
1,note_on,76,0,120
1,note_on,73,39,0
1,note_on,66,39,0
1,note_on,66,0,120
1,note_on,73,0,0
1,note_on,76,40,0
1,note_on,76,0,120
1,note_on,63,54,0
1,note_on,63,0,120
1,note_on,75,45,0
1,note_on,75,0,120
1,note_on,66,45,0
1,note_on,71,45,0
1,note_on,71,0,120
1,note_on,66,0,0
1,note_on,75,47,0
1,note_on,75,0,120
1,note_on,63,55,0
1,note_on,63,0,120
1,note_on,75,47,0
1,note_on,75,0,120
1,note_on,66,48,0
1,note_on,71,48,0
1,note_on,71,0,120
1,note_on,66,0,0
1,note_on,75,48,0
1,note_on,75,0,120
1,note_on,69,59,0
1,note_on,69,0,120
1,note_on,81,52,0
1,note_on,81,0,120
1,note_on,75,52,0
1,note_on,78,52,0
1,note_on,78,0,120
1,note_on,75,0,0
1,note_on,81,52,0
1,note_on,81,0,120
1,note_on,69,63,0
1,note_on,69,0,120
1,note_on,81,55,0
1,note_on,81,0,120
1,note_on,75,58,0
1,note_on,78,58,0
1,note_on,78,0,120
1,note_on,75,0,0
1,note_on,81,59,0
1,note_on,81,0,120
1,note_on,84,59,180
1,note_on,96,63,60
1,note_on,96,0,420
1,note_on,84,0,0
1,note_on,84,57,0
1,note_on,96,63,60
1,note_on,96,0,240
1,note_on,84,0,0
1,note_on,87,63,0
1,note_on,99,63,0
1,note_on,99,0,240
1,note_on,87,0,0
1,note_on,85,53,0
1,note_on,97,53,0
1,note_on,97,0,240
1,note_on,85,0,0
1,note_on,94,50,0
1,note_on,82,50,0
1,note_on,82,0,240
1,note_on,94,0,0
1,note_on,78,47,0
1,note_on,90,47,0
1,note_on,90,0,240
1,note_on,78,0,0
1,note_on,77,39,0
1,note_on,89,39,0
1,note_on,89,0,240
1,note_on,77,0,0
1,note_on,97,44,0
1,note_on,85,44,0
1,note_on,85,0,240
1,note_on,97,0,0
1,note_on,95,40,0
1,note_on,83,40,0
1,note_on,83,0,240
1,note_on,95,0,0
1,note_on,80,40,0
1,note_on,92,40,0
1,note_on,92,0,240
1,note_on,80,0,0
1,note_on,90,47,0
1,note_on,78,47,0
1,note_on,78,0,960
1,note_on,90,0,0
1,note_on,62,62,0
1,note_on,62,0,120
1,note_on,74,46,0
1,note_on,74,0,120
1,note_on,70,46,0
1,note_on,65,39,0
1,note_on,65,0,120
1,note_on,70,0,0
1,note_on,74,46,0
1,note_on,74,0,120
1,note_on,62,63,0
1,note_on,62,0,120
1,note_on,74,44,0
1,note_on,74,0,120
1,note_on,65,37,0
1,note_on,70,44,0
1,note_on,70,0,120
1,note_on,65,0,0
1,note_on,74,44,0
1,note_on,74,0,120
1,note_on,63,63,0
1,note_on,63,0,120
1,note_on,75,44,0
1,note_on,75,0,120
1,note_on,70,44,0
1,note_on,66,37,0
1,note_on,66,0,120
1,note_on,70,0,0
1,note_on,75,44,0
1,note_on,75,0,120
1,note_on,70,70,0
1,note_on,70,0,120
1,note_on,82,51,0
1,note_on,82,0,120
1,note_on,75,51,0
1,note_on,78,51,0
1,note_on,78,0,120
1,note_on,75,0,0
1,note_on,82,51,0
1,note_on,82,0,120
1,note_on,63,62,0
1,note_on,63,0,120
1,note_on,75,46,0
1,note_on,75,0,120
1,note_on,66,39,0
1,note_on,70,46,0
1,note_on,70,0,120
1,note_on,66,0,0
1,note_on,75,46,0
1,note_on,75,0,120
1,note_on,63,63,0
1,note_on,63,0,120
1,note_on,75,44,0
1,note_on,75,0,120
1,note_on,73,44,0
1,note_on,67,37,0
1,note_on,67,0,120
1,note_on,73,0,0
1,note_on,75,44,0
1,note_on,75,0,120
1,note_on,63,66,0
1,note_on,63,0,120
1,note_on,75,49,0
1,note_on,75,0,120
1,note_on,72,49,0
1,note_on,68,49,0
1,note_on,68,0,120
1,note_on,72,0,0
1,note_on,75,51,0
1,note_on,75,0,120
1,note_on,72,64,0
1,note_on,72,0,120
1,note_on,84,49,0
1,note_on,84,0,120
1,note_on,80,50,0
1,note_on,75,50,0
1,note_on,75,0,120
1,note_on,80,0,0
1,note_on,84,50,0
1,note_on,84,0,120
1,note_on,73,51,180
1,note_on,85,65,60
1,note_on,85,0,420
1,note_on,73,0,0
1,note_on,73,54,0
1,note_on,85,67,60
1,note_on,85,0,480
1,note_on,73,0,0
1,note_on,82,48,0
1,note_on,70,48,0
1,note_on,70,0,240
1,note_on,82,0,0
1,note_on,78,51,0
1,note_on,66,51,0
1,note_on,66,0,240
1,note_on,78,0,0
1,note_on,82,47,0
1,note_on,70,47,0
1,note_on,70,0,240
1,note_on,82,0,0
1,note_on,73,39,0
1,note_on,61,39,0
1,note_on,61,0,240
1,note_on,73,0,0
1,note_on,80,44,0
1,note_on,68,37,0
1,note_on,68,0,240
1,note_on,80,0,0
1,note_on,78,40,0
1,note_on,66,34,0
1,note_on,66,0,240
1,note_on,78,0,0
1,note_on,75,40,0
1,note_on,63,34,0
1,note_on,63,0,240
1,note_on,75,0,0
1,note_on,73,44,0
1,note_on,61,37,0
1,note_on,61,0,240
1,note_on,68,34,0
1,note_on,71,40,0
1,note_on,71,0,240
1,note_on,68,0,0
1,note_on,70,34,0
1,note_on,66,28,0
1,note_on,66,0,240
1,note_on,70,0,0
1,note_on,65,28,0
1,note_on,68,34,0
1,note_on,68,0,240
1,note_on,65,0,0
1,note_on,73,0,0
1,note_on,61,40,0
1,note_on,61,0,120
1,note_on,73,30,0
1,note_on,73,0,120
1,note_on,66,25,0
1,note_on,70,30,0
1,note_on,70,0,120
1,note_on,66,0,0
1,note_on,73,30,0
1,note_on,73,0,120
1,note_on,61,38,0
1,note_on,61,0,120
1,note_on,73,28,0
1,note_on,73,0,120
1,note_on,70,28,0
1,note_on,66,24,0
1,note_on,66,0,120
1,note_on,70,0,0
1,note_on,73,28,0
1,note_on,73,0,120
1,note_on,64,46,0
1,note_on,64,0,120
1,note_on,76,34,0
1,note_on,76,0,120
1,note_on,73,34,0
1,note_on,66,34,0
1,note_on,66,0,120
1,note_on,73,0,0
1,note_on,76,34,0
1,note_on,76,0,120
1,note_on,64,48,0
1,note_on,64,0,120
1,note_on,76,38,0
1,note_on,76,0,120
1,note_on,73,39,0
1,note_on,66,39,0
1,note_on,66,0,120
1,note_on,73,0,0
1,note_on,76,40,0
1,note_on,76,0,120
1,note_on,63,54,0
1,note_on,63,0,120
1,note_on,75,45,0
1,note_on,75,0,120
1,note_on,71,45,0
1,note_on,66,45,0
1,note_on,66,0,120
1,note_on,71,0,0
1,note_on,75,47,0
1,note_on,75,0,120
1,note_on,63,55,0
1,note_on,63,0,120
1,note_on,75,47,0
1,note_on,75,0,120
1,note_on,66,48,0
1,note_on,71,48,0
1,note_on,71,0,120
1,note_on,66,0,0
1,note_on,75,48,0
1,note_on,75,0,120
1,note_on,69,59,0
1,note_on,69,0,120
1,note_on,81,52,0
1,note_on,81,0,120
1,note_on,78,52,0
1,note_on,75,52,0
1,note_on,75,0,120
1,note_on,78,0,0
1,note_on,81,52,0
1,note_on,81,0,120
1,note_on,69,63,0
1,note_on,69,0,120
1,note_on,81,55,0
1,note_on,81,0,120
1,note_on,78,58,0
1,note_on,75,58,0
1,note_on,75,0,120
1,note_on,78,0,0
1,note_on,81,59,0
1,note_on,81,0,120
1,note_on,84,59,180
1,note_on,96,63,60
1,note_on,96,0,420
1,note_on,84,0,0
1,note_on,84,57,0
1,note_on,96,63,60
1,note_on,96,0,240
1,note_on,84,0,0
1,note_on,87,63,0
1,note_on,99,63,0
1,note_on,99,0,240
1,note_on,87,0,0
1,note_on,97,53,0
1,note_on,85,53,0
1,note_on,85,0,240
1,note_on,97,0,0
1,note_on,82,50,0
1,note_on,94,50,0
1,note_on,94,0,240
1,note_on,82,0,0
1,note_on,78,47,0
1,note_on,90,47,0
1,note_on,90,0,240
1,note_on,78,0,0
1,note_on,89,39,0
1,note_on,77,39,0
1,note_on,77,0,240
1,note_on,89,0,0
1,note_on,97,44,0
1,note_on,85,44,0
1,note_on,85,0,240
1,note_on,97,0,0
1,note_on,83,40,0
1,note_on,95,40,0
1,note_on,95,0,240
1,note_on,83,0,0
1,note_on,92,40,0
1,note_on,80,40,0
1,note_on,80,0,240
1,note_on,92,0,0
1,note_on,90,47,0
1,note_on,78,47,0
1,note_on,78,0,720
1,note_on,90,0,0
1,note_on,78,44,0
1,note_on,66,37,0
1,note_on,66,0,240
1,note_on,78,0,0
1,note_on,77,34,0
1,note_on,65,28,0
1,note_on,65,0,240
1,note_on,77,0,0
1,note_on,73,37,0
1,note_on,85,44,0
1,note_on,85,0,240
1,note_on,73,0,0
1,note_on,71,34,0
1,note_on,83,40,0
1,note_on,83,0,240
1,note_on,71,0,0
1,note_on,80,35,0
1,note_on,68,29,0
1,note_on,68,0,240
1,note_on,80,0,0
1,note_on,66,37,0
1,note_on,78,44,0
1,note_on,78,0,720
1,note_on,66,0,0
1,note_on,66,44,0
1,note_on,66,0,240
1,note_on,65,34,0
1,note_on,65,0,240
1,note_on,73,44,0
1,note_on,73,0,240
1,note_on,71,40,0
1,note_on,71,0,240
1,note_on,68,35,0
1,note_on,68,0,240
1,note_on,66,44,0
1,note_on,66,0,960
1,note_on,66,46,0
1,note_on,66,0,480
1,note_on,66,46,0
1,note_on,66,0,720
1,note_on,66,51,0
1,note_on,66,0,240
1,note_on,65,44,0
1,note_on,65,0,240
1,note_on,64,44,0
1,note_on,64,0,240
1,note_on,65,46,0
1,note_on,65,0,1440
1,note_on,70,39,0
1,note_on,70,0,480
1,note_on,69,43,0
1,note_on,69,0,480
1,note_on,77,38,0
1,note_on,77,0,480
1,note_on,75,38,0
1,note_on,75,0,480
1,note_on,72,38,0
1,note_on,72,0,360
1,note_on,89,46,0
1,note_on,89,0,120
1,note_on,88,51,0
1,note_on,88,0,80
1,note_on,91,46,0
1,note_on,91,0,80
1,note_on,89,46,0
1,note_on,89,0,80
1,note_on,87,50,0
1,note_on,87,0,80
1,note_on,86,46,0
1,note_on,86,0,80
1,note_on,84,46,0
1,note_on,84,0,80
1,note_on,82,50,0
1,note_on,82,0,80
1,note_on,81,46,0
1,note_on,81,0,80
1,note_on,79,46,0
1,note_on,79,0,80
1,note_on,77,46,0
1,note_on,77,0,80
1,note_on,75,46,0
1,note_on,75,0,80
1,note_on,74,46,0
1,note_on,74,0,80
1,note_on,72,43,0
1,note_on,72,0,480
1,note_on,70,38,0
1,note_on,70,0,240
1,note_on,70,46,120
1,note_on,70,0,120
1,note_on,69,36,0
1,note_on,69,0,80
1,note_on,70,37,0
1,note_on,70,0,80
1,note_on,72,38,0
1,note_on,72,0,80
1,note_on,74,40,0
1,note_on,74,0,80
1,note_on,75,41,0
1,note_on,75,0,80
1,note_on,77,42,0
1,note_on,77,0,80
1,note_on,79,44,0
1,note_on,79,0,80
1,note_on,81,45,0
1,note_on,81,0,80
1,note_on,82,46,0
1,note_on,82,0,80
1,note_on,83,48,0
1,note_on,83,0,80
1,note_on,84,49,0
1,note_on,84,0,80
1,note_on,86,51,0
1,note_on,86,0,80
1,note_on,89,65,0
1,note_on,89,0,480
1,note_on,87,61,0
1,note_on,87,0,240
1,note_on,87,46,120
1,note_on,87,0,120
1,note_on,86,51,0
1,note_on,86,0,80
1,note_on,98,46,0
1,note_on,98,0,80
1,note_on,96,46,0
1,note_on,96,0,80
1,note_on,94,50,0
1,note_on,94,0,80
1,note_on,93,46,0
1,note_on,93,0,80
1,note_on,91,46,0
1,note_on,91,0,80
1,note_on,89,50,0
1,note_on,89,0,80
1,note_on,87,46,0
1,note_on,87,0,80
1,note_on,86,46,0
1,note_on,86,0,80
1,note_on,84,46,0
1,note_on,84,0,80
1,note_on,82,46,0
1,note_on,82,0,80
1,note_on,81,46,0
1,note_on,81,0,80
1,note_on,79,51,0
1,note_on,79,0,80
1,note_on,91,46,0
1,note_on,91,0,80
1,note_on,89,46,0
1,note_on,89,0,80
1,note_on,87,50,0
1,note_on,87,0,80
1,note_on,86,46,0
1,note_on,86,0,80
1,note_on,84,46,0
1,note_on,84,0,80
1,note_on,82,50,0
1,note_on,82,0,80
1,note_on,81,49,0
1,note_on,81,0,80
1,note_on,79,50,0
1,note_on,79,0,80
1,note_on,77,52,0
1,note_on,77,0,80
1,note_on,75,53,0
1,note_on,75,0,80
1,note_on,74,54,0
1,note_on,74,0,80
1,note_on,72,56,0
1,note_on,72,0,80
1,note_on,76,56,0
1,note_on,76,0,80
1,note_on,79,55,0
1,note_on,79,0,80
1,note_on,82,54,0
1,note_on,82,0,80
1,note_on,79,53,0
1,note_on,79,0,80
1,note_on,82,52,0
1,note_on,82,0,80
1,note_on,84,51,0
1,note_on,84,0,80
1,note_on,88,50,0
1,note_on,88,0,80
1,note_on,91,49,0
1,note_on,91,0,80
1,note_on,94,47,0
1,note_on,94,0,80
1,note_on,91,46,0
1,note_on,91,0,80
1,note_on,88,45,0
1,note_on,88,0,80
1,note_on,89,53,0
1,note_on,89,0,240
1,note_on,89,49,0
1,note_on,89,0,80
1,note_on,91,43,0
1,note_on,91,0,80
1,note_on,89,43,0
1,note_on,89,0,80
1,note_on,88,48,0
1,note_on,88,0,80
1,note_on,91,42,0
1,note_on,91,0,80
1,note_on,89,42,0
1,note_on,89,0,80
1,note_on,88,43,0
1,note_on,88,0,80
1,note_on,91,42,0
1,note_on,91,0,80
1,note_on,89,40,0
1,note_on,89,0,80
1,note_on,88,51,0
1,note_on,88,0,80
1,note_on,91,46,0
1,note_on,91,0,80
1,note_on,89,46,0
1,note_on,89,0,80
1,note_on,87,50,0
1,note_on,87,0,80
1,note_on,86,46,0
1,note_on,86,0,80
1,note_on,84,46,0
1,note_on,84,0,80
1,note_on,82,50,0
1,note_on,82,0,80
1,note_on,81,46,0
1,note_on,81,0,80
1,note_on,79,46,0
1,note_on,79,0,80
1,note_on,77,46,0
1,note_on,77,0,80
1,note_on,75,46,0
1,note_on,75,0,80
1,note_on,74,46,0
1,note_on,74,0,80
1,note_on,72,43,0
1,note_on,72,0,480
1,note_on,70,38,0
1,note_on,70,0,240
1,note_on,70,46,120
1,note_on,70,0,120
1,note_on,69,36,0
1,note_on,69,0,80
1,note_on,70,37,0
1,note_on,70,0,80
1,note_on,72,38,0
1,note_on,72,0,80
1,note_on,74,40,0
1,note_on,74,0,80
1,note_on,75,41,0
1,note_on,75,0,80
1,note_on,77,42,0
1,note_on,77,0,80
1,note_on,79,44,0
1,note_on,79,0,80
1,note_on,81,45,0
1,note_on,81,0,80
1,note_on,82,46,0
1,note_on,82,0,80
1,note_on,83,48,0
1,note_on,83,0,80
1,note_on,84,49,0
1,note_on,84,0,80
1,note_on,86,51,0
1,note_on,86,0,80
1,note_on,89,65,0
1,note_on,89,0,360
1,note_on,88,59,0
1,note_on,88,0,120
1,note_on,87,61,0
1,note_on,87,0,240
1,note_on,87,46,120
1,note_on,87,0,120
1,note_on,86,51,0
1,note_on,86,0,80
1,note_on,98,46,0
1,note_on,98,0,80
1,note_on,96,46,0
1,note_on,96,0,80
1,note_on,94,50,0
1,note_on,94,0,80
1,note_on,93,46,0
1,note_on,93,0,80
1,note_on,91,46,0
1,note_on,91,0,80
1,note_on,89,50,0
1,note_on,89,0,80
1,note_on,87,46,0
1,note_on,87,0,80
1,note_on,86,49,0
1,note_on,86,0,80
1,note_on,84,52,0
1,note_on,84,0,80
1,note_on,82,54,0
1,note_on,82,0,80
1,note_on,81,57,0
1,note_on,81,0,80
1,note_on,79,60,0
1,note_on,79,0,80
1,note_on,94,60,0
1,note_on,94,0,80
1,note_on,91,58,0
1,note_on,91,0,80
1,note_on,88,56,0
1,note_on,88,0,80
1,note_on,85,54,0
1,note_on,85,0,80
1,note_on,82,52,0
1,note_on,82,0,80
1,note_on,79,56,0
1,note_on,79,0,80
1,note_on,76,51,0
1,note_on,76,0,80
1,note_on,73,50,0
1,note_on,73,0,80
1,note_on,70,49,0
1,note_on,70,0,80
1,note_on,67,49,0
1,note_on,67,0,80
1,note_on,64,48,0
1,note_on,64,0,80
1,note_on,65,49,0
1,note_on,65,0,80
1,note_on,64,45,0
1,note_on,64,0,80
1,note_on,65,45,0
1,note_on,65,0,80
1,note_on,67,44,0
1,note_on,67,0,80
1,note_on,69,44,0
1,note_on,69,0,80
1,note_on,70,44,0
1,note_on,70,0,80
1,note_on,72,44,0
1,note_on,72,0,80
1,note_on,74,43,0
1,note_on,74,0,80
1,note_on,75,44,0
1,note_on,75,0,80
1,note_on,77,45,0
1,note_on,77,0,80
1,note_on,79,46,0
1,note_on,79,0,80
1,note_on,81,47,0
1,note_on,81,0,80
1,note_on,82,48,0
1,note_on,82,0,80
1,note_on,86,49,0
1,note_on,86,0,80
1,note_on,89,51,0
1,note_on,89,0,80
1,note_on,94,52,0
1,note_on,94,0,80
1,note_on,98,54,0
1,note_on,98,0,80
1,note_on,96,54,0
1,note_on,96,0,80
1,note_on,94,53,0
1,note_on,94,0,80
1,note_on,89,52,0
1,note_on,89,0,80
1,note_on,86,50,0
1,note_on,86,0,80
1,note_on,82,48,0
1,note_on,82,0,80
1,note_on,86,47,0
1,note_on,86,0,80
1,note_on,89,45,0
1,note_on,89,0,80
1,note_on,88,51,0
1,note_on,88,0,80
1,note_on,91,46,0
1,note_on,91,0,80
1,note_on,89,46,0
1,note_on,89,0,80
1,note_on,87,50,0
1,note_on,87,0,80
1,note_on,86,46,0
1,note_on,86,0,80
1,note_on,84,46,0
1,note_on,84,0,80
1,note_on,82,50,0
1,note_on,82,0,80
1,note_on,81,46,0
1,note_on,81,0,80
1,note_on,79,46,0
1,note_on,79,0,80
1,note_on,77,46,0
1,note_on,77,0,80
1,note_on,75,46,0
1,note_on,75,0,80
1,note_on,74,46,0
1,note_on,74,0,80
1,note_on,72,43,0
1,note_on,72,0,480
1,note_on,70,38,0
1,note_on,70,0,240
1,note_on,70,46,120
1,note_on,70,0,120
1,note_on,69,36,0
1,note_on,69,0,80
1,note_on,70,37,0
1,note_on,70,0,80
1,note_on,72,38,0
1,note_on,72,0,80
1,note_on,74,40,0
1,note_on,74,0,80
1,note_on,75,41,0
1,note_on,75,0,80
1,note_on,77,42,0
1,note_on,77,0,80
1,note_on,79,44,0
1,note_on,79,0,80
1,note_on,81,45,0
1,note_on,81,0,80
1,note_on,82,46,0
1,note_on,82,0,80
1,note_on,83,48,0
1,note_on,83,0,80
1,note_on,84,49,0
1,note_on,84,0,80
1,note_on,86,51,0
1,note_on,86,0,80
1,note_on,89,65,0
1,note_on,89,0,480
1,note_on,87,61,0
1,note_on,87,0,240
1,note_on,87,46,120
1,note_on,87,0,120
1,note_on,86,51,0
1,note_on,86,0,80
1,note_on,98,46,0
1,note_on,98,0,80
1,note_on,96,46,0
1,note_on,96,0,80
1,note_on,94,50,0
1,note_on,94,0,80
1,note_on,93,46,0
1,note_on,93,0,80
1,note_on,91,46,0
1,note_on,91,0,80
1,note_on,89,50,0
1,note_on,89,0,80
1,note_on,87,46,0
1,note_on,87,0,80
1,note_on,86,46,0
1,note_on,86,0,80
1,note_on,84,46,0
1,note_on,84,0,80
1,note_on,82,46,0
1,note_on,82,0,80
1,note_on,81,46,0
1,note_on,81,0,80
1,note_on,79,51,0
1,note_on,79,0,80
1,note_on,91,46,0
1,note_on,91,0,80
1,note_on,89,46,0
1,note_on,89,0,80
1,note_on,87,50,0
1,note_on,87,0,80
1,note_on,86,46,0
1,note_on,86,0,80
1,note_on,84,46,0
1,note_on,84,0,80
1,note_on,82,50,0
1,note_on,82,0,80
1,note_on,81,49,0
1,note_on,81,0,80
1,note_on,79,50,0
1,note_on,79,0,80
1,note_on,77,52,0
1,note_on,77,0,80
1,note_on,75,53,0
1,note_on,75,0,80
1,note_on,74,54,0
1,note_on,74,0,80
1,note_on,72,56,0
1,note_on,72,0,80
1,note_on,76,56,0
1,note_on,76,0,80
1,note_on,79,55,0
1,note_on,79,0,80
1,note_on,82,54,0
1,note_on,82,0,80
1,note_on,79,53,0
1,note_on,79,0,80
1,note_on,82,52,0
1,note_on,82,0,80
1,note_on,84,51,0
1,note_on,84,0,80
1,note_on,88,50,0
1,note_on,88,0,80
1,note_on,91,49,0
1,note_on,91,0,80
1,note_on,94,47,0
1,note_on,94,0,80
1,note_on,91,46,0
1,note_on,91,0,80
1,note_on,88,45,0
1,note_on,88,0,80
1,note_on,89,53,0
1,note_on,89,0,240
1,note_on,89,49,0
1,note_on,89,0,80
1,note_on,91,43,0
1,note_on,91,0,80
1,note_on,89,43,0
1,note_on,89,0,80
1,note_on,88,48,0
1,note_on,88,0,80
1,note_on,91,42,0
1,note_on,91,0,80
1,note_on,89,42,0
1,note_on,89,0,80
1,note_on,88,42,0
1,note_on,88,0,80
1,note_on,91,39,0
1,note_on,91,0,80
1,note_on,89,36,0
1,note_on,89,0,80
1,note_on,88,51,0
1,note_on,88,0,80
1,note_on,91,46,0
1,note_on,91,0,80
1,note_on,89,46,0
1,note_on,89,0,80
1,note_on,87,50,0
1,note_on,87,0,80
1,note_on,86,46,0
1,note_on,86,0,80
1,note_on,84,46,0
1,note_on,84,0,80
1,note_on,82,50,0
1,note_on,82,0,80
1,note_on,81,46,0
1,note_on,81,0,80
1,note_on,79,46,0
1,note_on,79,0,80
1,note_on,77,46,0
1,note_on,77,0,80
1,note_on,75,46,0
1,note_on,75,0,80
1,note_on,74,46,0
1,note_on,74,0,80
1,note_on,72,43,0
1,note_on,72,0,480
1,note_on,70,38,0
1,note_on,70,0,240
1,note_on,70,46,120
1,note_on,70,0,120
1,note_on,69,36,0
1,note_on,69,0,80
1,note_on,70,37,0
1,note_on,70,0,80
1,note_on,72,38,0
1,note_on,72,0,80
1,note_on,74,40,0
1,note_on,74,0,80
1,note_on,75,41,0
1,note_on,75,0,80
1,note_on,77,42,0
1,note_on,77,0,80
1,note_on,79,44,0
1,note_on,79,0,80
1,note_on,81,45,0
1,note_on,81,0,80
1,note_on,82,46,0
1,note_on,82,0,80
1,note_on,83,48,0
1,note_on,83,0,80
1,note_on,84,49,0
1,note_on,84,0,80
1,note_on,86,51,0
1,note_on,86,0,80
1,note_on,89,65,0
1,note_on,89,0,360
1,note_on,88,59,0
1,note_on,88,0,120
1,note_on,87,61,0
1,note_on,87,0,240
1,note_on,87,46,120
1,note_on,87,0,120
1,note_on,86,51,0
1,note_on,86,0,80
1,note_on,98,46,0
1,note_on,98,0,80
1,note_on,96,46,0
1,note_on,96,0,80
1,note_on,94,50,0
1,note_on,94,0,80
1,note_on,93,46,0
1,note_on,93,0,80
1,note_on,91,46,0
1,note_on,91,0,80
1,note_on,89,50,0
1,note_on,89,0,80
1,note_on,87,46,0
1,note_on,87,0,80
1,note_on,86,49,0
1,note_on,86,0,80
1,note_on,84,52,0
1,note_on,84,0,80
1,note_on,82,54,0
1,note_on,82,0,80
1,note_on,81,57,0
1,note_on,81,0,80
1,note_on,79,60,0
1,note_on,79,0,80
1,note_on,94,60,0
1,note_on,94,0,80
1,note_on,91,58,0
1,note_on,91,0,80
1,note_on,88,56,0
1,note_on,88,0,80
1,note_on,85,54,0
1,note_on,85,0,80
1,note_on,82,52,0
1,note_on,82,0,80
1,note_on,79,56,0
1,note_on,79,0,80
1,note_on,76,51,0
1,note_on,76,0,80
1,note_on,73,50,0
1,note_on,73,0,80
1,note_on,70,49,0
1,note_on,70,0,80
1,note_on,67,49,0
1,note_on,67,0,80
1,note_on,64,48,0
1,note_on,64,0,80
1,note_on,65,49,0
1,note_on,65,0,80
1,note_on,64,45,0
1,note_on,64,0,80
1,note_on,65,45,0
1,note_on,65,0,80
1,note_on,67,44,0
1,note_on,67,0,80
1,note_on,69,44,0
1,note_on,69,0,80
1,note_on,70,44,0
1,note_on,70,0,80
1,note_on,72,44,0
1,note_on,72,0,80
1,note_on,74,43,0
1,note_on,74,0,80
1,note_on,75,44,0
1,note_on,75,0,80
1,note_on,77,45,0
1,note_on,77,0,80
1,note_on,79,46,0
1,note_on,79,0,80
1,note_on,81,47,0
1,note_on,81,0,80
1,note_on,82,48,0
1,note_on,82,0,80
1,note_on,86,49,0
1,note_on,86,0,80
1,note_on,89,51,0
1,note_on,89,0,80
1,note_on,94,52,0
1,note_on,94,0,80
1,note_on,98,54,0
1,note_on,98,0,80
1,note_on,96,54,0
1,note_on,96,0,80
1,note_on,94,53,0
1,note_on,94,0,80
1,note_on,89,52,0
1,note_on,89,0,80
1,note_on,86,50,0
1,note_on,86,0,80
1,note_on,82,48,0
1,note_on,82,0,80
1,note_on,84,47,0
1,note_on,84,0,80
1,note_on,85,45,0
1,note_on,85,0,80
1,note_on,86,75,0
1,note_on,86,0,120
1,note_on,74,68,120
1,note_on,78,68,0
1,note_on,84,68,0
1,note_on,86,80,0
1,note_on,86,0,480
1,note_on,74,0,0
1,note_on,78,0,0
1,note_on,84,0,0
1,note_on,74,59,0
1,note_on,78,59,0
1,note_on,84,59,0
1,note_on,86,70,0
1,note_on,86,0,240
1,note_on,74,0,0
1,note_on,78,0,0
1,note_on,84,0,0
1,note_on,86,79,240
1,note_on,82,67,0
1,note_on,79,67,0
1,note_on,74,67,0
1,note_on,74,0,480
1,note_on,86,0,0
1,note_on,82,0,0
1,note_on,79,0,0
1,note_on,91,74,0
1,note_on,86,62,0
1,note_on,82,62,0
1,note_on,79,62,0
1,note_on,79,0,240
1,note_on,91,0,0
1,note_on,86,0,0
1,note_on,82,0,0
1,note_on,82,74,240
1,note_on,86,74,0
1,note_on,94,88,0
1,note_on,94,0,480
1,note_on,86,0,0
1,note_on,82,0,0
1,note_on,79,64,0
1,note_on,86,64,0
1,note_on,91,77,0
1,note_on,91,0,240
1,note_on,86,0,0
1,note_on,79,0,0
1,note_on,76,67,0
1,note_on,79,67,0
1,note_on,84,67,0
1,note_on,88,79,0
1,note_on,88,0,960
1,note_on,76,0,0
1,note_on,79,0,0
1,note_on,84,0,0
1,note_on,77,74,240
1,note_on,84,74,0
1,note_on,89,88,0
1,note_on,84,0,240
1,note_on,77,0,0
1,note_on,89,0,80
1,note_on,84,64,0
1,note_on,84,0,80
1,note_on,81,61,0
1,note_on,81,0,80
1,note_on,77,59,0
1,note_on,77,0,80
1,note_on,72,57,0
1,note_on,72,0,80
1,note_on,69,54,0
1,note_on,69,0,80
1,note_on,67,52,0
1,note_on,67,0,120
1,note_on,77,74,120
1,note_on,86,74,0
1,note_on,89,88,0
1,note_on,86,0,240
1,note_on,77,0,0
1,note_on,89,0,80
1,note_on,86,60,0
1,note_on,86,0,80
1,note_on,82,58,0
1,note_on,82,0,80
1,note_on,77,56,0
1,note_on,77,0,80
1,note_on,74,55,0
1,note_on,74,0,80
1,note_on,70,53,0
1,note_on,70,0,80
1,note_on,69,51,0
1,note_on,69,0,80
1,note_on,84,70,0
1,note_on,84,0,80
1,note_on,82,67,0
1,note_on,82,0,80
1,note_on,81,65,0
1,note_on,81,0,80
1,note_on,79,63,0
1,note_on,79,0,80
1,note_on,77,61,0
1,note_on,77,0,80
1,note_on,76,59,0
1,note_on,76,0,80
1,note_on,74,57,0
1,note_on,74,0,80
1,note_on,72,55,0
1,note_on,72,0,80
1,note_on,70,53,0
1,note_on,70,0,80
1,note_on,69,51,0
1,note_on,69,0,80
1,note_on,67,49,0
1,note_on,67,0,80
1,note_on,65,53,0
1,note_on,65,0,240
1,note_on,77,49,0
1,note_on,77,0,80
1,note_on,79,43,0
1,note_on,79,0,80
1,note_on,77,43,0
1,note_on,77,0,80
1,note_on,76,48,0
1,note_on,76,0,80
1,note_on,79,44,0
1,note_on,79,0,80
1,note_on,77,42,0
1,note_on,77,0,80
1,note_on,76,41,0
1,note_on,76,0,80
1,note_on,91,39,0
1,note_on,91,0,80
1,note_on,89,38,0
1,note_on,89,0,80
1,note_on,88,51,0
1,note_on,88,0,80
1,note_on,91,46,0
1,note_on,91,0,80
1,note_on,89,46,0
1,note_on,89,0,80
1,note_on,87,50,0
1,note_on,87,0,80
1,note_on,86,46,0
1,note_on,86,0,80
1,note_on,84,46,0
1,note_on,84,0,80
1,note_on,82,50,0
1,note_on,82,0,80
1,note_on,81,46,0
1,note_on,81,0,80
1,note_on,79,46,0
1,note_on,79,0,80
1,note_on,77,46,0
1,note_on,77,0,80
1,note_on,75,46,0
1,note_on,75,0,80
1,note_on,74,46,0
1,note_on,74,0,80
1,note_on,72,43,0
1,note_on,72,0,480
1,note_on,70,38,0
1,note_on,70,0,240
1,note_on,69,46,120
1,note_on,69,0,120
1,note_on,70,36,0
1,note_on,70,0,80
1,note_on,72,37,0
1,note_on,72,0,80
1,note_on,74,38,0
1,note_on,74,0,80
1,note_on,75,40,0
1,note_on,75,0,80
1,note_on,77,41,0
1,note_on,77,0,80
1,note_on,79,42,0
1,note_on,79,0,80
1,note_on,81,45,0
1,note_on,81,0,80
1,note_on,82,47,0
1,note_on,82,0,80
1,note_on,84,50,0
1,note_on,84,0,80
1,note_on,86,52,0
1,note_on,86,0,80
1,note_on,87,55,0
1,note_on,87,0,80
1,note_on,89,57,0
1,note_on,89,0,80
1,note_on,91,60,0
1,note_on,91,0,40
1,note_on,93,50,0
1,note_on,93,0,40
1,note_on,91,51,0
1,note_on,91,0,40
1,note_on,93,52,0
1,note_on,93,0,40
1,note_on,91,53,0
1,note_on,91,0,40
1,note_on,93,55,0
1,note_on,93,0,40
1,note_on,91,54,0
1,note_on,91,0,40
1,note_on,90,53,0
1,note_on,90,0,40
1,note_on,91,52,0
1,note_on,91,0,40
1,note_on,94,51,0
1,note_on,94,0,120
1,note_on,97,68,0
1,note_on,97,0,240
1,note_on,72,46,120
1,note_on,72,0,120
1,note_on,71,51,0
1,note_on,71,0,80
1,note_on,72,46,0
1,note_on,72,0,80
1,note_on,74,46,0
1,note_on,74,0,80
1,note_on,76,50,0
1,note_on,76,0,80
1,note_on,77,46,0
1,note_on,77,0,80
1,note_on,79,46,0
1,note_on,79,0,80
1,note_on,81,50,0
1,note_on,81,0,80
1,note_on,82,48,0
1,note_on,82,0,80
1,note_on,84,51,0
1,note_on,84,0,80
1,note_on,86,54,0
1,note_on,86,0,80
1,note_on,87,57,0
1,note_on,87,0,80
1,note_on,88,60,0
1,note_on,88,0,80
1,note_on,89,65,0
1,note_on,89,0,80
1,note_on,101,67,0
1,note_on,101,0,80
1,note_on,100,65,0
1,note_on,100,0,80
1,note_on,99,63,0
1,note_on,99,0,80
1,note_on,98,61,0
1,note_on,98,0,80
1,note_on,96,60,0
1,note_on,96,0,80
1,note_on,94,58,0
1,note_on,94,0,80
1,note_on,93,56,0
1,note_on,93,0,80
1,note_on,91,54,0
1,note_on,91,0,80
1,note_on,89,52,0
1,note_on,89,0,80
1,note_on,87,50,0
1,note_on,87,0,80
1,note_on,86,48,0
1,note_on,86,0,80
1,note_on,84,46,0
1,note_on,84,0,80
1,note_on,93,45,0
1,note_on,93,0,80
1,note_on,91,45,0
1,note_on,91,0,80
1,note_on,87,44,0
1,note_on,87,0,80
1,note_on,84,44,0
1,note_on,84,0,80
1,note_on,82,44,0
1,note_on,82,0,80
1,note_on,81,44,0
1,note_on,81,0,80
1,note_on,79,43,0
1,note_on,79,0,80
1,note_on,77,43,0
1,note_on,77,0,80
1,note_on,75,43,0
1,note_on,75,0,80
1,note_on,74,43,0
1,note_on,74,0,80
1,note_on,72,43,0
1,note_on,72,0,80
1,note_on,70,45,0
1,note_on,70,0,80
1,note_on,74,46,0
1,note_on,74,0,80
1,note_on,77,46,0
1,note_on,77,0,80
1,note_on,82,47,0
1,note_on,82,0,80
1,note_on,86,48,0
1,note_on,86,0,80
1,note_on,84,49,0
1,note_on,84,0,80
1,note_on,82,51,0
1,note_on,82,0,80
1,note_on,81,55,0
1,note_on,81,0,80
1,note_on,82,58,0
1,note_on,82,0,80
1,note_on,83,62,0
1,note_on,83,0,80
1,note_on,84,65,0
1,note_on,84,0,80
1,note_on,85,68,0
1,note_on,85,0,80
1,note_on,86,75,0
1,note_on,86,0,120
1,note_on,74,68,120
1,note_on,78,68,0
1,note_on,84,68,0
1,note_on,86,80,0
1,note_on,86,0,480
1,note_on,74,0,0
1,note_on,78,0,0
1,note_on,84,0,0
1,note_on,74,59,0
1,note_on,78,59,0
1,note_on,84,59,0
1,note_on,86,70,0
1,note_on,86,0,240
1,note_on,74,0,0
1,note_on,78,0,0
1,note_on,84,0,0
1,note_on,86,79,240
1,note_on,82,67,0
1,note_on,79,67,0
1,note_on,74,67,0
1,note_on,74,0,480
1,note_on,86,0,0
1,note_on,82,0,0
1,note_on,79,0,0
1,note_on,91,74,0
1,note_on,86,62,0
1,note_on,82,62,0
1,note_on,79,62,0
1,note_on,79,0,240
1,note_on,91,0,0
1,note_on,86,0,0
1,note_on,82,0,0
1,note_on,82,74,240
1,note_on,86,74,0
1,note_on,94,88,0
1,note_on,94,0,480
1,note_on,86,0,0
1,note_on,82,0,0
1,note_on,79,64,0
1,note_on,86,64,0
1,note_on,91,77,0
1,note_on,91,0,240
1,note_on,86,0,0
1,note_on,79,0,0
1,note_on,76,67,0
1,note_on,79,67,0
1,note_on,84,67,0
1,note_on,88,79,0
1,note_on,88,0,960
1,note_on,76,0,0
1,note_on,79,0,0
1,note_on,84,0,0
1,note_on,77,74,240
1,note_on,84,74,0
1,note_on,89,88,0
1,note_on,84,0,240
1,note_on,77,0,0
1,note_on,89,0,80
1,note_on,84,63,0
1,note_on,84,0,80
1,note_on,81,61,0
1,note_on,81,0,80
1,note_on,77,59,0
1,note_on,77,0,80
1,note_on,72,56,0
1,note_on,72,0,80
1,note_on,69,54,0
1,note_on,69,0,80
1,note_on,67,52,0
1,note_on,67,0,120
1,note_on,77,74,120
1,note_on,86,74,0
1,note_on,89,88,0
1,note_on,86,0,240
1,note_on,77,0,0
1,note_on,89,0,80
1,note_on,86,65,0
1,note_on,86,0,80
1,note_on,82,63,0
1,note_on,82,0,80
1,note_on,77,61,0
1,note_on,77,0,80
1,note_on,74,59,0
1,note_on,74,0,80
1,note_on,70,57,0
1,note_on,70,0,80
1,note_on,69,55,0
1,note_on,69,0,80
1,note_on,84,70,0
1,note_on,84,0,80
1,note_on,82,67,0
1,note_on,82,0,80
1,note_on,81,65,0
1,note_on,81,0,80
1,note_on,79,63,0
1,note_on,79,0,80
1,note_on,77,61,0
1,note_on,77,0,80
1,note_on,76,59,0
1,note_on,76,0,80
1,note_on,74,57,0
1,note_on,74,0,80
1,note_on,72,55,0
1,note_on,72,0,80
1,note_on,70,53,0
1,note_on,70,0,80
1,note_on,69,51,0
1,note_on,69,0,80
1,note_on,67,49,0
1,note_on,67,0,80
1,note_on,65,53,0
1,note_on,65,0,240
1,note_on,77,49,0
1,note_on,77,0,80
1,note_on,79,43,0
1,note_on,79,0,80
1,note_on,77,43,0
1,note_on,77,0,80
1,note_on,76,48,0
1,note_on,76,0,80
1,note_on,79,42,0
1,note_on,79,0,80
1,note_on,77,42,0
1,note_on,77,0,80
1,note_on,76,43,0
1,note_on,76,0,80
1,note_on,91,40,0
1,note_on,91,0,80
1,note_on,89,38,0
1,note_on,89,0,80
1,note_on,88,51,0
1,note_on,88,0,80
1,note_on,91,46,0
1,note_on,91,0,80
1,note_on,89,46,0
1,note_on,89,0,80
1,note_on,87,50,0
1,note_on,87,0,80
1,note_on,86,46,0
1,note_on,86,0,80
1,note_on,84,46,0
1,note_on,84,0,80
1,note_on,82,50,0
1,note_on,82,0,80
1,note_on,81,46,0
1,note_on,81,0,80
1,note_on,79,46,0
1,note_on,79,0,80
1,note_on,77,46,0
1,note_on,77,0,80
1,note_on,75,46,0
1,note_on,75,0,80
1,note_on,74,46,0
1,note_on,74,0,80
1,note_on,72,43,0
1,note_on,72,0,480
1,note_on,70,38,0
1,note_on,70,0,240
1,note_on,69,46,120
1,note_on,69,0,120
1,note_on,70,36,0
1,note_on,70,0,80
1,note_on,72,37,0
1,note_on,72,0,80
1,note_on,74,38,0
1,note_on,74,0,80
1,note_on,75,40,0
1,note_on,75,0,80
1,note_on,77,41,0
1,note_on,77,0,80
1,note_on,79,42,0
1,note_on,79,0,80
1,note_on,81,45,0
1,note_on,81,0,80
1,note_on,82,47,0
1,note_on,82,0,80
1,note_on,84,50,0
1,note_on,84,0,80
1,note_on,86,52,0
1,note_on,86,0,80
1,note_on,87,55,0
1,note_on,87,0,80
1,note_on,89,57,0
1,note_on,89,0,80
1,note_on,91,51,0
1,note_on,91,0,40
1,note_on,93,52,0
1,note_on,93,0,40
1,note_on,91,53,0
1,note_on,91,0,40
1,note_on,93,54,0
1,note_on,93,0,40
1,note_on,91,55,0
1,note_on,91,0,40
1,note_on,93,56,0
1,note_on,93,0,40
1,note_on,91,54,0
1,note_on,91,0,40
1,note_on,90,53,0
1,note_on,90,0,40
1,note_on,91,52,0
1,note_on,91,0,40
1,note_on,94,51,0
1,note_on,94,0,120
1,note_on,97,68,0
1,note_on,97,0,240
1,note_on,72,46,120
1,note_on,72,0,120
1,note_on,71,51,0
1,note_on,71,0,80
1,note_on,72,46,0
1,note_on,72,0,80
1,note_on,74,46,0
1,note_on,74,0,80
1,note_on,76,50,0
1,note_on,76,0,80
1,note_on,77,46,0
1,note_on,77,0,80
1,note_on,79,46,0
1,note_on,79,0,80
1,note_on,81,50,0
1,note_on,81,0,80
1,note_on,82,49,0
1,note_on,82,0,80
1,note_on,84,51,0
1,note_on,84,0,80
1,note_on,86,54,0
1,note_on,86,0,80
1,note_on,87,56,0
1,note_on,87,0,80
1,note_on,88,59,0
1,note_on,88,0,80
1,note_on,89,61,0
1,note_on,89,0,80
1,note_on,101,65,0
1,note_on,101,0,80
1,note_on,100,63,0
1,note_on,100,0,80
1,note_on,99,61,0
1,note_on,99,0,80
1,note_on,98,60,0
1,note_on,98,0,80
1,note_on,96,58,0
1,note_on,96,0,80
1,note_on,94,56,0
1,note_on,94,0,80
1,note_on,93,55,0
1,note_on,93,0,80
1,note_on,91,53,0
1,note_on,91,0,80
1,note_on,89,51,0
1,note_on,89,0,80
1,note_on,87,50,0
1,note_on,87,0,80
1,note_on,86,48,0
1,note_on,86,0,80
1,note_on,84,49,0
1,note_on,84,0,80
1,note_on,93,45,0
1,note_on,93,0,80
1,note_on,91,45,0
1,note_on,91,0,80
1,note_on,87,44,0
1,note_on,87,0,80
1,note_on,84,44,0
1,note_on,84,0,80
1,note_on,82,44,0
1,note_on,82,0,80
1,note_on,81,44,0
1,note_on,81,0,80
1,note_on,79,43,0
1,note_on,79,0,80
1,note_on,77,43,0
1,note_on,77,0,80
1,note_on,75,43,0
1,note_on,75,0,80
1,note_on,74,43,0
1,note_on,74,0,80
1,note_on,72,43,0
1,note_on,72,0,80
1,note_on,70,45,0
1,note_on,70,0,80
1,note_on,74,46,0
1,note_on,74,0,80
1,note_on,77,46,0
1,note_on,77,0,80
1,note_on,82,48,0
1,note_on,82,0,80
1,note_on,86,48,0
1,note_on,86,0,80
1,note_on,84,47,0
1,note_on,84,0,80
1,note_on,82,47,0
1,note_on,82,0,80
1,note_on,81,45,0
1,note_on,81,0,80
1,note_on,79,44,0
1,note_on,79,0,80
1,note_on,77,42,0
1,note_on,77,0,80
1,note_on,75,40,0
1,note_on,75,0,80
1,note_on,74,38,0
1,note_on,74,0,80
1,note_on,72,42,0
1,note_on,72,0,80
1,note_on,81,45,0
1,note_on,81,0,80
1,note_on,79,44,0
1,note_on,79,0,80
1,note_on,75,43,0
1,note_on,75,0,80
1,note_on,72,41,0
1,note_on,72,0,80
1,note_on,70,40,0
1,note_on,70,0,80
1,note_on,69,39,0
1,note_on,69,0,80
1,note_on,67,37,0
1,note_on,67,0,80
1,note_on,65,36,0
1,note_on,65,0,80
1,note_on,63,37,0
1,note_on,63,0,80
1,note_on,62,36,0
1,note_on,62,0,80
1,note_on,60,35,0
1,note_on,60,0,80
1,note_on,58,34,0
1,note_on,58,0,80
1,note_on,62,39,0
1,note_on,62,0,80
1,note_on,65,38,0
1,note_on,65,0,80
1,note_on,70,37,0
1,note_on,70,0,80
1,note_on,74,36,0
1,note_on,74,0,80
1,note_on,72,35,0
1,note_on,72,0,80
1,note_on,70,34,0
1,note_on,70,0,80
1,note_on,69,33,0
1,note_on,69,0,80
1,note_on,67,32,0
1,note_on,67,0,80
1,note_on,65,31,0
1,note_on,65,0,80
1,note_on,63,30,0
1,note_on,63,0,80
1,note_on,62,29,0
1,note_on,62,0,80
1,note_on,60,27,0
1,note_on,60,0,80
1,note_on,69,31,0
1,note_on,69,0,80
1,note_on,67,31,0
1,note_on,67,0,80
1,note_on,63,30,0
1,note_on,63,0,80
1,note_on,60,29,0
1,note_on,60,0,80
1,note_on,58,29,0
1,note_on,58,0,80
1,note_on,57,28,0
1,note_on,57,0,40
1,note_on,55,27,40
1,note_on,55,0,40
1,note_on,53,27,40
1,note_on,53,0,40
1,note_on,51,26,40
1,note_on,51,0,40
1,note_on,50,25,40
1,note_on,50,0,40
1,note_on,48,25,40
1,note_on,48,0,40
1,note_on,53,36,760
1,note_on,53,0,240
1,note_on,50,34,0
1,note_on,53,34,0
1,note_on,62,40,0
1,note_on,62,0,432
1,note_on,53,0,0
1,note_on,50,0,0
1,note_on,50,34,48
1,note_on,53,34,0
1,note_on,62,40,0
1,note_on,62,0,216
1,note_on,53,0,0
1,note_on,50,0,0
1,note_on,50,30,24
1,note_on,53,30,0
1,note_on,62,36,0
1,note_on,62,0,216
1,note_on,53,0,0
1,note_on,50,0,0
1,note_on,50,34,24
1,note_on,53,34,0
1,note_on,58,40,0
1,note_on,58,0,432
1,note_on,53,0,0
1,note_on,50,0,0
1,note_on,50,30,48
1,note_on,53,30,0
1,note_on,58,36,0
1,note_on,58,0,432
1,note_on,53,0,0
1,note_on,50,0,0
1,note_on,53,34,48
1,note_on,51,34,0
1,note_on,57,40,0
1,note_on,57,0,432
1,note_on,51,0,0
1,note_on,53,0,0
1,note_on,51,30,48
1,note_on,53,30,0
1,note_on,57,36,0
1,note_on,57,0,216
1,note_on,53,0,0
1,note_on,51,0,0
1,note_on,51,33,24
1,note_on,53,33,0
1,note_on,57,39,0
1,note_on,57,0,216
1,note_on,53,0,0
1,note_on,51,0,0
1,note_on,63,46,24
1,note_on,60,38,0
1,note_on,60,0,960
1,note_on,63,0,0
1,note_on,58,34,0
1,note_on,53,34,0
1,note_on,62,40,0
1,note_on,62,0,432
1,note_on,53,0,0
1,note_on,58,0,0
1,note_on,55,30,48
1,note_on,53,30,0
1,note_on,59,30,0
1,note_on,62,36,0
1,note_on,62,0,216
1,note_on,55,0,0
1,note_on,53,0,0
1,note_on,59,0,0
1,note_on,55,33,24
1,note_on,53,33,0
1,note_on,59,33,0
1,note_on,62,39,0
1,note_on,62,0,216
1,note_on,55,0,0
1,note_on,53,0,0
1,note_on,59,0,0
1,note_on,62,45,24
1,note_on,55,46,0
1,note_on,51,38,0
1,note_on,55,0,480
1,note_on,62,0,0
1,note_on,55,38,0
1,note_on,55,0,480
1,note_on,51,0,0
1,note_on,51,38,0
1,note_on,57,38,0
1,note_on,60,37,0
1,note_on,60,0,240
1,note_on,59,33,0
1,note_on,59,0,120
1,note_on,60,25,0
1,note_on,60,0,120
1,note_on,59,32,0
1,note_on,59,0,120
1,note_on,60,24,0
1,note_on,60,0,120
1,note_on,62,37,0
1,note_on,62,0,180
1,note_on,60,34,0
1,note_on,60,0,60
1,note_on,57,0,0
1,note_on,51,0,0
1,note_on,50,25,0
1,note_on,58,30,0
1,note_on,58,0,960
1,note_on,50,0,0
1,note_on,62,34,0
1,note_on,70,34,0
1,note_on,65,34,0
1,note_on,74,40,0
1,note_on,74,0,432
1,note_on,62,0,0
1,note_on,70,0,0
1,note_on,65,0,0
1,note_on,67,30,48
1,note_on,65,30,0
1,note_on,71,30,0
1,note_on,74,36,0
1,note_on,74,0,216
1,note_on,67,0,0
1,note_on,65,0,0
1,note_on,71,0,0
1,note_on,67,33,24
1,note_on,65,33,0
1,note_on,71,33,0
1,note_on,74,39,0
1,note_on,74,0,216
1,note_on,67,0,0
1,note_on,65,0,0
1,note_on,71,0,0
1,note_on,74,45,24
1,note_on,67,46,0
1,note_on,63,38,0
1,note_on,67,0,480
1,note_on,74,0,0
1,note_on,67,38,0
1,note_on,67,0,480
1,note_on,63,0,0
1,note_on,63,38,0
1,note_on,69,38,0
1,note_on,72,37,0
1,note_on,72,0,240
1,note_on,71,37,0
1,note_on,71,0,120
1,note_on,72,28,0
1,note_on,72,0,120
1,note_on,71,36,0
1,note_on,71,0,120
1,note_on,72,28,0
1,note_on,72,0,120
1,note_on,74,37,0
1,note_on,74,0,180
1,note_on,72,34,0
1,note_on,72,0,60
1,note_on,69,0,0
1,note_on,63,0,0
1,note_on,62,25,0
1,note_on,70,30,0
1,note_on,70,0,960
1,note_on,62,0,0
1,note_on,75,38,0
1,note_on,81,38,0
1,note_on,84,37,0
1,note_on,84,0,1200
1,note_on,81,0,0
1,note_on,75,0,0
1,note_on,83,37,0
1,note_on,83,0,120
1,note_on,84,30,0
1,note_on,84,0,120
1,note_on,83,37,0
1,note_on,83,0,120
1,note_on,84,32,0
1,note_on,84,0,120
1,note_on,87,43,0
1,note_on,87,0,180
1,note_on,81,34,0
1,note_on,81,0,60
1,note_on,74,25,0
1,note_on,82,30,0
1,note_on,82,0,480
1,note_on,74,0,0
1,note_on,62,25,480
1,note_on,65,25,0
1,note_on,70,25,0
1,note_on,74,30,0
1,note_on,74,0,480
1,note_on,62,0,0
1,note_on,65,0,0
1,note_on,70,0,0
1,note_on,62,25,480
1,note_on,65,25,0
1,note_on,70,30,0
1,note_on,70,0,1920
1,note_on,65,0,0
1,note_on,62,0,0
2,note_on,46,35,0
2,note_on,46,0,120
2,note_on,62,24,120
2,note_on,62,0,240
2,note_on,53,22,0
2,note_on,58,27,0
2,note_on,58,0,240
2,note_on,53,0,0
2,note_on,62,25,0
2,note_on,62,0,240
2,note_on,50,35,0
2,note_on,50,0,120
2,note_on,65,27,120
2,note_on,65,0,240
2,note_on,58,30,0
2,note_on,53,25,0
2,note_on,53,0,240
2,note_on,58,0,0
2,note_on,65,27,0
2,note_on,65,0,240
2,note_on,48,35,0
2,note_on,48,0,120
2,note_on,63,26,120
2,note_on,63,0,240
2,note_on,53,24,0
2,note_on,57,29,0
2,note_on,57,0,240
2,note_on,53,0,0
2,note_on,63,26,0
2,note_on,63,0,240
2,note_on,41,35,0
2,note_on,41,0,120
2,note_on,60,23,120
2,note_on,60,0,240
2,note_on,57,23,0
2,note_on,53,19,0
2,note_on,53,0,240
2,note_on,57,0,0
2,note_on,60,23,0
2,note_on,60,0,240
2,note_on,46,35,0
2,note_on,46,0,120
2,note_on,62,24,120
2,note_on,62,0,240
2,note_on,53,22,0
2,note_on,58,27,0
2,note_on,58,0,240
2,note_on,53,0,0
2,note_on,62,25,0
2,note_on,62,0,240
2,note_on,39,35,0
2,note_on,39,0,120
2,note_on,60,27,120
2,note_on,60,0,240
2,note_on,55,25,0
2,note_on,58,30,0
2,note_on,51,25,0
2,note_on,51,0,240
2,note_on,58,0,0
2,note_on,55,0,0
2,note_on,60,27,0
2,note_on,60,0,240
2,note_on,40,35,0
2,note_on,40,0,120
2,note_on,60,26,120
2,note_on,60,0,240
2,note_on,58,29,0
2,note_on,55,24,0
2,note_on,52,24,0
2,note_on,52,0,240
2,note_on,55,0,0
2,note_on,58,0,0
2,note_on,60,26,0
2,note_on,60,0,240
2,note_on,41,35,0
2,note_on,41,0,120
2,note_on,53,20,120
2,note_on,57,25,0
2,note_on,57,0,240
2,note_on,58,23,0
2,note_on,58,0,240
2,note_on,60,21,0
2,note_on,60,0,240
2,note_on,53,0,0
2,note_on,46,35,0
2,note_on,46,0,240
2,note_on,62,24,0
2,note_on,62,0,240
2,note_on,58,27,0
2,note_on,53,22,0
2,note_on,53,0,240
2,note_on,58,0,0
2,note_on,62,25,0
2,note_on,62,0,240
2,note_on,50,35,0
2,note_on,50,0,240
2,note_on,65,27,0
2,note_on,65,0,240
2,note_on,53,25,0
2,note_on,58,30,0
2,note_on,58,0,240
2,note_on,53,0,0
2,note_on,65,27,0
2,note_on,65,0,240
2,note_on,48,35,0
2,note_on,48,0,240
2,note_on,63,26,0
2,note_on,63,0,240
2,note_on,57,29,0
2,note_on,53,24,0
2,note_on,53,0,240
2,note_on,57,0,0
2,note_on,63,26,0
2,note_on,63,0,240
2,note_on,41,35,0
2,note_on,41,0,240
2,note_on,60,23,0
2,note_on,60,0,240
2,note_on,57,23,0
2,note_on,53,19,0
2,note_on,53,0,240
2,note_on,57,0,0
2,note_on,60,23,0
2,note_on,60,0,240
2,note_on,46,35,0
2,note_on,46,0,240
2,note_on,62,24,0
2,note_on,62,0,240
2,note_on,53,22,0
2,note_on,58,27,0
2,note_on,58,0,240
2,note_on,53,0,0
2,note_on,62,25,0
2,note_on,62,0,240
2,note_on,40,35,0
2,note_on,40,0,240
2,note_on,61,27,0
2,note_on,61,0,240
2,note_on,52,25,0
2,note_on,55,25,0
2,note_on,58,30,0
2,note_on,58,0,240
2,note_on,55,0,0
2,note_on,52,0,0
2,note_on,61,27,0
2,note_on,61,0,240
2,note_on,58,35,0
2,note_on,53,35,0
2,note_on,60,29,0
2,note_on,58,0,240
2,note_on,57,24,0
2,note_on,57,0,120
2,note_on,55,24,0
2,note_on,55,0,120
2,note_on,57,31,0
2,note_on,57,0,240
2,note_on,60,0,0
2,note_on,53,0,0
2,note_on,53,26,0
2,note_on,60,26,0
2,note_on,60,0,240
2,note_on,53,0,0
2,note_on,46,30,0
2,note_on,46,0,120
2,note_on,58,25,120
2,note_on,58,0,240
2,note_on,53,23,0
2,note_on,50,18,0
2,note_on,50,0,240
2,note_on,53,0,0
2,note_on,58,21,0
2,note_on,58,0,240
2,note_on,46,35,0
2,note_on,46,0,120
2,note_on,62,24,120
2,note_on,62,0,240
2,note_on,58,27,0
2,note_on,53,22,0
2,note_on,53,0,240
2,note_on,58,0,0
2,note_on,62,25,0
2,note_on,62,0,240
2,note_on,50,35,0
2,note_on,50,0,120
2,note_on,65,27,120
2,note_on,65,0,240
2,note_on,58,30,0
2,note_on,53,25,0
2,note_on,53,0,240
2,note_on,58,0,0
2,note_on,65,27,0
2,note_on,65,0,240
2,note_on,48,35,0
2,note_on,48,0,120
2,note_on,63,26,120
2,note_on,63,0,240
2,note_on,57,29,0
2,note_on,53,24,0
2,note_on,53,0,240
2,note_on,57,0,0
2,note_on,63,26,0
2,note_on,63,0,240
2,note_on,41,35,0
2,note_on,41,0,120
2,note_on,60,23,120
2,note_on,60,0,240
2,note_on,53,19,0
2,note_on,57,23,0
2,note_on,57,0,240
2,note_on,53,0,0
2,note_on,60,23,0
2,note_on,60,0,240
2,note_on,46,35,0
2,note_on,46,0,120
2,note_on,62,24,120
2,note_on,62,0,240
2,note_on,53,22,0
2,note_on,58,27,0
2,note_on,58,0,240
2,note_on,53,0,0
2,note_on,62,25,0
2,note_on,62,0,240
2,note_on,39,35,0
2,note_on,39,0,120
2,note_on,60,27,120
2,note_on,60,0,240
2,note_on,51,25,0
2,note_on,58,30,0
2,note_on,55,25,0
2,note_on,55,0,240
2,note_on,58,0,0
2,note_on,51,0,0
2,note_on,60,27,0
2,note_on,60,0,240
2,note_on,40,35,0
2,note_on,40,0,120
2,note_on,60,26,120
2,note_on,60,0,240
2,note_on,58,29,0
2,note_on,55,24,0
2,note_on,52,24,0
2,note_on,52,0,240
2,note_on,55,0,0
2,note_on,58,0,0
2,note_on,60,26,0
2,note_on,60,0,240
2,note_on,41,35,0
2,note_on,41,0,120
2,note_on,53,20,120
2,note_on,57,25,0
2,note_on,57,0,240
2,note_on,58,23,0
2,note_on,58,0,240
2,note_on,60,21,0
2,note_on,60,0,240
2,note_on,53,0,0
2,note_on,46,35,0
2,note_on,46,0,240
2,note_on,62,24,0
2,note_on,62,0,240
2,note_on,53,22,0
2,note_on,58,27,0
2,note_on,58,0,240
2,note_on,53,0,0
2,note_on,62,25,0
2,note_on,62,0,240
2,note_on,50,35,0
2,note_on,50,0,240
2,note_on,65,27,0
2,note_on,65,0,240
2,note_on,53,25,0
2,note_on,58,30,0
2,note_on,58,0,240
2,note_on,53,0,0
2,note_on,65,27,0
2,note_on,65,0,240
2,note_on,48,35,0
2,note_on,48,0,240
2,note_on,63,26,0
2,note_on,63,0,240
2,note_on,53,24,0
2,note_on,57,29,0
2,note_on,57,0,240
2,note_on,53,0,0
2,note_on,63,26,0
2,note_on,63,0,240
2,note_on,41,35,0
2,note_on,41,0,240
2,note_on,60,23,0
2,note_on,60,0,240
2,note_on,57,23,0
2,note_on,53,19,0
2,note_on,53,0,240
2,note_on,57,0,0
2,note_on,60,23,0
2,note_on,60,0,240
2,note_on,46,35,0
2,note_on,46,0,240
2,note_on,62,24,0
2,note_on,62,0,240
2,note_on,53,22,0
2,note_on,58,27,0
2,note_on,58,0,240
2,note_on,53,0,0
2,note_on,62,25,0
2,note_on,62,0,240
2,note_on,40,35,0
2,note_on,40,0,240
2,note_on,61,27,0
2,note_on,61,0,240
2,note_on,58,30,0
2,note_on,55,25,0
2,note_on,52,25,0
2,note_on,52,0,240
2,note_on,55,0,0
2,note_on,58,0,0
2,note_on,61,27,0
2,note_on,61,0,240
2,note_on,60,29,0
2,note_on,58,35,0
2,note_on,53,35,0
2,note_on,58,0,240
2,note_on,57,24,0
2,note_on,57,0,120
2,note_on,55,24,0
2,note_on,55,0,120
2,note_on,57,31,0
2,note_on,57,0,240
2,note_on,53,0,0
2,note_on,60,0,0
2,note_on,53,26,0
2,note_on,60,26,0
2,note_on,60,0,240
2,note_on,53,0,0
2,note_on,46,30,0
2,note_on,46,0,120
2,note_on,58,25,120
2,note_on,58,0,240
2,note_on,50,18,0
2,note_on,53,23,0
2,note_on,53,0,240
2,note_on,50,0,0
2,note_on,58,21,0
2,note_on,58,0,240
2,note_on,50,42,0
2,note_on,38,42,0
2,note_on,38,0,240
2,note_on,50,0,0
2,note_on,62,28,0
2,note_on,62,0,240
2,note_on,57,32,0
2,note_on,54,26,0
2,note_on,54,0,240
2,note_on,57,0,0
2,note_on,62,30,0
2,note_on,62,0,240
2,note_on,43,42,0
2,note_on,43,0,240
2,note_on,58,32,0
2,note_on,58,0,240
2,note_on,55,36,0
2,note_on,50,30,0
2,note_on,50,0,240
2,note_on,55,0,0
2,note_on,58,32,0
2,note_on,58,0,240
2,note_on,43,42,0
2,note_on,43,0,240
2,note_on,58,31,0
2,note_on,58,0,240
2,note_on,55,34,0
2,note_on,50,28,0
2,note_on,50,0,240
2,note_on,55,0,0
2,note_on,58,31,0
2,note_on,58,0,240
2,note_on,36,42,0
2,note_on,36,0,240
2,note_on,55,27,0
2,note_on,55,0,240
2,note_on,48,22,0
2,note_on,52,27,0
2,note_on,52,0,240
2,note_on,48,0,0
2,note_on,55,27,0
2,note_on,55,0,240
2,note_on,41,42,0
2,note_on,41,0,240
2,note_on,57,28,0
2,note_on,57,0,240
2,note_on,48,25,0
2,note_on,53,31,0
2,note_on,53,0,240
2,note_on,48,0,0
2,note_on,57,28,0
2,note_on,57,0,240
2,note_on,34,38,0
2,note_on,34,0,240
2,note_on,55,29,0
2,note_on,55,0,240
2,note_on,50,26,0
2,note_on,53,31,0
2,note_on,53,0,240
2,note_on,50,0,0
2,note_on,55,27,0
2,note_on,55,0,240
2,note_on,36,35,0
2,note_on,36,0,240
2,note_on,48,26,0
2,note_on,55,26,0
2,note_on,55,0,240
2,note_on,57,29,0
2,note_on,57,0,240
2,note_on,58,26,0
2,note_on,58,0,240
2,note_on,48,0,0
2,note_on,41,35,0
2,note_on,41,0,240
2,note_on,53,20,0
2,note_on,57,25,0
2,note_on,57,0,240
2,note_on,58,23,0
2,note_on,58,0,240
2,note_on,60,21,0
2,note_on,60,0,240
2,note_on,53,0,0
2,note_on,46,35,0
2,note_on,46,0,240
2,note_on,62,24,0
2,note_on,62,0,240
2,note_on,58,27,0
2,note_on,53,22,0
2,note_on,53,0,240
2,note_on,58,0,0
2,note_on,62,25,0
2,note_on,62,0,240
2,note_on,50,35,0
2,note_on,50,0,240
2,note_on,65,27,0
2,note_on,65,0,240
2,note_on,56,25,0
2,note_on,58,30,0
2,note_on,58,0,240
2,note_on,56,0,0
2,note_on,65,27,0
2,note_on,65,0,240
2,note_on,48,35,0
2,note_on,48,0,240
2,note_on,63,26,0
2,note_on,63,0,240
2,note_on,55,24,0
2,note_on,58,29,0
2,note_on,58,0,240
2,note_on,55,0,0
2,note_on,63,26,0
2,note_on,63,0,240
2,note_on,52,35,0
2,note_on,52,0,240
2,note_on,67,23,0
2,note_on,67,0,240
2,note_on,61,23,0
2,note_on,58,19,0
2,note_on,58,0,240
2,note_on,61,0,0
2,note_on,67,23,0
2,note_on,67,0,240
2,note_on,43,35,0
2,note_on,43,0,240
2,note_on,60,24,0
2,note_on,60,0,240
2,note_on,55,22,0
2,note_on,58,27,0
2,note_on,58,0,240
2,note_on,55,0,0
2,note_on,60,25,0
2,note_on,60,0,240
2,note_on,41,35,0
2,note_on,41,0,240
2,note_on,62,27,0
2,note_on,62,0,240
2,note_on,53,25,0
2,note_on,58,30,0
2,note_on,58,0,240
2,note_on,53,0,0
2,note_on,62,27,0
2,note_on,62,0,240
2,note_on,41,35,0
2,note_on,41,0,240
2,note_on,60,24,0
2,note_on,60,0,240
2,note_on,53,31,0
2,note_on,53,0,240
2,note_on,60,26,0
2,note_on,60,0,240
2,note_on,46,30,0
2,note_on,46,0,240
2,note_on,58,25,0
2,note_on,58,0,240
2,note_on,53,23,0
2,note_on,50,23,0
2,note_on,50,0,240
2,note_on,53,0,0
2,note_on,58,21,0
2,note_on,58,0,240
2,note_on,38,42,0
2,note_on,50,42,0
2,note_on,50,0,240
2,note_on,38,0,0
2,note_on,62,28,0
2,note_on,62,0,240
2,note_on,54,26,0
2,note_on,57,32,0
2,note_on,57,0,240
2,note_on,54,0,0
2,note_on,62,30,0
2,note_on,62,0,240
2,note_on,43,42,0
2,note_on,43,0,240
2,note_on,58,32,0
2,note_on,58,0,240
2,note_on,50,30,0
2,note_on,55,36,0
2,note_on,55,0,240
2,note_on,50,0,0
2,note_on,58,32,0
2,note_on,58,0,240
2,note_on,43,42,0
2,note_on,43,0,240
2,note_on,58,31,0
2,note_on,58,0,240
2,note_on,55,34,0
2,note_on,50,28,0
2,note_on,50,0,240
2,note_on,55,0,0
2,note_on,58,31,0
2,note_on,58,0,240
2,note_on,36,42,0
2,note_on,36,0,240
2,note_on,55,27,0
2,note_on,55,0,240
2,note_on,52,27,0
2,note_on,48,22,0
2,note_on,48,0,240
2,note_on,52,0,0
2,note_on,55,27,0
2,note_on,55,0,240
2,note_on,41,42,0
2,note_on,41,0,240
2,note_on,57,28,0
2,note_on,57,0,240
2,note_on,53,31,0
2,note_on,48,25,0
2,note_on,48,0,240
2,note_on,53,0,0
2,note_on,57,28,0
2,note_on,57,0,240
2,note_on,34,38,0
2,note_on,34,0,240
2,note_on,55,29,0
2,note_on,55,0,240
2,note_on,53,31,0
2,note_on,50,26,0
2,note_on,50,0,240
2,note_on,53,0,0
2,note_on,55,27,0
2,note_on,55,0,240
2,note_on,36,35,0
2,note_on,36,0,240
2,note_on,55,26,0
2,note_on,48,26,0
2,note_on,55,0,240
2,note_on,57,29,0
2,note_on,57,0,240
2,note_on,58,26,0
2,note_on,58,0,240
2,note_on,48,0,0
2,note_on,41,35,0
2,note_on,41,0,240
2,note_on,53,20,0
2,note_on,57,25,0
2,note_on,57,0,240
2,note_on,58,23,0
2,note_on,58,0,240
2,note_on,60,21,0
2,note_on,60,0,240
2,note_on,53,0,0
2,note_on,46,35,0
2,note_on,46,0,240
2,note_on,62,24,0
2,note_on,62,0,240
2,note_on,58,27,0
2,note_on,53,22,0
2,note_on,53,0,240
2,note_on,58,0,0
2,note_on,62,25,0
2,note_on,62,0,240
2,note_on,50,35,0
2,note_on,50,0,240
2,note_on,65,27,0
2,note_on,65,0,240
2,note_on,56,25,0
2,note_on,58,30,0
2,note_on,58,0,240
2,note_on,56,0,0
2,note_on,65,27,0
2,note_on,65,0,240
2,note_on,48,35,0
2,note_on,48,0,240
2,note_on,63,26,0
2,note_on,63,0,240
2,note_on,58,29,0
2,note_on,55,24,0
2,note_on,55,0,240
2,note_on,58,0,0
2,note_on,63,26,0
2,note_on,63,0,240
2,note_on,52,35,0
2,note_on,52,0,240
2,note_on,67,23,0
2,note_on,67,0,240
2,note_on,58,19,0
2,note_on,61,23,0
2,note_on,61,0,240
2,note_on,58,0,0
2,note_on,67,23,0
2,note_on,67,0,240
2,note_on,43,35,0
2,note_on,43,0,240
2,note_on,60,24,0
2,note_on,60,0,240
2,note_on,55,22,0
2,note_on,58,27,0
2,note_on,58,0,240
2,note_on,55,0,0
2,note_on,60,25,0
2,note_on,60,0,240
2,note_on,41,35,0
2,note_on,41,0,240
2,note_on,62,27,0
2,note_on,62,0,240
2,note_on,53,25,0
2,note_on,58,30,0
2,note_on,58,0,240
2,note_on,53,0,0
2,note_on,62,27,0
2,note_on,62,0,240
2,note_on,41,35,0
2,note_on,41,0,240
2,note_on,60,24,0
2,note_on,60,0,240
2,note_on,53,31,0
2,note_on,53,0,240
2,note_on,60,26,0
2,note_on,60,0,240
2,note_on,46,30,0
2,note_on,46,0,240
2,note_on,58,25,0
2,note_on,58,0,240
2,note_on,50,23,0
2,note_on,53,23,0
2,note_on,53,0,240
2,note_on,50,0,0
2,note_on,58,21,0
2,note_on,58,0,240
2,note_on,41,28,0
2,note_on,41,0,240
2,note_on,60,19,0
2,note_on,60,0,240
2,note_on,53,24,0
2,note_on,53,0,240
2,note_on,60,20,0
2,note_on,60,0,240
2,note_on,46,24,0
2,note_on,46,0,120
2,note_on,58,20,120
2,note_on,58,0,240
2,note_on,53,18,0
2,note_on,53,0,240
2,note_on,50,21,0
2,note_on,50,0,240
2,note_on,29,23,0
2,note_on,29,0,240
2,note_on,48,16,0
2,note_on,48,0,240
2,note_on,41,20,0
2,note_on,41,0,240
2,note_on,48,17,0
2,note_on,48,0,240
2,note_on,46,20,0
2,note_on,34,20,0
2,note_on,41,20,0
2,note_on,41,0,720
2,note_on,34,0,0
2,note_on,46,0,0
2,note_on,46,30,240
2,note_on,53,24,240
2,note_on,53,0,480
2,note_on,53,24,0
2,note_on,53,0,240
2,note_on,46,0,0
2,note_on,50,30,0
2,note_on,53,24,240
2,note_on,53,0,480
2,note_on,53,24,0
2,note_on,53,0,240
2,note_on,50,0,0
2,note_on,48,30,0
2,note_on,53,24,240
2,note_on,53,0,480
2,note_on,53,24,0
2,note_on,53,0,240
2,note_on,48,0,0
2,note_on,41,30,0
2,note_on,53,24,240
2,note_on,53,0,480
2,note_on,53,24,0
2,note_on,53,0,240
2,note_on,41,0,0
2,note_on,50,30,0
2,note_on,57,24,240
2,note_on,57,0,480
2,note_on,57,24,0
2,note_on,57,0,240
2,note_on,50,0,0
2,note_on,50,30,0
2,note_on,56,24,240
2,note_on,56,0,480
2,note_on,56,24,0
2,note_on,56,0,240
2,note_on,50,0,0
2,note_on,51,30,0
2,note_on,55,24,240
2,note_on,55,0,480
2,note_on,54,24,0
2,note_on,54,0,240
2,note_on,51,0,0
2,note_on,41,30,0
2,note_on,53,24,240
2,note_on,53,0,480
2,note_on,53,24,0
2,note_on,53,0,240
2,note_on,41,0,0
2,note_on,46,30,0
2,note_on,53,24,240
2,note_on,53,0,480
2,note_on,53,24,0
2,note_on,53,0,240
2,note_on,46,0,0
2,note_on,50,30,0
2,note_on,53,24,240
2,note_on,53,0,480
2,note_on,53,24,0
2,note_on,53,0,240
2,note_on,50,0,0
2,note_on,48,30,0
2,note_on,53,24,240
2,note_on,53,0,480
2,note_on,53,24,0
2,note_on,53,0,240
2,note_on,48,0,0
2,note_on,41,30,0
2,note_on,53,24,240
2,note_on,53,0,480
2,note_on,53,24,0
2,note_on,53,0,240
2,note_on,41,0,0
2,note_on,50,30,0
2,note_on,53,24,240
2,note_on,53,0,480
2,note_on,58,24,0
2,note_on,58,0,240
2,note_on,50,0,0
2,note_on,52,34,0
2,note_on,58,29,240
2,note_on,61,29,0
2,note_on,61,0,480
2,note_on,58,0,0
2,note_on,58,24,0
2,note_on,61,24,0
2,note_on,61,0,240
2,note_on,58,0,0
2,note_on,52,0,0
2,note_on,53,30,0
2,note_on,60,24,240
2,note_on,60,0,480
2,note_on,63,24,0
2,note_on,63,0,240
2,note_on,53,0,0
2,note_on,62,30,0
2,note_on,58,30,0
2,note_on,58,0,480
2,note_on,62,0,0
2,note_on,46,30,480
2,note_on,53,24,240
2,note_on,53,0,480
2,note_on,53,24,0
2,note_on,53,0,240
2,note_on,46,0,0
2,note_on,50,30,0
2,note_on,53,24,240
2,note_on,53,0,480
2,note_on,53,24,0
2,note_on,53,0,240
2,note_on,50,0,0
2,note_on,48,30,0
2,note_on,53,24,240
2,note_on,53,0,480
2,note_on,53,24,0
2,note_on,53,0,240
2,note_on,48,0,0
2,note_on,41,30,0
2,note_on,53,24,240
2,note_on,53,0,480
2,note_on,53,24,0
2,note_on,53,0,240
2,note_on,41,0,0
2,note_on,50,30,0
2,note_on,57,24,240
2,note_on,57,0,480
2,note_on,57,24,0
2,note_on,57,0,240
2,note_on,50,0,0
2,note_on,50,30,0
2,note_on,56,24,240
2,note_on,56,0,480
2,note_on,56,24,0
2,note_on,56,0,240
2,note_on,50,0,0
2,note_on,51,30,0
2,note_on,55,24,240
2,note_on,55,0,480
2,note_on,54,24,0
2,note_on,54,0,240
2,note_on,51,0,0
2,note_on,41,30,0
2,note_on,53,24,240
2,note_on,53,0,480
2,note_on,53,24,0
2,note_on,53,0,240
2,note_on,41,0,0
2,note_on,46,30,0
2,note_on,53,24,240
2,note_on,53,0,480
2,note_on,53,24,0
2,note_on,53,0,240
2,note_on,46,0,0
2,note_on,50,30,0
2,note_on,53,24,240
2,note_on,53,0,480
2,note_on,53,24,0
2,note_on,53,0,240
2,note_on,50,0,0
2,note_on,48,30,0
2,note_on,53,24,240
2,note_on,53,0,480
2,note_on,53,24,0
2,note_on,53,0,240
2,note_on,48,0,0
2,note_on,41,30,0
2,note_on,53,24,240
2,note_on,53,0,480
2,note_on,53,24,0
2,note_on,53,0,240
2,note_on,41,0,0
2,note_on,50,30,0
2,note_on,53,24,240
2,note_on,53,0,480
2,note_on,58,24,0
2,note_on,58,0,240
2,note_on,50,0,0
2,note_on,52,34,0
2,note_on,61,29,240
2,note_on,58,29,0
2,note_on,58,0,480
2,note_on,61,0,0
2,note_on,61,24,0
2,note_on,58,24,0
2,note_on,58,0,240
2,note_on,61,0,0
2,note_on,52,0,0
2,note_on,53,30,0
2,note_on,60,24,240
2,note_on,60,0,480
2,note_on,63,24,0
2,note_on,63,0,240
2,note_on,53,0,0
2,note_on,58,30,0
2,note_on,62,30,0
2,note_on,62,0,480
2,note_on,58,0,0
2,note_on,50,34,480
2,note_on,60,27,240
2,note_on,60,0,480
2,note_on,57,27,0
2,note_on,57,0,240
2,note_on,50,0,0
2,note_on,43,34,0
2,note_on,43,0,240
2,note_on,62,40,0
2,note_on,55,33,0
2,note_on,55,0,240
2,note_on,62,0,0
2,note_on,56,40,0
2,note_on,60,48,0
2,note_on,60,0,240
2,note_on,56,0,0
2,note_on,55,31,0
2,note_on,59,36,0
2,note_on,59,0,240
2,note_on,55,0,0
2,note_on,43,34,0
2,note_on,43,0,240
2,note_on,65,46,0
2,note_on,55,37,0
2,note_on,65,0,480
2,note_on,62,35,0
2,note_on,62,0,240
2,note_on,55,0,0
2,note_on,48,42,0
2,note_on,60,33,240
2,note_on,48,0,480
2,note_on,55,27,0
2,note_on,55,0,240
2,note_on,60,0,0
2,note_on,57,34,0
2,note_on,60,27,240
2,note_on,57,0,240
2,note_on,53,37,0
2,note_on,60,0,240
2,note_on,60,27,0
2,note_on,60,0,240
2,note_on,53,0,0
2,note_on,46,41,0
2,note_on,46,0,240
2,note_on,58,29,0
2,note_on,62,35,0
2,note_on,62,0,240
2,note_on,58,0,0
2,note_on,60,33,0
2,note_on,57,27,0
2,note_on,57,0,240
2,note_on,60,0,0
2,note_on,55,25,0
2,note_on,58,31,0
2,note_on,58,0,240
2,note_on,55,0,0
2,note_on,48,34,0
2,note_on,57,27,240
2,note_on,57,0,240
2,note_on,48,0,0
2,note_on,48,34,0
2,note_on,58,27,240
2,note_on,58,0,240
2,note_on,48,0,0
2,note_on,57,34,0
2,note_on,53,34,0
2,note_on,53,0,960
2,note_on,57,0,0
2,note_on,46,30,0
2,note_on,53,24,240
2,note_on,53,0,480
2,note_on,53,24,0
2,note_on,53,0,240
2,note_on,46,0,0
2,note_on,50,30,0
2,note_on,58,24,240
2,note_on,58,0,480
2,note_on,58,24,0
2,note_on,58,0,240
2,note_on,50,0,0
2,note_on,51,30,0
2,note_on,58,28,240
2,note_on,58,0,480
2,note_on,58,28,0
2,note_on,58,0,240
2,note_on,51,0,0
2,note_on,52,37,0
2,note_on,58,28,240
2,note_on,61,28,0
2,note_on,61,0,480
2,note_on,58,0,0
2,note_on,61,28,0
2,note_on,58,28,0
2,note_on,58,0,240
2,note_on,61,0,0
2,note_on,52,0,0
2,note_on,55,37,0
2,note_on,60,24,240
2,note_on,58,24,0
2,note_on,58,0,480
2,note_on,60,0,0
2,note_on,61,24,0
2,note_on,58,24,0
2,note_on,58,0,240
2,note_on,61,0,0
2,note_on,55,0,0
2,note_on,53,34,0
2,note_on,58,29,240
2,note_on,62,29,0
2,note_on,62,0,240
2,note_on,58,0,0
2,note_on,63,29,0
2,note_on,60,24,0
2,note_on,60,0,240
2,note_on,63,0,0
2,note_on,62,20,0
2,note_on,65,24,0
2,note_on,65,0,240
2,note_on,62,0,0
2,note_on,53,0,0
2,note_on,53,30,0
2,note_on,60,24,240
2,note_on,63,24,0
2,note_on,63,0,240
2,note_on,60,0,0
2,note_on,62,24,0
2,note_on,58,24,0
2,note_on,58,0,240
2,note_on,62,0,0
2,note_on,53,0,0
2,note_on,60,24,0
2,note_on,53,24,0
2,note_on,53,0,240
2,note_on,60,0,0
2,note_on,46,25,0
2,note_on,58,30,0
2,note_on,50,25,0
2,note_on,50,0,480
2,note_on,58,0,0
2,note_on,46,0,0
2,note_on,50,30,240
2,note_on,50,0,120
2,note_on,50,34,120
2,note_on,60,27,240
2,note_on,60,0,480
2,note_on,57,27,0
2,note_on,57,0,240
2,note_on,50,0,0
2,note_on,43,34,0
2,note_on,43,0,240
2,note_on,62,40,0
2,note_on,55,33,0
2,note_on,55,0,240
2,note_on,62,0,0
2,note_on,56,40,0
2,note_on,60,48,0
2,note_on,60,0,240
2,note_on,56,0,0
2,note_on,59,36,0
2,note_on,55,31,0
2,note_on,55,0,240
2,note_on,59,0,0
2,note_on,43,34,0
2,note_on,43,0,240
2,note_on,55,37,0
2,note_on,65,46,0
2,note_on,65,0,480
2,note_on,62,35,0
2,note_on,62,0,240
2,note_on,55,0,0
2,note_on,48,42,0
2,note_on,60,33,240
2,note_on,48,0,480
2,note_on,55,27,0
2,note_on,55,0,240
2,note_on,60,0,0
2,note_on,57,34,0
2,note_on,60,27,240
2,note_on,57,0,240
2,note_on,53,37,0
2,note_on,60,0,240
2,note_on,60,27,0
2,note_on,60,0,240
2,note_on,53,0,0
2,note_on,46,41,0
2,note_on,46,0,240
2,note_on,62,35,0
2,note_on,58,29,0
2,note_on,58,0,240
2,note_on,62,0,0
2,note_on,60,33,0
2,note_on,57,27,0
2,note_on,57,0,240
2,note_on,60,0,0
2,note_on,55,25,0
2,note_on,58,31,0
2,note_on,58,0,240
2,note_on,55,0,0
2,note_on,48,34,0
2,note_on,57,27,240
2,note_on,57,0,240
2,note_on,48,0,0
2,note_on,48,34,0
2,note_on,58,27,240
2,note_on,58,0,240
2,note_on,48,0,0
2,note_on,57,34,0
2,note_on,53,34,0
2,note_on,53,0,960
2,note_on,57,0,0
2,note_on,46,30,0
2,note_on,53,24,240
2,note_on,53,0,480
2,note_on,53,24,0
2,note_on,53,0,240
2,note_on,46,0,0
2,note_on,50,30,0
2,note_on,58,24,240
2,note_on,58,0,480
2,note_on,58,24,0
2,note_on,58,0,240
2,note_on,50,0,0
2,note_on,51,30,0
2,note_on,58,28,240
2,note_on,58,0,480
2,note_on,58,28,0
2,note_on,58,0,240
2,note_on,51,0,0
2,note_on,52,37,0
2,note_on,58,28,240
2,note_on,61,28,0
2,note_on,61,0,480
2,note_on,58,0,0
2,note_on,61,28,0
2,note_on,58,28,0
2,note_on,58,0,240
2,note_on,61,0,0
2,note_on,52,0,0
2,note_on,55,37,0
2,note_on,60,24,240
2,note_on,58,24,0
2,note_on,58,0,480
2,note_on,60,0,0
2,note_on,61,24,0
2,note_on,58,24,0
2,note_on,58,0,240
2,note_on,61,0,0
2,note_on,55,0,0
2,note_on,53,34,0
2,note_on,58,29,240
2,note_on,62,29,0
2,note_on,62,0,240
2,note_on,58,0,0
2,note_on,63,29,0
2,note_on,60,24,0
2,note_on,60,0,240
2,note_on,63,0,0
2,note_on,62,20,0
2,note_on,65,24,0
2,note_on,65,0,240
2,note_on,62,0,0
2,note_on,53,0,0
2,note_on,53,30,0
2,note_on,60,24,240
2,note_on,63,24,0
2,note_on,63,0,240
2,note_on,60,0,0
2,note_on,62,24,0
2,note_on,58,24,0
2,note_on,58,0,240
2,note_on,62,0,0
2,note_on,53,0,0
2,note_on,60,24,0
2,note_on,53,24,0
2,note_on,53,0,240
2,note_on,60,0,0
2,note_on,46,25,0
2,note_on,50,25,0
2,note_on,58,30,0
2,note_on,58,0,480
2,note_on,50,0,0
2,note_on,46,0,0
2,note_on,58,30,240
2,note_on,58,0,240
2,note_on,53,27,0
2,note_on,63,21,240
2,note_on,60,21,0
2,note_on,60,0,240
2,note_on,63,0,0
2,note_on,62,21,0
2,note_on,58,21,0
2,note_on,58,0,240
2,note_on,62,0,0
2,note_on,53,0,0
2,note_on,60,21,0
2,note_on,53,21,0
2,note_on,53,0,240
2,note_on,60,0,0
2,note_on,50,22,0
2,note_on,46,22,0
2,note_on,58,27,0
2,note_on,58,0,480
2,note_on,46,0,0
2,note_on,50,0,0
2,note_on,53,27,240
2,note_on,50,21,0
2,note_on,50,0,240
2,note_on,53,0,0
2,note_on,41,27,0
2,note_on,51,21,240
2,note_on,48,21,0
2,note_on,48,0,240
2,note_on,51,0,0
2,note_on,46,21,0
2,note_on,50,21,0
2,note_on,50,0,240
2,note_on,46,0,0
2,note_on,41,0,0
2,note_on,48,21,0
2,note_on,41,21,0
2,note_on,41,0,240
2,note_on,48,0,0
2,note_on,46,27,0
2,note_on,41,27,0
2,note_on,34,27,0
2,note_on,34,0,960
2,note_on,41,0,0
2,note_on,46,0,0
2,note_on,46,35,1920
2,note_on,46,0,120
2,note_on,62,24,120
2,note_on,58,20,0
2,note_on,53,20,0
2,note_on,53,0,480
2,note_on,58,0,0
2,note_on,62,0,0
2,note_on,53,21,0
2,note_on,58,21,0
2,note_on,62,25,0
2,note_on,62,0,240
2,note_on,58,0,0
2,note_on,53,0,0
2,note_on,50,35,0
2,note_on,50,0,120
2,note_on,58,23,120
2,note_on,53,23,0
2,note_on,62,28,0
2,note_on,62,0,480
2,note_on,53,0,0
2,note_on,58,0,0
2,note_on,58,22,0
2,note_on,62,27,0
2,note_on,53,22,0
2,note_on,53,0,240
2,note_on,62,0,0
2,note_on,58,0,0
2,note_on,48,35,0
2,note_on,48,0,120
2,note_on,53,20,120
2,note_on,57,20,0
2,note_on,63,24,0
2,note_on,63,0,480
2,note_on,57,0,0
2,note_on,53,0,0
2,note_on,53,21,0
2,note_on,63,25,0
2,note_on,57,21,0
2,note_on,57,0,240
2,note_on,63,0,0
2,note_on,53,0,0
2,note_on,41,35,0
2,note_on,41,0,120
2,note_on,53,23,120
2,note_on,60,28,0
2,note_on,57,23,0
2,note_on,57,0,480
2,note_on,60,0,0
2,note_on,53,0,0
2,note_on,57,22,0
2,note_on,53,22,0
2,note_on,60,27,0
2,note_on,60,0,240
2,note_on,53,0,0
2,note_on,57,0,0
2,note_on,46,35,0
2,note_on,46,0,120
2,note_on,62,24,120
2,note_on,53,20,0
2,note_on,58,20,0
2,note_on,58,0,480
2,note_on,53,0,0
2,note_on,62,0,0
2,note_on,58,21,0
2,note_on,62,25,0
2,note_on,53,21,0
2,note_on,53,0,240
2,note_on,62,0,0
2,note_on,58,0,0
2,note_on,39,35,0
2,note_on,39,0,120
2,note_on,58,23,120
2,note_on,55,23,0
2,note_on,51,23,0
2,note_on,60,28,0
2,note_on,60,0,480
2,note_on,58,0,0
2,note_on,55,0,0
2,note_on,51,0,0
2,note_on,58,22,0
2,note_on,51,22,0
2,note_on,60,27,0
2,note_on,55,22,0
2,note_on,55,0,240
2,note_on,58,0,0
2,note_on,51,0,0
2,note_on,60,0,0
2,note_on,39,42,0
2,note_on,39,0,240
2,note_on,60,35,0
2,note_on,55,29,0
2,note_on,52,29,0
2,note_on,55,0,240
2,note_on,57,35,0
2,note_on,57,0,240
2,note_on,52,0,0
2,note_on,60,0,0
2,note_on,60,39,0
2,note_on,52,33,0
2,note_on,58,33,0
2,note_on,58,0,240
2,note_on,52,0,0
2,note_on,60,0,0
2,note_on,41,44,0
2,note_on,41,0,240
2,note_on,60,38,0
2,note_on,53,32,0
2,note_on,57,32,0
2,note_on,57,0,240
2,note_on,60,0,0
2,note_on,62,37,0
2,note_on,58,31,0
2,note_on,58,0,240
2,note_on,62,0,0
2,note_on,63,36,0
2,note_on,60,30,0
2,note_on,60,0,240
2,note_on,63,0,0
2,note_on,53,0,0
2,note_on,46,35,0
2,note_on,46,0,120
2,note_on,58,20,120
2,note_on,62,24,0
2,note_on,53,20,0
2,note_on,53,0,480
2,note_on,62,0,0
2,note_on,58,0,0
2,note_on,62,25,0
2,note_on,53,21,0
2,note_on,58,21,0
2,note_on,58,0,240
2,note_on,53,0,0
2,note_on,62,0,0
2,note_on,50,35,0
2,note_on,50,0,120
2,note_on,65,28,120
2,note_on,53,23,0
2,note_on,58,23,0
2,note_on,58,0,480
2,note_on,53,0,0
2,note_on,65,0,0
2,note_on,65,27,0
2,note_on,53,22,0
2,note_on,58,22,0
2,note_on,58,0,240
2,note_on,53,0,0
2,note_on,65,0,0
2,note_on,48,35,0
2,note_on,48,0,120
2,note_on,53,20,120
2,note_on,63,24,0
2,note_on,57,20,0
2,note_on,57,0,480
2,note_on,63,0,0
2,note_on,53,0,0
2,note_on,57,21,0
2,note_on,63,25,0
2,note_on,53,21,0
2,note_on,53,0,240
2,note_on,63,0,0
2,note_on,57,0,0
2,note_on,41,35,0
2,note_on,41,0,120
2,note_on,57,23,120
2,note_on,60,28,0
2,note_on,53,23,0
2,note_on,53,0,480
2,note_on,60,0,0
2,note_on,57,0,0
2,note_on,60,27,0
2,note_on,53,22,0
2,note_on,57,22,0
2,note_on,57,0,240
2,note_on,53,0,0
2,note_on,60,0,0
2,note_on,46,35,0
2,note_on,46,0,120
2,note_on,62,24,120
2,note_on,58,20,0
2,note_on,53,20,0
2,note_on,53,0,480
2,note_on,58,0,0
2,note_on,62,0,0
2,note_on,58,21,0
2,note_on,53,21,0
2,note_on,62,25,0
2,note_on,62,0,240
2,note_on,53,0,0
2,note_on,58,0,0
2,note_on,40,35,0
2,note_on,40,0,120
2,note_on,61,28,120
2,note_on,58,23,0
2,note_on,55,23,0
2,note_on,52,23,0
2,note_on,52,0,480
2,note_on,61,0,0
2,note_on,58,0,0
2,note_on,55,0,0
2,note_on,61,27,0
2,note_on,55,22,0
2,note_on,52,22,0
2,note_on,58,22,0
2,note_on,58,0,240
2,note_on,61,0,0
2,note_on,55,0,0
2,note_on,52,0,0
2,note_on,53,42,0
2,note_on,60,42,0
2,note_on,58,39,0
2,note_on,58,0,240
2,note_on,57,39,0
2,note_on,57,0,120
2,note_on,55,42,0
2,note_on,55,0,120
2,note_on,57,48,0
2,note_on,57,0,240
2,note_on,60,0,0
2,note_on,63,39,0
2,note_on,60,33,0
2,note_on,60,0,240
2,note_on,63,0,0
2,note_on,53,0,0
2,note_on,58,44,0
2,note_on,62,44,0
2,note_on,62,0,960
2,note_on,58,0,0
2,note_on,46,35,0
2,note_on,46,0,120
2,note_on,53,20,120
2,note_on,58,20,0
2,note_on,62,24,0
2,note_on,62,0,480
2,note_on,58,0,0
2,note_on,53,0,0
2,note_on,58,21,0
2,note_on,62,25,0
2,note_on,53,21,0
2,note_on,53,0,240
2,note_on,62,0,0
2,note_on,58,0,0
2,note_on,50,35,0
2,note_on,50,0,120
2,note_on,62,28,120
2,note_on,58,23,0
2,note_on,53,23,0
2,note_on,53,0,480
2,note_on,58,0,0
2,note_on,62,0,0
2,note_on,58,22,0
2,note_on,53,22,0
2,note_on,62,27,0
2,note_on,62,0,240
2,note_on,53,0,0
2,note_on,58,0,0
2,note_on,48,35,0
2,note_on,48,0,120
2,note_on,57,20,120
2,note_on,53,20,0
2,note_on,63,24,0
2,note_on,63,0,480
2,note_on,53,0,0
2,note_on,57,0,0
2,note_on,57,21,0
2,note_on,53,21,0
2,note_on,63,25,0
2,note_on,63,0,240
2,note_on,53,0,0
2,note_on,57,0,0
2,note_on,41,35,0
2,note_on,41,0,120
2,note_on,60,28,120
2,note_on,57,23,0
2,note_on,53,23,0
2,note_on,53,0,480
2,note_on,57,0,0
2,note_on,60,0,0
2,note_on,57,22,0
2,note_on,53,22,0
2,note_on,60,27,0
2,note_on,60,0,240
2,note_on,53,0,0
2,note_on,57,0,0
2,note_on,46,35,0
2,note_on,46,0,120
2,note_on,58,20,120
2,note_on,53,20,0
2,note_on,62,24,0
2,note_on,62,0,480
2,note_on,53,0,0
2,note_on,58,0,0
2,note_on,58,21,0
2,note_on,53,21,0
2,note_on,62,25,0
2,note_on,62,0,240
2,note_on,53,0,0
2,note_on,58,0,0
2,note_on,39,35,0
2,note_on,39,0,120
2,note_on,58,23,120
2,note_on,51,23,0
2,note_on,60,28,0
2,note_on,55,23,0
2,note_on,55,0,480
2,note_on,58,0,0
2,note_on,51,0,0
2,note_on,60,0,0
2,note_on,51,22,0
2,note_on,60,27,0
2,note_on,58,22,0
2,note_on,55,22,0
2,note_on,55,0,240
2,note_on,51,0,0
2,note_on,60,0,0
2,note_on,58,0,0
2,note_on,39,42,0
2,note_on,39,0,240
2,note_on,60,35,0
2,note_on,52,29,0
2,note_on,55,29,0
2,note_on,55,0,240
2,note_on,57,35,0
2,note_on,57,0,240
2,note_on,52,0,0
2,note_on,60,0,0
2,note_on,52,33,0
2,note_on,60,39,0
2,note_on,58,33,0
2,note_on,58,0,240
2,note_on,60,0,0
2,note_on,52,0,0
2,note_on,41,44,0
2,note_on,41,0,240
2,note_on,53,32,0
2,note_on,57,32,0
2,note_on,60,38,0
2,note_on,60,0,240
2,note_on,57,0,0
2,note_on,58,31,0
2,note_on,62,37,0
2,note_on,62,0,240
2,note_on,58,0,0
2,note_on,63,36,0
2,note_on,60,30,0
2,note_on,60,0,240
2,note_on,63,0,0
2,note_on,53,0,0
2,note_on,46,35,0
2,note_on,46,0,120
2,note_on,53,20,120
2,note_on,62,24,0
2,note_on,58,20,0
2,note_on,58,0,480
2,note_on,62,0,0
2,note_on,53,0,0
2,note_on,62,25,0
2,note_on,58,21,0
2,note_on,53,21,0
2,note_on,53,0,240
2,note_on,58,0,0
2,note_on,62,0,0
2,note_on,50,35,0
2,note_on,50,0,120
2,note_on,58,23,120
2,note_on,65,28,0
2,note_on,53,23,0
2,note_on,53,0,480
2,note_on,65,0,0
2,note_on,58,0,0
2,note_on,58,22,0
2,note_on,53,22,0
2,note_on,65,27,0
2,note_on,65,0,240
2,note_on,53,0,0
2,note_on,58,0,0
2,note_on,48,35,0
2,note_on,48,0,120
2,note_on,57,20,120
2,note_on,53,20,0
2,note_on,63,24,0
2,note_on,63,0,480
2,note_on,53,0,0
2,note_on,57,0,0
2,note_on,57,21,0
2,note_on,63,25,0
2,note_on,53,21,0
2,note_on,53,0,240
2,note_on,63,0,0
2,note_on,57,0,0
2,note_on,41,35,0
2,note_on,41,0,120
2,note_on,60,28,120
2,note_on,53,23,0
2,note_on,57,23,0
2,note_on,57,0,480
2,note_on,53,0,0
2,note_on,60,0,0
2,note_on,57,22,0
2,note_on,60,27,0
2,note_on,53,22,0
2,note_on,53,0,240
2,note_on,60,0,0
2,note_on,57,0,0
2,note_on,46,35,0
2,note_on,46,0,120
2,note_on,58,20,120
2,note_on,53,20,0
2,note_on,62,24,0
2,note_on,62,0,480
2,note_on,53,0,0
2,note_on,58,0,0
2,note_on,58,21,0
2,note_on,53,21,0
2,note_on,62,25,0
2,note_on,62,0,240
2,note_on,53,0,0
2,note_on,58,0,0
2,note_on,40,35,0
2,note_on,40,0,120
2,note_on,52,23,120
2,note_on,58,23,0
2,note_on,55,23,0
2,note_on,61,28,0
2,note_on,61,0,480
2,note_on,52,0,0
2,note_on,58,0,0
2,note_on,55,0,0
2,note_on,61,27,0
2,note_on,58,22,0
2,note_on,52,22,0
2,note_on,55,22,0
2,note_on,55,0,240
2,note_on,61,0,0
2,note_on,58,0,0
2,note_on,52,0,0
2,note_on,53,42,0
2,note_on,60,42,0
2,note_on,58,39,0
2,note_on,58,0,240
2,note_on,57,39,0
2,note_on,57,0,120
2,note_on,55,42,0
2,note_on,55,0,120
2,note_on,57,48,0
2,note_on,57,0,240
2,note_on,60,0,0
2,note_on,60,33,0
2,note_on,63,39,0
2,note_on,63,0,240
2,note_on,60,0,0
2,note_on,53,0,0
2,note_on,62,44,0
2,note_on,58,44,0
2,note_on,58,0,960
2,note_on,62,0,0
2,note_on,50,63,0
2,note_on,50,0,240
2,note_on,54,52,0
2,note_on,54,0,120
2,note_on,57,56,0
2,note_on,57,0,120
2,note_on,61,62,0
2,note_on,61,0,120
2,note_on,62,52,0
2,note_on,62,0,120
2,note_on,50,61,0
2,note_on,50,0,120
2,note_on,62,53,0
2,note_on,62,0,120
2,note_on,46,63,0
2,note_on,46,0,120
2,note_on,58,54,0
2,note_on,58,0,120
2,note_on,45,62,0
2,note_on,45,0,120
2,note_on,57,57,0
2,note_on,57,0,120
2,note_on,43,65,0
2,note_on,43,0,120
2,note_on,55,60,0
2,note_on,55,0,120
2,note_on,42,68,0
2,note_on,42,0,120
2,note_on,54,64,0
2,note_on,54,0,120
2,note_on,43,77,0
2,note_on,43,0,120
2,note_on,55,65,0
2,note_on,55,0,120
2,note_on,45,73,0
2,note_on,45,0,120
2,note_on,57,62,0
2,note_on,57,0,120
2,note_on,46,70,0
2,note_on,46,0,120
2,note_on,58,62,0
2,note_on,58,0,120
2,note_on,47,67,0
2,note_on,47,0,120
2,note_on,59,61,0
2,note_on,59,0,120
2,note_on,48,68,0
2,note_on,48,0,240
2,note_on,52,51,0
2,note_on,52,0,120
2,note_on,55,57,0
2,note_on,55,0,120
2,note_on,59,57,0
2,note_on,59,0,120
2,note_on,60,53,0
2,note_on,60,0,120
2,note_on,48,57,0
2,note_on,48,0,120
2,note_on,60,51,0
2,note_on,60,0,120
2,note_on,41,62,0
2,note_on,41,0,240
2,note_on,45,51,0
2,note_on,45,0,120
2,note_on,48,51,0
2,note_on,48,0,120
2,note_on,52,64,0
2,note_on,52,0,120
2,note_on,53,57,0
2,note_on,53,0,120
2,note_on,57,61,0
2,note_on,57,0,120
2,note_on,60,64,0
2,note_on,60,0,120
2,note_on,46,63,0
2,note_on,46,0,240
2,note_on,62,52,0
2,note_on,65,62,0
2,note_on,55,52,0
2,note_on,55,0,480
2,note_on,65,0,0
2,note_on,62,0,0
2,note_on,65,61,0
2,note_on,55,51,0
2,note_on,62,51,0
2,note_on,62,0,240
2,note_on,55,0,0
2,note_on,65,0,0
2,note_on,48,63,0
2,note_on,48,0,240
2,note_on,60,51,0
2,note_on,55,51,0
2,note_on,64,60,0
2,note_on,58,51,0
2,note_on,58,0,480
2,note_on,60,0,0
2,note_on,55,0,0
2,note_on,64,0,0
2,note_on,60,51,0
2,note_on,64,60,0
2,note_on,64,0,240
2,note_on,60,0,0
2,note_on,53,54,0
2,note_on,53,0,120
2,note_on,63,61,0
2,note_on,63,0,120
2,note_on,60,61,0
2,note_on,60,0,120
2,note_on,57,60,0
2,note_on,57,0,120
2,note_on,53,58,0
2,note_on,53,0,120
2,note_on,51,57,0
2,note_on,51,0,120
2,note_on,48,55,0
2,note_on,48,0,120
2,note_on,53,54,0
2,note_on,53,0,120
2,note_on,46,35,0
2,note_on,46,0,240
2,note_on,62,24,0
2,note_on,53,20,0
2,note_on,58,20,0
2,note_on,58,0,480
2,note_on,53,0,0
2,note_on,62,0,0
2,note_on,62,25,0
2,note_on,58,21,0
2,note_on,53,21,0
2,note_on,53,0,240
2,note_on,58,0,0
2,note_on,62,0,0
2,note_on,50,35,0
2,note_on,50,0,240
2,note_on,65,28,0
2,note_on,58,23,0
2,note_on,56,23,0
2,note_on,56,0,480
2,note_on,58,0,0
2,note_on,65,0,0
2,note_on,58,22,0
2,note_on,56,22,0
2,note_on,65,27,0
2,note_on,65,0,240
2,note_on,56,0,0
2,note_on,58,0,0
2,note_on,51,35,0
2,note_on,51,0,240
2,note_on,58,20,0
2,note_on,55,20,0
2,note_on,63,24,0
2,note_on,63,0,480
2,note_on,55,0,0
2,note_on,58,0,0
2,note_on,63,25,0
2,note_on,58,21,0
2,note_on,55,21,0
2,note_on,55,0,240
2,note_on,58,0,0
2,note_on,63,0,0
2,note_on,52,35,0
2,note_on,52,0,240
2,note_on,58,23,0
2,note_on,61,23,0
2,note_on,67,28,0
2,note_on,67,0,480
2,note_on,61,0,0
2,note_on,58,0,0
2,note_on,67,27,0
2,note_on,58,22,0
2,note_on,61,22,0
2,note_on,61,0,240
2,note_on,58,0,0
2,note_on,67,0,0
2,note_on,55,31,0
2,note_on,55,0,240
2,note_on,64,21,0
2,note_on,58,18,0
2,note_on,60,18,0
2,note_on,60,0,480
2,note_on,58,0,0
2,note_on,64,0,0
2,note_on,58,18,0
2,note_on,64,22,0
2,note_on,60,18,0
2,note_on,60,0,240
2,note_on,64,0,0
2,note_on,58,0,0
2,note_on,53,31,0
2,note_on,53,0,240
2,note_on,62,20,0
2,note_on,65,25,0
2,note_on,58,20,0
2,note_on,58,0,480
2,note_on,65,0,0
2,note_on,62,0,0
2,note_on,65,24,0
2,note_on,62,19,0
2,note_on,58,19,0
2,note_on,58,0,240
2,note_on,62,0,0
2,note_on,65,0,0
2,note_on,53,31,0
2,note_on,53,0,240
2,note_on,63,18,0
2,note_on,60,18,0
2,note_on,65,21,0
2,note_on,65,0,480
2,note_on,60,0,0
2,note_on,63,0,0
2,note_on,63,18,0
2,note_on,65,22,0
2,note_on,60,18,0
2,note_on,60,0,240
2,note_on,65,0,0
2,note_on,63,0,0
2,note_on,46,31,0
2,note_on,46,0,240
2,note_on,62,20,0
2,note_on,58,20,0
2,note_on,65,25,0
2,note_on,65,0,720
2,note_on,58,0,0
2,note_on,62,0,0
2,note_on,50,63,0
2,note_on,50,0,240
2,note_on,54,52,0
2,note_on,54,0,120
2,note_on,57,56,0
2,note_on,57,0,120
2,note_on,61,62,0
2,note_on,61,0,120
2,note_on,62,52,0
2,note_on,62,0,120
2,note_on,50,61,0
2,note_on,50,0,120
2,note_on,62,53,0
2,note_on,62,0,120
2,note_on,46,63,0
2,note_on,46,0,120
2,note_on,58,54,0
2,note_on,58,0,120
2,note_on,45,62,0
2,note_on,45,0,120
2,note_on,57,57,0
2,note_on,57,0,120
2,note_on,43,65,0
2,note_on,43,0,120
2,note_on,55,60,0
2,note_on,55,0,120
2,note_on,42,68,0
2,note_on,42,0,120
2,note_on,54,64,0
2,note_on,54,0,120
2,note_on,43,77,0
2,note_on,43,0,120
2,note_on,55,65,0
2,note_on,55,0,120
2,note_on,45,73,0
2,note_on,45,0,120
2,note_on,57,62,0
2,note_on,57,0,120
2,note_on,46,70,0
2,note_on,46,0,120
2,note_on,58,62,0
2,note_on,58,0,120
2,note_on,47,67,0
2,note_on,47,0,120
2,note_on,59,61,0
2,note_on,59,0,120
2,note_on,48,68,0
2,note_on,48,0,240
2,note_on,52,51,0
2,note_on,52,0,120
2,note_on,55,57,0
2,note_on,55,0,120
2,note_on,59,57,0
2,note_on,59,0,120
2,note_on,60,53,0
2,note_on,60,0,120
2,note_on,48,57,0
2,note_on,48,0,120
2,note_on,60,51,0
2,note_on,60,0,120
2,note_on,41,62,0
2,note_on,41,0,240
2,note_on,45,51,0
2,note_on,45,0,120
2,note_on,48,51,0
2,note_on,48,0,120
2,note_on,52,64,0
2,note_on,52,0,120
2,note_on,53,57,0
2,note_on,53,0,120
2,note_on,57,61,0
2,note_on,57,0,120
2,note_on,60,64,0
2,note_on,60,0,120
2,note_on,46,63,0
2,note_on,46,0,240
2,note_on,62,52,0
2,note_on,65,62,0
2,note_on,55,52,0
2,note_on,55,0,480
2,note_on,65,0,0
2,note_on,62,0,0
2,note_on,62,51,0
2,note_on,65,61,0
2,note_on,55,51,0
2,note_on,55,0,240
2,note_on,65,0,0
2,note_on,62,0,0
2,note_on,48,63,0
2,note_on,48,0,240
2,note_on,58,51,0
2,note_on,64,60,0
2,note_on,60,51,0
2,note_on,55,51,0
2,note_on,55,0,480
2,note_on,58,0,0
2,note_on,64,0,0
2,note_on,60,0,0
2,note_on,60,51,0
2,note_on,64,60,0
2,note_on,64,0,240
2,note_on,60,0,0
2,note_on,53,54,0
2,note_on,53,0,120
2,note_on,63,61,0
2,note_on,63,0,120
2,note_on,60,61,0
2,note_on,60,0,120
2,note_on,57,60,0
2,note_on,57,0,120
2,note_on,53,58,0
2,note_on,53,0,120
2,note_on,51,57,0
2,note_on,51,0,120
2,note_on,48,55,0
2,note_on,48,0,120
2,note_on,53,54,0
2,note_on,53,0,120
2,note_on,46,35,0
2,note_on,46,0,240
2,note_on,62,24,0
2,note_on,58,20,0
2,note_on,53,20,0
2,note_on,53,0,480
2,note_on,58,0,0
2,note_on,62,0,0
2,note_on,53,21,0
2,note_on,62,25,0
2,note_on,58,21,0
2,note_on,58,0,240
2,note_on,62,0,0
2,note_on,53,0,0
2,note_on,50,35,0
2,note_on,50,0,240
2,note_on,65,28,0
2,note_on,58,23,0
2,note_on,56,23,0
2,note_on,56,0,480
2,note_on,58,0,0
2,note_on,65,0,0
2,note_on,58,22,0
2,note_on,56,22,0
2,note_on,65,27,0
2,note_on,65,0,240
2,note_on,56,0,0
2,note_on,58,0,0
2,note_on,51,35,0
2,note_on,51,0,240
2,note_on,55,20,0
2,note_on,58,20,0
2,note_on,63,24,0
2,note_on,63,0,480
2,note_on,58,0,0
2,note_on,55,0,0
2,note_on,58,21,0
2,note_on,63,25,0
2,note_on,55,21,0
2,note_on,55,0,240
2,note_on,63,0,0
2,note_on,58,0,0
2,note_on,52,35,0
2,note_on,52,0,240
2,note_on,58,23,0
2,note_on,67,28,0
2,note_on,61,23,0
2,note_on,61,0,480
2,note_on,67,0,0
2,note_on,58,0,0
2,note_on,61,22,0
2,note_on,58,22,0
2,note_on,67,27,0
2,note_on,67,0,240
2,note_on,58,0,0
2,note_on,61,0,0
2,note_on,55,31,0
2,note_on,55,0,240
2,note_on,60,18,0
2,note_on,58,18,0
2,note_on,64,21,0
2,note_on,64,0,480
2,note_on,58,0,0
2,note_on,60,0,0
2,note_on,58,18,0
2,note_on,60,18,0
2,note_on,64,22,0
2,note_on,64,0,240
2,note_on,60,0,0
2,note_on,58,0,0
2,note_on,53,31,0
2,note_on,53,0,240
2,note_on,58,20,0
2,note_on,62,20,0
2,note_on,65,25,0
2,note_on,65,0,480
2,note_on,62,0,0
2,note_on,58,0,0
2,note_on,58,19,0
2,note_on,62,19,0
2,note_on,65,24,0
2,note_on,65,0,240
2,note_on,62,0,0
2,note_on,58,0,0
2,note_on,53,31,0
2,note_on,53,0,240
2,note_on,60,18,0
2,note_on,63,18,0
2,note_on,65,21,0
2,note_on,65,0,480
2,note_on,63,0,0
2,note_on,60,0,0
2,note_on,65,22,0
2,note_on,60,18,0
2,note_on,63,18,0
2,note_on,63,0,240
2,note_on,60,0,0
2,note_on,65,0,0
2,note_on,53,31,0
2,note_on,53,0,240
2,note_on,65,21,0
2,note_on,62,18,0
2,note_on,58,18,0
2,note_on,58,0,480
2,note_on,62,0,0
2,note_on,65,0,0
2,note_on,65,22,0
2,note_on,58,18,0
2,note_on,62,18,0
2,note_on,62,0,240
2,note_on,58,0,0
2,note_on,65,0,0
2,note_on,41,31,0
2,note_on,41,0,240
2,note_on,60,18,0
2,note_on,63,21,0
2,note_on,53,18,0
2,note_on,53,0,480
2,note_on,63,0,0
2,note_on,60,0,0
2,note_on,53,18,0
2,note_on,63,22,0
2,note_on,60,18,0
2,note_on,60,0,240
2,note_on,63,0,0
2,note_on,53,0,0
2,note_on,41,31,0
2,note_on,41,0,240
2,note_on,53,18,0
2,note_on,58,18,0
2,note_on,62,21,0
2,note_on,62,0,480
2,note_on,58,0,0
2,note_on,53,0,0
2,note_on,62,22,0
2,note_on,58,18,0
2,note_on,53,18,0
2,note_on,53,0,180
2,note_on,58,0,0
2,note_on,62,0,0
2,note_on,41,31,60
2,note_on,41,0,240
2,note_on,53,18,0
2,note_on,60,21,0
2,note_on,51,18,0
2,note_on,51,0,480
2,note_on,60,0,0
2,note_on,53,0,0
2,note_on,53,18,0
2,note_on,51,18,0
2,note_on,57,22,0
2,note_on,57,0,240
2,note_on,51,0,0
2,note_on,53,0,0
2,note_on,58,34,0
2,note_on,53,31,120
2,note_on,50,29,120
2,note_on,46,28,120
2,note_on,34,26,120
2,note_on,34,0,240
2,note_on,50,0,0
2,note_on,58,0,0
2,note_on,53,0,0
2,note_on,46,0,0
2,note_on,46,36,240
2,note_on,34,30,0
2,note_on,34,0,160
2,note_on,46,0,0
2,note_on,46,25,0
2,note_on,53,29,0
2,note_on,49,25,0
2,note_on,49,0,120
2,note_on,53,0,0
2,note_on,46,0,0
2,note_on,52,29,40
2,note_on,49,25,0
2,note_on,46,25,0
2,note_on,46,0,120
2,note_on,49,0,0
2,note_on,52,0,0
2,note_on,49,30,40
2,note_on,53,36,0
2,note_on,46,30,0
2,note_on,46,0,120
2,note_on,53,0,0
2,note_on,49,0,0
2,note_on,49,25,40
2,note_on,46,25,0
2,note_on,54,29,0
2,note_on,54,0,120
2,note_on,46,0,0
2,note_on,49,0,0
2,note_on,49,25,40
2,note_on,53,29,0
2,note_on,46,25,0
2,note_on,46,0,120
2,note_on,53,0,0
2,note_on,49,0,0
2,note_on,37,30,40
2,note_on,49,36,0
2,note_on,49,0,160
2,note_on,37,0,0
2,note_on,53,28,0
2,note_on,49,24,0
2,note_on,49,0,120
2,note_on,53,0,0
2,note_on,49,25,40
2,note_on,52,29,0
2,note_on,52,0,120
2,note_on,49,0,0
2,note_on,49,26,40
2,note_on,53,31,0
2,note_on,53,0,120
2,note_on,49,0,0
2,note_on,49,25,40
2,note_on,54,29,0
2,note_on,54,0,120
2,note_on,49,0,0
2,note_on,53,29,40
2,note_on,49,25,0
2,note_on,49,0,120
2,note_on,53,0,0
2,note_on,36,36,40
2,note_on,36,0,160
2,note_on,48,25,0
2,note_on,53,29,0
2,note_on,51,25,0
2,note_on,51,0,160
2,note_on,53,0,0
2,note_on,48,0,0
2,note_on,48,25,0
2,note_on,51,29,0
2,note_on,52,25,0
2,note_on,52,0,160
2,note_on,51,0,0
2,note_on,48,0,0
2,note_on,53,31,0
2,note_on,51,26,0
2,note_on,48,26,0
2,note_on,48,0,160
2,note_on,51,0,0
2,note_on,53,0,0
2,note_on,48,28,0
2,note_on,51,34,0
2,note_on,51,0,160
2,note_on,48,0,0
2,note_on,48,30,0
2,note_on,54,36,0
2,note_on,51,30,0
2,note_on,51,0,160
2,note_on,54,0,0
2,note_on,48,0,0
2,note_on,33,45,0
2,note_on,33,0,160
2,note_on,53,35,0
2,note_on,48,29,0
2,note_on,45,29,0
2,note_on,45,0,160
2,note_on,48,0,0
2,note_on,53,0,0
2,note_on,52,35,0
2,note_on,48,29,0
2,note_on,45,29,0
2,note_on,45,0,160
2,note_on,48,0,0
2,note_on,52,0,0
2,note_on,53,37,0
2,note_on,45,31,0
2,note_on,48,31,0
2,note_on,48,0,160
2,note_on,45,0,0
2,note_on,53,0,0
2,note_on,48,26,0
2,note_on,54,30,0
2,note_on,45,26,0
2,note_on,45,0,160
2,note_on,54,0,0
2,note_on,48,0,0
2,note_on,53,30,0
2,note_on,45,26,0
2,note_on,48,26,0
2,note_on,48,0,160
2,note_on,45,0,0
2,note_on,53,0,0
2,note_on,34,39,0
2,note_on,34,0,160
2,note_on,53,31,0
2,note_on,49,27,0
2,note_on,46,27,0
2,note_on,46,0,160
2,note_on,49,0,0
2,note_on,53,0,0
2,note_on,52,31,0
2,note_on,46,27,0
2,note_on,49,27,0
2,note_on,49,0,160
2,note_on,46,0,0
2,note_on,52,0,0
2,note_on,49,33,0
2,note_on,53,39,0
2,note_on,46,33,0
2,note_on,46,0,120
2,note_on,53,0,0
2,note_on,49,0,0
2,note_on,46,27,40
2,note_on,54,31,0
2,note_on,49,27,0
2,note_on,49,0,120
2,note_on,54,0,0
2,note_on,46,0,0
2,note_on,53,31,40
2,note_on,49,27,0
2,note_on,46,27,0
2,note_on,46,0,120
2,note_on,49,0,0
2,note_on,53,0,0
2,note_on,30,39,40
2,note_on,30,0,160
2,note_on,42,26,0
2,note_on,46,26,0
2,note_on,51,30,0
2,note_on,51,0,160
2,note_on,46,0,0
2,note_on,42,0,0
2,note_on,51,31,0
2,note_on,45,27,0
2,note_on,42,27,0
2,note_on,42,0,160
2,note_on,45,0,0
2,note_on,51,0,0
2,note_on,46,28,0
2,note_on,51,34,0
2,note_on,42,28,0
2,note_on,42,0,120
2,note_on,51,0,0
2,note_on,46,0,0
2,note_on,53,31,40
2,note_on,42,28,0
2,note_on,46,27,0
2,note_on,46,0,120
2,note_on,42,0,0
2,note_on,53,0,0
2,note_on,46,27,40
2,note_on,42,28,0
2,note_on,51,31,0
2,note_on,51,0,120
2,note_on,42,0,0
2,note_on,46,0,0
2,note_on,41,49,40
2,note_on,29,40,0
2,note_on,29,0,160
2,note_on,41,0,0
2,note_on,41,29,0
2,note_on,49,36,0
2,note_on,46,29,0
2,note_on,46,0,160
2,note_on,49,0,0
2,note_on,41,0,0
2,note_on,46,29,0
2,note_on,48,36,0
2,note_on,41,29,0
2,note_on,41,0,160
2,note_on,48,0,0
2,note_on,46,0,0
2,note_on,41,31,0
2,note_on,46,31,0
2,note_on,49,38,0
2,note_on,49,0,160
2,note_on,46,0,0
2,note_on,41,0,0
2,note_on,46,34,0
2,note_on,51,40,0
2,note_on,41,34,0
2,note_on,41,0,160
2,note_on,51,0,0
2,note_on,46,0,0
2,note_on,52,42,0
2,note_on,41,36,0
2,note_on,46,36,0
2,note_on,46,0,160
2,note_on,41,0,0
2,note_on,52,0,0
2,note_on,29,44,0
2,note_on,41,52,0
2,note_on,41,0,160
2,note_on,29,0,0
2,note_on,41,37,0
2,note_on,53,44,0
2,note_on,45,37,0
2,note_on,45,0,160
2,note_on,53,0,0
2,note_on,41,0,0
2,note_on,52,44,0
2,note_on,45,37,0
2,note_on,41,37,0
2,note_on,41,0,160
2,note_on,45,0,0
2,note_on,52,0,0
2,note_on,41,44,0
2,note_on,53,51,0
2,note_on,45,44,0
2,note_on,45,0,160
2,note_on,53,0,0
2,note_on,41,0,0
2,note_on,54,44,0
2,note_on,41,37,0
2,note_on,45,37,0
2,note_on,45,0,160
2,note_on,41,0,0
2,note_on,54,0,0
2,note_on,41,37,0
2,note_on,53,44,0
2,note_on,45,37,0
2,note_on,45,0,160
2,note_on,53,0,0
2,note_on,41,0,0
2,note_on,46,50,0
2,note_on,34,42,0
2,note_on,34,0,160
2,note_on,46,0,0
2,note_on,53,40,0
2,note_on,49,35,0
2,note_on,46,35,0
2,note_on,46,0,120
2,note_on,49,0,0
2,note_on,53,0,0
2,note_on,49,35,40
2,note_on,46,35,0
2,note_on,52,40,0
2,note_on,52,0,120
2,note_on,46,0,0
2,note_on,49,0,0
2,note_on,46,42,40
2,note_on,49,42,0
2,note_on,53,50,0
2,note_on,53,0,120
2,note_on,49,0,0
2,note_on,46,0,0
2,note_on,54,40,40
2,note_on,46,35,0
2,note_on,49,35,0
2,note_on,49,0,120
2,note_on,46,0,0
2,note_on,54,0,0
2,note_on,53,40,40
2,note_on,46,35,0
2,note_on,49,35,0
2,note_on,49,0,120
2,note_on,46,0,0
2,note_on,53,0,0
2,note_on,49,50,40
2,note_on,37,42,0
2,note_on,37,0,160
2,note_on,49,0,0
2,note_on,49,34,0
2,note_on,53,39,0
2,note_on,53,0,120
2,note_on,49,0,0
2,note_on,52,40,40
2,note_on,49,35,0
2,note_on,49,0,120
2,note_on,52,0,0
2,note_on,49,36,40
2,note_on,53,44,0
2,note_on,53,0,120
2,note_on,49,0,0
2,note_on,49,35,40
2,note_on,54,40,0
2,note_on,54,0,120
2,note_on,49,0,0
2,note_on,53,40,40
2,note_on,49,35,0
2,note_on,49,0,120
2,note_on,53,0,0
2,note_on,36,50,40
2,note_on,36,0,160
2,note_on,48,35,0
2,note_on,51,35,0
2,note_on,53,40,0
2,note_on,53,0,160
2,note_on,51,0,0
2,note_on,48,0,0
2,note_on,51,40,0
2,note_on,48,35,0
2,note_on,52,35,0
2,note_on,52,0,160
2,note_on,48,0,0
2,note_on,51,0,0
2,note_on,48,36,0
2,note_on,53,44,0
2,note_on,51,36,0
2,note_on,51,0,160
2,note_on,53,0,0
2,note_on,48,0,0
2,note_on,51,48,0
2,note_on,48,39,0
2,note_on,48,0,160
2,note_on,51,0,0
2,note_on,54,50,0
2,note_on,48,42,0
2,note_on,51,42,0
2,note_on,51,0,160
2,note_on,48,0,0
2,note_on,54,0,0
2,note_on,33,63,0
2,note_on,33,0,160
2,note_on,45,40,0
2,note_on,53,49,0
2,note_on,48,40,0
2,note_on,48,0,160
2,note_on,53,0,0
2,note_on,45,0,0
2,note_on,48,40,0
2,note_on,45,40,0
2,note_on,52,49,0
2,note_on,52,0,160
2,note_on,45,0,0
2,note_on,48,0,0
2,note_on,48,44,0
2,note_on,53,52,0
2,note_on,45,44,0
2,note_on,45,0,160
2,note_on,53,0,0
2,note_on,48,0,0
2,note_on,45,34,0
2,note_on,54,39,0
2,note_on,48,34,0
2,note_on,48,0,160
2,note_on,54,0,0
2,note_on,45,0,0
2,note_on,45,28,0
2,note_on,53,33,0
2,note_on,48,28,0
2,note_on,48,0,160
2,note_on,53,0,0
2,note_on,45,0,0
2,note_on,34,42,0
2,note_on,34,0,160
2,note_on,46,29,0
2,note_on,53,34,0
2,note_on,49,29,0
2,note_on,49,0,160
2,note_on,53,0,0
2,note_on,46,0,0
2,note_on,52,34,0
2,note_on,46,29,0
2,note_on,49,29,0
2,note_on,49,0,160
2,note_on,46,0,0
2,note_on,52,0,0
2,note_on,53,42,0
2,note_on,49,36,0
2,note_on,46,36,0
2,note_on,46,0,120
2,note_on,49,0,0
2,note_on,53,0,0
2,note_on,49,29,40
2,note_on,54,34,0
2,note_on,46,29,0
2,note_on,46,0,120
2,note_on,54,0,0
2,note_on,49,0,0
2,note_on,49,29,40
2,note_on,53,34,0
2,note_on,46,29,0
2,note_on,46,0,120
2,note_on,53,0,0
2,note_on,49,0,0
2,note_on,40,42,40
2,note_on,40,0,160
2,note_on,55,33,0
2,note_on,48,28,0
2,note_on,46,28,0
2,note_on,46,0,160
2,note_on,48,0,0
2,note_on,55,0,0
2,note_on,55,28,0
2,note_on,46,25,0
2,note_on,49,25,0
2,note_on,49,0,160
2,note_on,46,0,0
2,note_on,55,0,0
2,note_on,55,30,0
2,note_on,46,26,0
2,note_on,46,0,120
2,note_on,55,0,0
2,note_on,48,25,40
2,note_on,46,25,0
2,note_on,55,28,0
2,note_on,55,0,120
2,note_on,46,0,0
2,note_on,48,0,0
2,note_on,49,25,40
2,note_on,55,28,0
2,note_on,46,25,0
2,note_on,46,0,120
2,note_on,55,0,0
2,note_on,49,0,0
2,note_on,41,41,40
2,note_on,41,0,160
2,note_on,46,24,0
2,note_on,49,30,0
2,note_on,49,0,160
2,note_on,46,0,0
2,note_on,46,22,0
2,note_on,49,28,0
2,note_on,49,0,160
2,note_on,46,0,0
2,note_on,41,28,0
2,note_on,41,0,120
2,note_on,48,24,40
2,note_on,45,24,0
2,note_on,45,0,120
2,note_on,48,0,0
2,note_on,48,24,40
2,note_on,45,24,0
2,note_on,45,0,120
2,note_on,48,0,0
2,note_on,34,31,40
2,note_on,34,0,160
2,note_on,46,18,0
2,note_on,53,23,0
2,note_on,49,18,0
2,note_on,49,0,160
2,note_on,53,0,0
2,note_on,46,0,0
2,note_on,46,22,0
2,note_on,48,22,0
2,note_on,51,26,0
2,note_on,51,0,160
2,note_on,48,0,0
2,note_on,46,0,0
2,note_on,46,30,0
2,note_on,49,36,0
2,note_on,49,0,480
2,note_on,46,0,0
2,note_on,58,36,0
2,note_on,46,30,0
2,note_on,46,0,160
2,note_on,58,0,0
2,note_on,61,25,0
2,note_on,58,25,0
2,note_on,65,29,0
2,note_on,65,0,120
2,note_on,58,0,0
2,note_on,61,0,0
2,note_on,64,29,40
2,note_on,58,25,0
2,note_on,61,25,0
2,note_on,61,0,120
2,note_on,58,0,0
2,note_on,64,0,0
2,note_on,65,36,40
2,note_on,61,30,0
2,note_on,58,30,0
2,note_on,58,0,120
2,note_on,61,0,0
2,note_on,65,0,0
2,note_on,61,25,40
2,note_on,66,29,0
2,note_on,58,25,0
2,note_on,58,0,120
2,note_on,66,0,0
2,note_on,61,0,0
2,note_on,61,25,40
2,note_on,65,29,0
2,note_on,58,25,0
2,note_on,58,0,120
2,note_on,65,0,0
2,note_on,61,0,0
2,note_on,49,36,40
2,note_on,49,0,160
2,note_on,65,28,0
2,note_on,61,24,0
2,note_on,61,0,120
2,note_on,65,0,0
2,note_on,61,25,40
2,note_on,64,29,0
2,note_on,64,0,120
2,note_on,61,0,0
2,note_on,61,26,40
2,note_on,65,31,0
2,note_on,65,0,120
2,note_on,61,0,0
2,note_on,61,25,40
2,note_on,66,29,0
2,note_on,66,0,120
2,note_on,61,0,0
2,note_on,61,25,40
2,note_on,65,29,0
2,note_on,65,0,120
2,note_on,61,0,0
2,note_on,48,36,40
2,note_on,48,0,160
2,note_on,63,25,0
2,note_on,65,29,0
2,note_on,60,25,0
2,note_on,60,0,160
2,note_on,65,0,0
2,note_on,63,0,0
2,note_on,64,25,0
2,note_on,60,25,0
2,note_on,63,29,0
2,note_on,63,0,160
2,note_on,60,0,0
2,note_on,64,0,0
2,note_on,60,26,0
2,note_on,63,26,0
2,note_on,65,31,0
2,note_on,65,0,160
2,note_on,63,0,0
2,note_on,60,0,0
2,note_on,60,28,0
2,note_on,63,34,0
2,note_on,63,0,160
2,note_on,60,0,0
2,note_on,60,30,0
2,note_on,63,30,0
2,note_on,66,36,0
2,note_on,66,0,160
2,note_on,63,0,0
2,note_on,60,0,0
2,note_on,45,45,0
2,note_on,45,0,160
2,note_on,65,35,0
2,note_on,60,29,0
2,note_on,57,29,0
2,note_on,57,0,160
2,note_on,60,0,0
2,note_on,65,0,0
2,note_on,60,29,0
2,note_on,64,35,0
2,note_on,57,29,0
2,note_on,57,0,160
2,note_on,64,0,0
2,note_on,60,0,0
2,note_on,60,34,0
2,note_on,65,40,0
2,note_on,57,34,0
2,note_on,57,0,160
2,note_on,65,0,0
2,note_on,60,0,0
2,note_on,57,26,0
2,note_on,66,30,0
2,note_on,60,26,0
2,note_on,60,0,160
2,note_on,66,0,0
2,note_on,57,0,0
2,note_on,57,26,0
2,note_on,65,30,0
2,note_on,60,26,0
2,note_on,60,0,160
2,note_on,65,0,0
2,note_on,57,0,0
2,note_on,46,40,0
2,note_on,46,0,160
2,note_on,65,33,0
2,note_on,58,28,0
2,note_on,61,28,0
2,note_on,61,0,160
2,note_on,58,0,0
2,note_on,65,0,0
2,note_on,58,28,0
2,note_on,61,28,0
2,note_on,64,33,0
2,note_on,64,0,160
2,note_on,61,0,0
2,note_on,58,0,0
2,note_on,58,34,0
2,note_on,65,40,0
2,note_on,61,34,0
2,note_on,61,0,120
2,note_on,65,0,0
2,note_on,58,0,0
2,note_on,66,33,40
2,note_on,61,28,0
2,note_on,58,28,0
2,note_on,58,0,120
2,note_on,61,0,0
2,note_on,66,0,0
2,note_on,61,28,40
2,note_on,65,33,0
2,note_on,58,28,0
2,note_on,58,0,120
2,note_on,65,0,0
2,note_on,61,0,0
2,note_on,42,40,40
2,note_on,42,0,160
2,note_on,54,27,0
2,note_on,63,31,0
2,note_on,58,27,0
2,note_on,58,0,160
2,note_on,63,0,0
2,note_on,54,0,0
2,note_on,57,28,0
2,note_on,54,28,0
2,note_on,63,33,0
2,note_on,63,0,160
2,note_on,54,0,0
2,note_on,57,0,0
2,note_on,63,35,0
2,note_on,58,29,0
2,note_on,54,29,0
2,note_on,54,0,120
2,note_on,58,0,0
2,note_on,63,0,0
2,note_on,58,28,40
2,note_on,65,33,0
2,note_on,54,29,0
2,note_on,54,0,120
2,note_on,65,0,0
2,note_on,58,0,0
2,note_on,63,33,40
2,note_on,58,28,0
2,note_on,54,29,0
2,note_on,54,0,120
2,note_on,58,0,0
2,note_on,63,0,0
2,note_on,53,51,40
2,note_on,41,41,0
2,note_on,41,0,160
2,note_on,53,0,0
2,note_on,58,30,0
2,note_on,53,30,0
2,note_on,61,37,0
2,note_on,61,0,160
2,note_on,53,0,0
2,note_on,58,0,0
2,note_on,58,30,0
2,note_on,53,30,0
2,note_on,60,37,0
2,note_on,60,0,160
2,note_on,53,0,0
2,note_on,58,0,0
2,note_on,61,39,0
2,note_on,53,33,0
2,note_on,58,33,0
2,note_on,58,0,160
2,note_on,53,0,0
2,note_on,61,0,0
2,note_on,53,35,0
2,note_on,58,35,0
2,note_on,63,41,0
2,note_on,63,0,160
2,note_on,58,0,0
2,note_on,53,0,0
2,note_on,53,34,0
2,note_on,64,40,0
2,note_on,58,34,0
2,note_on,58,0,160
2,note_on,64,0,0
2,note_on,53,0,0
2,note_on,53,50,0
2,note_on,41,42,0
2,note_on,41,0,160
2,note_on,53,0,0
2,note_on,53,35,0
2,note_on,65,42,0
2,note_on,57,35,0
2,note_on,57,0,160
2,note_on,65,0,0
2,note_on,53,0,0
2,note_on,57,35,0
2,note_on,64,42,0
2,note_on,53,35,0
2,note_on,53,0,160
2,note_on,64,0,0
2,note_on,57,0,0
2,note_on,57,42,0
2,note_on,53,42,0
2,note_on,65,49,0
2,note_on,65,0,160
2,note_on,53,0,0
2,note_on,57,0,0
2,note_on,53,35,0
2,note_on,57,35,0
2,note_on,66,42,0
2,note_on,66,0,160
2,note_on,57,0,0
2,note_on,53,0,0
2,note_on,65,42,0
2,note_on,53,35,0
2,note_on,57,35,0
2,note_on,57,0,160
2,note_on,53,0,0
2,note_on,65,0,0
2,note_on,46,40,0
2,note_on,58,48,0
2,note_on,58,0,160
2,note_on,46,0,0
2,note_on,58,33,0
2,note_on,61,33,0
2,note_on,65,38,0
2,note_on,65,0,160
2,note_on,61,0,0
2,note_on,58,0,0
2,note_on,61,33,0
2,note_on,64,38,0
2,note_on,58,33,0
2,note_on,58,0,160
2,note_on,64,0,0
2,note_on,61,0,0
2,note_on,65,48,0
2,note_on,61,40,0
2,note_on,58,40,0
2,note_on,58,0,160
2,note_on,61,0,0
2,note_on,65,0,0
2,note_on,58,33,0
2,note_on,61,33,0
2,note_on,66,38,0
2,note_on,66,0,160
2,note_on,61,0,0
2,note_on,58,0,0
2,note_on,58,33,0
2,note_on,65,38,0
2,note_on,61,33,0
2,note_on,61,0,160
2,note_on,65,0,0
2,note_on,58,0,0
2,note_on,49,40,0
2,note_on,61,48,0
2,note_on,61,0,160
2,note_on,49,0,0
2,note_on,65,37,0
2,note_on,61,32,0
2,note_on,61,0,160
2,note_on,65,0,0
2,note_on,61,33,0
2,note_on,64,38,0
2,note_on,64,0,160
2,note_on,61,0,0
2,note_on,65,42,0
2,note_on,61,34,0
2,note_on,61,0,160
2,note_on,65,0,0
2,note_on,66,38,0
2,note_on,61,33,0
2,note_on,61,0,160
2,note_on,66,0,0
2,note_on,61,33,0
2,note_on,65,38,0
2,note_on,65,0,160
2,note_on,61,0,0
2,note_on,48,48,0
2,note_on,48,0,160
2,note_on,60,33,0
2,note_on,65,38,0
2,note_on,63,33,0
2,note_on,63,0,160
2,note_on,65,0,0
2,note_on,60,0,0
2,note_on,64,33,0
2,note_on,60,33,0
2,note_on,63,38,0
2,note_on,63,0,160
2,note_on,60,0,0
2,note_on,64,0,0
2,note_on,60,34,0
2,note_on,65,42,0
2,note_on,63,34,0
2,note_on,63,0,160
2,note_on,65,0,0
2,note_on,60,0,0
2,note_on,63,46,0
2,note_on,60,37,0
2,note_on,60,0,160
2,note_on,63,0,0
2,note_on,60,40,0
2,note_on,66,48,0
2,note_on,63,40,0
2,note_on,63,0,160
2,note_on,66,0,0
2,note_on,60,0,0
2,note_on,45,60,0
2,note_on,45,0,160
2,note_on,65,47,0
2,note_on,57,38,0
2,note_on,60,38,0
2,note_on,60,0,160
2,note_on,57,0,0
2,note_on,65,0,0
2,note_on,64,47,0
2,note_on,57,38,0
2,note_on,60,38,0
2,note_on,60,0,160
2,note_on,57,0,0
2,note_on,64,0,0
2,note_on,60,42,0
2,note_on,57,42,0
2,note_on,65,50,0
2,note_on,65,0,160
2,note_on,57,0,0
2,note_on,60,0,0
2,note_on,66,40,0
2,note_on,57,35,0
2,note_on,60,35,0
2,note_on,60,0,160
2,note_on,57,0,0
2,note_on,66,0,0
2,note_on,65,33,0
2,note_on,60,28,0
2,note_on,57,28,0
2,note_on,57,0,160
2,note_on,60,0,0
2,note_on,65,0,0
2,note_on,46,42,0
2,note_on,46,0,160
2,note_on,58,29,0
2,note_on,65,34,0
2,note_on,61,29,0
2,note_on,61,0,160
2,note_on,65,0,0
2,note_on,58,0,0
2,note_on,58,29,0
2,note_on,61,29,0
2,note_on,64,34,0
2,note_on,64,0,160
2,note_on,61,0,0
2,note_on,58,0,0
2,note_on,61,36,0
2,note_on,65,42,0
2,note_on,58,36,0
2,note_on,58,0,120
2,note_on,65,0,0
2,note_on,61,0,0
2,note_on,61,29,40
2,note_on,66,34,0
2,note_on,58,29,0
2,note_on,58,0,120
2,note_on,66,0,0
2,note_on,61,0,0
2,note_on,58,29,40
2,note_on,61,29,0
2,note_on,65,34,0
2,note_on,65,0,120
2,note_on,61,0,0
2,note_on,58,0,0
2,note_on,52,42,40
2,note_on,52,0,160
2,note_on,67,33,0
2,note_on,58,28,0
2,note_on,60,28,0
2,note_on,60,0,160
2,note_on,58,0,0
2,note_on,67,0,0
2,note_on,58,25,0
2,note_on,67,28,0
2,note_on,61,25,0
2,note_on,61,0,160
2,note_on,67,0,0
2,note_on,58,0,0
2,note_on,67,30,0
2,note_on,58,26,0
2,note_on,58,0,120
2,note_on,67,0,0
2,note_on,58,25,40
2,note_on,60,25,0
2,note_on,67,28,0
2,note_on,67,0,120
2,note_on,60,0,0
2,note_on,58,0,0
2,note_on,58,25,40
2,note_on,67,28,0
2,note_on,61,25,0
2,note_on,61,0,120
2,note_on,67,0,0
2,note_on,58,0,0
2,note_on,53,41,40
2,note_on,53,0,160
2,note_on,61,30,0
2,note_on,58,24,0
2,note_on,58,0,160
2,note_on,61,0,0
2,note_on,61,28,0
2,note_on,58,22,0
2,note_on,58,0,160
2,note_on,61,0,0
2,note_on,53,28,0
2,note_on,53,0,120
2,note_on,60,24,40
2,note_on,57,24,0
2,note_on,57,0,120
2,note_on,60,0,0
2,note_on,57,24,40
2,note_on,60,24,0
2,note_on,60,0,120
2,note_on,57,0,0
2,note_on,46,31,40
2,note_on,46,0,160
2,note_on,53,23,0
2,note_on,49,18,0
2,note_on,49,0,160
2,note_on,53,0,0
2,note_on,48,22,0
2,note_on,51,26,0
2,note_on,51,0,160
2,note_on,48,0,0
2,note_on,49,31,0
2,note_on,46,28,0
2,note_on,46,0,240
2,note_on,49,0,0
2,note_on,37,50,240
2,note_on,37,0,80
2,note_on,56,40,80
2,note_on,53,35,0
2,note_on,49,35,0
2,note_on,49,0,144
2,note_on,53,0,0
2,note_on,56,0,0
2,note_on,56,40,16
2,note_on,53,35,0
2,note_on,49,35,0
2,note_on,49,0,144
2,note_on,53,0,0
2,note_on,56,0,0
2,note_on,49,35,16
2,note_on,57,50,0
2,note_on,53,35,0
2,note_on,53,0,144
2,note_on,57,0,0
2,note_on,49,0,0
2,note_on,49,35,16
2,note_on,57,40,0
2,note_on,53,35,0
2,note_on,53,0,144
2,note_on,57,0,0
2,note_on,49,0,0
2,note_on,53,35,16
2,note_on,57,40,0
2,note_on,49,35,0
2,note_on,49,0,144
2,note_on,57,0,0
2,note_on,53,0,0
2,note_on,42,50,16
2,note_on,42,0,80
2,note_on,54,34,80
2,note_on,58,39,0
2,note_on,49,35,0
2,note_on,49,0,144
2,note_on,58,0,0
2,note_on,54,0,0
2,note_on,54,35,16
2,note_on,58,40,0
2,note_on,49,35,0
2,note_on,58,0,142
2,note_on,49,0,2
2,note_on,54,0,0
2,note_on,38,44,16
2,note_on,38,0,80
2,note_on,56,37,80
2,note_on,53,37,0
2,note_on,58,43,0
2,note_on,50,37,0
2,note_on,50,0,144
2,note_on,56,0,0
2,note_on,53,0,0
2,note_on,58,0,0
2,note_on,50,40,16
2,note_on,56,40,0
2,note_on,53,40,0
2,note_on,58,46,0
2,note_on,58,0,144
2,note_on,50,0,0
2,note_on,56,0,0
2,note_on,53,0,0
2,note_on,39,62,16
2,note_on,39,0,80
2,note_on,51,43,80
2,note_on,58,50,0
2,note_on,54,43,0
2,note_on,54,0,160
2,note_on,58,0,0
2,note_on,51,0,0
2,note_on,54,43,0
2,note_on,59,50,0
2,note_on,51,43,0
2,note_on,51,0,160
2,note_on,59,0,0
2,note_on,54,0,0
2,note_on,40,55,0
2,note_on,40,0,80
2,note_on,58,48,80
2,note_on,52,48,0
2,note_on,54,48,0
2,note_on,60,60,0
2,note_on,60,0,160
2,note_on,58,0,0
2,note_on,52,0,0
2,note_on,54,0,0
2,note_on,54,52,0
2,note_on,58,52,0
2,note_on,61,62,0
2,note_on,52,52,0
2,note_on,52,0,160
2,note_on,54,0,0
2,note_on,58,0,0
2,note_on,61,0,0
2,note_on,41,78,0
2,note_on,41,0,80
2,note_on,61,57,80
2,note_on,58,46,0
2,note_on,53,46,0
2,note_on,53,0,144
2,note_on,58,0,0
2,note_on,61,0,0
2,note_on,53,43,16
2,note_on,61,53,0
2,note_on,58,43,0
2,note_on,58,0,144
2,note_on,61,0,0
2,note_on,53,0,0
2,note_on,57,44,16
2,note_on,53,44,0
2,note_on,60,52,0
2,note_on,60,0,144
2,note_on,53,0,0
2,note_on,57,0,0
2,note_on,60,39,16
2,note_on,57,34,0
2,note_on,53,34,0
2,note_on,53,0,144
2,note_on,57,0,0
2,note_on,60,0,0
2,note_on,53,28,16
2,note_on,60,33,0
2,note_on,57,28,0
2,note_on,60,0,142
2,note_on,57,0,2
2,note_on,53,0,0
2,note_on,45,52,16
2,note_on,45,0,160
2,note_on,60,30,0
2,note_on,53,25,0
2,note_on,57,25,0
2,note_on,57,0,160
2,note_on,53,0,0
2,note_on,60,0,0
2,note_on,60,30,0
2,note_on,57,25,0
2,note_on,52,25,0
2,note_on,52,0,160
2,note_on,57,0,0
2,note_on,60,0,0
2,note_on,53,25,0
2,note_on,60,30,0
2,note_on,57,25,0
2,note_on,57,0,160
2,note_on,60,0,0
2,note_on,53,0,0
2,note_on,57,25,0
2,note_on,53,25,0
2,note_on,62,30,0
2,note_on,62,0,160
2,note_on,53,0,0
2,note_on,57,0,0
2,note_on,57,25,0
2,note_on,53,25,0
2,note_on,60,30,0
2,note_on,60,0,160
2,note_on,53,0,0
2,note_on,57,0,0
2,note_on,46,44,0
2,note_on,46,0,160
2,note_on,57,25,0
2,note_on,63,30,0
2,note_on,54,25,0
2,note_on,54,0,160
2,note_on,63,0,0
2,note_on,57,0,0
2,note_on,62,30,0
2,note_on,57,25,0
2,note_on,54,25,0
2,note_on,54,0,160
2,note_on,57,0,0
2,note_on,62,0,0
2,note_on,58,25,0
2,note_on,62,30,0
2,note_on,55,25,0
2,note_on,55,0,160
2,note_on,62,0,0
2,note_on,58,0,0
2,note_on,62,30,0
2,note_on,60,25,0
2,note_on,57,25,0
2,note_on,57,0,160
2,note_on,60,0,0
2,note_on,62,0,0
2,note_on,62,30,0
2,note_on,58,25,0
2,note_on,58,0,160
2,note_on,62,0,0
2,note_on,48,40,0
2,note_on,48,0,160
2,note_on,57,28,0
2,note_on,60,33,0
2,note_on,60,0,144
2,note_on,57,0,0
2,note_on,57,27,16
2,note_on,60,32,0
2,note_on,60,0,144
2,note_on,57,0,0
2,note_on,48,39,16
2,note_on,48,0,160
2,note_on,60,32,0
2,note_on,58,27,0
2,note_on,55,27,0
2,note_on,55,0,144
2,note_on,58,0,0
2,note_on,60,0,0
2,note_on,60,32,16
2,note_on,58,27,0
2,note_on,55,27,0
2,note_on,55,0,144
2,note_on,58,0,0
2,note_on,60,0,0
2,note_on,41,40,16
2,note_on,41,0,160
2,note_on,53,27,0
2,note_on,57,27,0
2,note_on,60,32,0
2,note_on,60,0,160
2,note_on,57,0,0
2,note_on,53,0,0
2,note_on,53,32,0
2,note_on,53,0,120
2,note_on,51,40,40
2,note_on,53,34,0
2,note_on,53,0,120
2,note_on,51,0,40
2,note_on,53,37,0
2,note_on,49,44,0
2,note_on,53,0,120
2,note_on,49,0,40
2,note_on,53,40,0
2,note_on,48,48,0
2,note_on,53,0,120
2,note_on,48,0,40
2,note_on,42,50,0
2,note_on,30,42,0
2,note_on,30,0,80
2,note_on,42,0,0
2,note_on,42,37,80
2,note_on,49,44,0
2,note_on,46,37,0
2,note_on,46,0,160
2,note_on,49,0,0
2,note_on,42,0,0
2,note_on,42,37,0
2,note_on,48,44,0
2,note_on,46,37,0
2,note_on,46,0,160
2,note_on,48,0,0
2,note_on,42,0,0
2,note_on,42,43,0
2,note_on,49,51,0
2,note_on,46,43,0
2,note_on,46,0,160
2,note_on,49,0,0
2,note_on,42,0,0
2,note_on,42,38,0
2,note_on,46,38,0
2,note_on,51,45,0
2,note_on,51,0,160
2,note_on,46,0,0
2,note_on,42,0,0
2,note_on,49,45,0
2,note_on,46,38,0
2,note_on,42,38,0
2,note_on,42,0,160
2,note_on,46,0,0
2,note_on,49,0,0
2,note_on,29,43,0
2,note_on,41,51,0
2,note_on,41,0,80
2,note_on,29,0,0
2,note_on,46,36,80
2,note_on,49,43,0
2,note_on,41,36,0
2,note_on,41,0,160
2,note_on,49,0,0
2,note_on,46,0,0
2,note_on,41,36,0
2,note_on,48,43,0
2,note_on,46,36,0
2,note_on,46,0,160
2,note_on,48,0,0
2,note_on,41,0,0
2,note_on,41,43,0
2,note_on,46,43,0
2,note_on,49,51,0
2,note_on,49,0,160
2,note_on,46,0,0
2,note_on,41,0,0
2,note_on,41,39,0
2,note_on,51,46,0
2,note_on,46,39,0
2,note_on,46,0,160
2,note_on,51,0,0
2,note_on,41,0,0
2,note_on,49,46,0
2,note_on,41,39,0
2,note_on,46,39,0
2,note_on,46,0,160
2,note_on,41,0,0
2,note_on,49,0,0
2,note_on,38,51,0
2,note_on,38,0,80
2,note_on,50,34,80
2,note_on,56,41,0
2,note_on,53,34,0
2,note_on,53,0,160
2,note_on,56,0,0
2,note_on,50,0,0
2,note_on,50,35,0
2,note_on,57,41,0
2,note_on,53,35,0
2,note_on,53,0,160
2,note_on,57,0,0
2,note_on,50,0,0
2,note_on,58,47,0
2,note_on,50,40,0
2,note_on,53,40,0
2,note_on,53,0,160
2,note_on,50,0,0
2,note_on,58,0,0
2,note_on,50,44,0
2,note_on,53,44,0
2,note_on,56,52,0
2,note_on,56,0,160
2,note_on,53,0,0
2,note_on,50,0,0
2,note_on,56,48,0
2,note_on,50,48,0
2,note_on,53,48,0
2,note_on,59,57,0
2,note_on,59,0,160
2,note_on,56,0,0
2,note_on,50,0,0
2,note_on,53,0,0
2,note_on,39,62,0
2,note_on,39,0,80
2,note_on,51,34,80
2,note_on,58,41,0
2,note_on,54,34,0
2,note_on,54,0,160
2,note_on,58,0,0
2,note_on,51,0,0
2,note_on,51,34,0
2,note_on,54,34,0
2,note_on,57,41,0
2,note_on,57,0,160
2,note_on,54,0,0
2,note_on,51,0,0
2,note_on,51,41,0
2,note_on,54,41,0
2,note_on,58,49,0
2,note_on,58,0,160
2,note_on,54,0,0
2,note_on,51,0,0
2,note_on,54,34,0
2,note_on,51,34,0
2,note_on,59,40,0
2,note_on,59,0,160
2,note_on,51,0,0
2,note_on,54,0,0
2,note_on,54,34,0
2,note_on,58,40,0
2,note_on,51,34,0
2,note_on,51,0,160
2,note_on,58,0,0
2,note_on,54,0,0
2,note_on,46,40,0
2,note_on,46,0,160
2,note_on,54,23,0
2,note_on,58,33,0
2,note_on,58,0,144
2,note_on,54,0,0
2,note_on,54,23,16
2,note_on,58,33,0
2,note_on,58,0,144
2,note_on,54,0,0
2,note_on,58,40,16
2,note_on,54,28,0
2,note_on,54,0,144
2,note_on,58,0,0
2,note_on,58,33,16
2,note_on,54,23,0
2,note_on,54,0,144
2,note_on,58,0,0
2,note_on,60,33,16
2,note_on,58,23,0
2,note_on,54,23,0
2,note_on,54,0,160
2,note_on,58,0,0
2,note_on,60,0,0
2,note_on,41,40,0
2,note_on,41,0,160
2,note_on,58,22,0
2,note_on,61,31,0
2,note_on,53,22,0
2,note_on,53,0,144
2,note_on,61,0,0
2,note_on,58,0,0
2,note_on,61,33,16
2,note_on,58,23,0
2,note_on,53,23,0
2,note_on,53,0,144
2,note_on,58,0,0
2,note_on,61,0,0
2,note_on,61,35,16
2,note_on,58,24,0
2,note_on,53,24,0
2,note_on,53,0,144
2,note_on,58,0,0
2,note_on,61,0,0
2,note_on,58,23,16
2,note_on,52,24,0
2,note_on,61,33,0
2,note_on,61,0,144
2,note_on,52,0,0
2,note_on,58,0,0
2,note_on,53,24,16
2,note_on,58,23,0
2,note_on,61,33,0
2,note_on,61,0,144
2,note_on,58,0,0
2,note_on,53,0,0
2,note_on,40,45,16
2,note_on,40,0,160
2,note_on,58,33,0
2,note_on,61,38,0
2,note_on,54,33,0
2,note_on,52,33,0
2,note_on,52,0,144
2,note_on,58,0,0
2,note_on,61,0,0
2,note_on,54,0,0
2,note_on,58,29,16
2,note_on,54,29,0
2,note_on,60,35,0
2,note_on,52,29,0
2,note_on,52,0,144
2,note_on,58,0,0
2,note_on,54,0,0
2,note_on,60,0,0
2,note_on,41,39,16
2,note_on,41,0,160
2,note_on,57,28,0
2,note_on,53,28,0
2,note_on,60,28,0
2,note_on,66,33,0
2,note_on,66,0,160
2,note_on,57,0,0
2,note_on,53,0,0
2,note_on,60,0,0
2,note_on,53,28,0
2,note_on,60,28,0
2,note_on,63,28,0
2,note_on,65,33,0
2,note_on,65,0,160
2,note_on,53,0,0
2,note_on,60,0,0
2,note_on,63,0,0
2,note_on,46,42,0
2,note_on,46,0,160
2,note_on,53,28,0
2,note_on,65,33,0
2,note_on,61,28,0
2,note_on,61,0,144
2,note_on,65,0,0
2,note_on,53,0,0
2,note_on,53,28,16
2,note_on,63,33,0
2,note_on,60,28,0
2,note_on,60,0,144
2,note_on,63,0,0
2,note_on,53,0,0
2,note_on,61,40,16
2,note_on,53,34,0
2,note_on,58,34,0
2,note_on,61,0,238
2,note_on,58,0,2
2,note_on,53,0,0
2,note_on,37,50,240
2,note_on,37,0,80
2,note_on,53,35,80
2,note_on,49,35,0
2,note_on,56,40,0
2,note_on,56,0,144
2,note_on,49,0,0
2,note_on,53,0,0
2,note_on,49,35,16
2,note_on,56,40,0
2,note_on,53,35,0
2,note_on,53,0,144
2,note_on,56,0,0
2,note_on,49,0,0
2,note_on,49,35,16
2,note_on,53,35,0
2,note_on,57,50,0
2,note_on,57,0,144
2,note_on,53,0,0
2,note_on,49,0,0
2,note_on,53,35,16
2,note_on,49,35,0
2,note_on,57,40,0
2,note_on,57,0,144
2,note_on,49,0,0
2,note_on,53,0,0
2,note_on,57,40,16
2,note_on,49,35,0
2,note_on,53,35,0
2,note_on,53,0,144
2,note_on,49,0,0
2,note_on,57,0,0
2,note_on,42,50,16
2,note_on,42,0,80
2,note_on,49,35,80
2,note_on,54,34,0
2,note_on,58,39,0
2,note_on,58,0,144
2,note_on,54,0,0
2,note_on,49,0,0
2,note_on,49,35,16
2,note_on,58,40,0
2,note_on,54,35,0
2,note_on,58,0,142
2,note_on,54,0,2
2,note_on,49,0,0
2,note_on,38,44,16
2,note_on,38,0,80
2,note_on,50,37,80
2,note_on,53,37,0
2,note_on,58,43,0
2,note_on,56,37,0
2,note_on,56,0,144
2,note_on,50,0,0
2,note_on,53,0,0
2,note_on,58,0,0
2,note_on,53,40,16
2,note_on,56,40,0
2,note_on,50,40,0
2,note_on,58,46,0
2,note_on,58,0,144
2,note_on,53,0,0
2,note_on,56,0,0
2,note_on,50,0,0
2,note_on,39,62,16
2,note_on,39,0,80
2,note_on,58,50,80
2,note_on,54,43,0
2,note_on,51,43,0
2,note_on,51,0,160
2,note_on,54,0,0
2,note_on,58,0,0
2,note_on,51,43,0
2,note_on,54,43,0
2,note_on,59,50,0
2,note_on,59,0,160
2,note_on,54,0,0
2,note_on,51,0,0
2,note_on,40,55,0
2,note_on,40,0,80
2,note_on,58,48,80
2,note_on,60,60,0
2,note_on,52,48,0
2,note_on,54,48,0
2,note_on,54,0,160
2,note_on,58,0,0
2,note_on,60,0,0
2,note_on,52,0,0
2,note_on,61,62,0
2,note_on,52,52,0
2,note_on,54,52,0
2,note_on,58,52,0
2,note_on,58,0,160
2,note_on,61,0,0
2,note_on,52,0,0
2,note_on,54,0,0
2,note_on,41,78,0
2,note_on,41,0,80
2,note_on,61,57,80
2,note_on,53,46,0
2,note_on,58,46,0
2,note_on,58,0,144
2,note_on,53,0,0
2,note_on,61,0,0
2,note_on,53,43,16
2,note_on,61,53,0
2,note_on,58,43,0
2,note_on,58,0,144
2,note_on,61,0,0
2,note_on,53,0,0
2,note_on,57,44,16
2,note_on,53,44,0
2,note_on,60,52,0
2,note_on,60,0,144
2,note_on,53,0,0
2,note_on,57,0,0
2,note_on,57,34,16
2,note_on,60,39,0
2,note_on,53,34,0
2,note_on,53,0,144
2,note_on,60,0,0
2,note_on,57,0,0
2,note_on,53,28,16
2,note_on,60,33,0
2,note_on,57,28,0
2,note_on,60,0,142
2,note_on,57,0,2
2,note_on,53,0,0
2,note_on,45,52,16
2,note_on,45,0,160
2,note_on,53,25,0
2,note_on,57,25,0
2,note_on,60,30,0
2,note_on,60,0,144
2,note_on,57,0,0
2,note_on,53,0,0
2,note_on,52,25,16
2,note_on,57,25,0
2,note_on,60,30,0
2,note_on,60,0,144
2,note_on,57,0,0
2,note_on,52,0,0
2,note_on,60,30,16
2,note_on,57,25,0
2,note_on,53,25,0
2,note_on,53,0,144
2,note_on,57,0,0
2,note_on,60,0,0
2,note_on,53,25,16
2,note_on,57,25,0
2,note_on,62,30,0
2,note_on,62,0,144
2,note_on,57,0,0
2,note_on,53,0,0
2,note_on,57,25,16
2,note_on,60,30,0
2,note_on,53,25,0
2,note_on,53,0,144
2,note_on,60,0,0
2,note_on,57,0,0
2,note_on,46,44,16
2,note_on,46,0,160
2,note_on,54,25,0
2,note_on,63,30,0
2,note_on,57,25,0
2,note_on,57,0,144
2,note_on,63,0,0
2,note_on,54,0,0
2,note_on,62,30,16
2,note_on,54,25,0
2,note_on,57,25,0
2,note_on,57,0,144
2,note_on,54,0,0
2,note_on,62,0,0
2,note_on,58,25,16
2,note_on,55,25,0
2,note_on,62,30,0
2,note_on,62,0,144
2,note_on,55,0,0
2,note_on,58,0,0
2,note_on,60,25,16
2,note_on,62,30,0
2,note_on,57,25,0
2,note_on,57,0,144
2,note_on,62,0,0
2,note_on,60,0,0
2,note_on,58,25,16
2,note_on,62,30,0
2,note_on,62,0,144
2,note_on,58,0,0
2,note_on,48,40,16
2,note_on,48,0,160
2,note_on,57,28,0
2,note_on,60,33,0
2,note_on,60,0,144
2,note_on,57,0,0
2,note_on,57,27,16
2,note_on,60,32,0
2,note_on,60,0,144
2,note_on,57,0,0
2,note_on,48,39,16
2,note_on,48,0,160
2,note_on,60,32,0
2,note_on,55,27,0
2,note_on,58,27,0
2,note_on,58,0,144
2,note_on,55,0,0
2,note_on,60,0,0
2,note_on,60,32,16
2,note_on,58,27,0
2,note_on,55,27,0
2,note_on,55,0,144
2,note_on,58,0,0
2,note_on,60,0,0
2,note_on,41,40,16
2,note_on,41,0,160
2,note_on,53,27,0
2,note_on,57,27,0
2,note_on,60,32,0
2,note_on,60,0,160
2,note_on,57,0,0
2,note_on,53,0,0
2,note_on,53,32,0
2,note_on,53,0,160
2,note_on,51,40,0
2,note_on,53,34,0
2,note_on,53,0,120
2,note_on,51,0,40
2,note_on,53,37,0
2,note_on,49,44,0
2,note_on,53,0,120
2,note_on,49,0,40
2,note_on,48,48,0
2,note_on,53,40,0
2,note_on,53,0,120
2,note_on,48,0,40
2,note_on,30,42,0
2,note_on,42,50,0
2,note_on,42,0,80
2,note_on,30,0,0
2,note_on,49,44,80
2,note_on,46,37,0
2,note_on,42,37,0
2,note_on,42,0,144
2,note_on,46,0,0
2,note_on,49,0,0
2,note_on,48,44,16
2,note_on,42,37,0
2,note_on,46,37,0
2,note_on,46,0,144
2,note_on,42,0,0
2,note_on,48,0,0
2,note_on,49,51,16
2,note_on,46,43,0
2,note_on,42,43,0
2,note_on,42,0,144
2,note_on,46,0,0
2,note_on,49,0,0
2,note_on,51,45,16
2,note_on,42,38,0
2,note_on,46,38,0
2,note_on,46,0,144
2,note_on,42,0,0
2,note_on,51,0,0
2,note_on,42,38,16
2,note_on,49,45,0
2,note_on,46,38,0
2,note_on,46,0,144
2,note_on,49,0,0
2,note_on,42,0,0
2,note_on,41,51,16
2,note_on,29,43,0
2,note_on,29,0,80
2,note_on,41,0,0
2,note_on,41,36,80
2,note_on,46,36,0
2,note_on,49,43,0
2,note_on,49,0,144
2,note_on,46,0,0
2,note_on,41,0,0
2,note_on,41,36,16
2,note_on,46,36,0
2,note_on,48,43,0
2,note_on,48,0,144
2,note_on,46,0,0
2,note_on,41,0,0
2,note_on,49,51,16
2,note_on,46,43,0
2,note_on,41,43,0
2,note_on,41,0,144
2,note_on,46,0,0
2,note_on,49,0,0
2,note_on,51,46,16
2,note_on,41,39,0
2,note_on,46,39,0
2,note_on,46,0,144
2,note_on,41,0,0
2,note_on,51,0,0
2,note_on,41,39,16
2,note_on,46,39,0
2,note_on,49,46,0
2,note_on,49,0,144
2,note_on,46,0,0
2,note_on,41,0,0
2,note_on,38,51,16
2,note_on,38,0,80
2,note_on,53,34,80
2,note_on,50,34,0
2,note_on,56,41,0
2,note_on,56,0,144
2,note_on,50,0,0
2,note_on,53,0,0
2,note_on,53,35,16
2,note_on,57,41,0
2,note_on,50,35,0
2,note_on,50,0,144
2,note_on,57,0,0
2,note_on,53,0,0
2,note_on,53,40,16
2,note_on,50,40,0
2,note_on,58,47,0
2,note_on,58,0,144
2,note_on,50,0,0
2,note_on,53,0,0
2,note_on,56,52,16
2,note_on,50,44,0
2,note_on,53,44,0
2,note_on,53,0,144
2,note_on,50,0,0
2,note_on,56,0,0
2,note_on,56,48,16
2,note_on,50,48,0
2,note_on,59,57,0
2,note_on,53,48,0
2,note_on,53,0,144
2,note_on,56,0,0
2,note_on,50,0,0
2,note_on,59,0,0
2,note_on,39,62,16
2,note_on,39,0,80
2,note_on,51,34,80
2,note_on,54,34,0
2,note_on,58,41,0
2,note_on,58,0,144
2,note_on,54,0,0
2,note_on,51,0,0
2,note_on,51,34,16
2,note_on,54,34,0
2,note_on,57,41,0
2,note_on,57,0,144
2,note_on,54,0,0
2,note_on,51,0,0
2,note_on,51,41,16
2,note_on,58,49,0
2,note_on,54,41,0
2,note_on,54,0,144
2,note_on,58,0,0
2,note_on,51,0,0
2,note_on,59,40,16
2,note_on,54,34,0
2,note_on,51,34,0
2,note_on,51,0,144
2,note_on,54,0,0
2,note_on,59,0,0
2,note_on,54,34,16
2,note_on,58,40,0
2,note_on,51,34,0
2,note_on,51,0,144
2,note_on,58,0,0
2,note_on,54,0,0
2,note_on,46,40,16
2,note_on,46,0,160
2,note_on,54,23,0
2,note_on,58,33,0
2,note_on,58,0,144
2,note_on,54,0,0
2,note_on,58,33,16
2,note_on,54,23,0
2,note_on,54,0,144
2,note_on,58,0,0
2,note_on,58,40,16
2,note_on,54,28,0
2,note_on,54,0,144
2,note_on,58,0,0
2,note_on,54,23,16
2,note_on,58,33,0
2,note_on,58,0,144
2,note_on,54,0,0
2,note_on,60,33,16
2,note_on,58,23,0
2,note_on,54,23,0
2,note_on,54,0,144
2,note_on,58,0,0
2,note_on,60,0,0
2,note_on,41,40,16
2,note_on,41,0,160
2,note_on,58,22,0
2,note_on,53,22,0
2,note_on,61,31,0
2,note_on,61,0,144
2,note_on,53,0,0
2,note_on,58,0,0
2,note_on,58,23,16
2,note_on,61,33,0
2,note_on,53,23,0
2,note_on,53,0,144
2,note_on,61,0,0
2,note_on,58,0,0
2,note_on,53,24,16
2,note_on,58,24,0
2,note_on,61,35,0
2,note_on,61,0,144
2,note_on,58,0,0
2,note_on,53,0,0
2,note_on,61,33,16
2,note_on,52,24,0
2,note_on,58,23,0
2,note_on,58,0,144
2,note_on,52,0,0
2,note_on,61,0,0
2,note_on,58,23,16
2,note_on,61,33,0
2,note_on,53,24,0
2,note_on,53,0,144
2,note_on,61,0,0
2,note_on,58,0,0
2,note_on,40,45,16
2,note_on,40,0,160
2,note_on,54,33,0
2,note_on,61,38,0
2,note_on,52,33,0
2,note_on,58,33,0
2,note_on,58,0,144
2,note_on,54,0,0
2,note_on,61,0,0
2,note_on,52,0,0
2,note_on,54,29,16
2,note_on,58,29,0
2,note_on,60,35,0
2,note_on,52,29,0
2,note_on,52,0,144
2,note_on,54,0,0
2,note_on,58,0,0
2,note_on,60,0,0
2,note_on,41,39,16
2,note_on,41,0,160
2,note_on,66,33,0
2,note_on,57,28,0
2,note_on,53,28,0
2,note_on,60,28,0
2,note_on,60,0,144
2,note_on,66,0,0
2,note_on,57,0,0
2,note_on,53,0,0
2,note_on,63,28,16
2,note_on,53,28,0
2,note_on,65,33,0
2,note_on,60,28,0
2,note_on,60,0,144
2,note_on,63,0,0
2,note_on,53,0,0
2,note_on,65,0,0
2,note_on,46,42,16
2,note_on,46,0,160
2,note_on,53,28,0
2,note_on,58,28,0
2,note_on,61,33,0
2,note_on,61,0,144
2,note_on,58,0,0
2,note_on,53,0,0
2,note_on,57,28,16
2,note_on,53,28,0
2,note_on,60,33,0
2,note_on,60,0,144
2,note_on,53,0,0
2,note_on,57,0,0
2,note_on,53,38,16
2,note_on,58,38,0
2,note_on,61,38,0
2,note_on,61,0,144
2,note_on,58,0,0
2,note_on,53,0,0
2,note_on,61,26,16
2,note_on,53,26,0
2,note_on,65,26,0
2,note_on,65,0,144
2,note_on,53,0,0
2,note_on,61,0,0
2,note_on,53,22,16
2,note_on,58,22,0
2,note_on,61,22,0
2,note_on,61,0,144
2,note_on,58,0,0
2,note_on,53,0,0
2,note_on,40,40,16
2,note_on,40,0,160
2,note_on,58,23,0
2,note_on,52,23,0
2,note_on,61,33,0
2,note_on,55,23,0
2,note_on,55,0,144
2,note_on,58,0,0
2,note_on,52,0,0
2,note_on,61,0,0
2,note_on,58,27,16
2,note_on,60,27,0
2,note_on,55,27,0
2,note_on,52,27,0
2,note_on,52,0,160
2,note_on,58,0,0
2,note_on,60,0,0
2,note_on,55,0,0
2,note_on,41,31,0
2,note_on,41,0,160
2,note_on,57,22,0
2,note_on,53,22,0
2,note_on,60,26,0
2,note_on,60,0,144
2,note_on,53,0,0
2,note_on,57,0,0
2,note_on,53,22,16
2,note_on,63,26,0
2,note_on,60,22,0
2,note_on,60,0,144
2,note_on,63,0,0
2,note_on,53,0,0
2,note_on,41,35,16
2,note_on,41,0,160
2,note_on,53,24,0
2,note_on,58,24,0
2,note_on,61,29,0
2,note_on,61,0,144
2,note_on,58,0,0
2,note_on,53,0,0
2,note_on,60,29,16
2,note_on,53,24,0
2,note_on,57,24,0
2,note_on,57,0,144
2,note_on,53,0,0
2,note_on,60,0,0
2,note_on,58,20,16
2,note_on,53,20,0
2,note_on,61,35,0
2,note_on,61,0,144
2,note_on,53,0,0
2,note_on,58,0,0
2,note_on,53,25,16
2,note_on,65,30,0
2,note_on,61,25,0
2,note_on,61,0,144
2,note_on,65,0,0
2,note_on,53,0,0
2,note_on,58,25,16
2,note_on,53,25,0
2,note_on,61,30,0
2,note_on,61,0,144
2,note_on,53,0,0
2,note_on,58,0,0
2,note_on,42,31,16
2,note_on,42,0,160
2,note_on,58,31,0
2,note_on,54,26,0
2,note_on,54,0,144
2,note_on,58,0,0
2,note_on,58,27,16
2,note_on,54,27,0
2,note_on,60,32,0
2,note_on,60,0,144
2,note_on,54,0,0
2,note_on,58,0,0
2,note_on,41,38,16
2,note_on,41,0,160
2,note_on,60,29,0
2,note_on,53,20,0
2,note_on,57,25,0
2,note_on,57,0,144
2,note_on,53,0,0
2,note_on,60,0,0
2,note_on,53,22,16
2,note_on,63,27,0
2,note_on,60,22,0
2,note_on,60,0,144
2,note_on,63,0,0
2,note_on,53,0,0
2,note_on,34,35,16
2,note_on,34,0,160
2,note_on,58,18,0
2,note_on,53,18,0
2,note_on,61,22,0
2,note_on,61,0,144
2,note_on,53,0,0
2,note_on,58,0,0
2,note_on,65,22,16
2,note_on,61,18,0
2,note_on,53,18,0
2,note_on,53,0,144
2,note_on,61,0,0
2,note_on,65,0,0
2,note_on,58,19,16
2,note_on,53,18,0
2,note_on,61,22,0
2,note_on,61,0,240
2,note_on,53,0,0
2,note_on,58,0,0
2,note_on,42,38,240
2,note_on,42,0,180
2,note_on,49,31,0
2,note_on,49,0,60
2,note_on,58,42,0
2,note_on,58,0,420
2,note_on,54,29,0
2,note_on,54,0,60
2,note_on,58,39,0
2,note_on,58,0,480
2,note_on,54,34,0
2,note_on,54,0,240
2,note_on,49,34,0
2,note_on,49,0,240
2,note_on,46,34,0
2,note_on,46,0,240
2,note_on,41,45,0
2,note_on,41,0,180
2,note_on,49,36,0
2,note_on,49,0,60
2,note_on,59,45,0
2,note_on,59,0,420
2,note_on,56,37,0
2,note_on,56,0,60
2,note_on,59,46,0
2,note_on,59,0,480
2,note_on,56,38,0
2,note_on,56,0,240
2,note_on,53,38,0
2,note_on,53,0,240
2,note_on,49,39,0
2,note_on,49,0,240
2,note_on,42,50,0
2,note_on,42,0,180
2,note_on,49,40,0
2,note_on,49,0,60
2,note_on,58,50,0
2,note_on,58,0,420
2,note_on,54,40,0
2,note_on,54,0,60
2,note_on,58,50,0
2,note_on,47,40,240
2,note_on,58,0,240
2,note_on,56,40,0
2,note_on,56,0,240
2,note_on,51,40,0
2,note_on,51,0,240
2,note_on,56,40,0
2,note_on,56,0,240
2,note_on,47,0,0
2,note_on,48,44,0
2,note_on,56,52,0
2,note_on,56,0,240
2,note_on,60,44,0
2,note_on,60,0,240
2,note_on,48,0,0
2,note_on,63,49,0
2,note_on,56,41,0
2,note_on,63,0,240
2,note_on,66,55,0
2,note_on,66,0,240
2,note_on,56,0,0
2,note_on,61,48,0
2,note_on,65,57,0
2,note_on,65,0,240
2,note_on,68,53,0
2,note_on,68,0,240
2,note_on,70,58,0
2,note_on,70,0,240
2,note_on,71,62,0
2,note_on,71,0,240
2,note_on,61,0,0
2,note_on,42,55,0
2,note_on,42,0,120
2,note_on,58,50,0
2,note_on,58,0,120
2,note_on,49,50,0
2,note_on,49,0,120
2,note_on,58,50,0
2,note_on,58,0,120
2,note_on,54,59,0
2,note_on,54,0,120
2,note_on,58,50,0
2,note_on,58,0,120
2,note_on,49,50,0
2,note_on,49,0,120
2,note_on,58,50,0
2,note_on,58,0,120
2,note_on,42,59,0
2,note_on,42,0,120
2,note_on,58,50,0
2,note_on,58,0,120
2,note_on,49,50,0
2,note_on,49,0,120
2,note_on,58,50,0
2,note_on,58,0,120
2,note_on,54,59,0
2,note_on,54,0,120
2,note_on,58,49,0
2,note_on,58,0,120
2,note_on,49,49,0
2,note_on,49,0,120
2,note_on,58,49,0
2,note_on,58,0,120
2,note_on,41,55,0
2,note_on,41,0,120
2,note_on,59,50,0
2,note_on,59,0,120
2,note_on,49,50,0
2,note_on,49,0,120
2,note_on,59,50,0
2,note_on,59,0,120
2,note_on,56,59,0
2,note_on,56,0,120
2,note_on,59,50,0
2,note_on,59,0,120
2,note_on,49,50,0
2,note_on,49,0,120
2,note_on,59,50,0
2,note_on,59,0,120
2,note_on,41,59,0
2,note_on,41,0,120
2,note_on,59,50,0
2,note_on,59,0,120
2,note_on,49,50,0
2,note_on,49,0,120
2,note_on,59,50,0
2,note_on,59,0,120
2,note_on,56,59,0
2,note_on,56,0,120
2,note_on,59,49,0
2,note_on,59,0,120
2,note_on,49,49,0
2,note_on,49,0,120
2,note_on,59,49,0
2,note_on,59,0,120
2,note_on,42,50,0
2,note_on,42,0,120
2,note_on,58,42,0
2,note_on,58,0,120
2,note_on,49,42,0
2,note_on,49,0,120
2,note_on,58,42,0
2,note_on,58,0,120
2,note_on,54,54,0
2,note_on,54,0,120
2,note_on,58,46,0
2,note_on,58,0,120
2,note_on,49,42,0
2,note_on,49,0,120
2,note_on,58,42,0
2,note_on,58,0,120
2,note_on,36,52,0
2,note_on,36,0,120
2,note_on,48,39,0
2,note_on,48,0,120
2,note_on,51,39,0
2,note_on,51,0,120
2,note_on,48,39,0
2,note_on,48,0,120
2,note_on,56,51,0
2,note_on,56,0,120
2,note_on,48,33,0
2,note_on,48,0,120
2,note_on,57,33,0
2,note_on,57,0,120
2,note_on,48,33,0
2,note_on,48,0,120
2,note_on,37,44,0
2,note_on,37,0,120
2,note_on,49,34,0
2,note_on,49,0,120
2,note_on,53,35,0
2,note_on,53,0,120
2,note_on,49,35,0
2,note_on,49,0,120
2,note_on,56,35,0
2,note_on,56,0,120
2,note_on,49,31,0
2,note_on,49,0,120
2,note_on,59,31,0
2,note_on,59,0,120
2,note_on,49,31,0
2,note_on,49,0,120
2,note_on,42,35,0
2,note_on,42,0,120
2,note_on,49,29,0
2,note_on,49,0,120
2,note_on,58,29,0
2,note_on,58,0,120
2,note_on,54,29,0
2,note_on,54,0,120
2,note_on,49,35,0
2,note_on,49,0,120
2,note_on,54,31,0
2,note_on,54,0,120
2,note_on,49,31,0
2,note_on,49,0,120
2,note_on,46,31,0
2,note_on,46,0,120
2,note_on,42,45,0
2,note_on,42,0,180
2,note_on,49,37,0
2,note_on,49,0,60
2,note_on,58,50,0
2,note_on,58,0,420
2,note_on,54,34,0
2,note_on,54,0,60
2,note_on,58,46,0
2,note_on,58,0,480
2,note_on,54,40,0
2,note_on,54,0,240
2,note_on,49,40,0
2,note_on,49,0,240
2,note_on,46,40,0
2,note_on,46,0,240
2,note_on,41,54,0
2,note_on,41,0,180
2,note_on,49,43,0
2,note_on,49,0,60
2,note_on,59,54,0
2,note_on,59,0,420
2,note_on,56,44,0
2,note_on,56,0,60
2,note_on,59,55,0
2,note_on,59,0,480
2,note_on,56,45,0
2,note_on,56,0,240
2,note_on,53,45,0
2,note_on,53,0,240
2,note_on,49,46,0
2,note_on,49,0,240
2,note_on,42,60,0
2,note_on,42,0,180
2,note_on,49,48,0
2,note_on,49,0,60
2,note_on,58,60,0
2,note_on,58,0,420
2,note_on,54,48,0
2,note_on,54,0,60
2,note_on,58,60,0
2,note_on,47,48,240
2,note_on,58,0,240
2,note_on,56,48,0
2,note_on,56,0,240
2,note_on,51,48,0
2,note_on,51,0,240
2,note_on,56,48,0
2,note_on,56,0,240
2,note_on,47,0,0
2,note_on,48,48,0
2,note_on,56,57,0
2,note_on,56,0,240
2,note_on,60,48,0
2,note_on,60,0,240
2,note_on,48,0,0
2,note_on,63,53,0
2,note_on,56,45,0
2,note_on,63,0,240
2,note_on,66,60,0
2,note_on,66,0,240
2,note_on,56,0,0
2,note_on,61,52,0
2,note_on,65,62,0
2,note_on,65,0,240
2,note_on,68,58,0
2,note_on,68,0,240
2,note_on,70,63,0
2,note_on,70,0,240
2,note_on,71,68,0
2,note_on,71,0,240
2,note_on,61,0,0
2,note_on,42,60,0
2,note_on,42,0,120
2,note_on,58,55,0
2,note_on,58,0,120
2,note_on,49,55,0
2,note_on,49,0,120
2,note_on,58,55,0
2,note_on,58,0,120
2,note_on,54,64,0
2,note_on,54,0,120
2,note_on,58,55,0
2,note_on,58,0,120
2,note_on,49,55,0
2,note_on,49,0,120
2,note_on,58,55,0
2,note_on,58,0,120
2,note_on,42,64,0
2,note_on,42,0,120
2,note_on,58,55,0
2,note_on,58,0,120
2,note_on,49,55,0
2,note_on,49,0,120
2,note_on,58,55,0
2,note_on,58,0,120
2,note_on,54,64,0
2,note_on,54,0,120
2,note_on,58,53,0
2,note_on,58,0,120
2,note_on,49,53,0
2,note_on,49,0,120
2,note_on,58,53,0
2,note_on,58,0,120
2,note_on,41,60,0
2,note_on,41,0,120
2,note_on,59,55,0
2,note_on,59,0,120
2,note_on,49,55,0
2,note_on,49,0,120
2,note_on,59,55,0
2,note_on,59,0,120
2,note_on,56,64,0
2,note_on,56,0,120
2,note_on,59,55,0
2,note_on,59,0,120
2,note_on,49,55,0
2,note_on,49,0,120
2,note_on,59,55,0
2,note_on,59,0,120
2,note_on,41,64,0
2,note_on,41,0,120
2,note_on,59,55,0
2,note_on,59,0,120
2,note_on,49,55,0
2,note_on,49,0,120
2,note_on,59,55,0
2,note_on,59,0,120
2,note_on,56,64,0
2,note_on,56,0,120
2,note_on,59,53,0
2,note_on,59,0,120
2,note_on,49,53,0
2,note_on,49,0,120
2,note_on,59,53,0
2,note_on,59,0,120
2,note_on,42,55,0
2,note_on,42,0,120
2,note_on,58,46,0
2,note_on,58,0,120
2,note_on,49,45,0
2,note_on,49,0,120
2,note_on,58,45,0
2,note_on,58,0,120
2,note_on,54,52,0
2,note_on,54,0,120
2,note_on,58,44,0
2,note_on,58,0,120
2,note_on,49,40,0
2,note_on,49,0,120
2,note_on,58,40,0
2,note_on,58,0,120
2,note_on,36,54,0
2,note_on,36,0,120
2,note_on,48,40,0
2,note_on,48,0,120
2,note_on,51,40,0
2,note_on,51,0,120
2,note_on,48,40,0
2,note_on,48,0,120
2,note_on,56,52,0
2,note_on,56,0,120
2,note_on,48,33,0
2,note_on,48,0,120
2,note_on,57,33,0
2,note_on,57,0,120
2,note_on,48,33,0
2,note_on,48,0,120
2,note_on,37,44,0
2,note_on,37,0,120
2,note_on,49,34,0
2,note_on,49,0,120
2,note_on,53,35,0
2,note_on,53,0,120
2,note_on,49,35,0
2,note_on,49,0,120
2,note_on,56,35,0
2,note_on,56,0,120
2,note_on,49,31,0
2,note_on,49,0,120
2,note_on,59,31,0
2,note_on,59,0,120
2,note_on,49,31,0
2,note_on,49,0,120
2,note_on,42,35,0
2,note_on,42,0,120
2,note_on,49,29,0
2,note_on,49,0,120
2,note_on,58,29,0
2,note_on,58,0,120
2,note_on,54,29,0
2,note_on,54,0,120
2,note_on,49,35,0
2,note_on,49,0,120
2,note_on,54,31,0
2,note_on,54,0,120
2,note_on,49,31,0
2,note_on,49,0,120
2,note_on,46,31,0
2,note_on,46,0,120
2,note_on,46,60,180
2,note_on,58,72,60
2,note_on,58,0,420
2,note_on,46,0,0
2,note_on,46,63,0
2,note_on,58,73,60
2,note_on,58,0,480
2,note_on,46,0,0
2,note_on,54,55,0
2,note_on,42,46,0
2,note_on,42,0,180
2,note_on,54,0,0
2,note_on,39,50,60
2,note_on,51,59,0
2,note_on,51,0,180
2,note_on,39,0,0
2,note_on,34,44,60
2,note_on,46,52,0
2,note_on,46,0,180
2,note_on,34,0,0
2,note_on,46,60,240
2,note_on,58,72,60
2,note_on,58,0,420
2,note_on,46,0,0
2,note_on,45,63,0
2,note_on,57,73,60
2,note_on,57,0,240
2,note_on,45,0,0
2,note_on,44,59,0
2,note_on,56,73,0
2,note_on,56,0,240
2,note_on,44,0,0
2,note_on,39,46,0
2,note_on,51,55,0
2,note_on,51,0,180
2,note_on,39,0,0
2,note_on,36,50,60
2,note_on,48,59,0
2,note_on,48,0,180
2,note_on,36,0,0
2,note_on,30,44,60
2,note_on,42,52,0
2,note_on,42,0,180
2,note_on,30,0,0
2,note_on,41,57,60
2,note_on,41,0,120
2,note_on,53,34,0
2,note_on,53,0,120
2,note_on,49,35,0
2,note_on,44,29,0
2,note_on,44,0,120
2,note_on,49,0,0
2,note_on,53,35,0
2,note_on,53,0,120
2,note_on,43,39,0
2,note_on,43,0,120
2,note_on,53,35,0
2,note_on,53,0,120
2,note_on,44,29,0
2,note_on,49,35,0
2,note_on,49,0,120
2,note_on,44,0,0
2,note_on,53,35,0
2,note_on,53,0,120
2,note_on,42,39,0
2,note_on,42,0,120
2,note_on,51,34,0
2,note_on,51,0,120
2,note_on,49,34,0
2,note_on,46,28,0
2,note_on,46,0,120
2,note_on,49,0,0
2,note_on,51,34,0
2,note_on,51,0,120
2,note_on,45,38,0
2,note_on,45,0,120
2,note_on,54,34,0
2,note_on,54,0,120
2,note_on,46,28,0
2,note_on,49,34,0
2,note_on,49,0,120
2,note_on,46,0,0
2,note_on,54,34,0
2,note_on,54,0,120
2,note_on,44,44,0
2,note_on,44,0,120
2,note_on,56,34,0
2,note_on,56,0,120
2,note_on,49,29,0
2,note_on,53,35,0
2,note_on,53,0,120
2,note_on,49,0,0
2,note_on,56,35,0
2,note_on,56,0,120
2,note_on,44,35,0
2,note_on,44,0,120
2,note_on,56,31,0
2,note_on,56,0,120
2,note_on,48,26,0
2,note_on,54,31,0
2,note_on,54,0,120
2,note_on,48,0,0
2,note_on,56,31,0
2,note_on,56,0,120
2,note_on,37,35,0
2,note_on,37,0,120
2,note_on,49,26,0
2,note_on,49,0,120
2,note_on,56,26,0
2,note_on,53,22,0
2,note_on,53,0,120
2,note_on,56,0,0
2,note_on,49,26,0
2,note_on,49,0,120
2,note_on,58,37,0
2,note_on,54,31,0
2,note_on,54,0,120
2,note_on,58,0,0
2,note_on,49,30,0
2,note_on,49,0,120
2,note_on,59,30,0
2,note_on,56,25,0
2,note_on,56,0,120
2,note_on,59,0,0
2,note_on,49,30,0
2,note_on,49,0,120
2,note_on,42,45,0
2,note_on,42,0,180
2,note_on,49,37,0
2,note_on,49,0,60
2,note_on,58,50,0
2,note_on,58,0,420
2,note_on,54,34,0
2,note_on,54,0,60
2,note_on,58,46,0
2,note_on,58,0,480
2,note_on,54,45,0
2,note_on,54,0,240
2,note_on,49,49,0
2,note_on,49,0,240
2,note_on,46,52,0
2,note_on,46,0,240
2,note_on,35,54,0
2,note_on,35,0,135
2,note_on,47,60,45
2,note_on,47,0,60
2,note_on,51,66,0
2,note_on,51,0,420
2,note_on,47,59,0
2,note_on,47,0,60
2,note_on,51,70,0
2,note_on,51,0,480
2,note_on,48,62,0
2,note_on,48,0,180
2,note_on,45,53,60
2,note_on,45,0,180
2,note_on,36,51,60
2,note_on,36,0,180
2,note_on,51,50,60
2,note_on,51,0,120
2,note_on,60,42,0
2,note_on,60,0,120
2,note_on,54,42,0
2,note_on,57,42,0
2,note_on,57,0,120
2,note_on,54,0,0
2,note_on,60,42,0
2,note_on,60,0,120
2,note_on,53,54,0
2,note_on,53,0,120
2,note_on,60,46,0
2,note_on,60,0,120
2,note_on,54,42,0
2,note_on,57,42,0
2,note_on,57,0,120
2,note_on,54,0,0
2,note_on,60,42,0
2,note_on,60,0,120
2,note_on,49,52,0
2,note_on,49,0,120
2,note_on,61,39,0
2,note_on,61,0,120
2,note_on,54,39,0
2,note_on,58,39,0
2,note_on,58,0,120
2,note_on,54,0,0
2,note_on,61,39,0
2,note_on,61,0,120
2,note_on,53,51,0
2,note_on,53,0,120
2,note_on,61,33,0
2,note_on,61,0,120
2,note_on,58,33,0
2,note_on,54,33,0
2,note_on,54,0,120
2,note_on,58,0,0
2,note_on,61,33,0
2,note_on,61,0,120
2,note_on,37,44,0
2,note_on,37,0,90
2,note_on,49,34,30
2,note_on,49,0,120
2,note_on,53,35,0
2,note_on,53,0,120
2,note_on,49,35,0
2,note_on,49,0,120
2,note_on,56,35,0
2,note_on,56,0,120
2,note_on,49,31,0
2,note_on,49,0,120
2,note_on,59,31,0
2,note_on,59,0,120
2,note_on,49,31,0
2,note_on,49,0,120
2,note_on,42,35,0
2,note_on,42,0,90
2,note_on,49,29,30
2,note_on,49,0,120
2,note_on,58,29,0
2,note_on,58,0,120
2,note_on,54,29,0
2,note_on,54,0,120
2,note_on,49,35,0
2,note_on,49,0,120
2,note_on,54,31,0
2,note_on,54,0,120
2,note_on,49,31,0
2,note_on,49,0,120
2,note_on,46,31,0
2,note_on,46,0,120
2,note_on,46,60,180
2,note_on,58,72,60
2,note_on,58,0,420
2,note_on,46,0,0
2,note_on,46,63,0
2,note_on,58,73,60
2,note_on,58,0,480
2,note_on,46,0,0
2,note_on,42,46,0
2,note_on,54,55,0
2,note_on,54,0,180
2,note_on,42,0,0
2,note_on,39,50,60
2,note_on,51,59,0
2,note_on,51,0,180
2,note_on,39,0,0
2,note_on,34,44,60
2,note_on,46,52,0
2,note_on,46,0,180
2,note_on,34,0,0
2,note_on,46,60,240
2,note_on,58,72,60
2,note_on,58,0,420
2,note_on,46,0,0
2,note_on,45,63,0
2,note_on,57,73,60
2,note_on,57,0,240
2,note_on,45,0,0
2,note_on,44,65,0
2,note_on,56,73,0
2,note_on,56,0,240
2,note_on,44,0,0
2,note_on,39,46,0
2,note_on,51,55,0
2,note_on,51,0,180
2,note_on,39,0,0
2,note_on,36,50,60
2,note_on,48,59,0
2,note_on,48,0,180
2,note_on,36,0,0
2,note_on,42,52,60
2,note_on,30,44,0
2,note_on,30,0,180
2,note_on,42,0,0
2,note_on,41,57,60
2,note_on,41,0,120
2,note_on,53,34,0
2,note_on,53,0,120
2,note_on,49,35,0
2,note_on,44,29,0
2,note_on,44,0,120
2,note_on,49,0,0
2,note_on,53,35,0
2,note_on,53,0,120
2,note_on,43,39,0
2,note_on,43,0,120
2,note_on,53,35,0
2,note_on,53,0,120
2,note_on,49,35,0
2,note_on,44,29,0
2,note_on,44,0,120
2,note_on,49,0,0
2,note_on,53,35,0
2,note_on,53,0,120
2,note_on,42,39,0
2,note_on,42,0,120
2,note_on,51,34,0
2,note_on,51,0,120
2,note_on,46,28,0
2,note_on,49,34,0
2,note_on,49,0,120
2,note_on,46,0,0
2,note_on,51,34,0
2,note_on,51,0,120
2,note_on,45,38,0
2,note_on,45,0,120
2,note_on,54,34,0
2,note_on,54,0,120
2,note_on,46,28,0
2,note_on,49,34,0
2,note_on,49,0,120
2,note_on,46,0,0
2,note_on,54,34,0
2,note_on,54,0,120
2,note_on,44,44,0
2,note_on,44,0,120
2,note_on,56,34,0
2,note_on,56,0,120
2,note_on,53,35,0
2,note_on,49,29,0
2,note_on,49,0,120
2,note_on,53,0,0
2,note_on,56,35,0
2,note_on,56,0,120
2,note_on,44,35,0
2,note_on,44,0,120
2,note_on,56,31,0
2,note_on,56,0,120
2,note_on,48,26,0
2,note_on,54,31,0
2,note_on,54,0,120
2,note_on,48,0,0
2,note_on,56,31,0
2,note_on,56,0,120
2,note_on,37,35,0
2,note_on,37,0,120
2,note_on,49,26,0
2,note_on,49,0,120
2,note_on,56,26,0
2,note_on,53,22,0
2,note_on,53,0,120
2,note_on,56,0,0
2,note_on,49,26,0
2,note_on,49,0,120
2,note_on,54,31,0
2,note_on,58,37,0
2,note_on,58,0,120
2,note_on,54,0,0
2,note_on,49,30,0
2,note_on,49,0,120
2,note_on,59,30,0
2,note_on,56,25,0
2,note_on,56,0,120
2,note_on,59,0,0
2,note_on,49,30,0
2,note_on,49,0,120
2,note_on,42,45,0
2,note_on,42,0,180
2,note_on,49,37,0
2,note_on,49,0,60
2,note_on,58,50,0
2,note_on,58,0,420
2,note_on,54,34,0
2,note_on,54,0,60
2,note_on,58,46,0
2,note_on,58,0,480
2,note_on,54,45,0
2,note_on,54,0,240
2,note_on,49,49,0
2,note_on,49,0,240
2,note_on,46,52,0
2,note_on,46,0,240
2,note_on,35,54,0
2,note_on,35,0,180
2,note_on,47,60,0
2,note_on,47,0,60
2,note_on,51,66,0
2,note_on,51,0,420
2,note_on,47,59,0
2,note_on,47,0,60
2,note_on,51,70,0
2,note_on,51,0,480
2,note_on,48,62,0
2,note_on,48,0,240
2,note_on,45,53,0
2,note_on,45,0,240
2,note_on,36,51,0
2,note_on,36,0,240
2,note_on,51,50,0
2,note_on,51,0,120
2,note_on,60,42,0
2,note_on,60,0,120
2,note_on,54,42,0
2,note_on,57,42,0
2,note_on,57,0,120
2,note_on,54,0,0
2,note_on,60,42,0
2,note_on,60,0,120
2,note_on,53,54,0
2,note_on,53,0,120
2,note_on,60,46,0
2,note_on,60,0,120
2,note_on,57,42,0
2,note_on,54,42,0
2,note_on,54,0,120
2,note_on,57,0,0
2,note_on,60,42,0
2,note_on,60,0,120
2,note_on,49,52,0
2,note_on,49,0,120
2,note_on,61,39,0
2,note_on,61,0,120
2,note_on,54,39,0
2,note_on,58,39,0
2,note_on,58,0,120
2,note_on,54,0,0
2,note_on,61,39,0
2,note_on,61,0,120
2,note_on,53,51,0
2,note_on,53,0,120
2,note_on,61,33,0
2,note_on,61,0,120
2,note_on,54,33,0
2,note_on,58,33,0
2,note_on,58,0,120
2,note_on,54,0,0
2,note_on,61,33,0
2,note_on,61,0,120
2,note_on,37,44,0
2,note_on,37,0,90
2,note_on,49,34,30
2,note_on,49,0,120
2,note_on,53,35,0
2,note_on,53,0,120
2,note_on,49,35,0
2,note_on,49,0,120
2,note_on,56,35,0
2,note_on,56,0,120
2,note_on,49,31,0
2,note_on,49,0,120
2,note_on,59,31,0
2,note_on,59,0,120
2,note_on,49,31,0
2,note_on,49,0,120
2,note_on,42,35,0
2,note_on,42,0,90
2,note_on,58,29,30
2,note_on,58,0,120
2,note_on,49,29,0
2,note_on,49,0,120
2,note_on,58,29,0
2,note_on,58,0,120
2,note_on,54,35,0
2,note_on,54,0,120
2,note_on,58,31,0
2,note_on,58,0,120
2,note_on,49,31,0
2,note_on,49,0,120
2,note_on,58,31,0
2,note_on,58,0,120
2,note_on,37,44,0
2,note_on,37,0,90
2,note_on,59,32,30
2,note_on,59,0,120
2,note_on,49,27,0
2,note_on,53,32,0
2,note_on,53,0,120
2,note_on,49,0,0
2,note_on,59,32,0
2,note_on,59,0,120
2,note_on,53,35,0
2,note_on,50,29,0
2,note_on,50,0,120
2,note_on,53,0,0
2,note_on,59,31,0
2,note_on,59,0,120
2,note_on,49,26,0
2,note_on,53,31,0
2,note_on,53,0,120
2,note_on,49,0,0
2,note_on,59,31,0
2,note_on,59,0,120
2,note_on,42,35,0
2,note_on,42,0,90
2,note_on,58,29,30
2,note_on,58,0,120
2,note_on,49,29,0
2,note_on,49,0,120
2,note_on,58,29,0
2,note_on,58,0,120
2,note_on,54,35,0
2,note_on,54,0,120
2,note_on,58,30,0
2,note_on,58,0,120
2,note_on,49,30,0
2,note_on,49,0,120
2,note_on,58,30,0
2,note_on,58,0,120
2,note_on,37,44,0
2,note_on,37,0,90
2,note_on,59,30,30
2,note_on,59,0,120
2,note_on,49,30,0
2,note_on,53,30,0
2,note_on,53,0,120
2,note_on,49,0,0
2,note_on,59,30,0
2,note_on,59,0,120
2,note_on,50,29,0
2,note_on,53,35,0
2,note_on,53,0,120
2,note_on,50,0,0
2,note_on,59,29,0
2,note_on,59,0,120
2,note_on,53,29,0
2,note_on,49,29,0
2,note_on,49,0,120
2,note_on,53,0,0
2,note_on,59,31,0
2,note_on,59,0,120
2,note_on,42,35,0
2,note_on,42,0,90
2,note_on,58,29,30
2,note_on,58,0,120
2,note_on,49,29,0
2,note_on,49,0,120
2,note_on,58,29,0
2,note_on,58,0,120
2,note_on,54,35,0
2,note_on,54,0,120
2,note_on,58,29,0
2,note_on,58,0,120
2,note_on,49,29,0
2,note_on,49,0,120
2,note_on,58,29,0
2,note_on,58,0,120
2,note_on,42,35,0
2,note_on,42,0,90
2,note_on,58,28,30
2,note_on,58,0,120
2,note_on,49,28,0
2,note_on,49,0,120
2,note_on,58,28,0
2,note_on,58,0,120
2,note_on,54,35,0
2,note_on,54,0,120
2,note_on,58,31,0
2,note_on,58,0,120
2,note_on,49,31,0
2,note_on,49,0,120
2,note_on,58,31,0
2,note_on,58,0,120
2,note_on,42,40,0
2,note_on,42,0,90
2,note_on,58,36,30
2,note_on,58,0,120
2,note_on,49,36,0
2,note_on,49,0,120
2,note_on,58,36,0
2,note_on,58,0,120
2,note_on,54,35,0
2,note_on,54,0,120
2,note_on,58,31,0
2,note_on,58,0,120
2,note_on,49,31,0
2,note_on,49,0,120
2,note_on,58,31,0
2,note_on,58,0,120
2,note_on,41,35,0
2,note_on,41,0,90
2,note_on,58,28,30
2,note_on,58,0,120
2,note_on,50,28,0
2,note_on,50,0,120
2,note_on,58,28,0
2,note_on,58,0,120
2,note_on,53,35,0
2,note_on,53,0,120
2,note_on,58,31,0
2,note_on,58,0,120
2,note_on,50,31,0
2,note_on,50,0,120
2,note_on,58,31,0
2,note_on,58,0,120
2,note_on,41,40,0
2,note_on,41,0,90
2,note_on,58,36,30
2,note_on,58,0,120
2,note_on,50,36,0
2,note_on,50,0,120
2,note_on,58,36,0
2,note_on,58,0,120
2,note_on,53,35,0
2,note_on,53,0,120
2,note_on,58,29,0
2,note_on,58,0,120
2,note_on,50,29,0
2,note_on,50,0,120
2,note_on,58,29,0
2,note_on,58,0,120
2,note_on,41,35,0
2,note_on,41,0,90
2,note_on,57,28,30
2,note_on,57,0,120
2,note_on,51,28,0
2,note_on,51,0,120
2,note_on,57,28,0
2,note_on,57,0,120
2,note_on,53,35,0
2,note_on,53,0,120
2,note_on,57,29,0
2,note_on,57,0,120
2,note_on,51,29,0
2,note_on,51,0,120
2,note_on,57,29,0
2,note_on,57,0,120
2,note_on,41,36,0
2,note_on,41,0,90
2,note_on,57,30,30
2,note_on,57,0,120
2,note_on,51,30,0
2,note_on,51,0,120
2,note_on,57,26,0
2,note_on,57,0,120
2,note_on,53,33,0
2,note_on,57,23,120
2,note_on,51,23,120
2,note_on,51,0,120
2,note_on,57,0,0
2,note_on,53,0,0
2,note_on,46,40,120
2,note_on,46,0,120
2,note_on,62,34,120
2,note_on,58,28,0
2,note_on,53,28,0
2,note_on,53,0,480
2,note_on,58,0,0
2,note_on,62,0,0
2,note_on,53,28,0
2,note_on,58,28,0
2,note_on,62,34,0
2,note_on,62,0,240
2,note_on,58,0,0
2,note_on,53,0,0
2,note_on,50,40,0
2,note_on,50,0,120
2,note_on,53,24,120
2,note_on,58,24,0
2,note_on,65,29,0
2,note_on,65,0,480
2,note_on,58,0,0
2,note_on,53,0,0
2,note_on,53,24,0
2,note_on,58,24,0
2,note_on,65,29,0
2,note_on,65,0,240
2,note_on,58,0,0
2,note_on,53,0,0
2,note_on,48,40,0
2,note_on,48,0,120
2,note_on,63,34,120
2,note_on,57,28,0
2,note_on,53,28,0
2,note_on,53,0,480
2,note_on,57,0,0
2,note_on,63,0,0
2,note_on,53,28,0
2,note_on,57,28,0
2,note_on,63,34,0
2,note_on,63,0,240
2,note_on,57,0,0
2,note_on,53,0,0
2,note_on,41,40,0
2,note_on,41,0,120
2,note_on,53,24,120
2,note_on,57,24,0
2,note_on,60,29,0
2,note_on,60,0,480
2,note_on,57,0,0
2,note_on,53,0,0
2,note_on,53,24,0
2,note_on,57,24,0
2,note_on,60,29,0
2,note_on,60,0,240
2,note_on,57,0,0
2,note_on,53,0,0
2,note_on,46,40,0
2,note_on,46,0,120
2,note_on,62,34,120
2,note_on,58,28,0
2,note_on,53,28,0
2,note_on,53,0,480
2,note_on,58,0,0
2,note_on,62,0,0
2,note_on,53,28,0
2,note_on,58,28,0
2,note_on,62,34,0
2,note_on,62,0,240
2,note_on,58,0,0
2,note_on,53,0,0
2,note_on,39,40,0
2,note_on,39,0,120
2,note_on,58,24,120
2,note_on,51,24,0
2,note_on,55,24,0
2,note_on,60,29,0
2,note_on,60,0,480
2,note_on,58,0,0
2,note_on,51,0,0
2,note_on,55,0,0
2,note_on,58,24,0
2,note_on,51,24,0
2,note_on,55,24,0
2,note_on,60,29,0
2,note_on,60,0,240
2,note_on,58,0,0
2,note_on,51,0,0
2,note_on,55,0,0
2,note_on,40,40,0
2,note_on,40,0,120
2,note_on,58,28,120
2,note_on,60,34,0
2,note_on,55,28,0
2,note_on,52,28,0
2,note_on,52,0,480
2,note_on,58,0,0
2,note_on,60,0,0
2,note_on,55,0,0
2,note_on,48,34,0
2,note_on,48,0,240
2,note_on,41,40,0
2,note_on,41,0,120
2,note_on,53,31,120
2,note_on,60,31,0
2,note_on,57,31,0
2,note_on,57,0,240
2,note_on,60,0,0
2,note_on,62,31,0
2,note_on,58,31,0
2,note_on,58,0,240
2,note_on,62,0,0
2,note_on,57,31,0
2,note_on,63,31,0
2,note_on,63,0,240
2,note_on,57,0,0
2,note_on,53,0,0
2,note_on,46,40,0
2,note_on,46,0,120
2,note_on,62,34,120
2,note_on,58,28,0
2,note_on,53,28,0
2,note_on,53,0,480
2,note_on,58,0,0
2,note_on,62,0,0
2,note_on,53,28,0
2,note_on,58,28,0
2,note_on,62,34,0
2,note_on,62,0,240
2,note_on,58,0,0
2,note_on,53,0,0
2,note_on,50,40,0
2,note_on,50,0,120
2,note_on,53,24,120
2,note_on,58,24,0
2,note_on,65,29,0
2,note_on,65,0,480
2,note_on,58,0,0
2,note_on,53,0,0
2,note_on,53,24,0
2,note_on,58,24,0
2,note_on,65,29,0
2,note_on,65,0,240
2,note_on,58,0,0
2,note_on,53,0,0
2,note_on,48,40,0
2,note_on,48,0,120
2,note_on,63,34,120
2,note_on,57,28,0
2,note_on,53,28,0
2,note_on,53,0,480
2,note_on,57,0,0
2,note_on,63,0,0
2,note_on,53,28,0
2,note_on,57,28,0
2,note_on,63,34,0
2,note_on,63,0,240
2,note_on,57,0,0
2,note_on,53,0,0
2,note_on,41,40,0
2,note_on,41,0,120
2,note_on,57,24,120
2,note_on,53,24,0
2,note_on,60,29,0
2,note_on,60,0,480
2,note_on,53,0,0
2,note_on,57,0,0
2,note_on,60,29,0
2,note_on,53,24,0
2,note_on,57,24,0
2,note_on,57,0,240
2,note_on,53,0,0
2,note_on,60,0,0
2,note_on,46,40,0
2,note_on,46,0,120
2,note_on,62,34,120
2,note_on,58,28,0
2,note_on,53,28,0
2,note_on,53,0,480
2,note_on,58,0,0
2,note_on,62,0,0
2,note_on,53,28,0
2,note_on,58,28,0
2,note_on,62,34,0
2,note_on,62,0,240
2,note_on,58,0,0
2,note_on,53,0,0
2,note_on,52,40,0
2,note_on,52,0,120
2,note_on,61,24,120
2,note_on,58,24,0
2,note_on,67,29,0
2,note_on,67,0,480
2,note_on,58,0,0
2,note_on,61,0,0
2,note_on,58,24,0
2,note_on,55,24,0
2,note_on,61,29,0
2,note_on,61,0,240
2,note_on,55,0,0
2,note_on,58,0,0
2,note_on,41,40,0
2,note_on,41,0,120
2,note_on,58,31,120
2,note_on,53,31,0
2,note_on,60,31,0
2,note_on,58,0,240
2,note_on,57,31,0
2,note_on,57,0,240
2,note_on,60,0,0
2,note_on,63,31,0
2,note_on,60,31,0
2,note_on,60,0,240
2,note_on,63,0,0
2,note_on,53,0,0
2,note_on,46,40,0
2,note_on,46,0,120
2,note_on,62,31,120
2,note_on,58,31,0
2,note_on,58,0,720
2,note_on,62,0,0
2,note_on,46,40,0
2,note_on,46,0,120
2,note_on,62,34,120
2,note_on,58,28,0
2,note_on,53,28,0
2,note_on,53,0,480
2,note_on,58,0,0
2,note_on,62,0,0
2,note_on,53,28,0
2,note_on,58,28,0
2,note_on,62,34,0
2,note_on,62,0,240
2,note_on,58,0,0
2,note_on,53,0,0
2,note_on,50,40,0
2,note_on,50,0,120
2,note_on,53,24,120
2,note_on,58,24,0
2,note_on,65,29,0
2,note_on,65,0,480
2,note_on,58,0,0
2,note_on,53,0,0
2,note_on,53,24,0
2,note_on,58,24,0
2,note_on,65,29,0
2,note_on,65,0,240
2,note_on,58,0,0
2,note_on,53,0,0
2,note_on,48,40,0
2,note_on,48,0,120
2,note_on,63,34,120
2,note_on,57,28,0
2,note_on,53,28,0
2,note_on,53,0,480
2,note_on,57,0,0
2,note_on,63,0,0
2,note_on,63,34,0
2,note_on,53,28,0
2,note_on,57,28,0
2,note_on,57,0,240
2,note_on,53,0,0
2,note_on,63,0,0
2,note_on,41,40,0
2,note_on,41,0,120
2,note_on,60,29,120
2,note_on,53,24,0
2,note_on,57,24,0
2,note_on,57,0,480
2,note_on,53,0,0
2,note_on,60,0,0
2,note_on,57,24,0
2,note_on,60,29,0
2,note_on,53,24,0
2,note_on,53,0,240
2,note_on,60,0,0
2,note_on,57,0,0
2,note_on,46,40,0
2,note_on,46,0,120
2,note_on,62,34,120
2,note_on,53,28,0
2,note_on,58,28,0
2,note_on,58,0,480
2,note_on,53,0,0
2,note_on,62,0,0
2,note_on,53,28,0
2,note_on,58,28,0
2,note_on,62,34,0
2,note_on,62,0,240
2,note_on,58,0,0
2,note_on,53,0,0
2,note_on,39,40,0
2,note_on,39,0,120
2,note_on,51,24,120
2,note_on,58,24,0
2,note_on,55,24,0
2,note_on,60,29,0
2,note_on,60,0,480
2,note_on,51,0,0
2,note_on,58,0,0
2,note_on,55,0,0
2,note_on,51,24,0
2,note_on,55,24,0
2,note_on,58,24,0
2,note_on,60,29,0
2,note_on,60,0,240
2,note_on,51,0,0
2,note_on,55,0,0
2,note_on,58,0,0
2,note_on,40,40,0
2,note_on,40,0,120
2,note_on,60,34,120
2,note_on,58,28,0
2,note_on,52,28,0
2,note_on,55,28,0
2,note_on,55,0,480
2,note_on,60,0,0
2,note_on,58,0,0
2,note_on,52,0,0
2,note_on,48,34,0
2,note_on,48,0,240
2,note_on,41,40,0
2,note_on,41,0,120
2,note_on,53,31,120
2,note_on,57,31,0
2,note_on,60,31,0
2,note_on,60,0,240
2,note_on,57,0,0
2,note_on,58,31,0
2,note_on,62,31,0
2,note_on,62,0,240
2,note_on,58,0,0
2,note_on,63,31,0
2,note_on,57,31,0
2,note_on,57,0,240
2,note_on,63,0,0
2,note_on,53,0,0
2,note_on,46,40,0
2,note_on,46,0,120
2,note_on,62,34,120
2,note_on,58,28,0
2,note_on,53,28,0
2,note_on,53,0,480
2,note_on,58,0,0
2,note_on,62,0,0
2,note_on,53,28,0
2,note_on,58,28,0
2,note_on,62,34,0
2,note_on,62,0,240
2,note_on,58,0,0
2,note_on,53,0,0
2,note_on,50,40,0
2,note_on,50,0,120
2,note_on,58,24,120
2,note_on,53,24,0
2,note_on,65,29,0
2,note_on,65,0,480
2,note_on,53,0,0
2,note_on,58,0,0
2,note_on,58,24,0
2,note_on,53,24,0
2,note_on,65,29,0
2,note_on,65,0,240
2,note_on,53,0,0
2,note_on,58,0,0
2,note_on,48,40,0
2,note_on,48,0,120
2,note_on,57,28,120
2,note_on,53,28,0
2,note_on,63,34,0
2,note_on,63,0,480
2,note_on,53,0,0
2,note_on,57,0,0
2,note_on,57,28,0
2,note_on,53,28,0
2,note_on,63,34,0
2,note_on,63,0,240
2,note_on,53,0,0
2,note_on,57,0,0
2,note_on,41,40,0
2,note_on,41,0,120
2,note_on,57,24,120
2,note_on,53,24,0
2,note_on,60,29,0
2,note_on,60,0,480
2,note_on,53,0,0
2,note_on,57,0,0
2,note_on,57,24,0
2,note_on,60,29,0
2,note_on,53,24,0
2,note_on,53,0,240
2,note_on,60,0,0
2,note_on,57,0,0
2,note_on,46,40,0
2,note_on,46,0,120
2,note_on,58,28,120
2,note_on,62,34,0
2,note_on,53,28,0
2,note_on,53,0,480
2,note_on,62,0,0
2,note_on,58,0,0
2,note_on,53,28,0
2,note_on,58,28,0
2,note_on,62,34,0
2,note_on,62,0,240
2,note_on,58,0,0
2,note_on,53,0,0
2,note_on,52,40,0
2,note_on,52,0,120
2,note_on,61,24,120
2,note_on,58,24,0
2,note_on,67,29,0
2,note_on,67,0,480
2,note_on,58,0,0
2,note_on,61,0,0
2,note_on,58,24,0
2,note_on,55,24,0
2,note_on,61,29,0
2,note_on,61,0,240
2,note_on,55,0,0
2,note_on,58,0,0
2,note_on,41,40,0
2,note_on,41,0,120
2,note_on,58,31,120
2,note_on,53,31,0
2,note_on,60,31,0
2,note_on,58,0,240
2,note_on,57,31,0
2,note_on,57,0,240
2,note_on,60,0,0
2,note_on,60,31,0
2,note_on,63,31,0
2,note_on,63,0,240
2,note_on,60,0,0
2,note_on,53,0,0
2,note_on,46,40,0
2,note_on,46,0,120
2,note_on,58,31,120
2,note_on,62,31,0
2,note_on,62,0,720
2,note_on,58,0,0
2,note_on,38,51,0
2,note_on,38,0,80
2,note_on,40,48,0
2,note_on,40,0,80
2,note_on,42,46,0
2,note_on,42,0,80
2,note_on,43,53,0
2,note_on,43,0,80
2,note_on,45,54,0
2,note_on,45,0,80
2,note_on,46,49,0
2,note_on,46,0,80
2,note_on,48,55,0
2,note_on,48,0,80
2,note_on,50,52,0
2,note_on,50,0,80
2,note_on,52,53,0
2,note_on,52,0,80
2,note_on,54,57,0
2,note_on,54,0,80
2,note_on,55,54,0
2,note_on,55,0,80
2,note_on,57,54,0
2,note_on,57,0,80
2,note_on,58,63,0
2,note_on,58,0,80
2,note_on,62,54,0
2,note_on,62,0,80
2,note_on,58,54,0
2,note_on,58,0,80
2,note_on,55,62,0
2,note_on,55,0,80
2,note_on,58,53,0
2,note_on,58,0,80
2,note_on,55,53,0
2,note_on,55,0,80
2,note_on,50,65,0
2,note_on,50,0,80
2,note_on,55,53,0
2,note_on,55,0,80
2,note_on,50,53,0
2,note_on,50,0,80
2,note_on,46,65,0
2,note_on,46,0,80
2,note_on,50,51,0
2,note_on,50,0,80
2,note_on,46,51,0
2,note_on,46,0,80
2,note_on,43,51,0
2,note_on,43,0,80
2,note_on,45,48,0
2,note_on,45,0,80
2,note_on,46,46,0
2,note_on,46,0,80
2,note_on,48,53,0
2,note_on,48,0,80
2,note_on,50,54,0
2,note_on,50,0,80
2,note_on,52,49,0
2,note_on,52,0,80
2,note_on,54,55,0
2,note_on,54,0,80
2,note_on,55,52,0
2,note_on,55,0,80
2,note_on,56,53,0
2,note_on,56,0,80
2,note_on,57,57,0
2,note_on,57,0,80
2,note_on,58,54,0
2,note_on,58,0,80
2,note_on,59,54,0
2,note_on,59,0,80
2,note_on,60,63,0
2,note_on,60,0,80
2,note_on,64,54,0
2,note_on,64,0,80
2,note_on,60,54,0
2,note_on,60,0,80
2,note_on,55,62,0
2,note_on,55,0,80
2,note_on,60,53,0
2,note_on,60,0,80
2,note_on,55,53,0
2,note_on,55,0,80
2,note_on,52,65,0
2,note_on,52,0,80
2,note_on,55,53,0
2,note_on,55,0,80
2,note_on,52,53,0
2,note_on,52,0,80
2,note_on,48,65,0
2,note_on,48,0,240
2,note_on,45,51,0
2,note_on,45,0,80
2,note_on,48,41,0
2,note_on,48,0,80
2,note_on,53,44,0
2,note_on,53,0,80
2,note_on,57,47,0
2,note_on,57,0,80
2,note_on,60,50,0
2,note_on,60,0,80
2,note_on,65,53,0
2,note_on,65,0,80
2,note_on,69,56,0
2,note_on,69,0,240
2,note_on,46,51,240
2,note_on,46,0,80
2,note_on,50,41,0
2,note_on,50,0,80
2,note_on,55,44,0
2,note_on,55,0,80
2,note_on,58,47,0
2,note_on,58,0,80
2,note_on,62,50,0
2,note_on,62,0,80
2,note_on,67,53,0
2,note_on,67,0,80
2,note_on,70,56,0
2,note_on,70,0,240
2,note_on,48,59,240
2,note_on,48,0,120
2,note_on,65,40,120
2,note_on,60,34,0
2,note_on,57,34,0
2,note_on,57,0,120
2,note_on,60,0,0
2,note_on,65,0,0
2,note_on,48,46,120
2,note_on,48,0,120
2,note_on,64,42,120
2,note_on,60,35,0
2,note_on,58,35,0
2,note_on,58,0,120
2,note_on,60,0,0
2,note_on,64,0,0
2,note_on,41,40,120
2,note_on,41,0,120
2,note_on,53,31,120
2,note_on,60,31,0
2,note_on,57,31,0
2,note_on,57,0,240
2,note_on,60,0,0
2,note_on,62,31,0
2,note_on,58,31,0
2,note_on,58,0,240
2,note_on,62,0,0
2,note_on,57,31,0
2,note_on,63,31,0
2,note_on,63,0,240
2,note_on,57,0,0
2,note_on,53,0,0
2,note_on,46,40,0
2,note_on,46,0,120
2,note_on,62,34,120
2,note_on,58,28,0
2,note_on,53,28,0
2,note_on,53,0,480
2,note_on,58,0,0
2,note_on,62,0,0
2,note_on,53,28,0
2,note_on,58,28,0
2,note_on,62,34,0
2,note_on,62,0,240
2,note_on,58,0,0
2,note_on,53,0,0
2,note_on,50,40,0
2,note_on,50,0,120
2,note_on,56,24,120
2,note_on,58,24,0
2,note_on,65,29,0
2,note_on,65,0,480
2,note_on,58,0,0
2,note_on,56,0,0
2,note_on,56,24,0
2,note_on,58,24,0
2,note_on,65,29,0
2,note_on,65,0,240
2,note_on,58,0,0
2,note_on,56,0,0
2,note_on,51,40,0
2,note_on,51,0,120
2,note_on,63,34,120
2,note_on,58,28,0
2,note_on,55,28,0
2,note_on,55,0,480
2,note_on,58,0,0
2,note_on,63,0,0
2,note_on,55,28,0
2,note_on,58,28,0
2,note_on,63,34,0
2,note_on,63,0,240
2,note_on,58,0,0
2,note_on,55,0,0
2,note_on,52,40,0
2,note_on,52,0,120
2,note_on,58,24,120
2,note_on,61,24,0
2,note_on,67,29,0
2,note_on,67,0,480
2,note_on,61,0,0
2,note_on,58,0,0
2,note_on,58,24,0
2,note_on,61,24,0
2,note_on,67,29,0
2,note_on,67,0,240
2,note_on,61,0,0
2,note_on,58,0,0
2,note_on,55,40,0
2,note_on,55,0,120
2,note_on,64,34,120
2,note_on,60,28,0
2,note_on,58,28,0
2,note_on,58,0,480
2,note_on,60,0,0
2,note_on,64,0,0
2,note_on,64,34,0
2,note_on,58,28,0
2,note_on,60,28,0
2,note_on,60,0,240
2,note_on,58,0,0
2,note_on,64,0,0
2,note_on,53,40,0
2,note_on,53,0,120
2,note_on,62,24,120
2,note_on,58,24,0
2,note_on,65,29,0
2,note_on,65,0,480
2,note_on,58,0,0
2,note_on,62,0,0
2,note_on,62,24,0
2,note_on,58,24,0
2,note_on,65,29,0
2,note_on,65,0,240
2,note_on,58,0,0
2,note_on,62,0,0
2,note_on,41,40,0
2,note_on,41,0,120
2,note_on,57,31,120
2,note_on,53,31,0
2,note_on,63,31,0
2,note_on,63,0,480
2,note_on,53,0,0
2,note_on,57,0,0
2,note_on,53,31,0
2,note_on,57,31,0
2,note_on,63,31,0
2,note_on,63,0,240
2,note_on,57,0,0
2,note_on,53,0,0
2,note_on,46,40,0
2,note_on,46,0,120
2,note_on,58,31,120
2,note_on,62,31,0
2,note_on,62,0,720
2,note_on,58,0,0
2,note_on,38,51,0
2,note_on,38,0,80
2,note_on,40,48,0
2,note_on,40,0,80
2,note_on,42,46,0
2,note_on,42,0,80
2,note_on,43,53,0
2,note_on,43,0,80
2,note_on,45,54,0
2,note_on,45,0,80
2,note_on,46,49,0
2,note_on,46,0,80
2,note_on,48,55,0
2,note_on,48,0,80
2,note_on,50,52,0
2,note_on,50,0,80
2,note_on,52,53,0
2,note_on,52,0,80
2,note_on,54,57,0
2,note_on,54,0,80
2,note_on,55,54,0
2,note_on,55,0,80
2,note_on,57,54,0
2,note_on,57,0,80
2,note_on,58,63,0
2,note_on,58,0,80
2,note_on,62,54,0
2,note_on,62,0,80
2,note_on,58,54,0
2,note_on,58,0,80
2,note_on,55,62,0
2,note_on,55,0,80
2,note_on,58,53,0
2,note_on,58,0,80
2,note_on,55,53,0
2,note_on,55,0,80
2,note_on,50,65,0
2,note_on,50,0,80
2,note_on,55,53,0
2,note_on,55,0,80
2,note_on,50,53,0
2,note_on,50,0,80
2,note_on,46,65,0
2,note_on,46,0,80
2,note_on,50,51,0
2,note_on,50,0,80
2,note_on,46,51,0
2,note_on,46,0,80
2,note_on,43,51,0
2,note_on,43,0,80
2,note_on,45,48,0
2,note_on,45,0,80
2,note_on,46,46,0
2,note_on,46,0,80
2,note_on,48,53,0
2,note_on,48,0,80
2,note_on,50,54,0
2,note_on,50,0,80
2,note_on,52,49,0
2,note_on,52,0,80
2,note_on,54,55,0
2,note_on,54,0,80
2,note_on,55,52,0
2,note_on,55,0,80
2,note_on,56,53,0
2,note_on,56,0,80
2,note_on,57,57,0
2,note_on,57,0,80
2,note_on,58,54,0
2,note_on,58,0,80
2,note_on,59,54,0
2,note_on,59,0,80
2,note_on,60,63,0
2,note_on,60,0,80
2,note_on,64,54,0
2,note_on,64,0,80
2,note_on,60,54,0
2,note_on,60,0,80
2,note_on,55,62,0
2,note_on,55,0,80
2,note_on,60,53,0
2,note_on,60,0,80
2,note_on,55,53,0
2,note_on,55,0,80
2,note_on,52,65,0
2,note_on,52,0,80
2,note_on,55,53,0
2,note_on,55,0,80
2,note_on,52,53,0
2,note_on,52,0,80
2,note_on,48,65,0
2,note_on,48,0,240
2,note_on,45,51,0
2,note_on,45,0,80
2,note_on,48,41,0
2,note_on,48,0,80
2,note_on,53,44,0
2,note_on,53,0,80
2,note_on,57,47,0
2,note_on,57,0,80
2,note_on,60,50,0
2,note_on,60,0,80
2,note_on,65,53,0
2,note_on,65,0,80
2,note_on,69,56,0
2,note_on,69,0,240
2,note_on,46,51,240
2,note_on,46,0,80
2,note_on,50,41,0
2,note_on,50,0,80
2,note_on,55,44,0
2,note_on,55,0,80
2,note_on,58,47,0
2,note_on,58,0,80
2,note_on,62,50,0
2,note_on,62,0,80
2,note_on,67,53,0
2,note_on,67,0,80
2,note_on,70,56,0
2,note_on,70,0,240
2,note_on,48,59,240
2,note_on,48,0,120
2,note_on,65,40,120
2,note_on,60,34,0
2,note_on,57,34,0
2,note_on,57,0,120
2,note_on,60,0,0
2,note_on,65,0,0
2,note_on,48,46,120
2,note_on,48,0,120
2,note_on,64,42,120
2,note_on,60,35,0
2,note_on,58,35,0
2,note_on,58,0,120
2,note_on,60,0,0
2,note_on,64,0,0
2,note_on,41,40,120
2,note_on,41,0,120
2,note_on,53,31,120
2,note_on,60,31,0
2,note_on,57,31,0
2,note_on,57,0,240
2,note_on,60,0,0
2,note_on,62,31,0
2,note_on,58,31,0
2,note_on,58,0,240
2,note_on,62,0,0
2,note_on,57,31,0
2,note_on,63,31,0
2,note_on,63,0,240
2,note_on,57,0,0
2,note_on,53,0,0
2,note_on,46,40,0
2,note_on,46,0,120
2,note_on,53,28,120
2,note_on,62,34,0
2,note_on,58,28,0
2,note_on,58,0,480
2,note_on,62,0,0
2,note_on,53,0,0
2,note_on,53,28,0
2,note_on,58,28,0
2,note_on,62,34,0
2,note_on,62,0,240
2,note_on,58,0,0
2,note_on,53,0,0
2,note_on,50,40,0
2,note_on,50,0,120
2,note_on,56,24,120
2,note_on,58,24,0
2,note_on,65,29,0
2,note_on,65,0,480
2,note_on,58,0,0
2,note_on,56,0,0
2,note_on,56,24,0
2,note_on,58,24,0
2,note_on,65,29,0
2,note_on,65,0,240
2,note_on,58,0,0
2,note_on,56,0,0
2,note_on,51,40,0
2,note_on,51,0,120
2,note_on,63,34,120
2,note_on,58,28,0
2,note_on,55,28,0
2,note_on,55,0,480
2,note_on,58,0,0
2,note_on,63,0,0
2,note_on,55,28,0
2,note_on,58,28,0
2,note_on,63,34,0
2,note_on,63,0,240
2,note_on,58,0,0
2,note_on,55,0,0
2,note_on,52,40,0
2,note_on,52,0,120
2,note_on,58,24,120
2,note_on,61,24,0
2,note_on,67,29,0
2,note_on,67,0,480
2,note_on,61,0,0
2,note_on,58,0,0
2,note_on,58,24,0
2,note_on,61,24,0
2,note_on,67,29,0
2,note_on,67,0,240
2,note_on,61,0,0
2,note_on,58,0,0
2,note_on,55,40,0
2,note_on,55,0,120
2,note_on,60,28,120
2,note_on,64,34,0
2,note_on,58,28,0
2,note_on,58,0,480
2,note_on,64,0,0
2,note_on,60,0,0
2,note_on,58,28,0
2,note_on,60,28,0
2,note_on,64,34,0
2,note_on,64,0,240
2,note_on,60,0,0
2,note_on,58,0,0
2,note_on,53,40,0
2,note_on,53,0,120
2,note_on,62,24,120
2,note_on,58,24,0
2,note_on,65,29,0
2,note_on,65,0,480
2,note_on,58,0,0
2,note_on,62,0,0
2,note_on,62,24,0
2,note_on,58,24,0
2,note_on,65,29,0
2,note_on,65,0,240
2,note_on,58,0,0
2,note_on,62,0,0
2,note_on,41,40,0
2,note_on,41,0,120
2,note_on,57,31,120
2,note_on,53,31,0
2,note_on,63,31,0
2,note_on,63,0,480
2,note_on,53,0,0
2,note_on,57,0,0
2,note_on,53,31,0
2,note_on,57,31,0
2,note_on,63,31,0
2,note_on,63,0,240
2,note_on,57,0,0
2,note_on,53,0,0
2,note_on,41,40,0
2,note_on,41,0,120
2,note_on,62,31,120
2,note_on,53,31,0
2,note_on,58,31,0
2,note_on,58,0,480
2,note_on,53,0,0
2,note_on,62,0,0
2,note_on,53,31,0
2,note_on,58,31,0
2,note_on,62,31,0
2,note_on,62,0,240
2,note_on,58,0,0
2,note_on,53,0,0
2,note_on,41,34,0
2,note_on,41,0,120
2,note_on,53,26,120
2,note_on,51,26,0
2,note_on,57,26,0
2,note_on,57,0,480
2,note_on,51,0,0
2,note_on,53,0,0
2,note_on,51,26,0
2,note_on,53,26,0
2,note_on,57,26,0
2,note_on,57,0,240
2,note_on,53,0,0
2,note_on,51,0,0
2,note_on,41,34,0
2,note_on,41,0,120
2,note_on,50,26,120
2,note_on,53,26,0
2,note_on,58,26,0
2,note_on,58,0,480
2,note_on,53,0,0
2,note_on,50,0,0
2,note_on,50,26,0
2,note_on,53,26,0
2,note_on,58,26,0
2,note_on,58,0,240
2,note_on,53,0,0
2,note_on,50,0,0
2,note_on,29,28,0
2,note_on,29,0,120
2,note_on,48,22,120
2,note_on,41,22,0
2,note_on,51,22,0
2,note_on,51,0,480
2,note_on,41,0,0
2,note_on,48,0,0
2,note_on,41,30,960
2,note_on,41,0,240
2,note_on,34,31,0
2,note_on,41,31,0
2,note_on,46,37,0
2,note_on,46,0,432
2,note_on,41,0,0
2,note_on,34,0,0
2,note_on,34,29,48
2,note_on,41,29,0
2,note_on,46,35,0
2,note_on,46,0,216
2,note_on,41,0,0
2,note_on,34,0,0
2,note_on,34,29,24
2,note_on,41,29,0
2,note_on,46,35,0
2,note_on,46,0,216
2,note_on,41,0,0
2,note_on,34,0,0
2,note_on,38,31,24
2,note_on,41,37,0
2,note_on,41,0,432
2,note_on,38,0,0
2,note_on,38,28,48
2,note_on,41,34,0
2,note_on,41,0,432
2,note_on,38,0,0
2,note_on,36,30,48
2,note_on,41,30,0
2,note_on,48,36,0
2,note_on,48,0,432
2,note_on,41,0,0
2,note_on,36,0,0
2,note_on,36,27,48
2,note_on,41,27,0
2,note_on,48,32,0
2,note_on,48,0,216
2,note_on,41,0,0
2,note_on,36,0,0
2,note_on,36,31,24
2,note_on,41,31,0
2,note_on,48,37,0
2,note_on,48,0,216
2,note_on,41,0,0
2,note_on,36,0,0
2,note_on,54,45,24
2,note_on,42,37,0
2,note_on,33,37,0
2,note_on,45,45,0
2,note_on,42,0,480
2,note_on,54,0,0
2,note_on,53,38,0
2,note_on,41,32,0
2,note_on,41,0,480
2,note_on,45,0,0
2,note_on,33,0,0
2,note_on,53,0,0
2,note_on,34,30,0
2,note_on,41,30,0
2,note_on,46,36,0
2,note_on,46,0,432
2,note_on,41,0,0
2,note_on,34,0,0
2,note_on,31,27,48
2,note_on,43,32,0
2,note_on,43,0,216
2,note_on,31,0,0
2,note_on,31,31,24
2,note_on,43,37,0
2,note_on,43,0,216
2,note_on,31,0,0
2,note_on,43,37,24
2,note_on,36,37,0
2,note_on,48,45,0
2,note_on,48,0,960
2,note_on,36,0,0
2,note_on,43,0,0
2,note_on,29,35,0
2,note_on,41,42,0
2,note_on,41,0,960
2,note_on,29,0,0
2,note_on,34,27,0
2,note_on,41,27,0
2,note_on,46,32,0
2,note_on,46,0,960
2,note_on,41,0,0
2,note_on,34,0,0
2,note_on,46,30,0
2,note_on,53,30,0
2,note_on,58,36,0
2,note_on,58,0,432
2,note_on,53,0,0
2,note_on,46,0,0
2,note_on,43,27,48
2,note_on,55,32,0
2,note_on,55,0,216
2,note_on,43,0,0
2,note_on,43,31,24
2,note_on,55,37,0
2,note_on,55,0,216
2,note_on,43,0,0
2,note_on,55,37,24
2,note_on,48,37,0
2,note_on,60,45,0
2,note_on,60,0,960
2,note_on,48,0,0
2,note_on,55,0,0
2,note_on,41,35,0
2,note_on,53,42,0
2,note_on,53,0,960
2,note_on,41,0,0
2,note_on,46,27,0
2,note_on,53,27,0
2,note_on,58,32,0
2,note_on,58,0,960
2,note_on,53,0,0
2,note_on,46,0,0
2,note_on,53,35,0
2,note_on,60,35,0
2,note_on,63,35,0
2,note_on,65,42,0
2,note_on,63,0,1920
2,note_on,53,0,0
2,note_on,60,0,0
2,note_on,62,25,0
2,note_on,58,25,0
2,note_on,58,0,480
2,note_on,62,0,0
2,note_on,65,0,0
2,note_on,46,25,480
2,note_on,53,25,0
2,note_on,58,25,0
2,note_on,58,0,480
2,note_on,53,0,0
2,note_on,46,0,0
2,note_on,46,20,480
2,note_on,53,20,0
2,note_on,58,25,0
2,note_on,58,0,1920
2,note_on,53,0,0
2,note_on,46,0,0
