Track,Message Type,Note,Velocity,Time
1,note_on,82,48,960
1,note_on,82,0,480
1,note_on,79,48,0
1,note_on,79,0,160
1,note_on,82,44,0
1,note_on,82,0,160
1,note_on,80,40,0
1,note_on,80,0,160
1,note_on,79,48,0
1,note_on,79,0,160
1,note_on,77,45,0
1,note_on,77,0,160
1,note_on,75,40,0
1,note_on,75,0,160
1,note_on,74,48,0
1,note_on,74,0,160
1,note_on,72,45,0
1,note_on,72,0,160
1,note_on,70,42,0
1,note_on,70,0,160
1,note_on,68,48,0
1,note_on,68,0,160
1,note_on,67,45,0
1,note_on,67,0,160
1,note_on,65,45,0
1,note_on,65,0,160
1,note_on,63,48,0
1,note_on,63,0,160
1,note_on,62,43,0
1,note_on,62,0,160
1,note_on,60,43,0
1,note_on,60,0,160
1,note_on,58,48,0
1,note_on,60,44,160
1,note_on,60,0,160
1,note_on,62,41,0
1,note_on,62,0,160
1,note_on,58,0,0
1,note_on,63,48,0
1,note_on,63,0,160
1,note_on,62,44,0
1,note_on,62,0,160
1,note_on,63,44,0
1,note_on,63,0,160
1,note_on,64,53,0
1,note_on,64,0,160
1,note_on,63,50,0
1,note_on,63,0,160
1,note_on,64,49,0
1,note_on,64,0,160
1,note_on,65,55,0
1,note_on,65,0,160
1,note_on,64,49,0
1,note_on,64,0,160
1,note_on,65,50,0
1,note_on,65,0,160
1,note_on,66,60,0
1,note_on,66,0,160
1,note_on,65,53,0
1,note_on,65,0,160
1,note_on,66,53,0
1,note_on,66,0,160
1,note_on,67,54,0
1,note_on,67,0,160
1,note_on,66,51,0
1,note_on,66,0,160
1,note_on,67,50,0
1,note_on,67,0,160
1,note_on,68,48,0
1,note_on,68,0,160
1,note_on,67,45,0
1,note_on,67,0,160
1,note_on,68,48,0
1,note_on,68,0,160
1,note_on,67,48,0
1,note_on,67,0,160
1,note_on,70,51,0
1,note_on,70,0,160
1,note_on,68,51,0
1,note_on,68,0,160
1,note_on,67,50,0
1,note_on,67,0,160
1,note_on,68,47,0
1,note_on,68,0,160
1,note_on,70,47,0
1,note_on,70,0,160
1,note_on,72,49,0
1,note_on,72,0,160
1,note_on,74,46,0
1,note_on,74,0,160
1,note_on,75,46,0
1,note_on,75,0,160
1,note_on,77,48,0
1,note_on,77,0,160
1,note_on,84,49,0
1,note_on,84,0,160
1,note_on,82,49,0
1,note_on,82,0,160
1,note_on,80,48,0
1,note_on,80,0,160
1,note_on,79,45,0
1,note_on,79,0,160
1,note_on,77,43,0
1,note_on,77,0,160
1,note_on,75,48,0
1,note_on,75,0,160
1,note_on,74,45,0
1,note_on,74,0,160
1,note_on,72,43,0
1,note_on,72,0,160
1,note_on,70,47,0
1,note_on,70,0,160
1,note_on,77,48,0
1,note_on,77,0,160
1,note_on,75,45,0
1,note_on,75,0,160
1,note_on,74,48,0
1,note_on,74,0,160
1,note_on,72,45,0
1,note_on,72,0,160
1,note_on,70,43,0
1,note_on,70,0,160
1,note_on,68,48,0
1,note_on,68,0,160
1,note_on,67,43,0
1,note_on,67,0,160
1,note_on,65,45,0
1,note_on,65,0,160
1,note_on,63,48,0
1,note_on,63,0,160
1,note_on,65,45,0
1,note_on,65,0,160
1,note_on,67,43,0
1,note_on,67,0,160
1,note_on,68,52,0
1,note_on,68,0,160
1,note_on,70,51,0
1,note_on,70,0,160
1,note_on,72,55,0
1,note_on,72,0,160
1,note_on,74,59,0
1,note_on,74,0,160
1,note_on,75,55,0
1,note_on,75,0,160
1,note_on,77,58,0
1,note_on,77,0,160
1,note_on,79,65,0
1,note_on,79,0,160
1,note_on,82,61,0
1,note_on,82,0,160
1,note_on,80,58,0
1,note_on,80,0,160
1,note_on,79,63,0
1,note_on,79,0,160
1,note_on,77,57,0
1,note_on,77,0,160
1,note_on,75,54,0
1,note_on,75,0,160
1,note_on,74,64,0
1,note_on,74,0,160
1,note_on,72,59,0
1,note_on,72,0,160
1,note_on,70,58,0
1,note_on,70,0,160
1,note_on,68,63,0
1,note_on,68,0,160
1,note_on,67,59,0
1,note_on,67,0,160
1,note_on,65,54,0
1,note_on,65,0,160
1,note_on,63,63,0
1,note_on,63,0,160
1,note_on,62,53,0
1,note_on,62,0,160
1,note_on,60,51,0
1,note_on,60,0,160
1,note_on,58,63,0
1,note_on,60,54,160
1,note_on,60,0,160
1,note_on,62,51,0
1,note_on,62,0,160
1,note_on,58,0,0
1,note_on,63,63,0
1,note_on,63,0,160
1,note_on,62,55,0
1,note_on,62,0,160
1,note_on,63,51,0
1,note_on,63,0,160
1,note_on,64,63,0
1,note_on,64,0,160
1,note_on,63,56,0
1,note_on,63,0,160
1,note_on,64,54,0
1,note_on,64,0,160
1,note_on,65,63,0
1,note_on,65,0,160
1,note_on,64,59,0
1,note_on,64,0,160
1,note_on,65,55,0
1,note_on,65,0,160
1,note_on,66,68,0
1,note_on,66,0,160
1,note_on,65,61,0
1,note_on,65,0,160
1,note_on,66,59,0
1,note_on,66,0,160
1,note_on,67,64,0
1,note_on,67,0,160
1,note_on,66,61,0
1,note_on,66,0,160
1,note_on,67,59,0
1,note_on,67,0,160
1,note_on,68,63,0
1,note_on,68,0,160
1,note_on,67,60,0
1,note_on,67,0,160
1,note_on,68,57,0
1,note_on,68,0,160
1,note_on,67,63,0
1,note_on,67,0,160
1,note_on,70,60,0
1,note_on,70,0,160
1,note_on,68,58,0
1,note_on,68,0,160
1,note_on,67,63,0
1,note_on,67,0,160
1,note_on,68,60,0
1,note_on,68,0,160
1,note_on,70,60,0
1,note_on,70,0,160
1,note_on,72,63,0
1,note_on,72,0,160
1,note_on,74,58,0
1,note_on,74,0,160
1,note_on,75,58,0
1,note_on,75,0,160
1,note_on,77,63,0
1,note_on,77,0,160
1,note_on,84,64,0
1,note_on,84,0,160
1,note_on,82,58,0
1,note_on,82,0,160
1,note_on,80,64,0
1,note_on,80,0,160
1,note_on,79,61,0
1,note_on,79,0,160
1,note_on,77,57,0
1,note_on,77,0,160
1,note_on,75,63,0
1,note_on,75,0,160
1,note_on,74,60,0
1,note_on,74,0,160
1,note_on,72,57,0
1,note_on,72,0,160
1,note_on,70,62,0
1,note_on,70,0,160
1,note_on,77,63,0
1,note_on,77,0,160
1,note_on,75,58,0
1,note_on,75,0,160
1,note_on,74,63,0
1,note_on,74,0,160
1,note_on,75,59,0
1,note_on,75,0,160
1,note_on,77,59,0
1,note_on,77,0,160
1,note_on,79,63,0
1,note_on,79,0,160
1,note_on,80,59,0
1,note_on,80,0,160
1,note_on,82,59,0
1,note_on,82,0,160
1,note_on,75,63,0
1,note_on,75,0,160
1,note_on,77,59,0
1,note_on,77,0,160
1,note_on,79,59,0
1,note_on,79,0,160
1,note_on,80,63,0
1,note_on,80,0,160
1,note_on,82,58,0
1,note_on,82,0,160
1,note_on,84,58,0
1,note_on,84,0,160
1,note_on,86,63,0
1,note_on,86,0,160
1,note_on,87,58,0
1,note_on,87,0,160
1,note_on,89,58,0
1,note_on,89,0,160
1,note_on,91,67,0
1,note_on,91,0,160
1,note_on,94,63,0
1,note_on,94,0,160
1,note_on,92,61,0
1,note_on,92,0,160
1,note_on,91,67,0
1,note_on,91,0,160
1,note_on,89,63,0
1,note_on,89,0,160
1,note_on,87,59,0
1,note_on,87,0,160
1,note_on,86,64,0
1,note_on,86,0,160
1,note_on,84,59,0
1,note_on,84,0,160
1,note_on,82,56,0
1,note_on,82,0,160
1,note_on,80,63,0
1,note_on,80,0,160
1,note_on,79,59,0
1,note_on,79,0,160
1,note_on,77,57,0
1,note_on,77,0,160
1,note_on,75,63,0
1,note_on,75,0,160
1,note_on,74,59,0
1,note_on,74,0,160
1,note_on,72,56,0
1,note_on,72,0,160
1,note_on,70,63,0
1,note_on,70,0,160
1,note_on,72,59,0
1,note_on,72,0,160
1,note_on,74,59,0
1,note_on,74,0,160
1,note_on,75,66,0
1,note_on,75,0,160
1,note_on,74,61,0
1,note_on,74,0,160
1,note_on,75,61,0
1,note_on,75,0,160
1,note_on,76,66,0
1,note_on,76,0,160
1,note_on,75,63,0
1,note_on,75,0,160
1,note_on,76,61,0
1,note_on,76,0,160
1,note_on,77,70,0
1,note_on,77,0,160
1,note_on,76,66,0
1,note_on,76,0,160
1,note_on,77,63,0
1,note_on,77,0,160
1,note_on,78,72,0
1,note_on,78,0,160
1,note_on,77,67,0
1,note_on,77,0,160
1,note_on,78,65,0
1,note_on,78,0,160
1,note_on,79,70,0
1,note_on,79,0,160
1,note_on,78,65,0
1,note_on,78,0,160
1,note_on,79,63,0
1,note_on,79,0,160
1,note_on,80,64,0
1,note_on,80,0,160
1,note_on,79,61,0
1,note_on,79,0,160
1,note_on,80,61,0
1,note_on,80,0,160
1,note_on,79,63,0
1,note_on,79,0,160
1,note_on,82,59,0
1,note_on,82,0,160
1,note_on,80,59,0
1,note_on,80,0,160
1,note_on,79,63,0
1,note_on,79,0,160
1,note_on,80,59,0
1,note_on,80,0,160
1,note_on,82,59,0
1,note_on,82,0,160
1,note_on,84,63,0
1,note_on,84,0,160
1,note_on,86,60,0
1,note_on,86,0,160
1,note_on,87,60,0
1,note_on,87,0,160
1,note_on,89,64,0
1,note_on,89,0,160
1,note_on,96,62,0
1,note_on,96,0,160
1,note_on,94,59,0
1,note_on,94,0,160
1,note_on,92,62,0
1,note_on,92,0,160
1,note_on,91,56,0
1,note_on,91,0,160
1,note_on,89,56,0
1,note_on,89,0,160
1,note_on,87,59,0
1,note_on,87,0,160
1,note_on,86,58,0
1,note_on,86,0,160
1,note_on,84,53,0
1,note_on,84,0,160
1,note_on,82,53,0
1,note_on,82,0,160
1,note_on,89,55,0
1,note_on,89,0,160
1,note_on,87,51,0
1,note_on,87,0,160
1,note_on,86,54,0
1,note_on,86,0,160
1,note_on,84,53,0
1,note_on,84,0,160
1,note_on,82,48,0
1,note_on,82,0,160
1,note_on,80,51,0
1,note_on,80,0,160
1,note_on,79,50,0
1,note_on,79,0,160
1,note_on,77,49,0
1,note_on,77,0,160
1,note_on,75,48,0
1,note_on,75,0,160
1,note_on,79,47,0
1,note_on,79,0,160
1,note_on,77,46,0
1,note_on,77,0,160
1,note_on,75,45,0
1,note_on,75,0,160
1,note_on,74,45,0
1,note_on,74,0,160
1,note_on,72,44,0
1,note_on,72,0,160
1,note_on,70,43,0
1,note_on,70,0,160
1,note_on,68,42,0
1,note_on,68,0,160
1,note_on,65,41,0
1,note_on,65,0,160
1,note_on,66,40,0
1,note_on,66,0,160
1,note_on,70,38,0
1,note_on,70,0,160
1,note_on,68,39,0
1,note_on,68,0,160
1,note_on,66,41,0
1,note_on,66,0,160
1,note_on,65,37,0
1,note_on,65,0,160
1,note_on,63,32,0
1,note_on,63,0,160
1,note_on,61,41,0
1,note_on,61,0,160
1,note_on,59,37,0
1,note_on,59,0,160
1,note_on,58,32,0
1,note_on,58,0,160
1,note_on,59,41,0
1,note_on,59,0,160
1,note_on,63,39,0
1,note_on,63,0,160
1,note_on,68,39,0
1,note_on,68,0,160
1,note_on,71,44,0
1,note_on,63,37,160
1,note_on,63,0,160
1,note_on,68,30,0
1,note_on,68,0,160
1,note_on,66,37,0
1,note_on,66,0,160
1,note_on,63,35,0
1,note_on,63,0,160
1,note_on,66,32,0
1,note_on,66,0,160
1,note_on,71,0,0
1,note_on,65,41,0
1,note_on,65,0,160
1,note_on,71,37,0
1,note_on,71,0,160
1,note_on,70,32,0
1,note_on,70,0,160
1,note_on,68,41,0
1,note_on,68,0,160
1,note_on,66,37,0
1,note_on,66,0,160
1,note_on,65,31,0
1,note_on,65,0,160
1,note_on,63,36,0
1,note_on,63,0,160
1,note_on,61,36,0
1,note_on,61,0,160
1,note_on,59,31,0
1,note_on,59,0,160
1,note_on,58,41,0
1,note_on,58,0,160
1,note_on,61,38,0
1,note_on,61,0,160
1,note_on,66,30,0
1,note_on,66,0,160
1,note_on,70,44,0
1,note_on,61,38,160
1,note_on,61,0,160
1,note_on,66,32,0
1,note_on,66,0,160
1,note_on,65,36,0
1,note_on,65,0,160
1,note_on,61,34,0
1,note_on,61,0,160
1,note_on,65,31,0
1,note_on,65,0,160
1,note_on,70,0,0
1,note_on,63,40,0
1,note_on,63,0,160
1,note_on,70,41,0
1,note_on,70,0,160
1,note_on,68,37,0
1,note_on,68,0,160
1,note_on,66,41,0
1,note_on,66,0,160
1,note_on,65,37,0
1,note_on,65,0,160
1,note_on,63,31,0
1,note_on,63,0,160
1,note_on,61,37,0
1,note_on,61,0,160
1,note_on,59,34,0
1,note_on,59,0,160
1,note_on,58,31,0
1,note_on,58,0,160
1,note_on,56,41,0
1,note_on,56,0,160
1,note_on,59,37,0
1,note_on,59,0,160
1,note_on,65,37,0
1,note_on,65,0,160
1,note_on,68,44,0
1,note_on,59,39,160
1,note_on,59,0,160
1,note_on,65,33,0
1,note_on,65,0,160
1,note_on,63,37,0
1,note_on,63,0,160
1,note_on,59,33,0
1,note_on,59,0,160
1,note_on,63,34,0
1,note_on,63,0,160
1,note_on,68,0,0
1,note_on,62,41,0
1,note_on,62,0,160
1,note_on,68,37,0
1,note_on,68,0,160
1,note_on,66,37,0
1,note_on,66,0,160
1,note_on,65,41,0
1,note_on,65,0,160
1,note_on,63,38,0
1,note_on,63,0,160
1,note_on,62,33,0
1,note_on,62,0,160
1,note_on,59,37,0
1,note_on,59,0,160
1,note_on,58,35,0
1,note_on,58,0,160
1,note_on,56,35,0
1,note_on,56,0,160
1,note_on,54,41,0
1,note_on,54,0,160
1,note_on,58,37,0
1,note_on,58,0,160
1,note_on,63,39,0
1,note_on,63,0,160
1,note_on,66,44,0
1,note_on,58,35,160
1,note_on,58,0,160
1,note_on,63,35,0
1,note_on,63,0,160
1,note_on,61,40,0
1,note_on,61,0,160
1,note_on,58,35,0
1,note_on,58,0,160
1,note_on,61,35,0
1,note_on,61,0,160
1,note_on,66,0,0
1,note_on,59,41,0
1,note_on,59,0,160
1,note_on,63,38,0
1,note_on,63,0,160
1,note_on,68,38,0
1,note_on,68,0,160
1,note_on,71,44,0
1,note_on,63,37,160
1,note_on,63,0,160
1,note_on,68,37,0
1,note_on,68,0,160
1,note_on,66,39,0
1,note_on,66,0,160
1,note_on,63,36,0
1,note_on,63,0,160
1,note_on,66,36,0
1,note_on,66,0,160
1,note_on,71,0,0
1,note_on,71,48,0
1,note_on,65,41,160
1,note_on,65,0,160
1,note_on,62,41,0
1,note_on,62,0,160
1,note_on,71,0,0
1,note_on,70,47,0
1,note_on,65,41,160
1,note_on,65,0,160
1,note_on,62,41,0
1,note_on,62,0,160
1,note_on,70,0,0
1,note_on,74,47,0
1,note_on,68,41,160
1,note_on,68,0,160
1,note_on,65,41,0
1,note_on,65,0,160
1,note_on,74,0,0
1,note_on,75,47,0
1,note_on,75,0,160
1,note_on,78,39,0
1,note_on,78,0,160
1,note_on,77,39,0
1,note_on,77,0,160
1,note_on,75,42,0
1,note_on,75,0,160
1,note_on,73,36,0
1,note_on,73,0,160
1,note_on,71,36,0
1,note_on,71,0,160
1,note_on,70,43,0
1,note_on,70,0,160
1,note_on,68,37,0
1,note_on,68,0,160
1,note_on,65,36,0
1,note_on,65,0,160
1,note_on,66,39,0
1,note_on,66,0,160
1,note_on,70,39,0
1,note_on,70,0,160
1,note_on,68,36,0
1,note_on,68,0,160
1,note_on,66,39,0
1,note_on,66,0,160
1,note_on,65,36,0
1,note_on,65,0,160
1,note_on,63,36,0
1,note_on,63,0,160
1,note_on,61,39,0
1,note_on,61,0,160
1,note_on,59,36,0
1,note_on,59,0,160
1,note_on,58,36,0
1,note_on,58,0,160
1,note_on,59,40,0
1,note_on,59,0,160
1,note_on,62,40,0
1,note_on,62,0,160
1,note_on,65,37,0
1,note_on,65,0,160
1,note_on,71,44,0
1,note_on,65,40,160
1,note_on,65,0,160
1,note_on,62,37,0
1,note_on,62,0,160
1,note_on,65,40,0
1,note_on,65,0,160
1,note_on,61,37,0
1,note_on,61,0,160
1,note_on,59,37,0
1,note_on,59,0,160
1,note_on,71,0,0
1,note_on,58,40,0
1,note_on,58,0,160
1,note_on,70,40,0
1,note_on,70,0,160
1,note_on,68,36,0
1,note_on,68,0,160
1,note_on,66,40,0
1,note_on,66,0,160
1,note_on,65,40,0
1,note_on,65,0,160
1,note_on,63,38,0
1,note_on,63,0,160
1,note_on,61,40,0
1,note_on,61,0,160
1,note_on,59,37,0
1,note_on,59,0,160
1,note_on,58,35,0
1,note_on,58,0,160
1,note_on,59,39,0
1,note_on,59,0,160
1,note_on,62,35,0
1,note_on,62,0,160
1,note_on,65,36,0
1,note_on,65,0,160
1,note_on,71,45,0
1,note_on,65,37,160
1,note_on,65,0,160
1,note_on,62,37,0
1,note_on,62,0,160
1,note_on,65,40,0
1,note_on,65,0,160
1,note_on,61,40,0
1,note_on,61,0,160
1,note_on,59,36,0
1,note_on,59,0,160
1,note_on,71,0,0
1,note_on,61,40,0
1,note_on,61,0,160
1,note_on,66,37,0
1,note_on,66,0,160
1,note_on,70,37,0
1,note_on,70,0,160
1,note_on,73,45,0
1,note_on,70,40,160
1,note_on,70,0,160
1,note_on,66,36,0
1,note_on,66,0,160
1,note_on,65,39,0
1,note_on,65,0,160
1,note_on,66,37,0
1,note_on,66,0,160
1,note_on,64,38,0
1,note_on,64,0,160
1,note_on,73,0,0
1,note_on,63,39,0
1,note_on,63,0,160
1,note_on,68,39,0
1,note_on,68,0,160
1,note_on,71,39,0
1,note_on,71,0,160
1,note_on,75,46,0
1,note_on,71,38,160
1,note_on,71,0,160
1,note_on,68,38,0
1,note_on,68,0,160
1,note_on,67,40,0
1,note_on,67,0,160
1,note_on,68,39,0
1,note_on,68,0,160
1,note_on,66,39,0
1,note_on,66,0,160
1,note_on,75,0,0
1,note_on,65,40,0
1,note_on,65,0,160
1,note_on,66,40,0
1,note_on,66,0,160
1,note_on,67,38,0
1,note_on,67,0,160
1,note_on,68,40,0
1,note_on,68,0,160
1,note_on,70,40,0
1,note_on,70,0,160
1,note_on,71,39,0
1,note_on,71,0,160
1,note_on,73,40,0
1,note_on,73,0,160
1,note_on,75,40,0
1,note_on,75,0,160
1,note_on,77,39,0
1,note_on,77,0,160
1,note_on,78,39,0
1,note_on,78,0,160
1,note_on,82,45,0
1,note_on,82,0,160
1,note_on,80,42,0
1,note_on,80,0,160
1,note_on,78,41,0
1,note_on,78,0,160
1,note_on,77,41,0
1,note_on,77,0,160
1,note_on,75,40,0
1,note_on,75,0,160
1,note_on,73,40,0
1,note_on,73,0,160
1,note_on,71,40,0
1,note_on,71,0,160
1,note_on,70,39,0
1,note_on,70,0,160
1,note_on,68,40,0
1,note_on,68,0,160
1,note_on,71,38,0
1,note_on,71,0,160
1,note_on,70,38,0
1,note_on,70,0,160
1,note_on,68,38,0
1,note_on,68,0,160
1,note_on,66,37,0
1,note_on,66,0,160
1,note_on,65,35,0
1,note_on,65,0,160
1,note_on,63,40,0
1,note_on,63,0,160
1,note_on,62,33,0
1,note_on,62,0,160
1,note_on,65,33,0
1,note_on,65,0,160
1,note_on,68,33,0
1,note_on,68,0,160
1,note_on,71,33,0
1,note_on,71,0,160
1,note_on,70,33,0
1,note_on,70,0,160
1,note_on,68,33,0
1,note_on,68,0,160
1,note_on,66,33,0
1,note_on,66,0,160
1,note_on,65,33,0
1,note_on,65,0,160
1,note_on,63,40,0
1,note_on,63,0,160
1,note_on,62,33,0
1,note_on,62,0,160
1,note_on,65,33,0
1,note_on,65,0,160
1,note_on,68,32,0
1,note_on,68,0,160
1,note_on,71,32,0
1,note_on,71,0,160
1,note_on,70,32,0
1,note_on,70,0,160
1,note_on,68,32,0
1,note_on,68,0,160
1,note_on,66,32,0
1,note_on,66,0,160
1,note_on,65,32,0
1,note_on,65,0,160
1,note_on,63,39,0
1,note_on,63,0,160
1,note_on,62,32,0
1,note_on,62,0,160
1,note_on,65,32,0
1,note_on,65,0,160
1,note_on,68,32,0
1,note_on,68,0,160
1,note_on,71,34,0
1,note_on,71,0,160
1,note_on,74,36,0
1,note_on,74,0,160
1,note_on,71,39,0
1,note_on,71,0,160
1,note_on,74,40,0
1,note_on,74,0,160
1,note_on,77,41,0
1,note_on,77,0,160
1,note_on,74,43,0
1,note_on,74,0,160
1,note_on,77,45,0
1,note_on,77,0,160
1,note_on,78,46,0
1,note_on,78,0,160
1,note_on,80,50,0
1,note_on,80,0,160
1,note_on,83,48,0
1,note_on,83,0,160
1,note_on,82,48,0
1,note_on,82,0,160
1,note_on,80,50,0
1,note_on,80,0,160
1,note_on,78,48,0
1,note_on,78,0,160
1,note_on,77,48,0
1,note_on,77,0,160
1,note_on,75,53,0
1,note_on,75,0,160
1,note_on,74,47,0
1,note_on,74,0,160
1,note_on,77,47,0
1,note_on,77,0,160
1,note_on,80,47,0
1,note_on,80,0,160
1,note_on,83,47,0
1,note_on,83,0,160
1,note_on,82,46,0
1,note_on,82,0,160
1,note_on,80,47,0
1,note_on,80,0,160
1,note_on,78,45,0
1,note_on,78,0,160
1,note_on,77,45,0
1,note_on,77,0,160
1,note_on,75,52,0
1,note_on,75,0,160
1,note_on,74,48,0
1,note_on,74,0,160
1,note_on,77,48,0
1,note_on,77,0,160
1,note_on,80,48,0
1,note_on,80,0,160
1,note_on,83,48,0
1,note_on,83,0,160
1,note_on,80,51,0
1,note_on,80,0,160
1,note_on,83,53,0
1,note_on,83,0,160
1,note_on,80,54,0
1,note_on,80,0,160
1,note_on,83,56,0
1,note_on,83,0,160
1,note_on,80,57,0
1,note_on,80,0,160
1,note_on,83,60,0
1,note_on,83,0,160
1,note_on,80,61,0
1,note_on,80,0,160
1,note_on,82,61,0
1,note_on,82,0,160
1,note_on,80,56,0
1,note_on,80,0,160
1,note_on,82,53,0
1,note_on,82,0,160
1,note_on,80,48,0
1,note_on,80,0,160
1,note_on,82,44,0
1,note_on,82,0,160
1,note_on,80,40,0
1,note_on,80,0,160
1,note_on,82,36,0
1,note_on,82,0,160
1,note_on,80,32,0
1,note_on,80,0,160
1,note_on,82,27,0
1,note_on,82,0,160
1,note_on,79,48,0
1,note_on,79,0,160
1,note_on,82,45,0
1,note_on,82,0,160
1,note_on,80,43,0
1,note_on,80,0,160
1,note_on,79,48,0
1,note_on,79,0,160
1,note_on,77,45,0
1,note_on,77,0,160
1,note_on,75,43,0
1,note_on,75,0,160
1,note_on,74,48,0
1,note_on,74,0,160
1,note_on,72,46,0
1,note_on,72,0,160
1,note_on,70,45,0
1,note_on,70,0,160
1,note_on,68,48,0
1,note_on,68,0,160
1,note_on,67,46,0
1,note_on,67,0,160
1,note_on,65,44,0
1,note_on,65,0,160
1,note_on,63,48,0
1,note_on,63,0,160
1,note_on,62,45,0
1,note_on,62,0,160
1,note_on,60,45,0
1,note_on,60,0,160
1,note_on,58,48,0
1,note_on,60,46,160
1,note_on,60,0,160
1,note_on,62,45,0
1,note_on,62,0,160
1,note_on,58,0,0
1,note_on,63,48,0
1,note_on,63,0,160
1,note_on,62,46,0
1,note_on,62,0,160
1,note_on,63,44,0
1,note_on,63,0,160
1,note_on,64,50,0
1,note_on,64,0,160
1,note_on,63,49,0
1,note_on,63,0,160
1,note_on,64,45,0
1,note_on,64,0,160
1,note_on,65,54,0
1,note_on,65,0,160
1,note_on,64,51,0
1,note_on,64,0,160
1,note_on,65,46,0
1,note_on,65,0,160
1,note_on,66,57,0
1,note_on,66,0,160
1,note_on,65,52,0
1,note_on,65,0,160
1,note_on,66,48,0
1,note_on,66,0,160
1,note_on,67,56,0
1,note_on,67,0,160
1,note_on,66,52,0
1,note_on,66,0,160
1,note_on,67,48,0
1,note_on,67,0,160
1,note_on,68,48,0
1,note_on,68,0,160
1,note_on,67,45,0
1,note_on,67,0,160
1,note_on,68,45,0
1,note_on,68,0,160
1,note_on,67,48,0
1,note_on,67,0,160
1,note_on,70,48,0
1,note_on,70,0,160
1,note_on,68,45,0
1,note_on,68,0,160
1,note_on,67,48,0
1,note_on,67,0,160
1,note_on,68,45,0
1,note_on,68,0,160
1,note_on,70,43,0
1,note_on,70,0,160
1,note_on,72,48,0
1,note_on,72,0,160
1,note_on,74,45,0
1,note_on,74,0,160
1,note_on,75,44,0
1,note_on,75,0,160
1,note_on,77,50,0
1,note_on,77,0,160
1,note_on,84,50,0
1,note_on,84,0,160
1,note_on,82,46,0
1,note_on,82,0,160
1,note_on,80,51,0
1,note_on,80,0,160
1,note_on,79,48,0
1,note_on,79,0,160
1,note_on,77,45,0
1,note_on,77,0,160
1,note_on,75,48,0
1,note_on,75,0,160
1,note_on,74,45,0
1,note_on,74,0,160
1,note_on,72,45,0
1,note_on,72,0,160
1,note_on,74,46,0
1,note_on,74,0,160
1,note_on,77,46,0
1,note_on,77,0,160
1,note_on,75,46,0
1,note_on,75,0,160
1,note_on,74,49,0
1,note_on,74,0,160
1,note_on,75,50,0
1,note_on,75,0,160
1,note_on,77,48,0
1,note_on,77,0,160
1,note_on,79,53,0
1,note_on,79,0,160
1,note_on,80,51,0
1,note_on,80,0,160
1,note_on,82,51,0
1,note_on,82,0,160
1,note_on,75,55,0
1,note_on,75,0,160
1,note_on,77,56,0
1,note_on,77,0,160
1,note_on,79,56,0
1,note_on,79,0,160
1,note_on,80,58,0
1,note_on,80,0,160
1,note_on,82,59,0
1,note_on,82,0,160
1,note_on,84,57,0
1,note_on,84,0,160
1,note_on,86,61,0
1,note_on,86,0,160
1,note_on,87,62,0
1,note_on,87,0,160
1,note_on,89,59,0
1,note_on,89,0,160
1,note_on,91,64,0
1,note_on,91,0,160
1,note_on,94,62,0
1,note_on,94,0,160
1,note_on,92,58,0
1,note_on,92,0,160
1,note_on,91,64,0
1,note_on,91,0,160
1,note_on,89,61,0
1,note_on,89,0,160
1,note_on,87,60,0
1,note_on,87,0,160
1,note_on,86,64,0
1,note_on,86,0,160
1,note_on,84,58,0
1,note_on,84,0,160
1,note_on,82,55,0
1,note_on,82,0,160
1,note_on,80,64,0
1,note_on,80,0,160
1,note_on,79,62,0
1,note_on,79,0,160
1,note_on,77,61,0
1,note_on,77,0,160
1,note_on,75,59,0
1,note_on,75,0,160
1,note_on,74,57,0
1,note_on,74,0,160
1,note_on,72,55,0
1,note_on,72,0,160
1,note_on,70,54,0
1,note_on,70,0,160
1,note_on,72,52,0
1,note_on,72,0,160
1,note_on,74,50,0
1,note_on,74,0,160
1,note_on,75,48,0
1,note_on,75,0,160
1,note_on,74,48,0
1,note_on,74,0,160
1,note_on,75,48,0
1,note_on,75,0,160
1,note_on,76,52,0
1,note_on,76,0,160
1,note_on,75,49,0
1,note_on,75,0,160
1,note_on,76,49,0
1,note_on,76,0,160
1,note_on,77,54,0
1,note_on,77,0,160
1,note_on,76,50,0
1,note_on,76,0,160
1,note_on,77,49,0
1,note_on,77,0,160
1,note_on,78,56,0
1,note_on,78,0,160
1,note_on,77,52,0
1,note_on,77,0,160
1,note_on,78,52,0
1,note_on,78,0,160
1,note_on,79,56,0
1,note_on,79,0,160
1,note_on,78,51,0
1,note_on,78,0,160
1,note_on,79,51,0
1,note_on,79,0,160
1,note_on,80,51,0
1,note_on,80,0,160
1,note_on,79,48,0
1,note_on,79,0,160
1,note_on,80,48,0
1,note_on,80,0,160
1,note_on,79,48,0
1,note_on,79,0,160
1,note_on,78,48,0
1,note_on,78,0,160
1,note_on,79,48,0
1,note_on,79,0,160
1,note_on,80,50,0
1,note_on,80,0,160
1,note_on,79,51,0
1,note_on,79,0,160
1,note_on,80,48,0
1,note_on,80,0,160
1,note_on,82,53,0
1,note_on,82,0,160
1,note_on,80,54,0
1,note_on,80,0,160
1,note_on,82,52,0
1,note_on,82,0,160
1,note_on,80,56,0
1,note_on,80,0,160
1,note_on,79,56,0
1,note_on,79,0,160
1,note_on,80,53,0
1,note_on,80,0,160
1,note_on,82,58,0
1,note_on,82,0,160
1,note_on,80,59,0
1,note_on,80,0,160
1,note_on,82,54,0
1,note_on,82,0,160
1,note_on,84,61,0
1,note_on,84,0,160
1,note_on,83,60,0
1,note_on,83,0,160
1,note_on,84,60,0
1,note_on,84,0,160
1,note_on,86,64,0
1,note_on,86,0,160
1,note_on,85,63,0
1,note_on,85,0,160
1,note_on,86,63,0
1,note_on,86,0,160
1,note_on,88,66,0
1,note_on,88,0,160
1,note_on,86,65,0
1,note_on,86,0,160
1,note_on,88,62,0
1,note_on,88,0,160
1,note_on,90,69,0
1,note_on,90,0,160
1,note_on,88,68,0
1,note_on,88,0,160
1,note_on,90,65,0
1,note_on,90,0,160
1,note_on,91,72,0
1,note_on,91,0,160
1,note_on,90,72,0
1,note_on,90,0,160
1,note_on,91,68,0
1,note_on,91,0,160
1,note_on,93,74,0
1,note_on,93,0,160
1,note_on,91,73,0
1,note_on,91,0,160
1,note_on,93,70,0
1,note_on,93,0,160
1,note_on,95,77,0
1,note_on,95,0,160
1,note_on,93,76,0
1,note_on,93,0,160
1,note_on,95,72,0
1,note_on,95,0,160
1,note_on,96,81,0
1,note_on,96,0,160
1,note_on,95,77,0
1,note_on,95,0,160
1,note_on,96,73,0
1,note_on,96,0,160
1,note_on,98,81,0
1,note_on,98,0,160
1,note_on,96,77,0
1,note_on,96,0,160
1,note_on,98,73,0
1,note_on,98,0,160
1,note_on,100,81,0
1,note_on,100,0,160
1,note_on,98,78,0
1,note_on,98,0,160
1,note_on,100,73,0
1,note_on,100,0,160
1,note_on,101,81,0
1,note_on,101,0,160
1,note_on,99,73,0
1,note_on,99,0,160
1,note_on,97,70,0
1,note_on,97,0,160
1,note_on,96,81,0
1,note_on,96,0,160
1,note_on,94,74,0
1,note_on,94,0,160
1,note_on,92,72,0
1,note_on,92,0,160
1,note_on,91,81,0
1,note_on,91,0,160
1,note_on,89,74,0
1,note_on,89,0,160
1,note_on,87,71,0
1,note_on,87,0,160
1,note_on,86,81,0
1,note_on,86,0,160
1,note_on,84,74,0
1,note_on,84,0,160
1,note_on,82,67,0
1,note_on,82,0,160
1,note_on,81,81,0
1,note_on,81,0,160
1,note_on,82,74,0
1,note_on,82,0,160
1,note_on,84,70,0
1,note_on,84,0,160
1,note_on,86,81,0
1,note_on,86,0,160
1,note_on,87,75,0
1,note_on,87,0,160
1,note_on,89,70,0
1,note_on,89,0,160
1,note_on,90,87,0
1,note_on,90,0,160
1,note_on,94,79,0
1,note_on,94,0,160
1,note_on,92,77,0
1,note_on,92,0,160
1,note_on,90,81,0
1,note_on,90,0,160
1,note_on,89,72,0
1,note_on,89,0,160
1,note_on,87,69,0
1,note_on,87,0,160
1,note_on,85,79,0
1,note_on,85,0,160
1,note_on,83,72,0
1,note_on,83,0,160
1,note_on,82,69,0
1,note_on,82,0,160
1,note_on,83,87,0
1,note_on,83,0,160
1,note_on,87,78,0
1,note_on,87,0,160
1,note_on,85,72,0
1,note_on,85,0,160
1,note_on,83,81,0
1,note_on,83,0,160
1,note_on,82,75,0
1,note_on,82,0,160
1,note_on,80,75,0
1,note_on,80,0,160
1,note_on,78,81,0
1,note_on,78,0,160
1,note_on,77,72,0
1,note_on,77,0,160
1,note_on,75,68,0
1,note_on,75,0,160
1,note_on,74,87,0
1,note_on,74,0,160
1,note_on,77,77,0
1,note_on,77,0,160
1,note_on,75,74,0
1,note_on,75,0,160
1,note_on,74,81,0
1,note_on,74,0,160
1,note_on,71,72,0
1,note_on,71,0,160
1,note_on,70,69,0
1,note_on,70,0,160
1,note_on,68,79,0
1,note_on,68,0,160
1,note_on,66,68,0
1,note_on,66,0,160
1,note_on,65,63,0
1,note_on,65,0,160
1,note_on,78,89,0
1,note_on,78,0,160
1,note_on,82,75,0
1,note_on,82,0,160
1,note_on,80,70,0
1,note_on,80,0,160
1,note_on,78,80,0
1,note_on,78,0,160
1,note_on,77,73,0
1,note_on,77,0,160
1,note_on,75,70,0
1,note_on,75,0,160
1,note_on,73,79,0
1,note_on,73,0,160
1,note_on,71,70,0
1,note_on,71,0,160
1,note_on,70,64,0
1,note_on,70,0,160
1,note_on,71,85,0
1,note_on,71,0,160
1,note_on,75,77,0
1,note_on,75,0,160
1,note_on,73,74,0
1,note_on,73,0,160
1,note_on,71,80,0
1,note_on,71,0,160
1,note_on,70,74,0
1,note_on,70,0,160
1,note_on,68,71,0
1,note_on,68,0,160
1,note_on,66,78,0
1,note_on,66,0,160
1,note_on,65,70,0
1,note_on,65,0,160
1,note_on,63,67,0
1,note_on,63,0,160
1,note_on,62,89,0
1,note_on,62,0,160
1,note_on,65,77,0
1,note_on,65,0,160
1,note_on,63,77,0
1,note_on,63,0,160
1,note_on,62,81,0
1,note_on,62,0,160
1,note_on,59,77,0
1,note_on,59,0,160
1,note_on,58,73,0
1,note_on,58,0,160
1,note_on,56,81,0
1,note_on,56,0,160
1,note_on,54,76,0
1,note_on,54,0,160
1,note_on,53,72,0
1,note_on,53,0,160
1,note_on,51,81,0
1,note_on,51,0,160
1,note_on,53,79,0
1,note_on,53,0,160
1,note_on,54,79,0
1,note_on,54,0,160
1,note_on,56,89,0
1,note_on,56,0,160
1,note_on,59,81,0
1,note_on,59,0,160
1,note_on,58,81,0
1,note_on,58,0,160
1,note_on,56,81,0
1,note_on,56,0,160
1,note_on,54,77,0
1,note_on,54,0,160
1,note_on,53,77,0
1,note_on,53,0,160
1,note_on,51,81,0
1,note_on,51,0,160
1,note_on,53,76,0
1,note_on,53,0,160
1,note_on,54,76,0
1,note_on,54,0,160
1,note_on,56,89,0
1,note_on,56,0,160
1,note_on,59,77,0
1,note_on,59,0,160
1,note_on,58,78,0
1,note_on,58,0,160
1,note_on,56,81,0
1,note_on,56,0,160
1,note_on,54,77,0
1,note_on,54,0,160
1,note_on,53,77,0
1,note_on,53,0,160
1,note_on,51,81,0
1,note_on,51,0,160
1,note_on,53,78,0
1,note_on,53,0,160
1,note_on,54,78,0
1,note_on,54,0,160
1,note_on,56,89,0
1,note_on,56,0,160
1,note_on,59,78,0
1,note_on,59,0,160
1,note_on,58,78,0
1,note_on,58,0,160
1,note_on,56,81,0
1,note_on,56,0,160
1,note_on,54,78,0
1,note_on,54,0,160
1,note_on,53,78,0
1,note_on,53,0,160
1,note_on,51,81,0
1,note_on,51,0,160
1,note_on,53,81,0
1,note_on,53,0,160
1,note_on,54,78,0
1,note_on,54,0,160
1,note_on,56,85,0
1,note_on,56,0,160
1,note_on,58,87,0
1,note_on,58,0,160
1,note_on,60,85,0
1,note_on,60,0,160
1,note_on,62,90,0
1,note_on,62,0,160
1,note_on,63,92,0
1,note_on,63,0,160
1,note_on,65,89,0
1,note_on,65,0,160
1,note_on,66,96,0
1,note_on,66,0,960
1,note_on,58,81,480
1,note_on,61,81,0
1,note_on,66,81,0
1,note_on,70,97,0
1,note_on,70,0,960
1,note_on,58,0,0
1,note_on,61,0,0
1,note_on,66,0,0
1,note_on,71,92,480
1,note_on,59,72,480
1,note_on,59,0,160
1,note_on,62,67,0
1,note_on,62,0,160
1,note_on,66,67,0
1,note_on,66,0,160
1,note_on,59,72,0
1,note_on,59,0,480
1,note_on,71,0,0
1,note_on,71,91,0
1,note_on,59,72,480
1,note_on,59,0,160
1,note_on,61,68,0
1,note_on,61,0,160
1,note_on,67,68,0
1,note_on,67,0,160
1,note_on,59,72,0
1,note_on,59,0,480
1,note_on,71,0,0
1,note_on,71,85,0
1,note_on,62,64,240
1,note_on,66,72,0
1,note_on,66,0,240
1,note_on,62,0,0
1,note_on,71,0,0
1,note_on,73,92,0
1,note_on,64,71,240
1,note_on,66,79,0
1,note_on,66,0,240
1,note_on,64,0,0
1,note_on,73,0,0
1,note_on,74,85,0
1,note_on,62,64,240
1,note_on,66,72,0
1,note_on,66,0,240
1,note_on,62,0,0
1,note_on,74,0,0
1,note_on,73,88,0
1,note_on,61,72,480
1,note_on,61,0,160
1,note_on,66,68,0
1,note_on,66,0,160
1,note_on,70,68,0
1,note_on,70,0,160
1,note_on,61,72,0
1,note_on,61,0,480
1,note_on,73,0,0
1,note_on,78,95,0
1,note_on,66,81,480
1,note_on,66,0,160
1,note_on,70,75,0
1,note_on,70,0,160
1,note_on,73,75,0
1,note_on,73,0,160
1,note_on,66,81,0
1,note_on,66,0,480
1,note_on,78,0,0
1,note_on,74,91,0
1,note_on,62,72,480
1,note_on,62,0,160
1,note_on,66,68,0
1,note_on,66,0,160
1,note_on,71,68,0
1,note_on,71,0,160
1,note_on,62,72,0
1,note_on,62,0,480
1,note_on,74,0,0
1,note_on,71,72,0
1,note_on,73,85,0
1,note_on,71,0,240
1,note_on,64,72,0
1,note_on,64,0,240
1,note_on,73,0,0
1,note_on,71,74,0
1,note_on,76,88,0
1,note_on,71,0,240
1,note_on,64,72,0
1,note_on,64,0,240
1,note_on,76,0,0
1,note_on,71,68,0
1,note_on,73,89,0
1,note_on,71,0,240
1,note_on,64,72,0
1,note_on,64,0,240
1,note_on,73,0,0
1,note_on,74,93,0
1,note_on,62,72,480
1,note_on,62,0,160
1,note_on,66,67,0
1,note_on,66,0,160
1,note_on,71,67,0
1,note_on,71,0,160
1,note_on,62,72,0
1,note_on,62,0,240
1,note_on,74,0,240
1,note_on,71,54,0
1,note_on,59,32,480
1,note_on,59,0,160
1,note_on,62,33,0
1,note_on,62,0,160
1,note_on,66,33,0
1,note_on,66,0,160
1,note_on,59,33,0
1,note_on,59,0,480
1,note_on,71,0,0
1,note_on,71,54,0
1,note_on,59,34,480
1,note_on,59,0,160
1,note_on,61,33,0
1,note_on,61,0,160
1,note_on,67,32,0
1,note_on,67,0,160
1,note_on,59,32,0
1,note_on,59,0,480
1,note_on,71,0,0
1,note_on,71,48,0
1,note_on,62,33,240
1,note_on,66,37,0
1,note_on,66,0,240
1,note_on,62,0,0
1,note_on,71,0,0
1,note_on,73,53,0
1,note_on,64,37,240
1,note_on,66,42,0
1,note_on,66,0,240
1,note_on,64,0,0
1,note_on,73,0,0
1,note_on,74,48,0
1,note_on,62,32,240
1,note_on,66,36,0
1,note_on,66,0,240
1,note_on,62,0,0
1,note_on,74,0,0
1,note_on,73,48,0
1,note_on,61,33,480
1,note_on,61,0,160
1,note_on,66,34,0
1,note_on,66,0,160
1,note_on,70,35,0
1,note_on,70,0,160
1,note_on,61,35,0
1,note_on,61,0,480
1,note_on,73,0,0
1,note_on,78,81,0
1,note_on,66,64,480
1,note_on,66,0,160
1,note_on,70,58,0
1,note_on,70,0,160
1,note_on,73,58,0
1,note_on,73,0,160
1,note_on,66,64,0
1,note_on,66,0,480
1,note_on,78,0,0
1,note_on,74,81,0
1,note_on,62,64,480
1,note_on,62,0,160
1,note_on,66,59,0
1,note_on,66,0,160
1,note_on,71,64,0
1,note_on,71,0,160
1,note_on,62,64,0
1,note_on,62,0,480
1,note_on,74,0,0
1,note_on,71,80,0
1,note_on,68,64,240
1,note_on,66,57,0
1,note_on,66,0,240
1,note_on,68,0,0
1,note_on,71,0,0
1,note_on,74,89,0
1,note_on,68,64,240
1,note_on,66,57,0
1,note_on,66,0,240
1,note_on,68,0,0
1,note_on,74,0,0
1,note_on,71,81,0
1,note_on,68,64,240
1,note_on,66,57,0
1,note_on,66,0,240
1,note_on,68,0,0
1,note_on,71,0,0
1,note_on,73,81,0
1,note_on,61,48,480
1,note_on,61,0,160
1,note_on,65,48,0
1,note_on,65,0,160
1,note_on,68,48,0
1,note_on,68,0,160
1,note_on,61,49,0
1,note_on,61,0,480
1,note_on,73,0,0
1,note_on,69,48,0
1,note_on,57,32,480
1,note_on,57,0,160
1,note_on,61,32,0
1,note_on,61,0,160
1,note_on,66,33,0
1,note_on,66,0,160
1,note_on,57,33,0
1,note_on,57,0,480
1,note_on,69,0,0
1,note_on,67,48,0
1,note_on,55,32,480
1,note_on,55,0,160
1,note_on,59,32,0
1,note_on,59,0,160
1,note_on,62,32,0
1,note_on,62,0,160
1,note_on,55,33,0
1,note_on,55,0,480
1,note_on,67,0,0
1,note_on,61,40,0
1,note_on,65,49,0
1,note_on,61,0,240
1,note_on,56,40,0
1,note_on,56,0,240
1,note_on,65,0,0
1,note_on,61,40,0
1,note_on,68,49,0
1,note_on,61,0,240
1,note_on,56,40,0
1,note_on,56,0,240
1,note_on,68,0,0
1,note_on,61,40,0
1,note_on,65,48,0
1,note_on,61,0,240
1,note_on,56,40,0
1,note_on,56,0,240
1,note_on,65,0,0
1,note_on,66,48,0
1,note_on,54,32,480
1,note_on,54,0,160
1,note_on,57,32,0
1,note_on,57,0,160
1,note_on,61,32,0
1,note_on,61,0,160
1,note_on,54,32,0
1,note_on,54,0,480
1,note_on,66,0,0
1,note_on,66,85,0
1,note_on,54,72,480
1,note_on,54,0,160
1,note_on,59,64,0
1,note_on,59,0,160
1,note_on,62,64,0
1,note_on,62,0,160
1,note_on,54,72,0
1,note_on,54,0,480
1,note_on,66,0,0
1,note_on,66,48,0
1,note_on,54,32,480
1,note_on,54,0,160
1,note_on,57,32,0
1,note_on,57,0,160
1,note_on,61,32,0
1,note_on,61,0,160
1,note_on,54,32,0
1,note_on,54,0,480
1,note_on,66,0,0
1,note_on,56,48,0
1,note_on,65,64,0
1,note_on,56,0,160
1,note_on,57,50,0
1,note_on,57,0,160
1,note_on,59,53,0
1,note_on,59,0,160
1,note_on,61,55,0
1,note_on,61,0,160
1,note_on,62,57,0
1,note_on,62,0,160
1,note_on,61,55,0
1,note_on,61,0,160
1,note_on,59,53,0
1,note_on,59,0,160
1,note_on,57,50,0
1,note_on,57,0,160
1,note_on,56,48,0
1,note_on,56,0,160
1,note_on,65,0,0
1,note_on,66,48,0
1,note_on,54,32,480
1,note_on,54,0,160
1,note_on,57,32,0
1,note_on,57,0,160
1,note_on,61,32,0
1,note_on,61,0,160
1,note_on,54,32,0
1,note_on,54,0,480
1,note_on,66,0,0
1,note_on,66,84,0
1,note_on,54,72,480
1,note_on,54,0,160
1,note_on,59,66,0
1,note_on,59,0,160
1,note_on,62,66,0
1,note_on,62,0,160
1,note_on,54,72,0
1,note_on,54,0,480
1,note_on,66,0,0
1,note_on,66,48,0
1,note_on,54,32,480
1,note_on,54,0,160
1,note_on,57,32,0
1,note_on,57,0,160
1,note_on,61,32,0
1,note_on,61,0,160
1,note_on,54,32,0
1,note_on,54,0,480
1,note_on,66,0,0
1,note_on,56,48,0
1,note_on,65,64,0
1,note_on,56,0,160
1,note_on,57,50,0
1,note_on,57,0,160
1,note_on,59,53,0
1,note_on,59,0,160
1,note_on,61,55,0
1,note_on,61,0,160
1,note_on,62,57,0
1,note_on,62,0,160
1,note_on,61,55,0
1,note_on,61,0,160
1,note_on,59,53,0
1,note_on,59,0,160
1,note_on,57,50,0
1,note_on,57,0,160
1,note_on,56,48,0
1,note_on,56,0,160
1,note_on,65,0,0
1,note_on,66,48,0
1,note_on,54,32,480
1,note_on,54,0,160
1,note_on,57,32,0
1,note_on,57,0,160
1,note_on,61,32,0
1,note_on,61,0,160
1,note_on,54,32,0
1,note_on,54,0,480
1,note_on,66,0,0
1,note_on,73,81,0
1,note_on,61,64,480
1,note_on,61,0,160
1,note_on,65,61,0
1,note_on,65,0,160
1,note_on,68,61,0
1,note_on,68,0,160
1,note_on,61,64,0
1,note_on,61,0,480
1,note_on,73,0,0
1,note_on,70,89,0
1,note_on,58,76,480
1,note_on,58,0,160
1,note_on,61,71,0
1,note_on,61,0,160
1,note_on,67,71,0
1,note_on,67,0,160
1,note_on,58,76,0
1,note_on,58,0,480
1,note_on,70,0,0
1,note_on,71,81,0
1,note_on,62,57,240
1,note_on,66,64,0
1,note_on,66,0,240
1,note_on,62,0,0
1,note_on,71,0,0
1,note_on,73,81,0
1,note_on,64,57,240
1,note_on,66,64,0
1,note_on,66,0,240
1,note_on,64,0,0
1,note_on,73,0,0
1,note_on,74,81,0
1,note_on,62,57,240
1,note_on,66,64,0
1,note_on,66,0,240
1,note_on,62,0,0
1,note_on,74,0,0
1,note_on,73,81,0
1,note_on,61,64,480
1,note_on,61,0,160
1,note_on,66,64,0
1,note_on,66,0,160
1,note_on,70,64,0
1,note_on,70,0,160
1,note_on,61,64,0
1,note_on,61,0,480
1,note_on,73,0,0
1,note_on,78,81,0
1,note_on,66,64,480
1,note_on,66,0,160
1,note_on,70,59,0
1,note_on,70,0,160
1,note_on,73,59,0
1,note_on,73,0,160
1,note_on,66,64,0
1,note_on,66,0,480
1,note_on,78,0,0
1,note_on,75,90,0
1,note_on,63,76,480
1,note_on,63,0,160
1,note_on,66,65,0
1,note_on,66,0,160
1,note_on,72,61,0
1,note_on,72,0,160
1,note_on,63,76,0
1,note_on,63,0,480
1,note_on,75,0,0
1,note_on,76,86,0
1,note_on,67,64,240
1,note_on,71,72,0
1,note_on,71,0,240
1,note_on,67,0,0
1,note_on,76,0,0
1,note_on,78,86,0
1,note_on,69,64,240
1,note_on,71,72,0
1,note_on,71,0,240
1,note_on,69,0,0
1,note_on,78,0,0
1,note_on,79,86,0
1,note_on,67,64,240
1,note_on,71,72,0
1,note_on,71,0,240
1,note_on,67,0,0
1,note_on,79,0,0
1,note_on,78,84,0
1,note_on,66,68,480
1,note_on,66,0,160
1,note_on,71,68,0
1,note_on,71,0,160
1,note_on,74,68,0
1,note_on,74,0,160
1,note_on,66,68,0
1,note_on,66,0,480
1,note_on,78,0,0
1,note_on,74,81,0
1,note_on,68,64,240
1,note_on,66,57,0
1,note_on,66,0,240
1,note_on,68,0,0
1,note_on,74,0,0
1,note_on,73,81,0
1,note_on,68,64,240
1,note_on,66,57,0
1,note_on,66,0,240
1,note_on,68,0,0
1,note_on,73,0,0
1,note_on,71,81,0
1,note_on,68,64,240
1,note_on,66,57,0
1,note_on,66,0,240
1,note_on,68,0,0
1,note_on,71,0,0
1,note_on,73,86,0
1,note_on,61,61,480
1,note_on,61,0,160
1,note_on,65,61,0
1,note_on,65,0,160
1,note_on,68,61,0
1,note_on,68,0,160
1,note_on,61,61,0
1,note_on,61,0,480
1,note_on,73,0,0
1,note_on,69,81,0
1,note_on,61,57,240
1,note_on,63,64,0
1,note_on,63,0,240
1,note_on,61,0,0
1,note_on,69,0,0
1,note_on,68,81,0
1,note_on,61,57,240
1,note_on,63,64,0
1,note_on,63,0,240
1,note_on,61,0,0
1,note_on,68,0,0
1,note_on,66,81,0
1,note_on,61,57,240
1,note_on,63,64,0
1,note_on,63,0,240
1,note_on,61,0,0
1,note_on,66,0,0
1,note_on,68,86,0
1,note_on,56,64,480
1,note_on,56,0,160
1,note_on,60,64,0
1,note_on,60,0,160
1,note_on,63,64,0
1,note_on,63,0,160
1,note_on,56,64,0
1,note_on,56,0,480
1,note_on,68,0,0
1,note_on,65,64,0
1,note_on,65,0,1440
1,note_on,66,65,0
1,note_on,66,0,1440
1,note_on,71,48,2880
1,note_on,59,48,480
1,note_on,59,0,160
1,note_on,62,32,0
1,note_on,62,0,160
1,note_on,66,32,0
1,note_on,66,0,160
1,note_on,59,32,0
1,note_on,59,0,480
1,note_on,71,0,0
1,note_on,71,48,0
1,note_on,59,32,480
1,note_on,59,0,160
1,note_on,61,32,0
1,note_on,61,0,160
1,note_on,67,32,0
1,note_on,67,0,160
1,note_on,59,32,0
1,note_on,59,0,480
1,note_on,71,0,0
1,note_on,71,48,0
1,note_on,62,28,240
1,note_on,66,32,0
1,note_on,66,0,240
1,note_on,62,0,0
1,note_on,71,0,0
1,note_on,73,48,0
1,note_on,64,28,240
1,note_on,66,32,0
1,note_on,66,0,240
1,note_on,64,0,0
1,note_on,73,0,0
1,note_on,74,48,0
1,note_on,62,28,240
1,note_on,66,32,0
1,note_on,66,0,240
1,note_on,62,0,0
1,note_on,74,0,0
1,note_on,73,48,0
1,note_on,61,32,480
1,note_on,61,0,160
1,note_on,66,32,0
1,note_on,66,0,160
1,note_on,70,32,0
1,note_on,70,0,160
1,note_on,61,32,0
1,note_on,61,0,480
1,note_on,73,0,0
1,note_on,78,55,0
1,note_on,66,32,480
1,note_on,66,0,160
1,note_on,70,32,0
1,note_on,70,0,160
1,note_on,73,32,0
1,note_on,73,0,160
1,note_on,66,32,0
1,note_on,66,0,480
1,note_on,78,0,0
1,note_on,74,51,0
1,note_on,62,32,480
1,note_on,62,0,160
1,note_on,66,32,0
1,note_on,66,0,160
1,note_on,71,32,0
1,note_on,71,0,160
1,note_on,62,32,0
1,note_on,62,0,480
1,note_on,74,0,0
1,note_on,71,32,0
1,note_on,73,48,0
1,note_on,71,0,240
1,note_on,64,32,0
1,note_on,64,0,240
1,note_on,73,0,0
1,note_on,71,32,0
1,note_on,76,48,0
1,note_on,71,0,240
1,note_on,64,32,0
1,note_on,64,0,240
1,note_on,76,0,0
1,note_on,71,32,0
1,note_on,73,48,0
1,note_on,71,0,240
1,note_on,64,32,0
1,note_on,64,0,240
1,note_on,73,0,0
1,note_on,74,48,0
1,note_on,62,32,480
1,note_on,62,0,160
1,note_on,66,32,0
1,note_on,66,0,160
1,note_on,71,32,0
1,note_on,71,0,160
1,note_on,62,32,0
1,note_on,62,0,480
1,note_on,74,0,0
1,note_on,76,79,0
1,note_on,64,64,480
1,note_on,64,0,160
1,note_on,67,58,0
1,note_on,67,0,160
1,note_on,71,58,0
1,note_on,71,0,160
1,note_on,64,64,0
1,note_on,64,0,480
1,note_on,76,0,0
1,note_on,76,78,0
1,note_on,64,64,480
1,note_on,64,0,160
1,note_on,66,59,0
1,note_on,66,0,160
1,note_on,72,59,0
1,note_on,72,0,160
1,note_on,64,64,0
1,note_on,64,0,480
1,note_on,76,0,0
1,note_on,76,72,0
1,note_on,67,57,240
1,note_on,71,64,0
1,note_on,71,0,240
1,note_on,67,0,0
1,note_on,76,0,0
1,note_on,78,72,0
1,note_on,69,57,240
1,note_on,71,64,0
1,note_on,71,0,240
1,note_on,69,0,0
1,note_on,78,0,0
1,note_on,79,72,0
1,note_on,67,57,240
1,note_on,71,64,0
1,note_on,71,0,240
1,note_on,67,0,0
1,note_on,79,0,0
1,note_on,78,72,0
1,note_on,66,56,480
1,note_on,66,0,160
1,note_on,71,56,0
1,note_on,71,0,160
1,note_on,75,56,0
1,note_on,75,0,160
1,note_on,66,56,0
1,note_on,66,0,480
1,note_on,78,0,0
1,note_on,83,78,0
1,note_on,71,64,480
1,note_on,71,0,160
1,note_on,75,60,0
1,note_on,75,0,160
1,note_on,78,60,0
1,note_on,78,0,160
1,note_on,71,64,0
1,note_on,71,0,480
1,note_on,83,0,0
1,note_on,79,78,0
1,note_on,67,64,480
1,note_on,67,0,160
1,note_on,71,58,0
1,note_on,71,0,160
1,note_on,76,58,0
1,note_on,76,0,160
1,note_on,67,64,0
1,note_on,67,0,480
1,note_on,79,0,0
1,note_on,76,64,0
1,note_on,69,45,240
1,note_on,71,50,0
1,note_on,71,0,240
1,note_on,69,0,0
1,note_on,76,0,0
1,note_on,79,72,0
1,note_on,71,54,240
1,note_on,73,61,0
1,note_on,73,0,240
1,note_on,71,0,0
1,note_on,79,0,0
1,note_on,76,64,0
1,note_on,73,50,240
1,note_on,71,51,0
1,note_on,71,0,240
1,note_on,73,0,0
1,note_on,76,0,0
1,note_on,78,72,0
1,note_on,66,64,480
1,note_on,66,0,160
1,note_on,70,60,0
1,note_on,70,0,160
1,note_on,73,60,0
1,note_on,73,0,160
1,note_on,66,64,0
1,note_on,66,0,480
1,note_on,78,0,0
1,note_on,74,52,0
1,note_on,62,32,480
1,note_on,62,0,160
1,note_on,66,32,0
1,note_on,66,0,160
1,note_on,71,32,0
1,note_on,71,0,160
1,note_on,62,32,0
1,note_on,62,0,480
1,note_on,74,0,0
1,note_on,72,48,0
1,note_on,60,32,480
1,note_on,60,0,160
1,note_on,64,32,0
1,note_on,64,0,160
1,note_on,67,32,0
1,note_on,67,0,160
1,note_on,60,32,0
1,note_on,60,0,480
1,note_on,72,0,0
1,note_on,66,47,0
1,note_on,70,47,0
1,note_on,66,0,240
1,note_on,61,40,0
1,note_on,61,0,240
1,note_on,70,0,0
1,note_on,66,47,0
1,note_on,73,47,0
1,note_on,66,0,240
1,note_on,61,39,0
1,note_on,61,0,240
1,note_on,73,0,0
1,note_on,66,47,0
1,note_on,70,47,0
1,note_on,66,0,240
1,note_on,61,38,0
1,note_on,61,0,240
1,note_on,70,0,0
1,note_on,71,47,0
1,note_on,59,32,480
1,note_on,59,0,160
1,note_on,62,32,0
1,note_on,62,0,160
1,note_on,66,32,0
1,note_on,66,0,160
1,note_on,59,32,0
1,note_on,59,0,480
1,note_on,71,0,0
1,note_on,71,85,0
1,note_on,59,67,480
1,note_on,59,0,160
1,note_on,64,61,0
1,note_on,64,0,160
1,note_on,67,61,0
1,note_on,67,0,160
1,note_on,59,67,0
1,note_on,59,0,480
1,note_on,71,0,0
1,note_on,71,48,0
1,note_on,59,32,480
1,note_on,59,0,160
1,note_on,62,32,0
1,note_on,62,0,160
1,note_on,66,32,0
1,note_on,66,0,160
1,note_on,59,32,0
1,note_on,59,0,480
1,note_on,71,0,0
1,note_on,61,32,0
1,note_on,70,48,0
1,note_on,61,0,160
1,note_on,62,34,0
1,note_on,62,0,160
1,note_on,64,36,0
1,note_on,64,0,160
1,note_on,66,39,0
1,note_on,66,0,160
1,note_on,67,41,0
1,note_on,67,0,160
1,note_on,66,39,0
1,note_on,66,0,160
1,note_on,64,36,0
1,note_on,64,0,160
1,note_on,62,34,0
1,note_on,62,0,160
1,note_on,61,32,0
1,note_on,61,0,160
1,note_on,70,0,0
1,note_on,71,48,0
1,note_on,59,32,480
1,note_on,59,0,160
1,note_on,62,32,0
1,note_on,62,0,160
1,note_on,66,32,0
1,note_on,66,0,160
1,note_on,59,32,0
1,note_on,59,0,480
1,note_on,71,0,0
1,note_on,71,79,0
1,note_on,59,64,480
1,note_on,59,0,160
1,note_on,64,58,0
1,note_on,64,0,160
1,note_on,67,60,0
1,note_on,67,0,160
1,note_on,59,64,0
1,note_on,59,0,480
1,note_on,71,0,0
1,note_on,71,48,0
1,note_on,59,32,480
1,note_on,59,0,160
1,note_on,62,32,0
1,note_on,62,0,160
1,note_on,66,32,0
1,note_on,66,0,160
1,note_on,59,32,0
1,note_on,59,0,480
1,note_on,71,0,0
1,note_on,61,32,0
1,note_on,70,48,0
1,note_on,61,0,160
1,note_on,62,34,0
1,note_on,62,0,160
1,note_on,64,36,0
1,note_on,64,0,160
1,note_on,66,39,0
1,note_on,66,0,160
1,note_on,67,41,0
1,note_on,67,0,160
1,note_on,66,39,0
1,note_on,66,0,160
1,note_on,64,36,0
1,note_on,64,0,160
1,note_on,62,34,0
1,note_on,62,0,160
1,note_on,61,32,0
1,note_on,61,0,160
1,note_on,70,0,0
1,note_on,71,48,0
1,note_on,59,32,480
1,note_on,59,0,160
1,note_on,62,32,0
1,note_on,62,0,160
1,note_on,66,32,0
1,note_on,66,0,160
1,note_on,59,32,0
1,note_on,59,0,480
1,note_on,71,0,0
1,note_on,71,81,0
1,note_on,59,60,480
1,note_on,59,0,160
1,note_on,62,54,0
1,note_on,62,0,160
1,note_on,66,54,0
1,note_on,66,0,160
1,note_on,59,60,0
1,note_on,59,0,480
1,note_on,71,0,0
1,note_on,71,81,0
1,note_on,59,60,480
1,note_on,59,0,160
1,note_on,62,54,0
1,note_on,62,0,160
1,note_on,66,54,0
1,note_on,66,0,160
1,note_on,59,60,0
1,note_on,59,0,480
1,note_on,71,0,0
1,note_on,62,81,0
1,note_on,62,0,160
1,note_on,66,64,0
1,note_on,66,0,160
1,note_on,71,64,0
1,note_on,71,0,160
1,note_on,59,74,0
1,note_on,59,0,480
1,note_on,62,81,0
1,note_on,62,0,160
1,note_on,66,64,0
1,note_on,66,0,160
1,note_on,71,64,0
1,note_on,71,0,160
1,note_on,59,71,0
1,note_on,59,0,480
1,note_on,62,81,0
1,note_on,62,0,160
1,note_on,66,64,0
1,note_on,66,0,160
1,note_on,71,64,0
1,note_on,71,0,160
1,note_on,62,72,0
1,note_on,62,0,480
1,note_on,70,81,0
1,note_on,58,60,480
1,note_on,58,0,160
1,note_on,63,55,0
1,note_on,63,0,160
1,note_on,66,55,0
1,note_on,66,0,160
1,note_on,58,60,0
1,note_on,58,0,480
1,note_on,70,0,0
1,note_on,70,81,0
1,note_on,58,60,480
1,note_on,58,0,160
1,note_on,63,55,0
1,note_on,63,0,160
1,note_on,66,55,0
1,note_on,66,0,160
1,note_on,58,60,0
1,note_on,58,0,480
1,note_on,70,0,0
1,note_on,63,83,0
1,note_on,63,0,160
1,note_on,66,62,0
1,note_on,66,0,160
1,note_on,70,62,0
1,note_on,70,0,160
1,note_on,58,74,0
1,note_on,58,0,480
1,note_on,63,89,0
1,note_on,63,0,160
1,note_on,66,66,0
1,note_on,66,0,160
1,note_on,70,66,0
1,note_on,70,0,160
1,note_on,58,77,0
1,note_on,58,0,480
1,note_on,63,90,0
1,note_on,63,0,160
1,note_on,66,71,0
1,note_on,66,0,160
1,note_on,70,71,0
1,note_on,70,0,160
1,note_on,58,78,0
1,note_on,58,0,480
1,note_on,63,82,0
1,note_on,75,97,0
1,note_on,75,0,960
1,note_on,63,0,0
1,note_on,87,105,0
1,note_on,75,96,0
1,note_on,75,0,960
1,note_on,87,0,0
1,note_on,71,77,0
1,note_on,83,91,0
1,note_on,83,0,960
1,note_on,71,0,0
1,note_on,80,81,0
1,note_on,80,0,160
1,note_on,83,75,0
1,note_on,83,0,160
1,note_on,80,80,0
1,note_on,80,0,160
1,note_on,83,74,0
1,note_on,83,0,160
1,note_on,80,78,0
1,note_on,80,0,160
1,note_on,83,72,0
1,note_on,83,0,160
1,note_on,80,77,0
1,note_on,80,0,160
1,note_on,83,69,0
1,note_on,83,0,160
1,note_on,80,75,0
1,note_on,80,0,160
1,note_on,83,69,0
1,note_on,83,0,160
1,note_on,80,74,0
1,note_on,80,0,160
1,note_on,83,67,0
1,note_on,83,0,160
1,note_on,80,72,0
1,note_on,80,0,160
1,note_on,83,67,0
1,note_on,83,0,160
1,note_on,80,72,0
1,note_on,80,0,160
1,note_on,83,65,0
1,note_on,83,0,160
1,note_on,80,70,0
1,note_on,80,0,160
1,note_on,83,64,0
1,note_on,83,0,160
1,note_on,80,70,0
1,note_on,80,0,160
1,note_on,82,62,0
1,note_on,82,0,160
1,note_on,80,64,0
1,note_on,80,0,160
1,note_on,82,56,0
1,note_on,82,0,160
1,note_on,80,58,0
1,note_on,80,0,160
1,note_on,82,51,0
1,note_on,82,0,160
1,note_on,80,53,0
1,note_on,80,0,160
1,note_on,82,45,0
1,note_on,82,0,160
1,note_on,80,47,0
1,note_on,80,0,160
1,note_on,82,40,0
1,note_on,82,0,160
1,note_on,80,41,0
1,note_on,80,0,160
1,note_on,82,35,0
1,note_on,82,0,160
1,note_on,80,36,0
1,note_on,80,0,160
1,note_on,82,28,0
1,note_on,82,0,160
1,note_on,80,30,0
1,note_on,80,0,160
1,note_on,82,23,0
1,note_on,82,0,160
1,note_on,80,24,0
1,note_on,80,0,160
1,note_on,82,21,0
1,note_on,82,0,160
1,note_on,79,24,0
1,note_on,79,0,160
1,note_on,82,44,0
1,note_on,82,0,160
1,note_on,80,43,0
1,note_on,80,0,160
1,note_on,79,43,0
1,note_on,79,0,160
1,note_on,77,42,0
1,note_on,77,0,160
1,note_on,75,41,0
1,note_on,75,0,160
1,note_on,74,40,0
1,note_on,74,0,160
1,note_on,72,40,0
1,note_on,72,0,160
1,note_on,70,40,0
1,note_on,70,0,160
1,note_on,68,39,0
1,note_on,68,0,160
1,note_on,67,39,0
1,note_on,67,0,160
1,note_on,65,38,0
1,note_on,65,0,160
1,note_on,63,37,0
1,note_on,63,0,160
1,note_on,62,39,0
1,note_on,62,0,160
1,note_on,60,38,0
1,note_on,60,0,160
1,note_on,58,40,0
1,note_on,60,41,160
1,note_on,60,0,160
1,note_on,62,40,0
1,note_on,62,0,160
1,note_on,58,0,0
1,note_on,63,44,0
1,note_on,63,0,160
1,note_on,62,45,0
1,note_on,62,0,160
1,note_on,63,45,0
1,note_on,63,0,160
1,note_on,64,48,0
1,note_on,64,0,160
1,note_on,63,47,0
1,note_on,63,0,160
1,note_on,64,45,0
1,note_on,64,0,160
1,note_on,65,53,0
1,note_on,65,0,160
1,note_on,64,51,0
1,note_on,64,0,160
1,note_on,65,48,0
1,note_on,65,0,160
1,note_on,66,56,0
1,note_on,66,0,160
1,note_on,65,52,0
1,note_on,65,0,160
1,note_on,66,48,0
1,note_on,66,0,160
1,note_on,67,56,0
1,note_on,67,0,160
1,note_on,66,54,0
1,note_on,66,0,160
1,note_on,67,49,0
1,note_on,67,0,160
1,note_on,68,48,0
1,note_on,68,0,160
1,note_on,67,45,0
1,note_on,67,0,160
1,note_on,68,42,0
1,note_on,68,0,160
1,note_on,67,48,0
1,note_on,67,0,160
1,note_on,70,45,0
1,note_on,70,0,160
1,note_on,68,44,0
1,note_on,68,0,160
1,note_on,67,48,0
1,note_on,67,0,160
1,note_on,68,45,0
1,note_on,68,0,160
1,note_on,70,45,0
1,note_on,70,0,160
1,note_on,72,48,0
1,note_on,72,0,160
1,note_on,74,44,0
1,note_on,74,0,160
1,note_on,75,44,0
1,note_on,75,0,160
1,note_on,77,48,0
1,note_on,77,0,160
1,note_on,84,52,0
1,note_on,84,0,160
1,note_on,82,46,0
1,note_on,82,0,160
1,note_on,80,51,0
1,note_on,80,0,160
1,note_on,79,47,0
1,note_on,79,0,160
1,note_on,77,45,0
1,note_on,77,0,160
1,note_on,75,48,0
1,note_on,75,0,160
1,note_on,74,45,0
1,note_on,74,0,160
1,note_on,72,45,0
1,note_on,72,0,160
1,note_on,70,47,0
1,note_on,70,0,160
1,note_on,77,45,0
1,note_on,77,0,160
1,note_on,75,45,0
1,note_on,75,0,160
1,note_on,74,48,0
1,note_on,74,0,160
1,note_on,72,45,0
1,note_on,72,0,160
1,note_on,70,45,0
1,note_on,70,0,160
1,note_on,68,48,0
1,note_on,68,0,160
1,note_on,67,44,0
1,note_on,67,0,160
1,note_on,65,44,0
1,note_on,65,0,160
1,note_on,63,48,0
1,note_on,63,0,160
1,note_on,65,48,0
1,note_on,65,0,160
1,note_on,67,48,0
1,note_on,67,0,160
1,note_on,68,48,0
1,note_on,68,0,160
1,note_on,70,51,0
1,note_on,70,0,160
1,note_on,72,55,0
1,note_on,72,0,160
1,note_on,74,56,0
1,note_on,74,0,160
1,note_on,75,60,0
1,note_on,75,0,160
1,note_on,77,63,0
1,note_on,77,0,160
1,note_on,79,63,0
1,note_on,79,0,160
1,note_on,82,58,0
1,note_on,82,0,160
1,note_on,80,53,0
1,note_on,80,0,160
1,note_on,79,62,0
1,note_on,79,0,160
1,note_on,77,56,0
1,note_on,77,0,160
1,note_on,75,54,0
1,note_on,75,0,160
1,note_on,74,63,0
1,note_on,74,0,160
1,note_on,72,58,0
1,note_on,72,0,160
1,note_on,70,54,0
1,note_on,70,0,160
1,note_on,68,63,0
1,note_on,68,0,160
1,note_on,67,59,0
1,note_on,67,0,160
1,note_on,65,60,0
1,note_on,65,0,160
1,note_on,63,63,0
1,note_on,63,0,160
1,note_on,62,59,0
1,note_on,62,0,160
1,note_on,60,59,0
1,note_on,60,0,160
1,note_on,58,63,0
1,note_on,60,58,160
1,note_on,60,0,160
1,note_on,62,58,0
1,note_on,62,0,160
1,note_on,58,0,0
1,note_on,63,63,0
1,note_on,63,0,160
1,note_on,62,60,0
1,note_on,62,0,160
1,note_on,63,60,0
1,note_on,63,0,160
1,note_on,64,67,0
1,note_on,64,0,160
1,note_on,63,63,0
1,note_on,63,0,160
1,note_on,64,63,0
1,note_on,64,0,160
1,note_on,65,71,0
1,note_on,65,0,160
1,note_on,64,68,0
1,note_on,64,0,160
1,note_on,65,64,0
1,note_on,65,0,160
1,note_on,66,73,0
1,note_on,66,0,160
1,note_on,65,70,0
1,note_on,65,0,160
1,note_on,66,67,0
1,note_on,66,0,160
1,note_on,67,72,0
1,note_on,67,0,160
1,note_on,66,70,0
1,note_on,66,0,160
1,note_on,67,64,0
1,note_on,67,0,160
1,note_on,68,63,0
1,note_on,68,0,160
1,note_on,67,58,0
1,note_on,67,0,160
1,note_on,68,58,0
1,note_on,68,0,160
1,note_on,67,63,0
1,note_on,67,0,160
1,note_on,70,60,0
1,note_on,70,0,160
1,note_on,68,60,0
1,note_on,68,0,160
1,note_on,67,63,0
1,note_on,67,0,160
1,note_on,68,58,0
1,note_on,68,0,160
1,note_on,70,58,0
1,note_on,70,0,160
1,note_on,72,63,0
1,note_on,72,0,160
1,note_on,74,58,0
1,note_on,74,0,160
1,note_on,75,58,0
1,note_on,75,0,160
1,note_on,77,63,0
1,note_on,77,0,160
1,note_on,84,66,0
1,note_on,84,0,160
1,note_on,82,65,0
1,note_on,82,0,160
1,note_on,80,64,0
1,note_on,80,0,160
1,note_on,79,60,0
1,note_on,79,0,160
1,note_on,77,60,0
1,note_on,77,0,160
1,note_on,75,63,0
1,note_on,75,0,160
1,note_on,74,58,0
1,note_on,74,0,160
1,note_on,72,61,0
1,note_on,72,0,160
1,note_on,70,59,0
1,note_on,70,0,160
1,note_on,77,62,0
1,note_on,77,0,160
1,note_on,75,58,0
1,note_on,75,0,160
1,note_on,74,63,0
1,note_on,74,0,160
1,note_on,75,59,0
1,note_on,75,0,160
1,note_on,77,59,0
1,note_on,77,0,160
1,note_on,79,63,0
1,note_on,79,0,160
1,note_on,80,57,0
1,note_on,80,0,160
1,note_on,82,57,0
1,note_on,82,0,160
1,note_on,75,63,0
1,note_on,75,0,160
1,note_on,77,58,0
1,note_on,77,0,160
1,note_on,79,58,0
1,note_on,79,0,160
1,note_on,80,63,0
1,note_on,80,0,160
1,note_on,82,58,0
1,note_on,82,0,160
1,note_on,84,58,0
1,note_on,84,0,160
1,note_on,86,63,0
1,note_on,86,0,160
1,note_on,87,58,0
1,note_on,87,0,160
1,note_on,89,58,0
1,note_on,89,0,160
1,note_on,91,63,0
1,note_on,91,0,160
1,note_on,94,63,0
1,note_on,94,0,160
1,note_on,92,58,0
1,note_on,92,0,160
1,note_on,91,64,0
1,note_on,91,0,160
1,note_on,89,62,0
1,note_on,89,0,160
1,note_on,87,62,0
1,note_on,87,0,160
1,note_on,86,63,0
1,note_on,86,0,160
1,note_on,84,57,0
1,note_on,84,0,160
1,note_on,82,58,0
1,note_on,82,0,160
1,note_on,80,60,0
1,note_on,80,0,160
1,note_on,79,58,0
1,note_on,79,0,160
1,note_on,77,58,0
1,note_on,77,0,160
1,note_on,75,63,0
1,note_on,75,0,160
1,note_on,74,58,0
1,note_on,74,0,160
1,note_on,72,58,0
1,note_on,72,0,160
1,note_on,70,63,0
1,note_on,70,0,160
1,note_on,72,58,0
1,note_on,72,0,160
1,note_on,74,58,0
1,note_on,74,0,160
1,note_on,75,63,0
1,note_on,75,0,160
1,note_on,74,59,0
1,note_on,74,0,160
1,note_on,75,59,0
1,note_on,75,0,160
1,note_on,76,64,0
1,note_on,76,0,160
1,note_on,75,61,0
1,note_on,75,0,160
1,note_on,76,62,0
1,note_on,76,0,160
1,note_on,77,66,0
1,note_on,77,0,160
1,note_on,76,63,0
1,note_on,76,0,160
1,note_on,77,63,0
1,note_on,77,0,160
1,note_on,78,70,0
1,note_on,78,0,160
1,note_on,77,65,0
1,note_on,77,0,160
1,note_on,78,65,0
1,note_on,78,0,160
1,note_on,79,73,0
1,note_on,79,0,160
1,note_on,78,68,0
1,note_on,78,0,160
1,note_on,79,63,0
1,note_on,79,0,160
1,note_on,80,64,0
1,note_on,80,0,160
1,note_on,79,61,0
1,note_on,79,0,160
1,note_on,80,61,0
1,note_on,80,0,160
1,note_on,79,63,0
1,note_on,79,0,160
1,note_on,82,59,0
1,note_on,82,0,160
1,note_on,80,60,0
1,note_on,80,0,160
1,note_on,79,63,0
1,note_on,79,0,160
1,note_on,80,60,0
1,note_on,80,0,160
1,note_on,82,60,0
1,note_on,82,0,160
1,note_on,84,63,0
1,note_on,84,0,160
1,note_on,86,59,0
1,note_on,86,0,160
1,note_on,87,59,0
1,note_on,87,0,160
1,note_on,89,64,0
1,note_on,89,0,160
1,note_on,96,59,0
1,note_on,96,0,160
1,note_on,94,59,0
1,note_on,94,0,160
1,note_on,92,62,0
1,note_on,92,0,160
1,note_on,91,61,0
1,note_on,91,0,160
1,note_on,89,60,0
1,note_on,89,0,160
1,note_on,87,59,0
1,note_on,87,0,160
1,note_on,86,58,0
1,note_on,86,0,160
1,note_on,84,57,0
1,note_on,84,0,160
1,note_on,82,56,0
1,note_on,82,0,160
1,note_on,89,55,0
1,note_on,89,0,160
1,note_on,87,54,0
1,note_on,87,0,160
1,note_on,86,54,0
1,note_on,86,0,160
1,note_on,84,53,0
1,note_on,84,0,160
1,note_on,82,52,0
1,note_on,82,0,160
1,note_on,80,51,0
1,note_on,80,0,160
1,note_on,79,50,0
1,note_on,79,0,160
1,note_on,77,49,0
1,note_on,77,0,160
1,note_on,75,48,0
1,note_on,75,0,160
1,note_on,79,47,0
1,note_on,79,0,160
1,note_on,77,46,0
1,note_on,77,0,160
1,note_on,75,45,0
1,note_on,75,0,160
1,note_on,74,45,0
1,note_on,74,0,160
1,note_on,72,44,0
1,note_on,72,0,160
1,note_on,70,43,0
1,note_on,70,0,160
1,note_on,68,42,0
1,note_on,68,0,160
1,note_on,65,41,0
1,note_on,65,0,160
1,note_on,66,40,0
1,note_on,66,0,160
1,note_on,70,41,0
1,note_on,70,0,160
1,note_on,68,41,0
1,note_on,68,0,160
1,note_on,66,41,0
1,note_on,66,0,160
1,note_on,65,41,0
1,note_on,65,0,160
1,note_on,63,41,0
1,note_on,63,0,160
1,note_on,61,41,0
1,note_on,61,0,160
1,note_on,59,41,0
1,note_on,59,0,160
1,note_on,58,41,0
1,note_on,58,0,160
1,note_on,59,41,0
1,note_on,59,0,160
1,note_on,63,41,0
1,note_on,63,0,160
1,note_on,68,41,0
1,note_on,68,0,160
1,note_on,71,44,0
1,note_on,63,41,160
1,note_on,63,0,160
1,note_on,68,41,0
1,note_on,68,0,160
1,note_on,66,41,0
1,note_on,66,0,160
1,note_on,63,41,0
1,note_on,63,0,160
1,note_on,66,41,0
1,note_on,66,0,160
1,note_on,71,0,0
1,note_on,65,41,0
1,note_on,65,0,160
1,note_on,71,41,0
1,note_on,71,0,160
1,note_on,70,41,0
1,note_on,70,0,160
1,note_on,68,41,0
1,note_on,68,0,160
1,note_on,66,41,0
1,note_on,66,0,160
1,note_on,65,41,0
1,note_on,65,0,160
1,note_on,63,41,0
1,note_on,63,0,160
1,note_on,61,41,0
1,note_on,61,0,160
1,note_on,59,41,0
1,note_on,59,0,160
1,note_on,58,41,0
1,note_on,58,0,160
1,note_on,61,41,0
1,note_on,61,0,160
1,note_on,66,41,0
1,note_on,66,0,160
1,note_on,70,44,0
1,note_on,61,41,160
1,note_on,61,0,160
1,note_on,66,41,0
1,note_on,66,0,160
1,note_on,65,41,0
1,note_on,65,0,160
1,note_on,61,41,0
1,note_on,61,0,160
1,note_on,65,41,0
1,note_on,65,0,160
1,note_on,70,0,0
1,note_on,63,40,0
1,note_on,63,0,160
1,note_on,70,41,0
1,note_on,70,0,160
1,note_on,68,41,0
1,note_on,68,0,160
1,note_on,66,41,0
1,note_on,66,0,160
1,note_on,65,41,0
1,note_on,65,0,160
1,note_on,63,41,0
1,note_on,63,0,160
1,note_on,61,41,0
1,note_on,61,0,160
1,note_on,59,41,0
1,note_on,59,0,160
1,note_on,58,41,0
1,note_on,58,0,160
1,note_on,56,41,0
1,note_on,56,0,160
1,note_on,59,41,0
1,note_on,59,0,160
1,note_on,65,41,0
1,note_on,65,0,160
1,note_on,68,44,0
1,note_on,59,38,160
1,note_on,59,0,160
1,note_on,65,38,0
1,note_on,65,0,160
1,note_on,63,41,0
1,note_on,63,0,160
1,note_on,59,38,0
1,note_on,59,0,160
1,note_on,63,38,0
1,note_on,63,0,160
1,note_on,68,0,0
1,note_on,62,41,0
1,note_on,62,0,160
1,note_on,68,41,0
1,note_on,68,0,160
1,note_on,66,41,0
1,note_on,66,0,160
1,note_on,65,41,0
1,note_on,65,0,160
1,note_on,63,37,0
1,note_on,63,0,160
1,note_on,62,37,0
1,note_on,62,0,160
1,note_on,59,41,0
1,note_on,59,0,160
1,note_on,58,37,0
1,note_on,58,0,160
1,note_on,56,37,0
1,note_on,56,0,160
1,note_on,54,41,0
1,note_on,54,0,160
1,note_on,58,41,0
1,note_on,58,0,160
1,note_on,63,41,0
1,note_on,63,0,160
1,note_on,66,44,0
1,note_on,58,41,160
1,note_on,58,0,160
1,note_on,63,41,0
1,note_on,63,0,160
1,note_on,61,44,0
1,note_on,61,0,160
1,note_on,58,41,0
1,note_on,58,0,160
1,note_on,61,41,0
1,note_on,61,0,160
1,note_on,66,0,0
1,note_on,59,41,0
1,note_on,59,0,160
1,note_on,63,41,0
1,note_on,63,0,160
1,note_on,68,41,0
1,note_on,68,0,160
1,note_on,71,44,0
1,note_on,63,41,160
1,note_on,63,0,160
1,note_on,68,41,0
1,note_on,68,0,160
1,note_on,66,44,0
1,note_on,66,0,160
1,note_on,63,41,0
1,note_on,63,0,160
1,note_on,66,41,0
1,note_on,66,0,160
1,note_on,71,0,0
1,note_on,71,48,0
1,note_on,65,41,160
1,note_on,65,0,160
1,note_on,62,41,0
1,note_on,62,0,160
1,note_on,71,0,0
1,note_on,70,47,0
1,note_on,65,41,160
1,note_on,65,0,160
1,note_on,62,41,0
1,note_on,62,0,160
1,note_on,70,0,0
1,note_on,74,47,0
1,note_on,68,41,160
1,note_on,68,0,160
1,note_on,65,41,0
1,note_on,65,0,160
1,note_on,74,0,0
1,note_on,75,47,0
1,note_on,75,0,160
1,note_on,78,39,0
1,note_on,78,0,160
1,note_on,77,39,0
1,note_on,77,0,160
1,note_on,75,39,0
1,note_on,75,0,160
1,note_on,73,39,0
1,note_on,73,0,160
1,note_on,71,39,0
1,note_on,71,0,160
1,note_on,70,39,0
1,note_on,70,0,160
1,note_on,68,39,0
1,note_on,68,0,160
1,note_on,65,39,0
1,note_on,65,0,160
1,note_on,66,39,0
1,note_on,66,0,160
1,note_on,70,39,0
1,note_on,70,0,160
1,note_on,68,39,0
1,note_on,68,0,160
1,note_on,66,39,0
1,note_on,66,0,160
1,note_on,65,39,0
1,note_on,65,0,160
1,note_on,63,39,0
1,note_on,63,0,160
1,note_on,61,39,0
1,note_on,61,0,160
1,note_on,59,39,0
1,note_on,59,0,160
1,note_on,58,40,0
1,note_on,58,0,160
1,note_on,59,40,0
1,note_on,59,0,160
1,note_on,62,40,0
1,note_on,62,0,160
1,note_on,65,40,0
1,note_on,65,0,160
1,note_on,71,44,0
1,note_on,65,38,160
1,note_on,65,0,160
1,note_on,62,38,0
1,note_on,62,0,160
1,note_on,65,40,0
1,note_on,65,0,160
1,note_on,61,38,0
1,note_on,61,0,160
1,note_on,59,38,0
1,note_on,59,0,160
1,note_on,71,0,0
1,note_on,58,40,0
1,note_on,58,0,160
1,note_on,70,40,0
1,note_on,70,0,160
1,note_on,68,40,0
1,note_on,68,0,160
1,note_on,66,40,0
1,note_on,66,0,160
1,note_on,65,36,0
1,note_on,65,0,160
1,note_on,63,36,0
1,note_on,63,0,160
1,note_on,61,40,0
1,note_on,61,0,160
1,note_on,59,37,0
1,note_on,59,0,160
1,note_on,58,37,0
1,note_on,58,0,160
1,note_on,59,39,0
1,note_on,59,0,160
1,note_on,62,39,0
1,note_on,62,0,160
1,note_on,65,39,0
1,note_on,65,0,160
1,note_on,71,45,0
1,note_on,65,36,160
1,note_on,65,0,160
1,note_on,62,36,0
1,note_on,62,0,160
1,note_on,65,40,0
1,note_on,65,0,160
1,note_on,61,38,0
1,note_on,61,0,160
1,note_on,59,38,0
1,note_on,59,0,160
1,note_on,71,0,0
1,note_on,61,40,0
1,note_on,61,0,160
1,note_on,66,40,0
1,note_on,66,0,160
1,note_on,70,40,0
1,note_on,70,0,160
1,note_on,73,45,0
1,note_on,70,37,160
1,note_on,70,0,160
1,note_on,66,37,0
1,note_on,66,0,160
1,note_on,65,40,0
1,note_on,65,0,160
1,note_on,66,38,0
1,note_on,66,0,160
1,note_on,64,38,0
1,note_on,64,0,160
1,note_on,73,0,0
1,note_on,63,39,0
1,note_on,63,0,160
1,note_on,68,39,0
1,note_on,68,0,160
1,note_on,71,39,0
1,note_on,71,0,160
1,note_on,75,46,0
1,note_on,71,37,160
1,note_on,71,0,160
1,note_on,68,37,0
1,note_on,68,0,160
1,note_on,67,40,0
1,note_on,67,0,160
1,note_on,68,37,0
1,note_on,68,0,160
1,note_on,66,37,0
1,note_on,66,0,160
1,note_on,75,0,0
1,note_on,65,40,0
1,note_on,65,0,160
1,note_on,66,40,0
1,note_on,66,0,160
1,note_on,67,40,0
1,note_on,67,0,160
1,note_on,68,40,0
1,note_on,68,0,160
1,note_on,70,40,0
1,note_on,70,0,160
1,note_on,71,40,0
1,note_on,71,0,160
1,note_on,73,40,0
1,note_on,73,0,160
1,note_on,75,40,0
1,note_on,75,0,160
1,note_on,77,40,0
1,note_on,77,0,160
1,note_on,78,39,0
1,note_on,78,0,160
1,note_on,82,39,0
1,note_on,82,0,160
1,note_on,80,40,0
1,note_on,80,0,160
1,note_on,78,40,0
1,note_on,78,0,160
1,note_on,77,40,0
1,note_on,77,0,160
1,note_on,75,40,0
1,note_on,75,0,160
1,note_on,73,40,0
1,note_on,73,0,160
1,note_on,71,40,0
1,note_on,71,0,160
1,note_on,70,40,0
1,note_on,70,0,160
1,note_on,68,40,0
1,note_on,68,0,160
1,note_on,71,40,0
1,note_on,71,0,160
1,note_on,70,40,0
1,note_on,70,0,160
1,note_on,68,38,0
1,note_on,68,0,160
1,note_on,66,37,0
1,note_on,66,0,160
1,note_on,65,35,0
1,note_on,65,0,160
1,note_on,63,40,0
1,note_on,63,0,160
1,note_on,62,33,0
1,note_on,62,0,160
1,note_on,65,33,0
1,note_on,65,0,160
1,note_on,68,33,0
1,note_on,68,0,160
1,note_on,71,33,0
1,note_on,71,0,160
1,note_on,70,33,0
1,note_on,70,0,160
1,note_on,68,33,0
1,note_on,68,0,160
1,note_on,66,33,0
1,note_on,66,0,160
1,note_on,65,33,0
1,note_on,65,0,160
1,note_on,63,40,0
1,note_on,63,0,160
1,note_on,62,33,0
1,note_on,62,0,160
1,note_on,65,33,0
1,note_on,65,0,160
1,note_on,68,32,0
1,note_on,68,0,160
1,note_on,71,32,0
1,note_on,71,0,160
1,note_on,70,32,0
1,note_on,70,0,160
1,note_on,68,32,0
1,note_on,68,0,160
1,note_on,66,32,0
1,note_on,66,0,160
1,note_on,65,32,0
1,note_on,65,0,160
1,note_on,63,39,0
1,note_on,63,0,160
1,note_on,62,32,0
1,note_on,62,0,160
1,note_on,65,32,0
1,note_on,65,0,160
1,note_on,68,32,0
1,note_on,68,0,160
1,note_on,71,34,0
1,note_on,71,0,160
1,note_on,74,36,0
1,note_on,74,0,160
1,note_on,71,39,0
1,note_on,71,0,160
1,note_on,74,40,0
1,note_on,74,0,160
1,note_on,77,41,0
1,note_on,77,0,160
1,note_on,74,43,0
1,note_on,74,0,160
1,note_on,77,45,0
1,note_on,77,0,160
1,note_on,78,46,0
1,note_on,78,0,160
1,note_on,80,46,0
1,note_on,80,0,160
1,note_on,83,48,0
1,note_on,83,0,160
1,note_on,82,45,0
1,note_on,82,0,160
1,note_on,80,48,0
1,note_on,80,0,160
1,note_on,78,46,0
1,note_on,78,0,160
1,note_on,77,46,0
1,note_on,77,0,160
1,note_on,75,53,0
1,note_on,75,0,160
1,note_on,74,47,0
1,note_on,74,0,160
1,note_on,77,47,0
1,note_on,77,0,160
1,note_on,80,47,0
1,note_on,80,0,160
1,note_on,83,44,0
1,note_on,83,0,160
1,note_on,82,44,0
1,note_on,82,0,160
1,note_on,80,47,0
1,note_on,80,0,160
1,note_on,78,44,0
1,note_on,78,0,160
1,note_on,77,44,0
1,note_on,77,0,160
1,note_on,75,52,0
1,note_on,75,0,160
1,note_on,74,48,0
1,note_on,74,0,160
1,note_on,77,48,0
1,note_on,77,0,160
1,note_on,80,48,0
1,note_on,80,0,160
1,note_on,83,48,0
1,note_on,83,0,160
1,note_on,80,51,0
1,note_on,80,0,160
1,note_on,83,53,0
1,note_on,83,0,160
1,note_on,80,54,0
1,note_on,80,0,160
1,note_on,83,56,0
1,note_on,83,0,160
1,note_on,80,57,0
1,note_on,80,0,160
1,note_on,83,60,0
1,note_on,83,0,160
1,note_on,80,61,0
1,note_on,80,0,160
1,note_on,82,62,0
1,note_on,82,0,160
1,note_on,80,58,0
1,note_on,80,0,160
1,note_on,82,54,0
1,note_on,82,0,160
1,note_on,80,50,0
1,note_on,80,0,160
1,note_on,82,46,0
1,note_on,82,0,160
1,note_on,80,42,0
1,note_on,80,0,160
1,note_on,82,38,0
1,note_on,82,0,160
1,note_on,80,34,0
1,note_on,80,0,160
1,note_on,82,30,0
1,note_on,82,0,160
1,note_on,79,48,0
1,note_on,79,0,160
1,note_on,82,44,0
1,note_on,82,0,160
1,note_on,80,40,0
1,note_on,80,0,160
1,note_on,79,48,0
1,note_on,79,0,160
1,note_on,77,45,0
1,note_on,77,0,160
1,note_on,75,41,0
1,note_on,75,0,160
1,note_on,74,48,0
1,note_on,74,0,160
1,note_on,72,45,0
1,note_on,72,0,160
1,note_on,70,41,0
1,note_on,70,0,160
1,note_on,68,48,0
1,note_on,68,0,160
1,note_on,67,44,0
1,note_on,67,0,160
1,note_on,65,41,0
1,note_on,65,0,160
1,note_on,63,48,0
1,note_on,63,0,160
1,note_on,62,45,0
1,note_on,62,0,160
1,note_on,60,42,0
1,note_on,60,0,160
1,note_on,58,48,0
1,note_on,60,44,160
1,note_on,60,0,160
1,note_on,62,42,0
1,note_on,62,0,160
1,note_on,58,0,0
1,note_on,63,48,0
1,note_on,63,0,160
1,note_on,62,44,0
1,note_on,62,0,160
1,note_on,63,44,0
1,note_on,63,0,160
1,note_on,64,51,0
1,note_on,64,0,160
1,note_on,63,48,0
1,note_on,63,0,160
1,note_on,64,48,0
1,note_on,64,0,160
1,note_on,65,55,0
1,note_on,65,0,160
1,note_on,64,52,0
1,note_on,64,0,160
1,note_on,65,52,0
1,note_on,65,0,160
1,note_on,66,58,0
1,note_on,66,0,160
1,note_on,65,52,0
1,note_on,65,0,160
1,note_on,66,48,0
1,note_on,66,0,160
1,note_on,67,56,0
1,note_on,67,0,160
1,note_on,66,53,0
1,note_on,66,0,160
1,note_on,67,48,0
1,note_on,67,0,160
1,note_on,68,48,0
1,note_on,68,0,160
1,note_on,67,46,0
1,note_on,67,0,160
1,note_on,68,46,0
1,note_on,68,0,160
1,note_on,67,48,0
1,note_on,67,0,160
1,note_on,70,45,0
1,note_on,70,0,160
1,note_on,68,45,0
1,note_on,68,0,160
1,note_on,67,48,0
1,note_on,67,0,160
1,note_on,68,45,0
1,note_on,68,0,160
1,note_on,70,45,0
1,note_on,70,0,160
1,note_on,72,48,0
1,note_on,72,0,160
1,note_on,74,45,0
1,note_on,74,0,160
1,note_on,75,45,0
1,note_on,75,0,160
1,note_on,77,48,0
1,note_on,77,0,160
1,note_on,84,50,0
1,note_on,84,0,160
1,note_on,82,45,0
1,note_on,82,0,160
1,note_on,80,49,0
1,note_on,80,0,160
1,note_on,79,46,0
1,note_on,79,0,160
1,note_on,77,46,0
1,note_on,77,0,160
1,note_on,75,48,0
1,note_on,75,0,160
1,note_on,74,45,0
1,note_on,74,0,160
1,note_on,72,45,0
1,note_on,72,0,160
1,note_on,74,48,0
1,note_on,74,0,160
1,note_on,77,45,0
1,note_on,77,0,160
1,note_on,75,45,0
1,note_on,75,0,160
1,note_on,74,49,0
1,note_on,74,0,160
1,note_on,75,47,0
1,note_on,75,0,160
1,note_on,77,47,0
1,note_on,77,0,160
1,note_on,79,53,0
1,note_on,79,0,160
1,note_on,80,50,0
1,note_on,80,0,160
1,note_on,82,50,0
1,note_on,82,0,160
1,note_on,75,55,0
1,note_on,75,0,160
1,note_on,77,52,0
1,note_on,77,0,160
1,note_on,79,52,0
1,note_on,79,0,160
1,note_on,80,58,0
1,note_on,80,0,160
1,note_on,82,54,0
1,note_on,82,0,160
1,note_on,84,54,0
1,note_on,84,0,160
1,note_on,86,61,0
1,note_on,86,0,160
1,note_on,87,59,0
1,note_on,87,0,160
1,note_on,89,59,0
1,note_on,89,0,160
1,note_on,91,64,0
1,note_on,91,0,160
1,note_on,94,62,0
1,note_on,94,0,160
1,note_on,92,58,0
1,note_on,92,0,160
1,note_on,91,64,0
1,note_on,91,0,160
1,note_on,89,62,0
1,note_on,89,0,160
1,note_on,87,58,0
1,note_on,87,0,160
1,note_on,86,62,0
1,note_on,86,0,160
1,note_on,84,56,0
1,note_on,84,0,160
1,note_on,82,56,0
1,note_on,82,0,160
1,note_on,80,64,0
1,note_on,80,0,160
1,note_on,79,63,0
1,note_on,79,0,160
1,note_on,77,61,0
1,note_on,77,0,160
1,note_on,75,59,0
1,note_on,75,0,160
1,note_on,74,57,0
1,note_on,74,0,160
1,note_on,72,55,0
1,note_on,72,0,160
1,note_on,70,54,0
1,note_on,70,0,160
1,note_on,72,52,0
1,note_on,72,0,160
1,note_on,74,50,0
1,note_on,74,0,160
1,note_on,75,48,0
1,note_on,75,0,160
1,note_on,74,48,0
1,note_on,74,0,160
1,note_on,75,48,0
1,note_on,75,0,160
1,note_on,76,48,0
1,note_on,76,0,160
1,note_on,75,49,0
1,note_on,75,0,160
1,note_on,76,51,0
1,note_on,76,0,160
1,note_on,77,53,0
1,note_on,77,0,160
1,note_on,76,56,0
1,note_on,76,0,160
1,note_on,77,58,0
1,note_on,77,0,160
1,note_on,78,62,0
1,note_on,78,0,160
1,note_on,77,61,0
1,note_on,77,0,160
1,note_on,78,58,0
1,note_on,78,0,160
1,note_on,79,56,0
1,note_on,79,0,160
1,note_on,78,54,0
1,note_on,78,0,160
1,note_on,79,51,0
1,note_on,79,0,160
1,note_on,80,48,0
1,note_on,80,0,160
1,note_on,79,48,0
1,note_on,79,0,160
1,note_on,80,48,0
1,note_on,80,0,160
1,note_on,79,48,0
1,note_on,79,0,160
1,note_on,78,48,0
1,note_on,78,0,160
1,note_on,79,49,0
1,note_on,79,0,160
1,note_on,80,50,0
1,note_on,80,0,160
1,note_on,79,49,0
1,note_on,79,0,160
1,note_on,80,49,0
1,note_on,80,0,160
1,note_on,82,53,0
1,note_on,82,0,160
1,note_on,80,51,0
1,note_on,80,0,160
1,note_on,82,51,0
1,note_on,82,0,160
1,note_on,80,56,0
1,note_on,80,0,160
1,note_on,79,52,0
1,note_on,79,0,160
1,note_on,80,52,0
1,note_on,80,0,160
1,note_on,82,58,0
1,note_on,82,0,160
1,note_on,80,54,0
1,note_on,80,0,160
1,note_on,82,51,0
1,note_on,82,0,160
1,note_on,84,61,0
1,note_on,84,0,160
1,note_on,83,57,0
1,note_on,83,0,160
1,note_on,84,53,0
1,note_on,84,0,160
1,note_on,86,64,0
1,note_on,86,0,160
1,note_on,85,60,0
1,note_on,85,0,160
1,note_on,86,57,0
1,note_on,86,0,160
1,note_on,88,66,0
1,note_on,88,0,160
1,note_on,86,63,0
1,note_on,86,0,160
1,note_on,88,60,0
1,note_on,88,0,160
1,note_on,90,69,0
1,note_on,90,0,160
1,note_on,88,65,0
1,note_on,88,0,160
1,note_on,90,63,0
1,note_on,90,0,160
1,note_on,91,72,0
1,note_on,91,0,160
1,note_on,90,69,0
1,note_on,90,0,160
1,note_on,91,63,0
1,note_on,91,0,160
1,note_on,93,74,0
1,note_on,93,0,160
1,note_on,91,71,0
1,note_on,91,0,160
1,note_on,93,66,0
1,note_on,93,0,160
1,note_on,95,77,0
1,note_on,95,0,160
1,note_on,93,71,0
1,note_on,93,0,160
1,note_on,95,65,0
1,note_on,95,0,160
1,note_on,96,81,0
1,note_on,96,0,160
1,note_on,95,75,0
1,note_on,95,0,160
1,note_on,96,69,0
1,note_on,96,0,160
1,note_on,98,81,0
1,note_on,98,0,160
1,note_on,96,76,0
1,note_on,96,0,160
1,note_on,98,71,0
1,note_on,98,0,160
1,note_on,100,81,0
1,note_on,100,0,160
1,note_on,98,76,0
1,note_on,98,0,160
1,note_on,100,70,0
1,note_on,100,0,160
1,note_on,101,81,0
1,note_on,101,0,160
1,note_on,99,75,0
1,note_on,99,0,160
1,note_on,97,70,0
1,note_on,97,0,160
1,note_on,96,81,0
1,note_on,96,0,160
1,note_on,94,76,0
1,note_on,94,0,160
1,note_on,92,70,0
1,note_on,92,0,160
1,note_on,91,81,0
1,note_on,91,0,160
1,note_on,89,76,0
1,note_on,89,0,160
1,note_on,87,72,0
1,note_on,87,0,160
1,note_on,86,81,0
1,note_on,86,0,160
1,note_on,84,76,0
1,note_on,84,0,160
1,note_on,82,70,0
1,note_on,82,0,160
1,note_on,81,81,0
1,note_on,81,0,160
1,note_on,82,76,0
1,note_on,82,0,160
1,note_on,84,72,0
1,note_on,84,0,160
1,note_on,86,81,0
1,note_on,86,0,160
1,note_on,87,76,0
1,note_on,87,0,160
1,note_on,89,72,0
1,note_on,89,0,160
1,note_on,90,89,0
1,note_on,90,0,160
1,note_on,94,77,0
1,note_on,94,0,160
1,note_on,92,72,0
1,note_on,92,0,160
1,note_on,90,81,0
1,note_on,90,0,160
1,note_on,89,78,0
1,note_on,89,0,160
1,note_on,87,73,0
1,note_on,87,0,160
1,note_on,85,81,0
1,note_on,85,0,160
1,note_on,83,77,0
1,note_on,83,0,160
1,note_on,82,73,0
1,note_on,82,0,160
1,note_on,83,89,0
1,note_on,83,0,160
1,note_on,87,77,0
1,note_on,87,0,160
1,note_on,85,75,0
1,note_on,85,0,160
1,note_on,83,81,0
1,note_on,83,0,160
1,note_on,82,77,0
1,note_on,82,0,160
1,note_on,80,74,0
1,note_on,80,0,160
1,note_on,78,81,0
1,note_on,78,0,160
1,note_on,77,77,0
1,note_on,77,0,160
1,note_on,75,73,0
1,note_on,75,0,160
1,note_on,74,89,0
1,note_on,74,0,160
1,note_on,77,76,0
1,note_on,77,0,160
1,note_on,75,72,0
1,note_on,75,0,160
1,note_on,74,81,0
1,note_on,74,0,160
1,note_on,71,77,0
1,note_on,71,0,160
1,note_on,70,74,0
1,note_on,70,0,160
1,note_on,68,81,0
1,note_on,68,0,160
1,note_on,66,76,0
1,note_on,66,0,160
1,note_on,65,73,0
1,note_on,65,0,160
1,note_on,78,89,0
1,note_on,78,0,160
1,note_on,82,76,0
1,note_on,82,0,160
1,note_on,80,73,0
1,note_on,80,0,160
1,note_on,78,81,0
1,note_on,78,0,160
1,note_on,77,75,0
1,note_on,77,0,160
1,note_on,75,73,0
1,note_on,75,0,160
1,note_on,73,81,0
1,note_on,73,0,160
1,note_on,71,77,0
1,note_on,71,0,160
1,note_on,70,72,0
1,note_on,70,0,160
1,note_on,71,89,0
1,note_on,71,0,160
1,note_on,75,77,0
1,note_on,75,0,160
1,note_on,73,73,0
1,note_on,73,0,160
1,note_on,71,81,0
1,note_on,71,0,160
1,note_on,70,77,0
1,note_on,70,0,160
1,note_on,68,73,0
1,note_on,68,0,160
1,note_on,66,81,0
1,note_on,66,0,160
1,note_on,65,77,0
1,note_on,65,0,160
1,note_on,63,73,0
1,note_on,63,0,160
1,note_on,62,89,0
1,note_on,62,0,160
1,note_on,65,77,0
1,note_on,65,0,160
1,note_on,63,72,0
1,note_on,63,0,160
1,note_on,62,81,0
1,note_on,62,0,160
1,note_on,59,77,0
1,note_on,59,0,160
1,note_on,58,72,0
1,note_on,58,0,160
1,note_on,56,81,0
1,note_on,56,0,160
1,note_on,54,77,0
1,note_on,54,0,160
1,note_on,53,73,0
1,note_on,53,0,160
1,note_on,51,81,0
1,note_on,51,0,160
1,note_on,53,77,0
1,note_on,53,0,160
1,note_on,54,72,0
1,note_on,54,0,160
1,note_on,56,89,0
1,note_on,56,0,160
1,note_on,59,78,0
1,note_on,59,0,160
1,note_on,58,74,0
1,note_on,58,0,160
1,note_on,56,81,0
1,note_on,56,0,160
1,note_on,54,76,0
1,note_on,54,0,160
1,note_on,53,72,0
1,note_on,53,0,160
1,note_on,51,81,0
1,note_on,51,0,160
1,note_on,53,76,0
1,note_on,53,0,160
1,note_on,54,72,0
1,note_on,54,0,160
1,note_on,56,89,0
1,note_on,56,0,160
1,note_on,59,77,0
1,note_on,59,0,160
1,note_on,58,72,0
1,note_on,58,0,160
1,note_on,56,81,0
1,note_on,56,0,160
1,note_on,54,77,0
1,note_on,54,0,160
1,note_on,53,72,0
1,note_on,53,0,160
1,note_on,51,81,0
1,note_on,51,0,160
1,note_on,53,77,0
1,note_on,53,0,160
1,note_on,54,72,0
1,note_on,54,0,160
1,note_on,56,89,0
1,note_on,56,0,160
1,note_on,59,77,0
1,note_on,59,0,160
1,note_on,58,71,0
1,note_on,58,0,160
1,note_on,56,81,0
1,note_on,56,0,160
1,note_on,54,77,0
1,note_on,54,0,160
1,note_on,53,77,0
1,note_on,53,0,160
1,note_on,51,78,0
1,note_on,51,0,160
1,note_on,53,80,0
1,note_on,53,0,160
1,note_on,54,82,0
1,note_on,54,0,160
1,note_on,56,84,0
1,note_on,56,0,160
1,note_on,58,87,0
1,note_on,58,0,160
1,note_on,60,89,0
1,note_on,60,0,160
1,note_on,62,90,0
1,note_on,62,0,160
1,note_on,63,92,0
1,note_on,63,0,160
1,note_on,65,94,0
1,note_on,65,0,160
1,note_on,66,96,0
1,note_on,66,0,960
1,note_on,58,87,480
1,note_on,61,87,0
1,note_on,66,87,0
1,note_on,70,97,0
1,note_on,70,0,960
1,note_on,58,0,0
1,note_on,61,0,0
1,note_on,66,0,0
1,note_on,71,97,480
1,note_on,59,81,480
1,note_on,59,0,160
1,note_on,62,76,0
1,note_on,62,0,160
1,note_on,66,76,0
1,note_on,66,0,160
1,note_on,59,81,0
1,note_on,59,0,480
1,note_on,71,0,0
1,note_on,71,96,0
1,note_on,59,81,480
1,note_on,59,0,160
1,note_on,61,77,0
1,note_on,61,0,160
1,note_on,67,77,0
1,note_on,67,0,160
1,note_on,59,81,0
1,note_on,59,0,480
1,note_on,71,0,0
1,note_on,71,88,0
1,note_on,62,72,240
1,note_on,66,81,0
1,note_on,66,0,240
1,note_on,62,0,0
1,note_on,71,0,0
1,note_on,73,95,0
1,note_on,64,79,240
1,note_on,66,88,0
1,note_on,66,0,240
1,note_on,64,0,0
1,note_on,73,0,0
1,note_on,74,89,0
1,note_on,62,72,240
1,note_on,66,81,0
1,note_on,66,0,240
1,note_on,62,0,0
1,note_on,74,0,0
1,note_on,73,88,0
1,note_on,61,81,480
1,note_on,61,0,160
1,note_on,66,76,0
1,note_on,66,0,160
1,note_on,70,76,0
1,note_on,70,0,160
1,note_on,61,81,0
1,note_on,61,0,480
1,note_on,73,0,0
1,note_on,74,88,0
1,note_on,62,81,480
1,note_on,62,0,160
1,note_on,65,76,0
1,note_on,65,0,160
1,note_on,70,76,0
1,note_on,70,0,160
1,note_on,62,81,0
1,note_on,62,0,480
1,note_on,74,0,0
1,note_on,75,88,0
1,note_on,63,81,480
1,note_on,63,0,160
1,note_on,66,76,0
1,note_on,66,0,160
1,note_on,70,76,0
1,note_on,70,0,160
1,note_on,63,81,0
1,note_on,63,0,480
1,note_on,75,0,0
1,note_on,65,81,0
1,note_on,65,0,240
1,note_on,77,77,0
1,note_on,77,0,240
1,note_on,66,81,0
1,note_on,66,0,240
1,note_on,78,77,0
1,note_on,78,0,240
1,note_on,65,81,0
1,note_on,65,0,240
1,note_on,77,77,0
1,note_on,77,0,240
1,note_on,75,81,0
1,note_on,63,64,480
1,note_on,63,0,160
1,note_on,66,61,0
1,note_on,66,0,160
1,note_on,70,62,0
1,note_on,70,0,160
1,note_on,63,64,0
1,note_on,63,0,480
1,note_on,75,0,0
1,note_on,83,96,0
1,note_on,71,80,480
1,note_on,71,0,160
1,note_on,74,75,0
1,note_on,74,0,160
1,note_on,78,75,0
1,note_on,78,0,160
1,note_on,71,80,0
1,note_on,71,0,480
1,note_on,83,0,0
1,note_on,83,93,0
1,note_on,71,81,480
1,note_on,71,0,160
1,note_on,73,76,0
1,note_on,73,0,160
1,note_on,79,76,0
1,note_on,79,0,160
1,note_on,71,81,0
1,note_on,71,0,480
1,note_on,83,0,0
1,note_on,83,89,0
1,note_on,78,72,240
1,note_on,74,64,0
1,note_on,74,0,240
1,note_on,78,0,0
1,note_on,83,0,0
1,note_on,85,89,0
1,note_on,78,72,240
1,note_on,76,64,0
1,note_on,76,0,240
1,note_on,78,0,0
1,note_on,85,0,0
1,note_on,86,89,0
1,note_on,74,64,240
1,note_on,78,72,0
1,note_on,78,0,240
1,note_on,74,0,0
1,note_on,86,0,0
1,note_on,85,89,0
1,note_on,73,81,480
1,note_on,73,0,160
1,note_on,78,76,0
1,note_on,78,0,160
1,note_on,82,76,0
1,note_on,82,0,160
1,note_on,73,81,0
1,note_on,73,0,480
1,note_on,85,0,0
1,note_on,86,97,0
1,note_on,74,81,480
1,note_on,74,0,160
1,note_on,77,77,0
1,note_on,77,0,160
1,note_on,82,77,0
1,note_on,82,0,160
1,note_on,74,81,0
1,note_on,74,0,480
1,note_on,86,0,0
1,note_on,87,97,0
1,note_on,75,81,480
1,note_on,75,0,160
1,note_on,78,77,0
1,note_on,78,0,160
1,note_on,82,77,0
1,note_on,82,0,160
1,note_on,75,81,0
1,note_on,75,0,480
1,note_on,87,0,0
1,note_on,86,81,0
1,note_on,82,72,0
1,note_on,77,72,0
1,note_on,77,0,240
1,note_on,82,0,0
1,note_on,86,0,0
1,note_on,89,72,0
1,note_on,89,0,240
1,note_on,86,89,0
1,note_on,82,80,0
1,note_on,78,80,0
1,note_on,78,0,240
1,note_on,82,0,0
1,note_on,86,0,0
1,note_on,90,79,0
1,note_on,90,0,240
1,note_on,86,81,0
1,note_on,82,72,0
1,note_on,77,72,0
1,note_on,77,0,240
1,note_on,82,0,0
1,note_on,86,0,0
1,note_on,89,72,0
1,note_on,89,0,240
1,note_on,87,90,0
1,note_on,75,72,480
1,note_on,75,0,160
1,note_on,78,68,0
1,note_on,78,0,160
1,note_on,82,68,0
1,note_on,82,0,160
1,note_on,75,72,0
1,note_on,75,0,480
1,note_on,87,0,0
1,note_on,94,97,0
1,note_on,82,75,480
1,note_on,82,0,160
1,note_on,89,71,0
1,note_on,89,0,160
1,note_on,92,71,0
1,note_on,92,0,160
1,note_on,82,75,0
1,note_on,82,0,480
1,note_on,94,0,0
1,note_on,94,97,0
1,note_on,82,74,480
1,note_on,82,0,160
1,note_on,87,70,0
1,note_on,87,0,160
1,note_on,90,70,0
1,note_on,90,0,160
1,note_on,82,74,0
1,note_on,82,0,480
1,note_on,94,0,0
1,note_on,80,72,0
1,note_on,89,81,0
1,note_on,89,0,240
1,note_on,80,0,0
1,note_on,92,76,0
1,note_on,92,0,240
1,note_on,78,72,0
1,note_on,87,81,0
1,note_on,87,0,240
1,note_on,78,0,0
1,note_on,90,77,0
1,note_on,90,0,240
1,note_on,77,72,0
1,note_on,86,81,0
1,note_on,86,0,240
1,note_on,77,0,0
1,note_on,89,78,0
1,note_on,89,0,240
1,note_on,87,90,0
1,note_on,75,81,480
1,note_on,75,0,160
1,note_on,78,65,0
1,note_on,78,0,160
1,note_on,82,66,0
1,note_on,82,0,160
1,note_on,75,66,0
1,note_on,75,0,480
1,note_on,87,0,0
1,note_on,94,97,0
1,note_on,82,72,480
1,note_on,82,0,160
1,note_on,89,68,0
1,note_on,89,0,160
1,note_on,92,68,0
1,note_on,92,0,160
1,note_on,82,72,0
1,note_on,82,0,480
1,note_on,94,0,0
1,note_on,94,97,0
1,note_on,82,72,480
1,note_on,82,0,160
1,note_on,87,68,0
1,note_on,87,0,160
1,note_on,90,68,0
1,note_on,90,0,160
1,note_on,82,72,0
1,note_on,82,0,480
1,note_on,94,0,0
1,note_on,80,72,0
1,note_on,89,81,0
1,note_on,89,0,240
1,note_on,80,0,0
1,note_on,92,81,0
1,note_on,92,0,240
1,note_on,78,72,0
1,note_on,87,81,0
1,note_on,87,0,240
1,note_on,78,0,0
1,note_on,90,81,0
1,note_on,90,0,240
1,note_on,77,72,0
1,note_on,86,81,0
1,note_on,86,0,240
1,note_on,77,0,0
1,note_on,89,80,0
1,note_on,89,0,240
1,note_on,87,90,0
1,note_on,75,64,480
1,note_on,75,0,160
1,note_on,78,61,0
1,note_on,78,0,160
1,note_on,82,61,0
1,note_on,82,0,160
1,note_on,75,63,0
1,note_on,75,0,480
1,note_on,87,0,0
1,note_on,83,72,0
1,note_on,92,81,0
1,note_on,92,0,240
1,note_on,83,0,0
1,note_on,95,75,0
1,note_on,95,0,240
1,note_on,82,72,0
1,note_on,90,81,0
1,note_on,90,0,240
1,note_on,82,0,0
1,note_on,94,76,0
1,note_on,94,0,240
1,note_on,86,72,0
1,note_on,89,81,0
1,note_on,89,0,240
1,note_on,86,0,0
1,note_on,98,76,0
1,note_on,98,0,240
1,note_on,99,81,0
1,note_on,99,0,160
1,note_on,95,76,0
1,note_on,95,0,160
1,note_on,94,78,0
1,note_on,94,0,160
1,note_on,92,81,0
1,note_on,92,0,160
1,note_on,90,76,0
1,note_on,90,0,160
1,note_on,89,76,0
1,note_on,89,0,160
1,note_on,87,93,0
1,note_on,87,0,240
1,note_on,87,81,240
1,note_on,87,0,160
1,note_on,83,75,0
1,note_on,83,0,160
1,note_on,82,75,0
1,note_on,82,0,160
1,note_on,80,81,0
1,note_on,80,0,160
1,note_on,78,77,0
1,note_on,78,0,160
1,note_on,77,77,0
1,note_on,77,0,160
1,note_on,75,92,0
1,note_on,75,0,240
1,note_on,75,81,240
1,note_on,75,0,160
1,note_on,71,76,0
1,note_on,71,0,160
1,note_on,70,76,0
1,note_on,70,0,160
1,note_on,68,81,0
1,note_on,68,0,160
1,note_on,66,76,0
1,note_on,66,0,160
1,note_on,65,76,0
1,note_on,65,0,160
1,note_on,63,91,0
1,note_on,63,0,240
1,note_on,63,81,240
1,note_on,63,0,160
1,note_on,59,76,0
1,note_on,59,0,160
1,note_on,58,76,0
1,note_on,58,0,160
1,note_on,56,81,0
1,note_on,56,0,160
1,note_on,54,76,0
1,note_on,54,0,160
1,note_on,53,78,0
1,note_on,53,0,160
1,note_on,51,91,0
1,note_on,51,0,120
1,note_on,63,89,360
1,note_on,63,0,240
1,note_on,63,89,240
1,note_on,63,0,240
1,note_on,63,89,240
1,note_on,63,0,240
1,note_on,63,89,240
1,note_on,63,0,240
1,note_on,63,89,240
1,note_on,63,0,240
1,note_on,63,89,240
1,note_on,63,0,240
1,note_on,74,97,240
1,note_on,70,87,0
1,note_on,65,87,0
1,note_on,62,87,0
1,note_on,62,0,480
1,note_on,74,0,0
1,note_on,70,0,0
1,note_on,65,0,0
1,note_on,63,87,960
1,note_on,66,87,0
1,note_on,70,87,0
1,note_on,75,97,0
1,note_on,75,0,480
1,note_on,63,0,0
1,note_on,66,0,0
1,note_on,70,0,0
2,note_on,51,39,540
2,note_on,58,32,480
2,note_on,58,0,960
2,note_on,51,0,0
2,note_on,53,36,0
2,note_on,58,31,480
2,note_on,58,0,475
2,note_on,53,0,485
2,note_on,55,39,0
2,note_on,58,31,480
2,note_on,58,0,960
2,note_on,55,0,0
2,note_on,50,39,0
2,note_on,58,30,480
2,note_on,58,0,960
2,note_on,50,0,0
2,note_on,51,40,0
2,note_on,58,31,480
2,note_on,58,0,960
2,note_on,51,0,0
2,note_on,44,40,0
2,note_on,44,0,480
2,note_on,60,32,0
2,note_on,56,28,0
2,note_on,56,0,960
2,note_on,60,0,0
2,note_on,46,48,0
2,note_on,46,0,480
2,note_on,62,37,0
2,note_on,58,33,0
2,note_on,56,33,0
2,note_on,56,0,960
2,note_on,58,0,0
2,note_on,62,0,0
2,note_on,51,48,0
2,note_on,51,0,480
2,note_on,58,27,0
2,note_on,55,27,0
2,note_on,63,37,0
2,note_on,63,0,960
2,note_on,55,0,0
2,note_on,58,0,0
2,note_on,51,55,0
2,note_on,58,46,480
2,note_on,58,0,960
2,note_on,51,0,0
2,note_on,53,56,0
2,note_on,58,45,480
2,note_on,58,0,477
2,note_on,53,0,483
2,note_on,55,56,0
2,note_on,58,45,480
2,note_on,58,0,960
2,note_on,55,0,0
2,note_on,50,57,0
2,note_on,58,46,480
2,note_on,58,0,960
2,note_on,50,0,0
2,note_on,51,56,0
2,note_on,58,45,480
2,note_on,58,0,960
2,note_on,51,0,0
2,note_on,44,54,0
2,note_on,44,0,480
2,note_on,60,45,0
2,note_on,56,34,0
2,note_on,56,0,960
2,note_on,60,0,0
2,note_on,46,55,0
2,note_on,46,0,480
2,note_on,56,31,0
2,note_on,62,42,0
2,note_on,58,31,0
2,note_on,58,0,960
2,note_on,62,0,0
2,note_on,56,0,0
2,note_on,51,58,0
2,note_on,51,0,480
2,note_on,63,47,0
2,note_on,58,35,0
2,note_on,55,35,0
2,note_on,55,0,960
2,note_on,58,0,0
2,note_on,63,0,0
2,note_on,51,56,0
2,note_on,58,45,480
2,note_on,58,0,960
2,note_on,51,0,0
2,note_on,53,56,0
2,note_on,58,44,480
2,note_on,58,0,960
2,note_on,53,0,0
2,note_on,55,56,0
2,note_on,58,45,480
2,note_on,58,0,960
2,note_on,55,0,0
2,note_on,50,65,0
2,note_on,58,46,480
2,note_on,58,0,960
2,note_on,50,0,0
2,note_on,51,58,0
2,note_on,58,49,480
2,note_on,58,0,960
2,note_on,51,0,0
2,note_on,44,47,0
2,note_on,44,0,480
2,note_on,56,30,0
2,note_on,60,41,0
2,note_on,60,0,960
2,note_on,56,0,0
2,note_on,46,47,0
2,note_on,46,0,480
2,note_on,62,40,0
2,note_on,58,30,0
2,note_on,56,30,0
2,note_on,56,0,960
2,note_on,58,0,0
2,note_on,62,0,0
2,note_on,51,40,0
2,note_on,51,0,480
2,note_on,58,26,0
2,note_on,55,26,0
2,note_on,63,35,0
2,note_on,63,0,960
2,note_on,55,0,0
2,note_on,58,0,0
2,note_on,39,44,0
2,note_on,51,32,480
2,note_on,51,0,960
2,note_on,39,0,0
2,note_on,44,42,0
2,note_on,56,32,411
2,note_on,56,0,882
2,note_on,44,0,0
2,note_on,37,44,0
2,note_on,49,32,480
2,note_on,49,0,960
2,note_on,37,0,0
2,note_on,42,43,0
2,note_on,54,32,405
2,note_on,54,0,845
2,note_on,42,0,0
2,note_on,35,44,0
2,note_on,47,32,480
2,note_on,47,0,960
2,note_on,35,0,0
2,note_on,41,42,0
2,note_on,53,32,405
2,note_on,53,0,828
2,note_on,41,0,0
2,note_on,34,44,0
2,note_on,46,32,480
2,note_on,46,0,960
2,note_on,34,0,0
2,note_on,39,43,0
2,note_on,51,32,371
2,note_on,51,0,800
2,note_on,39,0,0
2,note_on,44,43,0
2,note_on,56,32,383
2,note_on,56,0,834
2,note_on,44,0,0
2,note_on,46,41,0
2,note_on,58,41,395
2,note_on,46,0,324
2,note_on,51,40,0
2,note_on,51,0,1437
2,note_on,58,0,0
2,note_on,42,41,0
2,note_on,49,33,480
2,note_on,49,0,960
2,note_on,42,0,0
2,note_on,44,39,0
2,note_on,50,53,432
2,note_on,50,0,360
2,note_on,49,33,0
2,note_on,49,0,480
2,note_on,44,0,0
2,note_on,42,39,0
2,note_on,49,33,480
2,note_on,49,0,960
2,note_on,42,0,0
2,note_on,44,40,0
2,note_on,50,55,417
2,note_on,50,0,326
2,note_on,49,33,0
2,note_on,49,0,480
2,note_on,44,0,0
2,note_on,42,39,0
2,note_on,54,43,394
2,note_on,42,0,944
2,note_on,47,40,0
2,note_on,54,0,411
2,note_on,56,43,0
2,note_on,47,0,788
2,note_on,49,43,0
2,note_on,56,0,478
2,note_on,59,37,0
2,note_on,59,0,960
2,note_on,49,0,0
2,note_on,58,43,0
2,note_on,54,32,0
2,note_on,54,0,960
2,note_on,58,0,0
2,note_on,46,43,480
2,note_on,59,33,480
2,note_on,56,25,0
2,note_on,53,25,0
2,note_on,53,0,960
2,note_on,46,0,0
2,note_on,59,0,0
2,note_on,56,0,0
2,note_on,46,43,0
2,note_on,59,32,480
2,note_on,56,24,0
2,note_on,53,24,0
2,note_on,53,0,960
2,note_on,46,0,0
2,note_on,59,0,0
2,note_on,56,0,0
2,note_on,46,43,0
2,note_on,53,24,480
2,note_on,59,32,0
2,note_on,56,24,0
2,note_on,56,0,2400
2,note_on,46,0,0
2,note_on,53,0,0
2,note_on,59,0,0
2,note_on,58,43,0
2,note_on,68,24,480
2,note_on,65,24,0
2,note_on,71,32,0
2,note_on,71,0,960
2,note_on,58,0,0
2,note_on,68,0,0
2,note_on,65,0,0
2,note_on,58,43,0
2,note_on,71,32,480
2,note_on,68,24,0
2,note_on,65,24,0
2,note_on,71,0,1371
2,note_on,70,40,0
2,note_on,70,0,1270
2,note_on,65,0,0
2,note_on,68,0,0
2,note_on,58,0,0
2,note_on,51,40,0
2,note_on,58,32,466
2,note_on,58,0,960
2,note_on,51,0,0
2,note_on,53,41,0
2,note_on,58,31,480
2,note_on,58,0,475
2,note_on,53,0,485
2,note_on,55,40,0
2,note_on,58,30,480
2,note_on,58,0,960
2,note_on,55,0,0
2,note_on,50,43,0
2,note_on,58,32,480
2,note_on,58,0,960
2,note_on,50,0,0
2,note_on,51,40,0
2,note_on,58,36,480
2,note_on,58,0,960
2,note_on,51,0,0
2,note_on,44,41,0
2,note_on,44,0,480
2,note_on,60,32,0
2,note_on,56,24,0
2,note_on,56,0,960
2,note_on,60,0,0
2,note_on,46,40,0
2,note_on,46,0,480
2,note_on,56,23,0
2,note_on,65,31,0
2,note_on,58,23,0
2,note_on,58,0,960
2,note_on,65,0,0
2,note_on,56,0,0
2,note_on,51,47,0
2,note_on,51,0,480
2,note_on,63,40,0
2,note_on,55,30,0
2,note_on,58,30,0
2,note_on,58,0,960
2,note_on,55,0,0
2,note_on,63,0,0
2,note_on,51,46,0
2,note_on,58,40,480
2,note_on,58,0,960
2,note_on,51,0,0
2,note_on,53,43,0
2,note_on,58,32,480
2,note_on,58,0,960
2,note_on,53,0,0
2,note_on,55,43,0
2,note_on,58,32,480
2,note_on,58,0,960
2,note_on,55,0,0
2,note_on,50,45,0
2,note_on,58,35,480
2,note_on,58,0,960
2,note_on,50,0,0
2,note_on,49,45,0
2,note_on,51,28,480
2,note_on,58,38,0
2,note_on,58,0,960
2,note_on,51,0,0
2,note_on,49,0,0
2,note_on,48,62,0
2,note_on,51,30,480
2,note_on,56,41,0
2,note_on,56,0,960
2,note_on,51,0,0
2,note_on,48,0,0
2,note_on,48,71,0
2,note_on,57,44,480
2,note_on,50,33,0
2,note_on,50,0,960
2,note_on,57,0,0
2,note_on,48,0,0
2,note_on,47,72,0
2,note_on,50,31,480
2,note_on,55,42,0
2,note_on,55,0,960
2,note_on,50,0,0
2,note_on,47,0,0
2,note_on,46,72,0
2,note_on,48,34,480
2,note_on,55,45,0
2,note_on,55,0,960
2,note_on,48,0,0
2,note_on,46,0,0
2,note_on,44,72,0
2,note_on,48,34,480
2,note_on,53,45,0
2,note_on,53,0,960
2,note_on,48,0,0
2,note_on,44,0,0
2,note_on,46,71,0
2,note_on,56,47,480
2,note_on,53,35,0
2,note_on,53,0,960
2,note_on,56,0,0
2,note_on,46,0,0
2,note_on,51,72,0
2,note_on,63,57,480
2,note_on,63,0,960
2,note_on,51,0,0
2,note_on,44,73,0
2,note_on,56,57,480
2,note_on,56,0,960
2,note_on,44,0,0
2,note_on,46,72,0
2,note_on,58,56,480
2,note_on,58,0,960
2,note_on,46,0,0
2,note_on,39,73,0
2,note_on,51,54,480
2,note_on,51,0,960
2,note_on,39,0,0
2,note_on,32,75,0
2,note_on,44,64,480
2,note_on,44,0,960
2,note_on,32,0,0
2,note_on,34,76,0
2,note_on,46,57,480
2,note_on,46,0,960
2,note_on,34,0,0
2,note_on,39,58,0
2,note_on,39,0,480
2,note_on,50,72,0
2,note_on,46,54,0
2,note_on,46,0,960
2,note_on,50,0,0
2,note_on,39,56,0
2,note_on,39,0,240
2,note_on,50,81,240
2,note_on,46,61,0
2,note_on,46,0,960
2,note_on,50,0,0
2,note_on,39,64,0
2,note_on,39,0,240
2,note_on,46,61,240
2,note_on,50,81,0
2,note_on,50,0,960
2,note_on,46,0,0
2,note_on,39,72,0
2,note_on,39,0,160
2,note_on,41,72,0
2,note_on,41,0,160
2,note_on,42,72,0
2,note_on,42,0,160
2,note_on,44,76,0
2,note_on,44,0,160
2,note_on,46,78,0
2,note_on,46,0,160
2,note_on,48,74,0
2,note_on,48,0,160
2,note_on,50,81,0
2,note_on,50,0,160
2,note_on,51,82,0
2,note_on,51,0,160
2,note_on,53,79,0
2,note_on,53,0,160
2,note_on,54,86,0
2,note_on,54,0,960
2,note_on,42,68,480
2,note_on,54,68,0
2,note_on,54,0,106
2,note_on,42,0,0
2,note_on,35,65,480
2,note_on,35,0,127
2,note_on,47,53,240
2,note_on,50,53,0
2,note_on,54,59,0
2,note_on,54,0,960
2,note_on,50,0,0
2,note_on,47,0,0
2,note_on,35,67,0
2,note_on,35,0,77
2,note_on,47,51,240
2,note_on,49,51,0
2,note_on,52,51,0
2,note_on,55,57,0
2,note_on,55,0,960
2,note_on,47,0,0
2,note_on,49,0,0
2,note_on,52,0,0
2,note_on,50,72,0
2,note_on,54,52,148
2,note_on,59,58,0
2,note_on,59,0,240
2,note_on,54,0,0
2,note_on,50,0,0
2,note_on,49,80,0
2,note_on,54,55,91
2,note_on,58,62,0
2,note_on,58,0,240
2,note_on,54,0,0
2,note_on,49,0,0
2,note_on,47,72,0
2,note_on,54,51,148
2,note_on,59,57,0
2,note_on,59,0,240
2,note_on,54,0,0
2,note_on,47,0,0
2,note_on,42,80,0
2,note_on,42,0,383
2,note_on,54,51,0
2,note_on,58,57,0
2,note_on,58,0,960
2,note_on,54,0,0
2,note_on,42,81,0
2,note_on,42,0,303
2,note_on,54,57,0
2,note_on,58,57,0
2,note_on,61,64,0
2,note_on,61,0,960
2,note_on,58,0,0
2,note_on,54,0,0
2,note_on,47,80,0
2,note_on,47,0,339
2,note_on,54,50,0
2,note_on,59,56,0
2,note_on,59,0,960
2,note_on,54,0,0
2,note_on,43,72,0
2,note_on,43,0,99
2,note_on,55,56,0
2,note_on,55,0,240
2,note_on,40,79,0
2,note_on,40,0,84
2,note_on,52,59,0
2,note_on,52,0,240
2,note_on,43,72,0
2,note_on,43,0,84
2,note_on,55,57,0
2,note_on,55,0,240
2,note_on,47,79,0
2,note_on,47,0,353
2,note_on,54,57,0
2,note_on,59,64,0
2,note_on,59,0,960
2,note_on,54,0,0
2,note_on,35,45,0
2,note_on,35,0,120
2,note_on,47,28,240
2,note_on,50,28,0
2,note_on,54,32,0
2,note_on,54,0,960
2,note_on,50,0,0
2,note_on,47,0,0
2,note_on,35,43,0
2,note_on,35,0,56
2,note_on,47,28,240
2,note_on,49,28,0
2,note_on,52,28,0
2,note_on,55,32,0
2,note_on,55,0,960
2,note_on,47,0,0
2,note_on,49,0,0
2,note_on,52,0,0
2,note_on,50,45,0
2,note_on,54,36,148
2,note_on,59,40,0
2,note_on,59,0,240
2,note_on,54,0,0
2,note_on,50,0,0
2,note_on,49,48,0
2,note_on,54,37,137
2,note_on,58,42,0
2,note_on,58,0,240
2,note_on,54,0,0
2,note_on,49,0,0
2,note_on,47,45,0
2,note_on,54,36,125
2,note_on,59,40,0
2,note_on,59,0,240
2,note_on,54,0,0
2,note_on,47,0,0
2,note_on,42,44,0
2,note_on,42,0,291
2,note_on,54,31,0
2,note_on,58,35,0
2,note_on,58,0,960
2,note_on,54,0,0
2,note_on,42,74,0
2,note_on,42,0,383
2,note_on,54,57,0
2,note_on,58,57,0
2,note_on,61,64,0
2,note_on,61,0,960
2,note_on,58,0,0
2,note_on,54,0,0
2,note_on,47,73,0
2,note_on,47,0,346
2,note_on,54,56,0
2,note_on,59,63,0
2,note_on,59,0,960
2,note_on,54,0,0
2,note_on,38,64,0
2,note_on,38,0,165
2,note_on,50,57,0
2,note_on,50,0,240
2,note_on,35,72,0
2,note_on,35,0,149
2,note_on,47,60,0
2,note_on,47,0,240
2,note_on,38,64,0
2,note_on,38,0,99
2,note_on,50,57,0
2,note_on,50,0,240
2,note_on,37,81,0
2,note_on,37,0,325
2,note_on,49,43,0
2,note_on,53,43,0
2,note_on,56,48,0
2,note_on,56,0,960
2,note_on,53,0,0
2,note_on,49,0,0
2,note_on,42,48,0
2,note_on,42,0,35
2,note_on,54,40,240
2,note_on,54,0,960
2,note_on,35,48,0
2,note_on,35,0,28
2,note_on,47,36,240
2,note_on,50,40,0
2,note_on,50,0,960
2,note_on,47,0,0
2,note_on,37,48,0
2,note_on,37,0,308
2,note_on,53,40,0
2,note_on,49,36,0
2,note_on,49,0,480
2,note_on,53,0,0
2,note_on,37,40,0
2,note_on,37,0,480
2,note_on,42,40,0
2,note_on,42,0,282
2,note_on,45,28,0
2,note_on,49,32,0
2,note_on,49,0,960
2,note_on,45,0,0
2,note_on,35,77,0
2,note_on,35,0,317
2,note_on,53,64,0
2,note_on,50,57,0
2,note_on,47,57,0
2,note_on,47,0,960
2,note_on,50,0,0
2,note_on,53,0,0
2,note_on,30,64,0
2,note_on,30,0,261
2,note_on,49,42,0
2,note_on,45,37,0
2,note_on,45,0,960
2,note_on,49,0,0
2,note_on,37,63,0
2,note_on,37,0,477
2,note_on,49,63,0
2,note_on,49,0,960
2,note_on,30,64,0
2,note_on,30,0,324
2,note_on,49,48,0
2,note_on,45,43,0
2,note_on,42,43,0
2,note_on,42,0,960
2,note_on,45,0,0
2,note_on,49,0,0
2,note_on,35,84,0
2,note_on,35,0,282
2,note_on,53,72,0
2,note_on,50,64,0
2,note_on,47,64,0
2,note_on,47,0,960
2,note_on,50,0,0
2,note_on,53,0,0
2,note_on,30,64,0
2,note_on,30,0,303
2,note_on,49,44,0
2,note_on,45,39,0
2,note_on,45,0,960
2,note_on,49,0,0
2,note_on,37,64,0
2,note_on,37,0,480
2,note_on,49,64,0
2,note_on,49,0,960
2,note_on,30,64,0
2,note_on,30,0,310
2,note_on,49,40,0
2,note_on,45,36,0
2,note_on,42,36,0
2,note_on,42,0,960
2,note_on,45,0,0
2,note_on,49,0,0
2,note_on,41,81,0
2,note_on,41,0,360
2,note_on,53,57,0
2,note_on,56,64,0
2,note_on,56,0,960
2,note_on,53,0,0
2,note_on,40,81,0
2,note_on,40,0,405
2,note_on,52,54,0
2,note_on,55,61,0
2,note_on,55,0,960
2,note_on,52,0,0
2,note_on,50,72,0
2,note_on,54,51,125
2,note_on,59,57,0
2,note_on,59,0,240
2,note_on,54,0,0
2,note_on,50,0,0
2,note_on,49,72,0
2,note_on,54,51,57
2,note_on,58,57,0
2,note_on,58,0,240
2,note_on,54,0,0
2,note_on,49,0,0
2,note_on,47,72,0
2,note_on,54,51,91
2,note_on,59,57,0
2,note_on,59,0,240
2,note_on,54,0,0
2,note_on,47,0,0
2,note_on,42,72,0
2,note_on,42,0,377
2,note_on,54,57,0
2,note_on,58,64,0
2,note_on,58,0,960
2,note_on,54,0,0
2,note_on,46,72,0
2,note_on,46,0,360
2,note_on,61,64,0
2,note_on,58,57,0
2,note_on,58,0,960
2,note_on,61,0,0
2,note_on,45,80,0
2,note_on,45,0,320
2,note_on,60,62,0
2,note_on,57,54,0
2,note_on,57,0,960
2,note_on,60,0,0
2,note_on,55,81,0
2,note_on,64,72,137
2,note_on,59,64,0
2,note_on,59,0,240
2,note_on,64,0,0
2,note_on,55,0,0
2,note_on,54,81,0
2,note_on,63,72,103
2,note_on,59,64,0
2,note_on,59,0,240
2,note_on,63,0,0
2,note_on,54,0,0
2,note_on,52,81,0
2,note_on,59,64,125
2,note_on,64,72,0
2,note_on,64,0,240
2,note_on,59,0,0
2,note_on,52,0,0
2,note_on,47,81,0
2,note_on,47,0,339
2,note_on,59,61,0
2,note_on,62,68,0
2,note_on,62,0,960
2,note_on,59,0,0
2,note_on,35,72,0
2,note_on,35,0,140
2,note_on,47,58,0
2,note_on,47,0,240
2,note_on,37,72,0
2,note_on,37,0,91
2,note_on,49,57,0
2,note_on,49,0,240
2,note_on,38,72,0
2,note_on,38,0,124
2,note_on,50,57,0
2,note_on,50,0,240
2,note_on,37,72,0
2,note_on,37,0,388
2,note_on,49,53,0
2,note_on,53,53,0
2,note_on,56,60,0
2,note_on,56,0,960
2,note_on,53,0,0
2,note_on,49,0,0
2,note_on,30,72,0
2,note_on,30,0,124
2,note_on,42,57,0
2,note_on,42,0,240
2,note_on,32,72,0
2,note_on,32,0,116
2,note_on,44,56,0
2,note_on,44,0,240
2,note_on,33,72,0
2,note_on,33,0,116
2,note_on,45,56,0
2,note_on,45,0,240
2,note_on,32,72,0
2,note_on,32,0,377
2,note_on,51,65,0
2,note_on,48,58,0
2,note_on,44,58,0
2,note_on,44,0,960
2,note_on,48,0,0
2,note_on,51,0,0
2,note_on,37,48,0
2,note_on,37,0,274
2,note_on,53,50,0
2,note_on,49,45,0
2,note_on,53,0,160
2,note_on,56,32,0
2,note_on,56,0,160
2,note_on,61,32,0
2,note_on,61,0,160
2,note_on,53,32,0
2,note_on,53,0,480
2,note_on,49,0,0
2,note_on,33,48,0
2,note_on,33,0,339
2,note_on,54,46,0
2,note_on,45,37,0
2,note_on,54,0,160
2,note_on,57,32,0
2,note_on,57,0,160
2,note_on,61,32,0
2,note_on,61,0,160
2,note_on,54,32,0
2,note_on,54,0,480
2,note_on,45,0,0
2,note_on,55,68,0
2,note_on,35,76,0
2,note_on,59,76,0
2,note_on,59,0,240
2,note_on,35,0,0
2,note_on,55,0,0
2,note_on,47,60,0
2,note_on,62,60,0
2,note_on,62,0,240
2,note_on,47,0,0
2,note_on,54,68,0
2,note_on,57,76,0
2,note_on,37,76,0
2,note_on,37,0,240
2,note_on,57,0,0
2,note_on,54,0,0
2,note_on,61,60,0
2,note_on,49,60,0
2,note_on,49,0,240
2,note_on,61,0,0
2,note_on,53,68,0
2,note_on,56,76,0
2,note_on,37,76,0
2,note_on,37,0,240
2,note_on,56,0,0
2,note_on,53,0,0
2,note_on,61,60,0
2,note_on,49,60,0
2,note_on,49,0,240
2,note_on,61,0,0
2,note_on,54,75,0
2,note_on,42,67,0
2,note_on,54,0,160
2,note_on,50,69,0
2,note_on,50,0,160
2,note_on,49,74,0
2,note_on,49,0,160
2,note_on,42,0,0
2,note_on,47,75,0
2,note_on,47,0,160
2,note_on,45,69,0
2,note_on,45,0,160
2,note_on,44,69,0
2,note_on,44,0,160
2,note_on,42,79,0
2,note_on,42,0,240
2,note_on,35,48,240
2,note_on,35,0,332
2,note_on,47,28,0
2,note_on,50,28,0
2,note_on,54,32,0
2,note_on,54,0,960
2,note_on,50,0,0
2,note_on,47,0,0
2,note_on,35,48,0
2,note_on,35,0,346
2,note_on,47,28,0
2,note_on,49,28,0
2,note_on,52,28,0
2,note_on,55,32,0
2,note_on,55,0,960
2,note_on,47,0,0
2,note_on,49,0,0
2,note_on,52,0,0
2,note_on,50,48,0
2,note_on,54,28,125
2,note_on,59,32,0
2,note_on,59,0,240
2,note_on,54,0,0
2,note_on,50,0,0
2,note_on,49,48,0
2,note_on,54,28,125
2,note_on,58,32,0
2,note_on,58,0,240
2,note_on,54,0,0
2,note_on,49,0,0
2,note_on,47,48,0
2,note_on,54,28,103
2,note_on,59,32,0
2,note_on,59,0,240
2,note_on,54,0,0
2,note_on,47,0,0
2,note_on,42,48,0
2,note_on,42,0,320
2,note_on,54,28,0
2,note_on,58,32,0
2,note_on,58,0,960
2,note_on,54,0,0
2,note_on,42,48,0
2,note_on,42,0,297
2,note_on,54,36,0
2,note_on,58,36,0
2,note_on,61,40,0
2,note_on,61,0,960
2,note_on,58,0,0
2,note_on,54,0,0
2,note_on,47,48,0
2,note_on,47,0,289
2,note_on,54,28,0
2,note_on,59,32,0
2,note_on,59,0,960
2,note_on,54,0,0
2,note_on,43,48,0
2,note_on,43,0,113
2,note_on,55,32,0
2,note_on,55,0,240
2,note_on,40,48,0
2,note_on,40,0,99
2,note_on,52,32,0
2,note_on,52,0,240
2,note_on,43,48,0
2,note_on,43,0,113
2,note_on,55,32,0
2,note_on,55,0,240
2,note_on,47,48,0
2,note_on,47,0,353
2,note_on,54,28,0
2,note_on,59,32,0
2,note_on,59,0,960
2,note_on,54,0,0
2,note_on,40,81,0
2,note_on,40,0,92
2,note_on,52,57,240
2,note_on,55,57,0
2,note_on,59,64,0
2,note_on,59,0,960
2,note_on,55,0,0
2,note_on,52,0,0
2,note_on,40,81,0
2,note_on,40,0,354
2,note_on,52,57,0
2,note_on,54,57,0
2,note_on,57,57,0
2,note_on,60,64,0
2,note_on,60,0,960
2,note_on,52,0,0
2,note_on,54,0,0
2,note_on,57,0,0
2,note_on,55,64,0
2,note_on,59,51,125
2,note_on,64,57,0
2,note_on,64,0,240
2,note_on,59,0,0
2,note_on,55,0,0
2,note_on,54,64,0
2,note_on,59,51,103
2,note_on,63,57,0
2,note_on,63,0,240
2,note_on,59,0,0
2,note_on,54,0,0
2,note_on,52,64,0
2,note_on,59,51,103
2,note_on,64,57,0
2,note_on,64,0,240
2,note_on,59,0,0
2,note_on,52,0,0
2,note_on,47,64,0
2,note_on,47,0,365
2,note_on,63,56,0
2,note_on,59,50,0
2,note_on,59,0,960
2,note_on,63,0,0
2,note_on,47,81,0
2,note_on,47,0,325
2,note_on,59,57,0
2,note_on,63,57,0
2,note_on,66,64,0
2,note_on,66,0,960
2,note_on,63,0,0
2,note_on,59,0,0
2,note_on,52,81,0
2,note_on,52,0,261
2,note_on,64,64,0
2,note_on,59,57,0
2,note_on,59,0,960
2,note_on,64,0,0
2,note_on,43,57,0
2,note_on,43,0,76
2,note_on,55,45,0
2,note_on,55,0,240
2,note_on,40,64,0
2,note_on,40,0,101
2,note_on,52,54,0
2,note_on,52,0,240
2,note_on,43,57,0
2,note_on,43,0,101
2,note_on,55,45,0
2,note_on,55,0,240
2,note_on,42,64,0
2,note_on,42,0,360
2,note_on,54,50,0
2,note_on,58,50,0
2,note_on,61,56,0
2,note_on,61,0,960
2,note_on,58,0,0
2,note_on,54,0,0
2,note_on,47,48,0
2,note_on,47,0,339
2,note_on,54,28,0
2,note_on,59,32,0
2,note_on,59,0,960
2,note_on,54,0,0
2,note_on,40,48,0
2,note_on,40,0,274
2,note_on,52,28,0
2,note_on,55,32,0
2,note_on,55,0,960
2,note_on,52,0,0
2,note_on,42,48,0
2,note_on,42,0,296
2,note_on,54,28,0
2,note_on,58,32,0
2,note_on,58,0,480
2,note_on,54,0,0
2,note_on,42,48,0
2,note_on,42,0,480
2,note_on,35,48,0
2,note_on,35,0,317
2,note_on,47,28,0
2,note_on,50,28,0
2,note_on,54,32,0
2,note_on,54,0,960
2,note_on,50,0,0
2,note_on,47,0,0
2,note_on,40,73,0
2,note_on,40,0,21
2,note_on,52,60,240
2,note_on,55,60,0
2,note_on,58,67,0
2,note_on,58,0,960
2,note_on,55,0,0
2,note_on,52,0,0
2,note_on,35,48,0
2,note_on,35,0,240
2,note_on,50,28,0
2,note_on,54,32,0
2,note_on,54,0,960
2,note_on,50,0,0
2,note_on,42,48,0
2,note_on,42,0,473
2,note_on,54,48,0
2,note_on,54,0,960
2,note_on,35,48,0
2,note_on,35,0,289
2,note_on,47,28,0
2,note_on,50,28,0
2,note_on,54,32,0
2,note_on,54,0,960
2,note_on,50,0,0
2,note_on,47,0,0
2,note_on,40,71,0
2,note_on,40,0,70
2,note_on,58,64,240
2,note_on,55,57,0
2,note_on,52,57,0
2,note_on,52,0,960
2,note_on,55,0,0
2,note_on,58,0,0
2,note_on,35,48,0
2,note_on,35,0,303
2,note_on,50,28,0
2,note_on,54,32,0
2,note_on,54,0,960
2,note_on,50,0,0
2,note_on,42,48,0
2,note_on,42,0,474
2,note_on,54,47,0
2,note_on,54,0,960
2,note_on,35,48,0
2,note_on,35,0,289
2,note_on,47,28,0
2,note_on,50,28,0
2,note_on,54,32,0
2,note_on,54,0,960
2,note_on,50,0,0
2,note_on,47,0,0
2,note_on,35,81,0
2,note_on,35,0,303
2,note_on,47,54,0
2,note_on,50,54,0
2,note_on,54,60,0
2,note_on,54,0,960
2,note_on,50,0,0
2,note_on,47,0,0
2,note_on,35,81,0
2,note_on,35,0,310
2,note_on,47,54,0
2,note_on,50,54,0
2,note_on,54,60,0
2,note_on,54,0,960
2,note_on,50,0,0
2,note_on,47,0,0
2,note_on,35,73,0
2,note_on,35,0,346
2,note_on,47,54,0
2,note_on,50,54,0
2,note_on,54,60,0
2,note_on,54,0,480
2,note_on,50,0,0
2,note_on,47,0,0
2,note_on,35,73,0
2,note_on,35,0,360
2,note_on,47,54,0
2,note_on,50,54,0
2,note_on,54,60,0
2,note_on,54,0,480
2,note_on,50,0,0
2,note_on,47,0,0
2,note_on,35,74,0
2,note_on,35,0,374
2,note_on,47,54,0
2,note_on,50,54,0
2,note_on,54,60,0
2,note_on,54,0,480
2,note_on,50,0,0
2,note_on,47,0,0
2,note_on,34,72,0
2,note_on,34,0,308
2,note_on,46,54,0
2,note_on,51,54,0
2,note_on,54,60,0
2,note_on,54,0,960
2,note_on,51,0,0
2,note_on,46,0,0
2,note_on,34,81,0
2,note_on,34,0,343
2,note_on,46,54,0
2,note_on,51,54,0
2,note_on,54,60,0
2,note_on,54,0,960
2,note_on,51,0,0
2,note_on,46,0,0
2,note_on,34,83,0
2,note_on,34,0,360
2,note_on,46,58,0
2,note_on,51,58,0
2,note_on,54,65,0
2,note_on,54,0,480
2,note_on,51,0,0
2,note_on,46,0,0
2,note_on,34,86,0
2,note_on,34,0,343
2,note_on,46,60,0
2,note_on,51,60,0
2,note_on,54,67,0
2,note_on,54,0,480
2,note_on,51,0,0
2,note_on,46,0,0
2,note_on,34,87,0
2,note_on,34,0,400
2,note_on,46,61,0
2,note_on,51,61,0
2,note_on,54,68,0
2,note_on,54,0,480
2,note_on,51,0,0
2,note_on,46,0,0
2,note_on,32,75,0
2,note_on,44,89,0
2,note_on,44,0,480
2,note_on,32,0,0
2,note_on,53,80,0
2,note_on,51,72,0
2,note_on,47,72,0
2,note_on,44,72,0
2,note_on,44,0,960
2,note_on,53,0,0
2,note_on,51,0,0
2,note_on,47,0,0
2,note_on,47,63,0
2,note_on,54,71,0
2,note_on,51,63,0
2,note_on,44,63,0
2,note_on,44,0,960
2,note_on,47,0,0
2,note_on,54,0,0
2,note_on,51,0,0
2,note_on,54,76,0
2,note_on,51,68,0
2,note_on,47,68,0
2,note_on,44,68,0
2,note_on,44,0,480
2,note_on,54,0,0
2,note_on,51,0,0
2,note_on,47,0,0
2,note_on,59,76,0
2,note_on,56,68,0
2,note_on,53,68,0
2,note_on,46,68,0
2,note_on,46,0,2771
2,note_on,59,0,0
2,note_on,56,0,0
2,note_on,53,0,0
2,note_on,58,50,0
2,note_on,56,45,0
2,note_on,53,45,0
2,note_on,46,45,0
2,note_on,46,0,2731
2,note_on,58,0,0
2,note_on,56,0,0
2,note_on,53,0,0
2,note_on,51,32,0
2,note_on,58,23,480
2,note_on,58,0,960
2,note_on,51,0,0
2,note_on,53,36,0
2,note_on,58,27,480
2,note_on,58,0,475
2,note_on,53,0,485
2,note_on,55,41,0
2,note_on,58,29,480
2,note_on,58,0,960
2,note_on,55,0,0
2,note_on,50,45,0
2,note_on,58,31,480
2,note_on,58,0,960
2,note_on,50,0,0
2,note_on,51,42,0
2,note_on,58,31,480
2,note_on,58,0,960
2,note_on,51,0,0
2,note_on,44,41,0
2,note_on,44,0,480
2,note_on,60,29,0
2,note_on,56,26,0
2,note_on,56,0,960
2,note_on,60,0,0
2,note_on,46,40,0
2,note_on,46,0,480
2,note_on,56,27,0
2,note_on,62,30,0
2,note_on,58,27,0
2,note_on,58,0,960
2,note_on,62,0,0
2,note_on,56,0,0
2,note_on,51,45,0
2,note_on,51,0,480
2,note_on,63,30,0
2,note_on,58,27,0
2,note_on,55,27,0
2,note_on,55,0,960
2,note_on,58,0,0
2,note_on,63,0,0
2,note_on,51,48,0
2,note_on,58,41,480
2,note_on,58,0,960
2,note_on,51,0,0
2,note_on,53,52,0
2,note_on,58,40,480
2,note_on,58,0,475
2,note_on,53,0,485
2,note_on,55,56,0
2,note_on,58,45,480
2,note_on,58,0,960
2,note_on,55,0,0
2,note_on,50,56,0
2,note_on,58,42,480
2,note_on,58,0,960
2,note_on,50,0,0
2,note_on,51,51,0
2,note_on,58,40,480
2,note_on,58,0,960
2,note_on,51,0,0
2,note_on,44,60,0
2,note_on,44,0,480
2,note_on,60,47,0
2,note_on,56,42,0
2,note_on,56,0,960
2,note_on,60,0,0
2,note_on,46,59,0
2,note_on,46,0,480
2,note_on,56,40,0
2,note_on,62,45,0
2,note_on,58,40,0
2,note_on,58,0,960
2,note_on,62,0,0
2,note_on,56,0,0
2,note_on,51,60,0
2,note_on,51,0,480
2,note_on,63,46,0
2,note_on,58,41,0
2,note_on,55,41,0
2,note_on,55,0,960
2,note_on,58,0,0
2,note_on,63,0,0
2,note_on,51,58,0
2,note_on,58,46,480
2,note_on,58,0,960
2,note_on,51,0,0
2,note_on,53,56,0
2,note_on,58,45,480
2,note_on,58,0,960
2,note_on,53,0,0
2,note_on,55,56,0
2,note_on,58,45,480
2,note_on,58,0,960
2,note_on,55,0,0
2,note_on,50,70,0
2,note_on,58,54,480
2,note_on,58,0,960
2,note_on,50,0,0
2,note_on,51,54,0
2,note_on,58,46,480
2,note_on,58,0,960
2,note_on,51,0,0
2,note_on,44,47,0
2,note_on,44,0,480
2,note_on,60,41,0
2,note_on,56,36,0
2,note_on,56,0,960
2,note_on,60,0,0
2,note_on,46,47,0
2,note_on,46,0,480
2,note_on,56,36,0
2,note_on,62,40,0
2,note_on,58,36,0
2,note_on,58,0,960
2,note_on,62,0,0
2,note_on,56,0,0
2,note_on,51,40,0
2,note_on,51,0,480
2,note_on,63,35,0
2,note_on,58,31,0
2,note_on,55,31,0
2,note_on,55,0,960
2,note_on,58,0,0
2,note_on,63,0,0
2,note_on,39,44,0
2,note_on,51,32,480
2,note_on,51,0,960
2,note_on,39,0,0
2,note_on,44,42,0
2,note_on,56,32,360
2,note_on,56,0,743
2,note_on,44,0,0
2,note_on,37,44,0
2,note_on,49,32,463
2,note_on,49,0,960
2,note_on,37,0,0
2,note_on,42,43,0
2,note_on,54,32,417
2,note_on,54,0,847
2,note_on,42,0,0
2,note_on,35,44,0
2,note_on,47,32,460
2,note_on,47,0,960
2,note_on,35,0,0
2,note_on,41,42,0
2,note_on,53,32,400
2,note_on,53,0,800
2,note_on,41,0,0
2,note_on,34,44,0
2,note_on,46,32,462
2,note_on,46,0,960
2,note_on,34,0,0
2,note_on,39,43,0
2,note_on,51,32,383
2,note_on,51,0,874
2,note_on,39,0,0
2,note_on,44,43,0
2,note_on,56,32,308
2,note_on,56,0,805
2,note_on,44,0,0
2,note_on,46,41,0
2,note_on,58,41,346
2,note_on,46,0,296
2,note_on,51,40,0
2,note_on,51,0,1424
2,note_on,58,0,0
2,note_on,42,41,0
2,note_on,49,33,480
2,note_on,49,0,960
2,note_on,42,0,0
2,note_on,44,39,0
2,note_on,50,53,417
2,note_on,50,0,356
2,note_on,49,33,0
2,note_on,49,0,480
2,note_on,44,0,0
2,note_on,42,39,0
2,note_on,49,33,463
2,note_on,49,0,960
2,note_on,42,0,0
2,note_on,44,40,0
2,note_on,50,55,408
2,note_on,50,0,342
2,note_on,49,33,0
2,note_on,49,0,480
2,note_on,44,0,0
2,note_on,46,39,0
2,note_on,54,43,360
2,note_on,46,0,828
2,note_on,47,40,0
2,note_on,54,0,383
2,note_on,56,43,0
2,note_on,47,0,840
2,note_on,49,43,0
2,note_on,56,0,460
2,note_on,59,37,0
2,note_on,59,0,960
2,note_on,49,0,0
2,note_on,58,43,0
2,note_on,54,38,0
2,note_on,54,0,960
2,note_on,58,0,0
2,note_on,46,43,480
2,note_on,59,33,480
2,note_on,56,29,0
2,note_on,53,29,0
2,note_on,53,0,960
2,note_on,46,0,0
2,note_on,59,0,0
2,note_on,56,0,0
2,note_on,46,43,0
2,note_on,59,32,480
2,note_on,56,28,0
2,note_on,53,28,0
2,note_on,53,0,960
2,note_on,46,0,0
2,note_on,59,0,0
2,note_on,56,0,0
2,note_on,46,43,0
2,note_on,53,28,480
2,note_on,56,28,0
2,note_on,59,32,0
2,note_on,59,0,2400
2,note_on,46,0,0
2,note_on,53,0,0
2,note_on,56,0,0
2,note_on,58,43,0
2,note_on,71,32,480
2,note_on,68,28,0
2,note_on,65,28,0
2,note_on,65,0,960
2,note_on,58,0,0
2,note_on,71,0,0
2,note_on,68,0,0
2,note_on,58,43,0
2,note_on,71,32,480
2,note_on,68,28,0
2,note_on,65,28,0
2,note_on,71,0,1360
2,note_on,70,43,0
2,note_on,70,0,1306
2,note_on,65,0,0
2,note_on,68,0,0
2,note_on,58,0,0
2,note_on,51,41,0
2,note_on,58,30,464
2,note_on,58,0,960
2,note_on,51,0,0
2,note_on,53,41,0
2,note_on,58,32,480
2,note_on,58,0,475
2,note_on,53,0,485
2,note_on,55,41,0
2,note_on,58,32,480
2,note_on,58,0,960
2,note_on,55,0,0
2,note_on,50,41,0
2,note_on,58,32,480
2,note_on,58,0,960
2,note_on,50,0,0
2,note_on,51,40,0
2,note_on,58,31,480
2,note_on,58,0,960
2,note_on,51,0,0
2,note_on,44,41,0
2,note_on,44,0,480
2,note_on,60,32,0
2,note_on,56,28,0
2,note_on,56,0,960
2,note_on,60,0,0
2,note_on,46,41,0
2,note_on,46,0,480
2,note_on,56,28,0
2,note_on,65,32,0
2,note_on,58,28,0
2,note_on,58,0,960
2,note_on,65,0,0
2,note_on,56,0,0
2,note_on,51,45,0
2,note_on,51,0,480
2,note_on,63,36,0
2,note_on,58,32,0
2,note_on,55,32,0
2,note_on,55,0,960
2,note_on,58,0,0
2,note_on,63,0,0
2,note_on,51,44,0
2,note_on,58,35,480
2,note_on,58,0,960
2,note_on,51,0,0
2,note_on,53,42,0
2,note_on,58,34,480
2,note_on,58,0,960
2,note_on,53,0,0
2,note_on,55,40,0
2,note_on,58,32,480
2,note_on,58,0,960
2,note_on,55,0,0
2,note_on,50,48,0
2,note_on,58,40,480
2,note_on,58,0,960
2,note_on,50,0,0
2,note_on,49,47,0
2,note_on,51,34,480
2,note_on,58,38,0
2,note_on,58,0,960
2,note_on,51,0,0
2,note_on,49,0,0
2,note_on,48,56,0
2,note_on,51,32,480
2,note_on,56,36,0
2,note_on,56,0,960
2,note_on,51,0,0
2,note_on,48,0,0
2,note_on,48,60,0
2,note_on,50,33,480
2,note_on,57,37,0
2,note_on,57,0,960
2,note_on,50,0,0
2,note_on,48,0,0
2,note_on,47,63,0
2,note_on,50,36,480
2,note_on,55,41,0
2,note_on,55,0,960
2,note_on,50,0,0
2,note_on,47,0,0
2,note_on,46,64,0
2,note_on,48,38,480
2,note_on,55,43,0
2,note_on,55,0,960
2,note_on,48,0,0
2,note_on,46,0,0
2,note_on,44,68,0
2,note_on,48,37,480
2,note_on,53,42,0
2,note_on,53,0,960
2,note_on,48,0,0
2,note_on,44,0,0
2,note_on,46,68,0
2,note_on,56,40,480
2,note_on,53,36,0
2,note_on,53,0,960
2,note_on,56,0,0
2,note_on,46,0,0
2,note_on,51,72,0
2,note_on,63,56,480
2,note_on,63,0,960
2,note_on,51,0,0
2,note_on,44,72,0
2,note_on,56,56,480
2,note_on,56,0,960
2,note_on,44,0,0
2,note_on,46,72,0
2,note_on,58,56,480
2,note_on,58,0,960
2,note_on,46,0,0
2,note_on,39,72,0
2,note_on,51,53,480
2,note_on,51,0,960
2,note_on,39,0,0
2,note_on,32,79,0
2,note_on,44,57,480
2,note_on,44,0,960
2,note_on,32,0,0
2,note_on,34,76,0
2,note_on,46,57,480
2,note_on,46,0,960
2,note_on,34,0,0
2,note_on,39,64,0
2,note_on,39,0,480
2,note_on,46,72,0
2,note_on,50,81,0
2,note_on,50,0,960
2,note_on,46,0,0
2,note_on,39,64,0
2,note_on,39,0,240
2,note_on,46,72,240
2,note_on,50,81,0
2,note_on,50,0,960
2,note_on,46,0,0
2,note_on,39,64,0
2,note_on,39,0,240
2,note_on,46,72,240
2,note_on,50,81,0
2,note_on,50,0,960
2,note_on,46,0,0
2,note_on,39,72,0
2,note_on,39,0,160
2,note_on,41,72,0
2,note_on,41,0,160
2,note_on,42,74,0
2,note_on,42,0,160
2,note_on,44,76,0
2,note_on,44,0,160
2,note_on,46,78,0
2,note_on,46,0,160
2,note_on,48,80,0
2,note_on,48,0,160
2,note_on,50,81,0
2,note_on,50,0,160
2,note_on,51,82,0
2,note_on,51,0,160
2,note_on,53,84,0
2,note_on,53,0,160
2,note_on,54,86,0
2,note_on,54,0,960
2,note_on,42,73,480
2,note_on,54,82,0
2,note_on,54,0,960
2,note_on,42,0,0
2,note_on,35,65,480
2,note_on,35,0,183
2,note_on,47,59,240
2,note_on,50,59,0
2,note_on,54,66,0
2,note_on,54,0,960
2,note_on,50,0,0
2,note_on,47,0,0
2,note_on,35,67,0
2,note_on,35,0,103
2,note_on,47,57,240
2,note_on,49,57,0
2,note_on,52,57,0
2,note_on,55,64,0
2,note_on,55,0,960
2,note_on,47,0,0
2,note_on,49,0,0
2,note_on,52,0,0
2,note_on,50,72,0
2,note_on,54,58,123
2,note_on,59,65,0
2,note_on,59,0,240
2,note_on,54,0,0
2,note_on,50,0,0
2,note_on,49,80,0
2,note_on,54,62,104
2,note_on,58,69,0
2,note_on,58,0,240
2,note_on,54,0,0
2,note_on,49,0,0
2,note_on,47,72,0
2,note_on,54,57,155
2,note_on,59,64,0
2,note_on,59,0,240
2,note_on,54,0,0
2,note_on,47,0,0
2,note_on,42,72,0
2,note_on,42,0,365
2,note_on,54,57,0
2,note_on,58,64,0
2,note_on,58,0,960
2,note_on,54,0,0
2,note_on,46,80,0
2,note_on,46,0,324
2,note_on,56,57,0
2,note_on,53,57,0
2,note_on,58,64,0
2,note_on,58,0,960
2,note_on,53,0,0
2,note_on,56,0,0
2,note_on,39,80,0
2,note_on,39,0,303
2,note_on,51,57,0
2,note_on,54,57,0
2,note_on,58,64,0
2,note_on,58,0,960
2,note_on,54,0,0
2,note_on,51,0,0
2,note_on,46,64,0
2,note_on,46,0,297
2,note_on,56,57,0
2,note_on,62,64,0
2,note_on,58,57,0
2,note_on,58,0,480
2,note_on,62,0,0
2,note_on,56,0,0
2,note_on,46,64,0
2,note_on,46,0,480
2,note_on,51,81,0
2,note_on,51,0,348
2,note_on,58,64,0
2,note_on,54,57,0
2,note_on,54,0,960
2,note_on,58,0,0
2,note_on,35,82,0
2,note_on,35,0,354
2,note_on,54,79,0
2,note_on,50,71,0
2,note_on,47,71,0
2,note_on,47,0,960
2,note_on,50,0,0
2,note_on,54,0,0
2,note_on,35,85,0
2,note_on,35,0,354
2,note_on,49,69,0
2,note_on,52,69,0
2,note_on,55,77,0
2,note_on,47,69,0
2,note_on,47,0,960
2,note_on,49,0,0
2,note_on,52,0,0
2,note_on,55,0,0
2,note_on,50,64,0
2,note_on,54,64,136
2,note_on,59,72,0
2,note_on,59,0,240
2,note_on,54,0,0
2,note_on,50,0,0
2,note_on,49,64,0
2,note_on,54,64,136
2,note_on,58,72,0
2,note_on,58,0,240
2,note_on,54,0,0
2,note_on,49,0,0
2,note_on,47,64,0
2,note_on,54,64,129
2,note_on,59,72,0
2,note_on,59,0,240
2,note_on,54,0,0
2,note_on,47,0,0
2,note_on,42,97,0
2,note_on,42,0,348
2,note_on,58,81,0
2,note_on,54,72,0
2,note_on,54,0,960
2,note_on,58,0,0
2,note_on,46,97,0
2,note_on,46,0,324
2,note_on,53,72,0
2,note_on,56,72,0
2,note_on,58,81,0
2,note_on,58,0,960
2,note_on,56,0,0
2,note_on,53,0,0
2,note_on,39,97,0
2,note_on,39,0,320
2,note_on,51,72,0
2,note_on,54,72,0
2,note_on,58,81,0
2,note_on,58,0,960
2,note_on,54,0,0
2,note_on,51,0,0
2,note_on,46,72,0
2,note_on,46,0,285
2,note_on,56,72,0
2,note_on,62,81,0
2,note_on,58,72,0
2,note_on,58,0,480
2,note_on,62,0,0
2,note_on,56,0,0
2,note_on,46,72,0
2,note_on,46,0,480
2,note_on,51,85,0
2,note_on,51,0,320
2,note_on,63,74,0
2,note_on,58,66,0
2,note_on,54,66,0
2,note_on,54,0,960
2,note_on,58,0,0
2,note_on,63,0,0
2,note_on,46,90,0
2,note_on,46,0,303
2,note_on,68,74,0
2,note_on,65,66,0
2,note_on,62,66,0
2,note_on,58,66,0
2,note_on,58,0,960
2,note_on,68,0,0
2,note_on,65,0,0
2,note_on,62,0,0
2,note_on,51,88,0
2,note_on,51,0,337
2,note_on,66,74,0
2,note_on,63,66,0
2,note_on,58,66,0
2,note_on,58,0,960
2,note_on,63,0,0
2,note_on,66,0,0
2,note_on,56,64,0
2,note_on,59,64,0
2,note_on,65,72,0
2,note_on,65,0,331
2,note_on,59,0,0
2,note_on,56,0,0
2,note_on,66,73,0
2,note_on,63,65,0
2,note_on,58,65,0
2,note_on,58,0,365
2,note_on,63,0,0
2,note_on,66,0,0
2,note_on,58,65,0
2,note_on,65,65,0
2,note_on,68,73,0
2,note_on,68,0,343
2,note_on,65,0,0
2,note_on,58,0,0
2,note_on,51,85,0
2,note_on,51,0,348
2,note_on,66,74,0
2,note_on,63,66,0
2,note_on,58,66,0
2,note_on,58,0,960
2,note_on,63,0,0
2,note_on,66,0,0
2,note_on,46,88,0
2,note_on,46,0,317
2,note_on,68,74,0
2,note_on,65,66,0
2,note_on,62,66,0
2,note_on,58,66,0
2,note_on,58,0,960
2,note_on,68,0,0
2,note_on,65,0,0
2,note_on,62,0,0
2,note_on,51,88,0
2,note_on,51,0,348
2,note_on,66,74,0
2,note_on,63,66,0
2,note_on,58,66,0
2,note_on,58,0,960
2,note_on,63,0,0
2,note_on,66,0,0
2,note_on,56,65,0
2,note_on,59,65,0
2,note_on,65,73,0
2,note_on,65,0,331
2,note_on,59,0,0
2,note_on,56,0,0
2,note_on,66,73,0
2,note_on,63,65,0
2,note_on,58,65,0
2,note_on,58,0,354
2,note_on,63,0,0
2,note_on,66,0,0
2,note_on,58,65,0
2,note_on,65,65,0
2,note_on,68,73,0
2,note_on,68,0,331
2,note_on,65,0,0
2,note_on,58,0,0
2,note_on,51,85,0
2,note_on,51,0,314
2,note_on,66,74,0
2,note_on,63,66,0
2,note_on,58,66,0
2,note_on,58,0,960
2,note_on,63,0,0
2,note_on,66,0,0
2,note_on,56,64,0
2,note_on,59,64,0
2,note_on,65,72,0
2,note_on,65,0,343
2,note_on,59,0,0
2,note_on,56,0,0
2,note_on,66,73,0
2,note_on,63,65,0
2,note_on,58,65,0
2,note_on,58,0,354
2,note_on,63,0,0
2,note_on,66,0,0
2,note_on,58,65,0
2,note_on,65,65,0
2,note_on,68,73,0
2,note_on,68,0,343
2,note_on,65,0,0
2,note_on,58,0,0
2,note_on,63,81,0
2,note_on,58,72,0
2,note_on,54,72,0
2,note_on,51,72,0
2,note_on,51,0,845
2,note_on,63,0,0
2,note_on,58,0,0
2,note_on,54,0,0
2,note_on,56,57,0
2,note_on,59,57,0
2,note_on,63,63,0
2,note_on,51,57,0
2,note_on,51,0,234
2,note_on,56,0,0
2,note_on,59,0,0
2,note_on,63,0,0
2,note_on,54,73,240
2,note_on,63,82,0
2,note_on,58,73,0
2,note_on,51,73,0
2,note_on,51,0,874
2,note_on,54,0,0
2,note_on,63,0,0
2,note_on,58,0,0
2,note_on,56,57,0
2,note_on,63,64,0
2,note_on,59,57,0
2,note_on,51,57,0
2,note_on,51,0,233
2,note_on,56,0,0
2,note_on,63,0,0
2,note_on,59,0,0
2,note_on,51,86,240
2,note_on,46,77,0
2,note_on,42,77,0
2,note_on,39,77,0
2,note_on,39,0,874
2,note_on,51,0,0
2,note_on,46,0,0
2,note_on,42,0,0
2,note_on,44,61,0
2,note_on,51,68,0
2,note_on,47,61,0
2,note_on,39,61,0
2,note_on,39,0,231
2,note_on,44,0,0
2,note_on,51,0,0
2,note_on,47,0,0
2,note_on,51,81,240
2,note_on,46,72,0
2,note_on,42,72,0
2,note_on,39,72,0
2,note_on,39,0,885
2,note_on,51,0,0
2,note_on,46,0,0
2,note_on,42,0,0
2,note_on,47,64,0
2,note_on,44,57,0
2,note_on,39,57,0
2,note_on,39,0,228
2,note_on,44,0,0
2,note_on,47,0,0
2,note_on,39,72,240
2,note_on,42,72,0
2,note_on,46,72,0
2,note_on,51,72,0
2,note_on,54,72,0
2,note_on,58,80,0
2,note_on,58,0,240
2,note_on,42,0,0
2,note_on,46,0,0
2,note_on,39,0,0
2,note_on,54,0,0
2,note_on,51,0,0
2,note_on,59,80,240
2,note_on,56,72,0
2,note_on,51,72,0
2,note_on,47,72,0
2,note_on,44,72,0
2,note_on,39,72,0
2,note_on,39,0,240
2,note_on,56,0,0
2,note_on,51,0,0
2,note_on,59,0,0
2,note_on,44,0,0
2,note_on,47,0,0
2,note_on,51,72,240
2,note_on,39,72,0
2,note_on,42,72,0
2,note_on,46,72,0
2,note_on,54,72,0
2,note_on,58,80,0
2,note_on,58,0,240
2,note_on,39,0,0
2,note_on,42,0,0
2,note_on,51,0,0
2,note_on,54,0,0
2,note_on,46,0,0
2,note_on,59,80,240
2,note_on,56,72,0
2,note_on,51,72,0
2,note_on,47,72,0
2,note_on,44,72,0
2,note_on,39,72,0
2,note_on,39,0,240
2,note_on,56,0,0
2,note_on,51,0,0
2,note_on,59,0,0
2,note_on,44,0,0
2,note_on,47,0,0
2,note_on,51,72,240
2,note_on,39,72,0
2,note_on,42,72,0
2,note_on,46,72,0
2,note_on,54,72,0
2,note_on,58,80,0
2,note_on,58,0,240
2,note_on,39,0,0
2,note_on,42,0,0
2,note_on,51,0,0
2,note_on,54,0,0
2,note_on,46,0,0
2,note_on,51,72,240
2,note_on,59,80,0
2,note_on,56,72,0
2,note_on,47,72,0
2,note_on,44,72,0
2,note_on,39,72,0
2,note_on,39,0,240
2,note_on,59,0,0
2,note_on,56,0,0
2,note_on,51,0,0
2,note_on,44,0,0
2,note_on,47,0,0
2,note_on,34,78,240
2,note_on,46,87,0
2,note_on,46,0,80
2,note_on,34,0,0
2,note_on,46,78,960
2,note_on,39,78,0
2,note_on,51,87,0
2,note_on,51,0,91
2,note_on,39,0,0
2,note_on,46,0,0
