Track,Message Type,Note,Velocity,Time
1,note_on,55,40,480
1,note_on,55,0,120
1,note_on,57,32,0
1,note_on,57,0,120
1,note_on,55,34,0
1,note_on,55,0,120
1,note_on,50,34,0
1,note_on,50,0,120
1,note_on,62,40,0
1,note_on,62,0,120
1,note_on,50,40,240
1,note_on,55,40,0
1,note_on,55,0,90
1,note_on,50,0,0
1,note_on,54,46,30
1,note_on,48,46,0
1,note_on,48,0,90
1,note_on,54,0,0
1,note_on,60,43,390
1,note_on,60,0,120
1,note_on,62,37,0
1,note_on,62,0,120
1,note_on,60,37,0
1,note_on,60,0,120
1,note_on,57,37,0
1,note_on,57,0,120
1,note_on,69,49,0
1,note_on,69,0,120
1,note_on,50,44,240
1,note_on,60,44,0
1,note_on,60,0,90
1,note_on,50,0,0
1,note_on,58,48,30
1,note_on,50,48,0
1,note_on,50,0,90
1,note_on,58,0,0
1,note_on,55,40,390
1,note_on,55,0,120
1,note_on,57,34,0
1,note_on,57,0,120
1,note_on,55,34,0
1,note_on,55,0,120
1,note_on,50,34,0
1,note_on,50,0,120
1,note_on,67,50,0
1,note_on,67,0,90
1,note_on,55,44,270
1,note_on,65,44,0
1,note_on,65,0,90
1,note_on,55,0,0
1,note_on,63,47,30
1,note_on,55,47,0
1,note_on,55,0,90
1,note_on,63,0,0
1,note_on,55,40,270
1,note_on,62,40,0
1,note_on,62,0,90
1,note_on,55,0,0
1,note_on,60,44,30
1,note_on,55,44,0
1,note_on,55,0,90
1,note_on,60,0,0
1,note_on,58,50,270
1,note_on,58,0,90
1,note_on,57,46,30
1,note_on,61,46,0
1,note_on,61,0,90
1,note_on,57,0,0
1,note_on,55,40,270
1,note_on,55,0,90
1,note_on,54,50,30
1,note_on,62,50,0
1,note_on,62,0,90
1,note_on,54,0,0
1,note_on,74,72,390
1,note_on,62,61,480
1,note_on,74,0,360
1,note_on,72,58,0
1,note_on,72,0,120
1,note_on,70,65,0
1,note_on,70,0,90
1,note_on,69,55,270
1,note_on,69,0,90
1,note_on,62,0,30
1,note_on,67,64,0
1,note_on,70,64,0
1,note_on,67,0,90
1,note_on,65,56,270
1,note_on,65,0,90
1,note_on,70,0,30
1,note_on,63,64,0
1,note_on,63,0,90
1,note_on,62,56,270
1,note_on,62,0,90
1,note_on,60,64,30
1,note_on,60,0,90
1,note_on,77,68,390
1,note_on,65,61,480
1,note_on,77,0,360
1,note_on,75,58,0
1,note_on,75,0,120
1,note_on,74,65,0
1,note_on,74,0,90
1,note_on,72,55,270
1,note_on,72,0,90
1,note_on,65,0,30
1,note_on,70,64,0
1,note_on,74,64,0
1,note_on,70,0,90
1,note_on,69,56,270
1,note_on,69,0,90
1,note_on,74,0,30
1,note_on,67,64,0
1,note_on,67,0,90
1,note_on,65,56,270
1,note_on,65,0,90
1,note_on,64,64,30
1,note_on,64,0,90
1,note_on,81,70,390
1,note_on,69,61,480
1,note_on,81,0,360
1,note_on,79,58,0
1,note_on,79,0,120
1,note_on,78,65,0
1,note_on,78,0,90
1,note_on,75,55,270
1,note_on,75,0,90
1,note_on,69,0,30
1,note_on,74,64,0
1,note_on,78,64,0
1,note_on,74,0,90
1,note_on,72,56,270
1,note_on,72,0,90
1,note_on,78,0,30
1,note_on,79,64,0
1,note_on,70,64,0
1,note_on,70,0,90
1,note_on,79,0,0
1,note_on,69,56,270
1,note_on,69,0,90
1,note_on,67,64,30
1,note_on,67,0,90
1,note_on,70,71,390
1,note_on,70,0,480
1,note_on,69,52,0
1,note_on,73,62,0
1,note_on,69,0,360
1,note_on,67,58,0
1,note_on,67,0,120
1,note_on,73,0,0
1,note_on,66,56,0
1,note_on,74,61,0
1,note_on,74,0,90
1,note_on,66,0,0
1,note_on,63,51,270
1,note_on,63,0,90
1,note_on,66,59,30
1,note_on,62,59,0
1,note_on,62,0,90
1,note_on,60,50,270
1,note_on,60,0,120
1,note_on,66,0,0
1,note_on,67,57,0
1,note_on,58,57,0
1,note_on,58,0,90
1,note_on,67,0,0
1,note_on,57,49,270
1,note_on,57,0,90
1,note_on,55,57,30
1,note_on,55,0,90
1,note_on,58,61,390
1,note_on,58,0,480
1,note_on,61,55,0
1,note_on,57,55,0
1,note_on,57,0,90
1,note_on,55,47,270
1,note_on,55,0,90
1,note_on,61,0,30
1,note_on,54,54,0
1,note_on,62,54,0
1,note_on,62,0,240
1,note_on,54,0,0
1,note_on,55,40,240
1,note_on,55,0,120
1,note_on,57,32,0
1,note_on,57,0,120
1,note_on,55,34,0
1,note_on,55,0,120
1,note_on,50,34,0
1,note_on,50,0,120
1,note_on,62,40,0
1,note_on,62,0,90
1,note_on,55,40,270
1,note_on,50,40,0
1,note_on,50,0,90
1,note_on,55,0,0
1,note_on,48,46,30
1,note_on,54,46,0
1,note_on,54,0,90
1,note_on,48,0,0
1,note_on,60,43,390
1,note_on,60,0,120
1,note_on,62,37,0
1,note_on,62,0,120
1,note_on,60,37,0
1,note_on,60,0,120
1,note_on,57,37,0
1,note_on,57,0,120
1,note_on,69,49,0
1,note_on,69,0,90
1,note_on,60,44,270
1,note_on,50,44,0
1,note_on,50,0,90
1,note_on,60,0,0
1,note_on,50,48,30
1,note_on,58,48,0
1,note_on,58,0,90
1,note_on,50,0,0
1,note_on,55,40,390
1,note_on,55,0,120
1,note_on,57,34,0
1,note_on,57,0,120
1,note_on,55,34,0
1,note_on,55,0,120
1,note_on,50,34,0
1,note_on,50,0,120
1,note_on,67,50,0
1,note_on,67,0,90
1,note_on,65,44,270
1,note_on,55,44,0
1,note_on,55,0,90
1,note_on,65,0,0
1,note_on,63,47,30
1,note_on,55,47,0
1,note_on,55,0,90
1,note_on,63,0,0
1,note_on,55,40,270
1,note_on,62,40,0
1,note_on,62,0,90
1,note_on,55,0,0
1,note_on,55,44,30
1,note_on,60,44,0
1,note_on,60,0,90
1,note_on,55,0,0
1,note_on,58,50,270
1,note_on,58,0,90
1,note_on,57,46,30
1,note_on,61,46,0
1,note_on,61,0,90
1,note_on,57,0,0
1,note_on,55,40,270
1,note_on,55,0,90
1,note_on,54,50,30
1,note_on,62,50,0
1,note_on,62,0,120
1,note_on,54,0,0
1,note_on,74,72,360
1,note_on,62,61,480
1,note_on,74,0,360
1,note_on,72,58,0
1,note_on,72,0,120
1,note_on,70,65,0
1,note_on,70,0,90
1,note_on,69,55,270
1,note_on,69,0,90
1,note_on,62,0,30
1,note_on,67,64,0
1,note_on,70,64,0
1,note_on,67,0,90
1,note_on,65,56,270
1,note_on,65,0,90
1,note_on,70,0,30
1,note_on,63,64,0
1,note_on,63,0,90
1,note_on,62,56,270
1,note_on,62,0,90
1,note_on,60,64,30
1,note_on,60,0,90
1,note_on,77,68,390
1,note_on,65,61,480
1,note_on,77,0,360
1,note_on,75,58,0
1,note_on,75,0,120
1,note_on,74,65,0
1,note_on,74,0,90
1,note_on,72,55,270
1,note_on,72,0,90
1,note_on,65,0,30
1,note_on,70,64,0
1,note_on,74,64,0
1,note_on,70,0,90
1,note_on,69,56,270
1,note_on,69,0,90
1,note_on,74,0,30
1,note_on,67,64,0
1,note_on,67,0,90
1,note_on,65,56,270
1,note_on,65,0,90
1,note_on,64,64,30
1,note_on,64,0,90
1,note_on,81,70,390
1,note_on,69,61,480
1,note_on,81,0,360
1,note_on,79,58,0
1,note_on,79,0,120
1,note_on,78,65,0
1,note_on,78,0,90
1,note_on,75,55,270
1,note_on,75,0,90
1,note_on,69,0,30
1,note_on,74,64,0
1,note_on,78,64,0
1,note_on,74,0,90
1,note_on,72,56,270
1,note_on,72,0,90
1,note_on,78,0,30
1,note_on,79,64,0
1,note_on,70,64,0
1,note_on,70,0,90
1,note_on,79,0,0
1,note_on,69,56,270
1,note_on,69,0,90
1,note_on,67,64,30
1,note_on,67,0,90
1,note_on,70,71,390
1,note_on,70,0,480
1,note_on,69,52,0
1,note_on,73,62,0
1,note_on,69,0,360
1,note_on,67,58,0
1,note_on,67,0,120
1,note_on,73,0,0
1,note_on,74,61,0
1,note_on,66,56,0
1,note_on,66,0,90
1,note_on,74,0,0
1,note_on,63,51,270
1,note_on,63,0,90
1,note_on,62,59,30
1,note_on,66,59,0
1,note_on,62,0,90
1,note_on,60,50,270
1,note_on,60,0,90
1,note_on,66,0,30
1,note_on,67,57,0
1,note_on,58,57,0
1,note_on,58,0,90
1,note_on,67,0,0
1,note_on,57,49,270
1,note_on,57,0,90
1,note_on,55,57,30
1,note_on,55,0,90
1,note_on,58,61,390
1,note_on,58,0,480
1,note_on,57,55,0
1,note_on,61,55,0
1,note_on,57,0,90
1,note_on,55,47,270
1,note_on,55,0,90
1,note_on,61,0,30
1,note_on,62,54,0
1,note_on,54,54,0
1,note_on,54,0,240
1,note_on,62,0,0
1,note_on,70,58,240
1,note_on,58,40,480
1,note_on,70,0,360
1,note_on,66,50,0
1,note_on,66,0,120
1,note_on,67,56,0
1,note_on,67,0,360
1,note_on,69,51,0
1,note_on,69,0,120
1,note_on,58,0,0
1,note_on,70,57,0
1,note_on,58,40,480
1,note_on,70,0,360
1,note_on,66,54,0
1,note_on,66,0,120
1,note_on,67,61,0
1,note_on,67,0,360
1,note_on,69,52,0
1,note_on,69,0,120
1,note_on,58,0,0
1,note_on,70,57,0
1,note_on,70,0,240
1,note_on,58,47,0
1,note_on,58,0,240
1,note_on,74,64,0
1,note_on,74,0,240
1,note_on,72,57,0
1,note_on,72,0,240
1,note_on,74,66,0
1,note_on,74,0,240
1,note_on,72,63,0
1,note_on,72,0,240
1,note_on,70,59,0
1,note_on,70,0,160
1,note_on,67,51,0
1,note_on,67,0,160
1,note_on,63,51,0
1,note_on,63,0,160
1,note_on,62,57,0
1,note_on,57,36,0
1,note_on,62,0,360
1,note_on,60,47,0
1,note_on,60,0,120
1,note_on,57,0,0
1,note_on,58,54,0
1,note_on,58,0,240
1,note_on,77,58,240
1,note_on,65,40,480
1,note_on,77,0,360
1,note_on,73,50,0
1,note_on,73,0,120
1,note_on,74,56,0
1,note_on,74,0,360
1,note_on,75,51,0
1,note_on,75,0,120
1,note_on,65,0,0
1,note_on,77,57,0
1,note_on,65,40,480
1,note_on,77,0,360
1,note_on,73,54,0
1,note_on,73,0,120
1,note_on,74,61,0
1,note_on,74,0,360
1,note_on,75,52,0
1,note_on,75,0,120
1,note_on,65,0,0
1,note_on,77,57,0
1,note_on,77,0,240
1,note_on,65,47,0
1,note_on,65,0,240
1,note_on,81,64,0
1,note_on,81,0,240
1,note_on,79,57,0
1,note_on,79,0,240
1,note_on,81,66,0
1,note_on,81,0,240
1,note_on,79,63,0
1,note_on,79,0,240
1,note_on,77,59,0
1,note_on,77,0,160
1,note_on,74,51,0
1,note_on,74,0,160
1,note_on,70,51,0
1,note_on,70,0,160
1,note_on,64,36,0
1,note_on,69,57,0
1,note_on,69,0,360
1,note_on,67,47,0
1,note_on,67,0,120
1,note_on,64,0,0
1,note_on,65,54,0
1,note_on,65,0,240
1,note_on,82,58,240
1,note_on,70,40,480
1,note_on,82,0,360
1,note_on,77,50,0
1,note_on,77,0,120
1,note_on,78,60,0
1,note_on,78,0,360
1,note_on,80,57,0
1,note_on,80,0,120
1,note_on,70,0,0
1,note_on,82,62,0
1,note_on,70,40,480
1,note_on,82,0,360
1,note_on,77,57,0
1,note_on,77,0,120
1,note_on,78,63,0
1,note_on,78,0,360
1,note_on,80,55,0
1,note_on,80,0,120
1,note_on,70,0,0
1,note_on,82,60,0
1,note_on,82,0,240
1,note_on,73,50,0
1,note_on,73,0,240
1,note_on,89,65,0
1,note_on,89,0,240
1,note_on,87,60,0
1,note_on,87,0,240
1,note_on,89,66,0
1,note_on,89,0,240
1,note_on,87,63,0
1,note_on,87,0,240
1,note_on,85,62,0
1,note_on,85,0,160
1,note_on,82,57,0
1,note_on,82,0,160
1,note_on,78,51,0
1,note_on,78,0,160
1,note_on,72,36,0
1,note_on,77,57,0
1,note_on,77,0,360
1,note_on,75,47,0
1,note_on,75,0,120
1,note_on,72,0,0
1,note_on,73,54,0
1,note_on,73,0,240
1,note_on,80,58,240
1,note_on,68,40,480
1,note_on,80,0,360
1,note_on,75,50,0
1,note_on,75,0,120
1,note_on,77,56,0
1,note_on,77,0,360
1,note_on,78,51,0
1,note_on,78,0,120
1,note_on,68,0,0
1,note_on,80,57,0
1,note_on,68,40,480
1,note_on,80,0,360
1,note_on,75,54,0
1,note_on,75,0,120
1,note_on,77,61,0
1,note_on,77,0,360
1,note_on,78,52,0
1,note_on,78,0,120
1,note_on,68,0,0
1,note_on,80,57,0
1,note_on,80,0,240
1,note_on,70,47,0
1,note_on,70,0,240
1,note_on,84,64,0
1,note_on,84,0,240
1,note_on,82,57,0
1,note_on,82,0,240
1,note_on,84,66,0
1,note_on,84,0,240
1,note_on,82,63,0
1,note_on,82,0,240
1,note_on,80,59,0
1,note_on,80,0,160
1,note_on,77,51,0
1,note_on,77,0,160
1,note_on,73,51,0
1,note_on,73,0,160
1,note_on,72,57,0
1,note_on,67,36,0
1,note_on,72,0,360
1,note_on,70,47,0
1,note_on,70,0,120
1,note_on,67,0,0
1,note_on,68,54,0
1,note_on,68,0,240
1,note_on,68,40,720
1,note_on,63,34,0
1,note_on,60,34,0
1,note_on,60,0,960
1,note_on,63,0,0
1,note_on,68,0,0
1,note_on,69,52,0
1,note_on,69,0,840
1,note_on,62,45,0
1,note_on,62,0,120
1,note_on,63,50,0
1,note_on,63,0,360
1,note_on,65,45,0
1,note_on,65,0,120
1,note_on,60,50,0
1,note_on,66,51,0
1,note_on,66,0,1440
1,note_on,60,0,0
1,note_on,66,52,0
1,note_on,66,0,840
1,note_on,59,45,0
1,note_on,59,0,120
1,note_on,60,50,0
1,note_on,60,0,360
1,note_on,61,45,0
1,note_on,61,0,120
1,note_on,63,51,0
1,note_on,53,45,840
1,note_on,53,0,120
1,note_on,63,0,0
1,note_on,63,51,0
1,note_on,54,50,0
1,note_on,54,0,360
1,note_on,56,45,0
1,note_on,56,0,120
1,note_on,63,0,0
1,note_on,57,51,0
1,note_on,50,45,840
1,note_on,50,0,120
1,note_on,51,50,0
1,note_on,51,0,360
1,note_on,52,45,0
1,note_on,52,0,120
1,note_on,57,0,0
1,note_on,54,51,0
1,note_on,49,45,840
1,note_on,49,0,120
1,note_on,50,50,0
1,note_on,50,0,360
1,note_on,52,51,0
1,note_on,52,0,120
1,note_on,54,0,0
1,note_on,54,55,0
1,note_on,54,0,840
1,note_on,55,40,600
1,note_on,55,0,120
1,note_on,57,32,0
1,note_on,57,0,120
1,note_on,55,34,0
1,note_on,55,0,120
1,note_on,50,34,0
1,note_on,50,0,120
1,note_on,62,40,0
1,note_on,62,0,90
1,note_on,50,40,270
1,note_on,55,40,0
1,note_on,55,0,90
1,note_on,50,0,0
1,note_on,48,46,30
1,note_on,54,46,0
1,note_on,54,0,90
1,note_on,48,0,0
1,note_on,60,43,390
1,note_on,60,0,120
1,note_on,62,37,0
1,note_on,62,0,120
1,note_on,60,37,0
1,note_on,60,0,120
1,note_on,57,37,0
1,note_on,57,0,120
1,note_on,69,49,0
1,note_on,69,0,90
1,note_on,60,44,270
1,note_on,50,44,0
1,note_on,50,0,90
1,note_on,60,0,0
1,note_on,58,48,30
1,note_on,50,48,0
1,note_on,50,0,90
1,note_on,58,0,0
1,note_on,55,40,390
1,note_on,55,0,120
1,note_on,57,34,0
1,note_on,57,0,120
1,note_on,55,34,0
1,note_on,55,0,120
1,note_on,50,34,0
1,note_on,50,0,120
1,note_on,67,50,0
1,note_on,67,0,90
1,note_on,65,44,270
1,note_on,55,44,0
1,note_on,55,0,90
1,note_on,65,0,0
1,note_on,63,47,30
1,note_on,55,47,0
1,note_on,55,0,90
1,note_on,63,0,0
1,note_on,62,40,270
1,note_on,55,40,0
1,note_on,55,0,90
1,note_on,62,0,0
1,note_on,60,44,30
1,note_on,55,44,0
1,note_on,55,0,90
1,note_on,60,0,0
1,note_on,58,50,270
1,note_on,58,0,90
1,note_on,61,46,30
1,note_on,57,46,0
1,note_on,57,0,90
1,note_on,61,0,0
1,note_on,55,40,270
1,note_on,55,0,90
1,note_on,62,50,30
1,note_on,54,50,0
1,note_on,54,0,90
1,note_on,62,0,0
1,note_on,74,72,390
1,note_on,62,61,480
1,note_on,74,0,360
1,note_on,72,58,0
1,note_on,72,0,120
1,note_on,70,65,0
1,note_on,70,0,90
1,note_on,69,55,270
1,note_on,69,0,90
1,note_on,62,0,30
1,note_on,70,64,0
1,note_on,67,64,0
1,note_on,67,0,90
1,note_on,65,56,270
1,note_on,65,0,90
1,note_on,70,0,30
1,note_on,63,64,0
1,note_on,63,0,90
1,note_on,62,56,270
1,note_on,62,0,90
1,note_on,60,64,30
1,note_on,60,0,90
1,note_on,77,68,390
1,note_on,65,61,480
1,note_on,77,0,360
1,note_on,75,58,0
1,note_on,75,0,120
1,note_on,74,65,0
1,note_on,74,0,90
1,note_on,72,55,270
1,note_on,72,0,90
1,note_on,65,0,30
1,note_on,70,64,0
1,note_on,74,64,0
1,note_on,70,0,90
1,note_on,69,56,270
1,note_on,69,0,90
1,note_on,74,0,30
1,note_on,67,64,0
1,note_on,67,0,90
1,note_on,65,56,270
1,note_on,65,0,90
1,note_on,64,64,30
1,note_on,64,0,90
1,note_on,81,70,390
1,note_on,69,61,480
1,note_on,81,0,360
1,note_on,79,58,0
1,note_on,79,0,120
1,note_on,78,65,0
1,note_on,78,0,90
1,note_on,75,55,270
1,note_on,75,0,90
1,note_on,69,0,30
1,note_on,74,64,0
1,note_on,78,64,0
1,note_on,74,0,90
1,note_on,72,56,270
1,note_on,72,0,90
1,note_on,78,0,30
1,note_on,79,64,0
1,note_on,70,64,0
1,note_on,70,0,90
1,note_on,79,0,30
1,note_on,69,56,240
1,note_on,69,0,90
1,note_on,67,64,30
1,note_on,67,0,90
1,note_on,70,71,390
1,note_on,70,0,480
1,note_on,69,52,0
1,note_on,73,62,0
1,note_on,69,0,360
1,note_on,67,58,0
1,note_on,67,0,120
1,note_on,73,0,0
1,note_on,66,56,0
1,note_on,74,61,0
1,note_on,74,0,240
1,note_on,66,0,0
1,note_on,68,51,120
1,note_on,68,0,90
1,note_on,67,59,30
1,note_on,71,59,0
1,note_on,67,0,240
1,note_on,65,49,120
1,note_on,65,0,90
1,note_on,71,0,30
1,note_on,63,55,0
1,note_on,72,55,0
1,note_on,72,0,240
1,note_on,63,0,0
1,note_on,62,47,120
1,note_on,62,0,120
1,note_on,60,54,0
1,note_on,60,0,480
1,note_on,63,56,0
1,note_on,63,0,480
1,note_on,66,49,0
1,note_on,62,49,0
1,note_on,62,0,360
1,note_on,60,41,0
1,note_on,60,0,120
1,note_on,66,0,0
1,note_on,58,39,0
1,note_on,67,47,0
1,note_on,67,0,480
1,note_on,58,0,0
1,note_on,63,38,0
1,note_on,60,38,0
1,note_on,67,45,0
1,note_on,67,0,480
1,note_on,60,0,0
1,note_on,63,0,0
1,note_on,69,48,0
1,note_on,66,40,0
1,note_on,60,40,0
1,note_on,63,40,0
1,note_on,63,0,480
1,note_on,69,0,0
1,note_on,66,0,0
1,note_on,60,0,0
1,note_on,70,57,0
1,note_on,62,48,0
1,note_on,62,0,240
1,note_on,70,0,0
1,note_on,72,47,0
1,note_on,72,0,240
1,note_on,69,51,0
1,note_on,69,0,240
1,note_on,70,47,0
1,note_on,70,0,240
1,note_on,67,58,0
1,note_on,67,0,240
1,note_on,74,54,0
1,note_on,74,0,240
1,note_on,74,62,0
1,note_on,74,0,480
1,note_on,63,40,0
1,note_on,67,47,0
1,note_on,60,40,0
1,note_on,60,0,480
1,note_on,67,0,0
1,note_on,63,0,0
1,note_on,69,50,0
1,note_on,63,42,0
1,note_on,60,42,0
1,note_on,66,42,0
1,note_on,66,0,480
1,note_on,69,0,0
1,note_on,63,0,0
1,note_on,60,0,0
1,note_on,62,50,0
1,note_on,70,59,0
1,note_on,70,0,240
1,note_on,62,0,0
1,note_on,72,49,0
1,note_on,72,0,240
1,note_on,69,53,0
1,note_on,69,0,240
1,note_on,70,49,0
1,note_on,70,0,240
1,note_on,67,63,0
1,note_on,67,0,240
1,note_on,75,56,0
1,note_on,75,0,240
1,note_on,75,63,0
1,note_on,75,0,480
1,note_on,63,47,0
1,note_on,67,56,0
1,note_on,60,47,0
1,note_on,60,0,238
1,note_on,67,0,0
1,note_on,63,0,0
1,note_on,60,49,242
1,note_on,63,49,0
1,note_on,69,59,0
1,note_on,63,0,480
1,note_on,60,0,0
1,note_on,62,52,0
1,note_on,62,0,240
1,note_on,69,0,0
1,note_on,70,51,0
1,note_on,70,0,240
1,note_on,67,56,0
1,note_on,67,0,240
1,note_on,69,51,0
1,note_on,69,0,240
1,note_on,65,63,0
1,note_on,65,0,240
1,note_on,74,56,0
1,note_on,74,0,240
1,note_on,74,67,0
1,note_on,74,0,480
1,note_on,58,47,0
1,note_on,62,47,0
1,note_on,65,56,0
1,note_on,65,0,238
1,note_on,62,0,0
1,note_on,58,0,0
1,note_on,62,49,242
1,note_on,67,59,0
1,note_on,58,49,0
1,note_on,58,0,480
1,note_on,62,0,0
1,note_on,60,52,0
1,note_on,60,0,240
1,note_on,67,0,0
1,note_on,69,51,0
1,note_on,69,0,240
1,note_on,65,56,0
1,note_on,65,0,240
1,note_on,67,51,0
1,note_on,67,0,240
1,note_on,63,63,0
1,note_on,63,0,240
1,note_on,72,56,0
1,note_on,72,0,240
1,note_on,72,67,0
1,note_on,72,0,480
1,note_on,60,47,0
1,note_on,55,47,0
1,note_on,63,56,0
1,note_on,55,0,238
1,note_on,60,0,0
1,note_on,63,0,0
1,note_on,57,49,242
1,note_on,54,49,0
1,note_on,62,58,0
1,note_on,54,0,480
1,note_on,57,0,0
1,note_on,55,52,0
1,note_on,55,0,240
1,note_on,62,0,0
1,note_on,63,50,0
1,note_on,63,0,240
1,note_on,60,55,0
1,note_on,60,0,240
1,note_on,62,50,0
1,note_on,62,0,240
1,note_on,58,64,0
1,note_on,58,0,240
1,note_on,67,56,0
1,note_on,67,0,240
1,note_on,67,64,0
1,note_on,67,0,480
1,note_on,60,51,0
1,note_on,55,51,0
1,note_on,63,61,0
1,note_on,63,0,360
1,note_on,55,0,0
1,note_on,60,0,0
1,note_on,54,54,120
1,note_on,62,64,0
1,note_on,57,54,0
1,note_on,57,0,480
1,note_on,54,0,0
1,note_on,55,57,0
1,note_on,55,0,240
1,note_on,62,0,0
1,note_on,62,56,0
1,note_on,62,0,240
1,note_on,64,59,0
1,note_on,64,0,240
1,note_on,66,63,0
1,note_on,66,0,240
1,note_on,67,66,0
1,note_on,67,0,240
1,note_on,69,69,0
1,note_on,69,0,240
1,note_on,70,75,0
1,note_on,70,0,480
1,note_on,70,67,0
1,note_on,67,67,0
1,note_on,74,80,0
1,note_on,74,0,480
1,note_on,67,0,0
1,note_on,70,0,0
1,note_on,70,70,0
1,note_on,67,70,0
1,note_on,76,83,0
1,note_on,73,70,0
1,note_on,73,0,480
1,note_on,70,0,0
1,note_on,67,0,0
1,note_on,76,0,0
1,note_on,77,74,0
1,note_on,69,62,0
1,note_on,74,62,0
1,note_on,74,0,240
1,note_on,69,0,0
1,note_on,77,0,0
1,note_on,79,73,0
1,note_on,79,0,240
1,note_on,76,80,0
1,note_on,76,0,240
1,note_on,77,73,0
1,note_on,77,0,240
1,note_on,74,88,0
1,note_on,74,0,240
1,note_on,82,80,0
1,note_on,82,0,240
1,note_on,82,88,0
1,note_on,82,0,480
1,note_on,70,67,0
1,note_on,67,67,0
1,note_on,74,80,0
1,note_on,74,0,480
1,note_on,67,0,0
1,note_on,70,0,0
1,note_on,70,70,0
1,note_on,67,70,0
1,note_on,76,83,0
1,note_on,73,70,0
1,note_on,73,0,480
1,note_on,70,0,0
1,note_on,67,0,0
1,note_on,76,0,0
1,note_on,77,74,0
1,note_on,69,62,0
1,note_on,74,62,0
1,note_on,74,0,240
1,note_on,69,0,0
1,note_on,77,0,0
1,note_on,79,73,0
1,note_on,79,0,240
1,note_on,76,80,0
1,note_on,76,0,240
1,note_on,77,73,0
1,note_on,77,0,240
1,note_on,74,87,0
1,note_on,74,0,240
1,note_on,82,80,0
1,note_on,82,0,240
1,note_on,82,89,0
1,note_on,82,0,480
1,note_on,74,62,0
1,note_on,65,51,0
1,note_on,70,51,0
1,note_on,70,0,360
1,note_on,65,0,0
1,note_on,74,0,0
1,note_on,70,54,120
1,note_on,66,54,0
1,note_on,74,64,0
1,note_on,74,0,360
1,note_on,66,0,0
1,note_on,70,0,0
1,note_on,67,52,120
1,note_on,72,62,0
1,note_on,70,52,0
1,note_on,70,0,240
1,note_on,72,0,0
1,note_on,67,0,0
1,note_on,79,65,0
1,note_on,79,0,480
1,note_on,75,56,0
1,note_on,75,0,240
1,note_on,72,66,0
1,note_on,72,0,240
1,note_on,70,54,0
1,note_on,70,0,240
1,note_on,69,61,0
1,note_on,69,0,240
1,note_on,75,68,0
1,note_on,75,0,480
1,note_on,72,47,0
1,note_on,72,0,240
1,note_on,69,57,0
1,note_on,69,0,240
1,note_on,67,45,0
1,note_on,67,0,240
1,note_on,69,52,0
1,note_on,69,0,120
1,note_on,74,43,0
1,note_on,74,0,240
1,note_on,67,45,120
1,note_on,60,38,0
1,note_on,63,38,0
1,note_on,63,0,480
1,note_on,60,0,0
1,note_on,67,0,0
1,note_on,63,40,0
1,note_on,66,40,0
1,note_on,60,40,0
1,note_on,69,48,0
1,note_on,69,0,480
1,note_on,63,0,0
1,note_on,66,0,0
1,note_on,60,0,0
1,note_on,62,48,0
1,note_on,70,57,0
1,note_on,70,0,240
1,note_on,62,0,0
1,note_on,72,47,0
1,note_on,72,0,240
1,note_on,69,51,0
1,note_on,69,0,240
1,note_on,70,47,0
1,note_on,70,0,240
1,note_on,67,61,0
1,note_on,67,0,240
1,note_on,74,54,0
1,note_on,74,0,240
1,note_on,74,66,0
1,note_on,74,0,480
1,note_on,60,40,0
1,note_on,63,40,0
1,note_on,67,47,0
1,note_on,67,0,238
1,note_on,63,0,0
1,note_on,60,0,0
1,note_on,63,42,242
1,note_on,66,42,0
1,note_on,60,42,0
1,note_on,69,50,0
1,note_on,69,0,480
1,note_on,63,0,0
1,note_on,66,0,0
1,note_on,60,0,0
1,note_on,70,59,0
1,note_on,62,50,0
1,note_on,62,0,240
1,note_on,70,0,0
1,note_on,72,49,0
1,note_on,72,0,240
1,note_on,69,53,0
1,note_on,69,0,240
1,note_on,70,49,0
1,note_on,70,0,240
1,note_on,67,65,0
1,note_on,67,0,240
1,note_on,75,58,0
1,note_on,75,0,240
1,note_on,75,68,0
1,note_on,75,0,480
1,note_on,63,47,0
1,note_on,60,47,0
1,note_on,67,56,0
1,note_on,67,0,238
1,note_on,60,0,0
1,note_on,63,0,0
1,note_on,60,49,242
1,note_on,69,59,0
1,note_on,63,49,0
1,note_on,63,0,480
1,note_on,60,0,0
1,note_on,62,52,0
1,note_on,62,0,240
1,note_on,69,0,0
1,note_on,70,51,0
1,note_on,70,0,240
1,note_on,67,56,0
1,note_on,67,0,240
1,note_on,69,51,0
1,note_on,69,0,240
1,note_on,65,63,0
1,note_on,65,0,240
1,note_on,74,56,0
1,note_on,74,0,240
1,note_on,74,67,0
1,note_on,74,0,480
1,note_on,65,56,0
1,note_on,58,47,0
1,note_on,62,47,0
1,note_on,62,0,238
1,note_on,58,0,0
1,note_on,65,0,0
1,note_on,62,49,242
1,note_on,58,49,0
1,note_on,67,59,0
1,note_on,58,0,480
1,note_on,62,0,0
1,note_on,60,52,0
1,note_on,60,0,240
1,note_on,67,0,0
1,note_on,69,51,0
1,note_on,69,0,240
1,note_on,65,56,0
1,note_on,65,0,240
1,note_on,67,51,0
1,note_on,67,0,240
1,note_on,63,66,0
1,note_on,63,0,240
1,note_on,72,62,0
1,note_on,72,0,240
1,note_on,72,67,0
1,note_on,72,0,480
1,note_on,60,47,0
1,note_on,55,47,0
1,note_on,63,56,0
1,note_on,63,0,238
1,note_on,55,0,0
1,note_on,60,0,0
1,note_on,54,49,242
1,note_on,62,58,0
1,note_on,57,49,0
1,note_on,57,0,480
1,note_on,54,0,0
1,note_on,55,52,0
1,note_on,55,0,240
1,note_on,62,0,0
1,note_on,63,50,0
1,note_on,63,0,240
1,note_on,60,55,0
1,note_on,60,0,240
1,note_on,62,50,0
1,note_on,62,0,240
1,note_on,58,67,0
1,note_on,58,0,240
1,note_on,67,61,0
1,note_on,67,0,240
1,note_on,67,69,0
1,note_on,67,0,480
1,note_on,55,51,0
1,note_on,60,51,0
1,note_on,63,61,0
1,note_on,63,0,238
1,note_on,60,0,0
1,note_on,55,0,0
1,note_on,57,48,242
1,note_on,54,48,0
1,note_on,62,57,0
1,note_on,54,0,480
1,note_on,57,0,0
1,note_on,55,50,0
1,note_on,55,0,480
1,note_on,62,0,0
1,note_on,53,60,0
1,note_on,58,60,0
1,note_on,62,71,0
1,note_on,62,0,240
1,note_on,58,0,0
1,note_on,53,0,0
1,note_on,53,63,240
1,note_on,60,63,0
1,note_on,65,75,0
1,note_on,65,0,240
1,note_on,60,0,0
1,note_on,53,0,0
1,note_on,65,67,240
1,note_on,62,67,0
1,note_on,70,79,0
1,note_on,70,0,120
1,note_on,62,0,0
1,note_on,65,0,0
1,note_on,70,64,120
1,note_on,70,0,240
1,note_on,65,72,0
1,note_on,65,0,240
1,note_on,67,67,0
1,note_on,67,0,240
1,note_on,58,76,0
1,note_on,58,0,360
1,note_on,70,66,0
1,note_on,70,0,120
1,note_on,70,78,0
1,note_on,70,0,480
1,note_on,62,69,0
1,note_on,65,69,0
1,note_on,70,81,0
1,note_on,70,0,240
1,note_on,65,0,0
1,note_on,62,0,0
1,note_on,65,72,240
1,note_on,70,72,0
1,note_on,74,86,0
1,note_on,74,0,240
1,note_on,70,0,0
1,note_on,65,0,0
1,note_on,74,77,240
1,note_on,68,77,0
1,note_on,77,90,0
1,note_on,77,0,120
1,note_on,68,0,0
1,note_on,74,0,0
1,note_on,77,73,120
1,note_on,77,0,240
1,note_on,72,82,0
1,note_on,72,0,240
1,note_on,74,77,0
1,note_on,74,0,240
1,note_on,68,87,0
1,note_on,68,0,360
1,note_on,80,75,0
1,note_on,80,0,120
1,note_on,80,89,0
1,note_on,80,0,480
1,note_on,68,82,0
1,note_on,72,82,0
1,note_on,80,97,0
1,note_on,80,0,240
1,note_on,72,0,0
1,note_on,68,0,0
1,note_on,72,89,240
1,note_on,77,89,0
1,note_on,84,106,0
1,note_on,84,0,240
1,note_on,77,0,0
1,note_on,72,0,0
1,note_on,82,98,240
1,note_on,77,98,0
1,note_on,89,115,0
1,note_on,89,0,120
1,note_on,77,0,0
1,note_on,82,0,0
1,note_on,89,70,120
1,note_on,89,0,240
1,note_on,82,77,0
1,note_on,82,0,240
1,note_on,84,69,0
1,note_on,84,0,240
1,note_on,77,76,0
1,note_on,77,0,180
1,note_on,77,66,60
1,note_on,77,0,240
1,note_on,70,79,0
1,note_on,70,0,240
1,note_on,72,64,0
1,note_on,72,0,240
1,note_on,65,74,0
1,note_on,65,0,180
1,note_on,65,65,60
1,note_on,65,0,240
1,note_on,58,75,0
1,note_on,58,0,240
1,note_on,60,68,0
1,note_on,60,0,240
1,note_on,53,74,0
1,note_on,65,54,240
1,note_on,65,0,240
1,note_on,58,60,0
1,note_on,58,0,240
1,note_on,60,54,0
1,note_on,60,0,240
1,note_on,53,0,0
1,note_on,54,74,0
1,note_on,66,54,240
1,note_on,66,0,240
1,note_on,58,60,0
1,note_on,58,0,240
1,note_on,60,55,0
1,note_on,60,0,240
1,note_on,54,0,0
1,note_on,55,74,0
1,note_on,67,54,240
1,note_on,67,0,240
1,note_on,60,60,0
1,note_on,60,0,240
1,note_on,61,55,0
1,note_on,61,0,240
1,note_on,55,0,0
1,note_on,56,74,0
1,note_on,68,55,240
1,note_on,68,0,240
1,note_on,62,60,0
1,note_on,62,0,240
1,note_on,63,55,0
1,note_on,63,0,240
1,note_on,56,0,0
1,note_on,57,74,0
1,note_on,69,54,240
1,note_on,69,0,240
1,note_on,62,60,0
1,note_on,62,0,240
1,note_on,63,54,0
1,note_on,63,0,240
1,note_on,57,0,0
1,note_on,58,74,0
1,note_on,70,54,240
1,note_on,70,0,240
1,note_on,58,0,0
1,note_on,59,70,0
1,note_on,71,55,240
1,note_on,71,0,240
1,note_on,59,0,0
1,note_on,60,76,0
1,note_on,72,55,240
1,note_on,72,0,240
1,note_on,65,63,0
1,note_on,65,0,240
1,note_on,66,56,0
1,note_on,66,0,240
1,note_on,60,0,0
1,note_on,62,79,0
1,note_on,74,58,240
1,note_on,74,0,240
1,note_on,65,65,0
1,note_on,65,0,240
1,note_on,66,58,0
1,note_on,66,0,240
1,note_on,62,0,0
1,note_on,63,82,0
1,note_on,75,59,240
1,note_on,75,0,240
1,note_on,71,67,0
1,note_on,71,0,240
1,note_on,72,60,0
1,note_on,72,0,240
1,note_on,63,0,0
1,note_on,67,79,0
1,note_on,79,62,240
1,note_on,79,0,240
1,note_on,74,69,0
1,note_on,74,0,240
1,note_on,75,60,0
1,note_on,75,0,240
1,note_on,67,0,0
1,note_on,65,74,0
1,note_on,77,62,240
1,note_on,77,0,240
1,note_on,73,66,0
1,note_on,73,0,240
1,note_on,74,60,0
1,note_on,74,0,240
1,note_on,65,0,0
1,note_on,63,71,0
1,note_on,75,57,240
1,note_on,75,0,240
1,note_on,74,57,0
1,note_on,74,0,60
1,note_on,75,56,0
1,note_on,75,0,60
1,note_on,74,61,0
1,note_on,74,0,120
1,note_on,72,56,0
1,note_on,72,0,240
1,note_on,63,0,0
1,note_on,65,66,0
1,note_on,77,57,240
1,note_on,77,0,240
1,note_on,70,61,0
1,note_on,70,0,240
1,note_on,72,56,0
1,note_on,72,0,240
1,note_on,65,0,0
1,note_on,66,68,0
1,note_on,78,56,240
1,note_on,78,0,240
1,note_on,70,63,0
1,note_on,70,0,240
1,note_on,72,56,0
1,note_on,72,0,240
1,note_on,66,0,0
1,note_on,67,71,0
1,note_on,79,59,240
1,note_on,79,0,240
1,note_on,72,68,0
1,note_on,72,0,240
1,note_on,73,58,0
1,note_on,73,0,240
1,note_on,67,0,0
1,note_on,68,74,0
1,note_on,80,54,240
1,note_on,80,0,240
1,note_on,74,68,0
1,note_on,74,0,240
1,note_on,75,63,0
1,note_on,75,0,240
1,note_on,68,0,0
1,note_on,69,76,0
1,note_on,81,57,240
1,note_on,81,0,240
1,note_on,74,70,0
1,note_on,74,0,240
1,note_on,75,68,0
1,note_on,75,0,240
1,note_on,69,0,0
1,note_on,70,78,0
1,note_on,82,64,240
1,note_on,82,0,240
1,note_on,70,0,0
1,note_on,71,79,0
1,note_on,83,63,240
1,note_on,83,0,240
1,note_on,71,0,0
1,note_on,72,84,0
1,note_on,84,60,240
1,note_on,84,0,240
1,note_on,77,66,0
1,note_on,77,0,240
1,note_on,78,60,0
1,note_on,78,0,240
1,note_on,72,0,0
1,note_on,74,85,0
1,note_on,86,61,240
1,note_on,86,0,240
1,note_on,77,66,0
1,note_on,77,0,240
1,note_on,78,53,0
1,note_on,78,0,240
1,note_on,74,0,0
1,note_on,75,83,0
1,note_on,87,59,240
1,note_on,87,0,240
1,note_on,83,69,0
1,note_on,83,0,240
1,note_on,84,63,0
1,note_on,84,0,240
1,note_on,75,0,0
1,note_on,79,85,0
1,note_on,91,70,240
1,note_on,91,0,240
1,note_on,86,75,0
1,note_on,86,0,240
1,note_on,87,67,0
1,note_on,87,0,240
1,note_on,79,0,0
1,note_on,77,78,0
1,note_on,89,52,240
1,note_on,89,0,240
1,note_on,85,64,0
1,note_on,85,0,240
1,note_on,86,59,0
1,note_on,86,0,240
1,note_on,77,0,0
1,note_on,75,68,0
1,note_on,87,54,240
1,note_on,87,0,240
1,note_on,83,63,0
1,note_on,83,0,240
1,note_on,84,53,0
1,note_on,84,0,240
1,note_on,75,0,0
1,note_on,74,59,0
1,note_on,86,48,240
1,note_on,86,0,240
1,note_on,82,54,0
1,note_on,82,0,240
1,note_on,84,47,0
1,note_on,84,0,240
1,note_on,74,0,0
1,note_on,72,59,0
1,note_on,84,47,240
1,note_on,84,0,240
1,note_on,80,54,0
1,note_on,80,0,240
1,note_on,82,47,0
1,note_on,82,0,240
1,note_on,72,0,0
1,note_on,70,59,0
1,note_on,82,47,240
1,note_on,82,0,240
1,note_on,79,54,0
1,note_on,79,0,240
1,note_on,80,46,0
1,note_on,80,0,240
1,note_on,70,0,0
1,note_on,70,59,0
1,note_on,82,46,240
1,note_on,82,0,240
1,note_on,79,53,0
1,note_on,79,0,240
1,note_on,80,46,0
1,note_on,80,0,240
1,note_on,70,0,0
1,note_on,71,59,0
1,note_on,82,47,240
1,note_on,82,0,240
1,note_on,79,53,0
1,note_on,79,0,240
1,note_on,80,47,0
1,note_on,80,0,240
1,note_on,71,0,0
1,note_on,70,59,0
1,note_on,82,44,240
1,note_on,82,0,240
1,note_on,70,0,0
1,note_on,79,52,0
1,note_on,71,52,0
1,note_on,79,0,240
1,note_on,80,46,0
1,note_on,80,0,240
1,note_on,71,0,0
1,note_on,72,59,0
1,note_on,82,46,240
1,note_on,82,0,240
1,note_on,80,53,0
1,note_on,80,0,240
1,note_on,82,46,0
1,note_on,82,0,240
1,note_on,72,0,0
1,note_on,73,59,0
1,note_on,82,48,240
1,note_on,82,0,240
1,note_on,79,54,0
1,note_on,79,0,240
1,note_on,80,48,0
1,note_on,80,0,240
1,note_on,73,0,0
1,note_on,72,59,0
1,note_on,82,48,240
1,note_on,82,0,240
1,note_on,72,0,0
1,note_on,79,48,0
1,note_on,73,59,0
1,note_on,79,0,240
1,note_on,80,48,0
1,note_on,80,0,240
1,note_on,73,0,0
1,note_on,74,59,0
1,note_on,82,48,240
1,note_on,82,0,480
1,note_on,80,45,0
1,note_on,80,0,240
1,note_on,77,50,0
1,note_on,77,0,240
1,note_on,74,48,0
1,note_on,74,0,240
1,note_on,74,0,0
1,note_on,71,50,0
1,note_on,71,0,240
1,note_on,79,46,0
1,note_on,79,0,480
1,note_on,77,32,0
1,note_on,77,0,240
1,note_on,74,40,0
1,note_on,74,0,240
1,note_on,70,33,0
1,note_on,70,0,240
1,note_on,68,28,0
1,note_on,68,0,480
1,note_on,63,32,0
1,note_on,60,24,0
1,note_on,67,38,0
1,note_on,67,0,480
1,note_on,60,0,0
1,note_on,63,0,0
1,note_on,69,40,0
1,note_on,66,34,0
1,note_on,60,25,0
1,note_on,63,28,0
1,note_on,63,0,480
1,note_on,69,0,0
1,note_on,66,0,0
1,note_on,60,0,0
1,note_on,70,48,0
1,note_on,62,40,0
1,note_on,62,0,240
1,note_on,70,0,0
1,note_on,72,42,0
1,note_on,72,0,240
1,note_on,69,47,0
1,note_on,69,0,240
1,note_on,70,42,0
1,note_on,70,0,240
1,note_on,67,56,0
1,note_on,67,0,240
1,note_on,74,47,0
1,note_on,74,0,240
1,note_on,74,56,0
1,note_on,74,0,480
1,note_on,63,34,0
1,note_on,67,40,0
1,note_on,60,34,0
1,note_on,60,0,480
1,note_on,67,0,0
1,note_on,63,0,0
1,note_on,69,42,0
1,note_on,63,35,0
1,note_on,60,35,0
1,note_on,66,35,0
1,note_on,66,0,480
1,note_on,69,0,0
1,note_on,63,0,0
1,note_on,60,0,0
1,note_on,62,42,0
1,note_on,70,50,0
1,note_on,70,0,240
1,note_on,62,0,0
1,note_on,72,45,0
1,note_on,72,0,240
1,note_on,69,49,0
1,note_on,69,0,240
1,note_on,70,45,0
1,note_on,70,0,240
1,note_on,67,58,0
1,note_on,67,0,240
1,note_on,75,52,0
1,note_on,75,0,240
1,note_on,75,63,0
1,note_on,75,0,480
1,note_on,63,39,0
1,note_on,67,47,0
1,note_on,60,39,0
1,note_on,60,0,238
1,note_on,67,0,0
1,note_on,63,0,0
1,note_on,60,41,242
1,note_on,63,41,0
1,note_on,69,50,0
1,note_on,63,0,480
1,note_on,60,0,0
1,note_on,62,44,0
1,note_on,62,0,240
1,note_on,69,0,0
1,note_on,70,47,0
1,note_on,70,0,240
1,note_on,67,51,0
1,note_on,67,0,240
1,note_on,69,47,0
1,note_on,69,0,240
1,note_on,65,58,0
1,note_on,65,0,240
1,note_on,74,51,0
1,note_on,74,0,240
1,note_on,74,61,0
1,note_on,74,0,480
1,note_on,58,39,0
1,note_on,62,39,0
1,note_on,65,47,0
1,note_on,65,0,238
1,note_on,62,0,0
1,note_on,58,0,0
1,note_on,62,41,242
1,note_on,67,50,0
1,note_on,58,41,0
1,note_on,58,0,480
1,note_on,62,0,0
1,note_on,60,44,0
1,note_on,60,0,240
1,note_on,67,0,0
1,note_on,69,43,0
1,note_on,69,0,240
1,note_on,65,51,0
1,note_on,65,0,240
1,note_on,67,47,0
1,note_on,67,0,240
1,note_on,63,58,0
1,note_on,63,0,240
1,note_on,72,51,0
1,note_on,72,0,240
1,note_on,72,61,0
1,note_on,72,0,480
1,note_on,60,39,0
1,note_on,55,39,0
1,note_on,63,47,0
1,note_on,63,0,238
1,note_on,55,0,0
1,note_on,60,0,0
1,note_on,57,41,242
1,note_on,54,41,0
1,note_on,62,49,0
1,note_on,54,0,480
1,note_on,57,0,0
1,note_on,55,44,0
1,note_on,55,0,240
1,note_on,62,0,0
1,note_on,63,46,0
1,note_on,63,0,240
1,note_on,60,50,0
1,note_on,60,0,240
1,note_on,62,46,0
1,note_on,62,0,240
1,note_on,58,57,0
1,note_on,58,0,240
1,note_on,67,49,0
1,note_on,67,0,240
1,note_on,67,59,0
1,note_on,67,0,480
1,note_on,60,43,0
1,note_on,55,43,0
1,note_on,63,51,0
1,note_on,63,0,238
1,note_on,55,0,0
1,note_on,60,0,0
1,note_on,54,45,242
1,note_on,62,54,0
1,note_on,57,45,0
1,note_on,57,0,480
1,note_on,54,0,0
1,note_on,55,48,0
1,note_on,55,0,480
1,note_on,62,0,0
1,note_on,70,58,0
1,note_on,58,40,480
1,note_on,70,0,360
1,note_on,66,50,0
1,note_on,66,0,120
1,note_on,67,56,0
1,note_on,67,0,360
1,note_on,69,51,0
1,note_on,69,0,120
1,note_on,58,0,0
1,note_on,70,57,0
1,note_on,58,40,480
1,note_on,70,0,360
1,note_on,66,54,0
1,note_on,66,0,120
1,note_on,67,61,0
1,note_on,67,0,360
1,note_on,69,52,0
1,note_on,69,0,120
1,note_on,58,0,0
1,note_on,70,57,0
1,note_on,70,0,240
1,note_on,58,47,0
1,note_on,58,0,240
1,note_on,74,64,0
1,note_on,74,0,240
1,note_on,72,57,0
1,note_on,72,0,240
1,note_on,74,66,0
1,note_on,74,0,240
1,note_on,72,63,0
1,note_on,72,0,240
1,note_on,70,59,0
1,note_on,70,0,160
1,note_on,67,51,0
1,note_on,67,0,160
1,note_on,63,51,0
1,note_on,63,0,160
1,note_on,62,57,0
1,note_on,57,36,0
1,note_on,62,0,360
1,note_on,60,47,0
1,note_on,60,0,120
1,note_on,57,0,0
1,note_on,58,54,0
1,note_on,58,0,240
1,note_on,77,58,240
1,note_on,65,40,480
1,note_on,77,0,360
1,note_on,73,50,0
1,note_on,73,0,120
1,note_on,74,56,0
1,note_on,74,0,360
1,note_on,75,51,0
1,note_on,75,0,120
1,note_on,65,0,0
1,note_on,77,57,0
1,note_on,65,40,480
1,note_on,77,0,360
1,note_on,73,54,0
1,note_on,73,0,120
1,note_on,74,61,0
1,note_on,74,0,360
1,note_on,75,52,0
1,note_on,75,0,120
1,note_on,65,0,0
1,note_on,77,57,0
1,note_on,77,0,240
1,note_on,65,47,0
1,note_on,65,0,240
1,note_on,81,64,0
1,note_on,81,0,240
1,note_on,79,57,0
1,note_on,79,0,240
1,note_on,81,66,0
1,note_on,81,0,240
1,note_on,79,63,0
1,note_on,79,0,240
1,note_on,77,59,0
1,note_on,77,0,160
1,note_on,74,51,0
1,note_on,74,0,160
1,note_on,70,51,0
1,note_on,70,0,160
1,note_on,64,36,0
1,note_on,69,57,0
1,note_on,69,0,360
1,note_on,67,47,0
1,note_on,67,0,120
1,note_on,64,0,0
1,note_on,65,54,0
1,note_on,65,0,240
1,note_on,82,58,240
1,note_on,70,40,480
1,note_on,82,0,360
1,note_on,77,53,0
1,note_on,77,0,120
1,note_on,78,57,0
1,note_on,78,0,360
1,note_on,80,55,0
1,note_on,80,0,120
1,note_on,70,0,0
1,note_on,82,58,0
1,note_on,70,40,480
1,note_on,82,0,360
1,note_on,77,54,0
1,note_on,77,0,120
1,note_on,78,61,0
1,note_on,78,0,360
1,note_on,80,56,0
1,note_on,80,0,120
1,note_on,70,0,0
1,note_on,82,61,0
1,note_on,82,0,240
1,note_on,73,47,0
1,note_on,73,0,240
1,note_on,89,64,0
1,note_on,89,0,240
1,note_on,87,57,0
1,note_on,87,0,240
1,note_on,89,66,0
1,note_on,89,0,240
1,note_on,87,63,0
1,note_on,87,0,240
1,note_on,85,59,0
1,note_on,85,0,160
1,note_on,82,51,0
1,note_on,82,0,160
1,note_on,78,51,0
1,note_on,78,0,160
1,note_on,72,36,0
1,note_on,77,57,0
1,note_on,77,0,360
1,note_on,75,47,0
1,note_on,75,0,120
1,note_on,72,0,0
1,note_on,73,54,0
1,note_on,73,0,240
1,note_on,80,58,240
1,note_on,68,40,480
1,note_on,80,0,360
1,note_on,75,50,0
1,note_on,75,0,120
1,note_on,77,56,0
1,note_on,77,0,360
1,note_on,78,51,0
1,note_on,78,0,120
1,note_on,68,0,0
1,note_on,80,57,0
1,note_on,68,40,480
1,note_on,80,0,360
1,note_on,75,54,0
1,note_on,75,0,120
1,note_on,77,61,0
1,note_on,77,0,360
1,note_on,78,52,0
1,note_on,78,0,120
1,note_on,68,0,0
1,note_on,80,57,0
1,note_on,80,0,240
1,note_on,70,47,0
1,note_on,70,0,240
1,note_on,84,64,0
1,note_on,84,0,240
1,note_on,82,57,0
1,note_on,82,0,240
1,note_on,84,66,0
1,note_on,84,0,240
1,note_on,82,63,0
1,note_on,82,0,240
1,note_on,80,59,0
1,note_on,80,0,160
1,note_on,77,51,0
1,note_on,77,0,160
1,note_on,73,51,0
1,note_on,73,0,160
1,note_on,72,57,0
1,note_on,67,36,0
1,note_on,72,0,360
1,note_on,70,47,0
1,note_on,70,0,120
1,note_on,67,0,0
1,note_on,68,54,0
1,note_on,68,0,240
1,note_on,68,40,720
1,note_on,63,34,0
1,note_on,60,34,0
1,note_on,60,0,960
1,note_on,63,0,0
1,note_on,68,0,0
1,note_on,69,52,0
1,note_on,69,0,840
1,note_on,62,45,0
1,note_on,62,0,120
1,note_on,63,50,0
1,note_on,63,0,360
1,note_on,65,45,0
1,note_on,65,0,120
1,note_on,60,50,0
1,note_on,66,51,0
1,note_on,66,0,1440
1,note_on,60,0,0
1,note_on,66,52,0
1,note_on,66,0,840
1,note_on,59,45,0
1,note_on,59,0,120
1,note_on,60,50,0
1,note_on,60,0,360
1,note_on,61,45,0
1,note_on,61,0,120
1,note_on,63,51,0
1,note_on,53,45,840
1,note_on,53,0,120
1,note_on,63,0,0
1,note_on,63,51,0
1,note_on,54,50,0
1,note_on,54,0,360
1,note_on,56,45,0
1,note_on,56,0,120
1,note_on,63,0,0
1,note_on,57,51,0
1,note_on,50,45,840
1,note_on,50,0,120
1,note_on,51,50,0
1,note_on,51,0,360
1,note_on,52,45,0
1,note_on,52,0,120
1,note_on,57,0,0
1,note_on,54,51,0
1,note_on,49,45,840
1,note_on,49,0,120
1,note_on,50,50,0
1,note_on,50,0,360
1,note_on,52,51,0
1,note_on,52,0,120
1,note_on,54,0,0
1,note_on,54,55,0
1,note_on,54,0,480
1,note_on,55,40,960
1,note_on,55,0,120
1,note_on,57,32,0
1,note_on,57,0,120
1,note_on,55,34,0
1,note_on,55,0,120
1,note_on,50,34,0
1,note_on,50,0,120
1,note_on,62,40,0
1,note_on,62,0,90
1,note_on,50,40,270
1,note_on,55,40,0
1,note_on,55,0,90
1,note_on,50,0,0
1,note_on,48,46,30
1,note_on,54,46,0
1,note_on,54,0,90
1,note_on,48,0,0
1,note_on,60,43,390
1,note_on,60,0,120
1,note_on,62,37,0
1,note_on,62,0,120
1,note_on,60,37,0
1,note_on,60,0,120
1,note_on,57,37,0
1,note_on,57,0,120
1,note_on,69,49,0
1,note_on,69,0,90
1,note_on,60,44,270
1,note_on,50,44,0
1,note_on,50,0,90
1,note_on,60,0,0
1,note_on,58,48,30
1,note_on,50,48,0
1,note_on,50,0,90
1,note_on,58,0,0
1,note_on,55,40,390
1,note_on,55,0,120
1,note_on,57,34,0
1,note_on,57,0,120
1,note_on,55,34,0
1,note_on,55,0,120
1,note_on,50,34,0
1,note_on,50,0,120
1,note_on,67,50,0
1,note_on,67,0,90
1,note_on,65,44,270
1,note_on,55,44,0
1,note_on,55,0,90
1,note_on,65,0,0
1,note_on,63,47,30
1,note_on,55,47,0
1,note_on,55,0,90
1,note_on,63,0,0
1,note_on,62,40,270
1,note_on,55,40,0
1,note_on,55,0,90
1,note_on,62,0,0
1,note_on,60,44,30
1,note_on,55,44,0
1,note_on,55,0,90
1,note_on,60,0,0
1,note_on,58,50,270
1,note_on,58,0,90
1,note_on,61,46,30
1,note_on,57,46,0
1,note_on,57,0,90
1,note_on,61,0,0
1,note_on,55,40,270
1,note_on,55,0,90
1,note_on,62,50,30
1,note_on,54,50,0
1,note_on,54,0,90
1,note_on,62,0,0
1,note_on,74,72,390
1,note_on,62,61,480
1,note_on,74,0,360
1,note_on,72,58,0
1,note_on,72,0,120
1,note_on,70,65,0
1,note_on,70,0,90
1,note_on,69,55,270
1,note_on,69,0,90
1,note_on,62,0,30
1,note_on,70,64,0
1,note_on,67,64,0
1,note_on,67,0,90
1,note_on,65,56,270
1,note_on,65,0,90
1,note_on,70,0,30
1,note_on,63,64,0
1,note_on,63,0,90
1,note_on,62,56,270
1,note_on,62,0,90
1,note_on,60,64,30
1,note_on,60,0,90
1,note_on,77,68,390
1,note_on,65,61,480
1,note_on,77,0,360
1,note_on,75,58,0
1,note_on,75,0,120
1,note_on,74,65,0
1,note_on,74,0,90
1,note_on,72,55,270
1,note_on,72,0,90
1,note_on,65,0,30
1,note_on,70,64,0
1,note_on,74,64,0
1,note_on,70,0,90
1,note_on,69,56,270
1,note_on,69,0,90
1,note_on,74,0,30
1,note_on,67,64,0
1,note_on,67,0,90
1,note_on,65,56,270
1,note_on,65,0,90
1,note_on,64,64,30
1,note_on,64,0,90
1,note_on,81,70,390
1,note_on,69,61,480
1,note_on,81,0,360
1,note_on,79,58,0
1,note_on,79,0,120
1,note_on,78,65,0
1,note_on,78,0,90
1,note_on,75,55,270
1,note_on,75,0,90
1,note_on,69,0,30
1,note_on,74,64,0
1,note_on,78,64,0
1,note_on,74,0,90
1,note_on,72,56,270
1,note_on,72,0,90
1,note_on,78,0,30
1,note_on,79,64,0
1,note_on,70,64,0
1,note_on,70,0,90
1,note_on,79,0,30
1,note_on,69,56,240
1,note_on,69,0,90
1,note_on,67,64,30
1,note_on,67,0,90
1,note_on,70,71,390
1,note_on,70,0,480
1,note_on,69,52,0
1,note_on,73,62,0
1,note_on,69,0,360
1,note_on,67,58,0
1,note_on,67,0,120
1,note_on,73,0,0
1,note_on,66,56,0
1,note_on,74,61,0
1,note_on,74,0,240
1,note_on,66,0,0
1,note_on,63,51,120
1,note_on,63,0,90
1,note_on,62,59,30
1,note_on,66,59,0
1,note_on,62,0,240
1,note_on,60,49,120
1,note_on,60,0,90
1,note_on,66,0,30
1,note_on,58,55,0
1,note_on,67,55,0
1,note_on,67,0,240
1,note_on,58,0,0
1,note_on,57,47,120
1,note_on,57,0,90
1,note_on,55,54,30
1,note_on,55,0,480
1,note_on,58,56,0
1,note_on,58,0,480
1,note_on,61,47,0
1,note_on,57,47,0
1,note_on,57,0,240
1,note_on,55,38,0
1,note_on,55,0,240
1,note_on,61,0,0
1,note_on,54,35,120
1,note_on,62,42,0
1,note_on,62,0,840
1,note_on,54,0,0
2,note_on,31,44,0
2,note_on,31,0,90
2,note_on,34,35,1230
2,note_on,34,0,90
2,note_on,33,40,30
2,note_on,33,0,90
2,note_on,30,33,1230
2,note_on,30,0,90
2,note_on,31,40,30
2,note_on,31,0,90
2,note_on,34,32,1230
2,note_on,34,0,90
2,note_on,36,37,30
2,note_on,36,0,90
2,note_on,38,33,270
2,note_on,38,0,90
2,note_on,39,38,30
2,note_on,39,0,90
2,note_on,51,40,390
2,note_on,51,0,90
2,note_on,38,45,390
2,note_on,50,45,0
2,note_on,50,0,90
2,note_on,38,0,0
2,note_on,30,40,870
2,note_on,30,0,480
2,note_on,31,44,0
2,note_on,31,0,240
2,note_on,55,60,240
2,note_on,55,0,840
2,note_on,53,51,0
2,note_on,53,0,120
2,note_on,51,58,0
2,note_on,51,0,90
2,note_on,50,51,270
2,note_on,50,0,90
2,note_on,48,57,30
2,note_on,48,0,90
2,note_on,46,50,270
2,note_on,46,0,90
2,note_on,33,40,30
2,note_on,33,0,480
2,note_on,34,44,0
2,note_on,34,0,240
2,note_on,58,60,240
2,note_on,58,0,840
2,note_on,57,51,0
2,note_on,57,0,120
2,note_on,55,58,0
2,note_on,55,0,90
2,note_on,53,51,270
2,note_on,53,0,90
2,note_on,52,57,30
2,note_on,52,0,90
2,note_on,50,50,270
2,note_on,50,0,90
2,note_on,37,40,30
2,note_on,37,0,480
2,note_on,38,44,0
2,note_on,38,0,240
2,note_on,62,58,240
2,note_on,62,0,840
2,note_on,60,51,0
2,note_on,60,0,90
2,note_on,58,58,30
2,note_on,58,0,90
2,note_on,57,51,270
2,note_on,57,0,90
2,note_on,55,57,30
2,note_on,55,0,90
2,note_on,53,50,270
2,note_on,53,0,90
2,note_on,52,57,30
2,note_on,52,0,90
2,note_on,51,50,270
2,note_on,51,0,90
2,note_on,50,58,30
2,note_on,50,0,90
2,note_on,50,60,390
2,note_on,50,0,840
2,note_on,48,45,0
2,note_on,48,0,120
2,note_on,46,51,0
2,note_on,46,0,90
2,note_on,45,44,270
2,note_on,45,0,90
2,note_on,43,52,30
2,note_on,43,0,90
2,note_on,41,42,270
2,note_on,41,0,90
2,note_on,40,48,30
2,note_on,40,0,90
2,note_on,39,35,270
2,note_on,39,0,90
2,note_on,38,41,30
2,note_on,38,0,90
2,note_on,36,29,270
2,note_on,36,0,90
2,note_on,34,35,30
2,note_on,34,0,90
2,note_on,33,28,270
2,note_on,33,0,90
2,note_on,31,35,30
2,note_on,31,0,90
2,note_on,34,35,270
2,note_on,34,0,90
2,note_on,33,40,30
2,note_on,33,0,90
2,note_on,30,33,1230
2,note_on,30,0,90
2,note_on,31,40,30
2,note_on,31,0,90
2,note_on,34,32,1230
2,note_on,34,0,90
2,note_on,36,37,30
2,note_on,36,0,90
2,note_on,38,33,270
2,note_on,38,0,90
2,note_on,39,38,30
2,note_on,39,0,90
2,note_on,51,40,390
2,note_on,51,0,90
2,note_on,38,45,390
2,note_on,50,45,0
2,note_on,50,0,120
2,note_on,38,0,0
2,note_on,30,40,840
2,note_on,30,0,480
2,note_on,31,44,0
2,note_on,31,0,240
2,note_on,55,60,240
2,note_on,55,0,840
2,note_on,53,51,0
2,note_on,53,0,120
2,note_on,51,58,0
2,note_on,51,0,90
2,note_on,50,51,270
2,note_on,50,0,90
2,note_on,48,57,30
2,note_on,48,0,90
2,note_on,46,50,270
2,note_on,46,0,90
2,note_on,33,40,30
2,note_on,33,0,480
2,note_on,34,44,0
2,note_on,34,0,240
2,note_on,58,60,240
2,note_on,58,0,840
2,note_on,57,51,0
2,note_on,57,0,120
2,note_on,55,58,0
2,note_on,55,0,90
2,note_on,53,51,270
2,note_on,53,0,90
2,note_on,52,57,30
2,note_on,52,0,90
2,note_on,50,50,270
2,note_on,50,0,90
2,note_on,37,40,30
2,note_on,37,0,480
2,note_on,38,44,0
2,note_on,38,0,240
2,note_on,62,58,240
2,note_on,62,0,840
2,note_on,60,51,0
2,note_on,60,0,120
2,note_on,58,58,0
2,note_on,58,0,90
2,note_on,57,51,270
2,note_on,57,0,90
2,note_on,55,57,30
2,note_on,55,0,90
2,note_on,53,50,270
2,note_on,53,0,90
2,note_on,52,57,30
2,note_on,52,0,90
2,note_on,51,50,270
2,note_on,51,0,90
2,note_on,50,58,30
2,note_on,50,0,90
2,note_on,50,60,390
2,note_on,50,0,840
2,note_on,48,45,0
2,note_on,48,0,120
2,note_on,46,51,0
2,note_on,46,0,90
2,note_on,45,44,270
2,note_on,45,0,90
2,note_on,43,52,30
2,note_on,43,0,90
2,note_on,41,45,270
2,note_on,41,0,90
2,note_on,40,50,30
2,note_on,40,0,90
2,note_on,39,50,270
2,note_on,39,0,90
2,note_on,38,50,30
2,note_on,38,0,240
2,note_on,38,40,720
2,note_on,46,40,0
2,note_on,38,0,480
2,note_on,39,40,0
2,note_on,39,0,480
2,note_on,46,0,0
2,note_on,38,40,480
2,note_on,46,40,0
2,note_on,38,0,480
2,note_on,39,40,0
2,note_on,39,0,480
2,note_on,46,0,0
2,note_on,36,33,420
2,note_on,51,40,60
2,note_on,36,0,960
2,note_on,48,40,0
2,note_on,48,0,480
2,note_on,51,0,0
2,note_on,53,36,0
2,note_on,41,36,0
2,note_on,53,0,360
2,note_on,51,32,0
2,note_on,51,0,120
2,note_on,41,0,0
2,note_on,46,37,0
2,note_on,50,37,0
2,note_on,50,0,240
2,note_on,46,0,0
2,note_on,41,28,660
2,note_on,49,32,30
2,note_on,57,36,30
2,note_on,57,0,480
2,note_on,49,0,0
2,note_on,41,0,0
2,note_on,58,40,0
2,note_on,50,40,0
2,note_on,50,0,480
2,note_on,58,0,0
2,note_on,41,29,420
2,note_on,49,32,30
2,note_on,57,36,30
2,note_on,57,0,480
2,note_on,49,0,0
2,note_on,41,0,0
2,note_on,58,40,0
2,note_on,50,40,0
2,note_on,50,0,480
2,note_on,58,0,0
2,note_on,46,33,420
2,note_on,53,33,30
2,note_on,62,40,30
2,note_on,62,0,480
2,note_on,46,0,0
2,note_on,62,40,0
2,note_on,53,0,480
2,note_on,55,40,0
2,note_on,55,0,480
2,note_on,62,0,0
2,note_on,60,36,0
2,note_on,48,36,0
2,note_on,60,0,360
2,note_on,58,32,0
2,note_on,58,0,120
2,note_on,48,0,0
2,note_on,53,37,0
2,note_on,57,37,0
2,note_on,57,0,240
2,note_on,53,0,0
2,note_on,50,32,660
2,note_on,58,36,30
2,note_on,65,40,30
2,note_on,58,0,390
2,note_on,50,0,0
2,note_on,51,27,0
2,note_on,54,33,30
2,note_on,58,40,30
2,note_on,66,40,30
2,note_on,65,0,10
2,note_on,58,0,470
2,note_on,51,0,0
2,note_on,54,0,0
2,note_on,66,0,0
2,note_on,50,33,420
2,note_on,58,36,30
2,note_on,65,40,30
2,note_on,50,0,300
2,note_on,65,0,90
2,note_on,58,0,0
2,note_on,51,27,0
2,note_on,54,31,30
2,note_on,58,35,30
2,note_on,66,40,30
2,note_on,66,0,480
2,note_on,51,0,0
2,note_on,54,0,0
2,note_on,58,0,0
2,note_on,54,33,420
2,note_on,61,33,30
2,note_on,70,40,30
2,note_on,70,0,480
2,note_on,54,0,0
2,note_on,70,40,0
2,note_on,61,0,480
2,note_on,63,40,0
2,note_on,63,0,480
2,note_on,70,0,0
2,note_on,66,36,0
2,note_on,56,36,0
2,note_on,56,0,480
2,note_on,66,0,0
2,note_on,61,37,0
2,note_on,65,37,0
2,note_on,65,0,240
2,note_on,61,0,0
2,note_on,44,28,660
2,note_on,51,32,30
2,note_on,60,36,30
2,note_on,60,0,480
2,note_on,51,0,0
2,note_on,44,0,0
2,note_on,61,40,0
2,note_on,53,40,0
2,note_on,53,0,480
2,note_on,61,0,0
2,note_on,44,29,420
2,note_on,51,32,30
2,note_on,60,36,30
2,note_on,60,0,480
2,note_on,51,0,0
2,note_on,44,0,0
2,note_on,61,40,0
2,note_on,53,40,0
2,note_on,53,0,480
2,note_on,61,0,0
2,note_on,49,33,420
2,note_on,56,33,30
2,note_on,65,40,30
2,note_on,65,0,480
2,note_on,49,0,0
2,note_on,65,40,0
2,note_on,56,0,480
2,note_on,58,40,0
2,note_on,58,0,480
2,note_on,65,0,0
2,note_on,61,36,0
2,note_on,51,36,0
2,note_on,51,0,480
2,note_on,61,0,0
2,note_on,56,37,0
2,note_on,60,37,0
2,note_on,60,0,240
2,note_on,56,0,0
2,note_on,54,49,240
2,note_on,44,32,480
2,note_on,54,0,360
2,note_on,50,42,0
2,note_on,50,0,120
2,note_on,51,47,0
2,note_on,51,0,360
2,note_on,53,43,0
2,note_on,53,0,120
2,note_on,44,0,0
2,note_on,54,49,0
2,note_on,44,32,480
2,note_on,54,0,480
2,note_on,44,0,480
2,note_on,51,46,0
2,note_on,44,32,480
2,note_on,51,0,360
2,note_on,47,43,0
2,note_on,47,0,120
2,note_on,48,47,0
2,note_on,48,0,360
2,note_on,49,42,0
2,note_on,49,0,120
2,note_on,44,0,0
2,note_on,51,47,0
2,note_on,44,32,480
2,note_on,44,0,1440
2,note_on,51,0,0
2,note_on,45,32,0
2,note_on,45,0,1440
2,note_on,47,32,0
2,note_on,47,0,1440
2,note_on,48,32,0
2,note_on,48,0,1200
2,note_on,50,45,0
2,note_on,50,0,240
2,note_on,52,51,0
2,note_on,52,0,240
2,note_on,54,54,0
2,note_on,54,0,720
2,note_on,31,44,0
2,note_on,31,0,840
2,note_on,34,35,0
2,note_on,34,0,90
2,note_on,33,40,30
2,note_on,33,0,90
2,note_on,30,33,1230
2,note_on,30,0,90
2,note_on,31,40,30
2,note_on,31,0,90
2,note_on,34,32,1230
2,note_on,34,0,90
2,note_on,36,37,30
2,note_on,36,0,90
2,note_on,38,33,270
2,note_on,38,0,90
2,note_on,39,38,30
2,note_on,39,0,90
2,note_on,51,40,390
2,note_on,51,0,90
2,note_on,38,45,390
2,note_on,50,45,0
2,note_on,50,0,90
2,note_on,38,0,0
2,note_on,30,40,870
2,note_on,30,0,480
2,note_on,31,44,0
2,note_on,31,0,240
2,note_on,55,60,240
2,note_on,55,0,840
2,note_on,53,51,0
2,note_on,53,0,120
2,note_on,51,58,0
2,note_on,51,0,90
2,note_on,50,51,270
2,note_on,50,0,90
2,note_on,48,57,30
2,note_on,48,0,90
2,note_on,46,50,270
2,note_on,46,0,90
2,note_on,33,40,30
2,note_on,33,0,480
2,note_on,34,44,0
2,note_on,34,0,240
2,note_on,58,60,240
2,note_on,58,0,840
2,note_on,57,51,0
2,note_on,57,0,120
2,note_on,55,58,0
2,note_on,55,0,90
2,note_on,53,51,270
2,note_on,53,0,90
2,note_on,52,57,30
2,note_on,52,0,90
2,note_on,50,50,270
2,note_on,50,0,90
2,note_on,37,40,30
2,note_on,37,0,480
2,note_on,38,44,0
2,note_on,38,0,240
2,note_on,62,58,240
2,note_on,62,0,840
2,note_on,60,51,0
2,note_on,60,0,120
2,note_on,58,58,0
2,note_on,58,0,90
2,note_on,57,51,270
2,note_on,57,0,90
2,note_on,55,57,30
2,note_on,55,0,90
2,note_on,53,50,270
2,note_on,53,0,90
2,note_on,52,57,30
2,note_on,52,0,90
2,note_on,51,50,270
2,note_on,51,0,90
2,note_on,50,58,30
2,note_on,50,0,240
2,note_on,55,60,240
2,note_on,55,0,840
2,note_on,53,43,0
2,note_on,53,0,120
2,note_on,51,48,0
2,note_on,51,0,240
2,note_on,50,40,120
2,note_on,50,0,120
2,note_on,50,38,0
2,note_on,48,48,0
2,note_on,48,0,240
2,note_on,46,38,120
2,note_on,46,0,90
2,note_on,45,43,30
2,note_on,45,0,360
2,note_on,44,30,0
2,note_on,44,0,120
2,note_on,43,32,0
2,note_on,43,0,480
2,note_on,50,0,0
2,note_on,48,31,0
2,note_on,55,37,0
2,note_on,55,0,480
2,note_on,48,0,0
2,note_on,48,38,0
2,note_on,57,45,0
2,note_on,57,0,420
2,note_on,48,0,0
2,note_on,43,42,0
2,note_on,43,0,60
2,note_on,58,47,0
2,note_on,58,0,240
2,note_on,60,36,0
2,note_on,60,0,240
2,note_on,57,42,0
2,note_on,57,0,240
2,note_on,58,38,0
2,note_on,58,0,240
2,note_on,55,52,0
2,note_on,55,0,240
2,note_on,62,46,0
2,note_on,62,0,240
2,note_on,62,54,0
2,note_on,62,0,480
2,note_on,48,32,0
2,note_on,55,38,0
2,note_on,55,0,480
2,note_on,48,0,0
2,note_on,48,39,0
2,note_on,57,47,0
2,note_on,57,0,420
2,note_on,48,0,0
2,note_on,43,44,0
2,note_on,43,0,60
2,note_on,58,49,0
2,note_on,58,0,240
2,note_on,60,37,0
2,note_on,60,0,240
2,note_on,57,44,0
2,note_on,57,0,240
2,note_on,58,39,0
2,note_on,58,0,240
2,note_on,55,55,0
2,note_on,55,0,240
2,note_on,63,47,0
2,note_on,63,0,240
2,note_on,63,56,0
2,note_on,63,0,480
2,note_on,48,34,0
2,note_on,55,40,0
2,note_on,55,0,238
2,note_on,48,0,0
2,note_on,41,41,242
2,note_on,53,49,0
2,note_on,41,0,480
2,note_on,46,51,0
2,note_on,46,0,240
2,note_on,53,0,0
2,note_on,58,39,0
2,note_on,58,0,240
2,note_on,55,46,0
2,note_on,55,0,240
2,note_on,57,41,0
2,note_on,57,0,240
2,note_on,53,55,0
2,note_on,53,0,240
2,note_on,62,48,0
2,note_on,62,0,240
2,note_on,62,58,0
2,note_on,62,0,480
2,note_on,46,34,0
2,note_on,53,40,0
2,note_on,53,0,238
2,note_on,46,0,0
2,note_on,39,41,242
2,note_on,51,49,0
2,note_on,39,0,480
2,note_on,45,51,0
2,note_on,45,0,240
2,note_on,51,0,0
2,note_on,57,39,0
2,note_on,57,0,240
2,note_on,53,46,0
2,note_on,53,0,240
2,note_on,55,41,0
2,note_on,55,0,240
2,note_on,51,55,0
2,note_on,51,0,240
2,note_on,60,48,0
2,note_on,60,0,240
2,note_on,60,58,0
2,note_on,60,0,480
2,note_on,36,34,0
2,note_on,48,40,0
2,note_on,48,0,238
2,note_on,36,0,0
2,note_on,38,41,242
2,note_on,50,49,0
2,note_on,38,0,480
2,note_on,43,51,0
2,note_on,43,0,240
2,note_on,50,0,0
2,note_on,51,38,0
2,note_on,51,0,240
2,note_on,48,45,0
2,note_on,48,0,240
2,note_on,50,40,0
2,note_on,50,0,240
2,note_on,46,56,0
2,note_on,46,0,240
2,note_on,55,49,0
2,note_on,55,0,240
2,note_on,55,59,0
2,note_on,55,0,480
2,note_on,36,37,0
2,note_on,48,44,0
2,note_on,48,0,360
2,note_on,36,0,0
2,note_on,38,45,120
2,note_on,50,54,0
2,note_on,38,0,480
2,note_on,43,56,0
2,note_on,43,0,240
2,note_on,50,0,0
2,note_on,50,49,0
2,note_on,50,0,240
2,note_on,52,55,0
2,note_on,52,0,240
2,note_on,54,59,0
2,note_on,54,0,240
2,note_on,55,62,0
2,note_on,55,0,240
2,note_on,57,66,0
2,note_on,57,0,240
2,note_on,58,69,0
2,note_on,58,0,480
2,note_on,55,48,0
2,note_on,58,48,0
2,note_on,62,57,0
2,note_on,62,0,480
2,note_on,58,0,0
2,note_on,55,0,0
2,note_on,55,59,0
2,note_on,58,59,0
2,note_on,61,59,0
2,note_on,64,70,0
2,note_on,64,0,420
2,note_on,55,0,0
2,note_on,58,0,0
2,note_on,61,0,0
2,note_on,50,60,0
2,note_on,57,60,30
2,note_on,65,73,30
2,note_on,65,0,240
2,note_on,57,0,0
2,note_on,50,0,0
2,note_on,67,56,0
2,note_on,67,0,240
2,note_on,64,66,0
2,note_on,64,0,240
2,note_on,65,59,0
2,note_on,65,0,240
2,note_on,62,78,0
2,note_on,62,0,240
2,note_on,70,68,0
2,note_on,70,0,240
2,note_on,70,80,0
2,note_on,70,0,480
2,note_on,55,48,0
2,note_on,58,48,0
2,note_on,62,57,0
2,note_on,62,0,480
2,note_on,58,0,0
2,note_on,55,0,0
2,note_on,55,59,0
2,note_on,58,59,0
2,note_on,61,59,0
2,note_on,64,70,0
2,note_on,64,0,420
2,note_on,55,0,0
2,note_on,58,0,0
2,note_on,61,0,0
2,note_on,50,60,0
2,note_on,57,60,30
2,note_on,65,73,30
2,note_on,65,0,240
2,note_on,57,0,0
2,note_on,50,0,0
2,note_on,67,56,0
2,note_on,67,0,240
2,note_on,64,66,0
2,note_on,64,0,240
2,note_on,65,59,0
2,note_on,65,0,240
2,note_on,62,77,0
2,note_on,62,0,240
2,note_on,70,68,0
2,note_on,70,0,240
2,note_on,70,80,0
2,note_on,70,0,480
2,note_on,50,37,0
2,note_on,58,37,0
2,note_on,62,44,0
2,note_on,62,0,360
2,note_on,58,0,0
2,note_on,50,0,0
2,note_on,50,45,120
2,note_on,58,45,0
2,note_on,62,54,0
2,note_on,62,0,360
2,note_on,58,0,0
2,note_on,50,0,0
2,note_on,51,49,120
2,note_on,58,49,0
2,note_on,60,58,0
2,note_on,60,0,240
2,note_on,58,0,0
2,note_on,51,0,0
2,note_on,67,62,0
2,note_on,67,0,480
2,note_on,63,45,0
2,note_on,63,0,240
2,note_on,60,55,0
2,note_on,60,0,240
2,note_on,58,45,0
2,note_on,58,0,240
2,note_on,53,42,0
2,note_on,57,50,0
2,note_on,57,0,240
2,note_on,53,0,0
2,note_on,63,47,0
2,note_on,63,0,480
2,note_on,60,41,0
2,note_on,60,0,240
2,note_on,57,45,0
2,note_on,57,0,240
2,note_on,55,41,0
2,note_on,55,0,240
2,note_on,54,35,0
2,note_on,57,40,0
2,note_on,57,0,120
2,note_on,54,0,0
2,note_on,62,39,0
2,note_on,62,0,240
2,note_on,48,31,120
2,note_on,55,37,0
2,note_on,55,0,480
2,note_on,48,0,0
2,note_on,48,38,0
2,note_on,57,45,0
2,note_on,57,0,420
2,note_on,48,0,0
2,note_on,43,42,0
2,note_on,43,0,60
2,note_on,58,47,0
2,note_on,58,0,240
2,note_on,60,36,0
2,note_on,60,0,240
2,note_on,57,42,0
2,note_on,57,0,240
2,note_on,58,38,0
2,note_on,58,0,240
2,note_on,55,53,0
2,note_on,55,0,240
2,note_on,62,50,0
2,note_on,62,0,240
2,note_on,62,55,0
2,note_on,62,0,480
2,note_on,48,32,0
2,note_on,55,38,0
2,note_on,55,0,238
2,note_on,48,0,0
2,note_on,48,39,242
2,note_on,57,47,0
2,note_on,57,0,420
2,note_on,48,0,0
2,note_on,43,44,0
2,note_on,43,0,60
2,note_on,58,49,0
2,note_on,58,0,240
2,note_on,60,37,0
2,note_on,60,0,240
2,note_on,57,44,0
2,note_on,57,0,240
2,note_on,58,39,0
2,note_on,58,0,240
2,note_on,55,56,0
2,note_on,55,0,240
2,note_on,63,48,0
2,note_on,63,0,240
2,note_on,63,62,0
2,note_on,63,0,480
2,note_on,48,34,0
2,note_on,55,40,0
2,note_on,55,0,238
2,note_on,48,0,0
2,note_on,41,41,242
2,note_on,53,49,0
2,note_on,41,0,480
2,note_on,46,51,0
2,note_on,46,0,240
2,note_on,53,0,0
2,note_on,58,39,0
2,note_on,58,0,240
2,note_on,55,46,0
2,note_on,55,0,240
2,note_on,57,41,0
2,note_on,57,0,240
2,note_on,53,55,0
2,note_on,53,0,240
2,note_on,62,48,0
2,note_on,62,0,240
2,note_on,62,58,0
2,note_on,62,0,480
2,note_on,46,34,0
2,note_on,53,40,0
2,note_on,53,0,238
2,note_on,46,0,0
2,note_on,39,41,242
2,note_on,51,49,0
2,note_on,39,0,480
2,note_on,45,51,0
2,note_on,45,0,240
2,note_on,51,0,0
2,note_on,57,39,0
2,note_on,57,0,240
2,note_on,53,46,0
2,note_on,53,0,240
2,note_on,55,41,0
2,note_on,55,0,240
2,note_on,51,55,0
2,note_on,51,0,240
2,note_on,60,48,0
2,note_on,60,0,240
2,note_on,60,58,0
2,note_on,60,0,480
2,note_on,36,34,0
2,note_on,48,40,0
2,note_on,48,0,238
2,note_on,36,0,0
2,note_on,38,41,242
2,note_on,50,49,0
2,note_on,38,0,480
2,note_on,43,51,0
2,note_on,43,0,240
2,note_on,50,0,0
2,note_on,51,38,0
2,note_on,51,0,240
2,note_on,48,45,0
2,note_on,48,0,240
2,note_on,50,40,0
2,note_on,50,0,240
2,note_on,46,57,0
2,note_on,46,0,240
2,note_on,55,52,0
2,note_on,55,0,240
2,note_on,55,61,0
2,note_on,55,0,480
2,note_on,36,37,0
2,note_on,48,44,0
2,note_on,48,0,238
2,note_on,36,0,0
2,note_on,38,40,242
2,note_on,50,48,0
2,note_on,38,0,480
2,note_on,43,42,0
2,note_on,43,0,480
2,note_on,50,0,0
2,note_on,34,47,0
2,note_on,46,56,0
2,note_on,46,0,240
2,note_on,34,0,0
2,note_on,33,49,240
2,note_on,45,58,0
2,note_on,45,0,240
2,note_on,33,0,0
2,note_on,32,56,240
2,note_on,44,67,0
2,note_on,44,0,120
2,note_on,32,0,0
2,note_on,58,56,120
2,note_on,58,0,240
2,note_on,53,62,0
2,note_on,53,0,240
2,note_on,55,52,0
2,note_on,55,0,240
2,note_on,46,62,0
2,note_on,46,0,360
2,note_on,58,55,0
2,note_on,58,0,120
2,note_on,58,63,0
2,note_on,58,0,480
2,note_on,32,47,0
2,note_on,44,56,0
2,note_on,44,0,240
2,note_on,32,0,0
2,note_on,31,49,240
2,note_on,43,58,0
2,note_on,43,0,240
2,note_on,31,0,0
2,note_on,29,56,240
2,note_on,41,67,0
2,note_on,41,0,120
2,note_on,29,0,0
2,note_on,65,64,120
2,note_on,65,0,240
2,note_on,60,71,0
2,note_on,60,0,240
2,note_on,62,59,0
2,note_on,62,0,240
2,note_on,56,71,0
2,note_on,56,0,360
2,note_on,68,63,0
2,note_on,68,0,120
2,note_on,68,72,0
2,note_on,68,0,480
2,note_on,29,51,0
2,note_on,41,61,0
2,note_on,41,0,240
2,note_on,29,0,0
2,note_on,27,57,240
2,note_on,39,67,0
2,note_on,39,0,240
2,note_on,27,0,0
2,note_on,26,69,240
2,note_on,38,83,0
2,note_on,38,0,120
2,note_on,26,0,0
2,note_on,38,60,2760
2,note_on,46,66,960
2,note_on,38,0,960
2,note_on,39,60,0
2,note_on,39,0,480
2,note_on,40,60,0
2,note_on,40,0,480
2,note_on,41,60,0
2,note_on,41,0,960
2,note_on,46,0,0
2,note_on,46,69,0
2,note_on,42,60,0
2,note_on,42,0,960
2,note_on,43,60,0
2,note_on,46,0,480
2,note_on,51,66,0
2,note_on,43,0,480
2,note_on,45,61,0
2,note_on,51,0,960
2,note_on,53,64,0
2,note_on,53,0,960
2,note_on,45,0,0
2,note_on,54,66,0
2,note_on,45,66,0
2,note_on,45,0,960
2,note_on,54,0,0
2,note_on,55,69,0
2,note_on,46,69,0
2,note_on,46,0,960
2,note_on,55,0,0
2,note_on,56,60,0
2,note_on,47,60,0
2,note_on,47,0,960
2,note_on,56,0,0
2,note_on,55,58,0
2,note_on,48,58,0
2,note_on,55,0,480
2,note_on,57,57,0
2,note_on,48,0,480
2,note_on,50,54,0
2,note_on,57,0,960
2,note_on,58,55,0
2,note_on,50,0,960
2,note_on,51,57,0
2,note_on,51,0,480
2,note_on,52,58,0
2,note_on,52,0,480
2,note_on,53,60,0
2,note_on,53,0,960
2,note_on,58,0,0
2,note_on,58,61,0
2,note_on,54,61,0
2,note_on,54,0,960
2,note_on,55,63,0
2,note_on,58,0,480
2,note_on,63,64,0
2,note_on,55,0,480
2,note_on,56,66,0
2,note_on,63,0,960
2,note_on,65,67,0
2,note_on,65,0,960
2,note_on,56,0,0
2,note_on,57,42,0
2,note_on,66,50,0
2,note_on,66,0,960
2,note_on,57,0,0
2,note_on,58,39,0
2,note_on,67,47,0
2,note_on,67,0,960
2,note_on,58,0,0
2,note_on,59,29,0
2,note_on,62,29,0
2,note_on,65,37,0
2,note_on,68,44,0
2,note_on,68,0,960
2,note_on,59,0,0
2,note_on,62,0,0
2,note_on,65,0,0
2,note_on,60,27,0
2,note_on,63,27,0
2,note_on,66,34,0
2,note_on,69,41,0
2,note_on,69,0,960
2,note_on,60,0,0
2,note_on,63,0,0
2,note_on,66,0,0
2,note_on,62,25,0
2,note_on,65,32,0
2,note_on,70,38,0
2,note_on,70,0,960
2,note_on,65,0,0
2,note_on,62,0,0
2,note_on,64,25,0
2,note_on,67,32,0
2,note_on,70,38,0
2,note_on,70,0,960
2,note_on,67,0,0
2,note_on,64,0,0
2,note_on,65,32,0
2,note_on,68,38,0
2,note_on,68,0,960
2,note_on,65,0,0
2,note_on,62,25,0
2,note_on,65,32,0
2,note_on,68,38,0
2,note_on,68,0,960
2,note_on,65,0,0
2,note_on,62,0,0
2,note_on,63,25,0
2,note_on,65,32,0
2,note_on,68,38,0
2,note_on,68,0,960
2,note_on,65,0,0
2,note_on,63,0,0
2,note_on,62,25,0
2,note_on,65,32,0
2,note_on,68,38,0
2,note_on,68,0,960
2,note_on,65,0,0
2,note_on,62,0,0
2,note_on,60,25,0
2,note_on,65,32,0
2,note_on,68,38,0
2,note_on,68,0,960
2,note_on,65,0,0
2,note_on,60,0,0
2,note_on,59,25,0
2,note_on,65,32,0
2,note_on,68,38,0
2,note_on,68,0,960
2,note_on,65,0,0
2,note_on,59,0,0
2,note_on,60,25,0
2,note_on,65,32,0
2,note_on,68,38,0
2,note_on,68,0,960
2,note_on,65,0,0
2,note_on,60,0,0
2,note_on,59,25,0
2,note_on,65,32,0
2,note_on,68,38,0
2,note_on,68,0,1680
2,note_on,65,0,0
2,note_on,59,0,0
2,note_on,70,36,0
2,note_on,70,0,480
2,note_on,68,27,0
2,note_on,68,0,240
2,note_on,65,37,0
2,note_on,65,0,240
2,note_on,62,30,0
2,note_on,62,0,240
2,note_on,59,27,0
2,note_on,59,0,480
2,note_on,48,21,0
2,note_on,55,31,0
2,note_on,55,0,480
2,note_on,48,0,0
2,note_on,48,32,0
2,note_on,57,38,0
2,note_on,57,0,420
2,note_on,48,0,0
2,note_on,43,35,0
2,note_on,43,0,60
2,note_on,58,39,0
2,note_on,58,0,240
2,note_on,60,33,0
2,note_on,60,0,240
2,note_on,57,38,0
2,note_on,57,0,240
2,note_on,58,35,0
2,note_on,58,0,240
2,note_on,55,47,0
2,note_on,55,0,240
2,note_on,62,40,0
2,note_on,62,0,240
2,note_on,62,49,0
2,note_on,62,0,480
2,note_on,48,27,0
2,note_on,55,32,0
2,note_on,55,0,480
2,note_on,48,0,0
2,note_on,48,33,0
2,note_on,57,39,0
2,note_on,57,0,420
2,note_on,48,0,0
2,note_on,43,37,0
2,note_on,43,0,60
2,note_on,58,41,0
2,note_on,58,0,240
2,note_on,60,34,0
2,note_on,60,0,240
2,note_on,57,40,0
2,note_on,57,0,240
2,note_on,58,36,0
2,note_on,58,0,240
2,note_on,55,51,0
2,note_on,55,0,240
2,note_on,63,45,0
2,note_on,63,0,240
2,note_on,63,52,0
2,note_on,63,0,480
2,note_on,48,28,0
2,note_on,55,34,0
2,note_on,55,0,238
2,note_on,48,0,0
2,note_on,41,34,242
2,note_on,53,41,0
2,note_on,41,0,480
2,note_on,46,43,0
2,note_on,46,0,240
2,note_on,53,0,0
2,note_on,58,36,0
2,note_on,58,0,240
2,note_on,55,42,0
2,note_on,55,0,240
2,note_on,57,37,0
2,note_on,57,0,240
2,note_on,53,50,0
2,note_on,53,0,240
2,note_on,62,44,0
2,note_on,62,0,240
2,note_on,62,53,0
2,note_on,62,0,480
2,note_on,46,28,0
2,note_on,53,34,0
2,note_on,53,0,238
2,note_on,46,0,0
2,note_on,39,34,242
2,note_on,51,41,0
2,note_on,39,0,480
2,note_on,45,43,0
2,note_on,45,0,240
2,note_on,51,0,0
2,note_on,57,33,0
2,note_on,57,0,240
2,note_on,53,42,0
2,note_on,53,0,240
2,note_on,55,37,0
2,note_on,55,0,240
2,note_on,51,50,0
2,note_on,51,0,240
2,note_on,60,44,0
2,note_on,60,0,240
2,note_on,60,53,0
2,note_on,60,0,480
2,note_on,36,28,0
2,note_on,48,34,0
2,note_on,48,0,238
2,note_on,36,0,0
2,note_on,38,34,242
2,note_on,50,41,0
2,note_on,38,0,480
2,note_on,43,43,0
2,note_on,43,0,240
2,note_on,50,0,0
2,note_on,51,35,0
2,note_on,51,0,240
2,note_on,48,41,0
2,note_on,48,0,240
2,note_on,50,37,0
2,note_on,50,0,240
2,note_on,46,49,0
2,note_on,46,0,240
2,note_on,55,42,0
2,note_on,55,0,240
2,note_on,55,51,0
2,note_on,55,0,480
2,note_on,36,31,0
2,note_on,48,37,0
2,note_on,48,0,238
2,note_on,36,0,0
2,note_on,38,38,242
2,note_on,50,45,0
2,note_on,38,0,480
2,note_on,43,47,0
2,note_on,43,0,480
2,note_on,50,0,0
2,note_on,38,40,480
2,note_on,46,40,0
2,note_on,38,0,480
2,note_on,39,40,0
2,note_on,39,0,480
2,note_on,46,0,0
2,note_on,38,40,480
2,note_on,46,40,0
2,note_on,38,0,480
2,note_on,39,40,0
2,note_on,39,0,480
2,note_on,46,0,0
2,note_on,36,33,420
2,note_on,51,40,60
2,note_on,36,0,960
2,note_on,48,40,0
2,note_on,48,0,480
2,note_on,51,0,0
2,note_on,53,36,0
2,note_on,41,36,0
2,note_on,53,0,360
2,note_on,51,32,0
2,note_on,51,0,120
2,note_on,41,0,0
2,note_on,46,37,0
2,note_on,50,37,0
2,note_on,50,0,240
2,note_on,46,0,0
2,note_on,41,28,660
2,note_on,49,32,30
2,note_on,57,36,30
2,note_on,57,0,480
2,note_on,49,0,0
2,note_on,41,0,0
2,note_on,58,40,0
2,note_on,50,40,0
2,note_on,50,0,480
2,note_on,58,0,0
2,note_on,41,29,420
2,note_on,49,32,30
2,note_on,57,36,30
2,note_on,57,0,480
2,note_on,49,0,0
2,note_on,41,0,0
2,note_on,58,40,0
2,note_on,50,40,0
2,note_on,50,0,480
2,note_on,58,0,0
2,note_on,46,33,420
2,note_on,53,33,30
2,note_on,62,40,30
2,note_on,62,0,480
2,note_on,46,0,0
2,note_on,62,40,0
2,note_on,53,0,480
2,note_on,55,40,0
2,note_on,55,0,480
2,note_on,62,0,0
2,note_on,60,36,0
2,note_on,48,36,0
2,note_on,60,0,360
2,note_on,58,32,0
2,note_on,58,0,120
2,note_on,48,0,0
2,note_on,53,37,0
2,note_on,57,37,0
2,note_on,57,0,240
2,note_on,53,0,0
2,note_on,50,32,660
2,note_on,58,36,30
2,note_on,65,40,30
2,note_on,58,0,390
2,note_on,50,0,0
2,note_on,51,27,0
2,note_on,54,33,30
2,note_on,58,40,30
2,note_on,66,40,30
2,note_on,65,0,10
2,note_on,58,0,470
2,note_on,51,0,0
2,note_on,54,0,0
2,note_on,66,0,0
2,note_on,50,33,420
2,note_on,58,36,30
2,note_on,65,40,30
2,note_on,50,0,300
2,note_on,65,0,90
2,note_on,58,0,0
2,note_on,51,27,0
2,note_on,54,31,30
2,note_on,58,35,30
2,note_on,66,40,30
2,note_on,66,0,480
2,note_on,51,0,0
2,note_on,54,0,0
2,note_on,58,0,0
2,note_on,54,33,420
2,note_on,61,33,30
2,note_on,70,40,30
2,note_on,70,0,480
2,note_on,54,0,0
2,note_on,70,40,0
2,note_on,61,0,480
2,note_on,63,40,0
2,note_on,63,0,480
2,note_on,70,0,0
2,note_on,66,36,0
2,note_on,56,36,0
2,note_on,56,0,480
2,note_on,66,0,0
2,note_on,61,37,0
2,note_on,65,37,0
2,note_on,65,0,240
2,note_on,61,0,0
2,note_on,44,32,660
2,note_on,51,36,30
2,note_on,60,40,30
2,note_on,60,0,480
2,note_on,51,0,0
2,note_on,44,0,0
2,note_on,61,40,0
2,note_on,53,40,0
2,note_on,53,0,480
2,note_on,61,0,0
2,note_on,44,33,420
2,note_on,51,36,30
2,note_on,60,40,30
2,note_on,60,0,480
2,note_on,51,0,0
2,note_on,44,0,0
2,note_on,61,40,0
2,note_on,53,40,0
2,note_on,53,0,480
2,note_on,61,0,0
2,note_on,49,33,420
2,note_on,56,33,30
2,note_on,65,40,30
2,note_on,65,0,480
2,note_on,49,0,0
2,note_on,65,40,0
2,note_on,56,0,480
2,note_on,58,40,0
2,note_on,58,0,480
2,note_on,65,0,0
2,note_on,61,36,0
2,note_on,51,36,0
2,note_on,51,0,480
2,note_on,61,0,0
2,note_on,56,37,0
2,note_on,60,37,0
2,note_on,60,0,240
2,note_on,56,0,0
2,note_on,54,46,240
2,note_on,44,32,480
2,note_on,54,0,360
2,note_on,50,43,0
2,note_on,50,0,120
2,note_on,51,49,0
2,note_on,51,0,360
2,note_on,53,42,0
2,note_on,53,0,120
2,note_on,44,0,0
2,note_on,54,49,0
2,note_on,44,32,480
2,note_on,54,0,480
2,note_on,44,0,480
2,note_on,51,46,0
2,note_on,44,32,480
2,note_on,51,0,360
2,note_on,47,42,0
2,note_on,47,0,120
2,note_on,48,49,0
2,note_on,48,0,360
2,note_on,49,44,0
2,note_on,49,0,120
2,note_on,44,0,0
2,note_on,51,48,0
2,note_on,44,32,480
2,note_on,51,0,480
2,note_on,44,0,960
2,note_on,45,32,0
2,note_on,45,0,1440
2,note_on,47,32,0
2,note_on,47,0,1440
2,note_on,48,32,0
2,note_on,48,0,1200
2,note_on,50,43,0
2,note_on,50,0,240
2,note_on,52,49,0
2,note_on,52,0,240
2,note_on,54,53,0
2,note_on,54,0,720
2,note_on,31,44,0
2,note_on,31,0,840
2,note_on,34,35,0
2,note_on,34,0,90
2,note_on,33,40,30
2,note_on,33,0,90
2,note_on,30,33,1230
2,note_on,30,0,90
2,note_on,31,40,30
2,note_on,31,0,90
2,note_on,34,32,1230
2,note_on,34,0,90
2,note_on,36,37,30
2,note_on,36,0,90
2,note_on,38,33,270
2,note_on,38,0,90
2,note_on,39,38,30
2,note_on,39,0,90
2,note_on,51,40,390
2,note_on,51,0,90
2,note_on,38,45,390
2,note_on,50,45,0
2,note_on,50,0,90
2,note_on,38,0,0
2,note_on,30,40,870
2,note_on,30,0,480
2,note_on,31,44,0
2,note_on,31,0,240
2,note_on,55,60,240
2,note_on,55,0,840
2,note_on,53,51,0
2,note_on,53,0,120
2,note_on,51,58,0
2,note_on,51,0,90
2,note_on,50,51,270
2,note_on,50,0,90
2,note_on,48,57,30
2,note_on,48,0,90
2,note_on,46,50,270
2,note_on,46,0,90
2,note_on,33,40,30
2,note_on,33,0,480
2,note_on,34,44,0
2,note_on,34,0,240
2,note_on,58,60,240
2,note_on,58,0,840
2,note_on,57,51,0
2,note_on,57,0,120
2,note_on,55,58,0
2,note_on,55,0,90
2,note_on,53,51,270
2,note_on,53,0,90
2,note_on,52,57,30
2,note_on,52,0,90
2,note_on,50,50,270
2,note_on,50,0,90
2,note_on,37,40,30
2,note_on,37,0,480
2,note_on,38,44,0
2,note_on,38,0,240
2,note_on,62,58,240
2,note_on,62,0,840
2,note_on,60,51,0
2,note_on,60,0,120
2,note_on,58,58,0
2,note_on,58,0,90
2,note_on,57,51,270
2,note_on,57,0,90
2,note_on,55,57,30
2,note_on,55,0,90
2,note_on,53,50,270
2,note_on,53,0,90
2,note_on,52,57,30
2,note_on,52,0,90
2,note_on,51,50,270
2,note_on,51,0,90
2,note_on,50,58,30
2,note_on,50,0,240
2,note_on,50,60,240
2,note_on,50,0,840
2,note_on,48,43,0
2,note_on,48,0,120
2,note_on,46,53,0
2,note_on,46,0,360
2,note_on,45,49,0
2,note_on,45,0,120
2,note_on,43,48,0
2,note_on,43,0,240
2,note_on,41,42,0
2,note_on,41,0,240
2,note_on,40,41,0
2,note_on,40,0,240
2,note_on,39,32,0
2,note_on,39,0,240
2,note_on,38,47,0
2,note_on,45,29,120
2,note_on,45,0,840
2,note_on,38,0,0
