Track,Message Type,Note,Velocity,Time
1,note_on,58,25,960
1,note_on,70,43,0
1,note_on,70,0,240
1,note_on,58,0,0
1,note_on,72,43,0
1,note_on,60,25,0
1,note_on,60,0,240
1,note_on,72,0,0
1,note_on,62,26,0
1,note_on,74,44,0
1,note_on,74,0,240
1,note_on,62,0,0
1,note_on,65,28,0
1,note_on,77,53,0
1,note_on,77,0,240
1,note_on,65,0,0
1,note_on,79,60,0
1,note_on,67,30,0
1,note_on,67,0,240
1,note_on,79,0,0
1,note_on,77,42,0
1,note_on,65,24,0
1,note_on,65,0,240
1,note_on,77,0,0
1,note_on,74,44,0
1,note_on,62,26,0
1,note_on,62,0,240
1,note_on,74,0,0
1,note_on,70,39,0
1,note_on,58,23,0
1,note_on,58,0,240
1,note_on,70,0,0
1,note_on,60,27,0
1,note_on,65,38,0
1,note_on,57,27,0
1,note_on,57,0,960
1,note_on,65,0,0
1,note_on,60,0,0
1,note_on,58,30,0
1,note_on,70,43,0
1,note_on,70,0,240
1,note_on,58,0,0
1,note_on,72,43,0
1,note_on,60,30,0
1,note_on,60,0,240
1,note_on,72,0,0
1,note_on,74,44,0
1,note_on,62,31,0
1,note_on,62,0,240
1,note_on,74,0,0
1,note_on,65,34,0
1,note_on,77,53,0
1,note_on,77,0,240
1,note_on,65,0,0
1,note_on,67,36,0
1,note_on,79,58,0
1,note_on,79,0,240
1,note_on,67,0,0
1,note_on,77,42,0
1,note_on,65,29,0
1,note_on,65,0,240
1,note_on,77,0,0
1,note_on,62,31,0
1,note_on,74,44,0
1,note_on,74,0,240
1,note_on,62,0,0
1,note_on,58,28,0
1,note_on,70,39,0
1,note_on,70,0,240
1,note_on,58,0,0
1,note_on,60,27,0
1,note_on,57,27,0
1,note_on,65,38,0
1,note_on,65,0,960
1,note_on,57,0,0
1,note_on,60,0,0
1,note_on,58,30,0
1,note_on,70,43,0
1,note_on,70,0,240
1,note_on,58,0,0
1,note_on,72,43,0
1,note_on,60,30,0
1,note_on,60,0,240
1,note_on,72,0,0
1,note_on,62,40,0
1,note_on,74,44,0
1,note_on,62,0,240
1,note_on,65,48,0
1,note_on,65,0,240
1,note_on,67,55,0
1,note_on,67,0,240
1,note_on,65,47,0
1,note_on,65,0,240
1,note_on,62,50,0
1,note_on,62,0,240
1,note_on,58,40,0
1,note_on,74,0,120
1,note_on,70,53,0
1,note_on,70,0,120
1,note_on,58,0,0
1,note_on,77,58,0
1,note_on,65,35,0
1,note_on,65,0,240
1,note_on,69,41,0
1,note_on,69,0,240
1,note_on,70,42,0
1,note_on,70,0,240
1,note_on,69,34,0
1,note_on,77,0,120
1,note_on,76,57,0
1,note_on,76,0,120
1,note_on,69,0,0
1,note_on,65,32,0
1,note_on,74,62,0
1,note_on,65,0,240
1,note_on,60,28,0
1,note_on,74,0,120
1,note_on,72,55,0
1,note_on,72,0,120
1,note_on,60,0,0
1,note_on,58,34,0
1,note_on,72,59,0
1,note_on,58,0,240
1,note_on,60,37,0
1,note_on,60,0,240
1,note_on,69,39,0
1,note_on,69,0,240
1,note_on,72,0,0
1,note_on,67,29,0
1,note_on,70,41,0
1,note_on,70,0,240
1,note_on,67,0,0
1,note_on,69,46,0
1,note_on,64,37,0
1,note_on,64,0,160
1,note_on,60,28,0
1,note_on,69,0,80
1,note_on,67,41,0
1,note_on,60,0,80
1,note_on,58,28,0
1,note_on,58,0,160
1,note_on,67,0,0
1,note_on,56,29,0
1,note_on,65,42,0
1,note_on,57,27,160
1,note_on,56,0,10
1,note_on,58,27,150
1,note_on,57,0,10
1,note_on,58,0,150
1,note_on,57,29,0
1,note_on,57,0,360
1,note_on,65,0,120
1,note_on,58,30,0
1,note_on,70,43,0
1,note_on,70,0,240
1,note_on,58,0,0
1,note_on,60,30,0
1,note_on,72,43,0
1,note_on,72,0,240
1,note_on,60,0,0
1,note_on,74,44,0
1,note_on,62,31,0
1,note_on,62,0,240
1,note_on,74,0,0
1,note_on,77,52,0
1,note_on,65,34,0
1,note_on,65,0,240
1,note_on,77,0,0
1,note_on,67,36,0
1,note_on,79,58,0
1,note_on,79,0,240
1,note_on,67,0,0
1,note_on,77,42,0
1,note_on,65,29,0
1,note_on,65,0,240
1,note_on,77,0,0
1,note_on,74,44,0
1,note_on,62,31,0
1,note_on,62,0,240
1,note_on,74,0,0
1,note_on,70,39,0
1,note_on,58,28,0
1,note_on,58,0,240
1,note_on,70,0,0
1,note_on,65,38,0
1,note_on,57,27,0
1,note_on,60,27,0
1,note_on,60,0,960
1,note_on,57,0,0
1,note_on,65,0,0
1,note_on,70,43,0
1,note_on,58,30,0
1,note_on,58,0,240
1,note_on,70,0,0
1,note_on,60,30,0
1,note_on,72,43,0
1,note_on,72,0,240
1,note_on,60,0,0
1,note_on,74,44,0
1,note_on,62,31,0
1,note_on,62,0,240
1,note_on,74,0,0
1,note_on,65,34,0
1,note_on,77,52,0
1,note_on,77,0,240
1,note_on,65,0,0
1,note_on,79,58,0
1,note_on,67,36,0
1,note_on,67,0,240
1,note_on,79,0,0
1,note_on,65,29,0
1,note_on,77,42,0
1,note_on,77,0,240
1,note_on,65,0,0
1,note_on,62,31,0
1,note_on,74,44,0
1,note_on,74,0,240
1,note_on,62,0,0
1,note_on,70,39,0
1,note_on,58,28,0
1,note_on,58,0,240
1,note_on,70,0,0
1,note_on,65,38,0
1,note_on,60,27,0
1,note_on,57,27,0
1,note_on,57,0,960
1,note_on,60,0,0
1,note_on,65,0,0
1,note_on,70,43,0
1,note_on,58,30,0
1,note_on,58,0,240
1,note_on,70,0,0
1,note_on,60,30,0
1,note_on,72,43,0
1,note_on,72,0,240
1,note_on,60,0,0
1,note_on,74,44,0
1,note_on,62,31,0
1,note_on,62,0,240
1,note_on,65,40,0
1,note_on,65,0,240
1,note_on,67,46,0
1,note_on,67,0,240
1,note_on,65,39,0
1,note_on,65,0,240
1,note_on,62,42,0
1,note_on,62,0,240
1,note_on,58,34,0
1,note_on,74,0,120
1,note_on,70,53,0
1,note_on,70,0,120
1,note_on,58,0,0
1,note_on,77,58,0
1,note_on,65,35,0
1,note_on,65,0,240
1,note_on,69,41,0
1,note_on,69,0,240
1,note_on,70,42,0
1,note_on,70,0,240
1,note_on,69,34,0
1,note_on,77,0,120
1,note_on,76,57,0
1,note_on,76,0,120
1,note_on,69,0,0
1,note_on,74,62,0
1,note_on,65,32,0
1,note_on,65,0,240
1,note_on,60,28,0
1,note_on,74,0,120
1,note_on,72,55,0
1,note_on,72,0,120
1,note_on,60,0,0
1,note_on,72,59,0
1,note_on,58,34,0
1,note_on,58,0,240
1,note_on,60,37,0
1,note_on,60,0,240
1,note_on,69,39,0
1,note_on,69,0,240
1,note_on,72,0,0
1,note_on,67,29,0
1,note_on,70,41,0
1,note_on,70,0,240
1,note_on,67,0,0
1,note_on,64,37,0
1,note_on,69,46,0
1,note_on,64,0,160
1,note_on,60,28,0
1,note_on,69,0,80
1,note_on,67,41,0
1,note_on,60,0,80
1,note_on,58,28,0
1,note_on,58,0,160
1,note_on,67,0,0
1,note_on,56,29,0
1,note_on,65,42,0
1,note_on,57,27,160
1,note_on,56,0,10
1,note_on,58,27,150
1,note_on,57,0,10
1,note_on,58,0,150
1,note_on,57,29,0
1,note_on,57,0,360
1,note_on,65,0,120
1,note_on,56,49,480
1,note_on,70,49,0
1,note_on,56,0,240
1,note_on,58,41,0
1,note_on,58,0,240
1,note_on,67,45,0
1,note_on,67,0,240
1,note_on,65,37,0
1,note_on,65,0,240
1,note_on,60,43,0
1,note_on,60,0,240
1,note_on,58,37,0
1,note_on,58,0,240
1,note_on,70,0,0
1,note_on,70,49,0
1,note_on,56,49,0
1,note_on,56,0,240
1,note_on,58,41,0
1,note_on,58,0,240
1,note_on,65,49,0
1,note_on,65,0,240
1,note_on,63,38,0
1,note_on,63,0,240
1,note_on,60,46,0
1,note_on,60,0,240
1,note_on,58,38,0
1,note_on,58,0,240
1,note_on,70,0,0
1,note_on,56,54,0
1,note_on,70,54,0
1,note_on,56,0,240
1,note_on,64,47,0
1,note_on,64,0,240
1,note_on,70,0,0
1,note_on,70,57,0
1,note_on,56,57,0
1,note_on,56,0,240
1,note_on,65,52,0
1,note_on,65,0,240
1,note_on,70,0,0
1,note_on,56,59,0
1,note_on,70,59,0
1,note_on,56,0,240
1,note_on,66,54,0
1,note_on,66,0,240
1,note_on,56,65,0
1,note_on,56,0,240
1,note_on,68,49,0
1,note_on,68,0,240
1,note_on,55,54,0
1,note_on,55,0,240
1,note_on,67,47,0
1,note_on,67,0,240
1,note_on,70,0,0
1,note_on,75,54,0
1,note_on,63,38,0
1,note_on,63,0,240
1,note_on,75,0,0
1,note_on,65,41,0
1,note_on,77,58,0
1,note_on,77,0,240
1,note_on,65,0,0
1,note_on,67,64,0
1,note_on,79,64,0
1,note_on,67,0,240
1,note_on,75,50,0
1,note_on,75,0,240
1,note_on,77,54,0
1,note_on,77,0,240
1,note_on,75,50,0
1,note_on,75,0,180
1,note_on,72,52,0
1,note_on,79,0,60
1,note_on,77,52,0
1,note_on,77,0,240
1,note_on,72,0,0
1,note_on,67,45,0
1,note_on,75,45,0
1,note_on,75,0,240
1,note_on,67,0,0
1,note_on,74,56,0
1,note_on,62,56,0
1,note_on,62,0,240
1,note_on,70,39,0
1,note_on,70,0,240
1,note_on,72,44,0
1,note_on,72,0,240
1,note_on,70,40,0
1,note_on,70,0,180
1,note_on,67,52,0
1,note_on,74,0,60
1,note_on,70,52,0
1,note_on,67,0,240
1,note_on,62,46,0
1,note_on,62,0,240
1,note_on,70,0,0
1,note_on,67,50,0
1,note_on,79,59,0
1,note_on,67,0,240
1,note_on,75,42,0
1,note_on,75,0,240
1,note_on,77,45,0
1,note_on,77,0,240
1,note_on,79,0,0
1,note_on,75,48,0
1,note_on,79,48,0
1,note_on,79,0,240
1,note_on,75,0,0
1,note_on,77,54,0
1,note_on,72,45,0
1,note_on,72,0,240
1,note_on,67,40,0
1,note_on,77,0,120
1,note_on,75,52,0
1,note_on,75,0,120
1,note_on,67,0,0
1,note_on,74,54,0
1,note_on,62,54,0
1,note_on,62,0,240
1,note_on,70,45,0
1,note_on,70,0,240
1,note_on,72,49,0
1,note_on,72,0,240
1,note_on,70,46,0
1,note_on,70,0,240
1,note_on,74,0,0
1,note_on,62,33,0
1,note_on,67,47,0
1,note_on,67,0,240
1,note_on,62,0,0
1,note_on,69,42,0
1,note_on,60,30,0
1,note_on,60,0,240
1,note_on,69,0,0
1,note_on,58,36,0
1,note_on,70,55,0
1,note_on,70,0,240
1,note_on,58,0,0
1,note_on,69,34,0
1,note_on,72,51,0
1,note_on,72,0,240
1,note_on,69,0,0
1,note_on,74,52,0
1,note_on,67,36,0
1,note_on,67,0,240
1,note_on,74,0,0
1,note_on,76,53,0
1,note_on,65,38,0
1,note_on,65,0,240
1,note_on,76,0,0
1,note_on,64,39,0
1,note_on,77,56,0
1,note_on,77,0,240
1,note_on,64,0,0
1,note_on,74,41,0
1,note_on,79,58,0
1,note_on,79,0,240
1,note_on,74,0,0
1,note_on,72,43,0
1,note_on,81,60,0
1,note_on,81,0,240
1,note_on,72,0,0
1,note_on,79,58,0
1,note_on,76,41,0
1,note_on,76,0,240
1,note_on,79,0,0
1,note_on,77,56,0
1,note_on,69,39,0
1,note_on,69,0,240
1,note_on,77,0,0
1,note_on,76,54,0
1,note_on,72,37,0
1,note_on,72,0,240
1,note_on,76,0,0
1,note_on,74,51,0
1,note_on,67,35,0
1,note_on,67,0,240
1,note_on,74,0,0
1,note_on,69,35,0
1,note_on,72,49,0
1,note_on,72,0,240
1,note_on,69,0,0
1,note_on,64,33,0
1,note_on,70,47,0
1,note_on,70,0,240
1,note_on,64,0,0
1,note_on,65,28,0
1,note_on,69,40,0
1,note_on,69,0,240
1,note_on,65,0,0
1,note_on,67,46,0
1,note_on,61,33,0
1,note_on,61,0,240
1,note_on,67,0,0
1,note_on,62,28,0
1,note_on,65,40,0
1,note_on,65,0,240
1,note_on,62,0,0
1,note_on,69,45,0
1,note_on,63,32,0
1,note_on,63,0,240
1,note_on,69,0,0
1,note_on,64,28,0
1,note_on,67,40,0
1,note_on,67,0,240
1,note_on,64,0,0
1,note_on,60,29,0
1,note_on,65,41,0
1,note_on,65,0,240
1,note_on,60,0,0
1,note_on,66,33,0
1,note_on,63,23,0
1,note_on,63,0,240
1,note_on,66,0,0
1,note_on,67,33,0
1,note_on,60,23,0
1,note_on,60,0,120
1,note_on,67,0,0
1,note_on,63,19,0
1,note_on,68,28,0
1,note_on,68,0,120
1,note_on,63,0,0
1,note_on,62,23,0
1,note_on,69,33,0
1,note_on,69,0,120
1,note_on,62,0,0
1,note_on,60,19,0
1,note_on,65,28,0
1,note_on,65,0,90
1,note_on,60,0,0
1,note_on,70,38,30
1,note_on,58,27,0
1,note_on,58,0,240
1,note_on,70,0,0
1,note_on,60,27,0
1,note_on,72,38,0
1,note_on,72,0,240
1,note_on,60,0,0
1,note_on,74,39,0
1,note_on,62,28,0
1,note_on,62,0,240
1,note_on,74,0,0
1,note_on,65,30,0
1,note_on,77,47,0
1,note_on,77,0,240
1,note_on,65,0,0
1,note_on,79,56,0
1,note_on,67,32,0
1,note_on,67,0,240
1,note_on,79,0,0
1,note_on,77,37,0
1,note_on,65,26,0
1,note_on,65,0,240
1,note_on,77,0,0
1,note_on,62,28,0
1,note_on,74,39,0
1,note_on,74,0,240
1,note_on,62,0,0
1,note_on,70,35,0
1,note_on,58,24,0
1,note_on,58,0,240
1,note_on,70,0,0
1,note_on,57,23,0
1,note_on,60,23,0
1,note_on,65,34,0
1,note_on,65,0,960
1,note_on,60,0,0
1,note_on,57,0,0
1,note_on,70,43,0
1,note_on,58,30,0
1,note_on,58,0,240
1,note_on,70,0,0
1,note_on,60,30,0
1,note_on,72,43,0
1,note_on,72,0,240
1,note_on,60,0,0
1,note_on,74,44,0
1,note_on,62,31,0
1,note_on,62,0,240
1,note_on,74,0,0
1,note_on,77,52,0
1,note_on,65,34,0
1,note_on,65,0,240
1,note_on,77,0,0
1,note_on,67,36,0
1,note_on,79,57,0
1,note_on,79,0,240
1,note_on,67,0,0
1,note_on,77,42,0
1,note_on,65,29,0
1,note_on,65,0,240
1,note_on,77,0,0
1,note_on,62,31,0
1,note_on,74,44,0
1,note_on,74,0,240
1,note_on,62,0,0
1,note_on,70,39,0
1,note_on,58,28,0
1,note_on,58,0,240
1,note_on,70,0,0
1,note_on,57,27,0
1,note_on,65,60,0
1,note_on,60,34,0
1,note_on,60,0,960
1,note_on,65,0,0
1,note_on,57,0,0
1,note_on,58,23,0
1,note_on,70,47,0
1,note_on,70,0,240
1,note_on,58,0,0
1,note_on,60,23,0
1,note_on,72,49,0
1,note_on,72,0,240
1,note_on,60,0,0
1,note_on,62,25,0
1,note_on,74,52,0
1,note_on,74,0,240
1,note_on,62,0,0
1,note_on,75,54,0
1,note_on,63,27,0
1,note_on,63,0,240
1,note_on,75,0,0
1,note_on,65,29,0
1,note_on,77,58,0
1,note_on,77,0,240
1,note_on,65,0,0
1,note_on,78,62,0
1,note_on,66,30,0
1,note_on,66,0,240
1,note_on,78,0,0
1,note_on,79,69,0
1,note_on,67,33,0
1,note_on,67,0,240
1,note_on,79,0,0
1,note_on,77,57,0
1,note_on,65,29,0
1,note_on,65,0,240
1,note_on,77,0,0
1,note_on,64,28,0
1,note_on,76,55,0
1,note_on,76,0,240
1,note_on,64,0,0
1,note_on,62,26,0
1,note_on,74,53,0
1,note_on,74,0,240
1,note_on,62,0,0
1,note_on,60,23,0
1,note_on,72,50,0
1,note_on,72,0,240
1,note_on,60,0,0
1,note_on,62,23,0
1,note_on,74,47,0
1,note_on,74,0,240
1,note_on,62,0,0
1,note_on,60,22,0
1,note_on,72,45,0
1,note_on,72,0,240
1,note_on,60,0,0
1,note_on,62,20,0
1,note_on,74,42,0
1,note_on,74,0,240
1,note_on,62,0,0
1,note_on,64,30,0
1,note_on,76,51,0
1,note_on,76,0,240
1,note_on,64,0,0
1,note_on,65,31,0
1,note_on,77,53,0
1,note_on,77,0,240
1,note_on,65,0,0
1,note_on,78,57,0
1,note_on,66,34,0
1,note_on,66,0,240
1,note_on,78,0,0
1,note_on,79,62,0
1,note_on,67,35,0
1,note_on,67,0,240
1,note_on,79,0,0
1,note_on,81,66,0
1,note_on,69,37,0
1,note_on,69,0,240
1,note_on,81,0,0
1,note_on,79,57,0
1,note_on,67,34,0
1,note_on,67,0,240
1,note_on,79,0,0
1,note_on,65,34,0
1,note_on,77,57,0
1,note_on,77,0,240
1,note_on,65,0,0
1,note_on,75,54,0
1,note_on,63,31,0
1,note_on,63,0,240
1,note_on,75,0,0
1,note_on,74,51,0
1,note_on,62,28,0
1,note_on,62,0,240
1,note_on,74,0,0
1,note_on,72,47,0
1,note_on,60,28,0
1,note_on,60,0,240
1,note_on,72,0,0
1,note_on,70,47,0
1,note_on,58,28,0
1,note_on,58,0,240
1,note_on,70,0,0
1,note_on,60,24,0
1,note_on,72,42,0
1,note_on,72,0,240
1,note_on,60,0,0
1,note_on,62,39,0
1,note_on,74,47,0
1,note_on,62,0,240
1,note_on,72,50,0
1,note_on,72,0,240
1,note_on,70,49,0
1,note_on,70,0,240
1,note_on,69,44,0
1,note_on,69,0,240
1,note_on,74,0,0
1,note_on,67,41,0
1,note_on,75,52,0
1,note_on,75,0,240
1,note_on,67,0,0
1,note_on,65,44,0
1,note_on,77,55,0
1,note_on,77,0,240
1,note_on,65,0,0
1,note_on,63,47,0
1,note_on,79,61,0
1,note_on,63,0,240
1,note_on,65,43,0
1,note_on,65,0,240
1,note_on,67,47,0
1,note_on,67,0,240
1,note_on,79,0,0
1,note_on,77,53,0
1,note_on,69,38,0
1,note_on,69,0,240
1,note_on,77,0,0
1,note_on,75,51,0
1,note_on,70,36,0
1,note_on,70,0,240
1,note_on,75,0,0
1,note_on,71,35,0
1,note_on,74,50,0
1,note_on,74,0,240
1,note_on,71,0,0
1,note_on,72,52,0
1,note_on,70,47,240
1,note_on,70,0,120
1,note_on,72,43,0
1,note_on,72,0,60
1,note_on,74,43,0
1,note_on,74,0,60
1,note_on,72,0,0
1,note_on,72,49,0
1,note_on,69,33,0
1,note_on,69,0,240
1,note_on,72,0,0
1,note_on,74,47,0
1,note_on,67,31,0
1,note_on,67,0,240
1,note_on,74,0,0
1,note_on,65,35,0
1,note_on,75,54,0
1,note_on,65,0,240
1,note_on,63,39,0
1,note_on,63,0,240
1,note_on,75,0,0
1,note_on,62,45,0
1,note_on,77,59,0
1,note_on,62,0,240
1,note_on,63,47,0
1,note_on,63,0,240
1,note_on,65,47,0
1,note_on,65,0,240
1,note_on,77,0,0
1,note_on,67,33,0
1,note_on,75,46,0
1,note_on,75,0,240
1,note_on,67,0,0
1,note_on,74,47,0
1,note_on,68,31,0
1,note_on,68,0,240
1,note_on,74,0,0
1,note_on,72,44,0
1,note_on,69,31,0
1,note_on,69,0,240
1,note_on,72,0,0
1,note_on,70,47,0
1,note_on,69,39,240
1,note_on,69,0,120
1,note_on,70,38,0
1,note_on,70,0,60
1,note_on,72,37,0
1,note_on,72,0,60
1,note_on,70,0,0
1,note_on,70,45,0
1,note_on,67,27,0
1,note_on,67,0,240
1,note_on,70,0,0
1,note_on,72,46,0
1,note_on,65,28,0
1,note_on,65,0,240
1,note_on,72,0,0
1,note_on,63,35,0
1,note_on,74,50,0
1,note_on,63,0,240
1,note_on,62,31,0
1,note_on,62,0,240
1,note_on,74,0,0
1,note_on,75,51,0
1,note_on,60,30,0
1,note_on,60,0,240
1,note_on,75,0,0
1,note_on,62,29,0
1,note_on,74,50,0
1,note_on,74,0,240
1,note_on,62,0,0
1,note_on,63,28,0
1,note_on,72,48,0
1,note_on,72,0,240
1,note_on,63,0,0
1,note_on,64,28,0
1,note_on,70,47,0
1,note_on,70,0,240
1,note_on,64,0,0
1,note_on,65,28,0
1,note_on,69,46,0
1,note_on,69,0,240
1,note_on,65,0,0
1,note_on,63,26,0
1,note_on,67,44,0
1,note_on,67,0,240
1,note_on,63,0,0
1,note_on,62,23,0
1,note_on,65,41,0
1,note_on,65,0,240
1,note_on,62,0,0
1,note_on,60,23,0
1,note_on,63,40,0
1,note_on,63,0,240
1,note_on,60,0,0
1,note_on,58,23,0
1,note_on,62,39,0
1,note_on,62,0,240
1,note_on,58,0,0
1,note_on,57,22,0
1,note_on,60,38,0
1,note_on,60,0,240
1,note_on,57,0,0
1,note_on,55,21,4
1,note_on,58,36,3
1,note_on,57,31,113
1,note_on,53,18,0
1,note_on,55,0,4
1,note_on,58,0,3
1,note_on,57,0,113
1,note_on,53,0,0
1,note_on,51,19,0
1,note_on,55,33,0
1,note_on,55,0,120
1,note_on,51,0,0
1,note_on,50,19,0
1,note_on,53,34,0
1,note_on,53,0,120
1,note_on,50,0,0
1,note_on,48,27,0
1,note_on,51,38,0
1,note_on,51,0,1440
1,note_on,48,0,0
1,note_on,65,38,0
1,note_on,53,27,0
1,note_on,58,27,0
1,note_on,58,0,960
1,note_on,53,0,0
1,note_on,65,0,0
1,note_on,72,49,240
1,note_on,69,49,0
1,note_on,77,69,0
1,note_on,77,0,240
1,note_on,69,0,0
1,note_on,72,0,0
1,note_on,74,75,0
1,note_on,74,0,120
1,note_on,74,69,120
1,note_on,70,49,0
1,note_on,74,0,240
1,note_on,72,78,0
1,note_on,72,0,120
1,note_on,70,0,120
1,note_on,72,69,0
1,note_on,69,49,0
1,note_on,72,0,240
1,note_on,70,77,0
1,note_on,65,44,0
1,note_on,65,0,240
1,note_on,70,0,0
1,note_on,69,0,0
1,note_on,64,49,0
1,note_on,67,69,0
1,note_on,67,0,240
1,note_on,64,0,0
1,note_on,72,72,0
1,note_on,63,69,0
1,note_on,63,0,60
1,note_on,63,63,60
1,note_on,63,0,60
1,note_on,72,0,60
1,note_on,70,49,0
1,note_on,75,69,0
1,note_on,62,62,120
1,note_on,62,0,60
1,note_on,75,0,60
1,note_on,74,75,0
1,note_on,74,0,120
1,note_on,57,60,0
1,note_on,57,0,60
1,note_on,70,0,60
1,note_on,62,54,0
1,note_on,69,69,0
1,note_on,62,0,60
1,note_on,60,60,60
1,note_on,60,0,60
1,note_on,69,0,60
1,note_on,58,54,0
1,note_on,70,75,0
1,note_on,70,0,120
1,note_on,58,0,0
1,note_on,65,49,120
1,note_on,60,42,0
1,note_on,69,69,0
1,note_on,69,0,240
1,note_on,60,0,0
1,note_on,67,74,0
1,note_on,62,49,0
1,note_on,62,0,240
1,note_on,67,0,0
1,note_on,65,0,0
1,note_on,60,49,0
1,note_on,64,69,0
1,note_on,64,0,240
1,note_on,60,0,0
1,note_on,65,69,0
1,note_on,65,0,120
1,note_on,69,58,0
1,note_on,69,0,60
1,note_on,77,75,60
1,note_on,72,58,0
1,note_on,72,0,60
1,note_on,65,58,60
1,note_on,65,0,60
1,note_on,77,0,60
1,note_on,70,65,0
1,note_on,74,79,0
1,note_on,70,0,60
1,note_on,74,0,60
1,note_on,74,72,120
1,note_on,70,49,0
1,note_on,74,0,240
1,note_on,72,79,0
1,note_on,72,0,120
1,note_on,70,0,120
1,note_on,72,69,0
1,note_on,69,49,0
1,note_on,72,0,240
1,note_on,65,39,0
1,note_on,70,74,0
1,note_on,70,0,240
1,note_on,65,0,0
1,note_on,69,0,0
1,note_on,64,49,0
1,note_on,67,69,0
1,note_on,67,0,240
1,note_on,64,0,0
1,note_on,72,72,0
1,note_on,63,69,0
1,note_on,63,0,60
1,note_on,63,63,60
1,note_on,63,0,60
1,note_on,72,0,60
1,note_on,70,47,0
1,note_on,75,66,0
1,note_on,62,59,120
1,note_on,62,0,60
1,note_on,75,0,60
1,note_on,74,71,0
1,note_on,74,0,120
1,note_on,57,57,0
1,note_on,57,0,60
1,note_on,70,0,60
1,note_on,62,50,0
1,note_on,69,64,0
1,note_on,62,0,60
1,note_on,60,56,60
1,note_on,60,0,60
1,note_on,69,0,60
1,note_on,70,70,0
1,note_on,58,50,0
1,note_on,58,0,120
1,note_on,70,0,0
1,note_on,65,45,120
1,note_on,60,38,0
1,note_on,69,63,0
1,note_on,69,0,240
1,note_on,60,0,0
1,note_on,67,67,0
1,note_on,62,44,0
1,note_on,62,0,240
1,note_on,67,0,0
1,note_on,65,0,0
1,note_on,60,44,0
1,note_on,64,61,0
1,note_on,64,0,240
1,note_on,65,60,0
1,note_on,65,0,120
1,note_on,60,0,0
1,note_on,57,44,0
1,note_on,57,0,60
1,note_on,60,53,60
1,note_on,65,53,0
1,note_on,60,0,60
1,note_on,53,47,60
1,note_on,53,0,60
1,note_on,65,0,60
1,note_on,57,43,0
1,note_on,60,51,0
1,note_on,57,0,60
1,note_on,48,46,60
1,note_on,48,0,60
1,note_on,60,0,60
1,note_on,62,51,0
1,note_on,58,43,0
1,note_on,58,0,60
1,note_on,56,45,60
1,note_on,56,0,60
1,note_on,62,0,60
1,note_on,58,43,0
1,note_on,63,51,0
1,note_on,58,0,60
1,note_on,54,43,60
1,note_on,54,0,60
1,note_on,63,0,60
1,note_on,58,51,0
1,note_on,63,61,0
1,note_on,58,0,60
1,note_on,51,48,60
1,note_on,51,0,60
1,note_on,63,0,60
1,note_on,54,47,0
1,note_on,58,56,0
1,note_on,54,0,60
1,note_on,46,49,60
1,note_on,46,0,60
1,note_on,58,0,60
1,note_on,53,46,0
1,note_on,60,57,0
1,note_on,53,0,60
1,note_on,51,48,60
1,note_on,51,0,60
1,note_on,60,0,60
1,note_on,61,56,0
1,note_on,49,45,0
1,note_on,49,0,60
1,note_on,56,48,60
1,note_on,56,0,60
1,note_on,61,0,60
1,note_on,58,54,0
1,note_on,63,64,0
1,note_on,58,0,60
1,note_on,51,51,60
1,note_on,51,0,60
1,note_on,63,0,60
1,note_on,54,48,0
1,note_on,58,57,0
1,note_on,54,0,60
1,note_on,46,51,60
1,note_on,46,0,60
1,note_on,58,0,60
1,note_on,60,55,0
1,note_on,53,46,0
1,note_on,53,0,60
1,note_on,51,51,60
1,note_on,51,0,60
1,note_on,60,0,60
1,note_on,49,41,0
1,note_on,61,57,0
1,note_on,61,0,60
1,note_on,49,0,0
1,note_on,49,51,60
1,note_on,49,0,120
1,note_on,58,57,0
1,note_on,58,0,120
1,note_on,51,51,0
1,note_on,51,0,120
1,note_on,63,59,0
1,note_on,63,0,120
1,note_on,48,52,0
1,note_on,48,0,120
1,note_on,60,61,0
1,note_on,60,0,120
1,note_on,53,57,0
1,note_on,53,0,120
1,note_on,65,64,0
1,note_on,65,0,120
1,note_on,50,57,0
1,note_on,50,0,120
1,note_on,62,68,0
1,note_on,62,0,120
1,note_on,55,63,0
1,note_on,55,0,120
1,note_on,67,71,0
1,note_on,67,0,120
1,note_on,60,64,0
1,note_on,60,0,120
1,note_on,72,76,0
1,note_on,72,0,120
1,note_on,65,71,0
1,note_on,65,0,120
1,note_on,77,80,0
1,note_on,77,0,120
1,note_on,69,58,0
1,note_on,69,0,60
1,note_on,77,75,60
1,note_on,72,58,0
1,note_on,72,0,60
1,note_on,65,58,60
1,note_on,65,0,60
1,note_on,77,0,60
1,note_on,70,65,0
1,note_on,74,79,0
1,note_on,70,0,60
1,note_on,74,0,60
1,note_on,74,72,120
1,note_on,70,49,0
1,note_on,74,0,240
1,note_on,72,79,0
1,note_on,72,0,120
1,note_on,70,0,120
1,note_on,69,49,0
1,note_on,72,69,0
1,note_on,72,0,240
1,note_on,70,73,0
1,note_on,65,42,0
1,note_on,65,0,240
1,note_on,70,0,0
1,note_on,69,0,0
1,note_on,67,69,0
1,note_on,64,49,0
1,note_on,64,0,240
1,note_on,67,0,0
1,note_on,72,72,0
1,note_on,63,69,0
1,note_on,63,0,60
1,note_on,63,63,60
1,note_on,63,0,60
1,note_on,72,0,60
1,note_on,70,46,0
1,note_on,75,65,0
1,note_on,62,58,120
1,note_on,62,0,60
1,note_on,75,0,60
1,note_on,74,70,0
1,note_on,74,0,120
1,note_on,57,55,0
1,note_on,57,0,60
1,note_on,70,0,60
1,note_on,62,52,0
1,note_on,69,64,0
1,note_on,62,0,60
1,note_on,60,55,60
1,note_on,60,0,60
1,note_on,69,0,60
1,note_on,58,49,0
1,note_on,70,68,0
1,note_on,70,0,120
1,note_on,58,0,0
1,note_on,60,36,120
1,note_on,65,38,0
1,note_on,69,62,0
1,note_on,69,0,240
1,note_on,60,0,0
1,note_on,62,51,0
1,note_on,67,65,0
1,note_on,67,0,240
1,note_on,62,0,0
1,note_on,65,0,0
1,note_on,64,60,0
1,note_on,60,42,0
1,note_on,64,0,240
1,note_on,65,59,0
1,note_on,65,0,120
1,note_on,60,0,0
1,note_on,57,47,0
1,note_on,57,0,60
1,note_on,65,53,60
1,note_on,60,53,0
1,note_on,60,0,60
1,note_on,53,47,60
1,note_on,53,0,60
1,note_on,65,0,60
1,note_on,60,51,0
1,note_on,57,43,0
1,note_on,57,0,60
1,note_on,48,46,60
1,note_on,48,0,60
1,note_on,60,0,60
1,note_on,62,51,0
1,note_on,58,43,0
1,note_on,58,0,60
1,note_on,56,45,60
1,note_on,56,0,60
1,note_on,62,0,60
1,note_on,63,51,0
1,note_on,58,43,0
1,note_on,58,0,60
1,note_on,54,46,60
1,note_on,54,0,60
1,note_on,63,0,60
1,note_on,58,51,0
1,note_on,63,61,0
1,note_on,58,0,60
1,note_on,51,48,60
1,note_on,51,0,60
1,note_on,63,0,60
1,note_on,58,56,0
1,note_on,54,47,0
1,note_on,54,0,60
1,note_on,46,49,60
1,note_on,46,0,60
1,note_on,58,0,60
1,note_on,60,57,0
1,note_on,53,48,0
1,note_on,53,0,60
1,note_on,51,48,60
1,note_on,51,0,60
1,note_on,60,0,60
1,note_on,49,47,0
1,note_on,61,56,0
1,note_on,49,0,60
1,note_on,56,48,60
1,note_on,56,0,60
1,note_on,61,0,60
1,note_on,63,64,0
1,note_on,58,54,0
1,note_on,58,0,60
1,note_on,51,51,60
1,note_on,51,0,60
1,note_on,63,0,60
1,note_on,58,57,0
1,note_on,54,48,0
1,note_on,54,0,60
1,note_on,46,51,60
1,note_on,46,0,60
1,note_on,58,0,60
1,note_on,53,46,0
1,note_on,60,55,0
1,note_on,53,0,60
1,note_on,51,51,60
1,note_on,51,0,60
1,note_on,60,0,60
1,note_on,49,48,0
1,note_on,61,57,0
1,note_on,61,0,60
1,note_on,49,0,0
1,note_on,49,51,60
1,note_on,49,0,120
1,note_on,58,57,0
1,note_on,58,0,120
1,note_on,51,51,0
1,note_on,51,0,120
1,note_on,63,59,0
1,note_on,63,0,120
1,note_on,48,53,0
1,note_on,48,0,120
1,note_on,60,61,0
1,note_on,60,0,120
1,note_on,53,57,0
1,note_on,53,0,120
1,note_on,65,64,0
1,note_on,65,0,120
1,note_on,50,57,0
1,note_on,50,0,120
1,note_on,62,67,0
1,note_on,62,0,120
1,note_on,55,63,0
1,note_on,55,0,120
1,note_on,67,70,0
1,note_on,67,0,120
1,note_on,60,63,0
1,note_on,60,0,120
1,note_on,72,75,0
1,note_on,72,0,120
1,note_on,65,70,0
1,note_on,65,0,120
1,note_on,77,78,0
1,note_on,77,0,120
1,note_on,69,51,0
1,note_on,69,0,60
1,note_on,72,58,60
1,note_on,77,75,0
1,note_on,72,0,60
1,note_on,65,58,60
1,note_on,65,0,60
1,note_on,77,0,60
1,note_on,70,65,0
1,note_on,74,79,0
1,note_on,70,0,60
1,note_on,74,0,60
1,note_on,70,49,120
1,note_on,74,72,0
1,note_on,74,0,240
1,note_on,72,79,0
1,note_on,72,0,120
1,note_on,70,0,120
1,note_on,69,49,0
1,note_on,72,69,0
1,note_on,72,0,240
1,note_on,65,44,0
1,note_on,70,71,0
1,note_on,70,0,240
1,note_on,65,0,0
1,note_on,69,0,0
1,note_on,67,69,0
1,note_on,64,49,0
1,note_on,64,0,240
1,note_on,67,0,0
1,note_on,72,72,0
1,note_on,63,69,0
1,note_on,63,0,60
1,note_on,63,63,60
1,note_on,63,0,60
1,note_on,72,0,60
1,note_on,75,65,0
1,note_on,70,55,0
1,note_on,62,58,120
1,note_on,62,0,60
1,note_on,75,0,60
1,note_on,74,70,0
1,note_on,74,0,120
1,note_on,57,56,0
1,note_on,57,0,60
1,note_on,70,0,60
1,note_on,62,53,0
1,note_on,69,64,0
1,note_on,62,0,60
1,note_on,60,55,60
1,note_on,60,0,60
1,note_on,69,0,60
1,note_on,58,58,0
1,note_on,70,69,0
1,note_on,70,0,120
1,note_on,58,0,0
1,note_on,69,62,120
1,note_on,60,44,0
1,note_on,65,44,0
1,note_on,60,0,240
1,note_on,69,0,0
1,note_on,62,43,0
1,note_on,67,65,0
1,note_on,67,0,240
1,note_on,62,0,0
1,note_on,65,0,0
1,note_on,64,60,0
1,note_on,60,43,0
1,note_on,64,0,240
1,note_on,65,60,0
1,note_on,65,0,240
1,note_on,60,0,0
1,note_on,70,43,0
1,note_on,58,30,0
1,note_on,58,0,240
1,note_on,70,0,0
1,note_on,72,43,0
1,note_on,60,30,0
1,note_on,60,0,240
1,note_on,72,0,0
1,note_on,74,44,0
1,note_on,62,31,0
1,note_on,62,0,240
1,note_on,74,0,0
1,note_on,77,54,0
1,note_on,65,34,0
1,note_on,65,0,240
1,note_on,77,0,0
1,note_on,67,36,0
1,note_on,79,58,0
1,note_on,79,0,240
1,note_on,67,0,0
1,note_on,65,29,0
1,note_on,77,42,0
1,note_on,77,0,240
1,note_on,65,0,0
1,note_on,62,31,0
1,note_on,74,44,0
1,note_on,74,0,240
1,note_on,62,0,0
1,note_on,70,39,0
1,note_on,58,28,0
1,note_on,58,0,240
1,note_on,70,0,0
1,note_on,65,38,0
1,note_on,57,27,0
1,note_on,60,27,0
1,note_on,60,0,960
1,note_on,57,0,0
1,note_on,65,0,0
1,note_on,70,43,0
1,note_on,58,30,0
1,note_on,58,0,240
1,note_on,70,0,0
1,note_on,60,30,0
1,note_on,72,43,0
1,note_on,72,0,240
1,note_on,60,0,0
1,note_on,74,44,0
1,note_on,62,31,0
1,note_on,62,0,240
1,note_on,74,0,0
1,note_on,65,34,0
1,note_on,77,51,0
1,note_on,77,0,240
1,note_on,65,0,0
1,note_on,79,57,0
1,note_on,67,36,0
1,note_on,67,0,240
1,note_on,79,0,0
1,note_on,65,29,0
1,note_on,77,42,0
1,note_on,77,0,240
1,note_on,65,0,0
1,note_on,74,44,0
1,note_on,62,31,0
1,note_on,62,0,240
1,note_on,74,0,0
1,note_on,58,28,0
1,note_on,70,39,0
1,note_on,70,0,240
1,note_on,58,0,0
1,note_on,57,27,0
1,note_on,65,38,0
1,note_on,60,27,0
1,note_on,60,0,960
1,note_on,65,0,0
1,note_on,57,0,0
1,note_on,70,43,0
1,note_on,58,30,0
1,note_on,58,0,240
1,note_on,70,0,0
1,note_on,60,30,0
1,note_on,72,43,0
1,note_on,72,0,240
1,note_on,60,0,0
1,note_on,74,44,0
1,note_on,62,37,0
1,note_on,62,0,240
1,note_on,65,44,0
1,note_on,65,0,240
1,note_on,67,51,0
1,note_on,67,0,240
1,note_on,65,43,0
1,note_on,65,0,240
1,note_on,62,46,0
1,note_on,62,0,240
1,note_on,58,40,0
1,note_on,74,0,120
1,note_on,70,53,0
1,note_on,70,0,120
1,note_on,58,0,0
1,note_on,65,42,0
1,note_on,77,58,0
1,note_on,65,0,240
1,note_on,69,45,0
1,note_on,69,0,240
1,note_on,70,47,0
1,note_on,70,0,240
1,note_on,69,37,0
1,note_on,77,0,120
1,note_on,76,57,0
1,note_on,76,0,120
1,note_on,69,0,0
1,note_on,74,62,0
1,note_on,65,38,0
1,note_on,65,0,240
1,note_on,60,33,0
1,note_on,74,0,120
1,note_on,72,55,0
1,note_on,72,0,120
1,note_on,60,0,0
1,note_on,58,40,0
1,note_on,72,59,0
1,note_on,58,0,240
1,note_on,60,37,0
1,note_on,60,0,240
1,note_on,69,39,0
1,note_on,69,0,240
1,note_on,72,0,0
1,note_on,67,29,0
1,note_on,70,41,0
1,note_on,70,0,240
1,note_on,67,0,0
1,note_on,69,46,0
1,note_on,64,31,0
1,note_on,64,0,160
1,note_on,60,28,0
1,note_on,69,0,80
1,note_on,67,41,0
1,note_on,60,0,80
1,note_on,58,28,0
1,note_on,58,0,160
1,note_on,67,0,0
1,note_on,65,42,0
1,note_on,56,29,0
1,note_on,57,27,160
1,note_on,56,0,10
1,note_on,58,27,150
1,note_on,57,0,10
1,note_on,58,0,150
1,note_on,57,29,0
1,note_on,57,0,360
1,note_on,65,0,120
1,note_on,56,49,480
1,note_on,70,49,0
1,note_on,56,0,240
1,note_on,58,41,0
1,note_on,58,0,240
1,note_on,67,45,0
1,note_on,67,0,240
1,note_on,65,37,0
1,note_on,65,0,240
1,note_on,60,43,0
1,note_on,60,0,240
1,note_on,58,37,0
1,note_on,58,0,240
1,note_on,70,0,0
1,note_on,56,49,0
1,note_on,70,49,0
1,note_on,56,0,240
1,note_on,58,41,0
1,note_on,58,0,240
1,note_on,65,49,0
1,note_on,65,0,240
1,note_on,63,38,0
1,note_on,63,0,240
1,note_on,60,46,0
1,note_on,60,0,240
1,note_on,58,38,0
1,note_on,58,0,240
1,note_on,70,0,0
1,note_on,70,54,0
1,note_on,56,54,0
1,note_on,56,0,240
1,note_on,64,47,0
1,note_on,64,0,240
1,note_on,70,0,0
1,note_on,56,57,0
1,note_on,70,57,0
1,note_on,56,0,240
1,note_on,65,52,0
1,note_on,65,0,240
1,note_on,70,0,0
1,note_on,56,59,0
1,note_on,70,59,0
1,note_on,56,0,240
1,note_on,66,54,0
1,note_on,66,0,240
1,note_on,56,65,0
1,note_on,56,0,240
1,note_on,68,50,0
1,note_on,68,0,240
1,note_on,55,54,0
1,note_on,55,0,240
1,note_on,67,47,0
1,note_on,67,0,240
1,note_on,70,0,0
1,note_on,63,38,0
1,note_on,75,54,0
1,note_on,75,0,240
1,note_on,63,0,0
1,note_on,77,58,0
1,note_on,65,41,0
1,note_on,65,0,240
1,note_on,77,0,0
1,note_on,79,64,0
1,note_on,67,64,0
1,note_on,67,0,240
1,note_on,75,45,0
1,note_on,75,0,240
1,note_on,77,48,0
1,note_on,77,0,240
1,note_on,75,45,0
1,note_on,75,0,180
1,note_on,72,52,0
1,note_on,79,0,60
1,note_on,77,52,0
1,note_on,77,0,240
1,note_on,72,0,0
1,note_on,75,45,0
1,note_on,67,45,0
1,note_on,67,0,240
1,note_on,75,0,0
1,note_on,74,56,0
1,note_on,62,56,0
1,note_on,62,0,240
1,note_on,70,42,0
1,note_on,70,0,240
1,note_on,72,46,0
1,note_on,72,0,240
1,note_on,70,43,0
1,note_on,70,0,180
1,note_on,67,52,0
1,note_on,74,0,60
1,note_on,70,52,0
1,note_on,67,0,240
1,note_on,62,46,0
1,note_on,62,0,240
1,note_on,70,0,0
1,note_on,79,59,0
1,note_on,67,50,0
1,note_on,67,0,240
1,note_on,75,45,0
1,note_on,75,0,240
1,note_on,77,48,0
1,note_on,77,0,240
1,note_on,79,0,0
1,note_on,79,48,0
1,note_on,75,43,0
1,note_on,75,0,240
1,note_on,79,0,0
1,note_on,77,54,0
1,note_on,72,45,0
1,note_on,72,0,240
1,note_on,67,48,0
1,note_on,77,0,120
1,note_on,75,52,0
1,note_on,75,0,120
1,note_on,67,0,0
1,note_on,62,54,0
1,note_on,74,54,0
1,note_on,62,0,240
1,note_on,70,45,0
1,note_on,70,0,240
1,note_on,72,49,0
1,note_on,72,0,240
1,note_on,70,46,0
1,note_on,70,0,240
1,note_on,74,0,0
1,note_on,62,33,0
1,note_on,67,47,0
1,note_on,67,0,240
1,note_on,62,0,0
1,note_on,60,30,0
1,note_on,69,42,0
1,note_on,69,0,240
1,note_on,60,0,0
1,note_on,58,31,0
1,note_on,70,50,0
1,note_on,70,0,240
1,note_on,58,0,0
1,note_on,69,34,0
1,note_on,72,48,0
1,note_on,72,0,240
1,note_on,69,0,0
1,note_on,67,36,0
1,note_on,74,51,0
1,note_on,74,0,240
1,note_on,67,0,0
1,note_on,76,53,0
1,note_on,65,38,0
1,note_on,65,0,240
1,note_on,76,0,0
1,note_on,77,56,0
1,note_on,64,39,0
1,note_on,64,0,240
1,note_on,77,0,0
1,note_on,79,59,0
1,note_on,74,42,0
1,note_on,74,0,240
1,note_on,79,0,0
1,note_on,81,60,0
1,note_on,72,43,0
1,note_on,72,0,240
1,note_on,81,0,0
1,note_on,76,41,0
1,note_on,79,58,0
1,note_on,79,0,240
1,note_on,76,0,0
1,note_on,69,39,0
1,note_on,77,56,0
1,note_on,77,0,240
1,note_on,69,0,0
1,note_on,72,37,0
1,note_on,76,54,0
1,note_on,76,0,240
1,note_on,72,0,0
1,note_on,74,51,0
1,note_on,67,35,0
1,note_on,67,0,240
1,note_on,74,0,0
1,note_on,72,49,0
1,note_on,69,35,0
1,note_on,69,0,240
1,note_on,72,0,0
1,note_on,70,47,0
1,note_on,64,33,0
1,note_on,64,0,240
1,note_on,70,0,0
1,note_on,69,40,0
1,note_on,65,28,0
1,note_on,65,0,240
1,note_on,69,0,0
1,note_on,61,33,0
1,note_on,67,46,0
1,note_on,67,0,240
1,note_on,61,0,0
1,note_on,62,28,0
1,note_on,65,40,0
1,note_on,65,0,240
1,note_on,62,0,0
1,note_on,69,45,0
1,note_on,63,32,0
1,note_on,63,0,240
1,note_on,69,0,0
1,note_on,67,40,0
1,note_on,64,28,0
1,note_on,64,0,240
1,note_on,67,0,0
1,note_on,60,31,0
1,note_on,65,43,0
1,note_on,65,0,240
1,note_on,60,0,0
1,note_on,63,23,0
1,note_on,66,34,0
1,note_on,66,0,240
1,note_on,63,0,0
1,note_on,67,33,0
1,note_on,60,23,0
1,note_on,60,0,120
1,note_on,67,0,0
1,note_on,63,19,0
1,note_on,68,28,0
1,note_on,68,0,120
1,note_on,63,0,0
1,note_on,62,23,0
1,note_on,69,33,0
1,note_on,69,0,120
1,note_on,62,0,0
1,note_on,60,19,0
1,note_on,65,28,0
1,note_on,65,0,90
1,note_on,60,0,0
1,note_on,58,27,30
1,note_on,70,38,0
1,note_on,70,0,240
1,note_on,58,0,0
1,note_on,72,38,0
1,note_on,60,27,0
1,note_on,60,0,240
1,note_on,72,0,0
1,note_on,62,28,0
1,note_on,74,39,0
1,note_on,74,0,240
1,note_on,62,0,0
1,note_on,77,48,0
1,note_on,65,30,0
1,note_on,65,0,240
1,note_on,77,0,0
1,note_on,79,54,0
1,note_on,67,32,0
1,note_on,67,0,240
1,note_on,79,0,0
1,note_on,77,37,0
1,note_on,65,26,0
1,note_on,65,0,240
1,note_on,77,0,0
1,note_on,62,28,0
1,note_on,74,39,0
1,note_on,74,0,240
1,note_on,62,0,0
1,note_on,70,35,0
1,note_on,58,24,0
1,note_on,58,0,240
1,note_on,70,0,0
1,note_on,57,23,0
1,note_on,60,23,0
1,note_on,65,34,0
1,note_on,65,0,960
1,note_on,60,0,0
1,note_on,57,0,0
1,note_on,58,30,0
1,note_on,70,43,0
1,note_on,70,0,240
1,note_on,58,0,0
1,note_on,60,30,0
1,note_on,72,43,0
1,note_on,72,0,240
1,note_on,60,0,0
1,note_on,74,44,0
1,note_on,62,31,0
1,note_on,62,0,240
1,note_on,74,0,0
1,note_on,65,34,0
1,note_on,77,54,0
1,note_on,77,0,240
1,note_on,65,0,0
1,note_on,67,36,0
1,note_on,79,57,0
1,note_on,79,0,240
1,note_on,67,0,0
1,note_on,77,42,0
1,note_on,65,29,0
1,note_on,65,0,240
1,note_on,77,0,0
1,note_on,74,44,0
1,note_on,62,31,0
1,note_on,62,0,240
1,note_on,74,0,0
1,note_on,58,28,0
1,note_on,70,39,0
1,note_on,70,0,240
1,note_on,58,0,0
1,note_on,60,27,0
1,note_on,57,27,0
1,note_on,65,50,0
1,note_on,65,0,960
1,note_on,57,0,0
1,note_on,60,0,0
1,note_on,70,47,0
1,note_on,58,33,0
1,note_on,58,0,240
1,note_on,70,0,0
1,note_on,72,49,0
1,note_on,60,34,0
1,note_on,60,0,240
1,note_on,72,0,0
1,note_on,74,51,0
1,note_on,62,36,0
1,note_on,62,0,240
1,note_on,74,0,0
1,note_on,63,37,0
1,note_on,75,53,0
1,note_on,75,0,240
1,note_on,63,0,0
1,note_on,77,57,0
1,note_on,65,40,0
1,note_on,65,0,240
1,note_on,77,0,0
1,note_on,78,62,0
1,note_on,66,42,0
1,note_on,66,0,240
1,note_on,78,0,0
1,note_on,79,68,0
1,note_on,67,47,0
1,note_on,67,0,240
1,note_on,79,0,0
1,note_on,77,57,0
1,note_on,65,40,0
1,note_on,65,0,240
1,note_on,77,0,0
1,note_on,64,39,0
1,note_on,76,55,0
1,note_on,76,0,240
1,note_on,64,0,0
1,note_on,74,53,0
1,note_on,62,37,0
1,note_on,62,0,240
1,note_on,74,0,0
1,note_on,60,34,0
1,note_on,72,50,0
1,note_on,72,0,240
1,note_on,60,0,0
1,note_on,74,47,0
1,note_on,62,33,0
1,note_on,62,0,240
1,note_on,74,0,0
1,note_on,72,45,0
1,note_on,60,32,0
1,note_on,60,0,240
1,note_on,72,0,0
1,note_on,62,29,0
1,note_on,74,42,0
1,note_on,74,0,240
1,note_on,62,0,0
1,note_on,76,51,0
1,note_on,64,36,0
1,note_on,64,0,240
1,note_on,76,0,0
1,note_on,65,37,0
1,note_on,77,52,0
1,note_on,77,0,240
1,note_on,65,0,0
1,note_on,66,39,0
1,note_on,78,58,0
1,note_on,78,0,240
1,note_on,66,0,0
1,note_on,67,40,0
1,note_on,79,60,0
1,note_on,79,0,240
1,note_on,67,0,0
1,note_on,81,64,0
1,note_on,69,43,0
1,note_on,69,0,240
1,note_on,81,0,0
1,note_on,79,55,0
1,note_on,67,39,0
1,note_on,67,0,240
1,note_on,79,0,0
1,note_on,77,55,0
1,note_on,65,39,0
1,note_on,65,0,240
1,note_on,77,0,0
1,note_on,63,37,0
1,note_on,75,53,0
1,note_on,75,0,240
1,note_on,63,0,0
1,note_on,62,34,0
1,note_on,74,50,0
1,note_on,74,0,240
1,note_on,62,0,0
1,note_on,60,33,0
1,note_on,72,47,0
1,note_on,72,0,240
1,note_on,60,0,0
1,note_on,70,47,0
1,note_on,58,33,0
1,note_on,58,0,240
1,note_on,70,0,0
1,note_on,60,29,0
1,note_on,72,42,0
1,note_on,72,0,240
1,note_on,60,0,0
1,note_on,62,39,0
1,note_on,74,47,0
1,note_on,62,0,240
1,note_on,72,52,0
1,note_on,72,0,240
1,note_on,70,49,0
1,note_on,70,0,240
1,note_on,69,44,0
1,note_on,69,0,240
1,note_on,74,0,0
1,note_on,75,49,0
1,note_on,67,34,0
1,note_on,67,0,240
1,note_on,75,0,0
1,note_on,77,52,0
1,note_on,65,37,0
1,note_on,65,0,240
1,note_on,77,0,0
1,note_on,63,47,0
1,note_on,79,56,0
1,note_on,63,0,240
1,note_on,65,43,0
1,note_on,65,0,240
1,note_on,67,47,0
1,note_on,67,0,240
1,note_on,79,0,0
1,note_on,77,53,0
1,note_on,69,38,0
1,note_on,69,0,240
1,note_on,77,0,0
1,note_on,70,36,0
1,note_on,75,51,0
1,note_on,75,0,240
1,note_on,70,0,0
1,note_on,74,50,0
1,note_on,71,35,0
1,note_on,71,0,240
1,note_on,74,0,0
1,note_on,72,52,0
1,note_on,70,49,240
1,note_on,70,0,240
1,note_on,72,0,0
1,note_on,72,49,0
1,note_on,69,33,0
1,note_on,69,0,240
1,note_on,72,0,0
1,note_on,74,48,0
1,note_on,67,31,0
1,note_on,67,0,240
1,note_on,74,0,0
1,note_on,75,50,0
1,note_on,65,42,0
1,note_on,65,0,240
1,note_on,63,47,0
1,note_on,63,0,240
1,note_on,75,0,0
1,note_on,77,54,0
1,note_on,62,45,0
1,note_on,62,0,240
1,note_on,63,47,0
1,note_on,63,0,240
1,note_on,65,47,0
1,note_on,65,0,240
1,note_on,77,0,0
1,note_on,67,33,0
1,note_on,75,46,0
1,note_on,75,0,240
1,note_on,67,0,0
1,note_on,68,33,0
1,note_on,74,47,0
1,note_on,74,0,240
1,note_on,68,0,0
1,note_on,69,31,0
1,note_on,72,44,0
1,note_on,72,0,240
1,note_on,69,0,0
1,note_on,70,47,0
1,note_on,69,39,240
1,note_on,69,0,120
1,note_on,70,38,0
1,note_on,70,0,60
1,note_on,72,37,0
1,note_on,72,0,60
1,note_on,70,0,0
1,note_on,67,27,0
1,note_on,70,48,0
1,note_on,70,0,240
1,note_on,67,0,0
1,note_on,65,28,0
1,note_on,72,49,0
1,note_on,72,0,240
1,note_on,65,0,0
1,note_on,63,50,0
1,note_on,74,51,0
1,note_on,63,0,240
1,note_on,62,44,0
1,note_on,62,0,240
1,note_on,74,0,0
1,note_on,60,30,0
1,note_on,75,51,0
1,note_on,75,0,240
1,note_on,60,0,0
1,note_on,74,50,0
1,note_on,62,29,0
1,note_on,62,0,240
1,note_on,74,0,0
1,note_on,63,28,0
1,note_on,72,48,0
1,note_on,72,0,240
1,note_on,63,0,0
1,note_on,70,47,0
1,note_on,64,28,0
1,note_on,64,0,240
1,note_on,70,0,0
1,note_on,69,46,0
1,note_on,65,28,0
1,note_on,65,0,240
1,note_on,69,0,0
1,note_on,67,44,0
1,note_on,63,26,0
1,note_on,63,0,240
1,note_on,67,0,0
1,note_on,62,23,0
1,note_on,65,41,0
1,note_on,65,0,240
1,note_on,62,0,0
1,note_on,63,40,0
1,note_on,60,23,0
1,note_on,60,0,240
1,note_on,63,0,0
1,note_on,58,23,0
1,note_on,62,39,0
1,note_on,62,0,240
1,note_on,58,0,0
1,note_on,60,38,0
1,note_on,57,22,0
1,note_on,57,0,240
1,note_on,60,0,0
1,note_on,55,21,0
1,note_on,58,36,0
1,note_on,58,0,120
1,note_on,55,0,0
1,note_on,53,18,0
1,note_on,57,31,0
1,note_on,57,0,120
1,note_on,53,0,0
1,note_on,55,33,0
1,note_on,51,19,0
1,note_on,51,0,120
1,note_on,55,0,0
1,note_on,50,19,0
1,note_on,53,34,0
1,note_on,53,0,120
1,note_on,50,0,0
1,note_on,51,38,0
1,note_on,48,22,0
1,note_on,48,0,1440
1,note_on,51,0,0
1,note_on,53,27,0
1,note_on,58,27,0
1,note_on,65,38,0
1,note_on,65,0,720
1,note_on,58,0,0
1,note_on,53,0,0
1,note_on,63,48,240
1,note_on,51,41,120
1,note_on,51,0,120
1,note_on,58,48,0
1,note_on,58,0,120
1,note_on,63,0,0
1,note_on,62,37,0
1,note_on,62,0,120
1,note_on,60,49,0
1,note_on,51,40,120
1,note_on,51,0,120
1,note_on,57,40,0
1,note_on,57,0,120
1,note_on,60,0,0
1,note_on,60,40,0
1,note_on,60,0,120
1,note_on,63,47,0
1,note_on,69,40,120
1,note_on,69,0,120
1,note_on,72,46,0
1,note_on,72,0,120
1,note_on,75,51,0
1,note_on,75,0,120
1,note_on,63,0,0
1,note_on,74,60,0
1,note_on,62,46,120
1,note_on,62,0,120
1,note_on,69,54,0
1,note_on,69,0,120
1,note_on,74,0,0
1,note_on,72,52,0
1,note_on,72,0,120
1,note_on,70,58,0
1,note_on,62,51,120
1,note_on,62,0,120
1,note_on,67,52,0
1,note_on,67,0,120
1,note_on,70,52,0
1,note_on,70,0,120
1,note_on,70,0,0
1,note_on,74,62,0
1,note_on,79,49,120
1,note_on,79,0,120
1,note_on,82,59,0
1,note_on,82,0,120
1,note_on,86,63,0
1,note_on,86,0,120
1,note_on,74,0,0
1,note_on,60,52,0
1,note_on,48,40,120
1,note_on,48,0,120
1,note_on,55,40,0
1,note_on,55,0,120
1,note_on,60,0,0
1,note_on,58,44,0
1,note_on,58,0,120
1,note_on,57,51,0
1,note_on,48,36,120
1,note_on,48,0,120
1,note_on,53,36,0
1,note_on,53,0,120
1,note_on,57,0,0
1,note_on,57,36,0
1,note_on,57,0,120
1,note_on,60,47,0
1,note_on,65,40,120
1,note_on,65,0,120
1,note_on,69,46,0
1,note_on,69,0,120
1,note_on,72,51,0
1,note_on,72,0,120
1,note_on,60,0,0
1,note_on,70,60,0
1,note_on,58,44,120
1,note_on,58,0,120
1,note_on,65,48,0
1,note_on,65,0,120
1,note_on,70,0,0
1,note_on,69,52,0
1,note_on,69,0,120
1,note_on,67,58,0
1,note_on,58,48,120
1,note_on,58,0,120
1,note_on,63,48,0
1,note_on,63,0,120
1,note_on,67,48,0
1,note_on,67,0,120
1,note_on,67,0,0
1,note_on,70,62,0
1,note_on,75,49,120
1,note_on,75,0,120
1,note_on,79,59,0
1,note_on,79,0,120
1,note_on,82,63,0
1,note_on,82,0,120
1,note_on,70,0,0
1,note_on,57,54,0
1,note_on,45,39,120
1,note_on,45,0,120
1,note_on,51,39,0
1,note_on,51,0,120
1,note_on,57,0,0
1,note_on,55,44,0
1,note_on,55,0,120
1,note_on,54,55,0
1,note_on,45,39,120
1,note_on,45,0,120
1,note_on,50,39,0
1,note_on,50,0,120
1,note_on,54,0,0
1,note_on,54,39,0
1,note_on,54,0,120
1,note_on,57,51,0
1,note_on,62,44,120
1,note_on,62,0,120
1,note_on,66,50,0
1,note_on,66,0,120
1,note_on,57,56,0
1,note_on,57,0,120
1,note_on,57,0,0
1,note_on,69,59,0
1,note_on,57,50,120
1,note_on,57,0,120
1,note_on,64,50,0
1,note_on,64,0,120
1,note_on,69,0,0
1,note_on,67,52,0
1,note_on,67,0,120
1,note_on,66,59,0
1,note_on,57,50,120
1,note_on,57,0,120
1,note_on,62,50,0
1,note_on,62,0,120
1,note_on,66,0,0
1,note_on,66,50,0
1,note_on,66,0,120
1,note_on,69,67,0
1,note_on,74,57,120
1,note_on,74,0,120
1,note_on,78,66,0
1,note_on,78,0,120
1,note_on,69,73,0
1,note_on,69,0,120
1,note_on,69,0,0
1,note_on,81,67,0
1,note_on,69,61,120
1,note_on,69,0,120
1,note_on,76,63,0
1,note_on,76,0,120
1,note_on,81,0,0
1,note_on,79,67,0
1,note_on,79,0,120
1,note_on,78,74,0
1,note_on,69,62,120
1,note_on,69,0,120
1,note_on,74,67,0
1,note_on,74,0,120
1,note_on,78,0,0
1,note_on,78,71,0
1,note_on,78,0,120
1,note_on,81,75,0
1,note_on,86,68,120
1,note_on,86,0,120
1,note_on,90,71,0
1,note_on,90,0,120
1,note_on,81,73,0
1,note_on,81,0,120
1,note_on,81,0,0
1,note_on,93,78,0
1,note_on,81,72,120
1,note_on,81,0,120
1,note_on,88,70,0
1,note_on,88,0,120
1,note_on,93,0,0
1,note_on,91,74,0
1,note_on,91,0,120
1,note_on,90,81,0
1,note_on,90,0,240
1,note_on,86,77,240
1,note_on,78,77,0
1,note_on,81,77,0
1,note_on,81,0,360
1,note_on,78,0,0
1,note_on,86,0,0
1,note_on,63,48,120
1,note_on,51,41,120
1,note_on,51,0,120
1,note_on,58,48,0
1,note_on,58,0,120
1,note_on,63,0,0
1,note_on,62,37,0
1,note_on,62,0,120
1,note_on,60,49,0
1,note_on,51,40,120
1,note_on,51,0,120
1,note_on,57,40,0
1,note_on,57,0,120
1,note_on,60,0,0
1,note_on,60,40,0
1,note_on,60,0,120
1,note_on,63,47,0
1,note_on,69,40,120
1,note_on,69,0,120
1,note_on,72,46,0
1,note_on,72,0,120
1,note_on,75,51,0
1,note_on,75,0,120
1,note_on,63,0,0
1,note_on,74,60,0
1,note_on,62,46,120
1,note_on,62,0,120
1,note_on,69,54,0
1,note_on,69,0,120
1,note_on,74,0,0
1,note_on,72,52,0
1,note_on,72,0,120
1,note_on,70,58,0
1,note_on,62,51,120
1,note_on,62,0,120
1,note_on,67,52,0
1,note_on,67,0,120
1,note_on,70,52,0
1,note_on,70,0,120
1,note_on,70,0,0
1,note_on,74,62,0
1,note_on,79,49,120
1,note_on,79,0,120
1,note_on,82,59,0
1,note_on,82,0,120
1,note_on,86,63,0
1,note_on,86,0,120
1,note_on,74,0,0
1,note_on,60,52,0
1,note_on,48,40,120
1,note_on,48,0,120
1,note_on,55,40,0
1,note_on,55,0,120
1,note_on,60,0,0
1,note_on,58,44,0
1,note_on,58,0,120
1,note_on,57,51,0
1,note_on,48,36,120
1,note_on,48,0,120
1,note_on,53,36,0
1,note_on,53,0,120
1,note_on,57,0,0
1,note_on,57,36,0
1,note_on,57,0,120
1,note_on,60,47,0
1,note_on,65,40,120
1,note_on,65,0,120
1,note_on,69,46,0
1,note_on,69,0,120
1,note_on,72,51,0
1,note_on,72,0,120
1,note_on,60,0,0
1,note_on,70,60,0
1,note_on,58,44,120
1,note_on,58,0,120
1,note_on,65,48,0
1,note_on,65,0,120
1,note_on,70,0,0
1,note_on,69,52,0
1,note_on,69,0,120
1,note_on,67,58,0
1,note_on,58,48,120
1,note_on,58,0,120
1,note_on,63,48,0
1,note_on,63,0,120
1,note_on,67,48,0
1,note_on,67,0,120
1,note_on,67,0,0
1,note_on,70,62,0
1,note_on,75,49,120
1,note_on,75,0,120
1,note_on,79,59,0
1,note_on,79,0,120
1,note_on,82,63,0
1,note_on,82,0,120
1,note_on,70,0,0
1,note_on,57,54,0
1,note_on,45,39,120
1,note_on,45,0,120
1,note_on,51,39,0
1,note_on,51,0,120
1,note_on,57,0,0
1,note_on,55,44,0
1,note_on,55,0,120
1,note_on,54,55,0
1,note_on,45,39,120
1,note_on,45,0,120
1,note_on,50,39,0
1,note_on,50,0,120
1,note_on,54,0,0
1,note_on,54,39,0
1,note_on,54,0,120
1,note_on,57,51,0
1,note_on,62,44,120
1,note_on,62,0,120
1,note_on,66,50,0
1,note_on,66,0,120
1,note_on,57,56,0
1,note_on,57,0,120
1,note_on,57,0,0
1,note_on,69,59,0
1,note_on,57,50,120
1,note_on,57,0,120
1,note_on,64,50,0
1,note_on,64,0,120
1,note_on,69,0,0
1,note_on,67,52,0
1,note_on,67,0,120
1,note_on,66,59,0
1,note_on,57,50,120
1,note_on,57,0,120
1,note_on,62,50,0
1,note_on,62,0,120
1,note_on,66,0,0
1,note_on,66,50,0
1,note_on,66,0,120
1,note_on,69,67,0
1,note_on,74,57,120
1,note_on,74,0,120
1,note_on,78,66,0
1,note_on,78,0,120
1,note_on,69,73,0
1,note_on,69,0,120
1,note_on,69,0,0
1,note_on,81,67,0
1,note_on,69,61,120
1,note_on,69,0,120
1,note_on,76,63,0
1,note_on,76,0,120
1,note_on,81,0,0
1,note_on,79,67,0
1,note_on,79,0,120
1,note_on,78,74,0
1,note_on,69,62,120
1,note_on,69,0,120
1,note_on,74,67,0
1,note_on,74,0,120
1,note_on,78,0,0
1,note_on,78,71,0
1,note_on,78,0,120
1,note_on,81,75,0
1,note_on,86,68,120
1,note_on,86,0,120
1,note_on,90,71,0
1,note_on,90,0,120
1,note_on,81,73,0
1,note_on,81,0,120
1,note_on,81,0,0
1,note_on,93,78,0
1,note_on,81,72,120
1,note_on,81,0,120
1,note_on,88,70,0
1,note_on,88,0,120
1,note_on,93,0,0
1,note_on,91,74,0
1,note_on,91,0,120
1,note_on,90,81,0
1,note_on,90,0,240
1,note_on,81,65,240
1,note_on,78,65,0
1,note_on,86,77,0
1,note_on,86,0,360
1,note_on,78,0,0
1,note_on,81,0,0
1,note_on,62,48,120
1,note_on,50,41,120
1,note_on,50,0,120
1,note_on,56,48,0
1,note_on,56,0,120
1,note_on,62,0,0
1,note_on,60,37,0
1,note_on,60,0,120
1,note_on,58,49,0
1,note_on,51,41,120
1,note_on,51,0,120
1,note_on,56,49,0
1,note_on,56,0,120
1,note_on,58,0,0
1,note_on,58,53,0
1,note_on,58,0,120
1,note_on,67,63,0
1,note_on,52,40,120
1,note_on,52,0,120
1,note_on,58,46,0
1,note_on,58,0,120
1,note_on,67,0,0
1,note_on,67,51,0
1,note_on,67,0,120
1,note_on,65,57,0
1,note_on,53,41,120
1,note_on,53,0,120
1,note_on,58,52,0
1,note_on,58,0,120
1,note_on,65,0,0
1,note_on,63,37,0
1,note_on,63,0,120
1,note_on,62,53,0
1,note_on,55,41,120
1,note_on,55,0,120
1,note_on,58,53,0
1,note_on,58,0,120
1,note_on,62,0,0
1,note_on,62,57,0
1,note_on,62,0,120
1,note_on,68,67,0
1,note_on,56,41,120
1,note_on,56,0,120
1,note_on,62,47,0
1,note_on,62,0,120
1,note_on,68,0,0
1,note_on,68,53,0
1,note_on,68,0,120
1,note_on,67,56,0
1,note_on,56,42,120
1,note_on,56,0,120
1,note_on,62,53,0
1,note_on,62,0,120
1,note_on,67,0,0
1,note_on,65,38,0
1,note_on,65,0,120
1,note_on,64,50,0
1,note_on,58,51,120
1,note_on,58,0,120
1,note_on,61,55,0
1,note_on,61,0,120
1,note_on,64,0,0
1,note_on,64,64,0
1,note_on,64,0,120
1,note_on,70,71,0
1,note_on,61,44,120
1,note_on,61,0,120
1,note_on,64,50,0
1,note_on,64,0,120
1,note_on,70,0,0
1,note_on,70,56,0
1,note_on,70,0,120
1,note_on,68,67,0
1,note_on,61,45,120
1,note_on,61,0,120
1,note_on,64,56,0
1,note_on,64,0,120
1,note_on,68,0,0
1,note_on,67,40,0
1,note_on,67,0,120
1,note_on,66,58,0
1,note_on,60,49,120
1,note_on,60,0,120
1,note_on,63,56,0
1,note_on,63,0,120
1,note_on,66,0,0
1,note_on,66,62,0
1,note_on,66,0,120
1,note_on,72,71,0
1,note_on,63,47,120
1,note_on,63,0,120
1,note_on,66,54,0
1,note_on,66,0,120
1,note_on,72,0,0
1,note_on,72,59,0
1,note_on,72,0,120
1,note_on,70,62,0
1,note_on,63,48,120
1,note_on,63,0,120
1,note_on,66,60,0
1,note_on,66,0,120
1,note_on,70,0,0
1,note_on,69,42,0
1,note_on,69,0,120
1,note_on,68,65,0
1,note_on,62,53,120
1,note_on,62,0,120
1,note_on,65,61,0
1,note_on,65,0,120
1,note_on,68,0,0
1,note_on,69,66,0
1,note_on,69,0,120
1,note_on,74,76,0
1,note_on,65,52,120
1,note_on,65,0,120
1,note_on,69,60,0
1,note_on,69,0,120
1,note_on,74,0,0
1,note_on,74,66,0
1,note_on,74,0,120
1,note_on,72,73,0
1,note_on,65,53,120
1,note_on,65,0,120
1,note_on,69,67,0
1,note_on,69,0,120
1,note_on,72,0,0
1,note_on,71,55,0
1,note_on,71,0,120
1,note_on,70,69,0
1,note_on,64,58,120
1,note_on,64,0,120
1,note_on,67,66,0
1,note_on,67,0,120
1,note_on,70,0,0
1,note_on,70,69,0
1,note_on,70,0,120
1,note_on,76,79,0
1,note_on,67,58,120
1,note_on,67,0,120
1,note_on,70,67,0
1,note_on,70,0,120
1,note_on,76,0,0
1,note_on,76,73,0
1,note_on,76,0,120
1,note_on,74,69,0
1,note_on,67,59,120
1,note_on,67,0,120
1,note_on,70,70,0
1,note_on,70,0,120
1,note_on,74,0,0
1,note_on,73,51,0
1,note_on,73,0,120
1,note_on,74,73,0
1,note_on,65,62,120
1,note_on,65,0,120
1,note_on,69,68,0
1,note_on,69,0,120
1,note_on,74,0,0
1,note_on,74,73,0
1,note_on,74,0,120
1,note_on,70,82,0
1,note_on,62,59,120
1,note_on,62,0,120
1,note_on,67,68,0
1,note_on,67,0,120
1,note_on,70,0,0
1,note_on,70,75,0
1,note_on,70,0,120
1,note_on,69,82,0
1,note_on,61,53,120
1,note_on,61,0,120
1,note_on,64,59,0
1,note_on,64,0,120
1,note_on,69,0,0
1,note_on,69,75,0
1,note_on,69,0,120
1,note_on,74,82,0
1,note_on,62,53,120
1,note_on,62,0,120
1,note_on,69,59,0
1,note_on,69,0,120
1,note_on,74,0,0
1,note_on,72,75,0
1,note_on,72,0,120
1,note_on,70,82,0
1,note_on,61,55,120
1,note_on,61,0,120
1,note_on,64,59,0
1,note_on,64,0,120
1,note_on,70,0,0
1,note_on,69,75,0
1,note_on,69,0,120
1,note_on,74,82,0
1,note_on,62,54,120
1,note_on,62,0,120
1,note_on,69,59,0
1,note_on,69,0,120
1,note_on,74,0,0
1,note_on,72,75,0
1,note_on,72,0,120
1,note_on,70,82,0
1,note_on,61,55,120
1,note_on,61,0,120
1,note_on,64,59,0
1,note_on,64,0,120
1,note_on,70,0,0
1,note_on,69,75,0
1,note_on,69,0,120
1,note_on,74,82,0
1,note_on,62,54,120
1,note_on,62,0,120
1,note_on,69,59,0
1,note_on,69,0,120
1,note_on,74,0,0
1,note_on,72,75,0
1,note_on,72,0,120
1,note_on,70,82,0
1,note_on,62,53,120
1,note_on,62,0,120
1,note_on,64,59,0
1,note_on,64,0,120
1,note_on,70,0,0
1,note_on,67,75,0
1,note_on,67,0,120
1,note_on,69,82,0
1,note_on,61,54,120
1,note_on,61,0,120
1,note_on,64,59,0
1,note_on,64,0,120
1,note_on,69,0,0
1,note_on,69,75,0
1,note_on,69,0,120
1,note_on,62,82,0
1,note_on,54,54,120
1,note_on,54,0,120
1,note_on,57,59,0
1,note_on,57,0,120
1,note_on,62,0,0
1,note_on,60,75,0
1,note_on,60,0,120
1,note_on,58,82,0
1,note_on,50,54,120
1,note_on,50,0,120
1,note_on,54,59,0
1,note_on,54,0,120
1,note_on,58,0,0
1,note_on,57,80,0
1,note_on,57,0,120
1,note_on,63,65,0
1,note_on,51,61,120
1,note_on,51,0,120
1,note_on,58,70,0
1,note_on,58,0,120
1,note_on,63,0,0
1,note_on,62,53,0
1,note_on,62,0,120
1,note_on,60,75,0
1,note_on,51,47,120
1,note_on,51,0,120
1,note_on,57,50,0
1,note_on,57,0,120
1,note_on,60,0,0
1,note_on,60,50,0
1,note_on,60,0,120
1,note_on,63,58,0
1,note_on,69,50,120
1,note_on,69,0,120
1,note_on,72,57,0
1,note_on,72,0,120
1,note_on,75,63,0
1,note_on,75,0,120
1,note_on,63,0,0
1,note_on,74,75,0
1,note_on,62,57,120
1,note_on,62,0,120
1,note_on,69,64,0
1,note_on,69,0,120
1,note_on,74,0,0
1,note_on,72,52,0
1,note_on,72,0,120
1,note_on,70,72,0
1,note_on,62,57,120
1,note_on,62,0,120
1,note_on,67,65,0
1,note_on,67,0,120
1,note_on,70,59,0
1,note_on,70,0,120
1,note_on,70,0,0
1,note_on,74,77,0
1,note_on,79,61,120
1,note_on,79,0,120
1,note_on,82,73,0
1,note_on,82,0,120
1,note_on,86,78,0
1,note_on,86,0,120
1,note_on,74,0,0
1,note_on,60,70,0
1,note_on,48,50,120
1,note_on,48,0,120
1,note_on,55,50,0
1,note_on,55,0,120
1,note_on,60,0,0
1,note_on,58,61,0
1,note_on,58,0,120
1,note_on,57,71,0
1,note_on,48,45,120
1,note_on,48,0,120
1,note_on,53,45,0
1,note_on,53,0,120
1,note_on,57,0,0
1,note_on,57,39,0
1,note_on,57,0,120
1,note_on,60,58,0
1,note_on,65,50,120
1,note_on,65,0,120
1,note_on,69,57,0
1,note_on,69,0,120
1,note_on,72,63,0
1,note_on,72,0,120
1,note_on,60,0,0
1,note_on,70,75,0
1,note_on,58,55,120
1,note_on,58,0,120
1,note_on,65,60,0
1,note_on,65,0,120
1,note_on,70,0,0
1,note_on,69,65,0
1,note_on,69,0,120
1,note_on,67,72,0
1,note_on,58,54,120
1,note_on,58,0,120
1,note_on,63,60,0
1,note_on,63,0,120
1,note_on,67,55,0
1,note_on,67,0,120
1,note_on,67,0,0
1,note_on,70,77,0
1,note_on,75,61,120
1,note_on,75,0,120
1,note_on,79,73,0
1,note_on,79,0,120
1,note_on,82,78,0
1,note_on,82,0,120
1,note_on,70,0,0
1,note_on,57,67,0
1,note_on,45,45,120
1,note_on,45,0,120
1,note_on,51,48,0
1,note_on,51,0,120
1,note_on,57,0,0
1,note_on,55,55,0
1,note_on,55,0,120
1,note_on,54,68,0
1,note_on,45,45,120
1,note_on,45,0,120
1,note_on,50,48,0
1,note_on,50,0,120
1,note_on,54,0,0
1,note_on,54,42,0
1,note_on,54,0,120
1,note_on,57,63,0
1,note_on,62,55,120
1,note_on,62,0,120
1,note_on,66,62,0
1,note_on,66,0,120
1,note_on,69,70,0
1,note_on,69,0,120
1,note_on,57,0,0
1,note_on,74,73,0
1,note_on,62,62,120
1,note_on,62,0,120
1,note_on,69,62,0
1,note_on,69,0,120
1,note_on,74,0,0
1,note_on,72,65,0
1,note_on,72,0,120
1,note_on,70,73,0
1,note_on,62,56,120
1,note_on,62,0,120
1,note_on,67,62,0
1,note_on,67,0,120
1,note_on,70,0,0
1,note_on,70,55,0
1,note_on,70,0,120
1,note_on,74,77,0
1,note_on,79,71,120
1,note_on,79,0,120
1,note_on,82,75,0
1,note_on,82,0,120
1,note_on,86,79,0
1,note_on,86,0,120
1,note_on,74,0,0
1,note_on,67,77,0
1,note_on,55,66,120
1,note_on,55,0,120
1,note_on,62,69,0
1,note_on,62,0,120
1,note_on,67,0,0
1,note_on,65,75,0
1,note_on,65,0,120
1,note_on,63,79,0
1,note_on,55,71,120
1,note_on,55,0,120
1,note_on,60,76,0
1,note_on,60,0,120
1,note_on,63,0,0
1,note_on,63,78,0
1,note_on,63,0,120
1,note_on,67,82,0
1,note_on,72,68,120
1,note_on,72,0,120
1,note_on,75,71,0
1,note_on,75,0,120
1,note_on,79,73,0
1,note_on,79,0,90
1,note_on,67,0,30
1,note_on,78,81,0
1,note_on,69,68,0
1,note_on,72,68,0
1,note_on,72,0,480
1,note_on,69,0,0
1,note_on,78,0,0
1,note_on,79,84,0
1,note_on,70,60,0
1,note_on,74,71,0
1,note_on,74,0,840
1,note_on,70,0,0
1,note_on,79,0,0
1,note_on,62,48,120
1,note_on,50,41,120
1,note_on,50,0,120
1,note_on,56,48,0
1,note_on,56,0,120
1,note_on,62,0,0
1,note_on,60,37,0
1,note_on,60,0,120
1,note_on,58,49,0
1,note_on,51,41,120
1,note_on,51,0,120
1,note_on,56,49,0
1,note_on,56,0,120
1,note_on,58,0,0
1,note_on,58,53,0
1,note_on,58,0,120
1,note_on,67,63,0
1,note_on,52,40,120
1,note_on,52,0,120
1,note_on,58,46,0
1,note_on,58,0,120
1,note_on,67,0,0
1,note_on,67,51,0
1,note_on,67,0,120
1,note_on,65,57,0
1,note_on,53,41,120
1,note_on,53,0,120
1,note_on,58,52,0
1,note_on,58,0,120
1,note_on,65,0,0
1,note_on,63,37,0
1,note_on,63,0,120
1,note_on,62,53,0
1,note_on,55,41,120
1,note_on,55,0,120
1,note_on,58,53,0
1,note_on,58,0,120
1,note_on,62,0,0
1,note_on,62,52,0
1,note_on,62,0,120
1,note_on,68,67,0
1,note_on,56,41,120
1,note_on,56,0,120
1,note_on,62,47,0
1,note_on,62,0,120
1,note_on,68,0,0
1,note_on,68,53,0
1,note_on,68,0,120
1,note_on,67,56,0
1,note_on,56,42,120
1,note_on,56,0,120
1,note_on,62,53,0
1,note_on,62,0,120
1,note_on,67,0,0
1,note_on,65,38,0
1,note_on,65,0,120
1,note_on,64,50,0
1,note_on,58,46,120
1,note_on,58,0,120
1,note_on,61,55,0
1,note_on,61,0,120
1,note_on,64,0,0
1,note_on,64,64,0
1,note_on,64,0,120
1,note_on,70,71,0
1,note_on,61,44,120
1,note_on,61,0,120
1,note_on,64,50,0
1,note_on,64,0,120
1,note_on,70,0,0
1,note_on,70,56,0
1,note_on,70,0,120
1,note_on,68,67,0
1,note_on,61,45,120
1,note_on,61,0,120
1,note_on,64,47,0
1,note_on,64,0,120
1,note_on,68,0,0
1,note_on,67,40,0
1,note_on,67,0,120
1,note_on,66,58,0
1,note_on,60,49,120
1,note_on,60,0,120
1,note_on,63,56,0
1,note_on,63,0,120
1,note_on,66,0,0
1,note_on,66,62,0
1,note_on,66,0,120
1,note_on,72,71,0
1,note_on,63,47,120
1,note_on,63,0,120
1,note_on,66,54,0
1,note_on,66,0,120
1,note_on,72,0,0
1,note_on,72,59,0
1,note_on,72,0,120
1,note_on,70,62,0
1,note_on,63,48,120
1,note_on,63,0,120
1,note_on,66,56,0
1,note_on,66,0,120
1,note_on,70,0,0
1,note_on,69,42,0
1,note_on,69,0,120
1,note_on,68,65,0
1,note_on,62,50,120
1,note_on,62,0,120
1,note_on,65,61,0
1,note_on,65,0,120
1,note_on,68,0,0
1,note_on,69,60,0
1,note_on,69,0,120
1,note_on,74,76,0
1,note_on,65,52,120
1,note_on,65,0,120
1,note_on,69,60,0
1,note_on,69,0,120
1,note_on,74,0,0
1,note_on,74,66,0
1,note_on,74,0,120
1,note_on,72,73,0
1,note_on,65,53,120
1,note_on,65,0,120
1,note_on,69,57,0
1,note_on,69,0,120
1,note_on,72,0,0
1,note_on,71,46,0
1,note_on,71,0,120
1,note_on,70,69,0
1,note_on,64,58,120
1,note_on,64,0,120
1,note_on,67,66,0
1,note_on,67,0,120
1,note_on,70,0,0
1,note_on,70,69,0
1,note_on,70,0,120
1,note_on,76,79,0
1,note_on,67,58,120
1,note_on,67,0,120
1,note_on,70,67,0
1,note_on,70,0,120
1,note_on,76,0,0
1,note_on,76,73,0
1,note_on,76,0,120
1,note_on,74,69,0
1,note_on,67,59,120
1,note_on,67,0,120
1,note_on,70,70,0
1,note_on,70,0,120
1,note_on,74,0,0
1,note_on,73,51,0
1,note_on,73,0,120
1,note_on,74,73,0
1,note_on,65,62,120
1,note_on,65,0,120
1,note_on,69,68,0
1,note_on,69,0,120
1,note_on,74,0,0
1,note_on,74,73,0
1,note_on,74,0,120
1,note_on,70,82,0
1,note_on,62,59,120
1,note_on,62,0,120
1,note_on,67,68,0
1,note_on,67,0,120
1,note_on,70,0,0
1,note_on,70,75,0
1,note_on,70,0,120
1,note_on,69,82,0
1,note_on,61,55,120
1,note_on,61,0,120
1,note_on,64,59,0
1,note_on,64,0,120
1,note_on,69,0,0
1,note_on,69,75,0
1,note_on,69,0,120
1,note_on,74,82,0
1,note_on,62,53,120
1,note_on,62,0,120
1,note_on,69,59,0
1,note_on,69,0,120
1,note_on,74,0,0
1,note_on,72,75,0
1,note_on,72,0,120
1,note_on,70,82,0
1,note_on,61,55,120
1,note_on,61,0,120
1,note_on,64,59,0
1,note_on,64,0,120
1,note_on,70,0,0
1,note_on,69,75,0
1,note_on,69,0,120
1,note_on,74,82,0
1,note_on,62,53,120
1,note_on,62,0,120
1,note_on,69,59,0
1,note_on,69,0,120
1,note_on,74,0,0
1,note_on,72,75,0
1,note_on,72,0,120
1,note_on,70,82,0
1,note_on,61,54,120
1,note_on,61,0,120
1,note_on,64,59,0
1,note_on,64,0,120
1,note_on,70,0,0
1,note_on,69,75,0
1,note_on,69,0,120
1,note_on,74,82,0
1,note_on,62,53,120
1,note_on,62,0,120
1,note_on,69,59,0
1,note_on,69,0,120
1,note_on,74,0,0
1,note_on,72,75,0
1,note_on,72,0,120
1,note_on,70,82,0
1,note_on,62,54,120
1,note_on,62,0,120
1,note_on,64,59,0
1,note_on,64,0,120
1,note_on,70,0,0
1,note_on,67,75,0
1,note_on,67,0,120
1,note_on,69,82,0
1,note_on,61,54,120
1,note_on,61,0,120
1,note_on,64,59,0
1,note_on,64,0,120
1,note_on,69,0,0
1,note_on,69,75,0
1,note_on,69,0,120
1,note_on,62,82,0
1,note_on,54,56,120
1,note_on,54,0,120
1,note_on,57,59,0
1,note_on,57,0,120
1,note_on,62,0,0
1,note_on,60,75,0
1,note_on,60,0,120
1,note_on,58,82,0
1,note_on,50,54,120
1,note_on,50,0,120
1,note_on,54,59,0
1,note_on,54,0,120
1,note_on,58,0,0
1,note_on,57,80,0
1,note_on,57,0,120
1,note_on,63,65,0
1,note_on,51,61,120
1,note_on,51,0,120
1,note_on,58,70,0
1,note_on,58,0,120
1,note_on,63,0,0
1,note_on,62,53,0
1,note_on,62,0,120
1,note_on,60,75,0
1,note_on,51,47,120
1,note_on,51,0,120
1,note_on,57,50,0
1,note_on,57,0,120
1,note_on,60,0,0
1,note_on,60,42,0
1,note_on,60,0,120
1,note_on,63,58,0
1,note_on,69,50,120
1,note_on,69,0,120
1,note_on,72,57,0
1,note_on,72,0,120
1,note_on,75,63,0
1,note_on,75,0,120
1,note_on,63,0,0
1,note_on,74,75,0
1,note_on,62,57,120
1,note_on,62,0,120
1,note_on,69,65,0
1,note_on,69,0,120
1,note_on,74,0,0
1,note_on,72,57,0
1,note_on,72,0,120
1,note_on,70,72,0
1,note_on,62,57,120
1,note_on,62,0,120
1,note_on,67,65,0
1,note_on,67,0,120
1,note_on,70,65,0
1,note_on,70,0,120
1,note_on,70,0,0
1,note_on,74,77,0
1,note_on,79,61,120
1,note_on,79,0,120
1,note_on,82,73,0
1,note_on,82,0,120
1,note_on,86,78,0
1,note_on,86,0,120
1,note_on,74,0,0
1,note_on,60,70,0
1,note_on,48,50,120
1,note_on,48,0,120
1,note_on,55,43,0
1,note_on,55,0,120
1,note_on,60,0,0
1,note_on,58,61,0
1,note_on,58,0,120
1,note_on,57,71,0
1,note_on,48,40,120
1,note_on,48,0,120
1,note_on,53,45,0
1,note_on,53,0,120
1,note_on,57,0,0
1,note_on,57,45,0
1,note_on,57,0,120
1,note_on,60,58,0
1,note_on,65,50,120
1,note_on,65,0,120
1,note_on,69,57,0
1,note_on,69,0,120
1,note_on,72,63,0
1,note_on,72,0,120
1,note_on,60,0,0
1,note_on,70,75,0
1,note_on,58,55,120
1,note_on,58,0,120
1,note_on,65,60,0
1,note_on,65,0,120
1,note_on,70,0,0
1,note_on,69,65,0
1,note_on,69,0,120
1,note_on,67,72,0
1,note_on,58,55,120
1,note_on,58,0,120
1,note_on,63,60,0
1,note_on,63,0,120
1,note_on,67,53,0
1,note_on,67,0,120
1,note_on,67,0,0
1,note_on,70,77,0
1,note_on,75,61,120
1,note_on,75,0,120
1,note_on,79,73,0
1,note_on,79,0,120
1,note_on,82,78,0
1,note_on,82,0,120
1,note_on,70,0,0
1,note_on,57,67,0
1,note_on,45,48,120
1,note_on,45,0,120
1,note_on,51,48,0
1,note_on,51,0,120
1,note_on,57,0,0
1,note_on,55,55,0
1,note_on,55,0,120
1,note_on,54,68,0
1,note_on,45,44,120
1,note_on,45,0,120
1,note_on,50,48,0
1,note_on,50,0,120
1,note_on,54,0,0
1,note_on,54,44,0
1,note_on,54,0,120
1,note_on,57,63,0
1,note_on,62,55,120
1,note_on,62,0,120
1,note_on,66,62,0
1,note_on,66,0,120
1,note_on,69,70,0
1,note_on,69,0,120
1,note_on,57,0,0
1,note_on,74,73,0
1,note_on,62,57,120
1,note_on,62,0,120
1,note_on,69,62,0
1,note_on,69,0,120
1,note_on,74,0,0
1,note_on,72,65,0
1,note_on,72,0,120
1,note_on,70,73,0
1,note_on,62,58,120
1,note_on,62,0,120
1,note_on,67,62,0
1,note_on,67,0,120
1,note_on,70,0,0
1,note_on,70,56,0
1,note_on,70,0,120
1,note_on,74,77,0
1,note_on,79,71,120
1,note_on,79,0,120
1,note_on,82,75,0
1,note_on,82,0,120
1,note_on,86,79,0
1,note_on,86,0,120
1,note_on,74,0,0
1,note_on,67,77,0
1,note_on,55,66,120
1,note_on,55,0,120
1,note_on,62,69,0
1,note_on,62,0,120
1,note_on,67,0,0
1,note_on,65,75,0
1,note_on,65,0,120
1,note_on,63,79,0
1,note_on,55,71,120
1,note_on,55,0,120
1,note_on,60,76,0
1,note_on,60,0,120
1,note_on,63,0,0
1,note_on,63,78,0
1,note_on,63,0,120
1,note_on,67,82,0
1,note_on,72,68,120
1,note_on,72,0,120
1,note_on,75,71,0
1,note_on,75,0,120
1,note_on,79,73,0
1,note_on,79,0,90
1,note_on,67,0,30
1,note_on,78,81,0
1,note_on,69,68,0
1,note_on,72,68,0
1,note_on,72,0,480
1,note_on,69,0,0
1,note_on,78,0,0
1,note_on,74,71,0
1,note_on,70,60,0
1,note_on,79,84,0
1,note_on,79,0,840
1,note_on,70,0,0
1,note_on,74,0,0
1,note_on,67,50,120
1,note_on,58,42,0
1,note_on,61,47,0
1,note_on,61,0,240
1,note_on,62,47,0
1,note_on,62,0,240
1,note_on,63,50,0
1,note_on,63,0,240
1,note_on,64,45,0
1,note_on,64,0,240
1,note_on,58,0,0
1,note_on,67,0,0
1,note_on,65,51,0
1,note_on,61,39,0
1,note_on,57,47,0
1,note_on,57,0,240
1,note_on,65,0,0
1,note_on,55,44,0
1,note_on,64,48,0
1,note_on,64,0,240
1,note_on,55,0,0
1,note_on,61,0,0
1,note_on,53,48,0
1,note_on,62,52,0
1,note_on,62,0,240
1,note_on,53,0,0
1,note_on,52,43,0
1,note_on,64,47,0
1,note_on,64,0,240
1,note_on,61,53,0
1,note_on,61,0,240
1,note_on,52,0,0
1,note_on,62,44,0
1,note_on,50,40,0
1,note_on,62,0,240
1,note_on,58,50,0
1,note_on,50,0,480
1,note_on,49,45,0
1,note_on,49,0,240
1,note_on,50,41,0
1,note_on,50,0,240
1,note_on,51,48,0
1,note_on,51,0,240
1,note_on,52,39,0
1,note_on,52,0,240
1,note_on,58,0,0
1,note_on,57,50,0
1,note_on,55,44,240
1,note_on,55,0,240
1,note_on,50,39,0
1,note_on,53,51,0
1,note_on,53,0,240
1,note_on,57,0,0
1,note_on,55,37,0
1,note_on,52,36,240
1,note_on,52,0,240
1,note_on,55,0,0
1,note_on,50,0,0
1,note_on,53,47,0
1,note_on,49,36,0
1,note_on,49,0,240
1,note_on,53,0,0
1,note_on,50,39,0
1,note_on,50,0,480
1,note_on,61,44,0
1,note_on,58,42,0
1,note_on,67,50,0
1,note_on,61,0,240
1,note_on,62,43,0
1,note_on,62,0,240
1,note_on,63,46,0
1,note_on,63,0,240
1,note_on,64,41,0
1,note_on,64,0,240
1,note_on,67,0,0
1,note_on,58,0,0
1,note_on,65,47,0
1,note_on,61,39,0
1,note_on,57,47,0
1,note_on,57,0,240
1,note_on,65,0,0
1,note_on,55,44,0
1,note_on,64,44,0
1,note_on,64,0,240
1,note_on,55,0,0
1,note_on,61,0,0
1,note_on,53,48,0
1,note_on,62,48,0
1,note_on,62,0,240
1,note_on,53,0,0
1,note_on,64,43,0
1,note_on,55,36,0
1,note_on,55,0,240
1,note_on,64,0,0
1,note_on,61,49,0
1,note_on,52,43,0
1,note_on,52,0,240
1,note_on,61,0,0
1,note_on,53,43,0
1,note_on,62,40,0
1,note_on,62,0,240
1,note_on,53,0,0
1,note_on,50,40,0
1,note_on,58,50,0
1,note_on,50,0,480
1,note_on,49,49,0
1,note_on,49,0,240
1,note_on,50,45,0
1,note_on,50,0,240
1,note_on,51,52,0
1,note_on,51,0,240
1,note_on,52,42,0
1,note_on,52,0,240
1,note_on,58,0,0
1,note_on,57,50,0
1,note_on,55,44,240
1,note_on,55,0,240
1,note_on,57,0,0
1,note_on,50,39,0
1,note_on,53,51,0
1,note_on,53,0,240
1,note_on,55,37,0
1,note_on,55,0,240
1,note_on,52,51,0
1,note_on,52,0,240
1,note_on,50,0,0
1,note_on,49,30,0
1,note_on,53,34,0
1,note_on,53,0,240
1,note_on,49,0,0
1,note_on,50,42,0
1,note_on,50,0,480
1,note_on,53,36,0
1,note_on,62,43,0
1,note_on,53,0,960
1,note_on,57,45,0
1,note_on,57,0,240
1,note_on,55,43,0
1,note_on,62,0,240
1,note_on,64,51,0
1,note_on,55,0,960
1,note_on,58,48,0
1,note_on,58,0,240
1,note_on,57,44,0
1,note_on,64,0,240
1,note_on,66,49,0
1,note_on,66,0,960
1,note_on,57,0,0
1,note_on,60,35,0
1,note_on,72,50,0
1,note_on,72,0,240
1,note_on,60,0,0
1,note_on,71,45,0
1,note_on,59,32,0
1,note_on,71,0,240
1,note_on,68,51,0
1,note_on,68,0,960
1,note_on,59,0,0
1,note_on,74,56,0
1,note_on,62,39,0
1,note_on,62,0,240
1,note_on,74,0,0
1,note_on,73,54,0
1,note_on,61,38,0
1,note_on,61,0,240
1,note_on,73,0,0
1,note_on,73,56,0
1,note_on,66,47,0
1,note_on,66,0,240
1,note_on,68,50,0
1,note_on,68,0,240
1,note_on,70,43,0
1,note_on,70,0,240
1,note_on,73,0,0
1,note_on,73,52,0
1,note_on,73,0,240
1,note_on,78,61,0
1,note_on,75,51,0
1,note_on,75,0,240
1,note_on,73,56,0
1,note_on,73,0,240
1,note_on,70,51,0
1,note_on,70,0,240
1,note_on,78,0,0
1,note_on,66,48,0
1,note_on,73,48,0
1,note_on,73,0,240
1,note_on,66,0,0
1,note_on,73,55,0
1,note_on,65,46,0
1,note_on,65,0,960
1,note_on,73,0,0
1,note_on,66,56,0
1,note_on,73,56,0
1,note_on,66,0,240
1,note_on,68,50,0
1,note_on,68,0,240
1,note_on,70,43,0
1,note_on,70,0,240
1,note_on,73,0,0
1,note_on,73,52,0
1,note_on,73,0,240
1,note_on,75,51,0
1,note_on,78,61,0
1,note_on,75,0,240
1,note_on,73,56,0
1,note_on,73,0,240
1,note_on,70,51,0
1,note_on,70,0,240
1,note_on,66,48,0
1,note_on,73,55,180
1,note_on,73,0,56
1,note_on,66,0,4
1,note_on,78,0,0
1,note_on,73,55,0
1,note_on,64,46,0
1,note_on,64,0,960
1,note_on,73,0,0
1,note_on,58,30,0
1,note_on,70,43,0
1,note_on,70,0,240
1,note_on,58,0,0
1,note_on,60,30,0
1,note_on,72,43,0
1,note_on,72,0,240
1,note_on,60,0,0
1,note_on,62,31,0
1,note_on,74,44,0
1,note_on,74,0,240
1,note_on,62,0,0
1,note_on,65,34,0
1,note_on,77,52,0
1,note_on,77,0,240
1,note_on,65,0,0
1,note_on,79,57,0
1,note_on,67,36,0
1,note_on,67,0,240
1,note_on,79,0,0
1,note_on,65,29,0
1,note_on,77,42,0
1,note_on,77,0,240
1,note_on,65,0,0
1,note_on,62,31,0
1,note_on,74,44,0
1,note_on,74,0,360
1,note_on,62,0,0
1,note_on,70,39,0
1,note_on,58,28,0
1,note_on,58,0,120
1,note_on,70,0,0
1,note_on,70,45,0
1,note_on,58,32,0
1,note_on,58,0,960
1,note_on,70,0,0
1,note_on,58,30,0
1,note_on,70,43,0
1,note_on,70,0,240
1,note_on,58,0,0
1,note_on,60,30,0
1,note_on,72,43,0
1,note_on,72,0,240
1,note_on,60,0,0
1,note_on,74,44,0
1,note_on,62,31,0
1,note_on,62,0,240
1,note_on,74,0,0
1,note_on,65,34,0
1,note_on,77,51,0
1,note_on,77,0,240
1,note_on,65,0,0
1,note_on,79,56,0
1,note_on,67,36,0
1,note_on,67,0,240
1,note_on,79,0,0
1,note_on,77,42,0
1,note_on,65,29,0
1,note_on,65,0,240
1,note_on,77,0,0
1,note_on,74,44,0
1,note_on,62,31,0
1,note_on,62,0,360
1,note_on,74,0,0
1,note_on,70,39,0
1,note_on,58,28,0
1,note_on,58,0,120
1,note_on,70,0,0
1,note_on,58,32,0
1,note_on,70,45,0
1,note_on,70,0,960
1,note_on,58,0,0
1,note_on,70,43,0
1,note_on,58,30,0
1,note_on,58,0,240
1,note_on,70,0,0
1,note_on,60,30,0
1,note_on,72,43,0
1,note_on,72,0,240
1,note_on,60,0,0
1,note_on,70,44,0
1,note_on,58,31,0
1,note_on,58,0,240
1,note_on,70,0,0
1,note_on,74,52,0
1,note_on,62,34,0
1,note_on,62,0,240
1,note_on,74,0,0
1,note_on,75,56,0
1,note_on,63,36,0
1,note_on,63,0,240
1,note_on,75,0,0
1,note_on,62,29,0
1,note_on,74,42,0
1,note_on,74,0,240
1,note_on,62,0,0
1,note_on,58,31,0
1,note_on,70,44,0
1,note_on,70,0,360
1,note_on,58,0,0
1,note_on,67,39,0
1,note_on,55,28,0
1,note_on,55,0,120
1,note_on,67,0,0
1,note_on,65,45,0
1,note_on,53,32,0
1,note_on,53,0,480
1,note_on,65,0,0
1,note_on,67,53,440
1,note_on,79,59,40
1,note_on,79,0,240
1,note_on,67,0,0
1,note_on,65,38,0
1,note_on,77,45,0
1,note_on,77,0,240
1,note_on,65,0,0
1,note_on,63,40,0
1,note_on,75,48,0
1,note_on,75,0,120
1,note_on,77,41,0
1,note_on,77,0,60
1,note_on,75,41,0
1,note_on,75,0,60
1,note_on,63,0,0
1,note_on,66,37,0
1,note_on,74,51,0
1,note_on,74,0,120
1,note_on,72,47,0
1,note_on,72,0,120
1,note_on,66,0,0
1,note_on,70,51,0
1,note_on,65,36,0
1,note_on,77,51,0
1,note_on,65,0,480
1,note_on,70,0,0
1,note_on,69,47,0
1,note_on,63,39,0
1,note_on,70,43,420
1,note_on,70,0,60
1,note_on,77,0,0
1,note_on,69,0,0
1,note_on,63,0,0
1,note_on,70,50,0
1,note_on,62,42,0
1,note_on,62,0,480
1,note_on,70,0,0
1,note_on,67,43,480
1,note_on,62,30,0
1,note_on,62,0,240
1,note_on,67,0,0
1,note_on,60,28,0
1,note_on,69,39,0
1,note_on,69,0,240
1,note_on,60,0,0
1,note_on,58,29,0
1,note_on,70,42,0
1,note_on,70,0,240
1,note_on,58,0,0
1,note_on,69,31,0
1,note_on,72,44,0
1,note_on,72,0,240
1,note_on,69,0,0
1,note_on,74,46,0
1,note_on,67,33,0
1,note_on,67,0,240
1,note_on,74,0,0
1,note_on,65,34,0
1,note_on,76,48,0
1,note_on,76,0,240
1,note_on,65,0,0
1,note_on,77,51,0
1,note_on,64,35,0
1,note_on,64,0,240
1,note_on,77,0,0
1,note_on,79,54,0
1,note_on,74,37,0
1,note_on,74,0,240
1,note_on,79,0,0
1,note_on,81,60,0
1,note_on,72,45,0
1,note_on,72,0,240
1,note_on,81,0,0
1,note_on,76,37,0
1,note_on,79,52,0
1,note_on,79,0,240
1,note_on,76,0,0
1,note_on,77,51,0
1,note_on,69,36,0
1,note_on,69,0,240
1,note_on,77,0,0
1,note_on,76,50,0
1,note_on,72,35,0
1,note_on,72,0,240
1,note_on,76,0,0
1,note_on,67,34,0
1,note_on,74,49,0
1,note_on,74,0,240
1,note_on,67,0,0
1,note_on,69,29,0
1,note_on,72,48,0
1,note_on,72,0,240
1,note_on,69,0,0
1,note_on,64,33,0
1,note_on,70,47,0
1,note_on,70,0,240
1,note_on,64,0,0
1,note_on,65,28,0
1,note_on,69,40,0
1,note_on,69,0,240
1,note_on,65,0,0
1,note_on,61,40,0
1,note_on,67,48,0
1,note_on,67,0,240
1,note_on,61,0,0
1,note_on,65,42,0
1,note_on,62,30,0
1,note_on,62,0,240
1,note_on,65,0,0
1,note_on,63,34,0
1,note_on,69,49,0
1,note_on,69,0,240
1,note_on,63,0,0
1,note_on,67,44,0
1,note_on,64,32,0
1,note_on,64,0,240
1,note_on,67,0,0
1,note_on,65,44,0
1,note_on,77,60,0
1,note_on,77,0,240
1,note_on,65,0,0
1,note_on,75,55,0
1,note_on,63,39,0
1,note_on,63,0,240
1,note_on,75,0,0
1,note_on,62,34,0
1,note_on,74,50,0
1,note_on,74,0,240
1,note_on,62,0,0
1,note_on,72,47,0
1,note_on,60,33,0
1,note_on,60,0,240
1,note_on,72,0,0
1,note_on,58,33,0
1,note_on,70,47,0
1,note_on,70,0,240
1,note_on,58,0,0
1,note_on,60,29,0
1,note_on,72,42,0
1,note_on,72,0,240
1,note_on,60,0,0
1,note_on,74,47,0
1,note_on,62,39,0
1,note_on,62,0,240
1,note_on,72,52,0
1,note_on,72,0,240
1,note_on,70,49,0
1,note_on,70,0,240
1,note_on,69,44,0
1,note_on,69,0,240
1,note_on,74,0,0
1,note_on,67,34,0
1,note_on,75,49,0
1,note_on,75,0,240
1,note_on,67,0,0
1,note_on,77,52,0
1,note_on,65,37,0
1,note_on,65,0,240
1,note_on,77,0,0
1,note_on,63,47,0
1,note_on,79,56,0
1,note_on,63,0,240
1,note_on,65,43,0
1,note_on,65,0,240
1,note_on,67,47,0
1,note_on,67,0,240
1,note_on,79,0,0
1,note_on,77,53,0
1,note_on,69,38,0
1,note_on,69,0,240
1,note_on,77,0,0
1,note_on,75,51,0
1,note_on,70,36,0
1,note_on,70,0,240
1,note_on,75,0,0
1,note_on,71,35,0
1,note_on,74,50,0
1,note_on,74,0,240
1,note_on,71,0,0
1,note_on,72,52,0
1,note_on,70,47,240
1,note_on,70,0,240
1,note_on,72,0,0
1,note_on,72,47,0
1,note_on,69,33,0
1,note_on,69,0,240
1,note_on,72,0,0
1,note_on,74,44,0
1,note_on,67,31,0
1,note_on,67,0,240
1,note_on,74,0,0
1,note_on,65,42,0
1,note_on,75,50,0
1,note_on,65,0,240
1,note_on,63,47,0
1,note_on,63,0,240
1,note_on,75,0,0
1,note_on,62,45,0
1,note_on,77,54,0
1,note_on,62,0,240
1,note_on,65,47,0
1,note_on,65,0,240
1,note_on,70,47,0
1,note_on,70,0,240
1,note_on,77,0,0
1,note_on,74,46,0
1,note_on,74,0,240
1,note_on,70,39,0
1,note_on,82,54,0
1,note_on,82,0,240
1,note_on,70,0,0
1,note_on,72,35,0
1,note_on,84,48,0
1,note_on,84,0,240
1,note_on,72,0,0
1,note_on,86,54,0
1,note_on,74,39,0
1,note_on,74,0,240
1,note_on,84,52,0
1,note_on,84,0,240
1,note_on,82,49,0
1,note_on,82,0,240
1,note_on,81,44,0
1,note_on,81,0,240
1,note_on,86,0,0
1,note_on,87,56,0
1,note_on,79,41,0
1,note_on,79,0,240
1,note_on,87,0,0
1,note_on,77,44,0
1,note_on,89,59,0
1,note_on,89,0,240
1,note_on,77,0,0
1,note_on,91,64,0
1,note_on,75,47,0
1,note_on,75,0,240
1,note_on,77,43,0
1,note_on,77,0,240
1,note_on,79,47,0
1,note_on,79,0,240
1,note_on,91,0,0
1,note_on,81,45,0
1,note_on,89,60,0
1,note_on,89,0,240
1,note_on,81,0,0
1,note_on,87,58,0
1,note_on,82,43,0
1,note_on,82,0,240
1,note_on,87,0,0
1,note_on,83,42,0
1,note_on,86,57,0
1,note_on,86,0,240
1,note_on,83,0,0
1,note_on,84,59,0
1,note_on,82,54,240
1,note_on,82,0,240
1,note_on,84,0,0
1,note_on,84,54,0
1,note_on,81,39,0
1,note_on,81,0,240
1,note_on,84,0,0
1,note_on,79,37,0
1,note_on,86,50,0
1,note_on,86,0,240
1,note_on,79,0,0
1,note_on,77,42,0
1,note_on,87,57,0
1,note_on,77,0,240
1,note_on,75,47,0
1,note_on,75,0,240
1,note_on,87,0,0
1,note_on,89,62,0
1,note_on,74,45,0
1,note_on,74,0,240
1,note_on,75,47,0
1,note_on,75,0,240
1,note_on,77,47,0
1,note_on,77,0,240
1,note_on,89,0,0
1,note_on,87,52,0
1,note_on,79,39,0
1,note_on,79,0,240
1,note_on,87,0,0
1,note_on,80,39,0
1,note_on,86,54,0
1,note_on,86,0,240
1,note_on,80,0,0
1,note_on,81,37,0
1,note_on,84,50,0
1,note_on,84,0,240
1,note_on,81,0,0
1,note_on,82,54,0
1,note_on,81,44,240
1,note_on,81,0,120
1,note_on,82,38,0
1,note_on,82,0,60
1,note_on,84,37,0
1,note_on,84,0,60
1,note_on,82,0,0
1,note_on,82,54,0
1,note_on,79,38,0
1,note_on,79,0,240
1,note_on,82,0,0
1,note_on,84,52,0
1,note_on,77,39,0
1,note_on,77,0,240
1,note_on,84,0,0
1,note_on,75,50,0
1,note_on,86,57,0
1,note_on,75,0,240
1,note_on,74,44,0
1,note_on,74,0,240
1,note_on,86,0,0
1,note_on,72,43,0
1,note_on,87,58,0
1,note_on,87,0,240
1,note_on,72,0,0
1,note_on,74,42,0
1,note_on,86,57,0
1,note_on,86,0,240
1,note_on,74,0,0
1,note_on,75,40,0
1,note_on,84,55,0
1,note_on,84,0,240
1,note_on,75,0,0
1,note_on,82,54,0
1,note_on,76,33,0
1,note_on,76,0,240
1,note_on,82,0,0
1,note_on,77,33,0
1,note_on,81,52,0
1,note_on,81,0,240
1,note_on,77,0,0
1,note_on,75,31,0
1,note_on,79,50,0
1,note_on,79,0,240
1,note_on,75,0,0
1,note_on,77,46,0
1,note_on,74,34,0
1,note_on,65,35,0
1,note_on,65,0,240
1,note_on,74,0,0
1,note_on,77,0,0
1,note_on,75,43,0
1,note_on,67,33,0
1,note_on,72,34,0
1,note_on,69,40,180
1,note_on,69,0,60
1,note_on,75,0,0
1,note_on,67,0,0
1,note_on,72,0,0
1,note_on,70,33,0
1,note_on,74,39,0
1,note_on,74,0,240
1,note_on,70,0,0
1,note_on,69,32,0
1,note_on,72,38,0
1,note_on,72,0,240
1,note_on,69,0,0
1,note_on,67,21,0
1,note_on,70,36,0
1,note_on,70,0,120
1,note_on,67,0,0
1,note_on,65,18,0
1,note_on,69,31,0
1,note_on,69,0,120
1,note_on,65,0,0
1,note_on,67,37,0
1,note_on,63,26,0
1,note_on,63,0,120
1,note_on,67,0,0
1,note_on,65,41,0
1,note_on,62,28,0
1,note_on,62,0,120
1,note_on,65,0,0
1,note_on,63,45,0
1,note_on,60,32,0
1,note_on,60,0,1440
1,note_on,63,0,0
1,note_on,77,38,0
1,note_on,65,28,0
1,note_on,70,32,0
1,note_on,70,0,1440
1,note_on,65,0,0
1,note_on,77,0,0
1,note_on,51,38,0
1,note_on,48,32,0
1,note_on,48,0,1440
1,note_on,51,0,0
1,note_on,52,28,0
1,note_on,49,24,0
1,note_on,49,0,1200
1,note_on,52,0,0
1,note_on,58,32,240
1,note_on,67,38,0
1,note_on,67,0,480
1,note_on,69,34,0
1,note_on,69,0,480
1,note_on,70,37,0
1,note_on,70,0,480
1,note_on,58,0,0
1,note_on,74,41,0
1,note_on,65,37,0
1,note_on,74,0,480
1,note_on,72,41,0
1,note_on,72,0,720
1,note_on,70,31,0
1,note_on,70,0,240
1,note_on,58,31,0
1,note_on,70,31,0
1,note_on,70,0,1920
1,note_on,58,0,0
1,note_on,65,0,0
2,note_on,50,33,960
2,note_on,50,0,240
2,note_on,53,33,0
2,note_on,53,0,240
2,note_on,58,34,0
2,note_on,46,28,0
2,note_on,58,0,240
2,note_on,62,36,0
2,note_on,62,0,240
2,note_on,63,39,0
2,note_on,63,0,240
2,note_on,62,44,0
2,note_on,62,0,238
2,note_on,46,0,2
2,note_on,58,42,0
2,note_on,58,0,238
2,note_on,53,36,2
2,note_on,41,43,120
2,note_on,53,0,120
2,note_on,51,23,0
2,note_on,53,34,0
2,note_on,53,0,960
2,note_on,51,0,0
2,note_on,41,0,0
2,note_on,50,39,0
2,note_on,50,0,240
2,note_on,53,39,0
2,note_on,53,0,240
2,note_on,58,41,0
2,note_on,46,34,0
2,note_on,58,0,240
2,note_on,62,43,0
2,note_on,62,0,240
2,note_on,63,46,0
2,note_on,63,0,240
2,note_on,62,44,0
2,note_on,62,0,238
2,note_on,46,0,2
2,note_on,58,42,0
2,note_on,58,0,238
2,note_on,53,36,2
2,note_on,41,43,120
2,note_on,53,0,120
2,note_on,53,34,0
2,note_on,51,28,0
2,note_on,51,0,960
2,note_on,53,0,0
2,note_on,41,0,0
2,note_on,50,39,0
2,note_on,50,0,240
2,note_on,53,39,0
2,note_on,53,0,240
2,note_on,46,34,0
2,note_on,58,41,0
2,note_on,58,0,240
2,note_on,62,43,0
2,note_on,62,0,240
2,note_on,63,48,0
2,note_on,63,0,240
2,note_on,62,47,0
2,note_on,62,0,238
2,note_on,46,0,2
2,note_on,58,46,0
2,note_on,58,0,238
2,note_on,53,40,2
2,note_on,53,0,240
2,note_on,48,39,0
2,note_on,57,39,0
2,note_on,57,0,240
2,note_on,60,34,0
2,note_on,60,0,240
2,note_on,62,40,0
2,note_on,62,0,240
2,note_on,60,33,0
2,note_on,60,0,240
2,note_on,48,0,0
2,note_on,57,37,0
2,note_on,57,0,240
2,note_on,53,31,0
2,note_on,36,32,120
2,note_on,36,0,120
2,note_on,53,0,0
2,note_on,51,27,0
2,note_on,51,0,240
2,note_on,52,31,0
2,note_on,52,0,240
2,note_on,60,36,0
2,note_on,60,0,240
2,note_on,58,33,0
2,note_on,58,0,240
2,note_on,55,28,0
2,note_on,55,0,160
2,note_on,52,25,0
2,note_on,52,0,160
2,note_on,49,25,0
2,note_on,49,0,160
2,note_on,41,36,0
2,note_on,47,25,0
2,note_on,48,22,160
2,note_on,47,0,10
2,note_on,50,22,150
2,note_on,48,0,10
2,note_on,50,0,150
2,note_on,48,27,0
2,note_on,48,0,360
2,note_on,41,0,120
2,note_on,50,39,0
2,note_on,50,0,240
2,note_on,53,39,0
2,note_on,53,0,240
2,note_on,46,34,0
2,note_on,58,41,0
2,note_on,58,0,240
2,note_on,62,43,0
2,note_on,62,0,240
2,note_on,63,46,0
2,note_on,63,0,240
2,note_on,62,44,0
2,note_on,62,0,238
2,note_on,46,0,2
2,note_on,58,42,0
2,note_on,58,0,238
2,note_on,53,36,2
2,note_on,41,43,120
2,note_on,53,0,120
2,note_on,53,34,0
2,note_on,51,23,0
2,note_on,51,0,960
2,note_on,53,0,0
2,note_on,41,0,0
2,note_on,50,39,0
2,note_on,50,0,240
2,note_on,53,39,0
2,note_on,53,0,240
2,note_on,58,41,0
2,note_on,46,34,0
2,note_on,58,0,240
2,note_on,62,43,0
2,note_on,62,0,240
2,note_on,63,46,0
2,note_on,63,0,240
2,note_on,62,44,0
2,note_on,62,0,238
2,note_on,46,0,2
2,note_on,58,42,0
2,note_on,58,0,238
2,note_on,53,36,2
2,note_on,41,43,120
2,note_on,53,0,120
2,note_on,51,28,0
2,note_on,53,34,0
2,note_on,53,0,960
2,note_on,51,0,0
2,note_on,41,0,0
2,note_on,50,39,0
2,note_on,50,0,240
2,note_on,53,39,0
2,note_on,53,0,240
2,note_on,58,34,0
2,note_on,46,34,0
2,note_on,58,0,240
2,note_on,62,36,0
2,note_on,62,0,240
2,note_on,63,40,0
2,note_on,63,0,240
2,note_on,62,39,0
2,note_on,62,0,238
2,note_on,46,0,2
2,note_on,58,39,0
2,note_on,58,0,238
2,note_on,53,34,2
2,note_on,53,0,240
2,note_on,57,39,0
2,note_on,48,39,0
2,note_on,57,0,240
2,note_on,60,34,0
2,note_on,60,0,240
2,note_on,62,40,0
2,note_on,62,0,240
2,note_on,60,33,0
2,note_on,60,0,240
2,note_on,48,0,0
2,note_on,57,37,0
2,note_on,57,0,240
2,note_on,53,31,0
2,note_on,36,32,120
2,note_on,36,0,120
2,note_on,53,0,0
2,note_on,51,27,0
2,note_on,51,0,240
2,note_on,52,31,0
2,note_on,52,0,240
2,note_on,60,36,0
2,note_on,60,0,240
2,note_on,58,33,0
2,note_on,58,0,240
2,note_on,55,28,0
2,note_on,55,0,160
2,note_on,52,25,0
2,note_on,52,0,160
2,note_on,49,25,0
2,note_on,49,0,160
2,note_on,41,36,0
2,note_on,47,25,0
2,note_on,48,22,160
2,note_on,47,0,10
2,note_on,50,22,150
2,note_on,48,0,10
2,note_on,50,0,150
2,note_on,48,27,0
2,note_on,48,0,360
2,note_on,41,0,120
2,note_on,46,39,0
2,note_on,46,0,240
2,note_on,48,44,0
2,note_on,34,47,180
2,note_on,34,0,60
2,note_on,48,0,0
2,note_on,50,52,0
2,note_on,50,0,960
2,note_on,46,39,0
2,note_on,46,0,160
2,note_on,48,44,0
2,note_on,48,0,160
2,note_on,50,48,0
2,note_on,36,41,100
2,note_on,36,0,60
2,note_on,50,0,0
2,note_on,51,54,0
2,note_on,51,0,960
2,note_on,46,44,0
2,note_on,46,0,120
2,note_on,48,47,0
2,note_on,48,0,120
2,note_on,50,50,0
2,note_on,50,0,120
2,note_on,51,53,0
2,note_on,37,44,60
2,note_on,37,0,60
2,note_on,51,0,0
2,note_on,52,63,0
2,note_on,38,40,420
2,note_on,38,0,60
2,note_on,52,0,0
2,note_on,53,56,0
2,note_on,53,0,480
2,note_on,38,40,0
2,note_on,46,58,0
2,note_on,46,0,60
2,note_on,48,47,0
2,note_on,48,0,60
2,note_on,46,57,0
2,note_on,46,0,60
2,note_on,48,51,0
2,note_on,48,0,60
2,note_on,46,52,0
2,note_on,46,0,80
2,note_on,45,58,0
2,note_on,45,0,80
2,note_on,46,51,0
2,note_on,38,0,80
2,note_on,39,55,0
2,note_on,39,0,960
2,note_on,46,0,0
2,note_on,55,50,0
2,note_on,58,44,240
2,note_on,58,0,240
2,note_on,55,0,0
2,note_on,63,50,0
2,note_on,51,42,0
2,note_on,63,0,240
2,note_on,67,38,0
2,note_on,67,0,240
2,note_on,68,43,0
2,note_on,68,0,240
2,note_on,67,37,0
2,note_on,67,0,240
2,note_on,51,0,0
2,note_on,55,35,0
2,note_on,63,42,0
2,note_on,63,0,240
2,note_on,60,39,0
2,note_on,60,0,240
2,note_on,55,0,0
2,note_on,58,44,0
2,note_on,43,37,0
2,note_on,58,0,240
2,note_on,62,32,0
2,note_on,62,0,240
2,note_on,63,35,0
2,note_on,63,0,240
2,note_on,62,30,0
2,note_on,62,0,240
2,note_on,43,0,0
2,note_on,58,41,0
2,note_on,55,41,0
2,note_on,55,0,240
2,note_on,58,0,0
2,note_on,55,36,0
2,note_on,55,0,240
2,note_on,63,42,0
2,note_on,48,35,0
2,note_on,63,0,240
2,note_on,67,32,0
2,note_on,67,0,240
2,note_on,68,34,0
2,note_on,68,0,240
2,note_on,67,38,0
2,note_on,67,0,240
2,note_on,48,0,0
2,note_on,63,40,0
2,note_on,55,40,0
2,note_on,63,0,240
2,note_on,60,36,0
2,note_on,60,0,240
2,note_on,55,0,0
2,note_on,43,41,0
2,note_on,58,41,0
2,note_on,58,0,240
2,note_on,62,34,0
2,note_on,62,0,240
2,note_on,63,41,0
2,note_on,63,0,240
2,note_on,62,37,0
2,note_on,62,0,240
2,note_on,43,0,0
2,note_on,55,37,0
2,note_on,58,44,0
2,note_on,58,0,240
2,note_on,57,44,0
2,note_on,57,0,240
2,note_on,55,0,0
2,note_on,48,29,0
2,note_on,55,35,0
2,note_on,55,0,240
2,note_on,53,36,0
2,note_on,53,0,240
2,note_on,52,38,0
2,note_on,52,0,240
2,note_on,50,41,0
2,note_on,50,0,240
2,note_on,48,0,0
2,note_on,48,43,0
2,note_on,36,36,0
2,note_on,48,0,240
2,note_on,46,44,0
2,note_on,46,0,240
2,note_on,45,47,0
2,note_on,45,0,240
2,note_on,46,45,0
2,note_on,46,0,240
2,note_on,48,42,0
2,note_on,48,0,240
2,note_on,50,41,0
2,note_on,50,0,240
2,note_on,36,0,0
2,note_on,36,32,0
2,note_on,52,38,0
2,note_on,52,0,240
2,note_on,53,37,0
2,note_on,53,0,240
2,note_on,36,0,0
2,note_on,48,29,0
2,note_on,55,35,0
2,note_on,55,0,240
2,note_on,57,35,0
2,note_on,57,0,240
2,note_on,58,36,0
2,note_on,58,0,240
2,note_on,59,33,0
2,note_on,59,0,240
2,note_on,48,0,0
2,note_on,48,33,0
2,note_on,60,39,0
2,note_on,60,0,240
2,note_on,58,34,0
2,note_on,58,0,240
2,note_on,57,35,0
2,note_on,57,0,240
2,note_on,56,28,0
2,note_on,56,0,240
2,note_on,55,28,0
2,note_on,55,0,120
2,note_on,54,25,0
2,note_on,54,0,120
2,note_on,53,28,0
2,note_on,53,0,120
2,note_on,51,24,0
2,note_on,51,0,90
2,note_on,48,0,30
2,note_on,50,35,0
2,note_on,53,35,240
2,note_on,53,0,240
2,note_on,50,0,0
2,note_on,46,30,0
2,note_on,58,36,0
2,note_on,58,0,240
2,note_on,62,38,0
2,note_on,62,0,240
2,note_on,63,41,0
2,note_on,63,0,240
2,note_on,62,39,0
2,note_on,62,0,238
2,note_on,46,0,2
2,note_on,58,37,0
2,note_on,58,0,238
2,note_on,53,32,2
2,note_on,41,38,120
2,note_on,53,0,120
2,note_on,51,25,0
2,note_on,53,30,0
2,note_on,53,0,960
2,note_on,51,0,0
2,note_on,41,0,0
2,note_on,50,39,0
2,note_on,50,0,240
2,note_on,53,39,0
2,note_on,53,0,240
2,note_on,58,41,0
2,note_on,46,74,0
2,note_on,58,0,240
2,note_on,62,43,0
2,note_on,62,0,240
2,note_on,63,46,0
2,note_on,63,0,240
2,note_on,62,44,0
2,note_on,62,0,238
2,note_on,46,0,2
2,note_on,46,70,0
2,note_on,58,42,0
2,note_on,58,0,238
2,note_on,46,0,2
2,note_on,53,36,0
2,note_on,50,66,0
2,note_on,41,43,120
2,note_on,50,0,120
2,note_on,53,0,0
2,note_on,51,28,0
2,note_on,53,41,0
2,note_on,41,0,240
2,note_on,43,53,0
2,note_on,43,0,240
2,note_on,46,59,0
2,note_on,46,0,240
2,note_on,45,54,0
2,note_on,45,0,240
2,note_on,53,0,0
2,note_on,51,0,0
2,note_on,50,44,0
2,note_on,44,37,0
2,note_on,44,0,240
2,note_on,50,0,0
2,note_on,51,47,0
2,note_on,43,39,0
2,note_on,43,0,240
2,note_on,51,0,0
2,note_on,53,49,0
2,note_on,41,41,0
2,note_on,53,0,240
2,note_on,55,52,0
2,note_on,41,0,180
2,note_on,39,46,0
2,note_on,55,0,60
2,note_on,56,55,0
2,note_on,56,0,240
2,note_on,58,55,0
2,note_on,39,0,180
2,note_on,38,47,0
2,note_on,58,0,60
2,note_on,59,57,0
2,note_on,59,0,240
2,note_on,55,58,0
2,note_on,55,0,240
2,note_on,38,0,0
2,note_on,36,28,0
2,note_on,60,55,0
2,note_on,60,0,240
2,note_on,36,0,0
2,note_on,43,27,0
2,note_on,55,54,0
2,note_on,55,0,240
2,note_on,43,0,0
2,note_on,48,25,0
2,note_on,52,52,0
2,note_on,52,0,240
2,note_on,48,0,0
2,note_on,53,50,0
2,note_on,47,24,0
2,note_on,47,0,240
2,note_on,53,0,0
2,note_on,52,49,0
2,note_on,46,23,0
2,note_on,46,0,240
2,note_on,52,0,0
2,note_on,53,47,0
2,note_on,45,23,0
2,note_on,45,0,240
2,note_on,53,0,0
2,note_on,43,40,0
2,note_on,55,48,0
2,note_on,55,0,240
2,note_on,57,51,0
2,note_on,43,0,180
2,note_on,41,45,0
2,note_on,57,0,60
2,note_on,58,54,0
2,note_on,58,0,240
2,note_on,59,54,0
2,note_on,41,0,180
2,note_on,40,47,0
2,note_on,59,0,60
2,note_on,60,54,0
2,note_on,60,0,240
2,note_on,58,58,0
2,note_on,58,0,240
2,note_on,40,0,0
2,note_on,57,57,0
2,note_on,41,34,0
2,note_on,41,0,240
2,note_on,57,0,0
2,note_on,55,55,0
2,note_on,43,32,0
2,note_on,43,0,240
2,note_on,55,0,0
2,note_on,44,30,0
2,note_on,53,53,0
2,note_on,53,0,240
2,note_on,44,0,0
2,note_on,45,29,0
2,note_on,51,50,0
2,note_on,51,0,240
2,note_on,45,0,0
2,note_on,46,28,0
2,note_on,50,37,0
2,note_on,50,0,240
2,note_on,53,40,0
2,note_on,53,0,240
2,note_on,46,0,0
2,note_on,58,43,0
2,note_on,34,46,0
2,note_on,58,0,240
2,note_on,57,39,0
2,note_on,57,0,240
2,note_on,34,0,0
2,note_on,55,39,0
2,note_on,55,0,240
2,note_on,53,39,0
2,note_on,53,0,240
2,note_on,51,39,0
2,note_on,46,42,0
2,note_on,51,0,240
2,note_on,50,44,0
2,note_on,50,0,240
2,note_on,46,0,0
2,note_on,48,48,0
2,note_on,34,52,0
2,note_on,48,0,240
2,note_on,50,39,0
2,note_on,50,0,240
2,note_on,34,0,0
2,note_on,51,39,0
2,note_on,51,0,240
2,note_on,53,36,0
2,note_on,53,0,240
2,note_on,46,42,0
2,note_on,55,39,0
2,note_on,55,0,240
2,note_on,56,44,0
2,note_on,56,0,240
2,note_on,46,0,0
2,note_on,34,42,0
2,note_on,57,39,0
2,note_on,57,0,240
2,note_on,55,39,0
2,note_on,55,0,240
2,note_on,34,0,0
2,note_on,53,41,0
2,note_on,53,0,240
2,note_on,51,39,0
2,note_on,51,0,240
2,note_on,46,48,0
2,note_on,50,44,0
2,note_on,50,0,240
2,note_on,48,38,0
2,note_on,48,0,240
2,note_on,46,0,0
2,note_on,46,46,0
2,note_on,34,50,0
2,note_on,46,0,240
2,note_on,48,35,0
2,note_on,48,0,240
2,note_on,34,0,0
2,note_on,50,39,0
2,note_on,50,0,240
2,note_on,51,35,0
2,note_on,51,0,240
2,note_on,46,42,0
2,note_on,52,39,0
2,note_on,52,0,240
2,note_on,53,35,0
2,note_on,53,0,240
2,note_on,46,0,0
2,note_on,34,42,0
2,note_on,55,39,0
2,note_on,55,0,240
2,note_on,53,34,0
2,note_on,53,0,240
2,note_on,34,0,0
2,note_on,51,39,0
2,note_on,51,0,240
2,note_on,50,34,0
2,note_on,46,33,180
2,note_on,50,0,60
2,note_on,48,39,0
2,note_on,48,0,240
2,note_on,46,0,0
2,note_on,46,45,0
2,note_on,46,0,240
2,note_on,45,39,0
2,note_on,34,42,0
2,note_on,34,0,240
2,note_on,45,0,0
2,note_on,46,38,0
2,note_on,48,36,240
2,note_on,48,0,240
2,note_on,49,35,0
2,note_on,49,0,240
2,note_on,50,38,0
2,note_on,50,0,240
2,note_on,51,34,0
2,note_on,51,0,240
2,note_on,53,35,0
2,note_on,53,0,240
2,note_on,55,33,0
2,note_on,57,40,180
2,note_on,57,0,60
2,note_on,55,0,0
2,note_on,46,0,480
2,note_on,62,36,120
2,note_on,62,0,120
2,note_on,63,31,0
2,note_on,63,0,120
2,note_on,65,34,0
2,note_on,65,0,120
2,note_on,58,27,0
2,note_on,66,38,0
2,note_on,66,0,960
2,note_on,58,0,0
2,note_on,65,34,0
2,note_on,57,28,0
2,note_on,34,33,420
2,note_on,57,0,60
2,note_on,65,0,0
2,note_on,50,40,0
2,note_on,50,0,960
2,note_on,34,0,0
2,note_on,65,58,360
2,note_on,65,0,120
2,note_on,70,65,0
2,note_on,70,0,60
2,note_on,62,49,60
2,note_on,62,0,60
2,note_on,67,60,60
2,note_on,67,0,60
2,note_on,65,49,60
2,note_on,65,0,60
2,note_on,64,65,60
2,note_on,64,0,60
2,note_on,60,55,60
2,note_on,60,0,60
2,note_on,65,74,60
2,note_on,65,0,60
2,note_on,57,65,60
2,note_on,57,0,60
2,note_on,62,78,60
2,note_on,62,0,60
2,note_on,55,56,60
2,note_on,55,0,60
2,note_on,60,75,60
2,note_on,60,0,60
2,note_on,58,53,60
2,note_on,58,0,60
2,note_on,57,72,60
2,note_on,57,0,240
2,note_on,55,83,0
2,note_on,55,0,480
2,note_on,54,73,0
2,note_on,54,0,240
2,note_on,55,83,0
2,note_on,55,0,120
2,note_on,48,69,0
2,note_on,48,0,60
2,note_on,53,77,60
2,note_on,53,0,60
2,note_on,45,64,60
2,note_on,45,0,60
2,note_on,46,71,60
2,note_on,46,0,60
2,note_on,43,60,60
2,note_on,43,0,60
2,note_on,48,69,60
2,note_on,48,0,60
2,note_on,46,56,60
2,note_on,46,0,60
2,note_on,45,69,60
2,note_on,45,0,120
2,note_on,41,89,120
2,note_on,29,78,0
2,note_on,62,57,360
2,note_on,62,0,60
2,note_on,29,0,60
2,note_on,41,0,0
2,note_on,67,60,0
2,note_on,67,0,60
2,note_on,65,58,60
2,note_on,65,0,60
2,note_on,64,65,60
2,note_on,64,0,60
2,note_on,60,55,60
2,note_on,60,0,60
2,note_on,65,74,60
2,note_on,65,0,60
2,note_on,57,58,60
2,note_on,57,0,60
2,note_on,62,73,60
2,note_on,62,0,60
2,note_on,55,56,60
2,note_on,55,0,60
2,note_on,60,75,60
2,note_on,60,0,60
2,note_on,58,52,60
2,note_on,58,0,60
2,note_on,57,72,60
2,note_on,57,0,240
2,note_on,55,80,0
2,note_on,55,0,480
2,note_on,54,64,0
2,note_on,54,0,240
2,note_on,55,78,0
2,note_on,55,0,120
2,note_on,48,63,0
2,note_on,48,0,60
2,note_on,53,70,60
2,note_on,53,0,60
2,note_on,45,58,60
2,note_on,45,0,60
2,note_on,46,64,60
2,note_on,46,0,60
2,note_on,43,58,60
2,note_on,43,0,60
2,note_on,48,61,60
2,note_on,48,0,60
2,note_on,46,56,60
2,note_on,46,0,60
2,note_on,45,60,60
2,note_on,45,0,120
2,note_on,41,47,120
2,note_on,29,39,0
2,note_on,29,0,480
2,note_on,41,0,0
2,note_on,42,56,480
2,note_on,30,39,0
2,note_on,42,0,480
2,note_on,44,46,0
2,note_on,44,0,240
2,note_on,30,0,0
2,note_on,29,36,0
2,note_on,41,51,0
2,note_on,41,0,240
2,note_on,29,0,0
2,note_on,42,56,0
2,note_on,30,39,0
2,note_on,42,0,480
2,note_on,44,49,0
2,note_on,44,0,240
2,note_on,30,0,0
2,note_on,29,39,0
2,note_on,41,56,0
2,note_on,41,0,240
2,note_on,29,0,0
2,note_on,30,36,0
2,note_on,42,51,0
2,note_on,42,0,240
2,note_on,30,0,0
2,note_on,31,43,0
2,note_on,43,60,0
2,note_on,43,0,240
2,note_on,31,0,0
2,note_on,32,36,0
2,note_on,44,52,0
2,note_on,44,0,240
2,note_on,32,0,0
2,note_on,45,61,0
2,note_on,33,43,0
2,note_on,33,0,240
2,note_on,45,0,0
2,note_on,46,54,0
2,note_on,34,54,0
2,note_on,34,0,240
2,note_on,46,0,0
2,note_on,35,46,0
2,note_on,47,66,0
2,note_on,47,0,240
2,note_on,35,0,0
2,note_on,48,63,0
2,note_on,36,44,0
2,note_on,36,0,240
2,note_on,48,0,0
2,note_on,41,76,0
2,note_on,29,49,0
2,note_on,29,0,600
2,note_on,41,0,0
2,note_on,62,52,0
2,note_on,62,0,60
2,note_on,67,60,60
2,note_on,67,0,60
2,note_on,65,51,60
2,note_on,65,0,60
2,note_on,64,65,60
2,note_on,64,0,60
2,note_on,60,51,60
2,note_on,60,0,60
2,note_on,65,74,60
2,note_on,65,0,60
2,note_on,57,65,60
2,note_on,57,0,60
2,note_on,62,74,60
2,note_on,62,0,60
2,note_on,55,59,60
2,note_on,55,0,60
2,note_on,60,75,60
2,note_on,60,0,60
2,note_on,58,55,60
2,note_on,58,0,60
2,note_on,57,72,60
2,note_on,57,0,240
2,note_on,55,78,0
2,note_on,55,0,480
2,note_on,54,67,0
2,note_on,54,0,240
2,note_on,55,75,0
2,note_on,55,0,120
2,note_on,48,62,0
2,note_on,48,0,60
2,note_on,53,69,60
2,note_on,53,0,60
2,note_on,45,56,60
2,note_on,45,0,60
2,note_on,46,63,60
2,note_on,46,0,60
2,note_on,43,57,60
2,note_on,43,0,60
2,note_on,48,60,60
2,note_on,48,0,60
2,note_on,46,54,60
2,note_on,46,0,60
2,note_on,45,59,60
2,note_on,45,0,120
2,note_on,29,39,120
2,note_on,41,47,0
2,note_on,41,0,720
2,note_on,29,0,0
2,note_on,30,39,240
2,note_on,42,56,0
2,note_on,42,0,480
2,note_on,44,46,0
2,note_on,44,0,240
2,note_on,30,0,0
2,note_on,41,51,0
2,note_on,29,36,0
2,note_on,29,0,240
2,note_on,41,0,0
2,note_on,42,56,0
2,note_on,30,39,0
2,note_on,42,0,480
2,note_on,44,49,0
2,note_on,44,0,240
2,note_on,30,0,0
2,note_on,41,56,0
2,note_on,29,39,0
2,note_on,29,0,240
2,note_on,41,0,0
2,note_on,30,49,0
2,note_on,42,49,0
2,note_on,42,0,240
2,note_on,30,0,0
2,note_on,43,60,0
2,note_on,31,43,0
2,note_on,31,0,240
2,note_on,43,0,0
2,note_on,44,46,0
2,note_on,32,46,0
2,note_on,32,0,240
2,note_on,44,0,0
2,note_on,33,43,0
2,note_on,45,61,0
2,note_on,45,0,240
2,note_on,33,0,0
2,note_on,46,56,0
2,note_on,34,40,0
2,note_on,34,0,240
2,note_on,46,0,0
2,note_on,35,46,0
2,note_on,47,65,0
2,note_on,47,0,240
2,note_on,35,0,0
2,note_on,48,62,0
2,note_on,36,43,0
2,note_on,36,0,240
2,note_on,48,0,0
2,note_on,29,47,0
2,note_on,41,74,0
2,note_on,41,0,600
2,note_on,29,0,0
2,note_on,62,57,0
2,note_on,62,0,60
2,note_on,67,60,60
2,note_on,67,0,60
2,note_on,65,51,60
2,note_on,65,0,60
2,note_on,64,65,60
2,note_on,64,0,60
2,note_on,60,52,60
2,note_on,60,0,60
2,note_on,65,74,60
2,note_on,65,0,60
2,note_on,57,60,60
2,note_on,57,0,60
2,note_on,62,71,60
2,note_on,62,0,60
2,note_on,55,66,60
2,note_on,55,0,60
2,note_on,60,75,60
2,note_on,60,0,60
2,note_on,58,60,60
2,note_on,58,0,60
2,note_on,57,72,60
2,note_on,57,0,240
2,note_on,55,78,0
2,note_on,55,0,480
2,note_on,54,67,0
2,note_on,54,0,240
2,note_on,55,76,0
2,note_on,55,0,120
2,note_on,48,62,0
2,note_on,48,0,60
2,note_on,53,69,60
2,note_on,53,0,60
2,note_on,45,57,60
2,note_on,45,0,60
2,note_on,46,63,60
2,note_on,46,0,60
2,note_on,43,49,60
2,note_on,43,0,60
2,note_on,48,54,60
2,note_on,48,0,60
2,note_on,46,33,60
2,note_on,46,0,60
2,note_on,53,42,60
2,note_on,45,42,0
2,note_on,53,0,120
2,note_on,51,46,0
2,note_on,51,0,120
2,note_on,45,0,0
2,note_on,46,39,0
2,note_on,50,39,0
2,note_on,50,0,240
2,note_on,53,39,0
2,note_on,53,0,240
2,note_on,58,41,0
2,note_on,58,0,240
2,note_on,62,43,0
2,note_on,62,0,240
2,note_on,63,46,0
2,note_on,63,0,240
2,note_on,62,44,0
2,note_on,62,0,238
2,note_on,46,0,2
2,note_on,58,42,0
2,note_on,58,0,238
2,note_on,53,36,2
2,note_on,41,43,120
2,note_on,53,0,120
2,note_on,53,34,0
2,note_on,51,28,0
2,note_on,51,0,960
2,note_on,53,0,0
2,note_on,41,0,0
2,note_on,50,39,0
2,note_on,50,0,240
2,note_on,53,39,0
2,note_on,53,0,240
2,note_on,46,34,0
2,note_on,58,41,0
2,note_on,58,0,240
2,note_on,62,43,0
2,note_on,62,0,240
2,note_on,63,46,0
2,note_on,63,0,240
2,note_on,62,44,0
2,note_on,62,0,238
2,note_on,46,0,2
2,note_on,58,42,0
2,note_on,58,0,238
2,note_on,53,36,2
2,note_on,41,43,120
2,note_on,53,0,120
2,note_on,53,34,0
2,note_on,51,28,0
2,note_on,51,0,960
2,note_on,53,0,0
2,note_on,41,0,0
2,note_on,50,39,0
2,note_on,50,0,240
2,note_on,53,39,0
2,note_on,53,0,240
2,note_on,58,41,0
2,note_on,46,34,0
2,note_on,58,0,240
2,note_on,62,36,0
2,note_on,62,0,240
2,note_on,63,40,0
2,note_on,63,0,240
2,note_on,62,39,0
2,note_on,62,0,238
2,note_on,46,0,2
2,note_on,58,39,0
2,note_on,58,0,238
2,note_on,53,40,2
2,note_on,53,0,240
2,note_on,57,47,0
2,note_on,48,39,0
2,note_on,57,0,240
2,note_on,60,34,0
2,note_on,60,0,240
2,note_on,62,40,0
2,note_on,62,0,240
2,note_on,60,33,0
2,note_on,60,0,240
2,note_on,48,0,0
2,note_on,57,37,0
2,note_on,57,0,240
2,note_on,53,31,0
2,note_on,36,32,120
2,note_on,36,0,120
2,note_on,53,0,0
2,note_on,51,32,0
2,note_on,51,0,240
2,note_on,52,31,0
2,note_on,52,0,240
2,note_on,60,36,0
2,note_on,60,0,240
2,note_on,58,33,0
2,note_on,58,0,240
2,note_on,55,28,0
2,note_on,55,0,160
2,note_on,52,25,0
2,note_on,52,0,160
2,note_on,49,25,0
2,note_on,49,0,160
2,note_on,41,36,0
2,note_on,47,25,0
2,note_on,48,22,160
2,note_on,47,0,10
2,note_on,50,22,150
2,note_on,48,0,10
2,note_on,50,0,150
2,note_on,48,27,0
2,note_on,48,0,360
2,note_on,41,0,120
2,note_on,46,39,0
2,note_on,46,0,240
2,note_on,48,44,0
2,note_on,34,47,180
2,note_on,34,0,60
2,note_on,48,0,0
2,note_on,50,52,0
2,note_on,50,0,960
2,note_on,46,39,0
2,note_on,46,0,160
2,note_on,48,44,0
2,note_on,48,0,160
2,note_on,50,48,0
2,note_on,36,41,100
2,note_on,36,0,60
2,note_on,50,0,0
2,note_on,51,54,0
2,note_on,51,0,960
2,note_on,46,44,0
2,note_on,46,0,120
2,note_on,48,47,0
2,note_on,48,0,120
2,note_on,50,50,0
2,note_on,50,0,120
2,note_on,51,53,0
2,note_on,37,44,60
2,note_on,37,0,60
2,note_on,51,0,0
2,note_on,52,63,0
2,note_on,38,39,420
2,note_on,38,0,60
2,note_on,52,0,0
2,note_on,53,56,0
2,note_on,53,0,480
2,note_on,46,58,0
2,note_on,38,42,0
2,note_on,46,0,60
2,note_on,48,47,0
2,note_on,48,0,60
2,note_on,46,57,0
2,note_on,46,0,60
2,note_on,48,51,0
2,note_on,48,0,60
2,note_on,46,52,0
2,note_on,46,0,80
2,note_on,45,58,0
2,note_on,45,0,80
2,note_on,46,51,0
2,note_on,38,0,80
2,note_on,39,55,0
2,note_on,39,0,960
2,note_on,46,0,0
2,note_on,55,50,0
2,note_on,58,44,240
2,note_on,58,0,240
2,note_on,55,0,0
2,note_on,63,50,0
2,note_on,51,42,0
2,note_on,63,0,240
2,note_on,67,34,0
2,note_on,67,0,240
2,note_on,68,38,0
2,note_on,68,0,240
2,note_on,67,33,0
2,note_on,67,0,240
2,note_on,51,0,0
2,note_on,55,35,0
2,note_on,63,42,0
2,note_on,63,0,240
2,note_on,60,39,0
2,note_on,60,0,240
2,note_on,55,0,0
2,note_on,58,44,0
2,note_on,43,37,0
2,note_on,58,0,240
2,note_on,62,34,0
2,note_on,62,0,240
2,note_on,63,37,0
2,note_on,63,0,240
2,note_on,62,32,0
2,note_on,62,0,240
2,note_on,43,0,0
2,note_on,58,41,0
2,note_on,55,41,0
2,note_on,55,0,240
2,note_on,58,0,0
2,note_on,55,36,0
2,note_on,55,0,240
2,note_on,63,42,0
2,note_on,48,35,0
2,note_on,63,0,240
2,note_on,67,34,0
2,note_on,67,0,240
2,note_on,68,36,0
2,note_on,68,0,240
2,note_on,67,34,0
2,note_on,67,0,240
2,note_on,48,0,0
2,note_on,55,40,0
2,note_on,63,40,0
2,note_on,63,0,240
2,note_on,60,36,0
2,note_on,60,0,240
2,note_on,55,0,0
2,note_on,58,41,0
2,note_on,43,41,0
2,note_on,58,0,240
2,note_on,62,34,0
2,note_on,62,0,240
2,note_on,63,41,0
2,note_on,63,0,240
2,note_on,62,37,0
2,note_on,62,0,240
2,note_on,43,0,0
2,note_on,55,37,0
2,note_on,58,44,0
2,note_on,58,0,240
2,note_on,57,44,0
2,note_on,57,0,240
2,note_on,55,0,0
2,note_on,48,29,0
2,note_on,55,35,0
2,note_on,55,0,240
2,note_on,53,36,0
2,note_on,53,0,240
2,note_on,52,38,0
2,note_on,52,0,240
2,note_on,50,41,0
2,note_on,50,0,240
2,note_on,48,0,0
2,note_on,36,37,0
2,note_on,48,44,0
2,note_on,48,0,240
2,note_on,46,45,0
2,note_on,46,0,240
2,note_on,45,47,0
2,note_on,45,0,240
2,note_on,46,45,0
2,note_on,46,0,240
2,note_on,48,42,0
2,note_on,48,0,240
2,note_on,50,41,0
2,note_on,50,0,240
2,note_on,36,0,0
2,note_on,36,32,0
2,note_on,52,38,0
2,note_on,52,0,240
2,note_on,53,37,0
2,note_on,53,0,240
2,note_on,36,0,0
2,note_on,48,29,0
2,note_on,55,35,0
2,note_on,55,0,240
2,note_on,57,35,0
2,note_on,57,0,240
2,note_on,58,36,0
2,note_on,58,0,240
2,note_on,59,33,0
2,note_on,59,0,240
2,note_on,48,0,0
2,note_on,60,39,0
2,note_on,48,33,0
2,note_on,60,0,240
2,note_on,58,34,0
2,note_on,58,0,240
2,note_on,57,35,0
2,note_on,57,0,240
2,note_on,56,28,0
2,note_on,56,0,240
2,note_on,55,28,0
2,note_on,55,0,120
2,note_on,54,25,0
2,note_on,54,0,120
2,note_on,53,28,0
2,note_on,53,0,120
2,note_on,51,24,0
2,note_on,51,0,90
2,note_on,48,0,30
2,note_on,50,35,0
2,note_on,53,35,240
2,note_on,53,0,240
2,note_on,50,0,0
2,note_on,58,36,0
2,note_on,46,30,0
2,note_on,58,0,240
2,note_on,62,38,0
2,note_on,62,0,240
2,note_on,63,41,0
2,note_on,63,0,240
2,note_on,62,39,0
2,note_on,62,0,238
2,note_on,46,0,2
2,note_on,58,37,0
2,note_on,58,0,238
2,note_on,53,32,2
2,note_on,41,38,120
2,note_on,53,0,120
2,note_on,51,25,0
2,note_on,53,30,0
2,note_on,53,0,960
2,note_on,51,0,0
2,note_on,41,0,0
2,note_on,50,39,0
2,note_on,50,0,240
2,note_on,53,39,0
2,note_on,53,0,240
2,note_on,58,41,0
2,note_on,46,74,0
2,note_on,58,0,240
2,note_on,62,43,0
2,note_on,62,0,240
2,note_on,63,46,0
2,note_on,63,0,240
2,note_on,62,44,0
2,note_on,62,0,238
2,note_on,46,0,2
2,note_on,46,70,0
2,note_on,58,42,0
2,note_on,58,0,238
2,note_on,46,0,2
2,note_on,50,66,0
2,note_on,53,36,0
2,note_on,41,43,120
2,note_on,53,0,120
2,note_on,50,0,0
2,note_on,53,45,0
2,note_on,51,28,0
2,note_on,41,0,240
2,note_on,43,53,0
2,note_on,43,0,240
2,note_on,46,59,0
2,note_on,46,0,240
2,note_on,45,54,0
2,note_on,45,0,240
2,note_on,51,0,0
2,note_on,53,0,0
2,note_on,44,31,0
2,note_on,50,44,0
2,note_on,50,0,240
2,note_on,44,0,0
2,note_on,51,47,0
2,note_on,43,33,0
2,note_on,43,0,240
2,note_on,51,0,0
2,note_on,41,34,0
2,note_on,53,48,0
2,note_on,53,0,240
2,note_on,55,51,0
2,note_on,41,0,180
2,note_on,39,45,0
2,note_on,55,0,60
2,note_on,56,54,0
2,note_on,56,0,240
2,note_on,58,55,0
2,note_on,39,0,180
2,note_on,38,44,0
2,note_on,58,0,60
2,note_on,59,57,0
2,note_on,59,0,240
2,note_on,55,58,0
2,note_on,55,0,240
2,note_on,38,0,0
2,note_on,36,39,0
2,note_on,60,55,0
2,note_on,60,0,240
2,note_on,36,0,0
2,note_on,55,54,0
2,note_on,43,38,0
2,note_on,43,0,240
2,note_on,55,0,0
2,note_on,52,52,0
2,note_on,48,36,0
2,note_on,48,0,240
2,note_on,52,0,0
2,note_on,53,50,0
2,note_on,47,35,0
2,note_on,47,0,240
2,note_on,53,0,0
2,note_on,46,34,0
2,note_on,52,49,0
2,note_on,52,0,240
2,note_on,46,0,0
2,note_on,53,47,0
2,note_on,45,33,0
2,note_on,45,0,240
2,note_on,53,0,0
2,note_on,43,34,0
2,note_on,55,48,0
2,note_on,55,0,240
2,note_on,57,50,0
2,note_on,43,0,180
2,note_on,41,44,0
2,note_on,57,0,60
2,note_on,58,53,0
2,note_on,58,0,240
2,note_on,59,52,0
2,note_on,41,0,180
2,note_on,40,45,0
2,note_on,59,0,60
2,note_on,60,52,0
2,note_on,60,0,240
2,note_on,58,56,0
2,note_on,58,0,240
2,note_on,40,0,0
2,note_on,41,39,0
2,note_on,57,55,0
2,note_on,57,0,240
2,note_on,41,0,0
2,note_on,43,38,0
2,note_on,55,54,0
2,note_on,55,0,240
2,note_on,43,0,0
2,note_on,44,36,0
2,note_on,53,52,0
2,note_on,53,0,240
2,note_on,44,0,0
2,note_on,51,50,0
2,note_on,45,35,0
2,note_on,45,0,240
2,note_on,51,0,0
2,note_on,50,37,0
2,note_on,46,34,0
2,note_on,50,0,240
2,note_on,53,40,0
2,note_on,53,0,240
2,note_on,46,0,0
2,note_on,34,46,0
2,note_on,58,43,0
2,note_on,58,0,240
2,note_on,57,39,0
2,note_on,57,0,240
2,note_on,34,0,0
2,note_on,55,39,0
2,note_on,55,0,240
2,note_on,53,39,0
2,note_on,53,0,240
2,note_on,51,39,0
2,note_on,46,42,0
2,note_on,51,0,240
2,note_on,50,44,0
2,note_on,50,0,240
2,note_on,46,0,0
2,note_on,34,52,0
2,note_on,48,48,0
2,note_on,48,0,240
2,note_on,50,39,0
2,note_on,50,0,240
2,note_on,34,0,0
2,note_on,51,39,0
2,note_on,51,0,240
2,note_on,53,36,0
2,note_on,53,0,240
2,note_on,46,42,0
2,note_on,55,39,0
2,note_on,55,0,240
2,note_on,56,44,0
2,note_on,56,0,240
2,note_on,46,0,0
2,note_on,57,39,0
2,note_on,34,42,0
2,note_on,57,0,240
2,note_on,55,39,0
2,note_on,55,0,240
2,note_on,34,0,0
2,note_on,53,41,0
2,note_on,53,0,240
2,note_on,51,39,0
2,note_on,51,0,240
2,note_on,46,48,0
2,note_on,50,44,0
2,note_on,50,0,240
2,note_on,48,38,0
2,note_on,48,0,240
2,note_on,46,0,0
2,note_on,46,46,0
2,note_on,34,50,0
2,note_on,46,0,240
2,note_on,48,35,0
2,note_on,48,0,240
2,note_on,34,0,0
2,note_on,50,39,0
2,note_on,50,0,240
2,note_on,51,35,0
2,note_on,51,0,240
2,note_on,46,42,0
2,note_on,52,39,0
2,note_on,52,0,240
2,note_on,53,35,0
2,note_on,53,0,240
2,note_on,46,0,0
2,note_on,55,39,0
2,note_on,34,42,0
2,note_on,55,0,240
2,note_on,53,34,0
2,note_on,53,0,240
2,note_on,34,0,0
2,note_on,51,39,0
2,note_on,51,0,240
2,note_on,50,34,0
2,note_on,46,33,180
2,note_on,50,0,60
2,note_on,48,39,0
2,note_on,48,0,240
2,note_on,46,0,0
2,note_on,46,45,0
2,note_on,46,0,240
2,note_on,45,39,0
2,note_on,34,42,0
2,note_on,34,0,240
2,note_on,45,0,0
2,note_on,46,38,0
2,note_on,48,36,240
2,note_on,48,0,240
2,note_on,49,35,0
2,note_on,49,0,240
2,note_on,50,38,0
2,note_on,50,0,240
2,note_on,51,34,0
2,note_on,51,0,240
2,note_on,53,35,0
2,note_on,53,0,240
2,note_on,55,33,0
2,note_on,57,40,180
2,note_on,57,0,60
2,note_on,55,0,0
2,note_on,46,0,480
2,note_on,62,36,120
2,note_on,62,0,120
2,note_on,63,31,0
2,note_on,63,0,120
2,note_on,65,34,0
2,note_on,65,0,120
2,note_on,66,38,0
2,note_on,58,22,0
2,note_on,58,0,960
2,note_on,66,0,0
2,note_on,57,28,0
2,note_on,65,34,0
2,note_on,34,33,420
2,note_on,65,0,60
2,note_on,57,0,0
2,note_on,50,40,0
2,note_on,50,0,720
2,note_on,34,0,0
2,note_on,31,30,240
2,note_on,43,36,0
2,note_on,43,0,960
2,note_on,31,0,0
2,note_on,33,27,0
2,note_on,45,33,0
2,note_on,45,0,360
2,note_on,33,0,0
2,note_on,31,26,0
2,note_on,43,31,0
2,note_on,43,0,120
2,note_on,31,0,0
2,note_on,30,30,0
2,note_on,42,36,0
2,note_on,42,0,480
2,note_on,30,0,0
2,note_on,33,30,0
2,note_on,45,36,0
2,note_on,45,0,480
2,note_on,33,0,0
2,note_on,43,29,0
2,note_on,31,24,0
2,note_on,31,0,480
2,note_on,43,0,0
2,note_on,39,36,0
2,note_on,27,30,0
2,note_on,27,0,960
2,note_on,39,0,0
2,note_on,29,27,0
2,note_on,41,33,0
2,note_on,41,0,360
2,note_on,29,0,0
2,note_on,27,26,0
2,note_on,39,31,0
2,note_on,39,0,120
2,note_on,27,0,0
2,note_on,26,30,0
2,note_on,38,36,0
2,note_on,38,0,480
2,note_on,26,0,0
2,note_on,29,30,0
2,note_on,41,36,0
2,note_on,41,0,480
2,note_on,29,0,0
2,note_on,39,29,0
2,note_on,27,24,0
2,note_on,27,0,480
2,note_on,39,0,0
2,note_on,24,33,0
2,note_on,36,39,0
2,note_on,36,0,960
2,note_on,24,0,0
2,note_on,38,36,0
2,note_on,26,29,0
2,note_on,26,0,360
2,note_on,38,0,0
2,note_on,42,34,0
2,note_on,30,28,0
2,note_on,30,0,120
2,note_on,42,0,0
2,note_on,45,50,0
2,note_on,33,42,0
2,note_on,33,0,960
2,note_on,45,0,0
2,note_on,50,47,0
2,note_on,38,39,0
2,note_on,38,0,360
2,note_on,50,0,0
2,note_on,42,36,0
2,note_on,54,42,0
2,note_on,54,0,120
2,note_on,42,0,0
2,note_on,45,38,0
2,note_on,57,46,0
2,note_on,57,0,360
2,note_on,45,0,0
2,note_on,61,55,0
2,note_on,49,46,0
2,note_on,49,0,120
2,note_on,61,0,0
2,note_on,50,49,0
2,note_on,62,58,0
2,note_on,62,0,240
2,note_on,50,0,0
2,note_on,62,52,240
2,note_on,50,44,0
2,note_on,50,0,360
2,note_on,62,0,0
2,note_on,54,49,0
2,note_on,66,59,0
2,note_on,66,0,120
2,note_on,54,0,0
2,note_on,57,51,0
2,note_on,69,61,0
2,note_on,69,0,360
2,note_on,57,0,0
2,note_on,61,57,0
2,note_on,73,68,0
2,note_on,73,0,120
2,note_on,61,0,0
2,note_on,62,59,0
2,note_on,74,70,0
2,note_on,74,0,240
2,note_on,62,0,0
2,note_on,74,71,240
2,note_on,69,60,0
2,note_on,62,60,0
2,note_on,62,0,360
2,note_on,69,0,0
2,note_on,74,0,0
2,note_on,43,36,120
2,note_on,31,25,0
2,note_on,31,0,960
2,note_on,43,0,0
2,note_on,45,33,0
2,note_on,33,22,0
2,note_on,33,0,360
2,note_on,45,0,0
2,note_on,43,31,0
2,note_on,31,22,0
2,note_on,31,0,120
2,note_on,43,0,0
2,note_on,30,25,0
2,note_on,42,36,0
2,note_on,42,0,480
2,note_on,30,0,0
2,note_on,33,25,0
2,note_on,45,36,0
2,note_on,45,0,480
2,note_on,33,0,0
2,note_on,31,20,0
2,note_on,43,29,0
2,note_on,43,0,480
2,note_on,31,0,0
2,note_on,27,25,0
2,note_on,39,36,0
2,note_on,39,0,960
2,note_on,27,0,0
2,note_on,41,33,0
2,note_on,29,22,0
2,note_on,29,0,360
2,note_on,41,0,0
2,note_on,27,22,0
2,note_on,39,31,0
2,note_on,39,0,120
2,note_on,27,0,0
2,note_on,26,25,0
2,note_on,38,36,0
2,note_on,38,0,480
2,note_on,26,0,0
2,note_on,29,25,0
2,note_on,41,36,0
2,note_on,41,0,480
2,note_on,29,0,0
2,note_on,27,20,0
2,note_on,39,29,0
2,note_on,39,0,480
2,note_on,27,0,0
2,note_on,36,39,0
2,note_on,24,28,0
2,note_on,24,0,960
2,note_on,36,0,0
2,note_on,38,36,0
2,note_on,26,24,0
2,note_on,26,0,360
2,note_on,38,0,0
2,note_on,42,34,0
2,note_on,30,23,0
2,note_on,30,0,120
2,note_on,42,0,0
2,note_on,33,35,0
2,note_on,45,50,0
2,note_on,45,0,960
2,note_on,33,0,0
2,note_on,38,33,0
2,note_on,50,47,0
2,note_on,50,0,360
2,note_on,38,0,0
2,note_on,54,42,0
2,note_on,42,30,0
2,note_on,42,0,120
2,note_on,54,0,0
2,note_on,57,46,0
2,note_on,45,32,0
2,note_on,45,0,360
2,note_on,57,0,0
2,note_on,49,39,0
2,note_on,61,55,0
2,note_on,61,0,120
2,note_on,49,0,0
2,note_on,62,58,0
2,note_on,50,41,0
2,note_on,50,0,240
2,note_on,62,0,0
2,note_on,50,37,240
2,note_on,62,52,0
2,note_on,62,0,360
2,note_on,50,0,0
2,note_on,54,41,0
2,note_on,66,59,0
2,note_on,66,0,120
2,note_on,54,0,0
2,note_on,57,43,0
2,note_on,69,61,0
2,note_on,69,0,360
2,note_on,57,0,0
2,note_on,73,68,0
2,note_on,61,48,0
2,note_on,61,0,120
2,note_on,73,0,0
2,note_on,62,50,0
2,note_on,74,70,0
2,note_on,74,0,240
2,note_on,62,0,0
2,note_on,74,71,240
2,note_on,69,60,0
2,note_on,62,51,0
2,note_on,62,0,360
2,note_on,69,0,0
2,note_on,74,0,0
2,note_on,46,36,120
2,note_on,34,25,0
2,note_on,34,0,840
2,note_on,46,0,0
2,note_on,36,22,0
2,note_on,48,31,0
2,note_on,48,0,120
2,note_on,36,0,0
2,note_on,49,42,0
2,note_on,37,27,0
2,note_on,37,0,480
2,note_on,49,0,0
2,note_on,50,36,0
2,note_on,38,25,0
2,note_on,38,0,840
2,note_on,50,0,0
2,note_on,39,22,0
2,note_on,51,31,0
2,note_on,51,0,120
2,note_on,39,0,0
2,note_on,40,27,0
2,note_on,52,43,0
2,note_on,52,0,480
2,note_on,40,0,0
2,note_on,53,37,0
2,note_on,41,26,0
2,note_on,41,0,840
2,note_on,53,0,0
2,note_on,42,22,0
2,note_on,54,32,0
2,note_on,54,0,120
2,note_on,42,0,0
2,note_on,43,28,0
2,note_on,55,46,0
2,note_on,55,0,480
2,note_on,43,0,0
2,note_on,56,39,0
2,note_on,44,27,0
2,note_on,44,0,840
2,note_on,56,0,0
2,note_on,57,34,0
2,note_on,45,23,0
2,note_on,45,0,120
2,note_on,57,0,0
2,note_on,58,49,0
2,note_on,46,30,0
2,note_on,46,0,480
2,note_on,58,0,0
2,note_on,60,41,0
2,note_on,48,28,0
2,note_on,48,0,840
2,note_on,60,0,0
2,note_on,47,25,0
2,note_on,59,35,0
2,note_on,59,0,120
2,note_on,47,0,0
2,note_on,48,34,0
2,note_on,60,54,0
2,note_on,60,0,480
2,note_on,48,0,0
2,note_on,62,45,0
2,note_on,50,32,0
2,note_on,50,0,840
2,note_on,62,0,0
2,note_on,49,28,0
2,note_on,61,39,0
2,note_on,61,0,120
2,note_on,49,0,0
2,note_on,62,61,0
2,note_on,50,37,0
2,note_on,50,0,480
2,note_on,62,0,0
2,note_on,52,35,0
2,note_on,64,50,0
2,note_on,64,0,840
2,note_on,52,0,0
2,note_on,53,44,0
2,note_on,53,0,120
2,note_on,55,62,0
2,note_on,55,0,480
2,note_on,57,65,0
2,note_on,57,0,360
2,note_on,55,60,0
2,note_on,55,0,120
2,note_on,53,65,0
2,note_on,53,0,360
2,note_on,54,60,0
2,note_on,54,0,120
2,note_on,57,65,0
2,note_on,57,0,360
2,note_on,55,60,0
2,note_on,55,0,120
2,note_on,53,65,0
2,note_on,53,0,360
2,note_on,54,60,0
2,note_on,54,0,120
2,note_on,57,65,0
2,note_on,57,0,360
2,note_on,55,60,0
2,note_on,55,0,120
2,note_on,53,65,0
2,note_on,53,0,360
2,note_on,54,60,0
2,note_on,54,0,120
2,note_on,55,65,0
2,note_on,55,0,360
2,note_on,58,60,0
2,note_on,58,0,120
2,note_on,57,65,0
2,note_on,57,0,360
2,note_on,45,60,0
2,note_on,45,0,120
2,note_on,50,65,0
2,note_on,50,0,360
2,note_on,48,60,0
2,note_on,48,0,120
2,note_on,46,65,0
2,note_on,46,0,360
2,note_on,45,60,0
2,note_on,45,0,120
2,note_on,43,45,0
2,note_on,31,31,0
2,note_on,31,0,960
2,note_on,43,0,0
2,note_on,33,28,0
2,note_on,45,41,0
2,note_on,45,0,360
2,note_on,33,0,0
2,note_on,43,38,0
2,note_on,31,27,0
2,note_on,31,0,120
2,note_on,43,0,0
2,note_on,30,31,0
2,note_on,42,45,0
2,note_on,42,0,480
2,note_on,30,0,0
2,note_on,33,31,0
2,note_on,45,45,0
2,note_on,45,0,480
2,note_on,33,0,0
2,note_on,31,25,0
2,note_on,43,36,0
2,note_on,43,0,480
2,note_on,31,0,0
2,note_on,39,45,0
2,note_on,27,31,0
2,note_on,27,0,960
2,note_on,39,0,0
2,note_on,29,28,0
2,note_on,41,41,0
2,note_on,41,0,360
2,note_on,29,0,0
2,note_on,27,27,0
2,note_on,39,38,0
2,note_on,39,0,120
2,note_on,27,0,0
2,note_on,38,45,0
2,note_on,26,31,0
2,note_on,26,0,480
2,note_on,38,0,0
2,note_on,29,31,0
2,note_on,41,45,0
2,note_on,41,0,480
2,note_on,29,0,0
2,note_on,27,25,0
2,note_on,39,36,0
2,note_on,39,0,480
2,note_on,27,0,0
2,note_on,24,34,0
2,note_on,36,48,0
2,note_on,36,0,960
2,note_on,24,0,0
2,note_on,38,45,0
2,note_on,26,30,0
2,note_on,26,0,360
2,note_on,38,0,0
2,note_on,40,42,0
2,note_on,28,29,0
2,note_on,28,0,120
2,note_on,40,0,0
2,note_on,30,44,0
2,note_on,42,62,0
2,note_on,42,0,480
2,note_on,30,0,0
2,note_on,33,42,0
2,note_on,45,59,0
2,note_on,45,0,480
2,note_on,33,0,0
2,note_on,43,58,0
2,note_on,31,40,0
2,note_on,31,0,360
2,note_on,43,0,0
2,note_on,33,38,0
2,note_on,45,52,0
2,note_on,45,0,120
2,note_on,33,0,0
2,note_on,34,39,0
2,note_on,46,57,0
2,note_on,46,0,480
2,note_on,34,0,0
2,note_on,50,65,0
2,note_on,38,46,0
2,note_on,38,0,480
2,note_on,50,0,0
2,note_on,48,48,0
2,note_on,36,34,0
2,note_on,36,0,360
2,note_on,48,0,0
2,note_on,45,55,0
2,note_on,33,39,0
2,note_on,33,0,90
2,note_on,45,0,0
2,note_on,50,58,30
2,note_on,38,41,0
2,note_on,38,0,480
2,note_on,50,0,0
2,note_on,43,66,0
2,note_on,31,47,0
2,note_on,31,0,840
2,note_on,43,0,0
2,note_on,46,36,120
2,note_on,34,25,0
2,note_on,34,0,840
2,note_on,46,0,0
2,note_on,48,31,0
2,note_on,36,22,0
2,note_on,36,0,120
2,note_on,48,0,0
2,note_on,49,42,0
2,note_on,37,27,0
2,note_on,37,0,480
2,note_on,49,0,0
2,note_on,38,25,0
2,note_on,50,36,0
2,note_on,50,0,840
2,note_on,38,0,0
2,note_on,51,31,0
2,note_on,39,22,0
2,note_on,39,0,120
2,note_on,51,0,0
2,note_on,52,43,0
2,note_on,40,27,0
2,note_on,40,0,480
2,note_on,52,0,0
2,note_on,41,26,0
2,note_on,53,37,0
2,note_on,53,0,840
2,note_on,41,0,0
2,note_on,54,32,0
2,note_on,42,22,0
2,note_on,42,0,120
2,note_on,54,0,0
2,note_on,43,28,0
2,note_on,55,46,0
2,note_on,55,0,480
2,note_on,43,0,0
2,note_on,44,27,0
2,note_on,56,39,0
2,note_on,56,0,840
2,note_on,44,0,0
2,note_on,57,34,0
2,note_on,45,23,0
2,note_on,45,0,120
2,note_on,57,0,0
2,note_on,58,49,0
2,note_on,46,30,0
2,note_on,46,0,480
2,note_on,58,0,0
2,note_on,60,41,0
2,note_on,48,28,0
2,note_on,48,0,840
2,note_on,60,0,0
2,note_on,59,35,0
2,note_on,47,25,0
2,note_on,47,0,120
2,note_on,59,0,0
2,note_on,48,34,0
2,note_on,60,54,0
2,note_on,60,0,480
2,note_on,48,0,0
2,note_on,62,45,0
2,note_on,50,32,0
2,note_on,50,0,840
2,note_on,62,0,0
2,note_on,61,39,0
2,note_on,49,28,0
2,note_on,49,0,120
2,note_on,61,0,0
2,note_on,50,37,0
2,note_on,62,61,0
2,note_on,62,0,480
2,note_on,50,0,0
2,note_on,52,35,0
2,note_on,64,50,0
2,note_on,64,0,840
2,note_on,52,0,0
2,note_on,53,44,0
2,note_on,53,0,120
2,note_on,55,62,0
2,note_on,55,0,480
2,note_on,57,65,0
2,note_on,57,0,360
2,note_on,55,60,0
2,note_on,55,0,120
2,note_on,53,65,0
2,note_on,53,0,360
2,note_on,54,60,0
2,note_on,54,0,120
2,note_on,57,65,0
2,note_on,57,0,360
2,note_on,55,60,0
2,note_on,55,0,120
2,note_on,53,65,0
2,note_on,53,0,360
2,note_on,54,60,0
2,note_on,54,0,120
2,note_on,57,65,0
2,note_on,57,0,360
2,note_on,55,60,0
2,note_on,55,0,120
2,note_on,53,65,0
2,note_on,53,0,360
2,note_on,54,60,0
2,note_on,54,0,120
2,note_on,55,65,0
2,note_on,55,0,360
2,note_on,58,60,0
2,note_on,58,0,120
2,note_on,57,65,0
2,note_on,57,0,360
2,note_on,45,60,0
2,note_on,45,0,120
2,note_on,50,65,0
2,note_on,50,0,360
2,note_on,48,60,0
2,note_on,48,0,120
2,note_on,46,65,0
2,note_on,46,0,360
2,note_on,45,60,0
2,note_on,45,0,120
2,note_on,31,31,0
2,note_on,43,45,0
2,note_on,43,0,960
2,note_on,31,0,0
2,note_on,45,41,0
2,note_on,33,28,0
2,note_on,33,0,360
2,note_on,45,0,0
2,note_on,31,27,0
2,note_on,43,38,0
2,note_on,43,0,120
2,note_on,31,0,0
2,note_on,42,45,0
2,note_on,30,31,0
2,note_on,30,0,480
2,note_on,42,0,0
2,note_on,33,31,0
2,note_on,45,45,0
2,note_on,45,0,480
2,note_on,33,0,0
2,note_on,43,36,0
2,note_on,31,25,0
2,note_on,31,0,480
2,note_on,43,0,0
2,note_on,27,31,0
2,note_on,39,45,0
2,note_on,39,0,960
2,note_on,27,0,0
2,note_on,41,41,0
2,note_on,29,28,0
2,note_on,29,0,360
2,note_on,41,0,0
2,note_on,39,38,0
2,note_on,27,27,0
2,note_on,27,0,120
2,note_on,39,0,0
2,note_on,38,45,0
2,note_on,26,31,0
2,note_on,26,0,480
2,note_on,38,0,0
2,note_on,41,45,0
2,note_on,29,31,0
2,note_on,29,0,480
2,note_on,41,0,0
2,note_on,27,25,0
2,note_on,39,36,0
2,note_on,39,0,480
2,note_on,27,0,0
2,note_on,24,34,0
2,note_on,36,48,0
2,note_on,36,0,960
2,note_on,24,0,0
2,note_on,38,45,0
2,note_on,26,30,0
2,note_on,26,0,360
2,note_on,38,0,0
2,note_on,40,42,0
2,note_on,28,29,0
2,note_on,28,0,120
2,note_on,40,0,0
2,note_on,30,44,0
2,note_on,42,62,0
2,note_on,42,0,480
2,note_on,30,0,0
2,note_on,45,59,0
2,note_on,33,42,0
2,note_on,33,0,480
2,note_on,45,0,0
2,note_on,31,40,0
2,note_on,43,58,0
2,note_on,43,0,360
2,note_on,31,0,0
2,note_on,45,52,0
2,note_on,33,38,0
2,note_on,33,0,120
2,note_on,45,0,0
2,note_on,46,57,0
2,note_on,34,39,0
2,note_on,34,0,480
2,note_on,46,0,0
2,note_on,38,46,0
2,note_on,50,65,0
2,note_on,50,0,480
2,note_on,38,0,0
2,note_on,36,34,0
2,note_on,48,48,0
2,note_on,48,0,360
2,note_on,36,0,0
2,note_on,45,55,0
2,note_on,33,39,0
2,note_on,33,0,90
2,note_on,45,0,0
2,note_on,50,58,30
2,note_on,38,41,0
2,note_on,38,0,480
2,note_on,50,0,0
2,note_on,31,47,0
2,note_on,43,66,0
2,note_on,43,0,840
2,note_on,31,0,0
2,note_on,55,34,120
2,note_on,51,40,0
2,note_on,51,0,240
2,note_on,50,31,0
2,note_on,50,0,240
2,note_on,49,38,0
2,note_on,49,0,480
2,note_on,55,0,0
2,note_on,45,39,0
2,note_on,45,0,480
2,note_on,46,43,0
2,note_on,46,0,240
2,note_on,43,38,0
2,note_on,43,0,240
2,note_on,45,44,0
2,note_on,45,0,240
2,note_on,41,36,0
2,note_on,41,0,240
2,note_on,43,42,0
2,note_on,43,0,240
2,note_on,41,36,0
2,note_on,41,0,240
2,note_on,40,37,0
2,note_on,40,0,240
2,note_on,38,32,0
2,note_on,38,0,240
2,note_on,36,44,0
2,note_on,36,0,480
2,note_on,37,40,0
2,note_on,37,0,480
2,note_on,38,38,0
2,note_on,38,0,240
2,note_on,31,32,0
2,note_on,31,0,240
2,note_on,33,40,0
2,note_on,33,0,480
2,note_on,26,31,0
2,note_on,38,37,0
2,note_on,38,0,480
2,note_on,26,0,0
2,note_on,75,50,0
2,note_on,75,0,240
2,note_on,74,38,0
2,note_on,74,0,240
2,note_on,73,47,0
2,note_on,73,0,480
2,note_on,69,48,0
2,note_on,69,0,480
2,note_on,70,53,0
2,note_on,70,0,240
2,note_on,67,47,0
2,note_on,67,0,240
2,note_on,69,55,0
2,note_on,69,0,240
2,note_on,65,45,0
2,note_on,65,0,240
2,note_on,67,52,0
2,note_on,67,0,240
2,note_on,65,45,0
2,note_on,65,0,240
2,note_on,64,46,0
2,note_on,64,0,240
2,note_on,62,40,0
2,note_on,62,0,240
2,note_on,60,44,0
2,note_on,60,0,480
2,note_on,61,40,0
2,note_on,61,0,480
2,note_on,62,38,0
2,note_on,62,0,240
2,note_on,58,32,0
2,note_on,58,0,240
2,note_on,55,40,0
2,note_on,55,0,240
2,note_on,57,28,0
2,note_on,57,0,240
2,note_on,48,37,240
2,note_on,48,0,240
2,note_on,44,26,0
2,note_on,46,37,0
2,note_on,46,0,240
2,note_on,44,0,0
2,note_on,43,23,0
2,note_on,47,33,0
2,note_on,47,0,240
2,note_on,43,0,0
2,note_on,44,28,0
2,note_on,46,39,0
2,note_on,46,0,240
2,note_on,44,0,0
2,note_on,47,36,0
2,note_on,43,30,0
2,note_on,47,0,240
2,note_on,48,37,0
2,note_on,47,33,240
2,note_on,47,0,240
2,note_on,43,0,0
2,note_on,46,37,0
2,note_on,46,0,240
2,note_on,48,0,0
2,note_on,49,34,0
2,note_on,45,23,0
2,note_on,45,0,240
2,note_on,49,0,0
2,note_on,46,33,0
2,note_on,48,37,0
2,note_on,48,0,240
2,note_on,46,0,0
2,note_on,45,30,0
2,note_on,49,33,0
2,note_on,49,0,240
2,note_on,50,37,0
2,note_on,50,0,240
2,note_on,49,35,0
2,note_on,49,0,240
2,note_on,45,0,0
2,note_on,50,26,0
2,note_on,60,37,0
2,note_on,60,0,240
2,note_on,50,0,0
2,note_on,59,35,0
2,note_on,51,24,0
2,note_on,51,0,240
2,note_on,59,0,0
2,note_on,50,28,0
2,note_on,60,39,0
2,note_on,60,0,240
2,note_on,50,0,0
2,note_on,59,37,0
2,note_on,51,26,0
2,note_on,59,0,240
2,note_on,57,41,0
2,note_on,57,0,240
2,note_on,56,39,0
2,note_on,51,0,240
2,note_on,52,27,0
2,note_on,62,42,0
2,note_on,62,0,240
2,note_on,52,0,0
2,note_on,61,37,0
2,note_on,53,27,0
2,note_on,53,0,240
2,note_on,61,0,0
2,note_on,56,0,0
2,note_on,62,41,0
2,note_on,51,28,0
2,note_on,51,0,240
2,note_on,62,0,0
2,note_on,61,38,0
2,note_on,53,27,0
2,note_on,61,0,240
2,note_on,59,40,0
2,note_on,59,0,240
2,note_on,58,37,0
2,note_on,58,0,240
2,note_on,53,0,0
2,note_on,54,26,0
2,note_on,58,37,0
2,note_on,58,0,240
2,note_on,61,37,0
2,note_on,61,0,240
2,note_on,66,39,0
2,note_on,66,0,240
2,note_on,70,38,0
2,note_on,70,0,240
2,note_on,54,0,0
2,note_on,71,43,0
2,note_on,71,0,240
2,note_on,70,41,0
2,note_on,70,0,240
2,note_on,66,43,0
2,note_on,66,0,240
2,note_on,61,37,0
2,note_on,61,0,240
2,note_on,59,39,0
2,note_on,49,28,0
2,note_on,59,0,240
2,note_on,61,38,0
2,note_on,61,0,240
2,note_on,66,44,0
2,note_on,66,0,240
2,note_on,65,39,0
2,note_on,65,0,240
2,note_on,49,0,0
2,note_on,58,37,0
2,note_on,54,26,0
2,note_on,58,0,240
2,note_on,61,37,0
2,note_on,61,0,240
2,note_on,66,39,0
2,note_on,66,0,240
2,note_on,70,38,0
2,note_on,70,0,240
2,note_on,54,0,0
2,note_on,71,43,0
2,note_on,71,0,240
2,note_on,70,41,0
2,note_on,70,0,240
2,note_on,66,43,0
2,note_on,66,0,240
2,note_on,61,37,0
2,note_on,61,0,240
2,note_on,58,39,0
2,note_on,58,0,240
2,note_on,54,38,0
2,note_on,54,0,240
2,note_on,49,44,0
2,note_on,49,0,240
2,note_on,46,39,0
2,note_on,46,0,240
2,note_on,41,34,0
2,note_on,50,39,0
2,note_on,50,0,240
2,note_on,53,39,0
2,note_on,53,0,240
2,note_on,58,41,0
2,note_on,58,0,240
2,note_on,62,43,0
2,note_on,62,0,240
2,note_on,63,46,0
2,note_on,63,0,240
2,note_on,62,44,0
2,note_on,62,0,238
2,note_on,58,42,2
2,note_on,58,0,238
2,note_on,53,36,2
2,note_on,53,0,240
2,note_on,41,0,0
2,note_on,50,40,0
2,note_on,42,34,0
2,note_on,51,31,240
2,note_on,50,0,20
2,note_on,50,36,220
2,note_on,51,0,20
2,note_on,49,33,220
2,note_on,50,0,20
2,note_on,49,0,220
2,note_on,42,0,0
2,note_on,50,39,0
2,note_on,50,0,240
2,note_on,53,39,0
2,note_on,53,0,240
2,note_on,58,41,0
2,note_on,41,34,0
2,note_on,58,0,240
2,note_on,62,43,0
2,note_on,62,0,240
2,note_on,41,0,0
2,note_on,63,46,0
2,note_on,63,0,240
2,note_on,62,44,0
2,note_on,62,0,238
2,note_on,58,42,2
2,note_on,58,0,238
2,note_on,53,36,2
2,note_on,53,0,240
2,note_on,50,40,0
2,note_on,42,34,0
2,note_on,51,32,240
2,note_on,50,0,20
2,note_on,50,37,220
2,note_on,51,0,20
2,note_on,49,31,220
2,note_on,50,0,20
2,note_on,49,0,220
2,note_on,50,39,0
2,note_on,50,0,240
2,note_on,53,39,0
2,note_on,53,0,240
2,note_on,42,0,0
2,note_on,43,34,0
2,note_on,50,41,0
2,note_on,50,0,240
2,note_on,58,43,0
2,note_on,58,0,240
2,note_on,43,0,0
2,note_on,60,46,0
2,note_on,60,0,240
2,note_on,58,44,0
2,note_on,58,0,238
2,note_on,55,42,2
2,note_on,55,0,238
2,note_on,50,36,2
2,note_on,50,0,240
2,note_on,42,34,0
2,note_on,46,40,0
2,note_on,46,0,120
2,note_on,48,34,0
2,note_on,48,0,120
2,note_on,46,40,0
2,note_on,46,0,120
2,note_on,45,34,0
2,note_on,45,0,120
2,note_on,46,34,0
2,note_on,46,0,80
2,note_on,50,37,0
2,note_on,50,0,80
2,note_on,55,40,0
2,note_on,55,0,80
2,note_on,47,43,0
2,note_on,50,47,80
2,note_on,55,49,80
2,note_on,62,44,80
2,note_on,55,0,240
2,note_on,53,40,0
2,note_on,53,0,240
2,note_on,62,0,0
2,note_on,42,0,0
2,note_on,47,0,0
2,note_on,50,0,0
2,note_on,51,34,0
2,note_on,48,34,0
2,note_on,60,42,0
2,note_on,60,0,240
2,note_on,48,0,0
2,note_on,51,0,0
2,note_on,58,43,0
2,note_on,51,36,0
2,note_on,51,0,240
2,note_on,58,0,0
2,note_on,53,39,0
2,note_on,62,47,0
2,note_on,62,0,480
2,note_on,53,0,0
2,note_on,60,44,0
2,note_on,41,37,0
2,note_on,41,0,480
2,note_on,46,42,0
2,note_on,60,0,240
2,note_on,58,39,0
2,note_on,58,0,240
2,note_on,46,0,0
2,note_on,53,44,0
2,note_on,53,0,240
2,note_on,50,40,0
2,note_on,50,0,240
2,note_on,58,40,0
2,note_on,46,34,0
2,note_on,46,0,240
2,note_on,58,0,0
2,note_on,57,40,0
2,note_on,57,0,240
2,note_on,55,32,0
2,note_on,48,27,0
2,note_on,55,0,240
2,note_on,53,33,0
2,note_on,53,0,240
2,note_on,52,35,0
2,note_on,52,0,240
2,note_on,50,37,0
2,note_on,50,0,240
2,note_on,48,0,0
2,note_on,48,39,0
2,note_on,36,33,0
2,note_on,48,0,240
2,note_on,46,40,0
2,note_on,46,0,240
2,note_on,45,41,0
2,note_on,45,0,240
2,note_on,46,40,0
2,note_on,46,0,240
2,note_on,48,39,0
2,note_on,48,0,240
2,note_on,50,38,0
2,note_on,50,0,240
2,note_on,36,0,0
2,note_on,52,37,0
2,note_on,36,31,0
2,note_on,52,0,240
2,note_on,53,36,0
2,note_on,53,0,240
2,note_on,36,0,0
2,note_on,55,35,0
2,note_on,48,29,0
2,note_on,55,0,240
2,note_on,57,35,0
2,note_on,57,0,240
2,note_on,58,37,0
2,note_on,58,0,240
2,note_on,59,35,0
2,note_on,59,0,240
2,note_on,48,0,0
2,note_on,60,42,0
2,note_on,48,36,0
2,note_on,60,0,240
2,note_on,58,38,0
2,note_on,58,0,240
2,note_on,48,0,0
2,note_on,41,39,0
2,note_on,57,55,0
2,note_on,57,0,240
2,note_on,41,0,0
2,note_on,43,38,0
2,note_on,55,54,0
2,note_on,55,0,240
2,note_on,43,0,0
2,note_on,53,52,0
2,note_on,44,36,0
2,note_on,44,0,240
2,note_on,53,0,0
2,note_on,51,50,0
2,note_on,45,35,0
2,note_on,45,0,240
2,note_on,51,0,0
2,note_on,50,37,0
2,note_on,46,40,0
2,note_on,50,0,240
2,note_on,53,40,0
2,note_on,53,0,240
2,note_on,46,0,0
2,note_on,34,46,0
2,note_on,58,43,0
2,note_on,58,0,240
2,note_on,57,39,0
2,note_on,57,0,240
2,note_on,34,0,0
2,note_on,55,39,0
2,note_on,55,0,240
2,note_on,53,39,0
2,note_on,53,0,240
2,note_on,51,39,0
2,note_on,46,42,0
2,note_on,51,0,240
2,note_on,50,44,0
2,note_on,50,0,240
2,note_on,46,0,0
2,note_on,48,48,0
2,note_on,34,52,0
2,note_on,48,0,240
2,note_on,50,39,0
2,note_on,50,0,240
2,note_on,34,0,0
2,note_on,51,39,0
2,note_on,51,0,240
2,note_on,53,36,0
2,note_on,53,0,240
2,note_on,55,39,0
2,note_on,46,42,0
2,note_on,55,0,240
2,note_on,56,44,0
2,note_on,56,0,240
2,note_on,46,0,0
2,note_on,57,39,0
2,note_on,34,42,0
2,note_on,57,0,240
2,note_on,55,39,0
2,note_on,55,0,240
2,note_on,34,0,0
2,note_on,53,41,0
2,note_on,53,0,240
2,note_on,51,39,0
2,note_on,51,0,240
2,note_on,46,38,0
2,note_on,50,44,0
2,note_on,50,0,240
2,note_on,48,38,0
2,note_on,48,0,240
2,note_on,46,0,0
2,note_on,46,46,0
2,note_on,34,50,0
2,note_on,46,0,240
2,note_on,50,35,0
2,note_on,50,0,240
2,note_on,34,0,0
2,note_on,53,39,0
2,note_on,53,0,240
2,note_on,58,35,0
2,note_on,58,0,240
2,note_on,58,40,0
2,note_on,62,37,0
2,note_on,62,0,240
2,note_on,65,40,0
2,note_on,65,0,240
2,note_on,58,0,0
2,note_on,70,43,0
2,note_on,58,46,0
2,note_on,70,0,240
2,note_on,69,39,0
2,note_on,69,0,240
2,note_on,67,39,0
2,note_on,67,0,240
2,note_on,65,39,0
2,note_on,65,0,240
2,note_on,58,0,0
2,note_on,63,39,0
2,note_on,58,42,0
2,note_on,63,0,240
2,note_on,62,44,0
2,note_on,62,0,240
2,note_on,58,0,0
2,note_on,46,52,0
2,note_on,60,48,0
2,note_on,60,0,240
2,note_on,62,39,0
2,note_on,62,0,240
2,note_on,46,0,0
2,note_on,63,39,0
2,note_on,63,0,240
2,note_on,65,36,0
2,note_on,65,0,240
2,note_on,58,42,0
2,note_on,67,39,0
2,note_on,67,0,240
2,note_on,68,44,0
2,note_on,68,0,240
2,note_on,58,0,0
2,note_on,46,42,0
2,note_on,69,39,0
2,note_on,69,0,240
2,note_on,67,39,0
2,note_on,67,0,240
2,note_on,46,0,0
2,note_on,65,41,0
2,note_on,65,0,240
2,note_on,63,39,0
2,note_on,63,0,240
2,note_on,58,41,0
2,note_on,62,44,0
2,note_on,62,0,240
2,note_on,60,38,0
2,note_on,60,0,240
2,note_on,58,0,0
2,note_on,46,50,0
2,note_on,58,46,0
2,note_on,58,0,240
2,note_on,60,35,0
2,note_on,60,0,240
2,note_on,46,0,0
2,note_on,62,39,0
2,note_on,62,0,240
2,note_on,63,35,0
2,note_on,63,0,240
2,note_on,64,39,0
2,note_on,58,42,0
2,note_on,64,0,240
2,note_on,65,35,0
2,note_on,65,0,240
2,note_on,58,0,0
2,note_on,67,39,0
2,note_on,46,42,0
2,note_on,67,0,240
2,note_on,65,34,0
2,note_on,65,0,240
2,note_on,46,0,0
2,note_on,63,39,0
2,note_on,63,0,240
2,note_on,62,34,0
2,note_on,58,33,180
2,note_on,62,0,60
2,note_on,60,39,0
2,note_on,60,0,240
2,note_on,58,0,0
2,note_on,58,45,0
2,note_on,58,0,240
2,note_on,46,42,0
2,note_on,57,39,0
2,note_on,57,0,240
2,note_on,58,38,0
2,note_on,58,0,240
2,note_on,46,0,0
2,note_on,60,36,0
2,note_on,60,0,240
2,note_on,61,35,0
2,note_on,61,0,240
2,note_on,58,35,0
2,note_on,62,38,0
2,note_on,62,0,240
2,note_on,63,34,0
2,note_on,63,0,240
2,note_on,58,0,960
2,note_on,74,35,120
2,note_on,74,0,120
2,note_on,75,39,0
2,note_on,75,0,120
2,note_on,77,42,0
2,note_on,77,0,120
2,note_on,78,46,0
2,note_on,70,39,0
2,note_on,70,0,960
2,note_on,78,0,0
2,note_on,69,28,0
2,note_on,77,34,0
2,note_on,46,33,420
2,note_on,77,0,60
2,note_on,69,0,0
2,note_on,62,40,0
2,note_on,62,0,1440
2,note_on,46,0,0
2,note_on,58,32,0
2,note_on,66,38,0
2,note_on,66,0,2640
2,note_on,58,0,0
2,note_on,36,34,120
2,note_on,52,34,120
2,note_on,52,0,1320
2,note_on,36,0,0
2,note_on,41,35,0
2,note_on,57,35,120
2,note_on,51,35,0
2,note_on,34,27,1320
2,note_on,51,0,120
2,note_on,57,0,0
2,note_on,50,27,0
2,note_on,50,0,1920
2,note_on,41,0,0
2,note_on,34,0,0
