Track,Message Type,Note,Velocity,Time
1,note_on,50,46,720
1,note_on,50,0,60
1,note_on,55,50,180
1,note_on,55,0,80
1,note_on,50,36,0
1,note_on,50,0,80
1,note_on,57,36,0
1,note_on,57,0,80
1,note_on,58,50,0
1,note_on,58,0,60
1,note_on,57,50,180
1,note_on,57,0,80
1,note_on,50,36,0
1,note_on,50,0,80
1,note_on,58,36,0
1,note_on,58,0,80
1,note_on,60,50,0
1,note_on,60,0,60
1,note_on,58,50,180
1,note_on,58,0,80
1,note_on,50,35,0
1,note_on,50,0,80
1,note_on,60,35,0
1,note_on,60,0,80
1,note_on,62,50,0
1,note_on,62,0,60
1,note_on,55,50,180
1,note_on,55,0,80
1,note_on,50,36,0
1,note_on,50,0,80
1,note_on,57,36,0
1,note_on,57,0,80
1,note_on,58,50,0
1,note_on,58,0,60
1,note_on,57,50,180
1,note_on,57,0,80
1,note_on,51,38,0
1,note_on,51,0,80
1,note_on,58,38,0
1,note_on,58,0,80
1,note_on,60,50,0
1,note_on,60,0,60
1,note_on,54,50,180
1,note_on,54,0,80
1,note_on,48,40,0
1,note_on,48,0,80
1,note_on,55,40,0
1,note_on,55,0,80
1,note_on,57,50,0
1,note_on,57,0,60
1,note_on,55,50,180
1,note_on,55,0,80
1,note_on,50,40,0
1,note_on,50,0,80
1,note_on,57,41,0
1,note_on,57,0,80
1,note_on,58,50,0
1,note_on,58,0,60
1,note_on,57,50,180
1,note_on,57,0,120
1,note_on,54,44,60
1,note_on,54,0,60
1,note_on,50,58,0
1,note_on,50,0,60
1,note_on,55,50,180
1,note_on,55,0,80
1,note_on,50,38,0
1,note_on,50,0,80
1,note_on,57,38,0
1,note_on,57,0,80
1,note_on,58,50,0
1,note_on,58,0,60
1,note_on,57,50,180
1,note_on,57,0,80
1,note_on,50,38,0
1,note_on,50,0,80
1,note_on,58,38,0
1,note_on,58,0,80
1,note_on,60,50,0
1,note_on,60,0,60
1,note_on,58,50,180
1,note_on,58,0,80
1,note_on,50,37,0
1,note_on,50,0,80
1,note_on,60,37,0
1,note_on,60,0,80
1,note_on,62,50,0
1,note_on,62,0,60
1,note_on,55,50,180
1,note_on,55,0,80
1,note_on,50,40,0
1,note_on,50,0,80
1,note_on,57,40,0
1,note_on,57,0,80
1,note_on,58,50,0
1,note_on,58,0,60
1,note_on,57,50,180
1,note_on,57,0,80
1,note_on,51,40,0
1,note_on,51,0,80
1,note_on,58,40,0
1,note_on,58,0,80
1,note_on,60,50,0
1,note_on,60,0,60
1,note_on,59,50,180
1,note_on,59,0,80
1,note_on,50,39,0
1,note_on,50,0,80
1,note_on,60,40,0
1,note_on,60,0,80
1,note_on,62,50,0
1,note_on,62,0,60
1,note_on,60,50,180
1,note_on,60,0,80
1,note_on,55,41,0
1,note_on,55,0,80
1,note_on,62,41,0
1,note_on,62,0,80
1,note_on,63,50,0
1,note_on,63,0,60
1,note_on,59,54,180
1,note_on,59,0,80
1,note_on,53,45,0
1,note_on,53,0,80
1,note_on,60,45,0
1,note_on,60,0,80
1,note_on,62,56,0
1,note_on,62,0,60
1,note_on,60,59,180
1,note_on,60,0,80
1,note_on,55,48,0
1,note_on,55,0,80
1,note_on,62,48,0
1,note_on,62,0,80
1,note_on,63,59,0
1,note_on,63,0,60
1,note_on,63,63,180
1,note_on,63,0,80
1,note_on,55,51,0
1,note_on,55,0,80
1,note_on,65,51,0
1,note_on,65,0,80
1,note_on,67,61,0
1,note_on,67,0,60
1,note_on,66,70,180
1,note_on,66,0,80
1,note_on,54,53,0
1,note_on,54,0,80
1,note_on,67,54,0
1,note_on,67,0,80
1,note_on,69,66,0
1,note_on,69,0,60
1,note_on,62,67,180
1,note_on,62,0,60
1,note_on,62,64,180
1,note_on,62,0,60
1,note_on,67,64,180
1,note_on,67,0,80
1,note_on,62,48,0
1,note_on,62,0,80
1,note_on,69,48,0
1,note_on,69,0,80
1,note_on,70,64,0
1,note_on,70,0,60
1,note_on,69,64,180
1,note_on,69,0,80
1,note_on,62,50,0
1,note_on,62,0,80
1,note_on,70,50,0
1,note_on,70,0,80
1,note_on,72,64,0
1,note_on,72,0,60
1,note_on,70,64,180
1,note_on,70,0,80
1,note_on,62,49,0
1,note_on,62,0,80
1,note_on,72,49,0
1,note_on,72,0,80
1,note_on,74,64,0
1,note_on,74,0,60
1,note_on,67,64,180
1,note_on,67,0,80
1,note_on,62,50,0
1,note_on,62,0,80
1,note_on,69,52,0
1,note_on,69,0,80
1,note_on,70,64,0
1,note_on,70,0,60
1,note_on,69,64,180
1,note_on,69,0,80
1,note_on,63,52,0
1,note_on,63,0,80
1,note_on,70,52,0
1,note_on,70,0,80
1,note_on,72,64,0
1,note_on,72,0,60
1,note_on,66,64,180
1,note_on,66,0,80
1,note_on,60,51,0
1,note_on,60,0,80
1,note_on,67,51,0
1,note_on,67,0,80
1,note_on,69,64,0
1,note_on,69,0,60
1,note_on,67,64,180
1,note_on,67,0,80
1,note_on,62,54,0
1,note_on,62,0,80
1,note_on,69,54,0
1,note_on,69,0,80
1,note_on,70,64,0
1,note_on,70,0,60
1,note_on,69,64,180
1,note_on,69,0,120
1,note_on,66,52,60
1,note_on,66,0,60
1,note_on,62,71,0
1,note_on,62,0,60
1,note_on,67,64,180
1,note_on,67,0,80
1,note_on,62,49,0
1,note_on,62,0,80
1,note_on,69,50,0
1,note_on,69,0,80
1,note_on,70,64,0
1,note_on,70,0,60
1,note_on,69,64,180
1,note_on,69,0,80
1,note_on,62,51,0
1,note_on,62,0,80
1,note_on,70,52,0
1,note_on,70,0,80
1,note_on,72,64,0
1,note_on,72,0,60
1,note_on,70,64,180
1,note_on,70,0,80
1,note_on,62,55,0
1,note_on,62,0,80
1,note_on,72,55,0
1,note_on,72,0,80
1,note_on,74,64,0
1,note_on,74,0,60
1,note_on,75,71,180
1,note_on,75,0,80
1,note_on,67,56,0
1,note_on,67,0,80
1,note_on,77,56,0
1,note_on,77,0,80
1,note_on,79,64,0
1,note_on,79,0,60
1,note_on,69,59,180
1,note_on,69,0,80
1,note_on,60,47,0
1,note_on,60,0,80
1,note_on,70,47,0
1,note_on,70,0,80
1,note_on,72,59,0
1,note_on,72,0,60
1,note_on,74,71,180
1,note_on,74,0,80
1,note_on,65,52,0
1,note_on,65,0,80
1,note_on,75,55,0
1,note_on,75,0,80
1,note_on,77,65,0
1,note_on,77,0,60
1,note_on,67,59,180
1,note_on,67,0,80
1,note_on,58,44,0
1,note_on,58,0,80
1,note_on,69,44,0
1,note_on,69,0,80
1,note_on,70,59,0
1,note_on,70,0,60
1,note_on,72,68,180
1,note_on,72,0,80
1,note_on,63,51,0
1,note_on,63,0,80
1,note_on,74,51,0
1,note_on,74,0,80
1,note_on,75,66,0
1,note_on,75,0,60
1,note_on,66,59,180
1,note_on,66,0,80
1,note_on,57,45,0
1,note_on,57,0,80
1,note_on,67,45,0
1,note_on,67,0,80
1,note_on,69,58,0
1,note_on,69,0,60
1,note_on,72,66,180
1,note_on,72,0,80
1,note_on,63,50,0
1,note_on,63,0,80
1,note_on,74,51,0
1,note_on,74,0,80
1,note_on,75,65,0
1,note_on,75,0,60
1,note_on,66,62,180
1,note_on,66,0,80
1,note_on,57,47,0
1,note_on,57,0,80
1,note_on,67,51,0
1,note_on,67,0,80
1,note_on,69,60,0
1,note_on,69,0,60
1,note_on,72,66,180
1,note_on,72,0,80
1,note_on,63,53,0
1,note_on,63,0,80
1,note_on,74,50,0
1,note_on,74,0,80
1,note_on,75,65,0
1,note_on,75,0,60
1,note_on,66,66,180
1,note_on,66,0,80
1,note_on,57,51,0
1,note_on,57,0,80
1,note_on,67,51,0
1,note_on,67,0,80
1,note_on,69,64,0
1,note_on,69,0,60
1,note_on,60,59,180
1,note_on,60,0,80
1,note_on,57,47,0
1,note_on,57,0,80
1,note_on,62,45,0
1,note_on,62,0,80
1,note_on,63,56,0
1,note_on,63,0,60
1,note_on,54,54,180
1,note_on,54,0,80
1,note_on,50,38,0
1,note_on,50,0,80
1,note_on,55,38,0
1,note_on,55,0,80
1,note_on,57,52,0
1,note_on,57,0,60
1,note_on,50,50,180
1,note_on,50,0,60
1,note_on,50,52,180
1,note_on,50,0,60
1,note_on,55,50,180
1,note_on,55,0,80
1,note_on,50,37,0
1,note_on,50,0,80
1,note_on,57,37,0
1,note_on,57,0,80
1,note_on,58,50,0
1,note_on,58,0,60
1,note_on,57,50,180
1,note_on,57,0,80
1,note_on,50,38,0
1,note_on,50,0,80
1,note_on,58,38,0
1,note_on,58,0,80
1,note_on,60,50,0
1,note_on,60,0,60
1,note_on,58,50,180
1,note_on,58,0,80
1,note_on,50,37,0
1,note_on,50,0,80
1,note_on,60,39,0
1,note_on,60,0,80
1,note_on,62,51,0
1,note_on,62,0,60
1,note_on,55,52,180
1,note_on,55,0,80
1,note_on,50,40,0
1,note_on,50,0,80
1,note_on,57,40,0
1,note_on,57,0,80
1,note_on,58,53,0
1,note_on,58,0,60
1,note_on,57,55,180
1,note_on,57,0,80
1,note_on,51,42,0
1,note_on,51,0,80
1,note_on,58,42,0
1,note_on,58,0,80
1,note_on,60,56,0
1,note_on,60,0,60
1,note_on,59,57,180
1,note_on,59,0,80
1,note_on,53,44,0
1,note_on,53,0,80
1,note_on,60,49,0
1,note_on,60,0,80
1,note_on,62,58,0
1,note_on,62,0,60
1,note_on,60,60,180
1,note_on,60,0,80
1,note_on,51,48,0
1,note_on,51,0,80
1,note_on,62,49,0
1,note_on,62,0,80
1,note_on,63,61,0
1,note_on,63,0,60
1,note_on,59,62,180
1,note_on,59,0,80
1,note_on,53,53,0
1,note_on,53,0,80
1,note_on,60,54,0
1,note_on,60,0,80
1,note_on,62,63,0
1,note_on,62,0,60
1,note_on,60,65,180
1,note_on,60,0,80
1,note_on,55,55,0
1,note_on,55,0,80
1,note_on,62,56,0
1,note_on,62,0,80
1,note_on,63,66,0
1,note_on,63,0,120
1,note_on,60,63,0
1,note_on,60,0,120
1,note_on,62,67,0
1,note_on,62,0,80
1,note_on,55,58,0
1,note_on,55,0,80
1,note_on,63,58,0
1,note_on,63,0,80
1,note_on,65,68,0
1,note_on,65,0,60
1,note_on,64,70,180
1,note_on,64,0,80
1,note_on,55,60,0
1,note_on,55,0,80
1,note_on,66,60,0
1,note_on,66,0,80
1,note_on,67,70,0
1,note_on,67,0,120
1,note_on,67,75,120
1,note_on,67,0,80
1,note_on,58,65,0
1,note_on,58,0,80
1,note_on,69,64,0
1,note_on,69,0,80
1,note_on,70,75,0
1,note_on,70,0,120
1,note_on,62,73,120
1,note_on,74,86,0
1,note_on,74,0,480
1,note_on,62,0,0
1,note_on,62,66,0
1,note_on,66,78,0
1,note_on,57,66,0
1,note_on,57,0,480
1,note_on,66,0,0
1,note_on,62,0,0
1,note_on,64,70,0
1,note_on,64,0,80
1,note_on,55,60,0
1,note_on,55,0,80
1,note_on,66,60,0
1,note_on,66,0,80
1,note_on,67,70,0
1,note_on,67,0,120
1,note_on,67,74,120
1,note_on,67,0,80
1,note_on,58,67,0
1,note_on,58,0,80
1,note_on,69,70,0
1,note_on,69,0,80
1,note_on,70,82,0
1,note_on,70,0,120
1,note_on,74,80,120
1,note_on,70,80,0
1,note_on,79,94,0
1,note_on,79,0,480
1,note_on,70,0,0
1,note_on,74,0,0
1,note_on,66,72,0
1,note_on,74,85,0
1,note_on,69,72,0
1,note_on,69,0,480
1,note_on,74,0,0
1,note_on,66,0,0
1,note_on,62,72,0
1,note_on,67,85,0
1,note_on,58,72,0
1,note_on,58,0,480
1,note_on,67,0,0
1,note_on,62,0,0
1,note_on,53,43,477
1,note_on,55,43,239
1,note_on,53,0,1
1,note_on,55,0,239
1,note_on,57,43,9
1,note_on,58,43,236
1,note_on,57,0,4
1,note_on,58,0,236
1,note_on,60,43,3
1,note_on,62,46,235
1,note_on,60,0,5
1,note_on,62,0,235
1,note_on,63,49,3
1,note_on,65,56,236
1,note_on,63,0,4
1,note_on,65,0,236
1,note_on,67,69,22
1,note_on,65,59,220
1,note_on,65,0,240
1,note_on,63,56,0
1,note_on,63,0,240
1,note_on,62,50,0
1,note_on,67,0,230
1,note_on,62,0,10
1,note_on,67,59,0
1,note_on,67,0,480
1,note_on,69,55,2
1,note_on,71,59,237
1,note_on,69,0,3
1,note_on,63,60,178
1,note_on,71,0,59
1,note_on,75,69,21
1,note_on,75,0,1180
1,note_on,63,0,0
1,note_on,74,51,0
1,note_on,74,0,336
1,note_on,72,55,0
1,note_on,72,0,96
1,note_on,70,53,0
1,note_on,70,0,96
1,note_on,69,51,0
1,note_on,69,0,96
1,note_on,67,50,0
1,note_on,67,0,96
1,note_on,63,59,7
1,note_on,65,59,3
1,note_on,62,53,232
1,note_on,63,0,5
1,note_on,62,0,235
1,note_on,60,49,0
1,note_on,58,48,231
1,note_on,60,0,9
1,note_on,58,0,231
1,note_on,65,0,583
1,note_on,67,42,0
1,note_on,67,0,96
1,note_on,69,46,0
1,note_on,69,0,96
1,note_on,70,50,0
1,note_on,70,0,96
1,note_on,72,54,0
1,note_on,72,0,96
1,note_on,74,63,20
1,note_on,62,32,100
1,note_on,62,0,120
1,note_on,74,0,0
1,note_on,72,56,0
1,note_on,72,0,240
1,note_on,70,63,0
1,note_on,79,65,5
1,note_on,58,32,115
1,note_on,58,0,120
1,note_on,70,0,0
1,note_on,69,54,0
1,note_on,69,0,240
1,note_on,67,48,0
1,note_on,58,37,120
1,note_on,67,0,120
1,note_on,65,44,0
1,note_on,77,52,0
1,note_on,79,0,5
1,note_on,77,0,235
1,note_on,65,0,0
1,note_on,64,47,0
1,note_on,76,56,0
1,note_on,76,0,120
1,note_on,77,44,0
1,note_on,77,0,60
1,note_on,76,35,0
1,note_on,76,0,60
1,note_on,64,0,0
1,note_on,62,45,0
1,note_on,74,53,2
1,note_on,62,0,118
1,note_on,72,48,1
1,note_on,60,40,1
1,note_on,74,0,0
1,note_on,72,0,116
1,note_on,58,0,2
1,note_on,72,53,0
1,note_on,60,0,2
1,note_on,60,32,118
1,note_on,60,0,120
1,note_on,72,0,0
1,note_on,70,53,0
1,note_on,70,0,240
1,note_on,69,49,0
1,note_on,77,58,5
1,note_on,57,32,115
1,note_on,57,0,120
1,note_on,69,0,0
1,note_on,67,54,0
1,note_on,67,0,240
1,note_on,65,48,0
1,note_on,57,37,120
1,note_on,65,0,120
1,note_on,76,52,0
1,note_on,64,44,0
1,note_on,77,0,5
1,note_on,64,0,235
1,note_on,76,0,0
1,note_on,62,47,0
1,note_on,74,56,0
1,note_on,74,0,120
1,note_on,76,43,0
1,note_on,76,0,30
1,note_on,74,44,0
1,note_on,74,0,30
1,note_on,73,45,0
1,note_on,73,0,30
1,note_on,74,46,0
1,note_on,76,54,28
1,note_on,74,0,2
1,note_on,62,0,0
1,note_on,64,45,2
1,note_on,76,0,116
1,note_on,65,46,3
1,note_on,64,0,1
1,note_on,77,55,0
1,note_on,77,0,116
1,note_on,57,0,2
1,note_on,77,61,0
1,note_on,65,0,1
1,note_on,65,37,119
1,note_on,65,0,120
1,note_on,77,0,0
1,note_on,76,53,0
1,note_on,76,0,240
1,note_on,74,58,0
1,note_on,65,30,120
1,note_on,65,0,120
1,note_on,74,0,120
1,note_on,72,52,0
1,note_on,72,0,120
1,note_on,72,58,0
1,note_on,60,37,120
1,note_on,60,0,120
1,note_on,72,0,0
1,note_on,70,53,0
1,note_on,70,0,240
1,note_on,69,58,0
1,note_on,60,31,120
1,note_on,60,0,120
1,note_on,69,0,120
1,note_on,67,52,0
1,note_on,67,0,120
1,note_on,67,43,0
1,note_on,58,37,120
1,note_on,58,0,480
1,note_on,58,37,0
1,note_on,58,0,360
1,note_on,67,0,0
1,note_on,65,43,0
1,note_on,57,31,120
1,note_on,65,0,120
1,note_on,63,43,0
1,note_on,63,0,240
1,note_on,57,0,0
1,note_on,62,47,0
1,note_on,62,0,240
1,note_on,61,40,0
1,note_on,61,0,480
1,note_on,62,43,0
1,note_on,62,0,240
1,note_on,60,43,479
1,note_on,62,46,237
1,note_on,60,0,3
1,note_on,62,0,237
1,note_on,63,49,11
1,note_on,65,56,238
1,note_on,63,0,2
1,note_on,65,0,238
1,note_on,67,67,20
1,note_on,65,59,215
1,note_on,65,0,240
1,note_on,63,56,0
1,note_on,63,0,240
1,note_on,62,50,0
1,note_on,67,0,239
1,note_on,62,0,1
1,note_on,67,59,0
1,note_on,67,0,480
1,note_on,69,55,5
1,note_on,71,59,238
1,note_on,69,0,2
1,note_on,63,60,175
1,note_on,71,0,63
1,note_on,75,69,2
1,note_on,75,0,1195
1,note_on,63,0,0
1,note_on,74,51,0
1,note_on,74,0,336
1,note_on,72,55,0
1,note_on,72,0,96
1,note_on,70,53,0
1,note_on,70,0,96
1,note_on,69,51,0
1,note_on,69,0,96
1,note_on,67,50,0
1,note_on,63,59,89
1,note_on,67,0,7
1,note_on,65,59,10
1,note_on,63,0,223
1,note_on,62,53,4
1,note_on,62,0,240
1,note_on,60,49,8
1,note_on,58,48,229
1,note_on,60,0,11
1,note_on,58,0,229
1,note_on,65,0,582
1,note_on,67,42,0
1,note_on,67,0,96
1,note_on,69,46,0
1,note_on,69,0,96
1,note_on,70,50,0
1,note_on,70,0,96
1,note_on,72,54,0
1,note_on,72,0,96
1,note_on,74,63,20
1,note_on,62,32,100
1,note_on,62,0,120
1,note_on,74,0,0
1,note_on,72,56,0
1,note_on,72,0,240
1,note_on,70,63,0
1,note_on,79,63,5
1,note_on,58,32,115
1,note_on,58,0,120
1,note_on,70,0,0
1,note_on,69,54,0
1,note_on,69,0,240
1,note_on,67,48,0
1,note_on,58,37,120
1,note_on,67,0,120
1,note_on,65,44,0
1,note_on,79,0,1
1,note_on,77,52,3
1,note_on,65,0,236
1,note_on,64,47,0
1,note_on,76,56,0
1,note_on,77,0,4
1,note_on,76,0,116
1,note_on,77,39,0
1,note_on,77,0,60
1,note_on,76,36,0
1,note_on,74,53,56
1,note_on,76,0,4
1,note_on,64,0,0
1,note_on,62,45,1
1,note_on,74,0,115
1,note_on,62,0,5
1,note_on,60,40,0
1,note_on,72,48,6
1,note_on,72,0,112
1,note_on,58,0,1
1,note_on,72,53,0
1,note_on,60,0,1
1,note_on,60,32,119
1,note_on,60,0,120
1,note_on,72,0,0
1,note_on,70,53,0
1,note_on,70,0,240
1,note_on,69,49,0
1,note_on,77,58,4
1,note_on,57,32,116
1,note_on,57,0,120
1,note_on,69,0,0
1,note_on,67,54,0
1,note_on,67,0,240
1,note_on,65,48,0
1,note_on,57,37,120
1,note_on,65,0,120
1,note_on,77,0,0
1,note_on,64,44,0
1,note_on,76,52,0
1,note_on,76,0,240
1,note_on,64,0,0
1,note_on,74,56,0
1,note_on,62,47,0
1,note_on,74,0,120
1,note_on,76,43,0
1,note_on,76,0,30
1,note_on,74,44,0
1,note_on,74,0,30
1,note_on,73,45,0
1,note_on,73,0,30
1,note_on,74,46,0
1,note_on,76,54,25
1,note_on,74,0,5
1,note_on,62,0,0
1,note_on,64,45,1
1,note_on,76,0,114
1,note_on,77,55,4
1,note_on,64,0,2
1,note_on,65,46,3
1,note_on,77,0,115
1,note_on,57,0,1
1,note_on,77,61,0
1,note_on,65,0,4
1,note_on,65,37,116
1,note_on,65,0,120
1,note_on,77,0,0
1,note_on,76,53,0
1,note_on,76,0,240
1,note_on,74,58,0
1,note_on,65,30,120
1,note_on,65,0,120
1,note_on,74,0,120
1,note_on,72,52,0
1,note_on,72,0,120
1,note_on,72,58,0
1,note_on,60,37,120
1,note_on,60,0,120
1,note_on,72,0,0
1,note_on,70,53,0
1,note_on,70,0,240
1,note_on,69,58,0
1,note_on,60,31,120
1,note_on,60,0,120
1,note_on,69,0,120
1,note_on,67,52,0
1,note_on,67,0,120
1,note_on,67,43,0
1,note_on,58,37,120
1,note_on,58,0,480
1,note_on,58,37,0
1,note_on,58,0,360
1,note_on,67,0,0
1,note_on,65,43,0
1,note_on,57,31,120
1,note_on,57,0,360
1,note_on,65,0,0
1,note_on,65,43,475
1,note_on,63,30,125
1,note_on,65,0,115
1,note_on,67,43,1
1,note_on,63,0,4
1,note_on,69,43,233
1,note_on,67,0,3
1,note_on,63,36,124
1,note_on,69,0,113
1,note_on,63,0,7
1,note_on,70,43,4
1,note_on,72,43,237
1,note_on,70,0,3
1,note_on,63,31,116
1,note_on,74,46,119
1,note_on,63,0,1
1,note_on,72,0,1
1,note_on,74,0,238
1,note_on,75,49,2
1,note_on,63,31,119
1,note_on,77,56,117
1,note_on,63,0,3
1,note_on,75,0,1
1,note_on,77,0,236
1,note_on,78,62,13
1,note_on,63,35,110
1,note_on,63,0,120
1,note_on,77,59,3
1,note_on,78,0,7
1,note_on,75,56,225
1,note_on,77,0,8
1,note_on,63,32,117
1,note_on,75,0,115
1,note_on,73,50,3
1,note_on,63,0,2
1,note_on,73,0,238
1,note_on,72,43,3
1,note_on,63,30,119
1,note_on,63,0,120
1,note_on,72,0,1
1,note_on,70,41,3
1,note_on,69,43,239
1,note_on,70,0,1
1,note_on,63,30,116
1,note_on,63,0,120
1,note_on,69,0,3
1,note_on,70,40,5
1,note_on,65,36,232
1,note_on,69,36,7
1,note_on,70,0,1
1,note_on,63,25,112
1,note_on,63,0,120
1,note_on,65,0,0
1,note_on,67,36,2
1,note_on,69,0,5
1,note_on,69,36,226
1,note_on,67,0,9
1,note_on,63,30,118
1,note_on,69,0,113
1,note_on,70,36,7
1,note_on,63,0,0
1,note_on,72,36,237
1,note_on,70,0,3
1,note_on,63,26,120
1,note_on,73,39,113
1,note_on,72,0,4
1,note_on,63,0,3
1,note_on,73,0,233
1,note_on,75,41,8
1,note_on,63,26,119
1,note_on,77,47,116
1,note_on,63,0,4
1,note_on,75,0,1
1,note_on,77,0,235
1,note_on,78,52,14
1,note_on,63,29,110
1,note_on,63,0,120
1,note_on,77,50,0
1,note_on,78,0,10
1,note_on,77,0,230
1,note_on,75,47,0
1,note_on,63,27,120
1,note_on,63,0,120
1,note_on,75,0,120
1,note_on,73,42,0
1,note_on,73,0,120
1,note_on,73,36,10
1,note_on,63,25,110
1,note_on,63,0,120
1,note_on,72,34,0
1,note_on,73,0,7
1,note_on,72,0,233
1,note_on,70,36,0
1,note_on,70,0,60
1,note_on,72,36,0
1,note_on,72,0,60
1,note_on,70,41,0
1,note_on,60,41,0
1,note_on,60,0,120
1,note_on,70,0,120
1,note_on,68,34,0
1,note_on,68,0,120
1,note_on,73,36,10
1,note_on,61,36,110
1,note_on,61,0,480
1,note_on,61,36,0
1,note_on,61,0,480
1,note_on,61,36,0
1,note_on,73,0,360
1,note_on,61,0,120
1,note_on,61,36,0
1,note_on,61,0,120
1,note_on,61,44,0
1,note_on,61,0,360
1,note_on,61,36,0
1,note_on,61,0,480
1,note_on,61,36,0
1,note_on,61,0,480
1,note_on,61,36,0
1,note_on,61,0,480
1,note_on,61,36,0
1,note_on,61,0,240
1,note_on,61,36,0
1,note_on,58,30,240
1,note_on,58,0,120
1,note_on,61,0,0
1,note_on,63,29,0
1,note_on,63,0,240
1,note_on,65,37,0
1,note_on,58,30,120
1,note_on,58,0,120
1,note_on,65,0,0
1,note_on,66,39,0
1,note_on,66,0,240
1,note_on,68,41,0
1,note_on,58,36,120
1,note_on,58,0,120
1,note_on,68,0,0
1,note_on,70,43,0
1,note_on,70,0,240
1,note_on,71,46,0
1,note_on,58,30,120
1,note_on,58,0,120
1,note_on,71,0,0
1,note_on,73,48,0
1,note_on,73,0,240
1,note_on,74,54,10
1,note_on,59,35,110
1,note_on,59,0,120
1,note_on,74,0,0
1,note_on,71,47,0
1,note_on,71,0,240
1,note_on,68,45,0
1,note_on,59,30,120
1,note_on,59,0,120
1,note_on,68,0,0
1,note_on,65,41,0
1,note_on,65,0,240
1,note_on,62,46,0
1,note_on,56,37,120
1,note_on,56,0,120
1,note_on,59,41,0
1,note_on,59,0,240
1,note_on,62,0,0
1,note_on,56,40,0
1,note_on,56,0,120
1,note_on,53,38,0
1,note_on,53,0,120
1,note_on,50,36,0
1,note_on,50,0,120
1,note_on,47,34,0
1,note_on,47,0,120
1,note_on,61,36,0
1,note_on,58,30,120
1,note_on,58,0,120
1,note_on,61,0,0
1,note_on,63,29,0
1,note_on,63,0,240
1,note_on,65,37,0
1,note_on,58,30,120
1,note_on,58,0,120
1,note_on,65,0,0
1,note_on,66,39,0
1,note_on,66,0,240
1,note_on,68,41,0
1,note_on,58,36,120
1,note_on,58,0,120
1,note_on,68,0,0
1,note_on,70,43,0
1,note_on,70,0,240
1,note_on,71,44,0
1,note_on,58,30,120
1,note_on,58,0,120
1,note_on,71,0,0
1,note_on,72,47,0
1,note_on,72,0,240
1,note_on,73,54,5
1,note_on,58,35,115
1,note_on,58,0,120
1,note_on,73,0,0
1,note_on,70,41,0
1,note_on,70,0,240
1,note_on,67,45,0
1,note_on,58,30,120
1,note_on,58,0,120
1,note_on,67,0,0
1,note_on,64,41,0
1,note_on,64,0,240
1,note_on,61,43,0
1,note_on,55,33,120
1,note_on,55,0,120
1,note_on,61,0,0
1,note_on,58,41,0
1,note_on,58,0,240
1,note_on,57,46,0
1,note_on,53,32,160
1,note_on,51,27,160
1,note_on,51,0,100
1,note_on,53,0,0
1,note_on,57,0,0
1,note_on,58,36,0
1,note_on,58,0,60
1,note_on,58,36,0
1,note_on,53,34,0
1,note_on,53,0,240
1,note_on,58,0,0
1,note_on,55,35,0
1,note_on,55,0,240
1,note_on,57,36,0
1,note_on,57,0,240
1,note_on,58,37,0
1,note_on,58,0,240
1,note_on,60,38,0
1,note_on,60,0,240
1,note_on,62,42,0
1,note_on,62,0,240
1,note_on,63,46,0
1,note_on,63,0,240
1,note_on,65,54,0
1,note_on,65,0,240
1,note_on,67,65,19
1,note_on,65,59,221
1,note_on,65,0,240
1,note_on,63,56,0
1,note_on,63,0,240
1,note_on,62,50,0
1,note_on,62,0,240
1,note_on,67,0,0
1,note_on,67,59,0
1,note_on,69,55,476
1,note_on,67,0,4
1,note_on,69,0,236
1,note_on,71,59,1
1,note_on,63,60,183
1,note_on,71,0,57
1,note_on,75,69,9
1,note_on,63,0,1194
1,note_on,74,51,0
1,note_on,75,0,6
1,note_on,74,0,330
1,note_on,72,55,0
1,note_on,72,0,96
1,note_on,70,53,0
1,note_on,70,0,96
1,note_on,69,51,0
1,note_on,69,0,96
1,note_on,67,50,0
1,note_on,67,0,96
1,note_on,63,59,0
1,note_on,65,59,10
1,note_on,63,0,230
1,note_on,62,53,0
1,note_on,62,0,240
1,note_on,60,49,0
1,note_on,60,0,240
1,note_on,58,48,0
1,note_on,58,0,240
1,note_on,65,0,576
1,note_on,67,42,0
1,note_on,67,0,96
1,note_on,69,46,0
1,note_on,69,0,96
1,note_on,70,50,0
1,note_on,70,0,96
1,note_on,72,54,0
1,note_on,72,0,96
1,note_on,74,63,0
1,note_on,62,44,120
1,note_on,62,0,120
1,note_on,74,0,0
1,note_on,72,56,0
1,note_on,72,0,240
1,note_on,70,63,0
1,note_on,79,63,10
1,note_on,58,42,110
1,note_on,58,0,120
1,note_on,70,0,0
1,note_on,69,54,0
1,note_on,69,0,240
1,note_on,67,48,0
1,note_on,58,37,120
1,note_on,67,0,120
1,note_on,79,0,0
1,note_on,65,44,0
1,note_on,77,52,5
1,note_on,77,0,235
1,note_on,65,0,0
1,note_on,76,56,0
1,note_on,64,47,0
1,note_on,76,0,120
1,note_on,77,44,0
1,note_on,77,0,60
1,note_on,76,37,0
1,note_on,76,0,60
1,note_on,64,0,0
1,note_on,62,45,2
1,note_on,74,53,4
1,note_on,72,48,109
1,note_on,62,0,7
1,note_on,60,40,3
1,note_on,74,0,1
1,note_on,72,0,109
1,note_on,58,0,5
1,note_on,72,53,0
1,note_on,60,0,5
1,note_on,60,32,115
1,note_on,60,0,120
1,note_on,72,0,0
1,note_on,70,53,0
1,note_on,70,0,240
1,note_on,69,49,0
1,note_on,77,58,7
1,note_on,57,32,113
1,note_on,57,0,120
1,note_on,69,0,0
1,note_on,67,54,0
1,note_on,67,0,240
1,note_on,65,48,0
1,note_on,57,37,120
1,note_on,65,0,120
1,note_on,77,0,0
1,note_on,64,44,0
1,note_on,76,52,0
1,note_on,76,0,240
1,note_on,64,0,0
1,note_on,62,47,0
1,note_on,74,56,0
1,note_on,74,0,120
1,note_on,76,43,0
1,note_on,76,0,30
1,note_on,74,44,0
1,note_on,74,0,30
1,note_on,73,45,0
1,note_on,73,0,30
1,note_on,74,46,0
1,note_on,64,45,28
1,note_on,74,0,2
1,note_on,62,0,0
1,note_on,76,54,2
1,note_on,65,46,113
1,note_on,64,0,3
1,note_on,77,55,2
1,note_on,76,0,2
1,note_on,65,0,113
1,note_on,57,0,5
1,note_on,77,0,0
1,note_on,77,61,0
1,note_on,65,37,120
1,note_on,65,0,120
1,note_on,77,0,0
1,note_on,76,53,0
1,note_on,76,0,240
1,note_on,74,58,0
1,note_on,65,30,120
1,note_on,65,0,120
1,note_on,74,0,120
1,note_on,72,52,0
1,note_on,72,0,120
1,note_on,72,58,0
1,note_on,60,37,120
1,note_on,60,0,120
1,note_on,72,0,0
1,note_on,70,53,0
1,note_on,70,0,240
1,note_on,69,58,0
1,note_on,60,31,120
1,note_on,60,0,120
1,note_on,69,0,120
1,note_on,67,52,0
1,note_on,67,0,120
1,note_on,67,43,0
1,note_on,58,37,120
1,note_on,58,0,480
1,note_on,58,37,0
1,note_on,67,0,360
1,note_on,65,43,0
1,note_on,58,0,120
1,note_on,57,31,0
1,note_on,57,0,360
1,note_on,65,0,0
1,note_on,65,43,487
1,note_on,63,30,113
1,note_on,67,43,113
1,note_on,63,0,7
1,note_on,65,0,7
1,note_on,67,0,226
1,note_on,69,43,5
1,note_on,63,36,122
1,note_on,69,0,118
1,note_on,63,0,2
1,note_on,70,43,6
1,note_on,72,43,231
1,note_on,70,0,9
1,note_on,63,31,114
1,note_on,74,46,116
1,note_on,72,0,1
1,note_on,63,0,3
1,note_on,74,0,236
1,note_on,75,49,12
1,note_on,63,31,112
1,note_on,63,0,120
1,note_on,77,56,7
1,note_on,75,0,1
1,note_on,77,0,239
1,note_on,78,62,2
1,note_on,63,35,111
1,note_on,63,0,120
1,note_on,78,0,0
1,note_on,77,59,0
1,note_on,77,0,240
1,note_on,75,56,5
1,note_on,63,32,115
1,note_on,73,50,115
1,note_on,63,0,5
1,note_on,75,0,5
1,note_on,73,0,230
1,note_on,72,43,6
1,note_on,63,30,119
1,note_on,63,0,120
1,note_on,72,0,1
1,note_on,70,41,5
1,note_on,69,43,239
1,note_on,70,0,1
1,note_on,63,30,114
1,note_on,70,40,119
1,note_on,63,0,1
1,note_on,69,0,5
1,note_on,69,36,229
1,note_on,70,0,5
1,note_on,65,36,1
1,note_on,63,25,120
1,note_on,69,0,114
1,note_on,63,0,6
1,note_on,65,0,0
1,note_on,67,36,7
1,note_on,69,36,233
1,note_on,67,0,7
1,note_on,63,30,113
1,note_on,70,36,118
1,note_on,63,0,2
1,note_on,69,0,0
1,note_on,70,0,238
1,note_on,72,36,9
1,note_on,63,26,113
1,note_on,73,39,113
1,note_on,63,0,7
1,note_on,72,0,7
1,note_on,73,0,226
1,note_on,75,41,13
1,note_on,63,26,114
1,note_on,77,47,115
1,note_on,63,0,5
1,note_on,75,0,6
1,note_on,77,0,229
1,note_on,78,52,15
1,note_on,63,29,110
1,note_on,63,0,120
1,note_on,77,50,0
1,note_on,78,0,10
1,note_on,77,0,230
1,note_on,75,47,0
1,note_on,63,27,120
1,note_on,63,0,120
1,note_on,75,0,120
1,note_on,73,42,0
1,note_on,73,0,120
1,note_on,73,36,0
1,note_on,63,25,120
1,note_on,63,0,120
1,note_on,73,0,0
1,note_on,72,34,0
1,note_on,72,0,240
1,note_on,70,36,0
1,note_on,70,0,60
1,note_on,72,36,0
1,note_on,72,0,60
1,note_on,70,36,0
1,note_on,60,25,0
1,note_on,60,0,120
1,note_on,70,0,120
1,note_on,68,34,0
1,note_on,68,0,120
1,note_on,73,36,0
1,note_on,61,36,120
1,note_on,61,0,480
1,note_on,61,36,0
1,note_on,61,0,480
1,note_on,61,36,0
1,note_on,73,0,360
1,note_on,61,0,120
1,note_on,61,36,0
1,note_on,61,0,120
1,note_on,61,43,0
1,note_on,61,0,360
1,note_on,61,36,0
1,note_on,61,0,480
1,note_on,61,36,0
1,note_on,61,0,480
1,note_on,61,36,0
1,note_on,61,0,480
1,note_on,61,36,0
1,note_on,61,0,240
1,note_on,61,36,0
1,note_on,58,30,240
1,note_on,58,0,120
1,note_on,61,0,0
1,note_on,63,29,0
1,note_on,63,0,240
1,note_on,65,37,0
1,note_on,58,30,120
1,note_on,58,0,120
1,note_on,65,0,0
1,note_on,66,39,0
1,note_on,66,0,240
1,note_on,68,41,0
1,note_on,58,36,120
1,note_on,58,0,120
1,note_on,68,0,0
1,note_on,70,43,0
1,note_on,70,0,240
1,note_on,71,44,0
1,note_on,58,30,120
1,note_on,58,0,120
1,note_on,71,0,0
1,note_on,73,47,0
1,note_on,73,0,240
1,note_on,74,54,10
1,note_on,59,35,110
1,note_on,59,0,120
1,note_on,71,41,0
1,note_on,74,0,10
1,note_on,71,0,230
1,note_on,68,45,0
1,note_on,59,30,120
1,note_on,59,0,120
1,note_on,68,0,0
1,note_on,65,41,0
1,note_on,65,0,240
1,note_on,62,46,0
1,note_on,56,37,120
1,note_on,56,0,120
1,note_on,59,41,0
1,note_on,59,0,240
1,note_on,62,0,0
1,note_on,56,40,0
1,note_on,56,0,120
1,note_on,53,38,0
1,note_on,53,0,120
1,note_on,50,36,0
1,note_on,50,0,120
1,note_on,47,34,0
1,note_on,47,0,120
1,note_on,61,36,0
1,note_on,58,30,120
1,note_on,58,0,120
1,note_on,61,0,0
1,note_on,63,29,0
1,note_on,63,0,240
1,note_on,65,37,0
1,note_on,58,30,120
1,note_on,58,0,120
1,note_on,65,0,0
1,note_on,66,39,0
1,note_on,66,0,240
1,note_on,68,41,0
1,note_on,58,36,120
1,note_on,58,0,120
1,note_on,68,0,0
1,note_on,70,43,0
1,note_on,70,0,240
1,note_on,71,44,0
1,note_on,58,30,120
1,note_on,58,0,120
1,note_on,71,0,0
1,note_on,72,43,0
1,note_on,72,0,240
1,note_on,73,50,9
1,note_on,58,35,111
1,note_on,58,0,120
1,note_on,70,41,0
1,note_on,73,0,9
1,note_on,70,0,231
1,note_on,67,45,0
1,note_on,58,30,120
1,note_on,58,0,120
1,note_on,67,0,0
1,note_on,64,41,0
1,note_on,64,0,240
1,note_on,61,43,0
1,note_on,55,33,120
1,note_on,55,0,120
1,note_on,61,0,0
1,note_on,58,41,0
1,note_on,58,0,240
1,note_on,57,46,0
1,note_on,53,32,160
1,note_on,51,27,160
1,note_on,51,0,100
1,note_on,53,0,0
1,note_on,57,0,0
1,note_on,58,36,0
1,note_on,58,0,60
1,note_on,53,34,0
1,note_on,58,36,0
1,note_on,55,35,240
1,note_on,58,0,0
1,note_on,53,0,0
1,note_on,57,36,234
1,note_on,55,0,6
1,note_on,57,0,234
1,note_on,58,37,5
1,note_on,58,0,240
1,note_on,60,38,4
1,note_on,62,42,239
1,note_on,60,0,1
1,note_on,63,46,230
1,note_on,62,0,9
1,note_on,63,0,231
1,note_on,65,54,12
1,note_on,65,0,240
1,note_on,67,62,5
1,note_on,65,59,230
1,note_on,65,0,240
1,note_on,63,56,0
1,note_on,63,0,240
1,note_on,62,50,0
1,note_on,62,0,240
1,note_on,67,0,0
1,note_on,67,59,0
1,note_on,67,0,480
1,note_on,69,55,0
1,note_on,69,0,240
1,note_on,71,59,0
1,note_on,63,60,180
1,note_on,71,0,60
1,note_on,75,69,0
1,note_on,75,0,1200
1,note_on,63,0,0
1,note_on,74,51,0
1,note_on,74,0,336
1,note_on,72,55,0
1,note_on,72,0,96
1,note_on,70,53,0
1,note_on,70,0,96
1,note_on,69,51,0
1,note_on,69,0,96
1,note_on,67,50,0
1,note_on,67,0,96
1,note_on,65,59,0
1,note_on,63,59,0
1,note_on,63,0,240
1,note_on,62,53,0
1,note_on,62,0,240
1,note_on,60,49,0
1,note_on,60,0,240
1,note_on,58,48,0
1,note_on,58,0,240
1,note_on,65,0,576
1,note_on,67,42,0
1,note_on,67,0,96
1,note_on,69,46,0
1,note_on,69,0,96
1,note_on,70,50,0
1,note_on,70,0,96
1,note_on,72,54,0
1,note_on,72,0,96
1,note_on,74,59,0
1,note_on,62,32,120
1,note_on,62,0,120
1,note_on,74,0,0
1,note_on,72,55,0
1,note_on,72,0,240
1,note_on,70,65,0
1,note_on,62,37,120
1,note_on,62,0,120
1,note_on,70,0,0
1,note_on,69,54,0
1,note_on,69,0,240
1,note_on,79,69,10
1,note_on,79,0,230
1,note_on,77,56,0
1,note_on,77,0,240
1,note_on,75,64,0
1,note_on,65,32,120
1,note_on,65,0,120
1,note_on,75,0,0
1,note_on,74,54,0
1,note_on,74,0,240
1,note_on,72,59,0
1,note_on,60,32,120
1,note_on,60,0,120
1,note_on,72,0,0
1,note_on,70,51,0
1,note_on,70,0,240
1,note_on,68,57,0
1,note_on,60,32,120
1,note_on,60,0,120
1,note_on,68,0,0
1,note_on,67,52,0
1,note_on,67,0,240
1,note_on,77,65,10
1,note_on,77,0,230
1,note_on,75,56,0
1,note_on,75,0,240
1,note_on,74,64,0
1,note_on,63,32,120
1,note_on,63,0,120
1,note_on,74,0,0
1,note_on,72,54,0
1,note_on,72,0,240
1,note_on,70,59,0
1,note_on,62,32,120
1,note_on,62,0,120
1,note_on,70,0,0
1,note_on,68,51,0
1,note_on,68,0,240
1,note_on,67,57,0
1,note_on,56,32,120
1,note_on,56,0,120
1,note_on,67,0,0
1,note_on,66,52,0
1,note_on,66,0,240
1,note_on,67,59,0
1,note_on,55,32,120
1,note_on,55,0,120
1,note_on,67,0,0
1,note_on,63,51,0
1,note_on,63,0,240
1,note_on,62,53,0
1,note_on,55,32,120
1,note_on,55,0,120
1,note_on,62,0,0
1,note_on,61,48,0
1,note_on,61,0,240
1,note_on,62,53,0
1,note_on,62,0,160
1,note_on,57,41,0
1,note_on,57,0,160
1,note_on,55,41,0
1,note_on,55,0,160
1,note_on,54,48,0
1,note_on,54,0,240
1,note_on,55,34,0
1,note_on,52,28,0
1,note_on,52,0,240
1,note_on,55,0,0
1,note_on,54,40,0
1,note_on,57,48,0
1,note_on,62,48,0
1,note_on,62,0,480
1,note_on,57,0,0
1,note_on,54,0,0
1,note_on,50,46,240
1,note_on,50,0,60
1,note_on,55,50,180
1,note_on,55,0,80
1,note_on,50,35,0
1,note_on,50,0,80
1,note_on,57,35,0
1,note_on,57,0,80
1,note_on,58,50,0
1,note_on,58,0,60
1,note_on,57,50,180
1,note_on,57,0,80
1,note_on,50,38,0
1,note_on,50,0,80
1,note_on,58,39,0
1,note_on,58,0,80
1,note_on,60,50,0
1,note_on,60,0,60
1,note_on,58,50,180
1,note_on,58,0,80
1,note_on,50,36,0
1,note_on,50,0,80
1,note_on,60,36,0
1,note_on,60,0,80
1,note_on,62,50,0
1,note_on,62,0,60
1,note_on,55,50,180
1,note_on,55,0,80
1,note_on,50,37,0
1,note_on,50,0,80
1,note_on,57,37,0
1,note_on,57,0,80
1,note_on,58,50,0
1,note_on,58,0,60
1,note_on,57,50,180
1,note_on,57,0,80
1,note_on,51,38,0
1,note_on,51,0,80
1,note_on,58,38,0
1,note_on,58,0,80
1,note_on,60,50,0
1,note_on,60,0,60
1,note_on,54,50,180
1,note_on,54,0,80
1,note_on,48,37,0
1,note_on,48,0,80
1,note_on,55,37,0
1,note_on,55,0,80
1,note_on,57,50,0
1,note_on,57,0,60
1,note_on,55,50,180
1,note_on,55,0,80
1,note_on,50,39,0
1,note_on,50,0,80
1,note_on,57,39,0
1,note_on,57,0,80
1,note_on,58,50,0
1,note_on,58,0,60
1,note_on,57,50,180
1,note_on,57,0,120
1,note_on,54,44,60
1,note_on,54,0,60
1,note_on,50,58,0
1,note_on,50,0,60
1,note_on,55,50,180
1,note_on,55,0,80
1,note_on,50,37,0
1,note_on,50,0,80
1,note_on,57,37,0
1,note_on,57,0,80
1,note_on,58,50,0
1,note_on,58,0,60
1,note_on,57,50,180
1,note_on,57,0,80
1,note_on,50,39,0
1,note_on,50,0,80
1,note_on,58,39,0
1,note_on,58,0,80
1,note_on,60,50,0
1,note_on,60,0,60
1,note_on,58,50,180
1,note_on,58,0,80
1,note_on,50,37,0
1,note_on,50,0,80
1,note_on,60,37,0
1,note_on,60,0,80
1,note_on,62,50,0
1,note_on,62,0,60
1,note_on,55,50,180
1,note_on,55,0,80
1,note_on,50,39,0
1,note_on,50,0,80
1,note_on,57,39,0
1,note_on,57,0,80
1,note_on,58,50,0
1,note_on,58,0,60
1,note_on,57,50,180
1,note_on,57,0,80
1,note_on,51,39,0
1,note_on,51,0,80
1,note_on,58,39,0
1,note_on,58,0,80
1,note_on,60,50,0
1,note_on,60,0,60
1,note_on,59,50,180
1,note_on,59,0,80
1,note_on,50,38,0
1,note_on,50,0,80
1,note_on,60,38,0
1,note_on,60,0,80
1,note_on,62,50,0
1,note_on,62,0,60
1,note_on,60,50,180
1,note_on,60,0,80
1,note_on,55,42,0
1,note_on,55,0,80
1,note_on,62,44,0
1,note_on,62,0,80
1,note_on,63,50,0
1,note_on,63,0,60
1,note_on,59,54,180
1,note_on,59,0,80
1,note_on,53,50,0
1,note_on,53,0,80
1,note_on,60,50,0
1,note_on,60,0,80
1,note_on,62,56,0
1,note_on,62,0,60
1,note_on,60,59,180
1,note_on,60,0,80
1,note_on,55,51,0
1,note_on,55,0,80
1,note_on,62,51,0
1,note_on,62,0,80
1,note_on,63,59,0
1,note_on,63,0,60
1,note_on,63,63,180
1,note_on,63,0,80
1,note_on,55,53,0
1,note_on,55,0,80
1,note_on,65,54,0
1,note_on,65,0,80
1,note_on,67,61,0
1,note_on,67,0,60
1,note_on,66,70,180
1,note_on,66,0,80
1,note_on,54,57,0
1,note_on,54,0,80
1,note_on,67,57,0
1,note_on,67,0,80
1,note_on,69,71,0
1,note_on,69,0,60
1,note_on,62,67,180
1,note_on,62,0,60
1,note_on,62,73,180
1,note_on,62,0,60
1,note_on,67,64,180
1,note_on,67,0,80
1,note_on,62,49,0
1,note_on,62,0,80
1,note_on,69,49,0
1,note_on,69,0,80
1,note_on,70,64,0
1,note_on,70,0,60
1,note_on,69,64,180
1,note_on,69,0,80
1,note_on,62,50,0
1,note_on,62,0,80
1,note_on,70,50,0
1,note_on,70,0,80
1,note_on,72,64,0
1,note_on,72,0,60
1,note_on,70,64,180
1,note_on,70,0,80
1,note_on,62,49,0
1,note_on,62,0,80
1,note_on,72,49,0
1,note_on,72,0,80
1,note_on,74,64,0
1,note_on,74,0,60
1,note_on,67,64,180
1,note_on,67,0,80
1,note_on,62,51,0
1,note_on,62,0,80
1,note_on,69,51,0
1,note_on,69,0,80
1,note_on,70,64,0
1,note_on,70,0,60
1,note_on,69,64,180
1,note_on,69,0,80
1,note_on,63,50,0
1,note_on,63,0,80
1,note_on,70,50,0
1,note_on,70,0,80
1,note_on,72,64,0
1,note_on,72,0,60
1,note_on,66,64,180
1,note_on,66,0,80
1,note_on,60,50,0
1,note_on,60,0,80
1,note_on,67,50,0
1,note_on,67,0,80
1,note_on,69,64,0
1,note_on,69,0,60
1,note_on,67,64,180
1,note_on,67,0,80
1,note_on,62,51,0
1,note_on,62,0,80
1,note_on,69,51,0
1,note_on,69,0,80
1,note_on,70,64,0
1,note_on,70,0,60
1,note_on,69,64,180
1,note_on,69,0,120
1,note_on,66,52,60
1,note_on,66,0,60
1,note_on,62,62,0
1,note_on,62,0,60
1,note_on,67,64,180
1,note_on,67,0,80
1,note_on,62,49,0
1,note_on,62,0,80
1,note_on,69,49,0
1,note_on,69,0,80
1,note_on,70,64,0
1,note_on,70,0,60
1,note_on,69,64,180
1,note_on,69,0,80
1,note_on,62,52,0
1,note_on,62,0,80
1,note_on,70,52,0
1,note_on,70,0,80
1,note_on,72,64,0
1,note_on,72,0,60
1,note_on,70,64,180
1,note_on,70,0,80
1,note_on,62,49,0
1,note_on,62,0,80
1,note_on,72,49,0
1,note_on,72,0,80
1,note_on,74,64,0
1,note_on,74,0,60
1,note_on,75,71,180
1,note_on,75,0,80
1,note_on,67,51,0
1,note_on,67,0,80
1,note_on,77,51,0
1,note_on,77,0,80
1,note_on,79,64,0
1,note_on,79,0,60
1,note_on,69,59,180
1,note_on,69,0,80
1,note_on,60,46,0
1,note_on,60,0,80
1,note_on,70,51,0
1,note_on,70,0,80
1,note_on,72,59,0
1,note_on,72,0,60
1,note_on,74,71,180
1,note_on,74,0,80
1,note_on,65,53,0
1,note_on,65,0,80
1,note_on,75,53,0
1,note_on,75,0,80
1,note_on,77,65,0
1,note_on,77,0,60
1,note_on,67,59,180
1,note_on,67,0,80
1,note_on,58,47,0
1,note_on,58,0,80
1,note_on,69,47,0
1,note_on,69,0,80
1,note_on,70,59,0
1,note_on,70,0,60
1,note_on,72,68,180
1,note_on,72,0,80
1,note_on,63,54,0
1,note_on,63,0,80
1,note_on,74,54,0
1,note_on,74,0,80
1,note_on,75,66,0
1,note_on,75,0,60
1,note_on,66,59,180
1,note_on,66,0,80
1,note_on,57,46,0
1,note_on,57,0,80
1,note_on,67,46,0
1,note_on,67,0,80
1,note_on,69,58,0
1,note_on,69,0,60
1,note_on,72,66,180
1,note_on,72,0,80
1,note_on,63,51,0
1,note_on,63,0,80
1,note_on,74,51,0
1,note_on,74,0,80
1,note_on,75,65,0
1,note_on,75,0,60
1,note_on,66,62,180
1,note_on,66,0,80
1,note_on,57,51,0
1,note_on,57,0,80
1,note_on,67,46,0
1,note_on,67,0,80
1,note_on,69,60,0
1,note_on,69,0,60
1,note_on,72,66,180
1,note_on,72,0,80
1,note_on,63,50,0
1,note_on,63,0,80
1,note_on,74,50,0
1,note_on,74,0,80
1,note_on,75,65,0
1,note_on,75,0,60
1,note_on,66,66,180
1,note_on,66,0,80
1,note_on,57,53,0
1,note_on,57,0,80
1,note_on,67,53,0
1,note_on,67,0,80
1,note_on,69,64,0
1,note_on,69,0,60
1,note_on,60,59,180
1,note_on,60,0,80
1,note_on,57,47,0
1,note_on,57,0,80
1,note_on,62,47,0
1,note_on,62,0,80
1,note_on,63,56,0
1,note_on,63,0,60
1,note_on,54,51,180
1,note_on,54,0,80
1,note_on,50,43,0
1,note_on,50,0,80
1,note_on,55,43,0
1,note_on,55,0,80
1,note_on,57,52,0
1,note_on,57,0,60
1,note_on,50,50,180
1,note_on,50,0,60
1,note_on,50,52,180
1,note_on,50,0,60
1,note_on,55,50,180
1,note_on,55,0,80
1,note_on,50,38,0
1,note_on,50,0,80
1,note_on,57,39,0
1,note_on,57,0,80
1,note_on,58,50,0
1,note_on,58,0,60
1,note_on,57,50,180
1,note_on,57,0,80
1,note_on,50,39,0
1,note_on,50,0,80
1,note_on,58,39,0
1,note_on,58,0,80
1,note_on,60,50,0
1,note_on,60,0,60
1,note_on,58,50,180
1,note_on,58,0,80
1,note_on,50,38,0
1,note_on,50,0,80
1,note_on,60,38,0
1,note_on,60,0,80
1,note_on,62,51,0
1,note_on,62,0,60
1,note_on,55,52,180
1,note_on,55,0,80
1,note_on,50,42,0
1,note_on,50,0,80
1,note_on,57,42,0
1,note_on,57,0,80
1,note_on,58,53,0
1,note_on,58,0,60
1,note_on,57,55,180
1,note_on,57,0,80
1,note_on,51,39,0
1,note_on,51,0,80
1,note_on,58,43,0
1,note_on,58,0,80
1,note_on,60,56,0
1,note_on,60,0,60
1,note_on,59,57,180
1,note_on,59,0,80
1,note_on,53,43,0
1,note_on,53,0,80
1,note_on,60,46,0
1,note_on,60,0,80
1,note_on,62,58,0
1,note_on,62,0,60
1,note_on,60,60,180
1,note_on,60,0,80
1,note_on,51,48,0
1,note_on,51,0,80
1,note_on,62,49,0
1,note_on,62,0,80
1,note_on,63,61,0
1,note_on,63,0,60
1,note_on,59,62,180
1,note_on,59,0,80
1,note_on,53,51,0
1,note_on,53,0,80
1,note_on,60,52,0
1,note_on,60,0,80
1,note_on,62,63,0
1,note_on,62,0,60
1,note_on,60,65,180
1,note_on,60,0,80
1,note_on,55,55,0
1,note_on,55,0,80
1,note_on,62,56,0
1,note_on,62,0,80
1,note_on,63,66,0
1,note_on,63,0,120
1,note_on,60,63,0
1,note_on,60,0,120
1,note_on,62,68,0
1,note_on,62,0,80
1,note_on,55,59,0
1,note_on,55,0,80
1,note_on,63,59,0
1,note_on,63,0,80
1,note_on,65,70,0
1,note_on,65,0,60
1,note_on,64,73,180
1,note_on,64,0,80
1,note_on,55,63,0
1,note_on,55,0,80
1,note_on,66,63,0
1,note_on,66,0,80
1,note_on,67,74,0
1,note_on,67,0,120
1,note_on,67,80,120
1,note_on,67,0,80
1,note_on,58,70,0
1,note_on,58,0,80
1,note_on,69,69,0
1,note_on,69,0,80
1,note_on,70,81,0
1,note_on,70,0,60
1,note_on,62,73,180
1,note_on,74,88,0
1,note_on,74,0,480
1,note_on,62,0,0
1,note_on,57,66,0
1,note_on,62,66,0
1,note_on,66,78,0
1,note_on,66,0,480
1,note_on,62,0,0
1,note_on,57,0,0
1,note_on,64,70,0
1,note_on,64,0,80
1,note_on,55,60,0
1,note_on,55,0,80
1,note_on,66,60,0
1,note_on,66,0,80
1,note_on,67,71,0
1,note_on,67,0,120
1,note_on,67,77,120
1,note_on,67,0,80
1,note_on,58,70,0
1,note_on,58,0,80
1,note_on,69,74,0
1,note_on,69,0,80
1,note_on,70,87,0
1,note_on,70,0,60
1,note_on,74,80,180
1,note_on,70,80,0
1,note_on,79,94,0
1,note_on,79,0,480
1,note_on,70,0,0
1,note_on,74,0,0
1,note_on,66,72,0
1,note_on,69,72,0
1,note_on,74,85,0
1,note_on,74,0,240
1,note_on,69,0,0
1,note_on,66,0,0
1,note_on,65,79,0
1,note_on,65,0,240
1,note_on,80,85,0
1,note_on,80,0,80
1,note_on,68,55,0
1,note_on,68,0,80
1,note_on,80,64,0
1,note_on,80,0,80
1,note_on,77,77,0
1,note_on,77,0,120
1,note_on,77,85,120
1,note_on,77,0,80
1,note_on,65,54,0
1,note_on,65,0,80
1,note_on,75,63,0
1,note_on,75,0,80
1,note_on,74,77,0
1,note_on,74,0,120
1,note_on,74,85,120
1,note_on,74,0,80
1,note_on,62,58,0
1,note_on,62,0,80
1,note_on,72,65,0
1,note_on,72,0,80
1,note_on,71,77,0
1,note_on,71,0,120
1,note_on,71,85,120
1,note_on,71,0,80
1,note_on,59,60,0
1,note_on,59,0,80
1,note_on,68,65,0
1,note_on,68,0,80
1,note_on,67,77,0
1,note_on,67,0,120
1,note_on,67,85,120
1,note_on,67,0,80
1,note_on,60,60,0
1,note_on,60,0,80
1,note_on,71,67,0
1,note_on,71,0,80
1,note_on,72,77,0
1,note_on,72,0,120
1,note_on,72,86,120
1,note_on,72,0,80
1,note_on,63,62,0
1,note_on,63,0,80
1,note_on,74,68,0
1,note_on,74,0,80
1,note_on,75,79,0
1,note_on,75,0,120
1,note_on,75,94,120
1,note_on,75,0,80
1,note_on,67,72,0
1,note_on,67,0,80
1,note_on,77,77,0
1,note_on,77,0,80
1,note_on,79,92,0
1,note_on,79,0,120
1,note_on,79,90,120
1,note_on,79,0,80
1,note_on,72,81,0
1,note_on,72,0,80
1,note_on,83,83,0
1,note_on,83,0,80
1,note_on,84,97,0
1,note_on,84,0,120
1,note_on,87,97,120
1,note_on,87,0,80
1,note_on,75,70,0
1,note_on,75,0,80
1,note_on,86,77,0
1,note_on,86,0,80
1,note_on,84,87,0
1,note_on,84,0,120
1,note_on,84,95,120
1,note_on,84,0,80
1,note_on,72,68,0
1,note_on,72,0,80
1,note_on,82,74,0
1,note_on,82,0,80
1,note_on,81,84,0
1,note_on,81,0,120
1,note_on,81,91,120
1,note_on,81,0,80
1,note_on,67,64,0
1,note_on,67,0,80
1,note_on,79,71,0
1,note_on,79,0,80
1,note_on,78,81,0
1,note_on,78,0,120
1,note_on,78,88,120
1,note_on,78,0,80
1,note_on,66,62,0
1,note_on,66,0,80
1,note_on,75,68,0
1,note_on,75,0,80
1,note_on,74,78,0
1,note_on,74,0,120
1,note_on,82,93,120
1,note_on,82,0,80
1,note_on,70,67,0
1,note_on,70,0,80
1,note_on,81,74,0
1,note_on,81,0,80
1,note_on,79,83,0
1,note_on,79,0,120
1,note_on,79,91,120
1,note_on,79,0,80
1,note_on,67,63,0
1,note_on,67,0,80
1,note_on,77,71,0
1,note_on,77,0,80
1,note_on,75,82,0
1,note_on,75,0,120
1,note_on,82,89,120
1,note_on,82,0,80
1,note_on,70,63,0
1,note_on,70,0,80
1,note_on,81,68,0
1,note_on,81,0,80
1,note_on,79,80,0
1,note_on,79,0,120
1,note_on,79,87,120
1,note_on,79,0,80
1,note_on,67,60,0
1,note_on,67,0,80
1,note_on,77,67,0
1,note_on,77,0,80
1,note_on,75,78,0
1,note_on,75,0,120
1,note_on,82,85,120
1,note_on,82,0,80
1,note_on,70,60,0
1,note_on,70,0,80
1,note_on,81,67,0
1,note_on,81,0,80
1,note_on,79,77,0
1,note_on,79,0,120
1,note_on,79,85,120
1,note_on,79,0,80
1,note_on,67,58,0
1,note_on,67,0,80
1,note_on,77,64,0
1,note_on,77,0,80
1,note_on,75,76,0
1,note_on,75,0,120
1,note_on,75,84,120
1,note_on,75,0,80
1,note_on,63,59,0
1,note_on,63,0,80
1,note_on,74,65,0
1,note_on,74,0,80
1,note_on,72,75,0
1,note_on,72,0,120
1,note_on,72,83,120
1,note_on,72,0,80
1,note_on,60,55,0
1,note_on,60,0,80
1,note_on,70,62,0
1,note_on,70,0,80
1,note_on,69,74,0
1,note_on,69,0,120
1,note_on,70,82,120
1,note_on,70,0,80
1,note_on,58,57,0
1,note_on,58,0,80
1,note_on,69,62,0
1,note_on,69,0,80
1,note_on,67,73,0
1,note_on,67,0,120
1,note_on,67,81,120
1,note_on,67,0,80
1,note_on,55,57,0
1,note_on,55,0,80
1,note_on,65,63,0
1,note_on,65,0,80
1,note_on,63,73,0
1,note_on,63,0,120
1,note_on,70,80,120
1,note_on,70,0,80
1,note_on,58,56,0
1,note_on,58,0,80
1,note_on,69,62,0
1,note_on,69,0,80
1,note_on,67,72,0
1,note_on,67,0,120
1,note_on,67,79,120
1,note_on,67,0,80
1,note_on,55,54,0
1,note_on,55,0,80
1,note_on,65,60,0
1,note_on,65,0,80
1,note_on,63,71,0
1,note_on,63,0,120
1,note_on,70,79,120
1,note_on,70,0,80
1,note_on,58,56,0
1,note_on,58,0,80
1,note_on,69,61,0
1,note_on,69,0,80
1,note_on,67,71,0
1,note_on,67,0,120
1,note_on,67,78,120
1,note_on,67,0,80
1,note_on,55,52,0
1,note_on,55,0,80
1,note_on,65,59,0
1,note_on,65,0,80
1,note_on,63,70,0
1,note_on,63,0,120
1,note_on,63,77,120
1,note_on,63,0,80
1,note_on,51,53,0
1,note_on,51,0,80
1,note_on,62,58,0
1,note_on,62,0,80
1,note_on,60,70,0
1,note_on,60,0,120
1,note_on,60,76,120
1,note_on,60,0,80
1,note_on,48,58,0
1,note_on,48,0,80
1,note_on,58,60,0
1,note_on,58,0,80
1,note_on,57,69,0
1,note_on,57,0,120
1,note_on,58,75,120
1,note_on,58,0,80
1,note_on,46,54,0
1,note_on,46,0,80
1,note_on,57,58,0
1,note_on,57,0,80
1,note_on,55,68,0
1,note_on,55,0,120
1,note_on,60,74,120
1,note_on,60,0,80
1,note_on,48,58,0
1,note_on,48,0,80
1,note_on,58,62,0
1,note_on,58,0,80
1,note_on,57,67,0
1,note_on,57,0,120
1,note_on,58,73,120
1,note_on,58,0,80
1,note_on,46,52,0
1,note_on,46,0,80
1,note_on,57,57,0
1,note_on,57,0,80
1,note_on,55,66,0
1,note_on,55,0,120
1,note_on,60,73,120
1,note_on,60,0,80
1,note_on,48,54,0
1,note_on,48,0,80
1,note_on,58,59,0
1,note_on,58,0,80
1,note_on,57,66,0
1,note_on,57,0,120
1,note_on,62,76,120
1,note_on,62,0,80
1,note_on,46,57,0
1,note_on,46,0,80
1,note_on,60,62,0
1,note_on,60,0,80
1,note_on,58,70,0
1,note_on,58,0,120
1,note_on,67,79,120
1,note_on,67,0,80
1,note_on,55,58,0
1,note_on,55,0,80
1,note_on,63,64,0
1,note_on,63,0,80
1,note_on,62,72,0
1,note_on,62,0,120
1,note_on,70,81,120
1,note_on,70,0,80
1,note_on,58,62,0
1,note_on,58,0,80
1,note_on,69,68,0
1,note_on,69,0,80
1,note_on,67,74,0
1,note_on,67,0,120
1,note_on,74,84,120
1,note_on,74,0,80
1,note_on,62,64,0
1,note_on,62,0,80
1,note_on,70,71,0
1,note_on,70,0,80
1,note_on,69,77,0
1,note_on,69,0,120
1,note_on,79,86,120
1,note_on,79,0,80
1,note_on,67,68,0
1,note_on,67,0,80
1,note_on,75,73,0
1,note_on,75,0,80
1,note_on,74,80,0
1,note_on,74,0,120
1,note_on,82,89,120
1,note_on,82,0,80
1,note_on,70,68,0
1,note_on,70,0,80
1,note_on,81,75,0
1,note_on,81,0,80
1,note_on,79,82,0
1,note_on,79,0,120
1,note_on,86,94,120
1,note_on,86,0,80
1,note_on,74,76,0
1,note_on,74,0,80
1,note_on,84,77,0
1,note_on,84,0,80
1,note_on,82,84,0
1,note_on,82,0,120
1,note_on,91,97,120
1,note_on,91,0,80
1,note_on,79,78,0
1,note_on,79,0,80
1,note_on,87,79,0
1,note_on,87,0,80
1,note_on,86,87,0
1,note_on,86,0,120
1,note_on,94,109,120
1,note_on,82,88,0
1,note_on,82,0,480
1,note_on,94,0,0
1,note_on,79,81,0
1,note_on,91,88,0
1,note_on,91,0,480
1,note_on,79,0,0
1,note_on,74,81,0
1,note_on,86,88,0
1,note_on,86,0,480
1,note_on,74,0,0
1,note_on,70,81,0
1,note_on,82,88,0
1,note_on,82,0,480
1,note_on,70,0,0
1,note_on,67,81,0
1,note_on,79,88,0
1,note_on,79,0,480
1,note_on,67,0,0
1,note_on,62,81,0
1,note_on,74,88,0
1,note_on,74,0,480
1,note_on,62,0,0
1,note_on,58,81,0
1,note_on,70,88,0
1,note_on,70,0,480
1,note_on,58,0,0
1,note_on,55,81,0
1,note_on,67,88,0
1,note_on,67,0,480
1,note_on,60,66,0
1,note_on,63,85,0
1,note_on,68,96,0
1,note_on,55,0,480
1,note_on,56,92,0
1,note_on,56,0,480
1,note_on,68,0,0
1,note_on,63,0,0
1,note_on,60,0,0
1,note_on,57,78,0
1,note_on,69,85,0
1,note_on,57,0,480
1,note_on,60,78,0
1,note_on,63,78,480
1,note_on,66,78,480
1,note_on,69,0,480
1,note_on,69,78,0
1,note_on,72,78,480
1,note_on,72,0,480
1,note_on,60,0,0
1,note_on,66,0,0
1,note_on,63,0,0
1,note_on,69,0,0
1,note_on,62,78,0
1,note_on,67,82,0
1,note_on,70,88,0
1,note_on,70,0,480
1,note_on,67,0,0
1,note_on,62,0,0
1,note_on,67,85,0
1,note_on,79,92,0
1,note_on,79,0,480
1,note_on,67,0,0
1,note_on,62,85,0
1,note_on,74,92,0
1,note_on,74,0,480
1,note_on,62,0,0
1,note_on,58,85,0
1,note_on,70,92,0
1,note_on,70,0,480
1,note_on,58,0,0
1,note_on,55,85,0
1,note_on,67,92,0
1,note_on,67,0,480
1,note_on,55,0,0
1,note_on,50,85,0
1,note_on,62,92,0
1,note_on,62,0,480
1,note_on,50,0,0
1,note_on,46,85,0
1,note_on,58,92,0
1,note_on,58,0,480
1,note_on,46,0,0
1,note_on,43,85,0
1,note_on,55,92,0
1,note_on,55,0,480
1,note_on,48,68,0
1,note_on,51,83,0
1,note_on,56,95,0
1,note_on,43,0,480
1,note_on,44,92,0
1,note_on,44,0,480
1,note_on,56,0,0
1,note_on,51,0,0
1,note_on,48,0,0
1,note_on,45,78,0
1,note_on,57,85,0
1,note_on,45,0,480
1,note_on,48,78,0
1,note_on,51,78,480
1,note_on,54,78,480
1,note_on,54,0,480
1,note_on,57,0,0
1,note_on,57,78,0
1,note_on,60,78,480
1,note_on,60,0,480
1,note_on,48,0,0
1,note_on,51,0,0
1,note_on,57,0,0
1,note_on,50,75,0
1,note_on,55,79,0
1,note_on,58,88,0
1,note_on,58,0,480
1,note_on,55,0,0
1,note_on,50,0,0
1,note_on,46,78,0
1,note_on,46,0,480
1,note_on,50,79,0
1,note_on,50,0,480
1,note_on,55,81,0
1,note_on,55,0,238
1,note_on,58,85,242
1,note_on,58,0,480
1,note_on,62,87,0
1,note_on,62,0,480
1,note_on,67,88,0
1,note_on,67,0,480
1,note_on,70,91,0
1,note_on,79,101,480
1,note_on,79,0,960
1,note_on,70,0,0
2,note_on,43,50,960
2,note_on,31,42,0
2,note_on,31,0,1440
2,note_on,43,0,0
2,note_on,34,37,240
2,note_on,46,44,0
2,note_on,46,0,60
2,note_on,34,0,0
2,note_on,48,50,180
2,note_on,36,42,0
2,note_on,36,0,120
2,note_on,48,0,0
2,note_on,38,40,360
2,note_on,50,48,0
2,note_on,50,0,120
2,note_on,38,0,0
2,note_on,43,50,360
2,note_on,31,42,0
2,note_on,31,0,240
2,note_on,43,0,0
2,note_on,38,47,480
2,note_on,38,0,60
2,note_on,43,50,180
2,note_on,31,42,0
2,note_on,31,0,1440
2,note_on,43,0,0
2,note_on,46,44,240
2,note_on,34,37,0
2,note_on,34,0,60
2,note_on,46,0,0
2,note_on,48,50,180
2,note_on,36,42,0
2,note_on,36,0,120
2,note_on,48,0,0
2,note_on,38,40,360
2,note_on,50,48,0
2,note_on,50,0,120
2,note_on,38,0,0
2,note_on,39,42,360
2,note_on,51,50,0
2,note_on,51,0,240
2,note_on,39,0,0
2,note_on,38,35,480
2,note_on,50,42,0
2,note_on,50,0,120
2,note_on,38,0,0
2,note_on,39,46,120
2,note_on,51,55,0
2,note_on,51,0,120
2,note_on,39,0,0
2,note_on,36,48,360
2,note_on,48,57,0
2,note_on,48,0,120
2,note_on,36,0,0
2,note_on,38,50,360
2,note_on,50,59,0
2,note_on,50,0,240
2,note_on,38,0,0
2,note_on,50,61,480
2,note_on,50,0,60
2,note_on,43,64,180
2,note_on,46,64,0
2,note_on,55,76,0
2,note_on,55,0,480
2,note_on,46,0,0
2,note_on,50,68,0
2,note_on,57,80,0
2,note_on,57,0,480
2,note_on,50,0,0
2,note_on,43,0,0
2,note_on,58,84,0
2,note_on,55,71,0
2,note_on,55,0,480
2,note_on,58,0,0
2,note_on,55,72,240
2,note_on,46,61,0
2,note_on,46,0,60
2,note_on,55,0,0
2,note_on,57,79,180
2,note_on,55,67,0
2,note_on,48,67,0
2,note_on,48,0,480
2,note_on,55,0,0
2,note_on,57,0,0
2,note_on,62,77,0
2,note_on,54,66,0
2,note_on,50,61,0
2,note_on,50,0,480
2,note_on,54,0,0
2,note_on,62,0,0
2,note_on,55,81,0
2,note_on,43,68,0
2,note_on,46,68,0
2,note_on,46,0,480
2,note_on,43,0,0
2,note_on,55,0,0
2,note_on,50,81,240
2,note_on,50,0,60
2,note_on,43,68,180
2,note_on,46,68,0
2,note_on,55,80,0
2,note_on,55,0,480
2,note_on,46,0,0
2,note_on,50,68,0
2,note_on,57,81,0
2,note_on,57,0,480
2,note_on,50,0,0
2,note_on,43,0,0
2,note_on,58,85,0
2,note_on,55,72,0
2,note_on,55,0,480
2,note_on,58,0,0
2,note_on,51,53,240
2,note_on,39,45,0
2,note_on,39,0,60
2,note_on,51,0,0
2,note_on,41,62,180
2,note_on,53,74,0
2,note_on,53,0,120
2,note_on,41,0,0
2,note_on,34,55,360
2,note_on,46,65,0
2,note_on,46,0,120
2,note_on,34,0,0
2,note_on,51,75,360
2,note_on,39,63,0
2,note_on,39,0,240
2,note_on,51,0,0
2,note_on,45,81,480
2,note_on,33,68,0
2,note_on,33,0,240
2,note_on,45,0,0
2,note_on,50,74,0
2,note_on,38,62,0
2,note_on,38,0,480
2,note_on,50,0,0
2,note_on,32,65,240
2,note_on,44,77,0
2,note_on,44,0,240
2,note_on,32,0,0
2,note_on,50,68,0
2,note_on,38,57,0
2,note_on,38,0,480
2,note_on,50,0,0
2,note_on,33,65,240
2,note_on,45,77,0
2,note_on,45,0,240
2,note_on,33,0,0
2,note_on,50,68,0
2,note_on,38,57,0
2,note_on,50,0,960
2,note_on,38,0,480
2,note_on,38,52,240
2,note_on,38,0,60
2,note_on,31,42,180
2,note_on,43,50,0
2,note_on,43,0,1440
2,note_on,31,0,0
2,note_on,46,47,240
2,note_on,34,39,0
2,note_on,34,0,60
2,note_on,46,0,0
2,note_on,36,46,180
2,note_on,48,55,0
2,note_on,48,0,480
2,note_on,36,0,0
2,note_on,38,46,0
2,note_on,50,55,0
2,note_on,50,0,480
2,note_on,38,0,0
2,note_on,51,60,0
2,note_on,39,50,0
2,note_on,39,0,480
2,note_on,51,0,0
2,note_on,38,50,240
2,note_on,50,60,0
2,note_on,50,0,120
2,note_on,38,0,0
2,note_on,48,65,120
2,note_on,36,54,0
2,note_on,36,0,480
2,note_on,48,0,0
2,note_on,38,54,0
2,note_on,50,64,0
2,note_on,50,0,480
2,note_on,38,0,0
2,note_on,37,58,0
2,note_on,49,70,0
2,note_on,49,0,720
2,note_on,37,0,0
2,note_on,37,56,0
2,note_on,49,67,0
2,note_on,49,0,60
2,note_on,37,0,0
2,note_on,50,85,180
2,note_on,38,72,0
2,note_on,38,0,480
2,note_on,50,0,0
2,note_on,38,64,0
2,note_on,50,77,0
2,note_on,50,0,480
2,note_on,38,0,0
2,note_on,49,70,0
2,note_on,37,58,0
2,note_on,37,0,720
2,note_on,49,0,0
2,note_on,49,67,0
2,note_on,37,56,0
2,note_on,37,0,60
2,note_on,49,0,0
2,note_on,38,79,180
2,note_on,50,93,0
2,note_on,50,0,480
2,note_on,38,0,0
2,note_on,38,70,0
2,note_on,50,84,0
2,note_on,50,0,480
2,note_on,38,0,0
2,note_on,43,84,0
2,note_on,31,70,0
2,note_on,31,0,480
2,note_on,43,0,0
2,note_on,34,50,480
2,note_on,46,50,0
2,note_on,50,30,120
2,note_on,50,0,120
2,note_on,50,36,360
2,note_on,50,0,120
2,note_on,50,31,360
2,note_on,50,0,120
2,note_on,46,0,240
2,note_on,34,0,0
2,note_on,48,50,0
2,note_on,32,50,0
2,note_on,50,31,120
2,note_on,50,0,120
2,note_on,32,0,240
2,note_on,48,0,0
2,note_on,47,50,0
2,note_on,31,50,0
2,note_on,50,35,120
2,note_on,50,0,120
2,note_on,50,32,360
2,note_on,50,0,120
2,note_on,60,43,240
2,note_on,50,30,120
2,note_on,50,0,120
2,note_on,60,0,0
2,note_on,59,41,0
2,note_on,59,0,240
2,note_on,31,0,0
2,note_on,47,0,0
2,note_on,57,43,0
2,note_on,50,30,120
2,note_on,50,0,120
2,note_on,57,0,0
2,note_on,55,40,0
2,note_on,55,0,240
2,note_on,48,45,0
2,note_on,36,31,120
2,note_on,36,0,120
2,note_on,48,0,0
2,note_on,50,42,0
2,note_on,50,0,240
2,note_on,51,47,0
2,note_on,48,32,120
2,note_on,48,0,120
2,note_on,51,0,0
2,note_on,53,42,0
2,note_on,53,0,240
2,note_on,55,48,0
2,note_on,48,32,120
2,note_on,48,0,120
2,note_on,55,0,0
2,note_on,57,39,0
2,note_on,57,0,240
2,note_on,59,42,0
2,note_on,59,0,160
2,note_on,60,47,0
2,note_on,60,0,160
2,note_on,62,52,0
2,note_on,62,0,160
2,note_on,57,57,0
2,note_on,41,57,0
2,note_on,53,32,120
2,note_on,53,0,120
2,note_on,53,32,360
2,note_on,53,0,120
2,note_on,57,0,240
2,note_on,57,47,0
2,note_on,53,32,120
2,note_on,53,0,120
2,note_on,57,0,0
2,note_on,55,43,0
2,note_on,55,0,240
2,note_on,53,46,0
2,note_on,53,0,120
2,note_on,51,45,0
2,note_on,51,0,120
2,note_on,50,44,0
2,note_on,50,0,120
2,note_on,48,42,0
2,note_on,48,0,120
2,note_on,41,0,0
2,note_on,34,34,0
2,note_on,46,41,0
2,note_on,46,0,480
2,note_on,34,0,0
2,note_on,45,41,1440
2,note_on,45,0,480
2,note_on,56,41,960
2,note_on,47,41,0
2,note_on,47,0,480
2,note_on,56,0,0
2,note_on,60,41,0
2,note_on,57,41,0
2,note_on,48,41,0
2,note_on,48,0,960
2,note_on,57,0,0
2,note_on,60,0,0
2,note_on,58,41,0
2,note_on,64,41,0
2,note_on,48,41,0
2,note_on,48,0,960
2,note_on,64,0,0
2,note_on,58,0,0
2,note_on,53,43,1
2,note_on,60,43,2
2,note_on,52,43,237
2,note_on,53,0,1
2,note_on,50,43,237
2,note_on,52,0,2
2,note_on,50,0,238
2,note_on,48,43,2
2,note_on,48,0,240
2,note_on,53,43,7
2,note_on,41,43,473
2,note_on,60,0,3
2,note_on,51,31,117
2,note_on,53,43,355
2,note_on,51,0,5
2,note_on,41,0,0
2,note_on,46,50,0
2,note_on,34,50,0
2,note_on,53,0,1
2,note_on,50,30,119
2,note_on,55,43,113
2,note_on,53,0,2
2,note_on,50,0,5
2,note_on,55,0,233
2,note_on,57,43,12
2,note_on,50,36,115
2,note_on,50,0,120
2,note_on,57,0,5
2,note_on,58,43,0
2,note_on,58,0,240
2,note_on,50,31,115
2,note_on,50,0,120
2,note_on,46,0,240
2,note_on,34,0,0
2,note_on,48,50,0
2,note_on,32,50,0
2,note_on,50,31,120
2,note_on,50,0,120
2,note_on,32,0,240
2,note_on,48,0,0
2,note_on,31,50,0
2,note_on,47,50,0
2,note_on,50,35,120
2,note_on,50,0,120
2,note_on,50,32,360
2,note_on,50,0,120
2,note_on,60,43,240
2,note_on,50,30,120
2,note_on,50,0,120
2,note_on,60,0,0
2,note_on,59,41,0
2,note_on,59,0,240
2,note_on,47,0,0
2,note_on,31,0,0
2,note_on,57,43,0
2,note_on,50,30,120
2,note_on,50,0,120
2,note_on,57,0,0
2,note_on,55,40,0
2,note_on,55,0,240
2,note_on,48,45,0
2,note_on,36,31,120
2,note_on,36,0,120
2,note_on,48,0,0
2,note_on,50,42,0
2,note_on,50,0,240
2,note_on,51,47,0
2,note_on,48,32,120
2,note_on,48,0,120
2,note_on,51,0,0
2,note_on,53,42,0
2,note_on,53,0,240
2,note_on,55,48,0
2,note_on,48,32,120
2,note_on,48,0,120
2,note_on,55,0,0
2,note_on,57,39,0
2,note_on,57,0,240
2,note_on,59,42,0
2,note_on,59,0,160
2,note_on,60,47,0
2,note_on,60,0,160
2,note_on,62,52,0
2,note_on,62,0,160
2,note_on,41,57,0
2,note_on,57,57,0
2,note_on,53,32,120
2,note_on,53,0,120
2,note_on,53,32,360
2,note_on,53,0,120
2,note_on,57,0,237
2,note_on,57,47,3
2,note_on,53,32,120
2,note_on,55,43,118
2,note_on,57,0,2
2,note_on,53,0,0
2,note_on,55,0,238
2,note_on,53,46,2
2,note_on,53,0,120
2,note_on,51,45,0
2,note_on,51,0,120
2,note_on,50,44,0
2,note_on,50,0,120
2,note_on,48,42,0
2,note_on,48,0,120
2,note_on,41,0,0
2,note_on,46,41,0
2,note_on,34,34,0
2,note_on,34,0,480
2,note_on,46,0,0
2,note_on,45,41,1440
2,note_on,45,0,480
2,note_on,47,41,960
2,note_on,56,41,0
2,note_on,56,0,480
2,note_on,47,0,0
2,note_on,57,41,0
2,note_on,48,41,0
2,note_on,60,41,0
2,note_on,60,0,960
2,note_on,48,0,0
2,note_on,57,0,0
2,note_on,64,41,0
2,note_on,58,41,0
2,note_on,48,41,0
2,note_on,53,43,959
2,note_on,48,0,1
2,note_on,64,0,0
2,note_on,58,0,0
2,note_on,60,43,0
2,note_on,53,0,239
2,note_on,52,43,8
2,note_on,50,43,229
2,note_on,52,0,11
2,note_on,50,0,229
2,note_on,48,43,4
2,note_on,48,0,240
2,note_on,53,43,5
2,note_on,60,0,475
2,note_on,53,0,5
2,note_on,41,50,415
2,note_on,57,50,60
2,note_on,39,50,1860
2,note_on,57,0,60
2,note_on,41,0,0
2,note_on,58,50,0
2,note_on,58,0,960
2,note_on,48,50,0
2,note_on,39,0,960
2,note_on,41,42,0
2,note_on,41,0,1200
2,note_on,48,0,0
2,note_on,39,42,660
2,note_on,58,42,60
2,note_on,58,0,960
2,note_on,39,0,0
2,note_on,42,42,0
2,note_on,44,34,720
2,note_on,44,0,240
2,note_on,42,0,0
2,note_on,49,34,0
2,note_on,41,34,0
2,note_on,51,29,239
2,note_on,49,0,1
2,note_on,53,34,234
2,note_on,51,0,5
2,note_on,41,0,1
2,note_on,54,34,237
2,note_on,54,0,240
2,note_on,56,36,0
2,note_on,56,0,240
2,note_on,58,37,3
2,note_on,58,0,240
2,note_on,60,42,5
2,note_on,60,0,240
2,note_on,62,45,245
2,note_on,59,42,230
2,note_on,62,0,10
2,note_on,59,0,230
2,note_on,56,38,0
2,note_on,56,0,240
2,note_on,53,37,0
2,note_on,53,0,234
2,note_on,53,0,6
2,note_on,49,36,0
2,note_on,47,35,240
2,note_on,47,0,240
2,note_on,44,34,0
2,note_on,44,0,240
2,note_on,41,33,0
2,note_on,41,0,240
2,note_on,42,36,0
2,note_on,42,0,1800
2,note_on,49,0,0
2,note_on,49,37,0
2,note_on,42,37,0
2,note_on,49,0,120
2,note_on,50,45,0
2,note_on,62,49,480
2,note_on,62,0,477
2,note_on,50,0,723
2,note_on,42,0,240
2,note_on,49,36,0
2,note_on,42,36,0
2,note_on,49,0,1800
2,note_on,49,37,0
2,note_on,49,0,120
2,note_on,42,0,0
2,note_on,52,45,0
2,note_on,36,45,0
2,note_on,61,41,480
2,note_on,61,0,477
2,note_on,36,0,483
2,note_on,52,0,0
2,note_on,41,34,0
2,note_on,41,0,480
2,note_on,34,40,0
2,note_on,46,40,0
2,note_on,50,24,120
2,note_on,50,0,120
2,note_on,50,30,360
2,note_on,50,0,120
2,note_on,50,28,360
2,note_on,50,0,120
2,note_on,46,0,240
2,note_on,34,0,0
2,note_on,48,47,0
2,note_on,32,47,0
2,note_on,50,29,120
2,note_on,50,0,120
2,note_on,32,0,240
2,note_on,48,0,0
2,note_on,31,50,0
2,note_on,47,50,0
2,note_on,50,35,120
2,note_on,50,0,120
2,note_on,50,32,360
2,note_on,50,0,120
2,note_on,60,43,240
2,note_on,50,30,120
2,note_on,50,0,120
2,note_on,60,0,0
2,note_on,59,41,0
2,note_on,59,0,240
2,note_on,47,0,0
2,note_on,31,0,0
2,note_on,57,43,0
2,note_on,50,30,120
2,note_on,50,0,120
2,note_on,57,0,0
2,note_on,55,40,0
2,note_on,55,0,240
2,note_on,48,45,0
2,note_on,36,31,120
2,note_on,36,0,120
2,note_on,48,0,0
2,note_on,50,42,0
2,note_on,50,0,240
2,note_on,51,47,0
2,note_on,48,32,120
2,note_on,48,0,120
2,note_on,51,0,0
2,note_on,53,42,0
2,note_on,53,0,240
2,note_on,55,48,0
2,note_on,48,32,120
2,note_on,48,0,120
2,note_on,55,0,0
2,note_on,57,39,0
2,note_on,57,0,240
2,note_on,59,42,0
2,note_on,59,0,160
2,note_on,60,47,0
2,note_on,60,0,160
2,note_on,62,52,0
2,note_on,62,0,160
2,note_on,57,57,0
2,note_on,41,57,0
2,note_on,53,32,120
2,note_on,53,0,120
2,note_on,53,32,360
2,note_on,53,0,120
2,note_on,57,0,240
2,note_on,57,47,0
2,note_on,53,32,120
2,note_on,53,0,120
2,note_on,57,0,0
2,note_on,55,43,0
2,note_on,55,0,240
2,note_on,53,46,0
2,note_on,53,0,120
2,note_on,51,45,0
2,note_on,51,0,120
2,note_on,50,44,0
2,note_on,50,0,120
2,note_on,48,42,0
2,note_on,48,0,120
2,note_on,41,0,0
2,note_on,46,41,0
2,note_on,34,34,0
2,note_on,34,0,480
2,note_on,46,0,0
2,note_on,45,41,1440
2,note_on,45,0,480
2,note_on,47,41,960
2,note_on,56,41,0
2,note_on,56,0,480
2,note_on,47,0,0
2,note_on,48,41,0
2,note_on,60,41,0
2,note_on,57,41,0
2,note_on,57,0,960
2,note_on,60,0,0
2,note_on,48,0,0
2,note_on,64,41,0
2,note_on,58,41,0
2,note_on,48,41,0
2,note_on,48,0,960
2,note_on,58,0,0
2,note_on,64,0,0
2,note_on,60,43,0
2,note_on,53,43,0
2,note_on,53,0,240
2,note_on,52,43,0
2,note_on,52,0,240
2,note_on,50,43,0
2,note_on,50,0,240
2,note_on,48,43,0
2,note_on,48,0,240
2,note_on,53,43,0
2,note_on,53,0,480
2,note_on,60,0,0
2,note_on,57,50,480
2,note_on,41,50,0
2,note_on,39,50,1860
2,note_on,41,0,60
2,note_on,57,0,0
2,note_on,58,50,0
2,note_on,58,0,960
2,note_on,48,50,0
2,note_on,39,0,960
2,note_on,41,42,0
2,note_on,41,0,1200
2,note_on,48,0,0
2,note_on,39,42,660
2,note_on,58,42,60
2,note_on,58,0,960
2,note_on,39,0,0
2,note_on,42,42,0
2,note_on,44,34,720
2,note_on,49,34,239
2,note_on,44,0,1
2,note_on,42,0,0
2,note_on,41,34,0
2,note_on,49,0,239
2,note_on,51,29,3
2,note_on,41,0,238
2,note_on,51,0,2
2,note_on,53,34,2
2,note_on,54,34,236
2,note_on,54,0,240
2,note_on,56,36,5
2,note_on,56,0,240
2,note_on,58,36,1
2,note_on,60,40,233
2,note_on,58,0,7
2,note_on,60,0,233
2,note_on,62,46,251
2,note_on,62,0,230
2,note_on,59,44,0
2,note_on,59,0,240
2,note_on,56,38,0
2,note_on,56,0,240
2,note_on,53,37,0
2,note_on,53,0,240
2,note_on,49,36,0
2,note_on,53,0,4
2,note_on,47,35,236
2,note_on,47,0,240
2,note_on,44,34,0
2,note_on,44,0,240
2,note_on,41,33,0
2,note_on,41,0,240
2,note_on,42,36,0
2,note_on,42,0,1800
2,note_on,49,0,0
2,note_on,49,37,0
2,note_on,42,37,0
2,note_on,49,0,120
2,note_on,50,45,0
2,note_on,62,49,480
2,note_on,62,0,478
2,note_on,50,0,722
2,note_on,42,0,240
2,note_on,49,36,0
2,note_on,42,36,0
2,note_on,49,0,1800
2,note_on,49,37,0
2,note_on,49,0,120
2,note_on,42,0,0
2,note_on,36,45,0
2,note_on,52,45,0
2,note_on,61,41,480
2,note_on,61,0,477
2,note_on,52,0,483
2,note_on,36,0,0
2,note_on,41,34,0
2,note_on,41,0,480
2,note_on,34,40,0
2,note_on,46,40,0
2,note_on,50,24,120
2,note_on,50,0,120
2,note_on,50,30,360
2,note_on,50,0,120
2,note_on,50,28,360
2,note_on,50,0,120
2,note_on,46,0,240
2,note_on,34,0,0
2,note_on,48,47,0
2,note_on,32,47,0
2,note_on,50,29,120
2,note_on,50,0,120
2,note_on,32,0,240
2,note_on,48,0,0
2,note_on,47,50,0
2,note_on,31,50,0
2,note_on,50,35,120
2,note_on,50,0,120
2,note_on,50,32,360
2,note_on,50,0,120
2,note_on,60,43,240
2,note_on,50,30,120
2,note_on,50,0,120
2,note_on,60,0,0
2,note_on,59,41,0
2,note_on,59,0,240
2,note_on,31,0,0
2,note_on,47,0,0
2,note_on,57,43,0
2,note_on,50,30,120
2,note_on,50,0,120
2,note_on,57,0,0
2,note_on,55,40,0
2,note_on,48,45,237
2,note_on,55,0,3
2,note_on,36,31,120
2,note_on,50,42,113
2,note_on,48,0,4
2,note_on,36,0,3
2,note_on,50,0,233
2,note_on,51,47,13
2,note_on,48,32,114
2,note_on,48,0,120
2,note_on,53,42,1
2,note_on,51,0,5
2,note_on,53,0,235
2,note_on,55,48,3
2,note_on,48,32,116
2,note_on,48,0,120
2,note_on,55,0,4
2,note_on,57,39,2
2,note_on,59,42,234
2,note_on,57,0,6
2,note_on,59,0,154
2,note_on,60,47,0
2,note_on,60,0,160
2,note_on,62,52,0
2,note_on,62,0,160
2,note_on,57,57,0
2,note_on,41,57,0
2,note_on,53,32,120
2,note_on,53,0,120
2,note_on,53,32,360
2,note_on,53,0,120
2,note_on,57,0,240
2,note_on,57,47,0
2,note_on,53,32,120
2,note_on,53,0,120
2,note_on,57,0,0
2,note_on,55,43,0
2,note_on,55,0,240
2,note_on,53,46,0
2,note_on,53,0,120
2,note_on,51,45,0
2,note_on,51,0,120
2,note_on,50,44,0
2,note_on,50,0,120
2,note_on,48,42,0
2,note_on,48,0,120
2,note_on,41,0,0
2,note_on,34,34,0
2,note_on,46,41,0
2,note_on,46,0,480
2,note_on,34,0,0
2,note_on,66,40,0
2,note_on,66,0,600
2,note_on,67,30,0
2,note_on,67,0,360
2,note_on,69,32,0
2,note_on,69,0,240
2,note_on,70,30,0
2,note_on,70,0,240
2,note_on,46,41,0
2,note_on,46,0,480
2,note_on,63,40,0
2,note_on,63,0,600
2,note_on,65,30,0
2,note_on,65,0,360
2,note_on,67,32,0
2,note_on,67,0,240
2,note_on,68,30,0
2,note_on,68,0,240
2,note_on,46,41,0
2,note_on,34,41,720
2,note_on,34,0,240
2,note_on,46,0,0
2,note_on,39,41,0
2,note_on,39,0,480
2,note_on,33,29,0
2,note_on,45,35,0
2,note_on,33,0,480
2,note_on,38,36,0
2,note_on,45,0,720
2,note_on,46,31,0
2,note_on,38,35,180
2,note_on,46,0,60
2,note_on,38,0,0
2,note_on,45,41,0
2,note_on,45,0,480
2,note_on,38,0,0
2,note_on,38,42,240
2,note_on,38,0,60
2,note_on,43,50,180
2,note_on,31,42,0
2,note_on,31,0,1440
2,note_on,43,0,0
2,note_on,34,37,240
2,note_on,46,44,0
2,note_on,46,0,60
2,note_on,34,0,0
2,note_on,36,42,180
2,note_on,48,50,0
2,note_on,48,0,120
2,note_on,36,0,0
2,note_on,38,40,360
2,note_on,50,48,0
2,note_on,50,0,120
2,note_on,38,0,0
2,note_on,31,42,360
2,note_on,43,50,0
2,note_on,43,0,240
2,note_on,31,0,0
2,note_on,38,49,480
2,note_on,38,0,60
2,note_on,31,42,180
2,note_on,43,50,0
2,note_on,43,0,1440
2,note_on,31,0,0
2,note_on,34,37,240
2,note_on,46,44,0
2,note_on,46,0,60
2,note_on,34,0,0
2,note_on,36,42,180
2,note_on,48,50,0
2,note_on,48,0,120
2,note_on,36,0,0
2,note_on,38,40,360
2,note_on,50,48,0
2,note_on,50,0,120
2,note_on,38,0,0
2,note_on,51,50,360
2,note_on,39,42,0
2,note_on,39,0,240
2,note_on,51,0,0
2,note_on,38,35,480
2,note_on,50,42,0
2,note_on,50,0,120
2,note_on,38,0,0
2,note_on,51,55,120
2,note_on,39,46,0
2,note_on,39,0,120
2,note_on,51,0,0
2,note_on,48,57,360
2,note_on,36,48,0
2,note_on,36,0,120
2,note_on,48,0,0
2,note_on,38,50,360
2,note_on,50,59,0
2,note_on,50,0,240
2,note_on,38,0,0
2,note_on,50,70,480
2,note_on,50,0,60
2,note_on,46,64,180
2,note_on,55,76,0
2,note_on,43,64,0
2,note_on,55,0,480
2,note_on,46,0,0
2,note_on,57,80,0
2,note_on,50,68,0
2,note_on,50,0,480
2,note_on,57,0,0
2,note_on,43,0,0
2,note_on,55,71,0
2,note_on,58,84,0
2,note_on,58,0,480
2,note_on,55,0,0
2,note_on,55,72,240
2,note_on,46,61,0
2,note_on,46,0,60
2,note_on,55,0,0
2,note_on,48,67,180
2,note_on,57,79,0
2,note_on,55,67,0
2,note_on,55,0,480
2,note_on,57,0,0
2,note_on,48,0,0
2,note_on,62,77,0
2,note_on,54,66,0
2,note_on,50,61,0
2,note_on,50,0,480
2,note_on,54,0,0
2,note_on,62,0,0
2,note_on,55,81,0
2,note_on,46,68,0
2,note_on,50,68,0
2,note_on,50,0,480
2,note_on,46,0,0
2,note_on,55,0,0
2,note_on,50,71,240
2,note_on,50,0,60
2,note_on,43,68,180
2,note_on,46,68,0
2,note_on,55,80,0
2,note_on,55,0,480
2,note_on,46,0,0
2,note_on,57,81,0
2,note_on,50,68,0
2,note_on,50,0,480
2,note_on,57,0,0
2,note_on,43,0,0
2,note_on,55,72,0
2,note_on,58,85,0
2,note_on,58,0,480
2,note_on,55,0,0
2,note_on,51,53,240
2,note_on,39,45,0
2,note_on,39,0,60
2,note_on,51,0,0
2,note_on,53,74,180
2,note_on,41,62,0
2,note_on,41,0,120
2,note_on,53,0,0
2,note_on,34,55,360
2,note_on,46,65,0
2,note_on,46,0,120
2,note_on,34,0,0
2,note_on,51,75,360
2,note_on,39,63,0
2,note_on,39,0,240
2,note_on,51,0,0
2,note_on,33,68,480
2,note_on,45,81,0
2,note_on,45,0,240
2,note_on,33,0,0
2,note_on,50,74,0
2,note_on,38,62,0
2,note_on,38,0,480
2,note_on,50,0,0
2,note_on,44,77,240
2,note_on,32,65,0
2,note_on,32,0,240
2,note_on,44,0,0
2,note_on,50,68,0
2,note_on,38,57,0
2,note_on,38,0,480
2,note_on,50,0,0
2,note_on,33,65,240
2,note_on,45,77,0
2,note_on,45,0,240
2,note_on,33,0,0
2,note_on,38,57,0
2,note_on,50,68,0
2,note_on,50,0,960
2,note_on,38,0,480
2,note_on,38,52,240
2,note_on,38,0,60
2,note_on,31,42,180
2,note_on,43,50,0
2,note_on,43,0,1440
2,note_on,31,0,0
2,note_on,46,47,240
2,note_on,34,39,0
2,note_on,34,0,60
2,note_on,46,0,0
2,note_on,48,55,180
2,note_on,36,46,0
2,note_on,36,0,480
2,note_on,48,0,0
2,note_on,50,55,0
2,note_on,38,46,0
2,note_on,38,0,480
2,note_on,50,0,0
2,note_on,39,50,0
2,note_on,51,60,0
2,note_on,51,0,480
2,note_on,39,0,0
2,note_on,38,50,240
2,note_on,50,60,0
2,note_on,50,0,120
2,note_on,38,0,0
2,note_on,48,65,120
2,note_on,36,54,0
2,note_on,36,0,480
2,note_on,48,0,0
2,note_on,50,65,0
2,note_on,38,55,0
2,note_on,38,0,480
2,note_on,50,0,0
2,note_on,49,73,0
2,note_on,37,60,0
2,note_on,37,0,720
2,note_on,49,0,0
2,note_on,37,60,0
2,note_on,49,72,0
2,note_on,49,0,60
2,note_on,37,0,0
2,note_on,38,72,180
2,note_on,50,85,0
2,note_on,50,0,480
2,note_on,38,0,0
2,note_on,38,64,0
2,note_on,50,77,0
2,note_on,50,0,480
2,note_on,38,0,0
2,note_on,37,58,0
2,note_on,49,70,0
2,note_on,49,0,720
2,note_on,37,0,0
2,note_on,37,59,0
2,note_on,49,71,0
2,note_on,49,0,60
2,note_on,37,0,0
2,note_on,38,79,180
2,note_on,50,93,0
2,note_on,50,0,480
2,note_on,38,0,0
2,note_on,50,84,0
2,note_on,38,70,0
2,note_on,38,0,480
2,note_on,50,0,0
2,note_on,43,84,0
2,note_on,31,70,0
2,note_on,56,72,240
2,note_on,56,0,120
2,note_on,31,0,120
2,note_on,43,0,0
2,note_on,69,70,0
2,note_on,69,0,80
2,note_on,56,51,0
2,note_on,56,0,80
2,note_on,58,56,0
2,note_on,58,0,80
2,note_on,59,66,0
2,note_on,59,0,120
2,note_on,65,70,120
2,note_on,65,0,80
2,note_on,53,51,0
2,note_on,53,0,80
2,note_on,55,56,0
2,note_on,55,0,80
2,note_on,56,66,0
2,note_on,56,0,120
2,note_on,62,70,120
2,note_on,62,0,80
2,note_on,50,50,0
2,note_on,50,0,80
2,note_on,51,56,0
2,note_on,51,0,80
2,note_on,53,66,0
2,note_on,53,0,120
2,note_on,63,66,120
2,note_on,51,66,0
2,note_on,51,0,120
2,note_on,63,0,0
2,note_on,31,75,360
2,note_on,43,75,0
2,note_on,43,0,720
2,note_on,31,0,0
2,note_on,36,67,0
2,note_on,48,67,0
2,note_on,48,0,240
2,note_on,36,0,0
2,note_on,51,73,0
2,note_on,39,73,0
2,note_on,39,0,240
2,note_on,51,0,0
2,note_on,43,70,0
2,note_on,55,70,0
2,note_on,55,0,120
2,note_on,43,0,0
2,note_on,45,80,120
2,note_on,43,80,0
2,note_on,57,96,0
2,note_on,66,82,240
2,note_on,66,0,120
2,note_on,45,0,120
2,note_on,43,0,0
2,note_on,57,0,0
2,note_on,78,78,0
2,note_on,78,0,80
2,note_on,66,56,0
2,note_on,66,0,80
2,note_on,67,61,0
2,note_on,67,0,80
2,note_on,69,72,0
2,note_on,69,0,120
2,note_on,75,75,120
2,note_on,75,0,80
2,note_on,63,54,0
2,note_on,63,0,80
2,note_on,65,59,0
2,note_on,65,0,80
2,note_on,66,69,0
2,note_on,66,0,120
2,note_on,69,72,120
2,note_on,69,0,80
2,note_on,60,53,0
2,note_on,60,0,80
2,note_on,61,57,0
2,note_on,61,0,80
2,note_on,62,67,0
2,note_on,62,0,120
2,note_on,55,92,120
2,note_on,43,77,0
2,note_on,43,0,240
2,note_on,55,0,0
2,note_on,63,78,0
2,note_on,63,0,120
2,note_on,75,75,120
2,note_on,75,0,80
2,note_on,63,55,0
2,note_on,63,0,80
2,note_on,65,59,0
2,note_on,65,0,80
2,note_on,67,70,0
2,note_on,67,0,120
2,note_on,55,88,120
2,note_on,55,0,240
2,note_on,63,68,0
2,note_on,63,0,120
2,note_on,75,72,120
2,note_on,75,0,80
2,note_on,63,51,0
2,note_on,63,0,80
2,note_on,65,57,0
2,note_on,65,0,80
2,note_on,67,67,0
2,note_on,67,0,120
2,note_on,55,84,120
2,note_on,55,0,240
2,note_on,63,66,0
2,note_on,63,0,120
2,note_on,75,70,120
2,note_on,75,0,80
2,note_on,63,50,0
2,note_on,63,0,80
2,note_on,65,55,0
2,note_on,65,0,80
2,note_on,67,65,0
2,note_on,67,0,120
2,note_on,72,69,120
2,note_on,72,0,80
2,note_on,60,49,0
2,note_on,60,0,80
2,note_on,62,54,0
2,note_on,62,0,80
2,note_on,63,64,0
2,note_on,63,0,120
2,note_on,66,64,120
2,note_on,66,0,240
2,note_on,50,64,0
2,note_on,50,0,120
2,note_on,43,64,120
2,note_on,43,0,240
2,note_on,51,63,0
2,note_on,51,0,120
2,note_on,63,67,120
2,note_on,63,0,80
2,note_on,51,49,0
2,note_on,51,0,80
2,note_on,53,53,0
2,note_on,53,0,80
2,note_on,55,62,0
2,note_on,55,0,120
2,note_on,43,62,120
2,note_on,43,0,240
2,note_on,51,62,0
2,note_on,51,0,120
2,note_on,63,65,120
2,note_on,63,0,80
2,note_on,51,47,0
2,note_on,51,0,80
2,note_on,53,52,0
2,note_on,53,0,80
2,note_on,55,61,0
2,note_on,55,0,120
2,note_on,43,61,120
2,note_on,43,0,240
2,note_on,51,61,0
2,note_on,51,0,120
2,note_on,63,64,120
2,note_on,63,0,80
2,note_on,51,49,0
2,note_on,51,0,80
2,note_on,53,51,0
2,note_on,53,0,80
2,note_on,55,60,0
2,note_on,55,0,120
2,note_on,60,63,120
2,note_on,60,0,80
2,note_on,48,50,0
2,note_on,48,0,80
2,note_on,50,50,0
2,note_on,50,0,80
2,note_on,51,60,0
2,note_on,51,0,120
2,note_on,54,59,120
2,note_on,54,0,240
2,note_on,38,59,0
2,note_on,38,0,120
2,note_on,31,58,120
2,note_on,31,0,240
2,note_on,38,58,0
2,note_on,38,0,120
2,note_on,54,58,120
2,note_on,54,0,240
2,note_on,38,58,0
2,note_on,38,0,120
2,note_on,31,57,120
2,note_on,31,0,240
2,note_on,38,57,0
2,note_on,38,0,120
2,note_on,54,56,120
2,note_on,54,0,240
2,note_on,38,56,0
2,note_on,38,0,120
2,note_on,31,59,120
2,note_on,43,59,0
2,note_on,43,0,1440
2,note_on,31,0,0
2,note_on,38,66,240
2,note_on,50,66,0
2,note_on,50,0,120
2,note_on,38,0,0
2,note_on,31,67,120
2,note_on,43,67,0
2,note_on,43,0,1440
2,note_on,31,0,0
2,note_on,38,74,240
2,note_on,50,74,0
2,note_on,50,0,120
2,note_on,38,0,0
2,note_on,31,68,120
2,note_on,43,76,0
2,note_on,43,0,240
2,note_on,31,0,0
2,note_on,82,83,480
2,note_on,82,0,480
2,note_on,79,83,0
2,note_on,79,0,480
2,note_on,74,83,0
2,note_on,74,0,480
2,note_on,70,82,0
2,note_on,70,0,480
2,note_on,67,80,0
2,note_on,67,0,480
2,note_on,62,80,0
2,note_on,62,0,480
2,note_on,58,80,0
2,note_on,58,0,240
2,note_on,48,78,0
2,note_on,54,71,720
2,note_on,54,0,480
2,note_on,51,71,0
2,note_on,51,0,480
2,note_on,48,73,0
2,note_on,48,0,240
2,note_on,45,73,240
2,note_on,45,0,480
2,note_on,42,75,0
2,note_on,42,0,480
2,note_on,39,76,0
2,note_on,39,0,480
2,note_on,36,79,0
2,note_on,36,0,240
2,note_on,48,0,0
2,note_on,31,78,0
2,note_on,43,85,0
2,note_on,43,0,480
2,note_on,31,0,0
2,note_on,70,80,240
2,note_on,70,0,480
2,note_on,67,80,0
2,note_on,67,0,480
2,note_on,62,80,0
2,note_on,62,0,480
2,note_on,58,80,0
2,note_on,58,0,480
2,note_on,55,80,0
2,note_on,55,0,480
2,note_on,50,80,0
2,note_on,50,0,480
2,note_on,46,80,0
2,note_on,46,0,240
2,note_on,36,100,0
2,note_on,42,78,720
2,note_on,42,0,480
2,note_on,39,78,0
2,note_on,39,0,480
2,note_on,36,78,0
2,note_on,36,0,240
2,note_on,36,0,0
2,note_on,36,78,0
2,note_on,33,78,240
2,note_on,33,0,480
2,note_on,30,78,0
2,note_on,30,0,480
2,note_on,27,78,0
2,note_on,27,0,480
2,note_on,24,78,0
2,note_on,24,0,240
2,note_on,36,0,0
2,note_on,31,81,0
2,note_on,31,0,480
2,note_on,62,78,240
2,note_on,62,0,480
2,note_on,58,81,0
2,note_on,58,0,480
2,note_on,55,82,0
2,note_on,55,0,480
2,note_on,50,85,0
2,note_on,50,0,480
2,note_on,46,88,0
2,note_on,46,0,480
2,note_on,43,94,0
2,note_on,43,0,480
2,note_on,31,103,0
2,note_on,31,0,1200
