Track,Message Type,Note,Velocity,Time
1,note_on,62,27,1080
1,note_on,62,0,120
1,note_on,60,40,0
1,note_on,66,40,0
1,note_on,66,0,120
1,note_on,60,0,0
1,note_on,58,45,120
1,note_on,67,45,0
1,note_on,67,0,120
1,note_on,58,0,0
1,note_on,66,27,240
1,note_on,66,0,120
1,note_on,62,42,0
1,note_on,69,42,0
1,note_on,69,0,120
1,note_on,62,0,0
1,note_on,67,45,120
1,note_on,70,45,0
1,note_on,70,0,120
1,note_on,67,0,0
1,note_on,69,26,240
1,note_on,69,0,120
1,note_on,67,45,0
1,note_on,72,45,0
1,note_on,72,0,120
1,note_on,67,0,0
1,note_on,70,45,120
1,note_on,74,45,0
1,note_on,74,0,120
1,note_on,70,0,0
1,note_on,75,26,240
1,note_on,75,0,120
1,note_on,72,35,0
1,note_on,79,42,0
1,note_on,79,0,240
1,note_on,72,0,0
1,note_on,70,35,0
1,note_on,74,42,0
1,note_on,74,0,240
1,note_on,70,0,0
1,note_on,67,28,120
1,note_on,67,0,120
1,note_on,62,45,0
1,note_on,70,45,0
1,note_on,70,0,120
1,note_on,62,0,0
1,note_on,69,47,120
1,note_on,69,0,120
1,note_on,69,36,240
1,note_on,69,0,120
1,note_on,63,45,0
1,note_on,72,45,0
1,note_on,72,0,120
1,note_on,63,0,0
1,note_on,70,46,120
1,note_on,70,0,120
1,note_on,66,29,240
1,note_on,66,0,120
1,note_on,60,36,0
1,note_on,69,36,0
1,note_on,69,0,120
1,note_on,60,0,0
1,note_on,58,42,120
1,note_on,67,42,0
1,note_on,67,0,120
1,note_on,58,0,0
1,note_on,60,22,240
1,note_on,60,0,120
1,note_on,57,36,0
1,note_on,63,36,0
1,note_on,63,0,120
1,note_on,57,0,0
1,note_on,58,36,120
1,note_on,62,36,0
1,note_on,62,0,120
1,note_on,58,0,0
1,note_on,62,27,240
1,note_on,62,0,120
1,note_on,60,40,0
1,note_on,66,40,0
1,note_on,66,0,120
1,note_on,60,0,0
1,note_on,58,45,120
1,note_on,67,45,0
1,note_on,67,0,120
1,note_on,58,0,0
1,note_on,66,27,240
1,note_on,66,0,120
1,note_on,62,42,0
1,note_on,69,42,0
1,note_on,69,0,120
1,note_on,62,0,0
1,note_on,67,45,120
1,note_on,70,45,0
1,note_on,70,0,120
1,note_on,67,0,0
1,note_on,69,26,240
1,note_on,69,0,120
1,note_on,67,45,0
1,note_on,72,45,0
1,note_on,72,0,120
1,note_on,67,0,0
1,note_on,70,45,120
1,note_on,74,45,0
1,note_on,74,0,120
1,note_on,70,0,0
1,note_on,75,26,240
1,note_on,75,0,120
1,note_on,72,35,0
1,note_on,79,42,0
1,note_on,79,0,240
1,note_on,72,0,0
1,note_on,70,35,0
1,note_on,74,42,0
1,note_on,74,0,240
1,note_on,70,0,0
1,note_on,67,28,120
1,note_on,67,0,120
1,note_on,62,45,0
1,note_on,70,45,0
1,note_on,70,0,120
1,note_on,62,0,0
1,note_on,69,47,120
1,note_on,69,0,120
1,note_on,69,36,240
1,note_on,69,0,120
1,note_on,63,45,0
1,note_on,72,45,0
1,note_on,72,0,120
1,note_on,63,0,0
1,note_on,70,46,120
1,note_on,70,0,120
1,note_on,66,29,240
1,note_on,66,0,120
1,note_on,60,36,0
1,note_on,69,36,0
1,note_on,69,0,120
1,note_on,60,0,0
1,note_on,58,42,120
1,note_on,67,42,0
1,note_on,67,0,120
1,note_on,58,0,0
1,note_on,58,35,240
1,note_on,58,0,120
1,note_on,62,41,0
1,note_on,62,0,240
1,note_on,55,39,0
1,note_on,55,0,120
1,note_on,58,27,240
1,note_on,58,0,120
1,note_on,55,40,0
1,note_on,62,40,0
1,note_on,62,0,120
1,note_on,55,0,0
1,note_on,54,45,120
1,note_on,62,45,0
1,note_on,62,0,120
1,note_on,54,0,0
1,note_on,58,27,240
1,note_on,58,0,120
1,note_on,55,42,0
1,note_on,64,42,0
1,note_on,64,0,120
1,note_on,55,0,0
1,note_on,57,45,120
1,note_on,66,45,0
1,note_on,66,0,120
1,note_on,57,0,0
1,note_on,62,26,240
1,note_on,62,0,120
1,note_on,58,45,0
1,note_on,67,45,0
1,note_on,67,0,120
1,note_on,58,0,0
1,note_on,60,45,120
1,note_on,69,45,0
1,note_on,69,0,120
1,note_on,60,0,0
1,note_on,65,26,240
1,note_on,65,0,120
1,note_on,62,46,0
1,note_on,71,46,0
1,note_on,71,0,120
1,note_on,62,0,0
1,note_on,63,50,120
1,note_on,72,50,0
1,note_on,72,0,120
1,note_on,63,0,0
1,note_on,68,28,240
1,note_on,68,0,120
1,note_on,65,45,0
1,note_on,74,45,0
1,note_on,74,0,120
1,note_on,65,0,0
1,note_on,63,45,120
1,note_on,72,47,0
1,note_on,72,0,120
1,note_on,63,0,0
1,note_on,67,36,240
1,note_on,67,0,120
1,note_on,62,45,0
1,note_on,71,45,0
1,note_on,71,0,120
1,note_on,62,0,0
1,note_on,63,45,120
1,note_on,72,46,0
1,note_on,72,0,120
1,note_on,63,0,0
1,note_on,68,29,240
1,note_on,68,0,120
1,note_on,65,36,0
1,note_on,74,36,0
1,note_on,74,0,120
1,note_on,65,0,0
1,note_on,63,42,120
1,note_on,72,42,0
1,note_on,72,0,120
1,note_on,63,0,0
1,note_on,67,22,240
1,note_on,67,0,120
1,note_on,62,36,0
1,note_on,71,36,0
1,note_on,71,0,120
1,note_on,62,0,0
1,note_on,63,36,120
1,note_on,72,36,0
1,note_on,72,0,120
1,note_on,63,0,0
1,note_on,62,27,240
1,note_on,62,0,120
1,note_on,58,40,0
1,note_on,65,40,0
1,note_on,65,0,120
1,note_on,58,0,0
1,note_on,57,45,120
1,note_on,65,45,0
1,note_on,65,0,120
1,note_on,57,0,0
1,note_on,63,27,240
1,note_on,63,0,120
1,note_on,58,42,0
1,note_on,67,42,0
1,note_on,67,0,120
1,note_on,58,0,0
1,note_on,60,45,120
1,note_on,69,45,0
1,note_on,69,0,120
1,note_on,60,0,0
1,note_on,65,26,240
1,note_on,65,0,120
1,note_on,62,45,0
1,note_on,70,45,0
1,note_on,70,0,120
1,note_on,62,0,0
1,note_on,63,45,120
1,note_on,72,45,0
1,note_on,72,0,120
1,note_on,63,0,0
1,note_on,68,26,240
1,note_on,68,0,120
1,note_on,65,50,0
1,note_on,74,50,0
1,note_on,74,0,120
1,note_on,65,0,0
1,note_on,67,50,120
1,note_on,75,50,0
1,note_on,75,0,120
1,note_on,67,0,0
1,note_on,71,28,240
1,note_on,71,0,120
1,note_on,68,50,0
1,note_on,77,50,0
1,note_on,77,0,120
1,note_on,68,0,0
1,note_on,72,54,120
1,note_on,67,54,0
1,note_on,75,54,0
1,note_on,75,0,120
1,note_on,67,0,0
1,note_on,72,0,0
1,note_on,68,42,240
1,note_on,68,0,120
1,note_on,65,51,0
1,note_on,74,51,0
1,note_on,74,0,120
1,note_on,65,0,0
1,note_on,69,45,120
1,note_on,63,45,0
1,note_on,72,46,0
1,note_on,72,0,120
1,note_on,63,0,0
1,note_on,69,0,0
1,note_on,67,29,240
1,note_on,67,0,120
1,note_on,64,36,0
1,note_on,70,36,0
1,note_on,70,0,120
1,note_on,64,0,0
1,note_on,66,42,120
1,note_on,69,42,0
1,note_on,69,0,120
1,note_on,66,0,0
1,note_on,64,22,240
1,note_on,64,0,120
1,note_on,61,36,0
1,note_on,67,36,0
1,note_on,67,0,120
1,note_on,61,0,0
1,note_on,62,36,120
1,note_on,66,36,0
1,note_on,66,0,120
1,note_on,62,0,0
1,note_on,62,27,240
1,note_on,62,0,120
1,note_on,60,40,0
1,note_on,66,40,0
1,note_on,66,0,120
1,note_on,60,0,0
1,note_on,58,45,120
1,note_on,67,45,0
1,note_on,67,0,120
1,note_on,58,0,0
1,note_on,66,27,240
1,note_on,66,0,120
1,note_on,62,42,0
1,note_on,69,42,0
1,note_on,69,0,120
1,note_on,62,0,0
1,note_on,67,45,120
1,note_on,70,45,0
1,note_on,70,0,120
1,note_on,67,0,0
1,note_on,69,26,240
1,note_on,69,0,120
1,note_on,67,45,0
1,note_on,72,45,0
1,note_on,72,0,120
1,note_on,67,0,0
1,note_on,70,45,120
1,note_on,74,45,0
1,note_on,74,0,120
1,note_on,70,0,0
1,note_on,75,26,240
1,note_on,75,0,120
1,note_on,72,35,0
1,note_on,79,42,0
1,note_on,79,0,240
1,note_on,72,0,0
1,note_on,70,35,0
1,note_on,74,42,0
1,note_on,74,0,240
1,note_on,70,0,0
1,note_on,67,28,120
1,note_on,67,0,120
1,note_on,62,45,0
1,note_on,70,45,0
1,note_on,70,0,120
1,note_on,62,0,0
1,note_on,69,47,120
1,note_on,69,0,120
1,note_on,69,36,240
1,note_on,69,0,120
1,note_on,63,45,0
1,note_on,72,45,0
1,note_on,72,0,120
1,note_on,63,0,0
1,note_on,70,46,120
1,note_on,70,0,120
1,note_on,66,29,240
1,note_on,66,0,120
1,note_on,60,36,0
1,note_on,69,36,0
1,note_on,69,0,120
1,note_on,60,0,0
1,note_on,58,42,120
1,note_on,67,42,0
1,note_on,67,0,120
1,note_on,58,0,0
1,note_on,60,22,240
1,note_on,60,0,120
1,note_on,57,36,0
1,note_on,63,36,0
1,note_on,63,0,120
1,note_on,57,0,0
1,note_on,58,36,120
1,note_on,62,36,0
1,note_on,62,0,120
1,note_on,58,0,0
1,note_on,62,27,240
1,note_on,62,0,120
1,note_on,60,40,0
1,note_on,66,40,0
1,note_on,66,0,120
1,note_on,60,0,0
1,note_on,58,45,120
1,note_on,67,45,0
1,note_on,67,0,120
1,note_on,58,0,0
1,note_on,66,27,240
1,note_on,66,0,120
1,note_on,62,42,0
1,note_on,69,42,0
1,note_on,69,0,120
1,note_on,62,0,0
1,note_on,67,45,120
1,note_on,70,45,0
1,note_on,70,0,120
1,note_on,67,0,0
1,note_on,69,26,240
1,note_on,69,0,120
1,note_on,67,45,0
1,note_on,72,45,0
1,note_on,72,0,120
1,note_on,67,0,0
1,note_on,70,45,120
1,note_on,74,45,0
1,note_on,74,0,120
1,note_on,70,0,0
1,note_on,75,26,240
1,note_on,75,0,120
1,note_on,72,50,0
1,note_on,79,50,0
1,note_on,79,0,240
1,note_on,72,0,0
1,note_on,70,50,0
1,note_on,74,50,0
1,note_on,74,0,240
1,note_on,70,0,0
1,note_on,67,28,120
1,note_on,67,0,120
1,note_on,62,45,0
1,note_on,70,45,0
1,note_on,70,0,120
1,note_on,62,0,0
1,note_on,69,47,120
1,note_on,69,0,120
1,note_on,69,36,240
1,note_on,69,0,120
1,note_on,63,45,0
1,note_on,72,45,0
1,note_on,72,0,120
1,note_on,63,0,0
1,note_on,70,46,120
1,note_on,70,0,120
1,note_on,66,29,240
1,note_on,66,0,120
1,note_on,60,36,0
1,note_on,69,36,0
1,note_on,69,0,120
1,note_on,60,0,0
1,note_on,58,42,120
1,note_on,67,42,0
1,note_on,67,0,120
1,note_on,58,0,0
1,note_on,58,35,240
1,note_on,58,0,120
1,note_on,62,41,0
1,note_on,62,0,240
1,note_on,55,39,0
1,note_on,55,0,120
1,note_on,58,27,240
1,note_on,58,0,120
1,note_on,55,40,0
1,note_on,62,40,0
1,note_on,62,0,120
1,note_on,55,0,0
1,note_on,54,45,120
1,note_on,62,45,0
1,note_on,62,0,120
1,note_on,54,0,0
1,note_on,58,27,240
1,note_on,58,0,120
1,note_on,55,42,0
1,note_on,64,42,0
1,note_on,64,0,120
1,note_on,55,0,0
1,note_on,57,45,120
1,note_on,66,45,0
1,note_on,66,0,120
1,note_on,57,0,0
1,note_on,62,26,240
1,note_on,62,0,120
1,note_on,58,45,0
1,note_on,67,45,0
1,note_on,67,0,120
1,note_on,58,0,0
1,note_on,60,45,120
1,note_on,69,45,0
1,note_on,69,0,120
1,note_on,60,0,0
1,note_on,65,26,240
1,note_on,65,0,120
1,note_on,62,46,0
1,note_on,71,46,0
1,note_on,71,0,120
1,note_on,62,0,0
1,note_on,63,50,120
1,note_on,72,50,0
1,note_on,72,0,120
1,note_on,63,0,0
1,note_on,68,28,240
1,note_on,68,0,120
1,note_on,65,45,0
1,note_on,74,45,0
1,note_on,74,0,120
1,note_on,65,0,0
1,note_on,63,45,120
1,note_on,72,47,0
1,note_on,72,0,120
1,note_on,63,0,0
1,note_on,67,36,240
1,note_on,67,0,120
1,note_on,62,45,0
1,note_on,71,45,0
1,note_on,71,0,120
1,note_on,62,0,0
1,note_on,63,45,120
1,note_on,72,46,0
1,note_on,72,0,120
1,note_on,63,0,0
1,note_on,68,29,240
1,note_on,68,0,120
1,note_on,65,36,0
1,note_on,74,36,0
1,note_on,74,0,120
1,note_on,65,0,0
1,note_on,63,42,120
1,note_on,72,42,0
1,note_on,72,0,120
1,note_on,63,0,0
1,note_on,67,22,240
1,note_on,67,0,120
1,note_on,62,36,0
1,note_on,71,36,0
1,note_on,71,0,120
1,note_on,62,0,0
1,note_on,63,36,120
1,note_on,72,36,0
1,note_on,72,0,120
1,note_on,63,0,0
1,note_on,62,27,240
1,note_on,62,0,120
1,note_on,58,40,0
1,note_on,65,40,0
1,note_on,65,0,120
1,note_on,58,0,0
1,note_on,57,45,120
1,note_on,65,45,0
1,note_on,65,0,120
1,note_on,57,0,0
1,note_on,63,27,240
1,note_on,63,0,120
1,note_on,58,42,0
1,note_on,67,42,0
1,note_on,67,0,120
1,note_on,58,0,0
1,note_on,60,45,120
1,note_on,69,45,0
1,note_on,69,0,120
1,note_on,60,0,0
1,note_on,65,26,240
1,note_on,65,0,120
1,note_on,62,45,0
1,note_on,70,45,0
1,note_on,70,0,120
1,note_on,62,0,0
1,note_on,63,45,120
1,note_on,72,45,0
1,note_on,72,0,120
1,note_on,63,0,0
1,note_on,68,26,240
1,note_on,68,0,120
1,note_on,65,50,0
1,note_on,74,50,0
1,note_on,74,0,120
1,note_on,65,0,0
1,note_on,67,50,120
1,note_on,75,50,0
1,note_on,75,0,120
1,note_on,67,0,0
1,note_on,71,28,240
1,note_on,71,0,120
1,note_on,68,50,0
1,note_on,77,50,0
1,note_on,77,0,120
1,note_on,68,0,0
1,note_on,72,54,120
1,note_on,67,54,0
1,note_on,75,54,0
1,note_on,75,0,120
1,note_on,67,0,0
1,note_on,72,0,0
1,note_on,68,42,240
1,note_on,68,0,120
1,note_on,65,51,0
1,note_on,74,51,0
1,note_on,74,0,120
1,note_on,65,0,0
1,note_on,69,45,120
1,note_on,63,45,0
1,note_on,72,46,0
1,note_on,72,0,120
1,note_on,63,0,0
1,note_on,69,0,0
1,note_on,67,29,240
1,note_on,67,0,120
1,note_on,64,36,0
1,note_on,70,36,0
1,note_on,70,0,120
1,note_on,64,0,0
1,note_on,66,42,120
1,note_on,69,42,0
1,note_on,69,0,120
1,note_on,66,0,0
1,note_on,64,22,240
1,note_on,64,0,120
1,note_on,61,36,0
1,note_on,67,36,0
1,note_on,67,0,120
1,note_on,61,0,0
1,note_on,62,36,120
1,note_on,66,36,0
1,note_on,66,0,120
1,note_on,62,0,0
1,note_on,62,27,240
1,note_on,62,0,120
1,note_on,60,40,0
1,note_on,66,40,0
1,note_on,66,0,120
1,note_on,60,0,0
1,note_on,58,45,120
1,note_on,67,45,0
1,note_on,67,0,120
1,note_on,58,0,0
1,note_on,66,27,240
1,note_on,66,0,90
1,note_on,62,42,30
1,note_on,69,42,0
1,note_on,69,0,90
1,note_on,62,0,0
1,note_on,67,45,150
1,note_on,70,45,0
1,note_on,70,0,90
1,note_on,67,0,0
1,note_on,69,26,270
1,note_on,69,0,120
1,note_on,67,45,0
1,note_on,72,45,0
1,note_on,72,0,120
1,note_on,67,0,0
1,note_on,70,45,120
1,note_on,74,45,0
1,note_on,74,0,120
1,note_on,70,0,0
1,note_on,75,26,240
1,note_on,75,0,120
1,note_on,72,35,0
1,note_on,79,42,0
1,note_on,79,0,240
1,note_on,72,0,0
1,note_on,70,35,0
1,note_on,74,42,0
1,note_on,74,0,240
1,note_on,70,0,0
1,note_on,67,28,120
1,note_on,67,0,120
1,note_on,62,45,0
1,note_on,70,45,0
1,note_on,70,0,120
1,note_on,62,0,0
1,note_on,69,47,120
1,note_on,69,0,120
1,note_on,69,36,240
1,note_on,69,0,120
1,note_on,63,45,0
1,note_on,72,45,0
1,note_on,72,0,120
1,note_on,63,0,0
1,note_on,70,46,120
1,note_on,70,0,120
1,note_on,66,29,240
1,note_on,66,0,120
1,note_on,60,36,0
1,note_on,69,36,0
1,note_on,69,0,120
1,note_on,60,0,0
1,note_on,58,42,120
1,note_on,67,42,0
1,note_on,67,0,120
1,note_on,58,0,0
1,note_on,60,22,240
1,note_on,60,0,120
1,note_on,57,36,0
1,note_on,63,36,0
1,note_on,63,0,120
1,note_on,57,0,0
1,note_on,58,36,120
1,note_on,62,36,0
1,note_on,62,0,120
1,note_on,58,0,0
1,note_on,62,27,240
1,note_on,62,0,120
1,note_on,60,40,0
1,note_on,66,40,0
1,note_on,66,0,120
1,note_on,60,0,0
1,note_on,58,45,120
1,note_on,67,45,0
1,note_on,67,0,120
1,note_on,58,0,0
1,note_on,66,27,240
1,note_on,66,0,120
1,note_on,62,42,0
1,note_on,69,42,0
1,note_on,69,0,120
1,note_on,62,0,0
1,note_on,67,45,120
1,note_on,70,45,0
1,note_on,70,0,120
1,note_on,67,0,0
1,note_on,69,26,240
1,note_on,69,0,120
1,note_on,67,45,0
1,note_on,72,45,0
1,note_on,72,0,120
1,note_on,67,0,0
1,note_on,70,45,120
1,note_on,74,45,0
1,note_on,74,0,120
1,note_on,70,0,0
1,note_on,75,26,240
1,note_on,75,0,120
1,note_on,72,35,0
1,note_on,79,42,0
1,note_on,79,0,240
1,note_on,72,0,0
1,note_on,70,35,0
1,note_on,74,42,0
1,note_on,74,0,240
1,note_on,70,0,0
1,note_on,67,28,120
1,note_on,67,0,120
1,note_on,62,45,0
1,note_on,70,45,0
1,note_on,70,0,120
1,note_on,62,0,0
1,note_on,69,47,120
1,note_on,69,0,120
1,note_on,69,36,240
1,note_on,69,0,120
1,note_on,63,45,0
1,note_on,72,45,0
1,note_on,72,0,120
1,note_on,63,0,0
1,note_on,70,46,120
1,note_on,70,0,120
1,note_on,66,29,240
1,note_on,66,0,120
1,note_on,60,36,0
1,note_on,69,36,0
1,note_on,69,0,120
1,note_on,60,0,0
1,note_on,58,42,120
1,note_on,67,42,0
1,note_on,67,0,120
1,note_on,58,0,0
1,note_on,58,35,240
1,note_on,58,0,120
1,note_on,62,41,0
1,note_on,62,0,240
1,note_on,55,39,0
1,note_on,55,0,120
1,note_on,53,31,240
1,note_on,53,0,120
1,note_on,58,46,0
1,note_on,58,0,240
1,note_on,50,51,0
1,note_on,50,0,240
1,note_on,65,33,120
1,note_on,70,46,90
1,note_on,65,0,30
1,note_on,70,0,240
1,note_on,62,43,0
1,note_on,62,0,240
1,note_on,55,29,120
1,note_on,58,42,90
1,note_on,55,0,30
1,note_on,58,0,240
1,note_on,48,51,0
1,note_on,48,0,240
1,note_on,67,31,120
1,note_on,70,58,90
1,note_on,67,0,30
1,note_on,70,0,240
1,note_on,60,54,0
1,note_on,60,0,240
1,note_on,55,29,120
1,note_on,58,55,90
1,note_on,55,0,30
1,note_on,58,0,240
1,note_on,48,51,0
1,note_on,48,0,240
1,note_on,67,31,120
1,note_on,70,52,90
1,note_on,67,0,30
1,note_on,70,0,240
1,note_on,60,51,0
1,note_on,60,0,240
1,note_on,53,36,120
1,note_on,57,49,90
1,note_on,53,0,30
1,note_on,57,0,240
1,note_on,48,51,0
1,note_on,48,0,240
1,note_on,65,31,120
1,note_on,69,48,90
1,note_on,65,0,30
1,note_on,69,0,240
1,note_on,60,41,0
1,note_on,60,0,240
1,note_on,53,29,120
1,note_on,58,42,90
1,note_on,53,0,30
1,note_on,58,0,240
1,note_on,50,51,0
1,note_on,50,0,240
1,note_on,65,33,120
1,note_on,70,57,90
1,note_on,65,0,30
1,note_on,70,0,240
1,note_on,62,43,0
1,note_on,62,0,240
1,note_on,55,29,120
1,note_on,58,50,90
1,note_on,55,0,30
1,note_on,58,0,240
1,note_on,48,51,0
1,note_on,48,0,240
1,note_on,67,31,120
1,note_on,70,58,90
1,note_on,67,0,30
1,note_on,70,0,240
1,note_on,60,54,0
1,note_on,60,0,240
1,note_on,55,29,120
1,note_on,58,55,90
1,note_on,55,0,30
1,note_on,58,0,240
1,note_on,48,51,0
1,note_on,48,0,240
1,note_on,67,31,120
1,note_on,70,57,90
1,note_on,67,0,30
1,note_on,70,0,240
1,note_on,60,51,0
1,note_on,60,0,240
1,note_on,53,36,120
1,note_on,57,49,90
1,note_on,53,0,30
1,note_on,57,0,240
1,note_on,48,51,0
1,note_on,48,0,240
1,note_on,65,31,120
1,note_on,69,48,90
1,note_on,65,0,30
1,note_on,69,0,240
1,note_on,60,41,0
1,note_on,60,0,240
1,note_on,58,29,120
1,note_on,62,42,90
1,note_on,58,0,30
1,note_on,62,0,240
1,note_on,53,51,0
1,note_on,53,0,240
1,note_on,70,33,120
1,note_on,74,57,90
1,note_on,70,0,30
1,note_on,74,0,240
1,note_on,65,43,0
1,note_on,65,0,240
1,note_on,59,29,120
1,note_on,62,50,90
1,note_on,59,0,30
1,note_on,62,0,240
1,note_on,53,51,0
1,note_on,53,0,240
1,note_on,71,31,120
1,note_on,74,58,90
1,note_on,71,0,30
1,note_on,74,0,240
1,note_on,65,54,0
1,note_on,65,0,240
1,note_on,59,29,120
1,note_on,62,55,90
1,note_on,59,0,30
1,note_on,62,0,240
1,note_on,55,51,0
1,note_on,55,0,240
1,note_on,71,31,120
1,note_on,74,57,90
1,note_on,71,0,30
1,note_on,74,0,240
1,note_on,67,51,0
1,note_on,67,0,240
1,note_on,60,36,120
1,note_on,63,49,90
1,note_on,60,0,30
1,note_on,63,0,240
1,note_on,55,51,0
1,note_on,55,0,240
1,note_on,72,31,120
1,note_on,75,48,90
1,note_on,72,0,30
1,note_on,75,0,240
1,note_on,67,41,0
1,note_on,67,0,240
1,note_on,60,29,120
1,note_on,63,42,90
1,note_on,60,0,30
1,note_on,63,0,240
1,note_on,55,51,0
1,note_on,55,0,240
1,note_on,72,33,120
1,note_on,75,57,90
1,note_on,72,0,30
1,note_on,75,0,240
1,note_on,67,43,0
1,note_on,67,0,240
1,note_on,61,29,120
1,note_on,64,50,90
1,note_on,61,0,30
1,note_on,64,0,240
1,note_on,55,51,0
1,note_on,55,0,240
1,note_on,73,31,120
1,note_on,76,58,90
1,note_on,73,0,30
1,note_on,76,0,240
1,note_on,67,54,0
1,note_on,67,0,240
1,note_on,61,29,120
1,note_on,64,55,90
1,note_on,61,0,30
1,note_on,64,0,240
1,note_on,57,51,0
1,note_on,57,0,240
1,note_on,73,31,120
1,note_on,76,57,90
1,note_on,73,0,30
1,note_on,76,0,240
1,note_on,69,51,0
1,note_on,69,0,240
1,note_on,57,36,120
1,note_on,62,49,90
1,note_on,57,0,30
1,note_on,62,0,240
1,note_on,50,51,0
1,note_on,50,0,240
1,note_on,69,31,120
1,note_on,74,48,90
1,note_on,69,0,30
1,note_on,74,0,240
1,note_on,62,41,0
1,note_on,62,0,240
1,note_on,53,29,120
1,note_on,58,42,90
1,note_on,53,0,30
1,note_on,58,0,240
1,note_on,50,51,0
1,note_on,50,0,240
1,note_on,65,33,120
1,note_on,70,57,90
1,note_on,65,0,30
1,note_on,70,0,240
1,note_on,62,43,0
1,note_on,62,0,240
1,note_on,54,29,120
1,note_on,58,50,90
1,note_on,54,0,30
1,note_on,58,0,240
1,note_on,48,51,0
1,note_on,48,0,240
1,note_on,66,31,120
1,note_on,70,58,90
1,note_on,66,0,30
1,note_on,70,0,240
1,note_on,60,54,0
1,note_on,60,0,240
1,note_on,54,29,120
1,note_on,58,55,90
1,note_on,54,0,30
1,note_on,58,0,240
1,note_on,48,62,0
1,note_on,48,0,240
1,note_on,66,33,120
1,note_on,70,57,90
1,note_on,66,0,30
1,note_on,70,0,240
1,note_on,53,29,360
1,note_on,58,57,90
1,note_on,53,0,30
1,note_on,58,0,240
1,note_on,46,62,0
1,note_on,46,0,240
1,note_on,65,31,120
1,note_on,70,62,90
1,note_on,65,0,30
1,note_on,70,0,240
1,note_on,58,56,0
1,note_on,58,0,240
1,note_on,58,39,120
1,note_on,62,55,90
1,note_on,58,0,30
1,note_on,62,0,240
1,note_on,53,51,0
1,note_on,53,0,240
1,note_on,70,33,120
1,note_on,74,57,90
1,note_on,70,0,30
1,note_on,74,0,240
1,note_on,65,43,0
1,note_on,65,0,240
1,note_on,58,29,120
1,note_on,62,50,90
1,note_on,58,0,30
1,note_on,62,0,240
1,note_on,52,51,0
1,note_on,52,0,240
1,note_on,70,31,120
1,note_on,74,58,90
1,note_on,70,0,30
1,note_on,74,0,240
1,note_on,64,54,0
1,note_on,64,0,240
1,note_on,58,29,120
1,note_on,62,55,90
1,note_on,58,0,30
1,note_on,62,0,240
1,note_on,52,62,0
1,note_on,52,0,240
1,note_on,70,33,120
1,note_on,74,57,90
1,note_on,70,0,30
1,note_on,74,0,240
1,note_on,57,29,360
1,note_on,62,57,90
1,note_on,57,0,30
1,note_on,62,0,240
1,note_on,50,62,0
1,note_on,50,0,240
1,note_on,69,31,120
1,note_on,74,62,90
1,note_on,69,0,30
1,note_on,74,0,240
1,note_on,62,56,0
1,note_on,62,0,240
1,note_on,67,39,120
1,note_on,67,0,120
1,note_on,65,46,0
1,note_on,71,46,0
1,note_on,71,0,120
1,note_on,65,0,0
1,note_on,63,51,120
1,note_on,72,51,0
1,note_on,72,0,120
1,note_on,63,0,0
1,note_on,71,31,240
1,note_on,71,0,120
1,note_on,67,48,0
1,note_on,74,48,0
1,note_on,74,0,120
1,note_on,67,0,0
1,note_on,72,51,120
1,note_on,75,51,0
1,note_on,75,0,120
1,note_on,72,0,0
1,note_on,74,29,240
1,note_on,74,0,120
1,note_on,72,51,0
1,note_on,77,51,0
1,note_on,77,0,120
1,note_on,72,0,0
1,note_on,75,51,120
1,note_on,79,51,0
1,note_on,79,0,120
1,note_on,75,0,0
1,note_on,80,29,240
1,note_on,80,0,120
1,note_on,77,40,0
1,note_on,84,48,0
1,note_on,84,0,240
1,note_on,77,0,0
1,note_on,75,40,0
1,note_on,79,48,0
1,note_on,79,0,240
1,note_on,75,0,0
1,note_on,72,32,120
1,note_on,72,0,120
1,note_on,67,51,0
1,note_on,75,51,0
1,note_on,75,0,120
1,note_on,67,0,0
1,note_on,74,54,120
1,note_on,74,0,120
1,note_on,74,41,240
1,note_on,74,0,120
1,note_on,68,51,0
1,note_on,77,51,0
1,note_on,77,0,120
1,note_on,68,0,0
1,note_on,75,52,120
1,note_on,75,0,120
1,note_on,71,33,240
1,note_on,71,0,120
1,note_on,65,41,0
1,note_on,74,41,0
1,note_on,74,0,120
1,note_on,65,0,0
1,note_on,63,48,120
1,note_on,72,48,0
1,note_on,72,0,120
1,note_on,63,0,0
1,note_on,65,25,240
1,note_on,65,0,120
1,note_on,62,41,0
1,note_on,68,41,0
1,note_on,68,0,120
1,note_on,62,0,0
1,note_on,63,41,120
1,note_on,67,41,0
1,note_on,67,0,120
1,note_on,63,0,0
1,note_on,67,31,240
1,note_on,67,0,120
1,note_on,60,46,0
1,note_on,66,46,0
1,note_on,66,0,120
1,note_on,60,0,0
1,note_on,58,51,120
1,note_on,67,51,0
1,note_on,67,0,120
1,note_on,58,0,0
1,note_on,66,31,240
1,note_on,66,0,120
1,note_on,62,48,0
1,note_on,69,48,0
1,note_on,69,0,120
1,note_on,62,0,0
1,note_on,67,51,120
1,note_on,70,51,0
1,note_on,70,0,120
1,note_on,67,0,0
1,note_on,69,29,240
1,note_on,69,0,120
1,note_on,67,51,0
1,note_on,72,51,0
1,note_on,72,0,120
1,note_on,67,0,0
1,note_on,70,51,120
1,note_on,74,51,0
1,note_on,74,0,120
1,note_on,70,0,0
1,note_on,75,29,240
1,note_on,75,0,120
1,note_on,72,48,0
1,note_on,79,57,0
1,note_on,79,0,240
1,note_on,72,0,0
1,note_on,70,48,0
1,note_on,74,57,0
1,note_on,74,0,240
1,note_on,70,0,0
1,note_on,67,32,120
1,note_on,67,0,120
1,note_on,62,51,0
1,note_on,70,51,0
1,note_on,70,0,120
1,note_on,62,0,0
1,note_on,69,54,120
1,note_on,69,0,120
1,note_on,69,41,240
1,note_on,69,0,120
1,note_on,63,51,0
1,note_on,72,51,0
1,note_on,72,0,120
1,note_on,63,0,0
1,note_on,70,52,120
1,note_on,70,0,120
1,note_on,66,33,240
1,note_on,66,0,120
1,note_on,60,41,0
1,note_on,69,41,0
1,note_on,69,0,120
1,note_on,60,0,0
1,note_on,58,48,120
1,note_on,67,48,0
1,note_on,67,0,120
1,note_on,58,0,0
1,note_on,58,40,240
1,note_on,58,0,120
1,note_on,62,47,0
1,note_on,62,0,240
1,note_on,55,44,0
1,note_on,55,0,120
1,note_on,58,31,240
1,note_on,58,0,120
1,note_on,55,46,0
1,note_on,62,46,0
1,note_on,62,0,120
1,note_on,55,0,0
1,note_on,54,51,120
1,note_on,62,51,0
1,note_on,62,0,120
1,note_on,54,0,0
1,note_on,58,31,240
1,note_on,58,0,120
1,note_on,55,48,0
1,note_on,64,48,0
1,note_on,64,0,120
1,note_on,55,0,0
1,note_on,57,51,120
1,note_on,66,51,0
1,note_on,66,0,120
1,note_on,57,0,0
1,note_on,62,29,240
1,note_on,62,0,120
1,note_on,58,51,0
1,note_on,67,51,0
1,note_on,67,0,120
1,note_on,58,0,0
1,note_on,60,51,120
1,note_on,69,51,0
1,note_on,69,0,120
1,note_on,60,0,0
1,note_on,65,29,240
1,note_on,65,0,120
1,note_on,62,52,0
1,note_on,71,52,0
1,note_on,71,0,120
1,note_on,62,0,0
1,note_on,63,57,120
1,note_on,72,57,0
1,note_on,72,0,120
1,note_on,63,0,0
1,note_on,68,32,240
1,note_on,68,0,120
1,note_on,65,51,0
1,note_on,74,51,0
1,note_on,74,0,120
1,note_on,65,0,0
1,note_on,63,51,120
1,note_on,72,54,0
1,note_on,72,0,120
1,note_on,63,0,0
1,note_on,67,41,240
1,note_on,67,0,120
1,note_on,62,51,0
1,note_on,71,51,0
1,note_on,71,0,120
1,note_on,62,0,0
1,note_on,63,51,120
1,note_on,72,52,0
1,note_on,72,0,120
1,note_on,63,0,0
1,note_on,68,33,240
1,note_on,68,0,120
1,note_on,65,41,0
1,note_on,74,41,0
1,note_on,74,0,120
1,note_on,65,0,0
1,note_on,63,48,120
1,note_on,72,48,0
1,note_on,72,0,120
1,note_on,63,0,0
1,note_on,67,25,240
1,note_on,67,0,120
1,note_on,62,41,0
1,note_on,71,41,0
1,note_on,71,0,120
1,note_on,62,0,0
1,note_on,63,41,120
1,note_on,72,41,0
1,note_on,72,0,120
1,note_on,63,0,0
1,note_on,62,31,240
1,note_on,62,0,120
1,note_on,58,46,0
1,note_on,65,46,0
1,note_on,65,0,120
1,note_on,58,0,0
1,note_on,57,51,120
1,note_on,65,51,0
1,note_on,65,0,120
1,note_on,57,0,0
1,note_on,63,31,240
1,note_on,63,0,120
1,note_on,58,48,0
1,note_on,67,48,0
1,note_on,67,0,120
1,note_on,58,0,0
1,note_on,60,51,120
1,note_on,69,51,0
1,note_on,69,0,120
1,note_on,60,0,0
1,note_on,65,29,240
1,note_on,65,0,120
1,note_on,62,51,0
1,note_on,70,51,0
1,note_on,70,0,120
1,note_on,62,0,0
1,note_on,63,51,120
1,note_on,72,51,0
1,note_on,72,0,120
1,note_on,63,0,0
1,note_on,68,29,240
1,note_on,68,0,120
1,note_on,65,57,0
1,note_on,74,57,0
1,note_on,74,0,120
1,note_on,65,0,0
1,note_on,67,57,120
1,note_on,75,57,0
1,note_on,75,0,120
1,note_on,67,0,0
1,note_on,71,32,240
1,note_on,71,0,120
1,note_on,68,57,0
1,note_on,77,57,0
1,note_on,77,0,120
1,note_on,68,0,0
1,note_on,72,62,120
1,note_on,67,62,0
1,note_on,75,62,0
1,note_on,75,0,120
1,note_on,67,0,0
1,note_on,72,0,0
1,note_on,68,47,240
1,note_on,68,0,120
1,note_on,65,57,0
1,note_on,74,57,0
1,note_on,74,0,120
1,note_on,65,0,0
1,note_on,69,49,120
1,note_on,63,49,0
1,note_on,72,51,0
1,note_on,72,0,120
1,note_on,63,0,0
1,note_on,69,0,0
1,note_on,67,31,240
1,note_on,67,0,120
1,note_on,64,38,0
1,note_on,70,38,0
1,note_on,70,0,120
1,note_on,64,0,0
1,note_on,66,44,120
1,note_on,69,44,0
1,note_on,69,0,120
1,note_on,66,0,0
1,note_on,64,22,240
1,note_on,64,0,120
1,note_on,61,37,0
1,note_on,67,37,0
1,note_on,67,0,120
1,note_on,61,0,0
1,note_on,62,36,120
1,note_on,66,36,0
1,note_on,66,0,120
1,note_on,62,0,0
1,note_on,62,27,240
1,note_on,62,0,120
1,note_on,60,40,0
1,note_on,66,40,0
1,note_on,66,0,120
1,note_on,60,0,0
1,note_on,58,45,120
1,note_on,67,45,0
1,note_on,67,0,120
1,note_on,58,0,0
1,note_on,66,27,240
1,note_on,66,0,120
1,note_on,62,42,0
1,note_on,69,42,0
1,note_on,69,0,120
1,note_on,62,0,0
1,note_on,67,45,120
1,note_on,70,45,0
1,note_on,70,0,120
1,note_on,67,0,0
1,note_on,69,26,240
1,note_on,69,0,120
1,note_on,67,45,0
1,note_on,72,45,0
1,note_on,72,0,120
1,note_on,67,0,0
1,note_on,70,45,120
1,note_on,74,45,0
1,note_on,74,0,120
1,note_on,70,0,0
1,note_on,75,26,240
1,note_on,75,0,120
1,note_on,72,35,0
1,note_on,79,42,0
1,note_on,79,0,240
1,note_on,72,0,0
1,note_on,70,35,0
1,note_on,74,42,0
1,note_on,74,0,240
1,note_on,70,0,0
1,note_on,67,28,120
1,note_on,67,0,120
1,note_on,62,45,0
1,note_on,70,45,0
1,note_on,70,0,120
1,note_on,62,0,0
1,note_on,69,47,120
1,note_on,69,0,120
1,note_on,69,36,240
1,note_on,69,0,120
1,note_on,63,45,0
1,note_on,72,45,0
1,note_on,72,0,120
1,note_on,63,0,0
1,note_on,70,46,120
1,note_on,70,0,120
1,note_on,66,29,240
1,note_on,66,0,120
1,note_on,60,36,0
1,note_on,69,36,0
1,note_on,69,0,120
1,note_on,60,0,0
1,note_on,58,42,120
1,note_on,67,42,0
1,note_on,67,0,120
1,note_on,58,0,0
1,note_on,60,22,240
1,note_on,60,0,120
1,note_on,57,36,0
1,note_on,63,36,0
1,note_on,63,0,120
1,note_on,57,0,0
1,note_on,58,36,120
1,note_on,62,36,0
1,note_on,62,0,120
1,note_on,58,0,0
1,note_on,62,27,240
1,note_on,62,0,120
1,note_on,60,40,0
1,note_on,66,40,0
1,note_on,66,0,120
1,note_on,60,0,0
1,note_on,58,45,120
1,note_on,67,45,0
1,note_on,67,0,120
1,note_on,58,0,0
1,note_on,66,27,240
1,note_on,66,0,120
1,note_on,62,42,0
1,note_on,69,42,0
1,note_on,69,0,120
1,note_on,62,0,0
1,note_on,67,45,120
1,note_on,70,45,0
1,note_on,70,0,120
1,note_on,67,0,0
1,note_on,69,26,240
1,note_on,69,0,120
1,note_on,67,45,0
1,note_on,72,45,0
1,note_on,72,0,120
1,note_on,67,0,0
1,note_on,70,45,120
1,note_on,74,45,0
1,note_on,74,0,120
1,note_on,70,0,0
1,note_on,75,26,240
1,note_on,75,0,120
1,note_on,72,35,0
1,note_on,79,42,0
1,note_on,79,0,240
1,note_on,72,0,0
1,note_on,70,35,0
1,note_on,74,42,0
1,note_on,74,0,240
1,note_on,70,0,0
1,note_on,67,28,120
1,note_on,67,0,120
1,note_on,62,45,0
1,note_on,70,45,0
1,note_on,70,0,120
1,note_on,62,0,0
1,note_on,69,47,120
1,note_on,69,0,120
1,note_on,69,36,240
1,note_on,69,0,120
1,note_on,63,45,0
1,note_on,72,45,0
1,note_on,72,0,120
1,note_on,63,0,0
1,note_on,70,46,120
1,note_on,70,0,120
1,note_on,66,29,240
1,note_on,66,0,120
1,note_on,60,36,0
1,note_on,69,36,0
1,note_on,69,0,120
1,note_on,60,0,0
1,note_on,58,42,120
1,note_on,67,42,0
1,note_on,67,0,120
1,note_on,58,0,0
1,note_on,58,35,240
1,note_on,58,0,120
1,note_on,62,41,0
1,note_on,62,0,240
1,note_on,55,39,0
1,note_on,55,0,120
1,note_on,45,81,240
1,note_on,45,0,120
1,note_on,45,76,0
1,note_on,45,0,240
1,note_on,45,78,0
1,note_on,53,70,360
1,note_on,50,59,0
1,note_on,50,0,120
1,note_on,53,0,0
1,note_on,50,61,0
1,note_on,53,72,0
1,note_on,53,0,240
1,note_on,50,0,0
1,note_on,50,65,0
1,note_on,53,77,0
1,note_on,53,0,360
1,note_on,50,0,0
1,note_on,45,0,0
1,note_on,57,74,0
1,note_on,57,0,120
1,note_on,57,71,0
1,note_on,57,0,240
1,note_on,57,76,0
1,note_on,69,64,360
1,note_on,65,54,0
1,note_on,65,0,120
1,note_on,69,0,0
1,note_on,65,54,0
1,note_on,69,64,0
1,note_on,69,0,240
1,note_on,65,0,0
1,note_on,65,59,0
1,note_on,69,70,0
1,note_on,69,0,240
1,note_on,65,0,0
1,note_on,57,0,0
1,note_on,45,76,120
1,note_on,45,0,120
1,note_on,45,76,0
1,note_on,45,0,240
1,note_on,45,78,0
1,note_on,55,70,360
1,note_on,52,59,0
1,note_on,52,0,120
1,note_on,55,0,0
1,note_on,52,61,0
1,note_on,55,72,0
1,note_on,55,0,240
1,note_on,52,0,0
1,note_on,52,65,0
1,note_on,55,77,0
1,note_on,55,0,360
1,note_on,52,0,0
1,note_on,45,0,0
1,note_on,57,76,0
1,note_on,57,0,120
1,note_on,57,76,0
1,note_on,57,0,240
1,note_on,57,79,0
1,note_on,69,64,360
1,note_on,67,54,0
1,note_on,67,0,120
1,note_on,69,0,0
1,note_on,67,54,0
1,note_on,69,64,0
1,note_on,69,0,240
1,note_on,67,0,0
1,note_on,67,59,0
1,note_on,69,70,0
1,note_on,69,0,240
1,note_on,67,0,0
1,note_on,57,0,0
1,note_on,45,75,120
1,note_on,45,0,120
1,note_on,45,76,0
1,note_on,45,0,240
1,note_on,45,78,0
1,note_on,53,70,360
1,note_on,50,59,0
1,note_on,50,0,120
1,note_on,53,0,0
1,note_on,50,61,0
1,note_on,53,72,0
1,note_on,53,0,240
1,note_on,50,0,0
1,note_on,50,65,0
1,note_on,53,77,0
1,note_on,53,0,240
1,note_on,50,0,0
1,note_on,45,0,0
1,note_on,57,74,120
1,note_on,57,0,120
1,note_on,57,75,0
1,note_on,57,0,240
1,note_on,57,79,0
1,note_on,69,64,360
1,note_on,65,54,0
1,note_on,65,0,120
1,note_on,69,0,0
1,note_on,65,54,0
1,note_on,69,64,0
1,note_on,69,0,240
1,note_on,65,0,0
1,note_on,65,59,0
1,note_on,69,70,0
1,note_on,69,0,240
1,note_on,65,0,0
1,note_on,57,0,0
1,note_on,53,72,120
1,note_on,53,0,120
1,note_on,53,72,0
1,note_on,53,0,240
1,note_on,53,78,0
1,note_on,62,70,360
1,note_on,59,59,0
1,note_on,59,0,120
1,note_on,62,0,0
1,note_on,59,61,0
1,note_on,62,72,0
1,note_on,62,0,240
1,note_on,59,0,0
1,note_on,59,65,0
1,note_on,62,77,0
1,note_on,62,0,240
1,note_on,59,0,0
1,note_on,53,0,0
1,note_on,60,65,120
1,note_on,67,77,0
1,note_on,67,0,60
1,note_on,60,0,0
1,note_on,60,66,60
1,note_on,67,78,0
1,note_on,67,0,120
1,note_on,60,0,0
1,note_on,67,77,120
1,note_on,60,65,0
1,note_on,60,0,240
1,note_on,67,0,0
1,note_on,72,77,120
1,note_on,60,64,0
1,note_on,60,0,120
1,note_on,72,0,0
1,note_on,60,64,0
1,note_on,72,77,0
1,note_on,72,0,240
1,note_on,60,0,0
1,note_on,60,70,0
1,note_on,72,84,0
1,note_on,72,0,240
1,note_on,60,0,0
1,note_on,48,73,120
1,note_on,48,0,120
1,note_on,48,68,0
1,note_on,48,0,240
1,note_on,48,82,0
1,note_on,57,70,360
1,note_on,53,59,0
1,note_on,53,0,360
1,note_on,57,0,0
1,note_on,48,0,0
1,note_on,50,82,0
1,note_on,57,70,360
1,note_on,53,59,0
1,note_on,53,0,360
1,note_on,57,0,0
1,note_on,50,0,0
1,note_on,48,78,0
1,note_on,60,70,360
1,note_on,57,59,0
1,note_on,57,0,360
1,note_on,60,0,0
1,note_on,48,0,0
1,note_on,60,77,360
1,note_on,60,0,120
1,note_on,72,71,0
1,note_on,72,0,240
1,note_on,48,82,0
1,note_on,55,70,360
1,note_on,52,59,0
1,note_on,52,0,360
1,note_on,55,0,0
1,note_on,48,0,0
1,note_on,50,82,0
1,note_on,55,70,360
1,note_on,52,59,0
1,note_on,52,0,360
1,note_on,55,0,0
1,note_on,50,0,0
1,note_on,48,78,0
1,note_on,60,70,360
1,note_on,55,59,0
1,note_on,55,0,360
1,note_on,60,0,0
1,note_on,48,0,0
1,note_on,60,77,360
1,note_on,60,0,120
1,note_on,72,71,0
1,note_on,72,0,240
1,note_on,48,82,0
1,note_on,57,70,360
1,note_on,53,59,0
1,note_on,53,0,360
1,note_on,57,0,0
1,note_on,48,0,0
1,note_on,50,82,0
1,note_on,53,59,360
1,note_on,57,70,0
1,note_on,57,0,360
1,note_on,53,0,0
1,note_on,50,0,0
1,note_on,51,78,0
1,note_on,60,70,360
1,note_on,54,59,0
1,note_on,54,0,360
1,note_on,60,0,0
1,note_on,51,0,0
1,note_on,60,77,360
1,note_on,60,0,120
1,note_on,72,71,0
1,note_on,72,0,240
1,note_on,53,78,0
1,note_on,62,70,360
1,note_on,59,59,0
1,note_on,59,0,120
1,note_on,62,0,0
1,note_on,53,0,240
1,note_on,65,77,360
1,note_on,65,0,120
1,note_on,79,69,0
1,note_on,74,61,0
1,note_on,74,0,240
1,note_on,79,0,0
1,note_on,52,78,0
1,note_on,60,70,360
1,note_on,55,59,0
1,note_on,55,0,120
1,note_on,60,0,0
1,note_on,52,0,240
1,note_on,72,83,0
1,note_on,72,0,240
1,note_on,48,73,120
1,note_on,48,0,120
1,note_on,48,68,0
1,note_on,48,0,240
1,note_on,48,82,0
1,note_on,57,70,360
1,note_on,53,59,0
1,note_on,53,0,360
1,note_on,57,0,0
1,note_on,48,0,0
1,note_on,50,82,0
1,note_on,57,70,360
1,note_on,53,59,0
1,note_on,53,0,360
1,note_on,57,0,0
1,note_on,50,0,0
1,note_on,48,78,0
1,note_on,60,70,360
1,note_on,57,59,0
1,note_on,57,0,360
1,note_on,60,0,0
1,note_on,48,0,0
1,note_on,60,77,360
1,note_on,60,0,120
1,note_on,72,71,0
1,note_on,72,0,240
1,note_on,48,82,0
1,note_on,55,70,360
1,note_on,52,59,0
1,note_on,52,0,360
1,note_on,55,0,0
1,note_on,48,0,0
1,note_on,50,82,0
1,note_on,55,70,360
1,note_on,52,59,0
1,note_on,52,0,360
1,note_on,55,0,0
1,note_on,50,0,0
1,note_on,48,78,0
1,note_on,60,70,360
1,note_on,55,59,0
1,note_on,55,0,360
1,note_on,60,0,0
1,note_on,48,0,0
1,note_on,60,77,360
1,note_on,60,0,120
1,note_on,72,71,0
1,note_on,72,0,240
1,note_on,48,82,0
1,note_on,57,70,360
1,note_on,53,59,0
1,note_on,53,0,360
1,note_on,57,0,0
1,note_on,48,0,0
1,note_on,50,82,0
1,note_on,53,59,360
1,note_on,57,70,0
1,note_on,57,0,360
1,note_on,53,0,0
1,note_on,50,0,0
1,note_on,51,78,0
1,note_on,60,70,360
1,note_on,54,59,0
1,note_on,54,0,360
1,note_on,60,0,0
1,note_on,51,0,0
1,note_on,60,77,360
1,note_on,60,0,120
1,note_on,72,71,0
1,note_on,72,0,240
1,note_on,53,78,6
1,note_on,62,70,354
1,note_on,59,59,0
1,note_on,59,0,120
1,note_on,62,0,0
1,note_on,53,0,246
1,note_on,65,77,354
1,note_on,65,0,120
1,note_on,79,69,0
1,note_on,74,61,0
1,note_on,74,0,240
1,note_on,79,0,0
1,note_on,52,78,0
1,note_on,60,70,360
1,note_on,55,59,0
1,note_on,55,0,120
1,note_on,60,0,0
1,note_on,52,0,240
1,note_on,72,83,0
1,note_on,72,0,240
1,note_on,48,81,120
1,note_on,48,0,120
1,note_on,48,76,0
1,note_on,48,0,240
1,note_on,48,78,0
1,note_on,57,70,360
1,note_on,54,59,0
1,note_on,54,0,120
1,note_on,57,0,0
1,note_on,54,61,0
1,note_on,57,72,0
1,note_on,57,0,240
1,note_on,54,0,0
1,note_on,54,65,0
1,note_on,57,77,0
1,note_on,57,0,360
1,note_on,54,0,0
1,note_on,48,0,0
1,note_on,60,74,0
1,note_on,60,0,120
1,note_on,60,71,0
1,note_on,60,0,240
1,note_on,60,76,0
1,note_on,69,64,360
1,note_on,66,54,0
1,note_on,66,0,120
1,note_on,69,0,0
1,note_on,66,54,0
1,note_on,69,64,0
1,note_on,69,0,240
1,note_on,66,0,0
1,note_on,66,59,0
1,note_on,69,70,0
1,note_on,69,0,240
1,note_on,66,0,0
1,note_on,60,0,0
1,note_on,50,76,120
1,note_on,50,0,120
1,note_on,50,76,0
1,note_on,50,0,240
1,note_on,50,78,0
1,note_on,58,70,360
1,note_on,55,59,0
1,note_on,55,0,120
1,note_on,58,0,0
1,note_on,55,61,0
1,note_on,58,72,0
1,note_on,58,0,240
1,note_on,55,0,0
1,note_on,55,65,0
1,note_on,58,77,0
1,note_on,58,0,360
1,note_on,55,0,0
1,note_on,50,0,0
1,note_on,62,76,0
1,note_on,62,0,120
1,note_on,62,76,0
1,note_on,62,0,240
1,note_on,62,79,0
1,note_on,70,64,360
1,note_on,67,54,0
1,note_on,67,0,120
1,note_on,70,0,0
1,note_on,67,54,0
1,note_on,70,64,0
1,note_on,70,0,240
1,note_on,67,0,0
1,note_on,67,59,0
1,note_on,70,70,0
1,note_on,70,0,240
1,note_on,67,0,0
1,note_on,62,0,0
1,note_on,52,75,120
1,note_on,52,0,120
1,note_on,52,76,0
1,note_on,52,0,240
1,note_on,52,78,0
1,note_on,62,70,360
1,note_on,59,59,0
1,note_on,59,0,120
1,note_on,62,0,0
1,note_on,59,61,0
1,note_on,62,72,0
1,note_on,62,0,240
1,note_on,59,0,0
1,note_on,59,65,0
1,note_on,62,77,0
1,note_on,62,0,240
1,note_on,59,0,0
1,note_on,52,0,0
1,note_on,62,74,120
1,note_on,62,0,120
1,note_on,62,75,0
1,note_on,62,0,240
1,note_on,62,79,0
1,note_on,71,64,360
1,note_on,68,54,0
1,note_on,68,0,120
1,note_on,71,0,0
1,note_on,68,54,0
1,note_on,71,64,0
1,note_on,71,0,240
1,note_on,68,0,0
1,note_on,68,59,0
1,note_on,71,70,0
1,note_on,71,0,240
1,note_on,68,0,0
1,note_on,62,0,0
1,note_on,52,72,120
1,note_on,52,0,120
1,note_on,52,72,0
1,note_on,52,0,240
1,note_on,52,78,0
1,note_on,60,70,360
1,note_on,57,59,0
1,note_on,57,0,120
1,note_on,60,0,0
1,note_on,57,61,0
1,note_on,60,72,0
1,note_on,60,0,240
1,note_on,57,0,0
1,note_on,57,65,0
1,note_on,60,77,0
1,note_on,60,0,240
1,note_on,57,0,0
1,note_on,52,0,0
1,note_on,60,77,120
1,note_on,60,0,120
1,note_on,60,78,0
1,note_on,60,0,240
1,note_on,60,77,0
1,note_on,72,69,360
1,note_on,69,57,0
1,note_on,69,0,120
1,note_on,72,0,0
1,note_on,69,57,0
1,note_on,72,69,0
1,note_on,72,0,240
1,note_on,69,0,0
1,note_on,69,63,0
1,note_on,72,75,0
1,note_on,72,0,240
1,note_on,69,0,0
1,note_on,60,0,0
1,note_on,57,63,120
1,note_on,57,0,120
1,note_on,57,64,0
1,note_on,57,0,240
1,note_on,57,66,0
1,note_on,65,54,360
1,note_on,62,45,0
1,note_on,62,0,60
1,note_on,65,0,0
1,note_on,62,45,60
1,note_on,65,54,0
1,note_on,65,0,120
1,note_on,62,0,0
1,note_on,57,0,120
1,note_on,62,52,0
1,note_on,65,62,0
1,note_on,65,0,120
1,note_on,62,0,0
1,note_on,57,55,240
1,note_on,57,0,60
1,note_on,57,55,60
1,note_on,57,0,120
1,note_on,57,63,120
1,note_on,65,54,360
1,note_on,62,38,0
1,note_on,62,0,60
1,note_on,65,0,0
1,note_on,62,38,60
1,note_on,65,54,0
1,note_on,65,0,120
1,note_on,62,0,0
1,note_on,57,0,120
1,note_on,62,42,0
1,note_on,65,59,0
1,note_on,65,0,120
1,note_on,62,0,0
1,note_on,65,63,240
1,note_on,65,0,60
1,note_on,65,64,60
1,note_on,65,0,120
1,note_on,65,66,120
1,note_on,74,54,360
1,note_on,71,45,0
1,note_on,71,0,60
1,note_on,74,0,0
1,note_on,71,45,60
1,note_on,74,54,0
1,note_on,74,0,120
1,note_on,71,0,0
1,note_on,65,0,120
1,note_on,71,52,0
1,note_on,74,62,0
1,note_on,74,0,120
1,note_on,71,0,0
1,note_on,65,55,240
1,note_on,65,0,60
1,note_on,65,55,60
1,note_on,65,0,120
1,note_on,65,63,120
1,note_on,74,54,360
1,note_on,71,38,0
1,note_on,71,0,60
1,note_on,74,0,0
1,note_on,71,38,60
1,note_on,74,54,0
1,note_on,74,0,120
1,note_on,71,0,0
1,note_on,65,0,120
1,note_on,71,42,0
1,note_on,74,59,0
1,note_on,74,0,120
1,note_on,71,0,0
1,note_on,56,63,240
1,note_on,56,0,60
1,note_on,56,64,60
1,note_on,56,0,120
1,note_on,56,66,120
1,note_on,64,54,360
1,note_on,62,45,0
1,note_on,62,0,60
1,note_on,64,0,0
1,note_on,62,45,60
1,note_on,64,54,0
1,note_on,64,0,120
1,note_on,62,0,0
1,note_on,56,0,120
1,note_on,62,52,0
1,note_on,64,62,0
1,note_on,64,0,120
1,note_on,62,0,0
1,note_on,56,55,240
1,note_on,56,0,60
1,note_on,56,55,60
1,note_on,56,0,120
1,note_on,56,63,120
1,note_on,64,54,360
1,note_on,62,38,0
1,note_on,62,0,60
1,note_on,64,0,0
1,note_on,62,38,60
1,note_on,64,54,0
1,note_on,64,0,120
1,note_on,62,0,0
1,note_on,56,0,120
1,note_on,62,42,0
1,note_on,64,59,0
1,note_on,64,0,120
1,note_on,62,0,0
1,note_on,62,63,240
1,note_on,62,0,60
1,note_on,62,64,60
1,note_on,62,0,120
1,note_on,62,66,120
1,note_on,71,54,360
1,note_on,68,45,0
1,note_on,68,0,60
1,note_on,71,0,0
1,note_on,68,45,60
1,note_on,71,54,0
1,note_on,71,0,120
1,note_on,68,0,0
1,note_on,62,0,120
1,note_on,68,52,0
1,note_on,71,62,0
1,note_on,71,0,120
1,note_on,68,0,0
1,note_on,62,52,240
1,note_on,62,0,60
1,note_on,62,51,60
1,note_on,62,0,120
1,note_on,62,55,120
1,note_on,71,43,360
1,note_on,68,30,0
1,note_on,68,0,60
1,note_on,71,0,0
1,note_on,68,29,60
1,note_on,71,42,0
1,note_on,71,0,120
1,note_on,68,0,0
1,note_on,62,0,120
1,note_on,68,30,0
1,note_on,71,43,0
1,note_on,71,0,120
1,note_on,68,0,0
1,note_on,52,64,240
1,note_on,52,0,120
1,note_on,52,60,0
1,note_on,52,0,240
1,note_on,52,62,0
1,note_on,60,56,360
1,note_on,57,47,0
1,note_on,57,0,120
1,note_on,60,0,0
1,note_on,57,48,0
1,note_on,60,57,0
1,note_on,60,0,240
1,note_on,57,0,0
1,note_on,57,52,0
1,note_on,60,61,0
1,note_on,60,0,360
1,note_on,57,0,0
1,note_on,52,0,0
1,note_on,60,49,0
1,note_on,60,0,120
1,note_on,60,48,0
1,note_on,60,0,240
1,note_on,60,51,0
1,note_on,72,51,360
1,note_on,69,43,0
1,note_on,69,0,120
1,note_on,72,0,0
1,note_on,69,43,0
1,note_on,72,51,0
1,note_on,72,0,240
1,note_on,69,0,0
1,note_on,69,47,0
1,note_on,72,56,0
1,note_on,72,0,240
1,note_on,69,0,0
1,note_on,60,0,0
1,note_on,52,72,120
1,note_on,52,0,120
1,note_on,52,72,0
1,note_on,52,0,240
1,note_on,52,74,0
1,note_on,62,66,360
1,note_on,59,56,0
1,note_on,59,0,120
1,note_on,62,0,0
1,note_on,59,57,0
1,note_on,62,68,0
1,note_on,62,0,240
1,note_on,59,0,0
1,note_on,59,61,0
1,note_on,62,73,0
1,note_on,62,0,360
1,note_on,59,0,0
1,note_on,52,0,0
1,note_on,62,60,0
1,note_on,62,0,120
1,note_on,62,60,0
1,note_on,62,0,240
1,note_on,62,63,0
1,note_on,74,60,360
1,note_on,71,51,0
1,note_on,71,0,120
1,note_on,74,0,0
1,note_on,71,51,0
1,note_on,74,60,0
1,note_on,74,0,240
1,note_on,71,0,0
1,note_on,71,56,0
1,note_on,74,66,0
1,note_on,74,0,240
1,note_on,71,0,0
1,note_on,62,0,0
1,note_on,52,75,120
1,note_on,52,0,120
1,note_on,52,76,0
1,note_on,52,0,240
1,note_on,52,78,0
1,note_on,60,70,360
1,note_on,57,59,0
1,note_on,57,0,120
1,note_on,60,0,0
1,note_on,57,61,0
1,note_on,60,72,0
1,note_on,60,0,240
1,note_on,57,0,0
1,note_on,57,65,0
1,note_on,60,77,0
1,note_on,60,0,240
1,note_on,57,0,0
1,note_on,52,0,0
1,note_on,64,74,120
1,note_on,64,0,120
1,note_on,64,75,0
1,note_on,64,0,240
1,note_on,64,79,0
1,note_on,76,64,360
1,note_on,72,54,0
1,note_on,72,0,120
1,note_on,76,0,0
1,note_on,72,54,0
1,note_on,76,64,0
1,note_on,76,0,240
1,note_on,72,0,0
1,note_on,72,59,0
1,note_on,76,70,0
1,note_on,76,0,240
1,note_on,72,0,0
1,note_on,64,0,0
1,note_on,60,72,120
1,note_on,60,0,120
1,note_on,60,72,0
1,note_on,60,0,240
1,note_on,60,78,0
1,note_on,69,70,360
1,note_on,66,59,0
1,note_on,66,0,120
1,note_on,69,0,0
1,note_on,66,61,0
1,note_on,69,72,0
1,note_on,69,0,240
1,note_on,66,0,0
1,note_on,66,65,0
1,note_on,69,77,0
1,note_on,69,0,240
1,note_on,66,0,0
1,note_on,60,0,0
1,note_on,67,65,120
1,note_on,74,77,0
1,note_on,74,0,60
1,note_on,67,0,0
1,note_on,67,66,60
1,note_on,74,78,0
1,note_on,74,0,120
1,note_on,67,0,0
1,note_on,74,77,120
1,note_on,67,65,0
1,note_on,67,0,240
1,note_on,74,0,0
1,note_on,79,77,120
1,note_on,67,64,0
1,note_on,67,0,120
1,note_on,79,0,0
1,note_on,67,64,0
1,note_on,79,77,0
1,note_on,79,0,240
1,note_on,67,0,0
1,note_on,67,70,0
1,note_on,79,84,0
1,note_on,79,0,120
1,note_on,67,0,0
1,note_on,67,45,240
1,note_on,67,0,120
1,note_on,65,45,0
1,note_on,71,45,0
1,note_on,71,0,120
1,note_on,65,0,0
1,note_on,63,50,120
1,note_on,72,50,0
1,note_on,72,0,120
1,note_on,63,0,0
1,note_on,71,31,240
1,note_on,71,0,120
1,note_on,67,47,0
1,note_on,74,47,0
1,note_on,74,0,120
1,note_on,67,0,0
1,note_on,72,50,120
1,note_on,75,50,0
1,note_on,75,0,120
1,note_on,72,0,0
1,note_on,74,29,240
1,note_on,74,0,120
1,note_on,72,50,0
1,note_on,77,50,0
1,note_on,77,0,120
1,note_on,72,0,0
1,note_on,75,50,120
1,note_on,79,50,0
1,note_on,79,0,120
1,note_on,75,0,0
1,note_on,80,29,240
1,note_on,80,0,120
1,note_on,77,39,0
1,note_on,84,47,0
1,note_on,84,0,240
1,note_on,77,0,0
1,note_on,75,39,0
1,note_on,79,47,0
1,note_on,79,0,240
1,note_on,75,0,0
1,note_on,72,32,120
1,note_on,72,0,120
1,note_on,67,50,0
1,note_on,75,50,0
1,note_on,75,0,120
1,note_on,67,0,0
1,note_on,74,53,120
1,note_on,74,0,120
1,note_on,74,40,240
1,note_on,74,0,120
1,note_on,68,50,0
1,note_on,77,50,0
1,note_on,77,0,120
1,note_on,68,0,0
1,note_on,75,52,120
1,note_on,75,0,120
1,note_on,71,33,240
1,note_on,71,0,120
1,note_on,65,41,0
1,note_on,74,41,0
1,note_on,74,0,120
1,note_on,65,0,0
1,note_on,63,47,120
1,note_on,72,47,0
1,note_on,72,0,120
1,note_on,63,0,0
1,note_on,65,25,240
1,note_on,65,0,120
1,note_on,62,41,0
1,note_on,68,41,0
1,note_on,68,0,120
1,note_on,62,0,0
1,note_on,63,40,120
1,note_on,67,40,0
1,note_on,67,0,120
1,note_on,63,0,0
1,note_on,62,30,240
1,note_on,62,0,120
1,note_on,60,45,0
1,note_on,66,45,0
1,note_on,66,0,120
1,note_on,60,0,0
1,note_on,58,50,120
1,note_on,67,50,0
1,note_on,67,0,120
1,note_on,58,0,0
1,note_on,66,31,240
1,note_on,66,0,120
1,note_on,62,47,0
1,note_on,69,47,0
1,note_on,69,0,120
1,note_on,62,0,0
1,note_on,67,50,120
1,note_on,70,50,0
1,note_on,70,0,120
1,note_on,67,0,0
1,note_on,69,29,240
1,note_on,69,0,120
1,note_on,67,50,0
1,note_on,72,50,0
1,note_on,72,0,120
1,note_on,67,0,0
1,note_on,70,50,120
1,note_on,74,50,0
1,note_on,74,0,120
1,note_on,70,0,0
1,note_on,75,29,240
1,note_on,75,0,120
1,note_on,72,39,0
1,note_on,79,47,0
1,note_on,79,0,240
1,note_on,72,0,0
1,note_on,70,39,0
1,note_on,74,47,0
1,note_on,74,0,240
1,note_on,70,0,0
1,note_on,67,32,120
1,note_on,67,0,120
1,note_on,62,50,0
1,note_on,70,50,0
1,note_on,70,0,120
1,note_on,62,0,0
1,note_on,69,53,120
1,note_on,69,0,120
1,note_on,69,40,240
1,note_on,69,0,120
1,note_on,63,50,0
1,note_on,72,50,0
1,note_on,72,0,120
1,note_on,63,0,0
1,note_on,70,52,120
1,note_on,70,0,120
1,note_on,66,33,240
1,note_on,66,0,120
1,note_on,60,41,0
1,note_on,69,41,0
1,note_on,69,0,120
1,note_on,60,0,0
1,note_on,58,47,120
1,note_on,67,47,0
1,note_on,67,0,120
1,note_on,58,0,0
1,note_on,60,25,240
1,note_on,60,0,120
1,note_on,57,41,0
1,note_on,63,41,0
1,note_on,63,0,120
1,note_on,57,0,0
1,note_on,58,40,120
1,note_on,62,40,0
1,note_on,62,0,120
1,note_on,58,0,0
1,note_on,62,30,240
1,note_on,62,0,120
1,note_on,60,45,0
1,note_on,66,45,0
1,note_on,66,0,120
1,note_on,60,0,0
1,note_on,58,50,120
1,note_on,67,50,0
1,note_on,67,0,120
1,note_on,58,0,0
1,note_on,66,31,240
1,note_on,66,0,120
1,note_on,62,47,0
1,note_on,69,47,0
1,note_on,69,0,120
1,note_on,62,0,0
1,note_on,67,50,120
1,note_on,70,50,0
1,note_on,70,0,120
1,note_on,67,0,0
1,note_on,69,29,240
1,note_on,69,0,120
1,note_on,67,50,0
1,note_on,72,50,0
1,note_on,72,0,120
1,note_on,67,0,0
1,note_on,70,50,120
1,note_on,74,50,0
1,note_on,74,0,120
1,note_on,70,0,0
1,note_on,75,29,240
1,note_on,75,0,120
1,note_on,72,47,0
1,note_on,79,56,0
1,note_on,79,0,240
1,note_on,72,0,0
1,note_on,70,47,0
1,note_on,74,56,0
1,note_on,74,0,240
1,note_on,70,0,0
1,note_on,67,32,120
1,note_on,67,0,120
1,note_on,62,50,0
1,note_on,70,50,0
1,note_on,70,0,120
1,note_on,62,0,0
1,note_on,69,53,120
1,note_on,69,0,120
1,note_on,69,40,240
1,note_on,69,0,120
1,note_on,63,50,0
1,note_on,72,50,0
1,note_on,72,0,120
1,note_on,63,0,0
1,note_on,70,52,120
1,note_on,70,0,120
1,note_on,66,33,240
1,note_on,66,0,120
1,note_on,60,41,0
1,note_on,69,41,0
1,note_on,69,0,120
1,note_on,60,0,0
1,note_on,58,47,120
1,note_on,67,47,0
1,note_on,67,0,120
1,note_on,58,0,0
1,note_on,58,39,240
1,note_on,58,0,120
1,note_on,62,46,0
1,note_on,62,0,240
1,note_on,55,44,0
1,note_on,55,0,120
1,note_on,58,30,240
1,note_on,58,0,120
1,note_on,55,45,0
1,note_on,62,45,0
1,note_on,62,0,120
1,note_on,55,0,0
1,note_on,54,50,120
1,note_on,62,50,0
1,note_on,62,0,120
1,note_on,54,0,0
1,note_on,58,31,240
1,note_on,58,0,120
1,note_on,55,47,0
1,note_on,64,47,0
1,note_on,64,0,120
1,note_on,55,0,0
1,note_on,57,50,120
1,note_on,66,50,0
1,note_on,66,0,120
1,note_on,57,0,0
1,note_on,62,29,240
1,note_on,62,0,120
1,note_on,58,50,0
1,note_on,67,50,0
1,note_on,67,0,120
1,note_on,58,0,0
1,note_on,60,50,120
1,note_on,69,50,0
1,note_on,69,0,120
1,note_on,60,0,0
1,note_on,65,29,240
1,note_on,65,0,120
1,note_on,62,52,0
1,note_on,71,52,0
1,note_on,71,0,120
1,note_on,62,0,0
1,note_on,63,56,120
1,note_on,72,56,0
1,note_on,72,0,120
1,note_on,63,0,0
1,note_on,68,32,240
1,note_on,68,0,120
1,note_on,65,50,0
1,note_on,74,50,0
1,note_on,74,0,120
1,note_on,65,0,0
1,note_on,63,50,120
1,note_on,72,53,0
1,note_on,72,0,120
1,note_on,63,0,0
1,note_on,67,40,240
1,note_on,67,0,120
1,note_on,62,50,0
1,note_on,71,50,0
1,note_on,71,0,120
1,note_on,62,0,0
1,note_on,63,50,120
1,note_on,72,52,0
1,note_on,72,0,120
1,note_on,63,0,0
1,note_on,68,33,240
1,note_on,68,0,120
1,note_on,65,41,0
1,note_on,74,41,0
1,note_on,74,0,120
1,note_on,65,0,0
1,note_on,63,47,120
1,note_on,72,47,0
1,note_on,72,0,120
1,note_on,63,0,0
1,note_on,67,25,240
1,note_on,67,0,120
1,note_on,62,41,0
1,note_on,71,41,0
1,note_on,71,0,120
1,note_on,62,0,0
1,note_on,63,40,120
1,note_on,72,40,0
1,note_on,72,0,120
1,note_on,63,0,0
1,note_on,62,30,240
1,note_on,62,0,120
1,note_on,58,45,0
1,note_on,65,45,0
1,note_on,65,0,120
1,note_on,58,0,0
1,note_on,57,50,120
1,note_on,65,50,0
1,note_on,65,0,120
1,note_on,57,0,0
1,note_on,63,31,240
1,note_on,63,0,120
1,note_on,58,47,0
1,note_on,67,47,0
1,note_on,67,0,120
1,note_on,58,0,0
1,note_on,60,50,120
1,note_on,69,50,0
1,note_on,69,0,120
1,note_on,60,0,0
1,note_on,65,29,240
1,note_on,65,0,120
1,note_on,62,50,0
1,note_on,70,50,0
1,note_on,70,0,120
1,note_on,62,0,0
1,note_on,63,50,120
1,note_on,72,50,0
1,note_on,72,0,120
1,note_on,63,0,0
1,note_on,68,29,240
1,note_on,68,0,120
1,note_on,65,56,0
1,note_on,74,56,0
1,note_on,74,0,120
1,note_on,65,0,0
1,note_on,67,56,120
1,note_on,75,56,0
1,note_on,75,0,120
1,note_on,67,0,0
1,note_on,71,32,240
1,note_on,71,0,120
1,note_on,68,56,0
1,note_on,77,56,0
1,note_on,77,0,120
1,note_on,68,0,0
1,note_on,72,61,120
1,note_on,67,61,0
1,note_on,75,61,0
1,note_on,75,0,120
1,note_on,67,0,0
1,note_on,72,0,0
1,note_on,68,47,240
1,note_on,68,0,120
1,note_on,65,57,0
1,note_on,74,57,0
1,note_on,74,0,120
1,note_on,65,0,0
1,note_on,69,50,120
1,note_on,63,50,0
1,note_on,72,52,0
1,note_on,72,0,120
1,note_on,63,0,0
1,note_on,69,0,0
1,note_on,67,33,240
1,note_on,67,0,120
1,note_on,64,41,0
1,note_on,70,41,0
1,note_on,70,0,120
1,note_on,64,0,0
1,note_on,66,46,120
1,note_on,69,46,0
1,note_on,69,0,120
1,note_on,66,0,0
1,note_on,64,24,240
1,note_on,64,0,120
1,note_on,61,39,0
1,note_on,67,39,0
1,note_on,67,0,120
1,note_on,61,0,0
1,note_on,62,37,120
1,note_on,66,37,0
1,note_on,66,0,120
1,note_on,62,0,0
1,note_on,62,27,240
1,note_on,62,0,120
1,note_on,60,40,0
1,note_on,66,40,0
1,note_on,66,0,120
1,note_on,60,0,0
1,note_on,58,45,120
1,note_on,67,45,0
1,note_on,67,0,120
1,note_on,58,0,0
1,note_on,66,27,240
1,note_on,66,0,120
1,note_on,62,42,0
1,note_on,69,42,0
1,note_on,69,0,120
1,note_on,62,0,0
1,note_on,67,45,120
1,note_on,70,45,0
1,note_on,70,0,120
1,note_on,67,0,0
1,note_on,69,26,240
1,note_on,69,0,120
1,note_on,67,45,0
1,note_on,72,45,0
1,note_on,72,0,120
1,note_on,67,0,0
1,note_on,70,45,120
1,note_on,74,45,0
1,note_on,74,0,120
1,note_on,70,0,0
1,note_on,75,26,240
1,note_on,75,0,120
1,note_on,72,33,0
1,note_on,79,40,0
1,note_on,79,0,240
1,note_on,72,0,0
1,note_on,70,33,0
1,note_on,74,40,0
1,note_on,74,0,240
1,note_on,70,0,0
1,note_on,67,28,120
1,note_on,67,0,120
1,note_on,62,45,0
1,note_on,70,45,0
1,note_on,70,0,120
1,note_on,62,0,0
1,note_on,69,47,120
1,note_on,69,0,120
1,note_on,69,36,240
1,note_on,69,0,120
1,note_on,63,45,0
1,note_on,72,45,0
1,note_on,72,0,120
1,note_on,63,0,0
1,note_on,70,46,120
1,note_on,70,0,120
1,note_on,66,29,240
1,note_on,66,0,120
1,note_on,60,36,0
1,note_on,69,36,0
1,note_on,69,0,120
1,note_on,60,0,0
1,note_on,58,42,120
1,note_on,67,42,0
1,note_on,67,0,120
1,note_on,58,0,0
1,note_on,60,22,240
1,note_on,60,0,120
1,note_on,57,36,0
1,note_on,63,36,0
1,note_on,63,0,120
1,note_on,57,0,0
1,note_on,58,36,120
1,note_on,62,36,0
1,note_on,62,0,120
1,note_on,58,0,0
1,note_on,62,27,240
1,note_on,62,0,120
1,note_on,60,40,0
1,note_on,66,40,0
1,note_on,66,0,120
1,note_on,60,0,0
1,note_on,58,45,120
1,note_on,67,45,0
1,note_on,67,0,120
1,note_on,58,0,0
1,note_on,66,27,240
1,note_on,66,0,120
1,note_on,62,42,0
1,note_on,69,42,0
1,note_on,69,0,120
1,note_on,62,0,0
1,note_on,67,45,120
1,note_on,70,45,0
1,note_on,70,0,120
1,note_on,67,0,0
1,note_on,69,26,240
1,note_on,69,0,120
1,note_on,67,45,0
1,note_on,72,45,0
1,note_on,72,0,120
1,note_on,67,0,0
1,note_on,70,45,120
1,note_on,74,45,0
1,note_on,74,0,120
1,note_on,70,0,0
1,note_on,75,25,240
1,note_on,75,0,120
1,note_on,72,31,0
1,note_on,79,39,0
1,note_on,79,0,240
1,note_on,72,0,0
1,note_on,70,30,0
1,note_on,74,38,0
1,note_on,74,0,240
1,note_on,70,0,0
1,note_on,67,27,120
1,note_on,67,0,120
1,note_on,62,43,0
1,note_on,70,43,0
1,note_on,70,0,120
1,note_on,62,0,0
1,note_on,69,45,120
1,note_on,69,0,120
1,note_on,69,33,240
1,note_on,69,0,120
1,note_on,63,42,0
1,note_on,72,42,0
1,note_on,72,0,120
1,note_on,63,0,0
1,note_on,62,40,120
1,note_on,70,43,0
1,note_on,70,0,120
1,note_on,62,0,0
1,note_on,66,27,240
1,note_on,66,0,120
1,note_on,60,33,0
1,note_on,69,33,0
1,note_on,69,0,120
1,note_on,60,0,0
1,note_on,58,34,120
1,note_on,67,40,0
1,note_on,67,0,120
1,note_on,58,0,0
1,note_on,60,27,240
1,note_on,60,0,120
1,note_on,57,33,0
1,note_on,63,39,0
1,note_on,63,0,120
1,note_on,57,0,0
1,note_on,58,32,120
1,note_on,62,38,0
1,note_on,62,0,120
1,note_on,58,0,0
1,note_on,57,27,240
1,note_on,57,0,120
1,note_on,54,27,0
1,note_on,60,33,0
1,note_on,60,0,120
1,note_on,54,0,0
2,note_on,31,41,1440
2,note_on,43,41,0
2,note_on,31,0,2640
2,note_on,31,33,0
2,note_on,31,0,240
2,note_on,36,42,0
2,note_on,36,0,480
2,note_on,33,36,0
2,note_on,33,0,240
2,note_on,43,0,0
2,note_on,38,43,0
2,note_on,26,35,480
2,note_on,26,0,240
2,note_on,31,43,0
2,note_on,31,0,2640
2,note_on,31,33,0
2,note_on,31,0,1440
2,note_on,31,33,0
2,note_on,31,0,240
2,note_on,38,0,0
2,note_on,36,42,0
2,note_on,36,0,480
2,note_on,33,36,0
2,note_on,33,0,240
2,note_on,38,43,0
2,note_on,26,35,480
2,note_on,26,0,240
2,note_on,31,43,0
2,note_on,31,0,960
2,note_on,38,0,0
2,note_on,38,41,480
2,note_on,50,41,0
2,note_on,50,0,2640
2,note_on,38,0,0
2,note_on,31,33,0
2,note_on,43,33,0
2,note_on,43,0,3600
2,note_on,31,0,0
2,note_on,38,41,0
2,note_on,50,47,0
2,note_on,50,0,1440
2,note_on,38,0,0
2,note_on,34,33,0
2,note_on,46,38,0
2,note_on,46,0,1680
2,note_on,34,0,0
2,note_on,36,27,0
2,note_on,48,27,0
2,note_on,48,0,480
2,note_on,36,0,0
2,note_on,37,25,0
2,note_on,49,25,0
2,note_on,49,0,240
2,note_on,37,0,0
2,note_on,38,27,0
2,note_on,50,33,0
2,note_on,50,0,1200
2,note_on,38,0,0
2,note_on,38,27,0
2,note_on,50,27,0
2,note_on,50,0,120
2,note_on,38,0,0
2,note_on,31,32,120
2,note_on,43,41,0
2,note_on,43,0,120
2,note_on,31,0,0
2,note_on,31,27,360
2,note_on,43,35,0
2,note_on,43,0,120
2,note_on,31,0,0
2,note_on,31,32,120
2,note_on,43,41,0
2,note_on,43,0,120
2,note_on,31,0,0
2,note_on,31,32,360
2,note_on,43,41,0
2,note_on,31,0,1440
2,note_on,31,33,0
2,note_on,31,0,240
2,note_on,36,42,0
2,note_on,36,0,480
2,note_on,33,36,0
2,note_on,33,0,240
2,note_on,43,0,0
2,note_on,38,43,0
2,note_on,26,35,480
2,note_on,26,0,240
2,note_on,31,43,0
2,note_on,31,0,1920
2,note_on,31,33,0
2,note_on,31,0,720
2,note_on,31,33,0
2,note_on,31,0,1440
2,note_on,31,33,0
2,note_on,31,0,240
2,note_on,38,0,0
2,note_on,36,42,0
2,note_on,36,0,480
2,note_on,33,36,0
2,note_on,33,0,240
2,note_on,38,43,0
2,note_on,26,35,480
2,note_on,26,0,240
2,note_on,31,43,0
2,note_on,31,0,960
2,note_on,38,0,0
2,note_on,38,41,480
2,note_on,50,41,0
2,note_on,50,0,2640
2,note_on,38,0,0
2,note_on,31,33,0
2,note_on,43,33,0
2,note_on,43,0,3600
2,note_on,31,0,0
2,note_on,38,41,0
2,note_on,50,49,0
2,note_on,50,0,1440
2,note_on,38,0,0
2,note_on,34,33,0
2,note_on,46,42,0
2,note_on,46,0,1680
2,note_on,34,0,0
2,note_on,36,27,0
2,note_on,48,27,0
2,note_on,48,0,480
2,note_on,36,0,0
2,note_on,37,25,0
2,note_on,49,25,0
2,note_on,49,0,240
2,note_on,37,0,0
2,note_on,38,27,0
2,note_on,50,33,0
2,note_on,50,0,1200
2,note_on,38,0,0
2,note_on,38,27,0
2,note_on,50,27,0
2,note_on,50,0,120
2,note_on,38,0,0
2,note_on,31,32,120
2,note_on,43,41,0
2,note_on,43,0,120
2,note_on,31,0,0
2,note_on,31,27,360
2,note_on,43,35,0
2,note_on,43,0,90
2,note_on,31,0,0
2,note_on,31,32,150
2,note_on,43,41,0
2,note_on,43,0,90
2,note_on,31,0,0
2,note_on,31,32,390
2,note_on,43,41,0
2,note_on,31,0,1440
2,note_on,31,33,0
2,note_on,31,0,240
2,note_on,36,42,0
2,note_on,36,0,480
2,note_on,33,36,0
2,note_on,33,0,240
2,note_on,43,0,0
2,note_on,38,43,0
2,note_on,26,35,480
2,note_on,26,0,240
2,note_on,31,43,0
2,note_on,31,0,1920
2,note_on,31,42,0
2,note_on,31,0,720
2,note_on,31,42,0
2,note_on,31,0,1440
2,note_on,31,33,0
2,note_on,31,0,240
2,note_on,38,0,0
2,note_on,36,42,0
2,note_on,36,0,480
2,note_on,33,36,0
2,note_on,33,0,240
2,note_on,38,43,0
2,note_on,26,35,480
2,note_on,26,0,240
2,note_on,31,43,0
2,note_on,31,0,960
2,note_on,38,0,0
2,note_on,34,43,420
2,note_on,46,51,60
2,note_on,46,0,660
2,note_on,34,0,0
2,note_on,36,49,0
2,note_on,48,58,60
2,note_on,48,0,300
2,note_on,36,0,0
2,note_on,38,51,0
2,note_on,50,62,60
2,note_on,50,0,300
2,note_on,38,0,0
2,note_on,39,54,0
2,note_on,51,64,60
2,note_on,51,0,660
2,note_on,39,0,0
2,note_on,46,48,0
2,note_on,58,57,60
2,note_on,58,0,720
2,note_on,46,0,300
2,note_on,43,49,0
2,note_on,55,58,60
2,note_on,55,0,300
2,note_on,43,0,0
2,note_on,39,51,0
2,note_on,51,62,60
2,note_on,51,0,300
2,note_on,39,0,0
2,note_on,36,47,0
2,note_on,48,56,60
2,note_on,48,0,300
2,note_on,36,0,0
2,note_on,41,42,0
2,note_on,53,51,60
2,note_on,53,0,660
2,note_on,41,0,0
2,note_on,29,33,0
2,note_on,41,52,60
2,note_on,41,0,660
2,note_on,29,0,0
2,note_on,34,43,0
2,note_on,46,51,60
2,note_on,46,0,660
2,note_on,34,0,0
2,note_on,36,49,0
2,note_on,48,58,60
2,note_on,48,0,300
2,note_on,36,0,0
2,note_on,38,51,0
2,note_on,50,62,60
2,note_on,50,0,300
2,note_on,38,0,0
2,note_on,39,54,0
2,note_on,51,64,60
2,note_on,51,0,660
2,note_on,39,0,0
2,note_on,46,48,0
2,note_on,58,57,60
2,note_on,58,0,720
2,note_on,46,0,300
2,note_on,43,49,0
2,note_on,55,58,60
2,note_on,55,0,300
2,note_on,43,0,0
2,note_on,39,51,0
2,note_on,51,62,60
2,note_on,51,0,300
2,note_on,39,0,0
2,note_on,36,47,0
2,note_on,48,56,60
2,note_on,48,0,300
2,note_on,36,0,0
2,note_on,41,42,0
2,note_on,53,51,60
2,note_on,53,0,660
2,note_on,41,0,0
2,note_on,29,33,0
2,note_on,41,52,60
2,note_on,41,0,660
2,note_on,29,0,0
2,note_on,38,43,0
2,note_on,50,51,60
2,note_on,50,0,660
2,note_on,38,0,0
2,note_on,39,49,0
2,note_on,51,58,60
2,note_on,51,0,300
2,note_on,39,0,0
2,note_on,41,51,0
2,note_on,53,62,60
2,note_on,53,0,300
2,note_on,41,0,0
2,note_on,43,54,0
2,note_on,55,64,60
2,note_on,55,0,660
2,note_on,43,0,0
2,note_on,50,48,0
2,note_on,62,57,60
2,note_on,62,0,720
2,note_on,50,0,300
2,note_on,47,49,0
2,note_on,59,58,60
2,note_on,59,0,300
2,note_on,47,0,0
2,note_on,43,51,0
2,note_on,55,62,60
2,note_on,55,0,300
2,note_on,43,0,0
2,note_on,41,47,0
2,note_on,53,56,60
2,note_on,53,0,300
2,note_on,41,0,0
2,note_on,39,42,0
2,note_on,51,51,60
2,note_on,51,0,660
2,note_on,39,0,0
2,note_on,36,33,0
2,note_on,48,52,60
2,note_on,48,0,660
2,note_on,36,0,0
2,note_on,39,43,0
2,note_on,51,51,60
2,note_on,51,0,660
2,note_on,39,0,0
2,note_on,41,49,0
2,note_on,53,58,60
2,note_on,53,0,300
2,note_on,41,0,0
2,note_on,43,51,0
2,note_on,55,62,60
2,note_on,55,0,300
2,note_on,43,0,0
2,note_on,45,54,0
2,note_on,57,64,60
2,note_on,57,0,660
2,note_on,45,0,0
2,note_on,52,48,0
2,note_on,64,57,60
2,note_on,64,0,720
2,note_on,52,0,300
2,note_on,49,49,0
2,note_on,61,58,60
2,note_on,61,0,300
2,note_on,49,0,0
2,note_on,45,51,0
2,note_on,57,62,60
2,note_on,57,0,300
2,note_on,45,0,0
2,note_on,43,47,0
2,note_on,55,56,60
2,note_on,55,0,300
2,note_on,43,0,0
2,note_on,42,42,0
2,note_on,54,51,60
2,note_on,54,0,660
2,note_on,42,0,0
2,note_on,38,33,0
2,note_on,50,52,60
2,note_on,50,0,660
2,note_on,38,0,0
2,note_on,34,43,0
2,note_on,46,51,60
2,note_on,46,0,660
2,note_on,34,0,0
2,note_on,36,49,0
2,note_on,48,58,60
2,note_on,48,0,300
2,note_on,36,0,0
2,note_on,38,51,0
2,note_on,50,62,60
2,note_on,50,0,300
2,note_on,38,0,0
2,note_on,39,54,0
2,note_on,51,64,60
2,note_on,51,0,660
2,note_on,39,0,0
2,note_on,46,48,0
2,note_on,58,62,60
2,note_on,58,0,720
2,note_on,46,0,300
2,note_on,48,49,360
2,note_on,60,63,60
2,note_on,60,0,300
2,note_on,48,0,0
2,note_on,50,54,420
2,note_on,62,64,0
2,note_on,62,0,1380
2,note_on,50,0,0
2,note_on,38,43,0
2,note_on,50,51,60
2,note_on,50,0,660
2,note_on,38,0,0
2,note_on,39,49,0
2,note_on,51,58,60
2,note_on,51,0,300
2,note_on,39,0,0
2,note_on,41,51,0
2,note_on,53,62,60
2,note_on,53,0,300
2,note_on,41,0,0
2,note_on,43,54,0
2,note_on,55,64,60
2,note_on,55,0,660
2,note_on,43,0,0
2,note_on,50,48,0
2,note_on,62,62,60
2,note_on,62,0,720
2,note_on,50,0,660
2,note_on,52,49,0
2,note_on,64,63,60
2,note_on,52,0,720
2,note_on,54,54,0
2,note_on,66,64,0
2,note_on,64,0,9
2,note_on,66,0,1071
2,note_on,54,0,0
2,note_on,55,54,0
2,note_on,48,47,360
2,note_on,60,47,0
2,note_on,55,0,1440
2,note_on,48,0,1200
2,note_on,48,37,0
2,note_on,48,0,240
2,note_on,53,48,0
2,note_on,53,0,480
2,note_on,50,41,0
2,note_on,50,0,240
2,note_on,60,0,0
2,note_on,55,49,0
2,note_on,43,40,480
2,note_on,48,49,240
2,note_on,48,0,1200
2,note_on,50,50,0
2,note_on,55,0,240
2,note_on,55,49,0
2,note_on,43,0,2640
2,note_on,43,37,0
2,note_on,43,0,240
2,note_on,50,0,0
2,note_on,48,48,0
2,note_on,48,0,480
2,note_on,45,41,0
2,note_on,45,0,240
2,note_on,55,0,0
2,note_on,50,49,0
2,note_on,38,40,480
2,note_on,38,0,2880
2,note_on,50,0,0
2,note_on,31,37,0
2,note_on,43,37,0
2,note_on,43,0,4320
2,note_on,31,0,0
2,note_on,41,47,0
2,note_on,53,54,0
2,note_on,53,0,1440
2,note_on,41,0,0
2,note_on,34,37,0
2,note_on,46,50,0
2,note_on,46,0,2400
2,note_on,34,0,0
2,note_on,36,29,0
2,note_on,48,29,0
2,note_on,48,0,480
2,note_on,36,0,0
2,note_on,37,27,0
2,note_on,49,27,0
2,note_on,49,0,240
2,note_on,37,0,0
2,note_on,38,28,0
2,note_on,50,34,0
2,note_on,50,0,2640
2,note_on,38,0,0
2,note_on,31,32,0
2,note_on,43,41,0
2,note_on,31,0,1440
2,note_on,31,33,0
2,note_on,31,0,240
2,note_on,36,42,0
2,note_on,36,0,480
2,note_on,33,36,0
2,note_on,33,0,240
2,note_on,43,0,0
2,note_on,38,43,0
2,note_on,26,35,480
2,note_on,26,0,2400
2,note_on,31,48,0
2,note_on,31,0,1920
2,note_on,31,33,0
2,note_on,31,0,240
2,note_on,38,0,0
2,note_on,36,42,0
2,note_on,36,0,480
2,note_on,33,36,0
2,note_on,33,0,240
2,note_on,38,43,0
2,note_on,26,35,480
2,note_on,26,0,240
2,note_on,31,43,0
2,note_on,31,0,960
2,note_on,38,0,0
2,note_on,26,70,480
2,note_on,58,55,360
2,note_on,58,0,120
2,note_on,26,0,0
2,note_on,58,61,0
2,note_on,58,0,240
2,note_on,58,66,0
2,note_on,58,0,360
2,note_on,45,51,720
2,note_on,50,61,0
2,note_on,50,0,120
2,note_on,45,0,0
2,note_on,45,49,0
2,note_on,50,58,0
2,note_on,50,0,240
2,note_on,45,0,0
2,note_on,45,53,0
2,note_on,50,63,0
2,note_on,50,0,240
2,note_on,45,0,0
2,note_on,37,70,480
2,note_on,25,70,0
2,note_on,58,55,360
2,note_on,58,0,120
2,note_on,25,0,0
2,note_on,37,0,0
2,note_on,58,61,0
2,note_on,58,0,240
2,note_on,58,66,0
2,note_on,58,0,360
2,note_on,45,51,720
2,note_on,52,61,0
2,note_on,52,0,120
2,note_on,45,0,0
2,note_on,45,49,0
2,note_on,52,58,0
2,note_on,52,0,240
2,note_on,45,0,0
2,note_on,45,53,0
2,note_on,52,63,0
2,note_on,52,0,240
2,note_on,45,0,0
2,note_on,38,70,480
2,note_on,26,70,0
2,note_on,64,55,360
2,note_on,64,0,120
2,note_on,26,0,0
2,note_on,38,0,0
2,note_on,64,61,0
2,note_on,64,0,240
2,note_on,64,66,0
2,note_on,64,0,240
2,note_on,62,61,120
2,note_on,62,0,120
2,note_on,62,58,0
2,note_on,62,0,240
2,note_on,62,62,0
2,note_on,50,51,360
2,note_on,53,61,0
2,note_on,53,0,120
2,note_on,50,0,0
2,note_on,50,49,0
2,note_on,53,58,0
2,note_on,53,0,240
2,note_on,50,0,0
2,note_on,50,53,0
2,note_on,53,63,0
2,note_on,53,0,240
2,note_on,50,0,0
2,note_on,62,0,0
2,note_on,43,70,480
2,note_on,31,70,0
2,note_on,67,55,360
2,note_on,67,0,120
2,note_on,31,0,0
2,note_on,43,0,0
2,note_on,67,61,0
2,note_on,67,0,240
2,note_on,67,66,0
2,note_on,67,0,240
2,note_on,48,56,120
2,note_on,52,67,0
2,note_on,52,0,60
2,note_on,48,0,0
2,note_on,48,53,60
2,note_on,52,63,0
2,note_on,52,0,120
2,note_on,48,0,0
2,note_on,48,57,120
2,note_on,52,68,0
2,note_on,52,0,240
2,note_on,48,0,0
2,note_on,36,61,120
2,note_on,48,73,0
2,note_on,48,0,120
2,note_on,36,0,0
2,note_on,36,58,0
2,note_on,48,69,0
2,note_on,48,0,240
2,note_on,36,0,0
2,note_on,36,63,0
2,note_on,48,75,0
2,note_on,48,0,240
2,note_on,36,0,0
2,note_on,29,62,480
2,note_on,41,73,0
2,note_on,41,0,480
2,note_on,29,0,0
2,note_on,60,83,0
2,note_on,60,0,720
2,note_on,62,82,0
2,note_on,62,0,240
2,note_on,30,62,0
2,note_on,42,73,0
2,note_on,51,77,480
2,note_on,51,0,240
2,note_on,63,79,0
2,note_on,63,0,720
2,note_on,42,0,0
2,note_on,30,0,0
2,note_on,31,62,0
2,note_on,43,73,7
2,note_on,31,0,473
2,note_on,60,83,0
2,note_on,43,0,7
2,note_on,60,0,713
2,note_on,62,82,0
2,note_on,62,0,240
2,note_on,34,62,0
2,note_on,46,73,0
2,note_on,52,77,480
2,note_on,52,0,240
2,note_on,64,79,0
2,note_on,64,0,720
2,note_on,46,0,0
2,note_on,34,0,0
2,note_on,45,73,0
2,note_on,33,62,0
2,note_on,33,0,480
2,note_on,45,0,0
2,note_on,60,83,0
2,note_on,60,0,720
2,note_on,62,82,0
2,note_on,62,0,240
2,note_on,32,62,0
2,note_on,44,73,0
2,note_on,51,77,480
2,note_on,51,0,240
2,note_on,63,79,0
2,note_on,63,0,720
2,note_on,44,0,0
2,note_on,32,0,0
2,note_on,31,62,0
2,note_on,43,73,0
2,note_on,55,77,480
2,note_on,55,0,240
2,note_on,67,79,0
2,note_on,67,0,720
2,note_on,43,0,0
2,note_on,31,0,0
2,note_on,36,62,0
2,note_on,48,73,0
2,note_on,48,0,480
2,note_on,36,0,0
2,note_on,64,77,0
2,note_on,64,0,240
2,note_on,29,62,720
2,note_on,41,73,0
2,note_on,41,0,480
2,note_on,29,0,0
2,note_on,60,83,0
2,note_on,60,0,720
2,note_on,62,82,0
2,note_on,62,0,240
2,note_on,30,62,0
2,note_on,42,73,0
2,note_on,51,77,480
2,note_on,51,0,240
2,note_on,63,79,0
2,note_on,63,0,720
2,note_on,42,0,0
2,note_on,30,0,0
2,note_on,31,62,0
2,note_on,43,73,7
2,note_on,31,0,473
2,note_on,60,83,0
2,note_on,43,0,7
2,note_on,60,0,713
2,note_on,62,82,0
2,note_on,62,0,240
2,note_on,34,62,0
2,note_on,46,73,0
2,note_on,52,77,480
2,note_on,52,0,240
2,note_on,64,79,0
2,note_on,64,0,720
2,note_on,46,0,0
2,note_on,34,0,0
2,note_on,45,73,0
2,note_on,33,62,0
2,note_on,33,0,480
2,note_on,45,0,0
2,note_on,60,83,0
2,note_on,60,0,720
2,note_on,62,82,0
2,note_on,62,0,240
2,note_on,32,62,0
2,note_on,44,73,0
2,note_on,51,77,480
2,note_on,51,0,240
2,note_on,63,79,0
2,note_on,63,0,720
2,note_on,44,0,0
2,note_on,32,0,0
2,note_on,31,62,0
2,note_on,43,73,0
2,note_on,55,77,480
2,note_on,55,0,240
2,note_on,67,79,0
2,note_on,67,0,720
2,note_on,43,0,0
2,note_on,31,0,0
2,note_on,36,62,0
2,note_on,48,73,0
2,note_on,48,0,480
2,note_on,36,0,0
2,note_on,64,77,0
2,note_on,64,0,240
2,note_on,36,70,720
2,note_on,24,63,0
2,note_on,24,0,240
2,note_on,36,0,0
2,note_on,63,55,120
2,note_on,63,0,120
2,note_on,63,61,0
2,note_on,63,0,240
2,note_on,63,66,0
2,note_on,63,0,360
2,note_on,62,59,0
2,note_on,62,0,120
2,note_on,62,56,0
2,note_on,62,0,240
2,note_on,62,67,0
2,note_on,50,51,360
2,note_on,54,61,0
2,note_on,54,0,120
2,note_on,50,0,0
2,note_on,50,49,0
2,note_on,54,58,0
2,note_on,54,0,240
2,note_on,50,0,0
2,note_on,50,53,0
2,note_on,54,63,0
2,note_on,54,0,240
2,note_on,50,0,0
2,note_on,62,0,0
2,note_on,43,70,480
2,note_on,31,70,0
2,note_on,31,0,240
2,note_on,43,0,0
2,note_on,63,55,120
2,note_on,63,0,120
2,note_on,63,61,0
2,note_on,63,0,240
2,note_on,63,66,0
2,note_on,63,0,360
2,note_on,50,51,720
2,note_on,55,61,0
2,note_on,55,0,120
2,note_on,50,0,0
2,note_on,50,49,0
2,note_on,55,58,0
2,note_on,55,0,240
2,note_on,50,0,0
2,note_on,50,53,0
2,note_on,55,63,0
2,note_on,55,0,240
2,note_on,50,0,0
2,note_on,50,70,480
2,note_on,38,70,0
2,note_on,38,0,240
2,note_on,50,0,0
2,note_on,65,55,120
2,note_on,65,0,120
2,note_on,65,61,0
2,note_on,65,0,240
2,note_on,65,66,0
2,note_on,65,0,360
2,note_on,64,61,0
2,note_on,64,0,120
2,note_on,64,58,0
2,note_on,64,0,240
2,note_on,64,62,0
2,note_on,52,51,360
2,note_on,56,61,0
2,note_on,56,0,120
2,note_on,52,0,0
2,note_on,52,49,0
2,note_on,56,58,0
2,note_on,56,0,240
2,note_on,52,0,0
2,note_on,52,53,0
2,note_on,56,63,0
2,note_on,56,0,240
2,note_on,52,0,0
2,note_on,64,0,0
2,note_on,48,70,480
2,note_on,36,70,0
2,note_on,36,0,240
2,note_on,48,0,0
2,note_on,65,55,120
2,note_on,65,0,120
2,note_on,65,61,0
2,note_on,65,0,240
2,note_on,65,66,0
2,note_on,65,0,360
2,note_on,64,67,0
2,note_on,64,0,120
2,note_on,64,63,0
2,note_on,64,0,240
2,note_on,64,62,0
2,note_on,52,54,360
2,note_on,57,65,7
2,note_on,52,0,113
2,note_on,52,52,0
2,note_on,57,62,0
2,note_on,57,0,7
2,note_on,57,0,233
2,note_on,52,0,0
2,note_on,57,67,0
2,note_on,52,56,7
2,note_on,57,0,233
2,note_on,64,0,0
2,note_on,52,0,7
2,note_on,50,70,473
2,note_on,38,70,0
2,note_on,38,0,240
2,note_on,50,0,0
2,note_on,71,66,120
2,note_on,71,0,60
2,note_on,71,67,60
2,note_on,71,0,120
2,note_on,71,76,120
2,note_on,71,0,180
2,note_on,77,70,180
2,note_on,77,0,60
2,note_on,77,70,60
2,note_on,77,0,120
2,note_on,77,78,120
2,note_on,71,70,360
2,note_on,71,0,60
2,note_on,71,74,60
2,note_on,71,0,120
2,note_on,77,0,120
2,note_on,71,75,0
2,note_on,71,0,120
2,note_on,47,70,600
2,note_on,35,70,0
2,note_on,35,0,240
2,note_on,47,0,0
2,note_on,59,66,120
2,note_on,59,0,60
2,note_on,59,67,60
2,note_on,59,0,120
2,note_on,59,76,120
2,note_on,59,0,180
2,note_on,69,70,180
2,note_on,69,0,60
2,note_on,69,70,60
2,note_on,69,0,120
2,note_on,69,78,120
2,note_on,59,70,360
2,note_on,59,0,60
2,note_on,59,74,60
2,note_on,59,0,120
2,note_on,69,0,120
2,note_on,59,75,0
2,note_on,59,0,120
2,note_on,52,70,600
2,note_on,40,70,0
2,note_on,40,0,240
2,note_on,52,0,0
2,note_on,71,66,120
2,note_on,71,0,60
2,note_on,71,67,60
2,note_on,71,0,120
2,note_on,71,76,120
2,note_on,71,0,180
2,note_on,76,70,180
2,note_on,76,0,60
2,note_on,76,70,60
2,note_on,76,0,120
2,note_on,76,78,120
2,note_on,71,70,360
2,note_on,71,0,60
2,note_on,71,74,60
2,note_on,71,0,120
2,note_on,76,0,120
2,note_on,71,75,0
2,note_on,71,0,120
2,note_on,40,70,600
2,note_on,28,70,0
2,note_on,28,0,240
2,note_on,40,0,0
2,note_on,52,66,120
2,note_on,52,0,60
2,note_on,52,67,60
2,note_on,52,0,120
2,note_on,52,76,120
2,note_on,52,0,180
2,note_on,64,66,180
2,note_on,64,0,60
2,note_on,64,65,60
2,note_on,64,0,120
2,note_on,64,68,120
2,note_on,52,56,360
2,note_on,52,0,60
2,note_on,52,57,60
2,note_on,52,0,120
2,note_on,64,0,120
2,note_on,52,54,0
2,note_on,52,0,120
2,note_on,45,56,600
2,note_on,33,56,0
2,note_on,33,0,240
2,note_on,45,0,0
2,note_on,65,44,120
2,note_on,65,0,120
2,note_on,65,48,0
2,note_on,65,0,240
2,note_on,65,52,0
2,note_on,65,0,360
2,note_on,64,59,0
2,note_on,64,0,120
2,note_on,64,56,0
2,note_on,64,0,240
2,note_on,64,60,0
2,note_on,52,40,360
2,note_on,57,48,0
2,note_on,57,0,120
2,note_on,52,0,0
2,note_on,52,39,0
2,note_on,57,46,0
2,note_on,57,0,240
2,note_on,52,0,0
2,note_on,52,42,0
2,note_on,57,50,0
2,note_on,57,0,240
2,note_on,52,0,0
2,note_on,64,0,0
2,note_on,44,66,480
2,note_on,32,66,0
2,note_on,65,52,360
2,note_on,65,0,120
2,note_on,32,0,0
2,note_on,44,0,0
2,note_on,65,57,0
2,note_on,65,0,240
2,note_on,65,62,0
2,note_on,65,0,360
2,note_on,64,72,0
2,note_on,64,0,120
2,note_on,64,72,0
2,note_on,64,0,240
2,note_on,64,75,0
2,note_on,52,48,360
2,note_on,56,57,0
2,note_on,56,0,120
2,note_on,52,0,0
2,note_on,52,46,0
2,note_on,56,55,0
2,note_on,56,0,240
2,note_on,52,0,0
2,note_on,64,0,0
2,note_on,52,50,0
2,note_on,56,59,0
2,note_on,56,0,240
2,note_on,52,0,0
2,note_on,45,70,480
2,note_on,33,70,0
2,note_on,71,55,360
2,note_on,71,0,120
2,note_on,33,0,0
2,note_on,45,0,0
2,note_on,71,61,0
2,note_on,71,0,240
2,note_on,71,66,0
2,note_on,71,0,360
2,note_on,69,61,0
2,note_on,69,0,120
2,note_on,69,58,0
2,note_on,69,0,240
2,note_on,69,62,0
2,note_on,57,51,360
2,note_on,60,61,0
2,note_on,60,0,120
2,note_on,57,0,0
2,note_on,57,49,0
2,note_on,60,58,0
2,note_on,60,0,240
2,note_on,57,0,0
2,note_on,57,53,0
2,note_on,60,63,0
2,note_on,60,0,240
2,note_on,57,0,0
2,note_on,69,0,0
2,note_on,50,70,480
2,note_on,38,70,0
2,note_on,74,55,360
2,note_on,74,0,120
2,note_on,38,0,0
2,note_on,50,0,0
2,note_on,74,61,0
2,note_on,74,0,240
2,note_on,74,66,0
2,note_on,74,0,240
2,note_on,55,56,120
2,note_on,59,67,0
2,note_on,59,0,60
2,note_on,55,0,0
2,note_on,55,53,60
2,note_on,59,63,0
2,note_on,59,0,120
2,note_on,55,0,0
2,note_on,55,57,120
2,note_on,59,68,0
2,note_on,59,0,240
2,note_on,55,0,0
2,note_on,43,61,120
2,note_on,55,73,0
2,note_on,55,0,120
2,note_on,43,0,0
2,note_on,43,58,0
2,note_on,55,69,0
2,note_on,55,0,240
2,note_on,43,0,0
2,note_on,43,63,0
2,note_on,55,75,0
2,note_on,55,0,4080
2,note_on,43,0,0
2,note_on,41,41,0
2,note_on,53,45,0
2,note_on,53,0,720
2,note_on,41,0,0
2,note_on,55,51,0
2,note_on,43,39,0
2,note_on,55,0,1440
2,note_on,50,48,0
2,note_on,55,46,240
2,note_on,50,0,1440
2,note_on,43,0,1200
2,note_on,43,37,0
2,note_on,43,0,240
2,note_on,48,47,0
2,note_on,48,0,480
2,note_on,45,41,0
2,note_on,45,0,240
2,note_on,55,0,0
2,note_on,50,48,0
2,note_on,38,39,480
2,note_on,38,0,2160
2,note_on,50,0,0
2,note_on,43,37,0
2,note_on,31,37,0
2,note_on,31,0,2160
2,note_on,43,0,0
2,note_on,31,37,0
2,note_on,31,0,240
2,note_on,36,47,0
2,note_on,36,0,480
2,note_on,33,41,0
2,note_on,33,0,240
2,note_on,38,48,0
2,note_on,26,39,480
2,note_on,26,0,720
2,note_on,38,0,0
2,note_on,38,46,960
2,note_on,50,46,0
2,note_on,50,0,1920
2,note_on,38,0,0
2,note_on,31,43,0
2,note_on,43,48,0
2,note_on,43,0,3600
2,note_on,31,0,0
2,note_on,41,46,0
2,note_on,53,54,0
2,note_on,53,0,1440
2,note_on,41,0,0
2,note_on,34,37,0
2,note_on,46,45,0
2,note_on,46,0,2400
2,note_on,34,0,0
2,note_on,36,31,0
2,note_on,48,31,0
2,note_on,48,0,480
2,note_on,36,0,0
2,note_on,37,28,0
2,note_on,49,28,0
2,note_on,49,0,240
2,note_on,37,0,0
2,note_on,38,30,0
2,note_on,50,36,0
2,note_on,50,0,1920
2,note_on,38,0,0
2,note_on,31,39,0
2,note_on,43,51,0
2,note_on,31,0,2160
2,note_on,31,33,0
2,note_on,31,0,240
2,note_on,36,42,0
2,note_on,36,0,480
2,note_on,33,36,0
2,note_on,33,0,240
2,note_on,43,0,0
2,note_on,38,43,0
2,note_on,26,35,480
2,note_on,26,0,2400
2,note_on,31,45,0
2,note_on,31,0,1920
2,note_on,31,31,0
2,note_on,31,0,240
2,note_on,38,0,0
2,note_on,36,39,0
2,note_on,33,34,480
2,note_on,33,0,240
2,note_on,36,0,0
2,note_on,38,39,0
2,note_on,26,31,480
2,note_on,26,0,240
2,note_on,38,0,0
2,note_on,31,39,0
2,note_on,31,0,480
2,note_on,55,34,960
2,note_on,58,40,0
2,note_on,58,0,120
2,note_on,55,0,0
2,note_on,54,27,240
2,note_on,54,0,120
2,note_on,50,33,0
2,note_on,57,39,0
2,note_on,57,0,120
2,note_on,50,0,0
2,note_on,51,32,120
2,note_on,55,38,0
2,note_on,55,0,120
2,note_on,51,0,0
2,note_on,48,27,240
2,note_on,48,0,120
2,note_on,45,27,0
2,note_on,51,33,0
2,note_on,51,0,120
2,note_on,45,0,0
2,note_on,46,34,120
2,note_on,50,40,0
2,note_on,50,0,120
2,note_on,46,0,0
2,note_on,45,27,240
2,note_on,45,0,120
2,note_on,42,32,0
2,note_on,48,38,0
2,note_on,48,0,120
2,note_on,42,0,0
2,note_on,43,31,120
2,note_on,46,37,0
2,note_on,46,0,120
2,note_on,43,0,0
2,note_on,42,26,240
2,note_on,42,0,120
2,note_on,38,26,0
2,note_on,45,31,0
2,note_on,45,0,120
2,note_on,38,0,0
2,note_on,39,32,120
2,note_on,43,37,0
2,note_on,43,0,120
2,note_on,39,0,0
2,note_on,36,26,240
2,note_on,36,0,120
2,note_on,33,30,0
2,note_on,39,36,0
2,note_on,39,0,120
2,note_on,33,0,0
2,note_on,34,29,120
2,note_on,38,35,0
2,note_on,38,0,120
2,note_on,34,0,0
2,note_on,33,24,240
2,note_on,33,0,120
2,note_on,30,25,0
2,note_on,36,29,0
2,note_on,36,0,120
2,note_on,30,0,0
2,note_on,31,29,120
2,note_on,34,29,0
2,note_on,34,0,120
2,note_on,31,0,0
2,note_on,26,25,600
2,note_on,26,0,120
2,note_on,31,26,600
2,note_on,31,0,120
