Track,Message Type,Note,Velocity,Time
1,note_on,65,51,240
1,note_on,65,0,240
1,note_on,67,55,0
1,note_on,67,0,720
1,note_on,69,56,0
1,note_on,69,0,480
1,note_on,70,55,0
1,note_on,70,0,240
1,note_on,74,61,0
1,note_on,74,0,720
1,note_on,72,55,0
1,note_on,72,0,480
1,note_on,65,52,0
1,note_on,65,0,240
1,note_on,71,55,0
1,note_on,71,0,720
1,note_on,72,60,0
1,note_on,72,0,480
1,note_on,74,58,0
1,note_on,74,0,240
1,note_on,77,66,0
1,note_on,77,0,720
1,note_on,75,64,0
1,note_on,75,0,480
1,note_on,75,71,0
1,note_on,75,0,240
1,note_on,76,77,0
1,note_on,76,0,720
1,note_on,82,72,0
1,note_on,82,0,480
1,note_on,81,67,0
1,note_on,81,0,240
1,note_on,69,66,0
1,note_on,69,0,720
1,note_on,82,69,0
1,note_on,82,0,480
1,note_on,81,61,0
1,note_on,81,0,240
1,note_on,69,56,0
1,note_on,69,0,720
1,note_on,82,58,0
1,note_on,82,0,480
1,note_on,81,53,0
1,note_on,81,0,240
1,note_on,69,50,0
1,note_on,62,35,240
1,note_on,65,35,0
1,note_on,65,0,240
1,note_on,62,0,0
1,note_on,62,31,0
1,note_on,65,31,0
1,note_on,65,0,240
1,note_on,62,0,0
1,note_on,65,31,0
1,note_on,62,31,0
1,note_on,62,0,240
1,note_on,65,0,0
1,note_on,62,31,0
1,note_on,65,31,0
1,note_on,65,0,240
1,note_on,62,0,0
1,note_on,69,0,0
1,note_on,53,52,0
1,note_on,53,0,240
1,note_on,55,55,0
1,note_on,55,0,720
1,note_on,57,55,0
1,note_on,57,0,480
1,note_on,60,52,0
1,note_on,60,0,240
1,note_on,55,59,0
1,note_on,55,0,720
1,note_on,53,55,0
1,note_on,53,0,480
1,note_on,55,57,0
1,note_on,55,0,240
1,note_on,57,63,0
1,note_on,57,0,720
1,note_on,59,66,0
1,note_on,59,0,480
1,note_on,62,61,0
1,note_on,62,0,240
1,note_on,56,72,0
1,note_on,56,0,720
1,note_on,55,70,0
1,note_on,55,0,480
1,note_on,60,72,0
1,note_on,60,0,240
1,note_on,61,75,0
1,note_on,72,70,720
1,note_on,72,0,480
1,note_on,70,67,0
1,note_on,70,0,240
1,note_on,61,0,0
1,note_on,62,74,0
1,note_on,69,70,720
1,note_on,69,0,480
1,note_on,67,63,0
1,note_on,67,0,240
1,note_on,62,0,0
1,note_on,56,58,0
1,note_on,56,0,480
1,note_on,57,53,0
1,note_on,57,0,240
1,note_on,62,58,0
1,note_on,62,0,480
1,note_on,57,54,0
1,note_on,57,0,240
1,note_on,57,50,0
1,note_on,57,0,720
1,note_on,58,46,0
1,note_on,58,0,480
1,note_on,57,52,0
1,note_on,57,0,240
1,note_on,55,55,0
1,note_on,55,0,720
1,note_on,57,56,0
1,note_on,57,0,480
1,note_on,60,53,0
1,note_on,60,0,240
1,note_on,55,59,0
1,note_on,55,0,720
1,note_on,53,55,0
1,note_on,53,0,480
1,note_on,55,57,0
1,note_on,55,0,240
1,note_on,57,60,0
1,note_on,57,0,720
1,note_on,59,66,0
1,note_on,59,0,480
1,note_on,62,62,0
1,note_on,62,0,240
1,note_on,56,72,0
1,note_on,56,0,720
1,note_on,55,70,0
1,note_on,55,0,480
1,note_on,60,72,0
1,note_on,60,0,240
1,note_on,61,77,0
1,note_on,72,72,720
1,note_on,72,0,480
1,note_on,70,67,0
1,note_on,70,0,240
1,note_on,61,0,0
1,note_on,62,74,0
1,note_on,69,70,720
1,note_on,69,0,480
1,note_on,67,58,0
1,note_on,67,0,240
1,note_on,62,0,0
1,note_on,56,54,0
1,note_on,56,0,480
1,note_on,57,50,0
1,note_on,57,0,240
1,note_on,62,56,0
1,note_on,62,0,480
1,note_on,57,53,0
1,note_on,57,0,240
1,note_on,60,50,0
1,note_on,60,0,720
1,note_on,58,46,0
1,note_on,58,0,480
1,note_on,62,55,240
1,note_on,62,0,720
1,note_on,65,64,11
1,note_on,57,36,229
1,note_on,61,36,0
1,note_on,61,0,240
1,note_on,57,0,0
1,note_on,57,34,0
1,note_on,61,34,0
1,note_on,64,58,0
1,note_on,65,0,11
1,note_on,57,0,229
1,note_on,61,0,0
1,note_on,64,0,0
1,note_on,61,51,0
1,note_on,61,0,120
1,note_on,62,53,0
1,note_on,62,0,120
1,note_on,64,55,0
1,note_on,64,0,120
1,note_on,65,58,0
1,note_on,65,0,120
1,note_on,68,60,0
1,note_on,68,0,120
1,note_on,69,63,0
1,note_on,69,0,120
1,note_on,73,66,0
1,note_on,73,0,120
1,note_on,74,68,0
1,note_on,74,0,120
1,note_on,77,74,0
1,note_on,77,0,120
1,note_on,62,56,360
1,note_on,62,0,720
1,note_on,65,64,0
1,note_on,57,36,240
1,note_on,61,36,0
1,note_on,61,0,240
1,note_on,57,0,0
1,note_on,65,0,0
1,note_on,57,34,0
1,note_on,61,34,0
1,note_on,64,58,0
1,note_on,64,0,240
1,note_on,61,0,0
1,note_on,57,0,0
1,note_on,61,51,0
1,note_on,61,0,120
1,note_on,62,53,0
1,note_on,62,0,120
1,note_on,64,55,0
1,note_on,64,0,120
1,note_on,65,58,0
1,note_on,65,0,120
1,note_on,68,60,0
1,note_on,68,0,120
1,note_on,69,63,0
1,note_on,69,0,120
1,note_on,73,66,0
1,note_on,73,0,120
1,note_on,74,68,0
1,note_on,74,0,120
1,note_on,81,73,0
1,note_on,81,0,120
1,note_on,62,57,360
1,note_on,62,0,720
1,note_on,65,64,0
1,note_on,61,36,240
1,note_on,57,36,0
1,note_on,57,0,240
1,note_on,61,0,0
1,note_on,65,0,0
1,note_on,64,58,0
1,note_on,57,34,0
1,note_on,61,34,0
1,note_on,61,0,240
1,note_on,57,0,0
1,note_on,64,0,0
1,note_on,61,51,0
1,note_on,61,0,120
1,note_on,62,53,0
1,note_on,62,0,120
1,note_on,64,55,0
1,note_on,64,0,120
1,note_on,65,58,0
1,note_on,65,0,120
1,note_on,68,60,0
1,note_on,68,0,120
1,note_on,69,63,0
1,note_on,69,0,120
1,note_on,73,66,0
1,note_on,73,0,120
1,note_on,74,68,0
1,note_on,74,0,120
1,note_on,77,74,0
1,note_on,77,0,120
1,note_on,62,58,360
1,note_on,62,0,720
1,note_on,65,63,0
1,note_on,61,36,240
1,note_on,57,36,0
1,note_on,57,0,240
1,note_on,61,0,0
1,note_on,65,0,0
1,note_on,64,58,0
1,note_on,57,34,0
1,note_on,61,34,0
1,note_on,61,0,240
1,note_on,57,0,0
1,note_on,64,0,0
1,note_on,61,51,0
1,note_on,61,0,120
1,note_on,62,53,0
1,note_on,62,0,120
1,note_on,64,55,0
1,note_on,64,0,120
1,note_on,65,58,0
1,note_on,65,0,120
1,note_on,68,60,0
1,note_on,68,0,120
1,note_on,69,63,0
1,note_on,69,0,120
1,note_on,73,66,0
1,note_on,73,0,120
1,note_on,74,68,0
1,note_on,74,0,120
1,note_on,81,74,0
1,note_on,81,0,120
1,note_on,86,85,360
1,note_on,86,0,720
1,note_on,74,72,0
1,note_on,74,0,720
1,note_on,60,57,0
1,note_on,60,0,360
1,note_on,62,54,0
1,note_on,62,0,120
1,note_on,63,57,0
1,note_on,63,0,120
1,note_on,64,59,0
1,note_on,64,0,120
1,note_on,67,62,0
1,note_on,57,46,240
1,note_on,60,46,0
1,note_on,60,0,120
1,note_on,57,0,0
1,note_on,67,0,120
1,note_on,60,42,0
1,note_on,57,42,0
1,note_on,65,59,0
1,note_on,57,0,120
1,note_on,60,0,0
1,note_on,65,0,120
1,note_on,82,74,0
1,note_on,82,0,720
1,note_on,70,67,0
1,note_on,70,0,720
1,note_on,57,57,0
1,note_on,57,0,360
1,note_on,58,49,0
1,note_on,58,0,120
1,note_on,59,52,0
1,note_on,59,0,120
1,note_on,61,55,0
1,note_on,61,0,120
1,note_on,64,58,0
1,note_on,53,46,240
1,note_on,53,0,120
1,note_on,64,0,120
1,note_on,62,56,0
1,note_on,53,42,0
1,note_on,53,0,120
1,note_on,62,0,120
1,note_on,67,41,240
1,note_on,58,36,0
1,note_on,62,41,0
1,note_on,62,0,240
1,note_on,58,0,0
1,note_on,67,0,0
1,note_on,67,35,0
1,note_on,58,30,0
1,note_on,62,35,0
1,note_on,62,0,240
1,note_on,58,0,0
1,note_on,67,0,0
1,note_on,81,70,0
1,note_on,81,0,480
1,note_on,69,59,0
1,note_on,69,0,240
1,note_on,62,41,240
1,note_on,58,36,0
1,note_on,67,41,0
1,note_on,67,0,240
1,note_on,58,0,0
1,note_on,62,0,0
1,note_on,62,35,0
1,note_on,58,30,0
1,note_on,67,35,0
1,note_on,67,0,240
1,note_on,58,0,0
1,note_on,62,0,0
1,note_on,81,69,0
1,note_on,81,0,480
1,note_on,69,59,0
1,note_on,69,0,240
1,note_on,64,50,0
1,note_on,64,0,360
1,note_on,63,45,0
1,note_on,63,0,120
1,note_on,64,48,0
1,note_on,64,0,120
1,note_on,65,51,0
1,note_on,65,0,120
1,note_on,69,54,0
1,note_on,69,0,480
1,note_on,67,52,0
1,note_on,67,0,240
1,note_on,62,39,240
1,note_on,58,39,0
1,note_on,55,36,0
1,note_on,55,0,480
1,note_on,58,0,0
1,note_on,62,0,0
1,note_on,52,32,240
1,note_on,55,32,0
1,note_on,61,36,0
1,note_on,61,0,480
1,note_on,55,0,0
1,note_on,52,0,0
1,note_on,62,55,0
1,note_on,62,0,720
1,note_on,65,64,0
1,note_on,61,36,240
1,note_on,57,36,0
1,note_on,57,0,240
1,note_on,61,0,0
1,note_on,65,0,0
1,note_on,64,58,0
1,note_on,57,34,0
1,note_on,61,34,0
1,note_on,61,0,240
1,note_on,57,0,0
1,note_on,64,0,0
1,note_on,61,51,0
1,note_on,61,0,120
1,note_on,62,53,0
1,note_on,62,0,120
1,note_on,64,55,0
1,note_on,64,0,120
1,note_on,65,58,0
1,note_on,65,0,120
1,note_on,68,60,0
1,note_on,68,0,120
1,note_on,69,63,0
1,note_on,69,0,120
1,note_on,73,66,0
1,note_on,73,0,120
1,note_on,74,68,0
1,note_on,74,0,120
1,note_on,77,75,0
1,note_on,77,0,120
1,note_on,62,58,360
1,note_on,62,0,720
1,note_on,65,64,0
1,note_on,57,36,240
1,note_on,61,36,0
1,note_on,61,0,240
1,note_on,57,0,0
1,note_on,65,0,0
1,note_on,61,34,0
1,note_on,64,58,0
1,note_on,57,34,0
1,note_on,57,0,240
1,note_on,64,0,0
1,note_on,61,0,0
1,note_on,61,51,0
1,note_on,61,0,120
1,note_on,62,53,0
1,note_on,62,0,120
1,note_on,64,55,0
1,note_on,64,0,120
1,note_on,65,58,0
1,note_on,65,0,120
1,note_on,68,60,0
1,note_on,68,0,120
1,note_on,69,63,0
1,note_on,69,0,120
1,note_on,73,66,0
1,note_on,73,0,120
1,note_on,74,68,0
1,note_on,74,0,120
1,note_on,81,74,0
1,note_on,81,0,120
1,note_on,62,59,360
1,note_on,62,0,720
1,note_on,65,64,0
1,note_on,61,36,240
1,note_on,57,36,0
1,note_on,57,0,240
1,note_on,61,0,0
1,note_on,65,0,0
1,note_on,64,58,0
1,note_on,57,34,0
1,note_on,61,34,0
1,note_on,61,0,240
1,note_on,57,0,0
1,note_on,64,0,0
1,note_on,61,51,0
1,note_on,61,0,120
1,note_on,62,53,0
1,note_on,62,0,120
1,note_on,64,55,0
1,note_on,64,0,120
1,note_on,65,58,0
1,note_on,65,0,120
1,note_on,68,60,0
1,note_on,68,0,120
1,note_on,69,63,0
1,note_on,69,0,120
1,note_on,73,66,0
1,note_on,73,0,120
1,note_on,74,68,0
1,note_on,74,0,120
1,note_on,77,73,0
1,note_on,77,0,120
1,note_on,62,58,360
1,note_on,62,0,720
1,note_on,65,63,0
1,note_on,61,36,240
1,note_on,57,36,0
1,note_on,57,0,240
1,note_on,61,0,0
1,note_on,65,0,0
1,note_on,64,58,0
1,note_on,57,34,0
1,note_on,61,34,0
1,note_on,61,0,240
1,note_on,57,0,0
1,note_on,64,0,0
1,note_on,61,51,0
1,note_on,61,0,120
1,note_on,62,53,0
1,note_on,62,0,120
1,note_on,64,55,0
1,note_on,64,0,120
1,note_on,65,58,0
1,note_on,65,0,120
1,note_on,68,60,0
1,note_on,68,0,120
1,note_on,69,63,0
1,note_on,69,0,120
1,note_on,73,66,0
1,note_on,73,0,120
1,note_on,74,68,0
1,note_on,74,0,120
1,note_on,81,74,0
1,note_on,81,0,120
1,note_on,86,86,360
1,note_on,86,0,720
1,note_on,74,72,0
1,note_on,74,0,720
1,note_on,60,57,0
1,note_on,60,0,360
1,note_on,62,54,0
1,note_on,62,0,120
1,note_on,63,57,0
1,note_on,63,0,120
1,note_on,64,59,0
1,note_on,64,0,120
1,note_on,67,62,0
1,note_on,60,46,240
1,note_on,57,46,0
1,note_on,57,0,120
1,note_on,60,0,0
1,note_on,67,0,120
1,note_on,60,42,0
1,note_on,65,59,0
1,note_on,57,42,0
1,note_on,57,0,120
1,note_on,60,0,0
1,note_on,65,0,120
1,note_on,82,72,0
1,note_on,82,0,720
1,note_on,70,62,0
1,note_on,70,0,720
1,note_on,58,51,0
1,note_on,58,0,360
1,note_on,59,43,0
1,note_on,59,0,120
1,note_on,60,46,0
1,note_on,60,0,120
1,note_on,62,48,0
1,note_on,62,0,120
1,note_on,65,51,0
1,note_on,65,0,480
1,note_on,63,48,0
1,note_on,63,0,240
1,note_on,53,30,240
1,note_on,65,33,0
1,note_on,63,33,0
1,note_on,63,0,180
1,note_on,65,0,0
1,note_on,53,0,0
1,note_on,63,30,60
1,note_on,53,27,0
1,note_on,65,30,0
1,note_on,65,0,180
1,note_on,53,0,0
1,note_on,63,0,0
1,note_on,63,29,300
1,note_on,53,26,0
1,note_on,65,29,0
1,note_on,65,0,180
1,note_on,53,0,0
1,note_on,63,0,0
1,note_on,63,26,60
1,note_on,53,23,0
1,note_on,65,26,0
1,note_on,65,0,180
1,note_on,53,0,0
1,note_on,63,0,0
1,note_on,68,51,60
1,note_on,68,0,360
1,note_on,69,43,0
1,note_on,69,0,120
1,note_on,68,46,0
1,note_on,68,0,120
1,note_on,69,48,0
1,note_on,69,0,120
1,note_on,74,51,0
1,note_on,74,0,240
1,note_on,63,35,0
1,note_on,71,51,0
1,note_on,63,0,180
1,note_on,71,0,60
1,note_on,72,48,0
1,note_on,63,31,0
1,note_on,63,0,180
1,note_on,72,0,60
1,note_on,65,33,240
1,note_on,53,30,0
1,note_on,63,33,0
1,note_on,63,0,180
1,note_on,53,0,0
1,note_on,65,0,0
1,note_on,65,30,60
1,note_on,53,27,0
1,note_on,63,30,0
1,note_on,63,0,180
1,note_on,53,0,0
1,note_on,65,0,0
1,note_on,65,29,300
1,note_on,53,26,0
1,note_on,63,29,0
1,note_on,63,0,180
1,note_on,53,0,0
1,note_on,65,0,0
1,note_on,53,23,60
1,note_on,63,26,0
1,note_on,65,26,0
1,note_on,65,0,180
1,note_on,63,0,0
1,note_on,53,0,0
1,note_on,68,51,60
1,note_on,68,0,360
1,note_on,69,43,0
1,note_on,69,0,120
1,note_on,68,46,0
1,note_on,68,0,120
1,note_on,69,48,0
1,note_on,69,0,120
1,note_on,74,51,0
1,note_on,74,0,240
1,note_on,71,51,0
1,note_on,63,35,0
1,note_on,63,0,180
1,note_on,71,0,60
1,note_on,72,48,0
1,note_on,63,31,0
1,note_on,63,0,180
1,note_on,72,0,60
1,note_on,67,51,0
1,note_on,67,0,480
1,note_on,72,46,0
1,note_on,72,0,240
1,note_on,66,51,0
1,note_on,66,0,240
1,note_on,60,35,0
1,note_on,63,35,0
1,note_on,63,0,180
1,note_on,60,0,0
1,note_on,63,31,60
1,note_on,60,31,0
1,note_on,65,48,0
1,note_on,60,0,180
1,note_on,63,0,0
1,note_on,65,0,60
1,note_on,67,48,0
1,note_on,67,0,480
1,note_on,72,42,0
1,note_on,72,0,240
1,note_on,66,45,0
1,note_on,66,0,240
1,note_on,63,31,0
1,note_on,60,31,0
1,note_on,60,0,180
1,note_on,63,0,0
1,note_on,65,41,60
1,note_on,60,26,0
1,note_on,63,26,0
1,note_on,63,0,180
1,note_on,60,0,0
1,note_on,65,0,60
1,note_on,67,51,0
1,note_on,67,0,720
1,note_on,69,53,0
1,note_on,69,0,480
1,note_on,70,54,0
1,note_on,70,0,240
1,note_on,74,61,0
1,note_on,74,0,720
1,note_on,72,55,0
1,note_on,72,0,480
1,note_on,65,52,0
1,note_on,65,0,240
1,note_on,71,55,0
1,note_on,71,0,720
1,note_on,72,60,0
1,note_on,72,0,480
1,note_on,74,59,0
1,note_on,74,0,240
1,note_on,77,66,0
1,note_on,77,0,720
1,note_on,75,64,0
1,note_on,75,0,480
1,note_on,75,71,0
1,note_on,75,0,240
1,note_on,76,77,0
1,note_on,76,0,720
1,note_on,82,72,0
1,note_on,82,0,480
1,note_on,81,67,0
1,note_on,81,0,240
1,note_on,69,66,0
1,note_on,69,0,720
1,note_on,82,70,0
1,note_on,82,0,480
1,note_on,81,62,0
1,note_on,81,0,240
1,note_on,69,57,0
1,note_on,69,0,720
1,note_on,82,59,0
1,note_on,82,0,480
1,note_on,81,54,0
1,note_on,81,0,240
1,note_on,69,50,0
1,note_on,62,35,240
1,note_on,65,35,0
1,note_on,65,0,240
1,note_on,62,0,0
1,note_on,65,31,0
1,note_on,62,31,0
1,note_on,62,0,240
1,note_on,65,0,0
1,note_on,62,31,0
1,note_on,65,31,0
1,note_on,65,0,240
1,note_on,62,0,0
1,note_on,65,31,0
1,note_on,62,31,0
1,note_on,62,0,240
1,note_on,65,0,0
1,note_on,69,0,0
1,note_on,53,52,0
1,note_on,53,0,240
1,note_on,55,55,0
1,note_on,55,0,720
1,note_on,57,56,0
1,note_on,57,0,480
1,note_on,60,52,0
1,note_on,60,0,240
1,note_on,55,59,0
1,note_on,55,0,720
1,note_on,53,55,0
1,note_on,53,0,480
1,note_on,55,57,0
1,note_on,55,0,240
1,note_on,57,60,0
1,note_on,57,0,720
1,note_on,59,66,0
1,note_on,59,0,480
1,note_on,62,63,0
1,note_on,62,0,240
1,note_on,56,75,0
1,note_on,56,0,720
1,note_on,55,75,0
1,note_on,55,0,480
1,note_on,60,79,0
1,note_on,60,0,240
1,note_on,61,84,0
1,note_on,72,79,720
1,note_on,72,0,480
1,note_on,70,73,0
1,note_on,70,0,240
1,note_on,61,0,0
1,note_on,62,81,0
1,note_on,69,76,720
1,note_on,69,0,480
1,note_on,67,69,0
1,note_on,67,0,240
1,note_on,62,0,0
1,note_on,56,64,0
1,note_on,56,0,480
1,note_on,57,58,0
1,note_on,57,0,240
1,note_on,62,63,0
1,note_on,62,0,480
1,note_on,57,57,0
1,note_on,57,0,240
1,note_on,60,53,0
1,note_on,60,0,720
1,note_on,58,46,0
1,note_on,58,0,480
1,note_on,68,45,240
1,note_on,68,0,480
1,note_on,69,39,0
1,note_on,69,0,240
1,note_on,74,45,0
1,note_on,74,0,480
1,note_on,69,39,0
1,note_on,69,0,240
1,note_on,72,45,0
1,note_on,72,0,720
1,note_on,70,45,0
1,note_on,70,0,720
1,note_on,61,50,0
1,note_on,61,0,720
1,note_on,62,47,0
1,note_on,62,0,720
1,note_on,57,44,0
1,note_on,57,0,720
1,note_on,58,36,0
1,note_on,58,0,720
1,note_on,80,51,0
1,note_on,80,0,480
1,note_on,81,44,0
1,note_on,81,0,240
1,note_on,86,51,0
1,note_on,86,0,480
1,note_on,81,44,0
1,note_on,81,0,240
1,note_on,84,51,0
1,note_on,84,0,720
1,note_on,82,51,0
1,note_on,82,0,720
1,note_on,73,57,0
1,note_on,73,0,720
1,note_on,74,54,0
1,note_on,74,0,720
1,note_on,69,44,0
1,note_on,69,0,720
1,note_on,70,36,0
1,note_on,70,0,720
1,note_on,69,44,0
1,note_on,69,0,720
1,note_on,70,36,0
1,note_on,70,0,720
1,note_on,69,44,0
1,note_on,69,0,720
1,note_on,70,36,0
1,note_on,69,44,709
1,note_on,70,0,11
1,note_on,69,0,949
1,note_on,68,39,11
1,note_on,68,0,120
1,note_on,69,33,0
1,note_on,69,0,120
1,note_on,70,37,0
1,note_on,70,0,120
1,note_on,69,31,0
1,note_on,69,0,120
1,note_on,74,42,0
1,note_on,74,0,480
1,note_on,72,38,0
1,note_on,72,0,240
1,note_on,70,34,0
1,note_on,62,23,0
1,note_on,65,28,0
1,note_on,65,0,720
1,note_on,62,0,0
1,note_on,70,0,0
2,note_on,58,30,480
2,note_on,62,30,0
2,note_on,65,36,0
2,note_on,65,0,240
2,note_on,62,0,0
2,note_on,58,0,0
2,note_on,58,31,0
2,note_on,65,35,0
2,note_on,62,31,0
2,note_on,62,0,240
2,note_on,65,0,0
2,note_on,58,0,0
2,note_on,58,28,0
2,note_on,65,32,0
2,note_on,62,28,0
2,note_on,62,0,240
2,note_on,65,0,0
2,note_on,58,0,0
2,note_on,62,31,0
2,note_on,65,35,0
2,note_on,58,31,0
2,note_on,58,0,133
2,note_on,65,0,0
2,note_on,62,0,0
2,note_on,62,24,0
2,note_on,65,32,0
2,note_on,58,24,0
2,note_on,58,0,240
2,note_on,65,0,0
2,note_on,62,0,0
2,note_on,65,36,202
2,note_on,63,36,0
2,note_on,57,30,0
2,note_on,57,0,240
2,note_on,63,0,0
2,note_on,65,0,0
2,note_on,63,36,0
2,note_on,57,30,0
2,note_on,65,36,0
2,note_on,65,0,240
2,note_on,57,0,0
2,note_on,63,0,0
2,note_on,57,30,0
2,note_on,65,36,0
2,note_on,63,36,0
2,note_on,63,0,120
2,note_on,65,0,0
2,note_on,57,0,0
2,note_on,63,36,0
2,note_on,57,30,0
2,note_on,65,36,0
2,note_on,65,0,230
2,note_on,57,0,0
2,note_on,63,0,0
2,note_on,62,30,137
2,note_on,56,30,0
2,note_on,65,36,0
2,note_on,65,0,240
2,note_on,56,0,0
2,note_on,62,0,0
2,note_on,56,30,0
2,note_on,65,36,0
2,note_on,62,30,0
2,note_on,62,0,240
2,note_on,65,0,0
2,note_on,56,0,0
2,note_on,56,33,0
2,note_on,65,40,0
2,note_on,62,33,0
2,note_on,62,0,126
2,note_on,65,0,0
2,note_on,56,0,0
2,note_on,56,33,0
2,note_on,65,40,0
2,note_on,62,33,0
2,note_on,62,0,240
2,note_on,65,0,0
2,note_on,56,0,0
2,note_on,55,38,147
2,note_on,63,47,0
2,note_on,60,38,0
2,note_on,60,0,240
2,note_on,63,0,0
2,note_on,55,0,0
2,note_on,60,38,0
2,note_on,63,47,0
2,note_on,55,38,0
2,note_on,55,0,240
2,note_on,63,0,0
2,note_on,60,0,0
2,note_on,55,38,0
2,note_on,63,48,0
2,note_on,60,38,0
2,note_on,60,0,147
2,note_on,63,0,0
2,note_on,55,0,0
2,note_on,60,38,0
2,note_on,55,38,0
2,note_on,63,48,0
2,note_on,63,0,240
2,note_on,55,0,0
2,note_on,60,0,0
2,note_on,57,45,174
2,note_on,55,44,0
2,note_on,64,49,0
2,note_on,61,49,0
2,note_on,61,0,240
2,note_on,57,0,0
2,note_on,55,0,0
2,note_on,64,0,0
2,note_on,55,38,0
2,note_on,61,45,0
2,note_on,57,38,0
2,note_on,64,45,0
2,note_on,64,0,240
2,note_on,55,0,0
2,note_on,61,0,0
2,note_on,57,0,0
2,note_on,55,41,0
2,note_on,61,50,0
2,note_on,57,41,0
2,note_on,64,50,0
2,note_on,64,0,157
2,note_on,55,0,0
2,note_on,61,0,0
2,note_on,57,0,0
2,note_on,57,41,0
2,note_on,55,41,0
2,note_on,64,50,0
2,note_on,61,50,0
2,note_on,61,0,240
2,note_on,57,0,0
2,note_on,55,0,0
2,note_on,64,0,0
2,note_on,53,37,53
2,note_on,57,37,0
2,note_on,62,44,0
2,note_on,62,0,240
2,note_on,57,0,0
2,note_on,53,0,0
2,note_on,62,43,0
2,note_on,57,37,0
2,note_on,53,37,0
2,note_on,53,0,240
2,note_on,57,0,0
2,note_on,62,0,0
2,note_on,53,36,0
2,note_on,57,36,0
2,note_on,62,43,0
2,note_on,62,0,107
2,note_on,57,0,0
2,note_on,53,0,0
2,note_on,62,42,0
2,note_on,53,36,0
2,note_on,57,36,0
2,note_on,57,0,240
2,note_on,53,0,0
2,note_on,62,0,0
2,note_on,55,31,91
2,note_on,52,31,0
2,note_on,57,37,0
2,note_on,61,37,0
2,note_on,61,0,240
2,note_on,55,0,0
2,note_on,52,0,0
2,note_on,57,0,0
2,note_on,52,31,0
2,note_on,61,37,0
2,note_on,55,26,0
2,note_on,57,37,0
2,note_on,57,0,240
2,note_on,52,0,0
2,note_on,61,0,0
2,note_on,55,0,0
2,note_on,52,30,0
2,note_on,61,37,0
2,note_on,55,25,0
2,note_on,57,37,0
2,note_on,57,0,133
2,note_on,52,0,0
2,note_on,61,0,0
2,note_on,55,0,0
2,note_on,52,30,0
2,note_on,61,36,0
2,note_on,55,25,0
2,note_on,57,36,0
2,note_on,57,0,240
2,note_on,52,0,0
2,note_on,61,0,0
2,note_on,55,0,0
2,note_on,57,33,67
2,note_on,50,23,0
2,note_on,50,0,240
2,note_on,57,0,0
2,note_on,57,29,0
2,note_on,50,21,0
2,note_on,50,0,240
2,note_on,57,0,0
2,note_on,50,21,0
2,note_on,57,29,0
2,note_on,57,0,240
2,note_on,50,0,0
2,note_on,50,21,0
2,note_on,57,29,0
2,note_on,57,0,240
2,note_on,50,0,0
2,note_on,48,31,240
2,note_on,63,35,0
2,note_on,53,31,0
2,note_on,65,35,0
2,note_on,65,0,240
2,note_on,48,0,0
2,note_on,63,0,0
2,note_on,53,0,0
2,note_on,53,29,0
2,note_on,48,29,0
2,note_on,65,33,0
2,note_on,63,33,0
2,note_on,63,0,240
2,note_on,53,0,0
2,note_on,48,0,0
2,note_on,65,0,0
2,note_on,53,35,0
2,note_on,63,35,0
2,note_on,65,35,0
2,note_on,48,35,0
2,note_on,48,0,133
2,note_on,53,0,0
2,note_on,63,0,0
2,note_on,65,0,0
2,note_on,53,27,0
2,note_on,48,27,0
2,note_on,65,32,0
2,note_on,63,27,0
2,note_on,63,0,240
2,note_on,53,0,0
2,note_on,48,0,0
2,note_on,65,0,0
2,note_on,46,30,202
2,note_on,62,36,0
2,note_on,65,36,0
2,note_on,65,0,240
2,note_on,62,0,0
2,note_on,46,0,0
2,note_on,62,36,0
2,note_on,65,36,0
2,note_on,46,30,0
2,note_on,46,0,240
2,note_on,65,0,0
2,note_on,62,0,0
2,note_on,46,30,0
2,note_on,65,36,0
2,note_on,62,36,0
2,note_on,62,0,120
2,note_on,65,0,0
2,note_on,46,0,0
2,note_on,62,36,0
2,note_on,46,30,0
2,note_on,65,36,0
2,note_on,65,0,240
2,note_on,46,0,0
2,note_on,62,0,0
2,note_on,55,33,137
2,note_on,50,33,0
2,note_on,67,39,0
2,note_on,65,33,0
2,note_on,65,0,240
2,note_on,55,0,0
2,note_on,50,0,0
2,note_on,67,0,0
2,note_on,55,33,0
2,note_on,65,33,0
2,note_on,67,39,0
2,note_on,50,33,0
2,note_on,50,0,240
2,note_on,55,0,0
2,note_on,65,0,0
2,note_on,67,0,0
2,note_on,55,36,0
2,note_on,65,36,0
2,note_on,67,42,0
2,note_on,50,36,0
2,note_on,50,0,164
2,note_on,55,0,0
2,note_on,65,0,0
2,note_on,67,0,0
2,note_on,55,36,0
2,note_on,65,36,0
2,note_on,67,44,0
2,note_on,50,36,0
2,note_on,50,0,240
2,note_on,55,0,0
2,note_on,65,0,0
2,note_on,67,0,0
2,note_on,60,41,147
2,note_on,48,41,0
2,note_on,63,51,0
2,note_on,63,0,240
2,note_on,48,0,0
2,note_on,60,0,0
2,note_on,48,41,0
2,note_on,63,52,0
2,note_on,60,41,0
2,note_on,60,0,240
2,note_on,63,0,0
2,note_on,48,0,0
2,note_on,60,41,0
2,note_on,48,41,0
2,note_on,63,52,0
2,note_on,63,0,173
2,note_on,48,0,0
2,note_on,60,0,0
2,note_on,48,42,0
2,note_on,63,53,0
2,note_on,60,42,0
2,note_on,60,0,230
2,note_on,63,0,0
2,note_on,48,0,0
2,note_on,55,46,160
2,note_on,64,57,0
2,note_on,58,57,0
2,note_on,58,0,240
2,note_on,64,0,0
2,note_on,55,0,0
2,note_on,58,47,0
2,note_on,64,47,0
2,note_on,55,39,0
2,note_on,55,0,240
2,note_on,64,0,0
2,note_on,58,0,0
2,note_on,55,43,0
2,note_on,64,52,0
2,note_on,58,52,0
2,note_on,58,0,149
2,note_on,64,0,0
2,note_on,55,0,0
2,note_on,58,52,0
2,note_on,55,43,0
2,note_on,64,52,0
2,note_on,64,0,240
2,note_on,55,0,0
2,note_on,58,0,0
2,note_on,65,46,53
2,note_on,53,38,0
2,note_on,58,38,0
2,note_on,58,0,240
2,note_on,53,0,0
2,note_on,65,0,0
2,note_on,65,46,0
2,note_on,53,38,0
2,note_on,58,38,0
2,note_on,58,0,240
2,note_on,53,0,0
2,note_on,65,0,0
2,note_on,65,46,0
2,note_on,58,38,0
2,note_on,53,38,0
2,note_on,53,0,93
2,note_on,58,0,0
2,note_on,65,0,0
2,note_on,53,38,0
2,note_on,58,38,0
2,note_on,65,46,0
2,note_on,65,0,240
2,note_on,58,0,0
2,note_on,53,0,0
2,note_on,41,38,91
2,note_on,51,38,0
2,note_on,51,0,240
2,note_on,41,0,0
2,note_on,51,38,0
2,note_on,41,31,0
2,note_on,41,0,240
2,note_on,51,0,0
2,note_on,42,30,126
2,note_on,50,37,0
2,note_on,50,0,240
2,note_on,42,0,0
2,note_on,42,30,0
2,note_on,50,36,0
2,note_on,50,0,224
2,note_on,42,0,0
2,note_on,43,28,67
2,note_on,50,33,0
2,note_on,55,36,0
2,note_on,55,0,240
2,note_on,50,0,0
2,note_on,43,0,0
2,note_on,43,25,0
2,note_on,55,32,0
2,note_on,50,29,0
2,note_on,50,0,240
2,note_on,55,0,0
2,note_on,43,0,0
2,note_on,55,32,0
2,note_on,50,29,0
2,note_on,43,25,0
2,note_on,43,0,120
2,note_on,50,0,0
2,note_on,55,0,0
2,note_on,43,25,0
2,note_on,55,32,0
2,note_on,50,29,0
2,note_on,50,0,240
2,note_on,55,0,0
2,note_on,43,0,0
2,note_on,53,28,164
2,note_on,63,32,0
2,note_on,65,32,0
2,note_on,48,28,0
2,note_on,48,0,240
2,note_on,53,0,0
2,note_on,63,0,0
2,note_on,65,0,0
2,note_on,48,27,0
2,note_on,63,30,0
2,note_on,65,30,0
2,note_on,53,27,0
2,note_on,53,0,240
2,note_on,48,0,0
2,note_on,63,0,0
2,note_on,65,0,0
2,note_on,53,28,0
2,note_on,48,28,0
2,note_on,65,32,0
2,note_on,63,32,0
2,note_on,63,0,133
2,note_on,53,0,0
2,note_on,48,0,0
2,note_on,65,0,0
2,note_on,48,27,0
2,note_on,63,30,0
2,note_on,65,30,0
2,note_on,53,27,0
2,note_on,53,0,240
2,note_on,48,0,0
2,note_on,63,0,0
2,note_on,65,0,0
2,note_on,62,36,202
2,note_on,58,36,0
2,note_on,46,30,0
2,note_on,46,0,240
2,note_on,58,0,0
2,note_on,62,0,0
2,note_on,58,36,0
2,note_on,46,30,0
2,note_on,62,36,0
2,note_on,62,0,240
2,note_on,46,0,0
2,note_on,58,0,0
2,note_on,46,30,0
2,note_on,62,36,0
2,note_on,58,36,0
2,note_on,58,0,133
2,note_on,62,0,0
2,note_on,46,0,0
2,note_on,58,36,0
2,note_on,46,30,0
2,note_on,62,36,0
2,note_on,62,0,240
2,note_on,46,0,0
2,note_on,58,0,0
2,note_on,55,33,137
2,note_on,50,33,0
2,note_on,67,39,0
2,note_on,65,33,0
2,note_on,65,0,240
2,note_on,55,0,0
2,note_on,50,0,0
2,note_on,67,0,0
2,note_on,55,33,0
2,note_on,65,33,0
2,note_on,67,39,0
2,note_on,50,33,0
2,note_on,50,0,240
2,note_on,55,0,0
2,note_on,65,0,0
2,note_on,67,0,0
2,note_on,55,36,0
2,note_on,65,36,0
2,note_on,67,44,0
2,note_on,50,36,0
2,note_on,50,0,139
2,note_on,55,0,0
2,note_on,65,0,0
2,note_on,67,0,0
2,note_on,55,37,0
2,note_on,65,37,0
2,note_on,67,44,0
2,note_on,50,37,0
2,note_on,50,0,240
2,note_on,55,0,0
2,note_on,65,0,0
2,note_on,67,0,0
2,note_on,48,41,147
2,note_on,63,51,0
2,note_on,60,41,0
2,note_on,60,0,240
2,note_on,63,0,0
2,note_on,48,0,0
2,note_on,48,41,0
2,note_on,63,52,0
2,note_on,60,41,0
2,note_on,60,0,240
2,note_on,63,0,0
2,note_on,48,0,0
2,note_on,60,41,0
2,note_on,48,41,0
2,note_on,63,52,0
2,note_on,63,0,94
2,note_on,48,0,0
2,note_on,60,0,0
2,note_on,60,42,0
2,note_on,63,53,0
2,note_on,48,42,0
2,note_on,48,0,230
2,note_on,63,0,0
2,note_on,60,0,0
2,note_on,58,55,126
2,note_on,64,55,0
2,note_on,55,44,0
2,note_on,55,0,240
2,note_on,64,0,0
2,note_on,58,0,0
2,note_on,58,49,0
2,note_on,55,41,0
2,note_on,64,49,0
2,note_on,64,0,240
2,note_on,55,0,0
2,note_on,58,0,0
2,note_on,55,45,0
2,note_on,64,55,0
2,note_on,58,55,0
2,note_on,58,0,92
2,note_on,64,0,0
2,note_on,55,0,0
2,note_on,58,55,0
2,note_on,55,45,0
2,note_on,64,55,0
2,note_on,64,0,240
2,note_on,55,0,0
2,note_on,58,0,0
2,note_on,65,48,53
2,note_on,53,40,0
2,note_on,58,40,0
2,note_on,58,0,240
2,note_on,53,0,0
2,note_on,65,0,0
2,note_on,53,40,0
2,note_on,58,40,0
2,note_on,65,48,0
2,note_on,65,0,240
2,note_on,58,0,0
2,note_on,53,0,0
2,note_on,65,48,0
2,note_on,53,40,0
2,note_on,58,40,0
2,note_on,58,0,107
2,note_on,53,0,0
2,note_on,65,0,0
2,note_on,53,40,0
2,note_on,58,40,0
2,note_on,65,48,0
2,note_on,65,0,240
2,note_on,58,0,0
2,note_on,53,0,0
2,note_on,48,36,91
2,note_on,51,36,0
2,note_on,51,0,240
2,note_on,48,0,0
2,note_on,48,30,0
2,note_on,51,36,0
2,note_on,51,0,240
2,note_on,48,0,0
2,note_on,51,36,76
2,note_on,41,30,0
2,note_on,57,36,0
2,note_on,53,36,0
2,note_on,57,0,238
2,note_on,51,0,2
2,note_on,41,0,0
2,note_on,53,0,0
2,note_on,51,36,0
2,note_on,41,30,0
2,note_on,53,36,0
2,note_on,53,0,228
2,note_on,41,0,0
2,note_on,51,0,0
2,note_on,57,36,67
2,note_on,54,36,0
2,note_on,46,28,0
2,note_on,51,36,0
2,note_on,51,0,240
2,note_on,57,0,0
2,note_on,54,0,0
2,note_on,46,0,0
2,note_on,54,32,0
2,note_on,51,32,0
2,note_on,57,32,0
2,note_on,46,24,0
2,note_on,46,0,240
2,note_on,54,0,0
2,note_on,51,0,0
2,note_on,57,0,0
2,note_on,53,29,0
2,note_on,46,24,0
2,note_on,51,32,0
2,note_on,51,0,136
2,note_on,49,32,0
2,note_on,49,0,224
2,note_on,46,0,0
2,note_on,53,0,0
2,note_on,50,32,0
2,note_on,50,0,240
2,note_on,55,31,240
2,note_on,65,36,0
2,note_on,58,31,0
2,note_on,58,0,240
2,note_on,65,0,0
2,note_on,55,0,0
2,note_on,65,36,0
2,note_on,55,31,0
2,note_on,58,31,0
2,note_on,58,0,230
2,note_on,55,0,0
2,note_on,65,0,0
2,note_on,45,34,69
2,note_on,55,34,0
2,note_on,55,0,240
2,note_on,45,0,0
2,note_on,55,34,0
2,note_on,45,34,0
2,note_on,45,0,223
2,note_on,55,0,0
2,note_on,62,36,202
2,note_on,53,30,0
2,note_on,57,36,0
2,note_on,57,0,120
2,note_on,53,0,0
2,note_on,62,0,0
2,note_on,50,30,120
2,note_on,50,0,120
2,note_on,62,44,120
2,note_on,57,44,0
2,note_on,65,44,0
2,note_on,65,0,69
2,note_on,57,0,0
2,note_on,62,0,0
2,note_on,50,40,120
2,note_on,50,0,120
2,note_on,65,42,120
2,note_on,62,42,0
2,note_on,69,50,0
2,note_on,69,0,91
2,note_on,62,0,0
2,note_on,65,0,0
2,note_on,58,31,240
2,note_on,55,31,0
2,note_on,65,36,0
2,note_on,65,0,240
2,note_on,55,0,0
2,note_on,58,0,0
2,note_on,58,31,0
2,note_on,65,36,0
2,note_on,55,31,0
2,note_on,55,0,230
2,note_on,65,0,0
2,note_on,58,0,0
2,note_on,55,34,80
2,note_on,45,34,0
2,note_on,45,0,240
2,note_on,55,0,0
2,note_on,45,34,0
2,note_on,55,34,0
2,note_on,55,0,227
2,note_on,45,0,0
2,note_on,53,30,202
2,note_on,57,36,0
2,note_on,62,36,0
2,note_on,62,0,120
2,note_on,57,0,0
2,note_on,53,0,0
2,note_on,50,30,120
2,note_on,50,0,120
2,note_on,57,44,120
2,note_on,65,44,0
2,note_on,62,44,0
2,note_on,62,0,40
2,note_on,65,0,0
2,note_on,57,0,0
2,note_on,50,38,120
2,note_on,50,0,120
2,note_on,62,43,120
2,note_on,69,51,0
2,note_on,65,43,0
2,note_on,65,0,91
2,note_on,69,0,0
2,note_on,62,0,0
2,note_on,55,31,240
2,note_on,65,36,0
2,note_on,58,31,0
2,note_on,58,0,240
2,note_on,65,0,0
2,note_on,55,0,0
2,note_on,58,31,0
2,note_on,55,31,0
2,note_on,65,36,0
2,note_on,65,0,230
2,note_on,55,0,0
2,note_on,58,0,0
2,note_on,55,34,57
2,note_on,45,34,0
2,note_on,45,0,240
2,note_on,55,0,0
2,note_on,55,34,0
2,note_on,45,34,0
2,note_on,45,0,230
2,note_on,55,0,0
2,note_on,62,36,202
2,note_on,53,30,0
2,note_on,57,36,0
2,note_on,57,0,120
2,note_on,53,0,0
2,note_on,62,0,0
2,note_on,50,30,120
2,note_on,50,0,120
2,note_on,62,44,120
2,note_on,65,44,0
2,note_on,57,44,0
2,note_on,57,0,46
2,note_on,65,0,0
2,note_on,62,0,0
2,note_on,50,40,120
2,note_on,50,0,120
2,note_on,62,42,120
2,note_on,69,50,0
2,note_on,65,42,0
2,note_on,65,0,91
2,note_on,69,0,0
2,note_on,62,0,0
2,note_on,55,31,240
2,note_on,65,36,0
2,note_on,58,31,0
2,note_on,58,0,240
2,note_on,65,0,0
2,note_on,55,0,0
2,note_on,65,36,0
2,note_on,55,31,0
2,note_on,58,31,0
2,note_on,58,0,230
2,note_on,55,0,0
2,note_on,65,0,0
2,note_on,45,34,133
2,note_on,55,34,0
2,note_on,55,0,240
2,note_on,45,0,0
2,note_on,55,34,0
2,note_on,45,34,0
2,note_on,45,0,231
2,note_on,55,0,0
2,note_on,62,36,202
2,note_on,53,30,0
2,note_on,57,36,0
2,note_on,57,0,120
2,note_on,53,0,0
2,note_on,62,0,0
2,note_on,50,30,120
2,note_on,50,0,120
2,note_on,62,44,120
2,note_on,57,44,0
2,note_on,65,44,0
2,note_on,65,0,35
2,note_on,57,0,0
2,note_on,62,0,0
2,note_on,50,38,120
2,note_on,50,0,120
2,note_on,65,43,120
2,note_on,62,43,0
2,note_on,69,51,0
2,note_on,69,0,91
2,note_on,62,0,0
2,note_on,65,0,0
2,note_on,62,34,190
2,note_on,60,34,0
2,note_on,70,46,0
2,note_on,66,46,0
2,note_on,66,0,120
2,note_on,62,0,0
2,note_on,60,0,0
2,note_on,70,0,0
2,note_on,60,28,120
2,note_on,66,39,0
2,note_on,69,39,0
2,note_on,62,28,0
2,note_on,62,0,120
2,note_on,60,0,0
2,note_on,66,0,0
2,note_on,69,0,0
2,note_on,62,40,133
2,note_on,58,40,0
2,note_on,69,44,0
2,note_on,69,0,120
2,note_on,58,0,0
2,note_on,62,0,0
2,note_on,58,34,120
2,note_on,67,39,0
2,note_on,62,34,0
2,note_on,62,0,112
2,note_on,67,0,0
2,note_on,58,0,0
2,note_on,55,40,202
2,note_on,58,44,0
2,note_on,58,0,120
2,note_on,55,0,0
2,note_on,58,41,120
2,note_on,55,36,0
2,note_on,55,0,120
2,note_on,58,0,0
2,note_on,41,36,143
2,note_on,48,41,0
2,note_on,48,0,120
2,note_on,41,0,0
2,note_on,41,33,120
2,note_on,48,37,0
2,note_on,48,0,91
2,note_on,41,0,0
2,note_on,62,46,174
2,note_on,56,41,0
2,note_on,67,46,0
2,note_on,67,0,120
2,note_on,56,0,0
2,note_on,62,0,0
2,note_on,62,39,120
2,note_on,65,39,0
2,note_on,56,34,0
2,note_on,56,0,120
2,note_on,65,0,0
2,note_on,62,0,0
2,note_on,62,40,133
2,note_on,55,40,0
2,note_on,65,44,0
2,note_on,65,0,120
2,note_on,55,0,0
2,note_on,62,0,0
2,note_on,62,34,120
2,note_on,64,39,0
2,note_on,55,34,0
2,note_on,55,0,120
2,note_on,64,0,0
2,note_on,62,0,0
2,note_on,52,40,160
2,note_on,55,44,0
2,note_on,55,0,120
2,note_on,52,0,0
2,note_on,55,41,120
2,note_on,52,36,0
2,note_on,52,0,120
2,note_on,55,0,0
2,note_on,46,36,143
2,note_on,50,41,0
2,note_on,50,0,120
2,note_on,46,0,0
2,note_on,50,37,120
2,note_on,46,33,0
2,note_on,46,0,120
2,note_on,50,0,0
2,note_on,64,66,0
2,note_on,64,0,343
2,note_on,52,40,0
2,note_on,52,0,240
2,note_on,57,40,46
2,note_on,67,44,0
2,note_on,61,40,0
2,note_on,61,0,240
2,note_on,67,0,0
2,note_on,57,0,0
2,note_on,61,34,0
2,note_on,57,34,0
2,note_on,67,39,0
2,note_on,67,0,232
2,note_on,57,0,0
2,note_on,61,0,0
2,note_on,64,66,0
2,note_on,64,0,480
2,note_on,52,40,0
2,note_on,52,0,240
2,note_on,61,40,133
2,note_on,57,40,0
2,note_on,67,44,0
2,note_on,67,0,240
2,note_on,57,0,0
2,note_on,61,0,0
2,note_on,61,34,0
2,note_on,67,39,0
2,note_on,57,34,0
2,note_on,57,0,237
2,note_on,67,0,0
2,note_on,61,0,0
2,note_on,62,39,202
2,note_on,55,36,0
2,note_on,58,39,0
2,note_on,58,0,480
2,note_on,55,0,0
2,note_on,62,0,0
2,note_on,52,32,131
2,note_on,62,36,0
2,note_on,58,32,0
2,note_on,58,0,221
2,note_on,62,0,0
2,note_on,52,0,0
2,note_on,40,46,0
2,note_on,40,0,331
2,note_on,39,40,0
2,note_on,39,0,120
2,note_on,40,42,0
2,note_on,40,0,120
2,note_on,43,44,0
2,note_on,43,0,120
2,note_on,46,46,0
2,note_on,46,0,383
2,note_on,45,43,0
2,note_on,45,0,224
2,note_on,55,31,80
2,note_on,65,36,0
2,note_on,58,31,0
2,note_on,58,0,240
2,note_on,65,0,0
2,note_on,55,0,0
2,note_on,65,36,0
2,note_on,55,31,0
2,note_on,58,31,0
2,note_on,58,0,230
2,note_on,55,0,0
2,note_on,65,0,0
2,note_on,45,34,126
2,note_on,55,34,0
2,note_on,55,0,240
2,note_on,45,0,0
2,note_on,55,34,0
2,note_on,45,34,0
2,note_on,45,0,229
2,note_on,55,0,0
2,note_on,62,36,202
2,note_on,53,30,0
2,note_on,57,36,0
2,note_on,57,0,120
2,note_on,53,0,0
2,note_on,62,0,0
2,note_on,50,30,120
2,note_on,50,0,120
2,note_on,62,44,120
2,note_on,57,44,0
2,note_on,65,44,0
2,note_on,65,0,35
2,note_on,57,0,0
2,note_on,62,0,0
2,note_on,50,40,120
2,note_on,50,0,120
2,note_on,65,50,120
2,note_on,62,50,0
2,note_on,69,50,0
2,note_on,69,0,91
2,note_on,62,0,0
2,note_on,65,0,0
2,note_on,58,31,240
2,note_on,55,31,0
2,note_on,65,36,0
2,note_on,65,0,240
2,note_on,55,0,0
2,note_on,58,0,0
2,note_on,65,36,0
2,note_on,55,31,0
2,note_on,58,31,0
2,note_on,58,0,230
2,note_on,55,0,0
2,note_on,65,0,0
2,note_on,45,34,137
2,note_on,55,34,0
2,note_on,55,0,240
2,note_on,45,0,0
2,note_on,45,34,0
2,note_on,55,34,0
2,note_on,55,0,231
2,note_on,45,0,0
2,note_on,62,36,202
2,note_on,57,36,0
2,note_on,53,30,0
2,note_on,53,0,120
2,note_on,57,0,0
2,note_on,62,0,0
2,note_on,50,30,120
2,note_on,50,0,120
2,note_on,62,44,120
2,note_on,65,44,0
2,note_on,57,44,0
2,note_on,57,0,23
2,note_on,65,0,0
2,note_on,62,0,0
2,note_on,50,38,120
2,note_on,50,0,120
2,note_on,65,43,120
2,note_on,69,51,0
2,note_on,62,43,0
2,note_on,62,0,91
2,note_on,69,0,0
2,note_on,65,0,0
2,note_on,58,31,240
2,note_on,65,36,0
2,note_on,55,31,0
2,note_on,55,0,240
2,note_on,65,0,0
2,note_on,58,0,0
2,note_on,58,31,0
2,note_on,65,36,0
2,note_on,55,31,0
2,note_on,55,0,230
2,note_on,65,0,0
2,note_on,58,0,0
2,note_on,55,34,133
2,note_on,45,34,0
2,note_on,45,0,240
2,note_on,55,0,0
2,note_on,55,34,0
2,note_on,45,34,0
2,note_on,45,0,233
2,note_on,55,0,0
2,note_on,53,30,202
2,note_on,57,36,0
2,note_on,62,36,0
2,note_on,62,0,120
2,note_on,57,0,0
2,note_on,53,0,0
2,note_on,50,30,120
2,note_on,50,0,120
2,note_on,57,44,120
2,note_on,65,44,0
2,note_on,62,44,0
2,note_on,62,0,69
2,note_on,65,0,0
2,note_on,57,0,0
2,note_on,50,40,120
2,note_on,50,0,120
2,note_on,62,42,120
2,note_on,69,50,0
2,note_on,65,42,0
2,note_on,65,0,91
2,note_on,69,0,0
2,note_on,62,0,0
2,note_on,55,31,240
2,note_on,65,36,0
2,note_on,58,31,0
2,note_on,58,0,240
2,note_on,65,0,0
2,note_on,55,0,0
2,note_on,65,36,0
2,note_on,55,31,0
2,note_on,58,31,0
2,note_on,58,0,230
2,note_on,55,0,0
2,note_on,65,0,0
2,note_on,45,34,114
2,note_on,55,34,0
2,note_on,55,0,240
2,note_on,45,0,0
2,note_on,55,34,0
2,note_on,45,34,0
2,note_on,45,0,231
2,note_on,55,0,0
2,note_on,62,36,202
2,note_on,53,30,0
2,note_on,57,36,0
2,note_on,57,0,120
2,note_on,53,0,0
2,note_on,62,0,0
2,note_on,50,30,120
2,note_on,50,0,120
2,note_on,57,44,120
2,note_on,65,44,0
2,note_on,62,44,0
2,note_on,62,0,40
2,note_on,65,0,0
2,note_on,57,0,0
2,note_on,50,38,120
2,note_on,50,0,120
2,note_on,62,43,120
2,note_on,69,51,0
2,note_on,65,43,0
2,note_on,65,0,91
2,note_on,69,0,0
2,note_on,62,0,0
2,note_on,60,34,240
2,note_on,66,46,0
2,note_on,62,34,0
2,note_on,70,46,0
2,note_on,70,0,120
2,note_on,60,0,0
2,note_on,66,0,0
2,note_on,62,0,0
2,note_on,69,39,120
2,note_on,60,28,0
2,note_on,62,28,0
2,note_on,66,39,0
2,note_on,66,0,120
2,note_on,69,0,0
2,note_on,60,0,0
2,note_on,62,0,0
2,note_on,58,40,133
2,note_on,69,44,0
2,note_on,62,40,0
2,note_on,62,0,120
2,note_on,69,0,0
2,note_on,58,0,0
2,note_on,58,34,120
2,note_on,62,34,0
2,note_on,67,39,0
2,note_on,67,0,120
2,note_on,62,0,0
2,note_on,58,0,0
2,note_on,55,40,149
2,note_on,58,44,0
2,note_on,58,0,120
2,note_on,55,0,0
2,note_on,55,36,120
2,note_on,58,41,0
2,note_on,58,0,120
2,note_on,55,0,0
2,note_on,48,41,97
2,note_on,41,36,0
2,note_on,41,0,120
2,note_on,48,0,0
2,note_on,48,37,120
2,note_on,41,33,0
2,note_on,41,0,91
2,note_on,48,0,0
2,note_on,58,32,198
2,note_on,62,43,0
2,note_on,56,32,0
2,note_on,67,43,0
2,note_on,67,0,120
2,note_on,58,0,0
2,note_on,62,0,0
2,note_on,56,0,0
2,note_on,65,36,120
2,note_on,58,26,0
2,note_on,56,26,0
2,note_on,62,36,0
2,note_on,62,0,120
2,note_on,65,0,0
2,note_on,58,0,0
2,note_on,56,0,0
2,note_on,55,30,133
2,note_on,65,40,0
2,note_on,58,36,0
2,note_on,58,0,120
2,note_on,65,0,0
2,note_on,55,0,0
2,note_on,55,25,120
2,note_on,58,30,0
2,note_on,63,35,0
2,note_on,63,0,120
2,note_on,58,0,0
2,note_on,55,0,0
2,note_on,53,36,131
2,note_on,56,39,0
2,note_on,56,0,120
2,note_on,53,0,0
2,note_on,53,32,120
2,note_on,56,36,0
2,note_on,56,0,120
2,note_on,53,0,0
2,note_on,55,31,143
2,note_on,48,31,0
2,note_on,60,35,0
2,note_on,60,0,120
2,note_on,48,0,0
2,note_on,55,0,0
2,note_on,48,28,120
2,note_on,60,31,0
2,note_on,55,28,0
2,note_on,55,0,101
2,note_on,60,0,0
2,note_on,48,0,0
2,note_on,44,51,120
2,note_on,44,0,316
2,note_on,45,43,0
2,note_on,45,0,120
2,note_on,44,46,0
2,note_on,44,0,120
2,note_on,45,48,0
2,note_on,45,0,120
2,note_on,50,51,0
2,note_on,50,0,177
2,note_on,47,42,0
2,note_on,47,0,240
2,note_on,48,48,0
2,note_on,48,0,219
2,note_on,63,39,202
2,note_on,54,36,0
2,note_on,60,36,0
2,note_on,60,0,180
2,note_on,54,0,0
2,note_on,63,0,0
2,note_on,60,32,60
2,note_on,54,32,0
2,note_on,63,36,0
2,note_on,63,0,180
2,note_on,54,0,0
2,note_on,60,0,0
2,note_on,57,35,189
2,note_on,53,31,0
2,note_on,53,0,180
2,note_on,57,0,0
2,note_on,57,31,60
2,note_on,53,28,0
2,note_on,53,0,161
2,note_on,57,0,0
2,note_on,44,51,60
2,note_on,44,0,316
2,note_on,45,43,0
2,note_on,45,0,120
2,note_on,44,46,0
2,note_on,44,0,120
2,note_on,45,48,0
2,note_on,45,0,120
2,note_on,50,51,0
2,note_on,50,0,177
2,note_on,47,42,0
2,note_on,47,0,240
2,note_on,48,48,0
2,note_on,48,0,233
2,note_on,63,39,202
2,note_on,54,36,0
2,note_on,60,36,0
2,note_on,60,0,180
2,note_on,54,0,0
2,note_on,63,0,0
2,note_on,60,32,60
2,note_on,54,32,0
2,note_on,63,36,0
2,note_on,63,0,180
2,note_on,54,0,0
2,note_on,60,0,0
2,note_on,57,35,189
2,note_on,53,31,0
2,note_on,53,0,180
2,note_on,57,0,0
2,note_on,57,31,60
2,note_on,53,28,0
2,note_on,53,0,155
2,note_on,57,0,0
2,note_on,58,36,202
2,note_on,60,36,0
2,note_on,63,39,0
2,note_on,63,0,180
2,note_on,60,0,0
2,note_on,58,0,0
2,note_on,60,27,60
2,note_on,63,30,0
2,note_on,58,27,0
2,note_on,58,0,180
2,note_on,63,0,0
2,note_on,60,0,0
2,note_on,57,35,189
2,note_on,53,31,0
2,note_on,53,0,180
2,note_on,57,0,0
2,note_on,53,28,60
2,note_on,57,31,0
2,note_on,57,0,160
2,note_on,53,0,0
2,note_on,63,36,202
2,note_on,58,33,0
2,note_on,60,33,0
2,note_on,60,0,180
2,note_on,58,0,0
2,note_on,63,0,0
2,note_on,58,24,60
2,note_on,63,28,0
2,note_on,60,24,0
2,note_on,60,0,180
2,note_on,63,0,0
2,note_on,58,0,0
2,note_on,53,22,152
2,note_on,57,26,0
2,note_on,57,0,180
2,note_on,53,0,0
2,note_on,53,20,60
2,note_on,57,22,0
2,note_on,57,0,174
2,note_on,53,0,0
2,note_on,62,31,187
2,note_on,58,31,0
2,note_on,65,35,0
2,note_on,65,0,240
2,note_on,58,0,0
2,note_on,62,0,0
2,note_on,62,28,0
2,note_on,58,28,0
2,note_on,65,32,0
2,note_on,65,0,240
2,note_on,58,0,0
2,note_on,62,0,0
2,note_on,58,30,0
2,note_on,65,34,0
2,note_on,62,30,0
2,note_on,62,0,133
2,note_on,65,0,0
2,note_on,58,0,0
2,note_on,62,28,0
2,note_on,58,28,0
2,note_on,65,32,0
2,note_on,65,0,240
2,note_on,58,0,0
2,note_on,62,0,0
2,note_on,65,36,202
2,note_on,57,30,0
2,note_on,63,36,0
2,note_on,63,0,240
2,note_on,57,0,0
2,note_on,65,0,0
2,note_on,63,36,0
2,note_on,57,30,0
2,note_on,65,36,0
2,note_on,65,0,240
2,note_on,57,0,0
2,note_on,63,0,0
2,note_on,63,36,0
2,note_on,65,36,0
2,note_on,57,30,0
2,note_on,57,0,114
2,note_on,65,0,0
2,note_on,63,0,0
2,note_on,57,30,0
2,note_on,65,36,0
2,note_on,63,36,0
2,note_on,63,0,230
2,note_on,65,0,0
2,note_on,57,0,0
2,note_on,56,30,137
2,note_on,65,36,0
2,note_on,62,30,0
2,note_on,62,0,240
2,note_on,65,0,0
2,note_on,56,0,0
2,note_on,56,30,0
2,note_on,65,36,0
2,note_on,62,30,0
2,note_on,62,0,240
2,note_on,65,0,0
2,note_on,56,0,0
2,note_on,56,33,0
2,note_on,65,40,0
2,note_on,62,33,0
2,note_on,62,0,114
2,note_on,65,0,0
2,note_on,56,0,0
2,note_on,62,33,0
2,note_on,65,40,0
2,note_on,56,33,0
2,note_on,56,0,240
2,note_on,65,0,0
2,note_on,62,0,0
2,note_on,60,38,147
2,note_on,63,47,0
2,note_on,55,38,0
2,note_on,55,0,240
2,note_on,63,0,0
2,note_on,60,0,0
2,note_on,60,38,0
2,note_on,55,38,0
2,note_on,63,47,0
2,note_on,63,0,240
2,note_on,55,0,0
2,note_on,60,0,0
2,note_on,55,38,0
2,note_on,63,48,0
2,note_on,60,38,0
2,note_on,60,0,94
2,note_on,63,0,0
2,note_on,55,0,0
2,note_on,60,38,0
2,note_on,55,38,0
2,note_on,63,48,0
2,note_on,63,0,240
2,note_on,55,0,0
2,note_on,60,0,0
2,note_on,57,44,232
2,note_on,55,44,0
2,note_on,64,55,0
2,note_on,61,55,0
2,note_on,61,0,240
2,note_on,57,0,0
2,note_on,55,0,0
2,note_on,64,0,0
2,note_on,57,41,0
2,note_on,61,49,0
2,note_on,64,49,0
2,note_on,55,41,0
2,note_on,55,0,240
2,note_on,57,0,0
2,note_on,61,0,0
2,note_on,64,0,0
2,note_on,57,45,0
2,note_on,61,55,0
2,note_on,64,55,0
2,note_on,55,45,0
2,note_on,55,0,166
2,note_on,57,0,0
2,note_on,61,0,0
2,note_on,64,0,0
2,note_on,57,45,0
2,note_on,61,55,0
2,note_on,64,55,0
2,note_on,55,45,0
2,note_on,55,0,240
2,note_on,57,0,0
2,note_on,61,0,0
2,note_on,64,0,0
2,note_on,62,46,53
2,note_on,53,38,0
2,note_on,57,38,0
2,note_on,57,0,240
2,note_on,53,0,0
2,note_on,62,0,0
2,note_on,53,38,0
2,note_on,57,38,0
2,note_on,62,46,0
2,note_on,62,0,240
2,note_on,57,0,0
2,note_on,53,0,0
2,note_on,62,46,0
2,note_on,53,38,0
2,note_on,57,38,0
2,note_on,57,0,80
2,note_on,53,0,0
2,note_on,62,0,0
2,note_on,62,45,0
2,note_on,57,38,0
2,note_on,53,38,0
2,note_on,53,0,240
2,note_on,57,0,0
2,note_on,62,0,0
2,note_on,55,38,91
2,note_on,61,38,0
2,note_on,57,38,0
2,note_on,52,31,0
2,note_on,52,0,240
2,note_on,55,0,0
2,note_on,61,0,0
2,note_on,57,0,0
2,note_on,52,31,0
2,note_on,61,37,0
2,note_on,57,37,0
2,note_on,55,31,0
2,note_on,55,0,240
2,note_on,52,0,0
2,note_on,61,0,0
2,note_on,57,0,0
2,note_on,52,31,0
2,note_on,61,37,0
2,note_on,57,37,0
2,note_on,55,31,0
2,note_on,55,0,182
2,note_on,52,0,0
2,note_on,61,0,0
2,note_on,57,0,0
2,note_on,52,30,0
2,note_on,61,37,0
2,note_on,57,37,0
2,note_on,55,30,0
2,note_on,55,0,240
2,note_on,52,0,0
2,note_on,61,0,0
2,note_on,57,0,0
2,note_on,57,33,67
2,note_on,50,23,0
2,note_on,50,0,240
2,note_on,57,0,0
2,note_on,50,21,0
2,note_on,57,29,0
2,note_on,57,0,240
2,note_on,50,0,0
2,note_on,50,21,0
2,note_on,57,29,0
2,note_on,57,0,240
2,note_on,50,0,0
2,note_on,57,29,0
2,note_on,50,21,0
2,note_on,50,0,240
2,note_on,57,0,0
2,note_on,48,31,240
2,note_on,63,35,0
2,note_on,65,35,0
2,note_on,53,31,0
2,note_on,53,0,240
2,note_on,48,0,0
2,note_on,63,0,0
2,note_on,65,0,0
2,note_on,53,28,0
2,note_on,48,28,0
2,note_on,65,32,0
2,note_on,63,32,0
2,note_on,63,0,240
2,note_on,53,0,0
2,note_on,48,0,0
2,note_on,65,0,0
2,note_on,48,31,0
2,note_on,63,35,0
2,note_on,53,31,0
2,note_on,65,35,0
2,note_on,65,0,133
2,note_on,48,0,0
2,note_on,63,0,0
2,note_on,53,0,0
2,note_on,53,29,0
2,note_on,48,29,0
2,note_on,65,33,0
2,note_on,63,33,0
2,note_on,63,0,240
2,note_on,53,0,0
2,note_on,48,0,0
2,note_on,65,0,0
2,note_on,46,30,202
2,note_on,58,36,0
2,note_on,62,36,0
2,note_on,62,0,240
2,note_on,58,0,0
2,note_on,46,0,0
2,note_on,46,30,0
2,note_on,62,36,0
2,note_on,58,36,0
2,note_on,58,0,240
2,note_on,62,0,0
2,note_on,46,0,0
2,note_on,58,36,0
2,note_on,46,30,0
2,note_on,62,36,0
2,note_on,62,0,120
2,note_on,46,0,0
2,note_on,58,0,0
2,note_on,58,36,0
2,note_on,62,36,0
2,note_on,46,30,0
2,note_on,46,0,240
2,note_on,62,0,0
2,note_on,58,0,0
2,note_on,55,33,137
2,note_on,65,33,0
2,note_on,67,40,0
2,note_on,50,33,0
2,note_on,50,0,240
2,note_on,55,0,0
2,note_on,65,0,0
2,note_on,67,0,0
2,note_on,55,34,0
2,note_on,50,34,0
2,note_on,67,40,0
2,note_on,65,34,0
2,note_on,65,0,240
2,note_on,55,0,0
2,note_on,50,0,0
2,note_on,67,0,0
2,note_on,50,37,0
2,note_on,65,37,0
2,note_on,67,45,0
2,note_on,55,37,0
2,note_on,55,0,164
2,note_on,50,0,0
2,note_on,65,0,0
2,note_on,67,0,0
2,note_on,55,38,0
2,note_on,50,38,0
2,note_on,67,46,0
2,note_on,65,38,0
2,note_on,65,0,240
2,note_on,55,0,0
2,note_on,50,0,0
2,note_on,67,0,0
2,note_on,48,44,147
2,note_on,63,55,0
2,note_on,60,44,0
2,note_on,60,0,240
2,note_on,63,0,0
2,note_on,48,0,0
2,note_on,48,45,0
2,note_on,63,56,0
2,note_on,60,45,0
2,note_on,60,0,240
2,note_on,63,0,0
2,note_on,48,0,0
2,note_on,60,45,0
2,note_on,48,45,0
2,note_on,63,57,0
2,note_on,63,0,107
2,note_on,48,0,0
2,note_on,60,0,0
2,note_on,60,42,0
2,note_on,63,53,0
2,note_on,48,42,0
2,note_on,48,0,230
2,note_on,63,0,0
2,note_on,60,0,0
2,note_on,58,63,149
2,note_on,64,63,0
2,note_on,55,50,0
2,note_on,55,0,240
2,note_on,64,0,0
2,note_on,58,0,0
2,note_on,58,51,0
2,note_on,55,44,0
2,note_on,64,51,0
2,note_on,64,0,240
2,note_on,55,0,0
2,note_on,58,0,0
2,note_on,55,47,0
2,note_on,64,57,0
2,note_on,58,57,0
2,note_on,58,0,103
2,note_on,64,0,0
2,note_on,55,0,0
2,note_on,58,57,0
2,note_on,55,47,0
2,note_on,64,57,0
2,note_on,64,0,240
2,note_on,55,0,0
2,note_on,58,0,0
2,note_on,65,50,53
2,note_on,53,42,0
2,note_on,58,42,0
2,note_on,58,0,240
2,note_on,53,0,0
2,note_on,65,0,0
2,note_on,53,42,0
2,note_on,58,42,0
2,note_on,65,50,0
2,note_on,65,0,240
2,note_on,58,0,0
2,note_on,53,0,0
2,note_on,65,50,0
2,note_on,53,42,0
2,note_on,58,42,0
2,note_on,58,0,107
2,note_on,53,0,0
2,note_on,65,0,0
2,note_on,53,42,0
2,note_on,58,42,0
2,note_on,65,50,0
2,note_on,65,0,240
2,note_on,58,0,0
2,note_on,53,0,0
2,note_on,48,42,91
2,note_on,51,42,0
2,note_on,51,0,240
2,note_on,48,0,0
2,note_on,48,34,0
2,note_on,51,41,0
2,note_on,51,0,240
2,note_on,48,0,0
2,note_on,51,40,101
2,note_on,41,33,0
2,note_on,57,40,0
2,note_on,53,40,0
2,note_on,57,0,238
2,note_on,51,0,2
2,note_on,41,0,0
2,note_on,53,0,0
2,note_on,51,39,0
2,note_on,41,32,0
2,note_on,53,39,0
2,note_on,53,0,230
2,note_on,41,0,0
2,note_on,51,0,0
2,note_on,57,37,67
2,note_on,54,37,0
2,note_on,46,34,0
2,note_on,51,37,0
2,note_on,51,0,240
2,note_on,57,0,0
2,note_on,54,0,0
2,note_on,46,0,0
2,note_on,57,32,0
2,note_on,51,32,0
2,note_on,46,29,0
2,note_on,54,32,0
2,note_on,54,0,240
2,note_on,57,0,0
2,note_on,51,0,0
2,note_on,46,0,0
2,note_on,51,32,0
2,note_on,46,29,0
2,note_on,53,29,0
2,note_on,51,0,143
2,note_on,49,32,0
2,note_on,49,0,234
2,note_on,53,0,0
2,note_on,46,0,0
2,note_on,50,32,0
2,note_on,50,0,240
2,note_on,63,30,202
2,note_on,54,27,0
2,note_on,60,27,0
2,note_on,60,0,180
2,note_on,54,0,0
2,note_on,63,0,0
2,note_on,60,24,60
2,note_on,54,24,0
2,note_on,63,27,0
2,note_on,63,0,180
2,note_on,54,0,0
2,note_on,60,0,0
2,note_on,54,27,60
2,note_on,60,27,0
2,note_on,62,31,0
2,note_on,62,0,53
2,note_on,60,0,0
2,note_on,54,0,0
2,note_on,62,28,60
2,note_on,60,25,0
2,note_on,54,25,0
2,note_on,54,0,180
2,note_on,60,0,0
2,note_on,62,0,0
2,note_on,55,27,134
2,note_on,58,27,0
2,note_on,62,30,0
2,note_on,62,0,180
2,note_on,58,0,0
2,note_on,55,0,0
2,note_on,55,24,60
2,note_on,62,27,0
2,note_on,58,24,0
2,note_on,58,0,180
2,note_on,62,0,0
2,note_on,55,0,0
2,note_on,55,27,102
2,note_on,63,31,0
2,note_on,58,27,0
2,note_on,58,0,180
2,note_on,63,0,0
2,note_on,55,0,0
2,note_on,58,25,60
2,note_on,63,28,0
2,note_on,55,25,0
2,note_on,55,0,180
2,note_on,63,0,0
2,note_on,58,0,0
2,note_on,64,30,131
2,note_on,58,27,0
2,note_on,54,27,0
2,note_on,54,0,180
2,note_on,58,0,0
2,note_on,64,0,0
2,note_on,58,24,60
2,note_on,54,24,0
2,note_on,64,27,0
2,note_on,64,0,180
2,note_on,54,0,0
2,note_on,58,0,0
2,note_on,58,27,111
2,note_on,53,27,0
2,note_on,65,31,0
2,note_on,65,0,180
2,note_on,53,0,0
2,note_on,58,0,0
2,note_on,58,25,60
2,note_on,53,25,0
2,note_on,65,28,0
2,note_on,65,0,151
2,note_on,53,0,0
2,note_on,58,0,0
2,note_on,54,27,331
2,note_on,51,27,0
2,note_on,51,0,240
2,note_on,54,0,0
2,note_on,50,20,309
2,note_on,53,26,0
2,note_on,46,20,0
2,note_on,46,0,240
2,note_on,53,0,0
2,note_on,50,0,0
2,note_on,75,27,159
2,note_on,72,24,0
2,note_on,66,24,0
2,note_on,66,0,180
2,note_on,72,0,0
2,note_on,75,0,0
2,note_on,72,21,60
2,note_on,66,21,0
2,note_on,75,24,0
2,note_on,75,0,180
2,note_on,66,0,0
2,note_on,72,0,0
2,note_on,66,24,189
2,note_on,74,27,0
2,note_on,72,24,0
2,note_on,72,0,180
2,note_on,74,0,0
2,note_on,66,0,0
2,note_on,72,22,60
2,note_on,74,25,0
2,note_on,66,22,0
2,note_on,66,0,180
2,note_on,74,0,0
2,note_on,72,0,0
2,note_on,74,27,155
2,note_on,70,24,0
2,note_on,67,24,0
2,note_on,67,0,180
2,note_on,70,0,0
2,note_on,74,0,0
2,note_on,70,21,60
2,note_on,67,21,0
2,note_on,74,24,0
2,note_on,74,0,180
2,note_on,67,0,0
2,note_on,70,0,0
2,note_on,70,24,148
2,note_on,67,24,0
2,note_on,75,27,0
2,note_on,75,0,180
2,note_on,67,0,0
2,note_on,70,0,0
2,note_on,70,22,60
2,note_on,67,22,0
2,note_on,75,25,0
2,note_on,75,0,151
2,note_on,67,0,0
2,note_on,70,0,0
2,note_on,76,27,202
2,note_on,66,24,0
2,note_on,70,24,0
2,note_on,70,0,180
2,note_on,66,0,0
2,note_on,76,0,0
2,note_on,66,21,60
2,note_on,76,24,0
2,note_on,70,21,0
2,note_on,70,0,7
2,note_on,76,0,0
2,note_on,66,0,0
2,note_on,65,24,120
2,note_on,77,27,0
2,note_on,70,24,0
2,note_on,70,0,180
2,note_on,77,0,0
2,note_on,65,0,0
2,note_on,65,22,60
2,note_on,77,25,0
2,note_on,70,22,0
2,note_on,70,0,7
2,note_on,77,0,0
2,note_on,65,0,0
2,note_on,63,24,442
2,note_on,66,24,0
2,note_on,66,0,240
2,note_on,63,0,0
2,note_on,62,18,309
2,note_on,58,18,0
2,note_on,65,23,0
2,note_on,65,0,240
2,note_on,58,0,0
2,note_on,62,0,0
2,note_on,66,24,343
2,note_on,63,24,0
2,note_on,63,0,240
2,note_on,66,0,0
2,note_on,62,18,354
2,note_on,65,23,0
2,note_on,58,18,0
2,note_on,58,0,240
2,note_on,65,0,0
2,note_on,62,0,0
2,note_on,66,24,354
2,note_on,63,24,0
2,note_on,63,0,240
2,note_on,66,0,0
2,note_on,58,18,354
2,note_on,65,23,0
2,note_on,62,18,0
2,note_on,62,0,240
2,note_on,65,0,0
2,note_on,58,0,0
2,note_on,66,24,640
2,note_on,63,24,0
2,note_on,63,0,594
2,note_on,66,0,0
2,note_on,53,22,573
2,note_on,46,18,0
2,note_on,46,0,533
2,note_on,53,0,0
