Track,Message Type,Note,Velocity,Time
1,note_on,66,45,960
1,note_on,71,49,0
1,note_on,71,0,240
1,note_on,66,0,0
1,note_on,65,46,0
1,note_on,65,0,240
1,note_on,66,45,0
1,note_on,71,49,0
1,note_on,71,0,480
1,note_on,66,0,0
1,note_on,64,45,0
1,note_on,70,49,0
1,note_on,70,0,240
1,note_on,64,0,0
1,note_on,62,45,240
1,note_on,67,49,0
1,note_on,67,0,240
1,note_on,62,0,0
1,note_on,61,45,0
1,note_on,61,0,240
1,note_on,67,49,0
1,note_on,62,45,0
1,note_on,62,0,480
1,note_on,67,0,0
1,note_on,61,44,0
1,note_on,66,47,0
1,note_on,66,0,240
1,note_on,61,0,0
1,note_on,60,45,240
1,note_on,66,49,0
1,note_on,66,0,240
1,note_on,60,0,0
1,note_on,59,46,0
1,note_on,59,0,240
1,note_on,60,45,0
1,note_on,66,49,0
1,note_on,66,0,480
1,note_on,60,0,0
1,note_on,64,46,0
1,note_on,59,43,0
1,note_on,59,0,240
1,note_on,64,0,0
1,note_on,64,49,240
1,note_on,58,45,0
1,note_on,58,0,240
1,note_on,64,0,0
1,note_on,58,47,240
1,note_on,62,52,0
1,note_on,62,0,240
1,note_on,58,0,0
1,note_on,58,45,240
1,note_on,61,50,0
1,note_on,61,0,240
1,note_on,58,0,0
1,note_on,59,47,0
1,note_on,59,0,240
1,note_on,62,47,720
1,note_on,74,47,0
1,note_on,71,47,0
1,note_on,71,0,120
1,note_on,74,0,0
1,note_on,62,0,0
1,note_on,74,49,120
1,note_on,71,49,0
1,note_on,64,49,0
1,note_on,64,0,120
1,note_on,71,0,0
1,note_on,74,0,0
1,note_on,74,46,120
1,note_on,71,46,0
1,note_on,65,46,0
1,note_on,65,0,120
1,note_on,71,0,0
1,note_on,74,0,0
1,note_on,56,45,840
1,note_on,66,45,0
1,note_on,59,45,0
1,note_on,59,0,120
1,note_on,66,0,0
1,note_on,56,0,0
1,note_on,61,46,120
1,note_on,58,46,0
1,note_on,64,46,0
1,note_on,64,0,120
1,note_on,58,0,0
1,note_on,61,0,0
1,note_on,59,46,120
1,note_on,62,46,0
1,note_on,62,0,120
1,note_on,59,0,0
1,note_on,74,47,840
1,note_on,71,47,0
1,note_on,62,47,0
1,note_on,62,0,120
1,note_on,71,0,0
1,note_on,74,0,0
1,note_on,74,49,120
1,note_on,64,49,0
1,note_on,71,49,0
1,note_on,71,0,120
1,note_on,64,0,0
1,note_on,74,0,0
1,note_on,65,45,120
1,note_on,71,45,0
1,note_on,74,45,0
1,note_on,74,0,120
1,note_on,71,0,0
1,note_on,65,0,0
1,note_on,66,47,840
1,note_on,59,47,0
1,note_on,56,47,0
1,note_on,56,0,120
1,note_on,59,0,0
1,note_on,66,0,0
1,note_on,64,46,120
1,note_on,61,46,0
1,note_on,58,46,0
1,note_on,58,0,120
1,note_on,61,0,0
1,note_on,64,0,0
1,note_on,59,46,120
1,note_on,62,46,0
1,note_on,62,0,120
1,note_on,59,0,0
1,note_on,66,45,120
1,note_on,71,49,0
1,note_on,71,0,240
1,note_on,66,0,0
1,note_on,65,46,0
1,note_on,65,0,240
1,note_on,66,45,0
1,note_on,71,49,0
1,note_on,71,0,480
1,note_on,66,0,0
1,note_on,70,49,0
1,note_on,64,45,0
1,note_on,64,0,240
1,note_on,70,0,0
1,note_on,62,45,240
1,note_on,67,49,0
1,note_on,67,0,240
1,note_on,62,0,0
1,note_on,61,45,0
1,note_on,61,0,240
1,note_on,62,45,0
1,note_on,67,49,0
1,note_on,67,0,480
1,note_on,62,0,0
1,note_on,61,44,0
1,note_on,66,47,0
1,note_on,66,0,240
1,note_on,61,0,0
1,note_on,66,49,240
1,note_on,60,45,0
1,note_on,60,0,240
1,note_on,66,0,0
1,note_on,59,46,0
1,note_on,59,0,240
1,note_on,66,49,0
1,note_on,60,45,0
1,note_on,60,0,480
1,note_on,66,0,0
1,note_on,59,43,0
1,note_on,64,46,0
1,note_on,64,0,240
1,note_on,59,0,0
1,note_on,58,45,240
1,note_on,64,49,0
1,note_on,64,0,240
1,note_on,58,0,0
1,note_on,58,47,240
1,note_on,62,52,0
1,note_on,62,0,240
1,note_on,58,0,0
1,note_on,61,50,240
1,note_on,58,45,0
1,note_on,58,0,240
1,note_on,61,0,0
1,note_on,59,47,0
1,note_on,59,0,240
1,note_on,62,47,720
1,note_on,71,47,0
1,note_on,74,47,0
1,note_on,74,0,120
1,note_on,71,0,0
1,note_on,62,0,0
1,note_on,74,49,120
1,note_on,71,49,0
1,note_on,64,49,0
1,note_on,64,0,120
1,note_on,71,0,0
1,note_on,74,0,0
1,note_on,74,46,120
1,note_on,71,46,0
1,note_on,65,46,0
1,note_on,65,0,120
1,note_on,71,0,0
1,note_on,74,0,0
1,note_on,66,45,840
1,note_on,59,45,0
1,note_on,56,45,0
1,note_on,56,0,120
1,note_on,59,0,0
1,note_on,66,0,0
1,note_on,64,44,120
1,note_on,61,44,0
1,note_on,58,44,0
1,note_on,58,0,120
1,note_on,61,0,0
1,note_on,64,0,0
1,note_on,59,46,120
1,note_on,62,46,0
1,note_on,62,0,120
1,note_on,59,0,0
1,note_on,71,50,840
1,note_on,62,50,0
1,note_on,74,50,0
1,note_on,74,0,120
1,note_on,62,0,0
1,note_on,71,0,0
1,note_on,64,53,120
1,note_on,71,53,0
1,note_on,74,53,0
1,note_on,74,0,120
1,note_on,71,0,0
1,note_on,64,0,0
1,note_on,65,58,120
1,note_on,71,58,0
1,note_on,74,58,0
1,note_on,74,0,480
1,note_on,71,0,0
1,note_on,65,0,0
1,note_on,65,62,0
1,note_on,71,62,0
1,note_on,73,62,0
1,note_on,73,0,480
1,note_on,71,0,0
1,note_on,65,0,0
1,note_on,71,68,0
1,note_on,73,68,0
1,note_on,77,68,0
1,note_on,77,0,480
1,note_on,73,0,0
1,note_on,71,0,0
1,note_on,78,69,0
1,note_on,73,69,0
1,note_on,70,69,0
1,note_on,70,0,180
1,note_on,73,0,0
1,note_on,78,0,0
1,note_on,83,49,60
1,note_on,78,45,0
1,note_on,78,0,240
1,note_on,83,0,0
1,note_on,77,46,0
1,note_on,77,0,240
1,note_on,78,45,0
1,note_on,83,49,0
1,note_on,83,0,480
1,note_on,78,0,0
1,note_on,76,45,0
1,note_on,82,49,0
1,note_on,82,0,240
1,note_on,76,0,0
1,note_on,74,45,240
1,note_on,79,49,0
1,note_on,79,0,240
1,note_on,74,0,0
1,note_on,73,45,0
1,note_on,73,0,240
1,note_on,74,45,0
1,note_on,79,49,0
1,note_on,79,0,480
1,note_on,74,0,0
1,note_on,73,44,0
1,note_on,78,47,0
1,note_on,78,0,240
1,note_on,73,0,0
1,note_on,72,62,240
1,note_on,78,69,0
1,note_on,78,0,240
1,note_on,72,0,0
1,note_on,71,64,0
1,note_on,71,0,240
1,note_on,72,62,0
1,note_on,78,69,0
1,note_on,78,0,240
1,note_on,72,0,0
1,note_on,72,67,0
1,note_on,66,67,0
1,note_on,66,0,240
1,note_on,72,0,0
1,note_on,65,60,0
1,note_on,65,0,240
1,note_on,66,64,0
1,note_on,72,64,0
1,note_on,72,0,240
1,note_on,66,0,0
1,note_on,60,67,0
1,note_on,64,67,0
1,note_on,64,0,240
1,note_on,60,0,0
1,note_on,59,67,0
1,note_on,59,0,240
1,note_on,60,64,0
1,note_on,64,64,0
1,note_on,64,0,240
1,note_on,60,0,0
1,note_on,63,66,240
1,note_on,54,66,0
1,note_on,57,66,0
1,note_on,57,0,120
1,note_on,54,0,0
1,note_on,63,0,0
1,note_on,64,70,120
1,note_on,59,70,0
1,note_on,55,70,0
1,note_on,55,0,120
1,note_on,59,0,0
1,note_on,64,0,0
1,note_on,83,50,120
1,note_on,88,55,0
1,note_on,88,0,240
1,note_on,83,0,0
1,note_on,82,52,0
1,note_on,82,0,240
1,note_on,83,50,0
1,note_on,88,55,0
1,note_on,88,0,480
1,note_on,83,0,0
1,note_on,87,55,0
1,note_on,81,50,0
1,note_on,81,0,240
1,note_on,87,0,0
1,note_on,79,50,240
1,note_on,84,55,0
1,note_on,84,0,240
1,note_on,79,0,0
1,note_on,78,51,0
1,note_on,78,0,240
1,note_on,79,50,0
1,note_on,84,55,0
1,note_on,84,0,480
1,note_on,79,0,0
1,note_on,78,49,0
1,note_on,83,53,0
1,note_on,83,0,240
1,note_on,78,0,0
1,note_on,77,62,240
1,note_on,83,69,0
1,note_on,83,0,240
1,note_on,77,0,0
1,note_on,76,64,0
1,note_on,76,0,240
1,note_on,77,62,0
1,note_on,83,69,0
1,note_on,83,0,240
1,note_on,77,0,0
1,note_on,71,67,0
1,note_on,77,67,0
1,note_on,77,0,240
1,note_on,71,0,0
1,note_on,70,60,0
1,note_on,70,0,240
1,note_on,71,64,0
1,note_on,77,64,0
1,note_on,77,0,240
1,note_on,71,0,0
1,note_on,69,67,0
1,note_on,65,67,0
1,note_on,65,0,240
1,note_on,69,0,0
1,note_on,64,67,0
1,note_on,64,0,240
1,note_on,65,64,0
1,note_on,69,64,0
1,note_on,69,0,240
1,note_on,65,0,0
1,note_on,68,58,240
1,note_on,62,58,0
1,note_on,59,52,0
1,note_on,59,0,240
1,note_on,62,0,0
1,note_on,68,0,0
1,note_on,69,58,0
1,note_on,60,52,0
1,note_on,60,0,240
1,note_on,69,0,0
1,note_on,69,56,0
1,note_on,60,50,0
1,note_on,60,0,480
1,note_on,69,0,0
1,note_on,62,49,0
1,note_on,68,55,0
1,note_on,71,55,0
1,note_on,71,0,480
1,note_on,68,0,0
1,note_on,62,0,0
1,note_on,72,57,0
1,note_on,69,57,0
1,note_on,64,51,0
1,note_on,64,0,240
1,note_on,69,0,0
1,note_on,72,0,0
1,note_on,69,57,240
1,note_on,60,51,0
1,note_on,60,0,480
1,note_on,69,0,0
1,note_on,68,55,0
1,note_on,62,55,0
1,note_on,59,49,0
1,note_on,59,0,480
1,note_on,62,0,0
1,note_on,68,0,0
1,note_on,69,55,0
1,note_on,60,55,0
1,note_on,57,49,0
1,note_on,57,0,240
1,note_on,60,0,0
1,note_on,69,0,0
1,note_on,64,52,240
1,note_on,72,58,0
1,note_on,72,0,480
1,note_on,64,0,0
1,note_on,74,61,0
1,note_on,71,61,0
1,note_on,65,54,0
1,note_on,65,0,480
1,note_on,71,0,0
1,note_on,74,0,0
1,note_on,64,56,0
1,note_on,72,63,0
1,note_on,76,63,0
1,note_on,76,0,240
1,note_on,72,0,0
1,note_on,64,0,0
1,note_on,64,53,240
1,note_on,72,59,0
1,note_on,72,0,480
1,note_on,64,0,0
1,note_on,62,51,0
1,note_on,71,57,0
1,note_on,65,51,0
1,note_on,65,0,480
1,note_on,71,0,0
1,note_on,62,0,0
1,note_on,72,58,0
1,note_on,64,58,0
1,note_on,60,52,0
1,note_on,60,0,240
1,note_on,64,0,0
1,note_on,72,0,0
1,note_on,67,55,240
1,note_on,76,62,0
1,note_on,76,0,480
1,note_on,67,0,0
1,note_on,69,54,0
1,note_on,75,55,0
1,note_on,78,61,0
1,note_on,78,0,480
1,note_on,75,0,0
1,note_on,69,0,0
1,note_on,79,61,0
1,note_on,67,54,0
1,note_on,76,61,0
1,note_on,76,0,240
1,note_on,67,0,0
1,note_on,79,0,0
1,note_on,71,60,240
1,note_on,79,67,0
1,note_on,79,0,480
1,note_on,71,0,0
1,note_on,72,57,0
1,note_on,81,64,0
1,note_on,78,57,0
1,note_on,78,0,480
1,note_on,81,0,0
1,note_on,72,0,0
1,note_on,71,57,0
1,note_on,79,64,0
1,note_on,83,64,0
1,note_on,83,0,240
1,note_on,79,0,0
1,note_on,71,0,0
1,note_on,83,69,240
1,note_on,74,62,0
1,note_on,74,0,480
1,note_on,83,0,0
1,note_on,85,67,0
1,note_on,82,60,0
1,note_on,76,60,0
1,note_on,76,0,480
1,note_on,82,0,0
1,note_on,85,0,0
1,note_on,74,65,0
1,note_on,83,72,0
1,note_on,86,72,0
1,note_on,86,0,240
1,note_on,83,0,0
1,note_on,74,0,0
1,note_on,78,74,240
1,note_on,86,83,0
1,note_on,86,0,480
1,note_on,78,0,0
1,note_on,85,71,0
1,note_on,88,79,0
1,note_on,79,71,0
1,note_on,79,0,480
1,note_on,88,0,0
1,note_on,85,0,0
1,note_on,90,81,0
1,note_on,86,81,0
1,note_on,78,72,0
1,note_on,78,0,240
1,note_on,86,0,0
1,note_on,90,0,0
1,note_on,78,74,240
1,note_on,86,83,0
1,note_on,90,83,0
1,note_on,90,0,480
1,note_on,86,0,0
1,note_on,78,0,0
1,note_on,86,80,0
1,note_on,78,71,0
1,note_on,90,80,0
1,note_on,90,0,480
1,note_on,78,0,0
1,note_on,86,0,0
1,note_on,90,81,0
1,note_on,86,81,0
1,note_on,78,72,0
1,note_on,78,0,480
1,note_on,86,0,0
1,note_on,90,0,0
1,note_on,88,82,0
1,note_on,90,82,0
1,note_on,78,73,0
1,note_on,78,0,480
1,note_on,90,0,0
1,note_on,88,0,0
1,note_on,90,78,0
1,note_on,88,78,0
1,note_on,78,69,0
1,note_on,78,0,480
1,note_on,88,0,0
1,note_on,90,0,0
1,note_on,78,70,0
1,note_on,88,79,0
1,note_on,90,79,0
1,note_on,90,0,480
1,note_on,88,0,0
1,note_on,78,0,0
1,note_on,76,79,0
1,note_on,70,70,0
1,note_on,78,79,0
1,note_on,78,0,480
1,note_on,70,0,0
1,note_on,76,0,0
1,note_on,76,79,0
1,note_on,70,70,0
1,note_on,78,79,0
1,note_on,78,0,480
1,note_on,70,0,0
1,note_on,76,0,0
1,note_on,70,69,0
1,note_on,76,77,0
1,note_on,78,77,0
1,note_on,78,0,480
1,note_on,76,0,0
1,note_on,70,0,0
1,note_on,64,70,0
1,note_on,66,70,0
1,note_on,58,63,0
1,note_on,58,0,480
1,note_on,66,0,0
1,note_on,64,0,0
1,note_on,66,70,0
1,note_on,64,70,0
1,note_on,58,63,0
1,note_on,58,0,480
1,note_on,64,0,0
1,note_on,66,0,0
1,note_on,64,69,0
1,note_on,66,69,0
1,note_on,58,62,0
1,note_on,58,0,420
1,note_on,66,0,0
1,note_on,64,0,0
1,note_on,66,45,60
1,note_on,71,49,0
1,note_on,71,0,240
1,note_on,66,0,0
1,note_on,65,46,0
1,note_on,65,0,240
1,note_on,66,45,0
1,note_on,71,49,0
1,note_on,71,0,480
1,note_on,66,0,0
1,note_on,70,49,0
1,note_on,64,45,0
1,note_on,64,0,240
1,note_on,70,0,0
1,note_on,62,45,240
1,note_on,67,49,0
1,note_on,67,0,240
1,note_on,62,0,0
1,note_on,61,45,0
1,note_on,61,0,240
1,note_on,62,45,0
1,note_on,67,49,0
1,note_on,67,0,480
1,note_on,62,0,0
1,note_on,61,44,0
1,note_on,66,47,0
1,note_on,66,0,240
1,note_on,61,0,0
1,note_on,60,45,240
1,note_on,66,49,0
1,note_on,66,0,240
1,note_on,60,0,0
1,note_on,59,46,0
1,note_on,59,0,240
1,note_on,66,49,0
1,note_on,60,45,0
1,note_on,60,0,480
1,note_on,66,0,0
1,note_on,59,43,0
1,note_on,64,46,0
1,note_on,64,0,240
1,note_on,59,0,0
1,note_on,58,45,240
1,note_on,64,49,0
1,note_on,64,0,240
1,note_on,58,0,0
1,note_on,58,47,240
1,note_on,62,52,0
1,note_on,62,0,240
1,note_on,58,0,0
1,note_on,61,50,240
1,note_on,58,45,0
1,note_on,58,0,240
1,note_on,61,0,0
1,note_on,59,47,0
1,note_on,59,0,240
1,note_on,62,47,720
1,note_on,71,47,0
1,note_on,74,47,0
1,note_on,74,0,120
1,note_on,71,0,0
1,note_on,62,0,0
1,note_on,74,49,120
1,note_on,71,49,0
1,note_on,64,49,0
1,note_on,64,0,120
1,note_on,71,0,0
1,note_on,74,0,0
1,note_on,74,46,120
1,note_on,71,46,0
1,note_on,65,46,0
1,note_on,65,0,120
1,note_on,71,0,0
1,note_on,74,0,0
1,note_on,66,45,840
1,note_on,59,45,0
1,note_on,56,45,0
1,note_on,56,0,120
1,note_on,59,0,0
1,note_on,66,0,0
1,note_on,64,46,120
1,note_on,61,46,0
1,note_on,58,46,0
1,note_on,58,0,120
1,note_on,61,0,0
1,note_on,64,0,0
1,note_on,59,46,120
1,note_on,62,46,0
1,note_on,62,0,120
1,note_on,59,0,0
1,note_on,71,47,840
1,note_on,62,47,0
1,note_on,74,47,0
1,note_on,74,0,120
1,note_on,62,0,0
1,note_on,71,0,0
1,note_on,64,49,120
1,note_on,71,49,0
1,note_on,74,49,0
1,note_on,74,0,120
1,note_on,71,0,0
1,note_on,64,0,0
1,note_on,65,45,120
1,note_on,71,45,0
1,note_on,74,45,0
1,note_on,74,0,120
1,note_on,71,0,0
1,note_on,65,0,0
1,note_on,66,47,840
1,note_on,59,47,0
1,note_on,56,47,0
1,note_on,56,0,120
1,note_on,59,0,0
1,note_on,66,0,0
1,note_on,58,46,120
1,note_on,61,46,0
1,note_on,64,46,0
1,note_on,64,0,120
1,note_on,61,0,0
1,note_on,58,0,0
1,note_on,59,46,120
1,note_on,62,46,0
1,note_on,62,0,120
1,note_on,59,0,0
1,note_on,57,47,840
1,note_on,69,47,0
1,note_on,64,47,0
1,note_on,64,0,120
1,note_on,69,0,0
1,note_on,57,0,0
1,note_on,67,46,120
1,note_on,64,46,0
1,note_on,57,46,0
1,note_on,57,0,120
1,note_on,64,0,0
1,note_on,67,0,0
1,note_on,66,47,120
1,note_on,62,47,0
1,note_on,57,47,0
1,note_on,57,0,120
1,note_on,62,0,0
1,note_on,66,0,0
1,note_on,61,55,840
1,note_on,73,55,0
1,note_on,68,55,0
1,note_on,68,0,120
1,note_on,73,0,0
1,note_on,61,0,0
1,note_on,68,55,120
1,note_on,61,55,0
1,note_on,71,55,0
1,note_on,71,0,120
1,note_on,61,0,0
1,note_on,68,0,0
1,note_on,61,55,120
1,note_on,66,55,0
1,note_on,70,55,0
1,note_on,70,0,120
1,note_on,66,0,0
1,note_on,61,0,0
1,note_on,73,66,120
1,note_on,78,66,0
1,note_on,78,0,240
1,note_on,76,66,0
1,note_on,76,0,240
1,note_on,73,0,0
1,note_on,74,64,0
1,note_on,71,64,0
1,note_on,71,0,240
1,note_on,74,0,0
1,note_on,73,72,0
1,note_on,78,72,0
1,note_on,78,0,240
1,note_on,76,69,0
1,note_on,76,0,240
1,note_on,73,0,0
1,note_on,71,70,0
1,note_on,74,70,0
1,note_on,74,0,240
1,note_on,71,0,0
1,note_on,73,77,0
1,note_on,78,77,0
1,note_on,78,0,240
1,note_on,76,78,0
1,note_on,76,0,240
1,note_on,73,0,0
1,note_on,71,80,0
1,note_on,74,80,0
1,note_on,74,0,240
1,note_on,71,0,0
1,note_on,78,82,0
1,note_on,73,82,0
1,note_on,73,0,120
1,note_on,78,0,0
1,note_on,71,78,120
1,note_on,74,78,0
1,note_on,74,0,120
1,note_on,71,0,0
1,note_on,76,88,120
1,note_on,71,74,0
1,note_on,67,74,0
1,note_on,79,88,0
1,note_on,79,0,720
1,note_on,76,0,0
1,note_on,71,0,0
1,note_on,67,0,0
1,note_on,64,64,480
1,note_on,64,0,120
1,note_on,67,63,0
1,note_on,67,0,120
1,note_on,76,61,0
1,note_on,76,0,120
1,note_on,73,60,0
1,note_on,73,0,120
1,note_on,71,59,0
1,note_on,71,0,120
1,note_on,67,58,0
1,note_on,67,0,120
1,note_on,64,56,0
1,note_on,64,0,120
1,note_on,49,58,480
1,note_on,49,0,120
1,note_on,47,58,0
1,note_on,47,0,120
1,note_on,43,58,0
1,note_on,43,0,120
1,note_on,59,56,480
1,note_on,55,56,0
1,note_on,64,56,0
1,note_on,64,0,120
1,note_on,55,0,0
1,note_on,59,0,0
1,note_on,67,63,600
1,note_on,67,0,120
1,note_on,71,63,0
1,note_on,71,0,120
1,note_on,79,61,0
1,note_on,79,0,120
1,note_on,76,60,0
1,note_on,76,0,120
1,note_on,73,59,0
1,note_on,73,0,120
1,note_on,71,58,0
1,note_on,71,0,120
1,note_on,67,57,0
1,note_on,67,0,120
1,note_on,52,58,480
1,note_on,52,0,120
1,note_on,49,58,0
1,note_on,49,0,120
1,note_on,47,58,0
1,note_on,47,0,120
1,note_on,64,62,480
1,note_on,67,62,0
1,note_on,71,62,0
1,note_on,59,62,0
1,note_on,59,0,120
1,note_on,64,0,0
1,note_on,67,0,0
1,note_on,71,0,0
1,note_on,59,71,600
1,note_on,59,0,120
1,note_on,62,73,0
1,note_on,62,0,120
1,note_on,66,75,0
1,note_on,66,0,120
1,note_on,71,78,0
1,note_on,71,0,120
1,note_on,62,79,0
1,note_on,74,79,0
1,note_on,74,0,120
1,note_on,62,0,0
1,note_on,66,81,0
1,note_on,78,81,0
1,note_on,78,0,120
1,note_on,66,0,0
1,note_on,71,84,0
1,note_on,83,84,0
1,note_on,83,0,120
1,note_on,71,0,0
1,note_on,86,86,0
1,note_on,74,86,0
1,note_on,74,0,120
1,note_on,86,0,0
1,note_on,90,90,0
1,note_on,78,81,0
1,note_on,78,0,240
1,note_on,90,0,0
1,note_on,64,72,0
1,note_on,91,95,0
1,note_on,79,85,0
1,note_on,76,80,0
1,note_on,76,0,120
1,note_on,64,0,0
1,note_on,91,0,0
1,note_on,79,0,0
1,note_on,61,68,120
1,note_on,88,90,0
1,note_on,76,81,0
1,note_on,73,76,0
1,note_on,73,0,120
1,note_on,61,0,0
1,note_on,88,0,0
1,note_on,76,0,0
1,note_on,90,95,120
1,note_on,74,80,0
1,note_on,62,72,0
1,note_on,78,85,0
1,note_on,78,0,120
1,note_on,90,0,0
1,note_on,74,0,0
1,note_on,62,0,0
1,note_on,74,81,120
1,note_on,71,76,0
1,note_on,59,68,0
1,note_on,86,90,0
1,note_on,86,0,120
1,note_on,74,0,0
1,note_on,71,0,0
1,note_on,59,0,0
1,note_on,73,80,120
1,note_on,76,85,0
1,note_on,88,95,0
1,note_on,61,80,0
1,note_on,61,0,120
1,note_on,73,0,0
1,note_on,76,0,0
1,note_on,88,0,0
1,note_on,73,81,120
1,note_on,85,90,0
1,note_on,58,68,0
1,note_on,70,76,0
1,note_on,70,0,120
1,note_on,73,0,0
1,note_on,85,0,0
1,note_on,58,0,0
1,note_on,86,94,120
1,note_on,74,84,0
1,note_on,71,79,0
1,note_on,59,71,0
1,note_on,59,0,120
1,note_on,86,0,0
1,note_on,74,0,0
1,note_on,71,0,0
1,note_on,70,77,120
1,note_on,66,73,0
1,note_on,54,65,0
1,note_on,82,86,0
1,note_on,82,0,120
1,note_on,70,0,0
1,note_on,66,0,0
1,note_on,54,0,0
1,note_on,71,82,120
1,note_on,83,92,0
1,note_on,83,0,120
1,note_on,71,0,0
1,note_on,78,85,120
1,note_on,66,76,0
1,note_on,66,0,120
1,note_on,78,0,0
1,note_on,79,90,120
1,note_on,67,81,0
1,note_on,67,0,120
1,note_on,79,0,0
1,note_on,64,75,120
1,note_on,76,84,0
1,note_on,76,0,120
1,note_on,64,0,0
1,note_on,66,81,120
1,note_on,78,91,0
1,note_on,78,0,120
1,note_on,66,0,0
1,note_on,62,74,120
1,note_on,74,83,0
1,note_on,74,0,120
1,note_on,62,0,0
1,note_on,76,90,120
1,note_on,64,81,0
1,note_on,64,0,120
1,note_on,76,0,0
1,note_on,73,82,120
1,note_on,61,73,0
1,note_on,61,0,120
1,note_on,73,0,0
1,note_on,62,81,120
1,note_on,74,90,0
1,note_on,74,0,120
1,note_on,62,0,0
1,note_on,58,75,120
1,note_on,70,84,0
1,note_on,70,0,120
1,note_on,58,0,0
1,note_on,59,81,120
1,note_on,71,91,0
1,note_on,71,0,120
1,note_on,59,0,0
1,note_on,66,82,120
1,note_on,54,73,0
1,note_on,54,0,120
1,note_on,66,0,0
1,note_on,55,80,120
1,note_on,67,89,0
1,note_on,67,0,480
1,note_on,55,0,0
1,note_on,61,72,0
1,note_on,64,72,0
1,note_on,70,80,0
1,note_on,70,0,240
1,note_on,64,0,0
1,note_on,61,0,0
1,note_on,62,77,0
1,note_on,66,77,0
1,note_on,71,86,0
1,note_on,71,0,240
1,note_on,66,0,0
1,note_on,62,0,0
1,note_on,74,56,720
1,note_on,73,56,0
1,note_on,61,56,0
1,note_on,61,0,120
1,note_on,73,0,0
1,note_on,74,0,0
1,note_on,62,53,120
1,note_on,73,53,0
1,note_on,74,53,0
1,note_on,74,0,120
1,note_on,73,0,0
1,note_on,62,0,0
1,note_on,74,52,120
1,note_on,73,52,0
1,note_on,64,52,0
1,note_on,64,0,120
1,note_on,73,0,0
1,note_on,74,0,0
1,note_on,66,53,840
1,note_on,56,53,0
1,note_on,59,53,0
1,note_on,59,0,120
1,note_on,56,0,0
1,note_on,66,0,0
1,note_on,58,52,120
1,note_on,61,52,0
1,note_on,66,52,0
1,note_on,66,0,120
1,note_on,61,0,0
1,note_on,58,0,0
1,note_on,62,52,120
1,note_on,59,52,0
1,note_on,66,52,0
1,note_on,66,0,120
1,note_on,59,0,0
1,note_on,62,0,0
1,note_on,74,54,840
1,note_on,73,54,0
1,note_on,61,54,0
1,note_on,61,0,120
1,note_on,73,0,0
1,note_on,74,0,0
1,note_on,74,55,120
1,note_on,73,55,0
1,note_on,62,55,0
1,note_on,62,0,120
1,note_on,73,0,0
1,note_on,74,0,0
1,note_on,74,51,120
1,note_on,73,51,0
1,note_on,64,51,0
1,note_on,64,0,120
1,note_on,73,0,0
1,note_on,74,0,0
1,note_on,56,55,840
1,note_on,66,55,0
1,note_on,59,55,0
1,note_on,59,0,120
1,note_on,66,0,0
1,note_on,56,0,0
1,note_on,66,55,120
1,note_on,61,55,0
1,note_on,58,55,0
1,note_on,58,0,120
1,note_on,61,0,0
1,note_on,66,0,0
1,note_on,66,52,120
1,note_on,62,52,0
1,note_on,59,52,0
1,note_on,59,0,120
1,note_on,62,0,0
1,note_on,66,0,0
1,note_on,62,60,120
1,note_on,71,66,0
1,note_on,66,60,0
1,note_on,66,0,120
1,note_on,71,0,0
1,note_on,62,0,0
1,note_on,70,62,120
1,note_on,66,57,0
1,note_on,62,57,0
1,note_on,62,0,120
1,note_on,66,0,0
1,note_on,70,0,0
1,note_on,62,60,120
1,note_on,66,60,0
1,note_on,71,66,0
1,note_on,71,0,120
1,note_on,66,0,0
1,note_on,62,0,0
1,note_on,74,67,120
1,note_on,71,61,0
1,note_on,66,61,0
1,note_on,66,0,120
1,note_on,71,0,0
1,note_on,74,0,0
1,note_on,73,63,120
1,note_on,66,58,0
1,note_on,71,58,0
1,note_on,71,0,120
1,note_on,66,0,0
1,note_on,73,0,0
1,note_on,66,63,120
1,note_on,71,63,0
1,note_on,74,69,0
1,note_on,74,0,120
1,note_on,71,0,0
1,note_on,66,0,0
1,note_on,78,69,120
1,note_on,74,63,0
1,note_on,71,63,0
1,note_on,71,0,120
1,note_on,74,0,0
1,note_on,78,0,0
1,note_on,77,67,120
1,note_on,74,61,0
1,note_on,71,61,0
1,note_on,71,0,120
1,note_on,74,0,0
1,note_on,77,0,0
1,note_on,78,72,120
1,note_on,74,66,0
1,note_on,71,66,0
1,note_on,71,0,120
1,note_on,74,0,0
1,note_on,78,0,0
1,note_on,83,73,120
1,note_on,78,67,0
1,note_on,74,67,0
1,note_on,74,0,120
1,note_on,78,0,0
1,note_on,83,0,0
1,note_on,74,63,120
1,note_on,82,69,0
1,note_on,78,63,0
1,note_on,78,0,120
1,note_on,82,0,0
1,note_on,74,0,0
1,note_on,83,74,120
1,note_on,78,68,0
1,note_on,74,68,0
1,note_on,74,0,120
1,note_on,78,0,0
1,note_on,83,0,0
1,note_on,86,75,120
1,note_on,83,69,0
1,note_on,78,69,0
1,note_on,78,0,120
1,note_on,83,0,0
1,note_on,86,0,0
1,note_on,78,63,120
1,note_on,85,69,0
1,note_on,83,63,0
1,note_on,83,0,120
1,note_on,85,0,0
1,note_on,78,0,0
1,note_on,83,70,120
1,note_on,78,70,0
1,note_on,86,77,0
1,note_on,86,0,120
1,note_on,78,0,0
1,note_on,83,0,0
1,note_on,83,71,120
1,note_on,86,71,0
1,note_on,90,78,0
1,note_on,90,0,120
1,note_on,86,0,0
1,note_on,83,0,0
1,note_on,83,66,120
1,note_on,86,66,0
1,note_on,89,72,0
1,note_on,89,0,120
1,note_on,86,0,0
1,note_on,83,0,0
1,note_on,86,73,120
1,note_on,83,73,0
1,note_on,90,80,0
1,note_on,90,0,120
1,note_on,83,0,0
1,note_on,86,0,0
1,note_on,86,73,120
1,note_on,90,73,0
1,note_on,95,80,0
1,note_on,95,0,120
1,note_on,90,0,0
1,note_on,86,0,0
1,note_on,86,70,120
1,note_on,90,70,0
1,note_on,94,76,0
1,note_on,94,0,120
1,note_on,90,0,0
1,note_on,86,0,0
1,note_on,95,86,120
1,note_on,90,78,0
1,note_on,86,78,0
1,note_on,86,0,120
1,note_on,90,0,0
1,note_on,95,0,0
1,note_on,86,82,120
1,note_on,90,82,0
1,note_on,95,90,0
1,note_on,95,0,120
1,note_on,90,0,0
1,note_on,86,0,0
1,note_on,94,85,120
1,note_on,90,77,0
1,note_on,86,77,0
1,note_on,86,0,120
1,note_on,90,0,0
1,note_on,94,0,0
1,note_on,95,93,120
1,note_on,86,85,0
1,note_on,90,85,0
1,note_on,90,0,120
1,note_on,86,0,0
1,note_on,95,0,0
1,note_on,74,81,600
1,note_on,78,81,0
1,note_on,83,89,0
1,note_on,83,0,120
1,note_on,78,0,0
1,note_on,74,0,0
1,note_on,71,89,600
1,note_on,66,81,0
1,note_on,62,81,0
1,note_on,62,0,120
1,note_on,66,0,0
1,note_on,71,0,0
1,note_on,66,42,1320
1,note_on,74,55,0
1,note_on,74,0,720
1,note_on,73,51,0
1,note_on,73,0,720
1,note_on,71,52,0
1,note_on,71,0,480
1,note_on,69,47,0
1,note_on,69,0,240
1,note_on,69,47,0
1,note_on,69,0,720
1,note_on,66,0,0
1,note_on,64,42,0
1,note_on,71,55,0
1,note_on,71,0,720
1,note_on,69,51,0
1,note_on,69,0,720
1,note_on,64,0,0
1,note_on,63,42,0
1,note_on,67,55,0
1,note_on,67,0,480
1,note_on,66,51,0
1,note_on,66,0,240
1,note_on,66,51,0
1,note_on,66,0,720
1,note_on,63,0,0
1,note_on,69,55,0
1,note_on,62,42,0
1,note_on,62,0,720
1,note_on,69,0,0
1,note_on,62,51,0
1,note_on,62,0,720
1,note_on,62,42,0
1,note_on,66,55,0
1,note_on,66,0,480
1,note_on,64,51,0
1,note_on,64,0,240
1,note_on,64,51,0
1,note_on,64,0,720
1,note_on,62,0,0
1,note_on,66,55,0
1,note_on,59,42,0
1,note_on,59,0,720
1,note_on,66,0,0
1,note_on,59,51,0
1,note_on,59,0,720
1,note_on,58,40,0
1,note_on,62,53,0
1,note_on,62,0,480
1,note_on,61,49,0
1,note_on,61,0,240
1,note_on,61,49,0
1,note_on,61,0,720
1,note_on,58,0,0
1,note_on,57,47,0
1,note_on,69,47,0
1,note_on,62,47,0
1,note_on,62,0,1440
1,note_on,69,0,0
1,note_on,57,0,0
1,note_on,54,46,0
1,note_on,57,46,0
1,note_on,57,0,1440
1,note_on,54,0,0
1,note_on,64,49,0
1,note_on,71,49,0
1,note_on,74,49,0
1,note_on,74,0,1440
1,note_on,71,0,0
1,note_on,64,0,0
1,note_on,59,52,0
1,note_on,64,52,0
1,note_on,64,0,1440
1,note_on,59,0,0
1,note_on,64,52,0
1,note_on,76,52,0
1,note_on,76,0,1440
1,note_on,64,0,0
1,note_on,63,50,0
1,note_on,69,50,0
1,note_on,69,0,1440
1,note_on,63,0,0
1,note_on,69,56,0
1,note_on,76,56,0
1,note_on,81,56,0
1,note_on,81,0,720
1,note_on,76,0,0
1,note_on,69,0,0
1,note_on,69,56,0
1,note_on,73,56,0
1,note_on,73,0,720
1,note_on,69,0,0
1,note_on,68,53,0
1,note_on,73,69,0
1,note_on,73,0,480
1,note_on,71,60,0
1,note_on,71,0,240
1,note_on,68,0,0
1,note_on,69,60,0
1,note_on,69,0,720
1,note_on,67,47,0
1,note_on,76,55,0
1,note_on,76,0,720
1,note_on,69,51,0
1,note_on,69,0,720
1,note_on,67,0,0
1,note_on,66,47,0
1,note_on,71,55,0
1,note_on,71,0,480
1,note_on,69,51,0
1,note_on,69,0,240
1,note_on,69,51,0
1,note_on,69,0,720
1,note_on,66,0,0
1,note_on,71,47,0
1,note_on,69,47,0
1,note_on,69,0,1440
1,note_on,71,0,0
1,note_on,69,47,0
1,note_on,67,47,0
1,note_on,67,0,720
1,note_on,69,0,0
1,note_on,68,36,0
1,note_on,71,36,0
1,note_on,71,0,720
1,note_on,68,0,0
1,note_on,71,49,0
1,note_on,80,57,0
1,note_on,80,0,720
1,note_on,73,53,0
1,note_on,73,0,720
1,note_on,71,0,0
1,note_on,74,57,0
1,note_on,69,49,0
1,note_on,74,0,480
1,note_on,73,53,13
1,note_on,73,53,227
1,note_on,73,0,13
1,note_on,73,0,707
1,note_on,69,0,0
1,note_on,74,49,0
1,note_on,72,49,0
1,note_on,72,0,1440
1,note_on,74,0,0
1,note_on,73,49,0
1,note_on,70,49,0
1,note_on,70,0,720
1,note_on,73,0,0
1,note_on,71,45,0
1,note_on,74,45,0
1,note_on,74,0,720
1,note_on,71,0,0
1,note_on,74,53,0
1,note_on,83,62,0
1,note_on,83,0,720
1,note_on,76,58,0
1,note_on,76,0,720
1,note_on,74,0,0
1,note_on,75,65,0
1,note_on,73,56,0
1,note_on,75,0,480
1,note_on,76,63,0
1,note_on,76,0,240
1,note_on,76,63,0
1,note_on,76,0,720
1,note_on,73,0,0
1,note_on,76,54,0
1,note_on,85,68,0
1,note_on,85,0,720
1,note_on,78,63,0
1,note_on,78,0,720
1,note_on,76,0,0
1,note_on,77,71,0
1,note_on,74,61,0
1,note_on,77,0,480
1,note_on,78,69,0
1,note_on,78,0,240
1,note_on,78,69,0
1,note_on,78,0,720
1,note_on,74,0,0
1,note_on,68,58,0
1,note_on,71,58,0
1,note_on,71,0,2880
1,note_on,68,0,0
1,note_on,67,57,0
1,note_on,74,64,0
1,note_on,74,0,720
1,note_on,67,0,0
1,note_on,67,57,0
1,note_on,67,0,720
1,note_on,67,58,0
1,note_on,74,58,0
1,note_on,74,0,480
1,note_on,73,51,0
1,note_on,73,0,240
1,note_on,73,53,0
1,note_on,73,0,720
1,note_on,67,0,0
1,note_on,66,42,0
1,note_on,74,55,0
1,note_on,74,0,720
1,note_on,73,51,0
1,note_on,73,0,720
1,note_on,71,52,0
1,note_on,71,0,480
1,note_on,69,47,0
1,note_on,69,0,240
1,note_on,69,47,0
1,note_on,69,0,720
1,note_on,66,0,0
1,note_on,64,42,0
1,note_on,71,55,0
1,note_on,71,0,720
1,note_on,69,51,0
1,note_on,69,0,720
1,note_on,64,0,0
1,note_on,63,42,0
1,note_on,67,55,0
1,note_on,67,0,480
1,note_on,66,51,0
1,note_on,66,0,240
1,note_on,66,51,0
1,note_on,66,0,720
1,note_on,63,0,0
1,note_on,69,55,0
1,note_on,62,42,0
1,note_on,62,0,720
1,note_on,69,0,0
1,note_on,62,51,0
1,note_on,62,0,720
1,note_on,62,42,0
1,note_on,66,55,0
1,note_on,66,0,480
1,note_on,64,51,0
1,note_on,64,0,240
1,note_on,64,51,0
1,note_on,64,0,720
1,note_on,62,0,0
1,note_on,66,55,0
1,note_on,59,42,0
1,note_on,59,0,720
1,note_on,66,0,0
1,note_on,59,51,0
1,note_on,59,0,720
1,note_on,58,40,0
1,note_on,62,53,0
1,note_on,62,0,480
1,note_on,61,49,0
1,note_on,61,0,240
1,note_on,61,49,0
1,note_on,61,0,720
1,note_on,58,0,0
1,note_on,57,47,0
1,note_on,69,47,0
1,note_on,62,47,0
1,note_on,62,0,1440
1,note_on,69,0,0
1,note_on,57,0,0
1,note_on,62,46,0
1,note_on,54,46,0
1,note_on,57,46,0
1,note_on,57,0,1440
1,note_on,54,0,0
1,note_on,62,0,0
1,note_on,62,49,0
1,note_on,74,49,0
1,note_on,67,49,0
1,note_on,67,0,1440
1,note_on,74,0,0
1,note_on,62,0,0
1,note_on,71,48,0
1,note_on,59,48,0
1,note_on,65,48,0
1,note_on,65,0,1440
1,note_on,59,0,0
1,note_on,71,0,0
1,note_on,57,51,0
1,note_on,69,51,0
1,note_on,66,51,0
1,note_on,66,0,1440
1,note_on,69,0,0
1,note_on,57,0,0
1,note_on,59,50,0
1,note_on,64,50,0
1,note_on,64,0,1440
1,note_on,59,0,0
1,note_on,55,45,0
1,note_on,61,45,0
1,note_on,61,0,1440
1,note_on,55,0,0
1,note_on,54,40,0
1,note_on,62,40,0
1,note_on,62,0,1440
1,note_on,54,0,0
1,note_on,66,39,0
1,note_on,71,55,0
1,note_on,71,0,720
1,note_on,70,51,0
1,note_on,70,0,720
1,note_on,66,0,0
1,note_on,61,36,0
1,note_on,67,55,0
1,note_on,67,0,480
1,note_on,66,51,0
1,note_on,66,0,240
1,note_on,66,51,0
1,note_on,66,0,720
1,note_on,61,0,0
1,note_on,64,35,0
1,note_on,66,37,0
1,note_on,74,49,0
1,note_on,74,0,720
1,note_on,73,45,0
1,note_on,73,0,720
1,note_on,66,0,0
1,note_on,64,0,0
1,note_on,62,44,0
1,note_on,66,43,0
1,note_on,71,47,0
1,note_on,71,0,720
1,note_on,66,0,0
1,note_on,62,0,0
1,note_on,66,44,0
1,note_on,70,44,0
1,note_on,70,0,720
1,note_on,66,0,0
1,note_on,78,39,0
1,note_on,83,55,0
1,note_on,83,0,720
1,note_on,82,51,0
1,note_on,82,0,720
1,note_on,78,0,0
1,note_on,73,36,0
1,note_on,79,55,0
1,note_on,79,0,480
1,note_on,78,51,0
1,note_on,78,0,240
1,note_on,78,51,0
1,note_on,78,0,720
1,note_on,73,0,0
1,note_on,76,39,0
1,note_on,78,39,0
1,note_on,86,49,0
1,note_on,86,0,720
1,note_on,85,45,0
1,note_on,85,0,720
1,note_on,78,0,0
1,note_on,76,0,0
1,note_on,74,44,0
1,note_on,78,43,0
1,note_on,83,47,0
1,note_on,83,0,720
1,note_on,78,0,0
1,note_on,74,0,0
1,note_on,78,44,0
1,note_on,82,44,0
1,note_on,82,0,720
1,note_on,78,0,0
1,note_on,76,31,0
1,note_on,83,44,0
1,note_on,83,0,480
1,note_on,82,40,0
1,note_on,82,0,240
1,note_on,82,40,0
1,note_on,82,0,720
1,note_on,76,0,0
1,note_on,64,31,1440
1,note_on,71,44,0
1,note_on,71,0,480
1,note_on,70,40,0
1,note_on,70,0,240
1,note_on,70,40,0
1,note_on,70,0,720
1,note_on,64,0,0
1,note_on,66,45,3840
1,note_on,71,49,0
1,note_on,71,0,240
1,note_on,66,0,0
1,note_on,65,46,0
1,note_on,65,0,240
1,note_on,66,45,0
1,note_on,71,49,0
1,note_on,71,0,480
1,note_on,66,0,0
1,note_on,64,45,0
1,note_on,70,49,0
1,note_on,70,0,240
1,note_on,64,0,0
1,note_on,62,45,240
1,note_on,67,49,0
1,note_on,67,0,240
1,note_on,62,0,0
1,note_on,61,45,0
1,note_on,61,0,240
1,note_on,62,45,0
1,note_on,67,49,0
1,note_on,67,0,480
1,note_on,62,0,0
1,note_on,61,44,0
1,note_on,66,47,0
1,note_on,66,0,240
1,note_on,61,0,0
1,note_on,60,45,240
1,note_on,66,49,0
1,note_on,66,0,240
1,note_on,60,0,0
1,note_on,59,46,0
1,note_on,59,0,240
1,note_on,60,45,0
1,note_on,66,49,0
1,note_on,66,0,480
1,note_on,60,0,0
1,note_on,59,43,0
1,note_on,64,46,0
1,note_on,64,0,240
1,note_on,59,0,0
1,note_on,58,45,240
1,note_on,64,49,0
1,note_on,64,0,240
1,note_on,58,0,0
1,note_on,58,47,240
1,note_on,62,52,0
1,note_on,62,0,240
1,note_on,58,0,0
1,note_on,58,45,240
1,note_on,61,50,0
1,note_on,61,0,240
1,note_on,58,0,0
1,note_on,59,47,0
1,note_on,59,0,240
1,note_on,62,47,720
1,note_on,71,47,0
1,note_on,74,47,0
1,note_on,74,0,120
1,note_on,71,0,0
1,note_on,62,0,0
1,note_on,64,49,120
1,note_on,71,49,0
1,note_on,74,49,0
1,note_on,74,0,120
1,note_on,71,0,0
1,note_on,64,0,0
1,note_on,65,46,120
1,note_on,71,46,0
1,note_on,74,46,0
1,note_on,74,0,120
1,note_on,71,0,0
1,note_on,65,0,0
1,note_on,56,45,840
1,note_on,59,45,0
1,note_on,66,45,0
1,note_on,66,0,120
1,note_on,59,0,0
1,note_on,56,0,0
1,note_on,58,46,120
1,note_on,61,46,0
1,note_on,64,46,0
1,note_on,64,0,120
1,note_on,61,0,0
1,note_on,58,0,0
1,note_on,59,46,120
1,note_on,62,46,0
1,note_on,62,0,120
1,note_on,59,0,0
1,note_on,62,47,840
1,note_on,71,47,0
1,note_on,74,47,0
1,note_on,74,0,120
1,note_on,71,0,0
1,note_on,62,0,0
1,note_on,64,49,120
1,note_on,71,49,0
1,note_on,74,49,0
1,note_on,74,0,120
1,note_on,71,0,0
1,note_on,64,0,0
1,note_on,65,45,120
1,note_on,71,45,0
1,note_on,74,45,0
1,note_on,74,0,120
1,note_on,71,0,0
1,note_on,65,0,0
1,note_on,56,47,840
1,note_on,59,47,0
1,note_on,66,47,0
1,note_on,66,0,120
1,note_on,59,0,0
1,note_on,56,0,0
1,note_on,58,46,120
1,note_on,61,46,0
1,note_on,64,46,0
1,note_on,64,0,120
1,note_on,61,0,0
1,note_on,58,0,0
1,note_on,59,46,120
1,note_on,62,46,0
1,note_on,62,0,120
1,note_on,59,0,0
1,note_on,66,45,120
1,note_on,71,49,0
1,note_on,71,0,240
1,note_on,66,0,0
1,note_on,65,46,0
1,note_on,65,0,240
1,note_on,66,45,0
1,note_on,71,49,0
1,note_on,71,0,480
1,note_on,66,0,0
1,note_on,64,45,0
1,note_on,70,49,0
1,note_on,70,0,240
1,note_on,64,0,0
1,note_on,62,45,240
1,note_on,67,49,0
1,note_on,67,0,240
1,note_on,62,0,0
1,note_on,61,45,0
1,note_on,61,0,240
1,note_on,62,45,0
1,note_on,67,49,0
1,note_on,67,0,480
1,note_on,62,0,0
1,note_on,61,44,0
1,note_on,66,47,0
1,note_on,66,0,240
1,note_on,61,0,0
1,note_on,60,45,240
1,note_on,66,49,0
1,note_on,66,0,240
1,note_on,60,0,0
1,note_on,59,46,0
1,note_on,59,0,240
1,note_on,60,45,0
1,note_on,66,49,0
1,note_on,66,0,480
1,note_on,60,0,0
1,note_on,59,43,0
1,note_on,64,46,0
1,note_on,64,0,240
1,note_on,59,0,0
1,note_on,58,45,240
1,note_on,64,49,0
1,note_on,64,0,240
1,note_on,58,0,0
1,note_on,58,47,240
1,note_on,62,52,0
1,note_on,62,0,240
1,note_on,58,0,0
1,note_on,58,45,240
1,note_on,61,50,0
1,note_on,61,0,240
1,note_on,58,0,0
1,note_on,59,47,0
1,note_on,59,0,240
1,note_on,62,47,720
1,note_on,71,47,0
1,note_on,74,47,0
1,note_on,74,0,120
1,note_on,71,0,0
1,note_on,62,0,0
1,note_on,64,49,120
1,note_on,71,49,0
1,note_on,74,49,0
1,note_on,74,0,120
1,note_on,71,0,0
1,note_on,64,0,0
1,note_on,65,46,120
1,note_on,71,46,0
1,note_on,74,46,0
1,note_on,74,0,120
1,note_on,71,0,0
1,note_on,65,0,0
1,note_on,56,45,840
1,note_on,59,45,0
1,note_on,66,45,0
1,note_on,66,0,120
1,note_on,59,0,0
1,note_on,56,0,0
1,note_on,58,44,120
1,note_on,61,44,0
1,note_on,64,44,0
1,note_on,64,0,120
1,note_on,61,0,0
1,note_on,58,0,0
1,note_on,59,46,120
1,note_on,62,46,0
1,note_on,62,0,120
1,note_on,59,0,0
1,note_on,62,50,840
1,note_on,71,50,0
1,note_on,74,50,0
1,note_on,74,0,120
1,note_on,71,0,0
1,note_on,62,0,0
1,note_on,64,54,120
1,note_on,71,54,0
1,note_on,74,54,0
1,note_on,74,0,120
1,note_on,71,0,0
1,note_on,64,0,0
1,note_on,65,58,120
1,note_on,71,58,0
1,note_on,74,58,0
1,note_on,74,0,480
1,note_on,71,0,0
1,note_on,65,0,0
1,note_on,73,63,0
1,note_on,71,63,0
1,note_on,65,63,0
1,note_on,65,0,480
1,note_on,71,0,0
1,note_on,73,0,0
1,note_on,71,68,0
1,note_on,73,68,0
1,note_on,77,68,0
1,note_on,77,0,480
1,note_on,73,0,0
1,note_on,71,0,0
1,note_on,70,69,0
1,note_on,73,69,0
1,note_on,78,69,0
1,note_on,78,0,180
1,note_on,73,0,0
1,note_on,70,0,0
1,note_on,78,45,60
1,note_on,83,49,0
1,note_on,83,0,240
1,note_on,78,0,0
1,note_on,77,46,0
1,note_on,77,0,240
1,note_on,78,45,0
1,note_on,83,49,0
1,note_on,83,0,480
1,note_on,78,0,0
1,note_on,76,45,0
1,note_on,82,49,0
1,note_on,82,0,240
1,note_on,76,0,0
1,note_on,74,45,240
1,note_on,79,49,0
1,note_on,79,0,240
1,note_on,74,0,0
1,note_on,73,45,0
1,note_on,73,0,240
1,note_on,74,45,0
1,note_on,79,49,0
1,note_on,79,0,480
1,note_on,74,0,0
1,note_on,73,44,0
1,note_on,78,47,0
1,note_on,78,0,240
1,note_on,73,0,0
1,note_on,72,62,240
1,note_on,78,69,0
1,note_on,78,0,240
1,note_on,72,0,0
1,note_on,71,64,0
1,note_on,71,0,240
1,note_on,72,62,0
1,note_on,78,69,0
1,note_on,78,0,240
1,note_on,72,0,0
1,note_on,66,67,0
1,note_on,72,67,0
1,note_on,72,0,240
1,note_on,66,0,0
1,note_on,65,60,0
1,note_on,65,0,240
1,note_on,66,64,0
1,note_on,72,64,0
1,note_on,72,0,240
1,note_on,66,0,0
1,note_on,60,67,0
1,note_on,64,67,0
1,note_on,64,0,240
1,note_on,60,0,0
1,note_on,59,67,0
1,note_on,59,0,240
1,note_on,60,64,0
1,note_on,64,64,0
1,note_on,64,0,240
1,note_on,60,0,0
1,note_on,54,66,240
1,note_on,57,66,0
1,note_on,63,66,0
1,note_on,63,0,120
1,note_on,57,0,0
1,note_on,54,0,0
1,note_on,55,70,120
1,note_on,59,70,0
1,note_on,64,70,0
1,note_on,64,0,120
1,note_on,59,0,0
1,note_on,55,0,0
1,note_on,83,45,120
1,note_on,88,49,0
1,note_on,88,0,240
1,note_on,83,0,0
1,note_on,82,46,0
1,note_on,82,0,240
1,note_on,83,45,0
1,note_on,88,49,0
1,note_on,88,0,480
1,note_on,83,0,0
1,note_on,81,45,0
1,note_on,87,49,0
1,note_on,87,0,240
1,note_on,81,0,0
1,note_on,79,45,240
1,note_on,84,49,0
1,note_on,84,0,240
1,note_on,79,0,0
1,note_on,78,45,0
1,note_on,78,0,240
1,note_on,79,45,0
1,note_on,84,49,0
1,note_on,84,0,480
1,note_on,79,0,0
1,note_on,78,44,0
1,note_on,83,47,0
1,note_on,83,0,240
1,note_on,78,0,0
1,note_on,77,62,240
1,note_on,83,69,0
1,note_on,83,0,240
1,note_on,77,0,0
1,note_on,76,64,0
1,note_on,76,0,240
1,note_on,77,62,0
1,note_on,83,69,0
1,note_on,83,0,240
1,note_on,77,0,0
1,note_on,71,67,0
1,note_on,77,67,0
1,note_on,77,0,240
1,note_on,71,0,0
1,note_on,70,60,0
1,note_on,70,0,240
1,note_on,71,64,0
1,note_on,77,64,0
1,note_on,77,0,240
1,note_on,71,0,0
1,note_on,65,67,0
1,note_on,69,67,0
1,note_on,69,0,240
1,note_on,65,0,0
1,note_on,64,67,0
1,note_on,64,0,240
1,note_on,65,64,0
1,note_on,69,64,0
1,note_on,69,0,240
1,note_on,65,0,0
1,note_on,59,52,240
1,note_on,62,58,0
1,note_on,68,58,0
1,note_on,68,0,240
1,note_on,62,0,0
1,note_on,59,0,0
1,note_on,60,52,0
1,note_on,69,58,0
1,note_on,69,0,240
1,note_on,60,0,0
1,note_on,60,50,0
1,note_on,69,56,0
1,note_on,69,0,480
1,note_on,60,0,0
1,note_on,62,49,0
1,note_on,68,55,0
1,note_on,71,55,0
1,note_on,71,0,480
1,note_on,68,0,0
1,note_on,62,0,0
1,note_on,64,51,0
1,note_on,69,57,0
1,note_on,72,57,0
1,note_on,72,0,240
1,note_on,69,0,0
1,note_on,64,0,0
1,note_on,60,51,240
1,note_on,69,57,0
1,note_on,69,0,480
1,note_on,60,0,0
1,note_on,59,46,0
1,note_on,62,52,0
1,note_on,68,52,0
1,note_on,68,0,480
1,note_on,62,0,0
1,note_on,59,0,0
1,note_on,57,46,0
1,note_on,60,52,0
1,note_on,69,52,0
1,note_on,69,0,240
1,note_on,60,0,0
1,note_on,57,0,0
1,note_on,64,52,240
1,note_on,72,58,0
1,note_on,72,0,480
1,note_on,64,0,0
1,note_on,65,54,0
1,note_on,71,61,0
1,note_on,74,61,0
1,note_on,74,0,480
1,note_on,71,0,0
1,note_on,65,0,0
1,note_on,64,56,0
1,note_on,72,63,0
1,note_on,76,63,0
1,note_on,76,0,240
1,note_on,72,0,0
1,note_on,64,0,0
1,note_on,64,53,240
1,note_on,72,59,0
1,note_on,72,0,480
1,note_on,64,0,0
1,note_on,62,51,0
1,note_on,65,51,0
1,note_on,71,57,0
1,note_on,71,0,480
1,note_on,65,0,0
1,note_on,62,0,0
1,note_on,60,52,0
1,note_on,64,58,0
1,note_on,72,58,0
1,note_on,72,0,240
1,note_on,64,0,0
1,note_on,60,0,0
1,note_on,67,55,240
1,note_on,76,62,0
1,note_on,76,0,480
1,note_on,67,0,0
1,note_on,69,54,0
1,note_on,75,55,0
1,note_on,78,61,0
1,note_on,78,0,480
1,note_on,75,0,0
1,note_on,69,0,0
1,note_on,67,54,0
1,note_on,76,61,0
1,note_on,79,61,0
1,note_on,79,0,240
1,note_on,76,0,0
1,note_on,67,0,0
1,note_on,71,60,240
1,note_on,79,67,0
1,note_on,79,0,480
1,note_on,71,0,0
1,note_on,72,57,0
1,note_on,81,64,0
1,note_on,78,57,0
1,note_on,78,0,480
1,note_on,81,0,0
1,note_on,72,0,0
1,note_on,71,57,0
1,note_on,79,64,0
1,note_on,83,64,0
1,note_on,83,0,240
1,note_on,79,0,0
1,note_on,71,0,0
1,note_on,74,62,240
1,note_on,83,69,0
1,note_on,83,0,480
1,note_on,74,0,0
1,note_on,85,66,0
1,note_on,82,59,0
1,note_on,76,59,0
1,note_on,76,0,480
1,note_on,82,0,0
1,note_on,85,0,0
1,note_on,86,68,0
1,note_on,83,68,0
1,note_on,74,61,0
1,note_on,74,0,240
1,note_on,83,0,0
1,note_on,86,0,0
1,note_on,86,76,240
1,note_on,78,68,0
1,note_on,78,0,480
1,note_on,86,0,0
1,note_on,88,74,0
1,note_on,85,66,0
1,note_on,79,66,0
1,note_on,79,0,480
1,note_on,85,0,0
1,note_on,88,0,0
1,note_on,90,79,0
1,note_on,86,79,0
1,note_on,78,70,0
1,note_on,78,0,240
1,note_on,86,0,0
1,note_on,90,0,0
1,note_on,78,74,240
1,note_on,86,83,0
1,note_on,90,83,0
1,note_on,90,0,480
1,note_on,86,0,0
1,note_on,78,0,0
1,note_on,78,71,0
1,note_on,86,80,0
1,note_on,90,80,0
1,note_on,90,0,480
1,note_on,86,0,0
1,note_on,78,0,0
1,note_on,90,81,0
1,note_on,86,81,0
1,note_on,78,72,0
1,note_on,78,0,480
1,note_on,86,0,0
1,note_on,90,0,0
1,note_on,88,82,0
1,note_on,90,82,0
1,note_on,78,73,0
1,note_on,78,0,480
1,note_on,90,0,0
1,note_on,88,0,0
1,note_on,78,69,0
1,note_on,88,78,0
1,note_on,90,78,0
1,note_on,90,0,480
1,note_on,88,0,0
1,note_on,78,0,0
1,note_on,78,70,0
1,note_on,88,79,0
1,note_on,90,79,0
1,note_on,90,0,480
1,note_on,88,0,0
1,note_on,78,0,0
1,note_on,78,79,0
1,note_on,70,70,0
1,note_on,76,79,0
1,note_on,76,0,480
1,note_on,70,0,0
1,note_on,78,0,0
1,note_on,70,70,0
1,note_on,78,79,0
1,note_on,76,79,0
1,note_on,76,0,480
1,note_on,78,0,0
1,note_on,70,0,0
1,note_on,70,69,0
1,note_on,76,77,0
1,note_on,78,77,0
1,note_on,78,0,480
1,note_on,76,0,0
1,note_on,70,0,0
1,note_on,58,63,0
1,note_on,66,70,0
1,note_on,64,70,0
1,note_on,64,0,480
1,note_on,66,0,0
1,note_on,58,0,0
1,note_on,58,63,0
1,note_on,64,70,0
1,note_on,66,70,0
1,note_on,66,0,480
1,note_on,64,0,0
1,note_on,58,0,0
1,note_on,58,62,0
1,note_on,66,69,0
1,note_on,64,69,0
1,note_on,64,0,420
1,note_on,66,0,0
1,note_on,58,0,0
1,note_on,66,45,60
1,note_on,71,49,0
1,note_on,71,0,240
1,note_on,66,0,0
1,note_on,65,46,0
1,note_on,65,0,240
1,note_on,66,45,0
1,note_on,71,49,0
1,note_on,71,0,480
1,note_on,66,0,0
1,note_on,64,45,0
1,note_on,70,49,0
1,note_on,70,0,240
1,note_on,64,0,0
1,note_on,62,45,240
1,note_on,67,49,0
1,note_on,67,0,240
1,note_on,62,0,0
1,note_on,61,45,0
1,note_on,61,0,240
1,note_on,62,45,0
1,note_on,67,49,0
1,note_on,67,0,480
1,note_on,62,0,0
1,note_on,61,44,0
1,note_on,66,47,0
1,note_on,66,0,240
1,note_on,61,0,0
1,note_on,60,45,240
1,note_on,66,49,0
1,note_on,66,0,240
1,note_on,60,0,0
1,note_on,59,46,0
1,note_on,59,0,240
1,note_on,60,45,0
1,note_on,66,49,0
1,note_on,66,0,480
1,note_on,60,0,0
1,note_on,59,43,0
1,note_on,64,46,0
1,note_on,64,0,240
1,note_on,59,0,0
1,note_on,58,45,240
1,note_on,64,49,0
1,note_on,64,0,240
1,note_on,58,0,0
1,note_on,58,47,240
1,note_on,62,52,0
1,note_on,62,0,240
1,note_on,58,0,0
1,note_on,58,45,240
1,note_on,61,50,0
1,note_on,61,0,240
1,note_on,58,0,0
1,note_on,59,47,0
1,note_on,59,0,240
1,note_on,62,47,720
1,note_on,71,47,0
1,note_on,74,47,0
1,note_on,74,0,120
1,note_on,71,0,0
1,note_on,62,0,0
1,note_on,64,49,120
1,note_on,71,49,0
1,note_on,74,49,0
1,note_on,74,0,120
1,note_on,71,0,0
1,note_on,64,0,0
1,note_on,65,46,120
1,note_on,71,46,0
1,note_on,74,46,0
1,note_on,74,0,120
1,note_on,71,0,0
1,note_on,65,0,0
1,note_on,56,45,840
1,note_on,59,45,0
1,note_on,66,45,0
1,note_on,66,0,120
1,note_on,59,0,0
1,note_on,56,0,0
1,note_on,58,46,120
1,note_on,61,46,0
1,note_on,64,46,0
1,note_on,64,0,120
1,note_on,61,0,0
1,note_on,58,0,0
1,note_on,59,46,120
1,note_on,62,46,0
1,note_on,62,0,120
1,note_on,59,0,0
1,note_on,62,47,840
1,note_on,71,47,0
1,note_on,74,47,0
1,note_on,74,0,120
1,note_on,71,0,0
1,note_on,62,0,0
1,note_on,64,49,120
1,note_on,71,49,0
1,note_on,74,49,0
1,note_on,74,0,120
1,note_on,71,0,0
1,note_on,64,0,0
1,note_on,65,45,120
1,note_on,71,45,0
1,note_on,74,45,0
1,note_on,74,0,120
1,note_on,71,0,0
1,note_on,65,0,0
1,note_on,56,47,840
1,note_on,59,47,0
1,note_on,66,47,0
1,note_on,66,0,120
1,note_on,59,0,0
1,note_on,56,0,0
1,note_on,58,46,120
1,note_on,61,46,0
1,note_on,64,46,0
1,note_on,64,0,120
1,note_on,61,0,0
1,note_on,58,0,0
1,note_on,59,46,120
1,note_on,62,46,0
1,note_on,62,0,120
1,note_on,59,0,0
1,note_on,57,47,840
1,note_on,64,47,0
1,note_on,69,47,0
1,note_on,69,0,120
1,note_on,64,0,0
1,note_on,57,0,0
1,note_on,57,46,120
1,note_on,64,46,0
1,note_on,67,46,0
1,note_on,67,0,120
1,note_on,64,0,0
1,note_on,57,0,0
1,note_on,57,47,120
1,note_on,62,47,0
1,note_on,66,47,0
1,note_on,66,0,120
1,note_on,62,0,0
1,note_on,57,0,0
1,note_on,61,55,840
1,note_on,68,55,0
1,note_on,73,55,0
1,note_on,73,0,120
1,note_on,68,0,0
1,note_on,61,0,0
1,note_on,61,55,120
1,note_on,68,55,0
1,note_on,71,55,0
1,note_on,71,0,120
1,note_on,68,0,0
1,note_on,61,0,0
1,note_on,61,55,120
1,note_on,66,55,0
1,note_on,70,55,0
1,note_on,70,0,120
1,note_on,66,0,0
1,note_on,61,0,0
1,note_on,73,66,120
1,note_on,78,66,0
1,note_on,78,0,240
1,note_on,76,66,0
1,note_on,76,0,240
1,note_on,73,0,0
1,note_on,71,64,0
1,note_on,74,64,0
1,note_on,74,0,240
1,note_on,71,0,0
1,note_on,73,72,0
1,note_on,78,72,0
1,note_on,78,0,240
1,note_on,76,69,0
1,note_on,76,0,240
1,note_on,73,0,0
1,note_on,71,70,0
1,note_on,74,70,0
1,note_on,74,0,240
1,note_on,71,0,0
1,note_on,73,77,0
1,note_on,78,77,0
1,note_on,78,0,240
1,note_on,76,78,0
1,note_on,76,0,240
1,note_on,73,0,0
1,note_on,71,80,0
1,note_on,74,80,0
1,note_on,74,0,240
1,note_on,71,0,0
1,note_on,78,82,0
1,note_on,73,82,0
1,note_on,73,0,120
1,note_on,78,0,0
1,note_on,71,78,120
1,note_on,74,78,0
1,note_on,74,0,120
1,note_on,71,0,0
1,note_on,67,74,120
1,note_on,71,74,0
1,note_on,76,88,0
1,note_on,79,88,0
1,note_on,79,0,720
1,note_on,67,0,0
1,note_on,71,0,0
1,note_on,76,0,0
1,note_on,64,64,480
1,note_on,64,0,120
1,note_on,67,63,0
1,note_on,67,0,120
1,note_on,76,61,0
1,note_on,76,0,120
1,note_on,73,60,0
1,note_on,73,0,120
1,note_on,71,59,0
1,note_on,71,0,120
1,note_on,67,58,0
1,note_on,67,0,120
1,note_on,64,56,0
1,note_on,64,0,120
1,note_on,49,58,480
1,note_on,49,0,120
1,note_on,47,58,0
1,note_on,47,0,120
1,note_on,43,58,0
1,note_on,43,0,120
1,note_on,55,56,480
1,note_on,59,56,0
1,note_on,64,56,0
1,note_on,64,0,120
1,note_on,59,0,0
1,note_on,55,0,0
1,note_on,67,63,600
1,note_on,67,0,120
1,note_on,71,63,0
1,note_on,71,0,120
1,note_on,79,61,0
1,note_on,79,0,120
1,note_on,76,60,0
1,note_on,76,0,120
1,note_on,73,59,0
1,note_on,73,0,120
1,note_on,71,58,0
1,note_on,71,0,120
1,note_on,67,57,0
1,note_on,67,0,120
1,note_on,52,58,480
1,note_on,52,0,120
1,note_on,49,58,0
1,note_on,49,0,120
1,note_on,47,58,0
1,note_on,47,0,120
1,note_on,71,62,480
1,note_on,59,62,0
1,note_on,64,62,0
1,note_on,67,62,0
1,note_on,67,0,120
1,note_on,71,0,0
1,note_on,59,0,0
1,note_on,64,0,0
1,note_on,59,71,600
1,note_on,59,0,120
1,note_on,62,73,0
1,note_on,62,0,120
1,note_on,66,75,0
1,note_on,66,0,120
1,note_on,71,78,0
1,note_on,71,0,120
1,note_on,62,79,0
1,note_on,74,79,0
1,note_on,74,0,120
1,note_on,62,0,0
1,note_on,66,81,0
1,note_on,78,81,0
1,note_on,78,0,120
1,note_on,66,0,0
1,note_on,71,84,0
1,note_on,83,84,0
1,note_on,83,0,120
1,note_on,71,0,0
1,note_on,74,86,0
1,note_on,86,86,0
1,note_on,86,0,120
1,note_on,74,0,0
1,note_on,90,90,0
1,note_on,78,81,0
1,note_on,78,0,240
1,note_on,90,0,0
1,note_on,64,72,0
1,note_on,76,80,0
1,note_on,79,85,0
1,note_on,91,95,0
1,note_on,91,0,120
1,note_on,64,0,0
1,note_on,76,0,0
1,note_on,79,0,0
1,note_on,61,68,120
1,note_on,73,76,0
1,note_on,76,81,0
1,note_on,88,90,0
1,note_on,88,0,120
1,note_on,61,0,0
1,note_on,73,0,0
1,note_on,76,0,0
1,note_on,62,72,120
1,note_on,74,80,0
1,note_on,90,95,0
1,note_on,78,85,0
1,note_on,78,0,120
1,note_on,62,0,0
1,note_on,74,0,0
1,note_on,90,0,0
1,note_on,59,68,120
1,note_on,71,76,0
1,note_on,74,81,0
1,note_on,86,90,0
1,note_on,86,0,120
1,note_on,59,0,0
1,note_on,71,0,0
1,note_on,74,0,0
1,note_on,61,80,120
1,note_on,73,80,0
1,note_on,88,95,0
1,note_on,76,85,0
1,note_on,76,0,120
1,note_on,61,0,0
1,note_on,73,0,0
1,note_on,88,0,0
1,note_on,58,68,120
1,note_on,70,76,0
1,note_on,73,81,0
1,note_on,85,90,0
1,note_on,85,0,120
1,note_on,58,0,0
1,note_on,70,0,0
1,note_on,73,0,0
1,note_on,59,71,120
1,note_on,71,79,0
1,note_on,86,94,0
1,note_on,74,84,0
1,note_on,74,0,120
1,note_on,59,0,0
1,note_on,71,0,0
1,note_on,86,0,0
1,note_on,54,65,120
1,note_on,66,73,0
1,note_on,70,77,0
1,note_on,82,86,0
1,note_on,82,0,120
1,note_on,54,0,0
1,note_on,66,0,0
1,note_on,70,0,0
1,note_on,71,82,120
1,note_on,83,92,0
1,note_on,83,0,120
1,note_on,71,0,0
1,note_on,78,85,120
1,note_on,66,76,0
1,note_on,66,0,120
1,note_on,78,0,0
1,note_on,67,81,120
1,note_on,79,90,0
1,note_on,79,0,120
1,note_on,67,0,0
1,note_on,64,75,120
1,note_on,76,84,0
1,note_on,76,0,120
1,note_on,64,0,0
1,note_on,66,81,120
1,note_on,78,91,0
1,note_on,78,0,120
1,note_on,66,0,0
1,note_on,62,74,120
1,note_on,74,83,0
1,note_on,74,0,120
1,note_on,62,0,0
1,note_on,64,81,120
1,note_on,76,90,0
1,note_on,76,0,120
1,note_on,64,0,0
1,note_on,61,73,120
1,note_on,73,82,0
1,note_on,73,0,120
1,note_on,61,0,0
1,note_on,62,81,120
1,note_on,74,90,0
1,note_on,74,0,120
1,note_on,62,0,0
1,note_on,58,75,120
1,note_on,70,84,0
1,note_on,70,0,120
1,note_on,58,0,0
1,note_on,59,81,120
1,note_on,71,91,0
1,note_on,71,0,120
1,note_on,59,0,0
1,note_on,54,73,120
1,note_on,66,82,0
1,note_on,66,0,120
1,note_on,54,0,0
1,note_on,55,80,120
1,note_on,67,89,0
1,note_on,67,0,480
1,note_on,55,0,0
1,note_on,61,72,0
1,note_on,64,72,0
1,note_on,70,80,0
1,note_on,70,0,240
1,note_on,64,0,0
1,note_on,61,0,0
1,note_on,62,77,0
1,note_on,66,77,0
1,note_on,71,86,0
1,note_on,71,0,240
1,note_on,66,0,0
1,note_on,62,0,0
1,note_on,61,56,720
1,note_on,73,56,0
1,note_on,74,56,0
1,note_on,74,0,120
1,note_on,73,0,0
1,note_on,61,0,0
1,note_on,62,53,120
1,note_on,73,53,0
1,note_on,74,53,0
1,note_on,74,0,120
1,note_on,73,0,0
1,note_on,62,0,0
1,note_on,64,52,120
1,note_on,73,52,0
1,note_on,74,52,0
1,note_on,74,0,120
1,note_on,73,0,0
1,note_on,64,0,0
1,note_on,56,53,840
1,note_on,59,53,0
1,note_on,66,53,0
1,note_on,66,0,120
1,note_on,59,0,0
1,note_on,56,0,0
1,note_on,58,52,120
1,note_on,61,52,0
1,note_on,66,52,0
1,note_on,66,0,120
1,note_on,61,0,0
1,note_on,58,0,0
1,note_on,66,52,120
1,note_on,59,52,0
1,note_on,62,52,0
1,note_on,62,0,120
1,note_on,59,0,0
1,note_on,66,0,0
1,note_on,61,54,840
1,note_on,73,54,0
1,note_on,74,54,0
1,note_on,74,0,120
1,note_on,73,0,0
1,note_on,61,0,0
1,note_on,62,55,120
1,note_on,73,55,0
1,note_on,74,55,0
1,note_on,74,0,120
1,note_on,73,0,0
1,note_on,62,0,0
1,note_on,64,51,120
1,note_on,73,51,0
1,note_on,74,51,0
1,note_on,74,0,120
1,note_on,73,0,0
1,note_on,64,0,0
1,note_on,56,55,840
1,note_on,59,55,0
1,note_on,66,55,0
1,note_on,66,0,120
1,note_on,59,0,0
1,note_on,56,0,0
1,note_on,58,55,120
1,note_on,61,55,0
1,note_on,66,55,0
1,note_on,66,0,120
1,note_on,61,0,0
1,note_on,58,0,0
1,note_on,59,52,120
1,note_on,62,52,0
1,note_on,66,52,0
1,note_on,66,0,120
1,note_on,62,0,0
1,note_on,59,0,0
1,note_on,62,60,120
1,note_on,66,60,0
1,note_on,71,66,0
1,note_on,71,0,120
1,note_on,66,0,0
1,note_on,62,0,0
1,note_on,62,57,120
1,note_on,66,57,0
1,note_on,70,62,0
1,note_on,70,0,120
1,note_on,66,0,0
1,note_on,62,0,0
1,note_on,62,60,120
1,note_on,66,60,0
1,note_on,71,66,0
1,note_on,71,0,120
1,note_on,66,0,0
1,note_on,62,0,0
1,note_on,66,61,120
1,note_on,71,61,0
1,note_on,74,67,0
1,note_on,74,0,120
1,note_on,71,0,0
1,note_on,66,0,0
1,note_on,66,58,120
1,note_on,71,58,0
1,note_on,73,63,0
1,note_on,73,0,120
1,note_on,71,0,0
1,note_on,66,0,0
1,note_on,66,63,120
1,note_on,71,63,0
1,note_on,74,69,0
1,note_on,74,0,120
1,note_on,71,0,0
1,note_on,66,0,0
1,note_on,71,63,120
1,note_on,74,63,0
1,note_on,78,69,0
1,note_on,78,0,120
1,note_on,74,0,0
1,note_on,71,0,0
1,note_on,71,61,120
1,note_on,74,61,0
1,note_on,77,67,0
1,note_on,77,0,120
1,note_on,74,0,0
1,note_on,71,0,0
1,note_on,71,66,120
1,note_on,74,66,0
1,note_on,78,72,0
1,note_on,78,0,120
1,note_on,74,0,0
1,note_on,71,0,0
1,note_on,74,67,120
1,note_on,78,67,0
1,note_on,83,73,0
1,note_on,83,0,120
1,note_on,78,0,0
1,note_on,74,0,0
1,note_on,74,63,120
1,note_on,78,63,0
1,note_on,82,69,0
1,note_on,82,0,120
1,note_on,78,0,0
1,note_on,74,0,0
1,note_on,74,68,120
1,note_on,78,68,0
1,note_on,83,74,0
1,note_on,83,0,120
1,note_on,78,0,0
1,note_on,74,0,0
1,note_on,78,69,120
1,note_on,83,69,0
1,note_on,86,75,0
1,note_on,86,0,120
1,note_on,83,0,0
1,note_on,78,0,0
1,note_on,78,63,120
1,note_on,83,63,0
1,note_on,85,69,0
1,note_on,85,0,120
1,note_on,83,0,0
1,note_on,78,0,0
1,note_on,78,70,120
1,note_on,83,70,0
1,note_on,86,77,0
1,note_on,86,0,120
1,note_on,83,0,0
1,note_on,78,0,0
1,note_on,83,71,120
1,note_on,86,71,0
1,note_on,90,78,0
1,note_on,90,0,120
1,note_on,86,0,0
1,note_on,83,0,0
1,note_on,83,66,120
1,note_on,86,66,0
1,note_on,89,72,0
1,note_on,89,0,120
1,note_on,86,0,0
1,note_on,83,0,0
1,note_on,83,73,120
1,note_on,86,73,0
1,note_on,90,80,0
1,note_on,90,0,120
1,note_on,86,0,0
1,note_on,83,0,0
1,note_on,86,73,120
1,note_on,90,73,0
1,note_on,95,80,0
1,note_on,95,0,120
1,note_on,90,0,0
1,note_on,86,0,0
1,note_on,86,70,120
1,note_on,90,70,0
1,note_on,94,76,0
1,note_on,94,0,120
1,note_on,90,0,0
1,note_on,86,0,0
1,note_on,86,78,120
1,note_on,90,78,0
1,note_on,95,86,0
1,note_on,95,0,120
1,note_on,90,0,0
1,note_on,86,0,0
1,note_on,86,82,120
1,note_on,90,82,0
1,note_on,95,90,0
1,note_on,95,0,120
1,note_on,90,0,0
1,note_on,86,0,0
1,note_on,86,77,120
1,note_on,90,77,0
1,note_on,94,85,0
1,note_on,94,0,120
1,note_on,90,0,0
1,note_on,86,0,0
1,note_on,86,85,120
1,note_on,90,85,0
1,note_on,95,93,0
1,note_on,95,0,120
1,note_on,90,0,0
1,note_on,86,0,0
1,note_on,74,81,600
1,note_on,78,81,0
1,note_on,83,89,0
1,note_on,83,0,120
1,note_on,78,0,0
1,note_on,74,0,0
1,note_on,62,81,600
1,note_on,66,81,0
1,note_on,71,89,0
1,note_on,71,0,120
1,note_on,66,0,0
1,note_on,62,0,0
1,note_on,62,81,1320
1,note_on,66,81,0
1,note_on,71,89,0
1,note_on,71,0,120
1,note_on,66,0,0
1,note_on,62,0,0
1,note_on,71,80,600
1,note_on,74,80,0
1,note_on,78,89,0
1,note_on,83,89,0
1,note_on,83,0,120
1,note_on,71,0,0
1,note_on,74,0,0
1,note_on,78,0,0
1,note_on,59,94,600
1,note_on,59,0,1440
2,note_on,62,45,960
2,note_on,62,0,240
2,note_on,61,43,0
2,note_on,61,0,240
2,note_on,62,45,0
2,note_on,47,38,163
2,note_on,47,0,240
2,note_on,62,0,0
2,note_on,61,43,0
2,note_on,61,0,225
2,note_on,47,37,0
2,note_on,47,0,240
2,note_on,59,44,0
2,note_on,59,0,137
2,note_on,58,42,0
2,note_on,58,0,240
2,note_on,59,45,0
2,note_on,47,39,149
2,note_on,47,0,240
2,note_on,59,0,0
2,note_on,58,44,0
2,note_on,58,0,229
2,note_on,47,38,0
2,note_on,47,0,240
2,note_on,57,44,0
2,note_on,57,0,160
2,note_on,56,41,0
2,note_on,56,0,240
2,note_on,57,45,0
2,note_on,47,38,126
2,note_on,47,0,240
2,note_on,57,0,0
2,note_on,56,44,0
2,note_on,56,0,229
2,note_on,47,35,0
2,note_on,47,0,240
2,note_on,55,45,0
2,note_on,55,0,217
2,note_on,47,43,0
2,note_on,47,0,240
2,note_on,54,49,0
2,note_on,54,0,126
2,note_on,47,50,0
2,note_on,47,0,240
2,note_on,52,47,0
2,note_on,52,0,223
2,note_on,47,44,0
2,note_on,50,44,0
2,note_on,50,0,240
2,note_on,47,0,0
2,note_on,53,52,0
2,note_on,53,0,120
2,note_on,54,54,120
2,note_on,54,0,120
2,note_on,55,59,120
2,note_on,55,0,651
2,note_on,43,49,0
2,note_on,43,0,223
2,note_on,45,51,0
2,note_on,45,0,120
2,note_on,43,49,120
2,note_on,43,0,120
2,note_on,42,51,120
2,note_on,42,0,646
2,note_on,47,48,0
2,note_on,47,0,224
2,note_on,53,51,0
2,note_on,53,0,120
2,note_on,54,54,120
2,note_on,54,0,120
2,note_on,55,58,120
2,note_on,55,0,634
2,note_on,43,49,0
2,note_on,43,0,231
2,note_on,45,51,0
2,note_on,45,0,120
2,note_on,43,49,120
2,note_on,43,0,120
2,note_on,42,49,120
2,note_on,42,0,623
2,note_on,47,49,0
2,note_on,47,0,109
2,note_on,62,45,120
2,note_on,62,0,114
2,note_on,61,43,0
2,note_on,61,0,240
2,note_on,62,45,0
2,note_on,47,41,156
2,note_on,47,0,240
2,note_on,62,0,0
2,note_on,61,43,0
2,note_on,61,0,235
2,note_on,47,37,0
2,note_on,47,0,240
2,note_on,59,44,0
2,note_on,59,0,137
2,note_on,58,42,0
2,note_on,58,0,240
2,note_on,59,45,0
2,note_on,47,40,149
2,note_on,47,0,240
2,note_on,59,0,0
2,note_on,58,44,0
2,note_on,58,0,226
2,note_on,47,36,0
2,note_on,47,0,240
2,note_on,57,44,0
2,note_on,57,0,160
2,note_on,56,41,0
2,note_on,56,0,240
2,note_on,57,45,0
2,note_on,47,42,126
2,note_on,47,0,240
2,note_on,57,0,0
2,note_on,56,44,0
2,note_on,56,0,226
2,note_on,47,38,0
2,note_on,47,0,240
2,note_on,55,45,0
2,note_on,55,0,217
2,note_on,47,43,0
2,note_on,47,0,240
2,note_on,54,49,0
2,note_on,54,0,126
2,note_on,47,50,0
2,note_on,47,0,240
2,note_on,52,47,0
2,note_on,52,0,240
2,note_on,50,44,0
2,note_on,47,44,0
2,note_on,47,0,236
2,note_on,50,0,0
2,note_on,53,52,0
2,note_on,53,0,120
2,note_on,54,54,120
2,note_on,54,0,120
2,note_on,55,59,120
2,note_on,55,0,623
2,note_on,43,49,0
2,note_on,43,0,224
2,note_on,45,51,0
2,note_on,45,0,120
2,note_on,43,49,120
2,note_on,43,0,120
2,note_on,42,51,120
2,note_on,42,0,646
2,note_on,47,48,0
2,note_on,47,0,230
2,note_on,53,51,0
2,note_on,53,0,120
2,note_on,54,54,120
2,note_on,54,0,120
2,note_on,55,60,120
2,note_on,55,0,231
2,note_on,56,66,0
2,note_on,56,0,176
2,note_on,61,66,0
2,note_on,61,0,116
2,note_on,68,68,0
2,note_on,68,0,240
2,note_on,66,61,0
2,note_on,66,0,163
2,note_on,74,45,60
2,note_on,74,0,91
2,note_on,73,43,0
2,note_on,73,0,240
2,note_on,74,45,0
2,note_on,66,36,146
2,note_on,66,0,240
2,note_on,74,0,0
2,note_on,73,43,0
2,note_on,73,0,225
2,note_on,66,33,0
2,note_on,71,44,240
2,note_on,71,0,137
2,note_on,70,42,0
2,note_on,70,0,240
2,note_on,71,45,0
2,note_on,66,0,149
2,note_on,66,39,0
2,note_on,66,0,240
2,note_on,71,0,0
2,note_on,70,44,0
2,note_on,70,0,229
2,note_on,66,37,0
2,note_on,66,0,240
2,note_on,69,60,0
2,note_on,64,60,0
2,note_on,64,0,640
2,note_on,69,0,0
2,note_on,64,53,0
2,note_on,57,53,0
2,note_on,57,0,617
2,note_on,64,0,0
2,note_on,57,53,0
2,note_on,54,53,0
2,note_on,54,0,240
2,note_on,57,0,0
2,note_on,48,53,0
2,note_on,48,0,120
2,note_on,47,46,6
2,note_on,47,0,120
2,note_on,52,53,120
2,note_on,52,0,105
2,note_on,79,50,120
2,note_on,79,0,131
2,note_on,78,48,0
2,note_on,78,0,240
2,note_on,79,50,0
2,note_on,71,46,154
2,note_on,71,0,240
2,note_on,79,0,0
2,note_on,78,48,0
2,note_on,78,0,222
2,note_on,71,43,0
2,note_on,76,49,240
2,note_on,76,0,137
2,note_on,75,47,0
2,note_on,75,0,240
2,note_on,76,50,0
2,note_on,71,0,149
2,note_on,71,44,0
2,note_on,71,0,240
2,note_on,76,0,0
2,note_on,75,49,0
2,note_on,75,0,229
2,note_on,71,38,0
2,note_on,71,0,240
2,note_on,69,60,0
2,note_on,74,60,0
2,note_on,74,0,640
2,note_on,69,0,0
2,note_on,62,53,0
2,note_on,69,53,0
2,note_on,69,0,617
2,note_on,62,0,0
2,note_on,59,53,0
2,note_on,62,53,0
2,note_on,62,0,240
2,note_on,59,0,0
2,note_on,53,53,0
2,note_on,53,0,120
2,note_on,52,40,6
2,note_on,52,0,120
2,note_on,45,47,120
2,note_on,45,0,103
2,note_on,53,37,120
2,note_on,53,0,57
2,note_on,52,37,120
2,note_on,52,0,120
2,note_on,45,43,120
2,note_on,45,0,29
2,note_on,53,37,120
2,note_on,53,0,120
2,note_on,52,37,120
2,note_on,52,0,120
2,note_on,45,43,120
2,note_on,45,0,110
2,note_on,53,37,120
2,note_on,53,0,40
2,note_on,52,37,120
2,note_on,52,0,120
2,note_on,45,43,120
2,note_on,45,0,11
2,note_on,53,38,120
2,note_on,53,0,113
2,note_on,52,38,120
2,note_on,52,0,120
2,note_on,45,45,120
2,note_on,45,0,120
2,note_on,57,39,120
2,note_on,57,0,46
2,note_on,56,39,120
2,note_on,56,0,120
2,note_on,48,48,120
2,note_on,48,0,86
2,note_on,57,44,120
2,note_on,57,0,120
2,note_on,56,44,120
2,note_on,56,0,120
2,note_on,48,47,120
2,note_on,48,0,109
2,note_on,57,44,120
2,note_on,57,0,74
2,note_on,56,44,120
2,note_on,56,0,120
2,note_on,48,47,120
2,note_on,48,0,34
2,note_on,57,43,120
2,note_on,57,0,120
2,note_on,56,43,120
2,note_on,56,0,120
2,note_on,48,49,120
2,note_on,48,0,103
2,note_on,60,44,120
2,note_on,60,0,69
2,note_on,59,44,120
2,note_on,59,0,120
2,note_on,52,48,120
2,note_on,52,0,112
2,note_on,60,43,120
2,note_on,60,0,120
2,note_on,59,43,120
2,note_on,59,0,114
2,note_on,52,49,120
2,note_on,52,0,120
2,note_on,64,44,120
2,note_on,64,0,51
2,note_on,63,44,120
2,note_on,63,0,120
2,note_on,55,51,120
2,note_on,55,0,29
2,note_on,64,46,120
2,note_on,64,0,120
2,note_on,63,47,120
2,note_on,63,0,120
2,note_on,55,51,120
2,note_on,55,0,115
2,note_on,67,46,120
2,note_on,67,0,120
2,note_on,66,46,114
2,note_on,66,0,120
2,note_on,59,54,120
2,note_on,59,0,23
2,note_on,67,49,120
2,note_on,67,0,120
2,note_on,66,51,120
2,note_on,66,0,114
2,note_on,59,57,120
2,note_on,59,0,120
2,note_on,71,53,120
2,note_on,71,0,51
2,note_on,70,51,120
2,note_on,70,0,120
2,note_on,62,62,120
2,note_on,62,0,40
2,note_on,71,52,120
2,note_on,71,0,120
2,note_on,70,61,120
2,note_on,70,0,120
2,note_on,62,49,120
2,note_on,62,0,112
2,note_on,70,62,120
2,note_on,70,0,194
2,note_on,62,48,0
2,note_on,62,0,240
2,note_on,70,61,0
2,note_on,70,0,240
2,note_on,62,48,0
2,note_on,62,0,240
2,note_on,70,61,0
2,note_on,70,0,240
2,note_on,62,48,0
2,note_on,62,0,240
2,note_on,70,61,0
2,note_on,70,0,91
2,note_on,61,48,0
2,note_on,61,0,240
2,note_on,70,58,0
2,note_on,70,0,240
2,note_on,61,46,0
2,note_on,61,0,240
2,note_on,70,57,0
2,note_on,70,0,240
2,note_on,61,46,0
2,note_on,61,0,240
2,note_on,61,57,0
2,note_on,61,0,148
2,note_on,54,46,0
2,note_on,54,0,240
2,note_on,61,56,0
2,note_on,61,0,240
2,note_on,54,42,0
2,note_on,54,0,240
2,note_on,61,57,0
2,note_on,61,0,240
2,note_on,54,44,0
2,note_on,54,0,240
2,note_on,49,50,0
2,note_on,49,0,88
2,note_on,42,40,0
2,note_on,42,0,240
2,note_on,49,50,0
2,note_on,49,0,240
2,note_on,42,41,0
2,note_on,42,0,240
2,note_on,49,49,0
2,note_on,49,0,240
2,note_on,42,41,0
2,note_on,42,0,171
2,note_on,62,45,60
2,note_on,62,0,171
2,note_on,61,43,0
2,note_on,61,0,240
2,note_on,62,45,0
2,note_on,47,40,158
2,note_on,47,0,240
2,note_on,62,0,0
2,note_on,61,43,0
2,note_on,61,0,229
2,note_on,47,36,0
2,note_on,47,0,240
2,note_on,59,44,0
2,note_on,59,0,137
2,note_on,58,42,0
2,note_on,58,0,240
2,note_on,59,45,0
2,note_on,47,39,149
2,note_on,47,0,240
2,note_on,59,0,0
2,note_on,58,44,0
2,note_on,58,0,225
2,note_on,47,36,0
2,note_on,47,0,240
2,note_on,57,44,0
2,note_on,57,0,160
2,note_on,56,41,0
2,note_on,56,0,240
2,note_on,57,45,0
2,note_on,47,40,126
2,note_on,47,0,240
2,note_on,57,0,0
2,note_on,56,44,0
2,note_on,56,0,224
2,note_on,47,37,0
2,note_on,47,0,240
2,note_on,55,45,0
2,note_on,55,0,217
2,note_on,47,43,0
2,note_on,47,0,240
2,note_on,54,49,0
2,note_on,54,0,126
2,note_on,47,50,0
2,note_on,47,0,240
2,note_on,52,47,0
2,note_on,52,0,240
2,note_on,47,44,0
2,note_on,50,44,0
2,note_on,50,0,237
2,note_on,47,0,0
2,note_on,53,52,0
2,note_on,53,0,120
2,note_on,54,54,120
2,note_on,54,0,120
2,note_on,55,59,120
2,note_on,55,0,657
2,note_on,43,49,0
2,note_on,43,0,222
2,note_on,45,51,0
2,note_on,45,0,120
2,note_on,43,49,120
2,note_on,43,0,120
2,note_on,42,51,120
2,note_on,42,0,657
2,note_on,47,48,0
2,note_on,47,0,223
2,note_on,53,51,0
2,note_on,53,0,120
2,note_on,54,54,120
2,note_on,54,0,120
2,note_on,55,58,120
2,note_on,55,0,686
2,note_on,43,49,0
2,note_on,43,0,229
2,note_on,45,54,0
2,note_on,45,0,120
2,note_on,43,51,120
2,note_on,43,0,120
2,note_on,42,52,120
2,note_on,42,0,680
2,note_on,47,49,0
2,note_on,47,0,225
2,note_on,52,55,0
2,note_on,52,0,120
2,note_on,50,52,120
2,note_on,50,0,120
2,note_on,49,51,120
2,note_on,49,0,680
2,note_on,50,50,0
2,note_on,50,0,226
2,note_on,56,58,0
2,note_on,56,0,120
2,note_on,54,56,120
2,note_on,54,0,120
2,note_on,53,55,120
2,note_on,53,0,680
2,note_on,54,52,0
2,note_on,54,0,6
2,note_on,66,56,0
2,note_on,58,56,0
2,note_on,58,0,480
2,note_on,56,60,0
2,note_on,56,0,240
2,note_on,66,0,0
2,note_on,66,60,0
2,note_on,58,60,0
2,note_on,58,0,366
2,note_on,56,65,0
2,note_on,56,0,240
2,note_on,66,0,0
2,note_on,66,65,0
2,note_on,58,65,0
2,note_on,58,0,343
2,note_on,56,71,0
2,note_on,56,0,240
2,note_on,66,0,0
2,note_on,58,72,0
2,note_on,66,72,0
2,note_on,66,0,120
2,note_on,58,0,0
2,note_on,66,69,120
2,note_on,59,69,0
2,note_on,59,0,120
2,note_on,66,0,0
2,note_on,59,63,120
2,note_on,52,63,0
2,note_on,64,75,0
2,note_on,64,0,623
2,note_on,52,0,0
2,note_on,59,0,0
2,note_on,52,54,0
2,note_on,55,56,0
2,note_on,55,0,120
2,note_on,59,57,0
2,note_on,59,0,120
2,note_on,61,59,0
2,note_on,61,0,120
2,note_on,52,0,0
2,note_on,61,57,840
2,note_on,61,0,120
2,note_on,59,57,0
2,note_on,59,0,56
2,note_on,55,56,0
2,note_on,55,0,120
2,note_on,52,56,0
2,note_on,52,0,120
2,note_on,40,57,360
2,note_on,40,0,240
2,note_on,49,57,0
2,note_on,49,0,240
2,note_on,52,53,233
2,note_on,52,0,78
2,note_on,59,55,0
2,note_on,59,0,120
2,note_on,61,56,0
2,note_on,61,0,120
2,note_on,64,58,0
2,note_on,64,0,120
2,note_on,64,58,840
2,note_on,64,0,120
2,note_on,61,57,0
2,note_on,61,0,14
2,note_on,59,56,0
2,note_on,59,0,120
2,note_on,55,56,0
2,note_on,55,0,120
2,note_on,43,60,360
2,note_on,43,0,240
2,note_on,49,57,0
2,note_on,49,0,240
2,note_on,42,63,0
2,note_on,42,0,120
2,note_on,47,65,0
2,note_on,47,0,120
2,note_on,50,68,0
2,note_on,50,0,120
2,note_on,54,70,0
2,note_on,54,0,120
2,note_on,54,75,240
2,note_on,54,0,120
2,note_on,59,77,0
2,note_on,59,0,120
2,note_on,55,70,2153
2,note_on,67,78,0
2,note_on,67,0,120
2,note_on,55,0,0
2,note_on,62,72,120
2,note_on,50,64,0
2,note_on,50,0,120
2,note_on,62,0,0
2,note_on,64,76,120
2,note_on,52,68,0
2,note_on,52,0,120
2,note_on,64,0,0
2,note_on,49,63,120
2,note_on,61,71,0
2,note_on,61,0,120
2,note_on,49,0,0
2,note_on,50,69,120
2,note_on,62,77,0
2,note_on,62,0,120
2,note_on,50,0,0
2,note_on,59,70,120
2,note_on,47,63,0
2,note_on,47,0,120
2,note_on,59,0,0
2,note_on,49,68,120
2,note_on,61,76,0
2,note_on,61,0,120
2,note_on,49,0,0
2,note_on,58,69,120
2,note_on,46,62,0
2,note_on,46,0,120
2,note_on,58,0,0
2,note_on,59,68,120
2,note_on,47,68,0
2,note_on,47,0,120
2,note_on,59,0,0
2,note_on,54,71,120
2,note_on,42,63,0
2,note_on,42,0,120
2,note_on,54,0,0
2,note_on,43,69,120
2,note_on,55,77,0
2,note_on,55,0,120
2,note_on,43,0,0
2,note_on,38,62,120
2,note_on,50,62,0
2,note_on,50,0,120
2,note_on,38,0,0
2,note_on,40,67,120
2,note_on,52,75,0
2,note_on,52,0,354
2,note_on,40,0,0
2,note_on,42,61,0
2,note_on,54,68,0
2,note_on,54,0,143
2,note_on,42,0,0
2,note_on,47,68,0
2,note_on,47,0,227
2,note_on,52,58,0
2,note_on,52,0,120
2,note_on,54,60,120
2,note_on,54,0,120
2,note_on,55,66,120
2,note_on,55,0,223
2,note_on,45,57,0
2,note_on,45,0,120
2,note_on,43,55,120
2,note_on,43,0,120
2,note_on,42,57,120
2,note_on,42,0,657
2,note_on,47,54,0
2,note_on,47,0,221
2,note_on,52,57,0
2,note_on,52,0,120
2,note_on,54,60,120
2,note_on,54,0,120
2,note_on,55,65,120
2,note_on,55,0,219
2,note_on,45,61,0
2,note_on,45,0,120
2,note_on,43,57,120
2,note_on,43,0,120
2,note_on,42,58,120
2,note_on,42,0,651
2,note_on,47,58,0
2,note_on,47,0,120
2,note_on,54,49,120
2,note_on,50,49,0
2,note_on,59,55,0
2,note_on,59,0,51
2,note_on,50,0,0
2,note_on,54,0,0
2,note_on,50,45,120
2,note_on,58,50,0
2,note_on,54,45,0
2,note_on,54,0,120
2,note_on,58,0,0
2,note_on,50,0,0
2,note_on,54,48,120
2,note_on,59,54,0
2,note_on,50,48,0
2,note_on,50,0,120
2,note_on,59,0,0
2,note_on,54,0,0
2,note_on,54,50,120
2,note_on,62,56,0
2,note_on,59,50,0
2,note_on,59,0,117
2,note_on,62,0,0
2,note_on,54,0,0
2,note_on,59,48,120
2,note_on,54,48,0
2,note_on,61,54,0
2,note_on,61,0,120
2,note_on,54,0,0
2,note_on,59,0,0
2,note_on,59,52,120
2,note_on,54,52,0
2,note_on,62,58,0
2,note_on,62,0,120
2,note_on,54,0,0
2,note_on,59,0,0
2,note_on,62,48,120
2,note_on,59,48,0
2,note_on,66,54,0
2,note_on,66,0,62
2,note_on,59,0,0
2,note_on,62,0,0
2,note_on,65,59,120
2,note_on,59,53,0
2,note_on,62,53,0
2,note_on,62,0,120
2,note_on,59,0,0
2,note_on,65,0,0
2,note_on,62,54,120
2,note_on,66,60,0
2,note_on,59,54,0
2,note_on,59,0,120
2,note_on,66,0,0
2,note_on,62,0,0
2,note_on,66,51,120
2,note_on,71,57,0
2,note_on,62,51,0
2,note_on,62,0,17
2,note_on,71,0,0
2,note_on,66,0,0
2,note_on,62,55,120
2,note_on,70,62,0
2,note_on,66,55,0
2,note_on,66,0,120
2,note_on,70,0,0
2,note_on,62,0,0
2,note_on,62,55,120
2,note_on,71,62,0
2,note_on,66,55,0
2,note_on,66,0,120
2,note_on,71,0,0
2,note_on,62,0,0
2,note_on,71,55,120
2,note_on,66,55,0
2,note_on,74,62,0
2,note_on,74,0,54
2,note_on,66,0,0
2,note_on,71,0,0
2,note_on,71,52,120
2,note_on,73,58,0
2,note_on,66,52,0
2,note_on,66,0,120
2,note_on,73,0,0
2,note_on,71,0,0
2,note_on,71,57,120
2,note_on,66,57,0
2,note_on,74,64,0
2,note_on,74,0,120
2,note_on,66,0,0
2,note_on,71,0,0
2,note_on,71,58,120
2,note_on,78,65,0
2,note_on,74,58,0
2,note_on,74,0,50
2,note_on,78,0,0
2,note_on,71,0,0
2,note_on,74,56,120
2,note_on,71,56,0
2,note_on,77,63,0
2,note_on,77,0,120
2,note_on,71,0,0
2,note_on,74,0,0
2,note_on,71,60,120
2,note_on,78,67,0
2,note_on,74,60,0
2,note_on,74,0,120
2,note_on,78,0,0
2,note_on,71,0,0
2,note_on,74,60,0
2,note_on,71,60,0
2,note_on,83,67,0
2,note_on,78,67,0
2,note_on,78,0,29
2,note_on,74,0,0
2,note_on,71,0,0
2,note_on,83,0,0
2,note_on,74,57,120
2,note_on,71,57,0
2,note_on,82,64,0
2,note_on,78,64,0
2,note_on,78,0,120
2,note_on,74,0,0
2,note_on,71,0,0
2,note_on,82,0,0
2,note_on,71,65,120
2,note_on,78,72,0
2,note_on,74,65,0
2,note_on,83,72,0
2,note_on,83,0,120
2,note_on,71,0,0
2,note_on,78,0,0
2,note_on,74,0,0
2,note_on,71,65,120
2,note_on,78,73,0
2,note_on,74,65,0
2,note_on,83,73,0
2,note_on,83,0,29
2,note_on,71,0,0
2,note_on,78,0,0
2,note_on,74,0,0
2,note_on,71,63,120
2,note_on,78,71,0
2,note_on,74,63,0
2,note_on,82,71,0
2,note_on,82,0,120
2,note_on,71,0,0
2,note_on,78,0,0
2,note_on,74,0,0
2,note_on,74,69,120
2,note_on,71,69,0
2,note_on,83,78,0
2,note_on,78,78,0
2,note_on,78,0,120
2,note_on,74,0,0
2,note_on,71,0,0
2,note_on,83,0,0
2,note_on,66,66,600
2,note_on,71,74,0
2,note_on,59,66,0
2,note_on,59,0,111
2,note_on,71,0,0
2,note_on,66,0,0
2,note_on,54,66,593
2,note_on,59,74,0
2,note_on,47,66,0
2,note_on,47,0,120
2,note_on,59,0,0
2,note_on,54,0,0
2,note_on,42,66,600
2,note_on,35,66,0
2,note_on,50,74,0
2,note_on,54,74,0
2,note_on,59,81,0
2,note_on,47,74,0
2,note_on,47,0,120
2,note_on,35,0,0
2,note_on,50,0,0
2,note_on,42,0,0
2,note_on,59,0,0
2,note_on,54,0,0
2,note_on,57,36,219
2,note_on,50,36,0
2,note_on,50,0,1200
2,note_on,57,0,0
2,note_on,49,36,0
2,note_on,57,36,0
2,note_on,49,0,1200
2,note_on,48,36,0
2,note_on,48,0,1280
2,note_on,57,0,0
2,note_on,47,36,0
2,note_on,54,36,0
2,note_on,54,0,1293
2,note_on,56,36,0
2,note_on,56,0,1267
2,note_on,47,0,0
2,note_on,44,36,0
2,note_on,50,36,0
2,note_on,50,0,1293
2,note_on,44,0,0
2,note_on,43,36,0
2,note_on,52,36,0
2,note_on,52,0,1280
2,note_on,43,0,0
2,note_on,42,47,0
2,note_on,45,58,0
2,note_on,45,0,600
2,note_on,47,55,0
2,note_on,47,0,600
2,note_on,42,0,0
2,note_on,45,46,0
2,note_on,49,57,0
2,note_on,49,0,293
2,note_on,50,54,0
2,note_on,50,0,240
2,note_on,50,54,0
2,note_on,50,0,493
2,note_on,45,0,0
2,note_on,44,49,0
2,note_on,52,58,0
2,note_on,52,0,520
2,note_on,54,57,0
2,note_on,54,0,547
2,note_on,44,0,0
2,note_on,50,52,0
2,note_on,55,67,0
2,note_on,55,0,354
2,note_on,56,59,0
2,note_on,56,0,240
2,note_on,56,59,0
2,note_on,56,0,560
2,note_on,50,0,0
2,note_on,49,54,0
2,note_on,56,70,0
2,note_on,56,0,587
2,note_on,57,66,0
2,note_on,57,0,520
2,note_on,49,0,0
2,note_on,54,69,0
2,note_on,59,69,0
2,note_on,59,0,354
2,note_on,60,63,0
2,note_on,60,0,240
2,note_on,60,63,0
2,note_on,60,0,503
2,note_on,54,0,0
2,note_on,52,60,0
2,note_on,61,68,0
2,note_on,61,0,547
2,note_on,66,68,0
2,note_on,66,0,320
2,note_on,64,55,0
2,note_on,64,0,240
2,note_on,52,0,0
2,note_on,52,45,0
2,note_on,62,49,0
2,note_on,62,0,533
2,note_on,52,0,0
2,note_on,57,43,0
2,note_on,61,46,0
2,note_on,61,0,467
2,note_on,57,0,0
2,note_on,57,41,0
2,note_on,49,41,0
2,note_on,49,0,1227
2,note_on,50,41,0
2,note_on,50,0,1293
2,note_on,57,0,0
2,note_on,66,55,0
2,note_on,51,41,0
2,note_on,66,0,587
2,note_on,59,51,0
2,note_on,59,0,720
2,note_on,51,0,0
2,note_on,61,53,0
2,note_on,52,48,0
2,note_on,61,0,333
2,note_on,59,50,0
2,note_on,59,0,240
2,note_on,59,50,0
2,note_on,59,0,507
2,note_on,52,0,0
2,note_on,61,43,0
2,note_on,53,43,0
2,note_on,53,0,1200
2,note_on,54,43,0
2,note_on,54,0,1293
2,note_on,61,0,0
2,note_on,69,57,0
2,note_on,54,43,0
2,note_on,69,0,493
2,note_on,62,53,0
2,note_on,62,0,720
2,note_on,54,0,0
2,note_on,64,55,0
2,note_on,55,50,0
2,note_on,64,0,333
2,note_on,62,52,0
2,note_on,62,0,240
2,note_on,62,52,0
2,note_on,62,0,453
2,note_on,55,0,0
2,note_on,64,47,0
2,note_on,56,47,0
2,note_on,56,0,1200
2,note_on,57,47,0
2,note_on,57,0,1253
2,note_on,64,0,0
2,note_on,66,51,0
2,note_on,58,46,0
2,note_on,58,0,1200
2,note_on,59,47,0
2,note_on,59,0,1293
2,note_on,66,0,0
2,note_on,66,63,0
2,note_on,52,51,0
2,note_on,66,0,480
2,note_on,59,56,0
2,note_on,59,0,720
2,note_on,66,60,0
2,note_on,66,0,333
2,note_on,64,54,0
2,note_on,64,0,240
2,note_on,64,54,0
2,note_on,64,0,720
2,note_on,52,0,0
2,note_on,52,45,0
2,note_on,46,45,0
2,note_on,46,0,1213
2,note_on,45,39,0
2,note_on,45,0,1293
2,note_on,52,0,0
2,note_on,57,36,0
2,note_on,50,36,0
2,note_on,50,0,1173
2,note_on,57,0,0
2,note_on,49,36,0
2,note_on,57,36,0
2,note_on,49,0,1240
2,note_on,48,36,0
2,note_on,48,0,1240
2,note_on,57,0,0
2,note_on,47,36,0
2,note_on,54,36,0
2,note_on,54,0,1120
2,note_on,56,36,0
2,note_on,56,0,1267
2,note_on,47,0,0
2,note_on,44,36,0
2,note_on,50,36,0
2,note_on,50,0,1293
2,note_on,44,0,0
2,note_on,43,36,0
2,note_on,52,36,0
2,note_on,52,0,1240
2,note_on,43,0,0
2,note_on,42,47,0
2,note_on,45,58,0
2,note_on,45,0,547
2,note_on,47,55,0
2,note_on,47,0,507
2,note_on,42,0,0
2,note_on,45,46,0
2,note_on,47,57,0
2,note_on,47,0,293
2,note_on,48,54,0
2,note_on,48,0,240
2,note_on,48,54,0
2,note_on,48,0,514
2,note_on,45,0,0
2,note_on,43,49,0
2,note_on,46,61,0
2,note_on,46,0,520
2,note_on,47,57,0
2,note_on,47,0,520
2,note_on,43,0,0
2,note_on,44,48,0
2,note_on,49,60,0
2,note_on,49,0,293
2,note_on,50,56,0
2,note_on,50,0,240
2,note_on,50,56,0
2,note_on,50,0,560
2,note_on,44,0,0
2,note_on,45,51,0
2,note_on,50,64,0
2,note_on,50,0,520
2,note_on,51,59,0
2,note_on,51,0,493
2,note_on,45,0,0
2,note_on,43,50,0
2,note_on,57,63,0
2,note_on,57,0,293
2,note_on,55,57,0
2,note_on,55,0,240
2,note_on,55,57,0
2,note_on,55,0,533
2,note_on,43,0,0
2,note_on,45,45,0
2,note_on,54,54,0
2,note_on,54,0,293
2,note_on,52,50,0
2,note_on,52,0,240
2,note_on,52,50,0
2,note_on,52,0,533
2,note_on,45,0,0
2,note_on,38,40,0
2,note_on,46,48,0
2,note_on,46,0,293
2,note_on,45,44,0
2,note_on,45,0,240
2,note_on,45,44,0
2,note_on,45,0,547
2,note_on,38,0,0
2,note_on,62,46,0
2,note_on,54,34,0
2,note_on,62,0,493
2,note_on,61,43,0
2,note_on,61,0,533
2,note_on,59,44,0
2,note_on,59,0,573
2,note_on,58,41,0
2,note_on,58,0,547
2,note_on,54,0,0
2,note_on,54,55,0
2,note_on,56,34,0
2,note_on,56,0,560
2,note_on,58,51,0
2,note_on,58,0,547
2,note_on,59,53,0
2,note_on,59,0,333
2,note_on,61,49,0
2,note_on,61,0,240
2,note_on,61,49,0
2,note_on,61,0,573
2,note_on,54,0,0
2,note_on,74,46,0
2,note_on,66,34,0
2,note_on,74,0,493
2,note_on,73,43,0
2,note_on,73,0,493
2,note_on,71,44,0
2,note_on,71,0,333
2,note_on,70,41,0
2,note_on,70,0,240
2,note_on,70,41,0
2,note_on,70,0,537
2,note_on,66,0,0
2,note_on,66,55,0
2,note_on,68,34,0
2,note_on,68,0,640
2,note_on,70,51,0
2,note_on,70,0,520
2,note_on,71,55,0
2,note_on,71,0,333
2,note_on,73,51,0
2,note_on,73,0,240
2,note_on,73,51,0
2,note_on,73,0,573
2,note_on,66,0,0
2,note_on,67,36,0
2,note_on,73,27,0
2,note_on,67,0,493
2,note_on,66,34,0
2,note_on,66,0,594
2,note_on,73,0,0
2,note_on,67,39,0
2,note_on,67,0,320
2,note_on,66,35,0
2,note_on,66,0,240
2,note_on,66,35,0
2,note_on,66,0,627
2,note_on,55,36,0
2,note_on,61,27,0
2,note_on,55,0,493
2,note_on,54,34,0
2,note_on,54,0,594
2,note_on,61,0,0
2,note_on,55,35,0
2,note_on,55,0,320
2,note_on,54,29,0
2,note_on,54,0,240
2,note_on,54,30,0
2,note_on,54,0,573
2,note_on,55,33,0
2,note_on,55,0,320
2,note_on,54,29,0
2,note_on,54,0,240
2,note_on,54,29,0
2,note_on,54,0,573
2,note_on,55,31,0
2,note_on,55,0,320
2,note_on,54,26,0
2,note_on,54,0,240
2,note_on,54,26,0
2,note_on,54,0,240
2,note_on,62,45,0
2,note_on,62,0,240
2,note_on,61,43,0
2,note_on,61,0,240
2,note_on,62,45,0
2,note_on,47,38,160
2,note_on,47,0,240
2,note_on,62,0,0
2,note_on,61,43,0
2,note_on,61,0,230
2,note_on,47,37,0
2,note_on,47,0,240
2,note_on,59,44,0
2,note_on,59,0,137
2,note_on,58,42,0
2,note_on,58,0,240
2,note_on,59,45,0
2,note_on,47,39,149
2,note_on,47,0,240
2,note_on,59,0,0
2,note_on,58,44,0
2,note_on,58,0,229
2,note_on,47,38,0
2,note_on,47,0,240
2,note_on,57,44,0
2,note_on,57,0,160
2,note_on,56,41,0
2,note_on,56,0,240
2,note_on,57,45,0
2,note_on,47,38,126
2,note_on,47,0,240
2,note_on,57,0,0
2,note_on,56,44,0
2,note_on,56,0,225
2,note_on,47,35,0
2,note_on,47,0,240
2,note_on,55,45,0
2,note_on,55,0,217
2,note_on,47,43,0
2,note_on,47,0,240
2,note_on,54,49,0
2,note_on,54,0,126
2,note_on,47,50,0
2,note_on,47,0,240
2,note_on,52,47,0
2,note_on,52,0,223
2,note_on,47,44,0
2,note_on,50,44,0
2,note_on,50,0,240
2,note_on,47,0,0
2,note_on,53,52,0
2,note_on,53,0,120
2,note_on,54,54,120
2,note_on,54,0,120
2,note_on,55,59,120
2,note_on,55,0,657
2,note_on,43,49,0
2,note_on,43,0,235
2,note_on,45,51,0
2,note_on,45,0,120
2,note_on,43,49,120
2,note_on,43,0,120
2,note_on,42,51,120
2,note_on,42,0,657
2,note_on,47,48,0
2,note_on,47,0,222
2,note_on,53,51,0
2,note_on,53,0,120
2,note_on,54,54,120
2,note_on,54,0,120
2,note_on,55,58,120
2,note_on,55,0,686
2,note_on,43,49,0
2,note_on,43,0,222
2,note_on,45,51,0
2,note_on,45,0,120
2,note_on,43,49,120
2,note_on,43,0,120
2,note_on,42,49,120
2,note_on,42,0,680
2,note_on,47,49,0
2,note_on,47,0,116
2,note_on,62,45,120
2,note_on,62,0,114
2,note_on,61,43,0
2,note_on,61,0,240
2,note_on,62,45,0
2,note_on,47,41,156
2,note_on,47,0,240
2,note_on,62,0,0
2,note_on,61,43,0
2,note_on,61,0,224
2,note_on,47,37,0
2,note_on,47,0,240
2,note_on,59,44,0
2,note_on,59,0,137
2,note_on,58,42,0
2,note_on,58,0,240
2,note_on,59,45,0
2,note_on,47,40,149
2,note_on,47,0,240
2,note_on,59,0,0
2,note_on,58,44,0
2,note_on,58,0,229
2,note_on,47,36,0
2,note_on,47,0,240
2,note_on,57,44,0
2,note_on,57,0,160
2,note_on,56,41,0
2,note_on,56,0,240
2,note_on,57,45,0
2,note_on,47,42,126
2,note_on,47,0,240
2,note_on,57,0,0
2,note_on,56,44,0
2,note_on,56,0,224
2,note_on,47,38,0
2,note_on,47,0,240
2,note_on,55,45,0
2,note_on,55,0,217
2,note_on,47,43,0
2,note_on,47,0,240
2,note_on,54,49,0
2,note_on,54,0,126
2,note_on,47,50,0
2,note_on,47,0,240
2,note_on,52,47,0
2,note_on,52,0,234
2,note_on,47,44,0
2,note_on,50,44,0
2,note_on,50,0,240
2,note_on,47,0,0
2,note_on,53,52,0
2,note_on,53,0,120
2,note_on,54,54,120
2,note_on,54,0,120
2,note_on,55,59,120
2,note_on,55,0,657
2,note_on,43,49,0
2,note_on,43,0,233
2,note_on,45,51,0
2,note_on,45,0,120
2,note_on,43,49,120
2,note_on,43,0,120
2,note_on,42,51,120
2,note_on,42,0,657
2,note_on,47,48,0
2,note_on,47,0,230
2,note_on,53,51,0
2,note_on,53,0,120
2,note_on,54,54,120
2,note_on,54,0,120
2,note_on,55,60,120
2,note_on,55,0,226
2,note_on,56,67,0
2,note_on,56,0,176
2,note_on,61,66,0
2,note_on,61,0,116
2,note_on,68,68,0
2,note_on,68,0,240
2,note_on,66,61,0
2,note_on,66,0,172
2,note_on,74,45,60
2,note_on,74,0,157
2,note_on,73,43,0
2,note_on,73,0,240
2,note_on,74,45,0
2,note_on,66,36,114
2,note_on,66,0,240
2,note_on,74,0,0
2,note_on,73,43,0
2,note_on,73,0,229
2,note_on,66,33,0
2,note_on,71,44,240
2,note_on,71,0,137
2,note_on,70,42,0
2,note_on,70,0,240
2,note_on,71,45,0
2,note_on,66,0,149
2,note_on,66,39,0
2,note_on,66,0,240
2,note_on,71,0,0
2,note_on,70,44,0
2,note_on,70,0,224
2,note_on,66,37,0
2,note_on,66,0,240
2,note_on,64,60,0
2,note_on,69,60,0
2,note_on,69,0,640
2,note_on,64,0,0
2,note_on,64,53,0
2,note_on,57,53,0
2,note_on,57,0,606
2,note_on,64,0,0
2,note_on,54,53,0
2,note_on,57,53,0
2,note_on,57,0,240
2,note_on,54,0,0
2,note_on,48,53,0
2,note_on,48,0,120
2,note_on,47,46,6
2,note_on,47,0,120
2,note_on,52,53,120
2,note_on,52,0,110
2,note_on,79,45,120
2,note_on,79,0,69
2,note_on,78,43,0
2,note_on,78,0,240
2,note_on,79,45,0
2,note_on,71,41,152
2,note_on,71,0,240
2,note_on,79,0,0
2,note_on,78,43,0
2,note_on,78,0,232
2,note_on,71,38,0
2,note_on,76,44,240
2,note_on,76,0,160
2,note_on,75,42,0
2,note_on,75,0,240
2,note_on,76,45,0
2,note_on,71,0,149
2,note_on,71,39,0
2,note_on,71,0,240
2,note_on,76,0,0
2,note_on,75,44,0
2,note_on,75,0,222
2,note_on,71,34,0
2,note_on,71,0,240
2,note_on,69,60,0
2,note_on,74,60,0
2,note_on,74,0,640
2,note_on,69,0,0
2,note_on,69,53,0
2,note_on,62,53,0
2,note_on,62,0,617
2,note_on,69,0,0
2,note_on,59,53,0
2,note_on,62,53,0
2,note_on,62,0,240
2,note_on,59,0,0
2,note_on,53,53,0
2,note_on,53,0,120
2,note_on,52,40,6
2,note_on,52,0,120
2,note_on,45,47,120
2,note_on,45,0,109
2,note_on,53,37,120
2,note_on,53,0,57
2,note_on,52,37,120
2,note_on,52,0,120
2,note_on,45,43,120
2,note_on,45,0,23
2,note_on,53,37,120
2,note_on,53,0,120
2,note_on,52,37,120
2,note_on,52,0,120
2,note_on,45,43,120
2,note_on,45,0,103
2,note_on,53,37,120
2,note_on,53,0,40
2,note_on,52,37,120
2,note_on,52,0,120
2,note_on,45,43,120
2,note_on,45,0,69
2,note_on,53,38,120
2,note_on,53,0,120
2,note_on,52,38,120
2,note_on,52,0,114
2,note_on,45,45,120
2,note_on,45,0,120
2,note_on,57,39,120
2,note_on,57,0,46
2,note_on,56,39,120
2,note_on,56,0,120
2,note_on,48,48,120
2,note_on,48,0,66
2,note_on,57,44,120
2,note_on,57,0,120
2,note_on,56,44,120
2,note_on,56,0,120
2,note_on,48,47,120
2,note_on,48,0,103
2,note_on,57,44,120
2,note_on,57,0,74
2,note_on,56,44,120
2,note_on,56,0,120
2,note_on,48,47,120
2,note_on,48,0,44
2,note_on,57,43,120
2,note_on,57,0,120
2,note_on,56,43,120
2,note_on,56,0,113
2,note_on,48,49,120
2,note_on,48,0,120
2,note_on,60,44,120
2,note_on,60,0,69
2,note_on,59,44,120
2,note_on,59,0,120
2,note_on,52,48,120
2,note_on,52,0,34
2,note_on,60,43,120
2,note_on,60,0,120
2,note_on,59,43,120
2,note_on,59,0,114
2,note_on,52,49,120
2,note_on,52,0,120
2,note_on,64,44,120
2,note_on,64,0,51
2,note_on,63,44,120
2,note_on,63,0,120
2,note_on,55,51,120
2,note_on,55,0,47
2,note_on,64,46,120
2,note_on,64,0,120
2,note_on,63,47,0
2,note_on,63,0,120
2,note_on,55,51,120
2,note_on,55,0,120
2,note_on,67,46,120
2,note_on,67,0,120
2,note_on,66,46,114
2,note_on,66,0,120
2,note_on,59,53,120
2,note_on,59,0,56
2,note_on,67,47,120
2,note_on,67,0,120
2,note_on,66,48,120
2,note_on,66,0,114
2,note_on,59,53,120
2,note_on,59,0,120
2,note_on,71,49,120
2,note_on,71,0,51
2,note_on,70,47,120
2,note_on,70,0,120
2,note_on,62,58,120
2,note_on,62,0,46
2,note_on,71,50,120
2,note_on,71,0,120
2,note_on,70,59,120
2,note_on,70,0,120
2,note_on,62,48,120
2,note_on,62,0,112
2,note_on,70,62,120
2,note_on,70,0,234
2,note_on,62,48,0
2,note_on,62,0,240
2,note_on,70,61,0
2,note_on,70,0,240
2,note_on,62,48,0
2,note_on,62,0,240
2,note_on,70,61,0
2,note_on,70,0,240
2,note_on,62,48,0
2,note_on,62,0,240
2,note_on,70,61,0
2,note_on,70,0,91
2,note_on,61,48,0
2,note_on,61,0,240
2,note_on,70,58,0
2,note_on,70,0,240
2,note_on,61,46,0
2,note_on,61,0,240
2,note_on,70,57,0
2,note_on,70,0,240
2,note_on,61,46,0
2,note_on,61,0,240
2,note_on,61,57,0
2,note_on,61,0,149
2,note_on,54,46,0
2,note_on,54,0,240
2,note_on,61,56,0
2,note_on,61,0,240
2,note_on,54,42,0
2,note_on,54,0,240
2,note_on,61,57,0
2,note_on,61,0,240
2,note_on,54,44,0
2,note_on,54,0,240
2,note_on,49,50,0
2,note_on,49,0,160
2,note_on,42,40,0
2,note_on,42,0,240
2,note_on,49,50,0
2,note_on,49,0,240
2,note_on,42,41,0
2,note_on,42,0,240
2,note_on,49,49,0
2,note_on,49,0,240
2,note_on,42,41,0
2,note_on,42,0,180
2,note_on,62,45,60
2,note_on,62,0,60
2,note_on,61,43,0
2,note_on,61,0,240
2,note_on,62,45,0
2,note_on,47,40,146
2,note_on,47,0,240
2,note_on,62,0,0
2,note_on,61,43,0
2,note_on,61,0,229
2,note_on,47,36,0
2,note_on,47,0,240
2,note_on,59,44,0
2,note_on,59,0,137
2,note_on,58,42,0
2,note_on,58,0,240
2,note_on,59,45,0
2,note_on,47,39,149
2,note_on,47,0,240
2,note_on,59,0,0
2,note_on,58,44,0
2,note_on,58,0,232
2,note_on,47,36,0
2,note_on,47,0,240
2,note_on,57,44,0
2,note_on,57,0,160
2,note_on,56,41,0
2,note_on,56,0,240
2,note_on,57,45,0
2,note_on,47,40,126
2,note_on,47,0,240
2,note_on,57,0,0
2,note_on,56,44,0
2,note_on,56,0,226
2,note_on,47,37,0
2,note_on,47,0,240
2,note_on,55,45,0
2,note_on,55,0,217
2,note_on,47,43,0
2,note_on,47,0,240
2,note_on,54,49,0
2,note_on,54,0,126
2,note_on,47,50,0
2,note_on,47,0,240
2,note_on,52,47,0
2,note_on,52,0,240
2,note_on,47,44,0
2,note_on,50,44,0
2,note_on,50,0,233
2,note_on,47,0,0
2,note_on,53,52,0
2,note_on,53,0,120
2,note_on,54,54,120
2,note_on,54,0,120
2,note_on,55,59,120
2,note_on,55,0,657
2,note_on,43,49,0
2,note_on,43,0,225
2,note_on,45,51,0
2,note_on,45,0,120
2,note_on,43,49,120
2,note_on,43,0,120
2,note_on,42,51,120
2,note_on,42,0,657
2,note_on,47,48,0
2,note_on,47,0,226
2,note_on,53,51,0
2,note_on,53,0,120
2,note_on,54,54,120
2,note_on,54,0,120
2,note_on,55,58,120
2,note_on,55,0,686
2,note_on,43,49,0
2,note_on,43,0,223
2,note_on,45,54,0
2,note_on,45,0,120
2,note_on,43,51,120
2,note_on,43,0,120
2,note_on,42,52,120
2,note_on,42,0,680
2,note_on,47,49,0
2,note_on,47,0,222
2,note_on,52,55,0
2,note_on,52,0,120
2,note_on,50,52,120
2,note_on,50,0,120
2,note_on,49,51,120
2,note_on,49,0,680
2,note_on,50,50,0
2,note_on,50,0,229
2,note_on,56,58,0
2,note_on,56,0,120
2,note_on,54,56,120
2,note_on,54,0,120
2,note_on,53,55,120
2,note_on,53,0,680
2,note_on,54,52,0
2,note_on,54,0,6
2,note_on,58,56,0
2,note_on,66,56,0
2,note_on,58,0,480
2,note_on,56,60,0
2,note_on,56,0,240
2,note_on,66,0,0
2,note_on,58,60,0
2,note_on,66,60,0
2,note_on,58,0,366
2,note_on,56,65,0
2,note_on,56,0,240
2,note_on,66,0,0
2,note_on,58,65,0
2,note_on,66,65,0
2,note_on,58,0,343
2,note_on,56,71,0
2,note_on,56,0,206
2,note_on,66,0,0
2,note_on,58,72,0
2,note_on,66,72,0
2,note_on,66,0,120
2,note_on,58,0,0
2,note_on,59,69,120
2,note_on,66,69,0
2,note_on,66,0,120
2,note_on,59,0,0
2,note_on,52,63,120
2,note_on,59,63,0
2,note_on,64,75,0
2,note_on,64,0,623
2,note_on,59,0,0
2,note_on,52,0,0
2,note_on,52,54,0
2,note_on,55,56,55
2,note_on,55,0,120
2,note_on,59,57,0
2,note_on,59,0,120
2,note_on,61,59,0
2,note_on,61,0,120
2,note_on,52,0,0
2,note_on,61,57,840
2,note_on,61,0,120
2,note_on,59,57,0
2,note_on,59,0,67
2,note_on,55,56,0
2,note_on,55,0,120
2,note_on,52,56,0
2,note_on,52,0,120
2,note_on,40,57,360
2,note_on,40,0,240
2,note_on,49,57,0
2,note_on,49,0,240
2,note_on,52,53,233
2,note_on,52,0,78
2,note_on,59,55,0
2,note_on,59,0,120
2,note_on,61,56,0
2,note_on,61,0,120
2,note_on,64,58,0
2,note_on,64,0,120
2,note_on,64,58,840
2,note_on,64,0,120
2,note_on,61,57,0
2,note_on,61,0,62
2,note_on,59,56,0
2,note_on,59,0,120
2,note_on,55,56,0
2,note_on,55,0,120
2,note_on,43,60,360
2,note_on,43,0,240
2,note_on,49,57,0
2,note_on,49,0,240
2,note_on,42,63,0
2,note_on,42,0,120
2,note_on,47,65,0
2,note_on,47,0,120
2,note_on,50,68,0
2,note_on,50,0,120
2,note_on,54,70,0
2,note_on,54,0,120
2,note_on,54,75,240
2,note_on,54,0,120
2,note_on,59,77,0
2,note_on,59,0,120
2,note_on,67,78,2160
2,note_on,55,70,0
2,note_on,55,0,120
2,note_on,67,0,0
2,note_on,50,64,120
2,note_on,62,72,0
2,note_on,62,0,120
2,note_on,50,0,0
2,note_on,52,68,120
2,note_on,64,76,0
2,note_on,64,0,120
2,note_on,52,0,0
2,note_on,49,63,120
2,note_on,61,71,0
2,note_on,61,0,120
2,note_on,49,0,0
2,note_on,50,69,120
2,note_on,62,77,0
2,note_on,62,0,120
2,note_on,50,0,0
2,note_on,47,63,120
2,note_on,59,70,0
2,note_on,59,0,120
2,note_on,47,0,0
2,note_on,49,68,120
2,note_on,61,76,0
2,note_on,61,0,120
2,note_on,49,0,0
2,note_on,46,62,120
2,note_on,58,69,0
2,note_on,58,0,120
2,note_on,46,0,0
2,note_on,47,68,120
2,note_on,59,68,0
2,note_on,59,0,120
2,note_on,47,0,0
2,note_on,42,63,120
2,note_on,54,71,0
2,note_on,54,0,120
2,note_on,42,0,0
2,note_on,43,69,120
2,note_on,55,77,0
2,note_on,55,0,120
2,note_on,43,0,0
2,note_on,38,62,120
2,note_on,50,62,0
2,note_on,50,0,120
2,note_on,38,0,0
2,note_on,40,67,120
2,note_on,52,75,0
2,note_on,52,0,406
2,note_on,40,0,0
2,note_on,42,61,0
2,note_on,54,68,0
2,note_on,54,0,149
2,note_on,42,0,0
2,note_on,47,68,0
2,note_on,47,0,240
2,note_on,52,58,0
2,note_on,52,0,120
2,note_on,54,60,120
2,note_on,54,0,120
2,note_on,55,66,120
2,note_on,55,0,236
2,note_on,45,57,0
2,note_on,45,0,120
2,note_on,43,55,120
2,note_on,43,0,120
2,note_on,42,57,120
2,note_on,42,0,657
2,note_on,47,54,0
2,note_on,47,0,223
2,note_on,52,57,0
2,note_on,52,0,120
2,note_on,54,60,120
2,note_on,54,0,120
2,note_on,55,65,120
2,note_on,55,0,222
2,note_on,45,61,0
2,note_on,45,0,120
2,note_on,43,57,120
2,note_on,43,0,120
2,note_on,42,58,120
2,note_on,42,0,651
2,note_on,47,58,0
2,note_on,47,0,120
2,note_on,50,49,120
2,note_on,54,49,0
2,note_on,59,55,0
2,note_on,59,0,51
2,note_on,54,0,0
2,note_on,50,0,0
2,note_on,50,45,120
2,note_on,54,45,0
2,note_on,58,50,0
2,note_on,58,0,120
2,note_on,54,0,0
2,note_on,50,0,0
2,note_on,50,48,120
2,note_on,54,48,0
2,note_on,59,54,0
2,note_on,59,0,120
2,note_on,54,0,0
2,note_on,50,0,0
2,note_on,54,50,120
2,note_on,59,50,0
2,note_on,62,56,0
2,note_on,62,0,23
2,note_on,59,0,0
2,note_on,54,0,0
2,note_on,54,48,120
2,note_on,59,48,0
2,note_on,61,54,0
2,note_on,61,0,120
2,note_on,59,0,0
2,note_on,54,0,0
2,note_on,54,52,120
2,note_on,59,52,0
2,note_on,62,58,0
2,note_on,62,0,120
2,note_on,59,0,0
2,note_on,54,0,0
2,note_on,66,54,120
2,note_on,62,48,0
2,note_on,59,48,0
2,note_on,59,0,62
2,note_on,62,0,0
2,note_on,66,0,0
2,note_on,65,59,120
2,note_on,62,53,0
2,note_on,59,53,0
2,note_on,59,0,120
2,note_on,62,0,0
2,note_on,65,0,0
2,note_on,66,60,120
2,note_on,62,54,0
2,note_on,59,54,0
2,note_on,59,0,120
2,note_on,62,0,0
2,note_on,66,0,0
2,note_on,62,51,120
2,note_on,66,51,0
2,note_on,71,57,0
2,note_on,71,0,54
2,note_on,66,0,0
2,note_on,62,0,0
2,note_on,62,55,120
2,note_on,66,55,0
2,note_on,70,62,0
2,note_on,70,0,120
2,note_on,66,0,0
2,note_on,62,0,0
2,note_on,62,55,120
2,note_on,66,55,0
2,note_on,71,62,0
2,note_on,71,0,120
2,note_on,66,0,0
2,note_on,62,0,0
2,note_on,66,55,120
2,note_on,71,55,0
2,note_on,74,62,0
2,note_on,74,0,58
2,note_on,71,0,0
2,note_on,66,0,0
2,note_on,66,52,120
2,note_on,71,52,0
2,note_on,73,58,0
2,note_on,73,0,120
2,note_on,71,0,0
2,note_on,66,0,0
2,note_on,66,57,120
2,note_on,71,57,0
2,note_on,74,64,0
2,note_on,74,0,120
2,note_on,71,0,0
2,note_on,66,0,0
2,note_on,71,58,120
2,note_on,74,58,0
2,note_on,78,65,0
2,note_on,78,0,50
2,note_on,74,0,0
2,note_on,71,0,0
2,note_on,71,56,120
2,note_on,74,56,0
2,note_on,77,63,0
2,note_on,77,0,120
2,note_on,74,0,0
2,note_on,71,0,0
2,note_on,71,60,120
2,note_on,74,60,0
2,note_on,78,67,0
2,note_on,78,0,120
2,note_on,74,0,0
2,note_on,71,0,0
2,note_on,71,60,120
2,note_on,74,60,0
2,note_on,78,67,0
2,note_on,83,67,0
2,note_on,83,0,29
2,note_on,71,0,0
2,note_on,74,0,0
2,note_on,78,0,0
2,note_on,71,57,120
2,note_on,74,57,0
2,note_on,78,64,0
2,note_on,82,64,0
2,note_on,82,0,120
2,note_on,71,0,0
2,note_on,74,0,0
2,note_on,78,0,0
2,note_on,71,65,120
2,note_on,74,65,0
2,note_on,78,72,0
2,note_on,83,72,0
2,note_on,83,0,120
2,note_on,71,0,0
2,note_on,74,0,0
2,note_on,78,0,0
2,note_on,71,65,120
2,note_on,74,65,0
2,note_on,78,73,0
2,note_on,83,73,0
2,note_on,83,0,29
2,note_on,71,0,0
2,note_on,74,0,0
2,note_on,78,0,0
2,note_on,71,63,120
2,note_on,74,63,0
2,note_on,78,71,0
2,note_on,82,71,0
2,note_on,82,0,120
2,note_on,71,0,0
2,note_on,74,0,0
2,note_on,78,0,0
2,note_on,71,69,120
2,note_on,74,69,0
2,note_on,78,78,0
2,note_on,83,78,0
2,note_on,83,0,120
2,note_on,71,0,0
2,note_on,74,0,0
2,note_on,78,0,0
2,note_on,59,66,600
2,note_on,66,66,0
2,note_on,71,74,0
2,note_on,71,0,7
2,note_on,66,0,0
2,note_on,59,0,0
2,note_on,47,66,600
2,note_on,54,66,0
2,note_on,59,74,0
2,note_on,59,0,120
2,note_on,54,0,0
2,note_on,47,0,0
2,note_on,35,66,600
2,note_on,42,66,0
2,note_on,47,74,0
2,note_on,50,74,0
2,note_on,54,74,0
2,note_on,59,81,0
2,note_on,59,0,120
2,note_on,42,0,0
2,note_on,47,0,0
2,note_on,35,0,0
2,note_on,54,0,0
2,note_on,50,0,0
2,note_on,47,66,600
2,note_on,54,66,0
2,note_on,59,74,0
2,note_on,59,0,120
2,note_on,54,0,0
2,note_on,47,0,0
2,note_on,47,63,420
2,note_on,54,63,60
2,note_on,59,70,60
2,note_on,62,70,60
2,note_on,62,0,120
2,note_on,47,0,0
2,note_on,54,0,0
2,note_on,59,0,0
2,note_on,35,75,600
2,note_on,47,75,0
2,note_on,47,0,1440
2,note_on,35,0,0
