Track,Message Type,Note,Velocity,Time
1,note_on,68,59,480
1,note_on,63,39,480
1,note_on,63,0,480
1,note_on,68,0,0
1,note_on,70,57,0
1,note_on,63,28,480
1,note_on,68,31,0
1,note_on,68,0,480
1,note_on,63,0,0
1,note_on,70,0,0
1,note_on,72,57,0
1,note_on,72,0,480
1,note_on,73,63,480
1,note_on,63,34,480
1,note_on,67,38,0
1,note_on,67,0,480
1,note_on,63,0,0
1,note_on,73,0,0
1,note_on,72,62,0
1,note_on,67,35,480
1,note_on,63,30,0
1,note_on,63,0,480
1,note_on,67,0,0
1,note_on,72,0,0
1,note_on,70,51,0
1,note_on,70,0,480
1,note_on,72,63,480
1,note_on,68,42,480
1,note_on,63,38,0
1,note_on,63,0,480
1,note_on,68,0,0
1,note_on,72,0,0
1,note_on,73,68,0
1,note_on,63,37,480
1,note_on,68,41,0
1,note_on,68,0,480
1,note_on,63,0,0
1,note_on,73,0,0
1,note_on,75,71,0
1,note_on,75,0,480
1,note_on,77,73,0
1,note_on,77,0,330
1,note_on,68,51,90
1,note_on,74,56,30
1,note_on,79,74,30
1,note_on,79,0,330
1,note_on,74,0,0
1,note_on,68,0,0
1,note_on,68,51,90
1,note_on,74,56,30
1,note_on,80,77,30
1,note_on,80,0,480
1,note_on,74,0,0
1,note_on,68,0,0
1,note_on,75,81,0
1,note_on,72,44,480
1,note_on,68,38,0
1,note_on,63,38,0
1,note_on,63,0,480
1,note_on,68,0,0
1,note_on,72,0,0
1,note_on,72,43,0
1,note_on,68,38,0
1,note_on,63,38,0
1,note_on,63,0,480
1,note_on,75,0,0
1,note_on,72,0,0
1,note_on,68,0,0
1,note_on,78,59,480
1,note_on,78,0,240
1,note_on,77,56,0
1,note_on,77,0,240
1,note_on,75,59,0
1,note_on,75,0,240
1,note_on,78,56,0
1,note_on,78,0,240
1,note_on,77,62,0
1,note_on,77,0,720
1,note_on,73,59,0
1,note_on,73,0,240
1,note_on,70,55,0
1,note_on,70,0,240
1,note_on,65,50,0
1,note_on,65,0,240
1,note_on,76,59,480
1,note_on,76,0,240
1,note_on,75,56,0
1,note_on,75,0,240
1,note_on,73,59,0
1,note_on,73,0,240
1,note_on,76,56,0
1,note_on,76,0,240
1,note_on,75,62,0
1,note_on,75,0,720
1,note_on,72,59,0
1,note_on,72,0,240
1,note_on,68,57,0
1,note_on,68,0,240
1,note_on,63,52,0
1,note_on,63,0,240
1,note_on,60,35,480
1,note_on,63,39,0
1,note_on,68,59,0
1,note_on,63,0,480
1,note_on,60,0,0
1,note_on,60,35,0
1,note_on,63,39,0
1,note_on,63,0,480
1,note_on,60,0,0
1,note_on,68,0,0
1,note_on,67,63,0
1,note_on,60,31,480
1,note_on,65,36,0
1,note_on,65,0,480
1,note_on,60,0,0
1,note_on,67,0,0
1,note_on,60,31,0
1,note_on,65,36,0
1,note_on,68,59,0
1,note_on,68,0,480
1,note_on,65,0,0
1,note_on,60,0,0
1,note_on,70,68,0
1,note_on,62,31,480
1,note_on,68,36,0
1,note_on,70,0,240
1,note_on,71,61,0
1,note_on,71,0,240
1,note_on,68,0,0
1,note_on,62,0,0
1,note_on,62,31,0
1,note_on,68,36,0
1,note_on,70,59,0
1,note_on,70,0,240
1,note_on,71,52,0
1,note_on,71,0,240
1,note_on,68,0,0
1,note_on,62,0,0
1,note_on,67,59,0
1,note_on,61,36,480
1,note_on,63,40,0
1,note_on,63,0,480
1,note_on,61,0,0
1,note_on,61,35,0
1,note_on,63,39,0
1,note_on,63,0,480
1,note_on,61,0,0
1,note_on,67,0,0
1,note_on,68,59,480
1,note_on,63,39,480
1,note_on,63,0,480
1,note_on,68,0,0
1,note_on,70,58,0
1,note_on,63,28,480
1,note_on,68,31,0
1,note_on,68,0,480
1,note_on,63,0,0
1,note_on,70,0,0
1,note_on,72,57,0
1,note_on,72,0,480
1,note_on,73,63,480
1,note_on,63,34,480
1,note_on,67,38,0
1,note_on,67,0,480
1,note_on,63,0,0
1,note_on,73,0,0
1,note_on,72,62,0
1,note_on,67,35,480
1,note_on,63,30,0
1,note_on,63,0,480
1,note_on,67,0,0
1,note_on,72,0,0
1,note_on,70,51,0
1,note_on,70,0,480
1,note_on,72,63,480
1,note_on,68,42,480
1,note_on,63,38,0
1,note_on,63,0,480
1,note_on,68,0,0
1,note_on,72,0,0
1,note_on,73,68,0
1,note_on,63,37,480
1,note_on,68,41,0
1,note_on,68,0,480
1,note_on,63,0,0
1,note_on,73,0,0
1,note_on,75,71,0
1,note_on,75,0,480
1,note_on,77,73,0
1,note_on,77,0,330
1,note_on,68,48,90
1,note_on,74,56,30
1,note_on,79,74,30
1,note_on,79,0,330
1,note_on,74,0,0
1,note_on,68,0,0
1,note_on,68,48,90
1,note_on,74,55,30
1,note_on,80,77,30
1,note_on,80,0,480
1,note_on,74,0,0
1,note_on,68,0,0
1,note_on,75,81,0
1,note_on,63,38,480
1,note_on,68,38,0
1,note_on,72,44,0
1,note_on,72,0,480
1,note_on,68,0,0
1,note_on,63,0,0
1,note_on,63,38,0
1,note_on,68,38,0
1,note_on,72,43,0
1,note_on,72,0,480
1,note_on,75,0,0
1,note_on,63,0,0
1,note_on,68,0,0
1,note_on,78,59,480
1,note_on,78,0,240
1,note_on,77,56,0
1,note_on,77,0,240
1,note_on,75,59,0
1,note_on,75,0,240
1,note_on,78,56,0
1,note_on,78,0,240
1,note_on,77,62,0
1,note_on,77,0,720
1,note_on,73,59,0
1,note_on,73,0,240
1,note_on,70,55,0
1,note_on,70,0,240
1,note_on,65,50,0
1,note_on,65,0,240
1,note_on,80,66,480
1,note_on,80,0,240
1,note_on,79,61,0
1,note_on,79,0,240
1,note_on,77,64,0
1,note_on,77,0,240
1,note_on,80,60,0
1,note_on,80,0,240
1,note_on,79,68,0
1,note_on,79,0,720
1,note_on,76,61,0
1,note_on,76,0,240
1,note_on,72,59,0
1,note_on,72,0,240
1,note_on,67,55,0
1,note_on,67,0,240
1,note_on,74,70,480
1,note_on,66,46,480
1,note_on,72,46,0
1,note_on,72,0,480
1,note_on,66,0,0
1,note_on,74,0,0
1,note_on,76,70,0
1,note_on,67,34,480
1,note_on,72,37,0
1,note_on,72,0,480
1,note_on,67,0,0
1,note_on,76,0,0
1,note_on,79,70,0
1,note_on,79,0,480
1,note_on,74,75,480
1,note_on,65,39,480
1,note_on,71,45,0
1,note_on,71,0,480
1,note_on,65,0,0
1,note_on,74,0,0
1,note_on,76,73,0
1,note_on,67,40,480
1,note_on,64,36,0
1,note_on,76,0,480
1,note_on,72,61,0
1,note_on,72,0,480
1,note_on,64,0,0
1,note_on,67,0,0
1,note_on,74,71,480
1,note_on,72,50,480
1,note_on,66,45,0
1,note_on,66,0,480
1,note_on,72,0,0
1,note_on,74,0,0
1,note_on,76,73,0
1,note_on,67,44,480
1,note_on,72,48,0
1,note_on,72,0,480
1,note_on,67,0,0
1,note_on,76,0,0
1,note_on,79,69,0
1,note_on,79,0,480
1,note_on,74,73,0
1,note_on,65,39,480
1,note_on,71,41,0
1,note_on,74,0,240
1,note_on,76,70,0
1,note_on,76,0,240
1,note_on,71,0,0
1,note_on,65,0,0
1,note_on,65,45,0
1,note_on,71,44,0
1,note_on,74,64,0
1,note_on,74,0,240
1,note_on,76,60,0
1,note_on,76,0,240
1,note_on,71,0,0
1,note_on,65,0,0
1,note_on,72,66,0
1,note_on,72,0,720
1,note_on,76,55,0
1,note_on,76,0,240
1,note_on,75,58,0
1,note_on,75,0,240
1,note_on,76,56,0
1,note_on,76,0,240
1,note_on,72,66,0
1,note_on,72,0,720
1,note_on,76,55,0
1,note_on,76,0,240
1,note_on,75,58,0
1,note_on,75,0,240
1,note_on,76,56,0
1,note_on,76,0,240
1,note_on,72,66,0
1,note_on,72,0,240
1,note_on,76,55,0
1,note_on,76,0,240
1,note_on,75,58,0
1,note_on,75,0,240
1,note_on,76,55,0
1,note_on,76,0,240
1,note_on,72,62,0
1,note_on,72,0,240
1,note_on,76,56,0
1,note_on,76,0,240
1,note_on,75,59,0
1,note_on,75,0,240
1,note_on,76,55,0
1,note_on,76,0,240
1,note_on,72,63,0
1,note_on,72,0,240
1,note_on,76,55,0
1,note_on,76,0,240
1,note_on,75,58,0
1,note_on,75,0,240
1,note_on,76,56,0
1,note_on,76,0,240
1,note_on,73,59,0
1,note_on,73,0,240
1,note_on,77,55,0
1,note_on,77,0,240
1,note_on,76,64,0
1,note_on,76,0,240
1,note_on,77,56,0
1,note_on,77,0,240
1,note_on,73,60,0
1,note_on,73,0,240
1,note_on,77,58,0
1,note_on,77,0,240
1,note_on,76,62,0
1,note_on,76,0,240
1,note_on,77,58,0
1,note_on,73,68,229
1,note_on,77,0,11
1,note_on,73,0,229
1,note_on,77,60,11
1,note_on,77,0,240
1,note_on,76,63,0
1,note_on,76,0,240
1,note_on,77,62,0
1,note_on,77,0,240
1,note_on,71,67,0
1,note_on,77,62,240
1,note_on,76,72,229
1,note_on,77,0,11
1,note_on,76,0,229
1,note_on,77,63,11
1,note_on,77,0,240
1,note_on,80,75,0
1,note_on,80,0,240
1,note_on,79,71,0
1,note_on,79,0,240
1,note_on,71,0,0
1,note_on,75,82,0
1,note_on,75,0,720
1,note_on,76,70,0
1,note_on,76,0,240
1,note_on,79,72,0
1,note_on,79,0,240
1,note_on,84,68,0
1,note_on,84,0,240
1,note_on,69,67,0
1,note_on,75,62,240
1,note_on,75,0,240
1,note_on,74,72,0
1,note_on,74,0,240
1,note_on,75,63,0
1,note_on,75,0,240
1,note_on,78,69,0
1,note_on,78,0,240
1,note_on,77,66,0
1,note_on,77,0,240
1,note_on,69,0,0
1,note_on,72,71,0
1,note_on,72,0,720
1,note_on,73,69,0
1,note_on,73,0,240
1,note_on,77,68,0
1,note_on,77,0,240
1,note_on,82,64,0
1,note_on,82,0,240
1,note_on,69,72,0
1,note_on,69,0,720
1,note_on,70,67,0
1,note_on,70,0,240
1,note_on,73,70,0
1,note_on,73,0,240
1,note_on,80,66,0
1,note_on,80,0,240
1,note_on,79,66,0
1,note_on,79,0,240
1,note_on,77,60,0
1,note_on,77,0,240
1,note_on,75,61,0
1,note_on,75,0,240
1,note_on,74,56,0
1,note_on,74,0,240
1,note_on,77,59,0
1,note_on,77,0,240
1,note_on,75,56,0
1,note_on,75,0,240
1,note_on,73,59,0
1,note_on,73,0,240
1,note_on,77,55,0
1,note_on,77,0,240
1,note_on,76,64,0
1,note_on,76,0,240
1,note_on,77,56,0
1,note_on,77,0,240
1,note_on,73,60,0
1,note_on,73,0,240
1,note_on,77,58,0
1,note_on,77,0,240
1,note_on,76,62,0
1,note_on,76,0,240
1,note_on,77,58,0
1,note_on,73,68,229
1,note_on,77,0,11
1,note_on,73,0,229
1,note_on,77,60,11
1,note_on,77,0,240
1,note_on,76,63,0
1,note_on,76,0,240
1,note_on,77,62,0
1,note_on,77,0,240
1,note_on,71,67,0
1,note_on,77,62,240
1,note_on,76,72,229
1,note_on,77,0,11
1,note_on,76,0,229
1,note_on,77,63,11
1,note_on,77,0,240
1,note_on,80,75,0
1,note_on,80,0,240
1,note_on,79,71,0
1,note_on,79,0,240
1,note_on,71,0,0
1,note_on,75,82,0
1,note_on,75,0,720
1,note_on,76,69,0
1,note_on,76,0,240
1,note_on,79,72,0
1,note_on,79,0,240
1,note_on,84,69,0
1,note_on,84,0,240
1,note_on,69,67,0
1,note_on,75,62,240
1,note_on,75,0,240
1,note_on,74,72,0
1,note_on,74,0,240
1,note_on,75,63,0
1,note_on,75,0,240
1,note_on,78,69,0
1,note_on,78,0,240
1,note_on,77,66,0
1,note_on,77,0,240
1,note_on,69,0,0
1,note_on,72,74,0
1,note_on,72,0,720
1,note_on,73,67,0
1,note_on,73,0,240
1,note_on,77,70,0
1,note_on,77,0,240
1,note_on,82,64,0
1,note_on,82,0,240
1,note_on,69,68,0
1,note_on,69,0,720
1,note_on,70,60,0
1,note_on,70,0,240
1,note_on,72,62,0
1,note_on,72,0,240
1,note_on,73,59,0
1,note_on,73,0,240
1,note_on,66,63,0
1,note_on,66,0,720
1,note_on,67,57,0
1,note_on,67,0,240
1,note_on,69,59,0
1,note_on,69,0,240
1,note_on,70,56,0
1,note_on,70,0,240
1,note_on,68,59,480
1,note_on,63,39,480
1,note_on,63,0,480
1,note_on,68,0,0
1,note_on,70,59,0
1,note_on,63,28,480
1,note_on,68,31,0
1,note_on,68,0,480
1,note_on,63,0,0
1,note_on,70,0,0
1,note_on,72,59,0
1,note_on,72,0,480
1,note_on,73,63,480
1,note_on,63,34,480
1,note_on,67,38,0
1,note_on,67,0,480
1,note_on,63,0,0
1,note_on,73,0,0
1,note_on,72,62,0
1,note_on,67,35,480
1,note_on,63,30,0
1,note_on,63,0,480
1,note_on,67,0,0
1,note_on,72,0,0
1,note_on,70,51,0
1,note_on,70,0,480
1,note_on,72,63,480
1,note_on,68,42,480
1,note_on,63,38,0
1,note_on,63,0,480
1,note_on,68,0,0
1,note_on,72,0,0
1,note_on,73,68,0
1,note_on,63,37,480
1,note_on,68,41,0
1,note_on,68,0,480
1,note_on,63,0,0
1,note_on,73,0,0
1,note_on,75,71,0
1,note_on,75,0,480
1,note_on,77,73,0
1,note_on,77,0,330
1,note_on,68,51,90
1,note_on,74,56,30
1,note_on,79,74,30
1,note_on,79,0,330
1,note_on,74,0,0
1,note_on,68,0,0
1,note_on,68,51,90
1,note_on,74,56,30
1,note_on,80,77,30
1,note_on,80,0,480
1,note_on,74,0,0
1,note_on,68,0,0
1,note_on,75,81,0
1,note_on,63,38,480
1,note_on,68,38,0
1,note_on,72,44,0
1,note_on,72,0,480
1,note_on,68,0,0
1,note_on,63,0,0
1,note_on,63,38,0
1,note_on,68,38,0
1,note_on,72,43,0
1,note_on,72,0,480
1,note_on,75,0,0
1,note_on,63,0,0
1,note_on,68,0,0
1,note_on,78,59,480
1,note_on,78,0,240
1,note_on,77,56,0
1,note_on,77,0,240
1,note_on,75,59,0
1,note_on,75,0,240
1,note_on,78,56,0
1,note_on,78,0,240
1,note_on,77,62,0
1,note_on,77,0,720
1,note_on,73,59,0
1,note_on,73,0,240
1,note_on,70,55,0
1,note_on,70,0,240
1,note_on,65,50,0
1,note_on,65,0,240
1,note_on,76,59,480
1,note_on,76,0,240
1,note_on,75,56,0
1,note_on,75,0,240
1,note_on,73,59,0
1,note_on,73,0,240
1,note_on,76,56,0
1,note_on,76,0,240
1,note_on,75,62,0
1,note_on,75,0,720
1,note_on,72,59,0
1,note_on,72,0,240
1,note_on,68,57,0
1,note_on,68,0,240
1,note_on,63,52,0
1,note_on,63,0,240
1,note_on,60,35,480
1,note_on,63,39,0
1,note_on,68,59,0
1,note_on,63,0,480
1,note_on,60,0,0
1,note_on,60,35,0
1,note_on,63,39,0
1,note_on,63,0,480
1,note_on,60,0,0
1,note_on,68,0,0
1,note_on,67,63,0
1,note_on,60,31,480
1,note_on,65,36,0
1,note_on,65,0,480
1,note_on,60,0,0
1,note_on,67,0,0
1,note_on,60,31,0
1,note_on,65,36,0
1,note_on,68,59,0
1,note_on,68,0,480
1,note_on,65,0,0
1,note_on,60,0,0
1,note_on,70,68,0
1,note_on,62,31,480
1,note_on,68,36,0
1,note_on,70,0,240
1,note_on,71,61,0
1,note_on,71,0,240
1,note_on,68,0,0
1,note_on,62,0,0
1,note_on,62,31,0
1,note_on,68,36,0
1,note_on,70,59,0
1,note_on,70,0,240
1,note_on,71,52,0
1,note_on,71,0,240
1,note_on,68,0,0
1,note_on,62,0,0
1,note_on,67,59,0
1,note_on,61,36,480
1,note_on,63,40,0
1,note_on,63,0,480
1,note_on,61,0,0
1,note_on,61,35,0
1,note_on,63,39,0
1,note_on,63,0,480
1,note_on,61,0,0
1,note_on,67,0,0
1,note_on,68,59,480
1,note_on,63,39,480
1,note_on,63,0,480
1,note_on,68,0,0
1,note_on,70,59,0
1,note_on,63,28,480
1,note_on,68,31,0
1,note_on,68,0,480
1,note_on,63,0,0
1,note_on,70,0,0
1,note_on,72,56,0
1,note_on,72,0,480
1,note_on,73,63,480
1,note_on,63,34,480
1,note_on,67,38,0
1,note_on,67,0,480
1,note_on,63,0,0
1,note_on,73,0,0
1,note_on,72,62,0
1,note_on,67,35,480
1,note_on,63,30,0
1,note_on,63,0,480
1,note_on,67,0,0
1,note_on,72,0,0
1,note_on,70,51,0
1,note_on,70,0,480
1,note_on,72,63,480
1,note_on,68,42,480
1,note_on,63,38,0
1,note_on,63,0,480
1,note_on,68,0,0
1,note_on,72,0,0
1,note_on,73,68,0
1,note_on,63,37,480
1,note_on,68,41,0
1,note_on,68,0,480
1,note_on,63,0,0
1,note_on,73,0,0
1,note_on,75,71,0
1,note_on,75,0,480
1,note_on,77,73,0
1,note_on,77,0,330
1,note_on,68,48,90
1,note_on,74,56,30
1,note_on,79,74,30
1,note_on,79,0,330
1,note_on,74,0,0
1,note_on,68,0,0
1,note_on,68,48,90
1,note_on,74,55,30
1,note_on,80,77,30
1,note_on,80,0,480
1,note_on,74,0,0
1,note_on,68,0,0
1,note_on,75,81,0
1,note_on,63,38,480
1,note_on,68,38,0
1,note_on,72,44,0
1,note_on,72,0,480
1,note_on,68,0,0
1,note_on,63,0,0
1,note_on,63,38,0
1,note_on,68,38,0
1,note_on,72,43,0
1,note_on,72,0,480
1,note_on,75,0,0
1,note_on,63,0,0
1,note_on,68,0,0
1,note_on,78,59,480
1,note_on,78,0,240
1,note_on,77,56,0
1,note_on,77,0,240
1,note_on,75,59,0
1,note_on,75,0,240
1,note_on,78,56,0
1,note_on,78,0,240
1,note_on,77,62,0
1,note_on,77,0,720
1,note_on,73,59,0
1,note_on,73,0,240
1,note_on,70,55,0
1,note_on,70,0,240
1,note_on,65,50,0
1,note_on,65,0,240
1,note_on,80,66,480
1,note_on,80,0,240
1,note_on,79,61,0
1,note_on,79,0,240
1,note_on,77,64,0
1,note_on,77,0,240
1,note_on,80,60,0
1,note_on,80,0,240
1,note_on,79,68,0
1,note_on,79,0,720
1,note_on,76,61,0
1,note_on,76,0,240
1,note_on,72,59,0
1,note_on,72,0,240
1,note_on,67,55,0
1,note_on,67,0,240
1,note_on,82,70,480
1,note_on,82,0,240
1,note_on,80,64,0
1,note_on,80,0,240
1,note_on,79,69,0
1,note_on,79,0,240
1,note_on,82,63,0
1,note_on,82,0,240
1,note_on,80,72,0
1,note_on,80,0,720
1,note_on,77,64,0
1,note_on,77,0,240
1,note_on,71,62,0
1,note_on,71,0,240
1,note_on,68,58,0
1,note_on,68,0,240
1,note_on,77,64,0
1,note_on,77,0,720
1,note_on,73,58,0
1,note_on,73,0,240
1,note_on,70,56,0
1,note_on,70,0,240
1,note_on,67,51,0
1,note_on,67,0,240
1,note_on,70,58,0
1,note_on,70,0,720
1,note_on,68,51,0
1,note_on,68,0,240
1,note_on,63,49,0
1,note_on,63,0,240
1,note_on,60,46,0
1,note_on,60,0,240
1,note_on,68,51,480
1,note_on,68,0,1920
1,note_on,66,51,0
1,note_on,66,0,1440
1,note_on,64,51,0
1,note_on,64,0,1200
1,note_on,63,46,0
1,note_on,63,0,240
1,note_on,62,49,0
1,note_on,62,0,240
1,note_on,63,47,0
1,note_on,63,0,240
1,note_on,68,51,480
1,note_on,68,0,1920
1,note_on,66,51,0
1,note_on,76,68,1440
1,note_on,76,0,1200
1,note_on,75,56,0
1,note_on,75,0,240
1,note_on,71,59,0
1,note_on,71,0,240
1,note_on,66,0,0
1,note_on,66,55,0
1,note_on,66,0,240
1,note_on,68,51,480
1,note_on,68,0,1920
1,note_on,66,51,0
1,note_on,66,0,1440
1,note_on,64,51,0
1,note_on,64,0,1200
1,note_on,63,46,0
1,note_on,63,0,240
1,note_on,62,49,0
1,note_on,62,0,240
1,note_on,63,47,0
1,note_on,63,0,240
1,note_on,68,51,480
1,note_on,68,0,1920
1,note_on,66,51,0
1,note_on,66,0,1440
1,note_on,67,63,0
1,note_on,67,0,720
1,note_on,75,63,0
1,note_on,75,0,240
1,note_on,71,64,0
1,note_on,71,0,240
1,note_on,70,61,0
1,note_on,70,0,240
1,note_on,68,62,0
1,note_on,68,0,480
1,note_on,69,73,0
1,note_on,69,0,720
1,note_on,73,68,0
1,note_on,73,0,240
1,note_on,78,72,0
1,note_on,78,0,240
1,note_on,81,68,0
1,note_on,81,0,240
1,note_on,73,64,0
1,note_on,68,67,0
1,note_on,80,75,0
1,note_on,80,0,960
1,note_on,68,0,0
1,note_on,66,64,0
1,note_on,78,72,0
1,note_on,78,0,480
1,note_on,66,0,0
1,note_on,73,0,0
1,note_on,59,52,480
1,note_on,66,52,0
1,note_on,69,52,0
1,note_on,71,52,0
1,note_on,71,0,960
1,note_on,59,0,0
1,note_on,66,0,0
1,note_on,69,0,0
1,note_on,61,63,0
1,note_on,66,63,0
1,note_on,69,63,0
1,note_on,73,70,0
1,note_on,73,0,120
1,note_on,61,0,0
1,note_on,66,0,0
1,note_on,69,0,0
1,note_on,63,57,360
1,note_on,66,57,0
1,note_on,69,57,0
1,note_on,75,64,0
1,note_on,75,0,120
1,note_on,63,0,0
1,note_on,66,0,0
1,note_on,69,0,0
1,note_on,64,55,360
1,note_on,68,55,0
1,note_on,76,62,0
1,note_on,76,0,120
1,note_on,68,0,0
1,note_on,64,0,0
1,note_on,66,63,360
1,note_on,66,0,720
1,note_on,65,57,0
1,note_on,65,0,240
1,note_on,68,64,0
1,note_on,68,0,240
1,note_on,66,58,0
1,note_on,66,0,240
1,note_on,75,63,0
1,note_on,75,0,480
1,note_on,73,61,0
1,note_on,73,0,480
1,note_on,71,61,0
1,note_on,71,0,480
1,note_on,59,53,480
1,note_on,64,53,0
1,note_on,71,53,0
1,note_on,71,0,960
1,note_on,64,0,0
1,note_on,59,0,0
1,note_on,56,48,480
1,note_on,64,48,0
1,note_on,68,53,0
1,note_on,68,0,960
1,note_on,64,0,0
1,note_on,56,0,0
1,note_on,69,73,0
1,note_on,69,0,720
1,note_on,73,68,0
1,note_on,73,0,240
1,note_on,78,72,0
1,note_on,78,0,240
1,note_on,81,68,0
1,note_on,81,0,240
1,note_on,73,64,0
1,note_on,68,67,0
1,note_on,80,75,0
1,note_on,80,0,960
1,note_on,68,0,0
1,note_on,66,64,0
1,note_on,78,72,0
1,note_on,78,0,480
1,note_on,66,0,0
1,note_on,73,0,0
1,note_on,59,52,480
1,note_on,66,52,0
1,note_on,69,52,0
1,note_on,71,52,0
1,note_on,71,0,960
1,note_on,59,0,0
1,note_on,66,0,0
1,note_on,69,0,0
1,note_on,61,63,0
1,note_on,66,63,0
1,note_on,69,63,0
1,note_on,73,70,0
1,note_on,73,0,120
1,note_on,61,0,0
1,note_on,66,0,0
1,note_on,69,0,0
1,note_on,63,57,360
1,note_on,66,57,0
1,note_on,69,57,0
1,note_on,75,64,0
1,note_on,75,0,120
1,note_on,63,0,0
1,note_on,66,0,0
1,note_on,69,0,0
1,note_on,64,55,360
1,note_on,68,55,0
1,note_on,76,62,0
1,note_on,76,0,120
1,note_on,68,0,0
1,note_on,64,0,0
1,note_on,66,63,360
1,note_on,66,0,720
1,note_on,65,57,0
1,note_on,65,0,240
1,note_on,68,64,0
1,note_on,68,0,240
1,note_on,66,58,0
1,note_on,66,0,240
1,note_on,75,63,0
1,note_on,75,0,480
1,note_on,73,61,0
1,note_on,73,0,480
1,note_on,71,61,0
1,note_on,71,0,480
1,note_on,59,53,480
1,note_on,64,53,0
1,note_on,71,53,0
1,note_on,71,0,960
1,note_on,64,0,0
1,note_on,59,0,0
1,note_on,64,57,480
1,note_on,66,57,0
1,note_on,70,57,0
1,note_on,70,0,120
1,note_on,66,0,0
1,note_on,64,0,0
1,note_on,63,55,360
1,note_on,66,55,0
1,note_on,71,62,0
1,note_on,71,0,120
1,note_on,66,0,0
1,note_on,63,0,0
1,note_on,68,51,840
1,note_on,68,0,1920
1,note_on,66,51,0
1,note_on,66,0,1440
1,note_on,64,51,0
1,note_on,64,0,1200
1,note_on,63,46,0
1,note_on,63,0,240
1,note_on,62,49,0
1,note_on,62,0,240
1,note_on,63,47,0
1,note_on,63,0,240
1,note_on,68,51,480
1,note_on,68,0,1920
1,note_on,66,51,0
1,note_on,76,68,1440
1,note_on,76,0,1200
1,note_on,75,50,0
1,note_on,75,0,240
1,note_on,71,55,0
1,note_on,71,0,240
1,note_on,66,0,0
1,note_on,66,47,0
1,note_on,66,0,240
1,note_on,68,51,480
1,note_on,68,0,1920
1,note_on,66,51,0
1,note_on,66,0,1440
1,note_on,64,51,0
1,note_on,64,0,1200
1,note_on,63,46,0
1,note_on,63,0,240
1,note_on,62,49,0
1,note_on,62,0,240
1,note_on,63,47,0
1,note_on,63,0,240
1,note_on,68,51,480
1,note_on,68,0,1920
1,note_on,66,56,0
1,note_on,66,0,1440
1,note_on,67,59,0
1,note_on,67,0,1440
1,note_on,68,59,0
1,note_on,68,0,480
1,note_on,70,55,720
1,note_on,70,0,240
1,note_on,71,59,0
1,note_on,71,0,240
1,note_on,70,56,0
1,note_on,70,0,240
1,note_on,73,60,0
1,note_on,73,0,960
1,note_on,71,56,0
1,note_on,71,0,480
1,note_on,74,57,720
1,note_on,74,0,240
1,note_on,76,61,0
1,note_on,76,0,240
1,note_on,74,58,0
1,note_on,74,0,240
1,note_on,76,63,0
1,note_on,76,0,960
1,note_on,75,58,0
1,note_on,75,0,480
1,note_on,70,55,720
1,note_on,70,0,240
1,note_on,71,59,0
1,note_on,71,0,240
1,note_on,70,56,0
1,note_on,70,0,240
1,note_on,73,60,0
1,note_on,73,0,960
1,note_on,71,56,0
1,note_on,71,0,480
1,note_on,74,57,720
1,note_on,74,0,240
1,note_on,76,61,0
1,note_on,76,0,240
1,note_on,74,58,0
1,note_on,74,0,240
1,note_on,76,67,0
1,note_on,76,0,720
1,note_on,75,58,0
1,note_on,75,0,240
1,note_on,74,62,0
1,note_on,74,0,240
1,note_on,75,58,0
1,note_on,75,0,240
1,note_on,76,67,0
1,note_on,76,0,720
1,note_on,75,58,0
1,note_on,75,0,240
1,note_on,74,62,0
1,note_on,74,0,240
1,note_on,75,58,0
1,note_on,75,0,240
1,note_on,82,70,0
1,note_on,82,0,240
1,note_on,80,69,0
1,note_on,80,0,240
1,note_on,79,68,0
1,note_on,79,0,240
1,note_on,76,67,0
1,note_on,76,0,240
1,note_on,75,64,0
1,note_on,75,0,240
1,note_on,73,62,0
1,note_on,73,0,240
1,note_on,76,68,0
1,note_on,76,0,240
1,note_on,75,67,0
1,note_on,75,0,240
1,note_on,73,66,0
1,note_on,73,0,240
1,note_on,71,64,0
1,note_on,71,0,240
1,note_on,70,64,0
1,note_on,70,0,240
1,note_on,68,63,0
1,note_on,68,0,240
1,note_on,67,60,0
1,note_on,67,0,240
1,note_on,68,60,0
1,note_on,68,0,240
1,note_on,69,59,0
1,note_on,69,0,240
1,note_on,70,58,0
1,note_on,70,0,240
1,note_on,71,57,0
1,note_on,71,0,240
1,note_on,72,57,0
1,note_on,72,0,240
1,note_on,73,59,0
1,note_on,73,0,240
1,note_on,72,53,0
1,note_on,72,0,240
1,note_on,75,58,0
1,note_on,75,0,240
1,note_on,73,56,0
1,note_on,73,0,240
1,note_on,72,53,0
1,note_on,72,0,240
1,note_on,70,51,0
1,note_on,70,0,240
1,note_on,68,59,480
1,note_on,63,39,480
1,note_on,63,0,480
1,note_on,68,0,0
1,note_on,70,59,0
1,note_on,63,28,480
1,note_on,68,31,0
1,note_on,68,0,480
1,note_on,63,0,0
1,note_on,70,0,0
1,note_on,72,57,0
1,note_on,72,0,480
1,note_on,73,63,480
1,note_on,63,34,480
1,note_on,67,38,0
1,note_on,67,0,480
1,note_on,63,0,0
1,note_on,73,0,0
1,note_on,72,62,0
1,note_on,67,35,480
1,note_on,63,30,0
1,note_on,63,0,480
1,note_on,67,0,0
1,note_on,72,0,0
1,note_on,70,51,0
1,note_on,70,0,480
1,note_on,72,63,480
1,note_on,68,42,480
1,note_on,63,38,0
1,note_on,63,0,480
1,note_on,68,0,0
1,note_on,72,0,0
1,note_on,73,68,0
1,note_on,63,37,480
1,note_on,68,41,0
1,note_on,68,0,480
1,note_on,63,0,0
1,note_on,73,0,0
1,note_on,75,71,0
1,note_on,75,0,480
1,note_on,77,73,0
1,note_on,77,0,330
1,note_on,68,51,90
1,note_on,74,56,30
1,note_on,79,74,30
1,note_on,79,0,330
1,note_on,74,0,0
1,note_on,68,0,0
1,note_on,68,51,90
1,note_on,74,56,30
1,note_on,80,77,30
1,note_on,80,0,480
1,note_on,74,0,0
1,note_on,68,0,0
1,note_on,75,81,0
1,note_on,63,38,480
1,note_on,68,38,0
1,note_on,72,44,0
1,note_on,72,0,480
1,note_on,68,0,0
1,note_on,63,0,0
1,note_on,63,38,0
1,note_on,68,38,0
1,note_on,72,43,0
1,note_on,72,0,480
1,note_on,75,0,0
1,note_on,63,0,0
1,note_on,68,0,0
1,note_on,78,59,480
1,note_on,78,0,240
1,note_on,77,56,0
1,note_on,77,0,240
1,note_on,75,59,0
1,note_on,75,0,240
1,note_on,78,56,0
1,note_on,78,0,240
1,note_on,77,62,0
1,note_on,77,0,720
1,note_on,73,59,0
1,note_on,73,0,240
1,note_on,70,55,0
1,note_on,70,0,240
1,note_on,65,50,0
1,note_on,65,0,240
1,note_on,76,59,480
1,note_on,76,0,240
1,note_on,75,56,0
1,note_on,75,0,240
1,note_on,73,59,0
1,note_on,73,0,240
1,note_on,76,56,0
1,note_on,76,0,240
1,note_on,75,62,0
1,note_on,75,0,720
1,note_on,72,59,0
1,note_on,72,0,240
1,note_on,68,57,0
1,note_on,68,0,240
1,note_on,63,52,0
1,note_on,63,0,240
1,note_on,60,35,480
1,note_on,63,39,0
1,note_on,68,59,0
1,note_on,63,0,480
1,note_on,60,0,0
1,note_on,60,35,0
1,note_on,63,39,0
1,note_on,63,0,480
1,note_on,60,0,0
1,note_on,68,0,0
1,note_on,67,63,0
1,note_on,60,31,480
1,note_on,65,36,0
1,note_on,65,0,480
1,note_on,60,0,0
1,note_on,67,0,0
1,note_on,60,31,0
1,note_on,65,36,0
1,note_on,68,59,0
1,note_on,68,0,480
1,note_on,65,0,0
1,note_on,60,0,0
1,note_on,70,68,0
1,note_on,62,31,480
1,note_on,68,36,0
1,note_on,70,0,240
1,note_on,71,61,0
1,note_on,71,0,240
1,note_on,68,0,0
1,note_on,62,0,0
1,note_on,62,31,0
1,note_on,68,36,0
1,note_on,70,59,0
1,note_on,70,0,240
1,note_on,71,52,0
1,note_on,71,0,240
1,note_on,68,0,0
1,note_on,62,0,0
1,note_on,67,59,0
1,note_on,61,36,480
1,note_on,63,40,0
1,note_on,63,0,480
1,note_on,61,0,0
1,note_on,61,35,0
1,note_on,63,39,0
1,note_on,63,0,480
1,note_on,61,0,0
1,note_on,67,0,0
1,note_on,68,59,480
1,note_on,63,39,480
1,note_on,63,0,480
1,note_on,68,0,0
1,note_on,70,57,0
1,note_on,63,28,480
1,note_on,68,31,0
1,note_on,68,0,480
1,note_on,63,0,0
1,note_on,70,0,0
1,note_on,72,57,0
1,note_on,72,0,480
1,note_on,73,63,480
1,note_on,63,34,480
1,note_on,67,38,0
1,note_on,67,0,480
1,note_on,63,0,0
1,note_on,73,0,0
1,note_on,72,62,0
1,note_on,67,35,480
1,note_on,63,30,0
1,note_on,63,0,480
1,note_on,67,0,0
1,note_on,72,0,0
1,note_on,70,51,0
1,note_on,70,0,480
1,note_on,72,63,480
1,note_on,68,42,480
1,note_on,63,38,0
1,note_on,63,0,480
1,note_on,68,0,0
1,note_on,72,0,0
1,note_on,73,68,0
1,note_on,63,37,480
1,note_on,68,41,0
1,note_on,68,0,480
1,note_on,63,0,0
1,note_on,73,0,0
1,note_on,75,71,0
1,note_on,75,0,480
1,note_on,77,73,0
1,note_on,77,0,330
1,note_on,68,48,90
1,note_on,74,56,30
1,note_on,79,74,30
1,note_on,79,0,330
1,note_on,74,0,0
1,note_on,68,0,0
1,note_on,68,48,90
1,note_on,74,55,30
1,note_on,80,77,30
1,note_on,80,0,480
1,note_on,74,0,0
1,note_on,68,0,0
1,note_on,75,81,0
1,note_on,63,38,480
1,note_on,68,38,0
1,note_on,72,44,0
1,note_on,72,0,480
1,note_on,68,0,0
1,note_on,63,0,0
1,note_on,63,38,0
1,note_on,68,38,0
1,note_on,72,43,0
1,note_on,72,0,480
1,note_on,75,0,0
1,note_on,63,0,0
1,note_on,68,0,0
1,note_on,78,59,480
1,note_on,78,0,240
1,note_on,77,56,0
1,note_on,77,0,240
1,note_on,75,59,0
1,note_on,75,0,240
1,note_on,78,56,0
1,note_on,78,0,240
1,note_on,77,62,0
1,note_on,77,0,720
1,note_on,73,59,0
1,note_on,73,0,240
1,note_on,70,55,0
1,note_on,70,0,240
1,note_on,65,50,0
1,note_on,65,0,240
1,note_on,80,66,480
1,note_on,80,0,240
1,note_on,79,61,0
1,note_on,79,0,240
1,note_on,77,64,0
1,note_on,77,0,240
1,note_on,80,60,0
1,note_on,80,0,240
1,note_on,79,68,0
1,note_on,79,0,720
1,note_on,76,61,0
1,note_on,76,0,240
1,note_on,72,59,0
1,note_on,72,0,240
1,note_on,67,55,0
1,note_on,67,0,240
1,note_on,74,70,480
1,note_on,66,46,480
1,note_on,72,46,0
1,note_on,72,0,480
1,note_on,66,0,0
1,note_on,74,0,0
1,note_on,76,70,0
1,note_on,67,34,480
1,note_on,72,37,0
1,note_on,72,0,480
1,note_on,67,0,0
1,note_on,76,0,0
1,note_on,79,70,0
1,note_on,79,0,480
1,note_on,74,75,480
1,note_on,65,39,480
1,note_on,71,45,0
1,note_on,71,0,480
1,note_on,65,0,0
1,note_on,74,0,0
1,note_on,76,73,0
1,note_on,67,40,480
1,note_on,64,36,0
1,note_on,76,0,480
1,note_on,72,61,0
1,note_on,72,0,480
1,note_on,64,0,0
1,note_on,67,0,0
1,note_on,74,71,480
1,note_on,72,50,480
1,note_on,66,45,0
1,note_on,66,0,480
1,note_on,72,0,0
1,note_on,74,0,0
1,note_on,76,73,0
1,note_on,67,44,480
1,note_on,72,48,0
1,note_on,72,0,480
1,note_on,67,0,0
1,note_on,76,0,0
1,note_on,79,69,0
1,note_on,79,0,480
1,note_on,74,73,0
1,note_on,65,42,480
1,note_on,71,44,0
1,note_on,74,0,240
1,note_on,76,70,0
1,note_on,76,0,240
1,note_on,71,0,0
1,note_on,65,0,0
1,note_on,65,45,0
1,note_on,71,44,0
1,note_on,74,64,0
1,note_on,74,0,240
1,note_on,76,60,0
1,note_on,76,0,240
1,note_on,71,0,0
1,note_on,65,0,0
1,note_on,72,66,0
1,note_on,72,0,720
1,note_on,76,55,0
1,note_on,76,0,240
1,note_on,75,58,0
1,note_on,75,0,240
1,note_on,76,56,0
1,note_on,76,0,240
1,note_on,72,66,0
1,note_on,72,0,720
1,note_on,76,55,0
1,note_on,76,0,240
1,note_on,75,58,0
1,note_on,75,0,240
1,note_on,76,56,0
1,note_on,76,0,240
1,note_on,72,66,0
1,note_on,72,0,240
1,note_on,76,55,0
1,note_on,76,0,240
1,note_on,75,58,0
1,note_on,75,0,240
1,note_on,76,55,0
1,note_on,76,0,240
1,note_on,72,62,0
1,note_on,72,0,240
1,note_on,76,56,0
1,note_on,76,0,240
1,note_on,75,59,0
1,note_on,75,0,240
1,note_on,76,55,0
1,note_on,76,0,240
1,note_on,72,63,0
1,note_on,72,0,240
1,note_on,76,55,0
1,note_on,76,0,240
1,note_on,75,58,0
1,note_on,75,0,240
1,note_on,76,56,0
1,note_on,76,0,240
1,note_on,73,59,0
1,note_on,73,0,240
1,note_on,77,55,0
1,note_on,77,0,240
1,note_on,76,64,0
1,note_on,76,0,240
1,note_on,77,56,0
1,note_on,77,0,240
1,note_on,73,60,0
1,note_on,73,0,240
1,note_on,77,58,0
1,note_on,77,0,240
1,note_on,76,62,0
1,note_on,76,0,240
1,note_on,77,58,0
1,note_on,73,68,229
1,note_on,77,0,11
1,note_on,73,0,229
1,note_on,77,60,11
1,note_on,77,0,240
1,note_on,76,63,0
1,note_on,76,0,240
1,note_on,77,62,0
1,note_on,77,0,240
1,note_on,71,67,0
1,note_on,77,62,240
1,note_on,76,72,229
1,note_on,77,0,11
1,note_on,76,0,229
1,note_on,77,63,11
1,note_on,77,0,240
1,note_on,80,75,0
1,note_on,80,0,240
1,note_on,79,71,0
1,note_on,79,0,240
1,note_on,71,0,0
1,note_on,75,82,0
1,note_on,75,0,720
1,note_on,76,70,0
1,note_on,76,0,240
1,note_on,79,72,0
1,note_on,79,0,240
1,note_on,84,68,0
1,note_on,84,0,240
1,note_on,69,67,0
1,note_on,75,62,240
1,note_on,75,0,240
1,note_on,74,72,0
1,note_on,74,0,240
1,note_on,75,63,0
1,note_on,75,0,240
1,note_on,78,70,0
1,note_on,78,0,240
1,note_on,77,66,0
1,note_on,77,0,240
1,note_on,69,0,0
1,note_on,72,72,0
1,note_on,72,0,720
1,note_on,73,68,0
1,note_on,73,0,240
1,note_on,77,69,0
1,note_on,77,0,240
1,note_on,82,67,0
1,note_on,82,0,240
1,note_on,69,72,0
1,note_on,69,0,720
1,note_on,70,67,0
1,note_on,70,0,240
1,note_on,73,70,0
1,note_on,73,0,240
1,note_on,80,66,0
1,note_on,80,0,240
1,note_on,79,66,0
1,note_on,79,0,240
1,note_on,77,60,0
1,note_on,77,0,240
1,note_on,75,61,0
1,note_on,75,0,240
1,note_on,74,56,0
1,note_on,74,0,240
1,note_on,77,59,0
1,note_on,77,0,240
1,note_on,75,56,0
1,note_on,75,0,240
1,note_on,73,59,0
1,note_on,73,0,240
1,note_on,77,55,0
1,note_on,77,0,240
1,note_on,76,64,0
1,note_on,76,0,240
1,note_on,77,56,0
1,note_on,77,0,240
1,note_on,73,60,0
1,note_on,73,0,240
1,note_on,77,58,0
1,note_on,77,0,240
1,note_on,76,62,0
1,note_on,76,0,240
1,note_on,77,58,0
1,note_on,73,68,229
1,note_on,77,0,11
1,note_on,73,0,229
1,note_on,77,60,11
1,note_on,77,0,240
1,note_on,76,63,0
1,note_on,76,0,240
1,note_on,77,62,0
1,note_on,77,0,240
1,note_on,71,67,0
1,note_on,77,62,240
1,note_on,76,72,229
1,note_on,77,0,11
1,note_on,76,0,229
1,note_on,77,63,11
1,note_on,77,0,240
1,note_on,80,75,0
1,note_on,80,0,240
1,note_on,79,71,0
1,note_on,79,0,240
1,note_on,71,0,0
1,note_on,75,82,0
1,note_on,75,0,720
1,note_on,76,69,0
1,note_on,76,0,240
1,note_on,79,72,0
1,note_on,79,0,240
1,note_on,84,69,0
1,note_on,84,0,240
1,note_on,69,67,0
1,note_on,75,62,240
1,note_on,75,0,240
1,note_on,74,72,0
1,note_on,74,0,240
1,note_on,75,63,0
1,note_on,75,0,240
1,note_on,78,69,0
1,note_on,78,0,240
1,note_on,77,66,0
1,note_on,77,0,240
1,note_on,69,0,0
1,note_on,72,74,0
1,note_on,72,0,720
1,note_on,73,67,0
1,note_on,73,0,240
1,note_on,77,70,0
1,note_on,77,0,240
1,note_on,82,64,0
1,note_on,82,0,240
1,note_on,69,68,0
1,note_on,69,0,720
1,note_on,70,60,0
1,note_on,70,0,240
1,note_on,72,62,0
1,note_on,72,0,240
1,note_on,73,59,0
1,note_on,73,0,240
1,note_on,66,63,0
1,note_on,66,0,720
1,note_on,67,57,0
1,note_on,67,0,240
1,note_on,69,59,0
1,note_on,69,0,240
1,note_on,70,56,0
1,note_on,70,0,240
1,note_on,68,59,480
1,note_on,63,39,480
1,note_on,63,0,480
1,note_on,68,0,0
1,note_on,70,59,0
1,note_on,63,28,480
1,note_on,68,31,0
1,note_on,68,0,480
1,note_on,63,0,0
1,note_on,70,0,0
1,note_on,72,59,0
1,note_on,72,0,480
1,note_on,73,63,480
1,note_on,63,34,480
1,note_on,67,38,0
1,note_on,67,0,480
1,note_on,63,0,0
1,note_on,73,0,0
1,note_on,72,62,0
1,note_on,67,35,480
1,note_on,63,30,0
1,note_on,63,0,480
1,note_on,67,0,0
1,note_on,72,0,0
1,note_on,70,51,0
1,note_on,70,0,480
1,note_on,72,63,480
1,note_on,68,42,480
1,note_on,63,38,0
1,note_on,63,0,480
1,note_on,68,0,0
1,note_on,72,0,0
1,note_on,73,68,0
1,note_on,63,37,480
1,note_on,68,41,0
1,note_on,68,0,480
1,note_on,63,0,0
1,note_on,73,0,0
1,note_on,75,71,0
1,note_on,75,0,480
1,note_on,77,73,0
1,note_on,77,0,330
1,note_on,68,51,90
1,note_on,74,56,30
1,note_on,79,74,30
1,note_on,79,0,330
1,note_on,74,0,0
1,note_on,68,0,0
1,note_on,68,51,90
1,note_on,74,56,30
1,note_on,80,77,30
1,note_on,80,0,480
1,note_on,74,0,0
1,note_on,68,0,0
1,note_on,75,81,0
1,note_on,63,41,480
1,note_on,68,41,0
1,note_on,72,47,0
1,note_on,72,0,480
1,note_on,68,0,0
1,note_on,63,0,0
1,note_on,63,41,0
1,note_on,68,41,0
1,note_on,72,46,0
1,note_on,72,0,480
1,note_on,75,0,0
1,note_on,63,0,0
1,note_on,68,0,0
1,note_on,78,59,480
1,note_on,78,0,240
1,note_on,77,56,0
1,note_on,77,0,240
1,note_on,75,59,0
1,note_on,75,0,240
1,note_on,78,56,0
1,note_on,78,0,240
1,note_on,77,62,0
1,note_on,77,0,720
1,note_on,73,59,0
1,note_on,73,0,240
1,note_on,70,55,0
1,note_on,70,0,240
1,note_on,65,50,0
1,note_on,65,0,240
1,note_on,76,59,480
1,note_on,76,0,240
1,note_on,75,56,0
1,note_on,75,0,240
1,note_on,73,59,0
1,note_on,73,0,240
1,note_on,76,56,0
1,note_on,76,0,240
1,note_on,75,62,0
1,note_on,75,0,720
1,note_on,72,59,0
1,note_on,72,0,240
1,note_on,68,57,0
1,note_on,68,0,240
1,note_on,63,52,0
1,note_on,63,0,240
1,note_on,60,35,480
1,note_on,63,39,0
1,note_on,68,59,0
1,note_on,63,0,480
1,note_on,60,0,0
1,note_on,60,35,0
1,note_on,63,39,0
1,note_on,63,0,480
1,note_on,60,0,0
1,note_on,68,0,0
1,note_on,67,63,0
1,note_on,60,31,480
1,note_on,65,36,0
1,note_on,65,0,480
1,note_on,60,0,0
1,note_on,67,0,0
1,note_on,60,31,0
1,note_on,65,36,0
1,note_on,68,59,0
1,note_on,68,0,480
1,note_on,65,0,0
1,note_on,60,0,0
1,note_on,70,68,0
1,note_on,62,31,480
1,note_on,68,36,0
1,note_on,70,0,240
1,note_on,71,61,0
1,note_on,71,0,240
1,note_on,68,0,0
1,note_on,62,0,0
1,note_on,62,31,0
1,note_on,68,36,0
1,note_on,70,59,0
1,note_on,70,0,240
1,note_on,71,52,0
1,note_on,71,0,240
1,note_on,68,0,0
1,note_on,62,0,0
1,note_on,67,59,0
1,note_on,61,36,480
1,note_on,63,40,0
1,note_on,63,0,480
1,note_on,61,0,0
1,note_on,61,35,0
1,note_on,63,39,0
1,note_on,63,0,480
1,note_on,61,0,0
1,note_on,67,0,0
1,note_on,68,59,480
1,note_on,63,39,480
1,note_on,63,0,480
1,note_on,68,0,0
1,note_on,70,59,0
1,note_on,63,28,480
1,note_on,68,31,0
1,note_on,68,0,480
1,note_on,63,0,0
1,note_on,70,0,0
1,note_on,72,59,0
1,note_on,72,0,480
1,note_on,73,63,480
1,note_on,63,34,480
1,note_on,67,38,0
1,note_on,67,0,480
1,note_on,63,0,0
1,note_on,73,0,0
1,note_on,72,62,0
1,note_on,67,35,480
1,note_on,63,30,0
1,note_on,63,0,480
1,note_on,67,0,0
1,note_on,72,0,0
1,note_on,70,51,0
1,note_on,70,0,480
1,note_on,72,63,480
1,note_on,68,42,480
1,note_on,63,38,0
1,note_on,63,0,480
1,note_on,68,0,0
1,note_on,72,0,0
1,note_on,73,68,0
1,note_on,63,37,480
1,note_on,68,41,0
1,note_on,68,0,480
1,note_on,63,0,0
1,note_on,73,0,0
1,note_on,75,71,0
1,note_on,75,0,480
1,note_on,77,73,0
1,note_on,77,0,330
1,note_on,68,48,90
1,note_on,74,56,30
1,note_on,79,74,30
1,note_on,79,0,330
1,note_on,74,0,0
1,note_on,68,0,0
1,note_on,68,48,90
1,note_on,74,55,30
1,note_on,80,77,30
1,note_on,80,0,480
1,note_on,74,0,0
1,note_on,68,0,0
1,note_on,75,81,0
1,note_on,63,38,480
1,note_on,68,38,0
1,note_on,72,44,0
1,note_on,72,0,480
1,note_on,68,0,0
1,note_on,63,0,0
1,note_on,63,38,0
1,note_on,68,38,0
1,note_on,72,43,0
1,note_on,72,0,480
1,note_on,75,0,0
1,note_on,63,0,0
1,note_on,68,0,0
1,note_on,78,59,480
1,note_on,78,0,240
1,note_on,77,56,0
1,note_on,77,0,240
1,note_on,75,59,0
1,note_on,75,0,240
1,note_on,78,56,0
1,note_on,78,0,240
1,note_on,77,62,0
1,note_on,77,0,720
1,note_on,73,59,0
1,note_on,73,0,240
1,note_on,70,55,0
1,note_on,70,0,240
1,note_on,65,50,0
1,note_on,65,0,240
1,note_on,80,66,480
1,note_on,80,0,240
1,note_on,79,61,0
1,note_on,79,0,240
1,note_on,77,64,0
1,note_on,77,0,240
1,note_on,80,60,0
1,note_on,80,0,240
1,note_on,79,68,0
1,note_on,79,0,720
1,note_on,76,61,0
1,note_on,76,0,240
1,note_on,72,59,0
1,note_on,72,0,240
1,note_on,67,55,0
1,note_on,67,0,240
1,note_on,82,70,480
1,note_on,82,0,240
1,note_on,80,64,0
1,note_on,80,0,240
1,note_on,79,69,0
1,note_on,79,0,240
1,note_on,82,63,0
1,note_on,82,0,240
1,note_on,80,72,0
1,note_on,80,0,720
1,note_on,77,64,0
1,note_on,77,0,240
1,note_on,71,62,0
1,note_on,71,0,240
1,note_on,68,58,0
1,note_on,68,0,240
1,note_on,77,64,0
1,note_on,77,0,720
1,note_on,73,58,0
1,note_on,73,0,240
1,note_on,70,56,0
1,note_on,70,0,240
1,note_on,67,51,0
1,note_on,67,0,240
1,note_on,70,58,0
1,note_on,70,0,720
1,note_on,68,51,0
1,note_on,68,0,240
1,note_on,63,49,0
1,note_on,63,0,240
1,note_on,60,46,0
1,note_on,60,0,240
1,note_on,59,39,480
1,note_on,62,39,0
1,note_on,65,59,0
1,note_on,62,0,480
1,note_on,59,0,0
1,note_on,59,39,0
1,note_on,62,39,0
1,note_on,62,0,480
1,note_on,59,0,0
1,note_on,65,0,0
1,note_on,67,61,0
1,note_on,59,39,480
1,note_on,62,39,0
1,note_on,62,0,480
1,note_on,59,0,0
1,note_on,67,0,0
1,note_on,59,39,0
1,note_on,62,39,0
1,note_on,68,59,0
1,note_on,68,0,480
1,note_on,62,0,0
1,note_on,59,0,0
1,note_on,60,42,0
1,note_on,63,42,0
1,note_on,67,48,0
1,note_on,67,0,480
1,note_on,63,0,0
1,note_on,60,0,0
1,note_on,60,47,480
1,note_on,63,47,0
1,note_on,67,52,0
1,note_on,67,0,480
1,note_on,63,0,0
1,note_on,60,0,0
1,note_on,63,51,480
1,note_on,60,46,0
1,note_on,60,0,480
1,note_on,63,0,0
1,note_on,59,42,960
1,note_on,64,42,0
1,note_on,68,64,0
1,note_on,64,0,480
1,note_on,59,0,0
1,note_on,59,42,0
1,note_on,64,42,0
1,note_on,64,0,480
1,note_on,59,0,0
1,note_on,68,0,0
1,note_on,70,67,0
1,note_on,59,42,480
1,note_on,64,42,0
1,note_on,64,0,480
1,note_on,59,0,0
1,note_on,70,0,0
1,note_on,59,42,0
1,note_on,64,42,0
1,note_on,71,64,0
1,note_on,71,0,480
1,note_on,64,0,0
1,note_on,59,0,0
1,note_on,60,46,0
1,note_on,63,46,0
1,note_on,72,52,0
1,note_on,72,0,480
1,note_on,63,0,0
1,note_on,60,0,0
1,note_on,60,52,480
1,note_on,63,52,0
1,note_on,72,58,0
1,note_on,72,0,480
1,note_on,63,0,0
1,note_on,60,0,0
1,note_on,63,52,480
1,note_on,72,57,0
1,note_on,60,51,0
1,note_on,60,0,480
1,note_on,72,0,0
1,note_on,63,0,0
1,note_on,71,48,960
1,note_on,74,48,0
1,note_on,77,72,0
1,note_on,74,0,480
1,note_on,71,0,0
1,note_on,71,48,0
1,note_on,74,48,0
1,note_on,74,0,480
1,note_on,71,0,0
1,note_on,77,0,0
1,note_on,79,76,0
1,note_on,71,48,480
1,note_on,74,48,0
1,note_on,74,0,480
1,note_on,71,0,0
1,note_on,79,0,0
1,note_on,71,48,0
1,note_on,74,48,0
1,note_on,80,73,0
1,note_on,80,0,480
1,note_on,74,0,0
1,note_on,71,0,0
1,note_on,72,53,0
1,note_on,75,53,0
1,note_on,79,60,0
1,note_on,79,0,480
1,note_on,75,0,0
1,note_on,72,0,0
1,note_on,72,59,480
1,note_on,75,59,0
1,note_on,79,66,0
1,note_on,79,0,480
1,note_on,75,0,0
1,note_on,72,0,0
1,note_on,75,65,480
1,note_on,72,59,0
1,note_on,72,0,480
1,note_on,75,0,0
1,note_on,71,54,960
1,note_on,76,54,0
1,note_on,80,83,0
1,note_on,76,0,480
1,note_on,71,0,0
1,note_on,71,54,0
1,note_on,76,54,0
1,note_on,76,0,480
1,note_on,71,0,0
1,note_on,80,0,0
1,note_on,82,87,0
1,note_on,71,55,480
1,note_on,76,55,0
1,note_on,76,0,480
1,note_on,71,0,0
1,note_on,82,0,0
1,note_on,71,56,0
1,note_on,76,56,0
1,note_on,83,86,0
1,note_on,83,0,480
1,note_on,76,0,0
1,note_on,71,0,0
1,note_on,72,61,0
1,note_on,75,61,0
1,note_on,84,68,0
1,note_on,84,0,480
1,note_on,75,0,0
1,note_on,72,0,0
1,note_on,72,67,480
1,note_on,75,67,0
1,note_on,84,75,0
1,note_on,84,0,480
1,note_on,75,0,0
1,note_on,72,0,0
1,note_on,75,68,480
1,note_on,84,75,0
1,note_on,72,67,0
1,note_on,72,0,480
1,note_on,84,0,0
1,note_on,75,0,0
1,note_on,88,87,960
1,note_on,83,76,0
1,note_on,80,76,0
1,note_on,76,76,0
1,note_on,76,0,960
1,note_on,88,0,0
1,note_on,83,0,0
1,note_on,80,0,0
1,note_on,87,82,0
1,note_on,87,0,120
1,note_on,84,76,120
1,note_on,84,0,120
1,note_on,80,79,120
1,note_on,80,0,120
1,note_on,75,77,120
1,note_on,75,0,120
1,note_on,72,80,120
1,note_on,72,0,120
1,note_on,76,77,840
1,note_on,71,69,0
1,note_on,68,69,0
1,note_on,64,69,0
1,note_on,64,0,960
1,note_on,76,0,0
1,note_on,71,0,0
1,note_on,68,0,0
1,note_on,75,78,0
1,note_on,75,0,120
1,note_on,72,72,120
1,note_on,72,0,120
1,note_on,68,75,120
1,note_on,68,0,120
1,note_on,63,72,120
1,note_on,63,0,120
1,note_on,60,76,120
1,note_on,60,0,120
1,note_on,75,74,360
1,note_on,75,0,120
1,note_on,72,67,120
1,note_on,72,0,120
1,note_on,68,71,120
1,note_on,68,0,120
1,note_on,63,67,120
1,note_on,63,0,120
1,note_on,60,71,120
1,note_on,60,0,120
1,note_on,75,65,360
1,note_on,75,0,120
1,note_on,72,60,120
1,note_on,72,0,120
1,note_on,68,62,120
1,note_on,68,0,120
1,note_on,63,59,120
1,note_on,63,0,120
1,note_on,60,62,120
1,note_on,60,0,120
1,note_on,75,61,360
1,note_on,75,0,120
1,note_on,72,56,120
1,note_on,72,0,120
1,note_on,68,58,120
1,note_on,68,0,120
1,note_on,63,55,120
1,note_on,63,0,120
1,note_on,60,58,120
1,note_on,60,0,120
1,note_on,75,56,360
1,note_on,75,0,120
1,note_on,72,51,120
1,note_on,72,0,120
1,note_on,68,53,120
1,note_on,68,0,120
1,note_on,63,51,120
1,note_on,63,0,120
1,note_on,60,55,120
1,note_on,60,0,120
1,note_on,60,46,600
1,note_on,60,0,240
1,note_on,63,48,0
1,note_on,63,0,240
1,note_on,68,49,0
1,note_on,68,0,240
1,note_on,72,51,0
1,note_on,72,0,240
1,note_on,75,52,0
1,note_on,75,0,240
1,note_on,77,55,0
1,note_on,77,0,240
1,note_on,75,52,0
1,note_on,75,0,240
1,note_on,72,51,0
1,note_on,72,0,240
1,note_on,68,49,0
1,note_on,68,0,240
1,note_on,72,51,0
1,note_on,72,0,240
1,note_on,75,55,0
1,note_on,75,0,240
1,note_on,80,58,0
1,note_on,80,0,120
1,note_on,84,55,360
1,note_on,80,55,0
1,note_on,80,0,120
1,note_on,84,0,0
1,note_on,87,55,360
1,note_on,84,55,0
1,note_on,80,55,0
1,note_on,80,0,120
1,note_on,84,0,0
1,note_on,87,0,0
1,note_on,92,57,360
1,note_on,84,57,0
1,note_on,80,57,0
1,note_on,80,0,120
1,note_on,84,0,0
1,note_on,92,0,0
2,note_on,44,37,0
2,note_on,44,0,480
2,note_on,56,27,0
2,note_on,60,32,0
2,note_on,51,27,0
2,note_on,51,0,480
2,note_on,60,0,0
2,note_on,56,0,0
2,note_on,51,24,0
2,note_on,60,27,0
2,note_on,56,24,0
2,note_on,56,0,480
2,note_on,60,0,0
2,note_on,51,0,0
2,note_on,39,44,0
2,note_on,39,0,356
2,note_on,51,19,0
2,note_on,60,22,0
2,note_on,56,19,0
2,note_on,56,0,480
2,note_on,60,0,0
2,note_on,51,0,0
2,note_on,51,26,0
2,note_on,60,29,0
2,note_on,56,26,0
2,note_on,56,0,480
2,note_on,60,0,0
2,note_on,51,0,0
2,note_on,46,39,0
2,note_on,46,0,320
2,note_on,61,34,0
2,note_on,55,30,0
2,note_on,51,30,0
2,note_on,51,0,480
2,note_on,55,0,0
2,note_on,61,0,0
2,note_on,61,25,0
2,note_on,55,22,0
2,note_on,51,22,0
2,note_on,51,0,480
2,note_on,55,0,0
2,note_on,61,0,0
2,note_on,39,39,0
2,note_on,39,0,213
2,note_on,61,23,0
2,note_on,55,20,0
2,note_on,51,20,0
2,note_on,51,0,480
2,note_on,55,0,0
2,note_on,61,0,0
2,note_on,51,27,0
2,note_on,55,27,0
2,note_on,61,32,0
2,note_on,61,0,480
2,note_on,55,0,0
2,note_on,51,0,0
2,note_on,44,50,0
2,note_on,44,0,347
2,note_on,56,33,0
2,note_on,60,36,0
2,note_on,51,33,0
2,note_on,51,0,480
2,note_on,60,0,0
2,note_on,56,0,0
2,note_on,60,33,0
2,note_on,56,27,0
2,note_on,51,27,0
2,note_on,51,0,480
2,note_on,56,0,0
2,note_on,60,0,0
2,note_on,39,55,0
2,note_on,39,0,389
2,note_on,56,27,0
2,note_on,60,32,0
2,note_on,54,27,0
2,note_on,54,0,480
2,note_on,60,0,0
2,note_on,56,0,0
2,note_on,56,34,0
2,note_on,60,37,0
2,note_on,54,34,0
2,note_on,54,0,480
2,note_on,60,0,0
2,note_on,56,0,0
2,note_on,44,57,0
2,note_on,44,0,256
2,note_on,53,31,0
2,note_on,56,37,30
2,note_on,59,44,30
2,note_on,59,0,420
2,note_on,56,0,0
2,note_on,53,0,0
2,note_on,53,33,0
2,note_on,56,40,30
2,note_on,59,45,30
2,note_on,59,0,570
2,note_on,56,0,0
2,note_on,53,0,0
2,note_on,44,63,0
2,note_on,44,0,213
2,note_on,56,22,0
2,note_on,60,25,0
2,note_on,51,22,0
2,note_on,51,0,480
2,note_on,60,0,0
2,note_on,56,0,0
2,note_on,56,22,0
2,note_on,60,25,0
2,note_on,51,22,0
2,note_on,51,0,480
2,note_on,60,0,0
2,note_on,56,0,0
2,note_on,45,37,0
2,note_on,45,0,320
2,note_on,53,27,0
2,note_on,63,32,0
2,note_on,60,27,0
2,note_on,60,0,480
2,note_on,63,0,0
2,note_on,53,0,0
2,note_on,63,27,0
2,note_on,60,24,0
2,note_on,53,24,0
2,note_on,53,0,480
2,note_on,60,0,0
2,note_on,63,0,0
2,note_on,46,37,0
2,note_on,46,0,331
2,note_on,58,27,0
2,note_on,61,32,0
2,note_on,53,27,0
2,note_on,53,0,480
2,note_on,61,0,0
2,note_on,58,0,0
2,note_on,61,27,0
2,note_on,58,24,0
2,note_on,53,24,0
2,note_on,53,0,480
2,note_on,58,0,0
2,note_on,61,0,0
2,note_on,43,37,0
2,note_on,43,0,320
2,note_on,58,27,0
2,note_on,61,32,0
2,note_on,51,27,0
2,note_on,51,0,480
2,note_on,61,0,0
2,note_on,58,0,0
2,note_on,61,27,0
2,note_on,58,24,0
2,note_on,51,24,0
2,note_on,51,0,480
2,note_on,58,0,0
2,note_on,61,0,0
2,note_on,44,37,0
2,note_on,44,0,331
2,note_on,51,27,0
2,note_on,60,32,0
2,note_on,56,27,0
2,note_on,56,0,480
2,note_on,60,0,0
2,note_on,51,0,0
2,note_on,60,27,0
2,note_on,56,24,0
2,note_on,51,24,0
2,note_on,51,0,480
2,note_on,56,0,0
2,note_on,60,0,0
2,note_on,42,37,0
2,note_on,42,0,389
2,note_on,56,36,0
2,note_on,54,31,0
2,note_on,54,0,480
2,note_on,56,0,0
2,note_on,54,27,0
2,note_on,56,30,0
2,note_on,56,0,480
2,note_on,54,0,0
2,note_on,41,44,0
2,note_on,41,0,133
2,note_on,56,28,0
2,note_on,53,25,0
2,note_on,53,0,480
2,note_on,56,0,0
2,note_on,53,29,0
2,note_on,56,33,0
2,note_on,56,0,480
2,note_on,53,0,0
2,note_on,40,37,0
2,note_on,40,0,331
2,note_on,52,31,0
2,note_on,56,36,0
2,note_on,56,0,480
2,note_on,52,0,0
2,note_on,52,27,0
2,note_on,56,30,0
2,note_on,56,0,480
2,note_on,52,0,0
2,note_on,39,37,0
2,note_on,39,0,298
2,note_on,51,29,0
2,note_on,58,34,0
2,note_on,58,0,480
2,note_on,51,0,0
2,note_on,58,28,0
2,note_on,51,25,0
2,note_on,51,0,480
2,note_on,58,0,0
2,note_on,44,37,0
2,note_on,44,0,160
2,note_on,56,27,0
2,note_on,60,32,0
2,note_on,51,27,0
2,note_on,51,0,480
2,note_on,60,0,0
2,note_on,56,0,0
2,note_on,51,24,0
2,note_on,60,27,0
2,note_on,56,24,0
2,note_on,56,0,480
2,note_on,60,0,0
2,note_on,51,0,0
2,note_on,39,44,0
2,note_on,39,0,373
2,note_on,51,19,0
2,note_on,60,22,0
2,note_on,56,19,0
2,note_on,56,0,480
2,note_on,60,0,0
2,note_on,51,0,0
2,note_on,51,26,0
2,note_on,60,29,0
2,note_on,56,26,0
2,note_on,56,0,480
2,note_on,60,0,0
2,note_on,51,0,0
2,note_on,46,39,0
2,note_on,46,0,160
2,note_on,61,34,0
2,note_on,55,30,0
2,note_on,51,30,0
2,note_on,51,0,480
2,note_on,55,0,0
2,note_on,61,0,0
2,note_on,61,25,0
2,note_on,55,22,0
2,note_on,51,22,0
2,note_on,51,0,480
2,note_on,55,0,0
2,note_on,61,0,0
2,note_on,39,39,0
2,note_on,39,0,213
2,note_on,61,23,0
2,note_on,55,20,0
2,note_on,51,20,0
2,note_on,51,0,480
2,note_on,55,0,0
2,note_on,61,0,0
2,note_on,51,27,0
2,note_on,55,27,0
2,note_on,61,32,0
2,note_on,61,0,480
2,note_on,55,0,0
2,note_on,51,0,0
2,note_on,44,38,0
2,note_on,44,0,133
2,note_on,56,30,0
2,note_on,60,34,0
2,note_on,51,30,0
2,note_on,51,0,480
2,note_on,60,0,0
2,note_on,56,0,0
2,note_on,60,30,0
2,note_on,56,26,0
2,note_on,51,26,0
2,note_on,51,0,480
2,note_on,56,0,0
2,note_on,60,0,0
2,note_on,39,55,0
2,note_on,39,0,311
2,note_on,56,27,0
2,note_on,60,32,0
2,note_on,54,27,0
2,note_on,54,0,480
2,note_on,60,0,0
2,note_on,56,0,0
2,note_on,56,34,0
2,note_on,60,37,0
2,note_on,54,34,0
2,note_on,54,0,480
2,note_on,60,0,0
2,note_on,56,0,0
2,note_on,44,56,0
2,note_on,44,0,256
2,note_on,53,29,0
2,note_on,56,36,30
2,note_on,59,44,30
2,note_on,59,0,420
2,note_on,56,0,0
2,note_on,53,0,0
2,note_on,53,33,0
2,note_on,56,39,30
2,note_on,59,45,30
2,note_on,59,0,570
2,note_on,56,0,0
2,note_on,53,0,0
2,note_on,44,59,0
2,note_on,44,0,213
2,note_on,56,22,0
2,note_on,60,25,0
2,note_on,51,22,0
2,note_on,51,0,480
2,note_on,60,0,0
2,note_on,56,0,0
2,note_on,56,22,0
2,note_on,60,25,0
2,note_on,51,22,0
2,note_on,51,0,480
2,note_on,60,0,0
2,note_on,56,0,0
2,note_on,45,37,0
2,note_on,45,0,320
2,note_on,53,31,0
2,note_on,63,36,0
2,note_on,60,31,0
2,note_on,60,0,480
2,note_on,63,0,0
2,note_on,53,0,0
2,note_on,63,30,0
2,note_on,60,27,0
2,note_on,53,27,0
2,note_on,53,0,480
2,note_on,60,0,0
2,note_on,63,0,0
2,note_on,46,37,0
2,note_on,46,0,331
2,note_on,58,31,0
2,note_on,61,36,0
2,note_on,53,31,0
2,note_on,53,0,480
2,note_on,61,0,0
2,note_on,58,0,0
2,note_on,61,30,0
2,note_on,58,27,0
2,note_on,53,27,0
2,note_on,53,0,480
2,note_on,58,0,0
2,note_on,61,0,0
2,note_on,47,42,0
2,note_on,47,0,320
2,note_on,55,33,0
2,note_on,62,33,0
2,note_on,65,37,0
2,note_on,65,0,480
2,note_on,62,0,0
2,note_on,55,0,0
2,note_on,65,31,0
2,note_on,62,28,0
2,note_on,55,28,0
2,note_on,55,0,480
2,note_on,62,0,0
2,note_on,65,0,0
2,note_on,48,38,0
2,note_on,48,0,331
2,note_on,55,33,0
2,note_on,64,37,0
2,note_on,60,33,0
2,note_on,60,0,480
2,note_on,64,0,0
2,note_on,55,0,0
2,note_on,64,31,0
2,note_on,60,28,0
2,note_on,55,28,0
2,note_on,55,0,480
2,note_on,60,0,0
2,note_on,64,0,0
2,note_on,48,44,0
2,note_on,48,0,331
2,note_on,56,37,0
2,note_on,62,42,0
2,note_on,60,37,0
2,note_on,60,0,480
2,note_on,62,0,0
2,note_on,56,0,0
2,note_on,62,36,0
2,note_on,60,31,0
2,note_on,56,31,0
2,note_on,56,0,480
2,note_on,60,0,0
2,note_on,62,0,0
2,note_on,48,45,0
2,note_on,48,0,275
2,note_on,55,26,0
2,note_on,60,26,0
2,note_on,64,29,0
2,note_on,64,0,480
2,note_on,60,0,0
2,note_on,55,0,0
2,note_on,60,35,0
2,note_on,64,38,0
2,note_on,55,35,0
2,note_on,55,0,480
2,note_on,64,0,0
2,note_on,60,0,0
2,note_on,48,46,0
2,note_on,48,0,229
2,note_on,53,39,0
2,note_on,56,39,0
2,note_on,62,45,0
2,note_on,62,0,480
2,note_on,56,0,0
2,note_on,53,0,0
2,note_on,53,29,0
2,note_on,62,34,0
2,note_on,56,29,0
2,note_on,56,0,480
2,note_on,62,0,0
2,note_on,53,0,0
2,note_on,48,46,0
2,note_on,48,0,213
2,note_on,55,27,0
2,note_on,60,30,0
2,note_on,60,0,480
2,note_on,55,0,0
2,note_on,60,42,0
2,note_on,55,37,0
2,note_on,55,0,480
2,note_on,60,0,0
2,note_on,48,45,0
2,note_on,48,0,298
2,note_on,60,39,0
2,note_on,62,45,0
2,note_on,56,39,0
2,note_on,56,0,480
2,note_on,62,0,0
2,note_on,60,0,0
2,note_on,62,39,0
2,note_on,60,35,0
2,note_on,56,35,0
2,note_on,56,0,480
2,note_on,60,0,0
2,note_on,62,0,0
2,note_on,48,44,0
2,note_on,48,0,229
2,note_on,60,35,0
2,note_on,64,38,0
2,note_on,55,35,0
2,note_on,55,0,480
2,note_on,64,0,0
2,note_on,60,0,0
2,note_on,60,38,0
2,note_on,64,43,0
2,note_on,55,38,0
2,note_on,55,0,480
2,note_on,64,0,0
2,note_on,60,0,0
2,note_on,48,44,0
2,note_on,48,0,331
2,note_on,53,35,0
2,note_on,62,39,0
2,note_on,56,35,0
2,note_on,56,0,480
2,note_on,62,0,0
2,note_on,53,0,0
2,note_on,62,36,0
2,note_on,56,31,0
2,note_on,53,31,0
2,note_on,53,0,480
2,note_on,56,0,0
2,note_on,62,0,0
2,note_on,48,44,0
2,note_on,48,0,229
2,note_on,60,29,0
2,note_on,64,34,0
2,note_on,55,29,0
2,note_on,55,0,480
2,note_on,64,0,0
2,note_on,60,0,0
2,note_on,48,44,480
2,note_on,48,0,331
2,note_on,55,29,0
2,note_on,64,34,0
2,note_on,60,29,0
2,note_on,60,0,480
2,note_on,64,0,0
2,note_on,55,0,0
2,note_on,48,44,480
2,note_on,48,0,331
2,note_on,60,29,0
2,note_on,64,34,0
2,note_on,55,29,0
2,note_on,55,0,480
2,note_on,64,0,0
2,note_on,60,0,0
2,note_on,58,44,0
2,note_on,58,0,354
2,note_on,61,33,0
2,note_on,65,37,0
2,note_on,65,0,480
2,note_on,61,0,0
2,note_on,61,34,0
2,note_on,65,38,0
2,note_on,65,0,480
2,note_on,61,0,0
2,note_on,56,46,0
2,note_on,56,0,343
2,note_on,65,38,0
2,note_on,61,34,0
2,note_on,58,34,0
2,note_on,58,0,480
2,note_on,61,0,0
2,note_on,65,0,0
2,note_on,65,39,0
2,note_on,61,35,0
2,note_on,58,35,0
2,note_on,58,0,480
2,note_on,61,0,0
2,note_on,65,0,0
2,note_on,55,49,0
2,note_on,55,0,343
2,note_on,62,36,0
2,note_on,59,36,0
2,note_on,65,40,0
2,note_on,65,0,480
2,note_on,59,0,0
2,note_on,62,0,0
2,note_on,65,41,0
2,note_on,62,36,0
2,note_on,59,36,0
2,note_on,59,0,480
2,note_on,62,0,0
2,note_on,65,0,0
2,note_on,48,55,0
2,note_on,48,0,297
2,note_on,67,44,0
2,note_on,60,44,0
2,note_on,55,44,0
2,note_on,55,0,480
2,note_on,60,0,0
2,note_on,67,0,0
2,note_on,60,49,0
2,note_on,55,49,0
2,note_on,67,49,0
2,note_on,67,0,480
2,note_on,55,0,0
2,note_on,60,0,0
2,note_on,53,49,0
2,note_on,53,0,343
2,note_on,65,40,0
2,note_on,60,36,0
2,note_on,57,36,0
2,note_on,57,0,480
2,note_on,60,0,0
2,note_on,65,0,0
2,note_on,65,41,0
2,note_on,60,36,0
2,note_on,57,36,0
2,note_on,57,0,480
2,note_on,60,0,0
2,note_on,65,0,0
2,note_on,46,52,0
2,note_on,46,0,297
2,note_on,61,39,0
2,note_on,58,39,0
2,note_on,65,39,0
2,note_on,65,0,480
2,note_on,58,0,0
2,note_on,61,0,0
2,note_on,61,44,0
2,note_on,58,44,0
2,note_on,65,44,0
2,note_on,65,0,480
2,note_on,58,0,0
2,note_on,61,0,0
2,note_on,49,48,0
2,note_on,49,0,297
2,note_on,65,39,0
2,note_on,58,39,0
2,note_on,61,39,0
2,note_on,61,0,480
2,note_on,58,0,0
2,note_on,65,0,0
2,note_on,65,39,0
2,note_on,58,39,0
2,note_on,61,39,0
2,note_on,61,0,480
2,note_on,58,0,0
2,note_on,65,0,0
2,note_on,51,48,0
2,note_on,51,0,377
2,note_on,61,35,0
2,note_on,63,39,0
2,note_on,58,35,0
2,note_on,58,0,480
2,note_on,63,0,0
2,note_on,61,0,0
2,note_on,61,36,0
2,note_on,63,40,0
2,note_on,58,36,0
2,note_on,58,0,480
2,note_on,63,0,0
2,note_on,61,0,0
2,note_on,58,45,0
2,note_on,58,0,354
2,note_on,65,38,0
2,note_on,61,34,0
2,note_on,61,0,480
2,note_on,65,0,0
2,note_on,61,35,0
2,note_on,65,39,0
2,note_on,65,0,480
2,note_on,61,0,0
2,note_on,56,48,0
2,note_on,56,0,343
2,note_on,61,36,0
2,note_on,58,36,0
2,note_on,65,40,0
2,note_on,65,0,480
2,note_on,58,0,0
2,note_on,61,0,0
2,note_on,61,37,0
2,note_on,58,37,0
2,note_on,65,41,0
2,note_on,65,0,480
2,note_on,58,0,0
2,note_on,61,0,0
2,note_on,55,52,0
2,note_on,55,0,343
2,note_on,65,43,0
2,note_on,59,39,0
2,note_on,62,39,0
2,note_on,62,0,480
2,note_on,59,0,0
2,note_on,65,0,0
2,note_on,62,39,0
2,note_on,59,39,0
2,note_on,65,44,0
2,note_on,65,0,480
2,note_on,59,0,0
2,note_on,62,0,0
2,note_on,48,58,0
2,note_on,48,0,297
2,note_on,60,49,0
2,note_on,55,49,0
2,note_on,67,49,0
2,note_on,67,0,480
2,note_on,55,0,0
2,note_on,60,0,0
2,note_on,67,49,0
2,note_on,60,49,0
2,note_on,55,49,0
2,note_on,55,0,480
2,note_on,60,0,0
2,note_on,67,0,0
2,note_on,53,49,0
2,note_on,53,0,343
2,note_on,60,36,0
2,note_on,57,36,0
2,note_on,65,40,0
2,note_on,65,0,480
2,note_on,57,0,0
2,note_on,60,0,0
2,note_on,65,41,0
2,note_on,60,36,0
2,note_on,57,36,0
2,note_on,57,0,480
2,note_on,60,0,0
2,note_on,65,0,0
2,note_on,46,52,0
2,note_on,46,0,297
2,note_on,61,39,0
2,note_on,58,39,0
2,note_on,65,39,0
2,note_on,65,0,480
2,note_on,58,0,0
2,note_on,61,0,0
2,note_on,61,44,0
2,note_on,58,44,0
2,note_on,65,44,0
2,note_on,65,0,480
2,note_on,58,0,0
2,note_on,61,0,0
2,note_on,49,48,0
2,note_on,49,0,297
2,note_on,65,39,0
2,note_on,58,39,0
2,note_on,61,39,0
2,note_on,61,0,480
2,note_on,58,0,0
2,note_on,65,0,0
2,note_on,61,39,0
2,note_on,58,39,0
2,note_on,65,39,0
2,note_on,65,0,480
2,note_on,58,0,0
2,note_on,61,0,0
2,note_on,51,45,0
2,note_on,51,0,297
2,note_on,61,37,0
2,note_on,58,37,0
2,note_on,63,37,0
2,note_on,63,0,480
2,note_on,58,0,0
2,note_on,61,0,0
2,note_on,63,37,0
2,note_on,58,37,0
2,note_on,61,37,0
2,note_on,61,0,171
2,note_on,58,0,0
2,note_on,63,0,0
2,note_on,44,37,0
2,note_on,44,0,267
2,note_on,51,27,0
2,note_on,56,27,0
2,note_on,60,32,0
2,note_on,60,0,480
2,note_on,56,0,0
2,note_on,51,0,0
2,note_on,51,24,0
2,note_on,60,27,0
2,note_on,56,24,0
2,note_on,56,0,480
2,note_on,60,0,0
2,note_on,51,0,0
2,note_on,39,44,0
2,note_on,39,0,293
2,note_on,51,19,0
2,note_on,56,19,0
2,note_on,60,22,0
2,note_on,60,0,480
2,note_on,56,0,0
2,note_on,51,0,0
2,note_on,51,26,0
2,note_on,56,26,0
2,note_on,60,29,0
2,note_on,60,0,480
2,note_on,56,0,0
2,note_on,51,0,0
2,note_on,46,39,0
2,note_on,46,0,240
2,note_on,51,30,0
2,note_on,61,34,0
2,note_on,55,30,0
2,note_on,55,0,480
2,note_on,61,0,0
2,note_on,51,0,0
2,note_on,51,22,0
2,note_on,61,25,0
2,note_on,55,22,0
2,note_on,55,0,480
2,note_on,61,0,0
2,note_on,51,0,0
2,note_on,39,39,0
2,note_on,39,0,213
2,note_on,61,23,0
2,note_on,51,20,0
2,note_on,55,20,0
2,note_on,55,0,480
2,note_on,51,0,0
2,note_on,61,0,0
2,note_on,61,32,0
2,note_on,51,27,0
2,note_on,55,27,0
2,note_on,55,0,480
2,note_on,51,0,0
2,note_on,61,0,0
2,note_on,44,51,0
2,note_on,44,0,214
2,note_on,51,33,0
2,note_on,56,33,0
2,note_on,60,36,0
2,note_on,60,0,480
2,note_on,56,0,0
2,note_on,51,0,0
2,note_on,51,27,0
2,note_on,60,33,0
2,note_on,56,27,0
2,note_on,56,0,480
2,note_on,60,0,0
2,note_on,51,0,0
2,note_on,39,59,0
2,note_on,39,0,378
2,note_on,54,27,0
2,note_on,56,27,0
2,note_on,60,32,0
2,note_on,60,0,480
2,note_on,56,0,0
2,note_on,54,0,0
2,note_on,54,34,0
2,note_on,56,34,0
2,note_on,60,37,0
2,note_on,60,0,480
2,note_on,56,0,0
2,note_on,54,0,0
2,note_on,44,52,0
2,note_on,44,0,250
2,note_on,53,31,0
2,note_on,56,37,30
2,note_on,59,44,30
2,note_on,59,0,420
2,note_on,56,0,0
2,note_on,53,0,0
2,note_on,53,33,0
2,note_on,56,40,30
2,note_on,59,45,30
2,note_on,59,0,570
2,note_on,56,0,0
2,note_on,53,0,0
2,note_on,44,57,0
2,note_on,44,0,213
2,note_on,51,22,0
2,note_on,56,22,0
2,note_on,60,25,0
2,note_on,60,0,480
2,note_on,56,0,0
2,note_on,51,0,0
2,note_on,51,22,0
2,note_on,56,22,0
2,note_on,60,25,0
2,note_on,60,0,480
2,note_on,56,0,0
2,note_on,51,0,0
2,note_on,45,37,0
2,note_on,45,0,320
2,note_on,53,31,0
2,note_on,60,31,0
2,note_on,63,36,0
2,note_on,63,0,480
2,note_on,60,0,0
2,note_on,53,0,0
2,note_on,53,27,0
2,note_on,63,30,0
2,note_on,60,27,0
2,note_on,60,0,480
2,note_on,63,0,0
2,note_on,53,0,0
2,note_on,46,37,0
2,note_on,46,0,268
2,note_on,53,31,0
2,note_on,58,31,0
2,note_on,61,36,0
2,note_on,61,0,480
2,note_on,58,0,0
2,note_on,53,0,0
2,note_on,53,27,0
2,note_on,61,30,0
2,note_on,58,27,0
2,note_on,58,0,480
2,note_on,61,0,0
2,note_on,53,0,0
2,note_on,43,37,0
2,note_on,43,0,320
2,note_on,51,31,0
2,note_on,58,31,0
2,note_on,61,36,0
2,note_on,61,0,480
2,note_on,58,0,0
2,note_on,51,0,0
2,note_on,51,27,0
2,note_on,61,30,0
2,note_on,58,27,0
2,note_on,58,0,480
2,note_on,61,0,0
2,note_on,51,0,0
2,note_on,44,37,0
2,note_on,44,0,226
2,note_on,51,31,0
2,note_on,56,31,0
2,note_on,60,36,0
2,note_on,60,0,480
2,note_on,56,0,0
2,note_on,51,0,0
2,note_on,51,27,0
2,note_on,60,30,0
2,note_on,56,27,0
2,note_on,56,0,480
2,note_on,60,0,0
2,note_on,51,0,0
2,note_on,42,37,0
2,note_on,42,0,366
2,note_on,54,31,0
2,note_on,56,36,0
2,note_on,56,0,480
2,note_on,54,0,0
2,note_on,56,30,0
2,note_on,54,27,0
2,note_on,54,0,480
2,note_on,56,0,0
2,note_on,41,44,0
2,note_on,41,0,160
2,note_on,53,25,0
2,note_on,56,28,0
2,note_on,56,0,480
2,note_on,53,0,0
2,note_on,53,29,0
2,note_on,56,33,0
2,note_on,56,0,480
2,note_on,53,0,0
2,note_on,40,37,0
2,note_on,40,0,331
2,note_on,52,31,0
2,note_on,56,36,0
2,note_on,56,0,480
2,note_on,52,0,0
2,note_on,52,27,0
2,note_on,56,30,0
2,note_on,56,0,480
2,note_on,52,0,0
2,note_on,39,37,0
2,note_on,39,0,298
2,note_on,51,29,0
2,note_on,58,34,0
2,note_on,58,0,480
2,note_on,51,0,0
2,note_on,58,28,0
2,note_on,51,25,0
2,note_on,51,0,480
2,note_on,58,0,0
2,note_on,44,37,0
2,note_on,44,0,160
2,note_on,51,27,0
2,note_on,56,27,0
2,note_on,60,32,0
2,note_on,60,0,480
2,note_on,56,0,0
2,note_on,51,0,0
2,note_on,51,24,0
2,note_on,60,27,0
2,note_on,56,24,0
2,note_on,56,0,480
2,note_on,60,0,0
2,note_on,51,0,0
2,note_on,39,44,0
2,note_on,39,0,240
2,note_on,51,19,0
2,note_on,56,19,0
2,note_on,60,22,0
2,note_on,60,0,480
2,note_on,56,0,0
2,note_on,51,0,0
2,note_on,51,26,0
2,note_on,56,26,0
2,note_on,60,29,0
2,note_on,60,0,480
2,note_on,56,0,0
2,note_on,51,0,0
2,note_on,46,39,0
2,note_on,46,0,213
2,note_on,51,30,0
2,note_on,61,34,0
2,note_on,55,30,0
2,note_on,55,0,480
2,note_on,61,0,0
2,note_on,51,0,0
2,note_on,51,22,0
2,note_on,61,25,0
2,note_on,55,22,0
2,note_on,55,0,480
2,note_on,61,0,0
2,note_on,51,0,0
2,note_on,39,39,0
2,note_on,39,0,213
2,note_on,61,23,0
2,note_on,51,20,0
2,note_on,55,20,0
2,note_on,55,0,480
2,note_on,51,0,0
2,note_on,61,0,0
2,note_on,61,32,0
2,note_on,51,27,0
2,note_on,55,27,0
2,note_on,55,0,480
2,note_on,51,0,0
2,note_on,61,0,0
2,note_on,44,38,0
2,note_on,44,0,133
2,note_on,51,30,0
2,note_on,56,30,0
2,note_on,60,34,0
2,note_on,60,0,480
2,note_on,56,0,0
2,note_on,51,0,0
2,note_on,51,26,0
2,note_on,60,30,0
2,note_on,56,26,0
2,note_on,56,0,480
2,note_on,60,0,0
2,note_on,51,0,0
2,note_on,39,55,0
2,note_on,39,0,381
2,note_on,54,27,0
2,note_on,56,27,0
2,note_on,60,32,0
2,note_on,60,0,480
2,note_on,56,0,0
2,note_on,54,0,0
2,note_on,54,34,0
2,note_on,56,34,0
2,note_on,60,37,0
2,note_on,60,0,480
2,note_on,56,0,0
2,note_on,54,0,0
2,note_on,44,57,0
2,note_on,44,0,264
2,note_on,53,29,0
2,note_on,56,36,30
2,note_on,59,44,30
2,note_on,59,0,420
2,note_on,56,0,0
2,note_on,53,0,0
2,note_on,53,33,0
2,note_on,56,39,30
2,note_on,59,45,30
2,note_on,59,0,570
2,note_on,56,0,0
2,note_on,53,0,0
2,note_on,44,63,0
2,note_on,44,0,80
2,note_on,51,22,0
2,note_on,56,22,0
2,note_on,60,25,0
2,note_on,60,0,480
2,note_on,56,0,0
2,note_on,51,0,0
2,note_on,51,22,0
2,note_on,56,22,0
2,note_on,60,25,0
2,note_on,60,0,480
2,note_on,56,0,0
2,note_on,51,0,0
2,note_on,45,37,0
2,note_on,45,0,320
2,note_on,53,31,0
2,note_on,60,31,0
2,note_on,63,36,0
2,note_on,63,0,480
2,note_on,60,0,0
2,note_on,53,0,0
2,note_on,53,27,0
2,note_on,63,30,0
2,note_on,60,27,0
2,note_on,60,0,480
2,note_on,63,0,0
2,note_on,53,0,0
2,note_on,46,37,0
2,note_on,46,0,331
2,note_on,53,31,0
2,note_on,58,31,0
2,note_on,61,36,0
2,note_on,61,0,480
2,note_on,58,0,0
2,note_on,53,0,0
2,note_on,53,27,0
2,note_on,61,30,0
2,note_on,58,27,0
2,note_on,58,0,480
2,note_on,61,0,0
2,note_on,53,0,0
2,note_on,47,42,0
2,note_on,47,0,320
2,note_on,65,37,0
2,note_on,55,33,0
2,note_on,62,33,0
2,note_on,62,0,480
2,note_on,55,0,0
2,note_on,65,0,0
2,note_on,55,28,0
2,note_on,65,31,0
2,note_on,62,28,0
2,note_on,62,0,480
2,note_on,65,0,0
2,note_on,55,0,0
2,note_on,48,38,0
2,note_on,48,0,331
2,note_on,55,33,0
2,note_on,60,33,0
2,note_on,64,37,0
2,note_on,64,0,480
2,note_on,60,0,0
2,note_on,55,0,0
2,note_on,55,28,0
2,note_on,64,31,0
2,note_on,60,28,0
2,note_on,60,0,480
2,note_on,64,0,0
2,note_on,55,0,0
2,note_on,49,45,0
2,note_on,49,0,320
2,note_on,65,39,0
2,note_on,58,35,0
2,note_on,61,35,0
2,note_on,61,0,480
2,note_on,58,0,0
2,note_on,65,0,0
2,note_on,58,29,0
2,note_on,65,34,0
2,note_on,61,29,0
2,note_on,61,0,480
2,note_on,65,0,0
2,note_on,58,0,0
2,note_on,50,40,0
2,note_on,50,0,331
2,note_on,56,35,0
2,note_on,59,35,0
2,note_on,65,39,0
2,note_on,65,0,480
2,note_on,59,0,0
2,note_on,56,0,0
2,note_on,56,29,0
2,note_on,65,34,0
2,note_on,59,29,0
2,note_on,59,0,480
2,note_on,65,0,0
2,note_on,56,0,0
2,note_on,51,36,0
2,note_on,51,0,331
2,note_on,55,30,0
2,note_on,61,30,0
2,note_on,63,35,0
2,note_on,63,0,480
2,note_on,61,0,0
2,note_on,55,0,0
2,note_on,55,26,0
2,note_on,63,29,0
2,note_on,61,26,0
2,note_on,61,0,480
2,note_on,63,0,0
2,note_on,55,0,0
2,note_on,44,31,0
2,note_on,44,0,268
2,note_on,51,27,0
2,note_on,56,27,0
2,note_on,60,30,0
2,note_on,60,0,480
2,note_on,56,0,0
2,note_on,51,0,0
2,note_on,51,23,0
2,note_on,60,26,0
2,note_on,56,23,0
2,note_on,56,0,480
2,note_on,60,0,0
2,note_on,51,0,0
2,note_on,59,47,0
2,note_on,52,39,480
2,note_on,59,0,69
2,note_on,58,44,0
2,note_on,58,0,240
2,note_on,61,47,0
2,note_on,61,0,240
2,note_on,58,42,0
2,note_on,58,0,240
2,note_on,59,46,0
2,note_on,52,0,80
2,note_on,51,47,0
2,note_on,59,0,960
2,note_on,59,47,0
2,note_on,51,0,107
2,note_on,49,45,0
2,note_on,59,0,960
2,note_on,59,47,0
2,note_on,49,0,343
2,note_on,47,48,0
2,note_on,47,0,960
2,note_on,59,0,0
2,note_on,59,47,0
2,note_on,52,39,469
2,note_on,59,0,69
2,note_on,58,44,0
2,note_on,58,0,240
2,note_on,61,47,0
2,note_on,61,0,240
2,note_on,58,42,0
2,note_on,58,0,240
2,note_on,59,46,0
2,note_on,52,0,240
2,note_on,51,47,0
2,note_on,59,0,960
2,note_on,59,47,0
2,note_on,51,0,107
2,note_on,49,45,0
2,note_on,59,0,960
2,note_on,59,47,0
2,note_on,49,0,282
2,note_on,47,48,0
2,note_on,47,0,960
2,note_on,59,0,0
2,note_on,59,47,0
2,note_on,52,39,480
2,note_on,59,0,69
2,note_on,58,44,0
2,note_on,58,0,240
2,note_on,61,47,0
2,note_on,61,0,240
2,note_on,58,42,0
2,note_on,58,0,240
2,note_on,59,46,0
2,note_on,52,0,471
2,note_on,51,47,0
2,note_on,59,0,960
2,note_on,59,47,0
2,note_on,51,0,240
2,note_on,49,45,0
2,note_on,59,0,960
2,note_on,59,47,0
2,note_on,49,0,331
2,note_on,47,48,0
2,note_on,47,0,960
2,note_on,59,0,0
2,note_on,59,47,0
2,note_on,52,39,480
2,note_on,59,0,69
2,note_on,58,44,0
2,note_on,58,0,240
2,note_on,61,47,0
2,note_on,61,0,240
2,note_on,58,42,0
2,note_on,58,0,240
2,note_on,59,46,0
2,note_on,52,0,53
2,note_on,51,47,0
2,note_on,59,0,960
2,note_on,58,47,0
2,note_on,51,0,137
2,note_on,51,45,0
2,note_on,51,0,960
2,note_on,58,0,0
2,note_on,44,51,0
2,note_on,44,0,286
2,note_on,51,36,0
2,note_on,56,36,0
2,note_on,59,42,0
2,note_on,59,0,480
2,note_on,56,0,0
2,note_on,51,0,0
2,note_on,54,57,463
2,note_on,54,0,353
2,note_on,61,46,0
2,note_on,57,46,0
2,note_on,66,52,0
2,note_on,66,0,960
2,note_on,57,0,0
2,note_on,61,0,0
2,note_on,52,57,0
2,note_on,52,0,133
2,note_on,57,45,0
2,note_on,61,51,0
2,note_on,61,0,960
2,note_on,57,0,0
2,note_on,51,57,0
2,note_on,51,0,69
2,note_on,49,53,0
2,note_on,49,0,240
2,note_on,52,58,0
2,note_on,52,0,240
2,note_on,51,53,0
2,note_on,51,0,240
2,note_on,49,56,0
2,note_on,49,0,120
2,note_on,48,52,360
2,note_on,48,0,120
2,note_on,47,52,360
2,note_on,47,0,120
2,note_on,46,52,360
2,note_on,46,0,480
2,note_on,61,44,0
2,note_on,52,39,0
2,note_on,54,39,0
2,note_on,54,0,789
2,note_on,52,0,0
2,note_on,61,0,0
2,note_on,45,50,0
2,note_on,45,0,294
2,note_on,51,34,0
2,note_on,54,34,0
2,note_on,59,39,0
2,note_on,59,0,960
2,note_on,54,0,0
2,note_on,51,0,0
2,note_on,44,56,0
2,note_on,43,51,183
2,note_on,44,0,11
2,note_on,43,0,229
2,note_on,45,57,11
2,note_on,44,52,229
2,note_on,45,0,11
2,note_on,44,0,229
2,note_on,49,56,11
2,note_on,49,0,213
2,note_on,47,53,0
2,note_on,47,0,480
2,note_on,40,53,0
2,note_on,40,0,480
2,note_on,54,57,0
2,note_on,54,0,240
2,note_on,61,46,0
2,note_on,57,46,0
2,note_on,66,52,0
2,note_on,66,0,960
2,note_on,57,0,0
2,note_on,61,0,0
2,note_on,52,57,0
2,note_on,52,0,320
2,note_on,57,45,0
2,note_on,61,51,0
2,note_on,61,0,960
2,note_on,57,0,0
2,note_on,51,57,0
2,note_on,51,0,69
2,note_on,49,53,0
2,note_on,49,0,240
2,note_on,52,58,0
2,note_on,52,0,240
2,note_on,51,53,0
2,note_on,51,0,240
2,note_on,49,56,0
2,note_on,49,0,120
2,note_on,48,52,360
2,note_on,48,0,120
2,note_on,47,52,360
2,note_on,47,0,120
2,note_on,46,52,360
2,note_on,46,0,480
2,note_on,61,44,0
2,note_on,52,39,0
2,note_on,54,39,0
2,note_on,54,0,789
2,note_on,52,0,0
2,note_on,61,0,0
2,note_on,45,50,0
2,note_on,45,0,187
2,note_on,51,34,0
2,note_on,54,34,0
2,note_on,59,39,0
2,note_on,59,0,960
2,note_on,54,0,0
2,note_on,51,0,0
2,note_on,44,56,0
2,note_on,43,51,160
2,note_on,44,0,11
2,note_on,43,0,229
2,note_on,45,57,11
2,note_on,44,52,229
2,note_on,45,0,11
2,note_on,44,0,229
2,note_on,51,56,0
2,note_on,51,0,120
2,note_on,49,52,360
2,note_on,49,0,120
2,note_on,47,52,360
2,note_on,47,0,120
2,note_on,59,47,360
2,note_on,52,39,480
2,note_on,59,0,69
2,note_on,58,44,0
2,note_on,58,0,240
2,note_on,61,47,0
2,note_on,61,0,240
2,note_on,58,42,0
2,note_on,58,0,240
2,note_on,59,46,0
2,note_on,52,0,133
2,note_on,51,47,0
2,note_on,59,0,960
2,note_on,59,47,0
2,note_on,51,0,267
2,note_on,49,45,0
2,note_on,59,0,960
2,note_on,59,47,0
2,note_on,49,0,372
2,note_on,47,48,0
2,note_on,47,0,171
2,note_on,59,0,0
2,note_on,59,47,0
2,note_on,52,39,480
2,note_on,59,0,69
2,note_on,58,44,0
2,note_on,58,0,240
2,note_on,61,47,0
2,note_on,61,0,240
2,note_on,58,42,0
2,note_on,58,0,240
2,note_on,59,46,0
2,note_on,52,0,240
2,note_on,51,47,0
2,note_on,59,0,960
2,note_on,59,47,0
2,note_on,51,0,160
2,note_on,49,45,0
2,note_on,59,0,960
2,note_on,59,47,0
2,note_on,49,0,353
2,note_on,47,48,0
2,note_on,47,0,960
2,note_on,59,0,0
2,note_on,59,47,0
2,note_on,52,39,480
2,note_on,59,0,217
2,note_on,58,44,0
2,note_on,58,0,240
2,note_on,61,47,0
2,note_on,61,0,240
2,note_on,58,42,0
2,note_on,58,0,240
2,note_on,59,46,0
2,note_on,52,0,80
2,note_on,51,47,0
2,note_on,59,0,960
2,note_on,59,47,0
2,note_on,51,0,240
2,note_on,49,45,0
2,note_on,59,0,960
2,note_on,59,47,0
2,note_on,49,0,343
2,note_on,47,48,0
2,note_on,47,0,960
2,note_on,59,0,0
2,note_on,59,47,0
2,note_on,52,39,480
2,note_on,59,0,69
2,note_on,58,44,0
2,note_on,58,0,240
2,note_on,61,47,0
2,note_on,61,0,240
2,note_on,58,42,0
2,note_on,58,0,240
2,note_on,59,46,0
2,note_on,52,0,80
2,note_on,51,47,0
2,note_on,59,0,960
2,note_on,58,50,0
2,note_on,61,50,0
2,note_on,51,0,183
2,note_on,51,48,0
2,note_on,61,0,960
2,note_on,58,0,0
2,note_on,59,52,0
2,note_on,63,52,0
2,note_on,51,0,213
2,note_on,51,49,0
2,note_on,63,0,960
2,note_on,59,0,0
2,note_on,55,47,0
2,note_on,61,47,0
2,note_on,63,52,0
2,note_on,51,0,160
2,note_on,51,49,0
2,note_on,55,0,960
2,note_on,63,0,0
2,note_on,61,0,0
2,note_on,56,41,0
2,note_on,59,41,0
2,note_on,63,47,0
2,note_on,51,0,267
2,note_on,51,49,0
2,note_on,51,0,960
2,note_on,63,0,0
2,note_on,59,0,0
2,note_on,56,0,0
2,note_on,59,44,0
2,note_on,63,44,0
2,note_on,68,49,0
2,note_on,51,51,160
2,note_on,51,0,960
2,note_on,59,0,0
2,note_on,63,0,0
2,note_on,68,0,0
2,note_on,58,44,0
2,note_on,61,44,0
2,note_on,67,49,0
2,note_on,51,51,214
2,note_on,51,0,960
2,note_on,58,0,0
2,note_on,61,0,0
2,note_on,67,0,0
2,note_on,55,41,0
2,note_on,61,41,0
2,note_on,63,47,0
2,note_on,51,49,160
2,note_on,63,0,960
2,note_on,55,0,0
2,note_on,61,0,0
2,note_on,56,41,0
2,note_on,59,41,0
2,note_on,63,47,0
2,note_on,51,0,214
2,note_on,51,49,0
2,note_on,51,0,960
2,note_on,63,0,0
2,note_on,59,0,0
2,note_on,56,0,0
2,note_on,59,44,0
2,note_on,63,44,0
2,note_on,68,49,0
2,note_on,51,51,160
2,note_on,51,0,960
2,note_on,59,0,0
2,note_on,63,0,0
2,note_on,68,0,0
2,note_on,58,44,0
2,note_on,61,44,0
2,note_on,67,49,0
2,note_on,51,51,320
2,note_on,51,0,960
2,note_on,58,0,0
2,note_on,61,0,0
2,note_on,67,0,0
2,note_on,58,44,0
2,note_on,61,44,0
2,note_on,67,49,0
2,note_on,51,51,320
2,note_on,51,0,960
2,note_on,58,0,0
2,note_on,61,0,0
2,note_on,67,0,0
2,note_on,44,37,0
2,note_on,44,0,187
2,note_on,51,27,0
2,note_on,56,27,0
2,note_on,60,32,0
2,note_on,60,0,480
2,note_on,56,0,0
2,note_on,51,0,0
2,note_on,51,24,0
2,note_on,60,27,0
2,note_on,56,24,0
2,note_on,56,0,480
2,note_on,60,0,0
2,note_on,51,0,0
2,note_on,39,44,0
2,note_on,39,0,214
2,note_on,51,19,0
2,note_on,56,19,0
2,note_on,60,22,0
2,note_on,60,0,480
2,note_on,56,0,0
2,note_on,51,0,0
2,note_on,51,26,0
2,note_on,56,26,0
2,note_on,60,29,0
2,note_on,60,0,480
2,note_on,56,0,0
2,note_on,51,0,0
2,note_on,46,39,0
2,note_on,46,0,240
2,note_on,51,30,0
2,note_on,61,34,0
2,note_on,55,30,0
2,note_on,55,0,480
2,note_on,61,0,0
2,note_on,51,0,0
2,note_on,51,22,0
2,note_on,61,25,0
2,note_on,55,22,0
2,note_on,55,0,480
2,note_on,61,0,0
2,note_on,51,0,0
2,note_on,39,39,0
2,note_on,39,0,213
2,note_on,61,23,0
2,note_on,51,20,0
2,note_on,55,20,0
2,note_on,55,0,480
2,note_on,51,0,0
2,note_on,61,0,0
2,note_on,61,32,0
2,note_on,51,27,0
2,note_on,55,27,0
2,note_on,55,0,480
2,note_on,51,0,0
2,note_on,61,0,0
2,note_on,44,38,0
2,note_on,44,0,267
2,note_on,51,30,0
2,note_on,56,30,0
2,note_on,60,34,0
2,note_on,60,0,480
2,note_on,56,0,0
2,note_on,51,0,0
2,note_on,51,26,0
2,note_on,60,30,0
2,note_on,56,26,0
2,note_on,56,0,480
2,note_on,60,0,0
2,note_on,51,0,0
2,note_on,39,55,0
2,note_on,39,0,338
2,note_on,54,27,0
2,note_on,56,27,0
2,note_on,60,32,0
2,note_on,60,0,480
2,note_on,56,0,0
2,note_on,54,0,0
2,note_on,54,34,0
2,note_on,56,34,0
2,note_on,60,37,0
2,note_on,60,0,480
2,note_on,56,0,0
2,note_on,54,0,0
2,note_on,44,56,0
2,note_on,44,0,219
2,note_on,53,31,0
2,note_on,56,37,30
2,note_on,59,44,30
2,note_on,59,0,420
2,note_on,56,0,0
2,note_on,53,0,0
2,note_on,53,33,0
2,note_on,56,40,30
2,note_on,59,45,30
2,note_on,59,0,570
2,note_on,56,0,0
2,note_on,53,0,0
2,note_on,44,60,0
2,note_on,44,0,53
2,note_on,51,22,0
2,note_on,56,22,0
2,note_on,60,25,0
2,note_on,60,0,480
2,note_on,56,0,0
2,note_on,51,0,0
2,note_on,51,22,0
2,note_on,56,22,0
2,note_on,60,25,0
2,note_on,60,0,480
2,note_on,56,0,0
2,note_on,51,0,0
2,note_on,45,37,0
2,note_on,45,0,320
2,note_on,53,31,0
2,note_on,60,31,0
2,note_on,63,36,0
2,note_on,63,0,480
2,note_on,60,0,0
2,note_on,53,0,0
2,note_on,53,27,0
2,note_on,63,30,0
2,note_on,60,27,0
2,note_on,60,0,480
2,note_on,63,0,0
2,note_on,53,0,0
2,note_on,46,37,0
2,note_on,46,0,331
2,note_on,53,31,0
2,note_on,58,31,0
2,note_on,61,36,0
2,note_on,61,0,480
2,note_on,58,0,0
2,note_on,53,0,0
2,note_on,53,27,0
2,note_on,61,30,0
2,note_on,58,27,0
2,note_on,58,0,480
2,note_on,61,0,0
2,note_on,53,0,0
2,note_on,43,37,0
2,note_on,43,0,320
2,note_on,51,31,0
2,note_on,58,31,0
2,note_on,61,36,0
2,note_on,61,0,480
2,note_on,58,0,0
2,note_on,51,0,0
2,note_on,51,27,0
2,note_on,61,30,0
2,note_on,58,27,0
2,note_on,58,0,480
2,note_on,61,0,0
2,note_on,51,0,0
2,note_on,44,37,0
2,note_on,44,0,331
2,note_on,51,31,0
2,note_on,56,31,0
2,note_on,60,36,0
2,note_on,60,0,480
2,note_on,56,0,0
2,note_on,51,0,0
2,note_on,51,27,0
2,note_on,60,30,0
2,note_on,56,27,0
2,note_on,56,0,480
2,note_on,60,0,0
2,note_on,51,0,0
2,note_on,42,37,0
2,note_on,42,0,350
2,note_on,54,31,0
2,note_on,56,36,0
2,note_on,56,0,480
2,note_on,54,0,0
2,note_on,56,30,0
2,note_on,54,27,0
2,note_on,54,0,480
2,note_on,56,0,0
2,note_on,41,44,0
2,note_on,41,0,134
2,note_on,53,25,0
2,note_on,56,28,0
2,note_on,56,0,480
2,note_on,53,0,0
2,note_on,53,29,0
2,note_on,56,33,0
2,note_on,56,0,480
2,note_on,53,0,0
2,note_on,40,37,0
2,note_on,40,0,331
2,note_on,52,31,0
2,note_on,56,36,0
2,note_on,56,0,480
2,note_on,52,0,0
2,note_on,52,27,0
2,note_on,56,30,0
2,note_on,56,0,480
2,note_on,52,0,0
2,note_on,39,37,0
2,note_on,39,0,227
2,note_on,51,29,0
2,note_on,58,34,0
2,note_on,58,0,480
2,note_on,51,0,0
2,note_on,58,28,0
2,note_on,51,25,0
2,note_on,51,0,480
2,note_on,58,0,0
2,note_on,44,37,0
2,note_on,44,0,160
2,note_on,51,27,0
2,note_on,56,27,0
2,note_on,60,32,0
2,note_on,60,0,480
2,note_on,56,0,0
2,note_on,51,0,0
2,note_on,51,24,0
2,note_on,60,27,0
2,note_on,56,24,0
2,note_on,56,0,480
2,note_on,60,0,0
2,note_on,51,0,0
2,note_on,39,44,0
2,note_on,39,0,240
2,note_on,51,19,0
2,note_on,56,19,0
2,note_on,60,22,0
2,note_on,60,0,480
2,note_on,56,0,0
2,note_on,51,0,0
2,note_on,51,26,0
2,note_on,56,26,0
2,note_on,60,29,0
2,note_on,60,0,480
2,note_on,56,0,0
2,note_on,51,0,0
2,note_on,46,39,0
2,note_on,46,0,320
2,note_on,51,30,0
2,note_on,61,34,0
2,note_on,55,30,0
2,note_on,55,0,480
2,note_on,61,0,0
2,note_on,51,0,0
2,note_on,51,22,0
2,note_on,61,25,0
2,note_on,55,22,0
2,note_on,55,0,480
2,note_on,61,0,0
2,note_on,51,0,0
2,note_on,39,39,0
2,note_on,39,0,213
2,note_on,61,23,0
2,note_on,51,20,0
2,note_on,55,20,0
2,note_on,55,0,480
2,note_on,51,0,0
2,note_on,61,0,0
2,note_on,61,32,0
2,note_on,51,27,0
2,note_on,55,27,0
2,note_on,55,0,480
2,note_on,51,0,0
2,note_on,61,0,0
2,note_on,44,38,0
2,note_on,44,0,213
2,note_on,51,30,0
2,note_on,56,30,0
2,note_on,60,34,0
2,note_on,60,0,480
2,note_on,56,0,0
2,note_on,51,0,0
2,note_on,51,26,0
2,note_on,60,30,0
2,note_on,56,26,0
2,note_on,56,0,480
2,note_on,60,0,0
2,note_on,51,0,0
2,note_on,39,55,0
2,note_on,39,0,259
2,note_on,54,27,0
2,note_on,56,27,0
2,note_on,60,32,0
2,note_on,60,0,480
2,note_on,56,0,0
2,note_on,54,0,0
2,note_on,54,34,0
2,note_on,56,34,0
2,note_on,60,37,0
2,note_on,60,0,480
2,note_on,56,0,0
2,note_on,54,0,0
2,note_on,44,60,0
2,note_on,44,0,267
2,note_on,53,29,0
2,note_on,56,36,30
2,note_on,59,44,30
2,note_on,59,0,420
2,note_on,56,0,0
2,note_on,53,0,0
2,note_on,53,33,0
2,note_on,56,39,30
2,note_on,59,45,30
2,note_on,59,0,570
2,note_on,56,0,0
2,note_on,53,0,0
2,note_on,44,63,0
2,note_on,44,0,213
2,note_on,51,22,0
2,note_on,56,22,0
2,note_on,60,25,0
2,note_on,60,0,480
2,note_on,56,0,0
2,note_on,51,0,0
2,note_on,51,22,0
2,note_on,56,22,0
2,note_on,60,25,0
2,note_on,60,0,480
2,note_on,56,0,0
2,note_on,51,0,0
2,note_on,45,37,0
2,note_on,45,0,320
2,note_on,53,31,0
2,note_on,60,31,0
2,note_on,63,36,0
2,note_on,63,0,480
2,note_on,60,0,0
2,note_on,53,0,0
2,note_on,53,27,0
2,note_on,63,30,0
2,note_on,60,27,0
2,note_on,60,0,480
2,note_on,63,0,0
2,note_on,53,0,0
2,note_on,46,37,0
2,note_on,46,0,331
2,note_on,53,31,0
2,note_on,58,31,0
2,note_on,61,36,0
2,note_on,61,0,480
2,note_on,58,0,0
2,note_on,53,0,0
2,note_on,53,27,0
2,note_on,61,30,0
2,note_on,58,27,0
2,note_on,58,0,480
2,note_on,61,0,0
2,note_on,53,0,0
2,note_on,47,42,0
2,note_on,47,0,320
2,note_on,65,37,0
2,note_on,55,33,0
2,note_on,62,33,0
2,note_on,62,0,480
2,note_on,55,0,0
2,note_on,65,0,0
2,note_on,55,28,0
2,note_on,65,31,0
2,note_on,62,28,0
2,note_on,62,0,480
2,note_on,65,0,0
2,note_on,55,0,0
2,note_on,48,38,0
2,note_on,48,0,331
2,note_on,55,33,0
2,note_on,60,33,0
2,note_on,64,37,0
2,note_on,64,0,480
2,note_on,60,0,0
2,note_on,55,0,0
2,note_on,55,28,0
2,note_on,64,31,0
2,note_on,60,28,0
2,note_on,60,0,480
2,note_on,64,0,0
2,note_on,55,0,0
2,note_on,48,44,0
2,note_on,48,0,414
2,note_on,56,37,0
2,note_on,60,37,0
2,note_on,62,42,0
2,note_on,62,0,480
2,note_on,60,0,0
2,note_on,56,0,0
2,note_on,56,31,0
2,note_on,62,36,0
2,note_on,60,31,0
2,note_on,60,0,480
2,note_on,62,0,0
2,note_on,56,0,0
2,note_on,48,45,0
2,note_on,48,0,297
2,note_on,55,26,0
2,note_on,60,26,0
2,note_on,64,29,0
2,note_on,64,0,480
2,note_on,60,0,0
2,note_on,55,0,0
2,note_on,55,35,0
2,note_on,60,35,0
2,note_on,64,38,0
2,note_on,64,0,480
2,note_on,60,0,0
2,note_on,55,0,0
2,note_on,48,46,0
2,note_on,48,0,229
2,note_on,53,39,0
2,note_on,62,45,0
2,note_on,56,39,0
2,note_on,56,0,480
2,note_on,62,0,0
2,note_on,53,0,0
2,note_on,53,29,0
2,note_on,62,34,0
2,note_on,56,29,0
2,note_on,56,0,480
2,note_on,62,0,0
2,note_on,53,0,0
2,note_on,48,46,0
2,note_on,48,0,213
2,note_on,60,30,0
2,note_on,55,27,0
2,note_on,55,0,480
2,note_on,60,0,0
2,note_on,60,42,0
2,note_on,55,37,0
2,note_on,55,0,480
2,note_on,60,0,0
2,note_on,48,45,0
2,note_on,48,0,347
2,note_on,56,39,0
2,note_on,60,39,0
2,note_on,62,45,0
2,note_on,62,0,480
2,note_on,60,0,0
2,note_on,56,0,0
2,note_on,56,35,0
2,note_on,62,39,0
2,note_on,60,35,0
2,note_on,60,0,480
2,note_on,62,0,0
2,note_on,56,0,0
2,note_on,48,44,0
2,note_on,48,0,251
2,note_on,55,35,0
2,note_on,60,35,0
2,note_on,64,38,0
2,note_on,64,0,480
2,note_on,60,0,0
2,note_on,55,0,0
2,note_on,55,40,0
2,note_on,60,40,0
2,note_on,64,46,0
2,note_on,64,0,480
2,note_on,60,0,0
2,note_on,55,0,0
2,note_on,48,44,0
2,note_on,48,0,331
2,note_on,53,37,0
2,note_on,56,37,0
2,note_on,62,42,0
2,note_on,62,0,480
2,note_on,56,0,0
2,note_on,53,0,0
2,note_on,53,31,0
2,note_on,62,36,0
2,note_on,56,31,0
2,note_on,56,0,480
2,note_on,62,0,0
2,note_on,53,0,0
2,note_on,48,44,0
2,note_on,48,0,331
2,note_on,55,29,0
2,note_on,60,29,0
2,note_on,64,34,0
2,note_on,64,0,480
2,note_on,60,0,0
2,note_on,55,0,0
2,note_on,48,44,480
2,note_on,48,0,331
2,note_on,55,29,0
2,note_on,60,29,0
2,note_on,64,34,0
2,note_on,64,0,480
2,note_on,60,0,0
2,note_on,55,0,0
2,note_on,48,44,480
2,note_on,48,0,331
2,note_on,55,29,0
2,note_on,60,29,0
2,note_on,64,34,0
2,note_on,64,0,480
2,note_on,60,0,0
2,note_on,55,0,0
2,note_on,58,44,846
2,note_on,58,0,320
2,note_on,65,37,0
2,note_on,61,33,0
2,note_on,61,0,480
2,note_on,65,0,0
2,note_on,65,38,0
2,note_on,61,34,0
2,note_on,61,0,480
2,note_on,65,0,0
2,note_on,56,46,0
2,note_on,56,0,343
2,note_on,65,38,0
2,note_on,61,34,0
2,note_on,58,34,0
2,note_on,58,0,480
2,note_on,61,0,0
2,note_on,65,0,0
2,note_on,65,39,0
2,note_on,61,35,0
2,note_on,58,35,0
2,note_on,58,0,480
2,note_on,61,0,0
2,note_on,65,0,0
2,note_on,55,49,0
2,note_on,55,0,343
2,note_on,65,40,0
2,note_on,62,36,0
2,note_on,59,36,0
2,note_on,59,0,480
2,note_on,62,0,0
2,note_on,65,0,0
2,note_on,65,41,0
2,note_on,62,36,0
2,note_on,59,36,0
2,note_on,59,0,480
2,note_on,62,0,0
2,note_on,65,0,0
2,note_on,48,55,0
2,note_on,48,0,297
2,note_on,67,44,0
2,note_on,60,44,0
2,note_on,55,44,0
2,note_on,55,0,480
2,note_on,60,0,0
2,note_on,67,0,0
2,note_on,67,49,0
2,note_on,60,49,0
2,note_on,55,49,0
2,note_on,55,0,480
2,note_on,60,0,0
2,note_on,67,0,0
2,note_on,53,49,0
2,note_on,53,0,343
2,note_on,65,40,0
2,note_on,60,36,0
2,note_on,57,36,0
2,note_on,57,0,480
2,note_on,60,0,0
2,note_on,65,0,0
2,note_on,65,41,0
2,note_on,60,36,0
2,note_on,57,36,0
2,note_on,57,0,480
2,note_on,60,0,0
2,note_on,65,0,0
2,note_on,46,52,0
2,note_on,46,0,297
2,note_on,65,39,0
2,note_on,61,39,0
2,note_on,58,39,0
2,note_on,58,0,480
2,note_on,61,0,0
2,note_on,65,0,0
2,note_on,65,44,0
2,note_on,61,44,0
2,note_on,58,44,0
2,note_on,58,0,480
2,note_on,61,0,0
2,note_on,65,0,0
2,note_on,49,48,0
2,note_on,49,0,297
2,note_on,65,39,0
2,note_on,61,39,0
2,note_on,58,39,0
2,note_on,58,0,480
2,note_on,61,0,0
2,note_on,65,0,0
2,note_on,65,39,0
2,note_on,61,39,0
2,note_on,58,39,0
2,note_on,58,0,480
2,note_on,61,0,0
2,note_on,65,0,0
2,note_on,51,48,0
2,note_on,51,0,377
2,note_on,58,35,0
2,note_on,61,35,0
2,note_on,63,39,0
2,note_on,63,0,480
2,note_on,61,0,0
2,note_on,58,0,0
2,note_on,58,35,0
2,note_on,61,35,0
2,note_on,63,39,0
2,note_on,63,0,480
2,note_on,61,0,0
2,note_on,58,0,0
2,note_on,58,44,0
2,note_on,58,0,377
2,note_on,65,37,0
2,note_on,61,33,0
2,note_on,61,0,480
2,note_on,65,0,0
2,note_on,65,38,0
2,note_on,61,34,0
2,note_on,61,0,480
2,note_on,65,0,0
2,note_on,56,46,0
2,note_on,56,0,343
2,note_on,65,38,0
2,note_on,61,34,0
2,note_on,58,34,0
2,note_on,58,0,480
2,note_on,61,0,0
2,note_on,65,0,0
2,note_on,65,39,0
2,note_on,61,35,0
2,note_on,58,35,0
2,note_on,58,0,480
2,note_on,61,0,0
2,note_on,65,0,0
2,note_on,55,49,0
2,note_on,55,0,343
2,note_on,65,40,0
2,note_on,62,36,0
2,note_on,59,36,0
2,note_on,59,0,480
2,note_on,62,0,0
2,note_on,65,0,0
2,note_on,65,41,0
2,note_on,62,36,0
2,note_on,59,36,0
2,note_on,59,0,480
2,note_on,62,0,0
2,note_on,65,0,0
2,note_on,48,55,0
2,note_on,48,0,297
2,note_on,67,49,0
2,note_on,60,49,0
2,note_on,55,49,0
2,note_on,55,0,480
2,note_on,60,0,0
2,note_on,67,0,0
2,note_on,67,49,0
2,note_on,60,49,0
2,note_on,55,49,0
2,note_on,55,0,480
2,note_on,60,0,0
2,note_on,67,0,0
2,note_on,53,49,0
2,note_on,53,0,343
2,note_on,65,40,0
2,note_on,60,36,0
2,note_on,57,36,0
2,note_on,57,0,480
2,note_on,60,0,0
2,note_on,65,0,0
2,note_on,65,41,0
2,note_on,60,36,0
2,note_on,57,36,0
2,note_on,57,0,480
2,note_on,60,0,0
2,note_on,65,0,0
2,note_on,46,52,0
2,note_on,46,0,297
2,note_on,65,39,0
2,note_on,61,39,0
2,note_on,58,39,0
2,note_on,58,0,480
2,note_on,61,0,0
2,note_on,65,0,0
2,note_on,65,44,0
2,note_on,61,44,0
2,note_on,58,44,0
2,note_on,58,0,480
2,note_on,61,0,0
2,note_on,65,0,0
2,note_on,49,48,0
2,note_on,49,0,297
2,note_on,65,39,0
2,note_on,61,39,0
2,note_on,58,39,0
2,note_on,58,0,480
2,note_on,61,0,0
2,note_on,65,0,0
2,note_on,65,39,0
2,note_on,61,39,0
2,note_on,58,39,0
2,note_on,58,0,480
2,note_on,61,0,0
2,note_on,65,0,0
2,note_on,51,45,0
2,note_on,51,0,297
2,note_on,63,37,0
2,note_on,61,37,0
2,note_on,58,37,0
2,note_on,58,0,480
2,note_on,61,0,0
2,note_on,63,0,0
2,note_on,63,37,0
2,note_on,61,37,0
2,note_on,58,37,0
2,note_on,58,0,480
2,note_on,61,0,0
2,note_on,63,0,0
2,note_on,44,37,0
2,note_on,44,0,267
2,note_on,51,31,0
2,note_on,56,31,0
2,note_on,60,36,0
2,note_on,60,0,480
2,note_on,56,0,0
2,note_on,51,0,0
2,note_on,51,27,0
2,note_on,60,30,0
2,note_on,56,27,0
2,note_on,56,0,480
2,note_on,60,0,0
2,note_on,51,0,0
2,note_on,39,44,0
2,note_on,39,0,214
2,note_on,51,22,0
2,note_on,56,22,0
2,note_on,60,25,0
2,note_on,60,0,480
2,note_on,56,0,0
2,note_on,51,0,0
2,note_on,51,29,0
2,note_on,56,29,0
2,note_on,60,33,0
2,note_on,60,0,480
2,note_on,56,0,0
2,note_on,51,0,0
2,note_on,46,39,0
2,note_on,46,0,240
2,note_on,51,34,0
2,note_on,61,38,0
2,note_on,55,34,0
2,note_on,55,0,480
2,note_on,61,0,0
2,note_on,51,0,0
2,note_on,51,25,0
2,note_on,61,28,0
2,note_on,55,25,0
2,note_on,55,0,480
2,note_on,61,0,0
2,note_on,51,0,0
2,note_on,39,39,0
2,note_on,39,0,213
2,note_on,61,26,0
2,note_on,51,23,0
2,note_on,55,23,0
2,note_on,55,0,480
2,note_on,51,0,0
2,note_on,61,0,0
2,note_on,61,36,0
2,note_on,51,31,0
2,note_on,55,31,0
2,note_on,55,0,480
2,note_on,51,0,0
2,note_on,61,0,0
2,note_on,44,38,0
2,note_on,44,0,187
2,note_on,51,34,0
2,note_on,56,34,0
2,note_on,60,38,0
2,note_on,60,0,480
2,note_on,56,0,0
2,note_on,51,0,0
2,note_on,51,29,0
2,note_on,60,34,0
2,note_on,56,29,0
2,note_on,56,0,480
2,note_on,60,0,0
2,note_on,51,0,0
2,note_on,39,55,0
2,note_on,39,0,338
2,note_on,54,31,0
2,note_on,56,31,0
2,note_on,60,36,0
2,note_on,60,0,480
2,note_on,56,0,0
2,note_on,54,0,0
2,note_on,54,38,0
2,note_on,56,38,0
2,note_on,60,42,0
2,note_on,60,0,480
2,note_on,56,0,0
2,note_on,54,0,0
2,note_on,44,55,0
2,note_on,44,0,233
2,note_on,53,31,0
2,note_on,56,37,30
2,note_on,59,44,30
2,note_on,59,0,420
2,note_on,56,0,0
2,note_on,53,0,0
2,note_on,53,33,0
2,note_on,56,40,30
2,note_on,59,45,30
2,note_on,59,0,570
2,note_on,56,0,0
2,note_on,53,0,0
2,note_on,44,60,0
2,note_on,44,0,160
2,note_on,51,27,0
2,note_on,56,27,0
2,note_on,60,30,0
2,note_on,60,0,480
2,note_on,56,0,0
2,note_on,51,0,0
2,note_on,51,27,0
2,note_on,56,27,0
2,note_on,60,30,0
2,note_on,60,0,480
2,note_on,56,0,0
2,note_on,51,0,0
2,note_on,45,37,0
2,note_on,45,0,320
2,note_on,53,31,0
2,note_on,60,31,0
2,note_on,63,36,0
2,note_on,63,0,480
2,note_on,60,0,0
2,note_on,53,0,0
2,note_on,53,27,0
2,note_on,63,30,0
2,note_on,60,27,0
2,note_on,60,0,480
2,note_on,63,0,0
2,note_on,53,0,0
2,note_on,46,37,0
2,note_on,46,0,240
2,note_on,53,31,0
2,note_on,58,31,0
2,note_on,61,36,0
2,note_on,61,0,480
2,note_on,58,0,0
2,note_on,53,0,0
2,note_on,53,27,0
2,note_on,61,30,0
2,note_on,58,27,0
2,note_on,58,0,480
2,note_on,61,0,0
2,note_on,53,0,0
2,note_on,43,37,0
2,note_on,43,0,320
2,note_on,51,31,0
2,note_on,58,31,0
2,note_on,61,36,0
2,note_on,61,0,480
2,note_on,58,0,0
2,note_on,51,0,0
2,note_on,51,27,0
2,note_on,61,30,0
2,note_on,58,27,0
2,note_on,58,0,480
2,note_on,61,0,0
2,note_on,51,0,0
2,note_on,44,37,0
2,note_on,44,0,331
2,note_on,51,31,0
2,note_on,56,31,0
2,note_on,60,36,0
2,note_on,60,0,480
2,note_on,56,0,0
2,note_on,51,0,0
2,note_on,51,27,0
2,note_on,60,30,0
2,note_on,56,27,0
2,note_on,56,0,480
2,note_on,60,0,0
2,note_on,51,0,0
2,note_on,42,37,0
2,note_on,42,0,363
2,note_on,54,31,0
2,note_on,56,36,0
2,note_on,56,0,480
2,note_on,54,0,0
2,note_on,56,30,0
2,note_on,54,27,0
2,note_on,54,0,480
2,note_on,56,0,0
2,note_on,41,44,0
2,note_on,41,0,240
2,note_on,53,25,0
2,note_on,56,28,0
2,note_on,56,0,480
2,note_on,53,0,0
2,note_on,53,29,0
2,note_on,56,33,0
2,note_on,56,0,480
2,note_on,53,0,0
2,note_on,40,37,0
2,note_on,40,0,251
2,note_on,52,31,0
2,note_on,56,36,0
2,note_on,56,0,480
2,note_on,52,0,0
2,note_on,52,27,0
2,note_on,56,30,0
2,note_on,56,0,480
2,note_on,52,0,0
2,note_on,39,37,0
2,note_on,39,0,227
2,note_on,51,29,0
2,note_on,58,34,0
2,note_on,58,0,480
2,note_on,51,0,0
2,note_on,58,28,0
2,note_on,51,25,0
2,note_on,51,0,480
2,note_on,58,0,0
2,note_on,44,37,0
2,note_on,44,0,160
2,note_on,51,27,0
2,note_on,56,27,0
2,note_on,60,32,0
2,note_on,60,0,480
2,note_on,56,0,0
2,note_on,51,0,0
2,note_on,51,24,0
2,note_on,60,27,0
2,note_on,56,24,0
2,note_on,56,0,480
2,note_on,60,0,0
2,note_on,51,0,0
2,note_on,39,44,0
2,note_on,39,0,267
2,note_on,51,19,0
2,note_on,56,19,0
2,note_on,60,22,0
2,note_on,60,0,480
2,note_on,56,0,0
2,note_on,51,0,0
2,note_on,51,26,0
2,note_on,56,26,0
2,note_on,60,29,0
2,note_on,60,0,480
2,note_on,56,0,0
2,note_on,51,0,0
2,note_on,46,39,0
2,note_on,46,0,187
2,note_on,51,30,0
2,note_on,61,34,0
2,note_on,55,30,0
2,note_on,55,0,480
2,note_on,61,0,0
2,note_on,51,0,0
2,note_on,51,22,0
2,note_on,61,25,0
2,note_on,55,22,0
2,note_on,55,0,480
2,note_on,61,0,0
2,note_on,51,0,0
2,note_on,39,39,0
2,note_on,39,0,213
2,note_on,61,23,0
2,note_on,51,20,0
2,note_on,55,20,0
2,note_on,55,0,480
2,note_on,51,0,0
2,note_on,61,0,0
2,note_on,61,32,0
2,note_on,51,27,0
2,note_on,55,27,0
2,note_on,55,0,480
2,note_on,51,0,0
2,note_on,61,0,0
2,note_on,44,38,0
2,note_on,44,0,213
2,note_on,51,30,0
2,note_on,56,30,0
2,note_on,60,34,0
2,note_on,60,0,480
2,note_on,56,0,0
2,note_on,51,0,0
2,note_on,51,26,0
2,note_on,60,30,0
2,note_on,56,26,0
2,note_on,56,0,480
2,note_on,60,0,0
2,note_on,51,0,0
2,note_on,39,59,0
2,note_on,39,0,311
2,note_on,54,27,0
2,note_on,56,27,0
2,note_on,60,32,0
2,note_on,60,0,480
2,note_on,56,0,0
2,note_on,54,0,0
2,note_on,54,34,0
2,note_on,56,34,0
2,note_on,60,37,0
2,note_on,60,0,480
2,note_on,56,0,0
2,note_on,54,0,0
2,note_on,44,60,0
2,note_on,44,0,227
2,note_on,53,29,0
2,note_on,56,36,30
2,note_on,59,44,30
2,note_on,59,0,420
2,note_on,56,0,0
2,note_on,53,0,0
2,note_on,53,33,0
2,note_on,56,39,30
2,note_on,59,45,30
2,note_on,59,0,570
2,note_on,56,0,0
2,note_on,53,0,0
2,note_on,44,68,0
2,note_on,44,0,213
2,note_on,51,22,0
2,note_on,56,22,0
2,note_on,60,25,0
2,note_on,60,0,480
2,note_on,56,0,0
2,note_on,51,0,0
2,note_on,51,22,0
2,note_on,56,22,0
2,note_on,60,25,0
2,note_on,60,0,480
2,note_on,56,0,0
2,note_on,51,0,0
2,note_on,45,37,0
2,note_on,45,0,320
2,note_on,53,31,0
2,note_on,60,31,0
2,note_on,63,36,0
2,note_on,63,0,480
2,note_on,60,0,0
2,note_on,53,0,0
2,note_on,53,27,0
2,note_on,63,30,0
2,note_on,60,27,0
2,note_on,60,0,480
2,note_on,63,0,0
2,note_on,53,0,0
2,note_on,46,37,0
2,note_on,46,0,212
2,note_on,53,31,0
2,note_on,58,31,0
2,note_on,61,36,0
2,note_on,61,0,480
2,note_on,58,0,0
2,note_on,53,0,0
2,note_on,53,27,0
2,note_on,61,30,0
2,note_on,58,27,0
2,note_on,58,0,480
2,note_on,61,0,0
2,note_on,53,0,0
2,note_on,47,42,0
2,note_on,47,0,320
2,note_on,65,37,0
2,note_on,55,33,0
2,note_on,62,33,0
2,note_on,62,0,480
2,note_on,55,0,0
2,note_on,65,0,0
2,note_on,55,28,0
2,note_on,65,31,0
2,note_on,62,28,0
2,note_on,62,0,480
2,note_on,65,0,0
2,note_on,55,0,0
2,note_on,48,38,0
2,note_on,48,0,331
2,note_on,55,33,0
2,note_on,60,33,0
2,note_on,64,37,0
2,note_on,64,0,480
2,note_on,60,0,0
2,note_on,55,0,0
2,note_on,55,28,0
2,note_on,64,31,0
2,note_on,60,28,0
2,note_on,60,0,480
2,note_on,64,0,0
2,note_on,55,0,0
2,note_on,49,45,0
2,note_on,49,0,320
2,note_on,65,39,0
2,note_on,58,35,0
2,note_on,61,35,0
2,note_on,61,0,480
2,note_on,58,0,0
2,note_on,65,0,0
2,note_on,58,29,0
2,note_on,65,34,0
2,note_on,61,29,0
2,note_on,61,0,480
2,note_on,65,0,0
2,note_on,58,0,0
2,note_on,50,40,0
2,note_on,50,0,331
2,note_on,56,35,0
2,note_on,59,35,0
2,note_on,65,39,0
2,note_on,65,0,480
2,note_on,59,0,0
2,note_on,56,0,0
2,note_on,56,29,0
2,note_on,65,34,0
2,note_on,59,29,0
2,note_on,59,0,480
2,note_on,65,0,0
2,note_on,56,0,0
2,note_on,51,36,0
2,note_on,51,0,331
2,note_on,55,30,0
2,note_on,61,30,0
2,note_on,63,35,0
2,note_on,63,0,480
2,note_on,61,0,0
2,note_on,55,0,0
2,note_on,55,26,0
2,note_on,63,29,0
2,note_on,61,26,0
2,note_on,61,0,480
2,note_on,63,0,0
2,note_on,55,0,0
2,note_on,44,31,0
2,note_on,44,0,331
2,note_on,51,27,0
2,note_on,56,27,0
2,note_on,60,30,0
2,note_on,60,0,480
2,note_on,56,0,0
2,note_on,51,0,0
2,note_on,51,23,0
2,note_on,60,26,0
2,note_on,56,23,0
2,note_on,56,0,480
2,note_on,60,0,0
2,note_on,51,0,0
2,note_on,44,37,0
2,note_on,50,31,274
2,note_on,53,31,0
2,note_on,56,36,0
2,note_on,56,0,480
2,note_on,53,0,0
2,note_on,50,0,0
2,note_on,50,27,0
2,note_on,56,30,0
2,note_on,53,27,0
2,note_on,53,0,480
2,note_on,44,0,0
2,note_on,50,0,0
2,note_on,56,0,0
2,note_on,44,44,0
2,note_on,50,22,206
2,note_on,53,22,0
2,note_on,56,25,0
2,note_on,56,0,480
2,note_on,53,0,0
2,note_on,50,0,0
2,note_on,50,29,0
2,note_on,53,29,0
2,note_on,56,33,0
2,note_on,56,0,480
2,note_on,44,0,0
2,note_on,50,0,0
2,note_on,53,0,0
2,note_on,39,53,0
2,note_on,51,53,0
2,note_on,51,0,267
2,note_on,39,0,0
2,note_on,41,58,0
2,note_on,53,58,0
2,note_on,53,0,720
2,note_on,41,0,0
2,note_on,43,62,0
2,note_on,55,62,0
2,note_on,55,0,640
2,note_on,43,0,0
2,note_on,44,57,0
2,note_on,56,57,0
2,note_on,56,0,480
2,note_on,44,0,0
2,note_on,50,63,0
2,note_on,52,37,297
2,note_on,56,42,0
2,note_on,56,0,480
2,note_on,52,0,0
2,note_on,56,36,0
2,note_on,52,31,0
2,note_on,52,0,480
2,note_on,56,0,0
2,note_on,50,0,0
2,note_on,50,48,0
2,note_on,52,24,252
2,note_on,56,27,0
2,note_on,56,0,480
2,note_on,52,0,0
2,note_on,52,31,0
2,note_on,56,36,0
2,note_on,56,0,480
2,note_on,52,0,0
2,note_on,50,0,0
2,note_on,39,58,0
2,note_on,51,58,0
2,note_on,51,0,320
2,note_on,39,0,0
2,note_on,41,63,0
2,note_on,53,63,0
2,note_on,53,0,720
2,note_on,41,0,0
2,note_on,43,69,0
2,note_on,55,69,0
2,note_on,55,0,747
2,note_on,43,0,0
2,note_on,44,63,0
2,note_on,56,63,0
2,note_on,56,0,480
2,note_on,44,0,0
2,note_on,56,63,0
2,note_on,62,41,343
2,note_on,65,41,0
2,note_on,68,47,0
2,note_on,68,0,480
2,note_on,65,0,0
2,note_on,62,0,0
2,note_on,62,36,0
2,note_on,68,40,0
2,note_on,65,36,0
2,note_on,65,0,480
2,note_on,56,0,0
2,note_on,62,0,0
2,note_on,68,0,0
2,note_on,56,55,0
2,note_on,62,27,293
2,note_on,65,27,0
2,note_on,68,30,0
2,note_on,68,0,480
2,note_on,65,0,0
2,note_on,62,0,0
2,note_on,62,36,0
2,note_on,65,36,0
2,note_on,68,40,0
2,note_on,68,0,480
2,note_on,56,0,0
2,note_on,62,0,0
2,note_on,65,0,0
2,note_on,51,68,0
2,note_on,63,68,0
2,note_on,63,0,320
2,note_on,51,0,0
2,note_on,53,73,0
2,note_on,65,73,0
2,note_on,65,0,720
2,note_on,53,0,0
2,note_on,55,79,0
2,note_on,67,79,0
2,note_on,67,0,614
2,note_on,55,0,0
2,note_on,56,74,0
2,note_on,68,74,0
2,note_on,68,0,480
2,note_on,56,0,0
2,note_on,62,71,0
2,note_on,64,43,229
2,note_on,68,50,0
2,note_on,68,0,480
2,note_on,64,0,0
2,note_on,68,42,0
2,note_on,64,38,0
2,note_on,64,0,480
2,note_on,68,0,0
2,note_on,62,0,0
2,note_on,62,61,0
2,note_on,64,30,275
2,note_on,68,36,0
2,note_on,68,0,480
2,note_on,64,0,0
2,note_on,64,40,0
2,note_on,68,46,0
2,note_on,68,0,480
2,note_on,64,0,0
2,note_on,62,0,0
2,note_on,51,76,0
2,note_on,63,76,0
2,note_on,63,0,320
2,note_on,51,0,0
2,note_on,53,84,0
2,note_on,65,84,0
2,note_on,65,0,720
2,note_on,53,0,0
2,note_on,55,91,0
2,note_on,67,91,0
2,note_on,67,0,694
2,note_on,55,0,0
2,note_on,56,84,0
2,note_on,68,84,0
2,note_on,68,0,480
2,note_on,56,0,0
2,note_on,56,89,0
2,note_on,56,0,240
2,note_on,62,64,0
2,note_on,64,64,0
2,note_on,68,64,0
2,note_on,71,72,0
2,note_on,71,0,960
2,note_on,62,0,0
2,note_on,64,0,0
2,note_on,68,0,0
2,note_on,63,73,0
2,note_on,68,73,0
2,note_on,72,73,0
2,note_on,72,0,388
2,note_on,68,0,0
2,note_on,63,0,0
2,note_on,44,80,388
2,note_on,44,0,427
2,note_on,50,57,0
2,note_on,52,57,0
2,note_on,56,57,0
2,note_on,59,65,0
2,note_on,59,0,960
2,note_on,50,0,0
2,note_on,52,0,0
2,note_on,56,0,0
2,note_on,51,70,0
2,note_on,56,70,0
2,note_on,60,70,0
2,note_on,60,0,388
2,note_on,56,0,0
2,note_on,51,0,0
2,note_on,44,65,388
2,note_on,44,0,388
2,note_on,51,51,0
2,note_on,56,51,0
2,note_on,60,51,0
2,note_on,60,0,480
2,note_on,56,0,0
2,note_on,51,0,0
2,note_on,44,58,388
2,note_on,44,0,388
2,note_on,51,45,0
2,note_on,56,45,0
2,note_on,60,45,0
2,note_on,60,0,480
2,note_on,56,0,0
2,note_on,51,0,0
2,note_on,44,53,388
2,note_on,44,0,388
2,note_on,51,41,0
2,note_on,56,41,0
2,note_on,60,41,0
2,note_on,60,0,480
2,note_on,56,0,0
2,note_on,51,0,0
2,note_on,44,49,388
2,note_on,44,0,388
2,note_on,51,39,0
2,note_on,56,39,0
2,note_on,60,39,0
2,note_on,60,0,480
2,note_on,56,0,0
2,note_on,51,0,0
2,note_on,44,49,388
2,note_on,44,0,438
2,note_on,51,39,0
2,note_on,56,39,0
2,note_on,60,39,0
2,note_on,60,0,1440
2,note_on,56,0,0
2,note_on,51,0,0
2,note_on,56,35,0
2,note_on,60,35,0
2,note_on,63,35,0
2,note_on,63,0,120
2,note_on,60,0,0
2,note_on,56,0,0
2,note_on,56,35,360
2,note_on,60,35,0
2,note_on,63,35,0
2,note_on,63,0,120
2,note_on,60,0,0
2,note_on,56,0,0
2,note_on,56,37,0
2,note_on,60,37,0
2,note_on,63,37,0
2,note_on,63,0,120
2,note_on,60,0,0
2,note_on,56,0,0
2,note_on,68,35,360
2,note_on,72,35,0
2,note_on,75,35,0
2,note_on,75,0,120
2,note_on,72,0,0
2,note_on,68,0,0
2,note_on,68,35,360
2,note_on,72,35,0
2,note_on,75,35,0
2,note_on,75,0,120
2,note_on,72,0,0
2,note_on,68,0,0
2,note_on,68,39,360
2,note_on,72,39,0
2,note_on,75,39,0
2,note_on,75,0,120
2,note_on,72,0,0
2,note_on,68,0,0
