Track,Message Type,Note,Velocity,Time
1,note_on,62,40,2100
1,note_on,66,45,30
1,note_on,74,50,30
1,note_on,74,0,480
1,note_on,71,51,0
1,note_on,62,37,180
1,note_on,67,39,30
1,note_on,71,0,30
1,note_on,62,0,0
1,note_on,66,0,0
1,note_on,71,55,0
1,note_on,71,0,600
1,note_on,62,0,0
1,note_on,67,0,0
1,note_on,62,40,60
1,note_on,69,42,30
1,note_on,74,53,30
1,note_on,74,0,480
1,note_on,71,53,0
1,note_on,62,36,180
1,note_on,67,39,30
1,note_on,71,0,30
1,note_on,62,0,0
1,note_on,69,0,0
1,note_on,71,52,0
1,note_on,71,0,720
1,note_on,62,0,0
1,note_on,67,0,0
1,note_on,66,52,0
1,note_on,76,63,0
1,note_on,76,0,480
1,note_on,74,60,0
1,note_on,74,0,240
1,note_on,66,0,0
1,note_on,67,52,0
1,note_on,74,59,0
1,note_on,74,0,720
1,note_on,67,0,0
1,note_on,70,52,0
1,note_on,79,66,0
1,note_on,79,0,240
1,note_on,78,58,0
1,note_on,78,0,240
1,note_on,76,56,0
1,note_on,76,0,240
1,note_on,70,0,0
1,note_on,69,48,0
1,note_on,69,0,720
1,note_on,74,60,0
1,note_on,66,48,0
1,note_on,74,0,240
1,note_on,69,56,0
1,note_on,69,0,240
1,note_on,72,58,0
1,note_on,72,0,240
1,note_on,66,0,0
1,note_on,72,57,0
1,note_on,66,50,0
1,note_on,66,0,480
1,note_on,72,0,0
1,note_on,67,49,0
1,note_on,71,55,0
1,note_on,71,0,240
1,note_on,67,0,0
1,note_on,64,52,0
1,note_on,69,52,0
1,note_on,64,0,240
1,note_on,57,51,0
1,note_on,57,0,240
1,note_on,64,53,0
1,note_on,64,0,240
1,note_on,69,0,0
1,note_on,69,55,0
1,note_on,64,55,0
1,note_on,64,0,480
1,note_on,62,53,0
1,note_on,62,0,120
1,note_on,62,40,60
1,note_on,66,45,30
1,note_on,69,0,30
1,note_on,74,55,0
1,note_on,74,0,480
1,note_on,71,51,0
1,note_on,62,37,180
1,note_on,67,39,30
1,note_on,71,0,30
1,note_on,62,0,0
1,note_on,66,0,0
1,note_on,71,52,0
1,note_on,71,0,600
1,note_on,62,0,0
1,note_on,67,0,0
1,note_on,62,40,60
1,note_on,69,42,30
1,note_on,74,53,30
1,note_on,74,0,480
1,note_on,71,53,0
1,note_on,62,36,180
1,note_on,67,39,30
1,note_on,71,0,30
1,note_on,62,0,0
1,note_on,69,0,0
1,note_on,71,50,0
1,note_on,71,0,720
1,note_on,62,0,0
1,note_on,67,0,0
1,note_on,66,52,0
1,note_on,76,63,0
1,note_on,76,0,480
1,note_on,74,60,0
1,note_on,74,0,240
1,note_on,66,0,0
1,note_on,74,62,0
1,note_on,67,53,0
1,note_on,67,0,720
1,note_on,74,0,0
1,note_on,70,52,0
1,note_on,79,66,0
1,note_on,79,0,240
1,note_on,76,55,0
1,note_on,76,0,240
1,note_on,79,57,0
1,note_on,79,0,240
1,note_on,70,0,0
1,note_on,71,58,0
1,note_on,78,62,0
1,note_on,78,0,480
1,note_on,78,56,0
1,note_on,78,0,240
1,note_on,71,0,0
1,note_on,83,62,0
1,note_on,73,53,0
1,note_on,83,0,240
1,note_on,79,60,0
1,note_on,79,0,240
1,note_on,83,57,0
1,note_on,83,0,240
1,note_on,73,0,0
1,note_on,81,61,0
1,note_on,74,51,0
1,note_on,81,0,480
1,note_on,81,55,0
1,note_on,81,0,240
1,note_on,74,0,0
1,note_on,74,49,0
1,note_on,86,55,0
1,note_on,86,0,240
1,note_on,81,53,0
1,note_on,81,0,240
1,note_on,86,53,0
1,note_on,86,0,240
1,note_on,74,0,0
1,note_on,86,57,0
1,note_on,81,50,0
1,note_on,81,0,720
1,note_on,86,0,0
1,note_on,81,39,240
1,note_on,81,0,240
1,note_on,86,39,0
1,note_on,86,0,240
1,note_on,93,44,0
1,note_on,93,0,240
1,note_on,86,42,0
1,note_on,93,42,240
1,note_on,98,45,240
1,note_on,98,0,480
1,note_on,93,0,0
1,note_on,86,0,0
1,note_on,74,57,240
1,note_on,86,57,0
1,note_on,86,0,240
1,note_on,82,55,0
1,note_on,82,0,240
1,note_on,79,52,0
1,note_on,79,0,240
1,note_on,77,53,0
1,note_on,77,0,240
1,note_on,81,49,0
1,note_on,81,0,240
1,note_on,79,49,0
1,note_on,79,0,240
1,note_on,77,52,0
1,note_on,77,0,720
1,note_on,74,0,0
1,note_on,62,57,2160
1,note_on,74,57,0
1,note_on,74,0,240
1,note_on,70,55,0
1,note_on,70,0,240
1,note_on,67,52,0
1,note_on,67,0,240
1,note_on,65,53,0
1,note_on,65,0,240
1,note_on,69,49,0
1,note_on,69,0,240
1,note_on,67,46,0
1,note_on,67,0,240
1,note_on,65,51,0
1,note_on,65,0,720
1,note_on,62,0,0
1,note_on,57,55,2160
1,note_on,62,55,0
1,note_on,62,0,480
1,note_on,59,51,0
1,note_on,59,0,240
1,note_on,57,0,0
1,note_on,59,48,0
1,note_on,55,48,0
1,note_on,55,0,720
1,note_on,59,0,0
1,note_on,57,51,0
1,note_on,62,51,0
1,note_on,62,0,480
1,note_on,59,51,0
1,note_on,59,0,240
1,note_on,57,0,0
1,note_on,55,41,0
1,note_on,59,46,0
1,note_on,59,0,720
1,note_on,54,50,0
1,note_on,64,57,0
1,note_on,55,0,30
1,note_on,64,0,450
1,note_on,62,53,0
1,note_on,62,0,240
1,note_on,54,0,0
1,note_on,62,59,0
1,note_on,55,53,0
1,note_on,55,0,720
1,note_on,62,0,0
1,note_on,58,59,0
1,note_on,67,66,0
1,note_on,67,0,240
1,note_on,66,63,0
1,note_on,66,0,240
1,note_on,64,62,0
1,note_on,64,0,240
1,note_on,58,0,0
1,note_on,57,60,0
1,note_on,57,0,960
1,note_on,59,52,0
1,note_on,59,0,240
1,note_on,60,56,0
1,note_on,60,0,240
1,note_on,60,58,0
1,note_on,60,0,480
1,note_on,59,55,0
1,note_on,59,0,240
1,note_on,59,55,0
1,note_on,59,0,1440
1,note_on,59,57,0
1,note_on,59,0,480
1,note_on,57,53,0
1,note_on,57,0,240
1,note_on,57,52,0
1,note_on,57,0,1440
1,note_on,57,49,0
1,note_on,57,0,240
1,note_on,59,46,0
1,note_on,59,0,240
1,note_on,60,46,0
1,note_on,60,0,240
1,note_on,54,42,0
1,note_on,60,48,0
1,note_on,60,0,480
1,note_on,59,42,0
1,note_on,59,0,240
1,note_on,54,0,0
1,note_on,55,38,0
1,note_on,59,42,0
1,note_on,59,0,600
1,note_on,55,0,0
1,note_on,71,70,120
1,note_on,67,52,360
1,note_on,67,0,120
1,note_on,71,0,0
1,note_on,70,62,0
1,note_on,66,57,360
1,note_on,66,0,120
1,note_on,70,0,0
1,note_on,74,73,0
1,note_on,74,0,240
1,note_on,64,57,0
1,note_on,66,57,0
1,note_on,73,67,0
1,note_on,73,0,240
1,note_on,66,0,0
1,note_on,64,0,0
1,note_on,62,51,0
1,note_on,66,51,0
1,note_on,71,61,0
1,note_on,71,0,240
1,note_on,66,0,0
1,note_on,62,0,0
1,note_on,71,70,240
1,note_on,67,55,360
1,note_on,67,0,120
1,note_on,71,0,0
1,note_on,70,62,0
1,note_on,66,57,360
1,note_on,66,0,120
1,note_on,70,0,0
1,note_on,78,74,0
1,note_on,78,0,240
1,note_on,76,71,0
1,note_on,76,0,240
1,note_on,71,56,0
1,note_on,76,70,0
1,note_on,71,0,120
1,note_on,72,57,0
1,note_on,72,0,120
1,note_on,76,0,0
1,note_on,71,52,0
1,note_on,75,62,0
1,note_on,71,0,120
1,note_on,66,51,0
1,note_on,66,0,120
1,note_on,75,0,0
1,note_on,71,70,0
1,note_on,67,55,360
1,note_on,67,0,120
1,note_on,71,0,0
1,note_on,70,62,0
1,note_on,66,57,360
1,note_on,66,0,120
1,note_on,70,0,0
1,note_on,74,73,0
1,note_on,74,0,240
1,note_on,64,57,0
1,note_on,66,57,0
1,note_on,73,67,0
1,note_on,73,0,240
1,note_on,66,0,0
1,note_on,64,0,0
1,note_on,62,51,0
1,note_on,66,51,0
1,note_on,71,61,0
1,note_on,71,0,240
1,note_on,66,0,0
1,note_on,62,0,0
1,note_on,71,70,240
1,note_on,67,55,360
1,note_on,67,0,120
1,note_on,71,0,0
1,note_on,70,62,0
1,note_on,66,57,360
1,note_on,66,0,120
1,note_on,70,0,0
1,note_on,78,72,0
1,note_on,78,0,240
1,note_on,76,71,0
1,note_on,76,0,240
1,note_on,71,56,0
1,note_on,76,70,0
1,note_on,71,0,120
1,note_on,72,56,0
1,note_on,72,0,120
1,note_on,76,0,0
1,note_on,71,52,0
1,note_on,75,62,0
1,note_on,71,0,120
1,note_on,66,51,0
1,note_on,66,0,120
1,note_on,75,0,0
1,note_on,79,79,0
1,note_on,67,52,240
1,note_on,67,0,120
1,note_on,71,48,0
1,note_on,71,0,120
1,note_on,79,0,0
1,note_on,78,77,0
1,note_on,66,50,240
1,note_on,66,0,120
1,note_on,71,47,0
1,note_on,71,0,120
1,note_on,78,0,0
1,note_on,77,77,0
1,note_on,77,0,240
1,note_on,71,49,0
1,note_on,73,50,0
1,note_on,80,67,0
1,note_on,80,0,240
1,note_on,73,0,0
1,note_on,71,0,0
1,note_on,71,60,0
1,note_on,73,71,0
1,note_on,71,0,240
1,note_on,69,57,0
1,note_on,69,0,240
1,note_on,73,0,0
1,note_on,78,77,0
1,note_on,66,52,240
1,note_on,66,0,120
1,note_on,69,48,0
1,note_on,69,0,120
1,note_on,78,0,0
1,note_on,76,75,0
1,note_on,64,50,240
1,note_on,64,0,120
1,note_on,69,46,0
1,note_on,69,0,120
1,note_on,76,0,0
1,note_on,75,79,0
1,note_on,75,0,240
1,note_on,69,49,0
1,note_on,71,50,0
1,note_on,78,69,0
1,note_on,78,0,240
1,note_on,71,0,0
1,note_on,69,0,0
1,note_on,69,60,0
1,note_on,71,71,0
1,note_on,69,0,240
1,note_on,67,57,0
1,note_on,67,0,240
1,note_on,71,0,0
1,note_on,76,75,0
1,note_on,64,52,240
1,note_on,64,0,120
1,note_on,67,48,0
1,note_on,67,0,120
1,note_on,76,0,0
1,note_on,74,73,0
1,note_on,62,50,240
1,note_on,62,0,120
1,note_on,67,47,0
1,note_on,67,0,120
1,note_on,74,0,0
1,note_on,74,72,0
1,note_on,74,0,240
1,note_on,61,41,0
1,note_on,67,42,0
1,note_on,73,67,0
1,note_on,73,0,240
1,note_on,67,0,0
1,note_on,61,0,0
1,note_on,64,51,0
1,note_on,67,51,0
1,note_on,71,59,0
1,note_on,71,0,240
1,note_on,67,0,0
1,note_on,64,0,0
1,note_on,69,57,0
1,note_on,69,0,240
1,note_on,67,59,0
1,note_on,61,46,360
1,note_on,61,0,120
1,note_on,67,0,0
1,note_on,66,57,0
1,note_on,62,46,360
1,note_on,62,0,120
1,note_on,66,0,0
1,note_on,73,60,0
1,note_on,73,0,240
1,note_on,62,36,0
1,note_on,66,39,0
1,note_on,71,49,0
1,note_on,71,0,240
1,note_on,66,0,0
1,note_on,62,0,0
1,note_on,69,55,0
1,note_on,69,0,240
1,note_on,69,62,240
1,note_on,63,49,360
1,note_on,63,0,120
1,note_on,69,0,0
1,note_on,67,60,0
1,note_on,64,49,360
1,note_on,64,0,120
1,note_on,67,0,0
1,note_on,76,66,0
1,note_on,76,0,240
1,note_on,64,45,0
1,note_on,67,45,0
1,note_on,74,53,0
1,note_on,74,0,240
1,note_on,67,0,0
1,note_on,64,0,0
1,note_on,74,61,0
1,note_on,74,0,240
1,note_on,73,57,0
1,note_on,73,0,240
1,note_on,67,59,0
1,note_on,61,46,360
1,note_on,61,0,120
1,note_on,67,0,0
1,note_on,66,57,0
1,note_on,62,46,360
1,note_on,62,0,120
1,note_on,66,0,0
1,note_on,73,58,0
1,note_on,73,0,240
1,note_on,62,36,0
1,note_on,66,39,0
1,note_on,71,49,0
1,note_on,71,0,240
1,note_on,66,0,0
1,note_on,62,0,0
1,note_on,69,55,0
1,note_on,69,0,240
1,note_on,69,60,240
1,note_on,63,49,360
1,note_on,63,0,120
1,note_on,69,0,0
1,note_on,67,60,0
1,note_on,64,51,360
1,note_on,64,0,120
1,note_on,67,0,0
1,note_on,76,64,0
1,note_on,76,0,240
1,note_on,64,45,0
1,note_on,67,45,0
1,note_on,74,53,0
1,note_on,74,0,240
1,note_on,67,0,0
1,note_on,64,0,0
1,note_on,73,61,0
1,note_on,73,0,240
1,note_on,72,71,240
1,note_on,62,49,240
1,note_on,69,59,0
1,note_on,69,0,240
1,note_on,62,0,0
1,note_on,72,0,0
1,note_on,71,72,0
1,note_on,62,52,240
1,note_on,67,62,0
1,note_on,67,0,240
1,note_on,62,0,0
1,note_on,71,0,0
1,note_on,74,74,0
1,note_on,64,53,240
1,note_on,71,63,0
1,note_on,71,0,240
1,note_on,64,0,0
1,note_on,74,0,0
1,note_on,73,74,0
1,note_on,64,53,240
1,note_on,69,63,0
1,note_on,69,0,240
1,note_on,64,0,0
1,note_on,73,0,0
1,note_on,73,78,0
1,note_on,65,56,240
1,note_on,71,67,0
1,note_on,71,0,240
1,note_on,65,0,0
1,note_on,73,0,0
1,note_on,73,80,0
1,note_on,65,58,240
1,note_on,71,69,0
1,note_on,71,0,240
1,note_on,65,0,0
1,note_on,73,0,0
1,note_on,70,73,0
1,note_on,66,73,0
1,note_on,78,86,0
1,note_on,78,0,480
1,note_on,73,85,0
1,note_on,73,0,480
1,note_on,66,0,0
1,note_on,70,0,0
1,note_on,70,60,0
1,note_on,65,60,0
1,note_on,73,80,0
1,note_on,73,0,240
1,note_on,75,80,0
1,note_on,75,0,240
1,note_on,73,81,0
1,note_on,73,0,480
1,note_on,65,0,0
1,note_on,70,0,0
1,note_on,70,73,0
1,note_on,66,73,0
1,note_on,78,86,0
1,note_on,78,0,480
1,note_on,73,84,0
1,note_on,73,0,480
1,note_on,66,0,0
1,note_on,70,0,0
1,note_on,70,60,0
1,note_on,65,60,0
1,note_on,73,80,0
1,note_on,73,0,240
1,note_on,75,80,0
1,note_on,75,0,240
1,note_on,73,81,0
1,note_on,73,0,480
1,note_on,65,0,0
1,note_on,70,0,0
1,note_on,66,82,0
1,note_on,70,55,240
1,note_on,73,64,0
1,note_on,73,0,240
1,note_on,70,0,0
1,note_on,66,0,0
1,note_on,61,72,0
1,note_on,70,56,240
1,note_on,66,46,0
1,note_on,66,0,240
1,note_on,70,0,0
1,note_on,61,0,0
1,note_on,61,75,0
1,note_on,61,0,240
1,note_on,68,52,0
1,note_on,71,52,0
1,note_on,63,70,0
1,note_on,63,0,240
1,note_on,61,72,0
1,note_on,61,0,480
1,note_on,71,0,0
1,note_on,68,0,0
1,note_on,66,73,0
1,note_on,70,49,240
1,note_on,73,58,0
1,note_on,73,0,240
1,note_on,70,0,0
1,note_on,66,0,0
1,note_on,61,64,0
1,note_on,70,49,240
1,note_on,66,40,0
1,note_on,66,0,240
1,note_on,70,0,0
1,note_on,61,0,0
1,note_on,61,68,0
1,note_on,61,0,240
1,note_on,68,47,0
1,note_on,71,47,0
1,note_on,63,62,0
1,note_on,63,0,240
1,note_on,61,64,0
1,note_on,61,0,480
1,note_on,71,0,0
1,note_on,68,0,0
1,note_on,66,66,0
1,note_on,70,44,240
1,note_on,73,51,0
1,note_on,73,0,240
1,note_on,70,0,0
1,note_on,66,0,0
1,note_on,61,58,0
1,note_on,70,44,240
1,note_on,66,36,0
1,note_on,66,0,240
1,note_on,70,0,0
1,note_on,61,0,0
1,note_on,66,59,0
1,note_on,73,46,240
1,note_on,70,39,0
1,note_on,70,0,240
1,note_on,73,0,0
1,note_on,66,0,0
1,note_on,61,51,0
1,note_on,66,31,240
1,note_on,70,39,0
1,note_on,70,0,240
1,note_on,66,0,0
1,note_on,61,0,0
1,note_on,71,70,0
1,note_on,67,52,360
1,note_on,67,0,120
1,note_on,71,0,0
1,note_on,70,62,0
1,note_on,66,57,360
1,note_on,66,0,120
1,note_on,70,0,0
1,note_on,74,73,0
1,note_on,74,0,240
1,note_on,64,57,0
1,note_on,66,57,0
1,note_on,73,67,0
1,note_on,73,0,240
1,note_on,66,0,0
1,note_on,64,0,0
1,note_on,62,51,0
1,note_on,66,51,0
1,note_on,71,61,0
1,note_on,71,0,240
1,note_on,66,0,0
1,note_on,62,0,0
1,note_on,71,70,240
1,note_on,67,55,360
1,note_on,67,0,120
1,note_on,71,0,0
1,note_on,70,62,0
1,note_on,66,57,360
1,note_on,66,0,120
1,note_on,70,0,0
1,note_on,78,74,0
1,note_on,78,0,240
1,note_on,76,71,0
1,note_on,76,0,240
1,note_on,71,56,0
1,note_on,76,70,0
1,note_on,71,0,120
1,note_on,72,57,0
1,note_on,72,0,120
1,note_on,76,0,0
1,note_on,71,52,0
1,note_on,75,62,0
1,note_on,71,0,120
1,note_on,66,51,0
1,note_on,66,0,120
1,note_on,75,0,0
1,note_on,79,79,0
1,note_on,71,42,360
1,note_on,71,0,120
1,note_on,79,0,0
1,note_on,78,77,0
1,note_on,71,44,360
1,note_on,71,0,120
1,note_on,78,0,0
1,note_on,78,75,0
1,note_on,78,0,240
1,note_on,66,52,0
1,note_on,76,67,0
1,note_on,66,0,120
1,note_on,69,48,0
1,note_on,69,0,120
1,note_on,76,0,0
1,note_on,74,71,0
1,note_on,67,40,360
1,note_on,67,0,120
1,note_on,74,0,0
1,note_on,76,77,0
1,note_on,69,42,360
1,note_on,69,0,120
1,note_on,76,0,0
1,note_on,74,73,0
1,note_on,67,44,360
1,note_on,67,0,120
1,note_on,74,0,0
1,note_on,74,77,0
1,note_on,74,0,240
1,note_on,62,52,0
1,note_on,72,67,0
1,note_on,62,0,120
1,note_on,69,48,0
1,note_on,69,0,120
1,note_on,72,0,0
1,note_on,71,67,0
1,note_on,62,40,360
1,note_on,67,40,0
1,note_on,67,0,120
1,note_on,62,0,0
1,note_on,71,0,0
1,note_on,67,62,0
1,note_on,61,42,360
1,note_on,61,0,120
1,note_on,67,0,0
1,note_on,66,61,0
1,note_on,66,0,240
1,note_on,67,58,0
1,note_on,61,36,120
1,note_on,61,0,120
1,note_on,67,0,0
1,note_on,71,62,0
1,note_on,62,42,360
1,note_on,62,0,120
1,note_on,71,0,0
1,note_on,69,59,0
1,note_on,62,36,360
1,note_on,62,0,120
1,note_on,69,0,0
1,note_on,63,56,0
1,note_on,63,0,360
1,note_on,60,36,0
1,note_on,60,0,120
1,note_on,62,52,0
1,note_on,62,0,240
1,note_on,51,56,240
1,note_on,51,0,360
1,note_on,48,35,0
1,note_on,48,0,120
1,note_on,50,53,0
1,note_on,50,0,240
1,note_on,61,47,720
1,note_on,61,0,120
1,note_on,62,40,0
1,note_on,62,0,120
1,note_on,66,45,0
1,note_on,66,0,120
1,note_on,69,40,0
1,note_on,69,0,120
1,note_on,62,40,420
1,note_on,66,45,30
1,note_on,74,53,30
1,note_on,74,0,480
1,note_on,71,51,0
1,note_on,62,37,180
1,note_on,67,39,30
1,note_on,71,0,30
1,note_on,62,0,0
1,note_on,66,0,0
1,note_on,71,55,0
1,note_on,71,0,600
1,note_on,62,0,0
1,note_on,67,0,0
1,note_on,62,40,60
1,note_on,69,42,30
1,note_on,74,53,30
1,note_on,74,0,480
1,note_on,71,53,0
1,note_on,62,36,180
1,note_on,67,39,30
1,note_on,71,0,30
1,note_on,62,0,0
1,note_on,69,0,0
1,note_on,71,52,0
1,note_on,71,0,720
1,note_on,62,0,0
1,note_on,67,0,0
1,note_on,66,52,0
1,note_on,76,63,0
1,note_on,76,0,480
1,note_on,74,60,0
1,note_on,74,0,240
1,note_on,66,0,0
1,note_on,74,59,0
1,note_on,67,52,0
1,note_on,67,0,720
1,note_on,74,0,0
1,note_on,70,52,0
1,note_on,79,66,0
1,note_on,79,0,240
1,note_on,78,60,0
1,note_on,78,0,240
1,note_on,76,57,0
1,note_on,76,0,240
1,note_on,70,0,0
1,note_on,69,48,0
1,note_on,69,0,720
1,note_on,74,60,0
1,note_on,66,48,0
1,note_on,74,0,240
1,note_on,69,56,0
1,note_on,69,0,240
1,note_on,72,58,0
1,note_on,72,0,240
1,note_on,66,0,0
1,note_on,72,57,0
1,note_on,66,50,0
1,note_on,66,0,480
1,note_on,72,0,0
1,note_on,67,49,0
1,note_on,71,55,0
1,note_on,71,0,240
1,note_on,67,0,0
1,note_on,64,52,0
1,note_on,69,52,0
1,note_on,64,0,240
1,note_on,57,51,0
1,note_on,57,0,240
1,note_on,64,53,0
1,note_on,64,0,240
1,note_on,69,0,0
1,note_on,69,55,0
1,note_on,64,55,0
1,note_on,64,0,480
1,note_on,62,53,0
1,note_on,62,0,120
1,note_on,62,40,60
1,note_on,66,45,30
1,note_on,69,0,30
1,note_on,74,55,0
1,note_on,74,0,480
1,note_on,71,51,0
1,note_on,62,37,180
1,note_on,67,39,30
1,note_on,71,0,30
1,note_on,62,0,0
1,note_on,66,0,0
1,note_on,71,52,0
1,note_on,71,0,600
1,note_on,62,0,0
1,note_on,67,0,0
1,note_on,62,40,60
1,note_on,69,42,30
1,note_on,74,53,30
1,note_on,74,0,480
1,note_on,71,53,0
1,note_on,62,36,180
1,note_on,67,39,30
1,note_on,71,0,30
1,note_on,62,0,0
1,note_on,69,0,0
1,note_on,71,50,0
1,note_on,71,0,720
1,note_on,62,0,0
1,note_on,67,0,0
1,note_on,66,52,0
1,note_on,76,63,0
1,note_on,76,0,480
1,note_on,74,60,0
1,note_on,74,0,240
1,note_on,66,0,0
1,note_on,74,62,0
1,note_on,67,53,0
1,note_on,67,0,720
1,note_on,74,0,0
1,note_on,70,52,0
1,note_on,79,66,0
1,note_on,79,0,240
1,note_on,76,61,0
1,note_on,76,0,240
1,note_on,79,62,0
1,note_on,79,0,240
1,note_on,70,0,0
1,note_on,71,58,0
1,note_on,78,62,0
1,note_on,78,0,480
1,note_on,78,56,0
1,note_on,78,0,240
1,note_on,71,0,0
1,note_on,83,62,0
1,note_on,73,53,0
1,note_on,83,0,240
1,note_on,79,60,0
1,note_on,79,0,240
1,note_on,83,57,0
1,note_on,83,0,240
1,note_on,73,0,0
1,note_on,74,51,0
1,note_on,81,61,0
1,note_on,81,0,480
1,note_on,81,55,0
1,note_on,81,0,240
1,note_on,74,0,0
1,note_on,74,49,0
1,note_on,86,55,0
1,note_on,86,0,240
1,note_on,81,53,0
1,note_on,81,0,240
1,note_on,86,53,0
1,note_on,86,0,240
1,note_on,74,0,0
1,note_on,86,57,0
1,note_on,81,50,0
1,note_on,81,0,720
1,note_on,86,0,0
1,note_on,81,39,240
1,note_on,81,0,240
1,note_on,86,39,0
1,note_on,86,0,240
1,note_on,93,44,0
1,note_on,93,0,240
1,note_on,86,42,0
1,note_on,93,42,240
1,note_on,98,44,240
1,note_on,98,0,480
1,note_on,93,0,0
1,note_on,86,0,0
1,note_on,74,57,240
1,note_on,86,57,0
1,note_on,86,0,240
1,note_on,82,55,0
1,note_on,82,0,240
1,note_on,79,52,0
1,note_on,79,0,240
1,note_on,77,53,0
1,note_on,77,0,240
1,note_on,81,49,0
1,note_on,81,0,240
1,note_on,79,49,0
1,note_on,79,0,240
1,note_on,77,52,0
1,note_on,77,0,720
1,note_on,74,0,0
1,note_on,62,57,2160
1,note_on,74,57,0
1,note_on,74,0,240
1,note_on,70,55,0
1,note_on,70,0,240
1,note_on,67,52,0
1,note_on,67,0,240
1,note_on,65,53,0
1,note_on,65,0,240
1,note_on,69,49,0
1,note_on,69,0,240
1,note_on,67,49,0
1,note_on,67,0,240
1,note_on,65,51,0
1,note_on,65,0,720
1,note_on,62,0,0
1,note_on,57,55,2160
1,note_on,62,55,0
1,note_on,62,0,480
1,note_on,59,51,0
1,note_on,59,0,240
1,note_on,57,0,0
1,note_on,55,48,0
1,note_on,59,48,0
1,note_on,59,0,720
1,note_on,55,0,0
1,note_on,57,51,0
1,note_on,62,51,0
1,note_on,62,0,480
1,note_on,59,51,0
1,note_on,59,0,240
1,note_on,57,0,0
1,note_on,55,41,0
1,note_on,59,46,0
1,note_on,59,0,720
1,note_on,54,50,0
1,note_on,64,57,0
1,note_on,55,0,30
1,note_on,64,0,450
1,note_on,62,53,0
1,note_on,62,0,240
1,note_on,54,0,0
1,note_on,62,59,0
1,note_on,55,53,0
1,note_on,55,0,720
1,note_on,62,0,0
1,note_on,58,52,0
1,note_on,67,59,0
1,note_on,67,0,240
1,note_on,66,57,0
1,note_on,66,0,240
1,note_on,64,56,0
1,note_on,64,0,240
1,note_on,58,0,0
1,note_on,57,53,0
1,note_on,57,0,960
1,note_on,59,47,0
1,note_on,59,0,240
1,note_on,60,49,0
1,note_on,60,0,240
1,note_on,60,51,0
1,note_on,60,0,480
1,note_on,59,49,0
1,note_on,59,0,240
1,note_on,59,49,0
1,note_on,59,0,1440
1,note_on,59,45,0
1,note_on,59,0,480
1,note_on,57,42,0
1,note_on,57,0,240
1,note_on,57,41,0
1,note_on,57,0,1440
1,note_on,57,39,0
1,note_on,57,0,240
1,note_on,59,36,0
1,note_on,59,0,240
1,note_on,60,36,0
1,note_on,60,0,240
1,note_on,54,34,0
1,note_on,60,38,0
1,note_on,60,0,1200
1,note_on,59,34,0
1,note_on,59,0,240
1,note_on,54,0,0
1,note_on,55,29,0
1,note_on,59,34,0
1,note_on,59,0,2160
1,note_on,55,0,0
1,note_on,55,24,0
1,note_on,59,25,0
1,note_on,59,0,1440
1,note_on,55,0,0
2,note_on,50,33,28
2,note_on,57,37,30
2,note_on,52,31,690
2,note_on,55,36,30
2,note_on,57,0,90
2,note_on,50,0,0
2,note_on,52,0,81
2,note_on,55,0,0
2,note_on,54,36,0
2,note_on,57,44,30
2,note_on,55,33,667
2,note_on,59,36,30
2,note_on,57,0,90
2,note_on,54,0,0
2,note_on,55,0,537
2,note_on,59,0,0
2,note_on,60,47,0
2,note_on,57,41,0
2,note_on,57,0,409
2,note_on,60,0,0
2,note_on,59,41,0
2,note_on,62,46,0
2,note_on,62,0,494
2,note_on,59,0,0
2,note_on,64,48,0
2,note_on,61,42,0
2,note_on,61,0,565
2,note_on,64,0,0
2,note_on,67,51,0
2,note_on,62,51,0
2,note_on,67,0,99
2,note_on,66,50,0
2,note_on,66,0,240
2,note_on,64,49,0
2,note_on,64,0,240
2,note_on,62,0,0
2,note_on,57,48,0
2,note_on,50,42,0
2,note_on,50,0,593
2,note_on,57,0,0
2,note_on,51,39,0
2,note_on,57,45,0
2,note_on,57,0,353
2,note_on,51,0,0
2,note_on,52,34,0
2,note_on,55,38,0
2,note_on,55,0,240
2,note_on,52,0,0
2,note_on,49,33,0
2,note_on,55,40,367
2,note_on,55,0,240
2,note_on,49,0,0
2,note_on,50,39,0
2,note_on,55,45,0
2,note_on,55,0,353
2,note_on,54,40,0
2,note_on,54,0,120
2,note_on,50,33,0
2,note_on,57,37,30
2,note_on,50,0,60
2,note_on,52,31,600
2,note_on,55,36,30
2,note_on,57,0,90
2,note_on,50,0,0
2,note_on,52,0,533
2,note_on,55,0,0
2,note_on,50,36,0
2,note_on,57,44,23
2,note_on,55,33,611
2,note_on,59,36,30
2,note_on,57,0,90
2,note_on,50,0,0
2,note_on,55,0,565
2,note_on,59,0,0
2,note_on,57,41,0
2,note_on,60,47,0
2,note_on,60,0,409
2,note_on,57,0,0
2,note_on,62,49,0
2,note_on,59,44,0
2,note_on,59,0,494
2,note_on,62,0,0
2,note_on,61,40,0
2,note_on,64,51,0
2,note_on,64,0,565
2,note_on,61,0,0
2,note_on,62,44,0
2,note_on,66,49,0
2,note_on,66,0,480
2,note_on,62,0,0
2,note_on,64,41,0
2,note_on,67,47,0
2,note_on,67,0,424
2,note_on,64,0,0
2,note_on,69,47,0
2,note_on,66,41,0
2,note_on,66,0,551
2,note_on,69,0,0
2,note_on,66,34,0
2,note_on,69,39,0
2,note_on,69,0,480
2,note_on,66,0,0
2,note_on,66,26,0
2,note_on,74,44,0
2,note_on,74,0,240
2,note_on,69,41,0
2,note_on,74,41,240
2,note_on,74,0,240
2,note_on,74,48,0
2,note_on,74,0,1920
2,note_on,69,0,0
2,note_on,66,0,0
2,note_on,65,44,240
2,note_on,70,44,0
2,note_on,70,0,583
2,note_on,65,0,0
2,note_on,74,55,240
2,note_on,74,0,120
2,note_on,72,51,120
2,note_on,72,0,120
2,note_on,70,55,120
2,note_on,70,0,120
2,note_on,67,51,120
2,note_on,67,0,120
2,note_on,65,50,120
2,note_on,65,0,120
2,note_on,62,51,120
2,note_on,62,0,120
2,note_on,58,46,120
2,note_on,58,0,120
2,note_on,55,45,120
2,note_on,55,0,120
2,note_on,58,44,120
2,note_on,53,44,0
2,note_on,53,0,469
2,note_on,58,0,0
2,note_on,62,55,240
2,note_on,62,0,120
2,note_on,60,51,120
2,note_on,60,0,120
2,note_on,58,55,120
2,note_on,58,0,120
2,note_on,55,51,120
2,note_on,55,0,120
2,note_on,53,50,120
2,note_on,53,0,120
2,note_on,50,51,120
2,note_on,50,0,120
2,note_on,46,46,120
2,note_on,46,0,120
2,note_on,43,45,120
2,note_on,43,0,120
2,note_on,42,44,120
2,note_on,50,44,0
2,note_on,42,0,656
2,note_on,40,44,0
2,note_on,40,0,494
2,note_on,50,0,0
2,note_on,42,44,0
2,note_on,50,44,7
2,note_on,42,0,494
2,note_on,43,44,0
2,note_on,43,0,536
2,note_on,45,41,0
2,note_on,48,47,0
2,note_on,50,0,2
2,note_on,48,0,409
2,note_on,45,0,0
2,note_on,47,44,0
2,note_on,50,49,0
2,note_on,50,0,494
2,note_on,47,0,0
2,note_on,52,51,0
2,note_on,49,46,0
2,note_on,49,0,572
2,note_on,52,0,0
2,note_on,55,51,0
2,note_on,50,51,0
2,note_on,55,0,99
2,note_on,54,50,0
2,note_on,54,0,240
2,note_on,52,49,0
2,note_on,52,0,240
2,note_on,54,48,0
2,note_on,54,0,137
2,note_on,50,0,0
2,note_on,51,41,536
2,note_on,57,47,0
2,note_on,54,41,0
2,note_on,54,0,494
2,note_on,57,0,0
2,note_on,51,0,0
2,note_on,52,37,0
2,note_on,55,41,0
2,note_on,55,0,227
2,note_on,52,0,0
2,note_on,49,38,593
2,note_on,55,42,0
2,note_on,52,38,0
2,note_on,52,0,522
2,note_on,55,0,0
2,note_on,49,0,0
2,note_on,50,33,0
2,note_on,54,37,0
2,note_on,54,0,226
2,note_on,50,0,0
2,note_on,43,36,678
2,note_on,51,40,0
2,note_on,51,0,565
2,note_on,50,37,0
2,note_on,50,0,452
2,note_on,43,0,120
2,note_on,52,49,106
2,note_on,61,55,120
2,note_on,61,0,240
2,note_on,52,0,0
2,note_on,54,49,113
2,note_on,61,56,99
2,note_on,61,0,240
2,note_on,54,0,0
2,note_on,47,59,0
2,note_on,54,47,29
2,note_on,54,0,120
2,note_on,47,0,0
2,note_on,56,49,0
2,note_on,56,0,120
2,note_on,58,52,0
2,note_on,58,0,120
2,note_on,59,53,0
2,note_on,59,0,40
2,note_on,61,51,0
2,note_on,61,0,120
2,note_on,62,55,0
2,note_on,62,0,120
2,note_on,59,50,0
2,note_on,59,0,120
2,note_on,52,49,14
2,note_on,61,55,120
2,note_on,61,0,240
2,note_on,52,0,0
2,note_on,54,49,64
2,note_on,61,56,120
2,note_on,61,0,240
2,note_on,54,0,0
2,note_on,60,59,0
2,note_on,66,47,34
2,note_on,66,0,120
2,note_on,60,0,0
2,note_on,67,49,0
2,note_on,67,0,120
2,note_on,69,51,0
2,note_on,69,0,120
2,note_on,59,53,0
2,note_on,59,0,160
2,note_on,52,49,7
2,note_on,61,55,120
2,note_on,61,0,240
2,note_on,52,0,0
2,note_on,54,49,14
2,note_on,61,56,120
2,note_on,61,0,240
2,note_on,54,0,0
2,note_on,47,59,0
2,note_on,54,47,34
2,note_on,54,0,120
2,note_on,47,0,0
2,note_on,56,49,0
2,note_on,56,0,120
2,note_on,58,52,0
2,note_on,58,0,120
2,note_on,59,53,0
2,note_on,59,0,23
2,note_on,61,50,0
2,note_on,61,0,120
2,note_on,62,53,0
2,note_on,62,0,120
2,note_on,59,51,0
2,note_on,59,0,120
2,note_on,52,49,50
2,note_on,61,55,120
2,note_on,61,0,240
2,note_on,52,0,0
2,note_on,54,49,21
2,note_on,61,56,120
2,note_on,61,0,240
2,note_on,54,0,0
2,note_on,60,59,0
2,note_on,66,47,46
2,note_on,66,0,120
2,note_on,60,0,0
2,note_on,67,49,0
2,note_on,67,0,120
2,note_on,69,52,0
2,note_on,69,0,120
2,note_on,59,53,0
2,note_on,59,0,160
2,note_on,52,52,120
2,note_on,52,0,99
2,note_on,59,49,0
2,note_on,59,0,120
2,note_on,64,42,0
2,note_on,64,0,120
2,note_on,50,53,35
2,note_on,50,0,120
2,note_on,59,50,0
2,note_on,59,0,120
2,note_on,62,44,0
2,note_on,62,0,120
2,note_on,49,49,68
2,note_on,49,0,120
2,note_on,61,52,0
2,note_on,61,0,120
2,note_on,65,48,0
2,note_on,65,0,120
2,note_on,54,41,29
2,note_on,54,0,120
2,note_on,61,48,0
2,note_on,61,0,120
2,note_on,66,40,0
2,note_on,66,0,120
2,note_on,49,52,46
2,note_on,49,0,120
2,note_on,57,49,0
2,note_on,57,0,120
2,note_on,61,44,0
2,note_on,61,0,120
2,note_on,48,53,23
2,note_on,48,0,120
2,note_on,54,50,0
2,note_on,54,0,120
2,note_on,60,45,0
2,note_on,60,0,120
2,note_on,47,49,7
2,note_on,47,0,120
2,note_on,54,52,0
2,note_on,54,0,120
2,note_on,59,49,0
2,note_on,59,0,120
2,note_on,52,46,28
2,note_on,52,0,120
2,note_on,59,51,0
2,note_on,59,0,120
2,note_on,64,47,0
2,note_on,64,0,120
2,note_on,50,49,0
2,note_on,50,0,120
2,note_on,55,48,0
2,note_on,55,0,120
2,note_on,59,42,0
2,note_on,59,0,120
2,note_on,46,49,29
2,note_on,46,0,120
2,note_on,52,47,0
2,note_on,52,0,120
2,note_on,58,41,0
2,note_on,58,0,120
2,note_on,45,44,114
2,note_on,45,0,106
2,note_on,52,48,0
2,note_on,52,0,120
2,note_on,57,42,0
2,note_on,57,0,120
2,note_on,62,49,28
2,note_on,62,0,240
2,note_on,61,46,0
2,note_on,61,0,120
2,note_on,45,41,21
2,note_on,58,46,120
2,note_on,58,0,240
2,note_on,45,0,0
2,note_on,45,41,14
2,note_on,57,47,120
2,note_on,57,0,240
2,note_on,45,0,0
2,note_on,45,35,21
2,note_on,45,0,120
2,note_on,50,41,0
2,note_on,50,0,120
2,note_on,54,39,0
2,note_on,54,0,120
2,note_on,57,40,0
2,note_on,57,0,28
2,note_on,62,40,0
2,note_on,62,0,120
2,note_on,66,42,0
2,note_on,66,0,120
2,note_on,69,39,0
2,note_on,69,0,115
2,note_on,45,41,40
2,note_on,60,47,120
2,note_on,60,0,240
2,note_on,45,0,0
2,note_on,45,40,6
2,note_on,59,45,120
2,note_on,59,0,240
2,note_on,45,0,0
2,note_on,45,39,34
2,note_on,45,0,120
2,note_on,52,42,0
2,note_on,52,0,120
2,note_on,55,38,0
2,note_on,55,0,120
2,note_on,58,39,0
2,note_on,58,0,29
2,note_on,64,41,0
2,note_on,64,0,120
2,note_on,67,44,0
2,note_on,67,0,120
2,note_on,57,39,0
2,note_on,57,0,120
2,note_on,45,41,28
2,note_on,58,46,120
2,note_on,58,0,240
2,note_on,45,0,0
2,note_on,45,41,110
2,note_on,57,47,92
2,note_on,57,0,240
2,note_on,45,0,0
2,note_on,45,35,35
2,note_on,45,0,120
2,note_on,50,41,0
2,note_on,50,0,120
2,note_on,54,39,0
2,note_on,54,0,120
2,note_on,57,40,0
2,note_on,57,0,21
2,note_on,62,39,0
2,note_on,62,0,120
2,note_on,66,42,0
2,note_on,66,0,120
2,note_on,69,39,0
2,note_on,69,0,115
2,note_on,45,41,29
2,note_on,60,47,120
2,note_on,60,0,240
2,note_on,45,0,0
2,note_on,45,40,11
2,note_on,59,45,120
2,note_on,59,0,240
2,note_on,45,0,0
2,note_on,45,39,23
2,note_on,45,0,120
2,note_on,52,42,0
2,note_on,52,0,120
2,note_on,55,38,0
2,note_on,55,0,120
2,note_on,58,39,0
2,note_on,58,0,40
2,note_on,64,41,0
2,note_on,64,0,120
2,note_on,67,44,0
2,note_on,67,0,120
2,note_on,70,39,0
2,note_on,70,0,120
2,note_on,45,45,120
2,note_on,45,0,92
2,note_on,54,48,0
2,note_on,54,0,120
2,note_on,57,45,0
2,note_on,57,0,120
2,note_on,45,45,0
2,note_on,45,0,120
2,note_on,55,48,0
2,note_on,55,0,120
2,note_on,59,45,0
2,note_on,59,0,120
2,note_on,45,47,17
2,note_on,45,0,120
2,note_on,56,50,0
2,note_on,56,0,120
2,note_on,59,50,0
2,note_on,59,0,120
2,note_on,45,47,57
2,note_on,45,0,120
2,note_on,57,50,0
2,note_on,57,0,120
2,note_on,61,47,0
2,note_on,61,0,120
2,note_on,44,49,115
2,note_on,44,0,97
2,note_on,56,53,0
2,note_on,56,0,120
2,note_on,61,49,0
2,note_on,61,0,120
2,note_on,44,53,6
2,note_on,44,0,120
2,note_on,56,57,0
2,note_on,56,0,120
2,note_on,61,53,0
2,note_on,61,0,120
2,note_on,42,60,120
2,note_on,42,0,85
2,note_on,49,62,0
2,note_on,49,0,120
2,note_on,54,60,0
2,note_on,54,0,120
2,note_on,49,60,104
2,note_on,49,0,113
2,note_on,54,62,0
2,note_on,54,0,120
2,note_on,61,57,0
2,note_on,61,0,120
2,note_on,42,59,46
2,note_on,42,0,120
2,note_on,49,63,0
2,note_on,49,0,120
2,note_on,56,58,0
2,note_on,56,0,120
2,note_on,49,57,51
2,note_on,49,0,120
2,note_on,56,62,0
2,note_on,56,0,120
2,note_on,61,58,0
2,note_on,61,0,120
2,note_on,42,60,7
2,note_on,42,0,120
2,note_on,49,62,0
2,note_on,49,0,120
2,note_on,54,60,0
2,note_on,54,0,120
2,note_on,49,60,21
2,note_on,49,0,120
2,note_on,54,62,0
2,note_on,54,0,120
2,note_on,61,57,0
2,note_on,61,0,120
2,note_on,42,59,34
2,note_on,42,0,120
2,note_on,49,63,0
2,note_on,49,0,120
2,note_on,56,58,0
2,note_on,56,0,120
2,note_on,49,57,23
2,note_on,49,0,120
2,note_on,56,62,0
2,note_on,56,0,120
2,note_on,61,58,0
2,note_on,61,0,120
2,note_on,42,57,14
2,note_on,42,0,120
2,note_on,49,59,0
2,note_on,49,0,120
2,note_on,54,57,0
2,note_on,54,0,120
2,note_on,49,57,42
2,note_on,49,0,120
2,note_on,54,59,0
2,note_on,54,0,120
2,note_on,61,53,0
2,note_on,61,0,115
2,note_on,42,56,46
2,note_on,42,0,120
2,note_on,49,60,0
2,note_on,49,0,120
2,note_on,53,55,0
2,note_on,53,0,120
2,note_on,49,53,46
2,note_on,49,0,120
2,note_on,53,59,0
2,note_on,53,0,120
2,note_on,59,55,0
2,note_on,59,0,120
2,note_on,42,45,0
2,note_on,42,0,120
2,note_on,49,47,0
2,note_on,49,0,120
2,note_on,54,45,0
2,note_on,54,0,120
2,note_on,49,45,28
2,note_on,49,0,120
2,note_on,54,47,0
2,note_on,54,0,120
2,note_on,61,42,0
2,note_on,61,0,115
2,note_on,42,44,11
2,note_on,42,0,120
2,note_on,49,48,0
2,note_on,49,0,120
2,note_on,53,44,0
2,note_on,53,0,120
2,note_on,49,42,40
2,note_on,49,0,120
2,note_on,53,47,0
2,note_on,53,0,120
2,note_on,59,44,0
2,note_on,59,0,120
2,note_on,42,39,21
2,note_on,42,0,120
2,note_on,49,41,0
2,note_on,54,39,109
2,note_on,49,0,11
2,note_on,54,0,109
2,note_on,49,39,14
2,note_on,49,0,120
2,note_on,54,41,0
2,note_on,54,0,120
2,note_on,61,38,0
2,note_on,61,0,120
2,note_on,42,35,7
2,note_on,42,0,120
2,note_on,49,37,0
2,note_on,49,0,120
2,note_on,54,35,0
2,note_on,54,0,120
2,note_on,49,35,14
2,note_on,49,0,120
2,note_on,54,37,0
2,note_on,54,0,120
2,note_on,61,34,0
2,note_on,61,0,120
2,note_on,52,49,7
2,note_on,61,55,120
2,note_on,61,0,240
2,note_on,52,0,0
2,note_on,54,49,7
2,note_on,61,56,120
2,note_on,61,0,240
2,note_on,54,0,0
2,note_on,47,59,0
2,note_on,54,47,29
2,note_on,54,0,120
2,note_on,47,0,0
2,note_on,56,49,0
2,note_on,56,0,120
2,note_on,58,52,0
2,note_on,58,0,120
2,note_on,59,53,0
2,note_on,59,0,23
2,note_on,61,51,0
2,note_on,61,0,120
2,note_on,62,55,0
2,note_on,62,0,120
2,note_on,59,50,0
2,note_on,59,0,120
2,note_on,52,49,0
2,note_on,61,55,120
2,note_on,61,0,240
2,note_on,52,0,0
2,note_on,54,49,0
2,note_on,61,56,120
2,note_on,61,0,240
2,note_on,54,0,0
2,note_on,60,59,0
2,note_on,66,47,34
2,note_on,66,0,120
2,note_on,60,0,0
2,note_on,67,49,0
2,note_on,67,0,120
2,note_on,69,51,0
2,note_on,69,0,120
2,note_on,59,53,0
2,note_on,59,0,137
2,note_on,64,52,14
2,note_on,67,49,120
2,note_on,67,0,240
2,note_on,64,0,0
2,note_on,62,53,42
2,note_on,66,50,120
2,note_on,66,0,240
2,note_on,62,0,0
2,note_on,60,49,14
2,note_on,62,49,120
2,note_on,62,0,240
2,note_on,60,0,0
2,note_on,59,41,0
2,note_on,62,48,120
2,note_on,62,0,240
2,note_on,59,0,0
2,note_on,60,52,28
2,note_on,66,49,120
2,note_on,66,0,240
2,note_on,60,0,0
2,note_on,59,53,7
2,note_on,62,50,120
2,note_on,62,0,240
2,note_on,59,0,0
2,note_on,54,49,113
2,note_on,57,49,113
2,note_on,57,0,240
2,note_on,54,0,0
2,note_on,53,41,0
2,note_on,55,48,120
2,note_on,55,0,240
2,note_on,53,0,0
2,note_on,52,44,28
2,note_on,55,44,120
2,note_on,55,0,240
2,note_on,52,0,0
2,note_on,51,37,42
2,note_on,55,42,120
2,note_on,55,0,240
2,note_on,51,0,0
2,note_on,50,44,111
2,note_on,55,44,92
2,note_on,55,0,240
2,note_on,50,0,0
2,note_on,50,37,28
2,note_on,54,42,120
2,note_on,54,0,240
2,note_on,50,0,0
2,note_on,55,37,23
2,note_on,57,42,120
2,note_on,57,0,240
2,note_on,55,0,0
2,note_on,54,35,103
2,note_on,54,0,114
2,note_on,57,38,0
2,note_on,57,0,120
2,note_on,62,35,0
2,note_on,62,0,120
2,note_on,43,37,86
2,note_on,45,42,80
2,note_on,45,0,240
2,note_on,43,0,0
2,note_on,42,35,11
2,note_on,42,0,120
2,note_on,45,38,0
2,note_on,45,0,120
2,note_on,50,35,0
2,note_on,50,0,120
2,note_on,53,42,0
2,note_on,53,0,57
2,note_on,54,40,0
2,note_on,54,0,120
2,note_on,56,42,0
2,note_on,56,0,120
2,note_on,57,38,0
2,note_on,57,0,120
2,note_on,50,33,456
2,note_on,57,37,30
2,note_on,52,31,600
2,note_on,55,36,30
2,note_on,57,0,90
2,note_on,50,0,0
2,note_on,52,0,529
2,note_on,55,0,0
2,note_on,54,36,0
2,note_on,57,44,16
2,note_on,55,33,533
2,note_on,59,36,30
2,note_on,57,0,90
2,note_on,54,0,0
2,note_on,55,0,536
2,note_on,59,0,0
2,note_on,60,47,0
2,note_on,57,41,0
2,note_on,57,0,409
2,note_on,60,0,0
2,note_on,62,46,0
2,note_on,59,41,0
2,note_on,59,0,494
2,note_on,62,0,0
2,note_on,64,48,0
2,note_on,61,42,0
2,note_on,61,0,537
2,note_on,64,0,0
2,note_on,62,51,0
2,note_on,67,51,0
2,note_on,67,0,99
2,note_on,66,50,0
2,note_on,66,0,240
2,note_on,64,49,0
2,note_on,64,0,240
2,note_on,62,0,0
2,note_on,50,42,0
2,note_on,57,48,0
2,note_on,57,0,494
2,note_on,50,0,0
2,note_on,51,39,0
2,note_on,57,45,0
2,note_on,57,0,353
2,note_on,51,0,0
2,note_on,52,34,0
2,note_on,55,38,0
2,note_on,55,0,240
2,note_on,52,0,0
2,note_on,49,33,0
2,note_on,55,40,367
2,note_on,55,0,240
2,note_on,49,0,0
2,note_on,50,39,0
2,note_on,55,45,0
2,note_on,55,0,353
2,note_on,54,40,0
2,note_on,54,0,107
2,note_on,50,33,0
2,note_on,57,37,30
2,note_on,50,0,60
2,note_on,52,31,600
2,note_on,55,36,30
2,note_on,57,0,11
2,note_on,50,0,0
2,note_on,52,0,529
2,note_on,55,0,0
2,note_on,54,36,0
2,note_on,57,44,23
2,note_on,55,33,625
2,note_on,59,36,30
2,note_on,57,0,90
2,note_on,54,0,0
2,note_on,55,0,522
2,note_on,59,0,0
2,note_on,60,47,0
2,note_on,57,41,0
2,note_on,57,0,409
2,note_on,60,0,0
2,note_on,62,49,0
2,note_on,59,44,0
2,note_on,59,0,494
2,note_on,62,0,0
2,note_on,64,51,0
2,note_on,61,40,0
2,note_on,61,0,537
2,note_on,64,0,0
2,note_on,62,44,0
2,note_on,66,49,0
2,note_on,66,0,494
2,note_on,62,0,0
2,note_on,64,41,0
2,note_on,67,47,0
2,note_on,67,0,565
2,note_on,64,0,0
2,note_on,66,41,0
2,note_on,69,47,0
2,note_on,69,0,551
2,note_on,66,0,0
2,note_on,66,34,0
2,note_on,69,39,0
2,note_on,69,0,494
2,note_on,66,0,0
2,note_on,66,26,0
2,note_on,74,44,0
2,note_on,74,0,240
2,note_on,69,41,0
2,note_on,74,41,240
2,note_on,74,0,240
2,note_on,74,48,0
2,note_on,74,0,1920
2,note_on,69,0,0
2,note_on,66,0,0
2,note_on,70,44,240
2,note_on,65,44,0
2,note_on,65,0,503
2,note_on,70,0,0
2,note_on,74,55,240
2,note_on,74,0,120
2,note_on,72,51,120
2,note_on,72,0,120
2,note_on,70,55,120
2,note_on,70,0,120
2,note_on,67,51,120
2,note_on,67,0,120
2,note_on,65,50,120
2,note_on,65,0,120
2,note_on,62,51,120
2,note_on,62,0,120
2,note_on,58,46,120
2,note_on,58,0,120
2,note_on,55,45,120
2,note_on,55,0,120
2,note_on,58,44,120
2,note_on,53,44,0
2,note_on,53,0,583
2,note_on,58,0,0
2,note_on,62,55,240
2,note_on,62,0,120
2,note_on,60,51,120
2,note_on,60,0,120
2,note_on,58,55,120
2,note_on,58,0,120
2,note_on,55,51,120
2,note_on,55,0,120
2,note_on,53,50,120
2,note_on,53,0,120
2,note_on,50,51,120
2,note_on,50,0,120
2,note_on,46,46,120
2,note_on,46,0,120
2,note_on,43,45,120
2,note_on,43,0,120
2,note_on,42,44,120
2,note_on,50,44,0
2,note_on,42,0,656
2,note_on,40,44,0
2,note_on,40,0,480
2,note_on,50,0,0
2,note_on,42,44,0
2,note_on,50,44,7
2,note_on,42,0,452
2,note_on,43,44,0
2,note_on,43,0,438
2,note_on,48,47,0
2,note_on,45,41,0
2,note_on,50,0,7
2,note_on,45,0,409
2,note_on,48,0,0
2,note_on,50,49,0
2,note_on,47,44,0
2,note_on,47,0,409
2,note_on,50,0,0
2,note_on,52,51,0
2,note_on,49,46,0
2,note_on,49,0,583
2,note_on,52,0,0
2,note_on,50,46,0
2,note_on,55,46,0
2,note_on,55,0,99
2,note_on,54,45,0
2,note_on,54,0,240
2,note_on,52,44,0
2,note_on,52,0,240
2,note_on,54,42,0
2,note_on,54,0,91
2,note_on,50,0,0
2,note_on,51,37,508
2,note_on,54,37,0
2,note_on,57,41,0
2,note_on,57,0,480
2,note_on,54,0,0
2,note_on,51,0,0
2,note_on,52,33,0
2,note_on,55,37,0
2,note_on,55,0,236
2,note_on,52,0,0
2,note_on,49,29,593
2,note_on,52,29,0
2,note_on,55,34,0
2,note_on,55,0,522
2,note_on,52,0,0
2,note_on,49,0,0
2,note_on,50,26,0
2,note_on,54,29,0
2,note_on,54,0,226
2,note_on,50,0,0
2,note_on,51,31,678
2,note_on,43,27,480
2,note_on,51,0,720
2,note_on,50,29,0
2,note_on,43,0,480
2,note_on,43,26,0
2,note_on,43,0,720
2,note_on,43,26,0
2,note_on,50,0,720
2,note_on,50,21,0
2,note_on,50,0,1440
2,note_on,43,0,0
