Track,Message Type,Note,Velocity,Time
1,note_on,73,68,0
1,note_on,73,0,240
1,note_on,71,62,0
1,note_on,71,0,240
1,note_on,76,63,0
1,note_on,68,44,480
1,note_on,71,44,0
1,note_on,71,0,480
1,note_on,68,0,0
1,note_on,76,0,0
1,note_on,80,67,0
1,note_on,80,0,240
1,note_on,83,63,0
1,note_on,83,0,240
1,note_on,85,69,0
1,note_on,85,0,240
1,note_on,83,62,0
1,note_on,83,0,240
1,note_on,80,64,0
1,note_on,71,44,480
1,note_on,68,44,0
1,note_on,68,0,480
1,note_on,71,0,0
1,note_on,80,0,0
1,note_on,76,63,0
1,note_on,76,0,240
1,note_on,73,60,0
1,note_on,73,0,240
1,note_on,80,63,0
1,note_on,80,0,240
1,note_on,78,59,0
1,note_on,78,0,240
1,note_on,73,62,0
1,note_on,66,44,480
1,note_on,69,44,0
1,note_on,69,0,480
1,note_on,66,0,0
1,note_on,73,0,0
1,note_on,73,61,0
1,note_on,73,0,240
1,note_on,71,57,0
1,note_on,71,0,240
1,note_on,78,62,0
1,note_on,78,0,240
1,note_on,76,57,0
1,note_on,76,0,240
1,note_on,71,58,0
1,note_on,68,44,480
1,note_on,64,44,0
1,note_on,64,0,480
1,note_on,68,0,0
1,note_on,71,0,0
1,note_on,70,61,0
1,note_on,70,0,240
1,note_on,71,59,0
1,note_on,71,0,240
1,note_on,73,68,0
1,note_on,73,0,240
1,note_on,71,62,0
1,note_on,71,0,240
1,note_on,76,63,0
1,note_on,68,44,480
1,note_on,71,44,0
1,note_on,71,0,480
1,note_on,68,0,0
1,note_on,76,0,0
1,note_on,80,67,0
1,note_on,80,0,240
1,note_on,83,63,0
1,note_on,83,0,240
1,note_on,85,69,0
1,note_on,85,0,240
1,note_on,83,62,0
1,note_on,83,0,240
1,note_on,80,64,0
1,note_on,68,44,480
1,note_on,71,44,0
1,note_on,71,0,480
1,note_on,68,0,0
1,note_on,80,0,0
1,note_on,76,63,0
1,note_on,76,0,240
1,note_on,73,60,0
1,note_on,73,0,240
1,note_on,71,63,0
1,note_on,71,0,240
1,note_on,75,59,0
1,note_on,75,0,240
1,note_on,83,62,0
1,note_on,75,44,480
1,note_on,71,44,0
1,note_on,71,0,480
1,note_on,75,0,0
1,note_on,83,0,0
1,note_on,82,61,0
1,note_on,82,0,240
1,note_on,80,57,0
1,note_on,80,0,240
1,note_on,76,57,0
1,note_on,76,0,480
1,note_on,70,44,0
1,note_on,67,44,0
1,note_on,75,57,0
1,note_on,75,0,240
1,note_on,73,53,0
1,note_on,73,0,240
1,note_on,67,0,0
1,note_on,70,0,0
1,note_on,73,57,0
1,note_on,63,40,0
1,note_on,68,40,0
1,note_on,73,0,240
1,note_on,71,52,0
1,note_on,71,0,240
1,note_on,68,0,0
1,note_on,63,0,0
1,note_on,59,37,0
1,note_on,70,52,0
1,note_on,63,38,0
1,note_on,70,0,240
1,note_on,68,52,0
1,note_on,68,0,240
1,note_on,63,0,0
1,note_on,59,0,0
1,note_on,69,64,0
1,note_on,69,0,240
1,note_on,65,60,0
1,note_on,65,0,240
1,note_on,66,64,0
1,note_on,61,39,600
1,note_on,61,0,120
1,note_on,66,0,0
1,note_on,66,39,0
1,note_on,66,0,120
1,note_on,69,42,0
1,note_on,69,0,120
1,note_on,78,67,0
1,note_on,78,0,240
1,note_on,76,63,0
1,note_on,76,0,240
1,note_on,76,67,0
1,note_on,76,0,240
1,note_on,74,63,0
1,note_on,74,0,240
1,note_on,75,66,0
1,note_on,63,39,600
1,note_on,63,0,120
1,note_on,66,39,0
1,note_on,66,0,120
1,note_on,69,42,0
1,note_on,69,0,120
1,note_on,75,0,0
1,note_on,73,67,0
1,note_on,73,0,240
1,note_on,71,67,0
1,note_on,71,0,240
1,note_on,69,64,0
1,note_on,69,0,240
1,note_on,65,60,0
1,note_on,65,0,240
1,note_on,66,64,0
1,note_on,61,46,600
1,note_on,61,0,120
1,note_on,66,0,0
1,note_on,66,50,0
1,note_on,66,0,120
1,note_on,69,55,0
1,note_on,69,0,120
1,note_on,81,68,0
1,note_on,81,0,160
1,note_on,80,64,0
1,note_on,80,0,160
1,note_on,78,63,0
1,note_on,78,0,160
1,note_on,76,68,0
1,note_on,76,0,240
1,note_on,63,35,0
1,note_on,69,35,0
1,note_on,75,60,0
1,note_on,75,0,240
1,note_on,69,0,0
1,note_on,63,0,0
1,note_on,73,68,0
1,note_on,73,0,240
1,note_on,64,35,0
1,note_on,69,35,0
1,note_on,75,59,0
1,note_on,75,0,240
1,note_on,69,0,0
1,note_on,64,0,0
1,note_on,73,63,0
1,note_on,73,0,240
1,note_on,71,56,0
1,note_on,65,35,0
1,note_on,65,0,240
1,note_on,71,0,0
1,note_on,70,59,0
1,note_on,70,0,240
1,note_on,66,35,0
1,note_on,71,57,0
1,note_on,71,0,240
1,note_on,66,0,0
1,note_on,69,64,0
1,note_on,69,0,240
1,note_on,65,60,0
1,note_on,65,0,240
1,note_on,66,64,0
1,note_on,61,39,600
1,note_on,61,0,120
1,note_on,66,0,0
1,note_on,66,39,0
1,note_on,66,0,120
1,note_on,69,42,0
1,note_on,69,0,120
1,note_on,78,67,0
1,note_on,78,0,240
1,note_on,76,63,0
1,note_on,76,0,240
1,note_on,76,67,0
1,note_on,76,0,240
1,note_on,74,63,0
1,note_on,74,0,240
1,note_on,75,66,0
1,note_on,63,39,600
1,note_on,63,0,120
1,note_on,66,39,0
1,note_on,66,0,120
1,note_on,69,42,0
1,note_on,69,0,120
1,note_on,75,0,0
1,note_on,73,67,0
1,note_on,73,0,240
1,note_on,71,67,0
1,note_on,71,0,240
1,note_on,69,64,0
1,note_on,69,0,240
1,note_on,65,60,0
1,note_on,65,0,240
1,note_on,66,64,0
1,note_on,61,46,600
1,note_on,61,0,120
1,note_on,66,0,0
1,note_on,66,50,0
1,note_on,66,0,120
1,note_on,69,55,0
1,note_on,69,0,120
1,note_on,81,68,0
1,note_on,81,0,160
1,note_on,80,64,0
1,note_on,80,0,160
1,note_on,78,63,0
1,note_on,78,0,160
1,note_on,76,68,0
1,note_on,76,0,240
1,note_on,63,35,0
1,note_on,69,35,0
1,note_on,75,60,0
1,note_on,75,0,240
1,note_on,69,0,0
1,note_on,63,0,0
1,note_on,80,64,0
1,note_on,80,0,160
1,note_on,78,61,0
1,note_on,78,0,160
1,note_on,76,60,0
1,note_on,76,0,160
1,note_on,75,63,0
1,note_on,75,0,240
1,note_on,64,29,0
1,note_on,73,59,0
1,note_on,69,29,0
1,note_on,69,0,240
1,note_on,73,0,0
1,note_on,64,0,0
1,note_on,78,63,0
1,note_on,78,0,160
1,note_on,76,60,0
1,note_on,76,0,160
1,note_on,75,60,0
1,note_on,75,0,160
1,note_on,73,71,0
1,note_on,73,0,240
1,note_on,69,37,0
1,note_on,66,37,0
1,note_on,71,66,0
1,note_on,71,0,240
1,note_on,66,0,0
1,note_on,69,0,0
1,note_on,73,80,0
1,note_on,73,0,240
1,note_on,71,73,0
1,note_on,64,42,0
1,note_on,68,42,0
1,note_on,68,0,240
1,note_on,64,0,0
1,note_on,71,0,0
1,note_on,73,84,0
1,note_on,73,0,240
1,note_on,62,48,0
1,note_on,71,79,0
1,note_on,68,48,0
1,note_on,68,0,240
1,note_on,71,0,0
1,note_on,62,0,0
1,note_on,73,86,0
1,note_on,73,0,240
1,note_on,63,55,0
1,note_on,69,55,0
1,note_on,71,89,0
1,note_on,71,0,240
1,note_on,69,0,0
1,note_on,63,0,0
1,note_on,73,88,0
1,note_on,61,70,0
1,note_on,61,0,240
1,note_on,73,0,0
1,note_on,59,64,0
1,note_on,71,81,0
1,note_on,71,0,240
1,note_on,59,0,0
1,note_on,71,69,0
1,note_on,76,85,0
1,note_on,64,69,0
1,note_on,68,69,0
1,note_on,68,0,960
1,note_on,71,0,0
1,note_on,76,0,0
1,note_on,64,0,0
1,note_on,68,69,0
1,note_on,71,69,0
1,note_on,80,86,0
1,note_on,76,69,0
1,note_on,76,0,240
1,note_on,68,0,0
1,note_on,71,0,0
1,note_on,80,0,0
1,note_on,71,66,0
1,note_on,76,66,0
1,note_on,80,66,0
1,note_on,83,82,0
1,note_on,83,0,240
1,note_on,71,0,0
1,note_on,76,0,0
1,note_on,80,0,0
1,note_on,76,70,0
1,note_on,85,89,0
1,note_on,80,70,0
1,note_on,73,70,0
1,note_on,73,0,240
1,note_on,76,0,0
1,note_on,85,0,0
1,note_on,80,0,0
1,note_on,83,81,0
1,note_on,71,64,0
1,note_on,71,0,240
1,note_on,83,0,0
1,note_on,68,66,0
1,note_on,71,66,0
1,note_on,76,66,0
1,note_on,80,83,0
1,note_on,80,0,960
1,note_on,68,0,0
1,note_on,71,0,0
1,note_on,76,0,0
1,note_on,68,66,0
1,note_on,76,82,0
1,note_on,71,66,0
1,note_on,64,66,0
1,note_on,64,0,240
1,note_on,68,0,0
1,note_on,76,0,0
1,note_on,71,0,0
1,note_on,71,61,0
1,note_on,73,78,0
1,note_on,68,61,0
1,note_on,61,61,0
1,note_on,61,0,240
1,note_on,71,0,0
1,note_on,73,0,0
1,note_on,68,0,0
1,note_on,68,66,0
1,note_on,80,82,0
1,note_on,71,66,0
1,note_on,71,0,240
1,note_on,80,0,0
1,note_on,68,0,0
1,note_on,66,61,0
1,note_on,78,77,0
1,note_on,78,0,240
1,note_on,66,0,0
1,note_on,61,64,0
1,note_on,73,81,0
1,note_on,66,64,0
1,note_on,69,64,0
1,note_on,69,0,960
1,note_on,61,0,0
1,note_on,73,0,0
1,note_on,66,0,0
1,note_on,61,62,0
1,note_on,66,62,0
1,note_on,73,79,0
1,note_on,69,62,0
1,note_on,69,0,240
1,note_on,61,0,0
1,note_on,66,0,0
1,note_on,73,0,0
1,note_on,63,58,0
1,note_on,66,58,0
1,note_on,71,73,0
1,note_on,71,0,240
1,note_on,66,0,0
1,note_on,63,0,0
1,note_on,71,61,0
1,note_on,78,77,0
1,note_on,68,61,0
1,note_on,66,61,0
1,note_on,66,0,240
1,note_on,71,0,0
1,note_on,78,0,0
1,note_on,68,0,0
1,note_on,64,58,0
1,note_on,76,73,0
1,note_on,76,0,240
1,note_on,64,0,0
1,note_on,64,59,0
1,note_on,71,74,0
1,note_on,68,59,0
1,note_on,59,59,0
1,note_on,59,0,960
1,note_on,64,0,0
1,note_on,71,0,0
1,note_on,68,0,0
1,note_on,68,62,0
1,note_on,70,79,0
1,note_on,64,62,0
1,note_on,58,62,0
1,note_on,58,0,240
1,note_on,68,0,0
1,note_on,70,0,0
1,note_on,64,0,0
1,note_on,59,61,0
1,note_on,71,77,0
1,note_on,71,0,240
1,note_on,59,0,0
1,note_on,64,70,0
1,note_on,73,88,0
1,note_on,61,70,0
1,note_on,68,70,0
1,note_on,68,0,240
1,note_on,64,0,0
1,note_on,73,0,0
1,note_on,61,0,0
1,note_on,59,64,0
1,note_on,71,81,0
1,note_on,64,64,0
1,note_on,68,64,0
1,note_on,68,0,240
1,note_on,59,0,0
1,note_on,71,0,0
1,note_on,64,0,0
1,note_on,64,69,0
1,note_on,76,85,0
1,note_on,68,69,0
1,note_on,71,69,0
1,note_on,71,0,960
1,note_on,64,0,0
1,note_on,76,0,0
1,note_on,68,0,0
1,note_on,68,69,0
1,note_on,71,69,0
1,note_on,80,86,0
1,note_on,76,69,0
1,note_on,76,0,240
1,note_on,68,0,0
1,note_on,71,0,0
1,note_on,80,0,0
1,note_on,71,66,0
1,note_on,76,66,0
1,note_on,80,66,0
1,note_on,83,82,0
1,note_on,83,0,240
1,note_on,71,0,0
1,note_on,76,0,0
1,note_on,80,0,0
1,note_on,80,70,0
1,note_on,76,70,0
1,note_on,73,70,0
1,note_on,85,89,0
1,note_on,85,0,240
1,note_on,80,0,0
1,note_on,76,0,0
1,note_on,73,0,0
1,note_on,71,64,0
1,note_on,83,81,0
1,note_on,83,0,240
1,note_on,71,0,0
1,note_on,71,66,0
1,note_on,80,83,0
1,note_on,76,66,0
1,note_on,68,66,0
1,note_on,68,0,960
1,note_on,71,0,0
1,note_on,80,0,0
1,note_on,76,0,0
1,note_on,71,66,0
1,note_on,76,82,0
1,note_on,68,66,0
1,note_on,64,66,0
1,note_on,64,0,240
1,note_on,71,0,0
1,note_on,76,0,0
1,note_on,68,0,0
1,note_on,61,61,0
1,note_on,73,78,0
1,note_on,68,61,0
1,note_on,71,61,0
1,note_on,71,0,240
1,note_on,61,0,0
1,note_on,73,0,0
1,note_on,68,0,0
1,note_on,68,66,0
1,note_on,71,66,0
1,note_on,80,82,0
1,note_on,80,0,240
1,note_on,71,0,0
1,note_on,68,0,0
1,note_on,78,77,0
1,note_on,66,61,0
1,note_on,66,0,240
1,note_on,78,0,0
1,note_on,61,64,0
1,note_on,66,64,0
1,note_on,73,81,0
1,note_on,69,64,0
1,note_on,69,0,960
1,note_on,61,0,0
1,note_on,66,0,0
1,note_on,73,0,0
1,note_on,61,62,0
1,note_on,66,62,0
1,note_on,69,62,0
1,note_on,73,79,0
1,note_on,73,0,240
1,note_on,61,0,0
1,note_on,66,0,0
1,note_on,69,0,0
1,note_on,66,58,0
1,note_on,63,58,0
1,note_on,71,73,0
1,note_on,71,0,240
1,note_on,63,0,0
1,note_on,66,0,0
1,note_on,66,61,0
1,note_on,78,77,0
1,note_on,68,61,0
1,note_on,71,61,0
1,note_on,71,0,240
1,note_on,66,0,0
1,note_on,78,0,0
1,note_on,68,0,0
1,note_on,64,58,0
1,note_on,76,73,0
1,note_on,76,0,240
1,note_on,64,0,0
1,note_on,68,59,0
1,note_on,71,74,0
1,note_on,64,59,0
1,note_on,59,59,0
1,note_on,59,0,960
1,note_on,68,0,0
1,note_on,71,0,0
1,note_on,64,0,0
1,note_on,58,59,0
1,note_on,70,74,0
1,note_on,64,59,0
1,note_on,68,59,0
1,note_on,68,0,240
1,note_on,58,0,0
1,note_on,70,0,0
1,note_on,64,0,0
1,note_on,64,58,0
1,note_on,68,58,0
1,note_on,71,72,0
1,note_on,59,58,0
1,note_on,59,0,240
1,note_on,64,0,0
1,note_on,68,0,0
1,note_on,71,0,0
1,note_on,61,58,0
1,note_on,64,58,0
1,note_on,68,58,0
1,note_on,73,72,0
1,note_on,73,0,240
1,note_on,61,0,0
1,note_on,64,0,0
1,note_on,68,0,0
1,note_on,70,67,0
1,note_on,58,52,0
1,note_on,58,0,240
1,note_on,70,0,0
1,note_on,59,52,0
1,note_on,64,52,0
1,note_on,71,66,0
1,note_on,68,52,0
1,note_on,68,0,960
1,note_on,59,0,0
1,note_on,64,0,0
1,note_on,71,0,0
1,note_on,58,44,0
1,note_on,64,44,0
1,note_on,68,44,0
1,note_on,70,56,0
1,note_on,70,0,240
1,note_on,58,0,0
1,note_on,64,0,0
1,note_on,68,0,0
1,note_on,68,42,0
1,note_on,71,53,0
1,note_on,59,42,0
1,note_on,64,42,0
1,note_on,64,0,240
1,note_on,68,0,0
1,note_on,71,0,0
1,note_on,59,0,0
1,note_on,68,40,0
1,note_on,73,51,0
1,note_on,64,40,0
1,note_on,61,40,0
1,note_on,61,0,240
1,note_on,68,0,0
1,note_on,73,0,0
1,note_on,64,0,0
1,note_on,58,37,0
1,note_on,70,48,0
1,note_on,70,0,240
1,note_on,58,0,0
1,note_on,64,37,0
1,note_on,71,47,0
1,note_on,68,37,0
1,note_on,59,37,0
1,note_on,59,0,960
1,note_on,64,0,0
1,note_on,71,0,0
1,note_on,68,0,0
1,note_on,60,62,570
1,note_on,64,67,30
1,note_on,69,69,30
1,note_on,72,73,30
1,note_on,69,0,300
1,note_on,60,0,0
1,note_on,64,0,0
1,note_on,72,0,240
1,note_on,72,62,0
1,note_on,72,0,240
1,note_on,60,60,0
1,note_on,66,60,0
1,note_on,72,68,0
1,note_on,72,0,360
1,note_on,71,62,0
1,note_on,71,0,60
1,note_on,69,62,0
1,note_on,69,0,60
1,note_on,66,0,0
1,note_on,60,0,0
1,note_on,62,63,0
1,note_on,67,71,0
1,note_on,67,0,120
1,note_on,62,0,0
1,note_on,62,62,120
1,note_on,67,62,0
1,note_on,74,70,0
1,note_on,74,0,120
1,note_on,67,0,0
1,note_on,62,0,0
1,note_on,64,68,120
1,note_on,67,68,0
1,note_on,72,68,0
1,note_on,76,75,0
1,note_on,76,0,120
1,note_on,64,0,0
1,note_on,67,0,0
1,note_on,72,0,0
1,note_on,67,66,120
1,note_on,72,66,0
1,note_on,79,73,0
1,note_on,79,0,120
1,note_on,72,0,0
1,note_on,67,0,0
1,note_on,67,69,120
1,note_on,71,69,0
1,note_on,74,78,0
1,note_on,74,0,960
1,note_on,71,0,0
1,note_on,67,0,0
1,note_on,68,64,0
1,note_on,71,64,0
1,note_on,76,81,0
1,note_on,76,0,120
1,note_on,74,71,0
1,note_on,74,0,120
1,note_on,71,0,0
1,note_on,68,0,0
1,note_on,72,66,0
1,note_on,72,0,120
1,note_on,71,59,0
1,note_on,71,0,120
1,note_on,72,55,0
1,note_on,72,0,120
1,note_on,83,55,90
1,note_on,83,0,30
1,note_on,78,59,0
1,note_on,84,59,0
1,note_on,84,0,120
1,note_on,78,0,0
1,note_on,72,57,120
1,note_on,72,0,120
1,note_on,83,55,90
1,note_on,83,0,30
1,note_on,84,58,0
1,note_on,78,58,0
1,note_on,78,0,120
1,note_on,84,0,0
1,note_on,72,55,120
1,note_on,72,0,120
1,note_on,83,55,90
1,note_on,83,0,30
1,note_on,84,59,0
1,note_on,78,59,0
1,note_on,78,0,120
1,note_on,84,0,0
1,note_on,68,64,120
1,note_on,71,64,0
1,note_on,76,81,0
1,note_on,76,0,120
1,note_on,74,71,0
1,note_on,74,0,120
1,note_on,71,0,0
1,note_on,68,0,0
1,note_on,72,66,0
1,note_on,72,0,120
1,note_on,71,59,0
1,note_on,71,0,120
1,note_on,72,55,0
1,note_on,72,0,120
1,note_on,83,55,90
1,note_on,83,0,30
1,note_on,78,59,0
1,note_on,84,59,0
1,note_on,84,0,120
1,note_on,78,0,0
1,note_on,72,57,120
1,note_on,72,0,120
1,note_on,83,55,90
1,note_on,83,0,30
1,note_on,84,58,0
1,note_on,78,58,0
1,note_on,78,0,120
1,note_on,84,0,0
1,note_on,72,55,120
1,note_on,72,0,120
1,note_on,83,55,90
1,note_on,83,0,30
1,note_on,84,59,0
1,note_on,78,59,0
1,note_on,78,0,120
1,note_on,84,0,0
1,note_on,68,64,120
1,note_on,71,64,0
1,note_on,76,81,0
1,note_on,76,0,120
1,note_on,74,71,0
1,note_on,74,0,120
1,note_on,71,0,0
1,note_on,68,0,0
1,note_on,72,66,0
1,note_on,72,0,120
1,note_on,71,59,0
1,note_on,71,0,120
1,note_on,60,62,90
1,note_on,64,67,30
1,note_on,69,69,30
1,note_on,72,73,30
1,note_on,69,0,300
1,note_on,60,0,0
1,note_on,64,0,0
1,note_on,72,0,240
1,note_on,72,62,0
1,note_on,72,0,240
1,note_on,60,60,0
1,note_on,66,60,0
1,note_on,72,68,0
1,note_on,72,0,360
1,note_on,71,62,0
1,note_on,71,0,60
1,note_on,69,62,0
1,note_on,69,0,60
1,note_on,66,0,0
1,note_on,60,0,0
1,note_on,62,63,0
1,note_on,67,71,0
1,note_on,67,0,120
1,note_on,62,0,0
1,note_on,62,62,120
1,note_on,67,62,0
1,note_on,74,70,0
1,note_on,74,0,120
1,note_on,67,0,0
1,note_on,62,0,0
1,note_on,64,68,120
1,note_on,67,68,0
1,note_on,72,68,0
1,note_on,76,75,0
1,note_on,76,0,120
1,note_on,64,0,0
1,note_on,67,0,0
1,note_on,72,0,0
1,note_on,67,66,120
1,note_on,72,66,0
1,note_on,79,73,0
1,note_on,79,0,120
1,note_on,72,0,0
1,note_on,67,0,0
1,note_on,67,69,120
1,note_on,71,69,0
1,note_on,74,78,0
1,note_on,74,0,960
1,note_on,71,0,0
1,note_on,67,0,0
1,note_on,71,64,0
1,note_on,76,81,0
1,note_on,76,0,120
1,note_on,74,71,0
1,note_on,74,0,120
1,note_on,71,0,0
1,note_on,73,66,0
1,note_on,73,0,120
1,note_on,71,59,0
1,note_on,71,0,120
1,note_on,79,55,210
1,note_on,79,0,30
1,note_on,74,59,0
1,note_on,71,59,0
1,note_on,78,59,0
1,note_on,78,0,120
1,note_on,71,0,0
1,note_on,74,0,0
1,note_on,79,55,330
1,note_on,79,0,30
1,note_on,74,58,0
1,note_on,78,58,0
1,note_on,71,58,0
1,note_on,71,0,120
1,note_on,78,0,0
1,note_on,74,0,0
1,note_on,79,55,330
1,note_on,79,0,30
1,note_on,74,59,0
1,note_on,78,59,0
1,note_on,71,59,0
1,note_on,71,0,120
1,note_on,78,0,0
1,note_on,74,0,0
1,note_on,71,64,120
1,note_on,76,81,0
1,note_on,76,0,120
1,note_on,74,71,0
1,note_on,74,0,120
1,note_on,71,0,0
1,note_on,73,66,0
1,note_on,73,0,120
1,note_on,71,59,0
1,note_on,71,0,120
1,note_on,79,55,210
1,note_on,79,0,30
1,note_on,74,59,0
1,note_on,71,59,0
1,note_on,78,59,0
1,note_on,78,0,120
1,note_on,71,0,0
1,note_on,74,0,0
1,note_on,79,55,330
1,note_on,79,0,30
1,note_on,74,58,0
1,note_on,78,58,0
1,note_on,71,58,0
1,note_on,71,0,120
1,note_on,78,0,0
1,note_on,74,0,0
1,note_on,79,55,330
1,note_on,79,0,30
1,note_on,74,59,0
1,note_on,78,59,0
1,note_on,71,59,0
1,note_on,71,0,120
1,note_on,78,0,0
1,note_on,74,0,0
1,note_on,71,64,120
1,note_on,76,81,0
1,note_on,76,0,120
1,note_on,74,71,0
1,note_on,74,0,120
1,note_on,71,0,0
1,note_on,73,66,0
1,note_on,73,0,120
1,note_on,71,59,0
1,note_on,71,0,120
1,note_on,71,55,210
1,note_on,71,0,30
1,note_on,66,59,0
1,note_on,62,59,0
1,note_on,69,59,0
1,note_on,69,0,120
1,note_on,62,0,0
1,note_on,66,0,0
1,note_on,71,55,330
1,note_on,71,0,30
1,note_on,66,58,0
1,note_on,69,58,0
1,note_on,62,58,0
1,note_on,62,0,120
1,note_on,69,0,0
1,note_on,66,0,0
1,note_on,71,55,330
1,note_on,71,0,30
1,note_on,66,59,0
1,note_on,69,59,0
1,note_on,60,59,0
1,note_on,60,0,120
1,note_on,69,0,0
1,note_on,66,0,0
1,note_on,61,64,120
1,note_on,69,81,0
1,note_on,67,71,120
1,note_on,69,0,12
1,note_on,61,0,108
1,note_on,66,66,0
1,note_on,67,0,12
1,note_on,64,59,108
1,note_on,66,0,12
1,note_on,62,80,108
1,note_on,64,0,12
1,note_on,61,68,108
1,note_on,62,0,12
1,note_on,59,66,108
1,note_on,61,0,12
1,note_on,57,70,108
1,note_on,59,0,12
1,note_on,57,0,120
1,note_on,50,73,468
1,note_on,49,64,120
1,note_on,50,0,12
1,note_on,47,63,108
1,note_on,49,0,12
1,note_on,45,61,108
1,note_on,47,0,12
1,note_on,45,0,120
1,note_on,60,62,558
1,note_on,64,67,30
1,note_on,69,69,30
1,note_on,72,73,30
1,note_on,69,0,300
1,note_on,60,0,0
1,note_on,64,0,0
1,note_on,72,0,240
1,note_on,72,62,0
1,note_on,72,0,240
1,note_on,60,60,0
1,note_on,66,60,0
1,note_on,72,68,0
1,note_on,72,0,360
1,note_on,71,62,0
1,note_on,71,0,60
1,note_on,69,62,0
1,note_on,69,0,60
1,note_on,66,0,0
1,note_on,60,0,0
1,note_on,62,63,0
1,note_on,67,71,0
1,note_on,67,0,120
1,note_on,62,0,0
1,note_on,62,62,120
1,note_on,67,62,0
1,note_on,74,70,0
1,note_on,74,0,120
1,note_on,67,0,0
1,note_on,62,0,0
1,note_on,64,68,120
1,note_on,67,68,0
1,note_on,72,68,0
1,note_on,76,75,0
1,note_on,76,0,120
1,note_on,64,0,0
1,note_on,67,0,0
1,note_on,72,0,0
1,note_on,67,66,120
1,note_on,72,66,0
1,note_on,79,73,0
1,note_on,79,0,120
1,note_on,72,0,0
1,note_on,67,0,0
1,note_on,67,69,120
1,note_on,71,69,0
1,note_on,74,78,0
1,note_on,74,0,960
1,note_on,71,0,0
1,note_on,67,0,0
1,note_on,68,64,0
1,note_on,71,64,0
1,note_on,76,81,0
1,note_on,76,0,120
1,note_on,74,71,0
1,note_on,74,0,120
1,note_on,71,0,0
1,note_on,68,0,0
1,note_on,72,66,0
1,note_on,72,0,120
1,note_on,71,59,0
1,note_on,71,0,120
1,note_on,72,55,0
1,note_on,72,0,120
1,note_on,83,55,90
1,note_on,83,0,30
1,note_on,78,59,0
1,note_on,84,59,0
1,note_on,84,0,120
1,note_on,78,0,0
1,note_on,72,57,120
1,note_on,72,0,120
1,note_on,83,55,90
1,note_on,83,0,30
1,note_on,84,58,0
1,note_on,78,58,0
1,note_on,78,0,120
1,note_on,84,0,0
1,note_on,72,55,120
1,note_on,72,0,120
1,note_on,83,55,90
1,note_on,83,0,30
1,note_on,84,59,0
1,note_on,78,59,0
1,note_on,78,0,120
1,note_on,84,0,0
1,note_on,68,64,120
1,note_on,71,64,0
1,note_on,76,81,0
1,note_on,76,0,120
1,note_on,74,71,0
1,note_on,74,0,120
1,note_on,71,0,0
1,note_on,68,0,0
1,note_on,72,66,0
1,note_on,72,0,120
1,note_on,71,59,0
1,note_on,71,0,120
1,note_on,72,55,0
1,note_on,72,0,120
1,note_on,83,55,90
1,note_on,83,0,30
1,note_on,78,59,0
1,note_on,84,59,0
1,note_on,84,0,120
1,note_on,78,0,0
1,note_on,72,57,120
1,note_on,72,0,120
1,note_on,83,55,90
1,note_on,83,0,30
1,note_on,84,58,0
1,note_on,78,58,0
1,note_on,78,0,120
1,note_on,84,0,0
1,note_on,72,55,120
1,note_on,72,0,120
1,note_on,83,55,90
1,note_on,83,0,30
1,note_on,84,59,0
1,note_on,78,59,0
1,note_on,78,0,120
1,note_on,84,0,0
1,note_on,68,64,120
1,note_on,71,64,0
1,note_on,76,81,0
1,note_on,76,0,120
1,note_on,74,71,0
1,note_on,74,0,120
1,note_on,71,0,0
1,note_on,68,0,0
1,note_on,72,66,0
1,note_on,72,0,120
1,note_on,71,59,0
1,note_on,71,0,120
1,note_on,60,62,90
1,note_on,64,67,30
1,note_on,69,69,30
1,note_on,72,73,30
1,note_on,69,0,300
1,note_on,60,0,0
1,note_on,64,0,0
1,note_on,72,0,240
1,note_on,72,62,0
1,note_on,72,0,240
1,note_on,60,60,0
1,note_on,66,60,0
1,note_on,72,68,0
1,note_on,72,0,360
1,note_on,71,62,0
1,note_on,71,0,60
1,note_on,69,62,0
1,note_on,69,0,60
1,note_on,66,0,0
1,note_on,60,0,0
1,note_on,62,63,0
1,note_on,67,71,0
1,note_on,67,0,120
1,note_on,62,0,0
1,note_on,62,62,120
1,note_on,67,62,0
1,note_on,74,70,0
1,note_on,74,0,120
1,note_on,67,0,0
1,note_on,62,0,0
1,note_on,64,68,120
1,note_on,67,68,0
1,note_on,72,68,0
1,note_on,76,75,0
1,note_on,76,0,120
1,note_on,64,0,0
1,note_on,67,0,0
1,note_on,72,0,0
1,note_on,67,66,120
1,note_on,72,66,0
1,note_on,79,73,0
1,note_on,79,0,120
1,note_on,72,0,0
1,note_on,67,0,0
1,note_on,67,69,120
1,note_on,71,69,0
1,note_on,74,78,0
1,note_on,74,0,960
1,note_on,71,0,0
1,note_on,67,0,0
1,note_on,71,64,0
1,note_on,76,81,0
1,note_on,76,0,120
1,note_on,74,71,0
1,note_on,74,0,120
1,note_on,71,0,0
1,note_on,73,66,0
1,note_on,73,0,120
1,note_on,71,59,0
1,note_on,71,0,120
1,note_on,79,55,210
1,note_on,79,0,30
1,note_on,74,59,0
1,note_on,71,59,0
1,note_on,78,59,0
1,note_on,78,0,120
1,note_on,71,0,0
1,note_on,74,0,0
1,note_on,79,55,330
1,note_on,79,0,30
1,note_on,74,58,0
1,note_on,78,58,0
1,note_on,71,58,0
1,note_on,71,0,120
1,note_on,78,0,0
1,note_on,74,0,0
1,note_on,79,55,330
1,note_on,79,0,30
1,note_on,74,59,0
1,note_on,78,59,0
1,note_on,71,59,0
1,note_on,71,0,120
1,note_on,78,0,0
1,note_on,74,0,0
1,note_on,71,64,120
1,note_on,76,81,0
1,note_on,76,0,120
1,note_on,74,71,0
1,note_on,74,0,120
1,note_on,71,0,0
1,note_on,73,66,0
1,note_on,73,0,120
1,note_on,71,59,0
1,note_on,71,0,120
1,note_on,79,55,210
1,note_on,79,0,30
1,note_on,74,59,0
1,note_on,71,59,0
1,note_on,78,59,0
1,note_on,78,0,120
1,note_on,71,0,0
1,note_on,74,0,0
1,note_on,79,55,330
1,note_on,79,0,30
1,note_on,74,58,0
1,note_on,78,58,0
1,note_on,71,58,0
1,note_on,71,0,120
1,note_on,78,0,0
1,note_on,74,0,0
1,note_on,79,55,330
1,note_on,79,0,30
1,note_on,74,59,0
1,note_on,78,59,0
1,note_on,71,59,0
1,note_on,71,0,120
1,note_on,78,0,0
1,note_on,74,0,0
1,note_on,71,64,120
1,note_on,76,81,0
1,note_on,76,0,120
1,note_on,74,71,0
1,note_on,74,0,120
1,note_on,71,0,0
1,note_on,73,66,0
1,note_on,73,0,120
1,note_on,71,59,0
1,note_on,71,0,120
1,note_on,80,55,210
1,note_on,80,0,30
1,note_on,75,59,0
1,note_on,71,59,0
1,note_on,78,59,0
1,note_on,78,0,120
1,note_on,71,0,0
1,note_on,75,0,0
1,note_on,80,55,330
1,note_on,80,0,30
1,note_on,75,58,0
1,note_on,78,58,0
1,note_on,71,58,0
1,note_on,71,0,120
1,note_on,78,0,0
1,note_on,75,0,0
1,note_on,80,55,330
1,note_on,80,0,30
1,note_on,75,59,0
1,note_on,78,59,0
1,note_on,71,59,0
1,note_on,71,0,120
1,note_on,78,0,0
1,note_on,75,0,0
1,note_on,80,55,330
1,note_on,80,0,30
1,note_on,71,59,0
1,note_on,75,59,0
1,note_on,78,59,0
1,note_on,78,0,120
1,note_on,75,0,0
1,note_on,71,0,0
1,note_on,85,55,330
1,note_on,85,0,30
1,note_on,75,59,0
1,note_on,78,59,0
1,note_on,83,59,0
1,note_on,83,0,120
1,note_on,78,0,0
1,note_on,75,0,0
1,note_on,85,55,330
1,note_on,85,0,30
1,note_on,75,58,0
1,note_on,83,58,0
1,note_on,78,58,0
1,note_on,78,0,120
1,note_on,83,0,0
1,note_on,75,0,0
1,note_on,85,55,330
1,note_on,85,0,30
1,note_on,75,59,0
1,note_on,83,59,0
1,note_on,78,59,0
1,note_on,78,0,120
1,note_on,83,0,0
1,note_on,75,0,0
1,note_on,85,55,330
1,note_on,85,0,30
1,note_on,83,59,0
1,note_on,75,59,0
1,note_on,78,59,0
1,note_on,78,0,120
1,note_on,75,0,0
1,note_on,83,0,0
1,note_on,76,59,240
1,note_on,76,0,60
1,note_on,74,62,60
1,note_on,74,0,60
1,note_on,75,59,60
1,note_on,75,0,60
1,note_on,71,63,60
1,note_on,71,0,60
1,note_on,76,62,60
1,note_on,76,0,60
1,note_on,74,66,60
1,note_on,74,0,60
1,note_on,75,62,60
1,note_on,75,0,60
1,note_on,80,66,180
1,note_on,80,0,60
1,note_on,77,70,60
1,note_on,77,0,60
1,note_on,78,66,60
1,note_on,78,0,60
1,note_on,71,71,60
1,note_on,71,0,60
1,note_on,80,67,60
1,note_on,80,0,60
1,note_on,77,73,60
1,note_on,77,0,60
1,note_on,78,71,60
1,note_on,78,0,60
1,note_on,83,75,180
1,note_on,83,0,60
1,note_on,80,80,60
1,note_on,80,0,60
1,note_on,81,77,60
1,note_on,81,0,60
1,note_on,78,79,60
1,note_on,78,0,60
1,note_on,83,71,60
1,note_on,83,0,60
1,note_on,80,77,60
1,note_on,80,0,60
1,note_on,81,71,60
1,note_on,81,0,60
1,note_on,78,76,60
1,note_on,78,0,60
1,note_on,83,70,60
1,note_on,83,0,60
1,note_on,80,75,60
1,note_on,80,0,60
1,note_on,81,69,60
1,note_on,81,0,60
1,note_on,78,75,60
1,note_on,78,0,60
1,note_on,83,68,60
1,note_on,83,0,60
1,note_on,80,73,60
1,note_on,80,0,60
1,note_on,81,67,60
1,note_on,81,0,60
1,note_on,78,72,60
1,note_on,78,0,60
1,note_on,83,65,60
1,note_on,83,0,60
1,note_on,80,69,60
1,note_on,80,0,60
1,note_on,81,64,60
1,note_on,81,0,60
1,note_on,78,65,60
1,note_on,78,0,60
1,note_on,83,57,60
1,note_on,83,0,60
1,note_on,80,60,60
1,note_on,80,0,60
1,note_on,81,55,60
1,note_on,81,0,60
1,note_on,78,57,60
1,note_on,78,0,60
1,note_on,83,52,60
1,note_on,83,0,60
1,note_on,80,54,60
1,note_on,80,0,60
1,note_on,81,49,60
1,note_on,81,0,60
1,note_on,78,51,60
1,note_on,78,0,60
1,note_on,83,45,60
1,note_on,83,0,60
1,note_on,80,48,60
1,note_on,80,0,60
1,note_on,81,43,60
1,note_on,81,0,60
1,note_on,76,44,60
1,note_on,76,0,60
1,note_on,83,39,60
1,note_on,83,0,60
1,note_on,79,44,60
1,note_on,79,0,60
1,note_on,80,39,60
1,note_on,80,0,60
1,note_on,76,44,60
1,note_on,76,0,60
1,note_on,83,40,60
1,note_on,83,0,60
1,note_on,79,44,60
1,note_on,79,0,60
1,note_on,80,40,60
1,note_on,80,0,60
1,note_on,76,44,60
1,note_on,76,0,60
1,note_on,83,39,60
1,note_on,83,0,60
1,note_on,79,44,60
1,note_on,79,0,60
1,note_on,80,39,60
1,note_on,80,0,60
1,note_on,76,46,60
1,note_on,76,0,60
1,note_on,83,43,60
1,note_on,83,0,60
1,note_on,79,47,60
1,note_on,79,0,60
1,note_on,80,43,60
1,note_on,80,0,60
1,note_on,76,50,60
1,note_on,76,0,60
1,note_on,83,45,60
1,note_on,83,0,60
1,note_on,80,47,60
1,note_on,80,0,60
1,note_on,85,45,60
1,note_on,85,0,60
1,note_on,76,44,60
1,note_on,76,0,60
1,note_on,83,40,60
1,note_on,83,0,60
1,note_on,80,44,60
1,note_on,80,0,60
1,note_on,85,40,60
1,note_on,85,0,60
1,note_on,76,44,60
1,note_on,76,0,60
1,note_on,83,40,60
1,note_on,83,0,60
1,note_on,80,44,60
1,note_on,80,0,60
1,note_on,85,40,60
1,note_on,85,0,60
1,note_on,76,45,60
1,note_on,76,0,60
1,note_on,83,43,60
1,note_on,83,0,60
1,note_on,80,46,60
1,note_on,80,0,60
1,note_on,85,43,60
1,note_on,85,0,60
1,note_on,78,49,60
1,note_on,78,0,60
1,note_on,83,40,60
1,note_on,83,0,60
1,note_on,81,45,60
1,note_on,81,0,60
1,note_on,87,40,60
1,note_on,87,0,60
1,note_on,78,46,60
1,note_on,78,0,60
1,note_on,83,44,60
1,note_on,83,0,60
1,note_on,81,45,60
1,note_on,81,0,60
1,note_on,87,42,60
1,note_on,87,0,60
1,note_on,78,47,60
1,note_on,78,0,60
1,note_on,83,44,60
1,note_on,83,0,60
1,note_on,81,44,60
1,note_on,81,0,60
1,note_on,87,43,60
1,note_on,87,0,60
1,note_on,78,46,60
1,note_on,78,0,60
1,note_on,83,43,60
1,note_on,83,0,60
1,note_on,81,45,60
1,note_on,81,0,60
1,note_on,87,42,60
1,note_on,87,0,60
1,note_on,81,44,60
1,note_on,81,0,60
1,note_on,83,40,60
1,note_on,83,0,60
1,note_on,80,44,60
1,note_on,80,0,60
1,note_on,88,40,60
1,note_on,88,0,60
1,note_on,79,44,60
1,note_on,79,0,60
1,note_on,83,40,60
1,note_on,83,0,60
1,note_on,80,44,60
1,note_on,80,0,60
1,note_on,88,40,60
1,note_on,88,0,60
1,note_on,79,44,60
1,note_on,79,0,60
1,note_on,83,40,60
1,note_on,83,0,60
1,note_on,80,44,60
1,note_on,80,0,60
1,note_on,88,40,60
1,note_on,88,0,60
1,note_on,79,46,60
1,note_on,79,0,60
1,note_on,85,40,60
1,note_on,85,0,60
1,note_on,80,46,60
1,note_on,80,0,60
1,note_on,83,43,60
1,note_on,83,0,60
1,note_on,76,49,60
1,note_on,76,0,60
1,note_on,83,43,60
1,note_on,83,0,60
1,note_on,79,46,60
1,note_on,79,0,60
1,note_on,80,44,60
1,note_on,80,0,60
1,note_on,76,44,60
1,note_on,76,0,60
1,note_on,83,40,60
1,note_on,83,0,60
1,note_on,79,44,60
1,note_on,79,0,60
1,note_on,80,40,60
1,note_on,80,0,60
1,note_on,76,44,60
1,note_on,76,0,60
1,note_on,83,39,60
1,note_on,83,0,60
1,note_on,79,47,60
1,note_on,79,0,60
1,note_on,80,43,60
1,note_on,80,0,60
1,note_on,76,49,60
1,note_on,76,0,60
1,note_on,83,44,60
1,note_on,83,0,60
1,note_on,79,47,60
1,note_on,79,0,60
1,note_on,80,44,60
1,note_on,80,0,60
1,note_on,76,50,60
1,note_on,76,0,60
1,note_on,83,44,60
1,note_on,83,0,60
1,note_on,80,49,60
1,note_on,80,0,60
1,note_on,85,44,60
1,note_on,85,0,60
1,note_on,76,47,60
1,note_on,76,0,60
1,note_on,83,43,60
1,note_on,83,0,60
1,note_on,80,46,60
1,note_on,80,0,60
1,note_on,85,44,60
1,note_on,85,0,60
1,note_on,76,44,60
1,note_on,76,0,60
1,note_on,83,40,60
1,note_on,83,0,60
1,note_on,80,44,60
1,note_on,80,0,60
1,note_on,85,40,60
1,note_on,85,0,60
1,note_on,76,45,60
1,note_on,76,0,60
1,note_on,83,42,60
1,note_on,83,0,60
1,note_on,80,45,60
1,note_on,80,0,60
1,note_on,85,42,60
1,note_on,85,0,60
1,note_on,79,45,60
1,note_on,79,0,60
1,note_on,87,42,60
1,note_on,87,0,60
1,note_on,80,47,60
1,note_on,80,0,60
1,note_on,83,43,60
1,note_on,83,0,60
1,note_on,79,50,60
1,note_on,79,0,60
1,note_on,87,44,60
1,note_on,87,0,60
1,note_on,80,49,60
1,note_on,80,0,60
1,note_on,83,46,60
1,note_on,83,0,60
1,note_on,79,44,60
1,note_on,79,0,60
1,note_on,87,40,60
1,note_on,87,0,60
1,note_on,80,44,60
1,note_on,80,0,60
1,note_on,83,40,60
1,note_on,83,0,60
1,note_on,79,47,60
1,note_on,79,0,60
1,note_on,87,44,60
1,note_on,87,0,60
1,note_on,80,47,60
1,note_on,80,0,60
1,note_on,83,45,60
1,note_on,83,0,60
1,note_on,82,49,60
1,note_on,82,0,60
1,note_on,91,44,60
1,note_on,91,0,60
1,note_on,84,47,60
1,note_on,84,0,60
1,note_on,85,44,60
1,note_on,85,0,60
1,note_on,82,50,60
1,note_on,82,0,60
1,note_on,91,44,60
1,note_on,91,0,60
1,note_on,86,47,60
1,note_on,86,0,60
1,note_on,87,43,60
1,note_on,87,0,60
1,note_on,80,50,60
1,note_on,80,0,60
1,note_on,92,45,60
1,note_on,92,0,60
1,note_on,87,46,60
1,note_on,87,0,60
1,note_on,80,43,60
1,note_on,80,0,60
1,note_on,80,45,60
1,note_on,80,0,60
1,note_on,75,42,60
1,note_on,75,0,60
1,note_on,75,44,60
1,note_on,75,0,60
1,note_on,68,36,60
1,note_on,68,0,60
1,note_on,69,61,60
1,note_on,69,0,240
1,note_on,65,57,0
1,note_on,65,0,240
1,note_on,66,61,0
1,note_on,66,0,240
1,note_on,73,46,240
1,note_on,73,0,120
1,note_on,66,42,0
1,note_on,66,0,120
1,note_on,69,49,0
1,note_on,69,0,120
1,note_on,73,45,0
1,note_on,73,0,120
1,note_on,78,62,0
1,note_on,78,0,240
1,note_on,76,60,0
1,note_on,76,0,240
1,note_on,76,62,0
1,note_on,76,0,240
1,note_on,74,60,0
1,note_on,74,0,240
1,note_on,75,62,0
1,note_on,69,44,480
1,note_on,69,0,120
1,note_on,63,40,0
1,note_on,63,0,120
1,note_on,66,47,0
1,note_on,66,0,120
1,note_on,69,45,0
1,note_on,69,0,120
1,note_on,75,0,0
1,note_on,73,62,0
1,note_on,73,0,240
1,note_on,71,62,0
1,note_on,71,0,240
1,note_on,69,61,0
1,note_on,69,0,240
1,note_on,65,57,0
1,note_on,65,0,240
1,note_on,66,61,0
1,note_on,66,0,240
1,note_on,73,55,240
1,note_on,73,0,120
1,note_on,69,52,0
1,note_on,69,0,120
1,note_on,73,54,0
1,note_on,73,0,120
1,note_on,78,56,0
1,note_on,78,0,120
1,note_on,81,63,0
1,note_on,81,0,120
1,note_on,80,61,40
1,note_on,80,0,120
1,note_on,78,60,40
1,note_on,78,0,120
1,note_on,76,63,40
1,note_on,76,0,240
1,note_on,63,33,0
1,note_on,69,33,0
1,note_on,75,57,0
1,note_on,75,0,240
1,note_on,69,0,0
1,note_on,63,0,0
1,note_on,73,63,0
1,note_on,73,0,240
1,note_on,64,33,0
1,note_on,69,33,0
1,note_on,75,56,0
1,note_on,75,0,240
1,note_on,69,0,0
1,note_on,64,0,0
1,note_on,73,60,0
1,note_on,73,0,240
1,note_on,65,33,0
1,note_on,71,52,0
1,note_on,71,0,240
1,note_on,65,0,0
1,note_on,70,56,0
1,note_on,70,0,240
1,note_on,66,33,0
1,note_on,71,53,0
1,note_on,71,0,240
1,note_on,66,0,0
1,note_on,69,61,0
1,note_on,69,0,240
1,note_on,65,57,0
1,note_on,65,0,240
1,note_on,66,61,0
1,note_on,66,0,240
1,note_on,73,45,240
1,note_on,73,0,120
1,note_on,66,41,0
1,note_on,66,0,120
1,note_on,69,45,0
1,note_on,69,0,120
1,note_on,73,43,0
1,note_on,73,0,120
1,note_on,78,62,0
1,note_on,78,0,240
1,note_on,76,60,0
1,note_on,76,0,240
1,note_on,76,62,0
1,note_on,76,0,240
1,note_on,74,60,0
1,note_on,74,0,240
1,note_on,75,62,0
1,note_on,69,46,480
1,note_on,69,0,120
1,note_on,63,41,0
1,note_on,63,0,120
1,note_on,66,48,0
1,note_on,66,0,120
1,note_on,69,46,0
1,note_on,69,0,120
1,note_on,75,0,0
1,note_on,73,62,0
1,note_on,73,0,240
1,note_on,71,62,0
1,note_on,71,0,240
1,note_on,69,61,0
1,note_on,69,0,240
1,note_on,65,57,0
1,note_on,65,0,240
1,note_on,66,61,0
1,note_on,66,0,240
1,note_on,73,48,240
1,note_on,73,0,120
1,note_on,69,50,0
1,note_on,69,0,120
1,note_on,73,52,0
1,note_on,73,0,120
1,note_on,78,54,0
1,note_on,78,0,120
1,note_on,81,63,0
1,note_on,81,0,160
1,note_on,80,61,0
1,note_on,80,0,160
1,note_on,78,60,0
1,note_on,78,0,160
1,note_on,76,63,0
1,note_on,76,0,240
1,note_on,63,33,0
1,note_on,69,33,0
1,note_on,75,57,0
1,note_on,75,0,240
1,note_on,69,0,0
1,note_on,63,0,0
1,note_on,80,61,0
1,note_on,80,0,160
1,note_on,78,58,0
1,note_on,78,0,160
1,note_on,76,57,0
1,note_on,76,0,160
1,note_on,75,60,0
1,note_on,75,0,240
1,note_on,64,27,0
1,note_on,69,27,0
1,note_on,73,56,0
1,note_on,73,0,240
1,note_on,69,0,0
1,note_on,64,0,0
1,note_on,78,60,0
1,note_on,78,0,160
1,note_on,76,57,0
1,note_on,76,0,160
1,note_on,75,57,0
1,note_on,75,0,160
1,note_on,73,67,0
1,note_on,73,0,240
1,note_on,66,35,0
1,note_on,69,35,0
1,note_on,71,62,0
1,note_on,71,0,240
1,note_on,69,0,0
1,note_on,66,0,0
1,note_on,73,71,0
1,note_on,73,0,240
1,note_on,64,37,0
1,note_on,68,37,0
1,note_on,71,63,0
1,note_on,71,0,240
1,note_on,68,0,0
1,note_on,64,0,0
1,note_on,73,74,0
1,note_on,73,0,240
1,note_on,62,40,0
1,note_on,68,40,0
1,note_on,71,68,0
1,note_on,71,0,240
1,note_on,68,0,0
1,note_on,62,0,0
1,note_on,73,75,0
1,note_on,73,0,240
1,note_on,63,46,0
1,note_on,69,46,0
1,note_on,71,75,0
1,note_on,71,0,240
1,note_on,69,0,0
1,note_on,63,0,0
1,note_on,69,59,0
1,note_on,69,0,60
1,note_on,73,53,60
1,note_on,73,0,60
1,note_on,70,59,60
1,note_on,70,0,60
1,note_on,71,55,60
1,note_on,71,0,60
1,note_on,69,59,60
1,note_on,69,0,60
1,note_on,73,55,60
1,note_on,73,0,60
1,note_on,70,59,60
1,note_on,70,0,60
1,note_on,71,53,60
1,note_on,71,0,60
1,note_on,69,59,60
1,note_on,69,0,60
1,note_on,76,55,60
1,note_on,76,0,60
1,note_on,74,59,60
1,note_on,74,0,60
1,note_on,75,53,60
1,note_on,75,0,60
1,note_on,69,60,60
1,note_on,69,0,60
1,note_on,76,56,60
1,note_on,76,0,60
1,note_on,74,59,60
1,note_on,74,0,60
1,note_on,75,53,60
1,note_on,75,0,60
1,note_on,75,53,60
1,note_on,75,0,60
1,note_on,80,47,60
1,note_on,80,0,60
1,note_on,77,51,60
1,note_on,77,0,60
1,note_on,78,47,60
1,note_on,78,0,60
1,note_on,75,50,60
1,note_on,75,0,60
1,note_on,80,46,60
1,note_on,80,0,60
1,note_on,77,49,60
1,note_on,77,0,60
1,note_on,78,43,60
1,note_on,78,0,60
1,note_on,78,48,60
1,note_on,78,0,60
1,note_on,83,44,60
1,note_on,83,0,60
1,note_on,80,47,60
1,note_on,80,0,60
1,note_on,81,41,60
1,note_on,81,0,60
1,note_on,78,46,60
1,note_on,78,0,60
1,note_on,83,43,60
1,note_on,83,0,60
1,note_on,80,44,60
1,note_on,80,0,60
1,note_on,81,42,60
1,note_on,81,0,60
1,note_on,76,44,60
1,note_on,76,0,60
1,note_on,83,39,60
1,note_on,83,0,60
1,note_on,79,44,60
1,note_on,79,0,60
1,note_on,80,39,60
1,note_on,80,0,60
1,note_on,76,44,60
1,note_on,76,0,60
1,note_on,83,40,60
1,note_on,83,0,60
1,note_on,79,44,60
1,note_on,79,0,60
1,note_on,80,40,60
1,note_on,80,0,60
1,note_on,76,44,60
1,note_on,76,0,60
1,note_on,83,39,60
1,note_on,83,0,60
1,note_on,79,44,60
1,note_on,79,0,60
1,note_on,80,39,60
1,note_on,80,0,60
1,note_on,76,46,60
1,note_on,76,0,60
1,note_on,83,43,60
1,note_on,83,0,60
1,note_on,79,47,60
1,note_on,79,0,60
1,note_on,80,43,60
1,note_on,80,0,60
1,note_on,76,50,60
1,note_on,76,0,60
1,note_on,83,45,60
1,note_on,83,0,60
1,note_on,80,47,60
1,note_on,80,0,60
1,note_on,85,45,60
1,note_on,85,0,60
1,note_on,76,44,60
1,note_on,76,0,60
1,note_on,83,40,60
1,note_on,83,0,60
1,note_on,80,44,60
1,note_on,80,0,60
1,note_on,85,40,60
1,note_on,85,0,60
1,note_on,76,44,60
1,note_on,76,0,60
1,note_on,83,40,60
1,note_on,83,0,60
1,note_on,80,44,60
1,note_on,80,0,60
1,note_on,85,40,60
1,note_on,85,0,60
1,note_on,76,45,60
1,note_on,76,0,60
1,note_on,83,43,60
1,note_on,83,0,60
1,note_on,80,46,60
1,note_on,80,0,60
1,note_on,85,43,60
1,note_on,85,0,60
1,note_on,78,49,60
1,note_on,78,0,60
1,note_on,83,40,60
1,note_on,83,0,60
1,note_on,81,45,60
1,note_on,81,0,60
1,note_on,87,40,60
1,note_on,87,0,60
1,note_on,78,46,60
1,note_on,78,0,60
1,note_on,83,44,60
1,note_on,83,0,60
1,note_on,81,45,60
1,note_on,81,0,60
1,note_on,87,42,60
1,note_on,87,0,60
1,note_on,78,47,60
1,note_on,78,0,60
1,note_on,83,44,60
1,note_on,83,0,60
1,note_on,81,44,60
1,note_on,81,0,60
1,note_on,87,43,60
1,note_on,87,0,60
1,note_on,78,46,60
1,note_on,78,0,60
1,note_on,83,43,60
1,note_on,83,0,60
1,note_on,81,45,60
1,note_on,81,0,60
1,note_on,87,42,60
1,note_on,87,0,60
1,note_on,81,44,60
1,note_on,81,0,60
1,note_on,83,40,60
1,note_on,83,0,60
1,note_on,80,44,60
1,note_on,80,0,60
1,note_on,88,40,60
1,note_on,88,0,60
1,note_on,79,44,60
1,note_on,79,0,60
1,note_on,83,40,60
1,note_on,83,0,60
1,note_on,80,44,60
1,note_on,80,0,60
1,note_on,88,40,60
1,note_on,88,0,60
1,note_on,79,44,60
1,note_on,79,0,60
1,note_on,83,40,60
1,note_on,83,0,60
1,note_on,80,44,60
1,note_on,80,0,60
1,note_on,88,40,60
1,note_on,88,0,60
1,note_on,79,46,60
1,note_on,79,0,60
1,note_on,85,40,60
1,note_on,85,0,60
1,note_on,80,46,60
1,note_on,80,0,60
1,note_on,83,43,60
1,note_on,83,0,60
1,note_on,76,49,60
1,note_on,76,0,60
1,note_on,83,43,60
1,note_on,83,0,60
1,note_on,79,46,60
1,note_on,79,0,60
1,note_on,80,44,60
1,note_on,80,0,60
1,note_on,76,44,60
1,note_on,76,0,60
1,note_on,83,40,60
1,note_on,83,0,60
1,note_on,79,44,60
1,note_on,79,0,60
1,note_on,80,40,60
1,note_on,80,0,60
1,note_on,76,44,60
1,note_on,76,0,60
1,note_on,83,39,60
1,note_on,83,0,60
1,note_on,79,47,60
1,note_on,79,0,60
1,note_on,80,43,60
1,note_on,80,0,60
1,note_on,76,49,60
1,note_on,76,0,60
1,note_on,83,44,60
1,note_on,83,0,60
1,note_on,79,47,60
1,note_on,79,0,60
1,note_on,80,44,60
1,note_on,80,0,60
1,note_on,76,50,60
1,note_on,76,0,60
1,note_on,83,44,60
1,note_on,83,0,60
1,note_on,80,49,60
1,note_on,80,0,60
1,note_on,85,44,60
1,note_on,85,0,60
1,note_on,76,47,60
1,note_on,76,0,60
1,note_on,83,43,60
1,note_on,83,0,60
1,note_on,80,46,60
1,note_on,80,0,60
1,note_on,85,44,60
1,note_on,85,0,60
1,note_on,76,44,60
1,note_on,76,0,60
1,note_on,83,40,60
1,note_on,83,0,60
1,note_on,80,44,60
1,note_on,80,0,60
1,note_on,85,40,60
1,note_on,85,0,60
1,note_on,76,45,60
1,note_on,76,0,60
1,note_on,83,42,60
1,note_on,83,0,60
1,note_on,80,45,60
1,note_on,80,0,60
1,note_on,85,42,60
1,note_on,85,0,60
1,note_on,78,45,60
1,note_on,78,0,60
1,note_on,83,42,60
1,note_on,83,0,60
1,note_on,81,47,60
1,note_on,81,0,60
1,note_on,87,43,60
1,note_on,87,0,60
1,note_on,78,47,60
1,note_on,78,0,60
1,note_on,83,44,60
1,note_on,83,0,60
1,note_on,81,46,60
1,note_on,81,0,60
1,note_on,87,42,60
1,note_on,87,0,60
1,note_on,78,44,60
1,note_on,78,0,60
1,note_on,83,40,60
1,note_on,83,0,60
1,note_on,81,44,60
1,note_on,81,0,60
1,note_on,87,40,60
1,note_on,87,0,60
1,note_on,78,47,60
1,note_on,78,0,60
1,note_on,83,44,60
1,note_on,83,0,60
1,note_on,81,47,60
1,note_on,81,0,60
1,note_on,87,45,60
1,note_on,87,0,60
1,note_on,81,49,60
1,note_on,81,0,60
1,note_on,83,44,60
1,note_on,83,0,60
1,note_on,80,47,60
1,note_on,80,0,60
1,note_on,88,44,60
1,note_on,88,0,60
1,note_on,79,50,60
1,note_on,79,0,60
1,note_on,83,44,60
1,note_on,83,0,60
1,note_on,80,47,60
1,note_on,80,0,60
1,note_on,88,43,60
1,note_on,88,0,60
1,note_on,79,50,60
1,note_on,79,0,60
1,note_on,83,45,60
1,note_on,83,0,60
1,note_on,80,46,60
1,note_on,80,0,60
1,note_on,88,43,60
1,note_on,88,0,60
1,note_on,79,45,60
1,note_on,79,0,60
1,note_on,85,42,60
1,note_on,85,0,60
1,note_on,80,44,60
1,note_on,80,0,60
1,note_on,83,36,60
1,note_on,83,0,60
1,note_on,76,49,60
1,note_on,76,0,60
1,note_on,83,44,60
1,note_on,83,0,60
1,note_on,79,47,60
1,note_on,79,0,60
1,note_on,80,44,60
1,note_on,80,0,60
1,note_on,71,47,60
1,note_on,71,0,60
1,note_on,76,44,60
1,note_on,76,0,60
1,note_on,75,47,60
1,note_on,75,0,60
1,note_on,76,43,60
1,note_on,76,0,60
1,note_on,71,46,60
1,note_on,71,0,60
1,note_on,76,43,60
1,note_on,76,0,60
1,note_on,75,45,60
1,note_on,75,0,60
1,note_on,76,43,60
1,note_on,76,0,60
1,note_on,71,45,60
1,note_on,71,0,60
1,note_on,76,42,60
1,note_on,76,0,60
1,note_on,75,44,60
1,note_on,75,0,60
1,note_on,76,36,60
1,note_on,76,0,60
1,note_on,64,43,60
1,note_on,64,0,60
1,note_on,71,39,60
1,note_on,71,0,60
1,note_on,70,43,60
1,note_on,70,0,60
1,note_on,71,37,60
1,note_on,71,0,60
1,note_on,59,43,60
1,note_on,59,0,60
1,note_on,68,36,60
1,note_on,68,0,60
1,note_on,67,43,60
1,note_on,67,0,60
1,note_on,68,36,60
1,note_on,68,0,60
1,note_on,59,43,60
1,note_on,59,0,60
1,note_on,68,36,60
1,note_on,68,0,60
1,note_on,67,42,60
1,note_on,67,0,60
1,note_on,68,36,60
1,note_on,68,0,60
1,note_on,56,42,60
1,note_on,56,0,60
1,note_on,64,36,60
1,note_on,64,0,60
1,note_on,63,41,60
1,note_on,63,0,60
1,note_on,64,36,60
1,note_on,64,0,60
1,note_on,56,37,60
1,note_on,56,0,60
1,note_on,64,35,60
1,note_on,64,0,60
1,note_on,63,37,60
1,note_on,63,0,60
1,note_on,64,34,60
1,note_on,64,0,60
1,note_on,52,37,60
1,note_on,52,0,60
1,note_on,59,32,60
1,note_on,59,0,60
1,note_on,58,37,60
1,note_on,58,0,60
1,note_on,59,32,60
1,note_on,59,0,60
1,note_on,52,37,60
1,note_on,52,0,60
1,note_on,59,33,60
1,note_on,59,0,60
1,note_on,58,36,60
1,note_on,58,0,60
1,note_on,59,33,60
1,note_on,59,0,60
1,note_on,52,36,60
1,note_on,52,0,60
1,note_on,59,33,60
1,note_on,59,0,60
1,note_on,58,36,60
1,note_on,58,0,60
1,note_on,59,33,60
1,note_on,59,0,60
1,note_on,52,37,60
1,note_on,52,0,60
1,note_on,59,35,60
1,note_on,59,0,60
1,note_on,58,37,60
1,note_on,58,0,60
1,note_on,59,34,60
1,note_on,59,0,60
1,note_on,52,37,60
1,note_on,52,0,60
1,note_on,59,32,60
1,note_on,59,0,60
1,note_on,58,37,60
1,note_on,58,0,60
1,note_on,59,32,60
1,note_on,59,0,60
1,note_on,52,37,60
1,note_on,52,0,60
1,note_on,59,33,60
1,note_on,59,0,60
1,note_on,58,36,60
1,note_on,58,0,60
1,note_on,59,33,60
1,note_on,59,0,60
1,note_on,52,36,60
1,note_on,52,0,60
1,note_on,59,33,60
1,note_on,59,0,60
1,note_on,58,36,60
1,note_on,58,0,60
1,note_on,59,33,60
1,note_on,59,0,60
1,note_on,52,37,60
1,note_on,52,0,60
1,note_on,59,35,60
1,note_on,59,0,60
1,note_on,58,37,60
1,note_on,58,0,60
1,note_on,59,33,60
1,note_on,59,0,60
1,note_on,52,36,60
1,note_on,52,0,60
1,note_on,59,30,60
1,note_on,59,0,60
1,note_on,58,36,60
1,note_on,58,0,60
1,note_on,59,30,60
1,note_on,59,0,60
1,note_on,52,35,60
1,note_on,52,0,60
1,note_on,59,30,60
1,note_on,59,0,60
1,note_on,58,31,60
1,note_on,58,0,60
1,note_on,59,25,60
1,note_on,59,0,60
1,note_on,52,27,60
1,note_on,52,0,60
1,note_on,59,23,60
1,note_on,59,0,60
1,note_on,58,27,60
1,note_on,58,0,60
1,note_on,59,24,60
1,note_on,59,0,60
1,note_on,52,22,60
1,note_on,52,0,240
2,note_on,61,53,0
2,note_on,61,0,240
2,note_on,59,49,0
2,note_on,59,0,240
2,note_on,64,50,0
2,note_on,59,37,424
2,note_on,52,37,0
2,note_on,52,0,480
2,note_on,59,0,0
2,note_on,64,0,0
2,note_on,68,52,0
2,note_on,68,0,240
2,note_on,71,50,0
2,note_on,71,0,240
2,note_on,73,55,0
2,note_on,73,0,240
2,note_on,71,49,0
2,note_on,71,0,240
2,note_on,68,51,0
2,note_on,52,37,395
2,note_on,59,37,0
2,note_on,59,0,480
2,note_on,52,0,0
2,note_on,68,0,0
2,note_on,64,50,0
2,note_on,64,0,240
2,note_on,61,48,0
2,note_on,61,0,240
2,note_on,68,50,0
2,note_on,68,0,240
2,note_on,66,47,0
2,note_on,66,0,240
2,note_on,61,49,0
2,note_on,59,37,395
2,note_on,52,37,0
2,note_on,52,0,480
2,note_on,59,0,0
2,note_on,61,0,0
2,note_on,61,48,0
2,note_on,61,0,234
2,note_on,59,41,0
2,note_on,59,0,240
2,note_on,66,47,0
2,note_on,66,0,240
2,note_on,64,39,0
2,note_on,64,0,240
2,note_on,59,41,0
2,note_on,52,37,400
2,note_on,56,37,0
2,note_on,56,0,480
2,note_on,52,0,0
2,note_on,59,0,0
2,note_on,58,48,0
2,note_on,58,0,240
2,note_on,59,47,0
2,note_on,59,0,240
2,note_on,61,53,0
2,note_on,61,0,240
2,note_on,59,49,0
2,note_on,59,0,240
2,note_on,64,50,0
2,note_on,59,37,424
2,note_on,52,37,0
2,note_on,52,0,480
2,note_on,59,0,0
2,note_on,64,0,0
2,note_on,68,52,0
2,note_on,68,0,240
2,note_on,71,50,0
2,note_on,71,0,240
2,note_on,73,55,0
2,note_on,73,0,240
2,note_on,71,49,0
2,note_on,71,0,240
2,note_on,68,51,0
2,note_on,52,37,395
2,note_on,59,37,0
2,note_on,59,0,480
2,note_on,52,0,0
2,note_on,68,0,0
2,note_on,64,50,0
2,note_on,64,0,240
2,note_on,61,48,0
2,note_on,61,0,240
2,note_on,59,50,0
2,note_on,59,0,240
2,note_on,63,47,0
2,note_on,63,0,240
2,note_on,71,49,0
2,note_on,56,37,395
2,note_on,51,37,0
2,note_on,59,37,0
2,note_on,59,0,480
2,note_on,71,0,0
2,note_on,56,0,0
2,note_on,51,0,0
2,note_on,70,48,0
2,note_on,70,0,240
2,note_on,68,41,0
2,note_on,68,0,240
2,note_on,64,48,0
2,note_on,64,0,480
2,note_on,58,37,0
2,note_on,63,48,0
2,note_on,51,37,0
2,note_on,63,0,149
2,note_on,61,41,0
2,note_on,61,0,240
2,note_on,51,0,0
2,note_on,58,0,0
2,note_on,61,46,0
2,note_on,56,34,0
2,note_on,61,0,137
2,note_on,59,39,0
2,note_on,59,0,180
2,note_on,56,0,0
2,note_on,44,31,0
2,note_on,51,31,30
2,note_on,58,40,30
2,note_on,58,0,159
2,note_on,56,37,0
2,note_on,56,0,126
2,note_on,51,0,0
2,note_on,44,0,0
2,note_on,42,39,56
2,note_on,42,0,120
2,note_on,49,37,0
2,note_on,49,0,120
2,note_on,54,37,0
2,note_on,54,0,120
2,note_on,57,39,0
2,note_on,57,0,120
2,note_on,47,39,85
2,note_on,47,0,120
2,note_on,54,37,0
2,note_on,54,0,120
2,note_on,57,37,0
2,note_on,57,0,120
2,note_on,59,39,0
2,note_on,59,0,120
2,note_on,42,37,56
2,note_on,42,0,120
2,note_on,49,40,0
2,note_on,49,0,120
2,note_on,54,44,0
2,note_on,54,0,120
2,note_on,57,48,0
2,note_on,57,0,120
2,note_on,47,29,720
2,note_on,59,35,0
2,note_on,54,29,0
2,note_on,54,0,240
2,note_on,59,0,0
2,note_on,47,0,0
2,note_on,52,25,240
2,note_on,49,25,0
2,note_on,57,35,0
2,note_on,57,0,240
2,note_on,49,0,0
2,note_on,52,0,0
2,note_on,50,29,240
2,note_on,56,35,0
2,note_on,56,0,240
2,note_on,50,0,0
2,note_on,51,29,240
2,note_on,57,35,0
2,note_on,57,0,240
2,note_on,51,0,0
2,note_on,42,39,56
2,note_on,42,0,120
2,note_on,49,37,0
2,note_on,49,0,120
2,note_on,54,37,0
2,note_on,54,0,120
2,note_on,57,39,0
2,note_on,57,0,120
2,note_on,47,39,85
2,note_on,47,0,120
2,note_on,54,37,0
2,note_on,54,0,120
2,note_on,57,37,0
2,note_on,57,0,120
2,note_on,59,39,0
2,note_on,59,0,120
2,note_on,42,37,56
2,note_on,42,0,120
2,note_on,49,40,0
2,note_on,49,0,120
2,note_on,54,44,0
2,note_on,54,0,120
2,note_on,57,48,0
2,note_on,57,0,120
2,note_on,47,29,720
2,note_on,59,35,0
2,note_on,54,29,0
2,note_on,54,0,240
2,note_on,59,0,0
2,note_on,47,0,0
2,note_on,49,24,720
2,note_on,57,24,0
2,note_on,52,24,0
2,note_on,61,29,0
2,note_on,61,0,240
2,note_on,49,0,0
2,note_on,57,0,0
2,note_on,52,0,0
2,note_on,61,59,480
2,note_on,61,0,240
2,note_on,54,37,0
2,note_on,51,37,0
2,note_on,59,37,0
2,note_on,59,0,240
2,note_on,51,0,0
2,note_on,54,0,0
2,note_on,61,67,0
2,note_on,61,0,240
2,note_on,56,42,0
2,note_on,52,42,0
2,note_on,59,42,0
2,note_on,59,0,240
2,note_on,52,0,0
2,note_on,56,0,0
2,note_on,61,71,0
2,note_on,61,0,240
2,note_on,56,48,0
2,note_on,53,48,0
2,note_on,59,48,0
2,note_on,59,0,240
2,note_on,53,0,0
2,note_on,56,0,0
2,note_on,61,72,0
2,note_on,61,0,240
2,note_on,59,55,0
2,note_on,54,55,0
2,note_on,54,0,240
2,note_on,59,0,0
2,note_on,40,61,54
2,note_on,40,0,160
2,note_on,47,61,0
2,note_on,47,0,160
2,note_on,52,66,0
2,note_on,52,0,160
2,note_on,47,62,0
2,note_on,47,0,160
2,note_on,52,62,0
2,note_on,52,0,160
2,note_on,59,69,0
2,note_on,59,0,160
2,note_on,52,62,0
2,note_on,52,0,160
2,note_on,59,61,0
2,note_on,59,0,160
2,note_on,64,71,0
2,note_on,64,0,141
2,note_on,40,61,12
2,note_on,40,0,160
2,note_on,47,61,0
2,note_on,47,0,160
2,note_on,52,66,0
2,note_on,52,0,160
2,note_on,47,62,0
2,note_on,47,0,160
2,note_on,52,62,0
2,note_on,52,0,160
2,note_on,59,69,0
2,note_on,59,0,160
2,note_on,52,62,0
2,note_on,52,0,160
2,note_on,59,61,0
2,note_on,59,0,160
2,note_on,63,71,0
2,note_on,63,0,134
2,note_on,40,55,145
2,note_on,40,0,116
2,note_on,47,55,0
2,note_on,47,0,160
2,note_on,54,59,0
2,note_on,54,0,160
2,note_on,47,56,0
2,note_on,47,0,160
2,note_on,54,56,0
2,note_on,54,0,160
2,note_on,59,61,0
2,note_on,59,0,160
2,note_on,54,56,0
2,note_on,54,0,160
2,note_on,59,55,0
2,note_on,59,0,160
2,note_on,64,63,0
2,note_on,64,0,148
2,note_on,40,55,5
2,note_on,40,0,160
2,note_on,47,55,0
2,note_on,47,0,160
2,note_on,52,59,0
2,note_on,52,0,160
2,note_on,47,56,0
2,note_on,47,0,160
2,note_on,52,56,0
2,note_on,52,0,160
2,note_on,56,61,0
2,note_on,56,0,160
2,note_on,52,56,0
2,note_on,52,0,160
2,note_on,56,55,0
2,note_on,56,0,160
2,note_on,59,63,0
2,note_on,59,0,141
2,note_on,40,61,142
2,note_on,40,0,158
2,note_on,47,61,0
2,note_on,47,0,160
2,note_on,52,66,0
2,note_on,52,0,160
2,note_on,47,62,0
2,note_on,47,0,160
2,note_on,52,62,0
2,note_on,52,0,160
2,note_on,59,69,0
2,note_on,59,0,160
2,note_on,52,62,0
2,note_on,52,0,160
2,note_on,59,61,0
2,note_on,59,0,160
2,note_on,64,71,0
2,note_on,64,0,141
2,note_on,40,61,12
2,note_on,40,0,160
2,note_on,47,61,0
2,note_on,47,0,160
2,note_on,52,66,0
2,note_on,52,0,160
2,note_on,47,62,0
2,note_on,47,0,160
2,note_on,52,62,0
2,note_on,52,0,160
2,note_on,59,69,0
2,note_on,59,0,160
2,note_on,52,62,0
2,note_on,52,0,160
2,note_on,59,61,0
2,note_on,59,0,160
2,note_on,63,71,0
2,note_on,63,0,170
2,note_on,40,55,54
2,note_on,40,0,160
2,note_on,47,55,0
2,note_on,47,0,160
2,note_on,54,59,0
2,note_on,54,0,160
2,note_on,47,56,0
2,note_on,47,0,160
2,note_on,54,56,0
2,note_on,54,0,160
2,note_on,59,61,0
2,note_on,59,0,160
2,note_on,54,56,0
2,note_on,54,0,160
2,note_on,59,55,0
2,note_on,59,0,160
2,note_on,64,63,0
2,note_on,64,0,127
2,note_on,40,55,54
2,note_on,40,0,160
2,note_on,47,55,0
2,note_on,47,0,160
2,note_on,52,59,0
2,note_on,52,0,160
2,note_on,47,56,0
2,note_on,47,0,160
2,note_on,52,56,0
2,note_on,52,0,160
2,note_on,56,61,0
2,note_on,56,0,160
2,note_on,52,56,0
2,note_on,52,0,160
2,note_on,56,55,0
2,note_on,56,0,160
2,note_on,59,63,0
2,note_on,59,0,127
2,note_on,40,51,54
2,note_on,40,0,160
2,note_on,47,50,0
2,note_on,47,0,160
2,note_on,52,52,0
2,note_on,52,0,160
2,note_on,47,49,0
2,note_on,47,0,160
2,note_on,52,48,0
2,note_on,52,0,160
2,note_on,56,51,0
2,note_on,56,0,160
2,note_on,52,46,0
2,note_on,52,0,160
2,note_on,56,45,0
2,note_on,56,0,160
2,note_on,59,50,0
2,note_on,59,0,127
2,note_on,40,40,54
2,note_on,40,0,160
2,note_on,47,39,0
2,note_on,47,0,160
2,note_on,52,41,0
2,note_on,52,0,160
2,note_on,47,39,0
2,note_on,47,0,160
2,note_on,52,38,0
2,note_on,52,0,160
2,note_on,56,40,0
2,note_on,56,0,160
2,note_on,52,36,0
2,note_on,52,0,160
2,note_on,56,35,0
2,note_on,56,0,160
2,note_on,45,42,0
2,note_on,52,47,22
2,note_on,57,52,30
2,note_on,57,0,374
2,note_on,52,0,0
2,note_on,45,0,0
2,note_on,50,48,480
2,note_on,57,53,0
2,note_on,57,0,46
2,note_on,50,0,0
2,note_on,43,50,0
2,note_on,50,50,0
2,note_on,59,57,0
2,note_on,59,0,120
2,note_on,50,0,0
2,note_on,43,0,0
2,note_on,47,49,120
2,note_on,55,49,0
2,note_on,59,56,0
2,note_on,59,0,120
2,note_on,55,0,0
2,note_on,47,0,0
2,note_on,48,53,120
2,note_on,55,53,0
2,note_on,60,60,0
2,note_on,60,0,120
2,note_on,55,0,0
2,note_on,48,0,0
2,note_on,52,51,120
2,note_on,60,51,0
2,note_on,64,58,0
2,note_on,64,0,120
2,note_on,60,0,0
2,note_on,52,0,0
2,note_on,62,61,120
2,note_on,59,55,0
2,note_on,55,55,0
2,note_on,55,0,847
2,note_on,59,0,0
2,note_on,62,0,0
2,note_on,52,58,0
2,note_on,64,58,0
2,note_on,59,58,0
2,note_on,59,0,233
2,note_on,64,0,0
2,note_on,52,0,0
2,note_on,69,46,240
2,note_on,63,46,0
2,note_on,63,0,120
2,note_on,69,0,0
2,note_on,57,49,120
2,note_on,57,0,120
2,note_on,69,48,120
2,note_on,63,48,0
2,note_on,63,0,120
2,note_on,69,0,0
2,note_on,57,49,120
2,note_on,57,0,120
2,note_on,69,46,120
2,note_on,63,46,0
2,note_on,63,0,120
2,note_on,69,0,0
2,note_on,57,49,120
2,note_on,57,0,120
2,note_on,52,58,120
2,note_on,64,58,0
2,note_on,59,58,0
2,note_on,59,0,240
2,note_on,64,0,0
2,note_on,52,0,0
2,note_on,69,46,240
2,note_on,63,46,0
2,note_on,63,0,120
2,note_on,69,0,0
2,note_on,57,49,120
2,note_on,57,0,120
2,note_on,69,48,120
2,note_on,63,48,0
2,note_on,63,0,120
2,note_on,69,0,0
2,note_on,57,49,120
2,note_on,57,0,120
2,note_on,69,46,120
2,note_on,63,46,0
2,note_on,63,0,120
2,note_on,69,0,0
2,note_on,57,49,120
2,note_on,57,0,120
2,note_on,52,58,120
2,note_on,64,58,0
2,note_on,59,58,0
2,note_on,59,0,240
2,note_on,64,0,0
2,note_on,52,0,0
2,note_on,45,42,240
2,note_on,52,47,30
2,note_on,57,52,30
2,note_on,57,0,374
2,note_on,52,0,0
2,note_on,45,0,0
2,note_on,50,48,480
2,note_on,57,53,0
2,note_on,57,0,46
2,note_on,50,0,0
2,note_on,43,50,0
2,note_on,50,50,0
2,note_on,59,57,0
2,note_on,59,0,120
2,note_on,50,0,0
2,note_on,43,0,0
2,note_on,47,49,120
2,note_on,55,49,0
2,note_on,59,56,0
2,note_on,59,0,120
2,note_on,55,0,0
2,note_on,47,0,0
2,note_on,48,53,120
2,note_on,55,53,0
2,note_on,60,60,0
2,note_on,60,0,120
2,note_on,55,0,0
2,note_on,48,0,0
2,note_on,52,51,120
2,note_on,60,51,0
2,note_on,64,58,0
2,note_on,64,0,120
2,note_on,60,0,0
2,note_on,52,0,0
2,note_on,62,61,120
2,note_on,59,55,0
2,note_on,55,55,0
2,note_on,55,0,960
2,note_on,59,0,0
2,note_on,62,0,0
2,note_on,59,58,0
2,note_on,55,58,0
2,note_on,64,58,0
2,note_on,61,58,0
2,note_on,61,0,240
2,note_on,59,0,0
2,note_on,55,0,0
2,note_on,64,0,0
2,note_on,62,46,240
2,note_on,66,46,0
2,note_on,59,46,0
2,note_on,59,0,120
2,note_on,66,0,0
2,note_on,62,0,0
2,note_on,54,49,120
2,note_on,54,0,120
2,note_on,62,48,120
2,note_on,66,48,0
2,note_on,59,48,0
2,note_on,59,0,120
2,note_on,66,0,0
2,note_on,62,0,0
2,note_on,54,49,120
2,note_on,54,0,120
2,note_on,62,46,120
2,note_on,66,46,0
2,note_on,59,46,0
2,note_on,59,0,120
2,note_on,66,0,0
2,note_on,62,0,0
2,note_on,54,49,120
2,note_on,54,0,120
2,note_on,59,58,120
2,note_on,55,58,0
2,note_on,64,58,0
2,note_on,61,58,0
2,note_on,61,0,240
2,note_on,59,0,0
2,note_on,55,0,0
2,note_on,64,0,0
2,note_on,62,46,240
2,note_on,66,46,0
2,note_on,59,46,0
2,note_on,59,0,120
2,note_on,66,0,0
2,note_on,62,0,0
2,note_on,54,49,120
2,note_on,54,0,120
2,note_on,62,48,120
2,note_on,66,48,0
2,note_on,59,48,0
2,note_on,59,0,120
2,note_on,66,0,0
2,note_on,62,0,0
2,note_on,54,49,120
2,note_on,54,0,120
2,note_on,62,46,120
2,note_on,66,46,0
2,note_on,59,46,0
2,note_on,59,0,120
2,note_on,66,0,0
2,note_on,62,0,0
2,note_on,54,49,120
2,note_on,54,0,120
2,note_on,59,58,120
2,note_on,55,58,0
2,note_on,64,58,0
2,note_on,61,58,0
2,note_on,61,0,240
2,note_on,59,0,0
2,note_on,55,0,0
2,note_on,64,0,0
2,note_on,54,46,240
2,note_on,57,46,0
2,note_on,50,46,0
2,note_on,50,0,120
2,note_on,57,0,0
2,note_on,54,0,0
2,note_on,45,49,120
2,note_on,45,0,120
2,note_on,54,48,120
2,note_on,57,48,0
2,note_on,50,48,0
2,note_on,50,0,120
2,note_on,57,0,0
2,note_on,54,0,0
2,note_on,45,49,120
2,note_on,45,0,120
2,note_on,54,46,120
2,note_on,57,46,0
2,note_on,51,46,0
2,note_on,51,0,120
2,note_on,57,0,0
2,note_on,54,0,0
2,note_on,45,49,120
2,note_on,45,0,120
2,note_on,52,58,120
2,note_on,57,58,0
2,note_on,55,58,0
2,note_on,55,0,240
2,note_on,57,0,0
2,note_on,52,0,0
2,note_on,55,78,720
2,note_on,54,66,120
2,note_on,55,0,12
2,note_on,52,66,108
2,note_on,54,0,12
2,note_on,50,64,108
2,note_on,52,0,12
2,note_on,50,0,106
2,note_on,43,69,482
2,note_on,42,62,120
2,note_on,43,0,12
2,note_on,40,60,108
2,note_on,42,0,12
2,note_on,38,58,108
2,note_on,40,0,12
2,note_on,38,0,108
2,note_on,45,42,0
2,note_on,52,47,30
2,note_on,57,52,30
2,note_on,57,0,374
2,note_on,52,0,0
2,note_on,45,0,0
2,note_on,50,48,480
2,note_on,57,53,0
2,note_on,57,0,46
2,note_on,50,0,0
2,note_on,43,50,0
2,note_on,50,50,0
2,note_on,59,57,0
2,note_on,59,0,120
2,note_on,50,0,0
2,note_on,43,0,0
2,note_on,47,49,120
2,note_on,55,49,0
2,note_on,59,56,0
2,note_on,59,0,120
2,note_on,55,0,0
2,note_on,47,0,0
2,note_on,48,53,120
2,note_on,55,53,0
2,note_on,60,60,0
2,note_on,60,0,120
2,note_on,55,0,0
2,note_on,48,0,0
2,note_on,52,51,120
2,note_on,60,51,0
2,note_on,64,58,0
2,note_on,64,0,120
2,note_on,60,0,0
2,note_on,52,0,0
2,note_on,62,61,120
2,note_on,59,55,0
2,note_on,55,55,0
2,note_on,55,0,847
2,note_on,59,0,0
2,note_on,62,0,0
2,note_on,52,58,0
2,note_on,64,58,0
2,note_on,59,58,0
2,note_on,59,0,226
2,note_on,64,0,0
2,note_on,52,0,0
2,note_on,69,46,240
2,note_on,63,46,0
2,note_on,63,0,120
2,note_on,69,0,0
2,note_on,57,49,120
2,note_on,57,0,120
2,note_on,69,48,120
2,note_on,63,48,0
2,note_on,63,0,120
2,note_on,69,0,0
2,note_on,57,49,120
2,note_on,57,0,120
2,note_on,69,46,120
2,note_on,63,46,0
2,note_on,63,0,120
2,note_on,69,0,0
2,note_on,57,49,120
2,note_on,57,0,120
2,note_on,52,58,120
2,note_on,64,58,0
2,note_on,59,58,0
2,note_on,59,0,240
2,note_on,64,0,0
2,note_on,52,0,0
2,note_on,69,46,240
2,note_on,63,46,0
2,note_on,63,0,120
2,note_on,69,0,0
2,note_on,57,49,120
2,note_on,57,0,120
2,note_on,69,48,120
2,note_on,63,48,0
2,note_on,63,0,120
2,note_on,69,0,0
2,note_on,57,49,120
2,note_on,57,0,120
2,note_on,69,46,120
2,note_on,63,46,0
2,note_on,63,0,120
2,note_on,69,0,0
2,note_on,57,49,120
2,note_on,57,0,120
2,note_on,52,58,120
2,note_on,64,58,0
2,note_on,59,58,0
2,note_on,59,0,240
2,note_on,64,0,0
2,note_on,52,0,0
2,note_on,45,42,240
2,note_on,52,47,30
2,note_on,57,52,30
2,note_on,57,0,374
2,note_on,52,0,0
2,note_on,45,0,0
2,note_on,50,48,480
2,note_on,57,53,0
2,note_on,57,0,46
2,note_on,50,0,0
2,note_on,43,50,0
2,note_on,50,50,0
2,note_on,59,57,0
2,note_on,59,0,120
2,note_on,50,0,0
2,note_on,43,0,0
2,note_on,47,49,120
2,note_on,55,49,0
2,note_on,59,56,0
2,note_on,59,0,120
2,note_on,55,0,0
2,note_on,47,0,0
2,note_on,48,53,120
2,note_on,55,53,0
2,note_on,60,60,0
2,note_on,60,0,120
2,note_on,55,0,0
2,note_on,48,0,0
2,note_on,52,51,120
2,note_on,60,51,0
2,note_on,64,58,0
2,note_on,64,0,120
2,note_on,60,0,0
2,note_on,52,0,0
2,note_on,62,61,120
2,note_on,59,55,0
2,note_on,55,55,0
2,note_on,55,0,960
2,note_on,59,0,0
2,note_on,62,0,0
2,note_on,59,58,0
2,note_on,55,58,0
2,note_on,64,58,0
2,note_on,61,58,0
2,note_on,61,0,240
2,note_on,59,0,0
2,note_on,55,0,0
2,note_on,64,0,0
2,note_on,62,46,240
2,note_on,66,46,0
2,note_on,59,46,0
2,note_on,59,0,120
2,note_on,66,0,0
2,note_on,62,0,0
2,note_on,54,49,120
2,note_on,54,0,120
2,note_on,62,48,120
2,note_on,66,48,0
2,note_on,59,48,0
2,note_on,59,0,120
2,note_on,66,0,0
2,note_on,62,0,0
2,note_on,54,49,120
2,note_on,54,0,120
2,note_on,62,46,120
2,note_on,66,46,0
2,note_on,59,46,0
2,note_on,59,0,120
2,note_on,66,0,0
2,note_on,62,0,0
2,note_on,54,49,120
2,note_on,54,0,120
2,note_on,59,58,120
2,note_on,55,58,0
2,note_on,64,58,0
2,note_on,61,58,0
2,note_on,61,0,240
2,note_on,59,0,0
2,note_on,55,0,0
2,note_on,64,0,0
2,note_on,62,46,240
2,note_on,66,46,0
2,note_on,59,46,0
2,note_on,59,0,120
2,note_on,66,0,0
2,note_on,62,0,0
2,note_on,54,49,120
2,note_on,54,0,120
2,note_on,62,48,120
2,note_on,66,48,0
2,note_on,59,48,0
2,note_on,59,0,120
2,note_on,66,0,0
2,note_on,62,0,0
2,note_on,54,49,120
2,note_on,54,0,120
2,note_on,62,46,120
2,note_on,66,46,0
2,note_on,59,46,0
2,note_on,59,0,120
2,note_on,66,0,0
2,note_on,62,0,0
2,note_on,54,49,120
2,note_on,54,0,120
2,note_on,59,58,120
2,note_on,55,58,0
2,note_on,64,58,0
2,note_on,61,58,0
2,note_on,61,0,240
2,note_on,59,0,0
2,note_on,55,0,0
2,note_on,64,0,0
2,note_on,63,46,240
2,note_on,66,46,0
2,note_on,59,46,0
2,note_on,59,0,120
2,note_on,66,0,0
2,note_on,63,0,0
2,note_on,54,49,120
2,note_on,54,0,120
2,note_on,63,48,120
2,note_on,66,48,0
2,note_on,59,48,0
2,note_on,59,0,120
2,note_on,66,0,0
2,note_on,63,0,0
2,note_on,54,49,120
2,note_on,54,0,120
2,note_on,63,46,120
2,note_on,66,46,0
2,note_on,59,46,0
2,note_on,59,0,120
2,note_on,66,0,0
2,note_on,63,0,0
2,note_on,54,49,120
2,note_on,54,0,120
2,note_on,59,46,120
2,note_on,63,46,0
2,note_on,66,46,0
2,note_on,66,0,120
2,note_on,63,0,0
2,note_on,59,0,0
2,note_on,54,49,120
2,note_on,54,0,120
2,note_on,69,46,120
2,note_on,71,46,0
2,note_on,66,46,0
2,note_on,66,0,120
2,note_on,71,0,0
2,note_on,69,0,0
2,note_on,59,49,120
2,note_on,59,0,120
2,note_on,69,48,120
2,note_on,71,48,0
2,note_on,66,48,0
2,note_on,66,0,120
2,note_on,71,0,0
2,note_on,69,0,0
2,note_on,59,49,120
2,note_on,59,0,120
2,note_on,69,46,120
2,note_on,71,46,0
2,note_on,66,46,0
2,note_on,66,0,120
2,note_on,71,0,0
2,note_on,69,0,0
2,note_on,59,49,120
2,note_on,59,0,120
2,note_on,66,46,120
2,note_on,69,46,0
2,note_on,71,46,0
2,note_on,71,0,120
2,note_on,69,0,0
2,note_on,66,0,0
2,note_on,59,49,120
2,note_on,59,0,120
2,note_on,59,52,120
2,note_on,66,52,0
2,note_on,69,52,0
2,note_on,71,52,0
2,note_on,71,0,120
2,note_on,59,0,0
2,note_on,66,0,0
2,note_on,69,0,0
2,note_on,63,57,840
2,note_on,69,57,0
2,note_on,71,57,0
2,note_on,71,0,120
2,note_on,69,0,0
2,note_on,63,0,0
2,note_on,66,59,840
2,note_on,71,59,0
2,note_on,75,59,0
2,note_on,75,0,120
2,note_on,71,0,0
2,note_on,66,0,0
2,note_on,61,53,3720
2,note_on,61,0,117
2,note_on,59,49,120
2,note_on,59,0,120
2,note_on,64,50,120
2,note_on,52,37,424
2,note_on,59,37,0
2,note_on,59,0,240
2,note_on,52,0,0
2,note_on,64,0,240
2,note_on,68,52,0
2,note_on,68,0,184
2,note_on,71,50,0
2,note_on,71,0,240
2,note_on,73,55,0
2,note_on,73,0,166
2,note_on,71,49,0
2,note_on,71,0,120
2,note_on,68,51,120
2,note_on,52,37,395
2,note_on,59,37,0
2,note_on,59,0,240
2,note_on,52,0,0
2,note_on,68,0,240
2,note_on,64,50,0
2,note_on,64,0,184
2,note_on,61,48,0
2,note_on,61,0,240
2,note_on,68,50,0
2,note_on,68,0,184
2,note_on,66,47,0
2,note_on,66,0,120
2,note_on,61,49,120
2,note_on,54,37,395
2,note_on,52,37,0
2,note_on,57,37,0
2,note_on,57,0,240
2,note_on,52,0,0
2,note_on,54,0,0
2,note_on,61,0,240
2,note_on,61,48,0
2,note_on,61,0,173
2,note_on,59,41,0
2,note_on,59,0,240
2,note_on,66,47,0
2,note_on,66,0,183
2,note_on,64,39,0
2,note_on,64,0,120
2,note_on,59,41,120
2,note_on,52,37,400
2,note_on,52,0,240
2,note_on,59,0,240
2,note_on,58,48,0
2,note_on,58,0,169
2,note_on,59,47,0
2,note_on,59,0,240
2,note_on,61,53,0
2,note_on,61,0,169
2,note_on,59,49,0
2,note_on,59,0,120
2,note_on,64,50,120
2,note_on,52,37,424
2,note_on,59,37,0
2,note_on,59,0,240
2,note_on,52,0,0
2,note_on,64,0,240
2,note_on,68,52,0
2,note_on,68,0,157
2,note_on,71,50,0
2,note_on,71,0,240
2,note_on,73,55,0
2,note_on,73,0,152
2,note_on,71,49,0
2,note_on,71,0,120
2,note_on,68,51,120
2,note_on,52,37,395
2,note_on,59,37,0
2,note_on,59,0,240
2,note_on,52,0,0
2,note_on,68,0,240
2,note_on,64,50,0
2,note_on,64,0,159
2,note_on,61,48,0
2,note_on,61,0,240
2,note_on,51,45,0
2,note_on,59,50,0
2,note_on,59,0,174
2,note_on,51,0,0
2,note_on,63,47,0
2,note_on,63,0,120
2,note_on,71,49,120
2,note_on,63,37,395
2,note_on,63,0,240
2,note_on,71,0,240
2,note_on,70,48,0
2,note_on,70,0,186
2,note_on,68,41,0
2,note_on,68,0,240
2,note_on,64,48,0
2,note_on,64,0,440
2,note_on,51,37,0
2,note_on,63,48,0
2,note_on,63,0,149
2,note_on,51,0,0
2,note_on,61,41,0
2,note_on,61,0,240
2,note_on,56,34,0
2,note_on,61,46,0
2,note_on,61,0,137
2,note_on,59,39,0
2,note_on,59,0,240
2,note_on,58,40,0
2,note_on,58,0,171
2,note_on,59,37,0
2,note_on,59,0,240
2,note_on,56,0,0
2,note_on,42,37,101
2,note_on,42,0,85
2,note_on,49,35,0
2,note_on,49,0,120
2,note_on,54,35,0
2,note_on,54,0,120
2,note_on,57,37,0
2,note_on,57,0,120
2,note_on,61,37,0
2,note_on,61,0,120
2,note_on,66,37,0
2,note_on,66,0,120
2,note_on,69,40,0
2,note_on,69,0,120
2,note_on,47,37,596
2,note_on,47,0,113
2,note_on,54,35,0
2,note_on,54,0,120
2,note_on,57,35,0
2,note_on,57,0,120
2,note_on,59,37,0
2,note_on,59,0,120
2,note_on,63,37,0
2,note_on,63,0,120
2,note_on,66,37,0
2,note_on,66,0,120
2,note_on,69,40,0
2,note_on,69,0,118
2,note_on,42,35,49
2,note_on,42,0,120
2,note_on,49,38,0
2,note_on,49,0,120
2,note_on,54,41,0
2,note_on,54,0,120
2,note_on,57,45,0
2,note_on,57,0,120
2,note_on,61,42,0
2,note_on,61,0,120
2,note_on,66,47,0
2,note_on,66,0,120
2,note_on,69,51,0
2,note_on,69,0,120
2,note_on,47,28,714
2,note_on,54,28,0
2,note_on,59,33,0
2,note_on,59,0,240
2,note_on,54,0,0
2,note_on,47,0,0
2,note_on,49,23,240
2,note_on,52,23,0
2,note_on,57,33,0
2,note_on,57,0,240
2,note_on,52,0,0
2,note_on,49,0,0
2,note_on,50,28,240
2,note_on,56,28,0
2,note_on,56,0,240
2,note_on,50,0,0
2,note_on,51,28,240
2,note_on,57,33,0
2,note_on,57,0,240
2,note_on,51,0,0
2,note_on,42,37,14
2,note_on,42,0,120
2,note_on,49,35,0
2,note_on,49,0,120
2,note_on,54,35,0
2,note_on,54,0,120
2,note_on,57,37,0
2,note_on,57,0,120
2,note_on,61,37,0
2,note_on,61,0,120
2,note_on,66,37,0
2,note_on,66,0,120
2,note_on,69,40,0
2,note_on,69,0,120
2,note_on,47,37,35
2,note_on,47,0,120
2,note_on,54,35,0
2,note_on,54,0,120
2,note_on,57,35,0
2,note_on,57,0,120
2,note_on,59,37,0
2,note_on,59,0,120
2,note_on,63,37,0
2,note_on,63,0,120
2,note_on,66,37,0
2,note_on,66,0,120
2,note_on,69,37,0
2,note_on,69,0,120
2,note_on,42,35,49
2,note_on,42,0,120
2,note_on,49,38,0
2,note_on,49,0,120
2,note_on,54,41,0
2,note_on,54,0,120
2,note_on,57,45,0
2,note_on,57,0,120
2,note_on,61,42,0
2,note_on,61,0,120
2,note_on,66,47,0
2,note_on,66,0,120
2,note_on,69,51,0
2,note_on,69,0,120
2,note_on,47,28,710
2,note_on,54,33,0
2,note_on,59,33,0
2,note_on,59,0,240
2,note_on,54,0,0
2,note_on,47,0,0
2,note_on,49,22,720
2,note_on,52,22,0
2,note_on,57,22,0
2,note_on,61,27,0
2,note_on,61,0,240
2,note_on,49,0,0
2,note_on,52,0,0
2,note_on,57,0,0
2,note_on,61,56,480
2,note_on,61,0,240
2,note_on,51,35,0
2,note_on,54,35,0
2,note_on,59,35,0
2,note_on,59,0,240
2,note_on,54,0,0
2,note_on,51,0,0
2,note_on,61,58,0
2,note_on,61,0,240
2,note_on,52,37,0
2,note_on,56,37,0
2,note_on,59,37,0
2,note_on,59,0,240
2,note_on,56,0,0
2,note_on,52,0,0
2,note_on,61,61,0
2,note_on,61,0,240
2,note_on,53,40,0
2,note_on,56,40,0
2,note_on,59,40,0
2,note_on,59,0,240
2,note_on,56,0,0
2,note_on,53,0,0
2,note_on,61,61,0
2,note_on,61,0,240
2,note_on,54,46,0
2,note_on,59,46,0
2,note_on,59,0,240
2,note_on,54,0,0
2,note_on,51,45,240
2,note_on,51,0,120
2,note_on,66,45,120
2,note_on,57,45,0
2,note_on,59,45,0
2,note_on,59,0,120
2,note_on,57,0,0
2,note_on,66,0,0
2,note_on,47,45,600
2,note_on,47,0,120
2,note_on,66,45,120
2,note_on,57,45,0
2,note_on,59,45,0
2,note_on,59,0,120
2,note_on,57,0,0
2,note_on,66,0,0
2,note_on,61,53,2280
2,note_on,61,0,91
2,note_on,59,49,120
2,note_on,59,0,120
2,note_on,64,50,120
2,note_on,52,37,400
2,note_on,59,37,0
2,note_on,59,0,240
2,note_on,52,0,0
2,note_on,64,0,240
2,note_on,68,52,0
2,note_on,68,0,184
2,note_on,71,50,0
2,note_on,71,0,240
2,note_on,73,55,0
2,note_on,73,0,176
2,note_on,71,49,0
2,note_on,71,0,120
2,note_on,68,51,120
2,note_on,52,37,395
2,note_on,59,37,0
2,note_on,59,0,240
2,note_on,52,0,0
2,note_on,68,0,240
2,note_on,64,50,0
2,note_on,64,0,184
2,note_on,61,48,0
2,note_on,61,0,240
2,note_on,68,50,0
2,note_on,68,0,148
2,note_on,66,47,0
2,note_on,66,0,120
2,note_on,61,49,120
2,note_on,54,37,395
2,note_on,52,37,0
2,note_on,57,37,0
2,note_on,57,0,240
2,note_on,52,0,0
2,note_on,54,0,0
2,note_on,61,0,240
2,note_on,61,48,0
2,note_on,61,0,176
2,note_on,59,41,0
2,note_on,59,0,240
2,note_on,66,47,0
2,note_on,66,0,183
2,note_on,64,39,0
2,note_on,64,0,120
2,note_on,59,41,120
2,note_on,52,37,400
2,note_on,52,0,240
2,note_on,59,0,240
2,note_on,58,48,0
2,note_on,58,0,174
2,note_on,59,47,0
2,note_on,59,0,240
2,note_on,61,53,0
2,note_on,61,0,174
2,note_on,59,49,0
2,note_on,59,0,120
2,note_on,64,50,120
2,note_on,52,37,424
2,note_on,59,37,0
2,note_on,59,0,240
2,note_on,52,0,0
2,note_on,64,0,240
2,note_on,68,52,0
2,note_on,68,0,174
2,note_on,71,50,0
2,note_on,71,0,240
2,note_on,73,55,0
2,note_on,73,0,173
2,note_on,71,49,0
2,note_on,71,0,120
2,note_on,68,51,120
2,note_on,52,37,395
2,note_on,59,37,0
2,note_on,59,0,240
2,note_on,52,0,0
2,note_on,68,0,240
2,note_on,64,50,0
2,note_on,64,0,155
2,note_on,61,48,0
2,note_on,61,0,240
2,note_on,68,50,0
2,note_on,68,0,187
2,note_on,66,47,0
2,note_on,66,0,120
2,note_on,61,49,120
2,note_on,52,37,395
2,note_on,54,37,0
2,note_on,57,37,0
2,note_on,57,0,240
2,note_on,54,0,0
2,note_on,52,0,0
2,note_on,61,0,240
2,note_on,61,48,0
2,note_on,61,0,169
2,note_on,59,41,0
2,note_on,59,0,240
2,note_on,66,48,0
2,note_on,66,0,180
2,note_on,64,41,0
2,note_on,64,0,120
2,note_on,59,48,120
2,note_on,52,41,389
2,note_on,52,0,137
2,note_on,59,0,240
2,note_on,58,40,0
2,note_on,58,0,163
2,note_on,59,37,0
2,note_on,59,0,240
2,note_on,61,42,0
2,note_on,61,0,191
2,note_on,59,39,0
2,note_on,59,0,120
2,note_on,56,42,120
2,note_on,52,39,389
2,note_on,56,0,377
2,note_on,55,40,0
2,note_on,55,0,174
2,note_on,56,37,0
2,note_on,56,0,240
2,note_on,57,42,0
2,note_on,57,0,200
2,note_on,52,0,0
2,note_on,56,39,0
2,note_on,56,0,240
2,note_on,52,40,0
2,note_on,52,0,426
2,note_on,40,39,0
2,note_on,46,40,434
2,note_on,46,0,171
2,note_on,47,37,0
2,note_on,47,0,240
2,note_on,49,42,0
2,note_on,49,0,171
2,note_on,47,39,0
2,note_on,47,0,120
2,note_on,44,40,120
2,note_on,40,0,423
2,note_on,40,39,0
2,note_on,44,0,426
2,note_on,43,40,0
2,note_on,43,0,425
2,note_on,44,42,0
2,note_on,44,0,431
2,note_on,45,40,0
2,note_on,45,0,428
2,note_on,40,0,0
2,note_on,44,42,0
2,note_on,40,39,0
2,note_on,44,0,426
2,note_on,43,40,0
2,note_on,43,0,427
2,note_on,44,39,0
2,note_on,44,0,1398
2,note_on,40,0,0
