Track,Message Type,Note,Velocity,Time
1,note_on,62,67,0
1,note_on,74,75,0
1,note_on,74,0,840
1,note_on,62,0,0
1,note_on,74,73,0
1,note_on,62,65,0
1,note_on,62,0,120
1,note_on,74,0,0
1,note_on,62,67,0
1,note_on,74,75,0
1,note_on,74,0,840
1,note_on,62,0,0
1,note_on,74,71,0
1,note_on,62,63,0
1,note_on,62,0,120
1,note_on,74,0,0
1,note_on,62,70,0
1,note_on,74,78,0
1,note_on,74,0,840
1,note_on,62,0,0
1,note_on,62,66,0
1,note_on,74,74,0
1,note_on,74,0,120
1,note_on,62,0,0
1,note_on,74,78,0
1,note_on,62,70,0
1,note_on,62,0,840
1,note_on,74,0,0
1,note_on,62,67,0
1,note_on,74,75,0
1,note_on,74,0,120
1,note_on,62,0,0
1,note_on,62,70,0
1,note_on,74,78,0
1,note_on,74,0,480
1,note_on,62,0,0
1,note_on,74,78,0
1,note_on,62,70,0
1,note_on,62,0,960
1,note_on,74,0,0
1,note_on,62,70,0
1,note_on,74,78,0
1,note_on,74,0,960
1,note_on,62,0,0
1,note_on,62,70,0
1,note_on,74,78,0
1,note_on,74,0,720
1,note_on,62,0,0
1,note_on,74,75,0
1,note_on,62,67,0
1,note_on,62,0,480
1,note_on,74,0,0
1,note_on,74,76,0
1,note_on,62,68,0
1,note_on,62,0,120
1,note_on,74,0,0
1,note_on,79,83,600
1,note_on,67,83,0
1,note_on,67,0,960
1,note_on,79,0,0
1,note_on,67,70,0
1,note_on,79,78,0
1,note_on,79,0,720
1,note_on,67,0,0
1,note_on,67,70,0
1,note_on,79,78,0
1,note_on,79,0,480
1,note_on,67,0,0
1,note_on,79,76,0
1,note_on,67,68,0
1,note_on,67,0,120
1,note_on,79,0,0
1,note_on,86,97,120
1,note_on,74,87,0
1,note_on,78,87,0
1,note_on,78,0,120
1,note_on,74,0,0
1,note_on,86,0,0
1,note_on,86,88,120
1,note_on,74,79,0
1,note_on,79,79,0
1,note_on,79,0,120
1,note_on,74,0,0
1,note_on,86,0,0
1,note_on,86,94,120
1,note_on,74,84,0
1,note_on,78,84,0
1,note_on,78,0,240
1,note_on,74,0,0
1,note_on,86,0,0
1,note_on,59,72,240
1,note_on,67,80,0
1,note_on,67,0,640
1,note_on,59,0,0
1,note_on,59,67,0
1,note_on,67,75,0
1,note_on,67,0,120
1,note_on,59,0,0
1,note_on,67,75,40
1,note_on,59,67,0
1,note_on,59,0,120
1,note_on,67,0,0
1,note_on,67,81,40
1,note_on,59,72,0
1,note_on,59,0,640
1,note_on,67,0,0
1,note_on,67,75,0
1,note_on,59,67,0
1,note_on,59,0,120
1,note_on,67,0,0
1,note_on,59,66,40
1,note_on,67,74,0
1,note_on,67,0,120
1,note_on,59,0,0
1,note_on,59,72,40
1,note_on,67,80,0
1,note_on,67,0,720
1,note_on,59,0,0
1,note_on,67,66,0
1,note_on,71,74,0
1,note_on,71,0,120
1,note_on,67,0,0
1,note_on,69,72,120
1,note_on,72,80,0
1,note_on,72,0,120
1,note_on,69,0,0
1,note_on,67,66,120
1,note_on,71,74,0
1,note_on,71,0,120
1,note_on,67,0,0
1,note_on,69,72,120
1,note_on,72,80,0
1,note_on,72,0,120
1,note_on,69,0,0
1,note_on,62,71,120
1,note_on,69,79,0
1,note_on,69,0,120
1,note_on,62,0,0
1,note_on,74,80,120
1,note_on,71,72,0
1,note_on,71,0,640
1,note_on,74,0,0
1,note_on,74,75,0
1,note_on,71,67,0
1,note_on,71,0,120
1,note_on,74,0,0
1,note_on,71,67,40
1,note_on,74,75,0
1,note_on,74,0,120
1,note_on,71,0,0
1,note_on,71,72,40
1,note_on,74,81,0
1,note_on,74,0,640
1,note_on,71,0,0
1,note_on,74,75,0
1,note_on,71,67,0
1,note_on,71,0,120
1,note_on,74,0,0
1,note_on,71,66,40
1,note_on,74,74,0
1,note_on,74,0,120
1,note_on,71,0,0
1,note_on,72,72,40
1,note_on,76,80,0
1,note_on,76,0,120
1,note_on,72,0,0
1,note_on,71,69,120
1,note_on,74,77,0
1,note_on,74,0,120
1,note_on,71,0,0
1,note_on,69,69,120
1,note_on,72,77,0
1,note_on,72,0,120
1,note_on,69,0,0
1,note_on,68,75,120
1,note_on,64,67,0
1,note_on,71,75,0
1,note_on,71,0,120
1,note_on,64,0,0
1,note_on,68,0,0
1,note_on,69,82,120
1,note_on,64,73,0
1,note_on,64,0,120
1,note_on,69,0,0
1,note_on,64,69,120
1,note_on,68,69,0
1,note_on,71,77,0
1,note_on,71,0,120
1,note_on,68,0,0
1,note_on,64,0,0
1,note_on,64,67,120
1,note_on,69,73,0
1,note_on,72,82,0
1,note_on,72,0,120
1,note_on,69,0,0
1,note_on,64,0,0
1,note_on,74,64,360
1,note_on,78,72,0
1,note_on,78,0,120
1,note_on,74,0,0
1,note_on,76,66,120
1,note_on,73,59,0
1,note_on,73,0,120
1,note_on,76,0,0
1,note_on,74,71,120
1,note_on,71,63,0
1,note_on,71,0,120
1,note_on,74,0,0
1,note_on,70,67,120
1,note_on,73,67,0
1,note_on,66,60,0
1,note_on,66,0,120
1,note_on,73,0,0
1,note_on,70,0,0
1,note_on,66,62,120
1,note_on,71,69,0
1,note_on,71,0,120
1,note_on,66,0,0
1,note_on,66,57,120
1,note_on,70,64,0
1,note_on,73,64,0
1,note_on,73,0,120
1,note_on,70,0,0
1,note_on,66,0,0
1,note_on,66,60,120
1,note_on,71,67,0
1,note_on,74,67,0
1,note_on,74,0,120
1,note_on,71,0,0
1,note_on,66,0,0
1,note_on,76,64,360
1,note_on,80,72,0
1,note_on,80,0,120
1,note_on,76,0,0
1,note_on,78,66,120
1,note_on,75,59,0
1,note_on,75,0,120
1,note_on,78,0,0
1,note_on,73,63,120
1,note_on,76,71,0
1,note_on,76,0,120
1,note_on,73,0,0
1,note_on,68,60,120
1,note_on,72,67,0
1,note_on,75,67,0
1,note_on,75,0,120
1,note_on,72,0,0
1,note_on,68,0,0
1,note_on,68,62,120
1,note_on,73,69,0
1,note_on,73,0,120
1,note_on,68,0,0
1,note_on,72,64,120
1,note_on,68,57,0
1,note_on,75,64,0
1,note_on,75,0,120
1,note_on,68,0,0
1,note_on,72,0,0
1,note_on,73,67,120
1,note_on,76,67,0
1,note_on,68,60,0
1,note_on,68,0,120
1,note_on,76,0,0
1,note_on,73,0,0
1,note_on,78,54,360
1,note_on,81,61,0
1,note_on,81,0,240
1,note_on,78,0,0
1,note_on,76,49,0
1,note_on,79,55,0
1,note_on,79,0,240
1,note_on,76,0,0
1,note_on,78,60,0
1,note_on,74,54,0
1,note_on,74,0,240
1,note_on,78,0,0
1,note_on,69,50,0
1,note_on,76,56,0
1,note_on,76,0,240
1,note_on,69,0,0
1,note_on,78,54,0
1,note_on,81,61,0
1,note_on,81,0,240
1,note_on,78,0,0
1,note_on,79,55,0
1,note_on,76,49,0
1,note_on,76,0,240
1,note_on,79,0,0
1,note_on,74,54,0
1,note_on,78,60,0
1,note_on,78,0,240
1,note_on,74,0,0
1,note_on,69,52,0
1,note_on,76,58,0
1,note_on,76,0,240
1,note_on,69,0,0
1,note_on,81,62,0
1,note_on,78,55,0
1,note_on,78,0,240
1,note_on,81,0,0
1,note_on,76,51,0
1,note_on,79,57,0
1,note_on,79,0,240
1,note_on,76,0,0
1,note_on,74,56,0
1,note_on,78,63,0
1,note_on,78,0,240
1,note_on,74,0,0
1,note_on,76,59,0
1,note_on,69,53,0
1,note_on,69,0,240
1,note_on,76,0,0
1,note_on,78,56,0
1,note_on,81,63,0
1,note_on,81,0,240
1,note_on,78,0,0
1,note_on,79,59,0
1,note_on,76,53,0
1,note_on,76,0,240
1,note_on,79,0,0
1,note_on,74,56,0
1,note_on,78,63,0
1,note_on,78,0,240
1,note_on,74,0,0
1,note_on,69,54,0
1,note_on,76,61,0
1,note_on,76,0,240
1,note_on,69,0,0
1,note_on,86,69,0
1,note_on,83,62,0
1,note_on,83,0,240
1,note_on,86,0,0
1,note_on,81,56,0
1,note_on,84,63,0
1,note_on,84,0,240
1,note_on,81,0,0
1,note_on,79,61,0
1,note_on,83,68,0
1,note_on,83,0,240
1,note_on,79,0,0
1,note_on,81,63,0
1,note_on,74,56,0
1,note_on,74,0,240
1,note_on,81,0,0
1,note_on,83,63,0
1,note_on,86,71,0
1,note_on,86,0,240
1,note_on,83,0,0
1,note_on,81,57,0
1,note_on,84,64,0
1,note_on,84,0,240
1,note_on,81,0,0
1,note_on,83,69,0
1,note_on,79,62,0
1,note_on,79,0,240
1,note_on,83,0,0
1,note_on,81,66,0
1,note_on,74,59,0
1,note_on,74,0,240
1,note_on,81,0,0
1,note_on,86,72,0
1,note_on,83,64,0
1,note_on,83,0,240
1,note_on,86,0,0
1,note_on,81,58,0
1,note_on,84,65,0
1,note_on,84,0,240
1,note_on,81,0,0
1,note_on,79,63,0
1,note_on,83,71,0
1,note_on,83,0,240
1,note_on,79,0,0
1,note_on,81,68,0
1,note_on,74,61,0
1,note_on,74,0,240
1,note_on,81,0,0
1,note_on,83,65,0
1,note_on,86,73,0
1,note_on,86,0,240
1,note_on,83,0,0
1,note_on,81,61,0
1,note_on,84,68,0
1,note_on,84,0,240
1,note_on,81,0,0
1,note_on,83,72,0
1,note_on,79,64,0
1,note_on,79,0,240
1,note_on,83,0,0
1,note_on,74,70,0
1,note_on,81,70,0
1,note_on,81,0,240
1,note_on,74,0,0
1,note_on,67,82,0
1,note_on,71,82,0
1,note_on,79,92,0
1,note_on,79,0,640
1,note_on,71,0,0
1,note_on,67,0,0
1,note_on,67,77,0
1,note_on,71,77,0
1,note_on,79,86,0
1,note_on,79,0,120
1,note_on,71,0,0
1,note_on,67,0,0
1,note_on,67,77,40
1,note_on,79,86,0
1,note_on,71,77,0
1,note_on,71,0,120
1,note_on,79,0,0
1,note_on,67,0,0
1,note_on,79,93,40
1,note_on,71,83,0
1,note_on,67,83,0
1,note_on,67,0,640
1,note_on,71,0,0
1,note_on,79,0,0
1,note_on,67,77,0
1,note_on,71,77,0
1,note_on,79,86,0
1,note_on,79,0,120
1,note_on,71,0,0
1,note_on,67,0,0
1,note_on,67,76,40
1,note_on,71,76,0
1,note_on,79,85,0
1,note_on,79,0,120
1,note_on,71,0,0
1,note_on,67,0,0
1,note_on,67,82,40
1,note_on,71,82,0
1,note_on,79,92,0
1,note_on,79,0,720
1,note_on,71,0,0
1,note_on,67,0,0
1,note_on,71,73,0
1,note_on,83,82,0
1,note_on,79,82,0
1,note_on,79,0,120
1,note_on,83,0,0
1,note_on,71,0,0
1,note_on,72,78,120
1,note_on,81,87,0
1,note_on,84,87,0
1,note_on,84,0,120
1,note_on,81,0,0
1,note_on,72,0,0
1,note_on,71,76,120
1,note_on,79,85,0
1,note_on,83,85,0
1,note_on,83,0,120
1,note_on,79,0,0
1,note_on,71,0,0
1,note_on,72,78,120
1,note_on,84,87,0
1,note_on,81,87,0
1,note_on,81,0,120
1,note_on,84,0,0
1,note_on,72,0,0
1,note_on,69,72,120
1,note_on,81,81,0
1,note_on,74,81,0
1,note_on,74,0,120
1,note_on,81,0,0
1,note_on,69,0,0
1,note_on,86,101,120
1,note_on,74,90,0
1,note_on,83,101,0
1,note_on,83,0,640
1,note_on,74,0,0
1,note_on,86,0,0
1,note_on,83,94,0
1,note_on,74,84,0
1,note_on,86,94,0
1,note_on,86,0,120
1,note_on,74,0,0
1,note_on,83,0,0
1,note_on,83,94,40
1,note_on,74,84,0
1,note_on,86,94,0
1,note_on,86,0,120
1,note_on,74,0,0
1,note_on,83,0,0
1,note_on,83,102,40
1,note_on,74,91,0
1,note_on,86,102,0
1,note_on,86,0,640
1,note_on,74,0,0
1,note_on,83,0,0
1,note_on,83,94,0
1,note_on,74,84,0
1,note_on,86,94,0
1,note_on,86,0,120
1,note_on,74,0,0
1,note_on,83,0,0
1,note_on,83,93,40
1,note_on,74,83,0
1,note_on,86,93,0
1,note_on,86,0,120
1,note_on,74,0,0
1,note_on,83,0,0
1,note_on,88,93,40
1,note_on,76,83,0
1,note_on,84,93,0
1,note_on,84,0,120
1,note_on,76,0,0
1,note_on,88,0,0
1,note_on,83,86,120
1,note_on,74,77,0
1,note_on,86,86,0
1,note_on,86,0,120
1,note_on,74,0,0
1,note_on,83,0,0
1,note_on,81,91,120
1,note_on,84,91,0
1,note_on,72,81,0
1,note_on,72,0,120
1,note_on,84,0,0
1,note_on,81,0,0
1,note_on,79,85,120
1,note_on,71,76,0
1,note_on,74,85,0
1,note_on,83,85,0
1,note_on,83,0,120
1,note_on,79,0,0
1,note_on,71,0,0
1,note_on,74,0,0
1,note_on,74,84,120
1,note_on,81,94,0
1,note_on,78,94,0
1,note_on,69,84,0
1,note_on,69,0,120
1,note_on,74,0,0
1,note_on,81,0,0
1,note_on,78,0,0
1,note_on,71,80,120
1,note_on,83,89,0
1,note_on,74,80,0
1,note_on,79,89,0
1,note_on,79,0,120
1,note_on,71,0,0
1,note_on,83,0,0
1,note_on,74,0,0
1,note_on,78,94,120
1,note_on,69,77,0
1,note_on,74,77,0
1,note_on,81,94,0
1,note_on,81,0,120
1,note_on,78,0,0
1,note_on,69,0,0
1,note_on,74,0,0
1,note_on,71,82,360
1,note_on,67,82,0
1,note_on,79,92,0
1,note_on,79,0,640
1,note_on,67,0,0
1,note_on,71,0,0
1,note_on,71,77,0
1,note_on,67,77,0
1,note_on,79,86,0
1,note_on,79,0,160
1,note_on,67,0,0
1,note_on,71,0,0
1,note_on,71,77,0
1,note_on,79,86,0
1,note_on,67,77,0
1,note_on,67,0,160
1,note_on,79,0,0
1,note_on,71,0,0
1,note_on,79,93,0
1,note_on,67,83,0
1,note_on,71,83,0
1,note_on,71,0,640
1,note_on,67,0,0
1,note_on,79,0,0
1,note_on,79,86,0
1,note_on,67,77,0
1,note_on,71,77,0
1,note_on,71,0,160
1,note_on,67,0,0
1,note_on,79,0,0
1,note_on,79,85,0
1,note_on,67,76,0
1,note_on,71,76,0
1,note_on,71,0,160
1,note_on,67,0,0
1,note_on,79,0,0
1,note_on,79,92,0
1,note_on,67,82,0
1,note_on,71,82,0
1,note_on,71,0,720
1,note_on,67,0,0
1,note_on,79,0,0
1,note_on,79,82,0
1,note_on,71,73,0
1,note_on,83,82,0
1,note_on,83,0,240
1,note_on,71,0,0
1,note_on,79,0,0
1,note_on,84,87,0
1,note_on,72,78,0
1,note_on,81,87,0
1,note_on,81,0,240
1,note_on,72,0,0
1,note_on,84,0,0
1,note_on,83,85,0
1,note_on,71,76,0
1,note_on,80,85,0
1,note_on,80,0,240
1,note_on,71,0,0
1,note_on,83,0,0
1,note_on,81,87,0
1,note_on,84,87,0
1,note_on,72,78,0
1,note_on,72,0,120
1,note_on,84,0,0
1,note_on,81,0,0
1,note_on,74,81,120
1,note_on,69,72,0
1,note_on,81,81,0
1,note_on,81,0,120
1,note_on,69,0,0
1,note_on,74,0,0
1,note_on,79,87,120
1,note_on,74,82,0
1,note_on,86,96,0
1,note_on,86,0,720
1,note_on,74,0,0
1,note_on,84,82,0
1,note_on,72,73,0
1,note_on,72,0,240
1,note_on,84,0,0
1,note_on,79,0,0
1,note_on,83,87,0
1,note_on,71,78,0
1,note_on,79,87,0
1,note_on,79,0,240
1,note_on,71,0,0
1,note_on,83,0,0
1,note_on,84,85,0
1,note_on,72,76,0
1,note_on,81,85,0
1,note_on,81,0,240
1,note_on,72,0,0
1,note_on,84,0,0
1,note_on,83,87,0
1,note_on,74,78,0
1,note_on,86,87,0
1,note_on,86,0,120
1,note_on,74,0,0
1,note_on,83,0,0
1,note_on,83,81,120
1,note_on,71,72,0
1,note_on,79,81,0
1,note_on,79,0,120
1,note_on,71,0,0
1,note_on,83,0,0
1,note_on,91,96,120
1,note_on,79,82,0
1,note_on,84,87,0
1,note_on,84,0,720
1,note_on,79,0,0
1,note_on,91,0,0
1,note_on,90,77,0
1,note_on,84,69,0
1,note_on,78,69,0
1,note_on,78,0,120
1,note_on,84,0,0
1,note_on,90,0,0
1,note_on,76,74,120
1,note_on,84,82,0
1,note_on,88,82,0
1,note_on,88,0,120
1,note_on,84,0,0
1,note_on,76,0,0
1,note_on,78,72,120
1,note_on,86,80,0
1,note_on,90,80,0
1,note_on,90,0,120
1,note_on,86,0,0
1,note_on,78,0,0
1,note_on,76,74,120
1,note_on,88,82,0
1,note_on,84,82,0
1,note_on,84,0,120
1,note_on,88,0,0
1,note_on,76,0,0
1,note_on,74,68,120
1,note_on,83,76,0
1,note_on,86,76,0
1,note_on,86,0,120
1,note_on,83,0,0
1,note_on,74,0,0
1,note_on,72,73,120
1,note_on,81,81,0
1,note_on,84,81,0
1,note_on,84,0,120
1,note_on,81,0,0
1,note_on,72,0,0
1,note_on,83,74,120
1,note_on,86,74,0
1,note_on,74,66,0
1,note_on,74,0,120
1,note_on,86,0,0
1,note_on,83,0,0
1,note_on,72,71,120
1,note_on,81,79,0
1,note_on,84,79,0
1,note_on,84,0,120
1,note_on,81,0,0
1,note_on,72,0,0
1,note_on,79,72,120
1,note_on,83,72,0
1,note_on,71,64,0
1,note_on,71,0,120
1,note_on,83,0,0
1,note_on,79,0,0
1,note_on,78,77,120
1,note_on,69,69,0
1,note_on,81,77,0
1,note_on,81,0,120
1,note_on,69,0,0
1,note_on,78,0,0
1,note_on,79,74,120
1,note_on,71,66,0
1,note_on,83,74,0
1,note_on,83,0,120
1,note_on,71,0,0
1,note_on,79,0,0
1,note_on,81,77,120
1,note_on,69,69,0
1,note_on,78,77,0
1,note_on,78,0,120
1,note_on,69,0,0
1,note_on,81,0,0
1,note_on,76,73,120
1,note_on,67,65,0
1,note_on,79,73,0
1,note_on,79,0,120
1,note_on,67,0,0
1,note_on,76,0,0
1,note_on,74,81,120
1,note_on,66,73,0
1,note_on,78,81,0
1,note_on,78,0,120
1,note_on,66,0,0
1,note_on,74,0,0
1,note_on,79,74,120
1,note_on,76,74,0
1,note_on,67,66,0
1,note_on,67,0,120
1,note_on,76,0,0
1,note_on,79,0,0
1,note_on,74,79,120
1,note_on,66,71,0
1,note_on,78,79,0
1,note_on,78,0,120
1,note_on,66,0,0
1,note_on,74,0,0
1,note_on,64,64,120
1,note_on,72,72,0
1,note_on,76,72,0
1,note_on,76,0,120
1,note_on,72,0,0
1,note_on,64,0,0
1,note_on,71,73,120
1,note_on,74,73,0
1,note_on,62,65,0
1,note_on,62,0,120
1,note_on,74,0,0
1,note_on,71,0,0
1,note_on,72,70,120
1,note_on,64,62,0
1,note_on,76,70,0
1,note_on,76,0,120
1,note_on,64,0,0
1,note_on,72,0,0
1,note_on,71,73,120
1,note_on,62,65,0
1,note_on,74,73,0
1,note_on,74,0,120
1,note_on,62,0,0
1,note_on,71,0,0
1,note_on,72,69,120
1,note_on,64,61,0
1,note_on,69,69,0
1,note_on,69,0,120
1,note_on,64,0,0
1,note_on,72,0,0
1,note_on,67,65,120
1,note_on,71,73,0
1,note_on,71,0,640
1,note_on,67,0,0
1,note_on,59,61,0
1,note_on,67,61,0
1,note_on,71,68,0
1,note_on,71,0,160
1,note_on,67,0,0
1,note_on,59,0,0
1,note_on,59,61,0
1,note_on,67,61,0
1,note_on,71,68,0
1,note_on,71,0,160
1,note_on,67,0,0
1,note_on,59,0,0
1,note_on,59,62,0
1,note_on,67,62,0
1,note_on,71,70,0
1,note_on,71,0,640
1,note_on,67,0,0
1,note_on,59,0,0
1,note_on,59,61,0
1,note_on,71,68,0
1,note_on,67,61,0
1,note_on,67,0,160
1,note_on,71,0,0
1,note_on,59,0,0
1,note_on,71,68,0
1,note_on,67,60,0
1,note_on,59,60,0
1,note_on,59,0,160
1,note_on,67,0,0
1,note_on,71,0,0
1,note_on,59,61,0
1,note_on,67,61,0
1,note_on,71,69,0
1,note_on,71,0,480
1,note_on,67,0,0
1,note_on,59,0,0
1,note_on,62,58,240
1,note_on,74,65,0
1,note_on,67,65,0
1,note_on,67,0,120
1,note_on,74,0,0
1,note_on,62,0,0
1,note_on,67,62,120
1,note_on,76,69,0
1,note_on,64,62,0
1,note_on,73,69,0
1,note_on,73,0,120
1,note_on,67,0,0
1,note_on,76,0,0
1,note_on,64,0,0
1,note_on,62,60,120
1,note_on,74,68,0
1,note_on,74,0,120
1,note_on,62,0,0
1,note_on,64,62,120
1,note_on,76,69,0
1,note_on,72,69,0
1,note_on,72,0,120
1,note_on,76,0,0
1,note_on,64,0,0
1,note_on,66,57,120
1,note_on,78,64,0
1,note_on,78,0,120
1,note_on,66,0,0
1,note_on,71,62,120
1,note_on,67,62,0
1,note_on,79,69,0
1,note_on,79,0,240
1,note_on,67,0,0
1,note_on,71,0,0
1,note_on,79,67,400
1,note_on,71,67,0
1,note_on,83,74,0
1,note_on,83,0,160
1,note_on,71,0,0
1,note_on,79,0,0
1,note_on,79,67,0
1,note_on,83,74,0
1,note_on,71,67,0
1,note_on,71,0,160
1,note_on,83,0,0
1,note_on,79,0,0
1,note_on,83,77,0
1,note_on,71,68,0
1,note_on,79,68,0
1,note_on,79,0,640
1,note_on,71,0,0
1,note_on,83,0,0
1,note_on,83,74,0
1,note_on,71,67,0
1,note_on,79,67,0
1,note_on,79,0,160
1,note_on,71,0,0
1,note_on,83,0,0
1,note_on,83,74,0
1,note_on,71,66,0
1,note_on,79,66,0
1,note_on,79,0,160
1,note_on,71,0,0
1,note_on,83,0,0
1,note_on,83,75,0
1,note_on,71,67,0
1,note_on,79,67,0
1,note_on,79,0,480
1,note_on,71,0,0
1,note_on,83,0,0
1,note_on,79,74,240
1,note_on,74,66,0
1,note_on,86,74,0
1,note_on,86,0,120
1,note_on,74,0,0
1,note_on,79,0,0
1,note_on,85,78,120
1,note_on,88,78,0
1,note_on,76,71,0
1,note_on,79,71,0
1,note_on,79,0,120
1,note_on,85,0,0
1,note_on,88,0,0
1,note_on,76,0,0
1,note_on,86,77,120
1,note_on,74,69,0
1,note_on,74,0,120
1,note_on,86,0,0
1,note_on,84,78,120
1,note_on,76,71,0
1,note_on,88,78,0
1,note_on,88,0,240
1,note_on,76,0,0
1,note_on,84,0,0
1,note_on,84,65,0
1,note_on,90,73,0
1,note_on,86,73,0
1,note_on,78,65,0
1,note_on,78,0,240
1,note_on,84,0,0
1,note_on,90,0,0
1,note_on,86,0,0
1,note_on,83,71,0
1,note_on,91,78,0
1,note_on,79,71,0
1,note_on,86,71,0
1,note_on,86,0,240
1,note_on,83,0,0
1,note_on,91,0,0
1,note_on,79,0,0
1,note_on,86,76,240
1,note_on,74,68,0
1,note_on,74,0,120
1,note_on,86,0,0
1,note_on,76,68,40
1,note_on,88,76,0
1,note_on,88,0,120
1,note_on,76,0,0
1,note_on,78,69,40
1,note_on,90,77,0
1,note_on,90,0,120
1,note_on,78,0,0
1,note_on,91,78,40
1,note_on,79,70,0
1,note_on,79,0,120
1,note_on,91,0,0
1,note_on,74,68,360
1,note_on,86,76,0
1,note_on,86,0,120
1,note_on,74,0,0
1,note_on,76,68,40
1,note_on,88,76,0
1,note_on,88,0,120
1,note_on,76,0,0
1,note_on,90,77,40
1,note_on,78,69,0
1,note_on,78,0,120
1,note_on,90,0,0
1,note_on,91,78,40
1,note_on,79,70,0
1,note_on,79,0,120
1,note_on,91,0,0
1,note_on,86,76,360
1,note_on,74,68,0
1,note_on,74,0,120
1,note_on,86,0,0
1,note_on,76,68,40
1,note_on,88,76,0
1,note_on,88,0,120
1,note_on,76,0,0
1,note_on,78,69,40
1,note_on,90,77,0
1,note_on,90,0,120
1,note_on,78,0,0
1,note_on,91,78,40
1,note_on,79,70,0
1,note_on,79,0,240
1,note_on,91,0,0
1,note_on,67,55,240
1,note_on,67,0,80
1,note_on,69,55,80
1,note_on,69,0,80
1,note_on,70,51,80
1,note_on,70,0,80
1,note_on,71,55,80
1,note_on,71,0,960
1,note_on,72,55,0
1,note_on,72,0,480
1,note_on,67,55,0
1,note_on,67,0,80
1,note_on,69,55,80
1,note_on,69,0,80
1,note_on,71,51,80
1,note_on,71,0,80
1,note_on,72,55,80
1,note_on,72,0,840
1,note_on,76,55,0
1,note_on,76,0,120
1,note_on,71,55,0
1,note_on,71,0,480
1,note_on,54,55,0
1,note_on,54,0,80
1,note_on,55,55,80
1,note_on,55,0,80
1,note_on,57,51,80
1,note_on,57,0,80
1,note_on,59,55,80
1,note_on,66,39,480
1,note_on,63,35,0
1,note_on,63,0,240
1,note_on,66,0,0
1,note_on,59,0,240
1,note_on,60,55,0
1,note_on,60,0,480
1,note_on,67,39,0
1,note_on,64,39,0
1,note_on,55,55,0
1,note_on,55,0,80
1,note_on,57,55,80
1,note_on,57,0,80
1,note_on,64,0,0
1,note_on,67,0,0
1,note_on,59,51,80
1,note_on,59,0,80
1,note_on,60,55,80
1,note_on,72,39,480
1,note_on,69,39,0
1,note_on,69,0,240
1,note_on,72,0,0
1,note_on,60,0,120
1,note_on,64,55,0
1,note_on,64,0,120
1,note_on,59,55,0
1,note_on,59,0,480
1,note_on,63,39,0
1,note_on,66,55,0
1,note_on,66,0,80
1,note_on,68,55,80
1,note_on,68,0,80
1,note_on,63,0,0
1,note_on,70,51,80
1,note_on,70,0,80
1,note_on,71,55,80
1,note_on,71,0,960
1,note_on,72,55,0
1,note_on,72,0,480
1,note_on,67,55,0
1,note_on,67,0,80
1,note_on,69,55,80
1,note_on,69,0,80
1,note_on,71,51,80
1,note_on,71,0,80
1,note_on,72,55,80
1,note_on,72,0,840
1,note_on,76,55,0
1,note_on,76,0,120
1,note_on,71,55,0
1,note_on,71,0,480
1,note_on,54,55,0
1,note_on,54,0,80
1,note_on,55,55,80
1,note_on,55,0,80
1,note_on,57,51,80
1,note_on,57,0,80
1,note_on,59,55,80
1,note_on,63,39,480
1,note_on,66,39,0
1,note_on,66,0,240
1,note_on,63,0,0
1,note_on,59,0,240
1,note_on,60,55,0
1,note_on,60,0,480
1,note_on,64,39,0
1,note_on,67,39,0
1,note_on,55,55,0
1,note_on,55,0,80
1,note_on,57,55,80
1,note_on,57,0,80
1,note_on,67,0,0
1,note_on,64,0,0
1,note_on,59,51,80
1,note_on,59,0,80
1,note_on,60,55,80
1,note_on,69,39,480
1,note_on,72,39,0
1,note_on,72,0,240
1,note_on,69,0,0
1,note_on,60,0,120
1,note_on,64,55,0
1,note_on,64,0,120
1,note_on,59,55,0
1,note_on,59,0,480
1,note_on,71,42,0
1,note_on,63,59,0
1,note_on,63,0,80
1,note_on,64,59,80
1,note_on,64,0,80
1,note_on,71,0,0
1,note_on,65,57,80
1,note_on,65,0,80
1,note_on,66,62,80
1,note_on,61,46,480
1,note_on,61,0,480
1,note_on,66,0,0
1,note_on,60,64,0
1,note_on,68,67,0
1,note_on,68,0,240
1,note_on,60,0,0
1,note_on,80,68,240
1,note_on,68,61,0
1,note_on,68,0,480
1,note_on,80,0,0
1,note_on,67,60,0
1,note_on,79,67,0
1,note_on,79,0,480
1,note_on,67,0,0
1,note_on,66,60,0
1,note_on,68,60,0
1,note_on,78,67,0
1,note_on,78,0,480
1,note_on,68,0,0
1,note_on,66,0,0
1,note_on,64,54,0
1,note_on,68,54,0
1,note_on,76,67,0
1,note_on,76,0,240
1,note_on,68,0,0
1,note_on,64,0,0
1,note_on,64,61,240
1,note_on,64,0,160
1,note_on,66,61,0
1,note_on,66,0,160
1,note_on,67,59,0
1,note_on,67,0,160
1,note_on,68,65,0
1,note_on,63,48,480
1,note_on,63,0,480
1,note_on,68,0,0
1,note_on,70,69,0
1,note_on,62,67,0
1,note_on,62,0,240
1,note_on,70,0,0
1,note_on,82,70,240
1,note_on,70,63,0
1,note_on,70,0,480
1,note_on,82,0,0
1,note_on,81,70,0
1,note_on,69,63,0
1,note_on,69,0,480
1,note_on,81,0,0
1,note_on,70,59,0
1,note_on,68,59,0
1,note_on,80,66,0
1,note_on,80,0,480
1,note_on,68,0,0
1,note_on,70,0,0
1,note_on,70,56,0
1,note_on,66,56,0
1,note_on,78,70,0
1,note_on,78,0,240
1,note_on,66,0,0
1,note_on,70,0,0
1,note_on,70,59,240
1,note_on,70,0,80
1,note_on,72,57,80
1,note_on,72,0,80
1,note_on,74,57,80
1,note_on,74,0,80
1,note_on,75,60,80
1,note_on,75,0,80
1,note_on,74,57,80
1,note_on,74,0,80
1,note_on,75,57,80
1,note_on,75,0,80
1,note_on,82,60,80
1,note_on,82,0,80
1,note_on,81,56,80
1,note_on,81,0,80
1,note_on,82,56,80
1,note_on,82,0,80
1,note_on,78,60,80
1,note_on,78,0,80
1,note_on,77,57,80
1,note_on,77,0,80
1,note_on,78,57,80
1,note_on,78,0,80
1,note_on,74,61,80
1,note_on,74,0,80
1,note_on,73,59,80
1,note_on,73,0,80
1,note_on,74,59,80
1,note_on,74,0,80
1,note_on,75,60,80
1,note_on,75,0,80
1,note_on,74,58,80
1,note_on,74,0,80
1,note_on,75,58,80
1,note_on,75,0,80
1,note_on,70,59,80
1,note_on,70,0,80
1,note_on,69,57,80
1,note_on,69,0,80
1,note_on,70,57,80
1,note_on,70,0,80
1,note_on,75,60,80
1,note_on,75,0,80
1,note_on,74,57,80
1,note_on,74,0,80
1,note_on,75,58,80
1,note_on,75,0,80
1,note_on,82,71,720
1,note_on,82,0,160
1,note_on,81,66,0
1,note_on,81,0,160
1,note_on,82,71,0
1,note_on,82,0,160
1,note_on,70,65,0
1,note_on,70,0,160
1,note_on,82,67,0
1,note_on,82,0,160
1,note_on,82,71,0
1,note_on,82,0,160
1,note_on,70,67,0
1,note_on,70,0,160
1,note_on,82,67,0
1,note_on,82,0,160
1,note_on,82,71,640
1,note_on,82,0,160
1,note_on,81,66,0
1,note_on,81,0,160
1,note_on,82,71,0
1,note_on,82,0,160
1,note_on,70,65,0
1,note_on,70,0,160
1,note_on,82,67,0
1,note_on,82,0,160
1,note_on,82,71,0
1,note_on,82,0,160
1,note_on,70,67,0
1,note_on,70,0,160
1,note_on,82,67,0
1,note_on,82,0,160
1,note_on,71,59,0
1,note_on,71,0,80
1,note_on,73,57,80
1,note_on,73,0,80
1,note_on,75,57,80
1,note_on,75,0,80
1,note_on,76,60,80
1,note_on,76,0,80
1,note_on,75,57,80
1,note_on,75,0,80
1,note_on,76,57,80
1,note_on,76,0,80
1,note_on,83,60,80
1,note_on,83,0,80
1,note_on,82,56,80
1,note_on,82,0,80
1,note_on,83,56,80
1,note_on,83,0,80
1,note_on,79,60,80
1,note_on,79,0,80
1,note_on,78,57,80
1,note_on,78,0,80
1,note_on,79,57,80
1,note_on,79,0,80
1,note_on,75,61,80
1,note_on,75,0,80
1,note_on,74,59,80
1,note_on,74,0,80
1,note_on,75,59,80
1,note_on,75,0,80
1,note_on,76,60,80
1,note_on,76,0,80
1,note_on,75,58,80
1,note_on,75,0,80
1,note_on,76,58,80
1,note_on,76,0,80
1,note_on,71,59,80
1,note_on,71,0,80
1,note_on,70,57,80
1,note_on,70,0,80
1,note_on,71,57,80
1,note_on,71,0,80
1,note_on,76,60,80
1,note_on,76,0,80
1,note_on,75,57,80
1,note_on,75,0,80
1,note_on,76,58,80
1,note_on,76,0,80
1,note_on,83,71,720
1,note_on,83,0,160
1,note_on,82,66,0
1,note_on,82,0,160
1,note_on,83,71,0
1,note_on,83,0,160
1,note_on,71,65,0
1,note_on,71,0,160
1,note_on,83,67,0
1,note_on,83,0,160
1,note_on,83,71,0
1,note_on,83,0,160
1,note_on,71,67,0
1,note_on,71,0,160
1,note_on,83,67,0
1,note_on,83,0,160
1,note_on,83,71,640
1,note_on,83,0,160
1,note_on,82,66,0
1,note_on,82,0,160
1,note_on,83,71,0
1,note_on,83,0,160
1,note_on,71,65,0
1,note_on,71,0,160
1,note_on,83,67,0
1,note_on,83,0,160
1,note_on,83,71,0
1,note_on,83,0,160
1,note_on,71,67,0
1,note_on,71,0,160
1,note_on,83,67,0
1,note_on,83,0,160
1,note_on,84,60,0
1,note_on,84,0,160
1,note_on,72,56,0
1,note_on,72,0,160
1,note_on,84,56,0
1,note_on,84,0,160
1,note_on,84,62,0
1,note_on,84,0,160
1,note_on,72,59,0
1,note_on,72,0,160
1,note_on,84,58,0
1,note_on,84,0,160
1,note_on,86,64,0
1,note_on,86,0,160
1,note_on,74,59,0
1,note_on,74,0,160
1,note_on,86,62,0
1,note_on,86,0,160
1,note_on,86,67,0
1,note_on,86,0,160
1,note_on,74,62,0
1,note_on,74,0,160
1,note_on,86,63,0
1,note_on,86,0,160
1,note_on,88,69,0
1,note_on,88,0,160
1,note_on,76,65,0
1,note_on,76,0,160
1,note_on,88,67,0
1,note_on,88,0,160
1,note_on,88,71,0
1,note_on,88,0,160
1,note_on,76,67,0
1,note_on,76,0,160
1,note_on,88,66,0
1,note_on,88,0,160
1,note_on,90,72,0
1,note_on,90,0,160
1,note_on,78,68,0
1,note_on,78,0,160
1,note_on,90,68,0
1,note_on,90,0,160
1,note_on,90,76,0
1,note_on,90,0,160
1,note_on,78,69,0
1,note_on,78,0,160
1,note_on,90,72,0
1,note_on,90,0,160
1,note_on,90,78,0
1,note_on,90,0,160
1,note_on,78,71,0
1,note_on,78,0,160
1,note_on,90,73,0
1,note_on,90,0,160
1,note_on,90,80,0
1,note_on,90,0,160
1,note_on,78,73,0
1,note_on,78,0,160
1,note_on,90,76,0
1,note_on,90,0,160
1,note_on,90,80,0
1,note_on,90,0,160
1,note_on,78,73,0
1,note_on,78,0,160
1,note_on,90,76,0
1,note_on,90,0,160
1,note_on,90,80,0
1,note_on,90,0,160
1,note_on,78,73,0
1,note_on,78,0,160
1,note_on,90,76,0
1,note_on,90,0,160
1,note_on,78,78,0
1,note_on,78,0,160
1,note_on,66,71,0
1,note_on,66,0,160
1,note_on,78,73,0
1,note_on,78,0,160
1,note_on,78,80,0
1,note_on,78,0,160
1,note_on,66,73,0
1,note_on,66,0,160
1,note_on,78,78,0
1,note_on,78,0,160
1,note_on,78,84,0
1,note_on,78,0,160
1,note_on,66,77,0
1,note_on,66,0,160
1,note_on,78,82,0
1,note_on,78,0,160
1,note_on,78,88,0
1,note_on,78,0,160
1,note_on,66,81,0
1,note_on,66,0,160
1,note_on,78,85,0
1,note_on,78,0,160
1,note_on,78,92,0
1,note_on,78,0,160
1,note_on,66,84,0
1,note_on,66,0,160
1,note_on,78,89,0
1,note_on,78,0,160
1,note_on,78,79,0
1,note_on,71,79,0
1,note_on,75,79,0
1,note_on,83,94,0
1,note_on,83,0,120
1,note_on,78,0,0
1,note_on,71,0,0
1,note_on,75,0,0
1,note_on,75,71,40
1,note_on,83,84,0
1,note_on,78,71,0
1,note_on,71,71,0
1,note_on,71,0,120
1,note_on,75,0,0
1,note_on,83,0,0
1,note_on,78,0,0
1,note_on,71,71,40
1,note_on,83,84,0
1,note_on,75,71,0
1,note_on,78,71,0
1,note_on,78,0,120
1,note_on,71,0,0
1,note_on,83,0,0
1,note_on,75,0,0
1,note_on,78,79,40
1,note_on,71,79,0
1,note_on,75,79,0
1,note_on,83,94,0
1,note_on,83,0,240
1,note_on,78,0,0
1,note_on,71,0,0
1,note_on,75,0,0
1,note_on,75,79,240
1,note_on,83,94,0
1,note_on,78,79,0
1,note_on,71,79,0
1,note_on,71,0,120
1,note_on,75,0,0
1,note_on,83,0,0
1,note_on,78,0,0
1,note_on,71,71,40
1,note_on,83,84,0
1,note_on,75,71,0
1,note_on,78,71,0
1,note_on,78,0,120
1,note_on,71,0,0
1,note_on,83,0,0
1,note_on,75,0,0
1,note_on,71,71,40
1,note_on,83,84,0
1,note_on,75,71,0
1,note_on,78,71,0
1,note_on,78,0,120
1,note_on,71,0,0
1,note_on,83,0,0
1,note_on,75,0,0
1,note_on,78,79,40
1,note_on,83,94,0
1,note_on,75,79,0
1,note_on,71,79,0
1,note_on,71,0,240
1,note_on,78,0,0
1,note_on,83,0,0
1,note_on,75,0,0
1,note_on,75,79,240
1,note_on,71,79,0
1,note_on,78,79,0
1,note_on,83,94,0
1,note_on,83,0,120
1,note_on,75,0,0
1,note_on,71,0,0
1,note_on,78,0,0
1,note_on,71,71,40
1,note_on,83,84,0
1,note_on,75,71,0
1,note_on,78,71,0
1,note_on,78,0,120
1,note_on,71,0,0
1,note_on,83,0,0
1,note_on,75,0,0
1,note_on,78,71,40
1,note_on,83,84,0
1,note_on,75,71,0
1,note_on,71,71,0
1,note_on,71,0,120
1,note_on,78,0,0
1,note_on,83,0,0
1,note_on,75,0,0
1,note_on,75,79,40
1,note_on,71,79,0
1,note_on,83,94,0
1,note_on,78,79,0
1,note_on,78,0,240
1,note_on,75,0,0
1,note_on,71,0,0
1,note_on,83,0,0
1,note_on,75,79,240
1,note_on,83,94,0
1,note_on,78,79,0
1,note_on,71,79,0
1,note_on,71,0,120
1,note_on,75,0,0
1,note_on,83,0,0
1,note_on,78,0,0
1,note_on,71,71,40
1,note_on,83,84,0
1,note_on,75,71,0
1,note_on,78,71,0
1,note_on,78,0,120
1,note_on,71,0,0
1,note_on,83,0,0
1,note_on,75,0,0
1,note_on,78,71,40
1,note_on,71,71,0
1,note_on,75,71,0
1,note_on,83,84,0
1,note_on,83,0,120
1,note_on,78,0,0
1,note_on,71,0,0
1,note_on,75,0,0
1,note_on,75,79,40
1,note_on,83,94,0
1,note_on,78,79,0
1,note_on,71,79,0
1,note_on,71,0,240
1,note_on,75,0,0
1,note_on,83,0,0
1,note_on,78,0,0
1,note_on,74,79,240
1,note_on,86,94,0
1,note_on,86,0,160
1,note_on,74,0,0
1,note_on,86,84,0
1,note_on,74,71,0
1,note_on,74,0,160
1,note_on,86,0,0
1,note_on,74,71,0
1,note_on,86,84,0
1,note_on,86,0,160
1,note_on,74,0,0
1,note_on,74,79,0
1,note_on,86,94,0
1,note_on,86,0,240
1,note_on,74,0,0
1,note_on,86,94,240
1,note_on,74,79,0
1,note_on,74,0,160
1,note_on,86,0,0
1,note_on,74,71,0
1,note_on,86,84,0
1,note_on,86,0,160
1,note_on,74,0,0
1,note_on,86,84,0
1,note_on,74,71,0
1,note_on,74,0,160
1,note_on,86,0,0
1,note_on,74,79,0
1,note_on,86,94,0
1,note_on,86,0,240
1,note_on,74,0,0
1,note_on,62,71,240
1,note_on,74,84,0
1,note_on,74,0,160
1,note_on,62,0,0
1,note_on,74,75,0
1,note_on,62,63,0
1,note_on,62,0,160
1,note_on,74,0,0
1,note_on,62,63,0
1,note_on,74,75,0
1,note_on,74,0,160
1,note_on,62,0,0
1,note_on,62,71,0
1,note_on,74,84,0
1,note_on,74,0,240
1,note_on,62,0,0
1,note_on,74,84,240
1,note_on,62,71,0
1,note_on,62,0,160
1,note_on,74,0,0
1,note_on,62,63,0
1,note_on,74,75,0
1,note_on,74,0,160
1,note_on,62,0,0
1,note_on,62,63,0
1,note_on,74,75,0
1,note_on,74,0,160
1,note_on,62,0,0
1,note_on,74,84,0
1,note_on,62,71,0
1,note_on,62,0,240
1,note_on,74,0,0
1,note_on,62,70,240
1,note_on,74,78,0
1,note_on,74,0,160
1,note_on,62,0,0
1,note_on,62,65,0
1,note_on,74,73,0
1,note_on,74,0,160
1,note_on,62,0,0
1,note_on,62,65,0
1,note_on,74,73,0
1,note_on,74,0,160
1,note_on,62,0,0
1,note_on,62,70,0
1,note_on,74,78,0
1,note_on,74,0,640
1,note_on,62,0,0
1,note_on,62,64,0
1,note_on,74,72,0
1,note_on,74,0,120
1,note_on,62,0,0
1,note_on,62,64,40
1,note_on,74,72,0
1,note_on,74,0,120
1,note_on,62,0,0
1,note_on,62,70,40
1,note_on,74,78,0
1,note_on,74,0,640
1,note_on,62,0,0
1,note_on,62,64,0
1,note_on,74,72,0
1,note_on,74,0,120
1,note_on,62,0,0
1,note_on,62,64,40
1,note_on,74,72,0
1,note_on,74,0,120
1,note_on,62,0,0
1,note_on,62,70,40
1,note_on,74,78,0
1,note_on,74,0,720
1,note_on,62,0,0
1,note_on,62,67,0
1,note_on,74,75,0
1,note_on,74,0,480
1,note_on,62,0,0
1,note_on,62,68,0
1,note_on,74,76,0
1,note_on,74,0,120
1,note_on,62,0,0
1,note_on,67,67,280
1,note_on,79,75,0
1,note_on,79,0,120
1,note_on,67,0,0
1,note_on,67,67,40
1,note_on,79,75,0
1,note_on,79,0,120
1,note_on,67,0,0
1,note_on,67,74,40
1,note_on,79,83,0
1,note_on,79,0,640
1,note_on,67,0,0
1,note_on,67,67,0
1,note_on,79,75,0
1,note_on,79,0,120
1,note_on,67,0,0
1,note_on,67,67,40
1,note_on,79,75,0
1,note_on,79,0,120
1,note_on,67,0,0
1,note_on,67,70,40
1,note_on,79,78,0
1,note_on,79,0,720
1,note_on,67,0,0
1,note_on,67,70,0
1,note_on,79,78,0
1,note_on,79,0,480
1,note_on,67,0,0
1,note_on,67,68,0
1,note_on,79,76,0
1,note_on,79,0,120
1,note_on,67,0,0
1,note_on,74,87,120
1,note_on,78,87,0
1,note_on,86,97,0
1,note_on,86,0,120
1,note_on,78,0,0
1,note_on,74,0,0
1,note_on,74,79,120
1,note_on,79,79,0
1,note_on,86,88,0
1,note_on,86,0,120
1,note_on,79,0,0
1,note_on,74,0,0
1,note_on,74,84,120
1,note_on,78,84,0
1,note_on,86,94,0
1,note_on,86,0,240
1,note_on,78,0,0
1,note_on,74,0,0
1,note_on,59,72,240
1,note_on,67,80,0
1,note_on,67,0,640
1,note_on,59,0,0
1,note_on,59,67,0
1,note_on,67,75,0
1,note_on,67,0,120
1,note_on,59,0,0
1,note_on,59,67,40
1,note_on,67,75,0
1,note_on,67,0,120
1,note_on,59,0,0
1,note_on,59,72,40
1,note_on,67,81,0
1,note_on,67,0,640
1,note_on,59,0,0
1,note_on,59,67,0
1,note_on,67,75,0
1,note_on,67,0,120
1,note_on,59,0,0
1,note_on,59,66,40
1,note_on,67,74,0
1,note_on,67,0,120
1,note_on,59,0,0
1,note_on,59,72,40
1,note_on,67,80,0
1,note_on,67,0,720
1,note_on,59,0,0
1,note_on,71,74,0
1,note_on,67,66,0
1,note_on,67,0,120
1,note_on,71,0,0
1,note_on,69,72,120
1,note_on,72,80,0
1,note_on,72,0,120
1,note_on,69,0,0
1,note_on,67,66,120
1,note_on,71,74,0
1,note_on,71,0,120
1,note_on,67,0,0
1,note_on,72,80,120
1,note_on,69,72,0
1,note_on,69,0,120
1,note_on,72,0,0
1,note_on,62,71,120
1,note_on,69,79,0
1,note_on,69,0,120
1,note_on,62,0,0
1,note_on,74,80,120
1,note_on,71,72,0
1,note_on,71,0,640
1,note_on,74,0,0
1,note_on,71,67,0
1,note_on,74,75,0
1,note_on,74,0,120
1,note_on,71,0,0
1,note_on,71,67,40
1,note_on,74,75,0
1,note_on,74,0,120
1,note_on,71,0,0
1,note_on,71,72,40
1,note_on,74,81,0
1,note_on,74,0,640
1,note_on,71,0,0
1,note_on,71,67,0
1,note_on,74,75,0
1,note_on,74,0,120
1,note_on,71,0,0
1,note_on,71,66,40
1,note_on,74,74,0
1,note_on,74,0,120
1,note_on,71,0,0
1,note_on,76,80,40
1,note_on,72,72,0
1,note_on,72,0,120
1,note_on,76,0,0
1,note_on,71,69,120
1,note_on,74,77,0
1,note_on,74,0,120
1,note_on,71,0,0
1,note_on,69,69,120
1,note_on,72,77,0
1,note_on,72,0,120
1,note_on,69,0,0
1,note_on,64,67,120
1,note_on,68,75,0
1,note_on,71,75,0
1,note_on,71,0,120
1,note_on,68,0,0
1,note_on,64,0,0
1,note_on,64,73,120
1,note_on,69,82,0
1,note_on,69,0,120
1,note_on,64,0,0
1,note_on,64,69,120
1,note_on,68,69,0
1,note_on,71,77,0
1,note_on,71,0,120
1,note_on,68,0,0
1,note_on,64,0,0
1,note_on,64,67,120
1,note_on,69,73,0
1,note_on,72,82,0
1,note_on,72,0,120
1,note_on,69,0,0
1,note_on,64,0,0
1,note_on,74,64,360
1,note_on,78,72,0
1,note_on,78,0,120
1,note_on,74,0,0
1,note_on,73,59,120
1,note_on,76,66,0
1,note_on,76,0,120
1,note_on,73,0,0
1,note_on,71,63,120
1,note_on,74,71,0
1,note_on,74,0,120
1,note_on,71,0,0
1,note_on,66,60,120
1,note_on,70,67,0
1,note_on,73,67,0
1,note_on,73,0,120
1,note_on,70,0,0
1,note_on,66,0,0
1,note_on,66,62,120
1,note_on,71,69,0
1,note_on,71,0,120
1,note_on,66,0,0
1,note_on,66,57,120
1,note_on,70,64,0
1,note_on,73,64,0
1,note_on,73,0,120
1,note_on,70,0,0
1,note_on,66,0,0
1,note_on,66,60,120
1,note_on,71,67,0
1,note_on,74,67,0
1,note_on,74,0,120
1,note_on,71,0,0
1,note_on,66,0,0
1,note_on,76,64,360
1,note_on,80,72,0
1,note_on,80,0,120
1,note_on,76,0,0
1,note_on,75,59,120
1,note_on,78,66,0
1,note_on,78,0,120
1,note_on,75,0,0
1,note_on,73,63,120
1,note_on,76,71,0
1,note_on,76,0,120
1,note_on,73,0,0
1,note_on,68,60,120
1,note_on,72,67,0
1,note_on,75,67,0
1,note_on,75,0,120
1,note_on,72,0,0
1,note_on,68,0,0
1,note_on,68,62,120
1,note_on,73,69,0
1,note_on,73,0,120
1,note_on,68,0,0
1,note_on,68,57,120
1,note_on,72,64,0
1,note_on,75,64,0
1,note_on,75,0,120
1,note_on,72,0,0
1,note_on,68,0,0
1,note_on,68,60,120
1,note_on,73,67,0
1,note_on,76,67,0
1,note_on,76,0,120
1,note_on,73,0,0
1,note_on,68,0,0
1,note_on,78,54,360
1,note_on,81,61,0
1,note_on,81,0,240
1,note_on,78,0,0
1,note_on,76,49,0
1,note_on,79,55,0
1,note_on,79,0,240
1,note_on,76,0,0
1,note_on,74,54,0
1,note_on,78,60,0
1,note_on,78,0,240
1,note_on,74,0,0
1,note_on,69,50,0
1,note_on,76,56,0
1,note_on,76,0,240
1,note_on,69,0,0
1,note_on,78,54,0
1,note_on,81,61,0
1,note_on,81,0,240
1,note_on,78,0,0
1,note_on,76,49,0
1,note_on,79,55,0
1,note_on,79,0,240
1,note_on,76,0,0
1,note_on,74,54,0
1,note_on,78,60,0
1,note_on,78,0,240
1,note_on,74,0,0
1,note_on,69,52,0
1,note_on,76,58,0
1,note_on,76,0,240
1,note_on,69,0,0
1,note_on,78,55,0
1,note_on,81,62,0
1,note_on,81,0,240
1,note_on,78,0,0
1,note_on,76,51,0
1,note_on,79,57,0
1,note_on,79,0,240
1,note_on,76,0,0
1,note_on,74,56,0
1,note_on,78,63,0
1,note_on,78,0,240
1,note_on,74,0,0
1,note_on,69,53,0
1,note_on,76,59,0
1,note_on,76,0,240
1,note_on,69,0,0
1,note_on,78,56,0
1,note_on,81,63,0
1,note_on,81,0,240
1,note_on,78,0,0
1,note_on,76,53,0
1,note_on,79,59,0
1,note_on,79,0,240
1,note_on,76,0,0
1,note_on,74,56,0
1,note_on,78,63,0
1,note_on,78,0,240
1,note_on,74,0,0
1,note_on,69,54,0
1,note_on,76,61,0
1,note_on,76,0,240
1,note_on,69,0,0
1,note_on,83,62,0
1,note_on,86,69,0
1,note_on,86,0,240
1,note_on,83,0,0
1,note_on,81,56,0
1,note_on,84,63,0
1,note_on,84,0,240
1,note_on,81,0,0
1,note_on,79,61,0
1,note_on,83,68,0
1,note_on,83,0,240
1,note_on,79,0,0
1,note_on,74,56,0
1,note_on,81,63,0
1,note_on,81,0,240
1,note_on,74,0,0
1,note_on,83,63,0
1,note_on,86,71,0
1,note_on,86,0,240
1,note_on,83,0,0
1,note_on,81,57,0
1,note_on,84,64,0
1,note_on,84,0,240
1,note_on,81,0,0
1,note_on,79,62,0
1,note_on,83,69,0
1,note_on,83,0,240
1,note_on,79,0,0
1,note_on,74,59,0
1,note_on,81,66,0
1,note_on,81,0,240
1,note_on,74,0,0
1,note_on,83,64,0
1,note_on,86,72,0
1,note_on,86,0,240
1,note_on,83,0,0
1,note_on,81,58,0
1,note_on,84,65,0
1,note_on,84,0,240
1,note_on,81,0,0
1,note_on,79,63,0
1,note_on,83,71,0
1,note_on,83,0,240
1,note_on,79,0,0
1,note_on,74,61,0
1,note_on,81,68,0
1,note_on,81,0,240
1,note_on,74,0,0
1,note_on,83,65,0
1,note_on,86,73,0
1,note_on,86,0,240
1,note_on,83,0,0
1,note_on,81,61,0
1,note_on,84,68,0
1,note_on,84,0,240
1,note_on,81,0,0
1,note_on,79,64,0
1,note_on,83,72,0
1,note_on,83,0,240
1,note_on,79,0,0
1,note_on,74,70,0
1,note_on,81,70,0
1,note_on,81,0,240
1,note_on,74,0,0
1,note_on,67,82,0
1,note_on,71,82,0
1,note_on,79,92,0
1,note_on,79,0,640
1,note_on,71,0,0
1,note_on,67,0,0
1,note_on,67,77,0
1,note_on,71,77,0
1,note_on,79,86,0
1,note_on,79,0,120
1,note_on,71,0,0
1,note_on,67,0,0
1,note_on,67,77,40
1,note_on,71,77,0
1,note_on,79,86,0
1,note_on,79,0,120
1,note_on,71,0,0
1,note_on,67,0,0
1,note_on,67,83,40
1,note_on,71,83,0
1,note_on,79,93,0
1,note_on,79,0,640
1,note_on,71,0,0
1,note_on,67,0,0
1,note_on,67,77,0
1,note_on,71,77,0
1,note_on,79,86,0
1,note_on,79,0,120
1,note_on,71,0,0
1,note_on,67,0,0
1,note_on,67,76,40
1,note_on,71,76,0
1,note_on,79,85,0
1,note_on,79,0,120
1,note_on,71,0,0
1,note_on,67,0,0
1,note_on,67,82,40
1,note_on,71,82,0
1,note_on,79,92,0
1,note_on,79,0,720
1,note_on,71,0,0
1,note_on,67,0,0
1,note_on,71,73,0
1,note_on,83,82,0
1,note_on,79,82,0
1,note_on,79,0,240
1,note_on,83,0,0
1,note_on,71,0,0
1,note_on,72,78,0
1,note_on,81,87,0
1,note_on,84,87,0
1,note_on,84,0,240
1,note_on,81,0,0
1,note_on,72,0,0
1,note_on,71,76,0
1,note_on,79,85,0
1,note_on,83,85,0
1,note_on,83,0,240
1,note_on,79,0,0
1,note_on,71,0,0
1,note_on,72,78,0
1,note_on,84,87,0
1,note_on,81,87,0
1,note_on,81,0,240
1,note_on,84,0,0
1,note_on,72,0,0
1,note_on,69,72,0
1,note_on,74,81,0
1,note_on,81,81,0
1,note_on,81,0,240
1,note_on,74,0,0
1,note_on,69,0,0
1,note_on,74,90,0
1,note_on,86,101,0
1,note_on,83,101,0
1,note_on,83,0,640
1,note_on,86,0,0
1,note_on,74,0,0
1,note_on,74,84,0
1,note_on,83,94,0
1,note_on,86,94,0
1,note_on,86,0,120
1,note_on,83,0,0
1,note_on,74,0,0
1,note_on,74,84,40
1,note_on,83,94,0
1,note_on,86,94,0
1,note_on,86,0,120
1,note_on,83,0,0
1,note_on,74,0,0
1,note_on,74,91,40
1,note_on,83,102,0
1,note_on,86,102,0
1,note_on,86,0,640
1,note_on,83,0,0
1,note_on,74,0,0
1,note_on,74,84,0
1,note_on,83,94,0
1,note_on,86,94,0
1,note_on,86,0,120
1,note_on,83,0,0
1,note_on,74,0,0
1,note_on,74,83,40
1,note_on,83,93,0
1,note_on,86,93,0
1,note_on,86,0,120
1,note_on,83,0,0
1,note_on,74,0,0
1,note_on,76,83,40
1,note_on,88,93,0
1,note_on,84,93,0
1,note_on,84,0,120
1,note_on,88,0,0
1,note_on,76,0,0
1,note_on,74,77,120
1,note_on,83,86,0
1,note_on,86,86,0
1,note_on,86,0,120
1,note_on,83,0,0
1,note_on,74,0,0
1,note_on,72,81,120
1,note_on,81,91,0
1,note_on,84,91,0
1,note_on,84,0,120
1,note_on,81,0,0
1,note_on,72,0,0
1,note_on,71,76,120
1,note_on,74,85,0
1,note_on,79,85,0
1,note_on,83,85,0
1,note_on,83,0,120
1,note_on,71,0,0
1,note_on,74,0,0
1,note_on,79,0,0
1,note_on,69,84,120
1,note_on,74,84,0
1,note_on,78,94,0
1,note_on,81,94,0
1,note_on,81,0,120
1,note_on,69,0,0
1,note_on,74,0,0
1,note_on,78,0,0
1,note_on,71,80,120
1,note_on,74,80,0
1,note_on,79,89,0
1,note_on,83,89,0
1,note_on,83,0,120
1,note_on,71,0,0
1,note_on,74,0,0
1,note_on,79,0,0
1,note_on,69,77,120
1,note_on,74,77,0
1,note_on,78,94,0
1,note_on,81,94,0
1,note_on,81,0,120
1,note_on,69,0,0
1,note_on,74,0,0
1,note_on,78,0,0
1,note_on,67,82,360
1,note_on,71,82,0
1,note_on,79,92,0
1,note_on,79,0,640
1,note_on,71,0,0
1,note_on,67,0,0
1,note_on,67,77,0
1,note_on,71,77,0
1,note_on,79,86,0
1,note_on,79,0,120
1,note_on,71,0,0
1,note_on,67,0,0
1,note_on,67,77,40
1,note_on,71,77,0
1,note_on,79,86,0
1,note_on,79,0,120
1,note_on,71,0,0
1,note_on,67,0,0
1,note_on,67,83,40
1,note_on,71,83,0
1,note_on,79,93,0
1,note_on,79,0,640
1,note_on,71,0,0
1,note_on,67,0,0
1,note_on,67,77,0
1,note_on,71,77,0
1,note_on,79,86,0
1,note_on,79,0,120
1,note_on,71,0,0
1,note_on,67,0,0
1,note_on,67,76,40
1,note_on,71,76,0
1,note_on,79,85,0
1,note_on,79,0,120
1,note_on,71,0,0
1,note_on,67,0,0
1,note_on,67,82,40
1,note_on,71,82,0
1,note_on,79,92,0
1,note_on,79,0,720
1,note_on,71,0,0
1,note_on,67,0,0
1,note_on,71,73,0
1,note_on,83,82,0
1,note_on,79,82,0
1,note_on,79,0,240
1,note_on,83,0,0
1,note_on,71,0,0
1,note_on,72,78,0
1,note_on,81,87,0
1,note_on,84,87,0
1,note_on,84,0,240
1,note_on,81,0,0
1,note_on,72,0,0
1,note_on,71,76,0
1,note_on,80,85,0
1,note_on,83,85,0
1,note_on,83,0,240
1,note_on,80,0,0
1,note_on,71,0,0
1,note_on,72,78,0
1,note_on,84,87,0
1,note_on,81,87,0
1,note_on,81,0,120
1,note_on,84,0,0
1,note_on,72,0,0
1,note_on,69,72,120
1,note_on,74,81,0
1,note_on,81,81,0
1,note_on,81,0,120
1,note_on,74,0,0
1,note_on,69,0,0
1,note_on,74,82,120
1,note_on,79,87,0
1,note_on,86,96,0
1,note_on,86,0,720
1,note_on,74,0,0
1,note_on,72,73,0
1,note_on,84,82,0
1,note_on,84,0,240
1,note_on,72,0,0
1,note_on,79,0,0
1,note_on,71,78,0
1,note_on,79,87,0
1,note_on,83,87,0
1,note_on,83,0,240
1,note_on,79,0,0
1,note_on,71,0,0
1,note_on,72,76,0
1,note_on,81,85,0
1,note_on,84,85,0
1,note_on,84,0,240
1,note_on,81,0,0
1,note_on,72,0,0
1,note_on,74,78,0
1,note_on,86,87,0
1,note_on,83,87,0
1,note_on,83,0,120
1,note_on,86,0,0
1,note_on,74,0,0
1,note_on,71,72,120
1,note_on,79,81,0
1,note_on,83,81,0
1,note_on,83,0,120
1,note_on,79,0,0
1,note_on,71,0,0
1,note_on,79,82,120
1,note_on,84,87,0
1,note_on,91,96,0
1,note_on,91,0,720
1,note_on,84,0,0
1,note_on,79,0,0
1,note_on,84,69,0
1,note_on,78,69,0
1,note_on,90,77,0
1,note_on,90,0,120
1,note_on,78,0,0
1,note_on,84,0,0
1,note_on,76,74,120
1,note_on,84,82,0
1,note_on,88,82,0
1,note_on,88,0,120
1,note_on,84,0,0
1,note_on,76,0,0
1,note_on,78,72,120
1,note_on,86,80,0
1,note_on,90,80,0
1,note_on,90,0,120
1,note_on,86,0,0
1,note_on,78,0,0
1,note_on,76,74,120
1,note_on,88,82,0
1,note_on,84,82,0
1,note_on,84,0,120
1,note_on,88,0,0
1,note_on,76,0,0
1,note_on,74,68,120
1,note_on,83,76,0
1,note_on,86,76,0
1,note_on,86,0,120
1,note_on,83,0,0
1,note_on,74,0,0
1,note_on,72,73,120
1,note_on,81,81,0
1,note_on,84,81,0
1,note_on,84,0,120
1,note_on,81,0,0
1,note_on,72,0,0
1,note_on,83,74,120
1,note_on,86,74,0
1,note_on,74,66,0
1,note_on,74,0,120
1,note_on,86,0,0
1,note_on,83,0,0
1,note_on,72,71,120
1,note_on,81,79,0
1,note_on,84,79,0
1,note_on,84,0,120
1,note_on,81,0,0
1,note_on,72,0,0
1,note_on,79,72,120
1,note_on,71,64,0
1,note_on,83,72,0
1,note_on,83,0,120
1,note_on,71,0,0
1,note_on,79,0,0
1,note_on,69,69,120
1,note_on,78,77,0
1,note_on,81,77,0
1,note_on,81,0,120
1,note_on,78,0,0
1,note_on,69,0,0
1,note_on,71,66,120
1,note_on,79,74,0
1,note_on,83,74,0
1,note_on,83,0,120
1,note_on,79,0,0
1,note_on,71,0,0
1,note_on,69,69,120
1,note_on,81,77,0
1,note_on,78,77,0
1,note_on,78,0,120
1,note_on,81,0,0
1,note_on,69,0,0
1,note_on,67,65,120
1,note_on,76,73,0
1,note_on,79,73,0
1,note_on,79,0,120
1,note_on,76,0,0
1,note_on,67,0,0
1,note_on,66,73,120
1,note_on,74,81,0
1,note_on,78,81,0
1,note_on,78,0,120
1,note_on,74,0,0
1,note_on,66,0,0
1,note_on,76,74,120
1,note_on,79,74,0
1,note_on,67,66,0
1,note_on,67,0,120
1,note_on,79,0,0
1,note_on,76,0,0
1,note_on,66,71,120
1,note_on,74,79,0
1,note_on,78,79,0
1,note_on,78,0,120
1,note_on,74,0,0
1,note_on,66,0,0
1,note_on,72,72,120
1,note_on,64,64,0
1,note_on,76,72,0
1,note_on,76,0,120
1,note_on,64,0,0
1,note_on,72,0,0
1,note_on,62,65,120
1,note_on,71,73,0
1,note_on,74,73,0
1,note_on,74,0,120
1,note_on,71,0,0
1,note_on,62,0,0
1,note_on,64,62,120
1,note_on,76,70,0
1,note_on,72,70,0
1,note_on,72,0,120
1,note_on,76,0,0
1,note_on,64,0,0
1,note_on,62,65,120
1,note_on,74,73,0
1,note_on,71,73,0
1,note_on,71,0,120
1,note_on,74,0,0
1,note_on,62,0,0
1,note_on,64,61,120
1,note_on,69,69,0
1,note_on,72,69,0
1,note_on,72,0,120
1,note_on,69,0,0
1,note_on,64,0,0
1,note_on,67,65,120
1,note_on,71,73,0
1,note_on,71,0,640
1,note_on,67,0,0
1,note_on,59,61,0
1,note_on,67,61,0
1,note_on,71,68,0
1,note_on,71,0,120
1,note_on,67,0,0
1,note_on,59,0,0
1,note_on,59,61,40
1,note_on,67,61,0
1,note_on,71,68,0
1,note_on,71,0,120
1,note_on,67,0,0
1,note_on,59,0,0
1,note_on,59,62,40
1,note_on,67,62,0
1,note_on,71,70,0
1,note_on,71,0,640
1,note_on,67,0,0
1,note_on,59,0,0
1,note_on,59,61,0
1,note_on,67,61,0
1,note_on,71,68,0
1,note_on,71,0,120
1,note_on,67,0,0
1,note_on,59,0,0
1,note_on,59,60,40
1,note_on,67,60,0
1,note_on,71,68,0
1,note_on,71,0,120
1,note_on,67,0,0
1,note_on,59,0,0
1,note_on,59,61,40
1,note_on,67,61,0
1,note_on,71,69,0
1,note_on,71,0,480
1,note_on,67,0,0
1,note_on,59,0,0
1,note_on,62,58,240
1,note_on,74,65,0
1,note_on,67,65,0
1,note_on,67,0,240
1,note_on,74,0,0
1,note_on,62,0,0
1,note_on,67,62,0
1,note_on,64,62,0
1,note_on,73,69,0
1,note_on,76,69,0
1,note_on,76,0,240
1,note_on,67,0,0
1,note_on,64,0,0
1,note_on,73,0,0
1,note_on,62,60,0
1,note_on,74,68,0
1,note_on,74,0,240
1,note_on,62,0,0
1,note_on,64,62,0
1,note_on,76,69,0
1,note_on,72,69,0
1,note_on,72,0,240
1,note_on,76,0,0
1,note_on,64,0,0
1,note_on,66,57,0
1,note_on,78,64,0
1,note_on,78,0,240
1,note_on,66,0,0
1,note_on,67,62,0
1,note_on,71,62,0
1,note_on,79,69,0
1,note_on,79,0,240
1,note_on,71,0,0
1,note_on,67,0,0
1,note_on,71,67,400
1,note_on,79,67,0
1,note_on,83,74,0
1,note_on,83,0,120
1,note_on,79,0,0
1,note_on,71,0,0
1,note_on,71,67,40
1,note_on,79,67,0
1,note_on,83,74,0
1,note_on,83,0,120
1,note_on,79,0,0
1,note_on,71,0,0
1,note_on,71,68,40
1,note_on,79,68,0
1,note_on,83,77,0
1,note_on,83,0,640
1,note_on,79,0,0
1,note_on,71,0,0
1,note_on,71,67,0
1,note_on,79,67,0
1,note_on,83,74,0
1,note_on,83,0,120
1,note_on,79,0,0
1,note_on,71,0,0
1,note_on,71,66,40
1,note_on,79,66,0
1,note_on,83,74,0
1,note_on,83,0,120
1,note_on,79,0,0
1,note_on,71,0,0
1,note_on,71,67,40
1,note_on,79,67,0
1,note_on,83,75,0
1,note_on,83,0,480
1,note_on,79,0,0
1,note_on,71,0,0
1,note_on,74,72,240
1,note_on,86,81,0
1,note_on,79,81,0
1,note_on,79,0,240
1,note_on,86,0,0
1,note_on,74,0,0
1,note_on,79,78,0
1,note_on,76,78,0
1,note_on,85,85,0
1,note_on,88,85,0
1,note_on,88,0,240
1,note_on,79,0,0
1,note_on,76,0,0
1,note_on,85,0,0
1,note_on,74,75,0
1,note_on,86,84,0
1,note_on,86,0,240
1,note_on,74,0,0
1,note_on,76,78,0
1,note_on,88,85,0
1,note_on,84,85,0
1,note_on,84,0,240
1,note_on,88,0,0
1,note_on,76,0,0
1,note_on,84,71,0
1,note_on,86,80,0
1,note_on,78,71,0
1,note_on,90,80,0
1,note_on,90,0,240
1,note_on,84,0,0
1,note_on,86,0,0
1,note_on,78,0,0
1,note_on,86,78,0
1,note_on,79,78,0
1,note_on,83,78,0
1,note_on,91,85,0
1,note_on,91,0,240
1,note_on,86,0,0
1,note_on,79,0,0
1,note_on,83,0,0
1,note_on,74,74,240
1,note_on,86,83,0
1,note_on,86,0,120
1,note_on,74,0,0
1,note_on,76,74,40
1,note_on,88,83,0
1,note_on,88,0,120
1,note_on,76,0,0
1,note_on,78,75,40
1,note_on,90,84,0
1,note_on,90,0,120
1,note_on,78,0,0
1,note_on,79,77,40
1,note_on,91,85,0
1,note_on,91,0,240
1,note_on,79,0,0
1,note_on,74,74,240
1,note_on,86,83,0
1,note_on,86,0,120
1,note_on,74,0,0
1,note_on,76,74,40
1,note_on,88,83,0
1,note_on,88,0,120
1,note_on,76,0,0
1,note_on,78,75,40
1,note_on,90,84,0
1,note_on,90,0,120
1,note_on,78,0,0
1,note_on,79,77,40
1,note_on,91,85,0
1,note_on,91,0,240
1,note_on,79,0,0
1,note_on,67,71,240
1,note_on,71,71,0
1,note_on,74,71,0
1,note_on,79,79,0
1,note_on,79,0,240
1,note_on,67,0,0
1,note_on,71,0,0
1,note_on,74,0,0
1,note_on,59,79,240
1,note_on,62,79,0
1,note_on,67,88,0
1,note_on,67,0,960
1,note_on,62,0,0
1,note_on,59,0,0
2,note_on,55,68,3826
2,note_on,47,61,0
2,note_on,47,0,527
2,note_on,55,0,0
2,note_on,47,56,0
2,note_on,55,63,0
2,note_on,55,0,120
2,note_on,47,0,0
2,note_on,55,63,40
2,note_on,47,56,0
2,note_on,47,0,120
2,note_on,55,0,0
2,note_on,47,62,40
2,note_on,55,69,0
2,note_on,55,0,640
2,note_on,47,0,0
2,note_on,47,56,0
2,note_on,55,63,0
2,note_on,55,0,120
2,note_on,47,0,0
2,note_on,55,62,40
2,note_on,47,55,0
2,note_on,47,0,120
2,note_on,55,0,0
2,note_on,47,61,40
2,note_on,55,68,0
2,note_on,55,0,720
2,note_on,47,0,0
2,note_on,59,62,0
2,note_on,55,55,0
2,note_on,55,0,108
2,note_on,59,0,0
2,note_on,57,61,120
2,note_on,60,68,0
2,note_on,60,0,120
2,note_on,57,0,0
2,note_on,59,62,120
2,note_on,55,55,0
2,note_on,55,0,120
2,note_on,59,0,0
2,note_on,60,68,120
2,note_on,57,61,0
2,note_on,57,0,120
2,note_on,60,0,0
2,note_on,50,60,120
2,note_on,57,67,0
2,note_on,57,0,120
2,note_on,50,0,0
2,note_on,59,61,120
2,note_on,62,68,0
2,note_on,62,0,485
2,note_on,59,0,0
2,note_on,62,63,0
2,note_on,59,56,0
2,note_on,59,0,120
2,note_on,62,0,0
2,note_on,59,56,40
2,note_on,62,63,0
2,note_on,62,0,120
2,note_on,59,0,0
2,note_on,59,62,40
2,note_on,62,69,0
2,note_on,62,0,640
2,note_on,59,0,0
2,note_on,62,63,0
2,note_on,59,56,0
2,note_on,59,0,120
2,note_on,62,0,0
2,note_on,59,55,40
2,note_on,62,62,0
2,note_on,62,0,120
2,note_on,59,0,0
2,note_on,64,68,40
2,note_on,60,61,0
2,note_on,60,0,108
2,note_on,64,0,0
2,note_on,59,54,120
2,note_on,62,61,0
2,note_on,62,0,120
2,note_on,59,0,0
2,note_on,57,58,120
2,note_on,60,65,0
2,note_on,60,0,120
2,note_on,57,0,0
2,note_on,55,53,120
2,note_on,59,59,0
2,note_on,59,0,120
2,note_on,55,0,0
2,note_on,57,79,120
2,note_on,50,71,0
2,note_on,50,0,120
2,note_on,57,0,0
2,note_on,59,74,120
2,note_on,55,66,0
2,note_on,55,0,120
2,note_on,59,0,0
2,note_on,50,71,120
2,note_on,57,79,0
2,note_on,57,0,240
2,note_on,50,0,0
2,note_on,51,64,424
2,note_on,63,72,0
2,note_on,63,0,960
2,note_on,51,0,0
2,note_on,50,63,0
2,note_on,62,70,0
2,note_on,62,0,480
2,note_on,50,0,0
2,note_on,63,72,480
2,note_on,51,64,0
2,note_on,51,0,946
2,note_on,63,0,0
2,note_on,50,62,0
2,note_on,62,69,0
2,note_on,62,0,480
2,note_on,50,0,0
2,note_on,67,68,282
2,note_on,55,61,0
2,note_on,55,0,480
2,note_on,67,0,0
2,note_on,66,72,0
2,note_on,54,64,0
2,note_on,54,0,381
2,note_on,66,0,0
2,note_on,65,69,0
2,note_on,53,62,0
2,note_on,53,0,346
2,note_on,65,0,0
2,note_on,52,64,0
2,note_on,64,72,0
2,note_on,64,0,720
2,note_on,52,0,0
2,note_on,50,54,0
2,note_on,52,54,0
2,note_on,62,60,0
2,note_on,62,0,120
2,note_on,52,0,0
2,note_on,50,0,0
2,note_on,52,59,120
2,note_on,60,66,0
2,note_on,48,59,0
2,note_on,48,0,120
2,note_on,60,0,0
2,note_on,52,0,0
2,note_on,52,51,120
2,note_on,59,57,0
2,note_on,47,51,0
2,note_on,47,0,120
2,note_on,59,0,0
2,note_on,52,0,0
2,note_on,52,54,120
2,note_on,57,60,0
2,note_on,45,54,0
2,note_on,45,0,120
2,note_on,57,0,0
2,note_on,52,0,0
2,note_on,55,55,120
2,note_on,43,49,0
2,note_on,43,0,120
2,note_on,55,0,0
2,note_on,54,60,120
2,note_on,42,54,0
2,note_on,42,0,120
2,note_on,54,0,0
2,note_on,52,51,600
2,note_on,64,57,0
2,note_on,64,0,120
2,note_on,52,0,0
2,note_on,50,54,120
2,note_on,62,60,0
2,note_on,62,0,120
2,note_on,50,0,0
2,note_on,49,50,120
2,note_on,61,56,0
2,note_on,61,0,120
2,note_on,49,0,0
2,note_on,47,53,120
2,note_on,59,59,0
2,note_on,59,0,120
2,note_on,47,0,0
2,note_on,45,50,120
2,note_on,57,56,0
2,note_on,57,0,120
2,note_on,45,0,0
2,note_on,56,60,120
2,note_on,44,54,0
2,note_on,44,0,120
2,note_on,56,0,0
2,note_on,54,51,600
2,note_on,66,57,0
2,note_on,66,0,120
2,note_on,54,0,0
2,note_on,56,54,120
2,note_on,64,60,0
2,note_on,52,54,0
2,note_on,52,0,120
2,note_on,64,0,0
2,note_on,56,0,0
2,note_on,51,50,120
2,note_on,63,56,0
2,note_on,56,51,0
2,note_on,56,0,120
2,note_on,63,0,0
2,note_on,51,0,0
2,note_on,49,53,120
2,note_on,61,59,0
2,note_on,56,53,0
2,note_on,56,0,120
2,note_on,61,0,0
2,note_on,49,0,0
2,note_on,47,50,120
2,note_on,59,56,0
2,note_on,59,0,120
2,note_on,47,0,0
2,note_on,45,54,120
2,note_on,57,60,0
2,note_on,57,0,389
2,note_on,45,0,0
2,note_on,59,56,0
2,note_on,57,56,0
2,note_on,47,50,0
2,note_on,47,0,297
2,note_on,57,0,0
2,note_on,59,0,0
2,note_on,57,60,0
2,note_on,60,60,0
2,note_on,48,54,0
2,note_on,48,0,114
2,note_on,60,0,0
2,note_on,57,0,0
2,note_on,49,51,0
2,note_on,61,57,0
2,note_on,57,57,0
2,note_on,57,0,240
2,note_on,61,0,0
2,note_on,49,0,0
2,note_on,45,55,0
2,note_on,57,62,0
2,note_on,57,0,343
2,note_on,45,0,0
2,note_on,59,58,0
2,note_on,57,58,0
2,note_on,47,52,0
2,note_on,47,0,343
2,note_on,57,0,0
2,note_on,59,0,0
2,note_on,57,62,0
2,note_on,60,62,0
2,note_on,48,55,0
2,note_on,48,0,137
2,note_on,60,0,0
2,note_on,57,0,0
2,note_on,49,54,0
2,note_on,57,60,0
2,note_on,61,60,0
2,note_on,61,0,240
2,note_on,57,0,0
2,note_on,49,0,0
2,note_on,50,62,0
2,note_on,62,69,0
2,note_on,62,0,325
2,note_on,50,0,0
2,note_on,64,63,0
2,note_on,62,63,0
2,note_on,52,56,0
2,note_on,52,0,339
2,note_on,62,0,0
2,note_on,64,0,0
2,note_on,62,69,0
2,note_on,53,62,0
2,note_on,65,69,0
2,note_on,65,0,56
2,note_on,53,0,0
2,note_on,62,0,0
2,note_on,54,58,0
2,note_on,62,65,0
2,note_on,66,65,0
2,note_on,66,0,240
2,note_on,62,0,0
2,note_on,54,0,0
2,note_on,62,71,0
2,note_on,50,63,0
2,note_on,50,0,325
2,note_on,62,0,0
2,note_on,64,66,0
2,note_on,62,66,0
2,note_on,52,59,0
2,note_on,52,0,353
2,note_on,62,0,0
2,note_on,64,0,0
2,note_on,62,73,0
2,note_on,65,73,0
2,note_on,53,65,0
2,note_on,53,0,127
2,note_on,65,0,0
2,note_on,62,0,0
2,note_on,54,61,0
2,note_on,62,68,0
2,note_on,66,68,0
2,note_on,66,0,240
2,note_on,62,0,0
2,note_on,54,0,0
2,note_on,55,79,0
2,note_on,55,0,318
2,note_on,55,71,0
2,note_on,65,79,0
2,note_on,53,71,0
2,note_on,53,0,960
2,note_on,65,0,0
2,note_on,55,0,0
2,note_on,55,69,0
2,note_on,52,69,0
2,note_on,64,77,0
2,note_on,64,0,960
2,note_on,52,0,0
2,note_on,55,0,0
2,note_on,51,71,0
2,note_on,63,79,0
2,note_on,55,71,0
2,note_on,55,0,945
2,note_on,63,0,0
2,note_on,51,0,0
2,note_on,54,67,0
2,note_on,62,75,0
2,note_on,50,67,0
2,note_on,50,0,480
2,note_on,62,0,0
2,note_on,54,0,0
2,note_on,50,74,0
2,note_on,38,66,0
2,note_on,38,0,282
2,note_on,50,0,0
2,note_on,52,74,0
2,note_on,40,66,0
2,note_on,50,74,0
2,note_on,50,0,480
2,note_on,40,0,0
2,note_on,52,0,0
2,note_on,54,79,0
2,note_on,42,71,0
2,note_on,50,79,0
2,note_on,50,0,427
2,note_on,42,0,0
2,note_on,54,0,0
2,note_on,50,75,0
2,note_on,43,67,0
2,note_on,55,75,0
2,note_on,55,0,353
2,note_on,43,0,0
2,note_on,50,0,0
2,note_on,50,64,240
2,note_on,55,72,0
2,note_on,43,64,0
2,note_on,43,0,120
2,note_on,55,0,0
2,note_on,50,0,0
2,note_on,50,66,120
2,note_on,57,74,0
2,note_on,45,66,0
2,note_on,45,0,120
2,note_on,57,0,0
2,note_on,50,0,0
2,note_on,47,59,120
2,note_on,59,66,0
2,note_on,50,59,0
2,note_on,50,0,120
2,note_on,59,0,0
2,note_on,47,0,0
2,note_on,57,78,120
2,note_on,50,70,0
2,note_on,62,78,0
2,note_on,54,70,0
2,note_on,54,0,120
2,note_on,57,0,0
2,note_on,50,0,0
2,note_on,62,0,0
2,note_on,55,65,120
2,note_on,62,73,0
2,note_on,59,73,0
2,note_on,59,0,120
2,note_on,62,0,0
2,note_on,55,0,0
2,note_on,50,68,120
2,note_on,57,76,0
2,note_on,54,68,0
2,note_on,62,76,0
2,note_on,62,0,120
2,note_on,50,0,0
2,note_on,57,0,0
2,note_on,54,0,0
2,note_on,55,79,360
2,note_on,55,0,318
2,note_on,65,79,0
2,note_on,53,71,0
2,note_on,55,71,0
2,note_on,55,0,960
2,note_on,53,0,0
2,note_on,65,0,0
2,note_on,52,69,0
2,note_on,64,77,0
2,note_on,55,69,0
2,note_on,55,0,960
2,note_on,64,0,0
2,note_on,52,0,0
2,note_on,51,71,0
2,note_on,63,79,0
2,note_on,55,71,0
2,note_on,55,0,480
2,note_on,63,0,0
2,note_on,51,0,0
2,note_on,54,67,0
2,note_on,62,75,0
2,note_on,50,67,0
2,note_on,50,0,92
2,note_on,62,0,0
2,note_on,54,0,0
2,note_on,48,61,0
2,note_on,54,61,0
2,note_on,60,68,0
2,note_on,60,0,120
2,note_on,54,0,0
2,note_on,48,0,0
2,note_on,47,64,120
2,note_on,55,72,0
2,note_on,59,72,0
2,note_on,50,64,0
2,note_on,50,0,240
2,note_on,47,0,0
2,note_on,55,0,0
2,note_on,59,0,0
2,note_on,48,60,0
2,note_on,60,67,0
2,note_on,60,0,240
2,note_on,48,0,0
2,note_on,59,72,0
2,note_on,47,64,0
2,note_on,47,0,240
2,note_on,59,0,0
2,note_on,45,60,0
2,note_on,57,67,0
2,note_on,57,0,240
2,note_on,45,0,0
2,note_on,43,63,0
2,note_on,55,71,0
2,note_on,50,71,0
2,note_on,55,0,57
2,note_on,43,0,0
2,note_on,53,67,0
2,note_on,41,60,0
2,note_on,41,0,120
2,note_on,53,0,0
2,note_on,50,0,120
2,note_on,40,64,0
2,note_on,52,72,0
2,note_on,52,0,120
2,note_on,40,0,0
2,note_on,54,67,120
2,note_on,42,60,0
2,note_on,42,0,120
2,note_on,54,0,0
2,note_on,40,64,120
2,note_on,52,72,0
2,note_on,52,0,120
2,note_on,40,0,0
2,note_on,38,63,120
2,note_on,50,70,0
2,note_on,50,0,120
2,note_on,38,0,0
2,note_on,48,74,120
2,note_on,36,66,0
2,note_on,36,0,720
2,note_on,48,0,0
2,note_on,38,65,0
2,note_on,50,65,0
2,note_on,50,0,120
2,note_on,38,0,0
2,note_on,39,70,120
2,note_on,51,70,0
2,note_on,51,0,720
2,note_on,39,0,0
2,note_on,40,64,0
2,note_on,52,64,0
2,note_on,52,0,120
2,note_on,40,0,0
2,note_on,42,71,120
2,note_on,54,71,0
2,note_on,54,0,720
2,note_on,42,0,0
2,note_on,55,65,0
2,note_on,43,65,0
2,note_on,43,0,120
2,note_on,55,0,0
2,note_on,45,70,120
2,note_on,57,70,0
2,note_on,57,0,720
2,note_on,45,0,0
2,note_on,46,64,0
2,note_on,58,64,0
2,note_on,58,0,120
2,note_on,46,0,0
2,note_on,47,67,120
2,note_on,59,67,0
2,note_on,59,0,720
2,note_on,47,0,0
2,note_on,48,60,0
2,note_on,60,60,0
2,note_on,60,0,120
2,note_on,48,0,0
2,note_on,62,63,120
2,note_on,50,63,0
2,note_on,50,0,416
2,note_on,62,0,0
2,note_on,63,63,0
2,note_on,51,56,0
2,note_on,51,0,374
2,note_on,63,0,0
2,note_on,50,63,0
2,note_on,62,63,0
2,note_on,62,0,388
2,note_on,50,0,0
2,note_on,51,55,0
2,note_on,63,61,0
2,note_on,63,0,325
2,note_on,51,0,0
2,note_on,62,63,0
2,note_on,50,63,0
2,note_on,50,0,360
2,note_on,62,0,0
2,note_on,47,56,0
2,note_on,59,63,0
2,note_on,59,0,177
2,note_on,47,0,0
2,note_on,46,53,0
2,note_on,58,60,0
2,note_on,58,0,480
2,note_on,46,0,0
2,note_on,45,48,0
2,note_on,57,54,0
2,note_on,57,0,480
2,note_on,45,0,0
2,note_on,43,54,0
2,note_on,55,60,0
2,note_on,55,0,240
2,note_on,43,0,0
2,note_on,51,58,240
2,note_on,63,66,0
2,note_on,63,0,480
2,note_on,51,0,0
2,note_on,62,66,0
2,note_on,50,66,0
2,note_on,50,0,353
2,note_on,62,0,0
2,note_on,51,57,0
2,note_on,63,64,0
2,note_on,63,0,360
2,note_on,51,0,0
2,note_on,62,66,0
2,note_on,50,66,0
2,note_on,50,0,395
2,note_on,62,0,0
2,note_on,47,58,0
2,note_on,59,66,0
2,note_on,59,0,280
2,note_on,47,0,0
2,note_on,46,55,0
2,note_on,58,63,0
2,note_on,58,0,480
2,note_on,46,0,0
2,note_on,45,50,0
2,note_on,57,56,0
2,note_on,57,0,480
2,note_on,45,0,0
2,note_on,43,56,0
2,note_on,55,63,0
2,note_on,55,0,240
2,note_on,43,0,0
2,note_on,47,53,240
2,note_on,54,53,0
2,note_on,62,59,0
2,note_on,50,53,0
2,note_on,50,0,480
2,note_on,47,0,0
2,note_on,54,0,0
2,note_on,62,0,0
2,note_on,55,56,0
2,note_on,62,63,0
2,note_on,59,56,0
2,note_on,59,0,120
2,note_on,62,0,0
2,note_on,55,0,0
2,note_on,50,53,360
2,note_on,54,53,0
2,note_on,62,59,0
2,note_on,47,53,0
2,note_on,47,0,480
2,note_on,50,0,0
2,note_on,54,0,0
2,note_on,62,0,0
2,note_on,59,56,0
2,note_on,62,63,0
2,note_on,55,56,0
2,note_on,55,0,120
2,note_on,62,0,0
2,note_on,59,0,0
2,note_on,47,53,360
2,note_on,54,53,0
2,note_on,62,59,0
2,note_on,50,53,0
2,note_on,50,0,480
2,note_on,47,0,0
2,note_on,54,0,0
2,note_on,62,0,0
2,note_on,55,56,0
2,note_on,59,56,0
2,note_on,62,63,0
2,note_on,62,0,240
2,note_on,59,0,0
2,note_on,55,0,0
2,note_on,59,35,240
2,note_on,62,39,0
2,note_on,62,0,240
2,note_on,59,0,0
2,note_on,59,31,462
2,note_on,63,35,0
2,note_on,57,31,0
2,note_on,57,0,240
2,note_on,63,0,0
2,note_on,59,0,0
2,note_on,60,31,466
2,note_on,64,35,0
2,note_on,55,31,0
2,note_on,55,0,240
2,note_on,64,0,0
2,note_on,60,0,0
2,note_on,64,34,452
2,note_on,60,30,0
2,note_on,54,30,0
2,note_on,57,30,0
2,note_on,57,0,240
2,note_on,64,0,0
2,note_on,60,0,0
2,note_on,54,0,0
2,note_on,59,35,593
2,note_on,63,39,0
2,note_on,63,0,240
2,note_on,59,0,0
2,note_on,45,28,462
2,note_on,57,32,0
2,note_on,47,28,0
2,note_on,47,0,240
2,note_on,57,0,0
2,note_on,45,0,0
2,note_on,48,27,529
2,note_on,55,31,0
2,note_on,43,27,0
2,note_on,43,0,240
2,note_on,55,0,0
2,note_on,48,0,0
2,note_on,54,33,452
2,note_on,48,29,0
2,note_on,42,29,0
2,note_on,42,0,240
2,note_on,48,0,0
2,note_on,54,0,0
2,note_on,54,31,593
2,note_on,59,35,0
2,note_on,47,31,0
2,note_on,47,0,240
2,note_on,59,0,0
2,note_on,54,0,0
2,note_on,57,31,462
2,note_on,59,31,0
2,note_on,63,35,0
2,note_on,63,0,240
2,note_on,59,0,0
2,note_on,57,0,0
2,note_on,55,31,565
2,note_on,64,35,0
2,note_on,60,31,0
2,note_on,60,0,240
2,note_on,64,0,0
2,note_on,55,0,0
2,note_on,60,30,452
2,note_on,57,30,0
2,note_on,54,30,0
2,note_on,64,34,0
2,note_on,64,0,240
2,note_on,60,0,0
2,note_on,57,0,0
2,note_on,54,0,0
2,note_on,63,39,593
2,note_on,59,35,0
2,note_on,59,0,240
2,note_on,63,0,0
2,note_on,45,28,462
2,note_on,47,28,0
2,note_on,57,32,0
2,note_on,57,0,240
2,note_on,47,0,0
2,note_on,45,0,0
2,note_on,43,27,522
2,note_on,55,31,0
2,note_on,48,27,0
2,note_on,48,0,240
2,note_on,55,0,0
2,note_on,43,0,0
2,note_on,54,33,452
2,note_on,42,29,0
2,note_on,48,29,0
2,note_on,48,0,240
2,note_on,42,0,0
2,note_on,54,0,0
2,note_on,54,33,593
2,note_on,59,37,0
2,note_on,47,33,0
2,note_on,47,0,240
2,note_on,59,0,0
2,note_on,54,0,0
2,note_on,45,36,462
2,note_on,54,41,0
2,note_on,57,41,0
2,note_on,57,0,166
2,note_on,54,0,0
2,note_on,45,0,0
2,note_on,44,44,0
2,note_on,56,49,0
2,note_on,56,0,240
2,note_on,44,0,0
2,note_on,44,57,240
2,note_on,44,0,80
2,note_on,43,52,80
2,note_on,43,0,80
2,note_on,44,52,80
2,note_on,44,0,80
2,note_on,46,59,80
2,note_on,46,0,80
2,note_on,44,53,80
2,note_on,44,0,80
2,note_on,46,53,80
2,note_on,46,0,80
2,note_on,48,59,80
2,note_on,48,0,80
2,note_on,46,55,80
2,note_on,46,0,80
2,note_on,48,55,80
2,note_on,48,0,80
2,note_on,49,60,80
2,note_on,49,0,240
2,note_on,56,39,240
2,note_on,61,44,0
2,note_on,49,39,0
2,note_on,49,0,240
2,note_on,61,0,0
2,note_on,56,0,0
2,note_on,56,48,349
2,note_on,59,48,0
2,note_on,47,43,0
2,note_on,47,0,480
2,note_on,59,0,0
2,note_on,56,0,0
2,note_on,46,45,0
2,note_on,58,51,0
2,note_on,58,0,238
2,note_on,46,0,0
2,note_on,46,61,240
2,note_on,46,0,80
2,note_on,45,56,80
2,note_on,45,0,80
2,note_on,46,56,80
2,note_on,46,0,80
2,note_on,48,64,80
2,note_on,48,0,80
2,note_on,46,57,80
2,note_on,46,0,80
2,note_on,48,57,80
2,note_on,48,0,80
2,note_on,50,64,80
2,note_on,50,0,80
2,note_on,49,59,80
2,note_on,49,0,80
2,note_on,50,59,80
2,note_on,50,0,80
2,note_on,51,66,80
2,note_on,51,0,240
2,note_on,58,37,240
2,note_on,56,37,0
2,note_on,68,41,0
2,note_on,68,0,240
2,note_on,56,0,0
2,note_on,58,0,0
2,note_on,58,39,240
2,note_on,54,39,0
2,note_on,66,44,0
2,note_on,66,0,240
2,note_on,54,0,0
2,note_on,58,0,0
2,note_on,62,40,240
2,note_on,58,40,0
2,note_on,50,36,0
2,note_on,50,0,240
2,note_on,58,0,0
2,note_on,62,0,0
2,note_on,51,39,240
2,note_on,63,44,0
2,note_on,58,39,0
2,note_on,58,0,240
2,note_on,63,0,0
2,note_on,51,0,0
2,note_on,53,36,240
2,note_on,65,40,0
2,note_on,58,36,0
2,note_on,58,0,240
2,note_on,65,0,0
2,note_on,53,0,0
2,note_on,66,44,240
2,note_on,54,39,0
2,note_on,58,39,0
2,note_on,58,0,240
2,note_on,54,0,0
2,note_on,66,0,0
2,note_on,68,39,240
2,note_on,56,35,0
2,note_on,58,35,0
2,note_on,58,0,240
2,note_on,56,0,0
2,note_on,68,0,0
2,note_on,66,44,240
2,note_on,58,39,0
2,note_on,54,39,0
2,note_on,54,0,240
2,note_on,58,0,0
2,note_on,66,0,0
2,note_on,58,70,240
2,note_on,58,0,149
2,note_on,58,67,0
2,note_on,58,0,160
2,note_on,58,66,0
2,note_on,58,0,160
2,note_on,63,72,0
2,note_on,54,72,0
2,note_on,54,0,480
2,note_on,63,0,0
2,note_on,65,68,0
2,note_on,58,68,0
2,note_on,58,0,411
2,note_on,65,0,0
2,note_on,66,71,0
2,note_on,63,71,0
2,note_on,63,0,394
2,note_on,66,0,0
2,note_on,58,73,0
2,note_on,58,0,103
2,note_on,58,70,0
2,note_on,58,0,160
2,note_on,58,70,0
2,note_on,58,0,160
2,note_on,54,72,0
2,note_on,63,72,0
2,note_on,63,0,480
2,note_on,54,0,0
2,note_on,58,68,0
2,note_on,65,68,0
2,note_on,65,0,411
2,note_on,58,0,0
2,note_on,63,71,0
2,note_on,66,71,0
2,note_on,66,0,394
2,note_on,63,0,0
2,note_on,69,41,0
2,note_on,59,37,0
2,note_on,57,37,0
2,note_on,57,0,239
2,note_on,59,0,0
2,note_on,69,0,0
2,note_on,67,44,240
2,note_on,59,39,0
2,note_on,55,39,0
2,note_on,55,0,240
2,note_on,59,0,0
2,note_on,67,0,0
2,note_on,63,40,240
2,note_on,59,40,0
2,note_on,51,36,0
2,note_on,51,0,240
2,note_on,59,0,0
2,note_on,63,0,0
2,note_on,59,39,240
2,note_on,64,44,0
2,note_on,52,39,0
2,note_on,52,0,240
2,note_on,64,0,0
2,note_on,59,0,0
2,note_on,59,36,240
2,note_on,66,40,0
2,note_on,54,36,0
2,note_on,54,0,240
2,note_on,66,0,0
2,note_on,59,0,0
2,note_on,59,39,240
2,note_on,55,39,0
2,note_on,67,44,0
2,note_on,67,0,240
2,note_on,55,0,0
2,note_on,59,0,0
2,note_on,59,35,240
2,note_on,57,35,0
2,note_on,69,39,0
2,note_on,69,0,240
2,note_on,57,0,0
2,note_on,59,0,0
2,note_on,67,44,240
2,note_on,55,39,0
2,note_on,59,39,0
2,note_on,59,0,240
2,note_on,55,0,0
2,note_on,67,0,0
2,note_on,59,70,240
2,note_on,59,0,149
2,note_on,59,67,0
2,note_on,59,0,160
2,note_on,59,66,0
2,note_on,59,0,160
2,note_on,55,72,0
2,note_on,64,72,0
2,note_on,64,0,480
2,note_on,55,0,0
2,note_on,59,68,0
2,note_on,66,68,0
2,note_on,66,0,411
2,note_on,59,0,0
2,note_on,67,71,0
2,note_on,64,71,0
2,note_on,64,0,394
2,note_on,67,0,0
2,note_on,59,73,0
2,note_on,59,0,96
2,note_on,59,70,0
2,note_on,59,0,160
2,note_on,59,70,0
2,note_on,59,0,160
2,note_on,55,72,0
2,note_on,64,72,0
2,note_on,64,0,480
2,note_on,55,0,0
2,note_on,59,68,0
2,note_on,66,68,0
2,note_on,66,0,411
2,note_on,59,0,0
2,note_on,64,71,0
2,note_on,67,71,0
2,note_on,67,0,394
2,note_on,64,0,0
2,note_on,58,44,0
2,note_on,60,44,0
2,note_on,64,49,0
2,note_on,64,0,182
2,note_on,60,0,0
2,note_on,58,0,0
2,note_on,60,45,240
2,note_on,65,51,0
2,note_on,57,45,0
2,note_on,57,0,191
2,note_on,65,0,0
2,note_on,60,0,0
2,note_on,60,46,240
2,note_on,62,46,0
2,note_on,66,52,0
2,note_on,66,0,148
2,note_on,62,0,0
2,note_on,60,0,0
2,note_on,62,48,240
2,note_on,67,54,0
2,note_on,59,48,0
2,note_on,59,0,169
2,note_on,67,0,0
2,note_on,62,0,0
2,note_on,62,50,240
2,note_on,64,50,0
2,note_on,68,56,0
2,note_on,68,0,169
2,note_on,64,0,0
2,note_on,62,0,0
2,note_on,64,52,240
2,note_on,69,58,0
2,note_on,61,52,0
2,note_on,61,0,176
2,note_on,69,0,0
2,note_on,64,0,0
2,note_on,64,53,240
2,note_on,70,59,0
2,note_on,66,53,0
2,note_on,66,0,155
2,note_on,70,0,0
2,note_on,64,0,0
2,note_on,63,54,240
2,note_on,71,61,0
2,note_on,66,61,0
2,note_on,66,0,99
2,note_on,71,0,0
2,note_on,63,0,0
2,note_on,61,56,240
2,note_on,64,56,0
2,note_on,70,63,0
2,note_on,66,63,0
2,note_on,66,0,162
2,note_on,61,0,0
2,note_on,64,0,0
2,note_on,70,0,0
2,note_on,59,58,0
2,note_on,63,58,0
2,note_on,66,65,0
2,note_on,71,65,0
2,note_on,71,0,162
2,note_on,59,0,0
2,note_on,63,0,0
2,note_on,66,0,0
2,note_on,61,58,240
2,note_on,64,58,0
2,note_on,66,65,0
2,note_on,70,65,0
2,note_on,70,0,120
2,note_on,61,0,0
2,note_on,64,0,0
2,note_on,66,0,0
2,note_on,63,58,240
2,note_on,66,65,0
2,note_on,71,65,0
2,note_on,59,58,0
2,note_on,59,0,134
2,note_on,63,0,0
2,note_on,66,0,0
2,note_on,71,0,0
2,note_on,49,50,240
2,note_on,54,50,0
2,note_on,58,56,0
2,note_on,52,50,0
2,note_on,52,0,162
2,note_on,49,0,0
2,note_on,54,0,0
2,note_on,58,0,0
2,note_on,51,52,0
2,note_on,54,52,0
2,note_on,59,58,0
2,note_on,47,52,0
2,note_on,47,0,191
2,note_on,51,0,0
2,note_on,54,0,0
2,note_on,59,0,0
2,note_on,58,60,240
2,note_on,49,54,0
2,note_on,54,54,0
2,note_on,52,54,0
2,note_on,52,0,120
2,note_on,58,0,0
2,note_on,49,0,0
2,note_on,54,0,0
2,note_on,47,57,240
2,note_on,51,57,0
2,note_on,59,63,0
2,note_on,54,57,0
2,note_on,54,0,127
2,note_on,47,0,0
2,note_on,51,0,0
2,note_on,59,0,0
2,note_on,58,66,240
2,note_on,52,59,0
2,note_on,54,59,0
2,note_on,49,59,0
2,note_on,49,0,148
2,note_on,58,0,0
2,note_on,52,0,0
2,note_on,54,0,0
2,note_on,47,55,0
2,note_on,54,55,0
2,note_on,59,65,0
2,note_on,51,55,0
2,note_on,51,0,39
2,note_on,47,0,0
2,note_on,54,0,0
2,note_on,59,0,0
2,note_on,51,49,40
2,note_on,54,49,0
2,note_on,59,58,0
2,note_on,47,49,0
2,note_on,47,0,120
2,note_on,51,0,0
2,note_on,54,0,0
2,note_on,59,0,0
2,note_on,47,49,40
2,note_on,51,49,0
2,note_on,59,58,0
2,note_on,54,49,0
2,note_on,54,0,120
2,note_on,47,0,0
2,note_on,51,0,0
2,note_on,59,0,0
2,note_on,47,55,40
2,note_on,54,55,0
2,note_on,59,65,0
2,note_on,51,55,0
2,note_on,51,0,240
2,note_on,47,0,0
2,note_on,54,0,0
2,note_on,59,0,0
2,note_on,51,55,236
2,note_on,54,55,0
2,note_on,59,65,0
2,note_on,47,55,0
2,note_on,47,0,57
2,note_on,51,0,0
2,note_on,54,0,0
2,note_on,59,0,0
2,note_on,47,49,40
2,note_on,54,49,0
2,note_on,59,58,0
2,note_on,51,49,0
2,note_on,51,0,120
2,note_on,47,0,0
2,note_on,54,0,0
2,note_on,59,0,0
2,note_on,51,49,40
2,note_on,54,49,0
2,note_on,47,49,0
2,note_on,59,58,0
2,note_on,59,0,120
2,note_on,51,0,0
2,note_on,54,0,0
2,note_on,47,0,0
2,note_on,51,55,40
2,note_on,54,55,0
2,note_on,59,65,0
2,note_on,47,55,0
2,note_on,47,0,240
2,note_on,51,0,0
2,note_on,54,0,0
2,note_on,59,0,0
2,note_on,47,55,240
2,note_on,54,55,0
2,note_on,59,65,0
2,note_on,51,55,0
2,note_on,51,0,39
2,note_on,47,0,0
2,note_on,54,0,0
2,note_on,59,0,0
2,note_on,47,49,40
2,note_on,51,49,0
2,note_on,59,58,0
2,note_on,54,49,0
2,note_on,54,0,120
2,note_on,47,0,0
2,note_on,51,0,0
2,note_on,59,0,0
2,note_on,51,49,40
2,note_on,54,49,0
2,note_on,59,58,0
2,note_on,47,49,0
2,note_on,47,0,120
2,note_on,51,0,0
2,note_on,54,0,0
2,note_on,59,0,0
2,note_on,47,55,40
2,note_on,51,55,0
2,note_on,59,65,0
2,note_on,54,55,0
2,note_on,54,0,240
2,note_on,47,0,0
2,note_on,51,0,0
2,note_on,59,0,0
2,note_on,51,55,236
2,note_on,54,55,0
2,note_on,47,55,0
2,note_on,59,65,0
2,note_on,59,0,57
2,note_on,51,0,0
2,note_on,54,0,0
2,note_on,47,0,0
2,note_on,47,49,40
2,note_on,51,49,0
2,note_on,59,58,0
2,note_on,54,49,0
2,note_on,54,0,120
2,note_on,47,0,0
2,note_on,51,0,0
2,note_on,59,0,0
2,note_on,47,49,40
2,note_on,54,49,0
2,note_on,59,58,0
2,note_on,51,49,0
2,note_on,51,0,120
2,note_on,47,0,0
2,note_on,54,0,0
2,note_on,59,0,0
2,note_on,51,55,40
2,note_on,54,55,0
2,note_on,47,55,0
2,note_on,59,65,0
2,note_on,59,0,23
2,note_on,51,0,0
2,note_on,54,0,0
2,note_on,47,0,0
2,note_on,50,55,240
2,note_on,62,65,0
2,note_on,62,0,79
2,note_on,50,0,0
2,note_on,50,49,0
2,note_on,62,58,0
2,note_on,62,0,160
2,note_on,50,0,0
2,note_on,62,58,0
2,note_on,50,49,0
2,note_on,50,0,160
2,note_on,62,0,0
2,note_on,50,55,0
2,note_on,62,65,0
2,note_on,62,0,240
2,note_on,50,0,0
2,note_on,50,55,240
2,note_on,62,65,0
2,note_on,62,0,47
2,note_on,50,0,0
2,note_on,50,49,0
2,note_on,62,58,0
2,note_on,62,0,160
2,note_on,50,0,0
2,note_on,62,58,0
2,note_on,50,49,0
2,note_on,50,0,160
2,note_on,62,0,0
2,note_on,50,55,0
2,note_on,62,65,0
2,note_on,62,0,240
2,note_on,50,0,0
2,note_on,47,61,1814
2,note_on,55,68,0
2,note_on,55,0,513
2,note_on,47,0,0
2,note_on,47,56,0
2,note_on,55,63,0
2,note_on,55,0,120
2,note_on,47,0,0
2,note_on,47,56,40
2,note_on,55,63,0
2,note_on,55,0,120
2,note_on,47,0,0
2,note_on,47,62,40
2,note_on,55,69,0
2,note_on,55,0,640
2,note_on,47,0,0
2,note_on,47,56,0
2,note_on,55,63,0
2,note_on,55,0,120
2,note_on,47,0,0
2,note_on,47,55,40
2,note_on,55,62,0
2,note_on,55,0,120
2,note_on,47,0,0
2,note_on,47,61,40
2,note_on,55,68,0
2,note_on,55,0,720
2,note_on,47,0,0
2,note_on,59,62,0
2,note_on,55,55,0
2,note_on,55,0,120
2,note_on,59,0,0
2,note_on,57,61,56
2,note_on,60,68,0
2,note_on,60,0,120
2,note_on,57,0,0
2,note_on,55,55,120
2,note_on,59,62,0
2,note_on,59,0,120
2,note_on,55,0,0
2,note_on,60,68,120
2,note_on,57,61,0
2,note_on,57,0,120
2,note_on,60,0,0
2,note_on,50,60,120
2,note_on,57,67,0
2,note_on,57,0,120
2,note_on,50,0,0
2,note_on,62,68,120
2,note_on,59,61,0
2,note_on,59,0,485
2,note_on,62,0,0
2,note_on,59,56,0
2,note_on,62,63,0
2,note_on,62,0,120
2,note_on,59,0,0
2,note_on,59,56,40
2,note_on,62,63,0
2,note_on,62,0,120
2,note_on,59,0,0
2,note_on,59,62,40
2,note_on,62,69,0
2,note_on,62,0,640
2,note_on,59,0,0
2,note_on,59,56,0
2,note_on,62,63,0
2,note_on,62,0,120
2,note_on,59,0,0
2,note_on,59,55,40
2,note_on,62,62,0
2,note_on,62,0,120
2,note_on,59,0,0
2,note_on,64,68,0
2,note_on,60,61,0
2,note_on,60,0,120
2,note_on,64,0,0
2,note_on,59,54,120
2,note_on,62,61,0
2,note_on,62,0,120
2,note_on,59,0,0
2,note_on,57,58,120
2,note_on,60,65,0
2,note_on,60,0,120
2,note_on,57,0,0
2,note_on,55,53,120
2,note_on,59,59,0
2,note_on,59,0,120
2,note_on,55,0,0
2,note_on,50,71,120
2,note_on,57,79,0
2,note_on,57,0,120
2,note_on,50,0,0
2,note_on,55,66,120
2,note_on,59,74,0
2,note_on,59,0,120
2,note_on,55,0,0
2,note_on,50,71,120
2,note_on,57,79,0
2,note_on,57,0,240
2,note_on,50,0,0
2,note_on,63,72,424
2,note_on,51,64,0
2,note_on,51,0,960
2,note_on,63,0,0
2,note_on,50,63,0
2,note_on,62,70,0
2,note_on,62,0,480
2,note_on,50,0,0
2,note_on,51,64,480
2,note_on,63,72,0
2,note_on,63,0,948
2,note_on,51,0,0
2,note_on,50,62,0
2,note_on,62,69,0
2,note_on,62,0,480
2,note_on,50,0,0
2,note_on,67,68,282
2,note_on,55,61,0
2,note_on,55,0,480
2,note_on,67,0,0
2,note_on,66,72,0
2,note_on,54,64,0
2,note_on,54,0,353
2,note_on,66,0,0
2,note_on,65,69,0
2,note_on,53,62,0
2,note_on,53,0,402
2,note_on,65,0,0
2,note_on,52,64,0
2,note_on,64,72,0
2,note_on,64,0,720
2,note_on,52,0,0
2,note_on,50,54,0
2,note_on,52,54,0
2,note_on,62,60,0
2,note_on,62,0,120
2,note_on,52,0,0
2,note_on,50,0,0
2,note_on,52,59,120
2,note_on,48,59,0
2,note_on,60,66,0
2,note_on,60,0,120
2,note_on,48,0,0
2,note_on,52,0,0
2,note_on,47,51,120
2,note_on,52,51,0
2,note_on,59,57,0
2,note_on,59,0,120
2,note_on,52,0,0
2,note_on,47,0,0
2,note_on,45,54,120
2,note_on,52,54,0
2,note_on,57,60,0
2,note_on,57,0,120
2,note_on,52,0,0
2,note_on,45,0,0
2,note_on,43,49,120
2,note_on,55,55,0
2,note_on,55,0,120
2,note_on,43,0,0
2,note_on,42,54,120
2,note_on,54,60,0
2,note_on,54,0,120
2,note_on,42,0,0
2,note_on,52,51,600
2,note_on,64,57,0
2,note_on,64,0,120
2,note_on,52,0,0
2,note_on,50,54,120
2,note_on,62,60,0
2,note_on,62,0,120
2,note_on,50,0,0
2,note_on,49,50,120
2,note_on,61,56,0
2,note_on,61,0,120
2,note_on,49,0,0
2,note_on,47,53,120
2,note_on,59,59,0
2,note_on,59,0,120
2,note_on,47,0,0
2,note_on,45,50,120
2,note_on,57,56,0
2,note_on,57,0,120
2,note_on,45,0,0
2,note_on,44,54,120
2,note_on,56,60,0
2,note_on,56,0,120
2,note_on,44,0,0
2,note_on,54,51,600
2,note_on,66,57,0
2,note_on,66,0,120
2,note_on,54,0,0
2,note_on,56,54,120
2,note_on,52,54,0
2,note_on,64,60,0
2,note_on,64,0,120
2,note_on,52,0,0
2,note_on,56,0,0
2,note_on,56,51,120
2,note_on,51,50,0
2,note_on,63,56,0
2,note_on,63,0,120
2,note_on,51,0,0
2,note_on,56,0,0
2,note_on,56,53,120
2,note_on,49,53,0
2,note_on,61,59,0
2,note_on,61,0,120
2,note_on,49,0,0
2,note_on,56,0,0
2,note_on,47,50,120
2,note_on,59,56,0
2,note_on,59,0,120
2,note_on,47,0,0
2,note_on,45,54,120
2,note_on,57,60,0
2,note_on,57,0,389
2,note_on,45,0,0
2,note_on,47,50,0
2,note_on,59,56,0
2,note_on,57,56,0
2,note_on,57,0,366
2,note_on,59,0,0
2,note_on,47,0,0
2,note_on,57,60,0
2,note_on,48,54,0
2,note_on,60,60,0
2,note_on,60,0,91
2,note_on,48,0,0
2,note_on,57,0,0
2,note_on,49,51,0
2,note_on,57,57,0
2,note_on,61,57,0
2,note_on,61,0,240
2,note_on,57,0,0
2,note_on,49,0,0
2,note_on,45,55,0
2,note_on,57,62,0
2,note_on,57,0,331
2,note_on,45,0,0
2,note_on,47,52,0
2,note_on,59,58,0
2,note_on,57,58,0
2,note_on,57,0,377
2,note_on,59,0,0
2,note_on,47,0,0
2,note_on,57,62,0
2,note_on,48,55,0
2,note_on,60,62,0
2,note_on,60,0,114
2,note_on,48,0,0
2,note_on,57,0,0
2,note_on,49,54,0
2,note_on,57,60,0
2,note_on,61,60,0
2,note_on,61,0,240
2,note_on,57,0,0
2,note_on,49,0,0
2,note_on,50,62,0
2,note_on,62,69,0
2,note_on,62,0,389
2,note_on,50,0,0
2,note_on,52,56,0
2,note_on,64,63,0
2,note_on,62,63,0
2,note_on,62,0,367
2,note_on,64,0,0
2,note_on,52,0,0
2,note_on,62,69,0
2,note_on,53,62,0
2,note_on,65,69,0
2,note_on,65,0,127
2,note_on,53,0,0
2,note_on,62,0,0
2,note_on,54,58,0
2,note_on,62,65,0
2,note_on,66,65,0
2,note_on,66,0,240
2,note_on,62,0,0
2,note_on,54,0,0
2,note_on,50,63,0
2,note_on,62,71,0
2,note_on,62,0,339
2,note_on,50,0,0
2,note_on,52,59,0
2,note_on,64,66,0
2,note_on,62,66,0
2,note_on,62,0,339
2,note_on,64,0,0
2,note_on,52,0,0
2,note_on,62,73,0
2,note_on,53,65,0
2,note_on,65,73,0
2,note_on,65,0,141
2,note_on,53,0,0
2,note_on,62,0,0
2,note_on,54,61,0
2,note_on,62,68,0
2,note_on,66,68,0
2,note_on,66,0,240
2,note_on,62,0,0
2,note_on,54,0,0
2,note_on,55,79,0
2,note_on,55,0,318
2,note_on,55,71,0
2,note_on,65,79,0
2,note_on,53,71,0
2,note_on,53,0,960
2,note_on,65,0,0
2,note_on,55,0,0
2,note_on,55,69,0
2,note_on,52,69,0
2,note_on,64,77,0
2,note_on,64,0,960
2,note_on,52,0,0
2,note_on,55,0,0
2,note_on,55,71,0
2,note_on,51,71,0
2,note_on,63,79,0
2,note_on,63,0,946
2,note_on,51,0,0
2,note_on,55,0,0
2,note_on,54,67,0
2,note_on,50,67,0
2,note_on,62,75,0
2,note_on,62,0,480
2,note_on,50,0,0
2,note_on,54,0,0
2,note_on,38,66,0
2,note_on,50,74,0
2,note_on,50,0,282
2,note_on,38,0,0
2,note_on,50,74,0
2,note_on,52,74,0
2,note_on,40,66,0
2,note_on,40,0,480
2,note_on,52,0,0
2,note_on,50,0,0
2,note_on,50,79,0
2,note_on,54,79,0
2,note_on,42,71,0
2,note_on,42,0,374
2,note_on,54,0,0
2,note_on,50,0,0
2,note_on,50,75,0
2,note_on,55,75,0
2,note_on,43,67,0
2,note_on,43,0,395
2,note_on,55,0,0
2,note_on,50,0,0
2,note_on,43,64,226
2,note_on,50,64,0
2,note_on,55,72,0
2,note_on,55,0,120
2,note_on,50,0,0
2,note_on,43,0,0
2,note_on,45,66,120
2,note_on,50,66,0
2,note_on,57,74,0
2,note_on,57,0,120
2,note_on,50,0,0
2,note_on,45,0,0
2,note_on,47,59,120
2,note_on,50,59,0
2,note_on,59,66,0
2,note_on,59,0,120
2,note_on,50,0,0
2,note_on,47,0,0
2,note_on,54,70,120
2,note_on,57,78,0
2,note_on,50,70,0
2,note_on,62,78,0
2,note_on,62,0,120
2,note_on,54,0,0
2,note_on,57,0,0
2,note_on,50,0,0
2,note_on,55,65,120
2,note_on,59,73,0
2,note_on,62,73,0
2,note_on,62,0,120
2,note_on,59,0,0
2,note_on,55,0,0
2,note_on,54,68,120
2,note_on,50,68,0
2,note_on,57,76,0
2,note_on,62,76,0
2,note_on,62,0,120
2,note_on,54,0,0
2,note_on,50,0,0
2,note_on,57,0,0
2,note_on,55,79,360
2,note_on,55,0,318
2,note_on,55,71,0
2,note_on,65,79,0
2,note_on,53,71,0
2,note_on,53,0,960
2,note_on,65,0,0
2,note_on,55,0,0
2,note_on,55,69,0
2,note_on,52,69,0
2,note_on,64,77,0
2,note_on,64,0,960
2,note_on,52,0,0
2,note_on,55,0,0
2,note_on,55,71,0
2,note_on,51,71,0
2,note_on,63,79,0
2,note_on,63,0,459
2,note_on,51,0,0
2,note_on,55,0,0
2,note_on,50,67,0
2,note_on,54,67,0
2,note_on,62,75,0
2,note_on,62,0,720
2,note_on,54,0,0
2,note_on,50,0,0
2,note_on,48,61,0
2,note_on,54,61,0
2,note_on,60,68,0
2,note_on,60,0,120
2,note_on,54,0,0
2,note_on,48,0,0
2,note_on,47,64,120
2,note_on,50,64,0
2,note_on,55,72,0
2,note_on,59,72,0
2,note_on,59,0,240
2,note_on,47,0,0
2,note_on,50,0,0
2,note_on,55,0,0
2,note_on,48,60,0
2,note_on,60,67,0
2,note_on,60,0,240
2,note_on,48,0,0
2,note_on,47,64,0
2,note_on,59,72,0
2,note_on,59,0,240
2,note_on,47,0,0
2,note_on,45,60,0
2,note_on,57,67,0
2,note_on,57,0,240
2,note_on,45,0,0
2,note_on,43,63,0
2,note_on,55,71,0
2,note_on,50,71,0
2,note_on,55,0,720
2,note_on,43,0,0
2,note_on,41,60,0
2,note_on,53,67,0
2,note_on,53,0,120
2,note_on,41,0,0
2,note_on,50,0,120
2,note_on,40,64,0
2,note_on,52,72,0
2,note_on,52,0,120
2,note_on,40,0,0
2,note_on,42,60,120
2,note_on,54,67,0
2,note_on,54,0,120
2,note_on,42,0,0
2,note_on,40,64,120
2,note_on,52,72,0
2,note_on,52,0,120
2,note_on,40,0,0
2,note_on,38,63,120
2,note_on,50,70,0
2,note_on,50,0,120
2,note_on,38,0,0
2,note_on,36,66,120
2,note_on,48,74,0
2,note_on,48,0,720
2,note_on,36,0,0
2,note_on,38,65,0
2,note_on,50,65,0
2,note_on,50,0,120
2,note_on,38,0,0
2,note_on,39,70,120
2,note_on,51,70,0
2,note_on,51,0,720
2,note_on,39,0,0
2,note_on,40,64,0
2,note_on,52,64,0
2,note_on,52,0,120
2,note_on,40,0,0
2,note_on,42,71,120
2,note_on,54,71,0
2,note_on,54,0,720
2,note_on,42,0,0
2,note_on,43,65,0
2,note_on,55,65,0
2,note_on,55,0,120
2,note_on,43,0,0
2,note_on,45,70,120
2,note_on,57,70,0
2,note_on,57,0,720
2,note_on,45,0,0
2,note_on,46,64,0
2,note_on,58,64,0
2,note_on,58,0,120
2,note_on,46,0,0
2,note_on,47,67,120
2,note_on,59,67,0
2,note_on,59,0,720
2,note_on,47,0,0
2,note_on,48,60,0
2,note_on,60,60,0
2,note_on,60,0,120
2,note_on,48,0,0
2,note_on,50,63,120
2,note_on,62,63,0
2,note_on,62,0,318
2,note_on,50,0,0
2,note_on,51,56,0
2,note_on,63,63,0
2,note_on,63,0,367
2,note_on,51,0,0
2,note_on,50,63,0
2,note_on,62,63,0
2,note_on,62,0,395
2,note_on,50,0,0
2,note_on,51,55,0
2,note_on,63,61,0
2,note_on,63,0,422
2,note_on,51,0,0
2,note_on,50,63,0
2,note_on,62,63,0
2,note_on,62,0,343
2,note_on,50,0,0
2,note_on,47,56,0
2,note_on,59,63,0
2,note_on,59,0,296
2,note_on,47,0,0
2,note_on,46,53,0
2,note_on,58,60,0
2,note_on,58,0,480
2,note_on,46,0,0
2,note_on,45,48,0
2,note_on,57,54,0
2,note_on,57,0,480
2,note_on,45,0,0
2,note_on,43,54,0
2,note_on,55,60,0
2,note_on,55,0,240
2,note_on,43,0,0
2,note_on,51,58,240
2,note_on,63,66,0
2,note_on,63,0,438
2,note_on,51,0,0
2,note_on,50,66,0
2,note_on,62,66,0
2,note_on,62,0,332
2,note_on,50,0,0
2,note_on,51,57,0
2,note_on,63,64,0
2,note_on,63,0,388
2,note_on,51,0,0
2,note_on,50,66,0
2,note_on,62,66,0
2,note_on,62,0,366
2,note_on,50,0,0
2,note_on,47,58,0
2,note_on,59,66,0
2,note_on,59,0,480
2,note_on,47,0,0
2,note_on,46,60,0
2,note_on,58,69,0
2,note_on,58,0,331
2,note_on,46,0,0
2,note_on,45,55,0
2,note_on,57,61,0
2,note_on,57,0,354
2,note_on,45,0,0
2,note_on,43,61,0
2,note_on,55,69,0
2,note_on,55,0,194
2,note_on,43,0,0
2,note_on,47,58,240
2,note_on,50,58,0
2,note_on,54,58,0
2,note_on,62,64,0
2,note_on,62,0,480
2,note_on,47,0,0
2,note_on,50,0,0
2,note_on,54,0,0
2,note_on,55,61,0
2,note_on,59,61,0
2,note_on,62,69,0
2,note_on,62,0,176
2,note_on,59,0,0
2,note_on,55,0,0
2,note_on,47,58,169
2,note_on,50,58,0
2,note_on,54,58,0
2,note_on,62,64,0
2,note_on,62,0,480
2,note_on,47,0,0
2,note_on,50,0,0
2,note_on,54,0,0
2,note_on,55,61,0
2,note_on,59,61,0
2,note_on,62,69,0
2,note_on,62,0,99
2,note_on,59,0,0
2,note_on,55,0,0
2,note_on,55,61,226
2,note_on,59,61,0
2,note_on,62,68,0
2,note_on,62,0,155
2,note_on,59,0,0
2,note_on,55,0,0
2,note_on,43,65,212
2,note_on,50,65,0
2,note_on,55,73,0
2,note_on,55,0,776
2,note_on,50,0,0
2,note_on,43,0,0
