Track,Message Type,Note,Velocity,Time
1,note_on,81,48,51840
1,note_on,81,0,80
1,note_on,79,35,0
1,note_on,79,0,80
1,note_on,81,38,0
1,note_on,81,0,80
1,note_on,79,35,0
1,note_on,79,0,80
1,note_on,81,38,0
1,note_on,81,0,80
1,note_on,79,36,0
1,note_on,79,0,80
1,note_on,81,40,0
1,note_on,81,0,80
1,note_on,79,36,0
1,note_on,79,0,80
1,note_on,81,40,0
1,note_on,81,0,80
1,note_on,79,36,0
1,note_on,79,0,80
1,note_on,81,40,0
1,note_on,81,0,80
1,note_on,79,36,0
1,note_on,79,0,80
1,note_on,81,40,0
1,note_on,81,0,80
1,note_on,79,37,0
1,note_on,79,0,80
1,note_on,81,40,0
1,note_on,81,0,80
1,note_on,79,36,0
1,note_on,79,0,80
1,note_on,81,40,0
1,note_on,81,0,80
1,note_on,79,36,0
1,note_on,79,0,80
1,note_on,81,40,0
1,note_on,81,0,80
1,note_on,79,35,0
1,note_on,79,0,80
1,note_on,81,38,0
1,note_on,81,0,80
1,note_on,79,33,0
1,note_on,79,0,80
1,note_on,81,38,0
1,note_on,81,0,80
1,note_on,79,34,0
1,note_on,79,0,80
1,note_on,81,38,0
1,note_on,81,0,80
1,note_on,79,34,0
1,note_on,79,0,80
1,note_on,81,36,0
1,note_on,81,0,80
1,note_on,79,33,0
1,note_on,79,0,80
1,note_on,81,37,0
1,note_on,81,0,80
1,note_on,79,33,0
1,note_on,79,0,80
1,note_on,81,37,0
1,note_on,81,0,80
1,note_on,79,33,0
1,note_on,79,0,80
1,note_on,81,38,0
1,note_on,81,0,80
1,note_on,79,32,0
1,note_on,79,0,80
1,note_on,81,37,0
1,note_on,81,0,80
1,note_on,79,32,0
1,note_on,79,0,80
1,note_on,81,38,0
1,note_on,81,0,80
1,note_on,79,32,0
1,note_on,79,0,80
1,note_on,81,37,0
1,note_on,81,0,80
1,note_on,79,32,0
1,note_on,79,0,80
1,note_on,81,36,0
1,note_on,81,0,80
1,note_on,79,32,0
1,note_on,79,0,80
1,note_on,81,36,0
1,note_on,81,0,80
1,note_on,79,34,0
1,note_on,79,0,80
1,note_on,81,37,0
1,note_on,81,0,80
1,note_on,79,33,0
1,note_on,79,0,80
1,note_on,81,36,0
1,note_on,81,0,80
1,note_on,79,32,0
1,note_on,79,0,80
1,note_on,81,36,0
1,note_on,81,0,80
1,note_on,79,32,0
1,note_on,79,0,80
1,note_on,81,37,0
1,note_on,81,0,80
1,note_on,79,33,0
1,note_on,79,0,80
1,note_on,81,38,0
1,note_on,81,0,80
1,note_on,79,33,0
1,note_on,79,0,80
1,note_on,81,39,0
1,note_on,81,0,80
1,note_on,79,35,0
1,note_on,79,0,80
1,note_on,81,40,0
1,note_on,81,0,80
1,note_on,79,36,0
1,note_on,79,0,80
1,note_on,81,40,0
1,note_on,81,0,80
1,note_on,79,36,0
1,note_on,79,0,80
1,note_on,81,40,0
1,note_on,81,0,80
1,note_on,79,37,0
1,note_on,79,0,80
1,note_on,81,40,0
1,note_on,81,0,80
1,note_on,79,36,0
1,note_on,79,0,80
1,note_on,81,40,0
1,note_on,81,0,80
1,note_on,79,36,0
1,note_on,79,0,80
1,note_on,81,39,0
1,note_on,81,0,80
1,note_on,79,36,0
1,note_on,79,0,80
1,note_on,81,38,0
1,note_on,81,0,80
1,note_on,79,32,0
1,note_on,79,0,80
1,note_on,81,37,0
1,note_on,81,0,80
1,note_on,79,33,0
1,note_on,79,0,80
1,note_on,81,39,0
1,note_on,81,0,80
1,note_on,79,32,0
1,note_on,79,0,80
1,note_on,81,36,0
1,note_on,81,0,80
1,note_on,79,31,0
1,note_on,79,0,80
1,note_on,81,36,0
1,note_on,81,0,80
1,note_on,79,30,0
1,note_on,79,0,80
1,note_on,81,36,0
1,note_on,81,0,80
1,note_on,79,31,0
1,note_on,79,0,80
1,note_on,81,36,0
1,note_on,81,0,80
1,note_on,79,34,0
1,note_on,79,0,80
1,note_on,78,36,0
1,note_on,78,0,80
1,note_on,79,31,0
1,note_on,79,0,80
1,note_on,81,48,101760
1,note_on,81,0,80
1,note_on,79,35,0
1,note_on,79,0,80
1,note_on,81,38,0
1,note_on,81,0,80
1,note_on,79,35,0
1,note_on,79,0,80
1,note_on,81,38,0
1,note_on,81,0,80
1,note_on,79,36,0
1,note_on,79,0,80
1,note_on,81,40,0
1,note_on,81,0,80
1,note_on,79,36,0
1,note_on,79,0,80
1,note_on,81,40,0
1,note_on,81,0,80
1,note_on,79,36,0
1,note_on,79,0,80
1,note_on,81,40,0
1,note_on,81,0,80
1,note_on,79,36,0
1,note_on,79,0,80
1,note_on,81,40,0
1,note_on,81,0,80
1,note_on,79,37,0
1,note_on,79,0,80
1,note_on,81,40,0
1,note_on,81,0,80
1,note_on,79,36,0
1,note_on,79,0,80
1,note_on,81,40,0
1,note_on,81,0,80
1,note_on,79,36,0
1,note_on,79,0,80
1,note_on,81,40,0
1,note_on,81,0,80
1,note_on,79,35,0
1,note_on,79,0,80
1,note_on,81,38,0
1,note_on,81,0,80
1,note_on,79,33,0
1,note_on,79,0,80
1,note_on,81,38,0
1,note_on,81,0,80
1,note_on,79,34,0
1,note_on,79,0,80
1,note_on,81,38,0
1,note_on,81,0,80
1,note_on,79,34,0
1,note_on,79,0,80
1,note_on,81,36,0
1,note_on,81,0,80
1,note_on,79,33,0
1,note_on,79,0,80
1,note_on,81,37,0
1,note_on,81,0,80
1,note_on,79,33,0
1,note_on,79,0,80
1,note_on,81,37,0
1,note_on,81,0,80
1,note_on,79,33,0
1,note_on,79,0,80
1,note_on,81,38,0
1,note_on,81,0,80
1,note_on,79,32,0
1,note_on,79,0,80
1,note_on,81,37,0
1,note_on,81,0,80
1,note_on,79,32,0
1,note_on,79,0,80
1,note_on,81,38,0
1,note_on,81,0,80
1,note_on,79,32,0
1,note_on,79,0,80
1,note_on,81,37,0
1,note_on,81,0,80
1,note_on,79,32,0
1,note_on,79,0,80
1,note_on,81,36,0
1,note_on,81,0,80
1,note_on,79,32,0
1,note_on,79,0,80
1,note_on,81,36,0
1,note_on,81,0,80
1,note_on,79,34,0
1,note_on,79,0,80
1,note_on,81,37,0
1,note_on,81,0,80
1,note_on,79,33,0
1,note_on,79,0,80
1,note_on,81,36,0
1,note_on,81,0,80
1,note_on,79,32,0
1,note_on,79,0,80
1,note_on,81,36,0
1,note_on,81,0,80
1,note_on,79,32,0
1,note_on,79,0,80
1,note_on,81,37,0
1,note_on,81,0,80
1,note_on,79,33,0
1,note_on,79,0,80
1,note_on,81,38,0
1,note_on,81,0,80
1,note_on,79,33,0
1,note_on,79,0,80
1,note_on,81,39,0
1,note_on,81,0,80
1,note_on,79,35,0
1,note_on,79,0,80
1,note_on,81,40,0
1,note_on,81,0,80
1,note_on,79,36,0
1,note_on,79,0,80
1,note_on,81,40,0
1,note_on,81,0,80
1,note_on,79,36,0
1,note_on,79,0,80
1,note_on,81,40,0
1,note_on,81,0,80
1,note_on,79,37,0
1,note_on,79,0,80
1,note_on,81,40,0
1,note_on,81,0,80
1,note_on,79,36,0
1,note_on,79,0,80
1,note_on,81,40,0
1,note_on,81,0,80
1,note_on,79,36,0
1,note_on,79,0,80
1,note_on,81,39,0
1,note_on,81,0,80
1,note_on,79,36,0
1,note_on,79,0,80
1,note_on,81,38,0
1,note_on,81,0,80
1,note_on,79,32,0
1,note_on,79,0,80
1,note_on,81,37,0
1,note_on,81,0,80
1,note_on,79,33,0
1,note_on,79,0,80
1,note_on,81,39,0
1,note_on,81,0,80
1,note_on,79,32,0
1,note_on,79,0,80
1,note_on,81,36,0
1,note_on,81,0,80
1,note_on,79,31,0
1,note_on,79,0,80
1,note_on,81,36,0
1,note_on,81,0,80
1,note_on,79,30,0
1,note_on,79,0,80
1,note_on,81,36,0
1,note_on,81,0,80
1,note_on,79,31,0
1,note_on,79,0,80
1,note_on,81,36,0
1,note_on,81,0,80
1,note_on,79,34,0
1,note_on,79,0,80
1,note_on,78,36,0
1,note_on,78,0,80
1,note_on,79,31,0
1,note_on,79,0,80
1,note_on,81,48,155520
1,note_on,81,0,80
1,note_on,79,35,0
1,note_on,79,0,80
1,note_on,81,38,0
1,note_on,81,0,80
1,note_on,79,35,0
1,note_on,79,0,80
1,note_on,81,38,0
1,note_on,81,0,80
1,note_on,79,36,0
1,note_on,79,0,80
1,note_on,81,40,0
1,note_on,81,0,80
1,note_on,79,36,0
1,note_on,79,0,80
1,note_on,81,40,0
1,note_on,81,0,80
1,note_on,79,36,0
1,note_on,79,0,80
1,note_on,81,40,0
1,note_on,81,0,80
1,note_on,79,36,0
1,note_on,79,0,80
1,note_on,81,40,0
1,note_on,81,0,80
1,note_on,79,37,0
1,note_on,79,0,80
1,note_on,81,40,0
1,note_on,81,0,80
1,note_on,79,36,0
1,note_on,79,0,80
1,note_on,81,40,0
1,note_on,81,0,80
1,note_on,79,36,0
1,note_on,79,0,80
1,note_on,81,40,0
1,note_on,81,0,80
1,note_on,79,35,0
1,note_on,79,0,80
1,note_on,81,38,0
1,note_on,81,0,80
1,note_on,79,33,0
1,note_on,79,0,80
1,note_on,81,38,0
1,note_on,81,0,80
1,note_on,79,34,0
1,note_on,79,0,80
1,note_on,81,38,0
1,note_on,81,0,80
1,note_on,79,34,0
1,note_on,79,0,80
1,note_on,81,36,0
1,note_on,81,0,80
1,note_on,79,33,0
1,note_on,79,0,80
1,note_on,81,37,0
1,note_on,81,0,80
1,note_on,79,33,0
1,note_on,79,0,80
1,note_on,81,37,0
1,note_on,81,0,80
1,note_on,79,33,0
1,note_on,79,0,80
1,note_on,81,38,0
1,note_on,81,0,80
1,note_on,79,32,0
1,note_on,79,0,80
1,note_on,81,37,0
1,note_on,81,0,80
1,note_on,79,32,0
1,note_on,79,0,80
1,note_on,81,38,0
1,note_on,81,0,80
1,note_on,79,32,0
1,note_on,79,0,80
1,note_on,81,37,0
1,note_on,81,0,80
1,note_on,79,32,0
1,note_on,79,0,80
1,note_on,81,36,0
1,note_on,81,0,80
1,note_on,79,32,0
1,note_on,79,0,80
1,note_on,81,36,0
1,note_on,81,0,80
1,note_on,79,34,0
1,note_on,79,0,80
1,note_on,81,37,0
1,note_on,81,0,80
1,note_on,79,33,0
1,note_on,79,0,80
1,note_on,81,36,0
1,note_on,81,0,80
1,note_on,79,32,0
1,note_on,79,0,80
1,note_on,81,36,0
1,note_on,81,0,80
1,note_on,79,32,0
1,note_on,79,0,80
1,note_on,81,37,0
1,note_on,81,0,80
1,note_on,79,33,0
1,note_on,79,0,80
1,note_on,81,38,0
1,note_on,81,0,80
1,note_on,79,33,0
1,note_on,79,0,80
1,note_on,81,39,0
1,note_on,81,0,80
1,note_on,79,35,0
1,note_on,79,0,80
1,note_on,81,40,0
1,note_on,81,0,80
1,note_on,79,36,0
1,note_on,79,0,80
1,note_on,81,40,0
1,note_on,81,0,80
1,note_on,79,36,0
1,note_on,79,0,80
1,note_on,81,40,0
1,note_on,81,0,80
1,note_on,79,37,0
1,note_on,79,0,80
1,note_on,81,40,0
1,note_on,81,0,80
1,note_on,79,36,0
1,note_on,79,0,80
1,note_on,81,40,0
1,note_on,81,0,80
1,note_on,79,36,0
1,note_on,79,0,80
1,note_on,81,39,0
1,note_on,81,0,80
1,note_on,79,36,0
1,note_on,79,0,80
1,note_on,81,38,0
1,note_on,81,0,80
1,note_on,79,32,0
1,note_on,79,0,80
1,note_on,81,37,0
1,note_on,81,0,80
1,note_on,79,33,0
1,note_on,79,0,80
1,note_on,81,39,0
1,note_on,81,0,80
1,note_on,79,32,0
1,note_on,79,0,80
1,note_on,81,36,0
1,note_on,81,0,80
1,note_on,79,31,0
1,note_on,79,0,80
1,note_on,81,36,0
1,note_on,81,0,80
1,note_on,79,30,0
1,note_on,79,0,80
1,note_on,81,36,0
1,note_on,81,0,80
1,note_on,79,31,0
1,note_on,79,0,80
1,note_on,81,36,0
1,note_on,81,0,80
1,note_on,79,34,0
1,note_on,79,0,80
1,note_on,78,36,0
1,note_on,78,0,80
1,note_on,79,31,0
1,note_on,79,0,80
1,note_on,79,54,127680
1,note_on,79,0,80
1,note_on,81,35,0
1,note_on,81,0,80
1,note_on,79,44,0
1,note_on,79,0,80
1,note_on,81,38,0
1,note_on,81,0,80
1,note_on,79,44,0
1,note_on,79,0,80
1,note_on,81,37,0
1,note_on,81,0,80
1,note_on,79,41,0
1,note_on,79,0,80
1,note_on,81,36,0
1,note_on,81,0,80
1,note_on,79,41,0
1,note_on,79,0,80
1,note_on,81,37,0
1,note_on,81,0,80
1,note_on,79,41,0
1,note_on,79,0,80
1,note_on,81,35,0
1,note_on,81,0,80
1,note_on,79,41,0
1,note_on,79,0,80
1,note_on,81,37,0
1,note_on,81,0,80
1,note_on,79,41,0
1,note_on,79,0,80
1,note_on,81,36,0
1,note_on,81,0,80
1,note_on,79,41,0
1,note_on,79,0,80
1,note_on,81,36,0
1,note_on,81,0,80
1,note_on,79,41,0
1,note_on,79,0,80
1,note_on,81,37,0
1,note_on,81,0,80
1,note_on,79,41,0
1,note_on,79,0,80
1,note_on,81,37,0
1,note_on,81,0,80
1,note_on,79,41,0
1,note_on,79,0,80
1,note_on,81,36,0
1,note_on,81,0,80
1,note_on,79,41,0
1,note_on,79,0,80
1,note_on,81,36,0
1,note_on,81,0,80
1,note_on,79,41,0
1,note_on,79,0,80
1,note_on,81,37,0
1,note_on,81,0,80
1,note_on,79,41,0
1,note_on,79,0,80
1,note_on,81,37,0
1,note_on,81,0,80
1,note_on,79,41,0
1,note_on,79,0,80
1,note_on,81,36,0
1,note_on,81,0,80
1,note_on,79,41,0
1,note_on,79,0,80
1,note_on,81,37,0
1,note_on,81,0,80
1,note_on,79,41,0
1,note_on,79,0,80
1,note_on,81,36,0
1,note_on,81,0,80
1,note_on,79,40,0
1,note_on,79,0,80
1,note_on,81,36,0
1,note_on,81,0,80
1,note_on,79,39,0
1,note_on,79,0,80
1,note_on,81,35,0
1,note_on,81,0,80
1,note_on,79,39,0
1,note_on,79,0,80
1,note_on,81,35,0
1,note_on,81,0,80
1,note_on,79,39,0
1,note_on,79,0,80
1,note_on,81,35,0
1,note_on,81,0,80
1,note_on,79,39,0
1,note_on,79,0,80
1,note_on,81,35,0
1,note_on,81,0,80
1,note_on,79,39,0
1,note_on,79,0,80
1,note_on,81,35,0
1,note_on,81,0,80
1,note_on,79,36,0
1,note_on,79,0,80
1,note_on,81,32,0
1,note_on,81,0,80
1,note_on,79,35,0
1,note_on,79,0,80
1,note_on,81,31,0
1,note_on,81,0,80
1,note_on,79,35,0
1,note_on,79,0,80
1,note_on,81,31,0
1,note_on,81,0,80
1,note_on,79,35,0
1,note_on,79,0,80
1,note_on,81,31,0
1,note_on,81,0,80
1,note_on,79,35,0
1,note_on,79,0,80
1,note_on,81,31,0
1,note_on,81,0,80
1,note_on,79,35,0
1,note_on,79,0,80
1,note_on,81,31,0
1,note_on,81,0,80
1,note_on,79,36,0
1,note_on,79,0,80
1,note_on,81,32,0
1,note_on,81,0,80
1,note_on,79,35,0
1,note_on,79,0,80
1,note_on,81,31,0
1,note_on,81,0,80
1,note_on,79,35,0
1,note_on,79,0,80
1,note_on,81,31,0
1,note_on,81,0,80
1,note_on,79,35,0
1,note_on,79,0,80
1,note_on,81,31,0
1,note_on,81,0,80
1,note_on,79,35,0
1,note_on,79,0,80
1,note_on,81,31,0
1,note_on,81,0,80
1,note_on,79,35,0
1,note_on,79,0,80
1,note_on,81,31,0
1,note_on,81,0,80
1,note_on,79,36,0
1,note_on,79,0,80
1,note_on,81,32,0
1,note_on,81,0,80
1,note_on,79,35,0
1,note_on,79,0,80
1,note_on,81,32,0
1,note_on,81,0,80
1,note_on,79,36,0
1,note_on,79,0,80
1,note_on,81,32,0
1,note_on,81,0,80
1,note_on,79,37,0
1,note_on,79,0,80
1,note_on,81,33,0
1,note_on,81,0,80
1,note_on,79,38,0
1,note_on,79,0,80
1,note_on,81,34,0
1,note_on,81,0,80
1,note_on,79,39,0
1,note_on,79,0,80
1,note_on,81,35,0
1,note_on,81,0,80
1,note_on,79,41,0
1,note_on,79,0,80
1,note_on,81,37,0
1,note_on,81,0,80
1,note_on,79,40,0
1,note_on,79,0,80
1,note_on,81,36,0
1,note_on,81,0,80
1,note_on,79,42,0
1,note_on,79,0,80
1,note_on,81,37,0
1,note_on,81,0,80
1,note_on,79,42,0
1,note_on,79,0,80
1,note_on,81,38,0
1,note_on,81,0,80
1,note_on,79,43,0
1,note_on,79,0,80
1,note_on,81,39,0
1,note_on,81,0,80
1,note_on,79,44,0
1,note_on,79,0,80
1,note_on,81,39,0
1,note_on,81,0,80
1,note_on,79,46,0
1,note_on,79,0,80
1,note_on,81,31,0
1,note_on,81,0,80
1,note_on,79,33,0
1,note_on,79,0,80
1,note_on,81,29,0
1,note_on,81,0,80
1,note_on,79,32,0
1,note_on,79,0,80
1,note_on,81,28,0
1,note_on,81,0,80
1,note_on,79,31,0
1,note_on,79,0,80
1,note_on,81,27,0
1,note_on,81,0,80
1,note_on,79,31,0
1,note_on,79,0,80
1,note_on,81,27,0
1,note_on,81,0,80
1,note_on,79,31,0
1,note_on,79,0,80
1,note_on,81,27,0
1,note_on,81,0,80
1,note_on,79,32,0
1,note_on,79,0,80
1,note_on,81,28,0
1,note_on,81,0,80
1,note_on,79,31,0
1,note_on,79,0,80
1,note_on,81,27,0
1,note_on,81,0,80
1,note_on,79,31,0
1,note_on,79,0,80
1,note_on,81,27,0
1,note_on,81,0,80
1,note_on,79,31,0
1,note_on,79,0,80
1,note_on,81,27,0
1,note_on,81,0,80
1,note_on,79,31,0
1,note_on,79,0,80
1,note_on,81,27,0
1,note_on,81,0,80
1,note_on,79,31,0
1,note_on,79,0,80
1,note_on,81,27,0
1,note_on,81,0,80
1,note_on,79,37,0
1,note_on,79,0,80
1,note_on,81,28,0
1,note_on,81,0,80
1,note_on,79,34,0
1,note_on,79,0,80
1,note_on,81,28,0
1,note_on,81,0,80
1,note_on,79,34,0
1,note_on,79,0,80
1,note_on,81,28,0
1,note_on,81,0,80
1,note_on,81,27,80
1,note_on,81,0,80
1,note_on,79,31,0
1,note_on,79,0,80
1,note_on,81,27,0
1,note_on,81,0,80
1,note_on,79,31,0
1,note_on,79,0,80
1,note_on,81,27,0
1,note_on,81,0,80
1,note_on,79,32,0
1,note_on,79,0,80
1,note_on,81,28,0
1,note_on,81,0,80
1,note_on,79,31,0
1,note_on,79,0,80
1,note_on,81,27,0
1,note_on,81,0,80
1,note_on,79,31,0
1,note_on,79,0,80
1,note_on,81,27,0
1,note_on,81,0,80
1,note_on,79,31,0
1,note_on,79,0,80
1,note_on,81,27,0
1,note_on,81,0,80
1,note_on,79,31,0
1,note_on,79,0,80
1,note_on,81,27,0
1,note_on,81,0,80
1,note_on,79,31,0
1,note_on,79,0,80
1,note_on,81,27,0
1,note_on,81,0,80
1,note_on,79,36,0
1,note_on,79,0,80
1,note_on,81,31,0
1,note_on,81,0,80
1,note_on,79,33,0
1,note_on,79,0,80
1,note_on,81,29,0
1,note_on,81,0,80
1,note_on,79,32,0
1,note_on,79,0,80
1,note_on,81,28,0
1,note_on,81,0,80
1,note_on,79,31,0
1,note_on,79,0,80
1,note_on,81,27,0
1,note_on,81,0,80
1,note_on,79,31,0
1,note_on,79,0,80
1,note_on,81,27,0
1,note_on,81,0,80
1,note_on,79,31,0
1,note_on,79,0,80
1,note_on,81,27,0
1,note_on,81,0,80
1,note_on,79,32,0
1,note_on,79,0,80
1,note_on,81,28,0
1,note_on,81,0,80
1,note_on,79,31,0
1,note_on,79,0,80
1,note_on,81,27,0
1,note_on,81,0,80
1,note_on,79,31,0
1,note_on,79,0,80
1,note_on,81,27,0
1,note_on,81,0,80
1,note_on,79,31,0
1,note_on,79,0,80
1,note_on,81,27,0
1,note_on,81,0,80
1,note_on,79,31,0
1,note_on,79,0,80
1,note_on,81,27,0
1,note_on,81,0,80
1,note_on,79,31,0
1,note_on,79,0,80
1,note_on,81,27,0
1,note_on,81,0,80
1,note_on,79,32,0
1,note_on,79,0,80
1,note_on,81,28,0
1,note_on,81,0,80
1,note_on,79,31,0
1,note_on,79,0,80
1,note_on,81,27,0
1,note_on,81,0,80
1,note_on,79,31,0
1,note_on,79,0,80
1,note_on,81,27,0
1,note_on,81,0,80
1,note_on,79,31,0
1,note_on,79,0,80
1,note_on,81,27,0
1,note_on,81,0,80
1,note_on,79,31,0
1,note_on,79,0,80
1,note_on,81,27,0
1,note_on,81,0,80
1,note_on,79,31,0
1,note_on,79,0,80
1,note_on,81,27,0
1,note_on,81,0,80
1,note_on,79,32,0
1,note_on,79,0,80
1,note_on,81,28,0
1,note_on,81,0,80
1,note_on,79,32,0
1,note_on,79,0,80
1,note_on,81,28,0
1,note_on,81,0,80
1,note_on,79,34,0
1,note_on,79,0,80
1,note_on,81,30,0
1,note_on,81,0,80
1,note_on,79,35,0
1,note_on,79,0,80
1,note_on,81,31,0
1,note_on,81,0,80
1,note_on,79,36,0
1,note_on,79,0,80
1,note_on,81,32,0
1,note_on,81,0,80
1,note_on,79,38,0
1,note_on,79,0,80
1,note_on,81,34,0
1,note_on,81,0,80
1,note_on,80,46,0
1,note_on,80,0,80
1,note_on,79,31,0
1,note_on,79,0,80
1,note_on,80,33,0
1,note_on,80,0,80
1,note_on,79,29,0
1,note_on,79,0,80
1,note_on,80,32,0
1,note_on,80,0,80
1,note_on,79,28,0
1,note_on,79,0,80
1,note_on,80,31,0
1,note_on,80,0,80
1,note_on,79,27,0
1,note_on,79,0,80
1,note_on,80,31,0
1,note_on,80,0,80
1,note_on,79,27,0
1,note_on,79,0,80
1,note_on,80,31,0
1,note_on,80,0,80
1,note_on,79,27,0
1,note_on,79,0,80
1,note_on,80,32,0
1,note_on,80,0,80
1,note_on,79,28,0
1,note_on,79,0,80
1,note_on,80,31,0
1,note_on,80,0,80
1,note_on,79,27,0
1,note_on,79,0,80
1,note_on,80,31,0
1,note_on,80,0,80
1,note_on,79,27,0
1,note_on,79,0,80
1,note_on,80,31,0
1,note_on,80,0,80
1,note_on,79,27,0
1,note_on,79,0,80
1,note_on,80,31,0
1,note_on,80,0,80
1,note_on,79,27,0
1,note_on,79,0,80
1,note_on,80,31,0
1,note_on,80,0,80
1,note_on,79,27,0
1,note_on,79,0,80
1,note_on,80,37,0
1,note_on,80,0,80
1,note_on,79,28,0
1,note_on,79,0,80
1,note_on,80,34,0
1,note_on,80,0,80
1,note_on,79,28,0
1,note_on,79,0,80
1,note_on,80,34,0
1,note_on,80,0,80
1,note_on,79,28,0
1,note_on,79,0,80
1,note_on,80,31,0
1,note_on,80,0,80
1,note_on,79,27,0
1,note_on,79,0,80
1,note_on,80,31,0
1,note_on,80,0,80
1,note_on,79,27,0
1,note_on,79,0,80
1,note_on,80,31,0
1,note_on,80,0,80
1,note_on,79,27,0
1,note_on,79,0,80
1,note_on,80,32,0
1,note_on,80,0,80
1,note_on,79,28,0
1,note_on,79,0,80
1,note_on,80,31,0
1,note_on,80,0,80
1,note_on,79,27,0
1,note_on,79,0,80
1,note_on,80,31,0
1,note_on,80,0,80
1,note_on,79,27,0
1,note_on,79,0,80
1,note_on,80,31,0
1,note_on,80,0,80
1,note_on,79,27,0
1,note_on,79,0,80
1,note_on,80,31,0
1,note_on,80,0,80
1,note_on,79,27,0
1,note_on,79,0,80
1,note_on,77,31,0
1,note_on,77,0,80
1,note_on,79,27,0
1,note_on,79,0,80
1,note_on,80,36,0
1,note_on,80,0,80
1,note_on,82,31,0
1,note_on,82,0,80
1,note_on,80,33,0
1,note_on,80,0,80
1,note_on,82,29,0
1,note_on,82,0,80
1,note_on,80,32,0
1,note_on,80,0,80
1,note_on,82,28,0
1,note_on,82,0,80
1,note_on,75,31,0
1,note_on,75,0,80
1,note_on,77,27,0
1,note_on,77,0,80
1,note_on,75,31,0
1,note_on,75,0,80
1,note_on,77,27,0
1,note_on,77,0,80
1,note_on,75,31,0
1,note_on,75,0,80
1,note_on,77,27,0
1,note_on,77,0,80
1,note_on,75,32,0
1,note_on,75,0,80
1,note_on,77,28,0
1,note_on,77,0,80
1,note_on,75,31,0
1,note_on,75,0,80
1,note_on,77,27,0
1,note_on,77,0,80
1,note_on,75,31,0
1,note_on,75,0,80
1,note_on,77,27,0
1,note_on,77,0,80
1,note_on,75,31,0
1,note_on,75,0,80
1,note_on,77,27,0
1,note_on,77,0,80
1,note_on,75,31,0
1,note_on,75,0,80
1,note_on,77,27,0
1,note_on,77,0,80
1,note_on,75,31,0
1,note_on,75,0,80
1,note_on,77,27,0
1,note_on,77,0,80
1,note_on,75,32,0
1,note_on,75,0,80
1,note_on,77,28,0
1,note_on,77,0,80
1,note_on,75,31,0
1,note_on,75,0,80
1,note_on,77,27,0
1,note_on,77,0,80
1,note_on,75,31,0
1,note_on,75,0,80
1,note_on,77,27,0
1,note_on,77,0,80
1,note_on,75,31,0
1,note_on,75,0,80
1,note_on,77,27,0
1,note_on,77,0,80
1,note_on,75,31,0
1,note_on,75,0,80
1,note_on,77,27,0
1,note_on,77,0,80
1,note_on,75,31,0
1,note_on,75,0,80
1,note_on,77,27,0
1,note_on,77,0,80
1,note_on,75,32,0
1,note_on,75,0,80
1,note_on,77,28,0
1,note_on,77,0,80
1,note_on,75,32,0
1,note_on,75,0,80
1,note_on,77,28,0
1,note_on,77,0,80
1,note_on,75,34,0
1,note_on,75,0,80
1,note_on,77,30,0
1,note_on,77,0,80
1,note_on,76,35,0
1,note_on,76,0,80
1,note_on,77,31,0
1,note_on,77,0,80
1,note_on,76,36,0
1,note_on,76,0,80
1,note_on,77,32,0
1,note_on,77,0,60
1,note_on,76,38,0
1,note_on,76,0,60
1,note_on,77,34,0
1,note_on,76,34,55
1,note_on,77,0,5
1,note_on,76,0,55
1,note_on,77,36,5
1,note_on,77,0,80
1,note_on,79,31,0
1,note_on,79,0,80
1,note_on,77,33,0
1,note_on,77,0,80
1,note_on,79,29,0
1,note_on,79,0,80
1,note_on,77,32,0
1,note_on,77,0,80
1,note_on,79,28,0
1,note_on,79,0,80
1,note_on,73,31,0
1,note_on,73,0,80
1,note_on,72,27,0
1,note_on,72,0,80
1,note_on,73,31,0
1,note_on,73,0,80
1,note_on,72,27,0
1,note_on,72,0,80
1,note_on,73,31,0
1,note_on,73,0,80
1,note_on,72,27,0
1,note_on,72,0,80
1,note_on,73,32,0
1,note_on,73,0,80
1,note_on,72,28,0
1,note_on,72,0,80
1,note_on,73,31,0
1,note_on,73,0,80
1,note_on,72,27,0
1,note_on,72,0,80
1,note_on,73,31,0
1,note_on,73,0,80
1,note_on,72,27,0
1,note_on,72,0,80
1,note_on,73,31,0
1,note_on,73,0,80
1,note_on,72,27,0
1,note_on,72,0,80
1,note_on,73,31,0
1,note_on,73,0,80
1,note_on,72,27,0
1,note_on,72,0,80
1,note_on,73,31,0
1,note_on,73,0,80
1,note_on,72,27,0
1,note_on,72,0,80
1,note_on,73,32,0
1,note_on,73,0,80
1,note_on,72,28,0
1,note_on,72,0,80
1,note_on,73,31,0
1,note_on,73,0,80
1,note_on,72,27,0
1,note_on,72,0,80
1,note_on,73,31,0
1,note_on,73,0,80
1,note_on,72,27,0
1,note_on,72,0,80
1,note_on,73,31,0
1,note_on,73,0,80
1,note_on,72,27,0
1,note_on,72,0,80
1,note_on,73,31,0
1,note_on,73,0,80
1,note_on,72,27,0
1,note_on,72,0,80
1,note_on,73,31,0
1,note_on,73,0,80
1,note_on,72,27,0
1,note_on,72,0,80
1,note_on,73,32,0
1,note_on,73,0,80
1,note_on,72,28,0
1,note_on,72,0,80
1,note_on,73,32,0
1,note_on,73,0,80
1,note_on,72,28,0
1,note_on,72,0,80
1,note_on,73,34,0
1,note_on,73,0,80
1,note_on,72,30,0
1,note_on,72,0,80
1,note_on,73,35,0
1,note_on,73,0,80
1,note_on,72,29,0
1,note_on,72,0,80
1,note_on,73,34,0
1,note_on,73,0,80
1,note_on,72,29,0
1,note_on,72,0,80
1,note_on,73,34,0
1,note_on,73,0,80
1,note_on,72,28,0
1,note_on,72,0,80
1,note_on,73,32,0
1,note_on,73,0,80
1,note_on,72,28,0
1,note_on,72,0,80
1,note_on,73,31,0
1,note_on,73,0,80
1,note_on,72,27,0
1,note_on,72,0,80
1,note_on,73,31,0
1,note_on,73,0,80
1,note_on,72,27,0
1,note_on,72,0,80
1,note_on,73,31,0
1,note_on,73,0,80
1,note_on,72,27,0
1,note_on,72,0,80
1,note_on,73,31,0
1,note_on,73,0,80
1,note_on,72,27,0
1,note_on,72,0,80
1,note_on,73,31,0
1,note_on,73,0,80
1,note_on,72,27,0
1,note_on,72,0,80
1,note_on,73,32,0
1,note_on,73,0,80
1,note_on,72,28,0
1,note_on,72,0,80
1,note_on,73,32,0
1,note_on,73,0,80
1,note_on,72,28,0
1,note_on,72,0,80
1,note_on,73,34,0
1,note_on,73,0,80
1,note_on,72,30,0
1,note_on,72,0,80
1,note_on,73,34,0
1,note_on,73,0,80
1,note_on,72,29,0
1,note_on,72,0,80
1,note_on,73,34,0
1,note_on,73,0,80
1,note_on,72,28,0
1,note_on,72,0,80
1,note_on,73,34,0
1,note_on,73,0,80
1,note_on,72,29,0
1,note_on,72,0,80
1,note_on,74,32,0
1,note_on,74,0,80
1,note_on,72,28,0
1,note_on,72,0,80
1,note_on,74,32,0
1,note_on,74,0,80
1,note_on,72,28,0
1,note_on,72,0,80
1,note_on,74,34,0
1,note_on,74,0,80
1,note_on,72,30,0
1,note_on,72,0,80
1,note_on,74,33,0
1,note_on,74,0,80
1,note_on,72,28,0
1,note_on,72,0,80
1,note_on,74,35,0
1,note_on,74,0,80
1,note_on,72,28,0
1,note_on,72,0,80
1,note_on,74,34,0
1,note_on,74,0,80
1,note_on,72,30,0
1,note_on,72,0,80
1,note_on,74,33,0
1,note_on,74,0,80
1,note_on,72,29,0
1,note_on,72,0,80
1,note_on,74,33,0
1,note_on,74,0,80
1,note_on,72,29,0
1,note_on,72,0,80
1,note_on,74,36,0
1,note_on,74,0,80
1,note_on,72,32,0
1,note_on,72,0,80
1,note_on,74,37,0
1,note_on,74,0,80
1,note_on,72,33,0
1,note_on,72,0,80
1,note_on,74,36,0
1,note_on,74,0,80
1,note_on,72,31,0
1,note_on,72,0,80
1,note_on,74,37,0
1,note_on,74,0,80
1,note_on,72,31,0
1,note_on,72,0,80
1,note_on,74,35,0
1,note_on,74,0,80
1,note_on,72,30,0
1,note_on,72,0,80
1,note_on,74,35,0
1,note_on,74,0,80
1,note_on,72,31,0
1,note_on,72,0,80
1,note_on,74,37,0
1,note_on,74,0,80
1,note_on,72,33,0
1,note_on,72,0,80
1,note_on,74,39,0
1,note_on,74,0,80
1,note_on,72,34,0
1,note_on,72,0,80
1,note_on,74,39,0
1,note_on,74,0,80
1,note_on,72,36,0
1,note_on,72,0,80
1,note_on,74,39,0
1,note_on,74,0,80
1,note_on,72,35,0
1,note_on,72,0,80
1,note_on,74,36,0
1,note_on,74,0,80
1,note_on,72,32,0
1,note_on,72,0,80
1,note_on,74,36,0
1,note_on,74,0,80
1,note_on,72,32,0
1,note_on,72,0,80
1,note_on,74,39,0
1,note_on,74,0,80
1,note_on,72,35,0
1,note_on,72,0,80
1,note_on,74,40,0
1,note_on,74,0,80
1,note_on,72,36,0
1,note_on,72,0,80
1,note_on,74,40,0
1,note_on,74,0,80
1,note_on,72,35,0
1,note_on,72,0,60
1,note_on,74,40,0
1,note_on,74,0,60
1,note_on,72,34,0
1,note_on,72,0,60
1,note_on,74,34,0
1,note_on,74,0,60
1,note_on,72,38,0
1,note_on,72,0,80
1,note_on,74,33,0
1,note_on,74,0,80
1,note_on,76,39,0
1,note_on,76,0,80
1,note_on,74,34,0
1,note_on,74,0,80
1,note_on,76,42,0
1,note_on,76,0,80
1,note_on,74,37,0
1,note_on,74,0,80
1,note_on,76,44,0
1,note_on,76,0,80
1,note_on,74,39,0
1,note_on,74,0,80
1,note_on,76,43,0
1,note_on,76,0,80
1,note_on,74,37,0
1,note_on,74,0,80
1,note_on,76,45,0
1,note_on,76,0,80
1,note_on,74,40,0
1,note_on,74,0,80
1,note_on,76,42,0
1,note_on,76,0,80
1,note_on,74,37,0
1,note_on,74,0,80
1,note_on,76,42,0
1,note_on,76,0,80
1,note_on,74,37,0
1,note_on,74,0,80
1,note_on,76,46,0
1,note_on,76,0,80
1,note_on,74,41,0
1,note_on,74,0,80
1,note_on,76,48,0
1,note_on,76,0,80
1,note_on,74,43,0
1,note_on,74,0,80
1,note_on,76,49,0
1,note_on,76,0,80
1,note_on,74,40,0
1,note_on,74,0,80
1,note_on,76,49,0
1,note_on,76,0,80
1,note_on,74,42,0
1,note_on,74,0,80
1,note_on,76,46,0
1,note_on,76,0,80
1,note_on,74,40,0
1,note_on,74,0,80
1,note_on,76,47,0
1,note_on,76,0,80
1,note_on,74,41,0
1,note_on,74,0,80
1,note_on,76,49,0
1,note_on,76,0,80
1,note_on,74,45,0
1,note_on,74,0,80
1,note_on,76,52,0
1,note_on,76,0,80
1,note_on,74,47,0
1,note_on,74,0,80
1,note_on,76,53,0
1,note_on,76,0,80
1,note_on,74,43,0
1,note_on,74,0,80
1,note_on,76,52,0
1,note_on,76,0,80
1,note_on,74,53,0
1,note_on,74,0,80
1,note_on,76,50,0
1,note_on,76,0,80
1,note_on,74,44,0
1,note_on,74,0,80
1,note_on,76,50,0
1,note_on,76,0,80
1,note_on,74,44,0
1,note_on,74,0,80
1,note_on,76,54,0
1,note_on,76,0,80
1,note_on,74,48,0
1,note_on,74,0,80
1,note_on,76,58,0
1,note_on,76,0,80
1,note_on,74,47,0
1,note_on,74,0,80
1,note_on,76,56,0
1,note_on,76,0,80
1,note_on,74,48,0
1,note_on,74,0,80
1,note_on,76,58,0
1,note_on,76,0,80
1,note_on,74,48,0
1,note_on,74,0,80
2,note_on,52,28,120
2,note_on,52,0,120
2,note_on,55,30,0
2,note_on,55,0,120
2,note_on,60,32,0
2,note_on,60,0,120
2,note_on,64,34,0
2,note_on,64,0,120
2,note_on,52,31,0
2,note_on,52,0,120
2,note_on,55,31,0
2,note_on,55,0,120
2,note_on,60,31,0
2,note_on,60,0,120
2,note_on,64,35,0
2,note_on,64,0,120
2,note_on,52,30,0
2,note_on,52,0,120
2,note_on,55,31,0
2,note_on,55,0,120
2,note_on,60,33,0
2,note_on,60,0,120
2,note_on,64,36,0
2,note_on,64,0,120
2,note_on,52,33,0
2,note_on,52,0,120
2,note_on,55,33,0
2,note_on,55,0,120
2,note_on,60,33,0
2,note_on,60,0,120
2,note_on,53,28,120
2,note_on,53,0,120
2,note_on,55,31,0
2,note_on,55,0,120
2,note_on,59,33,0
2,note_on,59,0,120
2,note_on,62,36,0
2,note_on,62,0,120
2,note_on,53,33,0
2,note_on,53,0,120
2,note_on,55,33,0
2,note_on,55,0,120
2,note_on,59,34,0
2,note_on,59,0,120
2,note_on,52,28,120
2,note_on,52,0,120
2,note_on,55,30,0
2,note_on,55,0,120
2,note_on,60,32,0
2,note_on,60,0,120
2,note_on,64,34,0
2,note_on,64,0,120
2,note_on,52,32,0
2,note_on,52,0,120
2,note_on,55,32,0
2,note_on,55,0,120
2,note_on,60,33,0
2,note_on,60,0,120
2,note_on,52,28,120
2,note_on,52,0,120
2,note_on,55,30,0
2,note_on,55,0,120
2,note_on,60,32,0
2,note_on,60,0,120
2,note_on,64,34,0
2,note_on,64,0,120
2,note_on,52,31,0
2,note_on,52,0,120
2,note_on,55,31,0
2,note_on,55,0,120
2,note_on,60,31,0
2,note_on,60,0,120
2,note_on,64,35,0
2,note_on,64,0,120
2,note_on,52,30,0
2,note_on,52,0,120
2,note_on,55,31,0
2,note_on,55,0,120
2,note_on,60,33,0
2,note_on,60,0,120
2,note_on,64,36,0
2,note_on,64,0,120
2,note_on,52,33,0
2,note_on,52,0,120
2,note_on,55,33,0
2,note_on,55,0,120
2,note_on,60,33,0
2,note_on,60,0,120
2,note_on,53,28,120
2,note_on,53,0,120
2,note_on,55,31,0
2,note_on,55,0,120
2,note_on,59,33,0
2,note_on,59,0,120
2,note_on,62,36,0
2,note_on,62,0,120
2,note_on,53,33,0
2,note_on,53,0,120
2,note_on,55,33,0
2,note_on,55,0,120
2,note_on,59,34,0
2,note_on,59,0,120
2,note_on,52,30,240
2,note_on,52,0,120
2,note_on,55,32,0
2,note_on,55,0,120
2,note_on,60,34,0
2,note_on,60,0,120
2,note_on,64,32,0
2,note_on,64,0,120
2,note_on,62,32,0
2,note_on,62,0,120
2,note_on,60,33,0
2,note_on,60,0,120
2,note_on,59,35,0
2,note_on,59,0,120
2,note_on,55,28,0
2,note_on,55,0,120
2,note_on,59,30,0
2,note_on,59,0,120
2,note_on,62,32,0
2,note_on,62,0,120
2,note_on,67,34,0
2,note_on,67,0,120
2,note_on,55,31,0
2,note_on,55,0,120
2,note_on,59,31,0
2,note_on,59,0,120
2,note_on,62,31,0
2,note_on,62,0,120
2,note_on,67,35,0
2,note_on,67,0,120
2,note_on,55,30,0
2,note_on,55,0,120
2,note_on,59,31,0
2,note_on,59,0,120
2,note_on,62,33,0
2,note_on,62,0,120
2,note_on,67,36,0
2,note_on,67,0,120
2,note_on,55,33,0
2,note_on,55,0,120
2,note_on,59,33,0
2,note_on,59,0,120
2,note_on,67,33,0
2,note_on,67,0,120
2,note_on,55,28,120
2,note_on,55,0,120
2,note_on,60,31,0
2,note_on,60,0,120
2,note_on,67,33,0
2,note_on,67,0,120
2,note_on,55,28,120
2,note_on,55,0,120
2,note_on,64,31,0
2,note_on,64,0,120
2,note_on,67,33,0
2,note_on,67,0,120
2,note_on,55,28,120
2,note_on,55,0,120
2,note_on,62,30,0
2,note_on,62,0,120
2,note_on,67,32,0
2,note_on,67,0,120
2,note_on,55,28,120
2,note_on,55,0,120
2,note_on,59,30,0
2,note_on,59,0,120
2,note_on,67,32,0
2,note_on,67,0,120
2,note_on,55,28,120
2,note_on,55,0,120
2,note_on,59,30,0
2,note_on,59,0,120
2,note_on,62,32,0
2,note_on,62,0,120
2,note_on,67,34,0
2,note_on,67,0,120
2,note_on,55,31,0
2,note_on,55,0,120
2,note_on,59,31,0
2,note_on,59,0,120
2,note_on,62,31,0
2,note_on,62,0,120
2,note_on,67,35,0
2,note_on,67,0,120
2,note_on,55,30,0
2,note_on,55,0,120
2,note_on,59,31,0
2,note_on,59,0,120
2,note_on,62,33,0
2,note_on,62,0,120
2,note_on,67,36,0
2,note_on,67,0,120
2,note_on,55,33,0
2,note_on,55,0,120
2,note_on,59,33,0
2,note_on,59,0,120
2,note_on,67,33,0
2,note_on,67,0,120
2,note_on,55,28,120
2,note_on,55,0,120
2,note_on,60,31,0
2,note_on,60,0,120
2,note_on,67,33,0
2,note_on,67,0,120
2,note_on,55,28,120
2,note_on,55,0,120
2,note_on,63,31,0
2,note_on,63,0,120
2,note_on,67,33,0
2,note_on,67,0,120
2,note_on,55,28,120
2,note_on,55,0,120
2,note_on,62,30,0
2,note_on,62,0,120
2,note_on,67,32,0
2,note_on,67,0,120
2,note_on,55,28,120
2,note_on,55,0,120
2,note_on,59,30,0
2,note_on,59,0,120
2,note_on,67,32,0
2,note_on,67,0,120
2,note_on,55,28,120
2,note_on,55,0,120
2,note_on,60,31,0
2,note_on,60,0,120
2,note_on,67,33,0
2,note_on,67,0,120
2,note_on,55,28,120
2,note_on,55,0,120
2,note_on,64,31,0
2,note_on,64,0,120
2,note_on,67,33,0
2,note_on,67,0,120
2,note_on,55,28,120
2,note_on,55,0,120
2,note_on,62,30,0
2,note_on,62,0,120
2,note_on,67,32,0
2,note_on,67,0,120
2,note_on,55,28,120
2,note_on,55,0,120
2,note_on,59,30,0
2,note_on,59,0,120
2,note_on,67,32,0
2,note_on,67,0,120
2,note_on,55,28,120
2,note_on,55,0,120
2,note_on,60,31,0
2,note_on,60,0,120
2,note_on,67,33,0
2,note_on,67,0,120
2,note_on,55,28,120
2,note_on,55,0,120
2,note_on,60,31,0
2,note_on,60,0,120
2,note_on,63,33,0
2,note_on,63,0,120
2,note_on,55,28,120
2,note_on,55,0,120
2,note_on,59,30,0
2,note_on,59,0,120
2,note_on,62,32,0
2,note_on,62,0,120
2,note_on,55,28,120
2,note_on,55,0,120
2,note_on,60,30,0
2,note_on,60,0,120
2,note_on,63,32,0
2,note_on,63,0,120
2,note_on,55,28,120
2,note_on,55,0,120
2,note_on,59,30,0
2,note_on,59,0,120
2,note_on,62,32,0
2,note_on,62,0,120
2,note_on,55,28,120
2,note_on,55,0,120
2,note_on,60,30,0
2,note_on,60,0,120
2,note_on,63,32,0
2,note_on,63,0,120
2,note_on,55,28,120
2,note_on,55,0,120
2,note_on,59,30,0
2,note_on,59,0,120
2,note_on,62,32,0
2,note_on,62,0,120
2,note_on,55,28,120
2,note_on,55,0,120
2,note_on,57,30,0
2,note_on,57,0,120
2,note_on,60,32,0
2,note_on,60,0,120
2,note_on,55,36,120
2,note_on,55,0,120
2,note_on,59,38,0
2,note_on,59,0,120
2,note_on,62,35,0
2,note_on,62,0,120
2,note_on,67,43,0
2,note_on,67,0,120
2,note_on,71,39,0
2,note_on,71,0,120
2,note_on,69,41,0
2,note_on,69,0,120
2,note_on,66,38,0
2,note_on,66,0,120
2,note_on,67,43,0
2,note_on,67,0,120
2,note_on,59,38,0
2,note_on,59,0,120
2,note_on,62,41,0
2,note_on,62,0,120
2,note_on,67,38,0
2,note_on,67,0,120
2,note_on,71,46,0
2,note_on,71,0,120
2,note_on,74,41,0
2,note_on,74,0,120
2,note_on,72,41,0
2,note_on,72,0,120
2,note_on,69,37,0
2,note_on,69,0,120
2,note_on,71,47,0
2,note_on,71,0,120
2,note_on,67,42,0
2,note_on,67,0,120
2,note_on,71,47,0
2,note_on,71,0,120
2,note_on,74,43,0
2,note_on,74,0,120
2,note_on,79,51,0
2,note_on,79,0,120
2,note_on,83,46,0
2,note_on,83,0,120
2,note_on,81,48,0
2,note_on,81,0,120
2,note_on,78,43,0
2,note_on,78,0,120
2,note_on,79,52,0
2,note_on,79,0,120
2,note_on,83,52,0
2,note_on,83,0,120
2,note_on,81,53,0
2,note_on,81,0,120
2,note_on,84,54,0
2,note_on,84,0,120
2,note_on,83,55,0
2,note_on,83,0,120
2,note_on,86,56,0
2,note_on,86,0,120
2,note_on,85,56,0
2,note_on,85,0,120
2,note_on,88,57,0
2,note_on,88,0,120
2,note_on,86,58,0
2,note_on,86,0,120
2,note_on,89,59,0
2,note_on,89,0,120
2,note_on,88,60,0
2,note_on,88,0,120
2,note_on,91,56,0
2,note_on,91,0,120
2,note_on,89,61,0
2,note_on,89,0,120
2,note_on,93,62,0
2,note_on,93,0,120
2,note_on,89,63,0
2,note_on,89,0,120
2,note_on,88,59,0
2,note_on,88,0,120
2,note_on,86,65,0
2,note_on,86,0,120
2,note_on,89,66,0
2,note_on,89,0,120
2,note_on,88,66,0
2,note_on,88,0,120
2,note_on,91,64,0
2,note_on,91,0,120
2,note_on,89,68,0
2,note_on,89,0,120
2,note_on,93,69,0
2,note_on,93,0,120
2,note_on,89,70,0
2,note_on,89,0,120
2,note_on,88,66,0
2,note_on,88,0,120
2,note_on,86,69,0
2,note_on,86,0,120
2,note_on,89,65,0
2,note_on,89,0,120
2,note_on,88,67,0
2,note_on,88,0,120
2,note_on,84,60,0
2,note_on,84,0,120
2,note_on,83,64,0
2,note_on,83,0,120
2,note_on,86,59,0
2,note_on,86,0,120
2,note_on,84,62,0
2,note_on,84,0,120
2,note_on,81,55,0
2,note_on,81,0,120
2,note_on,79,59,0
2,note_on,79,0,120
2,note_on,83,54,0
2,note_on,83,0,120
2,note_on,81,56,0
2,note_on,81,0,120
2,note_on,77,51,0
2,note_on,77,0,120
2,note_on,76,54,0
2,note_on,76,0,120
2,note_on,79,46,0
2,note_on,79,0,120
2,note_on,77,49,0
2,note_on,77,0,120
2,note_on,74,42,0
2,note_on,74,0,120
2,note_on,72,49,0
2,note_on,72,0,120
2,note_on,91,50,360
2,note_on,79,50,0
2,note_on,79,0,240
2,note_on,91,0,0
2,note_on,91,54,240
2,note_on,79,54,0
2,note_on,79,0,720
2,note_on,91,0,0
2,note_on,88,47,0
2,note_on,76,47,0
2,note_on,76,0,240
2,note_on,88,0,0
2,note_on,86,50,0
2,note_on,74,50,0
2,note_on,74,0,480
2,note_on,86,0,0
2,note_on,79,41,0
2,note_on,67,41,0
2,note_on,67,0,480
2,note_on,79,0,0
2,note_on,84,50,0
2,note_on,72,50,0
2,note_on,72,0,480
2,note_on,84,0,0
2,note_on,88,47,0
2,note_on,76,47,0
2,note_on,76,0,240
2,note_on,88,0,0
2,note_on,91,50,720
2,note_on,79,50,0
2,note_on,79,0,240
2,note_on,91,0,0
2,note_on,91,54,240
2,note_on,79,54,0
2,note_on,79,0,720
2,note_on,91,0,0
2,note_on,88,47,0
2,note_on,76,47,0
2,note_on,76,0,240
2,note_on,88,0,0
2,note_on,86,50,0
2,note_on,74,50,0
2,note_on,74,0,480
2,note_on,86,0,0
2,note_on,79,41,0
2,note_on,67,41,0
2,note_on,67,0,480
2,note_on,79,0,0
2,note_on,84,50,0
2,note_on,72,50,0
2,note_on,72,0,240
2,note_on,84,0,0
2,note_on,89,50,1200
2,note_on,77,50,0
2,note_on,77,0,240
2,note_on,89,0,0
2,note_on,89,54,240
2,note_on,77,54,0
2,note_on,77,0,720
2,note_on,89,0,0
2,note_on,86,47,0
2,note_on,74,47,0
2,note_on,74,0,240
2,note_on,86,0,0
2,note_on,88,50,0
2,note_on,76,50,0
2,note_on,76,0,480
2,note_on,88,0,0
2,note_on,84,41,0
2,note_on,72,41,0
2,note_on,72,0,480
2,note_on,84,0,0
2,note_on,83,50,0
2,note_on,71,50,0
2,note_on,71,0,480
2,note_on,83,0,0
2,note_on,86,47,0
2,note_on,74,47,0
2,note_on,74,0,240
2,note_on,86,0,0
2,note_on,89,50,720
2,note_on,77,50,0
2,note_on,77,0,240
2,note_on,89,0,0
2,note_on,89,54,240
2,note_on,77,54,0
2,note_on,77,0,720
2,note_on,89,0,0
2,note_on,86,47,0
2,note_on,74,47,0
2,note_on,74,0,240
2,note_on,86,0,0
2,note_on,87,50,0
2,note_on,75,50,0
2,note_on,75,0,480
2,note_on,87,0,0
2,note_on,84,41,0
2,note_on,72,41,0
2,note_on,72,0,480
2,note_on,84,0,0
2,note_on,83,50,0
2,note_on,71,50,0
2,note_on,71,0,480
2,note_on,83,0,0
2,note_on,86,47,0
2,note_on,74,47,0
2,note_on,74,0,480
2,note_on,86,0,0
2,note_on,88,50,0
2,note_on,76,50,0
2,note_on,76,0,480
2,note_on,88,0,0
2,note_on,84,42,0
2,note_on,72,42,0
2,note_on,72,0,480
2,note_on,84,0,0
2,note_on,83,53,0
2,note_on,71,53,0
2,note_on,71,0,480
2,note_on,83,0,0
2,note_on,86,52,0
2,note_on,74,52,0
2,note_on,74,0,480
2,note_on,86,0,0
2,note_on,87,50,0
2,note_on,75,50,0
2,note_on,75,0,480
2,note_on,87,0,0
2,note_on,84,41,0
2,note_on,72,41,0
2,note_on,72,0,480
2,note_on,84,0,0
2,note_on,79,50,0
2,note_on,79,0,480
2,note_on,79,47,0
2,note_on,79,0,480
2,note_on,81,33,0
2,note_on,81,0,80
2,note_on,79,33,0
2,note_on,79,0,80
2,note_on,81,33,0
2,note_on,81,0,80
2,note_on,79,33,0
2,note_on,79,0,80
2,note_on,81,34,0
2,note_on,81,0,80
2,note_on,79,34,0
2,note_on,79,0,80
2,note_on,81,35,0
2,note_on,81,0,80
2,note_on,79,35,0
2,note_on,79,0,80
2,note_on,81,35,0
2,note_on,81,0,80
2,note_on,79,35,0
2,note_on,79,0,80
2,note_on,81,36,0
2,note_on,81,0,80
2,note_on,79,36,0
2,note_on,79,0,80
2,note_on,81,37,0
2,note_on,81,0,80
2,note_on,79,37,0
2,note_on,79,0,80
2,note_on,81,37,0
2,note_on,81,0,80
2,note_on,79,39,0
2,note_on,79,0,80
2,note_on,81,39,0
2,note_on,81,0,80
2,note_on,79,39,0
2,note_on,79,0,80
2,note_on,81,39,0
2,note_on,81,0,80
2,note_on,79,39,0
2,note_on,79,0,80
2,note_on,81,41,0
2,note_on,81,0,80
2,note_on,79,41,0
2,note_on,79,0,80
2,note_on,81,41,0
2,note_on,81,0,80
2,note_on,79,41,0
2,note_on,79,0,80
2,note_on,81,42,0
2,note_on,81,0,80
2,note_on,79,42,0
2,note_on,79,0,80
2,note_on,81,42,0
2,note_on,81,0,80
2,note_on,79,42,0
2,note_on,79,0,80
2,note_on,81,42,0
2,note_on,81,0,80
2,note_on,79,44,0
2,note_on,79,0,80
2,note_on,81,44,0
2,note_on,81,0,80
2,note_on,79,44,0
2,note_on,79,0,80
2,note_on,81,45,0
2,note_on,81,0,80
2,note_on,79,45,0
2,note_on,79,0,80
2,note_on,81,45,0
2,note_on,81,0,80
2,note_on,79,46,0
2,note_on,79,0,80
2,note_on,81,46,0
2,note_on,81,0,80
2,note_on,79,47,0
2,note_on,79,0,80
2,note_on,81,47,0
2,note_on,81,0,80
2,note_on,79,48,0
2,note_on,79,0,80
2,note_on,81,49,0
2,note_on,81,0,80
2,note_on,79,49,0
2,note_on,79,0,80
2,note_on,81,49,0
2,note_on,81,0,80
2,note_on,79,49,0
2,note_on,79,0,80
2,note_on,81,50,0
2,note_on,81,0,80
2,note_on,79,50,0
2,note_on,79,0,80
2,note_on,81,51,0
2,note_on,81,0,80
2,note_on,79,51,0
2,note_on,79,0,80
2,note_on,91,89,480
2,note_on,91,0,240
2,note_on,91,90,240
2,note_on,91,0,720
2,note_on,88,85,0
2,note_on,88,0,240
2,note_on,86,90,0
2,note_on,86,0,480
2,note_on,79,84,0
2,note_on,79,0,70
2,note_on,84,87,410
2,note_on,84,0,480
2,note_on,88,84,0
2,note_on,88,0,240
2,note_on,91,90,720
2,note_on,91,0,240
2,note_on,91,92,240
2,note_on,91,0,720
2,note_on,88,84,0
2,note_on,88,0,240
2,note_on,86,90,0
2,note_on,86,0,480
2,note_on,79,82,0
2,note_on,79,0,70
2,note_on,84,86,410
2,note_on,84,0,240
2,note_on,60,68,240
2,note_on,60,0,80
2,note_on,64,62,0
2,note_on,64,0,80
2,note_on,60,62,0
2,note_on,60,0,80
2,note_on,55,62,0
2,note_on,55,0,80
2,note_on,52,62,0
2,note_on,52,0,80
2,note_on,55,62,0
2,note_on,55,0,80
2,note_on,60,68,0
2,note_on,60,0,80
2,note_on,65,62,0
2,note_on,65,0,80
2,note_on,60,62,0
2,note_on,60,0,80
2,note_on,57,62,0
2,note_on,57,0,80
2,note_on,53,62,0
2,note_on,53,0,80
2,note_on,57,62,0
2,note_on,57,0,80
2,note_on,60,68,0
2,note_on,60,0,80
2,note_on,64,61,0
2,note_on,64,0,80
2,note_on,60,61,0
2,note_on,60,0,80
2,note_on,55,61,0
2,note_on,55,0,80
2,note_on,52,61,0
2,note_on,52,0,80
2,note_on,55,61,0
2,note_on,55,0,80
2,note_on,60,63,0
2,note_on,60,0,80
2,note_on,62,59,0
2,note_on,62,0,80
2,note_on,60,59,0
2,note_on,60,0,80
2,note_on,53,59,0
2,note_on,53,0,80
2,note_on,50,59,0
2,note_on,50,0,80
2,note_on,53,59,0
2,note_on,53,0,80
2,note_on,60,68,0
2,note_on,60,0,80
2,note_on,63,61,0
2,note_on,63,0,80
2,note_on,60,61,0
2,note_on,60,0,80
2,note_on,54,61,0
2,note_on,54,0,80
2,note_on,51,61,0
2,note_on,51,0,80
2,note_on,54,61,0
2,note_on,54,0,80
2,note_on,60,68,0
2,note_on,60,0,80
2,note_on,64,62,0
2,note_on,64,0,80
2,note_on,60,62,0
2,note_on,60,0,80
2,note_on,55,62,0
2,note_on,55,0,80
2,note_on,52,62,0
2,note_on,52,0,80
2,note_on,55,62,0
2,note_on,55,0,80
2,note_on,59,68,0
2,note_on,59,0,80
2,note_on,62,61,0
2,note_on,62,0,80
2,note_on,59,61,0
2,note_on,59,0,80
2,note_on,53,61,0
2,note_on,53,0,80
2,note_on,50,61,0
2,note_on,50,0,80
2,note_on,53,61,0
2,note_on,53,0,80
2,note_on,55,68,0
2,note_on,55,0,80
2,note_on,60,62,0
2,note_on,60,0,80
2,note_on,55,62,0
2,note_on,55,0,80
2,note_on,52,62,0
2,note_on,52,0,80
2,note_on,48,62,0
2,note_on,48,0,80
2,note_on,52,62,0
2,note_on,52,0,80
2,note_on,64,68,0
2,note_on,64,0,80
2,note_on,67,62,0
2,note_on,67,0,80
2,note_on,64,62,0
2,note_on,64,0,80
2,note_on,60,62,0
2,note_on,60,0,80
2,note_on,55,62,0
2,note_on,55,0,80
2,note_on,60,62,0
2,note_on,60,0,80
2,note_on,65,68,0
2,note_on,65,0,80
2,note_on,69,62,0
2,note_on,69,0,80
2,note_on,65,62,0
2,note_on,65,0,80
2,note_on,60,62,0
2,note_on,60,0,80
2,note_on,57,62,0
2,note_on,57,0,80
2,note_on,60,62,0
2,note_on,60,0,80
2,note_on,64,68,0
2,note_on,64,0,80
2,note_on,67,61,0
2,note_on,67,0,80
2,note_on,64,61,0
2,note_on,64,0,80
2,note_on,60,61,0
2,note_on,60,0,80
2,note_on,55,61,0
2,note_on,55,0,80
2,note_on,60,61,0
2,note_on,60,0,80
2,note_on,62,63,0
2,note_on,62,0,80
2,note_on,65,59,0
2,note_on,65,0,80
2,note_on,62,59,0
2,note_on,62,0,80
2,note_on,60,59,0
2,note_on,60,0,80
2,note_on,53,59,0
2,note_on,53,0,80
2,note_on,60,59,0
2,note_on,60,0,80
2,note_on,63,68,0
2,note_on,63,0,80
2,note_on,66,61,0
2,note_on,66,0,80
2,note_on,63,61,0
2,note_on,63,0,80
2,note_on,60,61,0
2,note_on,60,0,80
2,note_on,54,61,0
2,note_on,54,0,80
2,note_on,60,61,0
2,note_on,60,0,80
2,note_on,64,68,0
2,note_on,64,0,80
2,note_on,67,62,0
2,note_on,67,0,80
2,note_on,64,62,0
2,note_on,64,0,80
2,note_on,60,62,0
2,note_on,60,0,80
2,note_on,55,62,0
2,note_on,55,0,80
2,note_on,60,62,0
2,note_on,60,0,80
2,note_on,62,68,0
2,note_on,62,0,80
2,note_on,65,61,0
2,note_on,65,0,80
2,note_on,62,61,0
2,note_on,62,0,80
2,note_on,59,61,0
2,note_on,59,0,80
2,note_on,53,61,0
2,note_on,53,0,80
2,note_on,59,61,0
2,note_on,59,0,80
2,note_on,60,68,0
2,note_on,60,0,80
2,note_on,64,62,0
2,note_on,64,0,80
2,note_on,60,62,0
2,note_on,60,0,80
2,note_on,52,62,0
2,note_on,52,0,80
2,note_on,64,62,0
2,note_on,64,0,80
2,note_on,52,62,0
2,note_on,52,0,80
2,note_on,52,70,80
2,note_on,52,0,80
2,note_on,64,70,0
2,note_on,64,0,80
2,note_on,52,71,80
2,note_on,52,0,80
2,note_on,64,72,0
2,note_on,64,0,80
2,note_on,57,73,80
2,note_on,57,0,80
2,note_on,69,74,0
2,note_on,69,0,80
2,note_on,59,75,80
2,note_on,59,0,80
2,note_on,71,77,0
2,note_on,71,0,80
2,note_on,60,78,80
2,note_on,60,0,80
2,note_on,72,79,0
2,note_on,72,0,80
2,note_on,62,80,80
2,note_on,62,0,80
2,note_on,74,81,0
2,note_on,74,0,80
2,note_on,76,85,0
2,note_on,76,0,80
2,note_on,64,85,0
2,note_on,64,0,80
2,note_on,76,84,0
2,note_on,76,0,80
2,note_on,64,84,0
2,note_on,64,0,80
2,note_on,76,84,0
2,note_on,76,0,80
2,note_on,64,82,0
2,note_on,64,0,80
2,note_on,64,79,80
2,note_on,64,0,80
2,note_on,76,78,0
2,note_on,76,0,80
2,note_on,62,77,80
2,note_on,62,0,80
2,note_on,74,77,0
2,note_on,74,0,80
2,note_on,60,75,80
2,note_on,60,0,80
2,note_on,72,75,0
2,note_on,72,0,80
2,note_on,59,74,80
2,note_on,59,0,80
2,note_on,71,74,0
2,note_on,71,0,80
2,note_on,60,73,80
2,note_on,60,0,80
2,note_on,72,73,0
2,note_on,72,0,80
2,note_on,57,72,80
2,note_on,57,0,80
2,note_on,69,73,0
2,note_on,69,0,80
2,note_on,64,85,0
2,note_on,64,0,80
2,note_on,52,77,0
2,note_on,52,0,80
2,note_on,64,77,0
2,note_on,64,0,80
2,note_on,52,77,0
2,note_on,52,0,80
2,note_on,64,77,0
2,note_on,64,0,80
2,note_on,52,77,0
2,note_on,52,0,80
2,note_on,64,70,80
2,note_on,64,0,80
2,note_on,76,70,0
2,note_on,76,0,80
2,note_on,64,71,80
2,note_on,64,0,80
2,note_on,76,72,0
2,note_on,76,0,80
2,note_on,69,73,80
2,note_on,69,0,80
2,note_on,81,74,0
2,note_on,81,0,80
2,note_on,71,75,80
2,note_on,71,0,80
2,note_on,83,77,0
2,note_on,83,0,80
2,note_on,72,78,80
2,note_on,72,0,80
2,note_on,84,79,0
2,note_on,84,0,80
2,note_on,74,80,80
2,note_on,74,0,80
2,note_on,86,81,0
2,note_on,86,0,80
2,note_on,88,85,0
2,note_on,88,0,80
2,note_on,76,85,0
2,note_on,76,0,80
2,note_on,88,84,0
2,note_on,88,0,80
2,note_on,76,84,0
2,note_on,76,0,80
2,note_on,88,84,0
2,note_on,88,0,80
2,note_on,76,82,0
2,note_on,76,0,80
2,note_on,76,79,80
2,note_on,76,0,80
2,note_on,88,78,0
2,note_on,88,0,80
2,note_on,74,77,80
2,note_on,74,0,80
2,note_on,86,77,0
2,note_on,86,0,80
2,note_on,72,75,80
2,note_on,72,0,80
2,note_on,84,75,0
2,note_on,84,0,80
2,note_on,71,74,80
2,note_on,71,0,80
2,note_on,83,74,0
2,note_on,83,0,80
2,note_on,72,73,80
2,note_on,72,0,80
2,note_on,84,73,0
2,note_on,84,0,80
2,note_on,69,72,80
2,note_on,69,0,80
2,note_on,81,73,0
2,note_on,81,0,80
2,note_on,76,82,0
2,note_on,76,0,80
2,note_on,64,78,0
2,note_on,64,0,80
2,note_on,76,78,0
2,note_on,76,0,80
2,note_on,64,78,0
2,note_on,64,0,80
2,note_on,76,78,0
2,note_on,76,0,80
2,note_on,64,78,0
2,note_on,64,0,80
2,note_on,81,80,0
2,note_on,81,0,80
2,note_on,69,75,0
2,note_on,69,0,80
2,note_on,81,75,0
2,note_on,81,0,80
2,note_on,69,75,0
2,note_on,69,0,80
2,note_on,81,75,0
2,note_on,81,0,80
2,note_on,69,75,0
2,note_on,69,0,80
2,note_on,81,82,0
2,note_on,81,0,80
2,note_on,69,75,0
2,note_on,69,0,80
2,note_on,81,75,0
2,note_on,81,0,80
2,note_on,69,75,0
2,note_on,69,0,80
2,note_on,81,75,0
2,note_on,81,0,80
2,note_on,69,75,0
2,note_on,69,0,80
2,note_on,81,82,0
2,note_on,81,0,80
2,note_on,69,75,0
2,note_on,69,0,80
2,note_on,81,75,0
2,note_on,81,0,80
2,note_on,69,75,0
2,note_on,69,0,80
2,note_on,81,75,0
2,note_on,81,0,80
2,note_on,69,75,0
2,note_on,69,0,80
2,note_on,81,81,0
2,note_on,81,0,80
2,note_on,69,75,0
2,note_on,69,0,80
2,note_on,81,75,0
2,note_on,81,0,80
2,note_on,69,75,0
2,note_on,69,0,80
2,note_on,81,75,0
2,note_on,81,0,80
2,note_on,69,75,0
2,note_on,69,0,80
2,note_on,77,81,0
2,note_on,77,0,80
2,note_on,79,77,0
2,note_on,79,0,80
2,note_on,81,77,0
2,note_on,81,0,80
2,note_on,77,79,0
2,note_on,77,0,80
2,note_on,76,75,0
2,note_on,76,0,80
2,note_on,74,75,0
2,note_on,74,0,80
2,note_on,72,80,0
2,note_on,72,0,80
2,note_on,74,74,0
2,note_on,74,0,80
2,note_on,76,74,0
2,note_on,76,0,80
2,note_on,72,78,0
2,note_on,72,0,80
2,note_on,71,71,0
2,note_on,71,0,80
2,note_on,69,71,0
2,note_on,69,0,80
2,note_on,71,81,0
2,note_on,71,0,80
2,note_on,72,73,0
2,note_on,72,0,80
2,note_on,74,73,0
2,note_on,74,0,80
2,note_on,71,79,0
2,note_on,71,0,80
2,note_on,69,75,0
2,note_on,69,0,80
2,note_on,68,75,0
2,note_on,68,0,80
2,note_on,69,79,0
2,note_on,69,0,80
2,note_on,57,75,0
2,note_on,57,0,80
2,note_on,69,75,0
2,note_on,69,0,80
2,note_on,57,75,0
2,note_on,57,0,80
2,note_on,69,75,0
2,note_on,69,0,80
2,note_on,57,75,0
2,note_on,57,0,80
2,note_on,69,80,0
2,note_on,69,0,80
2,note_on,57,75,0
2,note_on,57,0,80
2,note_on,69,75,0
2,note_on,69,0,80
2,note_on,57,75,0
2,note_on,57,0,80
2,note_on,69,75,0
2,note_on,69,0,80
2,note_on,57,75,0
2,note_on,57,0,80
2,note_on,69,82,0
2,note_on,69,0,80
2,note_on,57,75,0
2,note_on,57,0,80
2,note_on,69,75,0
2,note_on,69,0,80
2,note_on,57,75,0
2,note_on,57,0,80
2,note_on,69,75,0
2,note_on,69,0,80
2,note_on,57,75,0
2,note_on,57,0,80
2,note_on,69,82,0
2,note_on,69,0,80
2,note_on,57,75,0
2,note_on,57,0,80
2,note_on,69,75,0
2,note_on,69,0,80
2,note_on,57,75,0
2,note_on,57,0,80
2,note_on,69,75,0
2,note_on,69,0,80
2,note_on,57,75,0
2,note_on,57,0,80
2,note_on,69,81,0
2,note_on,69,0,80
2,note_on,57,75,0
2,note_on,57,0,80
2,note_on,69,75,0
2,note_on,69,0,80
2,note_on,57,75,0
2,note_on,57,0,80
2,note_on,69,75,0
2,note_on,69,0,80
2,note_on,57,75,0
2,note_on,57,0,80
2,note_on,65,81,0
2,note_on,65,0,80
2,note_on,67,77,0
2,note_on,67,0,80
2,note_on,69,77,0
2,note_on,69,0,80
2,note_on,65,79,0
2,note_on,65,0,80
2,note_on,64,75,0
2,note_on,64,0,80
2,note_on,62,75,0
2,note_on,62,0,80
2,note_on,60,80,0
2,note_on,60,0,80
2,note_on,62,74,0
2,note_on,62,0,80
2,note_on,64,74,0
2,note_on,64,0,80
2,note_on,60,78,0
2,note_on,60,0,80
2,note_on,59,71,0
2,note_on,59,0,80
2,note_on,57,71,0
2,note_on,57,0,80
2,note_on,59,81,0
2,note_on,59,0,80
2,note_on,60,73,0
2,note_on,60,0,80
2,note_on,62,73,0
2,note_on,62,0,80
2,note_on,59,79,0
2,note_on,59,0,80
2,note_on,57,75,0
2,note_on,57,0,80
2,note_on,56,75,0
2,note_on,56,0,80
2,note_on,57,79,0
2,note_on,57,0,240
2,note_on,88,95,240
2,note_on,76,80,0
2,note_on,76,0,120
2,note_on,88,0,0
2,note_on,88,95,120
2,note_on,76,80,0
2,note_on,76,0,120
2,note_on,88,0,0
2,note_on,76,91,120
2,note_on,64,77,0
2,note_on,64,0,120
2,note_on,76,0,0
2,note_on,76,91,120
2,note_on,64,77,0
2,note_on,64,0,120
2,note_on,76,0,0
2,note_on,64,79,120
2,note_on,76,93,0
2,note_on,76,0,120
2,note_on,64,0,0
2,note_on,68,82,120
2,note_on,80,97,0
2,note_on,80,0,120
2,note_on,68,0,0
2,note_on,69,85,120
2,note_on,81,100,0
2,note_on,81,0,480
2,note_on,69,0,0
2,note_on,83,58,0
2,note_on,83,0,120
2,note_on,86,53,0
2,note_on,86,0,120
2,note_on,84,53,0
2,note_on,84,0,120
2,note_on,83,53,0
2,note_on,83,0,120
2,note_on,84,56,0
2,note_on,84,0,120
2,note_on,88,53,0
2,note_on,88,0,120
2,note_on,86,53,0
2,note_on,86,0,120
2,note_on,84,53,0
2,note_on,84,0,120
2,note_on,83,58,0
2,note_on,83,0,120
2,note_on,86,53,0
2,note_on,86,0,120
2,note_on,84,53,0
2,note_on,84,0,120
2,note_on,83,53,0
2,note_on,83,0,120
2,note_on,81,52,0
2,note_on,81,0,480
2,note_on,88,95,0
2,note_on,76,80,0
2,note_on,76,0,120
2,note_on,88,0,0
2,note_on,88,95,120
2,note_on,76,80,0
2,note_on,76,0,120
2,note_on,88,0,0
2,note_on,76,91,120
2,note_on,64,77,0
2,note_on,64,0,120
2,note_on,76,0,0
2,note_on,76,91,120
2,note_on,64,77,0
2,note_on,64,0,120
2,note_on,76,0,0
2,note_on,64,79,120
2,note_on,76,93,0
2,note_on,76,0,120
2,note_on,64,0,0
2,note_on,68,82,120
2,note_on,80,97,0
2,note_on,80,0,120
2,note_on,68,0,0
2,note_on,69,85,120
2,note_on,81,100,0
2,note_on,81,0,480
2,note_on,69,0,0
2,note_on,83,58,0
2,note_on,83,0,120
2,note_on,86,53,0
2,note_on,86,0,120
2,note_on,84,53,0
2,note_on,84,0,120
2,note_on,83,52,0
2,note_on,83,0,120
2,note_on,84,55,0
2,note_on,84,0,120
2,note_on,88,52,0
2,note_on,88,0,120
2,note_on,86,51,0
2,note_on,86,0,120
2,note_on,84,51,0
2,note_on,84,0,120
2,note_on,83,56,0
2,note_on,83,0,120
2,note_on,86,51,0
2,note_on,86,0,120
2,note_on,84,51,0
2,note_on,84,0,120
2,note_on,83,51,0
2,note_on,83,0,120
2,note_on,81,53,0
2,note_on,81,0,120
2,note_on,84,49,0
2,note_on,84,0,120
2,note_on,83,48,0
2,note_on,83,0,120
2,note_on,81,48,0
2,note_on,81,0,120
2,note_on,83,52,0
2,note_on,83,0,120
2,note_on,86,46,0
2,note_on,86,0,120
2,note_on,84,46,0
2,note_on,84,0,120
2,note_on,83,45,0
2,note_on,83,0,120
2,note_on,84,46,0
2,note_on,84,0,120
2,note_on,88,43,0
2,note_on,88,0,120
2,note_on,86,42,0
2,note_on,86,0,120
2,note_on,84,42,0
2,note_on,84,0,120
2,note_on,83,45,0
2,note_on,83,0,120
2,note_on,86,40,0
2,note_on,86,0,120
2,note_on,84,39,0
2,note_on,84,0,120
2,note_on,83,39,0
2,note_on,83,0,120
2,note_on,81,39,0
2,note_on,81,0,120
2,note_on,84,37,0
2,note_on,84,0,120
2,note_on,83,37,0
2,note_on,83,0,120
2,note_on,81,37,0
2,note_on,81,0,120
2,note_on,83,41,0
2,note_on,83,0,120
2,note_on,86,37,0
2,note_on,86,0,120
2,note_on,84,37,0
2,note_on,84,0,120
2,note_on,83,37,0
2,note_on,83,0,120
2,note_on,81,39,0
2,note_on,81,0,120
2,note_on,84,37,0
2,note_on,84,0,120
2,note_on,83,37,0
2,note_on,83,0,120
2,note_on,81,37,0
2,note_on,81,0,120
2,note_on,83,41,0
2,note_on,83,0,120
2,note_on,86,37,0
2,note_on,86,0,120
2,note_on,84,37,0
2,note_on,84,0,120
2,note_on,83,37,0
2,note_on,83,0,120
2,note_on,81,92,0
2,note_on,81,0,240
2,note_on,76,92,240
2,note_on,76,0,240
2,note_on,76,97,240
2,note_on,76,0,720
2,note_on,72,53,0
2,note_on,72,0,240
2,note_on,71,58,0
2,note_on,71,0,480
2,note_on,64,54,0
2,note_on,64,0,480
2,note_on,69,54,0
2,note_on,69,0,240
2,note_on,53,102,720
2,note_on,53,0,240
2,note_on,72,92,240
2,note_on,84,92,0
2,note_on,84,0,240
2,note_on,72,0,0
2,note_on,72,95,240
2,note_on,84,95,0
2,note_on,84,0,720
2,note_on,72,0,0
2,note_on,69,57,0
2,note_on,81,57,0
2,note_on,81,0,240
2,note_on,69,0,0
2,note_on,67,60,0
2,note_on,79,60,0
2,note_on,79,0,480
2,note_on,67,0,0
2,note_on,60,56,0
2,note_on,72,56,0
2,note_on,72,0,480
2,note_on,60,0,0
2,note_on,65,56,0
2,note_on,77,56,0
2,note_on,77,0,240
2,note_on,65,0,0
2,note_on,55,103,720
2,note_on,55,0,240
2,note_on,77,63,240
2,note_on,89,90,0
2,note_on,89,0,240
2,note_on,77,0,0
2,note_on,77,67,240
2,note_on,89,93,0
2,note_on,89,0,720
2,note_on,77,0,0
2,note_on,74,56,0
2,note_on,86,66,0
2,note_on,86,0,240
2,note_on,74,0,0
2,note_on,71,58,0
2,note_on,83,69,0
2,note_on,83,0,480
2,note_on,71,0,0
2,note_on,67,49,0
2,note_on,79,58,0
2,note_on,79,0,480
2,note_on,67,0,0
2,note_on,65,54,0
2,note_on,77,64,0
2,note_on,77,0,720
2,note_on,65,0,0
2,note_on,62,44,0
2,note_on,74,52,0
2,note_on,74,0,240
2,note_on,62,0,0
2,note_on,59,46,0
2,note_on,71,55,0
2,note_on,71,0,480
2,note_on,59,0,0
2,note_on,55,41,0
2,note_on,67,49,0
2,note_on,67,0,480
2,note_on,55,0,0
2,note_on,53,43,0
2,note_on,65,51,0
2,note_on,65,0,720
2,note_on,53,0,0
2,note_on,50,34,0
2,note_on,62,40,0
2,note_on,62,0,240
2,note_on,50,0,0
2,note_on,47,34,0
2,note_on,59,40,0
2,note_on,59,0,480
2,note_on,47,0,0
2,note_on,55,40,480
2,note_on,55,0,480
2,note_on,52,28,120
2,note_on,52,0,120
2,note_on,55,30,0
2,note_on,55,0,120
2,note_on,60,32,0
2,note_on,60,0,120
2,note_on,64,34,0
2,note_on,64,0,120
2,note_on,52,31,0
2,note_on,52,0,120
2,note_on,55,31,0
2,note_on,55,0,120
2,note_on,60,31,0
2,note_on,60,0,120
2,note_on,64,35,0
2,note_on,64,0,120
2,note_on,52,30,0
2,note_on,52,0,120
2,note_on,55,31,0
2,note_on,55,0,120
2,note_on,60,33,0
2,note_on,60,0,120
2,note_on,64,36,0
2,note_on,64,0,120
2,note_on,52,33,0
2,note_on,52,0,120
2,note_on,55,33,0
2,note_on,55,0,120
2,note_on,60,33,0
2,note_on,60,0,120
2,note_on,53,28,120
2,note_on,53,0,120
2,note_on,55,31,0
2,note_on,55,0,120
2,note_on,59,33,0
2,note_on,59,0,120
2,note_on,62,36,0
2,note_on,62,0,120
2,note_on,53,33,0
2,note_on,53,0,120
2,note_on,55,33,0
2,note_on,55,0,120
2,note_on,59,34,0
2,note_on,59,0,120
2,note_on,52,28,120
2,note_on,52,0,120
2,note_on,55,30,0
2,note_on,55,0,120
2,note_on,60,32,0
2,note_on,60,0,120
2,note_on,64,34,0
2,note_on,64,0,120
2,note_on,52,32,0
2,note_on,52,0,120
2,note_on,55,32,0
2,note_on,55,0,120
2,note_on,60,33,0
2,note_on,60,0,120
2,note_on,52,28,120
2,note_on,52,0,120
2,note_on,55,30,0
2,note_on,55,0,120
2,note_on,60,32,0
2,note_on,60,0,120
2,note_on,64,34,0
2,note_on,64,0,120
2,note_on,52,31,0
2,note_on,52,0,120
2,note_on,55,31,0
2,note_on,55,0,120
2,note_on,60,31,0
2,note_on,60,0,120
2,note_on,64,35,0
2,note_on,64,0,120
2,note_on,52,30,0
2,note_on,52,0,120
2,note_on,55,31,0
2,note_on,55,0,120
2,note_on,60,33,0
2,note_on,60,0,120
2,note_on,64,36,0
2,note_on,64,0,120
2,note_on,52,33,0
2,note_on,52,0,120
2,note_on,55,33,0
2,note_on,55,0,120
2,note_on,60,33,0
2,note_on,60,0,120
2,note_on,53,28,120
2,note_on,53,0,120
2,note_on,55,31,0
2,note_on,55,0,120
2,note_on,59,33,0
2,note_on,59,0,120
2,note_on,62,36,0
2,note_on,62,0,120
2,note_on,53,33,0
2,note_on,53,0,120
2,note_on,55,33,0
2,note_on,55,0,120
2,note_on,59,34,0
2,note_on,59,0,120
2,note_on,52,30,240
2,note_on,52,0,120
2,note_on,55,32,0
2,note_on,55,0,120
2,note_on,60,34,0
2,note_on,60,0,120
2,note_on,64,32,0
2,note_on,64,0,120
2,note_on,62,32,0
2,note_on,62,0,120
2,note_on,60,33,0
2,note_on,60,0,120
2,note_on,59,35,0
2,note_on,59,0,120
2,note_on,55,28,0
2,note_on,55,0,120
2,note_on,59,30,0
2,note_on,59,0,120
2,note_on,62,32,0
2,note_on,62,0,120
2,note_on,67,34,0
2,note_on,67,0,120
2,note_on,55,31,0
2,note_on,55,0,120
2,note_on,59,31,0
2,note_on,59,0,120
2,note_on,62,31,0
2,note_on,62,0,120
2,note_on,67,35,0
2,note_on,67,0,120
2,note_on,55,30,0
2,note_on,55,0,120
2,note_on,59,31,0
2,note_on,59,0,120
2,note_on,62,33,0
2,note_on,62,0,120
2,note_on,67,36,0
2,note_on,67,0,120
2,note_on,55,33,0
2,note_on,55,0,120
2,note_on,59,33,0
2,note_on,59,0,120
2,note_on,67,33,0
2,note_on,67,0,120
2,note_on,55,28,120
2,note_on,55,0,120
2,note_on,60,31,0
2,note_on,60,0,120
2,note_on,67,33,0
2,note_on,67,0,120
2,note_on,55,28,120
2,note_on,55,0,120
2,note_on,64,31,0
2,note_on,64,0,120
2,note_on,67,33,0
2,note_on,67,0,120
2,note_on,55,28,120
2,note_on,55,0,120
2,note_on,62,30,0
2,note_on,62,0,120
2,note_on,67,32,0
2,note_on,67,0,120
2,note_on,55,28,120
2,note_on,55,0,120
2,note_on,59,30,0
2,note_on,59,0,120
2,note_on,67,32,0
2,note_on,67,0,120
2,note_on,55,28,120
2,note_on,55,0,120
2,note_on,59,30,0
2,note_on,59,0,120
2,note_on,62,32,0
2,note_on,62,0,120
2,note_on,67,34,0
2,note_on,67,0,120
2,note_on,55,31,0
2,note_on,55,0,120
2,note_on,59,31,0
2,note_on,59,0,120
2,note_on,62,31,0
2,note_on,62,0,120
2,note_on,67,35,0
2,note_on,67,0,120
2,note_on,55,30,0
2,note_on,55,0,120
2,note_on,59,31,0
2,note_on,59,0,120
2,note_on,62,33,0
2,note_on,62,0,120
2,note_on,67,36,0
2,note_on,67,0,120
2,note_on,55,33,0
2,note_on,55,0,120
2,note_on,59,33,0
2,note_on,59,0,120
2,note_on,67,33,0
2,note_on,67,0,120
2,note_on,55,28,120
2,note_on,55,0,120
2,note_on,60,31,0
2,note_on,60,0,120
2,note_on,67,33,0
2,note_on,67,0,120
2,note_on,55,28,120
2,note_on,55,0,120
2,note_on,63,31,0
2,note_on,63,0,120
2,note_on,67,33,0
2,note_on,67,0,120
2,note_on,55,28,120
2,note_on,55,0,120
2,note_on,62,30,0
2,note_on,62,0,120
2,note_on,67,32,0
2,note_on,67,0,120
2,note_on,55,28,120
2,note_on,55,0,120
2,note_on,59,30,0
2,note_on,59,0,120
2,note_on,67,32,0
2,note_on,67,0,120
2,note_on,55,28,120
2,note_on,55,0,120
2,note_on,60,31,0
2,note_on,60,0,120
2,note_on,67,33,0
2,note_on,67,0,120
2,note_on,55,28,120
2,note_on,55,0,120
2,note_on,64,31,0
2,note_on,64,0,120
2,note_on,67,33,0
2,note_on,67,0,120
2,note_on,55,28,120
2,note_on,55,0,120
2,note_on,62,30,0
2,note_on,62,0,120
2,note_on,67,32,0
2,note_on,67,0,120
2,note_on,55,28,120
2,note_on,55,0,120
2,note_on,59,30,0
2,note_on,59,0,120
2,note_on,67,32,0
2,note_on,67,0,120
2,note_on,55,28,120
2,note_on,55,0,120
2,note_on,60,31,0
2,note_on,60,0,120
2,note_on,67,33,0
2,note_on,67,0,120
2,note_on,55,28,120
2,note_on,55,0,120
2,note_on,60,31,0
2,note_on,60,0,120
2,note_on,63,33,0
2,note_on,63,0,120
2,note_on,55,28,120
2,note_on,55,0,120
2,note_on,59,30,0
2,note_on,59,0,120
2,note_on,62,32,0
2,note_on,62,0,120
2,note_on,55,28,120
2,note_on,55,0,120
2,note_on,60,30,0
2,note_on,60,0,120
2,note_on,63,32,0
2,note_on,63,0,120
2,note_on,55,28,120
2,note_on,55,0,120
2,note_on,59,30,0
2,note_on,59,0,120
2,note_on,62,32,0
2,note_on,62,0,120
2,note_on,55,28,120
2,note_on,55,0,120
2,note_on,60,30,0
2,note_on,60,0,120
2,note_on,63,32,0
2,note_on,63,0,120
2,note_on,55,28,120
2,note_on,55,0,120
2,note_on,59,30,0
2,note_on,59,0,120
2,note_on,62,32,0
2,note_on,62,0,120
2,note_on,55,28,120
2,note_on,55,0,120
2,note_on,57,30,0
2,note_on,57,0,120
2,note_on,60,32,0
2,note_on,60,0,120
2,note_on,55,36,120
2,note_on,55,0,120
2,note_on,59,38,0
2,note_on,59,0,120
2,note_on,62,35,0
2,note_on,62,0,120
2,note_on,67,43,0
2,note_on,67,0,120
2,note_on,71,39,0
2,note_on,71,0,120
2,note_on,69,41,0
2,note_on,69,0,120
2,note_on,66,38,0
2,note_on,66,0,120
2,note_on,67,43,0
2,note_on,67,0,120
2,note_on,59,38,0
2,note_on,59,0,120
2,note_on,62,41,0
2,note_on,62,0,120
2,note_on,67,38,0
2,note_on,67,0,120
2,note_on,71,46,0
2,note_on,71,0,120
2,note_on,74,41,0
2,note_on,74,0,120
2,note_on,72,41,0
2,note_on,72,0,120
2,note_on,69,37,0
2,note_on,69,0,120
2,note_on,71,47,0
2,note_on,71,0,120
2,note_on,67,42,0
2,note_on,67,0,120
2,note_on,71,47,0
2,note_on,71,0,120
2,note_on,74,43,0
2,note_on,74,0,120
2,note_on,79,51,0
2,note_on,79,0,120
2,note_on,83,46,0
2,note_on,83,0,120
2,note_on,81,48,0
2,note_on,81,0,120
2,note_on,78,43,0
2,note_on,78,0,120
2,note_on,79,52,0
2,note_on,79,0,120
2,note_on,83,52,0
2,note_on,83,0,120
2,note_on,81,53,0
2,note_on,81,0,120
2,note_on,84,54,0
2,note_on,84,0,120
2,note_on,83,55,0
2,note_on,83,0,120
2,note_on,86,56,0
2,note_on,86,0,120
2,note_on,85,56,0
2,note_on,85,0,120
2,note_on,88,57,0
2,note_on,88,0,120
2,note_on,86,58,0
2,note_on,86,0,120
2,note_on,89,59,0
2,note_on,89,0,120
2,note_on,88,60,0
2,note_on,88,0,120
2,note_on,91,56,0
2,note_on,91,0,120
2,note_on,89,61,0
2,note_on,89,0,120
2,note_on,93,62,0
2,note_on,93,0,120
2,note_on,89,63,0
2,note_on,89,0,120
2,note_on,88,59,0
2,note_on,88,0,120
2,note_on,86,65,0
2,note_on,86,0,120
2,note_on,89,66,0
2,note_on,89,0,120
2,note_on,88,66,0
2,note_on,88,0,120
2,note_on,91,64,0
2,note_on,91,0,120
2,note_on,89,68,0
2,note_on,89,0,120
2,note_on,93,69,0
2,note_on,93,0,120
2,note_on,89,70,0
2,note_on,89,0,120
2,note_on,88,66,0
2,note_on,88,0,120
2,note_on,86,69,0
2,note_on,86,0,120
2,note_on,89,65,0
2,note_on,89,0,120
2,note_on,88,67,0
2,note_on,88,0,120
2,note_on,84,60,0
2,note_on,84,0,120
2,note_on,83,64,0
2,note_on,83,0,120
2,note_on,86,59,0
2,note_on,86,0,120
2,note_on,84,62,0
2,note_on,84,0,120
2,note_on,81,55,0
2,note_on,81,0,120
2,note_on,79,59,0
2,note_on,79,0,120
2,note_on,83,54,0
2,note_on,83,0,120
2,note_on,81,56,0
2,note_on,81,0,120
2,note_on,77,51,0
2,note_on,77,0,120
2,note_on,76,54,0
2,note_on,76,0,120
2,note_on,79,46,0
2,note_on,79,0,120
2,note_on,77,49,0
2,note_on,77,0,120
2,note_on,74,42,0
2,note_on,74,0,120
2,note_on,72,49,0
2,note_on,72,0,120
2,note_on,91,50,360
2,note_on,79,50,0
2,note_on,79,0,240
2,note_on,91,0,0
2,note_on,91,54,240
2,note_on,79,54,0
2,note_on,79,0,720
2,note_on,91,0,0
2,note_on,88,47,0
2,note_on,76,47,0
2,note_on,76,0,240
2,note_on,88,0,0
2,note_on,86,50,0
2,note_on,74,50,0
2,note_on,74,0,480
2,note_on,86,0,0
2,note_on,79,41,0
2,note_on,67,41,0
2,note_on,67,0,480
2,note_on,79,0,0
2,note_on,84,50,0
2,note_on,72,50,0
2,note_on,72,0,480
2,note_on,84,0,0
2,note_on,88,47,0
2,note_on,76,47,0
2,note_on,76,0,240
2,note_on,88,0,0
2,note_on,91,50,720
2,note_on,79,50,0
2,note_on,79,0,240
2,note_on,91,0,0
2,note_on,91,54,240
2,note_on,79,54,0
2,note_on,79,0,720
2,note_on,91,0,0
2,note_on,88,47,0
2,note_on,76,47,0
2,note_on,76,0,240
2,note_on,88,0,0
2,note_on,86,50,0
2,note_on,74,50,0
2,note_on,74,0,480
2,note_on,86,0,0
2,note_on,79,41,0
2,note_on,67,41,0
2,note_on,67,0,480
2,note_on,79,0,0
2,note_on,84,50,0
2,note_on,72,50,0
2,note_on,72,0,240
2,note_on,84,0,0
2,note_on,89,50,1200
2,note_on,77,50,0
2,note_on,77,0,240
2,note_on,89,0,0
2,note_on,89,54,240
2,note_on,77,54,0
2,note_on,77,0,720
2,note_on,89,0,0
2,note_on,86,47,0
2,note_on,74,47,0
2,note_on,74,0,240
2,note_on,86,0,0
2,note_on,88,50,0
2,note_on,76,50,0
2,note_on,76,0,480
2,note_on,88,0,0
2,note_on,84,41,0
2,note_on,72,41,0
2,note_on,72,0,480
2,note_on,84,0,0
2,note_on,83,50,0
2,note_on,71,50,0
2,note_on,71,0,480
2,note_on,83,0,0
2,note_on,86,47,0
2,note_on,74,47,0
2,note_on,74,0,240
2,note_on,86,0,0
2,note_on,89,50,720
2,note_on,77,50,0
2,note_on,77,0,240
2,note_on,89,0,0
2,note_on,89,54,240
2,note_on,77,54,0
2,note_on,77,0,720
2,note_on,89,0,0
2,note_on,86,47,0
2,note_on,74,47,0
2,note_on,74,0,240
2,note_on,86,0,0
2,note_on,87,50,0
2,note_on,75,50,0
2,note_on,75,0,480
2,note_on,87,0,0
2,note_on,84,41,0
2,note_on,72,41,0
2,note_on,72,0,480
2,note_on,84,0,0
2,note_on,83,50,0
2,note_on,71,50,0
2,note_on,71,0,480
2,note_on,83,0,0
2,note_on,86,47,0
2,note_on,74,47,0
2,note_on,74,0,480
2,note_on,86,0,0
2,note_on,88,50,0
2,note_on,76,50,0
2,note_on,76,0,480
2,note_on,88,0,0
2,note_on,84,42,0
2,note_on,72,42,0
2,note_on,72,0,480
2,note_on,84,0,0
2,note_on,83,53,0
2,note_on,71,53,0
2,note_on,71,0,480
2,note_on,83,0,0
2,note_on,86,52,0
2,note_on,74,52,0
2,note_on,74,0,480
2,note_on,86,0,0
2,note_on,87,50,0
2,note_on,75,50,0
2,note_on,75,0,480
2,note_on,87,0,0
2,note_on,84,41,0
2,note_on,72,41,0
2,note_on,72,0,480
2,note_on,84,0,0
2,note_on,79,50,0
2,note_on,79,0,480
2,note_on,79,47,0
2,note_on,79,0,480
2,note_on,81,37,0
2,note_on,81,0,80
2,note_on,79,37,0
2,note_on,79,0,80
2,note_on,81,37,0
2,note_on,81,0,80
2,note_on,79,37,0
2,note_on,79,0,80
2,note_on,81,38,0
2,note_on,81,0,80
2,note_on,79,38,0
2,note_on,79,0,80
2,note_on,81,39,0
2,note_on,81,0,80
2,note_on,79,39,0
2,note_on,79,0,80
2,note_on,81,39,0
2,note_on,81,0,80
2,note_on,79,39,0
2,note_on,79,0,80
2,note_on,81,40,0
2,note_on,81,0,80
2,note_on,79,40,0
2,note_on,79,0,80
2,note_on,81,41,0
2,note_on,81,0,80
2,note_on,79,41,0
2,note_on,79,0,80
2,note_on,81,41,0
2,note_on,81,0,80
2,note_on,79,43,0
2,note_on,79,0,80
2,note_on,81,43,0
2,note_on,81,0,80
2,note_on,79,43,0
2,note_on,79,0,80
2,note_on,81,44,0
2,note_on,81,0,80
2,note_on,79,44,0
2,note_on,79,0,80
2,note_on,81,45,0
2,note_on,81,0,80
2,note_on,79,45,0
2,note_on,79,0,80
2,note_on,81,45,0
2,note_on,81,0,80
2,note_on,79,45,0
2,note_on,79,0,80
2,note_on,81,47,0
2,note_on,81,0,80
2,note_on,79,47,0
2,note_on,79,0,80
2,note_on,81,47,0
2,note_on,81,0,80
2,note_on,79,47,0
2,note_on,79,0,80
2,note_on,81,47,0
2,note_on,81,0,80
2,note_on,79,48,0
2,note_on,79,0,80
2,note_on,81,48,0
2,note_on,81,0,80
2,note_on,79,48,0
2,note_on,79,0,80
2,note_on,81,49,0
2,note_on,81,0,80
2,note_on,79,49,0
2,note_on,79,0,80
2,note_on,81,50,0
2,note_on,81,0,80
2,note_on,79,51,0
2,note_on,79,0,80
2,note_on,81,51,0
2,note_on,81,0,80
2,note_on,79,52,0
2,note_on,79,0,80
2,note_on,81,52,0
2,note_on,81,0,80
2,note_on,79,52,0
2,note_on,79,0,80
2,note_on,81,54,0
2,note_on,81,0,80
2,note_on,79,54,0
2,note_on,79,0,80
2,note_on,81,54,0
2,note_on,81,0,80
2,note_on,79,55,0
2,note_on,79,0,80
2,note_on,81,55,0
2,note_on,81,0,80
2,note_on,79,55,0
2,note_on,79,0,80
2,note_on,81,56,0
2,note_on,81,0,80
2,note_on,79,56,0
2,note_on,79,0,80
2,note_on,91,89,480
2,note_on,91,0,240
2,note_on,91,90,240
2,note_on,91,0,720
2,note_on,88,85,0
2,note_on,88,0,240
2,note_on,86,90,0
2,note_on,86,0,480
2,note_on,79,84,0
2,note_on,79,0,70
2,note_on,84,87,410
2,note_on,84,0,480
2,note_on,88,84,0
2,note_on,88,0,240
2,note_on,91,90,720
2,note_on,91,0,240
2,note_on,91,92,240
2,note_on,91,0,720
2,note_on,88,84,0
2,note_on,88,0,240
2,note_on,86,90,0
2,note_on,86,0,480
2,note_on,79,82,0
2,note_on,79,0,70
2,note_on,84,86,410
2,note_on,84,0,240
2,note_on,55,67,120
2,note_on,55,0,120
2,note_on,63,62,120
2,note_on,63,0,120
2,note_on,62,62,120
2,note_on,62,0,120
2,note_on,60,65,120
2,note_on,60,0,120
2,note_on,55,61,120
2,note_on,55,0,120
2,note_on,57,62,120
2,note_on,57,0,120
2,note_on,59,62,120
2,note_on,59,0,120
2,note_on,60,65,120
2,note_on,60,0,120
2,note_on,60,61,120
2,note_on,60,0,120
2,note_on,68,66,120
2,note_on,68,0,120
2,note_on,67,62,120
2,note_on,67,0,120
2,note_on,65,68,120
2,note_on,65,0,120
2,note_on,60,63,120
2,note_on,60,0,120
2,note_on,62,63,120
2,note_on,62,0,120
2,note_on,64,63,120
2,note_on,64,0,120
2,note_on,65,66,120
2,note_on,65,0,120
2,note_on,65,62,120
2,note_on,65,0,120
2,note_on,73,68,120
2,note_on,73,0,120
2,note_on,72,64,120
2,note_on,72,0,120
2,note_on,70,68,120
2,note_on,70,0,120
2,note_on,68,62,120
2,note_on,68,0,120
2,note_on,67,62,120
2,note_on,67,0,120
2,note_on,65,62,120
2,note_on,65,0,120
2,note_on,63,69,120
2,note_on,63,0,120
2,note_on,63,63,120
2,note_on,63,0,120
2,note_on,51,40,120
2,note_on,55,40,0
2,note_on,63,63,0
2,note_on,63,0,120
2,note_on,55,0,0
2,note_on,51,0,0
2,note_on,53,40,120
2,note_on,56,50,0
2,note_on,63,63,0
2,note_on,63,0,120
2,note_on,56,0,0
2,note_on,53,0,0
2,note_on,55,44,120
2,note_on,58,56,0
2,note_on,63,71,0
2,note_on,63,0,120
2,note_on,58,0,0
2,note_on,55,0,0
2,note_on,56,40,120
2,note_on,60,51,0
2,note_on,63,64,0
2,note_on,63,0,120
2,note_on,60,0,0
2,note_on,56,0,0
2,note_on,58,40,120
2,note_on,61,51,0
2,note_on,63,64,0
2,note_on,63,0,120
2,note_on,61,0,0
2,note_on,58,0,0
2,note_on,55,40,120
2,note_on,58,51,0
2,note_on,63,64,0
2,note_on,63,0,120
2,note_on,58,0,0
2,note_on,55,0,0
2,note_on,60,82,0
2,note_on,60,0,240
2,note_on,55,79,0
2,note_on,67,79,0
2,note_on,67,0,120
2,note_on,55,0,0
2,note_on,63,62,120
2,note_on,75,74,0
2,note_on,75,0,120
2,note_on,63,0,0
2,note_on,62,62,120
2,note_on,74,74,0
2,note_on,74,0,120
2,note_on,62,0,0
2,note_on,60,65,120
2,note_on,72,77,0
2,note_on,72,0,120
2,note_on,60,0,0
2,note_on,55,61,120
2,note_on,67,72,0
2,note_on,67,0,120
2,note_on,55,0,0
2,note_on,57,62,120
2,note_on,69,73,0
2,note_on,69,0,120
2,note_on,57,0,0
2,note_on,59,62,120
2,note_on,71,73,0
2,note_on,71,0,120
2,note_on,59,0,0
2,note_on,60,65,120
2,note_on,72,77,0
2,note_on,72,0,120
2,note_on,60,0,0
2,note_on,60,61,120
2,note_on,72,72,0
2,note_on,72,0,120
2,note_on,60,0,0
2,note_on,68,66,120
2,note_on,80,78,0
2,note_on,80,0,120
2,note_on,68,0,0
2,note_on,67,62,120
2,note_on,79,73,0
2,note_on,79,0,120
2,note_on,67,0,0
2,note_on,65,68,120
2,note_on,77,80,0
2,note_on,77,0,120
2,note_on,65,0,0
2,note_on,60,63,120
2,note_on,72,75,0
2,note_on,72,0,120
2,note_on,60,0,0
2,note_on,62,63,120
2,note_on,74,75,0
2,note_on,74,0,120
2,note_on,62,0,0
2,note_on,64,63,120
2,note_on,76,75,0
2,note_on,76,0,120
2,note_on,64,0,0
2,note_on,65,66,120
2,note_on,77,78,0
2,note_on,77,0,120
2,note_on,65,0,0
2,note_on,65,62,120
2,note_on,77,74,0
2,note_on,77,0,120
2,note_on,65,0,0
2,note_on,73,68,120
2,note_on,85,80,0
2,note_on,85,0,120
2,note_on,73,0,0
2,note_on,72,64,120
2,note_on,84,76,0
2,note_on,84,0,120
2,note_on,72,0,0
2,note_on,70,68,120
2,note_on,82,80,0
2,note_on,82,0,120
2,note_on,70,0,0
2,note_on,68,62,120
2,note_on,80,73,0
2,note_on,80,0,120
2,note_on,68,0,0
2,note_on,67,62,120
2,note_on,79,74,0
2,note_on,79,0,120
2,note_on,67,0,0
2,note_on,65,62,120
2,note_on,77,74,0
2,note_on,77,0,120
2,note_on,65,0,0
2,note_on,63,69,120
2,note_on,75,82,0
2,note_on,75,0,120
2,note_on,63,0,0
2,note_on,63,63,120
2,note_on,75,75,0
2,note_on,75,0,120
2,note_on,63,0,0
2,note_on,63,60,120
2,note_on,67,60,0
2,note_on,75,75,0
2,note_on,75,0,120
2,note_on,67,0,0
2,note_on,63,0,0
2,note_on,65,60,120
2,note_on,68,60,0
2,note_on,75,75,0
2,note_on,75,0,120
2,note_on,68,0,0
2,note_on,65,0,0
2,note_on,67,67,120
2,note_on,70,67,0
2,note_on,75,84,0
2,note_on,75,0,120
2,note_on,70,0,0
2,note_on,67,0,0
2,note_on,68,60,120
2,note_on,72,60,0
2,note_on,75,76,0
2,note_on,75,0,120
2,note_on,72,0,0
2,note_on,68,0,0
2,note_on,70,60,120
2,note_on,73,60,0
2,note_on,75,76,0
2,note_on,75,0,120
2,note_on,73,0,0
2,note_on,70,0,0
2,note_on,67,60,120
2,note_on,70,60,0
2,note_on,75,76,0
2,note_on,75,0,120
2,note_on,70,0,0
2,note_on,67,0,0
2,note_on,68,71,120
2,note_on,72,76,0
2,note_on,72,0,240
2,note_on,68,0,0
2,note_on,67,55,0
2,note_on,67,0,80
2,note_on,65,56,0
2,note_on,65,0,80
2,note_on,67,57,0
2,note_on,67,0,80
2,note_on,68,58,0
2,note_on,68,0,80
2,note_on,72,60,0
2,note_on,72,0,80
2,note_on,73,61,0
2,note_on,73,0,80
2,note_on,75,62,0
2,note_on,75,0,80
2,note_on,77,63,0
2,note_on,77,0,80
2,note_on,79,63,0
2,note_on,79,0,80
2,note_on,80,63,0
2,note_on,80,0,80
2,note_on,82,63,0
2,note_on,82,0,80
2,note_on,84,65,0
2,note_on,84,0,80
2,note_on,85,66,0
2,note_on,85,0,80
2,note_on,84,63,0
2,note_on,84,0,80
2,note_on,82,63,0
2,note_on,82,0,80
2,note_on,85,66,0
2,note_on,85,0,80
2,note_on,84,63,0
2,note_on,84,0,80
2,note_on,82,63,0
2,note_on,82,0,80
2,note_on,85,67,0
2,note_on,85,0,80
2,note_on,84,63,0
2,note_on,84,0,80
2,note_on,82,63,0
2,note_on,82,0,80
2,note_on,80,76,0
2,note_on,80,0,240
2,note_on,64,55,0
2,note_on,64,0,80
2,note_on,62,56,0
2,note_on,62,0,80
2,note_on,64,57,0
2,note_on,64,0,80
2,note_on,65,58,0
2,note_on,65,0,80
2,note_on,68,60,0
2,note_on,68,0,80
2,note_on,70,61,0
2,note_on,70,0,80
2,note_on,72,62,0
2,note_on,72,0,80
2,note_on,74,63,0
2,note_on,74,0,80
2,note_on,76,63,0
2,note_on,76,0,80
2,note_on,77,63,0
2,note_on,77,0,80
2,note_on,79,63,0
2,note_on,79,0,80
2,note_on,80,65,0
2,note_on,80,0,80
2,note_on,82,66,0
2,note_on,82,0,80
2,note_on,80,63,0
2,note_on,80,0,80
2,note_on,79,63,0
2,note_on,79,0,80
2,note_on,82,66,0
2,note_on,82,0,80
2,note_on,80,63,0
2,note_on,80,0,80
2,note_on,79,63,0
2,note_on,79,0,80
2,note_on,82,67,0
2,note_on,82,0,80
2,note_on,80,63,0
2,note_on,80,0,80
2,note_on,79,63,0
2,note_on,79,0,80
2,note_on,80,70,0
2,note_on,80,0,80
2,note_on,82,68,0
2,note_on,82,0,80
2,note_on,80,68,0
2,note_on,80,0,80
2,note_on,79,70,0
2,note_on,79,0,80
2,note_on,80,66,0
2,note_on,80,0,80
2,note_on,79,66,0
2,note_on,79,0,80
2,note_on,77,69,0
2,note_on,77,0,80
2,note_on,79,66,0
2,note_on,79,0,80
2,note_on,77,65,0
2,note_on,77,0,80
2,note_on,75,69,0
2,note_on,75,0,80
2,note_on,77,64,0
2,note_on,77,0,80
2,note_on,75,64,0
2,note_on,75,0,80
2,note_on,74,68,0
2,note_on,74,0,80
2,note_on,75,64,0
2,note_on,75,0,80
2,note_on,74,64,0
2,note_on,74,0,80
2,note_on,75,68,0
2,note_on,75,0,80
2,note_on,77,64,0
2,note_on,77,0,80
2,note_on,75,64,0
2,note_on,75,0,80
2,note_on,77,70,0
2,note_on,77,0,80
2,note_on,79,65,0
2,note_on,79,0,80
2,note_on,77,66,0
2,note_on,77,0,80
2,note_on,78,70,0
2,note_on,78,0,80
2,note_on,79,66,0
2,note_on,79,0,80
2,note_on,78,66,0
2,note_on,78,0,80
2,note_on,79,72,0
2,note_on,79,0,80
2,note_on,80,67,0
2,note_on,80,0,80
2,note_on,79,67,0
2,note_on,79,0,80
2,note_on,78,67,0
2,note_on,78,0,80
2,note_on,79,67,0
2,note_on,79,0,80
2,note_on,78,67,0
2,note_on,78,0,80
2,note_on,79,72,0
2,note_on,79,0,80
2,note_on,80,67,0
2,note_on,80,0,80
2,note_on,79,67,0
2,note_on,79,0,80
2,note_on,78,67,0
2,note_on,78,0,80
2,note_on,79,67,0
2,note_on,79,0,80
2,note_on,78,67,0
2,note_on,78,0,80
2,note_on,79,72,0
2,note_on,79,0,80
2,note_on,80,67,0
2,note_on,80,0,80
2,note_on,79,67,0
2,note_on,79,0,80
2,note_on,77,69,0
2,note_on,77,0,80
2,note_on,79,65,0
2,note_on,79,0,80
2,note_on,77,65,0
2,note_on,77,0,80
2,note_on,75,68,0
2,note_on,75,0,80
2,note_on,77,63,0
2,note_on,77,0,80
2,note_on,75,63,0
2,note_on,75,0,80
2,note_on,74,67,0
2,note_on,74,0,80
2,note_on,75,62,0
2,note_on,75,0,80
2,note_on,74,62,0
2,note_on,74,0,80
2,note_on,72,82,0
2,note_on,72,0,240
2,note_on,63,79,0
2,note_on,75,79,0
2,note_on,75,0,120
2,note_on,63,0,0
2,note_on,72,62,120
2,note_on,84,74,0
2,note_on,84,0,120
2,note_on,72,0,0
2,note_on,70,62,120
2,note_on,82,74,0
2,note_on,82,0,120
2,note_on,70,0,0
2,note_on,68,65,120
2,note_on,80,77,0
2,note_on,80,0,120
2,note_on,68,0,0
2,note_on,63,61,120
2,note_on,75,72,0
2,note_on,75,0,120
2,note_on,63,0,0
2,note_on,65,62,120
2,note_on,77,73,0
2,note_on,77,0,120
2,note_on,65,0,0
2,note_on,67,62,120
2,note_on,79,73,0
2,note_on,79,0,120
2,note_on,67,0,0
2,note_on,68,65,120
2,note_on,80,77,0
2,note_on,80,0,120
2,note_on,68,0,0
2,note_on,60,61,120
2,note_on,72,72,0
2,note_on,72,0,120
2,note_on,60,0,0
2,note_on,68,66,120
2,note_on,80,78,0
2,note_on,80,0,120
2,note_on,68,0,0
2,note_on,67,62,120
2,note_on,79,73,0
2,note_on,79,0,120
2,note_on,67,0,0
2,note_on,65,68,120
2,note_on,77,80,0
2,note_on,77,0,120
2,note_on,65,0,0
2,note_on,60,63,120
2,note_on,72,75,0
2,note_on,72,0,120
2,note_on,60,0,0
2,note_on,62,63,120
2,note_on,74,75,0
2,note_on,74,0,120
2,note_on,62,0,0
2,note_on,64,63,120
2,note_on,76,75,0
2,note_on,76,0,120
2,note_on,64,0,0
2,note_on,65,66,120
2,note_on,77,78,0
2,note_on,77,0,120
2,note_on,65,0,0
2,note_on,77,62,120
2,note_on,89,74,0
2,note_on,89,0,120
2,note_on,77,0,0
2,note_on,80,68,120
2,note_on,92,80,0
2,note_on,92,0,120
2,note_on,80,0,0
2,note_on,79,64,120
2,note_on,91,76,0
2,note_on,91,0,120
2,note_on,79,0,0
2,note_on,77,68,120
2,note_on,89,80,0
2,note_on,89,0,120
2,note_on,77,0,0
2,note_on,75,62,120
2,note_on,87,73,0
2,note_on,87,0,120
2,note_on,75,0,0
2,note_on,74,62,120
2,note_on,86,74,0
2,note_on,86,0,120
2,note_on,74,0,0
2,note_on,72,62,120
2,note_on,84,74,0
2,note_on,84,0,120
2,note_on,72,0,0
2,note_on,71,69,120
2,note_on,83,82,0
2,note_on,83,0,480
2,note_on,71,0,0
2,note_on,67,66,0
2,note_on,79,78,0
2,note_on,79,0,238
2,note_on,67,0,0
2,note_on,67,62,2
2,note_on,79,73,0
2,note_on,79,0,238
2,note_on,67,0,0
2,note_on,67,66,2
2,note_on,79,78,0
2,note_on,79,0,238
2,note_on,67,0,0
2,note_on,67,61,2
2,note_on,79,72,0
2,note_on,79,0,238
2,note_on,67,0,0
2,note_on,67,66,2
2,note_on,79,78,0
2,note_on,79,0,238
2,note_on,67,0,0
2,note_on,67,62,2
2,note_on,79,73,0
2,note_on,79,0,238
2,note_on,67,0,0
2,note_on,72,71,2
2,note_on,84,76,0
2,note_on,84,0,240
2,note_on,72,0,0
2,note_on,72,55,0
2,note_on,72,0,80
2,note_on,74,56,0
2,note_on,74,0,80
2,note_on,76,57,0
2,note_on,76,0,80
2,note_on,77,58,0
2,note_on,77,0,80
2,note_on,76,60,0
2,note_on,76,0,80
2,note_on,77,61,0
2,note_on,77,0,80
2,note_on,79,62,0
2,note_on,79,0,80
2,note_on,77,63,0
2,note_on,77,0,80
2,note_on,79,63,0
2,note_on,79,0,80
2,note_on,80,68,0
2,note_on,80,0,80
2,note_on,82,64,0
2,note_on,82,0,80
2,note_on,80,64,0
2,note_on,80,0,80
2,note_on,79,68,0
2,note_on,79,0,80
2,note_on,80,64,0
2,note_on,80,0,80
2,note_on,79,64,0
2,note_on,79,0,80
2,note_on,77,70,0
2,note_on,77,0,80
2,note_on,79,65,0
2,note_on,79,0,80
2,note_on,77,66,0
2,note_on,77,0,80
2,note_on,78,70,0
2,note_on,78,0,80
2,note_on,79,66,0
2,note_on,79,0,80
2,note_on,78,66,0
2,note_on,78,0,80
2,note_on,79,72,0
2,note_on,79,0,80
2,note_on,80,67,0
2,note_on,80,0,80
2,note_on,79,67,0
2,note_on,79,0,80
2,note_on,78,67,0
2,note_on,78,0,80
2,note_on,79,67,0
2,note_on,79,0,80
2,note_on,78,67,0
2,note_on,78,0,80
2,note_on,79,72,0
2,note_on,79,0,80
2,note_on,80,67,0
2,note_on,80,0,80
2,note_on,79,67,0
2,note_on,79,0,80
2,note_on,78,67,0
2,note_on,78,0,80
2,note_on,79,67,0
2,note_on,79,0,80
2,note_on,78,67,0
2,note_on,78,0,80
2,note_on,79,72,0
2,note_on,79,0,80
2,note_on,80,67,0
2,note_on,80,0,80
2,note_on,79,67,0
2,note_on,79,0,80
2,note_on,77,69,0
2,note_on,77,0,80
2,note_on,79,65,0
2,note_on,79,0,80
2,note_on,77,65,0
2,note_on,77,0,80
2,note_on,75,68,0
2,note_on,75,0,80
2,note_on,77,63,0
2,note_on,77,0,80
2,note_on,75,63,0
2,note_on,75,0,80
2,note_on,74,67,0
2,note_on,74,0,80
2,note_on,75,62,0
2,note_on,75,0,80
2,note_on,74,62,0
2,note_on,74,0,80
2,note_on,72,72,0
2,note_on,72,0,80
2,note_on,71,67,0
2,note_on,71,0,80
2,note_on,72,67,0
2,note_on,72,0,80
2,note_on,74,67,0
2,note_on,74,0,80
2,note_on,72,67,0
2,note_on,72,0,80
2,note_on,74,67,0
2,note_on,74,0,80
2,note_on,75,75,0
2,note_on,75,0,80
2,note_on,74,70,0
2,note_on,74,0,80
2,note_on,75,70,0
2,note_on,75,0,80
2,note_on,77,70,0
2,note_on,77,0,80
2,note_on,75,70,0
2,note_on,75,0,80
2,note_on,77,70,0
2,note_on,77,0,80
2,note_on,79,75,0
2,note_on,79,0,80
2,note_on,80,70,0
2,note_on,80,0,80
2,note_on,79,70,0
2,note_on,79,0,80
2,note_on,77,72,0
2,note_on,77,0,80
2,note_on,79,68,0
2,note_on,79,0,80
2,note_on,77,68,0
2,note_on,77,0,80
2,note_on,75,71,0
2,note_on,75,0,80
2,note_on,77,66,0
2,note_on,77,0,80
2,note_on,75,66,0
2,note_on,75,0,80
2,note_on,74,70,0
2,note_on,74,0,80
2,note_on,75,65,0
2,note_on,75,0,80
2,note_on,74,65,0
2,note_on,74,0,80
2,note_on,72,75,0
2,note_on,72,0,80
2,note_on,71,70,0
2,note_on,71,0,80
2,note_on,72,70,0
2,note_on,72,0,80
2,note_on,74,70,0
2,note_on,74,0,80
2,note_on,72,70,0
2,note_on,72,0,80
2,note_on,74,70,0
2,note_on,74,0,80
2,note_on,75,79,0
2,note_on,75,0,80
2,note_on,74,73,0
2,note_on,74,0,80
2,note_on,75,73,0
2,note_on,75,0,80
2,note_on,77,73,0
2,note_on,77,0,80
2,note_on,75,73,0
2,note_on,75,0,80
2,note_on,77,73,0
2,note_on,77,0,80
2,note_on,79,79,0
2,note_on,79,0,80
2,note_on,80,73,0
2,note_on,80,0,80
2,note_on,79,73,0
2,note_on,79,0,80
2,note_on,77,75,0
2,note_on,77,0,80
2,note_on,79,71,0
2,note_on,79,0,80
2,note_on,77,71,0
2,note_on,77,0,80
2,note_on,75,74,0
2,note_on,75,0,80
2,note_on,77,69,0
2,note_on,77,0,80
2,note_on,75,69,0
2,note_on,75,0,80
2,note_on,74,73,0
2,note_on,74,0,80
2,note_on,75,68,0
2,note_on,75,0,80
2,note_on,74,68,0
2,note_on,74,0,80
2,note_on,72,79,0
2,note_on,72,0,80
2,note_on,71,69,0
2,note_on,71,0,80
2,note_on,72,71,0
2,note_on,72,0,80
2,note_on,74,73,0
2,note_on,74,0,80
2,note_on,75,75,0
2,note_on,75,0,80
2,note_on,77,78,0
2,note_on,77,0,80
2,note_on,79,80,0
2,note_on,79,0,80
2,note_on,80,77,0
2,note_on,80,0,80
2,note_on,79,75,0
2,note_on,79,0,80
2,note_on,77,74,0
2,note_on,77,0,80
2,note_on,75,73,0
2,note_on,75,0,80
2,note_on,74,73,0
2,note_on,74,0,80
2,note_on,72,79,0
2,note_on,72,0,80
2,note_on,71,69,0
2,note_on,71,0,80
2,note_on,72,71,0
2,note_on,72,0,80
2,note_on,74,73,0
2,note_on,74,0,80
2,note_on,75,75,0
2,note_on,75,0,80
2,note_on,77,78,0
2,note_on,77,0,80
2,note_on,79,80,0
2,note_on,79,0,80
2,note_on,80,77,0
2,note_on,80,0,80
2,note_on,79,75,0
2,note_on,79,0,80
2,note_on,77,74,0
2,note_on,77,0,80
2,note_on,75,73,0
2,note_on,75,0,80
2,note_on,74,73,0
2,note_on,74,0,80
2,note_on,60,85,0
2,note_on,72,101,0
2,note_on,72,0,120
2,note_on,60,0,0
2,note_on,60,85,360
2,note_on,72,101,0
2,note_on,72,0,120
2,note_on,60,0,0
2,note_on,60,83,360
2,note_on,72,99,0
2,note_on,72,0,240
2,note_on,60,0,0
2,note_on,60,62,720
2,note_on,72,73,0
2,note_on,72,0,480
2,note_on,60,0,0
2,note_on,60,47,480
2,note_on,72,56,0
2,note_on,72,0,480
2,note_on,60,0,0
2,note_on,56,108,480
2,note_on,56,0,240
2,note_on,63,81,240
2,note_on,68,81,0
2,note_on,72,81,0
2,note_on,75,96,0
2,note_on,75,0,240
2,note_on,63,0,0
2,note_on,68,0,0
2,note_on,72,0,0
2,note_on,75,81,240
2,note_on,80,81,0
2,note_on,84,81,0
2,note_on,87,97,0
2,note_on,87,0,720
2,note_on,75,0,0
2,note_on,80,0,0
2,note_on,84,0,0
2,note_on,84,64,0
2,note_on,75,54,0
2,note_on,75,0,240
2,note_on,84,0,0
2,note_on,73,57,0
2,note_on,82,68,0
2,note_on,82,0,480
2,note_on,73,0,0
2,note_on,73,50,0
2,note_on,75,60,0
2,note_on,75,0,480
2,note_on,73,0,0
2,note_on,72,50,0
2,note_on,80,60,0
2,note_on,80,0,480
2,note_on,72,0,0
2,note_on,53,108,480
2,note_on,53,0,240
2,note_on,60,81,240
2,note_on,65,81,0
2,note_on,68,81,0
2,note_on,72,96,0
2,note_on,72,0,240
2,note_on,60,0,0
2,note_on,65,0,0
2,note_on,68,0,0
2,note_on,72,79,240
2,note_on,77,79,0
2,note_on,80,79,0
2,note_on,84,95,0
2,note_on,84,0,720
2,note_on,72,0,0
2,note_on,77,0,0
2,note_on,80,0,0
2,note_on,80,64,0
2,note_on,72,54,0
2,note_on,72,0,240
2,note_on,80,0,0
2,note_on,70,57,0
2,note_on,79,68,0
2,note_on,79,0,480
2,note_on,70,0,0
2,note_on,70,50,0
2,note_on,72,60,0
2,note_on,72,0,480
2,note_on,70,0,0
2,note_on,68,50,0
2,note_on,77,60,0
2,note_on,77,0,480
2,note_on,68,0,0
2,note_on,61,108,480
2,note_on,61,0,240
2,note_on,68,81,240
2,note_on,73,81,0
2,note_on,77,81,0
2,note_on,80,96,0
2,note_on,80,0,240
2,note_on,68,0,0
2,note_on,73,0,0
2,note_on,77,0,0
2,note_on,80,81,240
2,note_on,85,81,0
2,note_on,89,81,0
2,note_on,92,97,0
2,note_on,92,0,720
2,note_on,80,0,0
2,note_on,85,0,0
2,note_on,89,0,0
2,note_on,89,64,0
2,note_on,80,54,0
2,note_on,80,0,240
2,note_on,89,0,0
2,note_on,78,57,0
2,note_on,87,68,0
2,note_on,87,0,480
2,note_on,78,0,0
2,note_on,78,50,0
2,note_on,80,60,0
2,note_on,80,0,480
2,note_on,78,0,0
2,note_on,77,50,0
2,note_on,85,60,0
2,note_on,85,0,720
2,note_on,77,0,0
2,note_on,77,51,0
2,note_on,68,43,0
2,note_on,68,0,240
2,note_on,77,0,0
2,note_on,66,45,0
2,note_on,75,54,0
2,note_on,75,0,480
2,note_on,66,0,0
2,note_on,66,39,0
2,note_on,68,47,0
2,note_on,68,0,480
2,note_on,66,0,0
2,note_on,65,39,0
2,note_on,73,47,0
2,note_on,73,0,720
2,note_on,65,0,0
2,note_on,65,38,0
2,note_on,56,32,0
2,note_on,56,0,240
2,note_on,65,0,0
2,note_on,54,34,0
2,note_on,63,40,0
2,note_on,63,0,475
2,note_on,54,0,0
2,note_on,54,29,5
2,note_on,56,35,0
2,note_on,56,0,475
2,note_on,54,0,0
2,note_on,53,29,5
2,note_on,61,35,0
2,note_on,61,0,475
2,note_on,53,0,0
2,note_on,56,35,5
2,note_on,53,29,0
2,note_on,53,0,475
2,note_on,56,0,0
2,note_on,54,34,5
2,note_on,63,40,0
2,note_on,63,0,475
2,note_on,54,0,0
2,note_on,54,29,5
2,note_on,56,35,0
2,note_on,56,0,475
2,note_on,54,0,0
2,note_on,54,34,5
2,note_on,63,40,0
2,note_on,63,0,475
2,note_on,54,0,0
2,note_on,54,29,5
2,note_on,56,35,0
2,note_on,56,0,475
2,note_on,54,0,0
2,note_on,53,30,5
2,note_on,61,36,0
2,note_on,61,0,240
2,note_on,53,0,0
2,note_on,56,27,0
2,note_on,61,32,0
2,note_on,65,38,0
2,note_on,65,0,475
2,note_on,61,0,0
2,note_on,56,0,0
2,note_on,56,27,5
2,note_on,61,32,0
2,note_on,65,38,0
2,note_on,65,0,475
2,note_on,61,0,0
2,note_on,56,0,0
2,note_on,56,27,5
2,note_on,61,32,0
2,note_on,65,38,0
2,note_on,65,0,475
2,note_on,61,0,0
2,note_on,56,0,0
2,note_on,65,52,5
2,note_on,56,37,0
2,note_on,61,44,0
2,note_on,65,0,238
2,note_on,63,52,2
2,note_on,61,0,235
2,note_on,56,0,0
2,note_on,63,0,3
2,note_on,56,30,2
2,note_on,60,36,0
2,note_on,63,43,0
2,note_on,63,0,475
2,note_on,60,0,0
2,note_on,56,0,0
2,note_on,56,30,5
2,note_on,60,36,0
2,note_on,63,43,0
2,note_on,60,0,238
2,note_on,59,30,2
2,note_on,63,0,235
2,note_on,56,0,0
2,note_on,59,0,3
2,note_on,56,30,2
2,note_on,59,36,0
2,note_on,63,43,0
2,note_on,63,0,475
2,note_on,59,0,0
2,note_on,56,0,0
2,note_on,56,41,5
2,note_on,60,41,0
2,note_on,62,49,0
2,note_on,65,58,0
2,note_on,65,0,238
2,note_on,56,0,0
2,note_on,60,0,0
2,note_on,62,0,0
2,note_on,54,25,2
2,note_on,58,30,0
2,note_on,63,39,0
2,note_on,66,47,0
2,note_on,66,0,238
2,note_on,54,0,0
2,note_on,58,0,0
2,note_on,63,0,0
2,note_on,58,27,2
2,note_on,63,32,0
2,note_on,66,38,0
2,note_on,66,0,475
2,note_on,63,0,0
2,note_on,58,0,0
2,note_on,58,27,5
2,note_on,63,32,0
2,note_on,66,38,0
2,note_on,66,0,475
2,note_on,63,0,0
2,note_on,58,0,0
2,note_on,58,27,5
2,note_on,63,32,0
2,note_on,66,38,0
2,note_on,66,0,475
2,note_on,63,0,0
2,note_on,58,0,0
2,note_on,66,52,5
2,note_on,58,37,0
2,note_on,63,44,0
2,note_on,66,0,238
2,note_on,65,52,2
2,note_on,63,0,235
2,note_on,58,0,0
2,note_on,65,0,3
2,note_on,58,30,2
2,note_on,62,36,0
2,note_on,65,43,0
2,note_on,65,0,475
2,note_on,62,0,0
2,note_on,58,0,0
2,note_on,58,30,5
2,note_on,62,36,0
2,note_on,65,43,0
2,note_on,62,0,238
2,note_on,61,30,2
2,note_on,65,0,235
2,note_on,58,0,0
2,note_on,61,0,3
2,note_on,58,30,2
2,note_on,61,36,0
2,note_on,65,43,0
2,note_on,65,0,475
2,note_on,61,0,0
2,note_on,58,0,0
2,note_on,58,41,5
2,note_on,62,41,0
2,note_on,64,49,0
2,note_on,67,58,0
2,note_on,67,0,240
2,note_on,58,0,0
2,note_on,62,0,0
2,note_on,64,0,0
2,note_on,56,25,0
2,note_on,60,30,0
2,note_on,65,39,0
2,note_on,68,47,0
2,note_on,68,0,238
2,note_on,56,0,0
2,note_on,60,0,0
2,note_on,65,0,0
2,note_on,60,27,2
2,note_on,65,32,0
2,note_on,68,38,0
2,note_on,68,0,475
2,note_on,65,0,0
2,note_on,60,0,0
2,note_on,60,27,5
2,note_on,65,32,0
2,note_on,68,38,0
2,note_on,68,0,475
2,note_on,65,0,0
2,note_on,60,0,0
2,note_on,60,27,5
2,note_on,65,32,0
2,note_on,68,38,0
2,note_on,68,0,475
2,note_on,65,0,0
2,note_on,60,0,0
2,note_on,68,48,5
2,note_on,60,34,0
2,note_on,65,40,0
2,note_on,68,0,238
2,note_on,67,48,2
2,note_on,65,0,235
2,note_on,60,0,0
2,note_on,67,0,3
2,note_on,60,30,2
2,note_on,64,36,0
2,note_on,67,43,0
2,note_on,67,0,475
2,note_on,64,0,0
2,note_on,60,0,0
2,note_on,60,34,5
2,note_on,64,40,0
2,note_on,67,48,0
2,note_on,67,0,238
2,note_on,64,0,0
2,note_on,68,48,2
2,note_on,65,34,0
2,note_on,60,0,235
2,note_on,65,0,3
2,note_on,68,0,0
2,note_on,60,30,2
2,note_on,65,36,0
2,note_on,68,43,0
2,note_on,68,0,475
2,note_on,65,0,0
2,note_on,60,0,0
2,note_on,60,34,5
2,note_on,65,40,0
2,note_on,68,47,0
2,note_on,68,0,240
2,note_on,65,0,0
2,note_on,60,0,0
2,note_on,60,36,120
2,note_on,60,0,120
2,note_on,64,37,0
2,note_on,64,0,120
2,note_on,67,38,0
2,note_on,67,0,120
2,note_on,71,40,0
2,note_on,71,0,120
2,note_on,72,41,0
2,note_on,72,0,120
2,note_on,76,42,0
2,note_on,76,0,120
2,note_on,79,44,0
2,note_on,79,0,120
2,note_on,83,45,0
2,note_on,83,0,120
2,note_on,84,44,0
2,note_on,84,0,120
2,note_on,79,43,0
2,note_on,79,0,120
2,note_on,76,43,0
2,note_on,76,0,120
2,note_on,72,42,0
2,note_on,72,0,120
2,note_on,67,41,0
2,note_on,67,0,120
2,note_on,64,41,0
2,note_on,64,0,120
2,note_on,60,40,0
2,note_on,60,0,120
2,note_on,61,36,120
2,note_on,61,0,120
2,note_on,65,37,0
2,note_on,65,0,120
2,note_on,68,38,0
2,note_on,68,0,120
2,note_on,72,40,0
2,note_on,72,0,120
2,note_on,73,41,0
2,note_on,73,0,120
2,note_on,77,42,0
2,note_on,77,0,120
2,note_on,80,44,0
2,note_on,80,0,120
2,note_on,84,45,0
2,note_on,84,0,120
2,note_on,85,44,0
2,note_on,85,0,120
2,note_on,80,43,0
2,note_on,80,0,120
2,note_on,77,43,0
2,note_on,77,0,120
2,note_on,73,42,0
2,note_on,73,0,120
2,note_on,68,41,0
2,note_on,68,0,120
2,note_on,65,41,0
2,note_on,65,0,120
2,note_on,61,40,0
2,note_on,61,0,120
2,note_on,64,36,120
2,note_on,64,0,120
2,note_on,67,37,0
2,note_on,67,0,120
2,note_on,70,38,0
2,note_on,70,0,120
2,note_on,75,40,0
2,note_on,75,0,120
2,note_on,76,41,0
2,note_on,76,0,120
2,note_on,79,42,0
2,note_on,79,0,120
2,note_on,82,44,0
2,note_on,82,0,120
2,note_on,87,45,0
2,note_on,87,0,120
2,note_on,88,44,0
2,note_on,88,0,120
2,note_on,82,43,0
2,note_on,82,0,120
2,note_on,79,43,0
2,note_on,79,0,120
2,note_on,76,42,0
2,note_on,76,0,120
2,note_on,70,41,0
2,note_on,70,0,120
2,note_on,67,41,0
2,note_on,67,0,120
2,note_on,64,40,0
2,note_on,64,0,120
2,note_on,65,36,120
2,note_on,65,0,120
2,note_on,69,37,0
2,note_on,69,0,120
2,note_on,72,38,0
2,note_on,72,0,120
2,note_on,76,40,0
2,note_on,76,0,120
2,note_on,77,41,0
2,note_on,77,0,120
2,note_on,81,42,0
2,note_on,81,0,120
2,note_on,84,44,0
2,note_on,84,0,120
2,note_on,88,45,0
2,note_on,88,0,120
2,note_on,89,44,0
2,note_on,89,0,120
2,note_on,84,43,0
2,note_on,84,0,120
2,note_on,81,43,0
2,note_on,81,0,120
2,note_on,77,42,0
2,note_on,77,0,120
2,note_on,72,41,0
2,note_on,72,0,120
2,note_on,69,41,0
2,note_on,69,0,120
2,note_on,65,40,0
2,note_on,65,0,120
2,note_on,66,36,120
2,note_on,66,0,120
2,note_on,70,37,0
2,note_on,70,0,120
2,note_on,73,38,0
2,note_on,73,0,120
2,note_on,77,40,0
2,note_on,77,0,120
2,note_on,78,41,0
2,note_on,78,0,120
2,note_on,82,42,0
2,note_on,82,0,120
2,note_on,85,44,0
2,note_on,85,0,120
2,note_on,89,45,0
2,note_on,89,0,120
2,note_on,90,44,0
2,note_on,90,0,120
2,note_on,85,43,0
2,note_on,85,0,120
2,note_on,82,43,0
2,note_on,82,0,120
2,note_on,78,42,0
2,note_on,78,0,120
2,note_on,73,41,0
2,note_on,73,0,120
2,note_on,70,41,0
2,note_on,70,0,120
2,note_on,66,40,0
2,note_on,66,0,120
2,note_on,69,36,120
2,note_on,69,0,120
2,note_on,72,37,0
2,note_on,72,0,120
2,note_on,75,38,0
2,note_on,75,0,120
2,note_on,80,40,0
2,note_on,80,0,120
2,note_on,81,41,0
2,note_on,81,0,120
2,note_on,84,42,0
2,note_on,84,0,120
2,note_on,87,44,0
2,note_on,87,0,120
2,note_on,92,45,0
2,note_on,92,0,120
2,note_on,93,44,0
2,note_on,93,0,120
2,note_on,87,43,0
2,note_on,87,0,120
2,note_on,84,43,0
2,note_on,84,0,120
2,note_on,81,42,0
2,note_on,81,0,120
2,note_on,75,41,0
2,note_on,75,0,120
2,note_on,72,41,0
2,note_on,72,0,120
2,note_on,69,40,0
2,note_on,69,0,120
2,note_on,70,39,120
2,note_on,70,0,120
2,note_on,74,41,0
2,note_on,74,0,120
2,note_on,77,44,0
2,note_on,77,0,120
2,note_on,81,46,0
2,note_on,81,0,120
2,note_on,82,44,0
2,note_on,82,0,120
2,note_on,77,42,0
2,note_on,77,0,120
2,note_on,74,40,0
2,note_on,74,0,120
2,note_on,70,45,0
2,note_on,70,0,120
2,note_on,74,41,0
2,note_on,74,0,120
2,note_on,77,43,0
2,note_on,77,0,120
2,note_on,81,45,0
2,note_on,81,0,120
2,note_on,82,47,0
2,note_on,82,0,120
2,note_on,77,45,0
2,note_on,77,0,120
2,note_on,74,44,0
2,note_on,74,0,120
2,note_on,70,42,0
2,note_on,70,0,120
2,note_on,71,39,120
2,note_on,71,0,120
2,note_on,75,41,0
2,note_on,75,0,120
2,note_on,78,44,0
2,note_on,78,0,120
2,note_on,82,46,0
2,note_on,82,0,120
2,note_on,83,44,0
2,note_on,83,0,120
2,note_on,78,42,0
2,note_on,78,0,120
2,note_on,75,40,0
2,note_on,75,0,120
2,note_on,71,45,0
2,note_on,71,0,120
2,note_on,75,41,0
2,note_on,75,0,120
2,note_on,78,43,0
2,note_on,78,0,120
2,note_on,82,45,0
2,note_on,82,0,120
2,note_on,83,47,0
2,note_on,83,0,120
2,note_on,78,45,0
2,note_on,78,0,120
2,note_on,75,44,0
2,note_on,75,0,120
2,note_on,71,42,0
2,note_on,71,0,120
2,note_on,74,39,120
2,note_on,74,0,120
2,note_on,77,41,0
2,note_on,77,0,120
2,note_on,80,44,0
2,note_on,80,0,120
2,note_on,85,46,0
2,note_on,85,0,120
2,note_on,86,44,0
2,note_on,86,0,120
2,note_on,80,42,0
2,note_on,80,0,120
2,note_on,77,40,0
2,note_on,77,0,120
2,note_on,74,45,0
2,note_on,74,0,120
2,note_on,77,41,0
2,note_on,77,0,120
2,note_on,80,43,0
2,note_on,80,0,120
2,note_on,85,45,0
2,note_on,85,0,120
2,note_on,86,47,0
2,note_on,86,0,120
2,note_on,80,45,0
2,note_on,80,0,120
2,note_on,77,44,0
2,note_on,77,0,120
2,note_on,74,42,0
2,note_on,74,0,120
2,note_on,78,39,120
2,note_on,78,0,120
2,note_on,77,46,0
2,note_on,77,0,120
2,note_on,78,44,0
2,note_on,78,0,120
2,note_on,82,44,120
2,note_on,82,0,120
2,note_on,81,47,0
2,note_on,81,0,120
2,note_on,82,40,0
2,note_on,82,0,120
2,note_on,87,41,120
2,note_on,87,0,120
2,note_on,86,43,0
2,note_on,86,0,120
2,note_on,87,42,0
2,note_on,87,0,120
2,note_on,90,47,0
2,note_on,90,0,120
2,note_on,87,45,0
2,note_on,87,0,120
2,note_on,90,49,0
2,note_on,90,0,120
2,note_on,87,42,0
2,note_on,87,0,120
2,note_on,90,53,0
2,note_on,90,0,120
2,note_on,89,51,0
2,note_on,89,0,120
2,note_on,87,49,0
2,note_on,87,0,120
2,note_on,85,47,0
2,note_on,85,0,120
2,note_on,84,45,0
2,note_on,84,0,120
2,note_on,85,46,0
2,note_on,85,0,120
2,note_on,87,47,0
2,note_on,87,0,120
2,note_on,89,48,0
2,note_on,89,0,120
2,note_on,90,53,0
2,note_on,90,0,120
2,note_on,89,52,0
2,note_on,89,0,120
2,note_on,87,51,0
2,note_on,87,0,120
2,note_on,85,50,0
2,note_on,85,0,120
2,note_on,84,49,0
2,note_on,84,0,120
2,note_on,82,48,0
2,note_on,82,0,120
2,note_on,80,47,0
2,note_on,80,0,120
2,note_on,78,46,0
2,note_on,78,0,120
2,note_on,77,39,120
2,note_on,77,0,120
2,note_on,76,46,0
2,note_on,76,0,120
2,note_on,77,44,0
2,note_on,77,0,120
2,note_on,80,44,120
2,note_on,80,0,120
2,note_on,79,47,0
2,note_on,79,0,120
2,note_on,80,40,0
2,note_on,80,0,120
2,note_on,85,41,120
2,note_on,85,0,120
2,note_on,84,43,0
2,note_on,84,0,120
2,note_on,85,42,0
2,note_on,85,0,120
2,note_on,89,47,0
2,note_on,89,0,120
2,note_on,85,45,0
2,note_on,85,0,120
2,note_on,89,49,0
2,note_on,89,0,120
2,note_on,85,42,0
2,note_on,85,0,120
2,note_on,89,53,0
2,note_on,89,0,120
2,note_on,87,51,0
2,note_on,87,0,120
2,note_on,86,49,0
2,note_on,86,0,120
2,note_on,84,47,0
2,note_on,84,0,120
2,note_on,83,45,0
2,note_on,83,0,120
2,note_on,84,46,0
2,note_on,84,0,120
2,note_on,86,47,0
2,note_on,86,0,120
2,note_on,87,48,0
2,note_on,87,0,120
2,note_on,89,53,0
2,note_on,89,0,120
2,note_on,87,52,0
2,note_on,87,0,120
2,note_on,86,51,0
2,note_on,86,0,120
2,note_on,84,50,0
2,note_on,84,0,120
2,note_on,83,49,0
2,note_on,83,0,120
2,note_on,80,48,0
2,note_on,80,0,120
2,note_on,79,47,0
2,note_on,79,0,120
2,note_on,77,46,0
2,note_on,77,0,120
2,note_on,75,39,120
2,note_on,75,0,120
2,note_on,74,46,0
2,note_on,74,0,120
2,note_on,75,44,0
2,note_on,75,0,120
2,note_on,79,44,120
2,note_on,79,0,120
2,note_on,78,47,0
2,note_on,78,0,120
2,note_on,79,40,0
2,note_on,79,0,120
2,note_on,83,41,120
2,note_on,83,0,120
2,note_on,84,43,0
2,note_on,84,0,120
2,note_on,83,42,0
2,note_on,83,0,120
2,note_on,84,47,0
2,note_on,84,0,120
2,note_on,86,45,0
2,note_on,86,0,120
2,note_on,87,49,0
2,note_on,87,0,120
2,note_on,90,42,0
2,note_on,90,0,120
2,note_on,91,53,0
2,note_on,91,0,120
2,note_on,86,51,0
2,note_on,86,0,120
2,note_on,83,49,0
2,note_on,83,0,120
2,note_on,79,47,0
2,note_on,79,0,120
2,note_on,78,45,0
2,note_on,78,0,120
2,note_on,79,46,0
2,note_on,79,0,120
2,note_on,83,47,0
2,note_on,83,0,120
2,note_on,86,48,0
2,note_on,86,0,120
2,note_on,87,53,0
2,note_on,87,0,120
2,note_on,84,51,0
2,note_on,84,0,120
2,note_on,79,49,0
2,note_on,79,0,120
2,note_on,75,47,0
2,note_on,75,0,120
2,note_on,84,51,0
2,note_on,84,0,120
2,note_on,79,50,0
2,note_on,79,0,120
2,note_on,75,49,0
2,note_on,75,0,120
2,note_on,72,48,0
2,note_on,72,0,120
2,note_on,83,53,0
2,note_on,83,0,120
2,note_on,79,51,0
2,note_on,79,0,120
2,note_on,74,49,0
2,note_on,74,0,120
2,note_on,71,47,0
2,note_on,71,0,120
2,note_on,79,51,0
2,note_on,79,0,120
2,note_on,74,50,0
2,note_on,74,0,120
2,note_on,71,49,0
2,note_on,71,0,120
2,note_on,67,48,0
2,note_on,67,0,120
2,note_on,75,53,0
2,note_on,75,0,120
2,note_on,72,51,0
2,note_on,72,0,120
2,note_on,67,49,0
2,note_on,67,0,120
2,note_on,63,47,0
2,note_on,63,0,120
2,note_on,72,51,0
2,note_on,72,0,120
2,note_on,67,50,0
2,note_on,67,0,120
2,note_on,63,49,0
2,note_on,63,0,120
2,note_on,60,48,0
2,note_on,60,0,120
2,note_on,71,53,0
2,note_on,71,0,120
2,note_on,67,51,0
2,note_on,67,0,120
2,note_on,62,49,0
2,note_on,62,0,120
2,note_on,59,47,0
2,note_on,59,0,120
2,note_on,62,47,0
2,note_on,62,0,120
2,note_on,65,48,0
2,note_on,65,0,120
2,note_on,71,50,0
2,note_on,71,0,120
2,note_on,74,52,0
2,note_on,74,0,120
2,note_on,72,53,0
2,note_on,72,0,120
2,note_on,67,51,0
2,note_on,67,0,120
2,note_on,63,49,0
2,note_on,63,0,120
2,note_on,60,47,0
2,note_on,60,0,120
2,note_on,67,51,0
2,note_on,67,0,120
2,note_on,63,50,0
2,note_on,63,0,120
2,note_on,60,49,0
2,note_on,60,0,120
2,note_on,55,48,0
2,note_on,55,0,120
2,note_on,67,79,0
2,note_on,67,0,120
2,note_on,62,75,0
2,note_on,62,0,120
2,note_on,59,75,0
2,note_on,59,0,120
2,note_on,55,70,0
2,note_on,55,0,120
2,note_on,59,75,0
2,note_on,59,0,120
2,note_on,62,71,0
2,note_on,62,0,120
2,note_on,59,71,0
2,note_on,59,0,120
2,note_on,55,71,0
2,note_on,55,0,120
2,note_on,60,70,0
2,note_on,60,0,120
2,note_on,55,61,0
2,note_on,55,0,120
2,note_on,51,61,0
2,note_on,51,0,120
2,note_on,55,60,0
2,note_on,55,0,120
2,note_on,51,64,0
2,note_on,51,0,120
2,note_on,55,54,0
2,note_on,55,0,120
2,note_on,51,54,0
2,note_on,51,0,120
2,note_on,48,54,0
2,note_on,48,0,120
2,note_on,55,34,120
2,note_on,55,0,120
2,note_on,50,34,0
2,note_on,50,0,120
2,note_on,47,34,0
2,note_on,47,0,120
2,note_on,55,34,120
2,note_on,55,0,120
2,note_on,50,34,0
2,note_on,50,0,120
2,note_on,47,34,0
2,note_on,47,0,120
2,note_on,55,34,120
2,note_on,55,0,120
2,note_on,50,34,0
2,note_on,50,0,120
2,note_on,47,34,0
2,note_on,47,0,120
2,note_on,55,34,120
2,note_on,55,0,120
2,note_on,50,34,0
2,note_on,50,0,120
2,note_on,47,34,0
2,note_on,47,0,120
2,note_on,57,34,120
2,note_on,57,0,120
2,note_on,51,34,0
2,note_on,51,0,120
2,note_on,48,34,0
2,note_on,48,0,120
2,note_on,57,34,120
2,note_on,57,0,120
2,note_on,51,34,0
2,note_on,51,0,120
2,note_on,48,34,0
2,note_on,48,0,120
2,note_on,57,34,120
2,note_on,57,0,120
2,note_on,51,34,0
2,note_on,51,0,120
2,note_on,48,34,0
2,note_on,48,0,120
2,note_on,57,34,120
2,note_on,57,0,120
2,note_on,51,34,0
2,note_on,51,0,120
2,note_on,48,34,0
2,note_on,48,0,120
2,note_on,55,34,120
2,note_on,55,0,120
2,note_on,50,34,0
2,note_on,50,0,120
2,note_on,47,34,0
2,note_on,47,0,120
2,note_on,55,34,120
2,note_on,55,0,120
2,note_on,50,34,0
2,note_on,50,0,120
2,note_on,47,34,0
2,note_on,47,0,120
2,note_on,55,34,120
2,note_on,55,0,120
2,note_on,50,34,0
2,note_on,50,0,120
2,note_on,47,34,0
2,note_on,47,0,120
2,note_on,55,34,120
2,note_on,55,0,120
2,note_on,50,34,0
2,note_on,50,0,120
2,note_on,47,34,0
2,note_on,47,0,120
2,note_on,57,34,120
2,note_on,57,0,120
2,note_on,51,34,0
2,note_on,51,0,120
2,note_on,48,34,0
2,note_on,48,0,120
2,note_on,57,34,120
2,note_on,57,0,120
2,note_on,51,34,0
2,note_on,51,0,120
2,note_on,48,34,0
2,note_on,48,0,120
2,note_on,57,34,120
2,note_on,57,0,120
2,note_on,51,34,0
2,note_on,51,0,120
2,note_on,48,34,0
2,note_on,48,0,120
2,note_on,57,34,120
2,note_on,57,0,120
2,note_on,51,34,0
2,note_on,51,0,120
2,note_on,48,34,0
2,note_on,48,0,120
2,note_on,55,77,0
2,note_on,55,0,120
2,note_on,50,60,0
2,note_on,50,0,120
2,note_on,47,60,0
2,note_on,47,0,120
2,note_on,50,60,0
2,note_on,50,0,120
2,note_on,55,76,0
2,note_on,55,0,120
2,note_on,50,60,0
2,note_on,50,0,120
2,note_on,47,60,0
2,note_on,47,0,120
2,note_on,50,60,0
2,note_on,50,0,120
2,note_on,55,76,0
2,note_on,55,0,120
2,note_on,50,59,0
2,note_on,50,0,120
2,note_on,47,59,0
2,note_on,47,0,120
2,note_on,50,59,0
2,note_on,50,0,120
2,note_on,55,67,0
2,note_on,55,0,120
2,note_on,50,61,0
2,note_on,50,0,120
2,note_on,47,61,0
2,note_on,47,0,120
2,note_on,50,61,0
2,note_on,50,0,120
2,note_on,59,77,0
2,note_on,59,0,120
2,note_on,55,60,0
2,note_on,55,0,120
2,note_on,50,60,0
2,note_on,50,0,120
2,note_on,55,60,0
2,note_on,55,0,120
2,note_on,59,76,0
2,note_on,59,0,120
2,note_on,55,60,0
2,note_on,55,0,120
2,note_on,50,60,0
2,note_on,50,0,120
2,note_on,55,60,0
2,note_on,55,0,120
2,note_on,59,76,0
2,note_on,59,0,120
2,note_on,55,59,0
2,note_on,55,0,120
2,note_on,50,59,0
2,note_on,50,0,120
2,note_on,55,59,0
2,note_on,55,0,120
2,note_on,59,66,0
2,note_on,59,0,120
2,note_on,55,58,0
2,note_on,55,0,120
2,note_on,50,58,0
2,note_on,50,0,120
2,note_on,55,58,0
2,note_on,55,0,120
2,note_on,62,77,0
2,note_on,62,0,120
2,note_on,59,60,0
2,note_on,59,0,120
2,note_on,55,60,0
2,note_on,55,0,120
2,note_on,59,60,0
2,note_on,59,0,120
2,note_on,62,76,0
2,note_on,62,0,120
2,note_on,59,60,0
2,note_on,59,0,120
2,note_on,55,60,0
2,note_on,55,0,120
2,note_on,59,60,0
2,note_on,59,0,120
2,note_on,62,76,0
2,note_on,62,0,120
2,note_on,59,59,0
2,note_on,59,0,120
2,note_on,55,59,0
2,note_on,55,0,120
2,note_on,59,59,0
2,note_on,59,0,120
2,note_on,62,66,0
2,note_on,62,0,120
2,note_on,59,58,0
2,note_on,59,0,120
2,note_on,55,58,0
2,note_on,55,0,120
2,note_on,59,58,0
2,note_on,59,0,120
2,note_on,65,64,0
2,note_on,65,0,120
2,note_on,59,39,0
2,note_on,62,50,0
2,note_on,62,0,120
2,note_on,59,0,0
2,note_on,55,49,0
2,note_on,55,0,120
2,note_on,62,49,0
2,note_on,59,39,0
2,note_on,59,0,120
2,note_on,62,0,0
2,note_on,65,58,0
2,note_on,65,0,120
2,note_on,62,47,0
2,note_on,59,38,0
2,note_on,59,0,120
2,note_on,62,0,0
2,note_on,55,47,0
2,note_on,55,0,120
2,note_on,62,47,0
2,note_on,59,37,0
2,note_on,59,0,120
2,note_on,62,0,0
2,note_on,65,61,0
2,note_on,65,0,120
2,note_on,59,37,0
2,note_on,62,47,0
2,note_on,62,0,120
2,note_on,59,0,0
2,note_on,55,47,0
2,note_on,55,0,120
2,note_on,62,46,0
2,note_on,59,35,0
2,note_on,59,0,120
2,note_on,62,0,0
2,note_on,65,54,0
2,note_on,65,0,120
2,note_on,62,44,0
2,note_on,59,35,0
2,note_on,59,0,120
2,note_on,62,0,0
2,note_on,55,44,0
2,note_on,55,0,120
2,note_on,62,43,0
2,note_on,59,34,0
2,note_on,59,0,120
2,note_on,62,0,0
2,note_on,65,56,0
2,note_on,65,0,120
2,note_on,59,33,0
2,note_on,62,42,0
2,note_on,62,0,120
2,note_on,59,0,0
2,note_on,55,42,0
2,note_on,55,0,120
2,note_on,62,42,0
2,note_on,59,32,0
2,note_on,59,0,120
2,note_on,62,0,0
2,note_on,65,49,0
2,note_on,65,0,120
2,note_on,62,39,0
2,note_on,59,32,0
2,note_on,59,0,120
2,note_on,62,0,0
2,note_on,55,39,0
2,note_on,55,0,120
2,note_on,62,39,0
2,note_on,59,31,0
2,note_on,59,0,120
2,note_on,62,0,0
2,note_on,65,50,0
2,note_on,65,0,120
2,note_on,59,30,0
2,note_on,62,39,0
2,note_on,62,0,120
2,note_on,59,0,0
2,note_on,55,39,0
2,note_on,55,0,120
2,note_on,62,38,0
2,note_on,59,29,0
2,note_on,59,0,120
2,note_on,62,0,0
2,note_on,65,45,0
2,note_on,65,0,120
2,note_on,62,36,0
2,note_on,59,29,0
2,note_on,59,0,120
2,note_on,62,0,0
2,note_on,55,35,0
2,note_on,55,0,120
2,note_on,62,35,0
2,note_on,59,28,0
2,note_on,59,0,120
2,note_on,62,0,0
2,note_on,65,43,0
2,note_on,65,0,120
2,note_on,59,26,0
2,note_on,62,33,0
2,note_on,62,0,120
2,note_on,59,0,0
2,note_on,55,33,0
2,note_on,55,0,120
2,note_on,62,31,0
2,note_on,59,24,0
2,note_on,59,0,120
2,note_on,62,0,0
2,note_on,65,38,0
2,note_on,65,0,120
2,note_on,62,31,0
2,note_on,59,24,0
2,note_on,59,0,120
2,note_on,62,0,0
2,note_on,55,30,0
2,note_on,55,0,120
2,note_on,62,30,0
2,note_on,59,23,0
2,note_on,59,0,120
2,note_on,62,0,0
2,note_on,65,42,0
2,note_on,65,0,120
2,note_on,59,25,0
2,note_on,62,31,0
2,note_on,62,0,120
2,note_on,59,0,0
2,note_on,55,31,0
2,note_on,55,0,120
2,note_on,62,30,0
2,note_on,59,24,0
2,note_on,59,0,120
2,note_on,62,0,0
2,note_on,65,38,0
2,note_on,65,0,120
2,note_on,62,30,0
2,note_on,59,23,0
2,note_on,59,0,120
2,note_on,62,0,0
2,note_on,55,30,0
2,note_on,55,0,120
2,note_on,62,30,0
2,note_on,59,22,0
2,note_on,59,0,120
2,note_on,62,0,0
2,note_on,65,40,0
2,note_on,65,0,120
2,note_on,59,24,0
2,note_on,62,30,0
2,note_on,62,0,120
2,note_on,59,0,0
2,note_on,55,30,0
2,note_on,55,0,120
2,note_on,62,30,0
2,note_on,59,23,0
2,note_on,59,0,120
2,note_on,62,0,0
2,note_on,65,36,0
2,note_on,65,0,120
2,note_on,62,30,0
2,note_on,59,23,0
2,note_on,59,0,120
2,note_on,62,0,0
2,note_on,55,29,0
2,note_on,55,0,120
2,note_on,62,29,0
2,note_on,59,21,0
2,note_on,59,0,120
2,note_on,62,0,0
2,note_on,65,40,0
2,note_on,65,0,120
2,note_on,59,23,0
2,note_on,62,31,0
2,note_on,62,0,120
2,note_on,59,0,0
2,note_on,55,30,0
2,note_on,55,0,120
2,note_on,62,29,0
2,note_on,59,23,0
2,note_on,59,0,120
2,note_on,62,0,0
2,note_on,65,35,0
2,note_on,65,0,120
2,note_on,62,29,0
2,note_on,59,23,0
2,note_on,59,0,120
2,note_on,62,0,0
2,note_on,55,28,0
2,note_on,55,0,120
2,note_on,62,28,0
2,note_on,59,22,0
2,note_on,59,0,120
2,note_on,62,0,0
2,note_on,65,39,0
2,note_on,65,0,120
2,note_on,59,23,0
2,note_on,62,30,0
2,note_on,62,0,120
2,note_on,59,0,0
2,note_on,55,30,0
2,note_on,55,0,120
2,note_on,62,29,0
2,note_on,59,23,0
2,note_on,59,0,120
2,note_on,62,0,0
2,note_on,65,36,0
2,note_on,65,0,120
2,note_on,62,29,0
2,note_on,59,23,0
2,note_on,59,0,120
2,note_on,62,0,0
2,note_on,55,28,0
2,note_on,55,0,120
2,note_on,62,28,0
2,note_on,59,22,0
2,note_on,59,0,120
2,note_on,62,0,0
2,note_on,65,39,0
2,note_on,65,0,120
2,note_on,59,24,0
2,note_on,62,30,0
2,note_on,62,0,120
2,note_on,59,0,0
2,note_on,55,30,0
2,note_on,55,0,120
2,note_on,62,29,0
2,note_on,59,23,0
2,note_on,59,0,120
2,note_on,62,0,0
2,note_on,65,36,0
2,note_on,65,0,120
2,note_on,62,29,0
2,note_on,59,23,0
2,note_on,59,0,120
2,note_on,62,0,0
2,note_on,55,28,0
2,note_on,55,0,120
2,note_on,62,28,0
2,note_on,59,22,0
2,note_on,59,0,120
2,note_on,62,0,0
2,note_on,65,40,0
2,note_on,65,0,120
2,note_on,59,24,0
2,note_on,62,31,0
2,note_on,62,0,120
2,note_on,59,0,0
2,note_on,55,31,0
2,note_on,55,0,120
2,note_on,62,30,0
2,note_on,59,23,0
2,note_on,59,0,120
2,note_on,62,0,0
2,note_on,65,36,0
2,note_on,65,0,120
2,note_on,62,30,0
2,note_on,59,23,0
2,note_on,59,0,120
2,note_on,62,0,0
2,note_on,55,29,0
2,note_on,55,0,120
2,note_on,62,29,0
2,note_on,59,22,0
2,note_on,59,0,120
2,note_on,62,0,0
2,note_on,65,40,0
2,note_on,65,0,120
2,note_on,59,24,0
2,note_on,62,31,0
2,note_on,62,0,120
2,note_on,59,0,0
2,note_on,55,31,0
2,note_on,55,0,120
2,note_on,62,30,0
2,note_on,59,23,0
2,note_on,59,0,120
2,note_on,62,0,0
2,note_on,59,68,0
2,note_on,71,80,0
2,note_on,71,0,120
2,note_on,59,0,0
2,note_on,62,68,0
2,note_on,59,57,0
2,note_on,59,0,120
2,note_on,62,0,0
2,note_on,59,57,0
2,note_on,71,69,0
2,note_on,71,0,120
2,note_on,59,0,0
2,note_on,62,69,0
2,note_on,59,57,0
2,note_on,59,0,120
2,note_on,62,0,0
2,note_on,60,87,0
2,note_on,64,91,0
2,note_on,72,104,0
2,note_on,72,0,120
2,note_on,64,0,0
2,note_on,60,0,0
2,note_on,91,94,360
2,note_on,79,77,0
2,note_on,79,0,240
2,note_on,91,0,0
2,note_on,91,100,240
2,note_on,79,84,0
2,note_on,79,0,720
2,note_on,91,0,0
2,note_on,88,87,0
2,note_on,76,73,0
2,note_on,76,0,240
2,note_on,88,0,0
2,note_on,86,94,0
2,note_on,74,77,0
2,note_on,74,0,480
2,note_on,86,0,0
2,note_on,79,76,0
2,note_on,67,63,0
2,note_on,67,0,480
2,note_on,79,0,0
2,note_on,84,88,0
2,note_on,72,75,0
2,note_on,72,0,480
2,note_on,84,0,0
2,note_on,88,87,0
2,note_on,76,73,0
2,note_on,76,0,240
2,note_on,88,0,0
2,note_on,91,94,720
2,note_on,79,77,0
2,note_on,79,0,240
2,note_on,91,0,0
2,note_on,91,100,240
2,note_on,79,84,0
2,note_on,79,0,720
2,note_on,91,0,0
2,note_on,88,87,0
2,note_on,76,73,0
2,note_on,76,0,240
2,note_on,88,0,0
2,note_on,86,94,0
2,note_on,74,77,0
2,note_on,74,0,480
2,note_on,86,0,0
2,note_on,79,76,0
2,note_on,67,63,0
2,note_on,67,0,480
2,note_on,79,0,0
2,note_on,84,83,0
2,note_on,72,69,0
2,note_on,72,0,240
2,note_on,84,0,0
2,note_on,89,82,1200
2,note_on,77,69,0
2,note_on,77,0,240
2,note_on,89,0,0
2,note_on,89,86,240
2,note_on,77,73,0
2,note_on,77,0,720
2,note_on,89,0,0
2,note_on,86,55,0
2,note_on,74,45,0
2,note_on,74,0,240
2,note_on,86,0,0
2,note_on,88,52,0
2,note_on,76,44,0
2,note_on,76,0,480
2,note_on,88,0,0
2,note_on,84,42,0
2,note_on,72,35,0
2,note_on,72,0,480
2,note_on,84,0,0
2,note_on,83,52,0
2,note_on,71,44,0
2,note_on,71,0,480
2,note_on,83,0,0
2,note_on,86,49,0
2,note_on,74,41,0
2,note_on,74,0,240
2,note_on,86,0,0
2,note_on,89,78,720
2,note_on,77,66,0
2,note_on,77,0,240
2,note_on,89,0,0
2,note_on,89,85,240
2,note_on,77,71,0
2,note_on,77,0,720
2,note_on,89,0,0
2,note_on,86,62,0
2,note_on,74,51,0
2,note_on,74,0,240
2,note_on,86,0,0
2,note_on,87,50,0
2,note_on,75,42,0
2,note_on,75,0,480
2,note_on,87,0,0
2,note_on,84,39,0
2,note_on,72,33,0
2,note_on,72,0,480
2,note_on,84,0,0
2,note_on,83,50,0
2,note_on,71,42,0
2,note_on,71,0,480
2,note_on,83,0,0
2,note_on,86,45,0
2,note_on,74,38,0
2,note_on,74,0,480
2,note_on,86,0,0
2,note_on,88,60,0
2,note_on,76,50,0
2,note_on,76,0,480
2,note_on,88,0,0
2,note_on,84,50,0
2,note_on,72,42,0
2,note_on,72,0,480
2,note_on,84,0,0
2,note_on,83,63,0
2,note_on,71,54,0
2,note_on,71,0,480
2,note_on,83,0,0
2,note_on,86,62,0
2,note_on,74,52,0
2,note_on,74,0,480
2,note_on,86,0,0
2,note_on,87,60,0
2,note_on,75,60,0
2,note_on,75,0,480
2,note_on,87,0,0
2,note_on,84,49,0
2,note_on,72,40,0
2,note_on,72,0,480
2,note_on,84,0,0
2,note_on,79,50,0
2,note_on,79,0,480
2,note_on,79,47,0
2,note_on,79,0,480
2,note_on,81,37,0
2,note_on,81,0,80
2,note_on,79,37,0
2,note_on,79,0,80
2,note_on,81,37,0
2,note_on,81,0,80
2,note_on,79,37,0
2,note_on,79,0,80
2,note_on,81,38,0
2,note_on,81,0,80
2,note_on,79,38,0
2,note_on,79,0,80
2,note_on,81,39,0
2,note_on,81,0,80
2,note_on,79,39,0
2,note_on,79,0,80
2,note_on,81,39,0
2,note_on,81,0,80
2,note_on,79,39,0
2,note_on,79,0,80
2,note_on,81,40,0
2,note_on,81,0,80
2,note_on,79,40,0
2,note_on,79,0,80
2,note_on,81,41,0
2,note_on,81,0,80
2,note_on,79,41,0
2,note_on,79,0,80
2,note_on,81,41,0
2,note_on,81,0,80
2,note_on,79,43,0
2,note_on,79,0,80
2,note_on,81,43,0
2,note_on,81,0,80
2,note_on,79,43,0
2,note_on,79,0,80
2,note_on,81,44,0
2,note_on,81,0,80
2,note_on,79,44,0
2,note_on,79,0,80
2,note_on,81,45,0
2,note_on,81,0,80
2,note_on,79,45,0
2,note_on,79,0,80
2,note_on,81,45,0
2,note_on,81,0,80
2,note_on,79,45,0
2,note_on,79,0,80
2,note_on,81,47,0
2,note_on,81,0,80
2,note_on,79,47,0
2,note_on,79,0,80
2,note_on,81,47,0
2,note_on,81,0,80
2,note_on,79,47,0
2,note_on,79,0,80
2,note_on,81,47,0
2,note_on,81,0,80
2,note_on,79,48,0
2,note_on,79,0,80
2,note_on,81,48,0
2,note_on,81,0,80
2,note_on,79,48,0
2,note_on,79,0,80
2,note_on,81,49,0
2,note_on,81,0,80
2,note_on,79,49,0
2,note_on,79,0,80
2,note_on,81,50,0
2,note_on,81,0,80
2,note_on,79,51,0
2,note_on,79,0,80
2,note_on,81,51,0
2,note_on,81,0,80
2,note_on,79,52,0
2,note_on,79,0,80
2,note_on,81,52,0
2,note_on,81,0,80
2,note_on,79,52,0
2,note_on,79,0,80
2,note_on,81,54,0
2,note_on,81,0,80
2,note_on,79,54,0
2,note_on,79,0,80
2,note_on,81,54,0
2,note_on,81,0,80
2,note_on,79,55,0
2,note_on,79,0,80
2,note_on,81,55,0
2,note_on,81,0,80
2,note_on,79,55,0
2,note_on,79,0,80
2,note_on,81,56,0
2,note_on,81,0,80
2,note_on,79,56,0
2,note_on,79,0,80
2,note_on,91,89,480
2,note_on,91,0,240
2,note_on,91,90,240
2,note_on,91,0,720
2,note_on,88,85,0
2,note_on,88,0,240
2,note_on,86,90,0
2,note_on,86,0,480
2,note_on,79,84,0
2,note_on,79,0,480
2,note_on,84,87,0
2,note_on,84,0,480
2,note_on,88,84,0
2,note_on,88,0,240
2,note_on,91,90,720
2,note_on,91,0,240
2,note_on,91,92,240
2,note_on,91,0,720
2,note_on,88,84,0
2,note_on,88,0,240
2,note_on,86,90,0
2,note_on,86,0,480
2,note_on,79,82,0
2,note_on,79,0,480
2,note_on,84,86,0
2,note_on,84,0,240
2,note_on,60,68,240
2,note_on,60,0,80
2,note_on,64,62,0
2,note_on,64,0,80
2,note_on,60,62,0
2,note_on,60,0,80
2,note_on,55,62,0
2,note_on,55,0,80
2,note_on,52,62,0
2,note_on,52,0,80
2,note_on,55,62,0
2,note_on,55,0,80
2,note_on,60,68,0
2,note_on,60,0,80
2,note_on,65,62,0
2,note_on,65,0,80
2,note_on,60,62,0
2,note_on,60,0,80
2,note_on,57,62,0
2,note_on,57,0,80
2,note_on,53,62,0
2,note_on,53,0,80
2,note_on,57,62,0
2,note_on,57,0,80
2,note_on,60,68,0
2,note_on,60,0,80
2,note_on,64,61,0
2,note_on,64,0,80
2,note_on,60,61,0
2,note_on,60,0,80
2,note_on,55,61,0
2,note_on,55,0,80
2,note_on,52,61,0
2,note_on,52,0,80
2,note_on,55,61,0
2,note_on,55,0,80
2,note_on,60,63,0
2,note_on,60,0,80
2,note_on,62,59,0
2,note_on,62,0,80
2,note_on,60,59,0
2,note_on,60,0,80
2,note_on,53,59,0
2,note_on,53,0,80
2,note_on,50,59,0
2,note_on,50,0,80
2,note_on,53,59,0
2,note_on,53,0,80
2,note_on,60,68,0
2,note_on,60,0,80
2,note_on,63,61,0
2,note_on,63,0,80
2,note_on,60,61,0
2,note_on,60,0,80
2,note_on,54,61,0
2,note_on,54,0,80
2,note_on,51,61,0
2,note_on,51,0,80
2,note_on,54,61,0
2,note_on,54,0,80
2,note_on,60,68,0
2,note_on,60,0,80
2,note_on,64,62,0
2,note_on,64,0,80
2,note_on,60,62,0
2,note_on,60,0,80
2,note_on,55,62,0
2,note_on,55,0,80
2,note_on,52,62,0
2,note_on,52,0,80
2,note_on,55,62,0
2,note_on,55,0,80
2,note_on,59,68,0
2,note_on,59,0,80
2,note_on,62,61,0
2,note_on,62,0,80
2,note_on,59,61,0
2,note_on,59,0,80
2,note_on,53,61,0
2,note_on,53,0,80
2,note_on,50,61,0
2,note_on,50,0,80
2,note_on,53,61,0
2,note_on,53,0,80
2,note_on,55,68,0
2,note_on,55,0,80
2,note_on,60,62,0
2,note_on,60,0,80
2,note_on,55,62,0
2,note_on,55,0,80
2,note_on,52,62,0
2,note_on,52,0,80
2,note_on,48,62,0
2,note_on,48,0,80
2,note_on,52,62,0
2,note_on,52,0,80
2,note_on,64,68,0
2,note_on,64,0,80
2,note_on,67,62,0
2,note_on,67,0,80
2,note_on,64,62,0
2,note_on,64,0,80
2,note_on,60,62,0
2,note_on,60,0,80
2,note_on,55,62,0
2,note_on,55,0,80
2,note_on,60,62,0
2,note_on,60,0,80
2,note_on,65,68,0
2,note_on,65,0,80
2,note_on,69,62,0
2,note_on,69,0,80
2,note_on,65,62,0
2,note_on,65,0,80
2,note_on,60,62,0
2,note_on,60,0,80
2,note_on,57,62,0
2,note_on,57,0,80
2,note_on,60,62,0
2,note_on,60,0,80
2,note_on,64,68,0
2,note_on,64,0,80
2,note_on,67,61,0
2,note_on,67,0,80
2,note_on,64,61,0
2,note_on,64,0,80
2,note_on,60,61,0
2,note_on,60,0,80
2,note_on,55,61,0
2,note_on,55,0,80
2,note_on,60,61,0
2,note_on,60,0,80
2,note_on,62,63,0
2,note_on,62,0,80
2,note_on,65,59,0
2,note_on,65,0,80
2,note_on,62,59,0
2,note_on,62,0,80
2,note_on,60,59,0
2,note_on,60,0,80
2,note_on,53,59,0
2,note_on,53,0,80
2,note_on,60,59,0
2,note_on,60,0,80
2,note_on,63,68,0
2,note_on,63,0,80
2,note_on,66,61,0
2,note_on,66,0,80
2,note_on,63,61,0
2,note_on,63,0,80
2,note_on,60,61,0
2,note_on,60,0,80
2,note_on,54,61,0
2,note_on,54,0,80
2,note_on,60,61,0
2,note_on,60,0,80
2,note_on,64,68,0
2,note_on,64,0,80
2,note_on,67,62,0
2,note_on,67,0,80
2,note_on,64,62,0
2,note_on,64,0,80
2,note_on,60,62,0
2,note_on,60,0,80
2,note_on,55,62,0
2,note_on,55,0,80
2,note_on,60,62,0
2,note_on,60,0,80
2,note_on,62,68,0
2,note_on,62,0,80
2,note_on,65,61,0
2,note_on,65,0,80
2,note_on,62,61,0
2,note_on,62,0,80
2,note_on,59,61,0
2,note_on,59,0,80
2,note_on,53,61,0
2,note_on,53,0,80
2,note_on,59,61,0
2,note_on,59,0,80
2,note_on,60,68,0
2,note_on,60,0,80
2,note_on,64,62,0
2,note_on,64,0,80
2,note_on,60,62,0
2,note_on,60,0,80
2,note_on,55,62,0
2,note_on,55,0,80
2,note_on,52,62,0
2,note_on,52,0,80
2,note_on,55,62,0
2,note_on,55,0,80
2,note_on,67,68,0
2,note_on,67,0,80
2,note_on,72,59,0
2,note_on,72,0,80
2,note_on,67,59,0
2,note_on,67,0,80
2,note_on,64,67,0
2,note_on,64,0,80
2,note_on,60,58,0
2,note_on,60,0,80
2,note_on,64,58,0
2,note_on,64,0,80
2,note_on,69,71,0
2,note_on,69,0,80
2,note_on,72,61,0
2,note_on,72,0,80
2,note_on,69,61,0
2,note_on,69,0,80
2,note_on,65,67,0
2,note_on,65,0,80
2,note_on,60,60,0
2,note_on,60,0,80
2,note_on,65,60,0
2,note_on,65,0,80
2,note_on,67,68,0
2,note_on,67,0,80
2,note_on,72,59,0
2,note_on,72,0,80
2,note_on,67,60,0
2,note_on,67,0,80
2,note_on,64,67,0
2,note_on,64,0,80
2,note_on,60,58,0
2,note_on,60,0,80
2,note_on,64,58,0
2,note_on,64,0,80
2,note_on,65,70,0
2,note_on,65,0,80
2,note_on,72,59,0
2,note_on,72,0,80
2,note_on,65,59,0
2,note_on,65,0,80
2,note_on,62,67,0
2,note_on,62,0,80
2,note_on,60,60,0
2,note_on,60,0,80
2,note_on,62,59,0
2,note_on,62,0,80
2,note_on,66,66,0
2,note_on,66,0,80
2,note_on,72,57,0
2,note_on,72,0,80
2,note_on,66,60,0
2,note_on,66,0,80
2,note_on,63,70,0
2,note_on,63,0,80
2,note_on,60,58,0
2,note_on,60,0,80
2,note_on,63,58,0
2,note_on,63,0,80
2,note_on,67,71,0
2,note_on,67,0,80
2,note_on,72,61,0
2,note_on,72,0,80
2,note_on,67,61,0
2,note_on,67,0,80
2,note_on,64,67,0
2,note_on,64,0,80
2,note_on,60,60,0
2,note_on,60,0,80
2,note_on,64,60,0
2,note_on,64,0,80
2,note_on,65,68,0
2,note_on,65,0,80
2,note_on,72,56,0
2,note_on,72,0,80
2,note_on,65,57,0
2,note_on,65,0,80
2,note_on,62,62,0
2,note_on,62,0,80
2,note_on,59,58,0
2,note_on,59,0,80
2,note_on,62,58,0
2,note_on,62,0,80
2,note_on,67,63,0
2,note_on,67,0,80
2,note_on,72,57,0
2,note_on,72,0,80
2,note_on,67,57,0
2,note_on,67,0,80
2,note_on,64,60,0
2,note_on,64,0,80
2,note_on,60,57,0
2,note_on,60,0,80
2,note_on,64,57,0
2,note_on,64,0,80
2,note_on,72,68,0
2,note_on,72,0,80
2,note_on,76,59,0
2,note_on,76,0,80
2,note_on,72,59,0
2,note_on,72,0,80
2,note_on,67,67,0
2,note_on,67,0,80
2,note_on,64,58,0
2,note_on,64,0,80
2,note_on,67,58,0
2,note_on,67,0,80
2,note_on,72,71,0
2,note_on,72,0,80
2,note_on,77,61,0
2,note_on,77,0,80
2,note_on,72,61,0
2,note_on,72,0,80
2,note_on,69,67,0
2,note_on,69,0,80
2,note_on,65,60,0
2,note_on,65,0,80
2,note_on,69,60,0
2,note_on,69,0,80
2,note_on,72,68,0
2,note_on,72,0,80
2,note_on,76,59,0
2,note_on,76,0,80
2,note_on,72,60,0
2,note_on,72,0,80
2,note_on,67,67,0
2,note_on,67,0,80
2,note_on,64,58,0
2,note_on,64,0,80
2,note_on,67,58,0
2,note_on,67,0,80
2,note_on,72,70,0
2,note_on,72,0,80
2,note_on,74,59,0
2,note_on,74,0,80
2,note_on,72,59,0
2,note_on,72,0,80
2,note_on,65,67,0
2,note_on,65,0,80
2,note_on,62,60,0
2,note_on,62,0,80
2,note_on,65,59,0
2,note_on,65,0,80
2,note_on,72,66,0
2,note_on,72,0,80
2,note_on,75,57,0
2,note_on,75,0,80
2,note_on,72,60,0
2,note_on,72,0,80
2,note_on,66,70,0
2,note_on,66,0,80
2,note_on,63,58,0
2,note_on,63,0,80
2,note_on,66,58,0
2,note_on,66,0,80
2,note_on,72,71,0
2,note_on,72,0,80
2,note_on,76,61,0
2,note_on,76,0,80
2,note_on,72,61,0
2,note_on,72,0,80
2,note_on,67,67,0
2,note_on,67,0,80
2,note_on,64,60,0
2,note_on,64,0,80
2,note_on,67,60,0
2,note_on,67,0,80
2,note_on,71,68,0
2,note_on,71,0,80
2,note_on,74,56,0
2,note_on,74,0,80
2,note_on,71,57,0
2,note_on,71,0,80
2,note_on,65,62,0
2,note_on,65,0,80
2,note_on,62,58,0
2,note_on,62,0,80
2,note_on,65,58,0
2,note_on,65,0,80
2,note_on,67,63,0
2,note_on,67,0,80
2,note_on,72,57,0
2,note_on,72,0,80
2,note_on,67,57,0
2,note_on,67,0,80
2,note_on,64,60,0
2,note_on,64,0,80
2,note_on,60,57,0
2,note_on,60,0,80
2,note_on,64,57,0
2,note_on,64,0,80
2,note_on,72,74,0
2,note_on,72,0,80
2,note_on,76,59,0
2,note_on,76,0,80
2,note_on,72,59,0
2,note_on,72,0,80
2,note_on,67,70,0
2,note_on,67,0,80
2,note_on,64,58,0
2,note_on,64,0,80
2,note_on,67,58,0
2,note_on,67,0,80
2,note_on,71,71,0
2,note_on,71,0,80
2,note_on,74,61,0
2,note_on,74,0,80
2,note_on,71,61,0
2,note_on,71,0,80
2,note_on,67,67,0
2,note_on,67,0,80
2,note_on,62,60,0
2,note_on,62,0,80
2,note_on,67,60,0
2,note_on,67,0,80
2,note_on,74,74,0
2,note_on,74,0,80
2,note_on,77,59,0
2,note_on,77,0,80
2,note_on,74,59,0
2,note_on,74,0,80
2,note_on,69,70,0
2,note_on,69,0,80
2,note_on,65,58,0
2,note_on,65,0,80
2,note_on,69,58,0
2,note_on,69,0,80
2,note_on,72,71,0
2,note_on,72,0,80
2,note_on,76,61,0
2,note_on,76,0,80
2,note_on,72,61,0
2,note_on,72,0,80
2,note_on,69,67,0
2,note_on,69,0,80
2,note_on,64,60,0
2,note_on,64,0,80
2,note_on,69,60,0
2,note_on,69,0,80
2,note_on,77,74,0
2,note_on,77,0,80
2,note_on,81,59,0
2,note_on,81,0,80
2,note_on,77,59,0
2,note_on,77,0,80
2,note_on,72,70,0
2,note_on,72,0,80
2,note_on,69,58,0
2,note_on,69,0,80
2,note_on,72,58,0
2,note_on,72,0,80
2,note_on,74,75,0
2,note_on,74,0,80
2,note_on,79,61,0
2,note_on,79,0,80
2,note_on,74,61,0
2,note_on,74,0,80
2,note_on,72,67,0
2,note_on,72,0,80
2,note_on,67,60,0
2,note_on,67,0,80
2,note_on,72,60,0
2,note_on,72,0,80
2,note_on,74,74,0
2,note_on,74,0,80
2,note_on,79,59,0
2,note_on,79,0,80
2,note_on,74,59,0
2,note_on,74,0,80
2,note_on,71,70,0
2,note_on,71,0,80
2,note_on,67,58,0
2,note_on,67,0,80
2,note_on,71,58,0
2,note_on,71,0,80
2,note_on,76,71,0
2,note_on,76,0,80
2,note_on,79,58,0
2,note_on,79,0,80
2,note_on,76,58,0
2,note_on,76,0,80
2,note_on,72,63,0
2,note_on,72,0,80
2,note_on,67,60,0
2,note_on,67,0,80
2,note_on,72,58,0
2,note_on,72,0,80
2,note_on,76,74,0
2,note_on,76,0,80
2,note_on,79,59,0
2,note_on,79,0,80
2,note_on,76,59,0
2,note_on,76,0,80
2,note_on,72,70,0
2,note_on,72,0,80
2,note_on,67,58,0
2,note_on,67,0,80
2,note_on,72,58,0
2,note_on,72,0,80
2,note_on,74,71,0
2,note_on,74,0,80
2,note_on,79,61,0
2,note_on,79,0,80
2,note_on,74,61,0
2,note_on,74,0,80
2,note_on,71,67,0
2,note_on,71,0,80
2,note_on,67,60,0
2,note_on,67,0,80
2,note_on,71,60,0
2,note_on,71,0,80
2,note_on,77,74,0
2,note_on,77,0,80
2,note_on,81,59,0
2,note_on,81,0,80
2,note_on,77,59,0
2,note_on,77,0,80
2,note_on,74,70,0
2,note_on,74,0,80
2,note_on,69,58,0
2,note_on,69,0,80
2,note_on,74,58,0
2,note_on,74,0,80
2,note_on,76,71,0
2,note_on,76,0,80
2,note_on,81,61,0
2,note_on,81,0,80
2,note_on,76,61,0
2,note_on,76,0,80
2,note_on,72,67,0
2,note_on,72,0,80
2,note_on,69,60,0
2,note_on,69,0,80
2,note_on,72,60,0
2,note_on,72,0,80
2,note_on,81,74,0
2,note_on,81,0,80
2,note_on,84,59,0
2,note_on,84,0,80
2,note_on,81,59,0
2,note_on,81,0,80
2,note_on,76,70,0
2,note_on,76,0,80
2,note_on,72,58,0
2,note_on,72,0,80
2,note_on,76,58,0
2,note_on,76,0,80
2,note_on,81,75,0
2,note_on,81,0,80
2,note_on,84,61,0
2,note_on,84,0,80
2,note_on,81,61,0
2,note_on,81,0,80
2,note_on,78,67,0
2,note_on,78,0,80
2,note_on,72,60,0
2,note_on,72,0,80
2,note_on,78,60,0
2,note_on,78,0,80
2,note_on,81,74,0
2,note_on,81,0,80
2,note_on,84,59,0
2,note_on,84,0,80
2,note_on,81,59,0
2,note_on,81,0,80
2,note_on,78,70,0
2,note_on,78,0,80
2,note_on,72,58,0
2,note_on,72,0,80
2,note_on,78,58,0
2,note_on,78,0,80
2,note_on,79,71,0
2,note_on,79,0,80
2,note_on,83,58,0
2,note_on,83,0,80
2,note_on,79,58,0
2,note_on,79,0,80
2,note_on,74,63,0
2,note_on,74,0,80
2,note_on,71,60,0
2,note_on,71,0,80
2,note_on,74,58,0
2,note_on,74,0,80
2,note_on,81,74,0
2,note_on,81,0,80
2,note_on,86,59,0
2,note_on,86,0,80
2,note_on,81,59,0
2,note_on,81,0,80
2,note_on,78,70,0
2,note_on,78,0,80
2,note_on,74,58,0
2,note_on,74,0,80
2,note_on,78,58,0
2,note_on,78,0,80
2,note_on,83,75,0
2,note_on,83,0,80
2,note_on,86,61,0
2,note_on,86,0,80
2,note_on,83,61,0
2,note_on,83,0,80
2,note_on,79,67,0
2,note_on,79,0,80
2,note_on,74,60,0
2,note_on,74,0,80
2,note_on,79,60,0
2,note_on,79,0,80
2,note_on,81,74,0
2,note_on,81,0,80
2,note_on,86,59,0
2,note_on,86,0,80
2,note_on,81,59,0
2,note_on,81,0,80
2,note_on,78,70,0
2,note_on,78,0,80
2,note_on,74,58,0
2,note_on,74,0,80
2,note_on,78,58,0
2,note_on,78,0,80
2,note_on,83,77,0
2,note_on,83,0,80
2,note_on,86,58,0
2,note_on,86,0,80
2,note_on,83,58,0
2,note_on,83,0,80
2,note_on,79,63,0
2,note_on,79,0,80
2,note_on,74,60,0
2,note_on,74,0,80
2,note_on,79,58,0
2,note_on,79,0,80
2,note_on,86,51,0
2,note_on,86,0,80
2,note_on,90,40,0
2,note_on,90,0,80
2,note_on,86,40,0
2,note_on,86,0,80
2,note_on,81,48,0
2,note_on,81,0,80
2,note_on,78,39,0
2,note_on,78,0,80
2,note_on,81,39,0
2,note_on,81,0,80
2,note_on,86,51,0
2,note_on,86,0,80
2,note_on,91,42,0
2,note_on,91,0,80
2,note_on,86,42,0
2,note_on,86,0,80
2,note_on,83,45,0
2,note_on,83,0,80
2,note_on,79,41,0
2,note_on,79,0,80
2,note_on,83,41,0
2,note_on,83,0,80
2,note_on,86,51,0
2,note_on,86,0,80
2,note_on,90,40,0
2,note_on,90,0,80
2,note_on,86,40,0
2,note_on,86,0,80
2,note_on,81,48,0
2,note_on,81,0,80
2,note_on,78,39,0
2,note_on,78,0,80
2,note_on,81,39,0
2,note_on,81,0,80
2,note_on,86,52,0
2,note_on,86,0,80
2,note_on,91,39,0
2,note_on,91,0,80
2,note_on,86,39,0
2,note_on,86,0,80
2,note_on,83,43,0
2,note_on,83,0,80
2,note_on,79,41,0
2,note_on,79,0,80
2,note_on,83,39,0
2,note_on,83,0,80
2,note_on,81,81,0
2,note_on,81,0,80
2,note_on,86,61,0
2,note_on,86,0,80
2,note_on,81,61,0
2,note_on,81,0,80
2,note_on,78,69,0
2,note_on,78,0,80
2,note_on,74,63,0
2,note_on,74,0,80
2,note_on,78,63,0
2,note_on,78,0,80
2,note_on,83,82,0
2,note_on,83,0,80
2,note_on,86,62,0
2,note_on,86,0,80
2,note_on,83,62,0
2,note_on,83,0,80
2,note_on,79,67,0
2,note_on,79,0,80
2,note_on,74,63,0
2,note_on,74,0,80
2,note_on,79,66,0
2,note_on,79,0,80
2,note_on,81,81,0
2,note_on,81,0,80
2,note_on,86,61,0
2,note_on,86,0,80
2,note_on,81,61,0
2,note_on,81,0,80
2,note_on,78,68,0
2,note_on,78,0,80
2,note_on,74,63,0
2,note_on,74,0,80
2,note_on,78,63,0
2,note_on,78,0,80
2,note_on,83,84,0
2,note_on,83,0,80
2,note_on,86,63,0
2,note_on,86,0,80
2,note_on,83,63,0
2,note_on,83,0,80
2,note_on,79,69,0
2,note_on,79,0,80
2,note_on,74,66,0
2,note_on,74,0,80
2,note_on,79,63,0
2,note_on,79,0,80
2,note_on,86,51,0
2,note_on,86,0,80
2,note_on,90,40,0
2,note_on,90,0,80
2,note_on,86,40,0
2,note_on,86,0,80
2,note_on,81,48,0
2,note_on,81,0,80
2,note_on,78,39,0
2,note_on,78,0,80
2,note_on,81,39,0
2,note_on,81,0,80
2,note_on,86,51,0
2,note_on,86,0,80
2,note_on,91,42,0
2,note_on,91,0,80
2,note_on,86,42,0
2,note_on,86,0,80
2,note_on,83,45,0
2,note_on,83,0,80
2,note_on,79,41,0
2,note_on,79,0,80
2,note_on,83,41,0
2,note_on,83,0,80
2,note_on,86,51,0
2,note_on,86,0,80
2,note_on,90,40,0
2,note_on,90,0,80
2,note_on,86,40,0
2,note_on,86,0,80
2,note_on,81,48,0
2,note_on,81,0,80
2,note_on,78,39,0
2,note_on,78,0,80
2,note_on,81,39,0
2,note_on,81,0,80
2,note_on,86,57,0
2,note_on,86,0,80
2,note_on,91,42,0
2,note_on,91,0,80
2,note_on,86,44,0
2,note_on,86,0,80
2,note_on,83,49,0
2,note_on,83,0,80
2,note_on,79,48,0
2,note_on,79,0,80
2,note_on,83,47,0
2,note_on,83,0,80
2,note_on,86,63,0
2,note_on,86,0,80
2,note_on,90,50,0
2,note_on,90,0,80
2,note_on,86,51,0
2,note_on,86,0,80
2,note_on,81,63,0
2,note_on,81,0,80
2,note_on,78,52,0
2,note_on,78,0,80
2,note_on,81,53,0
2,note_on,81,0,80
2,note_on,86,72,0
2,note_on,86,0,80
2,note_on,91,60,0
2,note_on,91,0,80
2,note_on,86,62,0
2,note_on,86,0,80
2,note_on,83,67,0
2,note_on,83,0,80
2,note_on,79,62,0
2,note_on,79,0,80
2,note_on,83,64,0
2,note_on,83,0,80
2,note_on,86,80,0
2,note_on,86,0,80
2,note_on,90,64,0
2,note_on,90,0,80
2,note_on,86,66,0
2,note_on,86,0,80
2,note_on,81,80,0
2,note_on,81,0,80
2,note_on,78,66,0
2,note_on,78,0,80
2,note_on,81,67,0
2,note_on,81,0,80
2,note_on,91,104,0
2,note_on,79,98,0
2,note_on,79,0,240
2,note_on,91,0,0
2,note_on,67,81,240
2,note_on,71,81,0
2,note_on,74,81,0
2,note_on,79,96,0
2,note_on,79,0,240
2,note_on,67,0,0
2,note_on,71,0,0
2,note_on,74,0,0
2,note_on,67,81,240
2,note_on,71,81,0
2,note_on,74,81,0
2,note_on,79,96,0
2,note_on,79,0,960
2,note_on,67,0,0
2,note_on,71,0,0
2,note_on,74,0,0
2,note_on,71,81,480
2,note_on,74,81,0
2,note_on,79,81,0
2,note_on,83,96,0
2,note_on,83,0,240
2,note_on,71,0,0
2,note_on,74,0,0
2,note_on,79,0,0
2,note_on,71,81,240
2,note_on,74,81,0
2,note_on,79,81,0
2,note_on,83,96,0
2,note_on,83,0,960
2,note_on,71,0,0
2,note_on,74,0,0
2,note_on,79,0,0
2,note_on,74,81,480
2,note_on,77,81,0
2,note_on,83,81,0
2,note_on,86,96,0
2,note_on,86,0,240
2,note_on,74,0,0
2,note_on,77,0,0
2,note_on,83,0,0
2,note_on,74,81,240
2,note_on,77,81,0
2,note_on,83,81,0
2,note_on,86,96,0
2,note_on,86,0,960
2,note_on,74,0,0
2,note_on,77,0,0
2,note_on,83,0,0
2,note_on,77,81,480
2,note_on,83,81,0
2,note_on,86,81,0
2,note_on,89,96,0
2,note_on,89,0,240
2,note_on,77,0,0
2,note_on,83,0,0
2,note_on,86,0,0
2,note_on,77,81,240
2,note_on,83,81,0
2,note_on,86,81,0
2,note_on,89,96,0
2,note_on,89,0,960
2,note_on,77,0,0
2,note_on,83,0,0
2,note_on,86,0,0
2,note_on,83,69,480
2,note_on,86,69,0
2,note_on,89,69,0
2,note_on,92,81,0
2,note_on,92,0,240
2,note_on,83,0,0
2,note_on,86,0,0
2,note_on,89,0,0
2,note_on,80,60,720
2,note_on,83,60,0
2,note_on,86,60,0
2,note_on,89,70,0
2,note_on,89,0,240
2,note_on,80,0,0
2,note_on,83,0,0
2,note_on,86,0,0
2,note_on,86,67,720
2,note_on,83,57,0
2,note_on,80,57,0
2,note_on,77,57,0
2,note_on,77,0,240
2,note_on,86,0,0
2,note_on,83,0,0
2,note_on,80,0,0
2,note_on,83,60,720
2,note_on,80,50,0
2,note_on,77,50,0
2,note_on,74,50,0
2,note_on,74,0,240
2,note_on,83,0,0
2,note_on,80,0,0
2,note_on,77,0,0
2,note_on,71,41,720
2,note_on,74,41,0
2,note_on,77,41,0
2,note_on,80,49,0
2,note_on,80,0,240
2,note_on,71,0,0
2,note_on,74,0,0
2,note_on,77,0,0
2,note_on,68,39,720
2,note_on,71,39,0
2,note_on,77,46,0
2,note_on,74,39,0
2,note_on,74,0,240
2,note_on,68,0,0
2,note_on,71,0,0
2,note_on,77,0,0
2,note_on,65,36,720
2,note_on,68,36,0
2,note_on,71,36,0
2,note_on,74,44,0
2,note_on,74,0,240
2,note_on,65,0,0
2,note_on,68,0,0
2,note_on,71,0,0
2,note_on,62,34,720
2,note_on,65,34,0
2,note_on,68,34,0
2,note_on,71,41,0
2,note_on,71,0,240
2,note_on,62,0,0
2,note_on,65,0,0
2,note_on,68,0,0
2,note_on,59,26,720
2,note_on,62,26,0
2,note_on,65,26,0
2,note_on,68,32,0
2,note_on,68,0,240
2,note_on,59,0,0
2,note_on,62,0,0
2,note_on,65,0,0
2,note_on,58,26,1680
2,note_on,61,26,0
2,note_on,64,26,0
2,note_on,67,32,0
2,note_on,67,0,480
2,note_on,58,0,0
2,note_on,61,0,0
2,note_on,64,0,0
2,note_on,57,26,1440
2,note_on,60,26,0
2,note_on,63,26,0
2,note_on,66,32,0
2,note_on,66,0,480
2,note_on,57,0,0
2,note_on,60,0,0
2,note_on,63,0,0
2,note_on,59,22,1440
2,note_on,62,22,0
2,note_on,65,27,0
2,note_on,65,0,2400
2,note_on,62,0,0
2,note_on,59,0,0
2,note_on,60,85,0
2,note_on,60,0,240
2,note_on,91,50,0
2,note_on,91,0,120
2,note_on,91,53,120
2,note_on,91,0,360
2,note_on,88,50,0
2,note_on,88,0,120
2,note_on,86,54,0
2,note_on,86,0,240
2,note_on,79,50,0
2,note_on,79,0,240
2,note_on,84,50,0
2,note_on,84,0,240
2,note_on,88,49,0
2,note_on,88,0,240
2,note_on,91,50,240
2,note_on,91,0,120
2,note_on,91,53,120
2,note_on,91,0,360
2,note_on,88,50,0
2,note_on,88,0,120
2,note_on,86,54,0
2,note_on,86,0,240
2,note_on,79,50,0
2,note_on,79,0,240
2,note_on,84,50,0
2,note_on,84,0,240
2,note_on,91,50,240
2,note_on,91,0,120
2,note_on,90,47,0
2,note_on,90,0,120
2,note_on,91,50,0
2,note_on,91,0,120
2,note_on,90,46,0
2,note_on,90,0,120
2,note_on,91,50,0
2,note_on,91,0,120
2,note_on,90,47,0
2,note_on,90,0,120
2,note_on,91,50,0
2,note_on,91,0,120
2,note_on,88,47,0
2,note_on,88,0,120
2,note_on,86,48,0
2,note_on,86,0,120
2,note_on,85,43,0
2,note_on,85,0,120
2,note_on,86,48,0
2,note_on,86,0,120
2,note_on,79,45,0
2,note_on,79,0,120
2,note_on,84,48,0
2,note_on,84,0,120
2,note_on,83,44,0
2,note_on,83,0,120
2,note_on,84,50,0
2,note_on,84,0,120
2,note_on,88,46,0
2,note_on,88,0,120
2,note_on,91,50,0
2,note_on,91,0,120
2,note_on,90,46,0
2,note_on,90,0,120
2,note_on,91,50,0
2,note_on,91,0,120
2,note_on,90,47,0
2,note_on,90,0,120
2,note_on,91,50,0
2,note_on,91,0,120
2,note_on,90,46,0
2,note_on,90,0,120
2,note_on,91,50,0
2,note_on,91,0,120
2,note_on,88,44,0
2,note_on,88,0,120
2,note_on,86,48,0
2,note_on,86,0,120
2,note_on,85,45,0
2,note_on,85,0,120
2,note_on,86,49,0
2,note_on,86,0,120
2,note_on,79,45,0
2,note_on,79,0,120
2,note_on,84,49,0
2,note_on,84,0,120
2,note_on,83,46,0
2,note_on,83,0,120
2,note_on,84,49,0
2,note_on,84,0,120
2,note_on,88,46,0
2,note_on,88,0,120
2,note_on,86,59,0
2,note_on,86,0,120
2,note_on,85,55,0
2,note_on,85,0,120
2,note_on,86,68,0
2,note_on,86,0,120
2,note_on,79,62,0
2,note_on,79,0,120
2,note_on,84,74,0
2,note_on,83,67,120
2,note_on,84,0,10
2,note_on,84,67,110
2,note_on,83,0,10
2,note_on,88,67,110
2,note_on,84,0,10
2,note_on,88,0,110
2,note_on,83,76,0
2,note_on,82,69,120
2,note_on,83,0,10
2,note_on,83,69,110
2,note_on,82,0,10
2,note_on,86,69,110
2,note_on,83,0,10
2,note_on,86,0,110
2,note_on,81,75,0
2,note_on,80,70,120
2,note_on,81,0,10
2,note_on,81,70,110
2,note_on,80,0,10
2,note_on,84,70,110
2,note_on,81,0,10
2,note_on,84,0,110
2,note_on,79,75,0
2,note_on,78,69,120
2,note_on,79,0,10
2,note_on,79,69,110
2,note_on,78,0,10
2,note_on,83,69,110
2,note_on,79,0,10
2,note_on,83,0,110
2,note_on,77,75,0
2,note_on,76,69,120
2,note_on,77,0,10
2,note_on,77,69,110
2,note_on,76,0,10
2,note_on,81,69,110
2,note_on,77,0,10
2,note_on,81,0,110
2,note_on,76,75,0
2,note_on,75,70,120
2,note_on,76,0,10
2,note_on,76,70,110
2,note_on,75,0,10
2,note_on,79,70,110
2,note_on,76,0,10
2,note_on,79,0,110
2,note_on,74,75,0
2,note_on,73,70,120
2,note_on,74,0,10
2,note_on,74,70,110
2,note_on,73,0,10
2,note_on,77,69,110
2,note_on,74,0,10
2,note_on,77,0,110
2,note_on,72,75,0
2,note_on,71,69,120
2,note_on,72,0,10
2,note_on,72,69,110
2,note_on,71,0,10
2,note_on,76,69,110
2,note_on,72,0,10
2,note_on,76,0,110
2,note_on,76,75,0
2,note_on,75,68,120
2,note_on,76,0,10
2,note_on,76,68,110
2,note_on,75,0,10
2,note_on,79,68,110
2,note_on,76,0,10
2,note_on,79,0,110
2,note_on,74,75,0
2,note_on,73,68,120
2,note_on,74,0,10
2,note_on,74,68,110
2,note_on,73,0,10
2,note_on,71,68,110
2,note_on,74,0,10
2,note_on,71,0,110
2,note_on,72,74,0
2,note_on,71,68,120
2,note_on,72,0,10
2,note_on,72,68,110
2,note_on,71,0,10
2,note_on,69,68,110
2,note_on,72,0,10
2,note_on,69,0,110
2,note_on,71,74,0
2,note_on,70,69,120
2,note_on,71,0,10
2,note_on,71,68,110
2,note_on,70,0,10
2,note_on,67,68,110
2,note_on,71,0,10
2,note_on,67,0,110
2,note_on,69,74,0
2,note_on,68,68,120
2,note_on,69,0,10
2,note_on,69,68,110
2,note_on,68,0,10
2,note_on,65,68,110
2,note_on,69,0,10
2,note_on,65,0,110
2,note_on,67,74,0
2,note_on,66,68,120
2,note_on,67,0,10
2,note_on,67,68,110
2,note_on,66,0,10
2,note_on,64,68,110
2,note_on,67,0,10
2,note_on,64,0,110
2,note_on,65,74,0
2,note_on,64,68,120
2,note_on,65,0,10
2,note_on,65,68,110
2,note_on,64,0,10
2,note_on,62,68,110
2,note_on,65,0,10
2,note_on,62,0,110
2,note_on,64,91,0
2,note_on,60,81,120
2,note_on,64,0,10
2,note_on,55,81,110
2,note_on,60,0,10
2,note_on,64,81,110
2,note_on,55,0,10
2,note_on,64,0,110
2,note_on,62,90,0
2,note_on,59,81,120
2,note_on,62,0,10
2,note_on,55,81,110
2,note_on,59,0,10
2,note_on,62,81,110
2,note_on,55,0,10
2,note_on,62,0,110
2,note_on,65,91,0
2,note_on,62,81,120
2,note_on,65,0,10
2,note_on,57,81,110
2,note_on,62,0,10
2,note_on,65,81,110
2,note_on,57,0,10
2,note_on,65,0,110
2,note_on,64,90,0
2,note_on,60,81,120
2,note_on,64,0,10
2,note_on,57,81,110
2,note_on,60,0,10
2,note_on,64,81,110
2,note_on,57,0,10
2,note_on,64,0,110
2,note_on,69,90,0
2,note_on,65,81,120
2,note_on,69,0,10
2,note_on,60,81,110
2,note_on,65,0,10
2,note_on,69,81,110
2,note_on,60,0,10
2,note_on,69,0,110
2,note_on,67,90,0
2,note_on,64,81,120
2,note_on,67,0,10
2,note_on,60,81,110
2,note_on,64,0,10
2,note_on,72,81,110
2,note_on,60,0,10
2,note_on,72,0,110
2,note_on,62,91,0
2,note_on,72,81,120
2,note_on,62,0,10
2,note_on,67,81,110
2,note_on,72,0,10
2,note_on,62,81,110
2,note_on,67,0,10
2,note_on,62,0,110
2,note_on,71,91,0
2,note_on,67,81,120
2,note_on,71,0,10
2,note_on,62,81,110
2,note_on,67,0,10
2,note_on,71,81,110
2,note_on,62,0,10
2,note_on,71,0,110
2,note_on,76,91,0
2,note_on,72,81,120
2,note_on,76,0,10
2,note_on,67,81,110
2,note_on,72,0,10
2,note_on,76,81,110
2,note_on,67,0,10
2,note_on,76,0,110
2,note_on,67,91,0
2,note_on,74,81,120
2,note_on,67,0,10
2,note_on,71,81,110
2,note_on,74,0,10
2,note_on,67,81,110
2,note_on,71,0,10
2,note_on,67,0,110
2,note_on,77,91,0
2,note_on,74,81,120
2,note_on,77,0,10
2,note_on,69,81,110
2,note_on,74,0,10
2,note_on,77,81,110
2,note_on,69,0,10
2,note_on,77,0,110
2,note_on,69,93,0
2,note_on,76,81,120
2,note_on,69,0,10
2,note_on,72,81,110
2,note_on,76,0,10
2,note_on,69,81,110
2,note_on,72,0,10
2,note_on,69,0,110
2,note_on,81,92,0
2,note_on,77,81,120
2,note_on,81,0,10
2,note_on,72,81,110
2,note_on,77,0,10
2,note_on,81,81,110
2,note_on,72,0,10
2,note_on,81,0,110
2,note_on,72,92,0
2,note_on,81,81,120
2,note_on,72,0,10
2,note_on,77,81,110
2,note_on,81,0,10
2,note_on,72,81,110
2,note_on,77,0,10
2,note_on,72,0,110
2,note_on,81,92,0
2,note_on,77,81,120
2,note_on,81,0,10
2,note_on,72,81,110
2,note_on,77,0,10
2,note_on,81,81,110
2,note_on,72,0,10
2,note_on,81,0,110
2,note_on,72,91,0
2,note_on,81,81,120
2,note_on,72,0,10
2,note_on,77,81,110
2,note_on,81,0,10
2,note_on,72,81,110
2,note_on,77,0,10
2,note_on,72,0,110
2,note_on,84,50,240
2,note_on,84,0,120
2,note_on,84,53,120
2,note_on,84,0,360
2,note_on,81,50,0
2,note_on,81,0,120
2,note_on,79,54,0
2,note_on,79,0,240
2,note_on,72,50,0
2,note_on,72,0,240
2,note_on,77,50,0
2,note_on,77,0,240
2,note_on,81,47,0
2,note_on,81,0,240
2,note_on,84,50,240
2,note_on,84,0,120
2,note_on,83,46,0
2,note_on,83,0,120
2,note_on,84,50,0
2,note_on,84,0,120
2,note_on,83,47,0
2,note_on,83,0,120
2,note_on,84,50,0
2,note_on,84,0,120
2,note_on,81,47,0
2,note_on,81,0,120
2,note_on,79,48,0
2,note_on,79,0,120
2,note_on,78,43,0
2,note_on,78,0,120
2,note_on,79,48,0
2,note_on,79,0,120
2,note_on,72,45,0
2,note_on,72,0,120
2,note_on,77,48,0
2,note_on,77,0,120
2,note_on,76,44,0
2,note_on,76,0,120
2,note_on,77,50,0
2,note_on,77,0,120
2,note_on,81,46,0
2,note_on,81,0,120
2,note_on,89,46,240
2,note_on,77,39,0
2,note_on,77,0,240
2,note_on,89,0,0
2,note_on,89,48,0
2,note_on,77,40,0
2,note_on,77,0,360
2,note_on,89,0,0
2,note_on,86,46,0
2,note_on,74,39,0
2,note_on,74,0,120
2,note_on,86,0,0
2,note_on,88,49,0
2,note_on,76,41,0
2,note_on,76,0,240
2,note_on,88,0,0
2,note_on,84,46,0
2,note_on,72,39,0
2,note_on,72,0,240
2,note_on,84,0,0
2,note_on,83,46,0
2,note_on,71,39,0
2,note_on,71,0,240
2,note_on,83,0,0
2,note_on,86,42,0
2,note_on,74,35,0
2,note_on,74,0,240
2,note_on,86,0,0
2,note_on,89,46,240
2,note_on,77,39,0
2,note_on,77,0,240
2,note_on,89,0,0
2,note_on,89,48,0
2,note_on,77,40,0
2,note_on,77,0,360
2,note_on,89,0,0
2,note_on,86,46,0
2,note_on,74,39,0
2,note_on,74,0,120
2,note_on,86,0,0
2,note_on,88,49,0
2,note_on,76,41,0
2,note_on,84,46,240
2,note_on,72,39,0
2,note_on,76,0,10
2,note_on,88,0,0
2,note_on,83,46,230
2,note_on,71,39,0
2,note_on,84,0,10
2,note_on,72,0,0
2,note_on,86,42,230
2,note_on,74,35,0
2,note_on,83,0,10
2,note_on,71,0,0
2,note_on,86,0,230
2,note_on,74,0,0
2,note_on,84,49,0
2,note_on,72,41,0
2,note_on,81,46,240
2,note_on,69,39,0
2,note_on,72,0,10
2,note_on,84,0,0
2,note_on,79,46,230
2,note_on,67,39,0
2,note_on,81,0,10
2,note_on,69,0,0
2,note_on,83,42,230
2,note_on,71,35,0
2,note_on,79,0,10
2,note_on,67,0,0
2,note_on,83,0,230
2,note_on,71,0,0
2,note_on,81,49,0
2,note_on,69,41,0
2,note_on,77,46,240
2,note_on,65,39,0
2,note_on,69,0,10
2,note_on,81,0,0
2,note_on,76,46,230
2,note_on,64,39,0
2,note_on,77,0,10
2,note_on,65,0,0
2,note_on,79,42,230
2,note_on,67,35,0
2,note_on,76,0,10
2,note_on,64,0,0
2,note_on,79,0,230
2,note_on,67,0,0
2,note_on,77,51,0
2,note_on,65,42,0
2,note_on,74,48,240
2,note_on,62,40,0
2,note_on,65,0,10
2,note_on,77,0,0
2,note_on,76,48,230
2,note_on,64,41,0
2,note_on,74,0,10
2,note_on,62,0,0
2,note_on,72,44,230
2,note_on,60,36,0
2,note_on,76,0,10
2,note_on,64,0,0
2,note_on,72,0,230
2,note_on,60,0,0
2,note_on,74,52,0
2,note_on,62,43,0
2,note_on,71,49,240
2,note_on,59,41,0
2,note_on,62,0,10
2,note_on,74,0,0
2,note_on,72,49,230
2,note_on,60,41,0
2,note_on,71,0,10
2,note_on,59,0,0
2,note_on,69,46,230
2,note_on,57,37,0
2,note_on,72,0,10
2,note_on,60,0,0
2,note_on,69,0,230
2,note_on,57,0,0
2,note_on,71,54,0
2,note_on,59,44,0
2,note_on,67,50,240
2,note_on,55,42,0
2,note_on,59,0,10
2,note_on,71,0,0
2,note_on,69,50,230
2,note_on,57,42,0
2,note_on,67,0,10
2,note_on,55,0,0
2,note_on,65,47,230
2,note_on,53,39,0
2,note_on,69,0,10
2,note_on,57,0,0
2,note_on,65,0,230
2,note_on,53,0,0
2,note_on,67,55,0
2,note_on,55,46,0
2,note_on,64,51,240
2,note_on,52,43,0
2,note_on,55,0,10
2,note_on,67,0,0
2,note_on,65,51,230
2,note_on,53,43,0
2,note_on,64,0,10
2,note_on,52,0,0
2,note_on,59,48,230
2,note_on,47,40,0
2,note_on,65,0,10
2,note_on,53,0,0
2,note_on,59,0,230
2,note_on,47,0,0
2,note_on,51,104,0
2,note_on,60,104,0
2,note_on,60,0,240
2,note_on,51,0,0
2,note_on,72,74,880
2,note_on,72,0,160
2,note_on,75,74,0
2,note_on,75,0,160
2,note_on,80,78,0
2,note_on,80,0,160
2,note_on,84,74,0
2,note_on,84,0,160
2,note_on,87,74,0
2,note_on,87,0,160
2,note_on,85,58,0
2,note_on,85,0,160
2,note_on,82,49,0
2,note_on,82,0,160
2,note_on,79,49,0
2,note_on,79,0,160
2,note_on,73,55,0
2,note_on,73,0,160
2,note_on,70,50,0
2,note_on,70,0,160
2,note_on,67,50,0
2,note_on,67,0,160
2,note_on,85,56,0
2,note_on,85,0,160
2,note_on,82,49,0
2,note_on,82,0,160
2,note_on,79,49,0
2,note_on,79,0,160
2,note_on,73,55,0
2,note_on,73,0,160
2,note_on,70,50,0
2,note_on,70,0,160
2,note_on,67,50,0
2,note_on,67,0,160
2,note_on,68,74,1120
2,note_on,68,0,160
2,note_on,72,74,0
2,note_on,72,0,160
2,note_on,77,78,0
2,note_on,77,0,160
2,note_on,80,74,0
2,note_on,80,0,160
2,note_on,84,74,0
2,note_on,84,0,160
2,note_on,82,58,0
2,note_on,82,0,160
2,note_on,79,49,0
2,note_on,79,0,160
2,note_on,76,49,0
2,note_on,76,0,160
2,note_on,70,55,0
2,note_on,70,0,160
2,note_on,67,50,0
2,note_on,67,0,160
2,note_on,64,50,0
2,note_on,64,0,160
2,note_on,82,56,0
2,note_on,82,0,160
2,note_on,79,49,0
2,note_on,79,0,160
2,note_on,76,49,0
2,note_on,76,0,160
2,note_on,70,55,0
2,note_on,70,0,160
2,note_on,67,50,0
2,note_on,67,0,160
2,note_on,64,50,0
2,note_on,64,0,160
2,note_on,65,74,1120
2,note_on,65,0,160
2,note_on,68,74,0
2,note_on,68,0,160
2,note_on,73,78,0
2,note_on,73,0,160
2,note_on,77,74,0
2,note_on,77,0,160
2,note_on,80,74,0
2,note_on,80,0,160
2,note_on,78,58,0
2,note_on,78,0,160
2,note_on,75,49,0
2,note_on,75,0,160
2,note_on,72,49,0
2,note_on,72,0,160
2,note_on,66,55,0
2,note_on,66,0,160
2,note_on,63,50,0
2,note_on,63,0,160
2,note_on,60,50,0
2,note_on,60,0,160
2,note_on,78,56,0
2,note_on,78,0,160
2,note_on,75,49,0
2,note_on,75,0,160
2,note_on,72,49,0
2,note_on,72,0,160
2,note_on,66,55,0
2,note_on,66,0,160
2,note_on,63,50,0
2,note_on,63,0,160
2,note_on,60,50,0
2,note_on,60,0,160
2,note_on,53,39,160
2,note_on,53,0,160
2,note_on,58,40,0
2,note_on,58,0,160
2,note_on,61,41,0
2,note_on,61,0,160
2,note_on,65,43,0
2,note_on,65,0,160
2,note_on,70,44,0
2,note_on,70,0,160
2,note_on,73,46,0
2,note_on,73,0,160
2,note_on,77,45,0
2,note_on,77,0,160
2,note_on,82,47,0
2,note_on,82,0,160
2,note_on,85,49,0
2,note_on,85,0,160
2,note_on,89,45,0
2,note_on,89,0,160
2,note_on,77,41,0
2,note_on,77,0,160
2,note_on,53,39,160
2,note_on,53,0,160
2,note_on,56,40,0
2,note_on,56,0,160
2,note_on,60,41,0
2,note_on,60,0,160
2,note_on,65,43,0
2,note_on,65,0,160
2,note_on,68,44,0
2,note_on,68,0,160
2,note_on,72,46,0
2,note_on,72,0,160
2,note_on,77,45,0
2,note_on,77,0,160
2,note_on,80,47,0
2,note_on,80,0,160
2,note_on,84,49,0
2,note_on,84,0,160
2,note_on,89,45,0
2,note_on,89,0,160
2,note_on,77,41,0
2,note_on,77,0,160
2,note_on,53,39,160
2,note_on,53,0,160
2,note_on,59,40,0
2,note_on,59,0,160
2,note_on,62,41,0
2,note_on,62,0,160
2,note_on,65,43,0
2,note_on,65,0,160
2,note_on,71,44,0
2,note_on,71,0,160
2,note_on,74,46,0
2,note_on,74,0,160
2,note_on,77,45,0
2,note_on,77,0,160
2,note_on,83,47,0
2,note_on,83,0,160
2,note_on,86,49,0
2,note_on,86,0,160
2,note_on,89,45,0
2,note_on,89,0,160
2,note_on,77,41,0
2,note_on,77,0,160
2,note_on,51,39,160
2,note_on,51,0,160
2,note_on,56,40,0
2,note_on,56,0,160
2,note_on,60,41,0
2,note_on,60,0,160
2,note_on,63,43,0
2,note_on,63,0,160
2,note_on,68,44,0
2,note_on,68,0,160
2,note_on,72,46,0
2,note_on,72,0,160
2,note_on,75,45,0
2,note_on,75,0,160
2,note_on,80,47,0
2,note_on,80,0,160
2,note_on,84,49,0
2,note_on,84,0,160
2,note_on,87,45,0
2,note_on,87,0,160
2,note_on,75,41,0
2,note_on,75,0,160
2,note_on,60,45,1440
2,note_on,60,0,160
2,note_on,63,41,0
2,note_on,63,0,160
2,note_on,66,41,0
2,note_on,66,0,160
2,note_on,69,46,0
2,note_on,69,0,160
2,note_on,72,41,0
2,note_on,72,0,160
2,note_on,75,41,0
2,note_on,75,0,160
2,note_on,78,46,0
2,note_on,78,0,160
2,note_on,81,41,0
2,note_on,81,0,160
2,note_on,84,41,0
2,note_on,84,0,160
2,note_on,87,47,0
2,note_on,87,0,160
2,note_on,84,43,0
2,note_on,84,0,160
2,note_on,81,43,0
2,note_on,81,0,160
2,note_on,90,47,0
2,note_on,90,0,160
2,note_on,87,43,0
2,note_on,87,0,160
2,note_on,84,43,0
2,note_on,84,0,160
2,note_on,91,49,120
2,note_on,79,41,0
2,note_on,89,49,120
2,note_on,77,41,0
2,note_on,79,0,10
2,note_on,91,0,0
2,note_on,88,49,110
2,note_on,76,41,0
2,note_on,89,0,10
2,note_on,77,0,0
2,note_on,86,48,110
2,note_on,74,40,0
2,note_on,88,0,10
2,note_on,76,0,0
2,note_on,84,48,110
2,note_on,72,40,0
2,note_on,86,0,10
2,note_on,74,0,0
2,note_on,83,47,110
2,note_on,71,39,0
2,note_on,84,0,10
2,note_on,72,0,0
2,note_on,81,39,110
2,note_on,69,39,0
2,note_on,83,0,10
2,note_on,71,0,0
2,note_on,67,39,110
2,note_on,79,47,0
2,note_on,81,0,10
2,note_on,69,0,0
2,note_on,67,0,230
2,note_on,79,0,0
2,note_on,65,38,0
2,note_on,77,45,0
2,note_on,64,38,120
2,note_on,76,45,0
2,note_on,77,0,10
2,note_on,65,0,0
2,note_on,62,37,110
2,note_on,74,44,0
2,note_on,64,0,10
2,note_on,76,0,0
2,note_on,60,37,110
2,note_on,72,44,0
2,note_on,62,0,10
2,note_on,74,0,0
2,note_on,59,36,110
2,note_on,71,43,0
2,note_on,60,0,10
2,note_on,72,0,0
2,note_on,57,35,110
2,note_on,69,42,0
2,note_on,59,0,10
2,note_on,71,0,0
2,note_on,60,35,110
2,note_on,55,35,0
2,note_on,64,35,0
2,note_on,67,42,0
2,note_on,57,0,10
2,note_on,69,0,0
2,note_on,64,0,950
2,note_on,55,0,0
2,note_on,60,0,0
2,note_on,59,35,0
2,note_on,62,35,0
2,note_on,62,0,480
2,note_on,59,0,0
2,note_on,67,0,0
2,note_on,74,42,0
2,note_on,77,46,0
2,note_on,77,0,480
2,note_on,74,0,0
2,note_on,72,41,0
2,note_on,76,49,0
2,note_on,76,0,60
2,note_on,72,0,0
2,note_on,91,49,60
2,note_on,79,41,0
2,note_on,89,49,120
2,note_on,77,41,0
2,note_on,79,0,10
2,note_on,91,0,0
2,note_on,88,49,110
2,note_on,76,41,0
2,note_on,89,0,10
2,note_on,77,0,0
2,note_on,86,48,110
2,note_on,74,40,0
2,note_on,88,0,10
2,note_on,76,0,0
2,note_on,84,48,110
2,note_on,72,40,0
2,note_on,86,0,10
2,note_on,74,0,0
2,note_on,83,47,110
2,note_on,71,39,0
2,note_on,84,0,10
2,note_on,72,0,0
2,note_on,81,39,110
2,note_on,69,39,0
2,note_on,83,0,10
2,note_on,71,0,0
2,note_on,67,39,110
2,note_on,79,47,0
2,note_on,81,0,10
2,note_on,69,0,0
2,note_on,67,0,230
2,note_on,79,0,0
2,note_on,65,38,0
2,note_on,77,45,0
2,note_on,64,38,120
2,note_on,76,45,0
2,note_on,77,0,10
2,note_on,65,0,0
2,note_on,62,37,110
2,note_on,74,44,0
2,note_on,64,0,10
2,note_on,76,0,0
2,note_on,60,37,110
2,note_on,72,44,0
2,note_on,62,0,10
2,note_on,74,0,0
2,note_on,59,36,110
2,note_on,71,43,0
2,note_on,60,0,10
2,note_on,72,0,0
2,note_on,57,35,110
2,note_on,69,42,0
2,note_on,59,0,10
2,note_on,71,0,0
2,note_on,60,35,110
2,note_on,55,35,0
2,note_on,64,35,0
2,note_on,67,42,0
2,note_on,57,0,10
2,note_on,69,0,0
2,note_on,64,0,950
2,note_on,55,0,0
2,note_on,60,0,0
2,note_on,59,35,0
2,note_on,62,35,0
2,note_on,62,0,480
2,note_on,59,0,0
2,note_on,67,0,0
2,note_on,74,42,0
2,note_on,77,46,0
2,note_on,77,0,480
2,note_on,74,0,0
2,note_on,72,41,0
2,note_on,76,49,0
2,note_on,76,0,60
2,note_on,72,0,0
2,note_on,91,49,60
2,note_on,79,41,0
2,note_on,89,49,120
2,note_on,77,41,0
2,note_on,79,0,10
2,note_on,91,0,0
2,note_on,88,49,110
2,note_on,76,41,0
2,note_on,89,0,10
2,note_on,77,0,0
2,note_on,86,48,110
2,note_on,74,40,0
2,note_on,88,0,10
2,note_on,76,0,0
2,note_on,84,48,110
2,note_on,72,40,0
2,note_on,86,0,10
2,note_on,74,0,0
2,note_on,83,47,110
2,note_on,71,39,0
2,note_on,84,0,10
2,note_on,72,0,0
2,note_on,81,39,110
2,note_on,69,39,0
2,note_on,83,0,10
2,note_on,71,0,0
2,note_on,67,39,110
2,note_on,79,47,0
2,note_on,81,0,10
2,note_on,69,0,0
2,note_on,67,0,230
2,note_on,79,0,0
2,note_on,65,38,0
2,note_on,77,45,0
2,note_on,64,38,120
2,note_on,76,45,0
2,note_on,77,0,10
2,note_on,65,0,0
2,note_on,62,37,110
2,note_on,74,44,0
2,note_on,64,0,10
2,note_on,76,0,0
2,note_on,60,37,110
2,note_on,72,44,0
2,note_on,62,0,10
2,note_on,74,0,0
2,note_on,59,36,110
2,note_on,71,43,0
2,note_on,60,0,10
2,note_on,72,0,0
2,note_on,57,35,110
2,note_on,69,42,0
2,note_on,59,0,10
2,note_on,71,0,0
2,note_on,55,44,110
2,note_on,67,44,0
2,note_on,57,0,10
2,note_on,69,0,0
2,note_on,57,46,110
2,note_on,55,0,10
2,note_on,67,0,0
2,note_on,59,47,110
2,note_on,57,0,10
2,note_on,60,49,110
2,note_on,59,0,10
2,note_on,62,51,110
2,note_on,60,0,10
2,note_on,64,53,110
2,note_on,62,0,10
2,note_on,65,54,110
2,note_on,64,0,10
2,note_on,66,56,110
2,note_on,65,0,10
2,note_on,67,58,110
2,note_on,66,0,10
2,note_on,69,59,110
2,note_on,67,0,10
2,note_on,71,61,110
2,note_on,69,0,10
2,note_on,72,63,110
2,note_on,71,0,10
2,note_on,74,65,110
2,note_on,72,0,10
2,note_on,76,66,110
2,note_on,74,0,10
2,note_on,77,68,110
2,note_on,76,0,10
2,note_on,78,70,110
2,note_on,77,0,10
2,note_on,78,0,120
2,note_on,91,57,8150
2,note_on,91,0,480
2,note_on,91,59,0
2,note_on,91,0,720
2,note_on,88,50,0
2,note_on,88,0,240
2,note_on,86,57,0
2,note_on,86,0,480
2,note_on,79,50,0
2,note_on,79,0,70
2,note_on,84,53,410
2,note_on,84,0,480
2,note_on,88,53,0
2,note_on,88,0,240
2,note_on,91,57,720
2,note_on,91,0,480
2,note_on,91,59,0
2,note_on,91,0,720
2,note_on,88,50,0
2,note_on,88,0,240
2,note_on,86,57,0
2,note_on,86,0,480
2,note_on,79,50,0
2,note_on,79,0,70
2,note_on,84,53,410
2,note_on,84,0,240
2,note_on,91,57,1200
2,note_on,91,0,480
2,note_on,91,59,0
2,note_on,91,0,720
2,note_on,87,50,0
2,note_on,87,0,240
2,note_on,86,57,0
2,note_on,86,0,480
2,note_on,79,50,0
2,note_on,79,0,70
2,note_on,84,53,410
2,note_on,84,0,240
2,note_on,87,57,1200
2,note_on,87,0,480
2,note_on,87,59,0
2,note_on,87,0,720
2,note_on,84,50,0
2,note_on,84,0,240
2,note_on,82,57,0
2,note_on,82,0,480
2,note_on,75,50,0
2,note_on,75,0,480
2,note_on,80,53,0
2,note_on,80,0,240
2,note_on,84,57,1200
2,note_on,84,0,480
2,note_on,84,59,0
2,note_on,84,0,720
2,note_on,80,50,0
2,note_on,80,0,240
2,note_on,79,57,0
2,note_on,79,0,480
2,note_on,72,50,0
2,note_on,72,0,70
2,note_on,77,57,410
2,note_on,77,0,720
2,note_on,80,53,0
2,note_on,80,0,240
2,note_on,79,57,0
2,note_on,79,0,480
2,note_on,72,50,0
2,note_on,72,0,70
2,note_on,77,57,410
2,note_on,77,0,480
2,note_on,75,53,0
2,note_on,75,0,480
2,note_on,79,63,6000
2,note_on,79,0,238
2,note_on,79,64,2
2,note_on,79,0,238
2,note_on,79,66,2
2,note_on,79,0,238
2,note_on,79,68,2
2,note_on,79,0,238
2,note_on,79,69,2
2,note_on,79,0,238
2,note_on,79,71,2
2,note_on,79,0,238
2,note_on,79,72,2
2,note_on,79,0,240
2,note_on,72,97,0
2,note_on,76,97,0
2,note_on,76,0,240
2,note_on,72,0,0
2,note_on,79,75,0
2,note_on,91,75,0
2,note_on,91,0,120
2,note_on,79,0,120
2,note_on,79,75,0
2,note_on,91,79,0
2,note_on,91,0,360
2,note_on,88,75,0
2,note_on,88,0,120
2,note_on,86,81,0
2,note_on,86,0,240
2,note_on,79,0,0
2,note_on,79,75,0
2,note_on,84,75,240
2,note_on,84,0,240
2,note_on,88,73,0
2,note_on,88,0,240
2,note_on,79,0,0
2,note_on,67,50,240
2,note_on,79,50,0
2,note_on,79,0,120
2,note_on,67,0,120
2,note_on,67,50,0
2,note_on,79,53,0
2,note_on,79,0,360
2,note_on,76,50,0
2,note_on,76,0,120
2,note_on,74,54,0
2,note_on,74,0,240
2,note_on,67,0,0
2,note_on,67,50,0
2,note_on,72,50,240
2,note_on,72,0,240
2,note_on,76,49,0
2,note_on,76,0,240
2,note_on,67,0,0
2,note_on,91,75,240
2,note_on,91,0,120
2,note_on,90,69,0
2,note_on,90,0,120
2,note_on,91,75,0
2,note_on,91,0,120
2,note_on,90,70,0
2,note_on,90,0,120
2,note_on,91,75,0
2,note_on,91,0,120
2,note_on,88,70,0
2,note_on,88,0,120
2,note_on,86,72,0
2,note_on,86,0,120
2,note_on,85,64,0
2,note_on,85,0,120
2,note_on,86,72,0
2,note_on,86,0,120
2,note_on,79,67,0
2,note_on,79,0,120
2,note_on,84,72,0
2,note_on,84,0,120
2,note_on,83,66,0
2,note_on,83,0,120
2,note_on,84,75,0
2,note_on,84,0,120
2,note_on,88,69,0
2,note_on,88,0,120
2,note_on,79,50,240
2,note_on,79,0,120
2,note_on,78,47,0
2,note_on,78,0,120
2,note_on,79,50,0
2,note_on,79,0,120
2,note_on,78,46,0
2,note_on,78,0,120
2,note_on,79,50,0
2,note_on,79,0,120
2,note_on,76,44,0
2,note_on,76,0,120
2,note_on,74,48,0
2,note_on,74,0,120
2,note_on,73,45,0
2,note_on,73,0,120
2,note_on,74,49,0
2,note_on,74,0,120
2,note_on,67,45,0
2,note_on,67,0,120
2,note_on,72,49,0
2,note_on,72,0,120
2,note_on,71,46,0
2,note_on,71,0,120
2,note_on,72,49,0
2,note_on,72,0,120
2,note_on,76,46,0
2,note_on,76,0,120
2,note_on,62,50,0
2,note_on,62,0,120
2,note_on,61,45,0
2,note_on,61,0,120
2,note_on,62,51,0
2,note_on,62,0,120
2,note_on,55,46,0
2,note_on,55,0,120
2,note_on,60,51,0
2,note_on,59,46,120
2,note_on,60,0,10
2,note_on,60,51,110
2,note_on,59,0,10
2,note_on,64,46,110
2,note_on,60,0,10
2,note_on,64,0,110
2,note_on,62,50,0
2,note_on,62,0,120
2,note_on,61,45,0
2,note_on,61,0,120
2,note_on,62,51,0
2,note_on,62,0,120
2,note_on,55,46,0
2,note_on,55,0,120
2,note_on,60,51,0
2,note_on,59,46,120
2,note_on,60,0,10
2,note_on,60,51,110
2,note_on,59,0,10
2,note_on,64,46,110
2,note_on,60,0,10
2,note_on,64,0,110
2,note_on,62,55,0
2,note_on,62,0,120
2,note_on,61,49,0
2,note_on,61,0,120
2,note_on,62,57,0
2,note_on,62,0,120
2,note_on,59,52,0
2,note_on,59,0,120
2,note_on,65,59,0
2,note_on,64,54,120
2,note_on,65,0,10
2,note_on,65,61,110
2,note_on,64,0,10
2,note_on,62,56,110
2,note_on,65,0,10
2,note_on,62,0,110
2,note_on,71,62,0
2,note_on,71,0,120
2,note_on,70,56,0
2,note_on,70,0,120
2,note_on,71,65,0
2,note_on,71,0,120
2,note_on,65,59,0
2,note_on,65,0,120
2,note_on,74,67,0
2,note_on,73,61,120
2,note_on,74,0,10
2,note_on,74,69,110
2,note_on,73,0,10
2,note_on,71,63,110
2,note_on,74,0,10
2,note_on,71,0,110
2,note_on,77,70,0
2,note_on,77,0,120
2,note_on,76,63,0
2,note_on,76,0,120
2,note_on,77,71,0
2,note_on,77,0,120
2,note_on,74,65,0
2,note_on,74,0,120
2,note_on,83,73,0
2,note_on,82,66,120
2,note_on,83,0,10
2,note_on,83,73,110
2,note_on,82,0,10
2,note_on,77,67,110
2,note_on,83,0,10
2,note_on,77,0,110
2,note_on,86,74,0
2,note_on,86,0,120
2,note_on,85,67,0
2,note_on,85,0,120
2,note_on,86,76,0
2,note_on,86,0,120
2,note_on,83,69,0
2,note_on,83,0,120
2,note_on,89,77,0
2,note_on,88,70,120
2,note_on,89,0,10
2,note_on,89,78,110
2,note_on,88,0,10
2,note_on,83,71,110
2,note_on,89,0,10
2,note_on,83,0,110
2,note_on,84,91,0
2,note_on,84,0,240
2,note_on,64,68,0
2,note_on,67,81,0
2,note_on,67,0,120
2,note_on,64,0,0
2,note_on,60,72,120
2,note_on,64,85,0
2,note_on,64,0,120
2,note_on,60,0,0
2,note_on,67,68,120
2,note_on,72,81,0
2,note_on,72,0,120
2,note_on,67,0,0
2,note_on,64,71,120
2,note_on,67,84,0
2,note_on,67,0,120
2,note_on,64,0,0
2,note_on,72,68,120
2,note_on,76,81,0
2,note_on,76,0,120
2,note_on,72,0,0
2,note_on,67,73,120
2,note_on,72,86,0
2,note_on,72,0,120
2,note_on,67,0,0
2,note_on,76,68,120
2,note_on,79,81,0
2,note_on,79,0,120
2,note_on,76,0,0
2,note_on,72,73,120
2,note_on,76,86,0
2,note_on,76,0,120
2,note_on,72,0,0
2,note_on,84,81,120
2,note_on,79,68,0
2,note_on,79,0,120
2,note_on,84,0,0
2,note_on,76,73,120
2,note_on,79,86,0
2,note_on,79,0,120
2,note_on,76,0,0
2,note_on,88,82,120
2,note_on,84,69,0
2,note_on,84,0,120
2,note_on,88,0,0
2,note_on,84,87,120
2,note_on,79,73,0
2,note_on,79,0,120
2,note_on,84,0,0
2,note_on,91,82,120
2,note_on,88,69,0
2,note_on,88,0,120
2,note_on,91,0,0
2,note_on,84,74,120
2,note_on,88,88,0
2,note_on,88,0,120
2,note_on,84,0,0
2,note_on,91,82,120
2,note_on,88,69,0
2,note_on,88,0,120
2,note_on,91,0,0
2,note_on,88,87,120
2,note_on,84,73,0
2,note_on,84,0,120
2,note_on,88,0,0
2,note_on,76,54,840
2,note_on,79,76,0
2,note_on,79,0,240
2,note_on,76,0,0
2,note_on,72,50,720
2,note_on,76,70,0
2,note_on,76,0,240
2,note_on,72,0,0
2,note_on,64,43,720
2,note_on,67,60,0
2,note_on,67,0,240
2,note_on,64,0,0
2,note_on,60,39,720
2,note_on,64,56,0
2,note_on,64,0,240
2,note_on,60,0,0
2,note_on,76,36,720
2,note_on,79,43,0
2,note_on,79,0,240
2,note_on,76,0,0
2,note_on,76,36,240
2,note_on,79,43,0
2,note_on,79,0,240
2,note_on,76,0,0
2,note_on,72,35,240
2,note_on,76,42,0
2,note_on,76,0,240
2,note_on,72,0,0
2,note_on,91,101,720
2,note_on,88,101,0
2,note_on,84,85,0
2,note_on,79,85,0
2,note_on,79,0,120
2,note_on,91,0,0
2,note_on,88,0,0
2,note_on,84,0,0
2,note_on,79,85,360
2,note_on,84,85,0
2,note_on,88,101,0
2,note_on,91,101,0
2,note_on,91,0,120
2,note_on,79,0,0
2,note_on,84,0,0
2,note_on,88,0,0
2,note_on,88,101,360
2,note_on,84,101,0
2,note_on,79,85,0
2,note_on,76,85,0
2,note_on,76,0,120
2,note_on,88,0,0
2,note_on,84,0,0
2,note_on,79,0,0
2,note_on,64,85,840
2,note_on,67,85,0
2,note_on,72,101,0
2,note_on,76,101,0
2,note_on,76,0,120
2,note_on,64,0,0
2,note_on,67,0,0
2,note_on,72,0,0
2,note_on,60,85,840
2,note_on,64,85,0
2,note_on,67,101,0
2,note_on,72,101,0
2,note_on,72,0,120
2,note_on,60,0,0
2,note_on,64,0,0
2,note_on,67,0,0
3,note_on,36,50,0
3,note_on,36,0,240
3,note_on,79,50,240
3,note_on,79,0,240
3,note_on,79,54,240
3,note_on,79,0,720
3,note_on,76,47,0
3,note_on,76,0,240
3,note_on,74,50,0
3,note_on,74,0,480
3,note_on,67,41,0
3,note_on,67,0,480
3,note_on,72,50,0
3,note_on,72,0,480
3,note_on,76,47,0
3,note_on,76,0,240
3,note_on,48,31,120
3,note_on,48,0,120
3,note_on,36,50,0
3,note_on,36,0,240
3,note_on,79,50,240
3,note_on,79,0,240
3,note_on,79,54,240
3,note_on,79,0,720
3,note_on,76,47,0
3,note_on,76,0,240
3,note_on,74,50,0
3,note_on,74,0,480
3,note_on,67,41,0
3,note_on,67,0,480
3,note_on,72,50,0
3,note_on,72,0,240
3,note_on,43,30,600
3,note_on,43,0,120
3,note_on,31,45,0
3,note_on,31,0,240
3,note_on,77,50,240
3,note_on,77,0,240
3,note_on,77,54,240
3,note_on,77,0,720
3,note_on,74,47,0
3,note_on,74,0,240
3,note_on,76,50,0
3,note_on,76,0,480
3,note_on,72,41,0
3,note_on,72,0,480
3,note_on,71,50,0
3,note_on,71,0,480
3,note_on,74,47,0
3,note_on,74,0,240
3,note_on,43,32,120
3,note_on,43,0,120
3,note_on,31,48,0
3,note_on,31,0,240
3,note_on,77,50,240
3,note_on,77,0,240
3,note_on,77,54,240
3,note_on,77,0,720
3,note_on,74,47,0
3,note_on,74,0,240
3,note_on,75,50,0
3,note_on,75,0,480
3,note_on,72,41,0
3,note_on,72,0,480
3,note_on,71,50,0
3,note_on,71,0,480
3,note_on,74,47,0
3,note_on,74,0,480
3,note_on,76,50,0
3,note_on,76,0,480
3,note_on,72,41,0
3,note_on,72,0,480
3,note_on,71,50,0
3,note_on,71,0,480
3,note_on,74,47,0
3,note_on,74,0,480
3,note_on,75,50,0
3,note_on,75,0,480
3,note_on,72,41,0
3,note_on,72,0,480
3,note_on,79,50,0
3,note_on,79,0,475
3,note_on,79,47,5
3,note_on,79,0,475
3,note_on,79,50,5
3,note_on,79,0,475
3,note_on,79,47,5
3,note_on,79,0,475
3,note_on,79,50,5
3,note_on,79,0,475
3,note_on,79,47,5
3,note_on,79,0,475
3,note_on,79,47,5
3,note_on,79,0,480
3,note_on,36,50,7200
3,note_on,36,0,120
3,note_on,43,30,0
3,note_on,43,0,120
3,note_on,48,32,0
3,note_on,48,0,120
3,note_on,52,34,0
3,note_on,52,0,120
3,note_on,55,31,0
3,note_on,55,0,120
3,note_on,48,31,0
3,note_on,48,0,120
3,note_on,52,31,0
3,note_on,52,0,120
3,note_on,55,35,0
3,note_on,55,0,120
3,note_on,60,30,0
3,note_on,60,0,120
3,note_on,52,31,0
3,note_on,52,0,120
3,note_on,55,33,0
3,note_on,55,0,120
3,note_on,60,36,0
3,note_on,60,0,120
3,note_on,64,33,0
3,note_on,64,0,120
3,note_on,55,33,0
3,note_on,55,0,120
3,note_on,60,33,0
3,note_on,60,0,120
3,note_on,64,36,0
3,note_on,64,0,120
3,note_on,65,28,0
3,note_on,65,0,120
3,note_on,64,31,0
3,note_on,64,0,120
3,note_on,62,33,0
3,note_on,62,0,120
3,note_on,60,36,0
3,note_on,60,0,120
3,note_on,59,33,0
3,note_on,59,0,120
3,note_on,57,33,0
3,note_on,57,0,120
3,note_on,55,34,0
3,note_on,55,0,120
3,note_on,53,34,0
3,note_on,53,0,120
3,note_on,52,28,0
3,note_on,52,0,120
3,note_on,55,30,0
3,note_on,55,0,120
3,note_on,48,32,0
3,note_on,48,0,120
3,note_on,52,34,0
3,note_on,52,0,120
3,note_on,43,32,0
3,note_on,43,0,120
3,note_on,48,32,0
3,note_on,48,0,120
3,note_on,40,33,0
3,note_on,40,0,120
3,note_on,43,34,0
3,note_on,43,0,120
3,note_on,36,50,0
3,note_on,36,0,120
3,note_on,43,30,0
3,note_on,43,0,120
3,note_on,48,32,0
3,note_on,48,0,120
3,note_on,52,34,0
3,note_on,52,0,120
3,note_on,55,31,0
3,note_on,55,0,120
3,note_on,48,31,0
3,note_on,48,0,120
3,note_on,52,31,0
3,note_on,52,0,120
3,note_on,55,35,0
3,note_on,55,0,120
3,note_on,60,30,0
3,note_on,60,0,120
3,note_on,52,31,0
3,note_on,52,0,120
3,note_on,55,33,0
3,note_on,55,0,120
3,note_on,60,36,0
3,note_on,60,0,120
3,note_on,64,33,0
3,note_on,64,0,120
3,note_on,55,33,0
3,note_on,55,0,120
3,note_on,60,33,0
3,note_on,60,0,120
3,note_on,64,33,0
3,note_on,64,0,120
3,note_on,65,28,0
3,note_on,65,0,120
3,note_on,64,31,0
3,note_on,64,0,120
3,note_on,62,33,0
3,note_on,62,0,120
3,note_on,60,36,0
3,note_on,60,0,120
3,note_on,59,33,0
3,note_on,59,0,120
3,note_on,55,33,0
3,note_on,55,0,120
3,note_on,57,34,0
3,note_on,57,0,120
3,note_on,59,34,0
3,note_on,59,0,120
3,note_on,60,28,0
3,note_on,60,0,120
3,note_on,59,30,0
3,note_on,59,0,120
3,note_on,57,32,0
3,note_on,57,0,120
3,note_on,55,34,0
3,note_on,55,0,120
3,note_on,53,32,0
3,note_on,53,0,120
3,note_on,52,32,0
3,note_on,52,0,120
3,note_on,50,33,0
3,note_on,50,0,120
3,note_on,48,35,0
3,note_on,48,0,120
3,note_on,43,45,0
3,note_on,43,0,120
3,note_on,47,30,0
3,note_on,47,0,120
3,note_on,50,32,0
3,note_on,50,0,120
3,note_on,55,34,0
3,note_on,55,0,120
3,note_on,47,31,0
3,note_on,47,0,120
3,note_on,50,31,0
3,note_on,50,0,120
3,note_on,55,31,0
3,note_on,55,0,120
3,note_on,59,35,0
3,note_on,59,0,120
3,note_on,50,30,0
3,note_on,50,0,120
3,note_on,55,31,0
3,note_on,55,0,120
3,note_on,59,33,0
3,note_on,59,0,120
3,note_on,62,36,0
3,note_on,62,0,120
3,note_on,55,33,0
3,note_on,55,0,120
3,note_on,59,33,0
3,note_on,59,0,120
3,note_on,62,33,0
3,note_on,62,0,120
3,note_on,67,36,0
3,note_on,67,0,120
3,note_on,55,28,0
3,note_on,55,0,120
3,note_on,60,31,0
3,note_on,60,0,120
3,note_on,67,33,0
3,note_on,67,0,120
3,note_on,60,36,0
3,note_on,60,0,120
3,note_on,55,28,0
3,note_on,55,0,120
3,note_on,64,31,0
3,note_on,64,0,120
3,note_on,67,33,0
3,note_on,67,0,120
3,note_on,64,36,0
3,note_on,64,0,120
3,note_on,55,28,0
3,note_on,55,0,120
3,note_on,62,30,0
3,note_on,62,0,120
3,note_on,67,32,0
3,note_on,67,0,120
3,note_on,62,36,0
3,note_on,62,0,120
3,note_on,55,28,0
3,note_on,55,0,120
3,note_on,59,30,0
3,note_on,59,0,120
3,note_on,67,32,0
3,note_on,67,0,120
3,note_on,59,35,0
3,note_on,59,0,120
3,note_on,43,48,0
3,note_on,43,0,120
3,note_on,47,30,0
3,note_on,47,0,120
3,note_on,50,32,0
3,note_on,50,0,120
3,note_on,55,34,0
3,note_on,55,0,120
3,note_on,47,31,0
3,note_on,47,0,120
3,note_on,50,31,0
3,note_on,50,0,120
3,note_on,55,31,0
3,note_on,55,0,120
3,note_on,59,35,0
3,note_on,59,0,120
3,note_on,50,30,0
3,note_on,50,0,120
3,note_on,55,31,0
3,note_on,55,0,120
3,note_on,59,33,0
3,note_on,59,0,120
3,note_on,62,36,0
3,note_on,62,0,120
3,note_on,55,33,0
3,note_on,55,0,120
3,note_on,59,33,0
3,note_on,59,0,120
3,note_on,62,33,0
3,note_on,62,0,120
3,note_on,67,36,0
3,note_on,67,0,120
3,note_on,55,28,0
3,note_on,55,0,120
3,note_on,60,31,0
3,note_on,60,0,120
3,note_on,67,33,0
3,note_on,67,0,120
3,note_on,60,35,0
3,note_on,60,0,120
3,note_on,55,28,0
3,note_on,55,0,120
3,note_on,63,31,0
3,note_on,63,0,120
3,note_on,67,33,0
3,note_on,67,0,120
3,note_on,63,35,0
3,note_on,63,0,120
3,note_on,55,28,0
3,note_on,55,0,120
3,note_on,62,30,0
3,note_on,62,0,120
3,note_on,67,32,0
3,note_on,67,0,120
3,note_on,62,35,0
3,note_on,62,0,120
3,note_on,55,28,0
3,note_on,55,0,120
3,note_on,59,30,0
3,note_on,59,0,120
3,note_on,67,32,0
3,note_on,67,0,120
3,note_on,59,35,0
3,note_on,59,0,120
3,note_on,55,28,0
3,note_on,55,0,120
3,note_on,60,31,0
3,note_on,60,0,120
3,note_on,67,33,0
3,note_on,67,0,120
3,note_on,60,35,0
3,note_on,60,0,120
3,note_on,55,28,0
3,note_on,55,0,120
3,note_on,64,32,0
3,note_on,64,0,120
3,note_on,67,34,0
3,note_on,67,0,120
3,note_on,64,37,0
3,note_on,64,0,120
3,note_on,55,29,0
3,note_on,55,0,120
3,note_on,62,32,0
3,note_on,62,0,120
3,note_on,67,34,0
3,note_on,67,0,120
3,note_on,62,38,0
3,note_on,62,0,120
3,note_on,55,31,0
3,note_on,55,0,120
3,note_on,59,33,0
3,note_on,59,0,120
3,note_on,67,36,0
3,note_on,67,0,120
3,note_on,59,39,0
3,note_on,59,0,120
3,note_on,55,28,0
3,note_on,55,0,120
3,note_on,60,31,0
3,note_on,60,0,120
3,note_on,67,33,0
3,note_on,67,0,120
3,note_on,60,35,0
3,note_on,60,0,120
3,note_on,55,28,0
3,note_on,55,0,120
3,note_on,60,31,0
3,note_on,60,0,120
3,note_on,63,33,0
3,note_on,63,0,120
3,note_on,60,35,0
3,note_on,60,0,120
3,note_on,55,28,0
3,note_on,55,0,120
3,note_on,59,30,0
3,note_on,59,0,120
3,note_on,62,32,0
3,note_on,62,0,120
3,note_on,59,35,0
3,note_on,59,0,120
3,note_on,55,28,0
3,note_on,55,0,120
3,note_on,60,30,0
3,note_on,60,0,120
3,note_on,63,32,0
3,note_on,63,0,120
3,note_on,60,35,0
3,note_on,60,0,120
3,note_on,55,42,0
3,note_on,55,0,60
3,note_on,59,27,60
3,note_on,59,0,120
3,note_on,62,27,0
3,note_on,62,0,120
3,note_on,59,28,0
3,note_on,59,0,120
3,note_on,55,48,0
3,note_on,55,0,60
3,note_on,60,29,60
3,note_on,60,0,120
3,note_on,64,30,0
3,note_on,64,0,120
3,note_on,60,31,0
3,note_on,60,0,120
3,note_on,55,51,0
3,note_on,55,0,60
3,note_on,59,32,60
3,note_on,59,0,120
3,note_on,62,34,0
3,note_on,62,0,120
3,note_on,59,34,0
3,note_on,59,0,120
3,note_on,55,58,0
3,note_on,55,0,60
3,note_on,57,35,60
3,note_on,57,0,120
3,note_on,60,37,0
3,note_on,60,0,120
3,note_on,57,39,0
3,note_on,57,0,120
3,note_on,55,64,0
3,note_on,55,0,60
3,note_on,59,42,60
3,note_on,59,0,120
3,note_on,57,44,0
3,note_on,57,0,120
3,note_on,55,45,0
3,note_on,55,0,120
3,note_on,53,69,0
3,note_on,53,0,60
3,note_on,57,50,60
3,note_on,57,0,120
3,note_on,55,53,0
3,note_on,55,0,120
3,note_on,53,56,0
3,note_on,53,0,120
3,note_on,52,77,0
3,note_on,52,0,60
3,note_on,55,60,60
3,note_on,55,0,120
3,note_on,53,62,0
3,note_on,53,0,120
3,note_on,52,64,0
3,note_on,52,0,120
3,note_on,50,82,0
3,note_on,50,0,60
3,note_on,53,64,60
3,note_on,53,0,120
3,note_on,52,67,0
3,note_on,52,0,120
3,note_on,50,71,0
3,note_on,50,0,120
3,note_on,36,94,0
3,note_on,48,94,0
3,note_on,50,56,120
3,note_on,50,0,60
3,note_on,52,57,0
3,note_on,52,0,60
3,note_on,48,0,0
3,note_on,36,0,0
3,note_on,53,60,0
3,note_on,53,0,60
3,note_on,55,60,0
3,note_on,55,0,60
3,note_on,57,62,0
3,note_on,57,0,60
3,note_on,59,63,0
3,note_on,59,0,60
3,note_on,60,63,0
3,note_on,60,0,120
3,note_on,62,65,0
3,note_on,62,0,60
3,note_on,64,66,0
3,note_on,64,0,60
3,note_on,65,67,0
3,note_on,65,0,60
3,note_on,67,69,0
3,note_on,67,0,60
3,note_on,69,70,0
3,note_on,69,0,60
3,note_on,71,71,0
3,note_on,71,0,60
3,note_on,72,74,0
3,note_on,72,0,60
3,note_on,71,71,60
3,note_on,71,0,60
3,note_on,69,71,60
3,note_on,69,0,60
3,note_on,67,71,60
3,note_on,67,0,60
3,note_on,65,72,60
3,note_on,65,0,60
3,note_on,64,69,60
3,note_on,64,0,60
3,note_on,62,69,60
3,note_on,62,0,60
3,note_on,60,67,60
3,note_on,60,0,60
3,note_on,59,73,60
3,note_on,59,0,60
3,note_on,60,69,60
3,note_on,60,0,60
3,note_on,59,69,60
3,note_on,59,0,60
3,note_on,57,69,60
3,note_on,57,0,60
3,note_on,55,75,60
3,note_on,55,0,60
3,note_on,53,69,60
3,note_on,53,0,60
3,note_on,52,69,60
3,note_on,52,0,60
3,note_on,50,69,60
3,note_on,50,0,60
3,note_on,48,75,60
3,note_on,48,0,60
3,note_on,48,69,60
3,note_on,48,0,60
3,note_on,47,69,60
3,note_on,47,0,60
3,note_on,45,69,60
3,note_on,45,0,60
3,note_on,43,72,60
3,note_on,43,0,60
3,note_on,41,71,60
3,note_on,41,0,60
3,note_on,40,75,60
3,note_on,40,0,60
3,note_on,38,80,60
3,note_on,38,0,60
3,note_on,36,95,60
3,note_on,48,95,0
3,note_on,50,56,120
3,note_on,50,0,60
3,note_on,52,57,0
3,note_on,52,0,60
3,note_on,48,0,0
3,note_on,36,0,0
3,note_on,53,60,0
3,note_on,53,0,60
3,note_on,55,60,0
3,note_on,55,0,60
3,note_on,57,62,0
3,note_on,57,0,60
3,note_on,59,63,0
3,note_on,59,0,60
3,note_on,60,63,0
3,note_on,60,0,120
3,note_on,62,65,0
3,note_on,62,0,60
3,note_on,64,66,0
3,note_on,64,0,60
3,note_on,65,67,0
3,note_on,65,0,60
3,note_on,67,69,0
3,note_on,67,0,60
3,note_on,69,70,0
3,note_on,69,0,60
3,note_on,71,71,0
3,note_on,71,0,60
3,note_on,72,74,0
3,note_on,72,0,60
3,note_on,71,71,60
3,note_on,71,0,60
3,note_on,69,71,60
3,note_on,69,0,60
3,note_on,67,71,60
3,note_on,67,0,60
3,note_on,65,72,60
3,note_on,65,0,60
3,note_on,64,69,60
3,note_on,64,0,60
3,note_on,62,69,60
3,note_on,62,0,60
3,note_on,60,67,60
3,note_on,60,0,60
3,note_on,59,73,60
3,note_on,59,0,60
3,note_on,60,69,60
3,note_on,60,0,60
3,note_on,59,69,60
3,note_on,59,0,60
3,note_on,57,69,60
3,note_on,57,0,60
3,note_on,55,75,60
3,note_on,55,0,60
3,note_on,53,69,60
3,note_on,53,0,60
3,note_on,52,69,60
3,note_on,52,0,60
3,note_on,50,69,60
3,note_on,50,0,60
3,note_on,48,75,60
3,note_on,48,0,240
3,note_on,36,75,0
3,note_on,36,0,240
3,note_on,36,60,240
3,note_on,48,71,0
3,note_on,48,0,240
3,note_on,36,0,0
3,note_on,36,60,240
3,note_on,48,71,0
3,note_on,48,0,240
3,note_on,36,0,0
3,note_on,36,57,240
3,note_on,48,68,0
3,note_on,48,0,240
3,note_on,36,0,0
3,note_on,36,53,240
3,note_on,48,63,0
3,note_on,48,0,240
3,note_on,36,0,0
3,note_on,36,59,240
3,note_on,48,70,0
3,note_on,48,0,240
3,note_on,36,0,0
3,note_on,36,60,240
3,note_on,48,71,0
3,note_on,48,0,240
3,note_on,36,0,0
3,note_on,36,60,240
3,note_on,48,71,0
3,note_on,48,0,240
3,note_on,36,0,0
3,note_on,36,71,240
3,note_on,36,0,240
3,note_on,48,60,240
3,note_on,40,60,0
3,note_on,52,71,0
3,note_on,52,0,240
3,note_on,40,0,0
3,note_on,48,0,0
3,note_on,48,60,240
3,note_on,41,60,0
3,note_on,53,71,0
3,note_on,53,0,240
3,note_on,41,0,0
3,note_on,48,0,0
3,note_on,48,57,240
3,note_on,40,57,0
3,note_on,52,68,0
3,note_on,52,0,240
3,note_on,40,0,0
3,note_on,48,0,0
3,note_on,48,53,240
3,note_on,38,53,0
3,note_on,50,63,0
3,note_on,50,0,240
3,note_on,38,0,0
3,note_on,48,0,0
3,note_on,48,59,240
3,note_on,39,59,0
3,note_on,51,70,0
3,note_on,51,0,240
3,note_on,39,0,0
3,note_on,48,0,0
3,note_on,48,60,240
3,note_on,40,60,0
3,note_on,52,71,0
3,note_on,52,0,240
3,note_on,40,0,0
3,note_on,48,0,0
3,note_on,48,60,240
3,note_on,38,60,0
3,note_on,50,71,0
3,note_on,50,0,240
3,note_on,38,0,0
3,note_on,48,0,0
3,note_on,36,63,240
3,note_on,48,63,0
3,note_on,48,0,240
3,note_on,36,0,0
3,note_on,40,82,0
3,note_on,40,0,120
3,note_on,40,82,120
3,note_on,40,0,120
3,note_on,33,68,120
3,note_on,45,80,0
3,note_on,45,0,120
3,note_on,33,0,0
3,note_on,35,70,120
3,note_on,47,83,0
3,note_on,47,0,120
3,note_on,35,0,0
3,note_on,36,72,120
3,note_on,48,85,0
3,note_on,48,0,120
3,note_on,36,0,0
3,note_on,38,74,120
3,note_on,50,89,0
3,note_on,50,0,120
3,note_on,38,0,0
3,note_on,40,80,120
3,note_on,52,95,0
3,note_on,52,0,480
3,note_on,40,0,0
3,note_on,40,74,0
3,note_on,52,88,0
3,note_on,52,0,120
3,note_on,40,0,0
3,note_on,38,73,120
3,note_on,50,86,0
3,note_on,50,0,120
3,note_on,38,0,0
3,note_on,36,71,120
3,note_on,48,84,0
3,note_on,48,0,120
3,note_on,36,0,0
3,note_on,35,69,120
3,note_on,47,82,0
3,note_on,47,0,120
3,note_on,35,0,0
3,note_on,36,68,120
3,note_on,48,80,0
3,note_on,48,0,120
3,note_on,36,0,0
3,note_on,33,67,120
3,note_on,45,79,0
3,note_on,45,0,120
3,note_on,33,0,0
3,note_on,40,92,120
3,note_on,40,0,480
3,note_on,40,69,0
3,note_on,52,82,0
3,note_on,52,0,120
3,note_on,40,0,0
3,note_on,40,69,120
3,note_on,52,82,0
3,note_on,52,0,120
3,note_on,40,0,0
3,note_on,45,68,120
3,note_on,57,80,0
3,note_on,57,0,120
3,note_on,45,0,0
3,note_on,47,70,120
3,note_on,59,83,0
3,note_on,59,0,120
3,note_on,47,0,0
3,note_on,48,72,120
3,note_on,60,85,0
3,note_on,60,0,120
3,note_on,48,0,0
3,note_on,50,74,120
3,note_on,62,89,0
3,note_on,62,0,120
3,note_on,50,0,0
3,note_on,52,80,120
3,note_on,64,95,0
3,note_on,64,0,480
3,note_on,52,0,0
3,note_on,52,74,0
3,note_on,64,88,0
3,note_on,64,0,120
3,note_on,52,0,0
3,note_on,50,73,120
3,note_on,62,86,0
3,note_on,62,0,120
3,note_on,50,0,0
3,note_on,48,71,120
3,note_on,60,84,0
3,note_on,60,0,120
3,note_on,48,0,0
3,note_on,47,69,120
3,note_on,59,82,0
3,note_on,59,0,120
3,note_on,47,0,0
3,note_on,48,68,120
3,note_on,60,80,0
3,note_on,60,0,120
3,note_on,48,0,0
3,note_on,45,67,120
3,note_on,57,79,0
3,note_on,57,0,120
3,note_on,45,0,0
3,note_on,40,70,120
3,note_on,52,82,0
3,note_on,52,0,480
3,note_on,40,0,0
3,note_on,41,56,0
3,note_on,45,67,0
3,note_on,53,79,0
3,note_on,53,0,120
3,note_on,45,0,0
3,note_on,41,0,0
3,note_on,41,53,120
3,note_on,45,63,0
3,note_on,53,75,0
3,note_on,53,0,120
3,note_on,45,0,0
3,note_on,41,0,0
3,note_on,40,56,120
3,note_on,45,67,0
3,note_on,52,79,0
3,note_on,52,0,120
3,note_on,45,0,0
3,note_on,40,0,0
3,note_on,40,56,120
3,note_on,45,67,0
3,note_on,52,79,0
3,note_on,52,0,120
3,note_on,45,0,0
3,note_on,40,0,0
3,note_on,38,56,120
3,note_on,45,66,0
3,note_on,50,78,0
3,note_on,50,0,120
3,note_on,45,0,0
3,note_on,38,0,0
3,note_on,38,56,120
3,note_on,45,66,0
3,note_on,50,78,0
3,note_on,50,0,120
3,note_on,45,0,0
3,note_on,38,0,0
3,note_on,36,56,120
3,note_on,45,66,0
3,note_on,48,78,0
3,note_on,48,0,120
3,note_on,45,0,0
3,note_on,36,0,0
3,note_on,36,56,120
3,note_on,45,67,0
3,note_on,48,79,0
3,note_on,48,0,120
3,note_on,45,0,0
3,note_on,36,0,0
3,note_on,38,53,120
3,note_on,45,63,0
3,note_on,50,75,0
3,note_on,50,0,120
3,note_on,45,0,0
3,note_on,38,0,0
3,note_on,38,52,120
3,note_on,45,62,0
3,note_on,50,74,0
3,note_on,50,0,120
3,note_on,45,0,0
3,note_on,38,0,0
3,note_on,40,56,120
3,note_on,45,67,0
3,note_on,52,79,0
3,note_on,52,0,120
3,note_on,45,0,0
3,note_on,40,0,0
3,note_on,40,64,120
3,note_on,52,77,0
3,note_on,52,0,120
3,note_on,40,0,0
3,note_on,40,62,120
3,note_on,52,74,0
3,note_on,52,0,120
3,note_on,40,0,0
3,note_on,40,62,120
3,note_on,52,74,0
3,note_on,52,0,120
3,note_on,40,0,0
3,note_on,36,80,120
3,note_on,36,0,120
3,note_on,45,66,0
3,note_on,45,0,120
3,note_on,44,66,0
3,note_on,44,0,120
3,note_on,45,66,0
3,note_on,45,0,120
3,note_on,41,84,0
3,note_on,41,0,120
3,note_on,45,64,0
3,note_on,45,0,120
3,note_on,44,64,0
3,note_on,44,0,120
3,note_on,45,64,0
3,note_on,45,0,120
3,note_on,40,84,0
3,note_on,40,0,120
3,note_on,45,67,0
3,note_on,45,0,120
3,note_on,44,67,0
3,note_on,44,0,120
3,note_on,45,67,0
3,note_on,45,0,120
3,note_on,38,82,0
3,note_on,38,0,120
3,note_on,45,66,0
3,note_on,45,0,120
3,note_on,44,66,0
3,note_on,44,0,120
3,note_on,45,66,0
3,note_on,45,0,120
3,note_on,36,82,0
3,note_on,36,0,120
3,note_on,45,63,0
3,note_on,45,0,120
3,note_on,44,66,0
3,note_on,44,0,120
3,note_on,45,67,0
3,note_on,45,0,120
3,note_on,38,85,0
3,note_on,38,0,120
3,note_on,45,66,0
3,note_on,45,0,120
3,note_on,38,66,0
3,note_on,38,0,120
3,note_on,45,66,0
3,note_on,45,0,120
3,note_on,40,85,0
3,note_on,40,0,120
3,note_on,45,67,0
3,note_on,45,0,120
3,note_on,40,74,0
3,note_on,40,0,120
3,note_on,52,67,0
3,note_on,52,0,120
3,note_on,40,83,0
3,note_on,40,0,120
3,note_on,52,66,0
3,note_on,52,0,120
3,note_on,40,69,0
3,note_on,40,0,120
3,note_on,52,63,0
3,note_on,52,0,120
3,note_on,45,70,0
3,note_on,45,0,120
3,note_on,52,67,0
3,note_on,52,0,120
3,note_on,48,68,0
3,note_on,48,0,120
3,note_on,52,68,0
3,note_on,52,0,120
3,note_on,45,59,0
3,note_on,47,70,0
3,note_on,47,0,120
3,note_on,52,66,0
3,note_on,52,0,120
3,note_on,45,0,0
3,note_on,45,55,0
3,note_on,50,66,0
3,note_on,50,0,120
3,note_on,52,66,0
3,note_on,52,0,120
3,note_on,45,0,0
3,note_on,45,59,0
3,note_on,48,70,0
3,note_on,48,0,120
3,note_on,52,63,0
3,note_on,52,0,120
3,note_on,45,0,0
3,note_on,45,53,0
3,note_on,48,63,0
3,note_on,48,0,120
3,note_on,52,63,0
3,note_on,52,0,120
3,note_on,45,0,0
3,note_on,45,59,0
3,note_on,47,70,0
3,note_on,47,0,120
3,note_on,52,66,0
3,note_on,52,0,120
3,note_on,45,0,0
3,note_on,45,55,0
3,note_on,50,66,0
3,note_on,50,0,120
3,note_on,52,66,0
3,note_on,52,0,120
3,note_on,45,0,0
3,note_on,45,59,0
3,note_on,48,70,0
3,note_on,48,0,120
3,note_on,57,63,0
3,note_on,57,0,120
3,note_on,45,0,0
3,note_on,52,63,0
3,note_on,52,0,120
3,note_on,57,63,0
3,note_on,57,0,120
3,note_on,45,36,0
3,note_on,50,43,0
3,note_on,50,0,120
3,note_on,56,37,0
3,note_on,56,0,120
3,note_on,45,0,0
3,note_on,52,37,0
3,note_on,52,0,120
3,note_on,56,37,0
3,note_on,56,0,120
3,note_on,45,36,0
3,note_on,48,44,0
3,note_on,48,0,120
3,note_on,57,38,0
3,note_on,57,0,120
3,note_on,45,0,0
3,note_on,52,38,0
3,note_on,52,0,120
3,note_on,57,38,0
3,note_on,57,0,120
3,note_on,45,36,0
3,note_on,50,44,0
3,note_on,50,0,120
3,note_on,56,38,0
3,note_on,56,0,120
3,note_on,45,0,0
3,note_on,52,38,0
3,note_on,52,0,120
3,note_on,56,38,0
3,note_on,56,0,120
3,note_on,45,36,0
3,note_on,48,44,0
3,note_on,48,0,120
3,note_on,57,37,0
3,note_on,57,0,120
3,note_on,45,0,0
3,note_on,52,37,0
3,note_on,52,0,120
3,note_on,57,37,0
3,note_on,57,0,120
3,note_on,45,59,0
3,note_on,47,70,0
3,note_on,47,0,120
3,note_on,52,66,0
3,note_on,52,0,120
3,note_on,45,0,0
3,note_on,45,55,0
3,note_on,50,66,0
3,note_on,50,0,120
3,note_on,52,66,0
3,note_on,52,0,120
3,note_on,45,0,0
3,note_on,45,59,0
3,note_on,48,70,0
3,note_on,48,0,120
3,note_on,52,63,0
3,note_on,52,0,120
3,note_on,45,0,0
3,note_on,45,53,0
3,note_on,48,63,0
3,note_on,48,0,120
3,note_on,52,63,0
3,note_on,52,0,120
3,note_on,45,0,0
3,note_on,45,59,0
3,note_on,47,70,0
3,note_on,47,0,120
3,note_on,52,66,0
3,note_on,52,0,120
3,note_on,45,0,0
3,note_on,45,55,0
3,note_on,50,66,0
3,note_on,50,0,120
3,note_on,52,66,0
3,note_on,52,0,120
3,note_on,45,0,0
3,note_on,45,59,0
3,note_on,48,70,0
3,note_on,48,0,120
3,note_on,57,63,0
3,note_on,57,0,120
3,note_on,45,0,0
3,note_on,52,63,0
3,note_on,52,0,120
3,note_on,57,63,0
3,note_on,57,0,120
3,note_on,50,43,0
3,note_on,45,36,0
3,note_on,50,0,120
3,note_on,56,37,0
3,note_on,56,0,120
3,note_on,45,0,0
3,note_on,52,37,0
3,note_on,52,0,120
3,note_on,56,37,0
3,note_on,56,0,120
3,note_on,48,43,0
3,note_on,45,35,0
3,note_on,48,0,120
3,note_on,57,37,0
3,note_on,57,0,120
3,note_on,45,0,0
3,note_on,52,37,0
3,note_on,52,0,120
3,note_on,57,37,0
3,note_on,57,0,120
3,note_on,50,43,0
3,note_on,45,35,0
3,note_on,50,0,120
3,note_on,56,37,0
3,note_on,56,0,120
3,note_on,45,0,0
3,note_on,52,37,0
3,note_on,52,0,120
3,note_on,56,37,0
3,note_on,56,0,120
3,note_on,45,34,0
3,note_on,48,42,0
3,note_on,48,0,120
3,note_on,57,36,0
3,note_on,57,0,120
3,note_on,45,0,0
3,note_on,52,35,0
3,note_on,52,0,120
3,note_on,57,35,0
3,note_on,57,0,120
3,note_on,50,37,0
3,note_on,45,32,0
3,note_on,50,0,120
3,note_on,56,33,0
3,note_on,56,0,120
3,note_on,45,0,0
3,note_on,52,33,0
3,note_on,52,0,120
3,note_on,56,32,0
3,note_on,56,0,120
3,note_on,48,38,0
3,note_on,45,31,0
3,note_on,48,0,120
3,note_on,57,33,0
3,note_on,57,0,120
3,note_on,45,0,0
3,note_on,52,32,0
3,note_on,52,0,120
3,note_on,57,32,0
3,note_on,57,0,120
3,note_on,50,34,0
3,note_on,45,29,0
3,note_on,50,0,120
3,note_on,56,31,0
3,note_on,56,0,120
3,note_on,45,0,0
3,note_on,52,29,0
3,note_on,52,0,120
3,note_on,56,29,0
3,note_on,56,0,120
3,note_on,45,26,0
3,note_on,48,32,0
3,note_on,48,0,120
3,note_on,57,28,0
3,note_on,57,0,120
3,note_on,45,0,0
3,note_on,52,28,0
3,note_on,52,0,120
3,note_on,57,28,0
3,note_on,57,0,120
3,note_on,50,32,0
3,note_on,45,26,0
3,note_on,50,0,120
3,note_on,56,28,0
3,note_on,56,0,120
3,note_on,45,0,0
3,note_on,52,28,0
3,note_on,52,0,120
3,note_on,56,28,0
3,note_on,56,0,120
3,note_on,45,26,0
3,note_on,48,32,0
3,note_on,48,0,120
3,note_on,57,28,0
3,note_on,57,0,120
3,note_on,45,0,0
3,note_on,52,28,0
3,note_on,52,0,120
3,note_on,57,28,0
3,note_on,57,0,120
3,note_on,50,32,0
3,note_on,45,26,0
3,note_on,50,0,120
3,note_on,56,28,0
3,note_on,56,0,120
3,note_on,45,0,0
3,note_on,52,28,0
3,note_on,52,0,120
3,note_on,56,28,0
3,note_on,56,0,120
3,note_on,45,62,0
3,note_on,57,62,0
3,note_on,57,0,240
3,note_on,45,0,0
3,note_on,64,63,240
3,note_on,64,0,240
3,note_on,64,74,240
3,note_on,64,0,720
3,note_on,60,47,0
3,note_on,60,0,240
3,note_on,59,50,0
3,note_on,59,0,480
3,note_on,52,47,0
3,note_on,52,0,480
3,note_on,57,47,0
3,note_on,57,0,240
3,note_on,29,74,720
3,note_on,41,74,0
3,note_on,41,0,240
3,note_on,29,0,0
3,note_on,60,74,240
3,note_on,60,0,240
3,note_on,60,79,240
3,note_on,60,0,720
3,note_on,57,48,0
3,note_on,57,0,240
3,note_on,55,53,0
3,note_on,55,0,480
3,note_on,48,49,0
3,note_on,48,0,480
3,note_on,53,49,0
3,note_on,53,0,240
3,note_on,31,90,720
3,note_on,43,90,0
3,note_on,43,0,240
3,note_on,31,0,0
3,note_on,65,80,240
3,note_on,65,0,240
3,note_on,65,81,240
3,note_on,65,0,720
3,note_on,62,53,0
3,note_on,62,0,240
3,note_on,59,59,0
3,note_on,59,0,480
3,note_on,55,55,0
3,note_on,55,0,480
3,note_on,53,55,0
3,note_on,53,0,720
3,note_on,50,44,0
3,note_on,50,0,240
3,note_on,47,51,0
3,note_on,47,0,480
3,note_on,43,36,0
3,note_on,43,0,480
3,note_on,41,41,0
3,note_on,41,0,720
3,note_on,38,33,0
3,note_on,38,0,240
3,note_on,35,33,0
3,note_on,35,0,480
3,note_on,31,28,480
3,note_on,43,33,0
3,note_on,43,0,480
3,note_on,31,0,0
3,note_on,36,50,480
3,note_on,36,0,240
3,note_on,79,50,240
3,note_on,79,0,240
3,note_on,79,54,240
3,note_on,79,0,720
3,note_on,76,47,0
3,note_on,76,0,240
3,note_on,74,50,0
3,note_on,74,0,480
3,note_on,67,41,0
3,note_on,67,0,480
3,note_on,72,50,0
3,note_on,72,0,480
3,note_on,76,47,0
3,note_on,76,0,240
3,note_on,48,31,120
3,note_on,48,0,120
3,note_on,36,50,0
3,note_on,36,0,240
3,note_on,79,50,240
3,note_on,79,0,240
3,note_on,79,54,240
3,note_on,79,0,720
3,note_on,76,47,0
3,note_on,76,0,240
3,note_on,74,50,0
3,note_on,74,0,480
3,note_on,67,41,0
3,note_on,67,0,480
3,note_on,72,50,0
3,note_on,72,0,240
3,note_on,43,30,600
3,note_on,43,0,120
3,note_on,31,45,0
3,note_on,31,0,240
3,note_on,77,50,240
3,note_on,77,0,240
3,note_on,77,54,240
3,note_on,77,0,720
3,note_on,74,47,0
3,note_on,74,0,240
3,note_on,76,50,0
3,note_on,76,0,480
3,note_on,72,41,0
3,note_on,72,0,480
3,note_on,71,50,0
3,note_on,71,0,480
3,note_on,74,47,0
3,note_on,74,0,240
3,note_on,43,32,120
3,note_on,43,0,120
3,note_on,31,48,0
3,note_on,31,0,240
3,note_on,77,50,240
3,note_on,77,0,240
3,note_on,77,54,240
3,note_on,77,0,720
3,note_on,74,47,0
3,note_on,74,0,240
3,note_on,75,50,0
3,note_on,75,0,480
3,note_on,72,41,0
3,note_on,72,0,480
3,note_on,71,50,0
3,note_on,71,0,480
3,note_on,74,47,0
3,note_on,74,0,480
3,note_on,76,50,0
3,note_on,76,0,480
3,note_on,72,41,0
3,note_on,72,0,480
3,note_on,71,50,0
3,note_on,71,0,480
3,note_on,74,47,0
3,note_on,74,0,480
3,note_on,75,50,0
3,note_on,75,0,480
3,note_on,72,41,0
3,note_on,72,0,480
3,note_on,79,50,0
3,note_on,79,0,475
3,note_on,79,47,5
3,note_on,79,0,475
3,note_on,79,50,5
3,note_on,79,0,475
3,note_on,79,47,5
3,note_on,79,0,475
3,note_on,79,50,5
3,note_on,79,0,475
3,note_on,79,47,5
3,note_on,79,0,475
3,note_on,79,47,5
3,note_on,79,0,480
3,note_on,36,50,7200
3,note_on,36,0,120
3,note_on,43,30,0
3,note_on,43,0,120
3,note_on,48,32,0
3,note_on,48,0,120
3,note_on,52,34,0
3,note_on,52,0,120
3,note_on,55,31,0
3,note_on,55,0,120
3,note_on,48,31,0
3,note_on,48,0,120
3,note_on,52,31,0
3,note_on,52,0,120
3,note_on,55,35,0
3,note_on,55,0,120
3,note_on,60,30,0
3,note_on,60,0,120
3,note_on,52,31,0
3,note_on,52,0,120
3,note_on,55,33,0
3,note_on,55,0,120
3,note_on,60,36,0
3,note_on,60,0,120
3,note_on,64,33,0
3,note_on,64,0,120
3,note_on,55,33,0
3,note_on,55,0,120
3,note_on,60,33,0
3,note_on,60,0,120
3,note_on,64,36,0
3,note_on,64,0,120
3,note_on,65,28,0
3,note_on,65,0,120
3,note_on,64,31,0
3,note_on,64,0,120
3,note_on,62,33,0
3,note_on,62,0,120
3,note_on,60,36,0
3,note_on,60,0,120
3,note_on,59,33,0
3,note_on,59,0,120
3,note_on,57,33,0
3,note_on,57,0,120
3,note_on,55,34,0
3,note_on,55,0,120
3,note_on,53,34,0
3,note_on,53,0,120
3,note_on,52,28,0
3,note_on,52,0,120
3,note_on,55,30,0
3,note_on,55,0,120
3,note_on,48,32,0
3,note_on,48,0,120
3,note_on,52,34,0
3,note_on,52,0,120
3,note_on,43,32,0
3,note_on,43,0,120
3,note_on,48,32,0
3,note_on,48,0,120
3,note_on,40,33,0
3,note_on,40,0,120
3,note_on,43,34,0
3,note_on,43,0,120
3,note_on,36,50,0
3,note_on,36,0,120
3,note_on,43,30,0
3,note_on,43,0,120
3,note_on,48,32,0
3,note_on,48,0,120
3,note_on,52,34,0
3,note_on,52,0,120
3,note_on,55,31,0
3,note_on,55,0,120
3,note_on,48,31,0
3,note_on,48,0,120
3,note_on,52,31,0
3,note_on,52,0,120
3,note_on,55,35,0
3,note_on,55,0,120
3,note_on,60,30,0
3,note_on,60,0,120
3,note_on,52,31,0
3,note_on,52,0,120
3,note_on,55,33,0
3,note_on,55,0,120
3,note_on,60,36,0
3,note_on,60,0,120
3,note_on,64,33,0
3,note_on,64,0,120
3,note_on,55,33,0
3,note_on,55,0,120
3,note_on,60,33,0
3,note_on,60,0,120
3,note_on,64,33,0
3,note_on,64,0,120
3,note_on,65,28,0
3,note_on,65,0,120
3,note_on,64,31,0
3,note_on,64,0,120
3,note_on,62,33,0
3,note_on,62,0,120
3,note_on,60,36,0
3,note_on,60,0,120
3,note_on,59,33,0
3,note_on,59,0,120
3,note_on,55,33,0
3,note_on,55,0,120
3,note_on,57,34,0
3,note_on,57,0,120
3,note_on,59,34,0
3,note_on,59,0,120
3,note_on,60,28,0
3,note_on,60,0,120
3,note_on,59,30,0
3,note_on,59,0,120
3,note_on,57,32,0
3,note_on,57,0,120
3,note_on,55,34,0
3,note_on,55,0,120
3,note_on,53,32,0
3,note_on,53,0,120
3,note_on,52,32,0
3,note_on,52,0,120
3,note_on,50,33,0
3,note_on,50,0,120
3,note_on,48,35,0
3,note_on,48,0,120
3,note_on,43,45,0
3,note_on,43,0,120
3,note_on,47,30,0
3,note_on,47,0,120
3,note_on,50,32,0
3,note_on,50,0,120
3,note_on,55,34,0
3,note_on,55,0,120
3,note_on,47,31,0
3,note_on,47,0,120
3,note_on,50,31,0
3,note_on,50,0,120
3,note_on,55,31,0
3,note_on,55,0,120
3,note_on,59,35,0
3,note_on,59,0,120
3,note_on,50,30,0
3,note_on,50,0,120
3,note_on,55,31,0
3,note_on,55,0,120
3,note_on,59,33,0
3,note_on,59,0,120
3,note_on,62,36,0
3,note_on,62,0,120
3,note_on,55,33,0
3,note_on,55,0,120
3,note_on,59,33,0
3,note_on,59,0,120
3,note_on,62,33,0
3,note_on,62,0,120
3,note_on,67,36,0
3,note_on,67,0,120
3,note_on,55,28,0
3,note_on,55,0,120
3,note_on,60,31,0
3,note_on,60,0,120
3,note_on,67,33,0
3,note_on,67,0,120
3,note_on,60,36,0
3,note_on,60,0,120
3,note_on,55,28,0
3,note_on,55,0,120
3,note_on,64,31,0
3,note_on,64,0,120
3,note_on,67,33,0
3,note_on,67,0,120
3,note_on,64,36,0
3,note_on,64,0,120
3,note_on,55,28,0
3,note_on,55,0,120
3,note_on,62,30,0
3,note_on,62,0,120
3,note_on,67,32,0
3,note_on,67,0,120
3,note_on,62,36,0
3,note_on,62,0,120
3,note_on,55,28,0
3,note_on,55,0,120
3,note_on,59,30,0
3,note_on,59,0,120
3,note_on,67,32,0
3,note_on,67,0,120
3,note_on,59,35,0
3,note_on,59,0,120
3,note_on,43,48,0
3,note_on,43,0,120
3,note_on,47,30,0
3,note_on,47,0,120
3,note_on,50,32,0
3,note_on,50,0,120
3,note_on,55,34,0
3,note_on,55,0,120
3,note_on,47,31,0
3,note_on,47,0,120
3,note_on,50,31,0
3,note_on,50,0,120
3,note_on,55,31,0
3,note_on,55,0,120
3,note_on,59,35,0
3,note_on,59,0,120
3,note_on,50,30,0
3,note_on,50,0,120
3,note_on,55,31,0
3,note_on,55,0,120
3,note_on,59,33,0
3,note_on,59,0,120
3,note_on,62,36,0
3,note_on,62,0,120
3,note_on,55,33,0
3,note_on,55,0,120
3,note_on,59,33,0
3,note_on,59,0,120
3,note_on,62,33,0
3,note_on,62,0,120
3,note_on,67,36,0
3,note_on,67,0,120
3,note_on,55,28,0
3,note_on,55,0,120
3,note_on,60,31,0
3,note_on,60,0,120
3,note_on,67,33,0
3,note_on,67,0,120
3,note_on,60,35,0
3,note_on,60,0,120
3,note_on,55,28,0
3,note_on,55,0,120
3,note_on,63,31,0
3,note_on,63,0,120
3,note_on,67,33,0
3,note_on,67,0,120
3,note_on,63,35,0
3,note_on,63,0,120
3,note_on,55,28,0
3,note_on,55,0,120
3,note_on,62,30,0
3,note_on,62,0,120
3,note_on,67,32,0
3,note_on,67,0,120
3,note_on,62,35,0
3,note_on,62,0,120
3,note_on,55,28,0
3,note_on,55,0,120
3,note_on,59,30,0
3,note_on,59,0,120
3,note_on,67,32,0
3,note_on,67,0,120
3,note_on,59,35,0
3,note_on,59,0,120
3,note_on,55,28,0
3,note_on,55,0,120
3,note_on,60,31,0
3,note_on,60,0,120
3,note_on,67,33,0
3,note_on,67,0,120
3,note_on,60,35,0
3,note_on,60,0,120
3,note_on,55,28,0
3,note_on,55,0,120
3,note_on,64,32,0
3,note_on,64,0,120
3,note_on,67,34,0
3,note_on,67,0,120
3,note_on,64,37,0
3,note_on,64,0,120
3,note_on,55,29,0
3,note_on,55,0,120
3,note_on,62,32,0
3,note_on,62,0,120
3,note_on,67,34,0
3,note_on,67,0,120
3,note_on,62,38,0
3,note_on,62,0,120
3,note_on,55,31,0
3,note_on,55,0,120
3,note_on,59,33,0
3,note_on,59,0,120
3,note_on,67,36,0
3,note_on,67,0,120
3,note_on,59,39,0
3,note_on,59,0,120
3,note_on,55,28,0
3,note_on,55,0,120
3,note_on,60,31,0
3,note_on,60,0,120
3,note_on,67,33,0
3,note_on,67,0,120
3,note_on,60,35,0
3,note_on,60,0,120
3,note_on,55,28,0
3,note_on,55,0,120
3,note_on,60,31,0
3,note_on,60,0,120
3,note_on,63,33,0
3,note_on,63,0,120
3,note_on,60,35,0
3,note_on,60,0,120
3,note_on,55,28,0
3,note_on,55,0,120
3,note_on,59,30,0
3,note_on,59,0,120
3,note_on,62,32,0
3,note_on,62,0,120
3,note_on,59,35,0
3,note_on,59,0,120
3,note_on,55,28,0
3,note_on,55,0,120
3,note_on,60,30,0
3,note_on,60,0,120
3,note_on,63,32,0
3,note_on,63,0,120
3,note_on,60,35,0
3,note_on,60,0,120
3,note_on,55,47,0
3,note_on,55,0,60
3,note_on,59,30,60
3,note_on,59,0,120
3,note_on,62,31,0
3,note_on,62,0,120
3,note_on,59,32,0
3,note_on,59,0,120
3,note_on,55,53,0
3,note_on,55,0,60
3,note_on,60,32,60
3,note_on,60,0,120
3,note_on,64,33,0
3,note_on,64,0,120
3,note_on,60,34,0
3,note_on,60,0,120
3,note_on,55,57,0
3,note_on,55,0,60
3,note_on,59,35,60
3,note_on,59,0,120
3,note_on,62,38,0
3,note_on,62,0,120
3,note_on,59,38,0
3,note_on,59,0,120
3,note_on,55,64,0
3,note_on,55,0,60
3,note_on,57,39,60
3,note_on,57,0,120
3,note_on,60,41,0
3,note_on,60,0,120
3,note_on,57,43,0
3,note_on,57,0,120
3,note_on,55,71,0
3,note_on,55,0,60
3,note_on,59,47,60
3,note_on,59,0,120
3,note_on,57,49,0
3,note_on,57,0,120
3,note_on,55,50,0
3,note_on,55,0,120
3,note_on,53,76,0
3,note_on,53,0,60
3,note_on,57,55,60
3,note_on,57,0,120
3,note_on,55,58,0
3,note_on,55,0,120
3,note_on,53,62,0
3,note_on,53,0,120
3,note_on,52,85,0
3,note_on,52,0,60
3,note_on,55,63,60
3,note_on,55,0,120
3,note_on,53,68,0
3,note_on,53,0,120
3,note_on,52,70,0
3,note_on,52,0,120
3,note_on,50,90,0
3,note_on,50,0,60
3,note_on,53,72,60
3,note_on,53,0,120
3,note_on,52,73,0
3,note_on,52,0,120
3,note_on,50,79,0
3,note_on,50,0,120
3,note_on,36,94,0
3,note_on,48,94,0
3,note_on,50,56,120
3,note_on,50,0,60
3,note_on,52,57,0
3,note_on,52,0,60
3,note_on,48,0,0
3,note_on,36,0,0
3,note_on,53,60,0
3,note_on,53,0,60
3,note_on,55,60,0
3,note_on,55,0,60
3,note_on,57,62,0
3,note_on,57,0,60
3,note_on,59,63,0
3,note_on,59,0,60
3,note_on,60,63,0
3,note_on,60,0,120
3,note_on,62,65,0
3,note_on,62,0,60
3,note_on,64,66,0
3,note_on,64,0,60
3,note_on,65,67,0
3,note_on,65,0,60
3,note_on,67,69,0
3,note_on,67,0,60
3,note_on,69,70,0
3,note_on,69,0,60
3,note_on,71,71,0
3,note_on,71,0,60
3,note_on,72,74,0
3,note_on,72,0,60
3,note_on,71,71,60
3,note_on,71,0,60
3,note_on,69,71,60
3,note_on,69,0,60
3,note_on,67,71,60
3,note_on,67,0,60
3,note_on,65,72,60
3,note_on,65,0,60
3,note_on,64,69,60
3,note_on,64,0,60
3,note_on,62,69,60
3,note_on,62,0,60
3,note_on,60,67,60
3,note_on,60,0,60
3,note_on,59,73,60
3,note_on,59,0,60
3,note_on,60,69,60
3,note_on,60,0,60
3,note_on,59,69,60
3,note_on,59,0,60
3,note_on,57,69,60
3,note_on,57,0,60
3,note_on,55,75,60
3,note_on,55,0,60
3,note_on,53,69,60
3,note_on,53,0,60
3,note_on,52,69,60
3,note_on,52,0,60
3,note_on,50,69,60
3,note_on,50,0,60
3,note_on,48,75,60
3,note_on,48,0,60
3,note_on,48,69,60
3,note_on,48,0,60
3,note_on,47,69,60
3,note_on,47,0,60
3,note_on,45,69,60
3,note_on,45,0,60
3,note_on,43,72,60
3,note_on,43,0,60
3,note_on,41,71,60
3,note_on,41,0,60
3,note_on,40,75,60
3,note_on,40,0,60
3,note_on,38,80,60
3,note_on,38,0,60
3,note_on,36,95,60
3,note_on,48,95,0
3,note_on,50,56,120
3,note_on,50,0,60
3,note_on,52,57,0
3,note_on,52,0,60
3,note_on,48,0,0
3,note_on,36,0,0
3,note_on,53,60,0
3,note_on,53,0,60
3,note_on,55,60,0
3,note_on,55,0,60
3,note_on,57,62,0
3,note_on,57,0,60
3,note_on,59,63,0
3,note_on,59,0,60
3,note_on,60,63,0
3,note_on,60,0,120
3,note_on,62,65,0
3,note_on,62,0,60
3,note_on,64,66,0
3,note_on,64,0,60
3,note_on,65,67,0
3,note_on,65,0,60
3,note_on,67,69,0
3,note_on,67,0,60
3,note_on,69,70,0
3,note_on,69,0,60
3,note_on,71,71,0
3,note_on,71,0,60
3,note_on,72,74,0
3,note_on,72,0,60
3,note_on,71,71,60
3,note_on,71,0,60
3,note_on,69,71,60
3,note_on,69,0,60
3,note_on,67,71,60
3,note_on,67,0,60
3,note_on,65,72,60
3,note_on,65,0,60
3,note_on,64,69,60
3,note_on,64,0,60
3,note_on,62,69,60
3,note_on,62,0,60
3,note_on,60,67,60
3,note_on,60,0,60
3,note_on,59,73,60
3,note_on,59,0,60
3,note_on,60,69,60
3,note_on,60,0,60
3,note_on,59,69,60
3,note_on,59,0,60
3,note_on,57,69,60
3,note_on,57,0,60
3,note_on,55,75,60
3,note_on,55,0,60
3,note_on,53,69,60
3,note_on,53,0,60
3,note_on,52,69,60
3,note_on,52,0,60
3,note_on,50,69,60
3,note_on,50,0,60
3,note_on,48,75,60
3,note_on,48,0,240
3,note_on,31,77,0
3,note_on,43,77,0
3,note_on,43,0,120
3,note_on,31,0,0
3,note_on,39,62,120
3,note_on,51,74,0
3,note_on,51,0,120
3,note_on,39,0,0
3,note_on,38,62,120
3,note_on,50,74,0
3,note_on,50,0,120
3,note_on,38,0,0
3,note_on,36,65,120
3,note_on,48,77,0
3,note_on,48,0,120
3,note_on,36,0,0
3,note_on,31,61,120
3,note_on,43,72,0
3,note_on,43,0,120
3,note_on,31,0,0
3,note_on,33,62,120
3,note_on,45,73,0
3,note_on,45,0,120
3,note_on,33,0,0
3,note_on,35,62,120
3,note_on,47,73,0
3,note_on,47,0,120
3,note_on,35,0,0
3,note_on,36,65,120
3,note_on,48,77,0
3,note_on,48,0,120
3,note_on,36,0,0
3,note_on,36,61,120
3,note_on,48,72,0
3,note_on,48,0,120
3,note_on,36,0,0
3,note_on,44,66,120
3,note_on,56,78,0
3,note_on,56,0,120
3,note_on,44,0,0
3,note_on,43,62,120
3,note_on,55,73,0
3,note_on,55,0,120
3,note_on,43,0,0
3,note_on,41,68,120
3,note_on,53,80,0
3,note_on,53,0,120
3,note_on,41,0,0
3,note_on,36,63,120
3,note_on,48,75,0
3,note_on,48,0,120
3,note_on,36,0,0
3,note_on,38,63,120
3,note_on,50,75,0
3,note_on,50,0,120
3,note_on,38,0,0
3,note_on,40,63,120
3,note_on,52,75,0
3,note_on,52,0,120
3,note_on,40,0,0
3,note_on,41,66,120
3,note_on,53,78,0
3,note_on,53,0,120
3,note_on,41,0,0
3,note_on,41,62,120
3,note_on,53,74,0
3,note_on,53,0,120
3,note_on,41,0,0
3,note_on,49,68,120
3,note_on,61,80,0
3,note_on,61,0,120
3,note_on,49,0,0
3,note_on,48,64,120
3,note_on,60,76,0
3,note_on,60,0,120
3,note_on,48,0,0
3,note_on,46,68,120
3,note_on,58,80,0
3,note_on,58,0,120
3,note_on,46,0,0
3,note_on,44,62,120
3,note_on,56,73,0
3,note_on,56,0,120
3,note_on,44,0,0
3,note_on,43,62,120
3,note_on,55,74,0
3,note_on,55,0,120
3,note_on,43,0,0
3,note_on,41,62,120
3,note_on,53,74,0
3,note_on,53,0,120
3,note_on,41,0,0
3,note_on,39,69,120
3,note_on,51,82,0
3,note_on,51,0,120
3,note_on,39,0,0
3,note_on,49,75,120
3,note_on,49,0,120
3,note_on,48,75,120
3,note_on,48,0,120
3,note_on,46,75,120
3,note_on,46,0,120
3,note_on,44,84,120
3,note_on,44,0,120
3,note_on,43,76,120
3,note_on,43,0,120
3,note_on,41,76,120
3,note_on,41,0,120
3,note_on,39,76,120
3,note_on,39,0,120
3,note_on,44,84,120
3,note_on,44,0,240
3,note_on,35,63,0
3,note_on,35,0,80
3,note_on,33,56,0
3,note_on,33,0,80
3,note_on,35,57,0
3,note_on,35,0,80
3,note_on,36,57,0
3,note_on,36,0,80
3,note_on,39,58,0
3,note_on,39,0,80
3,note_on,41,59,0
3,note_on,41,0,80
3,note_on,43,60,0
3,note_on,43,0,80
3,note_on,45,62,0
3,note_on,45,0,80
3,note_on,47,63,0
3,note_on,47,0,80
3,note_on,48,60,0
3,note_on,48,0,80
3,note_on,50,62,0
3,note_on,50,0,80
3,note_on,51,63,0
3,note_on,51,0,80
3,note_on,53,65,0
3,note_on,53,0,80
3,note_on,51,63,0
3,note_on,51,0,80
3,note_on,50,62,0
3,note_on,50,0,80
3,note_on,48,63,0
3,note_on,48,0,80
3,note_on,50,62,0
3,note_on,50,0,80
3,note_on,51,63,0
3,note_on,51,0,80
3,note_on,53,65,0
3,note_on,53,0,80
3,note_on,51,64,0
3,note_on,51,0,80
3,note_on,50,63,0
3,note_on,50,0,80
3,note_on,48,68,0
3,note_on,48,0,240
3,note_on,40,63,0
3,note_on,40,0,80
3,note_on,38,56,0
3,note_on,38,0,80
3,note_on,40,56,0
3,note_on,40,0,80
3,note_on,41,54,0
3,note_on,41,0,80
3,note_on,44,56,0
3,note_on,44,0,80
3,note_on,46,58,0
3,note_on,46,0,80
3,note_on,48,60,0
3,note_on,48,0,80
3,note_on,50,62,0
3,note_on,50,0,80
3,note_on,52,63,0
3,note_on,52,0,80
3,note_on,53,65,0
3,note_on,53,0,80
3,note_on,55,65,0
3,note_on,55,0,80
3,note_on,56,66,0
3,note_on,56,0,80
3,note_on,58,68,0
3,note_on,58,0,80
3,note_on,56,65,0
3,note_on,56,0,80
3,note_on,55,63,0
3,note_on,55,0,80
3,note_on,53,60,0
3,note_on,53,0,80
3,note_on,55,62,0
3,note_on,55,0,80
3,note_on,56,64,0
3,note_on,56,0,80
3,note_on,58,66,0
3,note_on,58,0,80
3,note_on,56,64,0
3,note_on,56,0,80
3,note_on,55,63,0
3,note_on,55,0,80
3,note_on,53,67,0
3,note_on,53,0,240
3,note_on,45,63,0
3,note_on,45,0,80
3,note_on,43,58,0
3,note_on,43,0,80
3,note_on,45,58,0
3,note_on,45,0,80
3,note_on,46,63,0
3,note_on,46,0,80
3,note_on,48,58,0
3,note_on,48,0,80
3,note_on,46,58,0
3,note_on,46,0,80
3,note_on,45,63,0
3,note_on,45,0,80
3,note_on,43,60,0
3,note_on,43,0,80
3,note_on,45,60,0
3,note_on,45,0,80
3,note_on,46,59,0
3,note_on,46,0,80
3,note_on,45,59,0
3,note_on,45,0,80
3,note_on,46,60,0
3,note_on,46,0,80
3,note_on,48,61,0
3,note_on,48,0,80
3,note_on,47,59,0
3,note_on,47,0,80
3,note_on,48,59,0
3,note_on,48,0,80
3,note_on,49,63,0
3,note_on,49,0,80
3,note_on,48,61,0
3,note_on,48,0,80
3,note_on,49,61,0
3,note_on,49,0,80
3,note_on,50,64,0
3,note_on,50,0,80
3,note_on,48,62,0
3,note_on,48,0,80
3,note_on,50,62,0
3,note_on,50,0,80
3,note_on,51,67,0
3,note_on,51,0,80
3,note_on,53,63,0
3,note_on,53,0,80
3,note_on,51,63,0
3,note_on,51,0,80
3,note_on,49,67,0
3,note_on,49,0,80
3,note_on,51,63,0
3,note_on,51,0,80
3,note_on,49,63,0
3,note_on,49,0,80
3,note_on,48,66,0
3,note_on,48,0,80
3,note_on,49,63,0
3,note_on,49,0,80
3,note_on,48,63,0
3,note_on,48,0,80
3,note_on,46,66,0
3,note_on,46,0,80
3,note_on,48,62,0
3,note_on,48,0,80
3,note_on,46,62,0
3,note_on,46,0,80
3,note_on,44,64,0
3,note_on,44,0,80
3,note_on,46,62,0
3,note_on,46,0,80
3,note_on,44,62,0
3,note_on,44,0,80
3,note_on,43,64,0
3,note_on,43,0,80
3,note_on,44,61,0
3,note_on,44,0,80
3,note_on,43,61,0
3,note_on,43,0,80
3,note_on,41,63,0
3,note_on,41,0,80
3,note_on,43,62,0
3,note_on,43,0,80
3,note_on,41,62,0
3,note_on,41,0,80
3,note_on,39,63,0
3,note_on,39,0,80
3,note_on,41,60,0
3,note_on,41,0,80
3,note_on,39,60,0
3,note_on,39,0,80
3,note_on,44,77,0
3,note_on,44,0,120
3,note_on,39,79,120
3,note_on,51,79,0
3,note_on,51,0,120
3,note_on,39,0,0
3,note_on,48,62,120
3,note_on,60,74,0
3,note_on,60,0,120
3,note_on,48,0,0
3,note_on,46,62,120
3,note_on,58,74,0
3,note_on,58,0,120
3,note_on,46,0,0
3,note_on,44,65,120
3,note_on,56,77,0
3,note_on,56,0,120
3,note_on,44,0,0
3,note_on,39,61,120
3,note_on,51,72,0
3,note_on,51,0,120
3,note_on,39,0,0
3,note_on,41,62,120
3,note_on,53,73,0
3,note_on,53,0,120
3,note_on,41,0,0
3,note_on,43,62,120
3,note_on,55,73,0
3,note_on,55,0,120
3,note_on,43,0,0
3,note_on,44,65,120
3,note_on,56,77,0
3,note_on,56,0,120
3,note_on,44,0,0
3,note_on,36,61,120
3,note_on,48,72,0
3,note_on,48,0,120
3,note_on,36,0,0
3,note_on,44,66,120
3,note_on,56,78,0
3,note_on,56,0,120
3,note_on,44,0,0
3,note_on,43,62,120
3,note_on,55,73,0
3,note_on,55,0,120
3,note_on,43,0,0
3,note_on,41,68,120
3,note_on,53,80,0
3,note_on,53,0,120
3,note_on,41,0,0
3,note_on,36,63,120
3,note_on,48,75,0
3,note_on,48,0,120
3,note_on,36,0,0
3,note_on,38,63,120
3,note_on,50,75,0
3,note_on,50,0,120
3,note_on,38,0,0
3,note_on,40,63,120
3,note_on,52,75,0
3,note_on,52,0,120
3,note_on,40,0,0
3,note_on,41,66,120
3,note_on,53,78,0
3,note_on,53,0,120
3,note_on,41,0,0
3,note_on,53,62,120
3,note_on,65,74,0
3,note_on,65,0,120
3,note_on,53,0,0
3,note_on,56,68,120
3,note_on,68,80,0
3,note_on,68,0,120
3,note_on,56,0,0
3,note_on,55,64,120
3,note_on,67,76,0
3,note_on,67,0,120
3,note_on,55,0,0
3,note_on,53,68,120
3,note_on,65,80,0
3,note_on,65,0,120
3,note_on,53,0,0
3,note_on,51,62,120
3,note_on,63,73,0
3,note_on,63,0,120
3,note_on,51,0,0
3,note_on,50,62,120
3,note_on,62,74,0
3,note_on,62,0,120
3,note_on,50,0,0
3,note_on,48,62,120
3,note_on,60,74,0
3,note_on,60,0,120
3,note_on,48,0,0
3,note_on,47,69,120
3,note_on,59,82,0
3,note_on,59,0,480
3,note_on,47,0,0
3,note_on,43,64,0
3,note_on,55,76,0
3,note_on,55,0,240
3,note_on,43,0,0
3,note_on,43,61,0
3,note_on,55,72,0
3,note_on,55,0,240
3,note_on,43,0,0
3,note_on,43,64,0
3,note_on,55,76,0
3,note_on,55,0,240
3,note_on,43,0,0
3,note_on,43,60,0
3,note_on,55,71,0
3,note_on,55,0,240
3,note_on,43,0,0
3,note_on,43,64,0
3,note_on,55,76,0
3,note_on,55,0,240
3,note_on,43,0,0
3,note_on,43,61,0
3,note_on,55,72,0
3,note_on,55,0,240
3,note_on,43,0,0
3,note_on,48,71,0
3,note_on,60,84,0
3,note_on,60,0,240
3,note_on,48,0,0
3,note_on,43,63,0
3,note_on,43,0,80
3,note_on,41,56,0
3,note_on,41,0,80
3,note_on,43,57,0
3,note_on,43,0,80
3,note_on,44,57,0
3,note_on,44,0,80
3,note_on,48,58,0
3,note_on,48,0,80
3,note_on,49,59,0
3,note_on,49,0,80
3,note_on,51,60,0
3,note_on,51,0,80
3,note_on,53,62,0
3,note_on,53,0,80
3,note_on,55,63,0
3,note_on,55,0,80
3,note_on,56,60,0
3,note_on,56,0,80
3,note_on,58,62,0
3,note_on,58,0,80
3,note_on,60,63,0
3,note_on,60,0,80
3,note_on,61,65,0
3,note_on,61,0,80
3,note_on,60,63,0
3,note_on,60,0,80
3,note_on,58,62,0
3,note_on,58,0,80
3,note_on,56,63,0
3,note_on,56,0,80
3,note_on,58,62,0
3,note_on,58,0,80
3,note_on,60,63,0
3,note_on,60,0,80
3,note_on,61,65,0
3,note_on,61,0,80
3,note_on,60,64,0
3,note_on,60,0,80
3,note_on,58,63,0
3,note_on,58,0,80
3,note_on,56,68,0
3,note_on,56,0,240
3,note_on,40,63,0
3,note_on,40,0,80
3,note_on,38,56,0
3,note_on,38,0,80
3,note_on,40,56,0
3,note_on,40,0,80
3,note_on,41,54,0
3,note_on,41,0,80
3,note_on,44,56,0
3,note_on,44,0,80
3,note_on,46,58,0
3,note_on,46,0,80
3,note_on,48,60,0
3,note_on,48,0,80
3,note_on,50,62,0
3,note_on,50,0,80
3,note_on,52,63,0
3,note_on,52,0,80
3,note_on,53,65,0
3,note_on,53,0,80
3,note_on,55,65,0
3,note_on,55,0,80
3,note_on,56,66,0
3,note_on,56,0,80
3,note_on,58,68,0
3,note_on,58,0,80
3,note_on,56,65,0
3,note_on,56,0,80
3,note_on,55,63,0
3,note_on,55,0,80
3,note_on,53,60,0
3,note_on,53,0,80
3,note_on,55,62,0
3,note_on,55,0,80
3,note_on,56,64,0
3,note_on,56,0,80
3,note_on,58,66,0
3,note_on,58,0,80
3,note_on,56,64,0
3,note_on,56,0,80
3,note_on,55,63,0
3,note_on,55,0,80
3,note_on,53,67,0
3,note_on,53,0,240
3,note_on,36,63,0
3,note_on,36,0,80
3,note_on,38,58,0
3,note_on,38,0,80
3,note_on,40,58,0
3,note_on,40,0,80
3,note_on,41,63,0
3,note_on,41,0,80
3,note_on,40,58,0
3,note_on,40,0,80
3,note_on,41,58,0
3,note_on,41,0,80
3,note_on,43,63,0
3,note_on,43,0,80
3,note_on,41,60,0
3,note_on,41,0,80
3,note_on,43,60,0
3,note_on,43,0,80
3,note_on,44,59,0
3,note_on,44,0,80
3,note_on,46,59,0
3,note_on,46,0,80
3,note_on,44,60,0
3,note_on,44,0,80
3,note_on,43,61,0
3,note_on,43,0,80
3,note_on,44,59,0
3,note_on,44,0,80
3,note_on,43,59,0
3,note_on,43,0,80
3,note_on,41,63,0
3,note_on,41,0,80
3,note_on,43,61,0
3,note_on,43,0,80
3,note_on,41,61,0
3,note_on,41,0,80
3,note_on,42,64,0
3,note_on,42,0,80
3,note_on,43,62,0
3,note_on,43,0,80
3,note_on,42,62,0
3,note_on,42,0,80
3,note_on,43,67,0
3,note_on,43,0,80
3,note_on,44,63,0
3,note_on,44,0,80
3,note_on,43,63,0
3,note_on,43,0,80
3,note_on,42,67,0
3,note_on,42,0,80
3,note_on,43,63,0
3,note_on,43,0,80
3,note_on,42,63,0
3,note_on,42,0,80
3,note_on,43,66,0
3,note_on,43,0,80
3,note_on,44,63,0
3,note_on,44,0,80
3,note_on,43,63,0
3,note_on,43,0,80
3,note_on,42,66,0
3,note_on,42,0,80
3,note_on,43,62,0
3,note_on,43,0,80
3,note_on,42,62,0
3,note_on,42,0,80
3,note_on,43,64,0
3,note_on,43,0,80
3,note_on,44,62,0
3,note_on,44,0,80
3,note_on,43,62,0
3,note_on,43,0,80
3,note_on,41,64,0
3,note_on,41,0,80
3,note_on,43,61,0
3,note_on,43,0,80
3,note_on,41,61,0
3,note_on,41,0,80
3,note_on,39,63,0
3,note_on,39,0,80
3,note_on,41,62,0
3,note_on,41,0,80
3,note_on,39,62,0
3,note_on,39,0,80
3,note_on,38,63,0
3,note_on,38,0,80
3,note_on,39,60,0
3,note_on,39,0,80
3,note_on,38,60,0
3,note_on,38,0,80
3,note_on,36,77,0
3,note_on,36,0,120
3,note_on,41,79,120
3,note_on,53,79,0
3,note_on,53,0,120
3,note_on,41,0,0
3,note_on,44,62,120
3,note_on,56,74,0
3,note_on,56,0,120
3,note_on,44,0,0
3,note_on,43,62,120
3,note_on,55,74,0
3,note_on,55,0,120
3,note_on,43,0,0
3,note_on,41,68,120
3,note_on,53,80,0
3,note_on,53,0,120
3,note_on,41,0,0
3,note_on,39,62,120
3,note_on,51,73,0
3,note_on,51,0,120
3,note_on,39,0,0
3,note_on,38,62,120
3,note_on,50,74,0
3,note_on,50,0,120
3,note_on,38,0,0
3,note_on,36,62,120
3,note_on,48,74,0
3,note_on,48,0,120
3,note_on,36,0,0
3,note_on,35,69,120
3,note_on,47,82,0
3,note_on,47,0,480
3,note_on,35,0,0
3,note_on,31,64,0
3,note_on,43,76,0
3,note_on,43,0,238
3,note_on,31,0,0
3,note_on,31,61,2
3,note_on,43,72,0
3,note_on,43,0,238
3,note_on,31,0,0
3,note_on,31,64,2
3,note_on,43,76,0
3,note_on,43,0,238
3,note_on,31,0,0
3,note_on,31,60,2
3,note_on,43,71,0
3,note_on,43,0,238
3,note_on,31,0,0
3,note_on,31,64,2
3,note_on,43,76,0
3,note_on,43,0,238
3,note_on,31,0,0
3,note_on,31,61,2
3,note_on,43,72,0
3,note_on,43,0,238
3,note_on,31,0,0
3,note_on,36,69,2
3,note_on,48,82,0
3,note_on,48,0,240
3,note_on,36,0,0
3,note_on,43,67,240
3,note_on,55,79,0
3,note_on,55,0,238
3,note_on,43,0,0
3,note_on,43,64,2
3,note_on,55,75,0
3,note_on,55,0,238
3,note_on,43,0,0
3,note_on,43,67,2
3,note_on,55,79,0
3,note_on,55,0,238
3,note_on,43,0,0
3,note_on,43,63,2
3,note_on,55,74,0
3,note_on,55,0,238
3,note_on,43,0,0
3,note_on,43,67,2
3,note_on,55,79,0
3,note_on,55,0,238
3,note_on,43,0,0
3,note_on,43,64,2
3,note_on,55,75,0
3,note_on,55,0,238
3,note_on,43,0,0
3,note_on,48,72,2
3,note_on,60,86,0
3,note_on,60,0,240
3,note_on,48,0,0
3,note_on,31,80,240
3,note_on,43,95,0
3,note_on,43,0,238
3,note_on,31,0,0
3,note_on,31,77,2
3,note_on,43,90,0
3,note_on,43,0,238
3,note_on,31,0,0
3,note_on,31,80,2
3,note_on,43,95,0
3,note_on,43,0,238
3,note_on,31,0,0
3,note_on,31,75,2
3,note_on,43,89,0
3,note_on,43,0,238
3,note_on,31,0,0
3,note_on,31,80,2
3,note_on,43,95,0
3,note_on,43,0,238
3,note_on,31,0,0
3,note_on,31,77,2
3,note_on,43,90,0
3,note_on,43,0,238
3,note_on,31,0,0
3,note_on,36,85,2
3,note_on,48,103,0
3,note_on,48,0,240
3,note_on,36,0,0
3,note_on,31,80,240
3,note_on,43,95,0
3,note_on,43,0,240
3,note_on,31,0,0
3,note_on,36,85,240
3,note_on,48,103,0
3,note_on,48,0,240
3,note_on,36,0,0
3,note_on,31,80,240
3,note_on,43,95,0
3,note_on,43,0,240
3,note_on,31,0,0
3,note_on,36,73,240
3,note_on,48,86,0
3,note_on,48,0,120
3,note_on,36,0,0
3,note_on,36,73,360
3,note_on,48,86,0
3,note_on,48,0,120
3,note_on,36,0,0
3,note_on,36,73,360
3,note_on,48,86,0
3,note_on,48,0,240
3,note_on,36,0,0
3,note_on,36,48,720
3,note_on,48,57,0
3,note_on,48,0,480
3,note_on,36,0,0
3,note_on,36,39,480
3,note_on,48,46,0
3,note_on,48,0,480
3,note_on,36,0,0
3,note_on,32,70,480
3,note_on,44,82,0
3,note_on,44,0,240
3,note_on,32,0,0
3,note_on,44,58,240
3,note_on,48,58,0
3,note_on,51,58,0
3,note_on,56,69,0
3,note_on,56,0,240
3,note_on,44,0,0
3,note_on,48,0,0
3,note_on,51,0,0
3,note_on,56,60,240
3,note_on,60,60,0
3,note_on,63,60,0
3,note_on,68,71,0
3,note_on,68,0,720
3,note_on,56,0,0
3,note_on,60,0,0
3,note_on,63,0,0
3,note_on,56,40,0
3,note_on,60,40,0
3,note_on,63,40,0
3,note_on,68,48,0
3,note_on,68,0,240
3,note_on,56,0,0
3,note_on,60,0,0
3,note_on,63,0,0
3,note_on,56,44,0
3,note_on,58,44,0
3,note_on,61,44,0
3,note_on,63,44,0
3,note_on,67,52,0
3,note_on,67,0,480
3,note_on,61,0,0
3,note_on,56,0,0
3,note_on,58,0,0
3,note_on,63,0,0
3,note_on,56,33,0
3,note_on,58,33,0
3,note_on,61,33,0
3,note_on,63,33,0
3,note_on,67,39,0
3,note_on,67,0,480
3,note_on,61,0,0
3,note_on,56,0,0
3,note_on,58,0,0
3,note_on,63,0,0
3,note_on,56,33,0
3,note_on,60,33,0
3,note_on,63,33,0
3,note_on,68,39,0
3,note_on,68,0,480
3,note_on,56,0,0
3,note_on,60,0,0
3,note_on,63,0,0
3,note_on,29,70,480
3,note_on,41,82,0
3,note_on,41,0,240
3,note_on,29,0,0
3,note_on,41,58,240
3,note_on,44,58,0
3,note_on,48,58,0
3,note_on,53,69,0
3,note_on,53,0,240
3,note_on,41,0,0
3,note_on,44,0,0
3,note_on,48,0,0
3,note_on,53,59,240
3,note_on,56,59,0
3,note_on,60,59,0
3,note_on,65,70,0
3,note_on,65,0,720
3,note_on,53,0,0
3,note_on,56,0,0
3,note_on,60,0,0
3,note_on,53,40,0
3,note_on,56,40,0
3,note_on,60,40,0
3,note_on,65,48,0
3,note_on,65,0,240
3,note_on,53,0,0
3,note_on,56,0,0
3,note_on,60,0,0
3,note_on,53,44,0
3,note_on,55,44,0
3,note_on,58,44,0
3,note_on,60,44,0
3,note_on,64,52,0
3,note_on,64,0,480
3,note_on,58,0,0
3,note_on,53,0,0
3,note_on,55,0,0
3,note_on,60,0,0
3,note_on,53,33,0
3,note_on,55,33,0
3,note_on,58,33,0
3,note_on,60,33,0
3,note_on,64,39,0
3,note_on,64,0,480
3,note_on,58,0,0
3,note_on,53,0,0
3,note_on,55,0,0
3,note_on,60,0,0
3,note_on,53,33,0
3,note_on,56,33,0
3,note_on,60,33,0
3,note_on,65,39,0
3,note_on,65,0,480
3,note_on,53,0,0
3,note_on,56,0,0
3,note_on,60,0,0
3,note_on,37,70,480
3,note_on,49,82,0
3,note_on,49,0,240
3,note_on,37,0,0
3,note_on,49,58,240
3,note_on,53,58,0
3,note_on,56,58,0
3,note_on,61,69,0
3,note_on,61,0,240
3,note_on,49,0,0
3,note_on,53,0,0
3,note_on,56,0,0
3,note_on,61,60,240
3,note_on,65,60,0
3,note_on,68,60,0
3,note_on,73,71,0
3,note_on,73,0,720
3,note_on,61,0,0
3,note_on,65,0,0
3,note_on,68,0,0
3,note_on,61,40,0
3,note_on,65,40,0
3,note_on,68,40,0
3,note_on,73,48,0
3,note_on,73,0,240
3,note_on,61,0,0
3,note_on,65,0,0
3,note_on,68,0,0
3,note_on,61,44,0
3,note_on,63,44,0
3,note_on,66,44,0
3,note_on,68,44,0
3,note_on,72,52,0
3,note_on,72,0,480
3,note_on,66,0,0
3,note_on,61,0,0
3,note_on,63,0,0
3,note_on,68,0,0
3,note_on,61,33,0
3,note_on,63,33,0
3,note_on,66,33,0
3,note_on,68,33,0
3,note_on,72,39,0
3,note_on,72,0,480
3,note_on,66,0,0
3,note_on,61,0,0
3,note_on,63,0,0
3,note_on,68,0,0
3,note_on,61,33,0
3,note_on,65,33,0
3,note_on,68,33,0
3,note_on,73,39,0
3,note_on,73,0,720
3,note_on,61,0,0
3,note_on,65,0,0
3,note_on,68,0,0
3,note_on,49,32,0
3,note_on,56,32,0
3,note_on,61,38,0
3,note_on,61,0,240
3,note_on,56,0,0
3,note_on,49,0,0
3,note_on,49,35,0
3,note_on,56,35,0
3,note_on,60,41,0
3,note_on,60,0,480
3,note_on,56,0,0
3,note_on,49,0,0
3,note_on,49,26,0
3,note_on,56,26,0
3,note_on,60,31,0
3,note_on,60,0,480
3,note_on,56,0,0
3,note_on,49,0,0
3,note_on,49,26,0
3,note_on,56,26,0
3,note_on,61,31,0
3,note_on,61,0,720
3,note_on,56,0,0
3,note_on,49,0,0
3,note_on,37,19,0
3,note_on,44,23,0
3,note_on,49,28,0
3,note_on,49,0,240
3,note_on,44,0,0
3,note_on,37,0,0
3,note_on,37,22,0
3,note_on,44,26,0
3,note_on,48,30,0
3,note_on,48,0,475
3,note_on,44,0,0
3,note_on,37,0,0
3,note_on,37,16,5
3,note_on,44,19,0
3,note_on,48,23,0
3,note_on,48,0,475
3,note_on,44,0,0
3,note_on,37,0,0
3,note_on,37,16,5
3,note_on,44,19,0
3,note_on,49,23,0
3,note_on,49,0,475
3,note_on,44,0,0
3,note_on,37,0,0
3,note_on,37,16,5
3,note_on,44,19,0
3,note_on,49,23,0
3,note_on,49,0,475
3,note_on,44,0,0
3,note_on,37,0,0
3,note_on,48,30,5
3,note_on,37,22,0
3,note_on,44,26,0
3,note_on,44,0,475
3,note_on,37,0,0
3,note_on,48,0,0
3,note_on,48,23,5
3,note_on,37,16,0
3,note_on,44,19,0
3,note_on,44,0,475
3,note_on,37,0,0
3,note_on,48,0,0
3,note_on,48,30,5
3,note_on,37,22,0
3,note_on,44,26,0
3,note_on,44,0,475
3,note_on,37,0,0
3,note_on,48,0,0
3,note_on,48,23,5
3,note_on,37,16,0
3,note_on,44,19,0
3,note_on,44,0,475
3,note_on,37,0,0
3,note_on,48,0,0
3,note_on,37,16,5
3,note_on,44,19,0
3,note_on,49,23,0
3,note_on,49,0,240
3,note_on,44,0,0
3,note_on,37,0,0
3,note_on,49,36,240
3,note_on,49,0,240
3,note_on,49,38,240
3,note_on,49,0,240
3,note_on,49,38,240
3,note_on,49,0,240
3,note_on,44,45,240
3,note_on,44,0,240
3,note_on,44,42,240
3,note_on,44,0,240
3,note_on,44,38,240
3,note_on,44,0,240
3,note_on,44,38,240
3,note_on,44,0,240
3,note_on,39,25,240
3,note_on,39,0,240
3,note_on,51,36,240
3,note_on,51,0,240
3,note_on,51,38,240
3,note_on,51,0,240
3,note_on,51,38,240
3,note_on,51,0,240
3,note_on,46,45,240
3,note_on,46,0,240
3,note_on,46,42,240
3,note_on,46,0,240
3,note_on,46,38,240
3,note_on,46,0,240
3,note_on,46,41,240
3,note_on,46,0,240
3,note_on,41,25,240
3,note_on,41,0,240
3,note_on,53,36,240
3,note_on,53,0,240
3,note_on,53,38,240
3,note_on,53,0,240
3,note_on,53,38,240
3,note_on,53,0,240
3,note_on,48,41,240
3,note_on,48,0,240
3,note_on,48,42,240
3,note_on,48,0,240
3,note_on,53,38,240
3,note_on,53,0,240
3,note_on,53,38,240
3,note_on,53,0,240
3,note_on,36,46,240
3,note_on,36,0,240
3,note_on,52,39,240
3,note_on,55,39,0
3,note_on,55,0,480
3,note_on,52,0,0
3,note_on,52,39,0
3,note_on,55,39,0
3,note_on,55,0,960
3,note_on,52,0,0
3,note_on,36,46,0
3,note_on,36,0,240
3,note_on,53,39,240
3,note_on,56,39,0
3,note_on,56,0,480
3,note_on,53,0,0
3,note_on,53,39,0
3,note_on,56,39,0
3,note_on,56,0,960
3,note_on,53,0,0
3,note_on,36,46,0
3,note_on,36,0,240
3,note_on,55,39,240
3,note_on,58,39,0
3,note_on,58,0,480
3,note_on,55,0,0
3,note_on,55,39,0
3,note_on,58,39,0
3,note_on,58,0,960
3,note_on,55,0,0
3,note_on,41,46,0
3,note_on,41,0,240
3,note_on,57,39,240
3,note_on,60,39,0
3,note_on,60,0,480
3,note_on,57,0,0
3,note_on,57,39,0
3,note_on,60,39,0
3,note_on,60,0,960
3,note_on,57,0,0
3,note_on,41,46,0
3,note_on,41,0,240
3,note_on,58,39,240
3,note_on,61,39,0
3,note_on,61,0,480
3,note_on,58,0,0
3,note_on,58,39,0
3,note_on,61,39,0
3,note_on,61,0,960
3,note_on,58,0,0
3,note_on,41,46,0
3,note_on,41,0,240
3,note_on,60,39,240
3,note_on,63,39,0
3,note_on,63,0,480
3,note_on,60,0,0
3,note_on,60,39,0
3,note_on,63,39,0
3,note_on,63,0,960
3,note_on,60,0,0
3,note_on,46,46,0
3,note_on,46,0,240
3,note_on,62,39,240
3,note_on,65,39,0
3,note_on,65,0,480
3,note_on,62,0,0
3,note_on,62,39,0
3,note_on,65,39,0
3,note_on,65,0,960
3,note_on,62,0,0
3,note_on,46,46,0
3,note_on,46,0,240
3,note_on,63,39,240
3,note_on,66,39,0
3,note_on,66,0,480
3,note_on,63,0,0
3,note_on,63,39,0
3,note_on,66,39,0
3,note_on,66,0,960
3,note_on,63,0,0
3,note_on,46,46,0
3,note_on,46,0,240
3,note_on,65,39,240
3,note_on,68,39,0
3,note_on,68,0,480
3,note_on,65,0,0
3,note_on,65,39,0
3,note_on,68,39,0
3,note_on,68,0,960
3,note_on,65,0,0
3,note_on,51,46,0
3,note_on,51,0,240
3,note_on,58,39,240
3,note_on,63,39,0
3,note_on,66,39,0
3,note_on,66,0,480
3,note_on,63,0,0
3,note_on,58,0,0
3,note_on,58,39,0
3,note_on,63,39,0
3,note_on,66,39,0
3,note_on,66,0,960
3,note_on,63,0,0
3,note_on,58,0,0
3,note_on,48,46,0
3,note_on,48,0,240
3,note_on,56,39,240
3,note_on,63,39,0
3,note_on,66,39,0
3,note_on,66,0,480
3,note_on,63,0,0
3,note_on,56,0,0
3,note_on,56,39,0
3,note_on,63,39,0
3,note_on,66,39,0
3,note_on,66,0,960
3,note_on,63,0,0
3,note_on,56,0,0
3,note_on,49,39,0
3,note_on,49,0,240
3,note_on,56,33,240
3,note_on,61,33,0
3,note_on,65,33,0
3,note_on,65,0,480
3,note_on,61,0,0
3,note_on,56,0,0
3,note_on,56,33,0
3,note_on,61,33,0
3,note_on,65,33,0
3,note_on,65,0,960
3,note_on,61,0,0
3,note_on,56,0,0
3,note_on,47,39,0
3,note_on,47,0,240
3,note_on,55,33,240
3,note_on,62,33,0
3,note_on,65,33,0
3,note_on,65,0,480
3,note_on,62,0,0
3,note_on,55,0,0
3,note_on,55,33,0
3,note_on,62,33,0
3,note_on,65,33,0
3,note_on,65,0,960
3,note_on,62,0,0
3,note_on,55,0,0
3,note_on,48,39,0
3,note_on,48,0,240
3,note_on,55,33,240
3,note_on,60,33,0
3,note_on,63,33,0
3,note_on,63,0,480
3,note_on,60,0,0
3,note_on,55,0,0
3,note_on,55,33,0
3,note_on,60,33,0
3,note_on,63,33,0
3,note_on,63,0,480
3,note_on,60,0,0
3,note_on,55,0,0
3,note_on,48,33,0
3,note_on,48,0,480
3,note_on,43,33,0
3,note_on,43,0,480
3,note_on,55,29,0
3,note_on,59,29,0
3,note_on,62,29,0
3,note_on,62,0,480
3,note_on,59,0,0
3,note_on,55,0,0
3,note_on,48,35,0
3,note_on,48,0,480
3,note_on,55,30,0
3,note_on,60,30,0
3,note_on,63,30,0
3,note_on,63,0,480
3,note_on,60,0,0
3,note_on,55,0,0
3,note_on,43,37,0
3,note_on,43,0,480
3,note_on,50,32,0
3,note_on,55,32,0
3,note_on,59,32,0
3,note_on,59,0,480
3,note_on,55,0,0
3,note_on,50,0,0
3,note_on,36,46,0
3,note_on,36,0,480
3,note_on,48,39,0
3,note_on,51,39,0
3,note_on,55,39,0
3,note_on,55,0,480
3,note_on,51,0,0
3,note_on,48,0,0
3,note_on,31,46,0
3,note_on,31,0,480
3,note_on,47,39,0
3,note_on,50,39,0
3,note_on,55,39,0
3,note_on,55,0,480
3,note_on,50,0,0
3,note_on,47,0,0
3,note_on,36,46,0
3,note_on,36,0,480
3,note_on,43,39,0
3,note_on,48,39,0
3,note_on,51,39,0
3,note_on,51,0,480
3,note_on,48,0,0
3,note_on,43,0,0
3,note_on,43,69,0
3,note_on,31,69,0
3,note_on,31,0,240
3,note_on,43,0,0
3,note_on,47,69,240
3,note_on,47,0,120
3,note_on,50,60,0
3,note_on,50,0,120
3,note_on,47,60,0
3,note_on,47,0,120
3,note_on,43,59,0
3,note_on,43,0,120
3,note_on,48,63,0
3,note_on,48,0,120
3,note_on,43,52,0
3,note_on,43,0,120
3,note_on,39,52,0
3,note_on,39,0,120
3,note_on,43,52,0
3,note_on,43,0,120
3,note_on,39,57,0
3,note_on,39,0,120
3,note_on,43,47,0
3,note_on,43,0,120
3,note_on,39,46,0
3,note_on,39,0,120
3,note_on,36,45,0
3,note_on,36,0,120
3,note_on,31,57,0
3,note_on,31,0,240
3,note_on,56,40,240
3,note_on,56,0,480
3,note_on,56,40,0
3,note_on,56,0,480
3,note_on,56,39,0
3,note_on,56,0,480
3,note_on,36,50,0
3,note_on,36,0,240
3,note_on,54,40,240
3,note_on,54,0,480
3,note_on,54,40,0
3,note_on,54,0,480
3,note_on,54,40,0
3,note_on,54,0,480
3,note_on,31,50,0
3,note_on,31,0,240
3,note_on,56,39,240
3,note_on,56,0,480
3,note_on,56,39,0
3,note_on,56,0,480
3,note_on,56,39,0
3,note_on,56,0,480
3,note_on,36,50,0
3,note_on,36,0,240
3,note_on,54,39,240
3,note_on,54,0,480
3,note_on,54,39,0
3,note_on,54,0,480
3,note_on,54,39,0
3,note_on,54,0,480
3,note_on,31,85,0
3,note_on,31,0,240
3,note_on,59,75,240
3,note_on,59,0,480
3,note_on,59,75,0
3,note_on,59,0,960
3,note_on,31,85,0
3,note_on,31,0,240
3,note_on,62,75,240
3,note_on,62,0,480
3,note_on,62,75,0
3,note_on,62,0,960
3,note_on,31,85,0
3,note_on,31,0,240
3,note_on,65,75,240
3,note_on,65,0,470
3,note_on,65,75,10
3,note_on,65,0,957
3,note_on,71,64,483
3,note_on,71,0,480
3,note_on,74,57,480
3,note_on,74,0,480
3,note_on,77,52,480
3,note_on,77,0,480
3,note_on,77,52,480
3,note_on,77,0,480
3,note_on,77,49,0
3,note_on,77,0,480
3,note_on,32,41,0
3,note_on,44,41,0
3,note_on,44,0,480
3,note_on,32,0,0
3,note_on,31,38,0
3,note_on,43,38,0
3,note_on,43,0,240
3,note_on,31,0,0
3,note_on,77,50,240
3,note_on,77,0,470
3,note_on,77,50,10
3,note_on,77,0,480
3,note_on,32,41,0
3,note_on,44,41,0
3,note_on,44,0,480
3,note_on,32,0,0
3,note_on,31,39,0
3,note_on,43,39,0
3,note_on,43,0,240
3,note_on,31,0,0
3,note_on,77,45,240
3,note_on,77,0,480
3,note_on,77,45,480
3,note_on,77,0,480
3,note_on,56,45,480
3,note_on,56,0,480
3,note_on,43,46,480
3,note_on,43,0,480
3,note_on,31,65,480
3,note_on,43,77,0
3,note_on,43,0,240
3,note_on,31,0,0
3,note_on,31,65,0
3,note_on,43,77,0
3,note_on,43,0,240
3,note_on,31,0,0
3,note_on,48,79,0
3,note_on,36,71,0
3,note_on,36,0,120
3,note_on,48,0,0
3,note_on,43,66,0
3,note_on,43,0,120
3,note_on,48,70,0
3,note_on,48,0,120
3,note_on,52,76,0
3,note_on,52,0,120
3,note_on,55,68,0
3,note_on,55,0,120
3,note_on,48,68,0
3,note_on,48,0,120
3,note_on,52,68,0
3,note_on,52,0,120
3,note_on,55,76,0
3,note_on,55,0,120
3,note_on,60,66,0
3,note_on,60,0,120
3,note_on,52,68,0
3,note_on,52,0,120
3,note_on,55,71,0
3,note_on,55,0,120
3,note_on,60,78,0
3,note_on,60,0,120
3,note_on,64,71,0
3,note_on,64,0,120
3,note_on,55,71,0
3,note_on,55,0,120
3,note_on,60,71,0
3,note_on,60,0,120
3,note_on,64,78,0
3,note_on,64,0,120
3,note_on,65,62,0
3,note_on,65,0,120
3,note_on,64,68,0
3,note_on,64,0,120
3,note_on,62,71,0
3,note_on,62,0,120
3,note_on,60,78,0
3,note_on,60,0,120
3,note_on,59,71,0
3,note_on,59,0,120
3,note_on,57,71,0
3,note_on,57,0,120
3,note_on,55,76,0
3,note_on,55,0,120
3,note_on,53,76,0
3,note_on,53,0,120
3,note_on,52,62,0
3,note_on,52,0,120
3,note_on,55,66,0
3,note_on,55,0,120
3,note_on,48,70,0
3,note_on,48,0,120
3,note_on,52,76,0
3,note_on,52,0,120
3,note_on,43,70,0
3,note_on,43,0,120
3,note_on,48,70,0
3,note_on,48,0,120
3,note_on,40,71,0
3,note_on,40,0,120
3,note_on,43,76,0
3,note_on,43,0,120
3,note_on,36,94,0
3,note_on,36,0,120
3,note_on,43,66,0
3,note_on,43,0,120
3,note_on,48,70,0
3,note_on,48,0,120
3,note_on,52,76,0
3,note_on,52,0,120
3,note_on,55,68,0
3,note_on,55,0,120
3,note_on,48,68,0
3,note_on,48,0,120
3,note_on,52,68,0
3,note_on,52,0,120
3,note_on,55,76,0
3,note_on,55,0,120
3,note_on,60,66,0
3,note_on,60,0,120
3,note_on,52,68,0
3,note_on,52,0,120
3,note_on,55,71,0
3,note_on,55,0,120
3,note_on,60,78,0
3,note_on,60,0,120
3,note_on,64,71,0
3,note_on,64,0,120
3,note_on,55,71,0
3,note_on,55,0,120
3,note_on,60,71,0
3,note_on,60,0,120
3,note_on,64,71,0
3,note_on,64,0,120
3,note_on,65,62,0
3,note_on,65,0,120
3,note_on,64,68,0
3,note_on,64,0,120
3,note_on,62,71,0
3,note_on,62,0,120
3,note_on,60,78,0
3,note_on,60,0,120
3,note_on,59,71,0
3,note_on,59,0,120
3,note_on,55,71,0
3,note_on,55,0,120
3,note_on,57,76,0
3,note_on,57,0,120
3,note_on,59,76,0
3,note_on,59,0,120
3,note_on,60,62,0
3,note_on,60,0,120
3,note_on,59,64,0
3,note_on,59,0,120
3,note_on,57,68,0
3,note_on,57,0,120
3,note_on,55,73,0
3,note_on,55,0,120
3,note_on,53,68,0
3,note_on,53,0,120
3,note_on,52,68,0
3,note_on,52,0,120
3,note_on,50,69,0
3,note_on,50,0,120
3,note_on,48,74,0
3,note_on,48,0,120
3,note_on,43,80,0
3,note_on,43,0,120
3,note_on,47,58,0
3,note_on,47,0,120
3,note_on,50,62,0
3,note_on,50,0,120
3,note_on,55,67,0
3,note_on,55,0,120
3,note_on,47,60,0
3,note_on,47,0,120
3,note_on,50,60,0
3,note_on,50,0,120
3,note_on,55,60,0
3,note_on,55,0,120
3,note_on,59,68,0
3,note_on,59,0,120
3,note_on,50,58,0
3,note_on,50,0,120
3,note_on,55,60,0
3,note_on,55,0,120
3,note_on,59,63,0
3,note_on,59,0,120
3,note_on,62,70,0
3,note_on,62,0,120
3,note_on,55,53,0
3,note_on,55,0,120
3,note_on,59,53,0
3,note_on,59,0,120
3,note_on,62,45,0
3,note_on,62,0,120
3,note_on,67,50,0
3,note_on,67,0,120
3,note_on,55,28,0
3,note_on,55,0,120
3,note_on,60,32,0
3,note_on,60,0,120
3,note_on,67,34,0
3,note_on,67,0,120
3,note_on,60,37,0
3,note_on,60,0,120
3,note_on,55,28,0
3,note_on,55,0,120
3,note_on,64,32,0
3,note_on,64,0,120
3,note_on,67,34,0
3,note_on,67,0,120
3,note_on,64,37,0
3,note_on,64,0,120
3,note_on,55,28,0
3,note_on,55,0,120
3,note_on,62,31,0
3,note_on,62,0,120
3,note_on,67,33,0
3,note_on,67,0,120
3,note_on,62,37,0
3,note_on,62,0,120
3,note_on,55,28,0
3,note_on,55,0,120
3,note_on,59,31,0
3,note_on,59,0,120
3,note_on,67,33,0
3,note_on,67,0,120
3,note_on,59,36,0
3,note_on,59,0,120
3,note_on,43,86,0
3,note_on,43,0,120
3,note_on,47,58,0
3,note_on,47,0,120
3,note_on,50,62,0
3,note_on,50,0,120
3,note_on,55,67,0
3,note_on,55,0,120
3,note_on,47,60,0
3,note_on,47,0,120
3,note_on,50,60,0
3,note_on,50,0,120
3,note_on,55,60,0
3,note_on,55,0,120
3,note_on,59,68,0
3,note_on,59,0,120
3,note_on,50,58,0
3,note_on,50,0,120
3,note_on,55,60,0
3,note_on,55,0,120
3,note_on,59,63,0
3,note_on,59,0,120
3,note_on,62,70,0
3,note_on,62,0,120
3,note_on,55,53,0
3,note_on,55,0,120
3,note_on,59,53,0
3,note_on,59,0,120
3,note_on,62,53,0
3,note_on,62,0,120
3,note_on,67,59,0
3,note_on,67,0,120
3,note_on,55,26,0
3,note_on,55,0,120
3,note_on,60,30,0
3,note_on,60,0,120
3,note_on,67,32,0
3,note_on,67,0,120
3,note_on,60,33,0
3,note_on,60,0,120
3,note_on,55,26,0
3,note_on,55,0,120
3,note_on,63,30,0
3,note_on,63,0,120
3,note_on,67,32,0
3,note_on,67,0,120
3,note_on,63,33,0
3,note_on,63,0,120
3,note_on,55,26,0
3,note_on,55,0,120
3,note_on,62,30,0
3,note_on,62,0,120
3,note_on,67,31,0
3,note_on,67,0,120
3,note_on,62,33,0
3,note_on,62,0,120
3,note_on,55,26,0
3,note_on,55,0,120
3,note_on,59,30,0
3,note_on,59,0,120
3,note_on,67,31,0
3,note_on,67,0,120
3,note_on,59,33,0
3,note_on,59,0,120
3,note_on,55,33,0
3,note_on,55,0,120
3,note_on,60,37,0
3,note_on,60,0,120
3,note_on,67,39,0
3,note_on,67,0,120
3,note_on,60,42,0
3,note_on,60,0,120
3,note_on,55,33,0
3,note_on,55,0,120
3,note_on,64,38,0
3,note_on,64,0,120
3,note_on,67,40,0
3,note_on,67,0,120
3,note_on,64,44,0
3,note_on,64,0,120
3,note_on,55,34,0
3,note_on,55,0,120
3,note_on,62,38,0
3,note_on,62,0,120
3,note_on,67,40,0
3,note_on,67,0,120
3,note_on,62,45,0
3,note_on,62,0,120
3,note_on,55,37,0
3,note_on,55,0,120
3,note_on,59,39,0
3,note_on,59,0,120
3,note_on,67,43,0
3,note_on,67,0,120
3,note_on,59,46,0
3,note_on,59,0,120
3,note_on,55,33,0
3,note_on,55,0,120
3,note_on,60,37,0
3,note_on,60,0,120
3,note_on,67,39,0
3,note_on,67,0,120
3,note_on,60,42,0
3,note_on,60,0,120
3,note_on,55,33,0
3,note_on,55,0,120
3,note_on,60,37,0
3,note_on,60,0,120
3,note_on,63,39,0
3,note_on,63,0,120
3,note_on,60,42,0
3,note_on,60,0,120
3,note_on,55,28,0
3,note_on,55,0,120
3,note_on,59,30,0
3,note_on,59,0,120
3,note_on,62,32,0
3,note_on,62,0,120
3,note_on,59,35,0
3,note_on,59,0,120
3,note_on,55,28,0
3,note_on,55,0,120
3,note_on,60,30,0
3,note_on,60,0,120
3,note_on,63,32,0
3,note_on,63,0,120
3,note_on,60,35,0
3,note_on,60,0,120
3,note_on,55,47,0
3,note_on,55,0,60
3,note_on,59,30,60
3,note_on,59,0,120
3,note_on,62,31,0
3,note_on,62,0,120
3,note_on,59,32,0
3,note_on,59,0,120
3,note_on,55,53,0
3,note_on,55,0,60
3,note_on,60,32,60
3,note_on,60,0,120
3,note_on,64,33,0
3,note_on,64,0,120
3,note_on,60,34,0
3,note_on,60,0,120
3,note_on,55,57,0
3,note_on,55,0,60
3,note_on,59,35,60
3,note_on,59,0,120
3,note_on,62,38,0
3,note_on,62,0,120
3,note_on,59,38,0
3,note_on,59,0,120
3,note_on,55,64,0
3,note_on,55,0,60
3,note_on,57,39,60
3,note_on,57,0,120
3,note_on,60,41,0
3,note_on,60,0,120
3,note_on,57,43,0
3,note_on,57,0,120
3,note_on,55,71,0
3,note_on,55,0,60
3,note_on,59,47,60
3,note_on,59,0,120
3,note_on,57,49,0
3,note_on,57,0,120
3,note_on,55,50,0
3,note_on,55,0,120
3,note_on,53,76,0
3,note_on,53,0,60
3,note_on,57,50,60
3,note_on,57,0,120
3,note_on,55,53,0
3,note_on,55,0,120
3,note_on,53,55,0
3,note_on,53,0,120
3,note_on,52,85,0
3,note_on,52,0,60
3,note_on,55,58,60
3,note_on,55,0,120
3,note_on,53,61,0
3,note_on,53,0,120
3,note_on,52,64,0
3,note_on,52,0,120
3,note_on,50,90,0
3,note_on,50,0,60
3,note_on,53,68,60
3,note_on,53,0,120
3,note_on,52,72,0
3,note_on,52,0,120
3,note_on,50,76,0
3,note_on,50,0,120
3,note_on,36,94,0
3,note_on,48,94,0
3,note_on,50,56,120
3,note_on,50,0,60
3,note_on,52,57,0
3,note_on,52,0,60
3,note_on,48,0,0
3,note_on,36,0,0
3,note_on,53,60,0
3,note_on,53,0,60
3,note_on,55,60,0
3,note_on,55,0,60
3,note_on,57,62,0
3,note_on,57,0,60
3,note_on,59,63,0
3,note_on,59,0,60
3,note_on,60,63,0
3,note_on,60,0,120
3,note_on,62,65,0
3,note_on,62,0,60
3,note_on,64,66,0
3,note_on,64,0,60
3,note_on,65,67,0
3,note_on,65,0,60
3,note_on,67,69,0
3,note_on,67,0,60
3,note_on,69,70,0
3,note_on,69,0,60
3,note_on,71,71,0
3,note_on,71,0,60
3,note_on,72,74,0
3,note_on,72,0,60
3,note_on,71,71,60
3,note_on,71,0,60
3,note_on,69,71,60
3,note_on,69,0,60
3,note_on,67,71,60
3,note_on,67,0,60
3,note_on,65,72,60
3,note_on,65,0,60
3,note_on,64,69,60
3,note_on,64,0,60
3,note_on,62,69,60
3,note_on,62,0,60
3,note_on,60,67,60
3,note_on,60,0,60
3,note_on,59,73,60
3,note_on,59,0,60
3,note_on,60,69,60
3,note_on,60,0,60
3,note_on,59,69,60
3,note_on,59,0,60
3,note_on,57,69,60
3,note_on,57,0,60
3,note_on,55,75,60
3,note_on,55,0,60
3,note_on,53,69,60
3,note_on,53,0,60
3,note_on,52,69,60
3,note_on,52,0,60
3,note_on,50,69,60
3,note_on,50,0,60
3,note_on,48,75,60
3,note_on,48,0,60
3,note_on,48,69,60
3,note_on,48,0,60
3,note_on,47,69,60
3,note_on,47,0,60
3,note_on,45,69,60
3,note_on,45,0,60
3,note_on,43,72,60
3,note_on,43,0,60
3,note_on,41,71,60
3,note_on,41,0,60
3,note_on,40,75,60
3,note_on,40,0,60
3,note_on,38,80,60
3,note_on,38,0,60
3,note_on,36,95,60
3,note_on,48,95,0
3,note_on,50,56,120
3,note_on,50,0,60
3,note_on,52,57,0
3,note_on,52,0,60
3,note_on,48,0,0
3,note_on,36,0,0
3,note_on,53,60,0
3,note_on,53,0,60
3,note_on,55,60,0
3,note_on,55,0,60
3,note_on,57,62,0
3,note_on,57,0,60
3,note_on,59,63,0
3,note_on,59,0,60
3,note_on,60,63,0
3,note_on,60,0,120
3,note_on,62,65,0
3,note_on,62,0,60
3,note_on,64,66,0
3,note_on,64,0,60
3,note_on,65,67,0
3,note_on,65,0,60
3,note_on,67,69,0
3,note_on,67,0,60
3,note_on,69,70,0
3,note_on,69,0,60
3,note_on,71,71,0
3,note_on,71,0,60
3,note_on,72,74,0
3,note_on,72,0,60
3,note_on,71,71,60
3,note_on,71,0,60
3,note_on,69,71,60
3,note_on,69,0,60
3,note_on,67,71,60
3,note_on,67,0,60
3,note_on,65,72,60
3,note_on,65,0,60
3,note_on,64,69,60
3,note_on,64,0,60
3,note_on,62,69,60
3,note_on,62,0,60
3,note_on,60,67,60
3,note_on,60,0,60
3,note_on,59,73,60
3,note_on,59,0,60
3,note_on,60,69,60
3,note_on,60,0,60
3,note_on,59,69,60
3,note_on,59,0,60
3,note_on,57,69,60
3,note_on,57,0,60
3,note_on,55,75,60
3,note_on,55,0,60
3,note_on,53,69,60
3,note_on,53,0,60
3,note_on,52,69,60
3,note_on,52,0,60
3,note_on,50,69,60
3,note_on,50,0,60
3,note_on,48,75,60
3,note_on,48,0,240
3,note_on,36,75,0
3,note_on,36,0,240
3,note_on,36,60,240
3,note_on,48,71,0
3,note_on,48,0,240
3,note_on,36,0,0
3,note_on,36,60,240
3,note_on,48,71,0
3,note_on,48,0,240
3,note_on,36,0,0
3,note_on,36,57,240
3,note_on,48,68,0
3,note_on,48,0,240
3,note_on,36,0,0
3,note_on,36,53,240
3,note_on,48,63,0
3,note_on,48,0,240
3,note_on,36,0,0
3,note_on,36,59,240
3,note_on,48,70,0
3,note_on,48,0,240
3,note_on,36,0,0
3,note_on,36,60,240
3,note_on,48,71,0
3,note_on,48,0,240
3,note_on,36,0,0
3,note_on,36,60,240
3,note_on,48,71,0
3,note_on,48,0,240
3,note_on,36,0,0
3,note_on,36,71,240
3,note_on,36,0,240
3,note_on,48,60,240
3,note_on,40,60,0
3,note_on,52,71,0
3,note_on,52,0,240
3,note_on,40,0,0
3,note_on,48,0,0
3,note_on,48,60,240
3,note_on,41,60,0
3,note_on,53,71,0
3,note_on,53,0,240
3,note_on,41,0,0
3,note_on,48,0,0
3,note_on,48,57,240
3,note_on,40,57,0
3,note_on,52,68,0
3,note_on,52,0,240
3,note_on,40,0,0
3,note_on,48,0,0
3,note_on,48,53,240
3,note_on,38,53,0
3,note_on,50,63,0
3,note_on,50,0,240
3,note_on,38,0,0
3,note_on,48,0,0
3,note_on,48,59,240
3,note_on,39,59,0
3,note_on,51,70,0
3,note_on,51,0,240
3,note_on,39,0,0
3,note_on,48,0,0
3,note_on,48,60,240
3,note_on,40,60,0
3,note_on,52,71,0
3,note_on,52,0,240
3,note_on,40,0,0
3,note_on,48,0,0
3,note_on,48,60,240
3,note_on,38,60,0
3,note_on,50,71,0
3,note_on,50,0,240
3,note_on,38,0,0
3,note_on,48,0,0
3,note_on,36,63,240
3,note_on,48,63,0
3,note_on,48,0,240
3,note_on,36,0,0
3,note_on,36,51,0
3,note_on,36,0,80
3,note_on,40,45,0
3,note_on,40,0,80
3,note_on,43,45,0
3,note_on,43,0,80
3,note_on,48,51,0
3,note_on,48,0,80
3,note_on,43,46,0
3,note_on,43,0,80
3,note_on,40,46,0
3,note_on,40,0,80
3,note_on,36,51,0
3,note_on,36,0,80
3,note_on,41,46,0
3,note_on,41,0,80
3,note_on,45,46,0
3,note_on,45,0,80
3,note_on,48,51,0
3,note_on,48,0,80
3,note_on,45,45,0
3,note_on,45,0,80
3,note_on,41,45,0
3,note_on,41,0,80
3,note_on,36,51,0
3,note_on,36,0,80
3,note_on,40,46,0
3,note_on,40,0,80
3,note_on,43,46,0
3,note_on,43,0,80
3,note_on,48,51,0
3,note_on,48,0,80
3,note_on,43,46,0
3,note_on,43,0,80
3,note_on,40,46,0
3,note_on,40,0,80
3,note_on,36,51,0
3,note_on,36,0,80
3,note_on,38,46,0
3,note_on,38,0,80
3,note_on,41,46,0
3,note_on,41,0,80
3,note_on,48,51,0
3,note_on,48,0,80
3,note_on,41,45,0
3,note_on,41,0,80
3,note_on,38,45,0
3,note_on,38,0,80
3,note_on,36,56,0
3,note_on,36,0,80
3,note_on,39,46,0
3,note_on,39,0,80
3,note_on,42,46,0
3,note_on,42,0,80
3,note_on,48,51,0
3,note_on,48,0,80
3,note_on,42,46,0
3,note_on,42,0,80
3,note_on,39,46,0
3,note_on,39,0,80
3,note_on,36,57,0
3,note_on,36,0,80
3,note_on,40,46,0
3,note_on,40,0,80
3,note_on,43,46,0
3,note_on,43,0,80
3,note_on,48,51,0
3,note_on,48,0,80
3,note_on,43,45,0
3,note_on,43,0,80
3,note_on,40,45,0
3,note_on,40,0,80
3,note_on,36,51,0
3,note_on,36,0,80
3,note_on,38,45,0
3,note_on,38,0,80
3,note_on,41,44,0
3,note_on,41,0,80
3,note_on,48,51,0
3,note_on,48,0,80
3,note_on,41,44,0
3,note_on,41,0,80
3,note_on,38,44,0
3,note_on,38,0,80
3,note_on,36,51,0
3,note_on,36,0,80
3,note_on,40,44,0
3,note_on,40,0,80
3,note_on,43,44,0
3,note_on,43,0,80
3,note_on,48,51,0
3,note_on,48,0,80
3,note_on,43,44,0
3,note_on,43,0,80
3,note_on,40,46,0
3,note_on,40,0,80
3,note_on,36,51,0
3,note_on,36,0,80
3,note_on,48,45,0
3,note_on,48,0,80
3,note_on,52,45,0
3,note_on,52,0,80
3,note_on,55,51,0
3,note_on,55,0,80
3,note_on,52,46,0
3,note_on,52,0,80
3,note_on,48,46,0
3,note_on,48,0,80
3,note_on,36,51,0
3,note_on,36,0,80
3,note_on,48,46,0
3,note_on,48,0,80
3,note_on,53,46,0
3,note_on,53,0,80
3,note_on,57,51,0
3,note_on,57,0,80
3,note_on,53,45,0
3,note_on,53,0,80
3,note_on,48,45,0
3,note_on,48,0,80
3,note_on,36,51,0
3,note_on,36,0,80
3,note_on,48,46,0
3,note_on,48,0,80
3,note_on,52,46,0
3,note_on,52,0,80
3,note_on,55,51,0
3,note_on,55,0,80
3,note_on,52,46,0
3,note_on,52,0,80
3,note_on,48,46,0
3,note_on,48,0,80
3,note_on,36,51,0
3,note_on,36,0,80
3,note_on,48,46,0
3,note_on,48,0,80
3,note_on,50,46,0
3,note_on,50,0,80
3,note_on,53,51,0
3,note_on,53,0,80
3,note_on,50,45,0
3,note_on,50,0,80
3,note_on,48,45,0
3,note_on,48,0,80
3,note_on,36,56,0
3,note_on,36,0,80
3,note_on,48,46,0
3,note_on,48,0,80
3,note_on,51,46,0
3,note_on,51,0,80
3,note_on,54,51,0
3,note_on,54,0,80
3,note_on,51,46,0
3,note_on,51,0,80
3,note_on,48,46,0
3,note_on,48,0,80
3,note_on,36,57,0
3,note_on,36,0,80
3,note_on,48,46,0
3,note_on,48,0,80
3,note_on,52,46,0
3,note_on,52,0,80
3,note_on,55,51,0
3,note_on,55,0,80
3,note_on,52,45,0
3,note_on,52,0,80
3,note_on,48,45,0
3,note_on,48,0,80
3,note_on,36,51,0
3,note_on,36,0,80
3,note_on,48,45,0
3,note_on,48,0,80
3,note_on,50,44,0
3,note_on,50,0,80
3,note_on,53,51,0
3,note_on,53,0,80
3,note_on,50,44,0
3,note_on,50,0,80
3,note_on,48,44,0
3,note_on,48,0,80
3,note_on,36,51,0
3,note_on,36,0,80
3,note_on,48,44,0
3,note_on,48,0,80
3,note_on,52,44,0
3,note_on,52,0,80
3,note_on,55,51,0
3,note_on,55,0,80
3,note_on,52,44,0
3,note_on,52,0,80
3,note_on,48,46,0
3,note_on,48,0,80
3,note_on,36,59,0
3,note_on,36,0,80
3,note_on,48,45,0
3,note_on,48,0,80
3,note_on,52,45,0
3,note_on,52,0,80
3,note_on,55,51,0
3,note_on,55,0,80
3,note_on,52,46,0
3,note_on,52,0,80
3,note_on,48,46,0
3,note_on,48,0,80
3,note_on,43,51,0
3,note_on,43,0,80
3,note_on,47,46,0
3,note_on,47,0,80
3,note_on,50,46,0
3,note_on,50,0,80
3,note_on,55,51,0
3,note_on,55,0,80
3,note_on,50,45,0
3,note_on,50,0,80
3,note_on,47,45,0
3,note_on,47,0,80
3,note_on,38,59,0
3,note_on,38,0,80
3,note_on,50,45,0
3,note_on,50,0,80
3,note_on,53,45,0
3,note_on,53,0,80
3,note_on,57,51,0
3,note_on,57,0,80
3,note_on,53,46,0
3,note_on,53,0,80
3,note_on,50,46,0
3,note_on,50,0,80
3,note_on,45,51,0
3,note_on,45,0,80
3,note_on,48,46,0
3,note_on,48,0,80
3,note_on,52,46,0
3,note_on,52,0,80
3,note_on,57,51,0
3,note_on,57,0,80
3,note_on,52,45,0
3,note_on,52,0,80
3,note_on,48,45,0
3,note_on,48,0,80
3,note_on,41,59,0
3,note_on,41,0,80
3,note_on,48,45,0
3,note_on,48,0,80
3,note_on,50,45,0
3,note_on,50,0,80
3,note_on,53,51,0
3,note_on,53,0,80
3,note_on,50,46,0
3,note_on,50,0,80
3,note_on,48,46,0
3,note_on,48,0,80
3,note_on,43,51,0
3,note_on,43,0,80
3,note_on,48,46,0
3,note_on,48,0,80
3,note_on,50,46,0
3,note_on,50,0,80
3,note_on,55,51,0
3,note_on,55,0,80
3,note_on,50,45,0
3,note_on,50,0,80
3,note_on,48,45,0
3,note_on,48,0,80
3,note_on,43,59,0
3,note_on,43,0,80
3,note_on,47,45,0
3,note_on,47,0,80
3,note_on,50,45,0
3,note_on,50,0,80
3,note_on,55,51,0
3,note_on,55,0,80
3,note_on,50,46,0
3,note_on,50,0,80
3,note_on,47,46,0
3,note_on,47,0,80
3,note_on,36,51,0
3,note_on,36,0,80
3,note_on,48,44,0
3,note_on,48,0,80
3,note_on,52,44,0
3,note_on,52,0,80
3,note_on,55,50,0
3,note_on,55,0,80
3,note_on,52,43,0
3,note_on,52,0,80
3,note_on,48,43,0
3,note_on,48,0,80
3,note_on,36,59,0
3,note_on,36,0,80
3,note_on,48,45,0
3,note_on,48,0,80
3,note_on,52,45,0
3,note_on,52,0,80
3,note_on,55,51,0
3,note_on,55,0,80
3,note_on,52,46,0
3,note_on,52,0,80
3,note_on,48,46,0
3,note_on,48,0,80
3,note_on,43,51,0
3,note_on,43,0,80
3,note_on,47,46,0
3,note_on,47,0,80
3,note_on,50,46,0
3,note_on,50,0,80
3,note_on,55,51,0
3,note_on,55,0,80
3,note_on,50,45,0
3,note_on,50,0,80
3,note_on,47,45,0
3,note_on,47,0,80
3,note_on,38,59,0
3,note_on,38,0,80
3,note_on,50,45,0
3,note_on,50,0,80
3,note_on,53,45,0
3,note_on,53,0,80
3,note_on,57,51,0
3,note_on,57,0,80
3,note_on,53,46,0
3,note_on,53,0,80
3,note_on,50,46,0
3,note_on,50,0,80
3,note_on,45,51,0
3,note_on,45,0,80
3,note_on,48,46,0
3,note_on,48,0,80
3,note_on,52,46,0
3,note_on,52,0,80
3,note_on,57,51,0
3,note_on,57,0,80
3,note_on,52,45,0
3,note_on,52,0,80
3,note_on,48,45,0
3,note_on,48,0,80
3,note_on,45,59,0
3,note_on,45,0,80
3,note_on,48,45,0
3,note_on,48,0,80
3,note_on,52,45,0
3,note_on,52,0,80
3,note_on,57,51,0
3,note_on,57,0,80
3,note_on,52,46,0
3,note_on,52,0,80
3,note_on,48,46,0
3,note_on,48,0,80
3,note_on,38,51,0
3,note_on,38,0,80
3,note_on,45,46,0
3,note_on,45,0,80
3,note_on,48,46,0
3,note_on,48,0,80
3,note_on,50,51,0
3,note_on,50,0,80
3,note_on,48,45,0
3,note_on,48,0,80
3,note_on,45,45,0
3,note_on,45,0,80
3,note_on,38,59,0
3,note_on,38,0,80
3,note_on,45,45,0
3,note_on,45,0,80
3,note_on,48,45,0
3,note_on,48,0,80
3,note_on,50,51,0
3,note_on,50,0,80
3,note_on,48,46,0
3,note_on,48,0,80
3,note_on,45,46,0
3,note_on,45,0,80
3,note_on,43,51,0
3,note_on,43,0,80
3,note_on,50,44,0
3,note_on,50,0,80
3,note_on,55,44,0
3,note_on,55,0,80
3,note_on,43,50,0
3,note_on,43,0,80
3,note_on,47,43,0
3,note_on,47,0,80
3,note_on,55,43,0
3,note_on,55,0,80
3,note_on,43,59,0
3,note_on,43,0,80
3,note_on,48,45,0
3,note_on,48,0,80
3,note_on,50,45,0
3,note_on,50,0,80
3,note_on,43,51,0
3,note_on,43,0,80
3,note_on,48,46,0
3,note_on,48,0,80
3,note_on,50,46,0
3,note_on,50,0,80
3,note_on,43,51,0
3,note_on,43,0,80
3,note_on,47,46,0
3,note_on,47,0,80
3,note_on,50,46,0
3,note_on,50,0,80
3,note_on,43,51,0
3,note_on,43,0,80
3,note_on,47,45,0
3,note_on,47,0,80
3,note_on,50,45,0
3,note_on,50,0,80
3,note_on,43,59,0
3,note_on,43,0,80
3,note_on,48,45,0
3,note_on,48,0,80
3,note_on,50,45,0
3,note_on,50,0,80
3,note_on,43,51,0
3,note_on,43,0,80
3,note_on,48,46,0
3,note_on,48,0,80
3,note_on,50,46,0
3,note_on,50,0,80
3,note_on,43,58,0
3,note_on,43,0,80
3,note_on,47,44,0
3,note_on,47,0,80
3,note_on,50,44,0
3,note_on,50,0,80
3,note_on,43,50,0
3,note_on,43,0,80
3,note_on,47,43,0
3,note_on,47,0,80
3,note_on,50,43,0
3,note_on,50,0,80
3,note_on,43,40,0
3,note_on,43,0,80
3,note_on,48,30,0
3,note_on,48,0,80
3,note_on,50,30,0
3,note_on,50,0,80
3,note_on,57,34,0
3,note_on,57,0,80
3,note_on,50,31,0
3,note_on,50,0,80
3,note_on,48,31,0
3,note_on,48,0,80
3,note_on,43,35,0
3,note_on,43,0,80
3,note_on,47,31,0
3,note_on,47,0,80
3,note_on,50,31,0
3,note_on,50,0,80
3,note_on,55,34,0
3,note_on,55,0,80
3,note_on,50,30,0
3,note_on,50,0,80
3,note_on,47,30,0
3,note_on,47,0,80
3,note_on,43,40,0
3,note_on,43,0,80
3,note_on,48,30,0
3,note_on,48,0,80
3,note_on,50,30,0
3,note_on,50,0,80
3,note_on,57,34,0
3,note_on,57,0,80
3,note_on,50,31,0
3,note_on,50,0,80
3,note_on,48,31,0
3,note_on,48,0,80
3,note_on,43,39,0
3,note_on,43,0,80
3,note_on,47,30,0
3,note_on,47,0,80
3,note_on,50,30,0
3,note_on,50,0,80
3,note_on,55,34,0
3,note_on,55,0,80
3,note_on,50,29,0
3,note_on,50,0,80
3,note_on,47,29,0
3,note_on,47,0,80
3,note_on,43,65,0
3,note_on,43,0,80
3,note_on,48,49,0
3,note_on,48,0,80
3,note_on,50,49,0
3,note_on,50,0,80
3,note_on,43,56,0
3,note_on,43,0,80
3,note_on,48,51,0
3,note_on,48,0,80
3,note_on,50,51,0
3,note_on,50,0,80
3,note_on,43,56,0
3,note_on,43,0,80
3,note_on,47,51,0
3,note_on,47,0,80
3,note_on,50,51,0
3,note_on,50,0,80
3,note_on,43,56,0
3,note_on,43,0,80
3,note_on,47,49,0
3,note_on,47,0,80
3,note_on,50,49,0
3,note_on,50,0,80
3,note_on,43,65,0
3,note_on,43,0,80
3,note_on,48,49,0
3,note_on,48,0,80
3,note_on,50,49,0
3,note_on,50,0,80
3,note_on,43,56,0
3,note_on,43,0,80
3,note_on,48,51,0
3,note_on,48,0,80
3,note_on,50,51,0
3,note_on,50,0,80
3,note_on,43,63,0
3,note_on,43,0,80
3,note_on,47,48,0
3,note_on,47,0,80
3,note_on,50,48,0
3,note_on,50,0,80
3,note_on,43,54,0
3,note_on,43,0,80
3,note_on,47,47,0
3,note_on,47,0,80
3,note_on,50,47,0
3,note_on,50,0,80
3,note_on,43,40,0
3,note_on,43,0,80
3,note_on,48,30,0
3,note_on,48,0,80
3,note_on,50,30,0
3,note_on,50,0,80
3,note_on,57,34,0
3,note_on,57,0,80
3,note_on,50,31,0
3,note_on,50,0,80
3,note_on,48,31,0
3,note_on,48,0,80
3,note_on,43,35,0
3,note_on,43,0,80
3,note_on,47,31,0
3,note_on,47,0,80
3,note_on,50,31,0
3,note_on,50,0,80
3,note_on,55,34,0
3,note_on,55,0,80
3,note_on,50,30,0
3,note_on,50,0,80
3,note_on,47,30,0
3,note_on,47,0,80
3,note_on,43,40,0
3,note_on,43,0,80
3,note_on,48,30,0
3,note_on,48,0,80
3,note_on,50,30,0
3,note_on,50,0,80
3,note_on,57,34,0
3,note_on,57,0,80
3,note_on,50,31,0
3,note_on,50,0,80
3,note_on,48,31,0
3,note_on,48,0,80
3,note_on,43,43,0
3,note_on,43,0,80
3,note_on,47,33,0
3,note_on,47,0,80
3,note_on,50,34,0
3,note_on,50,0,80
3,note_on,55,39,0
3,note_on,55,0,80
3,note_on,50,34,0
3,note_on,50,0,80
3,note_on,47,35,0
3,note_on,47,0,80
3,note_on,43,50,0
3,note_on,43,0,80
3,note_on,48,38,0
3,note_on,48,0,80
3,note_on,50,39,0
3,note_on,50,0,80
3,note_on,57,45,0
3,note_on,57,0,80
3,note_on,50,42,0
3,note_on,50,0,80
3,note_on,48,43,0
3,note_on,48,0,80
3,note_on,43,50,0
3,note_on,43,0,80
3,note_on,47,44,0
3,note_on,47,0,80
3,note_on,50,45,0
3,note_on,50,0,80
3,note_on,55,51,0
3,note_on,55,0,80
3,note_on,50,45,0
3,note_on,50,0,80
3,note_on,47,47,0
3,note_on,47,0,80
3,note_on,43,64,0
3,note_on,43,0,80
3,note_on,48,49,0
3,note_on,48,0,80
3,note_on,50,50,0
3,note_on,50,0,80
3,note_on,57,57,0
3,note_on,57,0,80
3,note_on,50,53,0
3,note_on,50,0,80
3,note_on,48,54,0
3,note_on,48,0,80
3,note_on,43,68,0
3,note_on,47,68,0
3,note_on,50,68,0
3,note_on,55,80,0
3,note_on,55,0,240
3,note_on,43,0,0
3,note_on,47,0,0
3,note_on,50,0,0
3,note_on,43,78,1200
3,note_on,47,78,0
3,note_on,50,78,0
3,note_on,55,92,0
3,note_on,55,0,240
3,note_on,43,0,0
3,note_on,47,0,0
3,note_on,50,0,0
3,note_on,31,85,240
3,note_on,43,101,0
3,note_on,43,0,240
3,note_on,31,0,0
3,note_on,43,78,1214
3,note_on,47,78,0
3,note_on,50,78,0
3,note_on,55,92,0
3,note_on,55,0,240
3,note_on,43,0,0
3,note_on,47,0,0
3,note_on,50,0,0
3,note_on,31,85,240
3,note_on,43,101,0
3,note_on,43,0,240
3,note_on,31,0,0
3,note_on,43,78,1200
3,note_on,47,78,0
3,note_on,50,78,0
3,note_on,55,92,0
3,note_on,55,0,240
3,note_on,43,0,0
3,note_on,47,0,0
3,note_on,50,0,0
3,note_on,31,85,240
3,note_on,43,101,0
3,note_on,43,0,240
3,note_on,31,0,0
3,note_on,43,78,1200
3,note_on,47,78,0
3,note_on,50,78,0
3,note_on,55,92,0
3,note_on,55,0,240
3,note_on,43,0,0
3,note_on,47,0,0
3,note_on,50,0,0
3,note_on,31,76,240
3,note_on,43,90,0
3,note_on,43,0,240
3,note_on,31,0,0
3,note_on,65,64,706
3,note_on,62,54,0
3,note_on,59,54,0
3,note_on,55,54,0
3,note_on,55,0,240
3,note_on,65,0,0
3,note_on,62,0,0
3,note_on,59,0,0
3,note_on,65,58,720
3,note_on,62,49,0
3,note_on,59,49,0
3,note_on,55,49,0
3,note_on,55,0,240
3,note_on,65,0,0
3,note_on,62,0,0
3,note_on,59,0,0
3,note_on,65,51,720
3,note_on,62,43,0
3,note_on,59,43,0
3,note_on,55,43,0
3,note_on,55,0,240
3,note_on,65,0,0
3,note_on,62,0,0
3,note_on,59,0,0
3,note_on,55,40,720
3,note_on,59,40,0
3,note_on,62,40,0
3,note_on,65,48,0
3,note_on,65,0,240
3,note_on,55,0,0
3,note_on,59,0,0
3,note_on,62,0,0
3,note_on,43,32,720
3,note_on,47,32,0
3,note_on,50,32,0
3,note_on,53,38,0
3,note_on,53,0,240
3,note_on,43,0,0
3,note_on,47,0,0
3,note_on,50,0,0
3,note_on,43,30,720
3,note_on,47,30,0
3,note_on,50,30,0
3,note_on,53,36,0
3,note_on,53,0,240
3,note_on,43,0,0
3,note_on,47,0,0
3,note_on,50,0,0
3,note_on,43,28,720
3,note_on,47,28,0
3,note_on,50,28,0
3,note_on,53,34,0
3,note_on,53,0,240
3,note_on,43,0,0
3,note_on,47,0,0
3,note_on,50,0,0
3,note_on,43,21,720
3,note_on,47,21,0
3,note_on,50,21,0
3,note_on,53,25,0
3,note_on,53,0,240
3,note_on,43,0,0
3,note_on,47,0,0
3,note_on,50,0,0
3,note_on,43,21,1680
3,note_on,46,21,0
3,note_on,49,21,0
3,note_on,52,25,0
3,note_on,52,0,480
3,note_on,43,0,0
3,note_on,46,0,0
3,note_on,49,0,0
3,note_on,43,21,1440
3,note_on,45,21,0
3,note_on,48,21,0
3,note_on,51,25,0
3,note_on,51,0,480
3,note_on,43,0,0
3,note_on,45,0,0
3,note_on,48,0,0
3,note_on,43,25,1440
3,note_on,43,0,240
3,note_on,79,30,720
3,note_on,79,0,240
3,note_on,55,27,240
3,note_on,55,0,240
3,note_on,43,25,240
3,note_on,43,0,240
3,note_on,31,25,240
3,note_on,31,0,480
3,note_on,36,72,0
3,note_on,48,75,0
3,note_on,48,0,240
3,note_on,36,0,0
3,note_on,64,41,0
3,note_on,64,0,120
3,note_on,67,34,0
3,note_on,67,0,120
3,note_on,64,41,0
3,note_on,64,0,120
3,note_on,67,34,0
3,note_on,67,0,120
3,note_on,64,41,0
3,note_on,64,0,120
3,note_on,67,33,0
3,note_on,67,0,120
3,note_on,65,41,0
3,note_on,65,0,120
3,note_on,67,34,0
3,note_on,67,0,120
3,note_on,65,41,0
3,note_on,65,0,120
3,note_on,67,35,0
3,note_on,67,0,120
3,note_on,64,41,0
3,note_on,64,0,120
3,note_on,67,34,0
3,note_on,67,0,120
3,note_on,64,41,0
3,note_on,64,0,120
3,note_on,67,35,0
3,note_on,67,0,120
3,note_on,64,41,0
3,note_on,64,0,120
3,note_on,67,34,0
3,note_on,67,0,120
3,note_on,64,41,0
3,note_on,64,0,120
3,note_on,67,34,0
3,note_on,67,0,120
3,note_on,64,41,0
3,note_on,64,0,120
3,note_on,67,34,0
3,note_on,67,0,120
3,note_on,64,41,0
3,note_on,64,0,120
3,note_on,67,33,0
3,note_on,67,0,120
3,note_on,65,41,0
3,note_on,65,0,120
3,note_on,67,34,0
3,note_on,67,0,120
3,note_on,65,41,0
3,note_on,65,0,120
3,note_on,67,35,0
3,note_on,67,0,120
3,note_on,64,41,0
3,note_on,64,0,120
3,note_on,67,34,0
3,note_on,67,0,120
3,note_on,64,41,0
3,note_on,64,0,120
3,note_on,67,35,0
3,note_on,67,0,120
3,note_on,60,41,0
3,note_on,64,41,0
3,note_on,64,0,120
3,note_on,67,34,0
3,note_on,67,0,120
3,note_on,60,0,0
3,note_on,60,41,0
3,note_on,64,41,0
3,note_on,64,0,120
3,note_on,67,34,0
3,note_on,67,0,120
3,note_on,60,0,0
3,note_on,60,41,0
3,note_on,64,41,0
3,note_on,64,0,120
3,note_on,67,34,0
3,note_on,67,0,120
3,note_on,60,0,0
3,note_on,60,41,0
3,note_on,64,41,0
3,note_on,64,0,120
3,note_on,67,33,0
3,note_on,67,0,120
3,note_on,60,0,0
3,note_on,60,38,0
3,note_on,65,38,0
3,note_on,65,0,120
3,note_on,67,32,0
3,note_on,67,0,120
3,note_on,60,0,0
3,note_on,60,38,0
3,note_on,65,38,0
3,note_on,65,0,120
3,note_on,67,33,0
3,note_on,67,0,120
3,note_on,60,0,0
3,note_on,60,38,0
3,note_on,64,38,0
3,note_on,64,0,120
3,note_on,67,32,0
3,note_on,67,0,120
3,note_on,60,0,0
3,note_on,60,38,0
3,note_on,64,38,0
3,note_on,64,0,120
3,note_on,67,33,0
3,note_on,67,0,120
3,note_on,60,0,0
3,note_on,60,41,0
3,note_on,64,41,0
3,note_on,64,0,120
3,note_on,67,34,0
3,note_on,67,0,120
3,note_on,60,0,0
3,note_on,60,41,0
3,note_on,64,41,0
3,note_on,64,0,120
3,note_on,67,34,0
3,note_on,67,0,120
3,note_on,60,0,0
3,note_on,60,41,0
3,note_on,64,41,0
3,note_on,64,0,120
3,note_on,67,34,0
3,note_on,67,0,120
3,note_on,60,0,0
3,note_on,60,41,0
3,note_on,64,41,0
3,note_on,64,0,120
3,note_on,67,33,0
3,note_on,67,0,120
3,note_on,60,0,0
3,note_on,60,38,0
3,note_on,65,38,0
3,note_on,65,0,120
3,note_on,67,32,0
3,note_on,67,0,120
3,note_on,60,0,0
3,note_on,60,38,0
3,note_on,65,38,0
3,note_on,65,0,120
3,note_on,67,33,0
3,note_on,67,0,120
3,note_on,60,0,0
3,note_on,60,38,0
3,note_on,64,38,0
3,note_on,64,0,120
3,note_on,67,32,0
3,note_on,67,0,120
3,note_on,60,0,0
3,note_on,60,38,0
3,note_on,64,38,0
3,note_on,64,0,120
3,note_on,67,33,0
3,note_on,67,0,120
3,note_on,60,0,0
3,note_on,60,48,0
3,note_on,65,48,0
3,note_on,65,0,120
3,note_on,67,43,0
3,note_on,67,0,120
3,note_on,60,0,0
3,note_on,60,54,0
3,note_on,65,54,0
3,note_on,65,0,120
3,note_on,67,47,0
3,note_on,67,0,120
3,note_on,60,0,0
3,note_on,64,60,0
3,note_on,63,53,120
3,note_on,64,0,10
3,note_on,64,53,110
3,note_on,63,0,10
3,note_on,60,54,110
3,note_on,64,0,10
3,note_on,60,0,110
3,note_on,62,61,0
3,note_on,61,54,120
3,note_on,62,0,10
3,note_on,62,54,110
3,note_on,61,0,10
3,note_on,59,54,110
3,note_on,62,0,10
3,note_on,59,0,110
3,note_on,60,61,0
3,note_on,59,54,120
3,note_on,60,0,10
3,note_on,60,54,110
3,note_on,59,0,10
3,note_on,57,54,110
3,note_on,60,0,10
3,note_on,57,0,110
3,note_on,59,60,0
3,note_on,58,54,120
3,note_on,59,0,10
3,note_on,59,54,110
3,note_on,58,0,10
3,note_on,55,54,110
3,note_on,59,0,10
3,note_on,55,0,110
3,note_on,57,60,0
3,note_on,56,54,120
3,note_on,57,0,10
3,note_on,57,54,110
3,note_on,56,0,10
3,note_on,53,54,110
3,note_on,57,0,10
3,note_on,53,0,110
3,note_on,55,60,0
3,note_on,54,54,120
3,note_on,55,0,10
3,note_on,55,54,110
3,note_on,54,0,10
3,note_on,52,54,110
3,note_on,55,0,10
3,note_on,52,0,110
3,note_on,53,61,0
3,note_on,52,54,120
3,note_on,53,0,10
3,note_on,53,54,110
3,note_on,52,0,10
3,note_on,50,54,110
3,note_on,53,0,10
3,note_on,50,0,110
3,note_on,52,62,0
3,note_on,51,54,120
3,note_on,52,0,10
3,note_on,52,54,110
3,note_on,51,0,10
3,note_on,48,54,110
3,note_on,52,0,10
3,note_on,48,0,110
3,note_on,60,61,0
3,note_on,59,54,120
3,note_on,60,0,10
3,note_on,60,54,110
3,note_on,59,0,10
3,note_on,64,54,110
3,note_on,60,0,10
3,note_on,64,0,110
3,note_on,59,61,0
3,note_on,58,54,120
3,note_on,59,0,10
3,note_on,59,54,110
3,note_on,58,0,10
3,note_on,62,54,110
3,note_on,59,0,10
3,note_on,62,0,110
3,note_on,57,61,0
3,note_on,56,54,120
3,note_on,57,0,10
3,note_on,57,54,110
3,note_on,56,0,10
3,note_on,60,54,110
3,note_on,57,0,10
3,note_on,60,0,110
3,note_on,55,60,0
3,note_on,54,54,120
3,note_on,55,0,10
3,note_on,55,54,110
3,note_on,54,0,10
3,note_on,59,54,110
3,note_on,55,0,10
3,note_on,59,0,110
3,note_on,53,61,0
3,note_on,52,54,120
3,note_on,53,0,10
3,note_on,53,54,110
3,note_on,52,0,10
3,note_on,57,54,110
3,note_on,53,0,10
3,note_on,57,0,110
3,note_on,52,62,0
3,note_on,51,54,120
3,note_on,52,0,10
3,note_on,52,54,110
3,note_on,51,0,10
3,note_on,55,54,110
3,note_on,52,0,10
3,note_on,55,0,110
3,note_on,50,60,0
3,note_on,49,54,120
3,note_on,50,0,10
3,note_on,50,54,110
3,note_on,49,0,10
3,note_on,53,53,110
3,note_on,50,0,10
3,note_on,53,0,110
3,note_on,48,84,0
3,note_on,48,0,240
3,note_on,48,72,120
3,note_on,48,0,120
3,note_on,43,84,0
3,note_on,43,0,240
3,note_on,43,72,120
3,note_on,43,0,120
3,note_on,50,84,0
3,note_on,50,0,240
3,note_on,50,72,120
3,note_on,50,0,120
3,note_on,45,84,0
3,note_on,45,0,240
3,note_on,45,72,120
3,note_on,45,0,120
3,note_on,53,84,0
3,note_on,53,0,240
3,note_on,53,73,120
3,note_on,53,0,120
3,note_on,48,84,0
3,note_on,48,0,240
3,note_on,48,74,120
3,note_on,48,0,120
3,note_on,55,84,0
3,note_on,55,0,240
3,note_on,55,73,120
3,note_on,55,0,120
3,note_on,43,84,0
3,note_on,43,0,240
3,note_on,43,74,120
3,note_on,43,0,120
3,note_on,48,84,0
3,note_on,48,0,240
3,note_on,60,73,120
3,note_on,60,0,120
3,note_on,55,84,0
3,note_on,55,0,240
3,note_on,55,73,120
3,note_on,55,0,120
3,note_on,50,84,0
3,note_on,50,0,240
3,note_on,62,72,120
3,note_on,62,0,120
3,note_on,57,84,0
3,note_on,57,0,240
3,note_on,57,72,120
3,note_on,57,0,120
3,note_on,53,84,0
3,note_on,53,0,240
3,note_on,65,73,120
3,note_on,65,0,120
3,note_on,53,84,0
3,note_on,53,0,240
3,note_on,65,73,120
3,note_on,65,0,120
3,note_on,53,83,0
3,note_on,53,0,240
3,note_on,65,72,120
3,note_on,65,0,120
3,note_on,53,82,0
3,note_on,53,0,240
3,note_on,53,72,120
3,note_on,53,0,120
3,note_on,41,82,0
3,note_on,41,0,240
3,note_on,57,41,0
3,note_on,57,0,120
3,note_on,60,34,0
3,note_on,60,0,120
3,note_on,57,41,0
3,note_on,57,0,120
3,note_on,60,34,0
3,note_on,60,0,120
3,note_on,57,41,0
3,note_on,57,0,120
3,note_on,60,33,0
3,note_on,60,0,120
3,note_on,58,41,0
3,note_on,58,0,120
3,note_on,60,34,0
3,note_on,60,0,120
3,note_on,58,41,0
3,note_on,58,0,120
3,note_on,60,35,0
3,note_on,60,0,120
3,note_on,57,41,0
3,note_on,57,0,120
3,note_on,60,34,0
3,note_on,60,0,120
3,note_on,57,41,0
3,note_on,57,0,120
3,note_on,60,35,0
3,note_on,60,0,120
3,note_on,57,41,0
3,note_on,57,0,120
3,note_on,60,34,0
3,note_on,60,0,120
3,note_on,57,41,0
3,note_on,57,0,120
3,note_on,60,34,0
3,note_on,60,0,120
3,note_on,57,41,0
3,note_on,57,0,120
3,note_on,60,34,0
3,note_on,60,0,120
3,note_on,57,41,0
3,note_on,57,0,120
3,note_on,60,33,0
3,note_on,60,0,120
3,note_on,58,38,0
3,note_on,58,0,120
3,note_on,60,32,0
3,note_on,60,0,120
3,note_on,58,38,0
3,note_on,58,0,120
3,note_on,60,33,0
3,note_on,60,0,120
3,note_on,57,38,0
3,note_on,57,0,120
3,note_on,60,32,0
3,note_on,60,0,120
3,note_on,57,38,0
3,note_on,57,0,120
3,note_on,60,33,0
3,note_on,60,0,120
3,note_on,43,85,0
3,note_on,43,0,240
3,note_on,59,42,0
3,note_on,59,0,240
3,note_on,62,43,0
3,note_on,62,0,240
3,note_on,59,39,0
3,note_on,59,0,240
3,note_on,60,43,0
3,note_on,60,0,240
3,note_on,64,42,0
3,note_on,64,0,240
3,note_on,62,42,0
3,note_on,62,0,240
3,note_on,59,39,0
3,note_on,59,0,240
3,note_on,55,46,0
3,note_on,55,0,240
3,note_on,59,42,0
3,note_on,59,0,240
3,note_on,62,43,0
3,note_on,62,0,240
3,note_on,59,39,0
3,note_on,59,0,240
3,note_on,60,43,0
3,note_on,64,42,240
3,note_on,60,0,10
3,note_on,62,42,230
3,note_on,64,0,10
3,note_on,59,39,230
3,note_on,62,0,10
3,note_on,59,0,230
3,note_on,57,43,0
3,note_on,60,42,240
3,note_on,57,0,10
3,note_on,59,42,230
3,note_on,60,0,10
3,note_on,55,39,230
3,note_on,59,0,10
3,note_on,55,0,230
3,note_on,53,43,0
3,note_on,57,42,240
3,note_on,53,0,10
3,note_on,55,42,230
3,note_on,57,0,10
3,note_on,52,39,230
3,note_on,55,0,10
3,note_on,52,0,230
3,note_on,50,44,0
3,note_on,53,43,240
3,note_on,50,0,10
3,note_on,48,44,230
3,note_on,53,0,10
3,note_on,52,41,230
3,note_on,48,0,10
3,note_on,52,0,230
3,note_on,47,46,0
3,note_on,50,44,240
3,note_on,47,0,10
3,note_on,45,44,230
3,note_on,50,0,10
3,note_on,48,42,230
3,note_on,45,0,10
3,note_on,48,0,230
3,note_on,43,47,0
3,note_on,47,46,240
3,note_on,43,0,10
3,note_on,41,47,230
3,note_on,47,0,10
3,note_on,45,42,230
3,note_on,41,0,10
3,note_on,45,0,230
3,note_on,40,48,0
3,note_on,43,47,240
3,note_on,40,0,10
3,note_on,31,47,230
3,note_on,38,47,0
3,note_on,43,0,10
3,note_on,43,43,230
3,note_on,38,0,10
3,note_on,31,0,0
3,note_on,43,0,230
3,note_on,32,79,0
3,note_on,44,94,0
3,note_on,44,0,240
3,note_on,32,0,0
3,note_on,63,98,240
3,note_on,60,89,0
3,note_on,56,82,0
3,note_on,56,0,120
3,note_on,60,0,0
3,note_on,63,0,0
3,note_on,63,98,360
3,note_on,60,89,0
3,note_on,56,82,0
3,note_on,56,0,960
3,note_on,60,0,0
3,note_on,63,0,0
3,note_on,39,47,0
3,note_on,39,0,240
3,note_on,61,40,240
3,note_on,58,34,0
3,note_on,55,34,0
3,note_on,51,34,0
3,note_on,51,0,240
3,note_on,61,0,0
3,note_on,58,0,0
3,note_on,55,0,0
3,note_on,40,47,240
3,note_on,40,0,240
3,note_on,61,40,240
3,note_on,58,34,0
3,note_on,55,34,0
3,note_on,52,34,0
3,note_on,52,0,240
3,note_on,61,0,0
3,note_on,58,0,0
3,note_on,55,0,0
3,note_on,41,94,240
3,note_on,41,0,240
3,note_on,60,98,240
3,note_on,56,89,0
3,note_on,53,82,0
3,note_on,53,0,120
3,note_on,56,0,0
3,note_on,60,0,0
3,note_on,60,98,360
3,note_on,56,89,0
3,note_on,53,82,0
3,note_on,53,0,960
3,note_on,56,0,0
3,note_on,60,0,0
3,note_on,36,47,0
3,note_on,36,0,240
3,note_on,58,40,240
3,note_on,55,34,0
3,note_on,52,34,0
3,note_on,48,34,0
3,note_on,48,0,240
3,note_on,58,0,0
3,note_on,55,0,0
3,note_on,52,0,0
3,note_on,36,47,240
3,note_on,36,0,240
3,note_on,58,40,240
3,note_on,55,34,0
3,note_on,52,34,0
3,note_on,48,34,0
3,note_on,48,0,240
3,note_on,58,0,0
3,note_on,55,0,0
3,note_on,52,0,0
3,note_on,37,94,240
3,note_on,37,0,240
3,note_on,56,88,240
3,note_on,53,80,0
3,note_on,49,73,0
3,note_on,49,0,120
3,note_on,53,0,0
3,note_on,56,0,0
3,note_on,56,88,360
3,note_on,53,80,0
3,note_on,49,73,0
3,note_on,49,0,960
3,note_on,53,0,0
3,note_on,56,0,0
3,note_on,32,47,0
3,note_on,32,0,240
3,note_on,54,40,240
3,note_on,51,34,0
3,note_on,48,34,0
3,note_on,44,34,0
3,note_on,44,0,240
3,note_on,54,0,0
3,note_on,51,0,0
3,note_on,48,0,0
3,note_on,33,47,240
3,note_on,33,0,240
3,note_on,54,40,240
3,note_on,51,34,0
3,note_on,48,34,0
3,note_on,45,34,0
3,note_on,45,0,240
3,note_on,54,0,0
3,note_on,51,0,0
3,note_on,48,0,0
3,note_on,34,58,240
3,note_on,34,0,160
3,note_on,53,32,320
3,note_on,49,27,0
3,note_on,46,27,0
3,note_on,46,0,240
3,note_on,49,0,0
3,note_on,53,0,0
3,note_on,46,27,240
3,note_on,49,27,0
3,note_on,53,32,0
3,note_on,53,0,960
3,note_on,49,0,0
3,note_on,46,0,0
3,note_on,32,58,0
3,note_on,32,0,160
3,note_on,53,32,320
3,note_on,48,27,0
3,note_on,44,27,0
3,note_on,44,0,240
3,note_on,48,0,0
3,note_on,53,0,0
3,note_on,44,27,240
3,note_on,48,27,0
3,note_on,53,32,0
3,note_on,53,0,960
3,note_on,48,0,0
3,note_on,44,0,0
3,note_on,31,58,0
3,note_on,31,0,160
3,note_on,43,27,320
3,note_on,53,32,0
3,note_on,50,27,0
3,note_on,47,27,0
3,note_on,47,0,240
3,note_on,43,0,0
3,note_on,53,0,0
3,note_on,50,0,0
3,note_on,43,27,240
3,note_on,47,27,0
3,note_on,50,27,0
3,note_on,53,32,0
3,note_on,53,0,960
3,note_on,43,0,0
3,note_on,47,0,0
3,note_on,50,0,0
3,note_on,32,58,0
3,note_on,32,0,160
3,note_on,51,32,320
3,note_on,48,27,0
3,note_on,44,27,0
3,note_on,44,0,240
3,note_on,48,0,0
3,note_on,51,0,0
3,note_on,44,27,240
3,note_on,48,27,0
3,note_on,51,32,0
3,note_on,51,0,960
3,note_on,48,0,0
3,note_on,44,0,0
3,note_on,33,41,0
3,note_on,33,0,160
3,note_on,36,37,0
3,note_on,36,0,160
3,note_on,39,37,0
3,note_on,39,0,160
3,note_on,42,41,0
3,note_on,42,0,160
3,note_on,45,37,0
3,note_on,45,0,160
3,note_on,48,37,0
3,note_on,48,0,160
3,note_on,51,41,0
3,note_on,51,0,160
3,note_on,54,38,0
3,note_on,54,0,160
3,note_on,57,39,0
3,note_on,57,0,160
3,note_on,31,41,2400
3,note_on,36,41,0
3,note_on,40,41,0
3,note_on,43,41,0
3,note_on,43,0,240
3,note_on,31,0,0
3,note_on,36,0,0
3,note_on,40,0,0
3,note_on,31,29,1800
3,note_on,43,35,0
3,note_on,33,29,120
3,note_on,45,35,0
3,note_on,43,0,10
3,note_on,31,0,0
3,note_on,35,30,110
3,note_on,47,36,0
3,note_on,33,0,10
3,note_on,45,0,0
3,note_on,36,31,110
3,note_on,48,37,0
3,note_on,35,0,10
3,note_on,47,0,0
3,note_on,38,31,110
3,note_on,50,37,0
3,note_on,36,0,10
3,note_on,48,0,0
3,note_on,40,32,110
3,note_on,52,38,0
3,note_on,38,0,10
3,note_on,50,0,0
3,note_on,41,32,110
3,note_on,53,38,0
3,note_on,40,0,10
3,note_on,52,0,0
3,note_on,43,33,110
3,note_on,55,39,0
3,note_on,41,0,10
3,note_on,53,0,0
3,note_on,43,0,230
3,note_on,55,0,0
3,note_on,45,31,0
3,note_on,57,37,0
3,note_on,47,32,120
3,note_on,59,38,0
3,note_on,57,0,10
3,note_on,45,0,0
3,note_on,48,33,110
3,note_on,60,39,0
3,note_on,47,0,10
3,note_on,59,0,0
3,note_on,50,34,110
3,note_on,62,40,0
3,note_on,48,0,10
3,note_on,60,0,0
3,note_on,52,35,110
3,note_on,64,42,0
3,note_on,50,0,10
3,note_on,62,0,0
3,note_on,53,36,110
3,note_on,65,43,0
3,note_on,52,0,10
3,note_on,64,0,0
3,note_on,55,37,110
3,note_on,67,44,0
3,note_on,53,0,10
3,note_on,65,0,0
3,note_on,55,0,230
3,note_on,67,0,0
3,note_on,31,29,1800
3,note_on,43,35,0
3,note_on,33,29,120
3,note_on,45,35,0
3,note_on,43,0,10
3,note_on,31,0,0
3,note_on,35,30,110
3,note_on,47,36,0
3,note_on,33,0,10
3,note_on,45,0,0
3,note_on,36,31,110
3,note_on,48,37,0
3,note_on,35,0,10
3,note_on,47,0,0
3,note_on,38,31,110
3,note_on,50,37,0
3,note_on,36,0,10
3,note_on,48,0,0
3,note_on,40,32,110
3,note_on,52,38,0
3,note_on,38,0,10
3,note_on,50,0,0
3,note_on,41,32,110
3,note_on,53,38,0
3,note_on,40,0,10
3,note_on,52,0,0
3,note_on,43,33,110
3,note_on,55,39,0
3,note_on,41,0,10
3,note_on,53,0,0
3,note_on,43,0,230
3,note_on,55,0,0
3,note_on,45,31,0
3,note_on,57,37,0
3,note_on,47,32,120
3,note_on,59,38,0
3,note_on,57,0,10
3,note_on,45,0,0
3,note_on,48,33,110
3,note_on,60,39,0
3,note_on,47,0,10
3,note_on,59,0,0
3,note_on,50,34,110
3,note_on,62,40,0
3,note_on,48,0,10
3,note_on,60,0,0
3,note_on,52,35,110
3,note_on,64,42,0
3,note_on,50,0,10
3,note_on,62,0,0
3,note_on,53,36,110
3,note_on,65,43,0
3,note_on,52,0,10
3,note_on,64,0,0
3,note_on,55,37,110
3,note_on,67,44,0
3,note_on,53,0,10
3,note_on,65,0,0
3,note_on,55,0,230
3,note_on,67,0,0
3,note_on,55,35,1800
3,note_on,53,37,120
3,note_on,55,0,10
3,note_on,52,38,110
3,note_on,53,0,10
3,note_on,50,40,110
3,note_on,52,0,10
3,note_on,48,41,110
3,note_on,50,0,10
3,note_on,47,43,110
3,note_on,48,0,10
3,note_on,45,44,110
3,note_on,47,0,10
3,note_on,43,46,110
3,note_on,45,0,10
3,note_on,43,0,230
3,note_on,41,47,0
3,note_on,40,48,120
3,note_on,41,0,10
3,note_on,38,50,110
3,note_on,40,0,10
3,note_on,36,51,110
3,note_on,38,0,10
3,note_on,35,53,110
3,note_on,36,0,10
3,note_on,33,54,110
3,note_on,35,0,10
3,note_on,31,57,110
3,note_on,33,0,10
3,note_on,33,57,110
3,note_on,31,0,10
3,note_on,35,58,110
3,note_on,33,0,10
3,note_on,36,58,110
3,note_on,35,0,10
3,note_on,38,59,110
3,note_on,36,0,10
3,note_on,40,59,110
3,note_on,38,0,10
3,note_on,41,60,110
3,note_on,40,0,10
3,note_on,42,60,110
3,note_on,41,0,10
3,note_on,43,61,110
3,note_on,42,0,10
3,note_on,45,61,110
3,note_on,43,0,10
3,note_on,47,62,110
3,note_on,45,0,10
3,note_on,48,62,110
3,note_on,47,0,10
3,note_on,50,63,110
3,note_on,48,0,10
3,note_on,52,63,110
3,note_on,50,0,10
3,note_on,53,64,110
3,note_on,52,0,10
3,note_on,54,64,110
3,note_on,53,0,10
3,note_on,55,64,110
3,note_on,54,0,10
3,note_on,57,64,110
3,note_on,55,0,10
3,note_on,59,65,110
3,note_on,57,0,10
3,note_on,60,65,110
3,note_on,59,0,10
3,note_on,62,66,110
3,note_on,60,0,10
3,note_on,64,66,110
3,note_on,62,0,10
3,note_on,65,67,110
3,note_on,64,0,10
3,note_on,66,67,110
3,note_on,65,0,10
3,note_on,67,68,110
3,note_on,66,0,10
3,note_on,69,66,110
3,note_on,67,0,10
3,note_on,71,65,110
3,note_on,69,0,10
3,note_on,72,63,110
3,note_on,71,0,10
3,note_on,74,62,110
3,note_on,72,0,10
3,note_on,76,57,110
3,note_on,74,0,10
3,note_on,77,55,110
3,note_on,76,0,10
3,note_on,76,53,110
3,note_on,77,0,10
3,note_on,77,56,110
3,note_on,76,0,10
3,note_on,77,0,230
3,note_on,76,43,360
3,note_on,76,0,120
3,note_on,77,46,0
3,note_on,77,0,120
3,note_on,76,43,0
3,note_on,76,0,120
3,note_on,77,51,0
3,note_on,77,0,240
3,note_on,76,42,360
3,note_on,76,0,120
3,note_on,77,46,0
3,note_on,77,0,120
3,note_on,76,42,0
3,note_on,76,0,120
3,note_on,77,50,0
3,note_on,77,0,240
3,note_on,48,51,1680
3,note_on,48,0,160
3,note_on,55,31,0
3,note_on,55,0,160
3,note_on,60,31,0
3,note_on,60,0,160
3,note_on,64,33,0
3,note_on,64,0,160
3,note_on,60,31,0
3,note_on,60,0,160
3,note_on,64,31,0
3,note_on,64,0,160
3,note_on,67,35,0
3,note_on,67,0,160
3,note_on,64,31,0
3,note_on,64,0,160
3,note_on,67,31,0
3,note_on,67,0,160
3,note_on,64,35,0
3,note_on,64,0,160
3,note_on,60,31,0
3,note_on,60,0,160
3,note_on,64,31,0
3,note_on,64,0,160
3,note_on,65,35,0
3,note_on,65,0,160
3,note_on,62,31,0
3,note_on,62,0,160
3,note_on,65,31,0
3,note_on,65,0,160
3,note_on,62,36,0
3,note_on,62,0,160
3,note_on,59,31,0
3,note_on,59,0,160
3,note_on,62,31,0
3,note_on,62,0,160
3,note_on,64,35,0
3,note_on,64,0,160
3,note_on,60,31,0
3,note_on,60,0,160
3,note_on,55,31,0
3,note_on,55,0,160
3,note_on,60,35,0
3,note_on,60,0,160
3,note_on,55,31,0
3,note_on,55,0,160
3,note_on,52,31,0
3,note_on,52,0,160
3,note_on,48,49,0
3,note_on,48,0,160
3,note_on,55,31,0
3,note_on,55,0,160
3,note_on,60,31,0
3,note_on,60,0,160
3,note_on,64,33,0
3,note_on,64,0,160
3,note_on,60,31,0
3,note_on,60,0,160
3,note_on,64,31,0
3,note_on,64,0,160
3,note_on,67,35,0
3,note_on,67,0,160
3,note_on,64,31,0
3,note_on,64,0,160
3,note_on,67,31,0
3,note_on,67,0,160
3,note_on,64,35,0
3,note_on,64,0,160
3,note_on,60,31,0
3,note_on,60,0,160
3,note_on,64,31,0
3,note_on,64,0,160
3,note_on,65,35,0
3,note_on,65,0,160
3,note_on,62,31,0
3,note_on,62,0,160
3,note_on,65,31,0
3,note_on,65,0,160
3,note_on,59,36,0
3,note_on,59,0,160
3,note_on,62,31,0
3,note_on,62,0,160
3,note_on,59,31,0
3,note_on,59,0,160
3,note_on,60,35,0
3,note_on,60,0,160
3,note_on,57,31,0
3,note_on,57,0,160
3,note_on,55,31,0
3,note_on,55,0,160
3,note_on,53,35,0
3,note_on,53,0,160
3,note_on,52,31,0
3,note_on,52,0,160
3,note_on,50,31,0
3,note_on,50,0,160
3,note_on,48,63,0
3,note_on,48,0,160
3,note_on,55,31,0
3,note_on,55,0,160
3,note_on,60,31,0
3,note_on,60,0,160
3,note_on,63,33,0
3,note_on,63,0,160
3,note_on,60,31,0
3,note_on,60,0,160
3,note_on,63,31,0
3,note_on,63,0,160
3,note_on,67,35,0
3,note_on,67,0,160
3,note_on,63,31,0
3,note_on,63,0,160
3,note_on,67,31,0
3,note_on,67,0,160
3,note_on,63,35,0
3,note_on,63,0,160
3,note_on,60,31,0
3,note_on,60,0,160
3,note_on,63,31,0
3,note_on,63,0,160
3,note_on,65,35,0
3,note_on,65,0,160
3,note_on,62,31,0
3,note_on,62,0,160
3,note_on,65,31,0
3,note_on,65,0,160
3,note_on,62,36,0
3,note_on,62,0,160
3,note_on,59,31,0
3,note_on,59,0,160
3,note_on,62,31,0
3,note_on,62,0,160
3,note_on,63,35,0
3,note_on,63,0,160
3,note_on,60,31,0
3,note_on,60,0,160
3,note_on,63,31,0
3,note_on,63,0,160
3,note_on,51,35,0
3,note_on,58,35,0
3,note_on,58,0,160
3,note_on,61,31,0
3,note_on,51,0,80
3,note_on,61,0,80
3,note_on,58,31,0
3,note_on,58,0,160
3,note_on,44,45,0
3,note_on,44,0,160
3,note_on,51,31,0
3,note_on,51,0,160
3,note_on,56,31,0
3,note_on,56,0,160
3,note_on,60,33,0
3,note_on,60,0,160
3,note_on,56,31,0
3,note_on,56,0,160
3,note_on,60,31,0
3,note_on,60,0,160
3,note_on,63,35,0
3,note_on,63,0,160
3,note_on,60,31,0
3,note_on,60,0,160
3,note_on,63,31,0
3,note_on,63,0,160
3,note_on,60,35,0
3,note_on,60,0,160
3,note_on,56,31,0
3,note_on,56,0,160
3,note_on,60,31,0
3,note_on,60,0,160
3,note_on,61,35,0
3,note_on,61,0,160
3,note_on,58,31,0
3,note_on,58,0,160
3,note_on,61,31,0
3,note_on,61,0,160
3,note_on,58,36,0
3,note_on,58,0,160
3,note_on,55,31,0
3,note_on,55,0,160
3,note_on,58,31,0
3,note_on,58,0,160
3,note_on,60,35,0
3,note_on,60,0,160
3,note_on,56,31,0
3,note_on,56,0,160
3,note_on,60,31,0
3,note_on,60,0,160
3,note_on,48,35,0
3,note_on,55,35,0
3,note_on,55,0,160
3,note_on,58,31,0
3,note_on,48,0,80
3,note_on,58,0,80
3,note_on,55,31,0
3,note_on,55,0,160
3,note_on,41,45,0
3,note_on,41,0,160
3,note_on,48,31,0
3,note_on,48,0,160
3,note_on,53,31,0
3,note_on,53,0,160
3,note_on,56,33,0
3,note_on,56,0,160
3,note_on,53,31,0
3,note_on,53,0,160
3,note_on,56,31,0
3,note_on,56,0,160
3,note_on,60,35,0
3,note_on,60,0,160
3,note_on,56,31,0
3,note_on,56,0,160
3,note_on,60,31,0
3,note_on,60,0,160
3,note_on,56,35,0
3,note_on,56,0,160
3,note_on,53,31,0
3,note_on,53,0,160
3,note_on,56,31,0
3,note_on,56,0,160
3,note_on,58,35,0
3,note_on,58,0,160
3,note_on,55,31,0
3,note_on,55,0,160
3,note_on,58,31,0
3,note_on,58,0,160
3,note_on,55,36,0
3,note_on,55,0,160
3,note_on,52,31,0
3,note_on,52,0,160
3,note_on,55,31,0
3,note_on,55,0,160
3,note_on,56,35,0
3,note_on,56,0,160
3,note_on,53,31,0
3,note_on,53,0,160
3,note_on,56,31,0
3,note_on,56,0,160
3,note_on,53,35,0
3,note_on,53,0,160
3,note_on,48,31,0
3,note_on,48,0,160
3,note_on,53,31,0
3,note_on,53,0,160
3,note_on,58,35,0
3,note_on,58,0,160
3,note_on,55,31,0
3,note_on,55,0,160
3,note_on,58,31,0
3,note_on,58,0,160
3,note_on,52,36,0
3,note_on,52,0,160
3,note_on,55,31,0
3,note_on,55,0,160
3,note_on,52,31,0
3,note_on,52,0,160
3,note_on,53,35,0
3,note_on,53,0,160
3,note_on,56,31,0
3,note_on,56,0,160
3,note_on,53,31,0
3,note_on,53,0,160
3,note_on,55,35,0
3,note_on,55,0,160
3,note_on,60,31,0
3,note_on,60,0,160
3,note_on,55,31,0
3,note_on,55,0,160
3,note_on,65,40,0
3,note_on,56,40,0
3,note_on,56,0,240
3,note_on,65,0,0
3,note_on,56,40,480
3,note_on,65,40,0
3,note_on,65,0,240
3,note_on,56,0,0
3,note_on,56,44,0
3,note_on,65,44,0
3,note_on,65,0,240
3,note_on,56,0,0
3,note_on,56,41,480
3,note_on,65,41,0
3,note_on,65,0,240
3,note_on,56,0,0
3,note_on,56,49,0
3,note_on,66,49,0
3,note_on,66,0,240
3,note_on,56,0,0
3,note_on,56,47,480
3,note_on,66,47,0
3,note_on,66,0,240
3,note_on,56,0,0
3,note_on,56,52,0
3,note_on,66,52,0
3,note_on,66,0,240
3,note_on,56,0,0
3,note_on,56,48,480
3,note_on,66,48,0
3,note_on,66,0,240
3,note_on,56,0,0
3,note_on,55,56,0
3,note_on,67,56,0
3,note_on,67,0,240
3,note_on,55,0,0
3,note_on,67,57,0
3,note_on,72,57,0
3,note_on,72,0,240
3,note_on,67,0,0
3,note_on,67,59,0
3,note_on,72,59,0
3,note_on,72,0,240
3,note_on,67,0,0
3,note_on,67,60,0
3,note_on,72,60,0
3,note_on,72,0,240
3,note_on,67,0,0
3,note_on,67,62,0
3,note_on,72,62,0
3,note_on,72,0,240
3,note_on,67,0,0
3,note_on,67,63,0
3,note_on,72,63,0
3,note_on,72,0,240
3,note_on,67,0,0
3,note_on,67,64,0
3,note_on,72,64,0
3,note_on,72,0,240
3,note_on,67,0,0
3,note_on,67,66,0
3,note_on,72,66,0
3,note_on,72,0,240
3,note_on,67,0,0
3,note_on,67,68,0
3,note_on,72,46,0
3,note_on,72,0,80
3,note_on,71,40,0
3,note_on,71,0,80
3,note_on,72,47,0
3,note_on,72,0,80
3,note_on,71,41,0
3,note_on,71,0,80
3,note_on,72,50,0
3,note_on,72,0,80
3,note_on,71,45,0
3,note_on,71,0,80
3,note_on,72,52,0
3,note_on,72,0,80
3,note_on,71,44,0
3,note_on,71,0,80
3,note_on,72,52,0
3,note_on,72,0,80
3,note_on,71,43,0
3,note_on,71,0,80
3,note_on,72,54,0
3,note_on,72,0,80
3,note_on,71,45,0
3,note_on,71,0,80
3,note_on,72,50,0
3,note_on,72,0,80
3,note_on,71,44,0
3,note_on,71,0,80
3,note_on,72,50,0
3,note_on,72,0,80
3,note_on,71,44,0
3,note_on,71,0,80
3,note_on,72,54,0
3,note_on,72,0,80
3,note_on,71,48,0
3,note_on,71,0,80
3,note_on,72,55,0
3,note_on,72,0,80
3,note_on,71,44,0
3,note_on,71,0,80
3,note_on,72,54,0
3,note_on,72,0,80
3,note_on,71,48,0
3,note_on,71,0,80
3,note_on,72,56,0
3,note_on,72,0,80
3,note_on,71,50,0
3,note_on,71,0,80
3,note_on,67,0,0
3,note_on,36,85,0
3,note_on,36,0,240
3,note_on,48,66,0
3,note_on,52,66,0
3,note_on,55,66,0
3,note_on,60,78,0
3,note_on,60,0,120
3,note_on,48,0,0
3,note_on,52,0,0
3,note_on,55,0,0
3,note_on,48,66,120
3,note_on,52,66,0
3,note_on,55,66,0
3,note_on,60,78,0
3,note_on,60,0,480
3,note_on,55,0,0
3,note_on,52,0,0
3,note_on,53,69,0
3,note_on,55,69,0
3,note_on,59,82,0
3,note_on,59,0,480
3,note_on,55,0,0
3,note_on,53,0,0
3,note_on,52,65,0
3,note_on,55,65,0
3,note_on,60,77,0
3,note_on,60,0,480
3,note_on,48,0,0
3,note_on,52,0,0
3,note_on,55,0,0
3,note_on,36,48,0
3,note_on,36,0,240
3,note_on,48,37,0
3,note_on,52,37,0
3,note_on,55,37,0
3,note_on,60,43,0
3,note_on,60,0,120
3,note_on,48,0,0
3,note_on,52,0,0
3,note_on,55,0,0
3,note_on,48,37,120
3,note_on,52,37,0
3,note_on,55,37,0
3,note_on,60,43,0
3,note_on,60,0,480
3,note_on,55,0,0
3,note_on,52,0,0
3,note_on,53,38,0
3,note_on,55,38,0
3,note_on,59,46,0
3,note_on,59,0,480
3,note_on,55,0,0
3,note_on,53,0,0
3,note_on,52,37,0
3,note_on,55,37,0
3,note_on,60,43,0
3,note_on,60,0,480
3,note_on,48,0,0
3,note_on,52,0,0
3,note_on,55,0,0
3,note_on,36,85,0
3,note_on,36,0,240
3,note_on,48,66,0
3,note_on,52,66,0
3,note_on,55,66,0
3,note_on,60,78,0
3,note_on,60,0,120
3,note_on,48,0,0
3,note_on,52,0,0
3,note_on,55,0,0
3,note_on,48,66,120
3,note_on,52,66,0
3,note_on,55,66,0
3,note_on,60,78,0
3,note_on,60,0,480
3,note_on,55,0,0
3,note_on,52,0,0
3,note_on,53,69,0
3,note_on,55,69,0
3,note_on,59,82,0
3,note_on,59,0,480
3,note_on,55,0,0
3,note_on,53,0,0
3,note_on,52,65,0
3,note_on,55,65,0
3,note_on,60,77,0
3,note_on,60,0,480
3,note_on,48,0,0
3,note_on,52,0,0
3,note_on,55,0,0
3,note_on,36,48,0
3,note_on,36,0,240
3,note_on,48,37,0
3,note_on,52,37,0
3,note_on,55,37,0
3,note_on,60,43,0
3,note_on,60,0,120
3,note_on,48,0,0
3,note_on,52,0,0
3,note_on,55,0,0
3,note_on,48,37,120
3,note_on,52,37,0
3,note_on,55,37,0
3,note_on,60,43,0
3,note_on,60,0,480
3,note_on,55,0,0
3,note_on,52,0,0
3,note_on,53,38,0
3,note_on,55,38,0
3,note_on,59,46,0
3,note_on,59,0,480
3,note_on,55,0,0
3,note_on,53,0,0
3,note_on,52,37,0
3,note_on,55,37,0
3,note_on,60,43,0
3,note_on,60,0,480
3,note_on,48,0,0
3,note_on,52,0,0
3,note_on,55,0,0
3,note_on,48,34,0
3,note_on,53,41,0
3,note_on,53,0,238
3,note_on,48,0,0
3,note_on,48,30,2
3,note_on,53,36,0
3,note_on,53,0,238
3,note_on,48,0,0
3,note_on,48,31,2
3,note_on,52,37,0
3,note_on,52,0,238
3,note_on,48,0,0
3,note_on,48,32,2
3,note_on,52,38,0
3,note_on,52,0,238
3,note_on,48,0,0
3,note_on,48,34,2
3,note_on,53,41,0
3,note_on,53,0,238
3,note_on,48,0,0
3,note_on,48,30,2
3,note_on,53,36,0
3,note_on,53,0,238
3,note_on,48,0,0
3,note_on,48,31,2
3,note_on,52,37,0
3,note_on,52,0,238
3,note_on,48,0,0
3,note_on,48,32,2
3,note_on,52,38,0
3,note_on,52,0,238
3,note_on,48,0,0
3,note_on,48,37,2
3,note_on,53,45,0
3,note_on,53,0,238
3,note_on,48,0,0
3,note_on,53,33,2
3,note_on,48,33,0
3,note_on,55,40,0
3,note_on,55,0,238
3,note_on,48,0,0
3,note_on,53,0,0
3,note_on,50,36,2
3,note_on,53,36,0
3,note_on,55,36,0
3,note_on,48,36,0
3,note_on,59,43,0
3,note_on,59,0,238
3,note_on,55,0,0
3,note_on,50,0,0
3,note_on,53,0,0
3,note_on,48,0,0
3,note_on,50,38,2
3,note_on,53,38,0
3,note_on,55,38,0
3,note_on,48,38,0
3,note_on,59,45,0
3,note_on,59,0,238
3,note_on,55,0,0
3,note_on,50,0,0
3,note_on,53,0,0
3,note_on,48,0,0
3,note_on,50,42,2
3,note_on,53,42,0
3,note_on,55,42,0
3,note_on,48,42,0
3,note_on,59,51,0
3,note_on,59,0,238
3,note_on,55,0,0
3,note_on,50,0,0
3,note_on,53,0,0
3,note_on,48,0,0
3,note_on,50,38,2
3,note_on,55,38,0
3,note_on,53,38,0
3,note_on,48,38,0
3,note_on,59,46,0
3,note_on,59,0,238
3,note_on,53,0,0
3,note_on,50,0,0
3,note_on,55,0,0
3,note_on,48,0,0
3,note_on,50,40,2
3,note_on,53,40,0
3,note_on,55,40,0
3,note_on,48,40,0
3,note_on,59,48,0
3,note_on,59,0,238
3,note_on,55,0,0
3,note_on,50,0,0
3,note_on,53,0,0
3,note_on,48,0,0
3,note_on,50,43,2
3,note_on,53,43,0
3,note_on,55,43,0
3,note_on,48,43,0
3,note_on,59,51,0
3,note_on,59,0,238
3,note_on,55,0,0
3,note_on,50,0,0
3,note_on,53,0,0
3,note_on,48,0,0
3,note_on,50,47,2
3,note_on,53,47,0
3,note_on,55,47,0
3,note_on,48,47,0
3,note_on,59,57,0
3,note_on,59,0,238
3,note_on,55,0,0
3,note_on,50,0,0
3,note_on,53,0,0
3,note_on,48,0,0
3,note_on,50,42,2
3,note_on,55,42,0
3,note_on,53,42,0
3,note_on,48,42,0
3,note_on,59,50,0
3,note_on,59,0,238
3,note_on,53,0,0
3,note_on,50,0,0
3,note_on,55,0,0
3,note_on,48,0,0
3,note_on,50,44,2
3,note_on,53,44,0
3,note_on,55,44,0
3,note_on,48,44,0
3,note_on,59,52,0
3,note_on,59,0,238
3,note_on,55,0,0
3,note_on,50,0,0
3,note_on,53,0,0
3,note_on,48,0,0
3,note_on,50,45,2
3,note_on,53,45,0
3,note_on,55,45,0
3,note_on,48,45,0
3,note_on,59,55,0
3,note_on,59,0,238
3,note_on,55,0,0
3,note_on,50,0,0
3,note_on,53,0,0
3,note_on,48,0,0
3,note_on,50,49,2
3,note_on,53,49,0
3,note_on,55,49,0
3,note_on,48,49,0
3,note_on,59,60,0
3,note_on,59,0,238
3,note_on,55,0,0
3,note_on,50,0,0
3,note_on,53,0,0
3,note_on,48,0,0
3,note_on,50,45,2
3,note_on,55,45,0
3,note_on,53,45,0
3,note_on,48,45,0
3,note_on,59,54,0
3,note_on,59,0,238
3,note_on,53,0,0
3,note_on,50,0,0
3,note_on,55,0,0
3,note_on,48,0,0
3,note_on,50,46,2
3,note_on,53,46,0
3,note_on,55,46,0
3,note_on,48,46,0
3,note_on,59,55,0
3,note_on,59,0,238
3,note_on,55,0,0
3,note_on,50,0,0
3,note_on,53,0,0
3,note_on,48,0,0
3,note_on,50,48,2
3,note_on,53,48,0
3,note_on,55,48,0
3,note_on,48,48,0
3,note_on,59,58,0
3,note_on,59,0,238
3,note_on,55,0,0
3,note_on,50,0,0
3,note_on,53,0,0
3,note_on,48,0,0
3,note_on,36,71,2
3,note_on,48,71,0
3,note_on,48,0,240
3,note_on,36,0,0
3,note_on,52,56,0
3,note_on,55,67,0
3,note_on,55,0,120
3,note_on,52,0,0
3,note_on,48,59,120
3,note_on,52,70,0
3,note_on,52,0,120
3,note_on,48,0,0
3,note_on,60,67,120
3,note_on,55,56,0
3,note_on,55,0,120
3,note_on,60,0,0
3,note_on,52,59,120
3,note_on,55,70,0
3,note_on,55,0,120
3,note_on,52,0,0
3,note_on,60,56,120
3,note_on,64,67,0
3,note_on,64,0,120
3,note_on,60,0,0
3,note_on,55,60,120
3,note_on,60,71,0
3,note_on,60,0,120
3,note_on,55,0,0
3,note_on,60,56,120
3,note_on,64,67,0
3,note_on,64,0,120
3,note_on,60,0,0
3,note_on,64,59,120
3,note_on,67,70,0
3,note_on,67,0,120
3,note_on,64,0,0
3,note_on,67,57,120
3,note_on,72,68,0
3,note_on,72,0,120
3,note_on,67,0,0
3,note_on,64,59,120
3,note_on,67,70,0
3,note_on,67,0,120
3,note_on,64,0,0
3,note_on,72,57,120
3,note_on,76,68,0
3,note_on,76,0,120
3,note_on,72,0,0
3,note_on,67,60,120
3,note_on,72,71,0
3,note_on,72,0,120
3,note_on,67,0,0
3,note_on,76,58,120
3,note_on,79,69,0
3,note_on,79,0,120
3,note_on,76,0,0
3,note_on,72,61,120
3,note_on,76,72,0
3,note_on,76,0,120
3,note_on,72,0,0
3,note_on,76,58,120
3,note_on,79,69,0
3,note_on,79,0,120
3,note_on,76,0,0
3,note_on,72,61,120
3,note_on,76,72,0
3,note_on,76,0,120
3,note_on,72,0,0
3,note_on,64,44,840
3,note_on,67,62,0
3,note_on,67,0,240
3,note_on,64,0,0
3,note_on,60,39,720
3,note_on,64,56,0
3,note_on,64,0,240
3,note_on,60,0,0
3,note_on,52,37,720
3,note_on,55,52,0
3,note_on,55,0,240
3,note_on,52,0,0
3,note_on,48,32,720
3,note_on,52,45,0
3,note_on,52,0,240
3,note_on,48,0,0
3,note_on,64,28,720
3,note_on,67,34,0
3,note_on,67,0,240
3,note_on,64,0,0
3,note_on,64,28,240
3,note_on,67,34,0
3,note_on,67,0,240
3,note_on,64,0,0
3,note_on,60,28,240
3,note_on,64,34,0
3,note_on,64,0,240
3,note_on,60,0,0
3,note_on,36,69,720
3,note_on,40,69,0
3,note_on,43,69,0
3,note_on,48,82,0
3,note_on,48,0,120
3,note_on,36,0,0
3,note_on,40,0,0
3,note_on,43,0,0
3,note_on,36,69,360
3,note_on,40,69,0
3,note_on,43,69,0
3,note_on,48,82,0
3,note_on,48,0,120
3,note_on,36,0,0
3,note_on,40,0,0
3,note_on,43,0,0
3,note_on,36,69,360
3,note_on,40,69,0
3,note_on,43,69,0
3,note_on,48,82,0
3,note_on,48,0,120
3,note_on,36,0,0
3,note_on,40,0,0
3,note_on,43,0,0
3,note_on,36,69,840
3,note_on,40,69,0
3,note_on,43,69,0
3,note_on,48,82,0
3,note_on,48,0,120
3,note_on,36,0,0
3,note_on,40,0,0
3,note_on,43,0,0
3,note_on,36,69,840
3,note_on,40,69,0
3,note_on,43,69,0
3,note_on,48,82,0
3,note_on,48,0,120
3,note_on,36,0,0
3,note_on,40,0,0
3,note_on,43,0,0
